999
dxflib 3.3.4.0
  0
SECTION
  2
HEADER
  9
$ACADVER
  1
AC1015
  9
$HANDSEED
  5
FFFF
  9
$DIMADEC
 70
0
  9
$DIMASZ
 40
2.5
  9
$DIMAUNIT
 70
0
  9
$DIMAZIN
 70
2
  9
$DIMDEC
 70
4
  9
$DIMEXE
 40
1.25
  9
$DIMEXO
 40
0.625
  9
$DIMGAP
 40
0.625
  9
$DIMLUNIT
 70
2
  9
$DIMTSZ
 40
0.0
  9
$DIMTXT
 40
2.5
  9
$DIMZIN
 70
8
  9
$DWGCODEPAGE
  3
ANSI_1252
  9
$INSUNITS
 70
4
  9
$LTSCALE
 40
1.0
  0
ENDSEC
  0
SECTION
  2
TABLES
  0
TABLE
  2
VPORT
  5
8
100
AcDbSymbolTable
 70
1
  0
VPORT
  5
30
100
AcDbSymbolTableRecord
100
AcDbViewportTableRecord
  2
*Active
 70
0
 10
0.0
 20
0.0
 11
1.0
 21
1.0
 12
286.3055555555554861
 22
148.5
 13
0.0
 23
0.0
 14
10.0
 24
10.0
 15
10.0
 25
10.0
 16
0.0
 26
0.0
 36
1.0
 17
0.0
 27
0.0
 37
0.0
 40
297.0
 41
1.92798353909465
 42
50.0
 43
0.0
 44
0.0
 50
0.0
 51
0.0
 71
0
 72
100
 73
1
 74
3
 75
1
 76
1
 77
0
 78
0
281
0
 65
1
110
0.0
120
0.0
130
0.0
111
1.0
121
0.0
131
0.0
112
0.0
122
1.0
132
0.0
 79
0
146
0.0
  0
ENDTAB
  0
TABLE
  2
LTYPE
  5
5
100
AcDbSymbolTable
 70
21
  0
LTYPE
  5
16
100
AcDbSymbolTableRecord
100
AcDbLinetypeTableRecord
  2
CONTINUOUS
 70
0
  3
Solid line
 72
65
 73
0
 40
0.0
  0
LTYPE
  5
31
100
AcDbSymbolTableRecord
100
AcDbLinetypeTableRecord
  2
CENTER2
 70
0
  3
Center (.5x) ___ _ ___ _ ___ _ ___ _ ___ _ ___
 72
65
 73
4
 40
28.5749999999999993
 49
19.0500000000000007
 74
0
 49
-3.1749999999999998
 74
0
 49
3.1749999999999998
 74
0
 49
-3.1749999999999998
 74
0
  0
LTYPE
  5
32
100
AcDbSymbolTableRecord
100
AcDbLinetypeTableRecord
  2
DIVIDEX2
 70
0
  3
Divide (2x) ________  .  .  ________  .  .  _
 72
65
 73
6
 40
63.5
 49
25.3999999999999986
 74
0
 49
-12.6999999999999993
 74
0
 49
0.0
 74
0
 49
-12.6999999999999993
 74
0
 49
0.0
 74
0
 49
-12.6999999999999993
 74
0
  0
LTYPE
  5
33
100
AcDbSymbolTableRecord
100
AcDbLinetypeTableRecord
  2
DOT2
 70
0
  3
Dot (.5x) .....................................
 72
65
 73
2
 40
3.1749999999999998
 49
0.0
 74
0
 49
-3.1749999999999998
 74
0
  0
LTYPE
  5
34
100
AcDbSymbolTableRecord
100
AcDbLinetypeTableRecord
  2
DASHDOT2
 70
0
  3
Dash dot (.5x) _._._._._._._._._._._._._._._.
 72
65
 73
4
 40
12.6999999999999993
 49
6.3499999999999996
 74
0
 49
-3.1749999999999998
 74
0
 49
0.0
 74
0
 49
-3.1749999999999998
 74
0
  0
LTYPE
  5
35
100
AcDbSymbolTableRecord
100
AcDbLinetypeTableRecord
  2
DIVIDE
 70
0
  3
Divide ____ . . ____ . . ____ . . ____ . . ____
 72
65
 73
6
 40
31.75
 49
12.6999999999999993
 74
0
 49
-6.3499999999999996
 74
0
 49
0.0
 74
0
 49
-6.3499999999999996
 74
0
 49
0.0
 74
0
 49
-6.3499999999999996
 74
0
  0
LTYPE
  5
36
100
AcDbSymbolTableRecord
100
AcDbLinetypeTableRecord
  2
DASHDOT
 70
0
  3
Dash dot __ . __ . __ . __ . __ . __ . __ . __
 72
65
 73
4
 40
25.3999999999999986
 49
12.6999999999999993
 74
0
 49
-6.3499999999999996
 74
0
 49
0.0
 74
0
 49
-6.3499999999999996
 74
0
  0
LTYPE
  5
37
100
AcDbSymbolTableRecord
100
AcDbLinetypeTableRecord
  2
BORDER
 70
0
  3
Border __ __ . __ __ . __ __ . __ __ . __ __ .
 72
65
 73
6
 40
44.4500000000000028
 49
12.6999999999999993
 74
0
 49
-6.3499999999999996
 74
0
 49
12.6999999999999993
 74
0
 49
-6.3499999999999996
 74
0
 49
0.0
 74
0
 49
-6.3499999999999996
 74
0
  0
LTYPE
  5
38
100
AcDbSymbolTableRecord
100
AcDbLinetypeTableRecord
  2
DASHDOTX2
 70
0
  3
Dash dot (2x) ____  .  ____  .  ____  .  ___
 72
65
 73
4
 40
50.7999999999999972
 49
25.3999999999999986
 74
0
 49
-12.6999999999999993
 74
0
 49
0.0
 74
0
 49
-12.6999999999999993
 74
0
  0
LTYPE
  5
39
100
AcDbSymbolTableRecord
100
AcDbLinetypeTableRecord
  2
CENTERX2
 70
0
  3
Center (2x) ________  __  ________  __  _____
 72
65
 73
4
 40
101.5999999999999943
 49
63.5
 74
0
 49
-12.6999999999999993
 74
0
 49
12.6999999999999993
 74
0
 49
-12.6999999999999993
 74
0
  0
LTYPE
  5
3A
100
AcDbSymbolTableRecord
100
AcDbLinetypeTableRecord
  2
BORDER2
 70
0
  3
Border (.5x) __.__.__.__.__.__.__.__.__.__.__.
 72
65
 73
6
 40
22.2250000000000014
 49
6.3499999999999996
 74
0
 49
-3.1749999999999998
 74
0
 49
6.3499999999999996
 74
0
 49
-3.1749999999999998
 74
0
 49
0.0
 74
0
 49
-3.1749999999999998
 74
0
  0
LTYPE
  5
3B
100
AcDbSymbolTableRecord
100
AcDbLinetypeTableRecord
  2
BORDERX2
 70
0
  3
Border (2x) ____  ____  .  ____  ____  .  ___
 72
65
 73
6
 40
88.9000000000000057
 49
25.3999999999999986
 74
0
 49
-12.6999999999999993
 74
0
 49
25.3999999999999986
 74
0
 49
-12.6999999999999993
 74
0
 49
0.0
 74
0
 49
-12.6999999999999993
 74
0
  0
LTYPE
  5
14
100
AcDbSymbolTableRecord
100
AcDbLinetypeTableRecord
  2
BYBLOCK
 70
0
  3

 72
65
 73
0
 40
0.0
  0
LTYPE
  5
15
100
AcDbSymbolTableRecord
100
AcDbLinetypeTableRecord
  2
BYLAYER
 70
0
  3

 72
65
 73
0
 40
0.0
  0
LTYPE
  5
3C
100
AcDbSymbolTableRecord
100
AcDbLinetypeTableRecord
  2
DASHED2
 70
0
  3
Dashed (.5x) _ _ _ _ _ _ _ _ _ _ _ _ _ _ _ _ _
 72
65
 73
2
 40
9.5250000000000004
 49
6.3499999999999996
 74
0
 49
-3.1749999999999998
 74
0
  0
LTYPE
  5
3D
100
AcDbSymbolTableRecord
100
AcDbLinetypeTableRecord
  2
CENTER
 70
0
  3
Center ____ _ ____ _ ____ _ ____ _ ____ _ ____
 72
65
 73
4
 40
50.7999999999999972
 49
31.75
 74
0
 49
-6.3499999999999996
 74
0
 49
6.3499999999999996
 74
0
 49
-6.3499999999999996
 74
0
  0
LTYPE
  5
3E
100
AcDbSymbolTableRecord
100
AcDbLinetypeTableRecord
  2
DIVIDE2
 70
0
  3
Divide (.5x) __..__..__..__..__..__..__..__.._
 72
65
 73
6
 40
15.875
 49
6.3499999999999996
 74
0
 49
-3.1749999999999998
 74
0
 49
0.0
 74
0
 49
-3.1749999999999998
 74
0
 49
0.0
 74
0
 49
-3.1749999999999998
 74
0
  0
LTYPE
  5
3F
100
AcDbSymbolTableRecord
100
AcDbLinetypeTableRecord
  2
DASHED
 70
0
  3
Dashed __ __ __ __ __ __ __ __ __ __ __ __ __ _
 72
65
 73
2
 40
19.0500000000000007
 49
12.6999999999999993
 74
0
 49
-6.3499999999999996
 74
0
  0
LTYPE
  5
40
100
AcDbSymbolTableRecord
100
AcDbLinetypeTableRecord
  2
DOTX2
 70
0
  3
Dot (2x) .  .  .  .  .  .  .  .  .  .  .  .  .
 72
65
 73
2
 40
12.6999999999999993
 49
0.0
 74
0
 49
-12.6999999999999993
 74
0
  0
LTYPE
  5
41
100
AcDbSymbolTableRecord
100
AcDbLinetypeTableRecord
  2
DASHEDX2
 70
0
  3
Dashed (2x) ____  ____  ____  ____  ____  ___
 72
65
 73
2
 40
38.1000000000000014
 49
25.3999999999999986
 74
0
 49
-12.6999999999999993
 74
0
  0
LTYPE
  5
42
100
AcDbSymbolTableRecord
100
AcDbLinetypeTableRecord
  2
DOT
 70
0
  3
Dot . . . . . . . . . . . . . . . . . . . . . .
 72
65
 73
2
 40
6.3499999999999996
 49
0.0
 74
0
 49
-6.3499999999999996
 74
0
  0
ENDTAB
  0
TABLE
  2
LAYER
  5
2
100
AcDbSymbolTable
 70
4
  0
LAYER
  5
43
100
AcDbSymbolTableRecord
100
AcDbLayerTableRecord
  2
frets
 70
0
 62
1
420
16711680
  6
CONTINUOUS
370
25
390
F
  0
LAYER
  5
44
100
AcDbSymbolTableRecord
100
AcDbLayerTableRecord
  2
reference_marks
 70
1
 62
-7
420
0
  6
CONTINUOUS
370
25
390
F
  0
LAYER
  5
45
100
AcDbSymbolTableRecord
100
AcDbLayerTableRecord
  2
outside_blocks
 70
1
 62
-5
420
255
  6
DASHED2
370
25
390
F
  0
LAYER
  5
10
100
AcDbSymbolTableRecord
100
AcDbLayerTableRecord
  2
0
 70
0
 62
7
420
0
  6
CONTINUOUS
370
25
390
F
  0
ENDTAB
  0
TABLE
  2
STYLE
  5
3
100
AcDbSymbolTable
 70
8
  0
STYLE
  5
46
100
AcDbSymbolTableRecord
100
AcDbTextStyleTableRecord
  2
Standard
 70
0
 40
0.0
 41
1.0
 50
0.0
 71
0
 42
2.5
  3

  4

1001
ACAD
1000
txt
1071
0
  0
STYLE
  5
47
100
AcDbSymbolTableRecord
100
AcDbTextStyleTableRecord
  2
textstyle0
 70
0
 40
0.0
 41
1.0
 50
0.0
 71
0
 42
2.5
  3

  4

1001
ACAD
1000
Liberation Sans
1071
0
  0
STYLE
  5
48
100
AcDbSymbolTableRecord
100
AcDbTextStyleTableRecord
  2
textstyle1
 70
0
 40
0.0
 41
1.0
 50
0.0
 71
0
 42
2.5
  3

  4

1001
ACAD
1000
Liberation Sans
1071
0
  0
STYLE
  5
49
100
AcDbSymbolTableRecord
100
AcDbTextStyleTableRecord
  2
textstyle2
 70
0
 40
0.0
 41
1.0
 50
0.0
 71
0
 42
2.5
  3

  4

1001
ACAD
1000

1071
0
  0
STYLE
  5
4A
100
AcDbSymbolTableRecord
100
AcDbTextStyleTableRecord
  2
textstyle3
 70
0
 40
0.0
 41
1.0
 50
0.0
 71
0
 42
2.5
  3

  4

1001
ACAD
1000

1071
0
  0
STYLE
  5
4B
100
AcDbSymbolTableRecord
100
AcDbTextStyleTableRecord
  2
textstyle4
 70
0
 40
0.0
 41
1.0
 50
0.0
 71
0
 42
2.5
  3

  4

1001
ACAD
1000
Liberation Sans
1071
0
  0
STYLE
  5
4C
100
AcDbSymbolTableRecord
100
AcDbTextStyleTableRecord
  2
textstyle5
 70
0
 40
0.0
 41
1.0
 50
0.0
 71
0
 42
2.5
  3

  4

1001
ACAD
1000
Liberation Sans
1071
0
  0
STYLE
  5
4D
100
AcDbSymbolTableRecord
100
AcDbTextStyleTableRecord
  2
textstyle6
 70
0
 40
0.0
 41
1.0
 50
0.0
 71
0
 42
2.5
  3

  4

1001
ACAD
1000
Liberation Sans
1071
0
  0
ENDTAB
  0
TABLE
  2
VIEW
  5
6
100
AcDbSymbolTable
 70
0
  0
ENDTAB
  0
TABLE
  2
UCS
  5
7
100
AcDbSymbolTable
 70
0
  0
ENDTAB
  0
TABLE
  2
APPID
  5
9
100
AcDbSymbolTable
 70
1
  0
APPID
  5
12
100
AcDbSymbolTableRecord
100
AcDbRegAppTableRecord
  2
ACAD
 70
0
  0
APPID
  5
4E
100
AcDbSymbolTableRecord
100
AcDbRegAppTableRecord
  2
QCAD
 70
0
  0
ENDTAB
  0
TABLE
  2
DIMSTYLE
  5
A
100
AcDbSymbolTable
 70
1
100
AcDbDimStyleTable
 71
0
  0
DIMSTYLE
105
27
100
AcDbSymbolTableRecord
100
AcDbDimStyleTableRecord
  2
Standard
 41
2.5
 42
0.625
 43
3.75
 44
1.25
 70
0
 73
0
 74
0
 77
1
 78
8
140
2.5
141
2.5
143
0.03937007874016
147
0.625
171
3
172
1
271
2
272
2
274
3
278
44
283
0
284
8
340
46
  0
ENDTAB
  0
TABLE
  2
BLOCK_RECORD
  5
1
100
AcDbSymbolTable
 70
1
  0
BLOCK_RECORD
  5
1F
100
AcDbSymbolTableRecord
100
AcDbBlockTableRecord
  2
*Model_Space
340
22
  0
BLOCK_RECORD
  5
1B
100
AcDbSymbolTableRecord
100
AcDbBlockTableRecord
  2
*Paper_Space
340
1E
  0
BLOCK_RECORD
  5
23
100
AcDbSymbolTableRecord
100
AcDbBlockTableRecord
  2
*Paper_Space0
340
26
  0
BLOCK_RECORD
  5
4F
100
AcDbSymbolTableRecord
100
AcDbBlockTableRecord
  2
tuner
340
0
  0
ENDTAB
  0
ENDSEC
  0
SECTION
  2
BLOCKS
  0
BLOCK
  5
20
100
AcDbEntity
  8
0
100
AcDbBlockBegin
  2
*Model_Space
 70
0
 10
0.0
 20
0.0
 30
0.0
  3
*Model_Space
  1

  0
ENDBLK
  5
21
100
AcDbEntity
  8
0
100
AcDbBlockEnd
  0
BLOCK
  5
1C
100
AcDbEntity
 67
1
  8
0
100
AcDbBlockBegin
  2
*Paper_Space
 70
0
 10
0.0
 20
0.0
 30
0.0
  3
*Paper_Space
  1

  0
ENDBLK
  5
1D
100
AcDbEntity
 67
1
  8
0
100
AcDbBlockEnd
  0
BLOCK
  5
24
100
AcDbEntity
  8
0
100
AcDbBlockBegin
  2
*Paper_Space0
 70
0
 10
0.0
 20
0.0
 30
0.0
  3
*Paper_Space0
  1

  0
ENDBLK
  5
25
100
AcDbEntity
  8
0
100
AcDbBlockEnd
  0
BLOCK
  5
50
100
AcDbEntity
  8
0
100
AcDbBlockBegin
  2
tuner
 70
0
 10
0.0
 20
0.0
 30
0.0
  3
tuner
  1

  0
LINE
  5
51
100
AcDbEntity
100
AcDbLine
  8
0
 62
256
370
-1
  6
BYLAYER
 10
-12.0
 20
-7.5
 30
0.0
 11
11.0
 21
-7.5
 31
0.0
  0
LINE
  5
52
100
AcDbEntity
100
AcDbLine
  8
0
 62
256
370
-1
  6
BYLAYER
 10
11.0
 20
-7.5
 30
0.0
 11
11.0
 21
-3.0
 31
0.0
  0
LINE
  5
53
100
AcDbEntity
100
AcDbLine
  8
0
 62
256
370
-1
  6
BYLAYER
 10
4.0
 20
8.0
 30
0.0
 11
-19.0
 21
8.0
 31
0.0
  0
LINE
  5
54
100
AcDbEntity
100
AcDbLine
  8
0
 62
256
370
-1
  6
BYLAYER
 10
-19.0
 20
8.0
 30
0.0
 11
-19.0
 21
3.5
 31
0.0
  0
CIRCLE
  5
55
100
AcDbEntity
100
AcDbCircle
  8
0
 62
256
370
-1
  6
BYLAYER
 10
0.0
 20
0.0
 30
0.0
 40
2.0
  0
LINE
  5
56
100
AcDbEntity
100
AcDbLine
  8
0
 62
256
370
-1
  6
BYLAYER
 10
-19.0
 20
-27.0
 30
0.0
 11
3.0
 21
-27.0
 31
0.0
  0
LINE
  5
57
100
AcDbEntity
100
AcDbLine
  8
0
 62
256
370
-1
  6
BYLAYER
 10
3.0
 20
-27.0
 30
0.0
 11
3.0
 21
-17.0
 31
0.0
  0
LINE
  5
58
100
AcDbEntity
100
AcDbLine
  8
0
 62
256
370
-1
  6
BYLAYER
 10
3.0
 20
-17.0
 30
0.0
 11
-19.0
 21
-17.0
 31
0.0
  0
LINE
  5
59
100
AcDbEntity
100
AcDbLine
  8
0
 62
256
370
-1
  6
BYLAYER
 10
-19.0
 20
-17.0
 30
0.0
 11
-19.0
 21
-27.0
 31
0.0
  0
LINE
  5
5A
100
AcDbEntity
100
AcDbLine
  8
0
 62
256
370
-1
  6
BYLAYER
 10
-11.0
 20
-17.0
 30
0.0
 11
-11.0
 21
-7.5
 31
0.0
  0
LINE
  5
5B
100
AcDbEntity
100
AcDbLine
  8
0
 62
256
370
-1
  6
BYLAYER
 10
-7.0
 20
-17.0
 30
0.0
 11
-7.0
 21
-7.5
 31
0.0
  0
LINE
  5
5C
100
AcDbEntity
100
AcDbLine
  8
0
 62
256
370
-1
  6
BYLAYER
 10
11.0
 20
-3.0
 30
0.0
 11
4.0
 21
8.0
 31
0.0
  0
LINE
  5
5D
100
AcDbEntity
100
AcDbLine
  8
0
 62
256
370
-1
  6
BYLAYER
 10
-12.0
 20
-7.5
 30
0.0
 11
-19.0
 21
3.5
 31
0.0
  0
ENDBLK
  5
5E
100
AcDbEntity
  8
0
100
AcDbBlockEnd
  0
ENDSEC
  0
SECTION
  2
ENTITIES
  0
LINE
  5
5F
100
AcDbEntity
100
AcDbLine
  8
0
 62
256
370
-1
  6
BYLAYER
 10
356.8062309590108043
 20
319.9999999999997726
 30
0.0
 11
119.1666666666676662
 21
320.0
 31
0.0
  0
LINE
  5
60
100
AcDbEntity
100
AcDbLine
  8
0
 62
256
370
-1
  6
BYLAYER
 10
0.0
 20
19.0
 30
0.0
 11
-0.0
 21
-19.0000000000000497
 31
0.0
  0
LINE
  5
61
100
AcDbEntity
100
AcDbLine
  8
0
 62
256
370
-1
  6
BYLAYER
 10
0.0
 20
-19.0000000000000497
 30
0.0
 11
-9.307561489951981
 21
-21.9473944718181606
 31
0.0
  0
LINE
  5
62
100
AcDbEntity
100
AcDbLine
  8
0
 62
256
370
-1
  6
BYLAYER
 10
-51.4045483142888173
 20
-24.9001441471423348
 30
0.0
 11
-105.6418931386616009
 21
-15.7784088812250953
 31
0.0
  0
LINE
  5
63
100
AcDbEntity
100
AcDbLine
  8
0
 62
256
370
-1
  6
BYLAYER
 10
-9.8000000000000007
 20
-127.0
 30
0.0
 11
9.7999999999999972
 21
-127.0
 31
0.0
  0
LINE
  5
64
100
AcDbEntity
100
AcDbLine
  8
0
 62
256
370
-1
  6
BYLAYER
 10
22.5
 20
-114.3000000000000114
 30
0.0
 11
22.5
 21
-107.0
 31
0.0
  0
LINE
  5
65
100
AcDbEntity
100
AcDbLine
  8
0
 62
256
370
-1
  6
BYLAYER
 10
22.5
 20
-107.0
 30
0.0
 11
-22.5
 21
-107.0
 31
0.0
  0
LINE
  5
66
100
AcDbEntity
100
AcDbLine
  8
0
 62
256
370
-1
  6
BYLAYER
 10
-22.5
 20
-107.0
 30
0.0
 11
-22.5
 21
-114.3000000000000114
 31
0.0
  0
LINE
  5
67
100
AcDbEntity
100
AcDbLine
  8
0
 62
256
370
-1
  6
BYLAYER
 10
3.1499999999999986
 20
-107.0
 30
0.0
 11
3.1499999999999986
 21
-127.0
 31
0.0
  0
LINE
  5
68
100
AcDbEntity
100
AcDbLine
  8
0
 62
256
370
-1
  6
BYLAYER
 10
-3.1499999999999986
 20
-107.0
 30
0.0
 11
-3.1500000000000021
 21
-127.0
 31
0.0
  0
MTEXT
  5
69
100
AcDbEntity
100
AcDbMText
  8
0
 62
256
370
-1
  6
BYLAYER
 10
7.5
 20
-117.0
 30
0.0
 40
2.5
 41
0.0
 71
1
 72
1
  1
Maple
  7
textstyle0
 50
0.0
 73
2
 44
1.0
  0
MTEXT
  5
6A
100
AcDbEntity
100
AcDbMText
  8
0
 62
256
370
-1
  6
BYLAYER
 10
-17.5
 20
-117.0
 30
0.0
 40
2.5
 41
0.0
 71
1
 72
1
  1
Maple
  7
textstyle1
 50
0.0
 73
2
 44
1.0
  0
MTEXT
  5
6B
100
AcDbEntity
100
AcDbMText
  8
0
 62
256
370
-1
  6
BYLAYER
 10
-1.5
 20
-124.0
 30
0.0
 40
2.5
 41
0.0
 71
1
 72
1
  1
Arariba
  7
textstyle2
 50
90.0
 73
2
 44
1.0
  0
ARC
  5
6C
100
AcDbEntity
  8
0
 62
256
370
-1
  6
BYLAYER
100
AcDbCircle
 10
-9.8000000000000007
 20
-114.3000000000000114
 30
0.0
 40
12.6999999999999993
100
AcDbArc
 50
180.0
 51
270.0
  0
ARC
  5
6D
100
AcDbEntity
  8
0
 62
256
370
-1
  6
BYLAYER
100
AcDbCircle
 10
9.7999999999999972
 20
-114.3000000000000114
 30
0.0
 40
12.6999999999999993
100
AcDbArc
 50
270.0
 51
0.0
  0
LINE
  5
6E
100
AcDbEntity
100
AcDbLine
  8
0
 62
256
370
-1
  6
BYLAYER
 10
-22.5
 20
-107.0
 30
0.0
 11
22.5
 21
-107.0
 31
0.0
  0
LINE
  5
6F
100
AcDbEntity
100
AcDbLine
  8
0
 62
256
370
-1
  6
BYLAYER
 10
22.5
 20
-107.0
 30
0.0
 11
22.5
 21
-101.5615714555403173
 31
0.0
  0
LINE
  5
70
100
AcDbEntity
100
AcDbLine
  8
0
 62
256
370
-1
  6
BYLAYER
 10
-22.5
 20
-101.5615714555403173
 30
0.0
 11
-22.5
 21
-107.0
 31
0.0
  0
MTEXT
  5
71
100
AcDbEntity
100
AcDbMText
  8
0
 62
256
370
-1
  6
BYLAYER
 10
-5.0
 20
-102.0
 30
0.0
 40
2.5
 41
0.0
 71
1
 72
1
  1
Wenge
  7
textstyle3
 50
0.0
 73
2
 44
1.0
  0
DIMENSION
  5
72
100
AcDbEntity
  8
0
 62
256
370
-1
  6
BYLAYER
100
AcDbDimension
 10
-26.0
 20
-99.9969241834995159
 30
0.0
 11
-27.875
 21
-103.498462091749758
 31
0.0
 70
1
 71
8
 72
2
 41
1.0
 42
0.0
  1
7
  3
Standard
100
AcDbAlignedDimension
 13
0.0
 23
-99.9969241834995159
 33
0.0
 14
0.0
 24
-107.0
 34
0.0
1001
ACAD
1000
DSTYLE
1002
{
1070
144
1040
1
1002
}
  0
ARC
  5
73
100
AcDbEntity
  8
0
 62
256
370
-1
  6
BYLAYER
100
AcDbCircle
 10
0.0
 20
-262.5569241834995182
 30
0.0
 40
162.5600000000000023
100
AcDbArc
 50
82.0441247095331363
 51
97.9558752904668779
  0
MTEXT
  5
74
100
AcDbEntity
100
AcDbMText
  8
0
 62
256
370
-1
  6
BYLAYER
 10
-15.0
 20
-129.0
 30
0.0
 40
2.5
 41
0.0
 71
1
 72
1
  1
Neck Cross Section
  7
textstyle4
 50
0.0
 73
2
 44
1.0
  0
DIMENSION
  5
75
100
AcDbEntity
  8
0
 62
256
370
-1
  6
BYLAYER
100
AcDbDimension
 10
30.0
 20
-107.0
 30
0.0
 11
28.125
 21
-117.0
 31
0.0
 70
1
 71
8
 72
2
 41
1.0
 42
0.0
  1

  3
Standard
100
AcDbAlignedDimension
 13
3.1499999999999986
 23
-107.0
 33
0.0
 14
3.1499999999999986
 24
-127.0000000000000142
 34
0.0
1001
ACAD
1000
DSTYLE
1002
{
1070
144
1040
1
1002
}
  0
DIMENSION
  5
76
100
AcDbEntity
  8
0
 62
256
370
-1
  6
BYLAYER
100
AcDbDimension
 10
-22.4999999999999964
 20
-90.0
 30
0.0
 11
0.0000000000000041
 21
-88.125
 31
0.0
 70
1
 71
8
 72
2
 41
1.0
 42
0.0
  1

  3
Standard
100
AcDbAlignedDimension
 13
-22.5
 23
-101.5615714555403173
 33
0.0
 14
22.5
 24
-101.5615714555403315
 34
0.0
1001
ACAD
1000
DSTYLE
1002
{
1070
144
1040
1
1002
}
  0
LINE
  5
77
100
AcDbEntity
100
AcDbLine
  8
0
 62
256
370
-1
  6
BYLAYER
 10
-36.2500000000004405
 20
300.0
 30
0.0
 11
313.166666666667652
 21
300.0
 31
0.0
  0
LINE
  5
78
100
AcDbEntity
100
AcDbLine
  8
0
 62
256
370
-1
  6
BYLAYER
 10
-139.5754379900381252
 20
284.904950467202525
 30
0.0
 11
-1.550748147990717
 21
315.5732503677843397
 31
0.0
  0
LINE
  5
79
100
AcDbEntity
100
AcDbLine
  8
0
 62
256
370
-1
  6
BYLAYER
 10
82.9166666666676662
 20
320.0
 30
0.0
 11
-136.5387751757213834
 21
271.2382508307817375
 31
0.0
  0
LINE
  5
7A
100
AcDbEntity
100
AcDbLine
  8
0
 62
256
370
-1
  6
BYLAYER
 10
700.0000000000001137
 20
-977.5
 30
0.0
 11
699.9999999999998863
 21
-1022.5
 31
0.0
  0
LINE
  5
7B
100
AcDbEntity
100
AcDbLine
  8
0
 62
256
370
-1
  6
BYLAYER
 10
384.5160090625032581
 20
-1022.5
 30
0.0
 11
699.9999999999998863
 21
-1022.5
 31
0.0
  0
LINE
  5
7C
100
AcDbEntity
100
AcDbLine
  8
0
 62
256
370
-1
  6
BYLAYER
 10
635.0
 20
-1022.5
 30
0.0
 11
635.0
 21
-977.5
 31
0.0
  0
LINE
  5
7D
100
AcDbEntity
100
AcDbLine
  8
0
 62
256
370
-1
  6
BYLAYER
 10
700.0000000000001137
 20
-977.5
 30
0.0
 11
384.5160090625150247
 21
-977.5
 31
0.0
  0
LINE
  5
7E
100
AcDbEntity
100
AcDbLine
  8
0
 62
256
370
-1
  6
BYLAYER
 10
0.0000000000068884
 20
-980.999990520898109
 30
0.0
 11
0.0000000000068884
 21
-1019.0000094791025731
 31
0.0
  0
LINE
  5
7F
100
AcDbEntity
100
AcDbLine
  8
0
 62
256
370
-1
  6
BYLAYER
 10
-1.6666666666665284
 20
320.0
 30
0.0
 11
119.1666666666678225
 21
320.0
 31
0.0
  0
LINE
  5
80
100
AcDbEntity
100
AcDbLine
  8
0
 62
256
370
-1
  6
BYLAYER
 10
-139.5754379900381252
 20
284.904950467202525
 30
0.0
 11
-136.5387751757214403
 21
271.2382508307816806
 31
0.0
  0
LINE
  5
81
100
AcDbEntity
100
AcDbLine
  8
0
 62
256
370
-1
  6
BYLAYER
 10
413.166666666667652
 20
320.0
 30
0.0
 11
413.166666666667652
 21
327.0
 31
0.0
  0
LINE
  5
82
100
AcDbEntity
100
AcDbLine
  8
0
 62
256
370
-1
  6
BYLAYER
 10
413.166666666667652
 20
327.0
 30
0.0
 11
3.1666666666676671
 21
327.0
 31
0.0
  0
LINE
  5
83
100
AcDbEntity
100
AcDbLine
  8
0
 62
256
370
-1
  6
BYLAYER
 10
3.1666666666676671
 20
327.0
 30
0.0
 11
3.1666666666676671
 21
320.0
 31
0.0
  0
LINE
  5
84
100
AcDbEntity
100
AcDbLine
  8
0
 62
256
370
-1
  6
BYLAYER
 10
3.1666666666676671
 20
327.0
 30
0.0
 11
3.1666666666676671
 21
331.0
 31
0.0
  0
LINE
  5
85
100
AcDbEntity
100
AcDbLine
  8
0
 62
256
370
-1
  6
BYLAYER
 10
3.1666666666676671
 20
331.0
 30
0.0
 11
-0.8333333333323328
 21
331.0
 31
0.0
  0
LINE
  5
86
100
AcDbEntity
100
AcDbLine
  8
0
 62
256
370
-1
  6
BYLAYER
 10
-0.8333333333323328
 20
331.0
 30
0.0
 11
-0.8333333333323329
 21
320.0
 31
0.0
  0
LINE
  5
87
100
AcDbEntity
100
AcDbLine
  8
0
 62
256
370
-1
  6
BYLAYER
 10
346.8062309590093832
 20
214.9999999999999716
 30
0.0
 11
726.6666666666674246
 21
214.9999999999995168
 31
0.0
  0
LINE
  5
88
100
AcDbEntity
100
AcDbLine
  8
0
 62
256
370
-1
  6
BYLAYER
 10
726.6666666666674246
 20
319.9999999999980105
 30
0.0
 11
346.8062309590093832
 21
319.9999999999998295
 31
0.0
  0
SPLINE
  5
89
  8
0
 62
256
370
-1
  6
BYLAYER
100
AcDbEntity
100
AcDbSpline
 70
8
 71
3
 72
9
 73
5
 74
0
 40
0.0
 40
0.0
 40
0.0
 40
0.0
 40
1.0
 40
2.0
 40
2.0
 40
2.0
 40
2.0
 10
313.166666666667652
 20
300.0
 30
0.0
 10
318.166666666667652
 20
300.0
 30
0.0
 10
329.166666666667652
 20
297.0
 30
0.0
 10
334.166666666667652
 20
286.0
 30
0.0
 10
333.8816126588621387
 20
280.0
 30
0.0
  0
LINE
  5
8A
100
AcDbEntity
100
AcDbLine
  8
0
 62
256
370
-1
  6
BYLAYER
 10
333.8816126588621387
 20
280.0
 30
0.0
 11
719.166666666667652
 21
280.0
 31
0.0
  0
SPLINE
  5
8B
  8
0
 62
256
370
-1
  6
BYLAYER
100
AcDbEntity
100
AcDbSpline
 70
8
 71
3
 72
77
 73
73
 74
0
 40
0.0
 40
0.0
 40
0.0
 40
0.0
 40
1.0
 40
2.0
 40
3.0
 40
4.0
 40
5.0
 40
6.0
 40
7.0
 40
8.0
 40
9.0
 40
10.0
 40
11.0
 40
12.0
 40
13.0
 40
14.0
 40
15.0
 40
16.0
 40
17.0
 40
18.0
 40
19.0
 40
20.0
 40
21.0
 40
22.0
 40
23.0
 40
24.0
 40
25.0
 40
26.0
 40
27.0
 40
28.0
 40
29.0
 40
30.0
 40
31.0
 40
32.0
 40
33.0
 40
34.0
 40
35.0
 40
36.0
 40
37.0
 40
38.0
 40
39.0
 40
40.0
 40
41.0
 40
42.0
 40
43.0
 40
44.0
 40
45.0
 40
46.0
 40
47.0
 40
48.0
 40
49.0
 40
50.0
 40
51.0
 40
52.0
 40
53.0
 40
54.0
 40
55.0
 40
56.0
 40
57.0
 40
58.0
 40
59.0
 40
60.0
 40
61.0
 40
62.0
 40
63.0
 40
64.0
 40
65.0
 40
66.0
 40
67.0
 40
68.0
 40
69.0
 40
70.0
 40
70.0
 40
70.0
 40
70.0
 10
384.5160090625271323
 20
-1022.5
 30
0.0
 10
382.0951449827640545
 20
-1030.9842816975001369
 30
0.0
 10
375.9034085603641415
 20
-1043.8630934560922014
 30
0.0
 10
365.5012913707321331
 20
-1056.9895746715801579
 30
0.0
 10
354.1084963535161023
 20
-1067.3916918612121663
 30
0.0
 10
340.0257358461240074
 20
-1074.9043320537243744
 30
0.0
 10
324.0304167549240901
 20
-1077.6562149081241841
 30
0.0
 10
312.5069073021240911
 20
-1077.1402368729241061
 30
0.0
 10
305.7991928445239864
 20
-1080.2361050841243468
 30
0.0
 10
302.8753173117240749
 20
-1085.0519000793242412
 30
0.0
 10
302.3593392765241106
 20
-1091.0716438233243935
 30
0.0
 10
304.2512587389240934
 20
-1098.8113143513241994
 30
0.0
 10
308.7230683773241253
 20
-1103.4551166681244467
 30
0.0
 10
317.4946949757240873
 20
-1109.3028677337242698
 30
0.0
 10
330.0501604989241287
 20
-1113.4306920153244391
 30
0.0
 10
345.5295015549240816
 20
-1114.806633442524344
 30
0.0
 10
363.2447474301241073
 20
-1113.0867066585242355
 30
0.0
 10
390.7635759741240236
 20
-1105.1750434521243278
 30
0.0
 10
402.2870854269241363
 20
-1099.155299708124403
 30
0.0
 10
421.3782727293241805
 20
-1091.7596145369243459
 30
0.0
 10
437.201599142123996
 20
-1089.0077316825243088
 30
0.0
 10
452.3369548413240864
 20
-1089.1797243609244106
 30
0.0
 10
473.8360396413243052
 20
-1094.3395047129242812
 30
0.0
 10
496.5390731901240997
 20
-1104.6590654169242498
 30
0.0
 10
513.050370316524095
 20
-1115.8385895129242726
 30
0.0
 10
545.5569865341242348
 20
-1134.9297768153242032
 30
0.0
 10
564.9921591933241416
 20
-1144.2173814489242432
 30
0.0
 10
589.0711341693240684
 20
-1151.0970885849242222
 30
0.0
 10
608.8502921853241787
 20
-1152.6450226905242289
 30
0.0
 10
629.3174209149240141
 20
-1151.0970885849242222
 30
0.0
 10
649.0965789309241245
 20
-1146.109300911324226
 30
0.0
 10
669.0477296253241093
 20
-1136.9936889561240605
 30
0.0
 10
682.8071438973240674
 20
-1125.9861575385243668
 30
0.0
 10
696.3945654909239238
 20
-1114.290655407324266
 30
0.0
 10
711.8739065469239904
 20
-1089.351717039324285
 30
0.0
 10
720.1295551101241017
 20
-1069.2285736665241984
 30
0.0
 10
727.353247602924057
 20
-1037.4099281625244657
 30
0.0
 10
730.4491158141240703
 20
-1014.0189239001243777
 30
0.0
 10
730.6211084925239447
 20
-990.1119416025243254
 30
0.0
 10
729.2451670653240399
 20
-966.3769519833244885
 30
0.0
 10
723.7414013565239657
 20
-930.774467554524449
 30
0.0
 10
714.6257894013240275
 20
-905.1475584729244019
 30
0.0
 10
701.2103604861240456
 20
-882.78851028092447
 30
0.0
 10
683.3231219325241454
 20
-863.3533376217244495
 30
0.0
 10
660.9640737405240998
 20
-849.7659160281243658
 30
0.0
 10
637.2290841213241492
 20
-840.822296751324302
 30
0.0
 10
617.7939114621242425
 20
-839.2743626457242954
 30
0.0
 10
595.4348632701241968
 20
-840.6503040729243139
 30
0.0
 10
574.4517565053242834
 20
-844.7781283545243696
 30
0.0
 10
557.5964740221243119
 20
-851.3138501337244861
 30
0.0
 10
531.9695649405241511
 20
-865.0732644057244443
 30
0.0
 10
507.2026192509242719
 20
-880.8965908185243734
 30
0.0
 10
488.9713953405241682
 20
-891.5601368793245456
 30
0.0
 10
472.460098214124173
 20
-898.2678513369245366
 30
0.0
 10
460.7645960829242995
 20
-899.4718000857244533
 30
0.0
 10
447.8651452029241682
 20
-898.955822050524489
 30
0.0
 10
436.1696430717242947
 20
-895.1719831257245232
 30
0.0
 10
427.0540311165241292
 20
-891.0441588441244676
 30
0.0
 10
415.3585289853242557
 20
-885.1964077785243035
 30
0.0
 10
400.3951659645241534
 20
-878.4886933209244262
 30
0.0
 10
388.35567847652419
 20
-875.564817788124401
 30
0.0
 10
375.2842349181241843
 20
-876.5967738585244433
 30
0.0
 10
365.1366668925242038
 20
-882.9605029593243444
 30
0.0
 10
361.5248206461242262
 20
-888.8082540249245085
 30
0.0
 10
359.9768865405242195
 20
-894.6560050905243315
 30
0.0
 10
361.6968133245242143
 20
-901.7077049049244124
 30
0.0
 10
365.4806522493242937
 20
-905.31955115132439
 30
0.0
 10
375.4562275965241724
 20
-910.9953095385244524
 30
0.0
 10
383.8838688381241582
 20
-918.3909947097243958
 30
0.0
 10
390.0756052605241848
 20
-935.2462771929243672
 30
0.0
 10
391.4515466877242034
 20
-953.133515746524381
 30
0.0
 10
391.1999999999999886
 20
-977.5
 30
0.0
 10
391.1999999999999886
 20
-977.5
 30
0.0
  0
SPLINE
  5
8C
  8
0
 62
256
370
-1
  6
BYLAYER
100
AcDbEntity
100
AcDbSpline
 70
8
 71
3
 72
27
 73
23
 74
0
 40
0.0
 40
0.0
 40
0.0
 40
0.0
 40
1.0
 40
2.0
 40
3.0
 40
4.0
 40
5.0
 40
6.0
 40
7.0
 40
8.0
 40
9.0
 40
10.0
 40
11.0
 40
12.0
 40
13.0
 40
14.0
 40
15.0
 40
16.0
 40
17.0
 40
18.0
 40
19.0
 40
20.0
 40
20.0
 40
20.0
 40
20.0
 10
410.0
 20
-980.0
 30
0.0
 10
410.0
 20
-970.0
 30
0.0
 10
413.9533845355072117
 20
-953.7861341087048004
 30
0.0
 10
424.3080090395530988
 20
-938.3869489488415638
 30
0.0
 10
454.0443665896337393
 20
-922.4567574041554963
 30
0.0
 10
477.1431443294285373
 20
-919.5362222876296983
 30
0.0
 10
536.8813626220011201
 20
-888.7378519679033388
 30
0.0
 10
566.2769910751542284
 20
-868.0947427550769362
 30
0.0
 10
617.1651029540124682
 20
-854.4508287006004821
 30
0.0
 10
681.617667518045323
 20
-876.1358801117982011
 30
0.0
 10
720.0
 20
-960.0
 30
0.0
 10
670.0
 20
-970.0
 30
0.0
 10
670.0
 20
-1030.0
 30
0.0
 10
720.0
 20
-1040.0
 30
0.0
 10
674.3535001736685217
 20
-1122.7352452235381861
 30
0.0
 10
605.199877084089394
 20
-1139.7904136248967006
 30
0.0
 10
540.0
 20
-1110.0
 30
0.0
 10
512.2949999954803388
 20
-1085.8826454376790025
 30
0.0
 10
474.0625402882338335
 20
-1067.5310647782007436
 30
0.0
 10
438.1240281634221674
 20
-1065.6194417928384155
 30
0.0
 10
412.3603653810385481
 20
-1037.154136525894728
 30
0.0
 10
412.3603653810384913
 20
-1022.5
 30
0.0
 10
411.9379510947995868
 20
-1021.9532945295507034
 30
0.0
  0
LINE
  5
8D
100
AcDbEntity
100
AcDbLine
  8
0
 62
256
370
-1
  6
BYLAYER
 10
376.8062309590031873
 20
300.0
 30
0.0
 11
694.1666666666675383
 21
300.0
 31
0.0
  0
SPLINE
  5
8E
  8
0
 62
256
370
-1
  6
BYLAYER
100
AcDbEntity
100
AcDbSpline
 70
8
 71
3
 72
9
 73
5
 74
0
 40
0.0
 40
0.0
 40
0.0
 40
0.0
 40
1.0
 40
2.0
 40
2.0
 40
2.0
 40
2.0
 10
376.8062309590093832
 20
299.9999999999998295
 30
0.0
 10
366.8062309590093832
 20
299.9999999999998295
 30
0.0
 10
366.8062309590093832
 20
309.9999999999998295
 30
0.0
 10
366.8062309590093832
 20
319.9999999999998295
 30
0.0
 10
356.8062309590093832
 20
319.9999999999998295
 30
0.0
  0
LINE
  5
8F
100
AcDbEntity
100
AcDbLine
  8
0
 62
256
370
-1
  6
BYLAYER
 10
619.166666666667652
 20
319.9999999999985221
 30
0.0
 11
619.166666666667652
 21
326.0
 31
0.0
  0
LINE
  5
90
100
AcDbEntity
100
AcDbLine
  8
0
 62
256
370
-1
  6
BYLAYER
 10
619.166666666667652
 20
326.0
 30
0.0
 11
649.166666666667652
 21
326.0
 31
0.0
  0
LINE
  5
91
100
AcDbEntity
100
AcDbLine
  8
0
 62
256
370
-1
  6
BYLAYER
 10
649.166666666667652
 20
326.0
 30
0.0
 11
649.166666666667652
 21
319.9999999999984084
 31
0.0
  0
LINE
  5
92
100
AcDbEntity
100
AcDbLine
  8
0
 62
256
370
-1
  6
BYLAYER
 10
634.166666666667652
 20
326.0
 30
0.0
 11
634.166666666667652
 21
329.0
 31
0.0
  0
LINE
  5
93
100
AcDbEntity
100
AcDbLine
  8
0
 62
256
370
-1
  6
BYLAYER
 10
634.166666666667652
 20
329.0
 30
0.0
 11
639.166666666667652
 21
329.0
 31
0.0
  0
LINE
  5
94
100
AcDbEntity
100
AcDbLine
  8
0
 62
256
370
-1
  6
BYLAYER
 10
639.166666666667652
 20
329.0
 30
0.0
 11
639.166666666667652
 21
326.0
 31
0.0
  0
LINE
  5
95
100
AcDbEntity
100
AcDbLine
  8
0
 62
256
370
-1
  6
BYLAYER
 10
3.1666666666676671
 20
331.0
 30
0.0
 11
634.166666666667652
 21
329.0
 31
0.0
  0
LINE
  5
96
100
AcDbEntity
100
AcDbLine
  8
0
 62
256
370
-1
  6
BYLAYER
 10
639.166666666667652
 20
329.0
 30
0.0
 11
726.6666666666674246
 21
319.9999999999980105
 31
0.0
  0
MTEXT
  5
97
100
AcDbEntity
100
AcDbMText
  8
0
 62
256
370
-1
  6
BYLAYER
 10
736.166666666667652
 20
300.0
 30
0.0
 40
2.5
 41
0.0
 71
1
 72
1
  1
Raise a bit to induce angle in neck
  7
textstyle5
 50
0.0
 73
2
 44
1.0
  0
SPLINE
  5
98
  8
0
 62
256
370
-1
  6
BYLAYER
100
AcDbEntity
100
AcDbSpline
 70
8
 71
3
 72
10
 73
6
 74
0
 40
0.0
 40
0.0
 40
0.0
 40
0.0
 40
1.0
 40
2.0
 40
3.0
 40
3.0
 40
3.0
 40
3.0
 10
694.1666666666675383
 20
300.0
 30
0.0
 10
704.1666666666675383
 20
300.0
 30
0.0
 10
706.1666666666675383
 20
304.0
 30
0.0
 10
707.1666666666675383
 20
310.0
 30
0.0
 10
712.1666666666675383
 20
310.0
 30
0.0
 10
719.1666666666677656
 20
309.9999999999986358
 30
0.0
  0
LINE
  5
99
100
AcDbEntity
100
AcDbLine
  8
0
 62
256
370
-1
  6
BYLAYER
 10
720.0
 20
22.5000000000000568
 30
0.0
 11
720.0
 21
-22.4999999999999432
 31
0.0
  0
DIMENSION
  5
9A
100
AcDbEntity
  8
0
 62
256
370
-1
  6
BYLAYER
100
AcDbDimension
 10
747.7778416533551535
 20
307.7719976151462333
 30
0.0
 11
760.4536503731898165
 21
304.4691326770865771
 31
0.0
 70
130
 71
8
 72
2
 41
1.0
 42
0.0
  1

  3
Standard
100
AcDb2LineAngularDimension
 13
349.166666666667652
 23
300.0
 33
0.0
 14
754.166666666667652
 24
300.0
 34
0.0
 15
754.4870881041758821
 25
308.399625329985156
 35
0.0
 16
758.5843595920066491
 26
304.302353842154389
 36
0.0
  0
SPLINE
  5
9B
  8
0
 62
256
370
-1
  6
BYLAYER
100
AcDbEntity
100
AcDbSpline
 70
8
 71
3
 72
29
 73
25
 74
0
 40
0.0
 40
0.0
 40
0.0
 40
0.0
 40
1.0
 40
2.0
 40
3.0
 40
4.0
 40
5.0
 40
6.0
 40
7.0
 40
8.0
 40
9.0
 40
10.0
 40
11.0
 40
12.0
 40
13.0
 40
14.0
 40
15.0
 40
16.0
 40
17.0
 40
18.0
 40
19.0
 40
20.0
 40
21.0
 40
22.0
 40
22.0
 40
22.0
 40
22.0
 10
727.4999999999998863
 20
0.0
 30
0.0
 10
727.3822319671511423
 20
-31.3416028364615222
 30
0.0
 10
723.2874905541050339
 20
-53.862680608214589
 30
0.0
 10
715.0980077280130445
 20
-79.1135859886650366
 30
0.0
 10
701.4488696845262439
 20
-102.9995775647669376
 30
0.0
 10
682.3400764236447458
 20
-121.4259139234740559
 30
0.0
 10
667.3260245758094698
 20
-133.0276812604376744
 30
0.0
 10
648.8996882171023799
 20
-141.2171640865297206
 30
0.0
 10
616.1417569127343086
 20
-144.6294485974014776
 30
0.0
 10
590.2083946301094102
 20
-140.5347071843554829
 30
0.0
 10
570.4171444670538449
 20
-134.3925950647862919
 30
0.0
 10
544.4837821844287191
 20
-120.0610001191252678
 30
0.0
 10
516.3316843556710865
 20
-99.6533764612121473
 30
0.0
 10
500.3197474456083569
 20
-83.3078575321897574
 30
0.0
 10
484.6413925545052166
 20
-76.6362171529969345
 30
0.0
 10
466.6279635306846103
 20
-78.9712912857144289
 30
0.0
 10
449.9488625827026453
 20
-87.6444237786650859
 30
0.0
 10
432.5608502278377614
 20
-97.539922347372169
 30
0.0
 10
414.1345138691306715
 20
-101.6346637604181922
 30
0.0
 10
392.9783499017260624
 20
-99.5872930538952374
 30
0.0
 10
375.2344704451934376
 20
-92.0802671299774147
 30
0.0
 10
359.5379616951836397
 20
-72.9714738690960871
 30
0.0
 10
354.7607633799634073
 20
-57.2749651190863887
 30
0.0
 10
347.2537374560455419
 20
-35.4363442495074707
 30
0.0
 10
347.6309886898162631
 20
-20.25
 30
0.0
  0
SPLINE
  5
9C
  8
0
 62
256
370
-1
  6
BYLAYER
100
AcDbEntity
100
AcDbSpline
 70
8
 71
3
 72
29
 73
25
 74
0
 40
0.0
 40
0.0
 40
0.0
 40
0.0
 40
1.0
 40
2.0
 40
3.0
 40
4.0
 40
5.0
 40
6.0
 40
7.0
 40
8.0
 40
9.0
 40
10.0
 40
11.0
 40
12.0
 40
13.0
 40
14.0
 40
15.0
 40
16.0
 40
17.0
 40
18.0
 40
19.0
 40
20.0
 40
21.0
 40
22.0
 40
22.0
 40
22.0
 40
22.0
 10
727.4999999999998863
 20
-0.0000000000000319
 30
0.0
 10
727.3822319671511423
 20
31.3416028364615045
 30
0.0
 10
723.2874905541050339
 20
53.8626806082146246
 30
0.0
 10
715.0980077280130445
 20
79.113585988665065
 30
0.0
 10
701.4488696845262439
 20
102.999577564766966
 30
0.0
 10
682.3400764236448595
 20
121.4259139234740132
 30
0.0
 10
667.3260245758094698
 20
133.0276812604376744
 30
0.0
 10
648.8996882171023799
 20
141.2171640865297206
 30
0.0
 10
616.1417569127343086
 20
144.6294485974014492
 30
0.0
 10
590.2083946301094102
 20
140.5347071843555113
 30
0.0
 10
570.4171444670538449
 20
134.3925950647862919
 30
0.0
 10
544.4837821844287191
 20
120.0610001191252678
 30
0.0
 10
516.3316843556710865
 20
99.6533764612121757
 30
0.0
 10
500.3197474456083569
 20
83.307857532189729
 30
0.0
 10
484.6413925545052166
 20
76.6362171529969345
 30
0.0
 10
466.6279635306846103
 20
78.9712912857144005
 30
0.0
 10
449.9488625827026453
 20
87.6444237786650859
 30
0.0
 10
432.5608502278377046
 20
97.5399223473721406
 30
0.0
 10
414.1345138691306715
 20
101.634663760418178
 30
0.0
 10
392.9783499017260624
 20
99.5872930538951948
 30
0.0
 10
375.2344704451934376
 20
92.0802671299773436
 30
0.0
 10
359.5379616951836397
 20
72.9714738690960303
 30
0.0
 10
354.7607633799634073
 20
57.2749651190862394
 30
0.0
 10
347.2537374560455419
 20
35.4363442495074636
 30
0.0
 10
347.6309886898162631
 20
20.2500000000000959
 30
0.0
  0
SPLINE
  5
9D
  8
0
 62
256
370
-1
  6
BYLAYER
100
AcDbEntity
100
AcDbSpline
 70
8
 71
3
 72
40
 73
36
 74
0
 40
0.0
 40
0.0
 40
0.0
 40
0.0
 40
1.0
 40
2.0
 40
3.0
 40
4.0
 40
5.0
 40
6.0
 40
7.0
 40
8.0
 40
9.0
 40
10.0
 40
11.0
 40
12.0
 40
13.0
 40
14.0
 40
15.0
 40
16.0
 40
17.0
 40
18.0
 40
19.0
 40
20.0
 40
21.0
 40
22.0
 40
23.0
 40
24.0
 40
25.0
 40
26.0
 40
27.0
 40
28.0
 40
29.0
 40
30.0
 40
31.0
 40
32.0
 40
33.0
 40
33.0
 40
33.0
 40
33.0
 10
579.7247642286972678
 20
79.3805873075363309
 30
0.0
 10
582.100990853495091
 20
81.6828172889912167
 30
0.0
 10
584.3453135992485841
 20
83.6513014702284607
 30
0.0
 10
587.4589698666089816
 20
84.8903282141157121
 30
0.0
 10
593.0747412345978091
 20
86.9926730763962581
 30
0.0
 10
598.3567668023699753
 20
89.2269218177210632
 30
0.0
 10
604.4102126327691167
 20
91.8508667929655758
 30
0.0
 10
609.1986133044283633
 20
94.2030318049091875
 30
0.0
 10
614.7024838050122071
 20
97.5844094343552086
 30
0.0
 10
619.0872006343259955
 20
100.8678738048218264
 30
0.0
 10
622.2628227386024946
 20
103.2400418284045145
 30
0.0
 10
624.1594120757133624
 20
105.5003089845823467
 30
0.0
 10
625.0687516205985048
 20
107.9964086819974511
 30
0.0
 10
624.4692412602940976
 20
111.1660153830602979
 30
0.0
 10
622.2010018989043374
 20
114.9951414793452784
 30
0.0
 10
619.0094353842038117
 20
116.4880469741107731
 30
0.0
 10
615.1863246911324268
 20
115.9924652759995638
 30
0.0
 10
611.5450529075944814
 20
113.4184553312439334
 30
0.0
 10
611.0393972050545699
 20
109.991056275305894
 30
0.0
 10
611.2352237230136325
 20
107.7527489327659964
 30
0.0
 10
611.6785691962775218
 20
106.8158237536100614
 30
0.0
 10
612.4509569652007031
 20
105.8354110168415758
 30
0.0
 10
613.2887955389087438
 20
104.9329995118137475
 30
0.0
 10
613.8605796825048628
 20
104.3867551588614333
 30
0.0
 10
613.9565124188109166
 20
104.3228731574461534
 30
0.0
 10
613.7554535943481824
 20
104.142663975921792
 30
0.0
 10
612.3150969523507001
 20
103.2577613011300315
 30
0.0
 10
610.511351778242215
 20
102.2906587535833864
 30
0.0
 10
606.2830946146543738
 20
100.2571827498452706
 30
0.0
 10
600.3263949692760661
 20
97.9376050745735967
 30
0.0
 10
596.0473899032845111
 20
96.4841802495659806
 30
0.0
 10
588.3384863525908486
 20
94.9098140656086002
 30
0.0
 10
581.6508327464712238
 20
94.0916431451232285
 30
0.0
 10
575.9250341731883509
 20
93.8237777246896627
 30
0.0
 10
571.7374347283302995
 20
94.6227954676855205
 30
0.0
 10
569.7491699360735993
 20
95.1480759713603561
 30
0.0
  0
SPLINE
  5
9E
  8
0
 62
256
370
-1
  6
BYLAYER
100
AcDbEntity
100
AcDbSpline
 70
8
 71
3
 72
40
 73
36
 74
0
 40
0.0
 40
0.0
 40
0.0
 40
0.0
 40
1.0
 40
2.0
 40
3.0
 40
4.0
 40
5.0
 40
6.0
 40
7.0
 40
8.0
 40
9.0
 40
10.0
 40
11.0
 40
12.0
 40
13.0
 40
14.0
 40
15.0
 40
16.0
 40
17.0
 40
18.0
 40
19.0
 40
20.0
 40
21.0
 40
22.0
 40
23.0
 40
24.0
 40
25.0
 40
26.0
 40
27.0
 40
28.0
 40
29.0
 40
30.0
 40
31.0
 40
32.0
 40
33.0
 40
33.0
 40
33.0
 40
33.0
 10
569.7491699360735993
 20
95.1480759713603561
 30
0.0
 10
567.3729433112756624
 20
92.8458459899058681
 30
0.0
 10
565.1286205655221693
 20
90.8773618086683399
 30
0.0
 10
562.0149642981618854
 20
89.638335064781046
 30
0.0
 10
556.3991929301729442
 20
87.5359902025005994
 30
0.0
 10
551.1171673624008918
 20
85.3017414611757658
 30
0.0
 10
545.0637215320016367
 20
82.6777964859313386
 30
0.0
 10
540.2753208603425037
 20
80.3256314739876558
 30
0.0
 10
534.7714503597586599
 20
76.9442538445416062
 30
0.0
 10
530.3867335304447579
 20
73.6607894740750027
 30
0.0
 10
527.2111114261683724
 20
71.2886214504920588
 30
0.0
 10
525.3145220890575047
 20
69.0283542943144539
 30
0.0
 10
524.4051825441722485
 20
66.5322545968993637
 30
0.0
 10
525.0046929044766557
 20
63.3626478958363961
 30
0.0
 10
527.2729322658664159
 20
59.5335217995514583
 30
0.0
 10
530.4644987805669416
 20
58.0406163047860133
 30
0.0
 10
534.2876094736383266
 20
58.5361980028972724
 30
0.0
 10
537.9288812571762719
 20
61.110207947652782
 30
0.0
 10
538.4345369597161834
 20
64.5376070035908782
 30
0.0
 10
538.2387104417571209
 20
66.7759143461308327
 30
0.0
 10
537.7953649684933453
 20
67.7128395252868671
 30
0.0
 10
537.022977199570164
 20
68.693252262055239
 30
0.0
 10
536.1851386258620096
 20
69.5956637670832237
 30
0.0
 10
535.6133544822660042
 20
70.14190812003541
 30
0.0
 10
535.5174217459599504
 20
70.2057901214507751
 30
0.0
 10
535.7184805704224573
 20
70.3859993029750797
 30
0.0
 10
537.1588372124201669
 20
71.2709019777669255
 30
0.0
 10
538.9625823865285383
 20
72.2380045253134568
 30
0.0
 10
543.1908395501163795
 20
74.2714805290515585
 30
0.0
 10
549.1475391954946872
 20
76.5910582043232182
 30
0.0
 10
553.4265442614862422
 20
78.04448302933082
 30
0.0
 10
561.1354478121800184
 20
79.6188492132882288
 30
0.0
 10
567.8231014182997569
 20
80.4370201337736006
 30
0.0
 10
573.5488999915825161
 20
80.7048855542072801
 30
0.0
 10
577.7364994364404538
 20
79.9058678112112943
 30
0.0
 10
579.7247642286971541
 20
79.3805873075364588
 30
0.0
  0
SPLINE
  5
9F
  8
0
 62
256
370
-1
  6
BYLAYER
100
AcDbEntity
100
AcDbSpline
 70
8
 71
3
 72
40
 73
36
 74
0
 40
0.0
 40
0.0
 40
0.0
 40
0.0
 40
1.0
 40
2.0
 40
3.0
 40
4.0
 40
5.0
 40
6.0
 40
7.0
 40
8.0
 40
9.0
 40
10.0
 40
11.0
 40
12.0
 40
13.0
 40
14.0
 40
15.0
 40
16.0
 40
17.0
 40
18.0
 40
19.0
 40
20.0
 40
21.0
 40
22.0
 40
23.0
 40
24.0
 40
25.0
 40
26.0
 40
27.0
 40
28.0
 40
29.0
 40
30.0
 40
31.0
 40
32.0
 40
33.0
 40
33.0
 40
33.0
 40
33.0
 10
579.7247642286972678
 20
-79.3805873075363309
 30
0.0
 10
582.100990853495091
 20
-81.6828172889912167
 30
0.0
 10
584.3453135992485841
 20
-83.6513014702284607
 30
0.0
 10
587.4589698666089816
 20
-84.8903282141156978
 30
0.0
 10
593.0747412345978091
 20
-86.9926730763962581
 30
0.0
 10
598.3567668023699753
 20
-89.2269218177210632
 30
0.0
 10
604.4102126327691167
 20
-91.8508667929655758
 30
0.0
 10
609.1986133044283633
 20
-94.2030318049091875
 30
0.0
 10
614.7024838050122071
 20
-97.5844094343552086
 30
0.0
 10
619.0872006343259955
 20
-100.8678738048218406
 30
0.0
 10
622.2628227386023809
 20
-103.2400418284045287
 30
0.0
 10
624.1594120757133624
 20
-105.5003089845823467
 30
0.0
 10
625.0687516205985048
 20
-107.9964086819974511
 30
0.0
 10
624.4692412602940976
 20
-111.1660153830602979
 30
0.0
 10
622.2010018989043374
 20
-114.9951414793452926
 30
0.0
 10
619.0094353842038117
 20
-116.4880469741107731
 30
0.0
 10
615.1863246911324268
 20
-115.9924652759995922
 30
0.0
 10
611.5450529075944814
 20
-113.4184553312439334
 30
0.0
 10
611.0393972050545699
 20
-109.9910562753058798
 30
0.0
 10
611.2352237230135188
 20
-107.7527489327659964
 30
0.0
 10
611.6785691962775218
 20
-106.8158237536100756
 30
0.0
 10
612.4509569652007031
 20
-105.8354110168415758
 30
0.0
 10
613.2887955389087438
 20
-104.9329995118137333
 30
0.0
 10
613.8605796825048628
 20
-104.3867551588614333
 30
0.0
 10
613.956512418810803
 20
-104.3228731574461676
 30
0.0
 10
613.7554535943481824
 20
-104.1426639759217778
 30
0.0
 10
612.3150969523507001
 20
-103.2577613011300457
 30
0.0
 10
610.511351778242215
 20
-102.2906587535833864
 30
0.0
 10
606.2830946146543738
 20
-100.2571827498452564
 30
0.0
 10
600.3263949692760661
 20
-97.9376050745735824
 30
0.0
 10
596.0473899032845111
 20
-96.4841802495659664
 30
0.0
 10
588.3384863525908486
 20
-94.909814065608586
 30
0.0
 10
581.6508327464711101
 20
-94.0916431451232143
 30
0.0
 10
575.9250341731883509
 20
-93.8237777246896627
 30
0.0
 10
571.7374347283302995
 20
-94.6227954676855347
 30
0.0
 10
569.7491699360735993
 20
-95.1480759713603561
 30
0.0
  0
SPLINE
  5
A0
  8
0
 62
256
370
-1
  6
BYLAYER
100
AcDbEntity
100
AcDbSpline
 70
8
 71
3
 72
40
 73
36
 74
0
 40
0.0
 40
0.0
 40
0.0
 40
0.0
 40
1.0
 40
2.0
 40
3.0
 40
4.0
 40
5.0
 40
6.0
 40
7.0
 40
8.0
 40
9.0
 40
10.0
 40
11.0
 40
12.0
 40
13.0
 40
14.0
 40
15.0
 40
16.0
 40
17.0
 40
18.0
 40
19.0
 40
20.0
 40
21.0
 40
22.0
 40
23.0
 40
24.0
 40
25.0
 40
26.0
 40
27.0
 40
28.0
 40
29.0
 40
30.0
 40
31.0
 40
32.0
 40
33.0
 40
33.0
 40
33.0
 40
33.0
 10
569.7491699360735993
 20
-95.1480759713603561
 30
0.0
 10
567.3729433112756624
 20
-92.8458459899058539
 30
0.0
 10
565.1286205655221693
 20
-90.8773618086683257
 30
0.0
 10
562.0149642981618854
 20
-89.6383350647810317
 30
0.0
 10
556.3991929301729442
 20
-87.5359902025005709
 30
0.0
 10
551.1171673624008918
 20
-85.3017414611757658
 30
0.0
 10
545.0637215320016367
 20
-82.6777964859313101
 30
0.0
 10
540.27532086034239
 20
-80.3256314739876274
 30
0.0
 10
534.7714503597585463
 20
-76.9442538445415352
 30
0.0
 10
530.3867335304447579
 20
-73.66078947407496
 30
0.0
 10
527.2111114261683724
 20
-71.2886214504920446
 30
0.0
 10
525.3145220890575047
 20
-69.0283542943144397
 30
0.0
 10
524.4051825441722485
 20
-66.5322545968993495
 30
0.0
 10
525.0046929044766557
 20
-63.3626478958363606
 30
0.0
 10
527.2729322658664159
 20
-59.5335217995514299
 30
0.0
 10
530.4644987805669416
 20
-58.0406163047859778
 30
0.0
 10
534.2876094736383266
 20
-58.536198002897244
 30
0.0
 10
537.9288812571762719
 20
-61.110207947652782
 30
0.0
 10
538.4345369597161834
 20
-64.5376070035908498
 30
0.0
 10
538.2387104417571209
 20
-66.7759143461308042
 30
0.0
 10
537.7953649684933453
 20
-67.7128395252868387
 30
0.0
 10
537.022977199570164
 20
-68.6932522620551964
 30
0.0
 10
536.1851386258620096
 20
-69.5956637670831952
 30
0.0
 10
535.6133544822660042
 20
-70.14190812003541
 30
0.0
 10
535.5174217459599504
 20
-70.2057901214507609
 30
0.0
 10
535.7184805704224573
 20
-70.385999302975037
 30
0.0
 10
537.1588372124201669
 20
-71.2709019777669255
 30
0.0
 10
538.9625823865284246
 20
-72.2380045253134142
 30
0.0
 10
543.1908395501163795
 20
-74.2714805290515301
 30
0.0
 10
549.1475391954946872
 20
-76.591058204323204
 30
0.0
 10
553.4265442614862422
 20
-78.0444830293308058
 30
0.0
 10
561.1354478121800184
 20
-79.6188492132882288
 30
0.0
 10
567.8231014182997569
 20
-80.4370201337736006
 30
0.0
 10
573.5488999915825161
 20
-80.7048855542072801
 30
0.0
 10
577.7364994364404538
 20
-79.9058678112112801
 30
0.0
 10
579.7247642286971541
 20
-79.3805873075364588
 30
0.0
  0
SPLINE
  5
A1
  8
0
 62
256
370
-1
  6
BYLAYER
100
AcDbEntity
100
AcDbSpline
 70
8
 71
3
 72
31
 73
27
 74
0
 40
0.0
 40
0.0
 40
0.0
 40
0.0
 40
1.0
 40
2.0
 40
3.0
 40
4.0
 40
5.0
 40
6.0
 40
7.0
 40
8.0
 40
9.0
 40
10.0
 40
11.0
 40
12.0
 40
13.0
 40
14.0
 40
15.0
 40
16.0
 40
17.0
 40
18.0
 40
19.0
 40
20.0
 40
21.0
 40
22.0
 40
23.0
 40
24.0
 40
24.0
 40
24.0
 40
24.0
 10
687.0
 20
0.0
 30
0.0
 10
687.0
 20
-27.0
 30
0.0
 10
693.1841020386415266
 20
-34.3890527958109331
 30
0.0
 10
718.2585220594634166
 20
-31.5630862964582413
 30
0.0
 10
710.5042340460281594
 20
-62.6911807631484734
 30
0.0
 10
702.16468357203712
 20
-82.4281168849272348
 30
0.0
 10
689.3773728452508749
 20
-99.1072178329092424
 30
0.0
 10
668.8064816760729627
 20
-118.0101989072888813
 30
0.0
 10
644.6217853014990169
 20
-129.6855695708763108
 30
0.0
 10
620.7150739427247572
 20
-131.6314646814742275
 30
0.0
 10
597.9203026471493558
 20
-129.4075845550766246
 30
0.0
 10
575.4035163673736406
 20
-123.0139291916834878
 30
0.0
 10
551.4968050085992672
 20
-109.1146784016984839
 30
0.0
 10
532.0378539026203271
 20
-95.4934126275131376
 30
0.0
 10
515.3587529546382484
 20
-82.4281168849272348
 30
0.0
 10
495.8998018486591945
 20
-68.8068511107418885
 30
0.0
 10
477.8307758216786851
 20
-66.3049859685445853
 30
0.0
 10
453.9240644629044823
 20
-72.6986413319377078
 30
0.0
 10
429.7393680883304796
 20
-86.0419220903233253
 30
0.0
 10
406.1491798444238839
 20
-89.0997572641200293
 30
0.0
 10
381.4085134382505657
 20
-80.482221774329318
 30
0.0
 10
369.7331427746631789
 20
-64.3590908579466827
 30
0.0
 10
362.505532363870941
 20
-44.0661847045685349
 30
0.0
 10
363.0
 20
-27.0
 30
0.0
 10
383.813579427131117
 20
-27.9945839735221504
 30
0.0
 10
390.0
 20
-23.4000000000000021
 30
0.0
 10
390.0
 20
0.0
 30
0.0
  0
SPLINE
  5
A2
  8
0
 62
256
370
-1
  6
BYLAYER
100
AcDbEntity
100
AcDbSpline
 70
8
 71
3
 72
31
 73
27
 74
0
 40
0.0
 40
0.0
 40
0.0
 40
0.0
 40
1.0
 40
2.0
 40
3.0
 40
4.0
 40
5.0
 40
6.0
 40
7.0
 40
8.0
 40
9.0
 40
10.0
 40
11.0
 40
12.0
 40
13.0
 40
14.0
 40
15.0
 40
16.0
 40
17.0
 40
18.0
 40
19.0
 40
20.0
 40
21.0
 40
22.0
 40
23.0
 40
24.0
 40
24.0
 40
24.0
 40
24.0
 10
687.0
 20
-0.0000000000000221
 30
0.0
 10
687.0
 20
26.999999999999968
 30
0.0
 10
693.1841020386415266
 20
34.3890527958109615
 30
0.0
 10
718.2585220594634166
 20
31.5630862964581844
 30
0.0
 10
710.5042340460281594
 20
62.6911807631485019
 30
0.0
 10
702.16468357203712
 20
82.4281168849272632
 30
0.0
 10
689.3773728452508749
 20
99.107217832909285
 30
0.0
 10
668.8064816760729627
 20
118.0101989072888671
 30
0.0
 10
644.6217853014990169
 20
129.6855695708763108
 30
0.0
 10
620.7150739427247572
 20
131.6314646814742275
 30
0.0
 10
597.9203026471493558
 20
129.4075845550765962
 30
0.0
 10
575.4035163673736406
 20
123.0139291916834878
 30
0.0
 10
551.4968050085992672
 20
109.1146784016984697
 30
0.0
 10
532.0378539026203271
 20
95.4934126275131661
 30
0.0
 10
515.3587529546382484
 20
82.428116884927249
 30
0.0
 10
495.8998018486591945
 20
68.8068511107418885
 30
0.0
 10
477.8307758216786851
 20
66.3049859685445568
 30
0.0
 10
453.9240644629044823
 20
72.698641331937722
 30
0.0
 10
429.7393680883305365
 20
86.0419220903233111
 30
0.0
 10
406.1491798444238839
 20
89.0997572641200151
 30
0.0
 10
381.4085134382505657
 20
80.482221774329318
 30
0.0
 10
369.7331427746631789
 20
64.3590908579466401
 30
0.0
 10
362.505532363870941
 20
44.0661847045684496
 30
0.0
 10
363.0
 20
27.0000000000003197
 30
0.0
 10
383.813579427131117
 20
27.9945839735221398
 30
0.0
 10
390.0
 20
23.399999999999995
 30
0.0
 10
390.0
 20
0.0000000000000254
 30
0.0
  0
SPLINE
  5
A3
  8
0
 62
256
370
-1
  6
BYLAYER
100
AcDbEntity
100
AcDbSpline
 70
8
 71
3
 72
40
 73
36
 74
0
 40
0.0
 40
0.0
 40
0.0
 40
0.0
 40
1.0
 40
2.0
 40
3.0
 40
4.0
 40
5.0
 40
6.0
 40
7.0
 40
8.0
 40
9.0
 40
10.0
 40
11.0
 40
12.0
 40
13.0
 40
14.0
 40
15.0
 40
16.0
 40
17.0
 40
18.0
 40
19.0
 40
20.0
 40
21.0
 40
22.0
 40
23.0
 40
24.0
 40
25.0
 40
26.0
 40
27.0
 40
28.0
 40
29.0
 40
30.0
 40
31.0
 40
32.0
 40
33.0
 40
33.0
 40
33.0
 40
33.0
 10
583.5237735714889595
 20
-1071.457966110873258
 30
0.0
 10
586.263678015353662
 20
-1073.3125926227073705
 30
0.0
 10
588.8157281464714288
 20
-1074.8614485511752719
 30
0.0
 10
592.0972357149395293
 20
-1075.5409709580364961
 30
0.0
 10
597.9927592514413845
 20
-1076.6362080136702843
 30
0.0
 10
603.5825122045778244
 20
-1077.9192993820508946
 30
0.0
 10
609.999635854043845
 20
-1079.4522109000949968
 30
0.0
 10
615.1237391279186113
 20
-1080.9371441896482793
 30
0.0
 10
621.1311635318257913
 20
-1083.3114140124475853
 30
0.0
 10
626.019434264462916
 20
-1085.7835970942267068
 30
0.0
 10
629.5587341878061807
 20
-1087.5682855639322497
 30
0.0
 10
631.8190013439840413
 20
-1089.4648749010430038
 30
0.0
 10
633.1479691416386686
 20
-1091.7651480804991024
 30
0.0
 10
633.1079631183602032
 20
-1094.9907052152645974
 30
0.0
 10
631.5391041782528418
 20
-1099.1555339137651117
 30
0.0
 10
628.6552650489165899
 20
-1101.1799685287053308
 30
0.0
 10
624.804179138993959
 20
-1101.3557920350251607
 30
0.0
 10
620.7712543195377748
 20
-1099.4531872947006832
 30
0.0
 10
619.6781190631206755
 20
-1096.1656643230192003
 30
0.0
 10
619.4822925451614992
 20
-1093.9273569804793169
 30
0.0
 10
619.7562072545240426
 20
-1092.9276796665449183
 30
0.0
 10
620.3466138325900374
 20
-1091.8280378736976672
 30
0.0
 10
621.0150216423967322
 20
-1090.793846885635503
 30
0.0
 10
621.4832647636085312
 20
-1090.1566119372546382
 30
0.0
 10
621.5666470729588582
 20
-1090.0770419021446287
 30
0.0
 10
621.3373497878460512
 20
-1089.9344840014873625
 30
0.0
 10
619.7652136628140624
 20
-1089.3131402927645013
 30
0.0
 10
617.8209358358951704
 20
-1088.6739472684421344
 30
0.0
 10
613.303805997085874
 20
-1087.4055934855607575
 30
0.0
 10
607.0348115676844145
 20
-1086.1556254455683757
 30
0.0
 10
602.5684296312789456
 20
-1085.4673228414173991
 30
0.0
 10
594.7032558285078494
 20
-1085.2555118707639394
 30
0.0
 10
587.975128818378721
 20
-1085.6110696665512023
 30
0.0
 10
582.2898036491053517
 20
-1086.341548211682948
 30
0.0
 10
578.3045712242943637
 20
-1087.8555960921780752
 30
0.0
 10
576.4377266440658332
 20
-1088.7181549625979642
 30
0.0
  0
SPLINE
  5
A4
  8
0
 62
256
370
-1
  6
BYLAYER
100
AcDbEntity
100
AcDbSpline
 70
8
 71
3
 72
40
 73
36
 74
0
 40
0.0
 40
0.0
 40
0.0
 40
0.0
 40
1.0
 40
2.0
 40
3.0
 40
4.0
 40
5.0
 40
6.0
 40
7.0
 40
8.0
 40
9.0
 40
10.0
 40
11.0
 40
12.0
 40
13.0
 40
14.0
 40
15.0
 40
16.0
 40
17.0
 40
18.0
 40
19.0
 40
20.0
 40
21.0
 40
22.0
 40
23.0
 40
24.0
 40
25.0
 40
26.0
 40
27.0
 40
28.0
 40
29.0
 40
30.0
 40
31.0
 40
32.0
 40
33.0
 40
33.0
 40
33.0
 40
33.0
 10
576.4377266440658332
 20
-1088.7181549625979642
 30
0.0
 10
573.697822200201017
 20
-1086.8635284507643064
 30
0.0
 10
571.1457720690832502
 20
-1085.3146725222961777
 30
0.0
 10
567.8642645006152634
 20
-1084.6351501154349535
 30
0.0
 10
561.9687409641132945
 20
-1083.5399130598009378
 30
0.0
 10
556.3789880109769683
 20
-1082.2568216914203276
 30
0.0
 10
549.961864361510834
 20
-1080.7239101733764528
 30
0.0
 10
544.8377610876360677
 20
-1079.2389768838229429
 30
0.0
 10
538.8303366837288877
 20
-1076.8647070610236369
 30
0.0
 10
533.9420659510917631
 20
-1074.3925239792447428
 30
0.0
 10
530.4027660277484983
 20
-1072.6078355095389725
 30
0.0
 10
528.1424988715707514
 20
-1070.7112461724282184
 30
0.0
 10
526.8135310739160104
 20
-1068.4109729929723471
 30
0.0
 10
526.8535370971944758
 20
-1065.1854158582066248
 30
0.0
 10
528.4223960373018372
 20
-1061.0205871597061105
 30
0.0
 10
531.3062351666380891
 20
-1058.9961525447661188
 30
0.0
 10
535.15732107656072
 20
-1058.8203290384462889
 30
0.0
 10
539.1902458960169042
 20
-1060.7229337787707664
 30
0.0
 10
540.2833811524340035
 20
-1064.0104567504522493
 30
0.0
 10
540.4792076703930661
 20
-1066.2487640929921326
 30
0.0
 10
540.2052929610307501
 20
-1067.2484414069265313
 30
0.0
 10
539.6148863829647553
 20
-1068.348083199773555
 30
0.0
 10
538.9464785731580605
 20
-1069.382274187836174
 30
0.0
 10
538.4782354519462615
 20
-1070.0195091362168114
 30
0.0
 10
538.3948531425958208
 20
-1070.0990791713268209
 30
0.0
 10
538.6241504277085141
 20
-1070.241637071984087
 30
0.0
 10
540.1962865527407303
 20
-1070.8629807807069483
 30
0.0
 10
542.1405643796593949
 20
-1071.5021738050293152
 30
0.0
 10
546.657694218468805
 20
-1072.7705275879106921
 30
0.0
 10
552.9266886478702645
 20
-1074.0204956279030739
 30
0.0
 10
557.3930705842757334
 20
-1074.7087982320540505
 30
0.0
 10
565.2582443870469433
 20
-1074.9206092027075101
 30
0.0
 10
571.9863713971760717
 20
-1074.5650514069200199
 30
0.0
 10
577.671696566449441
 20
-1073.8345728617887289
 30
0.0
 10
581.6569289912603153
 20
-1072.320524981293147
 30
0.0
 10
583.5237735714888458
 20
-1071.457966110873258
 30
0.0
  0
LINE
  5
A5
100
AcDbEntity
100
AcDbLine
  8
0
 62
256
370
-1
  6
BYLAYER
 10
0.0
 20
-0.0000000000000249
 30
0.0
 11
317.5
 21
-0.0000000000000249
 31
0.0
  0
LINE
  5
A6
100
AcDbEntity
100
AcDbLine
  8
0
 62
256
370
-1
  6
BYLAYER
 10
0.0
 20
-1000.0
 30
0.0
 11
317.5
 21
-1000.0
 31
0.0
  0
LINE
  5
A7
100
AcDbEntity
100
AcDbLine
  8
0
 62
256
370
-1
  6
BYLAYER
 10
346.8062309590093832
 20
215.0
 30
0.0
 11
346.8062309590093832
 21
319.9999999999998863
 31
0.0
  0
LINE
  5
A8
100
AcDbEntity
100
AcDbLine
  8
0
 62
256
370
-1
  6
BYLAYER
 10
726.6666666666675383
 20
214.9999999999995168
 30
0.0
 11
726.6666666666675383
 21
319.9999999999979536
 31
0.0
  0
LINE
  5
A9
100
AcDbEntity
100
AcDbLine
  8
0
 62
256
370
-1
  6
BYLAYER
 10
719.166666666667652
 20
280.0
 30
0.0
 11
719.1666666666677656
 21
309.9999999999986358
 31
0.0
  0
LINE
  5
AA
100
AcDbEntity
100
AcDbLine
  8
0
 62
256
370
-1
  6
BYLAYER
 10
0.0000000000000012
 20
19.0000000000000675
 30
0.0
 11
347.6395642923416744
 21
22.5000000000000568
 31
0.0
  0
LINE
  5
AB
100
AcDbEntity
100
AcDbLine
  8
0
 62
256
370
-1
  6
BYLAYER
 10
0.0
 20
-19.0000000000000462
 30
0.0
 11
347.6395642923416744
 21
-22.5000000000000675
 31
0.0
  0
LINE
  5
AC
100
AcDbEntity
100
AcDbLine
  8
0
 62
256
370
-1
  6
BYLAYER
 10
0.0
 20
19.0000000000000639
 30
0.0
 11
-9.3075614899520236
 21
21.9473944718181855
 31
0.0
  0
LINE
  5
AD
100
AcDbEntity
100
AcDbLine
  8
0
 62
256
370
-1
  6
BYLAYER
 10
-51.4045483142888315
 20
24.9001441471423348
 30
0.0
 11
-105.6418931386616009
 21
15.7784088812250953
 31
0.0
  0
MTEXT
  5
AE
100
AcDbEntity
100
AcDbMText
  8
0
 62
256
370
-1
  6
BYLAYER
 10
736.166666666667652
 20
-600.0
 30
0.0
 40
2.5
 41
0.0
 71
1
 72
1
  1
Raise a bit to induce angle in neck
  7
textstyle6
 50
0.0
 73
2
 44
1.0
  0
LINE
  5
AF
100
AcDbEntity
100
AcDbLine
  8
0
 62
256
370
-1
  6
BYLAYER
 10
413.166666666667652
 20
-580.0
 30
0.0
 11
413.166666666667652
 21
-573.0
 31
0.0
  0
LINE
  5
B0
100
AcDbEntity
100
AcDbLine
  8
0
 62
256
370
-1
  6
BYLAYER
 10
413.166666666667652
 20
-573.0
 30
0.0
 11
3.1666666666676671
 21
-573.0
 31
0.0
  0
LINE
  5
B1
100
AcDbEntity
100
AcDbLine
  8
0
 62
256
370
-1
  6
BYLAYER
 10
3.1666666666676671
 20
-573.0
 30
0.0
 11
3.1666666666676671
 21
-580.0
 31
0.0
  0
LINE
  5
B2
100
AcDbEntity
100
AcDbLine
  8
0
 62
256
370
-1
  6
BYLAYER
 10
3.1666666666676671
 20
-573.0
 30
0.0
 11
3.1666666666676671
 21
-569.0
 31
0.0
  0
LINE
  5
B3
100
AcDbEntity
100
AcDbLine
  8
0
 62
256
370
-1
  6
BYLAYER
 10
3.1666666666676671
 20
-569.0
 30
0.0
 11
-0.8333333333323328
 21
-569.0
 31
0.0
  0
LINE
  5
B4
100
AcDbEntity
100
AcDbLine
  8
0
 62
256
370
-1
  6
BYLAYER
 10
-0.8333333333323328
 20
-569.0
 30
0.0
 11
-0.8333333333323329
 21
-580.0
 31
0.0
  0
DIMENSION
  5
B5
100
AcDbEntity
  8
0
 62
256
370
-1
  6
BYLAYER
100
AcDbDimension
 10
747.7778416533551535
 20
-592.2280023848537667
 30
0.0
 11
760.4536503731898165
 21
-595.5308673229134229
 31
0.0
 70
130
 71
8
 72
2
 41
1.0
 42
0.0
  1

  3
Standard
100
AcDb2LineAngularDimension
 13
349.166666666667652
 23
-600.0
 33
0.0
 14
754.166666666667652
 24
-600.0
 34
0.0
 15
754.4870881041758821
 25
-591.600374670014844
 35
0.0
 16
758.5843595920066491
 26
-595.697646157845611
 36
0.0
  0
LINE
  5
B6
100
AcDbEntity
100
AcDbLine
  8
0
 62
256
370
-1
  6
BYLAYER
 10
730.0
 20
-580.0000000000019327
 30
0.0
 11
350.1395642923419587
 21
-580.0000000000001137
 31
0.0
  0
LINE
  5
B7
100
AcDbEntity
100
AcDbLine
  8
0
 62
256
370
-1
  6
BYLAYER
 10
-36.2500000000004405
 20
-600.0
 30
0.0
 11
700.0
 21
-600.0000000000019327
 31
0.0
  0
LINE
  5
B8
100
AcDbEntity
100
AcDbLine
  8
0
 62
256
370
-1
  6
BYLAYER
 10
-184.8545977011495438
 20
-610.7448275862068385
 30
0.0
 11
-1.6666666666663446
 21
-580.0
 31
0.0
  0
LINE
  5
B9
100
AcDbEntity
100
AcDbLine
  8
0
 62
256
370
-1
  6
BYLAYER
 10
82.9166666666672967
 20
-580.0
 30
0.0
 11
-182.5373563218391553
 21
-624.5517241379308189
 31
0.0
  0
DIMENSION
  5
BA
100
AcDbEntity
  8
0
 62
256
370
-1
  6
BYLAYER
100
AcDbDimension
 10
120.8218390804607765
 20
-599.8620689655174374
 30
0.0
 11
104.9834349074537982
 21
-591.181935979933769
 31
0.0
 70
130
 71
8
 72
2
 41
1.0
 42
0.0
  1

  3
Standard
100
AcDb2LineAngularDimension
 13
119.1666666666676662
 23
-580.0
 33
0.0
 14
-0.8333333333323328
 24
-600.0
 34
0.0
 15
-0.8333333333323328
 25
-600.0
 35
0.0
 16
103.1026158119338305
 26
-591.1913409286153183
 36
0.0
  0
LINE
  5
BB
100
AcDbEntity
100
AcDbLine
  8
0
 62
256
370
-1
  6
BYLAYER
 10
356.8062309590108043
 20
-580.0000000000002274
 30
0.0
 11
119.1666666666676662
 21
-580.0
 31
0.0
  0
LINE
  5
BC
100
AcDbEntity
100
AcDbLine
  8
0
 62
256
370
-1
  6
BYLAYER
 10
619.166666666667652
 20
-580.0000000000014779
 30
0.0
 11
619.166666666667652
 21
-574.0
 31
0.0
  0
LINE
  5
BD
100
AcDbEntity
100
AcDbLine
  8
0
 62
256
370
-1
  6
BYLAYER
 10
619.166666666667652
 20
-574.0
 30
0.0
 11
649.166666666667652
 21
-574.0
 31
0.0
  0
LINE
  5
BE
100
AcDbEntity
100
AcDbLine
  8
0
 62
256
370
-1
  6
BYLAYER
 10
649.166666666667652
 20
-574.0
 30
0.0
 11
649.166666666667652
 21
-580.0000000000015916
 31
0.0
  0
LINE
  5
BF
100
AcDbEntity
100
AcDbLine
  8
0
 62
256
370
-1
  6
BYLAYER
 10
634.166666666667652
 20
-574.0
 30
0.0
 11
634.166666666667652
 21
-571.0
 31
0.0
  0
LINE
  5
C0
100
AcDbEntity
100
AcDbLine
  8
0
 62
256
370
-1
  6
BYLAYER
 10
634.166666666667652
 20
-571.0
 30
0.0
 11
639.166666666667652
 21
-571.0
 31
0.0
  0
LINE
  5
C1
100
AcDbEntity
100
AcDbLine
  8
0
 62
256
370
-1
  6
BYLAYER
 10
639.166666666667652
 20
-571.0
 30
0.0
 11
639.166666666667652
 21
-574.0
 31
0.0
  0
LINE
  5
C2
100
AcDbEntity
100
AcDbLine
  8
0
 62
256
370
-1
  6
BYLAYER
 10
-1.6666666666665284
 20
-580.0
 30
0.0
 11
119.1666666666678225
 21
-580.0
 31
0.0
  0
LINE
  5
C3
100
AcDbEntity
100
AcDbLine
  8
0
 62
256
370
-1
  6
BYLAYER
 10
3.1666666666676671
 20
-569.0
 30
0.0
 11
634.166666666667652
 21
-571.0
 31
0.0
  0
LINE
  5
C4
100
AcDbEntity
100
AcDbLine
  8
0
 62
256
370
-1
  6
BYLAYER
 10
-184.8545977011495438
 20
-610.7448275862068385
 30
0.0
 11
-182.5373563218391553
 21
-624.5517241379308189
 31
0.0
  0
LINE
  5
C5
100
AcDbEntity
100
AcDbLine
  8
0
 62
256
370
-1
  6
BYLAYER
 10
639.166666666667652
 20
-571.0
 30
0.0
 11
730.0
 21
-580.0000000000019327
 31
0.0
  0
LINE
  5
C6
100
AcDbEntity
100
AcDbLine
  8
0
 62
256
370
-1
  6
BYLAYER
 10
302.3593392765241674
 20
-620.0000000000019327
 30
0.0
 11
302.3593392765241674
 21
-580.0000000000002274
 31
0.0
  0
LINE
  5
C7
100
AcDbEntity
100
AcDbLine
  8
0
 62
256
370
-1
  6
BYLAYER
 10
730.0
 20
-620.0000000000019327
 30
0.0
 11
730.0
 21
-580.0000000000019327
 31
0.0
  0
LINE
  5
C8
100
AcDbEntity
100
AcDbLine
  8
0
 62
256
370
-1
  6
BYLAYER
 10
302.3593392765241674
 20
-620.0000000000019327
 30
0.0
 11
730.0
 21
-620.0000000000019327
 31
0.0
  0
LINE
  5
C9
100
AcDbEntity
100
AcDbLine
  8
0
 62
256
370
-1
  6
BYLAYER
 10
380.0
 20
-583.0
 30
0.0
 11
700.0
 21
-587.0
 31
0.0
  0
LINE
  5
CA
100
AcDbEntity
100
AcDbLine
  8
0
 62
256
370
-1
  6
BYLAYER
 10
700.0
 20
-600.0000000000019327
 30
0.0
 11
700.0
 21
-587.0
 31
0.0
  0
LINE
  5
CB
100
AcDbEntity
100
AcDbLine
  8
0
 62
256
370
-1
  6
BYLAYER
 10
380.0
 20
-583.0
 30
0.0
 11
380.0
 21
-580.0000000000003411
 31
0.0
  0
LINE
  5
CC
100
AcDbEntity
100
AcDbLine
  8
reference_marks
 62
256
370
-1
  6
BYLAYER
 10
420.0
 20
20.0
 30
0.0
 11
460.0
 21
-20.0
 31
0.0
  0
LINE
  5
CD
100
AcDbEntity
100
AcDbLine
  8
reference_marks
 62
256
370
-1
  6
BYLAYER
 10
420.0
 20
-20.0
 30
0.0
 11
460.0
 21
20.0000000000000107
 31
0.0
  0
LINE
  5
CE
100
AcDbEntity
100
AcDbLine
  8
reference_marks
 62
256
370
-1
  6
BYLAYER
 10
650.0
 20
20.0
 30
0.0
 11
690.0
 21
-20.0
 31
0.0
  0
LINE
  5
CF
100
AcDbEntity
100
AcDbLine
  8
reference_marks
 62
256
370
-1
  6
BYLAYER
 10
650.0
 20
-20.0
 30
0.0
 11
690.0
 21
20.0000000000000107
 31
0.0
  0
LINE
  5
D0
100
AcDbEntity
100
AcDbLine
  8
reference_marks
 62
256
370
-1
  6
BYLAYER
 10
550.0
 20
70.0
 30
0.0
 11
590.0
 21
30.0
 31
0.0
  0
LINE
  5
D1
100
AcDbEntity
100
AcDbLine
  8
reference_marks
 62
256
370
-1
  6
BYLAYER
 10
550.0
 20
30.0
 30
0.0
 11
590.0
 21
70.0000000000000142
 31
0.0
  0
LINE
  5
D2
100
AcDbEntity
100
AcDbLine
  8
reference_marks
 62
256
370
-1
  6
BYLAYER
 10
550.0
 20
-69.9999999999999858
 30
0.0
 11
590.0
 21
-29.9999999999999893
 31
0.0
  0
LINE
  5
D3
100
AcDbEntity
100
AcDbLine
  8
reference_marks
 62
256
370
-1
  6
BYLAYER
 10
550.0
 20
-29.9999999999999929
 30
0.0
 11
590.0
 21
-70.0000000000000142
 31
0.0
  0
LINE
  5
D4
100
AcDbEntity
100
AcDbLine
  8
0
 62
256
370
-1
  6
BYLAYER
 10
347.6309886898162631
 20
20.2500000000000959
 30
0.0
 11
347.6309886898162631
 21
-20.25
 31
0.0
  0
LINE
  5
D5
100
AcDbEntity
100
AcDbLine
  8
outside_blocks
 62
256
370
-1
  6
BYLAYER
 10
688.6514380148639702
 20
-84.4168775296923144
 30
0.0
 11
717.5009787258317147
 21
-90.0246601715714263
 31
0.0
  0
LINE
  5
D6
100
AcDbEntity
100
AcDbLine
  8
outside_blocks
 62
256
370
-1
  6
BYLAYER
 10
717.5009787258318283
 20
-90.0246601715714405
 30
0.0
 11
734.9999999999998863
 21
0.0000000000000243
 31
0.0
  0
LINE
  5
D7
100
AcDbEntity
100
AcDbLine
  8
outside_blocks
 62
256
370
-1
  6
BYLAYER
 10
710.5507993210746918
 20
0.0
 30
0.0
 11
693.9419263230880688
 21
-85.4452442825344036
 31
0.0
  0
LINE
  5
D8
100
AcDbEntity
100
AcDbLine
  8
outside_blocks
 62
256
370
-1
  6
BYLAYER
 10
735.0
 20
0.0
 30
0.0
 11
710.5507993210748054
 21
0.0
 31
0.0
  0
LINE
  5
D9
100
AcDbEntity
100
AcDbLine
  8
outside_blocks
 62
256
370
-1
  6
BYLAYER
 10
650.6007524412623297
 20
-156.4086886002480981
 30
0.0
 11
717.0687898727982201
 21
-89.9406511687129608
 31
0.0
  0
LINE
  5
DA
100
AcDbEntity
100
AcDbLine
  8
outside_blocks
 62
256
370
-1
  6
BYLAYER
 10
688.6514380148640839
 20
-84.4168775296923144
 30
0.0
 11
650.6007524412624434
 21
-122.4675631032939123
 31
0.0
  0
LINE
  5
DB
100
AcDbEntity
100
AcDbLine
  8
outside_blocks
 62
256
370
-1
  6
BYLAYER
 10
540.6007524412624434
 20
-146.4675631032939123
 30
0.0
 11
650.6007524412624434
 21
-146.4675631032939123
 31
0.0
  0
LINE
  5
DC
100
AcDbEntity
100
AcDbLine
  8
outside_blocks
 62
256
370
-1
  6
BYLAYER
 10
650.6007524412624434
 20
-146.4675631032939123
 30
0.0
 11
650.6007524412624434
 21
-122.4675631032939123
 31
0.0
  0
LINE
  5
DD
100
AcDbEntity
100
AcDbLine
  8
outside_blocks
 62
256
370
-1
  6
BYLAYER
 10
650.6007524412624434
 20
-122.4675631032939123
 30
0.0
 11
540.6007524412624434
 21
-122.4675631032939123
 31
0.0
  0
LINE
  5
DE
100
AcDbEntity
100
AcDbLine
  8
outside_blocks
 62
256
370
-1
  6
BYLAYER
 10
540.6007524412625571
 20
-122.4675631032939123
 30
0.0
 11
540.6007524412625571
 21
-146.4675631032939123
 31
0.0
  0
LINE
  5
DF
100
AcDbEntity
100
AcDbLine
  8
outside_blocks
 62
256
370
-1
  6
BYLAYER
 10
650.6007524412624434
 20
-122.4675631032939123
 30
0.0
 11
650.6007524412623297
 21
-156.4086886002480981
 31
0.0
  0
LINE
  5
E0
100
AcDbEntity
100
AcDbLine
  8
outside_blocks
 62
256
370
-1
  6
BYLAYER
 10
478.1047667446429728
 20
-83.9343601580677898
 30
0.0
 11
614.1282643268926904
 21
-162.4675631032941396
 31
0.0
  0
LINE
  5
E1
100
AcDbEntity
100
AcDbLine
  8
outside_blocks
 62
256
370
-1
  6
BYLAYER
 10
662.1282643268925767
 20
-162.4675631032941112
 30
0.0
 11
469.3201570538165583
 21
-51.1497504672413896
 31
0.0
  0
LINE
  5
E2
100
AcDbEntity
100
AcDbLine
  8
outside_blocks
 62
256
370
-1
  6
BYLAYER
 10
416.204882145975489
 20
-105.0648342928582792
 30
0.0
 11
479.2408792558924233
 21
-88.1743897731654727
 31
0.0
  0
LINE
  5
E3
100
AcDbEntity
100
AcDbLine
  8
outside_blocks
 62
256
370
-1
  6
BYLAYER
 10
479.2408792558924233
 20
-88.1743897731654727
 30
0.0
 11
469.3201570538165015
 21
-51.1497504672414038
 31
0.0
  0
LINE
  5
E4
100
AcDbEntity
100
AcDbLine
  8
outside_blocks
 62
256
370
-1
  6
BYLAYER
 10
473.0292221734319469
 20
-64.9921699422278323
 30
0.0
 11
399.1831784233161216
 21
-84.7791577293047283
 31
0.0
  0
LINE
  5
E5
100
AcDbEntity
100
AcDbLine
  8
outside_blocks
 62
256
370
-1
  6
BYLAYER
 10
344.0
 20
-90.0
 30
0.0
 11
368.0
 21
-90.0
 31
0.0
  0
LINE
  5
E6
100
AcDbEntity
100
AcDbLine
  8
outside_blocks
 62
256
370
-1
  6
BYLAYER
 10
368.0
 20
-90.0
 30
0.0
 11
368.0
 21
0.0
 31
0.0
  0
LINE
  5
E7
100
AcDbEntity
100
AcDbLine
  8
outside_blocks
 62
256
370
-1
  6
BYLAYER
 10
344.0
 20
0.0
 30
0.0
 11
344.0
 21
-90.0
 31
0.0
  0
LINE
  5
E8
100
AcDbEntity
100
AcDbLine
  8
outside_blocks
 62
256
370
-1
  6
BYLAYER
 10
403.037942140067571
 20
-126.7104580819951991
 30
0.0
 11
421.4230087749231188
 21
-111.2835554495182322
 31
0.0
  0
LINE
  5
E9
100
AcDbEntity
100
AcDbLine
  8
outside_blocks
 62
256
370
-1
  6
BYLAYER
 10
421.4230087749231188
 20
-111.2835554495182322
 30
0.0
 11
367.9999999999999432
 21
-47.6164928148115365
 31
0.0
  0
LINE
  5
EA
100
AcDbEntity
100
AcDbLine
  8
outside_blocks
 62
256
370
-1
  6
BYLAYER
 10
367.9999999999999432
 20
-84.9538646594614448
 30
0.0
 11
403.0379421400676279
 21
-126.7104580819951991
 31
0.0
  0
LINE
  5
EB
100
AcDbEntity
100
AcDbLine
  8
outside_blocks
 62
256
370
-1
  6
BYLAYER
 10
710.5507993210750328
 20
0.0
 30
0.0
 11
686.1015986421498383
 21
0.0
 31
0.0
  0
LINE
  5
EC
100
AcDbEntity
100
AcDbLine
  8
outside_blocks
 62
256
370
-1
  6
BYLAYER
 10
686.1015986421497246
 20
0.0
 30
0.0
 11
679.0331754129899764
 21
-36.3638851101512444
 31
0.0
  0
LINE
  5
ED
100
AcDbEntity
100
AcDbLine
  8
outside_blocks
 62
256
370
-1
  6
BYLAYER
 10
702.5922278157339633
 20
-40.9433009991883026
 30
0.0
 11
679.0331754129899764
 21
-36.3638851101512444
 31
0.0
  0
LINE
  5
EE
100
AcDbEntity
100
AcDbLine
  8
outside_blocks
 62
256
370
-1
  6
BYLAYER
 10
368.0
 20
-40.0
 30
0.0
 11
392.0
 21
-40.0
 31
0.0
  0
LINE
  5
EF
100
AcDbEntity
100
AcDbLine
  8
outside_blocks
 62
256
370
-1
  6
BYLAYER
 10
392.0
 20
-40.0
 30
0.0
 11
392.0
 21
0.0
 31
0.0
  0
LINE
  5
F0
100
AcDbEntity
100
AcDbLine
  8
outside_blocks
 62
256
370
-1
  6
BYLAYER
 10
368.0
 20
0.0
 30
0.0
 11
368.0
 21
-40.0
 31
0.0
  0
LINE
  5
F1
100
AcDbEntity
100
AcDbLine
  8
outside_blocks
 62
256
370
-1
  6
BYLAYER
 10
650.6007524412624434
 20
146.4675631032939407
 30
0.0
 11
650.6007524412623297
 21
122.4675631032939549
 31
0.0
  0
LINE
  5
F2
100
AcDbEntity
100
AcDbLine
  8
outside_blocks
 62
256
370
-1
  6
BYLAYER
 10
650.6007524412623297
 20
122.4675631032939549
 30
0.0
 11
540.6007524412624434
 21
122.4675631032939265
 31
0.0
  0
LINE
  5
F3
100
AcDbEntity
100
AcDbLine
  8
outside_blocks
 62
256
370
-1
  6
BYLAYER
 10
540.6007524412624434
 20
122.4675631032938696
 30
0.0
 11
540.6007524412625571
 21
146.4675631032939123
 31
0.0
  0
LINE
  5
F4
100
AcDbEntity
100
AcDbLine
  8
outside_blocks
 62
256
370
-1
  6
BYLAYER
 10
650.6007524412623297
 20
122.4675631032939549
 30
0.0
 11
650.6007524412622161
 21
156.4086886002481265
 31
0.0
  0
LINE
  5
F5
100
AcDbEntity
100
AcDbLine
  8
outside_blocks
 62
256
370
-1
  6
BYLAYER
 10
478.1047667446429728
 20
83.9343601580677472
 30
0.0
 11
544.8462320241372936
 21
122.4675631032939265
 31
0.0
  0
LINE
  5
F6
100
AcDbEntity
100
AcDbLine
  8
outside_blocks
 62
256
370
-1
  6
BYLAYER
 10
592.8462320241371799
 20
122.4675631032938981
 30
0.0
 11
469.3201570538165583
 21
51.1497504672414181
 31
0.0
  0
LINE
  5
F7
100
AcDbEntity
100
AcDbLine
  8
outside_blocks
 62
256
370
-1
  6
BYLAYER
 10
416.204882145975489
 20
105.0648342928582508
 30
0.0
 11
479.2408792558924233
 21
88.1743897731654869
 31
0.0
  0
LINE
  5
F8
100
AcDbEntity
100
AcDbLine
  8
outside_blocks
 62
256
370
-1
  6
BYLAYER
 10
479.2408792558924233
 20
88.1743897731654869
 30
0.0
 11
469.3201570538165015
 21
51.1497504672413754
 31
0.0
  0
LINE
  5
F9
100
AcDbEntity
100
AcDbLine
  8
outside_blocks
 62
256
370
-1
  6
BYLAYER
 10
473.0292221734319469
 20
64.9921699422278749
 30
0.0
 11
399.1831784233161216
 21
84.7791577293047567
 31
0.0
  0
LINE
  5
FA
100
AcDbEntity
100
AcDbLine
  8
outside_blocks
 62
256
370
-1
  6
BYLAYER
 10
344.0
 20
89.9999999999999432
 30
0.0
 11
368.0
 21
90.0
 31
0.0
  0
LINE
  5
FB
100
AcDbEntity
100
AcDbLine
  8
outside_blocks
 62
256
370
-1
  6
BYLAYER
 10
368.0
 20
90.0
 30
0.0
 11
368.0
 21
0.0000000000000284
 31
0.0
  0
LINE
  5
FC
100
AcDbEntity
100
AcDbLine
  8
outside_blocks
 62
256
370
-1
  6
BYLAYER
 10
688.6514380148639702
 20
84.4168775296922718
 30
0.0
 11
717.5009787258317147
 21
90.0246601715714831
 31
0.0
  0
LINE
  5
FD
100
AcDbEntity
100
AcDbLine
  8
outside_blocks
 62
256
370
-1
  6
BYLAYER
 10
344.0
 20
0.0000000000000314
 30
0.0
 11
344.0
 21
89.9999999999999432
 31
0.0
  0
LINE
  5
FE
100
AcDbEntity
100
AcDbLine
  8
outside_blocks
 62
256
370
-1
  6
BYLAYER
 10
717.5009787258318283
 20
90.0246601715714405
 30
0.0
 11
734.9999999999998863
 21
-0.0000000000000331
 31
0.0
  0
LINE
  5
FF
100
AcDbEntity
100
AcDbLine
  8
outside_blocks
 62
256
370
-1
  6
BYLAYER
 10
403.037942140067571
 20
126.7104580819952133
 30
0.0
 11
421.4230087749231188
 21
111.2835554495182038
 31
0.0
  0
LINE
  5
100
100
AcDbEntity
100
AcDbLine
  8
outside_blocks
 62
256
370
-1
  6
BYLAYER
 10
421.4230087749231188
 20
111.2835554495182038
 30
0.0
 11
367.9999999999999432
 21
47.6164928148116076
 31
0.0
  0
LINE
  5
101
100
AcDbEntity
100
AcDbLine
  8
outside_blocks
 62
256
370
-1
  6
BYLAYER
 10
710.5507993210746918
 20
-0.0000000000000271
 30
0.0
 11
693.9419263230880688
 21
85.4452442825343752
 31
0.0
  0
LINE
  5
102
100
AcDbEntity
100
AcDbLine
  8
outside_blocks
 62
256
370
-1
  6
BYLAYER
 10
367.9999999999999432
 20
84.9538646594614448
 30
0.0
 11
403.0379421400676279
 21
126.7104580819951849
 31
0.0
  0
LINE
  5
103
100
AcDbEntity
100
AcDbLine
  8
outside_blocks
 62
256
370
-1
  6
BYLAYER
 10
710.5507993210750328
 20
-0.0000000000000271
 30
0.0
 11
686.1015986421498383
 21
-0.0000000000000211
 31
0.0
  0
LINE
  5
104
100
AcDbEntity
100
AcDbLine
  8
outside_blocks
 62
256
370
-1
  6
BYLAYER
 10
686.1015986421497246
 20
-0.0000000000000211
 30
0.0
 11
679.0331754129899764
 21
36.3638851101512657
 31
0.0
  0
LINE
  5
105
100
AcDbEntity
100
AcDbLine
  8
outside_blocks
 62
256
370
-1
  6
BYLAYER
 10
702.5922278157339633
 20
40.9433009991883168
 30
0.0
 11
679.0331754129899764
 21
36.3638851101512657
 31
0.0
  0
LINE
  5
106
100
AcDbEntity
100
AcDbLine
  8
outside_blocks
 62
256
370
-1
  6
BYLAYER
 10
368.0
 20
40.0
 30
0.0
 11
392.0
 21
39.9999999999999929
 31
0.0
  0
LINE
  5
107
100
AcDbEntity
100
AcDbLine
  8
outside_blocks
 62
256
370
-1
  6
BYLAYER
 10
392.0
 20
39.9999999999999929
 30
0.0
 11
392.0
 21
0.0000000000000255
 31
0.0
  0
LINE
  5
108
100
AcDbEntity
100
AcDbLine
  8
outside_blocks
 62
256
370
-1
  6
BYLAYER
 10
735.0
 20
-0.0000000000000331
 30
0.0
 11
710.5507993210748054
 21
-0.0000000000000271
 31
0.0
  0
LINE
  5
109
100
AcDbEntity
100
AcDbLine
  8
outside_blocks
 62
256
370
-1
  6
BYLAYER
 10
368.0
 20
0.0000000000000284
 30
0.0
 11
368.0
 21
40.0
 31
0.0
  0
LINE
  5
10A
100
AcDbEntity
100
AcDbLine
  8
outside_blocks
 62
256
370
-1
  6
BYLAYER
 10
650.6007524412622161
 20
156.4086886002481265
 30
0.0
 11
717.0687898727983338
 21
89.940651168712904
 31
0.0
  0
LINE
  5
10B
100
AcDbEntity
100
AcDbLine
  8
outside_blocks
 62
256
370
-1
  6
BYLAYER
 10
688.6514380148640839
 20
84.4168775296923286
 30
0.0
 11
650.6007524412623297
 21
122.4675631032939549
 31
0.0
  0
LINE
  5
10C
100
AcDbEntity
100
AcDbLine
  8
outside_blocks
 62
256
370
-1
  6
BYLAYER
 10
540.6007524412624434
 20
146.4675631032939123
 30
0.0
 11
650.6007524412624434
 21
146.4675631032939407
 31
0.0
  0
DIMENSION
  5
10D
100
AcDbEntity
  8
outside_blocks
 62
256
370
-1
  6
BYLAYER
100
AcDbDimension
 10
402.0
 20
40.0
 30
0.0
 11
400.125
 21
0.0000000000000002
 31
0.0
 70
1
 71
8
 72
2
 41
1.0
 42
0.0
  1

  3
Standard
100
AcDbAlignedDimension
 13
392.0
 23
40.0
 33
0.0
 14
392.0
 24
-40.0
 34
0.0
1001
ACAD
1000
DSTYLE
1002
{
1070
144
1040
1
1002
}
  0
DIMENSION
  5
10E
100
AcDbEntity
  8
outside_blocks
 62
256
370
-1
  6
BYLAYER
100
AcDbDimension
 10
332.9999999999999432
 20
89.9999999999999289
 30
0.0
 11
331.125
 21
-0.0000000000000353
 31
0.0
 70
1
 71
8
 72
2
 41
1.0
 42
0.0
  1

  3
Standard
100
AcDbAlignedDimension
 13
343.9999999999999432
 23
89.9999999999999289
 33
0.0
 14
344.0
 24
-90.0
 34
0.0
1001
ACAD
1000
DSTYLE
1002
{
1070
144
1040
1
1002
}
  0
DIMENSION
  5
10F
100
AcDbEntity
  8
outside_blocks
 62
256
370
-1
  6
BYLAYER
100
AcDbDimension
 10
368.0
 20
0.0
 30
0.0
 11
372.3680866455536034
 21
-59.6177122396914925
 31
0.0
 70
2
 71
8
 72
2
 41
1.0
 42
0.0
  1

  3
Standard
100
AcDb2LineAngularDimension
 13
421.4230087749231188
 23
-111.2835554495182322
 33
0.0
 14
367.9999999999999432
 24
-47.6164928148115365
 34
0.0
 15
368.0
 25
-90.0
 35
0.0
 16
374.2971681932291403
 26
-60.8400934006193097
 36
0.0
  0
DIMENSION
  5
110
100
AcDbEntity
  8
outside_blocks
 62
256
370
-1
  6
BYLAYER
100
AcDbDimension
 10
378.2180288558308803
 20
-59.7938654129793576
 30
0.0
 11
409.1966823953991366
 21
-110.2138904947419604
 31
0.0
 70
2
 71
8
 72
2
 41
1.0
 42
0.0
  1

  3
Standard
100
AcDb2LineAngularDimension
 13
403.037942140067571
 23
-126.7104580819951991
 33
0.0
 14
421.4230087749231188
 24
-111.2835554495182322
 34
0.0
 15
421.824751030977211
 25
-111.7623332264676037
 35
0.0
 16
411.3319821025631882
 26
-108.77553093774209
 36
0.0
  0
DIMENSION
  5
111
100
AcDbEntity
  8
outside_blocks
 62
256
370
-1
  6
BYLAYER
100
AcDbDimension
 10
473.0292221734319469
 20
-64.9921699422278323
 30
0.0
 11
408.2564360240296537
 21
-87.6399448619967956
 31
0.0
 70
2
 71
8
 72
2
 41
1.0
 42
0.0
  1

  3
Standard
100
AcDb2LineAngularDimension
 13
421.824751030977211
 23
-111.7623332264676037
 33
0.0
 14
378.2180288558308803
 24
-59.7938654129793576
 34
0.0
 15
399.1831784233161216
 25
-84.7791577293047283
 35
0.0
 16
406.9796249257948944
 26
-93.0806671790927567
 36
0.0
  0
DIMENSION
  5
112
100
AcDbEntity
  8
outside_blocks
 62
256
370
-1
  6
BYLAYER
100
AcDbDimension
 10
469.3201570538165015
 20
-51.1497504672414038
 30
0.0
 11
470.8577843504045859
 21
-83.3344076728398448
 31
0.0
 70
2
 71
8
 72
2
 41
1.0
 42
0.0
  1

  3
Standard
100
AcDb2LineAngularDimension
 13
416.204882145975489
 23
-105.0648342928582792
 33
0.0
 14
479.2408792558924233
 24
-88.1743897731654727
 34
0.0
 15
479.2408792558924233
 25
-88.1743897731654727
 35
0.0
 16
472.5287618001538021
 26
-84.1913073695720442
 36
0.0
  0
DIMENSION
  5
113
100
AcDbEntity
  8
outside_blocks
 62
256
370
-1
  6
BYLAYER
100
AcDbDimension
 10
476.8972820680424434
 20
-79.4279659956334854
 30
0.0
 11
483.134319498510024
 21
-69.1527174697160234
 31
0.0
 70
2
 71
8
 72
2
 41
1.0
 42
0.0
  1

  3
Standard
100
AcDb2LineAngularDimension
 13
592.8462320241371799
 23
-122.4675631032938981
 33
0.0
 14
469.3201570538165583
 24
-51.1497504672413896
 34
0.0
 15
469.1583951506274843
 25
-50.5460468258107198
 35
0.0
 16
485.5066995636084926
 26
-69.6306942691107764
 36
0.0
  0
DIMENSION
  5
114
100
AcDbEntity
  8
outside_blocks
 62
256
370
-1
  6
BYLAYER
100
AcDbDimension
 10
469.3201570538165583
 20
-51.1497504672413896
 30
0.0
 11
557.7859027844218645
 21
-113.0731761971429137
 31
0.0
 70
2
 71
8
 72
2
 41
1.0
 42
0.0
  1

  3
Standard
100
AcDb2LineAngularDimension
 13
650.6007524412624434
 23
-122.4675631032939123
 33
0.0
 14
540.6007524412624434
 24
-122.4675631032939123
 34
0.0
 15
592.8462320241371799
 25
-122.4675631032938981
 35
0.0
 16
559.8924404029215793
 26
-112.5211959019912058
 36
0.0
  0
DIMENSION
  5
115
100
AcDbEntity
  8
outside_blocks
 62
256
370
-1
  6
BYLAYER
100
AcDbDimension
 10
650.6007524412623297
 20
-156.4086886002480981
 30
0.0
 11
641.9974353987729501
 21
-131.0708801457833772
 31
0.0
 70
2
 71
8
 72
2
 41
1.0
 42
0.0
  1

  3
Standard
100
AcDb2LineAngularDimension
 13
540.6007524412624434
 23
-122.4675631032939123
 33
0.0
 14
650.6007524412624434
 24
-122.4675631032939123
 34
0.0
 15
650.6007524412624434
 25
-122.4675631032939123
 35
0.0
 16
643.7805639656223775
 26
-134.7419576335647378
 36
0.0
  0
DIMENSION
  5
116
100
AcDbEntity
  8
outside_blocks
 62
256
370
-1
  6
BYLAYER
100
AcDbDimension
 10
650.6007524412624434
 20
-146.4675631032939123
 30
0.0
 11
547.6140669804573236
 21
-139.4542485640991742
 31
0.0
 70
2
 71
8
 72
2
 41
1.0
 42
0.0
  1

  3
Standard
100
AcDb2LineAngularDimension
 13
540.6007524412625571
 23
-122.4675631032939123
 33
0.0
 14
540.6007524412625571
 24
-146.4675631032939123
 34
0.0
 15
540.6007524412624434
 25
-146.4675631032939123
 35
0.0
 16
547.8324543349309579
 26
-142.9465465806072189
 36
0.0
  0
DIMENSION
  5
117
100
AcDbEntity
  8
outside_blocks
 62
256
370
-1
  6
BYLAYER
100
AcDbDimension
 10
717.0687898727982201
 20
-89.9406511687129608
 30
0.0
 11
660.9770193579327042
 21
-131.3581642832196223
 31
0.0
 70
2
 71
8
 72
2
 41
1.0
 42
0.0
  1

  3
Standard
100
AcDb2LineAngularDimension
 13
650.6007524412624434
 23
-122.4675631032939123
 33
0.0
 14
650.6007524412623297
 24
-156.4086886002480981
 34
0.0
 15
650.6007524412623297
 25
-156.4086886002480981
 35
0.0
 16
659.9618366111783416
 26
-132.9693612561172813
 36
0.0
  0
DIMENSION
  5
118
100
AcDbEntity
  8
outside_blocks
 62
256
370
-1
  6
BYLAYER
100
AcDbDimension
 10
669.3316519593919338
 20
-137.6777890821185508
 30
0.0
 11
699.9150991267728159
 21
-95.1850607300262936
 31
0.0
 70
2
 71
8
 72
2
 41
1.0
 42
0.0
  1

  3
Standard
100
AcDb2LineAngularDimension
 13
688.6514380148639702
 23
-84.4168775296923144
 33
0.0
 14
717.5009787258317147
 24
-90.0246601715714263
 34
0.0
 15
717.5107316110396596
 25
-89.4987094304713082
 35
0.0
 16
700.0
 26
-100.0
 36
0.0
  0
DIMENSION
  5
119
100
AcDbEntity
  8
outside_blocks
 62
256
370
-1
  6
BYLAYER
100
AcDbDimension
 10
734.9999999999998863
 20
0.0000000000000243
 30
0.0
 11
712.7769693730410836
 21
-83.0210282902347387
 31
0.0
 70
2
 71
8
 72
2
 41
1.0
 42
0.0
  1

  3
Standard
100
AcDb2LineAngularDimension
 13
688.6514380148639702
 23
-84.4168775296923144
 33
0.0
 14
717.5009787258317147
 24
-90.0246601715714263
 34
0.0
 15
717.5009787258318283
 25
-90.0246601715714405
 35
0.0
 16
713.0257753103369396
 26
-85.2105502866042457
 36
0.0
  0
DIMENSION
  5
11A
100
AcDbEntity
  8
outside_blocks
 62
256
370
-1
  6
BYLAYER
100
AcDbDimension
 10
717.5009787258318283
 20
-90.0246601715714405
 30
0.0
 11
726.7115572283911433
 21
-6.832464958403131
 31
0.0
 70
2
 71
8
 72
2
 41
1.0
 42
0.0
  1

  3
Standard
100
AcDb2LineAngularDimension
 13
710.5507993210748054
 23
-0.0000000000000271
 33
0.0
 14
735.0
 24
-0.0000000000000331
 34
0.0
 15
734.9999999999998863
 25
0.0000000000000243
 35
0.0
 16
731.0478752256470898
 26
-11.9815692658281421
 36
0.0
  0
DIMENSION
  5
11B
100
AcDbEntity
  8
outside_blocks
 62
256
370
-1
  6
BYLAYER
100
AcDbDimension
 10
747.0393370672990159
 20
-2.3402100609547958
 30
0.0
 11
736.449275461250636
 21
-46.9947732804094898
 31
0.0
 70
1
 71
8
 72
2
 41
1.0
 42
0.0
  1

  3
Standard
100
AcDbAlignedDimension
 13
734.9999999999998863
 23
0.0
 33
0.0
 14
717.5009787258318283
 24
-90.0246601715714263
 34
0.0
1001
ACAD
1000
DSTYLE
1002
{
1070
144
1040
1
1002
}
  0
DIMENSION
  5
11C
100
AcDbEntity
  8
outside_blocks
 62
256
370
-1
  6
BYLAYER
100
AcDbDimension
 10
723.1836404391813176
 20
-96.0555017350960583
 30
0.0
 11
688.6237965086886561
 21
-127.9636952361388609
 31
0.0
 70
1
 71
8
 72
2
 41
1.0
 42
0.0
  1

  3
Standard
100
AcDbAlignedDimension
 13
717.0687898727982201
 23
-89.9406511687128898
 33
0.0
 14
650.6007524412623297
 24
-156.4086886002480412
 34
0.0
1001
ACAD
1000
DSTYLE
1002
{
1070
144
1040
1
1002
}
  0
DIMENSION
  5
11D
100
AcDbEntity
  8
outside_blocks
 62
256
370
-1
  6
BYLAYER
100
AcDbDimension
 10
650.6007524412623297
 20
-154.1408239072706579
 30
0.0
 11
595.6007524412624434
 21
-152.2658239072706579
 31
0.0
 70
1
 71
8
 72
2
 41
1.0
 42
0.0
  1

  3
Standard
100
AcDbAlignedDimension
 13
650.6007524412623297
 23
-146.4675631032939123
 33
0.0
 14
540.6007524412625571
 24
-146.4675631032939123
 34
0.0
1001
ACAD
1000
DSTYLE
1002
{
1070
144
1040
1
1002
}
  0
DIMENSION
  5
11E
100
AcDbEntity
  8
outside_blocks
 62
256
370
-1
  6
BYLAYER
100
AcDbDimension
 10
595.3093170401518819
 20
-118.2013747121946494
 30
0.0
 11
534.4837795549916564
 21
-80.918670762072594
 31
0.0
 70
1
 71
8
 72
2
 41
1.0
 42
0.0
  1

  3
Standard
100
AcDbAlignedDimension
 13
592.8462320241370662
 23
-122.4675631032939265
 33
0.0
 14
469.3201570538165583
 24
-51.149750467241482
 34
0.0
1001
ACAD
1000
DSTYLE
1002
{
1070
144
1040
1
1002
}
  0
DIMENSION
  5
11F
100
AcDbEntity
  8
outside_blocks
 62
256
370
-1
  6
BYLAYER
100
AcDbDimension
 10
398.7986558734326081
 20
-80.7902277750767155
 30
0.0
 11
434.5978308572597371
 21
-68.3838566851446075
 31
0.0
 70
1
 71
8
 72
2
 41
1.0
 42
0.0
  1

  3
Standard
100
AcDbAlignedDimension
 13
400.379792741171002
 23
-86.2052271415580691
 33
0.0
 14
473.0292221734319469
 24
-64.9921699422278607
 34
0.0
1001
ACAD
1000
DSTYLE
1002
{
1070
144
1040
1
1002
}
  0
DIMENSION
  5
120
100
AcDbEntity
  8
outside_blocks
 62
256
370
-1
  6
BYLAYER
100
AcDbDimension
 10
378.5892515047027018
 20
-38.7310557827721169
 30
0.0
 11
406.7370892230123332
 21
-69.359360331963174
 31
0.0
 70
1
 71
8
 72
2
 41
1.0
 42
0.0
  1

  3
Standard
100
AcDbAlignedDimension
 13
368.0
 23
-47.6164928148116076
 33
0.0
 14
421.4230087749231757
 24
-111.2835554495182606
 34
0.0
1001
ACAD
1000
DSTYLE
1002
{
1070
144
1040
1
1002
}
  0
SPLINE
  5
121
  8
0
 62
256
370
-1
  6
BYLAYER
100
AcDbEntity
100
AcDbSpline
 70
8
 71
3
 72
43
 73
39
 74
0
 40
0.0
 40
0.0
 40
0.0
 40
0.0
 40
1.0
 40
2.0
 40
3.0
 40
4.0
 40
5.0
 40
6.0
 40
7.0
 40
8.0
 40
9.0
 40
10.0
 40
11.0
 40
12.0
 40
13.0
 40
14.0
 40
15.0
 40
16.0
 40
17.0
 40
18.0
 40
19.0
 40
20.0
 40
21.0
 40
22.0
 40
23.0
 40
24.0
 40
25.0
 40
26.0
 40
27.0
 40
28.0
 40
29.0
 40
30.0
 40
31.0
 40
32.0
 40
33.0
 40
34.0
 40
35.0
 40
36.0
 40
36.0
 40
36.0
 40
36.0
 10
-0.0000000000000107
 20
-1019.0000094791021183
 30
0.0
 10
-5.0666691944272593
 20
-1018.5777870462331975
 30
0.0
 10
-14.9092511945811026
 20
-1020.366498351676114
 30
0.0
 10
-16.4662813293677317
 20
-1025.2207687718932902
 30
0.0
 10
-24.9841520667299335
 20
-1026.0450788432508489
 30
0.0
 10
-34.3263328754497721
 20
-1026.5946188908226304
 30
0.0
 10
-38.3818454632883288
 20
-1026.8804066743446128
 30
0.0
 10
-41.9009966460694869
 20
-1026.4876122511489029
 30
0.0
 10
-156.5274830349747219
 20
-989.3879045849288332
 30
0.0
 10
-158.8191413583556084
 20
-988.3740682147571306
 30
0.0
 10
-161.0
 20
-986.0
 30
0.0
 10
-163.2594673679192283
 20
-982.3115626467018728
 30
0.0
 10
-164.6667488188859352
 20
-975.5110988936014564
 30
0.0
 10
-164.244526386016986
 20
-965.1666492883123283
 30
0.0
 10
-160.2334132737620678
 20
-957.3555342802371797
 30
0.0
 10
-153.2667431314245334
 20
-952.2888650858099027
 30
0.0
 10
-144.1889608247424235
 20
-950.0
 30
0.0
 10
-133.4222887865844598
 20
-951.0221977872031403
 30
0.0
 10
-126.4556186442470533
 20
-955.6666445487614965
 30
0.0
 10
-121.6000606662541799
 20
-961.3666473924918137
 30
0.0
 10
-119.2778372854750302
 20
-965.7999829376158232
 30
0.0
 10
-117.3778363375648013
 20
-968.9666511841328429
 30
0.0
 10
-113.3667232253099399
 20
-969.5999848334363378
 30
0.0
 10
-109.0
 20
-969.0
 30
0.0
 10
-97.0
 20
-968.0
 30
0.0
 10
-75.0
 20
-964.0
 30
0.0
 10
-55.3315237149500874
 20
-959.4782717701549473
 30
0.0
 10
-46.2445712312720332
 20
-956.1735662583250814
 30
0.0
 10
-42.0
 20
-953.0
 30
0.0
 10
-41.0
 20
-957.0
 30
0.0
 10
-38.8444638239423199
 20
-961.5777586089263878
 30
0.0
 10
-35.0
 20
-966.0
 30
0.0
 10
-26.8111244871775476
 20
-973.6110979456911991
 30
0.0
 10
-17.31111974762646
 20
-978.8888783565530503
 30
0.0
 10
-9.9222271724200475
 20
-980.1555456551598127
 30
0.0
 10
-4.4333355451238354
 20
-980.7888793044633076
 30
0.0
 10
0.0000000000000107
 20
-980.9999905208976543
 30
0.0
 10
0.0000000000000107
 20
-980.9999905208976543
 30
0.0
 10
0.0000000000000107
 20
-980.9999905208976543
 30
0.0
  0
LINE
  5
122
100
AcDbEntity
100
AcDbLine
  8
0
 62
256
370
-1
  6
BYLAYER
 10
-0.0
 20
-1019.000009479101891
 30
0.0
 11
384.5160090625271891
 21
-1022.5
 31
0.0
  0
LINE
  5
123
100
AcDbEntity
100
AcDbLine
  8
0
 62
256
370
-1
  6
BYLAYER
 10
0.0
 20
-980.999990520898109
 30
0.0
 11
384.5160090625271891
 21
-977.4999999999998863
 31
0.0
  0
DIMENSION
  5
124
100
AcDbEntity
  8
outside_blocks
 62
256
370
-1
  6
BYLAYER
100
AcDbDimension
 10
650.6007524412624434
 20
-122.4675631032939123
 30
0.0
 11
596.3123432498435932
 21
-109.5318599042723662
 31
0.0
 70
2
 71
8
 72
2
 41
1.0
 42
0.0
  1

  3
Standard
100
AcDb2LineAngularDimension
 13
469.3201570538165583
 23
-51.1497504672413896
 33
0.0
 14
662.1282643268925767
 24
-162.4675631032941112
 34
0.0
 15
540.6007524412624434
 25
-122.4675631032939123
 35
0.0
 16
602.8929580512127586
 26
-116.8368286775265972
 36
0.0
  0
INSERT
  5
125
100
AcDbEntity
100
AcDbBlockReference
  8
0
 62
256
370
-1
  6
BYLAYER
  2
tuner
 10
-28.0
 20
-15.0
 30
0.0
  0
INSERT
  5
126
100
AcDbEntity
100
AcDbBlockReference
  8
0
 62
256
370
-1
  6
BYLAYER
  2
tuner
 10
-71.0
 20
-9.0
 30
0.0
  0
INSERT
  5
127
100
AcDbEntity
100
AcDbBlockReference
  8
0
 62
256
370
-1
  6
BYLAYER
  2
tuner
 10
-71.0
 20
8.999999999999968
 30
0.0
 41
1.0
 42
-1.0
 43
1.0
 50
360.0
  0
INSERT
  5
128
100
AcDbEntity
100
AcDbBlockReference
  8
0
 62
256
370
-1
  6
BYLAYER
  2
tuner
 10
-50.0344096151521924
 20
-1014.9636904842063814
 30
0.0
 50
-18.0
  0
INSERT
  5
129
100
AcDbEntity
100
AcDbBlockReference
  8
0
 62
256
370
-1
  6
BYLAYER
  2
tuner
 10
-80.2292492603392304
 20
-1005.2172537597866722
 30
0.0
 50
-18.0
  0
INSERT
  5
12A
100
AcDbEntity
100
AcDbBlockReference
  8
0
 62
256
370
-1
  6
BYLAYER
  2
tuner
 10
-110.4240889055262755
 20
-995.470817035366963
 30
0.0
 50
-18.0
  0
INSERT
  5
12B
100
AcDbEntity
100
AcDbBlockReference
  8
0
 62
256
370
-1
  6
BYLAYER
  2
tuner
 10
-140.6189285507133206
 20
-985.7243803109472537
 30
0.0
 50
-18.0
  0
DIMENSION
  5
12C
100
AcDbEntity
  8
0
 62
256
370
-1
  6
BYLAYER
100
AcDbDimension
 10
313.166666666667652
 20
300.0
 30
0.0
 11
73.9130704992045224
 21
308.8913065267723255
 31
0.0
 70
2
 71
8
 72
2
 41
1.0
 42
0.0
  1

  3
Standard
100
AcDb2LineAngularDimension
 13
-136.5387751757213834
 23
271.2382508307817375
 33
0.0
 14
82.9166666666676662
 24
320.0
 34
0.0
 15
-36.2500000000004405
 25
300.0
 35
0.0
 16
71.6142079109978624
 26
312.0055875433938013
 36
0.0
  0
LINE
  5
12D
100
AcDbEntity
100
AcDbLine
  8
0
 62
256
370
-1
  6
BYLAYER
 10
82.9166666666677514
 20
320.0000000000000568
 30
0.0
 11
82.9166666666677514
 21
300.0
 31
0.0
  0
DIMENSION
  5
12E
100
AcDbEntity
  8
0
 62
256
370
-1
  6
BYLAYER
100
AcDbDimension
 10
-0.0000000000000098
 20
-53.351692677872208
 30
0.0
 11
-60.0000000000000142
 21
-51.4766926778721938
 31
0.0
 70
1
 71
8
 72
2
 41
1.0
 42
0.0
  1

  3
Standard
100
AcDbAlignedDimension
 13
-0.0
 23
-0.0000000000000249
 33
0.0
 14
-120.0
 24
0.0
 34
0.0
1001
ACAD
1000
DSTYLE
1002
{
1070
144
1040
1
1002
}
  0
ARC
  5
12F
100
AcDbEntity
  8
0
 62
256
370
-1
  6
BYLAYER
100
AcDbCircle
 10
-102.9882516450010286
 20
-0.0000000000000026
 30
0.0
 40
16.0
100
AcDbArc
 50
99.5467669214038153
 51
260.4532330785962131
  0
ARC
  5
130
100
AcDbEntity
  8
0
 62
256
370
-1
  6
BYLAYER
100
AcDbCircle
 10
-36.4778149124480322
 20
63.8534058097488
 30
0.0
 40
90.0
100
AcDbArc
 50
260.4532330785961562
 51
287.5712587783223171
  0
ARC
  5
131
100
AcDbEntity
  8
0
 62
256
370
-1
  6
BYLAYER
100
AcDbCircle
 10
-36.4778149124480535
 20
-63.8534058097488
 30
0.0
 40
90.0
100
AcDbArc
 50
72.4287412216776971
 51
99.5467669214038438
  0
INSERT
  5
132
100
AcDbEntity
100
AcDbBlockReference
  8
0
 62
256
370
-1
  6
BYLAYER
  2
tuner
 10
-28.0
 20
15.0
 30
0.0
 41
1.0
 42
-1.0
 43
1.0
 50
360.0
  0
LINE
  5
133
100
AcDbEntity
100
AcDbLine
  8
0
 62
256
370
-1
  6
BYLAYER
 10
0.0000000000068867
 20
-1027.0
 30
0.0
 11
0.0000000000068915
 21
-949.0
 31
0.0
  0
LINE
  5
134
100
AcDbEntity
100
AcDbLine
  8
0
 62
256
370
-1
  6
BYLAYER
 10
-180.0
 20
-950.0
 30
0.0
 11
0.0
 21
-950.0
 31
0.0
  0
LINE
  5
135
100
AcDbEntity
100
AcDbLine
  8
0
 62
256
370
-1
  6
BYLAYER
 10
-179.9999999999931219
 20
-1027.0
 30
0.0
 11
0.0000000000068867
 21
-1027.0
 31
0.0
  0
LINE
  5
136
100
AcDbEntity
100
AcDbLine
  8
0
 62
256
370
-1
  6
BYLAYER
 10
-180.0
 20
-950.0
 30
0.0
 11
-179.9999999999931219
 21
-1027.0
 31
0.0
  0
DIMENSION
  5
137
100
AcDbEntity
  8
0
 62
256
370
-1
  6
BYLAYER
100
AcDbDimension
 10
8.8527494754994525
 20
-980.999990520898109
 30
0.0
 11
6.9777494754994507
 21
-1000.0000000000002274
 31
0.0
 70
1
 71
8
 72
2
 41
1.0
 42
0.0
  1

  3
Standard
100
AcDbAlignedDimension
 13
0.0000000000068884
 23
-980.999990520898109
 33
0.0
 14
0.0000000000068872
 24
-1019.0000094791024594
 34
0.0
1001
ACAD
1000
DSTYLE
1002
{
1070
144
1040
1
1002
}
  0
LINE
  5
138
100
AcDbEntity
100
AcDbLine
  8
frets
 62
256
370
-1
  6
BYLAYER
 10
-0.0000000000000015
 20
-25.0000000000000249
 30
0.0
 11
0.0000000000000015
 21
24.9999999999999751
 31
0.0
  0
SPLINE
  5
139
  8
frets
 62
256
370
-1
  6
BYLAYER
100
AcDbEntity
100
AcDbSpline
 70
8
 71
3
 72
120
 73
116
 74
0
 40
0.0
 40
0.0
 40
0.0
 40
0.0
 40
1.0
 40
2.0
 40
3.0
 40
4.0
 40
5.0
 40
6.0
 40
7.0
 40
8.0
 40
9.0
 40
10.0
 40
11.0
 40
12.0
 40
13.0
 40
14.0
 40
15.0
 40
16.0
 40
17.0
 40
18.0
 40
19.0
 40
20.0
 40
21.0
 40
22.0
 40
23.0
 40
24.0
 40
25.0
 40
26.0
 40
27.0
 40
28.0
 40
29.0
 40
30.0
 40
31.0
 40
32.0
 40
33.0
 40
34.0
 40
35.0
 40
36.0
 40
37.0
 40
38.0
 40
39.0
 40
40.0
 40
41.0
 40
42.0
 40
43.0
 40
44.0
 40
45.0
 40
46.0
 40
47.0
 40
48.0
 40
49.0
 40
50.0
 40
51.0
 40
52.0
 40
53.0
 40
54.0
 40
55.0
 40
56.0
 40
57.0
 40
58.0
 40
59.0
 40
60.0
 40
61.0
 40
62.0
 40
63.0
 40
64.0
 40
65.0
 40
66.0
 40
67.0
 40
68.0
 40
69.0
 40
70.0
 40
71.0
 40
72.0
 40
73.0
 40
74.0
 40
75.0
 40
76.0
 40
77.0
 40
78.0
 40
79.0
 40
80.0
 40
81.0
 40
82.0
 40
83.0
 40
84.0
 40
85.0
 40
86.0
 40
87.0
 40
88.0
 40
89.0
 40
90.0
 40
91.0
 40
92.0
 40
93.0
 40
94.0
 40
95.0
 40
96.0
 40
97.0
 40
98.0
 40
99.0
 40
100.0
 40
101.0
 40
102.0
 40
103.0
 40
104.0
 40
105.0
 40
106.0
 40
107.0
 40
108.0
 40
109.0
 40
110.0
 40
111.0
 40
112.0
 40
113.0
 40
113.0
 40
113.0
 40
113.0
 10
200.7367003711135283
 20
1.3324295701331057
 30
0.0
 10
200.2166659882319095
 20
2.5861203810572904
 30
0.0
 10
200.1804210292199286
 20
2.5797294168687976
 30
0.0
 10
199.8733892906773235
 20
2.413475862136389
 30
0.0
 10
198.4640375414470839
 20
1.7165068222643303
 30
0.0
 10
196.7540450178627509
 20
0.8170392686478731
 30
0.0
 10
195.1976126064655546
 20
0.3183670902823499
 30
0.0
 10
195.2750972909814777
 20
0.3923873685502368
 30
0.0
 10
195.3574035623329337
 20
0.4732935864466388
 30
0.0
 10
196.1443109889659411
 20
1.2846601809899696
 30
0.0
 10
196.2155183373529326
 20
2.2937988492333061
 30
0.0
 10
196.1090760057378759
 20
3.4273291625746083
 30
0.0
 10
196.0078120012270801
 20
3.4717600171233927
 30
0.0
 10
195.4251063031817637
 20
3.7738750804165129
 30
0.0
 10
195.41802981125889
 20
3.9906298114769281
 30
0.0
 10
195.4359791247418059
 20
5.3018098048202864
 30
0.0
 10
195.3561658105788013
 20
6.2843194556115876
 30
0.0
 10
195.3259616780687793
 20
6.2789936521211782
 30
0.0
 10
194.7538338488112117
 20
5.9912527872530248
 30
0.0
 10
194.7538338488112117
 20
5.9912527872530248
 30
0.0
 10
193.8070016104064734
 20
6.9454564703529336
 30
0.0
 10
193.8070016104064734
 20
6.9454564703529336
 30
0.0
 10
192.9469117017014526
 20
5.6415004453185844
 30
0.0
 10
192.5506828640134245
 20
5.4159185339028841
 30
0.0
 10
191.8559878162833741
 20
5.2934250536235208
 30
0.0
 10
190.4134871623054153
 20
6.4093747444473461
 30
0.0
 10
189.3671416078222762
 20
7.2214586835455918
 30
0.0
 10
189.16811497566556
 20
6.9372191955423261
 30
0.0
 10
189.283531964022103
 20
6.4592788788727127
 30
0.0
 10
189.3367899989260934
 20
6.1572375537726831
 30
0.0
 10
189.1537407772405572
 20
5.7823856682393853
 30
0.0
 10
188.9067819136701587
 20
5.769983372826144
 30
0.0
 10
188.379158677154436
 20
6.1129541756100734
 30
0.0
 10
188.178381356565211
 20
6.0152652861572173
 30
0.0
 10
187.4001504032280252
 20
5.660039664346197
 30
0.0
 10
186.6024406625546987
 20
5.7685276371660414
 30
0.0
 10
185.9699783064701535
 20
5.9995828284583448
 30
0.0
 10
185.6146789464660856
 20
6.248366118654296
 30
0.0
 10
185.5222421223105584
 20
5.8894916435922227
 30
0.0
 10
185.440456905135818
 20
5.4702089035101693
 30
0.0
 10
186.03198978353646
 20
4.7647885106062109
 30
0.0
 10
186.5169328539358276
 20
4.1340031047610282
 30
0.0
 10
186.4191702262898787
 20
3.8053327622089692
 30
0.0
 10
186.424496029780272
 20
3.7751286296989757
 30
0.0
 10
187.0853380917492927
 20
3.2065021773062519
 30
0.0
 10
187.8224920910164428
 20
2.0284672712230702
 30
0.0
 10
187.8437215667849784
 20
1.3782030780418091
 30
0.0
 10
187.1774062249394035
 20
0.9181383366619997
 30
0.0
 10
186.409900616776099
 20
1.0319521129722475
 30
0.0
 10
185.2692938115119148
 20
1.1422645124176147
 30
0.0
 10
184.754072870409459
 20
1.2382764516311171
 30
0.0
 10
184.7451719518610389
 20
1.1121341181007005
 30
0.0
 10
184.7344466066871576
 20
0.6430947199794526
 30
0.0
 10
184.3061154716705516
 20
-0.4601577226587796
 30
0.0
 10
183.3643878221769796
 20
-1.1245011614926597
 30
0.0
 10
181.7919485050313142
 20
-1.7443400075846602
 30
0.0
 10
181.887886706051745
 20
-1.7585667296234508
 30
0.0
 10
183.0870036115172752
 20
-2.7305722498201108
 30
0.0
 10
183.9859773567014258
 20
-2.883491077188713
 30
0.0
 10
184.9347077599247484
 20
-2.9653500325565227
 30
0.0
 10
185.5263143765184566
 20
-3.1413227623192244
 30
0.0
 10
185.6062014288745559
 20
-3.5943847499692527
 30
0.0
 10
185.5261669001322957
 20
-4.2002180886017531
 30
0.0
 10
185.4603590934287922
 20
-4.710113226213827
 30
0.0
 10
185.4603590934287922
 20
-4.710113226213827
 30
0.0
 10
186.3238766408056222
 20
-4.3087060614215948
 30
0.0
 10
187.1056827092008064
 20
-3.7971339735701655
 30
0.0
 10
187.5569940084184282
 20
-3.5306963226636379
 30
0.0
 10
187.9602993380292446
 20
-3.5218691423083492
 30
0.0
 10
188.1112462623861745
 20
-4.0246877879975651
 30
0.0
 10
187.553271416974269
 20
-4.7459381149865711
 30
0.0
 10
187.4323811487411717
 20
-5.2966889920894715
 30
0.0
 10
187.6721897821956873
 20
-5.5969796287570466
 30
0.0
 10
187.8728933645917607
 20
-6.028738402445466
 30
0.0
 10
187.1958526775723044
 20
-6.9578425419464978
 30
0.0
 10
186.6076736996503769
 20
-7.6844186724259114
 30
0.0
 10
186.3624655245124018
 20
-7.8833715663895996
 30
0.0
 10
186.3624655245124018
 20
-7.8833715663895996
 30
0.0
 10
187.044684538636119
 20
-8.0433668856810616
 30
0.0
 10
187.8601961164062004
 20
-7.8995701914400698
 30
0.0
 10
188.7094869417442169
 20
-7.5941012276682613
 30
0.0
 10
189.4521879590810158
 20
-7.2139972768376559
 30
0.0
 10
189.9337033908085743
 20
-6.9422338224407225
 30
0.0
 10
190.4471736434786351
 20
-6.851695163103801
 30
0.0
 10
190.8184504139539683
 20
-7.1910908508297489
 30
0.0
 10
190.8005748386641471
 20
-7.9728231810318588
 30
0.0
 10
190.9213913687041213
 20
-7.9515199670702312
 30
0.0
 10
191.4526634584709655
 20
-7.6086966406724734
 30
0.0
 10
192.0976755863548533
 20
-7.0278153692526582
 30
0.0
 10
192.4904767853711007
 20
-5.8996845975948382
 30
0.0
 10
193.1106105842354452
 20
-5.3543332621754427
 30
0.0
 10
193.5512702764722235
 20
-5.0274873462489325
 30
0.0
 10
194.1855570591822584
 20
-4.9156454729503816
 30
0.0
 10
195.1502648728767895
 20
-5.0881168258481857
 30
0.0
 10
195.7275710292386748
 20
-5.8894754197725474
 30
0.0
 10
196.0419409115588394
 20
-6.6126239115801759
 30
0.0
 10
196.0419409115588394
 20
-6.6126239115801759
 30
0.0
 10
196.3760107957944001
 20
-6.2111430085948447
 30
0.0
 10
196.6568226451258852
 20
-5.5076207805095105
 30
0.0
 10
196.7422567155516617
 20
-4.4025439112457709
 30
0.0
 10
196.9164050186888062
 20
-4.1538343592428966
 30
0.0
 10
197.1580380787688398
 20
-4.1112279313196387
 30
0.0
 10
197.6537064943421456
 20
-4.2729739390435508
 30
0.0
 10
197.6537064943421456
 20
-4.2729739390435508
 30
0.0
 10
196.8277645241705329
 20
-2.7680193788407639
 30
0.0
 10
196.6839678299295144
 20
-1.9525078010706822
 30
0.0
 10
196.8296626889891456
 20
-1.8956746511086597
 30
0.0
 10
197.3502094335819947
 20
-2.0218907228321505
 30
0.0
 10
197.1654832616571298
 20
-1.6807443466737508
 30
0.0
 10
196.4726863787456921
 20
-0.9308930992210098
 30
0.0
 10
195.392561576694618
 20
-0.2804814296535743
 30
0.0
 10
195.392561576694618
 20
-0.2804814296535743
 30
0.0
 10
196.3537680135242738
 20
-0.0798515854505326
 30
0.0
 10
200.2028413053805025
 20
1.0659921170177373
 30
0.0
 10
200.6843818435797573
 20
1.2930762095866464
 30
0.0
 10
200.6843818435797573
 20
1.2930762095866464
 30
0.0
  0
SPLINE
  5
13A
  8
frets
 62
256
370
-1
  6
BYLAYER
100
AcDbEntity
100
AcDbSpline
 70
8
 71
3
 72
146
 73
142
 74
0
 40
0.0
 40
0.0
 40
0.0
 40
0.0
 40
1.0
 40
2.0
 40
3.0
 40
4.0
 40
5.0
 40
6.0
 40
7.0
 40
8.0
 40
9.0
 40
10.0
 40
11.0
 40
12.0
 40
13.0
 40
14.0
 40
15.0
 40
16.0
 40
17.0
 40
18.0
 40
19.0
 40
20.0
 40
21.0
 40
22.0
 40
23.0
 40
24.0
 40
25.0
 40
26.0
 40
27.0
 40
28.0
 40
29.0
 40
30.0
 40
31.0
 40
32.0
 40
33.0
 40
34.0
 40
35.0
 40
36.0
 40
37.0
 40
38.0
 40
39.0
 40
40.0
 40
41.0
 40
42.0
 40
43.0
 40
44.0
 40
45.0
 40
46.0
 40
47.0
 40
48.0
 40
49.0
 40
50.0
 40
51.0
 40
52.0
 40
53.0
 40
54.0
 40
55.0
 40
56.0
 40
57.0
 40
58.0
 40
59.0
 40
60.0
 40
61.0
 40
62.0
 40
63.0
 40
64.0
 40
65.0
 40
66.0
 40
67.0
 40
68.0
 40
69.0
 40
70.0
 40
71.0
 40
72.0
 40
73.0
 40
74.0
 40
75.0
 40
76.0
 40
77.0
 40
78.0
 40
79.0
 40
80.0
 40
81.0
 40
82.0
 40
83.0
 40
84.0
 40
85.0
 40
86.0
 40
87.0
 40
88.0
 40
89.0
 40
90.0
 40
91.0
 40
92.0
 40
93.0
 40
94.0
 40
95.0
 40
96.0
 40
97.0
 40
98.0
 40
99.0
 40
100.0
 40
101.0
 40
102.0
 40
103.0
 40
104.0
 40
105.0
 40
106.0
 40
107.0
 40
108.0
 40
109.0
 40
110.0
 40
111.0
 40
112.0
 40
113.0
 40
114.0
 40
115.0
 40
116.0
 40
117.0
 40
118.0
 40
119.0
 40
120.0
 40
121.0
 40
122.0
 40
123.0
 40
124.0
 40
125.0
 40
126.0
 40
127.0
 40
128.0
 40
129.0
 40
130.0
 40
131.0
 40
132.0
 40
133.0
 40
134.0
 40
135.0
 40
136.0
 40
137.0
 40
138.0
 40
139.0
 40
139.0
 40
139.0
 40
139.0
 10
149.856587361795107
 20
-5.142089702842858
 30
0.0
 10
147.9477134909869278
 20
-3.0068727759008325
 30
0.0
 10
146.7124119989026667
 20
-1.8452023708851391
 30
0.0
 10
145.3248061242459812
 20
-1.5299088979893836
 30
0.0
 10
145.3097852691198284
 20
-1.2970022252236082
 30
0.0
 10
145.9591065746635365
 20
-0.6254609583652805
 30
0.0
 10
145.9752892969771381
 20
-0.597431661113393
 30
0.0
 10
146.8026205479702924
 20
0.3824318755159145
 30
0.0
 10
147.8258455583521993
 20
0.2775137926967242
 30
0.0
 10
147.8258455583521993
 20
0.2775137926967242
 30
0.0
 10
147.5348678780822809
 20
0.7444890054157767
 30
0.0
 10
148.1217820287465656
 20
1.8257850233018105
 30
0.0
 10
148.7852736436035457
 20
2.9749862106300156
 30
0.0
 10
148.5116405528346775
 20
3.7309266906186314
 30
0.0
 10
148.1729652514368638
 20
3.4032474183462802
 30
0.0
 10
147.3965059017593831
 20
3.0293437135080739
 30
0.0
 10
146.9760664429807662
 20
3.272084548211843
 30
0.0
 10
147.0032451944198328
 20
3.9664684191339288
 30
0.0
 10
147.1705704321183816
 20
4.5799386784880909
 30
0.0
 10
147.2549696452487069
 20
5.5028930748007099
 30
0.0
 10
147.0507149124840112
 20
7.4146946238677067
 30
0.0
 10
146.9397595906638685
 20
7.7403614831397558
 30
0.0
 10
146.9397595906638685
 20
7.7403614831397558
 30
0.0
 10
146.4727843779448335
 20
7.4493838028698089
 30
0.0
 10
146.037012742665496
 20
6.9535287470859917
 30
0.0
 10
145.8191269250258415
 20
6.7056012191941043
 30
0.0
 10
145.7263667385196015
 20
6.6096667525000559
 30
0.0
 10
144.9825841548438916
 20
7.2633242054190337
 30
0.0
 10
144.9825841548438916
 20
7.2633242054190337
 30
0.0
 10
145.0513398700989001
 20
6.4761801479907213
 30
0.0
 10
144.8733299246494823
 20
6.1678578782197331
 30
0.0
 10
144.0324510070922486
 20
6.6533395476272776
 30
0.0
 10
142.9029181436400222
 20
8.1276683697892071
 30
0.0
 10
142.7327299471282345
 20
8.674395326888714
 30
0.0
 10
141.9692790395765769
 20
8.5172155725027014
 30
0.0
 10
141.3170947752196867
 20
9.0058715220980474
 30
0.0
 10
140.9085018913793874
 20
9.2044003372363026
 30
0.0
 10
139.9910455096294868
 20
9.621976837201732
 30
0.0
 10
139.4596507290306988
 20
10.1903845311775125
 30
0.0
 10
139.7341343656124764
 20
8.723877457953229
 30
0.0
 10
139.7456696191762262
 20
7.7081628751343754
 30
0.0
 10
139.368280312775596
 20
7.7018143147588027
 30
0.0
 10
139.368280312775596
 20
7.7018143147588027
 30
0.0
 10
139.4910822095342269
 20
7.3319354359212134
 30
0.0
 10
139.0304555571906917
 20
6.6635684492507625
 30
0.0
 10
138.5883353615357407
 20
6.5451026998675239
 30
0.0
 10
138.0546168465620838
 20
6.5916384538079633
 30
0.0
 10
137.7462945767910867
 20
6.769648399257397
 30
0.0
 10
137.7462945767910867
 20
6.769648399257397
 30
0.0
 10
138.771220678798727
 20
5.2435971299669024
 30
0.0
 10
139.2474074107065292
 20
3.9969882873825928
 30
0.0
 10
138.4333959232137659
 20
4.20535126445888
 30
0.0
 10
137.8254236784223394
 20
4.7058537889925294
 30
0.0
 10
136.6201638965903271
 20
5.4017108484766787
 30
0.0
 10
135.5550506010178822
 20
6.0166542963928933
 30
0.0
 10
135.053697530671343
 20
6.1192486448371159
 30
0.0
 10
134.8973683220982309
 20
6.1721329591531475
 30
0.0
 10
134.8973683220982309
 20
6.1721329591531475
 30
0.0
 10
135.0837392409235633
 20
5.6534352993055617
 30
0.0
 10
134.9045674282866969
 20
5.0841770595168754
 30
0.0
 10
134.6337972963310108
 20
4.6799203230518795
 30
0.0
 10
133.9188945557201009
 20
4.6068284604216032
 30
0.0
 10
134.0567173076046856
 20
4.0040429088182812
 30
0.0
 10
133.6232694067003024
 20
4.0300597930698583
 30
0.0
 10
133.6232694067003024
 20
4.0300597930698583
 30
0.0
 10
132.5546705095653977
 20
3.8621953309330075
 30
0.0
 10
129.233582348965399
 20
3.6120274869770963
 30
0.0
 10
129.233582348965399
 20
3.6120274869770963
 30
0.0
 10
130.7448406661934541
 20
2.216288542008154
 30
0.0
 10
130.9075184351422081
 20
1.7860149212915533
 30
0.0
 10
131.2039941299748591
 20
1.6522169954076256
 30
0.0
 10
132.3240041528636652
 20
0.7439721328465437
 30
0.0
 10
132.6149818331336121
 20
0.2769969201275191
 30
0.0
 10
132.5285702070029288
 20
-0.1963268529671249
 30
0.0
 10
132.3181948169263364
 20
-0.5607077172418934
 30
0.0
 10
132.029229549656776
 20
-0.5433631277408418
 30
0.0
 10
132.029229549656776
 20
-0.5433631277408418
 30
0.0
 10
132.5219103252527475
 20
-0.7904401098198884
 30
0.0
 10
132.460353716186205
 20
-1.0912519520278146
 30
0.0
 10
132.1118442528504033
 20
-1.8243498279526631
 30
0.0
 10
131.6330224651930507
 20
-2.0711154886570906
 30
0.0
 10
131.6006570205658761
 20
-2.1271740831609045
 30
0.0
 10
133.113388526356033
 20
-2.2904744948588074
 30
0.0
 10
136.330720471324355
 20
-2.8025956912670997
 30
0.0
 10
136.2659895820700058
 20
-2.9147128802747253
 30
0.0
 10
135.5649458293977148
 20
-3.4816473856884773
 30
0.0
 10
135.0182188722982346
 20
-3.6518355822002611
 30
0.0
 10
134.294643836936757
 20
-3.8694100784653322
 30
0.0
 10
134.2934819697493083
 20
-4.1303460484830019
 30
0.0
 10
134.4506617241353013
 20
-4.8937969560347021
 30
0.0
 10
133.9995579123552716
 20
-6.1282479023060841
 30
0.0
 10
133.1572058062359929
 20
-6.8752047661695794
 30
0.0
 10
132.310828874116055
 20
-6.7229003835971373
 30
0.0
 10
132.310828874116055
 20
-6.7229003835971373
 30
0.0
 10
133.0147355856015281
 20
-7.3161630946370266
 30
0.0
 10
133.6033508278916031
 20
-7.6560002632223032
 30
0.0
 10
134.2448503844976813
 20
-7.8395082232344802
 30
0.0
 10
135.1484477783088778
 20
-7.7632420804163917
 30
0.0
 10
135.7856111875396721
 20
-8.0189913572459641
 30
0.0
 10
135.7856111875396721
 20
-8.0189913572459641
 30
0.0
 10
136.1294731821255937
 20
-8.3296373613918551
 30
0.0
 10
136.2566112262593663
 20
-8.6272749234119708
 30
0.0
 10
136.2392666367583445
 20
-8.9162401906815596
 30
0.0
 10
136.2392666367583445
 20
-8.9162401906815596
 30
0.0
 10
136.7914916084205288
 20
-8.4128747073347103
 30
0.0
 10
137.5829718132241339
 20
-8.2718776752623171
 30
0.0
 10
138.5027519293489036
 20
-8.1675822351923397
 30
0.0
 10
139.1927996528957578
 20
-8.267002303448777
 30
0.0
 10
139.3404565667183306
 20
-8.4643692513995781
 30
0.0
 10
139.1462638989553113
 20
-8.8007208184224535
 30
0.0
 10
138.8324436146216101
 20
-8.9558881598081186
 30
0.0
 10
138.676114406048498
 20
-8.9030038454921154
 30
0.0
 10
138.676114406048498
 20
-8.9030038454921154
 30
0.0
 10
139.1924883315211616
 20
-9.2385048667021152
 30
0.0
 10
139.5557073286084915
 20
-9.7098162267964145
 30
0.0
 10
139.4736318498531205
 20
-10.1108986830736356
 30
0.0
 10
139.43894267085102
 20
-10.6888292176128434
 30
0.0
 10
139.4117639194119818
 20
-11.3832130885348999
 30
0.0
 10
139.4117639194119818
 20
-11.3832130885348999
 30
0.0
 10
140.3179963689727003
 20
-9.8135724424281037
 30
0.0
 10
141.4527993439239424
 20
-8.3011522580125927
 30
0.0
 10
142.0555848955272609
 20
-8.163329506127976
 30
0.0
 10
142.6572085799431022
 20
-8.2864427242610663
 30
0.0
 10
143.004244854716859
 20
-8.7857833816072546
 30
0.0
 10
143.0753243043467648
 20
-9.0510554990002046
 30
0.0
 10
143.2825254142355789
 20
-8.4979799815251322
 30
0.0
 10
143.8781118596504314
 20
-7.2722013300042736
 30
0.0
 10
144.013071652721834
 20
-6.7147896651539245
 30
0.0
 10
144.4973914549418907
 20
-6.1348467176143995
 30
0.0
 10
144.7346342750829535
 20
-6.0475845456708814
 30
0.0
 10
144.7346342750829535
 20
-6.0475845456708814
 30
0.0
 10
144.2821406930517867
 20
-4.8893997422175559
 30
0.0
 10
144.9704873249728507
 20
-3.5676866240026635
 30
0.0
 10
145.059529326783462
 20
-2.2186507319929349
 30
0.0
 10
145.7843519100359799
 20
-2.8399272319236637
 30
0.0
 10
147.1354989216623039
 20
-3.7584900255037028
 30
0.0
 10
147.786360016827814
 20
-4.705197073017195
 30
0.0
 10
148.9993284214544929
 20
-6.1992191323744237
 30
0.0
 10
148.9993284214544929
 20
-6.1992191323744237
 30
0.0
 10
149.1620436952458704
 20
-6.3619344061658056
 30
0.0
 10
149.856587361795107
 20
-5.142089702842858
 30
0.0
 10
149.856587361795107
 20
-5.142089702842858
 30
0.0
  0
LINE
  5
13B
100
AcDbEntity
100
AcDbLine
  8
frets
 62
256
370
-1
  6
BYLAYER
 10
34.2370000000000019
 20
-25.0
 30
0.0
 11
34.2370000000000019
 21
25.0
 31
0.0
  0
LINE
  5
13C
100
AcDbEntity
100
AcDbLine
  8
frets
 62
256
370
-1
  6
BYLAYER
 10
66.5520000000000067
 20
-25.0
 30
0.0
 11
66.5520000000000067
 21
25.0
 31
0.0
  0
LINE
  5
13D
100
AcDbEntity
100
AcDbLine
  8
frets
 62
256
370
-1
  6
BYLAYER
 10
97.0529999999999973
 20
-25.0
 30
0.0
 11
97.0529999999999973
 21
25.0
 31
0.0
  0
LINE
  5
13E
100
AcDbEntity
100
AcDbLine
  8
frets
 62
256
370
-1
  6
BYLAYER
 10
125.8430000000000035
 20
-25.0
 30
0.0
 11
125.8430000000000035
 21
25.0
 31
0.0
  0
LINE
  5
13F
100
AcDbEntity
100
AcDbLine
  8
frets
 62
256
370
-1
  6
BYLAYER
 10
153.0159999999999911
 20
-25.0
 30
0.0
 11
153.0159999999999911
 21
25.0
 31
0.0
  0
LINE
  5
140
100
AcDbEntity
100
AcDbLine
  8
frets
 62
256
370
-1
  6
BYLAYER
 10
178.664999999999992
 20
-25.0
 30
0.0
 11
178.664999999999992
 21
25.0
 31
0.0
  0
LINE
  5
141
100
AcDbEntity
100
AcDbLine
  8
frets
 62
256
370
-1
  6
BYLAYER
 10
202.8739999999999952
 20
-25.0
 30
0.0
 11
202.8739999999999952
 21
25.0
 31
0.0
  0
LINE
  5
142
100
AcDbEntity
100
AcDbLine
  8
frets
 62
256
370
-1
  6
BYLAYER
 10
225.7239999999999895
 20
-25.0
 30
0.0
 11
225.7239999999999895
 21
25.0
 31
0.0
  0
LINE
  5
143
100
AcDbEntity
100
AcDbLine
  8
frets
 62
256
370
-1
  6
BYLAYER
 10
247.2920000000000016
 20
-25.0
 30
0.0
 11
247.2920000000000016
 21
25.0
 31
0.0
  0
LINE
  5
144
100
AcDbEntity
100
AcDbLine
  8
frets
 62
256
370
-1
  6
BYLAYER
 10
267.6490000000000009
 20
-25.0
 30
0.0
 11
267.6490000000000009
 21
25.0
 31
0.0
  0
LINE
  5
145
100
AcDbEntity
100
AcDbLine
  8
frets
 62
256
370
-1
  6
BYLAYER
 10
286.8639999999999759
 20
-25.0
 30
0.0
 11
286.8639999999999759
 21
25.0
 31
0.0
  0
LINE
  5
146
100
AcDbEntity
100
AcDbLine
  8
frets
 62
256
370
-1
  6
BYLAYER
 10
305.0
 20
-25.0
 30
0.0
 11
305.0
 21
25.0
 31
0.0
  0
LINE
  5
147
100
AcDbEntity
100
AcDbLine
  8
frets
 62
256
370
-1
  6
BYLAYER
 10
322.117999999999995
 20
-25.0
 30
0.0
 11
322.117999999999995
 21
25.0
 31
0.0
  0
LINE
  5
148
100
AcDbEntity
100
AcDbLine
  8
frets
 62
256
370
-1
  6
BYLAYER
 10
338.2760000000000105
 20
-25.0
 30
0.0
 11
338.2760000000000105
 21
25.0
 31
0.0
  0
LINE
  5
149
100
AcDbEntity
100
AcDbLine
  8
frets
 62
256
370
-1
  6
BYLAYER
 10
353.5269999999999868
 20
-25.0
 30
0.0
 11
353.5269999999999868
 21
25.0
 31
0.0
  0
LINE
  5
14A
100
AcDbEntity
100
AcDbLine
  8
frets
 62
256
370
-1
  6
BYLAYER
 10
367.9209999999999923
 20
-25.0
 30
0.0
 11
367.9209999999999923
 21
25.0
 31
0.0
  0
LINE
  5
14B
100
AcDbEntity
100
AcDbLine
  8
frets
 62
256
370
-1
  6
BYLAYER
 10
381.5079999999999814
 20
-25.0
 30
0.0
 11
381.5079999999999814
 21
25.0
 31
0.0
  0
LINE
  5
14C
100
AcDbEntity
100
AcDbLine
  8
frets
 62
256
370
-1
  6
BYLAYER
 10
394.3319999999999936
 20
-25.0
 30
0.0
 11
394.3319999999999936
 21
25.0
 31
0.0
  0
LINE
  5
14D
100
AcDbEntity
100
AcDbLine
  8
frets
 62
256
370
-1
  6
BYLAYER
 10
406.4370000000000118
 20
-25.0
 30
0.0
 11
406.4370000000000118
 21
25.0
 31
0.0
  0
LINE
  5
14E
100
AcDbEntity
100
AcDbLine
  8
frets
 62
256
370
-1
  6
BYLAYER
 10
0.0000000000000015
 20
24.9999999999999751
 30
0.0
 11
406.4370000000000118
 21
25.0
 31
0.0
  0
LINE
  5
14F
100
AcDbEntity
100
AcDbLine
  8
frets
 62
256
370
-1
  6
BYLAYER
 10
406.4370000000000118
 20
-25.0
 30
0.0
 11
-0.0000000000000015
 21
-25.0000000000000249
 31
0.0
  0
SPLINE
  5
150
  8
frets
 62
256
370
-1
  6
BYLAYER
100
AcDbEntity
100
AcDbSpline
 70
8
 71
3
 72
120
 73
116
 74
0
 40
0.0
 40
0.0
 40
0.0
 40
0.0
 40
1.0
 40
2.0
 40
3.0
 40
4.0
 40
5.0
 40
6.0
 40
7.0
 40
8.0
 40
9.0
 40
10.0
 40
11.0
 40
12.0
 40
13.0
 40
14.0
 40
15.0
 40
16.0
 40
17.0
 40
18.0
 40
19.0
 40
20.0
 40
21.0
 40
22.0
 40
23.0
 40
24.0
 40
25.0
 40
26.0
 40
27.0
 40
28.0
 40
29.0
 40
30.0
 40
31.0
 40
32.0
 40
33.0
 40
34.0
 40
35.0
 40
36.0
 40
37.0
 40
38.0
 40
39.0
 40
40.0
 40
41.0
 40
42.0
 40
43.0
 40
44.0
 40
45.0
 40
46.0
 40
47.0
 40
48.0
 40
49.0
 40
50.0
 40
51.0
 40
52.0
 40
53.0
 40
54.0
 40
55.0
 40
56.0
 40
57.0
 40
58.0
 40
59.0
 40
60.0
 40
61.0
 40
62.0
 40
63.0
 40
64.0
 40
65.0
 40
66.0
 40
67.0
 40
68.0
 40
69.0
 40
70.0
 40
71.0
 40
72.0
 40
73.0
 40
74.0
 40
75.0
 40
76.0
 40
77.0
 40
78.0
 40
79.0
 40
80.0
 40
81.0
 40
82.0
 40
83.0
 40
84.0
 40
85.0
 40
86.0
 40
87.0
 40
88.0
 40
89.0
 40
90.0
 40
91.0
 40
92.0
 40
93.0
 40
94.0
 40
95.0
 40
96.0
 40
97.0
 40
98.0
 40
99.0
 40
100.0
 40
101.0
 40
102.0
 40
103.0
 40
104.0
 40
105.0
 40
106.0
 40
107.0
 40
108.0
 40
109.0
 40
110.0
 40
111.0
 40
112.0
 40
113.0
 40
113.0
 40
113.0
 40
113.0
 10
300.9875542717745134
 20
-4.7480536032816243
 30
0.0
 10
300.2981409009719869
 20
-4.2195986277228172
 30
0.0
 10
300.2800970141436778
 20
-4.2347392465054714
 30
0.0
 10
300.1631238890365694
 20
-4.4251364760344698
 30
0.0
 10
299.6050119544667609
 20
-5.2624284880636321
 30
0.0
 10
298.9450675135724964
 20
-6.3081616164501062
 30
0.0
 10
298.241980205821676
 20
-7.0826121638572399
 30
0.0
 10
298.2612400881007488
 20
-7.0167908623320292
 30
0.0
 10
298.280968864377769
 20
-6.9456100778852452
 30
0.0
 10
298.4574799201340625
 20
-6.2440946884624555
 30
0.0
 10
298.1740226647853547
 20
-5.6619869144890433
 30
0.0
 10
297.7522966360573946
 20
-5.0677821903253752
 30
0.0
 10
297.681952554348868
 20
-5.0755605925680944
 30
0.0
 10
297.2623074541352821
 20
-5.0945772513488157
 30
0.0
 10
297.1890237502599916
 20
-4.9767040625313319
 30
0.0
 10
296.7793946717224571
 20
-4.2442305649884462
 30
0.0
 10
296.4207545545889388
 20
-3.7252087026094935
 30
0.0
 10
296.4057179822319767
 20
-3.7378258849283892
 30
0.0
 10
296.1806896290063378
 20
-4.0803889654477654
 30
0.0
 10
296.1806896290063378
 20
-4.0803889654477654
 30
0.0
 10
295.3505567566028276
 20
-3.8545019185697686
 30
0.0
 10
295.3505567566028276
 20
-3.8545019185697686
 30
0.0
 10
295.2911124699083985
 20
-4.8524564769378289
 30
0.0
 10
295.1436863685055414
 20
-5.1042798911869545
 30
0.0
 10
294.7978452042958111
 20
-5.3944750845212752
 30
0.0
 10
293.6412262879869672
 20
-5.2375531935710029
 30
0.0
 10
292.8014158554311734
 20
-5.1222811653963642
 30
0.0
 10
292.7820607351267199
 20
-5.3435112028029854
 30
0.0
 10
292.9989722245858275
 20
-5.5714791781952346
 30
0.0
 10
293.1251440477745973
 20
-5.7218449017647703
 30
0.0
 10
293.1436404744267747
 20
-5.9881846562422565
 30
0.0
 10
293.0107307132523147
 20
-6.0740855424363822
 30
0.0
 10
292.608541575433776
 20
-6.0528312642223714
 30
0.0
 10
292.5285199335728521
 20
-6.1712246851684913
 30
0.0
 10
292.210852756167526
 20
-6.6171446142769845
 30
0.0
 10
291.7340009886927987
 20
-6.8122815933935135
 30
0.0
 10
291.3095171084029857
 20
-6.8866057615259511
 30
0.0
 10
291.0329795616447086
 20
-6.8624118611452847
 30
0.0
 10
291.0965857053677155
 20
-7.0909000686661496
 30
0.0
 10
291.1854262137284763
 20
-7.3494614209008748
 30
0.0
 10
291.7390215393737094
 20
-7.5511545673982319
 30
0.0
 10
292.2096556009913684
 20
-7.7455895437814188
 30
0.0
 10
292.2606445623954983
 20
-7.9590411789452986
 30
0.0
 10
292.2732617447143753
 20
-7.9740777513022749
 30
0.0
 10
292.8214980581549298
 20
-8.0777730614151526
 30
0.0
 10
293.6070414456161757
 20
-8.4948170009859023
 30
0.0
 10
293.8268925572419334
 20
-8.8484365674384193
 30
0.0
 10
293.6048038261829447
 20
-9.3166512390180962
 30
0.0
 10
293.1429886310651227
 20
-9.4991710358157366
 30
0.0
 10
292.4755002030261153
 20
-9.8030238757261561
 30
0.0
 10
292.1592119514016872
 20
-9.9146793586866124
 30
0.0
 10
292.194644108320233
 20
-9.9874428304333076
 30
0.0
 10
292.3387921260326721
 20
-10.2508429627441817
 30
0.0
 10
292.4544276954169959
 20
-10.9993934969011082
 30
0.0
 10
292.1450591523829416
 20
-11.6689628534543512
 30
0.0
 10
291.4718732506155447
 20
-12.5156929946005615
 30
0.0
 10
291.5296001500052512
 20
-12.4928780200008287
 30
0.0
 10
292.5052599659020984
 20
-12.6479007530416414
 30
0.0
 10
293.0524558150854659
 20
-12.4449853716823231
 30
0.0
 10
293.6044904443449468
 20
-12.1867624809713551
 30
0.0
 10
293.9887033876399869
 20
-12.0949823504439689
 30
0.0
 10
294.1779611224232553
 20
-12.3205309357981658
 30
0.0
 10
294.3274681523404297
 20
-12.6819289044934713
 30
0.0
 10
294.4541602076578215
 20
-12.9855999737990526
 30
0.0
 10
294.4541602076578215
 20
-12.9855999737990526
 30
0.0
 10
294.8043199198151569
 20
-12.4867919253769362
 30
0.0
 10
295.0739377579830034
 20
-11.9530719521648034
 30
0.0
 10
295.2388198217809077
 20
-11.6609776009209387
 30
0.0
 10
295.4595296270589984
 20
-11.5270273754893271
 30
0.0
 10
295.704094871193945
 20
-11.7574147409196375
 30
0.0
 10
295.6256339257187733
 20
-12.3357241990740771
 30
0.0
 10
295.7348700186411747
 20
-12.6796662053743727
 30
0.0
 10
295.963878458290651
 20
-12.7693654073874701
 30
0.0
 10
296.2132824825016542
 20
-12.9444452634661626
 30
0.0
 10
296.1353417691551613
 20
-13.676060067356639
 30
0.0
 10
296.0418442513229706
 20
-14.2669867078299735
 30
0.0
 10
295.9696010117049241
 20
-14.4557242104846484
 30
0.0
 10
295.9696010117049241
 20
-14.4557242104846484
 30
0.0
 10
296.3989236720707368
 20
-14.3260925330006028
 30
0.0
 10
296.8049111257083155
 20
-13.9854286103907111
 30
0.0
 10
297.1778858124653766
 20
-13.5443474613583152
 30
0.0
 10
297.4678992351949773
 20
-13.0960081422117103
 30
0.0
 10
297.6478178713496732
 20
-12.7912966086490396
 30
0.0
 10
297.9034396014178583
 20
-12.5768045092279568
 30
0.0
 10
298.2178286951328232
 20
-12.6461081266794135
 30
0.0
 10
298.4580753913202216
 20
-13.0851083471975276
 30
0.0
 10
298.5182216807480131
 20
-13.0346396179219877
 30
0.0
 10
298.7029790969788792
 20
-12.6746205750075998
 30
0.0
 10
298.8745990987623031
 20
-12.1462596140001775
 30
0.0
 10
298.7313097747022539
 20
-11.3952896898051375
 30
0.0
 10
298.9005103864477064
 20
-10.8945824834735117
 30
0.0
 10
299.040158085607743
 20
-10.5724149875158115
 30
0.0
 10
299.355926105103606
 20
-10.3074541588192456
 30
0.0
 10
299.9458122813197747
 20
-10.0943409851790982
 30
0.0
 10
300.5222225815646766
 20
-10.3537610310661652
 30
0.0
 10
300.9278715736785443
 20
-10.6539722460765223
 30
0.0
 10
300.9278715736785443
 20
-10.6539722460765223
 30
0.0
 10
300.9845580088111205
 20
-10.3245465800046006
 30
0.0
 10
300.9150726207548132
 20
-9.8447551903632213
 30
0.0
 10
300.6088003908063229
 20
-9.2049205170001276
 30
0.0
 10
300.625736121072805
 20
-9.0113442342692789
 30
0.0
 10
300.7460286999283881
 20
-8.9104067757182008
 30
0.0
 10
301.0725147438336649
 20
-8.8414416197905048
 30
0.0
 10
301.0725147438336649
 20
-8.8414416197905048
 30
0.0
 10
300.1331457785077532
 20
-8.2716125666122267
 30
0.0
 10
299.7924818558978473
 20
-7.8656251129746391
 30
0.0
 10
299.8550475353636671
 20
-7.787502629023292
 30
0.0
 10
300.183952969307029
 20
-7.6908837184197818
 30
0.0
 10
299.9724004920525999
 20
-7.5609135794119329
 30
0.0
 10
299.3484610846988403
 20
-7.3669988351573288
 30
0.0
 10
298.5416634190235641
 20
-7.3521440334051942
 30
0.0
 10
298.5416634190235641
 20
-7.3521440334051942
 30
0.0
 10
299.0102165521269058
 20
-6.9333576268439687
 30
0.0
 10
300.7769195284735702
 20
-5.066563130183412
 30
0.0
 10
300.9711494758323624
 20
-4.7866073784652388
 30
0.0
 10
300.9711494758323624
 20
-4.7866073784652388
 30
0.0
  0
SPLINE
  5
151
  8
frets
 62
256
370
-1
  6
BYLAYER
100
AcDbEntity
100
AcDbSpline
 70
8
 71
3
 72
146
 73
142
 74
0
 40
0.0
 40
0.0
 40
0.0
 40
0.0
 40
1.0
 40
2.0
 40
3.0
 40
4.0
 40
5.0
 40
6.0
 40
7.0
 40
8.0
 40
9.0
 40
10.0
 40
11.0
 40
12.0
 40
13.0
 40
14.0
 40
15.0
 40
16.0
 40
17.0
 40
18.0
 40
19.0
 40
20.0
 40
21.0
 40
22.0
 40
23.0
 40
24.0
 40
25.0
 40
26.0
 40
27.0
 40
28.0
 40
29.0
 40
30.0
 40
31.0
 40
32.0
 40
33.0
 40
34.0
 40
35.0
 40
36.0
 40
37.0
 40
38.0
 40
39.0
 40
40.0
 40
41.0
 40
42.0
 40
43.0
 40
44.0
 40
45.0
 40
46.0
 40
47.0
 40
48.0
 40
49.0
 40
50.0
 40
51.0
 40
52.0
 40
53.0
 40
54.0
 40
55.0
 40
56.0
 40
57.0
 40
58.0
 40
59.0
 40
60.0
 40
61.0
 40
62.0
 40
63.0
 40
64.0
 40
65.0
 40
66.0
 40
67.0
 40
68.0
 40
69.0
 40
70.0
 40
71.0
 40
72.0
 40
73.0
 40
74.0
 40
75.0
 40
76.0
 40
77.0
 40
78.0
 40
79.0
 40
80.0
 40
81.0
 40
82.0
 40
83.0
 40
84.0
 40
85.0
 40
86.0
 40
87.0
 40
88.0
 40
89.0
 40
90.0
 40
91.0
 40
92.0
 40
93.0
 40
94.0
 40
95.0
 40
96.0
 40
97.0
 40
98.0
 40
99.0
 40
100.0
 40
101.0
 40
102.0
 40
103.0
 40
104.0
 40
105.0
 40
106.0
 40
107.0
 40
108.0
 40
109.0
 40
110.0
 40
111.0
 40
112.0
 40
113.0
 40
114.0
 40
115.0
 40
116.0
 40
117.0
 40
118.0
 40
119.0
 40
120.0
 40
121.0
 40
122.0
 40
123.0
 40
124.0
 40
125.0
 40
126.0
 40
127.0
 40
128.0
 40
129.0
 40
130.0
 40
131.0
 40
132.0
 40
133.0
 40
134.0
 40
135.0
 40
136.0
 40
137.0
 40
138.0
 40
139.0
 40
139.0
 40
139.0
 40
139.0
 10
298.9565065721546944
 20
4.1096073239035018
 30
0.0
 10
298.6567178739048813
 20
5.5450449107074338
 30
0.0
 10
298.4063666311682823
 20
6.3763725664439104
 30
0.0
 10
297.871810368028207
 20
6.8714023748296924
 30
0.0
 10
297.9247741538878813
 20
6.9785196985489089
 30
0.0
 10
298.3846010360630885
 20
7.1100582042856573
 30
0.0
 10
298.3989520362561052
 20
7.1183437581101927
 30
0.0
 10
299.0166399205540415
 20
7.3410233559170361
 30
0.0
 10
299.4434839839748292
 20
7.032556550039935
 30
0.0
 10
299.4434839839748292
 20
7.032556550039935
 30
0.0
 10
299.4340086781504056
 20
7.3141059835309896
 30
0.0
 10
299.9710611316588711
 20
7.6433080290571009
 30
0.0
 10
300.559452139570908
 20
7.983015735863864
 30
0.0
 10
300.6316426199919647
 20
8.3882536007233011
 30
0.0
 10
300.3975864019920436
 20
8.3296598479514508
 30
0.0
 10
299.9575810903782553
 20
8.3626426667058542
 30
0.0
 10
299.8332977830099253
 20
8.5779076696005188
 30
0.0
 10
300.0231112484309506
 20
8.878843194196822
 30
0.0
 10
300.2543524829746957
 20
9.1080237178282832
 30
0.0
 10
300.5280518420974545
 20
9.4956601195824231
 30
0.0
 10
300.9269054675008874
 20
10.395651709915235
 30
0.0
 10
300.9610780382552662
 20
10.5684585882309712
 30
0.0
 10
300.9610780382552662
 20
10.5684585882309712
 30
0.0
 10
300.6795286047641866
 20
10.5589832824064356
 30
0.0
 10
300.3593663856065064
 20
10.4506762066871968
 30
0.0
 10
300.1992852760275241
 20
10.3965226688276431
 30
0.0
 10
300.1335957214311065
 20
10.3777314537223777
 30
0.0
 10
299.9711351078523194
 20
10.8579747824589958
 30
0.0
 10
299.9711351078523194
 20
10.8579747824589958
 30
0.0
 10
299.8001128575365328
 20
10.4913497032662288
 30
0.0
 10
299.6422518554138037
 20
10.4002086111961294
 30
0.0
 10
299.3936852406771436
 20
10.8307386169854301
 30
0.0
 10
299.2702728922211577
 20
11.7736238113533851
 30
0.0
 10
299.3347726948176728
 20
12.0596134597567666
 30
0.0
 10
298.95601672288808
 20
12.1853626020374239
 30
0.0
 10
298.7919308778531331
 20
12.5689942683354907
 30
0.0
 10
298.6615821241163644
 20
12.7616227172126049
 30
0.0
 10
298.3616769549761898
 20
13.181647061721252
 30
0.0
 10
298.2715662183622953
 20
13.5697189429315781
 30
0.0
 10
298.0178478263447914
 20
12.8491945532828442
 30
0.0
 10
297.7629396823273282
 20
12.3958685969322051
 30
0.0
 10
297.5939781429239019
 20
12.489665275914664
 30
0.0
 10
297.5939781429239019
 20
12.489665275914664
 30
0.0
 10
297.5537401258011414
 20
12.2942218435813668
 30
0.0
 10
297.1783940133275337
 20
12.1157849983535062
 30
0.0
 10
296.9520284731522111
 20
12.1764394620377114
 30
0.0
 10
296.7272881644331051
 20
12.3337055881604645
 30
0.0
 10
296.6361470723629736
 20
12.4915665902832007
 30
0.0
 10
296.6361470723629736
 20
12.4915665902832007
 30
0.0
 10
296.6999353125908669
 20
11.5525267348275431
 30
0.0
 10
296.5919470299592149
 20
10.8778703292138719
 30
0.0
 10
296.2843511829944987
 20
11.1786464572663906
 30
0.0
 10
296.1429018919770328
 20
11.5562126771960543
 30
0.0
 10
295.7866230775211989
 20
12.1733056854940305
 30
0.0
 10
295.4717720321881416
 20
12.7186436928271061
 30
0.0
 10
295.2757337238548985
 20
12.8924809265989886
 30
0.0
 10
295.2199549545391619
 20
12.9559503737393218
 30
0.0
 10
295.2199549545391619
 20
12.9559503737393218
 30
0.0
 10
295.1698061521356067
 20
12.6782462791605202
 30
0.0
 10
294.9446303639602434
 20
12.4717023095466217
 30
0.0
 10
294.7210798072410967
 20
12.3617700023712711
 30
0.0
 10
294.3853768358903835
 20
12.5123758061256236
 30
0.0
 10
294.2921750329078918
 20
12.2098150500731553
 30
0.0
 10
294.1066423858553662
 20
12.3323137294415393
 30
0.0
 10
294.1066423858553662
 20
12.3323137294415393
 30
0.0
 10
293.5898469823644632
 20
12.5314431041432606
 30
0.0
 10
292.0532168960846207
 20
13.270715998722066
 30
0.0
 10
292.0532168960846207
 20
13.270715998722066
 30
0.0
 10
292.3660072305053745
 20
12.264956233213745
 30
0.0
 10
292.3279893208386966
 20
12.0325252466699997
 30
0.0
 10
292.4251958592772098
 20
11.8973007985648067
 30
0.0
 10
292.6893032262069028
 20
11.2078579133019147
 30
0.0
 10
292.6987785320313264
 20
10.9263084798108707
 30
0.0
 10
292.5392922984524944
 20
10.7385557253021773
 30
0.0
 10
292.3527292959437318
 20
10.6308435255830034
 30
0.0
 10
292.2290408645753814
 20
10.7125093118285726
 30
0.0
 10
292.2290408645753814
 20
10.7125093118285726
 30
0.0
 10
292.3842462797858275
 20
10.4768278623725077
 30
0.0
 10
292.2799439395226955
 20
10.3592048773725924
 30
0.0
 10
291.9377400423473432
 20
10.1233640313727751
 30
0.0
 10
291.6622560552247023
 20
10.1365252795657792
 30
0.0
 10
291.6335540548387826
 20
10.1199541719166497
 30
0.0
 10
292.262501872961252
 20
9.6602866862852039
 30
0.0
 10
293.5579799394165548
 20
8.6095726058294471
 30
0.0
 10
293.5005759386447153
 20
8.5764303905311845
 30
0.0
 10
293.0445943953817505
 20
8.5045159930225207
 30
0.0
 10
292.7586047469783352
 20
8.5690157956190358
 30
0.0
 10
292.3820688825048819
 20
8.6577773836892202
 30
0.0
 10
292.3147540964522477
 20
8.5423745061454337
 30
0.0
 10
292.1890049541715371
 20
8.1636185342158054
 30
0.0
 10
291.6729638232243929
 20
7.7317393798827556
 30
0.0
 10
291.108239724786074
 20
7.6161771057951757
 30
0.0
 10
290.7719418774354381
 20
7.9003821261985632
 30
0.0
 10
290.7719418774354381
 20
7.9003821261985632
 30
0.0
 10
290.9321823835580858
 20
7.4571263516724589
 30
0.0
 10
291.1061790138737138
 20
7.1557553476199569
 30
0.0
 10
291.3436450913296767
 20
6.910163112883219
 30
0.0
 10
291.763828832382103
 20
6.7126589696376344
 30
0.0
 10
291.9808784632767242
 20
6.4361446270587868
 30
0.0
 10
291.9808784632767242
 20
6.4361446270587868
 30
0.0
 10
292.0538232162415397
 20
6.2103739628834633
 30
0.0
 10
292.0340016456801209
 20
6.0458526383923168
 30
0.0
 10
291.9523358594345268
 20
5.9221642070239797
 30
0.0
 10
291.9523358594345268
 20
5.9221642070239797
 30
0.0
 10
292.3260567404519179
 20
6.0039893898133325
 30
0.0
 10
292.7130982662060887
 20
5.8638892473396638
 30
0.0
 10
293.1476330074514749
 20
5.6746706579186457
 30
0.0
 10
293.4281520854863743
 20
5.4539350846555763
 30
0.0
 10
293.4430979616793138
 20
5.3286214218310874
 30
0.0
 10
293.2708859593636816
 20
5.2291947759363948
 30
0.0
 10
293.0920136346794607
 20
5.2407307926732756
 30
0.0
 10
293.0362348653637241
 20
5.3042002398135955
 30
0.0
 10
293.0362348653637241
 20
5.3042002398135955
 30
0.0
 10
293.1793093878372929
 20
5.0232456823224929
 30
0.0
 10
293.2197068015039463
 20
4.7212798022699936
 30
0.0
 10
293.0806370144864559
 20
4.564449155603425
 30
0.0
 10
292.9173054419952678
 20
4.3170722928667118
 30
0.0
 10
292.7274919765742425
 20
4.0161367682704228
 30
0.0
 10
292.7274919765742425
 20
4.0161367682704228
 30
0.0
 10
293.5311479873809049
 20
4.4801277824455372
 30
0.0
 10
294.4215048753454198
 20
4.8602329029189004
 30
0.0
 10
294.7240656313979343
 20
4.7670310999364212
 30
0.0
 10
294.9593116013978147
 20
4.5584264194101669
 30
0.0
 10
294.9853580148713945
 20
4.2481749855331623
 30
0.0
 10
294.9489653366608763
 20
4.112355661427948
 30
0.0
 10
295.1824266786608177
 20
4.3045486308488652
 30
0.0
 10
295.7603120252921372
 20
4.6955948920591304
 30
0.0
 10
295.9628512594499057
 20
4.9082043080414763
 30
0.0
 10
296.3260664791866361
 20
5.0413680452343419
 30
0.0
 10
296.4536002494672857
 20
5.0193263672167623
 30
0.0
 10
296.4536002494672857
 20
5.0193263672167623
 30
0.0
 10
296.5494576393621173
 20
5.6487096647953816
 30
0.0
 10
297.1930325405898543
 20
6.0585471411109069
 30
0.0
 10
297.5778673983571139
 20
6.6339216574332767
 30
0.0
 10
297.7402105767855005
 20
6.1728899654829021
 30
0.0
 10
297.8617828963788838
 20
5.430512992076034
 30
0.0
 10
297.8298304330806445
 20
5.2207185595498355
 30
0.0
 10
297.8335835154995266
 20
4.0135083986424469
 30
0.0
 10
297.8335835154995266
 20
4.0135083986424469
 30
0.0
 10
297.8933115387605994
 20
3.6213443695661685
 30
0.0
 10
298.9565065721546944
 20
4.1096073239035018
 30
0.0
 10
298.9565065721546944
 20
4.1096073239035018
 30
0.0
  0
SPLINE
  5
152
  8
frets
 62
256
370
-1
  6
BYLAYER
100
AcDbEntity
100
AcDbSpline
 70
8
 71
3
 72
120
 73
116
 74
0
 40
0.0
 40
0.0
 40
0.0
 40
0.0
 40
1.0
 40
2.0
 40
3.0
 40
4.0
 40
5.0
 40
6.0
 40
7.0
 40
8.0
 40
9.0
 40
10.0
 40
11.0
 40
12.0
 40
13.0
 40
14.0
 40
15.0
 40
16.0
 40
17.0
 40
18.0
 40
19.0
 40
20.0
 40
21.0
 40
22.0
 40
23.0
 40
24.0
 40
25.0
 40
26.0
 40
27.0
 40
28.0
 40
29.0
 40
30.0
 40
31.0
 40
32.0
 40
33.0
 40
34.0
 40
35.0
 40
36.0
 40
37.0
 40
38.0
 40
39.0
 40
40.0
 40
41.0
 40
42.0
 40
43.0
 40
44.0
 40
45.0
 40
46.0
 40
47.0
 40
48.0
 40
49.0
 40
50.0
 40
51.0
 40
52.0
 40
53.0
 40
54.0
 40
55.0
 40
56.0
 40
57.0
 40
58.0
 40
59.0
 40
60.0
 40
61.0
 40
62.0
 40
63.0
 40
64.0
 40
65.0
 40
66.0
 40
67.0
 40
68.0
 40
69.0
 40
70.0
 40
71.0
 40
72.0
 40
73.0
 40
74.0
 40
75.0
 40
76.0
 40
77.0
 40
78.0
 40
79.0
 40
80.0
 40
81.0
 40
82.0
 40
83.0
 40
84.0
 40
85.0
 40
86.0
 40
87.0
 40
88.0
 40
89.0
 40
90.0
 40
91.0
 40
92.0
 40
93.0
 40
94.0
 40
95.0
 40
96.0
 40
97.0
 40
98.0
 40
99.0
 40
100.0
 40
101.0
 40
102.0
 40
103.0
 40
104.0
 40
105.0
 40
106.0
 40
107.0
 40
108.0
 40
109.0
 40
110.0
 40
111.0
 40
112.0
 40
113.0
 40
113.0
 40
113.0
 40
113.0
 10
93.5000000000000568
 20
-0.0000000000000224
 30
0.0
 10
94.1755142008901345
 20
1.1332233563809584
 30
0.0
 10
94.1479082233846327
 20
1.1056173788754644
 30
0.0
 10
92.8780332581319357
 20
1.2712532439084248
 30
0.0
 10
90.5591311476704846
 20
1.5197070414578655
 30
0.0
 10
88.4161267636898032
 20
1.5185497771988163
 30
0.0
 10
86.5516763780771186
 20
0.9211903747347557
 30
0.0
 10
86.6444952816587346
 20
1.0098592660718575
 30
0.0
 10
86.7430899641106521
 20
1.1067768244899574
 30
0.0
 10
87.6857263704743275
 20
2.0787128680934139
 30
0.0
 10
87.7710256531071025
 20
3.2875600787821067
 30
0.0
 10
87.6435183840654446
 20
4.6454160411336529
 30
0.0
 10
87.522214233061959
 20
4.6986397617976419
 30
0.0
 10
86.824191077373456
 20
5.0605433961164703
 30
0.0
 10
86.8157141476990546
 20
5.3201938884537423
 30
0.0
 10
87.096189420854742
 20
6.8877681161079751
 30
0.0
 10
87.273696992263524
 20
7.4424792767604133
 30
0.0
 10
87.4290161172462064
 20
7.6532695178083374
 30
0.0
 10
85.8758248674193823
 20
7.9860962141997991
 30
0.0
 10
85.8758248674193823
 20
7.9860962141997991
 30
0.0
 10
84.8858634658979554
 20
8.8597807431213109
 30
0.0
 10
84.8858634658979554
 20
8.8597807431213109
 30
0.0
 10
83.8555617642602158
 20
7.2977718207326623
 30
0.0
 10
83.3809192395937231
 20
7.027547249047795
 30
0.0
 10
82.5487440419178853
 20
6.8808123090211462
 30
0.0
 10
80.8207725085176776
 20
8.2176084436590084
 30
0.0
 10
79.5001765589698266
 20
11.0040166732451858
 30
0.0
 10
79.3289411661417887
 20
8.8499133116256807
 30
0.0
 10
79.4671991764941055
 20
8.2773886062871558
 30
0.0
 10
79.5309969765056053
 20
7.9155733029498272
 30
0.0
 10
79.3117223138484917
 20
7.4665382292694913
 30
0.0
 10
79.0158902911774987
 20
7.4516815195939685
 30
0.0
 10
77.75
 20
8.7300000000000004
 30
0.0
 10
78.019999999999996
 20
8.1899999999999995
 30
0.0
 10
77.2110964048188748
 20
7.3199799512058403
 30
0.0
 10
76.2555199064662901
 20
7.4499376938467323
 30
0.0
 10
75.4978932501126252
 20
7.7267187074957819
 30
0.0
 10
75.0722801467637595
 20
8.0247362108215121
 30
0.0
 10
74.9615500751078514
 20
7.5948404771446532
 30
0.0
 10
74.8635795634542234
 20
7.0925816828003621
 30
0.0
 10
75.5721767984903465
 20
6.2475585941407097
 30
0.0
 10
76.1530901025217588
 20
5.4919407564787655
 30
0.0
 10
75.5
 20
5.4000000000000004
 30
0.0
 10
74.5999999999999943
 20
4.5
 30
0.0
 10
76.8339827368985056
 20
4.3808873954806895
 30
0.0
 10
77.7170195126206238
 20
2.9697193814836451
 30
0.0
 10
77.7424503016437569
 20
2.1907679044718118
 30
0.0
 10
76.9442711536469517
 20
1.6396563507729387
 30
0.0
 10
76.0248761856281021
 20
1.7759938734149845
 30
0.0
 10
74.8926059956335024
 20
2.1625889109441303
 30
0.0
 10
72.9755242244186917
 20
3.0572270708443803
 30
0.0
 10
73.1832080829669565
 20
2.2424673180780812
 30
0.0
 10
74.017849826942566
 20
1.310181602348915
 30
0.0
 10
72.8477187730043596
 20
0.5330694054115318
 30
0.0
 10
72.1735501290118862
 20
-0.2470755188937131
 30
0.0
 10
70.4930313509690336
 20
-1.5497264578001364
 30
0.0
 10
70.6079557219713934
 20
-1.5667686481304035
 30
0.0
 10
72.0443778630285721
 20
-2.7311340607739822
 30
0.0
 10
73.1212585123846566
 20
-2.9143155240788317
 30
0.0
 10
74.2577426624058745
 20
-3.0123743667139307
 30
0.0
 10
74.9664282284234815
 20
-3.2231720996966713
 30
0.0
 10
75.062124928440852
 20
-3.7658950547026402
 30
0.0
 10
74.9662515664604996
 20
-4.4916228110505116
 30
0.0
 10
74.8874203948103911
 20
-5.1024261963960154
 30
0.0
 10
74.8874203948103911
 20
-5.1024261963960154
 30
0.0
 10
75.9218280648130701
 20
-4.6215805536914001
 30
0.0
 10
76.8583535541436902
 20
-4.0087683496541739
 30
0.0
 10
77.3989793594764706
 20
-3.6896026876332444
 30
0.0
 10
77.8820988138172652
 20
-3.6790286082856443
 30
0.0
 10
78.0629181345044287
 20
-4.2813550639567559
 30
0.0
 10
77.3945200671855105
 20
-5.1453408306568864
 30
0.0
 10
77.2497056148690717
 20
-5.8050853063384507
 30
0.0
 10
77.5369723768842505
 20
-6.1648034600025401
 30
0.0
 10
77.7773951982364906
 20
-6.6820072950038965
 30
0.0
 10
76.966368159255893
 20
-7.7949811437121825
 30
0.0
 10
76.2617885616032112
 20
-8.6653466904134735
 30
0.0
 10
75.9680536886054369
 20
-8.9036723620925766
 30
0.0
 10
75.9680536886054369
 20
-8.9036723620925766
 30
0.0
 10
76.785283845624221
 20
-9.095330755071819
 30
0.0
 10
77.7621851646350137
 20
-8.9230766950405354
 30
0.0
 10
78.7795506443074345
 20
-8.5571554233382834
 30
0.0
 10
79.6692321929751728
 20
-8.1018289006382993
 30
0.0
 10
80.2460395286416315
 20
-7.7762834586162155
 30
0.0
 10
80.8611255443150867
 20
-7.6678271985965178
 30
0.0
 10
81.3058779876674862
 20
-8.0743892929234278
 30
0.0
 10
81.2844648360278086
 20
-9.0108264512725356
 30
0.0
 10
81.4291909573626924
 20
-8.9853073312679044
 30
0.0
 10
82.0656017936944124
 20
-8.5746392685760302
 30
0.0
 10
82.8382618216865154
 20
-7.8788015935422324
 30
0.0
 10
83.5999999999999943
 20
-7.2000000000000002
 30
0.0
 10
84.0516566556476619
 20
-5.874137377474435
 30
0.0
 10
84.5795229009781053
 20
-5.4826086547860688
 30
0.0
 10
85.452025309154223
 20
-4.1671243246737806
 30
0.0
 10
86.4949585280111393
 20
-5.5552367083980148
 30
0.0
 10
87.1865135727170468
 20
-6.5151841680600073
 30
0.0
 10
87.5630972547483566
 20
-7.3814437463963669
 30
0.0
 10
87.5630972547483566
 20
-7.3814437463963669
 30
0.0
 10
87.9632795690741318
 20
-6.9005097727102385
 30
0.0
 10
88.2996640833883362
 20
-6.0577604956868152
 30
0.0
 10
88.4020055563513694
 20
-4.7339889139957814
 30
0.0
 10
88.6106178086793506
 20
-4.4360597416515377
 30
0.0
 10
88.9000700513492319
 20
-4.3850215016422673
 30
0.0
 10
89.4938312463644792
 20
-4.5787770442947417
 30
0.0
 10
89.4938312463644792
 20
-4.5787770442947417
 30
0.0
 10
88.5044353602959148
 20
-2.7759919766278234
 30
0.0
 10
88.3321813002645939
 20
-1.799090657617042
 30
0.0
 10
88.5067091719321297
 20
-1.7310102272775354
 30
0.0
 10
89.1302721172799011
 20
-1.8822044595951051
 30
0.0
 10
88.9089886359311095
 20
-1.473545215594958
 30
0.0
 10
88.0790872498914865
 20
-0.5752984062713191
 30
0.0
 10
86.7852057495145175
 20
0.2038297327035121
 30
0.0
 10
86.7852057495145175
 20
0.2038297327035121
 30
0.0
 10
87.9366349401927607
 20
0.4441642230743358
 30
0.0
 10
91.3320985178243205
 20
0.608709783776583
 30
0.0
 10
93.5
 20
0.0
 30
0.0
 10
93.5
 20
0.0
 30
0.0
  0
SPLINE
  5
153
  8
frets
 62
256
370
-1
  6
BYLAYER
100
AcDbEntity
100
AcDbSpline
 70
8
 71
3
 72
146
 73
142
 74
0
 40
0.0
 40
0.0
 40
0.0
 40
0.0
 40
1.0
 40
2.0
 40
3.0
 40
4.0
 40
5.0
 40
6.0
 40
7.0
 40
8.0
 40
9.0
 40
10.0
 40
11.0
 40
12.0
 40
13.0
 40
14.0
 40
15.0
 40
16.0
 40
17.0
 40
18.0
 40
19.0
 40
20.0
 40
21.0
 40
22.0
 40
23.0
 40
24.0
 40
25.0
 40
26.0
 40
27.0
 40
28.0
 40
29.0
 40
30.0
 40
31.0
 40
32.0
 40
33.0
 40
34.0
 40
35.0
 40
36.0
 40
37.0
 40
38.0
 40
39.0
 40
40.0
 40
41.0
 40
42.0
 40
43.0
 40
44.0
 40
45.0
 40
46.0
 40
47.0
 40
48.0
 40
49.0
 40
50.0
 40
51.0
 40
52.0
 40
53.0
 40
54.0
 40
55.0
 40
56.0
 40
57.0
 40
58.0
 40
59.0
 40
60.0
 40
61.0
 40
62.0
 40
63.0
 40
64.0
 40
65.0
 40
66.0
 40
67.0
 40
68.0
 40
69.0
 40
70.0
 40
71.0
 40
72.0
 40
73.0
 40
74.0
 40
75.0
 40
76.0
 40
77.0
 40
78.0
 40
79.0
 40
80.0
 40
81.0
 40
82.0
 40
83.0
 40
84.0
 40
85.0
 40
86.0
 40
87.0
 40
88.0
 40
89.0
 40
90.0
 40
91.0
 40
92.0
 40
93.0
 40
94.0
 40
95.0
 40
96.0
 40
97.0
 40
98.0
 40
99.0
 40
100.0
 40
101.0
 40
102.0
 40
103.0
 40
104.0
 40
105.0
 40
106.0
 40
107.0
 40
108.0
 40
109.0
 40
110.0
 40
111.0
 40
112.0
 40
113.0
 40
114.0
 40
115.0
 40
116.0
 40
117.0
 40
118.0
 40
119.0
 40
120.0
 40
121.0
 40
122.0
 40
123.0
 40
124.0
 40
125.0
 40
126.0
 40
127.0
 40
128.0
 40
129.0
 40
130.0
 40
131.0
 40
132.0
 40
133.0
 40
134.0
 40
135.0
 40
136.0
 40
137.0
 40
138.0
 40
139.0
 40
139.0
 40
139.0
 40
139.0
 10
264.6430844342088449
 20
1.3229820456201917
 30
0.0
 10
262.5367219651021742
 20
0.4913906767519809
 30
0.0
 10
261.5221028770968701
 20
0.825775754528977
 30
0.0
 10
260.645869400031529
 20
0.6363507231129424
 30
0.0
 10
260.5752815974001919
 20
0.76533506051614
 30
0.0
 10
260.7672295895484922
 20
1.3216490767021951
 30
0.0
 10
260.769006715198941
 20
1.341961715835738
 30
0.0
 10
260.9805030895024629
 20
2.1217147624908308
 30
0.0
 10
261.5926722578315662
 20
2.334242427363066
 30
0.0
 10
261.5926722578315662
 20
2.334242427363066
 30
0.0
 10
261.3021996760322168
 20
2.5234004251886799
 30
0.0
 10
261.3494178116168882
 20
3.2970578379140432
 30
0.0
 10
261.422279963286428
 20
4.1298760423895793
 30
0.0
 10
261.064773830156696
 20
4.488643655885495
 30
0.0
 10
260.9586435145157566
 20
4.211375210617704
 30
0.0
 10
260.6148571632020321
 20
3.7911540344367669
 30
0.0
 10
260.3101675761987508
 20
3.8178109191939429
 30
0.0
 10
260.1408065722223455
 20
4.2215223192361924
 30
0.0
 10
260.0730087639136627
 20
4.6163480910260226
 30
0.0
 10
259.8754623612235264
 20
5.1658022163040815
 30
0.0
 10
259.2498220227722641
 20
6.2030082924812264
 30
0.0
 10
259.0997607892572319
 20
6.3594137716199128
 30
0.0
 10
259.0997607892572319
 20
6.3594137716199128
 30
0.0
 10
258.9106027914316428
 20
6.068941189820479
 30
0.0
 10
258.7938097218878966
 20
5.6697969097513958
 30
0.0
 10
258.7354131871159666
 20
5.4702247697168538
 30
0.0
 10
258.7079920453804789
 20
5.3907513388331276
 30
0.0
 10
258.1092756252768936
 20
5.5659409431487967
 30
0.0
 10
258.1092756252768936
 20
5.5659409431487967
 30
0.0
 10
258.3581100601370508
 20
5.1348084013711057
 30
0.0
 10
258.3385616779817724
 20
4.9113693709020723
 30
0.0
 10
257.7291825039752666
 20
4.9646831404164251
 30
0.0
 10
256.6917093942076349
 20
5.5057488608298693
 30
0.0
 10
256.4489705932772381
 20
5.7726031638887054
 30
0.0
 10
256.0549090784656983
 20
5.4795891994605155
 30
0.0
 10
255.5524244770784037
 20
5.5849552581231432
 30
0.0
 10
255.2662704035582237
 20
5.5895223780962802
 30
0.0
 10
254.631247213466736
 20
5.5836753558604721
 30
0.0
 10
254.1764963929484509
 20
5.7667377197563354
 30
0.0
 10
254.7236761691881384
 20
5.0024815805677152
 30
0.0
 10
255.0006960027620835
 20
4.4256063135542325
 30
0.0
 10
254.7869068575236611
 20
4.3215017352577005
 30
0.0
 10
254.7869068575236611
 20
4.3215017352577005
 30
0.0
 10
254.9555036045218799
 20
4.1430064913350027
 30
0.0
 10
254.870450184992734
 20
3.6387447642972166
 30
0.0
 10
254.6495525371524309
 20
3.4533896294664848
 30
0.0
 10
254.2870245831589102
 20
3.4662800382847054
 30
0.0
 10
253.8370245831588932
 20
3.4662800382847054
 30
0.0
 10
253.8370245831588932
 20
3.4662800382847054
 30
0.0
 10
255.1005004946758845
 20
2.7589570359309459
 30
0.0
 10
255.7042996800369963
 20
2.1739603976433148
 30
0.0
 10
255.184043822144929
 20
2.07620006497045
 30
0.0
 10
254.7036489855416335
 20
2.2001016371161315
 30
0.0
 10
253.8302055027990036
 20
2.2765180400867209
 30
0.0
 10
253.0583252157240963
 20
2.3440488148049168
 30
0.0
 10
252.7447500004684571
 20
2.2691425038943365
 30
0.0
 10
252.6414096791502573
 20
2.2577154930131957
 30
0.0
 10
252.6414096791502573
 20
2.2577154930131957
 30
0.0
 10
252.8859256057311029
 20
2.0111738290879058
 30
0.0
 10
252.9351879005566843
 20
1.6384378220820914
 30
0.0
 10
252.3070245831589204
 20
1.1262800382847058
 30
0.0
 10
252.1270245831589136
 20
1.2162800382847059
 30
0.0
 10
252.7386727884353093
 20
0.7959697323758659
 30
0.0
 10
252.4842583649298433
 20
0.6954194053803167
 30
0.0
 10
252.4842583649298433
 20
0.6954194053803167
 30
0.0
 10
251.9188101087974587
 20
0.3150592504882055
 30
0.0
 10
250.0891624947179821
 20
-0.7120181389669848
 30
0.0
 10
250.0891624947179821
 20
-0.7120181389669848
 30
0.0
 10
251.3236663618913553
 20
-1.1065768771663651
 30
0.0
 10
251.3062814081225156
 20
-1.4919265954122827
 30
0.0
 10
251.7360147784920912
 20
-1.306397628894798
 30
0.0
 10
252.1161597026750769
 20
-1.5917746043297216
 30
0.0
 10
252.4267979526404417
 20
-1.7138110596732574
 30
0.0
 10
252.5044575151318043
 20
-1.9800724167864274
 30
0.0
 10
252.5488344079839749
 20
-2.2574279971126456
 30
0.0
 10
252.1716308187403399
 20
-2.5236893542258154
 30
0.0
 10
252.1716308187403399
 20
-2.5236893542258154
 30
0.0
 10
253.1388667809696926
 20
-2.3501965623894598
 30
0.0
 10
253.1838105675160477
 20
-2.5383416915428763
 30
0.0
 10
253.1800077045211594
 20
-3.0497119211825869
 30
0.0
 10
252.9723141932124975
 20
-3.3180947381979791
 30
0.0
 10
252.9687599419115145
 20
-3.3587200164650763
 30
0.0
 10
253.8759688120132978
 20
-3.049196275898205
 30
0.0
 10
255.8493334139841977
 20
-2.4849910782353963
 30
0.0
 10
255.8422249113822886
 20
-2.5662416347695962
 30
0.0
 10
255.5928932531343492
 20
-3.076598995737116
 30
0.0
 10
255.3260389500755423
 20
-3.3193377966675204
 30
0.0
 10
254.9708255878805687
 20
-3.6362186515302217
 30
0.0
 10
255.0396362648614286
 20
-3.7855156280669733
 30
0.0
 10
255.3326502292896407
 20
-4.179577142878534
 30
0.0
 10
255.4037536772053443
 20
-5.0045225877738755
 30
0.0
 10
255.1216695002704853
 20
-5.6552912970257569
 30
0.0
 10
254.597859391077435
 20
-5.7936769079657404
 30
0.0
 10
254.597859391077435
 20
-5.7936769079657404
 30
0.0
 10
255.1577276585644256
 20
-5.9449996218468923
 30
0.0
 10
255.5842930803690081
 20
-5.9823192605069302
 30
0.0
 10
255.9994314912923983
 20
-5.9162985778487656
 30
0.0
 10
256.4950562017717175
 20
-5.6321702416729638
 30
0.0
 10
256.9269530005276465
 20
-5.6085519629323848
 30
0.0
 10
256.9269530005276465
 20
-5.6085519629323848
 30
0.0
 10
257.205998571445889
 20
-5.6943696394397358
 30
0.0
 10
257.3578369306114837
 20
-5.8304624794448481
 30
0.0
 10
257.4248704819418094
 20
-6.0000720951151578
 30
0.0
 10
257.4248704819418094
 20
-6.0000720951151578
 30
0.0
 10
257.6061557201871892
 20
-5.5656339137304274
 30
0.0
 10
258.0205298741323077
 20
-5.2743970749527218
 30
0.0
 10
258.5179317102620757
 20
-4.969956099643392
 30
0.0
 10
258.9384014981368978
 20
-4.8429974995845679
 30
0.0
 10
259.0752585951203173
 20
-4.9163752965385603
 30
0.0
 10
259.0539330873145332
 20
-5.1601269661411546
 30
0.0
 10
259.2370245831589273
 20
-5.2637199617152941
 30
0.0
 10
259.3619300137956998
 20
-5.3960281209769887
 30
0.0
 10
259.3619300137956998
 20
-5.3960281209769887
 30
0.0
 10
259.5563442911040966
 20
-5.4901777853068623
 30
0.0
 10
259.5297608039447255
 20
-5.5701826118070166
 30
0.0
 10
259.589685852673199
 20
-5.8210427840115164
 30
0.0
 10
259.7237529553339073
 20
-6.1602620153521714
 30
0.0
 10
259.8931139593103126
 20
-6.5639734153943827
 30
0.0
 10
259.8931139593103126
 20
-6.5639734153943827
 30
0.0
 10
259.9926329957370967
 20
-5.4264656239156066
 30
0.0
 10
260.2378947573997721
 20
-4.2607724337230621
 30
0.0
 10
260.5453743387256509
 20
-4.0215878840936066
 30
0.0
 10
260.921664597032418
 20
-3.9317003110009363
 30
0.0
 10
261.2527624570989246
 20
-4.1244125601274799
 30
0.0
 10
261.3639755379973053
 20
-4.2569511488316527
 30
0.0
 10
261.3350258823053309
 20
-3.885992267476313
 30
0.0
 10
261.3487272422248111
 20
-3.0275300469157829
 30
0.0
 10
261.2773751826151738
 20
-2.6733295533930295
 30
0.0
 10
261.3994996291103803
 20
-2.2132473559233041
 30
0.0
 10
261.5117255786809665
 20
-2.1002571493744036
 30
0.0
 10
261.5117255786809665
 20
-2.1002571493744036
 30
0.0
 10
260.944997420286029
 20
-1.559440040654823
 30
0.0
 10
260.98611992194094
 20
-0.6215043892105758
 30
0.0
 10
260.6777804431625327
 20
0.1724672920563332
 30
0.0
 10
261.2570497850687161
 20
0.0107182762174449
 30
0.0
 10
262.0911238064267081
 20
-0.0000000000000249
 30
0.0
 10
263.0
 20
0.0
 30
0.0
 10
264.6726690294436253
 20
0.5241979742806828
 30
0.0
 10
264.6726690294436253
 20
0.5241979742806828
 30
0.0
 10
264.6726690294436253
 20
0.5241979742806828
 30
0.0
 10
264.6430844342088449
 20
1.3229820456201917
 30
0.0
 10
264.6430844342088449
 20
1.3229820456201917
 30
0.0
  0
LINE
  5
154
100
AcDbEntity
100
AcDbLine
  8
0
 62
256
370
-1
  6
BYLAYER
 10
797.1333712237964164
 20
-41.0
 30
0.0
 11
802.8666287762035836
 21
-41.0
 31
0.0
  0
LINE
  5
155
100
AcDbEntity
100
AcDbLine
  8
0
 62
256
370
-1
  6
BYLAYER
 10
831.0
 20
23.3462518715778664
 30
0.0
 11
831.0
 21
30.9999999999999964
 31
0.0
  0
LINE
  5
156
100
AcDbEntity
100
AcDbLine
  8
0
 62
256
370
-1
  6
BYLAYER
 10
821.0
 20
41.0
 30
0.0
 11
779.0000000000001137
 21
41.0
 31
0.0
  0
LINE
  5
157
100
AcDbEntity
100
AcDbLine
  8
0
 62
256
370
-1
  6
BYLAYER
 10
769.0
 20
31.0
 30
0.0
 11
769.0
 21
23.34625187157814
 31
0.0
  0
CIRCLE
  5
158
100
AcDbEntity
100
AcDbCircle
  8
0
 62
256
370
-1
  6
BYLAYER
 10
806.0
 20
30.0
 30
0.0
 40
2.0
  0
CIRCLE
  5
159
100
AcDbEntity
100
AcDbCircle
  8
0
 62
256
370
-1
  6
BYLAYER
 10
818.0
 20
30.0
 30
0.0
 40
2.0
  0
CIRCLE
  5
15A
100
AcDbEntity
100
AcDbCircle
  8
0
 62
256
370
-1
  6
BYLAYER
 10
794.0
 20
30.0000000000000036
 30
0.0
 40
2.0
  0
CIRCLE
  5
15B
100
AcDbEntity
100
AcDbCircle
  8
0
 62
256
370
-1
  6
BYLAYER
 10
782.0
 20
30.0000000000000036
 30
0.0
 40
2.0
  0
LINE
  5
15C
100
AcDbEntity
100
AcDbLine
  8
0
 62
256
370
-1
  6
BYLAYER
 10
787.6779953651355299
 20
-34.2551293939652055
 30
0.0
 11
770.0892482826785681
 21
16.8359930836478497
 31
0.0
  0
LINE
  5
15D
100
AcDbEntity
100
AcDbLine
  8
0
 62
256
370
-1
  6
BYLAYER
 10
812.3220046348644701
 20
-34.2551293939652055
 30
0.0
 11
829.9107517173213182
 21
16.8359930836475797
 31
0.0
  0
ARC
  5
15E
100
AcDbEntity
  8
0
 62
256
370
-1
  6
BYLAYER
100
AcDbCircle
 10
797.1333712237964164
 20
-31.0
 30
0.0
 40
10.0
100
AcDbArc
 50
198.9966541554885282
 51
270.0
  0
ARC
  5
15F
100
AcDbEntity
  8
0
 62
256
370
-1
  6
BYLAYER
100
AcDbCircle
 10
802.8666287762035836
 20
-31.0000000000000071
 30
0.0
 40
10.0
100
AcDbArc
 50
270.0
 51
341.0033458445115002
  0
ARC
  5
160
100
AcDbEntity
  8
0
 62
256
370
-1
  6
BYLAYER
100
AcDbCircle
 10
779.0000000000001137
 20
31.0
 30
0.0
 40
10.0
100
AcDbArc
 50
90.0
 51
180.0
  0
ARC
  5
161
100
AcDbEntity
  8
0
 62
256
370
-1
  6
BYLAYER
100
AcDbCircle
 10
821.0
 20
30.9999999999999964
 30
0.0
 40
10.0
100
AcDbArc
 50
0.0
 51
90.0
  0
ARC
  5
162
100
AcDbEntity
  8
0
 62
256
370
-1
  6
BYLAYER
100
AcDbCircle
 10
788.9999999999998863
 20
23.34625187157814
 30
0.0
 40
20.0
100
AcDbArc
 50
180.0
 51
198.9966541554885282
  0
ARC
  5
163
100
AcDbEntity
  8
0
 62
256
370
-1
  6
BYLAYER
100
AcDbCircle
 10
811.0
 20
23.3462518715778664
 30
0.0
 40
20.0
100
AcDbArc
 50
341.0033458445113865
 51
0.0
  0
LINE
  5
164
100
AcDbEntity
100
AcDbLine
  8
0
 62
256
370
-1
  6
BYLAYER
 10
597.0
 20
-30.0
 30
0.0
 11
603.0
 21
-30.0
 31
0.0
  0
LINE
  5
165
100
AcDbEntity
100
AcDbLine
  8
0
 62
256
370
-1
  6
BYLAYER
 10
603.0
 20
-30.0
 30
0.0
 11
603.0
 21
30.0
 31
0.0
  0
LINE
  5
166
100
AcDbEntity
100
AcDbLine
  8
0
 62
256
370
-1
  6
BYLAYER
 10
603.0
 20
30.0
 30
0.0
 11
597.0
 21
30.0
 31
0.0
  0
LINE
  5
167
100
AcDbEntity
100
AcDbLine
  8
0
 62
256
370
-1
  6
BYLAYER
 10
597.0
 20
30.0
 30
0.0
 11
597.0
 21
-30.0
 31
0.0
  0
LINE
  5
168
100
AcDbEntity
100
AcDbLine
  8
0
 62
256
370
-1
  6
BYLAYER
 10
-219.0
 20
932.0
 30
0.0
 11
1000.0
 21
932.0
 31
0.0
  0
LINE
  5
169
100
AcDbEntity
100
AcDbLine
  8
0
 62
256
370
-1
  6
BYLAYER
 10
1000.0
 20
932.0
 30
0.0
 11
1000.0
 21
1300.0
 31
0.0
  0
LINE
  5
16A
100
AcDbEntity
100
AcDbLine
  8
0
 62
256
370
-1
  6
BYLAYER
 10
1000.0
 20
1300.0
 30
0.0
 11
-219.0
 21
1300.0
 31
0.0
  0
LINE
  5
16B
100
AcDbEntity
100
AcDbLine
  8
0
 62
256
370
-1
  6
BYLAYER
 10
-219.0
 20
1300.0
 30
0.0
 11
-219.0
 21
932.0
 31
0.0
  0
INSERT
  5
16C
100
AcDbEntity
100
AcDbBlockReference
  8
0
 62
256
370
-1
  6
BYLAYER
  2
tuner
 10
167.3070299336300195
 20
994.9083658008856901
 30
0.0
 41
1.0
 42
-1.0
 43
1.0
 50
368.9999999999999432
  0
LINE
  5
16D
100
AcDbEntity
100
AcDbLine
  8
0
 62
256
370
-1
  6
BYLAYER
 10
241.8130671370113305
 20
978.3599392820777894
 30
0.0
 11
233.0811712514749843
 21
973.9928087246184987
 31
0.0
  0
LINE
  5
16E
100
AcDbEntity
100
AcDbLine
  8
0
 62
256
370
-1
  6
BYLAYER
 10
191.9643800067473194
 20
964.4909926839333139
 30
0.0
 11
136.9678331223133227
 21
965.0158342292769476
 31
0.0
  0
ARC
  5
16F
100
AcDbEntity
  8
0
 62
256
370
-1
  6
BYLAYER
100
AcDbCircle
 10
137.1205169332031346
 20
981.0151057018597385
 30
0.0
 40
16.0
100
AcDbArc
 50
108.5467669214038011
 51
269.4532330785962131
  0
ARC
  5
170
100
AcDbEntity
  8
0
 62
256
370
-1
  6
BYLAYER
100
AcDbCircle
 10
192.8232264429896077
 20
1054.4868947172997196
 30
0.0
 40
90.0
100
AcDbArc
 50
269.4532330785961562
 51
296.5712587783223171
  0
ARC
  5
171
100
AcDbEntity
  8
0
 62
256
370
-1
  6
BYLAYER
100
AcDbCircle
 10
212.8009732006794366
 20
928.3523658661413265
 30
0.0
 40
90.0
100
AcDbArc
 50
81.4287412216776971
 51
108.546766921403858
  0
LINE
  5
172
100
AcDbEntity
100
AcDbLine
  8
0
 62
256
370
-1
  6
BYLAYER
 10
235.8685574654826951
 20
1015.8920962246916133
 30
0.0
 11
578.6805812189613789
 21
1073.7318146836676078
 31
0.0
  0
INSERT
  5
173
100
AcDbEntity
100
AcDbBlockReference
  8
0
 62
256
370
-1
  6
BYLAYER
  2
tuner
 10
208.8390217889799487
 20
1007.5611778411841897
 30
0.0
 41
1.0
 42
-1.0
 43
1.0
 50
368.9999999999999432
  0
SPLINE
  5
174
  8
0
 62
256
370
-1
  6
BYLAYER
100
AcDbEntity
100
AcDbSpline
 70
8
 71
3
 72
29
 73
25
 74
0
 40
0.0
 40
0.0
 40
0.0
 40
0.0
 40
1.0
 40
2.0
 40
3.0
 40
4.0
 40
5.0
 40
6.0
 40
7.0
 40
8.0
 40
9.0
 40
10.0
 40
11.0
 40
12.0
 40
13.0
 40
14.0
 40
15.0
 40
16.0
 40
17.0
 40
18.0
 40
19.0
 40
20.0
 40
21.0
 40
22.0
 40
22.0
 40
22.0
 40
22.0
 10
957.3840800842094723
 20
1110.9320910701535468
 30
0.0
 10
962.1706688444952533
 20
1079.9579323937994104
 30
0.0
 10
961.6494132464310951
 20
1057.0735677785744429
 30
0.0
 10
957.5108684185681795
 20
1030.8524255799768525
 30
0.0
 10
947.7663662280057224
 20
1005.1253145886141738
 30
0.0
 10
931.7753479923158011
 20
983.9365631559045369
 30
0.0
 10
918.7610603039971693
 20
970.128917657985653
 30
0.0
 10
901.842700087473645
 20
959.1577468842248209
 30
0.0
 10
870.0218721781562863
 20
950.6630037986197976
 30
0.0
 10
843.7672339367500172
 20
950.6504604946604786
 30
0.0
 10
823.2588088812564138
 20
953.6209193900521086
 30
0.0
 10
795.402773933780054
 20
963.7191969646368079
 30
0.0
 10
764.4048194553545272
 20
979.4716105472091385
 30
0.0
 10
746.0330135494740489
 20
993.1110702295979991
 30
0.0
 10
729.5040107301589387
 20
997.2479365846700148
 30
0.0
 10
712.0776429819742361
 20
992.1236899564780742
 30
0.0
 10
696.9606662858008121
 20
980.948151882604293
 30
0.0
 10
681.3347262416787089
 20
968.4543989110700295
 30
0.0
 10
663.7758073427273757
 20
961.5275564887267592
 30
0.0
 10
642.5598315191889469
 20
960.2401674718912545
 30
0.0
 10
623.860051078594779
 20
964.8790151589694233
 30
0.0
 10
605.3675185468302971
 20
981.2970725162776944
 30
0.0
 10
598.1936605208693436
 20
996.0530127338791999
 30
0.0
 10
587.3627455703212945
 20
1016.4484063569888121
 30
0.0
 10
585.3596845768032608
 20
1031.5067966034318943
 30
0.0
  0
LINE
  5
175
100
AcDbEntity
100
AcDbLine
  8
0
 62
256
370
-1
  6
BYLAYER
 10
241.8130671370113305
 20
978.3599392820777894
 30
0.0
 11
585.7201321457719132
 21
1029.2858393568856172
 31
0.0
  0
LINE
  5
176
100
AcDbEntity
100
AcDbLine
  8
0
 62
256
370
-1
  6
BYLAYER
 10
235.8685574654826951
 20
1015.8920962246916133
 30
0.0
 11
226.2145134250230285
 21
1017.3471799771334645
 31
0.0
  0
SPLINE
  5
177
  8
0
 62
256
370
-1
  6
BYLAYER
100
AcDbEntity
100
AcDbSpline
 70
8
 71
3
 72
29
 73
25
 74
0
 40
0.0
 40
0.0
 40
0.0
 40
0.0
 40
1.0
 40
2.0
 40
3.0
 40
4.0
 40
5.0
 40
6.0
 40
7.0
 40
8.0
 40
9.0
 40
10.0
 40
11.0
 40
12.0
 40
13.0
 40
14.0
 40
15.0
 40
16.0
 40
17.0
 40
18.0
 40
19.0
 40
20.0
 40
21.0
 40
22.0
 40
22.0
 40
22.0
 40
22.0
 10
957.3840800842094723
 20
1110.9320910701535468
 30
0.0
 10
952.3648550980446998
 20
1141.8694037880725318
 30
0.0
 10
944.7974539932733933
 20
1163.4726510384414269
 30
0.0
 10
932.7586854154659477
 20
1187.1315585073273269
 30
0.0
 10
915.5409985965775377
 20
1208.5882782825037793
 30
0.0
 10
893.7849522190364269
 20
1223.7984820125527676
 30
0.0
 10
877.1408319969593776
 20
1232.9086971726667343
 30
0.0
 10
857.6602370507242767
 20
1238.114839804576377
 30
0.0
 10
824.7718113373601909
 20
1236.3606439713341842
 30
0.0
 10
799.798290460809767
 20
1228.2594439645397415
 30
0.0
 10
781.211541452600045
 20
1219.0969178056782312
 30
0.0
 10
757.8394172821192569
 20
1200.8848969203397701
 30
0.0
 10
733.226374183029634
 20
1176.3245666105633518
 30
0.0
 10
719.9685732960823543
 20
1157.6754693586074154
 30
0.0
 10
705.5269194640868591
 20
1148.6333328833341056
 30
0.0
 10
687.369979570340206
 20
1148.1217372457629153
 30
0.0
 10
669.5394491906513394
 20
1154.0789028513374888
 30
0.0
 10
650.8175150967249465
 20
1161.1324870011792427
 30
0.0
 10
631.9774788329178818
 20
1162.2943012816710961
 30
0.0
 10
611.4020616918073756
 20
1156.9625839134180296
 30
0.0
 10
595.05099642011578
 20
1146.7722276452980168
 30
0.0
 10
582.5370115910118329
 20
1125.4432203893754831
 30
0.0
 10
580.274103463665142
 20
1109.192643246108446
 30
0.0
 10
576.2758144590150096
 20
1086.4485344540969436
 30
0.0
 10
579.0240887426739391
 20
1071.5081743975351856
 30
0.0
  0
LINE
  5
178
100
AcDbEntity
100
AcDbLine
  8
0
 62
256
370
-1
  6
BYLAYER
 10
184.1738985485815192
 20
1013.6781567904763506
 30
0.0
 11
132.0312592172731456
 21
996.1841351995298055
 31
0.0
  0
INSERT
  5
179
100
AcDbEntity
100
AcDbBlockReference
  8
0
 62
256
370
-1
  6
BYLAYER
  2
tuner
 10
213.5320557401867063
 20
977.930527623330704
 30
0.0
 50
9.0
  0
INSERT
  5
17A
100
AcDbEntity
100
AcDbBlockReference
  8
0
 62
256
370
-1
  6
BYLAYER
  2
tuner
 10
170.1228503043552109
 20
977.1299756701663455
 30
0.0
 50
9.0
  0
LINE
  5
17B
100
AcDbEntity
100
AcDbLine
  8
0
 62
256
370
-1
  6
BYLAYER
 10
953.1810137433708405
 20
1285.8659664130930196
 30
0.0
 11
-219.0
 21
932.0
 31
0.0
  0
LINE
  5
17C
100
AcDbEntity
100
AcDbLine
  8
0
 62
256
370
-1
  6
BYLAYER
 10
78.8291122698099258
 20
926.0
 30
0.0
 11
1006.0000000000002274
 21
926.0
 31
0.0
  0
LINE
  5
17D
100
AcDbEntity
100
AcDbLine
  8
0
 62
256
370
-1
  6
BYLAYER
 10
1000.0
 20
932.0
 30
0.0
 11
1006.0
 21
932.0
 31
0.0
  0
LINE
  5
17E
100
AcDbEntity
100
AcDbLine
  8
0
 62
256
370
-1
  6
BYLAYER
 10
1006.0
 20
932.0
 30
0.0
 11
1006.0000000000002274
 21
926.0
 31
0.0
  0
LINE
  5
17F
100
AcDbEntity
100
AcDbLine
  8
0
 62
256
370
-1
  6
BYLAYER
 10
952.2847735439722783
 20
1291.8628496143310258
 30
0.0
 11
64.2177161675820116
 21
1023.7671341799489255
 31
0.0
  0
LINE
  5
180
100
AcDbEntity
100
AcDbLine
  8
0
 62
256
370
-1
  6
BYLAYER
 10
1000.0
 20
932.0
 30
0.0
 11
947.3762711911317638
 21
1284.113591302982968
 31
0.0
  0
LINE
  5
181
100
AcDbEntity
100
AcDbLine
  8
0
 62
256
370
-1
  6
BYLAYER
 10
1005.9340951801715391
 20
932.8868564667776582
 30
0.0
 11
953.1810137433709542
 21
1285.8659664130927922
 31
0.0
  0
LINE
  5
182
100
AcDbEntity
100
AcDbLine
  8
0
 62
256
370
-1
  6
BYLAYER
 10
83.9990430288995071
 20
932.0
 30
0.0
 11
70.9186989192199064
 21
1019.5226260888209708
 31
0.0
  0
LINE
  5
183
100
AcDbEntity
100
AcDbLine
  8
0
 62
256
370
-1
  6
BYLAYER
 10
77.9324062617151583
 20
931.9999999999998863
 30
0.0
 11
65.1139563669807586
 21
1017.770250978711033
 31
0.0
  0
LINE
  5
184
100
AcDbEntity
100
AcDbLine
  8
0
 62
256
370
-1
  6
BYLAYER
 10
77.9324062617151299
 20
932.0000000000001137
 30
0.0
 11
78.8291122698099258
 21
926.0
 31
0.0
  0
LINE
  5
185
100
AcDbEntity
100
AcDbLine
  8
0
 62
256
370
-1
  6
BYLAYER
 10
65.1139563669807586
 20
1017.770250978711033
 30
0.0
 11
64.2177161675820116
 21
1023.7671341799489255
 31
0.0
  0
LINE
  5
186
100
AcDbEntity
100
AcDbLine
  8
0
 62
256
370
-1
  6
BYLAYER
 10
952.2847735439722783
 20
1291.8628496143310258
 30
0.0
 11
953.1810137433708405
 21
1285.8659664130930196
 31
0.0
  0
ENDSEC
  0
SECTION
  2
OBJECTS
  0
DICTIONARY
  5
C
100
AcDbDictionary
280
0
281
1
  3
ACAD_GROUP
350
D
  3
ACAD_LAYOUT
350
1A
  3
ACAD_MLINESTYLE
350
17
  3
ACAD_PLOTSETTINGS
350
19
  3
ACAD_PLOTSTYLENAME
350
E
  3
AcDbVariableDictionary
350
187
  3
QCAD_OBJECTS
350
188
  0
DICTIONARY
  5
D
100
AcDbDictionary
280
0
281
1
  0
ACDBDICTIONARYWDFLT
  5
E
100
AcDbDictionary
281
1
  3
Normal
350
F
100
AcDbDictionaryWithDefault
340
F
  0
ACDBPLACEHOLDER
  5
F
  0
DICTIONARY
  5
17
100
AcDbDictionary
280
0
281
1
  3
Standard
350
18
  0
MLINESTYLE
  5
18
100
AcDbMlineStyle
  2
STANDARD
 70
0
  3

 62
256
 51
90.0
 52
90.0
 71
2
 49
0.5
 62
256
  6
BYLAYER
 49
-0.5
 62
256
  6
BYLAYER
  0
DICTIONARY
  5
19
100
AcDbDictionary
280
0
281
1
  0
DICTIONARY
  5
1A
100
AcDbDictionary
281
1
  3
Layout1
350
1E
  3
Layout2
350
26
  3
Model
350
22
  0
LAYOUT
  5
1E
100
AcDbPlotSettings
  1

  2
none_device
  4

  6

 40
0.0
 41
0.0
 42
0.0
 43
0.0
 44
0.0
 45
0.0
 46
0.0
 47
0.0
 48
0.0
 49
0.0
140
0.0
141
0.0
142
1.0
143
1.0
 70
688
 72
0
 73
0
 74
5
  7

 75
16
147
1.0
148
0.0
149
0.0
100
AcDbLayout
  1
Layout1
 70
1
 71
1
 10
0.0
 20
0.0
 11
420.0
 21
297.0
 12
0.0
 22
0.0
 32
0.0
 14
100000000000000000000.0
 24
100000000000000000000.0
 34
100000000000000000000.0
 15
-100000000000000000000.0
 25
-100000000000000000000.0
 35
-100000000000000000000.0
146
0.0
 13
0.0
 23
0.0
 33
0.0
 16
1.0
 26
0.0
 36
0.0
 17
0.0
 27
1.0
 37
0.0
 76
0
330
1B
  0
LAYOUT
  5
22
100
AcDbPlotSettings
  1

  2
none_device
  4

  6

 40
0.0
 41
0.0
 42
0.0
 43
0.0
 44
0.0
 45
0.0
 46
0.0
 47
0.0
 48
0.0
 49
0.0
140
0.0
141
0.0
142
1.0
143
1.0
 70
1712
 72
0
 73
0
 74
0
  7

 75
0
147
1.0
148
0.0
149
0.0
100
AcDbLayout
  1
Model
 70
1
 71
0
 10
0.0
 20
0.0
 11
12.0
 21
9.0
 12
0.0
 22
0.0
 32
0.0
 14
0.0
 24
0.0
 34
0.0
 15
0.0
 25
0.0
 35
0.0
146
0.0
 13
0.0
 23
0.0
 33
0.0
 16
1.0
 26
0.0
 36
0.0
 17
0.0
 27
1.0
 37
0.0
 76
0
330
1F
  0
LAYOUT
  5
26
100
AcDbPlotSettings
  1

  2
none_device
  4

  6

 40
0.0
 41
0.0
 42
0.0
 43
0.0
 44
0.0
 45
0.0
 46
0.0
 47
0.0
 48
0.0
 49
0.0
140
0.0
141
0.0
142
1.0
143
1.0
 70
688
 72
0
 73
0
 74
5
  7

 75
16
147
1.0
148
0.0
149
0.0
100
AcDbLayout
  1
Layout2
 70
1
 71
2
 10
0.0
 20
0.0
 11
12.0
 21
9.0
 12
0.0
 22
0.0
 32
0.0
 14
0.0
 24
0.0
 34
0.0
 15
0.0
 25
0.0
 35
0.0
146
0.0
 13
0.0
 23
0.0
 33
0.0
 16
1.0
 26
0.0
 36
0.0
 17
0.0
 27
1.0
 37
0.0
 76
0
330
23
  0
DICTIONARY
  5
187
100
AcDbDictionary
281
1
  3
DIMASSOC
350
18A
  3
HIDETEXT
350
189
  0
DICTIONARYVAR
  5
189
100
DictionaryVariables
280
0
  1
2
  0
DICTIONARYVAR
  5
18A
100
DictionaryVariables
280
0
  1
1
  0
DICTIONARY
  5
188
100
AcDbDictionary
281
1
  3
Grid/DisplayGrid00
350
18B
  3
Grid/DisplayGrid01
350
18C
  3
Grid/DisplayGrid02
350
18D
  3
Grid/DisplayGrid03
350
18E
  3
Grid/GridSpacingX00
350
18F
  3
Grid/GridSpacingX01
350
190
  3
Grid/GridSpacingX02
350
191
  3
Grid/GridSpacingX03
350
192
  3
Grid/GridSpacingY00
350
193
  3
Grid/GridSpacingY01
350
194
  3
Grid/GridSpacingY02
350
195
  3
Grid/GridSpacingY03
350
196
  3
Grid/IsometricGrid00
350
197
  3
Grid/IsometricGrid01
350
198
  3
Grid/IsometricGrid02
350
199
  3
Grid/IsometricGrid03
350
19A
  3
Grid/IsometricProjection00
350
19B
  3
Grid/IsometricProjection01
350
19C
  3
Grid/IsometricProjection02
350
19D
  3
Grid/IsometricProjection03
350
19E
  3
Grid/MetaGridSpacingX00
350
19F
  3
Grid/MetaGridSpacingX01
350
1A0
  3
Grid/MetaGridSpacingX02
350
1A1
  3
Grid/MetaGridSpacingX03
350
1A2
  3
Grid/MetaGridSpacingY00
350
1A3
  3
Grid/MetaGridSpacingY01
350
1A4
  3
Grid/MetaGridSpacingY02
350
1A5
  3
Grid/MetaGridSpacingY03
350
1A6
  3
MultiPageSettings/Columns
350
1A7
  3
MultiPageSettings/GlueMarginsBottom
350
1A8
  3
MultiPageSettings/GlueMarginsLeft
350
1A9
  3
MultiPageSettings/GlueMarginsRight
350
1AA
  3
MultiPageSettings/GlueMarginsTop
350
1AB
  3
MultiPageSettings/PrintCropMarks
350
1AC
  3
MultiPageSettings/Rows
350
1AD
  3
PageSettings/OffsetX
350
1AE
  3
PageSettings/OffsetY
350
1AF
  3
PageSettings/PageOrientation
350
1B0
  3
PageSettings/PaperHeight
350
1B1
  3
PageSettings/PaperWidth
350
1B2
  3
PageSettings/Scale
350
1B3
  3
PageSettings/ShowPaperBorders
350
1B4
  3
UnitSettings/PaperUnit
350
1B5
  0
XRECORD
  5
18B
330
188
100
AcDbXrecord
280
1
290
1
  0
XRECORD
  5
18C
330
188
100
AcDbXrecord
280
1
290
1
  0
XRECORD
  5
18D
330
188
100
AcDbXrecord
280
1
290
1
  0
XRECORD
  5
18E
330
188
100
AcDbXrecord
280
1
290
1
  0
XRECORD
  5
18F
330
188
100
AcDbXrecord
280
1
1000
auto
  0
XRECORD
  5
190
330
188
100
AcDbXrecord
280
1
1000
auto
  0
XRECORD
  5
191
330
188
100
AcDbXrecord
280
1
1000
auto
  0
XRECORD
  5
192
330
188
100
AcDbXrecord
280
1
1000
auto
  0
XRECORD
  5
193
330
188
100
AcDbXrecord
280
1
1000
auto
  0
XRECORD
  5
194
330
188
100
AcDbXrecord
280
1
1000
auto
  0
XRECORD
  5
195
330
188
100
AcDbXrecord
280
1
1000
auto
  0
XRECORD
  5
196
330
188
100
AcDbXrecord
280
1
1000
auto
  0
XRECORD
  5
197
330
188
100
AcDbXrecord
280
1
290
0
  0
XRECORD
  5
198
330
188
100
AcDbXrecord
280
1
290
0
  0
XRECORD
  5
199
330
188
100
AcDbXrecord
280
1
290
0
  0
XRECORD
  5
19A
330
188
100
AcDbXrecord
280
1
290
0
  0
XRECORD
  5
19B
330
188
100
AcDbXrecord
280
1
 90
0
  0
XRECORD
  5
19C
330
188
100
AcDbXrecord
280
1
 90
0
  0
XRECORD
  5
19D
330
188
100
AcDbXrecord
280
1
 90
0
  0
XRECORD
  5
19E
330
188
100
AcDbXrecord
280
1
 90
0
  0
XRECORD
  5
19F
330
188
100
AcDbXrecord
280
1
1000
auto
  0
XRECORD
  5
1A0
330
188
100
AcDbXrecord
280
1
1000
auto
  0
XRECORD
  5
1A1
330
188
100
AcDbXrecord
280
1
1000
auto
  0
XRECORD
  5
1A2
330
188
100
AcDbXrecord
280
1
1000
auto
  0
XRECORD
  5
1A3
330
188
100
AcDbXrecord
280
1
1000
auto
  0
XRECORD
  5
1A4
330
188
100
AcDbXrecord
280
1
1000
auto
  0
XRECORD
  5
1A5
330
188
100
AcDbXrecord
280
1
1000
auto
  0
XRECORD
  5
1A6
330
188
100
AcDbXrecord
280
1
1000
auto
  0
XRECORD
  5
1A7
330
188
100
AcDbXrecord
280
1
 90
1
  0
XRECORD
  5
1A8
330
188
100
AcDbXrecord
280
1
 40
10.0
  0
XRECORD
  5
1A9
330
188
100
AcDbXrecord
280
1
 40
10.0
  0
XRECORD
  5
1AA
330
188
100
AcDbXrecord
280
1
 40
10.0
  0
XRECORD
  5
1AB
330
188
100
AcDbXrecord
280
1
 40
10.0
  0
XRECORD
  5
1AC
330
188
100
AcDbXrecord
280
1
290
0
  0
XRECORD
  5
1AD
330
188
100
AcDbXrecord
280
1
 90
1
  0
XRECORD
  5
1AE
330
188
100
AcDbXrecord
280
1
 40
832.480525870522456
  0
XRECORD
  5
1AF
330
188
100
AcDbXrecord
280
1
 40
-111.7816637399366044
  0
XRECORD
  5
1B0
330
188
100
AcDbXrecord
280
1
1000
Landscape
  0
XRECORD
  5
1B1
330
188
100
AcDbXrecord
280
1
 40
279.3999999999999773
  0
XRECORD
  5
1B2
330
188
100
AcDbXrecord
280
1
 40
215.9000000000000057
  0
XRECORD
  5
1B3
330
188
100
AcDbXrecord
280
1
1000
1:1
  0
XRECORD
  5
1B4
330
188
100
AcDbXrecord
280
1
290
1
  0
XRECORD
  5
1B5
330
188
100
AcDbXrecord
280
1
 90
4
  0
ENDSEC
  0
EOF
