999
dxflib 3.3.4.0
  0
SECTION
  2
HEADER
  9
$ACADVER
  1
AC1015
  9
$HANDSEED
  5
FFFF
  9
$DIMADEC
 70
0
  9
$DIMASZ
 40
2.5
  9
$DIMAUNIT
 70
0
  9
$DIMAZIN
 70
2
  9
$DIMDEC
 70
4
  9
$DIMEXE
 40
1.25
  9
$DIMEXO
 40
0.625
  9
$DIMGAP
 40
0.625
  9
$DIMLUNIT
 70
2
  9
$DIMTSZ
 40
0.0
  9
$DIMTXT
 40
2.5
  9
$DIMZIN
 70
8
  9
$DWGCODEPAGE
  3
ANSI_1252
  9
$INSUNITS
 70
4
  9
$LTSCALE
 40
1.0
  0
ENDSEC
  0
SECTION
  2
TABLES
  0
TABLE
  2
VPORT
  5
8
100
AcDbSymbolTable
 70
1
  0
VPORT
  5
30
100
AcDbSymbolTableRecord
100
AcDbViewportTableRecord
  2
*Active
 70
0
 10
0.0
 20
0.0
 11
1.0
 21
1.0
 12
286.3055555555554861
 22
148.5
 13
0.0
 23
0.0
 14
10.0
 24
10.0
 15
10.0
 25
10.0
 16
0.0
 26
0.0
 36
1.0
 17
0.0
 27
0.0
 37
0.0
 40
297.0
 41
1.92798353909465
 42
50.0
 43
0.0
 44
0.0
 50
0.0
 51
0.0
 71
0
 72
100
 73
1
 74
3
 75
1
 76
1
 77
0
 78
0
281
0
 65
1
110
0.0
120
0.0
130
0.0
111
1.0
121
0.0
131
0.0
112
0.0
122
1.0
132
0.0
 79
0
146
0.0
  0
ENDTAB
  0
TABLE
  2
LTYPE
  5
5
100
AcDbSymbolTable
 70
21
  0
LTYPE
  5
16
100
AcDbSymbolTableRecord
100
AcDbLinetypeTableRecord
  2
CONTINUOUS
 70
0
  3
Solid line
 72
65
 73
0
 40
0.0
  0
LTYPE
  5
31
100
AcDbSymbolTableRecord
100
AcDbLinetypeTableRecord
  2
CENTER2
 70
0
  3
Center (.5x) ___ _ ___ _ ___ _ ___ _ ___ _ ___
 72
65
 73
4
 40
28.5749999999999993
 49
19.0500000000000007
 74
0
 49
-3.1749999999999998
 74
0
 49
3.1749999999999998
 74
0
 49
-3.1749999999999998
 74
0
  0
LTYPE
  5
32
100
AcDbSymbolTableRecord
100
AcDbLinetypeTableRecord
  2
DIVIDEX2
 70
0
  3
Divide (2x) ________  .  .  ________  .  .  _
 72
65
 73
6
 40
63.5
 49
25.3999999999999986
 74
0
 49
-12.6999999999999993
 74
0
 49
0.0
 74
0
 49
-12.6999999999999993
 74
0
 49
0.0
 74
0
 49
-12.6999999999999993
 74
0
  0
LTYPE
  5
33
100
AcDbSymbolTableRecord
100
AcDbLinetypeTableRecord
  2
DOT2
 70
0
  3
Dot (.5x) .....................................
 72
65
 73
2
 40
3.1749999999999998
 49
0.0
 74
0
 49
-3.1749999999999998
 74
0
  0
LTYPE
  5
34
100
AcDbSymbolTableRecord
100
AcDbLinetypeTableRecord
  2
DASHDOT2
 70
0
  3
Dash dot (.5x) _._._._._._._._._._._._._._._.
 72
65
 73
4
 40
12.6999999999999993
 49
6.3499999999999996
 74
0
 49
-3.1749999999999998
 74
0
 49
0.0
 74
0
 49
-3.1749999999999998
 74
0
  0
LTYPE
  5
35
100
AcDbSymbolTableRecord
100
AcDbLinetypeTableRecord
  2
DIVIDE
 70
0
  3
Divide ____ . . ____ . . ____ . . ____ . . ____
 72
65
 73
6
 40
31.75
 49
12.6999999999999993
 74
0
 49
-6.3499999999999996
 74
0
 49
0.0
 74
0
 49
-6.3499999999999996
 74
0
 49
0.0
 74
0
 49
-6.3499999999999996
 74
0
  0
LTYPE
  5
36
100
AcDbSymbolTableRecord
100
AcDbLinetypeTableRecord
  2
DASHDOT
 70
0
  3
Dash dot __ . __ . __ . __ . __ . __ . __ . __
 72
65
 73
4
 40
25.3999999999999986
 49
12.6999999999999993
 74
0
 49
-6.3499999999999996
 74
0
 49
0.0
 74
0
 49
-6.3499999999999996
 74
0
  0
LTYPE
  5
37
100
AcDbSymbolTableRecord
100
AcDbLinetypeTableRecord
  2
BORDER
 70
0
  3
Border __ __ . __ __ . __ __ . __ __ . __ __ .
 72
65
 73
6
 40
44.4500000000000028
 49
12.6999999999999993
 74
0
 49
-6.3499999999999996
 74
0
 49
12.6999999999999993
 74
0
 49
-6.3499999999999996
 74
0
 49
0.0
 74
0
 49
-6.3499999999999996
 74
0
  0
LTYPE
  5
38
100
AcDbSymbolTableRecord
100
AcDbLinetypeTableRecord
  2
DASHDOTX2
 70
0
  3
Dash dot (2x) ____  .  ____  .  ____  .  ___
 72
65
 73
4
 40
50.7999999999999972
 49
25.3999999999999986
 74
0
 49
-12.6999999999999993
 74
0
 49
0.0
 74
0
 49
-12.6999999999999993
 74
0
  0
LTYPE
  5
39
100
AcDbSymbolTableRecord
100
AcDbLinetypeTableRecord
  2
CENTERX2
 70
0
  3
Center (2x) ________  __  ________  __  _____
 72
65
 73
4
 40
101.5999999999999943
 49
63.5
 74
0
 49
-12.6999999999999993
 74
0
 49
12.6999999999999993
 74
0
 49
-12.6999999999999993
 74
0
  0
LTYPE
  5
3A
100
AcDbSymbolTableRecord
100
AcDbLinetypeTableRecord
  2
BORDER2
 70
0
  3
Border (.5x) __.__.__.__.__.__.__.__.__.__.__.
 72
65
 73
6
 40
22.2250000000000014
 49
6.3499999999999996
 74
0
 49
-3.1749999999999998
 74
0
 49
6.3499999999999996
 74
0
 49
-3.1749999999999998
 74
0
 49
0.0
 74
0
 49
-3.1749999999999998
 74
0
  0
LTYPE
  5
3B
100
AcDbSymbolTableRecord
100
AcDbLinetypeTableRecord
  2
BORDERX2
 70
0
  3
Border (2x) ____  ____  .  ____  ____  .  ___
 72
65
 73
6
 40
88.9000000000000057
 49
25.3999999999999986
 74
0
 49
-12.6999999999999993
 74
0
 49
25.3999999999999986
 74
0
 49
-12.6999999999999993
 74
0
 49
0.0
 74
0
 49
-12.6999999999999993
 74
0
  0
LTYPE
  5
14
100
AcDbSymbolTableRecord
100
AcDbLinetypeTableRecord
  2
BYBLOCK
 70
0
  3

 72
65
 73
0
 40
0.0
  0
LTYPE
  5
15
100
AcDbSymbolTableRecord
100
AcDbLinetypeTableRecord
  2
BYLAYER
 70
0
  3

 72
65
 73
0
 40
0.0
  0
LTYPE
  5
3C
100
AcDbSymbolTableRecord
100
AcDbLinetypeTableRecord
  2
DASHED2
 70
0
  3
Dashed (.5x) _ _ _ _ _ _ _ _ _ _ _ _ _ _ _ _ _
 72
65
 73
2
 40
9.5250000000000004
 49
6.3499999999999996
 74
0
 49
-3.1749999999999998
 74
0
  0
LTYPE
  5
3D
100
AcDbSymbolTableRecord
100
AcDbLinetypeTableRecord
  2
CENTER
 70
0
  3
Center ____ _ ____ _ ____ _ ____ _ ____ _ ____
 72
65
 73
4
 40
50.7999999999999972
 49
31.75
 74
0
 49
-6.3499999999999996
 74
0
 49
6.3499999999999996
 74
0
 49
-6.3499999999999996
 74
0
  0
LTYPE
  5
3E
100
AcDbSymbolTableRecord
100
AcDbLinetypeTableRecord
  2
DIVIDE2
 70
0
  3
Divide (.5x) __..__..__..__..__..__..__..__.._
 72
65
 73
6
 40
15.875
 49
6.3499999999999996
 74
0
 49
-3.1749999999999998
 74
0
 49
0.0
 74
0
 49
-3.1749999999999998
 74
0
 49
0.0
 74
0
 49
-3.1749999999999998
 74
0
  0
LTYPE
  5
3F
100
AcDbSymbolTableRecord
100
AcDbLinetypeTableRecord
  2
DASHED
 70
0
  3
Dashed __ __ __ __ __ __ __ __ __ __ __ __ __ _
 72
65
 73
2
 40
19.0500000000000007
 49
12.6999999999999993
 74
0
 49
-6.3499999999999996
 74
0
  0
LTYPE
  5
40
100
AcDbSymbolTableRecord
100
AcDbLinetypeTableRecord
  2
DOTX2
 70
0
  3
Dot (2x) .  .  .  .  .  .  .  .  .  .  .  .  .
 72
65
 73
2
 40
12.6999999999999993
 49
0.0
 74
0
 49
-12.6999999999999993
 74
0
  0
LTYPE
  5
41
100
AcDbSymbolTableRecord
100
AcDbLinetypeTableRecord
  2
DASHEDX2
 70
0
  3
Dashed (2x) ____  ____  ____  ____  ____  ___
 72
65
 73
2
 40
38.1000000000000014
 49
25.3999999999999986
 74
0
 49
-12.6999999999999993
 74
0
  0
LTYPE
  5
42
100
AcDbSymbolTableRecord
100
AcDbLinetypeTableRecord
  2
DOT
 70
0
  3
Dot . . . . . . . . . . . . . . . . . . . . . .
 72
65
 73
2
 40
6.3499999999999996
 49
0.0
 74
0
 49
-6.3499999999999996
 74
0
  0
ENDTAB
  0
TABLE
  2
LAYER
  5
2
100
AcDbSymbolTable
 70
1
  0
LAYER
  5
10
100
AcDbSymbolTableRecord
100
AcDbLayerTableRecord
  2
0
 70
0
 62
7
420
0
  6
CONTINUOUS
370
25
390
F
  0
ENDTAB
  0
TABLE
  2
STYLE
  5
3
100
AcDbSymbolTable
 70
9
  0
STYLE
  5
43
100
AcDbSymbolTableRecord
100
AcDbTextStyleTableRecord
  2
Standard
 70
0
 40
0.0
 41
1.0
 50
0.0
 71
0
 42
2.5
  3

  4

1001
ACAD
1000
txt
1071
0
  0
STYLE
  5
44
100
AcDbSymbolTableRecord
100
AcDbTextStyleTableRecord
  2
textstyle0
 70
0
 40
0.0
 41
1.0
 50
0.0
 71
0
 42
2.5
  3

  4

1001
ACAD
1000
Liberation Sans
1071
0
  0
STYLE
  5
45
100
AcDbSymbolTableRecord
100
AcDbTextStyleTableRecord
  2
textstyle1
 70
0
 40
0.0
 41
1.0
 50
0.0
 71
0
 42
2.5
  3

  4

1001
ACAD
1000
Liberation Sans
1071
0
  0
STYLE
  5
46
100
AcDbSymbolTableRecord
100
AcDbTextStyleTableRecord
  2
textstyle2
 70
0
 40
0.0
 41
1.0
 50
0.0
 71
0
 42
2.5
  3

  4

1001
ACAD
1000
Liberation Sans
1071
0
  0
STYLE
  5
47
100
AcDbSymbolTableRecord
100
AcDbTextStyleTableRecord
  2
textstyle3
 70
0
 40
0.0
 41
1.0
 50
0.0
 71
0
 42
2.5
  3

  4

1001
ACAD
1000
Liberation Sans
1071
0
  0
STYLE
  5
48
100
AcDbSymbolTableRecord
100
AcDbTextStyleTableRecord
  2
textstyle4
 70
0
 40
0.0
 41
1.0
 50
0.0
 71
0
 42
2.5
  3

  4

1001
ACAD
1000
Liberation Sans
1071
0
  0
STYLE
  5
49
100
AcDbSymbolTableRecord
100
AcDbTextStyleTableRecord
  2
textstyle5
 70
0
 40
0.0
 41
1.0
 50
0.0
 71
0
 42
2.5
  3

  4

1001
ACAD
1000
Liberation Sans
1071
0
  0
STYLE
  5
4A
100
AcDbSymbolTableRecord
100
AcDbTextStyleTableRecord
  2
textstyle6
 70
0
 40
0.0
 41
1.0
 50
0.0
 71
0
 42
2.5
  3

  4

1001
ACAD
1000
Liberation Sans
1071
0
  0
STYLE
  5
4B
100
AcDbSymbolTableRecord
100
AcDbTextStyleTableRecord
  2
textstyle7
 70
0
 40
0.0
 41
1.0
 50
0.0
 71
0
 42
2.5
  3

  4

1001
ACAD
1000
Liberation Sans
1071
0
  0
ENDTAB
  0
TABLE
  2
VIEW
  5
6
100
AcDbSymbolTable
 70
0
  0
ENDTAB
  0
TABLE
  2
UCS
  5
7
100
AcDbSymbolTable
 70
0
  0
ENDTAB
  0
TABLE
  2
APPID
  5
9
100
AcDbSymbolTable
 70
1
  0
APPID
  5
12
100
AcDbSymbolTableRecord
100
AcDbRegAppTableRecord
  2
ACAD
 70
0
  0
APPID
  5
4C
100
AcDbSymbolTableRecord
100
AcDbRegAppTableRecord
  2
QCAD
 70
0
  0
ENDTAB
  0
TABLE
  2
DIMSTYLE
  5
A
100
AcDbSymbolTable
 70
1
100
AcDbDimStyleTable
 71
0
  0
DIMSTYLE
105
27
100
AcDbSymbolTableRecord
100
AcDbDimStyleTableRecord
  2
Standard
 41
2.5
 42
0.625
 43
3.75
 44
1.25
 70
0
 73
0
 74
0
 77
1
 78
8
140
2.5
141
2.5
143
0.03937007874016
147
0.625
171
3
172
1
271
2
272
2
274
3
278
44
283
0
284
8
340
43
  0
ENDTAB
  0
TABLE
  2
BLOCK_RECORD
  5
1
100
AcDbSymbolTable
 70
1
  0
BLOCK_RECORD
  5
1F
100
AcDbSymbolTableRecord
100
AcDbBlockTableRecord
  2
*Model_Space
340
22
  0
BLOCK_RECORD
  5
1B
100
AcDbSymbolTableRecord
100
AcDbBlockTableRecord
  2
*Paper_Space
340
1E
  0
BLOCK_RECORD
  5
23
100
AcDbSymbolTableRecord
100
AcDbBlockTableRecord
  2
*Paper_Space0
340
26
  0
ENDTAB
  0
ENDSEC
  0
SECTION
  2
BLOCKS
  0
BLOCK
  5
20
100
AcDbEntity
  8
0
100
AcDbBlockBegin
  2
*Model_Space
 70
0
 10
0.0
 20
0.0
 30
0.0
  3
*Model_Space
  1

  0
ENDBLK
  5
21
100
AcDbEntity
  8
0
100
AcDbBlockEnd
  0
BLOCK
  5
1C
100
AcDbEntity
 67
1
  8
0
100
AcDbBlockBegin
  2
*Paper_Space
 70
0
 10
0.0
 20
0.0
 30
0.0
  3
*Paper_Space
  1

  0
ENDBLK
  5
1D
100
AcDbEntity
 67
1
  8
0
100
AcDbBlockEnd
  0
BLOCK
  5
24
100
AcDbEntity
  8
0
100
AcDbBlockBegin
  2
*Paper_Space0
 70
0
 10
0.0
 20
0.0
 30
0.0
  3
*Paper_Space0
  1

  0
ENDBLK
  5
25
100
AcDbEntity
  8
0
100
AcDbBlockEnd
  0
ENDSEC
  0
SECTION
  2
ENTITIES
  0
LINE
  5
4D
100
AcDbEntity
100
AcDbLine
  8
0
 62
256
370
-1
  6
BYLAYER
 10
350.0
 20
270.0
 30
0.0
 11
120.0
 21
270.0
 31
0.0
  0
LINE
  5
4E
100
AcDbEntity
100
AcDbLine
  8
0
 62
256
370
-1
  6
BYLAYER
 10
-160.0
 20
-22.5
 30
0.0
 11
740.0
 21
-22.5
 31
0.0
  0
LINE
  5
4F
100
AcDbEntity
100
AcDbLine
  8
0
 62
256
370
-1
  6
BYLAYER
 10
635.0
 20
-22.5
 30
0.0
 11
635.0
 21
22.5
 31
0.0
  0
LINE
  5
50
100
AcDbEntity
100
AcDbLine
  8
0
 62
256
370
-1
  6
BYLAYER
 10
0.0
 20
22.5
 30
0.0
 11
0.0
 21
-22.5
 31
0.0
  0
LINE
  5
51
100
AcDbEntity
100
AcDbLine
  8
0
 62
256
370
-1
  6
BYLAYER
 10
0.0
 20
22.5
 30
0.0
 11
-30.0
 21
40.0
 31
0.0
  0
LINE
  5
52
100
AcDbEntity
100
AcDbLine
  8
0
 62
256
370
-1
  6
BYLAYER
 10
-30.0
 20
40.0
 30
0.0
 11
-144.3689344786703543
 21
22.5
 31
0.0
  0
LINE
  5
53
100
AcDbEntity
100
AcDbLine
  8
0
 62
256
370
-1
  6
BYLAYER
 10
-144.3689344786703543
 20
22.4999999999999929
 30
0.0
 11
-150.0
 21
0.0
 31
0.0
  0
LINE
  5
54
100
AcDbEntity
100
AcDbLine
  8
0
 62
256
370
-1
  6
BYLAYER
 10
0.0
 20
-22.5
 30
0.0
 11
-30.0
 21
-40.0
 31
0.0
  0
LINE
  5
55
100
AcDbEntity
100
AcDbLine
  8
0
 62
256
370
-1
  6
BYLAYER
 10
-30.0
 20
-40.0
 30
0.0
 11
-144.3689344786703543
 21
-22.4999999999999964
 31
0.0
  0
LINE
  5
56
100
AcDbEntity
100
AcDbLine
  8
0
 62
256
370
-1
  6
BYLAYER
 10
-144.3689344786703543
 20
-22.4999999999999964
 30
0.0
 11
-150.0
 21
0.0
 31
0.0
  0
LINE
  5
57
100
AcDbEntity
100
AcDbLine
  8
0
 62
256
370
-1
  6
BYLAYER
 10
-9.8000000000000007
 20
-127.0
 30
0.0
 11
9.7999999999999972
 21
-127.0
 31
0.0
  0
LINE
  5
58
100
AcDbEntity
100
AcDbLine
  8
0
 62
256
370
-1
  6
BYLAYER
 10
22.5
 20
-114.3000000000000114
 30
0.0
 11
22.5
 21
-107.0
 31
0.0
  0
LINE
  5
59
100
AcDbEntity
100
AcDbLine
  8
0
 62
256
370
-1
  6
BYLAYER
 10
22.5
 20
-107.0
 30
0.0
 11
-22.5
 21
-107.0
 31
0.0
  0
LINE
  5
5A
100
AcDbEntity
100
AcDbLine
  8
0
 62
256
370
-1
  6
BYLAYER
 10
-22.5
 20
-107.0
 30
0.0
 11
-22.5
 21
-114.3000000000000114
 31
0.0
  0
LINE
  5
5B
100
AcDbEntity
100
AcDbLine
  8
0
 62
256
370
-1
  6
BYLAYER
 10
3.1499999999999986
 20
-107.0
 30
0.0
 11
3.1499999999999986
 21
-127.0
 31
0.0
  0
LINE
  5
5C
100
AcDbEntity
100
AcDbLine
  8
0
 62
256
370
-1
  6
BYLAYER
 10
-3.1499999999999986
 20
-107.0
 30
0.0
 11
-3.1500000000000021
 21
-127.0
 31
0.0
  0
MTEXT
  5
5D
100
AcDbEntity
100
AcDbMText
  8
0
 62
256
370
-1
  6
BYLAYER
 10
7.5
 20
-117.0
 30
0.0
 40
2.5
 41
0.0
 71
1
 72
1
  1
Maple
  7
textstyle0
 50
0.0
 73
2
 44
1.0
  0
MTEXT
  5
5E
100
AcDbEntity
100
AcDbMText
  8
0
 62
256
370
-1
  6
BYLAYER
 10
-17.5
 20
-117.0
 30
0.0
 40
2.5
 41
0.0
 71
1
 72
1
  1
Maple
  7
textstyle1
 50
0.0
 73
2
 44
1.0
  0
MTEXT
  5
5F
100
AcDbEntity
100
AcDbMText
  8
0
 62
256
370
-1
  6
BYLAYER
 10
-1.5
 20
-124.0
 30
0.0
 40
2.5
 41
0.0
 71
1
 72
1
  1
Arariba?
  7
textstyle2
 50
90.0
 73
2
 44
1.0
  0
ARC
  5
60
100
AcDbEntity
  8
0
 62
256
370
-1
  6
BYLAYER
100
AcDbCircle
 10
-9.8000000000000007
 20
-114.3000000000000114
 30
0.0
 40
12.6999999999999993
100
AcDbArc
 50
180.0
 51
270.0
  0
ARC
  5
61
100
AcDbEntity
  8
0
 62
256
370
-1
  6
BYLAYER
100
AcDbCircle
 10
9.7999999999999972
 20
-114.3000000000000114
 30
0.0
 40
12.6999999999999993
100
AcDbArc
 50
270.0
 51
0.0
  0
LINE
  5
62
100
AcDbEntity
100
AcDbLine
  8
0
 62
256
370
-1
  6
BYLAYER
 10
-22.5
 20
-107.0
 30
0.0
 11
22.5
 21
-107.0
 31
0.0
  0
LINE
  5
63
100
AcDbEntity
100
AcDbLine
  8
0
 62
256
370
-1
  6
BYLAYER
 10
22.5
 20
-107.0
 30
0.0
 11
22.5
 21
-101.5615714555403173
 31
0.0
  0
LINE
  5
64
100
AcDbEntity
100
AcDbLine
  8
0
 62
256
370
-1
  6
BYLAYER
 10
-22.5
 20
-101.5615714555403173
 30
0.0
 11
-22.5
 21
-107.0
 31
0.0
  0
MTEXT
  5
65
100
AcDbEntity
100
AcDbMText
  8
0
 62
256
370
-1
  6
BYLAYER
 10
-16.5
 20
-102.0
 30
0.0
 40
2.5
 41
0.0
 71
1
 72
1
  1
Walnut?  Rosewood?
  7
textstyle3
 50
0.0
 73
2
 44
1.0
  0
DIMENSION
  5
66
100
AcDbEntity
  8
0
 62
256
370
-1
  6
BYLAYER
100
AcDbDimension
 10
-26.0
 20
-99.9969241834995159
 30
0.0
 11
-27.875
 21
-103.498462091749758
 31
0.0
 70
1
 71
8
 72
2
 41
1.0
 42
0.0
  1
7
  3
Standard
100
AcDbAlignedDimension
 13
0.0
 23
-99.9969241834995159
 33
0.0
 14
0.0
 24
-107.0
 34
0.0
1001
ACAD
1000
DSTYLE
1002
{
1070
144
1040
1
1002
}
  0
ARC
  5
67
100
AcDbEntity
  8
0
 62
256
370
-1
  6
BYLAYER
100
AcDbCircle
 10
0.0
 20
-262.5569241834995182
 30
0.0
 40
162.5600000000000023
100
AcDbArc
 50
82.0441247095331363
 51
97.9558752904668779
  0
MTEXT
  5
68
100
AcDbEntity
100
AcDbMText
  8
0
 62
256
370
-1
  6
BYLAYER
 10
-15.0
 20
-129.0
 30
0.0
 40
2.5
 41
0.0
 71
1
 72
1
  1
Neck Cross Section
  7
textstyle4
 50
0.0
 73
2
 44
1.0
  0
DIMENSION
  5
69
100
AcDbEntity
  8
0
 62
256
370
-1
  6
BYLAYER
100
AcDbDimension
 10
30.0
 20
-107.0
 30
0.0
 11
28.125
 21
-117.0
 31
0.0
 70
1
 71
8
 72
2
 41
1.0
 42
0.0
  1

  3
Standard
100
AcDbAlignedDimension
 13
3.1499999999999986
 23
-107.0
 33
0.0
 14
3.1499999999999986
 24
-127.0000000000000142
 34
0.0
1001
ACAD
1000
DSTYLE
1002
{
1070
144
1040
1
1002
}
  0
DIMENSION
  5
6A
100
AcDbEntity
  8
0
 62
256
370
-1
  6
BYLAYER
100
AcDbDimension
 10
-22.4999999999999964
 20
-90.0
 30
0.0
 11
0.0000000000000041
 21
-88.125
 31
0.0
 70
1
 71
8
 72
2
 41
1.0
 42
0.0
  1

  3
Standard
100
AcDbAlignedDimension
 13
-22.5
 23
-101.5615714555403173
 33
0.0
 14
22.5
 24
-101.5615714555403315
 34
0.0
1001
ACAD
1000
DSTYLE
1002
{
1070
144
1040
1
1002
}
  0
LINE
  5
6B
100
AcDbEntity
100
AcDbLine
  8
0
 62
256
370
-1
  6
BYLAYER
 10
0.0
 20
250.0
 30
0.0
 11
294.0
 21
250.0
 31
0.0
  0
LINE
  5
6C
100
AcDbEntity
100
AcDbLine
  8
0
 62
256
370
-1
  6
BYLAYER
 10
120.0
 20
270.0
 30
0.0
 11
0.0
 21
250.0
 31
0.0
  0
LINE
  5
6D
100
AcDbEntity
100
AcDbLine
  8
0
 62
256
370
-1
  6
BYLAYER
 10
-148.764367816092772
 20
245.1724137931035443
 30
0.0
 11
-0.8333333333341955
 21
270.0
 31
0.0
  0
LINE
  5
6E
100
AcDbEntity
100
AcDbLine
  8
0
 62
256
370
-1
  6
BYLAYER
 10
120.8218390804589149
 20
270.1379310344826195
 30
0.0
 11
-145.4540229885064946
 21
225.4482758620691811
 31
0.0
  0
DIMENSION
  5
6F
100
AcDbEntity
  8
0
 62
256
370
-1
  6
BYLAYER
100
AcDbDimension
 10
121.6551724137931103
 20
250.1379310344826195
 30
0.0
 11
105.8167682407861321
 21
258.8180640200662879
 31
0.0
 70
2
 71
8
 72
2
 41
1.0
 42
0.0
  1

  3
Standard
100
AcDb2LineAngularDimension
 13
120.0
 23
270.0
 33
0.0
 14
0.0
 24
250.0
 34
0.0
 15
0.0
 25
250.0
 35
0.0
 16
103.9359491452661644
 26
258.8086590713846817
 36
0.0
  0
LINE
  5
70
100
AcDbEntity
100
AcDbLine
  8
0
 62
256
370
-1
  6
BYLAYER
 10
0.0
 20
-422.5
 30
0.0
 11
-30.0
 21
-440.0
 31
0.0
  0
LINE
  5
71
100
AcDbEntity
100
AcDbLine
  8
0
 62
256
370
-1
  6
BYLAYER
 10
-30.0
 20
-440.0
 30
0.0
 11
-136.7589472773719308
 21
-452.9071603110710384
 31
0.0
  0
LINE
  5
72
100
AcDbEntity
100
AcDbLine
  8
0
 62
256
370
-1
  6
BYLAYER
 10
-136.7589472773719308
 20
-452.9071603110710384
 30
0.0
 11
-150.0
 21
-400.0
 31
0.0
  0
LINE
  5
73
100
AcDbEntity
100
AcDbLine
  8
0
 62
256
370
-1
  6
BYLAYER
 10
820.0
 20
-377.5
 30
0.0
 11
819.9999999999997726
 21
-422.5
 31
0.0
  0
LINE
  5
74
100
AcDbEntity
100
AcDbLine
  8
0
 62
256
370
-1
  6
BYLAYER
 10
-160.0
 20
-422.5
 30
0.0
 11
819.9999999999997726
 21
-422.5
 31
0.0
  0
LINE
  5
75
100
AcDbEntity
100
AcDbLine
  8
0
 62
256
370
-1
  6
BYLAYER
 10
635.0
 20
-422.5
 30
0.0
 11
635.0
 21
-377.5
 31
0.0
  0
LINE
  5
76
100
AcDbEntity
100
AcDbLine
  8
0
 62
256
370
-1
  6
BYLAYER
 10
820.0
 20
-377.5
 30
0.0
 11
-159.9999999999996589
 21
-377.5
 31
0.0
  0
LINE
  5
77
100
AcDbEntity
100
AcDbLine
  8
0
 62
256
370
-1
  6
BYLAYER
 10
0.0
 20
-377.5
 30
0.0
 11
0.0
 21
-422.5
 31
0.0
  0
LINE
  5
78
100
AcDbEntity
100
AcDbLine
  8
0
 62
256
370
-1
  6
BYLAYER
 10
0.0
 20
-377.5
 30
0.0
 11
-30.0
 21
-360.0
 31
0.0
  0
LINE
  5
79
100
AcDbEntity
100
AcDbLine
  8
0
 62
256
370
-1
  6
BYLAYER
 10
-30.0
 20
-360.0
 30
0.0
 11
-136.7589472773719308
 21
-347.0928396889289616
 31
0.0
  0
LINE
  5
7A
100
AcDbEntity
100
AcDbLine
  8
0
 62
256
370
-1
  6
BYLAYER
 10
-136.7589472773719308
 20
-347.0928396889289616
 30
0.0
 11
-150.0
 21
-400.0
 31
0.0
  0
LINE
  5
7B
100
AcDbEntity
100
AcDbLine
  8
0
 62
256
370
-1
  6
BYLAYER
 10
-0.8333333333341955
 20
270.0
 30
0.0
 11
120.0000000000001563
 21
270.0
 31
0.0
  0
LINE
  5
7C
100
AcDbEntity
100
AcDbLine
  8
0
 62
256
370
-1
  6
BYLAYER
 10
745.0
 20
22.5
 30
0.0
 11
744.9999999999997726
 21
-22.5
 31
0.0
  0
LINE
  5
7D
100
AcDbEntity
100
AcDbLine
  8
0
 62
256
370
-1
  6
BYLAYER
 10
-148.764367816092772
 20
245.1724137931035443
 30
0.0
 11
-145.4540229885064946
 21
225.4482758620691811
 31
0.0
  0
LINE
  5
7E
100
AcDbEntity
100
AcDbLine
  8
0
 62
256
370
-1
  6
BYLAYER
 10
4.0
 20
270.0
 30
0.0
 11
414.0
 21
270.0
 31
0.0
  0
LINE
  5
7F
100
AcDbEntity
100
AcDbLine
  8
0
 62
256
370
-1
  6
BYLAYER
 10
414.0
 20
270.0
 30
0.0
 11
414.0
 21
277.0
 31
0.0
  0
LINE
  5
80
100
AcDbEntity
100
AcDbLine
  8
0
 62
256
370
-1
  6
BYLAYER
 10
414.0
 20
277.0
 30
0.0
 11
4.0
 21
277.0
 31
0.0
  0
LINE
  5
81
100
AcDbEntity
100
AcDbLine
  8
0
 62
256
370
-1
  6
BYLAYER
 10
4.0
 20
277.0
 30
0.0
 11
4.0
 21
270.0
 31
0.0
  0
LINE
  5
82
100
AcDbEntity
100
AcDbLine
  8
0
 62
256
370
-1
  6
BYLAYER
 10
4.0
 20
277.0
 30
0.0
 11
4.0
 21
281.0
 31
0.0
  0
LINE
  5
83
100
AcDbEntity
100
AcDbLine
  8
0
 62
256
370
-1
  6
BYLAYER
 10
4.0
 20
281.0
 30
0.0
 11
0.0
 21
281.0
 31
0.0
  0
LINE
  5
84
100
AcDbEntity
100
AcDbLine
  8
0
 62
256
370
-1
  6
BYLAYER
 10
0.0
 20
281.0
 30
0.0
 11
-0.0000000000000001
 21
270.0
 31
0.0
  0
LINE
  5
85
100
AcDbEntity
100
AcDbLine
  8
0
 62
256
370
-1
  6
BYLAYER
 10
735.0000000000002274
 20
259.9999999999986358
 30
0.0
 11
735.0
 21
230.0
 31
0.0
  0
LINE
  5
86
100
AcDbEntity
100
AcDbLine
  8
0
 62
256
370
-1
  6
BYLAYER
 10
324.0
 20
190.0
 30
0.0
 11
744.0060921937442799
 21
189.9999999999994884
 31
0.0
  0
LINE
  5
87
100
AcDbEntity
100
AcDbLine
  8
0
 62
256
370
-1
  6
BYLAYER
 10
744.0060921937442799
 20
189.9999999999995453
 30
0.0
 11
744.0060921937443936
 21
264.9999999999980673
 31
0.0
  0
LINE
  5
88
100
AcDbEntity
100
AcDbLine
  8
0
 62
256
370
-1
  6
BYLAYER
 10
739.0060921937443936
 20
269.9999999999979536
 30
0.0
 11
324.0
 21
269.9999999999999432
 31
0.0
  0
LINE
  5
89
100
AcDbEntity
100
AcDbLine
  8
0
 62
256
370
-1
  6
BYLAYER
 10
324.0
 20
269.9999999999999432
 30
0.0
 11
324.0
 21
190.0
 31
0.0
  0
SPLINE
  5
8A
  8
0
 62
256
370
-1
  6
BYLAYER
100
AcDbEntity
100
AcDbSpline
 70
8
 71
3
 72
9
 73
5
 74
0
 40
0.0
 40
0.0
 40
0.0
 40
0.0
 40
1.0
 40
2.0
 40
2.0
 40
2.0
 40
2.0
 10
294.0
 20
250.0
 30
0.0
 10
299.0
 20
250.0
 30
0.0
 10
310.0
 20
247.0
 30
0.0
 10
315.0
 20
236.0
 30
0.0
 10
314.7149459921944867
 20
230.0
 30
0.0
  0
LINE
  5
8B
100
AcDbEntity
100
AcDbLine
  8
0
 62
256
370
-1
  6
BYLAYER
 10
314.7149459921945436
 20
230.0
 30
0.0
 11
735.0
 21
230.0
 31
0.0
  0
LINE
  5
8C
100
AcDbEntity
100
AcDbLine
  8
0
 62
256
370
-1
  6
BYLAYER
 10
620.0
 20
50.0
 30
0.0
 11
620.0
 21
-50.0
 31
0.0
  0
LINE
  5
8D
100
AcDbEntity
100
AcDbLine
  8
0
 62
256
370
-1
  6
BYLAYER
 10
620.0
 20
-50.0
 30
0.0
 11
650.0
 21
-50.0
 31
0.0
  0
LINE
  5
8E
100
AcDbEntity
100
AcDbLine
  8
0
 62
256
370
-1
  6
BYLAYER
 10
650.0
 20
-50.0
 30
0.0
 11
650.0
 21
50.0
 31
0.0
  0
LINE
  5
8F
100
AcDbEntity
100
AcDbLine
  8
0
 62
256
370
-1
  6
BYLAYER
 10
650.0
 20
50.0
 30
0.0
 11
620.0
 21
50.0
 31
0.0
  0
LINE
  5
90
100
AcDbEntity
100
AcDbLine
  8
0
 62
256
370
-1
  6
BYLAYER
 10
635.0
 20
22.5
 30
0.0
 11
635.0
 21
26.0
 31
0.0
  0
LINE
  5
91
100
AcDbEntity
100
AcDbLine
  8
0
 62
256
370
-1
  6
BYLAYER
 10
635.0
 20
26.0
 30
0.0
 11
640.0
 21
26.0
 31
0.0
  0
LINE
  5
92
100
AcDbEntity
100
AcDbLine
  8
0
 62
256
370
-1
  6
BYLAYER
 10
640.0
 20
26.0
 30
0.0
 11
640.0
 21
-26.0
 31
0.0
  0
LINE
  5
93
100
AcDbEntity
100
AcDbLine
  8
0
 62
256
370
-1
  6
BYLAYER
 10
640.0
 20
-26.0
 30
0.0
 11
635.0
 21
-26.0
 31
0.0
  0
LINE
  5
94
100
AcDbEntity
100
AcDbLine
  8
0
 62
256
370
-1
  6
BYLAYER
 10
635.0
 20
-26.0
 30
0.0
 11
634.9999999999998863
 21
-22.5
 31
0.0
  0
LINE
  5
95
100
AcDbEntity
100
AcDbLine
  8
0
 62
256
370
-1
  6
BYLAYER
 10
634.9999999999998863
 20
-22.5
 30
0.0
 11
634.9999999999998863
 21
-22.5
 31
0.0
  0
SPLINE
  5
96
  8
0
 62
256
370
-1
  6
BYLAYER
100
AcDbEntity
100
AcDbSpline
 70
8
 71
3
 72
77
 73
73
 74
0
 40
0.0
 40
0.0
 40
0.0
 40
0.0
 40
1.0
 40
2.0
 40
3.0
 40
4.0
 40
5.0
 40
6.0
 40
7.0
 40
8.0
 40
9.0
 40
10.0
 40
11.0
 40
12.0
 40
13.0
 40
14.0
 40
15.0
 40
16.0
 40
17.0
 40
18.0
 40
19.0
 40
20.0
 40
21.0
 40
22.0
 40
23.0
 40
24.0
 40
25.0
 40
26.0
 40
27.0
 40
28.0
 40
29.0
 40
30.0
 40
31.0
 40
32.0
 40
33.0
 40
34.0
 40
35.0
 40
36.0
 40
37.0
 40
38.0
 40
39.0
 40
40.0
 40
41.0
 40
42.0
 40
43.0
 40
44.0
 40
45.0
 40
46.0
 40
47.0
 40
48.0
 40
49.0
 40
50.0
 40
51.0
 40
52.0
 40
53.0
 40
54.0
 40
55.0
 40
56.0
 40
57.0
 40
58.0
 40
59.0
 40
60.0
 40
61.0
 40
62.0
 40
63.0
 40
64.0
 40
65.0
 40
66.0
 40
67.0
 40
68.0
 40
69.0
 40
70.0
 40
70.0
 40
70.0
 40
70.0
 10
384.5160090625271323
 20
-422.5000000000000568
 30
0.0
 10
382.0951449827640545
 20
-430.9842816975002506
 30
0.0
 10
375.9034085603641415
 20
-443.8630934560922014
 30
0.0
 10
365.5012913707321331
 20
-456.9895746715802716
 30
0.0
 10
354.1084963535161023
 20
-467.3916918612122799
 30
0.0
 10
340.0257358461240074
 20
-474.9043320537242607
 30
0.0
 10
324.0304167549240901
 20
-477.6562149081242978
 30
0.0
 10
312.5069073021240911
 20
-477.1402368729242198
 30
0.0
 10
305.7991928445239864
 20
-480.2361050841243468
 30
0.0
 10
302.8753173117240749
 20
-485.0519000793242412
 30
0.0
 10
302.3593392765241106
 20
-491.0716438233243935
 30
0.0
 10
304.2512587389240934
 20
-498.8113143513243131
 30
0.0
 10
308.7230683773241253
 20
-503.455116668124333
 30
0.0
 10
317.4946949757240873
 20
-509.3028677337242698
 30
0.0
 10
330.0501604989241287
 20
-513.4306920153243254
 30
0.0
 10
345.5295015549240816
 20
-514.8066334425242303
 30
0.0
 10
363.2447474301241073
 20
-513.0867066585242355
 30
0.0
 10
390.7635759741240236
 20
-505.1750434521243278
 30
0.0
 10
402.2870854269241363
 20
-499.1552997081242893
 30
0.0
 10
421.3782727293241805
 20
-491.7596145369243459
 30
0.0
 10
437.201599142123996
 20
-489.0077316825243088
 30
0.0
 10
452.3369548413240864
 20
-489.1797243609242969
 30
0.0
 10
473.8360396413243052
 20
-494.3395047129242812
 30
0.0
 10
496.5390731901240997
 20
-504.6590654169242498
 30
0.0
 10
513.050370316524095
 20
-515.8385895129242726
 30
0.0
 10
545.5569865341242348
 20
-534.9297768153242032
 30
0.0
 10
564.9921591933241416
 20
-544.2173814489241295
 30
0.0
 10
589.0711341693240684
 20
-551.0970885849242222
 30
0.0
 10
608.8502921853241787
 20
-552.6450226905242289
 30
0.0
 10
629.3174209149240141
 20
-551.0970885849242222
 30
0.0
 10
649.0965789309241245
 20
-546.109300911324226
 30
0.0
 10
669.0477296253241093
 20
-536.9936889561241742
 30
0.0
 10
682.8071438973240674
 20
-525.9861575385242531
 30
0.0
 10
696.3945654909239238
 20
-514.290655407324266
 30
0.0
 10
711.8739065469239904
 20
-489.351717039324285
 30
0.0
 10
720.1295551101241017
 20
-469.2285736665241984
 30
0.0
 10
727.353247602924057
 20
-437.409928162524352
 30
0.0
 10
730.4491158141240703
 20
-414.0189239001243777
 30
0.0
 10
730.6211084925239447
 20
-390.1119416025243254
 30
0.0
 10
729.2451670653240399
 20
-366.3769519833244885
 30
0.0
 10
723.7414013565239657
 20
-330.774467554524449
 30
0.0
 10
714.6257894013240275
 20
-305.1475584729244019
 30
0.0
 10
701.2103604861240456
 20
-282.78851028092447
 30
0.0
 10
683.3231219325241454
 20
-263.3533376217244495
 30
0.0
 10
660.9640737405240998
 20
-249.7659160281244226
 30
0.0
 10
637.2290841213241492
 20
-240.822296751324302
 30
0.0
 10
617.7939114621242425
 20
-239.2743626457243522
 30
0.0
 10
595.4348632701241968
 20
-240.6503040729243139
 30
0.0
 10
574.4517565053242834
 20
-244.7781283545243696
 30
0.0
 10
557.5964740221243119
 20
-251.3138501337244861
 30
0.0
 10
531.9695649405241511
 20
-265.0732644057244443
 30
0.0
 10
507.2026192509242719
 20
-280.8965908185243734
 30
0.0
 10
488.9713953405241682
 20
-291.5601368793245456
 30
0.0
 10
472.460098214124173
 20
-298.2678513369245366
 30
0.0
 10
460.7645960829242995
 20
-299.4718000857244533
 30
0.0
 10
447.8651452029241682
 20
-298.955822050524489
 30
0.0
 10
436.1696430717242947
 20
-295.1719831257245232
 30
0.0
 10
427.0540311165241292
 20
-291.0441588441244676
 30
0.0
 10
415.3585289853242557
 20
-285.1964077785243035
 30
0.0
 10
400.3951659645241534
 20
-278.4886933209244262
 30
0.0
 10
388.35567847652419
 20
-275.564817788124401
 30
0.0
 10
375.2842349181241843
 20
-276.5967738585244433
 30
0.0
 10
365.1366668925242038
 20
-282.9605029593243444
 30
0.0
 10
361.5248206461242262
 20
-288.8082540249245085
 30
0.0
 10
359.9768865405242195
 20
-294.6560050905243315
 30
0.0
 10
361.6968133245242143
 20
-301.7077049049244124
 30
0.0
 10
365.4806522493242937
 20
-305.31955115132439
 30
0.0
 10
375.4562275965241724
 20
-310.9953095385244524
 30
0.0
 10
383.8838688381241582
 20
-318.3909947097243958
 30
0.0
 10
390.0756052605241848
 20
-335.2462771929243672
 30
0.0
 10
391.4515466877242034
 20
-353.133515746524381
 30
0.0
 10
391.1999999999999886
 20
-377.4999999999999432
 30
0.0
 10
391.1999999999999886
 20
-377.4999999999999432
 30
0.0
  0
SPLINE
  5
97
  8
0
 62
256
370
-1
  6
BYLAYER
100
AcDbEntity
100
AcDbSpline
 70
8
 71
3
 72
27
 73
23
 74
0
 40
0.0
 40
0.0
 40
0.0
 40
0.0
 40
1.0
 40
2.0
 40
3.0
 40
4.0
 40
5.0
 40
6.0
 40
7.0
 40
8.0
 40
9.0
 40
10.0
 40
11.0
 40
12.0
 40
13.0
 40
14.0
 40
15.0
 40
16.0
 40
17.0
 40
18.0
 40
19.0
 40
20.0
 40
20.0
 40
20.0
 40
20.0
 10
410.0
 20
-380.0
 30
0.0
 10
410.0
 20
-370.0
 30
0.0
 10
413.9533845355072117
 20
-353.7861341087047435
 30
0.0
 10
424.3080090395530988
 20
-338.3869489488415638
 30
0.0
 10
454.0443665896337393
 20
-322.4567574041555531
 30
0.0
 10
477.1431443294285373
 20
-319.5362222876297551
 30
0.0
 10
536.8813626220011201
 20
-288.7378519679033388
 30
0.0
 10
566.2769910751542284
 20
-268.0947427550769362
 30
0.0
 10
617.1651029540124682
 20
-254.4508287006004821
 30
0.0
 10
681.617667518045323
 20
-276.1358801117982011
 30
0.0
 10
720.0
 20
-360.0
 30
0.0
 10
670.0
 20
-370.0
 30
0.0
 10
670.0
 20
-430.0
 30
0.0
 10
720.0
 20
-440.0
 30
0.0
 10
674.3535001736685217
 20
-522.7352452235381861
 30
0.0
 10
605.199877084089394
 20
-539.7904136248967006
 30
0.0
 10
540.0
 20
-510.0
 30
0.0
 10
512.2949999954803388
 20
-485.8826454376790593
 30
0.0
 10
474.0625402882338335
 20
-467.5310647782007436
 30
0.0
 10
438.1240281634221674
 20
-465.6194417928384155
 30
0.0
 10
412.3603653810385481
 20
-437.154136525894728
 30
0.0
 10
412.3603653810384913
 20
-422.5
 30
0.0
 10
411.9379510947995868
 20
-421.9532945295506465
 30
0.0
  0
LINE
  5
98
100
AcDbEntity
100
AcDbLine
  8
0
 62
256
370
-1
  6
BYLAYER
 10
350.0
 20
250.0
 30
0.0
 11
710.0
 21
250.0
 31
0.0
  0
SPLINE
  5
99
  8
0
 62
256
370
-1
  6
BYLAYER
100
AcDbEntity
100
AcDbSpline
 70
8
 71
3
 72
9
 73
5
 74
0
 40
0.0
 40
0.0
 40
0.0
 40
0.0
 40
1.0
 40
2.0
 40
2.0
 40
2.0
 40
2.0
 10
350.0
 20
250.0
 30
0.0
 10
340.0
 20
250.0
 30
0.0
 10
340.0
 20
260.0
 30
0.0
 10
340.0
 20
270.0
 30
0.0
 10
330.0
 20
270.0
 30
0.0
  0
LINE
  5
9A
100
AcDbEntity
100
AcDbLine
  8
0
 62
256
370
-1
  6
BYLAYER
 10
620.0
 20
269.9999999999985221
 30
0.0
 11
620.0
 21
276.0
 31
0.0
  0
LINE
  5
9B
100
AcDbEntity
100
AcDbLine
  8
0
 62
256
370
-1
  6
BYLAYER
 10
620.0
 20
276.0
 30
0.0
 11
650.0
 21
276.0
 31
0.0
  0
LINE
  5
9C
100
AcDbEntity
100
AcDbLine
  8
0
 62
256
370
-1
  6
BYLAYER
 10
650.0
 20
276.0
 30
0.0
 11
650.0
 21
269.9999999999984084
 31
0.0
  0
LINE
  5
9D
100
AcDbEntity
100
AcDbLine
  8
0
 62
256
370
-1
  6
BYLAYER
 10
635.0
 20
276.0
 30
0.0
 11
635.0
 21
279.0
 31
0.0
  0
LINE
  5
9E
100
AcDbEntity
100
AcDbLine
  8
0
 62
256
370
-1
  6
BYLAYER
 10
635.0
 20
279.0
 30
0.0
 11
640.0
 21
279.0
 31
0.0
  0
LINE
  5
9F
100
AcDbEntity
100
AcDbLine
  8
0
 62
256
370
-1
  6
BYLAYER
 10
640.0
 20
279.0
 30
0.0
 11
640.0
 21
276.0
 31
0.0
  0
ARC
  5
A0
100
AcDbEntity
  8
0
 62
256
370
-1
  6
BYLAYER
100
AcDbCircle
 10
739.0060921937443936
 20
264.9999999999980673
 30
0.0
 40
5.0
100
AcDbArc
 50
0.0
 51
90.0
  0
LINE
  5
A1
100
AcDbEntity
100
AcDbLine
  8
0
 62
256
370
-1
  6
BYLAYER
 10
4.0
 20
281.0
 30
0.0
 11
635.0
 21
279.0
 31
0.0
  0
LINE
  5
A2
100
AcDbEntity
100
AcDbLine
  8
0
 62
256
370
-1
  6
BYLAYER
 10
640.0
 20
279.0
 30
0.0
 11
740.0
 21
270.0
 31
0.0
  0
MTEXT
  5
A3
100
AcDbEntity
100
AcDbMText
  8
0
 62
256
370
-1
  6
BYLAYER
 10
737.0
 20
250.0
 30
0.0
 40
2.5
 41
0.0
 71
1
 72
1
  1
Raise a bit to induce angle in neck
  7
textstyle5
 50
0.0
 73
2
 44
1.0
  0
SPLINE
  5
A4
  8
0
 62
256
370
-1
  6
BYLAYER
100
AcDbEntity
100
AcDbSpline
 70
8
 71
3
 72
10
 73
6
 74
0
 40
0.0
 40
0.0
 40
0.0
 40
0.0
 40
1.0
 40
2.0
 40
3.0
 40
3.0
 40
3.0
 40
3.0
 10
710.0
 20
250.0
 30
0.0
 10
720.0
 20
250.0
 30
0.0
 10
722.0
 20
254.0
 30
0.0
 10
723.0
 20
260.0
 30
0.0
 10
728.0
 20
260.0
 30
0.0
 10
735.0000000000002274
 20
259.9999999999986358
 30
0.0
  0
CIRCLE
  5
A5
100
AcDbEntity
100
AcDbCircle
  8
0
 62
256
370
-1
  6
BYLAYER
 10
360.0
 20
0.0
 30
0.0
 40
4.0
  0
MTEXT
  5
A6
100
AcDbEntity
100
AcDbMText
  8
0
 62
256
370
-1
  6
BYLAYER
 10
340.0
 20
-7.0
 30
0.0
 40
2.5
 41
0.0
 71
1
 72
1
  1
14" bolt attaches to body
  7
textstyle6
 50
0.0
 73
2
 44
1.0
  0
CIRCLE
  5
A7
100
AcDbEntity
100
AcDbCircle
  8
0
 62
256
370
-1
  6
BYLAYER
 10
728.0
 20
0.0
 30
0.0
 40
4.0
  0
MTEXT
  5
A8
100
AcDbEntity
100
AcDbMText
  8
0
 62
256
370
-1
  6
BYLAYER
 10
698.0
 20
-5.0
 30
0.0
 40
2.5
 41
0.0
 71
1
 72
1
  1
14" bolt attaches to body
  7
textstyle7
 50
0.0
 73
2
 44
1.0
  0
LINE
  5
A9
100
AcDbEntity
100
AcDbLine
  8
0
 62
256
370
-1
  6
BYLAYER
 10
740.0
 20
22.5
 30
0.0
 11
-159.9999999999996589
 21
22.5
 31
0.0
  0
LINE
  5
AA
100
AcDbEntity
100
AcDbLine
  8
0
 62
256
370
-1
  6
BYLAYER
 10
740.0
 20
22.5
 30
0.0
 11
740.0
 21
-22.5
 31
0.0
  0
DIMENSION
  5
AB
100
AcDbEntity
  8
0
 62
256
370
-1
  6
BYLAYER
100
AcDbDimension
 10
748.6111749866875016
 20
257.7719976151462333
 30
0.0
 11
761.2869837065221645
 21
254.4691326770865487
 31
0.0
 70
2
 71
8
 72
2
 41
1.0
 42
0.0
  1

  3
Standard
100
AcDb2LineAngularDimension
 13
350.0
 23
250.0
 33
0.0
 14
755.0
 24
250.0
 34
0.0
 15
755.3204214375082302
 25
258.399625329985156
 35
0.0
 16
759.4176929253389972
 26
254.302353842154389
 36
0.0
  0
SPLINE
  5
AC
  8
0
 62
256
370
-1
  6
BYLAYER
100
AcDbEntity
100
AcDbSpline
 70
8
 71
3
 72
29
 73
25
 74
0
 40
0.0
 40
0.0
 40
0.0
 40
0.0
 40
1.0
 40
2.0
 40
3.0
 40
4.0
 40
5.0
 40
6.0
 40
7.0
 40
8.0
 40
9.0
 40
10.0
 40
11.0
 40
12.0
 40
13.0
 40
14.0
 40
15.0
 40
16.0
 40
17.0
 40
18.0
 40
19.0
 40
20.0
 40
21.0
 40
22.0
 40
22.0
 40
22.0
 40
22.0
 10
744.9999999999998863
 20
0.0
 30
0.0
 10
744.8691466301679611
 20
-34.8240031516239128
 30
0.0
 10
740.3194339490056564
 20
-59.8474228980162124
 30
0.0
 10
731.2200085866811605
 20
-87.9039844318500343
 30
0.0
 10
716.0542996494735917
 20
-114.4439750719632656
 30
0.0
 10
694.8223071373830635
 20
-134.9176821371933954
 30
0.0
 10
678.1400273064549538
 20
-147.8085347338196414
 30
0.0
 10
657.6663202412248665
 20
-156.9079600961441372
 30
0.0
 10
621.2686187919269969
 20
-160.6993873304460863
 30
0.0
 10
592.4537718112326274
 20
-156.1496746492838668
 30
0.0
 10
570.4634938522819994
 20
-149.3251056275403243
 30
0.0
 10
541.6486468715874025
 20
-133.4011112434725135
 30
0.0
 10
510.3685381729678738
 20
-110.7259738457912732
 30
0.0
 10
492.5774971617870506
 20
-92.5642861468775067
 30
0.0
 10
475.1571028383391422
 20
-85.1513523922188114
 30
0.0
 10
455.142181700760716
 20
-87.7458792063493576
 30
0.0
 10
436.609847314114063
 20
-97.3826930874056558
 30
0.0
 10
417.2898335864863952
 20
-108.3776914970801784
 30
0.0
 10
396.816126521256308
 20
-112.9274041782424263
 30
0.0
 10
373.3092776685845138
 20
-110.6525478376613734
 30
0.0
 10
353.5938560502149244
 20
-102.3114079221971195
 30
0.0
 10
336.1532907724263168
 20
-81.0794154101067619
 30
0.0
 10
330.8452926444037985
 20
-63.6388501323182112
 30
0.0
 10
322.5041527289395162
 20
-39.3737158327860755
 30
0.0
 10
322.9233207664624956
 20
-22.5
 30
0.0
  0
SPLINE
  5
AD
  8
0
 62
256
370
-1
  6
BYLAYER
100
AcDbEntity
100
AcDbSpline
 70
8
 71
3
 72
29
 73
25
 74
0
 40
0.0
 40
0.0
 40
0.0
 40
0.0
 40
1.0
 40
2.0
 40
3.0
 40
4.0
 40
5.0
 40
6.0
 40
7.0
 40
8.0
 40
9.0
 40
10.0
 40
11.0
 40
12.0
 40
13.0
 40
14.0
 40
15.0
 40
16.0
 40
17.0
 40
18.0
 40
19.0
 40
20.0
 40
21.0
 40
22.0
 40
22.0
 40
22.0
 40
22.0
 10
744.9999999999998863
 20
-0.0000000000000355
 30
0.0
 10
744.8691466301679611
 20
34.8240031516238915
 30
0.0
 10
740.3194339490056564
 20
59.8474228980162479
 30
0.0
 10
731.2200085866811605
 20
87.9039844318500769
 30
0.0
 10
716.0542996494735917
 20
114.443975071963294
 30
0.0
 10
694.8223071373831772
 20
134.9176821371933386
 30
0.0
 10
678.1400273064549538
 20
147.8085347338196414
 30
0.0
 10
657.6663202412248665
 20
156.9079600961441372
 30
0.0
 10
621.2686187919269969
 20
160.6993873304460578
 30
0.0
 10
592.4537718112326274
 20
156.1496746492838952
 30
0.0
 10
570.4634938522819994
 20
149.3251056275403243
 30
0.0
 10
541.6486468715874025
 20
133.4011112434725135
 30
0.0
 10
510.3685381729678738
 20
110.7259738457913016
 30
0.0
 10
492.5774971617870506
 20
92.5642861468774782
 30
0.0
 10
475.1571028383391422
 20
85.1513523922188114
 30
0.0
 10
455.142181700760716
 20
87.7458792063493291
 30
0.0
 10
436.609847314114063
 20
97.3826930874056416
 30
0.0
 10
417.2898335864863384
 20
108.3776914970801499
 30
0.0
 10
396.816126521256308
 20
112.9274041782424121
 30
0.0
 10
373.3092776685845138
 20
110.6525478376613307
 30
0.0
 10
353.5938560502149244
 20
102.3114079221970485
 30
0.0
 10
336.1532907724263168
 20
81.0794154101066908
 30
0.0
 10
330.8452926444037985
 20
63.6388501323180407
 30
0.0
 10
322.5041527289395162
 20
39.3737158327860683
 30
0.0
 10
322.9233207664624956
 20
22.5000000000001066
 30
0.0
  0
SPLINE
  5
AE
  8
0
 62
256
370
-1
  6
BYLAYER
100
AcDbEntity
100
AcDbSpline
 70
8
 71
3
 72
40
 73
36
 74
0
 40
0.0
 40
0.0
 40
0.0
 40
0.0
 40
1.0
 40
2.0
 40
3.0
 40
4.0
 40
5.0
 40
6.0
 40
7.0
 40
8.0
 40
9.0
 40
10.0
 40
11.0
 40
12.0
 40
13.0
 40
14.0
 40
15.0
 40
16.0
 40
17.0
 40
18.0
 40
19.0
 40
20.0
 40
21.0
 40
22.0
 40
23.0
 40
24.0
 40
25.0
 40
26.0
 40
27.0
 40
28.0
 40
29.0
 40
30.0
 40
31.0
 40
32.0
 40
33.0
 40
33.0
 40
33.0
 40
33.0
 10
580.8052935874413834
 20
88.2006525639292533
 30
0.0
 10
583.4455453927723738
 20
90.758685876656898
 30
0.0
 10
585.9392373324984646
 20
92.9458905224760628
 30
0.0
 10
589.3988554073432624
 20
94.322586904573015
 30
0.0
 10
595.638601371775394
 20
96.6585256404402884
 30
0.0
 10
601.5075186692999978
 20
99.1410242419122909
 30
0.0
 10
608.2335695919656473
 20
102.056518658850635
 30
0.0
 10
613.5540147826981183
 20
104.6700353387879829
 30
0.0
 10
619.6694264500135887
 20
108.4271215937280033
 30
0.0
 10
624.5413340381400076
 20
112.0754153386909167
 30
0.0
 10
628.0698030428916354
 20
114.7111575871161193
 30
0.0
 10
630.1771245285704026
 20
117.2225655384248313
 30
0.0
 10
631.187501800665018
 20
119.9960096466638362
 30
0.0
 10
630.5213791781045529
 20
123.517794870066993
 30
0.0
 10
628.0011132210048572
 20
127.7723794214947475
 30
0.0
 10
624.454928204670864
 20
129.4311633045675194
 30
0.0
 10
620.2070274345916232
 20
128.8805169733328455
 30
0.0
 10
616.1611698973272269
 20
126.0205059236043752
 30
0.0
 10
615.5993302278384363
 20
122.2122847503398759
 30
0.0
 10
615.8169152477929629
 20
119.7252765919622135
 30
0.0
 10
616.3095213291971959
 20
118.6842486151222857
 30
0.0
 10
617.1677299613340892
 20
117.5949011298239668
 30
0.0
 10
618.0986617098985789
 20
116.592221679793056
 30
0.0
 10
618.7339774250053779
 20
115.9852835098460417
 30
0.0
 10
618.8405693542343897
 20
115.9143035082735054
 30
0.0
 10
618.6171706603868188
 20
115.714071084357542
 30
0.0
 10
617.0167743915008032
 20
114.7308458901444794
 30
0.0
 10
615.0126130869358576
 20
113.6562875039815452
 30
0.0
 10
610.3145495718381426
 20
111.3968697220502975
 30
0.0
 10
603.6959944103067528
 20
108.8195611939706566
 30
0.0
 10
598.9415443369828154
 20
107.2046447217399816
 30
0.0
 10
590.3760959473231651
 20
105.4553489617873367
 30
0.0
 10
582.9453697183013219
 20
104.5462701612480316
 30
0.0
 10
576.583371303542549
 20
104.2486419163218443
 30
0.0
 10
571.9304830314781611
 20
105.1364394085394594
 30
0.0
 10
569.7212999289706659
 20
105.7200844126226116
 30
0.0
  0
SPLINE
  5
AF
  8
0
 62
256
370
-1
  6
BYLAYER
100
AcDbEntity
100
AcDbSpline
 70
8
 71
3
 72
40
 73
36
 74
0
 40
0.0
 40
0.0
 40
0.0
 40
0.0
 40
1.0
 40
2.0
 40
3.0
 40
4.0
 40
5.0
 40
6.0
 40
7.0
 40
8.0
 40
9.0
 40
10.0
 40
11.0
 40
12.0
 40
13.0
 40
14.0
 40
15.0
 40
16.0
 40
17.0
 40
18.0
 40
19.0
 40
20.0
 40
21.0
 40
22.0
 40
23.0
 40
24.0
 40
25.0
 40
26.0
 40
27.0
 40
28.0
 40
29.0
 40
30.0
 40
31.0
 40
32.0
 40
33.0
 40
33.0
 40
33.0
 40
33.0
 10
569.7212999289706659
 20
105.7200844126226116
 30
0.0
 10
567.0810481236396754
 20
103.1620510998954074
 30
0.0
 10
564.5873561839134709
 20
100.9748464540759301
 30
0.0
 10
561.1277381090687868
 20
99.5981500719789352
 30
0.0
 10
554.8879921446366552
 20
97.2622113361117755
 30
0.0
 10
549.0190748471120514
 20
94.7797127346397303
 30
0.0
 10
542.2930239244462882
 20
91.8642183177014857
 30
0.0
 10
536.9725787337139309
 20
89.2507016377640667
 30
0.0
 10
530.8571670663984605
 20
85.4936153828240037
 30
0.0
 10
525.9852594782719279
 20
81.8453216378611046
 30
0.0
 10
522.4567904735204138
 20
79.2095793894356177
 30
0.0
 10
520.3494689878416466
 20
76.6981714381271615
 30
0.0
 10
519.3390917157469175
 20
73.9247273298881851
 30
0.0
 10
520.0052143383073826
 20
70.4029421064848862
 30
0.0
 10
522.5254802954070783
 20
66.1483575550571743
 30
0.0
 10
526.0716653117410715
 20
64.4895736719844592
 30
0.0
 10
530.3195660818203123
 20
65.0402200032191899
 30
0.0
 10
534.3654236190847087
 20
67.9002310529475324
 30
0.0
 10
534.9272632885734993
 20
71.7084522262120885
 30
0.0
 10
534.7096782686190863
 20
74.1954603845898077
 30
0.0
 10
534.2170721872148533
 20
75.2364883614298492
 30
0.0
 10
533.35886355507796
 20
76.3258358467280402
 30
0.0
 10
532.4279318065133566
 20
77.3285152967591358
 30
0.0
 10
531.7926160914066713
 20
77.9354534667060079
 30
0.0
 10
531.6860241621777732
 20
78.0064334682786438
 30
0.0
 10
531.9094228560250031
 20
78.2066658921945361
 30
0.0
 10
533.509819124911246
 20
79.1898910864076981
 30
0.0
 10
535.5139804294761916
 20
80.2644494725705044
 30
0.0
 10
540.2120439445737929
 20
82.5238672545017238
 30
0.0
 10
546.8305991061051827
 20
85.1011757825813504
 30
0.0
 10
551.5850491794291202
 20
86.7160922548120254
 30
0.0
 10
560.1504975690888841
 20
88.4653880147646987
 30
0.0
 10
567.581223798110841
 20
89.3744668153040038
 30
0.0
 10
573.9432222128695003
 20
89.6720950602303049
 30
0.0
 10
578.5961104849337744
 20
88.7842975680125477
 30
0.0
 10
580.8052935874412697
 20
88.2006525639293955
 30
0.0
  0
SPLINE
  5
B0
  8
0
 62
256
370
-1
  6
BYLAYER
100
AcDbEntity
100
AcDbSpline
 70
8
 71
3
 72
40
 73
36
 74
0
 40
0.0
 40
0.0
 40
0.0
 40
0.0
 40
1.0
 40
2.0
 40
3.0
 40
4.0
 40
5.0
 40
6.0
 40
7.0
 40
8.0
 40
9.0
 40
10.0
 40
11.0
 40
12.0
 40
13.0
 40
14.0
 40
15.0
 40
16.0
 40
17.0
 40
18.0
 40
19.0
 40
20.0
 40
21.0
 40
22.0
 40
23.0
 40
24.0
 40
25.0
 40
26.0
 40
27.0
 40
28.0
 40
29.0
 40
30.0
 40
31.0
 40
32.0
 40
33.0
 40
33.0
 40
33.0
 40
33.0
 10
580.8052935874413834
 20
-88.2006525639292533
 30
0.0
 10
583.4455453927723738
 20
-90.758685876656898
 30
0.0
 10
585.9392373324984646
 20
-92.9458905224760628
 30
0.0
 10
589.3988554073432624
 20
-94.3225869045730008
 30
0.0
 10
595.638601371775394
 20
-96.6585256404402884
 30
0.0
 10
601.5075186692999978
 20
-99.1410242419122909
 30
0.0
 10
608.2335695919656473
 20
-102.056518658850635
 30
0.0
 10
613.5540147826981183
 20
-104.6700353387879829
 30
0.0
 10
619.6694264500135887
 20
-108.4271215937280033
 30
0.0
 10
624.5413340381400076
 20
-112.0754153386909309
 30
0.0
 10
628.0698030428915217
 20
-114.7111575871161335
 30
0.0
 10
630.1771245285704026
 20
-117.2225655384248313
 30
0.0
 10
631.187501800665018
 20
-119.9960096466638362
 30
0.0
 10
630.5213791781045529
 20
-123.517794870066993
 30
0.0
 10
628.0011132210048572
 20
-127.7723794214947617
 30
0.0
 10
624.454928204670864
 20
-129.4311633045675194
 30
0.0
 10
620.2070274345916232
 20
-128.8805169733328739
 30
0.0
 10
616.1611698973272269
 20
-126.0205059236043752
 30
0.0
 10
615.5993302278384363
 20
-122.2122847503398617
 30
0.0
 10
615.8169152477928492
 20
-119.7252765919622135
 30
0.0
 10
616.3095213291971959
 20
-118.6842486151223
 30
0.0
 10
617.1677299613340892
 20
-117.5949011298239668
 30
0.0
 10
618.0986617098985789
 20
-116.5922216797930417
 30
0.0
 10
618.7339774250053779
 20
-115.9852835098460417
 30
0.0
 10
618.840569354234276
 20
-115.9143035082735196
 30
0.0
 10
618.6171706603868188
 20
-115.7140710843575278
 30
0.0
 10
617.0167743915008032
 20
-114.7308458901444936
 30
0.0
 10
615.0126130869358576
 20
-113.6562875039815452
 30
0.0
 10
610.3145495718381426
 20
-111.3968697220502833
 30
0.0
 10
603.6959944103067528
 20
-108.8195611939706424
 30
0.0
 10
598.9415443369828154
 20
-107.2046447217399674
 30
0.0
 10
590.3760959473231651
 20
-105.4553489617873225
 30
0.0
 10
582.9453697183012082
 20
-104.5462701612480174
 30
0.0
 10
576.583371303542549
 20
-104.2486419163218443
 30
0.0
 10
571.9304830314781611
 20
-105.1364394085394736
 30
0.0
 10
569.7212999289706659
 20
-105.7200844126226116
 30
0.0
  0
SPLINE
  5
B1
  8
0
 62
256
370
-1
  6
BYLAYER
100
AcDbEntity
100
AcDbSpline
 70
8
 71
3
 72
40
 73
36
 74
0
 40
0.0
 40
0.0
 40
0.0
 40
0.0
 40
1.0
 40
2.0
 40
3.0
 40
4.0
 40
5.0
 40
6.0
 40
7.0
 40
8.0
 40
9.0
 40
10.0
 40
11.0
 40
12.0
 40
13.0
 40
14.0
 40
15.0
 40
16.0
 40
17.0
 40
18.0
 40
19.0
 40
20.0
 40
21.0
 40
22.0
 40
23.0
 40
24.0
 40
25.0
 40
26.0
 40
27.0
 40
28.0
 40
29.0
 40
30.0
 40
31.0
 40
32.0
 40
33.0
 40
33.0
 40
33.0
 40
33.0
 10
569.7212999289706659
 20
-105.7200844126226116
 30
0.0
 10
567.0810481236396754
 20
-103.1620510998953932
 30
0.0
 10
564.5873561839134709
 20
-100.9748464540759159
 30
0.0
 10
561.1277381090687868
 20
-99.598150071978921
 30
0.0
 10
554.8879921446366552
 20
-97.2622113361117471
 30
0.0
 10
549.0190748471120514
 20
-94.7797127346397303
 30
0.0
 10
542.2930239244462882
 20
-91.8642183177014573
 30
0.0
 10
536.9725787337138172
 20
-89.2507016377640241
 30
0.0
 10
530.8571670663983468
 20
-85.4936153828239185
 30
0.0
 10
525.9852594782719279
 20
-81.845321637861062
 30
0.0
 10
522.4567904735204138
 20
-79.2095793894356035
 30
0.0
 10
520.3494689878416466
 20
-76.6981714381271473
 30
0.0
 10
519.3390917157469175
 20
-73.9247273298881709
 30
0.0
 10
520.0052143383073826
 20
-70.4029421064848435
 30
0.0
 10
522.5254802954070783
 20
-66.1483575550571459
 30
0.0
 10
526.0716653117410715
 20
-64.4895736719844166
 30
0.0
 10
530.3195660818203123
 20
-65.0402200032191615
 30
0.0
 10
534.3654236190847087
 20
-67.9002310529475324
 30
0.0
 10
534.9272632885734993
 20
-71.7084522262120601
 30
0.0
 10
534.7096782686190863
 20
-74.1954603845897793
 30
0.0
 10
534.2170721872148533
 20
-75.2364883614298208
 30
0.0
 10
533.35886355507796
 20
-76.3258358467279976
 30
0.0
 10
532.4279318065133566
 20
-77.3285152967591074
 30
0.0
 10
531.7926160914066713
 20
-77.9354534667060079
 30
0.0
 10
531.6860241621777732
 20
-78.0064334682786154
 30
0.0
 10
531.9094228560250031
 20
-78.2066658921944793
 30
0.0
 10
533.509819124911246
 20
-79.1898910864076981
 30
0.0
 10
535.5139804294760779
 20
-80.2644494725704618
 30
0.0
 10
540.2120439445737929
 20
-82.5238672545016954
 30
0.0
 10
546.8305991061051827
 20
-85.1011757825813362
 30
0.0
 10
551.5850491794291202
 20
-86.7160922548120112
 30
0.0
 10
560.1504975690888841
 20
-88.4653880147646987
 30
0.0
 10
567.581223798110841
 20
-89.3744668153040038
 30
0.0
 10
573.9432222128695003
 20
-89.6720950602303049
 30
0.0
 10
578.5961104849337744
 20
-88.7842975680125335
 30
0.0
 10
580.8052935874412697
 20
-88.2006525639293955
 30
0.0
  0
SPLINE
  5
B2
  8
0
 62
256
370
-1
  6
BYLAYER
100
AcDbEntity
100
AcDbSpline
 70
8
 71
3
 72
31
 73
27
 74
0
 40
0.0
 40
0.0
 40
0.0
 40
0.0
 40
1.0
 40
2.0
 40
3.0
 40
4.0
 40
5.0
 40
6.0
 40
7.0
 40
8.0
 40
9.0
 40
10.0
 40
11.0
 40
12.0
 40
13.0
 40
14.0
 40
15.0
 40
16.0
 40
17.0
 40
18.0
 40
19.0
 40
20.0
 40
21.0
 40
22.0
 40
23.0
 40
24.0
 40
24.0
 40
24.0
 40
24.0
 10
700.0
 20
0.0
 30
0.0
 10
700.0
 20
-30.0
 30
0.0
 10
706.8712244873794361
 20
-38.2100586620121447
 30
0.0
 10
734.7316911771815739
 20
-35.0700958849536022
 30
0.0
 10
726.115815606697879
 20
-69.6568675146094165
 30
0.0
 10
716.8496484133745525
 20
-91.5867965388080307
 30
0.0
 10
702.6415253836120201
 20
-110.1191309254547122
 30
0.0
 10
679.7849796400811329
 20
-131.1224432303209824
 30
0.0
 10
652.9130947794433268
 20
-144.0950773009736849
 30
0.0
 10
626.3500821585830636
 20
-146.257182979415802
 30
0.0
 10
601.0225584968326302
 20
-143.7862050611962559
 30
0.0
 10
576.0039070748596259
 20
-136.6821435463149896
 30
0.0
 10
549.440894453999249
 20
-121.2385315574427551
 30
0.0
 10
527.819837669578078
 20
-106.1037918083479354
 30
0.0
 10
509.287503282931425
 20
-91.5867965388080307
 30
0.0
 10
487.6664464985102541
 20
-76.4520567897132111
 30
0.0
 10
467.5897509129763421
 20
-73.6722066317162074
 30
0.0
 10
441.0267382921160788
 20
-80.7762681465974453
 30
0.0
 10
414.1548534314783296
 20
-95.6021356559148074
 30
0.0
 10
387.94353316047102
 20
-98.9997302934666976
 30
0.0
 10
360.4539038202784127
 20
-89.4246908603659136
 30
0.0
 10
347.481269749625767
 20
-71.5101009532740903
 30
0.0
 10
339.4505915154121567
 20
-48.9624274495205896
 30
0.0
 10
340.0
 20
-30.0
 30
0.0
 10
363.1261993634790315
 20
-31.1050933039134989
 30
0.0
 10
370.0
 20
-26.0
 30
0.0
 10
370.0
 20
0.0
 30
0.0
  0
SPLINE
  5
B3
  8
0
 62
256
370
-1
  6
BYLAYER
100
AcDbEntity
100
AcDbSpline
 70
8
 71
3
 72
31
 73
27
 74
0
 40
0.0
 40
0.0
 40
0.0
 40
0.0
 40
1.0
 40
2.0
 40
3.0
 40
4.0
 40
5.0
 40
6.0
 40
7.0
 40
8.0
 40
9.0
 40
10.0
 40
11.0
 40
12.0
 40
13.0
 40
14.0
 40
15.0
 40
16.0
 40
17.0
 40
18.0
 40
19.0
 40
20.0
 40
21.0
 40
22.0
 40
23.0
 40
24.0
 40
24.0
 40
24.0
 40
24.0
 10
700.0
 20
-0.0000000000000245
 30
0.0
 10
700.0
 20
29.9999999999999645
 30
0.0
 10
706.8712244873794361
 20
38.2100586620121803
 30
0.0
 10
734.7316911771815739
 20
35.0700958849535382
 30
0.0
 10
726.115815606697879
 20
69.6568675146094449
 30
0.0
 10
716.8496484133745525
 20
91.5867965388080734
 30
0.0
 10
702.6415253836120201
 20
110.1191309254547548
 30
0.0
 10
679.7849796400811329
 20
131.1224432303209539
 30
0.0
 10
652.9130947794433268
 20
144.0950773009736849
 30
0.0
 10
626.3500821585830636
 20
146.257182979415802
 30
0.0
 10
601.0225584968326302
 20
143.7862050611962275
 30
0.0
 10
576.0039070748596259
 20
136.6821435463149896
 30
0.0
 10
549.440894453999249
 20
121.2385315574427409
 30
0.0
 10
527.819837669578078
 20
106.1037918083479639
 30
0.0
 10
509.287503282931425
 20
91.5867965388080592
 30
0.0
 10
487.6664464985102541
 20
76.4520567897132111
 30
0.0
 10
467.5897509129763421
 20
73.6722066317161648
 30
0.0
 10
441.0267382921160788
 20
80.7762681465974595
 30
0.0
 10
414.1548534314783865
 20
95.6021356559147932
 30
0.0
 10
387.94353316047102
 20
98.9997302934666834
 30
0.0
 10
360.4539038202784127
 20
89.4246908603659136
 30
0.0
 10
347.481269749625767
 20
71.5101009532740477
 30
0.0
 10
339.4505915154121567
 20
48.9624274495204972
 30
0.0
 10
340.0
 20
30.0000000000003553
 30
0.0
 10
363.1261993634790315
 20
31.1050933039134883
 30
0.0
 10
370.0
 20
25.9999999999999929
 30
0.0
 10
370.0
 20
0.0000000000000282
 30
0.0
  0
ENDSEC
  0
SECTION
  2
OBJECTS
  0
DICTIONARY
  5
C
100
AcDbDictionary
280
0
281
1
  3
ACAD_GROUP
350
D
  3
ACAD_LAYOUT
350
1A
  3
ACAD_MLINESTYLE
350
17
  3
ACAD_PLOTSETTINGS
350
19
  3
ACAD_PLOTSTYLENAME
350
E
  3
AcDbVariableDictionary
350
B4
  3
QCAD_OBJECTS
350
B5
  0
DICTIONARY
  5
D
100
AcDbDictionary
280
0
281
1
  0
ACDBDICTIONARYWDFLT
  5
E
100
AcDbDictionary
281
1
  3
Normal
350
F
100
AcDbDictionaryWithDefault
340
F
  0
ACDBPLACEHOLDER
  5
F
  0
DICTIONARY
  5
17
100
AcDbDictionary
280
0
281
1
  3
Standard
350
18
  0
MLINESTYLE
  5
18
100
AcDbMlineStyle
  2
STANDARD
 70
0
  3

 62
256
 51
90.0
 52
90.0
 71
2
 49
0.5
 62
256
  6
BYLAYER
 49
-0.5
 62
256
  6
BYLAYER
  0
DICTIONARY
  5
19
100
AcDbDictionary
280
0
281
1
  0
DICTIONARY
  5
1A
100
AcDbDictionary
281
1
  3
Layout1
350
1E
  3
Layout2
350
26
  3
Model
350
22
  0
LAYOUT
  5
1E
100
AcDbPlotSettings
  1

  2
none_device
  4

  6

 40
0.0
 41
0.0
 42
0.0
 43
0.0
 44
0.0
 45
0.0
 46
0.0
 47
0.0
 48
0.0
 49
0.0
140
0.0
141
0.0
142
1.0
143
1.0
 70
688
 72
0
 73
0
 74
5
  7

 75
16
147
1.0
148
0.0
149
0.0
100
AcDbLayout
  1
Layout1
 70
1
 71
1
 10
0.0
 20
0.0
 11
420.0
 21
297.0
 12
0.0
 22
0.0
 32
0.0
 14
100000000000000000000.0
 24
100000000000000000000.0
 34
100000000000000000000.0
 15
-100000000000000000000.0
 25
-100000000000000000000.0
 35
-100000000000000000000.0
146
0.0
 13
0.0
 23
0.0
 33
0.0
 16
1.0
 26
0.0
 36
0.0
 17
0.0
 27
1.0
 37
0.0
 76
0
330
1B
  0
LAYOUT
  5
22
100
AcDbPlotSettings
  1

  2
none_device
  4

  6

 40
0.0
 41
0.0
 42
0.0
 43
0.0
 44
0.0
 45
0.0
 46
0.0
 47
0.0
 48
0.0
 49
0.0
140
0.0
141
0.0
142
1.0
143
1.0
 70
1712
 72
0
 73
0
 74
0
  7

 75
0
147
1.0
148
0.0
149
0.0
100
AcDbLayout
  1
Model
 70
1
 71
0
 10
0.0
 20
0.0
 11
12.0
 21
9.0
 12
0.0
 22
0.0
 32
0.0
 14
0.0
 24
0.0
 34
0.0
 15
0.0
 25
0.0
 35
0.0
146
0.0
 13
0.0
 23
0.0
 33
0.0
 16
1.0
 26
0.0
 36
0.0
 17
0.0
 27
1.0
 37
0.0
 76
0
330
1F
  0
LAYOUT
  5
26
100
AcDbPlotSettings
  1

  2
none_device
  4

  6

 40
0.0
 41
0.0
 42
0.0
 43
0.0
 44
0.0
 45
0.0
 46
0.0
 47
0.0
 48
0.0
 49
0.0
140
0.0
141
0.0
142
1.0
143
1.0
 70
688
 72
0
 73
0
 74
5
  7

 75
16
147
1.0
148
0.0
149
0.0
100
AcDbLayout
  1
Layout2
 70
1
 71
2
 10
0.0
 20
0.0
 11
12.0
 21
9.0
 12
0.0
 22
0.0
 32
0.0
 14
0.0
 24
0.0
 34
0.0
 15
0.0
 25
0.0
 35
0.0
146
0.0
 13
0.0
 23
0.0
 33
0.0
 16
1.0
 26
0.0
 36
0.0
 17
0.0
 27
1.0
 37
0.0
 76
0
330
23
  0
DICTIONARY
  5
B4
100
AcDbDictionary
281
1
  3
DIMASSOC
350
B7
  3
HIDETEXT
350
B6
  0
DICTIONARYVAR
  5
B6
100
DictionaryVariables
280
0
  1
2
  0
DICTIONARYVAR
  5
B7
100
DictionaryVariables
280
0
  1
1
  0
DICTIONARY
  5
B5
100
AcDbDictionary
281
1
  3
Grid/DisplayGrid00
350
B8
  3
Grid/DisplayGrid01
350
B9
  3
Grid/DisplayGrid02
350
BA
  3
Grid/DisplayGrid03
350
BB
  3
Grid/GridSpacingX00
350
BC
  3
Grid/GridSpacingX01
350
BD
  3
Grid/GridSpacingX02
350
BE
  3
Grid/GridSpacingX03
350
BF
  3
Grid/GridSpacingY00
350
C0
  3
Grid/GridSpacingY01
350
C1
  3
Grid/GridSpacingY02
350
C2
  3
Grid/GridSpacingY03
350
C3
  3
Grid/IsometricGrid00
350
C4
  3
Grid/IsometricGrid01
350
C5
  3
Grid/IsometricGrid02
350
C6
  3
Grid/IsometricGrid03
350
C7
  3
Grid/IsometricProjection00
350
C8
  3
Grid/IsometricProjection01
350
C9
  3
Grid/IsometricProjection02
350
CA
  3
Grid/IsometricProjection03
350
CB
  3
Grid/MetaGridSpacingX00
350
CC
  3
Grid/MetaGridSpacingX01
350
CD
  3
Grid/MetaGridSpacingX02
350
CE
  3
Grid/MetaGridSpacingX03
350
CF
  3
Grid/MetaGridSpacingY00
350
D0
  3
Grid/MetaGridSpacingY01
350
D1
  3
Grid/MetaGridSpacingY02
350
D2
  3
Grid/MetaGridSpacingY03
350
D3
  3
MultiPageSettings/Columns
350
D4
  3
MultiPageSettings/GlueMarginsBottom
350
D5
  3
MultiPageSettings/GlueMarginsLeft
350
D6
  3
MultiPageSettings/GlueMarginsRight
350
D7
  3
MultiPageSettings/GlueMarginsTop
350
D8
  3
MultiPageSettings/PrintCropMarks
350
D9
  3
MultiPageSettings/Rows
350
DA
  3
PageSettings/OffsetX
350
DB
  3
PageSettings/OffsetY
350
DC
  3
PageSettings/PageOrientation
350
DD
  3
PageSettings/PaperHeight
350
DE
  3
PageSettings/PaperWidth
350
DF
  3
PageSettings/Scale
350
E0
  3
PageSettings/ShowPaperBorders
350
E1
  3
UnitSettings/PaperUnit
350
E2
  0
XRECORD
  5
B8
330
B5
100
AcDbXrecord
280
1
290
1
  0
XRECORD
  5
B9
330
B5
100
AcDbXrecord
280
1
290
1
  0
XRECORD
  5
BA
330
B5
100
AcDbXrecord
280
1
290
1
  0
XRECORD
  5
BB
330
B5
100
AcDbXrecord
280
1
290
1
  0
XRECORD
  5
BC
330
B5
100
AcDbXrecord
280
1
1000
auto
  0
XRECORD
  5
BD
330
B5
100
AcDbXrecord
280
1
1000
auto
  0
XRECORD
  5
BE
330
B5
100
AcDbXrecord
280
1
1000
auto
  0
XRECORD
  5
BF
330
B5
100
AcDbXrecord
280
1
1000
auto
  0
XRECORD
  5
C0
330
B5
100
AcDbXrecord
280
1
1000
auto
  0
XRECORD
  5
C1
330
B5
100
AcDbXrecord
280
1
1000
auto
  0
XRECORD
  5
C2
330
B5
100
AcDbXrecord
280
1
1000
auto
  0
XRECORD
  5
C3
330
B5
100
AcDbXrecord
280
1
1000
auto
  0
XRECORD
  5
C4
330
B5
100
AcDbXrecord
280
1
290
0
  0
XRECORD
  5
C5
330
B5
100
AcDbXrecord
280
1
290
0
  0
XRECORD
  5
C6
330
B5
100
AcDbXrecord
280
1
290
0
  0
XRECORD
  5
C7
330
B5
100
AcDbXrecord
280
1
290
0
  0
XRECORD
  5
C8
330
B5
100
AcDbXrecord
280
1
 90
0
  0
XRECORD
  5
C9
330
B5
100
AcDbXrecord
280
1
 90
0
  0
XRECORD
  5
CA
330
B5
100
AcDbXrecord
280
1
 90
0
  0
XRECORD
  5
CB
330
B5
100
AcDbXrecord
280
1
 90
0
  0
XRECORD
  5
CC
330
B5
100
AcDbXrecord
280
1
1000
auto
  0
XRECORD
  5
CD
330
B5
100
AcDbXrecord
280
1
1000
auto
  0
XRECORD
  5
CE
330
B5
100
AcDbXrecord
280
1
1000
auto
  0
XRECORD
  5
CF
330
B5
100
AcDbXrecord
280
1
1000
auto
  0
XRECORD
  5
D0
330
B5
100
AcDbXrecord
280
1
1000
auto
  0
XRECORD
  5
D1
330
B5
100
AcDbXrecord
280
1
1000
auto
  0
XRECORD
  5
D2
330
B5
100
AcDbXrecord
280
1
1000
auto
  0
XRECORD
  5
D3
330
B5
100
AcDbXrecord
280
1
1000
auto
  0
XRECORD
  5
D4
330
B5
100
AcDbXrecord
280
1
 90
1
  0
XRECORD
  5
D5
330
B5
100
AcDbXrecord
280
1
 40
10.0
  0
XRECORD
  5
D6
330
B5
100
AcDbXrecord
280
1
 40
10.0
  0
XRECORD
  5
D7
330
B5
100
AcDbXrecord
280
1
 40
10.0
  0
XRECORD
  5
D8
330
B5
100
AcDbXrecord
280
1
 40
10.0
  0
XRECORD
  5
D9
330
B5
100
AcDbXrecord
280
1
290
0
  0
XRECORD
  5
DA
330
B5
100
AcDbXrecord
280
1
 90
1
  0
XRECORD
  5
DB
330
B5
100
AcDbXrecord
280
1
 40
0.0
  0
XRECORD
  5
DC
330
B5
100
AcDbXrecord
280
1
 40
0.0
  0
XRECORD
  5
DD
330
B5
100
AcDbXrecord
280
1
1000
Portrait
  0
XRECORD
  5
DE
330
B5
100
AcDbXrecord
280
1
 40
279.3999999999999773
  0
XRECORD
  5
DF
330
B5
100
AcDbXrecord
280
1
 40
215.9000000000000057
  0
XRECORD
  5
E0
330
B5
100
AcDbXrecord
280
1
1000
1:1
  0
XRECORD
  5
E1
330
B5
100
AcDbXrecord
280
1
290
1
  0
XRECORD
  5
E2
330
B5
100
AcDbXrecord
280
1
 90
4
  0
ENDSEC
  0
EOF
