999
dxflib 3.3.4.0
  0
SECTION
  2
HEADER
  9
$ACADVER
  1
AC1015
  9
$HANDSEED
  5
FFFF
  9
$DIMADEC
 70
0
  9
$DIMASZ
 40
2.5
  9
$DIMAUNIT
 70
0
  9
$DIMAZIN
 70
2
  9
$DIMDEC
 70
4
  9
$DIMEXE
 40
1.25
  9
$DIMEXO
 40
0.625
  9
$DIMGAP
 40
0.625
  9
$DIMLUNIT
 70
2
  9
$DIMTSZ
 40
0.0
  9
$DIMTXT
 40
2.5
  9
$DIMZIN
 70
8
  9
$DWGCODEPAGE
  3
ANSI_1252
  9
$INSUNITS
 70
4
  9
$LTSCALE
 40
1.0
  0
ENDSEC
  0
SECTION
  2
TABLES
  0
TABLE
  2
VPORT
  5
8
100
AcDbSymbolTable
 70
1
  0
VPORT
  5
30
100
AcDbSymbolTableRecord
100
AcDbViewportTableRecord
  2
*Active
 70
0
 10
0.0
 20
0.0
 11
1.0
 21
1.0
 12
286.3055555555554861
 22
148.5
 13
0.0
 23
0.0
 14
10.0
 24
10.0
 15
10.0
 25
10.0
 16
0.0
 26
0.0
 36
1.0
 17
0.0
 27
0.0
 37
0.0
 40
297.0
 41
1.92798353909465
 42
50.0
 43
0.0
 44
0.0
 50
0.0
 51
0.0
 71
0
 72
100
 73
1
 74
3
 75
1
 76
1
 77
0
 78
0
281
0
 65
1
110
0.0
120
0.0
130
0.0
111
1.0
121
0.0
131
0.0
112
0.0
122
1.0
132
0.0
 79
0
146
0.0
  0
ENDTAB
  0
TABLE
  2
LTYPE
  5
5
100
AcDbSymbolTable
 70
21
  0
LTYPE
  5
16
100
AcDbSymbolTableRecord
100
AcDbLinetypeTableRecord
  2
CONTINUOUS
 70
0
  3
Solid line
 72
65
 73
0
 40
0.0
  0
LTYPE
  5
31
100
AcDbSymbolTableRecord
100
AcDbLinetypeTableRecord
  2
CENTER2
 70
0
  3
Center (.5x) ___ _ ___ _ ___ _ ___ _ ___ _ ___
 72
65
 73
4
 40
28.5749999999999993
 49
19.0500000000000007
 74
0
 49
-3.1749999999999998
 74
0
 49
3.1749999999999998
 74
0
 49
-3.1749999999999998
 74
0
  0
LTYPE
  5
32
100
AcDbSymbolTableRecord
100
AcDbLinetypeTableRecord
  2
DIVIDEX2
 70
0
  3
Divide (2x) ________  .  .  ________  .  .  _
 72
65
 73
6
 40
63.5
 49
25.3999999999999986
 74
0
 49
-12.6999999999999993
 74
0
 49
0.0
 74
0
 49
-12.6999999999999993
 74
0
 49
0.0
 74
0
 49
-12.6999999999999993
 74
0
  0
LTYPE
  5
33
100
AcDbSymbolTableRecord
100
AcDbLinetypeTableRecord
  2
DOT2
 70
0
  3
Dot (.5x) .....................................
 72
65
 73
2
 40
3.1749999999999998
 49
0.0
 74
0
 49
-3.1749999999999998
 74
0
  0
LTYPE
  5
34
100
AcDbSymbolTableRecord
100
AcDbLinetypeTableRecord
  2
DASHDOT2
 70
0
  3
Dash dot (.5x) _._._._._._._._._._._._._._._.
 72
65
 73
4
 40
12.6999999999999993
 49
6.3499999999999996
 74
0
 49
-3.1749999999999998
 74
0
 49
0.0
 74
0
 49
-3.1749999999999998
 74
0
  0
LTYPE
  5
35
100
AcDbSymbolTableRecord
100
AcDbLinetypeTableRecord
  2
DIVIDE
 70
0
  3
Divide ____ . . ____ . . ____ . . ____ . . ____
 72
65
 73
6
 40
31.75
 49
12.6999999999999993
 74
0
 49
-6.3499999999999996
 74
0
 49
0.0
 74
0
 49
-6.3499999999999996
 74
0
 49
0.0
 74
0
 49
-6.3499999999999996
 74
0
  0
LTYPE
  5
36
100
AcDbSymbolTableRecord
100
AcDbLinetypeTableRecord
  2
DASHDOT
 70
0
  3
Dash dot __ . __ . __ . __ . __ . __ . __ . __
 72
65
 73
4
 40
25.3999999999999986
 49
12.6999999999999993
 74
0
 49
-6.3499999999999996
 74
0
 49
0.0
 74
0
 49
-6.3499999999999996
 74
0
  0
LTYPE
  5
37
100
AcDbSymbolTableRecord
100
AcDbLinetypeTableRecord
  2
BORDER
 70
0
  3
Border __ __ . __ __ . __ __ . __ __ . __ __ .
 72
65
 73
6
 40
44.4500000000000028
 49
12.6999999999999993
 74
0
 49
-6.3499999999999996
 74
0
 49
12.6999999999999993
 74
0
 49
-6.3499999999999996
 74
0
 49
0.0
 74
0
 49
-6.3499999999999996
 74
0
  0
LTYPE
  5
38
100
AcDbSymbolTableRecord
100
AcDbLinetypeTableRecord
  2
DASHDOTX2
 70
0
  3
Dash dot (2x) ____  .  ____  .  ____  .  ___
 72
65
 73
4
 40
50.7999999999999972
 49
25.3999999999999986
 74
0
 49
-12.6999999999999993
 74
0
 49
0.0
 74
0
 49
-12.6999999999999993
 74
0
  0
LTYPE
  5
39
100
AcDbSymbolTableRecord
100
AcDbLinetypeTableRecord
  2
CENTERX2
 70
0
  3
Center (2x) ________  __  ________  __  _____
 72
65
 73
4
 40
101.5999999999999943
 49
63.5
 74
0
 49
-12.6999999999999993
 74
0
 49
12.6999999999999993
 74
0
 49
-12.6999999999999993
 74
0
  0
LTYPE
  5
3A
100
AcDbSymbolTableRecord
100
AcDbLinetypeTableRecord
  2
BORDER2
 70
0
  3
Border (.5x) __.__.__.__.__.__.__.__.__.__.__.
 72
65
 73
6
 40
22.2250000000000014
 49
6.3499999999999996
 74
0
 49
-3.1749999999999998
 74
0
 49
6.3499999999999996
 74
0
 49
-3.1749999999999998
 74
0
 49
0.0
 74
0
 49
-3.1749999999999998
 74
0
  0
LTYPE
  5
3B
100
AcDbSymbolTableRecord
100
AcDbLinetypeTableRecord
  2
BORDERX2
 70
0
  3
Border (2x) ____  ____  .  ____  ____  .  ___
 72
65
 73
6
 40
88.9000000000000057
 49
25.3999999999999986
 74
0
 49
-12.6999999999999993
 74
0
 49
25.3999999999999986
 74
0
 49
-12.6999999999999993
 74
0
 49
0.0
 74
0
 49
-12.6999999999999993
 74
0
  0
LTYPE
  5
14
100
AcDbSymbolTableRecord
100
AcDbLinetypeTableRecord
  2
BYBLOCK
 70
0
  3

 72
65
 73
0
 40
0.0
  0
LTYPE
  5
15
100
AcDbSymbolTableRecord
100
AcDbLinetypeTableRecord
  2
BYLAYER
 70
0
  3

 72
65
 73
0
 40
0.0
  0
LTYPE
  5
3C
100
AcDbSymbolTableRecord
100
AcDbLinetypeTableRecord
  2
DASHED2
 70
0
  3
Dashed (.5x) _ _ _ _ _ _ _ _ _ _ _ _ _ _ _ _ _
 72
65
 73
2
 40
9.5250000000000004
 49
6.3499999999999996
 74
0
 49
-3.1749999999999998
 74
0
  0
LTYPE
  5
3D
100
AcDbSymbolTableRecord
100
AcDbLinetypeTableRecord
  2
CENTER
 70
0
  3
Center ____ _ ____ _ ____ _ ____ _ ____ _ ____
 72
65
 73
4
 40
50.7999999999999972
 49
31.75
 74
0
 49
-6.3499999999999996
 74
0
 49
6.3499999999999996
 74
0
 49
-6.3499999999999996
 74
0
  0
LTYPE
  5
3E
100
AcDbSymbolTableRecord
100
AcDbLinetypeTableRecord
  2
DIVIDE2
 70
0
  3
Divide (.5x) __..__..__..__..__..__..__..__.._
 72
65
 73
6
 40
15.875
 49
6.3499999999999996
 74
0
 49
-3.1749999999999998
 74
0
 49
0.0
 74
0
 49
-3.1749999999999998
 74
0
 49
0.0
 74
0
 49
-3.1749999999999998
 74
0
  0
LTYPE
  5
3F
100
AcDbSymbolTableRecord
100
AcDbLinetypeTableRecord
  2
DASHED
 70
0
  3
Dashed __ __ __ __ __ __ __ __ __ __ __ __ __ _
 72
65
 73
2
 40
19.0500000000000007
 49
12.6999999999999993
 74
0
 49
-6.3499999999999996
 74
0
  0
LTYPE
  5
40
100
AcDbSymbolTableRecord
100
AcDbLinetypeTableRecord
  2
DOTX2
 70
0
  3
Dot (2x) .  .  .  .  .  .  .  .  .  .  .  .  .
 72
65
 73
2
 40
12.6999999999999993
 49
0.0
 74
0
 49
-12.6999999999999993
 74
0
  0
LTYPE
  5
41
100
AcDbSymbolTableRecord
100
AcDbLinetypeTableRecord
  2
DASHEDX2
 70
0
  3
Dashed (2x) ____  ____  ____  ____  ____  ___
 72
65
 73
2
 40
38.1000000000000014
 49
25.3999999999999986
 74
0
 49
-12.6999999999999993
 74
0
  0
LTYPE
  5
42
100
AcDbSymbolTableRecord
100
AcDbLinetypeTableRecord
  2
DOT
 70
0
  3
Dot . . . . . . . . . . . . . . . . . . . . . .
 72
65
 73
2
 40
6.3499999999999996
 49
0.0
 74
0
 49
-6.3499999999999996
 74
0
  0
ENDTAB
  0
TABLE
  2
LAYER
  5
2
100
AcDbSymbolTable
 70
1
  0
LAYER
  5
10
100
AcDbSymbolTableRecord
100
AcDbLayerTableRecord
  2
0
 70
0
 62
7
420
0
  6
CONTINUOUS
370
25
390
F
  0
ENDTAB
  0
TABLE
  2
STYLE
  5
3
100
AcDbSymbolTable
 70
6
  0
STYLE
  5
43
100
AcDbSymbolTableRecord
100
AcDbTextStyleTableRecord
  2
Standard
 70
0
 40
0.0
 41
1.0
 50
0.0
 71
0
 42
2.5
  3

  4

1001
ACAD
1000
txt
1071
0
  0
STYLE
  5
44
100
AcDbSymbolTableRecord
100
AcDbTextStyleTableRecord
  2
textstyle0
 70
0
 40
0.0
 41
1.0
 50
0.0
 71
0
 42
2.5
  3

  4

1001
ACAD
1000
Liberation Sans
1071
0
  0
STYLE
  5
45
100
AcDbSymbolTableRecord
100
AcDbTextStyleTableRecord
  2
textstyle1
 70
0
 40
0.0
 41
1.0
 50
0.0
 71
0
 42
2.5
  3

  4

1001
ACAD
1000
Liberation Sans
1071
0
  0
STYLE
  5
46
100
AcDbSymbolTableRecord
100
AcDbTextStyleTableRecord
  2
textstyle2
 70
0
 40
0.0
 41
1.0
 50
0.0
 71
0
 42
2.5
  3

  4

1001
ACAD
1000
Liberation Sans
1071
0
  0
STYLE
  5
47
100
AcDbSymbolTableRecord
100
AcDbTextStyleTableRecord
  2
textstyle3
 70
0
 40
0.0
 41
1.0
 50
0.0
 71
0
 42
2.5
  3

  4

1001
ACAD
1000
Liberation Sans
1071
0
  0
STYLE
  5
48
100
AcDbSymbolTableRecord
100
AcDbTextStyleTableRecord
  2
textstyle4
 70
0
 40
0.0
 41
1.0
 50
0.0
 71
0
 42
2.5
  3

  4

1001
ACAD
1000
Liberation Sans
1071
0
  0
ENDTAB
  0
TABLE
  2
VIEW
  5
6
100
AcDbSymbolTable
 70
0
  0
ENDTAB
  0
TABLE
  2
UCS
  5
7
100
AcDbSymbolTable
 70
0
  0
ENDTAB
  0
TABLE
  2
APPID
  5
9
100
AcDbSymbolTable
 70
1
  0
APPID
  5
12
100
AcDbSymbolTableRecord
100
AcDbRegAppTableRecord
  2
ACAD
 70
0
  0
APPID
  5
49
100
AcDbSymbolTableRecord
100
AcDbRegAppTableRecord
  2
QCAD
 70
0
  0
ENDTAB
  0
TABLE
  2
DIMSTYLE
  5
A
100
AcDbSymbolTable
 70
1
100
AcDbDimStyleTable
 71
0
  0
DIMSTYLE
105
27
100
AcDbSymbolTableRecord
100
AcDbDimStyleTableRecord
  2
Standard
 41
2.5
 42
0.625
 43
3.75
 44
1.25
 70
0
 73
0
 74
0
 77
1
 78
8
140
2.5
141
2.5
143
0.03937007874016
147
0.625
171
3
172
1
271
2
272
2
274
3
278
44
283
0
284
8
340
43
  0
ENDTAB
  0
TABLE
  2
BLOCK_RECORD
  5
1
100
AcDbSymbolTable
 70
1
  0
BLOCK_RECORD
  5
1F
100
AcDbSymbolTableRecord
100
AcDbBlockTableRecord
  2
*Model_Space
340
22
  0
BLOCK_RECORD
  5
1B
100
AcDbSymbolTableRecord
100
AcDbBlockTableRecord
  2
*Paper_Space
340
1E
  0
BLOCK_RECORD
  5
23
100
AcDbSymbolTableRecord
100
AcDbBlockTableRecord
  2
*Paper_Space0
340
26
  0
ENDTAB
  0
ENDSEC
  0
SECTION
  2
BLOCKS
  0
BLOCK
  5
20
100
AcDbEntity
  8
0
100
AcDbBlockBegin
  2
*Model_Space
 70
0
 10
0.0
 20
0.0
 30
0.0
  3
*Model_Space
  1

  0
ENDBLK
  5
21
100
AcDbEntity
  8
0
100
AcDbBlockEnd
  0
BLOCK
  5
1C
100
AcDbEntity
 67
1
  8
0
100
AcDbBlockBegin
  2
*Paper_Space
 70
0
 10
0.0
 20
0.0
 30
0.0
  3
*Paper_Space
  1

  0
ENDBLK
  5
1D
100
AcDbEntity
 67
1
  8
0
100
AcDbBlockEnd
  0
BLOCK
  5
24
100
AcDbEntity
  8
0
100
AcDbBlockBegin
  2
*Paper_Space0
 70
0
 10
0.0
 20
0.0
 30
0.0
  3
*Paper_Space0
  1

  0
ENDBLK
  5
25
100
AcDbEntity
  8
0
100
AcDbBlockEnd
  0
ENDSEC
  0
SECTION
  2
ENTITIES
  0
LINE
  5
4A
100
AcDbEntity
100
AcDbLine
  8
0
 62
256
370
-1
  6
BYLAYER
 10
350.0
 20
270.0
 30
0.0
 11
120.0
 21
270.0
 31
0.0
  0
LINE
  5
4B
100
AcDbEntity
100
AcDbLine
  8
0
 62
256
370
-1
  6
BYLAYER
 10
-160.0
 20
-22.5
 30
0.0
 11
819.9999999999997726
 21
-22.5
 31
0.0
  0
LINE
  5
4C
100
AcDbEntity
100
AcDbLine
  8
0
 62
256
370
-1
  6
BYLAYER
 10
635.0
 20
-22.5
 30
0.0
 11
635.0
 21
22.5
 31
0.0
  0
LINE
  5
4D
100
AcDbEntity
100
AcDbLine
  8
0
 62
256
370
-1
  6
BYLAYER
 10
820.0
 20
22.5
 30
0.0
 11
-159.9999999999996589
 21
22.5
 31
0.0
  0
LINE
  5
4E
100
AcDbEntity
100
AcDbLine
  8
0
 62
256
370
-1
  6
BYLAYER
 10
0.0
 20
22.5
 30
0.0
 11
0.0
 21
-22.5
 31
0.0
  0
LINE
  5
4F
100
AcDbEntity
100
AcDbLine
  8
0
 62
256
370
-1
  6
BYLAYER
 10
0.0
 20
22.5
 30
0.0
 11
-30.0
 21
40.0
 31
0.0
  0
LINE
  5
50
100
AcDbEntity
100
AcDbLine
  8
0
 62
256
370
-1
  6
BYLAYER
 10
-30.0
 20
40.0
 30
0.0
 11
-136.7589472773719024
 21
52.9071603110710527
 31
0.0
  0
LINE
  5
51
100
AcDbEntity
100
AcDbLine
  8
0
 62
256
370
-1
  6
BYLAYER
 10
-136.7589472773719024
 20
52.9071603110710527
 30
0.0
 11
-150.0
 21
0.0
 31
0.0
  0
LINE
  5
52
100
AcDbEntity
100
AcDbLine
  8
0
 62
256
370
-1
  6
BYLAYER
 10
0.0
 20
-22.5
 30
0.0
 11
-30.0
 21
-40.0
 31
0.0
  0
LINE
  5
53
100
AcDbEntity
100
AcDbLine
  8
0
 62
256
370
-1
  6
BYLAYER
 10
-30.0
 20
-40.0
 30
0.0
 11
-136.7589472773719024
 21
-52.9071603110710456
 31
0.0
  0
LINE
  5
54
100
AcDbEntity
100
AcDbLine
  8
0
 62
256
370
-1
  6
BYLAYER
 10
-136.7589472773719024
 20
-52.9071603110710456
 30
0.0
 11
-150.0
 21
0.0
 31
0.0
  0
LINE
  5
55
100
AcDbEntity
100
AcDbLine
  8
0
 62
256
370
-1
  6
BYLAYER
 10
-9.8000000000000007
 20
-127.0
 30
0.0
 11
9.7999999999999972
 21
-127.0
 31
0.0
  0
LINE
  5
56
100
AcDbEntity
100
AcDbLine
  8
0
 62
256
370
-1
  6
BYLAYER
 10
22.5
 20
-114.3000000000000114
 30
0.0
 11
22.5
 21
-107.0
 31
0.0
  0
LINE
  5
57
100
AcDbEntity
100
AcDbLine
  8
0
 62
256
370
-1
  6
BYLAYER
 10
22.5
 20
-107.0
 30
0.0
 11
-22.5
 21
-107.0
 31
0.0
  0
LINE
  5
58
100
AcDbEntity
100
AcDbLine
  8
0
 62
256
370
-1
  6
BYLAYER
 10
-22.5
 20
-107.0
 30
0.0
 11
-22.5
 21
-114.3000000000000114
 31
0.0
  0
LINE
  5
59
100
AcDbEntity
100
AcDbLine
  8
0
 62
256
370
-1
  6
BYLAYER
 10
3.1499999999999986
 20
-107.0
 30
0.0
 11
3.1499999999999986
 21
-127.0
 31
0.0
  0
LINE
  5
5A
100
AcDbEntity
100
AcDbLine
  8
0
 62
256
370
-1
  6
BYLAYER
 10
-3.1499999999999986
 20
-107.0
 30
0.0
 11
-3.1500000000000021
 21
-127.0
 31
0.0
  0
MTEXT
  5
5B
100
AcDbEntity
100
AcDbMText
  8
0
 62
256
370
-1
  6
BYLAYER
 10
7.5
 20
-117.0
 30
0.0
 40
2.5
 41
0.0
 71
1
 72
1
  1
Maple
  7
textstyle0
 50
0.0
 73
2
 44
1.0
  0
MTEXT
  5
5C
100
AcDbEntity
100
AcDbMText
  8
0
 62
256
370
-1
  6
BYLAYER
 10
-17.5
 20
-117.0
 30
0.0
 40
2.5
 41
0.0
 71
1
 72
1
  1
Maple
  7
textstyle1
 50
0.0
 73
2
 44
1.0
  0
MTEXT
  5
5D
100
AcDbEntity
100
AcDbMText
  8
0
 62
256
370
-1
  6
BYLAYER
 10
-1.5
 20
-124.0
 30
0.0
 40
2.5
 41
0.0
 71
1
 72
1
  1
Arariba?
  7
textstyle2
 50
90.0
 73
2
 44
1.0
  0
ARC
  5
5E
100
AcDbEntity
  8
0
 62
256
370
-1
  6
BYLAYER
100
AcDbCircle
 10
-9.8000000000000007
 20
-114.3000000000000114
 30
0.0
 40
12.6999999999999993
100
AcDbArc
 50
180.0
 51
270.0
  0
ARC
  5
5F
100
AcDbEntity
  8
0
 62
256
370
-1
  6
BYLAYER
100
AcDbCircle
 10
9.7999999999999972
 20
-114.3000000000000114
 30
0.0
 40
12.6999999999999993
100
AcDbArc
 50
270.0
 51
0.0
  0
LINE
  5
60
100
AcDbEntity
100
AcDbLine
  8
0
 62
256
370
-1
  6
BYLAYER
 10
-22.5
 20
-107.0
 30
0.0
 11
22.5
 21
-107.0
 31
0.0
  0
LINE
  5
61
100
AcDbEntity
100
AcDbLine
  8
0
 62
256
370
-1
  6
BYLAYER
 10
22.5
 20
-107.0
 30
0.0
 11
22.5
 21
-101.5615714555403173
 31
0.0
  0
LINE
  5
62
100
AcDbEntity
100
AcDbLine
  8
0
 62
256
370
-1
  6
BYLAYER
 10
-22.5
 20
-101.5615714555403173
 30
0.0
 11
-22.5
 21
-107.0
 31
0.0
  0
MTEXT
  5
63
100
AcDbEntity
100
AcDbMText
  8
0
 62
256
370
-1
  6
BYLAYER
 10
-16.5
 20
-102.0
 30
0.0
 40
2.5
 41
0.0
 71
1
 72
1
  1
Walnut?  Rosewood?
  7
textstyle3
 50
0.0
 73
2
 44
1.0
  0
DIMENSION
  5
64
100
AcDbEntity
  8
0
 62
256
370
-1
  6
BYLAYER
100
AcDbDimension
 10
-26.0
 20
-99.9969241834995159
 30
0.0
 11
-27.875
 21
-103.498462091749758
 31
0.0
 70
1
 71
8
 72
2
 41
1.0
 42
0.0
  1
7
  3
Standard
100
AcDbAlignedDimension
 13
0.0
 23
-99.9969241834995159
 33
0.0
 14
0.0
 24
-107.0
 34
0.0
1001
ACAD
1000
DSTYLE
1002
{
1070
144
1040
1
1002
}
  0
ARC
  5
65
100
AcDbEntity
  8
0
 62
256
370
-1
  6
BYLAYER
100
AcDbCircle
 10
0.0
 20
-262.5569241834995182
 30
0.0
 40
162.5600000000000023
100
AcDbArc
 50
82.0441247095331363
 51
97.9558752904668779
  0
MTEXT
  5
66
100
AcDbEntity
100
AcDbMText
  8
0
 62
256
370
-1
  6
BYLAYER
 10
-15.0
 20
-129.0
 30
0.0
 40
2.5
 41
0.0
 71
1
 72
1
  1
Neck Cross Section
  7
textstyle4
 50
0.0
 73
2
 44
1.0
  0
DIMENSION
  5
67
100
AcDbEntity
  8
0
 62
256
370
-1
  6
BYLAYER
100
AcDbDimension
 10
30.0
 20
-107.0
 30
0.0
 11
28.125
 21
-117.0
 31
0.0
 70
1
 71
8
 72
2
 41
1.0
 42
0.0
  1

  3
Standard
100
AcDbAlignedDimension
 13
3.1499999999999986
 23
-107.0
 33
0.0
 14
3.1499999999999986
 24
-127.0000000000000142
 34
0.0
1001
ACAD
1000
DSTYLE
1002
{
1070
144
1040
1
1002
}
  0
DIMENSION
  5
68
100
AcDbEntity
  8
0
 62
256
370
-1
  6
BYLAYER
100
AcDbDimension
 10
-22.4999999999999964
 20
-90.0
 30
0.0
 11
0.0000000000000041
 21
-88.125
 31
0.0
 70
1
 71
8
 72
2
 41
1.0
 42
0.0
  1

  3
Standard
100
AcDbAlignedDimension
 13
-22.5
 23
-101.5615714555403173
 33
0.0
 14
22.5
 24
-101.5615714555403315
 34
0.0
1001
ACAD
1000
DSTYLE
1002
{
1070
144
1040
1
1002
}
  0
LINE
  5
69
100
AcDbEntity
100
AcDbLine
  8
0
 62
256
370
-1
  6
BYLAYER
 10
0.0
 20
250.0
 30
0.0
 11
294.0
 21
250.0
 31
0.0
  0
LINE
  5
6A
100
AcDbEntity
100
AcDbLine
  8
0
 62
256
370
-1
  6
DOT
 10
745.0
 20
270.0
 30
0.0
 11
324.0
 21
270.0
 31
0.0
  0
LINE
  5
6B
100
AcDbEntity
100
AcDbLine
  8
0
 62
256
370
-1
  6
BYLAYER
 10
120.0
 20
270.0
 30
0.0
 11
0.0
 21
250.0
 31
0.0
  0
LINE
  5
6C
100
AcDbEntity
100
AcDbLine
  8
0
 62
256
370
-1
  6
BYLAYER
 10
-148.764367816092772
 20
245.1724137931035443
 30
0.0
 11
-0.8333333333341955
 21
270.0
 31
0.0
  0
LINE
  5
6D
100
AcDbEntity
100
AcDbLine
  8
0
 62
256
370
-1
  6
BYLAYER
 10
120.8218390804589149
 20
270.1379310344826195
 30
0.0
 11
-145.4540229885064946
 21
225.4482758620691811
 31
0.0
  0
DIMENSION
  5
6E
100
AcDbEntity
  8
0
 62
256
370
-1
  6
BYLAYER
100
AcDbDimension
 10
121.6551724137931103
 20
250.1379310344826195
 30
0.0
 11
105.8167682407861321
 21
258.8180640200662879
 31
0.0
 70
2
 71
8
 72
2
 41
1.0
 42
0.0
  1

  3
Standard
100
AcDb2LineAngularDimension
 13
120.0
 23
270.0
 33
0.0
 14
0.0
 24
250.0
 34
0.0
 15
0.0
 25
250.0
 35
0.0
 16
103.9359491452661644
 26
258.8086590713846817
 36
0.0
  0
SPLINE
  5
6F
  8
0
 62
256
370
-1
  6
BYLAYER
100
AcDbEntity
100
AcDbSpline
 70
8
 71
3
 72
55
 73
51
 74
0
 40
0.0
 40
0.0
 40
0.0
 40
0.0
 40
1.0
 40
2.0
 40
3.0
 40
4.0
 40
5.0
 40
6.0
 40
7.0
 40
8.0
 40
9.0
 40
10.0
 40
11.0
 40
12.0
 40
13.0
 40
14.0
 40
15.0
 40
16.0
 40
17.0
 40
18.0
 40
19.0
 40
20.0
 40
21.0
 40
22.0
 40
23.0
 40
24.0
 40
25.0
 40
26.0
 40
27.0
 40
28.0
 40
29.0
 40
30.0
 40
31.0
 40
32.0
 40
33.0
 40
34.0
 40
35.0
 40
36.0
 40
37.0
 40
38.0
 40
39.0
 40
40.0
 40
41.0
 40
42.0
 40
43.0
 40
44.0
 40
45.0
 40
46.0
 40
47.0
 40
48.0
 40
48.0
 40
48.0
 40
48.0
 10
322.9175182872667165
 20
-21.4933198215539605
 30
0.0
 10
322.5041527289395162
 20
-39.3737158327860755
 30
0.0
 10
330.8452926444037985
 20
-63.6388501323182112
 30
0.0
 10
336.1532907724263168
 20
-81.0794154101067619
 30
0.0
 10
353.5938560502149244
 20
-102.3114079221971195
 30
0.0
 10
373.3092776685845138
 20
-110.6525478376613734
 30
0.0
 10
396.816126521256308
 20
-112.9274041782424263
 30
0.0
 10
417.2898335864863952
 20
-108.3776914970801784
 30
0.0
 10
438.5218260985767529
 20
-99.2782661347558104
 30
0.0
 10
452.9292495889237671
 20
-94.7285534535933493
 30
0.0
 10
467.3366730792711223
 20
-91.6954116661518555
 30
0.0
 10
487.0520946976406549
 20
-97.0034097941746296
 30
0.0
 10
512.8337998908934878
 20
-113.6856896251029099
 30
0.0
 10
541.6486468715874025
 20
-133.4011112434725135
 30
0.0
 10
570.4634938522819994
 20
-149.3251056275403243
 30
0.0
 10
592.4537718112326274
 20
-156.1496746492838668
 30
0.0
 10
621.2686187919269969
 20
-160.6993873304460863
 30
0.0
 10
657.6663202412248665
 20
-156.9079600961441372
 30
0.0
 10
678.1400273064549538
 20
-147.8085347338196414
 30
0.0
 10
694.8223071373830635
 20
-134.9176821371933954
 30
0.0
 10
716.0542996494735917
 20
-114.4439750719632656
 30
0.0
 10
731.2200085866811605
 20
-87.9039844318500343
 30
0.0
 10
740.3194339490056564
 20
-59.8474228980162124
 30
0.0
 10
744.8691466301679611
 20
-34.8240031516239128
 30
0.0
 10
745.6274320770281747
 20
-5.2508707240695385
 30
0.0
 10
745.6274320770281747
 20
34.1799725126700835
 30
0.0
 10
738.8028630552848881
 20
74.3691011962697672
 30
0.0
 10
719.8457268837755691
 20
111.52508809242822
 30
0.0
 10
697.0971634779645001
 20
137.3067932856810103
 30
0.0
 10
658.4246056880853075
 20
161.571927585212876
 30
0.0
 10
617.4771915576251331
 20
167.6382111600959206
 30
0.0
 10
597.0034844923950459
 20
165.363354819514683
 30
0.0
 10
565.9137811711196946
 20
154.7473585634696178
 30
0.0
 10
528.7577942749611566
 20
131.2405097107980225
 30
0.0
 10
497.6680909536860327
 20
110.7668026455679495
 30
0.0
 10
481.8058800734895613
 20
103.1860149298154283
 30
0.0
 10
468.005880073489493
 20
98.586014929815434
 30
0.0
 10
449.6058800734892884
 20
103.1860149298154141
 30
0.0
 10
430.0393853070195291
 20
110.5272055078445703
 30
0.0
 10
407.2908219012082327
 20
114.950537281196759
 30
0.0
 10
395.2846356592522739
 20
116.214346359297366
 30
0.0
 10
382.361500000342744
 20
115.7512660221902649
 30
0.0
 10
378.4413599515923465
 20
100.1727903866227365
 30
0.0
 10
392.1251129640008912
 20
75.1405513210271181
 30
0.0
 10
398.4441583545038839
 20
62.5024605400209339
 30
0.0
 10
392.7570175030510882
 20
40.3858016732600049
 30
0.0
 10
366.2170268629379848
 20
30.9072335875052033
 30
0.0
 10
339.3859883098361365
 20
30.67281493852132
 30
0.0
 10
323.6124434547053852
 20
28.1721309980737615
 30
0.0
 10
322.4205174613304621
 20
19.6210845829800178
 30
0.0
 10
322.4205174613304621
 20
19.6210845829800178
 30
0.0
  0
LINE
  5
70
100
AcDbEntity
100
AcDbLine
  8
0
 62
256
370
-1
  6
BYLAYER
 10
0.0
 20
-422.5
 30
0.0
 11
-30.0
 21
-440.0
 31
0.0
  0
LINE
  5
71
100
AcDbEntity
100
AcDbLine
  8
0
 62
256
370
-1
  6
BYLAYER
 10
-30.0
 20
-440.0
 30
0.0
 11
-136.7589472773719308
 21
-452.9071603110710384
 31
0.0
  0
LINE
  5
72
100
AcDbEntity
100
AcDbLine
  8
0
 62
256
370
-1
  6
BYLAYER
 10
-136.7589472773719308
 20
-452.9071603110710384
 30
0.0
 11
-150.0
 21
-400.0
 31
0.0
  0
LINE
  5
73
100
AcDbEntity
100
AcDbLine
  8
0
 62
256
370
-1
  6
BYLAYER
 10
820.0
 20
-377.5
 30
0.0
 11
819.9999999999997726
 21
-422.5
 31
0.0
  0
LINE
  5
74
100
AcDbEntity
100
AcDbLine
  8
0
 62
256
370
-1
  6
BYLAYER
 10
-160.0
 20
-422.5
 30
0.0
 11
819.9999999999997726
 21
-422.5
 31
0.0
  0
LINE
  5
75
100
AcDbEntity
100
AcDbLine
  8
0
 62
256
370
-1
  6
BYLAYER
 10
635.0
 20
-422.5
 30
0.0
 11
635.0
 21
-377.5
 31
0.0
  0
LINE
  5
76
100
AcDbEntity
100
AcDbLine
  8
0
 62
256
370
-1
  6
BYLAYER
 10
820.0
 20
-377.5
 30
0.0
 11
-159.9999999999996589
 21
-377.5
 31
0.0
  0
LINE
  5
77
100
AcDbEntity
100
AcDbLine
  8
0
 62
256
370
-1
  6
BYLAYER
 10
0.0
 20
-377.5
 30
0.0
 11
0.0
 21
-422.5
 31
0.0
  0
LINE
  5
78
100
AcDbEntity
100
AcDbLine
  8
0
 62
256
370
-1
  6
BYLAYER
 10
0.0
 20
-377.5
 30
0.0
 11
-30.0
 21
-360.0
 31
0.0
  0
LINE
  5
79
100
AcDbEntity
100
AcDbLine
  8
0
 62
256
370
-1
  6
BYLAYER
 10
-30.0
 20
-360.0
 30
0.0
 11
-136.7589472773719308
 21
-347.0928396889289616
 31
0.0
  0
SPLINE
  5
7A
  8
0
 62
256
370
-1
  6
BYLAYER
100
AcDbEntity
100
AcDbSpline
 70
8
 71
3
 72
46
 73
42
 74
0
 40
0.0
 40
0.0
 40
0.0
 40
0.0
 40
1.0
 40
2.0
 40
3.0
 40
4.0
 40
5.0
 40
6.0
 40
7.0
 40
8.0
 40
9.0
 40
10.0
 40
11.0
 40
12.0
 40
13.0
 40
14.0
 40
15.0
 40
16.0
 40
17.0
 40
18.0
 40
19.0
 40
20.0
 40
21.0
 40
22.0
 40
23.0
 40
24.0
 40
25.0
 40
26.0
 40
27.0
 40
28.0
 40
29.0
 40
30.0
 40
31.0
 40
32.0
 40
33.0
 40
34.0
 40
35.0
 40
36.0
 40
37.0
 40
38.0
 40
39.0
 40
39.0
 40
39.0
 40
39.0
 10
365.5043172099566959
 20
-422.6061436712257091
 30
0.0
 10
374.5655250917043304
 20
-422.3315616142029967
 30
0.0
 10
384.7881052418350691
 20
-422.3113523748061198
 30
0.0
 10
413.1604884419168684
 20
-436.4585855889120012
 30
0.0
 10
415.8604884419160044
 20
-457.3835855889117283
 30
0.0
 10
417.5
 20
-472.374863634207486
 30
0.0
 10
423.125
 20
-483.624863634207486
 30
0.0
 10
445.625
 20
-489.249863634207486
 30
0.0
 10
530.0
 20
-483.624863634207486
 30
0.0
 10
575.0
 20
-483.624863634207486
 30
0.0
 10
586.25
 20
-489.249863634207486
 30
0.0
 10
890.0
 20
-646.749863634207486
 30
0.0
 10
906.875
 20
-652.374863634207486
 30
0.0
 10
918.125
 20
-646.749863634207486
 30
0.0
 10
923.7500000000002274
 20
-635.499863634207486
 30
0.0
 10
901.25
 20
-601.7498636342072587
 30
0.0
 10
861.875
 20
-545.4998636342072587
 30
0.0
 10
738.125
 20
-410.499863634207486
 30
0.0
 10
732.5
 20
-399.2498636342078271
 30
0.0
 10
732.5
 20
-387.999863634207486
 30
0.0
 10
738.125
 20
-371.1248636342078271
 30
0.0
 10
811.25
 20
-247.3748636342073723
 30
0.0
 10
816.875
 20
-230.4998636342073723
 30
0.0
 10
816.875
 20
-219.249863634207486
 30
0.0
 10
805.625
 20
-213.6248636342079408
 30
0.0
 10
788.75
 20
-219.2498636342077134
 30
0.0
 10
620.0
 20
-292.374863634207486
 30
0.0
 10
597.5
 20
-297.999863634207486
 30
0.0
 10
580.625
 20
-297.999863634207486
 30
0.0
 10
552.5
 20
-292.374863634207486
 30
0.0
 10
378.1249999999999432
 20
-230.499863634207486
 30
0.0
 10
310.6249999999999432
 20
-207.9998636342077134
 30
0.0
 10
299.3749999999999432
 20
-207.9998636342073723
 30
0.0
 10
288.1250000000007958
 20
-219.2498636342072587
 30
0.0
 10
293.7499999999999432
 20
-230.499863634207486
 30
0.0
 10
338.7499999999999432
 20
-264.249863634207486
 30
0.0
 10
417.5
 20
-326.124863634207486
 30
0.0
 10
423.125
 20
-337.374863634207486
 30
0.0
 10
419.9879872926202324
 20
-363.9773828557483739
 30
0.0
 10
393.1799919013843123
 20
-376.0765666163945298
 30
0.0
 10
363.762368640205068
 20
-377.5
 30
0.0
 10
363.762368640205068
 20
-377.5
 30
0.0
  0
LINE
  5
7B
100
AcDbEntity
100
AcDbLine
  8
0
 62
256
370
-1
  6
BYLAYER
 10
-136.7589472773719308
 20
-347.0928396889289616
 30
0.0
 11
-150.0
 21
-400.0
 31
0.0
  0
LINE
  5
7C
100
AcDbEntity
100
AcDbLine
  8
0
 62
256
370
-1
  6
BYLAYER
 10
-0.8333333333341955
 20
270.0
 30
0.0
 11
120.0000000000001563
 21
270.0
 31
0.0
  0
LINE
  5
7D
100
AcDbEntity
100
AcDbLine
  8
0
 62
256
370
-1
  6
DOT
 10
745.0
 20
270.0
 30
0.0
 11
745.0000000000001137
 21
262.6514176652204924
 31
0.0
  0
LINE
  5
7E
100
AcDbEntity
100
AcDbLine
  8
0
 62
256
370
-1
  6
BYLAYER
 10
745.0
 20
22.5
 30
0.0
 11
744.9999999999997726
 21
-22.5
 31
0.0
  0
LINE
  5
7F
100
AcDbEntity
100
AcDbLine
  8
0
 62
256
370
-1
  6
BYLAYER
 10
-148.764367816092772
 20
245.1724137931035443
 30
0.0
 11
-145.4540229885064946
 21
225.4482758620691811
 31
0.0
  0
LINE
  5
80
100
AcDbEntity
100
AcDbLine
  8
0
 62
256
370
-1
  6
BYLAYER
 10
4.0
 20
270.0
 30
0.0
 11
414.0
 21
270.0
 31
0.0
  0
LINE
  5
81
100
AcDbEntity
100
AcDbLine
  8
0
 62
256
370
-1
  6
BYLAYER
 10
414.0
 20
270.0
 30
0.0
 11
414.0
 21
277.0
 31
0.0
  0
LINE
  5
82
100
AcDbEntity
100
AcDbLine
  8
0
 62
256
370
-1
  6
BYLAYER
 10
414.0
 20
277.0
 30
0.0
 11
4.0
 21
277.0
 31
0.0
  0
LINE
  5
83
100
AcDbEntity
100
AcDbLine
  8
0
 62
256
370
-1
  6
BYLAYER
 10
4.0
 20
277.0
 30
0.0
 11
4.0
 21
270.0
 31
0.0
  0
LINE
  5
84
100
AcDbEntity
100
AcDbLine
  8
0
 62
256
370
-1
  6
BYLAYER
 10
4.0
 20
277.0
 30
0.0
 11
4.0
 21
281.0
 31
0.0
  0
LINE
  5
85
100
AcDbEntity
100
AcDbLine
  8
0
 62
256
370
-1
  6
BYLAYER
 10
4.0
 20
281.0
 30
0.0
 11
0.0
 21
281.0
 31
0.0
  0
LINE
  5
86
100
AcDbEntity
100
AcDbLine
  8
0
 62
256
370
-1
  6
BYLAYER
 10
0.0
 20
281.0
 30
0.0
 11
-0.0000000000000001
 21
270.0
 31
0.0
  0
LINE
  5
87
100
AcDbEntity
100
AcDbLine
  8
0
 62
256
370
-1
  6
BYLAYER
 10
745.0000000000001137
 20
262.6514176652204355
 30
0.0
 11
745.0
 21
230.0
 31
0.0
  0
LINE
  5
88
100
AcDbEntity
100
AcDbLine
  8
0
 62
256
370
-1
  6
BYLAYER
 10
631.1656932402310076
 20
264.2991606449589881
 30
0.0
 11
631.357669711041126
 21
275.2974852916792088
 31
0.0
  0
LINE
  5
89
100
AcDbEntity
100
AcDbLine
  8
0
 62
256
370
-1
  6
BYLAYER
 10
631.357669711041126
 20
275.2974852916792088
 30
0.0
 11
641.356146662605056
 21
275.1229612273063481
 31
0.0
  0
LINE
  5
8A
100
AcDbEntity
100
AcDbLine
  8
0
 62
256
370
-1
  6
BYLAYER
 10
641.356146662605056
 20
275.1229612273063481
 30
0.0
 11
641.1641701917949376
 21
264.1246365805861274
 31
0.0
  0
LINE
  5
8B
100
AcDbEntity
100
AcDbLine
  8
0
 62
256
370
-1
  6
BYLAYER
 10
322.6038074850173416
 20
190.012184387488702
 30
0.0
 11
742.5459307165754126
 21
182.682067360388146
 31
0.0
  0
LINE
  5
8C
100
AcDbEntity
100
AcDbLine
  8
0
 62
256
370
-1
  6
BYLAYER
 10
742.5459307165752989
 20
182.682067360388146
 30
0.0
 11
743.942123231558071
 21
262.6698829728996429
 31
0.0
  0
LINE
  5
8D
100
AcDbEntity
100
AcDbLine
  8
0
 62
256
370
-1
  6
BYLAYER
 10
743.942123231558071
 20
262.6698829728996998
 30
0.0
 11
324.0
 21
270.0
 31
0.0
  0
LINE
  5
8E
100
AcDbEntity
100
AcDbLine
  8
0
 62
256
370
-1
  6
BYLAYER
 10
324.0
 20
270.0
 30
0.0
 11
322.6038074850173416
 21
190.012184387488702
 31
0.0
  0
SPLINE
  5
8F
  8
0
 62
256
370
-1
  6
BYLAYER
100
AcDbEntity
100
AcDbSpline
 70
8
 71
3
 72
9
 73
5
 74
0
 40
0.0
 40
0.0
 40
0.0
 40
0.0
 40
1.0
 40
2.0
 40
2.0
 40
2.0
 40
2.0
 10
294.0
 20
250.0
 30
0.0
 10
299.0
 20
250.0
 30
0.0
 10
310.0
 20
247.0
 30
0.0
 10
315.0
 20
236.0
 30
0.0
 10
314.7149459921944867
 20
230.0
 30
0.0
  0
LINE
  5
90
100
AcDbEntity
100
AcDbLine
  8
0
 62
256
370
-1
  6
BYLAYER
 10
314.7149459921945436
 20
230.0
 30
0.0
 11
745.0
 21
230.0
 31
0.0
  0
LINE
  5
91
100
AcDbEntity
100
AcDbLine
  8
0
 62
256
370
-1
  6
BYLAYER
 10
4.0
 20
280.0
 30
0.0
 11
637.0
 21
279.0
 31
0.0
  0
LINE
  5
92
100
AcDbEntity
100
AcDbLine
  8
0
 62
256
370
-1
  6
BYLAYER
 10
635.0483736473908039
 20
275.2330638148393973
 30
0.0
 11
635.0784179155899665
 21
278.2991606449589881
 31
0.0
  0
LINE
  5
93
100
AcDbEntity
100
AcDbLine
  8
0
 62
256
370
-1
  6
BYLAYER
 10
635.0784179155899665
 20
278.2991606449589881
 30
0.0
 11
638.0784179155899665
 21
278.2991606449589881
 31
0.0
  0
LINE
  5
94
100
AcDbEntity
100
AcDbLine
  8
0
 62
256
370
-1
  6
BYLAYER
 10
638.0784179155899665
 20
278.2991606449589881
 30
0.0
 11
638.0239923869341965
 21
275.1811241965390309
 31
0.0
  0
DIMENSION
  5
95
100
AcDbEntity
  8
0
 62
256
370
-1
  6
BYLAYER
100
AcDbDimension
 10
752.0000000000002274
 20
262.6514176652207198
 30
0.0
 11
750.1249999999997726
 21
275.6250000000001705
 31
0.0
 70
1
 71
8
 72
2
 41
1.0
 42
0.0
  1

  3
Standard
100
AcDbAlignedDimension
 13
745.0000000000001137
 23
262.6514176652204924
 33
0.0
 14
744.9999999999998863
 24
270.0
 34
0.0
1001
ACAD
1000
DSTYLE
1002
{
1070
144
1040
1
1002
}
  0
LINE
  5
96
100
AcDbEntity
100
AcDbLine
  8
0
 62
256
370
-1
  6
BYLAYER
 10
620.0
 20
50.0
 30
0.0
 11
620.0
 21
-50.0
 31
0.0
  0
LINE
  5
97
100
AcDbEntity
100
AcDbLine
  8
0
 62
256
370
-1
  6
BYLAYER
 10
620.0
 20
-50.0
 30
0.0
 11
650.0
 21
-50.0
 31
0.0
  0
LINE
  5
98
100
AcDbEntity
100
AcDbLine
  8
0
 62
256
370
-1
  6
BYLAYER
 10
650.0
 20
-50.0
 30
0.0
 11
650.0
 21
50.0
 31
0.0
  0
LINE
  5
99
100
AcDbEntity
100
AcDbLine
  8
0
 62
256
370
-1
  6
BYLAYER
 10
650.0
 20
50.0
 30
0.0
 11
620.0
 21
50.0
 31
0.0
  0
LINE
  5
9A
100
AcDbEntity
100
AcDbLine
  8
0
 62
256
370
-1
  6
BYLAYER
 10
635.0
 20
22.5
 30
0.0
 11
635.0
 21
26.0
 31
0.0
  0
LINE
  5
9B
100
AcDbEntity
100
AcDbLine
  8
0
 62
256
370
-1
  6
BYLAYER
 10
635.0
 20
26.0
 30
0.0
 11
640.0
 21
26.0
 31
0.0
  0
LINE
  5
9C
100
AcDbEntity
100
AcDbLine
  8
0
 62
256
370
-1
  6
BYLAYER
 10
640.0
 20
26.0
 30
0.0
 11
640.0
 21
-26.0
 31
0.0
  0
LINE
  5
9D
100
AcDbEntity
100
AcDbLine
  8
0
 62
256
370
-1
  6
BYLAYER
 10
640.0
 20
-26.0
 30
0.0
 11
635.0
 21
-26.0
 31
0.0
  0
LINE
  5
9E
100
AcDbEntity
100
AcDbLine
  8
0
 62
256
370
-1
  6
BYLAYER
 10
635.0
 20
-26.0
 30
0.0
 11
634.9999999999998863
 21
-22.5
 31
0.0
  0
LINE
  5
9F
100
AcDbEntity
100
AcDbLine
  8
0
 62
256
370
-1
  6
BYLAYER
 10
634.9999999999998863
 20
-22.5
 30
0.0
 11
634.9999999999998863
 21
-22.5
 31
0.0
  0
ENDSEC
  0
SECTION
  2
OBJECTS
  0
DICTIONARY
  5
C
100
AcDbDictionary
280
0
281
1
  3
ACAD_GROUP
350
D
  3
ACAD_LAYOUT
350
1A
  3
ACAD_MLINESTYLE
350
17
  3
ACAD_PLOTSETTINGS
350
19
  3
ACAD_PLOTSTYLENAME
350
E
  3
AcDbVariableDictionary
350
A0
  3
QCAD_OBJECTS
350
A1
  0
DICTIONARY
  5
D
100
AcDbDictionary
280
0
281
1
  0
ACDBDICTIONARYWDFLT
  5
E
100
AcDbDictionary
281
1
  3
Normal
350
F
100
AcDbDictionaryWithDefault
340
F
  0
ACDBPLACEHOLDER
  5
F
  0
DICTIONARY
  5
17
100
AcDbDictionary
280
0
281
1
  3
Standard
350
18
  0
MLINESTYLE
  5
18
100
AcDbMlineStyle
  2
STANDARD
 70
0
  3

 62
256
 51
90.0
 52
90.0
 71
2
 49
0.5
 62
256
  6
BYLAYER
 49
-0.5
 62
256
  6
BYLAYER
  0
DICTIONARY
  5
19
100
AcDbDictionary
280
0
281
1
  0
DICTIONARY
  5
1A
100
AcDbDictionary
281
1
  3
Layout1
350
1E
  3
Layout2
350
26
  3
Model
350
22
  0
LAYOUT
  5
1E
100
AcDbPlotSettings
  1

  2
none_device
  4

  6

 40
0.0
 41
0.0
 42
0.0
 43
0.0
 44
0.0
 45
0.0
 46
0.0
 47
0.0
 48
0.0
 49
0.0
140
0.0
141
0.0
142
1.0
143
1.0
 70
688
 72
0
 73
0
 74
5
  7

 75
16
147
1.0
148
0.0
149
0.0
100
AcDbLayout
  1
Layout1
 70
1
 71
1
 10
0.0
 20
0.0
 11
420.0
 21
297.0
 12
0.0
 22
0.0
 32
0.0
 14
100000000000000000000.0
 24
100000000000000000000.0
 34
100000000000000000000.0
 15
-100000000000000000000.0
 25
-100000000000000000000.0
 35
-100000000000000000000.0
146
0.0
 13
0.0
 23
0.0
 33
0.0
 16
1.0
 26
0.0
 36
0.0
 17
0.0
 27
1.0
 37
0.0
 76
0
330
1B
  0
LAYOUT
  5
22
100
AcDbPlotSettings
  1

  2
none_device
  4

  6

 40
0.0
 41
0.0
 42
0.0
 43
0.0
 44
0.0
 45
0.0
 46
0.0
 47
0.0
 48
0.0
 49
0.0
140
0.0
141
0.0
142
1.0
143
1.0
 70
1712
 72
0
 73
0
 74
0
  7

 75
0
147
1.0
148
0.0
149
0.0
100
AcDbLayout
  1
Model
 70
1
 71
0
 10
0.0
 20
0.0
 11
12.0
 21
9.0
 12
0.0
 22
0.0
 32
0.0
 14
0.0
 24
0.0
 34
0.0
 15
0.0
 25
0.0
 35
0.0
146
0.0
 13
0.0
 23
0.0
 33
0.0
 16
1.0
 26
0.0
 36
0.0
 17
0.0
 27
1.0
 37
0.0
 76
0
330
1F
  0
LAYOUT
  5
26
100
AcDbPlotSettings
  1

  2
none_device
  4

  6

 40
0.0
 41
0.0
 42
0.0
 43
0.0
 44
0.0
 45
0.0
 46
0.0
 47
0.0
 48
0.0
 49
0.0
140
0.0
141
0.0
142
1.0
143
1.0
 70
688
 72
0
 73
0
 74
5
  7

 75
16
147
1.0
148
0.0
149
0.0
100
AcDbLayout
  1
Layout2
 70
1
 71
2
 10
0.0
 20
0.0
 11
12.0
 21
9.0
 12
0.0
 22
0.0
 32
0.0
 14
0.0
 24
0.0
 34
0.0
 15
0.0
 25
0.0
 35
0.0
146
0.0
 13
0.0
 23
0.0
 33
0.0
 16
1.0
 26
0.0
 36
0.0
 17
0.0
 27
1.0
 37
0.0
 76
0
330
23
  0
DICTIONARY
  5
A0
100
AcDbDictionary
281
1
  3
DIMASSOC
350
A3
  3
HIDETEXT
350
A2
  0
DICTIONARYVAR
  5
A2
100
DictionaryVariables
280
0
  1
2
  0
DICTIONARYVAR
  5
A3
100
DictionaryVariables
280
0
  1
1
  0
DICTIONARY
  5
A1
100
AcDbDictionary
281
1
  3
Grid/DisplayGrid00
350
A4
  3
Grid/DisplayGrid01
350
A5
  3
Grid/DisplayGrid02
350
A6
  3
Grid/DisplayGrid03
350
A7
  3
Grid/GridSpacingX00
350
A8
  3
Grid/GridSpacingX01
350
A9
  3
Grid/GridSpacingX02
350
AA
  3
Grid/GridSpacingX03
350
AB
  3
Grid/GridSpacingY00
350
AC
  3
Grid/GridSpacingY01
350
AD
  3
Grid/GridSpacingY02
350
AE
  3
Grid/GridSpacingY03
350
AF
  3
Grid/IsometricGrid00
350
B0
  3
Grid/IsometricGrid01
350
B1
  3
Grid/IsometricGrid02
350
B2
  3
Grid/IsometricGrid03
350
B3
  3
Grid/IsometricProjection00
350
B4
  3
Grid/IsometricProjection01
350
B5
  3
Grid/IsometricProjection02
350
B6
  3
Grid/IsometricProjection03
350
B7
  3
Grid/MetaGridSpacingX00
350
B8
  3
Grid/MetaGridSpacingX01
350
B9
  3
Grid/MetaGridSpacingX02
350
BA
  3
Grid/MetaGridSpacingX03
350
BB
  3
Grid/MetaGridSpacingY00
350
BC
  3
Grid/MetaGridSpacingY01
350
BD
  3
Grid/MetaGridSpacingY02
350
BE
  3
Grid/MetaGridSpacingY03
350
BF
  3
MultiPageSettings/Columns
350
C0
  3
MultiPageSettings/GlueMarginsBottom
350
C1
  3
MultiPageSettings/GlueMarginsLeft
350
C2
  3
MultiPageSettings/GlueMarginsRight
350
C3
  3
MultiPageSettings/GlueMarginsTop
350
C4
  3
MultiPageSettings/PrintCropMarks
350
C5
  3
MultiPageSettings/Rows
350
C6
  3
PageSettings/OffsetX
350
C7
  3
PageSettings/OffsetY
350
C8
  3
PageSettings/PageOrientation
350
C9
  3
PageSettings/PaperHeight
350
CA
  3
PageSettings/PaperWidth
350
CB
  3
PageSettings/Scale
350
CC
  3
PageSettings/ShowPaperBorders
350
CD
  3
UnitSettings/PaperUnit
350
CE
  0
XRECORD
  5
A4
330
A1
100
AcDbXrecord
280
1
290
1
  0
XRECORD
  5
A5
330
A1
100
AcDbXrecord
280
1
290
1
  0
XRECORD
  5
A6
330
A1
100
AcDbXrecord
280
1
290
1
  0
XRECORD
  5
A7
330
A1
100
AcDbXrecord
280
1
290
1
  0
XRECORD
  5
A8
330
A1
100
AcDbXrecord
280
1
1000
auto
  0
XRECORD
  5
A9
330
A1
100
AcDbXrecord
280
1
1000
auto
  0
XRECORD
  5
AA
330
A1
100
AcDbXrecord
280
1
1000
auto
  0
XRECORD
  5
AB
330
A1
100
AcDbXrecord
280
1
1000
auto
  0
XRECORD
  5
AC
330
A1
100
AcDbXrecord
280
1
1000
auto
  0
XRECORD
  5
AD
330
A1
100
AcDbXrecord
280
1
1000
auto
  0
XRECORD
  5
AE
330
A1
100
AcDbXrecord
280
1
1000
auto
  0
XRECORD
  5
AF
330
A1
100
AcDbXrecord
280
1
1000
auto
  0
XRECORD
  5
B0
330
A1
100
AcDbXrecord
280
1
290
0
  0
XRECORD
  5
B1
330
A1
100
AcDbXrecord
280
1
290
0
  0
XRECORD
  5
B2
330
A1
100
AcDbXrecord
280
1
290
0
  0
XRECORD
  5
B3
330
A1
100
AcDbXrecord
280
1
290
0
  0
XRECORD
  5
B4
330
A1
100
AcDbXrecord
280
1
 90
0
  0
XRECORD
  5
B5
330
A1
100
AcDbXrecord
280
1
 90
0
  0
XRECORD
  5
B6
330
A1
100
AcDbXrecord
280
1
 90
0
  0
XRECORD
  5
B7
330
A1
100
AcDbXrecord
280
1
 90
0
  0
XRECORD
  5
B8
330
A1
100
AcDbXrecord
280
1
1000
auto
  0
XRECORD
  5
B9
330
A1
100
AcDbXrecord
280
1
1000
auto
  0
XRECORD
  5
BA
330
A1
100
AcDbXrecord
280
1
1000
auto
  0
XRECORD
  5
BB
330
A1
100
AcDbXrecord
280
1
1000
auto
  0
XRECORD
  5
BC
330
A1
100
AcDbXrecord
280
1
1000
auto
  0
XRECORD
  5
BD
330
A1
100
AcDbXrecord
280
1
1000
auto
  0
XRECORD
  5
BE
330
A1
100
AcDbXrecord
280
1
1000
auto
  0
XRECORD
  5
BF
330
A1
100
AcDbXrecord
280
1
1000
auto
  0
XRECORD
  5
C0
330
A1
100
AcDbXrecord
280
1
 90
1
  0
XRECORD
  5
C1
330
A1
100
AcDbXrecord
280
1
 40
10.0
  0
XRECORD
  5
C2
330
A1
100
AcDbXrecord
280
1
 40
10.0
  0
XRECORD
  5
C3
330
A1
100
AcDbXrecord
280
1
 40
10.0
  0
XRECORD
  5
C4
330
A1
100
AcDbXrecord
280
1
 40
10.0
  0
XRECORD
  5
C5
330
A1
100
AcDbXrecord
280
1
290
0
  0
XRECORD
  5
C6
330
A1
100
AcDbXrecord
280
1
 90
1
  0
XRECORD
  5
C7
330
A1
100
AcDbXrecord
280
1
 40
0.0
  0
XRECORD
  5
C8
330
A1
100
AcDbXrecord
280
1
 40
0.0
  0
XRECORD
  5
C9
330
A1
100
AcDbXrecord
280
1
1000
Portrait
  0
XRECORD
  5
CA
330
A1
100
AcDbXrecord
280
1
 40
279.3999999999999773
  0
XRECORD
  5
CB
330
A1
100
AcDbXrecord
280
1
 40
215.9000000000000057
  0
XRECORD
  5
CC
330
A1
100
AcDbXrecord
280
1
1000
1:1
  0
XRECORD
  5
CD
330
A1
100
AcDbXrecord
280
1
290
1
  0
XRECORD
  5
CE
330
A1
100
AcDbXrecord
280
1
 90
4
  0
ENDSEC
  0
EOF
