999
dxflib 3.3.4.0
  0
SECTION
  2
HEADER
  9
$ACADVER
  1
AC1015
  9
$HANDSEED
  5
FFFF
  9
$DIMADEC
 70
0
  9
$DIMASZ
 40
2.5
  9
$DIMAUNIT
 70
0
  9
$DIMAZIN
 70
2
  9
$DIMDEC
 70
4
  9
$DIMEXE
 40
1.25
  9
$DIMEXO
 40
0.625
  9
$DIMGAP
 40
0.625
  9
$DIMLUNIT
 70
2
  9
$DIMTSZ
 40
0.0
  9
$DIMTXT
 40
2.5
  9
$DIMZIN
 70
8
  9
$DWGCODEPAGE
  3
ANSI_1252
  9
$INSUNITS
 70
4
  9
$LTSCALE
 40
1.0
  0
ENDSEC
  0
SECTION
  2
TABLES
  0
TABLE
  2
VPORT
  5
8
100
AcDbSymbolTable
 70
1
  0
VPORT
  5
30
100
AcDbSymbolTableRecord
100
AcDbViewportTableRecord
  2
*Active
 70
0
 10
0.0
 20
0.0
 11
1.0
 21
1.0
 12
286.3055555555554861
 22
148.5
 13
0.0
 23
0.0
 14
10.0
 24
10.0
 15
10.0
 25
10.0
 16
0.0
 26
0.0
 36
1.0
 17
0.0
 27
0.0
 37
0.0
 40
297.0
 41
1.92798353909465
 42
50.0
 43
0.0
 44
0.0
 50
0.0
 51
0.0
 71
0
 72
100
 73
1
 74
3
 75
1
 76
1
 77
0
 78
0
281
0
 65
1
110
0.0
120
0.0
130
0.0
111
1.0
121
0.0
131
0.0
112
0.0
122
1.0
132
0.0
 79
0
146
0.0
  0
ENDTAB
  0
TABLE
  2
LTYPE
  5
5
100
AcDbSymbolTable
 70
21
  0
LTYPE
  5
16
100
AcDbSymbolTableRecord
100
AcDbLinetypeTableRecord
  2
CONTINUOUS
 70
0
  3
Solid line
 72
65
 73
0
 40
0.0
  0
LTYPE
  5
31
100
AcDbSymbolTableRecord
100
AcDbLinetypeTableRecord
  2
CENTER2
 70
0
  3
Center (.5x) ___ _ ___ _ ___ _ ___ _ ___ _ ___
 72
65
 73
4
 40
28.5749999999999993
 49
19.0500000000000007
 74
0
 49
-3.1749999999999998
 74
0
 49
3.1749999999999998
 74
0
 49
-3.1749999999999998
 74
0
  0
LTYPE
  5
32
100
AcDbSymbolTableRecord
100
AcDbLinetypeTableRecord
  2
DIVIDEX2
 70
0
  3
Divide (2x) ________  .  .  ________  .  .  _
 72
65
 73
6
 40
63.5
 49
25.3999999999999986
 74
0
 49
-12.6999999999999993
 74
0
 49
0.0
 74
0
 49
-12.6999999999999993
 74
0
 49
0.0
 74
0
 49
-12.6999999999999993
 74
0
  0
LTYPE
  5
33
100
AcDbSymbolTableRecord
100
AcDbLinetypeTableRecord
  2
DOT2
 70
0
  3
Dot (.5x) .....................................
 72
65
 73
2
 40
3.1749999999999998
 49
0.0
 74
0
 49
-3.1749999999999998
 74
0
  0
LTYPE
  5
34
100
AcDbSymbolTableRecord
100
AcDbLinetypeTableRecord
  2
DASHDOT2
 70
0
  3
Dash dot (.5x) _._._._._._._._._._._._._._._.
 72
65
 73
4
 40
12.6999999999999993
 49
6.3499999999999996
 74
0
 49
-3.1749999999999998
 74
0
 49
0.0
 74
0
 49
-3.1749999999999998
 74
0
  0
LTYPE
  5
35
100
AcDbSymbolTableRecord
100
AcDbLinetypeTableRecord
  2
DIVIDE
 70
0
  3
Divide ____ . . ____ . . ____ . . ____ . . ____
 72
65
 73
6
 40
31.75
 49
12.6999999999999993
 74
0
 49
-6.3499999999999996
 74
0
 49
0.0
 74
0
 49
-6.3499999999999996
 74
0
 49
0.0
 74
0
 49
-6.3499999999999996
 74
0
  0
LTYPE
  5
36
100
AcDbSymbolTableRecord
100
AcDbLinetypeTableRecord
  2
DASHDOT
 70
0
  3
Dash dot __ . __ . __ . __ . __ . __ . __ . __
 72
65
 73
4
 40
25.3999999999999986
 49
12.6999999999999993
 74
0
 49
-6.3499999999999996
 74
0
 49
0.0
 74
0
 49
-6.3499999999999996
 74
0
  0
LTYPE
  5
37
100
AcDbSymbolTableRecord
100
AcDbLinetypeTableRecord
  2
BORDER
 70
0
  3
Border __ __ . __ __ . __ __ . __ __ . __ __ .
 72
65
 73
6
 40
44.4500000000000028
 49
12.6999999999999993
 74
0
 49
-6.3499999999999996
 74
0
 49
12.6999999999999993
 74
0
 49
-6.3499999999999996
 74
0
 49
0.0
 74
0
 49
-6.3499999999999996
 74
0
  0
LTYPE
  5
38
100
AcDbSymbolTableRecord
100
AcDbLinetypeTableRecord
  2
DASHDOTX2
 70
0
  3
Dash dot (2x) ____  .  ____  .  ____  .  ___
 72
65
 73
4
 40
50.7999999999999972
 49
25.3999999999999986
 74
0
 49
-12.6999999999999993
 74
0
 49
0.0
 74
0
 49
-12.6999999999999993
 74
0
  0
LTYPE
  5
39
100
AcDbSymbolTableRecord
100
AcDbLinetypeTableRecord
  2
CENTERX2
 70
0
  3
Center (2x) ________  __  ________  __  _____
 72
65
 73
4
 40
101.5999999999999943
 49
63.5
 74
0
 49
-12.6999999999999993
 74
0
 49
12.6999999999999993
 74
0
 49
-12.6999999999999993
 74
0
  0
LTYPE
  5
3A
100
AcDbSymbolTableRecord
100
AcDbLinetypeTableRecord
  2
BORDER2
 70
0
  3
Border (.5x) __.__.__.__.__.__.__.__.__.__.__.
 72
65
 73
6
 40
22.2250000000000014
 49
6.3499999999999996
 74
0
 49
-3.1749999999999998
 74
0
 49
6.3499999999999996
 74
0
 49
-3.1749999999999998
 74
0
 49
0.0
 74
0
 49
-3.1749999999999998
 74
0
  0
LTYPE
  5
3B
100
AcDbSymbolTableRecord
100
AcDbLinetypeTableRecord
  2
BORDERX2
 70
0
  3
Border (2x) ____  ____  .  ____  ____  .  ___
 72
65
 73
6
 40
88.9000000000000057
 49
25.3999999999999986
 74
0
 49
-12.6999999999999993
 74
0
 49
25.3999999999999986
 74
0
 49
-12.6999999999999993
 74
0
 49
0.0
 74
0
 49
-12.6999999999999993
 74
0
  0
LTYPE
  5
14
100
AcDbSymbolTableRecord
100
AcDbLinetypeTableRecord
  2
BYBLOCK
 70
0
  3

 72
65
 73
0
 40
0.0
  0
LTYPE
  5
15
100
AcDbSymbolTableRecord
100
AcDbLinetypeTableRecord
  2
BYLAYER
 70
0
  3

 72
65
 73
0
 40
0.0
  0
LTYPE
  5
3C
100
AcDbSymbolTableRecord
100
AcDbLinetypeTableRecord
  2
DASHED2
 70
0
  3
Dashed (.5x) _ _ _ _ _ _ _ _ _ _ _ _ _ _ _ _ _
 72
65
 73
2
 40
9.5250000000000004
 49
6.3499999999999996
 74
0
 49
-3.1749999999999998
 74
0
  0
LTYPE
  5
3D
100
AcDbSymbolTableRecord
100
AcDbLinetypeTableRecord
  2
CENTER
 70
0
  3
Center ____ _ ____ _ ____ _ ____ _ ____ _ ____
 72
65
 73
4
 40
50.7999999999999972
 49
31.75
 74
0
 49
-6.3499999999999996
 74
0
 49
6.3499999999999996
 74
0
 49
-6.3499999999999996
 74
0
  0
LTYPE
  5
3E
100
AcDbSymbolTableRecord
100
AcDbLinetypeTableRecord
  2
DIVIDE2
 70
0
  3
Divide (.5x) __..__..__..__..__..__..__..__.._
 72
65
 73
6
 40
15.875
 49
6.3499999999999996
 74
0
 49
-3.1749999999999998
 74
0
 49
0.0
 74
0
 49
-3.1749999999999998
 74
0
 49
0.0
 74
0
 49
-3.1749999999999998
 74
0
  0
LTYPE
  5
3F
100
AcDbSymbolTableRecord
100
AcDbLinetypeTableRecord
  2
DASHED
 70
0
  3
Dashed __ __ __ __ __ __ __ __ __ __ __ __ __ _
 72
65
 73
2
 40
19.0500000000000007
 49
12.6999999999999993
 74
0
 49
-6.3499999999999996
 74
0
  0
LTYPE
  5
40
100
AcDbSymbolTableRecord
100
AcDbLinetypeTableRecord
  2
DOTX2
 70
0
  3
Dot (2x) .  .  .  .  .  .  .  .  .  .  .  .  .
 72
65
 73
2
 40
12.6999999999999993
 49
0.0
 74
0
 49
-12.6999999999999993
 74
0
  0
LTYPE
  5
41
100
AcDbSymbolTableRecord
100
AcDbLinetypeTableRecord
  2
DASHEDX2
 70
0
  3
Dashed (2x) ____  ____  ____  ____  ____  ___
 72
65
 73
2
 40
38.1000000000000014
 49
25.3999999999999986
 74
0
 49
-12.6999999999999993
 74
0
  0
LTYPE
  5
42
100
AcDbSymbolTableRecord
100
AcDbLinetypeTableRecord
  2
DOT
 70
0
  3
Dot . . . . . . . . . . . . . . . . . . . . . .
 72
65
 73
2
 40
6.3499999999999996
 49
0.0
 74
0
 49
-6.3499999999999996
 74
0
  0
ENDTAB
  0
TABLE
  2
LAYER
  5
2
100
AcDbSymbolTable
 70
1
  0
LAYER
  5
10
100
AcDbSymbolTableRecord
100
AcDbLayerTableRecord
  2
0
 70
0
 62
7
420
0
  6
CONTINUOUS
370
25
390
F
  0
ENDTAB
  0
TABLE
  2
STYLE
  5
3
100
AcDbSymbolTable
 70
6
  0
STYLE
  5
43
100
AcDbSymbolTableRecord
100
AcDbTextStyleTableRecord
  2
Standard
 70
0
 40
0.0
 41
1.0
 50
0.0
 71
0
 42
2.5
  3

  4

1001
ACAD
1000
txt
1071
0
  0
STYLE
  5
44
100
AcDbSymbolTableRecord
100
AcDbTextStyleTableRecord
  2
textstyle0
 70
0
 40
0.0
 41
1.0
 50
0.0
 71
0
 42
2.5
  3

  4

1001
ACAD
1000
Liberation Sans
1071
0
  0
STYLE
  5
45
100
AcDbSymbolTableRecord
100
AcDbTextStyleTableRecord
  2
textstyle1
 70
0
 40
0.0
 41
1.0
 50
0.0
 71
0
 42
2.5
  3

  4

1001
ACAD
1000
Liberation Sans
1071
0
  0
STYLE
  5
46
100
AcDbSymbolTableRecord
100
AcDbTextStyleTableRecord
  2
textstyle2
 70
0
 40
0.0
 41
1.0
 50
0.0
 71
0
 42
2.5
  3

  4

1001
ACAD
1000
Liberation Sans
1071
0
  0
STYLE
  5
47
100
AcDbSymbolTableRecord
100
AcDbTextStyleTableRecord
  2
textstyle3
 70
0
 40
0.0
 41
1.0
 50
0.0
 71
0
 42
2.5
  3

  4

1001
ACAD
1000
Liberation Sans
1071
0
  0
STYLE
  5
48
100
AcDbSymbolTableRecord
100
AcDbTextStyleTableRecord
  2
textstyle4
 70
0
 40
0.0
 41
1.0
 50
0.0
 71
0
 42
2.5
  3

  4

1001
ACAD
1000
Liberation Sans
1071
0
  0
ENDTAB
  0
TABLE
  2
VIEW
  5
6
100
AcDbSymbolTable
 70
0
  0
ENDTAB
  0
TABLE
  2
UCS
  5
7
100
AcDbSymbolTable
 70
0
  0
ENDTAB
  0
TABLE
  2
APPID
  5
9
100
AcDbSymbolTable
 70
1
  0
APPID
  5
12
100
AcDbSymbolTableRecord
100
AcDbRegAppTableRecord
  2
ACAD
 70
0
  0
APPID
  5
49
100
AcDbSymbolTableRecord
100
AcDbRegAppTableRecord
  2
QCAD
 70
0
  0
ENDTAB
  0
TABLE
  2
DIMSTYLE
  5
A
100
AcDbSymbolTable
 70
1
100
AcDbDimStyleTable
 71
0
  0
DIMSTYLE
105
27
100
AcDbSymbolTableRecord
100
AcDbDimStyleTableRecord
  2
Standard
 41
2.5
 42
0.625
 43
3.75
 44
1.25
 70
0
 73
0
 74
0
 77
1
 78
8
140
2.5
141
2.5
143
0.03937007874016
147
0.625
171
3
172
1
271
2
272
2
274
3
278
44
283
0
284
8
340
43
  0
ENDTAB
  0
TABLE
  2
BLOCK_RECORD
  5
1
100
AcDbSymbolTable
 70
1
  0
BLOCK_RECORD
  5
1F
100
AcDbSymbolTableRecord
100
AcDbBlockTableRecord
  2
*Model_Space
340
22
  0
BLOCK_RECORD
  5
1B
100
AcDbSymbolTableRecord
100
AcDbBlockTableRecord
  2
*Paper_Space
340
1E
  0
BLOCK_RECORD
  5
23
100
AcDbSymbolTableRecord
100
AcDbBlockTableRecord
  2
*Paper_Space0
340
26
  0
ENDTAB
  0
ENDSEC
  0
SECTION
  2
BLOCKS
  0
BLOCK
  5
20
100
AcDbEntity
  8
0
100
AcDbBlockBegin
  2
*Model_Space
 70
0
 10
0.0
 20
0.0
 30
0.0
  3
*Model_Space
  1

  0
ENDBLK
  5
21
100
AcDbEntity
  8
0
100
AcDbBlockEnd
  0
BLOCK
  5
1C
100
AcDbEntity
 67
1
  8
0
100
AcDbBlockBegin
  2
*Paper_Space
 70
0
 10
0.0
 20
0.0
 30
0.0
  3
*Paper_Space
  1

  0
ENDBLK
  5
1D
100
AcDbEntity
 67
1
  8
0
100
AcDbBlockEnd
  0
BLOCK
  5
24
100
AcDbEntity
  8
0
100
AcDbBlockBegin
  2
*Paper_Space0
 70
0
 10
0.0
 20
0.0
 30
0.0
  3
*Paper_Space0
  1

  0
ENDBLK
  5
25
100
AcDbEntity
  8
0
100
AcDbBlockEnd
  0
ENDSEC
  0
SECTION
  2
ENTITIES
  0
LINE
  5
4A
100
AcDbEntity
100
AcDbLine
  8
0
 62
256
370
-1
  6
BYLAYER
 10
-160.0
 20
-22.5
 30
0.0
 11
819.9999999999997726
 21
-22.5
 31
0.0
  0
LINE
  5
4B
100
AcDbEntity
100
AcDbLine
  8
0
 62
256
370
-1
  6
BYLAYER
 10
635.0
 20
-22.5
 30
0.0
 11
635.0
 21
22.5
 31
0.0
  0
LINE
  5
4C
100
AcDbEntity
100
AcDbLine
  8
0
 62
256
370
-1
  6
BYLAYER
 10
820.0
 20
22.5
 30
0.0
 11
-159.9999999999996589
 21
22.5
 31
0.0
  0
LINE
  5
4D
100
AcDbEntity
100
AcDbLine
  8
0
 62
256
370
-1
  6
BYLAYER
 10
0.0
 20
22.5
 30
0.0
 11
0.0
 21
-22.5
 31
0.0
  0
LINE
  5
4E
100
AcDbEntity
100
AcDbLine
  8
0
 62
256
370
-1
  6
BYLAYER
 10
0.0
 20
22.5
 30
0.0
 11
-30.0
 21
40.0
 31
0.0
  0
LINE
  5
4F
100
AcDbEntity
100
AcDbLine
  8
0
 62
256
370
-1
  6
BYLAYER
 10
-30.0
 20
40.0
 30
0.0
 11
-136.7589472773719024
 21
52.9071603110710527
 31
0.0
  0
LINE
  5
50
100
AcDbEntity
100
AcDbLine
  8
0
 62
256
370
-1
  6
BYLAYER
 10
-136.7589472773719024
 20
52.9071603110710527
 30
0.0
 11
-150.0
 21
0.0
 31
0.0
  0
LINE
  5
51
100
AcDbEntity
100
AcDbLine
  8
0
 62
256
370
-1
  6
BYLAYER
 10
-0.0000000000000041
 20
-22.5
 30
0.0
 11
-30.0000000000000036
 21
-40.0
 31
0.0
  0
LINE
  5
52
100
AcDbEntity
100
AcDbLine
  8
0
 62
256
370
-1
  6
BYLAYER
 10
-30.0000000000000036
 20
-40.0
 30
0.0
 11
-136.7589472773719024
 21
-52.9071603110710456
 31
0.0
  0
LINE
  5
53
100
AcDbEntity
100
AcDbLine
  8
0
 62
256
370
-1
  6
BYLAYER
 10
-136.7589472773719024
 20
-52.9071603110710456
 30
0.0
 11
-150.0
 21
0.0
 31
0.0
  0
LINE
  5
54
100
AcDbEntity
100
AcDbLine
  8
0
 62
256
370
-1
  6
BYLAYER
 10
820.0
 20
22.5
 30
0.0
 11
819.9999999999997726
 21
-22.5
 31
0.0
  0
LINE
  5
55
100
AcDbEntity
100
AcDbLine
  8
0
 62
256
370
-1
  6
BYLAYER
 10
-9.8000000000000007
 20
-127.0
 30
0.0
 11
9.7999999999999972
 21
-127.0
 31
0.0
  0
LINE
  5
56
100
AcDbEntity
100
AcDbLine
  8
0
 62
256
370
-1
  6
BYLAYER
 10
22.5
 20
-114.3000000000000114
 30
0.0
 11
22.5
 21
-107.0
 31
0.0
  0
LINE
  5
57
100
AcDbEntity
100
AcDbLine
  8
0
 62
256
370
-1
  6
BYLAYER
 10
22.5
 20
-107.0
 30
0.0
 11
-22.5
 21
-107.0
 31
0.0
  0
LINE
  5
58
100
AcDbEntity
100
AcDbLine
  8
0
 62
256
370
-1
  6
BYLAYER
 10
-22.5
 20
-107.0
 30
0.0
 11
-22.5
 21
-114.3000000000000114
 31
0.0
  0
LINE
  5
59
100
AcDbEntity
100
AcDbLine
  8
0
 62
256
370
-1
  6
BYLAYER
 10
3.1499999999999986
 20
-107.0
 30
0.0
 11
3.1499999999999986
 21
-127.0
 31
0.0
  0
LINE
  5
5A
100
AcDbEntity
100
AcDbLine
  8
0
 62
256
370
-1
  6
BYLAYER
 10
-3.1499999999999986
 20
-107.0
 30
0.0
 11
-3.1500000000000021
 21
-127.0
 31
0.0
  0
MTEXT
  5
5B
100
AcDbEntity
100
AcDbMText
  8
0
 62
256
370
-1
  6
BYLAYER
 10
7.5
 20
-117.0
 30
0.0
 40
2.5
 41
0.0
 71
1
 72
1
  1
Maple
  7
textstyle0
 50
0.0
 73
2
 44
1.0
  0
MTEXT
  5
5C
100
AcDbEntity
100
AcDbMText
  8
0
 62
256
370
-1
  6
BYLAYER
 10
-17.5
 20
-117.0
 30
0.0
 40
2.5
 41
0.0
 71
1
 72
1
  1
Maple
  7
textstyle1
 50
0.0
 73
2
 44
1.0
  0
MTEXT
  5
5D
100
AcDbEntity
100
AcDbMText
  8
0
 62
256
370
-1
  6
BYLAYER
 10
-1.5
 20
-124.0
 30
0.0
 40
2.5
 41
0.0
 71
1
 72
1
  1
Arariba?
  7
textstyle2
 50
90.0
 73
2
 44
1.0
  0
ARC
  5
5E
100
AcDbEntity
  8
0
 62
256
370
-1
  6
BYLAYER
100
AcDbCircle
 10
-9.8000000000000007
 20
-114.3000000000000114
 30
0.0
 40
12.6999999999999993
100
AcDbArc
 50
180.0
 51
270.0
  0
ARC
  5
5F
100
AcDbEntity
  8
0
 62
256
370
-1
  6
BYLAYER
100
AcDbCircle
 10
9.7999999999999972
 20
-114.3000000000000114
 30
0.0
 40
12.6999999999999993
100
AcDbArc
 50
270.0
 51
0.0
  0
LINE
  5
60
100
AcDbEntity
100
AcDbLine
  8
0
 62
256
370
-1
  6
BYLAYER
 10
-22.5
 20
-107.0
 30
0.0
 11
22.5
 21
-107.0
 31
0.0
  0
LINE
  5
61
100
AcDbEntity
100
AcDbLine
  8
0
 62
256
370
-1
  6
BYLAYER
 10
22.5
 20
-107.0
 30
0.0
 11
22.5
 21
-101.5615714555403173
 31
0.0
  0
LINE
  5
62
100
AcDbEntity
100
AcDbLine
  8
0
 62
256
370
-1
  6
BYLAYER
 10
-22.5
 20
-101.5615714555403173
 30
0.0
 11
-22.5
 21
-107.0
 31
0.0
  0
MTEXT
  5
63
100
AcDbEntity
100
AcDbMText
  8
0
 62
256
370
-1
  6
BYLAYER
 10
-16.5
 20
-102.0
 30
0.0
 40
2.5
 41
0.0
 71
1
 72
1
  1
Walnut?  Rosewood?
  7
textstyle3
 50
0.0
 73
2
 44
1.0
  0
DIMENSION
  5
64
100
AcDbEntity
  8
0
 62
256
370
-1
  6
BYLAYER
100
AcDbDimension
 10
-26.0
 20
-99.9969241834995159
 30
0.0
 11
-27.875
 21
-103.498462091749758
 31
0.0
 70
1
 71
8
 72
2
 41
1.0
 42
0.0
  1
7
  3
Standard
100
AcDbAlignedDimension
 13
0.0
 23
-99.9969241834995159
 33
0.0
 14
0.0
 24
-107.0
 34
0.0
1001
ACAD
1000
DSTYLE
1002
{
1070
144
1040
1
1002
}
  0
ARC
  5
65
100
AcDbEntity
  8
0
 62
256
370
-1
  6
BYLAYER
100
AcDbCircle
 10
0.0
 20
-262.5569241834995182
 30
0.0
 40
162.5600000000000023
100
AcDbArc
 50
82.0441247095331363
 51
97.9558752904668779
  0
MTEXT
  5
66
100
AcDbEntity
100
AcDbMText
  8
0
 62
256
370
-1
  6
BYLAYER
 10
-15.0
 20
-129.0
 30
0.0
 40
2.5
 41
0.0
 71
1
 72
1
  1
Neck Cross Section
  7
textstyle4
 50
0.0
 73
2
 44
1.0
  0
DIMENSION
  5
67
100
AcDbEntity
  8
0
 62
256
370
-1
  6
BYLAYER
100
AcDbDimension
 10
30.0
 20
-107.0
 30
0.0
 11
28.125
 21
-117.0
 31
0.0
 70
1
 71
8
 72
2
 41
1.0
 42
0.0
  1

  3
Standard
100
AcDbAlignedDimension
 13
3.1499999999999986
 23
-107.0
 33
0.0
 14
3.1499999999999986
 24
-127.0000000000000142
 34
0.0
1001
ACAD
1000
DSTYLE
1002
{
1070
144
1040
1
1002
}
  0
DIMENSION
  5
68
100
AcDbEntity
  8
0
 62
256
370
-1
  6
BYLAYER
100
AcDbDimension
 10
-22.4999999999999964
 20
-90.0
 30
0.0
 11
0.0000000000000041
 21
-88.125
 31
0.0
 70
1
 71
8
 72
2
 41
1.0
 42
0.0
  1

  3
Standard
100
AcDbAlignedDimension
 13
-22.5
 23
-101.5615714555403173
 33
0.0
 14
22.5
 24
-101.5615714555403315
 34
0.0
1001
ACAD
1000
DSTYLE
1002
{
1070
144
1040
1
1002
}
  0
LINE
  5
69
100
AcDbEntity
100
AcDbLine
  8
0
 62
256
370
-1
  6
BYLAYER
 10
-120.0
 20
100.0
 30
0.0
 11
65.0
 21
100.0
 31
0.0
  0
LINE
  5
6A
100
AcDbEntity
100
AcDbLine
  8
0
 62
256
370
-1
  6
BYLAYER
 10
65.0
 20
120.0
 30
0.0
 11
0.0
 21
120.0
 31
0.0
  0
LINE
  5
6B
100
AcDbEntity
100
AcDbLine
  8
0
 62
256
370
-1
  6
BYLAYER
 10
0.0
 20
120.0
 30
0.0
 11
-120.0
 21
100.0
 31
0.0
  0
LINE
  5
6C
100
AcDbEntity
100
AcDbLine
  8
0
 62
256
370
-1
  6
BYLAYER
 10
-179.1724137931034306
 20
90.0689655172414234
 30
0.0
 11
-120.0
 21
100.0
 31
0.0
  0
LINE
  5
6D
100
AcDbEntity
100
AcDbLine
  8
0
 62
256
370
-1
  6
BYLAYER
 10
1.6551724137931103
 20
100.1379310344826195
 30
0.0
 11
-175.8620689655171248
 21
70.344827586206975
 31
0.0
  0
DIMENSION
  5
6E
100
AcDbEntity
  8
0
 62
256
370
-1
  6
BYLAYER
100
AcDbDimension
 10
1.6551724137931103
 20
100.1379310344826195
 30
0.0
 11
-14.1832317592138626
 21
108.8180640200662594
 31
0.0
 70
2
 71
8
 72
2
 41
1.0
 42
0.0
  1

  3
Standard
100
AcDb2LineAngularDimension
 13
0.0
 23
120.0
 33
0.0
 14
-120.0
 24
100.0
 34
0.0
 15
-120.0
 25
100.0
 35
0.0
 16
-16.0640508547338356
 26
108.8086590713847102
 36
0.0
  0
SPLINE
  5
6F
  8
0
 62
256
370
-1
  6
BYLAYER
100
AcDbEntity
100
AcDbSpline
 70
8
 71
3
 72
55
 73
51
 74
0
 40
0.0
 40
0.0
 40
0.0
 40
0.0
 40
1.0
 40
2.0
 40
3.0
 40
4.0
 40
5.0
 40
6.0
 40
7.0
 40
8.0
 40
9.0
 40
10.0
 40
11.0
 40
12.0
 40
13.0
 40
14.0
 40
15.0
 40
16.0
 40
17.0
 40
18.0
 40
19.0
 40
20.0
 40
21.0
 40
22.0
 40
23.0
 40
24.0
 40
25.0
 40
26.0
 40
27.0
 40
28.0
 40
29.0
 40
30.0
 40
31.0
 40
32.0
 40
33.0
 40
34.0
 40
35.0
 40
36.0
 40
37.0
 40
38.0
 40
39.0
 40
40.0
 40
41.0
 40
42.0
 40
43.0
 40
44.0
 40
45.0
 40
46.0
 40
47.0
 40
48.0
 40
48.0
 40
48.0
 40
48.0
 10
349.6479981909503749
 20
-22.2457719654094532
 30
0.0
 10
349.1986878014643025
 20
-41.6809850210965323
 30
0.0
 10
358.2651442313167536
 20
-68.0561309988488574
 30
0.0
 10
364.0347074139499455
 20
-87.013267170358148
 30
0.0
 10
382.9918435854592644
 20
-110.0915199008911429
 30
0.0
 10
404.4216496923827435
 20
-119.157976330743594
 30
0.0
 10
429.9725723583303534
 20
-121.6306462661577825
 30
0.0
 10
452.2266017770587041
 20
-116.6853063953292491
 30
0.0
 10
475.3048545075916991
 20
-106.7946266536723243
 30
0.0
 10
490.9650974318819863
 20
-101.8492867828435635
 30
0.0
 10
506.6253403561725008
 20
-98.552393535624546
 30
0.0
 10
528.0551464630959799
 20
-104.3219567182580079
 30
0.0
 10
556.0787390644577499
 20
-122.4548695779626541
 30
0.0
 10
587.3992249130380969
 20
-143.8846756848861332
 30
0.0
 10
618.7197107616191261
 20
-161.1933652327859363
 30
0.0
 10
642.6221868039567653
 20
-168.6113750390288999
 30
0.0
 10
673.942672652537567
 20
-173.5567149098574191
 30
0.0
 10
713.5053916191657208
 20
-169.4355983508335441
 30
0.0
 10
735.7594210378940716
 20
-159.5449186091765057
 30
0.0
 10
753.8923338975985189
 20
-145.5331223084957912
 30
0.0
 10
776.9705866281317412
 20
-123.2790928897673837
 30
0.0
 10
793.4550528642269001
 20
-94.4312769766008273
 30
0.0
 10
803.3457326058839953
 20
-63.9350144398249398
 30
0.0
 10
808.291072476712543
 20
-36.7356451502680983
 30
0.0
 10
809.1152957885171872
 20
-4.5909359898829081
 30
0.0
 10
809.1152957885171872
 20
38.2686762239645049
 30
0.0
 10
801.6972859822744795
 20
81.9525117496163347
 30
0.0
 10
781.0917031871556446
 20
122.3394540280494454
 30
0.0
 10
756.3650038330131338
 20
150.3630466294111443
 30
0.0
 10
714.3296149309705925
 20
176.7381926071631995
 30
0.0
 10
669.821556093513891
 20
183.331979101601263
 30
0.0
 10
647.5675266747855403
 20
180.8593091661869039
 30
0.0
 10
613.7743708907905784
 20
169.3201828009205201
 30
0.0
 10
573.3874286123573256
 20
143.7692601349731376
 30
0.0
 10
539.5942728283625911
 20
121.5152307162447869
 30
0.0
 10
522.3527392629316637
 20
113.275244068687698
 30
0.0
 10
507.3527392629316637
 20
108.2752440686877122
 30
0.0
 10
487.3527392629314363
 20
113.2752440686876838
 30
0.0
 10
466.0848101689425675
 20
121.2547990448063331
 30
0.0
 10
441.3581108147998293
 20
126.0627683636674021
 30
0.0
 10
428.3079083778911809
 20
127.436473883341975
 30
0.0
 10
419.3788225000064358
 20
120.5679462849689116
 30
0.0
 10
418.6919697401690428
 20
103.3966272890365872
 30
0.0
 10
424.8736445787048979
 20
82.791044493917795
 30
0.0
 10
431.7421721770776912
 20
69.0539892971719524
 30
0.0
 10
425.5604973385420635
 20
45.014142702866593
 30
0.0
 10
396.7126814253756493
 20
34.7113513053070264
 30
0.0
 10
367.5485090850475558
 20
34.4565484259767203
 30
0.0
 10
350.4033516338184882
 20
31.738413708098939
 30
0.0
 10
349.1077799018892165
 20
22.4437980395187822
 30
0.0
 10
349.1077799018892165
 20
22.4437980395187822
 30
0.0
  0
ENDSEC
  0
SECTION
  2
OBJECTS
  0
DICTIONARY
  5
C
100
AcDbDictionary
280
0
281
1
  3
ACAD_GROUP
350
D
  3
ACAD_LAYOUT
350
1A
  3
ACAD_MLINESTYLE
350
17
  3
ACAD_PLOTSETTINGS
350
19
  3
ACAD_PLOTSTYLENAME
350
E
  3
AcDbVariableDictionary
350
70
  3
QCAD_OBJECTS
350
71
  0
DICTIONARY
  5
D
100
AcDbDictionary
280
0
281
1
  0
ACDBDICTIONARYWDFLT
  5
E
100
AcDbDictionary
281
1
  3
Normal
350
F
100
AcDbDictionaryWithDefault
340
F
  0
ACDBPLACEHOLDER
  5
F
  0
DICTIONARY
  5
17
100
AcDbDictionary
280
0
281
1
  3
Standard
350
18
  0
MLINESTYLE
  5
18
100
AcDbMlineStyle
  2
STANDARD
 70
0
  3

 62
256
 51
90.0
 52
90.0
 71
2
 49
0.5
 62
256
  6
BYLAYER
 49
-0.5
 62
256
  6
BYLAYER
  0
DICTIONARY
  5
19
100
AcDbDictionary
280
0
281
1
  0
DICTIONARY
  5
1A
100
AcDbDictionary
281
1
  3
Layout1
350
1E
  3
Layout2
350
26
  3
Model
350
22
  0
LAYOUT
  5
1E
100
AcDbPlotSettings
  1

  2
none_device
  4

  6

 40
0.0
 41
0.0
 42
0.0
 43
0.0
 44
0.0
 45
0.0
 46
0.0
 47
0.0
 48
0.0
 49
0.0
140
0.0
141
0.0
142
1.0
143
1.0
 70
688
 72
0
 73
0
 74
5
  7

 75
16
147
1.0
148
0.0
149
0.0
100
AcDbLayout
  1
Layout1
 70
1
 71
1
 10
0.0
 20
0.0
 11
420.0
 21
297.0
 12
0.0
 22
0.0
 32
0.0
 14
100000000000000000000.0
 24
100000000000000000000.0
 34
100000000000000000000.0
 15
-100000000000000000000.0
 25
-100000000000000000000.0
 35
-100000000000000000000.0
146
0.0
 13
0.0
 23
0.0
 33
0.0
 16
1.0
 26
0.0
 36
0.0
 17
0.0
 27
1.0
 37
0.0
 76
0
330
1B
  0
LAYOUT
  5
22
100
AcDbPlotSettings
  1

  2
none_device
  4

  6

 40
0.0
 41
0.0
 42
0.0
 43
0.0
 44
0.0
 45
0.0
 46
0.0
 47
0.0
 48
0.0
 49
0.0
140
0.0
141
0.0
142
1.0
143
1.0
 70
1712
 72
0
 73
0
 74
0
  7

 75
0
147
1.0
148
0.0
149
0.0
100
AcDbLayout
  1
Model
 70
1
 71
0
 10
0.0
 20
0.0
 11
12.0
 21
9.0
 12
0.0
 22
0.0
 32
0.0
 14
0.0
 24
0.0
 34
0.0
 15
0.0
 25
0.0
 35
0.0
146
0.0
 13
0.0
 23
0.0
 33
0.0
 16
1.0
 26
0.0
 36
0.0
 17
0.0
 27
1.0
 37
0.0
 76
0
330
1F
  0
LAYOUT
  5
26
100
AcDbPlotSettings
  1

  2
none_device
  4

  6

 40
0.0
 41
0.0
 42
0.0
 43
0.0
 44
0.0
 45
0.0
 46
0.0
 47
0.0
 48
0.0
 49
0.0
140
0.0
141
0.0
142
1.0
143
1.0
 70
688
 72
0
 73
0
 74
5
  7

 75
16
147
1.0
148
0.0
149
0.0
100
AcDbLayout
  1
Layout2
 70
1
 71
2
 10
0.0
 20
0.0
 11
12.0
 21
9.0
 12
0.0
 22
0.0
 32
0.0
 14
0.0
 24
0.0
 34
0.0
 15
0.0
 25
0.0
 35
0.0
146
0.0
 13
0.0
 23
0.0
 33
0.0
 16
1.0
 26
0.0
 36
0.0
 17
0.0
 27
1.0
 37
0.0
 76
0
330
23
  0
DICTIONARY
  5
70
100
AcDbDictionary
281
1
  3
DIMASSOC
350
73
  3
HIDETEXT
350
72
  0
DICTIONARYVAR
  5
72
100
DictionaryVariables
280
0
  1
2
  0
DICTIONARYVAR
  5
73
100
DictionaryVariables
280
0
  1
1
  0
DICTIONARY
  5
71
100
AcDbDictionary
281
1
  3
Grid/DisplayGrid00
350
74
  3
Grid/DisplayGrid01
350
75
  3
Grid/DisplayGrid02
350
76
  3
Grid/DisplayGrid03
350
77
  3
Grid/GridSpacingX00
350
78
  3
Grid/GridSpacingX01
350
79
  3
Grid/GridSpacingX02
350
7A
  3
Grid/GridSpacingX03
350
7B
  3
Grid/GridSpacingY00
350
7C
  3
Grid/GridSpacingY01
350
7D
  3
Grid/GridSpacingY02
350
7E
  3
Grid/GridSpacingY03
350
7F
  3
Grid/IsometricGrid00
350
80
  3
Grid/IsometricGrid01
350
81
  3
Grid/IsometricGrid02
350
82
  3
Grid/IsometricGrid03
350
83
  3
Grid/IsometricProjection00
350
84
  3
Grid/IsometricProjection01
350
85
  3
Grid/IsometricProjection02
350
86
  3
Grid/IsometricProjection03
350
87
  3
Grid/MetaGridSpacingX00
350
88
  3
Grid/MetaGridSpacingX01
350
89
  3
Grid/MetaGridSpacingX02
350
8A
  3
Grid/MetaGridSpacingX03
350
8B
  3
Grid/MetaGridSpacingY00
350
8C
  3
Grid/MetaGridSpacingY01
350
8D
  3
Grid/MetaGridSpacingY02
350
8E
  3
Grid/MetaGridSpacingY03
350
8F
  3
MultiPageSettings/Columns
350
90
  3
MultiPageSettings/GlueMarginsBottom
350
91
  3
MultiPageSettings/GlueMarginsLeft
350
92
  3
MultiPageSettings/GlueMarginsRight
350
93
  3
MultiPageSettings/GlueMarginsTop
350
94
  3
MultiPageSettings/PrintCropMarks
350
95
  3
MultiPageSettings/Rows
350
96
  3
PageSettings/OffsetX
350
97
  3
PageSettings/OffsetY
350
98
  3
PageSettings/PageOrientation
350
99
  3
PageSettings/PaperHeight
350
9A
  3
PageSettings/PaperWidth
350
9B
  3
PageSettings/Scale
350
9C
  3
PageSettings/ShowPaperBorders
350
9D
  3
UnitSettings/PaperUnit
350
9E
  0
XRECORD
  5
74
330
71
100
AcDbXrecord
280
1
290
1
  0
XRECORD
  5
75
330
71
100
AcDbXrecord
280
1
290
1
  0
XRECORD
  5
76
330
71
100
AcDbXrecord
280
1
290
1
  0
XRECORD
  5
77
330
71
100
AcDbXrecord
280
1
290
1
  0
XRECORD
  5
78
330
71
100
AcDbXrecord
280
1
1000
auto
  0
XRECORD
  5
79
330
71
100
AcDbXrecord
280
1
1000
auto
  0
XRECORD
  5
7A
330
71
100
AcDbXrecord
280
1
1000
auto
  0
XRECORD
  5
7B
330
71
100
AcDbXrecord
280
1
1000
auto
  0
XRECORD
  5
7C
330
71
100
AcDbXrecord
280
1
1000
auto
  0
XRECORD
  5
7D
330
71
100
AcDbXrecord
280
1
1000
auto
  0
XRECORD
  5
7E
330
71
100
AcDbXrecord
280
1
1000
auto
  0
XRECORD
  5
7F
330
71
100
AcDbXrecord
280
1
1000
auto
  0
XRECORD
  5
80
330
71
100
AcDbXrecord
280
1
290
0
  0
XRECORD
  5
81
330
71
100
AcDbXrecord
280
1
290
0
  0
XRECORD
  5
82
330
71
100
AcDbXrecord
280
1
290
0
  0
XRECORD
  5
83
330
71
100
AcDbXrecord
280
1
290
0
  0
XRECORD
  5
84
330
71
100
AcDbXrecord
280
1
 90
0
  0
XRECORD
  5
85
330
71
100
AcDbXrecord
280
1
 90
0
  0
XRECORD
  5
86
330
71
100
AcDbXrecord
280
1
 90
0
  0
XRECORD
  5
87
330
71
100
AcDbXrecord
280
1
 90
0
  0
XRECORD
  5
88
330
71
100
AcDbXrecord
280
1
1000
auto
  0
XRECORD
  5
89
330
71
100
AcDbXrecord
280
1
1000
auto
  0
XRECORD
  5
8A
330
71
100
AcDbXrecord
280
1
1000
auto
  0
XRECORD
  5
8B
330
71
100
AcDbXrecord
280
1
1000
auto
  0
XRECORD
  5
8C
330
71
100
AcDbXrecord
280
1
1000
auto
  0
XRECORD
  5
8D
330
71
100
AcDbXrecord
280
1
1000
auto
  0
XRECORD
  5
8E
330
71
100
AcDbXrecord
280
1
1000
auto
  0
XRECORD
  5
8F
330
71
100
AcDbXrecord
280
1
1000
auto
  0
XRECORD
  5
90
330
71
100
AcDbXrecord
280
1
 90
1
  0
XRECORD
  5
91
330
71
100
AcDbXrecord
280
1
 40
10.0
  0
XRECORD
  5
92
330
71
100
AcDbXrecord
280
1
 40
10.0
  0
XRECORD
  5
93
330
71
100
AcDbXrecord
280
1
 40
10.0
  0
XRECORD
  5
94
330
71
100
AcDbXrecord
280
1
 40
10.0
  0
XRECORD
  5
95
330
71
100
AcDbXrecord
280
1
290
0
  0
XRECORD
  5
96
330
71
100
AcDbXrecord
280
1
 90
1
  0
XRECORD
  5
97
330
71
100
AcDbXrecord
280
1
 40
0.0
  0
XRECORD
  5
98
330
71
100
AcDbXrecord
280
1
 40
0.0
  0
XRECORD
  5
99
330
71
100
AcDbXrecord
280
1
1000
Portrait
  0
XRECORD
  5
9A
330
71
100
AcDbXrecord
280
1
 40
279.3999999999999773
  0
XRECORD
  5
9B
330
71
100
AcDbXrecord
280
1
 40
215.9000000000000057
  0
XRECORD
  5
9C
330
71
100
AcDbXrecord
280
1
1000
1:1
  0
XRECORD
  5
9D
330
71
100
AcDbXrecord
280
1
290
1
  0
XRECORD
  5
9E
330
71
100
AcDbXrecord
280
1
 90
4
  0
ENDSEC
  0
EOF
