G04 #@! TF.FileFunction,Copper,L1,Top,Signal*
%FSLAX46Y46*%
G04 Gerber Fmt 4.6, Leading zero omitted, Abs format (unit mm)*
G04 Created by KiCad (PCBNEW (2015-07-22 BZR 5980)-product) date Friday, October 16, 2015 'amt' 10:57:48 am*
%MOMM*%
G01*
G04 APERTURE LIST*
%ADD10C,0.100000*%
%ADD11R,0.889000X0.635000*%
%ADD12R,2.000000X2.000000*%
%ADD13C,2.000000*%
%ADD14C,2.500000*%
%ADD15C,1.500000*%
%ADD16R,1.100000X2.500000*%
%ADD17R,1.727200X2.032000*%
%ADD18O,1.524000X1.778000*%
%ADD19R,1.600200X3.599180*%
%ADD20R,2.032000X2.032000*%
%ADD21O,2.032000X2.032000*%
%ADD22R,1.778000X1.778000*%
%ADD23R,0.635000X0.889000*%
%ADD24R,0.800100X0.800100*%
%ADD25R,1.500000X2.000000*%
%ADD26O,1.727200X2.032000*%
%ADD27R,1.500000X0.550000*%
%ADD28R,0.550000X1.500000*%
%ADD29R,1.000000X1.000000*%
%ADD30R,0.650000X1.060000*%
%ADD31R,1.100000X1.200000*%
%ADD32R,2.301240X0.500380*%
%ADD33R,2.499360X1.998980*%
%ADD34R,2.000000X8.000000*%
%ADD35R,2.000000X5.000000*%
%ADD36C,12.500000*%
%ADD37R,0.797560X0.797560*%
%ADD38R,1.500000X1.200000*%
%ADD39C,1.501140*%
%ADD40C,0.685800*%
%ADD41C,0.762000*%
%ADD42C,0.508000*%
%ADD43C,0.177800*%
%ADD44C,0.304800*%
%ADD45C,1.270000*%
%ADD46C,0.254000*%
G04 APERTURE END LIST*
D10*
D11*
X144400000Y-59468000D03*
X144400000Y-60992000D03*
X124800000Y-59468000D03*
X124800000Y-60992000D03*
X105200000Y-59468000D03*
X105200000Y-60992000D03*
X85600000Y-59468000D03*
X85600000Y-60992000D03*
D12*
X141900000Y-61730000D03*
D13*
X141900000Y-59190000D03*
D12*
X122300000Y-61730000D03*
D13*
X122300000Y-59190000D03*
D12*
X102700000Y-61730000D03*
D13*
X102700000Y-59190000D03*
D12*
X83100000Y-61730000D03*
D13*
X83100000Y-59190000D03*
D12*
X139400000Y-61730000D03*
D13*
X139400000Y-59190000D03*
D12*
X119800000Y-61730000D03*
D13*
X119800000Y-59190000D03*
D12*
X100200000Y-61730000D03*
D13*
X100200000Y-59190000D03*
D12*
X80600000Y-61730000D03*
D13*
X80600000Y-59190000D03*
D12*
X61000000Y-61730000D03*
D13*
X61000000Y-59190000D03*
D12*
X63500000Y-61730000D03*
D13*
X63500000Y-59190000D03*
D14*
X141600000Y-79930000D03*
X122000000Y-79930000D03*
X102400000Y-79930000D03*
X82800000Y-79930000D03*
X63200000Y-79930000D03*
D15*
X123731448Y-150146544D03*
X123731448Y-151896544D03*
D16*
X121731448Y-147646544D03*
X123231448Y-147646544D03*
X124731448Y-147646544D03*
X126231448Y-147646544D03*
X127731448Y-147646544D03*
X129231448Y-147646544D03*
X130731448Y-147646544D03*
X132231448Y-147646544D03*
X133731448Y-147646544D03*
X135231448Y-147646544D03*
X136731448Y-147646544D03*
X138231448Y-147646544D03*
X139731448Y-147646544D03*
D17*
X69777275Y-153784192D03*
D18*
X71777275Y-153784192D03*
X73777275Y-153784192D03*
X75777275Y-153784192D03*
X77777275Y-153784192D03*
X79777275Y-153784192D03*
X81777275Y-153784192D03*
X83777275Y-153784192D03*
X85777275Y-153784192D03*
X87777275Y-153784192D03*
D19*
X79300000Y-113730000D03*
D20*
X73498559Y-114561294D03*
D21*
X76038559Y-114561294D03*
D19*
X77250000Y-140230000D03*
D22*
X63338559Y-129293294D03*
X63338559Y-126753294D03*
X63338559Y-124213294D03*
D11*
X91278559Y-131325294D03*
X91278559Y-129801294D03*
D23*
X87976559Y-136278294D03*
X89500559Y-136278294D03*
D24*
X89007799Y-132788294D03*
X89007799Y-134688294D03*
X91006779Y-133738294D03*
D11*
X106841184Y-124900768D03*
X106841184Y-126424768D03*
D25*
X99841184Y-128662768D03*
X99841184Y-135662768D03*
X105341184Y-128662768D03*
X105341184Y-135662768D03*
D17*
X70958559Y-136278294D03*
D26*
X73498559Y-136278294D03*
X76038559Y-136278294D03*
X78578559Y-136278294D03*
X81118559Y-136278294D03*
X83658559Y-136278294D03*
D17*
X68418559Y-132468294D03*
D26*
X70958559Y-132468294D03*
X73498559Y-132468294D03*
X76038559Y-132468294D03*
D27*
X71608559Y-118943294D03*
X71608559Y-119743294D03*
X71608559Y-120543294D03*
X71608559Y-121343294D03*
X71608559Y-122143294D03*
X71608559Y-122943294D03*
X71608559Y-123743294D03*
X71608559Y-124543294D03*
X71608559Y-125343294D03*
X71608559Y-126143294D03*
X71608559Y-126943294D03*
D28*
X73308559Y-128643294D03*
X74108559Y-128643294D03*
X74908559Y-128643294D03*
X75708559Y-128643294D03*
X76508559Y-128643294D03*
X77308559Y-128643294D03*
X78108559Y-128643294D03*
X78908559Y-128643294D03*
X79708559Y-128643294D03*
X80508559Y-128643294D03*
X81308559Y-128643294D03*
D27*
X83008559Y-126943294D03*
X83008559Y-126143294D03*
X83008559Y-125343294D03*
X83008559Y-124543294D03*
X83008559Y-123743294D03*
X83008559Y-122943294D03*
X83008559Y-122143294D03*
X83008559Y-121343294D03*
X83008559Y-120543294D03*
X83008559Y-119743294D03*
X83008559Y-118943294D03*
D28*
X81308559Y-117243294D03*
X80508559Y-117243294D03*
X79708559Y-117243294D03*
X78908559Y-117243294D03*
X78108559Y-117243294D03*
X77308559Y-117243294D03*
X76508559Y-117243294D03*
X75708559Y-117243294D03*
X74908559Y-117243294D03*
X74108559Y-117243294D03*
X73308559Y-117243294D03*
D11*
X91278559Y-123959294D03*
X91278559Y-125483294D03*
D23*
X87976559Y-129547294D03*
X89500559Y-129547294D03*
X71085559Y-115323294D03*
X69561559Y-115323294D03*
X67656559Y-119768294D03*
X69180559Y-119768294D03*
X67656559Y-129928294D03*
X69180559Y-129928294D03*
D11*
X82700000Y-115868000D03*
X82700000Y-117392000D03*
D23*
X83531559Y-128658294D03*
X85055559Y-128658294D03*
X69561559Y-117228294D03*
X71085559Y-117228294D03*
D29*
X64588559Y-117228294D03*
X62088559Y-117228294D03*
X87400000Y-113880000D03*
X87400000Y-111380000D03*
X87488559Y-138183294D03*
X89988559Y-138183294D03*
X66513559Y-138203294D03*
X66513559Y-140703294D03*
D23*
X89500559Y-123959294D03*
X87976559Y-123959294D03*
D24*
X68738559Y-113784054D03*
X70638559Y-113784054D03*
X69688559Y-111785074D03*
X90912799Y-116913294D03*
X90912799Y-118813294D03*
X92911779Y-117863294D03*
X87783559Y-140357534D03*
X85883559Y-140357534D03*
X86833559Y-142356514D03*
X63704319Y-136593294D03*
X63704319Y-134693294D03*
X61705339Y-135643294D03*
D11*
X67783559Y-117355294D03*
X67783559Y-115831294D03*
D23*
X87976559Y-119768294D03*
X89500559Y-119768294D03*
D11*
X67148559Y-114180294D03*
X67148559Y-112656294D03*
D23*
X87976559Y-117863294D03*
X89500559Y-117863294D03*
D11*
X86198559Y-134881294D03*
X86198559Y-136405294D03*
X67148559Y-134881294D03*
X67148559Y-136405294D03*
X84293559Y-140215294D03*
X84293559Y-138691294D03*
X65243559Y-134881294D03*
X65243559Y-136405294D03*
X108341184Y-124900768D03*
X108341184Y-126424768D03*
X70750000Y-128118000D03*
X70750000Y-129642000D03*
D23*
X86325559Y-123578294D03*
X84801559Y-123578294D03*
X84801559Y-119768294D03*
X86325559Y-119768294D03*
X84801559Y-121673294D03*
X86325559Y-121673294D03*
D11*
X85563559Y-132595294D03*
X85563559Y-131071294D03*
X69053559Y-139326294D03*
X69053559Y-140850294D03*
X69300000Y-126792000D03*
X69300000Y-125268000D03*
X87468559Y-131071294D03*
X87468559Y-132595294D03*
X70958559Y-139326294D03*
X70958559Y-140850294D03*
D30*
X89700000Y-125630000D03*
X88750000Y-125630000D03*
X87800000Y-125630000D03*
X87800000Y-127830000D03*
X89700000Y-127830000D03*
D31*
X81818559Y-130983294D03*
X81818559Y-132683294D03*
X80418559Y-132683294D03*
X80418559Y-130983294D03*
D23*
X69662000Y-123130000D03*
X68138000Y-123130000D03*
D22*
X112340410Y-128662661D03*
X112340410Y-126122661D03*
X112340410Y-123582661D03*
D11*
X78578559Y-131062468D03*
X78578559Y-132586468D03*
X83658559Y-132595294D03*
X83658559Y-131071294D03*
D32*
X102535124Y-121420820D03*
X102535124Y-122220920D03*
X102535124Y-123021020D03*
X102535124Y-123821120D03*
X102535124Y-124621220D03*
D33*
X102436064Y-118570940D03*
X96936964Y-118570940D03*
X102436064Y-127471100D03*
X96936964Y-127471100D03*
D23*
X89462000Y-116230000D03*
X87938000Y-116230000D03*
D10*
G36*
X63174874Y-113886980D02*
X61760660Y-115301194D01*
X56103806Y-109644340D01*
X57518020Y-108230126D01*
X63174874Y-113886980D01*
X63174874Y-113886980D01*
G37*
G36*
X65296194Y-111765660D02*
X63881980Y-113179874D01*
X58225126Y-107523020D01*
X59639340Y-106108806D01*
X65296194Y-111765660D01*
X65296194Y-111765660D01*
G37*
G36*
X90468020Y-113154874D02*
X89053806Y-111740660D01*
X94710660Y-106083806D01*
X96124874Y-107498020D01*
X90468020Y-113154874D01*
X90468020Y-113154874D01*
G37*
G36*
X92589340Y-115276194D02*
X91175126Y-113861980D01*
X96831980Y-108205126D01*
X98246194Y-109619340D01*
X92589340Y-115276194D01*
X92589340Y-115276194D01*
G37*
G36*
X91150126Y-140423020D02*
X92564340Y-139008806D01*
X98221194Y-144665660D01*
X96806980Y-146079874D01*
X91150126Y-140423020D01*
X91150126Y-140423020D01*
G37*
G36*
X89028806Y-142544340D02*
X90443020Y-141130126D01*
X96099874Y-146786980D01*
X94685660Y-148201194D01*
X89028806Y-142544340D01*
X89028806Y-142544340D01*
G37*
G36*
X63806980Y-141180126D02*
X65221194Y-142594340D01*
X59564340Y-148251194D01*
X58150126Y-146836980D01*
X63806980Y-141180126D01*
X63806980Y-141180126D01*
G37*
G36*
X61685660Y-139058806D02*
X63099874Y-140473020D01*
X57443020Y-146129874D01*
X56028806Y-144715660D01*
X61685660Y-139058806D01*
X61685660Y-139058806D01*
G37*
D34*
X70750000Y-61480000D03*
X90400000Y-61430000D03*
X110000000Y-61530000D03*
X129600000Y-61430000D03*
X70750000Y-78730000D03*
X90400000Y-78630000D03*
X109900000Y-78630000D03*
X129500000Y-78630000D03*
X149200000Y-61630000D03*
X149100000Y-78530000D03*
D35*
X143050000Y-88230000D03*
X140050000Y-88230000D03*
X123450000Y-88280000D03*
X120450000Y-88280000D03*
X103850000Y-88305000D03*
X100850000Y-88305000D03*
X84250000Y-88280000D03*
X81250000Y-88280000D03*
X64675000Y-88305000D03*
X61675000Y-88305000D03*
D34*
X56700000Y-61430000D03*
X76400000Y-61530000D03*
X95900000Y-61430000D03*
X115500000Y-61530000D03*
X135100000Y-61430000D03*
D36*
X122000000Y-97830000D03*
X102300000Y-97830000D03*
X82775000Y-97805000D03*
X63175000Y-97805000D03*
X141600000Y-97830000D03*
D34*
X56000000Y-82230000D03*
X75750000Y-82230000D03*
X95250000Y-82230000D03*
X114750000Y-82230000D03*
X134500000Y-82230000D03*
D37*
X66300000Y-89880700D03*
X66300000Y-91379300D03*
X86000000Y-89880700D03*
X86000000Y-91379300D03*
X105600000Y-89980700D03*
X105600000Y-91479300D03*
X125300000Y-89980700D03*
X125300000Y-91479300D03*
X144900000Y-89980700D03*
X144900000Y-91479300D03*
D11*
X59900000Y-89868000D03*
X59900000Y-91392000D03*
X79500000Y-89968000D03*
X79500000Y-91492000D03*
X99000000Y-90068000D03*
X99000000Y-91592000D03*
X118700000Y-90068000D03*
X118700000Y-91592000D03*
X138300000Y-90068000D03*
X138300000Y-91592000D03*
D17*
X73077275Y-151484192D03*
D26*
X75617275Y-151484192D03*
X78157275Y-151484192D03*
X80697275Y-151484192D03*
X83237275Y-151484192D03*
X85777275Y-151484192D03*
D17*
X126481448Y-150896544D03*
D26*
X129021448Y-150896544D03*
X131561448Y-150896544D03*
X134101448Y-150896544D03*
X136641448Y-150896544D03*
X139181448Y-150896544D03*
D38*
X84700000Y-114230000D03*
X84700000Y-112230000D03*
X81700000Y-112230000D03*
X81700000Y-114230000D03*
D11*
X84400000Y-115868000D03*
X84400000Y-117392000D03*
X86100000Y-115868000D03*
X86100000Y-117392000D03*
D39*
X75200000Y-139530000D03*
X79300000Y-139530000D03*
X81400000Y-139530000D03*
X73200000Y-139530000D03*
X63000000Y-120730000D03*
X67000000Y-142930000D03*
D11*
X66000000Y-59468000D03*
X66000000Y-60992000D03*
D40*
X66200000Y-139830000D03*
X65100000Y-139930000D03*
X65800000Y-116130000D03*
X86200000Y-111430000D03*
X88700000Y-113130000D03*
X86200000Y-112730000D03*
X65290927Y-119730000D03*
X65290927Y-118530000D03*
X91300000Y-136330000D03*
X91160968Y-137548294D03*
X92548559Y-136278294D03*
X91278559Y-122943294D03*
X74100000Y-118730000D03*
X70200000Y-122030000D03*
X69500000Y-128230000D03*
X65300000Y-124230000D03*
X67000000Y-121430000D03*
X67656559Y-119768294D03*
X68138000Y-123130000D03*
X89950000Y-129580000D03*
X74700000Y-130880000D03*
X64350000Y-115380000D03*
X88750000Y-125630000D03*
X88738559Y-131833294D03*
X87468559Y-121038294D03*
X88738559Y-121038294D03*
X90008559Y-121038294D03*
X64608559Y-135008294D03*
X65878559Y-133738294D03*
X64608559Y-133738294D03*
X69688559Y-114053294D03*
X71593559Y-114053294D03*
X84928559Y-140088294D03*
X69053559Y-115958294D03*
X84928559Y-119133294D03*
X79848559Y-132468294D03*
X83023559Y-131198294D03*
X81118559Y-126753294D03*
X86198559Y-138183294D03*
X85563559Y-139453294D03*
X69300000Y-126792000D03*
X73100000Y-125030000D03*
X72228559Y-130563294D03*
X77650000Y-126180000D03*
X75400000Y-126980000D03*
X76650000Y-126180000D03*
X66500000Y-62230000D03*
X86100000Y-62230000D03*
X105700000Y-62230000D03*
X125300000Y-62230000D03*
X81372559Y-120657294D03*
X86198559Y-118498294D03*
X86550000Y-134180000D03*
X86550000Y-131780000D03*
X144900000Y-62230000D03*
X63973559Y-131198294D03*
X73700000Y-123830000D03*
X69300000Y-125230000D03*
X62703559Y-131198294D03*
X105341184Y-124662768D03*
X111341184Y-131162768D03*
X110341184Y-130162768D03*
X87600000Y-116630000D03*
X78000000Y-119030000D03*
X87777275Y-149584192D03*
X73077275Y-149584192D03*
X78177275Y-148884192D03*
X69777275Y-148984192D03*
X71477275Y-148184192D03*
X80677275Y-148184192D03*
X121731448Y-148146544D03*
X123231448Y-146896544D03*
X84400000Y-117330000D03*
X79100000Y-119030000D03*
X80300000Y-119030000D03*
X86200000Y-117430000D03*
X67700000Y-124430000D03*
X66500000Y-119930000D03*
X66300000Y-132330000D03*
X67800000Y-126030000D03*
D41*
X65100000Y-141330000D02*
X65100000Y-140930000D01*
X65100000Y-140930000D02*
X66200000Y-139830000D01*
X61685660Y-144715660D02*
X61714340Y-144715660D01*
X61714340Y-144715660D02*
X65100000Y-141330000D01*
X61714340Y-144715660D02*
X65100000Y-141330000D01*
X65100000Y-141330000D02*
X65100000Y-139930000D01*
D42*
X62088559Y-117228294D02*
X62088559Y-117418559D01*
X62088559Y-117418559D02*
X63800000Y-119130000D01*
X66000000Y-116330000D02*
X65800000Y-116130000D01*
X66000000Y-118330000D02*
X66000000Y-116330000D01*
X65200000Y-119130000D02*
X66000000Y-118330000D01*
X63800000Y-119130000D02*
X65200000Y-119130000D01*
D41*
X87388559Y-111943294D02*
X87388559Y-111391441D01*
X87388559Y-111391441D02*
X87400000Y-111380000D01*
X87388559Y-111943294D02*
X86713294Y-111943294D01*
X86713294Y-111943294D02*
X86200000Y-111430000D01*
X88700000Y-111943294D02*
X88700000Y-113130000D01*
X87388559Y-111943294D02*
X86986706Y-111943294D01*
X86986706Y-111943294D02*
X86200000Y-112730000D01*
X62088559Y-117727632D02*
X62088559Y-117228294D01*
X65290927Y-119730000D02*
X64700000Y-119730000D01*
X64700000Y-119730000D02*
X64500000Y-119730000D01*
X64500000Y-119730000D02*
X64300000Y-119730000D01*
X64300000Y-119730000D02*
X63100000Y-118530000D01*
X65290927Y-118530000D02*
X63100000Y-118530000D01*
X63100000Y-118530000D02*
X62088559Y-117518559D01*
X62088559Y-117518559D02*
X62088559Y-117228294D01*
X92500000Y-137548294D02*
X92500000Y-137530000D01*
X92500000Y-137530000D02*
X91300000Y-136330000D01*
X66513559Y-140703294D02*
X66873294Y-140703294D01*
X65698026Y-140703294D02*
X61685660Y-144715660D01*
X66513559Y-140703294D02*
X65698026Y-140703294D01*
D43*
X87800000Y-125630000D02*
X87800000Y-124930000D01*
X88000000Y-124730000D02*
X89700000Y-124730000D01*
X87800000Y-124930000D02*
X88000000Y-124730000D01*
D42*
X89700000Y-125630000D02*
X89700000Y-124730000D01*
X89700000Y-124730000D02*
X89700000Y-124158735D01*
X89700000Y-124158735D02*
X89500559Y-123959294D01*
X89500559Y-123959294D02*
X89520706Y-123959294D01*
X89520706Y-123959294D02*
X90536706Y-122943294D01*
X90536706Y-122943294D02*
X91278559Y-122943294D01*
D41*
X91160968Y-137548294D02*
X92500000Y-137548294D01*
X92500000Y-137548294D02*
X92548559Y-137548294D01*
X92548559Y-136278294D02*
X92548559Y-137548294D01*
X90910968Y-139184425D02*
X90912428Y-139184425D01*
X90912428Y-139184425D02*
X92548559Y-137548294D01*
X89988559Y-138183294D02*
X89988559Y-138262016D01*
X89988559Y-138262016D02*
X90910968Y-139184425D01*
X90910968Y-139184425D02*
X95671108Y-143944565D01*
X95671108Y-143944565D02*
X95671108Y-144174285D01*
X94150828Y-108674285D02*
X93671108Y-108674285D01*
X93671108Y-108674285D02*
X90402099Y-111943294D01*
X90402099Y-111943294D02*
X88700000Y-111943294D01*
X88700000Y-111943294D02*
X87388559Y-111943294D01*
X58650828Y-110194565D02*
X58650828Y-110424285D01*
X58650828Y-110424285D02*
X62088559Y-113862016D01*
X62088559Y-113862016D02*
X62088559Y-117228294D01*
X87466559Y-112021294D02*
X87388559Y-111943294D01*
D43*
X91278559Y-123959294D02*
X91278559Y-122943294D01*
X86325559Y-121673294D02*
X88738559Y-121673294D01*
X89500559Y-122435294D02*
X89500559Y-123959294D01*
X88738559Y-121673294D02*
X89500559Y-122435294D01*
D41*
X89988559Y-138183294D02*
X90008559Y-138183294D01*
D44*
X89858559Y-125483294D02*
X89688559Y-125653294D01*
D43*
X89688559Y-125653294D02*
X89543559Y-125653294D01*
D44*
X87638559Y-125503294D02*
X87788559Y-125653294D01*
D43*
X63704319Y-134693294D02*
X63536706Y-134693294D01*
X74108559Y-117243294D02*
X74108559Y-118721441D01*
X74108559Y-118721441D02*
X74100000Y-118730000D01*
X71608559Y-122143294D02*
X70313294Y-122143294D01*
X70313294Y-122143294D02*
X70200000Y-122030000D01*
X65300000Y-124230000D02*
X66500000Y-123030000D01*
X66500000Y-123030000D02*
X66500000Y-121930000D01*
X67656559Y-129928294D02*
X67656559Y-129573441D01*
X67656559Y-129573441D02*
X69000000Y-128230000D01*
X69000000Y-128230000D02*
X69500000Y-128230000D01*
X66500000Y-121930000D02*
X67000000Y-121430000D01*
X89500559Y-129547294D02*
X89917294Y-129547294D01*
X89917294Y-129547294D02*
X89950000Y-129580000D01*
X75708559Y-128643294D02*
X75708559Y-129871441D01*
X75708559Y-129871441D02*
X74700000Y-130880000D01*
D41*
X67148559Y-114180294D02*
X65549706Y-114180294D01*
X65549706Y-114180294D02*
X64350000Y-115380000D01*
D43*
X80508559Y-117243294D02*
X80508559Y-114938559D01*
X80508559Y-114938559D02*
X79300000Y-113730000D01*
X88738559Y-121038294D02*
X87468559Y-121038294D01*
X63704319Y-134693294D02*
X64293559Y-134693294D01*
X64293559Y-134693294D02*
X64608559Y-135008294D01*
X65243559Y-134373294D02*
X65878559Y-133738294D01*
X65243559Y-134373294D02*
X65243559Y-134881294D01*
X70638559Y-113784054D02*
X69957799Y-113784054D01*
X69957799Y-113784054D02*
X69688559Y-114053294D01*
X70638559Y-113784054D02*
X71324319Y-113784054D01*
X71324319Y-113784054D02*
X71593559Y-114053294D01*
X90912799Y-118813294D02*
X90912799Y-120134054D01*
X90912799Y-120134054D02*
X90008559Y-121038294D01*
X85883559Y-140357534D02*
X85197799Y-140357534D01*
X85197799Y-140357534D02*
X84928559Y-140088294D01*
X85883559Y-140357534D02*
X85883559Y-139773294D01*
X70831559Y-132468294D02*
X70958559Y-132468294D01*
D44*
X91278559Y-129801294D02*
X91278559Y-125483294D01*
X91278559Y-129801294D02*
X89754559Y-129801294D01*
X89754559Y-129801294D02*
X89500559Y-129547294D01*
D43*
X87976559Y-117863294D02*
X87976559Y-117736294D01*
X63704319Y-134693294D02*
X63704319Y-134642534D01*
X69561559Y-115958294D02*
X69053559Y-115958294D01*
X69561559Y-117228294D02*
X69561559Y-115958294D01*
X69561559Y-115958294D02*
X69561559Y-115323294D01*
X84293559Y-140215294D02*
X84166559Y-140215294D01*
X85883559Y-140357534D02*
X85832799Y-140357534D01*
D44*
X88738559Y-132519054D02*
X88738559Y-131833294D01*
X87976559Y-131071294D02*
X88738559Y-131833294D01*
X87976559Y-131071294D02*
X87468559Y-131071294D01*
X88738559Y-132519054D02*
X89007799Y-132788294D01*
X91108559Y-125653294D02*
X91278559Y-125483294D01*
D43*
X63704319Y-134693294D02*
X65055559Y-134693294D01*
X65055559Y-134693294D02*
X65243559Y-134881294D01*
X84801559Y-119768294D02*
X84801559Y-119260294D01*
X84801559Y-119260294D02*
X84928559Y-119133294D01*
X87976559Y-117863294D02*
X87976559Y-117736294D01*
X78578559Y-132586468D02*
X79730385Y-132586468D01*
X79730385Y-132586468D02*
X79848559Y-132468294D01*
X83658559Y-131071294D02*
X83150559Y-131071294D01*
X83150559Y-131071294D02*
X83023559Y-131198294D01*
X83008559Y-126943294D02*
X81308559Y-126943294D01*
X81308559Y-126943294D02*
X81118559Y-126753294D01*
X83008559Y-126943294D02*
X83008559Y-128135294D01*
X83008559Y-128135294D02*
X83531559Y-128658294D01*
X81818559Y-130983294D02*
X83570559Y-130983294D01*
X83570559Y-130983294D02*
X83658559Y-131071294D01*
X80418559Y-132683294D02*
X78675385Y-132683294D01*
X78675385Y-132683294D02*
X78578559Y-132586468D01*
X81818559Y-131133294D02*
X80418559Y-132533294D01*
X80418559Y-132533294D02*
X80418559Y-132683294D01*
X81818559Y-130983294D02*
X81818559Y-131133294D01*
D44*
X91108559Y-125653294D02*
X91278559Y-125483294D01*
D43*
X85883559Y-139773294D02*
X85563559Y-139453294D01*
D44*
X76700000Y-124530000D02*
X73600000Y-124530000D01*
X73600000Y-124530000D02*
X73100000Y-125030000D01*
X72863559Y-119730000D02*
X80600000Y-119730000D01*
X80603650Y-119733650D02*
X80603650Y-119726350D01*
X80600000Y-119730000D02*
X80603650Y-119733650D01*
X72863559Y-119730000D02*
X72863559Y-123466441D01*
X72863559Y-123466441D02*
X72800000Y-123530000D01*
X73100000Y-125030000D02*
X73100000Y-124256588D01*
X73100000Y-124256588D02*
X72586706Y-123743294D01*
X71608559Y-123743294D02*
X72586706Y-123743294D01*
X72586706Y-123743294D02*
X72800000Y-123530000D01*
D42*
X74500000Y-127230000D02*
X74500000Y-126730000D01*
X74908559Y-127638559D02*
X74500000Y-127230000D01*
X74908559Y-128643294D02*
X74908559Y-127638559D01*
X74500000Y-126730000D02*
X74800000Y-126430000D01*
X74800000Y-126430000D02*
X76725000Y-124505000D01*
X76725000Y-124505000D02*
X76700000Y-124530000D01*
X76700000Y-124530000D02*
X76700000Y-124505000D01*
D44*
X81308559Y-119021441D02*
X81308559Y-117243294D01*
X80603650Y-119726350D02*
X81308559Y-119021441D01*
D42*
X80125000Y-124505000D02*
X76700000Y-124505000D01*
X81763294Y-126143294D02*
X83008559Y-126143294D01*
X80125000Y-124505000D02*
X81763294Y-126143294D01*
D44*
X74908559Y-128643294D02*
X74908559Y-129621441D01*
X73966706Y-130563294D02*
X72228559Y-130563294D01*
X74908559Y-129621441D02*
X73966706Y-130563294D01*
D43*
X63338559Y-124213294D02*
X64116706Y-124213294D01*
X64116706Y-124213294D02*
X66100000Y-122230000D01*
X69180559Y-120549441D02*
X69180559Y-119768294D01*
X69000000Y-120730000D02*
X69180559Y-120549441D01*
X66500000Y-120730000D02*
X69000000Y-120730000D01*
X66100000Y-121130000D02*
X66500000Y-120730000D01*
X66100000Y-122230000D02*
X66100000Y-121130000D01*
X63338559Y-124213294D02*
X63816706Y-124213294D01*
D42*
X91278559Y-131325294D02*
X89345294Y-131325294D01*
X89345294Y-131325294D02*
X87976559Y-129956559D01*
D44*
X87976559Y-129956559D02*
X87976559Y-129547294D01*
D42*
X85055559Y-128658294D02*
X87087559Y-128658294D01*
X87087559Y-128658294D02*
X87976559Y-129547294D01*
D43*
X70750000Y-129642000D02*
X71307265Y-129642000D01*
X71307265Y-129642000D02*
X72228559Y-130563294D01*
X69180559Y-129928294D02*
X70463706Y-129928294D01*
X70463706Y-129928294D02*
X70750000Y-129642000D01*
D44*
X81308559Y-117243294D02*
X81308559Y-114621441D01*
X81308559Y-114621441D02*
X81700000Y-114230000D01*
D43*
X82700000Y-117392000D02*
X81457265Y-117392000D01*
X81457265Y-117392000D02*
X81308559Y-117243294D01*
D42*
X87976559Y-129547294D02*
X87932706Y-129547294D01*
X87976559Y-129547294D02*
X87976559Y-128006559D01*
X87976559Y-128006559D02*
X87800000Y-127830000D01*
D43*
X69053559Y-119768294D02*
X69180559Y-119768294D01*
D44*
X91151559Y-131198294D02*
X91278559Y-131325294D01*
X91006779Y-133738294D02*
X91006779Y-131597074D01*
X91006779Y-131597074D02*
X91278559Y-131325294D01*
X73308559Y-117243294D02*
X73308559Y-118053294D01*
X72863559Y-118498294D02*
X72863559Y-119730000D01*
X72863559Y-119730000D02*
X72863559Y-119743294D01*
X73308559Y-118053294D02*
X72863559Y-118498294D01*
X72863559Y-119743294D02*
X71608559Y-119743294D01*
D43*
X69180559Y-119768294D02*
X71583559Y-119768294D01*
X71583559Y-119768294D02*
X71608559Y-119743294D01*
X71085559Y-117228294D02*
X73293559Y-117228294D01*
X73293559Y-117228294D02*
X73308559Y-117243294D01*
X82911559Y-117243294D02*
X83023559Y-117355294D01*
D42*
X83008559Y-126143294D02*
X84318559Y-126143294D01*
X84318559Y-126143294D02*
X85055559Y-126880294D01*
X85055559Y-126880294D02*
X85055559Y-128658294D01*
D43*
X69180559Y-129928294D02*
X69180559Y-130055294D01*
X70958559Y-140850294D02*
X71679706Y-140850294D01*
X74486853Y-137830000D02*
X76038559Y-136278294D01*
X73100000Y-137830000D02*
X74486853Y-137830000D01*
X71679706Y-140850294D02*
X72000000Y-140530000D01*
X79300000Y-139530000D02*
X79300000Y-137675294D01*
X79300000Y-137675294D02*
X79300000Y-137730000D01*
X79300000Y-137730000D02*
X79300000Y-137675294D01*
X84166559Y-137675294D02*
X79300000Y-137675294D01*
X79300000Y-137675294D02*
X77435559Y-137675294D01*
X77435559Y-137675294D02*
X76038559Y-136278294D01*
X87468559Y-135643294D02*
X85563559Y-135643294D01*
X85563559Y-135643294D02*
X84928559Y-136278294D01*
X84928559Y-136278294D02*
X84928559Y-136913294D01*
X84928559Y-136913294D02*
X84166559Y-137675294D01*
X87976559Y-136151294D02*
X87468559Y-135643294D01*
X87976559Y-136278294D02*
X87976559Y-136151294D01*
D44*
X87976559Y-136278294D02*
X87976559Y-135719534D01*
X87976559Y-135719534D02*
X89007799Y-134688294D01*
D43*
X68418559Y-140723294D02*
X68926559Y-140723294D01*
X68926559Y-140723294D02*
X69053559Y-140850294D01*
X69053559Y-140850294D02*
X70958559Y-140850294D01*
X68418559Y-138183294D02*
X67783559Y-138818294D01*
X67783559Y-138818294D02*
X67783559Y-140088294D01*
X67783559Y-140088294D02*
X68418559Y-140723294D01*
X68418559Y-132468294D02*
X68418559Y-138183294D01*
X72000000Y-138930000D02*
X73100000Y-137830000D01*
X72000000Y-140530000D02*
X72000000Y-138930000D01*
D41*
X61760660Y-109644340D02*
X61760660Y-110540660D01*
X61760660Y-110540660D02*
X64100000Y-112880000D01*
X64100000Y-112880000D02*
X64100000Y-114180000D01*
X64100000Y-114180000D02*
X63350000Y-114930000D01*
X63350000Y-114930000D02*
X63350000Y-115989735D01*
X63350000Y-115989735D02*
X64588559Y-117228294D01*
D42*
X64588559Y-112472239D02*
X61760660Y-109644340D01*
X64588559Y-117228294D02*
X64617099Y-117228294D01*
D41*
X63239837Y-111513294D02*
X67783559Y-111513294D01*
X60171108Y-108674285D02*
X60400828Y-108674285D01*
X60400828Y-108674285D02*
X63239837Y-111513294D01*
X69688559Y-111785074D02*
X68055339Y-111785074D01*
X68055339Y-111785074D02*
X67783559Y-111513294D01*
X87400000Y-113880000D02*
X87550000Y-113880000D01*
X87550000Y-113880000D02*
X88113294Y-114443294D01*
X88113294Y-114443294D02*
X92008026Y-114443294D01*
X92008026Y-114443294D02*
X94710660Y-111740660D01*
X95671108Y-110194565D02*
X95671108Y-110458847D01*
X95671108Y-110458847D02*
X92312610Y-113817345D01*
X92911779Y-117863294D02*
X92911779Y-114416514D01*
X92911779Y-114416514D02*
X92312610Y-113817345D01*
X92149508Y-113817345D02*
X92312610Y-113817345D01*
X94150828Y-145694565D02*
X93921108Y-145694565D01*
X93921108Y-145694565D02*
X90583057Y-142356514D01*
X90583057Y-142356514D02*
X86833559Y-142356514D01*
D42*
X86833559Y-142356514D02*
X86833559Y-138838294D01*
X86833559Y-138838294D02*
X87488559Y-138183294D01*
D41*
X61705339Y-135643294D02*
X61705339Y-136324661D01*
X60600000Y-137430000D02*
X60600000Y-141558680D01*
X61705339Y-136324661D02*
X60600000Y-137430000D01*
X60600000Y-141558680D02*
X59564340Y-142594340D01*
X66513559Y-138203294D02*
X66179837Y-138203294D01*
X66179837Y-138203294D02*
X65910968Y-137934425D01*
X65910968Y-137934425D02*
X64410968Y-137934425D01*
X64410968Y-137934425D02*
X61705339Y-140640054D01*
X58650828Y-144174285D02*
X58650828Y-143694565D01*
X58650828Y-143694565D02*
X61705339Y-140640054D01*
D43*
X85824300Y-89805000D02*
X85900000Y-89880700D01*
X84275000Y-89805000D02*
X85824300Y-89805000D01*
X77650000Y-126180000D02*
X78100000Y-126180000D01*
X79708559Y-128643294D02*
X79708559Y-127388559D01*
X79708559Y-127388559D02*
X78650000Y-126330000D01*
X78650000Y-126330000D02*
X78250000Y-126330000D01*
X78250000Y-126330000D02*
X78100000Y-126180000D01*
X79848559Y-128503294D02*
X79708559Y-128643294D01*
X85563559Y-132595294D02*
X87468559Y-132595294D01*
X81118559Y-136278294D02*
X81118559Y-135643294D01*
X81118559Y-135643294D02*
X82388559Y-134373294D01*
X82388559Y-134373294D02*
X83785559Y-134373294D01*
X83785559Y-134373294D02*
X85563559Y-132595294D01*
X78108559Y-128643294D02*
X78108559Y-127488559D01*
X75650000Y-127230000D02*
X75400000Y-126980000D01*
X77850000Y-127230000D02*
X75650000Y-127230000D01*
X78108559Y-127488559D02*
X77850000Y-127230000D01*
X69053559Y-139326294D02*
X69053559Y-135008294D01*
X69053559Y-135008294D02*
X69688559Y-134373294D01*
X69688559Y-134373294D02*
X71593559Y-134373294D01*
X71593559Y-134373294D02*
X73498559Y-132468294D01*
X78908559Y-128643294D02*
X78908559Y-127338559D01*
X77300000Y-126830000D02*
X76650000Y-126180000D01*
X78400000Y-126830000D02*
X77300000Y-126830000D01*
X78908559Y-127338559D02*
X78400000Y-126830000D01*
X70958559Y-139326294D02*
X71085559Y-139326294D01*
X71085559Y-139326294D02*
X72228559Y-138183294D01*
X74133559Y-134373294D02*
X76038559Y-132468294D01*
X72228559Y-138183294D02*
X72228559Y-135008294D01*
X72228559Y-135008294D02*
X72863559Y-134373294D01*
X72863559Y-134373294D02*
X74133559Y-134373294D01*
X66000000Y-61730000D02*
X66500000Y-62230000D01*
X66000000Y-61730000D02*
X66000000Y-60992000D01*
X85600000Y-61730000D02*
X86100000Y-62230000D01*
X85600000Y-61730000D02*
X85600000Y-60992000D01*
X105200000Y-61730000D02*
X105200000Y-60992000D01*
X105200000Y-61730000D02*
X105700000Y-62230000D01*
X124800000Y-61730000D02*
X124800000Y-60992000D01*
X124800000Y-61730000D02*
X125300000Y-62230000D01*
X89500559Y-117863294D02*
X89962799Y-117863294D01*
X89962799Y-117863294D02*
X90912799Y-116913294D01*
X89500559Y-119768294D02*
X89500559Y-117863294D01*
X86198559Y-136405294D02*
X86325559Y-136405294D01*
X86325559Y-136405294D02*
X87087559Y-137167294D01*
X87783559Y-139392294D02*
X87783559Y-140357534D01*
X88484559Y-138691294D02*
X87783559Y-139392294D01*
X88484559Y-137548294D02*
X88484559Y-138691294D01*
X88103559Y-137167294D02*
X88484559Y-137548294D01*
X87087559Y-137167294D02*
X88103559Y-137167294D01*
X84293559Y-138691294D02*
X84420559Y-138691294D01*
X84420559Y-138691294D02*
X85563559Y-137548294D01*
X85563559Y-137548294D02*
X85563559Y-137040294D01*
X85563559Y-137040294D02*
X86198559Y-136405294D01*
X87783559Y-140357534D02*
X87783559Y-140403294D01*
X65243559Y-136405294D02*
X67148559Y-136405294D01*
X65243559Y-136405294D02*
X63892319Y-136405294D01*
X63892319Y-136405294D02*
X63704319Y-136593294D01*
X71608559Y-118943294D02*
X70768559Y-118943294D01*
X67783559Y-117863294D02*
X67783559Y-117355294D01*
X68418559Y-118498294D02*
X67783559Y-117863294D01*
X70323559Y-118498294D02*
X68418559Y-118498294D01*
X70768559Y-118943294D02*
X70323559Y-118498294D01*
X81372559Y-120149294D02*
X81372559Y-120657294D01*
X83008559Y-119743294D02*
X81778559Y-119743294D01*
X86833559Y-118498294D02*
X87976559Y-119641294D01*
X86198559Y-118498294D02*
X86833559Y-118498294D01*
X81778559Y-119743294D02*
X81372559Y-120149294D01*
X87976559Y-119641294D02*
X87976559Y-119768294D01*
X81308559Y-128643294D02*
X81663294Y-128643294D01*
X86198559Y-134531441D02*
X86198559Y-134881294D01*
X86550000Y-134180000D02*
X86198559Y-134531441D01*
X86550000Y-130330000D02*
X86550000Y-131780000D01*
X85900000Y-129680000D02*
X86550000Y-130330000D01*
X83050000Y-129680000D02*
X85900000Y-129680000D01*
X82800000Y-129430000D02*
X83050000Y-129680000D01*
X82450000Y-129430000D02*
X82800000Y-129430000D01*
X81663294Y-128643294D02*
X82450000Y-129430000D01*
X67148559Y-134881294D02*
X67148559Y-131181441D01*
X68400000Y-129430000D02*
X68900000Y-128930000D01*
X68400000Y-130580000D02*
X68400000Y-129430000D01*
X68050000Y-130930000D02*
X68400000Y-130580000D01*
X67400000Y-130930000D02*
X68050000Y-130930000D01*
X67148559Y-131181441D02*
X67400000Y-130930000D01*
X73308559Y-128643294D02*
X71986706Y-128643294D01*
X71986706Y-128643294D02*
X71700000Y-128930000D01*
X71700000Y-128930000D02*
X68900000Y-128930000D01*
X144400000Y-61730000D02*
X144400000Y-60992000D01*
X144400000Y-61730000D02*
X144900000Y-62230000D01*
X67600000Y-129030000D02*
X66800000Y-129030000D01*
X70000000Y-127530000D02*
X69100000Y-127530000D01*
X69100000Y-127530000D02*
X67600000Y-129030000D01*
X70588000Y-128118000D02*
X70000000Y-127530000D01*
X66800000Y-129030000D02*
X64631706Y-131198294D01*
X63973559Y-131198294D02*
X64631706Y-131198294D01*
X70750000Y-128118000D02*
X70588000Y-128118000D01*
X74108559Y-128643294D02*
X74108559Y-127738559D01*
X74108559Y-127738559D02*
X73750000Y-127380000D01*
X73750000Y-127380000D02*
X72800000Y-127380000D01*
X72800000Y-127380000D02*
X72062000Y-128118000D01*
X72062000Y-128118000D02*
X70750000Y-128118000D01*
X74108559Y-128643294D02*
X74108559Y-127998294D01*
X74108559Y-129318294D02*
X74108559Y-128643294D01*
X80500000Y-123830000D02*
X73700000Y-123830000D01*
X80700000Y-123630000D02*
X80500000Y-123830000D01*
X81986706Y-118943294D02*
X80700000Y-120230000D01*
X83008559Y-118943294D02*
X81986706Y-118943294D01*
X80700000Y-120230000D02*
X80700000Y-123630000D01*
X65200000Y-126430000D02*
X66500000Y-125130000D01*
X69200000Y-125130000D02*
X69300000Y-125230000D01*
X66500000Y-125130000D02*
X69200000Y-125130000D01*
X62703559Y-131198294D02*
X63338559Y-130563294D01*
X63338559Y-130563294D02*
X64466706Y-130563294D01*
X65200000Y-129830000D02*
X65200000Y-126430000D01*
X64466706Y-130563294D02*
X65200000Y-129830000D01*
X83008559Y-118943294D02*
X83213559Y-118943294D01*
D44*
X102535124Y-122220920D02*
X106899336Y-122220920D01*
X108341184Y-123662768D02*
X108341184Y-124900768D01*
X106899336Y-122220920D02*
X108341184Y-123662768D01*
X102535124Y-123021020D02*
X105199436Y-123021020D01*
X105199436Y-123021020D02*
X106841184Y-124662768D01*
X106841184Y-124662768D02*
X106841184Y-124900768D01*
X106841184Y-126424768D02*
X106841184Y-127162768D01*
X108381184Y-128702768D02*
X112341184Y-128702768D01*
X106841184Y-127162768D02*
X108381184Y-128702768D01*
X108341184Y-126424768D02*
X112079184Y-126424768D01*
X112079184Y-126424768D02*
X112341184Y-126162768D01*
D43*
X63338559Y-129293294D02*
X64436706Y-129293294D01*
X68400000Y-121530000D02*
X69700000Y-121530000D01*
X67400000Y-122530000D02*
X68400000Y-121530000D01*
X67400000Y-123630000D02*
X67400000Y-122530000D01*
X64800000Y-126230000D02*
X67400000Y-123630000D01*
X64800000Y-128930000D02*
X64800000Y-126230000D01*
X64436706Y-129293294D02*
X64800000Y-128930000D01*
X71608559Y-121343294D02*
X69886706Y-121343294D01*
X69886706Y-121343294D02*
X69700000Y-121530000D01*
X63338559Y-126753294D02*
X63676706Y-126753294D01*
X63676706Y-126753294D02*
X67000000Y-123430000D01*
X68200000Y-121130000D02*
X69500000Y-121130000D01*
X67000000Y-122330000D02*
X68200000Y-121130000D01*
X67000000Y-123430000D02*
X67000000Y-122330000D01*
X71608559Y-120543294D02*
X70086706Y-120543294D01*
X70086706Y-120543294D02*
X69500000Y-121130000D01*
X80418559Y-130983294D02*
X80063559Y-130983294D01*
X80063559Y-130983294D02*
X79213559Y-131833294D01*
X77308559Y-131198294D02*
X77308559Y-128643294D01*
X77943559Y-131833294D02*
X77308559Y-131198294D01*
X79213559Y-131833294D02*
X77943559Y-131833294D01*
X78578559Y-131062468D02*
X80339385Y-131062468D01*
X80339385Y-131062468D02*
X80418559Y-130983294D01*
X81818559Y-132683294D02*
X81818559Y-133038294D01*
X81818559Y-133038294D02*
X81118559Y-133738294D01*
X76508559Y-131033294D02*
X76508559Y-128643294D01*
X77308559Y-131833294D02*
X76508559Y-131033294D01*
X77308559Y-133103294D02*
X77308559Y-131833294D01*
X77943559Y-133738294D02*
X77308559Y-133103294D01*
X81118559Y-133738294D02*
X77943559Y-133738294D01*
X83658559Y-132595294D02*
X81906559Y-132595294D01*
X81906559Y-132595294D02*
X81818559Y-132683294D01*
X84801559Y-123578294D02*
X84801559Y-121673294D01*
X83008559Y-122943294D02*
X84166559Y-122943294D01*
X84166559Y-122943294D02*
X84801559Y-123578294D01*
D44*
X103799636Y-124621220D02*
X102535124Y-124621220D01*
X103841184Y-124662768D02*
X103799636Y-124621220D01*
X105341184Y-124662768D02*
X103841184Y-124662768D01*
D43*
X71608559Y-122943294D02*
X69848706Y-122943294D01*
X69848706Y-122943294D02*
X69662000Y-123130000D01*
D44*
X102535124Y-121420820D02*
X111599236Y-121420820D01*
X112341184Y-122162768D02*
X112341184Y-123622768D01*
X111599236Y-121420820D02*
X112341184Y-122162768D01*
D43*
X59900000Y-89868000D02*
X61612000Y-89868000D01*
X61612000Y-89868000D02*
X61675000Y-89805000D01*
X105424300Y-89805000D02*
X105500000Y-89880700D01*
X103875000Y-89805000D02*
X105424300Y-89805000D01*
X99938000Y-91392000D02*
X100100000Y-91230000D01*
X100100000Y-91230000D02*
X104500000Y-91230000D01*
X104500000Y-91230000D02*
X104649300Y-91379300D01*
X104649300Y-91379300D02*
X105500000Y-91379300D01*
X99100000Y-91392000D02*
X99938000Y-91392000D01*
X123475000Y-89805000D02*
X125024300Y-89805000D01*
X125024300Y-89805000D02*
X125100000Y-89880700D01*
X118700000Y-91392000D02*
X119538000Y-91392000D01*
X124249300Y-91379300D02*
X125100000Y-91379300D01*
X124100000Y-91230000D02*
X124249300Y-91379300D01*
X119700000Y-91230000D02*
X124100000Y-91230000D01*
X119538000Y-91392000D02*
X119700000Y-91230000D01*
X144624300Y-89705000D02*
X144700000Y-89780700D01*
X143075000Y-89705000D02*
X144624300Y-89705000D01*
X139138000Y-91292000D02*
X139300000Y-91130000D01*
X139300000Y-91130000D02*
X143700000Y-91130000D01*
X143700000Y-91130000D02*
X143849300Y-91279300D01*
X143849300Y-91279300D02*
X144700000Y-91279300D01*
X138300000Y-91292000D02*
X139138000Y-91292000D01*
X86100000Y-115868000D02*
X86100000Y-115630000D01*
X86100000Y-115630000D02*
X84700000Y-114230000D01*
X84700000Y-114230000D02*
X85232265Y-114230000D01*
D42*
X89700000Y-127830000D02*
X89700000Y-127680000D01*
X89700000Y-127680000D02*
X88750000Y-126730000D01*
X88750000Y-126730000D02*
X87000000Y-126730000D01*
X87000000Y-126730000D02*
X86750000Y-126480000D01*
X86750000Y-126480000D02*
X86750000Y-124730000D01*
X86750000Y-124730000D02*
X87520706Y-123959294D01*
X87520706Y-123959294D02*
X87976559Y-123959294D01*
D44*
X87788559Y-124147294D02*
X87976559Y-123959294D01*
D43*
X74908559Y-117243294D02*
X74908559Y-116098294D01*
X71720559Y-115958294D02*
X71085559Y-115323294D01*
X74768559Y-115958294D02*
X71720559Y-115958294D01*
X74908559Y-116098294D02*
X74768559Y-115958294D01*
X64675000Y-89805000D02*
X66224300Y-89805000D01*
X66224300Y-89805000D02*
X66300000Y-89880700D01*
X59900000Y-91392000D02*
X60738000Y-91392000D01*
X65449300Y-91379300D02*
X66300000Y-91379300D01*
X65300000Y-91230000D02*
X65449300Y-91379300D01*
X60900000Y-91230000D02*
X65300000Y-91230000D01*
X60738000Y-91392000D02*
X60900000Y-91230000D01*
X80338000Y-91392000D02*
X80500000Y-91230000D01*
X80500000Y-91230000D02*
X84900000Y-91230000D01*
X84900000Y-91230000D02*
X85049300Y-91379300D01*
X85049300Y-91379300D02*
X85900000Y-91379300D01*
X79500000Y-91392000D02*
X80338000Y-91392000D01*
D44*
X106841184Y-135662768D02*
X105341184Y-135662768D01*
X111341184Y-131162768D02*
X106841184Y-135662768D01*
X101841184Y-133662768D02*
X99841184Y-135662768D01*
X106841184Y-133662768D02*
X101841184Y-133662768D01*
X110341184Y-130162768D02*
X106841184Y-133662768D01*
D43*
X67783559Y-115831294D02*
X67783559Y-115323294D01*
X68738559Y-114368294D02*
X68738559Y-113784054D01*
X67783559Y-115323294D02*
X68738559Y-114368294D01*
X67148559Y-112656294D02*
X67610799Y-112656294D01*
X67610799Y-112656294D02*
X68738559Y-113784054D01*
X86325559Y-119768294D02*
X86325559Y-120276294D01*
X86325559Y-123070294D02*
X86325559Y-123578294D01*
X85563559Y-122308294D02*
X86325559Y-123070294D01*
X85563559Y-121038294D02*
X85563559Y-122308294D01*
X86325559Y-120276294D02*
X85563559Y-121038294D01*
X87600000Y-116630000D02*
X87938000Y-116292000D01*
X87938000Y-116292000D02*
X87938000Y-116230000D01*
X78108559Y-118921441D02*
X78000000Y-119030000D01*
X78108559Y-117243294D02*
X78108559Y-118921441D01*
X82750000Y-129928294D02*
X82750000Y-129930000D01*
X85091294Y-131071294D02*
X85563559Y-131071294D01*
X84350000Y-130330000D02*
X85091294Y-131071294D01*
X83150000Y-130330000D02*
X84350000Y-130330000D01*
X82750000Y-129930000D02*
X83150000Y-130330000D01*
X80508559Y-128643294D02*
X80508559Y-129318294D01*
X80508559Y-129318294D02*
X81118559Y-129928294D01*
X81118559Y-129928294D02*
X82750000Y-129928294D01*
X85563559Y-131071294D02*
X85436559Y-131071294D01*
X100812000Y-89868000D02*
X100875000Y-89805000D01*
X99100000Y-89868000D02*
X100812000Y-89868000D01*
X118700000Y-89868000D02*
X120412000Y-89868000D01*
X120412000Y-89868000D02*
X120475000Y-89805000D01*
X140012000Y-89768000D02*
X140075000Y-89705000D01*
X138300000Y-89768000D02*
X140012000Y-89768000D01*
X84700000Y-112230000D02*
X84700000Y-112830000D01*
X84700000Y-112830000D02*
X85100000Y-113230000D01*
X85100000Y-113230000D02*
X85600000Y-113230000D01*
X85600000Y-113230000D02*
X86200000Y-113830000D01*
X86200000Y-113830000D02*
X86200000Y-114330000D01*
X86200000Y-114330000D02*
X87100000Y-115230000D01*
X87100000Y-115230000D02*
X89100000Y-115230000D01*
X89100000Y-115230000D02*
X89462000Y-115592000D01*
X89462000Y-115592000D02*
X89462000Y-116230000D01*
X84400000Y-115868000D02*
X84138000Y-115868000D01*
X84138000Y-115868000D02*
X83000000Y-114730000D01*
X83000000Y-114730000D02*
X83000000Y-113530000D01*
X83000000Y-113530000D02*
X81700000Y-112230000D01*
X81212000Y-89868000D02*
X81275000Y-89805000D01*
X79500000Y-89868000D02*
X81212000Y-89868000D01*
X73077275Y-151484192D02*
X73077275Y-149584192D01*
X87777275Y-149584192D02*
X87777275Y-153784192D01*
X69777275Y-153784192D02*
X69777275Y-148984192D01*
X78157275Y-148904192D02*
X78157275Y-151484192D01*
X78177275Y-148884192D02*
X78157275Y-148904192D01*
X71777275Y-153784192D02*
X71777275Y-153184192D01*
X71777275Y-153184192D02*
X71477275Y-152884192D01*
X71477275Y-152884192D02*
X71477275Y-148184192D01*
X80677275Y-148184192D02*
X80697275Y-148204192D01*
X80697275Y-148204192D02*
X80697275Y-151484192D01*
X139731448Y-147646544D02*
X139731448Y-148896544D01*
X139731448Y-148896544D02*
X140731448Y-149896544D01*
X140731448Y-149896544D02*
X140731448Y-151646544D01*
X140731448Y-151646544D02*
X139731448Y-152646544D01*
X139731448Y-152646544D02*
X126981448Y-152646544D01*
X126981448Y-152646544D02*
X126481448Y-152146544D01*
X126481448Y-152146544D02*
X126481448Y-150896544D01*
X138231448Y-147646544D02*
X138231448Y-148646544D01*
X138231448Y-148646544D02*
X137481448Y-149396544D01*
X137481448Y-149396544D02*
X133061448Y-149396544D01*
X133061448Y-149396544D02*
X131561448Y-150896544D01*
X121731448Y-148146544D02*
X121731448Y-147646544D01*
X123231448Y-146896544D02*
X123231448Y-147646544D01*
X78908559Y-117243294D02*
X78908559Y-118838559D01*
X84400000Y-117330000D02*
X84400000Y-117392000D01*
X78908559Y-118838559D02*
X79100000Y-119030000D01*
X79708559Y-117243294D02*
X79708559Y-118438559D01*
X79708559Y-118438559D02*
X80300000Y-119030000D01*
X86200000Y-117430000D02*
X86162000Y-117392000D01*
X86162000Y-117392000D02*
X86100000Y-117392000D01*
X63000000Y-120730000D02*
X65700000Y-120730000D01*
X67813294Y-124543294D02*
X71608559Y-124543294D01*
X67700000Y-124430000D02*
X67813294Y-124543294D01*
X65700000Y-120730000D02*
X66500000Y-119930000D01*
X67800000Y-126030000D02*
X70000000Y-126030000D01*
X66600000Y-133980000D02*
X66600000Y-132630000D01*
X66200000Y-134380000D02*
X66600000Y-133980000D01*
X66200000Y-135430000D02*
X66200000Y-134380000D01*
X66450000Y-135680000D02*
X66200000Y-135430000D01*
X67750000Y-135680000D02*
X66450000Y-135680000D01*
X68000000Y-135930000D02*
X67750000Y-135680000D01*
X68000000Y-138030000D02*
X68000000Y-135930000D01*
X67350000Y-138680000D02*
X68000000Y-138030000D01*
X67350000Y-140180000D02*
X67350000Y-138680000D01*
X67650000Y-140480000D02*
X67350000Y-140180000D01*
X67650000Y-141880000D02*
X67650000Y-140480000D01*
X67000000Y-142530000D02*
X67650000Y-141880000D01*
X66600000Y-132630000D02*
X66300000Y-132330000D01*
X70686706Y-125343294D02*
X71608559Y-125343294D01*
X70000000Y-126030000D02*
X70686706Y-125343294D01*
X67000000Y-142930000D02*
X67000000Y-142530000D01*
X63500000Y-61730000D02*
X63500000Y-62730000D01*
X63500000Y-62730000D02*
X64000000Y-63230000D01*
X64000000Y-63230000D02*
X71000000Y-63230000D01*
X71000000Y-63230000D02*
X70750000Y-61480000D01*
X61000000Y-61730000D02*
X63500000Y-61730000D01*
D45*
X56000000Y-82230000D02*
X64250000Y-82230000D01*
X64250000Y-82230000D02*
X70750000Y-75730000D01*
X70750000Y-75730000D02*
X70750000Y-61480000D01*
X70750000Y-61480000D02*
X70750000Y-78730000D01*
D43*
X63500000Y-59190000D02*
X65722000Y-59190000D01*
X65722000Y-59190000D02*
X66000000Y-59468000D01*
X90600000Y-63230000D02*
X90350000Y-61480000D01*
X83100000Y-62730000D02*
X83600000Y-63230000D01*
X83100000Y-61730000D02*
X83100000Y-62730000D01*
X80600000Y-61730000D02*
X83100000Y-61730000D01*
X83600000Y-63230000D02*
X90600000Y-63230000D01*
D45*
X90400000Y-61480000D02*
X90400000Y-78730000D01*
X90400000Y-75730000D02*
X90400000Y-61480000D01*
X83900000Y-82230000D02*
X90400000Y-75730000D01*
X75650000Y-82230000D02*
X83900000Y-82230000D01*
D43*
X85322000Y-59190000D02*
X85600000Y-59468000D01*
X83100000Y-59190000D02*
X85322000Y-59190000D01*
X110200000Y-63230000D02*
X109950000Y-61480000D01*
X102700000Y-62730000D02*
X103200000Y-63230000D01*
X102700000Y-61730000D02*
X102700000Y-62730000D01*
X100200000Y-61730000D02*
X102700000Y-61730000D01*
X103200000Y-63230000D02*
X110200000Y-63230000D01*
D45*
X109950000Y-61580000D02*
X109950000Y-78830000D01*
X109950000Y-75830000D02*
X109950000Y-61580000D01*
X103450000Y-82330000D02*
X109950000Y-75830000D01*
X95200000Y-82330000D02*
X103450000Y-82330000D01*
D43*
X104922000Y-59190000D02*
X105200000Y-59468000D01*
X102700000Y-59190000D02*
X104922000Y-59190000D01*
X129800000Y-63230000D02*
X129550000Y-61480000D01*
X122300000Y-62730000D02*
X122800000Y-63230000D01*
X122300000Y-61730000D02*
X122300000Y-62730000D01*
X119800000Y-61730000D02*
X122300000Y-61730000D01*
X122800000Y-63230000D02*
X129800000Y-63230000D01*
D45*
X114850000Y-82330000D02*
X123100000Y-82330000D01*
X123100000Y-82330000D02*
X129600000Y-75830000D01*
X129600000Y-75830000D02*
X129600000Y-61580000D01*
X129600000Y-61580000D02*
X129600000Y-78830000D01*
D43*
X124522000Y-59190000D02*
X124800000Y-59468000D01*
X122300000Y-59190000D02*
X124522000Y-59190000D01*
X149400000Y-63230000D02*
X149150000Y-61480000D01*
X141900000Y-62730000D02*
X142400000Y-63230000D01*
X141900000Y-61730000D02*
X141900000Y-62730000D01*
X139400000Y-61730000D02*
X141900000Y-61730000D01*
X142400000Y-63230000D02*
X149400000Y-63230000D01*
D45*
X149200000Y-61580000D02*
X149200000Y-78830000D01*
X149200000Y-75830000D02*
X149200000Y-61580000D01*
X142700000Y-82330000D02*
X149200000Y-75830000D01*
X134450000Y-82330000D02*
X142700000Y-82330000D01*
D43*
X144122000Y-59190000D02*
X144400000Y-59468000D01*
X141900000Y-59190000D02*
X144122000Y-59190000D01*
D46*
G36*
X100551384Y-118285190D02*
X100710134Y-118443940D01*
X102309064Y-118443940D01*
X102309064Y-118423940D01*
X102563064Y-118423940D01*
X102563064Y-118443940D01*
X104161994Y-118443940D01*
X104320744Y-118285190D01*
X104320744Y-118071772D01*
X111654026Y-118071772D01*
X111793539Y-118099523D01*
X111883029Y-118159318D01*
X111942227Y-118246868D01*
X112904136Y-122382890D01*
X112798384Y-122382890D01*
X112798384Y-122162768D01*
X112763582Y-121987805D01*
X112664473Y-121839479D01*
X111922525Y-121097531D01*
X111774199Y-120998422D01*
X111599236Y-120963620D01*
X103914326Y-120963620D01*
X103906867Y-120952265D01*
X103805571Y-120883889D01*
X103685744Y-120859859D01*
X101384504Y-120859859D01*
X101268285Y-120882408D01*
X101166139Y-120949507D01*
X101097763Y-121050803D01*
X101073733Y-121170630D01*
X101073733Y-121671010D01*
X101096282Y-121787229D01*
X101118210Y-121820611D01*
X101097763Y-121850903D01*
X101073733Y-121970730D01*
X101073733Y-122471110D01*
X101096282Y-122587329D01*
X101118210Y-122620711D01*
X101097763Y-122651003D01*
X101073733Y-122770830D01*
X101073733Y-123271210D01*
X101096282Y-123387429D01*
X101118210Y-123420811D01*
X101097763Y-123451103D01*
X101073733Y-123570930D01*
X101073733Y-123812437D01*
X101024806Y-123832703D01*
X100846177Y-124011331D01*
X100749504Y-124244720D01*
X100749504Y-124337375D01*
X100908254Y-124496125D01*
X102408124Y-124496125D01*
X102408124Y-124474220D01*
X102662124Y-124474220D01*
X102662124Y-124496125D01*
X104161994Y-124496125D01*
X104320744Y-124337375D01*
X104320744Y-124244720D01*
X104224071Y-124011331D01*
X104045442Y-123832703D01*
X103996515Y-123812437D01*
X103996515Y-123570930D01*
X103978527Y-123478220D01*
X105010058Y-123478220D01*
X106090789Y-124558951D01*
X106085913Y-124583268D01*
X106085913Y-125218268D01*
X106108462Y-125334487D01*
X106175561Y-125436633D01*
X106276857Y-125505009D01*
X106396684Y-125529039D01*
X107285684Y-125529039D01*
X107401903Y-125506490D01*
X107504049Y-125439391D01*
X107572425Y-125338095D01*
X107591097Y-125244986D01*
X107608462Y-125334487D01*
X107675561Y-125436633D01*
X107776857Y-125505009D01*
X107896684Y-125529039D01*
X108785684Y-125529039D01*
X108901903Y-125506490D01*
X109004049Y-125439391D01*
X109072425Y-125338095D01*
X109096455Y-125218268D01*
X109096455Y-124583268D01*
X109073906Y-124467049D01*
X109006807Y-124364903D01*
X108905511Y-124296527D01*
X108798384Y-124275044D01*
X108798384Y-123662768D01*
X108763582Y-123487805D01*
X108664473Y-123339479D01*
X107222625Y-121897631D01*
X107193275Y-121878020D01*
X111409858Y-121878020D01*
X111883984Y-122352146D01*
X111883984Y-122382890D01*
X111451410Y-122382890D01*
X111335191Y-122405439D01*
X111233045Y-122472538D01*
X111164669Y-122573834D01*
X111140639Y-122693661D01*
X111140639Y-124471661D01*
X111163188Y-124587880D01*
X111230287Y-124690026D01*
X111331583Y-124758402D01*
X111451410Y-124782432D01*
X113229410Y-124782432D01*
X113345629Y-124759883D01*
X113442197Y-124696448D01*
X113485566Y-124882929D01*
X113507471Y-125101973D01*
X113450533Y-125015296D01*
X113349237Y-124946920D01*
X113229410Y-124922890D01*
X111451410Y-124922890D01*
X111335191Y-124945439D01*
X111233045Y-125012538D01*
X111164669Y-125113834D01*
X111140639Y-125233661D01*
X111140639Y-125967568D01*
X109058481Y-125967568D01*
X109006807Y-125888903D01*
X108905511Y-125820527D01*
X108785684Y-125796497D01*
X107896684Y-125796497D01*
X107780465Y-125819046D01*
X107678319Y-125886145D01*
X107609943Y-125987441D01*
X107591271Y-126080550D01*
X107573906Y-125991049D01*
X107506807Y-125888903D01*
X107405511Y-125820527D01*
X107285684Y-125796497D01*
X106396684Y-125796497D01*
X106280465Y-125819046D01*
X106178319Y-125886145D01*
X106109943Y-125987441D01*
X106085913Y-126107268D01*
X106085913Y-126742268D01*
X106108462Y-126858487D01*
X106175561Y-126960633D01*
X106276857Y-127029009D01*
X106383984Y-127050492D01*
X106383984Y-127096730D01*
X106217494Y-127027768D01*
X105626934Y-127027768D01*
X105468184Y-127186518D01*
X105468184Y-128535768D01*
X106567434Y-128535768D01*
X106726184Y-128377018D01*
X106726184Y-127694346D01*
X108057895Y-129026057D01*
X108206221Y-129125166D01*
X108381184Y-129159968D01*
X111140639Y-129159968D01*
X111140639Y-129551661D01*
X111163188Y-129667880D01*
X111230287Y-129770026D01*
X111331583Y-129838402D01*
X111451410Y-129862432D01*
X113229410Y-129862432D01*
X113345629Y-129839883D01*
X113431504Y-129783472D01*
X111946738Y-136167680D01*
X111924166Y-136212825D01*
X111880052Y-136277300D01*
X111789910Y-136336108D01*
X111655009Y-136362172D01*
X106401955Y-136362172D01*
X106401955Y-136119968D01*
X106841184Y-136119968D01*
X107016147Y-136085166D01*
X107164473Y-135986057D01*
X111340063Y-131810467D01*
X111469454Y-131810580D01*
X111707597Y-131712181D01*
X111889957Y-131530140D01*
X111988771Y-131292169D01*
X111988996Y-131034498D01*
X111890597Y-130796355D01*
X111708556Y-130613995D01*
X111470585Y-130515181D01*
X111212914Y-130514956D01*
X110974771Y-130613355D01*
X110792411Y-130795396D01*
X110693597Y-131033367D01*
X110693483Y-131163891D01*
X106651806Y-135205568D01*
X106401955Y-135205568D01*
X106401955Y-134662768D01*
X106379406Y-134546549D01*
X106312307Y-134444403D01*
X106211011Y-134376027D01*
X106091184Y-134351997D01*
X104591184Y-134351997D01*
X104474965Y-134374546D01*
X104372819Y-134441645D01*
X104304443Y-134542941D01*
X104280413Y-134662768D01*
X104280413Y-136362172D01*
X100901955Y-136362172D01*
X100901955Y-135248575D01*
X102030562Y-134119968D01*
X106841184Y-134119968D01*
X107016147Y-134085166D01*
X107164473Y-133986057D01*
X110340064Y-130810467D01*
X110469454Y-130810580D01*
X110707597Y-130712181D01*
X110889957Y-130530140D01*
X110988771Y-130292169D01*
X110988996Y-130034498D01*
X110890597Y-129796355D01*
X110708556Y-129613995D01*
X110470585Y-129515181D01*
X110212914Y-129514956D01*
X109974771Y-129613355D01*
X109792411Y-129795396D01*
X109693597Y-130033367D01*
X109693483Y-130163890D01*
X106651806Y-133205568D01*
X101841184Y-133205568D01*
X101666221Y-133240370D01*
X101517895Y-133339479D01*
X100505377Y-134351997D01*
X99091184Y-134351997D01*
X98974965Y-134374546D01*
X98872819Y-134441645D01*
X98804443Y-134542941D01*
X98780413Y-134662768D01*
X98780413Y-136362172D01*
X95774030Y-136362172D01*
X95634514Y-136334421D01*
X95545868Y-136275189D01*
X95486635Y-136186540D01*
X95468184Y-136093781D01*
X95468184Y-129067155D01*
X95560975Y-129105590D01*
X96651214Y-129105590D01*
X96809964Y-128946840D01*
X96809964Y-127598100D01*
X96789964Y-127598100D01*
X96789964Y-127344100D01*
X96809964Y-127344100D01*
X96809964Y-125995360D01*
X97063964Y-125995360D01*
X97063964Y-127344100D01*
X97083964Y-127344100D01*
X97083964Y-127598100D01*
X97063964Y-127598100D01*
X97063964Y-128946840D01*
X97222714Y-129105590D01*
X98312953Y-129105590D01*
X98456184Y-129046262D01*
X98456184Y-129789077D01*
X98552857Y-130022466D01*
X98731485Y-130201095D01*
X98964874Y-130297768D01*
X99555434Y-130297768D01*
X99714184Y-130139018D01*
X99714184Y-128789768D01*
X99694184Y-128789768D01*
X99694184Y-128535768D01*
X99714184Y-128535768D01*
X99714184Y-127186518D01*
X99968184Y-127186518D01*
X99968184Y-128535768D01*
X99988184Y-128535768D01*
X99988184Y-128789768D01*
X99968184Y-128789768D01*
X99968184Y-130139018D01*
X100126934Y-130297768D01*
X100717494Y-130297768D01*
X100950883Y-130201095D01*
X101129511Y-130022466D01*
X101226184Y-129789077D01*
X101226184Y-129105590D01*
X102150314Y-129105590D01*
X102309064Y-128946840D01*
X102309064Y-127598100D01*
X102289064Y-127598100D01*
X102289064Y-127344100D01*
X102309064Y-127344100D01*
X102309064Y-125995360D01*
X102563064Y-125995360D01*
X102563064Y-127344100D01*
X102583064Y-127344100D01*
X102583064Y-127598100D01*
X102563064Y-127598100D01*
X102563064Y-128946840D01*
X102721814Y-129105590D01*
X103812053Y-129105590D01*
X103956184Y-129045889D01*
X103956184Y-129789077D01*
X104052857Y-130022466D01*
X104231485Y-130201095D01*
X104464874Y-130297768D01*
X105055434Y-130297768D01*
X105214184Y-130139018D01*
X105214184Y-128789768D01*
X105468184Y-128789768D01*
X105468184Y-130139018D01*
X105626934Y-130297768D01*
X106217494Y-130297768D01*
X106450883Y-130201095D01*
X106629511Y-130022466D01*
X106726184Y-129789077D01*
X106726184Y-128948518D01*
X106567434Y-128789768D01*
X105468184Y-128789768D01*
X105214184Y-128789768D01*
X105214184Y-128789768D01*
X105194184Y-128789768D01*
X105194184Y-128535768D01*
X105214184Y-128535768D01*
X105214184Y-127186518D01*
X105055434Y-127027768D01*
X104464874Y-127027768D01*
X104320744Y-127087469D01*
X104320744Y-126345300D01*
X104224071Y-126111911D01*
X104045442Y-125933283D01*
X103812053Y-125836610D01*
X102721814Y-125836610D01*
X102563064Y-125995360D01*
X102309064Y-125995360D01*
X102309064Y-125995360D01*
X102150314Y-125836610D01*
X101060075Y-125836610D01*
X100826686Y-125933283D01*
X100648057Y-126111911D01*
X100551384Y-126345300D01*
X100551384Y-127027768D01*
X100126934Y-127027768D01*
X99968184Y-127186518D01*
X99714184Y-127186518D01*
X99714184Y-127186518D01*
X99555434Y-127027768D01*
X98964874Y-127027768D01*
X98821644Y-127087096D01*
X98821644Y-126345300D01*
X98724971Y-126111911D01*
X98546342Y-125933283D01*
X98312953Y-125836610D01*
X97222714Y-125836610D01*
X97063964Y-125995360D01*
X96809964Y-125995360D01*
X96809964Y-125995360D01*
X96651214Y-125836610D01*
X95560975Y-125836610D01*
X95468184Y-125875045D01*
X95468184Y-125370057D01*
X99182194Y-125370057D01*
X99296799Y-125647424D01*
X99508824Y-125859819D01*
X99785990Y-125974909D01*
X100086101Y-125975170D01*
X100363468Y-125860565D01*
X100575863Y-125648540D01*
X100690953Y-125371374D01*
X100691214Y-125071263D01*
X100622543Y-124905065D01*
X100749504Y-124905065D01*
X100749504Y-124997720D01*
X100846177Y-125231109D01*
X101024806Y-125409737D01*
X101258195Y-125506410D01*
X102249374Y-125506410D01*
X102408124Y-125347660D01*
X102408124Y-124746315D01*
X102662124Y-124746315D01*
X102662124Y-125347660D01*
X102820874Y-125506410D01*
X103812053Y-125506410D01*
X104045442Y-125409737D01*
X104224071Y-125231109D01*
X104320744Y-124997720D01*
X104320744Y-124905065D01*
X104161994Y-124746315D01*
X102662124Y-124746315D01*
X102408124Y-124746315D01*
X102408124Y-124746315D01*
X100908254Y-124746315D01*
X100749504Y-124905065D01*
X100622543Y-124905065D01*
X100576609Y-124793896D01*
X100364584Y-124581501D01*
X100087418Y-124466411D01*
X99787307Y-124466150D01*
X99509940Y-124580755D01*
X99297545Y-124792780D01*
X99182455Y-125069946D01*
X99182194Y-125370057D01*
X95468184Y-125370057D01*
X95468184Y-120970777D01*
X99182194Y-120970777D01*
X99296799Y-121248144D01*
X99508824Y-121460539D01*
X99785990Y-121575629D01*
X100086101Y-121575890D01*
X100363468Y-121461285D01*
X100575863Y-121249260D01*
X100690953Y-120972094D01*
X100691214Y-120671983D01*
X100576609Y-120394616D01*
X100364584Y-120182221D01*
X100087418Y-120067131D01*
X99787307Y-120066870D01*
X99509940Y-120181475D01*
X99297545Y-120393500D01*
X99182455Y-120670666D01*
X99182194Y-120970777D01*
X95468184Y-120970777D01*
X95468184Y-120166995D01*
X95560975Y-120205430D01*
X96651214Y-120205430D01*
X96809964Y-120046680D01*
X96809964Y-118697940D01*
X97063964Y-118697940D01*
X97063964Y-120046680D01*
X97222714Y-120205430D01*
X98312953Y-120205430D01*
X98546342Y-120108757D01*
X98724971Y-119930129D01*
X98821644Y-119696740D01*
X98821644Y-118856690D01*
X100551384Y-118856690D01*
X100551384Y-119696740D01*
X100648057Y-119930129D01*
X100826686Y-120108757D01*
X101060075Y-120205430D01*
X102150314Y-120205430D01*
X102309064Y-120046680D01*
X102309064Y-118697940D01*
X102563064Y-118697940D01*
X102563064Y-120046680D01*
X102721814Y-120205430D01*
X103812053Y-120205430D01*
X104045442Y-120108757D01*
X104224071Y-119930129D01*
X104320744Y-119696740D01*
X104320744Y-118856690D01*
X104161994Y-118697940D01*
X102563064Y-118697940D01*
X102309064Y-118697940D01*
X102309064Y-118697940D01*
X100710134Y-118697940D01*
X100551384Y-118856690D01*
X98821644Y-118856690D01*
X98821644Y-118856690D01*
X98662894Y-118697940D01*
X97063964Y-118697940D01*
X96809964Y-118697940D01*
X96809964Y-118697940D01*
X96789964Y-118697940D01*
X96789964Y-118443940D01*
X96809964Y-118443940D01*
X96809964Y-118423940D01*
X97063964Y-118423940D01*
X97063964Y-118443940D01*
X98662894Y-118443940D01*
X98821644Y-118285190D01*
X98821644Y-118071772D01*
X100551384Y-118071772D01*
X100551384Y-118285190D01*
X100551384Y-118285190D01*
G37*
X100551384Y-118285190D02*
X100710134Y-118443940D01*
X102309064Y-118443940D01*
X102309064Y-118423940D01*
X102563064Y-118423940D01*
X102563064Y-118443940D01*
X104161994Y-118443940D01*
X104320744Y-118285190D01*
X104320744Y-118071772D01*
X111654026Y-118071772D01*
X111793539Y-118099523D01*
X111883029Y-118159318D01*
X111942227Y-118246868D01*
X112904136Y-122382890D01*
X112798384Y-122382890D01*
X112798384Y-122162768D01*
X112763582Y-121987805D01*
X112664473Y-121839479D01*
X111922525Y-121097531D01*
X111774199Y-120998422D01*
X111599236Y-120963620D01*
X103914326Y-120963620D01*
X103906867Y-120952265D01*
X103805571Y-120883889D01*
X103685744Y-120859859D01*
X101384504Y-120859859D01*
X101268285Y-120882408D01*
X101166139Y-120949507D01*
X101097763Y-121050803D01*
X101073733Y-121170630D01*
X101073733Y-121671010D01*
X101096282Y-121787229D01*
X101118210Y-121820611D01*
X101097763Y-121850903D01*
X101073733Y-121970730D01*
X101073733Y-122471110D01*
X101096282Y-122587329D01*
X101118210Y-122620711D01*
X101097763Y-122651003D01*
X101073733Y-122770830D01*
X101073733Y-123271210D01*
X101096282Y-123387429D01*
X101118210Y-123420811D01*
X101097763Y-123451103D01*
X101073733Y-123570930D01*
X101073733Y-123812437D01*
X101024806Y-123832703D01*
X100846177Y-124011331D01*
X100749504Y-124244720D01*
X100749504Y-124337375D01*
X100908254Y-124496125D01*
X102408124Y-124496125D01*
X102408124Y-124474220D01*
X102662124Y-124474220D01*
X102662124Y-124496125D01*
X104161994Y-124496125D01*
X104320744Y-124337375D01*
X104320744Y-124244720D01*
X104224071Y-124011331D01*
X104045442Y-123832703D01*
X103996515Y-123812437D01*
X103996515Y-123570930D01*
X103978527Y-123478220D01*
X105010058Y-123478220D01*
X106090789Y-124558951D01*
X106085913Y-124583268D01*
X106085913Y-125218268D01*
X106108462Y-125334487D01*
X106175561Y-125436633D01*
X106276857Y-125505009D01*
X106396684Y-125529039D01*
X107285684Y-125529039D01*
X107401903Y-125506490D01*
X107504049Y-125439391D01*
X107572425Y-125338095D01*
X107591097Y-125244986D01*
X107608462Y-125334487D01*
X107675561Y-125436633D01*
X107776857Y-125505009D01*
X107896684Y-125529039D01*
X108785684Y-125529039D01*
X108901903Y-125506490D01*
X109004049Y-125439391D01*
X109072425Y-125338095D01*
X109096455Y-125218268D01*
X109096455Y-124583268D01*
X109073906Y-124467049D01*
X109006807Y-124364903D01*
X108905511Y-124296527D01*
X108798384Y-124275044D01*
X108798384Y-123662768D01*
X108763582Y-123487805D01*
X108664473Y-123339479D01*
X107222625Y-121897631D01*
X107193275Y-121878020D01*
X111409858Y-121878020D01*
X111883984Y-122352146D01*
X111883984Y-122382890D01*
X111451410Y-122382890D01*
X111335191Y-122405439D01*
X111233045Y-122472538D01*
X111164669Y-122573834D01*
X111140639Y-122693661D01*
X111140639Y-124471661D01*
X111163188Y-124587880D01*
X111230287Y-124690026D01*
X111331583Y-124758402D01*
X111451410Y-124782432D01*
X113229410Y-124782432D01*
X113345629Y-124759883D01*
X113442197Y-124696448D01*
X113485566Y-124882929D01*
X113507471Y-125101973D01*
X113450533Y-125015296D01*
X113349237Y-124946920D01*
X113229410Y-124922890D01*
X111451410Y-124922890D01*
X111335191Y-124945439D01*
X111233045Y-125012538D01*
X111164669Y-125113834D01*
X111140639Y-125233661D01*
X111140639Y-125967568D01*
X109058481Y-125967568D01*
X109006807Y-125888903D01*
X108905511Y-125820527D01*
X108785684Y-125796497D01*
X107896684Y-125796497D01*
X107780465Y-125819046D01*
X107678319Y-125886145D01*
X107609943Y-125987441D01*
X107591271Y-126080550D01*
X107573906Y-125991049D01*
X107506807Y-125888903D01*
X107405511Y-125820527D01*
X107285684Y-125796497D01*
X106396684Y-125796497D01*
X106280465Y-125819046D01*
X106178319Y-125886145D01*
X106109943Y-125987441D01*
X106085913Y-126107268D01*
X106085913Y-126742268D01*
X106108462Y-126858487D01*
X106175561Y-126960633D01*
X106276857Y-127029009D01*
X106383984Y-127050492D01*
X106383984Y-127096730D01*
X106217494Y-127027768D01*
X105626934Y-127027768D01*
X105468184Y-127186518D01*
X105468184Y-128535768D01*
X106567434Y-128535768D01*
X106726184Y-128377018D01*
X106726184Y-127694346D01*
X108057895Y-129026057D01*
X108206221Y-129125166D01*
X108381184Y-129159968D01*
X111140639Y-129159968D01*
X111140639Y-129551661D01*
X111163188Y-129667880D01*
X111230287Y-129770026D01*
X111331583Y-129838402D01*
X111451410Y-129862432D01*
X113229410Y-129862432D01*
X113345629Y-129839883D01*
X113431504Y-129783472D01*
X111946738Y-136167680D01*
X111924166Y-136212825D01*
X111880052Y-136277300D01*
X111789910Y-136336108D01*
X111655009Y-136362172D01*
X106401955Y-136362172D01*
X106401955Y-136119968D01*
X106841184Y-136119968D01*
X107016147Y-136085166D01*
X107164473Y-135986057D01*
X111340063Y-131810467D01*
X111469454Y-131810580D01*
X111707597Y-131712181D01*
X111889957Y-131530140D01*
X111988771Y-131292169D01*
X111988996Y-131034498D01*
X111890597Y-130796355D01*
X111708556Y-130613995D01*
X111470585Y-130515181D01*
X111212914Y-130514956D01*
X110974771Y-130613355D01*
X110792411Y-130795396D01*
X110693597Y-131033367D01*
X110693483Y-131163891D01*
X106651806Y-135205568D01*
X106401955Y-135205568D01*
X106401955Y-134662768D01*
X106379406Y-134546549D01*
X106312307Y-134444403D01*
X106211011Y-134376027D01*
X106091184Y-134351997D01*
X104591184Y-134351997D01*
X104474965Y-134374546D01*
X104372819Y-134441645D01*
X104304443Y-134542941D01*
X104280413Y-134662768D01*
X104280413Y-136362172D01*
X100901955Y-136362172D01*
X100901955Y-135248575D01*
X102030562Y-134119968D01*
X106841184Y-134119968D01*
X107016147Y-134085166D01*
X107164473Y-133986057D01*
X110340064Y-130810467D01*
X110469454Y-130810580D01*
X110707597Y-130712181D01*
X110889957Y-130530140D01*
X110988771Y-130292169D01*
X110988996Y-130034498D01*
X110890597Y-129796355D01*
X110708556Y-129613995D01*
X110470585Y-129515181D01*
X110212914Y-129514956D01*
X109974771Y-129613355D01*
X109792411Y-129795396D01*
X109693597Y-130033367D01*
X109693483Y-130163890D01*
X106651806Y-133205568D01*
X101841184Y-133205568D01*
X101666221Y-133240370D01*
X101517895Y-133339479D01*
X100505377Y-134351997D01*
X99091184Y-134351997D01*
X98974965Y-134374546D01*
X98872819Y-134441645D01*
X98804443Y-134542941D01*
X98780413Y-134662768D01*
X98780413Y-136362172D01*
X95774030Y-136362172D01*
X95634514Y-136334421D01*
X95545868Y-136275189D01*
X95486635Y-136186540D01*
X95468184Y-136093781D01*
X95468184Y-129067155D01*
X95560975Y-129105590D01*
X96651214Y-129105590D01*
X96809964Y-128946840D01*
X96809964Y-127598100D01*
X96789964Y-127598100D01*
X96789964Y-127344100D01*
X96809964Y-127344100D01*
X96809964Y-125995360D01*
X97063964Y-125995360D01*
X97063964Y-127344100D01*
X97083964Y-127344100D01*
X97083964Y-127598100D01*
X97063964Y-127598100D01*
X97063964Y-128946840D01*
X97222714Y-129105590D01*
X98312953Y-129105590D01*
X98456184Y-129046262D01*
X98456184Y-129789077D01*
X98552857Y-130022466D01*
X98731485Y-130201095D01*
X98964874Y-130297768D01*
X99555434Y-130297768D01*
X99714184Y-130139018D01*
X99714184Y-128789768D01*
X99694184Y-128789768D01*
X99694184Y-128535768D01*
X99714184Y-128535768D01*
X99714184Y-127186518D01*
X99968184Y-127186518D01*
X99968184Y-128535768D01*
X99988184Y-128535768D01*
X99988184Y-128789768D01*
X99968184Y-128789768D01*
X99968184Y-130139018D01*
X100126934Y-130297768D01*
X100717494Y-130297768D01*
X100950883Y-130201095D01*
X101129511Y-130022466D01*
X101226184Y-129789077D01*
X101226184Y-129105590D01*
X102150314Y-129105590D01*
X102309064Y-128946840D01*
X102309064Y-127598100D01*
X102289064Y-127598100D01*
X102289064Y-127344100D01*
X102309064Y-127344100D01*
X102309064Y-125995360D01*
X102563064Y-125995360D01*
X102563064Y-127344100D01*
X102583064Y-127344100D01*
X102583064Y-127598100D01*
X102563064Y-127598100D01*
X102563064Y-128946840D01*
X102721814Y-129105590D01*
X103812053Y-129105590D01*
X103956184Y-129045889D01*
X103956184Y-129789077D01*
X104052857Y-130022466D01*
X104231485Y-130201095D01*
X104464874Y-130297768D01*
X105055434Y-130297768D01*
X105214184Y-130139018D01*
X105214184Y-128789768D01*
X105468184Y-128789768D01*
X105468184Y-130139018D01*
X105626934Y-130297768D01*
X106217494Y-130297768D01*
X106450883Y-130201095D01*
X106629511Y-130022466D01*
X106726184Y-129789077D01*
X106726184Y-128948518D01*
X106567434Y-128789768D01*
X105468184Y-128789768D01*
X105214184Y-128789768D01*
X105214184Y-128789768D01*
X105194184Y-128789768D01*
X105194184Y-128535768D01*
X105214184Y-128535768D01*
X105214184Y-127186518D01*
X105055434Y-127027768D01*
X104464874Y-127027768D01*
X104320744Y-127087469D01*
X104320744Y-126345300D01*
X104224071Y-126111911D01*
X104045442Y-125933283D01*
X103812053Y-125836610D01*
X102721814Y-125836610D01*
X102563064Y-125995360D01*
X102309064Y-125995360D01*
X102309064Y-125995360D01*
X102150314Y-125836610D01*
X101060075Y-125836610D01*
X100826686Y-125933283D01*
X100648057Y-126111911D01*
X100551384Y-126345300D01*
X100551384Y-127027768D01*
X100126934Y-127027768D01*
X99968184Y-127186518D01*
X99714184Y-127186518D01*
X99714184Y-127186518D01*
X99555434Y-127027768D01*
X98964874Y-127027768D01*
X98821644Y-127087096D01*
X98821644Y-126345300D01*
X98724971Y-126111911D01*
X98546342Y-125933283D01*
X98312953Y-125836610D01*
X97222714Y-125836610D01*
X97063964Y-125995360D01*
X96809964Y-125995360D01*
X96809964Y-125995360D01*
X96651214Y-125836610D01*
X95560975Y-125836610D01*
X95468184Y-125875045D01*
X95468184Y-125370057D01*
X99182194Y-125370057D01*
X99296799Y-125647424D01*
X99508824Y-125859819D01*
X99785990Y-125974909D01*
X100086101Y-125975170D01*
X100363468Y-125860565D01*
X100575863Y-125648540D01*
X100690953Y-125371374D01*
X100691214Y-125071263D01*
X100622543Y-124905065D01*
X100749504Y-124905065D01*
X100749504Y-124997720D01*
X100846177Y-125231109D01*
X101024806Y-125409737D01*
X101258195Y-125506410D01*
X102249374Y-125506410D01*
X102408124Y-125347660D01*
X102408124Y-124746315D01*
X102662124Y-124746315D01*
X102662124Y-125347660D01*
X102820874Y-125506410D01*
X103812053Y-125506410D01*
X104045442Y-125409737D01*
X104224071Y-125231109D01*
X104320744Y-124997720D01*
X104320744Y-124905065D01*
X104161994Y-124746315D01*
X102662124Y-124746315D01*
X102408124Y-124746315D01*
X102408124Y-124746315D01*
X100908254Y-124746315D01*
X100749504Y-124905065D01*
X100622543Y-124905065D01*
X100576609Y-124793896D01*
X100364584Y-124581501D01*
X100087418Y-124466411D01*
X99787307Y-124466150D01*
X99509940Y-124580755D01*
X99297545Y-124792780D01*
X99182455Y-125069946D01*
X99182194Y-125370057D01*
X95468184Y-125370057D01*
X95468184Y-120970777D01*
X99182194Y-120970777D01*
X99296799Y-121248144D01*
X99508824Y-121460539D01*
X99785990Y-121575629D01*
X100086101Y-121575890D01*
X100363468Y-121461285D01*
X100575863Y-121249260D01*
X100690953Y-120972094D01*
X100691214Y-120671983D01*
X100576609Y-120394616D01*
X100364584Y-120182221D01*
X100087418Y-120067131D01*
X99787307Y-120066870D01*
X99509940Y-120181475D01*
X99297545Y-120393500D01*
X99182455Y-120670666D01*
X99182194Y-120970777D01*
X95468184Y-120970777D01*
X95468184Y-120166995D01*
X95560975Y-120205430D01*
X96651214Y-120205430D01*
X96809964Y-120046680D01*
X96809964Y-118697940D01*
X97063964Y-118697940D01*
X97063964Y-120046680D01*
X97222714Y-120205430D01*
X98312953Y-120205430D01*
X98546342Y-120108757D01*
X98724971Y-119930129D01*
X98821644Y-119696740D01*
X98821644Y-118856690D01*
X100551384Y-118856690D01*
X100551384Y-119696740D01*
X100648057Y-119930129D01*
X100826686Y-120108757D01*
X101060075Y-120205430D01*
X102150314Y-120205430D01*
X102309064Y-120046680D01*
X102309064Y-118697940D01*
X102563064Y-118697940D01*
X102563064Y-120046680D01*
X102721814Y-120205430D01*
X103812053Y-120205430D01*
X104045442Y-120108757D01*
X104224071Y-119930129D01*
X104320744Y-119696740D01*
X104320744Y-118856690D01*
X104161994Y-118697940D01*
X102563064Y-118697940D01*
X102309064Y-118697940D01*
X102309064Y-118697940D01*
X100710134Y-118697940D01*
X100551384Y-118856690D01*
X98821644Y-118856690D01*
X98821644Y-118856690D01*
X98662894Y-118697940D01*
X97063964Y-118697940D01*
X96809964Y-118697940D01*
X96809964Y-118697940D01*
X96789964Y-118697940D01*
X96789964Y-118443940D01*
X96809964Y-118443940D01*
X96809964Y-118423940D01*
X97063964Y-118423940D01*
X97063964Y-118443940D01*
X98662894Y-118443940D01*
X98821644Y-118285190D01*
X98821644Y-118071772D01*
X100551384Y-118071772D01*
X100551384Y-118285190D01*
G36*
X86694250Y-137438524D02*
X86630133Y-137533510D01*
X86600095Y-137683294D01*
X86600095Y-138173732D01*
X86384546Y-138389281D01*
X86246895Y-138595290D01*
X86198559Y-138838294D01*
X86198559Y-141655094D01*
X86160553Y-141680060D01*
X86075083Y-141806680D01*
X86045045Y-141956464D01*
X86045045Y-142603000D01*
X82595111Y-142603000D01*
X78787971Y-141845713D01*
X78717787Y-141845713D01*
X78647738Y-141841104D01*
X72849262Y-142603000D01*
X68089247Y-142603000D01*
X67959858Y-142289854D01*
X67932296Y-142262243D01*
X67982270Y-142212269D01*
X68084131Y-142059823D01*
X68092437Y-142018066D01*
X68119900Y-141880000D01*
X68119900Y-141078021D01*
X68220595Y-141145304D01*
X68220595Y-141167794D01*
X68248781Y-141313068D01*
X68332655Y-141440750D01*
X68459275Y-141526220D01*
X68609059Y-141556258D01*
X69498059Y-141556258D01*
X69643333Y-141528072D01*
X69771015Y-141444198D01*
X69854719Y-141320194D01*
X70158462Y-141320194D01*
X70237655Y-141440750D01*
X70364275Y-141526220D01*
X70514059Y-141556258D01*
X71403059Y-141556258D01*
X71548333Y-141528072D01*
X71676015Y-141444198D01*
X71761485Y-141317578D01*
X71764336Y-141303360D01*
X71859529Y-141284425D01*
X72011975Y-141182563D01*
X72332269Y-140862270D01*
X72434131Y-140709823D01*
X72439665Y-140682003D01*
X72469900Y-140530000D01*
X72469900Y-139754096D01*
X74068234Y-139754096D01*
X74240142Y-140170146D01*
X74558180Y-140488739D01*
X74973929Y-140661373D01*
X75424096Y-140661766D01*
X75840146Y-140489858D01*
X76158739Y-140171820D01*
X76331373Y-139756071D01*
X76331766Y-139305904D01*
X76159858Y-138889854D01*
X75841820Y-138571261D01*
X75426071Y-138398627D01*
X74975904Y-138398234D01*
X74559854Y-138570142D01*
X74241261Y-138888180D01*
X74068627Y-139303929D01*
X74068234Y-139754096D01*
X72469900Y-139754096D01*
X72469900Y-139124638D01*
X73294639Y-138299900D01*
X74486853Y-138299900D01*
X74666676Y-138264131D01*
X74819122Y-138162269D01*
X75449092Y-137532299D01*
X75562271Y-137607923D01*
X76038559Y-137702663D01*
X76514847Y-137607923D01*
X76628026Y-137532299D01*
X77103289Y-138007563D01*
X77194907Y-138068780D01*
X77255736Y-138109425D01*
X77435559Y-138145194D01*
X78830100Y-138145194D01*
X78830100Y-138499798D01*
X78659854Y-138570142D01*
X78341261Y-138888180D01*
X78168627Y-139303929D01*
X78168234Y-139754096D01*
X78340142Y-140170146D01*
X78658180Y-140488739D01*
X79073929Y-140661373D01*
X79524096Y-140661766D01*
X79940146Y-140489858D01*
X80258739Y-140171820D01*
X80350011Y-139952012D01*
X80440142Y-140170146D01*
X80758180Y-140488739D01*
X81173929Y-140661373D01*
X81624096Y-140661766D01*
X82040146Y-140489858D01*
X82358739Y-140171820D01*
X82531373Y-139756071D01*
X82531766Y-139305904D01*
X82359858Y-138889854D01*
X82041820Y-138571261D01*
X81626071Y-138398627D01*
X81175904Y-138398234D01*
X80759854Y-138570142D01*
X80441261Y-138888180D01*
X80349989Y-139107988D01*
X80259858Y-138889854D01*
X79941820Y-138571261D01*
X79769900Y-138499874D01*
X79769900Y-138145194D01*
X83543835Y-138145194D01*
X83490633Y-138224010D01*
X83460595Y-138373794D01*
X83460595Y-139008794D01*
X83488781Y-139154068D01*
X83572655Y-139281750D01*
X83699275Y-139367220D01*
X83849059Y-139397258D01*
X84738059Y-139397258D01*
X84883333Y-139369072D01*
X85011015Y-139285198D01*
X85096485Y-139158578D01*
X85126523Y-139008794D01*
X85126523Y-138649868D01*
X85895828Y-137880564D01*
X85997690Y-137728117D01*
X85998668Y-137723201D01*
X86033459Y-137548294D01*
X86033459Y-137234932D01*
X86157133Y-137111258D01*
X86366985Y-137111258D01*
X86694250Y-137438524D01*
X86694250Y-137438524D01*
G37*
X86694250Y-137438524D02*
X86630133Y-137533510D01*
X86600095Y-137683294D01*
X86600095Y-138173732D01*
X86384546Y-138389281D01*
X86246895Y-138595290D01*
X86198559Y-138838294D01*
X86198559Y-141655094D01*
X86160553Y-141680060D01*
X86075083Y-141806680D01*
X86045045Y-141956464D01*
X86045045Y-142603000D01*
X82595111Y-142603000D01*
X78787971Y-141845713D01*
X78717787Y-141845713D01*
X78647738Y-141841104D01*
X72849262Y-142603000D01*
X68089247Y-142603000D01*
X67959858Y-142289854D01*
X67932296Y-142262243D01*
X67982270Y-142212269D01*
X68084131Y-142059823D01*
X68092437Y-142018066D01*
X68119900Y-141880000D01*
X68119900Y-141078021D01*
X68220595Y-141145304D01*
X68220595Y-141167794D01*
X68248781Y-141313068D01*
X68332655Y-141440750D01*
X68459275Y-141526220D01*
X68609059Y-141556258D01*
X69498059Y-141556258D01*
X69643333Y-141528072D01*
X69771015Y-141444198D01*
X69854719Y-141320194D01*
X70158462Y-141320194D01*
X70237655Y-141440750D01*
X70364275Y-141526220D01*
X70514059Y-141556258D01*
X71403059Y-141556258D01*
X71548333Y-141528072D01*
X71676015Y-141444198D01*
X71761485Y-141317578D01*
X71764336Y-141303360D01*
X71859529Y-141284425D01*
X72011975Y-141182563D01*
X72332269Y-140862270D01*
X72434131Y-140709823D01*
X72439665Y-140682003D01*
X72469900Y-140530000D01*
X72469900Y-139754096D01*
X74068234Y-139754096D01*
X74240142Y-140170146D01*
X74558180Y-140488739D01*
X74973929Y-140661373D01*
X75424096Y-140661766D01*
X75840146Y-140489858D01*
X76158739Y-140171820D01*
X76331373Y-139756071D01*
X76331766Y-139305904D01*
X76159858Y-138889854D01*
X75841820Y-138571261D01*
X75426071Y-138398627D01*
X74975904Y-138398234D01*
X74559854Y-138570142D01*
X74241261Y-138888180D01*
X74068627Y-139303929D01*
X74068234Y-139754096D01*
X72469900Y-139754096D01*
X72469900Y-139124638D01*
X73294639Y-138299900D01*
X74486853Y-138299900D01*
X74666676Y-138264131D01*
X74819122Y-138162269D01*
X75449092Y-137532299D01*
X75562271Y-137607923D01*
X76038559Y-137702663D01*
X76514847Y-137607923D01*
X76628026Y-137532299D01*
X77103289Y-138007563D01*
X77194907Y-138068780D01*
X77255736Y-138109425D01*
X77435559Y-138145194D01*
X78830100Y-138145194D01*
X78830100Y-138499798D01*
X78659854Y-138570142D01*
X78341261Y-138888180D01*
X78168627Y-139303929D01*
X78168234Y-139754096D01*
X78340142Y-140170146D01*
X78658180Y-140488739D01*
X79073929Y-140661373D01*
X79524096Y-140661766D01*
X79940146Y-140489858D01*
X80258739Y-140171820D01*
X80350011Y-139952012D01*
X80440142Y-140170146D01*
X80758180Y-140488739D01*
X81173929Y-140661373D01*
X81624096Y-140661766D01*
X82040146Y-140489858D01*
X82358739Y-140171820D01*
X82531373Y-139756071D01*
X82531766Y-139305904D01*
X82359858Y-138889854D01*
X82041820Y-138571261D01*
X81626071Y-138398627D01*
X81175904Y-138398234D01*
X80759854Y-138570142D01*
X80441261Y-138888180D01*
X80349989Y-139107988D01*
X80259858Y-138889854D01*
X79941820Y-138571261D01*
X79769900Y-138499874D01*
X79769900Y-138145194D01*
X83543835Y-138145194D01*
X83490633Y-138224010D01*
X83460595Y-138373794D01*
X83460595Y-139008794D01*
X83488781Y-139154068D01*
X83572655Y-139281750D01*
X83699275Y-139367220D01*
X83849059Y-139397258D01*
X84738059Y-139397258D01*
X84883333Y-139369072D01*
X85011015Y-139285198D01*
X85096485Y-139158578D01*
X85126523Y-139008794D01*
X85126523Y-138649868D01*
X85895828Y-137880564D01*
X85997690Y-137728117D01*
X85998668Y-137723201D01*
X86033459Y-137548294D01*
X86033459Y-137234932D01*
X86157133Y-137111258D01*
X86366985Y-137111258D01*
X86694250Y-137438524D01*
G36*
X87270595Y-129739356D02*
X87270595Y-129991794D01*
X87298781Y-130137068D01*
X87382655Y-130264750D01*
X87475186Y-130327209D01*
X87527546Y-130405572D01*
X88896281Y-131774307D01*
X89102290Y-131911958D01*
X89345294Y-131960295D01*
X89345299Y-131960294D01*
X90473379Y-131960294D01*
X90473379Y-132975653D01*
X90461455Y-132977966D01*
X90333773Y-133061840D01*
X90248303Y-133188460D01*
X90218265Y-133338244D01*
X90218265Y-134138344D01*
X90246451Y-134283618D01*
X90330325Y-134411300D01*
X90456945Y-134496770D01*
X90606729Y-134526808D01*
X91406829Y-134526808D01*
X91552103Y-134498622D01*
X91679785Y-134414748D01*
X91765255Y-134288128D01*
X91795293Y-134138344D01*
X91795293Y-133338244D01*
X91767107Y-133192970D01*
X91683233Y-133065288D01*
X91556613Y-132979818D01*
X91540179Y-132976522D01*
X91540179Y-132031258D01*
X91723059Y-132031258D01*
X91868333Y-132003072D01*
X91996015Y-131919198D01*
X92081485Y-131792578D01*
X92111523Y-131642794D01*
X92111523Y-131122171D01*
X92335358Y-132697688D01*
X92355618Y-132755425D01*
X92369524Y-132815014D01*
X92373000Y-132822682D01*
X92373000Y-135551215D01*
X92256954Y-135574298D01*
X92009744Y-135739479D01*
X91920569Y-135872939D01*
X91838815Y-135791185D01*
X91591604Y-135626004D01*
X91300000Y-135568001D01*
X91008396Y-135626004D01*
X90761185Y-135791185D01*
X90596004Y-136038396D01*
X90538001Y-136330000D01*
X90596004Y-136621604D01*
X90761185Y-136868815D01*
X90789818Y-136897448D01*
X90622153Y-137009479D01*
X90456972Y-137256689D01*
X90449385Y-137294830D01*
X89488559Y-137294830D01*
X89343285Y-137323016D01*
X89215603Y-137406890D01*
X89130133Y-137533510D01*
X89100095Y-137683294D01*
X89100095Y-138683294D01*
X89128281Y-138828568D01*
X89212155Y-138956250D01*
X89338775Y-139041720D01*
X89488559Y-139071758D01*
X89720671Y-139071758D01*
X90372152Y-139723240D01*
X90372155Y-139723242D01*
X90843929Y-140195016D01*
X90792647Y-140270989D01*
X90761669Y-140420582D01*
X90790767Y-140570552D01*
X90875440Y-140697706D01*
X92373000Y-142195266D01*
X92373000Y-142510734D01*
X90717706Y-140855440D01*
X90595051Y-140772647D01*
X90445458Y-140741669D01*
X90295488Y-140770767D01*
X90168334Y-140855440D01*
X89429260Y-141594514D01*
X87468559Y-141594514D01*
X87468559Y-141146048D01*
X88183609Y-141146048D01*
X88328883Y-141117862D01*
X88456565Y-141033988D01*
X88542035Y-140907368D01*
X88572073Y-140757584D01*
X88572073Y-139957484D01*
X88543887Y-139812210D01*
X88460013Y-139684528D01*
X88333393Y-139599058D01*
X88256711Y-139583680D01*
X88816829Y-139023563D01*
X88918690Y-138871117D01*
X88954459Y-138691294D01*
X88954459Y-137548294D01*
X88918690Y-137368471D01*
X88882848Y-137314830D01*
X88816828Y-137216024D01*
X88580308Y-136979505D01*
X88652485Y-136872578D01*
X88682523Y-136722794D01*
X88682523Y-135833794D01*
X88671818Y-135778617D01*
X88973626Y-135476808D01*
X89407849Y-135476808D01*
X89553123Y-135448622D01*
X89680805Y-135364748D01*
X89766275Y-135238128D01*
X89796313Y-135088344D01*
X89796313Y-134288244D01*
X89768127Y-134142970D01*
X89684253Y-134015288D01*
X89557633Y-133929818D01*
X89407849Y-133899780D01*
X88607749Y-133899780D01*
X88462475Y-133927966D01*
X88334793Y-134011840D01*
X88249323Y-134138460D01*
X88219285Y-134288244D01*
X88219285Y-134722467D01*
X87698860Y-135242891D01*
X87648382Y-135209163D01*
X87625306Y-135204573D01*
X87468559Y-135173394D01*
X87031523Y-135173394D01*
X87031523Y-134722174D01*
X87163335Y-134590592D01*
X87273774Y-134324624D01*
X87274025Y-134036639D01*
X87164050Y-133770479D01*
X86960592Y-133566665D01*
X86694624Y-133456226D01*
X86406639Y-133455975D01*
X86140479Y-133565950D01*
X85936665Y-133769408D01*
X85826226Y-134035376D01*
X85826104Y-134175330D01*
X85754059Y-134175330D01*
X85608785Y-134203516D01*
X85481103Y-134287390D01*
X85395633Y-134414010D01*
X85365595Y-134563794D01*
X85365595Y-135198794D01*
X85369458Y-135218703D01*
X85231290Y-135311024D01*
X84826944Y-135715370D01*
X84808419Y-135622237D01*
X84538624Y-135218460D01*
X84134847Y-134948665D01*
X83658559Y-134853925D01*
X83182271Y-134948665D01*
X82778494Y-135218460D01*
X82508699Y-135622237D01*
X82413959Y-136098525D01*
X82413959Y-136458063D01*
X82508699Y-136934351D01*
X82689804Y-137205394D01*
X82087314Y-137205394D01*
X82268419Y-136934351D01*
X82363159Y-136458063D01*
X82363159Y-136098525D01*
X82268419Y-135622237D01*
X82082461Y-135343931D01*
X82583198Y-134843194D01*
X83785559Y-134843194D01*
X83965382Y-134807425D01*
X84117828Y-134705563D01*
X85522134Y-133301258D01*
X86008059Y-133301258D01*
X86153333Y-133273072D01*
X86281015Y-133189198D01*
X86364719Y-133065194D01*
X86668462Y-133065194D01*
X86747655Y-133185750D01*
X86874275Y-133271220D01*
X87024059Y-133301258D01*
X87913059Y-133301258D01*
X88058333Y-133273072D01*
X88186015Y-133189198D01*
X88271485Y-133062578D01*
X88301523Y-132912794D01*
X88301523Y-132277794D01*
X88273337Y-132132520D01*
X88189463Y-132004838D01*
X88062843Y-131919368D01*
X87913059Y-131889330D01*
X87273805Y-131889330D01*
X87274025Y-131636639D01*
X87164050Y-131370479D01*
X87019900Y-131226077D01*
X87019900Y-130330000D01*
X86984131Y-130150177D01*
X86956027Y-130108117D01*
X86882270Y-129997731D01*
X86232269Y-129347731D01*
X86150799Y-129293294D01*
X86824533Y-129293294D01*
X87270595Y-129739356D01*
X87270595Y-129739356D01*
G37*
X87270595Y-129739356D02*
X87270595Y-129991794D01*
X87298781Y-130137068D01*
X87382655Y-130264750D01*
X87475186Y-130327209D01*
X87527546Y-130405572D01*
X88896281Y-131774307D01*
X89102290Y-131911958D01*
X89345294Y-131960295D01*
X89345299Y-131960294D01*
X90473379Y-131960294D01*
X90473379Y-132975653D01*
X90461455Y-132977966D01*
X90333773Y-133061840D01*
X90248303Y-133188460D01*
X90218265Y-133338244D01*
X90218265Y-134138344D01*
X90246451Y-134283618D01*
X90330325Y-134411300D01*
X90456945Y-134496770D01*
X90606729Y-134526808D01*
X91406829Y-134526808D01*
X91552103Y-134498622D01*
X91679785Y-134414748D01*
X91765255Y-134288128D01*
X91795293Y-134138344D01*
X91795293Y-133338244D01*
X91767107Y-133192970D01*
X91683233Y-133065288D01*
X91556613Y-132979818D01*
X91540179Y-132976522D01*
X91540179Y-132031258D01*
X91723059Y-132031258D01*
X91868333Y-132003072D01*
X91996015Y-131919198D01*
X92081485Y-131792578D01*
X92111523Y-131642794D01*
X92111523Y-131122171D01*
X92335358Y-132697688D01*
X92355618Y-132755425D01*
X92369524Y-132815014D01*
X92373000Y-132822682D01*
X92373000Y-135551215D01*
X92256954Y-135574298D01*
X92009744Y-135739479D01*
X91920569Y-135872939D01*
X91838815Y-135791185D01*
X91591604Y-135626004D01*
X91300000Y-135568001D01*
X91008396Y-135626004D01*
X90761185Y-135791185D01*
X90596004Y-136038396D01*
X90538001Y-136330000D01*
X90596004Y-136621604D01*
X90761185Y-136868815D01*
X90789818Y-136897448D01*
X90622153Y-137009479D01*
X90456972Y-137256689D01*
X90449385Y-137294830D01*
X89488559Y-137294830D01*
X89343285Y-137323016D01*
X89215603Y-137406890D01*
X89130133Y-137533510D01*
X89100095Y-137683294D01*
X89100095Y-138683294D01*
X89128281Y-138828568D01*
X89212155Y-138956250D01*
X89338775Y-139041720D01*
X89488559Y-139071758D01*
X89720671Y-139071758D01*
X90372152Y-139723240D01*
X90372155Y-139723242D01*
X90843929Y-140195016D01*
X90792647Y-140270989D01*
X90761669Y-140420582D01*
X90790767Y-140570552D01*
X90875440Y-140697706D01*
X92373000Y-142195266D01*
X92373000Y-142510734D01*
X90717706Y-140855440D01*
X90595051Y-140772647D01*
X90445458Y-140741669D01*
X90295488Y-140770767D01*
X90168334Y-140855440D01*
X89429260Y-141594514D01*
X87468559Y-141594514D01*
X87468559Y-141146048D01*
X88183609Y-141146048D01*
X88328883Y-141117862D01*
X88456565Y-141033988D01*
X88542035Y-140907368D01*
X88572073Y-140757584D01*
X88572073Y-139957484D01*
X88543887Y-139812210D01*
X88460013Y-139684528D01*
X88333393Y-139599058D01*
X88256711Y-139583680D01*
X88816829Y-139023563D01*
X88918690Y-138871117D01*
X88954459Y-138691294D01*
X88954459Y-137548294D01*
X88918690Y-137368471D01*
X88882848Y-137314830D01*
X88816828Y-137216024D01*
X88580308Y-136979505D01*
X88652485Y-136872578D01*
X88682523Y-136722794D01*
X88682523Y-135833794D01*
X88671818Y-135778617D01*
X88973626Y-135476808D01*
X89407849Y-135476808D01*
X89553123Y-135448622D01*
X89680805Y-135364748D01*
X89766275Y-135238128D01*
X89796313Y-135088344D01*
X89796313Y-134288244D01*
X89768127Y-134142970D01*
X89684253Y-134015288D01*
X89557633Y-133929818D01*
X89407849Y-133899780D01*
X88607749Y-133899780D01*
X88462475Y-133927966D01*
X88334793Y-134011840D01*
X88249323Y-134138460D01*
X88219285Y-134288244D01*
X88219285Y-134722467D01*
X87698860Y-135242891D01*
X87648382Y-135209163D01*
X87625306Y-135204573D01*
X87468559Y-135173394D01*
X87031523Y-135173394D01*
X87031523Y-134722174D01*
X87163335Y-134590592D01*
X87273774Y-134324624D01*
X87274025Y-134036639D01*
X87164050Y-133770479D01*
X86960592Y-133566665D01*
X86694624Y-133456226D01*
X86406639Y-133455975D01*
X86140479Y-133565950D01*
X85936665Y-133769408D01*
X85826226Y-134035376D01*
X85826104Y-134175330D01*
X85754059Y-134175330D01*
X85608785Y-134203516D01*
X85481103Y-134287390D01*
X85395633Y-134414010D01*
X85365595Y-134563794D01*
X85365595Y-135198794D01*
X85369458Y-135218703D01*
X85231290Y-135311024D01*
X84826944Y-135715370D01*
X84808419Y-135622237D01*
X84538624Y-135218460D01*
X84134847Y-134948665D01*
X83658559Y-134853925D01*
X83182271Y-134948665D01*
X82778494Y-135218460D01*
X82508699Y-135622237D01*
X82413959Y-136098525D01*
X82413959Y-136458063D01*
X82508699Y-136934351D01*
X82689804Y-137205394D01*
X82087314Y-137205394D01*
X82268419Y-136934351D01*
X82363159Y-136458063D01*
X82363159Y-136098525D01*
X82268419Y-135622237D01*
X82082461Y-135343931D01*
X82583198Y-134843194D01*
X83785559Y-134843194D01*
X83965382Y-134807425D01*
X84117828Y-134705563D01*
X85522134Y-133301258D01*
X86008059Y-133301258D01*
X86153333Y-133273072D01*
X86281015Y-133189198D01*
X86364719Y-133065194D01*
X86668462Y-133065194D01*
X86747655Y-133185750D01*
X86874275Y-133271220D01*
X87024059Y-133301258D01*
X87913059Y-133301258D01*
X88058333Y-133273072D01*
X88186015Y-133189198D01*
X88271485Y-133062578D01*
X88301523Y-132912794D01*
X88301523Y-132277794D01*
X88273337Y-132132520D01*
X88189463Y-132004838D01*
X88062843Y-131919368D01*
X87913059Y-131889330D01*
X87273805Y-131889330D01*
X87274025Y-131636639D01*
X87164050Y-131370479D01*
X87019900Y-131226077D01*
X87019900Y-130330000D01*
X86984131Y-130150177D01*
X86956027Y-130108117D01*
X86882270Y-129997731D01*
X86232269Y-129347731D01*
X86150799Y-129293294D01*
X86824533Y-129293294D01*
X87270595Y-129739356D01*
G36*
X71794428Y-134828471D02*
X71758659Y-135008294D01*
X71758659Y-137988655D01*
X71126985Y-138620330D01*
X70514059Y-138620330D01*
X70368785Y-138648516D01*
X70241103Y-138732390D01*
X70155633Y-138859010D01*
X70125595Y-139008794D01*
X70125595Y-139643794D01*
X70153781Y-139789068D01*
X70237655Y-139916750D01*
X70364275Y-140002220D01*
X70514059Y-140032258D01*
X71403059Y-140032258D01*
X71530100Y-140007610D01*
X71530100Y-140169807D01*
X71403059Y-140144330D01*
X70514059Y-140144330D01*
X70368785Y-140172516D01*
X70241103Y-140256390D01*
X70157399Y-140380394D01*
X69853656Y-140380394D01*
X69774463Y-140259838D01*
X69647843Y-140174368D01*
X69498059Y-140144330D01*
X68609059Y-140144330D01*
X68521183Y-140161380D01*
X68253459Y-139893656D01*
X68253459Y-139796189D01*
X68332655Y-139916750D01*
X68459275Y-140002220D01*
X68609059Y-140032258D01*
X69498059Y-140032258D01*
X69643333Y-140004072D01*
X69771015Y-139920198D01*
X69856485Y-139793578D01*
X69886523Y-139643794D01*
X69886523Y-139008794D01*
X69858337Y-138863520D01*
X69774463Y-138735838D01*
X69647843Y-138650368D01*
X69523459Y-138625424D01*
X69523459Y-135202932D01*
X69883198Y-134843194D01*
X71593559Y-134843194D01*
X71773382Y-134807425D01*
X71836809Y-134765044D01*
X71794428Y-134828471D01*
X71794428Y-134828471D01*
G37*
X71794428Y-134828471D02*
X71758659Y-135008294D01*
X71758659Y-137988655D01*
X71126985Y-138620330D01*
X70514059Y-138620330D01*
X70368785Y-138648516D01*
X70241103Y-138732390D01*
X70155633Y-138859010D01*
X70125595Y-139008794D01*
X70125595Y-139643794D01*
X70153781Y-139789068D01*
X70237655Y-139916750D01*
X70364275Y-140002220D01*
X70514059Y-140032258D01*
X71403059Y-140032258D01*
X71530100Y-140007610D01*
X71530100Y-140169807D01*
X71403059Y-140144330D01*
X70514059Y-140144330D01*
X70368785Y-140172516D01*
X70241103Y-140256390D01*
X70157399Y-140380394D01*
X69853656Y-140380394D01*
X69774463Y-140259838D01*
X69647843Y-140174368D01*
X69498059Y-140144330D01*
X68609059Y-140144330D01*
X68521183Y-140161380D01*
X68253459Y-139893656D01*
X68253459Y-139796189D01*
X68332655Y-139916750D01*
X68459275Y-140002220D01*
X68609059Y-140032258D01*
X69498059Y-140032258D01*
X69643333Y-140004072D01*
X69771015Y-139920198D01*
X69856485Y-139793578D01*
X69886523Y-139643794D01*
X69886523Y-139008794D01*
X69858337Y-138863520D01*
X69774463Y-138735838D01*
X69647843Y-138650368D01*
X69523459Y-138625424D01*
X69523459Y-135202932D01*
X69883198Y-134843194D01*
X71593559Y-134843194D01*
X71773382Y-134807425D01*
X71836809Y-134765044D01*
X71794428Y-134828471D01*
G36*
X67930100Y-129430000D02*
X67930100Y-130385361D01*
X67855362Y-130460100D01*
X67400000Y-130460100D01*
X67249889Y-130489959D01*
X67220177Y-130495869D01*
X67067730Y-130597731D01*
X66816290Y-130849172D01*
X66714428Y-131001618D01*
X66678659Y-131181441D01*
X66678659Y-131703405D01*
X66444624Y-131606226D01*
X66156639Y-131605975D01*
X65890479Y-131715950D01*
X65686665Y-131919408D01*
X65576226Y-132185376D01*
X65575975Y-132473361D01*
X65685950Y-132739521D01*
X65889408Y-132943335D01*
X66130100Y-133043279D01*
X66130100Y-133785361D01*
X65867731Y-134047731D01*
X65765869Y-134200177D01*
X65730100Y-134380000D01*
X65730100Y-135430000D01*
X65756488Y-135562662D01*
X65765869Y-135609823D01*
X65852241Y-135739087D01*
X65837843Y-135729368D01*
X65688059Y-135699330D01*
X64799059Y-135699330D01*
X64653785Y-135727516D01*
X64526103Y-135811390D01*
X64442399Y-135935394D01*
X64390696Y-135935394D01*
X64380773Y-135920288D01*
X64254153Y-135834818D01*
X64104369Y-135804780D01*
X63304269Y-135804780D01*
X63158995Y-135832966D01*
X63031313Y-135916840D01*
X62945843Y-136043460D01*
X62915805Y-136193244D01*
X62915805Y-136993344D01*
X62943991Y-137138618D01*
X63027865Y-137266300D01*
X63154485Y-137351770D01*
X63304269Y-137381808D01*
X63892808Y-137381808D01*
X63872152Y-137395610D01*
X62221994Y-139045768D01*
X61960346Y-138784120D01*
X61837691Y-138701327D01*
X61688098Y-138670349D01*
X61627000Y-138682204D01*
X61627000Y-137480630D01*
X62244154Y-136863477D01*
X62409335Y-136616266D01*
X62415531Y-136585117D01*
X62467339Y-136324661D01*
X62467339Y-136175556D01*
X62493853Y-136043344D01*
X62493853Y-135243244D01*
X62465667Y-135097970D01*
X62381793Y-134970288D01*
X62255173Y-134884818D01*
X62105389Y-134854780D01*
X61627000Y-134854780D01*
X61627000Y-132003839D01*
X62061095Y-129735307D01*
X62061095Y-130182294D01*
X62089281Y-130327568D01*
X62173155Y-130455250D01*
X62299775Y-130540720D01*
X62366829Y-130554167D01*
X62294038Y-130584244D01*
X62090224Y-130787702D01*
X61979785Y-131053670D01*
X61979534Y-131341655D01*
X62089509Y-131607815D01*
X62292967Y-131811629D01*
X62558935Y-131922068D01*
X62846920Y-131922319D01*
X63113080Y-131812344D01*
X63316894Y-131608886D01*
X63338476Y-131556911D01*
X63359509Y-131607815D01*
X63562967Y-131811629D01*
X63828935Y-131922068D01*
X64116920Y-131922319D01*
X64383080Y-131812344D01*
X64527482Y-131668194D01*
X64631706Y-131668194D01*
X64811529Y-131632425D01*
X64963975Y-131530563D01*
X66994639Y-129499900D01*
X67600000Y-129499900D01*
X67779823Y-129464131D01*
X67932269Y-129362269D01*
X67946379Y-129348159D01*
X67930100Y-129430000D01*
X67930100Y-129430000D01*
G37*
X67930100Y-129430000D02*
X67930100Y-130385361D01*
X67855362Y-130460100D01*
X67400000Y-130460100D01*
X67249889Y-130489959D01*
X67220177Y-130495869D01*
X67067730Y-130597731D01*
X66816290Y-130849172D01*
X66714428Y-131001618D01*
X66678659Y-131181441D01*
X66678659Y-131703405D01*
X66444624Y-131606226D01*
X66156639Y-131605975D01*
X65890479Y-131715950D01*
X65686665Y-131919408D01*
X65576226Y-132185376D01*
X65575975Y-132473361D01*
X65685950Y-132739521D01*
X65889408Y-132943335D01*
X66130100Y-133043279D01*
X66130100Y-133785361D01*
X65867731Y-134047731D01*
X65765869Y-134200177D01*
X65730100Y-134380000D01*
X65730100Y-135430000D01*
X65756488Y-135562662D01*
X65765869Y-135609823D01*
X65852241Y-135739087D01*
X65837843Y-135729368D01*
X65688059Y-135699330D01*
X64799059Y-135699330D01*
X64653785Y-135727516D01*
X64526103Y-135811390D01*
X64442399Y-135935394D01*
X64390696Y-135935394D01*
X64380773Y-135920288D01*
X64254153Y-135834818D01*
X64104369Y-135804780D01*
X63304269Y-135804780D01*
X63158995Y-135832966D01*
X63031313Y-135916840D01*
X62945843Y-136043460D01*
X62915805Y-136193244D01*
X62915805Y-136993344D01*
X62943991Y-137138618D01*
X63027865Y-137266300D01*
X63154485Y-137351770D01*
X63304269Y-137381808D01*
X63892808Y-137381808D01*
X63872152Y-137395610D01*
X62221994Y-139045768D01*
X61960346Y-138784120D01*
X61837691Y-138701327D01*
X61688098Y-138670349D01*
X61627000Y-138682204D01*
X61627000Y-137480630D01*
X62244154Y-136863477D01*
X62409335Y-136616266D01*
X62415531Y-136585117D01*
X62467339Y-136324661D01*
X62467339Y-136175556D01*
X62493853Y-136043344D01*
X62493853Y-135243244D01*
X62465667Y-135097970D01*
X62381793Y-134970288D01*
X62255173Y-134884818D01*
X62105389Y-134854780D01*
X61627000Y-134854780D01*
X61627000Y-132003839D01*
X62061095Y-129735307D01*
X62061095Y-130182294D01*
X62089281Y-130327568D01*
X62173155Y-130455250D01*
X62299775Y-130540720D01*
X62366829Y-130554167D01*
X62294038Y-130584244D01*
X62090224Y-130787702D01*
X61979785Y-131053670D01*
X61979534Y-131341655D01*
X62089509Y-131607815D01*
X62292967Y-131811629D01*
X62558935Y-131922068D01*
X62846920Y-131922319D01*
X63113080Y-131812344D01*
X63316894Y-131608886D01*
X63338476Y-131556911D01*
X63359509Y-131607815D01*
X63562967Y-131811629D01*
X63828935Y-131922068D01*
X64116920Y-131922319D01*
X64383080Y-131812344D01*
X64527482Y-131668194D01*
X64631706Y-131668194D01*
X64811529Y-131632425D01*
X64963975Y-131530563D01*
X66994639Y-129499900D01*
X67600000Y-129499900D01*
X67779823Y-129464131D01*
X67932269Y-129362269D01*
X67946379Y-129348159D01*
X67930100Y-129430000D01*
G36*
X71504711Y-130503984D02*
X71504534Y-130706655D01*
X71614509Y-130972815D01*
X71817967Y-131176629D01*
X72083935Y-131287068D01*
X72371920Y-131287319D01*
X72638080Y-131177344D01*
X72718871Y-131096694D01*
X73233273Y-131096694D01*
X73022271Y-131138665D01*
X72618494Y-131408460D01*
X72348699Y-131812237D01*
X72253959Y-132288525D01*
X72253959Y-132648063D01*
X72320372Y-132981942D01*
X71398921Y-133903394D01*
X69688559Y-133903394D01*
X69508736Y-133939163D01*
X69356290Y-134041024D01*
X68888459Y-134508856D01*
X68888459Y-133872758D01*
X69282159Y-133872758D01*
X69427433Y-133844572D01*
X69555115Y-133760698D01*
X69640585Y-133634078D01*
X69670623Y-133484294D01*
X69670623Y-131452294D01*
X69642437Y-131307020D01*
X69558563Y-131179338D01*
X69431943Y-131093868D01*
X69282159Y-131063830D01*
X68580709Y-131063830D01*
X68732270Y-130912269D01*
X68834131Y-130759823D01*
X68834966Y-130755624D01*
X68863059Y-130761258D01*
X69498059Y-130761258D01*
X69643333Y-130733072D01*
X69771015Y-130649198D01*
X69856485Y-130522578D01*
X69881429Y-130398194D01*
X70463706Y-130398194D01*
X70643529Y-130362425D01*
X70665171Y-130347964D01*
X71194500Y-130347964D01*
X71323636Y-130322909D01*
X71504711Y-130503984D01*
X71504711Y-130503984D01*
G37*
X71504711Y-130503984D02*
X71504534Y-130706655D01*
X71614509Y-130972815D01*
X71817967Y-131176629D01*
X72083935Y-131287068D01*
X72371920Y-131287319D01*
X72638080Y-131177344D01*
X72718871Y-131096694D01*
X73233273Y-131096694D01*
X73022271Y-131138665D01*
X72618494Y-131408460D01*
X72348699Y-131812237D01*
X72253959Y-132288525D01*
X72253959Y-132648063D01*
X72320372Y-132981942D01*
X71398921Y-133903394D01*
X69688559Y-133903394D01*
X69508736Y-133939163D01*
X69356290Y-134041024D01*
X68888459Y-134508856D01*
X68888459Y-133872758D01*
X69282159Y-133872758D01*
X69427433Y-133844572D01*
X69555115Y-133760698D01*
X69640585Y-133634078D01*
X69670623Y-133484294D01*
X69670623Y-131452294D01*
X69642437Y-131307020D01*
X69558563Y-131179338D01*
X69431943Y-131093868D01*
X69282159Y-131063830D01*
X68580709Y-131063830D01*
X68732270Y-130912269D01*
X68834131Y-130759823D01*
X68834966Y-130755624D01*
X68863059Y-130761258D01*
X69498059Y-130761258D01*
X69643333Y-130733072D01*
X69771015Y-130649198D01*
X69856485Y-130522578D01*
X69881429Y-130398194D01*
X70463706Y-130398194D01*
X70643529Y-130362425D01*
X70665171Y-130347964D01*
X71194500Y-130347964D01*
X71323636Y-130322909D01*
X71504711Y-130503984D01*
G36*
X74343877Y-130940465D02*
X75285730Y-129998612D01*
X75401356Y-129825565D01*
X75428729Y-129687950D01*
X75456515Y-129669698D01*
X75541985Y-129543078D01*
X75572023Y-129393294D01*
X75572023Y-127893294D01*
X75543837Y-127748020D01*
X75543559Y-127747597D01*
X75543559Y-127703943D01*
X75584754Y-127686922D01*
X75650000Y-127699900D01*
X75904570Y-127699900D01*
X75875133Y-127743510D01*
X75845095Y-127893294D01*
X75845095Y-129393294D01*
X75873281Y-129538568D01*
X75957155Y-129666250D01*
X76038659Y-129721266D01*
X76038659Y-131033294D01*
X76040865Y-131044384D01*
X76038559Y-131043925D01*
X75562271Y-131138665D01*
X75158494Y-131408460D01*
X74888699Y-131812237D01*
X74793959Y-132288525D01*
X74793959Y-132648063D01*
X74860372Y-132981942D01*
X74508379Y-133333935D01*
X74648419Y-133124351D01*
X74743159Y-132648063D01*
X74743159Y-132288525D01*
X74648419Y-131812237D01*
X74378624Y-131408460D01*
X73974847Y-131138665D01*
X73763845Y-131096694D01*
X73966706Y-131096694D01*
X74170829Y-131056091D01*
X74343877Y-130940465D01*
X74343877Y-130940465D01*
G37*
X74343877Y-130940465D02*
X75285730Y-129998612D01*
X75401356Y-129825565D01*
X75428729Y-129687950D01*
X75456515Y-129669698D01*
X75541985Y-129543078D01*
X75572023Y-129393294D01*
X75572023Y-127893294D01*
X75543837Y-127748020D01*
X75543559Y-127747597D01*
X75543559Y-127703943D01*
X75584754Y-127686922D01*
X75650000Y-127699900D01*
X75904570Y-127699900D01*
X75875133Y-127743510D01*
X75845095Y-127893294D01*
X75845095Y-129393294D01*
X75873281Y-129538568D01*
X75957155Y-129666250D01*
X76038659Y-129721266D01*
X76038659Y-131033294D01*
X76040865Y-131044384D01*
X76038559Y-131043925D01*
X75562271Y-131138665D01*
X75158494Y-131408460D01*
X74888699Y-131812237D01*
X74793959Y-132288525D01*
X74793959Y-132648063D01*
X74860372Y-132981942D01*
X74508379Y-133333935D01*
X74648419Y-133124351D01*
X74743159Y-132648063D01*
X74743159Y-132288525D01*
X74648419Y-131812237D01*
X74378624Y-131408460D01*
X73974847Y-131138665D01*
X73763845Y-131096694D01*
X73966706Y-131096694D01*
X74170829Y-131056091D01*
X74343877Y-130940465D01*
G36*
X79868559Y-131971758D02*
X80902463Y-131971758D01*
X80880095Y-132083294D01*
X80880095Y-133268394D01*
X78138198Y-133268394D01*
X77778459Y-132908656D01*
X77778459Y-132270354D01*
X77943559Y-132303194D01*
X79213559Y-132303194D01*
X79393382Y-132267425D01*
X79545828Y-132165563D01*
X79761169Y-131950222D01*
X79868559Y-131971758D01*
X79868559Y-131971758D01*
G37*
X79868559Y-131971758D02*
X80902463Y-131971758D01*
X80880095Y-132083294D01*
X80880095Y-133268394D01*
X78138198Y-133268394D01*
X77778459Y-132908656D01*
X77778459Y-132270354D01*
X77943559Y-132303194D01*
X79213559Y-132303194D01*
X79393382Y-132267425D01*
X79545828Y-132165563D01*
X79761169Y-131950222D01*
X79868559Y-131971758D01*
G36*
X82817730Y-130662269D02*
X82954707Y-130753794D01*
X82970177Y-130764131D01*
X83150000Y-130799900D01*
X84155362Y-130799900D01*
X84730595Y-131375133D01*
X84730595Y-131388794D01*
X84758781Y-131534068D01*
X84842655Y-131661750D01*
X84969275Y-131747220D01*
X85119059Y-131777258D01*
X85826102Y-131777258D01*
X85826005Y-131889330D01*
X85119059Y-131889330D01*
X84973785Y-131917516D01*
X84846103Y-132001390D01*
X84760633Y-132128010D01*
X84730595Y-132277794D01*
X84730595Y-132763719D01*
X84468947Y-133025367D01*
X84491523Y-132912794D01*
X84491523Y-132277794D01*
X84463337Y-132132520D01*
X84379463Y-132004838D01*
X84252843Y-131919368D01*
X84103059Y-131889330D01*
X83214059Y-131889330D01*
X83068785Y-131917516D01*
X82941103Y-132001390D01*
X82857399Y-132125394D01*
X82757023Y-132125394D01*
X82757023Y-132083294D01*
X82728837Y-131938020D01*
X82644963Y-131810338D01*
X82518343Y-131724868D01*
X82368559Y-131694830D01*
X81334655Y-131694830D01*
X81357023Y-131583294D01*
X81357023Y-130398194D01*
X82553656Y-130398194D01*
X82817730Y-130662269D01*
X82817730Y-130662269D01*
G37*
X82817730Y-130662269D02*
X82954707Y-130753794D01*
X82970177Y-130764131D01*
X83150000Y-130799900D01*
X84155362Y-130799900D01*
X84730595Y-131375133D01*
X84730595Y-131388794D01*
X84758781Y-131534068D01*
X84842655Y-131661750D01*
X84969275Y-131747220D01*
X85119059Y-131777258D01*
X85826102Y-131777258D01*
X85826005Y-131889330D01*
X85119059Y-131889330D01*
X84973785Y-131917516D01*
X84846103Y-132001390D01*
X84760633Y-132128010D01*
X84730595Y-132277794D01*
X84730595Y-132763719D01*
X84468947Y-133025367D01*
X84491523Y-132912794D01*
X84491523Y-132277794D01*
X84463337Y-132132520D01*
X84379463Y-132004838D01*
X84252843Y-131919368D01*
X84103059Y-131889330D01*
X83214059Y-131889330D01*
X83068785Y-131917516D01*
X82941103Y-132001390D01*
X82857399Y-132125394D01*
X82757023Y-132125394D01*
X82757023Y-132083294D01*
X82728837Y-131938020D01*
X82644963Y-131810338D01*
X82518343Y-131724868D01*
X82368559Y-131694830D01*
X81334655Y-131694830D01*
X81357023Y-131583294D01*
X81357023Y-130398194D01*
X82553656Y-130398194D01*
X82817730Y-130662269D01*
G36*
X92086031Y-126556304D02*
X92086033Y-126556306D01*
X92241401Y-126620661D01*
X92337071Y-126639691D01*
X92373000Y-126639691D01*
X92373000Y-127791798D01*
X92349583Y-127797104D01*
X92301557Y-127799652D01*
X92207028Y-127823723D01*
X92207027Y-127823723D01*
X92055287Y-127896217D01*
X91977166Y-127954630D01*
X91924564Y-128013125D01*
X91864720Y-128079673D01*
X91814901Y-128163533D01*
X91814899Y-128163535D01*
X91758863Y-128322093D01*
X91744927Y-128418639D01*
X91748168Y-128479743D01*
X91744791Y-128540838D01*
X92072233Y-130845616D01*
X91999463Y-130734838D01*
X91872843Y-130649368D01*
X91723059Y-130619330D01*
X90834059Y-130619330D01*
X90688785Y-130647516D01*
X90623664Y-130690294D01*
X89608320Y-130690294D01*
X88682523Y-129764497D01*
X88682523Y-129102794D01*
X88654337Y-128957520D01*
X88611559Y-128892399D01*
X88611559Y-128006559D01*
X88563223Y-127763555D01*
X88513464Y-127689085D01*
X88513464Y-127391490D01*
X88986536Y-127864562D01*
X88986536Y-128360000D01*
X89014722Y-128505274D01*
X89098596Y-128632956D01*
X89225216Y-128718426D01*
X89375000Y-128748464D01*
X90025000Y-128748464D01*
X90170274Y-128720278D01*
X90297956Y-128636404D01*
X90383426Y-128509784D01*
X90413464Y-128360000D01*
X90413464Y-127300000D01*
X90385278Y-127154726D01*
X90301404Y-127027044D01*
X90174784Y-126941574D01*
X90025000Y-126911536D01*
X89829562Y-126911536D01*
X89466490Y-126548464D01*
X90025000Y-126548464D01*
X90170274Y-126520278D01*
X90297956Y-126436404D01*
X90383426Y-126309784D01*
X90413464Y-126160000D01*
X90413464Y-125100000D01*
X90385278Y-124954726D01*
X90335000Y-124878187D01*
X90335000Y-124158735D01*
X90315803Y-124062223D01*
X90445595Y-123932431D01*
X90445595Y-124276794D01*
X90473781Y-124422068D01*
X90557655Y-124549750D01*
X90684275Y-124635220D01*
X90834059Y-124665258D01*
X91723059Y-124665258D01*
X91868333Y-124637072D01*
X91996015Y-124553198D01*
X92081485Y-124426578D01*
X92111523Y-124276794D01*
X92111523Y-123641794D01*
X92083337Y-123496520D01*
X91999463Y-123368838D01*
X91910594Y-123308851D01*
X92002333Y-123087918D01*
X92002584Y-122799933D01*
X91892609Y-122533773D01*
X91689151Y-122329959D01*
X91423183Y-122219520D01*
X91135198Y-122219269D01*
X90919741Y-122308294D01*
X90536706Y-122308294D01*
X90293702Y-122356630D01*
X90087693Y-122494281D01*
X89970459Y-122611515D01*
X89970459Y-122435294D01*
X89934690Y-122255471D01*
X89910668Y-122219520D01*
X89832829Y-122103025D01*
X89070828Y-121341025D01*
X88918382Y-121239163D01*
X88738559Y-121203394D01*
X87026595Y-121203394D01*
X87003337Y-121083520D01*
X86919463Y-120955838D01*
X86792843Y-120870368D01*
X86643059Y-120840330D01*
X86426062Y-120840330D01*
X86657829Y-120608563D01*
X86665637Y-120596877D01*
X86788333Y-120573072D01*
X86916015Y-120489198D01*
X87001485Y-120362578D01*
X87031523Y-120212794D01*
X87031523Y-119360796D01*
X87270595Y-119599869D01*
X87270595Y-120212794D01*
X87298781Y-120358068D01*
X87382655Y-120485750D01*
X87509275Y-120571220D01*
X87659059Y-120601258D01*
X88294059Y-120601258D01*
X88439333Y-120573072D01*
X88567015Y-120489198D01*
X88652485Y-120362578D01*
X88682523Y-120212794D01*
X88682523Y-119323794D01*
X88654337Y-119178520D01*
X88570463Y-119050838D01*
X88443843Y-118965368D01*
X88294059Y-118935330D01*
X87935134Y-118935330D01*
X87165828Y-118166025D01*
X87013382Y-118064163D01*
X86833559Y-118028394D01*
X86752773Y-118028394D01*
X86817456Y-117985904D01*
X86902926Y-117859284D01*
X86932964Y-117709500D01*
X86932964Y-117074500D01*
X86904778Y-116929226D01*
X86820904Y-116801544D01*
X86694284Y-116716074D01*
X86544500Y-116686036D01*
X85655500Y-116686036D01*
X85510226Y-116714222D01*
X85382544Y-116798096D01*
X85297074Y-116924716D01*
X85267036Y-117074500D01*
X85267036Y-117709500D01*
X85295222Y-117854774D01*
X85379096Y-117982456D01*
X85505716Y-118067926D01*
X85588420Y-118084512D01*
X85585224Y-118087702D01*
X85474785Y-118353670D01*
X85474534Y-118641655D01*
X85584509Y-118907815D01*
X85730559Y-119054121D01*
X85649633Y-119174010D01*
X85619595Y-119323794D01*
X85619595Y-120212794D01*
X85636645Y-120300670D01*
X85231290Y-120706025D01*
X85138892Y-120844307D01*
X85119059Y-120840330D01*
X84484059Y-120840330D01*
X84338785Y-120868516D01*
X84211103Y-120952390D01*
X84143862Y-121052004D01*
X84122370Y-120941228D01*
X84147023Y-120818294D01*
X84147023Y-120268294D01*
X84122370Y-120141228D01*
X84147023Y-120018294D01*
X84147023Y-119468294D01*
X84122370Y-119341228D01*
X84147023Y-119218294D01*
X84147023Y-118668294D01*
X84118837Y-118523020D01*
X84034963Y-118395338D01*
X83908343Y-118309868D01*
X83758559Y-118279830D01*
X82258559Y-118279830D01*
X82113285Y-118308016D01*
X81985603Y-118391890D01*
X81921883Y-118486288D01*
X81841959Y-118502186D01*
X81841959Y-118279260D01*
X81856515Y-118269698D01*
X81941985Y-118143078D01*
X81972023Y-117993294D01*
X81972023Y-117971689D01*
X81979096Y-117982456D01*
X82105716Y-118067926D01*
X82255500Y-118097964D01*
X83144500Y-118097964D01*
X83289774Y-118069778D01*
X83417456Y-117985904D01*
X83502926Y-117859284D01*
X83532964Y-117709500D01*
X83532964Y-117074500D01*
X83567036Y-117074500D01*
X83567036Y-117709500D01*
X83595222Y-117854774D01*
X83679096Y-117982456D01*
X83805716Y-118067926D01*
X83955500Y-118097964D01*
X84844500Y-118097964D01*
X84989774Y-118069778D01*
X85117456Y-117985904D01*
X85202926Y-117859284D01*
X85232964Y-117709500D01*
X85232964Y-117074500D01*
X85204778Y-116929226D01*
X85120904Y-116801544D01*
X84994284Y-116716074D01*
X84844500Y-116686036D01*
X84736829Y-116686036D01*
X84544624Y-116606226D01*
X84256639Y-116605975D01*
X84062876Y-116686036D01*
X83955500Y-116686036D01*
X83810226Y-116714222D01*
X83682544Y-116798096D01*
X83597074Y-116924716D01*
X83567036Y-117074500D01*
X83532964Y-117074500D01*
X83532964Y-117074500D01*
X83504778Y-116929226D01*
X83420904Y-116801544D01*
X83294284Y-116716074D01*
X83144500Y-116686036D01*
X82255500Y-116686036D01*
X82110226Y-116714222D01*
X81982544Y-116798096D01*
X81972023Y-116813682D01*
X81972023Y-116493294D01*
X81943837Y-116348020D01*
X81859963Y-116220338D01*
X81841959Y-116208185D01*
X81841959Y-115218464D01*
X82450000Y-115218464D01*
X82595274Y-115190278D01*
X82716263Y-115110801D01*
X83567036Y-115961575D01*
X83567036Y-116185500D01*
X83595222Y-116330774D01*
X83679096Y-116458456D01*
X83805716Y-116543926D01*
X83955500Y-116573964D01*
X84844500Y-116573964D01*
X84989774Y-116545778D01*
X85117456Y-116461904D01*
X85202926Y-116335284D01*
X85232964Y-116185500D01*
X85232964Y-115550500D01*
X85204778Y-115405226D01*
X85193463Y-115388001D01*
X85281890Y-115476428D01*
X85267036Y-115550500D01*
X85267036Y-116185500D01*
X85295222Y-116330774D01*
X85379096Y-116458456D01*
X85505716Y-116543926D01*
X85655500Y-116573964D01*
X86544500Y-116573964D01*
X86689774Y-116545778D01*
X86817456Y-116461904D01*
X86902926Y-116335284D01*
X86932964Y-116185500D01*
X86932964Y-115666674D01*
X87100000Y-115699900D01*
X87249202Y-115699900D01*
X87232036Y-115785500D01*
X87232036Y-115998779D01*
X87190479Y-116015950D01*
X86986665Y-116219408D01*
X86876226Y-116485376D01*
X86875975Y-116773361D01*
X86985950Y-117039521D01*
X87189408Y-117243335D01*
X87455376Y-117353774D01*
X87743361Y-117354025D01*
X88009521Y-117244050D01*
X88190924Y-117062964D01*
X88255500Y-117062964D01*
X88400774Y-117034778D01*
X88528456Y-116950904D01*
X88613926Y-116824284D01*
X88643964Y-116674500D01*
X88643964Y-115785500D01*
X88627356Y-115699900D01*
X88773202Y-115699900D01*
X88756036Y-115785500D01*
X88756036Y-116674500D01*
X88784222Y-116819774D01*
X88868096Y-116947456D01*
X88994716Y-117032926D01*
X89080751Y-117050180D01*
X89037785Y-117058516D01*
X88910103Y-117142390D01*
X88824633Y-117269010D01*
X88794595Y-117418794D01*
X88794595Y-118307794D01*
X88822781Y-118453068D01*
X88906655Y-118580750D01*
X89030659Y-118664454D01*
X89030659Y-118968197D01*
X88910103Y-119047390D01*
X88824633Y-119174010D01*
X88794595Y-119323794D01*
X88794595Y-120212794D01*
X88822781Y-120358068D01*
X88906655Y-120485750D01*
X89033275Y-120571220D01*
X89183059Y-120601258D01*
X89818059Y-120601258D01*
X89963333Y-120573072D01*
X90091015Y-120489198D01*
X90176485Y-120362578D01*
X90206523Y-120212794D01*
X90206523Y-119323794D01*
X90178337Y-119178520D01*
X90094463Y-119050838D01*
X89970459Y-118967134D01*
X89970459Y-118663391D01*
X90091015Y-118584198D01*
X90176485Y-118457578D01*
X90206523Y-118307794D01*
X90206523Y-118254727D01*
X90295068Y-118195563D01*
X90788824Y-117701808D01*
X91312849Y-117701808D01*
X91458123Y-117673622D01*
X91585805Y-117589748D01*
X91671275Y-117463128D01*
X91701313Y-117313344D01*
X91701313Y-116513244D01*
X91673127Y-116367970D01*
X91589253Y-116240288D01*
X91462633Y-116154818D01*
X91312849Y-116124780D01*
X90512749Y-116124780D01*
X90367475Y-116152966D01*
X90239793Y-116236840D01*
X90167964Y-116343251D01*
X90167964Y-115785500D01*
X90139778Y-115640226D01*
X90055904Y-115512544D01*
X89929284Y-115427074D01*
X89897840Y-115420768D01*
X89896131Y-115412177D01*
X89863947Y-115364010D01*
X89794269Y-115259730D01*
X89739833Y-115205294D01*
X91969068Y-115205294D01*
X92149779Y-115386005D01*
X92149779Y-117331032D01*
X92123265Y-117463244D01*
X92123265Y-118263344D01*
X92151451Y-118408618D01*
X92235325Y-118536300D01*
X92361945Y-118621770D01*
X92373000Y-118623987D01*
X92373000Y-123415841D01*
X91753835Y-125847374D01*
X91752467Y-125873157D01*
X91748437Y-125882887D01*
X91748437Y-125907978D01*
X91740657Y-125942309D01*
X91740306Y-125955552D01*
X91746256Y-125990247D01*
X91744927Y-126015306D01*
X91748436Y-126025235D01*
X91748436Y-126051055D01*
X91767466Y-126146726D01*
X91812718Y-126255975D01*
X91831821Y-126302093D01*
X91886014Y-126383199D01*
X92004928Y-126502113D01*
X92086031Y-126556304D01*
X92086031Y-126556304D01*
G37*
X92086031Y-126556304D02*
X92086033Y-126556306D01*
X92241401Y-126620661D01*
X92337071Y-126639691D01*
X92373000Y-126639691D01*
X92373000Y-127791798D01*
X92349583Y-127797104D01*
X92301557Y-127799652D01*
X92207028Y-127823723D01*
X92207027Y-127823723D01*
X92055287Y-127896217D01*
X91977166Y-127954630D01*
X91924564Y-128013125D01*
X91864720Y-128079673D01*
X91814901Y-128163533D01*
X91814899Y-128163535D01*
X91758863Y-128322093D01*
X91744927Y-128418639D01*
X91748168Y-128479743D01*
X91744791Y-128540838D01*
X92072233Y-130845616D01*
X91999463Y-130734838D01*
X91872843Y-130649368D01*
X91723059Y-130619330D01*
X90834059Y-130619330D01*
X90688785Y-130647516D01*
X90623664Y-130690294D01*
X89608320Y-130690294D01*
X88682523Y-129764497D01*
X88682523Y-129102794D01*
X88654337Y-128957520D01*
X88611559Y-128892399D01*
X88611559Y-128006559D01*
X88563223Y-127763555D01*
X88513464Y-127689085D01*
X88513464Y-127391490D01*
X88986536Y-127864562D01*
X88986536Y-128360000D01*
X89014722Y-128505274D01*
X89098596Y-128632956D01*
X89225216Y-128718426D01*
X89375000Y-128748464D01*
X90025000Y-128748464D01*
X90170274Y-128720278D01*
X90297956Y-128636404D01*
X90383426Y-128509784D01*
X90413464Y-128360000D01*
X90413464Y-127300000D01*
X90385278Y-127154726D01*
X90301404Y-127027044D01*
X90174784Y-126941574D01*
X90025000Y-126911536D01*
X89829562Y-126911536D01*
X89466490Y-126548464D01*
X90025000Y-126548464D01*
X90170274Y-126520278D01*
X90297956Y-126436404D01*
X90383426Y-126309784D01*
X90413464Y-126160000D01*
X90413464Y-125100000D01*
X90385278Y-124954726D01*
X90335000Y-124878187D01*
X90335000Y-124158735D01*
X90315803Y-124062223D01*
X90445595Y-123932431D01*
X90445595Y-124276794D01*
X90473781Y-124422068D01*
X90557655Y-124549750D01*
X90684275Y-124635220D01*
X90834059Y-124665258D01*
X91723059Y-124665258D01*
X91868333Y-124637072D01*
X91996015Y-124553198D01*
X92081485Y-124426578D01*
X92111523Y-124276794D01*
X92111523Y-123641794D01*
X92083337Y-123496520D01*
X91999463Y-123368838D01*
X91910594Y-123308851D01*
X92002333Y-123087918D01*
X92002584Y-122799933D01*
X91892609Y-122533773D01*
X91689151Y-122329959D01*
X91423183Y-122219520D01*
X91135198Y-122219269D01*
X90919741Y-122308294D01*
X90536706Y-122308294D01*
X90293702Y-122356630D01*
X90087693Y-122494281D01*
X89970459Y-122611515D01*
X89970459Y-122435294D01*
X89934690Y-122255471D01*
X89910668Y-122219520D01*
X89832829Y-122103025D01*
X89070828Y-121341025D01*
X88918382Y-121239163D01*
X88738559Y-121203394D01*
X87026595Y-121203394D01*
X87003337Y-121083520D01*
X86919463Y-120955838D01*
X86792843Y-120870368D01*
X86643059Y-120840330D01*
X86426062Y-120840330D01*
X86657829Y-120608563D01*
X86665637Y-120596877D01*
X86788333Y-120573072D01*
X86916015Y-120489198D01*
X87001485Y-120362578D01*
X87031523Y-120212794D01*
X87031523Y-119360796D01*
X87270595Y-119599869D01*
X87270595Y-120212794D01*
X87298781Y-120358068D01*
X87382655Y-120485750D01*
X87509275Y-120571220D01*
X87659059Y-120601258D01*
X88294059Y-120601258D01*
X88439333Y-120573072D01*
X88567015Y-120489198D01*
X88652485Y-120362578D01*
X88682523Y-120212794D01*
X88682523Y-119323794D01*
X88654337Y-119178520D01*
X88570463Y-119050838D01*
X88443843Y-118965368D01*
X88294059Y-118935330D01*
X87935134Y-118935330D01*
X87165828Y-118166025D01*
X87013382Y-118064163D01*
X86833559Y-118028394D01*
X86752773Y-118028394D01*
X86817456Y-117985904D01*
X86902926Y-117859284D01*
X86932964Y-117709500D01*
X86932964Y-117074500D01*
X86904778Y-116929226D01*
X86820904Y-116801544D01*
X86694284Y-116716074D01*
X86544500Y-116686036D01*
X85655500Y-116686036D01*
X85510226Y-116714222D01*
X85382544Y-116798096D01*
X85297074Y-116924716D01*
X85267036Y-117074500D01*
X85267036Y-117709500D01*
X85295222Y-117854774D01*
X85379096Y-117982456D01*
X85505716Y-118067926D01*
X85588420Y-118084512D01*
X85585224Y-118087702D01*
X85474785Y-118353670D01*
X85474534Y-118641655D01*
X85584509Y-118907815D01*
X85730559Y-119054121D01*
X85649633Y-119174010D01*
X85619595Y-119323794D01*
X85619595Y-120212794D01*
X85636645Y-120300670D01*
X85231290Y-120706025D01*
X85138892Y-120844307D01*
X85119059Y-120840330D01*
X84484059Y-120840330D01*
X84338785Y-120868516D01*
X84211103Y-120952390D01*
X84143862Y-121052004D01*
X84122370Y-120941228D01*
X84147023Y-120818294D01*
X84147023Y-120268294D01*
X84122370Y-120141228D01*
X84147023Y-120018294D01*
X84147023Y-119468294D01*
X84122370Y-119341228D01*
X84147023Y-119218294D01*
X84147023Y-118668294D01*
X84118837Y-118523020D01*
X84034963Y-118395338D01*
X83908343Y-118309868D01*
X83758559Y-118279830D01*
X82258559Y-118279830D01*
X82113285Y-118308016D01*
X81985603Y-118391890D01*
X81921883Y-118486288D01*
X81841959Y-118502186D01*
X81841959Y-118279260D01*
X81856515Y-118269698D01*
X81941985Y-118143078D01*
X81972023Y-117993294D01*
X81972023Y-117971689D01*
X81979096Y-117982456D01*
X82105716Y-118067926D01*
X82255500Y-118097964D01*
X83144500Y-118097964D01*
X83289774Y-118069778D01*
X83417456Y-117985904D01*
X83502926Y-117859284D01*
X83532964Y-117709500D01*
X83532964Y-117074500D01*
X83567036Y-117074500D01*
X83567036Y-117709500D01*
X83595222Y-117854774D01*
X83679096Y-117982456D01*
X83805716Y-118067926D01*
X83955500Y-118097964D01*
X84844500Y-118097964D01*
X84989774Y-118069778D01*
X85117456Y-117985904D01*
X85202926Y-117859284D01*
X85232964Y-117709500D01*
X85232964Y-117074500D01*
X85204778Y-116929226D01*
X85120904Y-116801544D01*
X84994284Y-116716074D01*
X84844500Y-116686036D01*
X84736829Y-116686036D01*
X84544624Y-116606226D01*
X84256639Y-116605975D01*
X84062876Y-116686036D01*
X83955500Y-116686036D01*
X83810226Y-116714222D01*
X83682544Y-116798096D01*
X83597074Y-116924716D01*
X83567036Y-117074500D01*
X83532964Y-117074500D01*
X83532964Y-117074500D01*
X83504778Y-116929226D01*
X83420904Y-116801544D01*
X83294284Y-116716074D01*
X83144500Y-116686036D01*
X82255500Y-116686036D01*
X82110226Y-116714222D01*
X81982544Y-116798096D01*
X81972023Y-116813682D01*
X81972023Y-116493294D01*
X81943837Y-116348020D01*
X81859963Y-116220338D01*
X81841959Y-116208185D01*
X81841959Y-115218464D01*
X82450000Y-115218464D01*
X82595274Y-115190278D01*
X82716263Y-115110801D01*
X83567036Y-115961575D01*
X83567036Y-116185500D01*
X83595222Y-116330774D01*
X83679096Y-116458456D01*
X83805716Y-116543926D01*
X83955500Y-116573964D01*
X84844500Y-116573964D01*
X84989774Y-116545778D01*
X85117456Y-116461904D01*
X85202926Y-116335284D01*
X85232964Y-116185500D01*
X85232964Y-115550500D01*
X85204778Y-115405226D01*
X85193463Y-115388001D01*
X85281890Y-115476428D01*
X85267036Y-115550500D01*
X85267036Y-116185500D01*
X85295222Y-116330774D01*
X85379096Y-116458456D01*
X85505716Y-116543926D01*
X85655500Y-116573964D01*
X86544500Y-116573964D01*
X86689774Y-116545778D01*
X86817456Y-116461904D01*
X86902926Y-116335284D01*
X86932964Y-116185500D01*
X86932964Y-115666674D01*
X87100000Y-115699900D01*
X87249202Y-115699900D01*
X87232036Y-115785500D01*
X87232036Y-115998779D01*
X87190479Y-116015950D01*
X86986665Y-116219408D01*
X86876226Y-116485376D01*
X86875975Y-116773361D01*
X86985950Y-117039521D01*
X87189408Y-117243335D01*
X87455376Y-117353774D01*
X87743361Y-117354025D01*
X88009521Y-117244050D01*
X88190924Y-117062964D01*
X88255500Y-117062964D01*
X88400774Y-117034778D01*
X88528456Y-116950904D01*
X88613926Y-116824284D01*
X88643964Y-116674500D01*
X88643964Y-115785500D01*
X88627356Y-115699900D01*
X88773202Y-115699900D01*
X88756036Y-115785500D01*
X88756036Y-116674500D01*
X88784222Y-116819774D01*
X88868096Y-116947456D01*
X88994716Y-117032926D01*
X89080751Y-117050180D01*
X89037785Y-117058516D01*
X88910103Y-117142390D01*
X88824633Y-117269010D01*
X88794595Y-117418794D01*
X88794595Y-118307794D01*
X88822781Y-118453068D01*
X88906655Y-118580750D01*
X89030659Y-118664454D01*
X89030659Y-118968197D01*
X88910103Y-119047390D01*
X88824633Y-119174010D01*
X88794595Y-119323794D01*
X88794595Y-120212794D01*
X88822781Y-120358068D01*
X88906655Y-120485750D01*
X89033275Y-120571220D01*
X89183059Y-120601258D01*
X89818059Y-120601258D01*
X89963333Y-120573072D01*
X90091015Y-120489198D01*
X90176485Y-120362578D01*
X90206523Y-120212794D01*
X90206523Y-119323794D01*
X90178337Y-119178520D01*
X90094463Y-119050838D01*
X89970459Y-118967134D01*
X89970459Y-118663391D01*
X90091015Y-118584198D01*
X90176485Y-118457578D01*
X90206523Y-118307794D01*
X90206523Y-118254727D01*
X90295068Y-118195563D01*
X90788824Y-117701808D01*
X91312849Y-117701808D01*
X91458123Y-117673622D01*
X91585805Y-117589748D01*
X91671275Y-117463128D01*
X91701313Y-117313344D01*
X91701313Y-116513244D01*
X91673127Y-116367970D01*
X91589253Y-116240288D01*
X91462633Y-116154818D01*
X91312849Y-116124780D01*
X90512749Y-116124780D01*
X90367475Y-116152966D01*
X90239793Y-116236840D01*
X90167964Y-116343251D01*
X90167964Y-115785500D01*
X90139778Y-115640226D01*
X90055904Y-115512544D01*
X89929284Y-115427074D01*
X89897840Y-115420768D01*
X89896131Y-115412177D01*
X89863947Y-115364010D01*
X89794269Y-115259730D01*
X89739833Y-115205294D01*
X91969068Y-115205294D01*
X92149779Y-115386005D01*
X92149779Y-117331032D01*
X92123265Y-117463244D01*
X92123265Y-118263344D01*
X92151451Y-118408618D01*
X92235325Y-118536300D01*
X92361945Y-118621770D01*
X92373000Y-118623987D01*
X92373000Y-123415841D01*
X91753835Y-125847374D01*
X91752467Y-125873157D01*
X91748437Y-125882887D01*
X91748437Y-125907978D01*
X91740657Y-125942309D01*
X91740306Y-125955552D01*
X91746256Y-125990247D01*
X91744927Y-126015306D01*
X91748436Y-126025235D01*
X91748436Y-126051055D01*
X91767466Y-126146726D01*
X91812718Y-126255975D01*
X91831821Y-126302093D01*
X91886014Y-126383199D01*
X92004928Y-126502113D01*
X92086031Y-126556304D01*
G36*
X81314281Y-126592307D02*
X81520290Y-126729958D01*
X81763294Y-126778295D01*
X81763299Y-126778294D01*
X82116624Y-126778294D01*
X82258559Y-126806758D01*
X83758559Y-126806758D01*
X83903833Y-126778572D01*
X83904256Y-126778294D01*
X84055533Y-126778294D01*
X84420559Y-127143320D01*
X84420559Y-128003380D01*
X84379633Y-128064010D01*
X84349595Y-128213794D01*
X84349595Y-129102794D01*
X84370414Y-129210100D01*
X83244638Y-129210100D01*
X83132269Y-129097731D01*
X82979823Y-128995869D01*
X82800000Y-128960100D01*
X82644639Y-128960100D01*
X81995563Y-128311025D01*
X81972023Y-128295296D01*
X81972023Y-127893294D01*
X81943837Y-127748020D01*
X81859963Y-127620338D01*
X81733343Y-127534868D01*
X81583559Y-127504830D01*
X81033559Y-127504830D01*
X80906493Y-127529483D01*
X80783559Y-127504830D01*
X80233559Y-127504830D01*
X80178459Y-127515520D01*
X80178459Y-127388559D01*
X80142690Y-127208736D01*
X80111642Y-127162270D01*
X80040828Y-127056289D01*
X78982269Y-125997731D01*
X78829823Y-125895869D01*
X78823936Y-125894698D01*
X78650000Y-125860100D01*
X78444638Y-125860100D01*
X78432269Y-125847731D01*
X78279823Y-125745869D01*
X78229488Y-125735857D01*
X78060592Y-125566665D01*
X77794624Y-125456226D01*
X77506639Y-125455975D01*
X77240479Y-125565950D01*
X77150021Y-125656250D01*
X77060592Y-125566665D01*
X76794624Y-125456226D01*
X76671907Y-125456119D01*
X76988026Y-125140000D01*
X79861974Y-125140000D01*
X81314281Y-126592307D01*
X81314281Y-126592307D01*
G37*
X81314281Y-126592307D02*
X81520290Y-126729958D01*
X81763294Y-126778295D01*
X81763299Y-126778294D01*
X82116624Y-126778294D01*
X82258559Y-126806758D01*
X83758559Y-126806758D01*
X83903833Y-126778572D01*
X83904256Y-126778294D01*
X84055533Y-126778294D01*
X84420559Y-127143320D01*
X84420559Y-128003380D01*
X84379633Y-128064010D01*
X84349595Y-128213794D01*
X84349595Y-129102794D01*
X84370414Y-129210100D01*
X83244638Y-129210100D01*
X83132269Y-129097731D01*
X82979823Y-128995869D01*
X82800000Y-128960100D01*
X82644639Y-128960100D01*
X81995563Y-128311025D01*
X81972023Y-128295296D01*
X81972023Y-127893294D01*
X81943837Y-127748020D01*
X81859963Y-127620338D01*
X81733343Y-127534868D01*
X81583559Y-127504830D01*
X81033559Y-127504830D01*
X80906493Y-127529483D01*
X80783559Y-127504830D01*
X80233559Y-127504830D01*
X80178459Y-127515520D01*
X80178459Y-127388559D01*
X80142690Y-127208736D01*
X80111642Y-127162270D01*
X80040828Y-127056289D01*
X78982269Y-125997731D01*
X78829823Y-125895869D01*
X78823936Y-125894698D01*
X78650000Y-125860100D01*
X78444638Y-125860100D01*
X78432269Y-125847731D01*
X78279823Y-125745869D01*
X78229488Y-125735857D01*
X78060592Y-125566665D01*
X77794624Y-125456226D01*
X77506639Y-125455975D01*
X77240479Y-125565950D01*
X77150021Y-125656250D01*
X77060592Y-125566665D01*
X76794624Y-125456226D01*
X76671907Y-125456119D01*
X76988026Y-125140000D01*
X79861974Y-125140000D01*
X81314281Y-126592307D01*
G36*
X69917036Y-128111574D02*
X69917036Y-128435500D01*
X69921809Y-128460100D01*
X68900000Y-128460100D01*
X68818160Y-128476379D01*
X69294639Y-127999900D01*
X69805362Y-127999900D01*
X69917036Y-128111574D01*
X69917036Y-128111574D01*
G37*
X69917036Y-128111574D02*
X69917036Y-128435500D01*
X69921809Y-128460100D01*
X68900000Y-128460100D01*
X68818160Y-128476379D01*
X69294639Y-127999900D01*
X69805362Y-127999900D01*
X69917036Y-128111574D01*
G36*
X88513464Y-125199900D02*
X88986536Y-125199900D01*
X88986536Y-126142049D01*
X88750000Y-126095000D01*
X88513464Y-126095000D01*
X88513464Y-125199900D01*
X88513464Y-125199900D01*
G37*
X88513464Y-125199900D02*
X88986536Y-125199900D01*
X88986536Y-126142049D01*
X88750000Y-126095000D01*
X88513464Y-126095000D01*
X88513464Y-125199900D01*
G36*
X66530100Y-123235361D02*
X64604197Y-125161265D01*
X64616023Y-125102294D01*
X64616023Y-124378515D01*
X66432269Y-122562270D01*
X66530100Y-122415856D01*
X66530100Y-123235361D01*
X66530100Y-123235361D01*
G37*
X66530100Y-123235361D02*
X64604197Y-125161265D01*
X64616023Y-125102294D01*
X64616023Y-124378515D01*
X66432269Y-122562270D01*
X66530100Y-122415856D01*
X66530100Y-123235361D01*
G36*
X70582155Y-121891250D02*
X70708775Y-121976720D01*
X70858559Y-122006758D01*
X72330159Y-122006758D01*
X72330159Y-122279830D01*
X70858559Y-122279830D01*
X70713285Y-122308016D01*
X70585603Y-122391890D01*
X70530587Y-122473394D01*
X70295876Y-122473394D01*
X70255904Y-122412544D01*
X70129284Y-122327074D01*
X69979500Y-122297036D01*
X69344500Y-122297036D01*
X69199226Y-122325222D01*
X69071544Y-122409096D01*
X68986074Y-122535716D01*
X68956036Y-122685500D01*
X68956036Y-123574500D01*
X68984222Y-123719774D01*
X69068096Y-123847456D01*
X69194716Y-123932926D01*
X69344500Y-123962964D01*
X69979500Y-123962964D01*
X70124774Y-123934778D01*
X70252456Y-123850904D01*
X70337926Y-123724284D01*
X70367964Y-123574500D01*
X70367964Y-123413194D01*
X70481145Y-123413194D01*
X70470095Y-123468294D01*
X70470095Y-124018294D01*
X70480785Y-124073394D01*
X68335914Y-124073394D01*
X68314050Y-124020479D01*
X68110592Y-123816665D01*
X67853966Y-123710105D01*
X67869900Y-123630000D01*
X67869900Y-122724638D01*
X68594639Y-121999900D01*
X69700000Y-121999900D01*
X69879823Y-121964131D01*
X70032269Y-121862269D01*
X70081344Y-121813194D01*
X70530880Y-121813194D01*
X70582155Y-121891250D01*
X70582155Y-121891250D01*
G37*
X70582155Y-121891250D02*
X70708775Y-121976720D01*
X70858559Y-122006758D01*
X72330159Y-122006758D01*
X72330159Y-122279830D01*
X70858559Y-122279830D01*
X70713285Y-122308016D01*
X70585603Y-122391890D01*
X70530587Y-122473394D01*
X70295876Y-122473394D01*
X70255904Y-122412544D01*
X70129284Y-122327074D01*
X69979500Y-122297036D01*
X69344500Y-122297036D01*
X69199226Y-122325222D01*
X69071544Y-122409096D01*
X68986074Y-122535716D01*
X68956036Y-122685500D01*
X68956036Y-123574500D01*
X68984222Y-123719774D01*
X69068096Y-123847456D01*
X69194716Y-123932926D01*
X69344500Y-123962964D01*
X69979500Y-123962964D01*
X70124774Y-123934778D01*
X70252456Y-123850904D01*
X70337926Y-123724284D01*
X70367964Y-123574500D01*
X70367964Y-123413194D01*
X70481145Y-123413194D01*
X70470095Y-123468294D01*
X70470095Y-124018294D01*
X70480785Y-124073394D01*
X68335914Y-124073394D01*
X68314050Y-124020479D01*
X68110592Y-123816665D01*
X67853966Y-123710105D01*
X67869900Y-123630000D01*
X67869900Y-122724638D01*
X68594639Y-121999900D01*
X69700000Y-121999900D01*
X69879823Y-121964131D01*
X70032269Y-121862269D01*
X70081344Y-121813194D01*
X70530880Y-121813194D01*
X70582155Y-121891250D01*
G36*
X66667731Y-121997731D02*
X66569900Y-122144144D01*
X66569900Y-121324638D01*
X66694639Y-121199900D01*
X67465561Y-121199900D01*
X66667731Y-121997731D01*
X66667731Y-121997731D01*
G37*
X66667731Y-121997731D02*
X66569900Y-122144144D01*
X66569900Y-121324638D01*
X66694639Y-121199900D01*
X67465561Y-121199900D01*
X66667731Y-121997731D01*
G36*
X75977360Y-112237123D02*
X75977362Y-112237121D01*
X76041717Y-112081753D01*
X76060747Y-111986083D01*
X76060747Y-111943632D01*
X76069028Y-111901999D01*
X76069028Y-111857000D01*
X77207028Y-111857000D01*
X77207028Y-111955052D01*
X77207707Y-111958463D01*
X77207082Y-111961886D01*
X77207208Y-111969831D01*
X77216864Y-112014649D01*
X77218321Y-112060473D01*
X77240382Y-112155490D01*
X77294637Y-112275533D01*
X77309641Y-112308732D01*
X77366384Y-112388075D01*
X77366386Y-112388077D01*
X77366387Y-112388079D01*
X77416897Y-112435475D01*
X77489015Y-112503149D01*
X77489018Y-112503150D01*
X77489020Y-112503152D01*
X77571808Y-112554740D01*
X77729142Y-112614124D01*
X77729145Y-112614124D01*
X77825366Y-112630103D01*
X77906891Y-112627511D01*
X77988297Y-112625921D01*
X80561536Y-112061610D01*
X80561536Y-112830000D01*
X80589722Y-112975274D01*
X80673596Y-113102956D01*
X80800216Y-113188426D01*
X80950000Y-113218464D01*
X82023925Y-113218464D01*
X82046997Y-113241536D01*
X80950000Y-113241536D01*
X80804726Y-113269722D01*
X80677044Y-113353596D01*
X80591574Y-113480216D01*
X80561536Y-113630000D01*
X80561536Y-114830000D01*
X80589722Y-114975274D01*
X80673596Y-115102956D01*
X80775159Y-115171512D01*
X80775159Y-116207328D01*
X80760603Y-116216890D01*
X80675133Y-116343510D01*
X80645095Y-116493294D01*
X80645095Y-117993294D01*
X80673281Y-118138568D01*
X80757155Y-118266250D01*
X80775159Y-118278403D01*
X80775159Y-118481345D01*
X80710592Y-118416665D01*
X80444624Y-118306226D01*
X80240587Y-118306048D01*
X80224963Y-118290425D01*
X80256515Y-118269698D01*
X80341985Y-118143078D01*
X80372023Y-117993294D01*
X80372023Y-116493294D01*
X80343837Y-116348020D01*
X80259963Y-116220338D01*
X80133343Y-116134868D01*
X79983559Y-116104830D01*
X79433559Y-116104830D01*
X79306493Y-116129483D01*
X79183559Y-116104830D01*
X78633559Y-116104830D01*
X78506493Y-116129483D01*
X78383559Y-116104830D01*
X77833559Y-116104830D01*
X77706493Y-116129483D01*
X77583559Y-116104830D01*
X77033559Y-116104830D01*
X76906493Y-116129483D01*
X76783559Y-116104830D01*
X76233559Y-116104830D01*
X76106493Y-116129483D01*
X75983559Y-116104830D01*
X75433559Y-116104830D01*
X75378459Y-116115520D01*
X75378459Y-116098294D01*
X75342690Y-115918471D01*
X75338506Y-115912209D01*
X75240829Y-115766025D01*
X75100828Y-115626025D01*
X74948382Y-115524163D01*
X74768559Y-115488394D01*
X71915198Y-115488394D01*
X71791523Y-115364719D01*
X71791523Y-114878794D01*
X71763337Y-114733520D01*
X71679463Y-114605838D01*
X71572928Y-114533925D01*
X74641559Y-114533925D01*
X74641559Y-114588663D01*
X74747899Y-115123272D01*
X75050731Y-115576491D01*
X75503950Y-115879323D01*
X76038559Y-115985663D01*
X76573168Y-115879323D01*
X77026387Y-115576491D01*
X77329219Y-115123272D01*
X77435559Y-114588663D01*
X77435559Y-114533925D01*
X77329219Y-113999316D01*
X77026387Y-113546097D01*
X76573168Y-113243265D01*
X76038559Y-113136925D01*
X75503950Y-113243265D01*
X75050731Y-113546097D01*
X74747899Y-113999316D01*
X74641559Y-114533925D01*
X71572928Y-114533925D01*
X71552843Y-114520368D01*
X71403059Y-114490330D01*
X70768059Y-114490330D01*
X70622785Y-114518516D01*
X70495103Y-114602390D01*
X70409633Y-114729010D01*
X70379595Y-114878794D01*
X70379595Y-115767794D01*
X70407781Y-115913068D01*
X70491655Y-116040750D01*
X70618275Y-116126220D01*
X70768059Y-116156258D01*
X71253984Y-116156258D01*
X71388290Y-116290564D01*
X71524998Y-116381909D01*
X71540736Y-116392425D01*
X71720559Y-116428194D01*
X72658150Y-116428194D01*
X72645095Y-116493294D01*
X72645095Y-116758394D01*
X71786595Y-116758394D01*
X71763337Y-116638520D01*
X71679463Y-116510838D01*
X71552843Y-116425368D01*
X71403059Y-116395330D01*
X70768059Y-116395330D01*
X70622785Y-116423516D01*
X70495103Y-116507390D01*
X70409633Y-116634010D01*
X70379595Y-116783794D01*
X70379595Y-117672794D01*
X70407781Y-117818068D01*
X70491655Y-117945750D01*
X70618275Y-118031220D01*
X70768059Y-118061258D01*
X71403059Y-118061258D01*
X71548333Y-118033072D01*
X71676015Y-117949198D01*
X71761485Y-117822578D01*
X71786429Y-117698194D01*
X72645095Y-117698194D01*
X72645095Y-117962416D01*
X72486388Y-118121123D01*
X72377770Y-118283683D01*
X72358559Y-118279830D01*
X70858559Y-118279830D01*
X70784083Y-118294280D01*
X70655828Y-118166025D01*
X70503382Y-118064163D01*
X70323559Y-118028394D01*
X68613198Y-118028394D01*
X68514308Y-117929505D01*
X68586485Y-117822578D01*
X68616523Y-117672794D01*
X68616523Y-117037794D01*
X68588337Y-116892520D01*
X68504463Y-116764838D01*
X68377843Y-116679368D01*
X68228059Y-116649330D01*
X67339059Y-116649330D01*
X67193785Y-116677516D01*
X67066103Y-116761390D01*
X66980633Y-116888010D01*
X66950595Y-117037794D01*
X66950595Y-117672794D01*
X66978781Y-117818068D01*
X67062655Y-117945750D01*
X67189275Y-118031220D01*
X67339059Y-118061258D01*
X67361550Y-118061258D01*
X67451290Y-118195563D01*
X68086290Y-118830564D01*
X68222297Y-118921441D01*
X68238736Y-118932425D01*
X68418559Y-118968194D01*
X68710664Y-118968194D01*
X68590103Y-119047390D01*
X68504633Y-119174010D01*
X68474595Y-119323794D01*
X68474595Y-120212794D01*
X68483773Y-120260100D01*
X67146758Y-120260100D01*
X67223774Y-120074624D01*
X67224025Y-119786639D01*
X67114050Y-119520479D01*
X66910592Y-119316665D01*
X66644624Y-119206226D01*
X66356639Y-119205975D01*
X66090479Y-119315950D01*
X65984078Y-119422165D01*
X65912694Y-119315332D01*
X66449013Y-118779013D01*
X66586664Y-118573004D01*
X66635000Y-118330000D01*
X66635000Y-116330000D01*
X66586664Y-116086996D01*
X66524019Y-115993242D01*
X66524025Y-115986639D01*
X66414050Y-115720479D01*
X66210592Y-115516665D01*
X65944624Y-115406226D01*
X65656639Y-115405975D01*
X65390479Y-115515950D01*
X65186665Y-115719408D01*
X65076226Y-115985376D01*
X65075975Y-116273361D01*
X65104784Y-116343084D01*
X65088559Y-116339830D01*
X64777725Y-116339830D01*
X64112000Y-115674105D01*
X64112000Y-115245630D01*
X64638815Y-114718815D01*
X64803996Y-114471605D01*
X64814400Y-114419302D01*
X64862000Y-114180000D01*
X64862000Y-113038566D01*
X65037572Y-112921252D01*
X65175223Y-112715243D01*
X65223559Y-112472239D01*
X65209528Y-112401698D01*
X65335932Y-112275294D01*
X66328329Y-112275294D01*
X66315595Y-112338794D01*
X66315595Y-112973794D01*
X66343781Y-113119068D01*
X66427655Y-113246750D01*
X66554275Y-113332220D01*
X66704059Y-113362258D01*
X67593059Y-113362258D01*
X67642611Y-113352644D01*
X67950045Y-113660079D01*
X67950045Y-114184104D01*
X67978231Y-114329378D01*
X68031637Y-114410678D01*
X67451290Y-114991025D01*
X67361550Y-115125330D01*
X67339059Y-115125330D01*
X67193785Y-115153516D01*
X67066103Y-115237390D01*
X66980633Y-115364010D01*
X66950595Y-115513794D01*
X66950595Y-116148794D01*
X66978781Y-116294068D01*
X67062655Y-116421750D01*
X67189275Y-116507220D01*
X67339059Y-116537258D01*
X68228059Y-116537258D01*
X68373333Y-116509072D01*
X68501015Y-116425198D01*
X68586485Y-116298578D01*
X68616523Y-116148794D01*
X68616523Y-115513794D01*
X68588337Y-115368520D01*
X68514807Y-115256585D01*
X69070829Y-114700563D01*
X69158995Y-114568613D01*
X69283883Y-114544382D01*
X69411565Y-114460508D01*
X69497035Y-114333888D01*
X69527073Y-114184104D01*
X69527073Y-113384004D01*
X69498887Y-113238730D01*
X69415013Y-113111048D01*
X69288393Y-113025578D01*
X69138609Y-112995540D01*
X68614584Y-112995540D01*
X68166117Y-112547074D01*
X69156297Y-112547074D01*
X69288509Y-112573588D01*
X70088609Y-112573588D01*
X70233883Y-112545402D01*
X70361565Y-112461528D01*
X70447035Y-112334908D01*
X70477073Y-112185124D01*
X70477073Y-111857000D01*
X72695891Y-111857000D01*
X75254292Y-112566630D01*
X75291011Y-112569360D01*
X75303943Y-112574717D01*
X75322817Y-112574717D01*
X75353505Y-112582014D01*
X75372044Y-112582702D01*
X75403182Y-112577701D01*
X75421997Y-112579100D01*
X75435288Y-112574718D01*
X75472111Y-112574718D01*
X75567782Y-112555688D01*
X75723149Y-112491333D01*
X75723150Y-112491332D01*
X75804255Y-112437140D01*
X75923169Y-112318226D01*
X75977360Y-112237123D01*
X75977360Y-112237123D01*
G37*
X75977360Y-112237123D02*
X75977362Y-112237121D01*
X76041717Y-112081753D01*
X76060747Y-111986083D01*
X76060747Y-111943632D01*
X76069028Y-111901999D01*
X76069028Y-111857000D01*
X77207028Y-111857000D01*
X77207028Y-111955052D01*
X77207707Y-111958463D01*
X77207082Y-111961886D01*
X77207208Y-111969831D01*
X77216864Y-112014649D01*
X77218321Y-112060473D01*
X77240382Y-112155490D01*
X77294637Y-112275533D01*
X77309641Y-112308732D01*
X77366384Y-112388075D01*
X77366386Y-112388077D01*
X77366387Y-112388079D01*
X77416897Y-112435475D01*
X77489015Y-112503149D01*
X77489018Y-112503150D01*
X77489020Y-112503152D01*
X77571808Y-112554740D01*
X77729142Y-112614124D01*
X77729145Y-112614124D01*
X77825366Y-112630103D01*
X77906891Y-112627511D01*
X77988297Y-112625921D01*
X80561536Y-112061610D01*
X80561536Y-112830000D01*
X80589722Y-112975274D01*
X80673596Y-113102956D01*
X80800216Y-113188426D01*
X80950000Y-113218464D01*
X82023925Y-113218464D01*
X82046997Y-113241536D01*
X80950000Y-113241536D01*
X80804726Y-113269722D01*
X80677044Y-113353596D01*
X80591574Y-113480216D01*
X80561536Y-113630000D01*
X80561536Y-114830000D01*
X80589722Y-114975274D01*
X80673596Y-115102956D01*
X80775159Y-115171512D01*
X80775159Y-116207328D01*
X80760603Y-116216890D01*
X80675133Y-116343510D01*
X80645095Y-116493294D01*
X80645095Y-117993294D01*
X80673281Y-118138568D01*
X80757155Y-118266250D01*
X80775159Y-118278403D01*
X80775159Y-118481345D01*
X80710592Y-118416665D01*
X80444624Y-118306226D01*
X80240587Y-118306048D01*
X80224963Y-118290425D01*
X80256515Y-118269698D01*
X80341985Y-118143078D01*
X80372023Y-117993294D01*
X80372023Y-116493294D01*
X80343837Y-116348020D01*
X80259963Y-116220338D01*
X80133343Y-116134868D01*
X79983559Y-116104830D01*
X79433559Y-116104830D01*
X79306493Y-116129483D01*
X79183559Y-116104830D01*
X78633559Y-116104830D01*
X78506493Y-116129483D01*
X78383559Y-116104830D01*
X77833559Y-116104830D01*
X77706493Y-116129483D01*
X77583559Y-116104830D01*
X77033559Y-116104830D01*
X76906493Y-116129483D01*
X76783559Y-116104830D01*
X76233559Y-116104830D01*
X76106493Y-116129483D01*
X75983559Y-116104830D01*
X75433559Y-116104830D01*
X75378459Y-116115520D01*
X75378459Y-116098294D01*
X75342690Y-115918471D01*
X75338506Y-115912209D01*
X75240829Y-115766025D01*
X75100828Y-115626025D01*
X74948382Y-115524163D01*
X74768559Y-115488394D01*
X71915198Y-115488394D01*
X71791523Y-115364719D01*
X71791523Y-114878794D01*
X71763337Y-114733520D01*
X71679463Y-114605838D01*
X71572928Y-114533925D01*
X74641559Y-114533925D01*
X74641559Y-114588663D01*
X74747899Y-115123272D01*
X75050731Y-115576491D01*
X75503950Y-115879323D01*
X76038559Y-115985663D01*
X76573168Y-115879323D01*
X77026387Y-115576491D01*
X77329219Y-115123272D01*
X77435559Y-114588663D01*
X77435559Y-114533925D01*
X77329219Y-113999316D01*
X77026387Y-113546097D01*
X76573168Y-113243265D01*
X76038559Y-113136925D01*
X75503950Y-113243265D01*
X75050731Y-113546097D01*
X74747899Y-113999316D01*
X74641559Y-114533925D01*
X71572928Y-114533925D01*
X71552843Y-114520368D01*
X71403059Y-114490330D01*
X70768059Y-114490330D01*
X70622785Y-114518516D01*
X70495103Y-114602390D01*
X70409633Y-114729010D01*
X70379595Y-114878794D01*
X70379595Y-115767794D01*
X70407781Y-115913068D01*
X70491655Y-116040750D01*
X70618275Y-116126220D01*
X70768059Y-116156258D01*
X71253984Y-116156258D01*
X71388290Y-116290564D01*
X71524998Y-116381909D01*
X71540736Y-116392425D01*
X71720559Y-116428194D01*
X72658150Y-116428194D01*
X72645095Y-116493294D01*
X72645095Y-116758394D01*
X71786595Y-116758394D01*
X71763337Y-116638520D01*
X71679463Y-116510838D01*
X71552843Y-116425368D01*
X71403059Y-116395330D01*
X70768059Y-116395330D01*
X70622785Y-116423516D01*
X70495103Y-116507390D01*
X70409633Y-116634010D01*
X70379595Y-116783794D01*
X70379595Y-117672794D01*
X70407781Y-117818068D01*
X70491655Y-117945750D01*
X70618275Y-118031220D01*
X70768059Y-118061258D01*
X71403059Y-118061258D01*
X71548333Y-118033072D01*
X71676015Y-117949198D01*
X71761485Y-117822578D01*
X71786429Y-117698194D01*
X72645095Y-117698194D01*
X72645095Y-117962416D01*
X72486388Y-118121123D01*
X72377770Y-118283683D01*
X72358559Y-118279830D01*
X70858559Y-118279830D01*
X70784083Y-118294280D01*
X70655828Y-118166025D01*
X70503382Y-118064163D01*
X70323559Y-118028394D01*
X68613198Y-118028394D01*
X68514308Y-117929505D01*
X68586485Y-117822578D01*
X68616523Y-117672794D01*
X68616523Y-117037794D01*
X68588337Y-116892520D01*
X68504463Y-116764838D01*
X68377843Y-116679368D01*
X68228059Y-116649330D01*
X67339059Y-116649330D01*
X67193785Y-116677516D01*
X67066103Y-116761390D01*
X66980633Y-116888010D01*
X66950595Y-117037794D01*
X66950595Y-117672794D01*
X66978781Y-117818068D01*
X67062655Y-117945750D01*
X67189275Y-118031220D01*
X67339059Y-118061258D01*
X67361550Y-118061258D01*
X67451290Y-118195563D01*
X68086290Y-118830564D01*
X68222297Y-118921441D01*
X68238736Y-118932425D01*
X68418559Y-118968194D01*
X68710664Y-118968194D01*
X68590103Y-119047390D01*
X68504633Y-119174010D01*
X68474595Y-119323794D01*
X68474595Y-120212794D01*
X68483773Y-120260100D01*
X67146758Y-120260100D01*
X67223774Y-120074624D01*
X67224025Y-119786639D01*
X67114050Y-119520479D01*
X66910592Y-119316665D01*
X66644624Y-119206226D01*
X66356639Y-119205975D01*
X66090479Y-119315950D01*
X65984078Y-119422165D01*
X65912694Y-119315332D01*
X66449013Y-118779013D01*
X66586664Y-118573004D01*
X66635000Y-118330000D01*
X66635000Y-116330000D01*
X66586664Y-116086996D01*
X66524019Y-115993242D01*
X66524025Y-115986639D01*
X66414050Y-115720479D01*
X66210592Y-115516665D01*
X65944624Y-115406226D01*
X65656639Y-115405975D01*
X65390479Y-115515950D01*
X65186665Y-115719408D01*
X65076226Y-115985376D01*
X65075975Y-116273361D01*
X65104784Y-116343084D01*
X65088559Y-116339830D01*
X64777725Y-116339830D01*
X64112000Y-115674105D01*
X64112000Y-115245630D01*
X64638815Y-114718815D01*
X64803996Y-114471605D01*
X64814400Y-114419302D01*
X64862000Y-114180000D01*
X64862000Y-113038566D01*
X65037572Y-112921252D01*
X65175223Y-112715243D01*
X65223559Y-112472239D01*
X65209528Y-112401698D01*
X65335932Y-112275294D01*
X66328329Y-112275294D01*
X66315595Y-112338794D01*
X66315595Y-112973794D01*
X66343781Y-113119068D01*
X66427655Y-113246750D01*
X66554275Y-113332220D01*
X66704059Y-113362258D01*
X67593059Y-113362258D01*
X67642611Y-113352644D01*
X67950045Y-113660079D01*
X67950045Y-114184104D01*
X67978231Y-114329378D01*
X68031637Y-114410678D01*
X67451290Y-114991025D01*
X67361550Y-115125330D01*
X67339059Y-115125330D01*
X67193785Y-115153516D01*
X67066103Y-115237390D01*
X66980633Y-115364010D01*
X66950595Y-115513794D01*
X66950595Y-116148794D01*
X66978781Y-116294068D01*
X67062655Y-116421750D01*
X67189275Y-116507220D01*
X67339059Y-116537258D01*
X68228059Y-116537258D01*
X68373333Y-116509072D01*
X68501015Y-116425198D01*
X68586485Y-116298578D01*
X68616523Y-116148794D01*
X68616523Y-115513794D01*
X68588337Y-115368520D01*
X68514807Y-115256585D01*
X69070829Y-114700563D01*
X69158995Y-114568613D01*
X69283883Y-114544382D01*
X69411565Y-114460508D01*
X69497035Y-114333888D01*
X69527073Y-114184104D01*
X69527073Y-113384004D01*
X69498887Y-113238730D01*
X69415013Y-113111048D01*
X69288393Y-113025578D01*
X69138609Y-112995540D01*
X68614584Y-112995540D01*
X68166117Y-112547074D01*
X69156297Y-112547074D01*
X69288509Y-112573588D01*
X70088609Y-112573588D01*
X70233883Y-112545402D01*
X70361565Y-112461528D01*
X70447035Y-112334908D01*
X70477073Y-112185124D01*
X70477073Y-111857000D01*
X72695891Y-111857000D01*
X75254292Y-112566630D01*
X75291011Y-112569360D01*
X75303943Y-112574717D01*
X75322817Y-112574717D01*
X75353505Y-112582014D01*
X75372044Y-112582702D01*
X75403182Y-112577701D01*
X75421997Y-112579100D01*
X75435288Y-112574718D01*
X75472111Y-112574718D01*
X75567782Y-112555688D01*
X75723149Y-112491333D01*
X75723150Y-112491332D01*
X75804255Y-112437140D01*
X75923169Y-112318226D01*
X75977360Y-112237123D01*
G36*
X74245095Y-116493294D02*
X74245095Y-117993294D01*
X74273281Y-118138568D01*
X74357155Y-118266250D01*
X74483775Y-118351720D01*
X74633559Y-118381758D01*
X75183559Y-118381758D01*
X75310625Y-118357105D01*
X75433559Y-118381758D01*
X75983559Y-118381758D01*
X76110625Y-118357105D01*
X76233559Y-118381758D01*
X76783559Y-118381758D01*
X76910625Y-118357105D01*
X77033559Y-118381758D01*
X77583559Y-118381758D01*
X77638659Y-118371068D01*
X77638659Y-118396042D01*
X77590479Y-118415950D01*
X77386665Y-118619408D01*
X77276226Y-118885376D01*
X77275975Y-119173361D01*
X77285577Y-119196600D01*
X73396959Y-119196600D01*
X73396959Y-118719236D01*
X73685730Y-118430465D01*
X73743581Y-118343884D01*
X73856515Y-118269698D01*
X73941985Y-118143078D01*
X73972023Y-117993294D01*
X73972023Y-116493294D01*
X73959392Y-116428194D01*
X74258150Y-116428194D01*
X74245095Y-116493294D01*
X74245095Y-116493294D01*
G37*
X74245095Y-116493294D02*
X74245095Y-117993294D01*
X74273281Y-118138568D01*
X74357155Y-118266250D01*
X74483775Y-118351720D01*
X74633559Y-118381758D01*
X75183559Y-118381758D01*
X75310625Y-118357105D01*
X75433559Y-118381758D01*
X75983559Y-118381758D01*
X76110625Y-118357105D01*
X76233559Y-118381758D01*
X76783559Y-118381758D01*
X76910625Y-118357105D01*
X77033559Y-118381758D01*
X77583559Y-118381758D01*
X77638659Y-118371068D01*
X77638659Y-118396042D01*
X77590479Y-118415950D01*
X77386665Y-118619408D01*
X77276226Y-118885376D01*
X77275975Y-119173361D01*
X77285577Y-119196600D01*
X73396959Y-119196600D01*
X73396959Y-118719236D01*
X73685730Y-118430465D01*
X73743581Y-118343884D01*
X73856515Y-118269698D01*
X73941985Y-118143078D01*
X73972023Y-117993294D01*
X73972023Y-116493294D01*
X73959392Y-116428194D01*
X74258150Y-116428194D01*
X74245095Y-116493294D01*
M02*
