G04 #@! TF.FileFunction,Legend,Top*
%FSLAX46Y46*%
G04 Gerber Fmt 4.6, Leading zero omitted, Abs format (unit mm)*
G04 Created by KiCad (PCBNEW (2015-07-22 BZR 5980)-product) date Friday, October 16, 2015 'amt' 10:57:48 am*
%MOMM*%
G01*
G04 APERTURE LIST*
%ADD10C,0.100000*%
%ADD11C,0.250000*%
%ADD12C,0.200000*%
%ADD13C,0.152400*%
%ADD14C,0.350000*%
%ADD15C,0.150000*%
%ADD16C,0.738000*%
%ADD17C,0.300000*%
%ADD18C,0.114300*%
%ADD19C,0.190500*%
G04 APERTURE END LIST*
D10*
X147596925Y-66858895D02*
G75*
G02X146897404Y-67102330I-9292254J25574975D01*
G01*
X127996925Y-66858895D02*
G75*
G02X127297404Y-67102330I-9292254J25574975D01*
G01*
X108396925Y-66858895D02*
G75*
G02X107697404Y-67102330I-9292254J25574975D01*
G01*
X88796925Y-66858895D02*
G75*
G02X88097404Y-67102330I-9292254J25574975D01*
G01*
X143476901Y-65441395D02*
G75*
G02X143123914Y-64680007I5415148J2973030D01*
G01*
X123876901Y-65441395D02*
G75*
G02X123523914Y-64680007I5415148J2973030D01*
G01*
X104276901Y-65441395D02*
G75*
G02X103923914Y-64680007I5415148J2973030D01*
G01*
X84676901Y-65441395D02*
G75*
G02X84323914Y-64680007I5415148J2973030D01*
G01*
X141807952Y-65133646D02*
G75*
G02X141125962Y-64543808I1903814J2890439D01*
G01*
X122207952Y-65133646D02*
G75*
G02X121525962Y-64543808I1903814J2890439D01*
G01*
X102607952Y-65133646D02*
G75*
G02X101925962Y-64543808I1903814J2890439D01*
G01*
X83007952Y-65133646D02*
G75*
G02X82325962Y-64543808I1903814J2890439D01*
G01*
X139862973Y-65172791D02*
G75*
G02X139733074Y-64505527I17966191J3843813D01*
G01*
X120262973Y-65172791D02*
G75*
G02X120133074Y-64505527I17966191J3843813D01*
G01*
X100662973Y-65172791D02*
G75*
G02X100533074Y-64505527I17966191J3843813D01*
G01*
X81062973Y-65172791D02*
G75*
G02X80933074Y-64505527I17966191J3843813D01*
G01*
X136614123Y-73766183D02*
G75*
G02X137373640Y-73488313I3916750J-9528894D01*
G01*
X117014123Y-73766183D02*
G75*
G02X117773640Y-73488313I3916750J-9528894D01*
G01*
X97414123Y-73766183D02*
G75*
G02X98173640Y-73488313I3916750J-9528894D01*
G01*
X77814123Y-73766183D02*
G75*
G02X78573640Y-73488313I3916750J-9528894D01*
G01*
X137373641Y-73488313D02*
G75*
G02X137192702Y-74241323I-755255116J181079544D01*
G01*
X117773641Y-73488313D02*
G75*
G02X117592702Y-74241323I-755255116J181079544D01*
G01*
X98173641Y-73488313D02*
G75*
G02X97992702Y-74241323I-755255116J181079544D01*
G01*
X78573641Y-73488313D02*
G75*
G02X78392702Y-74241323I-755255116J181079544D01*
G01*
X137563191Y-74503635D02*
G75*
G02X138193496Y-74308169I1706026J-4387330D01*
G01*
X117963191Y-74503635D02*
G75*
G02X118593496Y-74308169I1706026J-4387330D01*
G01*
X98363191Y-74503635D02*
G75*
G02X98993496Y-74308169I1706026J-4387330D01*
G01*
X78763191Y-74503635D02*
G75*
G02X79393496Y-74308169I1706026J-4387330D01*
G01*
X140624221Y-75700317D02*
G75*
G02X140850581Y-76428795I-5794737J-2200008D01*
G01*
X121024221Y-75700317D02*
G75*
G02X121250581Y-76428795I-5794737J-2200008D01*
G01*
X101424221Y-75700317D02*
G75*
G02X101650581Y-76428795I-5794737J-2200008D01*
G01*
X81824221Y-75700317D02*
G75*
G02X82050581Y-76428795I-5794737J-2200008D01*
G01*
X139781730Y-76071228D02*
G75*
G02X139868660Y-75396312I12575875J-1276724D01*
G01*
X120181730Y-76071228D02*
G75*
G02X120268660Y-75396312I12575875J-1276724D01*
G01*
X100581730Y-76071228D02*
G75*
G02X100668660Y-75396312I12575875J-1276724D01*
G01*
X80981730Y-76071228D02*
G75*
G02X81068660Y-75396312I12575875J-1276724D01*
G01*
X139281731Y-75671228D02*
G75*
G02X139868660Y-75396312I2384689J-4327191D01*
G01*
X119681731Y-75671228D02*
G75*
G02X120268660Y-75396312I2384689J-4327191D01*
G01*
X100081731Y-75671228D02*
G75*
G02X100668660Y-75396312I2384689J-4327191D01*
G01*
X80481731Y-75671228D02*
G75*
G02X81068660Y-75396312I2384689J-4327191D01*
G01*
X143750363Y-67434557D02*
X143750363Y-67434557D01*
X124150363Y-67434557D02*
X124150363Y-67434557D01*
X104550363Y-67434557D02*
X104550363Y-67434557D01*
X84950363Y-67434557D02*
X84950363Y-67434557D01*
X144128630Y-67082131D02*
X144128630Y-67082131D01*
X124528630Y-67082131D02*
X124528630Y-67082131D01*
X104928630Y-67082131D02*
X104928630Y-67082131D01*
X85328630Y-67082131D02*
X85328630Y-67082131D01*
X144914353Y-64954002D02*
X144395240Y-65183660D01*
X125314353Y-64954002D02*
X124795240Y-65183660D01*
X105714353Y-64954002D02*
X105195240Y-65183660D01*
X86114353Y-64954002D02*
X85595240Y-65183660D01*
X144281731Y-65771227D02*
G75*
G02X143953299Y-65334030I-70279J289166D01*
G01*
X124681731Y-65771227D02*
G75*
G02X124353299Y-65334030I-70279J289166D01*
G01*
X105081731Y-65771227D02*
G75*
G02X104753299Y-65334030I-70279J289166D01*
G01*
X85481731Y-65771227D02*
G75*
G02X85153299Y-65334030I-70279J289166D01*
G01*
X144549100Y-64255484D02*
G75*
G02X144395240Y-65183660I-1179013J-281400D01*
G01*
X124949100Y-64255484D02*
G75*
G02X124795240Y-65183660I-1179013J-281400D01*
G01*
X105349100Y-64255484D02*
G75*
G02X105195240Y-65183660I-1179013J-281400D01*
G01*
X85749100Y-64255484D02*
G75*
G02X85595240Y-65183660I-1179013J-281400D01*
G01*
X142114466Y-65023303D02*
G75*
G02X141807952Y-65133646I-181646J23688D01*
G01*
X122514466Y-65023303D02*
G75*
G02X122207952Y-65133646I-181646J23688D01*
G01*
X102914466Y-65023303D02*
G75*
G02X102607952Y-65133646I-181646J23688D01*
G01*
X83314466Y-65023303D02*
G75*
G02X83007952Y-65133646I-181646J23688D01*
G01*
X142681731Y-65071227D02*
G75*
G02X142114465Y-65023303I-267180J218715D01*
G01*
X123081731Y-65071227D02*
G75*
G02X122514465Y-65023303I-267180J218715D01*
G01*
X103481731Y-65071227D02*
G75*
G02X102914465Y-65023303I-267180J218715D01*
G01*
X83881731Y-65071227D02*
G75*
G02X83314465Y-65023303I-267180J218715D01*
G01*
X144981731Y-65371228D02*
G75*
G02X144281730Y-65771228I-950001J850001D01*
G01*
X125381731Y-65371228D02*
G75*
G02X124681730Y-65771228I-950001J850001D01*
G01*
X105781731Y-65371228D02*
G75*
G02X105081730Y-65771228I-950001J850001D01*
G01*
X86181731Y-65371228D02*
G75*
G02X85481730Y-65771228I-950001J850001D01*
G01*
X144010653Y-64357325D02*
G75*
G02X144549100Y-64255482I307103J-149349D01*
G01*
X124410653Y-64357325D02*
G75*
G02X124949100Y-64255482I307103J-149349D01*
G01*
X104810653Y-64357325D02*
G75*
G02X105349100Y-64255482I307103J-149349D01*
G01*
X85210653Y-64357325D02*
G75*
G02X85749100Y-64255482I307103J-149349D01*
G01*
X140617961Y-64911667D02*
G75*
G02X140832164Y-64209154I4562946J-1007369D01*
G01*
X121017961Y-64911667D02*
G75*
G02X121232164Y-64209154I4562946J-1007369D01*
G01*
X101417961Y-64911667D02*
G75*
G02X101632164Y-64209154I4562946J-1007369D01*
G01*
X81817961Y-64911667D02*
G75*
G02X82032164Y-64209154I4562946J-1007369D01*
G01*
X143654848Y-64911668D02*
G75*
G02X144010655Y-64357324I733763J-79608D01*
G01*
X124054848Y-64911668D02*
G75*
G02X124410655Y-64357324I733763J-79608D01*
G01*
X104454848Y-64911668D02*
G75*
G02X104810655Y-64357324I733763J-79608D01*
G01*
X84854848Y-64911668D02*
G75*
G02X85210655Y-64357324I733763J-79608D01*
G01*
X143391339Y-64042158D02*
G75*
G02X143654848Y-64911666I-925788J-755247D01*
G01*
X123791339Y-64042158D02*
G75*
G02X124054848Y-64911666I-925788J-755247D01*
G01*
X104191339Y-64042158D02*
G75*
G02X104454848Y-64911666I-925788J-755247D01*
G01*
X84591339Y-64042158D02*
G75*
G02X84854848Y-64911666I-925788J-755247D01*
G01*
X142681729Y-65071227D02*
G75*
G02X143123914Y-64680007I1116938J-816937D01*
G01*
X123081729Y-65071227D02*
G75*
G02X123523914Y-64680007I1116938J-816937D01*
G01*
X103481729Y-65071227D02*
G75*
G02X103923914Y-64680007I1116938J-816937D01*
G01*
X83881729Y-65071227D02*
G75*
G02X84323914Y-64680007I1116938J-816937D01*
G01*
X143953300Y-65334029D02*
G75*
G02X143476901Y-65441395I-314613J285375D01*
G01*
X124353300Y-65334029D02*
G75*
G02X123876901Y-65441395I-314613J285375D01*
G01*
X104753300Y-65334029D02*
G75*
G02X104276901Y-65441395I-314613J285375D01*
G01*
X85153300Y-65334029D02*
G75*
G02X84676901Y-65441395I-314613J285375D01*
G01*
X137376727Y-67101006D02*
G75*
G02X137156848Y-66307228I951932J691030D01*
G01*
X117776727Y-67101006D02*
G75*
G02X117556848Y-66307228I951932J691030D01*
G01*
X98176727Y-67101006D02*
G75*
G02X97956848Y-66307228I951932J691030D01*
G01*
X78576727Y-67101006D02*
G75*
G02X78356848Y-66307228I951932J691030D01*
G01*
X136736458Y-68360374D02*
G75*
G02X137194255Y-69060069I-77267J-550166D01*
G01*
X117136458Y-68360374D02*
G75*
G02X117594255Y-69060069I-77267J-550166D01*
G01*
X97536458Y-68360374D02*
G75*
G02X97994255Y-69060069I-77267J-550166D01*
G01*
X77936458Y-68360374D02*
G75*
G02X78394255Y-69060069I-77267J-550166D01*
G01*
X137418196Y-67578101D02*
G75*
G02X137581730Y-67971227I-446649J-416376D01*
G01*
X117818196Y-67578101D02*
G75*
G02X117981730Y-67971227I-446649J-416376D01*
G01*
X98218196Y-67578101D02*
G75*
G02X98381730Y-67971227I-446649J-416376D01*
G01*
X78618196Y-67578101D02*
G75*
G02X78781730Y-67971227I-446649J-416376D01*
G01*
X137833555Y-67391612D02*
G75*
G02X137418195Y-67578101I-311193J137307D01*
G01*
X118233555Y-67391612D02*
G75*
G02X117818195Y-67578101I-311193J137307D01*
G01*
X98633555Y-67391612D02*
G75*
G02X98218195Y-67578101I-311193J137307D01*
G01*
X79033555Y-67391612D02*
G75*
G02X78618195Y-67578101I-311193J137307D01*
G01*
X139191343Y-64908661D02*
G75*
G02X139862972Y-65172791I-1836345J-5655422D01*
G01*
X119591343Y-64908661D02*
G75*
G02X120262972Y-65172791I-1836345J-5655422D01*
G01*
X99991343Y-64908661D02*
G75*
G02X100662972Y-65172791I-1836345J-5655422D01*
G01*
X80391343Y-64908661D02*
G75*
G02X81062972Y-65172791I-1836345J-5655422D01*
G01*
X138724251Y-68391556D02*
G75*
G02X139005679Y-68690447I-1112621J-1329553D01*
G01*
X119124251Y-68391556D02*
G75*
G02X119405679Y-68690447I-1112621J-1329553D01*
G01*
X99524251Y-68391556D02*
G75*
G02X99805679Y-68690447I-1112621J-1329553D01*
G01*
X79924251Y-68391556D02*
G75*
G02X80205679Y-68690447I-1112621J-1329553D01*
G01*
X142333098Y-63677458D02*
G75*
G02X142507173Y-64589228I-1327168J-725885D01*
G01*
X122733098Y-63677458D02*
G75*
G02X122907173Y-64589228I-1327168J-725885D01*
G01*
X103133098Y-63677458D02*
G75*
G02X103307173Y-64589228I-1327168J-725885D01*
G01*
X83533098Y-63677458D02*
G75*
G02X83707173Y-64589228I-1327168J-725885D01*
G01*
X142981730Y-64171227D02*
G75*
G02X143391340Y-64042158I236706J-36706D01*
G01*
X123381730Y-64171227D02*
G75*
G02X123791340Y-64042158I236706J-36706D01*
G01*
X103781730Y-64171227D02*
G75*
G02X104191340Y-64042158I236706J-36706D01*
G01*
X84181730Y-64171227D02*
G75*
G02X84591340Y-64042158I236706J-36706D01*
G01*
X141761050Y-64584732D02*
G75*
G02X141956472Y-63725519I1815024J39016D01*
G01*
X122161050Y-64584732D02*
G75*
G02X122356472Y-63725519I1815024J39016D01*
G01*
X102561050Y-64584732D02*
G75*
G02X102756472Y-63725519I1815024J39016D01*
G01*
X82961050Y-64584732D02*
G75*
G02X83156472Y-63725519I1815024J39016D01*
G01*
X142981730Y-64171227D02*
G75*
G02X142507173Y-64589228I-957572J608749D01*
G01*
X123381730Y-64171227D02*
G75*
G02X122907173Y-64589228I-957572J608749D01*
G01*
X103781730Y-64171227D02*
G75*
G02X103307173Y-64589228I-957572J608749D01*
G01*
X84181730Y-64171227D02*
G75*
G02X83707173Y-64589228I-957572J608749D01*
G01*
X141955064Y-63731948D02*
G75*
G02X142333099Y-63677457I198719J-40059D01*
G01*
X122355064Y-63731948D02*
G75*
G02X122733099Y-63677457I198719J-40059D01*
G01*
X102755064Y-63731948D02*
G75*
G02X103133099Y-63677457I198719J-40059D01*
G01*
X83155064Y-63731948D02*
G75*
G02X83533099Y-63677457I198719J-40059D01*
G01*
X141181732Y-64071227D02*
G75*
G02X141761051Y-64584730I-2895051J-3849644D01*
G01*
X121581732Y-64071227D02*
G75*
G02X122161051Y-64584730I-2895051J-3849644D01*
G01*
X101981732Y-64071227D02*
G75*
G02X102561051Y-64584730I-2895051J-3849644D01*
G01*
X82381732Y-64071227D02*
G75*
G02X82961051Y-64584730I-2895051J-3849644D01*
G01*
X139303776Y-65360401D02*
G75*
G02X139181729Y-66271227I-1611598J-247642D01*
G01*
X119703776Y-65360401D02*
G75*
G02X119581729Y-66271227I-1611598J-247642D01*
G01*
X100103776Y-65360401D02*
G75*
G02X99981729Y-66271227I-1611598J-247642D01*
G01*
X80503776Y-65360401D02*
G75*
G02X80381729Y-66271227I-1611598J-247642D01*
G01*
X138170565Y-65261358D02*
G75*
G02X138881731Y-65871228I-291671J-1059694D01*
G01*
X118570565Y-65261358D02*
G75*
G02X119281731Y-65871228I-291671J-1059694D01*
G01*
X98970565Y-65261358D02*
G75*
G02X99681731Y-65871228I-291671J-1059694D01*
G01*
X79370565Y-65261358D02*
G75*
G02X80081731Y-65871228I-291671J-1059694D01*
G01*
X140185746Y-64329009D02*
G75*
G02X140617960Y-64911668I-3731855J-3219912D01*
G01*
X120585746Y-64329009D02*
G75*
G02X121017960Y-64911668I-3731855J-3219912D01*
G01*
X100985746Y-64329009D02*
G75*
G02X101417960Y-64911668I-3731855J-3219912D01*
G01*
X81385746Y-64329009D02*
G75*
G02X81817960Y-64911668I-3731855J-3219912D01*
G01*
X140831616Y-64211274D02*
G75*
G02X141181730Y-64071227I225919J-57129D01*
G01*
X121231616Y-64211274D02*
G75*
G02X121581730Y-64071227I225919J-57129D01*
G01*
X101631616Y-64211274D02*
G75*
G02X101981730Y-64071227I225919J-57129D01*
G01*
X82031616Y-64211274D02*
G75*
G02X82381730Y-64071227I225919J-57129D01*
G01*
X142539191Y-68670868D02*
G75*
G02X141529452Y-67710793I283251J1308927D01*
G01*
X122939191Y-68670868D02*
G75*
G02X121929452Y-67710793I283251J1308927D01*
G01*
X103339191Y-68670868D02*
G75*
G02X102329452Y-67710793I283251J1308927D01*
G01*
X83739191Y-68670868D02*
G75*
G02X82729452Y-67710793I283251J1308927D01*
G01*
X140893169Y-65325725D02*
G75*
G02X140372853Y-65422694I-372635J555043D01*
G01*
X121293169Y-65325725D02*
G75*
G02X120772853Y-65422694I-372635J555043D01*
G01*
X101693169Y-65325725D02*
G75*
G02X101172853Y-65422694I-372635J555043D01*
G01*
X82093169Y-65325725D02*
G75*
G02X81572853Y-65422694I-372635J555043D01*
G01*
X139733076Y-64505528D02*
G75*
G02X140185745Y-64329009I250290J26827D01*
G01*
X120133076Y-64505528D02*
G75*
G02X120585745Y-64329009I250290J26827D01*
G01*
X100533076Y-64505528D02*
G75*
G02X100985745Y-64329009I250290J26827D01*
G01*
X80933076Y-64505528D02*
G75*
G02X81385745Y-64329009I250290J26827D01*
G01*
X138885204Y-65202402D02*
G75*
G02X139191343Y-64908660I273206J21664D01*
G01*
X119285204Y-65202402D02*
G75*
G02X119591343Y-64908660I273206J21664D01*
G01*
X99685204Y-65202402D02*
G75*
G02X99991343Y-64908660I273206J21664D01*
G01*
X80085204Y-65202402D02*
G75*
G02X80391343Y-64908660I273206J21664D01*
G01*
X138881731Y-65871227D02*
G75*
G02X138885205Y-65202402I4058114J313341D01*
G01*
X119281731Y-65871227D02*
G75*
G02X119285205Y-65202402I4058114J313341D01*
G01*
X99681731Y-65871227D02*
G75*
G02X99685205Y-65202402I4058114J313341D01*
G01*
X80081731Y-65871227D02*
G75*
G02X80085205Y-65202402I4058114J313341D01*
G01*
X140372850Y-65422692D02*
G75*
G02X140072488Y-65741977I-241293J-73930D01*
G01*
X120772850Y-65422692D02*
G75*
G02X120472488Y-65741977I-241293J-73930D01*
G01*
X101172850Y-65422692D02*
G75*
G02X100872488Y-65741977I-241293J-73930D01*
G01*
X81572850Y-65422692D02*
G75*
G02X81272488Y-65741977I-241293J-73930D01*
G01*
X137834193Y-73189632D02*
G75*
G02X137640693Y-74055579I-1841995J-42990D01*
G01*
X118234193Y-73189632D02*
G75*
G02X118040693Y-74055579I-1841995J-42990D01*
G01*
X98634193Y-73189632D02*
G75*
G02X98440693Y-74055579I-1841995J-42990D01*
G01*
X79034193Y-73189632D02*
G75*
G02X78840693Y-74055579I-1841995J-42990D01*
G01*
X137563190Y-74503633D02*
G75*
G02X137192702Y-74241323I-116279J228561D01*
G01*
X117963190Y-74503633D02*
G75*
G02X117592702Y-74241323I-116279J228561D01*
G01*
X98363190Y-74503633D02*
G75*
G02X97992702Y-74241323I-116279J228561D01*
G01*
X78763190Y-74503633D02*
G75*
G02X78392702Y-74241323I-116279J228561D01*
G01*
X136361830Y-73479697D02*
G75*
G02X137041378Y-72805970I1344867J-676914D01*
G01*
X116761830Y-73479697D02*
G75*
G02X117441378Y-72805970I1344867J-676914D01*
G01*
X97161830Y-73479697D02*
G75*
G02X97841378Y-72805970I1344867J-676914D01*
G01*
X77561830Y-73479697D02*
G75*
G02X78241378Y-72805970I1344867J-676914D01*
G01*
X137420252Y-73014636D02*
G75*
G02X137834194Y-73189633I136927J-253182D01*
G01*
X117820252Y-73014636D02*
G75*
G02X118234194Y-73189633I136927J-253182D01*
G01*
X98220252Y-73014636D02*
G75*
G02X98634194Y-73189633I136927J-253182D01*
G01*
X78620252Y-73014636D02*
G75*
G02X79034194Y-73189633I136927J-253182D01*
G01*
X136614125Y-73766182D02*
G75*
G02X136361829Y-73479697I-49479J210762D01*
G01*
X117014125Y-73766182D02*
G75*
G02X116761829Y-73479697I-49479J210762D01*
G01*
X97414125Y-73766182D02*
G75*
G02X97161829Y-73479697I-49479J210762D01*
G01*
X77814125Y-73766182D02*
G75*
G02X77561829Y-73479697I-49479J210762D01*
G01*
X139635658Y-72087589D02*
G75*
G02X139281730Y-72171227I-253928J283866D01*
G01*
X120035658Y-72087589D02*
G75*
G02X119681730Y-72171227I-253928J283866D01*
G01*
X100435658Y-72087589D02*
G75*
G02X100081730Y-72171227I-253928J283866D01*
G01*
X80835658Y-72087589D02*
G75*
G02X80481730Y-72171227I-253928J283866D01*
G01*
X139381730Y-71671228D02*
G75*
G02X138788279Y-70282356I1340218J1393886D01*
G01*
X119781730Y-71671228D02*
G75*
G02X119188279Y-70282356I1340218J1393886D01*
G01*
X100181730Y-71671228D02*
G75*
G02X99588279Y-70282356I1340218J1393886D01*
G01*
X80581730Y-71671228D02*
G75*
G02X79988279Y-70282356I1340218J1393886D01*
G01*
X137492793Y-72526844D02*
G75*
G02X137420252Y-73014633I-278115J-207929D01*
G01*
X117892793Y-72526844D02*
G75*
G02X117820252Y-73014633I-278115J-207929D01*
G01*
X98292793Y-72526844D02*
G75*
G02X98220252Y-73014633I-278115J-207929D01*
G01*
X78692793Y-72526844D02*
G75*
G02X78620252Y-73014633I-278115J-207929D01*
G01*
X139281730Y-72171227D02*
G75*
G02X138481730Y-70871227I1136275J1595399D01*
G01*
X119681730Y-72171227D02*
G75*
G02X118881730Y-70871227I1136275J1595399D01*
G01*
X100081730Y-72171227D02*
G75*
G02X99281730Y-70871227I1136275J1595399D01*
G01*
X80481730Y-72171227D02*
G75*
G02X79681730Y-70871227I1136275J1595399D01*
G01*
X136424193Y-71550055D02*
X136724706Y-71685795D01*
X116824193Y-71550055D02*
X117124706Y-71685795D01*
X97224193Y-71550055D02*
X97524706Y-71685795D01*
X77624193Y-71550055D02*
X77924706Y-71685795D01*
X134263112Y-70371257D02*
X136424193Y-71550055D01*
X114663112Y-70371257D02*
X116824193Y-71550055D01*
X95063112Y-70371257D02*
X97224193Y-71550055D01*
X75463112Y-70371257D02*
X77624193Y-71550055D01*
X137194255Y-69060071D02*
G75*
G02X137202015Y-71535689I-859100J-1240514D01*
G01*
X117594255Y-69060071D02*
G75*
G02X117602015Y-71535689I-859100J-1240514D01*
G01*
X97994255Y-69060071D02*
G75*
G02X98002015Y-71535689I-859100J-1240514D01*
G01*
X78394255Y-69060071D02*
G75*
G02X78402015Y-71535689I-859100J-1240514D01*
G01*
X136724706Y-71685795D02*
X136724706Y-71685795D01*
X117124706Y-71685795D02*
X117124706Y-71685795D01*
X97524706Y-71685795D02*
X97524706Y-71685795D01*
X77924706Y-71685795D02*
X77924706Y-71685795D01*
X136445042Y-66911214D02*
G75*
G02X137376727Y-67101008I154207J-1624689D01*
G01*
X116845042Y-66911214D02*
G75*
G02X117776727Y-67101008I154207J-1624689D01*
G01*
X97245042Y-66911214D02*
G75*
G02X98176727Y-67101008I154207J-1624689D01*
G01*
X77645042Y-66911214D02*
G75*
G02X78576727Y-67101008I154207J-1624689D01*
G01*
X136281730Y-67271225D02*
G75*
G02X136445041Y-66911212I165344J142043D01*
G01*
X116681730Y-67271225D02*
G75*
G02X116845041Y-66911212I165344J142043D01*
G01*
X97081730Y-67271225D02*
G75*
G02X97245041Y-66911212I165344J142043D01*
G01*
X77481730Y-67271225D02*
G75*
G02X77645041Y-66911212I165344J142043D01*
G01*
X137041588Y-67767492D02*
G75*
G02X136281730Y-67271227I302863J1293593D01*
G01*
X117441588Y-67767492D02*
G75*
G02X116681730Y-67271227I302863J1293593D01*
G01*
X97841588Y-67767492D02*
G75*
G02X97081730Y-67271227I302863J1293593D01*
G01*
X78241588Y-67767492D02*
G75*
G02X77481730Y-67271227I302863J1293593D01*
G01*
X137581729Y-67971227D02*
G75*
G02X136736458Y-68360375I-1207767J1510816D01*
G01*
X117981729Y-67971227D02*
G75*
G02X117136458Y-68360375I-1207767J1510816D01*
G01*
X98381729Y-67971227D02*
G75*
G02X97536458Y-68360375I-1207767J1510816D01*
G01*
X78781729Y-67971227D02*
G75*
G02X77936458Y-68360375I-1207767J1510816D01*
G01*
X136740317Y-68918957D02*
G75*
G02X136140475Y-68413653I865230J1635791D01*
G01*
X117140317Y-68918957D02*
G75*
G02X116540475Y-68413653I865230J1635791D01*
G01*
X97540317Y-68918957D02*
G75*
G02X96940475Y-68413653I865230J1635791D01*
G01*
X77940317Y-68918957D02*
G75*
G02X77340475Y-68413653I865230J1635791D01*
G01*
X136140474Y-68413652D02*
G75*
G02X136181730Y-68071227I134054J157547D01*
G01*
X116540474Y-68413652D02*
G75*
G02X116581730Y-68071227I134054J157547D01*
G01*
X96940474Y-68413652D02*
G75*
G02X96981730Y-68071227I134054J157547D01*
G01*
X77340474Y-68413652D02*
G75*
G02X77381730Y-68071227I134054J157547D01*
G01*
X136740315Y-68918958D02*
X134263112Y-70371257D01*
X117140315Y-68918958D02*
X114663112Y-70371257D01*
X97540315Y-68918958D02*
X95063112Y-70371257D01*
X77940315Y-68918958D02*
X75463112Y-70371257D01*
X136181731Y-68071228D02*
G75*
G02X137041588Y-67767493I951810J-1325550D01*
G01*
X116581731Y-68071228D02*
G75*
G02X117441588Y-67767493I951810J-1325550D01*
G01*
X96981731Y-68071228D02*
G75*
G02X97841588Y-67767493I951810J-1325550D01*
G01*
X77381731Y-68071228D02*
G75*
G02X78241588Y-67767493I951810J-1325550D01*
G01*
X138481729Y-70871229D02*
G75*
G02X138724248Y-68391556I2922247J965892D01*
G01*
X118881729Y-70871229D02*
G75*
G02X119124248Y-68391556I2922247J965892D01*
G01*
X99281729Y-70871229D02*
G75*
G02X99524248Y-68391556I2922247J965892D01*
G01*
X79681729Y-70871229D02*
G75*
G02X79924248Y-68391556I2922247J965892D01*
G01*
X141529452Y-67710791D02*
G75*
G02X141621535Y-67445136I241368J65122D01*
G01*
X121929452Y-67710791D02*
G75*
G02X122021535Y-67445136I241368J65122D01*
G01*
X102329452Y-67710791D02*
G75*
G02X102421535Y-67445136I241368J65122D01*
G01*
X82729452Y-67710791D02*
G75*
G02X82821535Y-67445136I241368J65122D01*
G01*
X139181730Y-66271226D02*
G75*
G02X138714939Y-66401831I-339594J314258D01*
G01*
X119581730Y-66271226D02*
G75*
G02X119114939Y-66401831I-339594J314258D01*
G01*
X99981730Y-66271226D02*
G75*
G02X99514939Y-66401831I-339594J314258D01*
G01*
X80381730Y-66271226D02*
G75*
G02X79914939Y-66401831I-339594J314258D01*
G01*
X138207871Y-66278858D02*
G75*
G02X137881730Y-65471227I3049959J1701315D01*
G01*
X118607871Y-66278858D02*
G75*
G02X118281730Y-65471227I3049959J1701315D01*
G01*
X99007871Y-66278858D02*
G75*
G02X98681730Y-65471227I3049959J1701315D01*
G01*
X79407871Y-66278858D02*
G75*
G02X79081730Y-65471227I3049959J1701315D01*
G01*
X143171896Y-68038602D02*
G75*
G02X142522167Y-67875795I119130J1853296D01*
G01*
X123571896Y-68038602D02*
G75*
G02X122922167Y-67875795I119130J1853296D01*
G01*
X103971896Y-68038602D02*
G75*
G02X103322167Y-67875795I119130J1853296D01*
G01*
X84371896Y-68038602D02*
G75*
G02X83722167Y-67875795I119130J1853296D01*
G01*
X138788280Y-70282356D02*
G75*
G02X139005679Y-68690447I2470995J473349D01*
G01*
X119188280Y-70282356D02*
G75*
G02X119405679Y-68690447I2470995J473349D01*
G01*
X99588280Y-70282356D02*
G75*
G02X99805679Y-68690447I2470995J473349D01*
G01*
X79988280Y-70282356D02*
G75*
G02X80205679Y-68690447I2470995J473349D01*
G01*
X137181730Y-66271228D02*
G75*
G02X137415671Y-66132182I186441J-47359D01*
G01*
X117581730Y-66271228D02*
G75*
G02X117815671Y-66132182I186441J-47359D01*
G01*
X97981730Y-66271228D02*
G75*
G02X98215671Y-66132182I186441J-47359D01*
G01*
X78381730Y-66271228D02*
G75*
G02X78615671Y-66132182I186441J-47359D01*
G01*
X137629229Y-66526155D02*
G75*
G02X137833556Y-67391613I-998350J-692550D01*
G01*
X118029229Y-66526155D02*
G75*
G02X118233556Y-67391613I-998350J-692550D01*
G01*
X98429229Y-66526155D02*
G75*
G02X98633556Y-67391613I-998350J-692550D01*
G01*
X78829229Y-66526155D02*
G75*
G02X79033556Y-67391613I-998350J-692550D01*
G01*
X138606146Y-66718753D02*
G75*
G02X137629228Y-66526156I-270258J1203083D01*
G01*
X119006146Y-66718753D02*
G75*
G02X118029228Y-66526156I-270258J1203083D01*
G01*
X99406146Y-66718753D02*
G75*
G02X98429228Y-66526156I-270258J1203083D01*
G01*
X79806146Y-66718753D02*
G75*
G02X78829228Y-66526156I-270258J1203083D01*
G01*
X138714939Y-66401829D02*
G75*
G02X138606147Y-66718750I-292613J-76686D01*
G01*
X119114939Y-66401829D02*
G75*
G02X119006147Y-66718750I-292613J-76686D01*
G01*
X99514939Y-66401829D02*
G75*
G02X99406147Y-66718750I-292613J-76686D01*
G01*
X79914939Y-66401829D02*
G75*
G02X79806147Y-66718750I-292613J-76686D01*
G01*
X137397971Y-66131494D02*
G75*
G02X138207871Y-66278857I-102376J-2861912D01*
G01*
X117797971Y-66131494D02*
G75*
G02X118607871Y-66278857I-102376J-2861912D01*
G01*
X98197971Y-66131494D02*
G75*
G02X99007871Y-66278857I-102376J-2861912D01*
G01*
X78597971Y-66131494D02*
G75*
G02X79407871Y-66278857I-102376J-2861912D01*
G01*
X137881731Y-65471228D02*
G75*
G02X138170565Y-65261358I204541J22189D01*
G01*
X118281731Y-65471228D02*
G75*
G02X118570565Y-65261358I204541J22189D01*
G01*
X98681731Y-65471228D02*
G75*
G02X98970565Y-65261358I204541J22189D01*
G01*
X79081731Y-65471228D02*
G75*
G02X79370565Y-65261358I204541J22189D01*
G01*
X139366169Y-71656098D02*
G75*
G02X139635658Y-72087589I-166537J-403911D01*
G01*
X119766169Y-71656098D02*
G75*
G02X120035658Y-72087589I-166537J-403911D01*
G01*
X100166169Y-71656098D02*
G75*
G02X100435658Y-72087589I-166537J-403911D01*
G01*
X80566169Y-71656098D02*
G75*
G02X80835658Y-72087589I-166537J-403911D01*
G01*
X137133617Y-72355355D02*
G75*
G02X137492793Y-72526847I-13760J-490697D01*
G01*
X117533617Y-72355355D02*
G75*
G02X117892793Y-72526847I-13760J-490697D01*
G01*
X97933617Y-72355355D02*
G75*
G02X98292793Y-72526847I-13760J-490697D01*
G01*
X78333617Y-72355355D02*
G75*
G02X78692793Y-72526847I-13760J-490697D01*
G01*
X137133615Y-72355355D02*
G75*
G02X136773567Y-72161339I10493J450564D01*
G01*
X117533615Y-72355355D02*
G75*
G02X117173567Y-72161339I10493J450564D01*
G01*
X97933615Y-72355355D02*
G75*
G02X97573567Y-72161339I10493J450564D01*
G01*
X78333615Y-72355355D02*
G75*
G02X77973567Y-72161339I10493J450564D01*
G01*
X138881501Y-74721449D02*
G75*
G02X138261446Y-75331049I-1978469J1392255D01*
G01*
X119281501Y-74721449D02*
G75*
G02X118661446Y-75331049I-1978469J1392255D01*
G01*
X99681501Y-74721449D02*
G75*
G02X99061446Y-75331049I-1978469J1392255D01*
G01*
X80081501Y-74721449D02*
G75*
G02X79461446Y-75331049I-1978469J1392255D01*
G01*
X136773567Y-72161338D02*
G75*
G02X137181731Y-71871226I715341J-574244D01*
G01*
X117173567Y-72161338D02*
G75*
G02X117581731Y-71871226I715341J-574244D01*
G01*
X97573567Y-72161338D02*
G75*
G02X97981731Y-71871226I715341J-574244D01*
G01*
X77973567Y-72161338D02*
G75*
G02X78381731Y-71871226I715341J-574244D01*
G01*
X137202014Y-71535686D02*
G75*
G02X137181731Y-71871226I-93067J-162757D01*
G01*
X117602014Y-71535686D02*
G75*
G02X117581731Y-71871226I-93067J-162757D01*
G01*
X98002014Y-71535686D02*
G75*
G02X97981731Y-71871226I-93067J-162757D01*
G01*
X78402014Y-71535686D02*
G75*
G02X78381731Y-71871226I-93067J-162757D01*
G01*
X140381730Y-76071228D02*
G75*
G02X140624221Y-75700318I908616J-329307D01*
G01*
X120781730Y-76071228D02*
G75*
G02X121024221Y-75700318I908616J-329307D01*
G01*
X101181730Y-76071228D02*
G75*
G02X101424221Y-75700318I908616J-329307D01*
G01*
X81581730Y-76071228D02*
G75*
G02X81824221Y-75700318I908616J-329307D01*
G01*
X140762174Y-75116324D02*
G75*
G02X141128783Y-76053536I-1296636J-1047515D01*
G01*
X121162174Y-75116324D02*
G75*
G02X121528783Y-76053536I-1296636J-1047515D01*
G01*
X101562174Y-75116324D02*
G75*
G02X101928783Y-76053536I-1296636J-1047515D01*
G01*
X81962174Y-75116324D02*
G75*
G02X82328783Y-76053536I-1296636J-1047515D01*
G01*
X140394358Y-75222581D02*
G75*
G02X140762174Y-75116325I223997J-85643D01*
G01*
X120794358Y-75222581D02*
G75*
G02X121162174Y-75116325I223997J-85643D01*
G01*
X101194358Y-75222581D02*
G75*
G02X101562174Y-75116325I223997J-85643D01*
G01*
X81594358Y-75222581D02*
G75*
G02X81962174Y-75116325I223997J-85643D01*
G01*
X139881729Y-76471228D02*
G75*
G02X139781730Y-76071227I588740J359684D01*
G01*
X120281729Y-76471228D02*
G75*
G02X120181730Y-76071227I588740J359684D01*
G01*
X100681729Y-76471228D02*
G75*
G02X100581730Y-76071227I588740J359684D01*
G01*
X81081729Y-76471228D02*
G75*
G02X80981730Y-76071227I588740J359684D01*
G01*
X140381730Y-76071227D02*
G75*
G02X139881730Y-76471227I-986084J720106D01*
G01*
X120781730Y-76071227D02*
G75*
G02X120281730Y-76471227I-986084J720106D01*
G01*
X101181730Y-76071227D02*
G75*
G02X100681730Y-76471227I-986084J720106D01*
G01*
X81581730Y-76071227D02*
G75*
G02X81081730Y-76471227I-986084J720106D01*
G01*
X146481729Y-74071228D02*
G75*
G02X146450788Y-73157142I1189083J497816D01*
G01*
X126881729Y-74071228D02*
G75*
G02X126850788Y-73157142I1189083J497816D01*
G01*
X107281729Y-74071228D02*
G75*
G02X107250788Y-73157142I1189083J497816D01*
G01*
X87681729Y-74071228D02*
G75*
G02X87650788Y-73157142I1189083J497816D01*
G01*
X145438150Y-74268217D02*
G75*
G02X145618979Y-73966197I269749J43636D01*
G01*
X125838150Y-74268217D02*
G75*
G02X126018979Y-73966197I269749J43636D01*
G01*
X106238150Y-74268217D02*
G75*
G02X106418979Y-73966197I269749J43636D01*
G01*
X86638150Y-74268217D02*
G75*
G02X86818979Y-73966197I269749J43636D01*
G01*
X145618980Y-73966197D02*
G75*
G02X146481731Y-74071228I269004J-1386269D01*
G01*
X126018980Y-73966197D02*
G75*
G02X126881731Y-74071228I269004J-1386269D01*
G01*
X106418980Y-73966197D02*
G75*
G02X107281731Y-74071228I269004J-1386269D01*
G01*
X86818980Y-73966197D02*
G75*
G02X87681731Y-74071228I269004J-1386269D01*
G01*
X144970355Y-75231564D02*
G75*
G02X145081729Y-74371227I1976858J181465D01*
G01*
X125370355Y-75231564D02*
G75*
G02X125481729Y-74371227I1976858J181465D01*
G01*
X105770355Y-75231564D02*
G75*
G02X105881729Y-74371227I1976858J181465D01*
G01*
X86170355Y-75231564D02*
G75*
G02X86281729Y-74371227I1976858J181465D01*
G01*
X145081732Y-74371228D02*
G75*
G02X145438148Y-74268219I214353J-73558D01*
G01*
X125481732Y-74371228D02*
G75*
G02X125838148Y-74268219I214353J-73558D01*
G01*
X105881732Y-74371228D02*
G75*
G02X106238148Y-74268219I214353J-73558D01*
G01*
X86281732Y-74371228D02*
G75*
G02X86638148Y-74268219I214353J-73558D01*
G01*
X148010006Y-73455775D02*
G75*
G02X147692140Y-73824726I-168897J-175891D01*
G01*
X128410006Y-73455775D02*
G75*
G02X128092140Y-73824726I-168897J-175891D01*
G01*
X108810006Y-73455775D02*
G75*
G02X108492140Y-73824726I-168897J-175891D01*
G01*
X89210006Y-73455775D02*
G75*
G02X88892140Y-73824726I-168897J-175891D01*
G01*
X146450789Y-73157143D02*
G75*
G02X146729748Y-73028115I260165J-196409D01*
G01*
X126850789Y-73157143D02*
G75*
G02X127129748Y-73028115I260165J-196409D01*
G01*
X107250789Y-73157143D02*
G75*
G02X107529748Y-73028115I260165J-196409D01*
G01*
X87650789Y-73157143D02*
G75*
G02X87929748Y-73028115I260165J-196409D01*
G01*
X148107960Y-72428019D02*
G75*
G02X147555072Y-72732486I-563950J369854D01*
G01*
X128507960Y-72428019D02*
G75*
G02X127955072Y-72732486I-563950J369854D01*
G01*
X108907960Y-72428019D02*
G75*
G02X108355072Y-72732486I-563950J369854D01*
G01*
X89307960Y-72428019D02*
G75*
G02X88755072Y-72732486I-563950J369854D01*
G01*
X146692108Y-72741566D02*
G75*
G02X147481730Y-72271227I668579J-224442D01*
G01*
X127092108Y-72741566D02*
G75*
G02X127881730Y-72271227I668579J-224442D01*
G01*
X107492108Y-72741566D02*
G75*
G02X108281730Y-72271227I668579J-224442D01*
G01*
X87892108Y-72741566D02*
G75*
G02X88681730Y-72271227I668579J-224442D01*
G01*
X146729747Y-73028114D02*
G75*
G02X146692106Y-72741566I343176J190826D01*
G01*
X127129747Y-73028114D02*
G75*
G02X127092106Y-72741566I343176J190826D01*
G01*
X107529747Y-73028114D02*
G75*
G02X107492106Y-72741566I343176J190826D01*
G01*
X87929747Y-73028114D02*
G75*
G02X87892106Y-72741566I343176J190826D01*
G01*
X147547043Y-71684825D02*
G75*
G02X148107958Y-72428020I-2199889J-2243598D01*
G01*
X127947043Y-71684825D02*
G75*
G02X128507958Y-72428020I-2199889J-2243598D01*
G01*
X108347043Y-71684825D02*
G75*
G02X108907958Y-72428020I-2199889J-2243598D01*
G01*
X88747043Y-71684825D02*
G75*
G02X89307958Y-72428020I-2199889J-2243598D01*
G01*
X147232372Y-72851263D02*
G75*
G02X147555072Y-72732486I374241J-519005D01*
G01*
X127632372Y-72851263D02*
G75*
G02X127955072Y-72732486I374241J-519005D01*
G01*
X108032372Y-72851263D02*
G75*
G02X108355072Y-72732486I374241J-519005D01*
G01*
X88432372Y-72851263D02*
G75*
G02X88755072Y-72732486I374241J-519005D01*
G01*
X144702378Y-74200131D02*
X143902498Y-73351257D01*
X125102378Y-74200131D02*
X124302498Y-73351257D01*
X105502378Y-74200131D02*
X104702498Y-73351257D01*
X85902378Y-74200131D02*
X85102498Y-73351257D01*
X142689826Y-71504115D02*
X142062674Y-71504113D01*
X123089826Y-71504115D02*
X122462674Y-71504113D01*
X103489826Y-71504115D02*
X102862674Y-71504113D01*
X83889826Y-71504115D02*
X83262674Y-71504113D01*
X142062674Y-71504113D02*
X142302827Y-71754674D01*
X122462674Y-71504113D02*
X122702827Y-71754674D01*
X102862674Y-71504113D02*
X103102827Y-71754674D01*
X83262674Y-71504113D02*
X83502827Y-71754674D01*
X143276230Y-72733545D02*
X143276230Y-72733545D01*
X123676230Y-72733545D02*
X123676230Y-72733545D01*
X104076230Y-72733545D02*
X104076230Y-72733545D01*
X84476230Y-72733545D02*
X84476230Y-72733545D01*
X142689826Y-71504115D02*
X145061992Y-73877516D01*
X123089826Y-71504115D02*
X125461992Y-73877516D01*
X103489826Y-71504115D02*
X105861992Y-73877516D01*
X83889826Y-71504115D02*
X86261992Y-73877516D01*
X143902498Y-73351257D02*
X143902498Y-73351257D01*
X124302498Y-73351257D02*
X124302498Y-73351257D01*
X104702498Y-73351257D02*
X104702498Y-73351257D01*
X85102498Y-73351257D02*
X85102498Y-73351257D01*
X141581732Y-72971228D02*
G75*
G02X141418920Y-72470375I345020J389045D01*
G01*
X121981732Y-72971228D02*
G75*
G02X121818920Y-72470375I345020J389045D01*
G01*
X102381732Y-72971228D02*
G75*
G02X102218920Y-72470375I345020J389045D01*
G01*
X82781732Y-72971228D02*
G75*
G02X82618920Y-72470375I345020J389045D01*
G01*
X142252502Y-75567464D02*
G75*
G02X142081730Y-75771226I-290803J70278D01*
G01*
X122652502Y-75567464D02*
G75*
G02X122481730Y-75771226I-290803J70278D01*
G01*
X103052502Y-75567464D02*
G75*
G02X102881730Y-75771226I-290803J70278D01*
G01*
X83452502Y-75567464D02*
G75*
G02X83281730Y-75771226I-290803J70278D01*
G01*
X141128783Y-76053536D02*
G75*
G02X141881730Y-75471228I683782J-106208D01*
G01*
X121528783Y-76053536D02*
G75*
G02X122281730Y-75471228I683782J-106208D01*
G01*
X101928783Y-76053536D02*
G75*
G02X102681730Y-75471228I683782J-106208D01*
G01*
X82328783Y-76053536D02*
G75*
G02X83081730Y-75471228I683782J-106208D01*
G01*
X141764840Y-75965342D02*
G75*
G02X141281730Y-76571227I-1759172J907149D01*
G01*
X122164840Y-75965342D02*
G75*
G02X121681730Y-76571227I-1759172J907149D01*
G01*
X102564840Y-75965342D02*
G75*
G02X102081730Y-76571227I-1759172J907149D01*
G01*
X82964840Y-75965342D02*
G75*
G02X82481730Y-76571227I-1759172J907149D01*
G01*
X141281731Y-76571230D02*
G75*
G02X140844578Y-76404447I-177919J189958D01*
G01*
X121681731Y-76571230D02*
G75*
G02X121244578Y-76404447I-177919J189958D01*
G01*
X102081731Y-76571230D02*
G75*
G02X101644578Y-76404447I-177919J189958D01*
G01*
X82481731Y-76571230D02*
G75*
G02X82044578Y-76404447I-177919J189958D01*
G01*
X142081730Y-75771228D02*
G75*
G02X141881730Y-75471228I349999J450000D01*
G01*
X122481730Y-75771228D02*
G75*
G02X122281730Y-75471228I349999J450000D01*
G01*
X102881730Y-75771228D02*
G75*
G02X102681730Y-75471228I349999J450000D01*
G01*
X83281730Y-75771228D02*
G75*
G02X83081730Y-75471228I349999J450000D01*
G01*
X143281731Y-75571227D02*
G75*
G02X143881731Y-75071227I500000J10000D01*
G01*
X123681731Y-75571227D02*
G75*
G02X124281731Y-75071227I500000J10000D01*
G01*
X104081731Y-75571227D02*
G75*
G02X104681731Y-75071227I500000J10000D01*
G01*
X84481731Y-75571227D02*
G75*
G02X85081731Y-75071227I500000J10000D01*
G01*
X143281731Y-75571228D02*
G75*
G02X143151082Y-76044806I-1004804J22391D01*
G01*
X123681731Y-75571228D02*
G75*
G02X123551082Y-76044806I-1004804J22391D01*
G01*
X104081731Y-75571228D02*
G75*
G02X103951082Y-76044806I-1004804J22391D01*
G01*
X84481731Y-75571228D02*
G75*
G02X84351082Y-76044806I-1004804J22391D01*
G01*
X143881730Y-75071227D02*
G75*
G02X144130359Y-74828114I346159J-105322D01*
G01*
X124281730Y-75071227D02*
G75*
G02X124530359Y-74828114I346159J-105322D01*
G01*
X104681730Y-75071227D02*
G75*
G02X104930359Y-74828114I346159J-105322D01*
G01*
X85081730Y-75071227D02*
G75*
G02X85330359Y-74828114I346159J-105322D01*
G01*
X142252504Y-75567463D02*
G75*
G02X143151082Y-76044806I98529J-898964D01*
G01*
X122652504Y-75567463D02*
G75*
G02X123551082Y-76044806I98529J-898964D01*
G01*
X103052504Y-75567463D02*
G75*
G02X103951082Y-76044806I98529J-898964D01*
G01*
X83452504Y-75567463D02*
G75*
G02X84351082Y-76044806I98529J-898964D01*
G01*
X147232370Y-72851264D02*
G75*
G02X148010005Y-73455775I-805340J-1838403D01*
G01*
X127632370Y-72851264D02*
G75*
G02X128410005Y-73455775I-805340J-1838403D01*
G01*
X108032370Y-72851264D02*
G75*
G02X108810005Y-73455775I-805340J-1838403D01*
G01*
X88432370Y-72851264D02*
G75*
G02X89210005Y-73455775I-805340J-1838403D01*
G01*
X149173705Y-75306530D02*
G75*
G02X147055538Y-74611029I-302715J2651292D01*
G01*
X129573705Y-75306530D02*
G75*
G02X127455538Y-74611029I-302715J2651292D01*
G01*
X109973705Y-75306530D02*
G75*
G02X107855538Y-74611029I-302715J2651292D01*
G01*
X90373705Y-75306530D02*
G75*
G02X88255538Y-74611029I-302715J2651292D01*
G01*
X149281731Y-75871227D02*
G75*
G02X145381730Y-76471228I-2518751J3396875D01*
G01*
X129681731Y-75871227D02*
G75*
G02X125781730Y-76471228I-2518751J3396875D01*
G01*
X110081731Y-75871227D02*
G75*
G02X106181730Y-76471228I-2518751J3396875D01*
G01*
X90481731Y-75871227D02*
G75*
G02X86581730Y-76471228I-2518751J3396875D01*
G01*
X141952930Y-76827574D02*
G75*
G02X141764840Y-75965341I5260702J1599216D01*
G01*
X122352930Y-76827574D02*
G75*
G02X122164840Y-75965341I5260702J1599216D01*
G01*
X102752930Y-76827574D02*
G75*
G02X102564840Y-75965341I5260702J1599216D01*
G01*
X83152930Y-76827574D02*
G75*
G02X82964840Y-75965341I5260702J1599216D01*
G01*
X144130360Y-74828115D02*
G75*
G02X144970356Y-75231564I-27970J-1134411D01*
G01*
X124530360Y-74828115D02*
G75*
G02X125370356Y-75231564I-27970J-1134411D01*
G01*
X104930360Y-74828115D02*
G75*
G02X105770356Y-75231564I-27970J-1134411D01*
G01*
X85330360Y-74828115D02*
G75*
G02X86170356Y-75231564I-27970J-1134411D01*
G01*
X145381730Y-76471227D02*
G75*
G02X144681730Y-75771227I850059J1550059D01*
G01*
X125781730Y-76471227D02*
G75*
G02X125081730Y-75771227I850059J1550059D01*
G01*
X106181730Y-76471227D02*
G75*
G02X105481730Y-75771227I850059J1550059D01*
G01*
X86581730Y-76471227D02*
G75*
G02X85881730Y-75771227I850059J1550059D01*
G01*
X141621534Y-67445134D02*
G75*
G02X144128630Y-67082131I1588853J-2134294D01*
G01*
X122021534Y-67445134D02*
G75*
G02X124528630Y-67082131I1588853J-2134294D01*
G01*
X102421534Y-67445134D02*
G75*
G02X104928630Y-67082131I1588853J-2134294D01*
G01*
X82821534Y-67445134D02*
G75*
G02X85328630Y-67082131I1588853J-2134294D01*
G01*
X142522167Y-67875796D02*
G75*
G02X142412033Y-67531810I82013J215882D01*
G01*
X122922167Y-67875796D02*
G75*
G02X122812033Y-67531810I82013J215882D01*
G01*
X103322167Y-67875796D02*
G75*
G02X103212033Y-67531810I82013J215882D01*
G01*
X83722167Y-67875796D02*
G75*
G02X83612033Y-67531810I82013J215882D01*
G01*
X142060117Y-69156026D02*
X142539188Y-68670867D01*
X122460117Y-69156026D02*
X122939188Y-68670867D01*
X102860117Y-69156026D02*
X103339188Y-68670867D01*
X83260117Y-69156026D02*
X83739188Y-68670867D01*
X145061992Y-66782537D02*
X142689825Y-69156025D01*
X125461992Y-66782537D02*
X123089825Y-69156025D01*
X105861992Y-66782537D02*
X103489825Y-69156025D01*
X86261992Y-66782537D02*
X83889825Y-69156025D01*
X145493615Y-66259103D02*
G75*
G02X145739492Y-66437349I111682J-104651D01*
G01*
X125893615Y-66259103D02*
G75*
G02X126139492Y-66437349I111682J-104651D01*
G01*
X106293615Y-66259103D02*
G75*
G02X106539492Y-66437349I111682J-104651D01*
G01*
X86693615Y-66259103D02*
G75*
G02X86939492Y-66437349I111682J-104651D01*
G01*
X144742549Y-66472886D02*
X144128630Y-67082131D01*
X125142549Y-66472886D02*
X124528630Y-67082131D01*
X105542549Y-66472886D02*
X104928630Y-67082131D01*
X85942549Y-66472886D02*
X85328630Y-67082131D01*
X145061992Y-66782537D02*
X144742549Y-66472886D01*
X125461992Y-66782537D02*
X125142549Y-66472886D01*
X105861992Y-66782537D02*
X105542549Y-66472886D01*
X86261992Y-66782537D02*
X85942549Y-66472886D01*
X147056410Y-66434359D02*
G75*
G02X146897404Y-67102330I-1948968J111027D01*
G01*
X127456410Y-66434359D02*
G75*
G02X127297404Y-67102330I-1948968J111027D01*
G01*
X107856410Y-66434359D02*
G75*
G02X107697404Y-67102330I-1948968J111027D01*
G01*
X88256410Y-66434359D02*
G75*
G02X88097404Y-67102330I-1948968J111027D01*
G01*
X146799900Y-68010580D02*
G75*
G02X146781729Y-67671227I63417J173559D01*
G01*
X127199900Y-68010580D02*
G75*
G02X127181729Y-67671227I63417J173559D01*
G01*
X107599900Y-68010580D02*
G75*
G02X107581729Y-67671227I63417J173559D01*
G01*
X87999900Y-68010580D02*
G75*
G02X87981729Y-67671227I63417J173559D01*
G01*
X140072487Y-65741977D02*
G75*
G02X139303777Y-65360401I648718J2271982D01*
G01*
X120472487Y-65741977D02*
G75*
G02X119703777Y-65360401I648718J2271982D01*
G01*
X100872487Y-65741977D02*
G75*
G02X100103777Y-65360401I648718J2271982D01*
G01*
X81272487Y-65741977D02*
G75*
G02X80503777Y-65360401I648718J2271982D01*
G01*
X146781731Y-67671225D02*
G75*
G02X146458776Y-67528535I-94249J223505D01*
G01*
X127181731Y-67671225D02*
G75*
G02X126858776Y-67528535I-94249J223505D01*
G01*
X107581731Y-67671225D02*
G75*
G02X107258776Y-67528535I-94249J223505D01*
G01*
X87981731Y-67671225D02*
G75*
G02X87658776Y-67528535I-94249J223505D01*
G01*
X147056410Y-66434357D02*
G75*
G02X147065945Y-66120725I604373J138587D01*
G01*
X127456410Y-66434357D02*
G75*
G02X127465945Y-66120725I604373J138587D01*
G01*
X107856410Y-66434357D02*
G75*
G02X107865945Y-66120725I604373J138587D01*
G01*
X88256410Y-66434357D02*
G75*
G02X88265945Y-66120725I604373J138587D01*
G01*
X145995802Y-66726438D02*
G75*
G02X145739492Y-66437349I-61675J203487D01*
G01*
X126395802Y-66726438D02*
G75*
G02X126139492Y-66437349I-61675J203487D01*
G01*
X106795802Y-66726438D02*
G75*
G02X106539492Y-66437349I-61675J203487D01*
G01*
X87195802Y-66726438D02*
G75*
G02X86939492Y-66437349I-61675J203487D01*
G01*
X146642261Y-66526420D02*
G75*
G02X145995800Y-66726438I-561750J670889D01*
G01*
X127042261Y-66526420D02*
G75*
G02X126395800Y-66726438I-561750J670889D01*
G01*
X107442261Y-66526420D02*
G75*
G02X106795800Y-66726438I-561750J670889D01*
G01*
X87842261Y-66526420D02*
G75*
G02X87195800Y-66726438I-561750J670889D01*
G01*
X146458773Y-67528535D02*
G75*
G02X146642260Y-66526419I1040720J327301D01*
G01*
X126858773Y-67528535D02*
G75*
G02X127042260Y-66526419I1040720J327301D01*
G01*
X107258773Y-67528535D02*
G75*
G02X107442260Y-66526419I1040720J327301D01*
G01*
X87658773Y-67528535D02*
G75*
G02X87842260Y-66526419I1040720J327301D01*
G01*
X147596926Y-66858896D02*
G75*
G02X147924863Y-67038871I43184J-310071D01*
G01*
X127996926Y-66858896D02*
G75*
G02X128324863Y-67038871I43184J-310071D01*
G01*
X108396926Y-66858896D02*
G75*
G02X108724863Y-67038871I43184J-310071D01*
G01*
X88796926Y-66858896D02*
G75*
G02X89124863Y-67038871I43184J-310071D01*
G01*
X147924863Y-67038871D02*
G75*
G02X147233689Y-67766258I-952887J213372D01*
G01*
X128324863Y-67038871D02*
G75*
G02X127633689Y-67766258I-952887J213372D01*
G01*
X108724863Y-67038871D02*
G75*
G02X108033689Y-67766258I-952887J213372D01*
G01*
X89124863Y-67038871D02*
G75*
G02X88433689Y-67766258I-952887J213372D01*
G01*
X147600230Y-68277873D02*
G75*
G02X146799900Y-68010580I-39300J1214148D01*
G01*
X128000230Y-68277873D02*
G75*
G02X127199900Y-68010580I-39300J1214148D01*
G01*
X108400230Y-68277873D02*
G75*
G02X107599900Y-68010580I-39300J1214148D01*
G01*
X88800230Y-68277873D02*
G75*
G02X87999900Y-68010580I-39300J1214148D01*
G01*
X147233690Y-67766259D02*
G75*
G02X148143395Y-68154238I-53278J-1385417D01*
G01*
X127633690Y-67766259D02*
G75*
G02X128543395Y-68154238I-53278J-1385417D01*
G01*
X108033690Y-67766259D02*
G75*
G02X108943395Y-68154238I-53278J-1385417D01*
G01*
X88433690Y-67766259D02*
G75*
G02X89343395Y-68154238I-53278J-1385417D01*
G01*
X148143394Y-68154237D02*
G75*
G02X147536461Y-68896381I-1041300J232336D01*
G01*
X128543394Y-68154237D02*
G75*
G02X127936461Y-68896381I-1041300J232336D01*
G01*
X108943394Y-68154237D02*
G75*
G02X108336461Y-68896381I-1041300J232336D01*
G01*
X89343394Y-68154237D02*
G75*
G02X88736461Y-68896381I-1041300J232336D01*
G01*
X145145534Y-66347908D02*
G75*
G02X144970484Y-65383633I1396502J751541D01*
G01*
X125545534Y-66347908D02*
G75*
G02X125370484Y-65383633I1396502J751541D01*
G01*
X105945534Y-66347908D02*
G75*
G02X105770484Y-65383633I1396502J751541D01*
G01*
X86345534Y-66347908D02*
G75*
G02X86170484Y-65383633I1396502J751541D01*
G01*
X145493617Y-66259102D02*
G75*
G02X145145533Y-66347909I-231697J181576D01*
G01*
X125893617Y-66259102D02*
G75*
G02X125545533Y-66347909I-231697J181576D01*
G01*
X106293617Y-66259102D02*
G75*
G02X105945533Y-66347909I-231697J181576D01*
G01*
X86693617Y-66259102D02*
G75*
G02X86345533Y-66347909I-231697J181576D01*
G01*
X149181730Y-64771227D02*
G75*
G02X149533271Y-65262417I-602846J-802845D01*
G01*
X129581730Y-64771227D02*
G75*
G02X129933271Y-65262417I-602846J-802845D01*
G01*
X109981730Y-64771227D02*
G75*
G02X110333271Y-65262417I-602846J-802845D01*
G01*
X90381730Y-64771227D02*
G75*
G02X90733271Y-65262417I-602846J-802845D01*
G01*
X147065943Y-66120726D02*
G75*
G02X149184021Y-65425224I1838597J-2026311D01*
G01*
X127465943Y-66120726D02*
G75*
G02X129584021Y-65425224I1838597J-2026311D01*
G01*
X107865943Y-66120726D02*
G75*
G02X109984021Y-65425224I1838597J-2026311D01*
G01*
X88265943Y-66120726D02*
G75*
G02X90384021Y-65425224I1838597J-2026311D01*
G01*
X149533270Y-65262418D02*
G75*
G02X149184021Y-65425224I-255674J92463D01*
G01*
X129933270Y-65262418D02*
G75*
G02X129584021Y-65425224I-255674J92463D01*
G01*
X110333270Y-65262418D02*
G75*
G02X109984021Y-65425224I-255674J92463D01*
G01*
X90733270Y-65262418D02*
G75*
G02X90384021Y-65425224I-255674J92463D01*
G01*
X144914354Y-64954001D02*
G75*
G02X145581731Y-64371228I2032446J-1653986D01*
G01*
X125314354Y-64954001D02*
G75*
G02X125981731Y-64371228I2032446J-1653986D01*
G01*
X105714354Y-64954001D02*
G75*
G02X106381731Y-64371228I2032446J-1653986D01*
G01*
X86114354Y-64954001D02*
G75*
G02X86781731Y-64371228I2032446J-1653986D01*
G01*
X145581731Y-64371227D02*
G75*
G02X149181730Y-64771228I1449999J-3350000D01*
G01*
X125981731Y-64371227D02*
G75*
G02X129581730Y-64771228I1449999J-3350000D01*
G01*
X106381731Y-64371227D02*
G75*
G02X109981730Y-64771228I1449999J-3350000D01*
G01*
X86781731Y-64371227D02*
G75*
G02X90381730Y-64771228I1449999J-3350000D01*
G01*
X142617505Y-72091136D02*
X143276230Y-72733545D01*
X123017505Y-72091136D02*
X123676230Y-72733545D01*
X103417505Y-72091136D02*
X104076230Y-72733545D01*
X83817505Y-72091136D02*
X84476230Y-72733545D01*
X143902498Y-73351259D02*
G75*
G02X141581730Y-72971227I-813739J2306901D01*
G01*
X124302498Y-73351259D02*
G75*
G02X121981730Y-72971227I-813739J2306901D01*
G01*
X104702498Y-73351259D02*
G75*
G02X102381730Y-72971227I-813739J2306901D01*
G01*
X85102498Y-73351259D02*
G75*
G02X82781730Y-72971227I-813739J2306901D01*
G01*
X142381730Y-72571228D02*
G75*
G02X142617505Y-72091136I333661J134079D01*
G01*
X122781730Y-72571228D02*
G75*
G02X123017505Y-72091136I333661J134079D01*
G01*
X103181730Y-72571228D02*
G75*
G02X103417505Y-72091136I333661J134079D01*
G01*
X83581730Y-72571228D02*
G75*
G02X83817505Y-72091136I333661J134079D01*
G01*
X143276228Y-72733544D02*
G75*
G02X142381730Y-72571227I-240557J1220200D01*
G01*
X123676228Y-72733544D02*
G75*
G02X122781730Y-72571227I-240557J1220200D01*
G01*
X104076228Y-72733544D02*
G75*
G02X103181730Y-72571227I-240557J1220200D01*
G01*
X84476228Y-72733544D02*
G75*
G02X83581730Y-72571227I-240557J1220200D01*
G01*
X147662051Y-69700096D02*
G75*
G02X148322716Y-70276447I-1351551J-2216102D01*
G01*
X128062051Y-69700096D02*
G75*
G02X128722716Y-70276447I-1351551J-2216102D01*
G01*
X108462051Y-69700096D02*
G75*
G02X109122716Y-70276447I-1351551J-2216102D01*
G01*
X88862051Y-69700096D02*
G75*
G02X89522716Y-70276447I-1351551J-2216102D01*
G01*
X147622803Y-70880227D02*
G75*
G02X148681730Y-71371227I-615979J-2715844D01*
G01*
X128022803Y-70880227D02*
G75*
G02X129081730Y-71371227I-615979J-2715844D01*
G01*
X108422803Y-70880227D02*
G75*
G02X109481730Y-71371227I-615979J-2715844D01*
G01*
X88822803Y-70880227D02*
G75*
G02X89881730Y-71371227I-615979J-2715844D01*
G01*
X147442185Y-71267049D02*
G75*
G02X147103516Y-71039266I-49773J291657D01*
G01*
X127842185Y-71267049D02*
G75*
G02X127503516Y-71039266I-49773J291657D01*
G01*
X108242185Y-71267049D02*
G75*
G02X107903516Y-71039266I-49773J291657D01*
G01*
X88642185Y-71267049D02*
G75*
G02X88303516Y-71039266I-49773J291657D01*
G01*
X147481730Y-72271227D02*
G75*
G02X147058361Y-71698484I931155J1131154D01*
G01*
X127881730Y-72271227D02*
G75*
G02X127458361Y-71698484I931155J1131154D01*
G01*
X108281730Y-72271227D02*
G75*
G02X107858361Y-71698484I931155J1131154D01*
G01*
X88681730Y-72271227D02*
G75*
G02X88258361Y-71698484I931155J1131154D01*
G01*
X147058361Y-71698486D02*
G75*
G02X147442182Y-71267047I307194J113160D01*
G01*
X127458361Y-71698486D02*
G75*
G02X127842182Y-71267047I307194J113160D01*
G01*
X107858361Y-71698486D02*
G75*
G02X108242182Y-71267047I307194J113160D01*
G01*
X88258361Y-71698486D02*
G75*
G02X88642182Y-71267047I307194J113160D01*
G01*
X143171896Y-68038603D02*
X143750363Y-67434557D01*
X123571896Y-68038603D02*
X124150363Y-67434557D01*
X103971896Y-68038603D02*
X104550363Y-67434557D01*
X84371896Y-68038603D02*
X84950363Y-67434557D01*
X148322715Y-70276448D02*
G75*
G02X147581731Y-70871228I-822453J265669D01*
G01*
X128722715Y-70276448D02*
G75*
G02X127981731Y-70871228I-822453J265669D01*
G01*
X109122715Y-70276448D02*
G75*
G02X108381731Y-70871228I-822453J265669D01*
G01*
X89522715Y-70276448D02*
G75*
G02X88781731Y-70871228I-822453J265669D01*
G01*
X147081731Y-69671227D02*
G75*
G02X147343764Y-69375569I359710J-54856D01*
G01*
X127481731Y-69671227D02*
G75*
G02X127743764Y-69375569I359710J-54856D01*
G01*
X107881731Y-69671227D02*
G75*
G02X108143764Y-69375569I359710J-54856D01*
G01*
X88281731Y-69671227D02*
G75*
G02X88543764Y-69375569I359710J-54856D01*
G01*
X142689825Y-69156025D02*
X142060117Y-69156026D01*
X123089825Y-69156025D02*
X122460117Y-69156026D01*
X103489825Y-69156025D02*
X102860117Y-69156026D01*
X83889825Y-69156025D02*
X83260117Y-69156026D01*
X147662051Y-69700099D02*
G75*
G02X148214348Y-69539222I709979J-1408927D01*
G01*
X128062051Y-69700099D02*
G75*
G02X128614348Y-69539222I709979J-1408927D01*
G01*
X108462051Y-69700099D02*
G75*
G02X109014348Y-69539222I709979J-1408927D01*
G01*
X88862051Y-69700099D02*
G75*
G02X89414348Y-69539222I709979J-1408927D01*
G01*
X146981731Y-68971227D02*
G75*
G02X147600229Y-68277873I1072093J-333809D01*
G01*
X127381731Y-68971227D02*
G75*
G02X128000229Y-68277873I1072093J-333809D01*
G01*
X107781731Y-68971227D02*
G75*
G02X108400229Y-68277873I1072093J-333809D01*
G01*
X88181731Y-68971227D02*
G75*
G02X88800229Y-68277873I1072093J-333809D01*
G01*
X147381729Y-69371228D02*
G75*
G02X147149451Y-69306309I-49998J269109D01*
G01*
X127781729Y-69371228D02*
G75*
G02X127549451Y-69306309I-49998J269109D01*
G01*
X108181729Y-69371228D02*
G75*
G02X107949451Y-69306309I-49998J269109D01*
G01*
X88581729Y-69371228D02*
G75*
G02X88349451Y-69306309I-49998J269109D01*
G01*
X148537889Y-69181624D02*
G75*
G02X148214348Y-69539222I-366996J6881D01*
G01*
X128937889Y-69181624D02*
G75*
G02X128614348Y-69539222I-366996J6881D01*
G01*
X109337889Y-69181624D02*
G75*
G02X109014348Y-69539222I-366996J6881D01*
G01*
X89737889Y-69181624D02*
G75*
G02X89414348Y-69539222I-366996J6881D01*
G01*
X147536463Y-68896381D02*
G75*
G02X148537890Y-69181624I131717J-1438089D01*
G01*
X127936463Y-68896381D02*
G75*
G02X128937890Y-69181624I131717J-1438089D01*
G01*
X108336463Y-68896381D02*
G75*
G02X109337890Y-69181624I131717J-1438089D01*
G01*
X88736463Y-68896381D02*
G75*
G02X89737890Y-69181624I131717J-1438089D01*
G01*
X147149451Y-69306309D02*
G75*
G02X146981731Y-68971228I167513J293362D01*
G01*
X127549451Y-69306309D02*
G75*
G02X127381731Y-68971228I167513J293362D01*
G01*
X107949451Y-69306309D02*
G75*
G02X107781731Y-68971228I167513J293362D01*
G01*
X88349451Y-69306309D02*
G75*
G02X88181731Y-68971228I167513J293362D01*
G01*
X147353793Y-70135937D02*
G75*
G02X147081730Y-69671227I247402J456835D01*
G01*
X127753793Y-70135937D02*
G75*
G02X127481730Y-69671227I247402J456835D01*
G01*
X108153793Y-70135937D02*
G75*
G02X107881730Y-69671227I247402J456835D01*
G01*
X88553793Y-70135937D02*
G75*
G02X88281730Y-69671227I247402J456835D01*
G01*
X147353798Y-70135939D02*
G75*
G02X147254565Y-70639078I-116567J-238365D01*
G01*
X127753798Y-70135939D02*
G75*
G02X127654565Y-70639078I-116567J-238365D01*
G01*
X108153798Y-70135939D02*
G75*
G02X108054565Y-70639078I-116567J-238365D01*
G01*
X88553798Y-70135939D02*
G75*
G02X88454565Y-70639078I-116567J-238365D01*
G01*
X147103515Y-71039269D02*
G75*
G02X147310209Y-70629410I265294J123259D01*
G01*
X127503515Y-71039269D02*
G75*
G02X127710209Y-70629410I265294J123259D01*
G01*
X107903515Y-71039269D02*
G75*
G02X108110209Y-70629410I265294J123259D01*
G01*
X88303515Y-71039269D02*
G75*
G02X88510209Y-70629410I265294J123259D01*
G01*
X148681729Y-71371228D02*
G75*
G02X147547044Y-71684825I-1028243J1510873D01*
G01*
X129081729Y-71371228D02*
G75*
G02X127947044Y-71684825I-1028243J1510873D01*
G01*
X109481729Y-71371228D02*
G75*
G02X108347044Y-71684825I-1028243J1510873D01*
G01*
X89881729Y-71371228D02*
G75*
G02X88747044Y-71684825I-1028243J1510873D01*
G01*
X142412033Y-67531809D02*
G75*
G02X143750363Y-67434557I737967J-898191D01*
G01*
X122812033Y-67531809D02*
G75*
G02X124150363Y-67434557I737967J-898191D01*
G01*
X103212033Y-67531809D02*
G75*
G02X104550363Y-67434557I737967J-898191D01*
G01*
X83612033Y-67531809D02*
G75*
G02X84950363Y-67434557I737967J-898191D01*
G01*
X141125963Y-64543808D02*
G75*
G02X140893167Y-65325725I-1965580J159588D01*
G01*
X121525963Y-64543808D02*
G75*
G02X121293167Y-65325725I-1965580J159588D01*
G01*
X101925963Y-64543808D02*
G75*
G02X101693167Y-65325725I-1965580J159588D01*
G01*
X82325963Y-64543808D02*
G75*
G02X82093167Y-65325725I-1965580J159588D01*
G01*
X146881729Y-73571227D02*
G75*
G02X147692140Y-73824726I-159509J-1932087D01*
G01*
X127281729Y-73571227D02*
G75*
G02X128092140Y-73824726I-159509J-1932087D01*
G01*
X107681729Y-73571227D02*
G75*
G02X108492140Y-73824726I-159509J-1932087D01*
G01*
X88081729Y-73571227D02*
G75*
G02X88892140Y-73824726I-159509J-1932087D01*
G01*
X149173701Y-75306529D02*
G75*
G02X149581730Y-75471226I77876J-394852D01*
G01*
X129573701Y-75306529D02*
G75*
G02X129981730Y-75471226I77876J-394852D01*
G01*
X109973701Y-75306529D02*
G75*
G02X110381730Y-75471226I77876J-394852D01*
G01*
X90373701Y-75306529D02*
G75*
G02X90781730Y-75471226I77876J-394852D01*
G01*
X146881731Y-73571227D02*
G75*
G02X147055538Y-74611029I-854531J-677265D01*
G01*
X127281731Y-73571227D02*
G75*
G02X127455538Y-74611029I-854531J-677265D01*
G01*
X107681731Y-73571227D02*
G75*
G02X107855538Y-74611029I-854531J-677265D01*
G01*
X88081731Y-73571227D02*
G75*
G02X88255538Y-74611029I-854531J-677265D01*
G01*
X149581732Y-75471227D02*
G75*
G02X149281731Y-75871228I-750002J250000D01*
G01*
X129981732Y-75471227D02*
G75*
G02X129681731Y-75871228I-750002J250000D01*
G01*
X110381732Y-75471227D02*
G75*
G02X110081731Y-75871228I-750002J250000D01*
G01*
X90781732Y-75471227D02*
G75*
G02X90481731Y-75871228I-750002J250000D01*
G01*
X145061992Y-73877516D02*
X144702378Y-74200131D01*
X125461992Y-73877516D02*
X125102378Y-74200131D01*
X105861992Y-73877516D02*
X105502378Y-74200131D01*
X86261992Y-73877516D02*
X85902378Y-74200131D01*
X141418920Y-72470375D02*
G75*
G02X141681731Y-71971228I757232J-79937D01*
G01*
X121818920Y-72470375D02*
G75*
G02X122081731Y-71971228I757232J-79937D01*
G01*
X102218920Y-72470375D02*
G75*
G02X102481731Y-71971228I757232J-79937D01*
G01*
X82618920Y-72470375D02*
G75*
G02X82881731Y-71971228I757232J-79937D01*
G01*
X141681730Y-71971227D02*
G75*
G02X142302827Y-71754674I862751J-1475503D01*
G01*
X122081730Y-71971227D02*
G75*
G02X122702827Y-71754674I862751J-1475503D01*
G01*
X102481730Y-71971227D02*
G75*
G02X103102827Y-71754674I862751J-1475503D01*
G01*
X82881730Y-71971227D02*
G75*
G02X83502827Y-71754674I862751J-1475503D01*
G01*
X143181730Y-76571228D02*
G75*
G02X142505497Y-75957140I1131727J1925635D01*
G01*
X123581730Y-76571228D02*
G75*
G02X122905497Y-75957140I1131727J1925635D01*
G01*
X103981730Y-76571228D02*
G75*
G02X103305497Y-75957140I1131727J1925635D01*
G01*
X84381730Y-76571228D02*
G75*
G02X83705497Y-75957140I1131727J1925635D01*
G01*
X143581730Y-76471229D02*
G75*
G02X143181730Y-76571227I-243465J123864D01*
G01*
X123981730Y-76471229D02*
G75*
G02X123581730Y-76571227I-243465J123864D01*
G01*
X104381730Y-76471229D02*
G75*
G02X103981730Y-76571227I-243465J123864D01*
G01*
X84781730Y-76471229D02*
G75*
G02X84381730Y-76571227I-243465J123864D01*
G01*
X143652025Y-75692293D02*
G75*
G02X143581730Y-76471227I-1154238J-288474D01*
G01*
X124052025Y-75692293D02*
G75*
G02X123981730Y-76471227I-1154238J-288474D01*
G01*
X104452025Y-75692293D02*
G75*
G02X104381730Y-76471227I-1154238J-288474D01*
G01*
X84852025Y-75692293D02*
G75*
G02X84781730Y-76471227I-1154238J-288474D01*
G01*
X144381730Y-76471227D02*
G75*
G02X143652025Y-75692292I793358J1474477D01*
G01*
X124781730Y-76471227D02*
G75*
G02X124052025Y-75692292I793358J1474477D01*
G01*
X105181730Y-76471227D02*
G75*
G02X104452025Y-75692292I793358J1474477D01*
G01*
X85581730Y-76471227D02*
G75*
G02X84852025Y-75692292I793358J1474477D01*
G01*
X144681730Y-75771228D02*
G75*
G02X144381730Y-76471228I-1084014J50292D01*
G01*
X125081730Y-75771228D02*
G75*
G02X124781730Y-76471228I-1084014J50292D01*
G01*
X105481730Y-75771228D02*
G75*
G02X105181730Y-76471228I-1084014J50292D01*
G01*
X85881730Y-75771228D02*
G75*
G02X85581730Y-76471228I-1084014J50292D01*
G01*
X136178963Y-72297638D02*
G75*
G02X136724706Y-71685795I942287J-291174D01*
G01*
X116578963Y-72297638D02*
G75*
G02X117124706Y-71685795I942287J-291174D01*
G01*
X96978963Y-72297638D02*
G75*
G02X97524706Y-71685795I942287J-291174D01*
G01*
X77378963Y-72297638D02*
G75*
G02X77924706Y-71685795I942287J-291174D01*
G01*
X136284264Y-72588288D02*
G75*
G02X136178963Y-72297640I118703J207405D01*
G01*
X116684264Y-72588288D02*
G75*
G02X116578963Y-72297640I118703J207405D01*
G01*
X97084264Y-72588288D02*
G75*
G02X96978963Y-72297640I118703J207405D01*
G01*
X77484264Y-72588288D02*
G75*
G02X77378963Y-72297640I118703J207405D01*
G01*
X137041377Y-72805970D02*
G75*
G02X136284262Y-72588289I740666J4001617D01*
G01*
X117441377Y-72805970D02*
G75*
G02X116684262Y-72588289I740666J4001617D01*
G01*
X97841377Y-72805970D02*
G75*
G02X97084262Y-72588289I740666J4001617D01*
G01*
X78241377Y-72805970D02*
G75*
G02X77484262Y-72588289I740666J4001617D01*
G01*
X137640694Y-74055579D02*
G75*
G02X138624757Y-73886186I624672J-685858D01*
G01*
X118040694Y-74055579D02*
G75*
G02X119024757Y-73886186I624672J-685858D01*
G01*
X98440694Y-74055579D02*
G75*
G02X99424757Y-73886186I624672J-685858D01*
G01*
X78840694Y-74055579D02*
G75*
G02X79824757Y-73886186I624672J-685858D01*
G01*
X138581730Y-74371227D02*
G75*
G02X139085402Y-74275984I298135J-197221D01*
G01*
X118981730Y-74371227D02*
G75*
G02X119485402Y-74275984I298135J-197221D01*
G01*
X99381730Y-74371227D02*
G75*
G02X99885402Y-74275984I298135J-197221D01*
G01*
X79781730Y-74371227D02*
G75*
G02X80285402Y-74275984I298135J-197221D01*
G01*
X138624756Y-73886188D02*
G75*
G02X138581730Y-74371227I-199499J-226731D01*
G01*
X119024756Y-73886188D02*
G75*
G02X118981730Y-74371227I-199499J-226731D01*
G01*
X99424756Y-73886188D02*
G75*
G02X99381730Y-74371227I-199499J-226731D01*
G01*
X79824756Y-73886188D02*
G75*
G02X79781730Y-74371227I-199499J-226731D01*
G01*
X138261444Y-75331046D02*
G75*
G02X137932024Y-75043716I-99552J218368D01*
G01*
X118661444Y-75331046D02*
G75*
G02X118332024Y-75043716I-99552J218368D01*
G01*
X99061444Y-75331046D02*
G75*
G02X98732024Y-75043716I-99552J218368D01*
G01*
X79461444Y-75331046D02*
G75*
G02X79132024Y-75043716I-99552J218368D01*
G01*
X139281730Y-75671228D02*
G75*
G02X138939575Y-75527402I-99999J241004D01*
G01*
X119681730Y-75671228D02*
G75*
G02X119339575Y-75527402I-99999J241004D01*
G01*
X100081730Y-75671228D02*
G75*
G02X99739575Y-75527402I-99999J241004D01*
G01*
X80481730Y-75671228D02*
G75*
G02X80139575Y-75527402I-99999J241004D01*
G01*
X140240773Y-74879148D02*
G75*
G02X140394357Y-75222583I-203386J-297013D01*
G01*
X120640773Y-74879148D02*
G75*
G02X120794357Y-75222583I-203386J-297013D01*
G01*
X101040773Y-74879148D02*
G75*
G02X101194357Y-75222583I-203386J-297013D01*
G01*
X81440773Y-74879148D02*
G75*
G02X81594357Y-75222583I-203386J-297013D01*
G01*
X139291605Y-75237739D02*
G75*
G02X139952979Y-74809813I1166752J-1078204D01*
G01*
X119691605Y-75237739D02*
G75*
G02X120352979Y-74809813I1166752J-1078204D01*
G01*
X100091605Y-75237739D02*
G75*
G02X100752979Y-74809813I1166752J-1078204D01*
G01*
X80491605Y-75237739D02*
G75*
G02X81152979Y-74809813I1166752J-1078204D01*
G01*
X139081732Y-74271227D02*
G75*
G02X139291605Y-75237737I-905211J-702605D01*
G01*
X119481732Y-74271227D02*
G75*
G02X119691605Y-75237737I-905211J-702605D01*
G01*
X99881732Y-74271227D02*
G75*
G02X100091605Y-75237737I-905211J-702605D01*
G01*
X80281732Y-74271227D02*
G75*
G02X80491605Y-75237737I-905211J-702605D01*
G01*
X139952979Y-74809813D02*
G75*
G02X140240772Y-74879147I57114J-394884D01*
G01*
X120352979Y-74809813D02*
G75*
G02X120640772Y-74879147I57114J-394884D01*
G01*
X100752979Y-74809813D02*
G75*
G02X101040772Y-74879147I57114J-394884D01*
G01*
X81152979Y-74809813D02*
G75*
G02X81440772Y-74879147I57114J-394884D01*
G01*
X142357464Y-76841565D02*
G75*
G02X141952930Y-76827576I-199518J86491D01*
G01*
X122757464Y-76841565D02*
G75*
G02X122352930Y-76827576I-199518J86491D01*
G01*
X103157464Y-76841565D02*
G75*
G02X102752930Y-76827576I-199518J86491D01*
G01*
X83557464Y-76841565D02*
G75*
G02X83152930Y-76827576I-199518J86491D01*
G01*
X142505495Y-75957139D02*
G75*
G02X142357462Y-76841565I-2848087J22106D01*
G01*
X122905495Y-75957139D02*
G75*
G02X122757462Y-76841565I-2848087J22106D01*
G01*
X103305495Y-75957139D02*
G75*
G02X103157462Y-76841565I-2848087J22106D01*
G01*
X83705495Y-75957139D02*
G75*
G02X83557462Y-76841565I-2848087J22106D01*
G01*
X137932020Y-75043716D02*
G75*
G02X138181730Y-74371226I1280212J-92763D01*
G01*
X118332020Y-75043716D02*
G75*
G02X118581730Y-74371226I1280212J-92763D01*
G01*
X98732020Y-75043716D02*
G75*
G02X98981730Y-74371226I1280212J-92763D01*
G01*
X79132020Y-75043716D02*
G75*
G02X79381730Y-74371226I1280212J-92763D01*
G01*
X138939576Y-75527403D02*
G75*
G02X138881500Y-74721448I2460291J582354D01*
G01*
X119339576Y-75527403D02*
G75*
G02X119281500Y-74721448I2460291J582354D01*
G01*
X99739576Y-75527403D02*
G75*
G02X99681500Y-74721448I2460291J582354D01*
G01*
X80139576Y-75527403D02*
G75*
G02X80081500Y-74721448I2460291J582354D01*
G01*
X58214123Y-73766183D02*
G75*
G02X58973640Y-73488313I3916750J-9528894D01*
G01*
X58214125Y-73766182D02*
G75*
G02X57961829Y-73479697I-49479J210762D01*
G01*
X57961830Y-73479697D02*
G75*
G02X58641378Y-72805970I1344867J-676914D01*
G01*
X68381731Y-67671225D02*
G75*
G02X68058776Y-67528535I-94249J223505D01*
G01*
X68058773Y-67528535D02*
G75*
G02X68242260Y-66526419I1040720J327301D01*
G01*
X68242261Y-66526420D02*
G75*
G02X67595800Y-66726438I-561750J670889D01*
G01*
X67595802Y-66726438D02*
G75*
G02X67339492Y-66437349I-61675J203487D01*
G01*
X68832372Y-72851263D02*
G75*
G02X69155072Y-72732486I374241J-519005D01*
G01*
X69707960Y-72428019D02*
G75*
G02X69155072Y-72732486I-563950J369854D01*
G01*
X69147043Y-71684825D02*
G75*
G02X69707958Y-72428020I-2199889J-2243598D01*
G01*
X70281729Y-71371228D02*
G75*
G02X69147044Y-71684825I-1028243J1510873D01*
G01*
X68656410Y-66434357D02*
G75*
G02X68665945Y-66120725I604373J138587D01*
G01*
X66281730Y-75771228D02*
G75*
G02X65981730Y-76471228I-1084014J50292D01*
G01*
X65981730Y-76471227D02*
G75*
G02X65252025Y-75692292I793358J1474477D01*
G01*
X65252025Y-75692293D02*
G75*
G02X65181730Y-76471227I-1154238J-288474D01*
G01*
X59163191Y-74503635D02*
G75*
G02X59793496Y-74308169I1706026J-4387330D01*
G01*
X59163190Y-74503633D02*
G75*
G02X58792702Y-74241323I-116279J228561D01*
G01*
X58973641Y-73488313D02*
G75*
G02X58792702Y-74241323I-755255116J181079544D01*
G01*
X60881731Y-75671228D02*
G75*
G02X61468660Y-75396312I2384689J-4327191D01*
G01*
X60881730Y-75671228D02*
G75*
G02X60539575Y-75527402I-99999J241004D01*
G01*
X60539576Y-75527403D02*
G75*
G02X60481500Y-74721448I2460291J582354D01*
G01*
X60981730Y-71671228D02*
G75*
G02X60388279Y-70282356I1340218J1393886D01*
G01*
X60388280Y-70282356D02*
G75*
G02X60605679Y-68690447I2470995J473349D01*
G01*
X63555064Y-63731948D02*
G75*
G02X63933099Y-63677457I198719J-40059D01*
G01*
X63933098Y-63677458D02*
G75*
G02X64107173Y-64589228I-1327168J-725885D01*
G01*
X64581730Y-64171227D02*
G75*
G02X64107173Y-64589228I-957572J608749D01*
G01*
X68050789Y-73157143D02*
G75*
G02X68329748Y-73028115I260165J-196409D01*
G01*
X68329747Y-73028114D02*
G75*
G02X68292106Y-72741566I343176J190826D01*
G01*
X68292108Y-72741566D02*
G75*
G02X69081730Y-72271227I668579J-224442D01*
G01*
X69081730Y-72271227D02*
G75*
G02X68658361Y-71698484I931155J1131154D01*
G01*
X68658361Y-71698486D02*
G75*
G02X69042182Y-71267047I307194J113160D01*
G01*
X66661992Y-73877516D02*
X66302378Y-74200131D01*
X64289826Y-71504115D02*
X66661992Y-73877516D01*
X64771896Y-68038602D02*
G75*
G02X64122167Y-67875795I119130J1853296D01*
G01*
X64876230Y-72733545D02*
X64876230Y-72733545D01*
X64217505Y-72091136D02*
X64876230Y-72733545D01*
X63981730Y-72571228D02*
G75*
G02X64217505Y-72091136I333661J134079D01*
G01*
X64122167Y-67875796D02*
G75*
G02X64012033Y-67531810I82013J215882D01*
G01*
X60781730Y-66271226D02*
G75*
G02X60314939Y-66401831I-339594J314258D01*
G01*
X60314939Y-66401829D02*
G75*
G02X60206147Y-66718750I-292613J-76686D01*
G01*
X60206146Y-66718753D02*
G75*
G02X59229228Y-66526156I-270258J1203083D01*
G01*
X59229229Y-66526155D02*
G75*
G02X59433556Y-67391613I-998350J-692550D01*
G01*
X66570355Y-75231564D02*
G75*
G02X66681729Y-74371227I1976858J181465D01*
G01*
X66681732Y-74371228D02*
G75*
G02X67038148Y-74268219I214353J-73558D01*
G01*
X67038150Y-74268217D02*
G75*
G02X67218979Y-73966197I269749J43636D01*
G01*
X67218980Y-73966197D02*
G75*
G02X68081731Y-74071228I269004J-1386269D01*
G01*
X68081729Y-74071228D02*
G75*
G02X68050788Y-73157142I1189083J497816D01*
G01*
X64876228Y-72733544D02*
G75*
G02X63981730Y-72571227I-240557J1220200D01*
G01*
X66981730Y-76471227D02*
G75*
G02X66281730Y-75771227I850059J1550059D01*
G01*
X70881731Y-75871227D02*
G75*
G02X66981730Y-76471228I-2518751J3396875D01*
G01*
X63129452Y-67710791D02*
G75*
G02X63221535Y-67445136I241368J65122D01*
G01*
X58781730Y-66271228D02*
G75*
G02X59015671Y-66132182I186441J-47359D01*
G01*
X58997971Y-66131494D02*
G75*
G02X59807871Y-66278857I-102376J-2861912D01*
G01*
X59807871Y-66278858D02*
G75*
G02X59481730Y-65471227I3049959J1701315D01*
G01*
X59481731Y-65471228D02*
G75*
G02X59770565Y-65261358I204541J22189D01*
G01*
X59092793Y-72526844D02*
G75*
G02X59020252Y-73014633I-278115J-207929D01*
G01*
X59020252Y-73014636D02*
G75*
G02X59434194Y-73189633I136927J-253182D01*
G01*
X59434193Y-73189632D02*
G75*
G02X59240693Y-74055579I-1841995J-42990D01*
G01*
X59240694Y-74055579D02*
G75*
G02X60224757Y-73886186I624672J-685858D01*
G01*
X60224756Y-73886188D02*
G75*
G02X60181730Y-74371227I-199499J-226731D01*
G01*
X60181730Y-74371227D02*
G75*
G02X60685402Y-74275984I298135J-197221D01*
G01*
X60681732Y-74271227D02*
G75*
G02X60891605Y-75237737I-905211J-702605D01*
G01*
X60891605Y-75237739D02*
G75*
G02X61552979Y-74809813I1166752J-1078204D01*
G01*
X61552979Y-74809813D02*
G75*
G02X61840772Y-74879147I57114J-394884D01*
G01*
X61840773Y-74879148D02*
G75*
G02X61994357Y-75222583I-203386J-297013D01*
G01*
X69042185Y-71267049D02*
G75*
G02X68703516Y-71039266I-49773J291657D01*
G01*
X68703515Y-71039269D02*
G75*
G02X68910209Y-70629410I265294J123259D01*
G01*
X68953798Y-70135939D02*
G75*
G02X68854565Y-70639078I-116567J-238365D01*
G01*
X68953793Y-70135937D02*
G75*
G02X68681730Y-69671227I247402J456835D01*
G01*
X68681731Y-69671227D02*
G75*
G02X68943764Y-69375569I359710J-54856D01*
G01*
X70137889Y-69181624D02*
G75*
G02X69814348Y-69539222I-366996J6881D01*
G01*
X69136463Y-68896381D02*
G75*
G02X70137890Y-69181624I131717J-1438089D01*
G01*
X69743394Y-68154237D02*
G75*
G02X69136461Y-68896381I-1041300J232336D01*
G01*
X68833690Y-67766259D02*
G75*
G02X69743395Y-68154238I-53278J-1385417D01*
G01*
X61981730Y-76071228D02*
G75*
G02X62224221Y-75700318I908616J-329307D01*
G01*
X61981730Y-76071227D02*
G75*
G02X61481730Y-76471227I-986084J720106D01*
G01*
X61481729Y-76471228D02*
G75*
G02X61381730Y-76071227I588740J359684D01*
G01*
X61381730Y-76071228D02*
G75*
G02X61468660Y-75396312I12575875J-1276724D01*
G01*
X69222803Y-70880227D02*
G75*
G02X70281730Y-71371227I-615979J-2715844D01*
G01*
X69922715Y-70276448D02*
G75*
G02X69181731Y-70871228I-822453J265669D01*
G01*
X69262051Y-69700096D02*
G75*
G02X69922716Y-70276447I-1351551J-2216102D01*
G01*
X69262051Y-69700099D02*
G75*
G02X69814348Y-69539222I709979J-1408927D01*
G01*
X64289825Y-69156025D02*
X63660117Y-69156026D01*
X65610653Y-64357325D02*
G75*
G02X66149100Y-64255482I307103J-149349D01*
G01*
X66149100Y-64255484D02*
G75*
G02X65995240Y-65183660I-1179013J-281400D01*
G01*
X66514353Y-64954002D02*
X65995240Y-65183660D01*
X60081729Y-70871229D02*
G75*
G02X60324248Y-68391556I2922247J965892D01*
G01*
X60881730Y-72171227D02*
G75*
G02X60081730Y-70871227I1136275J1595399D01*
G01*
X68981729Y-69371228D02*
G75*
G02X68749451Y-69306309I-49998J269109D01*
G01*
X68749451Y-69306309D02*
G75*
G02X68581731Y-68971228I167513J293362D01*
G01*
X68581731Y-68971227D02*
G75*
G02X69200229Y-68277873I1072093J-333809D01*
G01*
X69200230Y-68277873D02*
G75*
G02X68399900Y-68010580I-39300J1214148D01*
G01*
X68399900Y-68010580D02*
G75*
G02X68381729Y-67671227I63417J173559D01*
G01*
X69524863Y-67038871D02*
G75*
G02X68833689Y-67766258I-952887J213372D01*
G01*
X69196926Y-66858896D02*
G75*
G02X69524863Y-67038871I43184J-310071D01*
G01*
X69196925Y-66858895D02*
G75*
G02X68497404Y-67102330I-9292254J25574975D01*
G01*
X68656410Y-66434359D02*
G75*
G02X68497404Y-67102330I-1948968J111027D01*
G01*
X64771896Y-68038603D02*
X65350363Y-67434557D01*
X59770565Y-65261358D02*
G75*
G02X60481731Y-65871228I-291671J-1059694D01*
G01*
X60481731Y-65871227D02*
G75*
G02X60485205Y-65202402I4058114J313341D01*
G01*
X60485204Y-65202402D02*
G75*
G02X60791343Y-64908660I273206J21664D01*
G01*
X60791343Y-64908661D02*
G75*
G02X61462972Y-65172791I-1836345J-5655422D01*
G01*
X58802014Y-71535686D02*
G75*
G02X58781731Y-71871226I-93067J-162757D01*
G01*
X58373567Y-72161338D02*
G75*
G02X58781731Y-71871226I715341J-574244D01*
G01*
X58733615Y-72355355D02*
G75*
G02X58373567Y-72161339I10493J450564D01*
G01*
X58733617Y-72355355D02*
G75*
G02X59092793Y-72526847I-13760J-490697D01*
G01*
X61462973Y-65172791D02*
G75*
G02X61333074Y-64505527I17966191J3843813D01*
G01*
X61333076Y-64505528D02*
G75*
G02X61785745Y-64329009I250290J26827D01*
G01*
X61785746Y-64329009D02*
G75*
G02X62217960Y-64911668I-3731855J-3219912D01*
G01*
X62217961Y-64911667D02*
G75*
G02X62432164Y-64209154I4562946J-1007369D01*
G01*
X61994358Y-75222581D02*
G75*
G02X62362174Y-75116325I223997J-85643D01*
G01*
X62362174Y-75116324D02*
G75*
G02X62728783Y-76053536I-1296636J-1047515D01*
G01*
X62728783Y-76053536D02*
G75*
G02X63481730Y-75471228I683782J-106208D01*
G01*
X63681730Y-75771228D02*
G75*
G02X63481730Y-75471228I349999J450000D01*
G01*
X63852502Y-75567464D02*
G75*
G02X63681730Y-75771226I-290803J70278D01*
G01*
X63852504Y-75567463D02*
G75*
G02X64751082Y-76044806I98529J-898964D01*
G01*
X64881731Y-75571228D02*
G75*
G02X64751082Y-76044806I-1004804J22391D01*
G01*
X64881731Y-75571227D02*
G75*
G02X65481731Y-75071227I500000J10000D01*
G01*
X65481730Y-75071227D02*
G75*
G02X65730359Y-74828114I346159J-105322D01*
G01*
X65730360Y-74828115D02*
G75*
G02X66570356Y-75231564I-27970J-1134411D01*
G01*
X66661992Y-66782537D02*
X64289825Y-69156025D01*
X66661992Y-66782537D02*
X66342549Y-66472886D01*
X63552930Y-76827574D02*
G75*
G02X63364840Y-75965341I5260702J1599216D01*
G01*
X63364840Y-75965342D02*
G75*
G02X62881730Y-76571227I-1759172J907149D01*
G01*
X62881731Y-76571230D02*
G75*
G02X62444578Y-76404447I-177919J189958D01*
G01*
X62224221Y-75700317D02*
G75*
G02X62450581Y-76428795I-5794737J-2200008D01*
G01*
X60481501Y-74721449D02*
G75*
G02X59861446Y-75331049I-1978469J1392255D01*
G01*
X59861444Y-75331046D02*
G75*
G02X59532024Y-75043716I-99552J218368D01*
G01*
X59532020Y-75043716D02*
G75*
G02X59781730Y-74371226I1280212J-92763D01*
G01*
X58340315Y-68918958D02*
X55863112Y-70371257D01*
X60324251Y-68391556D02*
G75*
G02X60605679Y-68690447I-1112621J-1329553D01*
G01*
X65881731Y-65771227D02*
G75*
G02X65553299Y-65334030I-70279J289166D01*
G01*
X65553300Y-65334029D02*
G75*
G02X65076901Y-65441395I-314613J285375D01*
G01*
X65076901Y-65441395D02*
G75*
G02X64723914Y-64680007I5415148J2973030D01*
G01*
X64281729Y-65071227D02*
G75*
G02X64723914Y-64680007I1116938J-816937D01*
G01*
X58024193Y-71550055D02*
X58324706Y-71685795D01*
X55863112Y-70371257D02*
X58024193Y-71550055D01*
X63181732Y-72971228D02*
G75*
G02X63018920Y-72470375I345020J389045D01*
G01*
X65502498Y-73351259D02*
G75*
G02X63181730Y-72971227I-813739J2306901D01*
G01*
X66342549Y-66472886D02*
X65728630Y-67082131D01*
X63221534Y-67445134D02*
G75*
G02X65728630Y-67082131I1588853J-2134294D01*
G01*
X65502498Y-73351257D02*
X65502498Y-73351257D01*
X66302378Y-74200131D02*
X65502498Y-73351257D01*
X71133270Y-65262418D02*
G75*
G02X70784021Y-65425224I-255674J92463D01*
G01*
X68665943Y-66120726D02*
G75*
G02X70784021Y-65425224I1838597J-2026311D01*
G01*
X63660117Y-69156026D02*
X64139188Y-68670867D01*
X62493169Y-65325725D02*
G75*
G02X61972853Y-65422694I-372635J555043D01*
G01*
X61972850Y-65422692D02*
G75*
G02X61672488Y-65741977I-241293J-73930D01*
G01*
X61672487Y-65741977D02*
G75*
G02X60903777Y-65360401I648718J2271982D01*
G01*
X60903776Y-65360401D02*
G75*
G02X60781729Y-66271227I-1611598J-247642D01*
G01*
X59433555Y-67391612D02*
G75*
G02X59018195Y-67578101I-311193J137307D01*
G01*
X59018196Y-67578101D02*
G75*
G02X59181730Y-67971227I-446649J-416376D01*
G01*
X59181729Y-67971227D02*
G75*
G02X58336458Y-68360375I-1207767J1510816D01*
G01*
X58336458Y-68360374D02*
G75*
G02X58794255Y-69060069I-77267J-550166D01*
G01*
X65181730Y-76471229D02*
G75*
G02X64781730Y-76571227I-243465J123864D01*
G01*
X64781730Y-76571228D02*
G75*
G02X64105497Y-75957140I1131727J1925635D01*
G01*
X64105495Y-75957139D02*
G75*
G02X63957462Y-76841565I-2848087J22106D01*
G01*
X63957464Y-76841565D02*
G75*
G02X63552930Y-76827576I-199518J86491D01*
G01*
X58340317Y-68918957D02*
G75*
G02X57740475Y-68413653I865230J1635791D01*
G01*
X57740474Y-68413652D02*
G75*
G02X57781730Y-68071227I134054J157547D01*
G01*
X57781731Y-68071228D02*
G75*
G02X58641588Y-67767493I951810J-1325550D01*
G01*
X63662674Y-71504113D02*
X63902827Y-71754674D01*
X64289826Y-71504115D02*
X63662674Y-71504113D01*
X62431616Y-64211274D02*
G75*
G02X62781730Y-64071227I225919J-57129D01*
G01*
X62781732Y-64071227D02*
G75*
G02X63361051Y-64584730I-2895051J-3849644D01*
G01*
X63361050Y-64584732D02*
G75*
G02X63556472Y-63725519I1815024J39016D01*
G01*
X64581730Y-64171227D02*
G75*
G02X64991340Y-64042158I236706J-36706D01*
G01*
X64991339Y-64042158D02*
G75*
G02X65254848Y-64911666I-925788J-755247D01*
G01*
X65254848Y-64911668D02*
G75*
G02X65610655Y-64357324I733763J-79608D01*
G01*
X64139191Y-68670868D02*
G75*
G02X63129452Y-67710793I283251J1308927D01*
G01*
X58641588Y-67767492D02*
G75*
G02X57881730Y-67271227I302863J1293593D01*
G01*
X57881730Y-67271225D02*
G75*
G02X58045041Y-66911212I165344J142043D01*
G01*
X58045042Y-66911214D02*
G75*
G02X58976727Y-67101008I154207J-1624689D01*
G01*
X58976727Y-67101006D02*
G75*
G02X58756848Y-66307228I951932J691030D01*
G01*
X71181732Y-75471227D02*
G75*
G02X70881731Y-75871228I-750002J250000D01*
G01*
X70773701Y-75306529D02*
G75*
G02X71181730Y-75471226I77876J-394852D01*
G01*
X70773705Y-75306530D02*
G75*
G02X68655538Y-74611029I-302715J2651292D01*
G01*
X66514354Y-64954001D02*
G75*
G02X67181731Y-64371228I2032446J-1653986D01*
G01*
X67181731Y-64371227D02*
G75*
G02X70781730Y-64771228I1449999J-3350000D01*
G01*
X70781730Y-64771227D02*
G75*
G02X71133271Y-65262417I-602846J-802845D01*
G01*
X67093615Y-66259103D02*
G75*
G02X67339492Y-66437349I111682J-104651D01*
G01*
X67093617Y-66259102D02*
G75*
G02X66745533Y-66347909I-231697J181576D01*
G01*
X66745534Y-66347908D02*
G75*
G02X66570484Y-65383633I1396502J751541D01*
G01*
X66581731Y-65371228D02*
G75*
G02X65881730Y-65771228I-950001J850001D01*
G01*
X65728630Y-67082131D02*
X65728630Y-67082131D01*
X65350363Y-67434557D02*
X65350363Y-67434557D01*
X61235658Y-72087589D02*
G75*
G02X60881730Y-72171227I-253928J283866D01*
G01*
X60966169Y-71656098D02*
G75*
G02X61235658Y-72087589I-166537J-403911D01*
G01*
X58794255Y-69060071D02*
G75*
G02X58802015Y-71535689I-859100J-1240514D01*
G01*
X58324706Y-71685795D02*
X58324706Y-71685795D01*
X68481731Y-73571227D02*
G75*
G02X68655538Y-74611029I-854531J-677265D01*
G01*
X68481729Y-73571227D02*
G75*
G02X69292140Y-73824726I-159509J-1932087D01*
G01*
X69610006Y-73455775D02*
G75*
G02X69292140Y-73824726I-168897J-175891D01*
G01*
X68832370Y-72851264D02*
G75*
G02X69610005Y-73455775I-805340J-1838403D01*
G01*
X64281731Y-65071227D02*
G75*
G02X63714465Y-65023303I-267180J218715D01*
G01*
X63714466Y-65023303D02*
G75*
G02X63407952Y-65133646I-181646J23688D01*
G01*
X63407952Y-65133646D02*
G75*
G02X62725962Y-64543808I1903814J2890439D01*
G01*
X62725963Y-64543808D02*
G75*
G02X62493167Y-65325725I-1965580J159588D01*
G01*
X63281730Y-71971227D02*
G75*
G02X63902827Y-71754674I862751J-1475503D01*
G01*
X63018920Y-72470375D02*
G75*
G02X63281731Y-71971228I757232J-79937D01*
G01*
X58641377Y-72805970D02*
G75*
G02X57884262Y-72588289I740666J4001617D01*
G01*
X57884264Y-72588288D02*
G75*
G02X57778963Y-72297640I118703J207405D01*
G01*
X57778963Y-72297638D02*
G75*
G02X58324706Y-71685795I942287J-291174D01*
G01*
X64012033Y-67531809D02*
G75*
G02X65350363Y-67434557I737967J-898191D01*
G01*
D11*
X65804762Y-147532381D02*
X66471429Y-148532381D01*
X66471429Y-147532381D02*
X65804762Y-148532381D01*
X67185715Y-148008571D02*
X67328572Y-148056190D01*
X67376191Y-148103810D01*
X67423810Y-148199048D01*
X67423810Y-148341905D01*
X67376191Y-148437143D01*
X67328572Y-148484762D01*
X67233334Y-148532381D01*
X66852381Y-148532381D01*
X66852381Y-147532381D01*
X67185715Y-147532381D01*
X67280953Y-147580000D01*
X67328572Y-147627619D01*
X67376191Y-147722857D01*
X67376191Y-147818095D01*
X67328572Y-147913333D01*
X67280953Y-147960952D01*
X67185715Y-148008571D01*
X66852381Y-148008571D01*
X68233334Y-148484762D02*
X68138096Y-148532381D01*
X67947619Y-148532381D01*
X67852381Y-148484762D01*
X67804762Y-148389524D01*
X67804762Y-148008571D01*
X67852381Y-147913333D01*
X67947619Y-147865714D01*
X68138096Y-147865714D01*
X68233334Y-147913333D01*
X68280953Y-148008571D01*
X68280953Y-148103810D01*
X67804762Y-148199048D01*
X69090477Y-148484762D02*
X68995239Y-148532381D01*
X68804762Y-148532381D01*
X68709524Y-148484762D01*
X68661905Y-148389524D01*
X68661905Y-148008571D01*
X68709524Y-147913333D01*
X68804762Y-147865714D01*
X68995239Y-147865714D01*
X69090477Y-147913333D01*
X69138096Y-148008571D01*
X69138096Y-148103810D01*
X68661905Y-148199048D01*
X71042858Y-147484762D02*
X70185715Y-148770476D01*
X67042858Y-149658571D02*
X66709524Y-149658571D01*
X66709524Y-150182381D02*
X66709524Y-149182381D01*
X67185715Y-149182381D01*
X67423810Y-149182381D02*
X67995239Y-149182381D01*
X67709524Y-150182381D02*
X67709524Y-149182381D01*
X68328572Y-150182381D02*
X68328572Y-149182381D01*
X68566667Y-149182381D01*
X68709525Y-149230000D01*
X68804763Y-149325238D01*
X68852382Y-149420476D01*
X68900001Y-149610952D01*
X68900001Y-149753810D01*
X68852382Y-149944286D01*
X68804763Y-150039524D01*
X68709525Y-150134762D01*
X68566667Y-150182381D01*
X68328572Y-150182381D01*
X69328572Y-150182381D02*
X69328572Y-149182381D01*
X65757142Y-151546667D02*
X66233333Y-151546667D01*
X65661904Y-151832381D02*
X65995237Y-150832381D01*
X66328571Y-151832381D01*
X67090476Y-151832381D02*
X67090476Y-150832381D01*
X67090476Y-151784762D02*
X66995238Y-151832381D01*
X66804761Y-151832381D01*
X66709523Y-151784762D01*
X66661904Y-151737143D01*
X66614285Y-151641905D01*
X66614285Y-151356190D01*
X66661904Y-151260952D01*
X66709523Y-151213333D01*
X66804761Y-151165714D01*
X66995238Y-151165714D01*
X67090476Y-151213333D01*
X67995238Y-151832381D02*
X67995238Y-151308571D01*
X67947619Y-151213333D01*
X67852381Y-151165714D01*
X67661904Y-151165714D01*
X67566666Y-151213333D01*
X67995238Y-151784762D02*
X67900000Y-151832381D01*
X67661904Y-151832381D01*
X67566666Y-151784762D01*
X67519047Y-151689524D01*
X67519047Y-151594286D01*
X67566666Y-151499048D01*
X67661904Y-151451429D01*
X67900000Y-151451429D01*
X67995238Y-151403810D01*
X68471428Y-151165714D02*
X68471428Y-152165714D01*
X68471428Y-151213333D02*
X68566666Y-151165714D01*
X68757143Y-151165714D01*
X68852381Y-151213333D01*
X68900000Y-151260952D01*
X68947619Y-151356190D01*
X68947619Y-151641905D01*
X68900000Y-151737143D01*
X68852381Y-151784762D01*
X68757143Y-151832381D01*
X68566666Y-151832381D01*
X68471428Y-151784762D01*
X69233333Y-151165714D02*
X69614285Y-151165714D01*
X69376190Y-150832381D02*
X69376190Y-151689524D01*
X69423809Y-151784762D01*
X69519047Y-151832381D01*
X69614285Y-151832381D01*
X70090476Y-151832381D02*
X69995238Y-151784762D01*
X69947619Y-151737143D01*
X69900000Y-151641905D01*
X69900000Y-151356190D01*
X69947619Y-151260952D01*
X69995238Y-151213333D01*
X70090476Y-151165714D01*
X70233334Y-151165714D01*
X70328572Y-151213333D01*
X70376191Y-151260952D01*
X70423810Y-151356190D01*
X70423810Y-151641905D01*
X70376191Y-151737143D01*
X70328572Y-151784762D01*
X70233334Y-151832381D01*
X70090476Y-151832381D01*
X70852381Y-151832381D02*
X70852381Y-151165714D01*
X70852381Y-151356190D02*
X70900000Y-151260952D01*
X70947619Y-151213333D01*
X71042857Y-151165714D01*
X71138096Y-151165714D01*
D12*
X66894559Y-118371294D02*
X87214559Y-118371294D01*
X66894559Y-118371294D02*
X66894559Y-133865294D01*
X87214559Y-133865294D02*
X87214559Y-118371294D01*
X66640559Y-133865294D02*
X87214559Y-133865294D01*
D13*
X144908000Y-59087000D02*
X143892000Y-59087000D01*
X143892000Y-59087000D02*
X143892000Y-61373000D01*
X143892000Y-61373000D02*
X144908000Y-61373000D01*
X144908000Y-61373000D02*
X144908000Y-59087000D01*
X125308000Y-59087000D02*
X124292000Y-59087000D01*
X124292000Y-59087000D02*
X124292000Y-61373000D01*
X124292000Y-61373000D02*
X125308000Y-61373000D01*
X125308000Y-61373000D02*
X125308000Y-59087000D01*
X105708000Y-59087000D02*
X104692000Y-59087000D01*
X104692000Y-59087000D02*
X104692000Y-61373000D01*
X104692000Y-61373000D02*
X105708000Y-61373000D01*
X105708000Y-61373000D02*
X105708000Y-59087000D01*
X86108000Y-59087000D02*
X85092000Y-59087000D01*
X85092000Y-59087000D02*
X85092000Y-61373000D01*
X85092000Y-61373000D02*
X86108000Y-61373000D01*
X86108000Y-61373000D02*
X86108000Y-59087000D01*
D14*
X122231448Y-150146544D02*
G75*
G03X122231448Y-150146544I-500000J0D01*
G01*
D15*
X70777275Y-154784192D02*
X70777275Y-152784192D01*
X70777275Y-152784192D02*
X88777275Y-152784192D01*
X88777275Y-152784192D02*
X88777275Y-154784192D01*
X88777275Y-154784192D02*
X70777275Y-154784192D01*
X68227275Y-152234192D02*
X69777275Y-152234192D01*
X69777275Y-155334192D02*
X68227275Y-155334192D01*
X68227275Y-155334192D02*
X68227275Y-152234192D01*
X74768559Y-113291294D02*
X77308559Y-113291294D01*
X71948559Y-113011294D02*
X73498559Y-113011294D01*
X74768559Y-113291294D02*
X74768559Y-115831294D01*
X73498559Y-116111294D02*
X71948559Y-116111294D01*
X71948559Y-116111294D02*
X71948559Y-113011294D01*
X74768559Y-115831294D02*
X77308559Y-115831294D01*
X77308559Y-115831294D02*
X77308559Y-113291294D01*
D16*
X65951134Y-124213294D02*
G75*
G03X65951134Y-124213294I-647575J0D01*
G01*
D13*
X90770559Y-131706294D02*
X91786559Y-131706294D01*
X91786559Y-131706294D02*
X91786559Y-129420294D01*
X91786559Y-129420294D02*
X90770559Y-129420294D01*
X90770559Y-129420294D02*
X90770559Y-131706294D01*
X87595559Y-135770294D02*
X87595559Y-136786294D01*
X87595559Y-136786294D02*
X89881559Y-136786294D01*
X89881559Y-136786294D02*
X89881559Y-135770294D01*
X89881559Y-135770294D02*
X87595559Y-135770294D01*
D15*
X90658799Y-135037454D02*
X90658799Y-134989194D01*
X89957759Y-132238474D02*
X90658799Y-132238474D01*
X90658799Y-132238474D02*
X90658799Y-132487394D01*
X90658799Y-135037454D02*
X90658799Y-135238114D01*
X90658799Y-135238114D02*
X89957759Y-135238114D01*
D13*
X107349184Y-124519768D02*
X106333184Y-124519768D01*
X106333184Y-124519768D02*
X106333184Y-126805768D01*
X106333184Y-126805768D02*
X107349184Y-126805768D01*
X107349184Y-126805768D02*
X107349184Y-124519768D01*
D15*
X97841184Y-135912768D02*
X97841184Y-128412768D01*
X97841184Y-128412768D02*
X101841184Y-128412768D01*
X101841184Y-128412768D02*
X101841184Y-135912768D01*
X101841184Y-135912768D02*
X97841184Y-135912768D01*
X103341184Y-135912768D02*
X103341184Y-128412768D01*
X103341184Y-128412768D02*
X107341184Y-128412768D01*
X107341184Y-128412768D02*
X107341184Y-135912768D01*
X107341184Y-135912768D02*
X103341184Y-135912768D01*
X72228559Y-135008294D02*
X84928559Y-135008294D01*
X84928559Y-135008294D02*
X84928559Y-137548294D01*
X84928559Y-137548294D02*
X72228559Y-137548294D01*
X69408559Y-134728294D02*
X70958559Y-134728294D01*
X72228559Y-135008294D02*
X72228559Y-137548294D01*
X70958559Y-137828294D02*
X69408559Y-137828294D01*
X69408559Y-137828294D02*
X69408559Y-134728294D01*
X69688559Y-133738294D02*
X77308559Y-133738294D01*
X69688559Y-131198294D02*
X77308559Y-131198294D01*
X66868559Y-130918294D02*
X68418559Y-130918294D01*
X77308559Y-133738294D02*
X77308559Y-131198294D01*
X69688559Y-131198294D02*
X69688559Y-133738294D01*
X68418559Y-134018294D02*
X66868559Y-134018294D01*
X66868559Y-134018294D02*
X66868559Y-130918294D01*
X72133559Y-117768294D02*
X72133559Y-118443294D01*
X82483559Y-117768294D02*
X82483559Y-118443294D01*
X82483559Y-128118294D02*
X82483559Y-127443294D01*
X72133559Y-128118294D02*
X72133559Y-127443294D01*
X72133559Y-117768294D02*
X72808559Y-117768294D01*
X72133559Y-128118294D02*
X72808559Y-128118294D01*
X82483559Y-128118294D02*
X81808559Y-128118294D01*
X82483559Y-117768294D02*
X81808559Y-117768294D01*
X72133559Y-118443294D02*
X70858559Y-118443294D01*
D13*
X91786559Y-123578294D02*
X90770559Y-123578294D01*
X90770559Y-123578294D02*
X90770559Y-125864294D01*
X90770559Y-125864294D02*
X91786559Y-125864294D01*
X91786559Y-125864294D02*
X91786559Y-123578294D01*
X87595559Y-129039294D02*
X87595559Y-130055294D01*
X87595559Y-130055294D02*
X89881559Y-130055294D01*
X89881559Y-130055294D02*
X89881559Y-129039294D01*
X89881559Y-129039294D02*
X87595559Y-129039294D01*
X71466559Y-115831294D02*
X71466559Y-114815294D01*
X71466559Y-114815294D02*
X69180559Y-114815294D01*
X69180559Y-114815294D02*
X69180559Y-115831294D01*
X69180559Y-115831294D02*
X71466559Y-115831294D01*
X67275559Y-119260294D02*
X67275559Y-120276294D01*
X67275559Y-120276294D02*
X69561559Y-120276294D01*
X69561559Y-120276294D02*
X69561559Y-119260294D01*
X69561559Y-119260294D02*
X67275559Y-119260294D01*
X67275559Y-129420294D02*
X67275559Y-130436294D01*
X67275559Y-130436294D02*
X69561559Y-130436294D01*
X69561559Y-130436294D02*
X69561559Y-129420294D01*
X69561559Y-129420294D02*
X67275559Y-129420294D01*
X83208000Y-115487000D02*
X82192000Y-115487000D01*
X82192000Y-115487000D02*
X82192000Y-117773000D01*
X82192000Y-117773000D02*
X83208000Y-117773000D01*
X83208000Y-117773000D02*
X83208000Y-115487000D01*
X83150559Y-128150294D02*
X83150559Y-129166294D01*
X83150559Y-129166294D02*
X85436559Y-129166294D01*
X85436559Y-129166294D02*
X85436559Y-128150294D01*
X85436559Y-128150294D02*
X83150559Y-128150294D01*
X69180559Y-116720294D02*
X69180559Y-117736294D01*
X69180559Y-117736294D02*
X71466559Y-117736294D01*
X71466559Y-117736294D02*
X71466559Y-116720294D01*
X71466559Y-116720294D02*
X69180559Y-116720294D01*
D17*
X61438559Y-117728294D02*
X61438559Y-116728294D01*
D15*
X61538559Y-117828294D02*
X61338559Y-117828294D01*
X61338559Y-117828294D02*
X61338559Y-116628294D01*
X61338559Y-116628294D02*
X61538559Y-116628294D01*
X65138559Y-117828294D02*
X61538559Y-117828294D01*
X61538559Y-116628294D02*
X65138559Y-116628294D01*
X65138559Y-116628294D02*
X65138559Y-117828294D01*
X63084559Y-117609294D02*
X63084559Y-116847294D01*
X63592559Y-117609294D02*
X63592559Y-116847294D01*
X63592559Y-116847294D02*
X63084559Y-117228294D01*
X63084559Y-117228294D02*
X63592559Y-117609294D01*
D17*
X86900000Y-110730000D02*
X87900000Y-110730000D01*
D15*
X86800000Y-110830000D02*
X86800000Y-110630000D01*
X86800000Y-110630000D02*
X88000000Y-110630000D01*
X88000000Y-110630000D02*
X88000000Y-110830000D01*
X86800000Y-114430000D02*
X86800000Y-110830000D01*
X88000000Y-110830000D02*
X88000000Y-114430000D01*
X88000000Y-114430000D02*
X86800000Y-114430000D01*
X87019000Y-112376000D02*
X87781000Y-112376000D01*
X87019000Y-112884000D02*
X87781000Y-112884000D01*
X87781000Y-112884000D02*
X87400000Y-112376000D01*
X87400000Y-112376000D02*
X87019000Y-112884000D01*
D17*
X90638559Y-137683294D02*
X90638559Y-138683294D01*
D15*
X90538559Y-137583294D02*
X90738559Y-137583294D01*
X90738559Y-137583294D02*
X90738559Y-138783294D01*
X90738559Y-138783294D02*
X90538559Y-138783294D01*
X86938559Y-137583294D02*
X90538559Y-137583294D01*
X90538559Y-138783294D02*
X86938559Y-138783294D01*
X86938559Y-138783294D02*
X86938559Y-137583294D01*
X88992559Y-137802294D02*
X88992559Y-138564294D01*
X88484559Y-137802294D02*
X88484559Y-138564294D01*
X88484559Y-138564294D02*
X88992559Y-138183294D01*
X88992559Y-138183294D02*
X88484559Y-137802294D01*
D17*
X67013559Y-141353294D02*
X66013559Y-141353294D01*
D15*
X67113559Y-141253294D02*
X67113559Y-141453294D01*
X67113559Y-141453294D02*
X65913559Y-141453294D01*
X65913559Y-141453294D02*
X65913559Y-141253294D01*
X67113559Y-137653294D02*
X67113559Y-141253294D01*
X65913559Y-141253294D02*
X65913559Y-137653294D01*
X65913559Y-137653294D02*
X67113559Y-137653294D01*
X66894559Y-139707294D02*
X66132559Y-139707294D01*
X66894559Y-139199294D02*
X66132559Y-139199294D01*
X66132559Y-139199294D02*
X66513559Y-139707294D01*
X66513559Y-139707294D02*
X66894559Y-139199294D01*
D13*
X89881559Y-124467294D02*
X89881559Y-123451294D01*
X89881559Y-123451294D02*
X87595559Y-123451294D01*
X87595559Y-123451294D02*
X87595559Y-124467294D01*
X87595559Y-124467294D02*
X89881559Y-124467294D01*
D15*
X70987719Y-112133054D02*
X70939459Y-112133054D01*
X68188739Y-112834094D02*
X68188739Y-112133054D01*
X68188739Y-112133054D02*
X68437659Y-112133054D01*
X70987719Y-112133054D02*
X71188379Y-112133054D01*
X71188379Y-112133054D02*
X71188379Y-112834094D01*
X92563799Y-119162454D02*
X92563799Y-119114194D01*
X91862759Y-116363474D02*
X92563799Y-116363474D01*
X92563799Y-116363474D02*
X92563799Y-116612394D01*
X92563799Y-119162454D02*
X92563799Y-119363114D01*
X92563799Y-119363114D02*
X91862759Y-119363114D01*
X85534399Y-142008534D02*
X85582659Y-142008534D01*
X88333379Y-141307494D02*
X88333379Y-142008534D01*
X88333379Y-142008534D02*
X88084459Y-142008534D01*
X85534399Y-142008534D02*
X85333739Y-142008534D01*
X85333739Y-142008534D02*
X85333739Y-141307494D01*
X62053319Y-134344134D02*
X62053319Y-134392394D01*
X62754359Y-137143114D02*
X62053319Y-137143114D01*
X62053319Y-137143114D02*
X62053319Y-136894194D01*
X62053319Y-134344134D02*
X62053319Y-134143474D01*
X62053319Y-134143474D02*
X62754359Y-134143474D01*
D13*
X67275559Y-117736294D02*
X68291559Y-117736294D01*
X68291559Y-117736294D02*
X68291559Y-115450294D01*
X68291559Y-115450294D02*
X67275559Y-115450294D01*
X67275559Y-115450294D02*
X67275559Y-117736294D01*
X87595559Y-119260294D02*
X87595559Y-120276294D01*
X87595559Y-120276294D02*
X89881559Y-120276294D01*
X89881559Y-120276294D02*
X89881559Y-119260294D01*
X89881559Y-119260294D02*
X87595559Y-119260294D01*
X66640559Y-114561294D02*
X67656559Y-114561294D01*
X67656559Y-114561294D02*
X67656559Y-112275294D01*
X67656559Y-112275294D02*
X66640559Y-112275294D01*
X66640559Y-112275294D02*
X66640559Y-114561294D01*
X87595559Y-117355294D02*
X87595559Y-118371294D01*
X87595559Y-118371294D02*
X89881559Y-118371294D01*
X89881559Y-118371294D02*
X89881559Y-117355294D01*
X89881559Y-117355294D02*
X87595559Y-117355294D01*
X86706559Y-134500294D02*
X85690559Y-134500294D01*
X85690559Y-134500294D02*
X85690559Y-136786294D01*
X85690559Y-136786294D02*
X86706559Y-136786294D01*
X86706559Y-136786294D02*
X86706559Y-134500294D01*
X67656559Y-134500294D02*
X66640559Y-134500294D01*
X66640559Y-134500294D02*
X66640559Y-136786294D01*
X66640559Y-136786294D02*
X67656559Y-136786294D01*
X67656559Y-136786294D02*
X67656559Y-134500294D01*
X83785559Y-140596294D02*
X84801559Y-140596294D01*
X84801559Y-140596294D02*
X84801559Y-138310294D01*
X84801559Y-138310294D02*
X83785559Y-138310294D01*
X83785559Y-138310294D02*
X83785559Y-140596294D01*
X65751559Y-134500294D02*
X64735559Y-134500294D01*
X64735559Y-134500294D02*
X64735559Y-136786294D01*
X64735559Y-136786294D02*
X65751559Y-136786294D01*
X65751559Y-136786294D02*
X65751559Y-134500294D01*
X108849184Y-124519768D02*
X107833184Y-124519768D01*
X107833184Y-124519768D02*
X107833184Y-126805768D01*
X107833184Y-126805768D02*
X108849184Y-126805768D01*
X108849184Y-126805768D02*
X108849184Y-124519768D01*
X71258000Y-127737000D02*
X70242000Y-127737000D01*
X70242000Y-127737000D02*
X70242000Y-130023000D01*
X70242000Y-130023000D02*
X71258000Y-130023000D01*
X71258000Y-130023000D02*
X71258000Y-127737000D01*
X86706559Y-124086294D02*
X86706559Y-123070294D01*
X86706559Y-123070294D02*
X84420559Y-123070294D01*
X84420559Y-123070294D02*
X84420559Y-124086294D01*
X84420559Y-124086294D02*
X86706559Y-124086294D01*
X84420559Y-119260294D02*
X84420559Y-120276294D01*
X84420559Y-120276294D02*
X86706559Y-120276294D01*
X86706559Y-120276294D02*
X86706559Y-119260294D01*
X86706559Y-119260294D02*
X84420559Y-119260294D01*
X84420559Y-121165294D02*
X84420559Y-122181294D01*
X84420559Y-122181294D02*
X86706559Y-122181294D01*
X86706559Y-122181294D02*
X86706559Y-121165294D01*
X86706559Y-121165294D02*
X84420559Y-121165294D01*
X85055559Y-132976294D02*
X86071559Y-132976294D01*
X86071559Y-132976294D02*
X86071559Y-130690294D01*
X86071559Y-130690294D02*
X85055559Y-130690294D01*
X85055559Y-130690294D02*
X85055559Y-132976294D01*
X69561559Y-138945294D02*
X68545559Y-138945294D01*
X68545559Y-138945294D02*
X68545559Y-141231294D01*
X68545559Y-141231294D02*
X69561559Y-141231294D01*
X69561559Y-141231294D02*
X69561559Y-138945294D01*
X68792000Y-127173000D02*
X69808000Y-127173000D01*
X69808000Y-127173000D02*
X69808000Y-124887000D01*
X69808000Y-124887000D02*
X68792000Y-124887000D01*
X68792000Y-124887000D02*
X68792000Y-127173000D01*
X87976559Y-130690294D02*
X86960559Y-130690294D01*
X86960559Y-130690294D02*
X86960559Y-132976294D01*
X86960559Y-132976294D02*
X87976559Y-132976294D01*
X87976559Y-132976294D02*
X87976559Y-130690294D01*
X71466559Y-138945294D02*
X70450559Y-138945294D01*
X70450559Y-138945294D02*
X70450559Y-141231294D01*
X70450559Y-141231294D02*
X71466559Y-141231294D01*
X71466559Y-141231294D02*
X71466559Y-138945294D01*
D15*
X90550000Y-126430000D02*
G75*
G03X90550000Y-126430000I-100000J0D01*
G01*
X90200000Y-126980000D02*
X90200000Y-126480000D01*
X87300000Y-126980000D02*
X90200000Y-126980000D01*
X87300000Y-126480000D02*
X87300000Y-126980000D01*
X90200000Y-126480000D02*
X87300000Y-126480000D01*
X82618559Y-129833294D02*
X82618559Y-133833294D01*
X82618559Y-133833294D02*
X79618559Y-133833294D01*
X79618559Y-133833294D02*
X79618559Y-129833294D01*
X79618559Y-129833294D02*
X82618559Y-129833294D01*
D13*
X70043000Y-123638000D02*
X70043000Y-122622000D01*
X70043000Y-122622000D02*
X67757000Y-122622000D01*
X67757000Y-122622000D02*
X67757000Y-123638000D01*
X67757000Y-123638000D02*
X70043000Y-123638000D01*
D16*
X111082985Y-123582661D02*
G75*
G03X111082985Y-123582661I-647575J0D01*
G01*
D13*
X79086559Y-130681468D02*
X78070559Y-130681468D01*
X78070559Y-130681468D02*
X78070559Y-132967468D01*
X78070559Y-132967468D02*
X79086559Y-132967468D01*
X79086559Y-132967468D02*
X79086559Y-130681468D01*
X83150559Y-132976294D02*
X84166559Y-132976294D01*
X84166559Y-132976294D02*
X84166559Y-130690294D01*
X84166559Y-130690294D02*
X83150559Y-130690294D01*
X83150559Y-130690294D02*
X83150559Y-132976294D01*
D15*
X95486624Y-119170380D02*
X95486624Y-126871660D01*
X94485864Y-119170380D02*
X94485864Y-126871660D01*
X94485864Y-126871660D02*
X103685744Y-126871660D01*
X103685744Y-126871660D02*
X103685744Y-119170380D01*
X103685744Y-119170380D02*
X94485864Y-119170380D01*
D13*
X89843000Y-116738000D02*
X89843000Y-115722000D01*
X89843000Y-115722000D02*
X87557000Y-115722000D01*
X87557000Y-115722000D02*
X87557000Y-116738000D01*
X87557000Y-116738000D02*
X89843000Y-116738000D01*
D15*
X66850000Y-91730000D02*
X66850000Y-89830000D01*
X65750000Y-91730000D02*
X65750000Y-89830000D01*
X66300000Y-90830000D02*
X66300000Y-90380000D01*
X66050000Y-90880000D02*
X66550000Y-90880000D01*
X66300000Y-90880000D02*
X66050000Y-90630000D01*
X66050000Y-90630000D02*
X66550000Y-90630000D01*
X66550000Y-90630000D02*
X66300000Y-90880000D01*
X86550000Y-91730000D02*
X86550000Y-89830000D01*
X85450000Y-91730000D02*
X85450000Y-89830000D01*
X86000000Y-90830000D02*
X86000000Y-90380000D01*
X85750000Y-90880000D02*
X86250000Y-90880000D01*
X86000000Y-90880000D02*
X85750000Y-90630000D01*
X85750000Y-90630000D02*
X86250000Y-90630000D01*
X86250000Y-90630000D02*
X86000000Y-90880000D01*
X106150000Y-91830000D02*
X106150000Y-89930000D01*
X105050000Y-91830000D02*
X105050000Y-89930000D01*
X105600000Y-90930000D02*
X105600000Y-90480000D01*
X105350000Y-90980000D02*
X105850000Y-90980000D01*
X105600000Y-90980000D02*
X105350000Y-90730000D01*
X105350000Y-90730000D02*
X105850000Y-90730000D01*
X105850000Y-90730000D02*
X105600000Y-90980000D01*
X125850000Y-91830000D02*
X125850000Y-89930000D01*
X124750000Y-91830000D02*
X124750000Y-89930000D01*
X125300000Y-90930000D02*
X125300000Y-90480000D01*
X125050000Y-90980000D02*
X125550000Y-90980000D01*
X125300000Y-90980000D02*
X125050000Y-90730000D01*
X125050000Y-90730000D02*
X125550000Y-90730000D01*
X125550000Y-90730000D02*
X125300000Y-90980000D01*
X145450000Y-91830000D02*
X145450000Y-89930000D01*
X144350000Y-91830000D02*
X144350000Y-89930000D01*
X144900000Y-90930000D02*
X144900000Y-90480000D01*
X144650000Y-90980000D02*
X145150000Y-90980000D01*
X144900000Y-90980000D02*
X144650000Y-90730000D01*
X144650000Y-90730000D02*
X145150000Y-90730000D01*
X145150000Y-90730000D02*
X144900000Y-90980000D01*
D13*
X60408000Y-89487000D02*
X59392000Y-89487000D01*
X59392000Y-89487000D02*
X59392000Y-91773000D01*
X59392000Y-91773000D02*
X60408000Y-91773000D01*
X60408000Y-91773000D02*
X60408000Y-89487000D01*
X80008000Y-89587000D02*
X78992000Y-89587000D01*
X78992000Y-89587000D02*
X78992000Y-91873000D01*
X78992000Y-91873000D02*
X80008000Y-91873000D01*
X80008000Y-91873000D02*
X80008000Y-89587000D01*
X99508000Y-89687000D02*
X98492000Y-89687000D01*
X98492000Y-89687000D02*
X98492000Y-91973000D01*
X98492000Y-91973000D02*
X99508000Y-91973000D01*
X99508000Y-91973000D02*
X99508000Y-89687000D01*
X119208000Y-89687000D02*
X118192000Y-89687000D01*
X118192000Y-89687000D02*
X118192000Y-91973000D01*
X118192000Y-91973000D02*
X119208000Y-91973000D01*
X119208000Y-91973000D02*
X119208000Y-89687000D01*
X138808000Y-89687000D02*
X137792000Y-89687000D01*
X137792000Y-89687000D02*
X137792000Y-91973000D01*
X137792000Y-91973000D02*
X138808000Y-91973000D01*
X138808000Y-91973000D02*
X138808000Y-89687000D01*
D15*
X74347275Y-150214192D02*
X87047275Y-150214192D01*
X87047275Y-150214192D02*
X87047275Y-152754192D01*
X87047275Y-152754192D02*
X74347275Y-152754192D01*
X71527275Y-149934192D02*
X73077275Y-149934192D01*
X74347275Y-150214192D02*
X74347275Y-152754192D01*
X73077275Y-153034192D02*
X71527275Y-153034192D01*
X71527275Y-153034192D02*
X71527275Y-149934192D01*
X127751448Y-149626544D02*
X140451448Y-149626544D01*
X140451448Y-149626544D02*
X140451448Y-152166544D01*
X140451448Y-152166544D02*
X127751448Y-152166544D01*
X124931448Y-149346544D02*
X126481448Y-149346544D01*
X127751448Y-149626544D02*
X127751448Y-152166544D01*
X126481448Y-152446544D02*
X124931448Y-152446544D01*
X124931448Y-152446544D02*
X124931448Y-149346544D01*
X85800000Y-114230000D02*
X85000000Y-115030000D01*
X85200000Y-115030000D02*
X85800000Y-114430000D01*
X80600000Y-115030000D02*
X80600000Y-111430000D01*
X80600000Y-111430000D02*
X85800000Y-111430000D01*
X85800000Y-111430000D02*
X85800000Y-115030000D01*
X85800000Y-115030000D02*
X80600000Y-115030000D01*
D13*
X84908000Y-115487000D02*
X83892000Y-115487000D01*
X83892000Y-115487000D02*
X83892000Y-117773000D01*
X83892000Y-117773000D02*
X84908000Y-117773000D01*
X84908000Y-117773000D02*
X84908000Y-115487000D01*
X86608000Y-115487000D02*
X85592000Y-115487000D01*
X85592000Y-115487000D02*
X85592000Y-117773000D01*
X85592000Y-117773000D02*
X86608000Y-117773000D01*
X86608000Y-117773000D02*
X86608000Y-115487000D01*
X66508000Y-59087000D02*
X65492000Y-59087000D01*
X65492000Y-59087000D02*
X65492000Y-61373000D01*
X65492000Y-61373000D02*
X66508000Y-61373000D01*
X66508000Y-61373000D02*
X66508000Y-59087000D01*
D18*
X144339524Y-60459810D02*
X144049238Y-60459810D01*
X144194381Y-60459810D02*
X144194381Y-59951810D01*
X144146000Y-60024381D01*
X144097619Y-60072762D01*
X144049238Y-60096952D01*
X144557238Y-60459810D02*
X144557238Y-59951810D01*
X144605619Y-60266286D02*
X144750762Y-60459810D01*
X144750762Y-60121143D02*
X144557238Y-60314667D01*
X124739524Y-60459810D02*
X124449238Y-60459810D01*
X124594381Y-60459810D02*
X124594381Y-59951810D01*
X124546000Y-60024381D01*
X124497619Y-60072762D01*
X124449238Y-60096952D01*
X124957238Y-60459810D02*
X124957238Y-59951810D01*
X125005619Y-60266286D02*
X125150762Y-60459810D01*
X125150762Y-60121143D02*
X124957238Y-60314667D01*
X105139524Y-60459810D02*
X104849238Y-60459810D01*
X104994381Y-60459810D02*
X104994381Y-59951810D01*
X104946000Y-60024381D01*
X104897619Y-60072762D01*
X104849238Y-60096952D01*
X105357238Y-60459810D02*
X105357238Y-59951810D01*
X105405619Y-60266286D02*
X105550762Y-60459810D01*
X105550762Y-60121143D02*
X105357238Y-60314667D01*
X85539524Y-60459810D02*
X85249238Y-60459810D01*
X85394381Y-60459810D02*
X85394381Y-59951810D01*
X85346000Y-60024381D01*
X85297619Y-60072762D01*
X85249238Y-60096952D01*
X85757238Y-60459810D02*
X85757238Y-59951810D01*
X85805619Y-60266286D02*
X85950762Y-60459810D01*
X85950762Y-60121143D02*
X85757238Y-60314667D01*
D11*
X76821429Y-113110952D02*
X76821429Y-112349047D01*
X77202381Y-112729999D02*
X76440476Y-112729999D01*
D18*
X90976178Y-130793104D02*
X90685892Y-130793104D01*
X90831035Y-130793104D02*
X90831035Y-130285104D01*
X90782654Y-130357675D01*
X90734273Y-130406056D01*
X90685892Y-130430246D01*
X91411607Y-130454437D02*
X91411607Y-130793104D01*
X91193892Y-130454437D02*
X91193892Y-130720532D01*
X91218083Y-130768913D01*
X91266464Y-130793104D01*
X91339035Y-130793104D01*
X91387416Y-130768913D01*
X91411607Y-130744723D01*
X91822845Y-130527008D02*
X91653511Y-130527008D01*
X91653511Y-130793104D02*
X91653511Y-130285104D01*
X91895416Y-130285104D01*
X88968369Y-136580675D02*
X88968369Y-136870961D01*
X88968369Y-136725818D02*
X88460369Y-136725818D01*
X88532940Y-136774199D01*
X88581321Y-136822580D01*
X88605511Y-136870961D01*
X88629702Y-136145246D02*
X88968369Y-136145246D01*
X88629702Y-136362961D02*
X88895797Y-136362961D01*
X88944178Y-136338770D01*
X88968369Y-136290389D01*
X88968369Y-136217818D01*
X88944178Y-136169437D01*
X88919988Y-136145246D01*
X88702273Y-135734008D02*
X88702273Y-135903342D01*
X88968369Y-135903342D02*
X88460369Y-135903342D01*
X88460369Y-135661437D01*
D19*
X89682714Y-134727857D02*
X90444714Y-134473857D01*
X89682714Y-134219857D01*
X90444714Y-133530428D02*
X90081857Y-133784428D01*
X90444714Y-133965856D02*
X89682714Y-133965856D01*
X89682714Y-133675571D01*
X89719000Y-133602999D01*
X89755286Y-133566714D01*
X89827857Y-133530428D01*
X89936714Y-133530428D01*
X90009286Y-133566714D01*
X90045571Y-133602999D01*
X90081857Y-133675571D01*
X90081857Y-133965856D01*
X89755286Y-133240142D02*
X89719000Y-133203856D01*
X89682714Y-133131285D01*
X89682714Y-132949856D01*
X89719000Y-132877285D01*
X89755286Y-132840999D01*
X89827857Y-132804714D01*
X89900429Y-132804714D01*
X90009286Y-132840999D01*
X90444714Y-133276428D01*
X90444714Y-132804714D01*
D18*
X106454136Y-125432958D02*
X106478326Y-125408768D01*
X106526707Y-125384578D01*
X106647660Y-125384578D01*
X106696041Y-125408768D01*
X106720231Y-125432958D01*
X106744422Y-125481339D01*
X106744422Y-125529720D01*
X106720231Y-125602292D01*
X106429945Y-125892578D01*
X106744422Y-125892578D01*
X106937946Y-125432958D02*
X106962136Y-125408768D01*
X107010517Y-125384578D01*
X107131470Y-125384578D01*
X107179851Y-125408768D01*
X107204041Y-125432958D01*
X107228232Y-125481339D01*
X107228232Y-125529720D01*
X107204041Y-125602292D01*
X106913755Y-125892578D01*
X107228232Y-125892578D01*
D15*
X97293565Y-133615149D02*
X96817374Y-133948483D01*
X97293565Y-134186578D02*
X96293565Y-134186578D01*
X96293565Y-133805625D01*
X96341184Y-133710387D01*
X96388803Y-133662768D01*
X96484041Y-133615149D01*
X96626898Y-133615149D01*
X96722136Y-133662768D01*
X96769755Y-133710387D01*
X96817374Y-133805625D01*
X96817374Y-134186578D01*
X96769755Y-133186578D02*
X96769755Y-132853244D01*
X97293565Y-132710387D02*
X97293565Y-133186578D01*
X96293565Y-133186578D01*
X96293565Y-132710387D01*
X97245946Y-132329435D02*
X97293565Y-132186578D01*
X97293565Y-131948482D01*
X97245946Y-131853244D01*
X97198327Y-131805625D01*
X97103089Y-131758006D01*
X97007851Y-131758006D01*
X96912613Y-131805625D01*
X96864994Y-131853244D01*
X96817374Y-131948482D01*
X96769755Y-132138959D01*
X96722136Y-132234197D01*
X96674517Y-132281816D01*
X96579279Y-132329435D01*
X96484041Y-132329435D01*
X96388803Y-132281816D01*
X96341184Y-132234197D01*
X96293565Y-132138959D01*
X96293565Y-131900863D01*
X96341184Y-131758006D01*
X96769755Y-131329435D02*
X96769755Y-130996101D01*
X97293565Y-130853244D02*
X97293565Y-131329435D01*
X96293565Y-131329435D01*
X96293565Y-130853244D01*
X96293565Y-130567530D02*
X96293565Y-129996101D01*
X97293565Y-130281816D02*
X96293565Y-130281816D01*
X108793565Y-133519911D02*
X107793565Y-133519911D01*
X108269755Y-133519911D02*
X108269755Y-132948482D01*
X108793565Y-132948482D02*
X107793565Y-132948482D01*
X107793565Y-132567530D02*
X108793565Y-132329435D01*
X108079279Y-132138958D01*
X108793565Y-131948482D01*
X107793565Y-131710387D01*
X108269755Y-130996101D02*
X108317374Y-130853244D01*
X108364994Y-130805625D01*
X108460232Y-130758006D01*
X108603089Y-130758006D01*
X108698327Y-130805625D01*
X108745946Y-130853244D01*
X108793565Y-130948482D01*
X108793565Y-131329435D01*
X107793565Y-131329435D01*
X107793565Y-130996101D01*
X107841184Y-130900863D01*
X107888803Y-130853244D01*
X107984041Y-130805625D01*
X108079279Y-130805625D01*
X108174517Y-130853244D01*
X108222136Y-130900863D01*
X108269755Y-130996101D01*
X108269755Y-131329435D01*
D19*
X68364130Y-137022150D02*
X68364130Y-137276150D01*
X68763273Y-137276150D02*
X68001273Y-137276150D01*
X68001273Y-136913293D01*
X68001273Y-136731865D02*
X68001273Y-136296436D01*
X68763273Y-136514150D02*
X68001273Y-136514150D01*
X68763273Y-136042436D02*
X68001273Y-136042436D01*
X68001273Y-135861008D01*
X68037559Y-135752151D01*
X68110130Y-135679579D01*
X68182702Y-135643294D01*
X68327845Y-135607008D01*
X68436702Y-135607008D01*
X68581845Y-135643294D01*
X68654416Y-135679579D01*
X68726988Y-135752151D01*
X68763273Y-135861008D01*
X68763273Y-136042436D01*
X68763273Y-135280436D02*
X68001273Y-135280436D01*
X66223273Y-133212150D02*
X65461273Y-133212150D01*
X65533845Y-132885579D02*
X65497559Y-132849293D01*
X65461273Y-132776722D01*
X65461273Y-132595293D01*
X65497559Y-132522722D01*
X65533845Y-132486436D01*
X65606416Y-132450151D01*
X65678988Y-132450151D01*
X65787845Y-132486436D01*
X66223273Y-132921865D01*
X66223273Y-132450151D01*
X66150702Y-131688151D02*
X66186988Y-131724437D01*
X66223273Y-131833294D01*
X66223273Y-131905865D01*
X66186988Y-132014722D01*
X66114416Y-132087294D01*
X66041845Y-132123579D01*
X65896702Y-132159865D01*
X65787845Y-132159865D01*
X65642702Y-132123579D01*
X65570130Y-132087294D01*
X65497559Y-132014722D01*
X65461273Y-131905865D01*
X65461273Y-131833294D01*
X65497559Y-131724437D01*
X65533845Y-131688151D01*
X76643988Y-120446008D02*
X76643988Y-121062865D01*
X76680273Y-121135437D01*
X76716559Y-121171723D01*
X76789130Y-121208008D01*
X76934273Y-121208008D01*
X77006845Y-121171723D01*
X77043130Y-121135437D01*
X77079416Y-121062865D01*
X77079416Y-120446008D01*
X77841416Y-121208008D02*
X77405988Y-121208008D01*
X77623702Y-121208008D02*
X77623702Y-120446008D01*
X77551131Y-120554865D01*
X77478559Y-120627437D01*
X77405988Y-120663723D01*
D18*
X90564940Y-124612437D02*
X90564940Y-124951104D01*
X90443987Y-124418913D02*
X90323035Y-124781770D01*
X90637511Y-124781770D01*
X90831035Y-124902723D02*
X90855226Y-124926913D01*
X90831035Y-124951104D01*
X90806845Y-124926913D01*
X90831035Y-124902723D01*
X90831035Y-124951104D01*
X91024559Y-124443104D02*
X91363226Y-124443104D01*
X91145512Y-124951104D01*
X91774465Y-124612437D02*
X91774465Y-124951104D01*
X91556750Y-124612437D02*
X91556750Y-124878532D01*
X91580941Y-124926913D01*
X91629322Y-124951104D01*
X91701893Y-124951104D01*
X91750274Y-124926913D01*
X91774465Y-124902723D01*
X92185703Y-124685008D02*
X92016369Y-124685008D01*
X92016369Y-124951104D02*
X92016369Y-124443104D01*
X92258274Y-124443104D01*
X88968369Y-130091580D02*
X88968369Y-130381866D01*
X88968369Y-130236723D02*
X88460369Y-130236723D01*
X88532940Y-130285104D01*
X88581321Y-130333485D01*
X88605511Y-130381866D01*
X88460369Y-129777104D02*
X88460369Y-129728723D01*
X88484559Y-129680342D01*
X88508749Y-129656151D01*
X88557130Y-129631961D01*
X88653892Y-129607770D01*
X88774845Y-129607770D01*
X88871607Y-129631961D01*
X88919988Y-129656151D01*
X88944178Y-129680342D01*
X88968369Y-129728723D01*
X88968369Y-129777104D01*
X88944178Y-129825485D01*
X88919988Y-129849675D01*
X88871607Y-129873866D01*
X88774845Y-129898056D01*
X88653892Y-129898056D01*
X88557130Y-129873866D01*
X88508749Y-129849675D01*
X88484559Y-129825485D01*
X88460369Y-129777104D01*
X88629702Y-129172341D02*
X88968369Y-129172341D01*
X88629702Y-129390056D02*
X88895797Y-129390056D01*
X88944178Y-129365865D01*
X88968369Y-129317484D01*
X88968369Y-129244913D01*
X88944178Y-129196532D01*
X88919988Y-129172341D01*
X88702273Y-128761103D02*
X88702273Y-128930437D01*
X88968369Y-128930437D02*
X88460369Y-128930437D01*
X88460369Y-128688532D01*
X70045369Y-115940152D02*
X70045369Y-115891771D01*
X70069559Y-115843390D01*
X70093749Y-115819199D01*
X70142130Y-115795009D01*
X70238892Y-115770818D01*
X70359845Y-115770818D01*
X70456607Y-115795009D01*
X70504988Y-115819199D01*
X70529178Y-115843390D01*
X70553369Y-115891771D01*
X70553369Y-115940152D01*
X70529178Y-115988533D01*
X70504988Y-116012723D01*
X70456607Y-116036914D01*
X70359845Y-116061104D01*
X70238892Y-116061104D01*
X70142130Y-116036914D01*
X70093749Y-116012723D01*
X70069559Y-115988533D01*
X70045369Y-115940152D01*
X70504988Y-115553104D02*
X70529178Y-115528913D01*
X70553369Y-115553104D01*
X70529178Y-115577294D01*
X70504988Y-115553104D01*
X70553369Y-115553104D01*
X70553369Y-115045103D02*
X70553369Y-115335389D01*
X70553369Y-115190246D02*
X70045369Y-115190246D01*
X70117940Y-115238627D01*
X70166321Y-115287008D01*
X70190511Y-115335389D01*
X70214702Y-114609674D02*
X70553369Y-114609674D01*
X70214702Y-114827389D02*
X70480797Y-114827389D01*
X70529178Y-114803198D01*
X70553369Y-114754817D01*
X70553369Y-114682246D01*
X70529178Y-114633865D01*
X70504988Y-114609674D01*
X68140369Y-120385152D02*
X68140369Y-120336771D01*
X68164559Y-120288390D01*
X68188749Y-120264199D01*
X68237130Y-120240009D01*
X68333892Y-120215818D01*
X68454845Y-120215818D01*
X68551607Y-120240009D01*
X68599988Y-120264199D01*
X68624178Y-120288390D01*
X68648369Y-120336771D01*
X68648369Y-120385152D01*
X68624178Y-120433533D01*
X68599988Y-120457723D01*
X68551607Y-120481914D01*
X68454845Y-120506104D01*
X68333892Y-120506104D01*
X68237130Y-120481914D01*
X68188749Y-120457723D01*
X68164559Y-120433533D01*
X68140369Y-120385152D01*
X68599988Y-119998104D02*
X68624178Y-119973913D01*
X68648369Y-119998104D01*
X68624178Y-120022294D01*
X68599988Y-119998104D01*
X68648369Y-119998104D01*
X68648369Y-119490103D02*
X68648369Y-119780389D01*
X68648369Y-119635246D02*
X68140369Y-119635246D01*
X68212940Y-119683627D01*
X68261321Y-119732008D01*
X68285511Y-119780389D01*
X68309702Y-119054674D02*
X68648369Y-119054674D01*
X68309702Y-119272389D02*
X68575797Y-119272389D01*
X68624178Y-119248198D01*
X68648369Y-119199817D01*
X68648369Y-119127246D01*
X68624178Y-119078865D01*
X68599988Y-119054674D01*
X68140369Y-130545152D02*
X68140369Y-130496771D01*
X68164559Y-130448390D01*
X68188749Y-130424199D01*
X68237130Y-130400009D01*
X68333892Y-130375818D01*
X68454845Y-130375818D01*
X68551607Y-130400009D01*
X68599988Y-130424199D01*
X68624178Y-130448390D01*
X68648369Y-130496771D01*
X68648369Y-130545152D01*
X68624178Y-130593533D01*
X68599988Y-130617723D01*
X68551607Y-130641914D01*
X68454845Y-130666104D01*
X68333892Y-130666104D01*
X68237130Y-130641914D01*
X68188749Y-130617723D01*
X68164559Y-130593533D01*
X68140369Y-130545152D01*
X68599988Y-130158104D02*
X68624178Y-130133913D01*
X68648369Y-130158104D01*
X68624178Y-130182294D01*
X68599988Y-130158104D01*
X68648369Y-130158104D01*
X68648369Y-129650103D02*
X68648369Y-129940389D01*
X68648369Y-129795246D02*
X68140369Y-129795246D01*
X68212940Y-129843627D01*
X68261321Y-129892008D01*
X68285511Y-129940389D01*
X68309702Y-129214674D02*
X68648369Y-129214674D01*
X68309702Y-129432389D02*
X68575797Y-129432389D01*
X68624178Y-129408198D01*
X68648369Y-129359817D01*
X68648369Y-129287246D01*
X68624178Y-129238865D01*
X68599988Y-129214674D01*
X82083142Y-116351810D02*
X82131523Y-116351810D01*
X82179904Y-116376000D01*
X82204095Y-116400190D01*
X82228285Y-116448571D01*
X82252476Y-116545333D01*
X82252476Y-116666286D01*
X82228285Y-116763048D01*
X82204095Y-116811429D01*
X82179904Y-116835619D01*
X82131523Y-116859810D01*
X82083142Y-116859810D01*
X82034761Y-116835619D01*
X82010571Y-116811429D01*
X81986380Y-116763048D01*
X81962190Y-116666286D01*
X81962190Y-116545333D01*
X81986380Y-116448571D01*
X82010571Y-116400190D01*
X82034761Y-116376000D01*
X82083142Y-116351810D01*
X82470190Y-116811429D02*
X82494381Y-116835619D01*
X82470190Y-116859810D01*
X82446000Y-116835619D01*
X82470190Y-116811429D01*
X82470190Y-116859810D01*
X82978191Y-116859810D02*
X82687905Y-116859810D01*
X82833048Y-116859810D02*
X82833048Y-116351810D01*
X82784667Y-116424381D01*
X82736286Y-116472762D01*
X82687905Y-116496952D01*
X83413620Y-116521143D02*
X83413620Y-116859810D01*
X83195905Y-116521143D02*
X83195905Y-116787238D01*
X83220096Y-116835619D01*
X83268477Y-116859810D01*
X83341048Y-116859810D01*
X83389429Y-116835619D01*
X83413620Y-116811429D01*
X84015369Y-129275152D02*
X84015369Y-129226771D01*
X84039559Y-129178390D01*
X84063749Y-129154199D01*
X84112130Y-129130009D01*
X84208892Y-129105818D01*
X84329845Y-129105818D01*
X84426607Y-129130009D01*
X84474988Y-129154199D01*
X84499178Y-129178390D01*
X84523369Y-129226771D01*
X84523369Y-129275152D01*
X84499178Y-129323533D01*
X84474988Y-129347723D01*
X84426607Y-129371914D01*
X84329845Y-129396104D01*
X84208892Y-129396104D01*
X84112130Y-129371914D01*
X84063749Y-129347723D01*
X84039559Y-129323533D01*
X84015369Y-129275152D01*
X84474988Y-128888104D02*
X84499178Y-128863913D01*
X84523369Y-128888104D01*
X84499178Y-128912294D01*
X84474988Y-128888104D01*
X84523369Y-128888104D01*
X84523369Y-128380103D02*
X84523369Y-128670389D01*
X84523369Y-128525246D02*
X84015369Y-128525246D01*
X84087940Y-128573627D01*
X84136321Y-128622008D01*
X84160511Y-128670389D01*
X84184702Y-127944674D02*
X84523369Y-127944674D01*
X84184702Y-128162389D02*
X84450797Y-128162389D01*
X84499178Y-128138198D01*
X84523369Y-128089817D01*
X84523369Y-128017246D01*
X84499178Y-127968865D01*
X84474988Y-127944674D01*
X70045369Y-117845152D02*
X70045369Y-117796771D01*
X70069559Y-117748390D01*
X70093749Y-117724199D01*
X70142130Y-117700009D01*
X70238892Y-117675818D01*
X70359845Y-117675818D01*
X70456607Y-117700009D01*
X70504988Y-117724199D01*
X70529178Y-117748390D01*
X70553369Y-117796771D01*
X70553369Y-117845152D01*
X70529178Y-117893533D01*
X70504988Y-117917723D01*
X70456607Y-117941914D01*
X70359845Y-117966104D01*
X70238892Y-117966104D01*
X70142130Y-117941914D01*
X70093749Y-117917723D01*
X70069559Y-117893533D01*
X70045369Y-117845152D01*
X70504988Y-117458104D02*
X70529178Y-117433913D01*
X70553369Y-117458104D01*
X70529178Y-117482294D01*
X70504988Y-117458104D01*
X70553369Y-117458104D01*
X70553369Y-116950103D02*
X70553369Y-117240389D01*
X70553369Y-117095246D02*
X70045369Y-117095246D01*
X70117940Y-117143627D01*
X70166321Y-117192008D01*
X70190511Y-117240389D01*
X70214702Y-116514674D02*
X70553369Y-116514674D01*
X70214702Y-116732389D02*
X70480797Y-116732389D01*
X70529178Y-116708198D01*
X70553369Y-116659817D01*
X70553369Y-116587246D01*
X70529178Y-116538865D01*
X70504988Y-116514674D01*
X88629702Y-124721294D02*
X88968369Y-124721294D01*
X88436178Y-124842247D02*
X88799035Y-124963199D01*
X88799035Y-124648723D01*
X88919988Y-124455199D02*
X88944178Y-124431008D01*
X88968369Y-124455199D01*
X88944178Y-124479389D01*
X88919988Y-124455199D01*
X88968369Y-124455199D01*
X88460369Y-124261675D02*
X88460369Y-123923008D01*
X88968369Y-124140722D01*
X88629702Y-123511769D02*
X88968369Y-123511769D01*
X88629702Y-123729484D02*
X88895797Y-123729484D01*
X88944178Y-123705293D01*
X88968369Y-123656912D01*
X88968369Y-123584341D01*
X88944178Y-123535960D01*
X88919988Y-123511769D01*
X88968369Y-123269865D02*
X88460369Y-123269865D01*
X88702273Y-123269865D02*
X88702273Y-122979579D01*
X88968369Y-122979579D02*
X88460369Y-122979579D01*
X67444892Y-116823104D02*
X67154606Y-116823104D01*
X67299749Y-116823104D02*
X67299749Y-116315104D01*
X67251368Y-116387675D01*
X67202987Y-116436056D01*
X67154606Y-116460246D01*
X67759368Y-116315104D02*
X67807749Y-116315104D01*
X67856130Y-116339294D01*
X67880321Y-116363484D01*
X67904511Y-116411865D01*
X67928702Y-116508627D01*
X67928702Y-116629580D01*
X67904511Y-116726342D01*
X67880321Y-116774723D01*
X67856130Y-116798913D01*
X67807749Y-116823104D01*
X67759368Y-116823104D01*
X67710987Y-116798913D01*
X67686797Y-116774723D01*
X67662606Y-116726342D01*
X67638416Y-116629580D01*
X67638416Y-116508627D01*
X67662606Y-116411865D01*
X67686797Y-116363484D01*
X67710987Y-116339294D01*
X67759368Y-116315104D01*
X68243178Y-116315104D02*
X68291559Y-116315104D01*
X68339940Y-116339294D01*
X68364131Y-116363484D01*
X68388321Y-116411865D01*
X68412512Y-116508627D01*
X68412512Y-116629580D01*
X68388321Y-116726342D01*
X68364131Y-116774723D01*
X68339940Y-116798913D01*
X68291559Y-116823104D01*
X68243178Y-116823104D01*
X68194797Y-116798913D01*
X68170607Y-116774723D01*
X68146416Y-116726342D01*
X68122226Y-116629580D01*
X68122226Y-116508627D01*
X68146416Y-116411865D01*
X68170607Y-116363484D01*
X68194797Y-116339294D01*
X68243178Y-116315104D01*
X88968369Y-120106961D02*
X88968369Y-120397247D01*
X88968369Y-120252104D02*
X88460369Y-120252104D01*
X88532940Y-120300485D01*
X88581321Y-120348866D01*
X88605511Y-120397247D01*
X88460369Y-119792485D02*
X88460369Y-119744104D01*
X88484559Y-119695723D01*
X88508749Y-119671532D01*
X88557130Y-119647342D01*
X88653892Y-119623151D01*
X88774845Y-119623151D01*
X88871607Y-119647342D01*
X88919988Y-119671532D01*
X88944178Y-119695723D01*
X88968369Y-119744104D01*
X88968369Y-119792485D01*
X88944178Y-119840866D01*
X88919988Y-119865056D01*
X88871607Y-119889247D01*
X88774845Y-119913437D01*
X88653892Y-119913437D01*
X88557130Y-119889247D01*
X88508749Y-119865056D01*
X88484559Y-119840866D01*
X88460369Y-119792485D01*
X88460369Y-119308675D02*
X88460369Y-119260294D01*
X88484559Y-119211913D01*
X88508749Y-119187722D01*
X88557130Y-119163532D01*
X88653892Y-119139341D01*
X88774845Y-119139341D01*
X88871607Y-119163532D01*
X88919988Y-119187722D01*
X88944178Y-119211913D01*
X88968369Y-119260294D01*
X88968369Y-119308675D01*
X88944178Y-119357056D01*
X88919988Y-119381246D01*
X88871607Y-119405437D01*
X88774845Y-119429627D01*
X88653892Y-119429627D01*
X88557130Y-119405437D01*
X88508749Y-119381246D01*
X88484559Y-119357056D01*
X88460369Y-119308675D01*
X66846178Y-113648104D02*
X66555892Y-113648104D01*
X66701035Y-113648104D02*
X66701035Y-113140104D01*
X66652654Y-113212675D01*
X66604273Y-113261056D01*
X66555892Y-113285246D01*
X67160654Y-113140104D02*
X67209035Y-113140104D01*
X67257416Y-113164294D01*
X67281607Y-113188484D01*
X67305797Y-113236865D01*
X67329988Y-113333627D01*
X67329988Y-113454580D01*
X67305797Y-113551342D01*
X67281607Y-113599723D01*
X67257416Y-113623913D01*
X67209035Y-113648104D01*
X67160654Y-113648104D01*
X67112273Y-113623913D01*
X67088083Y-113599723D01*
X67063892Y-113551342D01*
X67039702Y-113454580D01*
X67039702Y-113333627D01*
X67063892Y-113236865D01*
X67088083Y-113188484D01*
X67112273Y-113164294D01*
X67160654Y-113140104D01*
X67547702Y-113648104D02*
X67547702Y-113140104D01*
X67596083Y-113454580D02*
X67741226Y-113648104D01*
X67741226Y-113309437D02*
X67547702Y-113502961D01*
X88968369Y-118165675D02*
X88968369Y-118455961D01*
X88968369Y-118310818D02*
X88460369Y-118310818D01*
X88532940Y-118359199D01*
X88581321Y-118407580D01*
X88605511Y-118455961D01*
X88460369Y-117851199D02*
X88460369Y-117802818D01*
X88484559Y-117754437D01*
X88508749Y-117730246D01*
X88557130Y-117706056D01*
X88653892Y-117681865D01*
X88774845Y-117681865D01*
X88871607Y-117706056D01*
X88919988Y-117730246D01*
X88944178Y-117754437D01*
X88968369Y-117802818D01*
X88968369Y-117851199D01*
X88944178Y-117899580D01*
X88919988Y-117923770D01*
X88871607Y-117947961D01*
X88774845Y-117972151D01*
X88653892Y-117972151D01*
X88557130Y-117947961D01*
X88508749Y-117923770D01*
X88484559Y-117899580D01*
X88460369Y-117851199D01*
X88968369Y-117464151D02*
X88460369Y-117464151D01*
X88774845Y-117415770D02*
X88968369Y-117270627D01*
X88629702Y-117270627D02*
X88823226Y-117464151D01*
X85859892Y-135873104D02*
X85569606Y-135873104D01*
X85714749Y-135873104D02*
X85714749Y-135365104D01*
X85666368Y-135437675D01*
X85617987Y-135486056D01*
X85569606Y-135510246D01*
X86174368Y-135365104D02*
X86222749Y-135365104D01*
X86271130Y-135389294D01*
X86295321Y-135413484D01*
X86319511Y-135461865D01*
X86343702Y-135558627D01*
X86343702Y-135679580D01*
X86319511Y-135776342D01*
X86295321Y-135824723D01*
X86271130Y-135848913D01*
X86222749Y-135873104D01*
X86174368Y-135873104D01*
X86125987Y-135848913D01*
X86101797Y-135824723D01*
X86077606Y-135776342D01*
X86053416Y-135679580D01*
X86053416Y-135558627D01*
X86077606Y-135461865D01*
X86101797Y-135413484D01*
X86125987Y-135389294D01*
X86174368Y-135365104D01*
X86658178Y-135365104D02*
X86706559Y-135365104D01*
X86754940Y-135389294D01*
X86779131Y-135413484D01*
X86803321Y-135461865D01*
X86827512Y-135558627D01*
X86827512Y-135679580D01*
X86803321Y-135776342D01*
X86779131Y-135824723D01*
X86754940Y-135848913D01*
X86706559Y-135873104D01*
X86658178Y-135873104D01*
X86609797Y-135848913D01*
X86585607Y-135824723D01*
X86561416Y-135776342D01*
X86537226Y-135679580D01*
X86537226Y-135558627D01*
X86561416Y-135461865D01*
X86585607Y-135413484D01*
X86609797Y-135389294D01*
X86658178Y-135365104D01*
X66809892Y-135873104D02*
X66519606Y-135873104D01*
X66664749Y-135873104D02*
X66664749Y-135365104D01*
X66616368Y-135437675D01*
X66567987Y-135486056D01*
X66519606Y-135510246D01*
X67124368Y-135365104D02*
X67172749Y-135365104D01*
X67221130Y-135389294D01*
X67245321Y-135413484D01*
X67269511Y-135461865D01*
X67293702Y-135558627D01*
X67293702Y-135679580D01*
X67269511Y-135776342D01*
X67245321Y-135824723D01*
X67221130Y-135848913D01*
X67172749Y-135873104D01*
X67124368Y-135873104D01*
X67075987Y-135848913D01*
X67051797Y-135824723D01*
X67027606Y-135776342D01*
X67003416Y-135679580D01*
X67003416Y-135558627D01*
X67027606Y-135461865D01*
X67051797Y-135413484D01*
X67075987Y-135389294D01*
X67124368Y-135365104D01*
X67608178Y-135365104D02*
X67656559Y-135365104D01*
X67704940Y-135389294D01*
X67729131Y-135413484D01*
X67753321Y-135461865D01*
X67777512Y-135558627D01*
X67777512Y-135679580D01*
X67753321Y-135776342D01*
X67729131Y-135824723D01*
X67704940Y-135848913D01*
X67656559Y-135873104D01*
X67608178Y-135873104D01*
X67559797Y-135848913D01*
X67535607Y-135824723D01*
X67511416Y-135776342D01*
X67487226Y-135679580D01*
X67487226Y-135558627D01*
X67511416Y-135461865D01*
X67535607Y-135413484D01*
X67559797Y-135389294D01*
X67608178Y-135365104D01*
X83991178Y-139683104D02*
X83700892Y-139683104D01*
X83846035Y-139683104D02*
X83846035Y-139175104D01*
X83797654Y-139247675D01*
X83749273Y-139296056D01*
X83700892Y-139320246D01*
X84305654Y-139175104D02*
X84354035Y-139175104D01*
X84402416Y-139199294D01*
X84426607Y-139223484D01*
X84450797Y-139271865D01*
X84474988Y-139368627D01*
X84474988Y-139489580D01*
X84450797Y-139586342D01*
X84426607Y-139634723D01*
X84402416Y-139658913D01*
X84354035Y-139683104D01*
X84305654Y-139683104D01*
X84257273Y-139658913D01*
X84233083Y-139634723D01*
X84208892Y-139586342D01*
X84184702Y-139489580D01*
X84184702Y-139368627D01*
X84208892Y-139271865D01*
X84233083Y-139223484D01*
X84257273Y-139199294D01*
X84305654Y-139175104D01*
X84692702Y-139683104D02*
X84692702Y-139175104D01*
X84741083Y-139489580D02*
X84886226Y-139683104D01*
X84886226Y-139344437D02*
X84692702Y-139537961D01*
X64941178Y-135873104D02*
X64650892Y-135873104D01*
X64796035Y-135873104D02*
X64796035Y-135365104D01*
X64747654Y-135437675D01*
X64699273Y-135486056D01*
X64650892Y-135510246D01*
X65255654Y-135365104D02*
X65304035Y-135365104D01*
X65352416Y-135389294D01*
X65376607Y-135413484D01*
X65400797Y-135461865D01*
X65424988Y-135558627D01*
X65424988Y-135679580D01*
X65400797Y-135776342D01*
X65376607Y-135824723D01*
X65352416Y-135848913D01*
X65304035Y-135873104D01*
X65255654Y-135873104D01*
X65207273Y-135848913D01*
X65183083Y-135824723D01*
X65158892Y-135776342D01*
X65134702Y-135679580D01*
X65134702Y-135558627D01*
X65158892Y-135461865D01*
X65183083Y-135413484D01*
X65207273Y-135389294D01*
X65255654Y-135365104D01*
X65642702Y-135873104D02*
X65642702Y-135365104D01*
X65691083Y-135679580D02*
X65836226Y-135873104D01*
X65836226Y-135534437D02*
X65642702Y-135727961D01*
X107954136Y-125432958D02*
X107978326Y-125408768D01*
X108026707Y-125384578D01*
X108147660Y-125384578D01*
X108196041Y-125408768D01*
X108220231Y-125432958D01*
X108244422Y-125481339D01*
X108244422Y-125529720D01*
X108220231Y-125602292D01*
X107929945Y-125892578D01*
X108244422Y-125892578D01*
X108437946Y-125432958D02*
X108462136Y-125408768D01*
X108510517Y-125384578D01*
X108631470Y-125384578D01*
X108679851Y-125408768D01*
X108704041Y-125432958D01*
X108728232Y-125481339D01*
X108728232Y-125529720D01*
X108704041Y-125602292D01*
X108413755Y-125892578D01*
X108728232Y-125892578D01*
X70447619Y-129109810D02*
X70157333Y-129109810D01*
X70302476Y-129109810D02*
X70302476Y-128601810D01*
X70254095Y-128674381D01*
X70205714Y-128722762D01*
X70157333Y-128746952D01*
X70762095Y-128601810D02*
X70810476Y-128601810D01*
X70858857Y-128626000D01*
X70883048Y-128650190D01*
X70907238Y-128698571D01*
X70931429Y-128795333D01*
X70931429Y-128916286D01*
X70907238Y-129013048D01*
X70883048Y-129061429D01*
X70858857Y-129085619D01*
X70810476Y-129109810D01*
X70762095Y-129109810D01*
X70713714Y-129085619D01*
X70689524Y-129061429D01*
X70665333Y-129013048D01*
X70641143Y-128916286D01*
X70641143Y-128795333D01*
X70665333Y-128698571D01*
X70689524Y-128650190D01*
X70713714Y-128626000D01*
X70762095Y-128601810D01*
X71149143Y-129109810D02*
X71149143Y-128601810D01*
X71197524Y-128916286D02*
X71342667Y-129109810D01*
X71342667Y-128771143D02*
X71149143Y-128964667D01*
X85333749Y-123929056D02*
X85309559Y-123904866D01*
X85285369Y-123856485D01*
X85285369Y-123735532D01*
X85309559Y-123687151D01*
X85333749Y-123662961D01*
X85382130Y-123638770D01*
X85430511Y-123638770D01*
X85503083Y-123662961D01*
X85793369Y-123953247D01*
X85793369Y-123638770D01*
X85793369Y-123421056D02*
X85285369Y-123421056D01*
X85599845Y-123372675D02*
X85793369Y-123227532D01*
X85454702Y-123227532D02*
X85648226Y-123421056D01*
X85793369Y-120070675D02*
X85793369Y-120360961D01*
X85793369Y-120215818D02*
X85285369Y-120215818D01*
X85357940Y-120264199D01*
X85406321Y-120312580D01*
X85430511Y-120360961D01*
X85285369Y-119756199D02*
X85285369Y-119707818D01*
X85309559Y-119659437D01*
X85333749Y-119635246D01*
X85382130Y-119611056D01*
X85478892Y-119586865D01*
X85599845Y-119586865D01*
X85696607Y-119611056D01*
X85744988Y-119635246D01*
X85769178Y-119659437D01*
X85793369Y-119707818D01*
X85793369Y-119756199D01*
X85769178Y-119804580D01*
X85744988Y-119828770D01*
X85696607Y-119852961D01*
X85599845Y-119877151D01*
X85478892Y-119877151D01*
X85382130Y-119852961D01*
X85333749Y-119828770D01*
X85309559Y-119804580D01*
X85285369Y-119756199D01*
X85793369Y-119369151D02*
X85285369Y-119369151D01*
X85599845Y-119320770D02*
X85793369Y-119175627D01*
X85454702Y-119175627D02*
X85648226Y-119369151D01*
X85793369Y-121975675D02*
X85793369Y-122265961D01*
X85793369Y-122120818D02*
X85285369Y-122120818D01*
X85357940Y-122169199D01*
X85406321Y-122217580D01*
X85430511Y-122265961D01*
X85285369Y-121661199D02*
X85285369Y-121612818D01*
X85309559Y-121564437D01*
X85333749Y-121540246D01*
X85382130Y-121516056D01*
X85478892Y-121491865D01*
X85599845Y-121491865D01*
X85696607Y-121516056D01*
X85744988Y-121540246D01*
X85769178Y-121564437D01*
X85793369Y-121612818D01*
X85793369Y-121661199D01*
X85769178Y-121709580D01*
X85744988Y-121733770D01*
X85696607Y-121757961D01*
X85599845Y-121782151D01*
X85478892Y-121782151D01*
X85382130Y-121757961D01*
X85333749Y-121733770D01*
X85309559Y-121709580D01*
X85285369Y-121661199D01*
X85793369Y-121274151D02*
X85285369Y-121274151D01*
X85599845Y-121225770D02*
X85793369Y-121080627D01*
X85454702Y-121080627D02*
X85648226Y-121274151D01*
X85503083Y-132063104D02*
X85212797Y-132063104D01*
X85357940Y-132063104D02*
X85357940Y-131555104D01*
X85309559Y-131627675D01*
X85261178Y-131676056D01*
X85212797Y-131700246D01*
X85720797Y-132063104D02*
X85720797Y-131555104D01*
X85769178Y-131869580D02*
X85914321Y-132063104D01*
X85914321Y-131724437D02*
X85720797Y-131917961D01*
X68581845Y-139979437D02*
X68581845Y-140318104D01*
X68460892Y-139785913D02*
X68339940Y-140148770D01*
X68654416Y-140148770D01*
X68847940Y-140269723D02*
X68872131Y-140293913D01*
X68847940Y-140318104D01*
X68823750Y-140293913D01*
X68847940Y-140269723D01*
X68847940Y-140318104D01*
X69041464Y-139810104D02*
X69380131Y-139810104D01*
X69162417Y-140318104D01*
X69573655Y-140318104D02*
X69573655Y-139810104D01*
X69622036Y-140124580D02*
X69767179Y-140318104D01*
X69767179Y-139979437D02*
X69573655Y-140172961D01*
X68997619Y-126259810D02*
X68707333Y-126259810D01*
X68852476Y-126259810D02*
X68852476Y-125751810D01*
X68804095Y-125824381D01*
X68755714Y-125872762D01*
X68707333Y-125896952D01*
X69312095Y-125751810D02*
X69360476Y-125751810D01*
X69408857Y-125776000D01*
X69433048Y-125800190D01*
X69457238Y-125848571D01*
X69481429Y-125945333D01*
X69481429Y-126066286D01*
X69457238Y-126163048D01*
X69433048Y-126211429D01*
X69408857Y-126235619D01*
X69360476Y-126259810D01*
X69312095Y-126259810D01*
X69263714Y-126235619D01*
X69239524Y-126211429D01*
X69215333Y-126163048D01*
X69191143Y-126066286D01*
X69191143Y-125945333D01*
X69215333Y-125848571D01*
X69239524Y-125800190D01*
X69263714Y-125776000D01*
X69312095Y-125751810D01*
X69699143Y-126259810D02*
X69699143Y-125751810D01*
X69747524Y-126066286D02*
X69892667Y-126259810D01*
X69892667Y-125921143D02*
X69699143Y-126114667D01*
X87117797Y-131603484D02*
X87141987Y-131579294D01*
X87190368Y-131555104D01*
X87311321Y-131555104D01*
X87359702Y-131579294D01*
X87383892Y-131603484D01*
X87408083Y-131651865D01*
X87408083Y-131700246D01*
X87383892Y-131772818D01*
X87093606Y-132063104D01*
X87408083Y-132063104D01*
X87625797Y-132063104D02*
X87625797Y-131555104D01*
X87674178Y-131869580D02*
X87819321Y-132063104D01*
X87819321Y-131724437D02*
X87625797Y-131917961D01*
X70486845Y-139979437D02*
X70486845Y-140318104D01*
X70365892Y-139785913D02*
X70244940Y-140148770D01*
X70559416Y-140148770D01*
X70752940Y-140269723D02*
X70777131Y-140293913D01*
X70752940Y-140318104D01*
X70728750Y-140293913D01*
X70752940Y-140269723D01*
X70752940Y-140318104D01*
X70946464Y-139810104D02*
X71285131Y-139810104D01*
X71067417Y-140318104D01*
X71478655Y-140318104D02*
X71478655Y-139810104D01*
X71527036Y-140124580D02*
X71672179Y-140318104D01*
X71672179Y-139979437D02*
X71478655Y-140172961D01*
D19*
X86082714Y-128816428D02*
X86844714Y-128308428D01*
X86082714Y-128308428D02*
X86844714Y-128816428D01*
X86772143Y-127582714D02*
X86808429Y-127619000D01*
X86844714Y-127727857D01*
X86844714Y-127800428D01*
X86808429Y-127909285D01*
X86735857Y-127981857D01*
X86663286Y-128018142D01*
X86518143Y-128054428D01*
X86409286Y-128054428D01*
X86264143Y-128018142D01*
X86191571Y-127981857D01*
X86119000Y-127909285D01*
X86082714Y-127800428D01*
X86082714Y-127727857D01*
X86119000Y-127619000D01*
X86155286Y-127582714D01*
X86844714Y-127219857D02*
X86844714Y-127074714D01*
X86808429Y-127002142D01*
X86772143Y-126965857D01*
X86663286Y-126893285D01*
X86518143Y-126857000D01*
X86227857Y-126857000D01*
X86155286Y-126893285D01*
X86119000Y-126929571D01*
X86082714Y-127002142D01*
X86082714Y-127147285D01*
X86119000Y-127219857D01*
X86155286Y-127256142D01*
X86227857Y-127292428D01*
X86409286Y-127292428D01*
X86481857Y-127256142D01*
X86518143Y-127219857D01*
X86554429Y-127147285D01*
X86554429Y-127002142D01*
X86518143Y-126929571D01*
X86481857Y-126893285D01*
X86409286Y-126857000D01*
X86844714Y-126131286D02*
X86844714Y-126566714D01*
X86844714Y-126349000D02*
X86082714Y-126349000D01*
X86191571Y-126421571D01*
X86264143Y-126494143D01*
X86300429Y-126566714D01*
X86336714Y-125478143D02*
X86844714Y-125478143D01*
X86046429Y-125659572D02*
X86590714Y-125841000D01*
X86590714Y-125369286D01*
X86082714Y-124933858D02*
X86082714Y-124861286D01*
X86119000Y-124788715D01*
X86155286Y-124752429D01*
X86227857Y-124716143D01*
X86373000Y-124679858D01*
X86554429Y-124679858D01*
X86699571Y-124716143D01*
X86772143Y-124752429D01*
X86808429Y-124788715D01*
X86844714Y-124861286D01*
X86844714Y-124933858D01*
X86808429Y-125006429D01*
X86772143Y-125042715D01*
X86699571Y-125079000D01*
X86554429Y-125115286D01*
X86373000Y-125115286D01*
X86227857Y-125079000D01*
X86155286Y-125042715D01*
X86119000Y-125006429D01*
X86082714Y-124933858D01*
D18*
X68621810Y-123746858D02*
X68621810Y-123698477D01*
X68646000Y-123650096D01*
X68670190Y-123625905D01*
X68718571Y-123601715D01*
X68815333Y-123577524D01*
X68936286Y-123577524D01*
X69033048Y-123601715D01*
X69081429Y-123625905D01*
X69105619Y-123650096D01*
X69129810Y-123698477D01*
X69129810Y-123746858D01*
X69105619Y-123795239D01*
X69081429Y-123819429D01*
X69033048Y-123843620D01*
X68936286Y-123867810D01*
X68815333Y-123867810D01*
X68718571Y-123843620D01*
X68670190Y-123819429D01*
X68646000Y-123795239D01*
X68621810Y-123746858D01*
X69081429Y-123359810D02*
X69105619Y-123335619D01*
X69129810Y-123359810D01*
X69105619Y-123384000D01*
X69081429Y-123359810D01*
X69129810Y-123359810D01*
X69129810Y-122851809D02*
X69129810Y-123142095D01*
X69129810Y-122996952D02*
X68621810Y-122996952D01*
X68694381Y-123045333D01*
X68742762Y-123093714D01*
X68766952Y-123142095D01*
X68791143Y-122416380D02*
X69129810Y-122416380D01*
X68791143Y-122634095D02*
X69057238Y-122634095D01*
X69105619Y-122609904D01*
X69129810Y-122561523D01*
X69129810Y-122488952D01*
X69105619Y-122440571D01*
X69081429Y-122416380D01*
X78082654Y-131763992D02*
X78034273Y-131739801D01*
X78010082Y-131715611D01*
X77985892Y-131667230D01*
X77985892Y-131643039D01*
X78010082Y-131594658D01*
X78034273Y-131570468D01*
X78082654Y-131546278D01*
X78179416Y-131546278D01*
X78227797Y-131570468D01*
X78251987Y-131594658D01*
X78276178Y-131643039D01*
X78276178Y-131667230D01*
X78251987Y-131715611D01*
X78227797Y-131739801D01*
X78179416Y-131763992D01*
X78082654Y-131763992D01*
X78034273Y-131788182D01*
X78010082Y-131812373D01*
X77985892Y-131860754D01*
X77985892Y-131957516D01*
X78010082Y-132005897D01*
X78034273Y-132030087D01*
X78082654Y-132054278D01*
X78179416Y-132054278D01*
X78227797Y-132030087D01*
X78251987Y-132005897D01*
X78276178Y-131957516D01*
X78276178Y-131860754D01*
X78251987Y-131812373D01*
X78227797Y-131788182D01*
X78179416Y-131763992D01*
X78493892Y-131715611D02*
X78493892Y-132223611D01*
X78493892Y-131739801D02*
X78542273Y-131715611D01*
X78639035Y-131715611D01*
X78687416Y-131739801D01*
X78711607Y-131763992D01*
X78735797Y-131812373D01*
X78735797Y-131957516D01*
X78711607Y-132005897D01*
X78687416Y-132030087D01*
X78639035Y-132054278D01*
X78542273Y-132054278D01*
X78493892Y-132030087D01*
X79122845Y-131788182D02*
X78953511Y-131788182D01*
X78953511Y-132054278D02*
X78953511Y-131546278D01*
X79195416Y-131546278D01*
X83162654Y-131772818D02*
X83114273Y-131748627D01*
X83090082Y-131724437D01*
X83065892Y-131676056D01*
X83065892Y-131651865D01*
X83090082Y-131603484D01*
X83114273Y-131579294D01*
X83162654Y-131555104D01*
X83259416Y-131555104D01*
X83307797Y-131579294D01*
X83331987Y-131603484D01*
X83356178Y-131651865D01*
X83356178Y-131676056D01*
X83331987Y-131724437D01*
X83307797Y-131748627D01*
X83259416Y-131772818D01*
X83162654Y-131772818D01*
X83114273Y-131797008D01*
X83090082Y-131821199D01*
X83065892Y-131869580D01*
X83065892Y-131966342D01*
X83090082Y-132014723D01*
X83114273Y-132038913D01*
X83162654Y-132063104D01*
X83259416Y-132063104D01*
X83307797Y-132038913D01*
X83331987Y-132014723D01*
X83356178Y-131966342D01*
X83356178Y-131869580D01*
X83331987Y-131821199D01*
X83307797Y-131797008D01*
X83259416Y-131772818D01*
X83573892Y-131724437D02*
X83573892Y-132232437D01*
X83573892Y-131748627D02*
X83622273Y-131724437D01*
X83719035Y-131724437D01*
X83767416Y-131748627D01*
X83791607Y-131772818D01*
X83815797Y-131821199D01*
X83815797Y-131966342D01*
X83791607Y-132014723D01*
X83767416Y-132038913D01*
X83719035Y-132063104D01*
X83622273Y-132063104D01*
X83573892Y-132038913D01*
X84202845Y-131797008D02*
X84033511Y-131797008D01*
X84033511Y-132063104D02*
X84033511Y-131555104D01*
X84275416Y-131555104D01*
X88421810Y-116592858D02*
X88421810Y-116834763D01*
X88663714Y-116858953D01*
X88639524Y-116834763D01*
X88615333Y-116786382D01*
X88615333Y-116665429D01*
X88639524Y-116617048D01*
X88663714Y-116592858D01*
X88712095Y-116568667D01*
X88833048Y-116568667D01*
X88881429Y-116592858D01*
X88905619Y-116617048D01*
X88929810Y-116665429D01*
X88929810Y-116786382D01*
X88905619Y-116834763D01*
X88881429Y-116858953D01*
X88929810Y-116084857D02*
X88929810Y-116375143D01*
X88929810Y-116230000D02*
X88421810Y-116230000D01*
X88494381Y-116278381D01*
X88542762Y-116326762D01*
X88566952Y-116375143D01*
X88421810Y-115770381D02*
X88421810Y-115722000D01*
X88446000Y-115673619D01*
X88470190Y-115649428D01*
X88518571Y-115625238D01*
X88615333Y-115601047D01*
X88736286Y-115601047D01*
X88833048Y-115625238D01*
X88881429Y-115649428D01*
X88905619Y-115673619D01*
X88929810Y-115722000D01*
X88929810Y-115770381D01*
X88905619Y-115818762D01*
X88881429Y-115842952D01*
X88833048Y-115867143D01*
X88736286Y-115891333D01*
X88615333Y-115891333D01*
X88518571Y-115867143D01*
X88470190Y-115842952D01*
X88446000Y-115818762D01*
X88421810Y-115770381D01*
X59839524Y-90859810D02*
X59549238Y-90859810D01*
X59694381Y-90859810D02*
X59694381Y-90351810D01*
X59646000Y-90424381D01*
X59597619Y-90472762D01*
X59549238Y-90496952D01*
X60057238Y-90859810D02*
X60057238Y-90351810D01*
X60105619Y-90666286D02*
X60250762Y-90859810D01*
X60250762Y-90521143D02*
X60057238Y-90714667D01*
X79439524Y-90959810D02*
X79149238Y-90959810D01*
X79294381Y-90959810D02*
X79294381Y-90451810D01*
X79246000Y-90524381D01*
X79197619Y-90572762D01*
X79149238Y-90596952D01*
X79657238Y-90959810D02*
X79657238Y-90451810D01*
X79705619Y-90766286D02*
X79850762Y-90959810D01*
X79850762Y-90621143D02*
X79657238Y-90814667D01*
X98939524Y-91059810D02*
X98649238Y-91059810D01*
X98794381Y-91059810D02*
X98794381Y-90551810D01*
X98746000Y-90624381D01*
X98697619Y-90672762D01*
X98649238Y-90696952D01*
X99157238Y-91059810D02*
X99157238Y-90551810D01*
X99205619Y-90866286D02*
X99350762Y-91059810D01*
X99350762Y-90721143D02*
X99157238Y-90914667D01*
X118639524Y-91059810D02*
X118349238Y-91059810D01*
X118494381Y-91059810D02*
X118494381Y-90551810D01*
X118446000Y-90624381D01*
X118397619Y-90672762D01*
X118349238Y-90696952D01*
X118857238Y-91059810D02*
X118857238Y-90551810D01*
X118905619Y-90866286D02*
X119050762Y-91059810D01*
X119050762Y-90721143D02*
X118857238Y-90914667D01*
X138239524Y-91059810D02*
X137949238Y-91059810D01*
X138094381Y-91059810D02*
X138094381Y-90551810D01*
X138046000Y-90624381D01*
X137997619Y-90672762D01*
X137949238Y-90696952D01*
X138457238Y-91059810D02*
X138457238Y-90551810D01*
X138505619Y-90866286D02*
X138650762Y-91059810D01*
X138650762Y-90721143D02*
X138457238Y-90914667D01*
X84037142Y-116351810D02*
X83795237Y-116351810D01*
X83771047Y-116593714D01*
X83795237Y-116569524D01*
X83843618Y-116545333D01*
X83964571Y-116545333D01*
X84012952Y-116569524D01*
X84037142Y-116593714D01*
X84061333Y-116642095D01*
X84061333Y-116763048D01*
X84037142Y-116811429D01*
X84012952Y-116835619D01*
X83964571Y-116859810D01*
X83843618Y-116859810D01*
X83795237Y-116835619D01*
X83771047Y-116811429D01*
X84545143Y-116859810D02*
X84254857Y-116859810D01*
X84400000Y-116859810D02*
X84400000Y-116351810D01*
X84351619Y-116424381D01*
X84303238Y-116472762D01*
X84254857Y-116496952D01*
X84859619Y-116351810D02*
X84908000Y-116351810D01*
X84956381Y-116376000D01*
X84980572Y-116400190D01*
X85004762Y-116448571D01*
X85028953Y-116545333D01*
X85028953Y-116666286D01*
X85004762Y-116763048D01*
X84980572Y-116811429D01*
X84956381Y-116835619D01*
X84908000Y-116859810D01*
X84859619Y-116859810D01*
X84811238Y-116835619D01*
X84787048Y-116811429D01*
X84762857Y-116763048D01*
X84738667Y-116666286D01*
X84738667Y-116545333D01*
X84762857Y-116448571D01*
X84787048Y-116400190D01*
X84811238Y-116376000D01*
X84859619Y-116351810D01*
X85737142Y-116351810D02*
X85495237Y-116351810D01*
X85471047Y-116593714D01*
X85495237Y-116569524D01*
X85543618Y-116545333D01*
X85664571Y-116545333D01*
X85712952Y-116569524D01*
X85737142Y-116593714D01*
X85761333Y-116642095D01*
X85761333Y-116763048D01*
X85737142Y-116811429D01*
X85712952Y-116835619D01*
X85664571Y-116859810D01*
X85543618Y-116859810D01*
X85495237Y-116835619D01*
X85471047Y-116811429D01*
X86245143Y-116859810D02*
X85954857Y-116859810D01*
X86100000Y-116859810D02*
X86100000Y-116351810D01*
X86051619Y-116424381D01*
X86003238Y-116472762D01*
X85954857Y-116496952D01*
X86559619Y-116351810D02*
X86608000Y-116351810D01*
X86656381Y-116376000D01*
X86680572Y-116400190D01*
X86704762Y-116448571D01*
X86728953Y-116545333D01*
X86728953Y-116666286D01*
X86704762Y-116763048D01*
X86680572Y-116811429D01*
X86656381Y-116835619D01*
X86608000Y-116859810D01*
X86559619Y-116859810D01*
X86511238Y-116835619D01*
X86487048Y-116811429D01*
X86462857Y-116763048D01*
X86438667Y-116666286D01*
X86438667Y-116545333D01*
X86462857Y-116448571D01*
X86487048Y-116400190D01*
X86511238Y-116376000D01*
X86559619Y-116351810D01*
D19*
X73982714Y-141238856D02*
X73982714Y-141601713D01*
X74345571Y-141637999D01*
X74309286Y-141601713D01*
X74273000Y-141529142D01*
X74273000Y-141347713D01*
X74309286Y-141275142D01*
X74345571Y-141238856D01*
X74418143Y-141202571D01*
X74599571Y-141202571D01*
X74672143Y-141238856D01*
X74708429Y-141275142D01*
X74744714Y-141347713D01*
X74744714Y-141529142D01*
X74708429Y-141601713D01*
X74672143Y-141637999D01*
X74236714Y-140948571D02*
X74744714Y-140767142D01*
X74236714Y-140585714D01*
X79982714Y-141937142D02*
X79982714Y-141465428D01*
X80273000Y-141719428D01*
X80273000Y-141610570D01*
X80309286Y-141537999D01*
X80345571Y-141501713D01*
X80418143Y-141465428D01*
X80599571Y-141465428D01*
X80672143Y-141501713D01*
X80708429Y-141537999D01*
X80744714Y-141610570D01*
X80744714Y-141828285D01*
X80708429Y-141900856D01*
X80672143Y-141937142D01*
X80236714Y-141211428D02*
X80744714Y-141029999D01*
X80236714Y-140848571D01*
X79982714Y-140630857D02*
X79982714Y-140159143D01*
X80273000Y-140413143D01*
X80273000Y-140304285D01*
X80309286Y-140231714D01*
X80345571Y-140195428D01*
X80418143Y-140159143D01*
X80599571Y-140159143D01*
X80672143Y-140195428D01*
X80708429Y-140231714D01*
X80744714Y-140304285D01*
X80744714Y-140522000D01*
X80708429Y-140594571D01*
X80672143Y-140630857D01*
X82945571Y-142082713D02*
X82981857Y-141973856D01*
X83018143Y-141937571D01*
X83090714Y-141901285D01*
X83199571Y-141901285D01*
X83272143Y-141937571D01*
X83308429Y-141973856D01*
X83344714Y-142046428D01*
X83344714Y-142336713D01*
X82582714Y-142336713D01*
X82582714Y-142082713D01*
X82619000Y-142010142D01*
X82655286Y-141973856D01*
X82727857Y-141937571D01*
X82800429Y-141937571D01*
X82873000Y-141973856D01*
X82909286Y-142010142D01*
X82945571Y-142082713D01*
X82945571Y-142336713D01*
X83127000Y-141610999D02*
X83127000Y-141248142D01*
X83344714Y-141683571D02*
X82582714Y-141429571D01*
X83344714Y-141175571D01*
X82582714Y-141030428D02*
X82582714Y-140594999D01*
X83344714Y-140812713D02*
X82582714Y-140812713D01*
X82582714Y-140449857D02*
X82582714Y-140014428D01*
X83344714Y-140232142D02*
X82582714Y-140232142D01*
X71919000Y-141810572D02*
X71882714Y-141883143D01*
X71882714Y-141992000D01*
X71919000Y-142100857D01*
X71991571Y-142173429D01*
X72064143Y-142209714D01*
X72209286Y-142246000D01*
X72318143Y-142246000D01*
X72463286Y-142209714D01*
X72535857Y-142173429D01*
X72608429Y-142100857D01*
X72644714Y-141992000D01*
X72644714Y-141919429D01*
X72608429Y-141810572D01*
X72572143Y-141774286D01*
X72318143Y-141774286D01*
X72318143Y-141919429D01*
X72644714Y-141447714D02*
X71882714Y-141447714D01*
X72644714Y-141012286D01*
X71882714Y-141012286D01*
X72644714Y-140649428D02*
X71882714Y-140649428D01*
X71882714Y-140468000D01*
X71919000Y-140359143D01*
X71991571Y-140286571D01*
X72064143Y-140250286D01*
X72209286Y-140214000D01*
X72318143Y-140214000D01*
X72463286Y-140250286D01*
X72535857Y-140286571D01*
X72608429Y-140359143D01*
X72644714Y-140468000D01*
X72644714Y-140649428D01*
X62691572Y-119075571D02*
X62800429Y-119111857D01*
X62836714Y-119148143D01*
X62873000Y-119220714D01*
X62873000Y-119329571D01*
X62836714Y-119402143D01*
X62800429Y-119438429D01*
X62727857Y-119474714D01*
X62437572Y-119474714D01*
X62437572Y-118712714D01*
X62691572Y-118712714D01*
X62764143Y-118749000D01*
X62800429Y-118785286D01*
X62836714Y-118857857D01*
X62836714Y-118930429D01*
X62800429Y-119003000D01*
X62764143Y-119039286D01*
X62691572Y-119075571D01*
X62437572Y-119075571D01*
X63344714Y-118712714D02*
X63417286Y-118712714D01*
X63489857Y-118749000D01*
X63526143Y-118785286D01*
X63562429Y-118857857D01*
X63598714Y-119003000D01*
X63598714Y-119184429D01*
X63562429Y-119329571D01*
X63526143Y-119402143D01*
X63489857Y-119438429D01*
X63417286Y-119474714D01*
X63344714Y-119474714D01*
X63272143Y-119438429D01*
X63235857Y-119402143D01*
X63199572Y-119329571D01*
X63163286Y-119184429D01*
X63163286Y-119003000D01*
X63199572Y-118857857D01*
X63235857Y-118785286D01*
X63272143Y-118749000D01*
X63344714Y-118712714D01*
X68491572Y-142275571D02*
X68600429Y-142311857D01*
X68636714Y-142348143D01*
X68673000Y-142420714D01*
X68673000Y-142529571D01*
X68636714Y-142602143D01*
X68600429Y-142638429D01*
X68527857Y-142674714D01*
X68237572Y-142674714D01*
X68237572Y-141912714D01*
X68491572Y-141912714D01*
X68564143Y-141949000D01*
X68600429Y-141985286D01*
X68636714Y-142057857D01*
X68636714Y-142130429D01*
X68600429Y-142203000D01*
X68564143Y-142239286D01*
X68491572Y-142275571D01*
X68237572Y-142275571D01*
X69398714Y-142674714D02*
X68963286Y-142674714D01*
X69181000Y-142674714D02*
X69181000Y-141912714D01*
X69108429Y-142021571D01*
X69035857Y-142094143D01*
X68963286Y-142130429D01*
D18*
X65939524Y-60459810D02*
X65649238Y-60459810D01*
X65794381Y-60459810D02*
X65794381Y-59951810D01*
X65746000Y-60024381D01*
X65697619Y-60072762D01*
X65649238Y-60096952D01*
X66157238Y-60459810D02*
X66157238Y-59951810D01*
X66205619Y-60266286D02*
X66350762Y-60459810D01*
X66350762Y-60121143D02*
X66157238Y-60314667D01*
M02*
