999
dxflib 3.3.4.0
  0
SECTION
  2
HEADER
  9
$ACADVER
  1
AC1015
  9
$HANDSEED
  5
FFFF
  9
$DIMADEC
 70
0
  9
$DIMASZ
 40
2.5
  9
$DIMAUNIT
 70
0
  9
$DIMAZIN
 70
2
  9
$DIMDEC
 70
4
  9
$DIMEXE
 40
1.25
  9
$DIMEXO
 40
0.625
  9
$DIMGAP
 40
0.625
  9
$DIMLUNIT
 70
2
  9
$DIMTSZ
 40
0.0
  9
$DIMTXT
 40
2.5
  9
$DIMZIN
 70
8
  9
$DWGCODEPAGE
  3
ANSI_1252
  9
$INSUNITS
 70
4
  9
$LTSCALE
 40
1.0
  0
ENDSEC
  0
SECTION
  2
TABLES
  0
TABLE
  2
VPORT
  5
8
100
AcDbSymbolTable
 70
1
  0
VPORT
  5
30
100
AcDbSymbolTableRecord
100
AcDbViewportTableRecord
  2
*Active
 70
0
 10
0.0
 20
0.0
 11
1.0
 21
1.0
 12
286.3055555555554861
 22
148.5
 13
0.0
 23
0.0
 14
10.0
 24
10.0
 15
10.0
 25
10.0
 16
0.0
 26
0.0
 36
1.0
 17
0.0
 27
0.0
 37
0.0
 40
297.0
 41
1.92798353909465
 42
50.0
 43
0.0
 44
0.0
 50
0.0
 51
0.0
 71
0
 72
100
 73
1
 74
3
 75
1
 76
1
 77
0
 78
0
281
0
 65
1
110
0.0
120
0.0
130
0.0
111
1.0
121
0.0
131
0.0
112
0.0
122
1.0
132
0.0
 79
0
146
0.0
  0
ENDTAB
  0
TABLE
  2
LTYPE
  5
5
100
AcDbSymbolTable
 70
21
  0
LTYPE
  5
16
100
AcDbSymbolTableRecord
100
AcDbLinetypeTableRecord
  2
CONTINUOUS
 70
0
  3
Solid line
 72
65
 73
0
 40
0.0
  0
LTYPE
  5
31
100
AcDbSymbolTableRecord
100
AcDbLinetypeTableRecord
  2
CENTER2
 70
0
  3
Center (.5x) ___ _ ___ _ ___ _ ___ _ ___ _ ___
 72
65
 73
4
 40
28.5749999999999993
 49
19.0500000000000007
 74
0
 49
-3.1749999999999998
 74
0
 49
3.1749999999999998
 74
0
 49
-3.1749999999999998
 74
0
  0
LTYPE
  5
32
100
AcDbSymbolTableRecord
100
AcDbLinetypeTableRecord
  2
DIVIDEX2
 70
0
  3
Divide (2x) ________  .  .  ________  .  .  _
 72
65
 73
6
 40
63.5
 49
25.3999999999999986
 74
0
 49
-12.6999999999999993
 74
0
 49
0.0
 74
0
 49
-12.6999999999999993
 74
0
 49
0.0
 74
0
 49
-12.6999999999999993
 74
0
  0
LTYPE
  5
33
100
AcDbSymbolTableRecord
100
AcDbLinetypeTableRecord
  2
DOT2
 70
0
  3
Dot (.5x) .....................................
 72
65
 73
2
 40
3.1749999999999998
 49
0.0
 74
0
 49
-3.1749999999999998
 74
0
  0
LTYPE
  5
34
100
AcDbSymbolTableRecord
100
AcDbLinetypeTableRecord
  2
DASHDOT2
 70
0
  3
Dash dot (.5x) _._._._._._._._._._._._._._._.
 72
65
 73
4
 40
12.6999999999999993
 49
6.3499999999999996
 74
0
 49
-3.1749999999999998
 74
0
 49
0.0
 74
0
 49
-3.1749999999999998
 74
0
  0
LTYPE
  5
35
100
AcDbSymbolTableRecord
100
AcDbLinetypeTableRecord
  2
DIVIDE
 70
0
  3
Divide ____ . . ____ . . ____ . . ____ . . ____
 72
65
 73
6
 40
31.75
 49
12.6999999999999993
 74
0
 49
-6.3499999999999996
 74
0
 49
0.0
 74
0
 49
-6.3499999999999996
 74
0
 49
0.0
 74
0
 49
-6.3499999999999996
 74
0
  0
LTYPE
  5
36
100
AcDbSymbolTableRecord
100
AcDbLinetypeTableRecord
  2
DASHDOT
 70
0
  3
Dash dot __ . __ . __ . __ . __ . __ . __ . __
 72
65
 73
4
 40
25.3999999999999986
 49
12.6999999999999993
 74
0
 49
-6.3499999999999996
 74
0
 49
0.0
 74
0
 49
-6.3499999999999996
 74
0
  0
LTYPE
  5
37
100
AcDbSymbolTableRecord
100
AcDbLinetypeTableRecord
  2
BORDER
 70
0
  3
Border __ __ . __ __ . __ __ . __ __ . __ __ .
 72
65
 73
6
 40
44.4500000000000028
 49
12.6999999999999993
 74
0
 49
-6.3499999999999996
 74
0
 49
12.6999999999999993
 74
0
 49
-6.3499999999999996
 74
0
 49
0.0
 74
0
 49
-6.3499999999999996
 74
0
  0
LTYPE
  5
38
100
AcDbSymbolTableRecord
100
AcDbLinetypeTableRecord
  2
DASHDOTX2
 70
0
  3
Dash dot (2x) ____  .  ____  .  ____  .  ___
 72
65
 73
4
 40
50.7999999999999972
 49
25.3999999999999986
 74
0
 49
-12.6999999999999993
 74
0
 49
0.0
 74
0
 49
-12.6999999999999993
 74
0
  0
LTYPE
  5
39
100
AcDbSymbolTableRecord
100
AcDbLinetypeTableRecord
  2
CENTERX2
 70
0
  3
Center (2x) ________  __  ________  __  _____
 72
65
 73
4
 40
101.5999999999999943
 49
63.5
 74
0
 49
-12.6999999999999993
 74
0
 49
12.6999999999999993
 74
0
 49
-12.6999999999999993
 74
0
  0
LTYPE
  5
3A
100
AcDbSymbolTableRecord
100
AcDbLinetypeTableRecord
  2
BORDER2
 70
0
  3
Border (.5x) __.__.__.__.__.__.__.__.__.__.__.
 72
65
 73
6
 40
22.2250000000000014
 49
6.3499999999999996
 74
0
 49
-3.1749999999999998
 74
0
 49
6.3499999999999996
 74
0
 49
-3.1749999999999998
 74
0
 49
0.0
 74
0
 49
-3.1749999999999998
 74
0
  0
LTYPE
  5
3B
100
AcDbSymbolTableRecord
100
AcDbLinetypeTableRecord
  2
BORDERX2
 70
0
  3
Border (2x) ____  ____  .  ____  ____  .  ___
 72
65
 73
6
 40
88.9000000000000057
 49
25.3999999999999986
 74
0
 49
-12.6999999999999993
 74
0
 49
25.3999999999999986
 74
0
 49
-12.6999999999999993
 74
0
 49
0.0
 74
0
 49
-12.6999999999999993
 74
0
  0
LTYPE
  5
14
100
AcDbSymbolTableRecord
100
AcDbLinetypeTableRecord
  2
BYBLOCK
 70
0
  3

 72
65
 73
0
 40
0.0
  0
LTYPE
  5
15
100
AcDbSymbolTableRecord
100
AcDbLinetypeTableRecord
  2
BYLAYER
 70
0
  3

 72
65
 73
0
 40
0.0
  0
LTYPE
  5
3C
100
AcDbSymbolTableRecord
100
AcDbLinetypeTableRecord
  2
DASHED2
 70
0
  3
Dashed (.5x) _ _ _ _ _ _ _ _ _ _ _ _ _ _ _ _ _
 72
65
 73
2
 40
9.5250000000000004
 49
6.3499999999999996
 74
0
 49
-3.1749999999999998
 74
0
  0
LTYPE
  5
3D
100
AcDbSymbolTableRecord
100
AcDbLinetypeTableRecord
  2
CENTER
 70
0
  3
Center ____ _ ____ _ ____ _ ____ _ ____ _ ____
 72
65
 73
4
 40
50.7999999999999972
 49
31.75
 74
0
 49
-6.3499999999999996
 74
0
 49
6.3499999999999996
 74
0
 49
-6.3499999999999996
 74
0
  0
LTYPE
  5
3E
100
AcDbSymbolTableRecord
100
AcDbLinetypeTableRecord
  2
DIVIDE2
 70
0
  3
Divide (.5x) __..__..__..__..__..__..__..__.._
 72
65
 73
6
 40
15.875
 49
6.3499999999999996
 74
0
 49
-3.1749999999999998
 74
0
 49
0.0
 74
0
 49
-3.1749999999999998
 74
0
 49
0.0
 74
0
 49
-3.1749999999999998
 74
0
  0
LTYPE
  5
3F
100
AcDbSymbolTableRecord
100
AcDbLinetypeTableRecord
  2
DASHED
 70
0
  3
Dashed __ __ __ __ __ __ __ __ __ __ __ __ __ _
 72
65
 73
2
 40
19.0500000000000007
 49
12.6999999999999993
 74
0
 49
-6.3499999999999996
 74
0
  0
LTYPE
  5
40
100
AcDbSymbolTableRecord
100
AcDbLinetypeTableRecord
  2
DOTX2
 70
0
  3
Dot (2x) .  .  .  .  .  .  .  .  .  .  .  .  .
 72
65
 73
2
 40
12.6999999999999993
 49
0.0
 74
0
 49
-12.6999999999999993
 74
0
  0
LTYPE
  5
41
100
AcDbSymbolTableRecord
100
AcDbLinetypeTableRecord
  2
DASHEDX2
 70
0
  3
Dashed (2x) ____  ____  ____  ____  ____  ___
 72
65
 73
2
 40
38.1000000000000014
 49
25.3999999999999986
 74
0
 49
-12.6999999999999993
 74
0
  0
LTYPE
  5
42
100
AcDbSymbolTableRecord
100
AcDbLinetypeTableRecord
  2
DOT
 70
0
  3
Dot . . . . . . . . . . . . . . . . . . . . . .
 72
65
 73
2
 40
6.3499999999999996
 49
0.0
 74
0
 49
-6.3499999999999996
 74
0
  0
ENDTAB
  0
TABLE
  2
LAYER
  5
2
100
AcDbSymbolTable
 70
1
  0
LAYER
  5
10
100
AcDbSymbolTableRecord
100
AcDbLayerTableRecord
  2
0
 70
0
 62
7
420
0
  6
CONTINUOUS
370
25
390
F
  0
ENDTAB
  0
TABLE
  2
STYLE
  5
3
100
AcDbSymbolTable
 70
1
  0
STYLE
  5
43
100
AcDbSymbolTableRecord
100
AcDbTextStyleTableRecord
  2
Standard
 70
0
 40
0.0
 41
1.0
 50
0.0
 71
0
 42
2.5
  3

  4

1001
ACAD
1000
txt
1071
0
  0
ENDTAB
  0
TABLE
  2
VIEW
  5
6
100
AcDbSymbolTable
 70
0
  0
ENDTAB
  0
TABLE
  2
UCS
  5
7
100
AcDbSymbolTable
 70
0
  0
ENDTAB
  0
TABLE
  2
APPID
  5
9
100
AcDbSymbolTable
 70
1
  0
APPID
  5
12
100
AcDbSymbolTableRecord
100
AcDbRegAppTableRecord
  2
ACAD
 70
0
  0
APPID
  5
44
100
AcDbSymbolTableRecord
100
AcDbRegAppTableRecord
  2
QCAD
 70
0
  0
ENDTAB
  0
TABLE
  2
DIMSTYLE
  5
A
100
AcDbSymbolTable
 70
1
100
AcDbDimStyleTable
 71
0
  0
DIMSTYLE
105
27
100
AcDbSymbolTableRecord
100
AcDbDimStyleTableRecord
  2
Standard
 41
2.5
 42
0.625
 43
3.75
 44
1.25
 70
0
 73
0
 74
0
 77
1
 78
8
140
2.5
141
2.5
143
0.03937007874016
147
0.625
171
3
172
1
271
2
272
2
274
3
278
44
283
0
284
8
340
43
  0
ENDTAB
  0
TABLE
  2
BLOCK_RECORD
  5
1
100
AcDbSymbolTable
 70
1
  0
BLOCK_RECORD
  5
1F
100
AcDbSymbolTableRecord
100
AcDbBlockTableRecord
  2
*Model_Space
340
22
  0
BLOCK_RECORD
  5
1B
100
AcDbSymbolTableRecord
100
AcDbBlockTableRecord
  2
*Paper_Space
340
1E
  0
BLOCK_RECORD
  5
23
100
AcDbSymbolTableRecord
100
AcDbBlockTableRecord
  2
*Paper_Space0
340
26
  0
ENDTAB
  0
ENDSEC
  0
SECTION
  2
BLOCKS
  0
BLOCK
  5
20
100
AcDbEntity
  8
0
100
AcDbBlockBegin
  2
*Model_Space
 70
0
 10
0.0
 20
0.0
 30
0.0
  3
*Model_Space
  1

  0
ENDBLK
  5
21
100
AcDbEntity
  8
0
100
AcDbBlockEnd
  0
BLOCK
  5
1C
100
AcDbEntity
 67
1
  8
0
100
AcDbBlockBegin
  2
*Paper_Space
 70
0
 10
0.0
 20
0.0
 30
0.0
  3
*Paper_Space
  1

  0
ENDBLK
  5
1D
100
AcDbEntity
 67
1
  8
0
100
AcDbBlockEnd
  0
BLOCK
  5
24
100
AcDbEntity
  8
0
100
AcDbBlockBegin
  2
*Paper_Space0
 70
0
 10
0.0
 20
0.0
 30
0.0
  3
*Paper_Space0
  1

  0
ENDBLK
  5
25
100
AcDbEntity
  8
0
100
AcDbBlockEnd
  0
ENDSEC
  0
SECTION
  2
ENTITIES
  0
LINE
  5
45
100
AcDbEntity
100
AcDbLine
  8
0
 62
256
370
-1
  6
BYLAYER
 10
-5.6534928695682014
 20
16.109713253115995
 30
0.0
 11
1.8123860078320821
 21
16.205429648980104
 31
0.0
  0
LINE
  5
46
100
AcDbEntity
100
AcDbLine
  8
0
 62
256
370
-1
  6
BYLAYER
 10
1.6209532161038616
 20
5.6766261039283386
 30
0.0
 11
-4.9834780985194751
 21
5.5809097080642278
 31
0.0
  0
SPLINE
  5
47
  8
0
 62
256
370
-1
  6
BYLAYER
100
AcDbEntity
100
AcDbSpline
 70
8
 71
3
 72
38
 73
34
 74
0
 40
0.0
 40
0.0
 40
0.0
 40
0.0
 40
1.0
 40
2.0
 40
3.0
 40
4.0
 40
5.0
 40
6.0
 40
7.0
 40
8.0
 40
9.0
 40
10.0
 40
11.0
 40
12.0
 40
13.0
 40
14.0
 40
15.0
 40
16.0
 40
17.0
 40
18.0
 40
19.0
 40
20.0
 40
21.0
 40
22.0
 40
23.0
 40
24.0
 40
25.0
 40
26.0
 40
27.0
 40
28.0
 40
29.0
 40
30.0
 40
31.0
 40
31.0
 40
31.0
 40
31.0
 10
297.8457208768721785
 20
23.4835046727807466
 30
0.0
 10
330.1492755980810898
 20
23.7936304037951878
 30
0.0
 10
339.5879757457915957
 20
23.4612818070448199
 30
0.0
 10
356.3383450220102304
 20
40.3445905219636245
 30
0.0
 10
353.7306207785113656
 20
62.3928726900284332
 30
0.0
 10
350.5964474172835139
 20
82.7171819216682991
 30
0.0
 10
354.3453395886276667
 20
93.6448037828204747
 30
0.0
 10
362.5609969002968
 20
100.1056605036476697
 30
0.0
 10
369.1004744781636759
 20
100.800118798913644
 30
0.0
 10
380.4673609194220489
 20
100.9945147238767333
 30
0.0
 10
392.5648498411356968
 20
98.3357259498737335
 30
0.0
 10
408.2037248759975796
 20
94.4715068961376261
 30
0.0
 10
422.2654601041216438
 20
89.3269696175555765
 30
0.0
 10
431.5256272055692648
 20
85.8972780985009763
 30
0.0
 10
438.0420410917731147
 20
85.2113397946900051
 30
0.0
 10
448.2664746564976781
 20
86.4376461862103298
 30
0.0
 10
458.5692811557590858
 20
91.6887540148662055
 30
0.0
 10
476.4545861051852853
 20
102.3597973899632905
 30
0.0
 10
498.7475809790405492
 20
115.7355943142765113
 30
0.0
 10
517.6108843338412271
 20
124.9957614157240471
 30
0.0
 10
536.474187688641905
 20
130.4832678462115041
 30
0.0
 10
554.3085835877261616
 20
132.8840519095498394
 30
0.0
 10
570.9323535338979809
 20
133.0010139853244766
 30
0.0
 10
592.0697242872216748
 20
128.9463611049699239
 30
0.0
 10
613.0741556018451774
 20
119.0423729218088198
 30
0.0
 10
624.972235365508368
 20
109.9360213708486214
 30
0.0
 10
635.3636264880514091
 20
99.4445595987668867
 30
0.0
 10
645.6527010452155082
 20
84.6968860668319081
 30
0.0
 10
654.5698989947576365
 20
67.2054593196531016
 30
0.0
 10
660.7433437290559368
 20
50.3999708762852876
 30
0.0
 10
666.8401502006890951
 20
27.5548330641796291
 30
0.0
 10
667.6134146024618303
 20
10.6316425176508389
 30
0.0
 10
667.9409158050241331
 20
0.0000000000000149
 30
0.0
 10
667.9409158050241331
 20
0.0000000000000149
 30
0.0
  0
LINE
  5
48
100
AcDbEntity
100
AcDbLine
  8
0
 62
256
370
-1
  6
BYLAYER
 10
540.0000000000015916
 20
31.1078286558346768
 30
0.0
 11
540.0000000000015916
 21
0.0000000000000149
 31
0.0
  0
LINE
  5
49
100
AcDbEntity
100
AcDbLine
  8
0
 62
256
370
-1
  6
BYLAYER
 10
0.0
 20
0.0000000000000149
 30
0.0
 11
0.0
 21
19.9409158050222324
 31
0.0
  0
SPLINE
  5
4A
  8
0
 62
256
370
-1
  6
BYLAYER
100
AcDbEntity
100
AcDbSpline
 70
8
 71
3
 72
11
 73
7
 74
0
 40
0.0
 40
0.0
 40
0.0
 40
0.0
 40
1.0
 40
2.0
 40
3.0
 40
4.0
 40
4.0
 40
4.0
 40
4.0
 10
-145.1698670605617281
 20
0.0000000000000149
 30
0.0
 10
-141.8177660333205665
 20
3.7276155003103888
 30
0.0
 10
-139.0943539210605877
 20
11.897851837090327
 30
0.0
 10
-137.7741914395244294
 20
22.4222240675187088
 30
0.0
 10
-137.3310599771905913
 20
30.0662417927772267
 30
0.0
 10
-137.4970637320029425
 20
36.1321849697145936
 30
0.0
 10
-137.4970637320029425
 20
36.1321849697145936
 30
0.0
  0
SPLINE
  5
4B
  8
0
 62
256
370
-1
  6
BYLAYER
100
AcDbEntity
100
AcDbSpline
 70
8
 71
3
 72
11
 73
7
 74
0
 40
0.0
 40
0.0
 40
0.0
 40
0.0
 40
1.0
 40
2.0
 40
3.0
 40
4.0
 40
4.0
 40
4.0
 40
4.0
 10
-27.1435634661237835
 20
27.9946067126982783
 30
0.0
 10
-24.1664006891666041
 20
25.2159214542048993
 30
0.0
 10
-18.9342603051193876
 20
22.1970830494782092
 30
0.0
 10
-14.2535512947795766
 20
20.4193814246627383
 30
0.0
 10
-7.0804936876895344
 20
19.2613371115166139
 30
0.0
 10
-0.322738887098667
 20
19.0951628131413997
 30
0.0
 10
-0.322738887098667
 20
19.0951628131413997
 30
0.0
  0
LINE
  5
4C
100
AcDbEntity
100
AcDbLine
  8
0
 62
256
370
-1
  6
BYLAYER
 10
-137.4970637320029425
 20
36.1321849697145936
 30
0.0
 11
-27.1435634661237835
 21
27.9946067126982783
 31
0.0
  0
LINE
  5
4D
100
AcDbEntity
100
AcDbLine
  8
0
 62
256
370
-1
  6
BYLAYER
 10
-3.9881831610044434
 20
19.9409158050222324
 30
0.0
 11
-3.9881831610044434
 21
0.0000000000000149
 31
0.0
  0
LINE
  5
4E
100
AcDbEntity
100
AcDbLine
  8
0
 62
256
370
-1
  6
BYLAYER
 10
267.4665639085684461
 20
26.004175852973443
 30
0.0
 11
267.4665639085684461
 21
0.2020984526779361
 31
0.0
  0
CIRCLE
  5
4F
100
AcDbEntity
100
AcDbCircle
  8
0
 62
256
370
-1
  6
BYLAYER
 10
408.8480175867585444
 20
0.4632684033072507
 30
0.0
 40
34.2983751846382106
  0
LINE
  5
50
100
AcDbEntity
100
AcDbLine
  8
0
 62
256
370
-1
  6
BYLAYER
 10
371.4596606747346641
 20
24.5669295719927696
 30
0.0
 11
371.3448009996977248
 21
0.2166784641642954
 31
0.0
  0
LINE
  5
51
100
AcDbEntity
100
AcDbLine
  8
0
 62
256
370
-1
  6
BYLAYER
 10
371.4596606747346641
 20
24.5669295719927696
 30
0.0
 11
-0.322738887098667
 21
19.0951628131413997
 31
0.0
  0
LINE
  5
52
100
AcDbEntity
100
AcDbLine
  8
0
 62
256
370
-1
  6
BYLAYER
 10
530.4283604135910082
 20
0.0000000000000149
 30
0.0
 11
530.4283604135910082
 21
31.9054652880355647
 31
0.0
  0
LINE
  5
53
100
AcDbEntity
100
AcDbLine
  8
0
 62
256
370
-1
  6
BYLAYER
 10
530.4283604135910082
 20
31.9054652880355647
 30
0.0
 11
532.821270310193654
 21
63.8109305760711081
 31
0.0
  0
LINE
  5
54
100
AcDbEntity
100
AcDbLine
  8
0
 62
256
370
-1
  6
BYLAYER
 10
532.821270310193654
 20
63.8109305760711081
 30
0.0
 11
555.1550960118185003
 21
63.8109305760711081
 31
0.0
  0
LINE
  5
55
100
AcDbEntity
100
AcDbLine
  8
0
 62
256
370
-1
  6
BYLAYER
 10
555.1550960118185003
 20
63.8109305760711081
 30
0.0
 11
557.5480059084211462
 21
31.9054652880355647
 31
0.0
  0
LINE
  5
56
100
AcDbEntity
100
AcDbLine
  8
0
 62
256
370
-1
  6
BYLAYER
 10
557.5480059084211462
 20
31.9054652880355647
 30
0.0
 11
557.5480059084211462
 21
0.0000000000000149
 31
0.0
  0
LINE
  5
57
100
AcDbEntity
100
AcDbLine
  8
0
 62
256
370
-1
  6
BYLAYER
 10
540.0000000000015916
 20
31.1078286558346768
 30
0.0
 11
545.5834564254078032
 21
31.1078286558346768
 31
0.0
  0
LINE
  5
58
100
AcDbEntity
100
AcDbLine
  8
0
 62
256
370
-1
  6
BYLAYER
 10
545.5834564254078032
 20
31.1078286558346768
 30
0.0
 11
545.5834564254078032
 21
0.0000000000000149
 31
0.0
  0
LINE
  5
59
100
AcDbEntity
100
AcDbLine
  8
0
 62
256
370
-1
  6
BYLAYER
 10
663.8689987981550757
 20
26.8208347142977459
 30
0.0
 11
651.364915134934904
 21
26.8208347142977459
 31
0.0
  0
LINE
  5
5A
100
AcDbEntity
100
AcDbLine
  8
0
 62
256
370
-1
  6
BYLAYER
 10
651.364915134934904
 20
26.8208347142977459
 30
0.0
 11
646.0856720827198387
 21
21.5361890694240081
 31
0.0
  0
LINE
  5
5B
100
AcDbEntity
100
AcDbLine
  8
0
 62
256
370
-1
  6
BYLAYER
 10
646.0856720827198387
 20
21.5361890694240081
 30
0.0
 11
646.0856720827198387
 21
0.0000000000000149
 31
0.0
  0
LINE
  5
5C
100
AcDbEntity
100
AcDbLine
  8
0
 62
256
370
-1
  6
BYLAYER
 10
323.8404726735607824
 20
0.0000000000000149
 30
0.0
 11
323.8404726735607824
 21
20.7385524372231203
 31
0.0
  0
LINE
  5
5D
100
AcDbEntity
100
AcDbLine
  8
0
 62
256
370
-1
  6
BYLAYER
 10
323.8404726735607824
 20
20.7385524372231203
 30
0.0
 11
320.5088973444090925
 21
24.1071336417162314
 31
0.0
  0
CIRCLE
  5
5E
100
AcDbEntity
100
AcDbCircle
  8
0
 62
256
370
-1
  6
BYLAYER
 10
-97.9169618680913629
 20
22.0249252590245739
 30
0.0
 40
2.3929098966026658
  0
CIRCLE
  5
5F
100
AcDbEntity
100
AcDbCircle
  8
0
 62
256
370
-1
  6
BYLAYER
 10
-51.0159278946791446
 20
18.483418612052585
 30
0.0
 40
2.3929098966026658
  0
LINE
  5
60
100
AcDbEntity
100
AcDbLine
  8
0
 62
256
370
-1
  6
BYLAYER
 10
530.4283604135910082
 20
0.0000000000000022
 30
0.0
 11
530.4283604135910082
 21
-31.9054652880355292
 31
0.0
  0
LINE
  5
61
100
AcDbEntity
100
AcDbLine
  8
0
 62
256
370
-1
  6
BYLAYER
 10
530.4283604135910082
 20
-31.9054652880355292
 30
0.0
 11
532.821270310193654
 21
-63.8109305760711152
 31
0.0
  0
LINE
  5
62
100
AcDbEntity
100
AcDbLine
  8
0
 62
256
370
-1
  6
BYLAYER
 10
532.821270310193654
 20
-63.8109305760711152
 30
0.0
 11
555.1550960118185003
 21
-63.8109305760710654
 31
0.0
  0
LINE
  5
63
100
AcDbEntity
100
AcDbLine
  8
0
 62
256
370
-1
  6
BYLAYER
 10
555.1550960118185003
 20
-63.8109305760710654
 30
0.0
 11
557.5480059084211462
 21
-31.9054652880355505
 31
0.0
  0
LINE
  5
64
100
AcDbEntity
100
AcDbLine
  8
0
 62
256
370
-1
  6
BYLAYER
 10
557.5480059084211462
 20
-31.9054652880355505
 30
0.0
 11
557.5480059084211462
 21
-0.0000000000000045
 31
0.0
  0
LINE
  5
65
100
AcDbEntity
100
AcDbLine
  8
0
 62
256
370
-1
  6
BYLAYER
 10
540.0000000000015916
 20
-31.1078286558346662
 30
0.0
 11
545.5834564254078032
 21
-31.107828655834652
 31
0.0
  0
LINE
  5
66
100
AcDbEntity
100
AcDbLine
  8
0
 62
256
370
-1
  6
BYLAYER
 10
545.5834564254078032
 20
-31.107828655834652
 30
0.0
 11
545.5834564254078032
 21
-0.0000000000000015
 31
0.0
  0
LINE
  5
67
100
AcDbEntity
100
AcDbLine
  8
0
 62
256
370
-1
  6
BYLAYER
 10
323.8404726735607824
 20
0.0000000000000149
 30
0.0
 11
323.8404726735607824
 21
-20.7385524372230705
 31
0.0
  0
LINE
  5
68
100
AcDbEntity
100
AcDbLine
  8
0
 62
256
370
-1
  6
BYLAYER
 10
323.8404726735607824
 20
-20.7385524372230705
 30
0.0
 11
320.5088973444090925
 21
-24.1071336417161106
 31
0.0
  0
CIRCLE
  5
69
100
AcDbEntity
100
AcDbCircle
  8
0
 62
256
370
-1
  6
BYLAYER
 10
-97.9169618680913203
 20
-22.024925259024883
 30
0.0
 40
2.3929098966026658
  0
CIRCLE
  5
6A
100
AcDbEntity
100
AcDbCircle
  8
0
 62
256
370
-1
  6
BYLAYER
 10
-51.0159278946790948
 20
-18.4834186120512172
 30
0.0
 40
2.3929098966026658
  0
LINE
  5
6B
100
AcDbEntity
100
AcDbLine
  8
0
 62
256
370
-1
  6
BYLAYER
 10
-5.6534928695682467
 20
-16.1097132531168903
 30
0.0
 11
1.8123860078320821
 21
-16.2054296489781855
 31
0.0
  0
LINE
  5
6C
100
AcDbEntity
100
AcDbLine
  8
0
 62
256
370
-1
  6
BYLAYER
 10
1.6209532161038616
 20
-5.6766261039285393
 30
0.0
 11
-4.9834780985194751
 21
-5.5809097080659846
 31
0.0
  0
LINE
  5
6D
100
AcDbEntity
100
AcDbLine
  8
0
 62
256
370
-1
  6
BYLAYER
 10
540.0000000000015916
 20
-31.1078286558346662
 30
0.0
 11
540.0000000000015916
 21
-0.0000000000000002
 31
0.0
  0
LINE
  5
6E
100
AcDbEntity
100
AcDbLine
  8
0
 62
256
370
-1
  6
BYLAYER
 10
0.0
 20
0.0000000000000735
 30
0.0
 11
0.0
 21
-19.940915805022648
 31
0.0
  0
SPLINE
  5
6F
  8
0
 62
256
370
-1
  6
BYLAYER
100
AcDbEntity
100
AcDbSpline
 70
8
 71
3
 72
11
 73
7
 74
0
 40
0.0
 40
0.0
 40
0.0
 40
0.0
 40
1.0
 40
2.0
 40
3.0
 40
4.0
 40
4.0
 40
4.0
 40
4.0
 10
-145.1698670605617281
 20
0.0000000000000913
 30
0.0
 10
-141.8177660333205381
 20
-3.7276155003140681
 30
0.0
 10
-139.0943539210605593
 20
-11.8978518370893429
 30
0.0
 10
-137.7741914395244578
 20
-22.4222240675205491
 30
0.0
 10
-137.3310599771905345
 20
-30.0662417927768963
 30
0.0
 10
-137.4970637320029141
 20
-36.1321849697154036
 30
0.0
 10
-137.4970637320029141
 20
-36.1321849697154036
 30
0.0
  0
SPLINE
  5
70
  8
0
 62
256
370
-1
  6
BYLAYER
100
AcDbEntity
100
AcDbSpline
 70
8
 71
3
 72
11
 73
7
 74
0
 40
0.0
 40
0.0
 40
0.0
 40
0.0
 40
1.0
 40
2.0
 40
3.0
 40
4.0
 40
4.0
 40
4.0
 40
4.0
 10
-27.1435634661237835
 20
-27.9946067126975144
 30
0.0
 10
-24.1664006891666041
 20
-25.2159214542045937
 30
0.0
 10
-18.9342603051194338
 20
-22.1970830494777935
 30
0.0
 10
-14.2535512947795766
 20
-20.4193814246634098
 30
0.0
 10
-7.0804936876895797
 20
-19.2613371115156262
 30
0.0
 10
-0.322738887098667
 20
-19.0951628131411297
 30
0.0
 10
-0.322738887098667
 20
-19.0951628131411297
 30
0.0
  0
LINE
  5
71
100
AcDbEntity
100
AcDbLine
  8
0
 62
256
370
-1
  6
BYLAYER
 10
-137.4970637320029141
 20
-36.1321849697154036
 30
0.0
 11
-27.1435634661237835
 21
-27.9946067126975144
 31
0.0
  0
LINE
  5
72
100
AcDbEntity
100
AcDbLine
  8
0
 62
256
370
-1
  6
BYLAYER
 10
-3.9881831610044434
 20
-19.940915805022577
 30
0.0
 11
-3.9881831610044434
 21
0.000000000000074
 31
0.0
  0
LINE
  5
73
100
AcDbEntity
100
AcDbLine
  8
0
 62
256
370
-1
  6
BYLAYER
 10
267.4665639085684461
 20
-26.0041758529732938
 30
0.0
 11
267.4665639085684461
 21
-0.2020984526908462
 31
0.0
  0
LINE
  5
74
100
AcDbEntity
100
AcDbLine
  8
0
 62
256
370
-1
  6
BYLAYER
 10
371.4596606747346641
 20
-24.5669295719927341
 30
0.0
 11
371.3448009996977248
 21
-0.2166784641619398
 31
0.0
  0
LINE
  5
75
100
AcDbEntity
100
AcDbLine
  8
0
 62
256
370
-1
  6
BYLAYER
 10
371.4596606747346641
 20
-24.5669295719927341
 30
0.0
 11
-0.322738887098667
 21
-19.0951628131411297
 31
0.0
  0
LINE
  5
76
100
AcDbEntity
100
AcDbLine
  8
0
 62
256
370
-1
  6
BYLAYER
 10
663.8689987981550757
 20
-26.8208347142976784
 30
0.0
 11
651.364915134934904
 21
-26.8208347142976962
 31
0.0
  0
LINE
  5
77
100
AcDbEntity
100
AcDbLine
  8
0
 62
256
370
-1
  6
BYLAYER
 10
651.364915134934904
 20
-26.8208347142976962
 30
0.0
 11
646.0856720827198387
 21
-21.536189069423969
 31
0.0
  0
LINE
  5
78
100
AcDbEntity
100
AcDbLine
  8
0
 62
256
370
-1
  6
BYLAYER
 10
646.0856720827198387
 20
-21.536189069423969
 30
0.0
 11
646.0856720827198387
 21
0.0000000000000149
 31
0.0
  0
LINE
  5
79
100
AcDbEntity
100
AcDbLine
  8
0
 62
256
370
-1
  6
BYLAYER
 10
297.8457208768469968
 20
23.4835046727805192
 30
0.0
 11
297.8457208768627993
 21
-23.483504672780672
 31
0.0
  0
SPLINE
  5
7A
  8
0
 62
256
370
-1
  6
BYLAYER
100
AcDbEntity
100
AcDbSpline
 70
8
 71
3
 72
38
 73
34
 74
0
 40
0.0
 40
0.0
 40
0.0
 40
0.0
 40
1.0
 40
2.0
 40
3.0
 40
4.0
 40
5.0
 40
6.0
 40
7.0
 40
8.0
 40
9.0
 40
10.0
 40
11.0
 40
12.0
 40
13.0
 40
14.0
 40
15.0
 40
16.0
 40
17.0
 40
18.0
 40
19.0
 40
20.0
 40
21.0
 40
22.0
 40
23.0
 40
24.0
 40
25.0
 40
26.0
 40
27.0
 40
28.0
 40
29.0
 40
30.0
 40
31.0
 40
31.0
 40
31.0
 40
31.0
 10
297.8106235378124893
 20
-23.4656025330442262
 30
0.0
 10
299.0174267247645616
 20
-30.8213211250944283
 30
0.0
 10
300.7804537958436413
 20
-40.0405738021598125
 30
0.0
 10
304.7311743996920086
 20
-52.9543645651988015
 30
0.0
 10
311.1434548867505896
 20
-65.6620981360783134
 30
0.0
 10
319.3747145324817893
 20
-78.0089876046751698
 30
0.0
 10
332.4075423048895459
 20
-90.6988462251774052
 30
0.0
 10
348.8700615963518317
 20
-99.616044174719562
 30
0.0
 10
366.5751895752564451
 20
-101.393333039977108
 30
0.0
 10
380.4673609194220489
 20
-100.9945147238767049
 30
0.0
 10
392.5648498411356968
 20
-98.3357259498737051
 30
0.0
 10
408.2037248759974659
 20
-94.4715068961375266
 30
0.0
 10
422.2654601041216438
 20
-89.3269696175555339
 30
0.0
 10
431.5256272055692079
 20
-85.8972780985009194
 30
0.0
 10
438.0420410917731147
 20
-85.2113397946899767
 30
0.0
 10
448.2664746564976781
 20
-86.4376461862103014
 30
0.0
 10
458.5692811557590289
 20
-91.6887540148661628
 30
0.0
 10
476.4545861051852853
 20
-102.3597973899632905
 30
0.0
 10
498.7475809790404924
 20
-115.7355943142764971
 30
0.0
 10
517.6108843338412271
 20
-124.9957614157240471
 30
0.0
 10
536.474187688641905
 20
-130.4832678462114757
 30
0.0
 10
554.3085835877260479
 20
-132.8840519095498109
 30
0.0
 10
570.9323535338979809
 20
-133.001013985324505
 30
0.0
 10
592.0697242872216748
 20
-128.9463611049699239
 30
0.0
 10
613.0741556018451774
 20
-119.0423729218088624
 30
0.0
 10
624.972235365508368
 20
-109.9360213708486782
 30
0.0
 10
635.3636264880514091
 20
-99.4445595987669009
 30
0.0
 10
645.6527010452155082
 20
-84.6968860668319081
 30
0.0
 10
654.5698989947576365
 20
-67.205459319653059
 30
0.0
 10
660.7433437290559368
 20
-50.3999708762852805
 30
0.0
 10
666.8401502006890951
 20
-27.5548330641795545
 30
0.0
 10
667.6134146024618303
 20
-10.6316425176508531
 30
0.0
 10
667.9409158050241331
 20
0.0000000000000149
 30
0.0
 10
667.9409158050241331
 20
0.0000000000000149
 30
0.0
  0
ENDSEC
  0
SECTION
  2
OBJECTS
  0
DICTIONARY
  5
C
100
AcDbDictionary
280
0
281
1
  3
ACAD_GROUP
350
D
  3
ACAD_LAYOUT
350
1A
  3
ACAD_MLINESTYLE
350
17
  3
ACAD_PLOTSETTINGS
350
19
  3
ACAD_PLOTSTYLENAME
350
E
  3
AcDbVariableDictionary
350
7B
  3
QCAD_OBJECTS
350
7C
  0
DICTIONARY
  5
D
100
AcDbDictionary
280
0
281
1
  0
ACDBDICTIONARYWDFLT
  5
E
100
AcDbDictionary
281
1
  3
Normal
350
F
100
AcDbDictionaryWithDefault
340
F
  0
ACDBPLACEHOLDER
  5
F
  0
DICTIONARY
  5
17
100
AcDbDictionary
280
0
281
1
  3
Standard
350
18
  0
MLINESTYLE
  5
18
100
AcDbMlineStyle
  2
STANDARD
 70
0
  3

 62
256
 51
90.0
 52
90.0
 71
2
 49
0.5
 62
256
  6
BYLAYER
 49
-0.5
 62
256
  6
BYLAYER
  0
DICTIONARY
  5
19
100
AcDbDictionary
280
0
281
1
  0
DICTIONARY
  5
1A
100
AcDbDictionary
281
1
  3
Layout1
350
1E
  3
Layout2
350
26
  3
Model
350
22
  0
LAYOUT
  5
1E
100
AcDbPlotSettings
  1

  2
none_device
  4

  6

 40
0.0
 41
0.0
 42
0.0
 43
0.0
 44
0.0
 45
0.0
 46
0.0
 47
0.0
 48
0.0
 49
0.0
140
0.0
141
0.0
142
1.0
143
1.0
 70
688
 72
0
 73
0
 74
5
  7

 75
16
147
1.0
148
0.0
149
0.0
100
AcDbLayout
  1
Layout1
 70
1
 71
1
 10
0.0
 20
0.0
 11
420.0
 21
297.0
 12
0.0
 22
0.0
 32
0.0
 14
100000000000000000000.0
 24
100000000000000000000.0
 34
100000000000000000000.0
 15
-100000000000000000000.0
 25
-100000000000000000000.0
 35
-100000000000000000000.0
146
0.0
 13
0.0
 23
0.0
 33
0.0
 16
1.0
 26
0.0
 36
0.0
 17
0.0
 27
1.0
 37
0.0
 76
0
330
1B
  0
LAYOUT
  5
22
100
AcDbPlotSettings
  1

  2
none_device
  4

  6

 40
0.0
 41
0.0
 42
0.0
 43
0.0
 44
0.0
 45
0.0
 46
0.0
 47
0.0
 48
0.0
 49
0.0
140
0.0
141
0.0
142
1.0
143
1.0
 70
1712
 72
0
 73
0
 74
0
  7

 75
0
147
1.0
148
0.0
149
0.0
100
AcDbLayout
  1
Model
 70
1
 71
0
 10
0.0
 20
0.0
 11
12.0
 21
9.0
 12
0.0
 22
0.0
 32
0.0
 14
0.0
 24
0.0
 34
0.0
 15
0.0
 25
0.0
 35
0.0
146
0.0
 13
0.0
 23
0.0
 33
0.0
 16
1.0
 26
0.0
 36
0.0
 17
0.0
 27
1.0
 37
0.0
 76
0
330
1F
  0
LAYOUT
  5
26
100
AcDbPlotSettings
  1

  2
none_device
  4

  6

 40
0.0
 41
0.0
 42
0.0
 43
0.0
 44
0.0
 45
0.0
 46
0.0
 47
0.0
 48
0.0
 49
0.0
140
0.0
141
0.0
142
1.0
143
1.0
 70
688
 72
0
 73
0
 74
5
  7

 75
16
147
1.0
148
0.0
149
0.0
100
AcDbLayout
  1
Layout2
 70
1
 71
2
 10
0.0
 20
0.0
 11
12.0
 21
9.0
 12
0.0
 22
0.0
 32
0.0
 14
0.0
 24
0.0
 34
0.0
 15
0.0
 25
0.0
 35
0.0
146
0.0
 13
0.0
 23
0.0
 33
0.0
 16
1.0
 26
0.0
 36
0.0
 17
0.0
 27
1.0
 37
0.0
 76
0
330
23
  0
DICTIONARY
  5
7B
100
AcDbDictionary
281
1
  3
DIMASSOC
350
7E
  3
HIDETEXT
350
7D
  0
DICTIONARYVAR
  5
7D
100
DictionaryVariables
280
0
  1
2
  0
DICTIONARYVAR
  5
7E
100
DictionaryVariables
280
0
  1
1
  0
DICTIONARY
  5
7C
100
AcDbDictionary
281
1
  3
Grid/DisplayGrid00
350
7F
  3
Grid/DisplayGrid01
350
80
  3
Grid/DisplayGrid02
350
81
  3
Grid/DisplayGrid03
350
82
  3
Grid/GridSpacingX00
350
83
  3
Grid/GridSpacingX01
350
84
  3
Grid/GridSpacingX02
350
85
  3
Grid/GridSpacingX03
350
86
  3
Grid/GridSpacingY00
350
87
  3
Grid/GridSpacingY01
350
88
  3
Grid/GridSpacingY02
350
89
  3
Grid/GridSpacingY03
350
8A
  3
Grid/IsometricGrid00
350
8B
  3
Grid/IsometricGrid01
350
8C
  3
Grid/IsometricGrid02
350
8D
  3
Grid/IsometricGrid03
350
8E
  3
Grid/IsometricProjection00
350
8F
  3
Grid/IsometricProjection01
350
90
  3
Grid/IsometricProjection02
350
91
  3
Grid/IsometricProjection03
350
92
  3
Grid/MetaGridSpacingX00
350
93
  3
Grid/MetaGridSpacingX01
350
94
  3
Grid/MetaGridSpacingX02
350
95
  3
Grid/MetaGridSpacingX03
350
96
  3
Grid/MetaGridSpacingY00
350
97
  3
Grid/MetaGridSpacingY01
350
98
  3
Grid/MetaGridSpacingY02
350
99
  3
Grid/MetaGridSpacingY03
350
9A
  3
MultiPageSettings/Columns
350
9B
  3
MultiPageSettings/GlueMarginsBottom
350
9C
  3
MultiPageSettings/GlueMarginsLeft
350
9D
  3
MultiPageSettings/GlueMarginsRight
350
9E
  3
MultiPageSettings/GlueMarginsTop
350
9F
  3
MultiPageSettings/PrintCropMarks
350
A0
  3
MultiPageSettings/Rows
350
A1
  3
PageSettings/OffsetX
350
A2
  3
PageSettings/OffsetY
350
A3
  3
PageSettings/PageOrientation
350
A4
  3
PageSettings/PaperHeight
350
A5
  3
PageSettings/PaperWidth
350
A6
  3
PageSettings/Scale
350
A7
  3
PageSettings/ShowPaperBorders
350
A8
  3
UnitSettings/PaperUnit
350
A9
  0
XRECORD
  5
7F
330
7C
100
AcDbXrecord
280
1
290
1
  0
XRECORD
  5
80
330
7C
100
AcDbXrecord
280
1
290
1
  0
XRECORD
  5
81
330
7C
100
AcDbXrecord
280
1
290
1
  0
XRECORD
  5
82
330
7C
100
AcDbXrecord
280
1
290
1
  0
XRECORD
  5
83
330
7C
100
AcDbXrecord
280
1
1000
auto
  0
XRECORD
  5
84
330
7C
100
AcDbXrecord
280
1
1000
auto
  0
XRECORD
  5
85
330
7C
100
AcDbXrecord
280
1
1000
auto
  0
XRECORD
  5
86
330
7C
100
AcDbXrecord
280
1
1000
auto
  0
XRECORD
  5
87
330
7C
100
AcDbXrecord
280
1
1000
auto
  0
XRECORD
  5
88
330
7C
100
AcDbXrecord
280
1
1000
auto
  0
XRECORD
  5
89
330
7C
100
AcDbXrecord
280
1
1000
auto
  0
XRECORD
  5
8A
330
7C
100
AcDbXrecord
280
1
1000
auto
  0
XRECORD
  5
8B
330
7C
100
AcDbXrecord
280
1
290
0
  0
XRECORD
  5
8C
330
7C
100
AcDbXrecord
280
1
290
0
  0
XRECORD
  5
8D
330
7C
100
AcDbXrecord
280
1
290
0
  0
XRECORD
  5
8E
330
7C
100
AcDbXrecord
280
1
290
0
  0
XRECORD
  5
8F
330
7C
100
AcDbXrecord
280
1
 90
0
  0
XRECORD
  5
90
330
7C
100
AcDbXrecord
280
1
 90
0
  0
XRECORD
  5
91
330
7C
100
AcDbXrecord
280
1
 90
0
  0
XRECORD
  5
92
330
7C
100
AcDbXrecord
280
1
 90
0
  0
XRECORD
  5
93
330
7C
100
AcDbXrecord
280
1
1000
auto
  0
XRECORD
  5
94
330
7C
100
AcDbXrecord
280
1
1000
auto
  0
XRECORD
  5
95
330
7C
100
AcDbXrecord
280
1
1000
auto
  0
XRECORD
  5
96
330
7C
100
AcDbXrecord
280
1
1000
auto
  0
XRECORD
  5
97
330
7C
100
AcDbXrecord
280
1
1000
auto
  0
XRECORD
  5
98
330
7C
100
AcDbXrecord
280
1
1000
auto
  0
XRECORD
  5
99
330
7C
100
AcDbXrecord
280
1
1000
auto
  0
XRECORD
  5
9A
330
7C
100
AcDbXrecord
280
1
1000
auto
  0
XRECORD
  5
9B
330
7C
100
AcDbXrecord
280
1
 90
1
  0
XRECORD
  5
9C
330
7C
100
AcDbXrecord
280
1
 40
10.0
  0
XRECORD
  5
9D
330
7C
100
AcDbXrecord
280
1
 40
10.0
  0
XRECORD
  5
9E
330
7C
100
AcDbXrecord
280
1
 40
10.0
  0
XRECORD
  5
9F
330
7C
100
AcDbXrecord
280
1
 40
10.0
  0
XRECORD
  5
A0
330
7C
100
AcDbXrecord
280
1
290
0
  0
XRECORD
  5
A1
330
7C
100
AcDbXrecord
280
1
 90
1
  0
XRECORD
  5
A2
330
7C
100
AcDbXrecord
280
1
 40
0.0
  0
XRECORD
  5
A3
330
7C
100
AcDbXrecord
280
1
 40
0.0
  0
XRECORD
  5
A4
330
7C
100
AcDbXrecord
280
1
1000
Portrait
  0
XRECORD
  5
A5
330
7C
100
AcDbXrecord
280
1
 40
279.3999999999999773
  0
XRECORD
  5
A6
330
7C
100
AcDbXrecord
280
1
 40
215.9000000000000057
  0
XRECORD
  5
A7
330
7C
100
AcDbXrecord
280
1
1000
1:1
  0
XRECORD
  5
A8
330
7C
100
AcDbXrecord
280
1
290
1
  0
XRECORD
  5
A9
330
7C
100
AcDbXrecord
280
1
 90
4
  0
ENDSEC
  0
EOF
