G04 (created by PCBNEW (2014-01-10 BZR 4027)-stable) date Thursday, April 17, 2014 'amt' 11:38:12 am*
%MOIN*%
G04 Gerber Fmt 3.4, Leading zero omitted, Abs format*
%FSLAX34Y34*%
G01*
G70*
G90*
G04 APERTURE LIST*
%ADD10C,0.00590551*%
%ADD11C,0.0047*%
%ADD12C,0.0045*%
G04 APERTURE END LIST*
G54D10*
X19160Y-19060D02*
X18806Y-16585D01*
X18806Y-16585D02*
X25877Y-9514D01*
X25877Y-9514D02*
X31887Y-15524D01*
X31887Y-15524D02*
X24816Y-22595D01*
X24816Y-22595D02*
X22342Y-22242D01*
X22342Y-22242D02*
X19160Y-19060D01*
G54D11*
X19333Y-15009D02*
X19139Y-15203D01*
X19612Y-14730D02*
X19806Y-14536D01*
X18971Y-14647D02*
X18777Y-14841D01*
X19444Y-14174D02*
X19250Y-14368D01*
X18781Y-14845D02*
X19134Y-15199D01*
X19802Y-14531D02*
X19448Y-14178D01*
X20300Y-13318D02*
X20494Y-13124D01*
X20021Y-13597D02*
X19827Y-13791D01*
X20662Y-13680D02*
X20856Y-13486D01*
X20189Y-14153D02*
X20383Y-13959D01*
X20852Y-13481D02*
X20498Y-13128D01*
X19831Y-13795D02*
X20184Y-14149D01*
G54D10*
X27348Y-13325D02*
X27441Y-13789D01*
X27163Y-13511D02*
X27627Y-13603D01*
X27097Y-13842D02*
X27070Y-13895D01*
X27070Y-13922D01*
X27083Y-13961D01*
X27123Y-14001D01*
X27163Y-14014D01*
X27189Y-14014D01*
X27229Y-14001D01*
X27335Y-13895D01*
X27057Y-13617D01*
X26964Y-13709D01*
X26951Y-13749D01*
X26951Y-13776D01*
X26964Y-13816D01*
X26991Y-13842D01*
X27030Y-13855D01*
X27057Y-13855D01*
X27097Y-13842D01*
X27189Y-13749D01*
X26937Y-14266D02*
X26977Y-14253D01*
X27030Y-14200D01*
X27044Y-14160D01*
X27030Y-14120D01*
X26924Y-14014D01*
X26884Y-14001D01*
X26845Y-14014D01*
X26792Y-14067D01*
X26778Y-14107D01*
X26792Y-14147D01*
X26818Y-14173D01*
X26977Y-14067D01*
X26699Y-14505D02*
X26739Y-14492D01*
X26792Y-14439D01*
X26805Y-14399D01*
X26792Y-14359D01*
X26686Y-14253D01*
X26646Y-14240D01*
X26606Y-14253D01*
X26553Y-14306D01*
X26540Y-14346D01*
X26553Y-14386D01*
X26580Y-14412D01*
X26739Y-14306D01*
X26394Y-15048D02*
X26394Y-15022D01*
X26381Y-14956D01*
X26367Y-14916D01*
X26341Y-14863D01*
X26288Y-14783D01*
X26235Y-14730D01*
X26155Y-14677D01*
X26102Y-14651D01*
X26063Y-14637D01*
X25996Y-14624D01*
X25970Y-14624D01*
X26182Y-15022D02*
X26155Y-15075D01*
X26089Y-15141D01*
X26049Y-15154D01*
X26023Y-15154D01*
X25983Y-15141D01*
X25956Y-15115D01*
X25943Y-15075D01*
X25943Y-15048D01*
X25956Y-15009D01*
X25996Y-14942D01*
X26010Y-14903D01*
X26010Y-14876D01*
X25996Y-14836D01*
X25970Y-14810D01*
X25930Y-14797D01*
X25903Y-14797D01*
X25864Y-14810D01*
X25797Y-14876D01*
X25771Y-14929D01*
X25731Y-15128D02*
X26010Y-15406D01*
X25744Y-15141D02*
X25705Y-15154D01*
X25652Y-15207D01*
X25638Y-15247D01*
X25638Y-15274D01*
X25652Y-15314D01*
X25731Y-15393D01*
X25771Y-15406D01*
X25797Y-15406D01*
X25837Y-15393D01*
X25890Y-15340D01*
X25903Y-15300D01*
X25546Y-15685D02*
X25400Y-15539D01*
X25386Y-15499D01*
X25400Y-15459D01*
X25453Y-15406D01*
X25493Y-15393D01*
X25532Y-15671D02*
X25572Y-15658D01*
X25638Y-15592D01*
X25652Y-15552D01*
X25638Y-15512D01*
X25612Y-15486D01*
X25572Y-15473D01*
X25532Y-15486D01*
X25466Y-15552D01*
X25426Y-15565D01*
X25413Y-15817D02*
X25227Y-15632D01*
X25280Y-15685D02*
X25241Y-15671D01*
X25214Y-15671D01*
X25174Y-15685D01*
X25148Y-15711D01*
X25241Y-15990D02*
X24962Y-15711D01*
X25108Y-15910D02*
X25135Y-16096D01*
X24949Y-15910D02*
X25161Y-15910D01*
X24869Y-15990D02*
X24763Y-16096D01*
X25015Y-16215D02*
X24777Y-15976D01*
X24737Y-15963D01*
X24697Y-15976D01*
X24671Y-16003D01*
X24551Y-16308D02*
X24737Y-16493D01*
X24671Y-16188D02*
X24816Y-16334D01*
X24830Y-16374D01*
X24816Y-16414D01*
X24777Y-16454D01*
X24737Y-16467D01*
X24710Y-16467D01*
X24419Y-16440D02*
X24604Y-16626D01*
X24445Y-16467D02*
X24419Y-16467D01*
X24379Y-16480D01*
X24339Y-16520D01*
X24326Y-16560D01*
X24339Y-16599D01*
X24485Y-16745D01*
X23902Y-17037D02*
X23875Y-17090D01*
X23875Y-17116D01*
X23888Y-17156D01*
X23928Y-17196D01*
X23968Y-17209D01*
X23995Y-17209D01*
X24034Y-17196D01*
X24140Y-17090D01*
X23862Y-16812D01*
X23769Y-16904D01*
X23756Y-16944D01*
X23756Y-16971D01*
X23769Y-17010D01*
X23796Y-17037D01*
X23835Y-17050D01*
X23862Y-17050D01*
X23902Y-17037D01*
X23995Y-16944D01*
X23862Y-17368D02*
X23676Y-17183D01*
X23729Y-17236D02*
X23690Y-17222D01*
X23663Y-17222D01*
X23623Y-17236D01*
X23597Y-17262D01*
X23570Y-17633D02*
X23610Y-17620D01*
X23663Y-17567D01*
X23676Y-17527D01*
X23663Y-17488D01*
X23557Y-17382D01*
X23517Y-17368D01*
X23478Y-17382D01*
X23424Y-17435D01*
X23411Y-17474D01*
X23424Y-17514D01*
X23451Y-17541D01*
X23610Y-17435D01*
X23332Y-17899D02*
X23186Y-17753D01*
X23173Y-17713D01*
X23186Y-17673D01*
X23239Y-17620D01*
X23279Y-17607D01*
X23318Y-17885D02*
X23358Y-17872D01*
X23424Y-17806D01*
X23438Y-17766D01*
X23424Y-17726D01*
X23398Y-17700D01*
X23358Y-17686D01*
X23318Y-17700D01*
X23252Y-17766D01*
X23212Y-17779D01*
X23199Y-18031D02*
X22921Y-17753D01*
X23067Y-17952D02*
X23093Y-18137D01*
X22907Y-17952D02*
X23120Y-17952D01*
X22934Y-18296D02*
X22947Y-18257D01*
X22947Y-18230D01*
X22934Y-18190D01*
X22854Y-18111D01*
X22815Y-18097D01*
X22788Y-18097D01*
X22748Y-18111D01*
X22709Y-18150D01*
X22695Y-18190D01*
X22695Y-18217D01*
X22709Y-18257D01*
X22788Y-18336D01*
X22828Y-18349D01*
X22854Y-18349D01*
X22894Y-18336D01*
X22934Y-18296D01*
X22417Y-18442D02*
X22603Y-18628D01*
X22536Y-18323D02*
X22682Y-18469D01*
X22695Y-18508D01*
X22682Y-18548D01*
X22642Y-18588D01*
X22603Y-18601D01*
X22576Y-18601D01*
X22324Y-18535D02*
X22218Y-18641D01*
X22192Y-18482D02*
X22430Y-18720D01*
X22443Y-18760D01*
X22430Y-18800D01*
X22404Y-18827D01*
X22443Y-18999D02*
X22417Y-18999D01*
X22351Y-18986D01*
X22311Y-18972D01*
X22258Y-18946D01*
X22178Y-18893D01*
X22125Y-18840D01*
X22072Y-18760D01*
X22046Y-18707D01*
X22033Y-18667D01*
X22019Y-18601D01*
X22019Y-18575D01*
G54D12*
X19569Y-14850D02*
X19569Y-14837D01*
X19563Y-14816D01*
X19529Y-14783D01*
X19509Y-14776D01*
X19495Y-14776D01*
X19475Y-14783D01*
X19462Y-14796D01*
X19448Y-14823D01*
X19448Y-14985D01*
X19361Y-14897D01*
X19415Y-14668D02*
X19401Y-14655D01*
X19381Y-14648D01*
X19367Y-14648D01*
X19347Y-14655D01*
X19314Y-14675D01*
X19280Y-14709D01*
X19260Y-14742D01*
X19253Y-14763D01*
X19253Y-14776D01*
X19260Y-14796D01*
X19273Y-14810D01*
X19293Y-14816D01*
X19307Y-14816D01*
X19327Y-14810D01*
X19361Y-14789D01*
X19394Y-14756D01*
X19415Y-14722D01*
X19421Y-14702D01*
X19421Y-14688D01*
X19415Y-14668D01*
X19260Y-14608D02*
X19118Y-14749D01*
X19253Y-14614D02*
X19246Y-14594D01*
X19219Y-14567D01*
X19199Y-14561D01*
X19186Y-14561D01*
X19165Y-14567D01*
X19125Y-14608D01*
X19118Y-14628D01*
X19118Y-14641D01*
X19125Y-14662D01*
X19152Y-14688D01*
X19172Y-14695D01*
X19064Y-14453D02*
X19112Y-14500D01*
X19037Y-14574D02*
X19179Y-14433D01*
X19112Y-14365D01*
X20619Y-13800D02*
X20619Y-13787D01*
X20613Y-13766D01*
X20579Y-13733D01*
X20559Y-13726D01*
X20545Y-13726D01*
X20525Y-13733D01*
X20512Y-13746D01*
X20498Y-13773D01*
X20498Y-13935D01*
X20411Y-13847D01*
X20465Y-13618D02*
X20451Y-13605D01*
X20431Y-13598D01*
X20417Y-13598D01*
X20397Y-13605D01*
X20364Y-13625D01*
X20330Y-13659D01*
X20310Y-13692D01*
X20303Y-13713D01*
X20303Y-13726D01*
X20310Y-13746D01*
X20323Y-13760D01*
X20343Y-13766D01*
X20357Y-13766D01*
X20377Y-13760D01*
X20411Y-13739D01*
X20444Y-13706D01*
X20465Y-13672D01*
X20471Y-13652D01*
X20471Y-13638D01*
X20465Y-13618D01*
X20310Y-13558D02*
X20168Y-13699D01*
X20303Y-13564D02*
X20296Y-13544D01*
X20269Y-13517D01*
X20249Y-13511D01*
X20236Y-13511D01*
X20215Y-13517D01*
X20175Y-13558D01*
X20168Y-13578D01*
X20168Y-13591D01*
X20175Y-13612D01*
X20202Y-13638D01*
X20222Y-13645D01*
X20114Y-13403D02*
X20162Y-13450D01*
X20087Y-13524D02*
X20229Y-13383D01*
X20162Y-13315D01*
M02*
