999
dxflib 3.3.4.0
  0
SECTION
  2
HEADER
  9
$ACADVER
  1
AC1015
  9
$HANDSEED
  5
FFFF
  9
$DIMADEC
 70
0
  9
$DIMASZ
 40
2.5
  9
$DIMAUNIT
 70
0
  9
$DIMAZIN
 70
2
  9
$DIMDEC
 70
4
  9
$DIMEXE
 40
1.25
  9
$DIMEXO
 40
0.625
  9
$DIMGAP
 40
0.625
  9
$DIMLUNIT
 70
2
  9
$DIMTSZ
 40
0.0
  9
$DIMTXT
 40
2.5
  9
$DIMZIN
 70
8
  9
$DWGCODEPAGE
  3
ANSI_1252
  9
$INSUNITS
 70
4
  9
$LTSCALE
 40
1.0
  0
ENDSEC
  0
SECTION
  2
TABLES
  0
TABLE
  2
VPORT
  5
8
100
AcDbSymbolTable
 70
1
  0
VPORT
  5
30
100
AcDbSymbolTableRecord
100
AcDbViewportTableRecord
  2
*Active
 70
0
 10
0.0
 20
0.0
 11
1.0
 21
1.0
 12
286.3055555555554861
 22
148.5
 13
0.0
 23
0.0
 14
10.0
 24
10.0
 15
10.0
 25
10.0
 16
0.0
 26
0.0
 36
1.0
 17
0.0
 27
0.0
 37
0.0
 40
297.0
 41
1.92798353909465
 42
50.0
 43
0.0
 44
0.0
 50
0.0
 51
0.0
 71
0
 72
100
 73
1
 74
3
 75
1
 76
1
 77
0
 78
0
281
0
 65
1
110
0.0
120
0.0
130
0.0
111
1.0
121
0.0
131
0.0
112
0.0
122
1.0
132
0.0
 79
0
146
0.0
  0
ENDTAB
  0
TABLE
  2
LTYPE
  5
5
100
AcDbSymbolTable
 70
21
  0
LTYPE
  5
16
100
AcDbSymbolTableRecord
100
AcDbLinetypeTableRecord
  2
CONTINUOUS
 70
0
  3
Solid line
 72
65
 73
0
 40
0.0
  0
LTYPE
  5
31
100
AcDbSymbolTableRecord
100
AcDbLinetypeTableRecord
  2
CENTER2
 70
0
  3
Center (.5x) ___ _ ___ _ ___ _ ___ _ ___ _ ___
 72
65
 73
4
 40
28.5749999999999993
 49
19.0500000000000007
 74
0
 49
-3.1749999999999998
 74
0
 49
3.1749999999999998
 74
0
 49
-3.1749999999999998
 74
0
  0
LTYPE
  5
32
100
AcDbSymbolTableRecord
100
AcDbLinetypeTableRecord
  2
DIVIDEX2
 70
0
  3
Divide (2x) ________  .  .  ________  .  .  _
 72
65
 73
6
 40
63.5
 49
25.3999999999999986
 74
0
 49
-12.6999999999999993
 74
0
 49
0.0
 74
0
 49
-12.6999999999999993
 74
0
 49
0.0
 74
0
 49
-12.6999999999999993
 74
0
  0
LTYPE
  5
33
100
AcDbSymbolTableRecord
100
AcDbLinetypeTableRecord
  2
DOT2
 70
0
  3
Dot (.5x) .....................................
 72
65
 73
2
 40
3.1749999999999998
 49
0.0
 74
0
 49
-3.1749999999999998
 74
0
  0
LTYPE
  5
34
100
AcDbSymbolTableRecord
100
AcDbLinetypeTableRecord
  2
DASHDOT2
 70
0
  3
Dash dot (.5x) _._._._._._._._._._._._._._._.
 72
65
 73
4
 40
12.6999999999999993
 49
6.3499999999999996
 74
0
 49
-3.1749999999999998
 74
0
 49
0.0
 74
0
 49
-3.1749999999999998
 74
0
  0
LTYPE
  5
35
100
AcDbSymbolTableRecord
100
AcDbLinetypeTableRecord
  2
DIVIDE
 70
0
  3
Divide ____ . . ____ . . ____ . . ____ . . ____
 72
65
 73
6
 40
31.75
 49
12.6999999999999993
 74
0
 49
-6.3499999999999996
 74
0
 49
0.0
 74
0
 49
-6.3499999999999996
 74
0
 49
0.0
 74
0
 49
-6.3499999999999996
 74
0
  0
LTYPE
  5
36
100
AcDbSymbolTableRecord
100
AcDbLinetypeTableRecord
  2
DASHDOT
 70
0
  3
Dash dot __ . __ . __ . __ . __ . __ . __ . __
 72
65
 73
4
 40
25.3999999999999986
 49
12.6999999999999993
 74
0
 49
-6.3499999999999996
 74
0
 49
0.0
 74
0
 49
-6.3499999999999996
 74
0
  0
LTYPE
  5
37
100
AcDbSymbolTableRecord
100
AcDbLinetypeTableRecord
  2
BORDER
 70
0
  3
Border __ __ . __ __ . __ __ . __ __ . __ __ .
 72
65
 73
6
 40
44.4500000000000028
 49
12.6999999999999993
 74
0
 49
-6.3499999999999996
 74
0
 49
12.6999999999999993
 74
0
 49
-6.3499999999999996
 74
0
 49
0.0
 74
0
 49
-6.3499999999999996
 74
0
  0
LTYPE
  5
38
100
AcDbSymbolTableRecord
100
AcDbLinetypeTableRecord
  2
DASHDOTX2
 70
0
  3
Dash dot (2x) ____  .  ____  .  ____  .  ___
 72
65
 73
4
 40
50.7999999999999972
 49
25.3999999999999986
 74
0
 49
-12.6999999999999993
 74
0
 49
0.0
 74
0
 49
-12.6999999999999993
 74
0
  0
LTYPE
  5
39
100
AcDbSymbolTableRecord
100
AcDbLinetypeTableRecord
  2
CENTERX2
 70
0
  3
Center (2x) ________  __  ________  __  _____
 72
65
 73
4
 40
101.5999999999999943
 49
63.5
 74
0
 49
-12.6999999999999993
 74
0
 49
12.6999999999999993
 74
0
 49
-12.6999999999999993
 74
0
  0
LTYPE
  5
3A
100
AcDbSymbolTableRecord
100
AcDbLinetypeTableRecord
  2
BORDER2
 70
0
  3
Border (.5x) __.__.__.__.__.__.__.__.__.__.__.
 72
65
 73
6
 40
22.2250000000000014
 49
6.3499999999999996
 74
0
 49
-3.1749999999999998
 74
0
 49
6.3499999999999996
 74
0
 49
-3.1749999999999998
 74
0
 49
0.0
 74
0
 49
-3.1749999999999998
 74
0
  0
LTYPE
  5
3B
100
AcDbSymbolTableRecord
100
AcDbLinetypeTableRecord
  2
BORDERX2
 70
0
  3
Border (2x) ____  ____  .  ____  ____  .  ___
 72
65
 73
6
 40
88.9000000000000057
 49
25.3999999999999986
 74
0
 49
-12.6999999999999993
 74
0
 49
25.3999999999999986
 74
0
 49
-12.6999999999999993
 74
0
 49
0.0
 74
0
 49
-12.6999999999999993
 74
0
  0
LTYPE
  5
14
100
AcDbSymbolTableRecord
100
AcDbLinetypeTableRecord
  2
BYBLOCK
 70
0
  3

 72
65
 73
0
 40
0.0
  0
LTYPE
  5
15
100
AcDbSymbolTableRecord
100
AcDbLinetypeTableRecord
  2
BYLAYER
 70
0
  3

 72
65
 73
0
 40
0.0
  0
LTYPE
  5
3C
100
AcDbSymbolTableRecord
100
AcDbLinetypeTableRecord
  2
DASHED2
 70
0
  3
Dashed (.5x) _ _ _ _ _ _ _ _ _ _ _ _ _ _ _ _ _
 72
65
 73
2
 40
9.5250000000000004
 49
6.3499999999999996
 74
0
 49
-3.1749999999999998
 74
0
  0
LTYPE
  5
3D
100
AcDbSymbolTableRecord
100
AcDbLinetypeTableRecord
  2
CENTER
 70
0
  3
Center ____ _ ____ _ ____ _ ____ _ ____ _ ____
 72
65
 73
4
 40
50.7999999999999972
 49
31.75
 74
0
 49
-6.3499999999999996
 74
0
 49
6.3499999999999996
 74
0
 49
-6.3499999999999996
 74
0
  0
LTYPE
  5
3E
100
AcDbSymbolTableRecord
100
AcDbLinetypeTableRecord
  2
DIVIDE2
 70
0
  3
Divide (.5x) __..__..__..__..__..__..__..__.._
 72
65
 73
6
 40
15.875
 49
6.3499999999999996
 74
0
 49
-3.1749999999999998
 74
0
 49
0.0
 74
0
 49
-3.1749999999999998
 74
0
 49
0.0
 74
0
 49
-3.1749999999999998
 74
0
  0
LTYPE
  5
3F
100
AcDbSymbolTableRecord
100
AcDbLinetypeTableRecord
  2
DASHED
 70
0
  3
Dashed __ __ __ __ __ __ __ __ __ __ __ __ __ _
 72
65
 73
2
 40
19.0500000000000007
 49
12.6999999999999993
 74
0
 49
-6.3499999999999996
 74
0
  0
LTYPE
  5
40
100
AcDbSymbolTableRecord
100
AcDbLinetypeTableRecord
  2
DOTX2
 70
0
  3
Dot (2x) .  .  .  .  .  .  .  .  .  .  .  .  .
 72
65
 73
2
 40
12.6999999999999993
 49
0.0
 74
0
 49
-12.6999999999999993
 74
0
  0
LTYPE
  5
41
100
AcDbSymbolTableRecord
100
AcDbLinetypeTableRecord
  2
DASHEDX2
 70
0
  3
Dashed (2x) ____  ____  ____  ____  ____  ___
 72
65
 73
2
 40
38.1000000000000014
 49
25.3999999999999986
 74
0
 49
-12.6999999999999993
 74
0
  0
LTYPE
  5
42
100
AcDbSymbolTableRecord
100
AcDbLinetypeTableRecord
  2
DOT
 70
0
  3
Dot . . . . . . . . . . . . . . . . . . . . . .
 72
65
 73
2
 40
6.3499999999999996
 49
0.0
 74
0
 49
-6.3499999999999996
 74
0
  0
ENDTAB
  0
TABLE
  2
LAYER
  5
2
100
AcDbSymbolTable
 70
5
  0
LAYER
  5
43
100
AcDbSymbolTableRecord
100
AcDbLayerTableRecord
  2
fretboard_inlay
 70
1
 62
-4
420
65535
  6
CONTINUOUS
370
25
390
F
  0
LAYER
  5
44
100
AcDbSymbolTableRecord
100
AcDbLayerTableRecord
  2
dimensions
 70
0
 62
94
420
32768
  6
CONTINUOUS
370
25
390
F
  0
LAYER
  5
10
100
AcDbSymbolTableRecord
100
AcDbLayerTableRecord
  2
0
 70
0
 62
7
420
0
  6
CONTINUOUS
370
25
390
F
  0
LAYER
  5
45
100
AcDbSymbolTableRecord
100
AcDbLayerTableRecord
  2
strings
 70
0
 62
5
420
255
  6
CONTINUOUS
370
25
390
F
  0
LAYER
  5
46
100
AcDbSymbolTableRecord
100
AcDbLayerTableRecord
  2
sound_hole
 70
0
 62
1
420
16711680
  6
CONTINUOUS
370
25
390
F
  0
ENDTAB
  0
TABLE
  2
STYLE
  5
3
100
AcDbSymbolTable
 70
5
  0
STYLE
  5
47
100
AcDbSymbolTableRecord
100
AcDbTextStyleTableRecord
  2
Standard
 70
0
 40
0.0
 41
1.0
 50
0.0
 71
0
 42
2.5
  3

  4

1001
ACAD
1000
txt
1071
0
  0
STYLE
  5
48
100
AcDbSymbolTableRecord
100
AcDbTextStyleTableRecord
  2
textstyle0
 70
0
 40
0.0
 41
1.0
 50
0.0
 71
0
 42
2.5
  3

  4

1001
ACAD
1000
Liberation Sans
1071
0
  0
STYLE
  5
49
100
AcDbSymbolTableRecord
100
AcDbTextStyleTableRecord
  2
textstyle1
 70
0
 40
0.0
 41
1.0
 50
0.0
 71
0
 42
2.5
  3

  4

1001
ACAD
1000
Liberation Sans
1071
0
  0
STYLE
  5
4A
100
AcDbSymbolTableRecord
100
AcDbTextStyleTableRecord
  2
textstyle2
 70
0
 40
0.0
 41
1.0
 50
0.0
 71
0
 42
2.5
  3

  4

1001
ACAD
1000
Liberation Sans
1071
0
  0
STYLE
  5
4B
100
AcDbSymbolTableRecord
100
AcDbTextStyleTableRecord
  2
textstyle3
 70
0
 40
0.0
 41
1.0
 50
0.0
 71
0
 42
2.5
  3

  4

1001
ACAD
1000
Liberation Sans
1071
0
  0
ENDTAB
  0
TABLE
  2
VIEW
  5
6
100
AcDbSymbolTable
 70
0
  0
ENDTAB
  0
TABLE
  2
UCS
  5
7
100
AcDbSymbolTable
 70
0
  0
ENDTAB
  0
TABLE
  2
APPID
  5
9
100
AcDbSymbolTable
 70
1
  0
APPID
  5
12
100
AcDbSymbolTableRecord
100
AcDbRegAppTableRecord
  2
ACAD
 70
0
  0
APPID
  5
4C
100
AcDbSymbolTableRecord
100
AcDbRegAppTableRecord
  2
QCAD
 70
0
  0
ENDTAB
  0
TABLE
  2
DIMSTYLE
  5
A
100
AcDbSymbolTable
 70
1
100
AcDbDimStyleTable
 71
0
  0
DIMSTYLE
105
27
100
AcDbSymbolTableRecord
100
AcDbDimStyleTableRecord
  2
Standard
 41
2.5
 42
0.625
 43
3.75
 44
1.25
 70
0
 73
0
 74
0
 77
1
 78
8
140
2.5
141
2.5
143
0.03937007874016
147
0.625
171
3
172
1
271
2
272
2
274
3
278
44
283
0
284
8
340
47
  0
ENDTAB
  0
TABLE
  2
BLOCK_RECORD
  5
1
100
AcDbSymbolTable
 70
1
  0
BLOCK_RECORD
  5
1F
100
AcDbSymbolTableRecord
100
AcDbBlockTableRecord
  2
*Model_Space
340
22
  0
BLOCK_RECORD
  5
1B
100
AcDbSymbolTableRecord
100
AcDbBlockTableRecord
  2
*Paper_Space
340
1E
  0
BLOCK_RECORD
  5
23
100
AcDbSymbolTableRecord
100
AcDbBlockTableRecord
  2
*Paper_Space0
340
26
  0
BLOCK_RECORD
  5
4D
100
AcDbSymbolTableRecord
100
AcDbBlockTableRecord
  2
tuner_top
340
0
  0
BLOCK_RECORD
  5
4E
100
AcDbSymbolTableRecord
100
AcDbBlockTableRecord
  2
tuner_side
340
0
  0
ENDTAB
  0
ENDSEC
  0
SECTION
  2
BLOCKS
  0
BLOCK
  5
20
100
AcDbEntity
  8
0
100
AcDbBlockBegin
  2
*Model_Space
 70
0
 10
0.0
 20
0.0
 30
0.0
  3
*Model_Space
  1

  0
ENDBLK
  5
21
100
AcDbEntity
  8
0
100
AcDbBlockEnd
  0
BLOCK
  5
1C
100
AcDbEntity
 67
1
  8
0
100
AcDbBlockBegin
  2
*Paper_Space
 70
0
 10
0.0
 20
0.0
 30
0.0
  3
*Paper_Space
  1

  0
ENDBLK
  5
1D
100
AcDbEntity
 67
1
  8
0
100
AcDbBlockEnd
  0
BLOCK
  5
24
100
AcDbEntity
  8
0
100
AcDbBlockBegin
  2
*Paper_Space0
 70
0
 10
0.0
 20
0.0
 30
0.0
  3
*Paper_Space0
  1

  0
ENDBLK
  5
25
100
AcDbEntity
  8
0
100
AcDbBlockEnd
  0
BLOCK
  5
4F
100
AcDbEntity
  8
0
100
AcDbBlockBegin
  2
tuner_top
 70
0
 10
0.0
 20
0.0
 30
0.0
  3
tuner_top
  1

  0
LINE
  5
50
100
AcDbEntity
100
AcDbLine
  8
0
 62
256
370
-1
  6
BYLAYER
 10
5.2689785037745764
 20
-32.0
 30
0.0
 11
5.2689785037745764
 21
-3.0
 31
0.0
  0
LINE
  5
51
100
AcDbEntity
100
AcDbLine
  8
0
 62
256
370
-1
  6
BYLAYER
 10
9.4079504589744829
 20
-32.0
 30
0.0
 11
9.4079504589744829
 21
-3.0
 31
0.0
  0
LINE
  5
52
100
AcDbEntity
100
AcDbLine
  8
0
 62
256
370
-1
  6
BYLAYER
 10
-4.941907283962089
 20
-11.4761983796896612
 30
0.0
 11
10.6144419021419534
 21
4.0801508064143865
 31
0.0
  0
LINE
  5
53
100
AcDbEntity
100
AcDbLine
  8
0
 62
256
370
-1
  6
BYLAYER
 10
10.6144419021419534
 20
4.0801508064143865
 30
0.0
 11
3.5433740902764788
 21
11.1512186182798612
 31
0.0
  0
LINE
  5
54
100
AcDbEntity
100
AcDbLine
  8
0
 62
256
370
-1
  6
BYLAYER
 10
3.5433740902764788
 20
11.1512186182798612
 30
0.0
 11
-12.0129750958275672
 21
-4.4051305678241848
 31
0.0
  0
LINE
  5
55
100
AcDbEntity
100
AcDbLine
  8
0
 62
256
370
-1
  6
BYLAYER
 10
-12.0129750958275672
 20
-4.4051305678241848
 30
0.0
 11
-4.941907283962089
 21
-11.4761983796896612
 31
0.0
  0
LINE
  5
56
100
AcDbEntity
100
AcDbLine
  8
0
 62
256
370
-1
  6
BYLAYER
 10
-11.7804649601165323
 20
-1.8648859884802889
 30
0.0
 11
18.2195350398834677
 21
-1.8648859884802889
 31
0.0
  0
CIRCLE
  5
57
100
AcDbEntity
100
AcDbCircle
  8
0
 62
256
370
-1
  6
BYLAYER
 10
0.0
 20
0.0
 30
0.0
 40
2.0
  0
LINE
  5
58
100
AcDbEntity
100
AcDbLine
  8
0
 62
256
370
-1
  6
BYLAYER
 10
18.2195350398834677
 20
-1.8648859884802889
 30
0.0
 11
18.2195350398834677
 21
-3.0
 31
0.0
  0
LINE
  5
59
100
AcDbEntity
100
AcDbLine
  8
0
 62
256
370
-1
  6
BYLAYER
 10
18.2195350398834677
 20
-3.0
 30
0.0
 11
-11.7804649601165323
 21
-3.0000000000000036
 31
0.0
  0
LINE
  5
5A
100
AcDbEntity
100
AcDbLine
  8
0
 62
256
370
-1
  6
BYLAYER
 10
-11.7804649601165323
 20
-1.8648859884802889
 30
0.0
 11
-11.7804649601165323
 21
-3.0000000000000036
 31
0.0
  0
CIRCLE
  5
5B
100
AcDbEntity
100
AcDbCircle
  8
0
 62
256
370
-1
  6
BYLAYER
 10
7.625
 20
-26.0
 30
0.0
 40
1.0
  0
LINE
  5
5C
100
AcDbEntity
100
AcDbLine
  8
0
 62
256
370
-1
  6
BYLAYER
 10
5.2689785037745764
 20
-32.0
 30
0.0
 11
9.4079504589744829
 21
-32.0
 31
0.0
  0
LINE
  5
5D
100
AcDbEntity
100
AcDbLine
  8
0
 62
256
370
-1
  6
BYLAYER
 10
12.0
 20
-2.0
 30
0.0
 11
12.0
 21
2.0
 31
0.0
  0
LINE
  5
5E
100
AcDbEntity
100
AcDbLine
  8
0
 62
256
370
-1
  6
BYLAYER
 10
12.0
 20
2.0
 30
0.0
 11
3.0
 21
2.0
 31
0.0
  0
LINE
  5
5F
100
AcDbEntity
100
AcDbLine
  8
0
 62
256
370
-1
  6
BYLAYER
 10
3.0
 20
2.0
 30
0.0
 11
2.9999999999999982
 21
-1.8648859884802889
 31
0.0
  0
ENDBLK
  5
60
100
AcDbEntity
  8
0
100
AcDbBlockEnd
  0
BLOCK
  5
61
100
AcDbEntity
  8
0
100
AcDbBlockBegin
  2
tuner_side
 70
0
 10
0.0
 20
0.0
 30
0.0
  3
tuner_side
  1

  0
LINE
  5
62
100
AcDbEntity
100
AcDbLine
  8
0
 62
256
370
-1
  6
BYLAYER
 10
4.0
 20
8.0
 30
0.0
 11
-19.0
 21
8.0
 31
0.0
  0
LINE
  5
63
100
AcDbEntity
100
AcDbLine
  8
0
 62
256
370
-1
  6
BYLAYER
 10
-19.0
 20
8.0
 30
0.0
 11
-19.0
 21
3.5
 31
0.0
  0
CIRCLE
  5
64
100
AcDbEntity
100
AcDbCircle
  8
0
 62
256
370
-1
  6
BYLAYER
 10
0.0
 20
0.0
 30
0.0
 40
2.0
  0
LINE
  5
65
100
AcDbEntity
100
AcDbLine
  8
0
 62
256
370
-1
  6
BYLAYER
 10
-19.0
 20
-27.0
 30
0.0
 11
3.0
 21
-27.0
 31
0.0
  0
LINE
  5
66
100
AcDbEntity
100
AcDbLine
  8
0
 62
256
370
-1
  6
BYLAYER
 10
3.0
 20
-27.0
 30
0.0
 11
3.0
 21
-17.0
 31
0.0
  0
LINE
  5
67
100
AcDbEntity
100
AcDbLine
  8
0
 62
256
370
-1
  6
BYLAYER
 10
3.0
 20
-17.0
 30
0.0
 11
-19.0
 21
-17.0
 31
0.0
  0
LINE
  5
68
100
AcDbEntity
100
AcDbLine
  8
0
 62
256
370
-1
  6
BYLAYER
 10
-19.0
 20
-17.0
 30
0.0
 11
-19.0
 21
-27.0
 31
0.0
  0
LINE
  5
69
100
AcDbEntity
100
AcDbLine
  8
0
 62
256
370
-1
  6
BYLAYER
 10
-11.0
 20
-17.0
 30
0.0
 11
-11.0
 21
-7.5
 31
0.0
  0
LINE
  5
6A
100
AcDbEntity
100
AcDbLine
  8
0
 62
256
370
-1
  6
BYLAYER
 10
-7.0
 20
-17.0
 30
0.0
 11
-7.0
 21
-7.5
 31
0.0
  0
LINE
  5
6B
100
AcDbEntity
100
AcDbLine
  8
0
 62
256
370
-1
  6
BYLAYER
 10
11.0
 20
-3.0
 30
0.0
 11
4.0
 21
8.0
 31
0.0
  0
LINE
  5
6C
100
AcDbEntity
100
AcDbLine
  8
0
 62
256
370
-1
  6
BYLAYER
 10
-12.0
 20
-7.5
 30
0.0
 11
-19.0
 21
3.5
 31
0.0
  0
LINE
  5
6D
100
AcDbEntity
100
AcDbLine
  8
0
 62
256
370
-1
  6
BYLAYER
 10
-12.0
 20
-7.5
 30
0.0
 11
11.0
 21
-7.5
 31
0.0
  0
LINE
  5
6E
100
AcDbEntity
100
AcDbLine
  8
0
 62
256
370
-1
  6
BYLAYER
 10
11.0
 20
-7.5
 30
0.0
 11
11.0
 21
-3.0
 31
0.0
  0
ENDBLK
  5
6F
100
AcDbEntity
  8
0
100
AcDbBlockEnd
  0
ENDSEC
  0
SECTION
  2
ENTITIES
  0
LINE
  5
70
100
AcDbEntity
100
AcDbLine
  8
0
 62
256
370
-1
  6
BYLAYER
 10
0.0
 20
-17.5
 30
0.0
 11
700.0
 21
-17.5
 31
0.0
  0
LINE
  5
71
100
AcDbEntity
100
AcDbLine
  8
0
 62
256
370
-1
  6
BYLAYER
 10
700.0
 20
-17.5
 30
0.0
 11
700.0
 21
17.5
 31
0.0
  0
LINE
  5
72
100
AcDbEntity
100
AcDbLine
  8
0
 62
256
370
-1
  6
BYLAYER
 10
700.0
 20
17.5
 30
0.0
 11
0.0
 21
17.5
 31
0.0
  0
LINE
  5
73
100
AcDbEntity
100
AcDbLine
  8
0
 62
256
370
-1
  6
BYLAYER
 10
-5.0
 20
-17.5
 30
0.0
 11
0.0
 21
-17.5
 31
0.0
  0
LINE
  5
74
100
AcDbEntity
100
AcDbLine
  8
0
 62
256
370
-1
  6
BYLAYER
 10
0.0
 20
-17.5
 30
0.0
 11
0.0
 21
17.5
 31
0.0
  0
LINE
  5
75
100
AcDbEntity
100
AcDbLine
  8
0
 62
256
370
-1
  6
BYLAYER
 10
0.0
 20
17.5
 30
0.0
 11
-5.0
 21
17.5
 31
0.0
  0
LINE
  5
76
100
AcDbEntity
100
AcDbLine
  8
0
 62
256
370
-1
  6
BYLAYER
 10
-5.0
 20
17.5
 30
0.0
 11
-5.0
 21
-17.5
 31
0.0
  0
SPLINE
  5
77
  8
0
 62
256
370
-1
  6
BYLAYER
100
AcDbEntity
100
AcDbSpline
 70
8
 71
3
 72
14
 73
10
 74
0
 40
0.0
 40
0.0
 40
0.0
 40
0.0
 40
1.0
 40
2.0
 40
3.0
 40
4.0
 40
5.0
 40
6.0
 40
7.0
 40
7.0
 40
7.0
 40
7.0
 10
0.4999999999999999
 20
20.0
 30
0.0
 10
50.0
 20
20.0
 30
0.0
 10
200.0
 20
41.0
 30
0.0
 10
310.0
 20
70.0
 30
0.0
 10
409.8416716644231315
 20
90.1182725644845135
 30
0.0
 10
499.8416716644231315
 20
100.1182725644845135
 30
0.0
 10
609.8416716644231883
 20
90.1182725644845135
 30
0.0
 10
679.8416716644231883
 20
40.1182725644845135
 30
0.0
 10
699.3771082894863866
 20
20.5750991533617089
 30
0.0
 10
699.3771082894863866
 20
20.5750991533617089
 30
0.0
  0
LINE
  5
78
100
AcDbEntity
100
AcDbLine
  8
0
 62
256
370
-1
  6
BYLAYER
 10
700.0
 20
21.0
 30
0.0
 11
706.2469504755442813
 21
16.002439619564587
 31
0.0
  0
LINE
  5
79
100
AcDbEntity
100
AcDbLine
  8
0
 62
256
370
-1
  6
BYLAYER
 10
710.0
 20
8.1937515251342958
 30
0.0
 11
710.0
 21
0.0
 31
0.0
  0
LINE
  5
7A
100
AcDbEntity
100
AcDbLine
  8
0
 62
256
370
-1
  6
BYLAYER
 10
687.47524709983918
 20
28.2121250017046279
 30
0.0
 11
698.271168745963223
 21
18.9786284925315591
 31
0.0
  0
LINE
  5
7B
100
AcDbEntity
100
AcDbLine
  8
0
 62
256
370
-1
  6
BYLAYER
 10
700.0
 20
21.0
 30
0.0
 11
698.271168745963223
 21
18.9786284925316089
 31
0.0
  0
LINE
  5
7C
100
AcDbEntity
100
AcDbLine
  8
0
 62
256
370
-1
  6
BYLAYER
 10
684.2220153420671522
 20
26.2624702264748251
 30
0.0
 11
689.5272655203812064
 21
2.1487033855259732
 31
0.0
  0
ARC
  5
7D
100
AcDbEntity
  8
0
 62
256
370
-1
  6
BYLAYER
100
AcDbCircle
 10
686.1753005108125762
 20
26.6922109035799835
 30
0.0
 40
2.0
100
AcDbArc
 50
49.4604115753797089
 51
192.4079204665996201
  0
ARC
  5
7E
100
AcDbEntity
  8
0
 62
256
370
-1
  6
BYLAYER
100
AcDbCircle
 10
700.0
 20
8.1937515251342958
 30
0.0
 40
10.0
100
AcDbArc
 50
0.0
 51
51.3401917459097561
  0
LINE
  5
7F
100
AcDbEntity
100
AcDbLine
  8
0
 62
256
370
-1
  6
BYLAYER
 10
710.0
 20
-8.1937515251342958
 30
0.0
 11
710.0
 21
0.0
 31
0.0
  0
LINE
  5
80
100
AcDbEntity
100
AcDbLine
  8
0
 62
256
370
-1
  6
BYLAYER
 10
687.47524709983918
 20
-28.2121250017046243
 30
0.0
 11
698.271168745963223
 21
-18.9786284925315556
 31
0.0
  0
LINE
  5
81
100
AcDbEntity
100
AcDbLine
  8
0
 62
256
370
-1
  6
BYLAYER
 10
700.0
 20
-20.9999999999999964
 30
0.0
 11
698.271168745963223
 21
-18.978628492531616
 31
0.0
  0
LINE
  5
82
100
AcDbEntity
100
AcDbLine
  8
0
 62
256
370
-1
  6
BYLAYER
 10
684.2220153420671522
 20
-26.2624702264748215
 30
0.0
 11
689.5272655203812064
 21
-2.148703385525625
 31
0.0
  0
ARC
  5
83
100
AcDbEntity
  8
0
 62
256
370
-1
  6
BYLAYER
100
AcDbCircle
 10
686.1753005108125762
 20
-26.6922109035799764
 30
0.0
 40
2.0
100
AcDbArc
 50
167.5920795334004367
 51
310.5395884246202627
  0
ARC
  5
84
100
AcDbEntity
  8
0
 62
256
370
-1
  6
BYLAYER
100
AcDbCircle
 10
700.0
 20
-8.1937515251342958
 30
0.0
 40
10.0
100
AcDbArc
 50
308.659808254090251
 51
360.0
  0
LINE
  5
85
100
AcDbEntity
100
AcDbLine
  8
0
 62
256
370
-1
  6
BYLAYER
 10
700.0
 20
-20.9999999999999964
 30
0.0
 11
706.2469504755442813
 21
-16.002439619564587
 31
0.0
  0
ARC
  5
86
100
AcDbEntity
  8
0
 62
256
370
-1
  6
BYLAYER
100
AcDbCircle
 10
679.7608396766536316
 20
0.0000000000001918
 30
0.0
 40
10.0
100
AcDbArc
 50
347.5920795334006925
 51
12.4079204665992524
  0
LINE
  5
87
100
AcDbEntity
100
AcDbLine
  8
0
 62
256
370
-1
  6
BYLAYER
 10
20.0
 20
0.0
 30
0.0
 11
28.3297413670656404
 21
15.8265085974247164
 31
0.0
  0
LINE
  5
88
100
AcDbEntity
100
AcDbLine
  8
0
 62
256
370
-1
  6
BYLAYER
 10
26.4223007390709235
 20
18.7532621199359255
 30
0.0
 11
1.0
 21
17.0
 31
0.0
  0
LINE
  5
89
100
AcDbEntity
100
AcDbLine
  8
0
 62
256
370
-1
  6
BYLAYER
 10
1.0
 20
17.0
 30
0.0
 11
0.4999999999999999
 21
20.0
 31
0.0
  0
LINE
  5
8A
100
AcDbEntity
100
AcDbLine
  8
0
 62
256
370
-1
  6
BYLAYER
 10
0.4999999999999999
 20
20.0000000000000036
 30
0.0
 11
-8.0000000000000036
 21
20.0000000000000036
 31
0.0
  0
ARC
  5
8B
100
AcDbEntity
  8
0
 62
256
370
-1
  6
BYLAYER
100
AcDbCircle
 10
26.5599049223016799
 20
16.7580014630899576
 30
0.0
 40
2.0
100
AcDbArc
 50
332.2414593989400373
 51
93.9451862290375601
  0
LINE
  5
8C
100
AcDbEntity
100
AcDbLine
  8
0
 62
256
370
-1
  6
BYLAYER
 10
-162.0413514959782617
 20
16.6147228967275424
 30
0.0
 11
-162.3580485634608124
 21
16.0895280278700987
 31
0.0
  0
LINE
  5
8D
100
AcDbEntity
100
AcDbLine
  8
0
 62
256
370
-1
  6
BYLAYER
 10
-162.4225815942767497
 20
14.1394642178360463
 30
0.0
 11
-159.6380650453879468
 21
8.7444634043640264
 31
0.0
  0
LINE
  5
8E
100
AcDbEntity
100
AcDbLine
  8
0
 62
256
370
-1
  6
BYLAYER
 10
-158.9282843696676366
 20
6.5205549137193266
 30
0.0
 11
-158.0
 21
0.0
 31
0.0
  0
ARC
  5
8F
100
AcDbEntity
  8
0
 62
256
370
-1
  6
BYLAYER
100
AcDbCircle
 10
-160.6453402801670336
 20
15.0567500573765365
 30
0.0
 40
2.0
100
AcDbArc
 50
148.9096580377155306
 51
207.299572211332702
  0
ARC
  5
90
100
AcDbEntity
  8
0
 62
256
370
-1
  6
BYLAYER
100
AcDbCircle
 10
-156.0468725044499649
 20
12.9999999999999982
 30
0.0
 40
7.0
100
AcDbArc
 50
90.0
 51
148.9096580377153032
  0
ARC
  5
91
100
AcDbEntity
  8
0
 62
256
370
-1
  6
BYLAYER
100
AcDbCircle
 10
-165.8584096447719958
 20
5.5339629659722629
 30
0.0
 40
7.0
100
AcDbArc
 50
8.1023424154825836
 51
27.299572211332837
  0
LINE
  5
92
100
AcDbEntity
100
AcDbLine
  8
0
 62
256
370
-1
  6
BYLAYER
 10
26.4223007390709093
 20
-18.7532621199359433
 30
0.0
 11
0.9999999999999982
 21
-17.0
 31
0.0
  0
LINE
  5
93
100
AcDbEntity
100
AcDbLine
  8
0
 62
256
370
-1
  6
BYLAYER
 10
0.9999999999999982
 20
-17.0
 30
0.0
 11
0.4999999999999995
 21
-20.0
 31
0.0
  0
ARC
  5
94
100
AcDbEntity
  8
0
 62
256
370
-1
  6
BYLAYER
100
AcDbCircle
 10
26.5599049223016834
 20
-16.7580014630899541
 30
0.0
 40
2.0
100
AcDbArc
 50
266.0548137709624825
 51
27.7585406010599769
  0
LINE
  5
95
100
AcDbEntity
100
AcDbLine
  8
0
 62
256
370
-1
  6
BYLAYER
 10
-162.0413514959782617
 20
-16.6147228967274962
 30
0.0
 11
-162.3580485634608124
 21
-16.0895280278701378
 31
0.0
  0
LINE
  5
96
100
AcDbEntity
100
AcDbLine
  8
0
 62
256
370
-1
  6
BYLAYER
 10
-162.4225815942767497
 20
-14.1394642178360623
 30
0.0
 11
-159.6380650453879468
 21
-8.7444634043639535
 31
0.0
  0
LINE
  5
97
100
AcDbEntity
100
AcDbLine
  8
0
 62
256
370
-1
  6
BYLAYER
 10
-158.9282843696676366
 20
-6.5205549137194962
 30
0.0
 11
-158.0
 21
0.0000000000000193
 31
0.0
  0
ARC
  5
98
100
AcDbEntity
  8
0
 62
256
370
-1
  6
BYLAYER
100
AcDbCircle
 10
-160.6453402801670336
 20
-15.0567500573765702
 30
0.0
 40
2.0
100
AcDbArc
 50
152.7004277886673265
 51
211.0903419622844979
  0
ARC
  5
99
100
AcDbEntity
  8
0
 62
256
370
-1
  6
BYLAYER
100
AcDbCircle
 10
-156.0468725044499649
 20
-13.0000000000000586
 30
0.0
 40
7.0
100
AcDbArc
 50
211.0903419622846968
 51
270.0
  0
ARC
  5
9A
100
AcDbEntity
  8
0
 62
256
370
-1
  6
BYLAYER
100
AcDbCircle
 10
-165.8584096447719958
 20
-5.5339629659721172
 30
0.0
 40
7.0
100
AcDbArc
 50
332.7004277886671275
 51
351.8976575845174466
  0
SPLINE
  5
9B
  8
0
 62
256
370
-1
  6
BYLAYER
100
AcDbEntity
100
AcDbSpline
 70
8
 71
3
 72
14
 73
10
 74
0
 40
0.0
 40
0.0
 40
0.0
 40
0.0
 40
1.0
 40
2.0
 40
3.0
 40
4.0
 40
5.0
 40
6.0
 40
7.0
 40
7.0
 40
7.0
 40
7.0
 10
0.4999999999999995
 20
-20.0
 30
0.0
 10
49.9999999999999929
 20
-20.0000000000000107
 30
0.0
 10
200.0
 20
-41.0000000000000355
 30
0.0
 10
309.9999999999999432
 20
-70.0000000000001137
 30
0.0
 10
409.8416716644231315
 20
-90.1182725644844851
 30
0.0
 10
499.8416716644231315
 20
-100.1182725644846414
 30
0.0
 10
609.8416716644231883
 20
-90.1182725644849967
 30
0.0
 10
679.8416716644231883
 20
-40.1182725644843217
 30
0.0
 10
699.3771082894863866
 20
-20.5750991533631407
 30
0.0
 10
699.3771082894863866
 20
-20.5750991533631407
 30
0.0
  0
LINE
  5
9C
100
AcDbEntity
100
AcDbLine
  8
0
 62
256
370
-1
  6
BYLAYER
 10
20.0
 20
-0.0000000000000049
 30
0.0
 11
28.3297413670656368
 21
-15.8265085974247164
 31
0.0
  0
LINE
  5
9D
100
AcDbEntity
100
AcDbLine
  8
0
 62
256
370
-1
  6
BYLAYER
 10
0.0
 20
-322.5
 30
0.0
 11
700.0
 21
-322.5
 31
0.0
  0
LINE
  5
9E
100
AcDbEntity
100
AcDbLine
  8
0
 62
256
370
-1
  6
BYLAYER
 10
700.0
 20
-322.5
 30
0.0
 11
700.0
 21
-277.5
 31
0.0
  0
LINE
  5
9F
100
AcDbEntity
100
AcDbLine
  8
0
 62
256
370
-1
  6
BYLAYER
 10
700.0
 20
-277.5
 30
0.0
 11
0.0
 21
-277.5
 31
0.0
  0
LINE
  5
A0
100
AcDbEntity
100
AcDbLine
  8
0
 62
256
370
-1
  6
BYLAYER
 10
0.0
 20
-277.5
 30
0.0
 11
0.0
 21
-322.5
 31
0.0
  0
LINE
  5
A1
100
AcDbEntity
100
AcDbLine
  8
0
 62
256
370
-1
  6
BYLAYER
 10
710.0
 20
-280.0
 30
0.0
 11
700.0
 21
-277.5
 31
0.0
  0
LINE
  5
A2
100
AcDbEntity
100
AcDbLine
  8
0
 62
256
370
-1
  6
BYLAYER
 10
710.0
 20
-280.0
 30
0.0
 11
710.0
 21
-320.0
 31
0.0
  0
LINE
  5
A3
100
AcDbEntity
100
AcDbLine
  8
0
 62
256
370
-1
  6
BYLAYER
 10
710.0
 20
-320.0
 30
0.0
 11
700.0
 21
-322.5
 31
0.0
  0
LINE
  5
A4
100
AcDbEntity
100
AcDbLine
  8
0
 62
256
370
-1
  6
BYLAYER
 10
30.0
 20
-277.5
 30
0.0
 11
30.0
 21
-322.5
 31
0.0
  0
LINE
  5
A5
100
AcDbEntity
100
AcDbLine
  8
0
 62
256
370
-1
  6
BYLAYER
 10
-23.9999999999999574
 20
-277.5
 30
0.0
 11
0.0
 21
-277.5
 31
0.0
  0
LINE
  5
A6
100
AcDbEntity
100
AcDbLine
  8
0
 62
256
370
-1
  6
BYLAYER
 10
-0.0
 20
-322.5
 30
0.0
 11
-23.0
 21
-322.5
 31
0.0
  0
LINE
  5
A7
100
AcDbEntity
100
AcDbLine
  8
0
 62
256
370
-1
  6
BYLAYER
 10
0.0
 20
-277.5
 30
0.0
 11
700.0
 21
-277.5
 31
0.0
  0
LINE
  5
A8
100
AcDbEntity
100
AcDbLine
  8
0
 62
256
370
-1
  6
BYLAYER
 10
700.0
 20
-277.5
 30
0.0
 11
700.0
 21
-273.0
 31
0.0
  0
LINE
  5
A9
100
AcDbEntity
100
AcDbLine
  8
0
 62
256
370
-1
  6
BYLAYER
 10
0.0
 20
-254.5
 30
0.0
 11
0.0
 21
-277.5
 31
0.0
  0
LINE
  5
AA
100
AcDbEntity
100
AcDbLine
  8
0
 62
256
370
-1
  6
BYLAYER
 10
555.0
 20
-270.0
 30
0.0
 11
610.0
 21
-270.0
 31
0.0
  0
ARC
  5
AB
100
AcDbEntity
  8
0
 62
256
370
-1
  6
BYLAYER
100
AcDbCircle
 10
555.0
 20
-250.0
 30
0.0
 40
20.0
100
AcDbArc
 50
199.0314409251155041
 51
270.0
  0
ARC
  5
AC
100
AcDbEntity
  8
0
 62
256
370
-1
  6
BYLAYER
100
AcDbCircle
 10
610.0
 20
-250.0
 30
0.0
 40
20.0
100
AcDbArc
 50
270.0
 51
324.7655820154188291
  0
LINE
  5
AD
100
AcDbEntity
100
AcDbLine
  8
0
 62
256
370
-1
  6
BYLAYER
 10
533.2571850948411338
 20
-254.5
 30
0.0
 11
0.0
 21
-254.5
 31
0.0
  0
ARC
  5
AE
100
AcDbEntity
  8
0
 62
256
370
-1
  6
BYLAYER
100
AcDbCircle
 10
533.2571850948411338
 20
-257.5
 30
0.0
 40
3.0
100
AcDbArc
 50
19.03144092511506
 51
90.0
  0
CIRCLE
  5
AF
100
AcDbEntity
100
AcDbCircle
  8
0
 62
256
370
-1
  6
BYLAYER
 10
-141.319632204008542
 20
-284.0246654139624525
 30
0.0
 40
25.0
  0
SPLINE
  5
B0
  8
0
 62
256
370
-1
  6
BYLAYER
100
AcDbEntity
100
AcDbSpline
 70
8
 71
3
 72
18
 73
14
 74
0
 40
0.0
 40
0.0
 40
0.0
 40
0.0
 40
1.0
 40
2.0
 40
3.0
 40
4.0
 40
5.0
 40
6.0
 40
7.0
 40
8.0
 40
9.0
 40
10.0
 40
11.0
 40
11.0
 40
11.0
 40
11.0
 10
-22.9999999999999964
 20
-322.5
 30
0.0
 10
-23.0
 20
-321.0
 30
0.0
 10
-25.0
 20
-317.0
 30
0.0
 10
-36.635376121359613
 20
-307.1156636158625588
 30
0.0
 10
-47.7953761213596096
 20
-304.2356636158625633
 30
0.0
 10
-68.9153761213596141
 20
-305.9156636158625702
 30
0.0
 10
-91.5953761213596067
 20
-312.3956636158625884
 30
0.0
 10
-106.8353761213596016
 20
-317.1956636158625997
 30
0.0
 10
-124.9553761213597767
 20
-318.8756636158625497
 30
0.0
 10
-145.4753761213597727
 20
-315.9956636158625543
 30
0.0
 10
-156.1553761213597795
 20
-310.2356636158625633
 30
0.0
 10
-161.6753761213597613
 20
-302.1956636158625997
 30
0.0
 10
-166.0
 20
-293.0
 30
0.0
 10
-166.319632204008542
 20
-284.0246654139624525
 30
0.0
  0
INSERT
  5
B1
100
AcDbEntity
100
AcDbBlockReference
  8
0
 62
256
370
-1
  6
BYLAYER
  2
tuner_side
 10
-83.9261556396529187
 20
-292.0006286422801622
 30
0.0
 41
1.0
 42
-1.0
 43
1.0
 50
384.0
  0
INSERT
  5
B2
100
AcDbEntity
100
AcDbBlockReference
  8
0
 62
256
370
-1
  6
BYLAYER
  2
tuner_side
 10
-41.9995969981484762
 20
-279.8840658221529338
 30
0.0
 41
1.0
 42
-1.0
 43
1.0
 50
374.0000000000000568
  0
SPLINE
  5
B3
  8
0
 62
256
370
-1
  6
BYLAYER
100
AcDbEntity
100
AcDbSpline
 70
8
 71
3
 72
15
 73
11
 74
0
 40
0.0
 40
0.0
 40
0.0
 40
0.0
 40
1.0
 40
2.0
 40
3.0
 40
4.0
 40
5.0
 40
6.0
 40
7.0
 40
8.0
 40
8.0
 40
8.0
 40
8.0
 10
-120.5947752392363839
 20
-298.0060925152899358
 30
0.0
 10
-116.2161556396531381
 20
-298.7478553089468392
 30
0.0
 10
-110.3409556396531457
 20
-295.4646553089468739
 30
0.0
 10
-104.2301556396529065
 20
-289.4086286422801209
 30
0.0
 10
-92.1341556396529171
 20
-280.91262864228014
 30
0.0
 10
-72.2275956396528898
 20
-276.356468642280106
 30
0.0
 10
-50.6621556396529229
 20
-271.4086286422801209
 30
0.0
 10
-28.0541556396529188
 20
-267.6646286422801495
 30
0.0
 10
-12.531693108781301
 20
-269.3141994956700955
 30
0.0
 10
-10.0
 20
-260.0
 30
0.0
 10
-5.0
 20
-260.0
 30
0.0
  0
INSERT
  5
B4
100
AcDbEntity
100
AcDbBlockReference
  8
0
 62
256
370
-1
  6
BYLAYER
  2
tuner_side
 10
-65.0401443005539193
 20
-285.7470628771047245
 30
0.0
 41
1.0
 42
-1.0
 43
1.0
 50
374.0000000000000568
  0
INSERT
  5
B5
100
AcDbEntity
100
AcDbBlockReference
  8
0
 62
256
370
-1
  6
BYLAYER
  2
tuner_side
 10
-21.2861556396529465
 20
-277.888628642280139
 30
0.0
 41
1.0
 42
-1.0
 43
1.0
 50
364.0
  0
LINE
  5
B6
100
AcDbEntity
100
AcDbLine
  8
0
 62
256
370
-1
  6
BYLAYER
 10
-5.0
 20
-277.5000000000000568
 30
0.0
 11
0.0
 21
-277.5000000000000568
 31
0.0
  0
LINE
  5
B7
100
AcDbEntity
100
AcDbLine
  8
0
 62
256
370
-1
  6
BYLAYER
 10
0.0
 20
-277.5000000000000568
 30
0.0
 11
0.0
 21
-249.5000000000000568
 31
0.0
  0
LINE
  5
B8
100
AcDbEntity
100
AcDbLine
  8
0
 62
256
370
-1
  6
BYLAYER
 10
0.0
 20
-249.5000000000000568
 30
0.0
 11
-5.0
 21
-249.5000000000000568
 31
0.0
  0
LINE
  5
B9
100
AcDbEntity
100
AcDbLine
  8
0
 62
256
370
-1
  6
BYLAYER
 10
-5.0
 20
-249.5000000000000568
 30
0.0
 11
-5.0
 21
-277.5000000000000568
 31
0.0
  0
LINE
  5
BA
100
AcDbEntity
100
AcDbLine
  8
0
 62
256
370
-1
  6
BYLAYER
 10
0.0
 20
-259.0
 30
0.0
 11
537.1394289005082783
 21
-259.0
 31
0.0
  0
SPLINE
  5
BB
  8
sound_hole
 62
256
370
-1
  6
BYLAYER
100
AcDbEntity
100
AcDbSpline
 70
8
 71
3
 72
51
 73
47
 74
0
 40
0.0
 40
0.0
 40
0.0
 40
0.0
 40
1.0
 40
2.0
 40
3.0
 40
4.0
 40
5.0
 40
6.0
 40
7.0
 40
8.0
 40
9.0
 40
10.0
 40
11.0
 40
12.0
 40
13.0
 40
14.0
 40
15.0
 40
16.0
 40
17.0
 40
18.0
 40
19.0
 40
20.0
 40
21.0
 40
22.0
 40
23.0
 40
24.0
 40
25.0
 40
26.0
 40
27.0
 40
28.0
 40
29.0
 40
30.0
 40
31.0
 40
32.0
 40
33.0
 40
34.0
 40
35.0
 40
36.0
 40
37.0
 40
38.0
 40
39.0
 40
40.0
 40
41.0
 40
42.0
 40
43.0
 40
44.0
 40
44.0
 40
44.0
 40
44.0
 10
456.5931678522811126
 20
49.2258369336065158
 30
0.0
 10
453.1108800825045364
 20
42.678025580712287
 30
0.0
 10
446.6293629963398644
 20
38.5783645585332948
 30
0.0
 10
440.5827453963398739
 20
35.6670301585332936
 30
0.0
 10
434.3868285963399103
 20
35.4430813585332629
 30
0.0
 10
428.0416125963398599
 20
37.6079197585332707
 30
0.0
 10
425.3542269963400031
 20
41.0418013585330215
 30
0.0
 10
424.757030196339997
 20
45.0728797585330767
 30
0.0
 10
425.9514237963400092
 20
49.4025565585330781
 30
0.0
 10
427.9669629963399302
 20
52.6124893585330398
 30
0.0
 10
431.9980413963399997
 20
54.2547805585330991
 30
0.0
 10
435.8051709963399389
 20
53.9561821585331387
 30
0.0
 10
437.8207101963399737
 20
52.4631901585330667
 30
0.0
 10
438.6418557963399962
 20
50.7462493585330776
 30
0.0
 10
437.5221117963400275
 20
51.0448477585331233
 30
0.0
 10
435.4319229963399493
 20
51.1941469585329969
 30
0.0
 10
432.6698877963399354
 20
49.5518557585330939
 30
0.0
 10
432.4459389963400326
 20
47.7602653585330472
 30
0.0
 10
433.043135796339925
 20
44.998230158533147
 30
0.0
 10
435.2826237963399763
 20
43.7291869585331057
 30
0.0
 10
437.5221117963400275
 20
43.8038365585331491
 30
0.0
 10
440.9559933963399772
 20
44.7742813585331305
 30
0.0
 10
441.7024893963399563
 20
46.7151709585331503
 30
0.0
 10
442.1503869963399893
 20
49.701154958533067
 30
0.0
 10
441.5531901963399832
 20
54.5533789585330169
 30
0.0
 10
439.0833388615155854
 20
57.0654164253946945
 30
0.0
 10
436.3161706164913767
 20
58.2429348275326504
 30
0.0
 10
432.9013672502912868
 20
58.5961903481740336
 30
0.0
 10
429.133308363449828
 20
58.1251829873188512
 30
0.0
 10
425.7185049972497382
 20
56.358905384111921
 30
0.0
 10
422.7414909963399623
 20
53.9561821585331245
 30
0.0
 10
420.5766525963399545
 20
48.6560605585331416
 30
0.0
 10
419.7555069963399319
 20
42.9080413585330689
 30
0.0
 10
421.6565002846539869
 20
36.8476094755982189
 30
0.0
 10
424.6411823456286925
 20
33.576725025215012
 30
0.0
 10
430.2064509963399814
 20
30.9641053585330468
 30
0.0
 10
435.1333245963398895
 20
30.2922589585331394
 30
0.0
 10
439.9108989963399381
 20
30.0683101585331229
 30
0.0
 10
445.136370996339906
 20
31.7106013585331681
 30
0.0
 10
449.5240160806029621
 20
34.2275531181871884
 30
0.0
 10
453.1985277963399312
 20
37.5332701585331137
 30
0.0
 10
456.8751709104591328
 20
40.7450113717626223
 30
0.0
 10
458.8718973963399321
 20
42.9826909585331265
 30
0.0
 10
460.2078149903712756
 20
45.4982577278359628
 30
0.0
 10
458.2997990609810586
 20
47.4062736572261727
 30
0.0
 10
457.9761021963399799
 20
49.5518557585330512
 30
0.0
 10
456.6303069963398684
 20
49.2768557585331024
 30
0.0
  0
SPLINE
  5
BC
  8
sound_hole
 62
256
370
-1
  6
BYLAYER
100
AcDbEntity
100
AcDbSpline
 70
8
 71
3
 72
25
 73
21
 74
0
 40
0.0
 40
0.0
 40
0.0
 40
0.0
 40
1.0
 40
2.0
 40
3.0
 40
4.0
 40
5.0
 40
6.0
 40
7.0
 40
8.0
 40
9.0
 40
10.0
 40
11.0
 40
12.0
 40
13.0
 40
14.0
 40
15.0
 40
16.0
 40
17.0
 40
18.0
 40
18.0
 40
18.0
 40
18.0
 10
471.5931678522811126
 20
49.2258369336065016
 30
0.0
 10
469.1212445623599478
 20
48.6102888807654523
 30
0.0
 10
466.8817565623600103
 20
47.0550888807654246
 30
0.0
 10
463.5225245623599903
 20
43.8202728807654154
 30
0.0
 10
460.7231645623600116
 20
38.532592880765506
 30
0.0
 10
460.5365405623599599
 20
33.431536880765421
 30
0.0
 10
461.6562845623599287
 20
28.8281448807654215
 30
0.0
 10
463.3359005623599387
 20
25.8421608807653911
 30
0.0
 10
464.5800605623600177
 20
24.0381288807653988
 30
0.0
 10
464.5800605623600177
 20
24.0381288807653988
 30
0.0
 10
465.9915503189946548
 20
26.0416398946869521
 30
0.0
 10
468.6900299905607881
 20
28.1022970984283766
 30
0.0
 10
470.8008605623599578
 20
29.7612648807654665
 30
0.0
 10
472.9159325623600125
 20
32.747248880765369
 30
0.0
 10
473.9734685623599262
 20
35.1111528807654167
 30
0.0
 10
474.5333405623599674
 20
38.7814248807654849
 30
0.0
 10
474.2223005623599192
 20
41.6429928807654051
 30
0.0
 10
473.226972562359947
 20
44.9400168807654836
 30
0.0
 10
472.3560605623599713
 20
47.2417128807654763
 30
0.0
 10
471.547356562359937
 20
49.2945768807654758
 30
0.0
 10
471.547356562359937
 20
49.2945768807654758
 30
0.0
  0
SPLINE
  5
BD
  8
sound_hole
 62
256
370
-1
  6
BYLAYER
100
AcDbEntity
100
AcDbSpline
 70
8
 71
3
 72
27
 73
23
 74
0
 40
0.0
 40
0.0
 40
0.0
 40
0.0
 40
1.0
 40
2.0
 40
3.0
 40
4.0
 40
5.0
 40
6.0
 40
7.0
 40
8.0
 40
9.0
 40
10.0
 40
11.0
 40
12.0
 40
13.0
 40
14.0
 40
15.0
 40
16.0
 40
17.0
 40
18.0
 40
19.0
 40
20.0
 40
20.0
 40
20.0
 40
20.0
 10
465.6998045623599864
 20
52.9648488807654303
 30
0.0
 10
467.5660445623599344
 20
53.5869288807654272
 30
0.0
 10
470.6764445623599613
 20
54.8310888807653924
 30
0.0
 10
472.6671005623600195
 20
56.0130408807654163
 30
0.0
 10
474.8443805623600156
 20
57.9414888807654052
 30
0.0
 10
475.9019165623599292
 20
59.6211048807654151
 30
0.0
 10
477.2704925623600047
 20
62.4826728807653353
 30
0.0
 10
477.8925725623599874
 20
63.602416880765432
 30
0.0
 10
477.8925725623599874
 20
65.6552808807654174
 30
0.0
 10
478.2036125623599219
 20
70.569712880765465
 30
0.0
 10
478.51465256235997
 20
72.7469928807653474
 30
0.0
 10
480.0698525623599835
 20
74.9864808807653844
 30
0.0
 10
480.9407645623599592
 20
76.1684328807654083
 30
0.0
 10
478.7634845623599631
 20
76.2306408807654492
 30
0.0
 10
475.2176285623600052
 20
74.7376488807653914
 30
0.0
 10
471.2363165623600025
 20
72.3115368807654164
 30
0.0
 10
467.939292562359924
 20
69.9476328807653687
 30
0.0
 10
465.3265565623599969
 20
65.9041128807654104
 30
0.0
 10
464.7044765623600142
 20
62.1716328807654008
 30
0.0
 10
464.5178525623599626
 20
58.7501928807654394
 30
0.0
 10
464.5800605623600177
 20
54.4578408807653886
 30
0.0
 10
465.5753885623599899
 20
52.7160168807654514
 30
0.0
 10
465.5753885623599899
 20
52.7160168807654514
 30
0.0
  0
SPLINE
  5
BE
  8
sound_hole
 62
256
370
-1
  6
BYLAYER
100
AcDbEntity
100
AcDbSpline
 70
8
 71
3
 72
35
 73
31
 74
0
 40
0.0
 40
0.0
 40
0.0
 40
0.0
 40
1.0
 40
2.0
 40
3.0
 40
4.0
 40
5.0
 40
6.0
 40
7.0
 40
8.0
 40
9.0
 40
10.0
 40
11.0
 40
12.0
 40
13.0
 40
14.0
 40
15.0
 40
16.0
 40
17.0
 40
18.0
 40
19.0
 40
20.0
 40
21.0
 40
22.0
 40
23.0
 40
24.0
 40
25.0
 40
26.0
 40
27.0
 40
28.0
 40
28.0
 40
28.0
 40
28.0
 10
475.85022520862492
 20
52.7625500413649888
 30
0.0
 10
477.6999999999999886
 20
52.8999999999999986
 30
0.0
 10
479.896943631068666
 20
53.8217325391524355
 30
0.0
 10
481.7475436086248237
 20
54.8527388413649533
 30
0.0
 10
483.9123820086248315
 20
56.0471324413649654
 30
0.0
 10
486.5997676086249157
 20
56.3457308413649116
 30
0.0
 10
489.8097004086248489
 20
56.3457308413649116
 30
0.0
 10
492.7956844086248793
 20
56.3457308413649116
 30
0.0
 10
494.2886764086248377
 20
56.0471324413649654
 30
0.0
 10
494.9605228086248871
 20
55.6738844413649758
 30
0.0
 10
497.3656296889441819
 20
54.236977704899985
 30
0.0
 10
499.2872743035443364
 20
53.173940258525441
 30
0.0
 10
500.3503117499188875
 20
52.6833075909679565
 30
0.0
 10
501.6177794744423863
 20
51.7020422558529944
 30
0.0
 10
503.212335644004213
 20
51.3340677551848827
 30
0.0
 10
504.6024615354170351
 20
50.8025490319976143
 30
0.0
 10
506.456561208624862
 20
50.597711641364981
 30
0.0
 10
505.859364408624856
 20
50.0751644413649046
 30
0.0
 10
503.3959276086247883
 20
48.2089244413649567
 30
0.0
 10
500.9324908086248342
 20
46.4919836413649818
 30
0.0
 10
497.3493100086247978
 20
44.5510940413649905
 30
0.0
 10
495.4830700086248498
 20
43.5806492413649949
 30
0.0
 10
493.1689324086248689
 20
42.9834524413648751
 30
0.0
 10
488.5406572086249071
 20
43.0581020413649185
 30
0.0
 10
484.584228408624881
 20
43.282050841364935
 30
0.0
 10
480.8517484086248714
 20
45.2229404413649263
 30
0.0
 10
478.2390124086248306
 20
48.2089244413649567
 30
0.0
 10
477.1939180086249053
 20
51.2695580413649168
 30
0.0
 10
476.1488236086248662
 20
52.4639516413649432
 30
0.0
 10
475.85022520862492
 20
52.7625500413649888
 30
0.0
 10
475.85022520862492
 20
52.7625500413649888
 30
0.0
  0
SPLINE
  5
BF
  8
sound_hole
 62
256
370
-1
  6
BYLAYER
100
AcDbEntity
100
AcDbSpline
 70
8
 71
3
 72
76
 73
72
 74
0
 40
0.0
 40
0.0
 40
0.0
 40
0.0
 40
1.0
 40
2.0
 40
3.0
 40
4.0
 40
5.0
 40
6.0
 40
7.0
 40
8.0
 40
9.0
 40
10.0
 40
11.0
 40
12.0
 40
13.0
 40
14.0
 40
15.0
 40
16.0
 40
17.0
 40
18.0
 40
19.0
 40
20.0
 40
21.0
 40
22.0
 40
23.0
 40
24.0
 40
25.0
 40
26.0
 40
27.0
 40
28.0
 40
29.0
 40
30.0
 40
31.0
 40
32.0
 40
33.0
 40
34.0
 40
35.0
 40
36.0
 40
37.0
 40
38.0
 40
39.0
 40
40.0
 40
41.0
 40
42.0
 40
43.0
 40
44.0
 40
45.0
 40
46.0
 40
47.0
 40
48.0
 40
49.0
 40
50.0
 40
51.0
 40
52.0
 40
53.0
 40
54.0
 40
55.0
 40
56.0
 40
57.0
 40
58.0
 40
59.0
 40
60.0
 40
61.0
 40
62.0
 40
63.0
 40
64.0
 40
65.0
 40
66.0
 40
67.0
 40
68.0
 40
69.0
 40
69.0
 40
69.0
 40
69.0
 10
487.0067328621951219
 20
62.2032266299169123
 30
0.0
 10
487.6999999999999318
 20
61.6999999999999957
 30
0.0
 10
490.2999999999999545
 20
60.9999999999999929
 30
0.0
 10
492.6502426221952646
 20
60.9491133499169564
 30
0.0
 10
493.0085607021952683
 20
61.0386928699169999
 30
0.0
 10
495.8751053421952975
 20
62.5615447099170296
 30
0.0
 10
500.8736136224516713
 20
64.6248177885511552
 30
0.0
 10
505.9080115821952859
 20
66.1447255099169524
 30
0.0
 10
511.1036237421952819
 20
67.4884183099169377
 30
0.0
 10
519.6950677622247667
 20
67.422601512030937
 30
0.0
 10
524.358040634691065
 20
66.6595695874455458
 30
0.0
 10
530.1231707315585027
 20
65.7269750129522805
 30
0.0
 10
535.9730821533798917
 20
62.5052846647028346
 30
0.0
 10
539.6186791263990017
 20
58.9444690166376546
 30
0.0
 10
542.2772967021953718
 20
54.0514903099168436
 30
0.0
 10
543.0835123821952948
 20
48.9454576699168911
 30
0.0
 10
543.0835123821952948
 20
41.9582551099168626
 30
0.0
 10
541.3815015021953059
 20
34.9710525499168625
 30
0.0
 10
538.7836954221954784
 20
31.2087127099168811
 30
0.0
 10
535.0154263871628473
 20
28.5888198986880582
 30
0.0
 10
530.068213655958175
 20
28.5479338430582672
 30
0.0
 10
525.7946650221954314
 20
29.9545994299168115
 30
0.0
 10
522.7501196361495204
 20
31.9405486422335798
 30
0.0
 10
520.8072142726218772
 20
34.2955854465094916
 30
0.0
 10
520.0615757421953731
 20
37.8375971899168917
 30
0.0
 10
521.3156890221954427
 20
42.1374141499168218
 30
0.0
 10
523.471212827840418
 20
43.9753249739274494
 30
0.0
 10
526.1117705872643455
 20
44.7419385169860107
 30
0.0
 10
528.269645745503226
 20
44.4012213867377596
 30
0.0
 10
529.6041211723089646
 20
43.2654976192435896
 30
0.0
 10
530.2003761502433008
 20
40.59654676563229
 30
0.0
 10
528.2133120621954276
 20
40.8833008699168658
 30
0.0
 10
526.6904602221953837
 20
39.8083466299168407
 30
0.0
 10
526.959198782195358
 20
37.658438149916833
 30
0.0
 10
527.6758349421953653
 20
36.3147453499168478
 30
0.0
 10
529.3778458221953542
 20
35.5085296699167969
 30
0.0
 10
531.4496722944869589
 20
35.8265069421567759
 30
0.0
 10
532.7273615329179393
 20
36.4227619200912116
 30
0.0
 10
534.0618369597235642
 20
39.0349265853278098
 30
0.0
 10
533.4655819817891143
 20
41.9878083808126519
 30
0.0
 10
532.0743203666087311
 20
45.3381934949204535
 30
0.0
 10
530.4559139979295423
 20
46.984992957787
 30
0.0
 10
527.3894598256953259
 20
48.0923236310938194
 30
0.0
 10
524.8908675372081234
 20
47.9503581601570446
 30
0.0
 10
522.0799512126600348
 20
47.3541031822226088
 30
0.0
 10
518.8999246636763019
 20
45.2246211181710365
 30
0.0
 10
517.2531252008097908
 20
42.3001324168735451
 30
0.0
 10
516.5149047519386158
 20
38.8645680202036772
 30
0.0
 10
516.5965108382222297
 20
35.5000181895261235
 30
0.0
 10
518.0684088408945627
 20
31.4768303155547713
 30
0.0
 10
520.5624160469401431
 20
28.2564075668511627
 30
0.0
 10
524.830920254690227
 20
26.0485605628424963
 30
0.0
 10
529.7782824582762942
 20
24.8662786398581446
 30
0.0
 10
534.6437230782213419
 20
24.8253925842283536
 30
0.0
 10
538.3357978221954454
 20
25.8339415099168122
 30
0.0
 10
542.7138192801983223
 20
29.1018646664995906
 30
0.0
 10
544.6063642221954524
 20
32.0149283899169035
 30
0.0
 10
546.039636542195467
 20
35.1502115899169212
 30
0.0
 10
547.0794357223450106
 20
39.6991082520949021
 30
0.0
 10
547.672904997022556
 20
44.9555503992387386
 30
0.0
 10
547.8424676469304586
 20
51.3989310957376375
 30
0.0
 10
544.6063642221954524
 20
60.3220567099168505
 30
0.0
 10
541.2023424621954746
 20
64.0843965499168604
 30
0.0
 10
535.4692531821954162
 20
68.2946339899168464
 30
0.0
 10
530.4528000621953652
 20
69.9070653499168202
 30
0.0
 10
519.7032576621953694
 20
72.4152919099168457
 30
0.0
 10
509.1328743021950913
 20
71.6986557499168384
 30
0.0
 10
501.8769331821951027
 20
70.1758039099169082
 30
0.0
 10
495.6063667821950958
 20
67.5779978299168533
 30
0.0
 10
488.5295847021950522
 20
63.9948170299168027
 30
0.0
 10
487.0067328621951219
 20
62.2032266299169123
 30
0.0
 10
487.0067328621951219
 20
62.2032266299169123
 30
0.0
  0
SPLINE
  5
C0
  8
sound_hole
 62
256
370
-1
  6
BYLAYER
100
AcDbEntity
100
AcDbSpline
 70
8
 71
3
 72
34
 73
30
 74
0
 40
0.0
 40
0.0
 40
0.0
 40
0.0
 40
1.0
 40
2.0
 40
3.0
 40
4.0
 40
5.0
 40
6.0
 40
7.0
 40
8.0
 40
9.0
 40
10.0
 40
11.0
 40
12.0
 40
13.0
 40
14.0
 40
15.0
 40
16.0
 40
17.0
 40
18.0
 40
19.0
 40
20.0
 40
21.0
 40
22.0
 40
23.0
 40
24.0
 40
25.0
 40
26.0
 40
27.0
 40
27.0
 40
27.0
 40
27.0
 10
555.5007865658751598
 20
53.911950858726513
 30
0.0
 10
554.90358976587504
 20
52.8668564587264882
 30
0.0
 10
553.8244488982776375
 20
50.2212579568326021
 30
0.0
 10
553.4376088399449145
 20
47.5202120168122377
 30
0.0
 10
553.0
 20
44.0
 30
0.0
 10
553.3116143709163453
 20
41.1058767742327333
 30
0.0
 10
553.9898649705478419
 20
37.8841864259832874
 30
0.0
 10
555.6007101446725756
 20
34.3233707779181074
 30
0.0
 10
557.4658992936590494
 20
31.3560244045304586
 30
0.0
 10
559.9797625658750349
 20
28.680386058726512
 30
0.0
 10
561.8460025658750965
 20
27.4113428587264707
 30
0.0
 10
563.637592965875001
 20
26.2915988587264877
 30
0.0
 10
566.6235769658751451
 20
25.097205258726504
 30
0.0
 10
568.7137657658749959
 20
24.4253588587265398
 30
0.0
 10
571.4011513658749664
 20
23.9774612587265068
 30
0.0
 10
571.4011513658749664
 20
23.9774612587265068
 30
0.0
 10
569.5349113658751321
 20
25.6197524587265377
 30
0.0
 10
568.4151673658750497
 20
27.635291658726473
 30
0.0
 10
568.0419193658751738
 20
29.7254804587265653
 30
0.0
 10
567.9672697658750167
 20
32.9354132587264559
 30
0.0
 10
568.3405177658751199
 20
35.6227988587264548
 30
0.0
 10
567.6686713658750705
 20
38.6087828587264852
 30
0.0
 10
566.548927365874988
 20
41.7440660587264745
 30
0.0
 10
564.533388165875067
 20
44.6554004587264615
 30
0.0
 10
562.069951365875113
 20
46.8202388587264835
 30
0.0
 10
559.9797625658750349
 20
48.7611284587264748
 30
0.0
 10
557.6656249658751676
 20
50.6273684587264228
 30
0.0
 10
556.695180165875172
 20
51.5231636587265029
 30
0.0
 10
555.9486841658749654
 20
52.642907658726557
 30
0.0
 10
555.5007865658751598
 20
53.911950858726513
 30
0.0
  0
SPLINE
  5
C1
  8
sound_hole
 62
256
370
-1
  6
BYLAYER
100
AcDbEntity
100
AcDbSpline
 70
8
 71
3
 72
29
 73
25
 74
0
 40
0.0
 40
0.0
 40
0.0
 40
0.0
 40
1.0
 40
2.0
 40
3.0
 40
4.0
 40
5.0
 40
6.0
 40
7.0
 40
8.0
 40
9.0
 40
10.0
 40
11.0
 40
12.0
 40
13.0
 40
14.0
 40
15.0
 40
16.0
 40
17.0
 40
18.0
 40
19.0
 40
20.0
 40
21.0
 40
22.0
 40
22.0
 40
22.0
 40
22.0
 10
550.2753145658750782
 20
62.1234068587265114
 30
0.0
 10
552.7387513658750322
 20
62.1980564587264411
 30
0.0
 10
555.6986130109551141
 20
62.1764270288474705
 30
0.0
 10
558.3970926825212473
 20
61.78392089480149
 30
0.0
 10
561.62205376587508
 20
61.6755092587264642
 30
0.0
 10
564.9812857658751
 20
62.1980564587264126
 30
0.0
 10
568.6391161658750661
 20
62.8699028587264621
 30
0.0
 10
571.2518521658751069
 20
64.0642964587264743
 30
0.0
 10
574.3871353658751104
 20
66.2291348587265389
 30
0.0
 10
577.8210169658750601
 20
68.9911700587264249
 30
0.0
 10
578.642162565874969
 20
70.0362644587265351
 30
0.0
 10
579.9018011196531006
 20
72.6097023261510799
 30
0.0
 10
582.0213342435014283
 20
74.6703595298924938
 30
0.0
 10
582.0213342435014283
 20
74.6703595298924938
 30
0.0
 10
577.5467643153772315
 20
74.5526076896786947
 30
0.0
 10
573.7274615721463533
 20
74.4108693634954221
 30
0.0
 10
569.5025691570680237
 20
74.3086542244209483
 30
0.0
 10
564.5280990554435903
 20
73.5590765378747875
 30
0.0
 10
559.6217723798687302
 20
71.6851323215094141
 30
0.0
 10
556.5458809658750852
 20
69.364418058726514
 30
0.0
 10
554.0795252080154114
 20
67.3771333049567858
 30
0.0
 10
552.888050565875119
 20
64.9600916587264692
 30
0.0
 10
551.4697081658750903
 20
63.093851658726507
 30
0.0
 10
550.6485625658751815
 20
62.5713044587265301
 30
0.0
 10
550.2753145658750782
 20
62.1234068587265114
 30
0.0
  0
SPLINE
  5
C2
  8
sound_hole
 62
256
370
-1
  6
BYLAYER
100
AcDbEntity
100
AcDbSpline
 70
8
 71
3
 72
29
 73
25
 74
0
 40
0.0
 40
0.0
 40
0.0
 40
0.0
 40
1.0
 40
2.0
 40
3.0
 40
4.0
 40
5.0
 40
6.0
 40
7.0
 40
8.0
 40
9.0
 40
10.0
 40
11.0
 40
12.0
 40
13.0
 40
14.0
 40
15.0
 40
16.0
 40
17.0
 40
18.0
 40
19.0
 40
20.0
 40
21.0
 40
22.0
 40
22.0
 40
22.0
 40
22.0
 10
561.8460025658750965
 20
52.7922068587264448
 30
0.0
 10
562.8164473658750921
 20
52.045710858726423
 30
0.0
 10
566.6235769658751451
 20
50.0301716587265304
 30
0.0
 10
570.4307065658749707
 20
48.2385812587265406
 30
0.0
 10
577.0745209658750809
 20
45.9244436587265454
 30
0.0
 10
581.8520953658751296
 20
45.2525972587264533
 30
0.0
 10
586.1071225658749881
 20
45.924443658726517
 30
0.0
 10
590.5114489658751609
 20
48.0146324587265099
 30
0.0
 10
593.2734841658750611
 20
49.0597268587265205
 30
0.0
 10
595.9608697658750316
 20
49.9555220587265154
 30
0.0
 10
598.2750073658751262
 20
51.2245652587265141
 30
0.0
 10
600.2158969658751175
 20
52.1203604587264522
 30
0.0
 10
600.7384441658750802
 20
52.8668564587264171
 30
0.0
 10
598.4989561658751427
 20
53.837301258726427
 30
0.0
 10
596.1682719666733874
 20
54.6887445121058562
 30
0.0
 10
592.6945926803664406
 20
55.7485110740300129
 30
0.0
 10
589.8096725951284043
 20
57.16153315659556
 30
0.0
 10
586.5550201658750211
 20
58.4655764587265736
 30
0.0
 10
582.6732409658750385
 20
59.4360212587265266
 30
0.0
 10
579.2393593658750888
 20
59.4360212587265266
 30
0.0
 10
572.819493765874995
 20
59.0627732587264376
 30
0.0
 10
567.8179705658751573
 20
58.0923284587264419
 30
0.0
 10
564.4587385658751373
 20
56.0767892587265067
 30
0.0
 10
562.7417977658751624
 20
53.9866004587264428
 30
0.0
 10
561.9953017658751833
 20
52.8668564587264882
 30
0.0
  0
MTEXT
  5
C3
100
AcDbEntity
100
AcDbMText
  8
0
 62
256
370
-1
  6
BYLAYER
 10
199.9425466972543859
 20
-255.3917243653754667
 30
0.0
 40
2.5
 41
0.0
 71
1
 72
1
  1
Walnut or Wenge fretboard
  7
textstyle0
 50
0.0
 73
2
 44
1.0
  0
LINE
  5
C4
100
AcDbEntity
100
AcDbLine
  8
0
 62
256
370
-1
  6
BYLAYER
 10
538.2190000000000509
 20
-17.5
 30
0.0
 11
538.2190000000000509
 21
17.5
 31
0.0
  0
LINE
  5
C5
100
AcDbEntity
100
AcDbLine
  8
0
 62
256
370
-1
  6
BYLAYER
 10
631.2367605815952629
 20
-259.0
 30
0.0
 11
686.0
 21
-259.0
 31
0.0
  0
LINE
  5
C6
100
AcDbEntity
100
AcDbLine
  8
0
 62
256
370
-1
  6
BYLAYER
 10
627.5121303972892974
 20
-17.5
 30
0.0
 11
627.5121303972892974
 21
17.5
 31
0.0
  0
LINE
  5
C7
100
AcDbEntity
100
AcDbLine
  8
0
 62
256
370
-1
  6
BYLAYER
 10
538.2190000000000509
 20
3.0
 30
0.0
 11
627.5121303972892974
 21
3.0
 31
0.0
  0
LINE
  5
C8
100
AcDbEntity
100
AcDbLine
  8
0
 62
256
370
-1
  6
BYLAYER
 10
538.2190000000000509
 20
-2.9999999999999667
 30
0.0
 11
627.5121303972892974
 21
-3.0000000000000293
 31
0.0
  0
MTEXT
  5
C9
100
AcDbEntity
100
AcDbMText
  8
0
 62
256
370
-1
  6
BYLAYER
 10
569.4345877476291662
 20
1.3516051108489506
 30
0.0
 40
2.5
 41
0.0
 71
1
 72
1
  1
Cherry skunk stripe
  7
textstyle1
 50
0.0
 73
2
 44
1.0
  0
MTEXT
  5
CA
100
AcDbEntity
100
AcDbMText
  8
0
 62
256
370
-1
  6
BYLAYER
 10
572.5712897427249573
 20
-8.4521938920343231
 30
0.0
 40
2.5
 41
0.0
 71
1
 72
1
  1
Maple outsides
  7
textstyle2
 50
0.0
 73
2
 44
1.0
  0
LINE
  5
CB
100
AcDbEntity
100
AcDbLine
  8
0
 62
256
370
-1
  6
BYLAYER
 10
661.0
 20
-252.9999999999999716
 30
0.0
 11
663.0
 21
-252.9999999999999716
 31
0.0
  0
LINE
  5
CC
100
AcDbEntity
100
AcDbLine
  8
0
 62
256
370
-1
  6
BYLAYER
 10
660.0
 20
-247.9999999999999716
 30
0.0
 11
660.0
 21
-252.9999999999999716
 31
0.0
  0
LINE
  5
CD
100
AcDbEntity
100
AcDbLine
  8
0
 62
256
370
-1
  6
BYLAYER
 10
660.0
 20
-252.9999999999999716
 30
0.0
 11
663.0
 21
-252.9999999999999716
 31
0.0
  0
LINE
  5
CE
100
AcDbEntity
100
AcDbLine
  8
0
 62
256
370
-1
  6
BYLAYER
 10
663.0
 20
-252.9999999999999716
 30
0.0
 11
663.0
 21
-247.9999999999999716
 31
0.0
  0
LINE
  5
CF
100
AcDbEntity
100
AcDbLine
  8
0
 62
256
370
-1
  6
BYLAYER
 10
663.0
 20
-247.9999999999999716
 30
0.0
 11
660.0
 21
-247.9999999999999716
 31
0.0
  0
LINE
  5
D0
100
AcDbEntity
100
AcDbLine
  8
0
 62
256
370
-1
  6
BYLAYER
 10
72.007000000000005
 20
-17.5
 30
0.0
 11
72.007000000000005
 21
17.5
 31
0.0
  0
LINE
  5
D1
100
AcDbEntity
100
AcDbLine
  8
0
 62
256
370
-1
  6
BYLAYER
 10
136.157999999999987
 20
-17.5
 30
0.0
 11
136.157999999999987
 21
17.5
 31
0.0
  0
LINE
  5
D2
100
AcDbEntity
100
AcDbLine
  8
0
 62
256
370
-1
  6
BYLAYER
 10
165.5589999999999975
 20
-17.5
 30
0.0
 11
165.5589999999999975
 21
17.5
 31
0.0
  0
LINE
  5
D3
100
AcDbEntity
100
AcDbLine
  8
0
 62
256
370
-1
  6
BYLAYER
 10
219.5029999999999859
 20
-17.5
 30
0.0
 11
219.5029999999999859
 21
17.5
 31
0.0
  0
LINE
  5
D4
100
AcDbEntity
100
AcDbLine
  8
0
 62
256
370
-1
  6
BYLAYER
 10
267.5620000000000118
 20
-17.5
 30
0.0
 11
267.5620000000000118
 21
17.5
 31
0.0
  0
LINE
  5
D5
100
AcDbEntity
100
AcDbLine
  8
0
 62
256
370
-1
  6
BYLAYER
 10
289.5579999999999927
 20
-17.5
 30
0.0
 11
289.5579999999999927
 21
17.5
 31
0.0
  0
LINE
  5
D6
100
AcDbEntity
100
AcDbLine
  8
0
 62
256
370
-1
  6
BYLAYER
 10
310.3770000000000095
 20
-17.5
 30
0.0
 11
310.3770000000000095
 21
17.5
 31
0.0
  0
LINE
  5
D7
100
AcDbEntity
100
AcDbLine
  8
0
 62
256
370
-1
  6
BYLAYER
 10
330.0
 20
-17.5
 30
0.0
 11
330.0
 21
17.5
 31
0.0
  0
LINE
  5
D8
100
AcDbEntity
100
AcDbLine
  8
0
 62
256
370
-1
  6
BYLAYER
 10
366.0029999999999859
 20
-17.5
 30
0.0
 11
366.0029999999999859
 21
17.5
 31
0.0
  0
LINE
  5
D9
100
AcDbEntity
100
AcDbLine
  8
0
 62
256
370
-1
  6
BYLAYER
 10
398.0790000000000077
 20
-17.5
 30
0.0
 11
398.0790000000000077
 21
17.5
 31
0.0
  0
LINE
  5
DA
100
AcDbEntity
100
AcDbLine
  8
0
 62
256
370
-1
  6
BYLAYER
 10
412.7789999999999964
 20
-17.5
 30
0.0
 11
412.7789999999999964
 21
17.5
 31
0.0
  0
LINE
  5
DB
100
AcDbEntity
100
AcDbLine
  8
0
 62
256
370
-1
  6
BYLAYER
 10
439.7509999999999764
 20
-17.5
 30
0.0
 11
439.7509999999999764
 21
17.5
 31
0.0
  0
LINE
  5
DC
100
AcDbEntity
100
AcDbLine
  8
0
 62
256
370
-1
  6
BYLAYER
 10
463.7810000000000059
 20
-17.5
 30
0.0
 11
463.7810000000000059
 21
17.5
 31
0.0
  0
LINE
  5
DD
100
AcDbEntity
100
AcDbLine
  8
0
 62
256
370
-1
  6
BYLAYER
 10
474.7939999999999827
 20
-17.5
 30
0.0
 11
474.7939999999999827
 21
17.5
 31
0.0
  0
LINE
  5
DE
100
AcDbEntity
100
AcDbLine
  8
0
 62
256
370
-1
  6
BYLAYER
 10
485.1890000000000214
 20
-17.5
 30
0.0
 11
485.1890000000000214
 21
17.5
 31
0.0
  0
LINE
  5
DF
100
AcDbEntity
100
AcDbLine
  8
0
 62
256
370
-1
  6
BYLAYER
 10
495.0
 20
-17.5
 30
0.0
 11
495.0
 21
17.5
 31
0.0
  0
MTEXT
  5
E0
100
AcDbEntity
100
AcDbMText
  8
0
 62
256
370
-1
  6
BYLAYER
 10
636.5293425220082781
 20
-261.951056603717916
 30
0.0
 40
2.5
 41
0.0
 71
1
 72
1
  1
660mm scale length (26")
  7
textstyle3
 50
0.0
 73
2
 44
1.0
  0
LINE
  5
E1
100
AcDbEntity
100
AcDbLine
  8
0
 62
256
370
-1
  6
BYLAYER
 10
-20.0
 20
10.0
 30
0.0
 11
-101.0
 21
10.0
 31
0.0
  0
LINE
  5
E2
100
AcDbEntity
100
AcDbLine
  8
0
 62
256
370
-1
  6
BYLAYER
 10
-107.0
 20
0.0
 30
0.0
 11
-107.0
 21
0.0
 31
0.0
  0
LINE
  5
E3
100
AcDbEntity
100
AcDbLine
  8
0
 62
256
370
-1
  6
BYLAYER
 10
-14.0
 20
0.0
 30
0.0
 11
-14.0
 21
0.0
 31
0.0
  0
LINE
  5
E4
100
AcDbEntity
100
AcDbLine
  8
0
 62
256
370
-1
  6
BYLAYER
 10
-107.0
 20
0.0000000000000107
 30
0.0
 11
-107.0
 21
0.0000000000000107
 31
0.0
  0
LINE
  5
E5
100
AcDbEntity
100
AcDbLine
  8
0
 62
256
370
-1
  6
BYLAYER
 10
-14.0
 20
-0.0000000000000015
 30
0.0
 11
-14.0
 21
-0.0000000000000015
 31
0.0
  0
LINE
  5
E6
100
AcDbEntity
100
AcDbLine
  8
0
 62
256
370
-1
  6
BYLAYER
 10
-10.0
 20
22.0
 30
0.0
 11
-108.0
 21
22.0
 31
0.0
  0
LINE
  5
E7
100
AcDbEntity
100
AcDbLine
  8
0
 62
256
370
-1
  6
BYLAYER
 10
-110.0
 20
20.0000000000000036
 30
0.0
 11
-156.0468725044499649
 21
20.0
 31
0.0
  0
INSERT
  5
E8
100
AcDbEntity
100
AcDbBlockReference
  8
0
 62
256
370
-1
  6
BYLAYER
  2
tuner_top
 10
-91.0
 20
25.0
 30
0.0
  0
INSERT
  5
E9
100
AcDbEntity
100
AcDbBlockReference
  8
0
 62
256
370
-1
  6
BYLAYER
  2
tuner_top
 10
-49.7217571840000119
 20
25.0
 30
0.0
  0
INSERT
  5
EA
100
AcDbEntity
100
AcDbBlockReference
  8
0
 62
256
370
-1
  6
BYLAYER
  2
tuner_top
 10
-72.9407687679999981
 20
-25.0000000000000071
 30
0.0
 41
1.0
 42
-1.0
 43
1.0
  0
INSERT
  5
EB
100
AcDbEntity
100
AcDbBlockReference
  8
0
 62
256
370
-1
  6
BYLAYER
  2
tuner_top
 10
-29.0826357760000178
 20
-25.0000000000000284
 30
0.0
 41
1.0
 42
-1.0
 43
1.0
  0
LINE
  5
EC
100
AcDbEntity
100
AcDbLine
  8
0
 62
256
370
-1
  6
BYLAYER
 10
513.0019999999999527
 20
-17.5
 30
0.0
 11
513.0019999999999527
 21
17.5
 31
0.0
  0
LINE
  5
ED
100
AcDbEntity
100
AcDbLine
  8
0
 62
256
370
-1
  6
BYLAYER
 10
529.0389999999999873
 20
-17.5
 30
0.0
 11
529.0389999999999873
 21
17.5
 31
0.0
  0
LINE
  5
EE
100
AcDbEntity
100
AcDbLine
  8
0
 62
256
370
-1
  6
BYLAYER
 10
0.5
 20
-19.9999999999999716
 30
0.0
 11
-8.0
 21
-19.9999999999999964
 31
0.0
  0
ARC
  5
EF
100
AcDbEntity
  8
0
 62
256
370
-1
  6
BYLAYER
100
AcDbCircle
 10
631.2367605815952629
 20
-265.0
 30
0.0
 40
6.0
100
AcDbArc
 50
90.0
 51
144.7655820154185164
  0
ARC
  5
F0
100
AcDbEntity
  8
0
 62
256
370
-1
  6
BYLAYER
100
AcDbCircle
 10
686.0
 20
-273.0
 30
0.0
 40
14.0
100
AcDbArc
 50
0.0
 51
90.0
  0
LINE
  5
F1
100
AcDbEntity
100
AcDbLine
  8
0
 62
256
370
-1
  6
BYLAYER
 10
660.0
 20
-251.0
 30
0.0
 11
659.8284271247462129
 21
-251.0
 31
0.0
  0
LINE
  5
F2
100
AcDbEntity
100
AcDbLine
  8
0
 62
256
370
-1
  6
BYLAYER
 10
658.4142135623731065
 20
-251.5857864376268935
 30
0.0
 11
653.8786796564403403
 21
-256.1213203435596597
 31
0.0
  0
LINE
  5
F3
100
AcDbEntity
100
AcDbLine
  8
0
 62
256
370
-1
  6
BYLAYER
 10
653.0
 20
-258.2426406871193194
 30
0.0
 11
653.0
 21
-259.0
 31
0.0
  0
LINE
  5
F4
100
AcDbEntity
100
AcDbLine
  8
0
 62
256
370
-1
  6
BYLAYER
 10
663.0
 20
-251.0
 30
0.0
 11
663.1715728752537871
 21
-251.0
 31
0.0
  0
LINE
  5
F5
100
AcDbEntity
100
AcDbLine
  8
0
 62
256
370
-1
  6
BYLAYER
 10
664.5857864376268935
 20
-251.5857864376268651
 30
0.0
 11
669.1213203435596597
 21
-256.1213203435596597
 31
0.0
  0
LINE
  5
F6
100
AcDbEntity
100
AcDbLine
  8
0
 62
256
370
-1
  6
BYLAYER
 10
670.0
 20
-258.2426406871193194
 30
0.0
 11
670.0
 21
-259.0
 31
0.0
  0
ARC
  5
F7
100
AcDbEntity
  8
0
 62
256
370
-1
  6
BYLAYER
100
AcDbCircle
 10
656.0
 20
-258.2426406871193194
 30
0.0
 40
3.0
100
AcDbArc
 50
135.0
 51
180.0
  0
ARC
  5
F8
100
AcDbEntity
  8
0
 62
256
370
-1
  6
BYLAYER
100
AcDbCircle
 10
667.0
 20
-258.2426406871193194
 30
0.0
 40
3.0
100
AcDbArc
 50
0.0
 51
45.0000000000000071
  0
ARC
  5
F9
100
AcDbEntity
  8
0
 62
256
370
-1
  6
BYLAYER
100
AcDbCircle
 10
659.8284271247462129
 20
-252.9999999999999716
 30
0.0
 40
2.0
100
AcDbArc
 50
90.0
 51
135.0000000000005684
  0
ARC
  5
FA
100
AcDbEntity
  8
0
 62
256
370
-1
  6
BYLAYER
100
AcDbCircle
 10
663.1715728752537871
 20
-252.9999999999999716
 30
0.0
 40
2.0
100
AcDbArc
 50
45.0
 51
90.0
  0
LINE
  5
FB
100
AcDbEntity
100
AcDbLine
  8
strings
 62
256
370
-1
  6
BYLAYER
 10
0.0
 20
-249.5000000000000568
 30
0.0
 11
660.0
 21
-247.9999999999999716
 31
0.0
  0
LINE
  5
FC
100
AcDbEntity
100
AcDbLine
  8
strings
 62
256
370
-1
  6
BYLAYER
 10
663.0
 20
-247.9999999999999716
 30
0.0
 11
691.4809803105542869
 21
-260.1174981142901288
 31
0.0
  0
LINE
  5
FD
100
AcDbEntity
100
AcDbLine
  8
strings
 62
256
370
-1
  6
BYLAYER
 10
710.0
 20
-280.0
 30
0.0
 11
696.7740910197861695
 21
-264.0602593607329709
 31
0.0
  0
LINE
  5
FE
100
AcDbEntity
100
AcDbLine
  8
strings
 62
256
370
-1
  6
BYLAYER
 10
-5.0
 20
-249.5000000000000568
 30
0.0
 11
-22.9568930941630285
 21
-276.7892486542427264
 31
0.0
  0
LINE
  5
FF
100
AcDbEntity
100
AcDbLine
  8
strings
 62
256
370
-1
  6
BYLAYER
 10
-5.0000000000000044
 20
-249.5000000000000284
 30
0.0
 11
-43.203189665123368
 21
-278.2867666353991467
 31
0.0
  0
LINE
  5
100
100
AcDbEntity
100
AcDbLine
  8
strings
 62
256
370
-1
  6
BYLAYER
 10
-4.9999999999999902
 20
-249.5000000000000284
 30
0.0
 11
-66.024560738467315
 21
-284.00610788723111
 31
0.0
  0
LINE
  5
101
100
AcDbEntity
100
AcDbLine
  8
strings
 62
256
370
-1
  6
BYLAYER
 10
-4.999999999999778
 20
-249.5
 30
0.0
 11
-84.8348645791705565
 21
-290.2189866851965689
 31
0.0
  0
LINE
  5
102
100
AcDbEntity
100
AcDbLine
  8
0
 62
256
370
-1
  6
BYLAYER
 10
660.0
 20
-16.5
 30
0.0
 11
660.0
 21
16.5
 31
0.0
  0
LINE
  5
103
100
AcDbEntity
100
AcDbLine
  8
0
 62
256
370
-1
  6
BYLAYER
 10
663.0
 20
-16.5
 30
0.0
 11
663.0
 21
16.5
 31
0.0
  0
LINE
  5
104
100
AcDbEntity
100
AcDbLine
  8
0
 62
256
370
-1
  6
BYLAYER
 10
670.0
 20
-16.5
 30
0.0
 11
670.0
 21
16.5
 31
0.0
  0
LINE
  5
105
100
AcDbEntity
100
AcDbLine
  8
0
 62
256
370
-1
  6
BYLAYER
 10
653.0
 20
-16.5
 30
0.0
 11
653.0
 21
16.5
 31
0.0
  0
LINE
  5
106
100
AcDbEntity
100
AcDbLine
  8
0
 62
256
370
-1
  6
BYLAYER
 10
653.0
 20
16.5
 30
0.0
 11
670.0
 21
16.5
 31
0.0
  0
LINE
  5
107
100
AcDbEntity
100
AcDbLine
  8
0
 62
256
370
-1
  6
BYLAYER
 10
670.0
 20
-16.5
 30
0.0
 11
653.0
 21
-16.5
 31
0.0
  0
LINE
  5
108
100
AcDbEntity
100
AcDbLine
  8
strings
 62
256
370
-1
  6
BYLAYER
 10
0.0
 20
0.0
 30
0.0
 11
660.0
 21
0.0
 31
0.0
  0
LINE
  5
109
100
AcDbEntity
100
AcDbLine
  8
strings
 62
256
370
-1
  6
BYLAYER
 10
663.0
 20
0.0
 30
0.0
 11
709.9999999999998863
 21
2.5
 31
0.0
  0
LINE
  5
10A
100
AcDbEntity
100
AcDbLine
  8
strings
 62
256
370
-1
  6
BYLAYER
 10
0.0
 20
14.0
 30
0.0
 11
660.0
 21
14.0
 31
0.0
  0
LINE
  5
10B
100
AcDbEntity
100
AcDbLine
  8
strings
 62
256
370
-1
  6
BYLAYER
 10
663.0
 20
14.0
 30
0.0
 11
709.9999999999998863
 21
7.4999999999999991
 31
0.0
  0
LINE
  5
10C
100
AcDbEntity
100
AcDbLine
  8
strings
 62
256
370
-1
  6
BYLAYER
 10
0.0000000000000009
 20
-14.0
 30
0.0
 11
660.0
 21
-14.0000000000040554
 31
0.0
  0
LINE
  5
10D
100
AcDbEntity
100
AcDbLine
  8
strings
 62
256
370
-1
  6
BYLAYER
 10
0.0000000000000009
 20
-11.0
 30
0.0
 11
660.0
 21
-11.0000000000040554
 31
0.0
  0
LINE
  5
10E
100
AcDbEntity
100
AcDbLine
  8
0
 62
256
370
-1
  6
BYLAYER
 10
710.0
 20
2.0
 30
0.0
 11
713.0
 21
2.0
 31
0.0
  0
LINE
  5
10F
100
AcDbEntity
100
AcDbLine
  8
0
 62
256
370
-1
  6
BYLAYER
 10
713.0
 20
2.0
 30
0.0
 11
713.0
 21
3.0
 31
0.0
  0
LINE
  5
110
100
AcDbEntity
100
AcDbLine
  8
0
 62
256
370
-1
  6
BYLAYER
 10
713.0
 20
3.0
 30
0.0
 11
710.0
 21
3.0000000000000009
 31
0.0
  0
LINE
  5
111
100
AcDbEntity
100
AcDbLine
  8
0
 62
256
370
-1
  6
BYLAYER
 10
710.0
 20
7.0
 30
0.0
 11
713.0
 21
7.0
 31
0.0
  0
LINE
  5
112
100
AcDbEntity
100
AcDbLine
  8
0
 62
256
370
-1
  6
BYLAYER
 10
713.0
 20
7.0
 30
0.0
 11
713.0
 21
8.0
 31
0.0
  0
LINE
  5
113
100
AcDbEntity
100
AcDbLine
  8
0
 62
256
370
-1
  6
BYLAYER
 10
713.0
 20
8.0
 30
0.0
 11
710.0
 21
8.0
 31
0.0
  0
LINE
  5
114
100
AcDbEntity
100
AcDbLine
  8
0
 62
256
370
-1
  6
BYLAYER
 10
710.0
 20
-1.9999999999999956
 30
0.0
 11
713.0
 21
-1.9999999999999998
 31
0.0
  0
LINE
  5
115
100
AcDbEntity
100
AcDbLine
  8
0
 62
256
370
-1
  6
BYLAYER
 10
713.0
 20
-1.9999999999999998
 30
0.0
 11
713.0
 21
-2.9999999999999991
 31
0.0
  0
LINE
  5
116
100
AcDbEntity
100
AcDbLine
  8
0
 62
256
370
-1
  6
BYLAYER
 10
713.0
 20
-2.9999999999999991
 30
0.0
 11
710.0
 21
-3.0000000000000004
 31
0.0
  0
LINE
  5
117
100
AcDbEntity
100
AcDbLine
  8
0
 62
256
370
-1
  6
BYLAYER
 10
710.0
 20
-6.9999999999999964
 30
0.0
 11
713.0
 21
-6.9999999999999991
 31
0.0
  0
LINE
  5
118
100
AcDbEntity
100
AcDbLine
  8
0
 62
256
370
-1
  6
BYLAYER
 10
713.0
 20
-6.9999999999999991
 30
0.0
 11
713.0
 21
-7.9999999999999991
 31
0.0
  0
LINE
  5
119
100
AcDbEntity
100
AcDbLine
  8
0
 62
256
370
-1
  6
BYLAYER
 10
713.0
 20
-7.9999999999999991
 30
0.0
 11
710.0
 21
-7.9999999999999956
 31
0.0
  0
LINE
  5
11A
100
AcDbEntity
100
AcDbLine
  8
strings
 62
256
370
-1
  6
BYLAYER
 10
663.0
 20
-11.0
 30
0.0
 11
709.9999999999998863
 21
-2.5
 31
0.0
  0
LINE
  5
11B
100
AcDbEntity
100
AcDbLine
  8
strings
 62
256
370
-1
  6
BYLAYER
 10
709.9999999999998863
 20
-7.4999999999999991
 30
0.0
 11
660.0
 21
-14.0000000000040536
 31
0.0
  0
LINE
  5
11C
100
AcDbEntity
100
AcDbLine
  8
strings
 62
256
370
-1
  6
BYLAYER
 10
0.0
 20
-11.0
 30
0.0
 11
-65.3157687679999981
 21
0.9999999999999929
 31
0.0
  0
LINE
  5
11D
100
AcDbEntity
100
AcDbLine
  8
strings
 62
256
370
-1
  6
BYLAYER
 10
0.0
 20
-14.0
 30
0.0
 11
-21.4576357760000178
 21
0.9999999999999716
 31
0.0
  0
LINE
  5
11E
100
AcDbEntity
100
AcDbLine
  8
strings
 62
256
370
-1
  6
BYLAYER
 10
0.0
 20
-0.0
 30
0.0
 11
-83.375
 21
-1.0
 31
0.0
  0
LINE
  5
11F
100
AcDbEntity
100
AcDbLine
  8
strings
 62
256
370
-1
  6
BYLAYER
 10
-0.0
 20
14.0
 30
0.0
 11
-42.0967571840000119
 21
-1.0
 31
0.0
  0
SPLINE
  5
120
  8
sound_hole
 62
256
370
-1
  6
BYLAYER
100
AcDbEntity
100
AcDbSpline
 70
8
 71
3
 72
51
 73
47
 74
0
 40
0.0
 40
0.0
 40
0.0
 40
0.0
 40
1.0
 40
2.0
 40
3.0
 40
4.0
 40
5.0
 40
6.0
 40
7.0
 40
8.0
 40
9.0
 40
10.0
 40
11.0
 40
12.0
 40
13.0
 40
14.0
 40
15.0
 40
16.0
 40
17.0
 40
18.0
 40
19.0
 40
20.0
 40
21.0
 40
22.0
 40
23.0
 40
24.0
 40
25.0
 40
26.0
 40
27.0
 40
28.0
 40
29.0
 40
30.0
 40
31.0
 40
32.0
 40
33.0
 40
34.0
 40
35.0
 40
36.0
 40
37.0
 40
38.0
 40
39.0
 40
40.0
 40
41.0
 40
42.0
 40
43.0
 40
44.0
 40
44.0
 40
44.0
 40
44.0
 10
394.48910988501882
 20
-53.3012577482409426
 30
0.0
 10
390.969682971183488
 20
-46.7024275704202338
 30
0.0
 10
385.3333873828027549
 20
-42.2510818705922873
 30
0.0
 10
379.3231372052235884
 20
-39.4708300877665579
 30
0.0
 10
372.2089635256401152
 20
-39.1846276983580282
 30
0.0
 10
366.0351691255418132
 20
-41.3107025911071162
 30
0.0
 10
363.2130298850189547
 20
-45.0662033482409683
 30
0.0
 10
362.6158330850189486
 20
-49.0972817482410733
 30
0.0
 10
363.8102266850189608
 20
-53.4269585482410676
 30
0.0
 10
365.8257658850188818
 20
-56.6368913482409724
 30
0.0
 10
369.8568442850189513
 20
-58.2791825482410459
 30
0.0
 10
373.6639738850188905
 20
-57.9805841482410571
 30
0.0
 10
375.6795130850189253
 20
-56.4875921482410064
 30
0.0
 10
376.5006586850189478
 20
-54.7706513482410813
 30
0.0
 10
375.3809146850189791
 20
-55.0692497482411767
 30
0.0
 10
373.290725885018901
 20
-55.2185489482410148
 30
0.0
 10
370.5286906850188871
 20
-53.5762577482264817
 30
0.0
 10
370.3047418850189842
 20
-51.7846673482409372
 30
0.0
 10
370.9019386850188766
 20
-49.0226321482410441
 30
0.0
 10
373.1414266850189279
 20
-47.7535889482410312
 30
0.0
 10
375.3809146850189791
 20
-47.8282385482410746
 30
0.0
 10
378.8147962850189288
 20
-48.7986833482410489
 30
0.0
 10
379.5612922850189079
 20
-50.7395729482411042
 30
0.0
 10
380.0091898850189409
 20
-53.7255569482409427
 30
0.0
 10
379.4119930850189348
 20
-58.5777809482409495
 30
0.0
 10
376.9421417501945371
 20
-61.0898184151026271
 30
0.0
 10
374.1749735051703283
 20
-62.2673368172405972
 30
0.0
 10
370.7601701389702384
 20
-62.6205923378819804
 30
0.0
 10
366.9921112521287796
 20
-62.1495849770268123
 30
0.0
 10
363.5773078859286898
 20
-60.3833073738198678
 30
0.0
 10
360.6002938850189139
 20
-57.9805841482410713
 30
0.0
 10
358.4354554850189061
 20
-52.6804625482414934
 30
0.0
 10
357.6143098850188835
 20
-46.9324433482410441
 30
0.0
 10
359.5153031733329385
 20
-40.8720114653061586
 30
0.0
 10
363.7417542142866296
 20
-37.2282896235720315
 30
0.0
 10
367.9129954020201012
 20
-35.3970130045670857
 30
0.0
 10
372.4911869495324481
 20
-34.6848498749540468
 30
0.0
 10
378.2902295763814777
 20
-34.3796371051198832
 30
0.0
 10
382.9951738850188576
 20
-35.7350033482411078
 30
0.0
 10
387.3828189692819137
 20
-38.2519551078951352
 30
0.0
 10
391.0573306850188828
 20
-41.5576721482410605
 30
0.0
 10
394.7339737991380844
 20
-44.7694133614705692
 30
0.0
 10
396.7307002850188837
 20
-47.0070929482410662
 30
0.0
 10
398.0666178790502272
 20
-49.5226597175439025
 30
0.0
 10
396.1586019496600102
 20
-51.4306756469340982
 30
0.0
 10
395.8349050850189315
 20
-53.5762577482398825
 30
0.0
 10
394.48910988501882
 20
-53.3012577482409426
 30
0.0
  0
SPLINE
  5
121
  8
sound_hole
 62
256
370
-1
  6
BYLAYER
100
AcDbEntity
100
AcDbSpline
 70
8
 71
3
 72
29
 73
25
 74
0
 40
0.0
 40
0.0
 40
0.0
 40
0.0
 40
1.0
 40
2.0
 40
3.0
 40
4.0
 40
5.0
 40
6.0
 40
7.0
 40
8.0
 40
9.0
 40
10.0
 40
11.0
 40
12.0
 40
13.0
 40
14.0
 40
15.0
 40
16.0
 40
17.0
 40
18.0
 40
19.0
 40
20.0
 40
21.0
 40
22.0
 40
22.0
 40
22.0
 40
22.0
 10
405.0762946844664043
 20
-53.820272619136702
 30
0.0
 10
405.7232578844663635
 20
-54.3179366191367166
 30
0.0
 10
408.2613442844664178
 20
-55.661629419136645
 30
0.0
 10
410.7994306844663015
 20
-56.8560230191366358
 30
0.0
 10
415.228640284466394
 20
-58.3987814191366326
 30
0.0
 10
418.4136898844664074
 20
-58.846679019136694
 30
0.0
 10
421.2503746844662942
 20
-58.3987814191366539
 30
0.0
 10
424.1865922844664283
 20
-57.0053222191366586
 30
0.0
 10
426.0279490844663428
 20
-56.3085926191366539
 30
0.0
 10
427.819539484466361
 20
-55.7113958191366549
 30
0.0
 10
429.3622978844663862
 20
-54.8653670191366558
 30
0.0
 10
430.6562242844664183
 20
-54.2681702191366995
 30
0.0
 10
431.0045890844663745
 20
-53.7705062191367205
 30
0.0
 10
429.5115970844664162
 20
-53.1235430191367115
 30
0.0
 10
427.9578076183319126
 20
-52.5559141835504278
 30
0.0
 10
425.6420214274606337
 20
-51.8494031422676542
 30
0.0
 10
423.7187413706352572
 20
-50.9073884205572895
 30
0.0
 10
421.5489730844663541
 20
-50.0380262191366185
 30
0.0
 10
418.9611202844663467
 20
-49.3910630191366451
 30
0.0
 10
416.6718658844663992
 20
-49.3910630191366451
 30
0.0
 10
412.3919554844663367
 20
-49.6398950191367092
 30
0.0
 10
409.0576066844664069
 20
-50.286858219136704
 30
0.0
 10
406.8181186844664126
 20
-51.6305510191366608
 30
0.0
 10
405.6734914844664104
 20
-53.0240102191367058
 30
0.0
 10
405.1758274844664243
 20
-53.7705062191366707
 30
0.0
  0
SPLINE
  5
122
  8
sound_hole
 62
256
370
-1
  6
BYLAYER
100
AcDbEntity
100
AcDbSpline
 70
8
 71
3
 72
29
 73
25
 74
0
 40
0.0
 40
0.0
 40
0.0
 40
0.0
 40
1.0
 40
2.0
 40
3.0
 40
4.0
 40
5.0
 40
6.0
 40
7.0
 40
8.0
 40
9.0
 40
10.0
 40
11.0
 40
12.0
 40
13.0
 40
14.0
 40
15.0
 40
16.0
 40
17.0
 40
18.0
 40
19.0
 40
20.0
 40
21.0
 40
22.0
 40
22.0
 40
22.0
 40
22.0
 10
404.0751670632839136
 20
-46.430828391142505
 30
0.0
 10
405.4725497628954827
 20
-45.5665838244876724
 30
0.0
 10
407.1886364904062248
 20
-44.592451033290665
 30
0.0
 10
408.8774398332029705
 20
-43.9195713315853311
 30
0.0
 10
410.7755091948283734
 20
-42.9071757910719356
 30
0.0
 10
412.5407802942988837
 20
-41.4857390244877351
 30
0.0
 10
414.4286808603887948
 20
-39.8785715245935464
 30
0.0
 10
415.5390134933102217
 20
-38.3180760581151887
 30
0.0
 10
416.6275572928159363
 20
-36.0231116251231214
 30
0.0
 10
417.6894313589412491
 20
-33.2838226588919568
 30
0.0
 10
417.8151551921450277
 20
-32.4067219257233532
 30
0.0
 10
417.7249054918980278
 20
-30.1602160595274178
 30
0.0
 10
417.6849008918273398
 20
-29.4937292596686333
 30
0.0
 10
417.6849008918273398
 20
-29.4937292596686333
 30
0.0
 10
415.8862926256313699
 20
-30.359760359703948
 30
0.0
 10
413.4926200349656256
 20
-31.3354723053894162
 30
0.0
 10
411.0885199639339476
 20
-32.7583070413061108
 30
0.0
 10
408.3409770256120623
 20
-34.5736479112687931
 30
0.0
 10
406.2312565551148964
 20
-37.6646337168809282
 30
0.0
 10
405.2818098622953471
 20
-40.1600398256174103
 30
0.0
 10
404.5202869528342262
 20
-42.1295177991160301
 30
0.0
 10
404.6380692962054013
 20
-43.9221556582563935
 30
0.0
 10
404.441268929762316
 20
-45.4724106246288287
 30
0.0
 10
404.141362696558474
 20
-46.0478185912130797
 30
0.0
 10
404.0751670632839136
 20
-46.430828391142505
 30
0.0
  0
SPLINE
  5
123
  8
sound_hole
 62
256
370
-1
  6
BYLAYER
100
AcDbEntity
100
AcDbSpline
 70
8
 71
3
 72
25
 73
21
 74
0
 40
0.0
 40
0.0
 40
0.0
 40
0.0
 40
1.0
 40
2.0
 40
3.0
 40
4.0
 40
5.0
 40
6.0
 40
7.0
 40
8.0
 40
9.0
 40
10.0
 40
11.0
 40
12.0
 40
13.0
 40
14.0
 40
15.0
 40
16.0
 40
17.0
 40
18.0
 40
18.0
 40
18.0
 40
18.0
 10
398.7668349837393862
 20
-58.9046234144415521
 30
0.0
 10
397.4541794651732403
 20
-61.0877953376278384
 30
0.0
 10
396.9703147800887564
 20
-63.7710449549150553
 30
0.0
 10
396.8823393828006374
 20
-68.4337410111846509
 30
0.0
 10
398.641847328562676
 20
-74.1521418349114327
 30
0.0
 10
402.1168755214428643
 20
-77.8910962196560064
 30
0.0
 10
406.1637437966957123
 20
-80.3544073437229969
 30
0.0
 10
409.4628211949996626
 20
-81.2781490152481183
 30
0.0
 10
411.6182184285582935
 20
-81.6740383030445116
 30
0.0
 10
411.6182184285582935
 20
-81.6740383030445116
 30
0.0
 10
411.1995961829242106
 20
-79.2592681004269508
 30
0.0
 10
411.6506047751161645
 20
-75.8940501433020245
 30
0.0
 10
411.9701200177106557
 20
-73.2284001633863966
 30
0.0
 10
411.3542922366940502
 20
-69.6214088745741009
 30
0.0
 10
410.4305505651688577
 20
-67.2020854491512267
 30
0.0
 10
408.2311656329661673
 20
-64.210921941355565
 30
0.0
 10
405.9877930021194743
 20
-62.4074262969494882
 30
0.0
 10
402.9526417956798241
 20
-60.7798814471194504
 30
0.0
 10
400.7092691648331879
 20
-59.7681643783062384
 30
0.0
 10
398.6858350272067355
 20
-58.8884104054252049
 30
0.0
 10
398.6858350272067355
 20
-58.8884104054252049
 30
0.0
  0
ARC
  5
124
100
AcDbEntity
  8
0
 62
256
370
-1
  6
BYLAYER
100
AcDbCircle
 10
-100.0
 20
0.000000000000011
 30
0.0
 40
10.0
100
AcDbArc
 50
90.0
 51
180.0
  0
ARC
  5
125
100
AcDbEntity
  8
0
 62
256
370
-1
  6
BYLAYER
100
AcDbCircle
 10
-20.0
 20
0.0000000000000012
 30
0.0
 40
10.0
100
AcDbArc
 50
0.0
 51
90.0
  0
ARC
  5
126
100
AcDbEntity
  8
0
 62
256
370
-1
  6
BYLAYER
100
AcDbCircle
 10
-100.0
 20
0.0000000000000122
 30
0.0
 40
10.0
100
AcDbArc
 50
180.0
 51
270.0
  0
ARC
  5
127
100
AcDbEntity
  8
0
 62
256
370
-1
  6
BYLAYER
100
AcDbCircle
 10
-20.0
 20
0.0000000000000024
 30
0.0
 40
10.0
100
AcDbArc
 50
270.0
 51
360.0
  0
LINE
  5
128
100
AcDbEntity
100
AcDbLine
  8
0
 62
256
370
-1
  6
BYLAYER
 10
-20.0
 20
-9.9999999999999964
 30
0.0
 11
-101.0
 21
-10.0
 31
0.0
  0
ARC
  5
129
100
AcDbEntity
  8
0
 62
256
370
-1
  6
BYLAYER
100
AcDbCircle
 10
-110.0
 20
21.0
 30
0.0
 40
0.9999999999999964
100
AcDbArc
 50
270.0
 51
0.0
  0
ARC
  5
12A
100
AcDbEntity
  8
0
 62
256
370
-1
  6
BYLAYER
100
AcDbCircle
 10
-108.0
 20
21.0
 30
0.0
 40
1.0
100
AcDbArc
 50
90.0
 51
180.0
  0
ARC
  5
12B
100
AcDbEntity
  8
0
 62
256
370
-1
  6
BYLAYER
100
AcDbCircle
 10
-8.0
 20
21.0
 30
0.0
 40
0.9999999999999964
100
AcDbArc
 50
180.0
 51
269.9999999999997726
  0
ARC
  5
12C
100
AcDbEntity
  8
0
 62
256
370
-1
  6
BYLAYER
100
AcDbCircle
 10
-10.0
 20
21.0
 30
0.0
 40
1.0
100
AcDbArc
 50
0.0
 51
90.0
  0
LINE
  5
12D
100
AcDbEntity
100
AcDbLine
  8
0
 62
256
370
-1
  6
BYLAYER
 10
-10.0000000000000036
 20
-22.0
 30
0.0
 11
-108.0
 21
-21.9999999999999822
 31
0.0
  0
LINE
  5
12E
100
AcDbEntity
100
AcDbLine
  8
0
 62
256
370
-1
  6
BYLAYER
 10
-110.0
 20
-20.0
 30
0.0
 11
-156.0468725044499649
 21
-19.9999999999999041
 31
0.0
  0
ARC
  5
12F
100
AcDbEntity
  8
0
 62
256
370
-1
  6
BYLAYER
100
AcDbCircle
 10
-110.0
 20
-21.0000000000000036
 30
0.0
 40
0.9999999999999964
100
AcDbArc
 50
360.0
 51
90.0
  0
ARC
  5
130
100
AcDbEntity
  8
0
 62
256
370
-1
  6
BYLAYER
100
AcDbCircle
 10
-108.0
 20
-20.9999999999999609
 30
0.0
 40
1.0
100
AcDbArc
 50
180.0
 51
270.0
  0
ARC
  5
131
100
AcDbEntity
  8
0
 62
256
370
-1
  6
BYLAYER
100
AcDbCircle
 10
-7.9999999999999947
 20
-21.0
 30
0.0
 40
0.9999999999999964
100
AcDbArc
 50
90.000000000000199
 51
180.0
  0
ARC
  5
132
100
AcDbEntity
  8
0
 62
256
370
-1
  6
BYLAYER
100
AcDbCircle
 10
-10.0000000000000036
 20
-21.0
 30
0.0
 40
1.0
100
AcDbArc
 50
270.0
 51
360.0
  0
DIMENSION
  5
133
100
AcDbEntity
  8
dimensions
 62
256
370
-1
  6
BYLAYER
100
AcDbDimension
 10
5.801946748016789
 20
-259.0
 30
0.0
 11
3.926946748016789
 21
-268.25
 31
0.0
 70
1
 71
8
 72
2
 41
1.0
 42
0.0
  1

  3
Standard
100
AcDbAlignedDimension
 13
0.0
 23
-259.0
 33
0.0
 14
0.0
 24
-277.5000000000000568
 34
0.0
1001
ACAD
1000
DSTYLE
1002
{
1070
144
1040
1
1002
}
  0
DIMENSION
  5
134
100
AcDbEntity
  8
dimensions
 62
256
370
-1
  6
BYLAYER
100
AcDbDimension
 10
0.0000000000000005
 20
-285.0000000000000568
 30
0.0
 11
350.0
 21
-283.125
 31
0.0
 70
1
 71
8
 72
2
 41
1.0
 42
0.0
  1

  3
Standard
100
AcDbAlignedDimension
 13
0.0
 23
-277.5000000000000568
 33
0.0
 14
700.0
 24
-277.5
 34
0.0
1001
ACAD
1000
DSTYLE
1002
{
1070
144
1040
1
1002
}
  0
DIMENSION
  5
135
100
AcDbEntity
  8
dimensions
 62
256
370
-1
  6
BYLAYER
100
AcDbDimension
 10
-163.0
 20
-42.2492393649948497
 30
0.0
 11
-67.0
 21
-40.3742393649948497
 31
0.0
 70
1
 71
8
 72
2
 41
1.0
 42
0.0
  1

  3
Standard
100
AcDbAlignedDimension
 13
-163.0
 23
0.0
 33
0.0
 14
29.0
 24
0.0
 34
0.0
1001
ACAD
1000
DSTYLE
1002
{
1070
144
1040
1
1002
}
  0
DIMENSION
  5
136
100
AcDbEntity
  8
dimensions
 62
256
370
-1
  6
BYLAYER
100
AcDbDimension
 10
-95.0
 20
9.9999999999999982
 30
0.0
 11
-96.875
 21
-0.0000000000000015
 31
0.0
 70
1
 71
8
 72
2
 41
1.0
 42
0.0
  1

  3
Standard
100
AcDbAlignedDimension
 13
-100.0
 23
10.0
 33
0.0
 14
-100.0
 24
-10.0
 34
0.0
1001
ACAD
1000
DSTYLE
1002
{
1070
144
1040
1
1002
}
  0
DIMENSION
  5
137
100
AcDbEntity
  8
dimensions
 62
256
370
-1
  6
BYLAYER
100
AcDbDimension
 10
-95.0
 20
-10.0000000000000018
 30
0.0
 11
-96.875
 21
-15.9999999999999929
 31
0.0
 70
1
 71
8
 72
2
 41
1.0
 42
0.0
  1

  3
Standard
100
AcDbAlignedDimension
 13
-100.0
 23
-10.0
 33
0.0
 14
-100.0
 24
-21.9999999999999822
 34
0.0
1001
ACAD
1000
DSTYLE
1002
{
1070
144
1040
1
1002
}
  0
SPLINE
  5
138
  8
fretboard_inlay
 62
256
370
-1
  6
BYLAYER
100
AcDbEntity
100
AcDbSpline
 70
8
 71
3
 72
20
 73
16
 74
0
 40
0.0
 40
0.0
 40
0.0
 40
0.0
 40
1.0
 40
2.0
 40
3.0
 40
4.0
 40
5.0
 40
6.0
 40
7.0
 40
8.0
 40
9.0
 40
10.0
 40
11.0
 40
12.0
 40
13.0
 40
13.0
 40
13.0
 40
13.0
 10
491.2540687011829164
 20
1.8056445290265986
 30
0.0
 10
490.0956127705038057
 20
2.6168041043718766
 30
0.0
 10
488.5154520356963417
 20
3.7426109646972643
 30
0.0
 10
487.2510211455293074
 20
6.1103053134710681
 30
0.0
 10
487.3424096045496299
 20
9.2650888085013676
 30
0.0
 10
488.0220144764978158
 20
11.6268280864893718
 30
0.0
 10
488.6559840988381893
 20
12.8346572639139218
 30
0.0
 10
488.741535446877208
 20
14.8923682907324633
 30
0.0
 10
489.8154953907734921
 20
12.1921678947110443
 30
0.0
 10
490.835654217613353
 20
10.9272651653255579
 30
0.0
 10
491.5507515829281147
 20
9.2569653688315352
 30
0.0
 10
492.1816670184409759
 20
7.3709477028003603
 30
0.0
 10
492.2238768106345788
 20
5.3602131878009311
 30
0.0
 10
492.0893567248897966
 20
3.9429903347087087
 30
0.0
 10
491.6914244380963623
 20
3.0343233887295726
 30
0.0
 10
491.2540687011829164
 20
1.8056445290265986
 30
0.0
  0
SPLINE
  5
139
  8
fretboard_inlay
 62
256
370
-1
  6
BYLAYER
100
AcDbEntity
100
AcDbSpline
 70
8
 71
3
 72
25
 73
21
 74
0
 40
0.0
 40
0.0
 40
0.0
 40
0.0
 40
1.0
 40
2.0
 40
3.0
 40
4.0
 40
5.0
 40
6.0
 40
7.0
 40
8.0
 40
9.0
 40
10.0
 40
11.0
 40
12.0
 40
13.0
 40
14.0
 40
15.0
 40
16.0
 40
17.0
 40
18.0
 40
18.0
 40
18.0
 40
18.0
 10
491.9643637668746692
 20
-2.9911486894623778
 30
0.0
 10
490.7284021219141437
 20
-3.2989227158829024
 30
0.0
 10
489.6086581219141749
 20
-4.0765227158829163
 30
0.0
 10
487.9290421219141649
 20
-5.6939307158829209
 30
0.0
 10
486.5293621219141755
 20
-8.3377707158828755
 30
0.0
 10
486.4360501219140929
 20
-10.8882987158829181
 30
0.0
 10
486.9959221219141341
 20
-13.1899947158829196
 30
0.0
 10
487.8357301219140822
 20
-14.6829867158829348
 30
0.0
 10
488.4578101219141786
 20
-15.585002715882931
 30
0.0
 10
488.4578101219141786
 20
-15.585002715882931
 30
0.0
 10
489.1635550002314972
 20
-14.5832472089221543
 30
0.0
 10
490.5127948360145069
 20
-13.5529186070514402
 30
0.0
 10
491.5682101219140918
 20
-12.7234347158828971
 30
0.0
 10
492.6257461219141192
 20
-11.2304427158829441
 30
0.0
 10
493.1545141219141328
 20
-10.0484907158829202
 30
0.0
 10
493.4344501219141534
 20
-8.2133547158828861
 30
0.0
 10
493.2789301219141294
 20
-6.782570715882926
 30
0.0
 10
492.7812661219141432
 20
-5.1340587158828868
 30
0.0
 10
492.3458101219140985
 20
-3.9832107158828904
 30
0.0
 10
491.9414581219140814
 20
-2.9567787158828907
 30
0.0
 10
491.9414581219140814
 20
-2.9567787158828907
 30
0.0
  0
SPLINE
  5
13A
  8
fretboard_inlay
 62
256
370
-1
  6
BYLAYER
100
AcDbEntity
100
AcDbSpline
 70
8
 71
3
 72
27
 73
23
 74
0
 40
0.0
 40
0.0
 40
0.0
 40
0.0
 40
1.0
 40
2.0
 40
3.0
 40
4.0
 40
5.0
 40
6.0
 40
7.0
 40
8.0
 40
9.0
 40
10.0
 40
11.0
 40
12.0
 40
13.0
 40
14.0
 40
15.0
 40
16.0
 40
17.0
 40
18.0
 40
19.0
 40
20.0
 40
20.0
 40
20.0
 40
20.0
 10
449.8015729660627926
 20
-6.7719125465705545
 30
0.0
 10
450.7346929660627666
 20
-6.4608725465705561
 30
0.0
 10
452.28989296606278
 20
-5.8387925465705734
 30
0.0
 10
453.2852209660628091
 20
-5.2478165465705615
 30
0.0
 10
454.3738609660628072
 20
-4.2835925465705671
 30
0.0
 10
454.902628966062764
 20
-3.4437845465705621
 30
0.0
 10
455.5869169660628017
 20
-2.013000546570602
 30
0.0
 10
455.8979569660627931
 20
-1.4531285465705537
 30
0.0
 10
455.8979569660627931
 20
-0.426696546570561
 30
0.0
 10
456.0534769660627603
 20
2.0305194534294628
 30
0.0
 10
456.2089969660627844
 20
3.119159453429404
 30
0.0
 10
456.9865969660627911
 20
4.2389034534294225
 30
0.0
 10
457.422052966062779
 20
4.8298794534294345
 30
0.0
 10
456.3334129660627809
 20
4.8609834534294549
 30
0.0
 10
454.560484966062802
 20
4.114487453429426
 30
0.0
 10
452.5698289660628006
 20
2.9014314534294385
 30
0.0
 10
450.9213169660627614
 20
1.7194794534294147
 30
0.0
 10
449.6149489660627978
 20
-0.3022805465705645
 30
0.0
 10
449.3039089660628065
 20
-2.1685205465705693
 30
0.0
 10
449.2105969660627807
 20
-3.87924054657055
 30
0.0
 10
449.2417009660628082
 20
-6.0254165465705753
 30
0.0
 10
449.7393649660627943
 20
-6.8963285465705439
 30
0.0
 10
449.7393649660627943
 20
-6.8963285465705439
 30
0.0
  0
SPLINE
  5
13B
  8
fretboard_inlay
 62
256
370
-1
  6
BYLAYER
100
AcDbEntity
100
AcDbSpline
 70
8
 71
3
 72
29
 73
25
 74
0
 40
0.0
 40
0.0
 40
0.0
 40
0.0
 40
1.0
 40
2.0
 40
3.0
 40
4.0
 40
5.0
 40
6.0
 40
7.0
 40
8.0
 40
9.0
 40
10.0
 40
11.0
 40
12.0
 40
13.0
 40
14.0
 40
15.0
 40
16.0
 40
17.0
 40
18.0
 40
19.0
 40
20.0
 40
21.0
 40
22.0
 40
22.0
 40
22.0
 40
22.0
 10
410.1371316818694481
 20
-3.3852024726849814
 30
0.0
 10
409.6257443643222018
 20
-2.5583488042757674
 30
0.0
 10
409.0493344287027071
 20
-1.5429128708374589
 30
0.0
 10
408.6511807590545686
 20
-0.5436209520228156
 30
0.0
 10
408.0521301433661847
 20
0.5794970134360017
 30
0.0
 10
407.211043299233495
 20
1.6240361255487303
 30
0.0
 10
406.2600566129056006
 20
2.7411370522291509
 30
0.0
 10
405.3366865143976838
 20
3.398138610170824
 30
0.0
 10
403.9787193942840418
 20
4.0422473672747969
 30
0.0
 10
402.3578383491768022
 20
4.6705752170530879
 30
0.0
 10
401.8388438325089851
 20
4.744968017765383
 30
0.0
 10
400.5095504205587531
 20
4.6915658282701171
 30
0.0
 10
400.1151795330683285
 20
4.6678944672815437
 30
0.0
 10
400.1151795330683285
 20
4.6678944672815437
 30
0.0
 10
400.6276239709590641
 20
3.6036292210117407
 30
0.0
 10
401.2049683175185351
 20
2.187254907008342
 30
0.0
 10
402.0468823624396464
 20
0.7647104862795367
 30
0.0
 10
403.1210485576838209
 20
-0.8610545659819326
 30
0.0
 10
404.9500342414779652
 20
-2.1094098739684206
 30
0.0
 10
406.4266059034522414
 20
-2.6712126507847223
 30
0.0
 10
407.5919774854040725
 20
-3.1218179226552087
 30
0.0
 10
408.6527099464339017
 20
-3.052124228352739
 30
0.0
 10
409.5700205774235201
 20
-3.1685741493249777
 30
0.0
 10
409.9104986641597179
 20
-3.34603345891305
 30
0.0
 10
410.1371316818694481
 20
-3.3852024726849814
 30
0.0
  0
SPLINE
  5
13C
  8
fretboard_inlay
 62
256
370
-1
  6
BYLAYER
100
AcDbEntity
100
AcDbSpline
 70
8
 71
3
 72
29
 73
25
 74
0
 40
0.0
 40
0.0
 40
0.0
 40
0.0
 40
1.0
 40
2.0
 40
3.0
 40
4.0
 40
5.0
 40
6.0
 40
7.0
 40
8.0
 40
9.0
 40
10.0
 40
11.0
 40
12.0
 40
13.0
 40
14.0
 40
15.0
 40
16.0
 40
17.0
 40
18.0
 40
19.0
 40
20.0
 40
21.0
 40
22.0
 40
22.0
 40
22.0
 40
22.0
 10
322.9292564816265099
 20
-3.5822592084488165
 30
0.0
 10
323.0180656293933339
 20
-3.9805940487973572
 30
0.0
 10
323.0906444221480456
 20
-5.4146723407680337
 30
0.0
 10
323.0955677011235139
 20
-6.8172023485469762
 30
0.0
 10
322.8587422458230094
 20
-9.1503148606427001
 30
0.0
 10
322.3886787244055654
 20
-10.6882773405066018
 30
0.0
 10
321.5862947834269221
 20
-11.8790872497358926
 30
0.0
 10
320.3343937323857062
 20
-12.9151950349376765
 30
0.0
 10
319.6295724963861176
 20
-13.6023877119864576
 30
0.0
 10
318.9803710309697635
 20
-14.2880607405699607
 30
0.0
 10
318.2709908495741615
 20
-14.8083941058687909
 30
0.0
 10
317.7269503314632857
 20
-15.268548755188398
 30
0.0
 10
317.4278192890855621
 20
-15.3212506733676559
 30
0.0
 10
317.4501282379588929
 20
-14.5079863040788624
 30
0.0
 10
317.5212349226840729
 20
-13.6839354018875561
 30
0.0
 10
317.690423460787656
 20
-12.48523563885451
 30
0.0
 10
317.6699524591210775
 20
-11.4146374806662436
 30
0.0
 10
317.7344894434100411
 20
-10.2476943625624806
 30
0.0
 10
317.9881524763554239
 20
-8.9382895588931106
 30
0.0
 10
318.47189283396051
 20
-7.9009050142791795
 30
0.0
 10
319.4890361704194675
 20
-6.0140274262623059
 30
0.0
 10
320.4867884104091331
 20
-4.6397635166912981
 30
0.0
 10
321.5689122972962082
 20
-3.9088653677284562
 30
0.0
 10
322.4422339380377025
 20
-3.6846237478767807
 30
0.0
 10
322.8856724542390566
 20
-3.6168467895710745
 30
0.0
  0
SPLINE
  5
13D
  8
fretboard_inlay
 62
256
370
-1
  6
BYLAYER
100
AcDbEntity
100
AcDbSpline
 70
8
 71
3
 72
25
 73
21
 74
0
 40
0.0
 40
0.0
 40
0.0
 40
0.0
 40
1.0
 40
2.0
 40
3.0
 40
4.0
 40
5.0
 40
6.0
 40
7.0
 40
8.0
 40
9.0
 40
10.0
 40
11.0
 40
12.0
 40
13.0
 40
14.0
 40
15.0
 40
16.0
 40
17.0
 40
18.0
 40
18.0
 40
18.0
 40
18.0
 10
322.7457958428627762
 20
2.2709740345895879
 30
0.0
 10
321.5098341979021939
 20
2.5787480610101134
 30
0.0
 10
320.3900901979022251
 20
3.3563480610101277
 30
0.0
 10
318.7104741979022151
 20
4.9737560610101301
 30
0.0
 10
317.3107941979022257
 20
7.6175960610100839
 30
0.0
 10
317.2174821979021999
 20
10.1681240610101238
 30
0.0
 10
317.7773541979021843
 20
12.4698200610101271
 30
0.0
 10
318.6171621979021893
 20
13.9628120610101423
 30
0.0
 10
319.2392421979022288
 20
14.8648280610101349
 30
0.0
 10
319.2392421979022288
 20
14.8648280610101349
 30
0.0
 10
319.9449870762195474
 20
13.8630725540493671
 30
0.0
 10
321.294226912002614
 20
12.832743952178653
 30
0.0
 10
321.7746559828217983
 20
11.9127573429895861
 30
0.0
 10
322.5400429442115069
 20
10.7941148609585298
 30
0.0
 10
323.0
 20
9.0
 30
0.0
 10
323.3054299056011587
 20
7.7325670153998445
 30
0.0
 10
323.1876780653873311
 20
6.437296773048093
 30
0.0
 10
323.0699262251735604
 20
4.7887710100549548
 30
0.0
 10
323.1272421979022056
 20
3.2630360610100979
 30
0.0
 10
322.7228901979021884
 20
2.2366040610101026
 30
0.0
 10
322.7228901979021884
 20
2.2366040610101026
 30
0.0
  0
SPLINE
  5
13E
  8
fretboard_inlay
 62
256
370
-1
  6
BYLAYER
100
AcDbEntity
100
AcDbSpline
 70
8
 71
3
 72
34
 73
30
 74
0
 40
0.0
 40
0.0
 40
0.0
 40
0.0
 40
1.0
 40
2.0
 40
3.0
 40
4.0
 40
5.0
 40
6.0
 40
7.0
 40
8.0
 40
9.0
 40
10.0
 40
11.0
 40
12.0
 40
13.0
 40
14.0
 40
15.0
 40
16.0
 40
17.0
 40
18.0
 40
19.0
 40
20.0
 40
21.0
 40
22.0
 40
23.0
 40
24.0
 40
25.0
 40
26.0
 40
27.0
 40
27.0
 40
27.0
 40
27.0
 10
239.9740214202695086
 20
13.8136747993276963
 30
0.0
 10
239.5474522774122761
 20
13.0671787993276816
 30
0.0
 10
238.7766373719855437
 20
11.177465583689191
 30
0.0
 10
238.5003230446050395
 20
9.2481470551032157
 30
0.0
 10
238.1877453017872313
 20
6.7337099002373311
 30
0.0
 10
238.4103269952989308
 20
4.6664790246892842
 30
0.0
 10
238.8947917093214244
 20
2.3652716330825365
 30
0.0
 10
240.0453954051247933
 20
-0.1781681155354491
 30
0.0
 10
241.3776733686865725
 20
-2.2977012393837697
 30
0.0
 10
243.1732899916979704
 20
-4.208871486386589
 30
0.0
 10
244.5063185631265981
 20
-5.1153309149580464
 30
0.0
 10
245.7860259916979544
 20
-5.9151480578151778
 30
0.0
 10
247.9188717059837757
 20
-6.7682863435294527
 30
0.0
 10
249.4118637059836772
 20
-7.2481766292437113
 30
0.0
 10
251.3314248488407827
 20
-7.568103486386593
 30
0.0
 10
251.3314248488407827
 20
-7.568103486386593
 30
0.0
 10
249.9983962774123256
 20
-6.3950383435294276
 30
0.0
 10
249.198579134555132
 20
-4.9553674863866162
 30
0.0
 10
248.9319734202695145
 20
-3.4623754863865512
 30
0.0
 10
248.8786522774122432
 20
-1.1695663435294863
 30
0.0
 10
249.1452579916980312
 20
0.7499947993276561
 30
0.0
 10
248.6653677059837264
 20
2.8828405136133921
 30
0.0
 10
247.8655505631265328
 20
5.1223285136133843
 30
0.0
 10
246.425879705983732
 20
7.2018530850419467
 30
0.0
 10
244.6662819916980425
 20
8.7481662278991053
 30
0.0
 10
243.1732899916979704
 20
10.1345159421848123
 30
0.0
 10
241.5203345631266529
 20
11.4675445136133476
 30
0.0
 10
240.827159705983803
 20
12.1073982278991181
 30
0.0
 10
240.2939482774122268
 20
12.9072153707563011
 30
0.0
 10
239.9740214202695086
 20
13.8136747993276963
 30
0.0
  0
SPLINE
  5
13F
  8
fretboard_inlay
 62
256
370
-1
  6
BYLAYER
100
AcDbEntity
100
AcDbSpline
 70
8
 71
3
 72
29
 73
25
 74
0
 40
0.0
 40
0.0
 40
0.0
 40
0.0
 40
1.0
 40
2.0
 40
3.0
 40
4.0
 40
5.0
 40
6.0
 40
7.0
 40
8.0
 40
9.0
 40
10.0
 40
11.0
 40
12.0
 40
13.0
 40
14.0
 40
15.0
 40
16.0
 40
17.0
 40
18.0
 40
19.0
 40
20.0
 40
21.0
 40
22.0
 40
22.0
 40
22.0
 40
22.0
 10
153.1783349848199407
 20
5.8154478460554238
 30
0.0
 10
152.5086859316699304
 20
5.5390088816941905
 30
0.0
 10
150.3494711686387575
 20
4.1843926987947011
 30
0.0
 10
148.3050169677057113
 20
2.7635194744756513
 30
0.0
 10
145.1535322638874845
 20
0.0436122268845467
 30
0.0
 10
143.3957670272950224
 20
-2.2058419736303518
 30
0.0
 10
142.4811649266094093
 20
-4.5850637777686281
 30
0.0
 10
142.2492083582695273
 20
-7.4604205523003495
 30
0.0
 10
141.967587470549347
 20
-9.1850003448132149
 30
0.0
 10
141.6315452219033375
 20
-10.8271552556797896
 30
0.0
 10
141.5971989791221404
 20
-12.388470965415177
 30
0.0
 10
141.4820135352097736
 20
-13.6480906692855619
 30
0.0
 10
141.7099489788922995
 20
-14.1367221189165573
 30
0.0
 10
142.8698151621884449
 20
-13.2762303440820322
 30
0.0
 10
143.9956811899448326
 20
-12.3337983334204946
 30
0.0
 10
145.5664648632354385
 20
-10.8672828153261047
 30
0.0
 10
147.1440820598207324
 20
-9.8069851582720595
 30
0.0
 10
148.7752423213042334
 20
-8.5249792214929663
 30
0.0
 10
150.4209934750145692
 20
-6.8229099912669122
 30
0.0
 10
151.4369347767897125
 20
-5.0632480390847112
 30
0.0
 10
153.1450356940016775
 20
-1.6630168565510175
 30
0.0
 10
154.1274805166226258
 20
1.187082876476846
 30
0.0
 10
154.0884910790348954
 20
3.5048046807405173
 30
0.0
 10
153.5253631503332485
 20
5.0030347100860757
 30
0.0
 10
153.172417144572762
 20
5.7168551241827661
 30
0.0
  0
SPLINE
  5
140
  8
fretboard_inlay
 62
256
370
-1
  6
BYLAYER
100
AcDbEntity
100
AcDbSpline
 70
8
 71
3
 72
19
 73
15
 74
0
 40
0.0
 40
0.0
 40
0.0
 40
0.0
 40
1.0
 40
2.0
 40
3.0
 40
4.0
 40
5.0
 40
6.0
 40
7.0
 40
8.0
 40
9.0
 40
10.0
 40
11.0
 40
12.0
 40
12.0
 40
12.0
 40
12.0
 10
425.8529965818267442
 20
1.3878726443282963
 30
0.0
 10
424.6305161376490105
 20
2.3343091172401049
 30
0.0
 10
423.0
 20
3.0
 30
0.0
 10
418.8138753145451574
 20
3.5765069879368547
 30
0.0
 10
416.7260364553015961
 20
6.1987669755511687
 30
0.0
 10
415.7322781587441796
 20
8.4134283221648012
 30
0.0
 10
416.0
 20
9.0
 30
0.0
 10
417.322291433236046
 20
8.6689661698509894
 30
0.0
 10
417.4074707157981265
 20
7.4764562139821109
 30
0.0
 10
418.7135530484164292
 20
5.5173327150546667
 30
0.0
 10
420.4171386996576416
 20
4.7791122661834553
 30
0.0
 10
423.6539514370160191
 20
4.296429664998433
 30
0.0
 10
425.3575370882572884
 20
3.5866023103145768
 30
0.0
 10
426.9759434569364771
 20
2.3089130718836337
 30
0.0
 10
426.9824988853602008
 20
2.3005666800218618
 30
0.0
  0
SPLINE
  5
141
  8
fretboard_inlay
 62
256
370
200
  6
BYLAYER
100
AcDbEntity
100
AcDbSpline
 70
8
 71
3
 72
25
 73
21
 74
0
 40
0.0
 40
0.0
 40
0.0
 40
0.0
 40
1.0
 40
2.0
 40
3.0
 40
4.0
 40
5.0
 40
6.0
 40
7.0
 40
8.0
 40
9.0
 40
10.0
 40
11.0
 40
12.0
 40
13.0
 40
14.0
 40
15.0
 40
16.0
 40
17.0
 40
18.0
 40
18.0
 40
18.0
 40
18.0
 10
337.4266312425855858
 20
-10.840156019772536
 30
0.0
 10
333.5199077887083376
 20
-4.6138155151557143
 30
0.0
 10
323.2647587222806465
 20
-1.1954324930131364
 30
0.0
 10
312.7654394399855846
 20
-0.2187516295438314
 30
0.0
 10
300.6790137545529547
 20
-1.3175176009468004
 30
0.0
 10
276.0178219519529534
 20
-6.4450921341606602
 30
0.0
 10
269.4252261235351398
 20
-11.9389219911755049
 30
0.0
 10
250.7377400422013238
 20
-12.7461487248329561
 30
0.0
 10
241.2422316473608248
 20
-11.3048662006161038
 30
0.0
 10
235.22275757563159
 20
-7.4049252527351896
 30
0.0
 10
232.6793178270136195
 20
-1.639795155867759
 30
0.0
 10
230.3054407283034948
 20
2.5992710918288857
 30
0.0
 10
224.7420766198143838
 20
5.3971633354046773
 30
0.0
 10
218.5157361151975692
 20
4.1763122560680443
 30
0.0
 10
214.2817703120101953
 20
-2.4028270804531537
 30
0.0
 10
217.7578046351214311
 20
-9.2701144017217132
 30
0.0
 10
224.5403106314360571
 20
-11.2200848756621667
 30
0.0
 10
229.8815341035338236
 20
-6.2179867033801308
 30
0.0
 10
225.9815931556529165
 20
1.5818951923816904
 30
0.0
 10
219.5382124591540105
 20
-2.9962963551306814
 30
0.0
 10
223.4381534070349176
 20
-5.2006108039329355
 30
0.0
  0
SPLINE
  5
142
  8
fretboard_inlay
 62
256
370
211
  6
BYLAYER
100
AcDbEntity
100
AcDbSpline
 70
8
 71
3
 72
31
 73
27
 74
0
 40
0.0
 40
0.0
 40
0.0
 40
0.0
 40
1.0
 40
2.0
 40
3.0
 40
4.0
 40
5.0
 40
6.0
 40
7.0
 40
8.0
 40
9.0
 40
10.0
 40
11.0
 40
12.0
 40
13.0
 40
14.0
 40
15.0
 40
16.0
 40
17.0
 40
18.0
 40
19.0
 40
20.0
 40
21.0
 40
22.0
 40
23.0
 40
24.0
 40
24.0
 40
24.0
 40
24.0
 10
385.0
 20
-3.0
 30
0.0
 10
383.0
 20
-5.0
 30
0.0
 10
384.0
 20
-7.0
 30
0.0
 10
386.0
 20
-8.0
 30
0.0
 10
390.0
 20
-6.0
 30
0.0
 10
390.0
 20
-1.0
 30
0.0
 10
387.0
 20
2.0
 30
0.0
 10
383.3842622808129477
 20
2.0657983499327344
 30
0.0
 10
379.0666948063071118
 20
-0.9270609221679074
 30
0.0
 10
377.9382396709249292
 20
-4.8030589958720107
 30
0.0
 10
379.1648213398186158
 20
-10.3472081392715545
 30
0.0
 10
383.973021481881915
 20
-13.2419408778606993
 30
0.0
 10
392.2647135636033795
 20
-12.3097388095014821
 30
0.0
 10
400.6054689120805392
 20
-7.2071590669036709
 30
0.0
 10
408.9952875273135078
 20
-7.0599692666364291
 30
0.0
 10
414.0
 20
-4.0
 30
0.0
 10
429.705864399523648
 20
1.6398688004732058
 30
0.0
 10
447.0
 20
4.0
 30
0.0
 10
453.0
 20
8.0
 30
0.0
 10
458.0
 20
8.0
 30
0.0
 10
462.0
 20
5.0
 30
0.0
 10
475.0
 20
-1.0
 30
0.0
 10
480.0
 20
-3.0
 30
0.0
 10
490.0
 20
-1.0
 30
0.0
 10
497.0
 20
2.0
 30
0.0
 10
500.0
 20
5.0
 30
0.0
 10
500.0
 20
5.0
 30
0.0
  0
LINE
  5
143
100
AcDbEntity
100
AcDbLine
  8
0
 62
256
370
-1
  6
BYLAYER
 10
710.0
 20
-284.0
 30
0.0
 11
713.0
 21
-284.0
 31
0.0
  0
LINE
  5
144
100
AcDbEntity
100
AcDbLine
  8
0
 62
256
370
-1
  6
BYLAYER
 10
713.0
 20
-284.0
 30
0.0
 11
713.0
 21
-286.0
 31
0.0
  0
LINE
  5
145
100
AcDbEntity
100
AcDbLine
  8
0
 62
256
370
-1
  6
BYLAYER
 10
713.0
 20
-286.0
 30
0.0
 11
710.0
 21
-286.0
 31
0.0
  0
ENDSEC
  0
SECTION
  2
OBJECTS
  0
DICTIONARY
  5
C
100
AcDbDictionary
280
0
281
1
  3
ACAD_GROUP
350
D
  3
ACAD_LAYOUT
350
1A
  3
ACAD_MLINESTYLE
350
17
  3
ACAD_PLOTSETTINGS
350
19
  3
ACAD_PLOTSTYLENAME
350
E
  3
AcDbVariableDictionary
350
146
  3
QCAD_OBJECTS
350
147
  0
DICTIONARY
  5
D
100
AcDbDictionary
280
0
281
1
  0
ACDBDICTIONARYWDFLT
  5
E
100
AcDbDictionary
281
1
  3
Normal
350
F
100
AcDbDictionaryWithDefault
340
F
  0
ACDBPLACEHOLDER
  5
F
  0
DICTIONARY
  5
17
100
AcDbDictionary
280
0
281
1
  3
Standard
350
18
  0
MLINESTYLE
  5
18
100
AcDbMlineStyle
  2
STANDARD
 70
0
  3

 62
256
 51
90.0
 52
90.0
 71
2
 49
0.5
 62
256
  6
BYLAYER
 49
-0.5
 62
256
  6
BYLAYER
  0
DICTIONARY
  5
19
100
AcDbDictionary
280
0
281
1
  0
DICTIONARY
  5
1A
100
AcDbDictionary
281
1
  3
Layout1
350
1E
  3
Layout2
350
26
  3
Model
350
22
  0
LAYOUT
  5
1E
100
AcDbPlotSettings
  1

  2
none_device
  4

  6

 40
0.0
 41
0.0
 42
0.0
 43
0.0
 44
0.0
 45
0.0
 46
0.0
 47
0.0
 48
0.0
 49
0.0
140
0.0
141
0.0
142
1.0
143
1.0
 70
688
 72
0
 73
0
 74
5
  7

 75
16
147
1.0
148
0.0
149
0.0
100
AcDbLayout
  1
Layout1
 70
1
 71
1
 10
0.0
 20
0.0
 11
420.0
 21
297.0
 12
0.0
 22
0.0
 32
0.0
 14
100000000000000000000.0
 24
100000000000000000000.0
 34
100000000000000000000.0
 15
-100000000000000000000.0
 25
-100000000000000000000.0
 35
-100000000000000000000.0
146
0.0
 13
0.0
 23
0.0
 33
0.0
 16
1.0
 26
0.0
 36
0.0
 17
0.0
 27
1.0
 37
0.0
 76
0
330
1B
  0
LAYOUT
  5
22
100
AcDbPlotSettings
  1

  2
none_device
  4

  6

 40
0.0
 41
0.0
 42
0.0
 43
0.0
 44
0.0
 45
0.0
 46
0.0
 47
0.0
 48
0.0
 49
0.0
140
0.0
141
0.0
142
1.0
143
1.0
 70
1712
 72
0
 73
0
 74
0
  7

 75
0
147
1.0
148
0.0
149
0.0
100
AcDbLayout
  1
Model
 70
1
 71
0
 10
0.0
 20
0.0
 11
12.0
 21
9.0
 12
0.0
 22
0.0
 32
0.0
 14
0.0
 24
0.0
 34
0.0
 15
0.0
 25
0.0
 35
0.0
146
0.0
 13
0.0
 23
0.0
 33
0.0
 16
1.0
 26
0.0
 36
0.0
 17
0.0
 27
1.0
 37
0.0
 76
0
330
1F
  0
LAYOUT
  5
26
100
AcDbPlotSettings
  1

  2
none_device
  4

  6

 40
0.0
 41
0.0
 42
0.0
 43
0.0
 44
0.0
 45
0.0
 46
0.0
 47
0.0
 48
0.0
 49
0.0
140
0.0
141
0.0
142
1.0
143
1.0
 70
688
 72
0
 73
0
 74
5
  7

 75
16
147
1.0
148
0.0
149
0.0
100
AcDbLayout
  1
Layout2
 70
1
 71
2
 10
0.0
 20
0.0
 11
12.0
 21
9.0
 12
0.0
 22
0.0
 32
0.0
 14
0.0
 24
0.0
 34
0.0
 15
0.0
 25
0.0
 35
0.0
146
0.0
 13
0.0
 23
0.0
 33
0.0
 16
1.0
 26
0.0
 36
0.0
 17
0.0
 27
1.0
 37
0.0
 76
0
330
23
  0
DICTIONARY
  5
146
100
AcDbDictionary
281
1
  3
DIMASSOC
350
149
  3
HIDETEXT
350
148
  0
DICTIONARYVAR
  5
148
100
DictionaryVariables
280
0
  1
2
  0
DICTIONARYVAR
  5
149
100
DictionaryVariables
280
0
  1
1
  0
DICTIONARY
  5
147
100
AcDbDictionary
281
1
  3
Grid/DisplayGrid00
350
14A
  3
Grid/DisplayGrid01
350
14B
  3
Grid/DisplayGrid02
350
14C
  3
Grid/DisplayGrid03
350
14D
  3
Grid/GridSpacingX00
350
14E
  3
Grid/GridSpacingX01
350
14F
  3
Grid/GridSpacingX02
350
150
  3
Grid/GridSpacingX03
350
151
  3
Grid/GridSpacingY00
350
152
  3
Grid/GridSpacingY01
350
153
  3
Grid/GridSpacingY02
350
154
  3
Grid/GridSpacingY03
350
155
  3
Grid/IsometricGrid00
350
156
  3
Grid/IsometricGrid01
350
157
  3
Grid/IsometricGrid02
350
158
  3
Grid/IsometricGrid03
350
159
  3
Grid/IsometricProjection00
350
15A
  3
Grid/IsometricProjection01
350
15B
  3
Grid/IsometricProjection02
350
15C
  3
Grid/IsometricProjection03
350
15D
  3
Grid/MetaGridSpacingX00
350
15E
  3
Grid/MetaGridSpacingX01
350
15F
  3
Grid/MetaGridSpacingX02
350
160
  3
Grid/MetaGridSpacingX03
350
161
  3
Grid/MetaGridSpacingY00
350
162
  3
Grid/MetaGridSpacingY01
350
163
  3
Grid/MetaGridSpacingY02
350
164
  3
Grid/MetaGridSpacingY03
350
165
  3
MultiPageSettings/Columns
350
166
  3
MultiPageSettings/GlueMarginsBottom
350
167
  3
MultiPageSettings/GlueMarginsLeft
350
168
  3
MultiPageSettings/GlueMarginsRight
350
169
  3
MultiPageSettings/GlueMarginsTop
350
16A
  3
MultiPageSettings/PrintCropMarks
350
16B
  3
MultiPageSettings/Rows
350
16C
  3
PageSettings/OffsetX
350
16D
  3
PageSettings/OffsetY
350
16E
  3
PageSettings/PageOrientation
350
16F
  3
PageSettings/PaperHeight
350
170
  3
PageSettings/PaperWidth
350
171
  3
PageSettings/Scale
350
172
  3
PageSettings/ShowPaperBorders
350
173
  3
UnitSettings/PaperUnit
350
174
  0
XRECORD
  5
14A
330
147
100
AcDbXrecord
280
1
290
1
  0
XRECORD
  5
14B
330
147
100
AcDbXrecord
280
1
290
1
  0
XRECORD
  5
14C
330
147
100
AcDbXrecord
280
1
290
1
  0
XRECORD
  5
14D
330
147
100
AcDbXrecord
280
1
290
1
  0
XRECORD
  5
14E
330
147
100
AcDbXrecord
280
1
1000
auto
  0
XRECORD
  5
14F
330
147
100
AcDbXrecord
280
1
1000
auto
  0
XRECORD
  5
150
330
147
100
AcDbXrecord
280
1
1000
auto
  0
XRECORD
  5
151
330
147
100
AcDbXrecord
280
1
1000
auto
  0
XRECORD
  5
152
330
147
100
AcDbXrecord
280
1
1000
auto
  0
XRECORD
  5
153
330
147
100
AcDbXrecord
280
1
1000
auto
  0
XRECORD
  5
154
330
147
100
AcDbXrecord
280
1
1000
auto
  0
XRECORD
  5
155
330
147
100
AcDbXrecord
280
1
1000
auto
  0
XRECORD
  5
156
330
147
100
AcDbXrecord
280
1
290
0
  0
XRECORD
  5
157
330
147
100
AcDbXrecord
280
1
290
0
  0
XRECORD
  5
158
330
147
100
AcDbXrecord
280
1
290
0
  0
XRECORD
  5
159
330
147
100
AcDbXrecord
280
1
290
0
  0
XRECORD
  5
15A
330
147
100
AcDbXrecord
280
1
 90
0
  0
XRECORD
  5
15B
330
147
100
AcDbXrecord
280
1
 90
0
  0
XRECORD
  5
15C
330
147
100
AcDbXrecord
280
1
 90
0
  0
XRECORD
  5
15D
330
147
100
AcDbXrecord
280
1
 90
0
  0
XRECORD
  5
15E
330
147
100
AcDbXrecord
280
1
1000
auto
  0
XRECORD
  5
15F
330
147
100
AcDbXrecord
280
1
1000
auto
  0
XRECORD
  5
160
330
147
100
AcDbXrecord
280
1
1000
auto
  0
XRECORD
  5
161
330
147
100
AcDbXrecord
280
1
1000
auto
  0
XRECORD
  5
162
330
147
100
AcDbXrecord
280
1
1000
auto
  0
XRECORD
  5
163
330
147
100
AcDbXrecord
280
1
1000
auto
  0
XRECORD
  5
164
330
147
100
AcDbXrecord
280
1
1000
auto
  0
XRECORD
  5
165
330
147
100
AcDbXrecord
280
1
1000
auto
  0
XRECORD
  5
166
330
147
100
AcDbXrecord
280
1
 90
1
  0
XRECORD
  5
167
330
147
100
AcDbXrecord
280
1
 40
10.0
  0
XRECORD
  5
168
330
147
100
AcDbXrecord
280
1
 40
10.0
  0
XRECORD
  5
169
330
147
100
AcDbXrecord
280
1
 40
10.0
  0
XRECORD
  5
16A
330
147
100
AcDbXrecord
280
1
 40
10.0
  0
XRECORD
  5
16B
330
147
100
AcDbXrecord
280
1
290
0
  0
XRECORD
  5
16C
330
147
100
AcDbXrecord
280
1
 90
1
  0
XRECORD
  5
16D
330
147
100
AcDbXrecord
280
1
 40
-215.4830896551726767
  0
XRECORD
  5
16E
330
147
100
AcDbXrecord
280
1
 40
-519.4107310344849111
  0
XRECORD
  5
16F
330
147
100
AcDbXrecord
280
1
1000
Landscape
  0
XRECORD
  5
170
330
147
100
AcDbXrecord
280
1
 40
279.3999999999999773
  0
XRECORD
  5
171
330
147
100
AcDbXrecord
280
1
 40
215.9000000000000057
  0
XRECORD
  5
172
330
147
100
AcDbXrecord
280
1
1000
1:3.5
  0
XRECORD
  5
173
330
147
100
AcDbXrecord
280
1
290
1
  0
XRECORD
  5
174
330
147
100
AcDbXrecord
280
1
 90
4
  0
ENDSEC
  0
EOF
