G04 (created by PCBNEW (2013-dec-23)-stable) date Thu 03 Jul 2014 07:48:38 AM MDT*
%MOIN*%
G04 Gerber Fmt 3.4, Leading zero omitted, Abs format*
%FSLAX34Y34*%
G01*
G70*
G90*
G04 APERTURE LIST*
%ADD10C,0.00590551*%
%ADD11C,0.005*%
%ADD12C,0.05*%
%ADD13C,0.011811*%
%ADD14C,0.01*%
%ADD15C,0.0039*%
%ADD16C,0.0031*%
%ADD17C,0.0001*%
%ADD18C,0.0075*%
%ADD19C,0.0043*%
%ADD20C,0.008*%
G04 APERTURE END LIST*
G54D10*
G54D11*
X29874Y-23702D02*
X29969Y-23702D01*
X29855Y-23759D02*
X29921Y-23559D01*
X29988Y-23759D01*
X30045Y-23578D02*
X30055Y-23569D01*
X30074Y-23559D01*
X30121Y-23559D01*
X30140Y-23569D01*
X30150Y-23578D01*
X30159Y-23598D01*
X30159Y-23617D01*
X30150Y-23645D01*
X30035Y-23759D01*
X30159Y-23759D01*
X15157Y-16341D02*
X15147Y-16360D01*
X15147Y-16388D01*
X15157Y-16417D01*
X15176Y-16436D01*
X15195Y-16446D01*
X15233Y-16455D01*
X15262Y-16455D01*
X15300Y-16446D01*
X15319Y-16436D01*
X15338Y-16417D01*
X15347Y-16388D01*
X15347Y-16369D01*
X15338Y-16341D01*
X15328Y-16331D01*
X15262Y-16331D01*
X15262Y-16369D01*
X15347Y-16246D02*
X15147Y-16246D01*
X15347Y-16131D01*
X15147Y-16131D01*
X15347Y-16036D02*
X15147Y-16036D01*
X15147Y-15988D01*
X15157Y-15960D01*
X15176Y-15941D01*
X15195Y-15931D01*
X15233Y-15922D01*
X15262Y-15922D01*
X15300Y-15931D01*
X15319Y-15941D01*
X15338Y-15960D01*
X15347Y-15988D01*
X15347Y-16036D01*
X28484Y-25152D02*
X28579Y-25152D01*
X28465Y-25209D02*
X28531Y-25009D01*
X28598Y-25209D01*
X28703Y-25009D02*
X28722Y-25009D01*
X28741Y-25019D01*
X28750Y-25028D01*
X28760Y-25048D01*
X28769Y-25086D01*
X28769Y-25133D01*
X28760Y-25171D01*
X28750Y-25190D01*
X28741Y-25200D01*
X28722Y-25209D01*
X28703Y-25209D01*
X28684Y-25200D01*
X28674Y-25190D01*
X28665Y-25171D01*
X28655Y-25133D01*
X28655Y-25086D01*
X28665Y-25048D01*
X28674Y-25028D01*
X28684Y-25019D01*
X28703Y-25009D01*
X31652Y-15346D02*
X31680Y-15355D01*
X31690Y-15365D01*
X31700Y-15384D01*
X31700Y-15412D01*
X31690Y-15431D01*
X31680Y-15441D01*
X31661Y-15450D01*
X31585Y-15450D01*
X31585Y-15250D01*
X31652Y-15250D01*
X31671Y-15260D01*
X31680Y-15270D01*
X31690Y-15289D01*
X31690Y-15308D01*
X31680Y-15327D01*
X31671Y-15336D01*
X31652Y-15346D01*
X31585Y-15346D01*
X31776Y-15393D02*
X31871Y-15393D01*
X31757Y-15450D02*
X31823Y-15250D01*
X31890Y-15450D01*
X31928Y-15250D02*
X32042Y-15250D01*
X31985Y-15450D02*
X31985Y-15250D01*
X32091Y-15040D02*
X32215Y-15040D01*
X32149Y-15117D01*
X32177Y-15117D01*
X32196Y-15126D01*
X32206Y-15136D01*
X32215Y-15155D01*
X32215Y-15202D01*
X32206Y-15221D01*
X32196Y-15231D01*
X32177Y-15240D01*
X32120Y-15240D01*
X32101Y-15231D01*
X32091Y-15221D01*
X32282Y-15107D02*
X32330Y-15240D01*
X32377Y-15107D01*
X32434Y-15040D02*
X32558Y-15040D01*
X32491Y-15117D01*
X32520Y-15117D01*
X32539Y-15126D01*
X32549Y-15136D01*
X32558Y-15155D01*
X32558Y-15202D01*
X32549Y-15221D01*
X32539Y-15231D01*
X32520Y-15240D01*
X32463Y-15240D01*
X32444Y-15231D01*
X32434Y-15221D01*
X32327Y-15320D02*
X32308Y-15310D01*
X32280Y-15310D01*
X32251Y-15320D01*
X32232Y-15339D01*
X32222Y-15358D01*
X32213Y-15396D01*
X32213Y-15425D01*
X32222Y-15463D01*
X32232Y-15482D01*
X32251Y-15501D01*
X32280Y-15510D01*
X32299Y-15510D01*
X32327Y-15501D01*
X32337Y-15491D01*
X32337Y-15425D01*
X32299Y-15425D01*
X32422Y-15510D02*
X32422Y-15310D01*
X32537Y-15510D01*
X32537Y-15310D01*
X32632Y-15510D02*
X32632Y-15310D01*
X32680Y-15310D01*
X32708Y-15320D01*
X32727Y-15339D01*
X32737Y-15358D01*
X32746Y-15396D01*
X32746Y-15425D01*
X32737Y-15463D01*
X32727Y-15482D01*
X32708Y-15501D01*
X32680Y-15510D01*
X32632Y-15510D01*
X31978Y-21459D02*
X32102Y-21459D01*
X32035Y-21536D01*
X32064Y-21536D01*
X32083Y-21545D01*
X32093Y-21555D01*
X32102Y-21574D01*
X32102Y-21621D01*
X32093Y-21640D01*
X32083Y-21650D01*
X32064Y-21659D01*
X32007Y-21659D01*
X31988Y-21650D01*
X31978Y-21640D01*
X32169Y-21526D02*
X32216Y-21659D01*
X32264Y-21526D01*
X32321Y-21459D02*
X32445Y-21459D01*
X32378Y-21536D01*
X32407Y-21536D01*
X32426Y-21545D01*
X32435Y-21555D01*
X32445Y-21574D01*
X32445Y-21621D01*
X32435Y-21640D01*
X32426Y-21650D01*
X32407Y-21659D01*
X32350Y-21659D01*
X32331Y-21650D01*
X32321Y-21640D01*
X29194Y-24452D02*
X29289Y-24452D01*
X29175Y-24509D02*
X29241Y-24309D01*
X29308Y-24509D01*
X29479Y-24509D02*
X29365Y-24509D01*
X29422Y-24509D02*
X29422Y-24309D01*
X29403Y-24338D01*
X29384Y-24357D01*
X29365Y-24367D01*
X32779Y-20825D02*
X32807Y-20834D01*
X32817Y-20844D01*
X32826Y-20863D01*
X32826Y-20891D01*
X32817Y-20910D01*
X32807Y-20920D01*
X32788Y-20929D01*
X32712Y-20929D01*
X32712Y-20729D01*
X32779Y-20729D01*
X32798Y-20739D01*
X32807Y-20748D01*
X32817Y-20768D01*
X32817Y-20787D01*
X32807Y-20806D01*
X32798Y-20815D01*
X32779Y-20825D01*
X32712Y-20825D01*
X32903Y-20872D02*
X32998Y-20872D01*
X32884Y-20929D02*
X32950Y-20729D01*
X33017Y-20929D01*
X33055Y-20729D02*
X33169Y-20729D01*
X33112Y-20929D02*
X33112Y-20729D01*
X32794Y-19409D02*
X32775Y-19399D01*
X32746Y-19399D01*
X32718Y-19409D01*
X32699Y-19428D01*
X32689Y-19447D01*
X32680Y-19485D01*
X32680Y-19514D01*
X32689Y-19552D01*
X32699Y-19571D01*
X32718Y-19590D01*
X32746Y-19599D01*
X32765Y-19599D01*
X32794Y-19590D01*
X32804Y-19580D01*
X32804Y-19514D01*
X32765Y-19514D01*
X32889Y-19599D02*
X32889Y-19399D01*
X33004Y-19599D01*
X33004Y-19399D01*
X33099Y-19599D02*
X33099Y-19399D01*
X33146Y-19399D01*
X33175Y-19409D01*
X33194Y-19428D01*
X33204Y-19447D01*
X33213Y-19485D01*
X33213Y-19514D01*
X33204Y-19552D01*
X33194Y-19571D01*
X33175Y-19590D01*
X33146Y-19599D01*
X33099Y-19599D01*
X31264Y-22360D02*
X31292Y-22369D01*
X31340Y-22369D01*
X31359Y-22360D01*
X31368Y-22350D01*
X31378Y-22331D01*
X31378Y-22312D01*
X31368Y-22293D01*
X31359Y-22284D01*
X31340Y-22274D01*
X31302Y-22265D01*
X31283Y-22255D01*
X31273Y-22246D01*
X31264Y-22227D01*
X31264Y-22208D01*
X31273Y-22188D01*
X31283Y-22179D01*
X31302Y-22169D01*
X31349Y-22169D01*
X31378Y-22179D01*
X31464Y-22369D02*
X31464Y-22169D01*
X31511Y-22169D01*
X31540Y-22179D01*
X31559Y-22198D01*
X31568Y-22217D01*
X31578Y-22255D01*
X31578Y-22284D01*
X31568Y-22322D01*
X31559Y-22341D01*
X31540Y-22360D01*
X31511Y-22369D01*
X31464Y-22369D01*
X31654Y-22312D02*
X31749Y-22312D01*
X31635Y-22369D02*
X31702Y-22169D01*
X31768Y-22369D01*
X30588Y-23050D02*
X30617Y-23059D01*
X30665Y-23059D01*
X30684Y-23050D01*
X30693Y-23040D01*
X30703Y-23021D01*
X30703Y-23002D01*
X30693Y-22983D01*
X30684Y-22974D01*
X30665Y-22964D01*
X30626Y-22955D01*
X30607Y-22945D01*
X30598Y-22936D01*
X30588Y-22917D01*
X30588Y-22898D01*
X30598Y-22878D01*
X30607Y-22869D01*
X30626Y-22859D01*
X30674Y-22859D01*
X30703Y-22869D01*
X30903Y-23040D02*
X30893Y-23050D01*
X30865Y-23059D01*
X30845Y-23059D01*
X30817Y-23050D01*
X30798Y-23031D01*
X30788Y-23012D01*
X30779Y-22974D01*
X30779Y-22945D01*
X30788Y-22907D01*
X30798Y-22888D01*
X30817Y-22869D01*
X30845Y-22859D01*
X30865Y-22859D01*
X30893Y-22869D01*
X30903Y-22878D01*
X31084Y-23059D02*
X30988Y-23059D01*
X30988Y-22859D01*
G54D12*
X17100Y-23719D02*
X17004Y-23814D01*
X17100Y-23909D01*
X17195Y-23814D01*
X17100Y-23719D01*
X17100Y-23909D01*
G54D13*
X23441Y-7403D02*
X22991Y-7403D01*
X24441Y-7403D02*
X23991Y-7403D01*
X24216Y-7628D02*
X24216Y-7178D01*
G54D14*
X29663Y-6916D02*
X29717Y-6970D01*
X29730Y-7010D01*
X29730Y-7064D01*
X29690Y-7132D01*
X29595Y-7226D01*
X29528Y-7266D01*
X29474Y-7266D01*
X29434Y-7253D01*
X29380Y-7199D01*
X29366Y-7158D01*
X29366Y-7105D01*
X29407Y-7037D01*
X29501Y-6943D01*
X29568Y-6903D01*
X29622Y-6903D01*
X29663Y-6916D01*
X29622Y-7441D02*
X29905Y-7158D01*
X29784Y-7603D01*
X30067Y-7320D01*
X31239Y-8402D02*
X31293Y-8456D01*
X31306Y-8497D01*
X31306Y-8551D01*
X31266Y-8618D01*
X31172Y-8712D01*
X31104Y-8753D01*
X31051Y-8753D01*
X31010Y-8739D01*
X30956Y-8685D01*
X30943Y-8645D01*
X30943Y-8591D01*
X30983Y-8524D01*
X31077Y-8429D01*
X31145Y-8389D01*
X31199Y-8389D01*
X31239Y-8402D01*
X31441Y-8874D02*
X31347Y-8779D01*
X31199Y-8928D02*
X31482Y-8645D01*
X31616Y-8779D01*
X31684Y-9116D02*
X31589Y-9022D01*
X31441Y-9170D02*
X31724Y-8887D01*
X31859Y-9022D01*
X32182Y-9318D02*
X31576Y-9439D01*
X31980Y-9709D02*
X32263Y-9426D01*
X32370Y-9534D01*
X32384Y-9574D01*
X32384Y-9601D01*
X32370Y-9641D01*
X32330Y-9682D01*
X32290Y-9695D01*
X32263Y-9695D01*
X32222Y-9682D01*
X32115Y-9574D01*
X32424Y-10153D02*
X32465Y-9924D01*
X32263Y-9992D02*
X32546Y-9709D01*
X32653Y-9817D01*
X32667Y-9857D01*
X32667Y-9884D01*
X32653Y-9924D01*
X32613Y-9965D01*
X32572Y-9978D01*
X32546Y-9978D01*
X32505Y-9965D01*
X32397Y-9857D01*
X32882Y-10046D02*
X32936Y-10099D01*
X32950Y-10140D01*
X32950Y-10194D01*
X32909Y-10261D01*
X32815Y-10355D01*
X32748Y-10396D01*
X32694Y-10396D01*
X32653Y-10382D01*
X32599Y-10328D01*
X32586Y-10288D01*
X32586Y-10234D01*
X32626Y-10167D01*
X32721Y-10072D01*
X32788Y-10032D01*
X32842Y-10032D01*
X32882Y-10046D01*
X33259Y-10450D02*
X33246Y-10409D01*
X33206Y-10369D01*
X33152Y-10342D01*
X33098Y-10342D01*
X33057Y-10355D01*
X32990Y-10396D01*
X32950Y-10436D01*
X32909Y-10503D01*
X32896Y-10544D01*
X32896Y-10598D01*
X32923Y-10652D01*
X32950Y-10679D01*
X33003Y-10706D01*
X33030Y-10706D01*
X33125Y-10611D01*
X33071Y-10557D01*
G54D10*
X31466Y-15838D02*
G75*
G03X31766Y-16138I300J0D01*
G74*
G01*
X31466Y-15838D02*
X31466Y-14738D01*
X31766Y-16138D02*
X32866Y-16138D01*
X32266Y-14738D02*
X32866Y-15338D01*
X23026Y-23525D02*
X23026Y-23328D01*
X23026Y-24509D02*
X23026Y-24312D01*
X23026Y-24509D02*
G75*
G03X23026Y-23328I590J590D01*
G74*
G01*
X28693Y-7026D02*
X14904Y-20815D01*
X14904Y-20815D02*
X18440Y-24351D01*
X18440Y-24351D02*
X32228Y-10562D01*
X30991Y-9325D02*
X30461Y-9855D01*
X30461Y-9855D02*
X29400Y-8794D01*
X29400Y-8794D02*
X29930Y-8264D01*
X32228Y-10562D02*
X28693Y-7026D01*
X20480Y-13310D02*
X19088Y-14702D01*
X18253Y-13867D02*
X19645Y-12475D01*
X20480Y-13310D02*
G75*
G03X19645Y-12475I-417J417D01*
G74*
G01*
X18253Y-13867D02*
G75*
G03X19088Y-14702I417J-417D01*
G74*
G01*
G54D15*
X28287Y-18492D02*
X28004Y-18775D01*
X28004Y-18775D02*
X27580Y-18351D01*
X27580Y-18351D02*
X27863Y-18068D01*
X28146Y-17785D02*
X28429Y-17502D01*
X28429Y-17502D02*
X28853Y-17926D01*
X28853Y-17926D02*
X28570Y-18209D01*
X21066Y-23515D02*
X21349Y-23232D01*
X21349Y-23232D02*
X21773Y-23656D01*
X21773Y-23656D02*
X21490Y-23939D01*
X21207Y-24222D02*
X20924Y-24505D01*
X20924Y-24505D02*
X20500Y-24081D01*
X20500Y-24081D02*
X20783Y-23798D01*
X32266Y-13288D02*
X31866Y-13288D01*
X31866Y-13288D02*
X31866Y-12688D01*
X31866Y-12688D02*
X32266Y-12688D01*
X32666Y-12688D02*
X33066Y-12688D01*
X33066Y-12688D02*
X33066Y-13288D01*
X33066Y-13288D02*
X32666Y-13288D01*
X30967Y-14382D02*
X30684Y-14665D01*
X30684Y-14665D02*
X30260Y-14241D01*
X30260Y-14241D02*
X30543Y-13958D01*
X30826Y-13675D02*
X31109Y-13392D01*
X31109Y-13392D02*
X31533Y-13816D01*
X31533Y-13816D02*
X31250Y-14099D01*
X32416Y-21635D02*
X32699Y-21352D01*
X32699Y-21352D02*
X33123Y-21776D01*
X33123Y-21776D02*
X32840Y-22059D01*
X32557Y-22342D02*
X32274Y-22625D01*
X32274Y-22625D02*
X31850Y-22201D01*
X31850Y-22201D02*
X32133Y-21918D01*
X30057Y-25002D02*
X29774Y-25285D01*
X29774Y-25285D02*
X29350Y-24861D01*
X29350Y-24861D02*
X29633Y-24578D01*
X29916Y-24295D02*
X30199Y-24012D01*
X30199Y-24012D02*
X30623Y-24436D01*
X30623Y-24436D02*
X30340Y-24719D01*
X23689Y-9226D02*
X23972Y-8943D01*
X23972Y-8943D02*
X24396Y-9367D01*
X24396Y-9367D02*
X24113Y-9650D01*
X23830Y-9933D02*
X23547Y-10216D01*
X23547Y-10216D02*
X23123Y-9792D01*
X23123Y-9792D02*
X23406Y-9509D01*
X22850Y-10893D02*
X22567Y-11176D01*
X22567Y-11176D02*
X22143Y-10752D01*
X22143Y-10752D02*
X22426Y-10469D01*
X22709Y-10186D02*
X22992Y-9903D01*
X22992Y-9903D02*
X23416Y-10327D01*
X23416Y-10327D02*
X23133Y-10610D01*
X21629Y-11246D02*
X21912Y-10963D01*
X21912Y-10963D02*
X22336Y-11387D01*
X22336Y-11387D02*
X22053Y-11670D01*
X21770Y-11953D02*
X21487Y-12236D01*
X21487Y-12236D02*
X21063Y-11812D01*
X21063Y-11812D02*
X21346Y-11529D01*
X17060Y-16760D02*
X17060Y-17160D01*
X17060Y-17160D02*
X16460Y-17160D01*
X16460Y-17160D02*
X16460Y-16760D01*
X16460Y-16360D02*
X16460Y-15960D01*
X16460Y-15960D02*
X17060Y-15960D01*
X17060Y-15960D02*
X17060Y-16360D01*
X14666Y-18588D02*
X14666Y-18988D01*
X14666Y-18988D02*
X14066Y-18988D01*
X14066Y-18988D02*
X14066Y-18588D01*
X14066Y-18188D02*
X14066Y-17788D01*
X14066Y-17788D02*
X14666Y-17788D01*
X14666Y-17788D02*
X14666Y-18188D01*
X15466Y-17988D02*
X15466Y-18388D01*
X15466Y-18388D02*
X14866Y-18388D01*
X14866Y-18388D02*
X14866Y-17988D01*
X14866Y-17588D02*
X14866Y-17188D01*
X14866Y-17188D02*
X15466Y-17188D01*
X15466Y-17188D02*
X15466Y-17588D01*
X16266Y-17388D02*
X16266Y-17788D01*
X16266Y-17788D02*
X15666Y-17788D01*
X15666Y-17788D02*
X15666Y-17388D01*
X15666Y-16988D02*
X15666Y-16588D01*
X15666Y-16588D02*
X16266Y-16588D01*
X16266Y-16588D02*
X16266Y-16988D01*
G54D16*
X17070Y-15603D02*
G75*
G03X17070Y-15603I-62J0D01*
G74*
G01*
X16670Y-14640D02*
X17070Y-14640D01*
X16670Y-15665D02*
X17070Y-15665D01*
X17070Y-14640D02*
X17070Y-15665D01*
X16670Y-15665D02*
X16670Y-14640D01*
G54D10*
X15966Y-15588D02*
G75*
G03X15966Y-15588I-1000J0D01*
G74*
G01*
G54D17*
G36*
X15383Y-10267D02*
X15383Y-10285D01*
X15383Y-10305D01*
X15364Y-10324D01*
X15325Y-10286D01*
X15287Y-10247D01*
X15248Y-10209D01*
X15210Y-10247D01*
X15171Y-10286D01*
X15210Y-10324D01*
X15248Y-10363D01*
X15287Y-10324D01*
X15325Y-10286D01*
X15364Y-10324D01*
X15325Y-10363D01*
X15267Y-10420D01*
X15248Y-10420D01*
X15229Y-10420D01*
X15171Y-10362D01*
X15114Y-10305D01*
X15113Y-10286D01*
X15114Y-10267D01*
X15172Y-10209D01*
X15229Y-10152D01*
X15248Y-10151D01*
X15267Y-10152D01*
X15325Y-10209D01*
X15383Y-10267D01*
X15383Y-10267D01*
X15383Y-10267D01*
G37*
G36*
X15546Y-10103D02*
X15545Y-10123D01*
X15546Y-10142D01*
X15527Y-10161D01*
X15412Y-10045D01*
X15373Y-10084D01*
X15335Y-10123D01*
X15373Y-10161D01*
X15412Y-10200D01*
X15449Y-10161D01*
X15487Y-10123D01*
X15450Y-10084D01*
X15412Y-10045D01*
X15527Y-10161D01*
X15488Y-10200D01*
X15431Y-10257D01*
X15411Y-10257D01*
X15393Y-10257D01*
X15335Y-10199D01*
X15276Y-10140D01*
X15277Y-10123D01*
X15277Y-10104D01*
X15335Y-10046D01*
X15393Y-9988D01*
X15411Y-9988D01*
X15431Y-9988D01*
X15488Y-10045D01*
X15546Y-10103D01*
X15546Y-10103D01*
X15546Y-10103D01*
G37*
G36*
X15709Y-9939D02*
X15709Y-9959D01*
X15709Y-9979D01*
X15690Y-9998D01*
X15651Y-9960D01*
X15613Y-9921D01*
X15574Y-9883D01*
X15536Y-9921D01*
X15498Y-9959D01*
X15536Y-9997D01*
X15575Y-10036D01*
X15613Y-9998D01*
X15651Y-9960D01*
X15690Y-9998D01*
X15651Y-10036D01*
X15594Y-10094D01*
X15574Y-10094D01*
X15555Y-10094D01*
X15497Y-10036D01*
X15440Y-9979D01*
X15439Y-9960D01*
X15440Y-9941D01*
X15498Y-9883D01*
X15556Y-9825D01*
X15574Y-9825D01*
X15594Y-9825D01*
X15651Y-9882D01*
X15709Y-9939D01*
X15709Y-9939D01*
X15709Y-9939D01*
G37*
G36*
X15872Y-9777D02*
X15871Y-9797D01*
X15872Y-9816D01*
X15853Y-9835D01*
X15815Y-9797D01*
X15776Y-9758D01*
X15738Y-9719D01*
X15699Y-9758D01*
X15661Y-9797D01*
X15698Y-9834D01*
X15706Y-9842D01*
X15714Y-9850D01*
X15720Y-9856D01*
X15726Y-9862D01*
X15731Y-9867D01*
X15734Y-9870D01*
X15736Y-9872D01*
X15737Y-9873D01*
X15738Y-9871D01*
X15741Y-9869D01*
X15744Y-9866D01*
X15750Y-9862D01*
X15755Y-9856D01*
X15762Y-9850D01*
X15770Y-9842D01*
X15777Y-9835D01*
X15815Y-9797D01*
X15853Y-9835D01*
X15814Y-9874D01*
X15757Y-9931D01*
X15737Y-9931D01*
X15719Y-9931D01*
X15661Y-9873D01*
X15603Y-9816D01*
X15603Y-9797D01*
X15603Y-9777D01*
X15661Y-9719D01*
X15719Y-9661D01*
X15738Y-9661D01*
X15756Y-9661D01*
X15814Y-9719D01*
X15872Y-9777D01*
X15872Y-9777D01*
X15872Y-9777D01*
G37*
G36*
X16035Y-9614D02*
X16035Y-9633D01*
X16035Y-9652D01*
X16016Y-9671D01*
X15978Y-9633D01*
X15939Y-9594D01*
X15901Y-9556D01*
X15862Y-9595D01*
X15823Y-9634D01*
X15861Y-9672D01*
X15900Y-9711D01*
X15939Y-9672D01*
X15978Y-9633D01*
X16016Y-9671D01*
X15977Y-9710D01*
X15919Y-9768D01*
X15900Y-9768D01*
X15881Y-9768D01*
X15823Y-9710D01*
X15766Y-9653D01*
X15766Y-9633D01*
X15767Y-9614D01*
X15824Y-9557D01*
X15882Y-9499D01*
X15900Y-9499D01*
X15920Y-9499D01*
X15977Y-9556D01*
X16035Y-9614D01*
X16035Y-9614D01*
X16035Y-9614D01*
G37*
G36*
X17060Y-8046D02*
X17061Y-8047D01*
X17062Y-8050D01*
X17066Y-8054D01*
X17069Y-8060D01*
X17075Y-8067D01*
X17081Y-8075D01*
X17088Y-8084D01*
X17095Y-8094D01*
X17102Y-8104D01*
X17110Y-8115D01*
X17119Y-8126D01*
X17126Y-8138D01*
X17136Y-8150D01*
X17144Y-8162D01*
X17152Y-8174D01*
X17160Y-8185D01*
X17168Y-8196D01*
X17175Y-8206D01*
X17182Y-8215D01*
X17187Y-8223D01*
X17193Y-8230D01*
X17197Y-8236D01*
X17201Y-8241D01*
X17202Y-8244D01*
X17204Y-8245D01*
X17210Y-8257D01*
X17213Y-8269D01*
X17214Y-8270D01*
X17045Y-8101D01*
X17044Y-8100D01*
X17044Y-8101D01*
X17042Y-8102D01*
X17039Y-8104D01*
X17036Y-8107D01*
X17032Y-8111D01*
X17025Y-8118D01*
X17024Y-8119D01*
X17017Y-8126D01*
X17011Y-8132D01*
X17006Y-8137D01*
X17003Y-8141D01*
X17001Y-8145D01*
X17000Y-8148D01*
X16998Y-8150D01*
X16998Y-8154D01*
X16998Y-8155D01*
X16997Y-8160D01*
X16998Y-8167D01*
X16999Y-8174D01*
X17001Y-8182D01*
X17003Y-8186D01*
X17007Y-8193D01*
X17011Y-8201D01*
X17018Y-8210D01*
X17025Y-8220D01*
X17032Y-8230D01*
X17039Y-8239D01*
X17047Y-8247D01*
X17054Y-8252D01*
X17061Y-8254D01*
X17068Y-8256D01*
X17076Y-8254D01*
X17079Y-8252D01*
X17083Y-8250D01*
X17086Y-8247D01*
X17091Y-8242D01*
X17096Y-8237D01*
X17100Y-8232D01*
X17102Y-8227D01*
X17105Y-8223D01*
X17109Y-8218D01*
X17112Y-8213D01*
X17115Y-8209D01*
X17117Y-8205D01*
X17117Y-8203D01*
X17117Y-8203D01*
X17117Y-8201D01*
X17115Y-8199D01*
X17112Y-8195D01*
X17108Y-8189D01*
X17105Y-8183D01*
X17099Y-8176D01*
X17093Y-8167D01*
X17087Y-8160D01*
X17081Y-8151D01*
X17076Y-8143D01*
X17069Y-8135D01*
X17064Y-8126D01*
X17059Y-8120D01*
X17054Y-8113D01*
X17051Y-8108D01*
X17047Y-8104D01*
X17046Y-8102D01*
X17045Y-8101D01*
X17214Y-8270D01*
X17216Y-8280D01*
X17216Y-8292D01*
X17214Y-8304D01*
X17213Y-8308D01*
X17211Y-8313D01*
X17209Y-8317D01*
X17206Y-8322D01*
X17203Y-8326D01*
X17199Y-8331D01*
X17194Y-8336D01*
X17189Y-8342D01*
X17182Y-8348D01*
X17173Y-8355D01*
X17163Y-8363D01*
X17152Y-8373D01*
X17151Y-8374D01*
X17143Y-8380D01*
X17136Y-8386D01*
X17129Y-8392D01*
X17124Y-8396D01*
X17119Y-8399D01*
X17117Y-8401D01*
X17115Y-8403D01*
X17115Y-8403D01*
X17114Y-8401D01*
X17112Y-8399D01*
X17109Y-8396D01*
X17106Y-8392D01*
X17105Y-8392D01*
X17097Y-8380D01*
X17131Y-8344D01*
X17167Y-8308D01*
X17170Y-8302D01*
X17171Y-8293D01*
X17171Y-8285D01*
X17170Y-8276D01*
X17167Y-8273D01*
X17167Y-8271D01*
X17165Y-8267D01*
X17161Y-8262D01*
X17158Y-8257D01*
X17154Y-8251D01*
X17150Y-8245D01*
X17146Y-8240D01*
X17143Y-8235D01*
X17140Y-8232D01*
X17138Y-8230D01*
X17137Y-8230D01*
X17136Y-8230D01*
X17135Y-8233D01*
X17134Y-8237D01*
X17133Y-8238D01*
X17129Y-8247D01*
X17126Y-8254D01*
X17122Y-8260D01*
X17118Y-8266D01*
X17112Y-8272D01*
X17107Y-8277D01*
X17101Y-8283D01*
X17097Y-8286D01*
X17095Y-8289D01*
X17091Y-8291D01*
X17089Y-8293D01*
X17086Y-8295D01*
X17077Y-8298D01*
X17068Y-8300D01*
X17059Y-8300D01*
X17054Y-8300D01*
X17049Y-8299D01*
X17044Y-8297D01*
X17039Y-8294D01*
X17035Y-8293D01*
X17031Y-8290D01*
X17029Y-8288D01*
X17025Y-8286D01*
X17023Y-8283D01*
X17018Y-8279D01*
X17013Y-8274D01*
X17011Y-8271D01*
X16996Y-8256D01*
X16984Y-8241D01*
X16974Y-8226D01*
X16966Y-8211D01*
X16960Y-8196D01*
X16957Y-8186D01*
X16956Y-8179D01*
X16955Y-8169D01*
X16956Y-8160D01*
X16957Y-8152D01*
X16958Y-8147D01*
X16961Y-8140D01*
X16965Y-8132D01*
X16969Y-8124D01*
X16974Y-8119D01*
X16975Y-8116D01*
X16979Y-8111D01*
X16985Y-8107D01*
X16991Y-8102D01*
X16997Y-8095D01*
X17004Y-8090D01*
X17011Y-8084D01*
X17017Y-8078D01*
X17023Y-8073D01*
X17023Y-8073D01*
X17028Y-8070D01*
X17033Y-8066D01*
X17039Y-8062D01*
X17044Y-8058D01*
X17049Y-8054D01*
X17053Y-8051D01*
X17056Y-8049D01*
X17059Y-8047D01*
X17060Y-8046D01*
X17060Y-8046D01*
X17060Y-8046D01*
G37*
G36*
X16443Y-8761D02*
X16450Y-8768D01*
X16457Y-8777D01*
X16465Y-8787D01*
X16469Y-8793D01*
X16477Y-8805D01*
X16483Y-8816D01*
X16488Y-8826D01*
X16491Y-8837D01*
X16494Y-8847D01*
X16494Y-8848D01*
X16496Y-8861D01*
X16495Y-8873D01*
X16495Y-8876D01*
X16412Y-8792D01*
X16406Y-8788D01*
X16401Y-8783D01*
X16397Y-8780D01*
X16396Y-8780D01*
X16388Y-8776D01*
X16381Y-8775D01*
X16375Y-8775D01*
X16368Y-8778D01*
X16347Y-8799D01*
X16326Y-8820D01*
X16362Y-8870D01*
X16368Y-8879D01*
X16375Y-8889D01*
X16380Y-8897D01*
X16386Y-8904D01*
X16391Y-8911D01*
X16395Y-8915D01*
X16397Y-8920D01*
X16399Y-8921D01*
X16400Y-8922D01*
X16401Y-8922D01*
X16405Y-8921D01*
X16409Y-8919D01*
X16414Y-8917D01*
X16420Y-8913D01*
X16426Y-8910D01*
X16430Y-8906D01*
X16434Y-8903D01*
X16436Y-8900D01*
X16439Y-8896D01*
X16443Y-8893D01*
X16443Y-8892D01*
X16449Y-8884D01*
X16451Y-8876D01*
X16453Y-8867D01*
X16452Y-8858D01*
X16450Y-8850D01*
X16447Y-8845D01*
X16443Y-8837D01*
X16438Y-8829D01*
X16434Y-8821D01*
X16429Y-8814D01*
X16425Y-8809D01*
X16421Y-8804D01*
X16417Y-8799D01*
X16412Y-8792D01*
X16495Y-8876D01*
X16492Y-8886D01*
X16487Y-8896D01*
X16479Y-8907D01*
X16470Y-8918D01*
X16461Y-8925D01*
X16450Y-8934D01*
X16438Y-8941D01*
X16429Y-8946D01*
X16427Y-8947D01*
X16423Y-8948D01*
X16420Y-8949D01*
X16419Y-8950D01*
X16419Y-8950D01*
X16420Y-8951D01*
X16422Y-8954D01*
X16424Y-8958D01*
X16429Y-8964D01*
X16433Y-8969D01*
X16438Y-8977D01*
X16443Y-8984D01*
X16449Y-8993D01*
X16455Y-9000D01*
X16460Y-9008D01*
X16466Y-9017D01*
X16471Y-9023D01*
X16476Y-9029D01*
X16480Y-9035D01*
X16483Y-9039D01*
X16484Y-9042D01*
X16485Y-9043D01*
X16485Y-9044D01*
X16483Y-9046D01*
X16480Y-9049D01*
X16476Y-9053D01*
X16471Y-9058D01*
X16470Y-9059D01*
X16454Y-9075D01*
X16453Y-9073D01*
X16452Y-9072D01*
X16450Y-9069D01*
X16447Y-9064D01*
X16443Y-9058D01*
X16438Y-9051D01*
X16431Y-9042D01*
X16424Y-9032D01*
X16416Y-9020D01*
X16407Y-9009D01*
X16398Y-8995D01*
X16388Y-8982D01*
X16378Y-8968D01*
X16367Y-8953D01*
X16365Y-8949D01*
X16354Y-8935D01*
X16344Y-8920D01*
X16334Y-8907D01*
X16325Y-8894D01*
X16316Y-8881D01*
X16308Y-8870D01*
X16301Y-8860D01*
X16295Y-8851D01*
X16289Y-8843D01*
X16285Y-8837D01*
X16281Y-8832D01*
X16279Y-8829D01*
X16278Y-8827D01*
X16278Y-8827D01*
X16279Y-8826D01*
X16280Y-8824D01*
X16282Y-8820D01*
X16283Y-8819D01*
X16291Y-8809D01*
X16300Y-8798D01*
X16309Y-8787D01*
X16320Y-8775D01*
X16330Y-8766D01*
X16337Y-8759D01*
X16342Y-8753D01*
X16347Y-8749D01*
X16350Y-8745D01*
X16352Y-8743D01*
X16354Y-8741D01*
X16357Y-8739D01*
X16358Y-8739D01*
X16366Y-8734D01*
X16373Y-8732D01*
X16381Y-8731D01*
X16385Y-8730D01*
X16395Y-8732D01*
X16405Y-8734D01*
X16414Y-8739D01*
X16425Y-8745D01*
X16435Y-8754D01*
X16443Y-8761D01*
X16443Y-8761D01*
X16443Y-8761D01*
G37*
G36*
X16535Y-8432D02*
X16535Y-8433D01*
X16536Y-8436D01*
X16537Y-8442D01*
X16540Y-8449D01*
X16543Y-8457D01*
X16546Y-8467D01*
X16551Y-8479D01*
X16555Y-8492D01*
X16559Y-8506D01*
X16565Y-8522D01*
X16571Y-8539D01*
X16576Y-8556D01*
X16583Y-8573D01*
X16589Y-8592D01*
X16593Y-8602D01*
X16651Y-8771D01*
X16634Y-8787D01*
X16618Y-8805D01*
X16615Y-8797D01*
X16615Y-8795D01*
X16613Y-8792D01*
X16611Y-8785D01*
X16609Y-8778D01*
X16605Y-8768D01*
X16602Y-8758D01*
X16598Y-8745D01*
X16593Y-8732D01*
X16588Y-8717D01*
X16582Y-8701D01*
X16576Y-8684D01*
X16570Y-8667D01*
X16564Y-8648D01*
X16558Y-8629D01*
X16557Y-8627D01*
X16501Y-8465D01*
X16518Y-8448D01*
X16523Y-8443D01*
X16528Y-8439D01*
X16531Y-8435D01*
X16533Y-8433D01*
X16535Y-8432D01*
X16535Y-8432D01*
X16535Y-8432D01*
X16535Y-8432D01*
G37*
G36*
X16653Y-8315D02*
X16653Y-8316D01*
X16654Y-8319D01*
X16656Y-8324D01*
X16658Y-8332D01*
X16661Y-8341D01*
X16665Y-8351D01*
X16669Y-8363D01*
X16673Y-8375D01*
X16678Y-8390D01*
X16684Y-8406D01*
X16689Y-8422D01*
X16695Y-8440D01*
X16702Y-8457D01*
X16708Y-8476D01*
X16711Y-8485D01*
X16768Y-8654D01*
X16752Y-8670D01*
X16736Y-8687D01*
X16726Y-8659D01*
X16724Y-8654D01*
X16722Y-8647D01*
X16719Y-8639D01*
X16716Y-8628D01*
X16711Y-8617D01*
X16707Y-8604D01*
X16702Y-8590D01*
X16697Y-8575D01*
X16692Y-8558D01*
X16687Y-8541D01*
X16680Y-8524D01*
X16674Y-8506D01*
X16668Y-8489D01*
X16619Y-8347D01*
X16636Y-8331D01*
X16642Y-8324D01*
X16647Y-8319D01*
X16650Y-8317D01*
X16652Y-8314D01*
X16653Y-8315D01*
X16653Y-8315D01*
X16653Y-8315D01*
G37*
G36*
X18020Y-7145D02*
X18028Y-7155D01*
X18034Y-7165D01*
X18039Y-7176D01*
X18041Y-7187D01*
X18042Y-7196D01*
X18042Y-7204D01*
X18041Y-7211D01*
X18039Y-7216D01*
X18036Y-7225D01*
X17992Y-7181D01*
X17986Y-7177D01*
X17981Y-7175D01*
X17976Y-7175D01*
X17974Y-7175D01*
X17969Y-7177D01*
X17963Y-7182D01*
X17957Y-7187D01*
X17950Y-7193D01*
X17948Y-7197D01*
X17942Y-7204D01*
X17938Y-7211D01*
X17936Y-7217D01*
X17935Y-7224D01*
X17935Y-7230D01*
X17938Y-7238D01*
X17940Y-7247D01*
X17945Y-7256D01*
X17952Y-7267D01*
X17953Y-7268D01*
X17954Y-7269D01*
X17954Y-7269D01*
X17956Y-7268D01*
X17958Y-7267D01*
X17961Y-7264D01*
X17964Y-7261D01*
X17969Y-7256D01*
X17974Y-7252D01*
X17979Y-7246D01*
X17983Y-7241D01*
X17987Y-7237D01*
X17989Y-7233D01*
X17991Y-7230D01*
X17992Y-7229D01*
X17998Y-7219D01*
X18000Y-7210D01*
X18000Y-7201D01*
X18000Y-7193D01*
X17996Y-7186D01*
X17992Y-7181D01*
X18036Y-7225D01*
X18035Y-7227D01*
X18030Y-7238D01*
X18024Y-7247D01*
X18023Y-7249D01*
X18020Y-7254D01*
X18014Y-7259D01*
X18008Y-7265D01*
X18002Y-7271D01*
X17996Y-7278D01*
X17989Y-7283D01*
X17983Y-7287D01*
X17982Y-7288D01*
X17979Y-7291D01*
X17976Y-7293D01*
X17974Y-7294D01*
X17974Y-7295D01*
X17974Y-7296D01*
X17976Y-7298D01*
X17979Y-7302D01*
X17980Y-7303D01*
X17987Y-7310D01*
X17992Y-7315D01*
X17998Y-7318D01*
X18003Y-7320D01*
X18010Y-7319D01*
X18015Y-7316D01*
X18020Y-7312D01*
X18024Y-7310D01*
X18029Y-7305D01*
X18036Y-7298D01*
X18042Y-7292D01*
X18049Y-7285D01*
X18056Y-7277D01*
X18063Y-7270D01*
X18068Y-7263D01*
X18073Y-7257D01*
X18076Y-7252D01*
X18080Y-7249D01*
X18082Y-7245D01*
X18084Y-7243D01*
X18084Y-7243D01*
X18085Y-7244D01*
X18087Y-7246D01*
X18090Y-7250D01*
X18093Y-7254D01*
X18097Y-7257D01*
X18099Y-7261D01*
X18101Y-7264D01*
X18103Y-7267D01*
X18102Y-7269D01*
X18101Y-7271D01*
X18099Y-7276D01*
X18095Y-7281D01*
X18091Y-7288D01*
X18087Y-7294D01*
X18081Y-7301D01*
X18076Y-7308D01*
X18073Y-7312D01*
X18061Y-7326D01*
X18049Y-7339D01*
X18039Y-7347D01*
X18031Y-7354D01*
X18024Y-7359D01*
X18017Y-7362D01*
X18010Y-7364D01*
X18003Y-7365D01*
X18000Y-7365D01*
X17992Y-7363D01*
X17983Y-7361D01*
X17975Y-7356D01*
X17967Y-7351D01*
X17957Y-7343D01*
X17952Y-7337D01*
X17942Y-7328D01*
X17934Y-7317D01*
X17926Y-7305D01*
X17917Y-7294D01*
X17910Y-7281D01*
X17904Y-7271D01*
X17899Y-7259D01*
X17895Y-7250D01*
X17893Y-7240D01*
X17892Y-7230D01*
X17894Y-7217D01*
X17898Y-7206D01*
X17904Y-7193D01*
X17911Y-7182D01*
X17915Y-7177D01*
X17920Y-7171D01*
X17926Y-7165D01*
X17933Y-7158D01*
X17939Y-7153D01*
X17945Y-7148D01*
X17949Y-7145D01*
X17960Y-7138D01*
X17970Y-7134D01*
X17979Y-7130D01*
X17988Y-7129D01*
X17993Y-7130D01*
X18000Y-7131D01*
X18006Y-7134D01*
X18011Y-7138D01*
X18017Y-7143D01*
X18020Y-7145D01*
X18020Y-7145D01*
X18020Y-7145D01*
G37*
G36*
X16790Y-8168D02*
X16791Y-8169D01*
X16793Y-8172D01*
X16796Y-8176D01*
X16800Y-8182D01*
X16805Y-8189D01*
X16812Y-8197D01*
X16819Y-8207D01*
X16827Y-8218D01*
X16835Y-8230D01*
X16845Y-8243D01*
X16855Y-8257D01*
X16865Y-8271D01*
X16875Y-8286D01*
X16879Y-8291D01*
X16969Y-8413D01*
X16956Y-8426D01*
X16955Y-8428D01*
X16842Y-8315D01*
X16842Y-8314D01*
X16839Y-8315D01*
X16837Y-8317D01*
X16832Y-8319D01*
X16828Y-8322D01*
X16823Y-8326D01*
X16819Y-8329D01*
X16816Y-8330D01*
X16813Y-8334D01*
X16808Y-8337D01*
X16803Y-8342D01*
X16800Y-8344D01*
X16796Y-8348D01*
X16793Y-8351D01*
X16791Y-8355D01*
X16791Y-8357D01*
X16789Y-8360D01*
X16788Y-8365D01*
X16788Y-8372D01*
X16790Y-8380D01*
X16793Y-8389D01*
X16798Y-8398D01*
X16804Y-8408D01*
X16806Y-8412D01*
X16813Y-8422D01*
X16820Y-8431D01*
X16826Y-8439D01*
X16833Y-8446D01*
X16836Y-8449D01*
X16840Y-8453D01*
X16844Y-8456D01*
X16848Y-8458D01*
X16851Y-8459D01*
X16851Y-8460D01*
X16858Y-8462D01*
X16865Y-8461D01*
X16870Y-8459D01*
X16871Y-8459D01*
X16874Y-8456D01*
X16878Y-8452D01*
X16883Y-8447D01*
X16887Y-8442D01*
X16890Y-8437D01*
X16892Y-8435D01*
X16894Y-8432D01*
X16896Y-8427D01*
X16899Y-8423D01*
X16902Y-8417D01*
X16904Y-8412D01*
X16905Y-8408D01*
X16907Y-8405D01*
X16907Y-8404D01*
X16907Y-8403D01*
X16907Y-8402D01*
X16904Y-8399D01*
X16901Y-8395D01*
X16897Y-8390D01*
X16892Y-8384D01*
X16887Y-8376D01*
X16880Y-8367D01*
X16875Y-8359D01*
X16868Y-8350D01*
X16862Y-8342D01*
X16856Y-8334D01*
X16851Y-8327D01*
X16848Y-8322D01*
X16844Y-8318D01*
X16842Y-8315D01*
X16955Y-8428D01*
X16943Y-8439D01*
X16935Y-8435D01*
X16931Y-8432D01*
X16928Y-8430D01*
X16926Y-8430D01*
X16925Y-8429D01*
X16925Y-8430D01*
X16924Y-8433D01*
X16923Y-8437D01*
X16923Y-8437D01*
X16921Y-8445D01*
X16917Y-8454D01*
X16914Y-8462D01*
X16911Y-8470D01*
X16908Y-8474D01*
X16904Y-8480D01*
X16898Y-8487D01*
X16893Y-8493D01*
X16887Y-8498D01*
X16885Y-8500D01*
X16875Y-8505D01*
X16865Y-8507D01*
X16856Y-8508D01*
X16846Y-8507D01*
X16844Y-8506D01*
X16837Y-8504D01*
X16830Y-8500D01*
X16822Y-8495D01*
X16813Y-8490D01*
X16811Y-8488D01*
X16803Y-8481D01*
X16794Y-8471D01*
X16786Y-8461D01*
X16777Y-8449D01*
X16769Y-8437D01*
X16762Y-8425D01*
X16757Y-8413D01*
X16753Y-8407D01*
X16749Y-8394D01*
X16747Y-8384D01*
X16746Y-8373D01*
X16746Y-8363D01*
X16749Y-8353D01*
X16753Y-8343D01*
X16753Y-8343D01*
X16756Y-8339D01*
X16758Y-8336D01*
X16760Y-8332D01*
X16763Y-8329D01*
X16767Y-8325D01*
X16780Y-8314D01*
X16793Y-8303D01*
X16808Y-8295D01*
X16815Y-8291D01*
X16819Y-8290D01*
X16822Y-8289D01*
X16823Y-8288D01*
X16823Y-8288D01*
X16822Y-8287D01*
X16820Y-8283D01*
X16817Y-8279D01*
X16814Y-8274D01*
X16809Y-8268D01*
X16803Y-8260D01*
X16797Y-8252D01*
X16791Y-8243D01*
X16759Y-8199D01*
X16774Y-8184D01*
X16779Y-8179D01*
X16784Y-8174D01*
X16787Y-8171D01*
X16789Y-8169D01*
X16790Y-8168D01*
X16790Y-8168D01*
X16790Y-8168D01*
G37*
G36*
X17377Y-7752D02*
X17380Y-7755D01*
X17383Y-7759D01*
X17387Y-7764D01*
X17392Y-7770D01*
X17397Y-7777D01*
X17403Y-7786D01*
X17411Y-7796D01*
X17419Y-7807D01*
X17426Y-7817D01*
X17435Y-7829D01*
X17443Y-7840D01*
X17451Y-7849D01*
X17458Y-7859D01*
X17464Y-7868D01*
X17470Y-7875D01*
X17475Y-7882D01*
X17479Y-7887D01*
X17481Y-7890D01*
X17482Y-7892D01*
X17486Y-7897D01*
X17474Y-7909D01*
X17472Y-7912D01*
X17355Y-7795D01*
X17353Y-7795D01*
X17351Y-7797D01*
X17347Y-7799D01*
X17346Y-7800D01*
X17339Y-7805D01*
X17332Y-7810D01*
X17324Y-7817D01*
X17318Y-7825D01*
X17314Y-7832D01*
X17310Y-7839D01*
X17307Y-7848D01*
X17307Y-7856D01*
X17307Y-7862D01*
X17309Y-7868D01*
X17312Y-7876D01*
X17317Y-7885D01*
X17322Y-7894D01*
X17328Y-7903D01*
X17334Y-7911D01*
X17340Y-7921D01*
X17346Y-7927D01*
X17352Y-7933D01*
X17354Y-7935D01*
X17361Y-7940D01*
X17367Y-7943D01*
X17374Y-7945D01*
X17380Y-7945D01*
X17385Y-7944D01*
X17385Y-7943D01*
X17388Y-7942D01*
X17390Y-7941D01*
X17392Y-7939D01*
X17395Y-7936D01*
X17399Y-7931D01*
X17403Y-7927D01*
X17406Y-7923D01*
X17409Y-7918D01*
X17409Y-7918D01*
X17411Y-7915D01*
X17413Y-7910D01*
X17415Y-7904D01*
X17417Y-7897D01*
X17419Y-7892D01*
X17420Y-7887D01*
X17420Y-7886D01*
X17421Y-7885D01*
X17419Y-7884D01*
X17419Y-7882D01*
X17416Y-7878D01*
X17414Y-7874D01*
X17410Y-7869D01*
X17405Y-7863D01*
X17399Y-7854D01*
X17392Y-7845D01*
X17388Y-7840D01*
X17382Y-7831D01*
X17376Y-7822D01*
X17370Y-7815D01*
X17365Y-7808D01*
X17361Y-7803D01*
X17358Y-7798D01*
X17356Y-7796D01*
X17355Y-7795D01*
X17472Y-7912D01*
X17462Y-7921D01*
X17452Y-7916D01*
X17443Y-7910D01*
X17441Y-7917D01*
X17440Y-7924D01*
X17438Y-7932D01*
X17434Y-7941D01*
X17430Y-7950D01*
X17428Y-7952D01*
X17425Y-7959D01*
X17421Y-7964D01*
X17416Y-7971D01*
X17410Y-7976D01*
X17406Y-7981D01*
X17405Y-7981D01*
X17396Y-7986D01*
X17387Y-7990D01*
X17377Y-7992D01*
X17371Y-7991D01*
X17362Y-7991D01*
X17354Y-7988D01*
X17346Y-7984D01*
X17338Y-7979D01*
X17329Y-7972D01*
X17320Y-7963D01*
X17311Y-7952D01*
X17303Y-7943D01*
X17294Y-7931D01*
X17287Y-7921D01*
X17281Y-7911D01*
X17277Y-7901D01*
X17273Y-7892D01*
X17269Y-7881D01*
X17269Y-7880D01*
X17266Y-7870D01*
X17266Y-7859D01*
X17266Y-7849D01*
X17268Y-7840D01*
X17269Y-7836D01*
X17272Y-7829D01*
X17274Y-7822D01*
X17278Y-7817D01*
X17281Y-7811D01*
X17287Y-7805D01*
X17291Y-7800D01*
X17298Y-7793D01*
X17306Y-7785D01*
X17314Y-7778D01*
X17322Y-7771D01*
X17331Y-7766D01*
X17339Y-7761D01*
X17346Y-7757D01*
X17353Y-7754D01*
X17360Y-7751D01*
X17363Y-7751D01*
X17365Y-7750D01*
X17367Y-7749D01*
X17368Y-7749D01*
X17370Y-7749D01*
X17372Y-7749D01*
X17373Y-7749D01*
X17375Y-7751D01*
X17377Y-7752D01*
X17377Y-7752D01*
X17377Y-7752D01*
G37*
G36*
X17572Y-7537D02*
X17574Y-7539D01*
X17576Y-7543D01*
X17579Y-7547D01*
X17583Y-7551D01*
X17585Y-7555D01*
X17587Y-7558D01*
X17588Y-7559D01*
X17588Y-7559D01*
X17587Y-7561D01*
X17585Y-7563D01*
X17581Y-7566D01*
X17577Y-7571D01*
X17572Y-7576D01*
X17569Y-7577D01*
X17561Y-7585D01*
X17552Y-7592D01*
X17544Y-7600D01*
X17537Y-7607D01*
X17532Y-7613D01*
X17527Y-7617D01*
X17525Y-7621D01*
X17523Y-7623D01*
X17521Y-7629D01*
X17520Y-7636D01*
X17520Y-7643D01*
X17520Y-7644D01*
X17522Y-7652D01*
X17526Y-7660D01*
X17530Y-7668D01*
X17537Y-7677D01*
X17542Y-7687D01*
X17548Y-7696D01*
X17555Y-7704D01*
X17561Y-7712D01*
X17568Y-7719D01*
X17574Y-7725D01*
X17579Y-7728D01*
X17582Y-7730D01*
X17588Y-7731D01*
X17595Y-7731D01*
X17600Y-7730D01*
X17603Y-7728D01*
X17607Y-7726D01*
X17611Y-7722D01*
X17616Y-7717D01*
X17623Y-7710D01*
X17630Y-7703D01*
X17638Y-7695D01*
X17645Y-7686D01*
X17648Y-7683D01*
X17653Y-7677D01*
X17658Y-7672D01*
X17661Y-7667D01*
X17664Y-7665D01*
X17665Y-7663D01*
X17666Y-7662D01*
X17667Y-7663D01*
X17669Y-7665D01*
X17672Y-7670D01*
X17674Y-7674D01*
X17675Y-7675D01*
X17684Y-7686D01*
X17679Y-7695D01*
X17670Y-7709D01*
X17660Y-7723D01*
X17653Y-7732D01*
X17648Y-7737D01*
X17645Y-7742D01*
X17640Y-7747D01*
X17634Y-7752D01*
X17629Y-7757D01*
X17625Y-7761D01*
X17621Y-7765D01*
X17619Y-7766D01*
X17614Y-7769D01*
X17609Y-7771D01*
X17604Y-7774D01*
X17599Y-7775D01*
X17598Y-7776D01*
X17588Y-7776D01*
X17576Y-7775D01*
X17566Y-7771D01*
X17560Y-7769D01*
X17557Y-7767D01*
X17554Y-7766D01*
X17551Y-7764D01*
X17549Y-7761D01*
X17545Y-7758D01*
X17540Y-7753D01*
X17538Y-7751D01*
X17523Y-7735D01*
X17510Y-7718D01*
X17498Y-7700D01*
X17489Y-7682D01*
X17485Y-7674D01*
X17480Y-7662D01*
X17478Y-7650D01*
X17476Y-7640D01*
X17477Y-7629D01*
X17480Y-7619D01*
X17485Y-7610D01*
X17492Y-7600D01*
X17502Y-7590D01*
X17513Y-7580D01*
X17513Y-7580D01*
X17519Y-7575D01*
X17526Y-7569D01*
X17533Y-7563D01*
X17540Y-7558D01*
X17548Y-7553D01*
X17554Y-7548D01*
X17561Y-7543D01*
X17565Y-7540D01*
X17569Y-7537D01*
X17571Y-7537D01*
X17572Y-7537D01*
X17572Y-7537D01*
X17572Y-7537D01*
G37*
G36*
X17718Y-7407D02*
X17773Y-7481D01*
X17781Y-7492D01*
X17790Y-7503D01*
X17797Y-7513D01*
X17805Y-7522D01*
X17811Y-7532D01*
X17817Y-7539D01*
X17821Y-7544D01*
X17824Y-7549D01*
X17827Y-7553D01*
X17828Y-7554D01*
X17829Y-7555D01*
X17828Y-7556D01*
X17826Y-7558D01*
X17822Y-7561D01*
X17819Y-7565D01*
X17817Y-7567D01*
X17814Y-7570D01*
X17699Y-7455D01*
X17696Y-7454D01*
X17695Y-7454D01*
X17692Y-7455D01*
X17689Y-7457D01*
X17685Y-7460D01*
X17684Y-7460D01*
X17681Y-7462D01*
X17677Y-7467D01*
X17671Y-7471D01*
X17666Y-7477D01*
X17661Y-7482D01*
X17658Y-7487D01*
X17655Y-7489D01*
X17652Y-7498D01*
X17650Y-7508D01*
X17649Y-7517D01*
X17651Y-7526D01*
X17655Y-7534D01*
X17659Y-7542D01*
X17665Y-7552D01*
X17670Y-7562D01*
X17677Y-7571D01*
X17684Y-7580D01*
X17691Y-7587D01*
X17697Y-7593D01*
X17699Y-7595D01*
X17705Y-7598D01*
X17711Y-7602D01*
X17717Y-7603D01*
X17720Y-7604D01*
X17725Y-7602D01*
X17730Y-7600D01*
X17736Y-7595D01*
X17742Y-7590D01*
X17747Y-7583D01*
X17750Y-7578D01*
X17752Y-7573D01*
X17755Y-7568D01*
X17758Y-7562D01*
X17760Y-7556D01*
X17761Y-7550D01*
X17762Y-7545D01*
X17762Y-7541D01*
X17761Y-7540D01*
X17761Y-7538D01*
X17758Y-7535D01*
X17755Y-7531D01*
X17751Y-7525D01*
X17747Y-7518D01*
X17741Y-7511D01*
X17735Y-7504D01*
X17730Y-7496D01*
X17724Y-7489D01*
X17718Y-7481D01*
X17713Y-7474D01*
X17708Y-7467D01*
X17705Y-7462D01*
X17701Y-7459D01*
X17699Y-7455D01*
X17699Y-7455D01*
X17814Y-7570D01*
X17805Y-7578D01*
X17795Y-7573D01*
X17784Y-7568D01*
X17783Y-7575D01*
X17781Y-7587D01*
X17777Y-7598D01*
X17771Y-7609D01*
X17764Y-7619D01*
X17757Y-7629D01*
X17749Y-7638D01*
X17744Y-7641D01*
X17733Y-7646D01*
X17723Y-7649D01*
X17713Y-7650D01*
X17703Y-7648D01*
X17691Y-7644D01*
X17681Y-7638D01*
X17680Y-7637D01*
X17675Y-7633D01*
X17670Y-7628D01*
X17663Y-7621D01*
X17656Y-7614D01*
X17649Y-7606D01*
X17643Y-7597D01*
X17636Y-7588D01*
X17631Y-7581D01*
X17625Y-7572D01*
X17619Y-7561D01*
X17615Y-7549D01*
X17612Y-7539D01*
X17609Y-7529D01*
X17608Y-7522D01*
X17608Y-7511D01*
X17610Y-7499D01*
X17614Y-7487D01*
X17619Y-7476D01*
X17622Y-7472D01*
X17626Y-7466D01*
X17632Y-7459D01*
X17638Y-7453D01*
X17643Y-7447D01*
X17648Y-7443D01*
X17650Y-7441D01*
X17654Y-7437D01*
X17660Y-7433D01*
X17667Y-7428D01*
X17673Y-7423D01*
X17679Y-7420D01*
X17686Y-7416D01*
X17690Y-7414D01*
X17691Y-7414D01*
X17697Y-7411D01*
X17705Y-7409D01*
X17711Y-7407D01*
X17714Y-7407D01*
X17718Y-7407D01*
X17718Y-7407D01*
X17718Y-7407D01*
G37*
G36*
X18192Y-6916D02*
X18193Y-6916D01*
X18195Y-6919D01*
X18198Y-6921D01*
X18201Y-6926D01*
X18203Y-6930D01*
X18206Y-6933D01*
X18208Y-6936D01*
X18208Y-6936D01*
X18210Y-6939D01*
X18192Y-6954D01*
X18186Y-6960D01*
X18178Y-6968D01*
X18170Y-6974D01*
X18163Y-6982D01*
X18159Y-6986D01*
X18153Y-6991D01*
X18150Y-6996D01*
X18147Y-6999D01*
X18145Y-7001D01*
X18144Y-7003D01*
X18143Y-7005D01*
X18142Y-7007D01*
X18140Y-7013D01*
X18140Y-7018D01*
X18142Y-7025D01*
X18144Y-7032D01*
X18148Y-7040D01*
X18151Y-7046D01*
X18158Y-7059D01*
X18167Y-7070D01*
X18174Y-7081D01*
X18181Y-7090D01*
X18189Y-7098D01*
X18193Y-7102D01*
X18196Y-7105D01*
X18200Y-7107D01*
X18203Y-7109D01*
X18206Y-7110D01*
X18212Y-7111D01*
X18218Y-7110D01*
X18223Y-7108D01*
X18227Y-7106D01*
X18231Y-7102D01*
X18236Y-7097D01*
X18242Y-7090D01*
X18249Y-7083D01*
X18257Y-7076D01*
X18265Y-7066D01*
X18270Y-7061D01*
X18274Y-7056D01*
X18279Y-7051D01*
X18282Y-7047D01*
X18285Y-7043D01*
X18287Y-7042D01*
X18287Y-7042D01*
X18288Y-7043D01*
X18290Y-7045D01*
X18293Y-7048D01*
X18296Y-7052D01*
X18298Y-7056D01*
X18301Y-7060D01*
X18302Y-7063D01*
X18304Y-7064D01*
X18305Y-7065D01*
X18303Y-7066D01*
X18302Y-7069D01*
X18300Y-7074D01*
X18296Y-7079D01*
X18293Y-7085D01*
X18290Y-7090D01*
X18288Y-7093D01*
X18283Y-7101D01*
X18276Y-7109D01*
X18269Y-7117D01*
X18262Y-7124D01*
X18255Y-7131D01*
X18248Y-7139D01*
X18242Y-7143D01*
X18237Y-7148D01*
X18235Y-7148D01*
X18225Y-7153D01*
X18215Y-7155D01*
X18204Y-7155D01*
X18193Y-7153D01*
X18191Y-7153D01*
X18184Y-7150D01*
X18179Y-7147D01*
X18174Y-7143D01*
X18169Y-7140D01*
X18162Y-7134D01*
X18160Y-7131D01*
X18145Y-7114D01*
X18131Y-7097D01*
X18119Y-7078D01*
X18114Y-7071D01*
X18107Y-7057D01*
X18103Y-7044D01*
X18099Y-7032D01*
X18098Y-7021D01*
X18098Y-7011D01*
X18101Y-7001D01*
X18105Y-6991D01*
X18107Y-6989D01*
X18111Y-6983D01*
X18116Y-6977D01*
X18123Y-6970D01*
X18131Y-6962D01*
X18140Y-6954D01*
X18150Y-6945D01*
X18160Y-6938D01*
X18171Y-6930D01*
X18181Y-6923D01*
X18183Y-6922D01*
X18186Y-6920D01*
X18189Y-6917D01*
X18192Y-6916D01*
X18192Y-6916D01*
X18192Y-6916D01*
X18192Y-6916D01*
G37*
G36*
X18340Y-6788D02*
X18341Y-6789D01*
X18343Y-6792D01*
X18346Y-6795D01*
X18348Y-6799D01*
X18353Y-6805D01*
X18358Y-6811D01*
X18363Y-6818D01*
X18370Y-6828D01*
X18378Y-6839D01*
X18387Y-6851D01*
X18394Y-6859D01*
X18402Y-6870D01*
X18411Y-6881D01*
X18418Y-6891D01*
X18425Y-6901D01*
X18431Y-6909D01*
X18437Y-6917D01*
X18441Y-6923D01*
X18445Y-6928D01*
X18447Y-6931D01*
X18448Y-6933D01*
X18449Y-6933D01*
X18448Y-6934D01*
X18447Y-6936D01*
X18445Y-6938D01*
X18441Y-6943D01*
X18437Y-6946D01*
X18435Y-6948D01*
X18319Y-6832D01*
X18318Y-6832D01*
X18317Y-6833D01*
X18314Y-6834D01*
X18310Y-6836D01*
X18309Y-6837D01*
X18300Y-6844D01*
X18291Y-6851D01*
X18284Y-6859D01*
X18278Y-6868D01*
X18273Y-6877D01*
X18272Y-6881D01*
X18270Y-6887D01*
X18271Y-6895D01*
X18272Y-6902D01*
X18275Y-6911D01*
X18279Y-6921D01*
X18285Y-6931D01*
X18293Y-6943D01*
X18295Y-6945D01*
X18304Y-6957D01*
X18312Y-6966D01*
X18319Y-6974D01*
X18327Y-6979D01*
X18334Y-6982D01*
X18341Y-6982D01*
X18343Y-6982D01*
X18350Y-6979D01*
X18356Y-6975D01*
X18363Y-6968D01*
X18369Y-6961D01*
X18372Y-6955D01*
X18376Y-6947D01*
X18379Y-6939D01*
X18382Y-6931D01*
X18384Y-6921D01*
X18353Y-6879D01*
X18347Y-6870D01*
X18341Y-6862D01*
X18336Y-6854D01*
X18330Y-6847D01*
X18326Y-6842D01*
X18323Y-6837D01*
X18321Y-6835D01*
X18321Y-6834D01*
X18319Y-6832D01*
X18435Y-6948D01*
X18425Y-6957D01*
X18416Y-6953D01*
X18406Y-6948D01*
X18404Y-6958D01*
X18401Y-6970D01*
X18396Y-6982D01*
X18389Y-6994D01*
X18382Y-7005D01*
X18373Y-7013D01*
X18368Y-7017D01*
X18359Y-7023D01*
X18349Y-7028D01*
X18339Y-7029D01*
X18337Y-7028D01*
X18328Y-7028D01*
X18319Y-7026D01*
X18310Y-7023D01*
X18302Y-7017D01*
X18293Y-7010D01*
X18284Y-7001D01*
X18280Y-6996D01*
X18268Y-6982D01*
X18259Y-6970D01*
X18250Y-6957D01*
X18244Y-6945D01*
X18237Y-6933D01*
X18234Y-6924D01*
X18232Y-6916D01*
X18230Y-6912D01*
X18230Y-6907D01*
X18230Y-6902D01*
X18229Y-6897D01*
X18229Y-6895D01*
X18230Y-6887D01*
X18230Y-6880D01*
X18232Y-6873D01*
X18235Y-6866D01*
X18238Y-6859D01*
X18242Y-6852D01*
X18247Y-6846D01*
X18252Y-6839D01*
X18259Y-6832D01*
X18263Y-6828D01*
X18268Y-6823D01*
X18273Y-6818D01*
X18276Y-6815D01*
X18281Y-6811D01*
X18286Y-6808D01*
X18288Y-6807D01*
X18294Y-6803D01*
X18300Y-6799D01*
X18305Y-6796D01*
X18309Y-6794D01*
X18315Y-6791D01*
X18321Y-6789D01*
X18328Y-6787D01*
X18334Y-6786D01*
X18336Y-6786D01*
X18336Y-6786D01*
X18338Y-6786D01*
X18338Y-6786D01*
X18340Y-6788D01*
X18340Y-6788D01*
X18340Y-6788D01*
G37*
G36*
X16073Y-9090D02*
X16076Y-9093D01*
X16079Y-9098D01*
X16084Y-9104D01*
X16091Y-9113D01*
X16098Y-9123D01*
X16108Y-9135D01*
X16117Y-9149D01*
X16121Y-9154D01*
X16129Y-9164D01*
X16135Y-9174D01*
X16143Y-9183D01*
X16149Y-9191D01*
X16153Y-9198D01*
X16158Y-9205D01*
X16161Y-9208D01*
X16163Y-9212D01*
X16165Y-9213D01*
X16165Y-9213D01*
X16167Y-9217D01*
X16151Y-9232D01*
X16135Y-9249D01*
X16134Y-9246D01*
X16132Y-9243D01*
X16129Y-9239D01*
X16125Y-9233D01*
X16120Y-9227D01*
X16115Y-9220D01*
X16109Y-9211D01*
X16103Y-9202D01*
X16096Y-9193D01*
X16088Y-9183D01*
X16082Y-9174D01*
X16075Y-9166D01*
X16069Y-9157D01*
X16063Y-9150D01*
X16059Y-9142D01*
X16054Y-9138D01*
X16050Y-9133D01*
X16049Y-9130D01*
X16047Y-9128D01*
X16042Y-9125D01*
X16038Y-9121D01*
X16033Y-9121D01*
X16028Y-9121D01*
X16027Y-9122D01*
X16024Y-9122D01*
X16023Y-9123D01*
X16021Y-9124D01*
X16018Y-9126D01*
X16015Y-9130D01*
X16012Y-9133D01*
X16007Y-9139D01*
X16004Y-9144D01*
X16000Y-9149D01*
X15997Y-9154D01*
X15994Y-9162D01*
X15991Y-9169D01*
X15991Y-9172D01*
X15986Y-9186D01*
X16028Y-9243D01*
X16035Y-9253D01*
X16042Y-9263D01*
X16049Y-9273D01*
X16055Y-9280D01*
X16060Y-9288D01*
X16065Y-9294D01*
X16069Y-9299D01*
X16071Y-9303D01*
X16072Y-9304D01*
X16072Y-9304D01*
X16075Y-9309D01*
X16059Y-9324D01*
X16054Y-9330D01*
X16050Y-9334D01*
X16047Y-9337D01*
X16044Y-9338D01*
X16043Y-9339D01*
X16042Y-9338D01*
X16042Y-9338D01*
X16040Y-9335D01*
X16036Y-9331D01*
X16033Y-9324D01*
X16027Y-9317D01*
X16021Y-9308D01*
X16013Y-9298D01*
X16006Y-9287D01*
X15997Y-9275D01*
X15988Y-9263D01*
X15977Y-9249D01*
X15968Y-9235D01*
X15957Y-9220D01*
X15954Y-9216D01*
X15865Y-9094D01*
X15881Y-9079D01*
X15885Y-9074D01*
X15890Y-9070D01*
X15893Y-9066D01*
X15896Y-9065D01*
X15897Y-9064D01*
X15897Y-9064D01*
X15898Y-9065D01*
X15900Y-9067D01*
X15902Y-9071D01*
X15907Y-9077D01*
X15912Y-9083D01*
X15917Y-9092D01*
X15923Y-9100D01*
X15930Y-9109D01*
X15931Y-9111D01*
X15938Y-9121D01*
X15944Y-9128D01*
X15950Y-9137D01*
X15956Y-9144D01*
X15960Y-9150D01*
X15963Y-9154D01*
X15965Y-9157D01*
X15966Y-9159D01*
X15966Y-9159D01*
X15968Y-9159D01*
X15968Y-9157D01*
X15969Y-9153D01*
X15972Y-9142D01*
X15975Y-9133D01*
X15978Y-9124D01*
X15981Y-9117D01*
X15984Y-9111D01*
X15988Y-9106D01*
X15993Y-9099D01*
X15998Y-9094D01*
X16002Y-9089D01*
X16006Y-9085D01*
X16010Y-9082D01*
X16013Y-9081D01*
X16022Y-9076D01*
X16033Y-9074D01*
X16042Y-9073D01*
X16051Y-9075D01*
X16060Y-9080D01*
X16069Y-9087D01*
X16073Y-9090D01*
X16073Y-9090D01*
X16073Y-9090D01*
G37*
G36*
X16151Y-8949D02*
X16151Y-8949D01*
X16154Y-8952D01*
X16157Y-8956D01*
X16161Y-8961D01*
X16161Y-8962D01*
X16170Y-8976D01*
X16153Y-8993D01*
X16136Y-9012D01*
X16162Y-9049D01*
X16171Y-9061D01*
X16179Y-9072D01*
X16185Y-9081D01*
X16192Y-9089D01*
X16197Y-9094D01*
X16201Y-9099D01*
X16205Y-9104D01*
X16209Y-9106D01*
X16211Y-9107D01*
X16214Y-9109D01*
X16216Y-9108D01*
X16219Y-9109D01*
X16221Y-9107D01*
X16225Y-9105D01*
X16230Y-9103D01*
X16236Y-9100D01*
X16236Y-9100D01*
X16241Y-9097D01*
X16246Y-9095D01*
X16248Y-9094D01*
X16250Y-9094D01*
X16251Y-9094D01*
X16251Y-9094D01*
X16252Y-9096D01*
X16255Y-9099D01*
X16258Y-9103D01*
X16260Y-9106D01*
X16267Y-9116D01*
X16253Y-9130D01*
X16248Y-9135D01*
X16243Y-9139D01*
X16239Y-9143D01*
X16236Y-9146D01*
X16235Y-9147D01*
X16226Y-9152D01*
X16217Y-9155D01*
X16209Y-9155D01*
X16200Y-9154D01*
X16199Y-9153D01*
X16195Y-9152D01*
X16191Y-9150D01*
X16187Y-9147D01*
X16182Y-9145D01*
X16178Y-9140D01*
X16174Y-9136D01*
X16168Y-9130D01*
X16163Y-9123D01*
X16156Y-9114D01*
X16149Y-9105D01*
X16140Y-9092D01*
X16137Y-9087D01*
X16129Y-9079D01*
X16125Y-9071D01*
X16119Y-9064D01*
X16114Y-9058D01*
X16110Y-9053D01*
X16108Y-9048D01*
X16106Y-9046D01*
X16105Y-9045D01*
X16103Y-9043D01*
X16091Y-9055D01*
X16086Y-9060D01*
X16082Y-9064D01*
X16079Y-9065D01*
X16079Y-9066D01*
X16077Y-9065D01*
X16075Y-9063D01*
X16073Y-9059D01*
X16071Y-9055D01*
X16064Y-9046D01*
X16066Y-9041D01*
X16068Y-9037D01*
X16071Y-9033D01*
X16074Y-9027D01*
X16075Y-9024D01*
X16078Y-9020D01*
X16080Y-9017D01*
X16081Y-9014D01*
X16082Y-9013D01*
X16081Y-9012D01*
X16080Y-9010D01*
X16079Y-9005D01*
X16075Y-9000D01*
X16074Y-8998D01*
X16070Y-8991D01*
X16067Y-8983D01*
X16063Y-8977D01*
X16060Y-8971D01*
X16059Y-8971D01*
X16054Y-8961D01*
X16067Y-8948D01*
X16071Y-8943D01*
X16075Y-8940D01*
X16079Y-8937D01*
X16079Y-8937D01*
X16081Y-8937D01*
X16081Y-8937D01*
X16083Y-8941D01*
X16086Y-8945D01*
X16091Y-8949D01*
X16094Y-8956D01*
X16096Y-8958D01*
X16101Y-8964D01*
X16105Y-8969D01*
X16108Y-8974D01*
X16111Y-8978D01*
X16112Y-8980D01*
X16113Y-8981D01*
X16113Y-8981D01*
X16115Y-8981D01*
X16115Y-8980D01*
X16117Y-8978D01*
X16120Y-8976D01*
X16125Y-8972D01*
X16129Y-8967D01*
X16132Y-8964D01*
X16138Y-8959D01*
X16142Y-8954D01*
X16145Y-8952D01*
X16147Y-8949D01*
X16149Y-8948D01*
X16150Y-8948D01*
X16150Y-8948D01*
X16151Y-8949D01*
X16151Y-8949D01*
X16151Y-8949D01*
G37*
G36*
X16253Y-8846D02*
X16254Y-8847D01*
X16256Y-8850D01*
X16259Y-8855D01*
X16263Y-8859D01*
X16263Y-8860D01*
X16273Y-8873D01*
X16255Y-8891D01*
X16249Y-8897D01*
X16245Y-8901D01*
X16241Y-8906D01*
X16239Y-8908D01*
X16238Y-8910D01*
X16238Y-8910D01*
X16239Y-8911D01*
X16240Y-8914D01*
X16243Y-8918D01*
X16248Y-8924D01*
X16252Y-8930D01*
X16258Y-8937D01*
X16263Y-8945D01*
X16265Y-8947D01*
X16274Y-8960D01*
X16281Y-8971D01*
X16289Y-8979D01*
X16294Y-8986D01*
X16299Y-8993D01*
X16303Y-8997D01*
X16308Y-9001D01*
X16310Y-9004D01*
X16313Y-9005D01*
X16315Y-9006D01*
X16318Y-9006D01*
X16321Y-9006D01*
X16323Y-9005D01*
X16325Y-9005D01*
X16330Y-9002D01*
X16335Y-9000D01*
X16339Y-8998D01*
X16344Y-8995D01*
X16347Y-8993D01*
X16350Y-8991D01*
X16352Y-8990D01*
X16352Y-8992D01*
X16354Y-8994D01*
X16356Y-8998D01*
X16360Y-9001D01*
X16360Y-9001D01*
X16364Y-9006D01*
X16366Y-9010D01*
X16368Y-9013D01*
X16368Y-9014D01*
X16368Y-9014D01*
X16366Y-9017D01*
X16364Y-9020D01*
X16359Y-9024D01*
X16355Y-9029D01*
X16351Y-9033D01*
X16346Y-9036D01*
X16342Y-9041D01*
X16339Y-9043D01*
X16337Y-9046D01*
X16328Y-9050D01*
X16320Y-9053D01*
X16310Y-9053D01*
X16301Y-9051D01*
X16292Y-9048D01*
X16283Y-9041D01*
X16274Y-9033D01*
X16273Y-9031D01*
X16270Y-9029D01*
X16267Y-9024D01*
X16263Y-9019D01*
X16257Y-9012D01*
X16252Y-9003D01*
X16245Y-8995D01*
X16240Y-8987D01*
X16237Y-8984D01*
X16231Y-8976D01*
X16225Y-8968D01*
X16220Y-8960D01*
X16216Y-8954D01*
X16211Y-8949D01*
X16209Y-8945D01*
X16207Y-8943D01*
X16207Y-8943D01*
X16207Y-8942D01*
X16205Y-8942D01*
X16204Y-8943D01*
X16202Y-8944D01*
X16199Y-8947D01*
X16195Y-8951D01*
X16193Y-8953D01*
X16181Y-8965D01*
X16175Y-8956D01*
X16171Y-8952D01*
X16169Y-8949D01*
X16167Y-8945D01*
X16167Y-8945D01*
X16166Y-8943D01*
X16167Y-8941D01*
X16168Y-8939D01*
X16170Y-8935D01*
X16173Y-8929D01*
X16175Y-8928D01*
X16179Y-8920D01*
X16182Y-8915D01*
X16183Y-8912D01*
X16183Y-8909D01*
X16183Y-8909D01*
X16182Y-8908D01*
X16180Y-8905D01*
X16178Y-8900D01*
X16175Y-8894D01*
X16172Y-8888D01*
X16169Y-8884D01*
X16156Y-8860D01*
X16169Y-8845D01*
X16182Y-8833D01*
X16184Y-8836D01*
X16187Y-8841D01*
X16190Y-8845D01*
X16194Y-8850D01*
X16198Y-8856D01*
X16202Y-8862D01*
X16207Y-8867D01*
X16209Y-8872D01*
X16213Y-8875D01*
X16215Y-8879D01*
X16216Y-8879D01*
X16216Y-8879D01*
X16217Y-8878D01*
X16219Y-8876D01*
X16223Y-8872D01*
X16228Y-8869D01*
X16233Y-8864D01*
X16234Y-8862D01*
X16240Y-8856D01*
X16245Y-8852D01*
X16248Y-8849D01*
X16250Y-8847D01*
X16251Y-8845D01*
X16252Y-8845D01*
X16252Y-8845D01*
X16253Y-8846D01*
X16253Y-8846D01*
X16253Y-8846D01*
G37*
G36*
X16552Y-8772D02*
X16554Y-8774D01*
X16557Y-8777D01*
X16560Y-8781D01*
X16564Y-8786D01*
X16564Y-8788D01*
X16569Y-8794D01*
X16572Y-8799D01*
X16574Y-8802D01*
X16574Y-8805D01*
X16574Y-8809D01*
X16571Y-8812D01*
X16567Y-8816D01*
X16562Y-8821D01*
X16557Y-8826D01*
X16554Y-8830D01*
X16551Y-8833D01*
X16548Y-8834D01*
X16547Y-8835D01*
X16546Y-8835D01*
X16543Y-8835D01*
X16540Y-8832D01*
X16538Y-8830D01*
X16535Y-8827D01*
X16532Y-8822D01*
X16528Y-8817D01*
X16525Y-8812D01*
X16522Y-8808D01*
X16520Y-8805D01*
X16519Y-8804D01*
X16519Y-8801D01*
X16519Y-8800D01*
X16520Y-8797D01*
X16523Y-8793D01*
X16526Y-8790D01*
X16531Y-8785D01*
X16533Y-8783D01*
X16538Y-8778D01*
X16542Y-8773D01*
X16546Y-8771D01*
X16548Y-8771D01*
X16550Y-8770D01*
X16552Y-8771D01*
X16552Y-8772D01*
X16552Y-8772D01*
X16552Y-8772D01*
G37*
G36*
X16906Y-8191D02*
X16907Y-8191D01*
X16909Y-8195D01*
X16912Y-8199D01*
X16916Y-8205D01*
X16921Y-8211D01*
X16927Y-8219D01*
X16933Y-8227D01*
X16940Y-8237D01*
X16947Y-8247D01*
X16955Y-8258D01*
X16962Y-8268D01*
X16970Y-8279D01*
X16978Y-8290D01*
X16986Y-8300D01*
X16993Y-8310D01*
X16999Y-8319D01*
X17006Y-8328D01*
X17011Y-8336D01*
X17016Y-8342D01*
X17020Y-8348D01*
X17023Y-8352D01*
X17025Y-8355D01*
X17025Y-8355D01*
X17025Y-8355D01*
X17025Y-8357D01*
X17025Y-8358D01*
X17024Y-8360D01*
X17022Y-8362D01*
X17018Y-8365D01*
X17014Y-8370D01*
X17011Y-8372D01*
X17006Y-8378D01*
X17001Y-8382D01*
X16998Y-8385D01*
X16996Y-8387D01*
X16995Y-8387D01*
X16994Y-8387D01*
X16994Y-8386D01*
X16992Y-8383D01*
X16988Y-8379D01*
X16984Y-8372D01*
X16979Y-8365D01*
X16973Y-8357D01*
X16966Y-8348D01*
X16958Y-8338D01*
X16950Y-8327D01*
X16942Y-8314D01*
X16934Y-8304D01*
X16875Y-8222D01*
X16890Y-8206D01*
X16895Y-8201D01*
X16899Y-8197D01*
X16902Y-8194D01*
X16905Y-8191D01*
X16906Y-8191D01*
X16906Y-8191D01*
X16906Y-8191D01*
G37*
G36*
X17114Y-7982D02*
X17163Y-8049D01*
X17171Y-8060D01*
X17179Y-8072D01*
X17187Y-8083D01*
X17194Y-8093D01*
X17201Y-8103D01*
X17208Y-8111D01*
X17213Y-8119D01*
X17218Y-8126D01*
X17221Y-8130D01*
X17223Y-8132D01*
X17235Y-8148D01*
X17219Y-8165D01*
X17204Y-8180D01*
X17202Y-8177D01*
X17201Y-8176D01*
X17199Y-8172D01*
X17195Y-8169D01*
X17191Y-8162D01*
X17186Y-8155D01*
X17180Y-8146D01*
X17173Y-8137D01*
X17165Y-8126D01*
X17157Y-8115D01*
X17148Y-8104D01*
X17142Y-8095D01*
X17133Y-8083D01*
X17124Y-8071D01*
X17117Y-8061D01*
X17109Y-8050D01*
X17102Y-8041D01*
X17097Y-8032D01*
X17092Y-8026D01*
X17088Y-8020D01*
X17085Y-8017D01*
X17084Y-8014D01*
X17083Y-8013D01*
X17084Y-8013D01*
X17086Y-8010D01*
X17090Y-8007D01*
X17094Y-8003D01*
X17099Y-7998D01*
X17099Y-7998D01*
X17114Y-7982D01*
X17114Y-7982D01*
X17114Y-7982D01*
G37*
G36*
X17223Y-7873D02*
X17234Y-7888D01*
X17244Y-7902D01*
X17226Y-7920D01*
X17208Y-7939D01*
X17235Y-7976D01*
X17245Y-7988D01*
X17252Y-7998D01*
X17258Y-8007D01*
X17264Y-8014D01*
X17268Y-8020D01*
X17273Y-8025D01*
X17276Y-8027D01*
X17279Y-8030D01*
X17282Y-8032D01*
X17283Y-8034D01*
X17283Y-8034D01*
X17287Y-8034D01*
X17289Y-8035D01*
X17293Y-8034D01*
X17296Y-8034D01*
X17301Y-8032D01*
X17307Y-8028D01*
X17311Y-8026D01*
X17315Y-8023D01*
X17319Y-8021D01*
X17322Y-8021D01*
X17324Y-8022D01*
X17325Y-8023D01*
X17328Y-8026D01*
X17332Y-8031D01*
X17333Y-8032D01*
X17340Y-8042D01*
X17327Y-8057D01*
X17322Y-8062D01*
X17316Y-8066D01*
X17312Y-8070D01*
X17309Y-8073D01*
X17307Y-8075D01*
X17299Y-8079D01*
X17291Y-8082D01*
X17281Y-8083D01*
X17272Y-8080D01*
X17264Y-8076D01*
X17254Y-8070D01*
X17248Y-8063D01*
X17245Y-8061D01*
X17242Y-8058D01*
X17239Y-8053D01*
X17235Y-8049D01*
X17230Y-8042D01*
X17225Y-8034D01*
X17218Y-8027D01*
X17211Y-8016D01*
X17210Y-8015D01*
X17204Y-8007D01*
X17198Y-7999D01*
X17193Y-7991D01*
X17188Y-7985D01*
X17184Y-7979D01*
X17182Y-7976D01*
X17180Y-7974D01*
X17180Y-7972D01*
X17177Y-7969D01*
X17165Y-7981D01*
X17160Y-7986D01*
X17157Y-7989D01*
X17154Y-7992D01*
X17152Y-7993D01*
X17152Y-7993D01*
X17151Y-7992D01*
X17149Y-7990D01*
X17146Y-7986D01*
X17143Y-7983D01*
X17136Y-7973D01*
X17139Y-7967D01*
X17141Y-7964D01*
X17144Y-7959D01*
X17147Y-7954D01*
X17148Y-7951D01*
X17151Y-7947D01*
X17153Y-7943D01*
X17155Y-7940D01*
X17155Y-7940D01*
X17155Y-7939D01*
X17153Y-7936D01*
X17151Y-7932D01*
X17148Y-7927D01*
X17146Y-7923D01*
X17143Y-7916D01*
X17139Y-7909D01*
X17136Y-7903D01*
X17134Y-7898D01*
X17132Y-7897D01*
X17127Y-7887D01*
X17140Y-7875D01*
X17145Y-7870D01*
X17148Y-7866D01*
X17151Y-7865D01*
X17153Y-7863D01*
X17153Y-7863D01*
X17154Y-7863D01*
X17154Y-7865D01*
X17157Y-7868D01*
X17160Y-7872D01*
X17163Y-7877D01*
X17167Y-7882D01*
X17170Y-7885D01*
X17174Y-7892D01*
X17178Y-7897D01*
X17182Y-7901D01*
X17184Y-7905D01*
X17186Y-7906D01*
X17187Y-7907D01*
X17187Y-7907D01*
X17188Y-7907D01*
X17189Y-7906D01*
X17192Y-7903D01*
X17196Y-7900D01*
X17201Y-7895D01*
X17206Y-7891D01*
X17223Y-7873D01*
X17223Y-7873D01*
X17223Y-7873D01*
G37*
G36*
X17556Y-7786D02*
X17557Y-7787D01*
X17559Y-7789D01*
X17561Y-7793D01*
X17564Y-7795D01*
X17567Y-7800D01*
X17570Y-7804D01*
X17572Y-7806D01*
X17573Y-7807D01*
X17574Y-7810D01*
X17561Y-7823D01*
X17556Y-7828D01*
X17551Y-7831D01*
X17546Y-7836D01*
X17544Y-7839D01*
X17543Y-7839D01*
X17534Y-7844D01*
X17525Y-7847D01*
X17517Y-7848D01*
X17508Y-7847D01*
X17504Y-7846D01*
X17496Y-7842D01*
X17488Y-7836D01*
X17480Y-7829D01*
X17476Y-7825D01*
X17475Y-7824D01*
X17473Y-7820D01*
X17469Y-7815D01*
X17464Y-7809D01*
X17459Y-7802D01*
X17453Y-7793D01*
X17446Y-7783D01*
X17438Y-7774D01*
X17431Y-7764D01*
X17423Y-7752D01*
X17414Y-7740D01*
X17405Y-7728D01*
X17397Y-7717D01*
X17389Y-7705D01*
X17380Y-7694D01*
X17373Y-7683D01*
X17365Y-7672D01*
X17358Y-7662D01*
X17351Y-7654D01*
X17346Y-7646D01*
X17341Y-7640D01*
X17336Y-7634D01*
X17334Y-7631D01*
X17333Y-7628D01*
X17332Y-7627D01*
X17333Y-7626D01*
X17335Y-7624D01*
X17339Y-7621D01*
X17343Y-7617D01*
X17348Y-7612D01*
X17348Y-7612D01*
X17364Y-7597D01*
X17430Y-7688D01*
X17441Y-7703D01*
X17451Y-7716D01*
X17460Y-7729D01*
X17467Y-7740D01*
X17474Y-7748D01*
X17480Y-7757D01*
X17485Y-7763D01*
X17489Y-7769D01*
X17493Y-7774D01*
X17496Y-7777D01*
X17499Y-7781D01*
X17501Y-7783D01*
X17504Y-7786D01*
X17505Y-7788D01*
X17507Y-7790D01*
X17518Y-7801D01*
X17523Y-7801D01*
X17527Y-7800D01*
X17530Y-7799D01*
X17534Y-7798D01*
X17539Y-7795D01*
X17542Y-7793D01*
X17548Y-7790D01*
X17551Y-7788D01*
X17555Y-7786D01*
X17556Y-7786D01*
X17556Y-7786D01*
X17556Y-7786D01*
X17556Y-7786D01*
G37*
G36*
X17860Y-7257D02*
X17865Y-7262D01*
X17870Y-7269D01*
X17873Y-7276D01*
X17875Y-7279D01*
X17877Y-7282D01*
X17879Y-7288D01*
X17881Y-7296D01*
X17884Y-7305D01*
X17887Y-7315D01*
X17892Y-7327D01*
X17896Y-7339D01*
X17900Y-7352D01*
X17904Y-7366D01*
X17904Y-7368D01*
X17931Y-7451D01*
X17912Y-7472D01*
X17906Y-7477D01*
X17902Y-7481D01*
X17898Y-7486D01*
X17894Y-7489D01*
X17892Y-7490D01*
X17892Y-7491D01*
X17891Y-7490D01*
X17888Y-7487D01*
X17883Y-7485D01*
X17877Y-7481D01*
X17870Y-7477D01*
X17862Y-7471D01*
X17852Y-7464D01*
X17841Y-7457D01*
X17830Y-7449D01*
X17818Y-7441D01*
X17806Y-7433D01*
X17794Y-7426D01*
X17781Y-7417D01*
X17770Y-7410D01*
X17759Y-7404D01*
X17749Y-7397D01*
X17741Y-7391D01*
X17734Y-7387D01*
X17728Y-7382D01*
X17724Y-7380D01*
X17721Y-7378D01*
X17720Y-7378D01*
X17720Y-7376D01*
X17723Y-7374D01*
X17726Y-7370D01*
X17730Y-7366D01*
X17736Y-7361D01*
X17736Y-7361D01*
X17752Y-7344D01*
X17814Y-7387D01*
X17826Y-7394D01*
X17836Y-7401D01*
X17845Y-7407D01*
X17854Y-7414D01*
X17862Y-7419D01*
X17868Y-7423D01*
X17873Y-7426D01*
X17876Y-7428D01*
X17879Y-7430D01*
X17879Y-7430D01*
X17878Y-7429D01*
X17878Y-7426D01*
X17877Y-7422D01*
X17875Y-7416D01*
X17872Y-7408D01*
X17870Y-7399D01*
X17867Y-7391D01*
X17863Y-7380D01*
X17860Y-7370D01*
X17856Y-7361D01*
X17853Y-7350D01*
X17849Y-7339D01*
X17846Y-7330D01*
X17843Y-7320D01*
X17839Y-7312D01*
X17836Y-7305D01*
X17835Y-7300D01*
X17834Y-7295D01*
X17832Y-7294D01*
X17829Y-7288D01*
X17827Y-7284D01*
X17824Y-7281D01*
X17824Y-7280D01*
X17821Y-7276D01*
X17835Y-7262D01*
X17849Y-7247D01*
X17854Y-7251D01*
X17860Y-7257D01*
X17860Y-7257D01*
X17860Y-7257D01*
G37*
G36*
X18141Y-7183D02*
X18143Y-7185D01*
X18146Y-7188D01*
X18149Y-7192D01*
X18152Y-7197D01*
X18156Y-7202D01*
X18159Y-7206D01*
X18161Y-7210D01*
X18162Y-7213D01*
X18163Y-7213D01*
X18163Y-7216D01*
X18162Y-7218D01*
X18162Y-7221D01*
X18159Y-7225D01*
X18155Y-7228D01*
X18150Y-7234D01*
X18145Y-7239D01*
X18141Y-7242D01*
X18138Y-7244D01*
X18137Y-7245D01*
X18135Y-7246D01*
X18133Y-7245D01*
X18130Y-7244D01*
X18129Y-7243D01*
X18126Y-7240D01*
X18124Y-7237D01*
X18120Y-7233D01*
X18116Y-7228D01*
X18114Y-7223D01*
X18111Y-7219D01*
X18109Y-7216D01*
X18109Y-7214D01*
X18108Y-7212D01*
X18108Y-7211D01*
X18109Y-7209D01*
X18110Y-7206D01*
X18114Y-7202D01*
X18117Y-7199D01*
X18121Y-7194D01*
X18126Y-7189D01*
X18130Y-7186D01*
X18132Y-7184D01*
X18133Y-7182D01*
X18136Y-7182D01*
X18137Y-7182D01*
X18137Y-7182D01*
X18140Y-7182D01*
X18141Y-7183D01*
X18141Y-7183D01*
X18141Y-7183D01*
G37*
G36*
X15056Y-10267D02*
X15056Y-10285D01*
X15056Y-10305D01*
X15037Y-10324D01*
X14999Y-10286D01*
X14960Y-10247D01*
X14922Y-10209D01*
X14884Y-10247D01*
X14845Y-10286D01*
X14883Y-10324D01*
X14922Y-10363D01*
X14961Y-10324D01*
X14999Y-10286D01*
X15037Y-10324D01*
X14999Y-10362D01*
X14941Y-10420D01*
X14921Y-10420D01*
X14903Y-10420D01*
X14845Y-10362D01*
X14787Y-10305D01*
X14787Y-10286D01*
X14787Y-10267D01*
X14845Y-10209D01*
X14903Y-10152D01*
X14922Y-10151D01*
X14941Y-10152D01*
X14998Y-10209D01*
X15056Y-10267D01*
X15056Y-10267D01*
X15056Y-10267D01*
G37*
G36*
X16460Y-8646D02*
X16463Y-8649D01*
X16467Y-8654D01*
X16472Y-8660D01*
X16472Y-8661D01*
X16477Y-8667D01*
X16479Y-8672D01*
X16482Y-8676D01*
X16482Y-8679D01*
X16481Y-8681D01*
X16480Y-8683D01*
X16478Y-8685D01*
X16475Y-8688D01*
X16472Y-8693D01*
X16467Y-8697D01*
X16462Y-8701D01*
X16459Y-8704D01*
X16457Y-8706D01*
X16456Y-8707D01*
X16453Y-8708D01*
X16450Y-8708D01*
X16450Y-8708D01*
X16448Y-8706D01*
X16446Y-8704D01*
X16443Y-8700D01*
X16440Y-8695D01*
X16439Y-8694D01*
X16434Y-8688D01*
X16431Y-8684D01*
X16429Y-8680D01*
X16427Y-8678D01*
X16427Y-8676D01*
X16426Y-8674D01*
X16426Y-8674D01*
X16426Y-8673D01*
X16426Y-8672D01*
X16426Y-8670D01*
X16428Y-8669D01*
X16430Y-8667D01*
X16433Y-8664D01*
X16437Y-8660D01*
X16440Y-8657D01*
X16444Y-8652D01*
X16448Y-8648D01*
X16452Y-8645D01*
X16455Y-8643D01*
X16455Y-8643D01*
X16456Y-8643D01*
X16458Y-8644D01*
X16460Y-8646D01*
X16460Y-8646D01*
X16460Y-8646D01*
G37*
G36*
X16868Y-8135D02*
X16879Y-8150D01*
X16884Y-8156D01*
X16887Y-8161D01*
X16890Y-8165D01*
X16891Y-8167D01*
X16891Y-8170D01*
X16890Y-8172D01*
X16890Y-8174D01*
X16889Y-8175D01*
X16886Y-8178D01*
X16883Y-8182D01*
X16878Y-8186D01*
X16874Y-8190D01*
X16870Y-8194D01*
X16867Y-8197D01*
X16864Y-8200D01*
X16863Y-8201D01*
X16861Y-8201D01*
X16858Y-8201D01*
X16856Y-8201D01*
X16856Y-8200D01*
X16854Y-8198D01*
X16852Y-8196D01*
X16849Y-8192D01*
X16846Y-8187D01*
X16844Y-8186D01*
X16839Y-8179D01*
X16837Y-8175D01*
X16835Y-8171D01*
X16834Y-8168D01*
X16834Y-8165D01*
X16837Y-8161D01*
X16840Y-8157D01*
X16845Y-8153D01*
X16848Y-8150D01*
X16853Y-8145D01*
X16856Y-8141D01*
X16859Y-8138D01*
X16861Y-8136D01*
X16862Y-8136D01*
X16864Y-8135D01*
X16865Y-8136D01*
X16868Y-8135D01*
X16868Y-8135D01*
X16868Y-8135D01*
G37*
G36*
X17078Y-7928D02*
X17081Y-7931D01*
X17083Y-7935D01*
X17087Y-7940D01*
X17091Y-7945D01*
X17095Y-7950D01*
X17097Y-7954D01*
X17099Y-7957D01*
X17100Y-7959D01*
X17100Y-7959D01*
X17100Y-7962D01*
X17098Y-7964D01*
X17098Y-7966D01*
X17096Y-7968D01*
X17093Y-7971D01*
X17090Y-7976D01*
X17085Y-7980D01*
X17081Y-7984D01*
X17076Y-7988D01*
X17073Y-7991D01*
X17071Y-7992D01*
X17071Y-7992D01*
X17067Y-7993D01*
X17065Y-7992D01*
X17064Y-7991D01*
X17061Y-7988D01*
X17058Y-7984D01*
X17054Y-7979D01*
X17050Y-7974D01*
X17047Y-7969D01*
X17044Y-7966D01*
X17043Y-7963D01*
X17042Y-7962D01*
X17042Y-7959D01*
X17043Y-7957D01*
X17044Y-7955D01*
X17047Y-7951D01*
X17051Y-7947D01*
X17056Y-7941D01*
X17057Y-7940D01*
X17063Y-7935D01*
X17066Y-7931D01*
X17070Y-7928D01*
X17072Y-7927D01*
X17074Y-7926D01*
X17076Y-7927D01*
X17076Y-7927D01*
X17078Y-7928D01*
X17078Y-7928D01*
X17078Y-7928D01*
G37*
G36*
X14893Y-10103D02*
X14893Y-10122D01*
X14893Y-10142D01*
X14874Y-10161D01*
X14835Y-10123D01*
X14797Y-10084D01*
X14758Y-10045D01*
X14720Y-10084D01*
X14682Y-10122D01*
X14720Y-10161D01*
X14758Y-10200D01*
X14797Y-10161D01*
X14835Y-10123D01*
X14874Y-10161D01*
X14835Y-10199D01*
X14777Y-10257D01*
X14758Y-10258D01*
X14739Y-10257D01*
X14681Y-10199D01*
X14624Y-10142D01*
X14623Y-10123D01*
X14624Y-10103D01*
X14682Y-10045D01*
X14739Y-9988D01*
X14758Y-9987D01*
X14777Y-9988D01*
X14835Y-10045D01*
X14893Y-10103D01*
X14893Y-10103D01*
X14893Y-10103D01*
G37*
G36*
X15219Y-9777D02*
X15219Y-9796D01*
X15219Y-9815D01*
X15200Y-9834D01*
X15162Y-9796D01*
X15124Y-9758D01*
X15084Y-9719D01*
X15046Y-9758D01*
X15008Y-9796D01*
X15046Y-9834D01*
X15085Y-9873D01*
X15123Y-9835D01*
X15162Y-9796D01*
X15200Y-9834D01*
X15161Y-9873D01*
X15103Y-9931D01*
X15085Y-9931D01*
X15067Y-9931D01*
X15009Y-9873D01*
X14951Y-9815D01*
X14950Y-9796D01*
X14951Y-9777D01*
X15008Y-9719D01*
X15066Y-9661D01*
X15084Y-9661D01*
X15104Y-9661D01*
X15161Y-9719D01*
X15219Y-9777D01*
X15219Y-9777D01*
X15219Y-9777D01*
G37*
G36*
X15383Y-9613D02*
X15382Y-9632D01*
X15383Y-9652D01*
X15363Y-9671D01*
X15325Y-9633D01*
X15286Y-9594D01*
X15248Y-9556D01*
X15210Y-9594D01*
X15171Y-9632D01*
X15210Y-9671D01*
X15248Y-9710D01*
X15287Y-9671D01*
X15325Y-9633D01*
X15363Y-9671D01*
X15325Y-9710D01*
X15267Y-9768D01*
X15247Y-9768D01*
X15229Y-9768D01*
X15171Y-9710D01*
X15114Y-9653D01*
X15114Y-9633D01*
X15114Y-9613D01*
X15171Y-9556D01*
X15229Y-9499D01*
X15248Y-9499D01*
X15268Y-9499D01*
X15325Y-9556D01*
X15383Y-9613D01*
X15383Y-9613D01*
X15383Y-9613D01*
G37*
G36*
X15546Y-9451D02*
X15546Y-9470D01*
X15546Y-9488D01*
X15526Y-9508D01*
X15488Y-9470D01*
X15449Y-9431D01*
X15411Y-9393D01*
X15372Y-9432D01*
X15334Y-9470D01*
X15373Y-9509D01*
X15411Y-9547D01*
X15449Y-9509D01*
X15488Y-9470D01*
X15526Y-9508D01*
X15488Y-9546D01*
X15430Y-9604D01*
X15410Y-9604D01*
X15392Y-9604D01*
X15334Y-9546D01*
X15277Y-9489D01*
X15276Y-9470D01*
X15277Y-9451D01*
X15334Y-9393D01*
X15392Y-9336D01*
X15410Y-9336D01*
X15430Y-9336D01*
X15488Y-9393D01*
X15546Y-9451D01*
X15546Y-9451D01*
X15546Y-9451D01*
G37*
G36*
X15709Y-9287D02*
X15708Y-9307D01*
X15709Y-9326D01*
X15690Y-9345D01*
X15651Y-9307D01*
X15613Y-9268D01*
X15574Y-9229D01*
X15535Y-9268D01*
X15497Y-9307D01*
X15536Y-9345D01*
X15574Y-9384D01*
X15613Y-9345D01*
X15651Y-9307D01*
X15690Y-9345D01*
X15651Y-9384D01*
X15593Y-9442D01*
X15574Y-9441D01*
X15555Y-9442D01*
X15497Y-9384D01*
X15439Y-9326D01*
X15439Y-9307D01*
X15440Y-9287D01*
X15497Y-9230D01*
X15555Y-9172D01*
X15574Y-9172D01*
X15593Y-9172D01*
X15651Y-9229D01*
X15709Y-9287D01*
X15709Y-9287D01*
X15709Y-9287D01*
G37*
G36*
X16219Y-8202D02*
X16220Y-8203D01*
X16221Y-8206D01*
X16223Y-8211D01*
X16228Y-8218D01*
X16232Y-8225D01*
X16238Y-8235D01*
X16244Y-8246D01*
X16251Y-8257D01*
X16259Y-8271D01*
X16267Y-8284D01*
X16276Y-8299D01*
X16284Y-8314D01*
X16294Y-8331D01*
X16303Y-8346D01*
X16385Y-8488D01*
X16390Y-8517D01*
X16395Y-8545D01*
X16378Y-8561D01*
X16373Y-8566D01*
X16369Y-8570D01*
X16366Y-8573D01*
X16364Y-8575D01*
X16364Y-8576D01*
X16362Y-8576D01*
X16361Y-8575D01*
X16361Y-8575D01*
X16361Y-8574D01*
X16359Y-8570D01*
X16356Y-8566D01*
X16353Y-8560D01*
X16349Y-8553D01*
X16344Y-8544D01*
X16339Y-8534D01*
X16333Y-8524D01*
X16331Y-8521D01*
X16325Y-8510D01*
X16320Y-8501D01*
X16315Y-8492D01*
X16310Y-8485D01*
X16306Y-8478D01*
X16303Y-8472D01*
X16301Y-8469D01*
X16300Y-8467D01*
X16301Y-8466D01*
X16299Y-8466D01*
X16296Y-8468D01*
X16296Y-8469D01*
X16288Y-8474D01*
X16281Y-8478D01*
X16276Y-8481D01*
X16271Y-8483D01*
X16260Y-8486D01*
X16248Y-8487D01*
X16236Y-8485D01*
X16222Y-8481D01*
X16211Y-8476D01*
X16209Y-8475D01*
X16204Y-8472D01*
X16199Y-8469D01*
X16192Y-8466D01*
X16185Y-8461D01*
X16175Y-8455D01*
X16165Y-8449D01*
X16155Y-8444D01*
X16144Y-8437D01*
X16132Y-8431D01*
X16121Y-8424D01*
X16110Y-8418D01*
X16100Y-8411D01*
X16089Y-8405D01*
X16079Y-8399D01*
X16070Y-8394D01*
X16062Y-8389D01*
X16055Y-8385D01*
X16050Y-8382D01*
X16045Y-8379D01*
X16042Y-8378D01*
X16042Y-8377D01*
X16043Y-8376D01*
X16045Y-8374D01*
X16049Y-8370D01*
X16053Y-8366D01*
X16059Y-8360D01*
X16064Y-8354D01*
X16065Y-8353D01*
X16088Y-8329D01*
X16166Y-8376D01*
X16178Y-8384D01*
X16191Y-8391D01*
X16202Y-8398D01*
X16212Y-8404D01*
X16222Y-8409D01*
X16230Y-8414D01*
X16237Y-8418D01*
X16242Y-8421D01*
X16245Y-8423D01*
X16248Y-8423D01*
X16253Y-8425D01*
X16260Y-8423D01*
X16265Y-8420D01*
X16270Y-8416D01*
X16268Y-8413D01*
X16267Y-8411D01*
X16265Y-8408D01*
X16262Y-8402D01*
X16258Y-8396D01*
X16253Y-8388D01*
X16248Y-8379D01*
X16243Y-8369D01*
X16236Y-8358D01*
X16228Y-8346D01*
X16221Y-8334D01*
X16220Y-8331D01*
X16212Y-8319D01*
X16205Y-8306D01*
X16199Y-8295D01*
X16193Y-8285D01*
X16187Y-8276D01*
X16182Y-8268D01*
X16178Y-8261D01*
X16176Y-8256D01*
X16173Y-8252D01*
X16172Y-8250D01*
X16172Y-8250D01*
X16170Y-8247D01*
X16194Y-8224D01*
X16201Y-8217D01*
X16207Y-8213D01*
X16211Y-8208D01*
X16214Y-8206D01*
X16216Y-8203D01*
X16217Y-8202D01*
X16219Y-8202D01*
X16219Y-8202D01*
X16219Y-8202D01*
X16219Y-8202D01*
X16219Y-8202D01*
G37*
G36*
X16564Y-8200D02*
X16546Y-8218D01*
X16528Y-8236D01*
X16514Y-8232D01*
X16500Y-8227D01*
X16470Y-8198D01*
X16455Y-8182D01*
X16449Y-8177D01*
X16446Y-8173D01*
X16443Y-8170D01*
X16441Y-8168D01*
X16440Y-8167D01*
X16438Y-8167D01*
X16438Y-8168D01*
X16438Y-8168D01*
X16436Y-8170D01*
X16432Y-8174D01*
X16428Y-8178D01*
X16424Y-8184D01*
X16419Y-8189D01*
X16414Y-8195D01*
X16409Y-8201D01*
X16405Y-8206D01*
X16401Y-8210D01*
X16398Y-8215D01*
X16397Y-8216D01*
X16396Y-8217D01*
X16395Y-8222D01*
X16395Y-8227D01*
X16396Y-8232D01*
X16397Y-8235D01*
X16400Y-8237D01*
X16403Y-8242D01*
X16407Y-8247D01*
X16412Y-8251D01*
X16416Y-8254D01*
X16419Y-8257D01*
X16419Y-8257D01*
X16426Y-8259D01*
X16431Y-8259D01*
X16434Y-8258D01*
X16438Y-8256D01*
X16443Y-8252D01*
X16448Y-8246D01*
X16453Y-8241D01*
X16455Y-8235D01*
X16458Y-8231D01*
X16461Y-8225D01*
X16463Y-8219D01*
X16465Y-8213D01*
X16470Y-8198D01*
X16500Y-8227D01*
X16500Y-8227D01*
X16499Y-8234D01*
X16498Y-8242D01*
X16495Y-8252D01*
X16492Y-8262D01*
X16487Y-8273D01*
X16482Y-8282D01*
X16480Y-8285D01*
X16475Y-8293D01*
X16467Y-8300D01*
X16460Y-8307D01*
X16454Y-8312D01*
X16447Y-8316D01*
X16438Y-8319D01*
X16431Y-8322D01*
X16426Y-8322D01*
X16417Y-8322D01*
X16407Y-8322D01*
X16397Y-8319D01*
X16389Y-8314D01*
X16385Y-8313D01*
X16381Y-8309D01*
X16376Y-8306D01*
X16371Y-8300D01*
X16365Y-8295D01*
X16359Y-8289D01*
X16354Y-8283D01*
X16349Y-8278D01*
X16347Y-8275D01*
X16341Y-8264D01*
X16337Y-8254D01*
X16335Y-8242D01*
X16337Y-8231D01*
X16339Y-8220D01*
X16340Y-8218D01*
X16342Y-8213D01*
X16344Y-8210D01*
X16346Y-8206D01*
X16349Y-8203D01*
X16353Y-8198D01*
X16358Y-8193D01*
X16364Y-8186D01*
X16371Y-8179D01*
X16378Y-8172D01*
X16385Y-8166D01*
X16390Y-8159D01*
X16396Y-8153D01*
X16401Y-8148D01*
X16405Y-8145D01*
X16407Y-8142D01*
X16408Y-8141D01*
X16411Y-8137D01*
X16401Y-8128D01*
X16397Y-8125D01*
X16392Y-8121D01*
X16390Y-8119D01*
X16388Y-8118D01*
X16383Y-8116D01*
X16378Y-8116D01*
X16372Y-8118D01*
X16369Y-8119D01*
X16366Y-8121D01*
X16363Y-8124D01*
X16357Y-8128D01*
X16351Y-8134D01*
X16344Y-8141D01*
X16337Y-8148D01*
X16330Y-8157D01*
X16322Y-8165D01*
X16315Y-8173D01*
X16308Y-8180D01*
X16308Y-8181D01*
X16303Y-8187D01*
X16298Y-8192D01*
X16294Y-8197D01*
X16291Y-8201D01*
X16289Y-8203D01*
X16288Y-8203D01*
X16287Y-8204D01*
X16287Y-8204D01*
X16286Y-8204D01*
X16284Y-8203D01*
X16281Y-8200D01*
X16278Y-8196D01*
X16273Y-8191D01*
X16272Y-8191D01*
X16259Y-8177D01*
X16262Y-8169D01*
X16270Y-8156D01*
X16279Y-8141D01*
X16291Y-8126D01*
X16305Y-8110D01*
X16310Y-8103D01*
X16321Y-8092D01*
X16330Y-8083D01*
X16339Y-8075D01*
X16347Y-8069D01*
X16354Y-8065D01*
X16361Y-8061D01*
X16369Y-8057D01*
X16371Y-8056D01*
X16383Y-8054D01*
X16394Y-8054D01*
X16405Y-8056D01*
X16415Y-8059D01*
X16422Y-8062D01*
X16424Y-8063D01*
X16425Y-8065D01*
X16426Y-8065D01*
X16428Y-8066D01*
X16430Y-8068D01*
X16432Y-8070D01*
X16436Y-8073D01*
X16439Y-8076D01*
X16443Y-8080D01*
X16448Y-8085D01*
X16455Y-8092D01*
X16462Y-8099D01*
X16470Y-8107D01*
X16480Y-8117D01*
X16491Y-8128D01*
X16497Y-8134D01*
X16564Y-8200D01*
X16564Y-8200D01*
X16564Y-8200D01*
G37*
G36*
X17431Y-7230D02*
X17439Y-7238D01*
X17445Y-7244D01*
X17450Y-7250D01*
X17454Y-7255D01*
X17457Y-7259D01*
X17459Y-7264D01*
X17461Y-7269D01*
X17460Y-7270D01*
X17462Y-7279D01*
X17462Y-7287D01*
X17460Y-7298D01*
X17456Y-7307D01*
X17454Y-7310D01*
X17452Y-7314D01*
X17447Y-7319D01*
X17441Y-7326D01*
X17433Y-7334D01*
X17425Y-7342D01*
X17414Y-7353D01*
X17408Y-7358D01*
X17394Y-7371D01*
X17382Y-7382D01*
X17371Y-7390D01*
X17362Y-7398D01*
X17354Y-7403D01*
X17347Y-7407D01*
X17344Y-7409D01*
X17337Y-7411D01*
X17323Y-7397D01*
X17309Y-7383D01*
X17352Y-7340D01*
X17396Y-7296D01*
X17396Y-7291D01*
X17396Y-7285D01*
X17387Y-7276D01*
X17382Y-7271D01*
X17377Y-7268D01*
X17375Y-7267D01*
X17372Y-7265D01*
X17370Y-7266D01*
X17368Y-7266D01*
X17367Y-7267D01*
X17364Y-7269D01*
X17361Y-7271D01*
X17356Y-7276D01*
X17350Y-7281D01*
X17343Y-7288D01*
X17335Y-7296D01*
X17327Y-7304D01*
X17321Y-7310D01*
X17315Y-7315D01*
X17312Y-7318D01*
X17308Y-7322D01*
X17306Y-7324D01*
X17303Y-7325D01*
X17301Y-7327D01*
X17299Y-7328D01*
X17297Y-7329D01*
X17296Y-7329D01*
X17286Y-7334D01*
X17276Y-7336D01*
X17266Y-7336D01*
X17257Y-7334D01*
X17245Y-7329D01*
X17242Y-7327D01*
X17238Y-7325D01*
X17234Y-7321D01*
X17228Y-7316D01*
X17222Y-7310D01*
X17216Y-7304D01*
X17209Y-7298D01*
X17204Y-7291D01*
X17199Y-7286D01*
X17196Y-7282D01*
X17196Y-7281D01*
X17191Y-7271D01*
X17188Y-7261D01*
X17187Y-7251D01*
X17188Y-7241D01*
X17189Y-7238D01*
X17190Y-7233D01*
X17192Y-7229D01*
X17194Y-7225D01*
X17196Y-7222D01*
X17199Y-7218D01*
X17202Y-7214D01*
X17208Y-7209D01*
X17213Y-7203D01*
X17221Y-7196D01*
X17235Y-7182D01*
X17248Y-7170D01*
X17261Y-7158D01*
X17271Y-7149D01*
X17281Y-7141D01*
X17291Y-7134D01*
X17298Y-7129D01*
X17305Y-7126D01*
X17305Y-7125D01*
X17310Y-7124D01*
X17324Y-7138D01*
X17338Y-7152D01*
X17295Y-7194D01*
X17286Y-7204D01*
X17277Y-7213D01*
X17271Y-7221D01*
X17265Y-7226D01*
X17260Y-7231D01*
X17257Y-7235D01*
X17254Y-7237D01*
X17253Y-7240D01*
X17252Y-7240D01*
X17252Y-7240D01*
X17252Y-7244D01*
X17252Y-7247D01*
X17254Y-7251D01*
X17258Y-7256D01*
X17260Y-7258D01*
X17266Y-7264D01*
X17271Y-7268D01*
X17276Y-7270D01*
X17279Y-7270D01*
X17280Y-7269D01*
X17282Y-7267D01*
X17286Y-7264D01*
X17291Y-7260D01*
X17296Y-7254D01*
X17304Y-7248D01*
X17311Y-7241D01*
X17319Y-7233D01*
X17325Y-7227D01*
X17332Y-7221D01*
X17337Y-7216D01*
X17341Y-7212D01*
X17345Y-7210D01*
X17346Y-7209D01*
X17355Y-7204D01*
X17365Y-7201D01*
X17374Y-7199D01*
X17384Y-7199D01*
X17392Y-7201D01*
X17397Y-7203D01*
X17402Y-7204D01*
X17405Y-7206D01*
X17410Y-7210D01*
X17415Y-7213D01*
X17420Y-7218D01*
X17427Y-7225D01*
X17431Y-7230D01*
X17431Y-7230D01*
X17431Y-7230D01*
G37*
G36*
X17597Y-7002D02*
X17607Y-7014D01*
X17618Y-7026D01*
X17626Y-7037D01*
X17628Y-7040D01*
X17635Y-7052D01*
X17641Y-7064D01*
X17644Y-7075D01*
X17645Y-7086D01*
X17645Y-7097D01*
X17642Y-7108D01*
X17637Y-7120D01*
X17631Y-7129D01*
X17550Y-7047D01*
X17549Y-7047D01*
X17539Y-7036D01*
X17530Y-7028D01*
X17522Y-7021D01*
X17515Y-7015D01*
X17509Y-7012D01*
X17505Y-7009D01*
X17499Y-7008D01*
X17495Y-7008D01*
X17491Y-7008D01*
X17486Y-7010D01*
X17484Y-7010D01*
X17482Y-7011D01*
X17480Y-7013D01*
X17477Y-7014D01*
X17475Y-7016D01*
X17472Y-7020D01*
X17467Y-7025D01*
X17464Y-7028D01*
X17459Y-7032D01*
X17455Y-7037D01*
X17451Y-7040D01*
X17448Y-7043D01*
X17447Y-7045D01*
X17447Y-7047D01*
X17445Y-7052D01*
X17445Y-7054D01*
X17445Y-7059D01*
X17447Y-7064D01*
X17449Y-7069D01*
X17452Y-7075D01*
X17456Y-7081D01*
X17462Y-7088D01*
X17469Y-7096D01*
X17474Y-7103D01*
X17481Y-7110D01*
X17488Y-7117D01*
X17496Y-7123D01*
X17501Y-7129D01*
X17508Y-7134D01*
X17513Y-7137D01*
X17515Y-7140D01*
X17524Y-7144D01*
X17532Y-7146D01*
X17541Y-7146D01*
X17544Y-7144D01*
X17548Y-7143D01*
X17554Y-7139D01*
X17560Y-7134D01*
X17566Y-7127D01*
X17573Y-7120D01*
X17578Y-7114D01*
X17581Y-7110D01*
X17583Y-7105D01*
X17585Y-7099D01*
X17585Y-7095D01*
X17585Y-7095D01*
X17584Y-7091D01*
X17583Y-7087D01*
X17581Y-7085D01*
X17579Y-7081D01*
X17577Y-7077D01*
X17574Y-7073D01*
X17571Y-7069D01*
X17568Y-7065D01*
X17563Y-7060D01*
X17557Y-7054D01*
X17550Y-7047D01*
X17631Y-7129D01*
X17630Y-7131D01*
X17621Y-7143D01*
X17616Y-7150D01*
X17607Y-7160D01*
X17599Y-7168D01*
X17591Y-7176D01*
X17587Y-7179D01*
X17577Y-7187D01*
X17567Y-7193D01*
X17558Y-7198D01*
X17548Y-7202D01*
X17544Y-7204D01*
X17533Y-7206D01*
X17522Y-7206D01*
X17511Y-7205D01*
X17499Y-7201D01*
X17486Y-7196D01*
X17474Y-7188D01*
X17461Y-7179D01*
X17447Y-7167D01*
X17433Y-7153D01*
X17426Y-7145D01*
X17417Y-7135D01*
X17410Y-7126D01*
X17404Y-7118D01*
X17399Y-7111D01*
X17395Y-7103D01*
X17394Y-7100D01*
X17388Y-7089D01*
X17385Y-7078D01*
X17384Y-7066D01*
X17385Y-7055D01*
X17388Y-7044D01*
X17393Y-7033D01*
X17400Y-7020D01*
X17409Y-7008D01*
X17416Y-7000D01*
X17423Y-6994D01*
X17429Y-6987D01*
X17435Y-6981D01*
X17438Y-6978D01*
X17451Y-6968D01*
X17464Y-6960D01*
X17475Y-6954D01*
X17486Y-6950D01*
X17498Y-6948D01*
X17510Y-6948D01*
X17522Y-6950D01*
X17533Y-6954D01*
X17545Y-6960D01*
X17559Y-6970D01*
X17573Y-6979D01*
X17575Y-6982D01*
X17586Y-6991D01*
X17597Y-7002D01*
X17597Y-7002D01*
X17597Y-7002D01*
G37*
G36*
X17060Y-7464D02*
X17068Y-7472D01*
X17075Y-7479D01*
X17081Y-7484D01*
X17085Y-7489D01*
X17088Y-7493D01*
X17092Y-7497D01*
X17095Y-7500D01*
X17097Y-7504D01*
X17100Y-7507D01*
X17100Y-7508D01*
X17110Y-7521D01*
X17118Y-7533D01*
X17124Y-7545D01*
X17129Y-7556D01*
X17132Y-7566D01*
X17135Y-7576D01*
X17136Y-7585D01*
X17136Y-7596D01*
X17136Y-7600D01*
X17134Y-7609D01*
X17131Y-7619D01*
X17129Y-7624D01*
X17023Y-7518D01*
X17011Y-7505D01*
X17008Y-7502D01*
X16999Y-7493D01*
X16991Y-7487D01*
X16986Y-7481D01*
X16980Y-7477D01*
X16976Y-7473D01*
X16972Y-7470D01*
X16967Y-7467D01*
X16962Y-7465D01*
X16962Y-7464D01*
X16951Y-7460D01*
X16943Y-7457D01*
X16934Y-7455D01*
X16927Y-7455D01*
X16919Y-7457D01*
X16914Y-7460D01*
X16912Y-7461D01*
X16910Y-7462D01*
X16907Y-7464D01*
X16904Y-7467D01*
X16902Y-7469D01*
X16897Y-7474D01*
X16892Y-7479D01*
X16889Y-7482D01*
X16883Y-7489D01*
X16878Y-7493D01*
X16874Y-7497D01*
X16871Y-7500D01*
X16869Y-7502D01*
X16868Y-7505D01*
X16866Y-7508D01*
X16866Y-7508D01*
X16863Y-7513D01*
X16862Y-7518D01*
X16862Y-7522D01*
X16861Y-7525D01*
X16862Y-7532D01*
X16863Y-7539D01*
X16866Y-7545D01*
X16869Y-7551D01*
X16873Y-7559D01*
X16879Y-7567D01*
X16886Y-7577D01*
X16895Y-7588D01*
X16897Y-7590D01*
X16904Y-7596D01*
X16910Y-7604D01*
X16918Y-7612D01*
X16926Y-7620D01*
X16935Y-7627D01*
X16943Y-7635D01*
X16950Y-7641D01*
X16955Y-7646D01*
X16965Y-7653D01*
X16974Y-7658D01*
X16983Y-7662D01*
X16991Y-7665D01*
X16998Y-7665D01*
X17006Y-7664D01*
X17013Y-7661D01*
X17020Y-7658D01*
X17027Y-7653D01*
X17036Y-7646D01*
X17044Y-7638D01*
X17052Y-7630D01*
X17059Y-7621D01*
X17062Y-7616D01*
X17066Y-7609D01*
X17069Y-7602D01*
X17071Y-7595D01*
X17071Y-7589D01*
X17069Y-7583D01*
X17066Y-7575D01*
X17063Y-7567D01*
X17058Y-7558D01*
X17052Y-7549D01*
X17044Y-7539D01*
X17035Y-7529D01*
X17023Y-7518D01*
X17129Y-7624D01*
X17126Y-7630D01*
X17119Y-7641D01*
X17110Y-7654D01*
X17106Y-7658D01*
X17102Y-7664D01*
X17095Y-7671D01*
X17088Y-7678D01*
X17081Y-7685D01*
X17073Y-7692D01*
X17067Y-7699D01*
X17060Y-7704D01*
X17059Y-7706D01*
X17048Y-7713D01*
X17039Y-7720D01*
X17029Y-7724D01*
X17022Y-7727D01*
X17011Y-7729D01*
X17002Y-7731D01*
X16992Y-7731D01*
X16982Y-7730D01*
X16972Y-7726D01*
X16960Y-7723D01*
X16959Y-7722D01*
X16948Y-7717D01*
X16937Y-7711D01*
X16926Y-7703D01*
X16921Y-7699D01*
X16905Y-7687D01*
X16890Y-7673D01*
X16875Y-7660D01*
X16861Y-7645D01*
X16847Y-7630D01*
X16836Y-7616D01*
X16826Y-7602D01*
X16817Y-7590D01*
X16810Y-7578D01*
X16805Y-7567D01*
X16801Y-7557D01*
X16800Y-7547D01*
X16798Y-7537D01*
X16798Y-7527D01*
X16798Y-7515D01*
X16801Y-7505D01*
X16805Y-7494D01*
X16810Y-7483D01*
X16817Y-7472D01*
X16827Y-7460D01*
X16838Y-7448D01*
X16839Y-7448D01*
X16851Y-7435D01*
X16863Y-7423D01*
X16875Y-7414D01*
X16886Y-7406D01*
X16896Y-7400D01*
X16905Y-7395D01*
X16909Y-7394D01*
X16916Y-7393D01*
X16923Y-7392D01*
X16931Y-7390D01*
X16939Y-7390D01*
X16945Y-7390D01*
X16947Y-7390D01*
X16957Y-7393D01*
X16967Y-7397D01*
X16979Y-7402D01*
X16991Y-7408D01*
X17004Y-7415D01*
X17017Y-7423D01*
X17019Y-7426D01*
X17023Y-7428D01*
X17025Y-7431D01*
X17028Y-7433D01*
X17032Y-7436D01*
X17037Y-7441D01*
X17042Y-7446D01*
X17049Y-7452D01*
X17056Y-7460D01*
X17060Y-7464D01*
X17060Y-7464D01*
X17060Y-7464D01*
G37*
G36*
X15958Y-8331D02*
X15960Y-8334D01*
X15960Y-8335D01*
X15962Y-8338D01*
X15965Y-8343D01*
X15968Y-8349D01*
X15972Y-8358D01*
X15978Y-8366D01*
X15984Y-8377D01*
X15991Y-8389D01*
X15997Y-8401D01*
X16005Y-8414D01*
X16013Y-8428D01*
X16021Y-8442D01*
X16030Y-8457D01*
X16038Y-8471D01*
X16047Y-8487D01*
X16054Y-8502D01*
X16064Y-8517D01*
X16072Y-8531D01*
X16079Y-8545D01*
X16087Y-8558D01*
X16095Y-8572D01*
X16102Y-8583D01*
X16108Y-8594D01*
X16113Y-8604D01*
X16119Y-8613D01*
X16122Y-8620D01*
X16126Y-8626D01*
X16127Y-8630D01*
X16129Y-8632D01*
X16129Y-8632D01*
X16129Y-8633D01*
X16129Y-8633D01*
X16129Y-8635D01*
X16127Y-8637D01*
X16125Y-8639D01*
X16122Y-8643D01*
X16117Y-8647D01*
X16112Y-8652D01*
X16105Y-8660D01*
X16104Y-8660D01*
X16078Y-8686D01*
X16013Y-8655D01*
X16002Y-8649D01*
X15991Y-8643D01*
X15982Y-8638D01*
X15973Y-8634D01*
X15965Y-8630D01*
X15959Y-8627D01*
X15954Y-8625D01*
X15951Y-8623D01*
X15949Y-8623D01*
X15949Y-8623D01*
X15950Y-8623D01*
X15951Y-8626D01*
X15953Y-8631D01*
X15957Y-8638D01*
X15961Y-8645D01*
X15965Y-8653D01*
X15971Y-8663D01*
X15977Y-8673D01*
X15982Y-8684D01*
X15983Y-8685D01*
X16018Y-8746D01*
X15992Y-8773D01*
X15965Y-8800D01*
X15810Y-8718D01*
X15792Y-8709D01*
X15774Y-8700D01*
X15758Y-8692D01*
X15743Y-8684D01*
X15728Y-8676D01*
X15714Y-8668D01*
X15702Y-8662D01*
X15690Y-8656D01*
X15680Y-8650D01*
X15671Y-8646D01*
X15664Y-8642D01*
X15659Y-8639D01*
X15656Y-8638D01*
X15654Y-8637D01*
X15653Y-8636D01*
X15654Y-8635D01*
X15656Y-8633D01*
X15659Y-8630D01*
X15664Y-8625D01*
X15669Y-8620D01*
X15675Y-8614D01*
X15677Y-8612D01*
X15701Y-8588D01*
X15709Y-8592D01*
X15711Y-8594D01*
X15715Y-8595D01*
X15721Y-8598D01*
X15728Y-8602D01*
X15737Y-8607D01*
X15747Y-8613D01*
X15758Y-8618D01*
X15770Y-8625D01*
X15784Y-8633D01*
X15796Y-8640D01*
X15811Y-8647D01*
X15823Y-8654D01*
X15837Y-8662D01*
X15851Y-8669D01*
X15864Y-8676D01*
X15876Y-8683D01*
X15888Y-8688D01*
X15898Y-8694D01*
X15907Y-8699D01*
X15914Y-8703D01*
X15920Y-8705D01*
X15925Y-8708D01*
X15928Y-8709D01*
X15928Y-8709D01*
X15927Y-8708D01*
X15926Y-8705D01*
X15922Y-8701D01*
X15919Y-8694D01*
X15914Y-8686D01*
X15909Y-8677D01*
X15903Y-8667D01*
X15896Y-8656D01*
X15888Y-8644D01*
X15881Y-8631D01*
X15872Y-8616D01*
X15864Y-8602D01*
X15861Y-8600D01*
X15796Y-8493D01*
X15820Y-8469D01*
X15828Y-8462D01*
X15834Y-8455D01*
X15838Y-8451D01*
X15841Y-8448D01*
X15843Y-8446D01*
X15845Y-8445D01*
X15845Y-8445D01*
X15845Y-8445D01*
X15846Y-8446D01*
X15848Y-8449D01*
X15851Y-8454D01*
X15854Y-8459D01*
X15858Y-8466D01*
X15863Y-8474D01*
X15867Y-8483D01*
X15868Y-8483D01*
X15890Y-8521D01*
X15954Y-8554D01*
X15970Y-8563D01*
X15983Y-8569D01*
X15995Y-8575D01*
X16006Y-8580D01*
X16014Y-8585D01*
X16021Y-8588D01*
X16027Y-8592D01*
X16032Y-8594D01*
X16035Y-8596D01*
X16038Y-8597D01*
X16040Y-8597D01*
X16041Y-8599D01*
X16042Y-8598D01*
X16042Y-8598D01*
X16042Y-8598D01*
X16042Y-8598D01*
X16042Y-8597D01*
X16042Y-8597D01*
X16041Y-8596D01*
X16039Y-8592D01*
X16036Y-8588D01*
X16033Y-8582D01*
X16028Y-8574D01*
X16023Y-8565D01*
X16016Y-8554D01*
X16009Y-8543D01*
X16001Y-8531D01*
X15994Y-8518D01*
X15986Y-8504D01*
X15980Y-8495D01*
X15972Y-8481D01*
X15963Y-8467D01*
X15956Y-8455D01*
X15948Y-8442D01*
X15941Y-8431D01*
X15935Y-8421D01*
X15929Y-8411D01*
X15924Y-8403D01*
X15921Y-8396D01*
X15917Y-8392D01*
X15915Y-8388D01*
X15914Y-8387D01*
X15910Y-8379D01*
X15934Y-8355D01*
X15958Y-8331D01*
X15958Y-8331D01*
X15958Y-8331D01*
G37*
G36*
X16537Y-7880D02*
X16554Y-7899D01*
X16571Y-7916D01*
X16553Y-7935D01*
X16533Y-7955D01*
X16576Y-7997D01*
X16586Y-8007D01*
X16595Y-8015D01*
X16602Y-8022D01*
X16607Y-8028D01*
X16612Y-8033D01*
X16617Y-8037D01*
X16620Y-8039D01*
X16624Y-8041D01*
X16626Y-8044D01*
X16628Y-8044D01*
X16630Y-8045D01*
X16633Y-8045D01*
X16635Y-8046D01*
X16635Y-8046D01*
X16641Y-8046D01*
X16646Y-8045D01*
X16652Y-8043D01*
X16660Y-8039D01*
X16668Y-8035D01*
X16680Y-8029D01*
X16694Y-8042D01*
X16708Y-8056D01*
X16686Y-8078D01*
X16680Y-8085D01*
X16675Y-8090D01*
X16670Y-8095D01*
X16665Y-8099D01*
X16663Y-8102D01*
X16660Y-8102D01*
X16652Y-8108D01*
X16641Y-8111D01*
X16631Y-8113D01*
X16621Y-8112D01*
X16610Y-8109D01*
X16599Y-8104D01*
X16597Y-8102D01*
X16593Y-8099D01*
X16589Y-8097D01*
X16585Y-8095D01*
X16581Y-8091D01*
X16576Y-8087D01*
X16571Y-8083D01*
X16564Y-8077D01*
X16558Y-8070D01*
X16549Y-8062D01*
X16540Y-8053D01*
X16530Y-8042D01*
X16530Y-8042D01*
X16488Y-8000D01*
X16475Y-8014D01*
X16460Y-8028D01*
X16448Y-8015D01*
X16435Y-8003D01*
X16444Y-7984D01*
X16447Y-7978D01*
X16449Y-7973D01*
X16450Y-7969D01*
X16452Y-7966D01*
X16453Y-7965D01*
X16452Y-7964D01*
X16450Y-7962D01*
X16447Y-7958D01*
X16443Y-7952D01*
X16439Y-7946D01*
X16434Y-7940D01*
X16433Y-7938D01*
X16427Y-7931D01*
X16424Y-7925D01*
X16419Y-7919D01*
X16417Y-7915D01*
X16414Y-7912D01*
X16412Y-7911D01*
X16412Y-7911D01*
X16413Y-7910D01*
X16416Y-7907D01*
X16419Y-7904D01*
X16423Y-7900D01*
X16428Y-7895D01*
X16431Y-7892D01*
X16450Y-7872D01*
X16475Y-7897D01*
X16498Y-7920D01*
X16518Y-7900D01*
X16537Y-7880D01*
X16537Y-7880D01*
X16537Y-7880D01*
G37*
G36*
X16713Y-7776D02*
X16694Y-7795D01*
X16675Y-7814D01*
X16714Y-7853D01*
X16722Y-7861D01*
X16730Y-7870D01*
X16738Y-7877D01*
X16745Y-7882D01*
X16750Y-7888D01*
X16755Y-7892D01*
X16758Y-7896D01*
X16759Y-7897D01*
X16764Y-7899D01*
X16769Y-7902D01*
X16772Y-7903D01*
X16776Y-7904D01*
X16781Y-7904D01*
X16786Y-7904D01*
X16792Y-7901D01*
X16799Y-7899D01*
X16807Y-7895D01*
X16821Y-7888D01*
X16836Y-7901D01*
X16849Y-7915D01*
X16827Y-7937D01*
X16821Y-7943D01*
X16815Y-7949D01*
X16810Y-7954D01*
X16805Y-7957D01*
X16803Y-7960D01*
X16800Y-7962D01*
X16791Y-7967D01*
X16781Y-7971D01*
X16770Y-7971D01*
X16760Y-7970D01*
X16749Y-7967D01*
X16745Y-7964D01*
X16742Y-7963D01*
X16738Y-7962D01*
X16735Y-7959D01*
X16733Y-7958D01*
X16729Y-7956D01*
X16726Y-7953D01*
X16721Y-7950D01*
X16717Y-7945D01*
X16712Y-7940D01*
X16706Y-7934D01*
X16698Y-7926D01*
X16689Y-7918D01*
X16678Y-7908D01*
X16676Y-7906D01*
X16629Y-7859D01*
X16615Y-7873D01*
X16600Y-7887D01*
X16588Y-7875D01*
X16576Y-7862D01*
X16585Y-7843D01*
X16588Y-7837D01*
X16590Y-7831D01*
X16592Y-7827D01*
X16593Y-7824D01*
X16594Y-7824D01*
X16593Y-7823D01*
X16591Y-7821D01*
X16588Y-7817D01*
X16585Y-7812D01*
X16581Y-7806D01*
X16576Y-7800D01*
X16571Y-7793D01*
X16566Y-7786D01*
X16562Y-7781D01*
X16559Y-7776D01*
X16557Y-7774D01*
X16556Y-7771D01*
X16554Y-7769D01*
X16573Y-7750D01*
X16592Y-7731D01*
X16616Y-7755D01*
X16639Y-7778D01*
X16658Y-7759D01*
X16677Y-7740D01*
X16695Y-7758D01*
X16713Y-7776D01*
X16713Y-7776D01*
X16713Y-7776D01*
G37*
G36*
X17306Y-7458D02*
X17284Y-7480D01*
X17279Y-7486D01*
X17273Y-7491D01*
X17268Y-7496D01*
X17263Y-7500D01*
X17260Y-7503D01*
X17259Y-7504D01*
X17249Y-7510D01*
X17238Y-7513D01*
X17228Y-7515D01*
X17217Y-7515D01*
X17207Y-7512D01*
X17206Y-7510D01*
X17201Y-7509D01*
X17196Y-7506D01*
X17192Y-7503D01*
X17190Y-7502D01*
X17189Y-7502D01*
X17187Y-7501D01*
X17186Y-7499D01*
X17184Y-7498D01*
X17182Y-7497D01*
X17180Y-7495D01*
X17178Y-7493D01*
X17175Y-7490D01*
X17171Y-7486D01*
X17167Y-7481D01*
X17161Y-7477D01*
X17155Y-7472D01*
X17148Y-7464D01*
X17140Y-7456D01*
X17131Y-7447D01*
X17120Y-7436D01*
X17109Y-7425D01*
X17095Y-7411D01*
X17081Y-7397D01*
X17076Y-7392D01*
X16969Y-7287D01*
X16993Y-7264D01*
X17015Y-7241D01*
X17112Y-7337D01*
X17129Y-7354D01*
X17144Y-7370D01*
X17158Y-7384D01*
X17170Y-7396D01*
X17182Y-7407D01*
X17191Y-7416D01*
X17199Y-7424D01*
X17206Y-7430D01*
X17211Y-7435D01*
X17213Y-7438D01*
X17214Y-7438D01*
X17221Y-7443D01*
X17227Y-7445D01*
X17233Y-7448D01*
X17239Y-7448D01*
X17242Y-7448D01*
X17244Y-7447D01*
X17247Y-7446D01*
X17252Y-7443D01*
X17257Y-7441D01*
X17262Y-7439D01*
X17279Y-7431D01*
X17292Y-7444D01*
X17306Y-7458D01*
X17306Y-7458D01*
X17306Y-7458D01*
G37*
G36*
X17875Y-6890D02*
X17853Y-6912D01*
X17830Y-6934D01*
X17768Y-6873D01*
X17756Y-6861D01*
X17746Y-6851D01*
X17737Y-6842D01*
X17729Y-6834D01*
X17723Y-6828D01*
X17717Y-6822D01*
X17712Y-6819D01*
X17708Y-6815D01*
X17706Y-6813D01*
X17703Y-6811D01*
X17701Y-6809D01*
X17699Y-6808D01*
X17696Y-6808D01*
X17695Y-6808D01*
X17694Y-6808D01*
X17691Y-6807D01*
X17687Y-6806D01*
X17682Y-6808D01*
X17677Y-6810D01*
X17671Y-6816D01*
X17670Y-6817D01*
X17662Y-6827D01*
X17655Y-6836D01*
X17651Y-6846D01*
X17647Y-6857D01*
X17646Y-6862D01*
X17645Y-6871D01*
X17707Y-6933D01*
X17769Y-6995D01*
X17746Y-7018D01*
X17723Y-7041D01*
X17637Y-6955D01*
X17550Y-6868D01*
X17569Y-6850D01*
X17587Y-6832D01*
X17600Y-6837D01*
X17605Y-6838D01*
X17609Y-6839D01*
X17612Y-6841D01*
X17614Y-6841D01*
X17614Y-6840D01*
X17615Y-6838D01*
X17616Y-6834D01*
X17617Y-6829D01*
X17617Y-6829D01*
X17619Y-6817D01*
X17623Y-6806D01*
X17626Y-6797D01*
X17629Y-6789D01*
X17631Y-6786D01*
X17634Y-6782D01*
X17638Y-6776D01*
X17644Y-6771D01*
X17650Y-6765D01*
X17655Y-6760D01*
X17660Y-6755D01*
X17665Y-6751D01*
X17667Y-6750D01*
X17679Y-6745D01*
X17689Y-6743D01*
X17701Y-6742D01*
X17712Y-6744D01*
X17723Y-6748D01*
X17735Y-6755D01*
X17737Y-6755D01*
X17739Y-6757D01*
X17741Y-6757D01*
X17742Y-6759D01*
X17744Y-6761D01*
X17747Y-6762D01*
X17749Y-6764D01*
X17752Y-6767D01*
X17757Y-6772D01*
X17761Y-6776D01*
X17766Y-6781D01*
X17773Y-6788D01*
X17781Y-6796D01*
X17789Y-6804D01*
X17800Y-6815D01*
X17810Y-6825D01*
X17875Y-6890D01*
X17875Y-6890D01*
X17875Y-6890D01*
G37*
G36*
X14730Y-9941D02*
X14731Y-9960D01*
X14730Y-9979D01*
X14711Y-9998D01*
X14672Y-9959D01*
X14634Y-9921D01*
X14596Y-9883D01*
X14558Y-9921D01*
X14519Y-9960D01*
X14557Y-9998D01*
X14595Y-10036D01*
X14634Y-9997D01*
X14672Y-9959D01*
X14711Y-9998D01*
X14673Y-10036D01*
X14616Y-10094D01*
X14596Y-10094D01*
X14576Y-10094D01*
X14518Y-10036D01*
X14461Y-9978D01*
X14461Y-9958D01*
X14461Y-9940D01*
X14519Y-9882D01*
X14576Y-9825D01*
X14595Y-9824D01*
X14614Y-9825D01*
X14672Y-9883D01*
X14730Y-9941D01*
X14730Y-9941D01*
X14730Y-9941D01*
G37*
G36*
X15709Y-8961D02*
X15708Y-8981D01*
X15708Y-9001D01*
X15690Y-9019D01*
X15651Y-8980D01*
X15613Y-8942D01*
X15575Y-8903D01*
X15536Y-8942D01*
X15497Y-8981D01*
X15535Y-9019D01*
X15574Y-9058D01*
X15613Y-9019D01*
X15651Y-8980D01*
X15690Y-9019D01*
X15651Y-9058D01*
X15594Y-9115D01*
X15575Y-9116D01*
X15555Y-9116D01*
X15497Y-9058D01*
X15439Y-9000D01*
X15439Y-8980D01*
X15439Y-8961D01*
X15497Y-8903D01*
X15555Y-8846D01*
X15574Y-8845D01*
X15593Y-8845D01*
X15651Y-8903D01*
X15709Y-8961D01*
X15709Y-8961D01*
X15709Y-8961D01*
G37*
G36*
X14730Y-9614D02*
X14731Y-9633D01*
X14730Y-9652D01*
X14711Y-9671D01*
X14596Y-9556D01*
X14558Y-9594D01*
X14519Y-9633D01*
X14558Y-9672D01*
X14596Y-9710D01*
X14634Y-9672D01*
X14672Y-9634D01*
X14634Y-9594D01*
X14596Y-9556D01*
X14711Y-9671D01*
X14672Y-9710D01*
X14615Y-9768D01*
X14596Y-9768D01*
X14577Y-9768D01*
X14519Y-9710D01*
X14461Y-9652D01*
X14461Y-9633D01*
X14461Y-9615D01*
X14519Y-9557D01*
X14577Y-9499D01*
X14596Y-9499D01*
X14615Y-9499D01*
X14673Y-9557D01*
X14730Y-9614D01*
X14730Y-9614D01*
X14730Y-9614D01*
G37*
G36*
X14893Y-9450D02*
X14893Y-9470D01*
X14893Y-9490D01*
X14874Y-9508D01*
X14759Y-9393D01*
X14720Y-9432D01*
X14682Y-9470D01*
X14721Y-9509D01*
X14759Y-9547D01*
X14797Y-9509D01*
X14835Y-9471D01*
X14797Y-9431D01*
X14759Y-9393D01*
X14874Y-9508D01*
X14835Y-9547D01*
X14778Y-9604D01*
X14759Y-9605D01*
X14740Y-9604D01*
X14682Y-9546D01*
X14624Y-9488D01*
X14624Y-9470D01*
X14624Y-9451D01*
X14682Y-9393D01*
X14740Y-9336D01*
X14759Y-9336D01*
X14778Y-9336D01*
X14835Y-9393D01*
X14893Y-9450D01*
X14893Y-9450D01*
X14893Y-9450D01*
G37*
G36*
X15056Y-9287D02*
X15056Y-9307D01*
X15056Y-9326D01*
X15037Y-9345D01*
X14999Y-9307D01*
X14961Y-9269D01*
X14922Y-9230D01*
X14884Y-9268D01*
X14845Y-9307D01*
X14884Y-9345D01*
X14922Y-9384D01*
X14961Y-9345D01*
X14999Y-9307D01*
X15037Y-9345D01*
X14999Y-9384D01*
X14942Y-9441D01*
X14922Y-9441D01*
X14902Y-9441D01*
X14845Y-9384D01*
X14787Y-9326D01*
X14787Y-9308D01*
X14787Y-9288D01*
X14845Y-9230D01*
X14903Y-9172D01*
X14922Y-9173D01*
X14942Y-9172D01*
X14999Y-9229D01*
X15056Y-9287D01*
X15056Y-9287D01*
X15056Y-9287D01*
G37*
G36*
X15219Y-9125D02*
X15219Y-9145D01*
X15219Y-9163D01*
X15200Y-9182D01*
X15162Y-9144D01*
X15124Y-9106D01*
X15085Y-9067D01*
X15046Y-9106D01*
X15008Y-9144D01*
X15046Y-9182D01*
X15054Y-9190D01*
X15061Y-9197D01*
X15067Y-9203D01*
X15073Y-9209D01*
X15078Y-9214D01*
X15082Y-9217D01*
X15084Y-9220D01*
X15084Y-9220D01*
X15086Y-9220D01*
X15089Y-9217D01*
X15092Y-9214D01*
X15097Y-9209D01*
X15103Y-9203D01*
X15109Y-9197D01*
X15117Y-9189D01*
X15124Y-9182D01*
X15162Y-9144D01*
X15200Y-9182D01*
X15162Y-9220D01*
X15105Y-9278D01*
X15085Y-9278D01*
X15065Y-9278D01*
X15008Y-9220D01*
X14951Y-9163D01*
X14951Y-9145D01*
X14951Y-9125D01*
X15009Y-9067D01*
X15067Y-9009D01*
X15085Y-9009D01*
X15103Y-9009D01*
X15161Y-9067D01*
X15219Y-9125D01*
X15219Y-9125D01*
X15219Y-9125D01*
G37*
G36*
X15546Y-8798D02*
X15546Y-8818D01*
X15546Y-8836D01*
X15527Y-8855D01*
X15412Y-8740D01*
X15373Y-8779D01*
X15334Y-8818D01*
X15373Y-8857D01*
X15411Y-8895D01*
X15450Y-8856D01*
X15488Y-8818D01*
X15449Y-8779D01*
X15412Y-8740D01*
X15527Y-8855D01*
X15488Y-8894D01*
X15430Y-8952D01*
X15412Y-8952D01*
X15392Y-8952D01*
X15334Y-8894D01*
X15276Y-8836D01*
X15276Y-8818D01*
X15276Y-8800D01*
X15334Y-8742D01*
X15393Y-8683D01*
X15412Y-8684D01*
X15431Y-8683D01*
X15489Y-8741D01*
X15546Y-8798D01*
X15546Y-8798D01*
X15546Y-8798D01*
G37*
G36*
X15383Y-8635D02*
X15383Y-8655D01*
X15383Y-8673D01*
X15364Y-8692D01*
X15325Y-8654D01*
X15287Y-8616D01*
X15248Y-8577D01*
X15210Y-8616D01*
X15171Y-8655D01*
X15210Y-8693D01*
X15248Y-8732D01*
X15287Y-8693D01*
X15325Y-8654D01*
X15364Y-8692D01*
X15325Y-8731D01*
X15267Y-8789D01*
X15248Y-8789D01*
X15229Y-8789D01*
X15171Y-8732D01*
X15113Y-8674D01*
X15114Y-8655D01*
X15113Y-8635D01*
X15171Y-8577D01*
X15229Y-8519D01*
X15248Y-8520D01*
X15267Y-8519D01*
X15325Y-8577D01*
X15383Y-8635D01*
X15383Y-8635D01*
X15383Y-8635D01*
G37*
G36*
X14403Y-9287D02*
X14404Y-9307D01*
X14403Y-9326D01*
X14384Y-9345D01*
X14346Y-9307D01*
X14308Y-9268D01*
X14269Y-9229D01*
X14231Y-9268D01*
X14192Y-9307D01*
X14231Y-9345D01*
X14269Y-9384D01*
X14308Y-9345D01*
X14346Y-9307D01*
X14384Y-9345D01*
X14345Y-9384D01*
X14288Y-9441D01*
X14269Y-9442D01*
X14250Y-9441D01*
X14193Y-9384D01*
X14135Y-9326D01*
X14135Y-9307D01*
X14135Y-9287D01*
X14193Y-9229D01*
X14250Y-9172D01*
X14270Y-9172D01*
X14288Y-9172D01*
X14346Y-9230D01*
X14403Y-9287D01*
X14403Y-9287D01*
X14403Y-9287D01*
G37*
G36*
X14567Y-9124D02*
X14567Y-9144D01*
X14567Y-9162D01*
X14547Y-9182D01*
X14509Y-9144D01*
X14471Y-9106D01*
X14432Y-9068D01*
X14394Y-9105D01*
X14355Y-9143D01*
X14394Y-9182D01*
X14432Y-9220D01*
X14471Y-9182D01*
X14509Y-9144D01*
X14547Y-9182D01*
X14509Y-9220D01*
X14451Y-9278D01*
X14432Y-9278D01*
X14413Y-9278D01*
X14356Y-9220D01*
X14298Y-9162D01*
X14298Y-9144D01*
X14298Y-9124D01*
X14355Y-9067D01*
X14413Y-9009D01*
X14433Y-9009D01*
X14451Y-9009D01*
X14509Y-9067D01*
X14567Y-9124D01*
X14567Y-9124D01*
X14567Y-9124D01*
G37*
G36*
X14730Y-8961D02*
X14730Y-8981D01*
X14730Y-8999D01*
X14710Y-9019D01*
X14672Y-8981D01*
X14634Y-8942D01*
X14595Y-8903D01*
X14557Y-8942D01*
X14519Y-8980D01*
X14558Y-9019D01*
X14596Y-9057D01*
X14634Y-9019D01*
X14672Y-8981D01*
X14710Y-9019D01*
X14672Y-9057D01*
X14614Y-9115D01*
X14595Y-9116D01*
X14576Y-9115D01*
X14519Y-9058D01*
X14461Y-9000D01*
X14461Y-8981D01*
X14461Y-8961D01*
X14518Y-8904D01*
X14576Y-8846D01*
X14596Y-8846D01*
X14616Y-8846D01*
X14673Y-8903D01*
X14730Y-8961D01*
X14730Y-8961D01*
X14730Y-8961D01*
G37*
G36*
X14893Y-8798D02*
X14893Y-8818D01*
X14893Y-8836D01*
X14874Y-8855D01*
X14835Y-8817D01*
X14797Y-8779D01*
X14758Y-8740D01*
X14719Y-8779D01*
X14682Y-8818D01*
X14720Y-8856D01*
X14758Y-8894D01*
X14797Y-8856D01*
X14835Y-8817D01*
X14874Y-8855D01*
X14835Y-8894D01*
X14777Y-8952D01*
X14758Y-8952D01*
X14739Y-8952D01*
X14682Y-8894D01*
X14624Y-8836D01*
X14624Y-8818D01*
X14623Y-8799D01*
X14681Y-8741D01*
X14739Y-8683D01*
X14758Y-8684D01*
X14777Y-8683D01*
X14835Y-8741D01*
X14893Y-8798D01*
X14893Y-8798D01*
X14893Y-8798D01*
G37*
G36*
X15056Y-8635D02*
X15056Y-8655D01*
X15056Y-8673D01*
X15037Y-8692D01*
X14999Y-8654D01*
X14961Y-8616D01*
X14922Y-8577D01*
X14883Y-8616D01*
X14844Y-8655D01*
X14883Y-8693D01*
X14921Y-8732D01*
X14960Y-8693D01*
X14999Y-8654D01*
X15037Y-8692D01*
X14998Y-8731D01*
X14940Y-8789D01*
X14922Y-8789D01*
X14902Y-8789D01*
X14845Y-8731D01*
X14787Y-8673D01*
X14787Y-8655D01*
X14787Y-8635D01*
X14845Y-8577D01*
X14903Y-8519D01*
X14922Y-8520D01*
X14941Y-8519D01*
X14999Y-8577D01*
X15056Y-8635D01*
X15056Y-8635D01*
X15056Y-8635D01*
G37*
G54D10*
X18933Y-11583D02*
X17519Y-10168D01*
X19640Y-10876D02*
X18226Y-9461D01*
X21053Y-9463D02*
X19639Y-8048D01*
X21760Y-8756D02*
X20346Y-7341D01*
X16813Y-13703D02*
X15399Y-12288D01*
X17520Y-12996D02*
X16106Y-11581D01*
X31157Y-19306D02*
X29743Y-17891D01*
X30450Y-17184D02*
X31864Y-18598D01*
X29037Y-21426D02*
X27623Y-20011D01*
X28330Y-19304D02*
X29744Y-20718D01*
X26917Y-23546D02*
X25503Y-22131D01*
X26210Y-21424D02*
X27624Y-22838D01*
G54D18*
X18652Y-23088D02*
X18753Y-22987D01*
X18692Y-23169D02*
X18551Y-22886D01*
X18834Y-23027D01*
X18662Y-22775D02*
X18783Y-22653D01*
X18935Y-22926D02*
X18722Y-22714D01*
X19066Y-22795D02*
X18854Y-22583D01*
X19076Y-22663D01*
X18995Y-22441D01*
X19207Y-22653D01*
X19197Y-22441D02*
X19268Y-22371D01*
X19409Y-22451D02*
X19308Y-22552D01*
X19096Y-22340D01*
X19197Y-22239D01*
X19409Y-22047D02*
X19379Y-22057D01*
X19349Y-22088D01*
X19329Y-22128D01*
X19329Y-22169D01*
X19339Y-22199D01*
X19369Y-22249D01*
X19399Y-22280D01*
X19450Y-22310D01*
X19480Y-22320D01*
X19520Y-22320D01*
X19561Y-22300D01*
X19581Y-22280D01*
X19601Y-22239D01*
X19601Y-22219D01*
X19531Y-22148D01*
X19490Y-22189D01*
X19642Y-22098D02*
X19743Y-21997D01*
X19682Y-22179D02*
X19541Y-21896D01*
X19824Y-22037D01*
X20005Y-21855D02*
X19884Y-21977D01*
X19945Y-21916D02*
X19733Y-21704D01*
X19743Y-21754D01*
X19743Y-21795D01*
X19733Y-21825D01*
X19894Y-21583D02*
X19894Y-21562D01*
X19904Y-21532D01*
X19955Y-21482D01*
X19985Y-21472D01*
X20005Y-21472D01*
X20036Y-21482D01*
X20056Y-21502D01*
X20076Y-21542D01*
X20076Y-21785D01*
X20207Y-21653D01*
X20207Y-21411D02*
X20177Y-21421D01*
X20157Y-21421D01*
X20127Y-21411D01*
X20116Y-21401D01*
X20106Y-21370D01*
X20106Y-21350D01*
X20116Y-21320D01*
X20157Y-21280D01*
X20187Y-21269D01*
X20207Y-21269D01*
X20238Y-21280D01*
X20248Y-21290D01*
X20258Y-21320D01*
X20258Y-21340D01*
X20248Y-21370D01*
X20207Y-21411D01*
X20197Y-21441D01*
X20197Y-21461D01*
X20207Y-21492D01*
X20248Y-21532D01*
X20278Y-21542D01*
X20298Y-21542D01*
X20329Y-21532D01*
X20369Y-21492D01*
X20379Y-21461D01*
X20379Y-21441D01*
X20369Y-21411D01*
X20329Y-21370D01*
X20298Y-21360D01*
X20278Y-21360D01*
X20248Y-21370D01*
X20450Y-21128D02*
X20591Y-21269D01*
X20319Y-21098D02*
X20420Y-21300D01*
X20551Y-21168D01*
X20702Y-21158D02*
X20490Y-20946D01*
X20571Y-20865D01*
X20601Y-20855D01*
X20622Y-20855D01*
X20652Y-20865D01*
X20682Y-20896D01*
X20692Y-20926D01*
X20692Y-20946D01*
X20682Y-20977D01*
X20601Y-21057D01*
X20834Y-20865D02*
X20995Y-20704D01*
X21177Y-20684D02*
X20965Y-20471D01*
X21046Y-20391D01*
X21076Y-20381D01*
X21096Y-20381D01*
X21127Y-20391D01*
X21157Y-20421D01*
X21167Y-20451D01*
X21167Y-20471D01*
X21157Y-20502D01*
X21076Y-20583D01*
G54D11*
X24915Y-6415D02*
X24943Y-6424D01*
X24953Y-6434D01*
X24962Y-6453D01*
X24962Y-6481D01*
X24953Y-6500D01*
X24943Y-6510D01*
X24924Y-6519D01*
X24848Y-6519D01*
X24848Y-6319D01*
X24915Y-6319D01*
X24934Y-6329D01*
X24943Y-6338D01*
X24953Y-6358D01*
X24953Y-6377D01*
X24943Y-6396D01*
X24934Y-6405D01*
X24915Y-6415D01*
X24848Y-6415D01*
X25038Y-6462D02*
X25134Y-6462D01*
X25019Y-6519D02*
X25086Y-6319D01*
X25153Y-6519D01*
X25191Y-6319D02*
X25305Y-6319D01*
X25248Y-6519D02*
X25248Y-6319D01*
X25343Y-6319D02*
X25457Y-6319D01*
X25400Y-6519D02*
X25400Y-6319D01*
X25734Y-6596D02*
X25724Y-6586D01*
X25705Y-6558D01*
X25695Y-6538D01*
X25686Y-6510D01*
X25676Y-6462D01*
X25676Y-6424D01*
X25686Y-6377D01*
X25695Y-6348D01*
X25705Y-6329D01*
X25724Y-6300D01*
X25734Y-6291D01*
X25895Y-6386D02*
X25895Y-6519D01*
X25848Y-6310D02*
X25800Y-6453D01*
X25924Y-6453D01*
X26000Y-6500D02*
X26010Y-6510D01*
X26000Y-6519D01*
X25991Y-6510D01*
X26000Y-6500D01*
X26000Y-6519D01*
X26124Y-6405D02*
X26105Y-6396D01*
X26095Y-6386D01*
X26086Y-6367D01*
X26086Y-6358D01*
X26095Y-6338D01*
X26105Y-6329D01*
X26124Y-6319D01*
X26162Y-6319D01*
X26181Y-6329D01*
X26191Y-6338D01*
X26200Y-6358D01*
X26200Y-6367D01*
X26191Y-6386D01*
X26181Y-6396D01*
X26162Y-6405D01*
X26124Y-6405D01*
X26105Y-6415D01*
X26095Y-6424D01*
X26086Y-6443D01*
X26086Y-6481D01*
X26095Y-6500D01*
X26105Y-6510D01*
X26124Y-6519D01*
X26162Y-6519D01*
X26181Y-6510D01*
X26191Y-6500D01*
X26200Y-6481D01*
X26200Y-6443D01*
X26191Y-6424D01*
X26181Y-6415D01*
X26162Y-6405D01*
X26257Y-6319D02*
X26324Y-6519D01*
X26391Y-6319D01*
X26457Y-6443D02*
X26610Y-6443D01*
X26791Y-6319D02*
X26753Y-6319D01*
X26734Y-6329D01*
X26724Y-6338D01*
X26705Y-6367D01*
X26695Y-6405D01*
X26695Y-6481D01*
X26705Y-6500D01*
X26715Y-6510D01*
X26734Y-6519D01*
X26772Y-6519D01*
X26791Y-6510D01*
X26800Y-6500D01*
X26810Y-6481D01*
X26810Y-6434D01*
X26800Y-6415D01*
X26791Y-6405D01*
X26772Y-6396D01*
X26734Y-6396D01*
X26715Y-6405D01*
X26705Y-6415D01*
X26695Y-6434D01*
X26867Y-6319D02*
X26934Y-6519D01*
X27000Y-6319D01*
X27048Y-6596D02*
X27057Y-6586D01*
X27076Y-6558D01*
X27086Y-6538D01*
X27095Y-6510D01*
X27105Y-6462D01*
X27105Y-6424D01*
X27095Y-6377D01*
X27086Y-6348D01*
X27076Y-6329D01*
X27057Y-6300D01*
X27048Y-6291D01*
X18427Y-13794D02*
X18663Y-13841D01*
X18521Y-13700D02*
X18568Y-13935D01*
X18555Y-13666D02*
X18636Y-13585D01*
X18737Y-13767D02*
X18595Y-13626D01*
X18777Y-13646D02*
X18845Y-13578D01*
X18804Y-13700D02*
X18710Y-13511D01*
X18898Y-13605D01*
X19013Y-13491D02*
X18946Y-13558D01*
X18804Y-13417D01*
G54D19*
X28048Y-18103D02*
X27967Y-18022D01*
X28008Y-18062D02*
X28149Y-17921D01*
X28115Y-17927D01*
X28088Y-17927D01*
X28068Y-17921D01*
X28264Y-18130D02*
X28169Y-18224D01*
X28203Y-18069D02*
X28129Y-18143D01*
X28122Y-18163D01*
X28129Y-18183D01*
X28149Y-18204D01*
X28169Y-18210D01*
X28183Y-18210D01*
X28358Y-18264D02*
X28311Y-18217D01*
X28237Y-18291D02*
X28378Y-18150D01*
X28445Y-18217D01*
X21683Y-23288D02*
X21604Y-23209D01*
X21644Y-23248D02*
X21783Y-23109D01*
X21750Y-23116D01*
X21723Y-23116D01*
X21703Y-23109D01*
X21743Y-23348D02*
X21882Y-23209D01*
X21809Y-23308D02*
X21796Y-23401D01*
X21889Y-23308D02*
X21783Y-23308D01*
X31722Y-13108D02*
X31722Y-13222D01*
X31722Y-13165D02*
X31522Y-13165D01*
X31551Y-13184D01*
X31570Y-13203D01*
X31580Y-13222D01*
X31589Y-12936D02*
X31722Y-12936D01*
X31589Y-13022D02*
X31694Y-13022D01*
X31713Y-13012D01*
X31722Y-12993D01*
X31722Y-12965D01*
X31713Y-12946D01*
X31703Y-12936D01*
X31618Y-12774D02*
X31618Y-12841D01*
X31722Y-12841D02*
X31522Y-12841D01*
X31522Y-12746D01*
X30150Y-14587D02*
X30069Y-14506D01*
X30110Y-14546D02*
X30251Y-14405D01*
X30217Y-14411D01*
X30190Y-14411D01*
X30170Y-14405D01*
X30366Y-14613D02*
X30271Y-14708D01*
X30305Y-14553D02*
X30231Y-14627D01*
X30224Y-14647D01*
X30231Y-14667D01*
X30251Y-14688D01*
X30271Y-14694D01*
X30285Y-14694D01*
X30460Y-14748D02*
X30413Y-14701D01*
X30339Y-14775D02*
X30480Y-14634D01*
X30547Y-14701D01*
X31847Y-22595D02*
X31766Y-22514D01*
X31806Y-22554D02*
X31948Y-22413D01*
X31914Y-22419D01*
X31887Y-22419D01*
X31867Y-22413D01*
X31907Y-22655D02*
X32049Y-22514D01*
X31975Y-22615D02*
X31961Y-22709D01*
X32055Y-22615D02*
X31948Y-22615D01*
X30478Y-24123D02*
X30397Y-24042D01*
X30438Y-24083D02*
X30579Y-23941D01*
X30545Y-23948D01*
X30518Y-23948D01*
X30498Y-23941D01*
X30539Y-24184D02*
X30680Y-24042D01*
X30606Y-24143D02*
X30593Y-24238D01*
X30687Y-24143D02*
X30579Y-24143D01*
X24175Y-10004D02*
X24094Y-10084D01*
X24135Y-10044D02*
X23993Y-9903D01*
X24000Y-9936D01*
X24000Y-9963D01*
X23993Y-9983D01*
X24236Y-9943D02*
X24094Y-9802D01*
X24195Y-9876D02*
X24289Y-9889D01*
X24195Y-9795D02*
X24195Y-9903D01*
X23194Y-10962D02*
X23115Y-11042D01*
X23155Y-11002D02*
X23015Y-10863D01*
X23022Y-10896D01*
X23022Y-10923D01*
X23015Y-10943D01*
X23254Y-10903D02*
X23115Y-10763D01*
X23214Y-10836D02*
X23307Y-10850D01*
X23214Y-10757D02*
X23214Y-10863D01*
X22115Y-12049D02*
X22034Y-12129D01*
X22075Y-12089D02*
X21933Y-11948D01*
X21940Y-11981D01*
X21940Y-12008D01*
X21933Y-12028D01*
X22176Y-11988D02*
X22034Y-11847D01*
X22135Y-11921D02*
X22229Y-11934D01*
X22135Y-11840D02*
X22135Y-11948D01*
X16736Y-17488D02*
X16623Y-17488D01*
X16680Y-17488D02*
X16680Y-17291D01*
X16661Y-17319D01*
X16642Y-17338D01*
X16623Y-17347D01*
X16820Y-17488D02*
X16820Y-17291D01*
X16839Y-17413D02*
X16896Y-17488D01*
X16896Y-17356D02*
X16820Y-17431D01*
X14343Y-19369D02*
X14228Y-19369D01*
X14285Y-19369D02*
X14285Y-19169D01*
X14266Y-19198D01*
X14247Y-19217D01*
X14228Y-19227D01*
X14428Y-19369D02*
X14428Y-19169D01*
X14447Y-19293D02*
X14505Y-19369D01*
X14505Y-19236D02*
X14428Y-19312D01*
X15143Y-18769D02*
X15028Y-18769D01*
X15085Y-18769D02*
X15085Y-18569D01*
X15066Y-18598D01*
X15047Y-18617D01*
X15028Y-18627D01*
X15228Y-18769D02*
X15228Y-18569D01*
X15247Y-18693D02*
X15305Y-18769D01*
X15305Y-18636D02*
X15228Y-18712D01*
X15943Y-18169D02*
X15828Y-18169D01*
X15885Y-18169D02*
X15885Y-17969D01*
X15866Y-17998D01*
X15847Y-18017D01*
X15828Y-18027D01*
X16028Y-18169D02*
X16028Y-17969D01*
X16047Y-18093D02*
X16105Y-18169D01*
X16105Y-18036D02*
X16028Y-18112D01*
G54D15*
X17672Y-15661D02*
X17672Y-15530D01*
X17869Y-15661D01*
X17869Y-15530D01*
X17869Y-15455D02*
X17672Y-15455D01*
X17672Y-15408D01*
X17682Y-15380D01*
X17700Y-15361D01*
X17719Y-15352D01*
X17757Y-15342D01*
X17785Y-15342D01*
X17822Y-15352D01*
X17841Y-15361D01*
X17860Y-15380D01*
X17869Y-15408D01*
X17869Y-15455D01*
X17672Y-15127D02*
X17672Y-15005D01*
X17747Y-15070D01*
X17747Y-15042D01*
X17757Y-15023D01*
X17766Y-15014D01*
X17785Y-15005D01*
X17832Y-15005D01*
X17850Y-15014D01*
X17860Y-15023D01*
X17869Y-15042D01*
X17869Y-15099D01*
X17860Y-15117D01*
X17850Y-15127D01*
X17738Y-14939D02*
X17869Y-14892D01*
X17738Y-14845D01*
X17672Y-14789D02*
X17672Y-14667D01*
X17747Y-14733D01*
X17747Y-14705D01*
X17757Y-14686D01*
X17766Y-14676D01*
X17785Y-14667D01*
X17832Y-14667D01*
X17850Y-14676D01*
X17860Y-14686D01*
X17869Y-14705D01*
X17869Y-14761D01*
X17860Y-14780D01*
X17850Y-14789D01*
G54D20*
X13797Y-24548D02*
X14080Y-24265D01*
X14187Y-24373D01*
X14201Y-24413D01*
X14201Y-24440D01*
X14187Y-24481D01*
X14147Y-24521D01*
X14107Y-24534D01*
X14080Y-24534D01*
X14039Y-24521D01*
X13932Y-24413D01*
X14241Y-24992D02*
X14282Y-24763D01*
X14080Y-24831D02*
X14363Y-24548D01*
X14470Y-24656D01*
X14484Y-24696D01*
X14484Y-24723D01*
X14470Y-24763D01*
X14430Y-24804D01*
X14389Y-24817D01*
X14363Y-24817D01*
X14322Y-24804D01*
X14214Y-24696D01*
X14699Y-24885D02*
X14753Y-24938D01*
X14767Y-24979D01*
X14767Y-25033D01*
X14726Y-25100D01*
X14632Y-25194D01*
X14565Y-25235D01*
X14511Y-25235D01*
X14470Y-25221D01*
X14416Y-25167D01*
X14403Y-25127D01*
X14403Y-25073D01*
X14443Y-25006D01*
X14538Y-24912D01*
X14605Y-24871D01*
X14659Y-24871D01*
X14699Y-24885D01*
X15076Y-25289D02*
X15063Y-25248D01*
X15023Y-25208D01*
X14969Y-25181D01*
X14915Y-25181D01*
X14874Y-25194D01*
X14807Y-25235D01*
X14767Y-25275D01*
X14726Y-25343D01*
X14713Y-25383D01*
X14713Y-25437D01*
X14740Y-25491D01*
X14767Y-25518D01*
X14820Y-25545D01*
X14847Y-25545D01*
X14942Y-25450D01*
X14888Y-25396D01*
G54D11*
X14481Y-15069D02*
X14414Y-14974D01*
X14366Y-15069D02*
X14366Y-14869D01*
X14443Y-14869D01*
X14462Y-14879D01*
X14471Y-14888D01*
X14481Y-14908D01*
X14481Y-14936D01*
X14471Y-14955D01*
X14462Y-14965D01*
X14443Y-14974D01*
X14366Y-14974D01*
X14671Y-14879D02*
X14652Y-14869D01*
X14624Y-14869D01*
X14595Y-14879D01*
X14576Y-14898D01*
X14566Y-14917D01*
X14557Y-14955D01*
X14557Y-14984D01*
X14566Y-15022D01*
X14576Y-15041D01*
X14595Y-15060D01*
X14624Y-15069D01*
X14643Y-15069D01*
X14671Y-15060D01*
X14681Y-15050D01*
X14681Y-14984D01*
X14643Y-14984D01*
X14833Y-14965D02*
X14862Y-14974D01*
X14871Y-14984D01*
X14881Y-15003D01*
X14881Y-15031D01*
X14871Y-15050D01*
X14862Y-15060D01*
X14843Y-15069D01*
X14766Y-15069D01*
X14766Y-14869D01*
X14833Y-14869D01*
X14852Y-14879D01*
X14862Y-14888D01*
X14871Y-14908D01*
X14871Y-14927D01*
X14862Y-14946D01*
X14852Y-14955D01*
X14833Y-14965D01*
X14766Y-14965D01*
X14919Y-15088D02*
X15071Y-15088D01*
X15214Y-15069D02*
X15119Y-15069D01*
X15119Y-14869D01*
X15281Y-14965D02*
X15347Y-14965D01*
X15376Y-15069D02*
X15281Y-15069D01*
X15281Y-14869D01*
X15376Y-14869D01*
X15462Y-15069D02*
X15462Y-14869D01*
X15509Y-14869D01*
X15538Y-14879D01*
X15557Y-14898D01*
X15566Y-14917D01*
X15576Y-14955D01*
X15576Y-14984D01*
X15566Y-15022D01*
X15557Y-15041D01*
X15538Y-15060D01*
X15509Y-15069D01*
X15462Y-15069D01*
G54D10*
X19372Y-12517D02*
X19160Y-12305D01*
X19382Y-12386D01*
X19302Y-12164D01*
X19514Y-12376D01*
X19615Y-12275D02*
X19403Y-12063D01*
X19716Y-12174D02*
X19504Y-11961D01*
X19554Y-11911D01*
X19595Y-11891D01*
X19635Y-11891D01*
X19665Y-11901D01*
X19716Y-11931D01*
X19746Y-11961D01*
X19776Y-12012D01*
X19786Y-12042D01*
X19786Y-12083D01*
X19766Y-12123D01*
X19716Y-12174D01*
X20191Y-11699D02*
X20090Y-11800D01*
X19877Y-11588D01*
X20221Y-11446D02*
X20150Y-11517D01*
X20261Y-11628D02*
X20049Y-11416D01*
X20150Y-11315D01*
X20201Y-11264D02*
X20322Y-11143D01*
X20473Y-11416D02*
X20261Y-11204D01*
G54D11*
X17529Y-8562D02*
X17650Y-8441D01*
X17802Y-8714D02*
X17589Y-8502D01*
X17933Y-8583D02*
X17721Y-8370D01*
X17993Y-8300D02*
X18034Y-8279D01*
X18054Y-8279D01*
X18084Y-8290D01*
X18115Y-8320D01*
X18125Y-8350D01*
X18125Y-8370D01*
X18115Y-8401D01*
X18034Y-8482D01*
X17822Y-8269D01*
X17892Y-8199D01*
X17923Y-8189D01*
X17943Y-8189D01*
X17973Y-8199D01*
X17993Y-8219D01*
X18004Y-8249D01*
X18004Y-8269D01*
X17993Y-8300D01*
X17923Y-8370D01*
X16953Y-9340D02*
X16882Y-9411D01*
X16993Y-9522D02*
X16781Y-9310D01*
X16882Y-9209D01*
X17064Y-9229D02*
X17135Y-9158D01*
X17276Y-9239D02*
X17175Y-9340D01*
X16963Y-9128D01*
X17064Y-9027D01*
X17367Y-9148D02*
X17155Y-8936D01*
X17377Y-9017D01*
X17296Y-8795D01*
X17509Y-9007D01*
X16377Y-10098D02*
X16377Y-10118D01*
X16357Y-10158D01*
X16337Y-10179D01*
X16296Y-10199D01*
X16256Y-10199D01*
X16226Y-10189D01*
X16175Y-10158D01*
X16145Y-10128D01*
X16115Y-10078D01*
X16104Y-10047D01*
X16104Y-10007D01*
X16125Y-9966D01*
X16145Y-9946D01*
X16185Y-9926D01*
X16205Y-9926D01*
X16317Y-9775D02*
X16357Y-9734D01*
X16387Y-9724D01*
X16428Y-9724D01*
X16478Y-9754D01*
X16549Y-9825D01*
X16579Y-9876D01*
X16579Y-9916D01*
X16569Y-9946D01*
X16529Y-9987D01*
X16498Y-9997D01*
X16458Y-9997D01*
X16407Y-9966D01*
X16337Y-9896D01*
X16306Y-9845D01*
X16306Y-9805D01*
X16317Y-9775D01*
X16478Y-9613D02*
X16832Y-9684D01*
X16620Y-9471D02*
X16690Y-9825D01*
G54D10*
X21341Y-10326D02*
X21270Y-10397D01*
X21381Y-10508D02*
X21169Y-10296D01*
X21270Y-10195D01*
X21684Y-10205D02*
X21512Y-10175D01*
X21563Y-10326D02*
X21351Y-10114D01*
X21432Y-10033D01*
X21462Y-10023D01*
X21482Y-10023D01*
X21512Y-10033D01*
X21543Y-10064D01*
X21553Y-10094D01*
X21553Y-10114D01*
X21543Y-10145D01*
X21462Y-10225D01*
X21775Y-10114D02*
X21563Y-9902D01*
X21896Y-9993D01*
X21684Y-9781D01*
X21755Y-9710D02*
X21876Y-9589D01*
X22028Y-9862D02*
X21816Y-9650D01*
X22422Y-9468D02*
X22321Y-9569D01*
X22108Y-9357D01*
X22452Y-9215D02*
X22381Y-9286D01*
X22492Y-9397D02*
X22280Y-9185D01*
X22381Y-9084D01*
X22432Y-9033D02*
X22553Y-8912D01*
X22704Y-9185D02*
X22492Y-8973D01*
G54D11*
X19649Y-6442D02*
X19770Y-6321D01*
X19922Y-6594D02*
X19709Y-6382D01*
X20053Y-6463D02*
X19841Y-6250D01*
X20113Y-6180D02*
X20154Y-6159D01*
X20174Y-6159D01*
X20204Y-6170D01*
X20235Y-6200D01*
X20245Y-6230D01*
X20245Y-6250D01*
X20235Y-6281D01*
X20154Y-6362D01*
X19942Y-6149D01*
X20012Y-6079D01*
X20043Y-6069D01*
X20063Y-6069D01*
X20093Y-6079D01*
X20113Y-6099D01*
X20124Y-6129D01*
X20124Y-6149D01*
X20113Y-6180D01*
X20043Y-6250D01*
X19073Y-7220D02*
X19002Y-7291D01*
X19113Y-7402D02*
X18901Y-7190D01*
X19002Y-7089D01*
X19184Y-7109D02*
X19255Y-7038D01*
X19396Y-7119D02*
X19295Y-7220D01*
X19083Y-7008D01*
X19184Y-6907D01*
X19487Y-7028D02*
X19275Y-6816D01*
X19497Y-6897D01*
X19416Y-6675D01*
X19629Y-6887D01*
X18497Y-7978D02*
X18497Y-7998D01*
X18477Y-8038D01*
X18457Y-8059D01*
X18416Y-8079D01*
X18376Y-8079D01*
X18346Y-8069D01*
X18295Y-8038D01*
X18265Y-8008D01*
X18235Y-7958D01*
X18224Y-7927D01*
X18224Y-7887D01*
X18245Y-7846D01*
X18265Y-7826D01*
X18305Y-7806D01*
X18325Y-7806D01*
X18437Y-7655D02*
X18477Y-7614D01*
X18507Y-7604D01*
X18548Y-7604D01*
X18598Y-7634D01*
X18669Y-7705D01*
X18699Y-7756D01*
X18699Y-7796D01*
X18689Y-7826D01*
X18649Y-7867D01*
X18618Y-7877D01*
X18578Y-7877D01*
X18527Y-7846D01*
X18457Y-7776D01*
X18426Y-7725D01*
X18426Y-7685D01*
X18437Y-7655D01*
X18598Y-7493D02*
X18952Y-7564D01*
X18740Y-7351D02*
X18810Y-7705D01*
G54D10*
X17580Y-14271D02*
X17408Y-14241D01*
X17458Y-14392D02*
X17246Y-14180D01*
X17327Y-14099D01*
X17357Y-14089D01*
X17378Y-14089D01*
X17408Y-14099D01*
X17438Y-14130D01*
X17448Y-14160D01*
X17448Y-14180D01*
X17438Y-14210D01*
X17357Y-14291D01*
X17559Y-14069D02*
X17630Y-13998D01*
X17772Y-14079D02*
X17671Y-14180D01*
X17458Y-13968D01*
X17559Y-13867D01*
X17792Y-13938D02*
X17893Y-13837D01*
X17832Y-14019D02*
X17691Y-13736D01*
X17974Y-13877D01*
X18166Y-13685D02*
X17994Y-13655D01*
X18044Y-13806D02*
X17832Y-13594D01*
X17913Y-13513D01*
X17943Y-13503D01*
X17964Y-13503D01*
X17994Y-13513D01*
X18024Y-13544D01*
X18034Y-13574D01*
X18034Y-13594D01*
X18024Y-13625D01*
X17943Y-13705D01*
X18519Y-13332D02*
X18418Y-13433D01*
X18206Y-13220D01*
X18549Y-13079D02*
X18479Y-13150D01*
X18590Y-13261D02*
X18378Y-13049D01*
X18479Y-12948D01*
X18529Y-12897D02*
X18650Y-12776D01*
X18802Y-13049D02*
X18590Y-12837D01*
G54D11*
X15409Y-10682D02*
X15530Y-10561D01*
X15682Y-10834D02*
X15469Y-10622D01*
X15813Y-10703D02*
X15601Y-10490D01*
X15873Y-10420D02*
X15914Y-10399D01*
X15934Y-10399D01*
X15964Y-10410D01*
X15995Y-10440D01*
X16005Y-10470D01*
X16005Y-10490D01*
X15995Y-10521D01*
X15914Y-10602D01*
X15702Y-10389D01*
X15772Y-10319D01*
X15803Y-10309D01*
X15823Y-10309D01*
X15853Y-10319D01*
X15873Y-10339D01*
X15884Y-10369D01*
X15884Y-10389D01*
X15873Y-10420D01*
X15803Y-10490D01*
X14833Y-11460D02*
X14762Y-11531D01*
X14873Y-11642D02*
X14661Y-11430D01*
X14762Y-11329D01*
X14944Y-11349D02*
X15015Y-11278D01*
X15156Y-11359D02*
X15055Y-11460D01*
X14843Y-11248D01*
X14944Y-11147D01*
X15247Y-11268D02*
X15035Y-11056D01*
X15257Y-11137D01*
X15176Y-10915D01*
X15389Y-11127D01*
X14257Y-12218D02*
X14257Y-12238D01*
X14237Y-12278D01*
X14217Y-12299D01*
X14176Y-12319D01*
X14136Y-12319D01*
X14106Y-12309D01*
X14055Y-12278D01*
X14025Y-12248D01*
X13995Y-12198D01*
X13984Y-12167D01*
X13984Y-12127D01*
X14005Y-12086D01*
X14025Y-12066D01*
X14065Y-12046D01*
X14085Y-12046D01*
X14197Y-11895D02*
X14237Y-11854D01*
X14267Y-11844D01*
X14308Y-11844D01*
X14358Y-11874D01*
X14429Y-11945D01*
X14459Y-11996D01*
X14459Y-12036D01*
X14449Y-12066D01*
X14409Y-12107D01*
X14378Y-12117D01*
X14338Y-12117D01*
X14287Y-12086D01*
X14217Y-12016D01*
X14186Y-11965D01*
X14186Y-11925D01*
X14197Y-11895D01*
X14358Y-11733D02*
X14712Y-11804D01*
X14500Y-11591D02*
X14570Y-11945D01*
G54D10*
X29093Y-17286D02*
X29022Y-17356D01*
X29133Y-17468D02*
X28921Y-17255D01*
X29022Y-17154D01*
X29436Y-17164D02*
X29265Y-17134D01*
X29315Y-17286D02*
X29103Y-17074D01*
X29184Y-16993D01*
X29214Y-16983D01*
X29234Y-16983D01*
X29265Y-16993D01*
X29295Y-17023D01*
X29305Y-17053D01*
X29305Y-17074D01*
X29295Y-17104D01*
X29214Y-17185D01*
X29527Y-17074D02*
X29315Y-16861D01*
X29648Y-16952D01*
X29436Y-16740D01*
X29507Y-16670D02*
X29628Y-16548D01*
X29780Y-16821D02*
X29568Y-16609D01*
X30194Y-16407D02*
X30022Y-16377D01*
X30073Y-16528D02*
X29861Y-16316D01*
X29941Y-16235D01*
X29972Y-16225D01*
X29992Y-16225D01*
X30022Y-16235D01*
X30052Y-16265D01*
X30063Y-16296D01*
X30063Y-16316D01*
X30052Y-16346D01*
X29972Y-16427D01*
X30194Y-16003D02*
X30164Y-16013D01*
X30133Y-16043D01*
X30113Y-16084D01*
X30113Y-16124D01*
X30123Y-16154D01*
X30153Y-16205D01*
X30184Y-16235D01*
X30234Y-16265D01*
X30265Y-16276D01*
X30305Y-16276D01*
X30345Y-16255D01*
X30366Y-16235D01*
X30386Y-16195D01*
X30386Y-16175D01*
X30315Y-16104D01*
X30275Y-16144D01*
X30254Y-15922D02*
X30376Y-15801D01*
X30527Y-16074D02*
X30315Y-15861D01*
G54D11*
X32581Y-18972D02*
X32703Y-18851D01*
X32854Y-19124D02*
X32642Y-18912D01*
X32985Y-18992D02*
X32773Y-18780D01*
X33046Y-18710D02*
X33086Y-18689D01*
X33107Y-18689D01*
X33137Y-18699D01*
X33167Y-18730D01*
X33177Y-18760D01*
X33177Y-18780D01*
X33167Y-18811D01*
X33086Y-18891D01*
X32874Y-18679D01*
X32945Y-18609D01*
X32975Y-18598D01*
X32996Y-18598D01*
X33026Y-18609D01*
X33046Y-18629D01*
X33056Y-18659D01*
X33056Y-18679D01*
X33046Y-18710D01*
X32975Y-18780D01*
X32006Y-19750D02*
X31935Y-19821D01*
X32046Y-19932D02*
X31834Y-19720D01*
X31935Y-19619D01*
X32117Y-19639D02*
X32187Y-19568D01*
X32329Y-19649D02*
X32228Y-19750D01*
X32016Y-19538D01*
X32117Y-19437D01*
X32420Y-19558D02*
X32208Y-19346D01*
X32430Y-19427D01*
X32349Y-19205D01*
X32561Y-19417D01*
X31430Y-20508D02*
X31430Y-20528D01*
X31410Y-20568D01*
X31389Y-20588D01*
X31349Y-20609D01*
X31309Y-20609D01*
X31278Y-20599D01*
X31228Y-20568D01*
X31197Y-20538D01*
X31167Y-20487D01*
X31157Y-20457D01*
X31157Y-20417D01*
X31177Y-20376D01*
X31197Y-20356D01*
X31238Y-20336D01*
X31258Y-20336D01*
X31369Y-20184D02*
X31410Y-20144D01*
X31440Y-20134D01*
X31480Y-20134D01*
X31531Y-20164D01*
X31602Y-20235D01*
X31632Y-20285D01*
X31632Y-20326D01*
X31622Y-20356D01*
X31581Y-20397D01*
X31551Y-20407D01*
X31511Y-20407D01*
X31460Y-20376D01*
X31389Y-20306D01*
X31359Y-20255D01*
X31359Y-20215D01*
X31369Y-20184D01*
X31531Y-20023D02*
X31884Y-20094D01*
X31672Y-19881D02*
X31743Y-20235D01*
G54D10*
X26504Y-20116D02*
X26292Y-19904D01*
X26514Y-19985D01*
X26434Y-19763D01*
X26646Y-19975D01*
X26747Y-19874D02*
X26535Y-19662D01*
X26848Y-19773D02*
X26636Y-19561D01*
X26686Y-19510D01*
X26727Y-19490D01*
X26767Y-19490D01*
X26797Y-19500D01*
X26848Y-19531D01*
X26878Y-19561D01*
X26908Y-19611D01*
X26918Y-19642D01*
X26918Y-19682D01*
X26898Y-19722D01*
X26848Y-19773D01*
X27343Y-19278D02*
X27171Y-19248D01*
X27222Y-19399D02*
X27009Y-19187D01*
X27090Y-19106D01*
X27121Y-19096D01*
X27141Y-19096D01*
X27171Y-19106D01*
X27201Y-19137D01*
X27211Y-19167D01*
X27211Y-19187D01*
X27201Y-19217D01*
X27121Y-19298D01*
X27343Y-18874D02*
X27312Y-18884D01*
X27282Y-18914D01*
X27262Y-18955D01*
X27262Y-18995D01*
X27272Y-19025D01*
X27302Y-19076D01*
X27333Y-19106D01*
X27383Y-19137D01*
X27413Y-19147D01*
X27454Y-19147D01*
X27494Y-19126D01*
X27514Y-19106D01*
X27535Y-19066D01*
X27535Y-19046D01*
X27464Y-18975D01*
X27424Y-19015D01*
X27403Y-18793D02*
X27525Y-18672D01*
X27676Y-18945D02*
X27464Y-18732D01*
G54D11*
X30461Y-21092D02*
X30583Y-20971D01*
X30734Y-21244D02*
X30522Y-21032D01*
X30865Y-21112D02*
X30653Y-20900D01*
X30926Y-20830D02*
X30966Y-20809D01*
X30987Y-20809D01*
X31017Y-20819D01*
X31047Y-20850D01*
X31057Y-20880D01*
X31057Y-20900D01*
X31047Y-20931D01*
X30966Y-21011D01*
X30754Y-20799D01*
X30825Y-20729D01*
X30855Y-20718D01*
X30876Y-20718D01*
X30906Y-20729D01*
X30926Y-20749D01*
X30936Y-20779D01*
X30936Y-20799D01*
X30926Y-20830D01*
X30855Y-20900D01*
X29886Y-21870D02*
X29815Y-21941D01*
X29926Y-22052D02*
X29714Y-21840D01*
X29815Y-21739D01*
X29997Y-21759D02*
X30067Y-21688D01*
X30209Y-21769D02*
X30108Y-21870D01*
X29896Y-21658D01*
X29997Y-21557D01*
X30300Y-21678D02*
X30088Y-21466D01*
X30310Y-21547D01*
X30229Y-21325D01*
X30441Y-21537D01*
X29310Y-22628D02*
X29310Y-22648D01*
X29290Y-22688D01*
X29269Y-22708D01*
X29229Y-22729D01*
X29189Y-22729D01*
X29158Y-22719D01*
X29108Y-22688D01*
X29077Y-22658D01*
X29047Y-22607D01*
X29037Y-22577D01*
X29037Y-22537D01*
X29057Y-22496D01*
X29077Y-22476D01*
X29118Y-22456D01*
X29138Y-22456D01*
X29249Y-22304D02*
X29290Y-22264D01*
X29320Y-22254D01*
X29360Y-22254D01*
X29411Y-22284D01*
X29482Y-22355D01*
X29512Y-22405D01*
X29512Y-22446D01*
X29502Y-22476D01*
X29461Y-22517D01*
X29431Y-22527D01*
X29391Y-22527D01*
X29340Y-22496D01*
X29269Y-22426D01*
X29239Y-22375D01*
X29239Y-22335D01*
X29249Y-22304D01*
X29411Y-22143D02*
X29764Y-22214D01*
X29552Y-22001D02*
X29623Y-22355D01*
G54D10*
X24364Y-22256D02*
X24193Y-22226D01*
X24243Y-22378D02*
X24031Y-22165D01*
X24112Y-22085D01*
X24142Y-22075D01*
X24162Y-22075D01*
X24193Y-22085D01*
X24223Y-22115D01*
X24233Y-22145D01*
X24233Y-22165D01*
X24223Y-22196D01*
X24142Y-22277D01*
X24344Y-22054D02*
X24415Y-21984D01*
X24556Y-22064D02*
X24455Y-22165D01*
X24243Y-21953D01*
X24344Y-21852D01*
X24576Y-21923D02*
X24677Y-21822D01*
X24617Y-22004D02*
X24475Y-21721D01*
X24758Y-21862D01*
X24950Y-21671D02*
X24778Y-21640D01*
X24829Y-21792D02*
X24617Y-21580D01*
X24698Y-21499D01*
X24728Y-21489D01*
X24748Y-21489D01*
X24778Y-21499D01*
X24809Y-21529D01*
X24819Y-21559D01*
X24819Y-21580D01*
X24809Y-21610D01*
X24728Y-21691D01*
X25324Y-21297D02*
X25152Y-21266D01*
X25203Y-21418D02*
X24991Y-21206D01*
X25071Y-21125D01*
X25102Y-21115D01*
X25122Y-21115D01*
X25152Y-21125D01*
X25183Y-21155D01*
X25193Y-21186D01*
X25193Y-21206D01*
X25183Y-21236D01*
X25102Y-21317D01*
X25324Y-20893D02*
X25294Y-20903D01*
X25263Y-20933D01*
X25243Y-20974D01*
X25243Y-21014D01*
X25253Y-21044D01*
X25284Y-21095D01*
X25314Y-21125D01*
X25364Y-21155D01*
X25395Y-21165D01*
X25435Y-21165D01*
X25475Y-21145D01*
X25496Y-21125D01*
X25516Y-21085D01*
X25516Y-21064D01*
X25445Y-20994D01*
X25405Y-21034D01*
X25385Y-20812D02*
X25506Y-20691D01*
X25657Y-20963D02*
X25445Y-20751D01*
G54D11*
X28341Y-23212D02*
X28463Y-23091D01*
X28614Y-23364D02*
X28402Y-23152D01*
X28745Y-23232D02*
X28533Y-23020D01*
X28806Y-22950D02*
X28846Y-22929D01*
X28867Y-22929D01*
X28897Y-22939D01*
X28927Y-22970D01*
X28937Y-23000D01*
X28937Y-23020D01*
X28927Y-23051D01*
X28846Y-23131D01*
X28634Y-22919D01*
X28705Y-22849D01*
X28735Y-22838D01*
X28756Y-22838D01*
X28786Y-22849D01*
X28806Y-22869D01*
X28816Y-22899D01*
X28816Y-22919D01*
X28806Y-22950D01*
X28735Y-23020D01*
X27766Y-23990D02*
X27695Y-24061D01*
X27806Y-24172D02*
X27594Y-23960D01*
X27695Y-23859D01*
X27877Y-23879D02*
X27947Y-23808D01*
X28089Y-23889D02*
X27988Y-23990D01*
X27776Y-23778D01*
X27877Y-23677D01*
X28180Y-23798D02*
X27968Y-23586D01*
X28190Y-23667D01*
X28109Y-23445D01*
X28321Y-23657D01*
X27190Y-24748D02*
X27190Y-24768D01*
X27170Y-24808D01*
X27149Y-24828D01*
X27109Y-24849D01*
X27069Y-24849D01*
X27038Y-24839D01*
X26988Y-24808D01*
X26957Y-24778D01*
X26927Y-24727D01*
X26917Y-24697D01*
X26917Y-24657D01*
X26937Y-24616D01*
X26957Y-24596D01*
X26998Y-24576D01*
X27018Y-24576D01*
X27129Y-24424D02*
X27170Y-24384D01*
X27200Y-24374D01*
X27240Y-24374D01*
X27291Y-24404D01*
X27362Y-24475D01*
X27392Y-24525D01*
X27392Y-24566D01*
X27382Y-24596D01*
X27341Y-24637D01*
X27311Y-24647D01*
X27271Y-24647D01*
X27220Y-24616D01*
X27149Y-24546D01*
X27119Y-24495D01*
X27119Y-24455D01*
X27129Y-24424D01*
X27291Y-24263D02*
X27644Y-24334D01*
X27432Y-24121D02*
X27503Y-24475D01*
M02*
