G04 (created by PCBNEW (2013-dec-23)-stable) date Thu 03 Jul 2014 07:48:38 AM MDT*
%MOIN*%
G04 Gerber Fmt 3.4, Leading zero omitted, Abs format*
%FSLAX34Y34*%
G01*
G70*
G90*
G04 APERTURE LIST*
%ADD10C,0.00590551*%
%ADD11C,0.055*%
%ADD12C,0.066*%
%ADD13C,0.07*%
%ADD14C,0.06*%
%ADD15C,0.16*%
%ADD16R,0.035X0.045*%
%ADD17C,0.075*%
%ADD18R,0.055X0.055*%
%ADD19C,0.03*%
%ADD20C,0.015*%
%ADD21C,0.05*%
%ADD22C,0.02*%
%ADD23C,0.013*%
G04 APERTURE END LIST*
G54D10*
G54D11*
X32866Y-15738D03*
X31866Y-15738D03*
X31866Y-14738D03*
G54D12*
X24116Y-23918D03*
X23116Y-23918D03*
G54D11*
X28163Y-6850D03*
X27456Y-7557D03*
X26748Y-8264D03*
X26041Y-8971D03*
X25334Y-9678D03*
X24627Y-10385D03*
X23920Y-11092D03*
X23213Y-11799D03*
X22506Y-12506D03*
X21799Y-13214D03*
X21092Y-13921D03*
X20384Y-14628D03*
X19677Y-15335D03*
X18970Y-16042D03*
X18263Y-16749D03*
X17556Y-17456D03*
X16849Y-18163D03*
X16142Y-18870D03*
X15435Y-19578D03*
X14728Y-20285D03*
X18970Y-24527D03*
X19677Y-23820D03*
X20384Y-23113D03*
X21092Y-22406D03*
X21799Y-21699D03*
X22506Y-20992D03*
X23213Y-20285D03*
X23920Y-19578D03*
X24627Y-18870D03*
X25334Y-18163D03*
X26041Y-17456D03*
X26748Y-16749D03*
X27456Y-16042D03*
X28163Y-15335D03*
X28870Y-14628D03*
X29577Y-13921D03*
X30284Y-13214D03*
X30991Y-12506D03*
X31698Y-11799D03*
X32405Y-11092D03*
G54D13*
X24216Y-6538D03*
X23216Y-6538D03*
G54D14*
X18659Y-14296D03*
X19366Y-13588D03*
X20074Y-12881D03*
X27998Y-25067D03*
X28705Y-24360D03*
X29412Y-23653D03*
X30119Y-22946D03*
X30826Y-22238D03*
X31534Y-21531D03*
X32241Y-20824D03*
X32948Y-20117D03*
G54D15*
X31889Y-24015D03*
X15354Y-7480D03*
G54D14*
X30706Y-7085D03*
X31413Y-6378D03*
X31413Y-7792D03*
X32120Y-7085D03*
X32120Y-8499D03*
X32827Y-7792D03*
X16327Y-24442D03*
X15620Y-25149D03*
X15620Y-23735D03*
X14913Y-24442D03*
X14913Y-23028D03*
X14206Y-23735D03*
G54D16*
X15716Y-15588D03*
X15216Y-15588D03*
X14716Y-15588D03*
X14216Y-15588D03*
G54D14*
X19867Y-18353D03*
X20574Y-17646D03*
X21281Y-16938D03*
X21988Y-16231D03*
X22695Y-15524D03*
X23402Y-14817D03*
X24109Y-14110D03*
X24816Y-13403D03*
X25524Y-12696D03*
X26231Y-11989D03*
X29766Y-15524D03*
X29059Y-16231D03*
X28352Y-16938D03*
X27645Y-17646D03*
X26938Y-18353D03*
X26231Y-19060D03*
X25524Y-19767D03*
X24816Y-20474D03*
X24109Y-21181D03*
X23402Y-21888D03*
G54D10*
G36*
X19433Y-14229D02*
X19751Y-14547D01*
X19574Y-14724D01*
X19256Y-14406D01*
X19433Y-14229D01*
X19433Y-14229D01*
G37*
G36*
X19009Y-14653D02*
X19327Y-14971D01*
X19150Y-15148D01*
X18832Y-14830D01*
X19009Y-14653D01*
X19009Y-14653D01*
G37*
G36*
X20200Y-14098D02*
X19882Y-13780D01*
X20059Y-13603D01*
X20377Y-13921D01*
X20200Y-14098D01*
X20200Y-14098D01*
G37*
G36*
X20624Y-13674D02*
X20306Y-13356D01*
X20483Y-13179D01*
X20801Y-13497D01*
X20624Y-13674D01*
X20624Y-13674D01*
G37*
G54D17*
X18579Y-11936D03*
X19286Y-11229D03*
X19994Y-10522D03*
X17872Y-11229D03*
X18579Y-10522D03*
X19286Y-9815D03*
X17165Y-10522D03*
X17872Y-9815D03*
X18579Y-9108D03*
X20699Y-9816D03*
X21406Y-9109D03*
X22114Y-8402D03*
X19992Y-9109D03*
X20699Y-8402D03*
X21406Y-7695D03*
X19285Y-8402D03*
X19992Y-7695D03*
X20699Y-6988D03*
X16459Y-14056D03*
X17166Y-13349D03*
X17874Y-12642D03*
X15752Y-13349D03*
X16459Y-12642D03*
X17166Y-11935D03*
X15045Y-12642D03*
X15752Y-11935D03*
X16459Y-11228D03*
X30804Y-16831D03*
X30096Y-17538D03*
X29389Y-18245D03*
X31511Y-17538D03*
X30804Y-18245D03*
X30096Y-18952D03*
X32218Y-18245D03*
X31511Y-18952D03*
X30804Y-19659D03*
X28684Y-18951D03*
X27976Y-19658D03*
X27269Y-20365D03*
X29391Y-19658D03*
X28684Y-20365D03*
X27976Y-21072D03*
X30098Y-20365D03*
X29391Y-21072D03*
X28684Y-21779D03*
X26564Y-21071D03*
X25856Y-21778D03*
X25149Y-22485D03*
X27271Y-21778D03*
X26564Y-22485D03*
X25856Y-23192D03*
X27978Y-22485D03*
X27271Y-23192D03*
X26564Y-23899D03*
G54D18*
X31900Y-16600D03*
G54D11*
X32900Y-16600D03*
G54D10*
G36*
X18453Y-19257D02*
X18842Y-19646D01*
X18453Y-20035D01*
X18064Y-19646D01*
X18453Y-19257D01*
X18453Y-19257D01*
G37*
G54D11*
X17746Y-20353D03*
G54D10*
G36*
X15542Y-14353D02*
X15153Y-14742D01*
X14764Y-14353D01*
X15153Y-13964D01*
X15542Y-14353D01*
X15542Y-14353D01*
G37*
G54D11*
X14446Y-13646D03*
G54D19*
X24986Y-23308D03*
X23076Y-19458D03*
X29806Y-10618D03*
X26791Y-13263D03*
X26966Y-12038D03*
X16854Y-18876D03*
X24216Y-16313D03*
X25116Y-14413D03*
X24650Y-9180D03*
X24916Y-15613D03*
X27066Y-9438D03*
X27691Y-10063D03*
X14916Y-21588D03*
X31566Y-13388D03*
X21841Y-15388D03*
X31091Y-10513D03*
X28891Y-8313D03*
X20316Y-23738D03*
G54D20*
X18453Y-19646D02*
X18573Y-19646D01*
X18573Y-19646D02*
X19867Y-18353D01*
X24451Y-22773D02*
X24451Y-22273D01*
X24986Y-23308D02*
X24451Y-22773D01*
X25181Y-21543D02*
X25161Y-21543D01*
X25161Y-21543D02*
X23076Y-19458D01*
X31946Y-8499D02*
X29806Y-10638D01*
X31946Y-8499D02*
X32120Y-8499D01*
X29806Y-10618D02*
X29806Y-10638D01*
X31866Y-14858D02*
X31866Y-14738D01*
X24451Y-22273D02*
X25181Y-21543D01*
X25181Y-21543D02*
X31866Y-14858D01*
G54D21*
X31413Y-6360D02*
X31413Y-6360D01*
X31413Y-6360D02*
X32120Y-7085D01*
X24216Y-6538D02*
X25816Y-6538D01*
X31274Y-6220D02*
X31413Y-6360D01*
X26116Y-6220D02*
X31274Y-6220D01*
X25816Y-6538D02*
X26116Y-6220D01*
G54D20*
X25576Y-25318D02*
X27746Y-25318D01*
X29933Y-11092D02*
X17356Y-23668D01*
X17356Y-23668D02*
X17356Y-24938D01*
X17356Y-24938D02*
X17736Y-25318D01*
X17736Y-25318D02*
X25576Y-25318D01*
X32405Y-11092D02*
X29933Y-11092D01*
X27746Y-25318D02*
X27998Y-25067D01*
X31698Y-11799D02*
X29579Y-11799D01*
X27745Y-24360D02*
X28705Y-24360D01*
X27036Y-25068D02*
X27745Y-24360D01*
X17886Y-25068D02*
X27036Y-25068D01*
X17616Y-24798D02*
X17886Y-25068D01*
X17616Y-23762D02*
X17616Y-24798D01*
X29579Y-11799D02*
X17616Y-23762D01*
X18756Y-23618D02*
X18756Y-23628D01*
X18756Y-23628D02*
X19946Y-24818D01*
X18756Y-23618D02*
X18756Y-22976D01*
X27762Y-23653D02*
X29412Y-23653D01*
X26596Y-24818D02*
X27762Y-23653D01*
X19946Y-24818D02*
X26596Y-24818D01*
X30991Y-12506D02*
X29226Y-12506D01*
X29226Y-12506D02*
X18756Y-22976D01*
X26106Y-13948D02*
X26791Y-13263D01*
X16327Y-24442D02*
X16327Y-23728D01*
X26106Y-13948D02*
X16327Y-23728D01*
X26966Y-12038D02*
X26966Y-12063D01*
X16023Y-23006D02*
X15634Y-23006D01*
X26966Y-12063D02*
X16023Y-23006D01*
X15134Y-23506D02*
X15134Y-24220D01*
X15134Y-24220D02*
X14913Y-24442D01*
X15634Y-23006D02*
X15134Y-23506D01*
X18579Y-11936D02*
X22119Y-11936D01*
X22119Y-11936D02*
X24377Y-9678D01*
X24377Y-9678D02*
X25334Y-9678D01*
X16459Y-14056D02*
X16220Y-14296D01*
X16220Y-18242D02*
X16220Y-14296D01*
X16220Y-18242D02*
X16854Y-18876D01*
X16849Y-18163D02*
X16843Y-18163D01*
X17166Y-14333D02*
X17166Y-13349D01*
X16560Y-14940D02*
X17166Y-14333D01*
X16560Y-17880D02*
X16560Y-14940D01*
X16843Y-18163D02*
X16560Y-17880D01*
X17556Y-17456D02*
X17556Y-14103D01*
X17874Y-13785D02*
X17874Y-12642D01*
X17556Y-14103D02*
X17874Y-13785D01*
X14816Y-23838D02*
X14816Y-23124D01*
X14816Y-23124D02*
X14913Y-23028D01*
X14316Y-24338D02*
X14666Y-23988D01*
X14316Y-24738D02*
X14316Y-24338D01*
X14566Y-24988D02*
X14316Y-24738D01*
X14666Y-23988D02*
X14816Y-23838D01*
X15066Y-24988D02*
X14566Y-24988D01*
X15466Y-24588D02*
X15066Y-24988D01*
X17016Y-24688D02*
X16666Y-25038D01*
X15766Y-24588D02*
X15466Y-24588D01*
X16216Y-25038D02*
X15766Y-24588D01*
X16666Y-25038D02*
X16216Y-25038D01*
X24166Y-16313D02*
X17016Y-23463D01*
X17016Y-23463D02*
X17016Y-24688D01*
X24216Y-16313D02*
X24166Y-16313D01*
X15795Y-23735D02*
X15620Y-23735D01*
X25116Y-14413D02*
X15795Y-23735D01*
X15620Y-23735D02*
X15720Y-23735D01*
X21852Y-7250D02*
X21406Y-7695D01*
X22720Y-7250D02*
X21852Y-7250D01*
X24650Y-9180D02*
X22720Y-7250D01*
X24116Y-23918D02*
X25130Y-23918D01*
X25130Y-23918D02*
X25856Y-23192D01*
X29166Y-10038D02*
X31413Y-7792D01*
X24941Y-15613D02*
X29166Y-11388D01*
X29166Y-11388D02*
X29166Y-10038D01*
X30706Y-7085D02*
X30670Y-7085D01*
X27691Y-10063D02*
X30670Y-7085D01*
X14916Y-21588D02*
X27066Y-9438D01*
X19514Y-15335D02*
X19079Y-14901D01*
X19677Y-15335D02*
X19514Y-15335D01*
X18659Y-14481D02*
X19079Y-14901D01*
X18659Y-14296D02*
X18659Y-14481D01*
X20384Y-14620D02*
X20616Y-14388D01*
X20384Y-14628D02*
X20384Y-14620D01*
X20616Y-13489D02*
X20554Y-13426D01*
X20616Y-14388D02*
X20616Y-13489D01*
X20074Y-12946D02*
X20554Y-13426D01*
X20074Y-12881D02*
X20074Y-12946D01*
G54D21*
X14446Y-13646D02*
X14446Y-13241D01*
X14446Y-13241D02*
X15045Y-12642D01*
G54D20*
X15216Y-15588D02*
X15216Y-15316D01*
X15216Y-15316D02*
X14446Y-14546D01*
X14446Y-14546D02*
X14446Y-13646D01*
X17746Y-20353D02*
X17746Y-20346D01*
X17746Y-20346D02*
X17327Y-19927D01*
X21841Y-15388D02*
X21841Y-15413D01*
G54D22*
X26841Y-7138D02*
X26866Y-7138D01*
X26866Y-7138D02*
X27016Y-6988D01*
X27016Y-6988D02*
X27591Y-6988D01*
X27591Y-6988D02*
X28891Y-8288D01*
X28891Y-8288D02*
X28891Y-8313D01*
G54D20*
X28891Y-8313D02*
X28891Y-8363D01*
X19867Y-13588D02*
X20129Y-13851D01*
X19366Y-13588D02*
X19867Y-13588D01*
X19366Y-14339D02*
X19504Y-14476D01*
X19366Y-13588D02*
X19366Y-14339D01*
X25994Y-24468D02*
X26564Y-23899D01*
X21046Y-24468D02*
X25994Y-24468D01*
X20316Y-23738D02*
X21046Y-24468D01*
G54D21*
X32948Y-20117D02*
X32676Y-20117D01*
X32676Y-20117D02*
X31511Y-18952D01*
G54D20*
X15354Y-7480D02*
X15537Y-7480D01*
X15537Y-7480D02*
X17872Y-9815D01*
X28684Y-21779D02*
X29653Y-21779D01*
X29653Y-21779D02*
X31889Y-24015D01*
G54D22*
X32866Y-15738D02*
X32866Y-14688D01*
X32866Y-14688D02*
X31566Y-13388D01*
X26231Y-11989D02*
X26229Y-11989D01*
X26229Y-11989D02*
X25747Y-11507D01*
X28891Y-8363D02*
X25747Y-11507D01*
X25747Y-11507D02*
X25391Y-11863D01*
X22172Y-15082D02*
X21841Y-15413D01*
X25391Y-11863D02*
X22909Y-14345D01*
X22909Y-14345D02*
X22172Y-15082D01*
X21841Y-15413D02*
X21166Y-16088D01*
X21166Y-16088D02*
X17327Y-19927D01*
X17327Y-19927D02*
X14941Y-22313D01*
X14941Y-22338D02*
X14941Y-22313D01*
X14206Y-22849D02*
X14716Y-22338D01*
X14716Y-22338D02*
X14941Y-22338D01*
X14206Y-23735D02*
X14206Y-22849D01*
X23816Y-7138D02*
X23216Y-6538D01*
X26841Y-7138D02*
X23816Y-7138D01*
X27016Y-6988D02*
X26866Y-7138D01*
G54D21*
X15752Y-11935D02*
X15045Y-12642D01*
X16459Y-11228D02*
X15752Y-11935D01*
X17165Y-10522D02*
X16459Y-11228D01*
X17872Y-9815D02*
X17165Y-10522D01*
X18579Y-9108D02*
X17872Y-9815D01*
X19285Y-8402D02*
X18579Y-9108D01*
X19992Y-7695D02*
X19285Y-8402D01*
X20699Y-6988D02*
X19992Y-7695D01*
X23216Y-6538D02*
X21149Y-6538D01*
X21149Y-6538D02*
X20699Y-6988D01*
X32866Y-15738D02*
X32866Y-17596D01*
X32866Y-17596D02*
X32218Y-18245D01*
X31511Y-18952D02*
X32218Y-18245D01*
X30804Y-19659D02*
X31511Y-18952D01*
X30098Y-20365D02*
X30804Y-19659D01*
X29391Y-21072D02*
X30098Y-20365D01*
X28684Y-21779D02*
X29391Y-21072D01*
X27978Y-22485D02*
X28684Y-21779D01*
X27271Y-23192D02*
X27978Y-22485D01*
X26564Y-23899D02*
X27271Y-23192D01*
G54D10*
G36*
X33249Y-9142D02*
X32615Y-8507D01*
X32615Y-8401D01*
X32540Y-8219D01*
X32401Y-8080D01*
X32219Y-8004D01*
X32112Y-8004D01*
X31908Y-7800D01*
X31908Y-7694D01*
X31833Y-7512D01*
X31694Y-7373D01*
X31512Y-7297D01*
X31405Y-7297D01*
X31201Y-7093D01*
X31201Y-6987D01*
X31126Y-6805D01*
X30987Y-6666D01*
X30805Y-6590D01*
X30698Y-6590D01*
X30227Y-6120D01*
X32655Y-6120D01*
X32895Y-6168D01*
X33078Y-6290D01*
X33202Y-6476D01*
X33249Y-6712D01*
X33249Y-7518D01*
X33247Y-7512D01*
X33108Y-7373D01*
X32926Y-7297D01*
X32729Y-7297D01*
X32547Y-7372D01*
X32408Y-7511D01*
X32332Y-7693D01*
X32332Y-7890D01*
X32407Y-8072D01*
X32546Y-8211D01*
X32728Y-8287D01*
X32925Y-8287D01*
X33107Y-8212D01*
X33246Y-8073D01*
X33249Y-8066D01*
X33249Y-9142D01*
X33249Y-9142D01*
G37*
G54D23*
X33249Y-9142D02*
X32615Y-8507D01*
X32615Y-8401D01*
X32540Y-8219D01*
X32401Y-8080D01*
X32219Y-8004D01*
X32112Y-8004D01*
X31908Y-7800D01*
X31908Y-7694D01*
X31833Y-7512D01*
X31694Y-7373D01*
X31512Y-7297D01*
X31405Y-7297D01*
X31201Y-7093D01*
X31201Y-6987D01*
X31126Y-6805D01*
X30987Y-6666D01*
X30805Y-6590D01*
X30698Y-6590D01*
X30227Y-6120D01*
X32655Y-6120D01*
X32895Y-6168D01*
X33078Y-6290D01*
X33202Y-6476D01*
X33249Y-6712D01*
X33249Y-7518D01*
X33247Y-7512D01*
X33108Y-7373D01*
X32926Y-7297D01*
X32729Y-7297D01*
X32547Y-7372D01*
X32408Y-7511D01*
X32332Y-7693D01*
X32332Y-7890D01*
X32407Y-8072D01*
X32546Y-8211D01*
X32728Y-8287D01*
X32925Y-8287D01*
X33107Y-8212D01*
X33246Y-8073D01*
X33249Y-8066D01*
X33249Y-9142D01*
G54D10*
G36*
X31017Y-7487D02*
X30993Y-7511D01*
X30918Y-7693D01*
X30918Y-7890D01*
X30922Y-7901D01*
X28976Y-9848D01*
X28917Y-9935D01*
X28896Y-10038D01*
X28896Y-11277D01*
X27090Y-13083D01*
X27084Y-13068D01*
X26987Y-12971D01*
X26860Y-12919D01*
X26723Y-12918D01*
X26596Y-12971D01*
X26499Y-13068D01*
X26446Y-13195D01*
X26446Y-13227D01*
X25916Y-13758D01*
X25422Y-14251D01*
X25409Y-14218D01*
X25312Y-14121D01*
X25297Y-14115D01*
X27028Y-12384D01*
X27035Y-12384D01*
X27162Y-12331D01*
X27259Y-12234D01*
X27311Y-12107D01*
X27311Y-11970D01*
X27259Y-11843D01*
X27162Y-11746D01*
X27035Y-11694D01*
X26898Y-11693D01*
X26771Y-11746D01*
X26750Y-11767D01*
X26703Y-11658D01*
X26540Y-11503D01*
X26355Y-11426D01*
X26266Y-11480D01*
X26266Y-11954D01*
X26628Y-11954D01*
X26621Y-11970D01*
X26621Y-12024D01*
X26315Y-12024D01*
X26286Y-11994D01*
X26236Y-12044D01*
X26266Y-12073D01*
X26266Y-12382D01*
X26196Y-12452D01*
X26196Y-12073D01*
X26225Y-12044D01*
X26196Y-12014D01*
X26196Y-11954D01*
X26196Y-11480D01*
X26106Y-11426D01*
X25900Y-11517D01*
X25745Y-11679D01*
X25668Y-11864D01*
X25722Y-11954D01*
X26196Y-11954D01*
X26196Y-12014D01*
X26176Y-11994D01*
X26146Y-12024D01*
X25722Y-12024D01*
X25668Y-12113D01*
X25726Y-12244D01*
X25622Y-12201D01*
X25426Y-12201D01*
X25244Y-12276D01*
X25104Y-12415D01*
X25029Y-12597D01*
X25028Y-12794D01*
X25104Y-12976D01*
X25243Y-13115D01*
X25425Y-13191D01*
X25457Y-13191D01*
X25311Y-13337D01*
X25312Y-13305D01*
X25236Y-13123D01*
X25097Y-12984D01*
X24915Y-12908D01*
X24718Y-12908D01*
X24536Y-12983D01*
X24397Y-13122D01*
X24322Y-13304D01*
X24321Y-13501D01*
X24397Y-13683D01*
X24536Y-13822D01*
X24718Y-13898D01*
X24750Y-13898D01*
X24604Y-14044D01*
X24604Y-14012D01*
X24529Y-13830D01*
X24390Y-13691D01*
X24208Y-13615D01*
X24011Y-13615D01*
X23829Y-13690D01*
X23690Y-13829D01*
X23614Y-14011D01*
X23614Y-14208D01*
X23689Y-14390D01*
X23829Y-14529D01*
X24010Y-14605D01*
X24043Y-14605D01*
X23897Y-14751D01*
X23897Y-14719D01*
X23822Y-14537D01*
X23683Y-14398D01*
X23501Y-14322D01*
X23304Y-14322D01*
X23122Y-14397D01*
X22983Y-14536D01*
X22907Y-14718D01*
X22907Y-14915D01*
X22982Y-15097D01*
X23121Y-15237D01*
X23303Y-15312D01*
X23336Y-15312D01*
X23190Y-15458D01*
X23190Y-15426D01*
X23115Y-15244D01*
X22976Y-15105D01*
X22794Y-15029D01*
X22597Y-15029D01*
X22415Y-15104D01*
X22276Y-15244D01*
X22200Y-15425D01*
X22200Y-15622D01*
X22275Y-15804D01*
X22414Y-15944D01*
X22596Y-16019D01*
X22629Y-16019D01*
X22483Y-16165D01*
X22483Y-16133D01*
X22408Y-15951D01*
X22269Y-15812D01*
X22087Y-15736D01*
X21890Y-15736D01*
X21708Y-15811D01*
X21569Y-15951D01*
X21493Y-16132D01*
X21493Y-16329D01*
X21568Y-16511D01*
X21707Y-16651D01*
X21889Y-16726D01*
X21922Y-16726D01*
X21776Y-16872D01*
X21776Y-16840D01*
X21701Y-16658D01*
X21562Y-16519D01*
X21380Y-16444D01*
X21183Y-16443D01*
X21001Y-16519D01*
X20861Y-16658D01*
X20786Y-16840D01*
X20786Y-17037D01*
X20861Y-17219D01*
X21000Y-17358D01*
X21182Y-17433D01*
X21215Y-17433D01*
X21069Y-17579D01*
X21069Y-17548D01*
X20994Y-17366D01*
X20855Y-17226D01*
X20673Y-17151D01*
X20476Y-17150D01*
X20294Y-17226D01*
X20154Y-17365D01*
X20079Y-17547D01*
X20079Y-17744D01*
X20154Y-17926D01*
X20293Y-18065D01*
X20475Y-18140D01*
X20508Y-18141D01*
X20362Y-18286D01*
X20362Y-18255D01*
X20287Y-18073D01*
X20147Y-17933D01*
X19966Y-17858D01*
X19769Y-17858D01*
X19587Y-17933D01*
X19447Y-18072D01*
X19372Y-18254D01*
X19372Y-18451D01*
X19376Y-18461D01*
X18655Y-19183D01*
X18564Y-19092D01*
X18492Y-19062D01*
X18414Y-19062D01*
X18343Y-19092D01*
X18288Y-19146D01*
X17899Y-19535D01*
X17869Y-19607D01*
X17869Y-19685D01*
X17899Y-19756D01*
X17954Y-19811D01*
X18023Y-19881D01*
X17866Y-19816D01*
X17781Y-19870D01*
X17781Y-20269D01*
X17752Y-20298D01*
X17801Y-20347D01*
X17830Y-20318D01*
X18229Y-20318D01*
X18283Y-20233D01*
X18210Y-20068D01*
X18342Y-20200D01*
X18414Y-20230D01*
X18418Y-20230D01*
X18241Y-20407D01*
X18229Y-20388D01*
X17830Y-20388D01*
X17801Y-20359D01*
X17752Y-20408D01*
X17781Y-20438D01*
X17781Y-20836D01*
X17800Y-20848D01*
X17711Y-20937D01*
X17711Y-20836D01*
X17711Y-20388D01*
X17711Y-20318D01*
X17711Y-19870D01*
X17625Y-19816D01*
X17429Y-19903D01*
X17281Y-20058D01*
X17209Y-20233D01*
X17263Y-20318D01*
X17711Y-20318D01*
X17711Y-20388D01*
X17263Y-20388D01*
X17209Y-20474D01*
X17296Y-20670D01*
X17451Y-20818D01*
X17625Y-20890D01*
X17711Y-20836D01*
X17711Y-20937D01*
X15912Y-22736D01*
X15634Y-22736D01*
X15531Y-22757D01*
X15444Y-22816D01*
X15385Y-22874D01*
X15333Y-22748D01*
X15194Y-22608D01*
X15012Y-22533D01*
X14815Y-22533D01*
X14633Y-22608D01*
X14493Y-22747D01*
X14418Y-22929D01*
X14418Y-23126D01*
X14459Y-23226D01*
X14330Y-23172D01*
X14241Y-23226D01*
X14241Y-23650D01*
X14211Y-23680D01*
X14261Y-23729D01*
X14290Y-23700D01*
X14546Y-23700D01*
X14546Y-23727D01*
X14503Y-23770D01*
X14290Y-23770D01*
X14261Y-23740D01*
X14211Y-23790D01*
X14241Y-23819D01*
X14241Y-24032D01*
X14171Y-24102D01*
X14171Y-23819D01*
X14200Y-23790D01*
X14151Y-23740D01*
X14121Y-23770D01*
X13994Y-23770D01*
X13994Y-23700D01*
X14121Y-23700D01*
X14151Y-23729D01*
X14200Y-23680D01*
X14171Y-23650D01*
X14171Y-23226D01*
X14081Y-23172D01*
X13994Y-23211D01*
X13994Y-16005D01*
X14002Y-16008D01*
X14080Y-16009D01*
X14430Y-16009D01*
X14466Y-15993D01*
X14502Y-16008D01*
X14580Y-16009D01*
X14862Y-16009D01*
X14892Y-16038D01*
X14989Y-16079D01*
X15115Y-16078D01*
X15181Y-16012D01*
X15181Y-15623D01*
X15174Y-15623D01*
X15174Y-15553D01*
X15181Y-15553D01*
X15181Y-15165D01*
X15115Y-15098D01*
X14989Y-15098D01*
X14892Y-15139D01*
X14862Y-15168D01*
X14853Y-15168D01*
X14503Y-15168D01*
X14466Y-15183D01*
X14430Y-15169D01*
X14353Y-15168D01*
X14003Y-15168D01*
X13994Y-15172D01*
X13994Y-13958D01*
X13996Y-13963D01*
X14151Y-14111D01*
X14325Y-14183D01*
X14411Y-14129D01*
X14411Y-13681D01*
X13994Y-13681D01*
X13994Y-13611D01*
X14411Y-13611D01*
X14411Y-13163D01*
X14325Y-13109D01*
X14129Y-13196D01*
X13994Y-13338D01*
X13994Y-6714D01*
X14042Y-6474D01*
X14164Y-6291D01*
X14350Y-6167D01*
X14586Y-6120D01*
X23865Y-6120D01*
X23755Y-6229D01*
X23672Y-6430D01*
X23671Y-6646D01*
X23754Y-6847D01*
X23907Y-7000D01*
X24108Y-7083D01*
X24324Y-7084D01*
X24525Y-7001D01*
X24542Y-6983D01*
X25816Y-6983D01*
X25823Y-6982D01*
X25830Y-6983D01*
X25908Y-6965D01*
X25987Y-6950D01*
X25992Y-6946D01*
X25999Y-6944D01*
X26064Y-6898D01*
X26131Y-6853D01*
X26135Y-6848D01*
X26140Y-6844D01*
X26308Y-6665D01*
X27730Y-6665D01*
X27693Y-6756D01*
X27693Y-6943D01*
X27764Y-7116D01*
X27896Y-7248D01*
X28069Y-7320D01*
X28256Y-7320D01*
X28429Y-7248D01*
X28561Y-7116D01*
X28633Y-6944D01*
X28633Y-6757D01*
X28595Y-6665D01*
X30196Y-6665D01*
X30310Y-6780D01*
X30286Y-6804D01*
X30211Y-6986D01*
X30211Y-7162D01*
X27926Y-9447D01*
X27926Y-7464D01*
X27854Y-7291D01*
X27722Y-7159D01*
X27549Y-7087D01*
X27362Y-7087D01*
X27190Y-7158D01*
X27057Y-7290D01*
X26986Y-7463D01*
X26985Y-7650D01*
X27057Y-7823D01*
X27189Y-7955D01*
X27362Y-8027D01*
X27549Y-8027D01*
X27721Y-7955D01*
X27854Y-7823D01*
X27925Y-7651D01*
X27926Y-7464D01*
X27926Y-9447D01*
X27655Y-9718D01*
X27623Y-9718D01*
X27496Y-9771D01*
X27411Y-9855D01*
X27411Y-9370D01*
X27359Y-9243D01*
X27262Y-9146D01*
X27218Y-9128D01*
X27218Y-8171D01*
X27147Y-7998D01*
X27015Y-7866D01*
X26842Y-7794D01*
X26655Y-7794D01*
X26483Y-7865D01*
X26350Y-7997D01*
X26278Y-8170D01*
X26278Y-8357D01*
X26350Y-8530D01*
X26482Y-8662D01*
X26655Y-8734D01*
X26841Y-8734D01*
X27014Y-8663D01*
X27147Y-8530D01*
X27218Y-8358D01*
X27218Y-8171D01*
X27218Y-9128D01*
X27135Y-9094D01*
X26998Y-9093D01*
X26871Y-9146D01*
X26774Y-9243D01*
X26721Y-9370D01*
X26721Y-9402D01*
X26511Y-9612D01*
X26511Y-8878D01*
X26440Y-8705D01*
X26308Y-8573D01*
X26135Y-8501D01*
X25948Y-8501D01*
X25775Y-8572D01*
X25643Y-8704D01*
X25571Y-8877D01*
X25571Y-9064D01*
X25643Y-9237D01*
X25775Y-9369D01*
X25947Y-9441D01*
X26134Y-9441D01*
X26307Y-9370D01*
X26440Y-9238D01*
X26511Y-9065D01*
X26511Y-8878D01*
X26511Y-9612D01*
X22269Y-13854D01*
X22269Y-13121D01*
X22197Y-12948D01*
X22065Y-12815D01*
X21893Y-12744D01*
X21706Y-12744D01*
X21533Y-12815D01*
X21400Y-12947D01*
X21329Y-13120D01*
X21329Y-13307D01*
X21393Y-13462D01*
X21386Y-13456D01*
X21212Y-13383D01*
X21127Y-13438D01*
X21127Y-13836D01*
X21097Y-13866D01*
X21147Y-13915D01*
X21176Y-13886D01*
X21575Y-13886D01*
X21629Y-13800D01*
X21548Y-13619D01*
X21705Y-13684D01*
X21892Y-13684D01*
X22065Y-13612D01*
X22197Y-13480D01*
X22269Y-13308D01*
X22269Y-13121D01*
X22269Y-13854D01*
X21629Y-14494D01*
X21629Y-14041D01*
X21575Y-13956D01*
X21127Y-13956D01*
X21127Y-14404D01*
X21212Y-14458D01*
X21408Y-14371D01*
X21557Y-14215D01*
X21629Y-14041D01*
X21629Y-14494D01*
X21086Y-15037D01*
X21086Y-13976D01*
X21036Y-13926D01*
X21007Y-13956D01*
X20886Y-13956D01*
X20886Y-13886D01*
X21007Y-13886D01*
X21036Y-13915D01*
X21086Y-13866D01*
X21057Y-13836D01*
X21057Y-13438D01*
X20971Y-13383D01*
X20966Y-13386D01*
X20912Y-13332D01*
X20593Y-13014D01*
X20560Y-13000D01*
X20568Y-12980D01*
X20569Y-12783D01*
X20493Y-12601D01*
X20354Y-12462D01*
X20172Y-12386D01*
X19976Y-12386D01*
X19794Y-12461D01*
X19654Y-12601D01*
X19579Y-12782D01*
X19578Y-12979D01*
X19620Y-13079D01*
X19491Y-13026D01*
X19401Y-13080D01*
X19401Y-13504D01*
X19372Y-13533D01*
X19421Y-13583D01*
X19451Y-13553D01*
X19783Y-13553D01*
X19805Y-13576D01*
X19711Y-13576D01*
X19663Y-13623D01*
X19451Y-13623D01*
X19421Y-13594D01*
X19372Y-13644D01*
X19401Y-13673D01*
X19401Y-13964D01*
X19380Y-13964D01*
X19331Y-13984D01*
X19331Y-13673D01*
X19361Y-13644D01*
X19331Y-13614D01*
X19331Y-13553D01*
X19331Y-13080D01*
X19242Y-13026D01*
X19036Y-13116D01*
X18881Y-13279D01*
X18804Y-13464D01*
X18858Y-13553D01*
X19331Y-13553D01*
X19331Y-13614D01*
X19311Y-13594D01*
X19282Y-13623D01*
X18858Y-13623D01*
X18804Y-13713D01*
X18861Y-13843D01*
X18758Y-13801D01*
X18561Y-13800D01*
X18379Y-13876D01*
X18240Y-14015D01*
X18164Y-14197D01*
X18164Y-14394D01*
X18239Y-14576D01*
X18379Y-14715D01*
X18560Y-14790D01*
X18587Y-14791D01*
X18637Y-14840D01*
X18637Y-14869D01*
X18666Y-14940D01*
X18721Y-14995D01*
X19039Y-15313D01*
X19111Y-15343D01*
X19140Y-15343D01*
X19207Y-15410D01*
X19207Y-15428D01*
X19279Y-15601D01*
X19411Y-15733D01*
X19583Y-15805D01*
X19770Y-15805D01*
X19943Y-15734D01*
X20076Y-15602D01*
X20147Y-15429D01*
X20147Y-15242D01*
X20076Y-15069D01*
X19944Y-14937D01*
X19778Y-14868D01*
X19778Y-14801D01*
X19504Y-14526D01*
X19498Y-14531D01*
X19448Y-14482D01*
X19454Y-14476D01*
X19179Y-14201D01*
X19154Y-14201D01*
X19154Y-14198D01*
X19113Y-14098D01*
X19229Y-14145D01*
X19229Y-14152D01*
X19504Y-14427D01*
X19708Y-14223D01*
X19708Y-14129D01*
X19657Y-14079D01*
X19657Y-14078D01*
X19697Y-14060D01*
X19741Y-14014D01*
X19782Y-14055D01*
X19876Y-14055D01*
X20080Y-13851D01*
X20074Y-13845D01*
X20124Y-13796D01*
X20129Y-13801D01*
X20135Y-13796D01*
X20184Y-13845D01*
X20179Y-13851D01*
X20184Y-13856D01*
X20135Y-13906D01*
X20129Y-13900D01*
X19925Y-14104D01*
X19925Y-14198D01*
X19975Y-14248D01*
X20037Y-14310D01*
X19986Y-14361D01*
X19973Y-14394D01*
X19901Y-14323D01*
X19851Y-14272D01*
X19757Y-14272D01*
X19553Y-14476D01*
X19828Y-14751D01*
X19922Y-14751D01*
X19925Y-14748D01*
X19986Y-14894D01*
X20118Y-15026D01*
X20291Y-15098D01*
X20478Y-15098D01*
X20650Y-15026D01*
X20783Y-14894D01*
X20854Y-14722D01*
X20855Y-14535D01*
X20848Y-14519D01*
X20866Y-14492D01*
X20866Y-14492D01*
X20880Y-14420D01*
X20971Y-14458D01*
X21057Y-14404D01*
X21057Y-14005D01*
X21086Y-13976D01*
X21086Y-15037D01*
X21057Y-15067D01*
X20147Y-15976D01*
X19440Y-16683D01*
X19440Y-15949D01*
X19369Y-15776D01*
X19237Y-15644D01*
X19064Y-15572D01*
X18877Y-15572D01*
X18704Y-15643D01*
X18572Y-15775D01*
X18500Y-15948D01*
X18500Y-16135D01*
X18572Y-16308D01*
X18704Y-16440D01*
X18876Y-16512D01*
X19063Y-16512D01*
X19236Y-16441D01*
X19368Y-16309D01*
X19440Y-16136D01*
X19440Y-15949D01*
X19440Y-16683D01*
X17199Y-18924D01*
X17199Y-18808D01*
X17147Y-18681D01*
X17053Y-18587D01*
X17115Y-18562D01*
X17247Y-18430D01*
X17319Y-18257D01*
X17319Y-18070D01*
X17248Y-17897D01*
X17115Y-17765D01*
X16943Y-17693D01*
X16830Y-17693D01*
X16830Y-15051D01*
X17286Y-14595D01*
X17286Y-17062D01*
X17158Y-17190D01*
X17086Y-17362D01*
X17086Y-17549D01*
X17157Y-17722D01*
X17289Y-17854D01*
X17462Y-17926D01*
X17649Y-17926D01*
X17822Y-17855D01*
X17954Y-17723D01*
X18026Y-17550D01*
X18026Y-17363D01*
X17955Y-17190D01*
X17826Y-17061D01*
X17826Y-16922D01*
X17864Y-17015D01*
X17997Y-17147D01*
X18169Y-17219D01*
X18356Y-17219D01*
X18529Y-17148D01*
X18661Y-17016D01*
X18733Y-16843D01*
X18733Y-16656D01*
X18662Y-16483D01*
X18530Y-16351D01*
X18357Y-16279D01*
X18170Y-16279D01*
X17997Y-16350D01*
X17865Y-16483D01*
X17826Y-16576D01*
X17826Y-14215D01*
X18064Y-13976D01*
X18123Y-13889D01*
X18123Y-13889D01*
X18144Y-13785D01*
X18144Y-13147D01*
X18196Y-13126D01*
X18356Y-12965D01*
X18443Y-12756D01*
X18444Y-12529D01*
X18428Y-12490D01*
X18465Y-12506D01*
X18692Y-12506D01*
X18902Y-12420D01*
X19062Y-12260D01*
X19084Y-12206D01*
X22119Y-12206D01*
X22147Y-12201D01*
X22108Y-12240D01*
X22036Y-12413D01*
X22036Y-12600D01*
X22107Y-12772D01*
X22239Y-12905D01*
X22412Y-12976D01*
X22599Y-12977D01*
X22772Y-12905D01*
X22904Y-12773D01*
X22976Y-12600D01*
X22976Y-12413D01*
X22904Y-12241D01*
X22772Y-12108D01*
X22600Y-12037D01*
X22413Y-12036D01*
X22392Y-12045D01*
X22751Y-11685D01*
X22743Y-11705D01*
X22743Y-11892D01*
X22814Y-12065D01*
X22946Y-12198D01*
X23119Y-12269D01*
X23306Y-12269D01*
X23479Y-12198D01*
X23611Y-12066D01*
X23683Y-11893D01*
X23683Y-11706D01*
X23612Y-11534D01*
X23479Y-11401D01*
X23307Y-11329D01*
X23120Y-11329D01*
X23099Y-11338D01*
X23458Y-10978D01*
X23450Y-10998D01*
X23450Y-11185D01*
X23521Y-11358D01*
X23653Y-11490D01*
X23826Y-11562D01*
X24013Y-11562D01*
X24186Y-11491D01*
X24318Y-11359D01*
X24390Y-11186D01*
X24390Y-10999D01*
X24319Y-10826D01*
X24187Y-10694D01*
X24014Y-10622D01*
X23827Y-10622D01*
X23806Y-10631D01*
X24165Y-10271D01*
X24157Y-10291D01*
X24157Y-10478D01*
X24228Y-10651D01*
X24361Y-10783D01*
X24533Y-10855D01*
X24720Y-10855D01*
X24893Y-10784D01*
X25025Y-10652D01*
X25097Y-10479D01*
X25097Y-10292D01*
X25026Y-10119D01*
X24894Y-9987D01*
X24800Y-9948D01*
X24940Y-9948D01*
X25068Y-10076D01*
X25240Y-10148D01*
X25427Y-10148D01*
X25600Y-10077D01*
X25732Y-9945D01*
X25804Y-9772D01*
X25804Y-9585D01*
X25733Y-9412D01*
X25601Y-9280D01*
X25428Y-9208D01*
X25241Y-9208D01*
X25068Y-9279D01*
X24939Y-9408D01*
X24909Y-9408D01*
X24942Y-9375D01*
X24994Y-9248D01*
X24995Y-9111D01*
X24942Y-8984D01*
X24845Y-8887D01*
X24718Y-8835D01*
X24686Y-8835D01*
X22910Y-7059D01*
X22823Y-7000D01*
X22720Y-6980D01*
X21852Y-6980D01*
X21749Y-7000D01*
X21661Y-7059D01*
X21573Y-7147D01*
X21520Y-7125D01*
X21337Y-7125D01*
X21337Y-7124D01*
X21337Y-6851D01*
X21237Y-6618D01*
X21054Y-6440D01*
X20836Y-6350D01*
X20734Y-6403D01*
X20734Y-6953D01*
X21285Y-6953D01*
X21337Y-6851D01*
X21337Y-7124D01*
X21285Y-7023D01*
X20784Y-7023D01*
X20754Y-6993D01*
X20705Y-7043D01*
X20734Y-7072D01*
X20734Y-7573D01*
X20836Y-7626D01*
X20836Y-7626D01*
X20836Y-7808D01*
X20853Y-7849D01*
X20813Y-7832D01*
X20694Y-7832D01*
X20694Y-7043D01*
X20664Y-7013D01*
X20664Y-6953D01*
X20664Y-6403D01*
X20563Y-6350D01*
X20329Y-6451D01*
X20152Y-6633D01*
X20061Y-6851D01*
X20114Y-6953D01*
X20664Y-6953D01*
X20664Y-7013D01*
X20644Y-6993D01*
X20615Y-7023D01*
X20114Y-7023D01*
X20084Y-7080D01*
X20027Y-7110D01*
X20027Y-7610D01*
X19998Y-7640D01*
X20047Y-7689D01*
X20077Y-7660D01*
X20577Y-7660D01*
X20607Y-7603D01*
X20664Y-7573D01*
X20664Y-7072D01*
X20694Y-7043D01*
X20694Y-7832D01*
X20664Y-7832D01*
X20630Y-7832D01*
X20630Y-7831D01*
X20577Y-7730D01*
X20077Y-7730D01*
X20047Y-7700D01*
X19998Y-7750D01*
X20027Y-7779D01*
X20027Y-8280D01*
X20129Y-8333D01*
X20129Y-8333D01*
X20129Y-8515D01*
X20146Y-8556D01*
X20106Y-8539D01*
X19987Y-8539D01*
X19987Y-7750D01*
X19957Y-7721D01*
X19957Y-7660D01*
X19957Y-7110D01*
X19856Y-7057D01*
X19622Y-7158D01*
X19444Y-7340D01*
X19354Y-7558D01*
X19407Y-7660D01*
X19957Y-7660D01*
X19957Y-7721D01*
X19937Y-7700D01*
X19908Y-7730D01*
X19407Y-7730D01*
X19377Y-7787D01*
X19320Y-7817D01*
X19320Y-8318D01*
X19291Y-8347D01*
X19340Y-8396D01*
X19370Y-8367D01*
X19870Y-8367D01*
X19900Y-8310D01*
X19957Y-8280D01*
X19957Y-7779D01*
X19987Y-7750D01*
X19987Y-8539D01*
X19957Y-8539D01*
X19923Y-8539D01*
X19923Y-8539D01*
X19870Y-8437D01*
X19370Y-8437D01*
X19340Y-8408D01*
X19291Y-8457D01*
X19320Y-8487D01*
X19320Y-8987D01*
X19422Y-9040D01*
X19422Y-9040D01*
X19422Y-9222D01*
X19438Y-9261D01*
X19400Y-9245D01*
X19280Y-9245D01*
X19280Y-8457D01*
X19250Y-8428D01*
X19250Y-8367D01*
X19250Y-7817D01*
X19149Y-7764D01*
X18915Y-7865D01*
X18737Y-8047D01*
X18647Y-8266D01*
X18700Y-8367D01*
X19250Y-8367D01*
X19250Y-8428D01*
X19230Y-8408D01*
X19201Y-8437D01*
X18700Y-8437D01*
X18671Y-8493D01*
X18614Y-8523D01*
X18614Y-9023D01*
X18585Y-9053D01*
X18634Y-9102D01*
X18664Y-9073D01*
X19165Y-9073D01*
X19194Y-9017D01*
X19250Y-8987D01*
X19250Y-8487D01*
X19280Y-8457D01*
X19280Y-9245D01*
X19250Y-9245D01*
X19217Y-9245D01*
X19217Y-9244D01*
X19165Y-9143D01*
X18664Y-9143D01*
X18634Y-9113D01*
X18585Y-9163D01*
X18614Y-9192D01*
X18614Y-9693D01*
X18716Y-9746D01*
X18716Y-9746D01*
X18716Y-9928D01*
X18733Y-9969D01*
X18693Y-9952D01*
X18574Y-9952D01*
X18574Y-9163D01*
X18544Y-9133D01*
X18544Y-9073D01*
X18544Y-8523D01*
X18443Y-8470D01*
X18209Y-8571D01*
X18032Y-8753D01*
X17941Y-8971D01*
X17994Y-9073D01*
X18544Y-9073D01*
X18544Y-9133D01*
X18524Y-9113D01*
X18495Y-9143D01*
X17994Y-9143D01*
X17964Y-9200D01*
X17907Y-9230D01*
X17907Y-9730D01*
X17878Y-9760D01*
X17927Y-9809D01*
X17957Y-9780D01*
X18457Y-9780D01*
X18487Y-9723D01*
X18544Y-9693D01*
X18544Y-9192D01*
X18574Y-9163D01*
X18574Y-9952D01*
X18544Y-9952D01*
X18510Y-9952D01*
X18510Y-9951D01*
X18457Y-9850D01*
X17957Y-9850D01*
X17927Y-9820D01*
X17878Y-9870D01*
X17907Y-9899D01*
X17907Y-10400D01*
X18009Y-10453D01*
X18009Y-10453D01*
X18009Y-10635D01*
X18026Y-10676D01*
X17986Y-10659D01*
X17867Y-10659D01*
X17867Y-9870D01*
X17837Y-9841D01*
X17837Y-9780D01*
X17837Y-9230D01*
X17736Y-9177D01*
X17502Y-9278D01*
X17324Y-9460D01*
X17234Y-9678D01*
X17287Y-9780D01*
X17837Y-9780D01*
X17837Y-9841D01*
X17817Y-9820D01*
X17788Y-9850D01*
X17287Y-9850D01*
X17257Y-9907D01*
X17200Y-9937D01*
X17200Y-10438D01*
X17171Y-10467D01*
X17220Y-10516D01*
X17250Y-10487D01*
X17750Y-10487D01*
X17780Y-10430D01*
X17837Y-10400D01*
X17837Y-9899D01*
X17867Y-9870D01*
X17867Y-10659D01*
X17837Y-10659D01*
X17803Y-10659D01*
X17803Y-10659D01*
X17750Y-10557D01*
X17250Y-10557D01*
X17220Y-10528D01*
X17171Y-10577D01*
X17200Y-10607D01*
X17200Y-11107D01*
X17302Y-11160D01*
X17302Y-11160D01*
X17302Y-11342D01*
X17318Y-11381D01*
X17280Y-11365D01*
X17160Y-11365D01*
X17160Y-10577D01*
X17130Y-10548D01*
X17130Y-10487D01*
X17130Y-9937D01*
X17029Y-9884D01*
X16795Y-9985D01*
X16617Y-10167D01*
X16527Y-10386D01*
X16580Y-10487D01*
X17130Y-10487D01*
X17130Y-10548D01*
X17110Y-10528D01*
X17081Y-10557D01*
X16580Y-10557D01*
X16551Y-10613D01*
X16494Y-10643D01*
X16494Y-11143D01*
X16465Y-11173D01*
X16514Y-11222D01*
X16544Y-11193D01*
X17045Y-11193D01*
X17074Y-11137D01*
X17130Y-11107D01*
X17130Y-10607D01*
X17160Y-10577D01*
X17160Y-11365D01*
X17130Y-11365D01*
X17097Y-11365D01*
X17097Y-11364D01*
X17045Y-11263D01*
X16544Y-11263D01*
X16514Y-11233D01*
X16465Y-11283D01*
X16494Y-11312D01*
X16494Y-11813D01*
X16596Y-11866D01*
X16596Y-11866D01*
X16596Y-12048D01*
X16613Y-12089D01*
X16573Y-12072D01*
X16454Y-12072D01*
X16454Y-11283D01*
X16424Y-11253D01*
X16424Y-11193D01*
X16424Y-10643D01*
X16323Y-10590D01*
X16089Y-10691D01*
X15912Y-10873D01*
X15821Y-11091D01*
X15874Y-11193D01*
X16424Y-11193D01*
X16424Y-11253D01*
X16404Y-11233D01*
X16375Y-11263D01*
X15874Y-11263D01*
X15844Y-11320D01*
X15787Y-11350D01*
X15787Y-11850D01*
X15758Y-11880D01*
X15807Y-11929D01*
X15837Y-11900D01*
X16337Y-11900D01*
X16367Y-11843D01*
X16424Y-11813D01*
X16424Y-11312D01*
X16454Y-11283D01*
X16454Y-12072D01*
X16424Y-12072D01*
X16390Y-12072D01*
X16390Y-12071D01*
X16337Y-11970D01*
X15837Y-11970D01*
X15807Y-11940D01*
X15758Y-11990D01*
X15787Y-12019D01*
X15787Y-12520D01*
X15889Y-12573D01*
X15889Y-12573D01*
X15889Y-12755D01*
X15906Y-12796D01*
X15866Y-12779D01*
X15747Y-12779D01*
X15747Y-11990D01*
X15717Y-11961D01*
X15717Y-11900D01*
X15717Y-11350D01*
X15616Y-11297D01*
X15382Y-11398D01*
X15204Y-11580D01*
X15114Y-11798D01*
X15167Y-11900D01*
X15717Y-11900D01*
X15717Y-11961D01*
X15697Y-11940D01*
X15668Y-11970D01*
X15167Y-11970D01*
X15137Y-12027D01*
X15080Y-12057D01*
X15080Y-12558D01*
X15051Y-12587D01*
X15100Y-12636D01*
X15130Y-12607D01*
X15630Y-12607D01*
X15660Y-12550D01*
X15717Y-12520D01*
X15717Y-12019D01*
X15747Y-11990D01*
X15747Y-12779D01*
X15717Y-12779D01*
X15683Y-12779D01*
X15683Y-12779D01*
X15630Y-12677D01*
X15130Y-12677D01*
X15100Y-12648D01*
X15051Y-12697D01*
X15080Y-12727D01*
X15080Y-13227D01*
X15182Y-13280D01*
X15182Y-13280D01*
X15182Y-13462D01*
X15269Y-13672D01*
X15429Y-13832D01*
X15638Y-13919D01*
X15865Y-13919D01*
X15906Y-13902D01*
X15889Y-13942D01*
X15889Y-14169D01*
X15950Y-14315D01*
X15950Y-15176D01*
X15930Y-15169D01*
X15853Y-15168D01*
X15737Y-15168D01*
X15737Y-14314D01*
X15707Y-14243D01*
X15653Y-14188D01*
X15264Y-13799D01*
X15192Y-13769D01*
X15114Y-13769D01*
X15043Y-13799D01*
X15010Y-13831D01*
X15010Y-13227D01*
X15010Y-12677D01*
X15010Y-12607D01*
X15010Y-12057D01*
X14909Y-12004D01*
X14675Y-12105D01*
X14497Y-12287D01*
X14407Y-12506D01*
X14460Y-12607D01*
X15010Y-12607D01*
X15010Y-12677D01*
X14460Y-12677D01*
X14407Y-12779D01*
X14508Y-13012D01*
X14637Y-13138D01*
X14566Y-13109D01*
X14481Y-13163D01*
X14481Y-13611D01*
X14929Y-13611D01*
X14983Y-13525D01*
X14896Y-13329D01*
X14796Y-13233D01*
X14909Y-13280D01*
X15010Y-13227D01*
X15010Y-13831D01*
X14988Y-13854D01*
X14918Y-13923D01*
X14983Y-13766D01*
X14929Y-13681D01*
X14530Y-13681D01*
X14501Y-13652D01*
X14452Y-13701D01*
X14481Y-13730D01*
X14481Y-14129D01*
X14566Y-14183D01*
X14731Y-14110D01*
X14599Y-14242D01*
X14569Y-14314D01*
X14569Y-14392D01*
X14599Y-14463D01*
X14654Y-14518D01*
X15042Y-14907D01*
X15114Y-14937D01*
X15192Y-14937D01*
X15263Y-14907D01*
X15318Y-14853D01*
X15707Y-14464D01*
X15737Y-14392D01*
X15737Y-14314D01*
X15737Y-15168D01*
X15571Y-15168D01*
X15541Y-15139D01*
X15444Y-15098D01*
X15318Y-15098D01*
X15251Y-15165D01*
X15251Y-15553D01*
X15259Y-15553D01*
X15259Y-15623D01*
X15251Y-15623D01*
X15251Y-16012D01*
X15318Y-16078D01*
X15444Y-16079D01*
X15541Y-16038D01*
X15571Y-16009D01*
X15580Y-16009D01*
X15930Y-16009D01*
X15950Y-16000D01*
X15950Y-18242D01*
X15970Y-18345D01*
X16016Y-18414D01*
X15876Y-18472D01*
X15744Y-18604D01*
X15672Y-18777D01*
X15672Y-18964D01*
X15743Y-19136D01*
X15875Y-19269D01*
X16048Y-19340D01*
X16235Y-19341D01*
X16408Y-19269D01*
X16540Y-19137D01*
X16566Y-19075D01*
X16658Y-19168D01*
X16785Y-19221D01*
X16902Y-19221D01*
X15905Y-20218D01*
X15905Y-19484D01*
X15833Y-19312D01*
X15701Y-19179D01*
X15529Y-19108D01*
X15342Y-19107D01*
X15169Y-19179D01*
X15036Y-19311D01*
X14965Y-19484D01*
X14965Y-19671D01*
X15036Y-19843D01*
X15168Y-19976D01*
X15341Y-20047D01*
X15528Y-20048D01*
X15701Y-19976D01*
X15833Y-19844D01*
X15905Y-19671D01*
X15905Y-19484D01*
X15905Y-20218D01*
X15198Y-20925D01*
X15198Y-20192D01*
X15126Y-20019D01*
X14994Y-19886D01*
X14821Y-19815D01*
X14635Y-19815D01*
X14462Y-19886D01*
X14329Y-20018D01*
X14258Y-20191D01*
X14258Y-20378D01*
X14329Y-20551D01*
X14461Y-20683D01*
X14634Y-20755D01*
X14821Y-20755D01*
X14993Y-20683D01*
X15126Y-20551D01*
X15198Y-20379D01*
X15198Y-20192D01*
X15198Y-20925D01*
X14880Y-21243D01*
X14848Y-21243D01*
X14721Y-21296D01*
X14624Y-21393D01*
X14571Y-21520D01*
X14571Y-21657D01*
X14624Y-21784D01*
X14721Y-21881D01*
X14848Y-21933D01*
X14985Y-21934D01*
X15112Y-21881D01*
X15209Y-21784D01*
X15261Y-21657D01*
X15261Y-21625D01*
X27103Y-9784D01*
X27135Y-9784D01*
X27262Y-9731D01*
X27359Y-9634D01*
X27411Y-9507D01*
X27411Y-9370D01*
X27411Y-9855D01*
X27399Y-9868D01*
X27346Y-9995D01*
X27346Y-10132D01*
X27399Y-10259D01*
X27496Y-10356D01*
X27623Y-10408D01*
X27760Y-10409D01*
X27887Y-10356D01*
X27984Y-10259D01*
X28036Y-10132D01*
X28036Y-10100D01*
X30572Y-7565D01*
X30607Y-7580D01*
X30804Y-7580D01*
X30986Y-7505D01*
X31010Y-7480D01*
X31017Y-7487D01*
X31017Y-7487D01*
G37*
G54D23*
X31017Y-7487D02*
X30993Y-7511D01*
X30918Y-7693D01*
X30918Y-7890D01*
X30922Y-7901D01*
X28976Y-9848D01*
X28917Y-9935D01*
X28896Y-10038D01*
X28896Y-11277D01*
X27090Y-13083D01*
X27084Y-13068D01*
X26987Y-12971D01*
X26860Y-12919D01*
X26723Y-12918D01*
X26596Y-12971D01*
X26499Y-13068D01*
X26446Y-13195D01*
X26446Y-13227D01*
X25916Y-13758D01*
X25422Y-14251D01*
X25409Y-14218D01*
X25312Y-14121D01*
X25297Y-14115D01*
X27028Y-12384D01*
X27035Y-12384D01*
X27162Y-12331D01*
X27259Y-12234D01*
X27311Y-12107D01*
X27311Y-11970D01*
X27259Y-11843D01*
X27162Y-11746D01*
X27035Y-11694D01*
X26898Y-11693D01*
X26771Y-11746D01*
X26750Y-11767D01*
X26703Y-11658D01*
X26540Y-11503D01*
X26355Y-11426D01*
X26266Y-11480D01*
X26266Y-11954D01*
X26628Y-11954D01*
X26621Y-11970D01*
X26621Y-12024D01*
X26315Y-12024D01*
X26286Y-11994D01*
X26236Y-12044D01*
X26266Y-12073D01*
X26266Y-12382D01*
X26196Y-12452D01*
X26196Y-12073D01*
X26225Y-12044D01*
X26196Y-12014D01*
X26196Y-11954D01*
X26196Y-11480D01*
X26106Y-11426D01*
X25900Y-11517D01*
X25745Y-11679D01*
X25668Y-11864D01*
X25722Y-11954D01*
X26196Y-11954D01*
X26196Y-12014D01*
X26176Y-11994D01*
X26146Y-12024D01*
X25722Y-12024D01*
X25668Y-12113D01*
X25726Y-12244D01*
X25622Y-12201D01*
X25426Y-12201D01*
X25244Y-12276D01*
X25104Y-12415D01*
X25029Y-12597D01*
X25028Y-12794D01*
X25104Y-12976D01*
X25243Y-13115D01*
X25425Y-13191D01*
X25457Y-13191D01*
X25311Y-13337D01*
X25312Y-13305D01*
X25236Y-13123D01*
X25097Y-12984D01*
X24915Y-12908D01*
X24718Y-12908D01*
X24536Y-12983D01*
X24397Y-13122D01*
X24322Y-13304D01*
X24321Y-13501D01*
X24397Y-13683D01*
X24536Y-13822D01*
X24718Y-13898D01*
X24750Y-13898D01*
X24604Y-14044D01*
X24604Y-14012D01*
X24529Y-13830D01*
X24390Y-13691D01*
X24208Y-13615D01*
X24011Y-13615D01*
X23829Y-13690D01*
X23690Y-13829D01*
X23614Y-14011D01*
X23614Y-14208D01*
X23689Y-14390D01*
X23829Y-14529D01*
X24010Y-14605D01*
X24043Y-14605D01*
X23897Y-14751D01*
X23897Y-14719D01*
X23822Y-14537D01*
X23683Y-14398D01*
X23501Y-14322D01*
X23304Y-14322D01*
X23122Y-14397D01*
X22983Y-14536D01*
X22907Y-14718D01*
X22907Y-14915D01*
X22982Y-15097D01*
X23121Y-15237D01*
X23303Y-15312D01*
X23336Y-15312D01*
X23190Y-15458D01*
X23190Y-15426D01*
X23115Y-15244D01*
X22976Y-15105D01*
X22794Y-15029D01*
X22597Y-15029D01*
X22415Y-15104D01*
X22276Y-15244D01*
X22200Y-15425D01*
X22200Y-15622D01*
X22275Y-15804D01*
X22414Y-15944D01*
X22596Y-16019D01*
X22629Y-16019D01*
X22483Y-16165D01*
X22483Y-16133D01*
X22408Y-15951D01*
X22269Y-15812D01*
X22087Y-15736D01*
X21890Y-15736D01*
X21708Y-15811D01*
X21569Y-15951D01*
X21493Y-16132D01*
X21493Y-16329D01*
X21568Y-16511D01*
X21707Y-16651D01*
X21889Y-16726D01*
X21922Y-16726D01*
X21776Y-16872D01*
X21776Y-16840D01*
X21701Y-16658D01*
X21562Y-16519D01*
X21380Y-16444D01*
X21183Y-16443D01*
X21001Y-16519D01*
X20861Y-16658D01*
X20786Y-16840D01*
X20786Y-17037D01*
X20861Y-17219D01*
X21000Y-17358D01*
X21182Y-17433D01*
X21215Y-17433D01*
X21069Y-17579D01*
X21069Y-17548D01*
X20994Y-17366D01*
X20855Y-17226D01*
X20673Y-17151D01*
X20476Y-17150D01*
X20294Y-17226D01*
X20154Y-17365D01*
X20079Y-17547D01*
X20079Y-17744D01*
X20154Y-17926D01*
X20293Y-18065D01*
X20475Y-18140D01*
X20508Y-18141D01*
X20362Y-18286D01*
X20362Y-18255D01*
X20287Y-18073D01*
X20147Y-17933D01*
X19966Y-17858D01*
X19769Y-17858D01*
X19587Y-17933D01*
X19447Y-18072D01*
X19372Y-18254D01*
X19372Y-18451D01*
X19376Y-18461D01*
X18655Y-19183D01*
X18564Y-19092D01*
X18492Y-19062D01*
X18414Y-19062D01*
X18343Y-19092D01*
X18288Y-19146D01*
X17899Y-19535D01*
X17869Y-19607D01*
X17869Y-19685D01*
X17899Y-19756D01*
X17954Y-19811D01*
X18023Y-19881D01*
X17866Y-19816D01*
X17781Y-19870D01*
X17781Y-20269D01*
X17752Y-20298D01*
X17801Y-20347D01*
X17830Y-20318D01*
X18229Y-20318D01*
X18283Y-20233D01*
X18210Y-20068D01*
X18342Y-20200D01*
X18414Y-20230D01*
X18418Y-20230D01*
X18241Y-20407D01*
X18229Y-20388D01*
X17830Y-20388D01*
X17801Y-20359D01*
X17752Y-20408D01*
X17781Y-20438D01*
X17781Y-20836D01*
X17800Y-20848D01*
X17711Y-20937D01*
X17711Y-20836D01*
X17711Y-20388D01*
X17711Y-20318D01*
X17711Y-19870D01*
X17625Y-19816D01*
X17429Y-19903D01*
X17281Y-20058D01*
X17209Y-20233D01*
X17263Y-20318D01*
X17711Y-20318D01*
X17711Y-20388D01*
X17263Y-20388D01*
X17209Y-20474D01*
X17296Y-20670D01*
X17451Y-20818D01*
X17625Y-20890D01*
X17711Y-20836D01*
X17711Y-20937D01*
X15912Y-22736D01*
X15634Y-22736D01*
X15531Y-22757D01*
X15444Y-22816D01*
X15385Y-22874D01*
X15333Y-22748D01*
X15194Y-22608D01*
X15012Y-22533D01*
X14815Y-22533D01*
X14633Y-22608D01*
X14493Y-22747D01*
X14418Y-22929D01*
X14418Y-23126D01*
X14459Y-23226D01*
X14330Y-23172D01*
X14241Y-23226D01*
X14241Y-23650D01*
X14211Y-23680D01*
X14261Y-23729D01*
X14290Y-23700D01*
X14546Y-23700D01*
X14546Y-23727D01*
X14503Y-23770D01*
X14290Y-23770D01*
X14261Y-23740D01*
X14211Y-23790D01*
X14241Y-23819D01*
X14241Y-24032D01*
X14171Y-24102D01*
X14171Y-23819D01*
X14200Y-23790D01*
X14151Y-23740D01*
X14121Y-23770D01*
X13994Y-23770D01*
X13994Y-23700D01*
X14121Y-23700D01*
X14151Y-23729D01*
X14200Y-23680D01*
X14171Y-23650D01*
X14171Y-23226D01*
X14081Y-23172D01*
X13994Y-23211D01*
X13994Y-16005D01*
X14002Y-16008D01*
X14080Y-16009D01*
X14430Y-16009D01*
X14466Y-15993D01*
X14502Y-16008D01*
X14580Y-16009D01*
X14862Y-16009D01*
X14892Y-16038D01*
X14989Y-16079D01*
X15115Y-16078D01*
X15181Y-16012D01*
X15181Y-15623D01*
X15174Y-15623D01*
X15174Y-15553D01*
X15181Y-15553D01*
X15181Y-15165D01*
X15115Y-15098D01*
X14989Y-15098D01*
X14892Y-15139D01*
X14862Y-15168D01*
X14853Y-15168D01*
X14503Y-15168D01*
X14466Y-15183D01*
X14430Y-15169D01*
X14353Y-15168D01*
X14003Y-15168D01*
X13994Y-15172D01*
X13994Y-13958D01*
X13996Y-13963D01*
X14151Y-14111D01*
X14325Y-14183D01*
X14411Y-14129D01*
X14411Y-13681D01*
X13994Y-13681D01*
X13994Y-13611D01*
X14411Y-13611D01*
X14411Y-13163D01*
X14325Y-13109D01*
X14129Y-13196D01*
X13994Y-13338D01*
X13994Y-6714D01*
X14042Y-6474D01*
X14164Y-6291D01*
X14350Y-6167D01*
X14586Y-6120D01*
X23865Y-6120D01*
X23755Y-6229D01*
X23672Y-6430D01*
X23671Y-6646D01*
X23754Y-6847D01*
X23907Y-7000D01*
X24108Y-7083D01*
X24324Y-7084D01*
X24525Y-7001D01*
X24542Y-6983D01*
X25816Y-6983D01*
X25823Y-6982D01*
X25830Y-6983D01*
X25908Y-6965D01*
X25987Y-6950D01*
X25992Y-6946D01*
X25999Y-6944D01*
X26064Y-6898D01*
X26131Y-6853D01*
X26135Y-6848D01*
X26140Y-6844D01*
X26308Y-6665D01*
X27730Y-6665D01*
X27693Y-6756D01*
X27693Y-6943D01*
X27764Y-7116D01*
X27896Y-7248D01*
X28069Y-7320D01*
X28256Y-7320D01*
X28429Y-7248D01*
X28561Y-7116D01*
X28633Y-6944D01*
X28633Y-6757D01*
X28595Y-6665D01*
X30196Y-6665D01*
X30310Y-6780D01*
X30286Y-6804D01*
X30211Y-6986D01*
X30211Y-7162D01*
X27926Y-9447D01*
X27926Y-7464D01*
X27854Y-7291D01*
X27722Y-7159D01*
X27549Y-7087D01*
X27362Y-7087D01*
X27190Y-7158D01*
X27057Y-7290D01*
X26986Y-7463D01*
X26985Y-7650D01*
X27057Y-7823D01*
X27189Y-7955D01*
X27362Y-8027D01*
X27549Y-8027D01*
X27721Y-7955D01*
X27854Y-7823D01*
X27925Y-7651D01*
X27926Y-7464D01*
X27926Y-9447D01*
X27655Y-9718D01*
X27623Y-9718D01*
X27496Y-9771D01*
X27411Y-9855D01*
X27411Y-9370D01*
X27359Y-9243D01*
X27262Y-9146D01*
X27218Y-9128D01*
X27218Y-8171D01*
X27147Y-7998D01*
X27015Y-7866D01*
X26842Y-7794D01*
X26655Y-7794D01*
X26483Y-7865D01*
X26350Y-7997D01*
X26278Y-8170D01*
X26278Y-8357D01*
X26350Y-8530D01*
X26482Y-8662D01*
X26655Y-8734D01*
X26841Y-8734D01*
X27014Y-8663D01*
X27147Y-8530D01*
X27218Y-8358D01*
X27218Y-8171D01*
X27218Y-9128D01*
X27135Y-9094D01*
X26998Y-9093D01*
X26871Y-9146D01*
X26774Y-9243D01*
X26721Y-9370D01*
X26721Y-9402D01*
X26511Y-9612D01*
X26511Y-8878D01*
X26440Y-8705D01*
X26308Y-8573D01*
X26135Y-8501D01*
X25948Y-8501D01*
X25775Y-8572D01*
X25643Y-8704D01*
X25571Y-8877D01*
X25571Y-9064D01*
X25643Y-9237D01*
X25775Y-9369D01*
X25947Y-9441D01*
X26134Y-9441D01*
X26307Y-9370D01*
X26440Y-9238D01*
X26511Y-9065D01*
X26511Y-8878D01*
X26511Y-9612D01*
X22269Y-13854D01*
X22269Y-13121D01*
X22197Y-12948D01*
X22065Y-12815D01*
X21893Y-12744D01*
X21706Y-12744D01*
X21533Y-12815D01*
X21400Y-12947D01*
X21329Y-13120D01*
X21329Y-13307D01*
X21393Y-13462D01*
X21386Y-13456D01*
X21212Y-13383D01*
X21127Y-13438D01*
X21127Y-13836D01*
X21097Y-13866D01*
X21147Y-13915D01*
X21176Y-13886D01*
X21575Y-13886D01*
X21629Y-13800D01*
X21548Y-13619D01*
X21705Y-13684D01*
X21892Y-13684D01*
X22065Y-13612D01*
X22197Y-13480D01*
X22269Y-13308D01*
X22269Y-13121D01*
X22269Y-13854D01*
X21629Y-14494D01*
X21629Y-14041D01*
X21575Y-13956D01*
X21127Y-13956D01*
X21127Y-14404D01*
X21212Y-14458D01*
X21408Y-14371D01*
X21557Y-14215D01*
X21629Y-14041D01*
X21629Y-14494D01*
X21086Y-15037D01*
X21086Y-13976D01*
X21036Y-13926D01*
X21007Y-13956D01*
X20886Y-13956D01*
X20886Y-13886D01*
X21007Y-13886D01*
X21036Y-13915D01*
X21086Y-13866D01*
X21057Y-13836D01*
X21057Y-13438D01*
X20971Y-13383D01*
X20966Y-13386D01*
X20912Y-13332D01*
X20593Y-13014D01*
X20560Y-13000D01*
X20568Y-12980D01*
X20569Y-12783D01*
X20493Y-12601D01*
X20354Y-12462D01*
X20172Y-12386D01*
X19976Y-12386D01*
X19794Y-12461D01*
X19654Y-12601D01*
X19579Y-12782D01*
X19578Y-12979D01*
X19620Y-13079D01*
X19491Y-13026D01*
X19401Y-13080D01*
X19401Y-13504D01*
X19372Y-13533D01*
X19421Y-13583D01*
X19451Y-13553D01*
X19783Y-13553D01*
X19805Y-13576D01*
X19711Y-13576D01*
X19663Y-13623D01*
X19451Y-13623D01*
X19421Y-13594D01*
X19372Y-13644D01*
X19401Y-13673D01*
X19401Y-13964D01*
X19380Y-13964D01*
X19331Y-13984D01*
X19331Y-13673D01*
X19361Y-13644D01*
X19331Y-13614D01*
X19331Y-13553D01*
X19331Y-13080D01*
X19242Y-13026D01*
X19036Y-13116D01*
X18881Y-13279D01*
X18804Y-13464D01*
X18858Y-13553D01*
X19331Y-13553D01*
X19331Y-13614D01*
X19311Y-13594D01*
X19282Y-13623D01*
X18858Y-13623D01*
X18804Y-13713D01*
X18861Y-13843D01*
X18758Y-13801D01*
X18561Y-13800D01*
X18379Y-13876D01*
X18240Y-14015D01*
X18164Y-14197D01*
X18164Y-14394D01*
X18239Y-14576D01*
X18379Y-14715D01*
X18560Y-14790D01*
X18587Y-14791D01*
X18637Y-14840D01*
X18637Y-14869D01*
X18666Y-14940D01*
X18721Y-14995D01*
X19039Y-15313D01*
X19111Y-15343D01*
X19140Y-15343D01*
X19207Y-15410D01*
X19207Y-15428D01*
X19279Y-15601D01*
X19411Y-15733D01*
X19583Y-15805D01*
X19770Y-15805D01*
X19943Y-15734D01*
X20076Y-15602D01*
X20147Y-15429D01*
X20147Y-15242D01*
X20076Y-15069D01*
X19944Y-14937D01*
X19778Y-14868D01*
X19778Y-14801D01*
X19504Y-14526D01*
X19498Y-14531D01*
X19448Y-14482D01*
X19454Y-14476D01*
X19179Y-14201D01*
X19154Y-14201D01*
X19154Y-14198D01*
X19113Y-14098D01*
X19229Y-14145D01*
X19229Y-14152D01*
X19504Y-14427D01*
X19708Y-14223D01*
X19708Y-14129D01*
X19657Y-14079D01*
X19657Y-14078D01*
X19697Y-14060D01*
X19741Y-14014D01*
X19782Y-14055D01*
X19876Y-14055D01*
X20080Y-13851D01*
X20074Y-13845D01*
X20124Y-13796D01*
X20129Y-13801D01*
X20135Y-13796D01*
X20184Y-13845D01*
X20179Y-13851D01*
X20184Y-13856D01*
X20135Y-13906D01*
X20129Y-13900D01*
X19925Y-14104D01*
X19925Y-14198D01*
X19975Y-14248D01*
X20037Y-14310D01*
X19986Y-14361D01*
X19973Y-14394D01*
X19901Y-14323D01*
X19851Y-14272D01*
X19757Y-14272D01*
X19553Y-14476D01*
X19828Y-14751D01*
X19922Y-14751D01*
X19925Y-14748D01*
X19986Y-14894D01*
X20118Y-15026D01*
X20291Y-15098D01*
X20478Y-15098D01*
X20650Y-15026D01*
X20783Y-14894D01*
X20854Y-14722D01*
X20855Y-14535D01*
X20848Y-14519D01*
X20866Y-14492D01*
X20866Y-14492D01*
X20880Y-14420D01*
X20971Y-14458D01*
X21057Y-14404D01*
X21057Y-14005D01*
X21086Y-13976D01*
X21086Y-15037D01*
X21057Y-15067D01*
X20147Y-15976D01*
X19440Y-16683D01*
X19440Y-15949D01*
X19369Y-15776D01*
X19237Y-15644D01*
X19064Y-15572D01*
X18877Y-15572D01*
X18704Y-15643D01*
X18572Y-15775D01*
X18500Y-15948D01*
X18500Y-16135D01*
X18572Y-16308D01*
X18704Y-16440D01*
X18876Y-16512D01*
X19063Y-16512D01*
X19236Y-16441D01*
X19368Y-16309D01*
X19440Y-16136D01*
X19440Y-15949D01*
X19440Y-16683D01*
X17199Y-18924D01*
X17199Y-18808D01*
X17147Y-18681D01*
X17053Y-18587D01*
X17115Y-18562D01*
X17247Y-18430D01*
X17319Y-18257D01*
X17319Y-18070D01*
X17248Y-17897D01*
X17115Y-17765D01*
X16943Y-17693D01*
X16830Y-17693D01*
X16830Y-15051D01*
X17286Y-14595D01*
X17286Y-17062D01*
X17158Y-17190D01*
X17086Y-17362D01*
X17086Y-17549D01*
X17157Y-17722D01*
X17289Y-17854D01*
X17462Y-17926D01*
X17649Y-17926D01*
X17822Y-17855D01*
X17954Y-17723D01*
X18026Y-17550D01*
X18026Y-17363D01*
X17955Y-17190D01*
X17826Y-17061D01*
X17826Y-16922D01*
X17864Y-17015D01*
X17997Y-17147D01*
X18169Y-17219D01*
X18356Y-17219D01*
X18529Y-17148D01*
X18661Y-17016D01*
X18733Y-16843D01*
X18733Y-16656D01*
X18662Y-16483D01*
X18530Y-16351D01*
X18357Y-16279D01*
X18170Y-16279D01*
X17997Y-16350D01*
X17865Y-16483D01*
X17826Y-16576D01*
X17826Y-14215D01*
X18064Y-13976D01*
X18123Y-13889D01*
X18123Y-13889D01*
X18144Y-13785D01*
X18144Y-13147D01*
X18196Y-13126D01*
X18356Y-12965D01*
X18443Y-12756D01*
X18444Y-12529D01*
X18428Y-12490D01*
X18465Y-12506D01*
X18692Y-12506D01*
X18902Y-12420D01*
X19062Y-12260D01*
X19084Y-12206D01*
X22119Y-12206D01*
X22147Y-12201D01*
X22108Y-12240D01*
X22036Y-12413D01*
X22036Y-12600D01*
X22107Y-12772D01*
X22239Y-12905D01*
X22412Y-12976D01*
X22599Y-12977D01*
X22772Y-12905D01*
X22904Y-12773D01*
X22976Y-12600D01*
X22976Y-12413D01*
X22904Y-12241D01*
X22772Y-12108D01*
X22600Y-12037D01*
X22413Y-12036D01*
X22392Y-12045D01*
X22751Y-11685D01*
X22743Y-11705D01*
X22743Y-11892D01*
X22814Y-12065D01*
X22946Y-12198D01*
X23119Y-12269D01*
X23306Y-12269D01*
X23479Y-12198D01*
X23611Y-12066D01*
X23683Y-11893D01*
X23683Y-11706D01*
X23612Y-11534D01*
X23479Y-11401D01*
X23307Y-11329D01*
X23120Y-11329D01*
X23099Y-11338D01*
X23458Y-10978D01*
X23450Y-10998D01*
X23450Y-11185D01*
X23521Y-11358D01*
X23653Y-11490D01*
X23826Y-11562D01*
X24013Y-11562D01*
X24186Y-11491D01*
X24318Y-11359D01*
X24390Y-11186D01*
X24390Y-10999D01*
X24319Y-10826D01*
X24187Y-10694D01*
X24014Y-10622D01*
X23827Y-10622D01*
X23806Y-10631D01*
X24165Y-10271D01*
X24157Y-10291D01*
X24157Y-10478D01*
X24228Y-10651D01*
X24361Y-10783D01*
X24533Y-10855D01*
X24720Y-10855D01*
X24893Y-10784D01*
X25025Y-10652D01*
X25097Y-10479D01*
X25097Y-10292D01*
X25026Y-10119D01*
X24894Y-9987D01*
X24800Y-9948D01*
X24940Y-9948D01*
X25068Y-10076D01*
X25240Y-10148D01*
X25427Y-10148D01*
X25600Y-10077D01*
X25732Y-9945D01*
X25804Y-9772D01*
X25804Y-9585D01*
X25733Y-9412D01*
X25601Y-9280D01*
X25428Y-9208D01*
X25241Y-9208D01*
X25068Y-9279D01*
X24939Y-9408D01*
X24909Y-9408D01*
X24942Y-9375D01*
X24994Y-9248D01*
X24995Y-9111D01*
X24942Y-8984D01*
X24845Y-8887D01*
X24718Y-8835D01*
X24686Y-8835D01*
X22910Y-7059D01*
X22823Y-7000D01*
X22720Y-6980D01*
X21852Y-6980D01*
X21749Y-7000D01*
X21661Y-7059D01*
X21573Y-7147D01*
X21520Y-7125D01*
X21337Y-7125D01*
X21337Y-7124D01*
X21337Y-6851D01*
X21237Y-6618D01*
X21054Y-6440D01*
X20836Y-6350D01*
X20734Y-6403D01*
X20734Y-6953D01*
X21285Y-6953D01*
X21337Y-6851D01*
X21337Y-7124D01*
X21285Y-7023D01*
X20784Y-7023D01*
X20754Y-6993D01*
X20705Y-7043D01*
X20734Y-7072D01*
X20734Y-7573D01*
X20836Y-7626D01*
X20836Y-7626D01*
X20836Y-7808D01*
X20853Y-7849D01*
X20813Y-7832D01*
X20694Y-7832D01*
X20694Y-7043D01*
X20664Y-7013D01*
X20664Y-6953D01*
X20664Y-6403D01*
X20563Y-6350D01*
X20329Y-6451D01*
X20152Y-6633D01*
X20061Y-6851D01*
X20114Y-6953D01*
X20664Y-6953D01*
X20664Y-7013D01*
X20644Y-6993D01*
X20615Y-7023D01*
X20114Y-7023D01*
X20084Y-7080D01*
X20027Y-7110D01*
X20027Y-7610D01*
X19998Y-7640D01*
X20047Y-7689D01*
X20077Y-7660D01*
X20577Y-7660D01*
X20607Y-7603D01*
X20664Y-7573D01*
X20664Y-7072D01*
X20694Y-7043D01*
X20694Y-7832D01*
X20664Y-7832D01*
X20630Y-7832D01*
X20630Y-7831D01*
X20577Y-7730D01*
X20077Y-7730D01*
X20047Y-7700D01*
X19998Y-7750D01*
X20027Y-7779D01*
X20027Y-8280D01*
X20129Y-8333D01*
X20129Y-8333D01*
X20129Y-8515D01*
X20146Y-8556D01*
X20106Y-8539D01*
X19987Y-8539D01*
X19987Y-7750D01*
X19957Y-7721D01*
X19957Y-7660D01*
X19957Y-7110D01*
X19856Y-7057D01*
X19622Y-7158D01*
X19444Y-7340D01*
X19354Y-7558D01*
X19407Y-7660D01*
X19957Y-7660D01*
X19957Y-7721D01*
X19937Y-7700D01*
X19908Y-7730D01*
X19407Y-7730D01*
X19377Y-7787D01*
X19320Y-7817D01*
X19320Y-8318D01*
X19291Y-8347D01*
X19340Y-8396D01*
X19370Y-8367D01*
X19870Y-8367D01*
X19900Y-8310D01*
X19957Y-8280D01*
X19957Y-7779D01*
X19987Y-7750D01*
X19987Y-8539D01*
X19957Y-8539D01*
X19923Y-8539D01*
X19923Y-8539D01*
X19870Y-8437D01*
X19370Y-8437D01*
X19340Y-8408D01*
X19291Y-8457D01*
X19320Y-8487D01*
X19320Y-8987D01*
X19422Y-9040D01*
X19422Y-9040D01*
X19422Y-9222D01*
X19438Y-9261D01*
X19400Y-9245D01*
X19280Y-9245D01*
X19280Y-8457D01*
X19250Y-8428D01*
X19250Y-8367D01*
X19250Y-7817D01*
X19149Y-7764D01*
X18915Y-7865D01*
X18737Y-8047D01*
X18647Y-8266D01*
X18700Y-8367D01*
X19250Y-8367D01*
X19250Y-8428D01*
X19230Y-8408D01*
X19201Y-8437D01*
X18700Y-8437D01*
X18671Y-8493D01*
X18614Y-8523D01*
X18614Y-9023D01*
X18585Y-9053D01*
X18634Y-9102D01*
X18664Y-9073D01*
X19165Y-9073D01*
X19194Y-9017D01*
X19250Y-8987D01*
X19250Y-8487D01*
X19280Y-8457D01*
X19280Y-9245D01*
X19250Y-9245D01*
X19217Y-9245D01*
X19217Y-9244D01*
X19165Y-9143D01*
X18664Y-9143D01*
X18634Y-9113D01*
X18585Y-9163D01*
X18614Y-9192D01*
X18614Y-9693D01*
X18716Y-9746D01*
X18716Y-9746D01*
X18716Y-9928D01*
X18733Y-9969D01*
X18693Y-9952D01*
X18574Y-9952D01*
X18574Y-9163D01*
X18544Y-9133D01*
X18544Y-9073D01*
X18544Y-8523D01*
X18443Y-8470D01*
X18209Y-8571D01*
X18032Y-8753D01*
X17941Y-8971D01*
X17994Y-9073D01*
X18544Y-9073D01*
X18544Y-9133D01*
X18524Y-9113D01*
X18495Y-9143D01*
X17994Y-9143D01*
X17964Y-9200D01*
X17907Y-9230D01*
X17907Y-9730D01*
X17878Y-9760D01*
X17927Y-9809D01*
X17957Y-9780D01*
X18457Y-9780D01*
X18487Y-9723D01*
X18544Y-9693D01*
X18544Y-9192D01*
X18574Y-9163D01*
X18574Y-9952D01*
X18544Y-9952D01*
X18510Y-9952D01*
X18510Y-9951D01*
X18457Y-9850D01*
X17957Y-9850D01*
X17927Y-9820D01*
X17878Y-9870D01*
X17907Y-9899D01*
X17907Y-10400D01*
X18009Y-10453D01*
X18009Y-10453D01*
X18009Y-10635D01*
X18026Y-10676D01*
X17986Y-10659D01*
X17867Y-10659D01*
X17867Y-9870D01*
X17837Y-9841D01*
X17837Y-9780D01*
X17837Y-9230D01*
X17736Y-9177D01*
X17502Y-9278D01*
X17324Y-9460D01*
X17234Y-9678D01*
X17287Y-9780D01*
X17837Y-9780D01*
X17837Y-9841D01*
X17817Y-9820D01*
X17788Y-9850D01*
X17287Y-9850D01*
X17257Y-9907D01*
X17200Y-9937D01*
X17200Y-10438D01*
X17171Y-10467D01*
X17220Y-10516D01*
X17250Y-10487D01*
X17750Y-10487D01*
X17780Y-10430D01*
X17837Y-10400D01*
X17837Y-9899D01*
X17867Y-9870D01*
X17867Y-10659D01*
X17837Y-10659D01*
X17803Y-10659D01*
X17803Y-10659D01*
X17750Y-10557D01*
X17250Y-10557D01*
X17220Y-10528D01*
X17171Y-10577D01*
X17200Y-10607D01*
X17200Y-11107D01*
X17302Y-11160D01*
X17302Y-11160D01*
X17302Y-11342D01*
X17318Y-11381D01*
X17280Y-11365D01*
X17160Y-11365D01*
X17160Y-10577D01*
X17130Y-10548D01*
X17130Y-10487D01*
X17130Y-9937D01*
X17029Y-9884D01*
X16795Y-9985D01*
X16617Y-10167D01*
X16527Y-10386D01*
X16580Y-10487D01*
X17130Y-10487D01*
X17130Y-10548D01*
X17110Y-10528D01*
X17081Y-10557D01*
X16580Y-10557D01*
X16551Y-10613D01*
X16494Y-10643D01*
X16494Y-11143D01*
X16465Y-11173D01*
X16514Y-11222D01*
X16544Y-11193D01*
X17045Y-11193D01*
X17074Y-11137D01*
X17130Y-11107D01*
X17130Y-10607D01*
X17160Y-10577D01*
X17160Y-11365D01*
X17130Y-11365D01*
X17097Y-11365D01*
X17097Y-11364D01*
X17045Y-11263D01*
X16544Y-11263D01*
X16514Y-11233D01*
X16465Y-11283D01*
X16494Y-11312D01*
X16494Y-11813D01*
X16596Y-11866D01*
X16596Y-11866D01*
X16596Y-12048D01*
X16613Y-12089D01*
X16573Y-12072D01*
X16454Y-12072D01*
X16454Y-11283D01*
X16424Y-11253D01*
X16424Y-11193D01*
X16424Y-10643D01*
X16323Y-10590D01*
X16089Y-10691D01*
X15912Y-10873D01*
X15821Y-11091D01*
X15874Y-11193D01*
X16424Y-11193D01*
X16424Y-11253D01*
X16404Y-11233D01*
X16375Y-11263D01*
X15874Y-11263D01*
X15844Y-11320D01*
X15787Y-11350D01*
X15787Y-11850D01*
X15758Y-11880D01*
X15807Y-11929D01*
X15837Y-11900D01*
X16337Y-11900D01*
X16367Y-11843D01*
X16424Y-11813D01*
X16424Y-11312D01*
X16454Y-11283D01*
X16454Y-12072D01*
X16424Y-12072D01*
X16390Y-12072D01*
X16390Y-12071D01*
X16337Y-11970D01*
X15837Y-11970D01*
X15807Y-11940D01*
X15758Y-11990D01*
X15787Y-12019D01*
X15787Y-12520D01*
X15889Y-12573D01*
X15889Y-12573D01*
X15889Y-12755D01*
X15906Y-12796D01*
X15866Y-12779D01*
X15747Y-12779D01*
X15747Y-11990D01*
X15717Y-11961D01*
X15717Y-11900D01*
X15717Y-11350D01*
X15616Y-11297D01*
X15382Y-11398D01*
X15204Y-11580D01*
X15114Y-11798D01*
X15167Y-11900D01*
X15717Y-11900D01*
X15717Y-11961D01*
X15697Y-11940D01*
X15668Y-11970D01*
X15167Y-11970D01*
X15137Y-12027D01*
X15080Y-12057D01*
X15080Y-12558D01*
X15051Y-12587D01*
X15100Y-12636D01*
X15130Y-12607D01*
X15630Y-12607D01*
X15660Y-12550D01*
X15717Y-12520D01*
X15717Y-12019D01*
X15747Y-11990D01*
X15747Y-12779D01*
X15717Y-12779D01*
X15683Y-12779D01*
X15683Y-12779D01*
X15630Y-12677D01*
X15130Y-12677D01*
X15100Y-12648D01*
X15051Y-12697D01*
X15080Y-12727D01*
X15080Y-13227D01*
X15182Y-13280D01*
X15182Y-13280D01*
X15182Y-13462D01*
X15269Y-13672D01*
X15429Y-13832D01*
X15638Y-13919D01*
X15865Y-13919D01*
X15906Y-13902D01*
X15889Y-13942D01*
X15889Y-14169D01*
X15950Y-14315D01*
X15950Y-15176D01*
X15930Y-15169D01*
X15853Y-15168D01*
X15737Y-15168D01*
X15737Y-14314D01*
X15707Y-14243D01*
X15653Y-14188D01*
X15264Y-13799D01*
X15192Y-13769D01*
X15114Y-13769D01*
X15043Y-13799D01*
X15010Y-13831D01*
X15010Y-13227D01*
X15010Y-12677D01*
X15010Y-12607D01*
X15010Y-12057D01*
X14909Y-12004D01*
X14675Y-12105D01*
X14497Y-12287D01*
X14407Y-12506D01*
X14460Y-12607D01*
X15010Y-12607D01*
X15010Y-12677D01*
X14460Y-12677D01*
X14407Y-12779D01*
X14508Y-13012D01*
X14637Y-13138D01*
X14566Y-13109D01*
X14481Y-13163D01*
X14481Y-13611D01*
X14929Y-13611D01*
X14983Y-13525D01*
X14896Y-13329D01*
X14796Y-13233D01*
X14909Y-13280D01*
X15010Y-13227D01*
X15010Y-13831D01*
X14988Y-13854D01*
X14918Y-13923D01*
X14983Y-13766D01*
X14929Y-13681D01*
X14530Y-13681D01*
X14501Y-13652D01*
X14452Y-13701D01*
X14481Y-13730D01*
X14481Y-14129D01*
X14566Y-14183D01*
X14731Y-14110D01*
X14599Y-14242D01*
X14569Y-14314D01*
X14569Y-14392D01*
X14599Y-14463D01*
X14654Y-14518D01*
X15042Y-14907D01*
X15114Y-14937D01*
X15192Y-14937D01*
X15263Y-14907D01*
X15318Y-14853D01*
X15707Y-14464D01*
X15737Y-14392D01*
X15737Y-14314D01*
X15737Y-15168D01*
X15571Y-15168D01*
X15541Y-15139D01*
X15444Y-15098D01*
X15318Y-15098D01*
X15251Y-15165D01*
X15251Y-15553D01*
X15259Y-15553D01*
X15259Y-15623D01*
X15251Y-15623D01*
X15251Y-16012D01*
X15318Y-16078D01*
X15444Y-16079D01*
X15541Y-16038D01*
X15571Y-16009D01*
X15580Y-16009D01*
X15930Y-16009D01*
X15950Y-16000D01*
X15950Y-18242D01*
X15970Y-18345D01*
X16016Y-18414D01*
X15876Y-18472D01*
X15744Y-18604D01*
X15672Y-18777D01*
X15672Y-18964D01*
X15743Y-19136D01*
X15875Y-19269D01*
X16048Y-19340D01*
X16235Y-19341D01*
X16408Y-19269D01*
X16540Y-19137D01*
X16566Y-19075D01*
X16658Y-19168D01*
X16785Y-19221D01*
X16902Y-19221D01*
X15905Y-20218D01*
X15905Y-19484D01*
X15833Y-19312D01*
X15701Y-19179D01*
X15529Y-19108D01*
X15342Y-19107D01*
X15169Y-19179D01*
X15036Y-19311D01*
X14965Y-19484D01*
X14965Y-19671D01*
X15036Y-19843D01*
X15168Y-19976D01*
X15341Y-20047D01*
X15528Y-20048D01*
X15701Y-19976D01*
X15833Y-19844D01*
X15905Y-19671D01*
X15905Y-19484D01*
X15905Y-20218D01*
X15198Y-20925D01*
X15198Y-20192D01*
X15126Y-20019D01*
X14994Y-19886D01*
X14821Y-19815D01*
X14635Y-19815D01*
X14462Y-19886D01*
X14329Y-20018D01*
X14258Y-20191D01*
X14258Y-20378D01*
X14329Y-20551D01*
X14461Y-20683D01*
X14634Y-20755D01*
X14821Y-20755D01*
X14993Y-20683D01*
X15126Y-20551D01*
X15198Y-20379D01*
X15198Y-20192D01*
X15198Y-20925D01*
X14880Y-21243D01*
X14848Y-21243D01*
X14721Y-21296D01*
X14624Y-21393D01*
X14571Y-21520D01*
X14571Y-21657D01*
X14624Y-21784D01*
X14721Y-21881D01*
X14848Y-21933D01*
X14985Y-21934D01*
X15112Y-21881D01*
X15209Y-21784D01*
X15261Y-21657D01*
X15261Y-21625D01*
X27103Y-9784D01*
X27135Y-9784D01*
X27262Y-9731D01*
X27359Y-9634D01*
X27411Y-9507D01*
X27411Y-9370D01*
X27411Y-9855D01*
X27399Y-9868D01*
X27346Y-9995D01*
X27346Y-10132D01*
X27399Y-10259D01*
X27496Y-10356D01*
X27623Y-10408D01*
X27760Y-10409D01*
X27887Y-10356D01*
X27984Y-10259D01*
X28036Y-10132D01*
X28036Y-10100D01*
X30572Y-7565D01*
X30607Y-7580D01*
X30804Y-7580D01*
X30986Y-7505D01*
X31010Y-7480D01*
X31017Y-7487D01*
G54D10*
G36*
X33249Y-24783D02*
X33202Y-25020D01*
X33078Y-25205D01*
X32942Y-25296D01*
X32942Y-20172D01*
X32913Y-20143D01*
X32913Y-20082D01*
X32913Y-19609D01*
X32856Y-19574D01*
X32856Y-18381D01*
X32856Y-18108D01*
X32755Y-17875D01*
X32572Y-17697D01*
X32354Y-17607D01*
X32253Y-17660D01*
X32253Y-18210D01*
X32803Y-18210D01*
X32856Y-18108D01*
X32856Y-18381D01*
X32803Y-18280D01*
X32253Y-18280D01*
X32253Y-18830D01*
X32354Y-18883D01*
X32588Y-18782D01*
X32765Y-18600D01*
X32856Y-18381D01*
X32856Y-19574D01*
X32823Y-19555D01*
X32617Y-19645D01*
X32462Y-19807D01*
X32385Y-19993D01*
X32439Y-20082D01*
X32913Y-20082D01*
X32913Y-20143D01*
X32893Y-20123D01*
X32863Y-20152D01*
X32439Y-20152D01*
X32385Y-20242D01*
X32443Y-20372D01*
X32340Y-20329D01*
X32212Y-20329D01*
X32212Y-18300D01*
X32163Y-18250D01*
X32133Y-18280D01*
X31633Y-18280D01*
X31603Y-18337D01*
X31546Y-18367D01*
X31546Y-18868D01*
X31516Y-18897D01*
X31566Y-18946D01*
X31595Y-18917D01*
X32096Y-18917D01*
X32126Y-18860D01*
X32183Y-18830D01*
X32183Y-18329D01*
X32212Y-18300D01*
X32212Y-20329D01*
X32183Y-20329D01*
X32149Y-20329D01*
X32149Y-19089D01*
X32096Y-18987D01*
X31546Y-18987D01*
X31546Y-19537D01*
X31647Y-19590D01*
X31881Y-19489D01*
X32058Y-19307D01*
X32149Y-19089D01*
X32149Y-20329D01*
X32143Y-20329D01*
X31961Y-20404D01*
X31821Y-20544D01*
X31746Y-20725D01*
X31746Y-20922D01*
X31821Y-21104D01*
X31960Y-21244D01*
X32142Y-21319D01*
X32339Y-21319D01*
X32521Y-21244D01*
X32660Y-21105D01*
X32736Y-20923D01*
X32736Y-20726D01*
X32694Y-20626D01*
X32823Y-20680D01*
X32913Y-20626D01*
X32913Y-20202D01*
X32942Y-20172D01*
X32942Y-25296D01*
X32913Y-25316D01*
X32895Y-25328D01*
X32655Y-25375D01*
X32029Y-25375D01*
X32029Y-21433D01*
X31953Y-21251D01*
X31814Y-21112D01*
X31632Y-21036D01*
X31505Y-21036D01*
X31505Y-19007D01*
X31456Y-18958D01*
X31426Y-18987D01*
X30925Y-18987D01*
X30896Y-19044D01*
X30839Y-19074D01*
X30839Y-19575D01*
X30809Y-19604D01*
X30859Y-19654D01*
X30888Y-19624D01*
X31389Y-19624D01*
X31419Y-19567D01*
X31476Y-19537D01*
X31476Y-19037D01*
X31505Y-19007D01*
X31505Y-21036D01*
X31476Y-21036D01*
X31442Y-21036D01*
X31442Y-19796D01*
X31389Y-19694D01*
X30839Y-19694D01*
X30839Y-20244D01*
X30940Y-20297D01*
X31174Y-20196D01*
X31351Y-20014D01*
X31442Y-19796D01*
X31442Y-21036D01*
X31436Y-21036D01*
X31254Y-21111D01*
X31114Y-21251D01*
X31039Y-21432D01*
X31038Y-21629D01*
X31114Y-21811D01*
X31253Y-21951D01*
X31435Y-22026D01*
X31632Y-22026D01*
X31814Y-21951D01*
X31953Y-21812D01*
X32028Y-21630D01*
X32029Y-21433D01*
X32029Y-25375D01*
X31322Y-25375D01*
X31322Y-22140D01*
X31246Y-21958D01*
X31107Y-21819D01*
X30925Y-21744D01*
X30798Y-21743D01*
X30798Y-19714D01*
X30748Y-19665D01*
X30719Y-19694D01*
X30218Y-19694D01*
X30189Y-19750D01*
X30133Y-19780D01*
X30133Y-20280D01*
X30103Y-20310D01*
X30153Y-20359D01*
X30182Y-20330D01*
X30683Y-20330D01*
X30712Y-20274D01*
X30769Y-20244D01*
X30769Y-19744D01*
X30798Y-19714D01*
X30798Y-21743D01*
X30769Y-21743D01*
X30736Y-21743D01*
X30736Y-20501D01*
X30683Y-20400D01*
X30133Y-20400D01*
X30133Y-20950D01*
X30234Y-21003D01*
X30468Y-20902D01*
X30645Y-20720D01*
X30736Y-20501D01*
X30736Y-21743D01*
X30728Y-21743D01*
X30546Y-21819D01*
X30407Y-21958D01*
X30332Y-22140D01*
X30331Y-22337D01*
X30407Y-22519D01*
X30546Y-22658D01*
X30728Y-22733D01*
X30924Y-22734D01*
X31106Y-22658D01*
X31246Y-22519D01*
X31321Y-22337D01*
X31322Y-22140D01*
X31322Y-25375D01*
X30614Y-25375D01*
X30614Y-22848D01*
X30539Y-22666D01*
X30400Y-22526D01*
X30218Y-22451D01*
X30092Y-22451D01*
X30092Y-20420D01*
X30043Y-20370D01*
X30013Y-20400D01*
X29513Y-20400D01*
X29483Y-20457D01*
X29426Y-20487D01*
X29426Y-20988D01*
X29396Y-21017D01*
X29446Y-21066D01*
X29475Y-21037D01*
X29976Y-21037D01*
X30006Y-20980D01*
X30063Y-20950D01*
X30063Y-20449D01*
X30092Y-20420D01*
X30092Y-22451D01*
X30063Y-22451D01*
X30029Y-22451D01*
X30029Y-21209D01*
X29976Y-21107D01*
X29426Y-21107D01*
X29426Y-21657D01*
X29527Y-21710D01*
X29761Y-21609D01*
X29938Y-21427D01*
X30029Y-21209D01*
X30029Y-22451D01*
X30021Y-22450D01*
X29839Y-22526D01*
X29700Y-22665D01*
X29624Y-22847D01*
X29624Y-23044D01*
X29699Y-23226D01*
X29839Y-23365D01*
X30020Y-23440D01*
X30217Y-23441D01*
X30399Y-23365D01*
X30539Y-23226D01*
X30614Y-23044D01*
X30614Y-22848D01*
X30614Y-25375D01*
X28390Y-25375D01*
X28417Y-25348D01*
X28493Y-25166D01*
X28493Y-24969D01*
X28418Y-24787D01*
X28279Y-24648D01*
X28236Y-24630D01*
X28281Y-24630D01*
X28285Y-24640D01*
X28424Y-24779D01*
X28606Y-24855D01*
X28803Y-24855D01*
X28985Y-24780D01*
X29125Y-24641D01*
X29200Y-24459D01*
X29200Y-24262D01*
X29125Y-24080D01*
X28986Y-23940D01*
X28943Y-23923D01*
X28988Y-23923D01*
X28992Y-23933D01*
X29131Y-24072D01*
X29313Y-24148D01*
X29510Y-24148D01*
X29692Y-24073D01*
X29832Y-23933D01*
X29907Y-23752D01*
X29907Y-23555D01*
X29832Y-23373D01*
X29693Y-23233D01*
X29511Y-23158D01*
X29385Y-23158D01*
X29385Y-21127D01*
X29336Y-21078D01*
X29306Y-21107D01*
X28805Y-21107D01*
X28776Y-21164D01*
X28719Y-21194D01*
X28719Y-21695D01*
X28689Y-21724D01*
X28739Y-21774D01*
X28768Y-21744D01*
X29269Y-21744D01*
X29299Y-21687D01*
X29356Y-21657D01*
X29356Y-21157D01*
X29385Y-21127D01*
X29385Y-23158D01*
X29356Y-23158D01*
X29322Y-23158D01*
X29322Y-21916D01*
X29269Y-21814D01*
X28719Y-21814D01*
X28719Y-22364D01*
X28820Y-22417D01*
X29054Y-22316D01*
X29231Y-22134D01*
X29322Y-21916D01*
X29322Y-23158D01*
X29314Y-23158D01*
X29132Y-23233D01*
X28993Y-23372D01*
X28988Y-23383D01*
X28678Y-23383D01*
X28678Y-21834D01*
X28628Y-21785D01*
X28599Y-21814D01*
X28098Y-21814D01*
X28069Y-21870D01*
X28013Y-21900D01*
X28013Y-22400D01*
X27983Y-22430D01*
X28033Y-22479D01*
X28062Y-22450D01*
X28563Y-22450D01*
X28592Y-22394D01*
X28649Y-22364D01*
X28649Y-21864D01*
X28678Y-21834D01*
X28678Y-23383D01*
X28649Y-23383D01*
X28616Y-23383D01*
X28616Y-22621D01*
X28563Y-22520D01*
X28013Y-22520D01*
X28013Y-23070D01*
X28114Y-23123D01*
X28348Y-23022D01*
X28525Y-22840D01*
X28616Y-22621D01*
X28616Y-23383D01*
X27972Y-23383D01*
X27972Y-22540D01*
X27923Y-22490D01*
X27893Y-22520D01*
X27393Y-22520D01*
X27363Y-22577D01*
X27306Y-22607D01*
X27306Y-23108D01*
X27276Y-23137D01*
X27326Y-23186D01*
X27355Y-23157D01*
X27856Y-23157D01*
X27886Y-23100D01*
X27943Y-23070D01*
X27943Y-22569D01*
X27972Y-22540D01*
X27972Y-23383D01*
X27943Y-23383D01*
X27886Y-23383D01*
X27909Y-23329D01*
X27856Y-23227D01*
X27355Y-23227D01*
X27326Y-23198D01*
X27276Y-23247D01*
X27306Y-23277D01*
X27306Y-23727D01*
X27265Y-23768D01*
X27265Y-23247D01*
X27216Y-23198D01*
X27186Y-23227D01*
X26685Y-23227D01*
X26656Y-23284D01*
X26599Y-23314D01*
X26599Y-23815D01*
X26569Y-23844D01*
X26619Y-23894D01*
X26648Y-23864D01*
X27149Y-23864D01*
X27179Y-23807D01*
X27236Y-23777D01*
X27236Y-23277D01*
X27265Y-23247D01*
X27265Y-23768D01*
X27236Y-23797D01*
X27099Y-23934D01*
X26648Y-23934D01*
X26619Y-23905D01*
X26569Y-23954D01*
X26599Y-23984D01*
X26599Y-24435D01*
X26529Y-24505D01*
X26529Y-24484D01*
X26529Y-23934D01*
X25978Y-23934D01*
X25925Y-24036D01*
X26026Y-24269D01*
X26209Y-24447D01*
X26427Y-24537D01*
X26529Y-24484D01*
X26529Y-24505D01*
X26485Y-24548D01*
X22269Y-24548D01*
X22269Y-21606D01*
X22197Y-21433D01*
X22065Y-21301D01*
X21893Y-21229D01*
X21706Y-21229D01*
X21533Y-21300D01*
X21400Y-21432D01*
X21329Y-21605D01*
X21329Y-21792D01*
X21400Y-21965D01*
X21532Y-22097D01*
X21705Y-22169D01*
X21892Y-22169D01*
X22065Y-22098D01*
X22197Y-21965D01*
X22269Y-21793D01*
X22269Y-21606D01*
X22269Y-24548D01*
X21562Y-24548D01*
X21562Y-22313D01*
X21490Y-22140D01*
X21358Y-22008D01*
X21185Y-21936D01*
X20998Y-21936D01*
X20826Y-22007D01*
X20693Y-22139D01*
X20622Y-22312D01*
X20621Y-22499D01*
X20693Y-22672D01*
X20825Y-22804D01*
X20998Y-22876D01*
X21185Y-22876D01*
X21357Y-22805D01*
X21490Y-22673D01*
X21561Y-22500D01*
X21562Y-22313D01*
X21562Y-24548D01*
X20855Y-24548D01*
X20855Y-23020D01*
X20783Y-22847D01*
X20651Y-22715D01*
X20478Y-22643D01*
X20291Y-22643D01*
X20119Y-22714D01*
X19986Y-22847D01*
X19915Y-23019D01*
X19914Y-23206D01*
X19986Y-23379D01*
X20118Y-23511D01*
X20291Y-23583D01*
X20478Y-23583D01*
X20650Y-23512D01*
X20783Y-23380D01*
X20854Y-23207D01*
X20855Y-23020D01*
X20855Y-24548D01*
X20058Y-24548D01*
X19791Y-24282D01*
X19943Y-24219D01*
X20076Y-24087D01*
X20147Y-23914D01*
X20147Y-23727D01*
X20076Y-23554D01*
X19944Y-23422D01*
X19771Y-23350D01*
X19584Y-23350D01*
X19411Y-23422D01*
X19279Y-23554D01*
X19216Y-23706D01*
X19026Y-23517D01*
X19026Y-23087D01*
X22737Y-19377D01*
X22731Y-19390D01*
X22731Y-19527D01*
X22784Y-19654D01*
X22881Y-19751D01*
X23008Y-19803D01*
X23040Y-19803D01*
X23071Y-19835D01*
X22947Y-19886D01*
X22815Y-20018D01*
X22743Y-20191D01*
X22743Y-20378D01*
X22814Y-20551D01*
X22946Y-20683D01*
X23119Y-20755D01*
X23306Y-20755D01*
X23479Y-20683D01*
X23611Y-20551D01*
X23663Y-20427D01*
X23948Y-20712D01*
X23829Y-20761D01*
X23690Y-20900D01*
X23614Y-21082D01*
X23614Y-21279D01*
X23689Y-21461D01*
X23829Y-21601D01*
X24010Y-21676D01*
X24207Y-21676D01*
X24389Y-21601D01*
X24529Y-21462D01*
X24578Y-21342D01*
X24790Y-21553D01*
X24261Y-22083D01*
X24202Y-22170D01*
X24181Y-22273D01*
X24181Y-22773D01*
X24202Y-22877D01*
X24261Y-22964D01*
X24641Y-23345D01*
X24641Y-23377D01*
X24694Y-23504D01*
X24791Y-23601D01*
X24906Y-23648D01*
X24573Y-23648D01*
X24562Y-23621D01*
X24414Y-23474D01*
X24221Y-23394D01*
X24012Y-23393D01*
X23897Y-23441D01*
X23897Y-21790D01*
X23822Y-21608D01*
X23683Y-21469D01*
X23501Y-21393D01*
X23304Y-21393D01*
X23122Y-21468D01*
X22983Y-21607D01*
X22976Y-21624D01*
X22976Y-20899D01*
X22904Y-20726D01*
X22772Y-20594D01*
X22600Y-20522D01*
X22413Y-20522D01*
X22240Y-20593D01*
X22108Y-20725D01*
X22036Y-20898D01*
X22036Y-21085D01*
X22107Y-21258D01*
X22239Y-21390D01*
X22412Y-21462D01*
X22599Y-21462D01*
X22772Y-21390D01*
X22904Y-21258D01*
X22976Y-21086D01*
X22976Y-20899D01*
X22976Y-21624D01*
X22907Y-21789D01*
X22907Y-21986D01*
X22982Y-22168D01*
X23121Y-22308D01*
X23303Y-22383D01*
X23500Y-22383D01*
X23682Y-22308D01*
X23822Y-22169D01*
X23897Y-21987D01*
X23897Y-21790D01*
X23897Y-23441D01*
X23819Y-23473D01*
X23672Y-23621D01*
X23616Y-23754D01*
X23562Y-23621D01*
X23414Y-23474D01*
X23221Y-23394D01*
X23012Y-23393D01*
X22819Y-23473D01*
X22672Y-23621D01*
X22592Y-23814D01*
X22591Y-24022D01*
X22671Y-24215D01*
X22819Y-24363D01*
X23012Y-24443D01*
X23220Y-24444D01*
X23413Y-24364D01*
X23561Y-24216D01*
X23616Y-24083D01*
X23671Y-24215D01*
X23819Y-24363D01*
X24012Y-24443D01*
X24220Y-24444D01*
X24413Y-24364D01*
X24561Y-24216D01*
X24573Y-24188D01*
X25130Y-24188D01*
X25233Y-24168D01*
X25233Y-24168D01*
X25321Y-24109D01*
X25690Y-23740D01*
X25743Y-23762D01*
X25926Y-23762D01*
X25925Y-23763D01*
X25978Y-23864D01*
X26479Y-23864D01*
X26508Y-23894D01*
X26558Y-23844D01*
X26529Y-23815D01*
X26529Y-23314D01*
X26427Y-23261D01*
X26426Y-23261D01*
X26427Y-23079D01*
X26410Y-23038D01*
X26450Y-23055D01*
X26633Y-23055D01*
X26633Y-23056D01*
X26685Y-23157D01*
X27186Y-23157D01*
X27216Y-23186D01*
X27265Y-23137D01*
X27236Y-23108D01*
X27236Y-22607D01*
X27134Y-22554D01*
X27133Y-22554D01*
X27134Y-22372D01*
X27117Y-22331D01*
X27157Y-22348D01*
X27340Y-22348D01*
X27340Y-22348D01*
X27393Y-22450D01*
X27893Y-22450D01*
X27923Y-22479D01*
X27972Y-22430D01*
X27943Y-22400D01*
X27943Y-21900D01*
X27841Y-21847D01*
X27841Y-21847D01*
X27841Y-21665D01*
X27825Y-21626D01*
X27863Y-21642D01*
X28046Y-21642D01*
X28045Y-21643D01*
X28098Y-21744D01*
X28599Y-21744D01*
X28628Y-21774D01*
X28678Y-21724D01*
X28649Y-21695D01*
X28649Y-21194D01*
X28547Y-21141D01*
X28546Y-21141D01*
X28547Y-20959D01*
X28530Y-20918D01*
X28570Y-20935D01*
X28753Y-20935D01*
X28753Y-20936D01*
X28805Y-21037D01*
X29306Y-21037D01*
X29336Y-21066D01*
X29385Y-21017D01*
X29356Y-20988D01*
X29356Y-20487D01*
X29254Y-20434D01*
X29253Y-20434D01*
X29254Y-20252D01*
X29237Y-20211D01*
X29277Y-20228D01*
X29460Y-20228D01*
X29460Y-20228D01*
X29513Y-20330D01*
X30013Y-20330D01*
X30043Y-20359D01*
X30092Y-20310D01*
X30063Y-20280D01*
X30063Y-19780D01*
X29961Y-19727D01*
X29961Y-19727D01*
X29961Y-19545D01*
X29945Y-19506D01*
X29983Y-19522D01*
X30166Y-19522D01*
X30165Y-19523D01*
X30218Y-19624D01*
X30719Y-19624D01*
X30748Y-19654D01*
X30798Y-19604D01*
X30769Y-19575D01*
X30769Y-19074D01*
X30667Y-19021D01*
X30666Y-19021D01*
X30667Y-18839D01*
X30650Y-18798D01*
X30690Y-18815D01*
X30873Y-18815D01*
X30873Y-18816D01*
X30925Y-18917D01*
X31426Y-18917D01*
X31456Y-18946D01*
X31505Y-18897D01*
X31476Y-18868D01*
X31476Y-18367D01*
X31374Y-18314D01*
X31373Y-18314D01*
X31374Y-18132D01*
X31357Y-18091D01*
X31397Y-18108D01*
X31580Y-18108D01*
X31580Y-18108D01*
X31633Y-18210D01*
X32133Y-18210D01*
X32163Y-18239D01*
X32212Y-18190D01*
X32183Y-18160D01*
X32183Y-17660D01*
X32081Y-17607D01*
X32081Y-17607D01*
X32081Y-17425D01*
X31994Y-17215D01*
X31849Y-17070D01*
X32213Y-17070D01*
X32285Y-17040D01*
X32340Y-16985D01*
X32369Y-16913D01*
X32370Y-16836D01*
X32370Y-16738D01*
X32434Y-16894D01*
X32533Y-16916D01*
X32850Y-16600D01*
X32533Y-16283D01*
X32434Y-16305D01*
X32370Y-16473D01*
X32370Y-16286D01*
X32340Y-16214D01*
X32285Y-16159D01*
X32213Y-16130D01*
X32140Y-16129D01*
X32265Y-16005D01*
X32329Y-15850D01*
X32329Y-15859D01*
X32401Y-16033D01*
X32500Y-16055D01*
X32817Y-15738D01*
X32500Y-15422D01*
X32401Y-15444D01*
X32330Y-15629D01*
X32265Y-15473D01*
X32133Y-15340D01*
X31960Y-15269D01*
X31838Y-15268D01*
X31898Y-15209D01*
X31960Y-15209D01*
X32132Y-15137D01*
X32265Y-15005D01*
X32336Y-14832D01*
X32337Y-14645D01*
X32265Y-14473D01*
X32133Y-14340D01*
X31960Y-14269D01*
X31773Y-14268D01*
X31601Y-14340D01*
X31468Y-14472D01*
X31397Y-14645D01*
X31396Y-14832D01*
X31430Y-14913D01*
X30261Y-16082D01*
X30261Y-15426D01*
X30186Y-15244D01*
X30047Y-15105D01*
X30047Y-15105D01*
X30047Y-13828D01*
X29976Y-13655D01*
X29843Y-13522D01*
X29671Y-13451D01*
X29484Y-13451D01*
X29311Y-13522D01*
X29179Y-13654D01*
X29107Y-13827D01*
X29107Y-14014D01*
X29178Y-14187D01*
X29310Y-14319D01*
X29483Y-14391D01*
X29670Y-14391D01*
X29843Y-14319D01*
X29975Y-14187D01*
X30047Y-14015D01*
X30047Y-13828D01*
X30047Y-15105D01*
X29865Y-15029D01*
X29668Y-15029D01*
X29486Y-15104D01*
X29347Y-15244D01*
X29340Y-15260D01*
X29340Y-14535D01*
X29268Y-14362D01*
X29136Y-14230D01*
X28964Y-14158D01*
X28777Y-14158D01*
X28604Y-14229D01*
X28472Y-14361D01*
X28400Y-14534D01*
X28400Y-14721D01*
X28471Y-14894D01*
X28603Y-15026D01*
X28776Y-15098D01*
X28963Y-15098D01*
X29136Y-15026D01*
X29268Y-14894D01*
X29340Y-14722D01*
X29340Y-14535D01*
X29340Y-15260D01*
X29271Y-15425D01*
X29271Y-15622D01*
X29346Y-15804D01*
X29485Y-15944D01*
X29667Y-16019D01*
X29864Y-16019D01*
X30046Y-15944D01*
X30186Y-15805D01*
X30261Y-15623D01*
X30261Y-15426D01*
X30261Y-16082D01*
X29554Y-16789D01*
X29554Y-16133D01*
X29479Y-15951D01*
X29340Y-15812D01*
X29158Y-15736D01*
X28961Y-15736D01*
X28779Y-15811D01*
X28640Y-15951D01*
X28633Y-15967D01*
X28633Y-15242D01*
X28561Y-15069D01*
X28429Y-14937D01*
X28257Y-14865D01*
X28070Y-14865D01*
X27897Y-14936D01*
X27764Y-15068D01*
X27693Y-15241D01*
X27693Y-15428D01*
X27764Y-15601D01*
X27896Y-15733D01*
X28069Y-15805D01*
X28256Y-15805D01*
X28429Y-15734D01*
X28561Y-15602D01*
X28633Y-15429D01*
X28633Y-15242D01*
X28633Y-15967D01*
X28564Y-16132D01*
X28564Y-16329D01*
X28639Y-16511D01*
X28778Y-16651D01*
X28960Y-16726D01*
X29157Y-16726D01*
X29339Y-16651D01*
X29478Y-16512D01*
X29554Y-16330D01*
X29554Y-16133D01*
X29554Y-16789D01*
X28847Y-17496D01*
X28847Y-16840D01*
X28772Y-16658D01*
X28633Y-16519D01*
X28451Y-16444D01*
X28254Y-16443D01*
X28072Y-16519D01*
X27933Y-16658D01*
X27926Y-16675D01*
X27926Y-15949D01*
X27854Y-15776D01*
X27722Y-15644D01*
X27549Y-15572D01*
X27362Y-15572D01*
X27190Y-15643D01*
X27057Y-15775D01*
X26986Y-15948D01*
X26985Y-16135D01*
X27057Y-16308D01*
X27189Y-16440D01*
X27362Y-16512D01*
X27549Y-16512D01*
X27721Y-16441D01*
X27854Y-16309D01*
X27925Y-16136D01*
X27926Y-15949D01*
X27926Y-16675D01*
X27857Y-16840D01*
X27857Y-17037D01*
X27932Y-17219D01*
X28071Y-17358D01*
X28253Y-17433D01*
X28450Y-17434D01*
X28632Y-17358D01*
X28771Y-17219D01*
X28847Y-17037D01*
X28847Y-16840D01*
X28847Y-17496D01*
X28140Y-18203D01*
X28140Y-17548D01*
X28065Y-17366D01*
X27926Y-17226D01*
X27744Y-17151D01*
X27547Y-17150D01*
X27365Y-17226D01*
X27225Y-17365D01*
X27218Y-17382D01*
X27218Y-16656D01*
X27147Y-16483D01*
X27015Y-16351D01*
X26842Y-16279D01*
X26655Y-16279D01*
X26483Y-16350D01*
X26350Y-16483D01*
X26278Y-16655D01*
X26278Y-16842D01*
X26342Y-16997D01*
X26336Y-16991D01*
X26162Y-16919D01*
X26076Y-16973D01*
X26076Y-17372D01*
X26047Y-17401D01*
X26096Y-17451D01*
X26126Y-17421D01*
X26524Y-17421D01*
X26579Y-17336D01*
X26498Y-17154D01*
X26655Y-17219D01*
X26841Y-17219D01*
X27014Y-17148D01*
X27147Y-17016D01*
X27218Y-16843D01*
X27218Y-16656D01*
X27218Y-17382D01*
X27150Y-17547D01*
X27150Y-17744D01*
X27225Y-17926D01*
X27364Y-18065D01*
X27546Y-18140D01*
X27743Y-18141D01*
X27925Y-18065D01*
X28064Y-17926D01*
X28140Y-17744D01*
X28140Y-17548D01*
X28140Y-18203D01*
X27433Y-18910D01*
X27433Y-18255D01*
X27358Y-18073D01*
X27219Y-17933D01*
X27037Y-17858D01*
X26840Y-17858D01*
X26658Y-17933D01*
X26579Y-18012D01*
X26579Y-17577D01*
X26524Y-17491D01*
X26076Y-17491D01*
X26076Y-17939D01*
X26162Y-17993D01*
X26358Y-17906D01*
X26506Y-17751D01*
X26579Y-17577D01*
X26579Y-18012D01*
X26518Y-18072D01*
X26443Y-18254D01*
X26443Y-18451D01*
X26518Y-18633D01*
X26657Y-18772D01*
X26839Y-18848D01*
X27036Y-18848D01*
X27218Y-18773D01*
X27357Y-18633D01*
X27433Y-18452D01*
X27433Y-18255D01*
X27433Y-18910D01*
X26726Y-19617D01*
X26726Y-18962D01*
X26651Y-18780D01*
X26511Y-18640D01*
X26330Y-18565D01*
X26133Y-18565D01*
X26036Y-18605D01*
X26036Y-17511D01*
X26006Y-17482D01*
X26006Y-17421D01*
X26006Y-16973D01*
X25921Y-16919D01*
X25724Y-17006D01*
X25576Y-17162D01*
X25504Y-17336D01*
X25558Y-17421D01*
X26006Y-17421D01*
X26006Y-17482D01*
X25986Y-17462D01*
X25957Y-17491D01*
X25558Y-17491D01*
X25504Y-17577D01*
X25585Y-17758D01*
X25428Y-17693D01*
X25241Y-17693D01*
X25068Y-17765D01*
X24936Y-17897D01*
X24864Y-18069D01*
X24864Y-18256D01*
X24936Y-18429D01*
X25068Y-18562D01*
X25240Y-18633D01*
X25427Y-18633D01*
X25600Y-18562D01*
X25732Y-18430D01*
X25804Y-18257D01*
X25804Y-18070D01*
X25740Y-17915D01*
X25747Y-17921D01*
X25921Y-17993D01*
X26006Y-17939D01*
X26006Y-17541D01*
X26036Y-17511D01*
X26036Y-18605D01*
X26006Y-18617D01*
X25951Y-18640D01*
X25811Y-18779D01*
X25736Y-18961D01*
X25736Y-19158D01*
X25811Y-19340D01*
X25950Y-19479D01*
X26132Y-19555D01*
X26329Y-19555D01*
X26511Y-19480D01*
X26650Y-19341D01*
X26726Y-19159D01*
X26726Y-18962D01*
X26726Y-19617D01*
X26019Y-20324D01*
X26019Y-19669D01*
X25943Y-19487D01*
X25804Y-19348D01*
X25622Y-19272D01*
X25426Y-19272D01*
X25244Y-19347D01*
X25104Y-19486D01*
X25097Y-19503D01*
X25097Y-18777D01*
X25026Y-18605D01*
X24894Y-18472D01*
X24721Y-18401D01*
X24534Y-18400D01*
X24361Y-18472D01*
X24229Y-18604D01*
X24157Y-18777D01*
X24157Y-18964D01*
X24228Y-19136D01*
X24361Y-19269D01*
X24533Y-19340D01*
X24720Y-19341D01*
X24893Y-19269D01*
X25025Y-19137D01*
X25097Y-18964D01*
X25097Y-18777D01*
X25097Y-19503D01*
X25029Y-19668D01*
X25028Y-19865D01*
X25104Y-20047D01*
X25243Y-20186D01*
X25425Y-20262D01*
X25622Y-20262D01*
X25804Y-20187D01*
X25943Y-20048D01*
X26018Y-19866D01*
X26019Y-19669D01*
X26019Y-20324D01*
X25171Y-21172D01*
X24953Y-20953D01*
X25096Y-20894D01*
X25236Y-20755D01*
X25311Y-20573D01*
X25312Y-20376D01*
X25236Y-20194D01*
X25097Y-20055D01*
X24915Y-19979D01*
X24718Y-19979D01*
X24536Y-20054D01*
X24397Y-20193D01*
X24337Y-20337D01*
X24037Y-20038D01*
X24186Y-19976D01*
X24318Y-19844D01*
X24390Y-19671D01*
X24390Y-19484D01*
X24319Y-19312D01*
X24187Y-19179D01*
X24014Y-19108D01*
X23827Y-19107D01*
X23654Y-19179D01*
X23522Y-19311D01*
X23460Y-19460D01*
X23421Y-19422D01*
X23421Y-19390D01*
X23369Y-19263D01*
X23272Y-19166D01*
X23145Y-19114D01*
X23008Y-19113D01*
X22995Y-19119D01*
X29337Y-12776D01*
X30111Y-12776D01*
X30018Y-12815D01*
X29886Y-12947D01*
X29814Y-13120D01*
X29814Y-13307D01*
X29885Y-13479D01*
X30017Y-13612D01*
X30190Y-13684D01*
X30377Y-13684D01*
X30550Y-13612D01*
X30682Y-13480D01*
X30754Y-13308D01*
X30754Y-13121D01*
X30683Y-12948D01*
X30551Y-12815D01*
X30457Y-12776D01*
X30596Y-12776D01*
X30724Y-12905D01*
X30897Y-12976D01*
X31084Y-12977D01*
X31257Y-12905D01*
X31389Y-12773D01*
X31461Y-12600D01*
X31461Y-12413D01*
X31390Y-12241D01*
X31258Y-12108D01*
X31164Y-12069D01*
X31304Y-12069D01*
X31432Y-12198D01*
X31604Y-12269D01*
X31791Y-12269D01*
X31964Y-12198D01*
X32096Y-12066D01*
X32168Y-11893D01*
X32168Y-11706D01*
X32097Y-11534D01*
X31965Y-11401D01*
X31871Y-11362D01*
X32011Y-11362D01*
X32139Y-11490D01*
X32311Y-11562D01*
X32498Y-11562D01*
X32671Y-11491D01*
X32803Y-11359D01*
X32875Y-11186D01*
X32875Y-10999D01*
X32804Y-10826D01*
X32672Y-10694D01*
X32499Y-10622D01*
X32312Y-10622D01*
X32139Y-10694D01*
X32010Y-10822D01*
X30091Y-10822D01*
X30099Y-10814D01*
X30151Y-10687D01*
X30151Y-10675D01*
X31888Y-8939D01*
X32021Y-8994D01*
X32218Y-8994D01*
X32400Y-8919D01*
X32425Y-8894D01*
X33249Y-9719D01*
X33249Y-15345D01*
X33230Y-15325D01*
X33183Y-15372D01*
X33161Y-15273D01*
X32961Y-15196D01*
X32746Y-15201D01*
X32572Y-15273D01*
X32550Y-15372D01*
X32866Y-15689D01*
X32872Y-15683D01*
X32921Y-15733D01*
X32916Y-15738D01*
X32921Y-15744D01*
X32872Y-15794D01*
X32866Y-15788D01*
X32550Y-16105D01*
X32572Y-16204D01*
X32588Y-16210D01*
X32583Y-16233D01*
X32900Y-16550D01*
X32905Y-16544D01*
X32955Y-16594D01*
X32949Y-16600D01*
X32955Y-16605D01*
X32905Y-16655D01*
X32900Y-16649D01*
X32583Y-16966D01*
X32605Y-17065D01*
X32805Y-17142D01*
X33020Y-17137D01*
X33194Y-17065D01*
X33216Y-16966D01*
X33216Y-16966D01*
X33249Y-16999D01*
X33249Y-19628D01*
X33216Y-19614D01*
X33072Y-19555D01*
X32983Y-19609D01*
X32983Y-20033D01*
X32953Y-20062D01*
X33003Y-20112D01*
X33032Y-20082D01*
X33249Y-20082D01*
X33249Y-20152D01*
X33032Y-20152D01*
X33003Y-20123D01*
X32953Y-20172D01*
X32983Y-20202D01*
X32983Y-20626D01*
X33072Y-20680D01*
X33249Y-20602D01*
X33249Y-24783D01*
X33249Y-24783D01*
G37*
G54D23*
X33249Y-24783D02*
X33202Y-25020D01*
X33078Y-25205D01*
X32942Y-25296D01*
X32942Y-20172D01*
X32913Y-20143D01*
X32913Y-20082D01*
X32913Y-19609D01*
X32856Y-19574D01*
X32856Y-18381D01*
X32856Y-18108D01*
X32755Y-17875D01*
X32572Y-17697D01*
X32354Y-17607D01*
X32253Y-17660D01*
X32253Y-18210D01*
X32803Y-18210D01*
X32856Y-18108D01*
X32856Y-18381D01*
X32803Y-18280D01*
X32253Y-18280D01*
X32253Y-18830D01*
X32354Y-18883D01*
X32588Y-18782D01*
X32765Y-18600D01*
X32856Y-18381D01*
X32856Y-19574D01*
X32823Y-19555D01*
X32617Y-19645D01*
X32462Y-19807D01*
X32385Y-19993D01*
X32439Y-20082D01*
X32913Y-20082D01*
X32913Y-20143D01*
X32893Y-20123D01*
X32863Y-20152D01*
X32439Y-20152D01*
X32385Y-20242D01*
X32443Y-20372D01*
X32340Y-20329D01*
X32212Y-20329D01*
X32212Y-18300D01*
X32163Y-18250D01*
X32133Y-18280D01*
X31633Y-18280D01*
X31603Y-18337D01*
X31546Y-18367D01*
X31546Y-18868D01*
X31516Y-18897D01*
X31566Y-18946D01*
X31595Y-18917D01*
X32096Y-18917D01*
X32126Y-18860D01*
X32183Y-18830D01*
X32183Y-18329D01*
X32212Y-18300D01*
X32212Y-20329D01*
X32183Y-20329D01*
X32149Y-20329D01*
X32149Y-19089D01*
X32096Y-18987D01*
X31546Y-18987D01*
X31546Y-19537D01*
X31647Y-19590D01*
X31881Y-19489D01*
X32058Y-19307D01*
X32149Y-19089D01*
X32149Y-20329D01*
X32143Y-20329D01*
X31961Y-20404D01*
X31821Y-20544D01*
X31746Y-20725D01*
X31746Y-20922D01*
X31821Y-21104D01*
X31960Y-21244D01*
X32142Y-21319D01*
X32339Y-21319D01*
X32521Y-21244D01*
X32660Y-21105D01*
X32736Y-20923D01*
X32736Y-20726D01*
X32694Y-20626D01*
X32823Y-20680D01*
X32913Y-20626D01*
X32913Y-20202D01*
X32942Y-20172D01*
X32942Y-25296D01*
X32913Y-25316D01*
X32895Y-25328D01*
X32655Y-25375D01*
X32029Y-25375D01*
X32029Y-21433D01*
X31953Y-21251D01*
X31814Y-21112D01*
X31632Y-21036D01*
X31505Y-21036D01*
X31505Y-19007D01*
X31456Y-18958D01*
X31426Y-18987D01*
X30925Y-18987D01*
X30896Y-19044D01*
X30839Y-19074D01*
X30839Y-19575D01*
X30809Y-19604D01*
X30859Y-19654D01*
X30888Y-19624D01*
X31389Y-19624D01*
X31419Y-19567D01*
X31476Y-19537D01*
X31476Y-19037D01*
X31505Y-19007D01*
X31505Y-21036D01*
X31476Y-21036D01*
X31442Y-21036D01*
X31442Y-19796D01*
X31389Y-19694D01*
X30839Y-19694D01*
X30839Y-20244D01*
X30940Y-20297D01*
X31174Y-20196D01*
X31351Y-20014D01*
X31442Y-19796D01*
X31442Y-21036D01*
X31436Y-21036D01*
X31254Y-21111D01*
X31114Y-21251D01*
X31039Y-21432D01*
X31038Y-21629D01*
X31114Y-21811D01*
X31253Y-21951D01*
X31435Y-22026D01*
X31632Y-22026D01*
X31814Y-21951D01*
X31953Y-21812D01*
X32028Y-21630D01*
X32029Y-21433D01*
X32029Y-25375D01*
X31322Y-25375D01*
X31322Y-22140D01*
X31246Y-21958D01*
X31107Y-21819D01*
X30925Y-21744D01*
X30798Y-21743D01*
X30798Y-19714D01*
X30748Y-19665D01*
X30719Y-19694D01*
X30218Y-19694D01*
X30189Y-19750D01*
X30133Y-19780D01*
X30133Y-20280D01*
X30103Y-20310D01*
X30153Y-20359D01*
X30182Y-20330D01*
X30683Y-20330D01*
X30712Y-20274D01*
X30769Y-20244D01*
X30769Y-19744D01*
X30798Y-19714D01*
X30798Y-21743D01*
X30769Y-21743D01*
X30736Y-21743D01*
X30736Y-20501D01*
X30683Y-20400D01*
X30133Y-20400D01*
X30133Y-20950D01*
X30234Y-21003D01*
X30468Y-20902D01*
X30645Y-20720D01*
X30736Y-20501D01*
X30736Y-21743D01*
X30728Y-21743D01*
X30546Y-21819D01*
X30407Y-21958D01*
X30332Y-22140D01*
X30331Y-22337D01*
X30407Y-22519D01*
X30546Y-22658D01*
X30728Y-22733D01*
X30924Y-22734D01*
X31106Y-22658D01*
X31246Y-22519D01*
X31321Y-22337D01*
X31322Y-22140D01*
X31322Y-25375D01*
X30614Y-25375D01*
X30614Y-22848D01*
X30539Y-22666D01*
X30400Y-22526D01*
X30218Y-22451D01*
X30092Y-22451D01*
X30092Y-20420D01*
X30043Y-20370D01*
X30013Y-20400D01*
X29513Y-20400D01*
X29483Y-20457D01*
X29426Y-20487D01*
X29426Y-20988D01*
X29396Y-21017D01*
X29446Y-21066D01*
X29475Y-21037D01*
X29976Y-21037D01*
X30006Y-20980D01*
X30063Y-20950D01*
X30063Y-20449D01*
X30092Y-20420D01*
X30092Y-22451D01*
X30063Y-22451D01*
X30029Y-22451D01*
X30029Y-21209D01*
X29976Y-21107D01*
X29426Y-21107D01*
X29426Y-21657D01*
X29527Y-21710D01*
X29761Y-21609D01*
X29938Y-21427D01*
X30029Y-21209D01*
X30029Y-22451D01*
X30021Y-22450D01*
X29839Y-22526D01*
X29700Y-22665D01*
X29624Y-22847D01*
X29624Y-23044D01*
X29699Y-23226D01*
X29839Y-23365D01*
X30020Y-23440D01*
X30217Y-23441D01*
X30399Y-23365D01*
X30539Y-23226D01*
X30614Y-23044D01*
X30614Y-22848D01*
X30614Y-25375D01*
X28390Y-25375D01*
X28417Y-25348D01*
X28493Y-25166D01*
X28493Y-24969D01*
X28418Y-24787D01*
X28279Y-24648D01*
X28236Y-24630D01*
X28281Y-24630D01*
X28285Y-24640D01*
X28424Y-24779D01*
X28606Y-24855D01*
X28803Y-24855D01*
X28985Y-24780D01*
X29125Y-24641D01*
X29200Y-24459D01*
X29200Y-24262D01*
X29125Y-24080D01*
X28986Y-23940D01*
X28943Y-23923D01*
X28988Y-23923D01*
X28992Y-23933D01*
X29131Y-24072D01*
X29313Y-24148D01*
X29510Y-24148D01*
X29692Y-24073D01*
X29832Y-23933D01*
X29907Y-23752D01*
X29907Y-23555D01*
X29832Y-23373D01*
X29693Y-23233D01*
X29511Y-23158D01*
X29385Y-23158D01*
X29385Y-21127D01*
X29336Y-21078D01*
X29306Y-21107D01*
X28805Y-21107D01*
X28776Y-21164D01*
X28719Y-21194D01*
X28719Y-21695D01*
X28689Y-21724D01*
X28739Y-21774D01*
X28768Y-21744D01*
X29269Y-21744D01*
X29299Y-21687D01*
X29356Y-21657D01*
X29356Y-21157D01*
X29385Y-21127D01*
X29385Y-23158D01*
X29356Y-23158D01*
X29322Y-23158D01*
X29322Y-21916D01*
X29269Y-21814D01*
X28719Y-21814D01*
X28719Y-22364D01*
X28820Y-22417D01*
X29054Y-22316D01*
X29231Y-22134D01*
X29322Y-21916D01*
X29322Y-23158D01*
X29314Y-23158D01*
X29132Y-23233D01*
X28993Y-23372D01*
X28988Y-23383D01*
X28678Y-23383D01*
X28678Y-21834D01*
X28628Y-21785D01*
X28599Y-21814D01*
X28098Y-21814D01*
X28069Y-21870D01*
X28013Y-21900D01*
X28013Y-22400D01*
X27983Y-22430D01*
X28033Y-22479D01*
X28062Y-22450D01*
X28563Y-22450D01*
X28592Y-22394D01*
X28649Y-22364D01*
X28649Y-21864D01*
X28678Y-21834D01*
X28678Y-23383D01*
X28649Y-23383D01*
X28616Y-23383D01*
X28616Y-22621D01*
X28563Y-22520D01*
X28013Y-22520D01*
X28013Y-23070D01*
X28114Y-23123D01*
X28348Y-23022D01*
X28525Y-22840D01*
X28616Y-22621D01*
X28616Y-23383D01*
X27972Y-23383D01*
X27972Y-22540D01*
X27923Y-22490D01*
X27893Y-22520D01*
X27393Y-22520D01*
X27363Y-22577D01*
X27306Y-22607D01*
X27306Y-23108D01*
X27276Y-23137D01*
X27326Y-23186D01*
X27355Y-23157D01*
X27856Y-23157D01*
X27886Y-23100D01*
X27943Y-23070D01*
X27943Y-22569D01*
X27972Y-22540D01*
X27972Y-23383D01*
X27943Y-23383D01*
X27886Y-23383D01*
X27909Y-23329D01*
X27856Y-23227D01*
X27355Y-23227D01*
X27326Y-23198D01*
X27276Y-23247D01*
X27306Y-23277D01*
X27306Y-23727D01*
X27265Y-23768D01*
X27265Y-23247D01*
X27216Y-23198D01*
X27186Y-23227D01*
X26685Y-23227D01*
X26656Y-23284D01*
X26599Y-23314D01*
X26599Y-23815D01*
X26569Y-23844D01*
X26619Y-23894D01*
X26648Y-23864D01*
X27149Y-23864D01*
X27179Y-23807D01*
X27236Y-23777D01*
X27236Y-23277D01*
X27265Y-23247D01*
X27265Y-23768D01*
X27236Y-23797D01*
X27099Y-23934D01*
X26648Y-23934D01*
X26619Y-23905D01*
X26569Y-23954D01*
X26599Y-23984D01*
X26599Y-24435D01*
X26529Y-24505D01*
X26529Y-24484D01*
X26529Y-23934D01*
X25978Y-23934D01*
X25925Y-24036D01*
X26026Y-24269D01*
X26209Y-24447D01*
X26427Y-24537D01*
X26529Y-24484D01*
X26529Y-24505D01*
X26485Y-24548D01*
X22269Y-24548D01*
X22269Y-21606D01*
X22197Y-21433D01*
X22065Y-21301D01*
X21893Y-21229D01*
X21706Y-21229D01*
X21533Y-21300D01*
X21400Y-21432D01*
X21329Y-21605D01*
X21329Y-21792D01*
X21400Y-21965D01*
X21532Y-22097D01*
X21705Y-22169D01*
X21892Y-22169D01*
X22065Y-22098D01*
X22197Y-21965D01*
X22269Y-21793D01*
X22269Y-21606D01*
X22269Y-24548D01*
X21562Y-24548D01*
X21562Y-22313D01*
X21490Y-22140D01*
X21358Y-22008D01*
X21185Y-21936D01*
X20998Y-21936D01*
X20826Y-22007D01*
X20693Y-22139D01*
X20622Y-22312D01*
X20621Y-22499D01*
X20693Y-22672D01*
X20825Y-22804D01*
X20998Y-22876D01*
X21185Y-22876D01*
X21357Y-22805D01*
X21490Y-22673D01*
X21561Y-22500D01*
X21562Y-22313D01*
X21562Y-24548D01*
X20855Y-24548D01*
X20855Y-23020D01*
X20783Y-22847D01*
X20651Y-22715D01*
X20478Y-22643D01*
X20291Y-22643D01*
X20119Y-22714D01*
X19986Y-22847D01*
X19915Y-23019D01*
X19914Y-23206D01*
X19986Y-23379D01*
X20118Y-23511D01*
X20291Y-23583D01*
X20478Y-23583D01*
X20650Y-23512D01*
X20783Y-23380D01*
X20854Y-23207D01*
X20855Y-23020D01*
X20855Y-24548D01*
X20058Y-24548D01*
X19791Y-24282D01*
X19943Y-24219D01*
X20076Y-24087D01*
X20147Y-23914D01*
X20147Y-23727D01*
X20076Y-23554D01*
X19944Y-23422D01*
X19771Y-23350D01*
X19584Y-23350D01*
X19411Y-23422D01*
X19279Y-23554D01*
X19216Y-23706D01*
X19026Y-23517D01*
X19026Y-23087D01*
X22737Y-19377D01*
X22731Y-19390D01*
X22731Y-19527D01*
X22784Y-19654D01*
X22881Y-19751D01*
X23008Y-19803D01*
X23040Y-19803D01*
X23071Y-19835D01*
X22947Y-19886D01*
X22815Y-20018D01*
X22743Y-20191D01*
X22743Y-20378D01*
X22814Y-20551D01*
X22946Y-20683D01*
X23119Y-20755D01*
X23306Y-20755D01*
X23479Y-20683D01*
X23611Y-20551D01*
X23663Y-20427D01*
X23948Y-20712D01*
X23829Y-20761D01*
X23690Y-20900D01*
X23614Y-21082D01*
X23614Y-21279D01*
X23689Y-21461D01*
X23829Y-21601D01*
X24010Y-21676D01*
X24207Y-21676D01*
X24389Y-21601D01*
X24529Y-21462D01*
X24578Y-21342D01*
X24790Y-21553D01*
X24261Y-22083D01*
X24202Y-22170D01*
X24181Y-22273D01*
X24181Y-22773D01*
X24202Y-22877D01*
X24261Y-22964D01*
X24641Y-23345D01*
X24641Y-23377D01*
X24694Y-23504D01*
X24791Y-23601D01*
X24906Y-23648D01*
X24573Y-23648D01*
X24562Y-23621D01*
X24414Y-23474D01*
X24221Y-23394D01*
X24012Y-23393D01*
X23897Y-23441D01*
X23897Y-21790D01*
X23822Y-21608D01*
X23683Y-21469D01*
X23501Y-21393D01*
X23304Y-21393D01*
X23122Y-21468D01*
X22983Y-21607D01*
X22976Y-21624D01*
X22976Y-20899D01*
X22904Y-20726D01*
X22772Y-20594D01*
X22600Y-20522D01*
X22413Y-20522D01*
X22240Y-20593D01*
X22108Y-20725D01*
X22036Y-20898D01*
X22036Y-21085D01*
X22107Y-21258D01*
X22239Y-21390D01*
X22412Y-21462D01*
X22599Y-21462D01*
X22772Y-21390D01*
X22904Y-21258D01*
X22976Y-21086D01*
X22976Y-20899D01*
X22976Y-21624D01*
X22907Y-21789D01*
X22907Y-21986D01*
X22982Y-22168D01*
X23121Y-22308D01*
X23303Y-22383D01*
X23500Y-22383D01*
X23682Y-22308D01*
X23822Y-22169D01*
X23897Y-21987D01*
X23897Y-21790D01*
X23897Y-23441D01*
X23819Y-23473D01*
X23672Y-23621D01*
X23616Y-23754D01*
X23562Y-23621D01*
X23414Y-23474D01*
X23221Y-23394D01*
X23012Y-23393D01*
X22819Y-23473D01*
X22672Y-23621D01*
X22592Y-23814D01*
X22591Y-24022D01*
X22671Y-24215D01*
X22819Y-24363D01*
X23012Y-24443D01*
X23220Y-24444D01*
X23413Y-24364D01*
X23561Y-24216D01*
X23616Y-24083D01*
X23671Y-24215D01*
X23819Y-24363D01*
X24012Y-24443D01*
X24220Y-24444D01*
X24413Y-24364D01*
X24561Y-24216D01*
X24573Y-24188D01*
X25130Y-24188D01*
X25233Y-24168D01*
X25233Y-24168D01*
X25321Y-24109D01*
X25690Y-23740D01*
X25743Y-23762D01*
X25926Y-23762D01*
X25925Y-23763D01*
X25978Y-23864D01*
X26479Y-23864D01*
X26508Y-23894D01*
X26558Y-23844D01*
X26529Y-23815D01*
X26529Y-23314D01*
X26427Y-23261D01*
X26426Y-23261D01*
X26427Y-23079D01*
X26410Y-23038D01*
X26450Y-23055D01*
X26633Y-23055D01*
X26633Y-23056D01*
X26685Y-23157D01*
X27186Y-23157D01*
X27216Y-23186D01*
X27265Y-23137D01*
X27236Y-23108D01*
X27236Y-22607D01*
X27134Y-22554D01*
X27133Y-22554D01*
X27134Y-22372D01*
X27117Y-22331D01*
X27157Y-22348D01*
X27340Y-22348D01*
X27340Y-22348D01*
X27393Y-22450D01*
X27893Y-22450D01*
X27923Y-22479D01*
X27972Y-22430D01*
X27943Y-22400D01*
X27943Y-21900D01*
X27841Y-21847D01*
X27841Y-21847D01*
X27841Y-21665D01*
X27825Y-21626D01*
X27863Y-21642D01*
X28046Y-21642D01*
X28045Y-21643D01*
X28098Y-21744D01*
X28599Y-21744D01*
X28628Y-21774D01*
X28678Y-21724D01*
X28649Y-21695D01*
X28649Y-21194D01*
X28547Y-21141D01*
X28546Y-21141D01*
X28547Y-20959D01*
X28530Y-20918D01*
X28570Y-20935D01*
X28753Y-20935D01*
X28753Y-20936D01*
X28805Y-21037D01*
X29306Y-21037D01*
X29336Y-21066D01*
X29385Y-21017D01*
X29356Y-20988D01*
X29356Y-20487D01*
X29254Y-20434D01*
X29253Y-20434D01*
X29254Y-20252D01*
X29237Y-20211D01*
X29277Y-20228D01*
X29460Y-20228D01*
X29460Y-20228D01*
X29513Y-20330D01*
X30013Y-20330D01*
X30043Y-20359D01*
X30092Y-20310D01*
X30063Y-20280D01*
X30063Y-19780D01*
X29961Y-19727D01*
X29961Y-19727D01*
X29961Y-19545D01*
X29945Y-19506D01*
X29983Y-19522D01*
X30166Y-19522D01*
X30165Y-19523D01*
X30218Y-19624D01*
X30719Y-19624D01*
X30748Y-19654D01*
X30798Y-19604D01*
X30769Y-19575D01*
X30769Y-19074D01*
X30667Y-19021D01*
X30666Y-19021D01*
X30667Y-18839D01*
X30650Y-18798D01*
X30690Y-18815D01*
X30873Y-18815D01*
X30873Y-18816D01*
X30925Y-18917D01*
X31426Y-18917D01*
X31456Y-18946D01*
X31505Y-18897D01*
X31476Y-18868D01*
X31476Y-18367D01*
X31374Y-18314D01*
X31373Y-18314D01*
X31374Y-18132D01*
X31357Y-18091D01*
X31397Y-18108D01*
X31580Y-18108D01*
X31580Y-18108D01*
X31633Y-18210D01*
X32133Y-18210D01*
X32163Y-18239D01*
X32212Y-18190D01*
X32183Y-18160D01*
X32183Y-17660D01*
X32081Y-17607D01*
X32081Y-17607D01*
X32081Y-17425D01*
X31994Y-17215D01*
X31849Y-17070D01*
X32213Y-17070D01*
X32285Y-17040D01*
X32340Y-16985D01*
X32369Y-16913D01*
X32370Y-16836D01*
X32370Y-16738D01*
X32434Y-16894D01*
X32533Y-16916D01*
X32850Y-16600D01*
X32533Y-16283D01*
X32434Y-16305D01*
X32370Y-16473D01*
X32370Y-16286D01*
X32340Y-16214D01*
X32285Y-16159D01*
X32213Y-16130D01*
X32140Y-16129D01*
X32265Y-16005D01*
X32329Y-15850D01*
X32329Y-15859D01*
X32401Y-16033D01*
X32500Y-16055D01*
X32817Y-15738D01*
X32500Y-15422D01*
X32401Y-15444D01*
X32330Y-15629D01*
X32265Y-15473D01*
X32133Y-15340D01*
X31960Y-15269D01*
X31838Y-15268D01*
X31898Y-15209D01*
X31960Y-15209D01*
X32132Y-15137D01*
X32265Y-15005D01*
X32336Y-14832D01*
X32337Y-14645D01*
X32265Y-14473D01*
X32133Y-14340D01*
X31960Y-14269D01*
X31773Y-14268D01*
X31601Y-14340D01*
X31468Y-14472D01*
X31397Y-14645D01*
X31396Y-14832D01*
X31430Y-14913D01*
X30261Y-16082D01*
X30261Y-15426D01*
X30186Y-15244D01*
X30047Y-15105D01*
X30047Y-15105D01*
X30047Y-13828D01*
X29976Y-13655D01*
X29843Y-13522D01*
X29671Y-13451D01*
X29484Y-13451D01*
X29311Y-13522D01*
X29179Y-13654D01*
X29107Y-13827D01*
X29107Y-14014D01*
X29178Y-14187D01*
X29310Y-14319D01*
X29483Y-14391D01*
X29670Y-14391D01*
X29843Y-14319D01*
X29975Y-14187D01*
X30047Y-14015D01*
X30047Y-13828D01*
X30047Y-15105D01*
X29865Y-15029D01*
X29668Y-15029D01*
X29486Y-15104D01*
X29347Y-15244D01*
X29340Y-15260D01*
X29340Y-14535D01*
X29268Y-14362D01*
X29136Y-14230D01*
X28964Y-14158D01*
X28777Y-14158D01*
X28604Y-14229D01*
X28472Y-14361D01*
X28400Y-14534D01*
X28400Y-14721D01*
X28471Y-14894D01*
X28603Y-15026D01*
X28776Y-15098D01*
X28963Y-15098D01*
X29136Y-15026D01*
X29268Y-14894D01*
X29340Y-14722D01*
X29340Y-14535D01*
X29340Y-15260D01*
X29271Y-15425D01*
X29271Y-15622D01*
X29346Y-15804D01*
X29485Y-15944D01*
X29667Y-16019D01*
X29864Y-16019D01*
X30046Y-15944D01*
X30186Y-15805D01*
X30261Y-15623D01*
X30261Y-15426D01*
X30261Y-16082D01*
X29554Y-16789D01*
X29554Y-16133D01*
X29479Y-15951D01*
X29340Y-15812D01*
X29158Y-15736D01*
X28961Y-15736D01*
X28779Y-15811D01*
X28640Y-15951D01*
X28633Y-15967D01*
X28633Y-15242D01*
X28561Y-15069D01*
X28429Y-14937D01*
X28257Y-14865D01*
X28070Y-14865D01*
X27897Y-14936D01*
X27764Y-15068D01*
X27693Y-15241D01*
X27693Y-15428D01*
X27764Y-15601D01*
X27896Y-15733D01*
X28069Y-15805D01*
X28256Y-15805D01*
X28429Y-15734D01*
X28561Y-15602D01*
X28633Y-15429D01*
X28633Y-15242D01*
X28633Y-15967D01*
X28564Y-16132D01*
X28564Y-16329D01*
X28639Y-16511D01*
X28778Y-16651D01*
X28960Y-16726D01*
X29157Y-16726D01*
X29339Y-16651D01*
X29478Y-16512D01*
X29554Y-16330D01*
X29554Y-16133D01*
X29554Y-16789D01*
X28847Y-17496D01*
X28847Y-16840D01*
X28772Y-16658D01*
X28633Y-16519D01*
X28451Y-16444D01*
X28254Y-16443D01*
X28072Y-16519D01*
X27933Y-16658D01*
X27926Y-16675D01*
X27926Y-15949D01*
X27854Y-15776D01*
X27722Y-15644D01*
X27549Y-15572D01*
X27362Y-15572D01*
X27190Y-15643D01*
X27057Y-15775D01*
X26986Y-15948D01*
X26985Y-16135D01*
X27057Y-16308D01*
X27189Y-16440D01*
X27362Y-16512D01*
X27549Y-16512D01*
X27721Y-16441D01*
X27854Y-16309D01*
X27925Y-16136D01*
X27926Y-15949D01*
X27926Y-16675D01*
X27857Y-16840D01*
X27857Y-17037D01*
X27932Y-17219D01*
X28071Y-17358D01*
X28253Y-17433D01*
X28450Y-17434D01*
X28632Y-17358D01*
X28771Y-17219D01*
X28847Y-17037D01*
X28847Y-16840D01*
X28847Y-17496D01*
X28140Y-18203D01*
X28140Y-17548D01*
X28065Y-17366D01*
X27926Y-17226D01*
X27744Y-17151D01*
X27547Y-17150D01*
X27365Y-17226D01*
X27225Y-17365D01*
X27218Y-17382D01*
X27218Y-16656D01*
X27147Y-16483D01*
X27015Y-16351D01*
X26842Y-16279D01*
X26655Y-16279D01*
X26483Y-16350D01*
X26350Y-16483D01*
X26278Y-16655D01*
X26278Y-16842D01*
X26342Y-16997D01*
X26336Y-16991D01*
X26162Y-16919D01*
X26076Y-16973D01*
X26076Y-17372D01*
X26047Y-17401D01*
X26096Y-17451D01*
X26126Y-17421D01*
X26524Y-17421D01*
X26579Y-17336D01*
X26498Y-17154D01*
X26655Y-17219D01*
X26841Y-17219D01*
X27014Y-17148D01*
X27147Y-17016D01*
X27218Y-16843D01*
X27218Y-16656D01*
X27218Y-17382D01*
X27150Y-17547D01*
X27150Y-17744D01*
X27225Y-17926D01*
X27364Y-18065D01*
X27546Y-18140D01*
X27743Y-18141D01*
X27925Y-18065D01*
X28064Y-17926D01*
X28140Y-17744D01*
X28140Y-17548D01*
X28140Y-18203D01*
X27433Y-18910D01*
X27433Y-18255D01*
X27358Y-18073D01*
X27219Y-17933D01*
X27037Y-17858D01*
X26840Y-17858D01*
X26658Y-17933D01*
X26579Y-18012D01*
X26579Y-17577D01*
X26524Y-17491D01*
X26076Y-17491D01*
X26076Y-17939D01*
X26162Y-17993D01*
X26358Y-17906D01*
X26506Y-17751D01*
X26579Y-17577D01*
X26579Y-18012D01*
X26518Y-18072D01*
X26443Y-18254D01*
X26443Y-18451D01*
X26518Y-18633D01*
X26657Y-18772D01*
X26839Y-18848D01*
X27036Y-18848D01*
X27218Y-18773D01*
X27357Y-18633D01*
X27433Y-18452D01*
X27433Y-18255D01*
X27433Y-18910D01*
X26726Y-19617D01*
X26726Y-18962D01*
X26651Y-18780D01*
X26511Y-18640D01*
X26330Y-18565D01*
X26133Y-18565D01*
X26036Y-18605D01*
X26036Y-17511D01*
X26006Y-17482D01*
X26006Y-17421D01*
X26006Y-16973D01*
X25921Y-16919D01*
X25724Y-17006D01*
X25576Y-17162D01*
X25504Y-17336D01*
X25558Y-17421D01*
X26006Y-17421D01*
X26006Y-17482D01*
X25986Y-17462D01*
X25957Y-17491D01*
X25558Y-17491D01*
X25504Y-17577D01*
X25585Y-17758D01*
X25428Y-17693D01*
X25241Y-17693D01*
X25068Y-17765D01*
X24936Y-17897D01*
X24864Y-18069D01*
X24864Y-18256D01*
X24936Y-18429D01*
X25068Y-18562D01*
X25240Y-18633D01*
X25427Y-18633D01*
X25600Y-18562D01*
X25732Y-18430D01*
X25804Y-18257D01*
X25804Y-18070D01*
X25740Y-17915D01*
X25747Y-17921D01*
X25921Y-17993D01*
X26006Y-17939D01*
X26006Y-17541D01*
X26036Y-17511D01*
X26036Y-18605D01*
X26006Y-18617D01*
X25951Y-18640D01*
X25811Y-18779D01*
X25736Y-18961D01*
X25736Y-19158D01*
X25811Y-19340D01*
X25950Y-19479D01*
X26132Y-19555D01*
X26329Y-19555D01*
X26511Y-19480D01*
X26650Y-19341D01*
X26726Y-19159D01*
X26726Y-18962D01*
X26726Y-19617D01*
X26019Y-20324D01*
X26019Y-19669D01*
X25943Y-19487D01*
X25804Y-19348D01*
X25622Y-19272D01*
X25426Y-19272D01*
X25244Y-19347D01*
X25104Y-19486D01*
X25097Y-19503D01*
X25097Y-18777D01*
X25026Y-18605D01*
X24894Y-18472D01*
X24721Y-18401D01*
X24534Y-18400D01*
X24361Y-18472D01*
X24229Y-18604D01*
X24157Y-18777D01*
X24157Y-18964D01*
X24228Y-19136D01*
X24361Y-19269D01*
X24533Y-19340D01*
X24720Y-19341D01*
X24893Y-19269D01*
X25025Y-19137D01*
X25097Y-18964D01*
X25097Y-18777D01*
X25097Y-19503D01*
X25029Y-19668D01*
X25028Y-19865D01*
X25104Y-20047D01*
X25243Y-20186D01*
X25425Y-20262D01*
X25622Y-20262D01*
X25804Y-20187D01*
X25943Y-20048D01*
X26018Y-19866D01*
X26019Y-19669D01*
X26019Y-20324D01*
X25171Y-21172D01*
X24953Y-20953D01*
X25096Y-20894D01*
X25236Y-20755D01*
X25311Y-20573D01*
X25312Y-20376D01*
X25236Y-20194D01*
X25097Y-20055D01*
X24915Y-19979D01*
X24718Y-19979D01*
X24536Y-20054D01*
X24397Y-20193D01*
X24337Y-20337D01*
X24037Y-20038D01*
X24186Y-19976D01*
X24318Y-19844D01*
X24390Y-19671D01*
X24390Y-19484D01*
X24319Y-19312D01*
X24187Y-19179D01*
X24014Y-19108D01*
X23827Y-19107D01*
X23654Y-19179D01*
X23522Y-19311D01*
X23460Y-19460D01*
X23421Y-19422D01*
X23421Y-19390D01*
X23369Y-19263D01*
X23272Y-19166D01*
X23145Y-19114D01*
X23008Y-19113D01*
X22995Y-19119D01*
X29337Y-12776D01*
X30111Y-12776D01*
X30018Y-12815D01*
X29886Y-12947D01*
X29814Y-13120D01*
X29814Y-13307D01*
X29885Y-13479D01*
X30017Y-13612D01*
X30190Y-13684D01*
X30377Y-13684D01*
X30550Y-13612D01*
X30682Y-13480D01*
X30754Y-13308D01*
X30754Y-13121D01*
X30683Y-12948D01*
X30551Y-12815D01*
X30457Y-12776D01*
X30596Y-12776D01*
X30724Y-12905D01*
X30897Y-12976D01*
X31084Y-12977D01*
X31257Y-12905D01*
X31389Y-12773D01*
X31461Y-12600D01*
X31461Y-12413D01*
X31390Y-12241D01*
X31258Y-12108D01*
X31164Y-12069D01*
X31304Y-12069D01*
X31432Y-12198D01*
X31604Y-12269D01*
X31791Y-12269D01*
X31964Y-12198D01*
X32096Y-12066D01*
X32168Y-11893D01*
X32168Y-11706D01*
X32097Y-11534D01*
X31965Y-11401D01*
X31871Y-11362D01*
X32011Y-11362D01*
X32139Y-11490D01*
X32311Y-11562D01*
X32498Y-11562D01*
X32671Y-11491D01*
X32803Y-11359D01*
X32875Y-11186D01*
X32875Y-10999D01*
X32804Y-10826D01*
X32672Y-10694D01*
X32499Y-10622D01*
X32312Y-10622D01*
X32139Y-10694D01*
X32010Y-10822D01*
X30091Y-10822D01*
X30099Y-10814D01*
X30151Y-10687D01*
X30151Y-10675D01*
X31888Y-8939D01*
X32021Y-8994D01*
X32218Y-8994D01*
X32400Y-8919D01*
X32425Y-8894D01*
X33249Y-9719D01*
X33249Y-15345D01*
X33230Y-15325D01*
X33183Y-15372D01*
X33161Y-15273D01*
X32961Y-15196D01*
X32746Y-15201D01*
X32572Y-15273D01*
X32550Y-15372D01*
X32866Y-15689D01*
X32872Y-15683D01*
X32921Y-15733D01*
X32916Y-15738D01*
X32921Y-15744D01*
X32872Y-15794D01*
X32866Y-15788D01*
X32550Y-16105D01*
X32572Y-16204D01*
X32588Y-16210D01*
X32583Y-16233D01*
X32900Y-16550D01*
X32905Y-16544D01*
X32955Y-16594D01*
X32949Y-16600D01*
X32955Y-16605D01*
X32905Y-16655D01*
X32900Y-16649D01*
X32583Y-16966D01*
X32605Y-17065D01*
X32805Y-17142D01*
X33020Y-17137D01*
X33194Y-17065D01*
X33216Y-16966D01*
X33216Y-16966D01*
X33249Y-16999D01*
X33249Y-19628D01*
X33216Y-19614D01*
X33072Y-19555D01*
X32983Y-19609D01*
X32983Y-20033D01*
X32953Y-20062D01*
X33003Y-20112D01*
X33032Y-20082D01*
X33249Y-20082D01*
X33249Y-20152D01*
X33032Y-20152D01*
X33003Y-20123D01*
X32953Y-20172D01*
X32983Y-20202D01*
X32983Y-20626D01*
X33072Y-20680D01*
X33249Y-20602D01*
X33249Y-24783D01*
M02*
