G04 (created by PCBNEW (2013-dec-23)-stable) date Thu 03 Jul 2014 07:48:38 AM MDT*
%MOIN*%
G04 Gerber Fmt 3.4, Leading zero omitted, Abs format*
%FSLAX34Y34*%
G01*
G70*
G90*
G04 APERTURE LIST*
%ADD10C,0.00590551*%
%ADD11C,0.055*%
%ADD12C,0.066*%
%ADD13C,0.07*%
%ADD14C,0.06*%
%ADD15C,0.16*%
%ADD16R,0.035X0.045*%
%ADD17C,0.075*%
%ADD18R,0.055X0.055*%
G04 APERTURE END LIST*
G54D10*
G54D11*
X32866Y-15738D03*
X31866Y-15738D03*
X31866Y-14738D03*
G54D12*
X24116Y-23918D03*
X23116Y-23918D03*
G54D11*
X28163Y-6850D03*
X27456Y-7557D03*
X26748Y-8264D03*
X26041Y-8971D03*
X25334Y-9678D03*
X24627Y-10385D03*
X23920Y-11092D03*
X23213Y-11799D03*
X22506Y-12506D03*
X21799Y-13214D03*
X21092Y-13921D03*
X20384Y-14628D03*
X19677Y-15335D03*
X18970Y-16042D03*
X18263Y-16749D03*
X17556Y-17456D03*
X16849Y-18163D03*
X16142Y-18870D03*
X15435Y-19578D03*
X14728Y-20285D03*
X18970Y-24527D03*
X19677Y-23820D03*
X20384Y-23113D03*
X21092Y-22406D03*
X21799Y-21699D03*
X22506Y-20992D03*
X23213Y-20285D03*
X23920Y-19578D03*
X24627Y-18870D03*
X25334Y-18163D03*
X26041Y-17456D03*
X26748Y-16749D03*
X27456Y-16042D03*
X28163Y-15335D03*
X28870Y-14628D03*
X29577Y-13921D03*
X30284Y-13214D03*
X30991Y-12506D03*
X31698Y-11799D03*
X32405Y-11092D03*
G54D13*
X24216Y-6538D03*
X23216Y-6538D03*
G54D14*
X18659Y-14296D03*
X19366Y-13588D03*
X20074Y-12881D03*
X27998Y-25067D03*
X28705Y-24360D03*
X29412Y-23653D03*
X30119Y-22946D03*
X30826Y-22238D03*
X31534Y-21531D03*
X32241Y-20824D03*
X32948Y-20117D03*
G54D15*
X31889Y-24015D03*
X15354Y-7480D03*
G54D14*
X30706Y-7085D03*
X31413Y-6378D03*
X31413Y-7792D03*
X32120Y-7085D03*
X32120Y-8499D03*
X32827Y-7792D03*
X16327Y-24442D03*
X15620Y-25149D03*
X15620Y-23735D03*
X14913Y-24442D03*
X14913Y-23028D03*
X14206Y-23735D03*
G54D16*
X15716Y-15588D03*
X15216Y-15588D03*
X14716Y-15588D03*
X14216Y-15588D03*
G54D14*
X19867Y-18353D03*
X20574Y-17646D03*
X21281Y-16938D03*
X21988Y-16231D03*
X22695Y-15524D03*
X23402Y-14817D03*
X24109Y-14110D03*
X24816Y-13403D03*
X25524Y-12696D03*
X26231Y-11989D03*
X29766Y-15524D03*
X29059Y-16231D03*
X28352Y-16938D03*
X27645Y-17646D03*
X26938Y-18353D03*
X26231Y-19060D03*
X25524Y-19767D03*
X24816Y-20474D03*
X24109Y-21181D03*
X23402Y-21888D03*
G54D10*
G36*
X19433Y-14229D02*
X19751Y-14547D01*
X19574Y-14724D01*
X19256Y-14406D01*
X19433Y-14229D01*
X19433Y-14229D01*
G37*
G36*
X19009Y-14653D02*
X19327Y-14971D01*
X19150Y-15148D01*
X18832Y-14830D01*
X19009Y-14653D01*
X19009Y-14653D01*
G37*
G36*
X20200Y-14098D02*
X19882Y-13780D01*
X20059Y-13603D01*
X20377Y-13921D01*
X20200Y-14098D01*
X20200Y-14098D01*
G37*
G36*
X20624Y-13674D02*
X20306Y-13356D01*
X20483Y-13179D01*
X20801Y-13497D01*
X20624Y-13674D01*
X20624Y-13674D01*
G37*
G54D17*
X18579Y-11936D03*
X19286Y-11229D03*
X19994Y-10522D03*
X17872Y-11229D03*
X18579Y-10522D03*
X19286Y-9815D03*
X17165Y-10522D03*
X17872Y-9815D03*
X18579Y-9108D03*
X20699Y-9816D03*
X21406Y-9109D03*
X22114Y-8402D03*
X19992Y-9109D03*
X20699Y-8402D03*
X21406Y-7695D03*
X19285Y-8402D03*
X19992Y-7695D03*
X20699Y-6988D03*
X16459Y-14056D03*
X17166Y-13349D03*
X17874Y-12642D03*
X15752Y-13349D03*
X16459Y-12642D03*
X17166Y-11935D03*
X15045Y-12642D03*
X15752Y-11935D03*
X16459Y-11228D03*
X30804Y-16831D03*
X30096Y-17538D03*
X29389Y-18245D03*
X31511Y-17538D03*
X30804Y-18245D03*
X30096Y-18952D03*
X32218Y-18245D03*
X31511Y-18952D03*
X30804Y-19659D03*
X28684Y-18951D03*
X27976Y-19658D03*
X27269Y-20365D03*
X29391Y-19658D03*
X28684Y-20365D03*
X27976Y-21072D03*
X30098Y-20365D03*
X29391Y-21072D03*
X28684Y-21779D03*
X26564Y-21071D03*
X25856Y-21778D03*
X25149Y-22485D03*
X27271Y-21778D03*
X26564Y-22485D03*
X25856Y-23192D03*
X27978Y-22485D03*
X27271Y-23192D03*
X26564Y-23899D03*
G54D18*
X31900Y-16600D03*
G54D11*
X32900Y-16600D03*
G54D10*
G36*
X18453Y-19257D02*
X18842Y-19646D01*
X18453Y-20035D01*
X18064Y-19646D01*
X18453Y-19257D01*
X18453Y-19257D01*
G37*
G54D11*
X17746Y-20353D03*
G54D10*
G36*
X15542Y-14353D02*
X15153Y-14742D01*
X14764Y-14353D01*
X15153Y-13964D01*
X15542Y-14353D01*
X15542Y-14353D01*
G37*
G54D11*
X14446Y-13646D03*
M02*
