999
dxflib 3.3.4.0
  0
SECTION
  2
HEADER
  9
$ACADVER
  1
AC1015
  9
$HANDSEED
  5
FFFF
  9
$DIMADEC
 70
0
  9
$DIMASZ
 40
2.5
  9
$DIMAUNIT
 70
0
  9
$DIMAZIN
 70
2
  9
$DIMDEC
 70
4
  9
$DIMEXE
 40
1.25
  9
$DIMEXO
 40
0.625
  9
$DIMGAP
 40
0.625
  9
$DIMLUNIT
 70
2
  9
$DIMTSZ
 40
0.0
  9
$DIMTXT
 40
2.5
  9
$DIMZIN
 70
8
  9
$DWGCODEPAGE
  3
ANSI_1252
  9
$INSUNITS
 70
4
  9
$LTSCALE
 40
1.0
  0
ENDSEC
  0
SECTION
  2
TABLES
  0
TABLE
  2
VPORT
  5
8
100
AcDbSymbolTable
 70
1
  0
VPORT
  5
30
100
AcDbSymbolTableRecord
100
AcDbViewportTableRecord
  2
*Active
 70
0
 10
0.0
 20
0.0
 11
1.0
 21
1.0
 12
286.3055555555554861
 22
148.5
 13
0.0
 23
0.0
 14
10.0
 24
10.0
 15
10.0
 25
10.0
 16
0.0
 26
0.0
 36
1.0
 17
0.0
 27
0.0
 37
0.0
 40
297.0
 41
1.92798353909465
 42
50.0
 43
0.0
 44
0.0
 50
0.0
 51
0.0
 71
0
 72
100
 73
1
 74
3
 75
1
 76
1
 77
0
 78
0
281
0
 65
1
110
0.0
120
0.0
130
0.0
111
1.0
121
0.0
131
0.0
112
0.0
122
1.0
132
0.0
 79
0
146
0.0
  0
ENDTAB
  0
TABLE
  2
LTYPE
  5
5
100
AcDbSymbolTable
 70
21
  0
LTYPE
  5
16
100
AcDbSymbolTableRecord
100
AcDbLinetypeTableRecord
  2
CONTINUOUS
 70
0
  3
Solid line
 72
65
 73
0
 40
0.0
  0
LTYPE
  5
31
100
AcDbSymbolTableRecord
100
AcDbLinetypeTableRecord
  2
CENTER2
 70
0
  3
Center (.5x) ___ _ ___ _ ___ _ ___ _ ___ _ ___
 72
65
 73
4
 40
28.5749999999999993
 49
19.0500000000000007
 74
0
 49
-3.1749999999999998
 74
0
 49
3.1749999999999998
 74
0
 49
-3.1749999999999998
 74
0
  0
LTYPE
  5
32
100
AcDbSymbolTableRecord
100
AcDbLinetypeTableRecord
  2
DIVIDEX2
 70
0
  3
Divide (2x) ________  .  .  ________  .  .  _
 72
65
 73
6
 40
63.5
 49
25.3999999999999986
 74
0
 49
-12.6999999999999993
 74
0
 49
0.0
 74
0
 49
-12.6999999999999993
 74
0
 49
0.0
 74
0
 49
-12.6999999999999993
 74
0
  0
LTYPE
  5
33
100
AcDbSymbolTableRecord
100
AcDbLinetypeTableRecord
  2
DOT2
 70
0
  3
Dot (.5x) .....................................
 72
65
 73
2
 40
3.1749999999999998
 49
0.0
 74
0
 49
-3.1749999999999998
 74
0
  0
LTYPE
  5
34
100
AcDbSymbolTableRecord
100
AcDbLinetypeTableRecord
  2
DASHDOT2
 70
0
  3
Dash dot (.5x) _._._._._._._._._._._._._._._.
 72
65
 73
4
 40
12.6999999999999993
 49
6.3499999999999996
 74
0
 49
-3.1749999999999998
 74
0
 49
0.0
 74
0
 49
-3.1749999999999998
 74
0
  0
LTYPE
  5
35
100
AcDbSymbolTableRecord
100
AcDbLinetypeTableRecord
  2
DIVIDE
 70
0
  3
Divide ____ . . ____ . . ____ . . ____ . . ____
 72
65
 73
6
 40
31.75
 49
12.6999999999999993
 74
0
 49
-6.3499999999999996
 74
0
 49
0.0
 74
0
 49
-6.3499999999999996
 74
0
 49
0.0
 74
0
 49
-6.3499999999999996
 74
0
  0
LTYPE
  5
36
100
AcDbSymbolTableRecord
100
AcDbLinetypeTableRecord
  2
DASHDOT
 70
0
  3
Dash dot __ . __ . __ . __ . __ . __ . __ . __
 72
65
 73
4
 40
25.3999999999999986
 49
12.6999999999999993
 74
0
 49
-6.3499999999999996
 74
0
 49
0.0
 74
0
 49
-6.3499999999999996
 74
0
  0
LTYPE
  5
37
100
AcDbSymbolTableRecord
100
AcDbLinetypeTableRecord
  2
BORDER
 70
0
  3
Border __ __ . __ __ . __ __ . __ __ . __ __ .
 72
65
 73
6
 40
44.4500000000000028
 49
12.6999999999999993
 74
0
 49
-6.3499999999999996
 74
0
 49
12.6999999999999993
 74
0
 49
-6.3499999999999996
 74
0
 49
0.0
 74
0
 49
-6.3499999999999996
 74
0
  0
LTYPE
  5
38
100
AcDbSymbolTableRecord
100
AcDbLinetypeTableRecord
  2
DASHDOTX2
 70
0
  3
Dash dot (2x) ____  .  ____  .  ____  .  ___
 72
65
 73
4
 40
50.7999999999999972
 49
25.3999999999999986
 74
0
 49
-12.6999999999999993
 74
0
 49
0.0
 74
0
 49
-12.6999999999999993
 74
0
  0
LTYPE
  5
39
100
AcDbSymbolTableRecord
100
AcDbLinetypeTableRecord
  2
CENTERX2
 70
0
  3
Center (2x) ________  __  ________  __  _____
 72
65
 73
4
 40
101.5999999999999943
 49
63.5
 74
0
 49
-12.6999999999999993
 74
0
 49
12.6999999999999993
 74
0
 49
-12.6999999999999993
 74
0
  0
LTYPE
  5
3A
100
AcDbSymbolTableRecord
100
AcDbLinetypeTableRecord
  2
BORDER2
 70
0
  3
Border (.5x) __.__.__.__.__.__.__.__.__.__.__.
 72
65
 73
6
 40
22.2250000000000014
 49
6.3499999999999996
 74
0
 49
-3.1749999999999998
 74
0
 49
6.3499999999999996
 74
0
 49
-3.1749999999999998
 74
0
 49
0.0
 74
0
 49
-3.1749999999999998
 74
0
  0
LTYPE
  5
3B
100
AcDbSymbolTableRecord
100
AcDbLinetypeTableRecord
  2
BORDERX2
 70
0
  3
Border (2x) ____  ____  .  ____  ____  .  ___
 72
65
 73
6
 40
88.9000000000000057
 49
25.3999999999999986
 74
0
 49
-12.6999999999999993
 74
0
 49
25.3999999999999986
 74
0
 49
-12.6999999999999993
 74
0
 49
0.0
 74
0
 49
-12.6999999999999993
 74
0
  0
LTYPE
  5
14
100
AcDbSymbolTableRecord
100
AcDbLinetypeTableRecord
  2
BYBLOCK
 70
0
  3

 72
65
 73
0
 40
0.0
  0
LTYPE
  5
15
100
AcDbSymbolTableRecord
100
AcDbLinetypeTableRecord
  2
BYLAYER
 70
0
  3

 72
65
 73
0
 40
0.0
  0
LTYPE
  5
3C
100
AcDbSymbolTableRecord
100
AcDbLinetypeTableRecord
  2
DASHED2
 70
0
  3
Dashed (.5x) _ _ _ _ _ _ _ _ _ _ _ _ _ _ _ _ _
 72
65
 73
2
 40
9.5250000000000004
 49
6.3499999999999996
 74
0
 49
-3.1749999999999998
 74
0
  0
LTYPE
  5
3D
100
AcDbSymbolTableRecord
100
AcDbLinetypeTableRecord
  2
CENTER
 70
0
  3
Center ____ _ ____ _ ____ _ ____ _ ____ _ ____
 72
65
 73
4
 40
50.7999999999999972
 49
31.75
 74
0
 49
-6.3499999999999996
 74
0
 49
6.3499999999999996
 74
0
 49
-6.3499999999999996
 74
0
  0
LTYPE
  5
3E
100
AcDbSymbolTableRecord
100
AcDbLinetypeTableRecord
  2
DIVIDE2
 70
0
  3
Divide (.5x) __..__..__..__..__..__..__..__.._
 72
65
 73
6
 40
15.875
 49
6.3499999999999996
 74
0
 49
-3.1749999999999998
 74
0
 49
0.0
 74
0
 49
-3.1749999999999998
 74
0
 49
0.0
 74
0
 49
-3.1749999999999998
 74
0
  0
LTYPE
  5
3F
100
AcDbSymbolTableRecord
100
AcDbLinetypeTableRecord
  2
DASHED
 70
0
  3
Dashed __ __ __ __ __ __ __ __ __ __ __ __ __ _
 72
65
 73
2
 40
19.0500000000000007
 49
12.6999999999999993
 74
0
 49
-6.3499999999999996
 74
0
  0
LTYPE
  5
40
100
AcDbSymbolTableRecord
100
AcDbLinetypeTableRecord
  2
DOTX2
 70
0
  3
Dot (2x) .  .  .  .  .  .  .  .  .  .  .  .  .
 72
65
 73
2
 40
12.6999999999999993
 49
0.0
 74
0
 49
-12.6999999999999993
 74
0
  0
LTYPE
  5
41
100
AcDbSymbolTableRecord
100
AcDbLinetypeTableRecord
  2
DASHEDX2
 70
0
  3
Dashed (2x) ____  ____  ____  ____  ____  ___
 72
65
 73
2
 40
38.1000000000000014
 49
25.3999999999999986
 74
0
 49
-12.6999999999999993
 74
0
  0
LTYPE
  5
42
100
AcDbSymbolTableRecord
100
AcDbLinetypeTableRecord
  2
DOT
 70
0
  3
Dot . . . . . . . . . . . . . . . . . . . . . .
 72
65
 73
2
 40
6.3499999999999996
 49
0.0
 74
0
 49
-6.3499999999999996
 74
0
  0
ENDTAB
  0
TABLE
  2
LAYER
  5
2
100
AcDbSymbolTable
 70
10
  0
LAYER
  5
43
100
AcDbSymbolTableRecord
100
AcDbLayerTableRecord
  2
template_dowel
 70
1
 62
-14
420
8388608
  6
CONTINUOUS
370
25
390
F
  0
LAYER
  5
44
100
AcDbSymbolTableRecord
100
AcDbLayerTableRecord
  2
frets
 70
1
 62
-1
420
16711680
  6
CONTINUOUS
370
25
390
F
  0
LAYER
  5
45
100
AcDbSymbolTableRecord
100
AcDbLayerTableRecord
  2
guides_dimensions
 70
1
 62
-5
420
255
  6
DASHED
370
25
390
F
  0
LAYER
  5
46
100
AcDbSymbolTableRecord
100
AcDbLayerTableRecord
  2
printing_alignment_guides
 70
1
 62
-252
420
10526884
  6
CONTINUOUS
370
25
390
F
  0
LAYER
  5
47
100
AcDbSymbolTableRecord
100
AcDbLayerTableRecord
  2
side_bracing
 70
1
 62
-214
420
8388736
  6
CONTINUOUS
370
25
390
F
  0
LAYER
  5
48
100
AcDbSymbolTableRecord
100
AcDbLayerTableRecord
  2
rosette
 70
0
 62
7
420
0
  6
CONTINUOUS
370
25
390
F
  0
LAYER
  5
49
100
AcDbSymbolTableRecord
100
AcDbLayerTableRecord
  2
top_bracing
 70
1
 62
-94
420
32768
  6
CONTINUOUS
370
25
390
F
  0
LAYER
  5
10
100
AcDbSymbolTableRecord
100
AcDbLayerTableRecord
  2
0
 70
0
 62
7
420
0
  6
CONTINUOUS
370
25
390
F
  0
LAYER
  5
4A
100
AcDbSymbolTableRecord
100
AcDbLayerTableRecord
  2
strings
 70
0
 62
7
420
0
  6
CONTINUOUS
370
25
390
F
  0
LAYER
  5
4B
100
AcDbSymbolTableRecord
100
AcDbLayerTableRecord
  2
back_bracing
 70
1
 62
-54
420
8421376
  6
CONTINUOUS
370
25
390
F
  0
ENDTAB
  0
TABLE
  2
STYLE
  5
3
100
AcDbSymbolTable
 70
13
  0
STYLE
  5
4C
100
AcDbSymbolTableRecord
100
AcDbTextStyleTableRecord
  2
Standard
 70
0
 40
0.0
 41
1.0
 50
0.0
 71
0
 42
2.5
  3

  4

1001
ACAD
1000
txt
1071
0
  0
STYLE
  5
4D
100
AcDbSymbolTableRecord
100
AcDbTextStyleTableRecord
  2
textstyle0
 70
0
 40
0.0
 41
1.0
 50
0.0
 71
0
 42
2.5
  3

  4

1001
ACAD
1000
Arial
1071
0
  0
STYLE
  5
4E
100
AcDbSymbolTableRecord
100
AcDbTextStyleTableRecord
  2
textstyle1
 70
0
 40
0.0
 41
1.0
 50
0.0
 71
0
 42
2.5
  3

  4

1001
ACAD
1000
Arial
1071
0
  0
STYLE
  5
4F
100
AcDbSymbolTableRecord
100
AcDbTextStyleTableRecord
  2
textstyle2
 70
0
 40
0.0
 41
1.0
 50
0.0
 71
0
 42
2.5
  3

  4

1001
ACAD
1000
Arial
1071
0
  0
STYLE
  5
50
100
AcDbSymbolTableRecord
100
AcDbTextStyleTableRecord
  2
textstyle3
 70
0
 40
0.0
 41
1.0
 50
0.0
 71
0
 42
2.5
  3

  4

1001
ACAD
1000
Arial
1071
0
  0
STYLE
  5
51
100
AcDbSymbolTableRecord
100
AcDbTextStyleTableRecord
  2
textstyle4
 70
0
 40
0.0
 41
1.0
 50
0.0
 71
0
 42
2.5
  3

  4

1001
ACAD
1000
Arial
1071
0
  0
STYLE
  5
52
100
AcDbSymbolTableRecord
100
AcDbTextStyleTableRecord
  2
textstyle5
 70
0
 40
0.0
 41
1.0
 50
0.0
 71
0
 42
2.5
  3

  4

1001
ACAD
1000
Arial
1071
0
  0
STYLE
  5
53
100
AcDbSymbolTableRecord
100
AcDbTextStyleTableRecord
  2
textstyle6
 70
0
 40
0.0
 41
1.0
 50
0.0
 71
0
 42
2.5
  3

  4

1001
ACAD
1000
Arial
1071
0
  0
STYLE
  5
54
100
AcDbSymbolTableRecord
100
AcDbTextStyleTableRecord
  2
textstyle7
 70
0
 40
0.0
 41
1.0
 50
0.0
 71
0
 42
2.5
  3

  4

1001
ACAD
1000
Arial
1071
0
  0
STYLE
  5
55
100
AcDbSymbolTableRecord
100
AcDbTextStyleTableRecord
  2
textstyle8
 70
0
 40
0.0
 41
1.0
 50
0.0
 71
0
 42
2.5
  3

  4

1001
ACAD
1000
Arial
1071
0
  0
STYLE
  5
56
100
AcDbSymbolTableRecord
100
AcDbTextStyleTableRecord
  2
textstyle9
 70
0
 40
0.0
 41
1.0
 50
0.0
 71
0
 42
2.5
  3

  4

1001
ACAD
1000
Arial
1071
0
  0
STYLE
  5
57
100
AcDbSymbolTableRecord
100
AcDbTextStyleTableRecord
  2
textstyle10
 70
0
 40
0.0
 41
1.0
 50
0.0
 71
0
 42
2.5
  3

  4

1001
ACAD
1000
Arial
1071
0
  0
STYLE
  5
58
100
AcDbSymbolTableRecord
100
AcDbTextStyleTableRecord
  2
textstyle11
 70
0
 40
0.0
 41
1.0
 50
0.0
 71
0
 42
2.5
  3

  4

1001
ACAD
1000
Arial
1071
0
  0
ENDTAB
  0
TABLE
  2
VIEW
  5
6
100
AcDbSymbolTable
 70
0
  0
ENDTAB
  0
TABLE
  2
UCS
  5
7
100
AcDbSymbolTable
 70
0
  0
ENDTAB
  0
TABLE
  2
APPID
  5
9
100
AcDbSymbolTable
 70
1
  0
APPID
  5
12
100
AcDbSymbolTableRecord
100
AcDbRegAppTableRecord
  2
ACAD
 70
0
  0
APPID
  5
59
100
AcDbSymbolTableRecord
100
AcDbRegAppTableRecord
  2
QCAD
 70
0
  0
ENDTAB
  0
TABLE
  2
DIMSTYLE
  5
A
100
AcDbSymbolTable
 70
1
100
AcDbDimStyleTable
 71
0
  0
DIMSTYLE
105
27
100
AcDbSymbolTableRecord
100
AcDbDimStyleTableRecord
  2
Standard
 41
2.5
 42
0.625
 43
3.75
 44
1.25
 70
0
 73
0
 74
0
 77
1
 78
8
140
2.5
141
2.5
143
0.03937007874016
147
0.625
171
3
172
1
271
2
272
2
274
3
278
44
283
0
284
8
340
4C
  0
ENDTAB
  0
TABLE
  2
BLOCK_RECORD
  5
1
100
AcDbSymbolTable
 70
1
  0
BLOCK_RECORD
  5
1F
100
AcDbSymbolTableRecord
100
AcDbBlockTableRecord
  2
*Model_Space
340
22
  0
BLOCK_RECORD
  5
1B
100
AcDbSymbolTableRecord
100
AcDbBlockTableRecord
  2
*Paper_Space
340
1E
  0
BLOCK_RECORD
  5
23
100
AcDbSymbolTableRecord
100
AcDbBlockTableRecord
  2
*Paper_Space0
340
26
  0
BLOCK_RECORD
  5
5A
100
AcDbSymbolTableRecord
100
AcDbBlockTableRecord
  2
tuner
340
0
  0
BLOCK_RECORD
  5
5B
100
AcDbSymbolTableRecord
100
AcDbBlockTableRecord
  2
classical_tuners
340
0
  0
ENDTAB
  0
ENDSEC
  0
SECTION
  2
BLOCKS
  0
BLOCK
  5
20
100
AcDbEntity
  8
0
100
AcDbBlockBegin
  2
*Model_Space
 70
0
 10
0.0
 20
0.0
 30
0.0
  3
*Model_Space
  1

  0
ENDBLK
  5
21
100
AcDbEntity
  8
0
100
AcDbBlockEnd
  0
BLOCK
  5
1C
100
AcDbEntity
 67
1
  8
0
100
AcDbBlockBegin
  2
*Paper_Space
 70
0
 10
0.0
 20
0.0
 30
0.0
  3
*Paper_Space
  1

  0
ENDBLK
  5
1D
100
AcDbEntity
 67
1
  8
0
100
AcDbBlockEnd
  0
BLOCK
  5
24
100
AcDbEntity
  8
0
100
AcDbBlockBegin
  2
*Paper_Space0
 70
0
 10
0.0
 20
0.0
 30
0.0
  3
*Paper_Space0
  1

  0
ENDBLK
  5
25
100
AcDbEntity
  8
0
100
AcDbBlockEnd
  0
BLOCK
  5
5C
100
AcDbEntity
  8
0
100
AcDbBlockBegin
  2
tuner
 70
0
 10
0.0
 20
0.0
 30
0.0
  3
tuner
  1

  0
LINE
  5
5D
100
AcDbEntity
100
AcDbLine
  8
0
 62
256
370
-1
  6
BYLAYER
 10
-19.0
 20
-27.0
 30
0.0
 11
3.0
 21
-27.0
 31
0.0
  0
LINE
  5
5E
100
AcDbEntity
100
AcDbLine
  8
0
 62
256
370
-1
  6
BYLAYER
 10
3.0
 20
-27.0
 30
0.0
 11
3.0
 21
-17.0
 31
0.0
  0
LINE
  5
5F
100
AcDbEntity
100
AcDbLine
  8
0
 62
256
370
-1
  6
BYLAYER
 10
3.0
 20
-17.0
 30
0.0
 11
-19.0
 21
-17.0
 31
0.0
  0
LINE
  5
60
100
AcDbEntity
100
AcDbLine
  8
0
 62
256
370
-1
  6
BYLAYER
 10
-19.0
 20
-17.0
 30
0.0
 11
-19.0
 21
-27.0
 31
0.0
  0
LINE
  5
61
100
AcDbEntity
100
AcDbLine
  8
0
 62
256
370
-1
  6
BYLAYER
 10
-11.0
 20
-17.0
 30
0.0
 11
-11.0
 21
-7.5
 31
0.0
  0
LINE
  5
62
100
AcDbEntity
100
AcDbLine
  8
0
 62
256
370
-1
  6
BYLAYER
 10
-7.0
 20
-17.0
 30
0.0
 11
-7.0
 21
-7.5
 31
0.0
  0
LINE
  5
63
100
AcDbEntity
100
AcDbLine
  8
0
 62
256
370
-1
  6
BYLAYER
 10
11.0
 20
-3.0
 30
0.0
 11
4.0
 21
8.0
 31
0.0
  0
LINE
  5
64
100
AcDbEntity
100
AcDbLine
  8
0
 62
256
370
-1
  6
BYLAYER
 10
-12.0
 20
-7.5
 30
0.0
 11
-19.0
 21
3.5
 31
0.0
  0
LINE
  5
65
100
AcDbEntity
100
AcDbLine
  8
0
 62
256
370
-1
  6
BYLAYER
 10
-12.0
 20
-7.5
 30
0.0
 11
11.0
 21
-7.5
 31
0.0
  0
LINE
  5
66
100
AcDbEntity
100
AcDbLine
  8
0
 62
256
370
-1
  6
BYLAYER
 10
11.0
 20
-7.5
 30
0.0
 11
11.0
 21
-3.0
 31
0.0
  0
LINE
  5
67
100
AcDbEntity
100
AcDbLine
  8
0
 62
256
370
-1
  6
BYLAYER
 10
4.0
 20
8.0
 30
0.0
 11
-19.0
 21
8.0
 31
0.0
  0
LINE
  5
68
100
AcDbEntity
100
AcDbLine
  8
0
 62
256
370
-1
  6
BYLAYER
 10
-19.0
 20
8.0
 30
0.0
 11
-19.0
 21
3.5
 31
0.0
  0
CIRCLE
  5
69
100
AcDbEntity
100
AcDbCircle
  8
0
 62
256
370
-1
  6
BYLAYER
 10
0.0
 20
0.0
 30
0.0
 40
2.0
  0
LINE
  5
6A
100
AcDbEntity
100
AcDbLine
  8
0
 62
256
370
-1
  6
BYLAYER
 10
-19.0
 20
-27.0
 30
0.0
 11
3.0
 21
-27.0
 31
0.0
  0
LINE
  5
6B
100
AcDbEntity
100
AcDbLine
  8
0
 62
256
370
-1
  6
BYLAYER
 10
3.0
 20
-27.0
 30
0.0
 11
3.0
 21
-17.0
 31
0.0
  0
LINE
  5
6C
100
AcDbEntity
100
AcDbLine
  8
0
 62
256
370
-1
  6
BYLAYER
 10
3.0
 20
-17.0
 30
0.0
 11
-19.0
 21
-17.0
 31
0.0
  0
LINE
  5
6D
100
AcDbEntity
100
AcDbLine
  8
0
 62
256
370
-1
  6
BYLAYER
 10
-19.0
 20
-17.0
 30
0.0
 11
-19.0
 21
-27.0
 31
0.0
  0
LINE
  5
6E
100
AcDbEntity
100
AcDbLine
  8
0
 62
256
370
-1
  6
BYLAYER
 10
-11.0
 20
-17.0
 30
0.0
 11
-11.0
 21
-7.5
 31
0.0
  0
LINE
  5
6F
100
AcDbEntity
100
AcDbLine
  8
0
 62
256
370
-1
  6
BYLAYER
 10
-7.0
 20
-17.0
 30
0.0
 11
-7.0
 21
-7.5
 31
0.0
  0
LINE
  5
70
100
AcDbEntity
100
AcDbLine
  8
0
 62
256
370
-1
  6
BYLAYER
 10
11.0
 20
-3.0
 30
0.0
 11
4.0
 21
8.0
 31
0.0
  0
LINE
  5
71
100
AcDbEntity
100
AcDbLine
  8
0
 62
256
370
-1
  6
BYLAYER
 10
-12.0
 20
-7.5
 30
0.0
 11
-19.0
 21
3.5
 31
0.0
  0
LINE
  5
72
100
AcDbEntity
100
AcDbLine
  8
0
 62
256
370
-1
  6
BYLAYER
 10
-12.0
 20
-7.5
 30
0.0
 11
11.0
 21
-7.5
 31
0.0
  0
LINE
  5
73
100
AcDbEntity
100
AcDbLine
  8
0
 62
256
370
-1
  6
BYLAYER
 10
11.0
 20
-7.5
 30
0.0
 11
11.0
 21
-3.0
 31
0.0
  0
LINE
  5
74
100
AcDbEntity
100
AcDbLine
  8
0
 62
256
370
-1
  6
BYLAYER
 10
4.0
 20
8.0
 30
0.0
 11
-19.0
 21
8.0
 31
0.0
  0
LINE
  5
75
100
AcDbEntity
100
AcDbLine
  8
0
 62
256
370
-1
  6
BYLAYER
 10
-19.0
 20
8.0
 30
0.0
 11
-19.0
 21
3.5
 31
0.0
  0
CIRCLE
  5
76
100
AcDbEntity
100
AcDbCircle
  8
0
 62
256
370
-1
  6
BYLAYER
 10
0.0
 20
0.0
 30
0.0
 40
2.0
  0
LINE
  5
77
100
AcDbEntity
100
AcDbLine
  8
0
 62
256
370
-1
  6
BYLAYER
 10
-19.0
 20
-27.0
 30
0.0
 11
3.0
 21
-27.0
 31
0.0
  0
LINE
  5
78
100
AcDbEntity
100
AcDbLine
  8
0
 62
256
370
-1
  6
BYLAYER
 10
3.0
 20
-27.0
 30
0.0
 11
3.0
 21
-17.0
 31
0.0
  0
LINE
  5
79
100
AcDbEntity
100
AcDbLine
  8
0
 62
256
370
-1
  6
BYLAYER
 10
3.0
 20
-17.0
 30
0.0
 11
-19.0
 21
-17.0
 31
0.0
  0
LINE
  5
7A
100
AcDbEntity
100
AcDbLine
  8
0
 62
256
370
-1
  6
BYLAYER
 10
-19.0
 20
-17.0
 30
0.0
 11
-19.0
 21
-27.0
 31
0.0
  0
LINE
  5
7B
100
AcDbEntity
100
AcDbLine
  8
0
 62
256
370
-1
  6
BYLAYER
 10
-11.0
 20
-17.0
 30
0.0
 11
-11.0
 21
-7.5
 31
0.0
  0
LINE
  5
7C
100
AcDbEntity
100
AcDbLine
  8
0
 62
256
370
-1
  6
BYLAYER
 10
-7.0
 20
-17.0
 30
0.0
 11
-7.0
 21
-7.5
 31
0.0
  0
LINE
  5
7D
100
AcDbEntity
100
AcDbLine
  8
0
 62
256
370
-1
  6
BYLAYER
 10
11.0
 20
-3.0
 30
0.0
 11
4.0
 21
8.0
 31
0.0
  0
LINE
  5
7E
100
AcDbEntity
100
AcDbLine
  8
0
 62
256
370
-1
  6
BYLAYER
 10
-12.0
 20
-7.5
 30
0.0
 11
-19.0
 21
3.5
 31
0.0
  0
LINE
  5
7F
100
AcDbEntity
100
AcDbLine
  8
0
 62
256
370
-1
  6
BYLAYER
 10
-12.0
 20
-7.5
 30
0.0
 11
11.0
 21
-7.5
 31
0.0
  0
LINE
  5
80
100
AcDbEntity
100
AcDbLine
  8
0
 62
256
370
-1
  6
BYLAYER
 10
11.0
 20
-7.5
 30
0.0
 11
11.0
 21
-3.0
 31
0.0
  0
LINE
  5
81
100
AcDbEntity
100
AcDbLine
  8
0
 62
256
370
-1
  6
BYLAYER
 10
4.0
 20
8.0
 30
0.0
 11
-19.0
 21
8.0
 31
0.0
  0
LINE
  5
82
100
AcDbEntity
100
AcDbLine
  8
0
 62
256
370
-1
  6
BYLAYER
 10
-19.0
 20
8.0
 30
0.0
 11
-19.0
 21
3.5
 31
0.0
  0
CIRCLE
  5
83
100
AcDbEntity
100
AcDbCircle
  8
0
 62
256
370
-1
  6
BYLAYER
 10
0.0
 20
0.0
 30
0.0
 40
2.0
  0
LINE
  5
84
100
AcDbEntity
100
AcDbLine
  8
0
 62
256
370
-1
  6
BYLAYER
 10
-19.0
 20
-27.0
 30
0.0
 11
3.0
 21
-27.0
 31
0.0
  0
LINE
  5
85
100
AcDbEntity
100
AcDbLine
  8
0
 62
256
370
-1
  6
BYLAYER
 10
3.0
 20
-27.0
 30
0.0
 11
3.0
 21
-17.0
 31
0.0
  0
LINE
  5
86
100
AcDbEntity
100
AcDbLine
  8
0
 62
256
370
-1
  6
BYLAYER
 10
3.0
 20
-17.0
 30
0.0
 11
-19.0
 21
-17.0
 31
0.0
  0
LINE
  5
87
100
AcDbEntity
100
AcDbLine
  8
0
 62
256
370
-1
  6
BYLAYER
 10
-19.0
 20
-17.0
 30
0.0
 11
-19.0
 21
-27.0
 31
0.0
  0
LINE
  5
88
100
AcDbEntity
100
AcDbLine
  8
0
 62
256
370
-1
  6
BYLAYER
 10
-11.0
 20
-17.0
 30
0.0
 11
-11.0
 21
-7.5
 31
0.0
  0
LINE
  5
89
100
AcDbEntity
100
AcDbLine
  8
0
 62
256
370
-1
  6
BYLAYER
 10
-7.0
 20
-17.0
 30
0.0
 11
-7.0
 21
-7.5
 31
0.0
  0
LINE
  5
8A
100
AcDbEntity
100
AcDbLine
  8
0
 62
256
370
-1
  6
BYLAYER
 10
11.0
 20
-3.0
 30
0.0
 11
4.0
 21
8.0
 31
0.0
  0
LINE
  5
8B
100
AcDbEntity
100
AcDbLine
  8
0
 62
256
370
-1
  6
BYLAYER
 10
-12.0
 20
-7.5
 30
0.0
 11
-19.0
 21
3.5
 31
0.0
  0
LINE
  5
8C
100
AcDbEntity
100
AcDbLine
  8
0
 62
256
370
-1
  6
BYLAYER
 10
-12.0
 20
-7.5
 30
0.0
 11
11.0
 21
-7.5
 31
0.0
  0
LINE
  5
8D
100
AcDbEntity
100
AcDbLine
  8
0
 62
256
370
-1
  6
BYLAYER
 10
11.0
 20
-7.5
 30
0.0
 11
11.0
 21
-3.0
 31
0.0
  0
LINE
  5
8E
100
AcDbEntity
100
AcDbLine
  8
0
 62
256
370
-1
  6
BYLAYER
 10
4.0
 20
8.0
 30
0.0
 11
-19.0
 21
8.0
 31
0.0
  0
LINE
  5
8F
100
AcDbEntity
100
AcDbLine
  8
0
 62
256
370
-1
  6
BYLAYER
 10
-19.0
 20
8.0
 30
0.0
 11
-19.0
 21
3.5
 31
0.0
  0
CIRCLE
  5
90
100
AcDbEntity
100
AcDbCircle
  8
0
 62
256
370
-1
  6
BYLAYER
 10
0.0
 20
0.0
 30
0.0
 40
2.0
  0
ENDBLK
  5
91
100
AcDbEntity
  8
0
100
AcDbBlockEnd
  0
BLOCK
  5
92
100
AcDbEntity
  8
0
100
AcDbBlockBegin
  2
classical_tuners
 70
0
 10
0.0
 20
0.0
 30
0.0
  3
classical_tuners
  1

  0
LINE
  5
93
100
AcDbEntity
100
AcDbLine
  8
0
 62
256
370
-1
  6
BYLAYER
 10
-42.0
 20
1.0
 30
0.0
 11
-42.0
 21
29.0
 31
0.0
  0
LINE
  5
94
100
AcDbEntity
100
AcDbLine
  8
0
 62
256
370
-1
  6
BYLAYER
 10
-42.0
 20
29.0
 30
0.0
 11
-48.0
 21
29.0
 31
0.0
  0
LINE
  5
95
100
AcDbEntity
100
AcDbLine
  8
0
 62
256
370
-1
  6
BYLAYER
 10
-48.0
 20
29.0
 30
0.0
 11
-48.0
 21
1.0
 31
0.0
  0
LINE
  5
96
100
AcDbEntity
100
AcDbLine
  8
0
 62
256
370
-1
  6
BYLAYER
 10
-7.0
 20
1.0
 30
0.0
 11
-7.0
 21
29.0
 31
0.0
  0
LINE
  5
97
100
AcDbEntity
100
AcDbLine
  8
0
 62
256
370
-1
  6
BYLAYER
 10
-7.0
 20
29.0
 30
0.0
 11
-13.0
 21
29.0
 31
0.0
  0
LINE
  5
98
100
AcDbEntity
100
AcDbLine
  8
0
 62
256
370
-1
  6
BYLAYER
 10
-13.0
 20
29.0
 30
0.0
 11
-13.0
 21
1.0
 31
0.0
  0
LINE
  5
99
100
AcDbEntity
100
AcDbLine
  8
0
 62
256
370
-1
  6
BYLAYER
 10
28.0
 20
1.0
 30
0.0
 11
28.0
 21
29.0
 31
0.0
  0
LINE
  5
9A
100
AcDbEntity
100
AcDbLine
  8
0
 62
256
370
-1
  6
BYLAYER
 10
28.0
 20
29.0
 30
0.0
 11
22.0
 21
29.0
 31
0.0
  0
LINE
  5
9B
100
AcDbEntity
100
AcDbLine
  8
0
 62
256
370
-1
  6
BYLAYER
 10
22.0
 20
29.0
 30
0.0
 11
22.0
 21
1.0
 31
0.0
  0
CIRCLE
  5
9C
100
AcDbEntity
100
AcDbCircle
  8
0
 62
256
370
-1
  6
BYLAYER
 10
-45.0
 20
15.0
 30
0.0
 40
1.0
  0
CIRCLE
  5
9D
100
AcDbEntity
100
AcDbCircle
  8
0
 62
256
370
-1
  6
BYLAYER
 10
-10.0
 20
15.0
 30
0.0
 40
1.0
  0
CIRCLE
  5
9E
100
AcDbEntity
100
AcDbCircle
  8
0
 62
256
370
-1
  6
BYLAYER
 10
25.0
 20
15.0
 30
0.0
 40
1.0
  0
LINE
  5
9F
100
AcDbEntity
100
AcDbLine
  8
0
 62
256
370
-1
  6
BYLAYER
 10
-62.5
 20
0.0
 30
0.0
 11
57.5
 21
0.0
 31
0.0
  0
LINE
  5
A0
100
AcDbEntity
100
AcDbLine
  8
0
 62
256
370
-1
  6
BYLAYER
 10
57.5
 20
0.0
 30
0.0
 11
57.5
 21
1.0
 31
0.0
  0
LINE
  5
A1
100
AcDbEntity
100
AcDbLine
  8
0
 62
256
370
-1
  6
BYLAYER
 10
57.5
 20
1.0
 30
0.0
 11
-62.5
 21
1.0
 31
0.0
  0
LINE
  5
A2
100
AcDbEntity
100
AcDbLine
  8
0
 62
256
370
-1
  6
BYLAYER
 10
-62.5
 20
1.0
 30
0.0
 11
-62.5
 21
0.0
 31
0.0
  0
CIRCLE
  5
A3
100
AcDbEntity
100
AcDbCircle
  8
0
 62
256
370
-1
  6
BYLAYER
 10
-39.0
 20
-3.0
 30
0.0
 40
3.0
  0
LINE
  5
A4
100
AcDbEntity
100
AcDbLine
  8
0
 62
256
370
-1
  6
BYLAYER
 10
-48.0
 20
-1.0
 30
0.0
 11
-42.0
 21
-1.0
 31
0.0
  0
LINE
  5
A5
100
AcDbEntity
100
AcDbLine
  8
0
 62
256
370
-1
  6
BYLAYER
 10
-42.0
 20
-1.0
 30
0.0
 11
-42.0
 21
-5.0
 31
0.0
  0
LINE
  5
A6
100
AcDbEntity
100
AcDbLine
  8
0
 62
256
370
-1
  6
BYLAYER
 10
-42.0
 20
-5.0
 30
0.0
 11
-48.0
 21
-5.0
 31
0.0
  0
LINE
  5
A7
100
AcDbEntity
100
AcDbLine
  8
0
 62
256
370
-1
  6
BYLAYER
 10
-48.0
 20
-5.0
 30
0.0
 11
-48.0
 21
-1.0
 31
0.0
  0
LINE
  5
A8
100
AcDbEntity
100
AcDbLine
  8
0
 62
256
370
-1
  6
BYLAYER
 10
-42.098076211353316
 20
-3.6339745962155621
 30
0.0
 11
-47.294228634059948
 21
-6.6339745962155607
 31
0.0
  0
LINE
  5
A9
100
AcDbEntity
100
AcDbLine
  8
0
 62
256
370
-1
  6
BYLAYER
 10
-47.294228634059948
 20
-6.6339745962155607
 30
0.0
 11
-46.294228634059948
 21
-8.366025403784441
 31
0.0
  0
LINE
  5
AA
100
AcDbEntity
100
AcDbLine
  8
0
 62
256
370
-1
  6
BYLAYER
 10
-46.294228634059948
 20
-8.366025403784441
 30
0.0
 11
-41.098076211353316
 21
-5.3660254037844393
 31
0.0
  0
LINE
  5
AB
100
AcDbEntity
100
AcDbLine
  8
0
 62
256
370
-1
  6
BYLAYER
 10
-35.901923788646684
 20
-2.3660254037844384
 30
0.0
 11
-30.705771365940052
 21
0.6339745962155563
 31
0.0
  0
LINE
  5
AC
100
AcDbEntity
100
AcDbLine
  8
0
 62
256
370
-1
  6
BYLAYER
 10
-30.705771365940052
 20
0.6339745962155563
 30
0.0
 11
-31.705771365940052
 21
2.3660254037844393
 31
0.0
  0
LINE
  5
AD
100
AcDbEntity
100
AcDbLine
  8
0
 62
256
370
-1
  6
BYLAYER
 10
-31.705771365940052
 20
2.3660254037844393
 30
0.0
 11
-36.901923788646684
 21
-0.6339745962155612
 31
0.0
  0
LINE
  5
AE
100
AcDbEntity
100
AcDbLine
  8
0
 62
256
370
-1
  6
BYLAYER
 10
-13.0
 20
-5.0
 30
0.0
 11
-13.0
 21
-1.0
 31
0.0
  0
LINE
  5
AF
100
AcDbEntity
100
AcDbLine
  8
0
 62
256
370
-1
  6
BYLAYER
 10
-7.098076211353316
 20
-3.6339745962155621
 30
0.0
 11
-12.294228634059948
 21
-6.6339745962155607
 31
0.0
  0
LINE
  5
B0
100
AcDbEntity
100
AcDbLine
  8
0
 62
256
370
-1
  6
BYLAYER
 10
-12.294228634059948
 20
-6.6339745962155607
 30
0.0
 11
-11.294228634059948
 21
-8.366025403784441
 31
0.0
  0
LINE
  5
B1
100
AcDbEntity
100
AcDbLine
  8
0
 62
256
370
-1
  6
BYLAYER
 10
-11.294228634059948
 20
-8.366025403784441
 30
0.0
 11
-6.098076211353316
 21
-5.3660254037844393
 31
0.0
  0
LINE
  5
B2
100
AcDbEntity
100
AcDbLine
  8
0
 62
256
370
-1
  6
BYLAYER
 10
-0.901923788646684
 20
-2.3660254037844384
 30
0.0
 11
4.294228634059948
 21
0.6339745962155563
 31
0.0
  0
LINE
  5
B3
100
AcDbEntity
100
AcDbLine
  8
0
 62
256
370
-1
  6
BYLAYER
 10
4.294228634059948
 20
0.6339745962155563
 30
0.0
 11
3.294228634059948
 21
2.3660254037844393
 31
0.0
  0
LINE
  5
B4
100
AcDbEntity
100
AcDbLine
  8
0
 62
256
370
-1
  6
BYLAYER
 10
3.294228634059948
 20
2.3660254037844393
 30
0.0
 11
-1.901923788646684
 21
-0.6339745962155612
 31
0.0
  0
CIRCLE
  5
B5
100
AcDbEntity
100
AcDbCircle
  8
0
 62
256
370
-1
  6
BYLAYER
 10
-4.0
 20
-3.0
 30
0.0
 40
3.0
  0
LINE
  5
B6
100
AcDbEntity
100
AcDbLine
  8
0
 62
256
370
-1
  6
BYLAYER
 10
-13.0
 20
-1.0
 30
0.0
 11
-7.0
 21
-1.0
 31
0.0
  0
LINE
  5
B7
100
AcDbEntity
100
AcDbLine
  8
0
 62
256
370
-1
  6
BYLAYER
 10
-7.0
 20
-1.0
 30
0.0
 11
-7.0
 21
-5.0
 31
0.0
  0
LINE
  5
B8
100
AcDbEntity
100
AcDbLine
  8
0
 62
256
370
-1
  6
BYLAYER
 10
-7.0
 20
-5.0
 30
0.0
 11
-13.0
 21
-5.0
 31
0.0
  0
LINE
  5
B9
100
AcDbEntity
100
AcDbLine
  8
0
 62
256
370
-1
  6
BYLAYER
 10
22.0
 20
-5.0
 30
0.0
 11
22.0
 21
-1.0
 31
0.0
  0
LINE
  5
BA
100
AcDbEntity
100
AcDbLine
  8
0
 62
256
370
-1
  6
BYLAYER
 10
27.901923788646684
 20
-3.6339745962155621
 30
0.0
 11
22.705771365940052
 21
-6.6339745962155607
 31
0.0
  0
LINE
  5
BB
100
AcDbEntity
100
AcDbLine
  8
0
 62
256
370
-1
  6
BYLAYER
 10
22.705771365940052
 20
-6.6339745962155607
 30
0.0
 11
23.705771365940052
 21
-8.366025403784441
 31
0.0
  0
LINE
  5
BC
100
AcDbEntity
100
AcDbLine
  8
0
 62
256
370
-1
  6
BYLAYER
 10
23.705771365940052
 20
-8.366025403784441
 30
0.0
 11
28.901923788646684
 21
-5.3660254037844393
 31
0.0
  0
LINE
  5
BD
100
AcDbEntity
100
AcDbLine
  8
0
 62
256
370
-1
  6
BYLAYER
 10
34.098076211353316
 20
-2.3660254037844384
 30
0.0
 11
39.294228634059948
 21
0.6339745962155563
 31
0.0
  0
LINE
  5
BE
100
AcDbEntity
100
AcDbLine
  8
0
 62
256
370
-1
  6
BYLAYER
 10
39.294228634059948
 20
0.6339745962155563
 30
0.0
 11
38.294228634059948
 21
2.3660254037844393
 31
0.0
  0
LINE
  5
BF
100
AcDbEntity
100
AcDbLine
  8
0
 62
256
370
-1
  6
BYLAYER
 10
38.294228634059948
 20
2.3660254037844393
 30
0.0
 11
33.098076211353316
 21
-0.6339745962155612
 31
0.0
  0
CIRCLE
  5
C0
100
AcDbEntity
100
AcDbCircle
  8
0
 62
256
370
-1
  6
BYLAYER
 10
31.0
 20
-3.0
 30
0.0
 40
3.0
  0
LINE
  5
C1
100
AcDbEntity
100
AcDbLine
  8
0
 62
256
370
-1
  6
BYLAYER
 10
22.0
 20
-1.0
 30
0.0
 11
28.0
 21
-1.0
 31
0.0
  0
LINE
  5
C2
100
AcDbEntity
100
AcDbLine
  8
0
 62
256
370
-1
  6
BYLAYER
 10
28.0
 20
-1.0
 30
0.0
 11
28.0
 21
-5.0
 31
0.0
  0
LINE
  5
C3
100
AcDbEntity
100
AcDbLine
  8
0
 62
256
370
-1
  6
BYLAYER
 10
28.0
 20
-5.0
 30
0.0
 11
22.0
 21
-5.0
 31
0.0
  0
ENDBLK
  5
C4
100
AcDbEntity
  8
0
100
AcDbBlockEnd
  0
ENDSEC
  0
SECTION
  2
ENTITIES
  0
CIRCLE
  5
C5
100
AcDbEntity
100
AcDbCircle
  8
rosette
 62
256
370
-1
  6
BYLAYER
 10
460.7475889568663661
 20
0.5634345445629645
 30
0.0
 40
44.0
  0
LINE
  5
C6
100
AcDbEntity
100
AcDbLine
  8
0
 62
256
370
-1
  6
BYLAYER
 10
644.0
 20
0.0
 30
0.0
 11
644.0
 21
38.8039442692323604
 31
0.0
  0
LINE
  5
C7
100
AcDbEntity
100
AcDbLine
  8
0
 62
256
370
-1
  6
BYLAYER
 10
644.0188736835943928
 20
40.0
 30
0.0
 11
644.8725461576277667
 21
94.098599760945973
 31
0.0
  0
LINE
  5
C8
100
AcDbEntity
100
AcDbLine
  8
0
 62
256
370
-1
  6
BYLAYER
 10
675.2209962922029263
 20
93.9457181301048365
 30
0.0
 11
676.9833526288475696
 21
39.9999999999999574
 31
0.0
  0
LINE
  5
C9
100
AcDbEntity
100
AcDbLine
  8
0
 62
256
370
-1
  6
BYLAYER
 10
676.9833526288475696
 20
38.8039442692323604
 30
0.0
 11
676.9833526288475696
 21
0.0
 31
0.0
  0
LINE
  5
CA
100
AcDbEntity
100
AcDbLine
  8
0
 62
256
370
-1
  6
BYLAYER
 10
773.1041331740693749
 20
32.619934111983838
 30
0.0
 11
755.7005724614054998
 21
32.619934111983838
 31
0.0
  0
LINE
  5
CB
100
AcDbEntity
100
AcDbLine
  8
0
 62
256
370
-1
  6
BYLAYER
 10
755.7005724614054998
 20
32.619934111983838
 30
0.0
 11
749.2798714519544774
 21
26.1926623817319886
 31
0.0
  0
LINE
  5
CC
100
AcDbEntity
100
AcDbLine
  8
0
 62
256
370
-1
  6
BYLAYER
 10
749.2798714519544774
 20
26.1926623817319886
 30
0.0
 11
749.2798714519544774
 21
0.0000000000001705
 31
0.0
  0
LINE
  5
CD
100
AcDbEntity
100
AcDbLine
  8
0
 62
256
370
-1
  6
BYLAYER
 10
644.0
 20
-0.0000000000000239
 30
0.0
 11
644.0
 21
-38.8039442692324741
 31
0.0
  0
LINE
  5
CE
100
AcDbEntity
100
AcDbLine
  8
0
 62
256
370
-1
  6
BYLAYER
 10
676.9833526288475696
 20
-38.8039442692325025
 30
0.0
 11
676.9833526288475696
 21
-0.0000000000000365
 31
0.0
  0
LINE
  5
CF
100
AcDbEntity
100
AcDbLine
  8
0
 62
256
370
-1
  6
BYLAYER
 10
773.1041331740693749
 20
-32.6199341119835751
 30
0.0
 11
755.7005724614054998
 21
-32.6199341119835964
 31
0.0
  0
LINE
  5
D0
100
AcDbEntity
100
AcDbLine
  8
0
 62
256
370
-1
  6
BYLAYER
 10
755.7005724614054998
 20
-32.6199341119835964
 30
0.0
 11
749.2798714519544774
 21
-26.1926623817317612
 31
0.0
  0
LINE
  5
D1
100
AcDbEntity
100
AcDbLine
  8
0
 62
256
370
-1
  6
BYLAYER
 10
749.2798714519544774
 20
-26.1926623817317612
 30
0.0
 11
749.2798714519544774
 21
0.0000000000001705
 31
0.0
  0
SPLINE
  5
D2
  8
0
 62
256
370
-1
  6
BYLAYER
100
AcDbEntity
100
AcDbSpline
 70
8
 71
3
 72
38
 73
34
 74
0
 40
0.0
 40
0.0
 40
0.0
 40
0.0
 40
1.0
 40
2.0
 40
3.0
 40
4.0
 40
5.0
 40
6.0
 40
7.0
 40
8.0
 40
9.0
 40
10.0
 40
11.0
 40
12.0
 40
13.0
 40
14.0
 40
15.0
 40
16.0
 40
17.0
 40
18.0
 40
19.0
 40
20.0
 40
21.0
 40
22.0
 40
23.0
 40
24.0
 40
25.0
 40
26.0
 40
27.0
 40
28.0
 40
29.0
 40
30.0
 40
31.0
 40
31.0
 40
31.0
 40
31.0
 10
326.6418863600397344
 20
40.0000000000001705
 30
0.0
 10
326.8366729401154771
 20
46.7265493263236351
 30
0.0
 10
329.1477050709024752
 20
57.7564754050798328
 30
0.0
 10
334.6101446527627559
 20
70.3621052093726291
 30
0.0
 10
341.1379797952695299
 20
82.1014922687205768
 30
0.0
 10
352.5738071537239193
 20
97.7123042183567776
 30
0.0
 10
367.7794433437825319
 20
110.3094075711617705
 30
0.0
 10
387.8014262658311964
 20
121.1546483206048919
 30
0.0
 10
409.3346900239585011
 20
123.3162158594316367
 30
0.0
 10
426.2305740911870089
 20
122.8311665560663499
 30
0.0
 10
440.9437362932712858
 20
119.5975045336302429
 30
0.0
 10
459.9639897140489211
 20
114.8977786574646274
 30
0.0
 10
477.0661001266325911
 20
108.6409089943243629
 30
0.0
 10
488.3284655202846807
 20
104.4696625522308722
 30
0.0
 10
496.2538337602625234
 20
103.6354132638121683
 30
0.0
 10
508.6889556633059328
 20
105.1268669832287657
 30
0.0
 10
521.2193960002455242
 20
111.513349477540018
 30
0.0
 10
542.9717939117099377
 20
124.491645474279764
 30
0.0
 10
570.0848957853174852
 20
140.7595065984444318
 30
0.0
 10
593.0267512168320536
 20
152.0218719920968908
 30
0.0
 10
615.9686066483463946
 20
158.6958662994464646
 30
0.0
 10
637.6590881472320689
 20
161.6157388089120559
 30
0.0
 10
657.8771867304144507
 20
161.7579899821515141
 30
0.0
 10
683.5847998087810993
 20
156.8266553979365483
 30
0.0
 10
709.1307297860257677
 20
144.7812643643622152
 30
0.0
 10
723.601367336426847
 20
133.705971937518683
 30
0.0
 10
736.239545728709345
 20
120.946085998500493
 30
0.0
 10
748.7532850549896466
 20
103.0097262974984318
 30
0.0
 10
759.5985258044329385
 20
81.7363694428215268
 30
0.0
 10
764.6003362307042153
 20
70.0837538547866359
 30
0.0
 10
770.2728696426361239
 20
52.8560597889198149
 30
0.0
 10
772.6259205394371747
 20
41.9731993912137042
 30
0.0
 10
773.1041331740693749
 20
32.619934111983838
 30
0.0
 10
773.1041331740693749
 20
32.619934111983838
 30
0.0
  0
LINE
  5
D3
100
AcDbEntity
100
AcDbLine
  8
top_bracing
 62
256
370
-1
  6
BYLAYER
 10
511.5
 20
-99.9999999999998295
 30
0.0
 11
517.5
 21
-99.9999999999998295
 31
0.0
  0
LINE
  5
D4
100
AcDbEntity
100
AcDbLine
  8
top_bracing
 62
256
370
-1
  6
BYLAYER
 10
517.5
 20
100.0000000000001705
 30
0.0
 11
511.5
 21
100.0000000000001705
 31
0.0
  0
LINE
  5
D5
100
AcDbEntity
100
AcDbLine
  8
top_bracing
 62
256
370
-1
  6
BYLAYER
 10
511.5
 20
100.0000000000001705
 30
0.0
 11
511.5
 21
-99.9999999999998295
 31
0.0
  0
LINE
  5
D6
100
AcDbEntity
100
AcDbLine
  8
top_bracing
 62
256
370
-1
  6
BYLAYER
 10
406.5
 20
-114.9999999999998295
 30
0.0
 11
412.5
 21
-114.9999999999998295
 31
0.0
  0
LINE
  5
D7
100
AcDbEntity
100
AcDbLine
  8
top_bracing
 62
256
370
-1
  6
BYLAYER
 10
412.5
 20
-114.9999999999998295
 30
0.0
 11
412.5
 21
115.0000000000001705
 31
0.0
  0
LINE
  5
D8
100
AcDbEntity
100
AcDbLine
  8
top_bracing
 62
256
370
-1
  6
BYLAYER
 10
412.5
 20
115.0000000000001705
 30
0.0
 11
406.5
 21
115.0000000000001705
 31
0.0
  0
LINE
  5
D9
100
AcDbEntity
100
AcDbLine
  8
top_bracing
 62
256
370
-1
  6
BYLAYER
 10
369.5
 20
-74.9999999999998295
 30
0.0
 11
375.5
 21
-74.9999999999998295
 31
0.0
  0
LINE
  5
DA
100
AcDbEntity
100
AcDbLine
  8
top_bracing
 62
256
370
-1
  6
BYLAYER
 10
375.5
 20
75.0000000000001705
 30
0.0
 11
369.5
 21
75.0000000000001705
 31
0.0
  0
LINE
  5
DB
100
AcDbEntity
100
AcDbLine
  8
top_bracing
 62
256
370
-1
  6
BYLAYER
 10
743.985650935229387
 20
-1.1299352437262433
 30
0.0
 11
681.0522436929973082
 21
-137.4856509352293585
 31
0.0
  0
LINE
  5
DC
100
AcDbEntity
100
AcDbLine
  8
top_bracing
 62
256
370
-1
  6
BYLAYER
 10
681.0522436929973082
 20
-137.4856509352293585
 30
0.0
 11
683.7761218464984267
 21
-138.7428254676146082
 31
0.0
  0
LINE
  5
DD
100
AcDbEntity
100
AcDbLine
  8
top_bracing
 62
256
370
-1
  6
BYLAYER
 10
726.5
 20
-1.4999999999998295
 30
0.0
 11
726.5
 21
1.5000000000001705
 31
0.0
  0
LINE
  5
DE
100
AcDbEntity
100
AcDbLine
  8
top_bracing
 62
256
370
-1
  6
BYLAYER
 10
743.985650935229387
 20
-1.1299352437261909
 30
0.0
 11
746.7095290887309602
 21
-2.3871097761113926
 31
0.0
  0
LINE
  5
DF
100
AcDbEntity
100
AcDbLine
  8
top_bracing
 62
256
370
-1
  6
BYLAYER
 10
511.5
 20
58.3333333333335062
 30
0.0
 11
412.5
 21
91.3333333333335133
 31
0.0
  0
LINE
  5
E0
100
AcDbEntity
100
AcDbLine
  8
top_bracing
 62
256
370
-1
  6
BYLAYER
 10
511.5
 20
-57.2064642442072326
 30
0.0
 11
412.5
 21
-90.2064642442072113
 31
0.0
  0
LINE
  5
E1
100
AcDbEntity
100
AcDbLine
  8
0
 62
256
370
-1
  6
BYLAYER
 10
731.9999999999985221
 20
-395.0000000000001137
 30
0.0
 11
731.9999999999985221
 21
-300.0000000000001137
 31
0.0
  0
CIRCLE
  5
E2
100
AcDbEntity
100
AcDbCircle
  8
template_dowel
 62
256
370
-1
  6
BYLAYER
 10
781.5971914521969666
 20
46.8308189015841378
 30
0.0
 40
9.5
  0
CIRCLE
  5
E3
100
AcDbEntity
100
AcDbCircle
  8
template_dowel
 62
256
370
-1
  6
BYLAYER
 10
781.5971914521969666
 20
46.8308189015841378
 30
0.0
 40
1.0
  0
CIRCLE
  5
E4
100
AcDbEntity
100
AcDbCircle
  8
template_dowel
 62
256
370
-1
  6
BYLAYER
 10
761.1863549376344054
 20
100.9414895556370055
 30
0.0
 40
9.5
  0
CIRCLE
  5
E5
100
AcDbEntity
100
AcDbCircle
  8
template_dowel
 62
256
370
-1
  6
BYLAYER
 10
761.1863549376344054
 20
100.9414895556370055
 30
0.0
 40
1.0
  0
CIRCLE
  5
E6
100
AcDbEntity
100
AcDbCircle
  8
template_dowel
 62
256
370
-1
  6
BYLAYER
 10
785.6866836167728252
 20
18.9640185082664061
 30
0.0
 40
9.5
  0
CIRCLE
  5
E7
100
AcDbEntity
100
AcDbCircle
  8
template_dowel
 62
256
370
-1
  6
BYLAYER
 10
785.6866836167728252
 20
18.9640185082664061
 30
0.0
 40
1.0
  0
CIRCLE
  5
E8
100
AcDbEntity
100
AcDbCircle
  8
template_dowel
 62
256
370
-1
  6
BYLAYER
 10
672.9946375758099748
 20
168.4976949856979331
 30
0.0
 40
9.5
  0
CIRCLE
  5
E9
100
AcDbEntity
100
AcDbCircle
  8
template_dowel
 62
256
370
-1
  6
BYLAYER
 10
672.9946375758099748
 20
168.4976949856979331
 30
0.0
 40
1.0
  0
CIRCLE
  5
EA
100
AcDbEntity
100
AcDbCircle
  8
template_dowel
 62
256
370
-1
  6
BYLAYER
 10
637.2365845051199358
 20
149.6073295756262667
 30
0.0
 40
9.5
  0
CIRCLE
  5
EB
100
AcDbEntity
100
AcDbCircle
  8
template_dowel
 62
256
370
-1
  6
BYLAYER
 10
637.2365845051199358
 20
149.6073295756262667
 30
0.0
 40
1.0
  0
CIRCLE
  5
EC
100
AcDbEntity
100
AcDbCircle
  8
template_dowel
 62
256
370
-1
  6
BYLAYER
 10
586.3301198608464802
 20
158.4565447294838521
 30
0.0
 40
9.5
  0
CIRCLE
  5
ED
100
AcDbEntity
100
AcDbCircle
  8
template_dowel
 62
256
370
-1
  6
BYLAYER
 10
586.3301198608464802
 20
158.4565447294838521
 30
0.0
 40
1.0
  0
CIRCLE
  5
EE
100
AcDbEntity
100
AcDbCircle
  8
template_dowel
 62
256
370
-1
  6
BYLAYER
 10
486.2581382066505284
 20
115.7635965178113935
 30
0.0
 40
9.5
  0
CIRCLE
  5
EF
100
AcDbEntity
100
AcDbCircle
  8
template_dowel
 62
256
370
-1
  6
BYLAYER
 10
486.2581382066505284
 20
115.7635965178113935
 30
0.0
 40
1.0
  0
CIRCLE
  5
F0
100
AcDbEntity
100
AcDbCircle
  8
template_dowel
 62
256
370
-1
  6
BYLAYER
 10
509.7356477985176753
 20
116.3053852007006412
 30
0.0
 40
9.5
  0
CIRCLE
  5
F1
100
AcDbEntity
100
AcDbCircle
  8
template_dowel
 62
256
370
-1
  6
BYLAYER
 10
509.7356477985176753
 20
116.3053852007006412
 30
0.0
 40
1.0
  0
CIRCLE
  5
F2
100
AcDbEntity
100
AcDbCircle
  8
template_dowel
 62
256
370
-1
  6
BYLAYER
 10
417.631571707346211
 20
132.5590456873779885
 30
0.0
 40
9.5
  0
CIRCLE
  5
F3
100
AcDbEntity
100
AcDbCircle
  8
template_dowel
 62
256
370
-1
  6
BYLAYER
 10
417.631571707346211
 20
132.5590456873779885
 30
0.0
 40
1.0
  0
CIRCLE
  5
F4
100
AcDbEntity
100
AcDbCircle
  8
template_dowel
 62
256
370
-1
  6
BYLAYER
 10
344.1650263075646308
 20
98.6069548929853426
 30
0.0
 40
9.5
  0
CIRCLE
  5
F5
100
AcDbEntity
100
AcDbCircle
  8
template_dowel
 62
256
370
-1
  6
BYLAYER
 10
344.1650263075646308
 20
98.6069548929853426
 30
0.0
 40
1.0
  0
CIRCLE
  5
F6
100
AcDbEntity
100
AcDbCircle
  8
template_dowel
 62
256
370
-1
  6
BYLAYER
 10
318.1230502833548144
 20
37.2042374988709383
 30
0.0
 40
9.5
  0
CIRCLE
  5
F7
100
AcDbEntity
100
AcDbCircle
  8
template_dowel
 62
256
370
-1
  6
BYLAYER
 10
318.1230502833548144
 20
37.2042374988709383
 30
0.0
 40
1.0
  0
CIRCLE
  5
F8
100
AcDbEntity
100
AcDbCircle
  8
template_dowel
 62
256
370
-1
  6
BYLAYER
 10
344.7713325829388396
 20
57.41118387651413
 30
0.0
 40
9.5
  0
CIRCLE
  5
F9
100
AcDbEntity
100
AcDbCircle
  8
template_dowel
 62
256
370
-1
  6
BYLAYER
 10
344.7713325829388396
 20
57.41118387651413
 30
0.0
 40
1.0
  0
CIRCLE
  5
FA
100
AcDbEntity
100
AcDbCircle
  8
template_dowel
 62
256
370
-1
  6
BYLAYER
 10
380.4091437422723629
 20
103.31415765562096
 30
0.0
 40
9.5
  0
CIRCLE
  5
FB
100
AcDbEntity
100
AcDbCircle
  8
template_dowel
 62
256
370
-1
  6
BYLAYER
 10
380.4091437422723629
 20
103.31415765562096
 30
0.0
 40
1.0
  0
CIRCLE
  5
FC
100
AcDbEntity
100
AcDbCircle
  8
template_dowel
 62
256
370
-1
  6
BYLAYER
 10
445.9154756405764601
 20
106.993504799864354
 30
0.0
 40
9.5
  0
CIRCLE
  5
FD
100
AcDbEntity
100
AcDbCircle
  8
template_dowel
 62
256
370
-1
  6
BYLAYER
 10
445.9154756405764601
 20
106.993504799864354
 30
0.0
 40
1.0
  0
CIRCLE
  5
FE
100
AcDbEntity
100
AcDbCircle
  8
template_dowel
 62
256
370
-1
  6
BYLAYER
 10
556.4199662650098617
 20
118.8564696679122648
 30
0.0
 40
9.5
  0
CIRCLE
  5
FF
100
AcDbEntity
100
AcDbCircle
  8
template_dowel
 62
256
370
-1
  6
BYLAYER
 10
556.4199662650098617
 20
118.8564696679122648
 30
0.0
 40
1.0
  0
CIRCLE
  5
100
100
AcDbEntity
100
AcDbCircle
  8
template_dowel
 62
256
370
-1
  6
BYLAYER
 10
729.074545621092966
 20
110.4968693811709528
 30
0.0
 40
9.5
  0
CIRCLE
  5
101
100
AcDbEntity
100
AcDbCircle
  8
template_dowel
 62
256
370
-1
  6
BYLAYER
 10
729.074545621092966
 20
110.4968693811709528
 30
0.0
 40
1.0
  0
CIRCLE
  5
102
100
AcDbEntity
100
AcDbCircle
  8
template_dowel
 62
256
370
-1
  6
BYLAYER
 10
755.2140396593608784
 20
61.042935079209812
 30
0.0
 40
9.5
  0
CIRCLE
  5
103
100
AcDbEntity
100
AcDbCircle
  8
template_dowel
 62
256
370
-1
  6
BYLAYER
 10
755.2140396593608784
 20
61.042935079209812
 30
0.0
 40
1.0
  0
CIRCLE
  5
104
100
AcDbEntity
100
AcDbCircle
  8
template_dowel
 62
256
370
-1
  6
BYLAYER
 10
637.2365845051199358
 20
-149.6073295756258688
 30
0.0
 40
9.5
  0
CIRCLE
  5
105
100
AcDbEntity
100
AcDbCircle
  8
template_dowel
 62
256
370
-1
  6
BYLAYER
 10
637.2365845051199358
 20
-149.6073295756258688
 30
0.0
 40
1.0
  0
CIRCLE
  5
106
100
AcDbEntity
100
AcDbCircle
  8
template_dowel
 62
256
370
-1
  6
BYLAYER
 10
586.3301198608464802
 20
-158.4565447294835678
 30
0.0
 40
9.5
  0
CIRCLE
  5
107
100
AcDbEntity
100
AcDbCircle
  8
template_dowel
 62
256
370
-1
  6
BYLAYER
 10
586.3301198608464802
 20
-158.4565447294835678
 30
0.0
 40
1.0
  0
CIRCLE
  5
108
100
AcDbEntity
100
AcDbCircle
  8
template_dowel
 62
256
370
-1
  6
BYLAYER
 10
486.2581382066505284
 20
-115.7635965178110524
 30
0.0
 40
9.5
  0
CIRCLE
  5
109
100
AcDbEntity
100
AcDbCircle
  8
template_dowel
 62
256
370
-1
  6
BYLAYER
 10
486.2581382066505284
 20
-115.7635965178110524
 30
0.0
 40
1.0
  0
CIRCLE
  5
10A
100
AcDbEntity
100
AcDbCircle
  8
template_dowel
 62
256
370
-1
  6
BYLAYER
 10
509.7356477985176753
 20
-116.305385200700286
 30
0.0
 40
9.5
  0
CIRCLE
  5
10B
100
AcDbEntity
100
AcDbCircle
  8
template_dowel
 62
256
370
-1
  6
BYLAYER
 10
509.7356477985176753
 20
-116.305385200700286
 30
0.0
 40
1.0
  0
CIRCLE
  5
10C
100
AcDbEntity
100
AcDbCircle
  8
template_dowel
 62
256
370
-1
  6
BYLAYER
 10
417.631571707346211
 20
-132.5590456873776475
 30
0.0
 40
9.5
  0
CIRCLE
  5
10D
100
AcDbEntity
100
AcDbCircle
  8
template_dowel
 62
256
370
-1
  6
BYLAYER
 10
417.631571707346211
 20
-132.5590456873776475
 30
0.0
 40
1.0
  0
CIRCLE
  5
10E
100
AcDbEntity
100
AcDbCircle
  8
template_dowel
 62
256
370
-1
  6
BYLAYER
 10
344.1650263075646308
 20
-98.6069548929850015
 30
0.0
 40
9.5
  0
CIRCLE
  5
10F
100
AcDbEntity
100
AcDbCircle
  8
template_dowel
 62
256
370
-1
  6
BYLAYER
 10
344.1650263075646308
 20
-98.6069548929850015
 30
0.0
 40
1.0
  0
CIRCLE
  5
110
100
AcDbEntity
100
AcDbCircle
  8
template_dowel
 62
256
370
-1
  6
BYLAYER
 10
318.1230502833548144
 20
-37.2042374988706044
 30
0.0
 40
9.5
  0
CIRCLE
  5
111
100
AcDbEntity
100
AcDbCircle
  8
template_dowel
 62
256
370
-1
  6
BYLAYER
 10
318.1230502833548144
 20
-37.2042374988706044
 30
0.0
 40
1.0
  0
CIRCLE
  5
112
100
AcDbEntity
100
AcDbCircle
  8
template_dowel
 62
256
370
-1
  6
BYLAYER
 10
781.5971914521969666
 20
-46.8308189015837542
 30
0.0
 40
9.5
  0
CIRCLE
  5
113
100
AcDbEntity
100
AcDbCircle
  8
template_dowel
 62
256
370
-1
  6
BYLAYER
 10
344.7713325829388396
 20
-57.4111838765137819
 30
0.0
 40
9.5
  0
CIRCLE
  5
114
100
AcDbEntity
100
AcDbCircle
  8
template_dowel
 62
256
370
-1
  6
BYLAYER
 10
781.5971914521969666
 20
-46.8308189015837542
 30
0.0
 40
1.0
  0
CIRCLE
  5
115
100
AcDbEntity
100
AcDbCircle
  8
template_dowel
 62
256
370
-1
  6
BYLAYER
 10
344.7713325829388396
 20
-57.4111838765137819
 30
0.0
 40
1.0
  0
CIRCLE
  5
116
100
AcDbEntity
100
AcDbCircle
  8
template_dowel
 62
256
370
-1
  6
BYLAYER
 10
380.4091437422723629
 20
-103.3141576556206189
 30
0.0
 40
9.5
  0
CIRCLE
  5
117
100
AcDbEntity
100
AcDbCircle
  8
template_dowel
 62
256
370
-1
  6
BYLAYER
 10
380.4091437422723629
 20
-103.3141576556206189
 30
0.0
 40
1.0
  0
CIRCLE
  5
118
100
AcDbEntity
100
AcDbCircle
  8
template_dowel
 62
256
370
-1
  6
BYLAYER
 10
445.9154756405764601
 20
-106.9935047998640414
 30
0.0
 40
9.5
  0
CIRCLE
  5
119
100
AcDbEntity
100
AcDbCircle
  8
template_dowel
 62
256
370
-1
  6
BYLAYER
 10
785.6866836167728252
 20
-18.9640185082661716
 30
0.0
 40
9.5
  0
CIRCLE
  5
11A
100
AcDbEntity
100
AcDbCircle
  8
template_dowel
 62
256
370
-1
  6
BYLAYER
 10
445.9154756405764601
 20
-106.9935047998640414
 30
0.0
 40
1.0
  0
CIRCLE
  5
11B
100
AcDbEntity
100
AcDbCircle
  8
template_dowel
 62
256
370
-1
  6
BYLAYER
 10
785.6866836167728252
 20
-18.9640185082661716
 30
0.0
 40
1.0
  0
CIRCLE
  5
11C
100
AcDbEntity
100
AcDbCircle
  8
template_dowel
 62
256
370
-1
  6
BYLAYER
 10
556.4199662650098617
 20
-118.8564696679119805
 30
0.0
 40
9.5
  0
CIRCLE
  5
11D
100
AcDbEntity
100
AcDbCircle
  8
template_dowel
 62
256
370
-1
  6
BYLAYER
 10
556.4199662650098617
 20
-118.8564696679119805
 30
0.0
 40
1.0
  0
LINE
  5
11E
100
AcDbEntity
100
AcDbLine
  8
guides_dimensions
 62
256
370
-1
  6
BYLAYER
 10
826.5
 20
0.0000000000001705
 30
0.0
 11
296.5
 21
0.0000000000001705
 31
0.0
  0
LINE
  5
11F
100
AcDbEntity
100
AcDbLine
  8
guides_dimensions
 62
256
370
-1
  6
BYLAYER
 10
461.5027932958287238
 20
144.5634345445631652
 30
0.0
 11
461.5027932958287238
 21
-143.4365654554368916
 31
0.0
  0
LINE
  5
120
100
AcDbEntity
100
AcDbLine
  8
guides_dimensions
 62
256
370
-1
  6
BYLAYER
 10
497.0090380992246537
 20
153.6354132638123247
 30
0.0
 11
497.0090380992248811
 21
-153.6354132638118699
 31
0.0
  0
CIRCLE
  5
121
100
AcDbEntity
100
AcDbCircle
  8
template_dowel
 62
256
370
-1
  6
BYLAYER
 10
700.6741708853942328
 20
135.7055409533904538
 30
0.0
 40
9.5
  0
CIRCLE
  5
122
100
AcDbEntity
100
AcDbCircle
  8
template_dowel
 62
256
370
-1
  6
BYLAYER
 10
700.6741708853942328
 20
135.7055409533904538
 30
0.0
 40
1.0
  0
CIRCLE
  5
123
100
AcDbEntity
100
AcDbCircle
  8
template_dowel
 62
256
370
-1
  6
BYLAYER
 10
729.074545621092966
 20
-110.4968693811706117
 30
0.0
 40
9.5
  0
CIRCLE
  5
124
100
AcDbEntity
100
AcDbCircle
  8
template_dowel
 62
256
370
-1
  6
BYLAYER
 10
729.074545621092966
 20
-110.4968693811706117
 30
0.0
 40
1.0
  0
CIRCLE
  5
125
100
AcDbEntity
100
AcDbCircle
  8
template_dowel
 62
256
370
-1
  6
BYLAYER
 10
755.2140396593608784
 20
-61.0429350792094425
 30
0.0
 40
9.5
  0
CIRCLE
  5
126
100
AcDbEntity
100
AcDbCircle
  8
template_dowel
 62
256
370
-1
  6
BYLAYER
 10
755.2140396593608784
 20
-61.0429350792094425
 30
0.0
 40
1.0
  0
CIRCLE
  5
127
100
AcDbEntity
100
AcDbCircle
  8
template_dowel
 62
256
370
-1
  6
BYLAYER
 10
761.1863549376344054
 20
-100.9414895556366503
 30
0.0
 40
9.5
  0
CIRCLE
  5
128
100
AcDbEntity
100
AcDbCircle
  8
template_dowel
 62
256
370
-1
  6
BYLAYER
 10
761.1863549376344054
 20
-100.9414895556366503
 30
0.0
 40
1.0
  0
CIRCLE
  5
129
100
AcDbEntity
100
AcDbCircle
  8
template_dowel
 62
256
370
-1
  6
BYLAYER
 10
700.6741708853942328
 20
-135.7055409533900843
 30
0.0
 40
9.5
  0
CIRCLE
  5
12A
100
AcDbEntity
100
AcDbCircle
  8
template_dowel
 62
256
370
-1
  6
BYLAYER
 10
700.6741708853942328
 20
-135.7055409533900843
 30
0.0
 40
1.0
  0
CIRCLE
  5
12B
100
AcDbEntity
100
AcDbCircle
  8
template_dowel
 62
256
370
-1
  6
BYLAYER
 10
672.9946375758099748
 20
-168.4976949856975637
 30
0.0
 40
9.5
  0
CIRCLE
  5
12C
100
AcDbEntity
100
AcDbCircle
  8
template_dowel
 62
256
370
-1
  6
BYLAYER
 10
672.9946375758099748
 20
-168.4976949856975637
 30
0.0
 40
1.0
  0
ARC
  5
12D
100
AcDbEntity
  8
guides_dimensions
 62
256
370
-1
  6
BYLAYER
100
AcDbCircle
 10
499.9999999999993179
 20
-4302.1468630459503402
 30
0.0
 40
4572.0
100
AcDbArc
 50
86.2377313328268542
 51
93.7622686671731316
  0
MTEXT
  5
12E
100
AcDbEntity
100
AcDbMText
  8
guides_dimensions
 62
256
370
-1
  6
BYLAYER
 10
770.0
 20
390.0
 30
0.0
 40
2.5
 41
0.0
 71
1
 72
1
  1
25' Radius Curve
  7
textstyle0
 50
0.0
 73
2
 44
1.0
  0
MTEXT
  5
12F
100
AcDbEntity
100
AcDbMText
  8
guides_dimensions
 62
256
370
-1
  6
BYLAYER
 10
770.0
 20
270.0
 30
0.0
 40
2.5
 41
0.0
 71
1
 72
1
  1
15' Radius Curve
  7
textstyle1
 50
0.0
 73
2
 44
1.0
  0
LINE
  5
130
100
AcDbEntity
100
AcDbLine
  8
printing_alignment_guides
 62
256
370
-1
  6
BYLAYER
 10
511.5
 20
15.0000000000001705
 30
0.0
 11
541.5
 21
-14.9999999999998295
 31
0.0
  0
LINE
  5
131
100
AcDbEntity
100
AcDbLine
  8
printing_alignment_guides
 62
256
370
-1
  6
BYLAYER
 10
541.5
 20
15.0000000000001705
 30
0.0
 11
511.5
 21
-14.9999999999998295
 31
0.0
  0
LINE
  5
132
100
AcDbEntity
100
AcDbLine
  8
printing_alignment_guides
 62
256
370
-1
  6
BYLAYER
 10
511.5
 20
-14.9999999999998295
 30
0.0
 11
511.5
 21
15.0000000000001705
 31
0.0
  0
LINE
  5
133
100
AcDbEntity
100
AcDbLine
  8
printing_alignment_guides
 62
256
370
-1
  6
BYLAYER
 10
511.5
 20
15.0000000000001705
 30
0.0
 11
541.5
 21
15.0000000000001705
 31
0.0
  0
LINE
  5
134
100
AcDbEntity
100
AcDbLine
  8
printing_alignment_guides
 62
256
370
-1
  6
BYLAYER
 10
541.5
 20
15.0000000000001705
 30
0.0
 11
541.5
 21
-14.9999999999998295
 31
0.0
  0
LINE
  5
135
100
AcDbEntity
100
AcDbLine
  8
printing_alignment_guides
 62
256
370
-1
  6
BYLAYER
 10
541.5
 20
-14.9999999999998295
 30
0.0
 11
511.5
 21
-14.9999999999998295
 31
0.0
  0
LINE
  5
136
100
AcDbEntity
100
AcDbLine
  8
printing_alignment_guides
 62
256
370
-1
  6
BYLAYER
 10
761.6157776153409031
 20
15.0000000000001705
 30
0.0
 11
791.6157776153409031
 21
-14.9999999999998295
 31
0.0
  0
LINE
  5
137
100
AcDbEntity
100
AcDbLine
  8
printing_alignment_guides
 62
256
370
-1
  6
BYLAYER
 10
791.6157776153409031
 20
15.0000000000001705
 30
0.0
 11
761.6157776153409031
 21
-14.9999999999998295
 31
0.0
  0
LINE
  5
138
100
AcDbEntity
100
AcDbLine
  8
printing_alignment_guides
 62
256
370
-1
  6
BYLAYER
 10
761.6157776153409031
 20
-14.9999999999998295
 30
0.0
 11
761.6157776153409031
 21
15.0000000000001705
 31
0.0
  0
LINE
  5
139
100
AcDbEntity
100
AcDbLine
  8
printing_alignment_guides
 62
256
370
-1
  6
BYLAYER
 10
761.6157776153409031
 20
15.0000000000001705
 30
0.0
 11
791.6157776153409031
 21
15.0000000000001705
 31
0.0
  0
LINE
  5
13A
100
AcDbEntity
100
AcDbLine
  8
printing_alignment_guides
 62
256
370
-1
  6
BYLAYER
 10
791.6157776153409031
 20
15.0000000000001705
 30
0.0
 11
791.6157776153409031
 21
-14.9999999999998295
 31
0.0
  0
LINE
  5
13B
100
AcDbEntity
100
AcDbLine
  8
printing_alignment_guides
 62
256
370
-1
  6
BYLAYER
 10
791.6157776153409031
 20
-14.9999999999998295
 30
0.0
 11
761.6157776153409031
 21
-14.9999999999998295
 31
0.0
  0
LINE
  5
13C
100
AcDbEntity
100
AcDbLine
  8
printing_alignment_guides
 62
256
370
-1
  6
BYLAYER
 10
511.5
 20
165.0000000000001705
 30
0.0
 11
541.5
 21
135.0000000000001705
 31
0.0
  0
LINE
  5
13D
100
AcDbEntity
100
AcDbLine
  8
printing_alignment_guides
 62
256
370
-1
  6
BYLAYER
 10
541.5
 20
165.0000000000001705
 30
0.0
 11
511.5
 21
135.0000000000001705
 31
0.0
  0
LINE
  5
13E
100
AcDbEntity
100
AcDbLine
  8
printing_alignment_guides
 62
256
370
-1
  6
BYLAYER
 10
511.5
 20
135.0000000000001705
 30
0.0
 11
511.5
 21
165.0000000000001705
 31
0.0
  0
LINE
  5
13F
100
AcDbEntity
100
AcDbLine
  8
printing_alignment_guides
 62
256
370
-1
  6
BYLAYER
 10
511.5
 20
165.0000000000001705
 30
0.0
 11
541.5
 21
165.0000000000001705
 31
0.0
  0
LINE
  5
140
100
AcDbEntity
100
AcDbLine
  8
printing_alignment_guides
 62
256
370
-1
  6
BYLAYER
 10
541.5
 20
165.0000000000001705
 30
0.0
 11
541.5
 21
135.0000000000001705
 31
0.0
  0
LINE
  5
141
100
AcDbEntity
100
AcDbLine
  8
printing_alignment_guides
 62
256
370
-1
  6
BYLAYER
 10
541.5
 20
135.0000000000001705
 30
0.0
 11
511.5
 21
135.0000000000001705
 31
0.0
  0
LINE
  5
142
100
AcDbEntity
100
AcDbLine
  8
printing_alignment_guides
 62
256
370
-1
  6
BYLAYER
 10
291.5
 20
15.0000000000001705
 30
0.0
 11
321.5
 21
-14.9999999999998295
 31
0.0
  0
LINE
  5
143
100
AcDbEntity
100
AcDbLine
  8
printing_alignment_guides
 62
256
370
-1
  6
BYLAYER
 10
321.5
 20
15.0000000000001705
 30
0.0
 11
291.5
 21
-14.9999999999998295
 31
0.0
  0
LINE
  5
144
100
AcDbEntity
100
AcDbLine
  8
printing_alignment_guides
 62
256
370
-1
  6
BYLAYER
 10
291.5
 20
-14.9999999999998295
 30
0.0
 11
291.5
 21
15.0000000000001705
 31
0.0
  0
LINE
  5
145
100
AcDbEntity
100
AcDbLine
  8
printing_alignment_guides
 62
256
370
-1
  6
BYLAYER
 10
291.5
 20
15.0000000000001705
 30
0.0
 11
321.5
 21
15.0000000000001705
 31
0.0
  0
LINE
  5
146
100
AcDbEntity
100
AcDbLine
  8
printing_alignment_guides
 62
256
370
-1
  6
BYLAYER
 10
321.5
 20
15.0000000000001705
 30
0.0
 11
321.5
 21
-14.9999999999998295
 31
0.0
  0
LINE
  5
147
100
AcDbEntity
100
AcDbLine
  8
printing_alignment_guides
 62
256
370
-1
  6
BYLAYER
 10
321.5
 20
-14.9999999999998295
 30
0.0
 11
291.5
 21
-14.9999999999998295
 31
0.0
  0
LINE
  5
148
100
AcDbEntity
100
AcDbLine
  8
printing_alignment_guides
 62
256
370
-1
  6
BYLAYER
 10
511.5
 20
-164.9999999999998579
 30
0.0
 11
541.5
 21
-134.9999999999997158
 31
0.0
  0
LINE
  5
149
100
AcDbEntity
100
AcDbLine
  8
printing_alignment_guides
 62
256
370
-1
  6
BYLAYER
 10
541.5
 20
-164.9999999999998863
 30
0.0
 11
511.5
 21
-134.9999999999997726
 31
0.0
  0
LINE
  5
14A
100
AcDbEntity
100
AcDbLine
  8
printing_alignment_guides
 62
256
370
-1
  6
BYLAYER
 10
511.5
 20
-134.9999999999997726
 30
0.0
 11
511.5
 21
-164.9999999999998579
 31
0.0
  0
LINE
  5
14B
100
AcDbEntity
100
AcDbLine
  8
printing_alignment_guides
 62
256
370
-1
  6
BYLAYER
 10
511.5
 20
-164.9999999999998579
 30
0.0
 11
541.5
 21
-164.9999999999998863
 31
0.0
  0
LINE
  5
14C
100
AcDbEntity
100
AcDbLine
  8
printing_alignment_guides
 62
256
370
-1
  6
BYLAYER
 10
541.5
 20
-164.9999999999998863
 30
0.0
 11
541.5
 21
-134.9999999999997158
 31
0.0
  0
LINE
  5
14D
100
AcDbEntity
100
AcDbLine
  8
printing_alignment_guides
 62
256
370
-1
  6
BYLAYER
 10
541.5
 20
-134.9999999999997158
 30
0.0
 11
511.5
 21
-134.9999999999997726
 31
0.0
  0
ARC
  5
14E
100
AcDbEntity
  8
guides_dimensions
 62
256
370
-1
  6
BYLAYER
100
AcDbCircle
 10
500.000000000002558
 20
8014.0921980233479189
 30
0.0
 40
7620.0
100
AcDbArc
 50
267.7436775084270835
 51
272.2563224915729165
  0
LINE
  5
14F
100
AcDbEntity
100
AcDbLine
  8
guides_dimensions
 62
256
370
-1
  6
BYLAYER
 10
200.0000000000035243
 20
400.0000000000009095
 30
0.0
 11
199.9999999999996589
 21
260.0
 31
0.0
  0
LINE
  5
150
100
AcDbEntity
100
AcDbLine
  8
guides_dimensions
 62
256
370
-1
  6
BYLAYER
 10
799.9999999999988631
 20
400.0000000000009095
 30
0.0
 11
799.9999999999995453
 21
259.9999999999990905
 31
0.0
  0
LINE
  5
151
100
AcDbEntity
100
AcDbLine
  8
guides_dimensions
 62
256
370
-1
  6
BYLAYER
 10
799.9999999999992042
 20
330.0
 30
0.0
 11
200.0000000000015916
 21
330.0000000000004547
 31
0.0
  0
LINE
  5
152
100
AcDbEntity
100
AcDbLine
  8
printing_alignment_guides
 62
256
370
-1
  6
BYLAYER
 10
595.0
 20
265.0
 30
0.0
 11
625.0
 21
235.0
 31
0.0
  0
LINE
  5
153
100
AcDbEntity
100
AcDbLine
  8
printing_alignment_guides
 62
256
370
-1
  6
BYLAYER
 10
625.0
 20
265.0
 30
0.0
 11
595.0
 21
235.0
 31
0.0
  0
LINE
  5
154
100
AcDbEntity
100
AcDbLine
  8
printing_alignment_guides
 62
256
370
-1
  6
BYLAYER
 10
595.0
 20
235.0
 30
0.0
 11
595.0
 21
265.0
 31
0.0
  0
LINE
  5
155
100
AcDbEntity
100
AcDbLine
  8
printing_alignment_guides
 62
256
370
-1
  6
BYLAYER
 10
595.0
 20
265.0
 30
0.0
 11
625.0
 21
265.0
 31
0.0
  0
LINE
  5
156
100
AcDbEntity
100
AcDbLine
  8
printing_alignment_guides
 62
256
370
-1
  6
BYLAYER
 10
625.0
 20
265.0
 30
0.0
 11
625.0
 21
235.0
 31
0.0
  0
LINE
  5
157
100
AcDbEntity
100
AcDbLine
  8
printing_alignment_guides
 62
256
370
-1
  6
BYLAYER
 10
625.0
 20
235.0
 30
0.0
 11
595.0
 21
235.0
 31
0.0
  0
LINE
  5
158
100
AcDbEntity
100
AcDbLine
  8
printing_alignment_guides
 62
256
370
-1
  6
BYLAYER
 10
595.0
 20
424.9999999999999432
 30
0.0
 11
595.0
 21
394.9999999999998863
 31
0.0
  0
LINE
  5
159
100
AcDbEntity
100
AcDbLine
  8
printing_alignment_guides
 62
256
370
-1
  6
BYLAYER
 10
595.0
 20
394.9999999999998863
 30
0.0
 11
625.0
 21
394.9999999999998863
 31
0.0
  0
LINE
  5
15A
100
AcDbEntity
100
AcDbLine
  8
printing_alignment_guides
 62
256
370
-1
  6
BYLAYER
 10
625.0
 20
394.9999999999998863
 30
0.0
 11
625.0
 21
424.9999999999998863
 31
0.0
  0
LINE
  5
15B
100
AcDbEntity
100
AcDbLine
  8
printing_alignment_guides
 62
256
370
-1
  6
BYLAYER
 10
625.0
 20
424.9999999999998863
 30
0.0
 11
595.0
 21
424.9999999999999432
 31
0.0
  0
LINE
  5
15C
100
AcDbEntity
100
AcDbLine
  8
printing_alignment_guides
 62
256
370
-1
  6
BYLAYER
 10
595.0
 20
394.9999999999998863
 30
0.0
 11
625.0
 21
424.9999999999998863
 31
0.0
  0
LINE
  5
15D
100
AcDbEntity
100
AcDbLine
  8
printing_alignment_guides
 62
256
370
-1
  6
BYLAYER
 10
625.0
 20
394.9999999999998863
 30
0.0
 11
595.0
 21
424.9999999999999432
 31
0.0
  0
LINE
  5
15E
100
AcDbEntity
100
AcDbLine
  8
printing_alignment_guides
 62
256
370
-1
  6
BYLAYER
 10
404.9999999999983515
 20
235.0000000000023306
 30
0.0
 11
404.9999999999990905
 21
265.0000000000023874
 31
0.0
  0
LINE
  5
15F
100
AcDbEntity
100
AcDbLine
  8
printing_alignment_guides
 62
256
370
-1
  6
BYLAYER
 10
404.9999999999990905
 20
265.0000000000023874
 30
0.0
 11
374.9999999999990905
 21
265.0000000000031832
 31
0.0
  0
LINE
  5
160
100
AcDbEntity
100
AcDbLine
  8
printing_alignment_guides
 62
256
370
-1
  6
BYLAYER
 10
374.9999999999990905
 20
265.0000000000031832
 30
0.0
 11
374.9999999999983515
 21
235.0000000000031264
 31
0.0
  0
LINE
  5
161
100
AcDbEntity
100
AcDbLine
  8
printing_alignment_guides
 62
256
370
-1
  6
BYLAYER
 10
374.9999999999983515
 20
235.0000000000031264
 30
0.0
 11
404.9999999999983515
 21
235.0000000000023306
 31
0.0
  0
LINE
  5
162
100
AcDbEntity
100
AcDbLine
  8
printing_alignment_guides
 62
256
370
-1
  6
BYLAYER
 10
405.0000000000030695
 20
425.0000000000022737
 30
0.0
 11
405.0000000000023874
 21
395.0000000000022737
 31
0.0
  0
LINE
  5
163
100
AcDbEntity
100
AcDbLine
  8
printing_alignment_guides
 62
256
370
-1
  6
BYLAYER
 10
405.0000000000023874
 20
395.0000000000022737
 30
0.0
 11
375.0000000000023306
 21
395.0000000000030127
 31
0.0
  0
LINE
  5
164
100
AcDbEntity
100
AcDbLine
  8
printing_alignment_guides
 62
256
370
-1
  6
BYLAYER
 10
375.0000000000023306
 20
395.0000000000030127
 30
0.0
 11
375.0000000000030695
 21
425.0000000000030695
 31
0.0
  0
LINE
  5
165
100
AcDbEntity
100
AcDbLine
  8
printing_alignment_guides
 62
256
370
-1
  6
BYLAYER
 10
375.0000000000030695
 20
425.0000000000030695
 30
0.0
 11
405.0000000000030695
 21
425.0000000000022737
 31
0.0
  0
LINE
  5
166
100
AcDbEntity
100
AcDbLine
  8
printing_alignment_guides
 62
256
370
-1
  6
BYLAYER
 10
405.0000000000023874
 20
395.0000000000022737
 30
0.0
 11
375.0000000000030695
 21
425.0000000000030695
 31
0.0
  0
LINE
  5
167
100
AcDbEntity
100
AcDbLine
  8
printing_alignment_guides
 62
256
370
-1
  6
BYLAYER
 10
375.0000000000023306
 20
395.0000000000030127
 30
0.0
 11
405.0000000000030695
 21
425.0000000000022737
 31
0.0
  0
LINE
  5
168
100
AcDbEntity
100
AcDbLine
  8
printing_alignment_guides
 62
256
370
-1
  6
BYLAYER
 10
404.9999999999990905
 20
265.0000000000023874
 30
0.0
 11
374.9999999999983515
 21
235.0000000000031264
 31
0.0
  0
LINE
  5
169
100
AcDbEntity
100
AcDbLine
  8
printing_alignment_guides
 62
256
370
-1
  6
BYLAYER
 10
374.9999999999990905
 20
265.0000000000031832
 30
0.0
 11
404.9999999999983515
 21
235.0000000000023306
 31
0.0
  0
MTEXT
  5
16A
100
AcDbEntity
100
AcDbMText
  8
guides_dimensions
 62
256
370
-1
  6
BYLAYER
 10
900.0
 20
310.0
 30
0.0
 40
2.5
 41
0.0
 71
1
 72
1
  1
14" Radius Curve
  7
textstyle2
 50
0.0
 73
2
 44
1.0
  0
ARC
  5
16B
100
AcDbEntity
  8
guides_dimensions
 62
256
370
-1
  6
BYLAYER
100
AcDbCircle
 10
940.0
 20
-52.4712754253883986
 30
0.0
 40
356.0
100
AcDbArc
 50
81.9261458747800617
 51
98.0738541252199383
  0
LINE
  5
16C
100
AcDbEntity
100
AcDbLine
  8
guides_dimensions
 62
256
370
-1
  6
BYLAYER
 10
890.0
 20
300.0
 30
0.0
 11
890.0
 21
350.0
 31
0.0
  0
LINE
  5
16D
100
AcDbEntity
100
AcDbLine
  8
guides_dimensions
 62
256
370
-1
  6
BYLAYER
 10
990.0
 20
350.0
 30
0.0
 11
990.0000000000001137
 21
300.0
 31
0.0
  0
ARC
  5
16E
100
AcDbEntity
  8
guides_dimensions
 62
256
370
-1
  6
BYLAYER
100
AcDbCircle
 10
940.0
 20
650.8737276666076923
 30
0.0
 40
305.0
100
AcDbArc
 50
260.5646612766968246
 51
279.4353387233031754
  0
MTEXT
  5
16F
100
AcDbEntity
100
AcDbMText
  8
guides_dimensions
 62
256
370
-1
  6
BYLAYER
 10
900.0
 20
340.0
 30
0.0
 40
2.5
 41
0.0
 71
1
 72
1
  1
12" Radius Curve
  7
textstyle3
 50
0.0
 73
2
 44
1.0
  0
LINE
  5
170
100
AcDbEntity
100
AcDbLine
  8
back_bracing
 62
256
370
-1
  6
BYLAYER
 10
358.5
 20
-5.9999999999998295
 30
0.0
 11
750.0350757909168351
 21
-5.9999999999998295
 31
0.0
  0
LINE
  5
171
100
AcDbEntity
100
AcDbLine
  8
back_bracing
 62
256
370
-1
  6
BYLAYER
 10
750.0350757909168351
 20
-5.9999999999998304
 30
0.0
 11
750.0350757909168351
 21
6.0000000000001696
 31
0.0
  0
LINE
  5
172
100
AcDbEntity
100
AcDbLine
  8
back_bracing
 62
256
370
-1
  6
BYLAYER
 10
750.0350757909168351
 20
6.0000000000001705
 30
0.0
 11
358.5
 21
6.0000000000001705
 31
0.0
  0
LINE
  5
173
100
AcDbEntity
100
AcDbLine
  8
back_bracing
 62
256
370
-1
  6
BYLAYER
 10
358.5
 20
6.0000000000001705
 30
0.0
 11
358.5
 21
-5.9999999999998295
 31
0.0
  0
LINE
  5
174
100
AcDbEntity
100
AcDbLine
  8
back_bracing
 62
256
370
-1
  6
BYLAYER
 10
406.5
 20
-121.9999999999998295
 30
0.0
 11
412.5
 21
-121.9999999999998295
 31
0.0
  0
LINE
  5
175
100
AcDbEntity
100
AcDbLine
  8
back_bracing
 62
256
370
-1
  6
BYLAYER
 10
412.5
 20
-121.9999999999998295
 30
0.0
 11
412.5
 21
122.0000000000001705
 31
0.0
  0
LINE
  5
176
100
AcDbEntity
100
AcDbLine
  8
back_bracing
 62
256
370
-1
  6
BYLAYER
 10
406.5
 20
122.000000000000199
 30
0.0
 11
406.5
 21
-121.9999999999998295
 31
0.0
  0
LINE
  5
177
100
AcDbEntity
100
AcDbLine
  8
back_bracing
 62
256
370
-1
  6
BYLAYER
 10
514.9909619007751189
 20
-102.9999999999998295
 30
0.0
 11
520.9909619007751189
 21
-102.9999999999998295
 31
0.0
  0
LINE
  5
178
100
AcDbEntity
100
AcDbLine
  8
back_bracing
 62
256
370
-1
  6
BYLAYER
 10
520.9909619007751189
 20
-102.9999999999998295
 30
0.0
 11
520.9909619007751189
 21
103.0000000000001137
 31
0.0
  0
LINE
  5
179
100
AcDbEntity
100
AcDbLine
  8
back_bracing
 62
256
370
-1
  6
BYLAYER
 10
514.9909619007751189
 20
103.0000000000001705
 30
0.0
 11
514.9909619007751189
 21
-102.9999999999998295
 31
0.0
  0
LINE
  5
17A
100
AcDbEntity
100
AcDbLine
  8
back_bracing
 62
256
370
-1
  6
BYLAYER
 10
690.5
 20
-158.9999999999998295
 30
0.0
 11
696.5
 21
-158.9999999999998295
 31
0.0
  0
LINE
  5
17B
100
AcDbEntity
100
AcDbLine
  8
back_bracing
 62
256
370
-1
  6
BYLAYER
 10
696.5
 20
-158.9999999999998295
 30
0.0
 11
696.5
 21
159.0000000000001137
 31
0.0
  0
LINE
  5
17C
100
AcDbEntity
100
AcDbLine
  8
back_bracing
 62
256
370
-1
  6
BYLAYER
 10
690.5
 20
159.0000000000002274
 30
0.0
 11
690.5
 21
-158.9999999999998295
 31
0.0
  0
LINE
  5
17D
100
AcDbEntity
100
AcDbLine
  8
back_bracing
 62
256
370
-1
  6
BYLAYER
 10
406.5
 20
122.0000000000002132
 30
0.0
 11
412.5
 21
122.0000000000001563
 31
0.0
  0
LINE
  5
17E
100
AcDbEntity
100
AcDbLine
  8
back_bracing
 62
256
370
-1
  6
BYLAYER
 10
514.9909619007751189
 20
103.0000000000001847
 30
0.0
 11
520.9909619007751189
 21
103.0000000000001563
 31
0.0
  0
LINE
  5
17F
100
AcDbEntity
100
AcDbLine
  8
back_bracing
 62
256
370
-1
  6
BYLAYER
 10
690.5
 20
159.000000000000199
 30
0.0
 11
696.5
 21
159.0000000000001137
 31
0.0
  0
LINE
  5
180
100
AcDbEntity
100
AcDbLine
  8
0
 62
256
370
-1
  6
BYLAYER
 10
731.9999999999985221
 20
-394.9999999999864713
 30
0.0
 11
281.9999999999978968
 21
-395.0000000000137561
 31
0.0
  0
LINE
  5
181
100
AcDbEntity
100
AcDbLine
  8
0
 62
256
370
-1
  6
BYLAYER
 10
281.9999999999978968
 20
-300.0000000000137561
 30
0.0
 11
731.9999999999985221
 21
-299.9999999999864713
 31
0.0
  0
LINE
  5
182
100
AcDbEntity
100
AcDbLine
  8
0
 62
256
370
-1
  6
BYLAYER
 10
281.9999999999978968
 20
-395.0000000000137561
 30
0.0
 11
281.9999999999978968
 21
-300.0000000000137561
 31
0.0
  0
LINE
  5
183
100
AcDbEntity
100
AcDbLine
  8
0
 62
256
370
-1
  6
BYLAYER
 10
-200.0
 20
-665.0
 30
0.0
 11
-200.0
 21
-600.0
 31
0.0
  0
LINE
  5
184
100
AcDbEntity
100
AcDbLine
  8
0
 62
256
370
-1
  6
BYLAYER
 10
-200.0
 20
-665.0
 30
0.0
 11
-100.0
 21
-665.0
 31
0.0
  0
LINE
  5
185
100
AcDbEntity
100
AcDbLine
  8
0
 62
256
370
-1
  6
BYLAYER
 10
-200.0
 20
-600.0
 30
0.0
 11
-100.0
 21
-600.0
 31
0.0
  0
LINE
  5
186
100
AcDbEntity
100
AcDbLine
  8
0
 62
256
370
-1
  6
BYLAYER
 10
-200.0
 20
-600.0
 30
0.0
 11
-120.0
 21
-600.0
 31
0.0
  0
LINE
  5
187
100
AcDbEntity
100
AcDbLine
  8
0
 62
256
370
-1
  6
BYLAYER
 10
-120.0
 20
-600.0
 30
0.0
 11
-120.0
 21
-665.0
 31
0.0
  0
LINE
  5
188
100
AcDbEntity
100
AcDbLine
  8
0
 62
256
370
-1
  6
BYLAYER
 10
-100.0
 20
-600.0
 30
0.0
 11
-100.0
 21
-665.0
 31
0.0
  0
MTEXT
  5
189
100
AcDbEntity
100
AcDbMText
  8
0
 62
256
370
-1
  6
BYLAYER
 10
-170.0
 20
-590.0
 30
0.0
 40
2.5
 41
0.0
 71
1
 72
1
  1
Heel Block
  7
textstyle4
 50
0.0
 73
2
 44
1.0
  0
MTEXT
  5
18A
100
AcDbEntity
100
AcDbMText
  8
0
 62
256
370
-1
  6
BYLAYER
 10
-180.0
 20
-610.0
 30
0.0
 40
2.5
 41
0.0
 71
1
 72
1
  1
Top
  7
textstyle5
 50
0.0
 73
2
 44
1.0
  0
LINE
  5
18B
100
AcDbEntity
100
AcDbLine
  8
0
 62
256
370
-1
  6
BYLAYER
 10
-169.9999999999993747
 20
-743.0
 30
0.0
 11
-200.0
 21
-743.0
 31
0.0
  0
LINE
  5
18C
100
AcDbEntity
100
AcDbLine
  8
0
 62
256
370
-1
  6
BYLAYER
 10
-199.9999999999993747
 20
-740.0
 30
0.0
 11
-169.9999999999993747
 21
-740.0
 31
0.0
  0
LINE
  5
18D
100
AcDbEntity
100
AcDbLine
  8
0
 62
256
370
-1
  6
BYLAYER
 10
-169.9999999999993747
 20
-707.9999999999727152
 30
0.0
 11
-167.9999999999993747
 21
-707.9999999999727152
 31
0.0
  0
LINE
  5
18E
100
AcDbEntity
100
AcDbLine
  8
0
 62
256
370
-1
  6
BYLAYER
 10
-167.9999999999993747
 20
-707.9999999999727152
 30
0.0
 11
-167.9999999999993747
 21
-714.9999999999727152
 31
0.0
  0
LINE
  5
18F
100
AcDbEntity
100
AcDbLine
  8
0
 62
256
370
-1
  6
BYLAYER
 10
-167.9999999999993747
 20
-714.9999999999727152
 30
0.0
 11
-169.9999999999993747
 21
-714.9999999999727152
 31
0.0
  0
LINE
  5
190
100
AcDbEntity
100
AcDbLine
  8
0
 62
256
370
-1
  6
BYLAYER
 10
-200.0
 20
-775.0
 30
0.0
 11
-200.0
 21
-680.0
 31
0.0
  0
LINE
  5
191
100
AcDbEntity
100
AcDbLine
  8
0
 62
256
370
-1
  6
BYLAYER
 10
-169.9999999999993747
 20
-738.0
 30
0.0
 11
-167.9999999999993747
 21
-738.0
 31
0.0
  0
LINE
  5
192
100
AcDbEntity
100
AcDbLine
  8
0
 62
256
370
-1
  6
BYLAYER
 10
-167.9999999999993747
 20
-738.0
 30
0.0
 11
-167.9999999999993747
 21
-745.0
 31
0.0
  0
LINE
  5
193
100
AcDbEntity
100
AcDbLine
  8
0
 62
256
370
-1
  6
BYLAYER
 10
-167.9999999999993747
 20
-745.0
 30
0.0
 11
-169.9999999999993747
 21
-745.0
 31
0.0
  0
LINE
  5
194
100
AcDbEntity
100
AcDbLine
  8
0
 62
256
370
-1
  6
BYLAYER
 10
-169.9999999999993463
 20
-704.9999999999998863
 30
0.0
 11
-169.9999999999991758
 21
-749.9999999999724878
 31
0.0
  0
LINE
  5
195
100
AcDbEntity
100
AcDbLine
  8
0
 62
256
370
-1
  6
BYLAYER
 10
-99.9999999999980673
 20
-772.1980390271821761
 30
0.0
 11
-99.9999999999978968
 21
-774.9999999999938609
 31
0.0
  0
LINE
  5
196
100
AcDbEntity
100
AcDbLine
  8
0
 62
256
370
-1
  6
BYLAYER
 10
-120.0000000000002132
 20
-682.5596934910659002
 30
0.0
 11
-120.0000000000002842
 21
-679.9999999999838565
 31
0.0
  0
LINE
  5
197
100
AcDbEntity
100
AcDbLine
  8
0
 62
256
370
-1
  6
BYLAYER
 10
-170.0
 20
-705.0
 30
0.0
 11
-127.1265211443319743
 21
-692.1379563432763007
 31
0.0
  0
LINE
  5
198
100
AcDbEntity
100
AcDbLine
  8
0
 62
256
370
-1
  6
BYLAYER
 10
-169.9999999999993463
 20
-749.9999999999727152
 30
0.0
 11
-108.0388386486125398
 21
-762.3922322702743486
 31
0.0
  0
LINE
  5
199
100
AcDbEntity
100
AcDbLine
  8
0
 62
256
370
-1
  6
BYLAYER
 10
-199.9999999999993747
 20
-709.9999999999727152
 30
0.0
 11
-169.9999999999993747
 21
-709.9999999999727152
 31
0.0
  0
LINE
  5
19A
100
AcDbEntity
100
AcDbLine
  8
0
 62
256
370
-1
  6
BYLAYER
 10
-169.9999999999993747
 20
-712.9999999999727152
 30
0.0
 11
-200.0
 21
-712.9999999999727152
 31
0.0
  0
LINE
  5
19B
100
AcDbEntity
100
AcDbLine
  8
0
 62
256
370
-1
  6
BYLAYER
 10
-120.0000000000002842
 20
-679.9999999999838565
 30
0.0
 11
-200.0
 21
-680.0
 31
0.0
  0
LINE
  5
19C
100
AcDbEntity
100
AcDbLine
  8
0
 62
256
370
-1
  6
BYLAYER
 10
-200.0
 20
-775.0
 30
0.0
 11
-99.9999999999978968
 21
-774.9999999999938609
 31
0.0
  0
LINE
  5
19D
100
AcDbEntity
100
AcDbLine
  8
0
 62
9
420
12632256
370
-1
  6
BYLAYER
 10
-169.9999999999993747
 20
-704.9999999999997726
 30
0.0
 11
-200.0000000000000284
 21
-704.9999999999997726
 31
0.0
  0
LINE
  5
19E
100
AcDbEntity
100
AcDbLine
  8
0
 62
9
420
12632256
370
-1
  6
BYLAYER
 10
-169.9999999999993463
 20
-749.9999999999726015
 30
0.0
 11
-200.0
 21
-749.9999999999726015
 31
0.0
  0
LINE
  5
19F
100
AcDbEntity
100
AcDbLine
  8
0
 62
256
370
-1
  6
BYLAYER
 10
-50.0
 20
-680.0
 30
0.0
 11
15.0
 21
-680.0
 31
0.0
  0
LINE
  5
1A0
100
AcDbEntity
100
AcDbLine
  8
0
 62
256
370
-1
  6
BYLAYER
 10
-50.0
 20
-775.0
 30
0.0
 11
-50.0
 21
-680.0
 31
0.0
  0
LINE
  5
1A1
100
AcDbEntity
100
AcDbLine
  8
0
 62
256
370
-1
  6
BYLAYER
 10
-50.0
 20
-775.0
 30
0.0
 11
15.0
 21
-775.0
 31
0.0
  0
LINE
  5
1A2
100
AcDbEntity
100
AcDbLine
  8
0
 62
256
370
-1
  6
BYLAYER
 10
15.0
 20
-775.0
 30
0.0
 11
15.0
 21
-680.0
 31
0.0
  0
LINE
  5
1A3
100
AcDbEntity
100
AcDbLine
  8
0
 62
256
370
-1
  6
BYLAYER
 10
-50.0
 20
-690.0
 30
0.0
 11
15.0
 21
-690.0
 31
0.0
  0
LINE
  5
1A4
100
AcDbEntity
100
AcDbLine
  8
0
 62
256
370
-1
  6
BYLAYER
 10
-50.0
 20
-705.0
 30
0.0
 11
15.0
 21
-705.0
 31
0.0
  0
LINE
  5
1A5
100
AcDbEntity
100
AcDbLine
  8
0
 62
256
370
-1
  6
BYLAYER
 10
-50.0
 20
-750.0
 30
0.0
 11
15.0
 21
-750.0
 31
0.0
  0
LINE
  5
1A6
100
AcDbEntity
100
AcDbLine
  8
0
 62
256
370
-1
  6
BYLAYER
 10
-50.0
 20
-764.0
 30
0.0
 11
15.0
 21
-764.0
 31
0.0
  0
CIRCLE
  5
1A7
100
AcDbEntity
100
AcDbCircle
  8
0
 62
256
370
-1
  6
BYLAYER
 10
-17.5000000000003126
 20
-741.5000000000272848
 30
0.0
 40
3.5
  0
CIRCLE
  5
1A8
100
AcDbEntity
100
AcDbCircle
  8
0
 62
256
370
-1
  6
BYLAYER
 10
-17.5000000000003126
 20
-711.5
 30
0.0
 40
3.5
  0
ARC
  5
1A9
100
AcDbEntity
  8
0
 62
256
370
-1
  6
BYLAYER
100
AcDbCircle
 10
-109.9999999999980673
 20
-772.1980390271828583
 30
0.0
 40
10.0
100
AcDbArc
 50
0.0
 51
78.6900675259582272
  0
ARC
  5
1AA
100
AcDbEntity
  8
0
 62
256
370
-1
  6
BYLAYER
100
AcDbCircle
 10
-130.000000000000199
 20
-682.5596934910662412
 30
0.0
 40
10.0
100
AcDbArc
 50
286.6992442340222169
 51
0.0
  0
MTEXT
  5
1AB
100
AcDbEntity
100
AcDbMText
  8
0
 62
256
370
-1
  6
BYLAYER
 10
-180.0
 20
-760.0
 30
0.0
 40
2.5
 41
0.0
 71
1
 72
1
  1
Grain goes this way
  7
textstyle6
 50
0.0
 73
2
 44
1.0
  0
DIMENSION
  5
1AC
100
AcDbEntity
  8
0
 62
256
370
-1
  6
BYLAYER
100
AcDbDimension
 10
-182.0
 20
-764.0
 30
0.0
 11
-165.0
 21
-762.125
 31
0.0
 70
1
 71
8
 72
2
 41
1.0
 42
0.0
  1

  3
Standard
100
AcDbAlignedDimension
 13
-182.0
 23
-764.0
 33
0.0
 14
-148.0
 24
-764.0
 34
0.0
1001
ACAD
1000
DSTYLE
1002
{
1070
144
1040
1
1002
}
  0
MTEXT
  5
1AD
100
AcDbEntity
100
AcDbMText
  8
0
 62
256
370
-1
  6
BYLAYER
 10
-178.1196124136820913
 20
-685.5236613971321731
 30
0.0
 40
2.5
 41
0.0
 71
1
 72
1
  1
Grain goes this way
  7
textstyle7
 50
0.0
 73
2
 44
1.0
  0
DIMENSION
  5
1AE
100
AcDbEntity
  8
0
 62
256
370
-1
  6
BYLAYER
100
AcDbDimension
 10
-180.1196124136821197
 20
-689.5236613971321731
 30
0.0
 11
-163.119612413682205
 21
-687.6486613971321731
 31
0.0
 70
1
 71
8
 72
2
 41
1.0
 42
0.0
  1

  3
Standard
100
AcDbAlignedDimension
 13
-180.1196124136821197
 23
-689.5236613971321731
 33
0.0
 14
-146.1196124136822618
 24
-689.5236613971321731
 34
0.0
1001
ACAD
1000
DSTYLE
1002
{
1070
144
1040
1
1002
}
  0
MTEXT
  5
1AF
100
AcDbEntity
100
AcDbMText
  8
0
 62
256
370
-1
  6
BYLAYER
 10
-31.9547458053207833
 20
-724.4380800008711958
 30
0.0
 40
2.5
 41
0.0
 71
1
 72
1
  1
Grain goes this way
  7
textstyle8
 50
0.0
 73
2
 44
1.0
  0
DIMENSION
  5
1B0
100
AcDbEntity
  8
0
 62
256
370
-1
  6
BYLAYER
100
AcDbDimension
 10
-33.9547458053208118
 20
-728.4380800008711958
 30
0.0
 11
-16.9547458053208828
 21
-726.5630800008711958
 31
0.0
 70
1
 71
8
 72
2
 41
1.0
 42
0.0
  1

  3
Standard
100
AcDbAlignedDimension
 13
-33.9547458053208118
 23
-728.4380800008711958
 33
0.0
 14
0.0452541946790461
 24
-728.4380800008711958
 34
0.0
1001
ACAD
1000
DSTYLE
1002
{
1070
144
1040
1
1002
}
  0
LINE
  5
1B1
100
AcDbEntity
100
AcDbLine
  8
0
 62
252
420
10526884
370
-1
  6
BYLAYER
 10
-190.0
 20
-680.0
 30
0.0
 11
-189.9999999999942304
 21
-774.9999999999993179
 31
0.0
  0
LINE
  5
1B2
100
AcDbEntity
100
AcDbLine
  8
0
 62
252
420
10526884
370
-1
  6
BYLAYER
 10
-188.0
 20
-680.0000000000020464
 30
0.0
 11
-187.9999999999942304
 21
-775.0000000000013642
 31
0.0
  0
LINE
  5
1B3
100
AcDbEntity
100
AcDbLine
  8
0
 62
252
420
10526884
370
-1
  6
BYLAYER
 10
-40.0
 20
-680.0000000000020464
 30
0.0
 11
-39.9999999999942304
 21
-775.0000000000013642
 31
0.0
  0
LINE
  5
1B4
100
AcDbEntity
100
AcDbLine
  8
0
 62
252
420
10526884
370
-1
  6
BYLAYER
 10
-38.0
 20
-680.000000000003979
 30
0.0
 11
-37.9999999999942304
 21
-775.0000000000034106
 31
0.0
  0
LINE
  5
1B5
100
AcDbEntity
100
AcDbLine
  8
0
 62
252
420
10526884
370
-1
  6
BYLAYER
 10
5.0000000000000142
 20
-680.0000000000020464
 30
0.0
 11
4.9999999999942304
 21
-775.0
 31
0.0
  0
LINE
  5
1B6
100
AcDbEntity
100
AcDbLine
  8
0
 62
252
420
10526884
370
-1
  6
BYLAYER
 10
3.0000000000000178
 20
-680.000000000003979
 30
0.0
 11
2.9999999999942304
 21
-775.0
 31
0.0
  0
MTEXT
  5
1B7
100
AcDbEntity
100
AcDbMText
  8
0
 62
256
370
-1
  6
BYLAYER
 10
5.1344056822529751
 20
-768.1449826733398822
 30
0.0
 40
2.5
 41
0.0
 71
1
 72
1
  1
Glued dowel supports
  7
textstyle9
 50
90.0
 73
2
 44
1.0
  0
LINE
  5
1B8
100
AcDbEntity
100
AcDbLine
  8
0
 62
256
370
-1
  6
BYLAYER
 10
8.5971861114042269
 20
-318.1647183661823988
 30
0.0
 11
242.7990154502120959
 21
-321.0367976815679754
 31
0.0
  0
LINE
  5
1B9
100
AcDbEntity
100
AcDbLine
  8
0
 62
256
370
-1
  6
BYLAYER
 10
242.7990154502120959
 20
-321.0367976815679754
 30
0.0
 11
253.4974330150038213
 21
-395.7789312702084317
 31
0.0
  0
LINE
  5
1BA
100
AcDbEntity
100
AcDbLine
  8
0
 62
256
370
-1
  6
BYLAYER
 10
253.4974330150038213
 20
-395.7789312702084317
 30
0.0
 11
284.4868100892462621
 21
-394.9674458726916555
 31
0.0
  0
LINE
  5
1BB
100
AcDbEntity
100
AcDbLine
  8
0
 62
256
370
-1
  6
BYLAYER
 10
281.9999999999978968
 20
-300.0000000000137561
 30
0.0
 11
-27.8937707424226744
 21
-308.1148539754543663
 31
0.0
  0
LINE
  5
1BC
100
AcDbEntity
100
AcDbLine
  8
0
 62
256
370
-1
  6
BYLAYER
 10
-190.893125670017497
 20
-356.397462575107852
 30
0.0
 11
-27.8937707424243229
 21
-308.1148539754544231
 31
0.0
  0
LINE
  5
1BD
100
AcDbEntity
100
AcDbLine
  8
0
 62
256
370
-1
  6
BYLAYER
 10
49.3538154681990306
 20
-306.0920547415340138
 30
0.0
 11
-185.2128187759389846
 21
-375.5738572724714572
 31
0.0
  0
LINE
  5
1BE
100
AcDbEntity
100
AcDbLine
  8
0
 62
256
370
-1
  6
BYLAYER
 10
-185.2128187759389846
 20
-375.5738572724714572
 30
0.0
 11
-190.893125670017497
 21
-356.397462575107852
 31
0.0
  0
DIMENSION
  5
1BF
100
AcDbEntity
  8
0
 62
256
370
-1
  6
BYLAYER
100
AcDbDimension
 10
281.9999999999978968
 20
-300.0000000000137561
 30
0.0
 11
-18.9946560853384696
 21
-316.9173891555770979
 31
0.0
 70
130
 71
8
 72
2
 41
1.0
 42
0.0
  1

  3
Standard
100
AcDb2LineAngularDimension
 13
-185.2128187759389846
 23
-375.5738572724714572
 33
0.0
 14
49.3538154681990306
 24
-306.0920547415340138
 34
0.0
 15
-27.8937707424226744
 25
-308.1148539754543663
 35
0.0
 16
-20.5295435217751958
 26
-319.0548806137055067
 36
0.0
  0
DIMENSION
  5
1C0
100
AcDbEntity
  8
0
 62
256
370
-1
  6
BYLAYER
100
AcDbDimension
 10
49.3538154681989312
 20
-316.0920547415341275
 30
0.0
 11
42.9835527701632572
 21
-313.1288966893219481
 31
0.0
 70
2
 71
8
 72
2
 41
1.0
 42
0.0
  1

  3
Standard
100
AcDb2LineAngularDimension
 13
49.1399656672929268
 23
-310.0
 33
0.0
 14
281.9999999999978968
 24
-310.0000000000137561
 34
0.0
 15
281.9999999999979536
 25
-310.000000000013813
 35
0.0
 16
41.1399656672929268
 26
-315.0
 36
0.0
  0
MTEXT
  5
1C1
100
AcDbEntity
100
AcDbMText
  8
0
 62
256
370
-1
  6
BYLAYER
 10
-6.8600343327071336
 20
-296.9999999999999432
 30
0.0
 40
2.5
 41
0.0
 71
1
 72
1
  1
Zero fret
  7
textstyle10
 50
0.0
 73
2
 44
1.0
  0
MTEXT
  5
1C2
100
AcDbEntity
100
AcDbMText
  8
0
 62
256
370
-1
  6
BYLAYER
 10
45.2089070888539908
 20
-312.0460783394816531
 30
0.0
 40
2.5
 41
0.0
 71
1
 72
1
  1
Neck angle
  7
textstyle11
 50
0.0
 73
2
 44
1.0
  0
LINE
  5
1C3
100
AcDbEntity
100
AcDbLine
  8
printing_alignment_guides
 62
256
370
-1
  6
BYLAYER
 10
190.3209999999999695
 20
14.9999999999999751
 30
0.0
 11
220.3209999999999695
 21
-15.0000000000000249
 31
0.0
  0
LINE
  5
1C4
100
AcDbEntity
100
AcDbLine
  8
printing_alignment_guides
 62
256
370
-1
  6
BYLAYER
 10
220.3209999999999695
 20
14.9999999999999751
 30
0.0
 11
190.3209999999999695
 21
-15.0000000000000249
 31
0.0
  0
LINE
  5
1C5
100
AcDbEntity
100
AcDbLine
  8
printing_alignment_guides
 62
256
370
-1
  6
BYLAYER
 10
190.3209999999999695
 20
-15.0000000000000249
 30
0.0
 11
190.3209999999999695
 21
14.9999999999999751
 31
0.0
  0
LINE
  5
1C6
100
AcDbEntity
100
AcDbLine
  8
printing_alignment_guides
 62
256
370
-1
  6
BYLAYER
 10
190.3209999999999695
 20
14.9999999999999751
 30
0.0
 11
220.3209999999999695
 21
14.9999999999999751
 31
0.0
  0
LINE
  5
1C7
100
AcDbEntity
100
AcDbLine
  8
printing_alignment_guides
 62
256
370
-1
  6
BYLAYER
 10
220.3209999999999695
 20
14.9999999999999751
 30
0.0
 11
220.3209999999999695
 21
-15.0000000000000249
 31
0.0
  0
LINE
  5
1C8
100
AcDbEntity
100
AcDbLine
  8
printing_alignment_guides
 62
256
370
-1
  6
BYLAYER
 10
220.3209999999999695
 20
-15.0000000000000249
 30
0.0
 11
190.3209999999999695
 21
-15.0000000000000249
 31
0.0
  0
ARC
  5
1C9
100
AcDbEntity
  8
0
 62
256
370
-1
  6
BYLAYER
100
AcDbCircle
 10
-69.1788843406809093
 20
952.375895604539437
 30
0.0
 40
24.170314505740528
100
AcDbArc
 50
86.4564856280752707
 51
139.9967758522276711
  0
INSERT
  5
1CA
100
AcDbEntity
100
AcDbBlockReference
  8
0
 62
256
370
-1
  6
BYLAYER
  2
classical_tuners
 10
-152.6850000000000023
 20
964.0
 30
0.0
 41
1.0
 42
-1.0
 43
1.0
 50
182.3999999999998067
  0
LINE
  5
1CB
100
AcDbEntity
100
AcDbLine
  8
0
 62
256
370
-1
  6
BYLAYER
 10
-103.0113803560758754
 20
975.2865057825965778
 30
0.0
 11
-196.3854689428647475
 21
971.4239030343044305
 31
0.0
  0
LINE
  5
1CC
100
AcDbEntity
100
AcDbLine
  8
0
 62
256
370
-1
  6
BYLAYER
 10
-103.5073597631263596
 20
987.2762515858978531
 30
0.0
 11
-196.8814483499152175
 21
983.4136488376055922
 31
0.0
  0
ARC
  5
1CD
100
AcDbEntity
  8
0
 62
256
370
-1
  6
BYLAYER
100
AcDbCircle
 10
-196.6334586463899541
 20
977.4187759359550682
 30
0.0
 40
6.0000000000000053
100
AcDbArc
 50
92.3688019942726157
 51
272.3688019942725873
  0
LINE
  5
1CE
100
AcDbEntity
100
AcDbLine
  8
0
 62
256
370
-1
  6
BYLAYER
 10
-227.6850000000000023
 20
955.0
 30
0.0
 11
-77.6850000000000023
 21
955.0
 31
0.0
  0
LINE
  5
1CF
100
AcDbEntity
100
AcDbLine
  8
0
 62
256
370
-1
  6
BYLAYER
 10
-77.6850000000000023
 20
955.0
 30
0.0
 11
-77.6850000000000023
 21
1045.0
 31
0.0
  0
LINE
  5
1D0
100
AcDbEntity
100
AcDbLine
  8
0
 62
256
370
-1
  6
BYLAYER
 10
-77.6850000000000023
 20
1045.0
 30
0.0
 11
-227.6850000000000023
 21
1045.0
 31
0.0
  0
LINE
  5
1D1
100
AcDbEntity
100
AcDbLine
  8
0
 62
256
370
-1
  6
BYLAYER
 10
-227.6850000000000023
 20
1045.0
 30
0.0
 11
-227.6850000000000023
 21
955.0
 31
0.0
  0
ARC
  5
1D2
100
AcDbEntity
  8
0
 62
256
370
-1
  6
BYLAYER
100
AcDbCircle
 10
-214.8686119339710672
 20
1007.998344171929034
 30
0.0
 40
5.0
100
AcDbArc
 50
117.037857925512597
 51
216.8938329101197553
  0
ARC
  5
1D3
100
AcDbEntity
  8
0
 62
256
370
-1
  6
BYLAYER
100
AcDbCircle
 10
-228.1239042882384638
 20
1026.978856607765465
 30
0.0
 40
18.5447853809342931
100
AcDbArc
 50
318.8751988861924929
 51
321.3455010674388745
  0
ARC
  5
1D4
100
AcDbEntity
  8
0
 62
256
370
-1
  6
BYLAYER
100
AcDbCircle
 10
-221.6872988704596992
 20
1021.3589395352412339
 30
0.0
 40
10.0
100
AcDbArc
 50
297.0378579255126397
 51
318.8751988861923792
  0
ARC
  5
1D5
100
AcDbEntity
  8
0
 62
256
370
-1
  6
BYLAYER
100
AcDbCircle
 10
-218.6850000000000023
 20
1000.0
 30
0.0
 40
5.0
100
AcDbArc
 50
92.090136171095665
 51
180.0
  0
ARC
  5
1D6
100
AcDbEntity
  8
0
 62
256
370
-1
  6
BYLAYER
100
AcDbCircle
 10
-214.8686119339710672
 20
992.001655828070966
 30
0.0
 40
5.0
100
AcDbArc
 50
143.1061670898802447
 51
242.9621420744873888
  0
ARC
  5
1D7
100
AcDbEntity
  8
0
 62
256
370
-1
  6
BYLAYER
100
AcDbCircle
 10
-228.1239042882384638
 20
973.021143392234535
 30
0.0
 40
18.5447853809342931
100
AcDbArc
 50
38.6544989325612107
 51
41.1248011138075498
  0
ARC
  5
1D8
100
AcDbEntity
  8
0
 62
256
370
-1
  6
BYLAYER
100
AcDbCircle
 10
-221.6872988704596992
 20
978.6410604647587661
 30
0.0
 40
10.0
100
AcDbArc
 50
41.1248011138076066
 51
62.962142074487403
  0
ARC
  5
1D9
100
AcDbEntity
  8
0
 62
256
370
-1
  6
BYLAYER
100
AcDbCircle
 10
-218.6850000000000023
 20
1000.0
 30
0.0
 40
5.0
100
AcDbArc
 50
180.0
 51
267.9098638289043492
  0
ARC
  5
1DA
100
AcDbEntity
  8
0
 62
256
370
-1
  6
BYLAYER
100
AcDbCircle
 10
-217.5464198259224133
 20
1018.5184763878797867
 30
0.0
 40
5.0
100
AcDbArc
 50
321.3455010674387609
 51
13.8274755813845189
  0
ARC
  5
1DB
100
AcDbEntity
  8
0
 62
256
370
-1
  6
BYLAYER
100
AcDbCircle
 10
-217.5464198259224133
 20
981.4815236121202133
 30
0.0
 40
5.0
100
AcDbArc
 50
346.17252441861541
 51
38.6544989325611894
  0
ARC
  5
1DC
100
AcDbEntity
  8
0
 62
256
370
-1
  6
BYLAYER
100
AcDbCircle
 10
-213.6472361170861518
 20
1035.2952953848591733
 30
0.0
 40
2.0
100
AcDbArc
 50
87.6311980057278674
 51
182.3028296414119325
  0
ARC
  5
1DD
100
AcDbEntity
  8
0
 62
256
370
-1
  6
BYLAYER
100
AcDbCircle
 10
-162.2284957079283458
 20
962.6369711694759417
 30
0.0
 40
53.4602991330858757
100
AcDbArc
 50
160.722529697327019
 51
177.6971703585882096
  0
ARC
  5
1DE
100
AcDbEntity
  8
0
 62
256
370
-1
  6
BYLAYER
100
AcDbCircle
 10
-213.6472361170861518
 20
964.7047046151409404
 30
0.0
 40
2.0
100
AcDbArc
 50
177.6971703585880675
 51
272.3688019942721326
  0
LINE
  5
1DF
100
AcDbEntity
100
AcDbLine
  8
0
 62
256
370
-1
  6
BYLAYER
 10
-87.6935451639155445
 20
967.9133161725421814
 30
0.0
 11
-213.5645728825777496
 21
962.7064136479240233
 31
0.0
  0
LINE
  5
1E0
100
AcDbEntity
100
AcDbLine
  8
0
 62
256
370
-1
  6
BYLAYER
 10
-227.6850000000000023
 20
1000.0
 30
0.0
 11
-67.6850000000000023
 21
999.9999999999998863
 31
0.0
  0
LINE
  5
1E1
100
AcDbEntity
100
AcDbLine
  8
frets
 62
256
370
-1
  6
BYLAYER
 10
-57.6850000000000023
 20
975.0
 30
0.0
 11
-57.6850000000000023
 21
1035.0
 31
0.0
  0
LINE
  5
1E2
100
AcDbEntity
100
AcDbLine
  8
frets
 62
256
370
-1
  6
BYLAYER
 10
-21.4840000000000018
 20
975.0
 30
0.0
 11
-21.4840000000000018
 21
1035.0
 31
0.0
  0
LINE
  5
1E3
100
AcDbEntity
100
AcDbLine
  8
frets
 62
256
370
-1
  6
BYLAYER
 10
12.6850000000000023
 20
975.0
 30
0.0
 11
12.6850000000000023
 21
1035.0
 31
0.0
  0
LINE
  5
1E4
100
AcDbEntity
100
AcDbLine
  8
frets
 62
256
370
-1
  6
BYLAYER
 10
44.9369999999999976
 20
975.0
 30
0.0
 11
44.9369999999999976
 21
1035.0
 31
0.0
  0
LINE
  5
1E5
100
AcDbEntity
100
AcDbLine
  8
frets
 62
256
370
-1
  6
BYLAYER
 10
75.3779999999999859
 20
975.0
 30
0.0
 11
75.3779999999999859
 21
1035.0
 31
0.0
  0
LINE
  5
1E6
100
AcDbEntity
100
AcDbLine
  8
frets
 62
256
370
-1
  6
BYLAYER
 10
104.11099999999999
 20
975.0
 30
0.0
 11
104.11099999999999
 21
1035.0
 31
0.0
  0
LINE
  5
1E7
100
AcDbEntity
100
AcDbLine
  8
frets
 62
256
370
-1
  6
BYLAYER
 10
131.2309999999999945
 20
975.0
 30
0.0
 11
131.2309999999999945
 21
1035.0
 31
0.0
  0
LINE
  5
1E8
100
AcDbEntity
100
AcDbLine
  8
frets
 62
256
370
-1
  6
BYLAYER
 10
156.8290000000000077
 20
975.0
 30
0.0
 11
156.8290000000000077
 21
1035.0
 31
0.0
  0
LINE
  5
1E9
100
AcDbEntity
100
AcDbLine
  8
frets
 62
256
370
-1
  6
BYLAYER
 10
180.9900000000000091
 20
975.0
 30
0.0
 11
180.9900000000000091
 21
1035.0
 31
0.0
  0
LINE
  5
1EA
100
AcDbEntity
100
AcDbLine
  8
frets
 62
256
370
-1
  6
BYLAYER
 10
203.7959999999999923
 20
975.0
 30
0.0
 11
203.7959999999999923
 21
1035.0
 31
0.0
  0
LINE
  5
1EB
100
AcDbEntity
100
AcDbLine
  8
frets
 62
256
370
-1
  6
BYLAYER
 10
225.3209999999999695
 20
975.0
 30
0.0
 11
225.3209999999999695
 21
1035.0
 31
0.0
  0
LINE
  5
1EC
100
AcDbEntity
100
AcDbLine
  8
frets
 62
256
370
-1
  6
BYLAYER
 10
245.6379999999999768
 20
975.0
 30
0.0
 11
245.6379999999999768
 21
1035.0
 31
0.0
  0
LINE
  5
1ED
100
AcDbEntity
100
AcDbLine
  8
frets
 62
256
370
-1
  6
BYLAYER
 10
264.8149999999999977
 20
975.0
 30
0.0
 11
264.8149999999999977
 21
1035.0
 31
0.0
  0
LINE
  5
1EE
100
AcDbEntity
100
AcDbLine
  8
frets
 62
256
370
-1
  6
BYLAYER
 10
282.9159999999999968
 20
975.0
 30
0.0
 11
282.9159999999999968
 21
1035.0
 31
0.0
  0
LINE
  5
1EF
100
AcDbEntity
100
AcDbLine
  8
frets
 62
256
370
-1
  6
BYLAYER
 10
300.0
 20
975.0
 30
0.0
 11
300.0
 21
1035.0
 31
0.0
  0
LINE
  5
1F0
100
AcDbEntity
100
AcDbLine
  8
frets
 62
256
370
-1
  6
BYLAYER
 10
316.1259999999999764
 20
975.0
 30
0.0
 11
316.1259999999999764
 21
1035.0
 31
0.0
  0
LINE
  5
1F1
100
AcDbEntity
100
AcDbLine
  8
frets
 62
256
370
-1
  6
BYLAYER
 10
331.34699999999998
 20
975.0
 30
0.0
 11
331.34699999999998
 21
1035.0
 31
0.0
  0
LINE
  5
1F2
100
AcDbEntity
100
AcDbLine
  8
frets
 62
256
370
-1
  6
BYLAYER
 10
345.7130000000000223
 20
975.0
 30
0.0
 11
345.7130000000000223
 21
1035.0
 31
0.0
  0
LINE
  5
1F3
100
AcDbEntity
100
AcDbLine
  8
frets
 62
256
370
-1
  6
BYLAYER
 10
359.2730000000000246
 20
975.0
 30
0.0
 11
359.2730000000000246
 21
1035.0
 31
0.0
  0
LINE
  5
1F4
100
AcDbEntity
100
AcDbLine
  8
frets
 62
256
370
-1
  6
BYLAYER
 10
372.0720000000000027
 20
975.0
 30
0.0
 11
372.0720000000000027
 21
1035.0
 31
0.0
  0
LINE
  5
1F5
100
AcDbEntity
100
AcDbLine
  8
frets
 62
256
370
-1
  6
BYLAYER
 10
384.15300000000002
 20
975.0
 30
0.0
 11
384.15300000000002
 21
1035.0
 31
0.0
  0
LINE
  5
1F6
100
AcDbEntity
100
AcDbLine
  8
frets
 62
256
370
-1
  6
BYLAYER
 10
395.5550000000000068
 20
975.0
 30
0.0
 11
395.5550000000000068
 21
1035.0
 31
0.0
  0
LINE
  5
1F7
100
AcDbEntity
100
AcDbLine
  8
frets
 62
256
370
-1
  6
BYLAYER
 10
-67.6850000000000023
 20
974.9999999999998863
 30
0.0
 11
-67.6850000000000023
 21
1034.9999999999997726
 31
0.0
  0
LINE
  5
1F8
100
AcDbEntity
100
AcDbLine
  8
frets
 62
256
370
-1
  6
BYLAYER
 10
-67.6850000000000023
 20
1034.9999999999997726
 30
0.0
 11
395.5550000000000068
 21
1035.0
 31
0.0
  0
LINE
  5
1F9
100
AcDbEntity
100
AcDbLine
  8
frets
 62
256
370
-1
  6
BYLAYER
 10
-67.6850000000000023
 20
974.9999999999998863
 30
0.0
 11
395.5550000000000068
 21
975.0
 31
0.0
  0
LINE
  5
1FA
100
AcDbEntity
100
AcDbLine
  8
printing_alignment_guides
 62
256
370
-1
  6
BYLAYER
 10
190.3209999999999695
 20
1015.0
 30
0.0
 11
220.3209999999999695
 21
985.0
 31
0.0
  0
LINE
  5
1FB
100
AcDbEntity
100
AcDbLine
  8
printing_alignment_guides
 62
256
370
-1
  6
BYLAYER
 10
220.3209999999999695
 20
1015.0
 30
0.0
 11
190.3209999999999695
 21
985.0
 31
0.0
  0
LINE
  5
1FC
100
AcDbEntity
100
AcDbLine
  8
printing_alignment_guides
 62
256
370
-1
  6
BYLAYER
 10
190.3209999999999695
 20
985.0
 30
0.0
 11
190.3209999999999695
 21
1015.0
 31
0.0
  0
LINE
  5
1FD
100
AcDbEntity
100
AcDbLine
  8
printing_alignment_guides
 62
256
370
-1
  6
BYLAYER
 10
190.3209999999999695
 20
1015.0
 30
0.0
 11
220.3209999999999695
 21
1015.0
 31
0.0
  0
LINE
  5
1FE
100
AcDbEntity
100
AcDbLine
  8
printing_alignment_guides
 62
256
370
-1
  6
BYLAYER
 10
220.3209999999999695
 20
1015.0
 30
0.0
 11
220.3209999999999695
 21
985.0
 31
0.0
  0
LINE
  5
1FF
100
AcDbEntity
100
AcDbLine
  8
guides_dimensions
 62
256
370
-1
  6
BYLAYER
 10
800.0
 20
1000.0
 30
0.0
 11
270.0
 21
1000.0
 31
0.0
  0
LINE
  5
200
100
AcDbEntity
100
AcDbLine
  8
printing_alignment_guides
 62
256
370
-1
  6
BYLAYER
 10
220.3209999999999695
 20
985.0
 30
0.0
 11
190.3209999999999695
 21
985.0
 31
0.0
  0
LINE
  5
201
100
AcDbEntity
100
AcDbLine
  8
guides_dimensions
 62
256
370
-1
  6
BYLAYER
 10
435.0027932958287238
 20
1144.5634345445630515
 30
0.0
 11
435.0027932958287238
 21
856.5634345445629378
 31
0.0
  0
LINE
  5
202
100
AcDbEntity
100
AcDbLine
  8
guides_dimensions
 62
256
370
-1
  6
BYLAYER
 10
470.5090380992247674
 20
1153.6354132638120973
 30
0.0
 11
470.5090380992248811
 21
846.3645867361879027
 31
0.0
  0
LINE
  5
203
100
AcDbEntity
100
AcDbLine
  8
printing_alignment_guides
 62
256
370
-1
  6
BYLAYER
 10
485.0
 20
1015.0
 30
0.0
 11
515.0
 21
985.0
 31
0.0
  0
LINE
  5
204
100
AcDbEntity
100
AcDbLine
  8
printing_alignment_guides
 62
256
370
-1
  6
BYLAYER
 10
515.0
 20
1015.0
 30
0.0
 11
485.0
 21
985.0
 31
0.0
  0
LINE
  5
205
100
AcDbEntity
100
AcDbLine
  8
printing_alignment_guides
 62
256
370
-1
  6
BYLAYER
 10
485.0
 20
985.0
 30
0.0
 11
485.0
 21
1015.0
 31
0.0
  0
LINE
  5
206
100
AcDbEntity
100
AcDbLine
  8
printing_alignment_guides
 62
256
370
-1
  6
BYLAYER
 10
485.0
 20
1015.0
 30
0.0
 11
515.0
 21
1015.0
 31
0.0
  0
LINE
  5
207
100
AcDbEntity
100
AcDbLine
  8
printing_alignment_guides
 62
256
370
-1
  6
BYLAYER
 10
515.0
 20
1015.0
 30
0.0
 11
515.0
 21
985.0
 31
0.0
  0
LINE
  5
208
100
AcDbEntity
100
AcDbLine
  8
printing_alignment_guides
 62
256
370
-1
  6
BYLAYER
 10
515.0
 20
985.0
 30
0.0
 11
485.0
 21
985.0
 31
0.0
  0
LINE
  5
209
100
AcDbEntity
100
AcDbLine
  8
printing_alignment_guides
 62
256
370
-1
  6
BYLAYER
 10
735.1157776153410168
 20
1015.0
 30
0.0
 11
765.1157776153410168
 21
985.0
 31
0.0
  0
LINE
  5
20A
100
AcDbEntity
100
AcDbLine
  8
printing_alignment_guides
 62
256
370
-1
  6
BYLAYER
 10
765.1157776153410168
 20
1015.0
 30
0.0
 11
735.1157776153410168
 21
985.0
 31
0.0
  0
LINE
  5
20B
100
AcDbEntity
100
AcDbLine
  8
printing_alignment_guides
 62
256
370
-1
  6
BYLAYER
 10
735.1157776153410168
 20
985.0
 30
0.0
 11
735.1157776153410168
 21
1015.0
 31
0.0
  0
LINE
  5
20C
100
AcDbEntity
100
AcDbLine
  8
printing_alignment_guides
 62
256
370
-1
  6
BYLAYER
 10
735.1157776153410168
 20
1015.0
 30
0.0
 11
765.1157776153410168
 21
1015.0
 31
0.0
  0
LINE
  5
20D
100
AcDbEntity
100
AcDbLine
  8
printing_alignment_guides
 62
256
370
-1
  6
BYLAYER
 10
765.1157776153410168
 20
1015.0
 30
0.0
 11
765.1157776153410168
 21
985.0
 31
0.0
  0
LINE
  5
20E
100
AcDbEntity
100
AcDbLine
  8
printing_alignment_guides
 62
256
370
-1
  6
BYLAYER
 10
765.1157776153410168
 20
985.0
 30
0.0
 11
735.1157776153410168
 21
985.0
 31
0.0
  0
LINE
  5
20F
100
AcDbEntity
100
AcDbLine
  8
printing_alignment_guides
 62
256
370
-1
  6
BYLAYER
 10
485.0
 20
1165.0
 30
0.0
 11
515.0
 21
1135.0
 31
0.0
  0
LINE
  5
210
100
AcDbEntity
100
AcDbLine
  8
printing_alignment_guides
 62
256
370
-1
  6
BYLAYER
 10
515.0
 20
1165.0
 30
0.0
 11
485.0
 21
1135.0
 31
0.0
  0
LINE
  5
211
100
AcDbEntity
100
AcDbLine
  8
printing_alignment_guides
 62
256
370
-1
  6
BYLAYER
 10
485.0
 20
1135.0
 30
0.0
 11
485.0
 21
1165.0
 31
0.0
  0
LINE
  5
212
100
AcDbEntity
100
AcDbLine
  8
printing_alignment_guides
 62
256
370
-1
  6
BYLAYER
 10
485.0
 20
1165.0
 30
0.0
 11
515.0
 21
1165.0
 31
0.0
  0
LINE
  5
213
100
AcDbEntity
100
AcDbLine
  8
printing_alignment_guides
 62
256
370
-1
  6
BYLAYER
 10
515.0
 20
1165.0
 30
0.0
 11
515.0
 21
1135.0
 31
0.0
  0
LINE
  5
214
100
AcDbEntity
100
AcDbLine
  8
printing_alignment_guides
 62
256
370
-1
  6
BYLAYER
 10
515.0
 20
1135.0
 30
0.0
 11
485.0
 21
1135.0
 31
0.0
  0
LINE
  5
215
100
AcDbEntity
100
AcDbLine
  8
printing_alignment_guides
 62
256
370
-1
  6
BYLAYER
 10
265.0
 20
1015.0
 30
0.0
 11
295.0
 21
985.0
 31
0.0
  0
LINE
  5
216
100
AcDbEntity
100
AcDbLine
  8
printing_alignment_guides
 62
256
370
-1
  6
BYLAYER
 10
295.0
 20
1015.0
 30
0.0
 11
265.0
 21
985.0
 31
0.0
  0
LINE
  5
217
100
AcDbEntity
100
AcDbLine
  8
printing_alignment_guides
 62
256
370
-1
  6
BYLAYER
 10
265.0
 20
985.0
 30
0.0
 11
265.0
 21
1015.0
 31
0.0
  0
LINE
  5
218
100
AcDbEntity
100
AcDbLine
  8
printing_alignment_guides
 62
256
370
-1
  6
BYLAYER
 10
265.0
 20
1015.0
 30
0.0
 11
295.0
 21
1015.0
 31
0.0
  0
LINE
  5
219
100
AcDbEntity
100
AcDbLine
  8
printing_alignment_guides
 62
256
370
-1
  6
BYLAYER
 10
295.0
 20
1015.0
 30
0.0
 11
295.0
 21
985.0
 31
0.0
  0
LINE
  5
21A
100
AcDbEntity
100
AcDbLine
  8
printing_alignment_guides
 62
256
370
-1
  6
BYLAYER
 10
295.0
 20
985.0
 30
0.0
 11
265.0
 21
985.0
 31
0.0
  0
LINE
  5
21B
100
AcDbEntity
100
AcDbLine
  8
printing_alignment_guides
 62
256
370
-1
  6
BYLAYER
 10
485.0
 20
835.0
 30
0.0
 11
515.0
 21
865.0000000000001137
 31
0.0
  0
LINE
  5
21C
100
AcDbEntity
100
AcDbLine
  8
printing_alignment_guides
 62
256
370
-1
  6
BYLAYER
 10
515.0
 20
835.0
 30
0.0
 11
485.0
 21
865.0
 31
0.0
  0
LINE
  5
21D
100
AcDbEntity
100
AcDbLine
  8
printing_alignment_guides
 62
256
370
-1
  6
BYLAYER
 10
485.0
 20
865.0
 30
0.0
 11
485.0
 21
835.0
 31
0.0
  0
LINE
  5
21E
100
AcDbEntity
100
AcDbLine
  8
printing_alignment_guides
 62
256
370
-1
  6
BYLAYER
 10
485.0
 20
835.0
 30
0.0
 11
515.0
 21
835.0
 31
0.0
  0
LINE
  5
21F
100
AcDbEntity
100
AcDbLine
  8
printing_alignment_guides
 62
256
370
-1
  6
BYLAYER
 10
515.0
 20
835.0
 30
0.0
 11
515.0
 21
865.0000000000001137
 31
0.0
  0
LINE
  5
220
100
AcDbEntity
100
AcDbLine
  8
printing_alignment_guides
 62
256
370
-1
  6
BYLAYER
 10
515.0
 20
865.0000000000001137
 30
0.0
 11
485.0
 21
865.0
 31
0.0
  0
LINE
  5
221
100
AcDbEntity
100
AcDbLine
  8
0
 62
256
370
-1
  6
BYLAYER
 10
612.755204338962244
 20
1037.8338456625017443
 30
0.0
 11
612.755204338962244
 21
1000.0000000000001137
 31
0.0
  0
LINE
  5
222
100
AcDbEntity
100
AcDbLine
  8
back_bracing
 62
256
370
-1
  6
BYLAYER
 10
332.0
 20
994.0
 30
0.0
 11
723.5350757909168351
 21
994.0
 31
0.0
  0
LINE
  5
223
100
AcDbEntity
100
AcDbLine
  8
back_bracing
 62
256
370
-1
  6
BYLAYER
 10
723.5350757909167214
 20
994.0
 30
0.0
 11
723.5350757909167214
 21
1006.0
 31
0.0
  0
CIRCLE
  5
224
100
AcDbEntity
100
AcDbCircle
  8
0
 62
256
370
-1
  6
BYLAYER
 10
435.0027932958287238
 20
1000.5634345445629378
 30
0.0
 40
44.0
  0
LINE
  5
225
100
AcDbEntity
100
AcDbLine
  8
back_bracing
 62
256
370
-1
  6
BYLAYER
 10
723.5350757909167214
 20
1006.0
 30
0.0
 11
332.0000000000000568
 21
1006.0
 31
0.0
  0
LINE
  5
226
100
AcDbEntity
100
AcDbLine
  8
0
 62
256
370
-1
  6
BYLAYER
 10
322.3149999999999977
 20
1028.9681116101271527
 30
0.0
 11
-67.6850000000000023
 21
1023.5
 31
0.0
  0
LINE
  5
227
100
AcDbEntity
100
AcDbLine
  8
back_bracing
 62
256
370
-1
  6
BYLAYER
 10
332.0
 20
1006.0
 30
0.0
 11
332.0
 21
994.0
 31
0.0
  0
LINE
  5
228
100
AcDbEntity
100
AcDbLine
  8
0
 62
256
370
-1
  6
BYLAYER
 10
601.114021058192634
 20
1000.0000000000001137
 30
0.0
 11
601.114021058192634
 21
1038.8039442692324883
 31
0.0
  0
LINE
  5
229
100
AcDbEntity
100
AcDbLine
  8
back_bracing
 62
256
370
-1
  6
BYLAYER
 10
380.0
 20
878.0
 30
0.0
 11
386.0
 21
878.0
 31
0.0
  0
LINE
  5
22A
100
AcDbEntity
100
AcDbLine
  8
0
 62
256
370
-1
  6
BYLAYER
 10
601.114021058192634
 20
1038.8039442692324883
 30
0.0
 11
604.0243168783849796
 21
1077.6078885384649766
 31
0.0
  0
LINE
  5
22B
100
AcDbEntity
100
AcDbLine
  8
back_bracing
 62
256
370
-1
  6
BYLAYER
 10
386.0
 20
878.0
 30
0.0
 11
386.0
 21
1122.0
 31
0.0
  0
LINE
  5
22C
100
AcDbEntity
100
AcDbLine
  8
0
 62
256
370
-1
  6
BYLAYER
 10
604.0243168783849796
 20
1077.6078885384649766
 30
0.0
 11
631.1870778668476305
 21
1077.6078885384649766
 31
0.0
  0
LINE
  5
22D
100
AcDbEntity
100
AcDbLine
  8
back_bracing
 62
256
370
-1
  6
BYLAYER
 10
380.0
 20
1122.0
 30
0.0
 11
380.0
 21
878.0
 31
0.0
  0
LINE
  5
22E
100
AcDbEntity
100
AcDbLine
  8
0
 62
256
370
-1
  6
BYLAYER
 10
631.1870778668476305
 20
1077.6078885384649766
 30
0.0
 11
634.0973736870399762
 21
1038.8039442692324883
 31
0.0
  0
LINE
  5
22F
100
AcDbEntity
100
AcDbLine
  8
back_bracing
 62
256
370
-1
  6
BYLAYER
 10
468.0
 20
897.0
 30
0.0
 11
474.0
 21
897.0
 31
0.0
  0
LINE
  5
230
100
AcDbEntity
100
AcDbLine
  8
0
 62
256
370
-1
  6
BYLAYER
 10
634.0973736870399762
 20
1038.8039442692324883
 30
0.0
 11
634.0973736870399762
 21
1000.0000000000001137
 31
0.0
  0
LINE
  5
231
100
AcDbEntity
100
AcDbLine
  8
back_bracing
 62
256
370
-1
  6
BYLAYER
 10
474.0
 20
897.0
 30
0.0
 11
474.0
 21
1103.0
 31
0.0
  0
LINE
  5
232
100
AcDbEntity
100
AcDbLine
  8
0
 62
256
370
-1
  6
BYLAYER
 10
612.755204338962244
 20
1037.8338456625017443
 30
0.0
 11
619.5458945860779068
 21
1037.8338456625017443
 31
0.0
  0
LINE
  5
233
100
AcDbEntity
100
AcDbLine
  8
back_bracing
 62
256
370
-1
  6
BYLAYER
 10
468.0
 20
1103.0
 30
0.0
 11
468.0
 21
897.0
 31
0.0
  0
LINE
  5
234
100
AcDbEntity
100
AcDbLine
  8
0
 62
256
370
-1
  6
BYLAYER
 10
619.5458945860779068
 20
1037.8338456625017443
 30
0.0
 11
619.5458945860779068
 21
1000.0000000000001137
 31
0.0
  0
LINE
  5
235
100
AcDbEntity
100
AcDbLine
  8
back_bracing
 62
256
370
-1
  6
BYLAYER
 10
634.0
 20
841.0
 30
0.0
 11
640.0
 21
841.0
 31
0.0
  0
LINE
  5
236
100
AcDbEntity
100
AcDbLine
  8
0
 62
256
370
-1
  6
BYLAYER
 10
745.1634461205002253
 20
1032.6199341119838664
 30
0.0
 11
729.9557768003675164
 21
1032.6199341119838664
 31
0.0
  0
LINE
  5
237
100
AcDbEntity
100
AcDbLine
  8
back_bracing
 62
256
370
-1
  6
BYLAYER
 10
640.0
 20
841.0
 30
0.0
 11
640.0
 21
1159.0
 31
0.0
  0
LINE
  5
238
100
AcDbEntity
100
AcDbLine
  8
0
 62
256
370
-1
  6
BYLAYER
 10
729.9557768003675164
 20
1032.6199341119838664
 30
0.0
 11
723.5350757909168351
 21
1026.1926623817319069
 31
0.0
  0
LINE
  5
239
100
AcDbEntity
100
AcDbLine
  8
back_bracing
 62
256
370
-1
  6
BYLAYER
 10
634.0
 20
1159.0
 30
0.0
 11
634.0
 21
841.0
 31
0.0
  0
LINE
  5
23A
100
AcDbEntity
100
AcDbLine
  8
0
 62
256
370
-1
  6
BYLAYER
 10
723.5350757909168351
 20
1026.1926623817319069
 30
0.0
 11
723.5350757909168351
 21
1000.0000000000001137
 31
0.0
  0
LINE
  5
23B
100
AcDbEntity
100
AcDbLine
  8
back_bracing
 62
256
370
-1
  6
BYLAYER
 10
550.0
 20
858.0
 30
0.0
 11
556.0
 21
858.0
 31
0.0
  0
LINE
  5
23C
100
AcDbEntity
100
AcDbLine
  8
0
 62
256
370
-1
  6
BYLAYER
 10
331.6152386716693172
 20
1000.0000000000001137
 30
0.0
 11
331.6152386716693172
 21
1025.2225637750011629
 31
0.0
  0
LINE
  5
23D
100
AcDbEntity
100
AcDbLine
  8
back_bracing
 62
256
370
-1
  6
BYLAYER
 10
556.0
 20
858.0
 30
0.0
 11
556.0
 21
1142.0
 31
0.0
  0
LINE
  5
23E
100
AcDbEntity
100
AcDbLine
  8
0
 62
256
370
-1
  6
BYLAYER
 10
331.6152386716693172
 20
1025.2225637750011629
 30
0.0
 11
327.5633227308091477
 21
1029.3194868615469204
 31
0.0
  0
LINE
  5
23F
100
AcDbEntity
100
AcDbLine
  8
back_bracing
 62
256
370
-1
  6
BYLAYER
 10
550.0
 20
1142.0
 30
0.0
 11
550.0
 21
858.0
 31
0.0
  0
LINE
  5
240
100
AcDbEntity
100
AcDbLine
  8
0
 62
256
370
-1
  6
BYLAYER
 10
601.114021058192634
 20
1000.0000000000001137
 30
0.0
 11
601.114021058192634
 21
961.1960557307677391
 31
0.0
  0
LINE
  5
241
100
AcDbEntity
100
AcDbLine
  8
back_bracing
 62
256
370
-1
  6
BYLAYER
 10
380.0000000000000568
 20
1122.0
 30
0.0
 11
386.0
 21
1122.0
 31
0.0
  0
LINE
  5
242
100
AcDbEntity
100
AcDbLine
  8
0
 62
256
370
-1
  6
BYLAYER
 10
601.114021058192634
 20
961.1960557307677391
 30
0.0
 11
604.0243168783849796
 21
922.3921114615352508
 31
0.0
  0
LINE
  5
243
100
AcDbEntity
100
AcDbLine
  8
back_bracing
 62
256
370
-1
  6
BYLAYER
 10
468.0000000000000568
 20
1103.0
 30
0.0
 11
474.0
 21
1103.0
 31
0.0
  0
LINE
  5
244
100
AcDbEntity
100
AcDbLine
  8
0
 62
256
370
-1
  6
BYLAYER
 10
604.0243168783849796
 20
922.3921114615352508
 30
0.0
 11
631.1870778668476305
 21
922.3921114615352508
 31
0.0
  0
LINE
  5
245
100
AcDbEntity
100
AcDbLine
  8
back_bracing
 62
256
370
-1
  6
BYLAYER
 10
634.0
 20
1159.0
 30
0.0
 11
640.0
 21
1159.0
 31
0.0
  0
LINE
  5
246
100
AcDbEntity
100
AcDbLine
  8
0
 62
256
370
-1
  6
BYLAYER
 10
631.1870778668476305
 20
922.3921114615352508
 30
0.0
 11
634.0973736870399762
 21
961.1960557307676254
 31
0.0
  0
LINE
  5
247
100
AcDbEntity
100
AcDbLine
  8
back_bracing
 62
256
370
-1
  6
BYLAYER
 10
550.0
 20
1142.0
 30
0.0
 11
556.0
 21
1142.0
 31
0.0
  0
LINE
  5
248
100
AcDbEntity
100
AcDbLine
  8
0
 62
256
370
-1
  6
BYLAYER
 10
634.0973736870399762
 20
961.1960557307676254
 30
0.0
 11
634.0973736870399762
 21
1000.0000000000001137
 31
0.0
  0
LINE
  5
249
100
AcDbEntity
100
AcDbLine
  8
0
 62
256
370
-1
  6
BYLAYER
 10
612.755204338962244
 20
962.1661543374984831
 30
0.0
 11
619.5458945860779068
 21
962.1661543374984831
 31
0.0
  0
LINE
  5
24A
100
AcDbEntity
100
AcDbLine
  8
0
 62
256
370
-1
  6
BYLAYER
 10
619.5458945860779068
 20
962.1661543374984831
 30
0.0
 11
619.5458945860779068
 21
1000.0000000000001137
 31
0.0
  0
LINE
  5
24B
100
AcDbEntity
100
AcDbLine
  8
0
 62
256
370
-1
  6
BYLAYER
 10
331.6152386716693172
 20
1000.0000000000001137
 30
0.0
 11
331.6152386716693172
 21
974.7774362249990645
 31
0.0
  0
LINE
  5
24C
100
AcDbEntity
100
AcDbLine
  8
0
 62
256
370
-1
  6
BYLAYER
 10
331.6152386716693172
 20
974.7774362249990645
 30
0.0
 11
327.5633227308091477
 21
970.6805131384534207
 31
0.0
  0
LINE
  5
24D
100
AcDbEntity
100
AcDbLine
  8
0
 62
256
370
-1
  6
BYLAYER
 10
612.755204338962244
 20
962.1661543374984831
 30
0.0
 11
612.755204338962244
 21
1000.0000000000001137
 31
0.0
  0
LINE
  5
24E
100
AcDbEntity
100
AcDbLine
  8
0
 62
256
370
-1
  6
BYLAYER
 10
745.1634461205002253
 20
967.380065888016361
 30
0.0
 11
729.9557768003675164
 21
967.380065888016361
 31
0.0
  0
LINE
  5
24F
100
AcDbEntity
100
AcDbLine
  8
0
 62
256
370
-1
  6
BYLAYER
 10
729.9557768003675164
 20
967.380065888016361
 30
0.0
 11
723.5350757909168351
 21
973.8073376182682068
 31
0.0
  0
LINE
  5
250
100
AcDbEntity
100
AcDbLine
  8
0
 62
256
370
-1
  6
BYLAYER
 10
723.5350757909168351
 20
973.8073376182682068
 30
0.0
 11
723.5350757909168351
 21
1000.0000000000001137
 31
0.0
  0
LINE
  5
251
100
AcDbEntity
100
AcDbLine
  8
0
 62
256
370
-1
  6
BYLAYER
 10
299.9999999999799911
 20
1038.5610191966250113
 30
0.0
 11
300.0000000000148361
 21
971.4389808033749887
 31
0.0
  0
SPLINE
  5
252
  8
0
 62
256
370
-1
  6
BYLAYER
100
AcDbEntity
100
AcDbSpline
 70
8
 71
3
 72
38
 73
34
 74
0
 40
0.0
 40
0.0
 40
0.0
 40
0.0
 40
1.0
 40
2.0
 40
3.0
 40
4.0
 40
5.0
 40
6.0
 40
7.0
 40
8.0
 40
9.0
 40
10.0
 40
11.0
 40
12.0
 40
13.0
 40
14.0
 40
15.0
 40
16.0
 40
17.0
 40
18.0
 40
19.0
 40
20.0
 40
21.0
 40
22.0
 40
23.0
 40
24.0
 40
25.0
 40
26.0
 40
27.0
 40
28.0
 40
29.0
 40
30.0
 40
31.0
 40
31.0
 40
31.0
 40
31.0
 10
299.9573140471105717
 20
971.4607536760273661
 30
0.0
 10
301.4250476528630998
 20
962.5146094424528656
 30
0.0
 10
303.5692697663376407
 20
951.3020048352111644
 30
0.0
 10
308.3742002304775838
 20
935.5960430963799581
 30
0.0
 10
316.1729197417650425
 20
920.1406914561210897
 30
0.0
 10
326.1839112027894885
 20
905.124204264584364
 30
0.0
 10
342.0346476827448328
 20
889.6905924288383858
 30
0.0
 10
362.0566306047935541
 20
878.8453516793952076
 30
0.0
 10
383.589894362920802
 20
876.6837841405684912
 30
0.0
 10
400.4857784301492529
 20
877.1688334439338632
 30
0.0
 10
415.1989406322334162
 20
880.4024954663699418
 30
0.0
 10
434.219194053011222
 20
885.1022213425355858
 30
0.0
 10
451.3213044655947215
 20
891.3590910056758503
 30
0.0
 10
462.5836698592471521
 20
895.5303374477692842
 30
0.0
 10
470.5090380992248811
 20
896.3645867361879027
 30
0.0
 10
482.9441600022682337
 20
894.8731330167713622
 30
0.0
 10
495.4746003392077682
 20
888.4866505224601951
 30
0.0
 10
517.226998250672068
 20
875.5083545257203923
 30
0.0
 10
544.3401001242797292
 20
859.2404934015556819
 30
0.0
 10
567.281955555794184
 20
847.9781280079032513
 30
0.0
 10
590.223810987308525
 20
841.3041337005536207
 30
0.0
 10
611.914292486194654
 20
838.3842611910881715
 30
0.0
 10
632.1323910693766948
 20
838.2420100178486564
 30
0.0
 10
657.8400041477433433
 20
843.1733446020637075
 30
0.0
 10
683.3859341249882391
 20
855.2187356356379269
 30
0.0
 10
697.8565716753893184
 20
866.2940280624814022
 30
0.0
 10
710.4947500676713616
 20
879.0539140014998338
 30
0.0
 10
723.008489393952118
 20
896.9902737025017814
 30
0.0
 10
733.8537301433951825
 20
918.2636305571787716
 30
0.0
 10
741.3619737391634317
 20
938.7027381234369159
 30
0.0
 10
748.7770086370957188
 20
966.4873651922141562
 30
0.0
 10
749.7174653419543802
 20
987.069623965019332
 30
0.0
 10
750.1157776153410168
 20
1000.0000000000001137
 30
0.0
 10
750.1157776153410168
 20
1000.0000000000001137
 30
0.0
  0
SPLINE
  5
253
  8
0
 62
256
370
-1
  6
BYLAYER
100
AcDbEntity
100
AcDbSpline
 70
8
 71
3
 72
38
 73
34
 74
0
 40
0.0
 40
0.0
 40
0.0
 40
0.0
 40
1.0
 40
2.0
 40
3.0
 40
4.0
 40
5.0
 40
6.0
 40
7.0
 40
8.0
 40
9.0
 40
10.0
 40
11.0
 40
12.0
 40
13.0
 40
14.0
 40
15.0
 40
16.0
 40
17.0
 40
18.0
 40
19.0
 40
20.0
 40
21.0
 40
22.0
 40
23.0
 40
24.0
 40
25.0
 40
26.0
 40
27.0
 40
28.0
 40
29.0
 40
30.0
 40
31.0
 40
31.0
 40
31.0
 40
31.0
 10
299.9573140471105717
 20
1028.5392463239727476
 30
0.0
 10
301.4250476528630998
 20
1037.4853905575471344
 30
0.0
 10
303.5692697663376407
 20
1048.697995164789063
 30
0.0
 10
308.3742002304775838
 20
1064.4039569036201556
 30
0.0
 10
316.1729197417650425
 20
1079.8593085438792514
 30
0.0
 10
326.1839112027894885
 20
1094.8757957354157497
 30
0.0
 10
342.0346476827447759
 20
1110.3094075711617279
 30
0.0
 10
362.0566306047934972
 20
1121.1546483206047924
 30
0.0
 10
383.589894362920802
 20
1123.3162158594316224
 30
0.0
 10
400.4857784301492529
 20
1122.8311665560663641
 30
0.0
 10
415.1989406322334162
 20
1119.5975045336301719
 30
0.0
 10
434.2191940530111651
 20
1114.8977786574646416
 30
0.0
 10
451.3213044655947215
 20
1108.6409089943242634
 30
0.0
 10
462.5836698592470384
 20
1104.4696625522308295
 30
0.0
 10
470.5090380992247674
 20
1103.6354132638120973
 30
0.0
 10
482.9441600022681769
 20
1105.1268669832288651
 30
0.0
 10
495.4746003392077682
 20
1111.5133494775400322
 30
0.0
 10
517.226998250672068
 20
1124.4916454742797214
 30
0.0
 10
544.3401001242797292
 20
1140.7595065984444318
 30
0.0
 10
567.281955555794184
 20
1152.0218719920969761
 30
0.0
 10
590.223810987308525
 20
1158.6958662994463793
 30
0.0
 10
611.9142924861945403
 20
1161.6157388089120559
 30
0.0
 10
632.1323910693766948
 20
1161.7579899821514573
 30
0.0
 10
657.8400041477432296
 20
1156.8266553979365199
 30
0.0
 10
683.3859341249882391
 20
1144.7812643643621868
 30
0.0
 10
697.8565716753893184
 20
1133.7059719375185978
 30
0.0
 10
710.4947500676713616
 20
1120.9460859985003935
 30
0.0
 10
723.008489393952118
 20
1103.009726297498446
 30
0.0
 10
733.8537301433951825
 20
1081.7363694428215695
 30
0.0
 10
741.3619737391634317
 20
1061.2972618765631978
 30
0.0
 10
748.7770086370957188
 20
1033.5126348077862986
 30
0.0
 10
749.7174653419543802
 20
1012.9303760349807817
 30
0.0
 10
750.1157776153410168
 20
1000.0000000000001137
 30
0.0
 10
750.1157776153410168
 20
1000.0000000000001137
 30
0.0
  0
LINE
  5
254
100
AcDbEntity
100
AcDbLine
  8
0
 62
256
370
-1
  6
BYLAYER
 10
327.5633227308091477
 20
970.6805131384534207
 30
0.0
 11
299.9573140471105717
 21
971.4607536760273661
 31
0.0
  0
LINE
  5
255
100
AcDbEntity
100
AcDbLine
  8
0
 62
256
370
-1
  6
BYLAYER
 10
327.5633227308091477
 20
1029.3194868615469204
 30
0.0
 11
299.9573140471105717
 21
1028.539246323972975
 31
0.0
  0
LINE
  5
256
100
AcDbEntity
100
AcDbLine
  8
0
 62
256
370
-1
  6
BYLAYER
 10
-67.6850000000000023
 20
1000.0
 30
0.0
 11
-67.6850000000000023
 21
1023.5
 31
0.0
  0
LINE
  5
257
100
AcDbEntity
100
AcDbLine
  8
0
 62
256
370
-1
  6
BYLAYER
 10
-67.6850000000000023
 20
999.9999999999998863
 30
0.0
 11
-67.6850000000000023
 21
976.4999999999997726
 31
0.0
  0
LINE
  5
258
100
AcDbEntity
100
AcDbLine
  8
0
 62
256
370
-1
  6
BYLAYER
 10
322.3149999999999977
 20
971.0318883898728473
 30
0.0
 11
-67.6850000000000023
 21
976.4999999999997726
 31
0.0
  0
LINE
  5
259
100
AcDbEntity
100
AcDbLine
  8
0
 62
256
370
-1
  6
BYLAYER
 10
322.3149999999999977
 20
1028.9681116101271527
 30
0.0
 11
322.3149999999999977
 21
971.0318883898728473
 31
0.0
  0
LINE
  5
25A
100
AcDbEntity
100
AcDbLine
  8
top_bracing
 62
256
370
-1
  6
BYLAYER
 10
485.0
 20
900.0
 30
0.0
 11
491.0
 21
900.0
 31
0.0
  0
LINE
  5
25B
100
AcDbEntity
100
AcDbLine
  8
top_bracing
 62
256
370
-1
  6
BYLAYER
 10
491.0
 20
900.0
 30
0.0
 11
491.0
 21
1100.0
 31
0.0
  0
LINE
  5
25C
100
AcDbEntity
100
AcDbLine
  8
top_bracing
 62
256
370
-1
  6
BYLAYER
 10
491.0
 20
1100.0
 30
0.0
 11
485.0
 21
1100.0
 31
0.0
  0
LINE
  5
25D
100
AcDbEntity
100
AcDbLine
  8
top_bracing
 62
256
370
-1
  6
BYLAYER
 10
485.0
 20
1100.0
 30
0.0
 11
485.0
 21
900.0
 31
0.0
  0
LINE
  5
25E
100
AcDbEntity
100
AcDbLine
  8
top_bracing
 62
256
370
-1
  6
BYLAYER
 10
380.0
 20
885.0
 30
0.0
 11
386.0
 21
885.0
 31
0.0
  0
LINE
  5
25F
100
AcDbEntity
100
AcDbLine
  8
top_bracing
 62
256
370
-1
  6
BYLAYER
 10
386.0
 20
885.0
 30
0.0
 11
386.0
 21
1115.0
 31
0.0
  0
LINE
  5
260
100
AcDbEntity
100
AcDbLine
  8
top_bracing
 62
256
370
-1
  6
BYLAYER
 10
386.0
 20
1115.0
 30
0.0
 11
380.0
 21
1115.0
 31
0.0
  0
LINE
  5
261
100
AcDbEntity
100
AcDbLine
  8
top_bracing
 62
256
370
-1
  6
BYLAYER
 10
380.0
 20
1115.0
 30
0.0
 11
380.0
 21
885.0
 31
0.0
  0
LINE
  5
262
100
AcDbEntity
100
AcDbLine
  8
top_bracing
 62
256
370
-1
  6
BYLAYER
 10
340.0
 20
925.0
 30
0.0
 11
346.0
 21
925.0
 31
0.0
  0
LINE
  5
263
100
AcDbEntity
100
AcDbLine
  8
top_bracing
 62
256
370
-1
  6
BYLAYER
 10
346.0
 20
925.0
 30
0.0
 11
346.0
 21
1075.0
 31
0.0
  0
LINE
  5
264
100
AcDbEntity
100
AcDbLine
  8
top_bracing
 62
256
370
-1
  6
BYLAYER
 10
346.0
 20
1075.0
 30
0.0
 11
340.0
 21
1075.0
 31
0.0
  0
LINE
  5
265
100
AcDbEntity
100
AcDbLine
  8
top_bracing
 62
256
370
-1
  6
BYLAYER
 10
340.0
 20
1075.0
 30
0.0
 11
340.0
 21
925.0
 31
0.0
  0
LINE
  5
266
100
AcDbEntity
100
AcDbLine
  8
top_bracing
 62
256
370
-1
  6
BYLAYER
 10
722.9334072422321924
 20
996.3557156915030646
 30
0.0
 11
660.0
 21
860.0
 31
0.0
  0
LINE
  5
267
100
AcDbEntity
100
AcDbLine
  8
top_bracing
 62
256
370
-1
  6
BYLAYER
 10
717.4856509352295006
 20
998.8700647562735639
 30
0.0
 11
654.5522436929973082
 21
862.5143490647704994
 31
0.0
  0
LINE
  5
268
100
AcDbEntity
100
AcDbLine
  8
top_bracing
 62
256
370
-1
  6
BYLAYER
 10
654.5522436929973082
 20
862.5143490647704994
 30
0.0
 11
660.0
 21
860.0
 31
0.0
  0
LINE
  5
269
100
AcDbEntity
100
AcDbLine
  8
top_bracing
 62
256
370
-1
  6
BYLAYER
 10
500.0
 20
997.0
 30
0.0
 11
700.0
 21
997.0
 31
0.0
  0
LINE
  5
26A
100
AcDbEntity
100
AcDbLine
  8
top_bracing
 62
256
370
-1
  6
BYLAYER
 10
700.0
 20
997.0
 30
0.0
 11
700.0
 21
1003.0
 31
0.0
  0
LINE
  5
26B
100
AcDbEntity
100
AcDbLine
  8
top_bracing
 62
256
370
-1
  6
BYLAYER
 10
700.0
 20
1003.0
 30
0.0
 11
500.0
 21
1003.0
 31
0.0
  0
LINE
  5
26C
100
AcDbEntity
100
AcDbLine
  8
top_bracing
 62
256
370
-1
  6
BYLAYER
 10
500.0
 20
1003.0
 30
0.0
 11
500.0
 21
997.0
 31
0.0
  0
LINE
  5
26D
100
AcDbEntity
100
AcDbLine
  8
top_bracing
 62
256
370
-1
  6
BYLAYER
 10
503.0928733161483706
 20
1013.3685054416547473
 30
0.0
 11
687.2519231294315887
 21
1045.84071466536966
 31
0.0
  0
LINE
  5
26E
100
AcDbEntity
100
AcDbLine
  8
top_bracing
 62
256
370
-1
  6
BYLAYER
 10
686.2100340634294753
 20
1051.7495611834451665
 30
0.0
 11
502.0509842501468256
 21
1019.2773519597280938
 31
0.0
  0
LINE
  5
26F
100
AcDbEntity
100
AcDbLine
  8
top_bracing
 62
256
370
-1
  6
BYLAYER
 10
503.1159372669961272
 20
1030.6988961835577356
 30
0.0
 11
667.5621459045302117
 21
1090.5524212655486735
 31
0.0
  0
LINE
  5
270
100
AcDbEntity
100
AcDbLine
  8
top_bracing
 62
256
370
-1
  6
BYLAYER
 10
665.5100250445755137
 20
1096.1905769902662087
 30
0.0
 11
501.0638164070420544
 21
1036.3370519082732244
 31
0.0
  0
LINE
  5
271
100
AcDbEntity
100
AcDbLine
  8
top_bracing
 62
256
370
-1
  6
BYLAYER
 10
504.1647182049349567
 20
1050.9019237886466271
 30
0.0
 11
647.924935233152155
 21
1133.901923788645945
 31
0.0
  0
LINE
  5
272
100
AcDbEntity
100
AcDbLine
  8
top_bracing
 62
256
370
-1
  6
BYLAYER
 10
644.9249352331510181
 20
1139.098076211354055
 30
0.0
 11
501.164718204934843
 21
1056.0980762113533729
 31
0.0
  0
LINE
  5
273
100
AcDbEntity
100
AcDbLine
  8
top_bracing
 62
256
370
-1
  6
BYLAYER
 10
501.1647182049349567
 20
1056.0980762113533729
 30
0.0
 11
504.1647182049349567
 21
1050.9019237886466271
 31
0.0
  0
LINE
  5
274
100
AcDbEntity
100
AcDbLine
  8
top_bracing
 62
256
370
-1
  6
BYLAYER
 10
501.0638164070420544
 20
1036.3370519082732244
 30
0.0
 11
503.1159372669960703
 21
1030.6988961835577356
 31
0.0
  0
LINE
  5
275
100
AcDbEntity
100
AcDbLine
  8
top_bracing
 62
256
370
-1
  6
BYLAYER
 10
502.0509842501467688
 20
1019.2773519597280938
 30
0.0
 11
503.0928733161483706
 21
1013.3685054416547473
 31
0.0
  0
LINE
  5
276
100
AcDbEntity
100
AcDbLine
  8
top_bracing
 62
256
370
-1
  6
BYLAYER
 10
667.5621459045303254
 20
1090.5524212655486735
 30
0.0
 11
665.5100250445755137
 21
1096.190576990266436
 31
0.0
  0
LINE
  5
277
100
AcDbEntity
100
AcDbLine
  8
top_bracing
 62
256
370
-1
  6
BYLAYER
 10
647.9249352331522687
 20
1133.9019237886457177
 30
0.0
 11
644.9249352331511318
 21
1139.0980762113542823
 31
0.0
  0
LINE
  5
278
100
AcDbEntity
100
AcDbLine
  8
top_bracing
 62
256
370
-1
  6
BYLAYER
 10
717.4856509352295006
 20
998.8700647562736776
 30
0.0
 11
722.9334072422321924
 21
996.3557156915031783
 31
0.0
  0
LINE
  5
279
100
AcDbEntity
100
AcDbLine
  8
top_bracing
 62
256
370
-1
  6
BYLAYER
 10
497.4172079320373996
 20
943.3507714689993691
 30
0.0
 11
500.7556262582163527
 21
948.3362466799928825
 31
0.0
  0
LINE
  5
27A
100
AcDbEntity
100
AcDbLine
  8
top_bracing
 62
256
370
-1
  6
BYLAYER
 10
498.6287183979645192
 20
963.0748812098897815
 30
0.0
 11
501.0506999631909366
 21
968.5643261087574274
 31
0.0
  0
LINE
  5
27B
100
AcDbEntity
100
AcDbLine
  8
top_bracing
 62
256
370
-1
  6
BYLAYER
 10
500.7465212125029552
 20
980.0313777207726389
 30
0.0
 11
502.1784753324993176
 21
985.8579983020553072
 31
0.0
  0
LINE
  5
27C
100
AcDbEntity
100
AcDbLine
  8
top_bracing
 62
256
370
-1
  6
BYLAYER
 10
502.1784753324993176
 20
985.8579983020553072
 30
0.0
 11
683.7748167824729535
 21
941.2287615621711439
 31
0.0
  0
LINE
  5
27D
100
AcDbEntity
100
AcDbLine
  8
top_bracing
 62
256
370
-1
  6
BYLAYER
 10
682.342862662475909
 20
935.4021409808860881
 30
0.0
 11
500.7465212125030121
 21
980.0313777207726389
 31
0.0
  0
LINE
  5
27E
100
AcDbEntity
100
AcDbLine
  8
top_bracing
 62
256
370
-1
  6
BYLAYER
 10
661.1595095134949815
 20
897.9231971229855844
 30
0.0
 11
658.7375279482673704
 21
892.4337522241155511
 31
0.0
  0
LINE
  5
27F
100
AcDbEntity
100
AcDbLine
  8
top_bracing
 62
256
370
-1
  6
BYLAYER
 10
501.0506999631910503
 20
968.5643261087574274
 30
0.0
 11
661.1595095134948679
 21
897.9231971229855844
 31
0.0
  0
LINE
  5
280
100
AcDbEntity
100
AcDbLine
  8
top_bracing
 62
256
370
-1
  6
BYLAYER
 10
638.6871070957065513
 20
855.9733396557060132
 30
0.0
 11
635.348688769526234
 21
850.9878644447105671
 31
0.0
  0
LINE
  5
281
100
AcDbEntity
100
AcDbLine
  8
top_bracing
 62
256
370
-1
  6
BYLAYER
 10
658.7375279482674841
 20
892.4337522241158922
 30
0.0
 11
498.6287183979644624
 21
963.0748812098896678
 31
0.0
  0
LINE
  5
282
100
AcDbEntity
100
AcDbLine
  8
top_bracing
 62
256
370
-1
  6
BYLAYER
 10
500.7556262582164095
 20
948.3362466799931099
 30
0.0
 11
638.6871070957065513
 21
855.9733396557061269
 31
0.0
  0
LINE
  5
283
100
AcDbEntity
100
AcDbLine
  8
top_bracing
 62
256
370
-1
  6
BYLAYER
 10
635.3486887695261203
 20
850.9878644447106808
 30
0.0
 11
497.4172079320371722
 21
943.3507714689992554
 31
0.0
  0
LINE
  5
284
100
AcDbEntity
100
AcDbLine
  8
top_bracing
 62
256
370
-1
  6
BYLAYER
 10
687.251923129431475
 20
1045.84071466536966
 30
0.0
 11
686.2100340634294753
 21
1051.7495611834451665
 31
0.0
  0
LINE
  5
285
100
AcDbEntity
100
AcDbLine
  8
top_bracing
 62
256
370
-1
  6
BYLAYER
 10
683.7748167824729535
 20
941.2287615621712575
 30
0.0
 11
682.342862662475909
 21
935.4021409808860881
 31
0.0
  0
LINE
  5
286
100
AcDbEntity
100
AcDbLine
  8
top_bracing
 62
256
370
-1
  6
BYLAYER
 10
722.9334072422321924
 20
1003.6442843084969354
 30
0.0
 11
660.0
 21
1140.0
 31
0.0
  0
LINE
  5
287
100
AcDbEntity
100
AcDbLine
  8
top_bracing
 62
256
370
-1
  6
BYLAYER
 10
717.4856509352295006
 20
1001.1299352437264361
 30
0.0
 11
654.5522436929973082
 21
1137.4856509352296143
 31
0.0
  0
LINE
  5
288
100
AcDbEntity
100
AcDbLine
  8
top_bracing
 62
256
370
-1
  6
BYLAYER
 10
654.5522436929973082
 20
1137.4856509352296143
 30
0.0
 11
660.0
 21
1140.0
 31
0.0
  0
LINE
  5
289
100
AcDbEntity
100
AcDbLine
  8
top_bracing
 62
256
370
-1
  6
BYLAYER
 10
717.4856509352295006
 20
1001.1299352437264361
 30
0.0
 11
722.9334072422321924
 21
1003.6442843084968217
 31
0.0
  0
LINE
  5
28A
100
AcDbEntity
100
AcDbLine
  8
top_bracing
 62
256
370
-1
  6
BYLAYER
 10
386.0
 20
1047.0
 30
0.0
 11
485.0
 21
1047.0
 31
0.0
  0
LINE
  5
28B
100
AcDbEntity
100
AcDbLine
  8
top_bracing
 62
256
370
-1
  6
BYLAYER
 10
485.0
 20
1053.0
 30
0.0
 11
386.0
 21
1053.0
 31
0.0
  0
LINE
  5
28C
100
AcDbEntity
100
AcDbLine
  8
top_bracing
 62
256
370
-1
  6
BYLAYER
 10
386.0
 20
1053.0
 30
0.0
 11
386.0
 21
1047.0
 31
0.0
  0
LINE
  5
28D
100
AcDbEntity
100
AcDbLine
  8
top_bracing
 62
256
370
-1
  6
BYLAYER
 10
386.0
 20
954.1268690891258757
 30
0.0
 11
485.0
 21
954.1268690891259894
 31
0.0
  0
CIRCLE
  5
28E
100
AcDbEntity
100
AcDbCircle
  8
0
 62
256
370
-1
  6
BYLAYER
 10
435.0027932958287806
 20
1000.0
 30
0.0
 40
46.5
  0
LINE
  5
28F
100
AcDbEntity
100
AcDbLine
  8
top_bracing
 62
256
370
-1
  6
BYLAYER
 10
485.0
 20
948.1268690891258757
 30
0.0
 11
386.0
 21
948.1268690891259894
 31
0.0
  0
CIRCLE
  5
290
100
AcDbEntity
100
AcDbCircle
  8
0
 62
256
370
-1
  6
BYLAYER
 10
435.0027932958287806
 20
1000.0
 30
0.0
 40
55.0
  0
LINE
  5
291
100
AcDbEntity
100
AcDbLine
  8
top_bracing
 62
256
370
-1
  6
BYLAYER
 10
386.0
 20
948.1268690891259894
 30
0.0
 11
386.0
 21
954.1268690891258757
 31
0.0
  0
LINE
  5
292
100
AcDbEntity
100
AcDbLine
  8
top_bracing
 62
256
370
-1
  6
BYLAYER
 10
480.0
 20
1060.0
 30
0.0
 11
390.0
 21
1090.0
 31
0.0
  0
LINE
  5
293
100
AcDbEntity
100
AcDbLine
  8
top_bracing
 62
256
370
-1
  6
BYLAYER
 10
481.8973665961010511
 20
1065.6920997883030395
 30
0.0
 11
391.8973665961010511
 21
1095.6920997883030395
 31
0.0
  0
LINE
  5
294
100
AcDbEntity
100
AcDbLine
  8
top_bracing
 62
256
370
-1
  6
BYLAYER
 10
480.0
 20
1060.0
 30
0.0
 11
481.8973665961010511
 21
1065.6920997883030395
 31
0.0
  0
LINE
  5
295
100
AcDbEntity
100
AcDbLine
  8
top_bracing
 62
256
370
-1
  6
BYLAYER
 10
391.8973665961010511
 20
1095.6920997883030395
 30
0.0
 11
390.0
 21
1090.0
 31
0.0
  0
LINE
  5
296
100
AcDbEntity
100
AcDbLine
  8
0
 62
256
370
-1
  6
BYLAYER
 10
-87.6935451639155588
 20
1032.0866838274578186
 30
0.0
 11
-213.5645728825777496
 21
1037.2935863520760904
 31
0.0
  0
LINE
  5
297
100
AcDbEntity
100
AcDbLine
  8
top_bracing
 62
256
370
-1
  6
BYLAYER
 10
480.0
 20
941.1268690891258757
 30
0.0
 11
390.0
 21
911.1268690891259894
 31
0.0
  0
LINE
  5
298
100
AcDbEntity
100
AcDbLine
  8
0
 62
256
370
-1
  6
BYLAYER
 10
-77.6850000000000023
 20
1000.0
 30
0.0
 11
-77.6850000000000023
 21
1025.0
 31
0.0
  0
LINE
  5
299
100
AcDbEntity
100
AcDbLine
  8
top_bracing
 62
256
370
-1
  6
BYLAYER
 10
481.8973665961010511
 20
935.4347693008228362
 30
0.0
 11
391.8973665961010511
 21
905.4347693008228362
 31
0.0
  0
LINE
  5
29A
100
AcDbEntity
100
AcDbLine
  8
0
 62
256
370
-1
  6
BYLAYER
 10
-103.0113803560758754
 20
1024.7134942174034222
 30
0.0
 11
-196.3854689428647475
 21
1028.5760969656955695
 31
0.0
  0
LINE
  5
29B
100
AcDbEntity
100
AcDbLine
  8
top_bracing
 62
256
370
-1
  6
BYLAYER
 10
480.0
 20
941.1268690891258757
 30
0.0
 11
481.8973665961010511
 21
935.4347693008228362
 31
0.0
  0
LINE
  5
29C
100
AcDbEntity
100
AcDbLine
  8
0
 62
256
370
-1
  6
BYLAYER
 10
-103.5073597631263596
 20
1012.7237484141021469
 30
0.0
 11
-196.8814483499152175
 21
1016.5863511623942941
 31
0.0
  0
LINE
  5
29D
100
AcDbEntity
100
AcDbLine
  8
top_bracing
 62
256
370
-1
  6
BYLAYER
 10
391.8973665961010511
 20
905.4347693008228362
 30
0.0
 11
390.0
 21
911.1268690891259894
 31
0.0
  0
ARC
  5
29E
100
AcDbEntity
  8
0
 62
256
370
-1
  6
BYLAYER
100
AcDbCircle
 10
-196.6334586463900109
 20
1022.5812240640449318
 30
0.0
 40
6.0000000000000053
100
AcDbArc
 50
87.6311980057273985
 51
267.6311980057274127
  0
ARC
  5
29F
100
AcDbEntity
  8
0
 62
256
370
-1
  6
BYLAYER
100
AcDbCircle
 10
-103.2593700596011104
 20
1018.7186213157527845
 30
0.0
 40
5.9999999999999982
100
AcDbArc
 50
267.6311980057274695
 51
87.6311980057274837
  0
INSERT
  5
2A0
100
AcDbEntity
100
AcDbBlockReference
  8
0
 62
256
370
-1
  6
BYLAYER
  2
classical_tuners
 10
-152.6850000000000023
 20
1036.0
 30
0.0
 50
177.5999999999999943
  0
ARC
  5
2A1
100
AcDbEntity
  8
0
 62
256
370
-1
  6
BYLAYER
100
AcDbCircle
 10
-69.1788843406809235
 20
1047.624104395460563
 30
0.0
 40
24.170314505740528
100
AcDbArc
 50
220.0032241477723858
 51
273.5435143719248003
  0
ARC
  5
2A2
100
AcDbEntity
  8
0
 62
256
370
-1
  6
BYLAYER
100
AcDbCircle
 10
-162.2284957079283174
 20
1037.3630288305239446
 30
0.0
 40
53.4602991330858757
100
AcDbArc
 50
182.3028296414117904
 51
199.277470302672981
  0
ARC
  5
2A3
100
AcDbEntity
  8
0
 62
256
370
-1
  6
BYLAYER
100
AcDbCircle
 10
-103.2593700596011104
 20
981.2813786842472155
 30
0.0
 40
5.9999999999999982
100
AcDbArc
 50
272.3688019942725305
 51
92.3688019942725589
  0
LINE
  5
2A4
100
AcDbEntity
100
AcDbLine
  8
0
 62
256
370
-1
  6
BYLAYER
 10
-67.6850000000000023
 20
1000.0
 30
0.0
 11
-67.6850000000000023
 21
976.5
 31
0.0
  0
LINE
  5
2A5
100
AcDbEntity
100
AcDbLine
  8
0
 62
256
370
-1
  6
BYLAYER
 10
-77.6850000000000023
 20
1000.0
 30
0.0
 11
-77.6850000000000023
 21
975.0
 31
0.0
  0
LINE
  5
2A6
100
AcDbEntity
100
AcDbLine
  8
0
 62
256
370
-1
  6
BYLAYER
 10
-6.0
 20
23.0
 30
0.0
 11
429.4839872845390119
 21
30.4198027545842038
 31
0.0
  0
INSERT
  5
2A7
100
AcDbEntity
100
AcDbBlockReference
  8
0
 62
256
370
-1
  6
BYLAYER
  2
tuner
 10
-123.0
 20
-11.0
 30
0.0
 50
-1.5
  0
INSERT
  5
2A8
100
AcDbEntity
100
AcDbBlockReference
  8
0
 62
256
370
-1
  6
BYLAYER
  2
tuner
 10
-83.0
 20
-14.0
 30
0.0
 50
-6.0
  0
INSERT
  5
2A9
100
AcDbEntity
100
AcDbBlockReference
  8
0
 62
256
370
-1
  6
BYLAYER
  2
tuner
 10
-41.8600343327070732
 20
-21.0
 30
0.0
 50
-12.0
  0
INSERT
  5
2AA
100
AcDbEntity
100
AcDbBlockReference
  8
0
 62
256
370
-1
  6
BYLAYER
  2
tuner
 10
-138.0
 20
14.0
 30
0.0
 41
1.0
 42
-1.0
 43
1.0
 50
364.0
  0
INSERT
  5
2AB
100
AcDbEntity
100
AcDbBlockReference
  8
0
 62
256
370
-1
  6
BYLAYER
  2
tuner
 10
-98.0
 20
18.0
 30
0.0
 41
1.0
 42
-1.0
 43
1.0
 50
365.5
  0
INSERT
  5
2AC
100
AcDbEntity
100
AcDbBlockReference
  8
0
 62
256
370
-1
  6
BYLAYER
  2
tuner
 10
-58.0
 20
23.4184106580678275
 30
0.0
 41
1.0
 42
-1.0
 43
1.0
 50
368.9999999999999432
  0
ARC
  5
2AD
100
AcDbEntity
  8
0
 62
256
370
-1
  6
BYLAYER
100
AcDbCircle
 10
-174.7751207011775136
 20
662.2078986422607159
 30
0.0
 40
638.2103673107119448
100
AcDbArc
 50
270.1593629007790014
 51
281.3505038985629199
  0
ARC
  5
2AE
100
AcDbEntity
  8
0
 62
256
370
-1
  6
BYLAYER
100
AcDbCircle
 10
-128.3918505901574747
 20
-388.2466598465439915
 30
0.0
 40
366.8655082880487726
100
AcDbArc
 50
74.9288350456976815
 51
93.1292317266649547
  0
ARC
  5
2AF
100
AcDbEntity
  8
0
 62
256
370
-1
  6
BYLAYER
100
AcDbCircle
 10
-149.0155712781771058
 20
22.3595453014685184
 30
0.0
 40
23.9871235027463996
100
AcDbArc
 50
176.0781782370193014
 51
248.7721377855814353
  0
ARC
  5
2B0
100
AcDbEntity
  8
0
 62
256
370
-1
  6
BYLAYER
100
AcDbCircle
 10
-169.5452225578926857
 20
-17.7760456465644019
 30
0.0
 40
21.3606799818015674
100
AcDbArc
 50
348.7650547876973519
 51
56.3238885002294722
  0
LINE
  5
2B1
100
AcDbEntity
100
AcDbLine
  8
0
 62
256
370
-1
  6
BYLAYER
 10
357.3600343327070732
 20
-34.9999999999998295
 30
0.0
 11
357.3600343327070732
 21
35.0000000000001705
 31
0.0
  0
LINE
  5
2B2
100
AcDbEntity
100
AcDbLine
  8
0
 62
256
370
-1
  6
BYLAYER
 10
326.5
 20
40.0000000000001705
 30
0.0
 11
352.3600343327070732
 21
40.0000000000001705
 31
0.0
  0
LINE
  5
2B3
100
AcDbEntity
100
AcDbLine
  8
0
 62
256
370
-1
  6
BYLAYER
 10
326.5
 20
-39.9999999999998295
 30
0.0
 11
352.3600343327070732
 21
-39.9999999999998295
 31
0.0
  0
LINE
  5
2B4
100
AcDbEntity
100
AcDbLine
  8
0
 62
256
370
-1
  6
BYLAYER
 10
352.3600343327070732
 20
40.0000000000001705
 30
0.0
 11
357.3600343327070732
 21
35.0000000000001705
 31
0.0
  0
LINE
  5
2B5
100
AcDbEntity
100
AcDbLine
  8
0
 62
256
370
-1
  6
BYLAYER
 10
357.3600343327070732
 20
-34.9999999999998295
 30
0.0
 11
352.3600343327070732
 21
-39.9999999999998295
 31
0.0
  0
LINE
  5
2B6
100
AcDbEntity
100
AcDbLine
  8
0
 62
256
370
-1
  6
BYLAYER
 10
326.5
 20
-39.9999999999998295
 30
0.0
 11
326.5
 21
40.0000000000001705
 31
0.0
  0
LINE
  5
2B7
100
AcDbEntity
100
AcDbLine
  8
0
 62
256
370
-1
  6
BYLAYER
 10
773.1041331740693749
 20
-32.6199341119835751
 30
0.0
 11
773.1041331740693749
 21
32.619934111983838
 31
0.0
  0
SPLINE
  5
2B8
  8
0
 62
256
370
-1
  6
BYLAYER
100
AcDbEntity
100
AcDbSpline
 70
8
 71
3
 72
38
 73
34
 74
0
 40
0.0
 40
0.0
 40
0.0
 40
0.0
 40
1.0
 40
2.0
 40
3.0
 40
4.0
 40
5.0
 40
6.0
 40
7.0
 40
8.0
 40
9.0
 40
10.0
 40
11.0
 40
12.0
 40
13.0
 40
14.0
 40
15.0
 40
16.0
 40
17.0
 40
18.0
 40
19.0
 40
20.0
 40
21.0
 40
22.0
 40
23.0
 40
24.0
 40
25.0
 40
26.0
 40
27.0
 40
28.0
 40
29.0
 40
30.0
 40
31.0
 40
31.0
 40
31.0
 40
31.0
 10
326.6418863600397344
 20
-40.0
 30
0.0
 10
326.8366729401154771
 20
-46.7265493263228819
 30
0.0
 10
329.1477050709024752
 20
-57.7564754050796125
 30
0.0
 10
334.6101446527627559
 20
-70.3621052093721886
 30
0.0
 10
341.1379797952695299
 20
-82.1014922687202642
 30
0.0
 10
352.5738071537239193
 20
-97.7123042183565218
 30
0.0
 10
367.7794433437825319
 20
-110.3094075711613158
 30
0.0
 10
387.8014262658311964
 20
-121.1546483206043376
 30
0.0
 10
409.3346900239585011
 20
-123.3162158594312814
 30
0.0
 10
426.2305740911870089
 20
-122.8311665560658099
 30
0.0
 10
440.9437362932710585
 20
-119.5975045336299729
 30
0.0
 10
459.9639897140489211
 20
-114.8977786574644142
 30
0.0
 10
477.0661001266325911
 20
-108.6409089943240076
 30
0.0
 10
488.3284655202846807
 20
-104.4696625522305737
 30
0.0
 10
496.2538337602625234
 20
-103.6354132638118983
 30
0.0
 10
508.6889556633059328
 20
-105.1268669832284814
 30
0.0
 10
521.2193960002455242
 20
-111.5133494775397622
 30
0.0
 10
542.9717939117099377
 20
-124.491645474279423
 30
0.0
 10
570.0848957853174852
 20
-140.7595065984440907
 30
0.0
 10
593.0267512168320536
 20
-152.0218719920965498
 30
0.0
 10
615.9686066483463946
 20
-158.695866299446152
 30
0.0
 10
637.6590881472320689
 20
-161.6157388089117148
 30
0.0
 10
657.8771867304144507
 20
-161.7579899821511447
 30
0.0
 10
683.5847998087810993
 20
-156.8266553979362641
 30
0.0
 10
709.1307297860257677
 20
-144.7812643643619026
 30
0.0
 10
723.601367336426847
 20
-133.7059719375184272
 30
0.0
 10
736.239545728709345
 20
-120.9460859985002372
 30
0.0
 10
748.7532850549896466
 20
-103.009726297498176
 30
0.0
 10
759.5985258044329385
 20
-81.736369442821271
 30
0.0
 10
764.6003362307042153
 20
-70.0837538547863659
 30
0.0
 10
770.2728696426361239
 20
-52.8560597889195378
 30
0.0
 10
772.6259205394371747
 20
-41.9731993912134271
 30
0.0
 10
773.1041331740693749
 20
-32.6199341119835822
 30
0.0
 10
773.1041331740693749
 20
-32.6199341119835822
 30
0.0
  0
ARC
  5
2B9
100
AcDbEntity
  8
0
 62
256
370
-1
  6
BYLAYER
100
AcDbCircle
 10
385.7400835851212832
 20
13.9375247205868984
 30
0.0
 40
46.7460650756182687
100
AcDbArc
 50
342.6532402390824359
 51
20.6459217975732052
  0
ARC
  5
2BA
100
AcDbEntity
  8
0
 62
256
370
-1
  6
BYLAYER
100
AcDbCircle
 10
474.9799850802928631
 20
-13.9375247205865715
 30
0.0
 40
46.7460650756182687
100
AcDbArc
 50
162.6532402390823506
 51
200.6852803318055578
  0
LINE
  5
2BB
100
AcDbEntity
100
AcDbLine
  8
0
 62
256
370
-1
  6
BYLAYER
 10
312.0
 20
-395.0000000000118234
 30
0.0
 11
311.9999999999994316
 21
-300.0000000000119371
 31
0.0
  0
LINE
  5
2BC
100
AcDbEntity
100
AcDbLine
  8
0
 62
256
370
-1
  6
BYLAYER
 10
381.8086708077063349
 20
-291.3843612193731474
 30
0.0
 11
-10.0264478307349272
 21
-301.6449249040923632
 31
0.0
  0
LINE
  5
2BD
100
AcDbEntity
100
AcDbLine
  8
0
 62
256
370
-1
  6
BYLAYER
 10
1.1230135089577296
 20
-300.3526231914216282
 30
0.0
 11
1.149190457265594
 21
-301.3522805163971725
 31
0.0
  0
LINE
  5
2BE
100
AcDbEntity
100
AcDbLine
  8
0
 62
256
370
-1
  6
BYLAYER
 10
-9.8693861408876256
 20
-307.6428688539457426
 30
0.0
 11
-10.0264478307349272
 21
-301.6449249040923632
 31
0.0
  0
LINE
  5
2BF
100
AcDbEntity
100
AcDbLine
  8
0
 62
256
370
-1
  6
BYLAYER
 10
381.8086708077063349
 20
-291.3843612193731474
 30
0.0
 11
381.9507710418236002
 21
-297.7788717546337125
 31
0.0
  0
LINE
  5
2C0
100
AcDbEntity
100
AcDbLine
  8
0
 62
256
370
-1
  6
BYLAYER
 10
-6.0
 20
-25.0
 30
0.0
 11
-6.0
 21
25.0
 31
0.0
  0
LINE
  5
2C1
100
AcDbEntity
100
AcDbLine
  8
0
 62
256
370
-1
  6
BYLAYER
 10
-11.0
 20
-25.0
 30
0.0
 11
-11.0
 21
25.0
 31
0.0
  0
LINE
  5
2C2
100
AcDbEntity
100
AcDbLine
  8
strings
 62
9
420
12632256
370
70
  6
BYLAYER
 10
-6.0
 20
19.0
 30
0.0
 11
650.0
 21
30.0
 31
0.0
  0
LINE
  5
2C3
100
AcDbEntity
100
AcDbLine
  8
strings
 62
9
420
12632256
370
80
  6
BYLAYER
 10
-5.9999999999999991
 20
5.4999999999999991
 30
0.0
 11
650.0
 21
8.5
 31
0.0
  0
LINE
  5
2C4
100
AcDbEntity
100
AcDbLine
  8
strings
 62
9
420
12632256
370
100
  6
BYLAYER
 10
-5.9999999999999991
 20
-4.5
 30
0.0
 11
650.0
 21
-8.0
 31
0.0
  0
LINE
  5
2C5
100
AcDbEntity
100
AcDbLine
  8
strings
 62
252
420
10526884
370
70
  6
BYLAYER
 10
-6.0
 20
-18.0
 30
0.0
 11
650.0
 21
-30.0
 31
0.0
  0
LINE
  5
2C6
100
AcDbEntity
100
AcDbLine
  8
strings
 62
252
420
10526884
370
90
  6
BYLAYER
 10
-6.0
 20
-8.0
 30
0.0
 11
650.0
 21
-13.0
 31
0.0
  0
LINE
  5
2C7
100
AcDbEntity
100
AcDbLine
  8
strings
 62
252
420
10526884
370
106
  6
BYLAYER
 10
-5.9999999999999991
 20
15.4999999999999982
 30
0.0
 11
650.0
 21
25.0
 31
0.0
  0
LINE
  5
2C8
100
AcDbEntity
100
AcDbLine
  8
strings
 62
9
420
12632256
370
70
  6
BYLAYER
 10
-11.0
 20
17.0
 30
0.0
 11
-58.0
 21
21.4184106580678275
 31
0.0
  0
LINE
  5
2C9
100
AcDbEntity
100
AcDbLine
  8
strings
 62
252
420
10526884
370
106
  6
BYLAYER
 10
-11.0
 20
15.0
 30
0.0
 11
-98.0
 21
16.0
 31
0.0
  0
LINE
  5
2CA
100
AcDbEntity
100
AcDbLine
  8
strings
 62
9
420
12632256
370
80
  6
BYLAYER
 10
-11.0
 20
5.0
 30
0.0
 11
-138.0
 21
12.0
 31
0.0
  0
LINE
  5
2CB
100
AcDbEntity
100
AcDbLine
  8
strings
 62
9
420
12632256
370
100
  6
BYLAYER
 10
-11.0
 20
-5.0
 30
0.0
 11
-123.0
 21
-9.0
 31
0.0
  0
LINE
  5
2CC
100
AcDbEntity
100
AcDbLine
  8
strings
 62
252
420
10526884
370
90
  6
BYLAYER
 10
-11.0
 20
-7.0
 30
0.0
 11
-83.0
 21
-12.0
 31
0.0
  0
LINE
  5
2CD
100
AcDbEntity
100
AcDbLine
  8
strings
 62
252
420
10526884
370
70
  6
BYLAYER
 10
-11.0
 20
-17.0
 30
0.0
 11
-41.8600343327070732
 21
-19.0
 31
0.0
  0
LINE
  5
2CE
100
AcDbEntity
100
AcDbLine
  8
strings
 62
256
370
-1
  6
BYLAYER
 10
281.9999999999978968
 20
-300.0000000000137561
 30
0.0
 11
381.9507710418236002
 21
-297.7788717546337125
 31
0.0
  0
ARC
  5
2CF
100
AcDbEntity
  8
0
 62
256
370
-1
  6
BYLAYER
100
AcDbCircle
 10
652.3331669977005731
 20
78.2304736688520421
 30
0.0
 40
17.5344885580937309
100
AcDbArc
 50
64.071892179715249
 51
115.1812180630575853
  0
ARC
  5
2D0
100
AcDbEntity
  8
0
 62
256
370
-1
  6
BYLAYER
100
AcDbCircle
 10
667.6668330022994269
 20
109.7695263311479721
 30
0.0
 40
17.5344885580937309
100
AcDbArc
 50
244.0718921797152348
 51
295.5194474665889857
  0
LINE
  5
2D1
100
AcDbEntity
100
AcDbLine
  8
0
 62
256
370
-1
  6
BYLAYER
 10
644.018873683593938
 20
-40.0
 30
0.0
 11
644.8725461576277667
 21
-94.0985997609466551
 31
0.0
  0
ARC
  5
2D2
100
AcDbEntity
  8
0
 62
256
370
-1
  6
BYLAYER
100
AcDbCircle
 10
652.3331669976996636
 20
-78.2304736688525111
 30
0.0
 40
17.5344885580937309
100
AcDbArc
 50
244.818781936944049
 51
295.9281078202860726
  0
ARC
  5
2D3
100
AcDbEntity
  8
0
 62
256
370
-1
  6
BYLAYER
100
AcDbCircle
 10
667.6668330022998816
 20
-109.7695263311479437
 30
0.0
 40
17.5344885580937309
100
AcDbArc
 50
64.4805525334114122
 51
115.9281078202862147
  0
LINE
  5
2D4
100
AcDbEntity
100
AcDbLine
  8
0
 62
256
370
-1
  6
BYLAYER
 10
675.2209962922029263
 20
-93.9457181301047655
 30
0.0
 11
676.9833526288475696
 21
-40.0000000000000426
 31
0.0
  0
LINE
  5
2D5
100
AcDbEntity
100
AcDbLine
  8
0
 62
256
370
-1
  6
BYLAYER
 10
650.0
 20
-37.5
 30
0.0
 11
653.0
 21
-37.5
 31
0.0
  0
LINE
  5
2D6
100
AcDbEntity
100
AcDbLine
  8
0
 62
256
370
-1
  6
BYLAYER
 10
653.0
 20
-37.5
 30
0.0
 11
653.0
 21
37.5
 31
0.0
  0
LINE
  5
2D7
100
AcDbEntity
100
AcDbLine
  8
0
 62
256
370
-1
  6
BYLAYER
 10
653.0
 20
37.5
 30
0.0
 11
650.0
 21
37.5
 31
0.0
  0
LINE
  5
2D8
100
AcDbEntity
100
AcDbLine
  8
0
 62
256
370
-1
  6
BYLAYER
 10
650.0
 20
37.5
 30
0.0
 11
650.0
 21
-37.5
 31
0.0
  0
LINE
  5
2D9
100
AcDbEntity
100
AcDbLine
  8
0
 62
256
370
-1
  6
BYLAYER
 10
667.9833526288475696
 20
-40.0000000000000355
 30
0.0
 11
676.9833526288475696
 21
-40.0000000000000355
 31
0.0
  0
LINE
  5
2DA
100
AcDbEntity
100
AcDbLine
  8
0
 62
256
370
-1
  6
BYLAYER
 10
676.9833526288475696
 20
-40.0000000000000355
 30
0.0
 11
676.9833526288475696
 21
39.9999999999999645
 31
0.0
  0
LINE
  5
2DB
100
AcDbEntity
100
AcDbLine
  8
0
 62
256
370
-1
  6
BYLAYER
 10
676.9833526288475696
 20
39.9999999999999645
 30
0.0
 11
667.9833526288475696
 21
39.9999999999999645
 31
0.0
  0
LINE
  5
2DC
100
AcDbEntity
100
AcDbLine
  8
0
 62
256
370
-1
  6
BYLAYER
 10
667.9833526288475696
 20
39.9999999999999645
 30
0.0
 11
667.9833526288475696
 21
-40.0000000000000355
 31
0.0
  0
LINE
  5
2DD
100
AcDbEntity
100
AcDbLine
  8
0
 62
256
370
-1
  6
BYLAYER
 10
644.0
 20
-40.0
 30
0.0
 11
658.0
 21
-40.0
 31
0.0
  0
LINE
  5
2DE
100
AcDbEntity
100
AcDbLine
  8
0
 62
256
370
-1
  6
BYLAYER
 10
658.0
 20
-40.0
 30
0.0
 11
658.0
 21
40.0
 31
0.0
  0
LINE
  5
2DF
100
AcDbEntity
100
AcDbLine
  8
0
 62
256
370
-1
  6
BYLAYER
 10
658.0
 20
40.0
 30
0.0
 11
644.0
 21
40.0
 31
0.0
  0
LINE
  5
2E0
100
AcDbEntity
100
AcDbLine
  8
0
 62
256
370
-1
  6
BYLAYER
 10
644.0
 20
40.0
 30
0.0
 11
644.0
 21
-40.0
 31
0.0
  0
LINE
  5
2E1
100
AcDbEntity
100
AcDbLine
  8
0
 62
256
370
-1
  6
BYLAYER
 10
658.0
 20
40.0
 30
0.0
 11
667.9833526288475696
 21
39.9999999999999574
 31
0.0
  0
LINE
  5
2E2
100
AcDbEntity
100
AcDbLine
  8
0
 62
256
370
-1
  6
BYLAYER
 10
667.9833526288475696
 20
-40.0000000000000426
 30
0.0
 11
658.0
 21
-40.0
 31
0.0
  0
LINE
  5
2E3
100
AcDbEntity
100
AcDbLine
  8
back_bracing
 62
256
370
-1
  6
BYLAYER
 10
600.5
 20
159.000000000000199
 30
0.0
 11
606.5
 21
159.0000000000001137
 31
0.0
  0
LINE
  5
2E4
100
AcDbEntity
100
AcDbLine
  8
back_bracing
 62
256
370
-1
  6
BYLAYER
 10
600.5
 20
-158.9999999999998295
 30
0.0
 11
606.5
 21
-158.9999999999998295
 31
0.0
  0
LINE
  5
2E5
100
AcDbEntity
100
AcDbLine
  8
back_bracing
 62
256
370
-1
  6
BYLAYER
 10
606.5
 20
-158.9999999999998295
 30
0.0
 11
606.5
 21
159.0000000000001137
 31
0.0
  0
LINE
  5
2E6
100
AcDbEntity
100
AcDbLine
  8
back_bracing
 62
256
370
-1
  6
BYLAYER
 10
600.5
 20
159.0000000000002274
 30
0.0
 11
600.5
 21
-158.9999999999998295
 31
0.0
  0
ARC
  5
2E7
100
AcDbEntity
  8
rosette
 62
256
370
-1
  6
BYLAYER
100
AcDbCircle
 10
460.7475889568663661
 20
0.5634345445629663
 30
0.0
 40
46.5
100
AcDbArc
 50
285.945395900922847
 51
17.3932490924198788
  0
ARC
  5
2E8
100
AcDbEntity
  8
rosette
 62
256
370
-1
  6
BYLAYER
100
AcDbCircle
 10
460.7475889568663661
 20
0.5634345445629663
 30
0.0
 40
65.0
100
AcDbArc
 50
285.945395900922847
 51
17.3932490924198788
  0
LINE
  5
2E9
100
AcDbEntity
100
AcDbLine
  8
rosette
 62
256
370
-1
  6
BYLAYER
 10
474.5000870827093422
 20
61.0189454207328197
 30
0.0
 11
474.9437160545107872
 21
62.9691231909318034
 31
0.0
  0
ARC
  5
2EA
100
AcDbEntity
  8
rosette
 62
256
370
70
  6
BYLAYER
100
AcDbCircle
 10
460.7475889568663661
 20
0.5634345445629663
 30
0.0
 40
64.0
100
AcDbArc
 50
17.3932490924198788
 51
77.1843711342423546
  0
ARC
  5
2EB
100
AcDbEntity
  8
rosette
 62
256
370
70
  6
BYLAYER
100
AcDbCircle
 10
460.7475889568663661
 20
0.5634345445629663
 30
0.0
 40
62.0
100
AcDbArc
 50
17.3932490924198788
 51
77.1843711342423546
  0
LINE
  5
2EC
100
AcDbEntity
100
AcDbLine
  8
rosette
 62
256
370
-1
  6
BYLAYER
 10
510.7058735181983593
 20
-1.4785751735789603
 30
0.0
 11
515.7017019743316268
 21
-1.6827761453931487
 31
0.0
  0
ARC
  5
2ED
100
AcDbEntity
  8
rosette
 62
256
370
70
  6
BYLAYER
100
AcDbCircle
 10
460.7475889568663661
 20
0.5634345445629663
 30
0.0
 40
54.0
100
AcDbArc
 50
123.6900675259797708
 51
285.945395900922847
  0
LINE
  5
2EE
100
AcDbEntity
100
AcDbLine
  8
rosette
 62
256
370
-1
  6
BYLAYER
 10
433.0125791456050592
 20
42.165949261455161
 30
0.0
 11
430.2390781644789968
 21
46.3262007331443613
 31
0.0
  0
ARC
  5
2EF
100
AcDbEntity
  8
rosette
 62
256
370
-1
  6
BYLAYER
100
AcDbCircle
 10
460.7475889568663661
 20
0.5634345445629663
 30
0.0
 40
50.0
100
AcDbArc
 50
357.6593782585515555
 51
123.6900675259797708
  0
ARC
  5
2F0
100
AcDbEntity
  8
rosette
 62
256
370
-1
  6
BYLAYER
100
AcDbCircle
 10
460.7475889568663661
 20
0.5634345445629663
 30
0.0
 40
55.0
100
AcDbArc
 50
357.6593782585515555
 51
123.6900675259798135
  0
LINE
  5
2F1
100
AcDbEntity
100
AcDbLine
  8
rosette
 62
256
370
-1
  6
BYLAYER
 10
513.2327445667115171
 20
17.0044941396847094
 30
0.0
 11
522.7755001321379495
 21
19.9937777024341159
 31
0.0
  0
LINE
  5
2F2
100
AcDbEntity
100
AcDbLine
  8
rosette
 62
256
370
-1
  6
BYLAYER
 10
473.5221214040946052
 20
-44.1474290207353022
 30
0.0
 11
478.6044622701961089
 21
-61.9356220520905651
 31
0.0
  0
LINE
  5
2F3
100
AcDbEntity
100
AcDbLine
  8
rosette
 62
256
370
-1
  6
BYLAYER
 10
505.1214023360992087
 20
14.4636031113477088
 30
0.0
 11
508.4613667839985283
 21
15.5098523583100416
 31
0.0
  0
ARC
  5
2F4
100
AcDbEntity
  8
rosette
 62
256
370
70
  6
BYLAYER
100
AcDbCircle
 10
460.7475889568663661
 20
0.5634345445629663
 30
0.0
 40
52.0
100
AcDbArc
 50
123.6900675259797708
 51
285.945395900922847
  0
LINE
  5
2F5
100
AcDbEntity
100
AcDbLine
  8
top_bracing
 62
256
370
-1
  6
BYLAYER
 10
710.2748167824729535
 20
-58.771238437828643
 30
0.0
 11
517.5
 21
-29.2497215834457549
 31
0.0
  0
LINE
  5
2F6
100
AcDbEntity
100
AcDbLine
  8
top_bracing
 62
256
370
-1
  6
BYLAYER
 10
687.6595095134953226
 20
-102.0768028770143019
 30
0.0
 11
517.5
 21
-53.9835414434274909
 31
0.0
  0
LINE
  5
2F7
100
AcDbEntity
100
AcDbLine
  8
top_bracing
 62
256
370
-1
  6
BYLAYER
 10
665.1871070957067786
 20
-144.0266603442937594
 30
0.0
 11
517.5
 21
-81.2227319830823973
 31
0.0
  0
LINE
  5
2F8
100
AcDbEntity
100
AcDbLine
  8
top_bracing
 62
256
370
-1
  6
BYLAYER
 10
726.5
 20
1.5000000000001705
 30
0.0
 11
517.5
 21
1.5000000000001705
 31
0.0
  0
LINE
  5
2F9
100
AcDbEntity
100
AcDbLine
  8
top_bracing
 62
256
370
-1
  6
BYLAYER
 10
517.5
 20
-1.4999999999998295
 30
0.0
 11
726.5
 21
-1.4999999999998295
 31
0.0
  0
LINE
  5
2FA
100
AcDbEntity
100
AcDbLine
  8
top_bracing
 62
256
370
-1
  6
BYLAYER
 10
709.8206912494938479
 20
-61.7366675805154728
 30
0.0
 11
517.5
 21
-32.2846954664654504
 31
0.0
  0
LINE
  5
2FB
100
AcDbEntity
100
AcDbLine
  8
top_bracing
 62
256
370
-1
  6
BYLAYER
 10
686.8435645869185464
 20
-104.9637101974514621
 30
0.0
 11
517.5
 21
-57.1010644537044882
 31
0.0
  0
LINE
  5
2FC
100
AcDbEntity
100
AcDbLine
  8
top_bracing
 62
256
370
-1
  6
BYLAYER
 10
664.013100827708513
 20
-146.7874046791970954
 30
0.0
 11
517.5
 21
-84.4827223727086647
 31
0.0
  0
LINE
  5
2FD
100
AcDbEntity
100
AcDbLine
  8
top_bracing
 62
256
370
-1
  6
BYLAYER
 10
687.6595095134953226
 20
-102.0768028770143019
 30
0.0
 11
686.8435645869185464
 21
-104.9637101974514621
 31
0.0
  0
LINE
  5
2FE
100
AcDbEntity
100
AcDbLine
  8
top_bracing
 62
256
370
-1
  6
BYLAYER
 10
710.2748167824729535
 20
-58.771238437828643
 30
0.0
 11
709.8206912494938479
 21
-61.7366675805154728
 31
0.0
  0
LINE
  5
2FF
100
AcDbEntity
100
AcDbLine
  8
top_bracing
 62
256
370
-1
  6
BYLAYER
 10
665.1871070957067786
 20
-144.0266603442937594
 30
0.0
 11
664.013100827708513
 21
-146.7874046791970954
 31
0.0
  0
LINE
  5
300
100
AcDbEntity
100
AcDbLine
  8
top_bracing
 62
256
370
-1
  6
BYLAYER
 10
369.5
 20
-74.9999999999998295
 30
0.0
 11
369.5
 21
75.0000000000001705
 31
0.0
  0
LINE
  5
301
100
AcDbEntity
100
AcDbLine
  8
top_bracing
 62
256
370
-1
  6
BYLAYER
 10
746.7095290887309602
 20
-2.3871097761114828
 30
0.0
 11
683.7761218464984267
 21
-138.7428254676146082
 31
0.0
  0
LINE
  5
302
100
AcDbEntity
100
AcDbLine
  8
top_bracing
 62
256
370
-1
  6
BYLAYER
 10
710.2748167824729535
 20
58.7712384378288846
 30
0.0
 11
517.5
 21
29.2497215834460995
 31
0.0
  0
LINE
  5
303
100
AcDbEntity
100
AcDbLine
  8
top_bracing
 62
256
370
-1
  6
BYLAYER
 10
687.6595095134953226
 20
102.0768028770145719
 30
0.0
 11
517.5
 21
53.9835414434277538
 31
0.0
  0
LINE
  5
304
100
AcDbEntity
100
AcDbLine
  8
top_bracing
 62
256
370
-1
  6
BYLAYER
 10
665.1871070957067786
 20
144.0266603442940152
 30
0.0
 11
517.5
 21
81.2227319830826673
 31
0.0
  0
LINE
  5
305
100
AcDbEntity
100
AcDbLine
  8
top_bracing
 62
256
370
-1
  6
BYLAYER
 10
746.7095290887309602
 20
2.3871097761117381
 30
0.0
 11
683.7761218464984267
 21
138.7428254676148924
 31
0.0
  0
LINE
  5
306
100
AcDbEntity
100
AcDbLine
  8
top_bracing
 62
256
370
-1
  6
BYLAYER
 10
709.8206912494938479
 20
61.7366675805157428
 30
0.0
 11
517.5
 21
32.2846954664657346
 31
0.0
  0
LINE
  5
307
100
AcDbEntity
100
AcDbLine
  8
top_bracing
 62
256
370
-1
  6
BYLAYER
 10
686.8435645869185464
 20
104.963710197451789
 30
0.0
 11
517.5
 21
57.1010644537046375
 31
0.0
  0
LINE
  5
308
100
AcDbEntity
100
AcDbLine
  8
top_bracing
 62
256
370
-1
  6
BYLAYER
 10
664.013100827708513
 20
146.7874046791973797
 30
0.0
 11
517.5
 21
84.4827223727089631
 31
0.0
  0
LINE
  5
309
100
AcDbEntity
100
AcDbLine
  8
top_bracing
 62
256
370
-1
  6
BYLAYER
 10
743.985650935229387
 20
1.1299352437265204
 30
0.0
 11
681.0522436929973082
 21
137.4856509352295859
 31
0.0
  0
LINE
  5
30A
100
AcDbEntity
100
AcDbLine
  8
top_bracing
 62
256
370
-1
  6
BYLAYER
 10
743.985650935229387
 20
1.1299352437264425
 30
0.0
 11
746.7095290887309602
 21
2.3871097761116187
 31
0.0
  0
LINE
  5
30B
100
AcDbEntity
100
AcDbLine
  8
top_bracing
 62
256
370
-1
  6
BYLAYER
 10
687.6595095134953226
 20
102.0768028770145719
 30
0.0
 11
686.8435645869185464
 21
104.963710197451789
 31
0.0
  0
LINE
  5
30C
100
AcDbEntity
100
AcDbLine
  8
top_bracing
 62
256
370
-1
  6
BYLAYER
 10
681.0522436929973082
 20
137.4856509352295859
 30
0.0
 11
683.7761218464984267
 21
138.7428254676148924
 31
0.0
  0
LINE
  5
30D
100
AcDbEntity
100
AcDbLine
  8
top_bracing
 62
256
370
-1
  6
BYLAYER
 10
710.2748167824729535
 20
58.7712384378288846
 30
0.0
 11
709.8206912494938479
 21
61.7366675805157428
 31
0.0
  0
LINE
  5
30E
100
AcDbEntity
100
AcDbLine
  8
top_bracing
 62
256
370
-1
  6
BYLAYER
 10
665.1871070957067786
 20
144.0266603442940152
 30
0.0
 11
664.013100827708513
 21
146.7874046791973797
 31
0.0
  0
LINE
  5
30F
100
AcDbEntity
100
AcDbLine
  8
top_bracing
 62
256
370
-1
  6
BYLAYER
 10
375.5
 20
-74.9999999999998295
 30
0.0
 11
375.5
 21
75.0000000000001705
 31
0.0
  0
LINE
  5
310
100
AcDbEntity
100
AcDbLine
  8
top_bracing
 62
256
370
-1
  6
BYLAYER
 10
406.5
 20
-114.9999999999998295
 30
0.0
 11
406.5
 21
115.0000000000001705
 31
0.0
  0
LINE
  5
311
100
AcDbEntity
100
AcDbLine
  8
top_bracing
 62
256
370
-1
  6
BYLAYER
 10
517.5
 20
100.0000000000001705
 30
0.0
 11
517.5
 21
-99.9999999999998295
 31
0.0
  0
LINE
  5
312
100
AcDbEntity
100
AcDbLine
  8
top_bracing
 62
256
370
-1
  6
BYLAYER
 10
511.5
 20
64.6578886536702839
 30
0.0
 11
412.5
 21
97.6578886536702697
 31
0.0
  0
LINE
  5
313
100
AcDbEntity
100
AcDbLine
  8
top_bracing
 62
256
370
-1
  6
BYLAYER
 10
511.5
 20
-63.5310195645440103
 30
0.0
 11
412.5
 21
-96.5310195645439819
 31
0.0
  0
LINE
  5
314
100
AcDbEntity
100
AcDbLine
  8
0
 62
256
370
-1
  6
BYLAYER
 10
93.4960000000000093
 20
-23.8667768524064954
 30
0.0
 11
93.4960000000000093
 21
-3.0
 31
0.0
  0
LINE
  5
315
100
AcDbEntity
100
AcDbLine
  8
0
 62
256
370
-1
  6
BYLAYER
 10
90.4960000000000093
 20
0.0
 30
0.0
 11
90.4960000000000235
 21
0.0
 31
0.0
  0
LINE
  5
316
100
AcDbEntity
100
AcDbLine
  8
0
 62
256
370
-1
  6
BYLAYER
 10
87.4960000000000093
 20
-3.0
 30
0.0
 11
87.4960000000000093
 21
-23.7542028683826274
 31
0.0
  0
LINE
  5
317
100
AcDbEntity
100
AcDbLine
  8
0
 62
256
370
-1
  6
BYLAYER
 10
154.5105000000000075
 20
-25.0115510771105676
 30
0.0
 11
154.5105000000000075
 21
-2.9994531503183826
 31
0.0
  0
LINE
  5
318
100
AcDbEntity
100
AcDbLine
  8
0
 62
256
370
-1
  6
BYLAYER
 10
151.5105000000000075
 20
0.0005468496816174
 30
0.0
 11
151.5104999999999791
 21
0.0005468496816174
 31
0.0
  0
LINE
  5
319
100
AcDbEntity
100
AcDbLine
  8
0
 62
256
370
-1
  6
BYLAYER
 10
148.5105000000000075
 20
-2.9994531503183826
 30
0.0
 11
148.5105000000000075
 21
-24.8989770930866925
 31
0.0
  0
LINE
  5
31A
100
AcDbEntity
100
AcDbLine
  8
0
 62
256
370
-1
  6
BYLAYER
 10
279.24350000000004
 20
-27.3518328686521279
 30
0.0
 11
279.24350000000004
 21
-2.9999999999998295
 31
0.0
  0
LINE
  5
31B
100
AcDbEntity
100
AcDbLine
  8
0
 62
256
370
-1
  6
BYLAYER
 10
279.7494999999998981
 20
0.0000000000001705
 30
0.0
 11
279.7494999999998981
 21
0.0000000000001705
 31
0.0
  0
LINE
  5
31C
100
AcDbEntity
100
AcDbLine
  8
0
 62
256
370
-1
  6
BYLAYER
 10
273.24350000000004
 20
-2.9999999999998295
 30
0.0
 11
273.24350000000004
 21
-27.2392588846282599
 31
0.0
  0
LINE
  5
31D
100
AcDbEntity
100
AcDbLine
  8
0
 62
256
370
-1
  6
BYLAYER
 10
319.9114999999999895
 20
-28.1148593323659206
 30
0.0
 11
319.9114999999999895
 21
-2.9999999999998295
 31
0.0
  0
LINE
  5
31E
100
AcDbEntity
100
AcDbLine
  8
0
 62
256
370
-1
  6
BYLAYER
 10
317.5805000000000291
 20
0.0000000000001705
 30
0.0
 11
317.5805000000000291
 21
0.0000000000001705
 31
0.0
  0
LINE
  5
31F
100
AcDbEntity
100
AcDbLine
  8
0
 62
256
370
-1
  6
BYLAYER
 10
313.9114999999999895
 20
-2.9999999999998295
 30
0.0
 11
313.9114999999999895
 21
-28.0022853483420491
 31
0.0
  0
LINE
  5
320
100
AcDbEntity
100
AcDbLine
  8
0
 62
256
370
-1
  6
BYLAYER
 10
208.3209999999999695
 20
-26.0211614716633086
 30
0.0
 11
208.3209999999999695
 21
-3.0000000000000324
 31
0.0
  0
LINE
  5
321
100
AcDbEntity
100
AcDbLine
  8
0
 62
256
370
-1
  6
BYLAYER
 10
205.3209999999999695
 20
-0.0000000000000323
 30
0.0
 11
205.3209999999999695
 21
-0.0000000000000323
 31
0.0
  0
LINE
  5
322
100
AcDbEntity
100
AcDbLine
  8
0
 62
256
370
-1
  6
BYLAYER
 10
202.3209999999999695
 20
-3.0000000000000324
 30
0.0
 11
202.3209999999999695
 21
-25.9085874876394442
 31
0.0
  0
ARC
  5
323
100
AcDbEntity
  8
0
 62
256
370
-1
  6
BYLAYER
100
AcDbCircle
 10
90.4960000000000235
 20
-3.0
 30
0.0
 40
3.0
100
AcDbArc
 50
90.0
 51
180.0
  0
ARC
  5
324
100
AcDbEntity
  8
0
 62
256
370
-1
  6
BYLAYER
100
AcDbCircle
 10
90.4960000000000093
 20
-3.0
 30
0.0
 40
3.0
100
AcDbArc
 50
0.0
 51
90.0
  0
ARC
  5
325
100
AcDbEntity
  8
0
 62
256
370
-1
  6
BYLAYER
100
AcDbCircle
 10
151.5104999999999791
 20
-2.9994531503183826
 30
0.0
 40
3.0
100
AcDbArc
 50
90.0
 51
180.0
  0
ARC
  5
326
100
AcDbEntity
  8
0
 62
256
370
-1
  6
BYLAYER
100
AcDbCircle
 10
151.5105000000000075
 20
-2.9994531503183826
 30
0.0
 40
3.0
100
AcDbArc
 50
0.0
 51
90.0
  0
ARC
  5
327
100
AcDbEntity
  8
0
 62
256
370
-1
  6
BYLAYER
100
AcDbCircle
 10
205.3209999999999695
 20
-3.0000000000000324
 30
0.0
 40
3.0
100
AcDbArc
 50
90.0
 51
180.0
  0
ARC
  5
328
100
AcDbEntity
  8
0
 62
256
370
-1
  6
BYLAYER
100
AcDbCircle
 10
205.3209999999999695
 20
-3.0000000000000324
 30
0.0
 40
3.0
100
AcDbArc
 50
0.0
 51
90.0
  0
ARC
  5
329
100
AcDbEntity
  8
0
 62
256
370
-1
  6
BYLAYER
100
AcDbCircle
 10
276.2434999999999832
 20
-2.9999999999998295
 30
0.0
 40
3.0
100
AcDbArc
 50
90.0
 51
180.0
  0
ARC
  5
32A
100
AcDbEntity
  8
0
 62
256
370
-1
  6
BYLAYER
100
AcDbCircle
 10
276.2434999999999832
 20
-2.9999999999998295
 30
0.0
 40
3.0
100
AcDbArc
 50
0.0
 51
90.0
  0
ARC
  5
32B
100
AcDbEntity
  8
0
 62
256
370
-1
  6
BYLAYER
100
AcDbCircle
 10
316.9114999999999895
 20
-2.9999999999998295
 30
0.0
 40
3.0
100
AcDbArc
 50
90.0
 51
180.0
  0
ARC
  5
32C
100
AcDbEntity
  8
0
 62
256
370
-1
  6
BYLAYER
100
AcDbCircle
 10
316.9114999999999895
 20
-2.9999999999998295
 30
0.0
 40
3.0
100
AcDbArc
 50
0.0
 51
90.0
  0
ARC
  5
32D
100
AcDbEntity
  8
top_bracing
 62
256
370
-1
  6
BYLAYER
100
AcDbCircle
 10
460.7475889568663661
 20
0.5634345445629645
 30
0.0
 40
64.0
100
AcDbArc
 50
221.0733934658638304
 51
322.4673606982540264
  0
ARC
  5
32E
100
AcDbEntity
  8
top_bracing
 62
256
370
-1
  6
BYLAYER
100
AcDbCircle
 10
460.7475889568663661
 20
0.5634345445629645
 30
0.0
 40
64.0
100
AcDbArc
 50
37.5326393017459665
 51
138.9266065341361696
  0
LINE
  5
32F
100
AcDbEntity
100
AcDbLine
  8
frets
 62
256
370
-1
  6
BYLAYER
 10
218.51400000000001
 20
-29.9999999999998295
 30
0.0
 11
218.51400000000001
 21
30.0000000000001705
 31
0.0
  0
LINE
  5
330
100
AcDbEntity
100
AcDbLine
  8
frets
 62
256
370
-1
  6
BYLAYER
 10
242.6750000000000114
 20
-29.9999999999998295
 30
0.0
 11
242.6750000000000114
 21
30.0000000000001705
 31
0.0
  0
LINE
  5
331
100
AcDbEntity
100
AcDbLine
  8
frets
 62
256
370
-1
  6
BYLAYER
 10
265.4809999999999945
 20
-29.9999999999998295
 30
0.0
 11
265.4809999999999945
 21
30.0000000000001705
 31
0.0
  0
LINE
  5
332
100
AcDbEntity
100
AcDbLine
  8
frets
 62
256
370
-1
  6
BYLAYER
 10
287.0059999999999718
 20
-29.9999999999998295
 30
0.0
 11
287.0059999999999718
 21
30.0000000000001705
 31
0.0
  0
LINE
  5
333
100
AcDbEntity
100
AcDbLine
  8
frets
 62
256
370
-1
  6
BYLAYER
 10
307.3229999999999791
 20
-29.9999999999998295
 30
0.0
 11
307.3229999999999791
 21
30.0000000000001705
 31
0.0
  0
LINE
  5
334
100
AcDbEntity
100
AcDbLine
  8
frets
 62
256
370
-1
  6
BYLAYER
 10
326.5
 20
-29.9999999999998295
 30
0.0
 11
326.5
 21
30.0000000000001705
 31
0.0
  0
LINE
  5
335
100
AcDbEntity
100
AcDbLine
  8
frets
 62
256
370
-1
  6
BYLAYER
 10
344.6009999999999991
 20
-29.9999999999998295
 30
0.0
 11
344.6009999999999991
 21
30.0000000000001705
 31
0.0
  0
LINE
  5
336
100
AcDbEntity
100
AcDbLine
  8
frets
 62
256
370
-1
  6
BYLAYER
 10
361.6850000000000023
 20
-29.9999999999998295
 30
0.0
 11
361.6850000000000023
 21
30.0000000000001705
 31
0.0
  0
LINE
  5
337
100
AcDbEntity
100
AcDbLine
  8
frets
 62
256
370
-1
  6
BYLAYER
 10
377.8109999999999786
 20
-29.9999999999998295
 30
0.0
 11
377.8109999999999786
 21
30.0000000000001705
 31
0.0
  0
LINE
  5
338
100
AcDbEntity
100
AcDbLine
  8
frets
 62
256
370
-1
  6
BYLAYER
 10
393.0319999999999823
 20
-29.9999999999998295
 30
0.0
 11
393.0319999999999823
 21
30.0000000000001705
 31
0.0
  0
LINE
  5
339
100
AcDbEntity
100
AcDbLine
  8
frets
 62
256
370
-1
  6
BYLAYER
 10
407.3980000000000246
 20
-29.9999999999998295
 30
0.0
 11
407.3980000000000246
 21
30.0000000000001705
 31
0.0
  0
LINE
  5
33A
100
AcDbEntity
100
AcDbLine
  8
frets
 62
256
370
-1
  6
BYLAYER
 10
420.9580000000000268
 20
-29.9999999999998295
 30
0.0
 11
420.9580000000000268
 21
30.0000000000001705
 31
0.0
  0
LINE
  5
33B
100
AcDbEntity
100
AcDbLine
  8
frets
 62
256
370
-1
  6
BYLAYER
 10
-6.0
 20
-29.9999999999999432
 30
0.0
 11
-6.0
 21
29.9999999999999432
 31
0.0
  0
LINE
  5
33C
100
AcDbEntity
100
AcDbLine
  8
frets
 62
256
370
-1
  6
BYLAYER
 10
-6.0
 20
29.9999999999999432
 30
0.0
 11
420.95799999999997
 21
30.0000000000001528
 31
0.0
  0
LINE
  5
33D
100
AcDbEntity
100
AcDbLine
  8
frets
 62
256
370
-1
  6
BYLAYER
 10
-6.0
 20
-29.9999999999999432
 30
0.0
 11
420.95799999999997
 21
-29.9999999999998401
 31
0.0
  0
LINE
  5
33E
100
AcDbEntity
100
AcDbLine
  8
frets
 62
256
370
-1
  6
BYLAYER
 10
4.0
 20
-29.9999999999998295
 30
0.0
 11
4.0
 21
30.0000000000001705
 31
0.0
  0
LINE
  5
33F
100
AcDbEntity
100
AcDbLine
  8
frets
 62
256
370
-1
  6
BYLAYER
 10
40.2010000000000218
 20
-29.9999999999998295
 30
0.0
 11
40.2010000000000218
 21
30.0000000000001705
 31
0.0
  0
LINE
  5
340
100
AcDbEntity
100
AcDbLine
  8
frets
 62
256
370
-1
  6
BYLAYER
 10
74.3700000000000045
 20
-29.9999999999998295
 30
0.0
 11
74.3700000000000045
 21
30.0000000000001705
 31
0.0
  0
LINE
  5
341
100
AcDbEntity
100
AcDbLine
  8
frets
 62
256
370
-1
  6
BYLAYER
 10
106.6220000000000141
 20
-29.9999999999998295
 30
0.0
 11
106.6220000000000141
 21
30.0000000000001705
 31
0.0
  0
LINE
  5
342
100
AcDbEntity
100
AcDbLine
  8
frets
 62
256
370
-1
  6
BYLAYER
 10
137.0629999999999882
 20
-29.9999999999998295
 30
0.0
 11
137.0629999999999882
 21
30.0000000000001705
 31
0.0
  0
LINE
  5
343
100
AcDbEntity
100
AcDbLine
  8
frets
 62
256
370
-1
  6
BYLAYER
 10
165.7959999999999923
 20
-29.9999999999998295
 30
0.0
 11
165.7959999999999923
 21
30.0000000000001705
 31
0.0
  0
LINE
  5
344
100
AcDbEntity
100
AcDbLine
  8
frets
 62
256
370
-1
  6
BYLAYER
 10
192.9159999999999968
 20
-29.9999999999998295
 30
0.0
 11
192.9159999999999968
 21
30.0000000000001705
 31
0.0
  0
LINE
  5
345
100
AcDbEntity
100
AcDbLine
  8
frets
 62
256
370
-1
  6
BYLAYER
 10
74.3700000000000045
 20
0.0000000000001705
 30
0.0
 11
106.6220000000000141
 21
0.0000000000001705
 31
0.0
  0
LINE
  5
346
100
AcDbEntity
100
AcDbLine
  8
frets
 62
256
370
-1
  6
BYLAYER
 10
137.0629999999999882
 20
-0.0010936993630644
 30
0.0
 11
165.7959999999999923
 21
0.0000000000001705
 31
0.0
  0
LINE
  5
347
100
AcDbEntity
100
AcDbLine
  8
frets
 62
256
370
-1
  6
BYLAYER
 10
192.9159999999999968
 20
0.0000000000001705
 30
0.0
 11
218.51400000000001
 21
0.0000000000001705
 31
0.0
  0
LINE
  5
348
100
AcDbEntity
100
AcDbLine
  8
frets
 62
256
370
-1
  6
BYLAYER
 10
265.4809999999999945
 20
0.0000000000001705
 30
0.0
 11
287.0059999999999718
 21
0.0000000000001705
 31
0.0
  0
LINE
  5
349
100
AcDbEntity
100
AcDbLine
  8
frets
 62
256
370
-1
  6
BYLAYER
 10
307.3229999999999791
 20
0.0000000000001705
 30
0.0
 11
326.5
 21
0.0000000000001705
 31
0.0
  0
DIMENSION
  5
34A
100
AcDbEntity
  8
0
 62
256
370
-1
  6
BYLAYER
100
AcDbDimension
 10
-7.0
 20
19.0
 30
0.0
 11
-9.0
 21
17.0
 31
0.0
 70
129
 71
8
 72
2
 41
1.0
 42
0.0
  1

  3
Standard
100
AcDbAlignedDimension
 13
-6.0
 23
19.0
 33
0.0
 14
-6.0
 24
15.4999999999999964
 34
0.0
1001
ACAD
1000
DSTYLE
1002
{
1070
144
1040
1
1002
}
  0
DIMENSION
  5
34B
100
AcDbEntity
  8
0
 62
256
370
-1
  6
BYLAYER
100
AcDbDimension
 10
-7.0
 20
15.4999999999999964
 30
0.0
 11
-8.875
 21
10.4999999999999982
 31
0.0
 70
1
 71
8
 72
2
 41
1.0
 42
0.0
  1

  3
Standard
100
AcDbAlignedDimension
 13
-6.0
 23
15.4999999999999964
 33
0.0
 14
-6.0
 24
5.4999999999999991
 34
0.0
1001
ACAD
1000
DSTYLE
1002
{
1070
144
1040
1
1002
}
  0
DIMENSION
  5
34C
100
AcDbEntity
  8
0
 62
256
370
-1
  6
BYLAYER
100
AcDbDimension
 10
-7.0
 20
5.4999999999999991
 30
0.0
 11
-8.875
 21
0.4999999999999998
 31
0.0
 70
1
 71
8
 72
2
 41
1.0
 42
0.0
  1

  3
Standard
100
AcDbAlignedDimension
 13
-6.0
 23
5.4999999999999991
 33
0.0
 14
-6.0
 24
-4.5
 34
0.0
1001
ACAD
1000
DSTYLE
1002
{
1070
144
1040
1
1002
}
  0
DIMENSION
  5
34D
100
AcDbEntity
  8
0
 62
256
370
-1
  6
BYLAYER
100
AcDbDimension
 10
-7.0
 20
-4.5
 30
0.0
 11
-9.0
 21
-6.0
 31
0.0
 70
129
 71
8
 72
2
 41
1.0
 42
0.0
  1

  3
Standard
100
AcDbAlignedDimension
 13
-6.0
 23
-4.5
 33
0.0
 14
-6.0
 24
-8.0
 34
0.0
1001
ACAD
1000
DSTYLE
1002
{
1070
144
1040
1
1002
}
  0
DIMENSION
  5
34E
100
AcDbEntity
  8
0
 62
256
370
-1
  6
BYLAYER
100
AcDbDimension
 10
-7.0
 20
-8.0
 30
0.0
 11
-8.875
 21
-13.0
 31
0.0
 70
1
 71
8
 72
2
 41
1.0
 42
0.0
  1

  3
Standard
100
AcDbAlignedDimension
 13
-6.0
 23
-8.0
 33
0.0
 14
-6.0
 24
-18.0
 34
0.0
1001
ACAD
1000
DSTYLE
1002
{
1070
144
1040
1
1002
}
  0
ARC
  5
34F
100
AcDbEntity
  8
0
 62
256
370
-1
  6
BYLAYER
100
AcDbCircle
 10
-2.9627959415110303
 20
108.5889233363112396
 30
0.0
 40
85.6427954142195489
100
AcDbArc
 50
237.3491416064505302
 51
267.9676577549787453
  0
ARC
  5
350
100
AcDbEntity
  8
0
 62
256
370
-1
  6
BYLAYER
100
AcDbCircle
 10
-6.8749999999966223
 20
-56.4062500000144027
 30
0.0
 40
34.4173744504644787
100
AcDbArc
 50
88.5432006356815293
 51
139.3817773134672962
  0
DIMENSION
  5
351
100
AcDbEntity
  8
0
 62
256
370
-1
  6
BYLAYER
100
AcDbDimension
 10
657.0
 20
30.0
 30
0.0
 11
655.125
 21
27.5
 31
0.0
 70
1
 71
8
 72
2
 41
1.0
 42
0.0
  1

  3
Standard
100
AcDbAlignedDimension
 13
650.0
 23
30.0
 33
0.0
 14
650.0
 24
25.0
 34
0.0
1001
ACAD
1000
DSTYLE
1002
{
1070
144
1040
1
1002
}
  0
DIMENSION
  5
352
100
AcDbEntity
  8
0
 62
256
370
-1
  6
BYLAYER
100
AcDbDimension
 10
657.0
 20
-8.0000000000000018
 30
0.0
 11
655.125
 21
-10.5
 31
0.0
 70
1
 71
8
 72
2
 41
1.0
 42
0.0
  1

  3
Standard
100
AcDbAlignedDimension
 13
650.0
 23
-8.0
 33
0.0
 14
650.0
 24
-13.0
 34
0.0
1001
ACAD
1000
DSTYLE
1002
{
1070
144
1040
1
1002
}
  0
DIMENSION
  5
353
100
AcDbEntity
  8
0
 62
256
370
-1
  6
BYLAYER
100
AcDbDimension
 10
657.0
 20
-13.0000000000000018
 30
0.0
 11
655.125
 21
-21.5
 31
0.0
 70
1
 71
8
 72
2
 41
1.0
 42
0.0
  1

  3
Standard
100
AcDbAlignedDimension
 13
650.0
 23
-13.0
 33
0.0
 14
650.0
 24
-30.0
 34
0.0
1001
ACAD
1000
DSTYLE
1002
{
1070
144
1040
1
1002
}
  0
DIMENSION
  5
354
100
AcDbEntity
  8
0
 62
256
370
-1
  6
BYLAYER
100
AcDbDimension
 10
657.0
 20
8.4999999999999982
 30
0.0
 11
655.125
 21
0.2499999999999984
 31
0.0
 70
1
 71
8
 72
2
 41
1.0
 42
0.0
  1

  3
Standard
100
AcDbAlignedDimension
 13
650.0
 23
8.5
 33
0.0
 14
650.0
 24
-8.0
 34
0.0
1001
ACAD
1000
DSTYLE
1002
{
1070
144
1040
1
1002
}
  0
DIMENSION
  5
355
100
AcDbEntity
  8
0
 62
256
370
-1
  6
BYLAYER
100
AcDbDimension
 10
657.0
 20
25.0
 30
0.0
 11
655.125
 21
16.75
 31
0.0
 70
1
 71
8
 72
2
 41
1.0
 42
0.0
  1

  3
Standard
100
AcDbAlignedDimension
 13
650.0
 23
25.0
 33
0.0
 14
650.0
 24
8.5
 34
0.0
1001
ACAD
1000
DSTYLE
1002
{
1070
144
1040
1
1002
}
  0
LINE
  5
356
100
AcDbEntity
100
AcDbLine
  8
0
 62
256
370
-1
  6
BYLAYER
 10
-6.0
 20
-23.0000000000001705
 30
0.0
 11
431.2474139712708165
 21
-30.4498481261009886
 31
0.0
  0
ENDSEC
  0
SECTION
  2
OBJECTS
  0
DICTIONARY
  5
C
100
AcDbDictionary
280
0
281
1
  3
ACAD_GROUP
350
D
  3
ACAD_LAYOUT
350
1A
  3
ACAD_MLINESTYLE
350
17
  3
ACAD_PLOTSETTINGS
350
19
  3
ACAD_PLOTSTYLENAME
350
E
  3
AcDbVariableDictionary
350
357
  3
QCAD_OBJECTS
350
358
  0
DICTIONARY
  5
D
100
AcDbDictionary
280
0
281
1
  0
ACDBDICTIONARYWDFLT
  5
E
100
AcDbDictionary
281
1
  3
Normal
350
F
100
AcDbDictionaryWithDefault
340
F
  0
ACDBPLACEHOLDER
  5
F
  0
DICTIONARY
  5
17
100
AcDbDictionary
280
0
281
1
  3
Standard
350
18
  0
MLINESTYLE
  5
18
100
AcDbMlineStyle
  2
STANDARD
 70
0
  3

 62
256
 51
90.0
 52
90.0
 71
2
 49
0.5
 62
256
  6
BYLAYER
 49
-0.5
 62
256
  6
BYLAYER
  0
DICTIONARY
  5
19
100
AcDbDictionary
280
0
281
1
  0
DICTIONARY
  5
1A
100
AcDbDictionary
281
1
  3
Layout1
350
1E
  3
Layout2
350
26
  3
Model
350
22
  0
LAYOUT
  5
1E
100
AcDbPlotSettings
  1

  2
none_device
  4

  6

 40
0.0
 41
0.0
 42
0.0
 43
0.0
 44
0.0
 45
0.0
 46
0.0
 47
0.0
 48
0.0
 49
0.0
140
0.0
141
0.0
142
1.0
143
1.0
 70
688
 72
0
 73
0
 74
5
  7

 75
16
147
1.0
148
0.0
149
0.0
100
AcDbLayout
  1
Layout1
 70
1
 71
1
 10
0.0
 20
0.0
 11
420.0
 21
297.0
 12
0.0
 22
0.0
 32
0.0
 14
100000000000000000000.0
 24
100000000000000000000.0
 34
100000000000000000000.0
 15
-100000000000000000000.0
 25
-100000000000000000000.0
 35
-100000000000000000000.0
146
0.0
 13
0.0
 23
0.0
 33
0.0
 16
1.0
 26
0.0
 36
0.0
 17
0.0
 27
1.0
 37
0.0
 76
0
330
1B
  0
LAYOUT
  5
22
100
AcDbPlotSettings
  1

  2
none_device
  4

  6

 40
0.0
 41
0.0
 42
0.0
 43
0.0
 44
0.0
 45
0.0
 46
0.0
 47
0.0
 48
0.0
 49
0.0
140
0.0
141
0.0
142
1.0
143
1.0
 70
1712
 72
0
 73
0
 74
0
  7

 75
0
147
1.0
148
0.0
149
0.0
100
AcDbLayout
  1
Model
 70
1
 71
0
 10
0.0
 20
0.0
 11
12.0
 21
9.0
 12
0.0
 22
0.0
 32
0.0
 14
0.0
 24
0.0
 34
0.0
 15
0.0
 25
0.0
 35
0.0
146
0.0
 13
0.0
 23
0.0
 33
0.0
 16
1.0
 26
0.0
 36
0.0
 17
0.0
 27
1.0
 37
0.0
 76
0
330
1F
  0
LAYOUT
  5
26
100
AcDbPlotSettings
  1

  2
none_device
  4

  6

 40
0.0
 41
0.0
 42
0.0
 43
0.0
 44
0.0
 45
0.0
 46
0.0
 47
0.0
 48
0.0
 49
0.0
140
0.0
141
0.0
142
1.0
143
1.0
 70
688
 72
0
 73
0
 74
5
  7

 75
16
147
1.0
148
0.0
149
0.0
100
AcDbLayout
  1
Layout2
 70
1
 71
2
 10
0.0
 20
0.0
 11
12.0
 21
9.0
 12
0.0
 22
0.0
 32
0.0
 14
0.0
 24
0.0
 34
0.0
 15
0.0
 25
0.0
 35
0.0
146
0.0
 13
0.0
 23
0.0
 33
0.0
 16
1.0
 26
0.0
 36
0.0
 17
0.0
 27
1.0
 37
0.0
 76
0
330
23
  0
DICTIONARY
  5
357
100
AcDbDictionary
281
1
  3
DIMASSOC
350
35A
  3
HIDETEXT
350
359
  0
DICTIONARYVAR
  5
359
100
DictionaryVariables
280
0
  1
2
  0
DICTIONARYVAR
  5
35A
100
DictionaryVariables
280
0
  1
1
  0
DICTIONARY
  5
358
100
AcDbDictionary
281
1
  3
Grid/DisplayGrid00
350
35B
  3
Grid/DisplayGrid01
350
35C
  3
Grid/DisplayGrid02
350
35D
  3
Grid/DisplayGrid03
350
35E
  3
Grid/GridSpacingX00
350
35F
  3
Grid/GridSpacingX01
350
360
  3
Grid/GridSpacingX02
350
361
  3
Grid/GridSpacingX03
350
362
  3
Grid/GridSpacingY00
350
363
  3
Grid/GridSpacingY01
350
364
  3
Grid/GridSpacingY02
350
365
  3
Grid/GridSpacingY03
350
366
  3
Grid/IsometricGrid00
350
367
  3
Grid/IsometricGrid01
350
368
  3
Grid/IsometricGrid02
350
369
  3
Grid/IsometricGrid03
350
36A
  3
Grid/IsometricProjection00
350
36B
  3
Grid/IsometricProjection01
350
36C
  3
Grid/IsometricProjection02
350
36D
  3
Grid/IsometricProjection03
350
36E
  3
Grid/MetaGridSpacingX00
350
36F
  3
Grid/MetaGridSpacingX01
350
370
  3
Grid/MetaGridSpacingX02
350
371
  3
Grid/MetaGridSpacingX03
350
372
  3
Grid/MetaGridSpacingY00
350
373
  3
Grid/MetaGridSpacingY01
350
374
  3
Grid/MetaGridSpacingY02
350
375
  3
Grid/MetaGridSpacingY03
350
376
  3
MultiPageSettings/Columns
350
377
  3
MultiPageSettings/GlueMarginsBottom
350
378
  3
MultiPageSettings/GlueMarginsLeft
350
379
  3
MultiPageSettings/GlueMarginsRight
350
37A
  3
MultiPageSettings/GlueMarginsTop
350
37B
  3
MultiPageSettings/PrintCropMarks
350
37C
  3
MultiPageSettings/Rows
350
37D
  3
PageSettings/OffsetX
350
37E
  3
PageSettings/OffsetY
350
37F
  3
PageSettings/PageOrientation
350
380
  3
PageSettings/PaperHeight
350
381
  3
PageSettings/PaperWidth
350
382
  3
PageSettings/Scale
350
383
  3
PageSettings/ShowPaperBorders
350
384
  3
UnitSettings/PaperUnit
350
385
  0
XRECORD
  5
35B
330
358
100
AcDbXrecord
280
1
290
1
  0
XRECORD
  5
35C
330
358
100
AcDbXrecord
280
1
290
1
  0
XRECORD
  5
35D
330
358
100
AcDbXrecord
280
1
290
1
  0
XRECORD
  5
35E
330
358
100
AcDbXrecord
280
1
290
1
  0
XRECORD
  5
35F
330
358
100
AcDbXrecord
280
1
1000
auto
  0
XRECORD
  5
360
330
358
100
AcDbXrecord
280
1
1000
auto
  0
XRECORD
  5
361
330
358
100
AcDbXrecord
280
1
1000
auto
  0
XRECORD
  5
362
330
358
100
AcDbXrecord
280
1
1000
auto
  0
XRECORD
  5
363
330
358
100
AcDbXrecord
280
1
1000
auto
  0
XRECORD
  5
364
330
358
100
AcDbXrecord
280
1
1000
auto
  0
XRECORD
  5
365
330
358
100
AcDbXrecord
280
1
1000
auto
  0
XRECORD
  5
366
330
358
100
AcDbXrecord
280
1
1000
auto
  0
XRECORD
  5
367
330
358
100
AcDbXrecord
280
1
290
0
  0
XRECORD
  5
368
330
358
100
AcDbXrecord
280
1
290
0
  0
XRECORD
  5
369
330
358
100
AcDbXrecord
280
1
290
0
  0
XRECORD
  5
36A
330
358
100
AcDbXrecord
280
1
290
0
  0
XRECORD
  5
36B
330
358
100
AcDbXrecord
280
1
 90
0
  0
XRECORD
  5
36C
330
358
100
AcDbXrecord
280
1
 90
0
  0
XRECORD
  5
36D
330
358
100
AcDbXrecord
280
1
 90
0
  0
XRECORD
  5
36E
330
358
100
AcDbXrecord
280
1
 90
0
  0
XRECORD
  5
36F
330
358
100
AcDbXrecord
280
1
1000
auto
  0
XRECORD
  5
370
330
358
100
AcDbXrecord
280
1
1000
auto
  0
XRECORD
  5
371
330
358
100
AcDbXrecord
280
1
1000
auto
  0
XRECORD
  5
372
330
358
100
AcDbXrecord
280
1
1000
auto
  0
XRECORD
  5
373
330
358
100
AcDbXrecord
280
1
1000
auto
  0
XRECORD
  5
374
330
358
100
AcDbXrecord
280
1
1000
auto
  0
XRECORD
  5
375
330
358
100
AcDbXrecord
280
1
1000
auto
  0
XRECORD
  5
376
330
358
100
AcDbXrecord
280
1
1000
auto
  0
XRECORD
  5
377
330
358
100
AcDbXrecord
280
1
 90
1
  0
XRECORD
  5
378
330
358
100
AcDbXrecord
280
1
 40
10.0
  0
XRECORD
  5
379
330
358
100
AcDbXrecord
280
1
 40
10.0
  0
XRECORD
  5
37A
330
358
100
AcDbXrecord
280
1
 40
10.0
  0
XRECORD
  5
37B
330
358
100
AcDbXrecord
280
1
 40
10.0
  0
XRECORD
  5
37C
330
358
100
AcDbXrecord
280
1
290
0
  0
XRECORD
  5
37D
330
358
100
AcDbXrecord
280
1
 90
1
  0
XRECORD
  5
37E
330
358
100
AcDbXrecord
280
1
 40
889.7815855015613806
  0
XRECORD
  5
37F
330
358
100
AcDbXrecord
280
1
 40
-326.6005415542127253
  0
XRECORD
  5
380
330
358
100
AcDbXrecord
280
1
1000
Landscape
  0
XRECORD
  5
381
330
358
100
AcDbXrecord
280
1
 40
279.3999999999999773
  0
XRECORD
  5
382
330
358
100
AcDbXrecord
280
1
 40
215.9000000000000057
  0
XRECORD
  5
383
330
358
100
AcDbXrecord
280
1
1000
1:1
  0
XRECORD
  5
384
330
358
100
AcDbXrecord
280
1
290
1
  0
XRECORD
  5
385
330
358
100
AcDbXrecord
280
1
 90
4
  0
ENDSEC
  0
EOF
