999
dxflib 3.3.4.0
  0
SECTION
  2
HEADER
  9
$ACADVER
  1
AC1015
  9
$HANDSEED
  5
FFFF
  9
$DIMADEC
 70
0
  9
$DIMASZ
 40
2.5
  9
$DIMAUNIT
 70
0
  9
$DIMAZIN
 70
2
  9
$DIMDEC
 70
4
  9
$DIMEXE
 40
1.25
  9
$DIMEXO
 40
0.625
  9
$DIMGAP
 40
0.625
  9
$DIMLUNIT
 70
2
  9
$DIMTSZ
 40
0.0
  9
$DIMTXT
 40
2.5
  9
$DIMZIN
 70
8
  9
$DWGCODEPAGE
  3
ANSI_1252
  9
$INSUNITS
 70
4
  9
$LTSCALE
 40
1.0
  0
ENDSEC
  0
SECTION
  2
TABLES
  0
TABLE
  2
VPORT
  5
8
100
AcDbSymbolTable
 70
1
  0
VPORT
  5
30
100
AcDbSymbolTableRecord
100
AcDbViewportTableRecord
  2
*Active
 70
0
 10
0.0
 20
0.0
 11
1.0
 21
1.0
 12
286.3055555555554861
 22
148.5
 13
0.0
 23
0.0
 14
10.0
 24
10.0
 15
10.0
 25
10.0
 16
0.0
 26
0.0
 36
1.0
 17
0.0
 27
0.0
 37
0.0
 40
297.0
 41
1.92798353909465
 42
50.0
 43
0.0
 44
0.0
 50
0.0
 51
0.0
 71
0
 72
100
 73
1
 74
3
 75
1
 76
1
 77
0
 78
0
281
0
 65
1
110
0.0
120
0.0
130
0.0
111
1.0
121
0.0
131
0.0
112
0.0
122
1.0
132
0.0
 79
0
146
0.0
  0
ENDTAB
  0
TABLE
  2
LTYPE
  5
5
100
AcDbSymbolTable
 70
21
  0
LTYPE
  5
16
100
AcDbSymbolTableRecord
100
AcDbLinetypeTableRecord
  2
CONTINUOUS
 70
0
  3
Solid line
 72
65
 73
0
 40
0.0
  0
LTYPE
  5
31
100
AcDbSymbolTableRecord
100
AcDbLinetypeTableRecord
  2
CENTER2
 70
0
  3
Center (.5x) ___ _ ___ _ ___ _ ___ _ ___ _ ___
 72
65
 73
4
 40
28.5749999999999993
 49
19.0500000000000007
 74
0
 49
-3.1749999999999998
 74
0
 49
3.1749999999999998
 74
0
 49
-3.1749999999999998
 74
0
  0
LTYPE
  5
32
100
AcDbSymbolTableRecord
100
AcDbLinetypeTableRecord
  2
DIVIDEX2
 70
0
  3
Divide (2x) ________  .  .  ________  .  .  _
 72
65
 73
6
 40
63.5
 49
25.3999999999999986
 74
0
 49
-12.6999999999999993
 74
0
 49
0.0
 74
0
 49
-12.6999999999999993
 74
0
 49
0.0
 74
0
 49
-12.6999999999999993
 74
0
  0
LTYPE
  5
33
100
AcDbSymbolTableRecord
100
AcDbLinetypeTableRecord
  2
DOT2
 70
0
  3
Dot (.5x) .....................................
 72
65
 73
2
 40
3.1749999999999998
 49
0.0
 74
0
 49
-3.1749999999999998
 74
0
  0
LTYPE
  5
34
100
AcDbSymbolTableRecord
100
AcDbLinetypeTableRecord
  2
DASHDOT2
 70
0
  3
Dash dot (.5x) _._._._._._._._._._._._._._._.
 72
65
 73
4
 40
12.6999999999999993
 49
6.3499999999999996
 74
0
 49
-3.1749999999999998
 74
0
 49
0.0
 74
0
 49
-3.1749999999999998
 74
0
  0
LTYPE
  5
35
100
AcDbSymbolTableRecord
100
AcDbLinetypeTableRecord
  2
DIVIDE
 70
0
  3
Divide ____ . . ____ . . ____ . . ____ . . ____
 72
65
 73
6
 40
31.75
 49
12.6999999999999993
 74
0
 49
-6.3499999999999996
 74
0
 49
0.0
 74
0
 49
-6.3499999999999996
 74
0
 49
0.0
 74
0
 49
-6.3499999999999996
 74
0
  0
LTYPE
  5
36
100
AcDbSymbolTableRecord
100
AcDbLinetypeTableRecord
  2
DASHDOT
 70
0
  3
Dash dot __ . __ . __ . __ . __ . __ . __ . __
 72
65
 73
4
 40
25.3999999999999986
 49
12.6999999999999993
 74
0
 49
-6.3499999999999996
 74
0
 49
0.0
 74
0
 49
-6.3499999999999996
 74
0
  0
LTYPE
  5
37
100
AcDbSymbolTableRecord
100
AcDbLinetypeTableRecord
  2
BORDER
 70
0
  3
Border __ __ . __ __ . __ __ . __ __ . __ __ .
 72
65
 73
6
 40
44.4500000000000028
 49
12.6999999999999993
 74
0
 49
-6.3499999999999996
 74
0
 49
12.6999999999999993
 74
0
 49
-6.3499999999999996
 74
0
 49
0.0
 74
0
 49
-6.3499999999999996
 74
0
  0
LTYPE
  5
38
100
AcDbSymbolTableRecord
100
AcDbLinetypeTableRecord
  2
DASHDOTX2
 70
0
  3
Dash dot (2x) ____  .  ____  .  ____  .  ___
 72
65
 73
4
 40
50.7999999999999972
 49
25.3999999999999986
 74
0
 49
-12.6999999999999993
 74
0
 49
0.0
 74
0
 49
-12.6999999999999993
 74
0
  0
LTYPE
  5
39
100
AcDbSymbolTableRecord
100
AcDbLinetypeTableRecord
  2
CENTERX2
 70
0
  3
Center (2x) ________  __  ________  __  _____
 72
65
 73
4
 40
101.5999999999999943
 49
63.5
 74
0
 49
-12.6999999999999993
 74
0
 49
12.6999999999999993
 74
0
 49
-12.6999999999999993
 74
0
  0
LTYPE
  5
3A
100
AcDbSymbolTableRecord
100
AcDbLinetypeTableRecord
  2
BORDER2
 70
0
  3
Border (.5x) __.__.__.__.__.__.__.__.__.__.__.
 72
65
 73
6
 40
22.2250000000000014
 49
6.3499999999999996
 74
0
 49
-3.1749999999999998
 74
0
 49
6.3499999999999996
 74
0
 49
-3.1749999999999998
 74
0
 49
0.0
 74
0
 49
-3.1749999999999998
 74
0
  0
LTYPE
  5
3B
100
AcDbSymbolTableRecord
100
AcDbLinetypeTableRecord
  2
BORDERX2
 70
0
  3
Border (2x) ____  ____  .  ____  ____  .  ___
 72
65
 73
6
 40
88.9000000000000057
 49
25.3999999999999986
 74
0
 49
-12.6999999999999993
 74
0
 49
25.3999999999999986
 74
0
 49
-12.6999999999999993
 74
0
 49
0.0
 74
0
 49
-12.6999999999999993
 74
0
  0
LTYPE
  5
14
100
AcDbSymbolTableRecord
100
AcDbLinetypeTableRecord
  2
BYBLOCK
 70
0
  3

 72
65
 73
0
 40
0.0
  0
LTYPE
  5
15
100
AcDbSymbolTableRecord
100
AcDbLinetypeTableRecord
  2
BYLAYER
 70
0
  3

 72
65
 73
0
 40
0.0
  0
LTYPE
  5
3C
100
AcDbSymbolTableRecord
100
AcDbLinetypeTableRecord
  2
DASHED2
 70
0
  3
Dashed (.5x) _ _ _ _ _ _ _ _ _ _ _ _ _ _ _ _ _
 72
65
 73
2
 40
9.5250000000000004
 49
6.3499999999999996
 74
0
 49
-3.1749999999999998
 74
0
  0
LTYPE
  5
3D
100
AcDbSymbolTableRecord
100
AcDbLinetypeTableRecord
  2
CENTER
 70
0
  3
Center ____ _ ____ _ ____ _ ____ _ ____ _ ____
 72
65
 73
4
 40
50.7999999999999972
 49
31.75
 74
0
 49
-6.3499999999999996
 74
0
 49
6.3499999999999996
 74
0
 49
-6.3499999999999996
 74
0
  0
LTYPE
  5
3E
100
AcDbSymbolTableRecord
100
AcDbLinetypeTableRecord
  2
DIVIDE2
 70
0
  3
Divide (.5x) __..__..__..__..__..__..__..__.._
 72
65
 73
6
 40
15.875
 49
6.3499999999999996
 74
0
 49
-3.1749999999999998
 74
0
 49
0.0
 74
0
 49
-3.1749999999999998
 74
0
 49
0.0
 74
0
 49
-3.1749999999999998
 74
0
  0
LTYPE
  5
3F
100
AcDbSymbolTableRecord
100
AcDbLinetypeTableRecord
  2
DASHED
 70
0
  3
Dashed __ __ __ __ __ __ __ __ __ __ __ __ __ _
 72
65
 73
2
 40
19.0500000000000007
 49
12.6999999999999993
 74
0
 49
-6.3499999999999996
 74
0
  0
LTYPE
  5
40
100
AcDbSymbolTableRecord
100
AcDbLinetypeTableRecord
  2
DOTX2
 70
0
  3
Dot (2x) .  .  .  .  .  .  .  .  .  .  .  .  .
 72
65
 73
2
 40
12.6999999999999993
 49
0.0
 74
0
 49
-12.6999999999999993
 74
0
  0
LTYPE
  5
41
100
AcDbSymbolTableRecord
100
AcDbLinetypeTableRecord
  2
DASHEDX2
 70
0
  3
Dashed (2x) ____  ____  ____  ____  ____  ___
 72
65
 73
2
 40
38.1000000000000014
 49
25.3999999999999986
 74
0
 49
-12.6999999999999993
 74
0
  0
LTYPE
  5
42
100
AcDbSymbolTableRecord
100
AcDbLinetypeTableRecord
  2
DOT
 70
0
  3
Dot . . . . . . . . . . . . . . . . . . . . . .
 72
65
 73
2
 40
6.3499999999999996
 49
0.0
 74
0
 49
-6.3499999999999996
 74
0
  0
ENDTAB
  0
TABLE
  2
LAYER
  5
2
100
AcDbSymbolTable
 70
10
  0
LAYER
  5
43
100
AcDbSymbolTableRecord
100
AcDbLayerTableRecord
  2
template_dowel
 70
1
 62
-14
420
8388608
  6
CONTINUOUS
370
25
390
F
  0
LAYER
  5
44
100
AcDbSymbolTableRecord
100
AcDbLayerTableRecord
  2
frets
 70
0
 62
1
420
16711680
  6
CONTINUOUS
370
25
390
F
  0
LAYER
  5
45
100
AcDbSymbolTableRecord
100
AcDbLayerTableRecord
  2
guides_dimensions
 70
1
 62
-5
420
255
  6
DASHED
370
25
390
F
  0
LAYER
  5
46
100
AcDbSymbolTableRecord
100
AcDbLayerTableRecord
  2
printing_alignment_guides
 70
1
 62
-252
420
10526884
  6
CONTINUOUS
370
25
390
F
  0
LAYER
  5
47
100
AcDbSymbolTableRecord
100
AcDbLayerTableRecord
  2
side_bracing
 70
0
 62
214
420
8388736
  6
CONTINUOUS
370
25
390
F
  0
LAYER
  5
48
100
AcDbSymbolTableRecord
100
AcDbLayerTableRecord
  2
rosette
 70
0
 62
7
420
0
  6
CONTINUOUS
370
25
390
F
  0
LAYER
  5
49
100
AcDbSymbolTableRecord
100
AcDbLayerTableRecord
  2
top_bracing
 70
0
 62
94
420
32768
  6
CONTINUOUS
370
25
390
F
  0
LAYER
  5
10
100
AcDbSymbolTableRecord
100
AcDbLayerTableRecord
  2
0
 70
0
 62
7
420
0
  6
CONTINUOUS
370
25
390
F
  0
LAYER
  5
4A
100
AcDbSymbolTableRecord
100
AcDbLayerTableRecord
  2
strings
 70
0
 62
7
420
0
  6
CONTINUOUS
370
25
390
F
  0
LAYER
  5
4B
100
AcDbSymbolTableRecord
100
AcDbLayerTableRecord
  2
back_bracing
 70
0
 62
54
420
8421376
  6
CONTINUOUS
370
25
390
F
  0
ENDTAB
  0
TABLE
  2
STYLE
  5
3
100
AcDbSymbolTable
 70
12
  0
STYLE
  5
4C
100
AcDbSymbolTableRecord
100
AcDbTextStyleTableRecord
  2
Standard
 70
0
 40
0.0
 41
1.0
 50
0.0
 71
0
 42
2.5
  3

  4

1001
ACAD
1000
txt
1071
0
  0
STYLE
  5
4D
100
AcDbSymbolTableRecord
100
AcDbTextStyleTableRecord
  2
textstyle0
 70
0
 40
0.0
 41
1.0
 50
0.0
 71
0
 42
2.5
  3

  4

1001
ACAD
1000
Arial
1071
0
  0
STYLE
  5
4E
100
AcDbSymbolTableRecord
100
AcDbTextStyleTableRecord
  2
textstyle1
 70
0
 40
0.0
 41
1.0
 50
0.0
 71
0
 42
2.5
  3

  4

1001
ACAD
1000
Arial
1071
0
  0
STYLE
  5
4F
100
AcDbSymbolTableRecord
100
AcDbTextStyleTableRecord
  2
textstyle2
 70
0
 40
0.0
 41
1.0
 50
0.0
 71
0
 42
2.5
  3

  4

1001
ACAD
1000
Arial
1071
0
  0
STYLE
  5
50
100
AcDbSymbolTableRecord
100
AcDbTextStyleTableRecord
  2
textstyle3
 70
0
 40
0.0
 41
1.0
 50
0.0
 71
0
 42
2.5
  3

  4

1001
ACAD
1000
Arial
1071
0
  0
STYLE
  5
51
100
AcDbSymbolTableRecord
100
AcDbTextStyleTableRecord
  2
textstyle4
 70
0
 40
0.0
 41
1.0
 50
0.0
 71
0
 42
2.5
  3

  4

1001
ACAD
1000
Arial
1071
0
  0
STYLE
  5
52
100
AcDbSymbolTableRecord
100
AcDbTextStyleTableRecord
  2
textstyle5
 70
0
 40
0.0
 41
1.0
 50
0.0
 71
0
 42
2.5
  3

  4

1001
ACAD
1000
Arial
1071
0
  0
STYLE
  5
53
100
AcDbSymbolTableRecord
100
AcDbTextStyleTableRecord
  2
textstyle6
 70
0
 40
0.0
 41
1.0
 50
0.0
 71
0
 42
2.5
  3

  4

1001
ACAD
1000
Arial
1071
0
  0
STYLE
  5
54
100
AcDbSymbolTableRecord
100
AcDbTextStyleTableRecord
  2
textstyle7
 70
0
 40
0.0
 41
1.0
 50
0.0
 71
0
 42
2.5
  3

  4

1001
ACAD
1000
Arial
1071
0
  0
STYLE
  5
55
100
AcDbSymbolTableRecord
100
AcDbTextStyleTableRecord
  2
textstyle8
 70
0
 40
0.0
 41
1.0
 50
0.0
 71
0
 42
2.5
  3

  4

1001
ACAD
1000
Arial
1071
0
  0
STYLE
  5
56
100
AcDbSymbolTableRecord
100
AcDbTextStyleTableRecord
  2
textstyle9
 70
0
 40
0.0
 41
1.0
 50
0.0
 71
0
 42
2.5
  3

  4

1001
ACAD
1000
Arial
1071
0
  0
STYLE
  5
57
100
AcDbSymbolTableRecord
100
AcDbTextStyleTableRecord
  2
textstyle10
 70
0
 40
0.0
 41
1.0
 50
0.0
 71
0
 42
2.5
  3

  4

1001
ACAD
1000
Arial
1071
0
  0
ENDTAB
  0
TABLE
  2
VIEW
  5
6
100
AcDbSymbolTable
 70
0
  0
ENDTAB
  0
TABLE
  2
UCS
  5
7
100
AcDbSymbolTable
 70
0
  0
ENDTAB
  0
TABLE
  2
APPID
  5
9
100
AcDbSymbolTable
 70
1
  0
APPID
  5
12
100
AcDbSymbolTableRecord
100
AcDbRegAppTableRecord
  2
ACAD
 70
0
  0
APPID
  5
58
100
AcDbSymbolTableRecord
100
AcDbRegAppTableRecord
  2
QCAD
 70
0
  0
ENDTAB
  0
TABLE
  2
DIMSTYLE
  5
A
100
AcDbSymbolTable
 70
1
100
AcDbDimStyleTable
 71
0
  0
DIMSTYLE
105
27
100
AcDbSymbolTableRecord
100
AcDbDimStyleTableRecord
  2
Standard
 41
2.5
 42
0.625
 43
3.75
 44
1.25
 70
0
 73
0
 74
0
 77
1
 78
8
140
2.5
141
2.5
143
0.03937007874016
147
0.625
171
3
172
1
271
2
272
2
274
3
278
44
283
0
284
8
340
4C
  0
ENDTAB
  0
TABLE
  2
BLOCK_RECORD
  5
1
100
AcDbSymbolTable
 70
1
  0
BLOCK_RECORD
  5
1F
100
AcDbSymbolTableRecord
100
AcDbBlockTableRecord
  2
*Model_Space
340
22
  0
BLOCK_RECORD
  5
1B
100
AcDbSymbolTableRecord
100
AcDbBlockTableRecord
  2
*Paper_Space
340
1E
  0
BLOCK_RECORD
  5
23
100
AcDbSymbolTableRecord
100
AcDbBlockTableRecord
  2
*Paper_Space0
340
26
  0
BLOCK_RECORD
  5
59
100
AcDbSymbolTableRecord
100
AcDbBlockTableRecord
  2
tuner
340
0
  0
BLOCK_RECORD
  5
5A
100
AcDbSymbolTableRecord
100
AcDbBlockTableRecord
  2
classical_tuners
340
0
  0
ENDTAB
  0
ENDSEC
  0
SECTION
  2
BLOCKS
  0
BLOCK
  5
20
100
AcDbEntity
  8
0
100
AcDbBlockBegin
  2
*Model_Space
 70
0
 10
0.0
 20
0.0
 30
0.0
  3
*Model_Space
  1

  0
ENDBLK
  5
21
100
AcDbEntity
  8
0
100
AcDbBlockEnd
  0
BLOCK
  5
1C
100
AcDbEntity
 67
1
  8
0
100
AcDbBlockBegin
  2
*Paper_Space
 70
0
 10
0.0
 20
0.0
 30
0.0
  3
*Paper_Space
  1

  0
ENDBLK
  5
1D
100
AcDbEntity
 67
1
  8
0
100
AcDbBlockEnd
  0
BLOCK
  5
24
100
AcDbEntity
  8
0
100
AcDbBlockBegin
  2
*Paper_Space0
 70
0
 10
0.0
 20
0.0
 30
0.0
  3
*Paper_Space0
  1

  0
ENDBLK
  5
25
100
AcDbEntity
  8
0
100
AcDbBlockEnd
  0
BLOCK
  5
5B
100
AcDbEntity
  8
0
100
AcDbBlockBegin
  2
tuner
 70
0
 10
0.0
 20
0.0
 30
0.0
  3
tuner
  1

  0
LINE
  5
5C
100
AcDbEntity
100
AcDbLine
  8
0
 62
256
370
-1
  6
BYLAYER
 10
-19.0
 20
-27.0
 30
0.0
 11
3.0
 21
-27.0
 31
0.0
  0
LINE
  5
5D
100
AcDbEntity
100
AcDbLine
  8
0
 62
256
370
-1
  6
BYLAYER
 10
3.0
 20
-27.0
 30
0.0
 11
3.0
 21
-17.0
 31
0.0
  0
LINE
  5
5E
100
AcDbEntity
100
AcDbLine
  8
0
 62
256
370
-1
  6
BYLAYER
 10
3.0
 20
-17.0
 30
0.0
 11
-19.0
 21
-17.0
 31
0.0
  0
LINE
  5
5F
100
AcDbEntity
100
AcDbLine
  8
0
 62
256
370
-1
  6
BYLAYER
 10
-19.0
 20
-17.0
 30
0.0
 11
-19.0
 21
-27.0
 31
0.0
  0
LINE
  5
60
100
AcDbEntity
100
AcDbLine
  8
0
 62
256
370
-1
  6
BYLAYER
 10
-11.0
 20
-17.0
 30
0.0
 11
-11.0
 21
-7.5
 31
0.0
  0
LINE
  5
61
100
AcDbEntity
100
AcDbLine
  8
0
 62
256
370
-1
  6
BYLAYER
 10
-7.0
 20
-17.0
 30
0.0
 11
-7.0
 21
-7.5
 31
0.0
  0
LINE
  5
62
100
AcDbEntity
100
AcDbLine
  8
0
 62
256
370
-1
  6
BYLAYER
 10
11.0
 20
-3.0
 30
0.0
 11
4.0
 21
8.0
 31
0.0
  0
LINE
  5
63
100
AcDbEntity
100
AcDbLine
  8
0
 62
256
370
-1
  6
BYLAYER
 10
-12.0
 20
-7.5
 30
0.0
 11
-19.0
 21
3.5
 31
0.0
  0
LINE
  5
64
100
AcDbEntity
100
AcDbLine
  8
0
 62
256
370
-1
  6
BYLAYER
 10
-12.0
 20
-7.5
 30
0.0
 11
11.0
 21
-7.5
 31
0.0
  0
LINE
  5
65
100
AcDbEntity
100
AcDbLine
  8
0
 62
256
370
-1
  6
BYLAYER
 10
11.0
 20
-7.5
 30
0.0
 11
11.0
 21
-3.0
 31
0.0
  0
LINE
  5
66
100
AcDbEntity
100
AcDbLine
  8
0
 62
256
370
-1
  6
BYLAYER
 10
4.0
 20
8.0
 30
0.0
 11
-19.0
 21
8.0
 31
0.0
  0
LINE
  5
67
100
AcDbEntity
100
AcDbLine
  8
0
 62
256
370
-1
  6
BYLAYER
 10
-19.0
 20
8.0
 30
0.0
 11
-19.0
 21
3.5
 31
0.0
  0
CIRCLE
  5
68
100
AcDbEntity
100
AcDbCircle
  8
0
 62
256
370
-1
  6
BYLAYER
 10
0.0
 20
0.0
 30
0.0
 40
2.0
  0
LINE
  5
69
100
AcDbEntity
100
AcDbLine
  8
0
 62
256
370
-1
  6
BYLAYER
 10
-19.0
 20
-27.0
 30
0.0
 11
3.0
 21
-27.0
 31
0.0
  0
LINE
  5
6A
100
AcDbEntity
100
AcDbLine
  8
0
 62
256
370
-1
  6
BYLAYER
 10
3.0
 20
-27.0
 30
0.0
 11
3.0
 21
-17.0
 31
0.0
  0
LINE
  5
6B
100
AcDbEntity
100
AcDbLine
  8
0
 62
256
370
-1
  6
BYLAYER
 10
3.0
 20
-17.0
 30
0.0
 11
-19.0
 21
-17.0
 31
0.0
  0
LINE
  5
6C
100
AcDbEntity
100
AcDbLine
  8
0
 62
256
370
-1
  6
BYLAYER
 10
-19.0
 20
-17.0
 30
0.0
 11
-19.0
 21
-27.0
 31
0.0
  0
LINE
  5
6D
100
AcDbEntity
100
AcDbLine
  8
0
 62
256
370
-1
  6
BYLAYER
 10
-11.0
 20
-17.0
 30
0.0
 11
-11.0
 21
-7.5
 31
0.0
  0
LINE
  5
6E
100
AcDbEntity
100
AcDbLine
  8
0
 62
256
370
-1
  6
BYLAYER
 10
-7.0
 20
-17.0
 30
0.0
 11
-7.0
 21
-7.5
 31
0.0
  0
LINE
  5
6F
100
AcDbEntity
100
AcDbLine
  8
0
 62
256
370
-1
  6
BYLAYER
 10
11.0
 20
-3.0
 30
0.0
 11
4.0
 21
8.0
 31
0.0
  0
LINE
  5
70
100
AcDbEntity
100
AcDbLine
  8
0
 62
256
370
-1
  6
BYLAYER
 10
-12.0
 20
-7.5
 30
0.0
 11
-19.0
 21
3.5
 31
0.0
  0
LINE
  5
71
100
AcDbEntity
100
AcDbLine
  8
0
 62
256
370
-1
  6
BYLAYER
 10
-12.0
 20
-7.5
 30
0.0
 11
11.0
 21
-7.5
 31
0.0
  0
LINE
  5
72
100
AcDbEntity
100
AcDbLine
  8
0
 62
256
370
-1
  6
BYLAYER
 10
11.0
 20
-7.5
 30
0.0
 11
11.0
 21
-3.0
 31
0.0
  0
LINE
  5
73
100
AcDbEntity
100
AcDbLine
  8
0
 62
256
370
-1
  6
BYLAYER
 10
4.0
 20
8.0
 30
0.0
 11
-19.0
 21
8.0
 31
0.0
  0
LINE
  5
74
100
AcDbEntity
100
AcDbLine
  8
0
 62
256
370
-1
  6
BYLAYER
 10
-19.0
 20
8.0
 30
0.0
 11
-19.0
 21
3.5
 31
0.0
  0
CIRCLE
  5
75
100
AcDbEntity
100
AcDbCircle
  8
0
 62
256
370
-1
  6
BYLAYER
 10
0.0
 20
0.0
 30
0.0
 40
2.0
  0
LINE
  5
76
100
AcDbEntity
100
AcDbLine
  8
0
 62
256
370
-1
  6
BYLAYER
 10
-19.0
 20
-27.0
 30
0.0
 11
3.0
 21
-27.0
 31
0.0
  0
LINE
  5
77
100
AcDbEntity
100
AcDbLine
  8
0
 62
256
370
-1
  6
BYLAYER
 10
3.0
 20
-27.0
 30
0.0
 11
3.0
 21
-17.0
 31
0.0
  0
LINE
  5
78
100
AcDbEntity
100
AcDbLine
  8
0
 62
256
370
-1
  6
BYLAYER
 10
3.0
 20
-17.0
 30
0.0
 11
-19.0
 21
-17.0
 31
0.0
  0
LINE
  5
79
100
AcDbEntity
100
AcDbLine
  8
0
 62
256
370
-1
  6
BYLAYER
 10
-19.0
 20
-17.0
 30
0.0
 11
-19.0
 21
-27.0
 31
0.0
  0
LINE
  5
7A
100
AcDbEntity
100
AcDbLine
  8
0
 62
256
370
-1
  6
BYLAYER
 10
-11.0
 20
-17.0
 30
0.0
 11
-11.0
 21
-7.5
 31
0.0
  0
LINE
  5
7B
100
AcDbEntity
100
AcDbLine
  8
0
 62
256
370
-1
  6
BYLAYER
 10
-7.0
 20
-17.0
 30
0.0
 11
-7.0
 21
-7.5
 31
0.0
  0
LINE
  5
7C
100
AcDbEntity
100
AcDbLine
  8
0
 62
256
370
-1
  6
BYLAYER
 10
11.0
 20
-3.0
 30
0.0
 11
4.0
 21
8.0
 31
0.0
  0
LINE
  5
7D
100
AcDbEntity
100
AcDbLine
  8
0
 62
256
370
-1
  6
BYLAYER
 10
-12.0
 20
-7.5
 30
0.0
 11
-19.0
 21
3.5
 31
0.0
  0
LINE
  5
7E
100
AcDbEntity
100
AcDbLine
  8
0
 62
256
370
-1
  6
BYLAYER
 10
-12.0
 20
-7.5
 30
0.0
 11
11.0
 21
-7.5
 31
0.0
  0
LINE
  5
7F
100
AcDbEntity
100
AcDbLine
  8
0
 62
256
370
-1
  6
BYLAYER
 10
11.0
 20
-7.5
 30
0.0
 11
11.0
 21
-3.0
 31
0.0
  0
LINE
  5
80
100
AcDbEntity
100
AcDbLine
  8
0
 62
256
370
-1
  6
BYLAYER
 10
4.0
 20
8.0
 30
0.0
 11
-19.0
 21
8.0
 31
0.0
  0
LINE
  5
81
100
AcDbEntity
100
AcDbLine
  8
0
 62
256
370
-1
  6
BYLAYER
 10
-19.0
 20
8.0
 30
0.0
 11
-19.0
 21
3.5
 31
0.0
  0
CIRCLE
  5
82
100
AcDbEntity
100
AcDbCircle
  8
0
 62
256
370
-1
  6
BYLAYER
 10
0.0
 20
0.0
 30
0.0
 40
2.0
  0
LINE
  5
83
100
AcDbEntity
100
AcDbLine
  8
0
 62
256
370
-1
  6
BYLAYER
 10
-19.0
 20
-27.0
 30
0.0
 11
3.0
 21
-27.0
 31
0.0
  0
LINE
  5
84
100
AcDbEntity
100
AcDbLine
  8
0
 62
256
370
-1
  6
BYLAYER
 10
3.0
 20
-27.0
 30
0.0
 11
3.0
 21
-17.0
 31
0.0
  0
LINE
  5
85
100
AcDbEntity
100
AcDbLine
  8
0
 62
256
370
-1
  6
BYLAYER
 10
3.0
 20
-17.0
 30
0.0
 11
-19.0
 21
-17.0
 31
0.0
  0
LINE
  5
86
100
AcDbEntity
100
AcDbLine
  8
0
 62
256
370
-1
  6
BYLAYER
 10
-19.0
 20
-17.0
 30
0.0
 11
-19.0
 21
-27.0
 31
0.0
  0
LINE
  5
87
100
AcDbEntity
100
AcDbLine
  8
0
 62
256
370
-1
  6
BYLAYER
 10
-11.0
 20
-17.0
 30
0.0
 11
-11.0
 21
-7.5
 31
0.0
  0
LINE
  5
88
100
AcDbEntity
100
AcDbLine
  8
0
 62
256
370
-1
  6
BYLAYER
 10
-7.0
 20
-17.0
 30
0.0
 11
-7.0
 21
-7.5
 31
0.0
  0
LINE
  5
89
100
AcDbEntity
100
AcDbLine
  8
0
 62
256
370
-1
  6
BYLAYER
 10
11.0
 20
-3.0
 30
0.0
 11
4.0
 21
8.0
 31
0.0
  0
LINE
  5
8A
100
AcDbEntity
100
AcDbLine
  8
0
 62
256
370
-1
  6
BYLAYER
 10
-12.0
 20
-7.5
 30
0.0
 11
-19.0
 21
3.5
 31
0.0
  0
LINE
  5
8B
100
AcDbEntity
100
AcDbLine
  8
0
 62
256
370
-1
  6
BYLAYER
 10
-12.0
 20
-7.5
 30
0.0
 11
11.0
 21
-7.5
 31
0.0
  0
LINE
  5
8C
100
AcDbEntity
100
AcDbLine
  8
0
 62
256
370
-1
  6
BYLAYER
 10
11.0
 20
-7.5
 30
0.0
 11
11.0
 21
-3.0
 31
0.0
  0
LINE
  5
8D
100
AcDbEntity
100
AcDbLine
  8
0
 62
256
370
-1
  6
BYLAYER
 10
4.0
 20
8.0
 30
0.0
 11
-19.0
 21
8.0
 31
0.0
  0
LINE
  5
8E
100
AcDbEntity
100
AcDbLine
  8
0
 62
256
370
-1
  6
BYLAYER
 10
-19.0
 20
8.0
 30
0.0
 11
-19.0
 21
3.5
 31
0.0
  0
CIRCLE
  5
8F
100
AcDbEntity
100
AcDbCircle
  8
0
 62
256
370
-1
  6
BYLAYER
 10
0.0
 20
0.0
 30
0.0
 40
2.0
  0
ENDBLK
  5
90
100
AcDbEntity
  8
0
100
AcDbBlockEnd
  0
BLOCK
  5
91
100
AcDbEntity
  8
0
100
AcDbBlockBegin
  2
classical_tuners
 70
0
 10
0.0
 20
0.0
 30
0.0
  3
classical_tuners
  1

  0
LINE
  5
92
100
AcDbEntity
100
AcDbLine
  8
0
 62
256
370
-1
  6
BYLAYER
 10
-42.0
 20
1.0
 30
0.0
 11
-42.0
 21
29.0
 31
0.0
  0
LINE
  5
93
100
AcDbEntity
100
AcDbLine
  8
0
 62
256
370
-1
  6
BYLAYER
 10
-42.0
 20
29.0
 30
0.0
 11
-48.0
 21
29.0
 31
0.0
  0
LINE
  5
94
100
AcDbEntity
100
AcDbLine
  8
0
 62
256
370
-1
  6
BYLAYER
 10
-48.0
 20
29.0
 30
0.0
 11
-48.0
 21
1.0
 31
0.0
  0
LINE
  5
95
100
AcDbEntity
100
AcDbLine
  8
0
 62
256
370
-1
  6
BYLAYER
 10
-7.0
 20
1.0
 30
0.0
 11
-7.0
 21
29.0
 31
0.0
  0
LINE
  5
96
100
AcDbEntity
100
AcDbLine
  8
0
 62
256
370
-1
  6
BYLAYER
 10
-7.0
 20
29.0
 30
0.0
 11
-13.0
 21
29.0
 31
0.0
  0
LINE
  5
97
100
AcDbEntity
100
AcDbLine
  8
0
 62
256
370
-1
  6
BYLAYER
 10
-13.0
 20
29.0
 30
0.0
 11
-13.0
 21
1.0
 31
0.0
  0
LINE
  5
98
100
AcDbEntity
100
AcDbLine
  8
0
 62
256
370
-1
  6
BYLAYER
 10
28.0
 20
1.0
 30
0.0
 11
28.0
 21
29.0
 31
0.0
  0
LINE
  5
99
100
AcDbEntity
100
AcDbLine
  8
0
 62
256
370
-1
  6
BYLAYER
 10
28.0
 20
29.0
 30
0.0
 11
22.0
 21
29.0
 31
0.0
  0
LINE
  5
9A
100
AcDbEntity
100
AcDbLine
  8
0
 62
256
370
-1
  6
BYLAYER
 10
22.0
 20
29.0
 30
0.0
 11
22.0
 21
1.0
 31
0.0
  0
CIRCLE
  5
9B
100
AcDbEntity
100
AcDbCircle
  8
0
 62
256
370
-1
  6
BYLAYER
 10
-45.0
 20
15.0
 30
0.0
 40
1.0
  0
CIRCLE
  5
9C
100
AcDbEntity
100
AcDbCircle
  8
0
 62
256
370
-1
  6
BYLAYER
 10
-10.0
 20
15.0
 30
0.0
 40
1.0
  0
CIRCLE
  5
9D
100
AcDbEntity
100
AcDbCircle
  8
0
 62
256
370
-1
  6
BYLAYER
 10
25.0
 20
15.0
 30
0.0
 40
1.0
  0
LINE
  5
9E
100
AcDbEntity
100
AcDbLine
  8
0
 62
256
370
-1
  6
BYLAYER
 10
-62.5
 20
0.0
 30
0.0
 11
57.5
 21
0.0
 31
0.0
  0
LINE
  5
9F
100
AcDbEntity
100
AcDbLine
  8
0
 62
256
370
-1
  6
BYLAYER
 10
57.5
 20
0.0
 30
0.0
 11
57.5
 21
1.0
 31
0.0
  0
LINE
  5
A0
100
AcDbEntity
100
AcDbLine
  8
0
 62
256
370
-1
  6
BYLAYER
 10
57.5
 20
1.0
 30
0.0
 11
-62.5
 21
1.0
 31
0.0
  0
LINE
  5
A1
100
AcDbEntity
100
AcDbLine
  8
0
 62
256
370
-1
  6
BYLAYER
 10
-62.5
 20
1.0
 30
0.0
 11
-62.5
 21
0.0
 31
0.0
  0
CIRCLE
  5
A2
100
AcDbEntity
100
AcDbCircle
  8
0
 62
256
370
-1
  6
BYLAYER
 10
-39.0
 20
-3.0
 30
0.0
 40
3.0
  0
LINE
  5
A3
100
AcDbEntity
100
AcDbLine
  8
0
 62
256
370
-1
  6
BYLAYER
 10
-48.0
 20
-1.0
 30
0.0
 11
-42.0
 21
-1.0
 31
0.0
  0
LINE
  5
A4
100
AcDbEntity
100
AcDbLine
  8
0
 62
256
370
-1
  6
BYLAYER
 10
-42.0
 20
-1.0
 30
0.0
 11
-42.0
 21
-5.0
 31
0.0
  0
LINE
  5
A5
100
AcDbEntity
100
AcDbLine
  8
0
 62
256
370
-1
  6
BYLAYER
 10
-42.0
 20
-5.0
 30
0.0
 11
-48.0
 21
-5.0
 31
0.0
  0
LINE
  5
A6
100
AcDbEntity
100
AcDbLine
  8
0
 62
256
370
-1
  6
BYLAYER
 10
-48.0
 20
-5.0
 30
0.0
 11
-48.0
 21
-1.0
 31
0.0
  0
LINE
  5
A7
100
AcDbEntity
100
AcDbLine
  8
0
 62
256
370
-1
  6
BYLAYER
 10
-42.098076211353316
 20
-3.6339745962155621
 30
0.0
 11
-47.294228634059948
 21
-6.6339745962155607
 31
0.0
  0
LINE
  5
A8
100
AcDbEntity
100
AcDbLine
  8
0
 62
256
370
-1
  6
BYLAYER
 10
-47.294228634059948
 20
-6.6339745962155607
 30
0.0
 11
-46.294228634059948
 21
-8.366025403784441
 31
0.0
  0
LINE
  5
A9
100
AcDbEntity
100
AcDbLine
  8
0
 62
256
370
-1
  6
BYLAYER
 10
-46.294228634059948
 20
-8.366025403784441
 30
0.0
 11
-41.098076211353316
 21
-5.3660254037844393
 31
0.0
  0
LINE
  5
AA
100
AcDbEntity
100
AcDbLine
  8
0
 62
256
370
-1
  6
BYLAYER
 10
-35.901923788646684
 20
-2.3660254037844384
 30
0.0
 11
-30.705771365940052
 21
0.6339745962155563
 31
0.0
  0
LINE
  5
AB
100
AcDbEntity
100
AcDbLine
  8
0
 62
256
370
-1
  6
BYLAYER
 10
-30.705771365940052
 20
0.6339745962155563
 30
0.0
 11
-31.705771365940052
 21
2.3660254037844393
 31
0.0
  0
LINE
  5
AC
100
AcDbEntity
100
AcDbLine
  8
0
 62
256
370
-1
  6
BYLAYER
 10
-31.705771365940052
 20
2.3660254037844393
 30
0.0
 11
-36.901923788646684
 21
-0.6339745962155612
 31
0.0
  0
LINE
  5
AD
100
AcDbEntity
100
AcDbLine
  8
0
 62
256
370
-1
  6
BYLAYER
 10
-13.0
 20
-5.0
 30
0.0
 11
-13.0
 21
-1.0
 31
0.0
  0
LINE
  5
AE
100
AcDbEntity
100
AcDbLine
  8
0
 62
256
370
-1
  6
BYLAYER
 10
-7.098076211353316
 20
-3.6339745962155621
 30
0.0
 11
-12.294228634059948
 21
-6.6339745962155607
 31
0.0
  0
LINE
  5
AF
100
AcDbEntity
100
AcDbLine
  8
0
 62
256
370
-1
  6
BYLAYER
 10
-12.294228634059948
 20
-6.6339745962155607
 30
0.0
 11
-11.294228634059948
 21
-8.366025403784441
 31
0.0
  0
LINE
  5
B0
100
AcDbEntity
100
AcDbLine
  8
0
 62
256
370
-1
  6
BYLAYER
 10
-11.294228634059948
 20
-8.366025403784441
 30
0.0
 11
-6.098076211353316
 21
-5.3660254037844393
 31
0.0
  0
LINE
  5
B1
100
AcDbEntity
100
AcDbLine
  8
0
 62
256
370
-1
  6
BYLAYER
 10
-0.901923788646684
 20
-2.3660254037844384
 30
0.0
 11
4.294228634059948
 21
0.6339745962155563
 31
0.0
  0
LINE
  5
B2
100
AcDbEntity
100
AcDbLine
  8
0
 62
256
370
-1
  6
BYLAYER
 10
4.294228634059948
 20
0.6339745962155563
 30
0.0
 11
3.294228634059948
 21
2.3660254037844393
 31
0.0
  0
LINE
  5
B3
100
AcDbEntity
100
AcDbLine
  8
0
 62
256
370
-1
  6
BYLAYER
 10
3.294228634059948
 20
2.3660254037844393
 30
0.0
 11
-1.901923788646684
 21
-0.6339745962155612
 31
0.0
  0
CIRCLE
  5
B4
100
AcDbEntity
100
AcDbCircle
  8
0
 62
256
370
-1
  6
BYLAYER
 10
-4.0
 20
-3.0
 30
0.0
 40
3.0
  0
LINE
  5
B5
100
AcDbEntity
100
AcDbLine
  8
0
 62
256
370
-1
  6
BYLAYER
 10
-13.0
 20
-1.0
 30
0.0
 11
-7.0
 21
-1.0
 31
0.0
  0
LINE
  5
B6
100
AcDbEntity
100
AcDbLine
  8
0
 62
256
370
-1
  6
BYLAYER
 10
-7.0
 20
-1.0
 30
0.0
 11
-7.0
 21
-5.0
 31
0.0
  0
LINE
  5
B7
100
AcDbEntity
100
AcDbLine
  8
0
 62
256
370
-1
  6
BYLAYER
 10
-7.0
 20
-5.0
 30
0.0
 11
-13.0
 21
-5.0
 31
0.0
  0
LINE
  5
B8
100
AcDbEntity
100
AcDbLine
  8
0
 62
256
370
-1
  6
BYLAYER
 10
22.0
 20
-5.0
 30
0.0
 11
22.0
 21
-1.0
 31
0.0
  0
LINE
  5
B9
100
AcDbEntity
100
AcDbLine
  8
0
 62
256
370
-1
  6
BYLAYER
 10
27.901923788646684
 20
-3.6339745962155621
 30
0.0
 11
22.705771365940052
 21
-6.6339745962155607
 31
0.0
  0
LINE
  5
BA
100
AcDbEntity
100
AcDbLine
  8
0
 62
256
370
-1
  6
BYLAYER
 10
22.705771365940052
 20
-6.6339745962155607
 30
0.0
 11
23.705771365940052
 21
-8.366025403784441
 31
0.0
  0
LINE
  5
BB
100
AcDbEntity
100
AcDbLine
  8
0
 62
256
370
-1
  6
BYLAYER
 10
23.705771365940052
 20
-8.366025403784441
 30
0.0
 11
28.901923788646684
 21
-5.3660254037844393
 31
0.0
  0
LINE
  5
BC
100
AcDbEntity
100
AcDbLine
  8
0
 62
256
370
-1
  6
BYLAYER
 10
34.098076211353316
 20
-2.3660254037844384
 30
0.0
 11
39.294228634059948
 21
0.6339745962155563
 31
0.0
  0
LINE
  5
BD
100
AcDbEntity
100
AcDbLine
  8
0
 62
256
370
-1
  6
BYLAYER
 10
39.294228634059948
 20
0.6339745962155563
 30
0.0
 11
38.294228634059948
 21
2.3660254037844393
 31
0.0
  0
LINE
  5
BE
100
AcDbEntity
100
AcDbLine
  8
0
 62
256
370
-1
  6
BYLAYER
 10
38.294228634059948
 20
2.3660254037844393
 30
0.0
 11
33.098076211353316
 21
-0.6339745962155612
 31
0.0
  0
CIRCLE
  5
BF
100
AcDbEntity
100
AcDbCircle
  8
0
 62
256
370
-1
  6
BYLAYER
 10
31.0
 20
-3.0
 30
0.0
 40
3.0
  0
LINE
  5
C0
100
AcDbEntity
100
AcDbLine
  8
0
 62
256
370
-1
  6
BYLAYER
 10
22.0
 20
-1.0
 30
0.0
 11
28.0
 21
-1.0
 31
0.0
  0
LINE
  5
C1
100
AcDbEntity
100
AcDbLine
  8
0
 62
256
370
-1
  6
BYLAYER
 10
28.0
 20
-1.0
 30
0.0
 11
28.0
 21
-5.0
 31
0.0
  0
LINE
  5
C2
100
AcDbEntity
100
AcDbLine
  8
0
 62
256
370
-1
  6
BYLAYER
 10
28.0
 20
-5.0
 30
0.0
 11
22.0
 21
-5.0
 31
0.0
  0
ENDBLK
  5
C3
100
AcDbEntity
  8
0
100
AcDbBlockEnd
  0
ENDSEC
  0
SECTION
  2
ENTITIES
  0
CIRCLE
  5
C4
100
AcDbEntity
100
AcDbCircle
  8
rosette
 62
256
370
-1
  6
BYLAYER
 10
460.0
 20
0.0
 30
0.0
 40
44.0
  0
LINE
  5
C5
100
AcDbEntity
100
AcDbLine
  8
0
 62
256
370
-1
  6
BYLAYER
 10
640.0
 20
-0.0000000000001705
 30
0.0
 11
640.0
 21
38.8039442692321899
 31
0.0
  0
LINE
  5
C6
100
AcDbEntity
100
AcDbLine
  8
0
 62
256
370
-1
  6
BYLAYER
 10
640.0188736835943928
 20
39.9999999999998295
 30
0.0
 11
640.8725461576277667
 21
94.0985997609458025
 31
0.0
  0
LINE
  5
C7
100
AcDbEntity
100
AcDbLine
  8
0
 62
256
370
-1
  6
BYLAYER
 10
671.2209962922029263
 20
93.945718130104666
 30
0.0
 11
672.9833526288475696
 21
39.9999999999997868
 31
0.0
  0
LINE
  5
C8
100
AcDbEntity
100
AcDbLine
  8
0
 62
256
370
-1
  6
BYLAYER
 10
672.9833526288475696
 20
38.8039442692321899
 30
0.0
 11
672.9833526288475696
 21
-0.0000000000001705
 31
0.0
  0
LINE
  5
C9
100
AcDbEntity
100
AcDbLine
  8
0
 62
256
370
-1
  6
BYLAYER
 10
769.1041331740693749
 20
32.6199341119836674
 30
0.0
 11
751.7005724614054998
 21
32.6199341119836674
 31
0.0
  0
LINE
  5
CA
100
AcDbEntity
100
AcDbLine
  8
0
 62
256
370
-1
  6
BYLAYER
 10
751.7005724614054998
 20
32.6199341119836674
 30
0.0
 11
745.2798714519544774
 21
26.192662381731818
 31
0.0
  0
LINE
  5
CB
100
AcDbEntity
100
AcDbLine
  8
0
 62
256
370
-1
  6
BYLAYER
 10
745.2798714519544774
 20
26.192662381731818
 30
0.0
 11
745.2798714519544774
 21
-0.0
 31
0.0
  0
LINE
  5
CC
100
AcDbEntity
100
AcDbLine
  8
0
 62
256
370
-1
  6
BYLAYER
 10
640.0
 20
-0.0000000000001944
 30
0.0
 11
640.0
 21
-38.8039442692326446
 31
0.0
  0
LINE
  5
CD
100
AcDbEntity
100
AcDbLine
  8
0
 62
256
370
-1
  6
BYLAYER
 10
672.9833526288475696
 20
-38.803944269232673
 30
0.0
 11
672.9833526288475696
 21
-0.000000000000207
 31
0.0
  0
LINE
  5
CE
100
AcDbEntity
100
AcDbLine
  8
0
 62
256
370
-1
  6
BYLAYER
 10
769.1041331740693749
 20
-32.6199341119837456
 30
0.0
 11
751.7005724614054998
 21
-32.6199341119837669
 31
0.0
  0
LINE
  5
CF
100
AcDbEntity
100
AcDbLine
  8
0
 62
256
370
-1
  6
BYLAYER
 10
751.7005724614054998
 20
-32.6199341119837669
 30
0.0
 11
745.2798714519544774
 21
-26.1926623817319317
 31
0.0
  0
LINE
  5
D0
100
AcDbEntity
100
AcDbLine
  8
0
 62
256
370
-1
  6
BYLAYER
 10
745.2798714519544774
 20
-26.1926623817319317
 30
0.0
 11
745.2798714519544774
 21
-0.0
 31
0.0
  0
SPLINE
  5
D1
  8
0
 62
256
370
-1
  6
BYLAYER
100
AcDbEntity
100
AcDbSpline
 70
8
 71
3
 72
38
 73
34
 74
0
 40
0.0
 40
0.0
 40
0.0
 40
0.0
 40
1.0
 40
2.0
 40
3.0
 40
4.0
 40
5.0
 40
6.0
 40
7.0
 40
8.0
 40
9.0
 40
10.0
 40
11.0
 40
12.0
 40
13.0
 40
14.0
 40
15.0
 40
16.0
 40
17.0
 40
18.0
 40
19.0
 40
20.0
 40
21.0
 40
22.0
 40
23.0
 40
24.0
 40
25.0
 40
26.0
 40
27.0
 40
28.0
 40
29.0
 40
30.0
 40
31.0
 40
31.0
 40
31.0
 40
31.0
 10
322.6418863600397344
 20
40.0
 30
0.0
 10
322.8366729401154771
 20
46.7265493263234646
 30
0.0
 10
325.1477050709024752
 20
57.7564754050796623
 30
0.0
 10
330.6101446527627559
 20
70.3621052093724586
 30
0.0
 10
337.1379797952695299
 20
82.1014922687204063
 30
0.0
 10
348.5738071537239193
 20
97.7123042183566071
 30
0.0
 10
363.7794433437825319
 20
110.3094075711616
 30
0.0
 10
383.8014262658311964
 20
121.1546483206047213
 30
0.0
 10
405.3346900239585011
 20
123.3162158594314661
 30
0.0
 10
422.2305740911870089
 20
122.8311665560661794
 30
0.0
 10
436.9437362932712858
 20
119.5975045336300724
 30
0.0
 10
455.9639897140489211
 20
114.8977786574644568
 30
0.0
 10
473.0661001266325911
 20
108.6409089943241923
 30
0.0
 10
484.3284655202846807
 20
104.4696625522307016
 30
0.0
 10
492.2538337602625234
 20
103.6354132638119978
 30
0.0
 10
504.6889556633059328
 20
105.1268669832285951
 30
0.0
 10
517.2193960002455242
 20
111.5133494775398475
 30
0.0
 10
538.9717939117099377
 20
124.4916454742795935
 30
0.0
 10
566.0848957853174852
 20
140.7595065984442613
 30
0.0
 10
589.0267512168320536
 20
152.0218719920967203
 30
0.0
 10
611.9686066483463946
 20
158.6958662994462941
 30
0.0
 10
633.6590881472320689
 20
161.6157388089118854
 30
0.0
 10
653.8771867304144507
 20
161.7579899821513436
 30
0.0
 10
679.5847998087810993
 20
156.8266553979363778
 30
0.0
 10
705.1307297860257677
 20
144.7812643643620447
 30
0.0
 10
719.601367336426847
 20
133.7059719375185125
 30
0.0
 10
732.239545728709345
 20
120.9460859985003225
 30
0.0
 10
744.7532850549896466
 20
103.0097262974982613
 30
0.0
 10
755.5985258044329385
 20
81.7363694428213563
 30
0.0
 10
760.6003362307042153
 20
70.0837538547864654
 30
0.0
 10
766.2728696426361239
 20
52.8560597889196444
 30
0.0
 10
768.6259205394371747
 20
41.9731993912135337
 30
0.0
 10
769.1041331740693749
 20
32.6199341119836674
 30
0.0
 10
769.1041331740693749
 20
32.6199341119836674
 30
0.0
  0
LINE
  5
D2
100
AcDbEntity
100
AcDbLine
  8
top_bracing
 62
256
370
-1
  6
BYLAYER
 10
511.5
 20
-99.9999999999998295
 30
0.0
 11
517.5
 21
-99.9999999999998295
 31
0.0
  0
LINE
  5
D3
100
AcDbEntity
100
AcDbLine
  8
top_bracing
 62
256
370
-1
  6
BYLAYER
 10
517.5
 20
100.0000000000001705
 30
0.0
 11
511.5
 21
100.0000000000001705
 31
0.0
  0
LINE
  5
D4
100
AcDbEntity
100
AcDbLine
  8
top_bracing
 62
256
370
-1
  6
BYLAYER
 10
511.5
 20
100.0000000000001705
 30
0.0
 11
511.5
 21
-99.9999999999998295
 31
0.0
  0
LINE
  5
D5
100
AcDbEntity
100
AcDbLine
  8
top_bracing
 62
256
370
-1
  6
BYLAYER
 10
406.5
 20
-114.9999999999998295
 30
0.0
 11
412.5
 21
-114.9999999999998295
 31
0.0
  0
LINE
  5
D6
100
AcDbEntity
100
AcDbLine
  8
top_bracing
 62
256
370
-1
  6
BYLAYER
 10
412.5
 20
-114.9999999999998295
 30
0.0
 11
412.5
 21
115.0000000000001705
 31
0.0
  0
LINE
  5
D7
100
AcDbEntity
100
AcDbLine
  8
top_bracing
 62
256
370
-1
  6
BYLAYER
 10
412.5
 20
115.0000000000001705
 30
0.0
 11
406.5
 21
115.0000000000001705
 31
0.0
  0
LINE
  5
D8
100
AcDbEntity
100
AcDbLine
  8
top_bracing
 62
256
370
-1
  6
BYLAYER
 10
369.5
 20
-74.9999999999998295
 30
0.0
 11
375.5
 21
-74.9999999999998295
 31
0.0
  0
LINE
  5
D9
100
AcDbEntity
100
AcDbLine
  8
top_bracing
 62
256
370
-1
  6
BYLAYER
 10
375.5
 20
75.0000000000001705
 30
0.0
 11
369.5
 21
75.0000000000001705
 31
0.0
  0
LINE
  5
DA
100
AcDbEntity
100
AcDbLine
  8
top_bracing
 62
256
370
-1
  6
BYLAYER
 10
743.985650935229387
 20
-1.1299352437262433
 30
0.0
 11
681.0522436929973082
 21
-137.4856509352293585
 31
0.0
  0
LINE
  5
DB
100
AcDbEntity
100
AcDbLine
  8
top_bracing
 62
256
370
-1
  6
BYLAYER
 10
681.0522436929973082
 20
-137.4856509352293585
 30
0.0
 11
683.7761218464984267
 21
-138.7428254676146082
 31
0.0
  0
LINE
  5
DC
100
AcDbEntity
100
AcDbLine
  8
top_bracing
 62
256
370
-1
  6
BYLAYER
 10
726.5
 20
-1.4999999999998295
 30
0.0
 11
726.5
 21
1.5000000000001705
 31
0.0
  0
LINE
  5
DD
100
AcDbEntity
100
AcDbLine
  8
top_bracing
 62
256
370
-1
  6
BYLAYER
 10
743.985650935229387
 20
-1.1299352437261909
 30
0.0
 11
746.7095290887309602
 21
-2.3871097761113926
 31
0.0
  0
LINE
  5
DE
100
AcDbEntity
100
AcDbLine
  8
top_bracing
 62
256
370
-1
  6
BYLAYER
 10
511.5
 20
58.3333333333335062
 30
0.0
 11
412.5
 21
91.3333333333335133
 31
0.0
  0
LINE
  5
DF
100
AcDbEntity
100
AcDbLine
  8
top_bracing
 62
256
370
-1
  6
BYLAYER
 10
511.5
 20
-57.2064642442072326
 30
0.0
 11
412.5
 21
-90.2064642442072113
 31
0.0
  0
CIRCLE
  5
E0
100
AcDbEntity
100
AcDbCircle
  8
template_dowel
 62
256
370
-1
  6
BYLAYER
 10
781.5971914521969666
 20
46.8308189015841378
 30
0.0
 40
9.5
  0
CIRCLE
  5
E1
100
AcDbEntity
100
AcDbCircle
  8
template_dowel
 62
256
370
-1
  6
BYLAYER
 10
781.5971914521969666
 20
46.8308189015841378
 30
0.0
 40
1.0
  0
CIRCLE
  5
E2
100
AcDbEntity
100
AcDbCircle
  8
template_dowel
 62
256
370
-1
  6
BYLAYER
 10
761.1863549376344054
 20
100.9414895556370055
 30
0.0
 40
9.5
  0
CIRCLE
  5
E3
100
AcDbEntity
100
AcDbCircle
  8
template_dowel
 62
256
370
-1
  6
BYLAYER
 10
761.1863549376344054
 20
100.9414895556370055
 30
0.0
 40
1.0
  0
CIRCLE
  5
E4
100
AcDbEntity
100
AcDbCircle
  8
template_dowel
 62
256
370
-1
  6
BYLAYER
 10
785.6866836167728252
 20
18.9640185082664061
 30
0.0
 40
9.5
  0
CIRCLE
  5
E5
100
AcDbEntity
100
AcDbCircle
  8
template_dowel
 62
256
370
-1
  6
BYLAYER
 10
785.6866836167728252
 20
18.9640185082664061
 30
0.0
 40
1.0
  0
CIRCLE
  5
E6
100
AcDbEntity
100
AcDbCircle
  8
template_dowel
 62
256
370
-1
  6
BYLAYER
 10
672.9946375758099748
 20
168.4976949856979331
 30
0.0
 40
9.5
  0
CIRCLE
  5
E7
100
AcDbEntity
100
AcDbCircle
  8
template_dowel
 62
256
370
-1
  6
BYLAYER
 10
672.9946375758099748
 20
168.4976949856979331
 30
0.0
 40
1.0
  0
CIRCLE
  5
E8
100
AcDbEntity
100
AcDbCircle
  8
template_dowel
 62
256
370
-1
  6
BYLAYER
 10
637.2365845051199358
 20
149.6073295756262667
 30
0.0
 40
9.5
  0
CIRCLE
  5
E9
100
AcDbEntity
100
AcDbCircle
  8
template_dowel
 62
256
370
-1
  6
BYLAYER
 10
637.2365845051199358
 20
149.6073295756262667
 30
0.0
 40
1.0
  0
CIRCLE
  5
EA
100
AcDbEntity
100
AcDbCircle
  8
template_dowel
 62
256
370
-1
  6
BYLAYER
 10
586.3301198608464802
 20
158.4565447294838521
 30
0.0
 40
9.5
  0
CIRCLE
  5
EB
100
AcDbEntity
100
AcDbCircle
  8
template_dowel
 62
256
370
-1
  6
BYLAYER
 10
586.3301198608464802
 20
158.4565447294838521
 30
0.0
 40
1.0
  0
CIRCLE
  5
EC
100
AcDbEntity
100
AcDbCircle
  8
template_dowel
 62
256
370
-1
  6
BYLAYER
 10
486.2581382066505284
 20
115.7635965178113935
 30
0.0
 40
9.5
  0
CIRCLE
  5
ED
100
AcDbEntity
100
AcDbCircle
  8
template_dowel
 62
256
370
-1
  6
BYLAYER
 10
486.2581382066505284
 20
115.7635965178113935
 30
0.0
 40
1.0
  0
CIRCLE
  5
EE
100
AcDbEntity
100
AcDbCircle
  8
template_dowel
 62
256
370
-1
  6
BYLAYER
 10
509.7356477985176753
 20
116.3053852007006412
 30
0.0
 40
9.5
  0
CIRCLE
  5
EF
100
AcDbEntity
100
AcDbCircle
  8
template_dowel
 62
256
370
-1
  6
BYLAYER
 10
509.7356477985176753
 20
116.3053852007006412
 30
0.0
 40
1.0
  0
CIRCLE
  5
F0
100
AcDbEntity
100
AcDbCircle
  8
template_dowel
 62
256
370
-1
  6
BYLAYER
 10
417.631571707346211
 20
132.5590456873779885
 30
0.0
 40
9.5
  0
CIRCLE
  5
F1
100
AcDbEntity
100
AcDbCircle
  8
template_dowel
 62
256
370
-1
  6
BYLAYER
 10
417.631571707346211
 20
132.5590456873779885
 30
0.0
 40
1.0
  0
CIRCLE
  5
F2
100
AcDbEntity
100
AcDbCircle
  8
template_dowel
 62
256
370
-1
  6
BYLAYER
 10
344.1650263075646308
 20
98.6069548929853426
 30
0.0
 40
9.5
  0
CIRCLE
  5
F3
100
AcDbEntity
100
AcDbCircle
  8
template_dowel
 62
256
370
-1
  6
BYLAYER
 10
344.1650263075646308
 20
98.6069548929853426
 30
0.0
 40
1.0
  0
CIRCLE
  5
F4
100
AcDbEntity
100
AcDbCircle
  8
template_dowel
 62
256
370
-1
  6
BYLAYER
 10
318.1230502833548144
 20
37.2042374988709383
 30
0.0
 40
9.5
  0
CIRCLE
  5
F5
100
AcDbEntity
100
AcDbCircle
  8
template_dowel
 62
256
370
-1
  6
BYLAYER
 10
318.1230502833548144
 20
37.2042374988709383
 30
0.0
 40
1.0
  0
CIRCLE
  5
F6
100
AcDbEntity
100
AcDbCircle
  8
template_dowel
 62
256
370
-1
  6
BYLAYER
 10
344.7713325829388396
 20
57.41118387651413
 30
0.0
 40
9.5
  0
CIRCLE
  5
F7
100
AcDbEntity
100
AcDbCircle
  8
template_dowel
 62
256
370
-1
  6
BYLAYER
 10
344.7713325829388396
 20
57.41118387651413
 30
0.0
 40
1.0
  0
CIRCLE
  5
F8
100
AcDbEntity
100
AcDbCircle
  8
template_dowel
 62
256
370
-1
  6
BYLAYER
 10
380.4091437422723629
 20
103.31415765562096
 30
0.0
 40
9.5
  0
CIRCLE
  5
F9
100
AcDbEntity
100
AcDbCircle
  8
template_dowel
 62
256
370
-1
  6
BYLAYER
 10
380.4091437422723629
 20
103.31415765562096
 30
0.0
 40
1.0
  0
CIRCLE
  5
FA
100
AcDbEntity
100
AcDbCircle
  8
template_dowel
 62
256
370
-1
  6
BYLAYER
 10
445.9154756405764601
 20
106.993504799864354
 30
0.0
 40
9.5
  0
CIRCLE
  5
FB
100
AcDbEntity
100
AcDbCircle
  8
template_dowel
 62
256
370
-1
  6
BYLAYER
 10
445.9154756405764601
 20
106.993504799864354
 30
0.0
 40
1.0
  0
CIRCLE
  5
FC
100
AcDbEntity
100
AcDbCircle
  8
template_dowel
 62
256
370
-1
  6
BYLAYER
 10
556.4199662650098617
 20
118.8564696679122648
 30
0.0
 40
9.5
  0
CIRCLE
  5
FD
100
AcDbEntity
100
AcDbCircle
  8
template_dowel
 62
256
370
-1
  6
BYLAYER
 10
556.4199662650098617
 20
118.8564696679122648
 30
0.0
 40
1.0
  0
CIRCLE
  5
FE
100
AcDbEntity
100
AcDbCircle
  8
template_dowel
 62
256
370
-1
  6
BYLAYER
 10
729.074545621092966
 20
110.4968693811709528
 30
0.0
 40
9.5
  0
CIRCLE
  5
FF
100
AcDbEntity
100
AcDbCircle
  8
template_dowel
 62
256
370
-1
  6
BYLAYER
 10
729.074545621092966
 20
110.4968693811709528
 30
0.0
 40
1.0
  0
CIRCLE
  5
100
100
AcDbEntity
100
AcDbCircle
  8
template_dowel
 62
256
370
-1
  6
BYLAYER
 10
755.2140396593608784
 20
61.042935079209812
 30
0.0
 40
9.5
  0
CIRCLE
  5
101
100
AcDbEntity
100
AcDbCircle
  8
template_dowel
 62
256
370
-1
  6
BYLAYER
 10
755.2140396593608784
 20
61.042935079209812
 30
0.0
 40
1.0
  0
CIRCLE
  5
102
100
AcDbEntity
100
AcDbCircle
  8
template_dowel
 62
256
370
-1
  6
BYLAYER
 10
637.2365845051199358
 20
-149.6073295756258688
 30
0.0
 40
9.5
  0
CIRCLE
  5
103
100
AcDbEntity
100
AcDbCircle
  8
template_dowel
 62
256
370
-1
  6
BYLAYER
 10
637.2365845051199358
 20
-149.6073295756258688
 30
0.0
 40
1.0
  0
CIRCLE
  5
104
100
AcDbEntity
100
AcDbCircle
  8
template_dowel
 62
256
370
-1
  6
BYLAYER
 10
586.3301198608464802
 20
-158.4565447294835678
 30
0.0
 40
9.5
  0
CIRCLE
  5
105
100
AcDbEntity
100
AcDbCircle
  8
template_dowel
 62
256
370
-1
  6
BYLAYER
 10
586.3301198608464802
 20
-158.4565447294835678
 30
0.0
 40
1.0
  0
CIRCLE
  5
106
100
AcDbEntity
100
AcDbCircle
  8
template_dowel
 62
256
370
-1
  6
BYLAYER
 10
486.2581382066505284
 20
-115.7635965178110524
 30
0.0
 40
9.5
  0
CIRCLE
  5
107
100
AcDbEntity
100
AcDbCircle
  8
template_dowel
 62
256
370
-1
  6
BYLAYER
 10
486.2581382066505284
 20
-115.7635965178110524
 30
0.0
 40
1.0
  0
CIRCLE
  5
108
100
AcDbEntity
100
AcDbCircle
  8
template_dowel
 62
256
370
-1
  6
BYLAYER
 10
509.7356477985176753
 20
-116.305385200700286
 30
0.0
 40
9.5
  0
CIRCLE
  5
109
100
AcDbEntity
100
AcDbCircle
  8
template_dowel
 62
256
370
-1
  6
BYLAYER
 10
509.7356477985176753
 20
-116.305385200700286
 30
0.0
 40
1.0
  0
CIRCLE
  5
10A
100
AcDbEntity
100
AcDbCircle
  8
template_dowel
 62
256
370
-1
  6
BYLAYER
 10
417.631571707346211
 20
-132.5590456873776475
 30
0.0
 40
9.5
  0
CIRCLE
  5
10B
100
AcDbEntity
100
AcDbCircle
  8
template_dowel
 62
256
370
-1
  6
BYLAYER
 10
417.631571707346211
 20
-132.5590456873776475
 30
0.0
 40
1.0
  0
CIRCLE
  5
10C
100
AcDbEntity
100
AcDbCircle
  8
template_dowel
 62
256
370
-1
  6
BYLAYER
 10
344.1650263075646308
 20
-98.6069548929850015
 30
0.0
 40
9.5
  0
CIRCLE
  5
10D
100
AcDbEntity
100
AcDbCircle
  8
template_dowel
 62
256
370
-1
  6
BYLAYER
 10
344.1650263075646308
 20
-98.6069548929850015
 30
0.0
 40
1.0
  0
CIRCLE
  5
10E
100
AcDbEntity
100
AcDbCircle
  8
template_dowel
 62
256
370
-1
  6
BYLAYER
 10
318.1230502833548144
 20
-37.2042374988706044
 30
0.0
 40
9.5
  0
CIRCLE
  5
10F
100
AcDbEntity
100
AcDbCircle
  8
template_dowel
 62
256
370
-1
  6
BYLAYER
 10
318.1230502833548144
 20
-37.2042374988706044
 30
0.0
 40
1.0
  0
CIRCLE
  5
110
100
AcDbEntity
100
AcDbCircle
  8
template_dowel
 62
256
370
-1
  6
BYLAYER
 10
781.5971914521969666
 20
-46.8308189015837542
 30
0.0
 40
9.5
  0
CIRCLE
  5
111
100
AcDbEntity
100
AcDbCircle
  8
template_dowel
 62
256
370
-1
  6
BYLAYER
 10
344.7713325829388396
 20
-57.4111838765137819
 30
0.0
 40
9.5
  0
CIRCLE
  5
112
100
AcDbEntity
100
AcDbCircle
  8
template_dowel
 62
256
370
-1
  6
BYLAYER
 10
781.5971914521969666
 20
-46.8308189015837542
 30
0.0
 40
1.0
  0
CIRCLE
  5
113
100
AcDbEntity
100
AcDbCircle
  8
template_dowel
 62
256
370
-1
  6
BYLAYER
 10
344.7713325829388396
 20
-57.4111838765137819
 30
0.0
 40
1.0
  0
CIRCLE
  5
114
100
AcDbEntity
100
AcDbCircle
  8
template_dowel
 62
256
370
-1
  6
BYLAYER
 10
380.4091437422723629
 20
-103.3141576556206189
 30
0.0
 40
9.5
  0
CIRCLE
  5
115
100
AcDbEntity
100
AcDbCircle
  8
template_dowel
 62
256
370
-1
  6
BYLAYER
 10
380.4091437422723629
 20
-103.3141576556206189
 30
0.0
 40
1.0
  0
CIRCLE
  5
116
100
AcDbEntity
100
AcDbCircle
  8
template_dowel
 62
256
370
-1
  6
BYLAYER
 10
445.9154756405764601
 20
-106.9935047998640414
 30
0.0
 40
9.5
  0
CIRCLE
  5
117
100
AcDbEntity
100
AcDbCircle
  8
template_dowel
 62
256
370
-1
  6
BYLAYER
 10
785.6866836167728252
 20
-18.9640185082661716
 30
0.0
 40
9.5
  0
CIRCLE
  5
118
100
AcDbEntity
100
AcDbCircle
  8
template_dowel
 62
256
370
-1
  6
BYLAYER
 10
445.9154756405764601
 20
-106.9935047998640414
 30
0.0
 40
1.0
  0
CIRCLE
  5
119
100
AcDbEntity
100
AcDbCircle
  8
template_dowel
 62
256
370
-1
  6
BYLAYER
 10
785.6866836167728252
 20
-18.9640185082661716
 30
0.0
 40
1.0
  0
CIRCLE
  5
11A
100
AcDbEntity
100
AcDbCircle
  8
template_dowel
 62
256
370
-1
  6
BYLAYER
 10
556.4199662650098617
 20
-118.8564696679119805
 30
0.0
 40
9.5
  0
CIRCLE
  5
11B
100
AcDbEntity
100
AcDbCircle
  8
template_dowel
 62
256
370
-1
  6
BYLAYER
 10
556.4199662650098617
 20
-118.8564696679119805
 30
0.0
 40
1.0
  0
LINE
  5
11C
100
AcDbEntity
100
AcDbLine
  8
guides_dimensions
 62
256
370
-1
  6
BYLAYER
 10
826.5
 20
0.0000000000001705
 30
0.0
 11
-200.0
 21
0.0
 31
0.0
  0
LINE
  5
11D
100
AcDbEntity
100
AcDbLine
  8
guides_dimensions
 62
256
370
-1
  6
BYLAYER
 10
460.0
 20
144.5634345445630515
 30
0.0
 11
460.0
 21
-143.4365654554370053
 31
0.0
  0
LINE
  5
11E
100
AcDbEntity
100
AcDbLine
  8
guides_dimensions
 62
256
370
-1
  6
BYLAYER
 10
490.9999999999998295
 20
153.6354132638119836
 30
0.0
 11
491.0000000000000568
 21
-153.635413263812211
 31
0.0
  0
CIRCLE
  5
11F
100
AcDbEntity
100
AcDbCircle
  8
template_dowel
 62
256
370
-1
  6
BYLAYER
 10
700.6741708853942328
 20
135.7055409533904538
 30
0.0
 40
9.5
  0
CIRCLE
  5
120
100
AcDbEntity
100
AcDbCircle
  8
template_dowel
 62
256
370
-1
  6
BYLAYER
 10
700.6741708853942328
 20
135.7055409533904538
 30
0.0
 40
1.0
  0
CIRCLE
  5
121
100
AcDbEntity
100
AcDbCircle
  8
template_dowel
 62
256
370
-1
  6
BYLAYER
 10
729.074545621092966
 20
-110.4968693811706117
 30
0.0
 40
9.5
  0
CIRCLE
  5
122
100
AcDbEntity
100
AcDbCircle
  8
template_dowel
 62
256
370
-1
  6
BYLAYER
 10
729.074545621092966
 20
-110.4968693811706117
 30
0.0
 40
1.0
  0
CIRCLE
  5
123
100
AcDbEntity
100
AcDbCircle
  8
template_dowel
 62
256
370
-1
  6
BYLAYER
 10
755.2140396593608784
 20
-61.0429350792094425
 30
0.0
 40
9.5
  0
CIRCLE
  5
124
100
AcDbEntity
100
AcDbCircle
  8
template_dowel
 62
256
370
-1
  6
BYLAYER
 10
755.2140396593608784
 20
-61.0429350792094425
 30
0.0
 40
1.0
  0
CIRCLE
  5
125
100
AcDbEntity
100
AcDbCircle
  8
template_dowel
 62
256
370
-1
  6
BYLAYER
 10
761.1863549376344054
 20
-100.9414895556366503
 30
0.0
 40
9.5
  0
CIRCLE
  5
126
100
AcDbEntity
100
AcDbCircle
  8
template_dowel
 62
256
370
-1
  6
BYLAYER
 10
761.1863549376344054
 20
-100.9414895556366503
 30
0.0
 40
1.0
  0
CIRCLE
  5
127
100
AcDbEntity
100
AcDbCircle
  8
template_dowel
 62
256
370
-1
  6
BYLAYER
 10
700.6741708853942328
 20
-135.7055409533900843
 30
0.0
 40
9.5
  0
CIRCLE
  5
128
100
AcDbEntity
100
AcDbCircle
  8
template_dowel
 62
256
370
-1
  6
BYLAYER
 10
700.6741708853942328
 20
-135.7055409533900843
 30
0.0
 40
1.0
  0
CIRCLE
  5
129
100
AcDbEntity
100
AcDbCircle
  8
template_dowel
 62
256
370
-1
  6
BYLAYER
 10
672.9946375758099748
 20
-168.4976949856975637
 30
0.0
 40
9.5
  0
CIRCLE
  5
12A
100
AcDbEntity
100
AcDbCircle
  8
template_dowel
 62
256
370
-1
  6
BYLAYER
 10
672.9946375758099748
 20
-168.4976949856975637
 30
0.0
 40
1.0
  0
ARC
  5
12B
100
AcDbEntity
  8
guides_dimensions
 62
256
370
-1
  6
BYLAYER
100
AcDbCircle
 10
499.99999999999892
 20
-3932.1468630459503402
 30
0.0
 40
4572.0
100
AcDbArc
 50
86.2377313328268542
 51
93.7622686671731316
  0
MTEXT
  5
12C
100
AcDbEntity
100
AcDbMText
  8
guides_dimensions
 62
256
370
-1
  6
BYLAYER
 10
769.9999999999995453
 20
759.9999999999997726
 30
0.0
 40
2.5
 41
0.0
 71
1
 72
1
  1
25' Radius Curve
  7
textstyle0
 50
0.0
 73
2
 44
1.0
  0
MTEXT
  5
12D
100
AcDbEntity
100
AcDbMText
  8
guides_dimensions
 62
256
370
-1
  6
BYLAYER
 10
769.9999999999995453
 20
639.9999999999997726
 30
0.0
 40
2.5
 41
0.0
 71
1
 72
1
  1
15' Radius Curve
  7
textstyle1
 50
0.0
 73
2
 44
1.0
  0
LINE
  5
12E
100
AcDbEntity
100
AcDbLine
  8
printing_alignment_guides
 62
256
370
-1
  6
BYLAYER
 10
511.5
 20
15.0000000000001705
 30
0.0
 11
541.5
 21
-14.9999999999998295
 31
0.0
  0
LINE
  5
12F
100
AcDbEntity
100
AcDbLine
  8
printing_alignment_guides
 62
256
370
-1
  6
BYLAYER
 10
541.5
 20
15.0000000000001705
 30
0.0
 11
511.5
 21
-14.9999999999998295
 31
0.0
  0
LINE
  5
130
100
AcDbEntity
100
AcDbLine
  8
printing_alignment_guides
 62
256
370
-1
  6
BYLAYER
 10
511.5
 20
-14.9999999999998295
 30
0.0
 11
511.5
 21
15.0000000000001705
 31
0.0
  0
LINE
  5
131
100
AcDbEntity
100
AcDbLine
  8
printing_alignment_guides
 62
256
370
-1
  6
BYLAYER
 10
511.5
 20
15.0000000000001705
 30
0.0
 11
541.5
 21
15.0000000000001705
 31
0.0
  0
LINE
  5
132
100
AcDbEntity
100
AcDbLine
  8
printing_alignment_guides
 62
256
370
-1
  6
BYLAYER
 10
541.5
 20
15.0000000000001705
 30
0.0
 11
541.5
 21
-14.9999999999998295
 31
0.0
  0
LINE
  5
133
100
AcDbEntity
100
AcDbLine
  8
printing_alignment_guides
 62
256
370
-1
  6
BYLAYER
 10
541.5
 20
-14.9999999999998295
 30
0.0
 11
511.5
 21
-14.9999999999998295
 31
0.0
  0
LINE
  5
134
100
AcDbEntity
100
AcDbLine
  8
printing_alignment_guides
 62
256
370
-1
  6
BYLAYER
 10
761.6157776153409031
 20
15.0000000000001705
 30
0.0
 11
791.6157776153409031
 21
-14.9999999999998295
 31
0.0
  0
LINE
  5
135
100
AcDbEntity
100
AcDbLine
  8
printing_alignment_guides
 62
256
370
-1
  6
BYLAYER
 10
791.6157776153409031
 20
15.0000000000001705
 30
0.0
 11
761.6157776153409031
 21
-14.9999999999998295
 31
0.0
  0
LINE
  5
136
100
AcDbEntity
100
AcDbLine
  8
printing_alignment_guides
 62
256
370
-1
  6
BYLAYER
 10
761.6157776153409031
 20
-14.9999999999998295
 30
0.0
 11
761.6157776153409031
 21
15.0000000000001705
 31
0.0
  0
LINE
  5
137
100
AcDbEntity
100
AcDbLine
  8
printing_alignment_guides
 62
256
370
-1
  6
BYLAYER
 10
761.6157776153409031
 20
15.0000000000001705
 30
0.0
 11
791.6157776153409031
 21
15.0000000000001705
 31
0.0
  0
LINE
  5
138
100
AcDbEntity
100
AcDbLine
  8
printing_alignment_guides
 62
256
370
-1
  6
BYLAYER
 10
791.6157776153409031
 20
15.0000000000001705
 30
0.0
 11
791.6157776153409031
 21
-14.9999999999998295
 31
0.0
  0
LINE
  5
139
100
AcDbEntity
100
AcDbLine
  8
printing_alignment_guides
 62
256
370
-1
  6
BYLAYER
 10
791.6157776153409031
 20
-14.9999999999998295
 30
0.0
 11
761.6157776153409031
 21
-14.9999999999998295
 31
0.0
  0
LINE
  5
13A
100
AcDbEntity
100
AcDbLine
  8
printing_alignment_guides
 62
256
370
-1
  6
BYLAYER
 10
511.5
 20
165.0000000000001705
 30
0.0
 11
541.5
 21
135.0000000000001705
 31
0.0
  0
LINE
  5
13B
100
AcDbEntity
100
AcDbLine
  8
printing_alignment_guides
 62
256
370
-1
  6
BYLAYER
 10
541.5
 20
165.0000000000001705
 30
0.0
 11
511.5
 21
135.0000000000001705
 31
0.0
  0
LINE
  5
13C
100
AcDbEntity
100
AcDbLine
  8
printing_alignment_guides
 62
256
370
-1
  6
BYLAYER
 10
511.5
 20
135.0000000000001705
 30
0.0
 11
511.5
 21
165.0000000000001705
 31
0.0
  0
LINE
  5
13D
100
AcDbEntity
100
AcDbLine
  8
printing_alignment_guides
 62
256
370
-1
  6
BYLAYER
 10
511.5
 20
165.0000000000001705
 30
0.0
 11
541.5
 21
165.0000000000001705
 31
0.0
  0
LINE
  5
13E
100
AcDbEntity
100
AcDbLine
  8
printing_alignment_guides
 62
256
370
-1
  6
BYLAYER
 10
541.5
 20
165.0000000000001705
 30
0.0
 11
541.5
 21
135.0000000000001705
 31
0.0
  0
LINE
  5
13F
100
AcDbEntity
100
AcDbLine
  8
printing_alignment_guides
 62
256
370
-1
  6
BYLAYER
 10
541.5
 20
135.0000000000001705
 30
0.0
 11
511.5
 21
135.0000000000001705
 31
0.0
  0
LINE
  5
140
100
AcDbEntity
100
AcDbLine
  8
printing_alignment_guides
 62
256
370
-1
  6
BYLAYER
 10
291.5
 20
15.0000000000001705
 30
0.0
 11
321.5
 21
-14.9999999999998295
 31
0.0
  0
LINE
  5
141
100
AcDbEntity
100
AcDbLine
  8
printing_alignment_guides
 62
256
370
-1
  6
BYLAYER
 10
321.5
 20
15.0000000000001705
 30
0.0
 11
291.5
 21
-14.9999999999998295
 31
0.0
  0
LINE
  5
142
100
AcDbEntity
100
AcDbLine
  8
printing_alignment_guides
 62
256
370
-1
  6
BYLAYER
 10
291.5
 20
-14.9999999999998295
 30
0.0
 11
291.5
 21
15.0000000000001705
 31
0.0
  0
LINE
  5
143
100
AcDbEntity
100
AcDbLine
  8
printing_alignment_guides
 62
256
370
-1
  6
BYLAYER
 10
291.5
 20
15.0000000000001705
 30
0.0
 11
321.5
 21
15.0000000000001705
 31
0.0
  0
LINE
  5
144
100
AcDbEntity
100
AcDbLine
  8
printing_alignment_guides
 62
256
370
-1
  6
BYLAYER
 10
321.5
 20
15.0000000000001705
 30
0.0
 11
321.5
 21
-14.9999999999998295
 31
0.0
  0
LINE
  5
145
100
AcDbEntity
100
AcDbLine
  8
printing_alignment_guides
 62
256
370
-1
  6
BYLAYER
 10
321.5
 20
-14.9999999999998295
 30
0.0
 11
291.5
 21
-14.9999999999998295
 31
0.0
  0
LINE
  5
146
100
AcDbEntity
100
AcDbLine
  8
printing_alignment_guides
 62
256
370
-1
  6
BYLAYER
 10
511.5
 20
-164.9999999999998579
 30
0.0
 11
541.5
 21
-134.9999999999997158
 31
0.0
  0
LINE
  5
147
100
AcDbEntity
100
AcDbLine
  8
printing_alignment_guides
 62
256
370
-1
  6
BYLAYER
 10
541.5
 20
-164.9999999999998863
 30
0.0
 11
511.5
 21
-134.9999999999997726
 31
0.0
  0
LINE
  5
148
100
AcDbEntity
100
AcDbLine
  8
printing_alignment_guides
 62
256
370
-1
  6
BYLAYER
 10
511.5
 20
-134.9999999999997726
 30
0.0
 11
511.5
 21
-164.9999999999998579
 31
0.0
  0
LINE
  5
149
100
AcDbEntity
100
AcDbLine
  8
printing_alignment_guides
 62
256
370
-1
  6
BYLAYER
 10
511.5
 20
-164.9999999999998579
 30
0.0
 11
541.5
 21
-164.9999999999998863
 31
0.0
  0
LINE
  5
14A
100
AcDbEntity
100
AcDbLine
  8
printing_alignment_guides
 62
256
370
-1
  6
BYLAYER
 10
541.5
 20
-164.9999999999998863
 30
0.0
 11
541.5
 21
-134.9999999999997158
 31
0.0
  0
LINE
  5
14B
100
AcDbEntity
100
AcDbLine
  8
printing_alignment_guides
 62
256
370
-1
  6
BYLAYER
 10
541.5
 20
-134.9999999999997158
 30
0.0
 11
511.5
 21
-134.9999999999997726
 31
0.0
  0
ARC
  5
14C
100
AcDbEntity
  8
guides_dimensions
 62
256
370
-1
  6
BYLAYER
100
AcDbCircle
 10
500.00000000000216
 20
8384.0921980233470094
 30
0.0
 40
7620.0
100
AcDbArc
 50
267.7436775084270835
 51
272.2563224915729165
  0
LINE
  5
14D
100
AcDbEntity
100
AcDbLine
  8
guides_dimensions
 62
256
370
-1
  6
BYLAYER
 10
200.0000000000031264
 20
770.0000000000006821
 30
0.0
 11
199.999999999999261
 21
629.9999999999997726
 31
0.0
  0
LINE
  5
14E
100
AcDbEntity
100
AcDbLine
  8
guides_dimensions
 62
256
370
-1
  6
BYLAYER
 10
799.9999999999984084
 20
770.0000000000006821
 30
0.0
 11
799.9999999999990905
 21
629.9999999999988631
 31
0.0
  0
LINE
  5
14F
100
AcDbEntity
100
AcDbLine
  8
guides_dimensions
 62
256
370
-1
  6
BYLAYER
 10
799.9999999999988631
 20
699.9999999999997726
 30
0.0
 11
200.0000000000011937
 21
700.0000000000002274
 31
0.0
  0
LINE
  5
150
100
AcDbEntity
100
AcDbLine
  8
printing_alignment_guides
 62
256
370
-1
  6
BYLAYER
 10
595.0000000000002274
 20
634.9999999999986358
 30
0.0
 11
625.0000000000002274
 21
604.9999999999986358
 31
0.0
  0
LINE
  5
151
100
AcDbEntity
100
AcDbLine
  8
printing_alignment_guides
 62
256
370
-1
  6
BYLAYER
 10
625.0000000000002274
 20
634.9999999999986358
 30
0.0
 11
595.0000000000002274
 21
604.9999999999986358
 31
0.0
  0
LINE
  5
152
100
AcDbEntity
100
AcDbLine
  8
printing_alignment_guides
 62
256
370
-1
  6
BYLAYER
 10
595.0000000000002274
 20
604.9999999999986358
 30
0.0
 11
595.0000000000002274
 21
634.9999999999986358
 31
0.0
  0
LINE
  5
153
100
AcDbEntity
100
AcDbLine
  8
printing_alignment_guides
 62
256
370
-1
  6
BYLAYER
 10
595.0000000000002274
 20
634.9999999999986358
 30
0.0
 11
625.0000000000002274
 21
634.9999999999986358
 31
0.0
  0
LINE
  5
154
100
AcDbEntity
100
AcDbLine
  8
printing_alignment_guides
 62
256
370
-1
  6
BYLAYER
 10
625.0000000000002274
 20
634.9999999999986358
 30
0.0
 11
625.0000000000002274
 21
604.9999999999986358
 31
0.0
  0
LINE
  5
155
100
AcDbEntity
100
AcDbLine
  8
printing_alignment_guides
 62
256
370
-1
  6
BYLAYER
 10
625.0000000000002274
 20
604.9999999999986358
 30
0.0
 11
595.0000000000002274
 21
604.9999999999986358
 31
0.0
  0
LINE
  5
156
100
AcDbEntity
100
AcDbLine
  8
printing_alignment_guides
 62
256
370
-1
  6
BYLAYER
 10
595.0000000000002274
 20
794.9999999999986358
 30
0.0
 11
595.0000000000002274
 21
764.9999999999985221
 31
0.0
  0
LINE
  5
157
100
AcDbEntity
100
AcDbLine
  8
printing_alignment_guides
 62
256
370
-1
  6
BYLAYER
 10
595.0000000000002274
 20
764.9999999999985221
 30
0.0
 11
625.0000000000002274
 21
764.9999999999985221
 31
0.0
  0
LINE
  5
158
100
AcDbEntity
100
AcDbLine
  8
printing_alignment_guides
 62
256
370
-1
  6
BYLAYER
 10
625.0000000000002274
 20
764.9999999999985221
 30
0.0
 11
625.0000000000002274
 21
794.9999999999985221
 31
0.0
  0
LINE
  5
159
100
AcDbEntity
100
AcDbLine
  8
printing_alignment_guides
 62
256
370
-1
  6
BYLAYER
 10
625.0000000000002274
 20
794.9999999999985221
 30
0.0
 11
595.0000000000002274
 21
794.9999999999986358
 31
0.0
  0
LINE
  5
15A
100
AcDbEntity
100
AcDbLine
  8
printing_alignment_guides
 62
256
370
-1
  6
BYLAYER
 10
595.0000000000002274
 20
764.9999999999985221
 30
0.0
 11
625.0000000000002274
 21
794.9999999999985221
 31
0.0
  0
LINE
  5
15B
100
AcDbEntity
100
AcDbLine
  8
printing_alignment_guides
 62
256
370
-1
  6
BYLAYER
 10
625.0000000000002274
 20
764.9999999999985221
 30
0.0
 11
595.0000000000002274
 21
794.9999999999986358
 31
0.0
  0
LINE
  5
15C
100
AcDbEntity
100
AcDbLine
  8
printing_alignment_guides
 62
256
370
-1
  6
BYLAYER
 10
404.9999999999985221
 20
605.0000000000009095
 30
0.0
 11
404.999999999999261
 21
635.0000000000010232
 31
0.0
  0
LINE
  5
15D
100
AcDbEntity
100
AcDbLine
  8
printing_alignment_guides
 62
256
370
-1
  6
BYLAYER
 10
404.999999999999261
 20
635.0000000000010232
 30
0.0
 11
374.999999999999261
 21
635.000000000001819
 31
0.0
  0
LINE
  5
15E
100
AcDbEntity
100
AcDbLine
  8
printing_alignment_guides
 62
256
370
-1
  6
BYLAYER
 10
374.999999999999261
 20
635.000000000001819
 30
0.0
 11
374.9999999999985221
 21
605.000000000001819
 31
0.0
  0
LINE
  5
15F
100
AcDbEntity
100
AcDbLine
  8
printing_alignment_guides
 62
256
370
-1
  6
BYLAYER
 10
374.9999999999985221
 20
605.000000000001819
 30
0.0
 11
404.9999999999985221
 21
605.0000000000009095
 31
0.0
  0
LINE
  5
160
100
AcDbEntity
100
AcDbLine
  8
printing_alignment_guides
 62
256
370
-1
  6
BYLAYER
 10
405.0000000000032401
 20
795.0000000000009095
 30
0.0
 11
405.000000000002558
 21
765.0000000000009095
 31
0.0
  0
LINE
  5
161
100
AcDbEntity
100
AcDbLine
  8
printing_alignment_guides
 62
256
370
-1
  6
BYLAYER
 10
405.000000000002558
 20
765.0000000000009095
 30
0.0
 11
375.0000000000025011
 21
765.0000000000015916
 31
0.0
  0
LINE
  5
162
100
AcDbEntity
100
AcDbLine
  8
printing_alignment_guides
 62
256
370
-1
  6
BYLAYER
 10
375.0000000000025011
 20
765.0000000000015916
 30
0.0
 11
375.0000000000032401
 21
795.0000000000017053
 31
0.0
  0
LINE
  5
163
100
AcDbEntity
100
AcDbLine
  8
printing_alignment_guides
 62
256
370
-1
  6
BYLAYER
 10
375.0000000000032401
 20
795.0000000000017053
 30
0.0
 11
405.0000000000032401
 21
795.0000000000009095
 31
0.0
  0
LINE
  5
164
100
AcDbEntity
100
AcDbLine
  8
printing_alignment_guides
 62
256
370
-1
  6
BYLAYER
 10
405.000000000002558
 20
765.0000000000009095
 30
0.0
 11
375.0000000000032401
 21
795.0000000000017053
 31
0.0
  0
LINE
  5
165
100
AcDbEntity
100
AcDbLine
  8
printing_alignment_guides
 62
256
370
-1
  6
BYLAYER
 10
375.0000000000025011
 20
765.0000000000015916
 30
0.0
 11
405.0000000000032401
 21
795.0000000000009095
 31
0.0
  0
LINE
  5
166
100
AcDbEntity
100
AcDbLine
  8
printing_alignment_guides
 62
256
370
-1
  6
BYLAYER
 10
404.999999999999261
 20
635.0000000000010232
 30
0.0
 11
374.9999999999985221
 21
605.000000000001819
 31
0.0
  0
LINE
  5
167
100
AcDbEntity
100
AcDbLine
  8
printing_alignment_guides
 62
256
370
-1
  6
BYLAYER
 10
374.999999999999261
 20
635.000000000001819
 30
0.0
 11
404.9999999999985221
 21
605.0000000000009095
 31
0.0
  0
MTEXT
  5
168
100
AcDbEntity
100
AcDbMText
  8
guides_dimensions
 62
256
370
-1
  6
BYLAYER
 10
899.9999999999995453
 20
679.9999999999997726
 30
0.0
 40
2.5
 41
0.0
 71
1
 72
1
  1
14" Radius Curve
  7
textstyle2
 50
0.0
 73
2
 44
1.0
  0
ARC
  5
169
100
AcDbEntity
  8
guides_dimensions
 62
256
370
-1
  6
BYLAYER
100
AcDbCircle
 10
939.9999999999995453
 20
317.528724574611374
 30
0.0
 40
356.0
100
AcDbArc
 50
81.9261458747800617
 51
98.0738541252199383
  0
LINE
  5
16A
100
AcDbEntity
100
AcDbLine
  8
guides_dimensions
 62
256
370
-1
  6
BYLAYER
 10
889.9999999999995453
 20
669.9999999999997726
 30
0.0
 11
889.9999999999995453
 21
719.9999999999997726
 31
0.0
  0
LINE
  5
16B
100
AcDbEntity
100
AcDbLine
  8
guides_dimensions
 62
256
370
-1
  6
BYLAYER
 10
989.9999999999995453
 20
719.9999999999997726
 30
0.0
 11
989.9999999999997726
 21
669.9999999999997726
 31
0.0
  0
ARC
  5
16C
100
AcDbEntity
  8
guides_dimensions
 62
256
370
-1
  6
BYLAYER
100
AcDbCircle
 10
939.9999999999995453
 20
1020.8737276666074649
 30
0.0
 40
305.0
100
AcDbArc
 50
260.5646612766968246
 51
279.4353387233031754
  0
MTEXT
  5
16D
100
AcDbEntity
100
AcDbMText
  8
guides_dimensions
 62
256
370
-1
  6
BYLAYER
 10
899.9999999999995453
 20
709.9999999999997726
 30
0.0
 40
2.5
 41
0.0
 71
1
 72
1
  1
12" Radius Curve
  7
textstyle3
 50
0.0
 73
2
 44
1.0
  0
LINE
  5
16E
100
AcDbEntity
100
AcDbLine
  8
back_bracing
 62
256
370
-1
  6
BYLAYER
 10
358.5
 20
-5.9999999999998295
 30
0.0
 11
750.0350757909168351
 21
-5.9999999999998295
 31
0.0
  0
LINE
  5
16F
100
AcDbEntity
100
AcDbLine
  8
back_bracing
 62
256
370
-1
  6
BYLAYER
 10
750.0350757909168351
 20
-5.9999999999998304
 30
0.0
 11
750.0350757909168351
 21
6.0000000000001696
 31
0.0
  0
LINE
  5
170
100
AcDbEntity
100
AcDbLine
  8
back_bracing
 62
256
370
-1
  6
BYLAYER
 10
750.0350757909168351
 20
6.0000000000001705
 30
0.0
 11
358.5
 21
6.0000000000001705
 31
0.0
  0
LINE
  5
171
100
AcDbEntity
100
AcDbLine
  8
back_bracing
 62
256
370
-1
  6
BYLAYER
 10
358.5
 20
6.0000000000001705
 30
0.0
 11
358.5
 21
-5.9999999999998295
 31
0.0
  0
LINE
  5
172
100
AcDbEntity
100
AcDbLine
  8
back_bracing
 62
256
370
-1
  6
BYLAYER
 10
406.5
 20
-121.9999999999998295
 30
0.0
 11
412.5
 21
-121.9999999999998295
 31
0.0
  0
LINE
  5
173
100
AcDbEntity
100
AcDbLine
  8
back_bracing
 62
256
370
-1
  6
BYLAYER
 10
412.5
 20
-121.9999999999998295
 30
0.0
 11
412.5
 21
122.0000000000001705
 31
0.0
  0
LINE
  5
174
100
AcDbEntity
100
AcDbLine
  8
back_bracing
 62
256
370
-1
  6
BYLAYER
 10
406.5
 20
122.000000000000199
 30
0.0
 11
406.5
 21
-121.9999999999998295
 31
0.0
  0
LINE
  5
175
100
AcDbEntity
100
AcDbLine
  8
back_bracing
 62
256
370
-1
  6
BYLAYER
 10
514.9909619007751189
 20
-102.9999999999998295
 30
0.0
 11
520.9909619007751189
 21
-102.9999999999998295
 31
0.0
  0
LINE
  5
176
100
AcDbEntity
100
AcDbLine
  8
back_bracing
 62
256
370
-1
  6
BYLAYER
 10
520.9909619007751189
 20
-102.9999999999998295
 30
0.0
 11
520.9909619007751189
 21
103.0000000000001137
 31
0.0
  0
LINE
  5
177
100
AcDbEntity
100
AcDbLine
  8
back_bracing
 62
256
370
-1
  6
BYLAYER
 10
514.9909619007751189
 20
103.0000000000001705
 30
0.0
 11
514.9909619007751189
 21
-102.9999999999998295
 31
0.0
  0
LINE
  5
178
100
AcDbEntity
100
AcDbLine
  8
back_bracing
 62
256
370
-1
  6
BYLAYER
 10
690.5
 20
-158.9999999999998295
 30
0.0
 11
696.5
 21
-158.9999999999998295
 31
0.0
  0
LINE
  5
179
100
AcDbEntity
100
AcDbLine
  8
back_bracing
 62
256
370
-1
  6
BYLAYER
 10
696.5
 20
-158.9999999999998295
 30
0.0
 11
696.5
 21
159.0000000000001137
 31
0.0
  0
LINE
  5
17A
100
AcDbEntity
100
AcDbLine
  8
back_bracing
 62
256
370
-1
  6
BYLAYER
 10
690.5
 20
159.0000000000002274
 30
0.0
 11
690.5
 21
-158.9999999999998295
 31
0.0
  0
LINE
  5
17B
100
AcDbEntity
100
AcDbLine
  8
back_bracing
 62
256
370
-1
  6
BYLAYER
 10
406.5
 20
122.0000000000002132
 30
0.0
 11
412.5
 21
122.0000000000001563
 31
0.0
  0
LINE
  5
17C
100
AcDbEntity
100
AcDbLine
  8
back_bracing
 62
256
370
-1
  6
BYLAYER
 10
514.9909619007751189
 20
103.0000000000001847
 30
0.0
 11
520.9909619007751189
 21
103.0000000000001563
 31
0.0
  0
LINE
  5
17D
100
AcDbEntity
100
AcDbLine
  8
back_bracing
 62
256
370
-1
  6
BYLAYER
 10
690.5
 20
159.000000000000199
 30
0.0
 11
696.5
 21
159.0000000000001137
 31
0.0
  0
LINE
  5
17E
100
AcDbEntity
100
AcDbLine
  8
0
 62
256
370
-1
  6
BYLAYER
 10
770.0000000000056843
 20
-394.9999999999732836
 30
0.0
 11
329.0
 21
-395.0
 31
0.0
  0
LINE
  5
17F
100
AcDbEntity
100
AcDbLine
  8
0
 62
256
370
-1
  6
BYLAYER
 10
329.0
 20
-300.0
 30
0.0
 11
769.9999999999997726
 21
-299.9999999999732836
 31
0.0
  0
LINE
  5
180
100
AcDbEntity
100
AcDbLine
  8
0
 62
256
370
-1
  6
BYLAYER
 10
-200.0
 20
-665.0
 30
0.0
 11
-200.0
 21
-600.0
 31
0.0
  0
LINE
  5
181
100
AcDbEntity
100
AcDbLine
  8
0
 62
256
370
-1
  6
BYLAYER
 10
-200.0
 20
-665.0
 30
0.0
 11
-100.0
 21
-665.0
 31
0.0
  0
LINE
  5
182
100
AcDbEntity
100
AcDbLine
  8
0
 62
256
370
-1
  6
BYLAYER
 10
-200.0
 20
-600.0
 30
0.0
 11
-100.0
 21
-600.0
 31
0.0
  0
LINE
  5
183
100
AcDbEntity
100
AcDbLine
  8
0
 62
256
370
-1
  6
BYLAYER
 10
-200.0
 20
-600.0
 30
0.0
 11
-120.0
 21
-600.0
 31
0.0
  0
LINE
  5
184
100
AcDbEntity
100
AcDbLine
  8
0
 62
256
370
-1
  6
BYLAYER
 10
-120.0
 20
-600.0
 30
0.0
 11
-120.0
 21
-665.0
 31
0.0
  0
LINE
  5
185
100
AcDbEntity
100
AcDbLine
  8
0
 62
256
370
-1
  6
BYLAYER
 10
-100.0
 20
-600.0
 30
0.0
 11
-100.0
 21
-665.0
 31
0.0
  0
MTEXT
  5
186
100
AcDbEntity
100
AcDbMText
  8
0
 62
256
370
-1
  6
BYLAYER
 10
-170.0
 20
-590.0
 30
0.0
 40
2.5
 41
0.0
 71
1
 72
1
  1
Heel Block
  7
textstyle4
 50
0.0
 73
2
 44
1.0
  0
MTEXT
  5
187
100
AcDbEntity
100
AcDbMText
  8
0
 62
256
370
-1
  6
BYLAYER
 10
-180.0
 20
-610.0
 30
0.0
 40
2.5
 41
0.0
 71
1
 72
1
  1
Top
  7
textstyle5
 50
0.0
 73
2
 44
1.0
  0
LINE
  5
188
100
AcDbEntity
100
AcDbLine
  8
0
 62
256
370
-1
  6
BYLAYER
 10
-169.9999999999993747
 20
-743.0
 30
0.0
 11
-200.0
 21
-743.0
 31
0.0
  0
LINE
  5
189
100
AcDbEntity
100
AcDbLine
  8
0
 62
256
370
-1
  6
BYLAYER
 10
-199.9999999999993747
 20
-740.0
 30
0.0
 11
-169.9999999999993747
 21
-740.0
 31
0.0
  0
LINE
  5
18A
100
AcDbEntity
100
AcDbLine
  8
0
 62
256
370
-1
  6
BYLAYER
 10
-169.9999999999993747
 20
-707.9999999999727152
 30
0.0
 11
-167.9999999999993747
 21
-707.9999999999727152
 31
0.0
  0
LINE
  5
18B
100
AcDbEntity
100
AcDbLine
  8
0
 62
256
370
-1
  6
BYLAYER
 10
-167.9999999999993747
 20
-707.9999999999727152
 30
0.0
 11
-167.9999999999993747
 21
-714.9999999999727152
 31
0.0
  0
LINE
  5
18C
100
AcDbEntity
100
AcDbLine
  8
0
 62
256
370
-1
  6
BYLAYER
 10
-167.9999999999993747
 20
-714.9999999999727152
 30
0.0
 11
-169.9999999999993747
 21
-714.9999999999727152
 31
0.0
  0
LINE
  5
18D
100
AcDbEntity
100
AcDbLine
  8
0
 62
256
370
-1
  6
BYLAYER
 10
-200.0
 20
-775.0
 30
0.0
 11
-200.0
 21
-680.0
 31
0.0
  0
LINE
  5
18E
100
AcDbEntity
100
AcDbLine
  8
0
 62
256
370
-1
  6
BYLAYER
 10
-169.9999999999993747
 20
-738.0
 30
0.0
 11
-167.9999999999993747
 21
-738.0
 31
0.0
  0
LINE
  5
18F
100
AcDbEntity
100
AcDbLine
  8
0
 62
256
370
-1
  6
BYLAYER
 10
-167.9999999999993747
 20
-738.0
 30
0.0
 11
-167.9999999999993747
 21
-745.0
 31
0.0
  0
LINE
  5
190
100
AcDbEntity
100
AcDbLine
  8
0
 62
256
370
-1
  6
BYLAYER
 10
-167.9999999999993747
 20
-745.0
 30
0.0
 11
-169.9999999999993747
 21
-745.0
 31
0.0
  0
LINE
  5
191
100
AcDbEntity
100
AcDbLine
  8
0
 62
256
370
-1
  6
BYLAYER
 10
-169.9999999999993463
 20
-704.9999999999998863
 30
0.0
 11
-169.9999999999991758
 21
-749.9999999999724878
 31
0.0
  0
LINE
  5
192
100
AcDbEntity
100
AcDbLine
  8
0
 62
256
370
-1
  6
BYLAYER
 10
-99.9999999999980673
 20
-772.1980390271821761
 30
0.0
 11
-99.9999999999978968
 21
-774.9999999999938609
 31
0.0
  0
LINE
  5
193
100
AcDbEntity
100
AcDbLine
  8
0
 62
256
370
-1
  6
BYLAYER
 10
-120.0000000000002132
 20
-682.5596934910659002
 30
0.0
 11
-120.0000000000002842
 21
-679.9999999999838565
 31
0.0
  0
LINE
  5
194
100
AcDbEntity
100
AcDbLine
  8
0
 62
256
370
-1
  6
BYLAYER
 10
-170.0
 20
-705.0
 30
0.0
 11
-127.1265211443319743
 21
-692.1379563432763007
 31
0.0
  0
LINE
  5
195
100
AcDbEntity
100
AcDbLine
  8
0
 62
256
370
-1
  6
BYLAYER
 10
-169.9999999999993463
 20
-749.9999999999727152
 30
0.0
 11
-108.0388386486125398
 21
-762.3922322702743486
 31
0.0
  0
LINE
  5
196
100
AcDbEntity
100
AcDbLine
  8
0
 62
256
370
-1
  6
BYLAYER
 10
-199.9999999999993747
 20
-709.9999999999727152
 30
0.0
 11
-169.9999999999993747
 21
-709.9999999999727152
 31
0.0
  0
LINE
  5
197
100
AcDbEntity
100
AcDbLine
  8
0
 62
256
370
-1
  6
BYLAYER
 10
-169.9999999999993747
 20
-712.9999999999727152
 30
0.0
 11
-200.0
 21
-712.9999999999727152
 31
0.0
  0
LINE
  5
198
100
AcDbEntity
100
AcDbLine
  8
0
 62
256
370
-1
  6
BYLAYER
 10
-120.0000000000002842
 20
-679.9999999999838565
 30
0.0
 11
-200.0
 21
-680.0
 31
0.0
  0
LINE
  5
199
100
AcDbEntity
100
AcDbLine
  8
0
 62
256
370
-1
  6
BYLAYER
 10
-200.0
 20
-775.0
 30
0.0
 11
-99.9999999999978968
 21
-774.9999999999938609
 31
0.0
  0
LINE
  5
19A
100
AcDbEntity
100
AcDbLine
  8
0
 62
9
420
12632256
370
-1
  6
BYLAYER
 10
-169.9999999999993747
 20
-704.9999999999997726
 30
0.0
 11
-200.0000000000000284
 21
-704.9999999999997726
 31
0.0
  0
LINE
  5
19B
100
AcDbEntity
100
AcDbLine
  8
0
 62
9
420
12632256
370
-1
  6
BYLAYER
 10
-169.9999999999993463
 20
-749.9999999999726015
 30
0.0
 11
-200.0
 21
-749.9999999999726015
 31
0.0
  0
LINE
  5
19C
100
AcDbEntity
100
AcDbLine
  8
0
 62
256
370
-1
  6
BYLAYER
 10
-50.0
 20
-680.0
 30
0.0
 11
15.0
 21
-680.0
 31
0.0
  0
LINE
  5
19D
100
AcDbEntity
100
AcDbLine
  8
0
 62
256
370
-1
  6
BYLAYER
 10
-50.0
 20
-775.0
 30
0.0
 11
-50.0
 21
-680.0
 31
0.0
  0
LINE
  5
19E
100
AcDbEntity
100
AcDbLine
  8
0
 62
256
370
-1
  6
BYLAYER
 10
-50.0
 20
-775.0
 30
0.0
 11
15.0
 21
-775.0
 31
0.0
  0
LINE
  5
19F
100
AcDbEntity
100
AcDbLine
  8
0
 62
256
370
-1
  6
BYLAYER
 10
15.0
 20
-775.0
 30
0.0
 11
15.0
 21
-680.0
 31
0.0
  0
LINE
  5
1A0
100
AcDbEntity
100
AcDbLine
  8
0
 62
256
370
-1
  6
BYLAYER
 10
-50.0
 20
-690.0
 30
0.0
 11
15.0
 21
-690.0
 31
0.0
  0
LINE
  5
1A1
100
AcDbEntity
100
AcDbLine
  8
0
 62
256
370
-1
  6
BYLAYER
 10
-50.0
 20
-705.0
 30
0.0
 11
15.0
 21
-705.0
 31
0.0
  0
LINE
  5
1A2
100
AcDbEntity
100
AcDbLine
  8
0
 62
256
370
-1
  6
BYLAYER
 10
-50.0
 20
-750.0
 30
0.0
 11
15.0
 21
-750.0
 31
0.0
  0
LINE
  5
1A3
100
AcDbEntity
100
AcDbLine
  8
0
 62
256
370
-1
  6
BYLAYER
 10
-50.0
 20
-764.0
 30
0.0
 11
15.0
 21
-764.0
 31
0.0
  0
CIRCLE
  5
1A4
100
AcDbEntity
100
AcDbCircle
  8
0
 62
256
370
-1
  6
BYLAYER
 10
-17.5000000000003126
 20
-741.5000000000272848
 30
0.0
 40
3.5
  0
CIRCLE
  5
1A5
100
AcDbEntity
100
AcDbCircle
  8
0
 62
256
370
-1
  6
BYLAYER
 10
-17.5000000000003126
 20
-711.5
 30
0.0
 40
3.5
  0
ARC
  5
1A6
100
AcDbEntity
  8
0
 62
256
370
-1
  6
BYLAYER
100
AcDbCircle
 10
-109.9999999999980673
 20
-772.1980390271828583
 30
0.0
 40
10.0
100
AcDbArc
 50
0.0
 51
78.6900675259582272
  0
ARC
  5
1A7
100
AcDbEntity
  8
0
 62
256
370
-1
  6
BYLAYER
100
AcDbCircle
 10
-130.000000000000199
 20
-682.5596934910662412
 30
0.0
 40
10.0
100
AcDbArc
 50
286.6992442340222169
 51
0.0
  0
MTEXT
  5
1A8
100
AcDbEntity
100
AcDbMText
  8
0
 62
256
370
-1
  6
BYLAYER
 10
-180.0
 20
-760.0
 30
0.0
 40
2.5
 41
0.0
 71
1
 72
1
  1
Grain goes this way
  7
textstyle6
 50
0.0
 73
2
 44
1.0
  0
DIMENSION
  5
1A9
100
AcDbEntity
  8
0
 62
256
370
-1
  6
BYLAYER
100
AcDbDimension
 10
-182.0
 20
-764.0
 30
0.0
 11
-165.0
 21
-762.125
 31
0.0
 70
1
 71
8
 72
2
 41
1.0
 42
0.0
  1

  3
Standard
100
AcDbAlignedDimension
 13
-182.0
 23
-764.0
 33
0.0
 14
-148.0
 24
-764.0
 34
0.0
1001
ACAD
1000
DSTYLE
1002
{
1070
144
1040
1
1002
}
  0
MTEXT
  5
1AA
100
AcDbEntity
100
AcDbMText
  8
0
 62
256
370
-1
  6
BYLAYER
 10
-178.1196124136820913
 20
-685.5236613971321731
 30
0.0
 40
2.5
 41
0.0
 71
1
 72
1
  1
Grain goes this way
  7
textstyle7
 50
0.0
 73
2
 44
1.0
  0
DIMENSION
  5
1AB
100
AcDbEntity
  8
0
 62
256
370
-1
  6
BYLAYER
100
AcDbDimension
 10
-180.1196124136821197
 20
-689.5236613971321731
 30
0.0
 11
-163.119612413682205
 21
-687.6486613971321731
 31
0.0
 70
1
 71
8
 72
2
 41
1.0
 42
0.0
  1

  3
Standard
100
AcDbAlignedDimension
 13
-180.1196124136821197
 23
-689.5236613971321731
 33
0.0
 14
-146.1196124136822618
 24
-689.5236613971321731
 34
0.0
1001
ACAD
1000
DSTYLE
1002
{
1070
144
1040
1
1002
}
  0
MTEXT
  5
1AC
100
AcDbEntity
100
AcDbMText
  8
0
 62
256
370
-1
  6
BYLAYER
 10
-31.9547458053207833
 20
-724.4380800008711958
 30
0.0
 40
2.5
 41
0.0
 71
1
 72
1
  1
Grain goes this way
  7
textstyle8
 50
0.0
 73
2
 44
1.0
  0
DIMENSION
  5
1AD
100
AcDbEntity
  8
0
 62
256
370
-1
  6
BYLAYER
100
AcDbDimension
 10
-33.9547458053208118
 20
-728.4380800008711958
 30
0.0
 11
-16.9547458053208828
 21
-726.5630800008711958
 31
0.0
 70
1
 71
8
 72
2
 41
1.0
 42
0.0
  1

  3
Standard
100
AcDbAlignedDimension
 13
-33.9547458053208118
 23
-728.4380800008711958
 33
0.0
 14
0.0452541946790461
 24
-728.4380800008711958
 34
0.0
1001
ACAD
1000
DSTYLE
1002
{
1070
144
1040
1
1002
}
  0
LINE
  5
1AE
100
AcDbEntity
100
AcDbLine
  8
0
 62
252
420
10526884
370
-1
  6
BYLAYER
 10
-190.0
 20
-680.0
 30
0.0
 11
-189.9999999999942304
 21
-774.9999999999993179
 31
0.0
  0
LINE
  5
1AF
100
AcDbEntity
100
AcDbLine
  8
0
 62
252
420
10526884
370
-1
  6
BYLAYER
 10
-188.0
 20
-680.0000000000020464
 30
0.0
 11
-187.9999999999942304
 21
-775.0000000000013642
 31
0.0
  0
LINE
  5
1B0
100
AcDbEntity
100
AcDbLine
  8
0
 62
252
420
10526884
370
-1
  6
BYLAYER
 10
-40.0
 20
-680.0000000000020464
 30
0.0
 11
-39.9999999999942304
 21
-775.0000000000013642
 31
0.0
  0
LINE
  5
1B1
100
AcDbEntity
100
AcDbLine
  8
0
 62
252
420
10526884
370
-1
  6
BYLAYER
 10
-38.0
 20
-680.000000000003979
 30
0.0
 11
-37.9999999999942304
 21
-775.0000000000034106
 31
0.0
  0
LINE
  5
1B2
100
AcDbEntity
100
AcDbLine
  8
0
 62
252
420
10526884
370
-1
  6
BYLAYER
 10
5.0000000000000142
 20
-680.0000000000020464
 30
0.0
 11
4.9999999999942304
 21
-775.0
 31
0.0
  0
LINE
  5
1B3
100
AcDbEntity
100
AcDbLine
  8
0
 62
252
420
10526884
370
-1
  6
BYLAYER
 10
3.0000000000000178
 20
-680.000000000003979
 30
0.0
 11
2.9999999999942304
 21
-775.0
 31
0.0
  0
MTEXT
  5
1B4
100
AcDbEntity
100
AcDbMText
  8
0
 62
256
370
-1
  6
BYLAYER
 10
5.1344056822529751
 20
-768.1449826733398822
 30
0.0
 40
2.5
 41
0.0
 71
1
 72
1
  1
Glued dowel supports
  7
textstyle9
 50
90.0
 73
2
 44
1.0
  0
MTEXT
  5
1B5
100
AcDbEntity
100
AcDbMText
  8
0
 62
256
370
-1
  6
BYLAYER
 10
-4.0
 20
-288.0
 30
0.0
 40
2.5
 41
0.0
 71
1
 72
1
  1
Zero fret
  7
textstyle10
 50
0.0
 73
2
 44
1.0
  0
LINE
  5
1B6
100
AcDbEntity
100
AcDbLine
  8
printing_alignment_guides
 62
256
370
-1
  6
BYLAYER
 10
190.3209999999999695
 20
14.9999999999999751
 30
0.0
 11
220.3209999999999695
 21
-15.0000000000000249
 31
0.0
  0
LINE
  5
1B7
100
AcDbEntity
100
AcDbLine
  8
printing_alignment_guides
 62
256
370
-1
  6
BYLAYER
 10
220.3209999999999695
 20
14.9999999999999751
 30
0.0
 11
190.3209999999999695
 21
-15.0000000000000249
 31
0.0
  0
LINE
  5
1B8
100
AcDbEntity
100
AcDbLine
  8
printing_alignment_guides
 62
256
370
-1
  6
BYLAYER
 10
190.3209999999999695
 20
-15.0000000000000249
 30
0.0
 11
190.3209999999999695
 21
14.9999999999999751
 31
0.0
  0
LINE
  5
1B9
100
AcDbEntity
100
AcDbLine
  8
printing_alignment_guides
 62
256
370
-1
  6
BYLAYER
 10
190.3209999999999695
 20
14.9999999999999751
 30
0.0
 11
220.3209999999999695
 21
14.9999999999999751
 31
0.0
  0
LINE
  5
1BA
100
AcDbEntity
100
AcDbLine
  8
printing_alignment_guides
 62
256
370
-1
  6
BYLAYER
 10
220.3209999999999695
 20
14.9999999999999751
 30
0.0
 11
220.3209999999999695
 21
-15.0000000000000249
 31
0.0
  0
LINE
  5
1BB
100
AcDbEntity
100
AcDbLine
  8
printing_alignment_guides
 62
256
370
-1
  6
BYLAYER
 10
220.3209999999999695
 20
-15.0000000000000249
 30
0.0
 11
190.3209999999999695
 21
-15.0000000000000249
 31
0.0
  0
ARC
  5
1BC
100
AcDbEntity
  8
0
 62
256
370
-1
  6
BYLAYER
100
AcDbCircle
 10
-11.493884340680907
 20
352.3758956045396644
 30
0.0
 40
24.170314505740528
100
AcDbArc
 50
86.4564856280752707
 51
139.9967758522276711
  0
INSERT
  5
1BD
100
AcDbEntity
100
AcDbBlockReference
  8
0
 62
256
370
-1
  6
BYLAYER
  2
classical_tuners
 10
-95.0
 20
364.0000000000002274
 30
0.0
 41
1.0
 42
-1.0
 43
1.0
 50
182.3999999999998067
  0
LINE
  5
1BE
100
AcDbEntity
100
AcDbLine
  8
0
 62
256
370
-1
  6
BYLAYER
 10
-45.3263803560758731
 20
375.2865057825968051
 30
0.0
 11
-138.7004689428647453
 21
371.4239030343046579
 31
0.0
  0
LINE
  5
1BF
100
AcDbEntity
100
AcDbLine
  8
0
 62
256
370
-1
  6
BYLAYER
 10
-45.8223597631263573
 20
387.2762515858980805
 30
0.0
 11
-139.1964483499152152
 21
383.4136488376058196
 31
0.0
  0
ARC
  5
1C0
100
AcDbEntity
  8
0
 62
256
370
-1
  6
BYLAYER
100
AcDbCircle
 10
-138.9484586463899518
 20
377.4187759359552956
 30
0.0
 40
6.0000000000000053
100
AcDbArc
 50
92.3688019942726157
 51
272.3688019942725873
  0
LINE
  5
1C1
100
AcDbEntity
100
AcDbLine
  8
0
 62
256
370
-1
  6
BYLAYER
 10
-170.0
 20
355.0000000000002274
 30
0.0
 11
-20.0
 21
355.0000000000002274
 31
0.0
  0
LINE
  5
1C2
100
AcDbEntity
100
AcDbLine
  8
0
 62
256
370
-1
  6
BYLAYER
 10
-20.0
 20
355.0000000000002274
 30
0.0
 11
-20.0
 21
445.0000000000002274
 31
0.0
  0
LINE
  5
1C3
100
AcDbEntity
100
AcDbLine
  8
0
 62
256
370
-1
  6
BYLAYER
 10
-20.0
 20
445.0000000000002274
 30
0.0
 11
-170.0
 21
445.0000000000002274
 31
0.0
  0
LINE
  5
1C4
100
AcDbEntity
100
AcDbLine
  8
0
 62
256
370
-1
  6
BYLAYER
 10
-170.0
 20
445.0000000000002274
 30
0.0
 11
-170.0
 21
355.0000000000002274
 31
0.0
  0
ARC
  5
1C5
100
AcDbEntity
  8
0
 62
256
370
-1
  6
BYLAYER
100
AcDbCircle
 10
-157.1836119339710649
 20
407.9983441719292614
 30
0.0
 40
5.0
100
AcDbArc
 50
117.037857925512597
 51
216.8938329101197553
  0
ARC
  5
1C6
100
AcDbEntity
  8
0
 62
256
370
-1
  6
BYLAYER
100
AcDbCircle
 10
-170.4389042882384615
 20
426.9788566077656924
 30
0.0
 40
18.5447853809342931
100
AcDbArc
 50
318.8751988861924929
 51
321.3455010674388745
  0
ARC
  5
1C7
100
AcDbEntity
  8
0
 62
256
370
-1
  6
BYLAYER
100
AcDbCircle
 10
-164.0022988704596969
 20
421.3589395352414613
 30
0.0
 40
10.0
100
AcDbArc
 50
297.0378579255126397
 51
318.8751988861923792
  0
ARC
  5
1C8
100
AcDbEntity
  8
0
 62
256
370
-1
  6
BYLAYER
100
AcDbCircle
 10
-161.0
 20
400.0000000000002274
 30
0.0
 40
5.0
100
AcDbArc
 50
92.090136171095665
 51
180.0
  0
ARC
  5
1C9
100
AcDbEntity
  8
0
 62
256
370
-1
  6
BYLAYER
100
AcDbCircle
 10
-157.1836119339710649
 20
392.0016558280711934
 30
0.0
 40
5.0
100
AcDbArc
 50
143.1061670898802447
 51
242.9621420744873888
  0
ARC
  5
1CA
100
AcDbEntity
  8
0
 62
256
370
-1
  6
BYLAYER
100
AcDbCircle
 10
-170.4389042882384615
 20
373.0211433922347624
 30
0.0
 40
18.5447853809342931
100
AcDbArc
 50
38.6544989325612107
 51
41.1248011138075498
  0
ARC
  5
1CB
100
AcDbEntity
  8
0
 62
256
370
-1
  6
BYLAYER
100
AcDbCircle
 10
-164.0022988704596969
 20
378.6410604647589935
 30
0.0
 40
10.0
100
AcDbArc
 50
41.1248011138076066
 51
62.962142074487403
  0
ARC
  5
1CC
100
AcDbEntity
  8
0
 62
256
370
-1
  6
BYLAYER
100
AcDbCircle
 10
-161.0
 20
400.0000000000002274
 30
0.0
 40
5.0
100
AcDbArc
 50
180.0
 51
267.9098638289043492
  0
ARC
  5
1CD
100
AcDbEntity
  8
0
 62
256
370
-1
  6
BYLAYER
100
AcDbCircle
 10
-159.8614198259224111
 20
418.518476387880014
 30
0.0
 40
5.0
100
AcDbArc
 50
321.3455010674387609
 51
13.8274755813845189
  0
ARC
  5
1CE
100
AcDbEntity
  8
0
 62
256
370
-1
  6
BYLAYER
100
AcDbCircle
 10
-159.8614198259224111
 20
381.4815236121204407
 30
0.0
 40
5.0
100
AcDbArc
 50
346.17252441861541
 51
38.6544989325611894
  0
ARC
  5
1CF
100
AcDbEntity
  8
0
 62
256
370
-1
  6
BYLAYER
100
AcDbCircle
 10
-155.9622361170861495
 20
435.2952953848594007
 30
0.0
 40
2.0
100
AcDbArc
 50
87.6311980057278674
 51
182.3028296414119325
  0
ARC
  5
1D0
100
AcDbEntity
  8
0
 62
256
370
-1
  6
BYLAYER
100
AcDbCircle
 10
-104.5434957079283436
 20
362.6369711694761691
 30
0.0
 40
53.4602991330858757
100
AcDbArc
 50
160.722529697327019
 51
177.6971703585882096
  0
ARC
  5
1D1
100
AcDbEntity
  8
0
 62
256
370
-1
  6
BYLAYER
100
AcDbCircle
 10
-155.9622361170861495
 20
364.7047046151411678
 30
0.0
 40
2.0
100
AcDbArc
 50
177.6971703585880675
 51
272.3688019942721326
  0
LINE
  5
1D2
100
AcDbEntity
100
AcDbLine
  8
0
 62
256
370
-1
  6
BYLAYER
 10
-30.0085451639155423
 20
367.9133161725424088
 30
0.0
 11
-155.8795728825777474
 21
362.7064136479242507
 31
0.0
  0
LINE
  5
1D3
100
AcDbEntity
100
AcDbLine
  8
0
 62
256
370
-1
  6
BYLAYER
 10
-170.0
 20
400.0000000000002274
 30
0.0
 11
-10.0
 21
400.0000000000001137
 31
0.0
  0
LINE
  5
1D4
100
AcDbEntity
100
AcDbLine
  8
frets
 62
256
370
-1
  6
BYLAYER
 10
0.0
 20
376.3597920099966814
 30
0.0
 11
0.0
 21
423.6402079900033186
 31
0.0
  0
LINE
  5
1D5
100
AcDbEntity
100
AcDbLine
  8
frets
 62
256
370
-1
  6
BYLAYER
 10
36.2010000000000005
 20
375.0000000000002274
 30
0.0
 11
36.2010000000000005
 21
435.0000000000002274
 31
0.0
  0
LINE
  5
1D6
100
AcDbEntity
100
AcDbLine
  8
frets
 62
256
370
-1
  6
BYLAYER
 10
70.3700000000000045
 20
375.0000000000002274
 30
0.0
 11
70.3700000000000045
 21
435.0000000000002274
 31
0.0
  0
LINE
  5
1D7
100
AcDbEntity
100
AcDbLine
  8
frets
 62
256
370
-1
  6
BYLAYER
 10
102.6219999999999999
 20
375.0000000000002274
 30
0.0
 11
102.6219999999999999
 21
435.0000000000002274
 31
0.0
  0
LINE
  5
1D8
100
AcDbEntity
100
AcDbLine
  8
frets
 62
256
370
-1
  6
BYLAYER
 10
133.0629999999999882
 20
375.0000000000002274
 30
0.0
 11
133.0629999999999882
 21
435.0000000000002274
 31
0.0
  0
LINE
  5
1D9
100
AcDbEntity
100
AcDbLine
  8
frets
 62
256
370
-1
  6
BYLAYER
 10
161.7959999999999923
 20
375.0000000000002274
 30
0.0
 11
161.7959999999999923
 21
435.0000000000002274
 31
0.0
  0
LINE
  5
1DA
100
AcDbEntity
100
AcDbLine
  8
frets
 62
256
370
-1
  6
BYLAYER
 10
188.9159999999999968
 20
375.0000000000002274
 30
0.0
 11
188.9159999999999968
 21
435.0000000000002274
 31
0.0
  0
LINE
  5
1DB
100
AcDbEntity
100
AcDbLine
  8
frets
 62
256
370
-1
  6
BYLAYER
 10
214.51400000000001
 20
375.0000000000002274
 30
0.0
 11
214.51400000000001
 21
435.0000000000002274
 31
0.0
  0
LINE
  5
1DC
100
AcDbEntity
100
AcDbLine
  8
frets
 62
256
370
-1
  6
BYLAYER
 10
238.6750000000000114
 20
375.0000000000002274
 30
0.0
 11
238.6750000000000114
 21
435.0000000000002274
 31
0.0
  0
LINE
  5
1DD
100
AcDbEntity
100
AcDbLine
  8
frets
 62
256
370
-1
  6
BYLAYER
 10
261.4809999999999945
 20
375.0000000000002274
 30
0.0
 11
261.4809999999999945
 21
435.0000000000002274
 31
0.0
  0
LINE
  5
1DE
100
AcDbEntity
100
AcDbLine
  8
frets
 62
256
370
-1
  6
BYLAYER
 10
283.0059999999999718
 20
375.0000000000002274
 30
0.0
 11
283.0059999999999718
 21
435.0000000000002274
 31
0.0
  0
LINE
  5
1DF
100
AcDbEntity
100
AcDbLine
  8
frets
 62
256
370
-1
  6
BYLAYER
 10
303.3229999999999791
 20
375.0000000000002274
 30
0.0
 11
303.3229999999999791
 21
435.0000000000002274
 31
0.0
  0
LINE
  5
1E0
100
AcDbEntity
100
AcDbLine
  8
frets
 62
256
370
-1
  6
BYLAYER
 10
322.5
 20
375.0000000000002274
 30
0.0
 11
322.5
 21
435.0000000000002274
 31
0.0
  0
LINE
  5
1E1
100
AcDbEntity
100
AcDbLine
  8
frets
 62
256
370
-1
  6
BYLAYER
 10
340.6009999999999991
 20
375.0000000000002274
 30
0.0
 11
340.6009999999999991
 21
435.0000000000002274
 31
0.0
  0
LINE
  5
1E2
100
AcDbEntity
100
AcDbLine
  8
frets
 62
256
370
-1
  6
BYLAYER
 10
357.6850000000000023
 20
375.0000000000002274
 30
0.0
 11
357.6850000000000023
 21
435.0000000000002274
 31
0.0
  0
LINE
  5
1E3
100
AcDbEntity
100
AcDbLine
  8
frets
 62
256
370
-1
  6
BYLAYER
 10
373.8109999999999786
 20
375.0000000000002274
 30
0.0
 11
373.8109999999999786
 21
435.0000000000002274
 31
0.0
  0
LINE
  5
1E4
100
AcDbEntity
100
AcDbLine
  8
frets
 62
256
370
-1
  6
BYLAYER
 10
389.0319999999999823
 20
375.0000000000002274
 30
0.0
 11
389.0319999999999823
 21
435.0000000000002274
 31
0.0
  0
LINE
  5
1E5
100
AcDbEntity
100
AcDbLine
  8
frets
 62
256
370
-1
  6
BYLAYER
 10
403.3980000000000246
 20
375.0000000000002274
 30
0.0
 11
403.3980000000000246
 21
435.0000000000002274
 31
0.0
  0
LINE
  5
1E6
100
AcDbEntity
100
AcDbLine
  8
frets
 62
256
370
-1
  6
BYLAYER
 10
416.9580000000000268
 20
375.0000000000002274
 30
0.0
 11
416.9580000000000268
 21
435.0000000000002274
 31
0.0
  0
LINE
  5
1E7
100
AcDbEntity
100
AcDbLine
  8
frets
 62
256
370
-1
  6
BYLAYER
 10
429.757000000000005
 20
375.0000000000002274
 30
0.0
 11
429.757000000000005
 21
435.0000000000002274
 31
0.0
  0
LINE
  5
1E8
100
AcDbEntity
100
AcDbLine
  8
frets
 62
256
370
-1
  6
BYLAYER
 10
441.8380000000000223
 20
375.0000000000002274
 30
0.0
 11
441.8380000000000223
 21
435.0000000000002274
 31
0.0
  0
LINE
  5
1E9
100
AcDbEntity
100
AcDbLine
  8
frets
 62
256
370
-1
  6
BYLAYER
 10
453.2400000000000091
 20
375.0000000000002274
 30
0.0
 11
453.2400000000000091
 21
435.0000000000002274
 31
0.0
  0
LINE
  5
1EA
100
AcDbEntity
100
AcDbLine
  8
frets
 62
256
370
-1
  6
BYLAYER
 10
-10.0
 20
375.0000000000001137
 30
0.0
 11
-10.0
 21
435.0
 31
0.0
  0
LINE
  5
1EB
100
AcDbEntity
100
AcDbLine
  8
frets
 62
256
370
-1
  6
BYLAYER
 10
-10.0
 20
435.0
 30
0.0
 11
453.2400000000000091
 21
435.0000000000002274
 31
0.0
  0
LINE
  5
1EC
100
AcDbEntity
100
AcDbLine
  8
frets
 62
256
370
-1
  6
BYLAYER
 10
-10.0
 20
375.0000000000001137
 30
0.0
 11
453.2400000000000091
 21
375.0000000000002274
 31
0.0
  0
LINE
  5
1ED
100
AcDbEntity
100
AcDbLine
  8
printing_alignment_guides
 62
256
370
-1
  6
BYLAYER
 10
248.0060000000000286
 20
415.0000000000002274
 30
0.0
 11
278.0060000000000286
 21
385.0000000000002274
 31
0.0
  0
LINE
  5
1EE
100
AcDbEntity
100
AcDbLine
  8
printing_alignment_guides
 62
256
370
-1
  6
BYLAYER
 10
278.0060000000000286
 20
415.0000000000002274
 30
0.0
 11
248.0060000000000286
 21
385.0000000000002274
 31
0.0
  0
LINE
  5
1EF
100
AcDbEntity
100
AcDbLine
  8
printing_alignment_guides
 62
256
370
-1
  6
BYLAYER
 10
248.0060000000000286
 20
385.0000000000002274
 30
0.0
 11
248.0060000000000286
 21
415.0000000000002274
 31
0.0
  0
LINE
  5
1F0
100
AcDbEntity
100
AcDbLine
  8
printing_alignment_guides
 62
256
370
-1
  6
BYLAYER
 10
248.0060000000000286
 20
415.0000000000002274
 30
0.0
 11
278.0060000000000286
 21
415.0000000000002274
 31
0.0
  0
LINE
  5
1F1
100
AcDbEntity
100
AcDbLine
  8
printing_alignment_guides
 62
256
370
-1
  6
BYLAYER
 10
278.0060000000000286
 20
415.0000000000002274
 30
0.0
 11
278.0060000000000286
 21
385.0000000000002274
 31
0.0
  0
LINE
  5
1F2
100
AcDbEntity
100
AcDbLine
  8
guides_dimensions
 62
256
370
-1
  6
BYLAYER
 10
857.6850000000000591
 20
400.0000000000002274
 30
0.0
 11
327.6850000000000591
 21
400.0000000000002274
 31
0.0
  0
LINE
  5
1F3
100
AcDbEntity
100
AcDbLine
  8
printing_alignment_guides
 62
256
370
-1
  6
BYLAYER
 10
278.0060000000000286
 20
385.0000000000002274
 30
0.0
 11
248.0060000000000286
 21
385.0000000000002274
 31
0.0
  0
LINE
  5
1F4
100
AcDbEntity
100
AcDbLine
  8
guides_dimensions
 62
256
370
-1
  6
BYLAYER
 10
492.6877932958287829
 20
544.5634345445632789
 30
0.0
 11
492.6877932958287829
 21
256.5634345445631652
 31
0.0
  0
LINE
  5
1F5
100
AcDbEntity
100
AcDbLine
  8
guides_dimensions
 62
256
370
-1
  6
BYLAYER
 10
528.1940380992248265
 20
553.6354132638123247
 30
0.0
 11
528.1940380992249402
 21
246.3645867361881301
 31
0.0
  0
LINE
  5
1F6
100
AcDbEntity
100
AcDbLine
  8
printing_alignment_guides
 62
256
370
-1
  6
BYLAYER
 10
542.6850000000000591
 20
415.0000000000002274
 30
0.0
 11
572.6850000000000591
 21
385.0000000000002274
 31
0.0
  0
LINE
  5
1F7
100
AcDbEntity
100
AcDbLine
  8
printing_alignment_guides
 62
256
370
-1
  6
BYLAYER
 10
572.6850000000000591
 20
415.0000000000002274
 30
0.0
 11
542.6850000000000591
 21
385.0000000000002274
 31
0.0
  0
LINE
  5
1F8
100
AcDbEntity
100
AcDbLine
  8
printing_alignment_guides
 62
256
370
-1
  6
BYLAYER
 10
542.6850000000000591
 20
385.0000000000002274
 30
0.0
 11
542.6850000000000591
 21
415.0000000000002274
 31
0.0
  0
LINE
  5
1F9
100
AcDbEntity
100
AcDbLine
  8
printing_alignment_guides
 62
256
370
-1
  6
BYLAYER
 10
542.6850000000000591
 20
415.0000000000002274
 30
0.0
 11
572.6850000000000591
 21
415.0000000000002274
 31
0.0
  0
LINE
  5
1FA
100
AcDbEntity
100
AcDbLine
  8
printing_alignment_guides
 62
256
370
-1
  6
BYLAYER
 10
572.6850000000000591
 20
415.0000000000002274
 30
0.0
 11
572.6850000000000591
 21
385.0000000000002274
 31
0.0
  0
LINE
  5
1FB
100
AcDbEntity
100
AcDbLine
  8
printing_alignment_guides
 62
256
370
-1
  6
BYLAYER
 10
572.6850000000000591
 20
385.0000000000002274
 30
0.0
 11
542.6850000000000591
 21
385.0000000000002274
 31
0.0
  0
LINE
  5
1FC
100
AcDbEntity
100
AcDbLine
  8
printing_alignment_guides
 62
256
370
-1
  6
BYLAYER
 10
792.8007776153410759
 20
415.0000000000002274
 30
0.0
 11
822.8007776153410759
 21
385.0000000000002274
 31
0.0
  0
LINE
  5
1FD
100
AcDbEntity
100
AcDbLine
  8
printing_alignment_guides
 62
256
370
-1
  6
BYLAYER
 10
822.8007776153410759
 20
415.0000000000002274
 30
0.0
 11
792.8007776153410759
 21
385.0000000000002274
 31
0.0
  0
LINE
  5
1FE
100
AcDbEntity
100
AcDbLine
  8
printing_alignment_guides
 62
256
370
-1
  6
BYLAYER
 10
792.8007776153410759
 20
385.0000000000002274
 30
0.0
 11
792.8007776153410759
 21
415.0000000000002274
 31
0.0
  0
LINE
  5
1FF
100
AcDbEntity
100
AcDbLine
  8
printing_alignment_guides
 62
256
370
-1
  6
BYLAYER
 10
792.8007776153410759
 20
415.0000000000002274
 30
0.0
 11
822.8007776153410759
 21
415.0000000000002274
 31
0.0
  0
LINE
  5
200
100
AcDbEntity
100
AcDbLine
  8
printing_alignment_guides
 62
256
370
-1
  6
BYLAYER
 10
822.8007776153410759
 20
415.0000000000002274
 30
0.0
 11
822.8007776153410759
 21
385.0000000000002274
 31
0.0
  0
LINE
  5
201
100
AcDbEntity
100
AcDbLine
  8
printing_alignment_guides
 62
256
370
-1
  6
BYLAYER
 10
822.8007776153410759
 20
385.0000000000002274
 30
0.0
 11
792.8007776153410759
 21
385.0000000000002274
 31
0.0
  0
LINE
  5
202
100
AcDbEntity
100
AcDbLine
  8
printing_alignment_guides
 62
256
370
-1
  6
BYLAYER
 10
542.6850000000000591
 20
565.0000000000002274
 30
0.0
 11
572.6850000000000591
 21
535.0000000000002274
 31
0.0
  0
LINE
  5
203
100
AcDbEntity
100
AcDbLine
  8
printing_alignment_guides
 62
256
370
-1
  6
BYLAYER
 10
572.6850000000000591
 20
565.0000000000002274
 30
0.0
 11
542.6850000000000591
 21
535.0000000000002274
 31
0.0
  0
LINE
  5
204
100
AcDbEntity
100
AcDbLine
  8
printing_alignment_guides
 62
256
370
-1
  6
BYLAYER
 10
542.6850000000000591
 20
535.0000000000002274
 30
0.0
 11
542.6850000000000591
 21
565.0000000000002274
 31
0.0
  0
LINE
  5
205
100
AcDbEntity
100
AcDbLine
  8
printing_alignment_guides
 62
256
370
-1
  6
BYLAYER
 10
542.6850000000000591
 20
565.0000000000002274
 30
0.0
 11
572.6850000000000591
 21
565.0000000000002274
 31
0.0
  0
LINE
  5
206
100
AcDbEntity
100
AcDbLine
  8
printing_alignment_guides
 62
256
370
-1
  6
BYLAYER
 10
572.6850000000000591
 20
565.0000000000002274
 30
0.0
 11
572.6850000000000591
 21
535.0000000000002274
 31
0.0
  0
LINE
  5
207
100
AcDbEntity
100
AcDbLine
  8
printing_alignment_guides
 62
256
370
-1
  6
BYLAYER
 10
572.6850000000000591
 20
535.0000000000002274
 30
0.0
 11
542.6850000000000591
 21
535.0000000000002274
 31
0.0
  0
LINE
  5
208
100
AcDbEntity
100
AcDbLine
  8
printing_alignment_guides
 62
256
370
-1
  6
BYLAYER
 10
322.6850000000000591
 20
415.0000000000002274
 30
0.0
 11
352.6850000000000591
 21
385.0000000000002274
 31
0.0
  0
LINE
  5
209
100
AcDbEntity
100
AcDbLine
  8
printing_alignment_guides
 62
256
370
-1
  6
BYLAYER
 10
352.6850000000000591
 20
415.0000000000002274
 30
0.0
 11
322.6850000000000591
 21
385.0000000000002274
 31
0.0
  0
LINE
  5
20A
100
AcDbEntity
100
AcDbLine
  8
printing_alignment_guides
 62
256
370
-1
  6
BYLAYER
 10
322.6850000000000591
 20
385.0000000000002274
 30
0.0
 11
322.6850000000000591
 21
415.0000000000002274
 31
0.0
  0
LINE
  5
20B
100
AcDbEntity
100
AcDbLine
  8
printing_alignment_guides
 62
256
370
-1
  6
BYLAYER
 10
322.6850000000000591
 20
415.0000000000002274
 30
0.0
 11
352.6850000000000591
 21
415.0000000000002274
 31
0.0
  0
LINE
  5
20C
100
AcDbEntity
100
AcDbLine
  8
printing_alignment_guides
 62
256
370
-1
  6
BYLAYER
 10
352.6850000000000591
 20
415.0000000000002274
 30
0.0
 11
352.6850000000000591
 21
385.0000000000002274
 31
0.0
  0
LINE
  5
20D
100
AcDbEntity
100
AcDbLine
  8
printing_alignment_guides
 62
256
370
-1
  6
BYLAYER
 10
352.6850000000000591
 20
385.0000000000002274
 30
0.0
 11
322.6850000000000591
 21
385.0000000000002274
 31
0.0
  0
LINE
  5
20E
100
AcDbEntity
100
AcDbLine
  8
printing_alignment_guides
 62
256
370
-1
  6
BYLAYER
 10
542.6850000000000591
 20
235.0000000000002274
 30
0.0
 11
572.6850000000000591
 21
265.0000000000003411
 31
0.0
  0
LINE
  5
20F
100
AcDbEntity
100
AcDbLine
  8
printing_alignment_guides
 62
256
370
-1
  6
BYLAYER
 10
572.6850000000000591
 20
235.0000000000002274
 30
0.0
 11
542.6850000000000591
 21
265.0000000000002274
 31
0.0
  0
LINE
  5
210
100
AcDbEntity
100
AcDbLine
  8
printing_alignment_guides
 62
256
370
-1
  6
BYLAYER
 10
542.6850000000000591
 20
265.0000000000002274
 30
0.0
 11
542.6850000000000591
 21
235.0000000000002274
 31
0.0
  0
LINE
  5
211
100
AcDbEntity
100
AcDbLine
  8
printing_alignment_guides
 62
256
370
-1
  6
BYLAYER
 10
542.6850000000000591
 20
235.0000000000002274
 30
0.0
 11
572.6850000000000591
 21
235.0000000000002274
 31
0.0
  0
LINE
  5
212
100
AcDbEntity
100
AcDbLine
  8
printing_alignment_guides
 62
256
370
-1
  6
BYLAYER
 10
572.6850000000000591
 20
235.0000000000002274
 30
0.0
 11
572.6850000000000591
 21
265.0000000000003411
 31
0.0
  0
LINE
  5
213
100
AcDbEntity
100
AcDbLine
  8
printing_alignment_guides
 62
256
370
-1
  6
BYLAYER
 10
572.6850000000000591
 20
265.0000000000003411
 30
0.0
 11
542.6850000000000591
 21
265.0000000000002274
 31
0.0
  0
LINE
  5
214
100
AcDbEntity
100
AcDbLine
  8
0
 62
256
370
-1
  6
BYLAYER
 10
670.4402043389623032
 20
437.8338456625019717
 30
0.0
 11
670.4402043389623032
 21
400.0000000000003411
 31
0.0
  0
LINE
  5
215
100
AcDbEntity
100
AcDbLine
  8
back_bracing
 62
256
370
-1
  6
BYLAYER
 10
389.6850000000000591
 20
394.0000000000002274
 30
0.0
 11
781.2200757909168942
 21
394.0000000000002274
 31
0.0
  0
LINE
  5
216
100
AcDbEntity
100
AcDbLine
  8
back_bracing
 62
256
370
-1
  6
BYLAYER
 10
781.2200757909167805
 20
394.0000000000002274
 30
0.0
 11
781.2200757909167805
 21
406.0000000000002274
 31
0.0
  0
CIRCLE
  5
217
100
AcDbEntity
100
AcDbCircle
  8
0
 62
256
370
-1
  6
BYLAYER
 10
492.6877932958287261
 20
400.5634345445631652
 30
0.0
 40
44.0
  0
LINE
  5
218
100
AcDbEntity
100
AcDbLine
  8
back_bracing
 62
256
370
-1
  6
BYLAYER
 10
781.2200757909167805
 20
406.0000000000002274
 30
0.0
 11
389.685000000000116
 21
406.0000000000002274
 31
0.0
  0
LINE
  5
219
100
AcDbEntity
100
AcDbLine
  8
0
 62
256
370
-1
  6
BYLAYER
 10
380.0
 20
428.9681116101273801
 30
0.0
 11
-10.0
 21
423.5000000000002274
 31
0.0
  0
LINE
  5
21A
100
AcDbEntity
100
AcDbLine
  8
back_bracing
 62
256
370
-1
  6
BYLAYER
 10
389.6850000000000591
 20
406.0000000000002274
 30
0.0
 11
389.6850000000000591
 21
394.0000000000002274
 31
0.0
  0
LINE
  5
21B
100
AcDbEntity
100
AcDbLine
  8
0
 62
256
370
-1
  6
BYLAYER
 10
658.7990210581926931
 20
400.0000000000003411
 30
0.0
 11
658.7990210581926931
 21
438.8039442692327157
 31
0.0
  0
LINE
  5
21C
100
AcDbEntity
100
AcDbLine
  8
back_bracing
 62
256
370
-1
  6
BYLAYER
 10
437.6850000000000591
 20
278.0000000000002274
 30
0.0
 11
443.6850000000000591
 21
278.0000000000002274
 31
0.0
  0
LINE
  5
21D
100
AcDbEntity
100
AcDbLine
  8
0
 62
256
370
-1
  6
BYLAYER
 10
658.7990210581926931
 20
438.8039442692327157
 30
0.0
 11
661.7093168783849251
 21
477.607888538465204
 31
0.0
  0
LINE
  5
21E
100
AcDbEntity
100
AcDbLine
  8
back_bracing
 62
256
370
-1
  6
BYLAYER
 10
443.6850000000000591
 20
278.0000000000002274
 30
0.0
 11
443.6850000000000591
 21
522.0000000000002274
 31
0.0
  0
LINE
  5
21F
100
AcDbEntity
100
AcDbLine
  8
0
 62
256
370
-1
  6
BYLAYER
 10
661.7093168783849251
 20
477.607888538465204
 30
0.0
 11
688.8720778668475759
 21
477.607888538465204
 31
0.0
  0
LINE
  5
220
100
AcDbEntity
100
AcDbLine
  8
back_bracing
 62
256
370
-1
  6
BYLAYER
 10
437.6850000000000591
 20
522.0000000000002274
 30
0.0
 11
437.6850000000000591
 21
278.0000000000002274
 31
0.0
  0
LINE
  5
221
100
AcDbEntity
100
AcDbLine
  8
0
 62
256
370
-1
  6
BYLAYER
 10
688.8720778668475759
 20
477.607888538465204
 30
0.0
 11
691.7823736870400353
 21
438.8039442692327157
 31
0.0
  0
LINE
  5
222
100
AcDbEntity
100
AcDbLine
  8
back_bracing
 62
256
370
-1
  6
BYLAYER
 10
525.6850000000000591
 20
297.0000000000002274
 30
0.0
 11
531.6850000000000591
 21
297.0000000000002274
 31
0.0
  0
LINE
  5
223
100
AcDbEntity
100
AcDbLine
  8
0
 62
256
370
-1
  6
BYLAYER
 10
691.7823736870400353
 20
438.8039442692327157
 30
0.0
 11
691.7823736870400353
 21
400.0000000000003411
 31
0.0
  0
LINE
  5
224
100
AcDbEntity
100
AcDbLine
  8
back_bracing
 62
256
370
-1
  6
BYLAYER
 10
531.6850000000000591
 20
297.0000000000002274
 30
0.0
 11
531.6850000000000591
 21
503.0000000000002274
 31
0.0
  0
LINE
  5
225
100
AcDbEntity
100
AcDbLine
  8
0
 62
256
370
-1
  6
BYLAYER
 10
670.4402043389623032
 20
437.8338456625019717
 30
0.0
 11
677.2308945860779659
 21
437.8338456625019717
 31
0.0
  0
LINE
  5
226
100
AcDbEntity
100
AcDbLine
  8
back_bracing
 62
256
370
-1
  6
BYLAYER
 10
525.6850000000000591
 20
503.0000000000002274
 30
0.0
 11
525.6850000000000591
 21
297.0000000000002274
 31
0.0
  0
LINE
  5
227
100
AcDbEntity
100
AcDbLine
  8
0
 62
256
370
-1
  6
BYLAYER
 10
677.2308945860779659
 20
437.8338456625019717
 30
0.0
 11
677.2308945860779659
 21
400.0000000000003411
 31
0.0
  0
LINE
  5
228
100
AcDbEntity
100
AcDbLine
  8
back_bracing
 62
256
370
-1
  6
BYLAYER
 10
691.6850000000000591
 20
241.0000000000002274
 30
0.0
 11
697.6850000000000591
 21
241.0000000000002274
 31
0.0
  0
LINE
  5
229
100
AcDbEntity
100
AcDbLine
  8
0
 62
256
370
-1
  6
BYLAYER
 10
802.8484461205002845
 20
432.6199341119840938
 30
0.0
 11
787.6407768003675756
 21
432.6199341119840938
 31
0.0
  0
LINE
  5
22A
100
AcDbEntity
100
AcDbLine
  8
back_bracing
 62
256
370
-1
  6
BYLAYER
 10
697.6850000000000591
 20
241.0000000000002274
 30
0.0
 11
697.6850000000000591
 21
559.0000000000002274
 31
0.0
  0
LINE
  5
22B
100
AcDbEntity
100
AcDbLine
  8
0
 62
256
370
-1
  6
BYLAYER
 10
787.6407768003675756
 20
432.6199341119840938
 30
0.0
 11
781.2200757909167805
 21
426.1926623817321342
 31
0.0
  0
LINE
  5
22C
100
AcDbEntity
100
AcDbLine
  8
back_bracing
 62
256
370
-1
  6
BYLAYER
 10
691.6850000000000591
 20
559.0000000000002274
 30
0.0
 11
691.6850000000000591
 21
241.0000000000002274
 31
0.0
  0
LINE
  5
22D
100
AcDbEntity
100
AcDbLine
  8
0
 62
256
370
-1
  6
BYLAYER
 10
781.2200757909167805
 20
426.1926623817321342
 30
0.0
 11
781.2200757909167805
 21
400.0000000000003411
 31
0.0
  0
LINE
  5
22E
100
AcDbEntity
100
AcDbLine
  8
back_bracing
 62
256
370
-1
  6
BYLAYER
 10
607.6850000000000591
 20
258.0000000000002274
 30
0.0
 11
613.6850000000000591
 21
258.0000000000002274
 31
0.0
  0
LINE
  5
22F
100
AcDbEntity
100
AcDbLine
  8
0
 62
256
370
-1
  6
BYLAYER
 10
389.3002386716693195
 20
400.0000000000003411
 30
0.0
 11
389.3002386716693195
 21
425.2225637750013902
 31
0.0
  0
LINE
  5
230
100
AcDbEntity
100
AcDbLine
  8
back_bracing
 62
256
370
-1
  6
BYLAYER
 10
613.6850000000000591
 20
258.0000000000002274
 30
0.0
 11
613.6850000000000591
 21
542.0000000000002274
 31
0.0
  0
LINE
  5
231
100
AcDbEntity
100
AcDbLine
  8
0
 62
256
370
-1
  6
BYLAYER
 10
389.3002386716693195
 20
425.2225637750013902
 30
0.0
 11
385.24832273080915
 21
429.3194868615471478
 31
0.0
  0
LINE
  5
232
100
AcDbEntity
100
AcDbLine
  8
back_bracing
 62
256
370
-1
  6
BYLAYER
 10
607.6850000000000591
 20
542.0000000000002274
 30
0.0
 11
607.6850000000000591
 21
258.0000000000002274
 31
0.0
  0
LINE
  5
233
100
AcDbEntity
100
AcDbLine
  8
0
 62
256
370
-1
  6
BYLAYER
 10
658.7990210581926931
 20
400.0000000000003411
 30
0.0
 11
658.7990210581926931
 21
361.1960557307679665
 31
0.0
  0
LINE
  5
234
100
AcDbEntity
100
AcDbLine
  8
back_bracing
 62
256
370
-1
  6
BYLAYER
 10
437.685000000000116
 20
522.0000000000002274
 30
0.0
 11
443.6850000000000591
 21
522.0000000000002274
 31
0.0
  0
LINE
  5
235
100
AcDbEntity
100
AcDbLine
  8
0
 62
256
370
-1
  6
BYLAYER
 10
658.7990210581926931
 20
361.1960557307679665
 30
0.0
 11
661.7093168783849251
 21
322.3921114615354782
 31
0.0
  0
LINE
  5
236
100
AcDbEntity
100
AcDbLine
  8
back_bracing
 62
256
370
-1
  6
BYLAYER
 10
525.6850000000001728
 20
503.0000000000002274
 30
0.0
 11
531.6850000000000591
 21
503.0000000000002274
 31
0.0
  0
LINE
  5
237
100
AcDbEntity
100
AcDbLine
  8
0
 62
256
370
-1
  6
BYLAYER
 10
661.7093168783849251
 20
322.3921114615354782
 30
0.0
 11
688.8720778668475759
 21
322.3921114615354782
 31
0.0
  0
LINE
  5
238
100
AcDbEntity
100
AcDbLine
  8
back_bracing
 62
256
370
-1
  6
BYLAYER
 10
691.6850000000000591
 20
559.0000000000002274
 30
0.0
 11
697.6850000000000591
 21
559.0000000000002274
 31
0.0
  0
LINE
  5
239
100
AcDbEntity
100
AcDbLine
  8
0
 62
256
370
-1
  6
BYLAYER
 10
688.8720778668475759
 20
322.3921114615354782
 30
0.0
 11
691.7823736870400353
 21
361.1960557307678528
 31
0.0
  0
LINE
  5
23A
100
AcDbEntity
100
AcDbLine
  8
back_bracing
 62
256
370
-1
  6
BYLAYER
 10
607.6850000000000591
 20
542.0000000000002274
 30
0.0
 11
613.6850000000000591
 21
542.0000000000002274
 31
0.0
  0
LINE
  5
23B
100
AcDbEntity
100
AcDbLine
  8
0
 62
256
370
-1
  6
BYLAYER
 10
691.7823736870400353
 20
361.1960557307678528
 30
0.0
 11
691.7823736870400353
 21
400.0000000000003411
 31
0.0
  0
LINE
  5
23C
100
AcDbEntity
100
AcDbLine
  8
0
 62
256
370
-1
  6
BYLAYER
 10
670.4402043389623032
 20
362.1661543374987104
 30
0.0
 11
677.2308945860779659
 21
362.1661543374987104
 31
0.0
  0
LINE
  5
23D
100
AcDbEntity
100
AcDbLine
  8
0
 62
256
370
-1
  6
BYLAYER
 10
677.2308945860779659
 20
362.1661543374987104
 30
0.0
 11
677.2308945860779659
 21
400.0000000000003411
 31
0.0
  0
LINE
  5
23E
100
AcDbEntity
100
AcDbLine
  8
0
 62
256
370
-1
  6
BYLAYER
 10
389.3002386716693195
 20
400.0000000000003411
 30
0.0
 11
389.3002386716693195
 21
374.7774362249992919
 31
0.0
  0
LINE
  5
23F
100
AcDbEntity
100
AcDbLine
  8
0
 62
256
370
-1
  6
BYLAYER
 10
389.3002386716693195
 20
374.7774362249992919
 30
0.0
 11
385.24832273080915
 21
370.680513138453648
 31
0.0
  0
LINE
  5
240
100
AcDbEntity
100
AcDbLine
  8
0
 62
256
370
-1
  6
BYLAYER
 10
670.4402043389623032
 20
362.1661543374987104
 30
0.0
 11
670.4402043389623032
 21
400.0000000000003411
 31
0.0
  0
LINE
  5
241
100
AcDbEntity
100
AcDbLine
  8
0
 62
256
370
-1
  6
BYLAYER
 10
802.8484461205002845
 20
367.3800658880165884
 30
0.0
 11
787.6407768003675756
 21
367.3800658880165884
 31
0.0
  0
LINE
  5
242
100
AcDbEntity
100
AcDbLine
  8
0
 62
256
370
-1
  6
BYLAYER
 10
787.6407768003675756
 20
367.3800658880165884
 30
0.0
 11
781.2200757909167805
 21
373.8073376182684342
 31
0.0
  0
LINE
  5
243
100
AcDbEntity
100
AcDbLine
  8
0
 62
256
370
-1
  6
BYLAYER
 10
781.2200757909167805
 20
373.8073376182684342
 30
0.0
 11
781.2200757909167805
 21
400.0000000000003411
 31
0.0
  0
LINE
  5
244
100
AcDbEntity
100
AcDbLine
  8
0
 62
256
370
-1
  6
BYLAYER
 10
357.6849999999799934
 20
438.5610191966252387
 30
0.0
 11
357.6850000000148384
 21
371.4389808033752161
 31
0.0
  0
SPLINE
  5
245
  8
0
 62
256
370
-1
  6
BYLAYER
100
AcDbEntity
100
AcDbSpline
 70
8
 71
3
 72
38
 73
34
 74
0
 40
0.0
 40
0.0
 40
0.0
 40
0.0
 40
1.0
 40
2.0
 40
3.0
 40
4.0
 40
5.0
 40
6.0
 40
7.0
 40
8.0
 40
9.0
 40
10.0
 40
11.0
 40
12.0
 40
13.0
 40
14.0
 40
15.0
 40
16.0
 40
17.0
 40
18.0
 40
19.0
 40
20.0
 40
21.0
 40
22.0
 40
23.0
 40
24.0
 40
25.0
 40
26.0
 40
27.0
 40
28.0
 40
29.0
 40
30.0
 40
31.0
 40
31.0
 40
31.0
 40
31.0
 10
357.6423140471105739
 20
371.4607536760275934
 30
0.0
 10
359.110047652863102
 20
362.5146094424530929
 30
0.0
 10
361.254269766337643
 20
351.3020048352113918
 30
0.0
 10
366.059200230477586
 20
335.5960430963801855
 30
0.0
 10
373.8579197417650448
 20
320.1406914561213171
 30
0.0
 10
383.8689112027894907
 20
305.1242042645845913
 30
0.0
 10
399.719647682744835
 20
289.6905924288386132
 30
0.0
 10
419.7416306047935564
 20
278.845351679395435
 30
0.0
 10
441.2748943629208043
 20
276.6837841405687186
 30
0.0
 10
458.1707784301492552
 20
277.1688334439340906
 30
0.0
 10
472.8839406322334185
 20
280.4024954663701692
 30
0.0
 10
491.9041940530112242
 20
285.1022213425358132
 30
0.0
 10
509.0063044655947238
 20
291.3590910056760777
 30
0.0
 10
520.2686698592472112
 20
295.5303374477695115
 30
0.0
 10
528.1940380992248265
 20
296.3645867361881301
 30
0.0
 10
540.629160002268236
 20
294.8731330167715896
 30
0.0
 10
553.1596003392078273
 20
288.4866505224604225
 30
0.0
 10
574.9119982506720135
 20
275.5083545257206197
 30
0.0
 10
602.0251001242797884
 20
259.2404934015559093
 30
0.0
 10
624.9669555557941294
 20
247.9781280079034786
 30
0.0
 10
647.9088109873084704
 20
241.304133700553848
 30
0.0
 10
669.5992924861945994
 20
238.3842611910883988
 30
0.0
 10
689.8173910693767539
 20
238.2420100178488838
 30
0.0
 10
715.5250041477434024
 20
243.1733446020639349
 30
0.0
 10
741.0709341249882982
 20
255.2187356356381542
 30
0.0
 10
755.5415716753893776
 20
266.2940280624816296
 30
0.0
 10
768.1797500676714208
 20
279.0539140015000612
 30
0.0
 10
780.6934893939521771
 20
296.9902737025020087
 30
0.0
 10
791.5387301433952416
 20
318.263630557178999
 30
0.0
 10
799.0469737391633771
 20
338.7027381234371433
 30
0.0
 10
806.4620086370957779
 20
366.4873651922143836
 30
0.0
 10
807.4024653419544393
 20
387.0696239650195594
 30
0.0
 10
807.8007776153410759
 20
400.0000000000003411
 30
0.0
 10
807.8007776153410759
 20
400.0000000000003411
 30
0.0
  0
SPLINE
  5
246
  8
0
 62
256
370
-1
  6
BYLAYER
100
AcDbEntity
100
AcDbSpline
 70
8
 71
3
 72
38
 73
34
 74
0
 40
0.0
 40
0.0
 40
0.0
 40
0.0
 40
1.0
 40
2.0
 40
3.0
 40
4.0
 40
5.0
 40
6.0
 40
7.0
 40
8.0
 40
9.0
 40
10.0
 40
11.0
 40
12.0
 40
13.0
 40
14.0
 40
15.0
 40
16.0
 40
17.0
 40
18.0
 40
19.0
 40
20.0
 40
21.0
 40
22.0
 40
23.0
 40
24.0
 40
25.0
 40
26.0
 40
27.0
 40
28.0
 40
29.0
 40
30.0
 40
31.0
 40
31.0
 40
31.0
 40
31.0
 10
357.6423140471105739
 20
428.539246323972975
 30
0.0
 10
359.110047652863102
 20
437.4853905575473618
 30
0.0
 10
361.254269766337643
 20
448.6979951647892904
 30
0.0
 10
366.059200230477586
 20
464.4039569036203829
 30
0.0
 10
373.8579197417650448
 20
479.8593085438794787
 30
0.0
 10
383.8689112027894907
 20
494.8757957354159771
 30
0.0
 10
399.7196476827447782
 20
510.3094075711619553
 30
0.0
 10
419.7416306047934995
 20
521.1546483206050198
 30
0.0
 10
441.2748943629208043
 20
523.3162158594318498
 30
0.0
 10
458.1707784301492552
 20
522.8311665560665915
 30
0.0
 10
472.8839406322334185
 20
519.5975045336303992
 30
0.0
 10
491.9041940530111674
 20
514.897778657464869
 30
0.0
 10
509.0063044655947238
 20
508.6409089943244908
 30
0.0
 10
520.2686698592469838
 20
504.4696625522310569
 30
0.0
 10
528.1940380992248265
 20
503.6354132638123247
 30
0.0
 10
540.629160002268236
 20
505.1268669832290925
 30
0.0
 10
553.1596003392078273
 20
511.5133494775402596
 30
0.0
 10
574.9119982506720135
 20
524.4916454742799488
 30
0.0
 10
602.0251001242797884
 20
540.7595065984446592
 30
0.0
 10
624.9669555557941294
 20
552.0218719920972035
 30
0.0
 10
647.9088109873084704
 20
558.6958662994466067
 30
0.0
 10
669.5992924861945994
 20
561.6157388089122833
 30
0.0
 10
689.8173910693767539
 20
561.7579899821516847
 30
0.0
 10
715.5250041477431751
 20
556.8266553979367472
 30
0.0
 10
741.0709341249882982
 20
544.7812643643624142
 30
0.0
 10
755.5415716753893776
 20
533.7059719375188251
 30
0.0
 10
768.1797500676714208
 20
520.9460859985006209
 30
0.0
 10
780.6934893939521771
 20
503.0097262974986734
 30
0.0
 10
791.5387301433952416
 20
481.7363694428217968
 30
0.0
 10
799.0469737391633771
 20
461.2972618765634252
 30
0.0
 10
806.4620086370957779
 20
433.5126348077865259
 30
0.0
 10
807.4024653419544393
 20
412.9303760349810091
 30
0.0
 10
807.8007776153410759
 20
400.0000000000003411
 30
0.0
 10
807.8007776153410759
 20
400.0000000000003411
 30
0.0
  0
LINE
  5
247
100
AcDbEntity
100
AcDbLine
  8
0
 62
256
370
-1
  6
BYLAYER
 10
385.24832273080915
 20
370.680513138453648
 30
0.0
 11
357.6423140471105739
 21
371.4607536760275934
 31
0.0
  0
LINE
  5
248
100
AcDbEntity
100
AcDbLine
  8
0
 62
256
370
-1
  6
BYLAYER
 10
385.24832273080915
 20
429.3194868615471478
 30
0.0
 11
357.6423140471105739
 21
428.5392463239732024
 31
0.0
  0
LINE
  5
249
100
AcDbEntity
100
AcDbLine
  8
0
 62
256
370
-1
  6
BYLAYER
 10
-10.0
 20
400.0000000000002274
 30
0.0
 11
-10.0
 21
423.5000000000002274
 31
0.0
  0
LINE
  5
24A
100
AcDbEntity
100
AcDbLine
  8
0
 62
256
370
-1
  6
BYLAYER
 10
-10.0
 20
400.0000000000001137
 30
0.0
 11
-10.0
 21
376.5
 31
0.0
  0
LINE
  5
24B
100
AcDbEntity
100
AcDbLine
  8
0
 62
256
370
-1
  6
BYLAYER
 10
380.0
 20
371.0318883898730746
 30
0.0
 11
-10.0
 21
376.5
 31
0.0
  0
LINE
  5
24C
100
AcDbEntity
100
AcDbLine
  8
0
 62
256
370
-1
  6
BYLAYER
 10
380.0
 20
428.9681116101273801
 30
0.0
 11
380.0
 21
371.0318883898730746
 31
0.0
  0
LINE
  5
24D
100
AcDbEntity
100
AcDbLine
  8
top_bracing
 62
256
370
-1
  6
BYLAYER
 10
542.6850000000000591
 20
300.0000000000002274
 30
0.0
 11
548.6850000000000591
 21
300.0000000000002274
 31
0.0
  0
LINE
  5
24E
100
AcDbEntity
100
AcDbLine
  8
top_bracing
 62
256
370
-1
  6
BYLAYER
 10
548.6850000000000591
 20
300.0000000000002274
 30
0.0
 11
548.6850000000000591
 21
500.0000000000002274
 31
0.0
  0
LINE
  5
24F
100
AcDbEntity
100
AcDbLine
  8
top_bracing
 62
256
370
-1
  6
BYLAYER
 10
548.6850000000000591
 20
500.0000000000002274
 30
0.0
 11
542.6850000000000591
 21
500.0000000000002274
 31
0.0
  0
LINE
  5
250
100
AcDbEntity
100
AcDbLine
  8
top_bracing
 62
256
370
-1
  6
BYLAYER
 10
542.6850000000000591
 20
500.0000000000002274
 30
0.0
 11
542.6850000000000591
 21
300.0000000000002274
 31
0.0
  0
LINE
  5
251
100
AcDbEntity
100
AcDbLine
  8
top_bracing
 62
256
370
-1
  6
BYLAYER
 10
437.6850000000000591
 20
285.0000000000002274
 30
0.0
 11
443.6850000000000591
 21
285.0000000000002274
 31
0.0
  0
LINE
  5
252
100
AcDbEntity
100
AcDbLine
  8
top_bracing
 62
256
370
-1
  6
BYLAYER
 10
443.6850000000000591
 20
285.0000000000002274
 30
0.0
 11
443.6850000000000591
 21
515.0000000000002274
 31
0.0
  0
LINE
  5
253
100
AcDbEntity
100
AcDbLine
  8
top_bracing
 62
256
370
-1
  6
BYLAYER
 10
443.6850000000000591
 20
515.0000000000002274
 30
0.0
 11
437.6850000000000591
 21
515.0000000000002274
 31
0.0
  0
LINE
  5
254
100
AcDbEntity
100
AcDbLine
  8
top_bracing
 62
256
370
-1
  6
BYLAYER
 10
437.6850000000000591
 20
515.0000000000002274
 30
0.0
 11
437.6850000000000591
 21
285.0000000000002274
 31
0.0
  0
LINE
  5
255
100
AcDbEntity
100
AcDbLine
  8
top_bracing
 62
256
370
-1
  6
BYLAYER
 10
397.6850000000000591
 20
325.0000000000002274
 30
0.0
 11
403.6850000000000591
 21
325.0000000000002274
 31
0.0
  0
LINE
  5
256
100
AcDbEntity
100
AcDbLine
  8
top_bracing
 62
256
370
-1
  6
BYLAYER
 10
403.6850000000000591
 20
325.0000000000002274
 30
0.0
 11
403.6850000000000591
 21
475.0000000000002274
 31
0.0
  0
LINE
  5
257
100
AcDbEntity
100
AcDbLine
  8
top_bracing
 62
256
370
-1
  6
BYLAYER
 10
403.6850000000000591
 20
475.0000000000002274
 30
0.0
 11
397.6850000000000591
 21
475.0000000000002274
 31
0.0
  0
LINE
  5
258
100
AcDbEntity
100
AcDbLine
  8
top_bracing
 62
256
370
-1
  6
BYLAYER
 10
397.6850000000000591
 20
475.0000000000002274
 30
0.0
 11
397.6850000000000591
 21
325.0000000000002274
 31
0.0
  0
LINE
  5
259
100
AcDbEntity
100
AcDbLine
  8
top_bracing
 62
256
370
-1
  6
BYLAYER
 10
780.6184072422322515
 20
396.355715691503292
 30
0.0
 11
717.6850000000000591
 21
260.0000000000002274
 31
0.0
  0
LINE
  5
25A
100
AcDbEntity
100
AcDbLine
  8
top_bracing
 62
256
370
-1
  6
BYLAYER
 10
775.1706509352295598
 20
398.8700647562737913
 30
0.0
 11
712.2372436929973674
 21
262.5143490647707267
 31
0.0
  0
LINE
  5
25B
100
AcDbEntity
100
AcDbLine
  8
top_bracing
 62
256
370
-1
  6
BYLAYER
 10
712.2372436929973674
 20
262.5143490647707267
 30
0.0
 11
717.6850000000000591
 21
260.0000000000002274
 31
0.0
  0
LINE
  5
25C
100
AcDbEntity
100
AcDbLine
  8
top_bracing
 62
256
370
-1
  6
BYLAYER
 10
557.6850000000000591
 20
397.0000000000002274
 30
0.0
 11
757.6850000000000591
 21
397.0000000000002274
 31
0.0
  0
LINE
  5
25D
100
AcDbEntity
100
AcDbLine
  8
top_bracing
 62
256
370
-1
  6
BYLAYER
 10
757.6850000000000591
 20
397.0000000000002274
 30
0.0
 11
757.6850000000000591
 21
403.0000000000002274
 31
0.0
  0
LINE
  5
25E
100
AcDbEntity
100
AcDbLine
  8
top_bracing
 62
256
370
-1
  6
BYLAYER
 10
757.6850000000000591
 20
403.0000000000002274
 30
0.0
 11
557.6850000000000591
 21
403.0000000000002274
 31
0.0
  0
LINE
  5
25F
100
AcDbEntity
100
AcDbLine
  8
top_bracing
 62
256
370
-1
  6
BYLAYER
 10
557.6850000000000591
 20
403.0000000000002274
 30
0.0
 11
557.6850000000000591
 21
397.0000000000002274
 31
0.0
  0
LINE
  5
260
100
AcDbEntity
100
AcDbLine
  8
top_bracing
 62
256
370
-1
  6
BYLAYER
 10
560.7778733161484297
 20
413.3685054416549747
 30
0.0
 11
744.9369231294316478
 21
445.8407146653698874
 31
0.0
  0
LINE
  5
261
100
AcDbEntity
100
AcDbLine
  8
top_bracing
 62
256
370
-1
  6
BYLAYER
 10
743.8950340634295344
 20
451.7495611834453939
 30
0.0
 11
559.7359842501468847
 21
419.2773519597283212
 31
0.0
  0
LINE
  5
262
100
AcDbEntity
100
AcDbLine
  8
top_bracing
 62
256
370
-1
  6
BYLAYER
 10
560.8009372669962431
 20
430.698896183557963
 30
0.0
 11
725.2471459045302709
 21
490.5524212655489009
 31
0.0
  0
LINE
  5
263
100
AcDbEntity
100
AcDbLine
  8
top_bracing
 62
256
370
-1
  6
BYLAYER
 10
723.1950250445755728
 20
496.190576990266436
 30
0.0
 11
558.7488164070421135
 21
436.3370519082734518
 31
0.0
  0
LINE
  5
264
100
AcDbEntity
100
AcDbLine
  8
top_bracing
 62
256
370
-1
  6
BYLAYER
 10
561.8497182049350158
 20
450.9019237886468545
 30
0.0
 11
705.6099352331522141
 21
533.9019237886461724
 31
0.0
  0
LINE
  5
265
100
AcDbEntity
100
AcDbLine
  8
top_bracing
 62
256
370
-1
  6
BYLAYER
 10
702.6099352331510772
 20
539.0980762113542823
 30
0.0
 11
558.8497182049349021
 21
456.0980762113536002
 31
0.0
  0
LINE
  5
266
100
AcDbEntity
100
AcDbLine
  8
top_bracing
 62
256
370
-1
  6
BYLAYER
 10
558.8497182049350158
 20
456.0980762113536002
 30
0.0
 11
561.8497182049350158
 21
450.9019237886468545
 31
0.0
  0
LINE
  5
267
100
AcDbEntity
100
AcDbLine
  8
top_bracing
 62
256
370
-1
  6
BYLAYER
 10
558.7488164070421135
 20
436.3370519082734518
 30
0.0
 11
560.8009372669961294
 21
430.698896183557963
 31
0.0
  0
LINE
  5
268
100
AcDbEntity
100
AcDbLine
  8
top_bracing
 62
256
370
-1
  6
BYLAYER
 10
559.7359842501468847
 20
419.2773519597283212
 30
0.0
 11
560.7778733161484297
 21
413.3685054416549747
 31
0.0
  0
LINE
  5
269
100
AcDbEntity
100
AcDbLine
  8
top_bracing
 62
256
370
-1
  6
BYLAYER
 10
725.2471459045303845
 20
490.5524212655489009
 30
0.0
 11
723.1950250445755728
 21
496.1905769902666634
 31
0.0
  0
LINE
  5
26A
100
AcDbEntity
100
AcDbLine
  8
top_bracing
 62
256
370
-1
  6
BYLAYER
 10
705.6099352331523278
 20
533.901923788645945
 30
0.0
 11
702.6099352331511909
 21
539.0980762113545097
 31
0.0
  0
LINE
  5
26B
100
AcDbEntity
100
AcDbLine
  8
top_bracing
 62
256
370
-1
  6
BYLAYER
 10
775.1706509352295598
 20
398.870064756273905
 30
0.0
 11
780.6184072422322515
 21
396.3557156915034057
 31
0.0
  0
LINE
  5
26C
100
AcDbEntity
100
AcDbLine
  8
top_bracing
 62
256
370
-1
  6
BYLAYER
 10
555.1022079320374587
 20
343.3507714689995964
 30
0.0
 11
558.4406262582164118
 21
348.3362466799931099
 31
0.0
  0
LINE
  5
26D
100
AcDbEntity
100
AcDbLine
  8
top_bracing
 62
256
370
-1
  6
BYLAYER
 10
556.3137183979645215
 20
363.0748812098900089
 30
0.0
 11
558.7356999631909957
 21
368.5643261087576548
 31
0.0
  0
LINE
  5
26E
100
AcDbEntity
100
AcDbLine
  8
top_bracing
 62
256
370
-1
  6
BYLAYER
 10
558.4315212125029575
 20
380.0313777207728663
 30
0.0
 11
559.8634753324993198
 21
385.8579983020555346
 31
0.0
  0
LINE
  5
26F
100
AcDbEntity
100
AcDbLine
  8
top_bracing
 62
256
370
-1
  6
BYLAYER
 10
559.8634753324993198
 20
385.8579983020555346
 30
0.0
 11
741.4598167824730126
 21
341.2287615621713712
 31
0.0
  0
LINE
  5
270
100
AcDbEntity
100
AcDbLine
  8
top_bracing
 62
256
370
-1
  6
BYLAYER
 10
740.0278626624759681
 20
335.4021409808863154
 30
0.0
 11
558.4315212125030712
 21
380.0313777207728663
 31
0.0
  0
LINE
  5
271
100
AcDbEntity
100
AcDbLine
  8
top_bracing
 62
256
370
-1
  6
BYLAYER
 10
718.8445095134950407
 20
297.9231971229858118
 30
0.0
 11
716.4225279482674296
 21
292.4337522241157785
 31
0.0
  0
LINE
  5
272
100
AcDbEntity
100
AcDbLine
  8
top_bracing
 62
256
370
-1
  6
BYLAYER
 10
558.7356999631911094
 20
368.5643261087576548
 30
0.0
 11
718.844509513494927
 21
297.9231971229858118
 31
0.0
  0
LINE
  5
273
100
AcDbEntity
100
AcDbLine
  8
top_bracing
 62
256
370
-1
  6
BYLAYER
 10
696.3721070957066104
 20
255.9733396557062406
 30
0.0
 11
693.0336887695262931
 21
250.9878644447107945
 31
0.0
  0
LINE
  5
274
100
AcDbEntity
100
AcDbLine
  8
top_bracing
 62
256
370
-1
  6
BYLAYER
 10
716.4225279482675433
 20
292.4337522241161196
 30
0.0
 11
556.3137183979645215
 21
363.0748812098898952
 31
0.0
  0
LINE
  5
275
100
AcDbEntity
100
AcDbLine
  8
top_bracing
 62
256
370
-1
  6
BYLAYER
 10
558.4406262582165255
 20
348.3362466799933372
 30
0.0
 11
696.3721070957066104
 21
255.9733396557063543
 31
0.0
  0
LINE
  5
276
100
AcDbEntity
100
AcDbLine
  8
top_bracing
 62
256
370
-1
  6
BYLAYER
 10
693.0336887695261794
 20
250.9878644447109082
 30
0.0
 11
555.1022079320372313
 21
343.3507714689994827
 31
0.0
  0
LINE
  5
277
100
AcDbEntity
100
AcDbLine
  8
top_bracing
 62
256
370
-1
  6
BYLAYER
 10
744.9369231294315341
 20
445.8407146653698874
 30
0.0
 11
743.8950340634295344
 21
451.7495611834453939
 31
0.0
  0
LINE
  5
278
100
AcDbEntity
100
AcDbLine
  8
top_bracing
 62
256
370
-1
  6
BYLAYER
 10
741.4598167824730126
 20
341.2287615621714849
 30
0.0
 11
740.0278626624759681
 21
335.4021409808863154
 31
0.0
  0
LINE
  5
279
100
AcDbEntity
100
AcDbLine
  8
top_bracing
 62
256
370
-1
  6
BYLAYER
 10
780.6184072422322515
 20
403.6442843084971628
 30
0.0
 11
717.6850000000000591
 21
540.0000000000002274
 31
0.0
  0
LINE
  5
27A
100
AcDbEntity
100
AcDbLine
  8
top_bracing
 62
256
370
-1
  6
BYLAYER
 10
775.1706509352295598
 20
401.1299352437266634
 30
0.0
 11
712.2372436929973674
 21
537.4856509352298417
 31
0.0
  0
LINE
  5
27B
100
AcDbEntity
100
AcDbLine
  8
top_bracing
 62
256
370
-1
  6
BYLAYER
 10
712.2372436929973674
 20
537.4856509352298417
 30
0.0
 11
717.6850000000000591
 21
540.0000000000002274
 31
0.0
  0
LINE
  5
27C
100
AcDbEntity
100
AcDbLine
  8
top_bracing
 62
256
370
-1
  6
BYLAYER
 10
775.1706509352295598
 20
401.1299352437266634
 30
0.0
 11
780.6184072422322515
 21
403.6442843084970491
 31
0.0
  0
LINE
  5
27D
100
AcDbEntity
100
AcDbLine
  8
top_bracing
 62
256
370
-1
  6
BYLAYER
 10
443.6850000000000591
 20
447.0000000000002274
 30
0.0
 11
542.6850000000000591
 21
447.0000000000002274
 31
0.0
  0
LINE
  5
27E
100
AcDbEntity
100
AcDbLine
  8
top_bracing
 62
256
370
-1
  6
BYLAYER
 10
542.6850000000000591
 20
453.0000000000002274
 30
0.0
 11
443.6850000000000591
 21
453.0000000000002274
 31
0.0
  0
LINE
  5
27F
100
AcDbEntity
100
AcDbLine
  8
top_bracing
 62
256
370
-1
  6
BYLAYER
 10
443.6850000000000591
 20
453.0000000000002274
 30
0.0
 11
443.6850000000000591
 21
447.0000000000002274
 31
0.0
  0
LINE
  5
280
100
AcDbEntity
100
AcDbLine
  8
top_bracing
 62
256
370
-1
  6
BYLAYER
 10
443.6850000000000591
 20
354.1268690891261031
 30
0.0
 11
542.6850000000000591
 21
354.1268690891262167
 31
0.0
  0
CIRCLE
  5
281
100
AcDbEntity
100
AcDbCircle
  8
0
 62
256
370
-1
  6
BYLAYER
 10
492.6877932958287829
 20
400.0000000000002274
 30
0.0
 40
46.5
  0
LINE
  5
282
100
AcDbEntity
100
AcDbLine
  8
top_bracing
 62
256
370
-1
  6
BYLAYER
 10
542.6850000000000591
 20
348.1268690891261031
 30
0.0
 11
443.6850000000000591
 21
348.1268690891262167
 31
0.0
  0
CIRCLE
  5
283
100
AcDbEntity
100
AcDbCircle
  8
0
 62
256
370
-1
  6
BYLAYER
 10
492.6877932958287829
 20
400.0000000000002274
 30
0.0
 40
55.0
  0
LINE
  5
284
100
AcDbEntity
100
AcDbLine
  8
top_bracing
 62
256
370
-1
  6
BYLAYER
 10
443.6850000000000591
 20
348.1268690891262167
 30
0.0
 11
443.6850000000000591
 21
354.1268690891261031
 31
0.0
  0
LINE
  5
285
100
AcDbEntity
100
AcDbLine
  8
top_bracing
 62
256
370
-1
  6
BYLAYER
 10
537.6850000000000591
 20
460.0000000000002274
 30
0.0
 11
447.6850000000000591
 21
490.0000000000002274
 31
0.0
  0
LINE
  5
286
100
AcDbEntity
100
AcDbLine
  8
top_bracing
 62
256
370
-1
  6
BYLAYER
 10
539.5823665961011102
 20
465.6920997883032669
 30
0.0
 11
449.5823665961011102
 21
495.6920997883032669
 31
0.0
  0
LINE
  5
287
100
AcDbEntity
100
AcDbLine
  8
top_bracing
 62
256
370
-1
  6
BYLAYER
 10
537.6850000000000591
 20
460.0000000000002274
 30
0.0
 11
539.5823665961011102
 21
465.6920997883032669
 31
0.0
  0
LINE
  5
288
100
AcDbEntity
100
AcDbLine
  8
top_bracing
 62
256
370
-1
  6
BYLAYER
 10
449.5823665961011102
 20
495.6920997883032669
 30
0.0
 11
447.6850000000000591
 21
490.0000000000002274
 31
0.0
  0
LINE
  5
289
100
AcDbEntity
100
AcDbLine
  8
0
 62
256
370
-1
  6
BYLAYER
 10
-30.0085451639155565
 20
432.0866838274580459
 30
0.0
 11
-155.8795728825777474
 21
437.2935863520763178
 31
0.0
  0
LINE
  5
28A
100
AcDbEntity
100
AcDbLine
  8
top_bracing
 62
256
370
-1
  6
BYLAYER
 10
537.6850000000000591
 20
341.1268690891261031
 30
0.0
 11
447.6850000000000591
 21
311.1268690891262167
 31
0.0
  0
LINE
  5
28B
100
AcDbEntity
100
AcDbLine
  8
0
 62
256
370
-1
  6
BYLAYER
 10
-20.0
 20
400.0000000000002274
 30
0.0
 11
-20.0
 21
425.0000000000002274
 31
0.0
  0
LINE
  5
28C
100
AcDbEntity
100
AcDbLine
  8
top_bracing
 62
256
370
-1
  6
BYLAYER
 10
539.5823665961011102
 20
335.4347693008230635
 30
0.0
 11
449.5823665961011102
 21
305.4347693008230635
 31
0.0
  0
LINE
  5
28D
100
AcDbEntity
100
AcDbLine
  8
0
 62
256
370
-1
  6
BYLAYER
 10
-45.3263803560758731
 20
424.7134942174036496
 30
0.0
 11
-138.7004689428647453
 21
428.5760969656957968
 31
0.0
  0
LINE
  5
28E
100
AcDbEntity
100
AcDbLine
  8
top_bracing
 62
256
370
-1
  6
BYLAYER
 10
537.6850000000000591
 20
341.1268690891261031
 30
0.0
 11
539.5823665961011102
 21
335.4347693008230635
 31
0.0
  0
LINE
  5
28F
100
AcDbEntity
100
AcDbLine
  8
0
 62
256
370
-1
  6
BYLAYER
 10
-45.8223597631263573
 20
412.7237484141023742
 30
0.0
 11
-139.1964483499152152
 21
416.5863511623945215
 31
0.0
  0
LINE
  5
290
100
AcDbEntity
100
AcDbLine
  8
top_bracing
 62
256
370
-1
  6
BYLAYER
 10
449.5823665961011102
 20
305.4347693008230635
 30
0.0
 11
447.6850000000000591
 21
311.1268690891262167
 31
0.0
  0
ARC
  5
291
100
AcDbEntity
  8
0
 62
256
370
-1
  6
BYLAYER
100
AcDbCircle
 10
-138.9484586463900087
 20
422.5812240640451591
 30
0.0
 40
6.0000000000000053
100
AcDbArc
 50
87.6311980057273985
 51
267.6311980057274127
  0
ARC
  5
292
100
AcDbEntity
  8
0
 62
256
370
-1
  6
BYLAYER
100
AcDbCircle
 10
-45.5743700596011081
 20
418.7186213157530119
 30
0.0
 40
5.9999999999999982
100
AcDbArc
 50
267.6311980057274695
 51
87.6311980057274837
  0
INSERT
  5
293
100
AcDbEntity
100
AcDbBlockReference
  8
0
 62
256
370
-1
  6
BYLAYER
  2
classical_tuners
 10
-95.0
 20
436.0000000000002274
 30
0.0
 50
177.5999999999999943
  0
ARC
  5
294
100
AcDbEntity
  8
0
 62
256
370
-1
  6
BYLAYER
100
AcDbCircle
 10
-11.4938843406809212
 20
447.6241043954607903
 30
0.0
 40
24.170314505740528
100
AcDbArc
 50
220.0032241477723858
 51
273.5435143719248003
  0
ARC
  5
295
100
AcDbEntity
  8
0
 62
256
370
-1
  6
BYLAYER
100
AcDbCircle
 10
-104.5434957079283151
 20
437.363028830524172
 30
0.0
 40
53.4602991330858757
100
AcDbArc
 50
182.3028296414117904
 51
199.277470302672981
  0
ARC
  5
296
100
AcDbEntity
  8
0
 62
256
370
-1
  6
BYLAYER
100
AcDbCircle
 10
-45.5743700596011081
 20
381.2813786842474428
 30
0.0
 40
5.9999999999999982
100
AcDbArc
 50
272.3688019942725305
 51
92.3688019942725589
  0
LINE
  5
297
100
AcDbEntity
100
AcDbLine
  8
0
 62
256
370
-1
  6
BYLAYER
 10
-10.0
 20
400.0000000000002274
 30
0.0
 11
-10.0
 21
376.5000000000002274
 31
0.0
  0
LINE
  5
298
100
AcDbEntity
100
AcDbLine
  8
0
 62
256
370
-1
  6
BYLAYER
 10
-20.0
 20
400.0000000000002274
 30
0.0
 11
-20.0
 21
375.0000000000002274
 31
0.0
  0
LINE
  5
299
100
AcDbEntity
100
AcDbLine
  8
0
 62
256
370
-1
  6
BYLAYER
 10
-10.0
 20
22.9999999999998295
 30
0.0
 11
425.4839872845390119
 21
30.4198027545840333
 31
0.0
  0
INSERT
  5
29A
100
AcDbEntity
100
AcDbBlockReference
  8
0
 62
256
370
-1
  6
BYLAYER
  2
tuner
 10
-126.9999999999980389
 20
-16.0000000000011298
 30
0.0
 50
-1.5
  0
INSERT
  5
29B
100
AcDbEntity
100
AcDbBlockReference
  8
0
 62
256
370
-1
  6
BYLAYER
  2
tuner
 10
-86.9999999999980389
 20
-19.0000000000011298
 30
0.0
 50
-6.0
  0
INSERT
  5
29C
100
AcDbEntity
100
AcDbBlockReference
  8
0
 62
256
370
-1
  6
BYLAYER
  2
tuner
 10
-46.8600343327051121
 20
-26.0000000000011298
 30
0.0
 50
-12.0
  0
INSERT
  5
29D
100
AcDbEntity
100
AcDbBlockReference
  8
0
 62
256
370
-1
  6
BYLAYER
  2
tuner
 10
-142.0
 20
18.9999999999998295
 30
0.0
 41
1.0
 42
-1.0
 43
1.0
 50
364.0
  0
INSERT
  5
29E
100
AcDbEntity
100
AcDbBlockReference
  8
0
 62
256
370
-1
  6
BYLAYER
  2
tuner
 10
-102.0
 20
22.9999999999998295
 30
0.0
 41
1.0
 42
-1.0
 43
1.0
 50
365.5
  0
INSERT
  5
29F
100
AcDbEntity
100
AcDbBlockReference
  8
0
 62
256
370
-1
  6
BYLAYER
  2
tuner
 10
-62.0
 20
28.418410658067657
 30
0.0
 41
1.0
 42
-1.0
 43
1.0
 50
368.9999999999999432
  0
ARC
  5
2A0
100
AcDbEntity
  8
0
 62
256
370
-1
  6
BYLAYER
100
AcDbCircle
 10
-178.7751207011775136
 20
667.2078986422604885
 30
0.0
 40
638.2103673107119448
100
AcDbArc
 50
270.2433687400336453
 51
281.3505038985629199
  0
ARC
  5
2A1
100
AcDbEntity
  8
0
 62
256
370
-1
  6
BYLAYER
100
AcDbCircle
 10
-132.3918505901555136
 20
-393.2466598465451284
 30
0.0
 40
366.8655082880487726
100
AcDbArc
 50
74.9288350456976815
 51
92.2489472357044349
  0
ARC
  5
2A2
100
AcDbEntity
  8
0
 62
256
370
-1
  6
BYLAYER
100
AcDbCircle
 10
-153.0155712781771058
 20
22.3595453014683478
 30
0.0
 40
23.9871235027463996
100
AcDbArc
 50
163.9204783644399583
 51
248.7721377855814353
  0
LINE
  5
2A3
100
AcDbEntity
100
AcDbLine
  8
0
 62
256
370
-1
  6
BYLAYER
 10
353.3600343327070732
 20
-35.0
 30
0.0
 11
353.3600343327070732
 21
35.0
 31
0.0
  0
LINE
  5
2A4
100
AcDbEntity
100
AcDbLine
  8
0
 62
256
370
-1
  6
BYLAYER
 10
322.5
 20
40.0
 30
0.0
 11
348.3600343327070732
 21
40.0
 31
0.0
  0
LINE
  5
2A5
100
AcDbEntity
100
AcDbLine
  8
0
 62
256
370
-1
  6
BYLAYER
 10
322.5
 20
-40.0
 30
0.0
 11
348.3600343327070732
 21
-40.0
 31
0.0
  0
LINE
  5
2A6
100
AcDbEntity
100
AcDbLine
  8
0
 62
256
370
-1
  6
BYLAYER
 10
348.3600343327070732
 20
40.0
 30
0.0
 11
353.3600343327070732
 21
35.0
 31
0.0
  0
LINE
  5
2A7
100
AcDbEntity
100
AcDbLine
  8
0
 62
256
370
-1
  6
BYLAYER
 10
353.3600343327070732
 20
-35.0
 30
0.0
 11
348.3600343327070732
 21
-40.0
 31
0.0
  0
LINE
  5
2A8
100
AcDbEntity
100
AcDbLine
  8
0
 62
256
370
-1
  6
BYLAYER
 10
322.5
 20
-40.0
 30
0.0
 11
322.5
 21
40.0
 31
0.0
  0
LINE
  5
2A9
100
AcDbEntity
100
AcDbLine
  8
0
 62
256
370
-1
  6
BYLAYER
 10
769.1041331740693749
 20
-32.6199341119837456
 30
0.0
 11
769.1041331740693749
 21
32.6199341119836674
 31
0.0
  0
SPLINE
  5
2AA
  8
0
 62
256
370
-1
  6
BYLAYER
100
AcDbEntity
100
AcDbSpline
 70
8
 71
3
 72
38
 73
34
 74
0
 40
0.0
 40
0.0
 40
0.0
 40
0.0
 40
1.0
 40
2.0
 40
3.0
 40
4.0
 40
5.0
 40
6.0
 40
7.0
 40
8.0
 40
9.0
 40
10.0
 40
11.0
 40
12.0
 40
13.0
 40
14.0
 40
15.0
 40
16.0
 40
17.0
 40
18.0
 40
19.0
 40
20.0
 40
21.0
 40
22.0
 40
23.0
 40
24.0
 40
25.0
 40
26.0
 40
27.0
 40
28.0
 40
29.0
 40
30.0
 40
31.0
 40
31.0
 40
31.0
 40
31.0
 10
322.6418863600397344
 20
-40.0000000000001705
 30
0.0
 10
322.8366729401154771
 20
-46.7265493263230525
 30
0.0
 10
325.1477050709024752
 20
-57.7564754050797831
 30
0.0
 10
330.6101446527627559
 20
-70.3621052093723591
 30
0.0
 10
337.1379797952695299
 20
-82.1014922687204347
 30
0.0
 10
348.5738071537239193
 20
-97.7123042183566923
 30
0.0
 10
363.7794433437825319
 20
-110.3094075711614863
 30
0.0
 10
383.8014262658311964
 20
-121.1546483206045082
 30
0.0
 10
405.3346900239585011
 20
-123.3162158594314519
 30
0.0
 10
422.2305740911870089
 20
-122.8311665560659804
 30
0.0
 10
436.9437362932710585
 20
-119.5975045336301434
 30
0.0
 10
455.9639897140489211
 20
-114.8977786574645847
 30
0.0
 10
473.0661001266325911
 20
-108.6409089943241781
 30
0.0
 10
484.3284655202846807
 20
-104.4696625522307443
 30
0.0
 10
492.2538337602625234
 20
-103.6354132638120689
 30
0.0
 10
504.6889556633059328
 20
-105.126866983228652
 30
0.0
 10
517.2193960002455242
 20
-111.5133494775399328
 30
0.0
 10
538.9717939117099377
 20
-124.4916454742795935
 30
0.0
 10
566.0848957853174852
 20
-140.7595065984442613
 30
0.0
 10
589.0267512168320536
 20
-152.0218719920967203
 30
0.0
 10
611.9686066483463946
 20
-158.6958662994463225
 30
0.0
 10
633.6590881472320689
 20
-161.6157388089118854
 30
0.0
 10
653.8771867304144507
 20
-161.7579899821513152
 30
0.0
 10
679.5847998087810993
 20
-156.8266553979364346
 30
0.0
 10
705.1307297860257677
 20
-144.7812643643620731
 30
0.0
 10
719.601367336426847
 20
-133.7059719375185978
 30
0.0
 10
732.239545728709345
 20
-120.9460859985004078
 30
0.0
 10
744.7532850549896466
 20
-103.0097262974983465
 30
0.0
 10
755.5985258044329385
 20
-81.7363694428214416
 30
0.0
 10
760.6003362307042153
 20
-70.0837538547865364
 30
0.0
 10
766.2728696426361239
 20
-52.8560597889197084
 30
0.0
 10
768.6259205394371747
 20
-41.9731993912135977
 30
0.0
 10
769.1041331740693749
 20
-32.6199341119837527
 30
0.0
 10
769.1041331740693749
 20
-32.6199341119837527
 30
0.0
  0
ARC
  5
2AB
100
AcDbEntity
  8
0
 62
256
370
-1
  6
BYLAYER
100
AcDbCircle
 10
381.7400835851212832
 20
13.9375247205867279
 30
0.0
 40
46.7460650756182687
100
AcDbArc
 50
342.6532402390824359
 51
20.6459217975732052
  0
ARC
  5
2AC
100
AcDbEntity
  8
0
 62
256
370
-1
  6
BYLAYER
100
AcDbCircle
 10
470.9799850802928631
 20
-13.9375247205867421
 30
0.0
 40
46.7460650756182687
100
AcDbArc
 50
162.6532402390823506
 51
200.6852803318055578
  0
LINE
  5
2AD
100
AcDbEntity
100
AcDbLine
  8
0
 62
256
370
-1
  6
BYLAYER
 10
-10.0
 20
-25.0000000000001705
 30
0.0
 11
-10.0
 21
24.9999999999998295
 31
0.0
  0
LINE
  5
2AE
100
AcDbEntity
100
AcDbLine
  8
0
 62
256
370
-1
  6
BYLAYER
 10
-15.0
 20
-25.0000000000001705
 30
0.0
 11
-15.0
 21
24.9999999999998295
 31
0.0
  0
LINE
  5
2AF
100
AcDbEntity
100
AcDbLine
  8
strings
 62
9
420
12632256
370
70
  6
BYLAYER
 10
-10.0
 20
18.9999999999998295
 30
0.0
 11
646.0
 21
29.9999999999998295
 31
0.0
  0
LINE
  5
2B0
100
AcDbEntity
100
AcDbLine
  8
strings
 62
9
420
12632256
370
80
  6
BYLAYER
 10
-10.0
 20
5.4999999999998286
 30
0.0
 11
646.0
 21
8.4999999999998295
 31
0.0
  0
LINE
  5
2B1
100
AcDbEntity
100
AcDbLine
  8
strings
 62
9
420
12632256
370
100
  6
BYLAYER
 10
-10.0
 20
-4.5000000000001705
 30
0.0
 11
646.0
 21
-8.0000000000001705
 31
0.0
  0
LINE
  5
2B2
100
AcDbEntity
100
AcDbLine
  8
strings
 62
252
420
10526884
370
70
  6
BYLAYER
 10
-10.0
 20
-18.0000000000001705
 30
0.0
 11
646.0
 21
-30.0000000000001705
 31
0.0
  0
LINE
  5
2B3
100
AcDbEntity
100
AcDbLine
  8
strings
 62
252
420
10526884
370
90
  6
BYLAYER
 10
-10.0
 20
-8.0000000000001705
 30
0.0
 11
646.0
 21
-13.0000000000001705
 31
0.0
  0
LINE
  5
2B4
100
AcDbEntity
100
AcDbLine
  8
strings
 62
252
420
10526884
370
106
  6
BYLAYER
 10
-10.0
 20
15.4999999999998277
 30
0.0
 11
646.0
 21
24.9999999999998295
 31
0.0
  0
LINE
  5
2B5
100
AcDbEntity
100
AcDbLine
  8
strings
 62
9
420
12632256
370
70
  6
BYLAYER
 10
-15.0
 20
19.0
 30
0.0
 11
-62.0
 21
26.418410658067657
 31
0.0
  0
LINE
  5
2B6
100
AcDbEntity
100
AcDbLine
  8
strings
 62
252
420
10526884
370
106
  6
BYLAYER
 10
-14.9999999999999982
 20
15.4999999999999982
 30
0.0
 11
-102.0
 21
20.9999999999998295
 31
0.0
  0
LINE
  5
2B7
100
AcDbEntity
100
AcDbLine
  8
strings
 62
9
420
12632256
370
80
  6
BYLAYER
 10
-14.9999999999999982
 20
5.4999999999999991
 30
0.0
 11
-142.0
 21
16.9999999999998295
 31
0.0
  0
LINE
  5
2B8
100
AcDbEntity
100
AcDbLine
  8
strings
 62
9
420
12632256
370
100
  6
BYLAYER
 10
-14.9999999999999982
 20
-4.5
 30
0.0
 11
-126.9999999999985931
 21
-14.0000000000011298
 31
0.0
  0
LINE
  5
2B9
100
AcDbEntity
100
AcDbLine
  8
strings
 62
252
420
10526884
370
90
  6
BYLAYER
 10
-15.0
 20
-8.0
 30
0.0
 11
-86.9999999999985931
 21
-17.0000000000011298
 31
0.0
  0
LINE
  5
2BA
100
AcDbEntity
100
AcDbLine
  8
strings
 62
252
420
10526884
370
70
  6
BYLAYER
 10
-15.0
 20
-18.0
 30
0.0
 11
-46.8600343327051121
 21
-24.0000000000011298
 31
0.0
  0
ARC
  5
2BB
100
AcDbEntity
  8
0
 62
256
370
-1
  6
BYLAYER
100
AcDbCircle
 10
648.3331669977005731
 20
78.2304736688518716
 30
0.0
 40
17.5344885580937309
100
AcDbArc
 50
64.071892179715249
 51
115.1812180630575853
  0
ARC
  5
2BC
100
AcDbEntity
  8
0
 62
256
370
-1
  6
BYLAYER
100
AcDbCircle
 10
663.6668330022994269
 20
109.7695263311478016
 30
0.0
 40
17.5344885580937309
100
AcDbArc
 50
244.0718921797152348
 51
295.5194474665889857
  0
LINE
  5
2BD
100
AcDbEntity
100
AcDbLine
  8
0
 62
256
370
-1
  6
BYLAYER
 10
640.018873683593938
 20
-40.0000000000001705
 30
0.0
 11
640.8725461576277667
 21
-94.0985997609468257
 31
0.0
  0
ARC
  5
2BE
100
AcDbEntity
  8
0
 62
256
370
-1
  6
BYLAYER
100
AcDbCircle
 10
648.3331669976996636
 20
-78.2304736688526816
 30
0.0
 40
17.5344885580937309
100
AcDbArc
 50
244.818781936944049
 51
295.9281078202860726
  0
ARC
  5
2BF
100
AcDbEntity
  8
0
 62
256
370
-1
  6
BYLAYER
100
AcDbCircle
 10
663.6668330022998816
 20
-109.7695263311481142
 30
0.0
 40
17.5344885580937309
100
AcDbArc
 50
64.4805525334114122
 51
115.9281078202862147
  0
LINE
  5
2C0
100
AcDbEntity
100
AcDbLine
  8
0
 62
256
370
-1
  6
BYLAYER
 10
671.2209962922029263
 20
-93.945718130104936
 30
0.0
 11
672.9833526288475696
 21
-40.0000000000002132
 31
0.0
  0
LINE
  5
2C1
100
AcDbEntity
100
AcDbLine
  8
0
 62
256
370
-1
  6
BYLAYER
 10
646.0
 20
-37.5000000000001705
 30
0.0
 11
649.0
 21
-37.5000000000001705
 31
0.0
  0
LINE
  5
2C2
100
AcDbEntity
100
AcDbLine
  8
0
 62
256
370
-1
  6
BYLAYER
 10
649.0
 20
-37.5000000000001705
 30
0.0
 11
649.0
 21
37.4999999999998295
 31
0.0
  0
LINE
  5
2C3
100
AcDbEntity
100
AcDbLine
  8
0
 62
256
370
-1
  6
BYLAYER
 10
649.0
 20
37.4999999999998295
 30
0.0
 11
646.0
 21
37.4999999999998295
 31
0.0
  0
LINE
  5
2C4
100
AcDbEntity
100
AcDbLine
  8
0
 62
256
370
-1
  6
BYLAYER
 10
646.0
 20
37.4999999999998295
 30
0.0
 11
646.0
 21
-37.5000000000001705
 31
0.0
  0
LINE
  5
2C5
100
AcDbEntity
100
AcDbLine
  8
0
 62
256
370
-1
  6
BYLAYER
 10
663.9833526288475696
 20
-40.0000000000002061
 30
0.0
 11
672.9833526288475696
 21
-40.0000000000002061
 31
0.0
  0
LINE
  5
2C6
100
AcDbEntity
100
AcDbLine
  8
0
 62
256
370
-1
  6
BYLAYER
 10
672.9833526288475696
 20
-40.0000000000002061
 30
0.0
 11
672.9833526288475696
 21
39.9999999999997939
 31
0.0
  0
LINE
  5
2C7
100
AcDbEntity
100
AcDbLine
  8
0
 62
256
370
-1
  6
BYLAYER
 10
672.9833526288475696
 20
39.9999999999997939
 30
0.0
 11
663.9833526288475696
 21
39.9999999999997939
 31
0.0
  0
LINE
  5
2C8
100
AcDbEntity
100
AcDbLine
  8
0
 62
256
370
-1
  6
BYLAYER
 10
663.9833526288475696
 20
39.9999999999997939
 30
0.0
 11
663.9833526288475696
 21
-40.0000000000002061
 31
0.0
  0
LINE
  5
2C9
100
AcDbEntity
100
AcDbLine
  8
0
 62
256
370
-1
  6
BYLAYER
 10
640.0
 20
-40.0000000000001705
 30
0.0
 11
654.0
 21
-40.0000000000001705
 31
0.0
  0
LINE
  5
2CA
100
AcDbEntity
100
AcDbLine
  8
0
 62
256
370
-1
  6
BYLAYER
 10
654.0
 20
-40.0000000000001705
 30
0.0
 11
654.0
 21
39.9999999999998295
 31
0.0
  0
LINE
  5
2CB
100
AcDbEntity
100
AcDbLine
  8
0
 62
256
370
-1
  6
BYLAYER
 10
654.0
 20
39.9999999999998295
 30
0.0
 11
640.0
 21
39.9999999999998295
 31
0.0
  0
LINE
  5
2CC
100
AcDbEntity
100
AcDbLine
  8
0
 62
256
370
-1
  6
BYLAYER
 10
640.0
 20
39.9999999999998295
 30
0.0
 11
640.0
 21
-40.0000000000001705
 31
0.0
  0
LINE
  5
2CD
100
AcDbEntity
100
AcDbLine
  8
0
 62
256
370
-1
  6
BYLAYER
 10
654.0
 20
39.9999999999998295
 30
0.0
 11
663.9833526288475696
 21
39.9999999999997868
 31
0.0
  0
LINE
  5
2CE
100
AcDbEntity
100
AcDbLine
  8
0
 62
256
370
-1
  6
BYLAYER
 10
663.9833526288475696
 20
-40.0000000000002132
 30
0.0
 11
654.0
 21
-40.0000000000001705
 31
0.0
  0
LINE
  5
2CF
100
AcDbEntity
100
AcDbLine
  8
back_bracing
 62
256
370
-1
  6
BYLAYER
 10
600.5
 20
159.000000000000199
 30
0.0
 11
606.5
 21
159.0000000000001137
 31
0.0
  0
LINE
  5
2D0
100
AcDbEntity
100
AcDbLine
  8
back_bracing
 62
256
370
-1
  6
BYLAYER
 10
600.5
 20
-158.9999999999998295
 30
0.0
 11
606.5
 21
-158.9999999999998295
 31
0.0
  0
LINE
  5
2D1
100
AcDbEntity
100
AcDbLine
  8
back_bracing
 62
256
370
-1
  6
BYLAYER
 10
606.5
 20
-158.9999999999998295
 30
0.0
 11
606.5
 21
159.0000000000001137
 31
0.0
  0
LINE
  5
2D2
100
AcDbEntity
100
AcDbLine
  8
back_bracing
 62
256
370
-1
  6
BYLAYER
 10
600.5
 20
159.0000000000002274
 30
0.0
 11
600.5
 21
-158.9999999999998295
 31
0.0
  0
ARC
  5
2D3
100
AcDbEntity
  8
rosette
 62
256
370
-1
  6
BYLAYER
100
AcDbCircle
 10
460.0
 20
0.0000000000000018
 30
0.0
 40
46.5
100
AcDbArc
 50
285.945395900922847
 51
17.3932490924198788
  0
ARC
  5
2D4
100
AcDbEntity
  8
rosette
 62
256
370
-1
  6
BYLAYER
100
AcDbCircle
 10
460.0
 20
0.0000000000000018
 30
0.0
 40
65.0
100
AcDbArc
 50
285.945395900922847
 51
17.3932490924198788
  0
LINE
  5
2D5
100
AcDbEntity
100
AcDbLine
  8
rosette
 62
256
370
-1
  6
BYLAYER
 10
473.7524981258428625
 20
60.4555108761698392
 30
0.0
 11
474.1961270976443075
 21
62.405688646368823
 31
0.0
  0
ARC
  5
2D6
100
AcDbEntity
  8
rosette
 62
256
370
70
  6
BYLAYER
100
AcDbCircle
 10
460.0
 20
0.0000000000000018
 30
0.0
 40
64.0
100
AcDbArc
 50
17.3932490924198788
 51
77.1843711342423546
  0
ARC
  5
2D7
100
AcDbEntity
  8
rosette
 62
256
370
70
  6
BYLAYER
100
AcDbCircle
 10
460.0
 20
0.0000000000000018
 30
0.0
 40
62.0
100
AcDbArc
 50
17.3932490924198788
 51
77.1843711342423546
  0
LINE
  5
2D8
100
AcDbEntity
100
AcDbLine
  8
rosette
 62
256
370
-1
  6
BYLAYER
 10
506.7058735181983593
 20
-1.4785751735791308
 30
0.0
 11
511.7017019743316268
 21
-1.6827761453933192
 31
0.0
  0
ARC
  5
2D9
100
AcDbEntity
  8
rosette
 62
256
370
70
  6
BYLAYER
100
AcDbCircle
 10
460.0
 20
0.0000000000000018
 30
0.0
 40
54.0
100
AcDbArc
 50
123.6900675259797708
 51
285.945395900922847
  0
LINE
  5
2DA
100
AcDbEntity
100
AcDbLine
  8
rosette
 62
256
370
-1
  6
BYLAYER
 10
432.2649901887386932
 20
41.6025147168921947
 30
0.0
 11
429.4914892076126307
 21
45.762766188581395
 31
0.0
  0
ARC
  5
2DB
100
AcDbEntity
  8
rosette
 62
256
370
-1
  6
BYLAYER
100
AcDbCircle
 10
460.0
 20
0.0000000000000018
 30
0.0
 40
50.0
100
AcDbArc
 50
357.6593782585515555
 51
123.6900675259797708
  0
ARC
  5
2DC
100
AcDbEntity
  8
rosette
 62
256
370
-1
  6
BYLAYER
100
AcDbCircle
 10
460.0
 20
0.0000000000000018
 30
0.0
 40
55.0
100
AcDbArc
 50
357.6593782585515555
 51
123.6900675259798135
  0
LINE
  5
2DD
100
AcDbEntity
100
AcDbLine
  8
rosette
 62
256
370
-1
  6
BYLAYER
 10
512.485155609845151
 20
16.4410595951217431
 30
0.0
 11
522.0279111752715835
 21
19.4303431578711496
 31
0.0
  0
LINE
  5
2DE
100
AcDbEntity
100
AcDbLine
  8
rosette
 62
256
370
-1
  6
BYLAYER
 10
472.7745324472282391
 20
-44.7108635652982684
 30
0.0
 11
477.8568733133297428
 21
-62.4990565966535314
 31
0.0
  0
LINE
  5
2DF
100
AcDbEntity
100
AcDbLine
  8
rosette
 62
256
370
-1
  6
BYLAYER
 10
504.3738133792328426
 20
13.9001685667847443
 30
0.0
 11
507.7137778271321622
 21
14.9464178137470771
 31
0.0
  0
ARC
  5
2E0
100
AcDbEntity
  8
rosette
 62
256
370
70
  6
BYLAYER
100
AcDbCircle
 10
460.0
 20
0.0000000000000018
 30
0.0
 40
52.0
100
AcDbArc
 50
123.6900675259797708
 51
285.945395900922847
  0
LINE
  5
2E1
100
AcDbEntity
100
AcDbLine
  8
top_bracing
 62
256
370
-1
  6
BYLAYER
 10
710.2748167824729535
 20
-58.771238437828643
 30
0.0
 11
517.5
 21
-29.2497215834457549
 31
0.0
  0
LINE
  5
2E2
100
AcDbEntity
100
AcDbLine
  8
top_bracing
 62
256
370
-1
  6
BYLAYER
 10
687.6595095134953226
 20
-102.0768028770143019
 30
0.0
 11
517.5
 21
-53.9835414434274909
 31
0.0
  0
LINE
  5
2E3
100
AcDbEntity
100
AcDbLine
  8
top_bracing
 62
256
370
-1
  6
BYLAYER
 10
665.1871070957067786
 20
-144.0266603442937594
 30
0.0
 11
517.5
 21
-81.2227319830823973
 31
0.0
  0
LINE
  5
2E4
100
AcDbEntity
100
AcDbLine
  8
top_bracing
 62
256
370
-1
  6
BYLAYER
 10
726.5
 20
1.5000000000001705
 30
0.0
 11
517.5
 21
1.5000000000001705
 31
0.0
  0
LINE
  5
2E5
100
AcDbEntity
100
AcDbLine
  8
top_bracing
 62
256
370
-1
  6
BYLAYER
 10
517.5
 20
-1.4999999999998295
 30
0.0
 11
726.5
 21
-1.4999999999998295
 31
0.0
  0
LINE
  5
2E6
100
AcDbEntity
100
AcDbLine
  8
top_bracing
 62
256
370
-1
  6
BYLAYER
 10
709.8206912494938479
 20
-61.7366675805154728
 30
0.0
 11
517.5
 21
-32.2846954664654504
 31
0.0
  0
LINE
  5
2E7
100
AcDbEntity
100
AcDbLine
  8
top_bracing
 62
256
370
-1
  6
BYLAYER
 10
686.8435645869185464
 20
-104.9637101974514621
 30
0.0
 11
517.5
 21
-57.1010644537044882
 31
0.0
  0
LINE
  5
2E8
100
AcDbEntity
100
AcDbLine
  8
top_bracing
 62
256
370
-1
  6
BYLAYER
 10
664.013100827708513
 20
-146.7874046791970954
 30
0.0
 11
517.5
 21
-84.4827223727086647
 31
0.0
  0
LINE
  5
2E9
100
AcDbEntity
100
AcDbLine
  8
top_bracing
 62
256
370
-1
  6
BYLAYER
 10
687.6595095134953226
 20
-102.0768028770143019
 30
0.0
 11
686.8435645869185464
 21
-104.9637101974514621
 31
0.0
  0
LINE
  5
2EA
100
AcDbEntity
100
AcDbLine
  8
top_bracing
 62
256
370
-1
  6
BYLAYER
 10
710.2748167824729535
 20
-58.771238437828643
 30
0.0
 11
709.8206912494938479
 21
-61.7366675805154728
 31
0.0
  0
LINE
  5
2EB
100
AcDbEntity
100
AcDbLine
  8
top_bracing
 62
256
370
-1
  6
BYLAYER
 10
665.1871070957067786
 20
-144.0266603442937594
 30
0.0
 11
664.013100827708513
 21
-146.7874046791970954
 31
0.0
  0
LINE
  5
2EC
100
AcDbEntity
100
AcDbLine
  8
top_bracing
 62
256
370
-1
  6
BYLAYER
 10
369.5
 20
-74.9999999999998295
 30
0.0
 11
369.5
 21
75.0000000000001705
 31
0.0
  0
LINE
  5
2ED
100
AcDbEntity
100
AcDbLine
  8
top_bracing
 62
256
370
-1
  6
BYLAYER
 10
746.7095290887309602
 20
-2.3871097761114828
 30
0.0
 11
683.7761218464984267
 21
-138.7428254676146082
 31
0.0
  0
LINE
  5
2EE
100
AcDbEntity
100
AcDbLine
  8
top_bracing
 62
256
370
-1
  6
BYLAYER
 10
710.2748167824729535
 20
58.7712384378288846
 30
0.0
 11
517.5
 21
29.2497215834460995
 31
0.0
  0
LINE
  5
2EF
100
AcDbEntity
100
AcDbLine
  8
top_bracing
 62
256
370
-1
  6
BYLAYER
 10
687.6595095134953226
 20
102.0768028770145719
 30
0.0
 11
517.5
 21
53.9835414434277538
 31
0.0
  0
LINE
  5
2F0
100
AcDbEntity
100
AcDbLine
  8
top_bracing
 62
256
370
-1
  6
BYLAYER
 10
665.1871070957067786
 20
144.0266603442940152
 30
0.0
 11
517.5
 21
81.2227319830826673
 31
0.0
  0
LINE
  5
2F1
100
AcDbEntity
100
AcDbLine
  8
top_bracing
 62
256
370
-1
  6
BYLAYER
 10
746.7095290887309602
 20
2.3871097761117381
 30
0.0
 11
683.7761218464984267
 21
138.7428254676148924
 31
0.0
  0
LINE
  5
2F2
100
AcDbEntity
100
AcDbLine
  8
top_bracing
 62
256
370
-1
  6
BYLAYER
 10
709.8206912494938479
 20
61.7366675805157428
 30
0.0
 11
517.5
 21
32.2846954664657346
 31
0.0
  0
LINE
  5
2F3
100
AcDbEntity
100
AcDbLine
  8
top_bracing
 62
256
370
-1
  6
BYLAYER
 10
686.8435645869185464
 20
104.963710197451789
 30
0.0
 11
517.5
 21
57.1010644537046375
 31
0.0
  0
LINE
  5
2F4
100
AcDbEntity
100
AcDbLine
  8
top_bracing
 62
256
370
-1
  6
BYLAYER
 10
664.013100827708513
 20
146.7874046791973797
 30
0.0
 11
517.5
 21
84.4827223727089631
 31
0.0
  0
LINE
  5
2F5
100
AcDbEntity
100
AcDbLine
  8
top_bracing
 62
256
370
-1
  6
BYLAYER
 10
743.985650935229387
 20
1.1299352437265204
 30
0.0
 11
681.0522436929973082
 21
137.4856509352295859
 31
0.0
  0
LINE
  5
2F6
100
AcDbEntity
100
AcDbLine
  8
top_bracing
 62
256
370
-1
  6
BYLAYER
 10
743.985650935229387
 20
1.1299352437264425
 30
0.0
 11
746.7095290887309602
 21
2.3871097761116187
 31
0.0
  0
LINE
  5
2F7
100
AcDbEntity
100
AcDbLine
  8
top_bracing
 62
256
370
-1
  6
BYLAYER
 10
687.6595095134953226
 20
102.0768028770145719
 30
0.0
 11
686.8435645869185464
 21
104.963710197451789
 31
0.0
  0
LINE
  5
2F8
100
AcDbEntity
100
AcDbLine
  8
top_bracing
 62
256
370
-1
  6
BYLAYER
 10
681.0522436929973082
 20
137.4856509352295859
 30
0.0
 11
683.7761218464984267
 21
138.7428254676148924
 31
0.0
  0
LINE
  5
2F9
100
AcDbEntity
100
AcDbLine
  8
top_bracing
 62
256
370
-1
  6
BYLAYER
 10
710.2748167824729535
 20
58.7712384378288846
 30
0.0
 11
709.8206912494938479
 21
61.7366675805157428
 31
0.0
  0
LINE
  5
2FA
100
AcDbEntity
100
AcDbLine
  8
top_bracing
 62
256
370
-1
  6
BYLAYER
 10
665.1871070957067786
 20
144.0266603442940152
 30
0.0
 11
664.013100827708513
 21
146.7874046791973797
 31
0.0
  0
LINE
  5
2FB
100
AcDbEntity
100
AcDbLine
  8
top_bracing
 62
256
370
-1
  6
BYLAYER
 10
375.5
 20
-74.9999999999998295
 30
0.0
 11
375.5
 21
75.0000000000001705
 31
0.0
  0
LINE
  5
2FC
100
AcDbEntity
100
AcDbLine
  8
top_bracing
 62
256
370
-1
  6
BYLAYER
 10
406.5
 20
-114.9999999999998295
 30
0.0
 11
406.5
 21
115.0000000000001705
 31
0.0
  0
LINE
  5
2FD
100
AcDbEntity
100
AcDbLine
  8
top_bracing
 62
256
370
-1
  6
BYLAYER
 10
517.5
 20
100.0000000000001705
 30
0.0
 11
517.5
 21
-99.9999999999998295
 31
0.0
  0
LINE
  5
2FE
100
AcDbEntity
100
AcDbLine
  8
top_bracing
 62
256
370
-1
  6
BYLAYER
 10
511.5
 20
64.6578886536702839
 30
0.0
 11
412.5
 21
97.6578886536702697
 31
0.0
  0
LINE
  5
2FF
100
AcDbEntity
100
AcDbLine
  8
top_bracing
 62
256
370
-1
  6
BYLAYER
 10
511.5
 20
-63.5310195645440103
 30
0.0
 11
412.5
 21
-96.5310195645439819
 31
0.0
  0
LINE
  5
300
100
AcDbEntity
100
AcDbLine
  8
0
 62
256
370
-1
  6
BYLAYER
 10
89.4960000000000093
 20
-23.8667768524066659
 30
0.0
 11
89.4960000000000093
 21
-3.0000000000001705
 31
0.0
  0
LINE
  5
301
100
AcDbEntity
100
AcDbLine
  8
0
 62
256
370
-1
  6
BYLAYER
 10
86.4960000000000093
 20
-0.0000000000001705
 30
0.0
 11
86.4960000000000235
 21
-0.0000000000001705
 31
0.0
  0
LINE
  5
302
100
AcDbEntity
100
AcDbLine
  8
0
 62
256
370
-1
  6
BYLAYER
 10
83.4960000000000093
 20
-3.0000000000001705
 30
0.0
 11
83.4960000000000093
 21
-23.7542028683827979
 31
0.0
  0
LINE
  5
303
100
AcDbEntity
100
AcDbLine
  8
0
 62
256
370
-1
  6
BYLAYER
 10
150.5105000000000075
 20
-25.0115510771107381
 30
0.0
 11
150.5105000000000075
 21
-2.9994531503185531
 31
0.0
  0
LINE
  5
304
100
AcDbEntity
100
AcDbLine
  8
0
 62
256
370
-1
  6
BYLAYER
 10
147.5105000000000075
 20
0.0005468496814469
 30
0.0
 11
147.5104999999999791
 21
0.0005468496814469
 31
0.0
  0
LINE
  5
305
100
AcDbEntity
100
AcDbLine
  8
0
 62
256
370
-1
  6
BYLAYER
 10
144.5105000000000075
 20
-2.9994531503185531
 30
0.0
 11
144.5105000000000075
 21
-24.898977093086863
 31
0.0
  0
LINE
  5
306
100
AcDbEntity
100
AcDbLine
  8
0
 62
256
370
-1
  6
BYLAYER
 10
275.24350000000004
 20
-27.3518328686522985
 30
0.0
 11
275.24350000000004
 21
-3.0
 31
0.0
  0
LINE
  5
307
100
AcDbEntity
100
AcDbLine
  8
0
 62
256
370
-1
  6
BYLAYER
 10
275.7494999999998981
 20
-0.0
 30
0.0
 11
275.7494999999998981
 21
-0.0
 31
0.0
  0
LINE
  5
308
100
AcDbEntity
100
AcDbLine
  8
0
 62
256
370
-1
  6
BYLAYER
 10
269.24350000000004
 20
-3.0
 30
0.0
 11
269.24350000000004
 21
-27.2392588846284305
 31
0.0
  0
LINE
  5
309
100
AcDbEntity
100
AcDbLine
  8
0
 62
256
370
-1
  6
BYLAYER
 10
315.9114999999999895
 20
-28.1148593323660911
 30
0.0
 11
315.9114999999999895
 21
-3.0
 31
0.0
  0
LINE
  5
30A
100
AcDbEntity
100
AcDbLine
  8
0
 62
256
370
-1
  6
BYLAYER
 10
313.5805000000000291
 20
-0.0
 30
0.0
 11
313.5805000000000291
 21
-0.0
 31
0.0
  0
LINE
  5
30B
100
AcDbEntity
100
AcDbLine
  8
0
 62
256
370
-1
  6
BYLAYER
 10
309.9114999999999895
 20
-3.0
 30
0.0
 11
309.9114999999999895
 21
-28.0022853483422196
 31
0.0
  0
LINE
  5
30C
100
AcDbEntity
100
AcDbLine
  8
0
 62
256
370
-1
  6
BYLAYER
 10
204.3209999999999695
 20
-26.0211614716634791
 30
0.0
 11
204.3209999999999695
 21
-3.0000000000002029
 31
0.0
  0
LINE
  5
30D
100
AcDbEntity
100
AcDbLine
  8
0
 62
256
370
-1
  6
BYLAYER
 10
201.3209999999999695
 20
-0.0000000000002028
 30
0.0
 11
201.3209999999999695
 21
-0.0000000000002028
 31
0.0
  0
LINE
  5
30E
100
AcDbEntity
100
AcDbLine
  8
0
 62
256
370
-1
  6
BYLAYER
 10
198.3209999999999695
 20
-3.0000000000002029
 30
0.0
 11
198.3209999999999695
 21
-25.9085874876396147
 31
0.0
  0
ARC
  5
30F
100
AcDbEntity
  8
0
 62
256
370
-1
  6
BYLAYER
100
AcDbCircle
 10
86.4960000000000235
 20
-3.0000000000001705
 30
0.0
 40
3.0
100
AcDbArc
 50
90.0
 51
180.0
  0
ARC
  5
310
100
AcDbEntity
  8
0
 62
256
370
-1
  6
BYLAYER
100
AcDbCircle
 10
86.4960000000000093
 20
-3.0000000000001705
 30
0.0
 40
3.0
100
AcDbArc
 50
0.0
 51
90.0
  0
ARC
  5
311
100
AcDbEntity
  8
0
 62
256
370
-1
  6
BYLAYER
100
AcDbCircle
 10
147.5104999999999791
 20
-2.9994531503185531
 30
0.0
 40
3.0
100
AcDbArc
 50
90.0
 51
180.0
  0
ARC
  5
312
100
AcDbEntity
  8
0
 62
256
370
-1
  6
BYLAYER
100
AcDbCircle
 10
147.5105000000000075
 20
-2.9994531503185531
 30
0.0
 40
3.0
100
AcDbArc
 50
0.0
 51
90.0
  0
ARC
  5
313
100
AcDbEntity
  8
0
 62
256
370
-1
  6
BYLAYER
100
AcDbCircle
 10
201.3209999999999695
 20
-3.0000000000002029
 30
0.0
 40
3.0
100
AcDbArc
 50
90.0
 51
180.0
  0
ARC
  5
314
100
AcDbEntity
  8
0
 62
256
370
-1
  6
BYLAYER
100
AcDbCircle
 10
201.3209999999999695
 20
-3.0000000000002029
 30
0.0
 40
3.0
100
AcDbArc
 50
0.0
 51
90.0
  0
ARC
  5
315
100
AcDbEntity
  8
0
 62
256
370
-1
  6
BYLAYER
100
AcDbCircle
 10
272.2434999999999832
 20
-3.0
 30
0.0
 40
3.0
100
AcDbArc
 50
90.0
 51
180.0
  0
ARC
  5
316
100
AcDbEntity
  8
0
 62
256
370
-1
  6
BYLAYER
100
AcDbCircle
 10
272.2434999999999832
 20
-3.0
 30
0.0
 40
3.0
100
AcDbArc
 50
0.0
 51
90.0
  0
ARC
  5
317
100
AcDbEntity
  8
0
 62
256
370
-1
  6
BYLAYER
100
AcDbCircle
 10
312.9114999999999895
 20
-3.0
 30
0.0
 40
3.0
100
AcDbArc
 50
90.0
 51
180.0
  0
ARC
  5
318
100
AcDbEntity
  8
0
 62
256
370
-1
  6
BYLAYER
100
AcDbCircle
 10
312.9114999999999895
 20
-3.0
 30
0.0
 40
3.0
100
AcDbArc
 50
0.0
 51
90.0
  0
ARC
  5
319
100
AcDbEntity
  8
top_bracing
 62
256
370
-1
  6
BYLAYER
100
AcDbCircle
 10
460.7475889568663661
 20
0.5634345445629645
 30
0.0
 40
64.0
100
AcDbArc
 50
221.0733934658638304
 51
322.4673606982540264
  0
ARC
  5
31A
100
AcDbEntity
  8
top_bracing
 62
256
370
-1
  6
BYLAYER
100
AcDbCircle
 10
460.7475889568663661
 20
0.5634345445629645
 30
0.0
 40
64.0
100
AcDbArc
 50
37.5326393017459665
 51
138.9266065341361696
  0
LINE
  5
31B
100
AcDbEntity
100
AcDbLine
  8
frets
 62
256
370
-1
  6
BYLAYER
 10
214.51400000000001
 20
-30.0
 30
0.0
 11
214.51400000000001
 21
30.0
 31
0.0
  0
LINE
  5
31C
100
AcDbEntity
100
AcDbLine
  8
frets
 62
256
370
-1
  6
BYLAYER
 10
238.6750000000000114
 20
-30.0
 30
0.0
 11
238.6750000000000114
 21
30.0
 31
0.0
  0
LINE
  5
31D
100
AcDbEntity
100
AcDbLine
  8
frets
 62
256
370
-1
  6
BYLAYER
 10
261.4809999999999945
 20
-30.0
 30
0.0
 11
261.4809999999999945
 21
30.0
 31
0.0
  0
LINE
  5
31E
100
AcDbEntity
100
AcDbLine
  8
frets
 62
256
370
-1
  6
BYLAYER
 10
283.0059999999999718
 20
-30.0
 30
0.0
 11
283.0059999999999718
 21
30.0
 31
0.0
  0
LINE
  5
31F
100
AcDbEntity
100
AcDbLine
  8
frets
 62
256
370
-1
  6
BYLAYER
 10
303.3229999999999791
 20
-30.0
 30
0.0
 11
303.3229999999999791
 21
30.0
 31
0.0
  0
LINE
  5
320
100
AcDbEntity
100
AcDbLine
  8
frets
 62
256
370
-1
  6
BYLAYER
 10
322.5
 20
-30.0
 30
0.0
 11
322.5
 21
30.0
 31
0.0
  0
LINE
  5
321
100
AcDbEntity
100
AcDbLine
  8
frets
 62
256
370
-1
  6
BYLAYER
 10
340.6009999999999991
 20
-30.0
 30
0.0
 11
340.6009999999999991
 21
30.0
 31
0.0
  0
LINE
  5
322
100
AcDbEntity
100
AcDbLine
  8
frets
 62
256
370
-1
  6
BYLAYER
 10
357.6850000000000023
 20
-30.0
 30
0.0
 11
357.6850000000000023
 21
30.0
 31
0.0
  0
LINE
  5
323
100
AcDbEntity
100
AcDbLine
  8
frets
 62
256
370
-1
  6
BYLAYER
 10
373.8109999999999786
 20
-30.0
 30
0.0
 11
373.8109999999999786
 21
30.0
 31
0.0
  0
LINE
  5
324
100
AcDbEntity
100
AcDbLine
  8
frets
 62
256
370
-1
  6
BYLAYER
 10
389.0319999999999823
 20
-30.0
 30
0.0
 11
389.0319999999999823
 21
30.0
 31
0.0
  0
LINE
  5
325
100
AcDbEntity
100
AcDbLine
  8
frets
 62
256
370
-1
  6
BYLAYER
 10
403.3980000000000246
 20
-30.0
 30
0.0
 11
403.3980000000000246
 21
30.0
 31
0.0
  0
LINE
  5
326
100
AcDbEntity
100
AcDbLine
  8
frets
 62
256
370
-1
  6
BYLAYER
 10
416.9580000000000268
 20
-30.0
 30
0.0
 11
416.9580000000000268
 21
30.0
 31
0.0
  0
LINE
  5
327
100
AcDbEntity
100
AcDbLine
  8
frets
 62
256
370
-1
  6
BYLAYER
 10
-10.0
 20
-30.0000000000001137
 30
0.0
 11
-10.0
 21
29.9999999999997726
 31
0.0
  0
LINE
  5
328
100
AcDbEntity
100
AcDbLine
  8
frets
 62
256
370
-1
  6
BYLAYER
 10
-10.0
 20
29.9999999999997726
 30
0.0
 11
416.95799999999997
 21
29.9999999999999822
 31
0.0
  0
LINE
  5
329
100
AcDbEntity
100
AcDbLine
  8
frets
 62
256
370
-1
  6
BYLAYER
 10
-10.0
 20
-30.0000000000001137
 30
0.0
 11
416.95799999999997
 21
-30.0000000000000107
 31
0.0
  0
LINE
  5
32A
100
AcDbEntity
100
AcDbLine
  8
frets
 62
256
370
-1
  6
BYLAYER
 10
0.0
 20
-30.0
 30
0.0
 11
0.0
 21
30.0
 31
0.0
  0
LINE
  5
32B
100
AcDbEntity
100
AcDbLine
  8
frets
 62
256
370
-1
  6
BYLAYER
 10
36.2010000000000218
 20
-30.0
 30
0.0
 11
36.2010000000000218
 21
30.0
 31
0.0
  0
LINE
  5
32C
100
AcDbEntity
100
AcDbLine
  8
frets
 62
256
370
-1
  6
BYLAYER
 10
70.3700000000000045
 20
-30.0
 30
0.0
 11
70.3700000000000045
 21
30.0
 31
0.0
  0
LINE
  5
32D
100
AcDbEntity
100
AcDbLine
  8
frets
 62
256
370
-1
  6
BYLAYER
 10
102.6220000000000141
 20
-30.0
 30
0.0
 11
102.6220000000000141
 21
30.0
 31
0.0
  0
LINE
  5
32E
100
AcDbEntity
100
AcDbLine
  8
frets
 62
256
370
-1
  6
BYLAYER
 10
133.0629999999999882
 20
-30.0
 30
0.0
 11
133.0629999999999882
 21
30.0
 31
0.0
  0
LINE
  5
32F
100
AcDbEntity
100
AcDbLine
  8
frets
 62
256
370
-1
  6
BYLAYER
 10
161.7959999999999923
 20
-30.0
 30
0.0
 11
161.7959999999999923
 21
30.0
 31
0.0
  0
LINE
  5
330
100
AcDbEntity
100
AcDbLine
  8
frets
 62
256
370
-1
  6
BYLAYER
 10
188.9159999999999968
 20
-30.0
 30
0.0
 11
188.9159999999999968
 21
30.0
 31
0.0
  0
LINE
  5
331
100
AcDbEntity
100
AcDbLine
  8
frets
 62
256
370
-1
  6
BYLAYER
 10
70.3700000000000045
 20
-0.0
 30
0.0
 11
102.6220000000000141
 21
-0.0
 31
0.0
  0
LINE
  5
332
100
AcDbEntity
100
AcDbLine
  8
frets
 62
256
370
-1
  6
BYLAYER
 10
133.0629999999999882
 20
-0.0010936993632349
 30
0.0
 11
161.7959999999999923
 21
-0.0
 31
0.0
  0
LINE
  5
333
100
AcDbEntity
100
AcDbLine
  8
frets
 62
256
370
-1
  6
BYLAYER
 10
188.9159999999999968
 20
-0.0
 30
0.0
 11
214.51400000000001
 21
-0.0
 31
0.0
  0
LINE
  5
334
100
AcDbEntity
100
AcDbLine
  8
frets
 62
256
370
-1
  6
BYLAYER
 10
261.4809999999999945
 20
-0.0
 30
0.0
 11
283.0059999999999718
 21
-0.0
 31
0.0
  0
LINE
  5
335
100
AcDbEntity
100
AcDbLine
  8
frets
 62
256
370
-1
  6
BYLAYER
 10
303.3229999999999791
 20
-0.0
 30
0.0
 11
322.5
 21
-0.0
 31
0.0
  0
DIMENSION
  5
336
100
AcDbEntity
  8
guides_dimensions
 62
256
370
-1
  6
BYLAYER
100
AcDbDimension
 10
-11.0
 20
18.9999999999998295
 30
0.0
 11
-13.0
 21
16.9999999999998295
 31
0.0
 70
129
 71
8
 72
2
 41
1.0
 42
0.0
  1

  3
Standard
100
AcDbAlignedDimension
 13
-10.0
 23
18.9999999999998295
 33
0.0
 14
-10.0
 24
15.4999999999998259
 34
0.0
1001
ACAD
1000
DSTYLE
1002
{
1070
144
1040
1
1002
}
  0
DIMENSION
  5
337
100
AcDbEntity
  8
guides_dimensions
 62
256
370
-1
  6
BYLAYER
100
AcDbDimension
 10
-11.0
 20
15.4999999999998259
 30
0.0
 11
-12.875
 21
10.4999999999998277
 31
0.0
 70
1
 71
8
 72
2
 41
1.0
 42
0.0
  1

  3
Standard
100
AcDbAlignedDimension
 13
-10.0
 23
15.4999999999998259
 33
0.0
 14
-10.0
 24
5.4999999999998286
 34
0.0
1001
ACAD
1000
DSTYLE
1002
{
1070
144
1040
1
1002
}
  0
DIMENSION
  5
338
100
AcDbEntity
  8
guides_dimensions
 62
256
370
-1
  6
BYLAYER
100
AcDbDimension
 10
-11.0
 20
5.4999999999998286
 30
0.0
 11
-12.875
 21
0.4999999999998292
 31
0.0
 70
1
 71
8
 72
2
 41
1.0
 42
0.0
  1

  3
Standard
100
AcDbAlignedDimension
 13
-10.0
 23
5.4999999999998286
 33
0.0
 14
-10.0
 24
-4.5000000000001705
 34
0.0
1001
ACAD
1000
DSTYLE
1002
{
1070
144
1040
1
1002
}
  0
DIMENSION
  5
339
100
AcDbEntity
  8
guides_dimensions
 62
256
370
-1
  6
BYLAYER
100
AcDbDimension
 10
-11.0
 20
-4.5000000000001705
 30
0.0
 11
-13.0
 21
-6.0000000000001705
 31
0.0
 70
129
 71
8
 72
2
 41
1.0
 42
0.0
  1

  3
Standard
100
AcDbAlignedDimension
 13
-10.0
 23
-4.5000000000001705
 33
0.0
 14
-10.0
 24
-8.0000000000001705
 34
0.0
1001
ACAD
1000
DSTYLE
1002
{
1070
144
1040
1
1002
}
  0
DIMENSION
  5
33A
100
AcDbEntity
  8
guides_dimensions
 62
256
370
-1
  6
BYLAYER
100
AcDbDimension
 10
-11.0
 20
-8.0000000000001705
 30
0.0
 11
-12.875
 21
-13.0000000000001705
 31
0.0
 70
1
 71
8
 72
2
 41
1.0
 42
0.0
  1

  3
Standard
100
AcDbAlignedDimension
 13
-10.0
 23
-8.0000000000001705
 33
0.0
 14
-10.0
 24
-18.0000000000001705
 34
0.0
1001
ACAD
1000
DSTYLE
1002
{
1070
144
1040
1
1002
}
  0
DIMENSION
  5
33B
100
AcDbEntity
  8
0
 62
256
370
-1
  6
BYLAYER
100
AcDbDimension
 10
653.0
 20
29.9999999999998295
 30
0.0
 11
651.125
 21
27.4999999999998295
 31
0.0
 70
1
 71
8
 72
2
 41
1.0
 42
0.0
  1

  3
Standard
100
AcDbAlignedDimension
 13
646.0
 23
29.9999999999998295
 33
0.0
 14
646.0
 24
24.9999999999998295
 34
0.0
1001
ACAD
1000
DSTYLE
1002
{
1070
144
1040
1
1002
}
  0
DIMENSION
  5
33C
100
AcDbEntity
  8
0
 62
256
370
-1
  6
BYLAYER
100
AcDbDimension
 10
653.0
 20
-8.0000000000001723
 30
0.0
 11
651.125
 21
-10.5000000000001705
 31
0.0
 70
1
 71
8
 72
2
 41
1.0
 42
0.0
  1

  3
Standard
100
AcDbAlignedDimension
 13
646.0
 23
-8.0000000000001705
 33
0.0
 14
646.0
 24
-13.0000000000001705
 34
0.0
1001
ACAD
1000
DSTYLE
1002
{
1070
144
1040
1
1002
}
  0
DIMENSION
  5
33D
100
AcDbEntity
  8
0
 62
256
370
-1
  6
BYLAYER
100
AcDbDimension
 10
653.0
 20
-13.0000000000001723
 30
0.0
 11
651.125
 21
-21.5000000000001705
 31
0.0
 70
1
 71
8
 72
2
 41
1.0
 42
0.0
  1

  3
Standard
100
AcDbAlignedDimension
 13
646.0
 23
-13.0000000000001705
 33
0.0
 14
646.0
 24
-30.0000000000001705
 34
0.0
1001
ACAD
1000
DSTYLE
1002
{
1070
144
1040
1
1002
}
  0
DIMENSION
  5
33E
100
AcDbEntity
  8
0
 62
256
370
-1
  6
BYLAYER
100
AcDbDimension
 10
653.0
 20
8.4999999999998277
 30
0.0
 11
651.125
 21
0.2499999999998279
 31
0.0
 70
1
 71
8
 72
2
 41
1.0
 42
0.0
  1

  3
Standard
100
AcDbAlignedDimension
 13
646.0
 23
8.4999999999998295
 33
0.0
 14
646.0
 24
-8.0000000000001705
 34
0.0
1001
ACAD
1000
DSTYLE
1002
{
1070
144
1040
1
1002
}
  0
DIMENSION
  5
33F
100
AcDbEntity
  8
0
 62
256
370
-1
  6
BYLAYER
100
AcDbDimension
 10
653.0
 20
24.9999999999998295
 30
0.0
 11
651.125
 21
16.7499999999998295
 31
0.0
 70
1
 71
8
 72
2
 41
1.0
 42
0.0
  1

  3
Standard
100
AcDbAlignedDimension
 13
646.0
 23
24.9999999999998295
 33
0.0
 14
646.0
 24
8.4999999999998295
 34
0.0
1001
ACAD
1000
DSTYLE
1002
{
1070
144
1040
1
1002
}
  0
LINE
  5
340
100
AcDbEntity
100
AcDbLine
  8
0
 62
256
370
-1
  6
BYLAYER
 10
-10.0
 20
-23.0000000000003411
 30
0.0
 11
427.2474139712708165
 21
-30.4498481261011591
 31
0.0
  0
LINE
  5
341
100
AcDbEntity
100
AcDbLine
  8
0
 62
256
370
-1
  6
BYLAYER
 10
329.0
 20
-300.0
 30
0.0
 11
-7.7168121369299243
 21
-300.0
 31
0.0
  0
LINE
  5
342
100
AcDbEntity
100
AcDbLine
  8
0
 62
256
370
-1
  6
BYLAYER
 10
0.0
 20
-294.0
 30
0.0
 11
0.0
 21
-292.5
 31
0.0
  0
LINE
  5
343
100
AcDbEntity
100
AcDbLine
  8
0
 62
256
370
-1
  6
BYLAYER
 10
-6.1062868922189208
 20
-311.9257594298818503
 30
0.0
 11
239.9999999999999432
 21
-314.9999999999999432
 31
0.0
  0
LINE
  5
344
100
AcDbEntity
100
AcDbLine
  8
0
 62
256
370
-1
  6
BYLAYER
 10
329.0
 20
-394.9999999999999432
 30
0.0
 11
291.0
 21
-395.0
 31
0.0
  0
SPLINE
  5
345
  8
0
 62
256
370
-1
  6
BYLAYER
100
AcDbEntity
100
AcDbSpline
 70
8
 71
3
 72
11
 73
7
 74
0
 40
0.0
 40
0.0
 40
0.0
 40
0.0
 40
1.0
 40
2.0
 40
3.0
 40
4.0
 40
4.0
 40
4.0
 40
4.0
 10
291.0
 20
-395.0
 30
0.0
 10
300.5698441629165245
 20
-378.0763373224252746
 30
0.0
 10
300.0
 20
-350.0
 30
0.0
 10
288.9999999999999432
 20
-329.9999999999999432
 30
0.0
 10
268.9999999999999432
 20
-319.9999999999999432
 30
0.0
 10
251.2799258135541436
 20
-316.8557222645421803
 30
0.0
 10
239.9999999999999432
 20
-314.9999999999999432
 30
0.0
  0
LINE
  5
346
100
AcDbEntity
100
AcDbLine
  8
0
 62
256
370
-1
  6
BYLAYER
 10
-7.7168121369299243
 20
-300.0
 30
0.0
 11
-183.7833802690149412
 21
-337.4241043471966464
 31
0.0
  0
LINE
  5
347
100
AcDbEntity
100
AcDbLine
  8
0
 62
256
370
-1
  6
BYLAYER
 10
50.000000000000135
 20
-300.0
 30
0.0
 11
-181.288439979201911
 21
-349.1618755560020304
 31
0.0
  0
LINE
  5
348
100
AcDbEntity
100
AcDbLine
  8
0
 62
256
370
-1
  6
BYLAYER
 10
-7.7168121369301668
 20
-300.0
 30
0.0
 11
-7.7168121369301668
 21
-293.0000000000000568
 31
0.0
  0
LINE
  5
349
100
AcDbEntity
100
AcDbLine
  8
0
 62
256
370
-1
  6
BYLAYER
 10
-7.7168121369301668
 20
-294.0
 30
0.0
 11
430.0
 21
-294.0
 31
0.0
  0
LINE
  5
34A
100
AcDbEntity
100
AcDbLine
  8
0
 62
256
370
-1
  6
BYLAYER
 10
430.0
 20
-294.0
 30
0.0
 11
430.0000000000003411
 21
-299.9999999999938609
 31
0.0
  0
LINE
  5
34B
100
AcDbEntity
100
AcDbLine
  8
0
 62
256
370
-1
  6
BYLAYER
 10
-7.7168121369301668
 20
-293.0
 30
0.0
 11
-14.9999999999999982
 21
-293.0
 31
0.0
  0
LINE
  5
34C
100
AcDbEntity
100
AcDbLine
  8
0
 62
256
370
-1
  6
BYLAYER
 10
-15.0
 20
-293.0
 30
0.0
 11
-15.0
 21
-301.5480893701709988
 31
0.0
  0
LINE
  5
34D
100
AcDbEntity
100
AcDbLine
  8
strings
 62
256
370
-1
  6
BYLAYER
 10
640.0
 20
-300.0
 30
0.0
 11
640.0
 21
-290.0
 31
0.0
  0
LINE
  5
34E
100
AcDbEntity
100
AcDbLine
  8
strings
 62
256
370
-1
  6
BYLAYER
 10
663.0
 20
-290.0
 30
0.0
 11
672.0
 21
-290.0
 31
0.0
  0
LINE
  5
34F
100
AcDbEntity
100
AcDbLine
  8
strings
 62
256
370
-1
  6
BYLAYER
 10
672.0
 20
-290.0
 30
0.0
 11
672.0000000000005684
 21
-299.999999999979309
 31
0.0
  0
LINE
  5
350
100
AcDbEntity
100
AcDbLine
  8
strings
 62
256
370
-1
  6
BYLAYER
 10
646.0
 20
-290.0
 30
0.0
 11
646.0
 21
-295.0
 31
0.0
  0
LINE
  5
351
100
AcDbEntity
100
AcDbLine
  8
strings
 62
256
370
-1
  6
BYLAYER
 10
646.0
 20
-295.0
 30
0.0
 11
649.0
 21
-295.0
 31
0.0
  0
LINE
  5
352
100
AcDbEntity
100
AcDbLine
  8
strings
 62
256
370
-1
  6
BYLAYER
 10
649.0
 20
-295.0
 30
0.0
 11
649.0
 21
-285.0
 31
0.0
  0
LINE
  5
353
100
AcDbEntity
100
AcDbLine
  8
strings
 62
256
370
-1
  6
BYLAYER
 10
649.0
 20
-285.0
 30
0.0
 11
646.0
 21
-285.0
 31
0.0
  0
LINE
  5
354
100
AcDbEntity
100
AcDbLine
  8
strings
 62
256
370
-1
  6
BYLAYER
 10
646.0
 20
-285.0
 30
0.0
 11
646.0
 21
-295.0
 31
0.0
  0
LINE
  5
355
100
AcDbEntity
100
AcDbLine
  8
strings
 62
256
370
-1
  6
BYLAYER
 10
646.0
 20
-290.0
 30
0.0
 11
640.0
 21
-290.0
 31
0.0
  0
LINE
  5
356
100
AcDbEntity
100
AcDbLine
  8
strings
 62
256
370
-1
  6
BYLAYER
 10
652.0
 20
-290.0
 30
0.0
 11
658.0
 21
-296.0
 31
0.0
  0
LINE
  5
357
100
AcDbEntity
100
AcDbLine
  8
strings
 62
256
370
-1
  6
BYLAYER
 10
658.0
 20
-296.0
 30
0.0
 11
663.0
 21
-296.0
 31
0.0
  0
LINE
  5
358
100
AcDbEntity
100
AcDbLine
  8
strings
 62
256
370
-1
  6
BYLAYER
 10
663.0
 20
-296.0
 30
0.0
 11
663.0
 21
-290.0
 31
0.0
  0
LINE
  5
359
100
AcDbEntity
100
AcDbLine
  8
strings
 62
256
370
-1
  6
BYLAYER
 10
652.0
 20
-290.0
 30
0.0
 11
649.0
 21
-290.0
 31
0.0
  0
LINE
  5
35A
100
AcDbEntity
100
AcDbLine
  8
strings
 62
252
420
10526884
370
70
  6
BYLAYER
 10
0.0
 20
-292.5
 30
0.0
 11
-7.7168121369301668
 21
-293.0
 31
0.0
  0
LINE
  5
35B
100
AcDbEntity
100
AcDbLine
  8
strings
 62
252
420
10526884
370
70
  6
BYLAYER
 10
0.0
 20
-292.5
 30
0.0
 11
646.0
 21
-285.0
 31
0.0
  0
LINE
  5
35C
100
AcDbEntity
100
AcDbLine
  8
strings
 62
252
420
10526884
370
70
  6
BYLAYER
 10
649.0
 20
-285.0
 30
0.0
 11
663.0
 21
-294.0
 31
0.0
  0
LINE
  5
35D
100
AcDbEntity
100
AcDbLine
  8
strings
 62
256
370
-1
  6
BYLAYER
 10
770.0
 20
-300.0
 30
0.0
 11
770.000000000005798
 21
-394.9999999999732836
 31
0.0
  0
LINE
  5
35E
100
AcDbEntity
100
AcDbLine
  8
strings
 62
256
370
-1
  6
BYLAYER
 10
322.5
 20
-395.0000000000002274
 30
0.0
 11
322.5
 21
-300.0000000000004547
 31
0.0
  0
LINE
  5
35F
100
AcDbEntity
100
AcDbLine
  8
strings
 62
9
420
12632256
370
-1
  6
BYLAYER
 10
353.3600343327070732
 20
-394.9999999999985221
 30
0.0
 11
353.3600343327070732
 21
-299.9999999999984084
 31
0.0
  0
LINE
  5
360
100
AcDbEntity
100
AcDbLine
  8
strings
 62
256
370
-1
  6
BYLAYER
 10
-181.288439979201911
 20
-349.1618755560020304
 30
0.0
 11
-183.7833802690149412
 21
-337.4241043471966464
 31
0.0
  0
ARC
  5
361
100
AcDbEntity
  8
0
 62
256
370
-1
  6
BYLAYER
100
AcDbCircle
 10
-170.3859861088694174
 20
-22.3595453014687706
 30
0.0
 40
23.9871235027463996
100
AcDbArc
 50
349.6630214156035095
 51
68.7721377855814637
  0
LINE
  5
362
100
AcDbEntity
100
AcDbLine
  8
strings
 62
256
370
-1
  6
BYLAYER
 10
910.0
 20
-300.0
 30
0.0
 11
910.0
 21
-400.0
 31
0.0
  0
LINE
  5
363
100
AcDbEntity
100
AcDbLine
  8
strings
 62
256
370
-1
  6
BYLAYER
 10
910.0
 20
-400.0
 30
0.0
 11
903.0
 21
-400.0
 31
0.0
  0
LINE
  5
364
100
AcDbEntity
100
AcDbLine
  8
strings
 62
256
370
-1
  6
BYLAYER
 10
881.3500000000000227
 20
-300.0
 30
0.0
 11
910.0
 21
-300.0
 31
0.0
  0
SPLINE
  5
365
  8
strings
 62
256
370
-1
  6
BYLAYER
100
AcDbEntity
100
AcDbSpline
 70
8
 71
3
 72
8
 73
4
 74
0
 40
0.0
 40
0.0
 40
0.0
 40
0.0
 40
1.0
 40
1.0
 40
1.0
 40
1.0
 10
881.3500000000000227
 20
-300.0
 30
0.0
 10
900.0
 20
-340.0
 30
0.0
 10
903.0
 20
-400.0
 30
0.0
 10
903.0
 20
-400.0
 30
0.0
  0
LINE
  5
366
100
AcDbEntity
100
AcDbLine
  8
strings
 62
256
370
-1
  6
BYLAYER
 10
910.0
 20
-400.0
 30
0.0
 11
917.0
 21
-400.0
 31
0.0
  0
LINE
  5
367
100
AcDbEntity
100
AcDbLine
  8
strings
 62
256
370
-1
  6
BYLAYER
 10
938.6500000000002046
 20
-300.0000000000000568
 30
0.0
 11
910.0
 21
-300.0
 31
0.0
  0
SPLINE
  5
368
  8
strings
 62
256
370
-1
  6
BYLAYER
100
AcDbEntity
100
AcDbSpline
 70
8
 71
3
 72
8
 73
4
 74
0
 40
0.0
 40
0.0
 40
0.0
 40
0.0
 40
1.0
 40
1.0
 40
1.0
 40
1.0
 10
938.6500000000002046
 20
-300.0000000000000568
 30
0.0
 10
920.0000000000001137
 20
-340.0
 30
0.0
 10
917.0
 20
-400.0
 30
0.0
 10
917.0
 20
-400.0
 30
0.0
  0
ARC
  5
369
100
AcDbEntity
  8
0
 62
256
370
-1
  6
BYLAYER
100
AcDbCircle
 10
-8.0701309162226469
 20
87.1685444860480914
 30
0.0
 40
64.1975583347098535
100
AcDbArc
 50
225.3723986070079945
 51
268.2773485918616529
  0
ARC
  5
36A
100
AcDbEntity
  8
0
 62
256
370
-1
  6
BYLAYER
100
AcDbCircle
 10
-9.3797626387320516
 20
-54.8279005471361316
 30
0.0
 40
31.8339433250528856
100
AcDbArc
 50
91.1163942672793468
 51
150.1849416468311347
  0
ENDSEC
  0
SECTION
  2
OBJECTS
  0
DICTIONARY
  5
C
100
AcDbDictionary
280
0
281
1
  3
ACAD_GROUP
350
D
  3
ACAD_LAYOUT
350
1A
  3
ACAD_MLINESTYLE
350
17
  3
ACAD_PLOTSETTINGS
350
19
  3
ACAD_PLOTSTYLENAME
350
E
  3
AcDbVariableDictionary
350
37B
  3
QCAD_OBJECTS
350
37C
  0
DICTIONARY
  5
D
100
AcDbDictionary
280
0
281
1
  0
ACDBDICTIONARYWDFLT
  5
E
100
AcDbDictionary
281
1
  3
Normal
350
F
100
AcDbDictionaryWithDefault
340
F
  0
ACDBPLACEHOLDER
  5
F
  0
DICTIONARY
  5
17
100
AcDbDictionary
280
0
281
1
  3
Standard
350
18
  0
MLINESTYLE
  5
18
100
AcDbMlineStyle
  2
STANDARD
 70
0
  3

 62
256
 51
90.0
 52
90.0
 71
2
 49
0.5
 62
256
  6
BYLAYER
 49
-0.5
 62
256
  6
BYLAYER
  0
DICTIONARY
  5
19
100
AcDbDictionary
280
0
281
1
  0
DICTIONARY
  5
1A
100
AcDbDictionary
281
1
  3
Layout1
350
1E
  3
Layout2
350
26
  3
Model
350
22
  0
LAYOUT
  5
1E
100
AcDbPlotSettings
  1

  2
none_device
  4

  6

 40
0.0
 41
0.0
 42
0.0
 43
0.0
 44
0.0
 45
0.0
 46
0.0
 47
0.0
 48
0.0
 49
0.0
140
0.0
141
0.0
142
1.0
143
1.0
 70
688
 72
0
 73
0
 74
5
  7

 75
16
147
1.0
148
0.0
149
0.0
100
AcDbLayout
  1
Layout1
 70
1
 71
1
 10
0.0
 20
0.0
 11
420.0
 21
297.0
 12
0.0
 22
0.0
 32
0.0
 14
100000000000000000000.0
 24
100000000000000000000.0
 34
100000000000000000000.0
 15
-100000000000000000000.0
 25
-100000000000000000000.0
 35
-100000000000000000000.0
146
0.0
 13
0.0
 23
0.0
 33
0.0
 16
1.0
 26
0.0
 36
0.0
 17
0.0
 27
1.0
 37
0.0
 76
0
330
1B
  0
LAYOUT
  5
22
100
AcDbPlotSettings
  1

  2
none_device
  4

  6

 40
0.0
 41
0.0
 42
0.0
 43
0.0
 44
0.0
 45
0.0
 46
0.0
 47
0.0
 48
0.0
 49
0.0
140
0.0
141
0.0
142
1.0
143
1.0
 70
1712
 72
0
 73
0
 74
0
  7

 75
0
147
1.0
148
0.0
149
0.0
100
AcDbLayout
  1
Model
 70
1
 71
0
 10
0.0
 20
0.0
 11
12.0
 21
9.0
 12
0.0
 22
0.0
 32
0.0
 14
0.0
 24
0.0
 34
0.0
 15
0.0
 25
0.0
 35
0.0
146
0.0
 13
0.0
 23
0.0
 33
0.0
 16
1.0
 26
0.0
 36
0.0
 17
0.0
 27
1.0
 37
0.0
 76
0
330
1F
  0
LAYOUT
  5
26
100
AcDbPlotSettings
  1

  2
none_device
  4

  6

 40
0.0
 41
0.0
 42
0.0
 43
0.0
 44
0.0
 45
0.0
 46
0.0
 47
0.0
 48
0.0
 49
0.0
140
0.0
141
0.0
142
1.0
143
1.0
 70
688
 72
0
 73
0
 74
5
  7

 75
16
147
1.0
148
0.0
149
0.0
100
AcDbLayout
  1
Layout2
 70
1
 71
2
 10
0.0
 20
0.0
 11
12.0
 21
9.0
 12
0.0
 22
0.0
 32
0.0
 14
0.0
 24
0.0
 34
0.0
 15
0.0
 25
0.0
 35
0.0
146
0.0
 13
0.0
 23
0.0
 33
0.0
 16
1.0
 26
0.0
 36
0.0
 17
0.0
 27
1.0
 37
0.0
 76
0
330
23
  0
DICTIONARY
  5
37B
100
AcDbDictionary
281
1
  3
DIMASSOC
350
37E
  3
HIDETEXT
350
37D
  0
DICTIONARYVAR
  5
37D
100
DictionaryVariables
280
0
  1
2
  0
DICTIONARYVAR
  5
37E
100
DictionaryVariables
280
0
  1
1
  0
DICTIONARY
  5
37C
100
AcDbDictionary
281
1
  3
Grid/DisplayGrid00
350
37F
  3
Grid/DisplayGrid01
350
380
  3
Grid/DisplayGrid02
350
381
  3
Grid/DisplayGrid03
350
382
  3
Grid/GridSpacingX00
350
383
  3
Grid/GridSpacingX01
350
384
  3
Grid/GridSpacingX02
350
385
  3
Grid/GridSpacingX03
350
386
  3
Grid/GridSpacingY00
350
387
  3
Grid/GridSpacingY01
350
388
  3
Grid/GridSpacingY02
350
389
  3
Grid/GridSpacingY03
350
38A
  3
Grid/IsometricGrid00
350
38B
  3
Grid/IsometricGrid01
350
38C
  3
Grid/IsometricGrid02
350
38D
  3
Grid/IsometricGrid03
350
38E
  3
Grid/IsometricProjection00
350
38F
  3
Grid/IsometricProjection01
350
390
  3
Grid/IsometricProjection02
350
391
  3
Grid/IsometricProjection03
350
392
  3
Grid/MetaGridSpacingX00
350
393
  3
Grid/MetaGridSpacingX01
350
394
  3
Grid/MetaGridSpacingX02
350
395
  3
Grid/MetaGridSpacingX03
350
396
  3
Grid/MetaGridSpacingY00
350
397
  3
Grid/MetaGridSpacingY01
350
398
  3
Grid/MetaGridSpacingY02
350
399
  3
Grid/MetaGridSpacingY03
350
39A
  3
MultiPageSettings/Columns
350
39B
  3
MultiPageSettings/GlueMarginsBottom
350
39C
  3
MultiPageSettings/GlueMarginsLeft
350
39D
  3
MultiPageSettings/GlueMarginsRight
350
39E
  3
MultiPageSettings/GlueMarginsTop
350
39F
  3
MultiPageSettings/PrintCropMarks
350
3A0
  3
MultiPageSettings/Rows
350
3A1
  3
PageSettings/OffsetX
350
3A2
  3
PageSettings/OffsetY
350
3A3
  3
PageSettings/PageOrientation
350
3A4
  3
PageSettings/PaperHeight
350
3A5
  3
PageSettings/PaperWidth
350
3A6
  3
PageSettings/Scale
350
3A7
  3
PageSettings/ShowPaperBorders
350
3A8
  3
UnitSettings/PaperUnit
350
3A9
  0
XRECORD
  5
37F
330
37C
100
AcDbXrecord
280
1
290
1
  0
XRECORD
  5
380
330
37C
100
AcDbXrecord
280
1
290
1
  0
XRECORD
  5
381
330
37C
100
AcDbXrecord
280
1
290
1
  0
XRECORD
  5
382
330
37C
100
AcDbXrecord
280
1
290
1
  0
XRECORD
  5
383
330
37C
100
AcDbXrecord
280
1
1000
auto
  0
XRECORD
  5
384
330
37C
100
AcDbXrecord
280
1
1000
auto
  0
XRECORD
  5
385
330
37C
100
AcDbXrecord
280
1
1000
auto
  0
XRECORD
  5
386
330
37C
100
AcDbXrecord
280
1
1000
auto
  0
XRECORD
  5
387
330
37C
100
AcDbXrecord
280
1
1000
auto
  0
XRECORD
  5
388
330
37C
100
AcDbXrecord
280
1
1000
auto
  0
XRECORD
  5
389
330
37C
100
AcDbXrecord
280
1
1000
auto
  0
XRECORD
  5
38A
330
37C
100
AcDbXrecord
280
1
1000
auto
  0
XRECORD
  5
38B
330
37C
100
AcDbXrecord
280
1
290
0
  0
XRECORD
  5
38C
330
37C
100
AcDbXrecord
280
1
290
0
  0
XRECORD
  5
38D
330
37C
100
AcDbXrecord
280
1
290
0
  0
XRECORD
  5
38E
330
37C
100
AcDbXrecord
280
1
290
0
  0
XRECORD
  5
38F
330
37C
100
AcDbXrecord
280
1
 90
0
  0
XRECORD
  5
390
330
37C
100
AcDbXrecord
280
1
 90
0
  0
XRECORD
  5
391
330
37C
100
AcDbXrecord
280
1
 90
0
  0
XRECORD
  5
392
330
37C
100
AcDbXrecord
280
1
 90
0
  0
XRECORD
  5
393
330
37C
100
AcDbXrecord
280
1
1000
auto
  0
XRECORD
  5
394
330
37C
100
AcDbXrecord
280
1
1000
auto
  0
XRECORD
  5
395
330
37C
100
AcDbXrecord
280
1
1000
auto
  0
XRECORD
  5
396
330
37C
100
AcDbXrecord
280
1
1000
auto
  0
XRECORD
  5
397
330
37C
100
AcDbXrecord
280
1
1000
auto
  0
XRECORD
  5
398
330
37C
100
AcDbXrecord
280
1
1000
auto
  0
XRECORD
  5
399
330
37C
100
AcDbXrecord
280
1
1000
auto
  0
XRECORD
  5
39A
330
37C
100
AcDbXrecord
280
1
1000
auto
  0
XRECORD
  5
39B
330
37C
100
AcDbXrecord
280
1
 90
1
  0
XRECORD
  5
39C
330
37C
100
AcDbXrecord
280
1
 40
10.0
  0
XRECORD
  5
39D
330
37C
100
AcDbXrecord
280
1
 40
10.0
  0
XRECORD
  5
39E
330
37C
100
AcDbXrecord
280
1
 40
10.0
  0
XRECORD
  5
39F
330
37C
100
AcDbXrecord
280
1
 40
10.0
  0
XRECORD
  5
3A0
330
37C
100
AcDbXrecord
280
1
290
0
  0
XRECORD
  5
3A1
330
37C
100
AcDbXrecord
280
1
 90
1
  0
XRECORD
  5
3A2
330
37C
100
AcDbXrecord
280
1
 40
-212.6075515338151547
  0
XRECORD
  5
3A3
330
37C
100
AcDbXrecord
280
1
 40
-106.4250990714123901
  0
XRECORD
  5
3A4
330
37C
100
AcDbXrecord
280
1
1000
Landscape
  0
XRECORD
  5
3A5
330
37C
100
AcDbXrecord
280
1
 40
279.3999999999999773
  0
XRECORD
  5
3A6
330
37C
100
AcDbXrecord
280
1
 40
215.9000000000000057
  0
XRECORD
  5
3A7
330
37C
100
AcDbXrecord
280
1
1000
1:1
  0
XRECORD
  5
3A8
330
37C
100
AcDbXrecord
280
1
290
1
  0
XRECORD
  5
3A9
330
37C
100
AcDbXrecord
280
1
 90
4
  0
ENDSEC
  0
EOF
