999
dxflib 3.3.4.0
  0
SECTION
  2
HEADER
  9
$ACADVER
  1
AC1015
  9
$HANDSEED
  5
FFFF
  9
$DIMADEC
 70
0
  9
$DIMASZ
 40
2.5
  9
$DIMAUNIT
 70
0
  9
$DIMAZIN
 70
2
  9
$DIMDEC
 70
4
  9
$DIMEXE
 40
1.25
  9
$DIMEXO
 40
0.625
  9
$DIMGAP
 40
0.625
  9
$DIMLUNIT
 70
2
  9
$DIMTSZ
 40
0.0
  9
$DIMTXT
 40
2.5
  9
$DIMZIN
 70
8
  9
$DWGCODEPAGE
  3
ANSI_1252
  9
$INSUNITS
 70
4
  9
$LTSCALE
 40
1.0
  0
ENDSEC
  0
SECTION
  2
TABLES
  0
TABLE
  2
VPORT
  5
8
100
AcDbSymbolTable
 70
1
  0
VPORT
  5
30
100
AcDbSymbolTableRecord
100
AcDbViewportTableRecord
  2
*Active
 70
0
 10
0.0
 20
0.0
 11
1.0
 21
1.0
 12
286.3055555555554861
 22
148.5
 13
0.0
 23
0.0
 14
10.0
 24
10.0
 15
10.0
 25
10.0
 16
0.0
 26
0.0
 36
1.0
 17
0.0
 27
0.0
 37
0.0
 40
297.0
 41
1.92798353909465
 42
50.0
 43
0.0
 44
0.0
 50
0.0
 51
0.0
 71
0
 72
100
 73
1
 74
3
 75
1
 76
1
 77
0
 78
0
281
0
 65
1
110
0.0
120
0.0
130
0.0
111
1.0
121
0.0
131
0.0
112
0.0
122
1.0
132
0.0
 79
0
146
0.0
  0
ENDTAB
  0
TABLE
  2
LTYPE
  5
5
100
AcDbSymbolTable
 70
21
  0
LTYPE
  5
16
100
AcDbSymbolTableRecord
100
AcDbLinetypeTableRecord
  2
CONTINUOUS
 70
0
  3
Solid line
 72
65
 73
0
 40
0.0
  0
LTYPE
  5
31
100
AcDbSymbolTableRecord
100
AcDbLinetypeTableRecord
  2
CENTER2
 70
0
  3
Center (.5x) ___ _ ___ _ ___ _ ___ _ ___ _ ___
 72
65
 73
4
 40
28.5749999999999993
 49
19.0500000000000007
 74
0
 49
-3.1749999999999998
 74
0
 49
3.1749999999999998
 74
0
 49
-3.1749999999999998
 74
0
  0
LTYPE
  5
32
100
AcDbSymbolTableRecord
100
AcDbLinetypeTableRecord
  2
DIVIDEX2
 70
0
  3
Divide (2x) ________  .  .  ________  .  .  _
 72
65
 73
6
 40
63.5
 49
25.3999999999999986
 74
0
 49
-12.6999999999999993
 74
0
 49
0.0
 74
0
 49
-12.6999999999999993
 74
0
 49
0.0
 74
0
 49
-12.6999999999999993
 74
0
  0
LTYPE
  5
33
100
AcDbSymbolTableRecord
100
AcDbLinetypeTableRecord
  2
DOT2
 70
0
  3
Dot (.5x) .....................................
 72
65
 73
2
 40
3.1749999999999998
 49
0.0
 74
0
 49
-3.1749999999999998
 74
0
  0
LTYPE
  5
34
100
AcDbSymbolTableRecord
100
AcDbLinetypeTableRecord
  2
DASHDOT2
 70
0
  3
Dash dot (.5x) _._._._._._._._._._._._._._._.
 72
65
 73
4
 40
12.6999999999999993
 49
6.3499999999999996
 74
0
 49
-3.1749999999999998
 74
0
 49
0.0
 74
0
 49
-3.1749999999999998
 74
0
  0
LTYPE
  5
35
100
AcDbSymbolTableRecord
100
AcDbLinetypeTableRecord
  2
DIVIDE
 70
0
  3
Divide ____ . . ____ . . ____ . . ____ . . ____
 72
65
 73
6
 40
31.75
 49
12.6999999999999993
 74
0
 49
-6.3499999999999996
 74
0
 49
0.0
 74
0
 49
-6.3499999999999996
 74
0
 49
0.0
 74
0
 49
-6.3499999999999996
 74
0
  0
LTYPE
  5
36
100
AcDbSymbolTableRecord
100
AcDbLinetypeTableRecord
  2
DASHDOT
 70
0
  3
Dash dot __ . __ . __ . __ . __ . __ . __ . __
 72
65
 73
4
 40
25.3999999999999986
 49
12.6999999999999993
 74
0
 49
-6.3499999999999996
 74
0
 49
0.0
 74
0
 49
-6.3499999999999996
 74
0
  0
LTYPE
  5
37
100
AcDbSymbolTableRecord
100
AcDbLinetypeTableRecord
  2
BORDER
 70
0
  3
Border __ __ . __ __ . __ __ . __ __ . __ __ .
 72
65
 73
6
 40
44.4500000000000028
 49
12.6999999999999993
 74
0
 49
-6.3499999999999996
 74
0
 49
12.6999999999999993
 74
0
 49
-6.3499999999999996
 74
0
 49
0.0
 74
0
 49
-6.3499999999999996
 74
0
  0
LTYPE
  5
38
100
AcDbSymbolTableRecord
100
AcDbLinetypeTableRecord
  2
DASHDOTX2
 70
0
  3
Dash dot (2x) ____  .  ____  .  ____  .  ___
 72
65
 73
4
 40
50.7999999999999972
 49
25.3999999999999986
 74
0
 49
-12.6999999999999993
 74
0
 49
0.0
 74
0
 49
-12.6999999999999993
 74
0
  0
LTYPE
  5
39
100
AcDbSymbolTableRecord
100
AcDbLinetypeTableRecord
  2
CENTERX2
 70
0
  3
Center (2x) ________  __  ________  __  _____
 72
65
 73
4
 40
101.5999999999999943
 49
63.5
 74
0
 49
-12.6999999999999993
 74
0
 49
12.6999999999999993
 74
0
 49
-12.6999999999999993
 74
0
  0
LTYPE
  5
3A
100
AcDbSymbolTableRecord
100
AcDbLinetypeTableRecord
  2
BORDER2
 70
0
  3
Border (.5x) __.__.__.__.__.__.__.__.__.__.__.
 72
65
 73
6
 40
22.2250000000000014
 49
6.3499999999999996
 74
0
 49
-3.1749999999999998
 74
0
 49
6.3499999999999996
 74
0
 49
-3.1749999999999998
 74
0
 49
0.0
 74
0
 49
-3.1749999999999998
 74
0
  0
LTYPE
  5
3B
100
AcDbSymbolTableRecord
100
AcDbLinetypeTableRecord
  2
BORDERX2
 70
0
  3
Border (2x) ____  ____  .  ____  ____  .  ___
 72
65
 73
6
 40
88.9000000000000057
 49
25.3999999999999986
 74
0
 49
-12.6999999999999993
 74
0
 49
25.3999999999999986
 74
0
 49
-12.6999999999999993
 74
0
 49
0.0
 74
0
 49
-12.6999999999999993
 74
0
  0
LTYPE
  5
14
100
AcDbSymbolTableRecord
100
AcDbLinetypeTableRecord
  2
BYBLOCK
 70
0
  3

 72
65
 73
0
 40
0.0
  0
LTYPE
  5
15
100
AcDbSymbolTableRecord
100
AcDbLinetypeTableRecord
  2
BYLAYER
 70
0
  3

 72
65
 73
0
 40
0.0
  0
LTYPE
  5
3C
100
AcDbSymbolTableRecord
100
AcDbLinetypeTableRecord
  2
DASHED2
 70
0
  3
Dashed (.5x) _ _ _ _ _ _ _ _ _ _ _ _ _ _ _ _ _
 72
65
 73
2
 40
9.5250000000000004
 49
6.3499999999999996
 74
0
 49
-3.1749999999999998
 74
0
  0
LTYPE
  5
3D
100
AcDbSymbolTableRecord
100
AcDbLinetypeTableRecord
  2
CENTER
 70
0
  3
Center ____ _ ____ _ ____ _ ____ _ ____ _ ____
 72
65
 73
4
 40
50.7999999999999972
 49
31.75
 74
0
 49
-6.3499999999999996
 74
0
 49
6.3499999999999996
 74
0
 49
-6.3499999999999996
 74
0
  0
LTYPE
  5
3E
100
AcDbSymbolTableRecord
100
AcDbLinetypeTableRecord
  2
DIVIDE2
 70
0
  3
Divide (.5x) __..__..__..__..__..__..__..__.._
 72
65
 73
6
 40
15.875
 49
6.3499999999999996
 74
0
 49
-3.1749999999999998
 74
0
 49
0.0
 74
0
 49
-3.1749999999999998
 74
0
 49
0.0
 74
0
 49
-3.1749999999999998
 74
0
  0
LTYPE
  5
3F
100
AcDbSymbolTableRecord
100
AcDbLinetypeTableRecord
  2
DASHED
 70
0
  3
Dashed __ __ __ __ __ __ __ __ __ __ __ __ __ _
 72
65
 73
2
 40
19.0500000000000007
 49
12.6999999999999993
 74
0
 49
-6.3499999999999996
 74
0
  0
LTYPE
  5
40
100
AcDbSymbolTableRecord
100
AcDbLinetypeTableRecord
  2
DOTX2
 70
0
  3
Dot (2x) .  .  .  .  .  .  .  .  .  .  .  .  .
 72
65
 73
2
 40
12.6999999999999993
 49
0.0
 74
0
 49
-12.6999999999999993
 74
0
  0
LTYPE
  5
41
100
AcDbSymbolTableRecord
100
AcDbLinetypeTableRecord
  2
DASHEDX2
 70
0
  3
Dashed (2x) ____  ____  ____  ____  ____  ___
 72
65
 73
2
 40
38.1000000000000014
 49
25.3999999999999986
 74
0
 49
-12.6999999999999993
 74
0
  0
LTYPE
  5
42
100
AcDbSymbolTableRecord
100
AcDbLinetypeTableRecord
  2
DOT
 70
0
  3
Dot . . . . . . . . . . . . . . . . . . . . . .
 72
65
 73
2
 40
6.3499999999999996
 49
0.0
 74
0
 49
-6.3499999999999996
 74
0
  0
ENDTAB
  0
TABLE
  2
LAYER
  5
2
100
AcDbSymbolTable
 70
1
  0
LAYER
  5
10
100
AcDbSymbolTableRecord
100
AcDbLayerTableRecord
  2
0
 70
0
 62
7
420
0
  6
CONTINUOUS
370
25
390
F
  0
ENDTAB
  0
TABLE
  2
STYLE
  5
3
100
AcDbSymbolTable
 70
1
  0
STYLE
  5
43
100
AcDbSymbolTableRecord
100
AcDbTextStyleTableRecord
  2
Standard
 70
0
 40
0.0
 41
1.0
 50
0.0
 71
0
 42
2.5
  3

  4

1001
ACAD
1000
txt
1071
0
  0
ENDTAB
  0
TABLE
  2
VIEW
  5
6
100
AcDbSymbolTable
 70
0
  0
ENDTAB
  0
TABLE
  2
UCS
  5
7
100
AcDbSymbolTable
 70
0
  0
ENDTAB
  0
TABLE
  2
APPID
  5
9
100
AcDbSymbolTable
 70
1
  0
APPID
  5
12
100
AcDbSymbolTableRecord
100
AcDbRegAppTableRecord
  2
ACAD
 70
0
  0
APPID
  5
44
100
AcDbSymbolTableRecord
100
AcDbRegAppTableRecord
  2
QCAD
 70
0
  0
ENDTAB
  0
TABLE
  2
DIMSTYLE
  5
A
100
AcDbSymbolTable
 70
1
100
AcDbDimStyleTable
 71
0
  0
DIMSTYLE
105
27
100
AcDbSymbolTableRecord
100
AcDbDimStyleTableRecord
  2
Standard
 41
2.5
 42
0.625
 43
3.75
 44
1.25
 70
0
 73
0
 74
0
 77
1
 78
8
140
2.5
141
2.5
143
0.03937007874016
147
0.625
171
3
172
1
271
2
272
2
274
3
278
44
283
0
284
8
340
43
  0
ENDTAB
  0
TABLE
  2
BLOCK_RECORD
  5
1
100
AcDbSymbolTable
 70
1
  0
BLOCK_RECORD
  5
1F
100
AcDbSymbolTableRecord
100
AcDbBlockTableRecord
  2
*Model_Space
340
22
  0
BLOCK_RECORD
  5
1B
100
AcDbSymbolTableRecord
100
AcDbBlockTableRecord
  2
*Paper_Space
340
1E
  0
BLOCK_RECORD
  5
23
100
AcDbSymbolTableRecord
100
AcDbBlockTableRecord
  2
*Paper_Space0
340
26
  0
BLOCK_RECORD
  5
45
100
AcDbSymbolTableRecord
100
AcDbBlockTableRecord
  2
tuner
340
0
  0
ENDTAB
  0
ENDSEC
  0
SECTION
  2
BLOCKS
  0
BLOCK
  5
20
100
AcDbEntity
  8
0
100
AcDbBlockBegin
  2
*Model_Space
 70
0
 10
0.0
 20
0.0
 30
0.0
  3
*Model_Space
  1

  0
ENDBLK
  5
21
100
AcDbEntity
  8
0
100
AcDbBlockEnd
  0
BLOCK
  5
1C
100
AcDbEntity
 67
1
  8
0
100
AcDbBlockBegin
  2
*Paper_Space
 70
0
 10
0.0
 20
0.0
 30
0.0
  3
*Paper_Space
  1

  0
ENDBLK
  5
1D
100
AcDbEntity
 67
1
  8
0
100
AcDbBlockEnd
  0
BLOCK
  5
24
100
AcDbEntity
  8
0
100
AcDbBlockBegin
  2
*Paper_Space0
 70
0
 10
0.0
 20
0.0
 30
0.0
  3
*Paper_Space0
  1

  0
ENDBLK
  5
25
100
AcDbEntity
  8
0
100
AcDbBlockEnd
  0
BLOCK
  5
46
100
AcDbEntity
  8
0
100
AcDbBlockBegin
  2
tuner
 70
0
 10
0.0
 20
0.0
 30
0.0
  3
tuner
  1

  0
LINE
  5
47
100
AcDbEntity
100
AcDbLine
  8
0
 62
256
370
-1
  6
BYLAYER
 10
-19.0
 20
-27.0
 30
0.0
 11
3.0
 21
-27.0
 31
0.0
  0
LINE
  5
48
100
AcDbEntity
100
AcDbLine
  8
0
 62
256
370
-1
  6
BYLAYER
 10
3.0
 20
-27.0
 30
0.0
 11
3.0
 21
-17.0
 31
0.0
  0
LINE
  5
49
100
AcDbEntity
100
AcDbLine
  8
0
 62
256
370
-1
  6
BYLAYER
 10
3.0
 20
-17.0
 30
0.0
 11
-19.0
 21
-17.0
 31
0.0
  0
LINE
  5
4A
100
AcDbEntity
100
AcDbLine
  8
0
 62
256
370
-1
  6
BYLAYER
 10
-19.0
 20
-17.0
 30
0.0
 11
-19.0
 21
-27.0
 31
0.0
  0
LINE
  5
4B
100
AcDbEntity
100
AcDbLine
  8
0
 62
256
370
-1
  6
BYLAYER
 10
-11.0
 20
-17.0
 30
0.0
 11
-11.0
 21
-7.5
 31
0.0
  0
LINE
  5
4C
100
AcDbEntity
100
AcDbLine
  8
0
 62
256
370
-1
  6
BYLAYER
 10
-7.0
 20
-17.0
 30
0.0
 11
-7.0
 21
-7.5
 31
0.0
  0
LINE
  5
4D
100
AcDbEntity
100
AcDbLine
  8
0
 62
256
370
-1
  6
BYLAYER
 10
11.0
 20
-3.0
 30
0.0
 11
4.0
 21
8.0
 31
0.0
  0
LINE
  5
4E
100
AcDbEntity
100
AcDbLine
  8
0
 62
256
370
-1
  6
BYLAYER
 10
-12.0
 20
-7.5
 30
0.0
 11
-19.0
 21
3.5
 31
0.0
  0
LINE
  5
4F
100
AcDbEntity
100
AcDbLine
  8
0
 62
256
370
-1
  6
BYLAYER
 10
-12.0
 20
-7.5
 30
0.0
 11
11.0
 21
-7.5
 31
0.0
  0
LINE
  5
50
100
AcDbEntity
100
AcDbLine
  8
0
 62
256
370
-1
  6
BYLAYER
 10
11.0
 20
-7.5
 30
0.0
 11
11.0
 21
-3.0
 31
0.0
  0
LINE
  5
51
100
AcDbEntity
100
AcDbLine
  8
0
 62
256
370
-1
  6
BYLAYER
 10
4.0
 20
8.0
 30
0.0
 11
-19.0
 21
8.0
 31
0.0
  0
LINE
  5
52
100
AcDbEntity
100
AcDbLine
  8
0
 62
256
370
-1
  6
BYLAYER
 10
-19.0
 20
8.0
 30
0.0
 11
-19.0
 21
3.5
 31
0.0
  0
CIRCLE
  5
53
100
AcDbEntity
100
AcDbCircle
  8
0
 62
256
370
-1
  6
BYLAYER
 10
0.0
 20
0.0
 30
0.0
 40
2.0
  0
LINE
  5
54
100
AcDbEntity
100
AcDbLine
  8
0
 62
256
370
-1
  6
BYLAYER
 10
-19.0
 20
-27.0
 30
0.0
 11
3.0
 21
-27.0
 31
0.0
  0
LINE
  5
55
100
AcDbEntity
100
AcDbLine
  8
0
 62
256
370
-1
  6
BYLAYER
 10
3.0
 20
-27.0
 30
0.0
 11
3.0
 21
-17.0
 31
0.0
  0
LINE
  5
56
100
AcDbEntity
100
AcDbLine
  8
0
 62
256
370
-1
  6
BYLAYER
 10
3.0
 20
-17.0
 30
0.0
 11
-19.0
 21
-17.0
 31
0.0
  0
LINE
  5
57
100
AcDbEntity
100
AcDbLine
  8
0
 62
256
370
-1
  6
BYLAYER
 10
-19.0
 20
-17.0
 30
0.0
 11
-19.0
 21
-27.0
 31
0.0
  0
LINE
  5
58
100
AcDbEntity
100
AcDbLine
  8
0
 62
256
370
-1
  6
BYLAYER
 10
-11.0
 20
-17.0
 30
0.0
 11
-11.0
 21
-7.5
 31
0.0
  0
LINE
  5
59
100
AcDbEntity
100
AcDbLine
  8
0
 62
256
370
-1
  6
BYLAYER
 10
-7.0
 20
-17.0
 30
0.0
 11
-7.0
 21
-7.5
 31
0.0
  0
LINE
  5
5A
100
AcDbEntity
100
AcDbLine
  8
0
 62
256
370
-1
  6
BYLAYER
 10
11.0
 20
-3.0
 30
0.0
 11
4.0
 21
8.0
 31
0.0
  0
LINE
  5
5B
100
AcDbEntity
100
AcDbLine
  8
0
 62
256
370
-1
  6
BYLAYER
 10
-12.0
 20
-7.5
 30
0.0
 11
-19.0
 21
3.5
 31
0.0
  0
LINE
  5
5C
100
AcDbEntity
100
AcDbLine
  8
0
 62
256
370
-1
  6
BYLAYER
 10
-12.0
 20
-7.5
 30
0.0
 11
11.0
 21
-7.5
 31
0.0
  0
LINE
  5
5D
100
AcDbEntity
100
AcDbLine
  8
0
 62
256
370
-1
  6
BYLAYER
 10
11.0
 20
-7.5
 30
0.0
 11
11.0
 21
-3.0
 31
0.0
  0
LINE
  5
5E
100
AcDbEntity
100
AcDbLine
  8
0
 62
256
370
-1
  6
BYLAYER
 10
4.0
 20
8.0
 30
0.0
 11
-19.0
 21
8.0
 31
0.0
  0
LINE
  5
5F
100
AcDbEntity
100
AcDbLine
  8
0
 62
256
370
-1
  6
BYLAYER
 10
-19.0
 20
8.0
 30
0.0
 11
-19.0
 21
3.5
 31
0.0
  0
CIRCLE
  5
60
100
AcDbEntity
100
AcDbCircle
  8
0
 62
256
370
-1
  6
BYLAYER
 10
0.0
 20
0.0
 30
0.0
 40
2.0
  0
LINE
  5
61
100
AcDbEntity
100
AcDbLine
  8
0
 62
256
370
-1
  6
BYLAYER
 10
-19.0
 20
-27.0
 30
0.0
 11
3.0
 21
-27.0
 31
0.0
  0
LINE
  5
62
100
AcDbEntity
100
AcDbLine
  8
0
 62
256
370
-1
  6
BYLAYER
 10
3.0
 20
-27.0
 30
0.0
 11
3.0
 21
-17.0
 31
0.0
  0
LINE
  5
63
100
AcDbEntity
100
AcDbLine
  8
0
 62
256
370
-1
  6
BYLAYER
 10
3.0
 20
-17.0
 30
0.0
 11
-19.0
 21
-17.0
 31
0.0
  0
LINE
  5
64
100
AcDbEntity
100
AcDbLine
  8
0
 62
256
370
-1
  6
BYLAYER
 10
-19.0
 20
-17.0
 30
0.0
 11
-19.0
 21
-27.0
 31
0.0
  0
LINE
  5
65
100
AcDbEntity
100
AcDbLine
  8
0
 62
256
370
-1
  6
BYLAYER
 10
-11.0
 20
-17.0
 30
0.0
 11
-11.0
 21
-7.5
 31
0.0
  0
LINE
  5
66
100
AcDbEntity
100
AcDbLine
  8
0
 62
256
370
-1
  6
BYLAYER
 10
-7.0
 20
-17.0
 30
0.0
 11
-7.0
 21
-7.5
 31
0.0
  0
LINE
  5
67
100
AcDbEntity
100
AcDbLine
  8
0
 62
256
370
-1
  6
BYLAYER
 10
11.0
 20
-3.0
 30
0.0
 11
4.0
 21
8.0
 31
0.0
  0
LINE
  5
68
100
AcDbEntity
100
AcDbLine
  8
0
 62
256
370
-1
  6
BYLAYER
 10
-12.0
 20
-7.5
 30
0.0
 11
-19.0
 21
3.5
 31
0.0
  0
LINE
  5
69
100
AcDbEntity
100
AcDbLine
  8
0
 62
256
370
-1
  6
BYLAYER
 10
-12.0
 20
-7.5
 30
0.0
 11
11.0
 21
-7.5
 31
0.0
  0
LINE
  5
6A
100
AcDbEntity
100
AcDbLine
  8
0
 62
256
370
-1
  6
BYLAYER
 10
11.0
 20
-7.5
 30
0.0
 11
11.0
 21
-3.0
 31
0.0
  0
LINE
  5
6B
100
AcDbEntity
100
AcDbLine
  8
0
 62
256
370
-1
  6
BYLAYER
 10
4.0
 20
8.0
 30
0.0
 11
-19.0
 21
8.0
 31
0.0
  0
LINE
  5
6C
100
AcDbEntity
100
AcDbLine
  8
0
 62
256
370
-1
  6
BYLAYER
 10
-19.0
 20
8.0
 30
0.0
 11
-19.0
 21
3.5
 31
0.0
  0
CIRCLE
  5
6D
100
AcDbEntity
100
AcDbCircle
  8
0
 62
256
370
-1
  6
BYLAYER
 10
0.0
 20
0.0
 30
0.0
 40
2.0
  0
LINE
  5
6E
100
AcDbEntity
100
AcDbLine
  8
0
 62
256
370
-1
  6
BYLAYER
 10
-19.0
 20
-27.0
 30
0.0
 11
3.0
 21
-27.0
 31
0.0
  0
LINE
  5
6F
100
AcDbEntity
100
AcDbLine
  8
0
 62
256
370
-1
  6
BYLAYER
 10
3.0
 20
-27.0
 30
0.0
 11
3.0
 21
-17.0
 31
0.0
  0
LINE
  5
70
100
AcDbEntity
100
AcDbLine
  8
0
 62
256
370
-1
  6
BYLAYER
 10
3.0
 20
-17.0
 30
0.0
 11
-19.0
 21
-17.0
 31
0.0
  0
LINE
  5
71
100
AcDbEntity
100
AcDbLine
  8
0
 62
256
370
-1
  6
BYLAYER
 10
-19.0
 20
-17.0
 30
0.0
 11
-19.0
 21
-27.0
 31
0.0
  0
LINE
  5
72
100
AcDbEntity
100
AcDbLine
  8
0
 62
256
370
-1
  6
BYLAYER
 10
-11.0
 20
-17.0
 30
0.0
 11
-11.0
 21
-7.5
 31
0.0
  0
LINE
  5
73
100
AcDbEntity
100
AcDbLine
  8
0
 62
256
370
-1
  6
BYLAYER
 10
-7.0
 20
-17.0
 30
0.0
 11
-7.0
 21
-7.5
 31
0.0
  0
LINE
  5
74
100
AcDbEntity
100
AcDbLine
  8
0
 62
256
370
-1
  6
BYLAYER
 10
11.0
 20
-3.0
 30
0.0
 11
4.0
 21
8.0
 31
0.0
  0
LINE
  5
75
100
AcDbEntity
100
AcDbLine
  8
0
 62
256
370
-1
  6
BYLAYER
 10
-12.0
 20
-7.5
 30
0.0
 11
-19.0
 21
3.5
 31
0.0
  0
LINE
  5
76
100
AcDbEntity
100
AcDbLine
  8
0
 62
256
370
-1
  6
BYLAYER
 10
-12.0
 20
-7.5
 30
0.0
 11
11.0
 21
-7.5
 31
0.0
  0
LINE
  5
77
100
AcDbEntity
100
AcDbLine
  8
0
 62
256
370
-1
  6
BYLAYER
 10
11.0
 20
-7.5
 30
0.0
 11
11.0
 21
-3.0
 31
0.0
  0
LINE
  5
78
100
AcDbEntity
100
AcDbLine
  8
0
 62
256
370
-1
  6
BYLAYER
 10
4.0
 20
8.0
 30
0.0
 11
-19.0
 21
8.0
 31
0.0
  0
LINE
  5
79
100
AcDbEntity
100
AcDbLine
  8
0
 62
256
370
-1
  6
BYLAYER
 10
-19.0
 20
8.0
 30
0.0
 11
-19.0
 21
3.5
 31
0.0
  0
CIRCLE
  5
7A
100
AcDbEntity
100
AcDbCircle
  8
0
 62
256
370
-1
  6
BYLAYER
 10
0.0
 20
0.0
 30
0.0
 40
2.0
  0
ENDBLK
  5
7B
100
AcDbEntity
  8
0
100
AcDbBlockEnd
  0
ENDSEC
  0
SECTION
  2
ENTITIES
  0
LINE
  5
7C
100
AcDbEntity
100
AcDbLine
  8
0
 62
256
370
-1
  6
BYLAYER
 10
612.755204338962244
 20
37.8338456625017159
 30
0.0
 11
612.755204338962244
 21
0.0000000000001696
 31
0.0
  0
SPLINE
  5
7D
  8
0
 62
256
370
-1
  6
BYLAYER
100
AcDbEntity
100
AcDbSpline
 70
8
 71
3
 72
11
 73
7
 74
0
 40
0.0
 40
0.0
 40
0.0
 40
0.0
 40
1.0
 40
2.0
 40
3.0
 40
4.0
 40
4.0
 40
4.0
 40
4.0
 10
-26.820824579025107
 20
31.3994438995568785
 30
0.0
 10
-23.8436618020679347
 20
28.6207586410634995
 30
0.0
 10
-18.6115214180207147
 20
25.6019202363368095
 30
0.0
 10
-13.9308124076809037
 20
23.8242186115213386
 30
0.0
 10
-6.7577548005908596
 20
22.6661742983752141
 30
0.0
 10
0.0000000000000036
 20
22.5
 30
0.0
 10
0.0000000000000036
 20
22.5
 30
0.0
  0
LINE
  5
7E
100
AcDbEntity
100
AcDbLine
  8
0
 62
256
370
-1
  6
BYLAYER
 10
-167.4696724190137616
 20
37.4138746729280598
 30
0.0
 11
-26.820824579025107
 21
31.3994438995568785
 31
0.0
  0
CIRCLE
  5
7F
100
AcDbEntity
100
AcDbCircle
  8
0
 62
256
370
-1
  6
BYLAYER
 10
435.0027932958287238
 20
0.5634345445629636
 30
0.0
 40
41.7142400894248482
  0
LINE
  5
80
100
AcDbEntity
100
AcDbLine
  8
0
 62
256
370
-1
  6
BYLAYER
 10
390.0
 20
28.968111610127167
 30
0.0
 11
-0.0000000000000036
 21
22.5000000000000036
 31
0.0
  0
LINE
  5
81
100
AcDbEntity
100
AcDbLine
  8
0
 62
256
370
-1
  6
BYLAYER
 10
601.114021058192634
 20
0.0000000000001696
 30
0.0
 11
601.114021058192634
 21
38.8039442692325309
 31
0.0
  0
LINE
  5
82
100
AcDbEntity
100
AcDbLine
  8
0
 62
256
370
-1
  6
BYLAYER
 10
601.114021058192634
 20
38.8039442692325309
 30
0.0
 11
604.0243168783849796
 21
77.6078885384649624
 31
0.0
  0
LINE
  5
83
100
AcDbEntity
100
AcDbLine
  8
0
 62
256
370
-1
  6
BYLAYER
 10
604.0243168783849796
 20
77.6078885384649624
 30
0.0
 11
631.1870778668476305
 21
77.6078885384649624
 31
0.0
  0
LINE
  5
84
100
AcDbEntity
100
AcDbLine
  8
0
 62
256
370
-1
  6
BYLAYER
 10
631.1870778668476305
 20
77.6078885384649624
 30
0.0
 11
634.0973736870399762
 21
38.8039442692325309
 31
0.0
  0
LINE
  5
85
100
AcDbEntity
100
AcDbLine
  8
0
 62
256
370
-1
  6
BYLAYER
 10
634.0973736870399762
 20
38.8039442692325309
 30
0.0
 11
634.0973736870399762
 21
0.0000000000001696
 31
0.0
  0
LINE
  5
86
100
AcDbEntity
100
AcDbLine
  8
0
 62
256
370
-1
  6
BYLAYER
 10
612.755204338962244
 20
37.8338456625017159
 30
0.0
 11
619.5458945860779068
 21
37.8338456625017159
 31
0.0
  0
LINE
  5
87
100
AcDbEntity
100
AcDbLine
  8
0
 62
256
370
-1
  6
BYLAYER
 10
619.5458945860779068
 20
37.8338456625017159
 30
0.0
 11
619.5458945860779068
 21
0.0000000000001696
 31
0.0
  0
LINE
  5
88
100
AcDbEntity
100
AcDbLine
  8
0
 62
256
370
-1
  6
BYLAYER
 10
745.1634461205002253
 20
32.619934111983838
 30
0.0
 11
729.9557768003675164
 21
32.619934111983838
 31
0.0
  0
LINE
  5
89
100
AcDbEntity
100
AcDbLine
  8
0
 62
256
370
-1
  6
BYLAYER
 10
729.9557768003675164
 20
32.619934111983838
 30
0.0
 11
723.5350757909168351
 21
26.1926623817319886
 31
0.0
  0
LINE
  5
8A
100
AcDbEntity
100
AcDbLine
  8
0
 62
256
370
-1
  6
BYLAYER
 10
723.5350757909168351
 20
26.1926623817319886
 30
0.0
 11
723.5350757909168351
 21
0.0000000000001696
 31
0.0
  0
LINE
  5
8B
100
AcDbEntity
100
AcDbLine
  8
0
 62
256
370
-1
  6
BYLAYER
 10
331.6152386716693172
 20
0.0000000000001696
 30
0.0
 11
331.6152386716693172
 21
25.2225637750011877
 31
0.0
  0
LINE
  5
8C
100
AcDbEntity
100
AcDbLine
  8
0
 62
256
370
-1
  6
BYLAYER
 10
331.6152386716693172
 20
25.2225637750011877
 30
0.0
 11
327.5633227308091477
 21
29.31948686154686
 31
0.0
  0
CIRCLE
  5
8D
100
AcDbEntity
100
AcDbCircle
  8
0
 62
256
370
-1
  6
BYLAYER
 10
-97.9169618680913629
 20
22.0249252590244389
 30
0.0
 40
2.3929098966026658
  0
CIRCLE
  5
8E
100
AcDbEntity
100
AcDbCircle
  8
0
 62
256
370
-1
  6
BYLAYER
 10
-51.0159278946791517
 20
18.48341861205245
 30
0.0
 40
2.3929098966026658
  0
LINE
  5
8F
100
AcDbEntity
100
AcDbLine
  8
0
 62
256
370
-1
  6
BYLAYER
 10
601.114021058192634
 20
0.0000000000001457
 30
0.0
 11
601.114021058192634
 21
-38.8039442692323036
 31
0.0
  0
LINE
  5
90
100
AcDbEntity
100
AcDbLine
  8
0
 62
256
370
-1
  6
BYLAYER
 10
601.114021058192634
 20
-38.8039442692323036
 30
0.0
 11
604.0243168783849796
 21
-77.6078885384647634
 31
0.0
  0
LINE
  5
91
100
AcDbEntity
100
AcDbLine
  8
0
 62
256
370
-1
  6
BYLAYER
 10
604.0243168783849796
 20
-77.6078885384647634
 30
0.0
 11
631.1870778668476305
 21
-77.6078885384647066
 31
0.0
  0
LINE
  5
92
100
AcDbEntity
100
AcDbLine
  8
0
 62
256
370
-1
  6
BYLAYER
 10
631.1870778668476305
 20
-77.6078885384647066
 30
0.0
 11
634.0973736870399762
 21
-38.803944269232332
 31
0.0
  0
LINE
  5
93
100
AcDbEntity
100
AcDbLine
  8
0
 62
256
370
-1
  6
BYLAYER
 10
634.0973736870399762
 20
-38.803944269232332
 30
0.0
 11
634.0973736870399762
 21
0.0000000000001331
 31
0.0
  0
LINE
  5
94
100
AcDbEntity
100
AcDbLine
  8
0
 62
256
370
-1
  6
BYLAYER
 10
612.755204338962244
 20
-37.8338456625015311
 30
0.0
 11
619.5458945860779068
 21
-37.8338456625015169
 31
0.0
  0
LINE
  5
95
100
AcDbEntity
100
AcDbLine
  8
0
 62
256
370
-1
  6
BYLAYER
 10
619.5458945860779068
 20
-37.8338456625015169
 30
0.0
 11
619.5458945860779068
 21
0.0000000000001388
 31
0.0
  0
LINE
  5
96
100
AcDbEntity
100
AcDbLine
  8
0
 62
256
370
-1
  6
BYLAYER
 10
331.6152386716693172
 20
0.0000000000001696
 30
0.0
 11
331.6152386716693172
 21
-25.222563775000939
 31
0.0
  0
LINE
  5
97
100
AcDbEntity
100
AcDbLine
  8
0
 62
256
370
-1
  6
BYLAYER
 10
331.6152386716693172
 20
-25.222563775000939
 30
0.0
 11
327.5633227308091477
 21
-29.3194868615465261
 31
0.0
  0
LINE
  5
98
100
AcDbEntity
100
AcDbLine
  8
0
 62
256
370
-1
  6
BYLAYER
 10
612.755204338962244
 20
-37.8338456625015311
 30
0.0
 11
612.755204338962244
 21
0.0000000000001412
 31
0.0
  0
LINE
  5
99
100
AcDbEntity
100
AcDbLine
  8
0
 62
256
370
-1
  6
BYLAYER
 10
745.1634461205002253
 20
-32.6199341119835822
 30
0.0
 11
729.9557768003675164
 21
-32.6199341119835964
 31
0.0
  0
LINE
  5
9A
100
AcDbEntity
100
AcDbLine
  8
0
 62
256
370
-1
  6
BYLAYER
 10
729.9557768003675164
 20
-32.6199341119835964
 30
0.0
 11
723.5350757909168351
 21
-26.1926623817317612
 31
0.0
  0
LINE
  5
9B
100
AcDbEntity
100
AcDbLine
  8
0
 62
256
370
-1
  6
BYLAYER
 10
723.5350757909168351
 20
-26.1926623817317612
 30
0.0
 11
723.5350757909168351
 21
0.0000000000001696
 31
0.0
  0
LINE
  5
9C
100
AcDbEntity
100
AcDbLine
  8
0
 62
256
370
-1
  6
BYLAYER
 10
299.9999999999851639
 20
28.5610191966250504
 30
0.0
 11
300.0000000000148361
 21
-28.5610191966250504
 31
0.0
  0
SPLINE
  5
9D
  8
0
 62
256
370
-1
  6
BYLAYER
100
AcDbEntity
100
AcDbSpline
 70
8
 71
3
 72
38
 73
34
 74
0
 40
0.0
 40
0.0
 40
0.0
 40
0.0
 40
1.0
 40
2.0
 40
3.0
 40
4.0
 40
5.0
 40
6.0
 40
7.0
 40
8.0
 40
9.0
 40
10.0
 40
11.0
 40
12.0
 40
13.0
 40
14.0
 40
15.0
 40
16.0
 40
17.0
 40
18.0
 40
19.0
 40
20.0
 40
21.0
 40
22.0
 40
23.0
 40
24.0
 40
25.0
 40
26.0
 40
27.0
 40
28.0
 40
29.0
 40
30.0
 40
31.0
 40
31.0
 40
31.0
 40
31.0
 10
299.9573140471105717
 20
-28.5392463239726162
 30
0.0
 10
301.4250476528630998
 20
-37.4853905575471913
 30
0.0
 10
303.5692697663376407
 20
-48.697995164788864
 30
0.0
 10
308.3742002304775838
 20
-64.4039569036200561
 30
0.0
 10
316.1729197417650425
 20
-79.8593085438789245
 30
0.0
 10
326.1839112027894885
 20
-94.8757957354156503
 30
0.0
 10
342.0346476827448328
 20
-110.3094075711616284
 30
0.0
 10
362.0566306047935541
 20
-121.1546483206047782
 30
0.0
 10
383.589894362920802
 20
-123.316215859431523
 30
0.0
 10
400.4857784301492529
 20
-122.8311665560661794
 30
0.0
 10
415.1989406322334162
 20
-119.5975045336301008
 30
0.0
 10
434.219194053011222
 20
-114.8977786574644568
 30
0.0
 10
451.3213044655947215
 20
-108.6409089943241923
 30
0.0
 10
462.5836698592471521
 20
-104.4696625522307585
 30
0.0
 10
470.5090380992248811
 20
-103.6354132638120547
 30
0.0
 10
482.9441600022682337
 20
-105.126866983228652
 30
0.0
 10
495.4746003392077682
 20
-111.5133494775398475
 30
0.0
 10
517.226998250672068
 20
-124.4916454742795935
 30
0.0
 10
544.3401001242797292
 20
-140.7595065984443181
 30
0.0
 10
567.281955555794184
 20
-152.0218719920967487
 30
0.0
 10
590.223810987308525
 20
-158.6958662994463225
 30
0.0
 10
611.914292486194654
 20
-161.6157388089118569
 30
0.0
 10
632.1323910693766948
 20
-161.7579899821513436
 30
0.0
 10
657.8400041477433433
 20
-156.8266553979363209
 30
0.0
 10
683.3859341249882391
 20
-144.7812643643620731
 30
0.0
 10
697.8565716753893184
 20
-133.7059719375185978
 30
0.0
 10
710.4947500676713616
 20
-120.9460859985001804
 30
0.0
 10
723.008489393952118
 20
-103.009726297498176
 30
0.0
 10
733.8537301433951825
 20
-81.7363694428211858
 30
0.0
 10
741.3619737391634317
 20
-61.2972618765630841
 30
0.0
 10
748.7770086370957188
 20
-33.512634807785858
 30
0.0
 10
749.7174653419543802
 20
-12.9303760349806769
 30
0.0
 10
750.1157776153410168
 20
0.0000000000001092
 30
0.0
 10
750.1157776153410168
 20
0.0000000000001092
 30
0.0
  0
SPLINE
  5
9E
  8
0
 62
256
370
-1
  6
BYLAYER
100
AcDbEntity
100
AcDbSpline
 70
8
 71
3
 72
38
 73
34
 74
0
 40
0.0
 40
0.0
 40
0.0
 40
0.0
 40
1.0
 40
2.0
 40
3.0
 40
4.0
 40
5.0
 40
6.0
 40
7.0
 40
8.0
 40
9.0
 40
10.0
 40
11.0
 40
12.0
 40
13.0
 40
14.0
 40
15.0
 40
16.0
 40
17.0
 40
18.0
 40
19.0
 40
20.0
 40
21.0
 40
22.0
 40
23.0
 40
24.0
 40
25.0
 40
26.0
 40
27.0
 40
28.0
 40
29.0
 40
30.0
 40
31.0
 40
31.0
 40
31.0
 40
31.0
 10
299.9573140471105717
 20
28.5392463239727867
 30
0.0
 10
301.4250476528630998
 20
37.4853905575472055
 30
0.0
 10
303.5692697663376407
 20
48.6979951647890204
 30
0.0
 10
308.3742002304775838
 20
64.4039569036202266
 30
0.0
 10
316.1729197417650425
 20
79.8593085438791519
 30
0.0
 10
326.1839112027894885
 20
94.8757957354158208
 30
0.0
 10
342.0346476827447759
 20
110.3094075711617705
 30
0.0
 10
362.0566306047934972
 20
121.1546483206048919
 30
0.0
 10
383.589894362920802
 20
123.3162158594316367
 30
0.0
 10
400.4857784301492529
 20
122.8311665560663499
 30
0.0
 10
415.1989406322334162
 20
119.5975045336302429
 30
0.0
 10
434.2191940530111651
 20
114.8977786574646274
 30
0.0
 10
451.3213044655947215
 20
108.6409089943243629
 30
0.0
 10
462.5836698592470384
 20
104.4696625522308722
 30
0.0
 10
470.5090380992247674
 20
103.6354132638121683
 30
0.0
 10
482.9441600022681769
 20
105.1268669832287657
 30
0.0
 10
495.4746003392077682
 20
111.513349477540018
 30
0.0
 10
517.226998250672068
 20
124.491645474279764
 30
0.0
 10
544.3401001242797292
 20
140.7595065984444318
 30
0.0
 10
567.281955555794184
 20
152.0218719920968908
 30
0.0
 10
590.223810987308525
 20
158.6958662994464646
 30
0.0
 10
611.9142924861945403
 20
161.6157388089120559
 30
0.0
 10
632.1323910693766948
 20
161.7579899821515141
 30
0.0
 10
657.8400041477432296
 20
156.8266553979365483
 30
0.0
 10
683.3859341249882391
 20
144.7812643643622152
 30
0.0
 10
697.8565716753893184
 20
133.705971937518683
 30
0.0
 10
710.4947500676713616
 20
120.946085998500493
 30
0.0
 10
723.008489393952118
 20
103.0097262974984318
 30
0.0
 10
733.8537301433951825
 20
81.7363694428215268
 30
0.0
 10
741.3619737391634317
 20
61.2972618765632404
 30
0.0
 10
748.7770086370957188
 20
33.5126348077862133
 30
0.0
 10
749.7174653419543802
 20
12.9303760349807586
 30
0.0
 10
750.1157776153410168
 20
0.0000000000000911
 30
0.0
 10
750.1157776153410168
 20
0.0000000000000911
 30
0.0
  0
LINE
  5
9F
100
AcDbEntity
100
AcDbLine
  8
0
 62
256
370
-1
  6
BYLAYER
 10
327.5633227308091477
 20
-29.3194868615465261
 30
0.0
 11
299.9573140471105717
 21
-28.5392463239726162
 31
0.0
  0
LINE
  5
A0
100
AcDbEntity
100
AcDbLine
  8
0
 62
256
370
-1
  6
BYLAYER
 10
327.5633227308091477
 20
29.3194868615468671
 30
0.0
 11
299.9573140471105717
 21
28.5392463239729572
 31
0.0
  0
LINE
  5
A1
100
AcDbEntity
100
AcDbLine
  8
0
 62
256
370
-1
  6
BYLAYER
 10
0.0
 20
0.0
 30
0.0
 11
0.0000000000000018
 21
22.5
 31
0.0
  0
LINE
  5
A2
100
AcDbEntity
100
AcDbLine
  8
0
 62
256
370
-1
  6
BYLAYER
 10
-3.9881831610044429
 20
-0.0000000000000604
 30
0.0
 11
-3.9881831610044429
 21
22.4999999999999396
 31
0.0
  0
INSERT
  5
A3
100
AcDbEntity
100
AcDbBlockReference
  8
0
 62
256
370
-1
  6
BYLAYER
  2
tuner
 10
-51.0159278946791517
 20
18.48341861205245
 30
0.0
 41
1.0
 42
-1.0
 43
1.0
 50
357.5
  0
LINE
  5
A4
100
AcDbEntity
100
AcDbLine
  8
0
 62
256
370
-1
  6
BYLAYER
 10
-147.9151631954110826
 20
26.5685453084487193
 30
0.0
 11
-27.2480544800963003
 21
21.4085743372199389
 31
0.0
  0
LINE
  5
A5
100
AcDbEntity
100
AcDbLine
  8
0
 62
256
370
-1
  6
BYLAYER
 10
-148.342393096482283
 20
16.5776757461117796
 30
0.0
 11
-27.6752843811674936
 21
11.4177047748829992
 31
0.0
  0
ARC
  5
A6
100
AcDbEntity
  8
0
 62
256
370
-1
  6
BYLAYER
100
AcDbCircle
 10
-27.4616694306319005
 20
16.413139556051469
 30
0.0
 40
5.0
100
AcDbArc
 50
267.5514077093358196
 51
87.5514077093357912
  0
INSERT
  5
A7
100
AcDbEntity
100
AcDbBlockReference
  8
0
 62
256
370
-1
  6
BYLAYER
  2
tuner
 10
-89.0159278946791517
 20
20.48341861205245
 30
0.0
 41
1.0
 42
-1.0
 43
1.0
 50
357.5
  0
INSERT
  5
A8
100
AcDbEntity
100
AcDbBlockReference
  8
0
 62
256
370
-1
  6
BYLAYER
  2
tuner
 10
-127.0159278946791233
 20
22.48341861205245
 30
0.0
 41
1.0
 42
-1.0
 43
1.0
 50
357.5
  0
ARC
  5
A9
100
AcDbEntity
  8
0
 62
256
370
-1
  6
BYLAYER
100
AcDbCircle
 10
-148.1287781459466828
 20
21.5731105272802495
 30
0.0
 40
5.0000000000000009
100
AcDbArc
 50
87.5514077093357912
 51
267.5514077093358196
  0
SPLINE
  5
AA
  8
0
 62
256
370
-1
  6
BYLAYER
100
AcDbEntity
100
AcDbSpline
 70
8
 71
3
 72
11
 73
7
 74
0
 40
0.0
 40
0.0
 40
0.0
 40
0.0
 40
1.0
 40
2.0
 40
3.0
 40
4.0
 40
4.0
 40
4.0
 40
4.0
 10
-175.0
 20
-0.000000000000135
 30
0.0
 10
-170.0
 20
6.999999999999865
 30
0.0
 10
-168.0
 20
15.999999999999865
 30
0.0
 10
-167.7468001265352484
 20
23.703913770732175
 30
0.0
 10
-167.3036686642014104
 20
31.347931495990693
 30
0.0
 10
-167.4696724190137616
 20
37.4138746729280598
 30
0.0
 10
-167.4696724190137616
 20
37.4138746729280598
 30
0.0
  0
CIRCLE
  5
AB
100
AcDbEntity
100
AcDbCircle
  8
0
 62
256
370
-1
  6
BYLAYER
 10
-51.0159278946791517
 20
-18.4834186120527271
 30
0.0
 40
2.3929098966026658
  0
LINE
  5
AC
100
AcDbEntity
100
AcDbLine
  8
0
 62
256
370
-1
  6
BYLAYER
 10
0.0
 20
-0.0000000000001491
 30
0.0
 11
0.0
 21
-22.5000000000002593
 31
0.0
  0
INSERT
  5
AD
100
AcDbEntity
100
AcDbBlockReference
  8
0
 62
256
370
-1
  6
BYLAYER
  2
tuner
 10
-51.0159278946791517
 20
-18.4834186120527271
 30
0.0
 50
2.4999999999999529
  0
LINE
  5
AE
100
AcDbEntity
100
AcDbLine
  8
0
 62
256
370
-1
  6
BYLAYER
 10
-3.9881831610044429
 20
-0.0000000000001496
 30
0.0
 11
-3.9881831610044429
 21
-22.5000000000002309
 31
0.0
  0
LINE
  5
AF
100
AcDbEntity
100
AcDbLine
  8
0
 62
256
370
-1
  6
BYLAYER
 10
-147.9151631954110826
 20
-26.5685453084490817
 30
0.0
 11
-27.2480544800963003
 21
-21.4085743372201556
 31
0.0
  0
LINE
  5
B0
100
AcDbEntity
100
AcDbLine
  8
0
 62
256
370
-1
  6
BYLAYER
 10
-148.342393096482283
 20
-16.5776757461119537
 30
0.0
 11
-27.6752843811675007
 21
-11.4177047748832994
 31
0.0
  0
LINE
  5
B1
100
AcDbEntity
100
AcDbLine
  8
0
 62
256
370
-1
  6
BYLAYER
 10
390.0
 20
-28.968111610127167
 30
0.0
 11
0.0
 21
-22.5000000000002593
 31
0.0
  0
ARC
  5
B2
100
AcDbEntity
  8
0
 62
256
370
-1
  6
BYLAYER
100
AcDbCircle
 10
-27.4616694306319005
 20
-16.4131395560516253
 30
0.0
 40
5.0
100
AcDbArc
 50
272.4485922906641804
 51
92.448592290664223
  0
INSERT
  5
B3
100
AcDbEntity
100
AcDbBlockReference
  8
0
 62
256
370
-1
  6
BYLAYER
  2
tuner
 10
-89.0159278946791517
 20
-20.4834186120526986
 30
0.0
 50
2.4999999999999529
  0
INSERT
  5
B4
100
AcDbEntity
100
AcDbBlockReference
  8
0
 62
256
370
-1
  6
BYLAYER
  2
tuner
 10
-127.0159278946791233
 20
-22.4834186120526667
 30
0.0
 50
2.4999999999999529
  0
ARC
  5
B5
100
AcDbEntity
  8
0
 62
256
370
-1
  6
BYLAYER
100
AcDbCircle
 10
-148.1287781459466828
 20
-21.5731105272804022
 30
0.0
 40
5.0000000000000009
100
AcDbArc
 50
92.448592290664223
 51
272.4485922906641804
  0
SPLINE
  5
B6
  8
0
 62
256
370
-1
  6
BYLAYER
100
AcDbEntity
100
AcDbSpline
 70
8
 71
3
 72
11
 73
7
 74
0
 40
0.0
 40
0.0
 40
0.0
 40
0.0
 40
1.0
 40
2.0
 40
3.0
 40
4.0
 40
4.0
 40
4.0
 40
4.0
 10
-175.0
 20
-0.0000000000001705
 30
0.0
 10
-170.0
 20
-6.9999999999990541
 30
0.0
 10
-168.0
 20
-15.9999999999994547
 30
0.0
 10
-167.7468001265352768
 20
-23.7039137707326972
 30
0.0
 10
-167.3036686642013819
 20
-31.3479314959907107
 30
0.0
 10
-167.4696724190137616
 20
-37.4138746729285998
 30
0.0
 10
-167.4696724190137616
 20
-37.4138746729285998
 30
0.0
  0
SPLINE
  5
B7
  8
0
 62
256
370
-1
  6
BYLAYER
100
AcDbEntity
100
AcDbSpline
 70
8
 71
3
 72
11
 73
7
 74
0
 40
0.0
 40
0.0
 40
0.0
 40
0.0
 40
1.0
 40
2.0
 40
3.0
 40
4.0
 40
4.0
 40
4.0
 40
4.0
 10
-26.8208245790250999
 20
-31.3994438995571876
 30
0.0
 10
-23.8436618020679418
 20
-28.6207586410637873
 30
0.0
 10
-18.6115214180207147
 20
-25.6019202363369764
 30
0.0
 10
-13.9308124076808895
 20
-23.8242186115216974
 30
0.0
 10
-6.7577548005908596
 20
-22.6661742983755339
 30
0.0
 10
0.0
 20
-22.5000000000002593
 30
0.0
 10
0.0
 20
-22.5000000000002593
 30
0.0
  0
LINE
  5
B8
100
AcDbEntity
100
AcDbLine
  8
0
 62
256
370
-1
  6
BYLAYER
 10
-167.4696724190137616
 20
-37.4138746729285998
 30
0.0
 11
-26.8208245790250999
 21
-31.3994438995571876
 31
0.0
  0
CIRCLE
  5
B9
100
AcDbEntity
100
AcDbCircle
  8
0
 62
256
370
-1
  6
BYLAYER
 10
-97.9169618680913629
 20
-22.0249252590246023
 30
0.0
 40
2.3929098966026658
  0
LINE
  5
BA
100
AcDbEntity
100
AcDbLine
  8
0
 62
256
370
-1
  6
BYLAYER
 10
390.0
 20
28.968111610127167
 30
0.0
 11
390.0
 21
-28.968111610127167
 31
0.0
  0
ENDSEC
  0
SECTION
  2
OBJECTS
  0
DICTIONARY
  5
C
100
AcDbDictionary
280
0
281
1
  3
ACAD_GROUP
350
D
  3
ACAD_LAYOUT
350
1A
  3
ACAD_MLINESTYLE
350
17
  3
ACAD_PLOTSETTINGS
350
19
  3
ACAD_PLOTSTYLENAME
350
E
  3
AcDbVariableDictionary
350
BB
  3
QCAD_OBJECTS
350
BC
  0
DICTIONARY
  5
D
100
AcDbDictionary
280
0
281
1
  0
ACDBDICTIONARYWDFLT
  5
E
100
AcDbDictionary
281
1
  3
Normal
350
F
100
AcDbDictionaryWithDefault
340
F
  0
ACDBPLACEHOLDER
  5
F
  0
DICTIONARY
  5
17
100
AcDbDictionary
280
0
281
1
  3
Standard
350
18
  0
MLINESTYLE
  5
18
100
AcDbMlineStyle
  2
STANDARD
 70
0
  3

 62
256
 51
90.0
 52
90.0
 71
2
 49
0.5
 62
256
  6
BYLAYER
 49
-0.5
 62
256
  6
BYLAYER
  0
DICTIONARY
  5
19
100
AcDbDictionary
280
0
281
1
  0
DICTIONARY
  5
1A
100
AcDbDictionary
281
1
  3
Layout1
350
1E
  3
Layout2
350
26
  3
Model
350
22
  0
LAYOUT
  5
1E
100
AcDbPlotSettings
  1

  2
none_device
  4

  6

 40
0.0
 41
0.0
 42
0.0
 43
0.0
 44
0.0
 45
0.0
 46
0.0
 47
0.0
 48
0.0
 49
0.0
140
0.0
141
0.0
142
1.0
143
1.0
 70
688
 72
0
 73
0
 74
5
  7

 75
16
147
1.0
148
0.0
149
0.0
100
AcDbLayout
  1
Layout1
 70
1
 71
1
 10
0.0
 20
0.0
 11
420.0
 21
297.0
 12
0.0
 22
0.0
 32
0.0
 14
100000000000000000000.0
 24
100000000000000000000.0
 34
100000000000000000000.0
 15
-100000000000000000000.0
 25
-100000000000000000000.0
 35
-100000000000000000000.0
146
0.0
 13
0.0
 23
0.0
 33
0.0
 16
1.0
 26
0.0
 36
0.0
 17
0.0
 27
1.0
 37
0.0
 76
0
330
1B
  0
LAYOUT
  5
22
100
AcDbPlotSettings
  1

  2
none_device
  4

  6

 40
0.0
 41
0.0
 42
0.0
 43
0.0
 44
0.0
 45
0.0
 46
0.0
 47
0.0
 48
0.0
 49
0.0
140
0.0
141
0.0
142
1.0
143
1.0
 70
1712
 72
0
 73
0
 74
0
  7

 75
0
147
1.0
148
0.0
149
0.0
100
AcDbLayout
  1
Model
 70
1
 71
0
 10
0.0
 20
0.0
 11
12.0
 21
9.0
 12
0.0
 22
0.0
 32
0.0
 14
0.0
 24
0.0
 34
0.0
 15
0.0
 25
0.0
 35
0.0
146
0.0
 13
0.0
 23
0.0
 33
0.0
 16
1.0
 26
0.0
 36
0.0
 17
0.0
 27
1.0
 37
0.0
 76
0
330
1F
  0
LAYOUT
  5
26
100
AcDbPlotSettings
  1

  2
none_device
  4

  6

 40
0.0
 41
0.0
 42
0.0
 43
0.0
 44
0.0
 45
0.0
 46
0.0
 47
0.0
 48
0.0
 49
0.0
140
0.0
141
0.0
142
1.0
143
1.0
 70
688
 72
0
 73
0
 74
5
  7

 75
16
147
1.0
148
0.0
149
0.0
100
AcDbLayout
  1
Layout2
 70
1
 71
2
 10
0.0
 20
0.0
 11
12.0
 21
9.0
 12
0.0
 22
0.0
 32
0.0
 14
0.0
 24
0.0
 34
0.0
 15
0.0
 25
0.0
 35
0.0
146
0.0
 13
0.0
 23
0.0
 33
0.0
 16
1.0
 26
0.0
 36
0.0
 17
0.0
 27
1.0
 37
0.0
 76
0
330
23
  0
DICTIONARY
  5
BB
100
AcDbDictionary
281
1
  3
DIMASSOC
350
BE
  3
HIDETEXT
350
BD
  0
DICTIONARYVAR
  5
BD
100
DictionaryVariables
280
0
  1
2
  0
DICTIONARYVAR
  5
BE
100
DictionaryVariables
280
0
  1
1
  0
DICTIONARY
  5
BC
100
AcDbDictionary
281
1
  3
Grid/DisplayGrid00
350
BF
  3
Grid/DisplayGrid01
350
C0
  3
Grid/DisplayGrid02
350
C1
  3
Grid/DisplayGrid03
350
C2
  3
Grid/GridSpacingX00
350
C3
  3
Grid/GridSpacingX01
350
C4
  3
Grid/GridSpacingX02
350
C5
  3
Grid/GridSpacingX03
350
C6
  3
Grid/GridSpacingY00
350
C7
  3
Grid/GridSpacingY01
350
C8
  3
Grid/GridSpacingY02
350
C9
  3
Grid/GridSpacingY03
350
CA
  3
Grid/IsometricGrid00
350
CB
  3
Grid/IsometricGrid01
350
CC
  3
Grid/IsometricGrid02
350
CD
  3
Grid/IsometricGrid03
350
CE
  3
Grid/IsometricProjection00
350
CF
  3
Grid/IsometricProjection01
350
D0
  3
Grid/IsometricProjection02
350
D1
  3
Grid/IsometricProjection03
350
D2
  3
Grid/MetaGridSpacingX00
350
D3
  3
Grid/MetaGridSpacingX01
350
D4
  3
Grid/MetaGridSpacingX02
350
D5
  3
Grid/MetaGridSpacingX03
350
D6
  3
Grid/MetaGridSpacingY00
350
D7
  3
Grid/MetaGridSpacingY01
350
D8
  3
Grid/MetaGridSpacingY02
350
D9
  3
Grid/MetaGridSpacingY03
350
DA
  3
MultiPageSettings/Columns
350
DB
  3
MultiPageSettings/GlueMarginsBottom
350
DC
  3
MultiPageSettings/GlueMarginsLeft
350
DD
  3
MultiPageSettings/GlueMarginsRight
350
DE
  3
MultiPageSettings/GlueMarginsTop
350
DF
  3
MultiPageSettings/PrintCropMarks
350
E0
  3
MultiPageSettings/Rows
350
E1
  3
PageSettings/OffsetX
350
E2
  3
PageSettings/OffsetY
350
E3
  3
PageSettings/PageOrientation
350
E4
  3
PageSettings/PaperHeight
350
E5
  3
PageSettings/PaperWidth
350
E6
  3
PageSettings/Scale
350
E7
  3
PageSettings/ShowPaperBorders
350
E8
  3
UnitSettings/PaperUnit
350
E9
  0
XRECORD
  5
BF
330
BC
100
AcDbXrecord
280
1
290
1
  0
XRECORD
  5
C0
330
BC
100
AcDbXrecord
280
1
290
1
  0
XRECORD
  5
C1
330
BC
100
AcDbXrecord
280
1
290
1
  0
XRECORD
  5
C2
330
BC
100
AcDbXrecord
280
1
290
1
  0
XRECORD
  5
C3
330
BC
100
AcDbXrecord
280
1
1000
auto
  0
XRECORD
  5
C4
330
BC
100
AcDbXrecord
280
1
1000
auto
  0
XRECORD
  5
C5
330
BC
100
AcDbXrecord
280
1
1000
auto
  0
XRECORD
  5
C6
330
BC
100
AcDbXrecord
280
1
1000
auto
  0
XRECORD
  5
C7
330
BC
100
AcDbXrecord
280
1
1000
auto
  0
XRECORD
  5
C8
330
BC
100
AcDbXrecord
280
1
1000
auto
  0
XRECORD
  5
C9
330
BC
100
AcDbXrecord
280
1
1000
auto
  0
XRECORD
  5
CA
330
BC
100
AcDbXrecord
280
1
1000
auto
  0
XRECORD
  5
CB
330
BC
100
AcDbXrecord
280
1
290
0
  0
XRECORD
  5
CC
330
BC
100
AcDbXrecord
280
1
290
0
  0
XRECORD
  5
CD
330
BC
100
AcDbXrecord
280
1
290
0
  0
XRECORD
  5
CE
330
BC
100
AcDbXrecord
280
1
290
0
  0
XRECORD
  5
CF
330
BC
100
AcDbXrecord
280
1
 90
0
  0
XRECORD
  5
D0
330
BC
100
AcDbXrecord
280
1
 90
0
  0
XRECORD
  5
D1
330
BC
100
AcDbXrecord
280
1
 90
0
  0
XRECORD
  5
D2
330
BC
100
AcDbXrecord
280
1
 90
0
  0
XRECORD
  5
D3
330
BC
100
AcDbXrecord
280
1
1000
auto
  0
XRECORD
  5
D4
330
BC
100
AcDbXrecord
280
1
1000
auto
  0
XRECORD
  5
D5
330
BC
100
AcDbXrecord
280
1
1000
auto
  0
XRECORD
  5
D6
330
BC
100
AcDbXrecord
280
1
1000
auto
  0
XRECORD
  5
D7
330
BC
100
AcDbXrecord
280
1
1000
auto
  0
XRECORD
  5
D8
330
BC
100
AcDbXrecord
280
1
1000
auto
  0
XRECORD
  5
D9
330
BC
100
AcDbXrecord
280
1
1000
auto
  0
XRECORD
  5
DA
330
BC
100
AcDbXrecord
280
1
1000
auto
  0
XRECORD
  5
DB
330
BC
100
AcDbXrecord
280
1
 90
1
  0
XRECORD
  5
DC
330
BC
100
AcDbXrecord
280
1
 40
10.0
  0
XRECORD
  5
DD
330
BC
100
AcDbXrecord
280
1
 40
10.0
  0
XRECORD
  5
DE
330
BC
100
AcDbXrecord
280
1
 40
10.0
  0
XRECORD
  5
DF
330
BC
100
AcDbXrecord
280
1
 40
10.0
  0
XRECORD
  5
E0
330
BC
100
AcDbXrecord
280
1
290
0
  0
XRECORD
  5
E1
330
BC
100
AcDbXrecord
280
1
 90
1
  0
XRECORD
  5
E2
330
BC
100
AcDbXrecord
280
1
 40
0.0
  0
XRECORD
  5
E3
330
BC
100
AcDbXrecord
280
1
 40
0.0
  0
XRECORD
  5
E4
330
BC
100
AcDbXrecord
280
1
1000
Portrait
  0
XRECORD
  5
E5
330
BC
100
AcDbXrecord
280
1
 40
279.3999999999999773
  0
XRECORD
  5
E6
330
BC
100
AcDbXrecord
280
1
 40
215.9000000000000057
  0
XRECORD
  5
E7
330
BC
100
AcDbXrecord
280
1
1000
1:1
  0
XRECORD
  5
E8
330
BC
100
AcDbXrecord
280
1
290
1
  0
XRECORD
  5
E9
330
BC
100
AcDbXrecord
280
1
 90
4
  0
ENDSEC
  0
EOF
