999
dxflib 3.3.4.0
  0
SECTION
  2
HEADER
  9
$ACADVER
  1
AC1015
  9
$HANDSEED
  5
FFFF
  9
$DIMADEC
 70
0
  9
$DIMASZ
 40
2.5
  9
$DIMAUNIT
 70
0
  9
$DIMAZIN
 70
2
  9
$DIMDEC
 70
4
  9
$DIMEXE
 40
1.25
  9
$DIMEXO
 40
0.625
  9
$DIMGAP
 40
0.625
  9
$DIMLUNIT
 70
2
  9
$DIMTSZ
 40
0.0
  9
$DIMTXT
 40
2.5
  9
$DIMZIN
 70
8
  9
$DWGCODEPAGE
  3
ANSI_1252
  9
$INSUNITS
 70
4
  9
$LTSCALE
 40
1.0
  0
ENDSEC
  0
SECTION
  2
TABLES
  0
TABLE
  2
VPORT
  5
8
100
AcDbSymbolTable
 70
1
  0
VPORT
  5
30
100
AcDbSymbolTableRecord
100
AcDbViewportTableRecord
  2
*Active
 70
0
 10
0.0
 20
0.0
 11
1.0
 21
1.0
 12
286.3055555555554861
 22
148.5
 13
0.0
 23
0.0
 14
10.0
 24
10.0
 15
10.0
 25
10.0
 16
0.0
 26
0.0
 36
1.0
 17
0.0
 27
0.0
 37
0.0
 40
297.0
 41
1.92798353909465
 42
50.0
 43
0.0
 44
0.0
 50
0.0
 51
0.0
 71
0
 72
100
 73
1
 74
3
 75
1
 76
1
 77
0
 78
0
281
0
 65
1
110
0.0
120
0.0
130
0.0
111
1.0
121
0.0
131
0.0
112
0.0
122
1.0
132
0.0
 79
0
146
0.0
  0
ENDTAB
  0
TABLE
  2
LTYPE
  5
5
100
AcDbSymbolTable
 70
21
  0
LTYPE
  5
16
100
AcDbSymbolTableRecord
100
AcDbLinetypeTableRecord
  2
CONTINUOUS
 70
0
  3
Solid line
 72
65
 73
0
 40
0.0
  0
LTYPE
  5
31
100
AcDbSymbolTableRecord
100
AcDbLinetypeTableRecord
  2
CENTER2
 70
0
  3
Center (.5x) ___ _ ___ _ ___ _ ___ _ ___ _ ___
 72
65
 73
4
 40
28.5749999999999993
 49
19.0500000000000007
 74
0
 49
-3.1749999999999998
 74
0
 49
3.1749999999999998
 74
0
 49
-3.1749999999999998
 74
0
  0
LTYPE
  5
32
100
AcDbSymbolTableRecord
100
AcDbLinetypeTableRecord
  2
DIVIDEX2
 70
0
  3
Divide (2x) ________  .  .  ________  .  .  _
 72
65
 73
6
 40
63.5
 49
25.3999999999999986
 74
0
 49
-12.6999999999999993
 74
0
 49
0.0
 74
0
 49
-12.6999999999999993
 74
0
 49
0.0
 74
0
 49
-12.6999999999999993
 74
0
  0
LTYPE
  5
33
100
AcDbSymbolTableRecord
100
AcDbLinetypeTableRecord
  2
DOT2
 70
0
  3
Dot (.5x) .....................................
 72
65
 73
2
 40
3.1749999999999998
 49
0.0
 74
0
 49
-3.1749999999999998
 74
0
  0
LTYPE
  5
34
100
AcDbSymbolTableRecord
100
AcDbLinetypeTableRecord
  2
DASHDOT2
 70
0
  3
Dash dot (.5x) _._._._._._._._._._._._._._._.
 72
65
 73
4
 40
12.6999999999999993
 49
6.3499999999999996
 74
0
 49
-3.1749999999999998
 74
0
 49
0.0
 74
0
 49
-3.1749999999999998
 74
0
  0
LTYPE
  5
35
100
AcDbSymbolTableRecord
100
AcDbLinetypeTableRecord
  2
DIVIDE
 70
0
  3
Divide ____ . . ____ . . ____ . . ____ . . ____
 72
65
 73
6
 40
31.75
 49
12.6999999999999993
 74
0
 49
-6.3499999999999996
 74
0
 49
0.0
 74
0
 49
-6.3499999999999996
 74
0
 49
0.0
 74
0
 49
-6.3499999999999996
 74
0
  0
LTYPE
  5
36
100
AcDbSymbolTableRecord
100
AcDbLinetypeTableRecord
  2
DASHDOT
 70
0
  3
Dash dot __ . __ . __ . __ . __ . __ . __ . __
 72
65
 73
4
 40
25.3999999999999986
 49
12.6999999999999993
 74
0
 49
-6.3499999999999996
 74
0
 49
0.0
 74
0
 49
-6.3499999999999996
 74
0
  0
LTYPE
  5
37
100
AcDbSymbolTableRecord
100
AcDbLinetypeTableRecord
  2
BORDER
 70
0
  3
Border __ __ . __ __ . __ __ . __ __ . __ __ .
 72
65
 73
6
 40
44.4500000000000028
 49
12.6999999999999993
 74
0
 49
-6.3499999999999996
 74
0
 49
12.6999999999999993
 74
0
 49
-6.3499999999999996
 74
0
 49
0.0
 74
0
 49
-6.3499999999999996
 74
0
  0
LTYPE
  5
38
100
AcDbSymbolTableRecord
100
AcDbLinetypeTableRecord
  2
DASHDOTX2
 70
0
  3
Dash dot (2x) ____  .  ____  .  ____  .  ___
 72
65
 73
4
 40
50.7999999999999972
 49
25.3999999999999986
 74
0
 49
-12.6999999999999993
 74
0
 49
0.0
 74
0
 49
-12.6999999999999993
 74
0
  0
LTYPE
  5
39
100
AcDbSymbolTableRecord
100
AcDbLinetypeTableRecord
  2
CENTERX2
 70
0
  3
Center (2x) ________  __  ________  __  _____
 72
65
 73
4
 40
101.5999999999999943
 49
63.5
 74
0
 49
-12.6999999999999993
 74
0
 49
12.6999999999999993
 74
0
 49
-12.6999999999999993
 74
0
  0
LTYPE
  5
3A
100
AcDbSymbolTableRecord
100
AcDbLinetypeTableRecord
  2
BORDER2
 70
0
  3
Border (.5x) __.__.__.__.__.__.__.__.__.__.__.
 72
65
 73
6
 40
22.2250000000000014
 49
6.3499999999999996
 74
0
 49
-3.1749999999999998
 74
0
 49
6.3499999999999996
 74
0
 49
-3.1749999999999998
 74
0
 49
0.0
 74
0
 49
-3.1749999999999998
 74
0
  0
LTYPE
  5
3B
100
AcDbSymbolTableRecord
100
AcDbLinetypeTableRecord
  2
BORDERX2
 70
0
  3
Border (2x) ____  ____  .  ____  ____  .  ___
 72
65
 73
6
 40
88.9000000000000057
 49
25.3999999999999986
 74
0
 49
-12.6999999999999993
 74
0
 49
25.3999999999999986
 74
0
 49
-12.6999999999999993
 74
0
 49
0.0
 74
0
 49
-12.6999999999999993
 74
0
  0
LTYPE
  5
14
100
AcDbSymbolTableRecord
100
AcDbLinetypeTableRecord
  2
BYBLOCK
 70
0
  3

 72
65
 73
0
 40
0.0
  0
LTYPE
  5
15
100
AcDbSymbolTableRecord
100
AcDbLinetypeTableRecord
  2
BYLAYER
 70
0
  3

 72
65
 73
0
 40
0.0
  0
LTYPE
  5
3C
100
AcDbSymbolTableRecord
100
AcDbLinetypeTableRecord
  2
DASHED2
 70
0
  3
Dashed (.5x) _ _ _ _ _ _ _ _ _ _ _ _ _ _ _ _ _
 72
65
 73
2
 40
9.5250000000000004
 49
6.3499999999999996
 74
0
 49
-3.1749999999999998
 74
0
  0
LTYPE
  5
3D
100
AcDbSymbolTableRecord
100
AcDbLinetypeTableRecord
  2
CENTER
 70
0
  3
Center ____ _ ____ _ ____ _ ____ _ ____ _ ____
 72
65
 73
4
 40
50.7999999999999972
 49
31.75
 74
0
 49
-6.3499999999999996
 74
0
 49
6.3499999999999996
 74
0
 49
-6.3499999999999996
 74
0
  0
LTYPE
  5
3E
100
AcDbSymbolTableRecord
100
AcDbLinetypeTableRecord
  2
DIVIDE2
 70
0
  3
Divide (.5x) __..__..__..__..__..__..__..__.._
 72
65
 73
6
 40
15.875
 49
6.3499999999999996
 74
0
 49
-3.1749999999999998
 74
0
 49
0.0
 74
0
 49
-3.1749999999999998
 74
0
 49
0.0
 74
0
 49
-3.1749999999999998
 74
0
  0
LTYPE
  5
3F
100
AcDbSymbolTableRecord
100
AcDbLinetypeTableRecord
  2
DASHED
 70
0
  3
Dashed __ __ __ __ __ __ __ __ __ __ __ __ __ _
 72
65
 73
2
 40
19.0500000000000007
 49
12.6999999999999993
 74
0
 49
-6.3499999999999996
 74
0
  0
LTYPE
  5
40
100
AcDbSymbolTableRecord
100
AcDbLinetypeTableRecord
  2
DOTX2
 70
0
  3
Dot (2x) .  .  .  .  .  .  .  .  .  .  .  .  .
 72
65
 73
2
 40
12.6999999999999993
 49
0.0
 74
0
 49
-12.6999999999999993
 74
0
  0
LTYPE
  5
41
100
AcDbSymbolTableRecord
100
AcDbLinetypeTableRecord
  2
DASHEDX2
 70
0
  3
Dashed (2x) ____  ____  ____  ____  ____  ___
 72
65
 73
2
 40
38.1000000000000014
 49
25.3999999999999986
 74
0
 49
-12.6999999999999993
 74
0
  0
LTYPE
  5
42
100
AcDbSymbolTableRecord
100
AcDbLinetypeTableRecord
  2
DOT
 70
0
  3
Dot . . . . . . . . . . . . . . . . . . . . . .
 72
65
 73
2
 40
6.3499999999999996
 49
0.0
 74
0
 49
-6.3499999999999996
 74
0
  0
ENDTAB
  0
TABLE
  2
LAYER
  5
2
100
AcDbSymbolTable
 70
1
  0
LAYER
  5
10
100
AcDbSymbolTableRecord
100
AcDbLayerTableRecord
  2
0
 70
0
 62
7
420
0
  6
CONTINUOUS
370
25
390
F
  0
ENDTAB
  0
TABLE
  2
STYLE
  5
3
100
AcDbSymbolTable
 70
1
  0
STYLE
  5
43
100
AcDbSymbolTableRecord
100
AcDbTextStyleTableRecord
  2
Standard
 70
0
 40
0.0
 41
1.0
 50
0.0
 71
0
 42
2.5
  3

  4

1001
ACAD
1000
txt
1071
0
  0
ENDTAB
  0
TABLE
  2
VIEW
  5
6
100
AcDbSymbolTable
 70
0
  0
ENDTAB
  0
TABLE
  2
UCS
  5
7
100
AcDbSymbolTable
 70
0
  0
ENDTAB
  0
TABLE
  2
APPID
  5
9
100
AcDbSymbolTable
 70
1
  0
APPID
  5
12
100
AcDbSymbolTableRecord
100
AcDbRegAppTableRecord
  2
ACAD
 70
0
  0
APPID
  5
44
100
AcDbSymbolTableRecord
100
AcDbRegAppTableRecord
  2
QCAD
 70
0
  0
ENDTAB
  0
TABLE
  2
DIMSTYLE
  5
A
100
AcDbSymbolTable
 70
1
100
AcDbDimStyleTable
 71
0
  0
DIMSTYLE
105
27
100
AcDbSymbolTableRecord
100
AcDbDimStyleTableRecord
  2
Standard
 41
2.5
 42
0.625
 43
3.75
 44
1.25
 70
0
 73
0
 74
0
 77
1
 78
8
140
2.5
141
2.5
143
0.03937007874016
147
0.625
171
3
172
1
271
2
272
2
274
3
278
44
283
0
284
8
340
43
  0
ENDTAB
  0
TABLE
  2
BLOCK_RECORD
  5
1
100
AcDbSymbolTable
 70
1
  0
BLOCK_RECORD
  5
1F
100
AcDbSymbolTableRecord
100
AcDbBlockTableRecord
  2
*Model_Space
340
22
  0
BLOCK_RECORD
  5
1B
100
AcDbSymbolTableRecord
100
AcDbBlockTableRecord
  2
*Paper_Space
340
1E
  0
BLOCK_RECORD
  5
23
100
AcDbSymbolTableRecord
100
AcDbBlockTableRecord
  2
*Paper_Space0
340
26
  0
ENDTAB
  0
ENDSEC
  0
SECTION
  2
BLOCKS
  0
BLOCK
  5
20
100
AcDbEntity
  8
0
100
AcDbBlockBegin
  2
*Model_Space
 70
0
 10
0.0
 20
0.0
 30
0.0
  3
*Model_Space
  1

  0
ENDBLK
  5
21
100
AcDbEntity
  8
0
100
AcDbBlockEnd
  0
BLOCK
  5
1C
100
AcDbEntity
 67
1
  8
0
100
AcDbBlockBegin
  2
*Paper_Space
 70
0
 10
0.0
 20
0.0
 30
0.0
  3
*Paper_Space
  1

  0
ENDBLK
  5
1D
100
AcDbEntity
 67
1
  8
0
100
AcDbBlockEnd
  0
BLOCK
  5
24
100
AcDbEntity
  8
0
100
AcDbBlockBegin
  2
*Paper_Space0
 70
0
 10
0.0
 20
0.0
 30
0.0
  3
*Paper_Space0
  1

  0
ENDBLK
  5
25
100
AcDbEntity
  8
0
100
AcDbBlockEnd
  0
ENDSEC
  0
SECTION
  2
ENTITIES
  0
LINE
  5
45
100
AcDbEntity
100
AcDbLine
  8
0
 62
256
370
-1
  6
BYLAYER
 10
0.0
 20
0.0
 30
0.0
 11
100.0
 21
0.0
 31
0.0
  0
LINE
  5
46
100
AcDbEntity
100
AcDbLine
  8
0
 62
256
370
-1
  6
BYLAYER
 10
100.0
 20
0.0
 30
0.0
 11
100.0
 21
100.0
 31
0.0
  0
LINE
  5
47
100
AcDbEntity
100
AcDbLine
  8
0
 62
256
370
-1
  6
BYLAYER
 10
100.0
 20
100.0
 30
0.0
 11
0.0
 21
100.0
 31
0.0
  0
LINE
  5
48
100
AcDbEntity
100
AcDbLine
  8
0
 62
256
370
-1
  6
BYLAYER
 10
0.0
 20
100.0
 30
0.0
 11
0.0
 21
0.0
 31
0.0
  0
LINE
  5
49
100
AcDbEntity
100
AcDbLine
  8
0
 62
256
370
-1
  6
BYLAYER
 10
5.5426049737446554
 20
38.4715371618790698
 30
0.0
 11
5.528462838120932
 21
38.4573950262553481
 31
0.0
  0
LINE
  5
4A
100
AcDbEntity
100
AcDbLine
  8
0
 62
256
370
-1
  6
BYLAYER
 10
5.5284628381209266
 20
39.3554206383622613
 30
0.0
 11
3.149048519428197
 21
41.7348349570549928
 31
0.0
  0
LINE
  5
4B
100
AcDbEntity
100
AcDbLine
  8
0
 62
256
370
-1
  6
BYLAYER
 10
2.2651650429450134
 20
40.8509514805718013
 30
0.0
 11
4.6445793616377387
 21
38.4715371618790698
 31
0.0
  0
LINE
  5
4C
100
AcDbEntity
100
AcDbLine
  8
0
 62
256
370
-1
  6
BYLAYER
 10
43.1490485194281916
 20
40.8509514805718013
 30
0.0
 11
43.3954319804149122
 21
40.6045680195850878
 31
0.0
  0
LINE
  5
4D
100
AcDbEntity
100
AcDbLine
  8
0
 62
256
370
-1
  6
BYLAYER
 10
44.0000000000000568
 20
39.9999999999999432
 30
0.0
 11
44.0000000000000568
 21
39.9999999999999432
 31
0.0
  0
LINE
  5
4E
100
AcDbEntity
100
AcDbLine
  8
0
 62
256
370
-1
  6
BYLAYER
 10
40.8509514805719149
 20
43.149048519428078
 30
0.0
 11
40.6045680195852512
 21
43.3954319804147488
 31
0.0
  0
LINE
  5
4F
100
AcDbEntity
100
AcDbLine
  8
0
 62
256
370
-1
  6
BYLAYER
 10
40.0000000000000568
 20
43.9999999999999432
 30
0.0
 11
40.0000000000000568
 21
43.9999999999999432
 31
0.0
  0
LINE
  5
50
100
AcDbEntity
100
AcDbLine
  8
0
 62
256
370
-1
  6
BYLAYER
 10
3.1490485194282036
 20
43.1490485194280922
 30
0.0
 11
3.3954319804148816
 21
43.3954319804147701
 31
0.0
  0
LINE
  5
51
100
AcDbEntity
100
AcDbLine
  8
0
 62
256
370
-1
  6
BYLAYER
 10
0.8509514805719199
 20
40.8509514805718084
 30
0.0
 11
0.6045680195852557
 21
40.6045680195851446
 31
0.0
  0
LINE
  5
52
100
AcDbEntity
100
AcDbLine
  8
0
 62
256
370
-1
  6
BYLAYER
 10
0.8509514805719153
 20
3.1490485194280868
 30
0.0
 11
0.60456801958523
 21
3.3954319804147715
 31
0.0
  0
LINE
  5
53
100
AcDbEntity
100
AcDbLine
  8
0
 62
256
370
-1
  6
BYLAYER
 10
3.1490485194281925
 20
0.8509514805718074
 30
0.0
 11
3.3954319804148634
 21
0.6045680195851367
 31
0.0
  0
LINE
  5
54
100
AcDbEntity
100
AcDbLine
  8
0
 62
256
370
-1
  6
BYLAYER
 10
40.8509514805719078
 20
0.8509514805717973
 30
0.0
 11
40.6045680195852299
 21
0.6045680195851189
 31
0.0
  0
LINE
  5
55
100
AcDbEntity
100
AcDbLine
  8
0
 62
256
370
-1
  6
BYLAYER
 10
43.1490485194281987
 20
3.1490485194280868
 30
0.0
 11
43.395431980414827
 21
3.3954319804147159
 31
0.0
  0
ARC
  5
56
100
AcDbEntity
  8
0
 62
256
370
-1
  6
BYLAYER
100
AcDbCircle
 10
67.9999999999999574
 20
21.9999999999998295
 30
0.0
 40
29.9999999999999893
100
AcDbArc
 50
144.7365092167328271
 51
215.2634907832668603
  0
ARC
  5
57
100
AcDbEntity
  8
0
 62
256
370
-1
  6
BYLAYER
100
AcDbCircle
 10
22.0000000000000711
 20
67.9999999999998437
 30
0.0
 40
29.9999999999999893
100
AcDbArc
 50
234.7365092167329408
 51
305.2634907832670592
  0
ARC
  5
58
100
AcDbEntity
  8
0
 62
256
370
-1
  6
BYLAYER
100
AcDbCircle
 10
-23.9999999999998437
 20
21.9999999999999645
 30
0.0
 40
29.9999999999999893
100
AcDbArc
 50
324.7365092167329408
 51
35.2634907832670237
  0
ARC
  5
59
100
AcDbEntity
  8
0
 62
256
370
-1
  6
BYLAYER
100
AcDbCircle
 10
22.0000000000000355
 20
-23.9999999999999574
 30
0.0
 40
29.9999999999999893
100
AcDbArc
 50
54.7365092167329124
 51
125.263490783267045
  0
CIRCLE
  5
5A
100
AcDbEntity
100
AcDbCircle
  8
0
 62
256
370
-1
  6
BYLAYER
 10
22.0
 20
22.0
 30
0.0
 40
0.5
  0
ARC
  5
5B
100
AcDbEntity
  8
0
 62
256
370
-1
  6
BYLAYER
100
AcDbCircle
 10
39.897461238398698
 20
42.6883251992282027
 30
0.0
 40
1.0
100
AcDbArc
 50
44.9999999999997229
 51
125.2634907832669882
  0
ARC
  5
5C
100
AcDbEntity
  8
0
 62
256
370
-1
  6
BYLAYER
100
AcDbCircle
 10
40.1438446993853688
 20
42.4419417382415389
 30
0.0
 40
1.0
100
AcDbArc
 50
314.9999999999996589
 51
44.9999999999997087
  0
ARC
  5
5D
100
AcDbEntity
  8
0
 62
256
370
-1
  6
BYLAYER
100
AcDbCircle
 10
42.4419417382416526
 20
40.1438446993852551
 30
0.0
 40
1.0
100
AcDbArc
 50
45.0000000000002913
 51
134.9999999999997158
  0
ARC
  5
5E
100
AcDbEntity
  8
0
 62
256
370
-1
  6
BYLAYER
100
AcDbCircle
 10
42.6883251992283661
 20
39.8974612383985345
 30
0.0
 40
1.0
100
AcDbArc
 50
324.7365092167327134
 51
45.0000000000002913
  0
ARC
  5
5F
100
AcDbEntity
  8
0
 62
256
370
-1
  6
BYLAYER
100
AcDbCircle
 10
42.6883251992282808
 20
4.1025387616012612
 30
0.0
 40
1.0
100
AcDbArc
 50
315.0
 51
35.2634907832668745
  0
ARC
  5
60
100
AcDbEntity
  8
0
 62
256
370
-1
  6
BYLAYER
100
AcDbCircle
 10
42.4419417382416526
 20
3.8561553006146299
 30
0.0
 40
1.0
100
AcDbArc
 50
224.9999999999999716
 51
315.0000000000000568
  0
ARC
  5
61
100
AcDbEntity
  8
0
 62
256
370
-1
  6
BYLAYER
100
AcDbCircle
 10
40.1438446993853546
 20
1.5580582617583438
 30
0.0
 40
1.0
100
AcDbArc
 50
315.0000000000002274
 51
45.0
  0
ARC
  5
62
100
AcDbEntity
  8
0
 62
256
370
-1
  6
BYLAYER
100
AcDbCircle
 10
39.8974612383986837
 20
1.3116748007716639
 30
0.0
 40
1.0
100
AcDbArc
 50
234.7365092167329408
 51
315.0000000000001137
  0
ARC
  5
63
100
AcDbEntity
  8
0
 62
256
370
-1
  6
BYLAYER
100
AcDbCircle
 10
4.1025387616014113
 20
1.3116748007716845
 30
0.0
 40
1.0
100
AcDbArc
 50
225.0
 51
305.2634907832670024
  0
ARC
  5
64
100
AcDbEntity
  8
0
 62
256
370
-1
  6
BYLAYER
100
AcDbCircle
 10
3.8561553006147404
 20
1.5580582617583554
 30
0.0
 40
1.0
100
AcDbArc
 50
134.9999999999998863
 51
225.0
  0
ARC
  5
65
100
AcDbEntity
  8
0
 62
256
370
-1
  6
BYLAYER
100
AcDbCircle
 10
1.5580582617584613
 20
3.8561553006146347
 30
0.0
 40
1.0
100
AcDbArc
 50
225.0000000000000284
 51
315.0000000000000568
  0
ARC
  5
66
100
AcDbEntity
  8
0
 62
256
370
-1
  6
BYLAYER
100
AcDbCircle
 10
1.3116748007717765
 20
4.1025387616013198
 30
0.0
 40
1.0
100
AcDbArc
 50
144.7365092167329124
 51
225.0000000000000853
  0
ARC
  5
67
100
AcDbEntity
  8
0
 62
256
370
-1
  6
BYLAYER
100
AcDbCircle
 10
1.3116748007718009
 20
39.8974612383985914
 30
0.0
 40
1.0
100
AcDbArc
 50
134.9999999999997158
 51
215.2634907832668603
  0
ARC
  5
68
100
AcDbEntity
  8
0
 62
256
370
-1
  6
BYLAYER
100
AcDbCircle
 10
1.5580582617584624
 20
40.1438446993852551
 30
0.0
 40
1.0
100
AcDbArc
 50
44.9999999999998437
 51
134.9999999999996305
  0
ARC
  5
69
100
AcDbEntity
  8
0
 62
256
370
-1
  6
BYLAYER
100
AcDbCircle
 10
3.8561553006147484
 20
42.441941738241546
 30
0.0
 40
1.0
100
AcDbArc
 50
134.9999999999999716
 51
225.0000000000000284
  0
ARC
  5
6A
100
AcDbEntity
  8
0
 62
256
370
-1
  6
BYLAYER
100
AcDbCircle
 10
4.1025387616014264
 20
42.688325199228224
 30
0.0
 40
1.0
100
AcDbArc
 50
54.7365092167328555
 51
134.9999999999999716
  0
ARC
  5
6B
100
AcDbEntity
  8
0
 62
256
370
-1
  6
BYLAYER
100
AcDbCircle
 10
5.093592167691197
 20
38.92054996793253
 30
0.0
 40
0.635
100
AcDbArc
 50
224.9999999999998863
 51
314.9999999999998295
  0
ARC
  5
6C
100
AcDbEntity
  8
0
 62
256
370
-1
  6
BYLAYER
100
AcDbCircle
 10
5.0794500320674709
 20
38.9064078323088083
 30
0.0
 40
0.635
100
AcDbArc
 50
314.9999999999999432
 51
45.0000000000002274
  0
LINE
  5
6D
100
AcDbEntity
100
AcDbLine
  8
0
 62
256
370
-1
  6
BYLAYER
 10
4.6445793616377316
 20
5.5284628381209302
 30
0.0
 11
2.2651650429450108
 21
3.1490485194281987
 31
0.0
  0
LINE
  5
6E
100
AcDbEntity
100
AcDbLine
  8
0
 62
256
370
-1
  6
BYLAYER
 10
3.1490485194282023
 20
2.2651650429450108
 30
0.0
 11
5.5284628381209266
 21
4.6445793616377387
 31
0.0
  0
ARC
  5
6F
100
AcDbEntity
  8
0
 62
256
370
-1
  6
BYLAYER
100
AcDbCircle
 10
5.0794500320674629
 20
5.0935921676911988
 30
0.0
 40
0.635
100
AcDbArc
 50
314.9999999999998295
 51
44.9999999999998437
  0
ARC
  5
70
100
AcDbEntity
  8
0
 62
256
370
-1
  6
BYLAYER
100
AcDbCircle
 10
5.0935921676911846
 20
5.0794500320674771
 30
0.0
 40
0.635
100
AcDbArc
 50
44.9999999999999503
 51
135.0000000000002274
  0
LINE
  5
71
100
AcDbEntity
100
AcDbLine
  8
0
 62
256
370
-1
  6
BYLAYER
 10
38.4715371618790698
 20
4.6445793616377316
 30
0.0
 11
40.8509514805718084
 21
2.2651650429450179
 31
0.0
  0
LINE
  5
72
100
AcDbEntity
100
AcDbLine
  8
0
 62
256
370
-1
  6
BYLAYER
 10
41.7348349570549857
 20
3.1490485194282023
 30
0.0
 11
39.3554206383622613
 21
5.5284628381209266
 31
0.0
  0
ARC
  5
73
100
AcDbEntity
  8
0
 62
256
370
-1
  6
BYLAYER
100
AcDbCircle
 10
38.906407832308787
 20
5.0794500320674558
 30
0.0
 40
0.635
100
AcDbArc
 50
44.9999999999998437
 51
134.9999999999998295
  0
ARC
  5
74
100
AcDbEntity
  8
0
 62
256
370
-1
  6
BYLAYER
100
AcDbCircle
 10
38.9205499679325229
 20
5.0935921676911846
 30
0.0
 40
0.635
100
AcDbArc
 50
134.9999999999999432
 51
225.0000000000002274
  0
LINE
  5
75
100
AcDbEntity
100
AcDbLine
  8
0
 62
256
370
-1
  6
BYLAYER
 10
39.3554206383622684
 20
38.4715371618790698
 30
0.0
 11
41.7348349570549857
 21
40.8509514805718084
 31
0.0
  0
LINE
  5
76
100
AcDbEntity
100
AcDbLine
  8
0
 62
256
370
-1
  6
BYLAYER
 10
40.8509514805718013
 20
41.7348349570549857
 30
0.0
 11
38.4715371618790698
 21
39.3554206383622542
 31
0.0
  0
ARC
  5
77
100
AcDbEntity
  8
0
 62
256
370
-1
  6
BYLAYER
100
AcDbCircle
 10
38.9205499679325442
 20
38.906407832308787
 30
0.0
 40
0.635
100
AcDbArc
 50
134.9999999999998295
 51
224.9999999999998295
  0
ARC
  5
78
100
AcDbEntity
  8
0
 62
256
370
-1
  6
BYLAYER
100
AcDbCircle
 10
38.9064078323088154
 20
38.9205499679325229
 30
0.0
 40
0.635
100
AcDbArc
 50
224.9999999999999716
 51
315.0000000000002274
  0
CIRCLE
  5
79
100
AcDbEntity
100
AcDbCircle
  8
0
 62
256
370
-1
  6
BYLAYER
 10
66.0
 20
22.0
 30
0.0
 40
0.5
  0
ARC
  5
7A
100
AcDbEntity
  8
0
 62
256
370
-1
  6
BYLAYER
100
AcDbCircle
 10
83.8974612383987051
 20
42.6883251992282027
 30
0.0
 40
1.0
100
AcDbArc
 50
44.9999999999997229
 51
125.2634907832669882
  0
ARC
  5
7B
100
AcDbEntity
  8
0
 62
256
370
-1
  6
BYLAYER
100
AcDbCircle
 10
84.1438446993853688
 20
42.4419417382415389
 30
0.0
 40
1.0
100
AcDbArc
 50
314.9999999999996589
 51
44.9999999999997087
  0
ARC
  5
7C
100
AcDbEntity
  8
0
 62
256
370
-1
  6
BYLAYER
100
AcDbCircle
 10
86.4419417382416526
 20
40.1438446993852551
 30
0.0
 40
1.0
100
AcDbArc
 50
45.0000000000002913
 51
134.9999999999997158
  0
ARC
  5
7D
100
AcDbEntity
  8
0
 62
256
370
-1
  6
BYLAYER
100
AcDbCircle
 10
86.688325199228359
 20
39.8974612383985345
 30
0.0
 40
1.0
100
AcDbArc
 50
324.7365092167327134
 51
45.0000000000002913
  0
ARC
  5
7E
100
AcDbEntity
  8
0
 62
256
370
-1
  6
BYLAYER
100
AcDbCircle
 10
86.6883251992282737
 20
4.1025387616012612
 30
0.0
 40
1.0
100
AcDbArc
 50
315.0
 51
35.2634907832668745
  0
ARC
  5
7F
100
AcDbEntity
  8
0
 62
256
370
-1
  6
BYLAYER
100
AcDbCircle
 10
86.4419417382416526
 20
3.8561553006146299
 30
0.0
 40
1.0
100
AcDbArc
 50
224.9999999999999716
 51
315.0000000000000568
  0
ARC
  5
80
100
AcDbEntity
  8
0
 62
256
370
-1
  6
BYLAYER
100
AcDbCircle
 10
84.1438446993853546
 20
1.5580582617583438
 30
0.0
 40
1.0
100
AcDbArc
 50
315.0000000000002274
 51
45.0
  0
ARC
  5
81
100
AcDbEntity
  8
0
 62
256
370
-1
  6
BYLAYER
100
AcDbCircle
 10
83.8974612383986766
 20
1.3116748007716639
 30
0.0
 40
1.0
100
AcDbArc
 50
234.7365092167329408
 51
315.0000000000001137
  0
ARC
  5
82
100
AcDbEntity
  8
0
 62
256
370
-1
  6
BYLAYER
100
AcDbCircle
 10
48.1025387616014086
 20
1.3116748007716845
 30
0.0
 40
1.0
100
AcDbArc
 50
225.0
 51
305.2634907832670024
  0
ARC
  5
83
100
AcDbEntity
  8
0
 62
256
370
-1
  6
BYLAYER
100
AcDbCircle
 10
47.8561553006147378
 20
1.5580582617583554
 30
0.0
 40
1.0
100
AcDbArc
 50
134.9999999999998863
 51
225.0
  0
ARC
  5
84
100
AcDbEntity
  8
0
 62
256
370
-1
  6
BYLAYER
100
AcDbCircle
 10
45.5580582617584611
 20
3.8561553006146347
 30
0.0
 40
1.0
100
AcDbArc
 50
225.0000000000000284
 51
315.0000000000000568
  0
ARC
  5
85
100
AcDbEntity
  8
0
 62
256
370
-1
  6
BYLAYER
100
AcDbCircle
 10
45.311674800771776
 20
4.1025387616013198
 30
0.0
 40
1.0
100
AcDbArc
 50
144.7365092167329124
 51
225.0000000000000853
  0
LINE
  5
86
100
AcDbEntity
100
AcDbLine
  8
0
 62
256
370
-1
  6
BYLAYER
 10
48.6445793616377316
 20
5.5284628381209302
 30
0.0
 11
46.2651650429450143
 21
3.1490485194281987
 31
0.0
  0
ARC
  5
87
100
AcDbEntity
  8
0
 62
256
370
-1
  6
BYLAYER
100
AcDbCircle
 10
45.3116748007717973
 20
39.8974612383985914
 30
0.0
 40
1.0
100
AcDbArc
 50
134.9999999999997158
 51
215.2634907832668603
  0
LINE
  5
88
100
AcDbEntity
100
AcDbLine
  8
0
 62
256
370
-1
  6
BYLAYER
 10
47.1490485194282059
 20
2.2651650429450108
 30
0.0
 11
49.5284628381209302
 21
4.6445793616377387
 31
0.0
  0
ARC
  5
89
100
AcDbEntity
  8
0
 62
256
370
-1
  6
BYLAYER
100
AcDbCircle
 10
45.5580582617584611
 20
40.1438446993852551
 30
0.0
 40
1.0
100
AcDbArc
 50
44.9999999999998437
 51
134.9999999999996305
  0
ARC
  5
8A
100
AcDbEntity
  8
0
 62
256
370
-1
  6
BYLAYER
100
AcDbCircle
 10
49.0794500320674629
 20
5.0935921676911988
 30
0.0
 40
0.635
100
AcDbArc
 50
314.9999999999998295
 51
44.9999999999998437
  0
ARC
  5
8B
100
AcDbEntity
  8
0
 62
256
370
-1
  6
BYLAYER
100
AcDbCircle
 10
47.8561553006147449
 20
42.441941738241546
 30
0.0
 40
1.0
100
AcDbArc
 50
134.9999999999999716
 51
225.0000000000000284
  0
ARC
  5
8C
100
AcDbEntity
  8
0
 62
256
370
-1
  6
BYLAYER
100
AcDbCircle
 10
49.0935921676911846
 20
5.0794500320674771
 30
0.0
 40
0.635
100
AcDbArc
 50
44.9999999999999503
 51
135.0000000000002274
  0
ARC
  5
8D
100
AcDbEntity
  8
0
 62
256
370
-1
  6
BYLAYER
100
AcDbCircle
 10
48.1025387616014228
 20
42.688325199228224
 30
0.0
 40
1.0
100
AcDbArc
 50
54.7365092167328555
 51
134.9999999999999716
  0
LINE
  5
8E
100
AcDbEntity
100
AcDbLine
  8
0
 62
256
370
-1
  6
BYLAYER
 10
82.4715371618790698
 20
4.6445793616377316
 30
0.0
 11
84.8509514805718084
 21
2.2651650429450179
 31
0.0
  0
LINE
  5
8F
100
AcDbEntity
100
AcDbLine
  8
0
 62
256
370
-1
  6
BYLAYER
 10
85.7348349570549857
 20
3.1490485194282023
 30
0.0
 11
83.3554206383622613
 21
5.5284628381209266
 31
0.0
  0
ARC
  5
90
100
AcDbEntity
  8
0
 62
256
370
-1
  6
BYLAYER
100
AcDbCircle
 10
82.906407832308787
 20
5.0794500320674558
 30
0.0
 40
0.635
100
AcDbArc
 50
44.9999999999998437
 51
134.9999999999998295
  0
ARC
  5
91
100
AcDbEntity
  8
0
 62
256
370
-1
  6
BYLAYER
100
AcDbCircle
 10
82.9205499679325158
 20
5.0935921676911846
 30
0.0
 40
0.635
100
AcDbArc
 50
134.9999999999999432
 51
225.0000000000002274
  0
LINE
  5
92
100
AcDbEntity
100
AcDbLine
  8
0
 62
256
370
-1
  6
BYLAYER
 10
83.3554206383622613
 20
38.4715371618790698
 30
0.0
 11
85.7348349570549857
 21
40.8509514805718084
 31
0.0
  0
LINE
  5
93
100
AcDbEntity
100
AcDbLine
  8
0
 62
256
370
-1
  6
BYLAYER
 10
84.8509514805718084
 20
41.7348349570549857
 30
0.0
 11
82.4715371618790698
 21
39.3554206383622542
 31
0.0
  0
ARC
  5
94
100
AcDbEntity
  8
0
 62
256
370
-1
  6
BYLAYER
100
AcDbCircle
 10
82.9205499679325442
 20
38.906407832308787
 30
0.0
 40
0.635
100
AcDbArc
 50
134.9999999999998295
 51
224.9999999999998295
  0
ARC
  5
95
100
AcDbEntity
  8
0
 62
256
370
-1
  6
BYLAYER
100
AcDbCircle
 10
82.9064078323088154
 20
38.9205499679325229
 30
0.0
 40
0.635
100
AcDbArc
 50
224.9999999999999716
 51
315.0000000000002274
  0
LINE
  5
96
100
AcDbEntity
100
AcDbLine
  8
0
 62
256
370
-1
  6
BYLAYER
 10
49.542604973744659
 20
38.4715371618790698
 30
0.0
 11
49.5284628381209302
 21
38.4573950262553481
 31
0.0
  0
LINE
  5
97
100
AcDbEntity
100
AcDbLine
  8
0
 62
256
370
-1
  6
BYLAYER
 10
49.5284628381209302
 20
39.3554206383622613
 30
0.0
 11
47.1490485194281987
 21
41.7348349570549928
 31
0.0
  0
LINE
  5
98
100
AcDbEntity
100
AcDbLine
  8
0
 62
256
370
-1
  6
BYLAYER
 10
46.2651650429450143
 20
40.8509514805718013
 30
0.0
 11
48.6445793616377387
 21
38.4715371618790698
 31
0.0
  0
LINE
  5
99
100
AcDbEntity
100
AcDbLine
  8
0
 62
256
370
-1
  6
BYLAYER
 10
87.1490485194281916
 20
40.8509514805718013
 30
0.0
 11
87.3954319804149122
 21
40.6045680195850878
 31
0.0
  0
LINE
  5
9A
100
AcDbEntity
100
AcDbLine
  8
0
 62
256
370
-1
  6
BYLAYER
 10
88.0000000000000568
 20
39.9999999999999432
 30
0.0
 11
88.0000000000000568
 21
39.9999999999999432
 31
0.0
  0
LINE
  5
9B
100
AcDbEntity
100
AcDbLine
  8
0
 62
256
370
-1
  6
BYLAYER
 10
84.850951480571922
 20
43.149048519428078
 30
0.0
 11
84.6045680195852583
 21
43.3954319804147488
 31
0.0
  0
LINE
  5
9C
100
AcDbEntity
100
AcDbLine
  8
0
 62
256
370
-1
  6
BYLAYER
 10
84.0000000000000568
 20
43.9999999999999432
 30
0.0
 11
84.0000000000000568
 21
43.9999999999999432
 31
0.0
  0
LINE
  5
9D
100
AcDbEntity
100
AcDbLine
  8
0
 62
256
370
-1
  6
BYLAYER
 10
47.1490485194282059
 20
43.1490485194280922
 30
0.0
 11
47.3954319804148838
 21
43.3954319804147701
 31
0.0
  0
LINE
  5
9E
100
AcDbEntity
100
AcDbLine
  8
0
 62
256
370
-1
  6
BYLAYER
 10
44.850951480571922
 20
40.8509514805718084
 30
0.0
 11
44.6045680195852583
 21
40.6045680195851446
 31
0.0
  0
LINE
  5
9F
100
AcDbEntity
100
AcDbLine
  8
0
 62
256
370
-1
  6
BYLAYER
 10
44.8509514805719149
 20
3.1490485194280868
 30
0.0
 11
44.6045680195852299
 21
3.3954319804147715
 31
0.0
  0
LINE
  5
A0
100
AcDbEntity
100
AcDbLine
  8
0
 62
256
370
-1
  6
BYLAYER
 10
47.1490485194281916
 20
0.8509514805718074
 30
0.0
 11
47.3954319804148625
 21
0.6045680195851367
 31
0.0
  0
LINE
  5
A1
100
AcDbEntity
100
AcDbLine
  8
0
 62
256
370
-1
  6
BYLAYER
 10
84.8509514805719078
 20
0.8509514805717973
 30
0.0
 11
84.6045680195852299
 21
0.6045680195851189
 31
0.0
  0
LINE
  5
A2
100
AcDbEntity
100
AcDbLine
  8
0
 62
256
370
-1
  6
BYLAYER
 10
87.1490485194281916
 20
3.1490485194280868
 30
0.0
 11
87.395431980414827
 21
3.3954319804147159
 31
0.0
  0
ARC
  5
A3
100
AcDbEntity
  8
0
 62
256
370
-1
  6
BYLAYER
100
AcDbCircle
 10
49.0935921676911988
 20
38.92054996793253
 30
0.0
 40
0.635
100
AcDbArc
 50
224.9999999999998863
 51
314.9999999999998295
  0
ARC
  5
A4
100
AcDbEntity
  8
0
 62
256
370
-1
  6
BYLAYER
100
AcDbCircle
 10
111.9999999999999574
 20
21.9999999999998295
 30
0.0
 40
29.9999999999999893
100
AcDbArc
 50
144.7365092167328271
 51
215.2634907832668603
  0
ARC
  5
A5
100
AcDbEntity
  8
0
 62
256
370
-1
  6
BYLAYER
100
AcDbCircle
 10
49.07945003206747
 20
38.9064078323088083
 30
0.0
 40
0.635
100
AcDbArc
 50
314.9999999999999432
 51
45.0000000000002274
  0
ARC
  5
A6
100
AcDbEntity
  8
0
 62
256
370
-1
  6
BYLAYER
100
AcDbCircle
 10
66.0000000000000711
 20
67.9999999999998437
 30
0.0
 40
29.9999999999999893
100
AcDbArc
 50
234.7365092167329408
 51
305.2634907832670592
  0
ARC
  5
A7
100
AcDbEntity
  8
0
 62
256
370
-1
  6
BYLAYER
100
AcDbCircle
 10
20.0000000000001563
 20
21.9999999999999645
 30
0.0
 40
29.9999999999999893
100
AcDbArc
 50
324.7365092167329408
 51
35.2634907832670237
  0
ARC
  5
A8
100
AcDbEntity
  8
0
 62
256
370
-1
  6
BYLAYER
100
AcDbCircle
 10
66.0000000000000284
 20
-23.9999999999999574
 30
0.0
 40
29.9999999999999893
100
AcDbArc
 50
54.7365092167329124
 51
125.263490783267045
  0
LINE
  5
A9
100
AcDbEntity
100
AcDbLine
  8
0
 62
256
370
-1
  6
BYLAYER
 10
61.1490485194281916
 20
-98.8509514805719078
 30
0.0
 11
61.395431980414827
 21
-98.6045680195852867
 31
0.0
  0
ARC
  5
AA
100
AcDbEntity
  8
0
 62
256
370
-1
  6
BYLAYER
100
AcDbCircle
 10
23.0935921676911988
 20
-63.07945003206747
 30
0.0
 40
0.635
100
AcDbArc
 50
224.9999999999998863
 51
314.9999999999998295
  0
ARC
  5
AB
100
AcDbEntity
  8
0
 62
256
370
-1
  6
BYLAYER
100
AcDbCircle
 10
85.9999999999999574
 20
-80.0000000000001705
 30
0.0
 40
29.9999999999999893
100
AcDbArc
 50
144.7365092167328271
 51
215.2634907832668603
  0
ARC
  5
AC
100
AcDbEntity
  8
0
 62
256
370
-1
  6
BYLAYER
100
AcDbCircle
 10
23.07945003206747
 20
-63.0935921676911988
 30
0.0
 40
0.635
100
AcDbArc
 50
314.9999999999999432
 51
45.0000000000002274
  0
ARC
  5
AD
100
AcDbEntity
  8
0
 62
256
370
-1
  6
BYLAYER
100
AcDbCircle
 10
40.0000000000000711
 20
-34.0000000000001563
 30
0.0
 40
29.9999999999999893
100
AcDbArc
 50
234.7365092167329408
 51
305.2634907832670592
  0
ARC
  5
AE
100
AcDbEntity
  8
0
 62
256
370
-1
  6
BYLAYER
100
AcDbCircle
 10
-5.9999999999998437
 20
-80.0000000000000426
 30
0.0
 40
29.9999999999999893
100
AcDbArc
 50
324.7365092167329408
 51
35.2634907832670237
  0
ARC
  5
AF
100
AcDbEntity
  8
0
 62
256
370
-1
  6
BYLAYER
100
AcDbCircle
 10
40.0000000000000284
 20
-125.9999999999999574
 30
0.0
 40
29.9999999999999893
100
AcDbArc
 50
54.7365092167329124
 51
125.263490783267045
  0
CIRCLE
  5
B0
100
AcDbEntity
100
AcDbCircle
  8
0
 62
256
370
-1
  6
BYLAYER
 10
40.0
 20
-80.0
 30
0.0
 40
0.5
  0
ARC
  5
B1
100
AcDbEntity
  8
0
 62
256
370
-1
  6
BYLAYER
100
AcDbCircle
 10
57.8974612383987051
 20
-59.3116748007717973
 30
0.0
 40
1.0
100
AcDbArc
 50
44.9999999999997229
 51
125.2634907832669882
  0
ARC
  5
B2
100
AcDbEntity
  8
0
 62
256
370
-1
  6
BYLAYER
100
AcDbCircle
 10
58.1438446993853688
 20
-59.5580582617584611
 30
0.0
 40
1.0
100
AcDbArc
 50
314.9999999999996589
 51
44.9999999999997087
  0
ARC
  5
B3
100
AcDbEntity
  8
0
 62
256
370
-1
  6
BYLAYER
100
AcDbCircle
 10
60.4419417382416526
 20
-61.8561553006147449
 30
0.0
 40
1.0
100
AcDbArc
 50
45.0000000000002913
 51
134.9999999999997158
  0
ARC
  5
B4
100
AcDbEntity
  8
0
 62
256
370
-1
  6
BYLAYER
100
AcDbCircle
 10
60.688325199228359
 20
-62.1025387616014655
 30
0.0
 40
1.0
100
AcDbArc
 50
324.7365092167327134
 51
45.0000000000002913
  0
ARC
  5
B5
100
AcDbEntity
  8
0
 62
256
370
-1
  6
BYLAYER
100
AcDbCircle
 10
60.6883251992282737
 20
-97.8974612383987335
 30
0.0
 40
1.0
100
AcDbArc
 50
315.0
 51
35.2634907832668745
  0
ARC
  5
B6
100
AcDbEntity
  8
0
 62
256
370
-1
  6
BYLAYER
100
AcDbCircle
 10
60.4419417382416526
 20
-98.1438446993853688
 30
0.0
 40
1.0
100
AcDbArc
 50
224.9999999999999716
 51
315.0000000000000568
  0
ARC
  5
B7
100
AcDbEntity
  8
0
 62
256
370
-1
  6
BYLAYER
100
AcDbCircle
 10
58.1438446993853546
 20
-100.4419417382416526
 30
0.0
 40
1.0
100
AcDbArc
 50
315.0000000000002274
 51
45.0
  0
ARC
  5
B8
100
AcDbEntity
  8
0
 62
256
370
-1
  6
BYLAYER
100
AcDbCircle
 10
57.8974612383986766
 20
-100.6883251992283306
 30
0.0
 40
1.0
100
AcDbArc
 50
234.7365092167329408
 51
315.0000000000001137
  0
ARC
  5
B9
100
AcDbEntity
  8
0
 62
256
370
-1
  6
BYLAYER
100
AcDbCircle
 10
22.1025387616014086
 20
-100.6883251992283164
 30
0.0
 40
1.0
100
AcDbArc
 50
225.0
 51
305.2634907832670024
  0
ARC
  5
BA
100
AcDbEntity
  8
0
 62
256
370
-1
  6
BYLAYER
100
AcDbCircle
 10
21.8561553006147378
 20
-100.4419417382416384
 30
0.0
 40
1.0
100
AcDbArc
 50
134.9999999999998863
 51
225.0
  0
ARC
  5
BB
100
AcDbEntity
  8
0
 62
256
370
-1
  6
BYLAYER
100
AcDbCircle
 10
19.5580582617584611
 20
-98.1438446993853688
 30
0.0
 40
1.0
100
AcDbArc
 50
225.0000000000000284
 51
315.0000000000000568
  0
ARC
  5
BC
100
AcDbEntity
  8
0
 62
256
370
-1
  6
BYLAYER
100
AcDbCircle
 10
19.311674800771776
 20
-97.8974612383986766
 30
0.0
 40
1.0
100
AcDbArc
 50
144.7365092167329124
 51
225.0000000000000853
  0
LINE
  5
BD
100
AcDbEntity
100
AcDbLine
  8
0
 62
256
370
-1
  6
BYLAYER
 10
22.6445793616377316
 20
-96.4715371618790698
 30
0.0
 11
20.2651650429450143
 21
-98.8509514805717941
 31
0.0
  0
ARC
  5
BE
100
AcDbEntity
  8
0
 62
256
370
-1
  6
BYLAYER
100
AcDbCircle
 10
19.3116748007717973
 20
-62.1025387616014086
 30
0.0
 40
1.0
100
AcDbArc
 50
134.9999999999997158
 51
215.2634907832668603
  0
LINE
  5
BF
100
AcDbEntity
100
AcDbLine
  8
0
 62
256
370
-1
  6
BYLAYER
 10
21.1490485194282059
 20
-99.7348349570549857
 30
0.0
 11
23.5284628381209302
 21
-97.3554206383622613
 31
0.0
  0
ARC
  5
C0
100
AcDbEntity
  8
0
 62
256
370
-1
  6
BYLAYER
100
AcDbCircle
 10
19.5580582617584611
 20
-61.8561553006147449
 30
0.0
 40
1.0
100
AcDbArc
 50
44.9999999999998437
 51
134.9999999999996305
  0
ARC
  5
C1
100
AcDbEntity
  8
0
 62
256
370
-1
  6
BYLAYER
100
AcDbCircle
 10
23.0794500320674629
 20
-96.9064078323088012
 30
0.0
 40
0.635
100
AcDbArc
 50
314.9999999999998295
 51
44.9999999999998437
  0
ARC
  5
C2
100
AcDbEntity
  8
0
 62
256
370
-1
  6
BYLAYER
100
AcDbCircle
 10
21.8561553006147449
 20
-59.558058261758454
 30
0.0
 40
1.0
100
AcDbArc
 50
134.9999999999999716
 51
225.0000000000000284
  0
ARC
  5
C3
100
AcDbEntity
  8
0
 62
256
370
-1
  6
BYLAYER
100
AcDbCircle
 10
23.0935921676911846
 20
-96.92054996793253
 30
0.0
 40
0.635
100
AcDbArc
 50
44.9999999999999503
 51
135.0000000000002274
  0
ARC
  5
C4
100
AcDbEntity
  8
0
 62
256
370
-1
  6
BYLAYER
100
AcDbCircle
 10
22.1025387616014228
 20
-59.311674800771776
 30
0.0
 40
1.0
100
AcDbArc
 50
54.7365092167328555
 51
134.9999999999999716
  0
LINE
  5
C5
100
AcDbEntity
100
AcDbLine
  8
0
 62
256
370
-1
  6
BYLAYER
 10
56.4715371618790698
 20
-97.3554206383622756
 30
0.0
 11
58.8509514805718084
 21
-99.7348349570549857
 31
0.0
  0
LINE
  5
C6
100
AcDbEntity
100
AcDbLine
  8
0
 62
256
370
-1
  6
BYLAYER
 10
59.7348349570549857
 20
-98.8509514805717941
 30
0.0
 11
57.3554206383622613
 21
-96.4715371618790698
 31
0.0
  0
ARC
  5
C7
100
AcDbEntity
  8
0
 62
256
370
-1
  6
BYLAYER
100
AcDbCircle
 10
56.906407832308787
 20
-96.9205499679325442
 30
0.0
 40
0.635
100
AcDbArc
 50
44.9999999999998437
 51
134.9999999999998295
  0
ARC
  5
C8
100
AcDbEntity
  8
0
 62
256
370
-1
  6
BYLAYER
100
AcDbCircle
 10
56.9205499679325158
 20
-96.9064078323088154
 30
0.0
 40
0.635
100
AcDbArc
 50
134.9999999999999432
 51
225.0000000000002274
  0
LINE
  5
C9
100
AcDbEntity
100
AcDbLine
  8
0
 62
256
370
-1
  6
BYLAYER
 10
57.3554206383622613
 20
-63.5284628381209302
 30
0.0
 11
59.7348349570549857
 21
-61.1490485194281916
 31
0.0
  0
LINE
  5
CA
100
AcDbEntity
100
AcDbLine
  8
0
 62
256
370
-1
  6
BYLAYER
 10
58.8509514805718084
 20
-60.2651650429450143
 30
0.0
 11
56.4715371618790698
 21
-62.6445793616377529
 31
0.0
  0
ARC
  5
CB
100
AcDbEntity
  8
0
 62
256
370
-1
  6
BYLAYER
100
AcDbCircle
 10
56.9205499679325442
 20
-63.093592167691213
 30
0.0
 40
0.635
100
AcDbArc
 50
134.9999999999998295
 51
224.9999999999998295
  0
ARC
  5
CC
100
AcDbEntity
  8
0
 62
256
370
-1
  6
BYLAYER
100
AcDbCircle
 10
56.9064078323088154
 20
-63.07945003206747
 30
0.0
 40
0.635
100
AcDbArc
 50
224.9999999999999716
 51
315.0000000000002274
  0
LINE
  5
CD
100
AcDbEntity
100
AcDbLine
  8
0
 62
256
370
-1
  6
BYLAYER
 10
23.542604973744659
 20
-63.5284628381209302
 30
0.0
 11
23.5284628381209302
 21
-63.5426049737446448
 31
0.0
  0
LINE
  5
CE
100
AcDbEntity
100
AcDbLine
  8
0
 62
256
370
-1
  6
BYLAYER
 10
23.5284628381209302
 20
-62.6445793616377387
 30
0.0
 11
21.1490485194281987
 21
-60.2651650429450072
 31
0.0
  0
LINE
  5
CF
100
AcDbEntity
100
AcDbLine
  8
0
 62
256
370
-1
  6
BYLAYER
 10
20.2651650429450143
 20
-61.1490485194281987
 30
0.0
 11
22.6445793616377387
 21
-63.5284628381209302
 31
0.0
  0
LINE
  5
D0
100
AcDbEntity
100
AcDbLine
  8
0
 62
256
370
-1
  6
BYLAYER
 10
61.1490485194281916
 20
-61.1490485194281987
 30
0.0
 11
61.3954319804149122
 21
-61.3954319804149122
 31
0.0
  0
LINE
  5
D1
100
AcDbEntity
100
AcDbLine
  8
0
 62
256
370
-1
  6
BYLAYER
 10
62.0000000000000568
 20
-62.0000000000000568
 30
0.0
 11
62.0000000000000568
 21
-62.0000000000000568
 31
0.0
  0
LINE
  5
D2
100
AcDbEntity
100
AcDbLine
  8
0
 62
256
370
-1
  6
BYLAYER
 10
58.850951480571922
 20
-58.850951480571922
 30
0.0
 11
58.6045680195852583
 21
-58.6045680195852512
 31
0.0
  0
LINE
  5
D3
100
AcDbEntity
100
AcDbLine
  8
0
 62
256
370
-1
  6
BYLAYER
 10
58.0000000000000568
 20
-58.0000000000000568
 30
0.0
 11
58.0000000000000568
 21
-58.0000000000000568
 31
0.0
  0
LINE
  5
D4
100
AcDbEntity
100
AcDbLine
  8
0
 62
256
370
-1
  6
BYLAYER
 10
21.1490485194282059
 20
-58.8509514805719078
 30
0.0
 11
21.3954319804148838
 21
-58.6045680195852299
 31
0.0
  0
LINE
  5
D5
100
AcDbEntity
100
AcDbLine
  8
0
 62
256
370
-1
  6
BYLAYER
 10
18.850951480571922
 20
-61.1490485194281916
 30
0.0
 11
18.6045680195852583
 21
-61.3954319804148554
 31
0.0
  0
LINE
  5
D6
100
AcDbEntity
100
AcDbLine
  8
0
 62
256
370
-1
  6
BYLAYER
 10
18.8509514805719149
 20
-98.8509514805719078
 30
0.0
 11
18.6045680195852299
 21
-98.6045680195852299
 31
0.0
  0
LINE
  5
D7
100
AcDbEntity
100
AcDbLine
  8
0
 62
256
370
-1
  6
BYLAYER
 10
21.1490485194281916
 20
-101.1490485194281916
 30
0.0
 11
21.3954319804148625
 21
-101.3954319804148696
 31
0.0
  0
LINE
  5
D8
100
AcDbEntity
100
AcDbLine
  8
0
 62
256
370
-1
  6
BYLAYER
 10
58.8509514805719078
 20
-101.1490485194282059
 30
0.0
 11
58.6045680195852299
 21
-101.3954319804148838
 31
0.0
  0
DIMENSION
  5
D9
100
AcDbEntity
  8
0
 62
256
370
-1
  6
BYLAYER
100
AcDbDimension
 10
50.0
 20
-90.0
 30
0.0
 11
68.6741747852752269
 21
-68.6741747852752269
 31
0.0
 70
1
 71
8
 72
2
 41
1.0
 42
0.0
  1

  3
Standard
100
AcDbAlignedDimension
 13
40.0
 23
-80.0
 33
0.0
 14
80.0
 24
-40.0
 34
0.0
1001
ACAD
1000
DSTYLE
1002
{
1070
144
1040
1
1002
}
  0
CIRCLE
  5
DA
100
AcDbEntity
100
AcDbCircle
  8
0
 62
256
370
-1
  6
BYLAYER
 10
79.9999999999997868
 20
-39.9999999999997797
 30
0.0
 40
4.25
  0
LINE
  5
DB
100
AcDbEntity
100
AcDbLine
  8
0
 62
256
370
-1
  6
BYLAYER
 10
71.5288607613849479
 20
-49.3691648507215319
 30
0.0
 11
74.1663690552107653
 21
-46.7316565568957145
 31
0.0
  0
LINE
  5
DC
100
AcDbEntity
100
AcDbLine
  8
0
 62
256
370
-1
  6
BYLAYER
 10
74.1663690552107653
 20
-45.8336309447887942
 30
0.0
 11
74.1663690552107653
 21
-45.8336309447887871
 31
0.0
  0
LINE
  5
DD
100
AcDbEntity
100
AcDbLine
  8
0
 62
256
370
-1
  6
BYLAYER
 10
73.2683434431038592
 20
-45.8336309447887871
 30
0.0
 11
70.6308351492780275
 21
-48.4711392386146187
 31
0.0
  0
ARC
  5
DE
100
AcDbEntity
  8
0
 62
256
370
-1
  6
BYLAYER
100
AcDbCircle
 10
79.9999999999997868
 20
-39.9999999999997797
 30
0.0
 40
7.0
100
AcDbArc
 50
268.9548186128532734
 51
181.045181387146755
  0
LINE
  5
DF
100
AcDbEntity
100
AcDbLine
  8
0
 62
256
370
-1
  6
BYLAYER
 10
68.5095148057183962
 20
-47.2478445071618935
 30
0.0
 11
69.7328095371711214
 21
-48.4711392386146187
 31
0.0
  0
LINE
  5
E0
100
AcDbEntity
100
AcDbLine
  8
0
 62
256
370
-1
  6
BYLAYER
 10
71.5288607613849479
 20
-50.2671904628284523
 30
0.0
 11
72.7521554928376872
 21
-51.4904851942811916
 31
0.0
  0
LINE
  5
E1
100
AcDbEntity
100
AcDbLine
  8
0
 62
256
370
-1
  6
BYLAYER
 10
68.509514805718382
 20
-46.3498188950549732
 30
0.0
 11
71.8302572832983799
 21
-43.0290764174749754
 31
0.0
  0
LINE
  5
E2
100
AcDbEntity
100
AcDbLine
  8
0
 62
256
370
-1
  6
BYLAYER
 10
73.6501811049445934
 20
-51.4904851942811845
 30
0.0
 11
76.9709235825245912
 21
-48.1697427167011796
 31
0.0
  0
ARC
  5
E3
100
AcDbEntity
  8
0
 62
256
370
-1
  6
BYLAYER
100
AcDbCircle
 10
69.0018301585521954
 20
-40.2006492927287837
 30
0.0
 40
4.0
100
AcDbArc
 50
315.0
 51
1.0451813871467674
  0
ARC
  5
E4
100
AcDbEntity
  8
0
 62
256
370
-1
  6
BYLAYER
100
AcDbCircle
 10
79.7993507072707757
 20
-50.9981698414473712
 30
0.0
 40
4.0
100
AcDbArc
 50
88.9548186128532592
 51
135.0
  0
ARC
  5
E5
100
AcDbEntity
  8
0
 62
256
370
-1
  6
BYLAYER
100
AcDbCircle
 10
73.7173562491573051
 20
-46.282643750842233
 30
0.0
 40
0.635
100
AcDbArc
 50
45.0
 51
135.0
  0
ARC
  5
E6
100
AcDbEntity
  8
0
 62
256
370
-1
  6
BYLAYER
100
AcDbCircle
 10
73.7173562491573193
 20
-46.2826437508422543
 30
0.0
 40
0.635
100
AcDbArc
 50
315.0
 51
45.0
  0
ARC
  5
E7
100
AcDbEntity
  8
0
 62
256
370
-1
  6
BYLAYER
100
AcDbCircle
 10
68.9585276117718422
 20
-46.7988317011084334
 30
0.0
 40
0.635
100
AcDbArc
 50
135.0
 51
225.0
  0
ARC
  5
E8
100
AcDbEntity
  8
0
 62
256
370
-1
  6
BYLAYER
100
AcDbCircle
 10
70.1818223432245816
 20
-48.0221264325611656
 30
0.0
 40
0.635
100
AcDbArc
 50
225.0
 51
315.0
  0
ARC
  5
E9
100
AcDbEntity
  8
0
 62
256
370
-1
  6
BYLAYER
100
AcDbCircle
 10
71.977873567438408
 20
-49.8181776567749992
 30
0.0
 40
0.635
100
AcDbArc
 50
135.0
 51
225.0
  0
ARC
  5
EA
100
AcDbEntity
  8
0
 62
256
370
-1
  6
BYLAYER
100
AcDbCircle
 10
73.2011682988911332
 20
-51.0414723882277315
 30
0.0
 40
0.635
100
AcDbArc
 50
225.0
 51
315.0
  0
ENDSEC
  0
SECTION
  2
OBJECTS
  0
DICTIONARY
  5
C
100
AcDbDictionary
280
0
281
1
  3
ACAD_GROUP
350
D
  3
ACAD_LAYOUT
350
1A
  3
ACAD_MLINESTYLE
350
17
  3
ACAD_PLOTSETTINGS
350
19
  3
ACAD_PLOTSTYLENAME
350
E
  3
AcDbVariableDictionary
350
EB
  3
QCAD_OBJECTS
350
EC
  0
DICTIONARY
  5
D
100
AcDbDictionary
280
0
281
1
  0
ACDBDICTIONARYWDFLT
  5
E
100
AcDbDictionary
281
1
  3
Normal
350
F
100
AcDbDictionaryWithDefault
340
F
  0
ACDBPLACEHOLDER
  5
F
  0
DICTIONARY
  5
17
100
AcDbDictionary
280
0
281
1
  3
Standard
350
18
  0
MLINESTYLE
  5
18
100
AcDbMlineStyle
  2
STANDARD
 70
0
  3

 62
256
 51
90.0
 52
90.0
 71
2
 49
0.5
 62
256
  6
BYLAYER
 49
-0.5
 62
256
  6
BYLAYER
  0
DICTIONARY
  5
19
100
AcDbDictionary
280
0
281
1
  0
DICTIONARY
  5
1A
100
AcDbDictionary
281
1
  3
Layout1
350
1E
  3
Layout2
350
26
  3
Model
350
22
  0
LAYOUT
  5
1E
100
AcDbPlotSettings
  1

  2
none_device
  4

  6

 40
0.0
 41
0.0
 42
0.0
 43
0.0
 44
0.0
 45
0.0
 46
0.0
 47
0.0
 48
0.0
 49
0.0
140
0.0
141
0.0
142
1.0
143
1.0
 70
688
 72
0
 73
0
 74
5
  7

 75
16
147
1.0
148
0.0
149
0.0
100
AcDbLayout
  1
Layout1
 70
1
 71
1
 10
0.0
 20
0.0
 11
420.0
 21
297.0
 12
0.0
 22
0.0
 32
0.0
 14
100000000000000000000.0
 24
100000000000000000000.0
 34
100000000000000000000.0
 15
-100000000000000000000.0
 25
-100000000000000000000.0
 35
-100000000000000000000.0
146
0.0
 13
0.0
 23
0.0
 33
0.0
 16
1.0
 26
0.0
 36
0.0
 17
0.0
 27
1.0
 37
0.0
 76
0
330
1B
  0
LAYOUT
  5
22
100
AcDbPlotSettings
  1

  2
none_device
  4

  6

 40
0.0
 41
0.0
 42
0.0
 43
0.0
 44
0.0
 45
0.0
 46
0.0
 47
0.0
 48
0.0
 49
0.0
140
0.0
141
0.0
142
1.0
143
1.0
 70
1712
 72
0
 73
0
 74
0
  7

 75
0
147
1.0
148
0.0
149
0.0
100
AcDbLayout
  1
Model
 70
1
 71
0
 10
0.0
 20
0.0
 11
12.0
 21
9.0
 12
0.0
 22
0.0
 32
0.0
 14
0.0
 24
0.0
 34
0.0
 15
0.0
 25
0.0
 35
0.0
146
0.0
 13
0.0
 23
0.0
 33
0.0
 16
1.0
 26
0.0
 36
0.0
 17
0.0
 27
1.0
 37
0.0
 76
0
330
1F
  0
LAYOUT
  5
26
100
AcDbPlotSettings
  1

  2
none_device
  4

  6

 40
0.0
 41
0.0
 42
0.0
 43
0.0
 44
0.0
 45
0.0
 46
0.0
 47
0.0
 48
0.0
 49
0.0
140
0.0
141
0.0
142
1.0
143
1.0
 70
688
 72
0
 73
0
 74
5
  7

 75
16
147
1.0
148
0.0
149
0.0
100
AcDbLayout
  1
Layout2
 70
1
 71
2
 10
0.0
 20
0.0
 11
12.0
 21
9.0
 12
0.0
 22
0.0
 32
0.0
 14
0.0
 24
0.0
 34
0.0
 15
0.0
 25
0.0
 35
0.0
146
0.0
 13
0.0
 23
0.0
 33
0.0
 16
1.0
 26
0.0
 36
0.0
 17
0.0
 27
1.0
 37
0.0
 76
0
330
23
  0
DICTIONARY
  5
EB
100
AcDbDictionary
281
1
  3
DIMASSOC
350
EE
  3
HIDETEXT
350
ED
  0
DICTIONARYVAR
  5
ED
100
DictionaryVariables
280
0
  1
2
  0
DICTIONARYVAR
  5
EE
100
DictionaryVariables
280
0
  1
1
  0
DICTIONARY
  5
EC
100
AcDbDictionary
281
1
  3
Grid/DisplayGrid00
350
EF
  3
Grid/DisplayGrid01
350
F0
  3
Grid/DisplayGrid02
350
F1
  3
Grid/DisplayGrid03
350
F2
  3
Grid/GridSpacingX00
350
F3
  3
Grid/GridSpacingX01
350
F4
  3
Grid/GridSpacingX02
350
F5
  3
Grid/GridSpacingX03
350
F6
  3
Grid/GridSpacingY00
350
F7
  3
Grid/GridSpacingY01
350
F8
  3
Grid/GridSpacingY02
350
F9
  3
Grid/GridSpacingY03
350
FA
  3
Grid/IsometricGrid00
350
FB
  3
Grid/IsometricGrid01
350
FC
  3
Grid/IsometricGrid02
350
FD
  3
Grid/IsometricGrid03
350
FE
  3
Grid/IsometricProjection00
350
FF
  3
Grid/IsometricProjection01
350
100
  3
Grid/IsometricProjection02
350
101
  3
Grid/IsometricProjection03
350
102
  3
Grid/MetaGridSpacingX00
350
103
  3
Grid/MetaGridSpacingX01
350
104
  3
Grid/MetaGridSpacingX02
350
105
  3
Grid/MetaGridSpacingX03
350
106
  3
Grid/MetaGridSpacingY00
350
107
  3
Grid/MetaGridSpacingY01
350
108
  3
Grid/MetaGridSpacingY02
350
109
  3
Grid/MetaGridSpacingY03
350
10A
  3
MultiPageSettings/Columns
350
10B
  3
MultiPageSettings/GlueMarginsBottom
350
10C
  3
MultiPageSettings/GlueMarginsLeft
350
10D
  3
MultiPageSettings/GlueMarginsRight
350
10E
  3
MultiPageSettings/GlueMarginsTop
350
10F
  3
MultiPageSettings/PrintCropMarks
350
110
  3
MultiPageSettings/Rows
350
111
  3
PageSettings/OffsetX
350
112
  3
PageSettings/OffsetY
350
113
  3
PageSettings/PageOrientation
350
114
  3
PageSettings/PaperHeight
350
115
  3
PageSettings/PaperWidth
350
116
  3
PageSettings/Scale
350
117
  3
PageSettings/ShowPaperBorders
350
118
  3
UnitSettings/PaperUnit
350
119
  0
XRECORD
  5
EF
330
EC
100
AcDbXrecord
280
1
290
1
  0
XRECORD
  5
F0
330
EC
100
AcDbXrecord
280
1
290
1
  0
XRECORD
  5
F1
330
EC
100
AcDbXrecord
280
1
290
1
  0
XRECORD
  5
F2
330
EC
100
AcDbXrecord
280
1
290
1
  0
XRECORD
  5
F3
330
EC
100
AcDbXrecord
280
1
1000
auto
  0
XRECORD
  5
F4
330
EC
100
AcDbXrecord
280
1
1000
auto
  0
XRECORD
  5
F5
330
EC
100
AcDbXrecord
280
1
1000
auto
  0
XRECORD
  5
F6
330
EC
100
AcDbXrecord
280
1
1000
auto
  0
XRECORD
  5
F7
330
EC
100
AcDbXrecord
280
1
1000
auto
  0
XRECORD
  5
F8
330
EC
100
AcDbXrecord
280
1
1000
auto
  0
XRECORD
  5
F9
330
EC
100
AcDbXrecord
280
1
1000
auto
  0
XRECORD
  5
FA
330
EC
100
AcDbXrecord
280
1
1000
auto
  0
XRECORD
  5
FB
330
EC
100
AcDbXrecord
280
1
290
0
  0
XRECORD
  5
FC
330
EC
100
AcDbXrecord
280
1
290
0
  0
XRECORD
  5
FD
330
EC
100
AcDbXrecord
280
1
290
0
  0
XRECORD
  5
FE
330
EC
100
AcDbXrecord
280
1
290
0
  0
XRECORD
  5
FF
330
EC
100
AcDbXrecord
280
1
 90
0
  0
XRECORD
  5
100
330
EC
100
AcDbXrecord
280
1
 90
0
  0
XRECORD
  5
101
330
EC
100
AcDbXrecord
280
1
 90
0
  0
XRECORD
  5
102
330
EC
100
AcDbXrecord
280
1
 90
0
  0
XRECORD
  5
103
330
EC
100
AcDbXrecord
280
1
1000
auto
  0
XRECORD
  5
104
330
EC
100
AcDbXrecord
280
1
1000
auto
  0
XRECORD
  5
105
330
EC
100
AcDbXrecord
280
1
1000
auto
  0
XRECORD
  5
106
330
EC
100
AcDbXrecord
280
1
1000
auto
  0
XRECORD
  5
107
330
EC
100
AcDbXrecord
280
1
1000
auto
  0
XRECORD
  5
108
330
EC
100
AcDbXrecord
280
1
1000
auto
  0
XRECORD
  5
109
330
EC
100
AcDbXrecord
280
1
1000
auto
  0
XRECORD
  5
10A
330
EC
100
AcDbXrecord
280
1
1000
auto
  0
XRECORD
  5
10B
330
EC
100
AcDbXrecord
280
1
 90
1
  0
XRECORD
  5
10C
330
EC
100
AcDbXrecord
280
1
 40
10.0
  0
XRECORD
  5
10D
330
EC
100
AcDbXrecord
280
1
 40
10.0
  0
XRECORD
  5
10E
330
EC
100
AcDbXrecord
280
1
 40
10.0
  0
XRECORD
  5
10F
330
EC
100
AcDbXrecord
280
1
 40
10.0
  0
XRECORD
  5
110
330
EC
100
AcDbXrecord
280
1
290
0
  0
XRECORD
  5
111
330
EC
100
AcDbXrecord
280
1
 90
1
  0
XRECORD
  5
112
330
EC
100
AcDbXrecord
280
1
 40
0.0
  0
XRECORD
  5
113
330
EC
100
AcDbXrecord
280
1
 40
0.0
  0
XRECORD
  5
114
330
EC
100
AcDbXrecord
280
1
1000
Portrait
  0
XRECORD
  5
115
330
EC
100
AcDbXrecord
280
1
 40
279.3999999999999773
  0
XRECORD
  5
116
330
EC
100
AcDbXrecord
280
1
 40
215.9000000000000057
  0
XRECORD
  5
117
330
EC
100
AcDbXrecord
280
1
1000
1:1
  0
XRECORD
  5
118
330
EC
100
AcDbXrecord
280
1
290
1
  0
XRECORD
  5
119
330
EC
100
AcDbXrecord
280
1
 90
4
  0
ENDSEC
  0
EOF
