999
dxflib 3.3.4.0
  0
SECTION
  2
HEADER
  9
$ACADVER
  1
AC1015
  9
$HANDSEED
  5
FFFF
  9
$DIMADEC
 70
0
  9
$DIMASZ
 40
2.5
  9
$DIMAUNIT
 70
0
  9
$DIMAZIN
 70
2
  9
$DIMDEC
 70
4
  9
$DIMEXE
 40
1.25
  9
$DIMEXO
 40
0.625
  9
$DIMGAP
 40
0.625
  9
$DIMLUNIT
 70
2
  9
$DIMTSZ
 40
0.0
  9
$DIMTXT
 40
2.5
  9
$DIMZIN
 70
8
  9
$DWGCODEPAGE
  3
ANSI_1252
  9
$INSUNITS
 70
4
  9
$LTSCALE
 40
1.0
  0
ENDSEC
  0
SECTION
  2
TABLES
  0
TABLE
  2
VPORT
  5
8
100
AcDbSymbolTable
 70
1
  0
VPORT
  5
30
100
AcDbSymbolTableRecord
100
AcDbViewportTableRecord
  2
*Active
 70
0
 10
0.0
 20
0.0
 11
1.0
 21
1.0
 12
286.3055555555554861
 22
148.5
 13
0.0
 23
0.0
 14
10.0
 24
10.0
 15
10.0
 25
10.0
 16
0.0
 26
0.0
 36
1.0
 17
0.0
 27
0.0
 37
0.0
 40
297.0
 41
1.92798353909465
 42
50.0
 43
0.0
 44
0.0
 50
0.0
 51
0.0
 71
0
 72
100
 73
1
 74
3
 75
1
 76
1
 77
0
 78
0
281
0
 65
1
110
0.0
120
0.0
130
0.0
111
1.0
121
0.0
131
0.0
112
0.0
122
1.0
132
0.0
 79
0
146
0.0
  0
ENDTAB
  0
TABLE
  2
LTYPE
  5
5
100
AcDbSymbolTable
 70
21
  0
LTYPE
  5
16
100
AcDbSymbolTableRecord
100
AcDbLinetypeTableRecord
  2
CONTINUOUS
 70
0
  3
Solid line
 72
65
 73
0
 40
0.0
  0
LTYPE
  5
31
100
AcDbSymbolTableRecord
100
AcDbLinetypeTableRecord
  2
CENTER2
 70
0
  3
Center (.5x) ___ _ ___ _ ___ _ ___ _ ___ _ ___
 72
65
 73
4
 40
28.5749999999999993
 49
19.0500000000000007
 74
0
 49
-3.1749999999999998
 74
0
 49
3.1749999999999998
 74
0
 49
-3.1749999999999998
 74
0
  0
LTYPE
  5
32
100
AcDbSymbolTableRecord
100
AcDbLinetypeTableRecord
  2
DIVIDEX2
 70
0
  3
Divide (2x) ________  .  .  ________  .  .  _
 72
65
 73
6
 40
63.5
 49
25.3999999999999986
 74
0
 49
-12.6999999999999993
 74
0
 49
0.0
 74
0
 49
-12.6999999999999993
 74
0
 49
0.0
 74
0
 49
-12.6999999999999993
 74
0
  0
LTYPE
  5
33
100
AcDbSymbolTableRecord
100
AcDbLinetypeTableRecord
  2
DOT2
 70
0
  3
Dot (.5x) .....................................
 72
65
 73
2
 40
3.1749999999999998
 49
0.0
 74
0
 49
-3.1749999999999998
 74
0
  0
LTYPE
  5
34
100
AcDbSymbolTableRecord
100
AcDbLinetypeTableRecord
  2
DASHDOT2
 70
0
  3
Dash dot (.5x) _._._._._._._._._._._._._._._.
 72
65
 73
4
 40
12.6999999999999993
 49
6.3499999999999996
 74
0
 49
-3.1749999999999998
 74
0
 49
0.0
 74
0
 49
-3.1749999999999998
 74
0
  0
LTYPE
  5
35
100
AcDbSymbolTableRecord
100
AcDbLinetypeTableRecord
  2
DIVIDE
 70
0
  3
Divide ____ . . ____ . . ____ . . ____ . . ____
 72
65
 73
6
 40
31.75
 49
12.6999999999999993
 74
0
 49
-6.3499999999999996
 74
0
 49
0.0
 74
0
 49
-6.3499999999999996
 74
0
 49
0.0
 74
0
 49
-6.3499999999999996
 74
0
  0
LTYPE
  5
36
100
AcDbSymbolTableRecord
100
AcDbLinetypeTableRecord
  2
DASHDOT
 70
0
  3
Dash dot __ . __ . __ . __ . __ . __ . __ . __
 72
65
 73
4
 40
25.3999999999999986
 49
12.6999999999999993
 74
0
 49
-6.3499999999999996
 74
0
 49
0.0
 74
0
 49
-6.3499999999999996
 74
0
  0
LTYPE
  5
37
100
AcDbSymbolTableRecord
100
AcDbLinetypeTableRecord
  2
BORDER
 70
0
  3
Border __ __ . __ __ . __ __ . __ __ . __ __ .
 72
65
 73
6
 40
44.4500000000000028
 49
12.6999999999999993
 74
0
 49
-6.3499999999999996
 74
0
 49
12.6999999999999993
 74
0
 49
-6.3499999999999996
 74
0
 49
0.0
 74
0
 49
-6.3499999999999996
 74
0
  0
LTYPE
  5
38
100
AcDbSymbolTableRecord
100
AcDbLinetypeTableRecord
  2
DASHDOTX2
 70
0
  3
Dash dot (2x) ____  .  ____  .  ____  .  ___
 72
65
 73
4
 40
50.7999999999999972
 49
25.3999999999999986
 74
0
 49
-12.6999999999999993
 74
0
 49
0.0
 74
0
 49
-12.6999999999999993
 74
0
  0
LTYPE
  5
39
100
AcDbSymbolTableRecord
100
AcDbLinetypeTableRecord
  2
CENTERX2
 70
0
  3
Center (2x) ________  __  ________  __  _____
 72
65
 73
4
 40
101.5999999999999943
 49
63.5
 74
0
 49
-12.6999999999999993
 74
0
 49
12.6999999999999993
 74
0
 49
-12.6999999999999993
 74
0
  0
LTYPE
  5
3A
100
AcDbSymbolTableRecord
100
AcDbLinetypeTableRecord
  2
BORDER2
 70
0
  3
Border (.5x) __.__.__.__.__.__.__.__.__.__.__.
 72
65
 73
6
 40
22.2250000000000014
 49
6.3499999999999996
 74
0
 49
-3.1749999999999998
 74
0
 49
6.3499999999999996
 74
0
 49
-3.1749999999999998
 74
0
 49
0.0
 74
0
 49
-3.1749999999999998
 74
0
  0
LTYPE
  5
3B
100
AcDbSymbolTableRecord
100
AcDbLinetypeTableRecord
  2
BORDERX2
 70
0
  3
Border (2x) ____  ____  .  ____  ____  .  ___
 72
65
 73
6
 40
88.9000000000000057
 49
25.3999999999999986
 74
0
 49
-12.6999999999999993
 74
0
 49
25.3999999999999986
 74
0
 49
-12.6999999999999993
 74
0
 49
0.0
 74
0
 49
-12.6999999999999993
 74
0
  0
LTYPE
  5
14
100
AcDbSymbolTableRecord
100
AcDbLinetypeTableRecord
  2
BYBLOCK
 70
0
  3

 72
65
 73
0
 40
0.0
  0
LTYPE
  5
15
100
AcDbSymbolTableRecord
100
AcDbLinetypeTableRecord
  2
BYLAYER
 70
0
  3

 72
65
 73
0
 40
0.0
  0
LTYPE
  5
3C
100
AcDbSymbolTableRecord
100
AcDbLinetypeTableRecord
  2
DASHED2
 70
0
  3
Dashed (.5x) _ _ _ _ _ _ _ _ _ _ _ _ _ _ _ _ _
 72
65
 73
2
 40
9.5250000000000004
 49
6.3499999999999996
 74
0
 49
-3.1749999999999998
 74
0
  0
LTYPE
  5
3D
100
AcDbSymbolTableRecord
100
AcDbLinetypeTableRecord
  2
CENTER
 70
0
  3
Center ____ _ ____ _ ____ _ ____ _ ____ _ ____
 72
65
 73
4
 40
50.7999999999999972
 49
31.75
 74
0
 49
-6.3499999999999996
 74
0
 49
6.3499999999999996
 74
0
 49
-6.3499999999999996
 74
0
  0
LTYPE
  5
3E
100
AcDbSymbolTableRecord
100
AcDbLinetypeTableRecord
  2
DIVIDE2
 70
0
  3
Divide (.5x) __..__..__..__..__..__..__..__.._
 72
65
 73
6
 40
15.875
 49
6.3499999999999996
 74
0
 49
-3.1749999999999998
 74
0
 49
0.0
 74
0
 49
-3.1749999999999998
 74
0
 49
0.0
 74
0
 49
-3.1749999999999998
 74
0
  0
LTYPE
  5
3F
100
AcDbSymbolTableRecord
100
AcDbLinetypeTableRecord
  2
DASHED
 70
0
  3
Dashed __ __ __ __ __ __ __ __ __ __ __ __ __ _
 72
65
 73
2
 40
19.0500000000000007
 49
12.6999999999999993
 74
0
 49
-6.3499999999999996
 74
0
  0
LTYPE
  5
40
100
AcDbSymbolTableRecord
100
AcDbLinetypeTableRecord
  2
DOTX2
 70
0
  3
Dot (2x) .  .  .  .  .  .  .  .  .  .  .  .  .
 72
65
 73
2
 40
12.6999999999999993
 49
0.0
 74
0
 49
-12.6999999999999993
 74
0
  0
LTYPE
  5
41
100
AcDbSymbolTableRecord
100
AcDbLinetypeTableRecord
  2
DASHEDX2
 70
0
  3
Dashed (2x) ____  ____  ____  ____  ____  ___
 72
65
 73
2
 40
38.1000000000000014
 49
25.3999999999999986
 74
0
 49
-12.6999999999999993
 74
0
  0
LTYPE
  5
42
100
AcDbSymbolTableRecord
100
AcDbLinetypeTableRecord
  2
DOT
 70
0
  3
Dot . . . . . . . . . . . . . . . . . . . . . .
 72
65
 73
2
 40
6.3499999999999996
 49
0.0
 74
0
 49
-6.3499999999999996
 74
0
  0
ENDTAB
  0
TABLE
  2
LAYER
  5
2
100
AcDbSymbolTable
 70
1
  0
LAYER
  5
10
100
AcDbSymbolTableRecord
100
AcDbLayerTableRecord
  2
0
 70
0
 62
7
420
0
  6
CONTINUOUS
370
25
390
F
  0
ENDTAB
  0
TABLE
  2
STYLE
  5
3
100
AcDbSymbolTable
 70
1
  0
STYLE
  5
43
100
AcDbSymbolTableRecord
100
AcDbTextStyleTableRecord
  2
Standard
 70
0
 40
0.0
 41
1.0
 50
0.0
 71
0
 42
2.5
  3

  4

1001
ACAD
1000
txt
1071
0
  0
ENDTAB
  0
TABLE
  2
VIEW
  5
6
100
AcDbSymbolTable
 70
0
  0
ENDTAB
  0
TABLE
  2
UCS
  5
7
100
AcDbSymbolTable
 70
0
  0
ENDTAB
  0
TABLE
  2
APPID
  5
9
100
AcDbSymbolTable
 70
1
  0
APPID
  5
12
100
AcDbSymbolTableRecord
100
AcDbRegAppTableRecord
  2
ACAD
 70
0
  0
APPID
  5
44
100
AcDbSymbolTableRecord
100
AcDbRegAppTableRecord
  2
QCAD
 70
0
  0
ENDTAB
  0
TABLE
  2
DIMSTYLE
  5
A
100
AcDbSymbolTable
 70
1
100
AcDbDimStyleTable
 71
0
  0
DIMSTYLE
105
27
100
AcDbSymbolTableRecord
100
AcDbDimStyleTableRecord
  2
Standard
 41
2.5
 42
0.625
 43
3.75
 44
1.25
 70
0
 73
0
 74
0
 77
1
 78
8
140
2.5
141
2.5
143
0.03937007874016
147
0.625
171
3
172
1
271
2
272
2
274
3
278
44
283
0
284
8
340
43
  0
ENDTAB
  0
TABLE
  2
BLOCK_RECORD
  5
1
100
AcDbSymbolTable
 70
1
  0
BLOCK_RECORD
  5
1F
100
AcDbSymbolTableRecord
100
AcDbBlockTableRecord
  2
*Model_Space
340
22
  0
BLOCK_RECORD
  5
1B
100
AcDbSymbolTableRecord
100
AcDbBlockTableRecord
  2
*Paper_Space
340
1E
  0
BLOCK_RECORD
  5
23
100
AcDbSymbolTableRecord
100
AcDbBlockTableRecord
  2
*Paper_Space0
340
26
  0
ENDTAB
  0
ENDSEC
  0
SECTION
  2
BLOCKS
  0
BLOCK
  5
20
100
AcDbEntity
  8
0
100
AcDbBlockBegin
  2
*Model_Space
 70
0
 10
0.0
 20
0.0
 30
0.0
  3
*Model_Space
  1

  0
ENDBLK
  5
21
100
AcDbEntity
  8
0
100
AcDbBlockEnd
  0
BLOCK
  5
1C
100
AcDbEntity
 67
1
  8
0
100
AcDbBlockBegin
  2
*Paper_Space
 70
0
 10
0.0
 20
0.0
 30
0.0
  3
*Paper_Space
  1

  0
ENDBLK
  5
1D
100
AcDbEntity
 67
1
  8
0
100
AcDbBlockEnd
  0
BLOCK
  5
24
100
AcDbEntity
  8
0
100
AcDbBlockBegin
  2
*Paper_Space0
 70
0
 10
0.0
 20
0.0
 30
0.0
  3
*Paper_Space0
  1

  0
ENDBLK
  5
25
100
AcDbEntity
  8
0
100
AcDbBlockEnd
  0
ENDSEC
  0
SECTION
  2
ENTITIES
  0
LINE
  5
45
100
AcDbEntity
100
AcDbLine
  8
0
 62
256
370
-1
  6
BYLAYER
 10
-88.9951905283832616
 20
152.1345726811989891
 30
0.0
 11
-88.9951905283832474
 21
152.1345726811989891
 31
0.0
  0
LINE
  5
46
100
AcDbEntity
100
AcDbLine
  8
0
 62
256
370
-1
  6
BYLAYER
 10
-91.7403810567665374
 20
141.8893821528156991
 30
0.0
 11
-8.3771324027147021
 21
-2.5000000000000284
 31
0.0
  0
LINE
  5
47
100
AcDbEntity
100
AcDbLine
  8
0
 62
256
370
-1
  6
BYLAYER
 10
0.2831216351296782
 20
-7.4999999999999991
 30
0.0
 11
17.0
 21
-7.4999999999999991
 31
0.0
  0
ARC
  5
48
100
AcDbEntity
  8
0
 62
256
370
-1
  6
BYLAYER
100
AcDbCircle
 10
0.2831216351296704
 20
32.5000000000000142
 30
0.0
 40
10.0
100
AcDbArc
 50
209.9999999999999716
 51
270.0
  0
ARC
  5
49
100
AcDbEntity
  8
0
 62
256
370
-1
  6
BYLAYER
100
AcDbCircle
 10
0.2831216351296792
 20
2.5000000000000009
 30
0.0
 40
10.0
100
AcDbArc
 50
210.0000000000001421
 51
270.0
  0
ARC
  5
4A
100
AcDbEntity
  8
0
 62
256
370
-1
  6
BYLAYER
100
AcDbCircle
 10
-85.2451905283832474
 20
145.6393821528156991
 30
0.0
 40
7.5
100
AcDbArc
 50
120.0000000000000142
 51
209.9999999999999716
  0
ARC
  5
4B
100
AcDbEntity
  8
0
 62
256
370
-1
  6
BYLAYER
100
AcDbCircle
 10
-85.2451905283832616
 20
145.6393821528156991
 30
0.0
 40
7.5
100
AcDbArc
 50
30.0000000000000497
 51
120.0000000000000142
  0
LINE
  5
4C
100
AcDbEntity
100
AcDbLine
  8
0
 62
256
370
-1
  6
BYLAYER
 10
19.9999999999999929
 20
-13.0
 30
0.0
 11
19.9999999999999929
 21
-13.0
 31
0.0
  0
LINE
  5
4D
100
AcDbEntity
100
AcDbLine
  8
0
 62
256
370
-1
  6
BYLAYER
 10
22.9999999999999964
 20
-7.5
 30
0.0
 11
22.9999999999999964
 21
7.5000000000000009
 31
0.0
  0
LINE
  5
4E
100
AcDbEntity
100
AcDbLine
  8
0
 62
256
370
-1
  6
BYLAYER
 10
22.9999999999999964
 20
7.5000000000000009
 30
0.0
 11
16.9999999999999964
 21
7.5000000000000009
 31
0.0
  0
LINE
  5
4F
100
AcDbEntity
100
AcDbLine
  8
0
 62
256
370
-1
  6
BYLAYER
 10
16.9999999999999964
 20
7.5000000000000009
 30
0.0
 11
16.9999999999999964
 21
-7.5
 31
0.0
  0
ARC
  5
50
100
AcDbEntity
  8
0
 62
256
370
-1
  6
BYLAYER
100
AcDbCircle
 10
244.2644284148501583
 20
145.6393821528156707
 30
0.0
 40
7.5
100
AcDbArc
 50
330.0
 51
59.9999999999999858
  0
ARC
  5
51
100
AcDbEntity
  8
0
 62
256
370
-1
  6
BYLAYER
100
AcDbCircle
 10
244.2644284148501583
 20
145.6393821528156707
 30
0.0
 40
7.5
100
AcDbArc
 50
59.9999999999999858
 51
149.9999999999999716
  0
LINE
  5
52
100
AcDbEntity
100
AcDbLine
  8
0
 62
256
370
-1
  6
BYLAYER
 10
139.0192378864668683
 20
-13.0000000000000338
 30
0.0
 11
139.0192378864668683
 21
-13.0000000000000338
 31
0.0
  0
LINE
  5
53
100
AcDbEntity
100
AcDbLine
  8
0
 62
256
370
-1
  6
BYLAYER
 10
136.0192378864668683
 20
-7.4999999999999991
 30
0.0
 11
136.0192378864668683
 21
7.5000000000000062
 31
0.0
  0
LINE
  5
54
100
AcDbEntity
100
AcDbLine
  8
0
 62
256
370
-1
  6
BYLAYER
 10
167.3963702891815615
 20
27.5
 30
0.0
 11
237.7692378864668967
 21
149.3893821528156707
 31
0.0
  0
LINE
  5
55
100
AcDbEntity
100
AcDbLine
  8
0
 62
256
370
-1
  6
BYLAYER
 10
136.0192378864668683
 20
7.5000000000000062
 30
0.0
 11
142.0192378864668683
 21
7.5000000000000293
 31
0.0
  0
LINE
  5
56
100
AcDbEntity
100
AcDbLine
  8
0
 62
256
370
-1
  6
BYLAYER
 10
248.0144284148501583
 20
152.1345726811989323
 30
0.0
 11
248.0144284148501583
 21
152.1345726811989323
 31
0.0
  0
LINE
  5
57
100
AcDbEntity
100
AcDbLine
  8
0
 62
256
370
-1
  6
BYLAYER
 10
142.0192378864668683
 20
7.5000000000000293
 30
0.0
 11
142.0192378864668683
 21
-7.4999999999999991
 31
0.0
  0
LINE
  5
58
100
AcDbEntity
100
AcDbLine
  8
0
 62
256
370
-1
  6
BYLAYER
 10
250.7596189432333631
 20
141.8893821528157275
 30
0.0
 11
167.3963702891815615
 21
-2.5000000000000213
 31
0.0
  0
LINE
  5
59
100
AcDbEntity
100
AcDbLine
  8
0
 62
256
370
-1
  6
BYLAYER
 10
158.7361162513371937
 20
-7.4999999999999991
 30
0.0
 11
142.0192378864668683
 21
-7.4999999999999991
 31
0.0
  0
ARC
  5
5A
100
AcDbEntity
  8
0
 62
256
370
-1
  6
BYLAYER
100
AcDbCircle
 10
158.7361162513371937
 20
32.5000000000000355
 30
0.0
 40
10.0
100
AcDbArc
 50
270.0
 51
330.0
  0
ARC
  5
5B
100
AcDbEntity
  8
0
 62
256
370
-1
  6
BYLAYER
100
AcDbCircle
 10
158.7361162513371937
 20
2.4999999999999547
 30
0.0
 40
10.0
100
AcDbArc
 50
270.0
 51
329.9999999999998863
  0
LINE
  5
5C
100
AcDbEntity
100
AcDbLine
  8
0
 62
256
370
-1
  6
BYLAYER
 10
22.9999999999999893
 20
22.5000000000000178
 30
0.0
 11
22.9999999999999893
 21
37.5000000000000213
 31
0.0
  0
LINE
  5
5D
100
AcDbEntity
100
AcDbLine
  8
0
 62
256
370
-1
  6
BYLAYER
 10
22.9999999999999893
 20
37.5000000000000213
 30
0.0
 11
16.9999999999999893
 21
37.5000000000000213
 31
0.0
  0
LINE
  5
5E
100
AcDbEntity
100
AcDbLine
  8
0
 62
256
370
-1
  6
BYLAYER
 10
16.9999999999999893
 20
37.5000000000000213
 30
0.0
 11
16.9999999999999893
 21
22.5000000000000178
 31
0.0
  0
ARC
  5
5F
100
AcDbEntity
  8
0
 62
256
370
-1
  6
BYLAYER
100
AcDbCircle
 10
244.2644284148501583
 20
175.6393821528156991
 30
0.0
 40
7.5
100
AcDbArc
 50
330.0
 51
59.9999999999999858
  0
ARC
  5
60
100
AcDbEntity
  8
0
 62
256
370
-1
  6
BYLAYER
100
AcDbCircle
 10
244.2644284148501583
 20
175.6393821528156991
 30
0.0
 40
7.5
100
AcDbArc
 50
59.9999999999999858
 51
149.9999999999999716
  0
LINE
  5
61
100
AcDbEntity
100
AcDbLine
  8
0
 62
256
370
-1
  6
BYLAYER
 10
139.0192378864668683
 20
16.9999999999999858
 30
0.0
 11
139.0192378864668683
 21
16.9999999999999858
 31
0.0
  0
LINE
  5
62
100
AcDbEntity
100
AcDbLine
  8
0
 62
256
370
-1
  6
BYLAYER
 10
136.0192378864668683
 20
22.5000000000000178
 30
0.0
 11
136.0192378864668683
 21
37.5000000000000213
 31
0.0
  0
LINE
  5
63
100
AcDbEntity
100
AcDbLine
  8
0
 62
256
370
-1
  6
BYLAYER
 10
167.3963702891815615
 20
57.5000000000000142
 30
0.0
 11
237.7692378864668967
 21
179.3893821528156991
 31
0.0
  0
LINE
  5
64
100
AcDbEntity
100
AcDbLine
  8
0
 62
256
370
-1
  6
BYLAYER
 10
136.0192378864668683
 20
37.5000000000000213
 30
0.0
 11
142.0192378864668683
 21
37.5000000000000497
 31
0.0
  0
LINE
  5
65
100
AcDbEntity
100
AcDbLine
  8
0
 62
256
370
-1
  6
BYLAYER
 10
248.0144284148501583
 20
182.1345726811989607
 30
0.0
 11
248.0144284148501583
 21
182.1345726811989607
 31
0.0
  0
LINE
  5
66
100
AcDbEntity
100
AcDbLine
  8
0
 62
256
370
-1
  6
BYLAYER
 10
142.0192378864668683
 20
37.5000000000000497
 30
0.0
 11
142.0192378864668683
 21
22.5000000000000178
 31
0.0
  0
LINE
  5
67
100
AcDbEntity
100
AcDbLine
  8
0
 62
256
370
-1
  6
BYLAYER
 10
250.7596189432333631
 20
171.8893821528157559
 30
0.0
 11
167.3963702891815615
 21
27.4999999999999964
 31
0.0
  0
LINE
  5
68
100
AcDbEntity
100
AcDbLine
  8
0
 62
256
370
-1
  6
BYLAYER
 10
158.7361162513371937
 20
52.5000000000000284
 30
0.0
 11
79.5096189432334057
 21
52.5000000000000355
 31
0.0
  0
LINE
  5
69
100
AcDbEntity
100
AcDbLine
  8
0
 62
256
370
-1
  6
BYLAYER
 10
-8.3771324027147234
 20
57.5000000000000284
 30
0.0
 11
-78.75
 21
179.3893821528157275
 31
0.0
  0
ARC
  5
6A
100
AcDbEntity
  8
0
 62
256
370
-1
  6
BYLAYER
100
AcDbCircle
 10
158.7361162513371937
 20
62.5000000000000568
 30
0.0
 40
10.0
100
AcDbArc
 50
270.0
 51
330.0
  0
LINE
  5
6B
100
AcDbEntity
100
AcDbLine
  8
0
 62
256
370
-1
  6
BYLAYER
 10
-88.9951905283832758
 20
182.1345726811990176
 30
0.0
 11
-88.9951905283832616
 21
182.1345726811990176
 31
0.0
  0
ARC
  5
6C
100
AcDbEntity
  8
0
 62
256
370
-1
  6
BYLAYER
100
AcDbCircle
 10
158.7361162513371937
 20
32.4999999999999716
 30
0.0
 40
10.0
100
AcDbArc
 50
270.0
 51
329.9999999999998863
  0
LINE
  5
6D
100
AcDbEntity
100
AcDbLine
  8
0
 62
256
370
-1
  6
BYLAYER
 10
-91.7403810567665516
 20
171.8893821528157275
 30
0.0
 11
-8.3771324027147109
 21
27.4999999999999893
 31
0.0
  0
LINE
  5
6E
100
AcDbEntity
100
AcDbLine
  8
0
 62
256
370
-1
  6
BYLAYER
 10
0.2831216351296614
 20
52.5000000000000355
 30
0.0
 11
79.5096189432334057
 21
52.5000000000000355
 31
0.0
  0
ARC
  5
6F
100
AcDbEntity
  8
0
 62
256
370
-1
  6
BYLAYER
100
AcDbCircle
 10
0.2831216351296615
 20
62.5000000000000284
 30
0.0
 40
10.0
100
AcDbArc
 50
209.9999999999999716
 51
270.0
  0
ARC
  5
70
100
AcDbEntity
  8
0
 62
256
370
-1
  6
BYLAYER
100
AcDbCircle
 10
-85.2451905283832616
 20
175.6393821528157275
 30
0.0
 40
7.5
100
AcDbArc
 50
120.0000000000000142
 51
209.9999999999999716
  0
ARC
  5
71
100
AcDbEntity
  8
0
 62
256
370
-1
  6
BYLAYER
100
AcDbCircle
 10
-85.2451905283832758
 20
175.6393821528157275
 30
0.0
 40
7.5
100
AcDbArc
 50
30.0000000000000497
 51
120.0000000000000142
  0
LINE
  5
72
100
AcDbEntity
100
AcDbLine
  8
0
 62
256
370
-1
  6
BYLAYER
 10
19.9999999999999858
 20
17.0000000000000178
 30
0.0
 11
19.9999999999999858
 21
17.0000000000000178
 31
0.0
  0
LINE
  5
73
100
AcDbEntity
100
AcDbLine
  8
0
 62
256
370
-1
  6
BYLAYER
 10
-0.4903810567665943
 20
52.5000000000000355
 30
0.0
 11
159.5096189432334199
 21
52.5000000000000355
 31
0.0
  0
LINE
  5
74
100
AcDbEntity
100
AcDbLine
  8
0
 62
256
370
-1
  6
BYLAYER
 10
159.5096189432334199
 20
52.5000000000000355
 30
0.0
 11
159.5096189432334199
 21
82.5000000000000284
 31
0.0
  0
LINE
  5
75
100
AcDbEntity
100
AcDbLine
  8
0
 62
256
370
-1
  6
BYLAYER
 10
-0.4903810567665943
 20
82.5000000000000284
 30
0.0
 11
-0.4903810567665943
 21
52.5000000000000355
 31
0.0
  0
LINE
  5
76
100
AcDbEntity
100
AcDbLine
  8
0
 62
256
370
-1
  6
BYLAYER
 10
159.5096189432334199
 20
82.5000000000000284
 30
0.0
 11
159.5096189432334199
 21
112.5000000000000284
 31
0.0
  0
LINE
  5
77
100
AcDbEntity
100
AcDbLine
  8
0
 62
256
370
-1
  6
BYLAYER
 10
159.5096189432334199
 20
112.5000000000000284
 30
0.0
 11
-0.4903810567665801
 21
112.5000000000000284
 31
0.0
  0
LINE
  5
78
100
AcDbEntity
100
AcDbLine
  8
0
 62
256
370
-1
  6
BYLAYER
 10
-0.4903810567665801
 20
112.5000000000000284
 30
0.0
 11
-0.4903810567665801
 21
82.5000000000000284
 31
0.0
  0
LINE
  5
79
100
AcDbEntity
100
AcDbLine
  8
0
 62
256
370
-1
  6
BYLAYER
 10
159.5096189432334199
 20
112.5000000000000284
 30
0.0
 11
159.5096189432334199
 21
142.5000000000000284
 31
0.0
  0
LINE
  5
7A
100
AcDbEntity
100
AcDbLine
  8
0
 62
256
370
-1
  6
BYLAYER
 10
-0.4903810567665801
 20
142.5000000000000284
 30
0.0
 11
-0.4903810567665801
 21
112.5000000000000284
 31
0.0
  0
LINE
  5
7B
100
AcDbEntity
100
AcDbLine
  8
0
 62
256
370
-1
  6
BYLAYER
 10
159.5096189432334199
 20
142.5000000000000284
 30
0.0
 11
159.5096189432334199
 21
172.5000000000000284
 31
0.0
  0
LINE
  5
7C
100
AcDbEntity
100
AcDbLine
  8
0
 62
256
370
-1
  6
BYLAYER
 10
159.5096189432334199
 20
172.5000000000000284
 30
0.0
 11
-0.4903810567665801
 21
172.5000000000000284
 31
0.0
  0
LINE
  5
7D
100
AcDbEntity
100
AcDbLine
  8
0
 62
256
370
-1
  6
BYLAYER
 10
-0.4903810567665801
 20
172.5000000000000284
 30
0.0
 11
-0.4903810567665801
 21
142.5000000000000284
 31
0.0
  0
LINE
  5
7E
100
AcDbEntity
100
AcDbLine
  8
0
 62
256
370
-1
  6
BYLAYER
 10
76.5096189432334199
 20
127.5000000000000284
 30
0.0
 11
82.5096189432334199
 21
127.5000000000000284
 31
0.0
  0
LINE
  5
7F
100
AcDbEntity
100
AcDbLine
  8
0
 62
256
370
-1
  6
BYLAYER
 10
82.5096189432334199
 20
127.5000000000000284
 30
0.0
 11
82.5096189432334199
 21
157.5000000000000284
 31
0.0
  0
LINE
  5
80
100
AcDbEntity
100
AcDbLine
  8
0
 62
256
370
-1
  6
BYLAYER
 10
82.5096189432334199
 20
157.5000000000000284
 30
0.0
 11
76.5096189432334199
 21
157.5000000000000284
 31
0.0
  0
LINE
  5
81
100
AcDbEntity
100
AcDbLine
  8
0
 62
256
370
-1
  6
BYLAYER
 10
76.5096189432334199
 20
157.5000000000000284
 30
0.0
 11
76.5096189432334199
 21
127.5000000000000284
 31
0.0
  0
LINE
  5
82
100
AcDbEntity
100
AcDbLine
  8
0
 62
256
370
-1
  6
BYLAYER
 10
76.5096189432334199
 20
67.5000000000000284
 30
0.0
 11
82.5096189432334199
 21
67.5000000000000284
 31
0.0
  0
LINE
  5
83
100
AcDbEntity
100
AcDbLine
  8
0
 62
256
370
-1
  6
BYLAYER
 10
82.5096189432334199
 20
67.5000000000000284
 30
0.0
 11
82.5096189432334199
 21
97.5000000000000284
 31
0.0
  0
LINE
  5
84
100
AcDbEntity
100
AcDbLine
  8
0
 62
256
370
-1
  6
BYLAYER
 10
82.5096189432334199
 20
97.5000000000000284
 30
0.0
 11
76.5096189432334199
 21
97.5000000000000284
 31
0.0
  0
LINE
  5
85
100
AcDbEntity
100
AcDbLine
  8
0
 62
256
370
-1
  6
BYLAYER
 10
76.5096189432334199
 20
97.5000000000000284
 30
0.0
 11
76.5096189432334199
 21
67.5000000000000284
 31
0.0
  0
LINE
  5
86
100
AcDbEntity
100
AcDbLine
  8
0
 62
256
370
-1
  6
BYLAYER
 10
159.5096189432334199
 20
82.5000000000000284
 30
0.0
 11
82.5096189432334199
 21
82.5000000000000284
 31
0.0
  0
LINE
  5
87
100
AcDbEntity
100
AcDbLine
  8
0
 62
256
370
-1
  6
BYLAYER
 10
76.5096189432334199
 20
82.5000000000000284
 30
0.0
 11
-0.4903810567665801
 21
82.5000000000000284
 31
0.0
  0
LINE
  5
88
100
AcDbEntity
100
AcDbLine
  8
0
 62
256
370
-1
  6
BYLAYER
 10
76.5096189432334199
 20
142.5000000000000284
 30
0.0
 11
-0.4903810567665801
 21
142.5000000000000284
 31
0.0
  0
LINE
  5
89
100
AcDbEntity
100
AcDbLine
  8
0
 62
256
370
-1
  6
BYLAYER
 10
82.5096189432334199
 20
142.5000000000000284
 30
0.0
 11
159.5096189432334199
 21
142.5000000000000284
 31
0.0
  0
LINE
  5
8A
100
AcDbEntity
100
AcDbLine
  8
0
 62
256
370
-1
  6
BYLAYER
 10
158.7361162513371937
 20
22.4999999999999716
 30
0.0
 11
0.2831216351296685
 21
22.5000000000000142
 31
0.0
  0
LINE
  5
8B
100
AcDbEntity
100
AcDbLine
  8
0
 62
256
370
-1
  6
BYLAYER
 10
136.0192378864668683
 20
-7.4999999999999991
 30
0.0
 11
22.9999999999999964
 21
-7.5
 31
0.0
  0
ENDSEC
  0
SECTION
  2
OBJECTS
  0
DICTIONARY
  5
C
100
AcDbDictionary
280
0
281
1
  3
ACAD_GROUP
350
D
  3
ACAD_LAYOUT
350
1A
  3
ACAD_MLINESTYLE
350
17
  3
ACAD_PLOTSETTINGS
350
19
  3
ACAD_PLOTSTYLENAME
350
E
  3
AcDbVariableDictionary
350
8C
  3
QCAD_OBJECTS
350
8D
  0
DICTIONARY
  5
D
100
AcDbDictionary
280
0
281
1
  0
ACDBDICTIONARYWDFLT
  5
E
100
AcDbDictionary
281
1
  3
Normal
350
F
100
AcDbDictionaryWithDefault
340
F
  0
ACDBPLACEHOLDER
  5
F
  0
DICTIONARY
  5
17
100
AcDbDictionary
280
0
281
1
  3
Standard
350
18
  0
MLINESTYLE
  5
18
100
AcDbMlineStyle
  2
STANDARD
 70
0
  3

 62
256
 51
90.0
 52
90.0
 71
2
 49
0.5
 62
256
  6
BYLAYER
 49
-0.5
 62
256
  6
BYLAYER
  0
DICTIONARY
  5
19
100
AcDbDictionary
280
0
281
1
  0
DICTIONARY
  5
1A
100
AcDbDictionary
281
1
  3
Layout1
350
1E
  3
Layout2
350
26
  3
Model
350
22
  0
LAYOUT
  5
1E
100
AcDbPlotSettings
  1

  2
none_device
  4

  6

 40
0.0
 41
0.0
 42
0.0
 43
0.0
 44
0.0
 45
0.0
 46
0.0
 47
0.0
 48
0.0
 49
0.0
140
0.0
141
0.0
142
1.0
143
1.0
 70
688
 72
0
 73
0
 74
5
  7

 75
16
147
1.0
148
0.0
149
0.0
100
AcDbLayout
  1
Layout1
 70
1
 71
1
 10
0.0
 20
0.0
 11
420.0
 21
297.0
 12
0.0
 22
0.0
 32
0.0
 14
100000000000000000000.0
 24
100000000000000000000.0
 34
100000000000000000000.0
 15
-100000000000000000000.0
 25
-100000000000000000000.0
 35
-100000000000000000000.0
146
0.0
 13
0.0
 23
0.0
 33
0.0
 16
1.0
 26
0.0
 36
0.0
 17
0.0
 27
1.0
 37
0.0
 76
0
330
1B
  0
LAYOUT
  5
22
100
AcDbPlotSettings
  1

  2
none_device
  4

  6

 40
0.0
 41
0.0
 42
0.0
 43
0.0
 44
0.0
 45
0.0
 46
0.0
 47
0.0
 48
0.0
 49
0.0
140
0.0
141
0.0
142
1.0
143
1.0
 70
1712
 72
0
 73
0
 74
0
  7

 75
0
147
1.0
148
0.0
149
0.0
100
AcDbLayout
  1
Model
 70
1
 71
0
 10
0.0
 20
0.0
 11
12.0
 21
9.0
 12
0.0
 22
0.0
 32
0.0
 14
0.0
 24
0.0
 34
0.0
 15
0.0
 25
0.0
 35
0.0
146
0.0
 13
0.0
 23
0.0
 33
0.0
 16
1.0
 26
0.0
 36
0.0
 17
0.0
 27
1.0
 37
0.0
 76
0
330
1F
  0
LAYOUT
  5
26
100
AcDbPlotSettings
  1

  2
none_device
  4

  6

 40
0.0
 41
0.0
 42
0.0
 43
0.0
 44
0.0
 45
0.0
 46
0.0
 47
0.0
 48
0.0
 49
0.0
140
0.0
141
0.0
142
1.0
143
1.0
 70
688
 72
0
 73
0
 74
5
  7

 75
16
147
1.0
148
0.0
149
0.0
100
AcDbLayout
  1
Layout2
 70
1
 71
2
 10
0.0
 20
0.0
 11
12.0
 21
9.0
 12
0.0
 22
0.0
 32
0.0
 14
0.0
 24
0.0
 34
0.0
 15
0.0
 25
0.0
 35
0.0
146
0.0
 13
0.0
 23
0.0
 33
0.0
 16
1.0
 26
0.0
 36
0.0
 17
0.0
 27
1.0
 37
0.0
 76
0
330
23
  0
DICTIONARY
  5
8C
100
AcDbDictionary
281
1
  3
DIMASSOC
350
8F
  3
HIDETEXT
350
8E
  0
DICTIONARYVAR
  5
8E
100
DictionaryVariables
280
0
  1
2
  0
DICTIONARYVAR
  5
8F
100
DictionaryVariables
280
0
  1
1
  0
DICTIONARY
  5
8D
100
AcDbDictionary
281
1
  3
Grid/DisplayGrid00
350
90
  3
Grid/DisplayGrid01
350
91
  3
Grid/DisplayGrid02
350
92
  3
Grid/DisplayGrid03
350
93
  3
Grid/GridSpacingX00
350
94
  3
Grid/GridSpacingX01
350
95
  3
Grid/GridSpacingX02
350
96
  3
Grid/GridSpacingX03
350
97
  3
Grid/GridSpacingY00
350
98
  3
Grid/GridSpacingY01
350
99
  3
Grid/GridSpacingY02
350
9A
  3
Grid/GridSpacingY03
350
9B
  3
Grid/IsometricGrid00
350
9C
  3
Grid/IsometricGrid01
350
9D
  3
Grid/IsometricGrid02
350
9E
  3
Grid/IsometricGrid03
350
9F
  3
Grid/IsometricProjection00
350
A0
  3
Grid/IsometricProjection01
350
A1
  3
Grid/IsometricProjection02
350
A2
  3
Grid/IsometricProjection03
350
A3
  3
Grid/MetaGridSpacingX00
350
A4
  3
Grid/MetaGridSpacingX01
350
A5
  3
Grid/MetaGridSpacingX02
350
A6
  3
Grid/MetaGridSpacingX03
350
A7
  3
Grid/MetaGridSpacingY00
350
A8
  3
Grid/MetaGridSpacingY01
350
A9
  3
Grid/MetaGridSpacingY02
350
AA
  3
Grid/MetaGridSpacingY03
350
AB
  3
MultiPageSettings/Columns
350
AC
  3
MultiPageSettings/GlueMarginsBottom
350
AD
  3
MultiPageSettings/GlueMarginsLeft
350
AE
  3
MultiPageSettings/GlueMarginsRight
350
AF
  3
MultiPageSettings/GlueMarginsTop
350
B0
  3
MultiPageSettings/PrintCropMarks
350
B1
  3
MultiPageSettings/Rows
350
B2
  3
PageSettings/OffsetX
350
B3
  3
PageSettings/OffsetY
350
B4
  3
PageSettings/PageOrientation
350
B5
  3
PageSettings/PaperHeight
350
B6
  3
PageSettings/PaperWidth
350
B7
  3
PageSettings/Scale
350
B8
  3
PageSettings/ShowPaperBorders
350
B9
  3
UnitSettings/PaperUnit
350
BA
  0
XRECORD
  5
90
330
8D
100
AcDbXrecord
280
1
290
1
  0
XRECORD
  5
91
330
8D
100
AcDbXrecord
280
1
290
1
  0
XRECORD
  5
92
330
8D
100
AcDbXrecord
280
1
290
1
  0
XRECORD
  5
93
330
8D
100
AcDbXrecord
280
1
290
1
  0
XRECORD
  5
94
330
8D
100
AcDbXrecord
280
1
1000
auto
  0
XRECORD
  5
95
330
8D
100
AcDbXrecord
280
1
1000
auto
  0
XRECORD
  5
96
330
8D
100
AcDbXrecord
280
1
1000
auto
  0
XRECORD
  5
97
330
8D
100
AcDbXrecord
280
1
1000
auto
  0
XRECORD
  5
98
330
8D
100
AcDbXrecord
280
1
1000
auto
  0
XRECORD
  5
99
330
8D
100
AcDbXrecord
280
1
1000
auto
  0
XRECORD
  5
9A
330
8D
100
AcDbXrecord
280
1
1000
auto
  0
XRECORD
  5
9B
330
8D
100
AcDbXrecord
280
1
1000
auto
  0
XRECORD
  5
9C
330
8D
100
AcDbXrecord
280
1
290
0
  0
XRECORD
  5
9D
330
8D
100
AcDbXrecord
280
1
290
0
  0
XRECORD
  5
9E
330
8D
100
AcDbXrecord
280
1
290
0
  0
XRECORD
  5
9F
330
8D
100
AcDbXrecord
280
1
290
0
  0
XRECORD
  5
A0
330
8D
100
AcDbXrecord
280
1
 90
0
  0
XRECORD
  5
A1
330
8D
100
AcDbXrecord
280
1
 90
0
  0
XRECORD
  5
A2
330
8D
100
AcDbXrecord
280
1
 90
0
  0
XRECORD
  5
A3
330
8D
100
AcDbXrecord
280
1
 90
0
  0
XRECORD
  5
A4
330
8D
100
AcDbXrecord
280
1
1000
auto
  0
XRECORD
  5
A5
330
8D
100
AcDbXrecord
280
1
1000
auto
  0
XRECORD
  5
A6
330
8D
100
AcDbXrecord
280
1
1000
auto
  0
XRECORD
  5
A7
330
8D
100
AcDbXrecord
280
1
1000
auto
  0
XRECORD
  5
A8
330
8D
100
AcDbXrecord
280
1
1000
auto
  0
XRECORD
  5
A9
330
8D
100
AcDbXrecord
280
1
1000
auto
  0
XRECORD
  5
AA
330
8D
100
AcDbXrecord
280
1
1000
auto
  0
XRECORD
  5
AB
330
8D
100
AcDbXrecord
280
1
1000
auto
  0
XRECORD
  5
AC
330
8D
100
AcDbXrecord
280
1
 90
1
  0
XRECORD
  5
AD
330
8D
100
AcDbXrecord
280
1
 40
10.0
  0
XRECORD
  5
AE
330
8D
100
AcDbXrecord
280
1
 40
10.0
  0
XRECORD
  5
AF
330
8D
100
AcDbXrecord
280
1
 40
10.0
  0
XRECORD
  5
B0
330
8D
100
AcDbXrecord
280
1
 40
10.0
  0
XRECORD
  5
B1
330
8D
100
AcDbXrecord
280
1
290
0
  0
XRECORD
  5
B2
330
8D
100
AcDbXrecord
280
1
 90
1
  0
XRECORD
  5
B3
330
8D
100
AcDbXrecord
280
1
 40
0.0
  0
XRECORD
  5
B4
330
8D
100
AcDbXrecord
280
1
 40
0.0
  0
XRECORD
  5
B5
330
8D
100
AcDbXrecord
280
1
1000
Portrait
  0
XRECORD
  5
B6
330
8D
100
AcDbXrecord
280
1
 40
279.3999999999999773
  0
XRECORD
  5
B7
330
8D
100
AcDbXrecord
280
1
 40
215.9000000000000057
  0
XRECORD
  5
B8
330
8D
100
AcDbXrecord
280
1
1000
1:1
  0
XRECORD
  5
B9
330
8D
100
AcDbXrecord
280
1
290
1
  0
XRECORD
  5
BA
330
8D
100
AcDbXrecord
280
1
 90
4
  0
ENDSEC
  0
EOF
