<?xml version="1.0" standalone="no"?>
 <!DOCTYPE svg PUBLIC "-//W3C//DTD SVG 1.1//EN" 
 "http://www.w3.org/Graphics/SVG/1.1/DTD/svg11.dtd"> 
<svg xmlns="http://www.w3.org/2000/svg" version="1.1" 
    width="7.42696cm" height="6.35254cm" viewBox="0 0 29240 25010 ">
<title>SVG Picture created as hex--brd.svg date 2014/04/04 13:30:03 </title>
  <desc>Picture generated by PCBNEW </desc>
<g style="fill:#000000; fill-opacity:1;stroke:#000000; stroke-opacity:1;
stroke-linecap:round; stroke-linejoin:round; "
 transform="translate(0 0) scale(1 1)">
</g>
<g style="fill:#000000; fill-opacity:0.0; 
stroke:#000000; stroke-width:50; stroke-opacity:1; 
stroke-linecap:round; stroke-linejoin:round;">
<path d="M14572 17857
L14592 17847
L14620 17847
L14649 17857
L14668 17876
L14677 17895
L14687 17933
L14687 17961
L14677 17999
L14668 18018
L14649 18038
L14620 18047
L14601 18047
L14572 18038
L14563 18028
L14563 17961
L14601 17961
" />
<path d="M14477 18047
L14477 17847
L14363 18047
L14363 17847
" />
<path d="M14268 18047
L14268 17847
L14220 17847
L14192 17857
L14172 17876
L14163 17895
L14153 17933
L14153 17961
L14163 17999
L14172 18018
L14192 18038
L14220 18047
L14268 18047
" />
<path d="M20162 12207
L20048 12207
" />
<path d="M20105 12407
L20105 12207
" />
<path d="M20001 12207
L19867 12407
" />
<path d="M19867 12207
L20001 12407
" />
<path d="M21146 11447
L21022 11447
L21089 11523
L21060 11523
L21041 11533
L21032 11542
L21022 11561
L21022 11609
L21032 11628
L21041 11638
L21060 11647
L21117 11647
L21136 11638
L21146 11628
" />
<path d="M20936 11628
L20927 11638
L20936 11647
L20946 11638
L20936 11628
L20936 11647
" />
<path d="M20860 11447
L20736 11447
L20803 11523
L20774 11523
L20755 11533
L20746 11542
L20736 11561
L20736 11609
L20746 11628
L20755 11638
L20774 11647
L20832 11647
L20851 11638
L20860 11628
" />
<path d="M20670 11514
L20622 11647
L20574 11514
" />
<path d="M19353 13107
L19420 13012
" />
<path d="M19468 13107
L19468 12907
L19392 12907
L19372 12917
L19363 12926
L19353 12945
L19353 12974
L19363 12993
L19372 13002
L19392 13012
L19468 13012
" />
<path d="M19287 12907
L19153 13107
" />
<path d="M19153 12907
L19287 13107
" />
<path d="M17190 3960
L17203 3933
L17203 3920
L17196 3900
L17176 3879
L17156 3873
L17143 3873
L17122 3879
L17068 3933
L17210 4075
L17257 4028
L17264 4007
L17264 3994
L17257 3974
L17244 3960
L17223 3953
L17210 3953
L17190 3960
L17143 4007
" />
<path d="M17378 3906
L17392 3893
L17398 3873
L17398 3859
L17392 3839
L17372 3805
L17338 3772
L17304 3751
L17284 3745
L17271 3745
L17250 3751
L17237 3765
L17230 3785
L17230 3799
L17237 3819
L17257 3852
L17291 3886
L17324 3906
L17345 3913
L17358 3913
L17378 3906
" />
<path d="M21947 19291
L21735 19079
L21815 18998
L21846 18988
L21866 18988
L21896 18998
L21927 19029
L21937 19059
L21937 19079
L21927 19109
L21846 19190
" />
<path d="M22189 19049
L22159 19059
L22139 19059
L22108 19049
L22048 18988
L22038 18958
L22038 18938
L22048 18907
L22078 18877
L22108 18867
L22129 18867
L22159 18877
L22219 18938
L22230 18968
L22230 18988
L22219 19018
L22189 19049
" />
<path d="M22189 18766
L22371 18867
L22310 18726
L22452 18786
L22351 18604
" />
<path d="M22644 18574
L22634 18604
L22593 18645
L22563 18655
L22533 18645
L22452 18564
L22442 18534
L22452 18503
L22492 18463
L22523 18453
L22553 18463
L22573 18483
L22492 18604
" />
<path d="M22755 18483
L22613 18342
" />
<path d="M22654 18382
L22644 18352
L22644 18332
L22654 18301
L22674 18281
" />
<path d="M21694 18554
L21781 18466
L21788 18567
L21808 18547
L21829 18540
L21842 18540
L21862 18547
L21896 18581
L21903 18601
L21903 18615
L21896 18635
L21856 18675
L21835 18682
L21822 18682
" />
<path d="M21970 18534
L21983 18534
L21983 18547
L21970 18547
L21970 18534
L21983 18547
" />
<path d="M21896 18352
L21983 18264
L21990 18365
L22010 18345
L22031 18338
L22044 18338
L22064 18345
L22098 18379
L22105 18399
L22105 18413
L22098 18433
L22058 18473
L22037 18480
L22024 18480
" />
<path d="M22078 18264
L22206 18325
L22145 18197
" />
<path d="M19096 21304
L19163 21237
" />
<path d="M19123 21358
L19029 21169
L19217 21264
" />
<path d="M19183 21014
L19157 21041
L19150 21062
L19150 21075
L19157 21109
L19177 21142
L19231 21196
L19251 21203
L19264 21203
L19284 21196
L19311 21169
L19318 21149
L19318 21136
L19311 21115
L19278 21082
L19258 21075
L19244 21075
L19224 21082
L19197 21109
L19190 21129
L19190 21142
L19197 21163
" />
<path d="M22420 17962
L22447 17949
L22461 17949
L22481 17955
L22501 17976
L22508 17996
L22508 18009
L22501 18030
L22447 18083
L22306 17942
L22353 17895
L22373 17888
L22387 17888
L22407 17895
L22420 17908
L22427 17929
L22427 17942
L22420 17962
L22373 18009
" />
<path d="M22649 17881
L22575 17807
L22555 17801
L22535 17807
L22508 17834
L22501 17854
" />
<path d="M22643 17875
L22636 17895
L22602 17929
L22582 17935
L22562 17929
L22548 17915
L22542 17895
L22548 17875
L22582 17841
L22589 17821
" />
<path d="M22602 17740
L22656 17686
" />
<path d="M22575 17673
L22696 17794
L22717 17801
L22737 17794
L22750 17780
" />
<path d="M22683 17659
L22737 17605
" />
<path d="M22656 17592
L22777 17713
L22797 17720
L22818 17713
L22831 17700
" />
<path d="M22925 17592
L22919 17612
L22892 17639
L22872 17646
L22851 17639
L22797 17585
L22791 17565
L22797 17545
L22824 17518
L22845 17511
L22865 17518
L22878 17531
L22824 17612
" />
<path d="M22999 17531
L22905 17437
" />
<path d="M22932 17464
L22925 17444
L22925 17430
L22932 17410
L22946 17397
" />
<path d="M22979 17363
L23107 17423
" />
<path d="M23047 17296
L23107 17423
L23127 17471
L23127 17484
L23121 17504
" />
<path d="M19243 21774
L19344 21673
" />
<path d="M19283 21855
L19142 21572
L19425 21713
" />
<path d="M19495 21643
L19283 21431
L19334 21380
L19374 21360
L19414 21360
L19445 21370
L19495 21400
L19526 21431
L19556 21481
L19566 21511
L19566 21552
L19546 21592
L19495 21643
" />
<path d="M19808 21289
L19808 21309
L19788 21350
L19768 21370
L19728 21390
L19687 21390
L19657 21380
L19606 21350
L19576 21319
L19546 21269
L19536 21239
L19536 21198
L19556 21158
L19576 21138
L19616 21117
L19637 21117
" />
<path d="M20359 20829
L20147 20617
" />
<path d="M20258 20546
L20258 20526
L20268 20496
L20318 20445
L20349 20435
L20369 20435
L20399 20445
L20419 20465
L20440 20506
L20440 20748
L20571 20617
" />
<path d="M20763 20385
L20763 20405
L20743 20445
L20723 20465
L20682 20486
L20642 20486
L20611 20476
L20561 20445
L20531 20415
L20500 20364
L20490 20334
L20490 20294
L20510 20253
L20531 20233
L20571 20213
L20591 20213
" />
<path d="M21045 19166
L21025 19173
L21004 19193
L20991 19220
L20991 19247
L20998 19267
L21018 19301
L21038 19321
L21072 19342
L21092 19348
L21119 19348
L21146 19335
L21159 19321
L21173 19294
L21173 19281
L21126 19234
L21099 19261
" />
<path d="M21247 19234
L21106 19092
L21328 19153
L21186 19012
" />
<path d="M21395 19086
L21254 18944
L21287 18911
L21314 18897
L21341 18897
L21361 18904
L21395 18924
L21415 18944
L21435 18978
L21442 18998
L21442 19025
L21429 19052
L21395 19086
" />
<path d="M20409 20058
L20436 20045
L20469 20011
L20476 19991
L20476 19978
L20469 19957
L20456 19944
L20436 19937
L20422 19937
L20402 19944
L20368 19964
L20348 19971
L20335 19971
L20315 19964
L20301 19951
L20294 19930
L20294 19917
L20301 19897
L20335 19863
L20362 19850
" />
<path d="M20557 19924
L20416 19782
L20449 19749
L20476 19735
L20503 19735
L20523 19742
L20557 19762
L20577 19782
L20597 19816
L20604 19836
L20604 19863
L20591 19890
L20557 19924
" />
<path d="M20651 19749
L20719 19681
" />
<path d="M20678 19802
L20584 19614
L20773 19708
" />
<path d="M19662 20805
L19689 20792
L19723 20758
L19730 20738
L19730 20724
L19723 20704
L19709 20690
L19689 20684
L19676 20684
L19656 20690
L19622 20711
L19602 20717
L19588 20717
L19568 20711
L19554 20697
L19548 20677
L19548 20664
L19554 20643
L19588 20610
L19615 20596
" />
<path d="M19878 20576
L19878 20589
L19864 20616
L19851 20630
L19824 20643
L19797 20643
L19777 20637
L19743 20616
L19723 20596
L19703 20563
L19696 20542
L19696 20515
L19709 20488
L19723 20475
L19750 20462
L19763 20462
" />
<path d="M20019 20462
L19952 20529
L19810 20387
" />
<path d="M23220 2844
L23260 2804
L23290 2793
L23331 2793
L23381 2824
L23452 2894
L23482 2945
L23482 2985
L23472 3016
L23432 3056
L23402 3066
L23361 3066
L23311 3036
L23240 2965
L23210 2915
L23210 2874
L23220 2844
" />
<path d="M23573 2692
L23503 2763
" />
<path d="M23614 2874
L23402 2662
L23503 2561
" />
<path d="M23755 2511
L23684 2581
" />
<path d="M23796 2692
L23583 2480
L23684 2379
" />
</g>
<g style="fill:#000000; fill-opacity:0.0; 
stroke:#000000; stroke-width:500; stroke-opacity:1; 
stroke-linecap:round; stroke-linejoin:round;">
<path d="M7480 20205
L7385 20300
L7480 20396
L7575 20300
L7480 20205
L7480 20396
" />
</g>
<g style="fill:#000000; fill-opacity:0.0; 
stroke:#000000; stroke-width:118.11; stroke-opacity:1; 
stroke-linecap:round; stroke-linejoin:round;">
<path d="M14755 3700
L14305 3700
" />
<path d="M15755 3700
L15305 3700
" />
<path d="M15530 3925
L15530 3475
" />
</g>
<g style="fill:#000000; fill-opacity:0.0; 
stroke:#000000; stroke-width:50; stroke-opacity:1; 
stroke-linecap:round; stroke-linejoin:round;">
<path d="M20498 2641
L20538 2601
L20568 2591
L20609 2591
L20659 2621
L20730 2692
L20760 2742
L20760 2783
L20750 2813
L20710 2853
L20679 2863
L20639 2863
L20588 2833
L20518 2762
L20487 2712
L20487 2671
L20498 2641
" />
<path d="M20891 2671
L20679 2459
L21013 2550
L20801 2338
" />
<path d="M23516 5721
L23304 5509
L23385 5429
L23415 5418
L23436 5418
L23466 5429
L23496 5459
L23506 5489
L23506 5509
L23496 5540
L23415 5620
" />
<path d="M23850 5388
L23678 5358
" />
<path d="M23729 5509
L23516 5297
L23597 5216
L23628 5206
L23648 5206
L23678 5216
L23708 5247
L23718 5277
L23718 5297
L23708 5328
L23628 5408
" />
<path d="M23850 4984
L23820 4994
L23789 5024
L23769 5065
L23769 5105
L23779 5136
L23809 5186
L23840 5216
L23890 5247
L23921 5257
L23961 5257
L24001 5237
L24022 5216
L24042 5176
L24042 5156
L23971 5085
L23931 5125
" />
</g>
<g style="fill:#000000; fill-opacity:0.0; 
stroke:#000000; stroke-width:39.3701; stroke-opacity:1; 
stroke-linecap:round; stroke-linejoin:round;">
<path d="M4443 2303
L24128 2303
" />
<path d="M4443 21988
L4443 2303
" />
<path d="M24128 21988
L4443 21988
" />
<path d="M24128 2303
L24128 21988
" />
</g>
<g style="fill:#000000; fill-opacity:0.0; 
stroke:#000000; stroke-width:50; stroke-opacity:1; 
stroke-linecap:round; stroke-linejoin:round;">
<path d="M9532 11918
L9418 11898
" />
<path d="M9452 11999
L9310 11858
L9364 11804
L9384 11797
L9398 11797
L9418 11804
L9438 11824
L9445 11844
L9445 11858
L9438 11878
L9384 11932
" />
<path d="M9519 11784
L9566 11737
" />
<path d="M9660 11790
L9593 11858
L9452 11716
L9519 11649
" />
<path d="M9707 11730
L9734 11716
L9768 11683
L9775 11662
L9775 11649
L9768 11629
L9755 11615
L9734 11609
L9721 11609
L9701 11615
L9667 11635
L9647 11642
L9633 11642
L9613 11635
L9600 11622
L9593 11602
L9593 11588
L9600 11568
L9633 11534
L9660 11521
" />
<path d="M9741 11427
L9768 11400
L9788 11393
L9815 11393
L9849 11413
L9896 11460
L9916 11494
L9916 11521
L9909 11541
L9883 11568
L9862 11575
L9835 11575
L9802 11555
L9755 11508
L9734 11474
L9734 11447
L9741 11427
" />
<path d="M10004 11447
L9862 11306
L10085 11366
L9943 11225
" />
<path d="M10105 11265
L10172 11198
" />
<path d="M10132 11319
L10037 11130
L10226 11225
" />
<path d="M10112 11056
L10192 10976
" />
<path d="M10293 11157
L10152 11016
" />
<path d="M10266 10901
L10293 10875
L10314 10868
L10340 10868
L10374 10888
L10421 10935
L10442 10969
L10442 10996
L10435 11016
L10408 11043
L10388 11050
L10361 11050
L10327 11029
L10280 10982
L10260 10949
L10260 10922
L10266 10901
" />
<path d="M10610 10841
L10495 10821
" />
<path d="M10529 10922
L10388 10780
L10442 10726
L10462 10720
L10475 10720
L10495 10726
L10516 10747
L10522 10767
L10522 10780
L10516 10800
L10462 10854
" />
<path d="M13757 15278
L13838 15358
" />
<path d="M13797 15318
L13939 15177
L13932 15210
L13932 15237
L13939 15257
" />
<path d="M13730 15062
L13636 15156
" />
<path d="M13791 15123
L13717 15197
L13696 15203
L13676 15197
L13656 15177
L13649 15156
L13649 15143
" />
<path d="M13595 14968
L13643 15015
" />
<path d="M13568 15089
L13710 14948
L13643 14880
" />
<path d="M22716 10917
L22649 10822
" />
<path d="M22602 10917
L22602 10717
L22678 10717
L22697 10727
L22706 10736
L22716 10755
L22716 10784
L22706 10803
L22697 10812
L22678 10822
L22602 10822
" />
<path d="M22802 10812
L22868 10812
" />
<path d="M22897 10917
L22802 10917
L22802 10717
L22897 10717
" />
<path d="M23087 10727
L23068 10717
L23040 10717
L23011 10727
L22992 10746
L22982 10765
L22973 10803
L22973 10831
L22982 10869
L22992 10888
L23011 10908
L23040 10917
L23059 10917
L23087 10908
L23097 10898
L23097 10831
L23059 10831
" />
<path d="M23182 10717
L23182 10879
L23192 10898
L23202 10908
L23221 10917
L23259 10917
L23278 10908
L23287 10898
L23297 10879
L23297 10717
" />
<path d="M23487 10917
L23392 10917
L23392 10717
" />
<path d="M21739 9909
L21658 9828
" />
<path d="M21698 9869
L21840 9727
L21806 9734
L21779 9734
L21759 9727
" />
<path d="M21954 9936
L21860 10030
" />
<path d="M21894 9876
L21819 9950
L21813 9970
L21819 9990
L21840 10010
L21860 10017
L21873 10017
" />
<path d="M22048 10071
L22001 10024
" />
<path d="M21927 10098
L22069 9956
L22136 10024
" />
<path d="M23303 9278
L23222 9358
" />
<path d="M23263 9318
L23121 9177
L23128 9210
L23128 9237
L23121 9257
" />
<path d="M23330 9062
L23424 9156
" />
<path d="M23269 9123
L23344 9197
L23364 9203
L23384 9197
L23404 9177
L23411 9156
L23411 9143
" />
<path d="M23465 8968
L23418 9015
" />
<path d="M23492 9089
L23350 8948
L23418 8880
" />
</g>
<g style="fill:#000000; fill-opacity:0.0; 
stroke:#000000; stroke-width:80; stroke-opacity:1; 
stroke-linecap:round; stroke-linejoin:round;">
<path d="M4461 20946
L4743 20663
L4851 20770
L4865 20811
L4865 20838
L4851 20878
L4811 20919
L4770 20932
L4743 20932
L4703 20919
L4595 20811
" />
<path d="M4905 21390
L4945 21161
" />
<path d="M4743 21228
L5026 20946
L5134 21053
L5147 21094
L5147 21121
L5134 21161
L5094 21201
L5053 21215
L5026 21215
L4986 21201
L4878 21094
" />
<path d="M5363 21282
L5417 21336
L5430 21377
L5430 21430
L5390 21498
L5296 21592
L5228 21632
L5174 21632
L5134 21619
L5080 21565
L5067 21525
L5067 21471
L5107 21403
L5201 21309
L5269 21269
L5323 21269
L5363 21282
" />
<path d="M5740 21686
L5727 21646
L5686 21605
L5632 21579
L5578 21579
L5538 21592
L5471 21632
L5430 21673
L5390 21740
L5376 21781
L5376 21834
L5403 21888
L5430 21915
L5484 21942
L5511 21942
L5605 21848
L5552 21794
" />
</g>
<g style="fill:#000000; fill-opacity:0.0; 
stroke:#000000; stroke-width:59.0551; stroke-opacity:1; 
stroke-linecap:round; stroke-linejoin:round;">
<path d="M15280 13604
L14816 13697
" />
<path d="M15094 13419
L15001 13883
" />
<path d="M14763 13352
L14710 13326
L14683 13326
L14643 13339
L14604 13379
L14590 13419
L14590 13445
L14604 13485
L14710 13591
L14988 13313
L14895 13220
L14855 13207
L14829 13207
L14789 13220
L14763 13246
L14749 13286
L14749 13313
L14763 13352
L14855 13445
" />
<path d="M14577 13167
L14484 13074
" />
<path d="M14299 13180
L14431 13313
L14710 13034
L14577 12902
" />
<path d="M14325 12915
L14232 12822
" />
<path d="M14047 12928
L14179 13061
L14458 12782
L14325 12650
" />
<path d="M18139 14370
L18417 14092
L18311 14383
L18603 14277
L18324 14556
" />
<path d="M18457 14688
L18735 14410
" />
<path d="M18589 14821
L18868 14542
L18934 14609
L18961 14662
L18961 14715
L18947 14755
L18908 14821
L18868 14861
L18802 14900
L18762 14914
L18709 14914
L18656 14887
L18589 14821
" />
<path d="M18868 15099
L19146 14821
L19213 14887
L19239 14940
L19239 14993
L19226 15033
L19186 15099
L19146 15139
L19080 15179
L19040 15192
L18987 15192
L18934 15166
L18868 15099
" />
<path d="M19279 15510
L19146 15378
L19425 15099
" />
<path d="M19517 15457
L19610 15550
" />
<path d="M19504 15736
L19372 15603
L19650 15325
L19783 15457
" />
<path d="M19995 16226
L20034 16001
" />
<path d="M19836 16067
L20114 15789
L20220 15895
L20233 15934
L20233 15961
L20220 16001
L20180 16040
L20140 16054
L20114 16054
L20074 16040
L19968 15934
" />
<path d="M20114 16345
L20392 16067
" />
<path d="M20657 16359
L20644 16319
L20604 16279
L20551 16253
L20498 16253
L20459 16266
L20392 16306
L20353 16345
L20313 16412
L20300 16451
L20300 16504
L20326 16557
L20353 16584
L20406 16610
L20432 16610
L20525 16518
L20472 16465
" />
<path d="M20525 16756
L20803 16478
" />
<path d="M20671 16610
L20830 16770
" />
<path d="M20684 16915
L20962 16637
" />
<path d="M21055 16730
L21214 16889
" />
<path d="M20856 17088
L21135 16809
" />
</g>
<g style="fill:#000000; fill-opacity:0.0; 
stroke:#000000; stroke-width:50; stroke-opacity:1; 
stroke-linecap:round; stroke-linejoin:round;">
<path d="M19762 17352
L19883 17231
" />
<path d="M20034 17504
L19822 17291
" />
<path d="M20166 17372
L19954 17160
" />
<path d="M20226 17089
L20267 17069
L20287 17069
L20317 17079
L20348 17110
L20358 17140
L20358 17160
L20348 17190
L20267 17271
L20055 17059
L20125 16988
L20156 16978
L20176 16978
L20206 16988
L20226 17009
L20236 17039
L20236 17059
L20226 17089
L20156 17160
" />
<path d="M19218 18148
L19147 18218
" />
<path d="M19258 18330
L19046 18117
L19147 18016
" />
<path d="M19329 18037
L19400 17966
" />
<path d="M19541 18047
L19440 18148
L19228 17936
L19329 17835
" />
<path d="M19632 17956
L19420 17744
L19642 17824
L19561 17602
L19774 17814
" />
<path d="M18599 18923
L18599 18943
L18579 18984
L18559 19004
L18518 19024
L18478 19024
L18448 19014
L18397 18984
L18367 18954
L18337 18903
L18327 18873
L18327 18832
L18347 18792
L18367 18772
L18407 18752
L18428 18752
" />
<path d="M18539 18600
L18579 18560
L18609 18549
L18650 18549
L18700 18580
L18771 18651
L18801 18701
L18801 18741
L18791 18772
L18751 18812
L18721 18822
L18680 18822
L18630 18792
L18559 18721
L18529 18671
L18529 18630
L18539 18600
" />
<path d="M18700 18438
L19054 18509
" />
<path d="M18842 18297
L18912 18651
" />
</g>
<g style="fill:#000000; fill-opacity:0.0; 
stroke:#000000; stroke-width:59.0551; stroke-opacity:1; 
stroke-linecap:round; stroke-linejoin:round;">
<path d="M9421 5503
L9700 5224
L9594 5516
L9885 5410
L9607 5688
" />
<path d="M9739 5821
L10018 5542
" />
<path d="M9872 5953
L10150 5675
L10217 5741
L10243 5794
L10243 5847
L10230 5887
L10190 5953
L10150 5993
L10084 6033
L10044 6046
L9991 6046
L9938 6020
L9872 5953
" />
<path d="M10150 6232
L10429 5953
L10495 6020
L10522 6073
L10522 6126
L10508 6166
L10469 6232
L10429 6272
L10363 6311
L10323 6325
L10270 6325
L10217 6298
L10150 6232
" />
<path d="M10561 6643
L10429 6510
L10707 6232
" />
<path d="M10800 6590
L10893 6683
" />
<path d="M10787 6868
L10654 6736
L10933 6457
L11065 6590
" />
<path d="M11251 7332
L11118 7200
L11397 6921
" />
<path d="M11489 7279
L11582 7372
" />
<path d="M11476 7557
L11344 7425
L11622 7146
L11754 7279
" />
<path d="M11834 7624
L11741 7531
" />
<path d="M11595 7677
L11874 7398
L12006 7531
" />
<path d="M12073 7597
L12232 7756
" />
<path d="M11874 7955
L12152 7677
" />
</g>
<g style="fill:#000000; fill-opacity:0.0; 
stroke:#000000; stroke-width:50; stroke-opacity:1; 
stroke-linecap:round; stroke-linejoin:round;">
<path d="M8637 6227
L8758 6106
" />
<path d="M8909 6379
L8697 6166
" />
<path d="M9041 6247
L8829 6035
" />
<path d="M9101 5964
L9142 5944
L9162 5944
L9192 5954
L9223 5985
L9233 6015
L9233 6035
L9223 6065
L9142 6146
L8930 5934
L9000 5863
L9031 5853
L9051 5853
L9081 5863
L9101 5884
L9111 5914
L9111 5934
L9101 5964
L9031 6035
" />
<path d="M8068 6998
L7997 7068
" />
<path d="M8108 7180
L7896 6967
L7997 6866
" />
<path d="M8179 6887
L8250 6816
" />
<path d="M8391 6897
L8290 6998
L8078 6786
L8179 6685
" />
<path d="M8482 6806
L8270 6594
L8492 6674
L8411 6452
L8624 6664
" />
<path d="M7499 7748
L7499 7768
L7479 7809
L7459 7829
L7418 7849
L7378 7849
L7348 7839
L7297 7809
L7267 7779
L7237 7728
L7227 7698
L7227 7657
L7247 7617
L7267 7597
L7307 7577
L7328 7577
" />
<path d="M7439 7425
L7479 7385
L7509 7374
L7550 7374
L7600 7405
L7671 7476
L7701 7526
L7701 7566
L7691 7597
L7651 7637
L7621 7647
L7580 7647
L7530 7617
L7459 7546
L7429 7496
L7429 7455
L7439 7425
" />
<path d="M7600 7263
L7954 7334
" />
<path d="M7742 7122
L7812 7476
" />
</g>
<g style="fill:#000000; fill-opacity:0.0; 
stroke:#000000; stroke-width:59.0551; stroke-opacity:1; 
stroke-linecap:round; stroke-linejoin:round;">
<path d="M12796 2686
L12703 2593
" />
<path d="M12557 2739
L12836 2460
L12968 2593
" />
<path d="M12955 3137
L12995 2911
" />
<path d="M12796 2977
L13074 2699
L13181 2805
L13194 2845
L13194 2871
L13181 2911
L13141 2951
L13101 2964
L13074 2964
L13035 2951
L12929 2845
" />
<path d="M13406 3030
L13459 3084
L13472 3123
L13472 3176
L13432 3243
L13340 3335
L13273 3375
L13220 3375
L13181 3362
L13127 3309
L13114 3269
L13114 3216
L13154 3150
L13247 3057
L13313 3017
L13366 3017
L13406 3030
" />
<path d="M13366 3547
L13645 3269
L13525 3707
L13804 3428
" />
<path d="M13896 3521
L14055 3680
" />
<path d="M13698 3879
L13976 3601
" />
<path d="M14215 4396
L14082 4263
L14360 3985
" />
<path d="M14453 4343
L14546 4436
" />
<path d="M14440 4621
L14307 4489
L14586 4210
L14718 4343
" />
<path d="M14798 4688
L14705 4595
" />
<path d="M14559 4741
L14838 4462
L14970 4595
" />
<path d="M15036 4661
L15196 4820
" />
<path d="M14838 5019
L15116 4741
" />
</g>
<g style="fill:#000000; fill-opacity:0.0; 
stroke:#000000; stroke-width:50; stroke-opacity:1; 
stroke-linecap:round; stroke-linejoin:round;">
<path d="M11687 3427
L11808 3306
" />
<path d="M11959 3579
L11747 3366
" />
<path d="M12091 3447
L11879 3235
" />
<path d="M12151 3164
L12192 3144
L12212 3144
L12242 3154
L12273 3185
L12283 3215
L12283 3235
L12273 3265
L12192 3346
L11980 3134
L12050 3063
L12081 3053
L12101 3053
L12131 3063
L12151 3084
L12161 3114
L12161 3134
L12151 3164
L12081 3235
" />
<path d="M11118 4098
L11047 4168
" />
<path d="M11158 4280
L10946 4067
L11047 3966
" />
<path d="M11229 3987
L11300 3916
" />
<path d="M11441 3997
L11340 4098
L11128 3886
L11229 3785
" />
<path d="M11532 3906
L11320 3694
L11542 3774
L11461 3552
L11674 3764
" />
<path d="M10549 4848
L10549 4868
L10529 4909
L10509 4929
L10468 4949
L10428 4949
L10398 4939
L10347 4909
L10317 4879
L10287 4828
L10277 4798
L10277 4757
L10297 4717
L10317 4697
L10357 4677
L10378 4677
" />
<path d="M10489 4525
L10529 4485
L10559 4474
L10600 4474
L10650 4505
L10721 4576
L10751 4626
L10751 4666
L10741 4697
L10701 4737
L10671 4747
L10630 4747
L10580 4717
L10509 4646
L10479 4596
L10479 4555
L10489 4525
" />
<path d="M10650 4363
L11004 4434
" />
<path d="M10792 4222
L10862 4576
" />
</g>
<g style="fill:#000000; fill-opacity:0.0; 
stroke:#000000; stroke-width:100; stroke-opacity:1; 
stroke-linecap:round; stroke-linejoin:round;">
<path d="M7944 17026
L8078 16891
" />
<path d="M7997 17134
L7809 16756
L8186 16945
" />
<path d="M7957 16608
L8119 16447
" />
<path d="M8321 16810
L8038 16527
" />
<path d="M8496 16635
L8213 16352
L8509 16460
L8402 16164
L8684 16447
" />
<path d="M8671 16164
L8765 16069
" />
<path d="M8954 16177
L8819 16312
L8536 16029
L8671 15894
" />
<path d="M8954 15638
L8913 15652
L8873 15692
L8846 15746
L8846 15800
L8859 15841
L8900 15908
L8940 15948
L9008 15989
L9048 16002
L9102 16002
L9156 15975
L9183 15948
L9210 15894
L9210 15867
L9115 15773
L9061 15827
" />
<path d="M9264 15706
L9398 15571
" />
<path d="M9317 15814
L9129 15436
L9506 15625
" />
<path d="M9748 15383
L9587 15544
" />
<path d="M9668 15463
L9385 15181
L9398 15248
L9398 15302
L9385 15342
" />
<path d="M9600 15019
L9600 14992
L9614 14952
L9681 14884
L9721 14871
L9748 14871
L9789 14884
L9816 14911
L9843 14965
L9843 15288
L10018 15113
" />
<path d="M10018 14790
L9977 14803
L9950 14803
L9910 14790
L9897 14776
L9883 14736
L9883 14709
L9897 14669
L9950 14615
L9991 14601
L10018 14601
L10058 14615
L10072 14628
L10085 14669
L10085 14696
L10072 14736
L10018 14790
L10004 14830
L10004 14857
L10018 14898
L10072 14952
L10112 14965
L10139 14965
L10179 14952
L10233 14898
L10247 14857
L10247 14830
L10233 14790
L10179 14736
L10139 14723
L10112 14723
L10072 14736
" />
<path d="M10341 14413
L10530 14601
" />
<path d="M10166 14372
L10301 14642
L10476 14467
" />
<path d="M10678 14453
L10395 14170
L10503 14063
L10543 14049
L10570 14049
L10610 14063
L10651 14103
L10664 14143
L10664 14170
L10651 14211
L10543 14319
" />
<path d="M10853 14063
L11068 13847
" />
<path d="M11311 13820
L11028 13537
L11136 13430
L11176 13416
L11203 13416
L11243 13430
L11284 13470
L11297 13510
L11297 13537
L11284 13578
L11176 13686
" />
</g>
<g style="fill:#000000; fill-opacity:0.0; 
stroke:#000000; stroke-width:50; stroke-opacity:1; 
stroke-linecap:round; stroke-linejoin:round;">
<path d="M16228 2662
L16257 2672
L16266 2681
L16276 2700
L16276 2729
L16266 2748
L16257 2758
L16238 2767
L16162 2767
L16162 2567
L16228 2567
L16247 2577
L16257 2586
L16266 2605
L16266 2624
L16257 2643
L16247 2653
L16228 2662
L16162 2662
" />
<path d="M16352 2710
L16447 2710
" />
<path d="M16333 2767
L16400 2567
L16466 2767
" />
<path d="M16504 2567
L16619 2567
" />
<path d="M16562 2767
L16562 2567
" />
<path d="M16657 2567
L16771 2567
" />
<path d="M16714 2767
L16714 2567
" />
<path d="M17047 2843
L17038 2834
L17019 2805
L17009 2786
L17000 2758
L16990 2710
L16990 2672
L17000 2624
L17009 2596
L17019 2577
L17038 2548
L17047 2538
" />
<path d="M17209 2634
L17209 2767
" />
<path d="M17162 2558
L17114 2700
L17238 2700
" />
<path d="M17314 2748
L17323 2758
L17314 2767
L17304 2758
L17314 2748
L17314 2767
" />
<path d="M17438 2653
L17419 2643
L17409 2634
L17400 2615
L17400 2605
L17409 2586
L17419 2577
L17438 2567
L17476 2567
L17495 2577
L17504 2586
L17514 2605
L17514 2615
L17504 2634
L17495 2643
L17476 2653
L17438 2653
L17419 2662
L17409 2672
L17400 2691
L17400 2729
L17409 2748
L17419 2758
L17438 2767
L17476 2767
L17495 2758
L17504 2748
L17514 2729
L17514 2691
L17504 2672
L17495 2662
L17476 2653
" />
<path d="M17571 2567
L17638 2767
L17704 2567
" />
<path d="M17771 2691
L17923 2691
" />
<path d="M18104 2567
L18066 2567
L18047 2577
L18038 2586
L18019 2615
L18009 2653
L18009 2729
L18019 2748
L18028 2758
L18047 2767
L18085 2767
L18104 2758
L18114 2748
L18123 2729
L18123 2681
L18114 2662
L18104 2653
L18085 2643
L18047 2643
L18028 2653
L18019 2662
L18009 2681
" />
<path d="M18181 2567
L18247 2767
L18314 2567
" />
<path d="M18362 2843
L18371 2834
L18390 2805
L18400 2786
L18409 2758
L18419 2710
L18419 2672
L18409 2624
L18400 2596
L18390 2577
L18371 2548
L18362 2538
" />
<path d="M5705 8325
L5637 8392
L5496 8250
" />
<path d="M5678 8203
L5725 8156
" />
<path d="M5819 8210
L5752 8277
L5610 8136
L5678 8069
" />
<path d="M5880 8149
L5738 8008
L5772 7974
L5799 7961
L5826 7961
L5846 7968
L5880 7988
L5900 8008
L5920 8042
L5927 8062
L5927 8089
L5913 8116
L5880 8149
" />
<path d="M6001 8055
L6109 7947
" />
<path d="M6210 7819
L6095 7799
" />
<path d="M6129 7900
L5988 7759
L6041 7705
L6062 7698
L6075 7698
L6095 7705
L6115 7725
L6122 7745
L6122 7759
L6115 7779
L6062 7833
" />
<path d="M6210 7550
L6190 7557
L6169 7577
L6156 7604
L6156 7631
L6163 7651
L6183 7685
L6203 7705
L6237 7725
L6257 7732
L6284 7732
L6311 7718
L6324 7705
L6338 7678
L6338 7665
L6291 7617
L6264 7644
" />
<path d="M6385 7496
L6412 7483
L6425 7483
L6445 7489
L6466 7510
L6472 7530
L6472 7543
L6466 7564
L6412 7617
L6270 7476
L6318 7429
L6338 7422
L6351 7422
L6371 7429
L6385 7442
L6392 7463
L6392 7476
L6385 7496
L6338 7543
" />
<path d="M13904 9577
L13985 9496
" />
<path d="M13945 9536
L13803 9395
L13837 9401
L13864 9401
L13884 9395
" />
<path d="M13844 9637
L13702 9496
" />
<path d="M13776 9597
L13790 9691
" />
<path d="M13695 9597
L13803 9597
" />
<path d="M18954 10227
L19035 10146
" />
<path d="M18995 10186
L18853 10045
L18887 10051
L18914 10051
L18934 10045
" />
<path d="M18894 10287
L18752 10146
" />
<path d="M18826 10247
L18840 10341
" />
<path d="M18745 10247
L18853 10247
" />
<path d="M16704 12427
L16785 12346
" />
<path d="M16745 12386
L16603 12245
L16637 12251
L16664 12251
L16684 12245
" />
<path d="M16644 12487
L16502 12346
" />
<path d="M16576 12447
L16590 12541
" />
<path d="M16495 12447
L16603 12447
" />
<path d="M5231 12930
L5231 13044
" />
<path d="M5231 12987
L5031 12987
L5060 13006
L5079 13025
L5088 13044
" />
<path d="M5231 12844
L5031 12844
" />
<path d="M5155 12825
L5231 12768
" />
<path d="M5098 12768
L5174 12844
" />
<path d="M7371 13285
L7290 13366
" />
<path d="M7330 13326
L7189 13184
L7195 13218
L7195 13245
L7189 13265
" />
<path d="M7431 13225
L7290 13083
" />
<path d="M7391 13157
L7485 13171
" />
<path d="M7391 13076
L7391 13184
" />
<path d="M5961 13710
L5961 13824
" />
<path d="M5961 13767
L5761 13767
L5790 13786
L5809 13805
L5818 13824
" />
<path d="M5961 13624
L5761 13624
" />
<path d="M5885 13605
L5961 13548
" />
<path d="M5828 13548
L5904 13624
" />
<path d="M13756 20777
L13675 20696
" />
<path d="M13716 20736
L13857 20595
L13823 20601
L13796 20601
L13776 20595
" />
<path d="M13817 20837
L13958 20696
" />
<path d="M13884 20797
L13871 20891
" />
<path d="M13965 20797
L13857 20797
" />
<path d="M12706 20777
L12625 20696
" />
<path d="M12666 20736
L12807 20595
L12773 20601
L12746 20601
L12726 20595
" />
<path d="M12767 20837
L12908 20696
" />
<path d="M12834 20797
L12821 20891
" />
<path d="M12915 20797
L12807 20797
" />
</g>
<g style="fill:#000000; fill-opacity:0.0; 
stroke:#000000; stroke-width:59.0551; stroke-opacity:1; 
stroke-linecap:round; stroke-linejoin:round;">
<path d="M7099 8830
L7139 8605
" />
<path d="M6940 8671
L7218 8393
L7324 8499
L7338 8539
L7338 8565
L7324 8605
L7285 8645
L7245 8658
L7218 8658
L7179 8645
L7073 8539
" />
<path d="M7364 8804
L7457 8897
" />
<path d="M7351 9082
L7218 8950
L7497 8671
L7629 8804
" />
<path d="M7537 9109
L7669 9241
" />
<path d="M7431 9162
L7802 8976
L7616 9347
" />
<path d="M7868 9599
L7908 9374
" />
<path d="M7709 9440
L7987 9162
L8093 9268
L8107 9308
L8107 9334
L8093 9374
L8054 9414
L8014 9427
L7987 9427
L7948 9414
L7841 9308
" />
<path d="M8332 10063
L8199 9931
L8478 9652
" />
<path d="M8571 10010
L8663 10103
" />
<path d="M8557 10289
L8425 10156
L8703 9878
L8836 10010
" />
<path d="M8915 10355
L8822 10262
" />
<path d="M8677 10408
L8955 10130
L9088 10262
" />
<path d="M9154 10328
L9313 10488
" />
<path d="M8955 10686
L9233 10408
" />
</g>
<g style="fill:#000000; fill-opacity:0.0; 
stroke:#000000; stroke-width:50; stroke-opacity:1; 
stroke-linecap:round; stroke-linejoin:round;">
<path d="M5987 9027
L6108 8906
" />
<path d="M6259 9179
L6047 8966
" />
<path d="M6391 9047
L6179 8835
" />
<path d="M6451 8764
L6492 8744
L6512 8744
L6542 8754
L6573 8785
L6583 8815
L6583 8835
L6573 8865
L6492 8946
L6280 8734
L6350 8663
L6381 8653
L6401 8653
L6431 8663
L6451 8684
L6461 8714
L6461 8734
L6451 8764
L6381 8835
" />
<path d="M5368 9748
L5297 9818
" />
<path d="M5408 9930
L5196 9717
L5297 9616
" />
<path d="M5479 9637
L5550 9566
" />
<path d="M5691 9647
L5590 9748
L5378 9536
L5479 9435
" />
<path d="M5782 9556
L5570 9344
L5792 9424
L5711 9202
L5924 9414
" />
<path d="M4749 10498
L4749 10518
L4729 10559
L4709 10579
L4668 10599
L4628 10599
L4598 10589
L4547 10559
L4517 10529
L4487 10478
L4477 10448
L4477 10407
L4497 10367
L4517 10347
L4557 10327
L4578 10327
" />
<path d="M4689 10175
L4729 10135
L4759 10124
L4800 10124
L4850 10155
L4921 10226
L4951 10276
L4951 10316
L4941 10347
L4901 10387
L4871 10397
L4830 10397
L4780 10367
L4709 10296
L4679 10246
L4679 10205
L4689 10175
" />
<path d="M4850 10013
L5204 10084
" />
<path d="M4992 9872
L5062 10226
" />
</g>
<g style="fill:#000000; fill-opacity:0.0; 
stroke:#000000; stroke-width:59.0551; stroke-opacity:1; 
stroke-linecap:round; stroke-linejoin:round;">
<path d="M21164 11403
L21071 11310
" />
<path d="M20925 11456
L21203 11178
L21336 11310
" />
<path d="M21323 11854
L21362 11629
" />
<path d="M21164 11695
L21442 11417
L21548 11523
L21561 11562
L21561 11589
L21548 11629
L21508 11668
L21468 11682
L21442 11682
L21402 11668
L21296 11562
" />
<path d="M21773 11748
L21826 11801
L21840 11841
L21840 11894
L21800 11960
L21707 12053
L21641 12093
L21588 12093
L21548 12079
L21495 12026
L21482 11987
L21482 11934
L21521 11867
L21614 11774
L21681 11735
L21734 11735
L21773 11748
" />
<path d="M21734 12265
L22012 11987
L21893 12424
L22171 12146
" />
<path d="M22264 12238
L22423 12397
" />
<path d="M22065 12596
L22343 12318
" />
<path d="M22608 13140
L22648 12915
" />
<path d="M22449 12981
L22728 12702
L22834 12808
L22847 12848
L22847 12875
L22834 12915
L22794 12954
L22754 12968
L22728 12968
L22688 12954
L22582 12848
" />
<path d="M22728 13259
L23006 12981
" />
<path d="M23271 13272
L23258 13233
L23218 13193
L23165 13166
L23112 13166
L23072 13180
L23006 13219
L22966 13259
L22927 13325
L22913 13365
L22913 13418
L22940 13471
L22966 13498
L23019 13524
L23046 13524
L23139 13432
L23086 13378
" />
<path d="M23139 13670
L23417 13392
" />
<path d="M23285 13524
L23444 13683
" />
<path d="M23298 13829
L23576 13551
" />
<path d="M23669 13644
L23828 13803
" />
<path d="M23470 14002
L23749 13723
" />
</g>
<g style="fill:#000000; fill-opacity:0.0; 
stroke:#000000; stroke-width:50; stroke-opacity:1; 
stroke-linecap:round; stroke-linejoin:round;">
<path d="M22562 14377
L22683 14256
" />
<path d="M22834 14529
L22622 14316
" />
<path d="M22966 14397
L22754 14185
" />
<path d="M23026 14114
L23067 14094
L23087 14094
L23117 14104
L23148 14135
L23158 14165
L23158 14185
L23148 14215
L23067 14296
L22855 14084
L22925 14013
L22956 14003
L22976 14003
L23006 14013
L23026 14034
L23036 14064
L23036 14084
L23026 14114
L22956 14185
" />
<path d="M21968 15148
L21897 15218
" />
<path d="M22008 15330
L21796 15117
L21897 15016
" />
<path d="M22079 15037
L22150 14966
" />
<path d="M22291 15047
L22190 15148
L21978 14936
L22079 14835
" />
<path d="M22382 14956
L22170 14744
L22392 14824
L22311 14602
L22524 14814
" />
<path d="M21349 15898
L21349 15918
L21329 15959
L21309 15979
L21268 15999
L21228 15999
L21198 15989
L21147 15959
L21117 15929
L21087 15878
L21077 15848
L21077 15807
L21097 15767
L21117 15747
L21157 15727
L21178 15727
" />
<path d="M21289 15575
L21329 15535
L21359 15524
L21400 15524
L21450 15555
L21521 15626
L21551 15676
L21551 15716
L21541 15747
L21501 15787
L21471 15797
L21430 15797
L21380 15767
L21309 15696
L21279 15646
L21279 15605
L21289 15575
" />
<path d="M21450 15413
L21804 15484
" />
<path d="M21592 15272
L21662 15626
" />
</g>
<g style="fill:#000000; fill-opacity:0.0; 
stroke:#000000; stroke-width:59.0551; stroke-opacity:1; 
stroke-linecap:round; stroke-linejoin:round;">
<path d="M15517 17398
L15556 17173
" />
<path d="M15357 17239
L15636 16960
L15742 17067
L15755 17106
L15755 17133
L15742 17173
L15702 17212
L15662 17226
L15636 17226
L15596 17212
L15490 17106
" />
<path d="M15782 17371
L15874 17464
" />
<path d="M15768 17650
L15636 17517
L15914 17239
L16047 17371
" />
<path d="M15954 17676
L16087 17809
" />
<path d="M15848 17729
L16219 17544
L16034 17915
" />
<path d="M16285 18167
L16325 17941
" />
<path d="M16126 18008
L16405 17729
L16511 17835
L16524 17875
L16524 17902
L16511 17941
L16471 17981
L16431 17994
L16405 17994
L16365 17981
L16259 17875
" />
<path d="M16776 18657
L16816 18432
" />
<path d="M16617 18498
L16895 18220
L17001 18326
L17015 18366
L17015 18392
L17001 18432
L16962 18472
L16922 18485
L16895 18485
L16855 18472
L16749 18366
" />
<path d="M16895 18777
L17174 18498
" />
<path d="M17439 18790
L17425 18750
L17386 18710
L17333 18684
L17280 18684
L17240 18697
L17174 18737
L17134 18777
L17094 18843
L17081 18883
L17081 18936
L17107 18989
L17134 19015
L17187 19042
L17213 19042
L17306 18949
L17253 18896
" />
<path d="M17306 19188
L17585 18909
" />
<path d="M17452 19042
L17611 19201
" />
<path d="M17465 19347
L17744 19068
" />
<path d="M17836 19161
L17996 19320
" />
<path d="M17638 19519
L17916 19241
" />
</g>
<g style="fill:#000000; fill-opacity:0.0; 
stroke:#000000; stroke-width:50; stroke-opacity:1; 
stroke-linecap:round; stroke-linejoin:round;">
<path d="M16887 20077
L17008 19956
" />
<path d="M17159 20229
L16947 20016
" />
<path d="M17291 20097
L17079 19885
" />
<path d="M17351 19814
L17392 19794
L17412 19794
L17442 19804
L17473 19835
L17483 19865
L17483 19885
L17473 19915
L17392 19996
L17180 19784
L17250 19713
L17281 19703
L17301 19703
L17331 19713
L17351 19734
L17361 19764
L17361 19784
L17351 19814
L17281 19885
" />
<path d="M16318 20898
L16247 20968
" />
<path d="M16358 21080
L16146 20867
L16247 20766
" />
<path d="M16429 20787
L16500 20716
" />
<path d="M16641 20797
L16540 20898
L16328 20686
L16429 20585
" />
<path d="M16732 20706
L16520 20494
L16742 20574
L16661 20352
L16874 20564
" />
<path d="M15699 21648
L15699 21668
L15679 21709
L15659 21729
L15618 21749
L15578 21749
L15548 21739
L15497 21709
L15467 21679
L15437 21628
L15427 21598
L15427 21557
L15447 21517
L15467 21497
L15507 21477
L15528 21477
" />
<path d="M15639 21325
L15679 21285
L15709 21274
L15750 21274
L15800 21305
L15871 21376
L15901 21426
L15901 21466
L15891 21497
L15851 21537
L15821 21547
L15780 21547
L15730 21517
L15659 21446
L15629 21396
L15629 21355
L15639 21325
" />
<path d="M15800 21163
L16154 21234
" />
<path d="M15942 21022
L16012 21376
" />
<path d="M13204 14513
L13184 14399
" />
<path d="M13285 14433
L13144 14291
L13090 14345
L13083 14365
L13083 14379
L13090 14399
L13110 14419
L13130 14426
L13144 14426
L13164 14419
L13218 14365
" />
<path d="M13137 14581
L13110 14608
L13090 14614
L13077 14614
L13043 14608
L13009 14587
L12955 14534
L12949 14513
L12949 14500
L12955 14480
L12982 14453
L13002 14446
L13016 14446
L13036 14453
L13070 14486
L13077 14507
L13077 14520
L13070 14540
L13043 14567
L13023 14574
L13009 14574
L12989 14567
" />
<path d="M12844 14167
L12925 14086
" />
<path d="M12885 14126
L12743 13985
L12777 13991
L12804 13991
L12824 13985
" />
<path d="M12784 14227
L12642 14086
" />
<path d="M12716 14187
L12730 14281
" />
<path d="M12635 14187
L12743 14187
" />
<path d="M20000 8758
L19913 8670
L19906 8771
L19886 8751
L19866 8744
L19852 8744
L19832 8751
L19798 8785
L19792 8805
L19792 8819
L19798 8839
L19839 8879
L19859 8886
L19872 8886
" />
<path d="M19724 8738
L19711 8738
L19711 8751
L19724 8751
L19724 8738
L19711 8751
" />
<path d="M19798 8556
L19711 8468
L19704 8569
L19684 8549
L19664 8542
L19650 8542
L19630 8549
L19596 8583
L19589 8603
L19589 8617
L19596 8637
L19637 8677
L19657 8684
L19670 8684
" />
<path d="M19616 8468
L19488 8529
L19549 8401
" />
<path d="M19448 8206
L19354 8111
L19307 8347
L19212 8253
" />
<path d="M19233 8125
L19185 8078
" />
<path d="M19091 8132
L19158 8199
L19300 8058
L19233 7990
" />
<path d="M19031 8071
L19172 7930
L18950 7990
L19091 7849
" />
<path d="M18956 7849
L18909 7802
" />
<path d="M18815 7856
L18882 7923
L19024 7781
L18956 7714
" />
<path d="M18674 7714
L18788 7694
" />
<path d="M18754 7795
L18896 7653
L18842 7600
L18822 7593
L18808 7593
L18788 7600
L18768 7620
L18761 7640
L18761 7653
L18768 7674
L18822 7728
" />
</g>
<g style="fill:#000000; fill-opacity:0.0; 
stroke:#000000; stroke-width:59.0551; stroke-opacity:1; 
stroke-linecap:round; stroke-linejoin:round;">
<path d="M14649 14783
L14084 14217
" />
<path d="M14084 14217
L12811 15490
" />
<path d="M12811 15490
L13377 16055
" />
<path d="M13377 16055
L14649 14783
" />
<path d="M22280 10886
L22080 11086
" />
<path d="M24080 12686
L23880 12886
" />
<path d="M23880 12886
L23180 12886
" />
<path d="M23180 12886
L22080 11786
" />
<path d="M22080 11786
L22080 11086
" />
<path d="M24080 12686
L24080 11286
" />
<path d="M24080 11286
L23680 10886
" />
<path d="M23680 10886
L22280 10886
" />
<path d="M22234 9017
L22799 9583
" />
<path d="M22799 9583
L21527 10855
" />
<path d="M21527 10855
L20961 10290
" />
<path d="M20961 10290
L22234 9017
" />
<path d="M24108 9631
L23684 10055
" />
<path d="M22977 8217
L24108 9348
" />
<path d="M23684 10055
L22411 8783
" />
<path d="M22411 8783
L22977 8217
" />
<path d="M17984 8768
L16286 8768
" />
<path d="M19398 10183
L19398 11880
" />
<path d="M15155 8768
L15438 8768
" />
<path d="M19398 13011
L19398 12728
" />
<path d="M19398 10183
L17984 8768
" />
<path d="M19398 13011
L14448 17961
" />
<path d="M15155 8768
L10205 13718
" />
<path d="M10205 13718
L14448 17961
" />
<path d="M17280 15168
L16573 15875
" />
<path d="M17987 14461
L20109 16583
" />
<path d="M20109 16583
L19401 17290
" />
<path d="M19401 17290
L18694 17997
" />
<path d="M18694 17997
L16573 15875
" />
<path d="M16573 15875
L15866 16583
" />
<path d="M15866 16583
L17987 18704
" />
<path d="M17987 18704
L18694 17997
" />
<path d="M17987 14461
L17280 15168
" />
<path d="M17280 15168
L19401 17290
" />
<path d="M10330 9504
L11037 8797
" />
<path d="M9623 10211
L7502 8090
" />
<path d="M7502 8090
L8209 7383
" />
<path d="M8209 7383
L8916 6675
" />
<path d="M8916 6675
L11037 8797
" />
<path d="M11037 8797
L11744 8090
" />
<path d="M11744 8090
L9623 5968
" />
<path d="M9623 5968
L8916 6675
" />
<path d="M9623 10211
L10330 9504
" />
<path d="M10330 9504
L8209 7383
" />
<path d="M13330 6604
L14037 5897
" />
<path d="M12623 7311
L10502 5190
" />
<path d="M10502 5190
L11209 4483
" />
<path d="M11209 4483
L11916 3775
" />
<path d="M11916 3775
L14037 5897
" />
<path d="M14037 5897
L14744 5190
" />
<path d="M14744 5190
L12623 3068
" />
<path d="M12623 3068
L11916 3775
" />
<path d="M12623 7311
L13330 6604
" />
<path d="M13330 6604
L11209 4483
" />
</g>
<g style="fill:#000000; fill-opacity:0.0; 
stroke:#000000; stroke-width:150; stroke-opacity:1; 
stroke-linecap:round; stroke-linejoin:round;">
<path d="M22008 5015
L21655 5369
" />
<path d="M21655 5369
L20948 4661
" />
<path d="M20948 4661
L21301 4308
" />
<path d="M23422 6429
L8573 21279
" />
<path d="M8573 21279
L5038 17743
" />
<path d="M5038 17743
L19887 2894
" />
<path d="M19887 2894
L23422 6429
" />
</g>
<g style="fill:#000000; fill-opacity:0.0; 
stroke:#000000; stroke-width:60; stroke-opacity:1; 
stroke-linecap:round; stroke-linejoin:round;">
<path d="M16030 2286
L16030 3286
" />
<path d="M16030 3286
L14030 3286
" />
<path d="M14030 3286
L14030 2286
" />
<path d="M14030 2286
L16030 2286
" />
</g>
<g style="fill:#000000; fill-opacity:0.0; 
stroke:#000000; stroke-width:150; stroke-opacity:1; 
stroke-linecap:round; stroke-linejoin:round;">
<circle cx="22553.4" cy="20413.4" r="900" /> 
<circle cx="6018" cy="3877.95" r="900" /> 
</g>
<g style="fill:#000000; fill-opacity:1.0; 
stroke:#000000; stroke-width:1; stroke-opacity:1; 
stroke-linecap:round; stroke-linejoin:round;">
<polyline style="fill-rule:evenodd;"
points="7426,6944
7425,6967
7425,6990
7403,7013
7357,6967
7311,6921
7264,6874
7218,6921
7172,6967
7218,7013
7264,7059
7310,7013
7357,6967
7403,7013
7356,7059
7287,7128
7264,7128
7241,7128
7172,7059
7103,6990
7103,6967
7103,6943
7172,6875
7241,6805
7264,6806
7288,6805
7357,6875
7426,6944
7426,6944
" /> 
<polyline style="fill-rule:evenodd;"
points="7622,6748
7622,6771
7621,6794
7599,6817
7460,6678
7414,6724
7367,6771
7414,6817
7460,6863
7506,6817
7551,6771
7506,6724
7460,6678
7599,6817
7552,6863
7483,6932
7460,6933
7437,6932
7367,6863
7297,6793
7298,6771
7297,6749
7367,6679
7437,6609
7461,6609
7483,6609
7553,6679
7622,6748
7622,6748
" /> 
<polyline style="fill-rule:evenodd;"
points="7816,6551
7816,6575
7816,6599
7794,6621
7748,6576
7702,6530
7655,6483
7609,6529
7563,6575
7610,6621
7656,6667
7702,6621
7748,6576
7794,6621
7748,6667
7679,6736
7655,6736
7631,6736
7563,6667
7494,6599
7494,6576
7493,6553
7563,6483
7633,6413
7657,6414
7679,6414
7748,6482
7816,6551
7816,6551
" /> 
<polyline style="fill-rule:evenodd;"
points="8013,6357
8012,6380
8012,6403
7990,6426
7944,6380
7898,6334
7851,6287
7804,6334
7758,6380
7804,6426
7814,6435
7822,6443
7830,6451
7837,6458
7843,6464
7847,6468
7850,6470
7851,6471
7852,6470
7855,6468
7860,6463
7866,6457
7872,6451
7881,6443
7889,6434
7898,6426
7944,6380
7990,6426
7943,6472
7874,6542
7851,6542
7828,6541
7759,6472
7690,6403
7690,6380
7690,6356
7759,6287
7829,6217
7851,6218
7873,6217
7943,6287
8013,6357
8013,6357
" /> 
<polyline style="fill-rule:evenodd;"
points="8209,6161
8209,6184
8208,6207
8186,6230
8140,6184
8094,6138
8047,6091
8000,6138
7954,6184
8001,6230
8047,6276
8093,6230
8140,6184
8186,6230
8139,6276
8070,6345
8047,6346
8024,6345
7955,6276
7886,6207
7886,6184
7886,6160
7955,6091
8024,6023
8048,6023
8070,6023
8140,6092
8209,6161
8209,6161
" /> 
<polyline style="fill-rule:evenodd;"
points="9439,4280
9439,4281
9441,4284
9445,4289
9451,4296
9456,4304
9463,4314
9471,4325
9480,4336
9489,4349
9499,4362
9509,4376
9519,4390
9529,4404
9539,4418
9549,4432
9559,4445
9568,4458
9577,4470
9584,4482
9591,4492
9598,4500
9603,4507
9607,4513
9609,4516
9610,4518
9618,4533
9623,4546
9623,4548
9420,4345
9419,4344
9418,4345
9417,4347
9413,4349
9410,4352
9404,4358
9397,4365
9395,4367
9386,4376
9379,4383
9375,4388
9370,4393
9368,4397
9366,4402
9364,4405
9364,4410
9363,4410
9364,4417
9364,4424
9366,4433
9368,4441
9370,4446
9374,4456
9380,4466
9388,4476
9395,4488
9405,4500
9414,4511
9423,4520
9431,4526
9440,4530
9449,4531
9457,4528
9462,4526
9465,4524
9470,4520
9475,4514
9482,4508
9487,4502
9489,4497
9494,4492
9497,4485
9501,4480
9504,4474
9506,4470
9508,4468
9507,4467
9507,4466
9504,4463
9501,4457
9497,4451
9491,4444
9485,4435
9478,4425
9471,4415
9464,4405
9457,4396
9450,4386
9443,4376
9437,4367
9431,4360
9427,4354
9423,4349
9421,4345
9420,4345
9623,4548
9626,4560
9626,4574
9623,4589
9621,4593
9619,4600
9617,4605
9614,4610
9610,4615
9605,4620
9600,4627
9593,4634
9584,4642
9574,4650
9563,4660
9549,4671
9548,4672
9538,4680
9529,4687
9521,4693
9515,4698
9510,4703
9506,4706
9504,4707
9504,4707
9503,4706
9501,4704
9497,4699
9494,4694
9493,4693
9482,4680
9524,4637
9567,4594
9569,4586
9572,4576
9572,4566
9570,4555
9568,4552
9567,4549
9564,4544
9560,4538
9556,4533
9551,4525
9546,4519
9542,4513
9538,4507
9534,4502
9532,4500
9531,4499
9530,4500
9528,4504
9527,4508
9526,4510
9522,4520
9518,4528
9513,4536
9508,4543
9501,4551
9495,4557
9489,4563
9483,4567
9480,4571
9476,4573
9473,4576
9470,4577
9459,4581
9449,4584
9438,4584
9431,4584
9425,4583
9419,4580
9412,4577
9408,4574
9404,4572
9400,4569
9397,4567
9393,4564
9388,4559
9382,4554
9378,4550
9361,4532
9347,4514
9335,4495
9325,4476
9318,4459
9315,4448
9314,4438
9313,4427
9313,4416
9315,4406
9316,4399
9320,4391
9324,4381
9330,4373
9335,4367
9337,4363
9342,4358
9348,4353
9355,4346
9364,4339
9371,4331
9380,4324
9388,4318
9395,4312
9395,4312
9400,4308
9406,4304
9412,4299
9419,4294
9425,4289
9430,4285
9435,4282
9437,4280
9439,4280
9439,4280
" /> 
<polyline style="fill-rule:evenodd;"
points="8697,5137
8707,5146
8714,5156
8724,5168
8729,5175
8738,5190
8746,5204
8753,5216
8756,5228
8760,5240
8760,5242
8762,5257
8761,5272
8760,5275
8660,5175
8654,5169
8648,5165
8644,5161
8642,5159
8633,5156
8624,5154
8616,5154
8608,5156
8583,5182
8557,5208
8600,5268
8608,5279
8616,5290
8623,5300
8630,5309
8635,5316
8639,5323
8643,5327
8644,5330
8645,5330
8648,5330
8652,5329
8657,5327
8664,5324
8670,5320
8677,5315
8683,5310
8686,5308
8689,5305
8694,5300
8697,5295
8698,5294
8705,5285
8708,5274
8709,5265
8709,5254
8705,5245
8702,5238
8698,5229
8693,5219
8687,5209
8681,5200
8676,5195
8672,5189
8666,5182
8660,5175
8760,5275
8757,5286
8751,5300
8741,5313
8730,5326
8720,5335
8706,5344
8693,5353
8681,5359
8679,5360
8675,5361
8671,5364
8669,5364
8669,5364
8671,5366
8673,5369
8676,5374
8681,5380
8685,5388
8693,5396
8699,5405
8705,5414
8712,5424
8719,5434
8726,5443
8731,5452
8737,5459
8742,5465
8746,5470
8748,5474
8749,5475
8749,5477
8746,5479
8742,5484
8737,5489
8731,5494
8731,5495
8712,5514
8710,5511
8709,5510
8707,5506
8702,5501
8698,5494
8691,5485
8683,5475
8675,5462
8666,5448
8654,5434
8644,5418
8632,5402
8620,5385
8607,5367
8605,5364
8591,5346
8579,5328
8567,5312
8556,5296
8545,5282
8536,5268
8527,5256
8520,5245
8513,5236
8508,5228
8504,5223
8501,5219
8500,5216
8500,5216
8501,5216
8503,5212
8506,5208
8507,5207
8516,5195
8526,5182
8538,5169
8550,5155
8562,5142
8570,5134
8577,5127
8582,5122
8586,5118
8589,5115
8592,5113
8594,5111
8596,5110
8606,5105
8614,5103
8623,5100
8628,5101
8640,5102
8652,5105
8664,5110
8676,5118
8688,5129
8697,5137
8697,5137
" /> 
<polyline style="fill-rule:evenodd;"
points="8808,4742
8808,4743
8809,4748
8812,4753
8815,4762
8818,4772
8822,4784
8828,4799
8832,4814
8838,4832
8845,4849
8852,4869
8859,4890
8866,4912
8874,4935
8878,4946
8947,5150
8927,5170
8907,5190
8905,5181
8903,5178
8903,5173
8900,5166
8896,5157
8893,5146
8888,5132
8883,5118
8878,5102
8871,5084
8865,5065
8858,5045
8851,5024
8843,5002
8836,4980
8835,4977
8768,4782
8788,4762
8794,4756
8799,4750
8804,4746
8806,4743
8808,4742
8808,4742
8808,4742
" /> 
<polyline style="fill-rule:evenodd;"
points="8949,4602
8951,4603
8951,4607
8953,4613
8956,4622
8960,4632
8965,4644
8969,4659
8975,4674
8981,4692
8987,4710
8994,4730
9001,4751
9008,4772
9016,4796
9019,4806
9089,5009
9069,5028
9049,5048
9038,5014
9036,5009
9033,5001
9030,4991
9026,4978
9021,4965
9016,4948
9010,4931
9003,4913
8997,4894
8990,4874
8982,4853
8975,4832
8968,4811
8910,4640
8929,4620
8937,4613
8943,4607
8946,4603
8949,4602
8949,4602
8949,4602
" /> 
<polyline style="fill-rule:evenodd;"
points="10590,3198
10600,3210
10608,3222
10613,3235
10617,3249
10617,3260
10617,3268
10615,3277
10613,3285
10609,3294
10557,3242
10550,3236
10544,3234
10537,3233
10535,3234
10530,3237
10522,3242
10515,3249
10508,3256
10503,3260
10498,3268
10492,3277
10489,3284
10488,3292
10489,3300
10491,3309
10495,3319
10501,3331
10508,3344
10510,3345
10511,3346
10511,3347
10513,3346
10516,3345
10519,3342
10524,3337
10530,3331
10535,3326
10541,3319
10547,3313
10551,3309
10554,3304
10556,3300
10556,3299
10563,3287
10566,3275
10568,3265
10566,3256
10561,3247
10557,3242
10609,3294
10608,3297
10602,3309
10595,3321
10593,3323
10589,3328
10583,3336
10576,3343
10568,3350
10561,3357
10554,3364
10547,3369
10545,3369
10540,3373
10537,3376
10535,3377
10535,3377
10535,3379
10538,3382
10541,3386
10542,3388
10551,3396
10557,3403
10564,3406
10571,3408
10578,3406
10585,3403
10590,3399
10596,3395
10602,3390
10609,3383
10617,3375
10625,3366
10634,3357
10641,3348
10648,3340
10653,3333
10658,3327
10662,3322
10665,3318
10667,3316
10667,3315
10669,3316
10671,3319
10675,3324
10678,3328
10682,3333
10685,3337
10688,3341
10689,3344
10689,3345
10688,3350
10685,3355
10680,3362
10675,3369
10670,3377
10665,3386
10658,3394
10655,3397
10640,3415
10624,3430
10614,3441
10604,3449
10595,3455
10587,3459
10578,3461
10570,3462
10566,3461
10556,3460
10547,3457
10537,3452
10526,3445
10515,3435
10508,3429
10498,3417
10486,3404
10477,3390
10467,3376
10458,3362
10450,3348
10445,3336
10440,3323
10438,3313
10438,3299
10439,3285
10443,3270
10451,3256
10460,3242
10465,3237
10470,3229
10478,3222
10486,3214
10494,3208
10500,3201
10505,3198
10518,3189
10530,3184
10542,3180
10553,3179
10559,3180
10567,3182
10573,3185
10580,3189
10587,3195
10590,3198
10590,3198
" /> 
<polyline style="fill-rule:evenodd;"
points="9115,4425
9116,4427
9118,4430
9122,4435
9127,4441
9133,4451
9141,4461
9149,4473
9159,4486
9169,4501
9180,4516
9192,4532
9204,4549
9217,4567
9222,4574
9328,4721
9313,4736
9312,4737
9177,4602
9176,4601
9174,4602
9171,4604
9165,4607
9160,4610
9154,4615
9149,4618
9146,4620
9141,4624
9136,4629
9130,4635
9127,4638
9122,4643
9118,4647
9116,4649
9114,4652
9113,4656
9112,4663
9112,4671
9114,4680
9118,4690
9124,4702
9131,4714
9134,4719
9142,4731
9150,4742
9158,4751
9166,4759
9169,4762
9175,4767
9179,4771
9183,4774
9187,4776
9189,4777
9197,4778
9204,4778
9211,4775
9212,4774
9216,4771
9221,4766
9225,4760
9231,4755
9234,4748
9236,4746
9239,4742
9242,4736
9245,4731
9248,4724
9250,4718
9253,4713
9255,4709
9255,4708
9255,4708
9253,4707
9251,4703
9248,4698
9243,4692
9238,4684
9231,4676
9224,4666
9215,4654
9208,4643
9200,4634
9194,4625
9188,4618
9183,4610
9179,4606
9177,4602
9312,4737
9299,4750
9289,4745
9283,4742
9279,4740
9277,4739
9277,4739
9277,4740
9275,4743
9274,4748
9274,4748
9272,4758
9267,4769
9263,4779
9258,4788
9256,4793
9251,4801
9245,4808
9238,4816
9231,4822
9227,4825
9216,4830
9204,4833
9192,4834
9180,4832
9179,4832
9171,4828
9162,4823
9153,4818
9143,4811
9139,4809
9130,4801
9120,4789
9108,4777
9099,4763
9089,4749
9081,4734
9074,4720
9071,4712
9066,4697
9062,4684
9062,4672
9062,4660
9065,4649
9071,4636
9071,4636
9073,4631
9076,4627
9078,4623
9082,4619
9088,4613
9103,4600
9119,4588
9136,4578
9144,4574
9149,4572
9152,4570
9154,4569
9154,4569
9153,4568
9151,4564
9147,4560
9142,4553
9137,4545
9130,4536
9123,4526
9116,4516
9078,4463
9096,4444
9102,4438
9107,4433
9110,4429
9113,4427
9115,4425
9115,4425
" /> 
<polyline style="fill-rule:evenodd;"
points="9819,3927
9822,3930
9826,3934
9830,3940
9836,3947
9842,3956
9850,3967
9859,3979
9870,3992
9878,4005
9888,4018
9898,4031
9908,4043
9916,4055
9924,4065
9930,4074
9936,4082
9940,4088
9943,4091
9945,4094
9950,4101
9936,4115
9932,4118
9792,3978
9790,3979
9787,3980
9783,3983
9781,3984
9774,3990
9765,3997
9756,4006
9748,4014
9743,4022
9738,4032
9736,4042
9735,4051
9735,4058
9737,4066
9740,4075
9746,4085
9752,4096
9760,4107
9767,4118
9774,4128
9782,4137
9789,4144
9791,4145
9798,4152
9807,4156
9815,4158
9822,4159
9828,4157
9829,4156
9832,4154
9834,4153
9837,4152
9841,4147
9845,4142
9850,4137
9854,4132
9857,4127
9857,4125
9859,4122
9861,4115
9864,4108
9867,4101
9869,4094
9871,4089
9871,4087
9871,4086
9870,4084
9868,4082
9866,4078
9863,4073
9858,4067
9853,4059
9846,4049
9837,4037
9832,4031
9825,4021
9818,4011
9810,4002
9805,3994
9800,3987
9796,3983
9793,3980
9792,3978
9932,4118
9921,4128
9909,4123
9897,4116
9896,4125
9895,4133
9892,4143
9888,4153
9883,4164
9880,4167
9876,4174
9871,4181
9865,4188
9859,4195
9853,4200
9852,4201
9842,4207
9831,4212
9820,4214
9812,4214
9801,4212
9791,4210
9781,4205
9772,4200
9761,4190
9750,4180
9739,4167
9731,4156
9719,4142
9711,4129
9704,4118
9698,4106
9693,4094
9690,4082
9689,4080
9686,4067
9685,4055
9686,4043
9687,4032
9690,4027
9692,4019
9696,4011
9700,4004
9705,3997
9711,3990
9716,3984
9724,3974
9733,3966
9743,3959
9753,3949
9763,3944
9774,3937
9782,3932
9790,3928
9798,3925
9801,3925
9804,3924
9806,3923
9808,3922
9810,3922
9813,3922
9814,3924
9816,3925
9819,3927
9819,3927
" /> 
<polyline style="fill-rule:evenodd;"
points="10053,3669
10055,3671
10058,3676
10061,3681
10065,3686
10069,3689
10071,3693
10072,3695
10072,3695
10071,3697
10069,3699
10064,3703
10059,3708
10052,3714
10049,3717
10039,3726
10029,3736
10020,3745
10012,3753
10005,3760
9999,3765
9996,3770
9994,3772
9991,3779
9990,3787
9990,3796
9991,3798
9994,3806
9998,3815
10004,3826
10010,3837
10017,3848
10025,3859
10032,3869
10040,3879
10047,3887
10055,3893
10061,3898
10064,3900
10071,3901
10079,3902
10087,3900
10090,3898
10094,3896
10099,3891
10105,3884
10114,3876
10122,3867
10131,3857
10141,3847
10144,3843
10151,3836
10156,3830
10160,3826
10163,3822
10165,3819
10166,3819
10167,3820
10170,3823
10173,3827
10176,3832
10177,3833
10187,3847
10180,3857
10170,3874
10159,3891
10149,3903
10145,3908
10139,3914
10134,3920
10128,3927
10122,3933
10117,3938
10112,3942
10110,3944
10105,3947
10098,3950
10090,3953
10085,3954
10084,3955
10071,3956
10058,3954
10045,3950
10038,3947
10035,3945
10031,3943
10028,3941
10024,3937
10020,3933
10014,3927
10012,3925
9994,3906
9978,3886
9964,3864
9953,3843
9948,3832
9943,3818
9939,3804
9938,3791
9939,3779
9943,3767
9948,3756
9957,3744
9968,3733
9982,3720
9982,3720
9989,3714
9997,3707
10006,3700
10015,3693
10024,3687
10032,3681
10039,3676
10045,3672
10049,3670
10052,3669
10053,3669
10053,3669
" /> 
<polyline style="fill-rule:evenodd;"
points="10228,3512
10294,3601
10305,3614
10314,3628
10323,3640
10332,3651
10339,3662
10346,3671
10351,3678
10356,3683
10358,3688
10361,3690
10361,3690
10359,3691
10357,3693
10353,3698
10349,3702
10346,3704
10343,3707
10205,3570
10203,3569
10200,3569
10197,3570
10193,3573
10188,3575
10187,3576
10183,3579
10178,3584
10172,3590
10165,3596
10160,3602
10156,3608
10153,3611
10148,3622
10146,3633
10146,3645
10148,3655
10151,3664
10157,3676
10163,3686
10171,3698
10179,3709
10187,3720
10195,3728
10203,3736
10204,3737
10212,3742
10220,3746
10227,3748
10231,3748
10236,3746
10243,3743
10249,3738
10255,3732
10262,3724
10267,3717
10269,3712
10273,3705
10276,3698
10278,3691
10279,3683
10281,3678
10281,3674
10281,3672
10279,3669
10276,3666
10272,3661
10268,3654
10262,3646
10255,3637
10248,3628
10242,3619
10235,3609
10228,3601
10222,3592
10216,3585
10211,3579
10208,3574
10206,3570
10205,3570
10343,3707
10332,3718
10320,3712
10308,3706
10307,3714
10303,3727
10299,3741
10293,3755
10284,3768
10274,3779
10264,3789
10259,3793
10247,3799
10235,3803
10222,3803
10209,3802
10197,3797
10183,3790
10182,3789
10177,3785
10170,3777
10162,3770
10154,3761
10146,3751
10137,3741
10129,3730
10124,3722
10116,3710
10110,3697
10104,3683
10100,3671
10097,3659
10095,3651
10096,3637
10098,3623
10103,3608
10110,3596
10113,3589
10119,3582
10124,3575
10131,3567
10138,3560
10144,3555
10146,3553
10151,3548
10158,3543
10166,3538
10174,3533
10182,3528
10189,3524
10194,3521
10195,3520
10204,3517
10212,3514
10220,3512
10223,3512
10228,3512
10228,3512
" /> 
<polyline style="fill-rule:evenodd;"
points="10797,2923
10798,2924
10800,2926
10803,2930
10807,2935
10810,2940
10814,2944
10816,2947
10816,2947
10818,2951
10797,2969
10789,2977
10780,2985
10771,2994
10762,3002
10757,3007
10751,3014
10746,3019
10742,3022
10740,3026
10738,3028
10737,3030
10737,3032
10735,3039
10735,3046
10736,3054
10740,3062
10744,3072
10748,3079
10757,3094
10766,3108
10775,3121
10784,3132
10793,3142
10797,3146
10803,3150
10806,3152
10810,3155
10814,3156
10821,3157
10829,3157
10834,3154
10839,3151
10844,3146
10850,3140
10857,3133
10866,3123
10875,3114
10885,3104
10890,3097
10896,3091
10901,3085
10906,3080
10909,3076
10911,3075
10911,3074
10912,3075
10915,3077
10918,3082
10921,3087
10925,3092
10928,3096
10930,3099
10931,3101
10931,3102
10931,3104
10928,3108
10926,3114
10922,3118
10918,3126
10914,3132
10911,3136
10905,3145
10897,3155
10890,3164
10881,3174
10873,3182
10865,3190
10857,3196
10851,3201
10848,3202
10837,3208
10824,3210
10812,3210
10799,3208
10797,3207
10788,3204
10781,3200
10775,3196
10769,3191
10762,3184
10758,3181
10740,3161
10723,3140
10709,3118
10704,3109
10696,3093
10689,3077
10686,3063
10684,3050
10684,3038
10687,3025
10692,3013
10694,3010
10699,3003
10706,2995
10714,2987
10723,2978
10734,2969
10747,2959
10759,2949
10771,2940
10784,2931
10785,2930
10790,2927
10795,2925
10797,2923
10797,2923
10797,2923
" /> 
<polyline style="fill-rule:evenodd;"
points="10973,2769
10975,2771
10978,2774
10981,2778
10985,2783
10990,2789
10996,2797
11003,2806
11011,2817
11020,2830
11032,2845
11038,2854
11049,2867
11059,2882
11068,2894
11076,2905
11083,2915
11090,2924
11096,2932
11100,2937
11103,2942
11104,2943
11104,2943
11104,2945
11103,2947
11100,2950
11095,2955
11091,2959
11088,2962
10950,2824
10949,2823
10947,2824
10944,2825
10938,2828
10938,2829
10926,2836
10916,2845
10907,2855
10899,2865
10894,2876
10892,2881
10891,2889
10891,2898
10892,2908
10896,2917
10902,2928
10909,2942
10919,2955
10920,2958
10931,2972
10941,2983
10950,2993
10959,2998
10968,3002
10975,3003
10979,3002
10986,2999
10994,2994
11002,2986
11008,2977
11013,2969
11017,2961
11022,2951
11025,2941
11027,2928
10990,2878
10982,2867
10975,2858
10968,2849
10962,2841
10957,2834
10954,2829
10952,2826
10951,2825
10950,2824
11088,2962
11077,2972
11065,2967
11054,2961
11051,2974
11046,2988
11041,3002
11033,3017
11024,3029
11014,3041
11008,3045
10997,3052
10986,3056
10974,3058
10971,3058
10960,3058
10949,3055
10939,3051
10928,3044
10918,3035
10907,3024
10902,3019
10888,3002
10876,2988
10867,2973
10858,2959
10851,2943
10848,2932
10845,2924
10843,2918
10841,2912
10841,2907
10841,2901
10841,2898
10841,2888
10843,2879
10845,2872
10848,2862
10852,2855
10857,2847
10862,2839
10869,2831
10877,2822
10882,2818
10888,2812
10894,2806
10898,2802
10904,2797
10910,2794
10912,2792
10919,2788
10926,2783
10933,2780
10938,2776
10945,2773
10952,2771
10960,2768
10967,2767
10970,2766
10970,2766
10971,2767
10972,2768
10973,2769
10973,2769
" /> 
<polyline style="fill-rule:evenodd;"
points="8255,5533
8258,5535
8262,5541
8268,5549
8275,5559
8285,5571
8295,5586
8308,5603
8312,5608
8321,5621
8329,5632
8337,5643
8344,5653
8350,5662
8356,5669
8360,5675
8362,5678
8364,5680
8364,5680
8367,5684
8347,5703
8328,5722
8327,5719
8325,5716
8321,5711
8316,5704
8311,5696
8304,5687
8297,5677
8289,5666
8282,5656
8273,5644
8265,5633
8257,5622
8250,5612
8242,5603
8236,5595
8231,5588
8227,5583
8224,5580
8223,5578
8217,5573
8212,5570
8206,5569
8200,5569
8198,5569
8196,5570
8193,5571
8191,5574
8188,5576
8184,5581
8181,5583
8175,5590
8170,5596
8166,5603
8162,5610
8159,5618
8156,5627
8155,5631
8149,5646
8199,5716
8208,5728
8217,5740
8225,5750
8232,5760
8239,5769
8244,5777
8248,5784
8252,5787
8253,5789
8253,5789
8256,5794
8237,5813
8231,5820
8226,5825
8222,5828
8219,5830
8218,5831
8217,5830
8217,5830
8215,5826
8210,5820
8205,5813
8199,5805
8191,5794
8183,5781
8173,5769
8163,5755
8152,5739
8140,5723
8127,5706
8115,5688
8111,5682
8005,5537
8023,5518
8029,5512
8034,5507
8039,5504
8041,5501
8043,5500
8043,5500
8044,5501
8046,5505
8050,5510
8055,5516
8060,5525
8067,5533
8075,5543
8082,5554
8084,5557
8092,5568
8100,5578
8106,5588
8113,5597
8118,5603
8122,5609
8125,5613
8126,5615
8126,5615
8127,5614
8128,5611
8129,5609
8133,5595
8137,5583
8140,5574
8144,5564
8148,5557
8152,5550
8158,5543
8163,5537
8169,5530
8174,5526
8178,5523
8182,5521
8193,5515
8205,5512
8216,5512
8228,5514
8239,5520
8250,5528
8255,5533
8255,5533
" /> 
<polyline style="fill-rule:evenodd;"
points="8347,5361
8349,5364
8351,5367
8355,5372
8359,5378
8360,5379
8372,5395
8350,5416
8329,5438
8361,5482
8372,5497
8381,5511
8389,5521
8397,5530
8403,5537
8408,5543
8413,5547
8416,5551
8420,5553
8423,5554
8426,5554
8429,5554
8432,5552
8437,5550
8442,5547
8449,5545
8450,5544
8456,5540
8461,5538
8464,5537
8466,5536
8467,5537
8468,5537
8469,5539
8472,5543
8475,5547
8478,5551
8486,5563
8470,5580
8465,5586
8458,5591
8454,5595
8449,5600
8448,5601
8437,5606
8427,5610
8416,5610
8406,5609
8405,5608
8400,5606
8396,5604
8391,5601
8386,5597
8381,5593
8375,5588
8369,5580
8362,5571
8354,5561
8345,5549
8334,5535
8330,5528
8322,5519
8315,5509
8309,5501
8303,5493
8299,5487
8296,5482
8293,5479
8293,5479
8291,5475
8276,5490
8270,5496
8265,5500
8262,5503
8260,5503
8259,5501
8256,5499
8253,5494
8251,5491
8242,5479
8246,5472
8248,5468
8251,5463
8256,5457
8257,5453
8260,5448
8263,5444
8265,5441
8265,5439
8264,5438
8263,5436
8260,5430
8257,5424
8255,5421
8251,5412
8246,5405
8242,5397
8239,5390
8239,5389
8231,5376
8246,5361
8253,5355
8257,5351
8260,5349
8262,5347
8263,5348
8264,5349
8266,5353
8270,5357
8274,5364
8280,5371
8282,5374
8287,5381
8292,5388
8297,5393
8299,5397
8301,5400
8302,5400
8302,5400
8304,5400
8305,5400
8307,5398
8311,5395
8315,5390
8321,5384
8324,5381
8331,5374
8336,5369
8340,5365
8343,5364
8345,5362
8346,5361
8347,5361
8347,5361
8347,5361
" /> 
<polyline style="fill-rule:evenodd;"
points="8470,5238
8471,5241
8474,5244
8478,5249
8482,5255
8483,5257
8493,5272
8472,5293
8466,5301
8460,5306
8456,5310
8453,5315
8451,5316
8451,5316
8453,5318
8455,5321
8458,5326
8463,5332
8469,5339
8475,5349
8483,5359
8484,5360
8495,5375
8504,5388
8512,5398
8519,5408
8525,5415
8531,5421
8535,5425
8538,5429
8542,5431
8545,5431
8548,5431
8551,5431
8553,5431
8557,5429
8562,5426
8568,5423
8573,5421
8579,5417
8584,5414
8587,5414
8589,5412
8589,5413
8591,5417
8594,5421
8598,5426
8598,5426
8602,5431
8606,5436
8608,5438
8609,5440
8608,5441
8606,5444
8602,5448
8598,5453
8592,5458
8587,5463
8582,5468
8577,5472
8573,5476
8571,5478
8560,5484
8549,5487
8538,5488
8528,5486
8517,5481
8507,5473
8495,5463
8494,5462
8491,5458
8487,5453
8482,5446
8475,5438
8469,5429
8461,5418
8454,5409
8451,5405
8444,5395
8437,5385
8431,5376
8425,5368
8420,5363
8417,5359
8415,5356
8415,5356
8414,5355
8413,5354
8411,5355
8409,5357
8405,5361
8401,5365
8398,5368
8384,5383
8375,5371
8372,5366
8369,5362
8367,5359
8367,5357
8366,5356
8367,5354
8368,5350
8371,5346
8375,5339
8376,5337
8381,5328
8384,5323
8386,5318
8386,5316
8386,5315
8386,5314
8383,5310
8380,5304
8376,5298
8372,5289
8370,5284
8355,5255
8369,5239
8384,5224
8387,5228
8390,5232
8394,5238
8399,5244
8405,5251
8409,5258
8414,5265
8418,5270
8422,5274
8425,5278
8425,5279
8425,5279
8427,5278
8429,5276
8434,5272
8439,5266
8445,5260
8447,5258
8454,5251
8459,5246
8463,5242
8466,5240
8468,5239
8468,5238
8470,5238
8470,5238
8470,5238
" /> 
<polyline style="fill-rule:evenodd;"
points="8830,5150
8831,5153
8835,5156
8838,5161
8842,5167
8844,5170
8850,5177
8852,5183
8855,5187
8856,5190
8854,5194
8851,5198
8847,5203
8841,5209
8835,5216
8830,5220
8827,5224
8825,5224
8823,5226
8822,5226
8818,5226
8815,5223
8812,5220
8809,5216
8805,5210
8801,5204
8796,5199
8793,5194
8790,5190
8790,5188
8789,5186
8789,5183
8791,5180
8794,5176
8797,5171
8804,5165
8805,5163
8812,5156
8817,5153
8821,5149
8824,5149
8826,5148
8829,5149
8830,5150
8830,5150
" /> 
<polyline style="fill-rule:evenodd;"
points="9253,4453
9254,4454
9257,4457
9261,4463
9265,4470
9272,4478
9278,4487
9286,4497
9294,4509
9303,4521
9312,4533
9322,4546
9330,4559
9340,4572
9349,4584
9358,4596
9366,4607
9373,4618
9380,4627
9385,4635
9390,4642
9394,4647
9396,4649
9396,4650
9397,4651
9398,4651
9396,4653
9395,4655
9393,4658
9388,4662
9383,4668
9380,4671
9373,4678
9368,4683
9364,4686
9361,4688
9361,4688
9359,4688
9359,4687
9357,4684
9352,4678
9348,4671
9341,4663
9334,4653
9325,4642
9317,4629
9307,4616
9297,4602
9286,4589
9215,4490
9234,4471
9240,4466
9245,4461
9249,4456
9253,4454
9253,4453
9253,4453
" /> 
<polyline style="fill-rule:evenodd;"
points="9504,4203
9562,4282
9571,4297
9581,4309
9591,4323
9600,4335
9608,4347
9616,4358
9623,4367
9628,4374
9632,4380
9634,4382
9649,4402
9629,4421
9610,4440
9608,4437
9607,4435
9605,4432
9600,4426
9596,4418
9589,4410
9581,4400
9573,4388
9564,4376
9554,4363
9544,4348
9536,4338
9526,4323
9516,4309
9506,4296
9498,4284
9489,4272
9483,4263
9477,4255
9472,4248
9469,4243
9467,4241
9466,4241
9467,4239
9470,4236
9473,4232
9479,4227
9484,4221
9484,4221
9504,4203
9504,4203
" /> 
<polyline style="fill-rule:evenodd;"
points="9634,4072
9647,4089
9659,4107
9638,4128
9617,4151
9649,4195
9660,4210
9669,4222
9676,4231
9683,4240
9689,4247
9693,4253
9697,4257
9701,4260
9704,4263
9707,4264
9707,4264
9710,4265
9714,4266
9717,4265
9721,4264
9728,4261
9736,4257
9739,4255
9745,4252
9749,4249
9752,4249
9755,4249
9757,4251
9760,4255
9764,4261
9766,4263
9774,4275
9758,4292
9752,4298
9746,4303
9741,4308
9737,4312
9736,4313
9725,4318
9714,4322
9704,4323
9693,4321
9682,4316
9672,4308
9664,4300
9661,4297
9657,4293
9653,4288
9648,4282
9643,4275
9636,4266
9628,4255
9620,4243
9619,4242
9611,4231
9604,4222
9598,4214
9592,4205
9588,4200
9584,4195
9582,4191
9581,4190
9579,4188
9564,4202
9559,4207
9554,4212
9551,4214
9549,4216
9549,4216
9547,4214
9545,4211
9542,4207
9539,4203
9530,4191
9533,4185
9536,4181
9539,4175
9543,4169
9545,4165
9548,4160
9551,4156
9552,4153
9552,4152
9552,4151
9550,4147
9547,4142
9544,4136
9542,4131
9538,4124
9533,4115
9530,4108
9526,4101
9525,4100
9519,4089
9534,4074
9540,4068
9544,4064
9547,4062
9549,4060
9550,4060
9551,4060
9552,4062
9554,4065
9558,4070
9563,4076
9568,4084
9571,4086
9576,4094
9581,4101
9584,4106
9588,4111
9589,4112
9590,4113
9591,4113
9592,4112
9594,4111
9598,4108
9602,4103
9608,4098
9612,4093
9634,4072
9634,4072
" /> 
<polyline style="fill-rule:evenodd;"
points="10034,3967
10035,3968
10037,3971
10040,3975
10043,3979
10047,3984
10051,3988
10053,3992
10053,3992
10055,3995
10040,4011
10033,4017
10028,4022
10023,4026
10019,4030
10018,4031
10008,4037
9997,4041
9987,4042
9977,4040
9972,4039
9962,4034
9952,4028
9943,4019
9938,4014
9937,4013
9934,4009
9929,4002
9924,3995
9917,3986
9910,3976
9902,3965
9892,3953
9883,3939
9873,3926
9863,3912
9853,3898
9842,3884
9832,3870
9822,3856
9813,3843
9804,3831
9796,3819
9788,3809
9781,3799
9775,3792
9771,3785
9768,3780
9766,3778
9765,3777
9767,3776
9769,3773
9772,3769
9778,3763
9784,3758
9784,3758
9803,3740
9883,3850
9896,3867
9907,3884
9919,3898
9927,3911
9936,3922
9942,3932
9948,3939
9954,3946
9958,3952
9962,3957
9965,3961
9968,3965
9970,3967
9973,3970
9975,3972
9987,3985
9994,3985
9998,3985
10002,3983
10007,3981
10014,3977
10017,3975
10023,3972
10028,3970
10032,3968
10034,3967
10034,3967
10034,3967
" /> 
<polyline style="fill-rule:evenodd;"
points="10398,3331
10404,3339
10410,3348
10415,3355
10416,3357
10418,3362
10421,3369
10424,3379
10427,3390
10431,3403
10436,3416
10441,3431
10445,3447
10450,3463
10452,3464
10484,3565
10461,3589
10454,3596
10448,3602
10443,3607
10440,3611
10437,3612
10437,3612
10436,3612
10432,3610
10426,3606
10419,3601
10411,3596
10400,3588
10389,3581
10376,3572
10363,3563
10348,3554
10334,3544
10318,3534
10305,3525
10290,3516
10278,3508
10266,3500
10256,3493
10247,3488
10240,3483
10235,3479
10232,3478
10230,3476
10231,3476
10234,3473
10238,3468
10243,3463
10249,3456
10250,3456
10270,3437
10344,3488
10357,3497
10370,3505
10380,3513
10391,3519
10400,3526
10408,3531
10414,3535
10418,3538
10421,3539
10421,3539
10421,3539
10420,3536
10419,3530
10416,3523
10414,3514
10409,3504
10407,3493
10402,3481
10398,3468
10394,3456
10390,3443
10385,3432
10381,3419
10378,3408
10374,3399
10371,3391
10368,3384
10366,3379
10365,3376
10362,3370
10358,3365
10356,3361
10355,3360
10351,3355
10368,3338
10386,3321
10392,3325
10398,3331
10398,3331
" /> 
<polyline style="fill-rule:evenodd;"
points="10736,3244
10738,3246
10741,3250
10745,3255
10749,3261
10753,3266
10757,3272
10759,3277
10762,3280
10762,3281
10763,3283
10762,3286
10760,3289
10757,3293
10752,3298
10746,3304
10740,3310
10736,3314
10733,3316
10730,3319
10728,3319
10725,3319
10722,3317
10721,3316
10718,3312
10715,3309
10711,3303
10706,3297
10703,3291
10699,3286
10697,3283
10697,3281
10696,3278
10696,3276
10697,3274
10699,3270
10702,3266
10707,3261
10711,3257
10717,3251
10721,3247
10725,3244
10727,3243
10729,3242
10730,3242
10731,3242
10735,3242
10736,3244
10736,3244
" /> 
<polyline style="fill-rule:evenodd;"
points="7034,6943
7034,6967
7034,6990
7011,7013
6965,6967
6919,6921
6872,6874
6826,6921
6780,6967
6826,7013
6872,7059
6918,7013
6965,6967
7011,7013
6964,7059
6895,7128
6872,7128
6850,7128
6781,7059
6711,6989
6711,6967
6711,6944
6780,6875
6849,6805
6872,6805
6896,6805
6965,6875
7034,6943
7034,6943
" /> 
<polyline style="fill-rule:evenodd;"
points="8719,4999
8722,5003
8726,5009
8733,5016
8734,5017
8738,5025
8742,5030
8744,5035
8745,5038
8743,5041
8743,5043
8740,5046
8737,5050
8732,5055
8727,5060
8722,5064
8717,5069
8714,5071
8713,5071
8709,5074
8707,5074
8707,5074
8705,5071
8702,5068
8698,5064
8694,5058
8693,5057
8688,5050
8684,5044
8682,5040
8679,5038
8678,5035
8678,5034
8678,5032
8678,5032
8678,5030
8678,5028
8680,5027
8682,5023
8685,5020
8690,5015
8693,5012
8699,5006
8704,5001
8709,4998
8711,4996
8712,4996
8714,4996
8716,4997
8719,4999
8719,4999
" /> 
<polyline style="fill-rule:evenodd;"
points="9208,4386
9221,4403
9228,4411
9231,4417
9234,4422
9236,4426
9236,4429
9235,4431
9235,4432
9233,4434
9229,4438
9225,4442
9221,4448
9216,4453
9210,4457
9207,4461
9204,4463
9203,4464
9200,4465
9196,4466
9195,4465
9193,4464
9191,4462
9189,4460
9185,4455
9181,4449
9180,4446
9174,4439
9170,4434
9168,4429
9167,4425
9168,4422
9171,4417
9174,4412
9180,4407
9183,4403
9189,4398
9194,4393
9197,4390
9200,4388
9202,4386
9203,4386
9204,4386
9208,4386
9208,4386
" /> 
<polyline style="fill-rule:evenodd;"
points="9460,4138
9463,4142
9467,4147
9471,4152
9475,4158
9480,4164
9483,4169
9485,4172
9487,4175
9487,4175
9486,4178
9484,4181
9484,4182
9482,4185
9478,4189
9474,4195
9469,4200
9463,4205
9458,4210
9454,4213
9451,4214
9451,4214
9447,4216
9444,4214
9443,4213
9439,4210
9436,4205
9431,4198
9427,4193
9423,4188
9419,4183
9417,4179
9417,4178
9417,4176
9417,4172
9419,4169
9422,4166
9427,4160
9434,4153
9434,4152
9441,4145
9446,4140
9451,4137
9453,4136
9455,4135
9458,4136
9458,4136
9460,4138
9460,4138
" /> 
<polyline style="fill-rule:evenodd;"
points="6838,6747
6838,6771
6838,6794
6815,6817
6769,6771
6723,6724
6677,6678
6631,6724
6585,6771
6631,6817
6677,6863
6723,6817
6769,6771
6815,6817
6768,6863
6699,6933
6677,6933
6654,6933
6584,6863
6515,6793
6515,6771
6515,6748
6584,6679
6653,6609
6676,6609
6700,6609
6768,6678
6838,6747
6838,6747
" /> 
<polyline style="fill-rule:evenodd;"
points="7230,6356
7230,6379
7230,6402
7207,6425
7161,6379
7115,6333
7068,6288
7022,6333
6976,6379
7022,6425
7068,6472
7115,6425
7161,6379
7207,6425
7160,6472
7090,6542
7068,6541
7046,6542
6976,6472
6907,6402
6906,6379
6907,6356
6976,6287
7045,6218
7068,6217
7092,6218
7160,6286
7230,6356
7230,6356
" /> 
<polyline style="fill-rule:evenodd;"
points="7425,6160
7426,6183
7425,6206
7402,6230
7356,6184
7309,6137
7263,6091
7218,6137
7172,6183
7218,6229
7264,6276
7310,6230
7356,6184
7402,6230
7356,6276
7286,6346
7263,6345
7240,6345
7172,6276
7103,6208
7103,6184
7103,6160
7172,6091
7240,6023
7264,6023
7288,6023
7357,6091
7425,6160
7425,6160
" /> 
<polyline style="fill-rule:evenodd;"
points="7622,5966
7621,5988
7622,6010
7598,6034
7552,5988
7505,5941
7459,5895
7413,5941
7368,5988
7413,6035
7459,6081
7505,6035
7552,5988
7598,6034
7552,6080
7482,6150
7459,6149
7436,6149
7367,6080
7297,6011
7297,5988
7298,5965
7367,5896
7436,5827
7459,5827
7483,5827
7552,5896
7622,5966
7622,5966
" /> 
<polyline style="fill-rule:evenodd;"
points="7816,5769
7817,5792
7816,5815
7794,5838
7748,5792
7701,5745
7655,5699
7609,5745
7564,5792
7609,5839
7655,5885
7701,5839
7748,5792
7794,5838
7747,5885
7679,5953
7654,5953
7632,5953
7563,5884
7493,5815
7493,5792
7494,5769
7563,5699
7632,5631
7655,5630
7679,5631
7747,5699
7816,5769
7816,5769
" /> 
<polyline style="fill-rule:evenodd;"
points="6643,6553
6643,6576
6643,6599
6620,6621
6573,6575
6527,6529
6481,6483
6435,6530
6389,6576
6435,6621
6481,6667
6527,6621
6573,6575
6620,6621
6574,6667
6505,6736
6481,6736
6457,6736
6388,6667
6319,6597
6319,6575
6319,6551
6388,6483
6457,6414
6480,6414
6503,6413
6573,6483
6643,6553
6643,6553
" /> 
<polyline style="fill-rule:evenodd;"
points="7816,5377
7816,5401
7816,5425
7795,5447
7748,5400
7702,5354
7656,5308
7610,5354
7563,5401
7609,5447
7655,5493
7702,5446
7748,5400
7795,5447
7748,5494
7679,5562
7657,5562
7633,5563
7563,5493
7493,5423
7493,5400
7494,5377
7563,5308
7632,5239
7655,5238
7678,5238
7747,5308
7816,5377
7816,5377
" /> 
<polyline style="fill-rule:evenodd;"
points="6643,6160
6643,6184
6643,6207
6620,6230
6481,6091
6435,6138
6389,6184
6435,6230
6481,6276
6527,6230
6573,6184
6527,6137
6481,6091
6620,6230
6573,6276
6504,6346
6481,6346
6458,6345
6389,6276
6319,6206
6319,6184
6319,6162
6389,6092
6458,6023
6481,6023
6505,6023
6574,6092
6643,6160
6643,6160
" /> 
<polyline style="fill-rule:evenodd;"
points="6838,5964
6838,5988
6838,6012
6816,6034
6677,5895
6631,5941
6585,5988
6631,6035
6677,6081
6723,6035
6768,5988
6723,5941
6677,5895
6816,6034
6769,6081
6701,6149
6677,6150
6654,6149
6585,6080
6515,6010
6515,5988
6515,5966
6585,5896
6654,5827
6678,5827
6701,5827
6769,5895
6838,5964
6838,5964
" /> 
<polyline style="fill-rule:evenodd;"
points="7034,5768
7034,5792
7034,5816
7011,5839
6965,5793
6919,5747
6872,5700
6826,5746
6781,5792
6827,5839
6873,5885
6919,5839
6965,5793
7011,5839
6965,5885
6896,5953
6872,5953
6848,5953
6780,5885
6711,5816
6711,5793
6711,5770
6781,5700
6851,5630
6874,5631
6896,5631
6965,5699
7034,5768
7034,5768
" /> 
<polyline style="fill-rule:evenodd;"
points="7230,5574
7230,5598
7230,5620
7207,5643
7161,5597
7115,5551
7068,5504
7022,5551
6976,5597
7022,5643
7031,5652
7039,5661
7047,5668
7054,5675
7060,5681
7064,5685
7068,5687
7068,5688
7069,5687
7072,5685
7077,5680
7083,5675
7090,5668
7098,5660
7106,5651
7115,5643
7161,5597
7207,5643
7161,5689
7092,5757
7068,5757
7044,5757
6976,5689
6907,5620
6907,5598
6906,5574
6976,5504
7046,5434
7068,5435
7090,5434
7160,5504
7230,5574
7230,5574
" /> 
<polyline style="fill-rule:evenodd;"
points="7621,5182
7622,5205
7621,5228
7599,5251
7460,5113
7414,5158
7367,5205
7414,5252
7460,5298
7506,5252
7551,5205
7506,5158
7460,5113
7599,5251
7553,5297
7483,5366
7460,5367
7437,5366
7367,5297
7297,5227
7298,5205
7297,5183
7367,5113
7437,5043
7461,5044
7483,5044
7553,5113
7621,5182
7621,5182
" /> 
<polyline style="fill-rule:evenodd;"
points="7425,4986
7426,5009
7425,5033
7403,5055
7357,5009
7310,4963
7264,4917
7218,4963
7172,5009
7218,5055
7264,5102
7311,5055
7357,5009
7403,5055
7357,5101
7288,5170
7264,5171
7241,5170
7172,5101
7103,5033
7103,5009
7103,4986
7172,4917
7242,4847
7264,4847
7288,4848
7357,4917
7425,4986
7425,4986
" /> 
<polyline style="fill-rule:evenodd;"
points="6251,5769
6250,5792
6251,5815
6228,5838
6182,5792
6136,5745
6090,5699
6043,5746
5997,5792
6043,5838
6090,5885
6136,5839
6182,5792
6228,5838
6182,5885
6112,5954
6089,5953
6066,5953
5997,5884
5928,5815
5928,5792
5928,5769
5997,5700
6067,5630
6090,5630
6112,5630
6182,5699
6251,5769
6251,5769
" /> 
<polyline style="fill-rule:evenodd;"
points="6447,5573
6447,5595
6447,5620
6423,5643
6377,5596
6331,5550
6286,5505
6239,5550
6193,5596
6239,5642
6286,5689
6331,5643
6377,5596
6423,5643
6377,5689
6309,5757
6285,5757
6262,5757
6193,5688
6124,5619
6124,5596
6124,5574
6194,5504
6263,5434
6286,5434
6308,5434
6377,5504
6447,5573
6447,5573
" /> 
<polyline style="fill-rule:evenodd;"
points="6643,5377
6643,5400
6643,5423
6619,5447
6573,5401
6527,5354
6481,5308
6435,5354
6389,5400
6435,5446
6481,5493
6527,5447
6573,5401
6619,5447
6573,5493
6503,5563
6480,5562
6457,5562
6388,5493
6319,5424
6319,5401
6319,5378
6388,5309
6457,5240
6481,5240
6505,5240
6574,5308
6643,5377
6643,5377
" /> 
<polyline style="fill-rule:evenodd;"
points="6838,5182
6837,5205
6838,5228
6815,5251
6769,5205
6723,5158
6677,5113
6631,5158
6585,5205
6631,5252
6677,5298
6723,5252
6769,5205
6815,5251
6768,5298
6699,5367
6676,5366
6653,5366
6584,5297
6515,5228
6515,5205
6515,5183
6584,5113
6653,5044
6677,5043
6699,5043
6768,5113
6838,5182
6838,5182
" /> 
<polyline style="fill-rule:evenodd;"
points="7034,4986
7034,5009
7034,5033
7011,5055
6965,5009
6918,4963
6872,4917
6826,4963
6780,5009
6826,5055
6872,5102
6918,5056
6965,5009
7011,5055
6964,5102
6896,5170
6872,5170
6849,5170
6780,5101
6711,5032
6711,5009
6711,4987
6780,4917
6850,4847
6872,4847
6895,4847
6964,4917
7034,4986
7034,4986
" /> 
</g>
<g style="fill:#000000; fill-opacity:0.0; 
stroke:#000000; stroke-width:59.0551; stroke-opacity:1; 
stroke-linecap:round; stroke-linejoin:round;">
<circle cx="5580.6" cy="7486.61" r="1000" /> 
<path d="M13477 9890
L13300 10066
" />
<path d="M14184 9183
L14360 9006
" />
<path d="M14007 9006
L13300 9713
" />
<path d="M13300 9713
L13653 10066
" />
<path d="M13653 10066
L14360 9359
" />
<path d="M14360 9359
L14007 9006
" />
<path d="M18527 10540
L18350 10716
" />
<path d="M19234 9833
L19410 9656
" />
<path d="M19057 9656
L18350 10363
" />
<path d="M18350 10363
L18703 10716
" />
<path d="M18703 10716
L19410 10009
" />
<path d="M19410 10009
L19057 9656
" />
<path d="M16984 12033
L17160 11856
" />
<path d="M16277 12740
L16100 12916
" />
<path d="M16453 12916
L17160 12209
" />
<path d="M17160 12209
L16807 11856
" />
<path d="M16807 11856
L16100 12563
" />
<path d="M16100 12563
L16453 12916
" />
<path d="M5150 12406
L5150 12156
" />
<path d="M5150 13406
L5150 13656
" />
<path d="M4900 13406
L4900 12406
" />
<path d="M4900 12406
L5400 12406
" />
<path d="M5400 12406
L5400 13406
" />
<path d="M5400 13406
L4900 13406
" />
<path d="M7684 12858
L7860 12681
" />
<path d="M6977 13565
L6800 13741
" />
<path d="M6800 13388
L7507 12681
" />
<path d="M7507 12681
L7860 13034
" />
<path d="M7860 13034
L7153 13741
" />
<path d="M7153 13741
L6800 13388
" />
<path d="M5880 13186
L5880 12936
" />
<path d="M5880 14186
L5880 14436
" />
<path d="M5630 14186
L5630 13186
" />
<path d="M5630 13186
L6130 13186
" />
<path d="M6130 13186
L6130 14186
" />
<path d="M6130 14186
L5630 14186
" />
<path d="M13477 20383
L13300 20206
" />
<path d="M14184 21090
L14360 21266
" />
<path d="M14007 21266
L13300 20559
" />
<path d="M13300 20559
L13653 20206
" />
<path d="M13653 20206
L14360 20913
" />
<path d="M14360 20913
L14007 21266
" />
<path d="M12427 20383
L12250 20206
" />
<path d="M13134 21090
L13310 21266
" />
<path d="M12957 21266
L12250 20559
" />
<path d="M12250 20559
L12603 20206
" />
<path d="M12603 20206
L13310 20913
" />
<path d="M13310 20913
L12957 21266
" />
<path d="M7530 12304
L8237 11597
" />
<path d="M6823 13011
L4702 10890
" />
<path d="M4702 10890
L5409 10183
" />
<path d="M5409 10183
L6116 9475
" />
<path d="M6116 9475
L8237 11597
" />
<path d="M8237 11597
L8944 10890
" />
<path d="M8944 10890
L6823 8768
" />
<path d="M6823 8768
L6116 9475
" />
<path d="M6823 13011
L7530 12304
" />
<path d="M7530 12304
L5409 10183
" />
<path d="M20130 12268
L19423 12975
" />
<path d="M20837 11561
L22959 13683
" />
<path d="M22959 13683
L22251 14390
" />
<path d="M22251 14390
L21544 15097
" />
<path d="M21544 15097
L19423 12975
" />
<path d="M19423 12975
L18716 13683
" />
<path d="M18716 13683
L20837 15804
" />
<path d="M20837 15804
L21544 15097
" />
<path d="M20837 11561
L20130 12268
" />
<path d="M20130 12268
L22251 14390
" />
<path d="M14480 17968
L13773 18675
" />
<path d="M15187 17261
L17309 19383
" />
<path d="M17309 19383
L16601 20090
" />
<path d="M16601 20090
L15894 20797
" />
<path d="M15894 20797
L13773 18675
" />
<path d="M13773 18675
L13066 19383
" />
<path d="M13066 19383
L15187 21504
" />
<path d="M15187 21504
L15894 20797
" />
<path d="M15187 17261
L14480 17968
" />
<path d="M14480 17968
L16601 20090
" />
<path d="M13124 13773
L13300 13596
" />
<path d="M12417 14480
L12240 14656
" />
<path d="M12593 14656
L13300 13949
" />
<path d="M13300 13949
L12947 13596
" />
<path d="M12947 13596
L12240 14303
" />
<path d="M12240 14303
L12593 14656
" />
<path d="M18494 8426
L19060 8992
" />
<path d="M19202 7719
L19767 8285
" />
<path d="M19767 8285
L18919 9133
" />
<path d="M18919 9133
L18353 8568
" />
<path d="M18353 8568
L19202 7719
" />
</g>
<g style="fill:#000000; fill-opacity:0.0; 
stroke:#000000; stroke-width:120; stroke-opacity:1; 
stroke-linecap:round; stroke-linejoin:round;">
<path d="M18562 21311
L17855 20604
" />
<path d="M17855 20604
L22098 16361
" />
<path d="M22098 16361
L22805 17068
" />
<path d="M22805 17068
L18562 21311
" />
<path d="M19269 20604
L18562 19897
" />
</g>
<g style="fill:#000000; fill-opacity:0.0; 
stroke:#000000; stroke-width:39.3701; stroke-opacity:1; 
stroke-linecap:round; stroke-linejoin:round;">
</g>
<g style="fill:#000000; fill-opacity:1.0; 
stroke:#000000; stroke-width:39.3701; stroke-opacity:1; 
stroke-linecap:round; stroke-linejoin:round;">
<circle cx="8923.49" cy="11693.7" r="280.315" /> 
<circle cx="9630.6" cy="10986.6" r="280.315" /> 
<circle cx="10337.7" cy="10279.5" r="280.315" /> 
<circle cx="16844.8" cy="3484.25" r="280.315" /> 
<circle cx="13377" cy="15490.2" r="255.315" /> 
<circle cx="14084.1" cy="14783.1" r="255.315" /> 
<polyline style="fill-rule:evenodd;"
points="23325,12131
23835,12131
23835,12641
23325,12641
23325,12131
" /> 
<circle cx="23580.6" cy="11386.6" r="255.315" /> 
<circle cx="22580.6" cy="11386.6" r="255.315" /> 
<circle cx="21527" cy="10290.2" r="255.315" /> 
<circle cx="22234.1" cy="9583.06" r="255.315" /> 
<circle cx="23684.1" cy="9490.17" r="255.315" /> 
<circle cx="22977" cy="8783.06" r="255.315" /> 
<polyline style="fill-rule:evenodd;"
points="7387,20840
6991,21236
6594,20840
6991,20443
7387,20840
" /> 
<circle cx="6284.15" cy="21547.3" r="280.315" /> 
<circle cx="6284.15" cy="20133.1" r="280.315" /> 
<circle cx="5577.04" cy="20840.2" r="280.315" /> 
<circle cx="5577.04" cy="19426" r="280.315" /> 
<circle cx="4869.94" cy="20133.1" r="280.315" /> 
<polyline style="fill-rule:evenodd;"
points="20973,3483
21369,3086
21766,3483
21369,3879
20973,3483
" /> 
<circle cx="22077" cy="2775.95" r="280.315" /> 
<circle cx="22077" cy="4190.17" r="280.315" /> 
<circle cx="22784.1" cy="3483.06" r="280.315" /> 
<circle cx="22784.1" cy="4897.27" r="280.315" /> 
<circle cx="23491.3" cy="4190.17" r="280.315" /> 
<circle cx="20105.3" cy="11597.4" r="275.591" /> 
<circle cx="19398.2" cy="12304.5" r="275.591" /> 
<circle cx="18691.1" cy="13011.6" r="275.591" /> 
<circle cx="17984" cy="13718.7" r="275.591" /> 
<circle cx="17276.9" cy="14425.8" r="275.591" /> 
<circle cx="16569.8" cy="15132.9" r="275.591" /> 
<circle cx="15862.7" cy="15840" r="275.591" /> 
<circle cx="15155.6" cy="16547.1" r="275.591" /> 
<circle cx="14448.5" cy="17254.3" r="275.591" /> 
<circle cx="13741.4" cy="17961.4" r="275.591" /> 
<circle cx="10205.8" cy="14425.8" r="275.591" /> 
<circle cx="10913" cy="13718.7" r="275.591" /> 
<circle cx="11620.1" cy="13011.6" r="275.591" /> 
<circle cx="12327.2" cy="12304.5" r="275.591" /> 
<circle cx="13034.3" cy="11597.4" r="275.591" /> 
<circle cx="13741.4" cy="10890.3" r="275.591" /> 
<circle cx="14448.5" cy="10183.2" r="275.591" /> 
<circle cx="15155.6" cy="9476.08" r="275.591" /> 
<circle cx="15862.7" cy="8768.97" r="275.591" /> 
<circle cx="16569.8" cy="8061.87" r="275.591" /> 
<circle cx="17987.7" cy="15168.8" r="275.591" /> 
<circle cx="17280.6" cy="15876" r="275.591" /> 
<circle cx="16573.5" cy="16583.1" r="275.591" /> 
<circle cx="18694.8" cy="15876" r="275.591" /> 
<circle cx="17987.7" cy="16583.1" r="275.591" /> 
<circle cx="17280.6" cy="17290.2" r="275.591" /> 
<circle cx="19401.9" cy="16583.1" r="275.591" /> 
<circle cx="18694.8" cy="17290.2" r="275.591" /> 
<circle cx="17987.7" cy="17997.3" r="275.591" /> 
<circle cx="9623.49" cy="9504.38" r="275.591" /> 
<circle cx="10330.6" cy="8797.27" r="275.591" /> 
<circle cx="11037.7" cy="8090.17" r="275.591" /> 
<circle cx="8916.38" cy="8797.27" r="275.591" /> 
<circle cx="9623.49" cy="8090.17" r="275.591" /> 
<circle cx="10330.6" cy="7383.06" r="275.591" /> 
<circle cx="8209.28" cy="8090.17" r="275.591" /> 
<circle cx="8916.38" cy="7383.06" r="275.591" /> 
<circle cx="9623.49" cy="6675.95" r="275.591" /> 
<circle cx="12623.5" cy="6604.38" r="275.591" /> 
<circle cx="13330.6" cy="5897.27" r="275.591" /> 
<circle cx="14037.7" cy="5190.17" r="275.591" /> 
<circle cx="11916.4" cy="5897.27" r="275.591" /> 
<circle cx="12623.5" cy="5190.17" r="275.591" /> 
<circle cx="13330.6" cy="4483.06" r="275.591" /> 
<circle cx="11209.3" cy="5190.17" r="275.591" /> 
<circle cx="11916.4" cy="4483.06" r="275.591" /> 
<circle cx="12623.5" cy="3775.95" r="275.591" /> 
<polyline style="fill-rule:evenodd;"
points="18826,2886
19187,3247
18826,3608
18465,3247
18826,2886
" /> 
<circle cx="18119.7" cy="3954.89" r="255.315" /> 
<circle cx="17412.6" cy="4661.99" r="255.315" /> 
<circle cx="16705.5" cy="5369.1" r="255.315" /> 
<circle cx="15998.4" cy="6076.21" r="255.315" /> 
<circle cx="15291.3" cy="6783.31" r="255.315" /> 
<circle cx="14584.1" cy="7490.42" r="255.315" /> 
<circle cx="13877" cy="8197.53" r="255.315" /> 
<circle cx="13169.9" cy="8904.63" r="255.315" /> 
<circle cx="12462.8" cy="9611.74" r="255.315" /> 
<circle cx="11755.7" cy="10318.8" r="255.315" /> 
<circle cx="11048.6" cy="11026" r="255.315" /> 
<circle cx="10341.5" cy="11733.1" r="255.315" /> 
<circle cx="9634.4" cy="12440.2" r="255.315" /> 
<circle cx="8927.29" cy="13147.3" r="255.315" /> 
<circle cx="8220.19" cy="13854.4" r="255.315" /> 
<circle cx="7513.08" cy="14561.5" r="255.315" /> 
<circle cx="6805.97" cy="15268.6" r="255.315" /> 
<circle cx="6098.87" cy="15975.7" r="255.315" /> 
<circle cx="5391.76" cy="16682.8" r="255.315" /> 
<circle cx="9634.4" cy="20925.4" r="255.315" /> 
<circle cx="10341.5" cy="20218.3" r="255.315" /> 
<circle cx="11048.6" cy="19511.2" r="255.315" /> 
<circle cx="11755.7" cy="18804.1" r="255.315" /> 
<circle cx="12462.8" cy="18097" r="255.315" /> 
<circle cx="13169.9" cy="17389.9" r="255.315" /> 
<circle cx="13877" cy="16682.8" r="255.315" /> 
<circle cx="14584.1" cy="15975.7" r="255.315" /> 
<circle cx="15291.3" cy="15268.6" r="255.315" /> 
<circle cx="15998.4" cy="14561.5" r="255.315" /> 
<circle cx="16705.5" cy="13854.4" r="255.315" /> 
<circle cx="17412.6" cy="13147.3" r="255.315" /> 
<circle cx="18119.7" cy="12440.2" r="255.315" /> 
<circle cx="18826.8" cy="11733.1" r="255.315" /> 
<circle cx="19533.9" cy="11026" r="255.315" /> 
<circle cx="20241" cy="10318.8" r="255.315" /> 
<circle cx="20948.1" cy="9611.74" r="255.315" /> 
<circle cx="21655.2" cy="8904.63" r="255.315" /> 
<circle cx="22362.3" cy="8197.53" r="255.315" /> 
<circle cx="23069.4" cy="7490.42" r="255.315" /> 
<polyline style="fill-rule:evenodd;"
points="15810,2506
15810,3066
15250,3066
15250,2506
15810,2506
" /> 
<circle cx="14530.6" cy="2786.61" r="280.315" /> 
<circle cx="22553.4" cy="20413.4" r="780.315" /> 
<circle cx="6018" cy="3877.95" r="780.315" /> 
<polyline style="fill-rule:evenodd;"
points="5085,8271
4795,7981
5014,7761
5305,8052
5085,8271
" /> 
<polyline style="fill-rule:evenodd;"
points="5439,7918
5148,7628
5368,7408
5658,7698
5439,7918
" /> 
<polyline style="fill-rule:evenodd;"
points="5792,7564
5502,7274
5722,7054
6012,7345
5792,7564
" /> 
<polyline style="fill-rule:evenodd;"
points="6146,7211
5855,6920
6075,6701
6365,6991
6146,7211
" /> 
<circle cx="14537.7" cy="8829.51" r="280.315" /> 
<circle cx="13123.5" cy="10243.7" r="280.315" /> 
<circle cx="19587.7" cy="9479.51" r="280.315" /> 
<circle cx="18173.5" cy="10893.7" r="280.315" /> 
<circle cx="15923.5" cy="13093.7" r="280.315" /> 
<circle cx="17337.7" cy="11679.5" r="280.315" /> 
<circle cx="5150.6" cy="13906.6" r="280.315" /> 
<circle cx="5150.6" cy="11906.6" r="280.315" /> 
<circle cx="6623.49" cy="13918.7" r="280.315" /> 
<circle cx="8037.7" cy="12504.5" r="280.315" /> 
<circle cx="5880.6" cy="14686.6" r="280.315" /> 
<circle cx="5880.6" cy="12686.6" r="280.315" /> 
<circle cx="14537.7" cy="21443.7" r="280.315" /> 
<circle cx="13123.5" cy="20029.5" r="280.315" /> 
<circle cx="13487.7" cy="21443.7" r="280.315" /> 
<circle cx="12073.5" cy="20029.5" r="280.315" /> 
<circle cx="6823.49" cy="12304.4" r="275.591" /> 
<circle cx="7530.6" cy="11597.3" r="275.591" /> 
<circle cx="8237.7" cy="10890.2" r="275.591" /> 
<circle cx="6116.38" cy="11597.3" r="275.591" /> 
<circle cx="6823.49" cy="10890.2" r="275.591" /> 
<circle cx="7530.6" cy="10183.1" r="275.591" /> 
<circle cx="5409.28" cy="10890.2" r="275.591" /> 
<circle cx="6116.38" cy="10183.1" r="275.591" /> 
<circle cx="6823.49" cy="9475.95" r="275.591" /> 
<circle cx="20837.7" cy="12268.8" r="275.591" /> 
<circle cx="20130.6" cy="12976" r="275.591" /> 
<circle cx="19423.5" cy="13683.1" r="275.591" /> 
<circle cx="21544.8" cy="12976" r="275.591" /> 
<circle cx="20837.7" cy="13683.1" r="275.591" /> 
<circle cx="20130.6" cy="14390.2" r="275.591" /> 
<circle cx="22251.9" cy="13683.1" r="275.591" /> 
<circle cx="21544.8" cy="14390.2" r="275.591" /> 
<circle cx="20837.7" cy="15097.3" r="275.591" /> 
<circle cx="15187.7" cy="17968.8" r="275.591" /> 
<circle cx="14480.6" cy="18676" r="275.591" /> 
<circle cx="13773.5" cy="19383.1" r="275.591" /> 
<circle cx="15894.8" cy="18676" r="275.591" /> 
<circle cx="15187.7" cy="19383.1" r="275.591" /> 
<circle cx="14480.6" cy="20090.2" r="275.591" /> 
<circle cx="16601.9" cy="19383.1" r="275.591" /> 
<circle cx="15894.8" cy="20090.2" r="275.591" /> 
<circle cx="15187.7" cy="20797.3" r="275.591" /> 
<circle cx="12063.5" cy="14833.7" r="280.315" /> 
<circle cx="13477.7" cy="13419.5" r="280.315" /> 
<circle cx="19767.7" cy="7719.51" r="280.315" /> 
<circle cx="18353.5" cy="9133.72" r="280.315" /> 
<polyline style="fill-rule:evenodd;"
points="18562,21000
18166,20604
18562,20207
18959,20604
18562,21000
" /> 
<circle cx="19269.9" cy="19897.3" r="280.315" /> 
<circle cx="19977" cy="19190.2" r="280.315" /> 
<circle cx="20684.1" cy="18483.1" r="280.315" /> 
<circle cx="21391.3" cy="17776" r="280.315" /> 
<circle cx="22098.4" cy="17068.8" r="280.315" /> 
</g> 
</svg>
