<?xml version="1.0" standalone="no"?>
 <!DOCTYPE svg PUBLIC "-//W3C//DTD SVG 1.1//EN" 
 "http://www.w3.org/Graphics/SVG/1.1/DTD/svg11.dtd"> 
<svg xmlns="http://www.w3.org/2000/svg" version="1.1" 
    width="7.42696cm" height="6.35254cm" viewBox="0 0 29240 25010 ">
<title>SVG Picture created as hex--brd.svg date 2014/04/04 19:23:00 </title>
  <desc>Picture generated by PCBNEW </desc>
<g style="fill:#000000; fill-opacity:1;stroke:#000000; stroke-opacity:1;
stroke-linecap:round; stroke-linejoin:round; "
 transform="translate(0 0) scale(1 1)">
</g>
<g style="fill:#000000; fill-opacity:0.0; 
stroke:#000000; stroke-width:50; stroke-opacity:1; 
stroke-linecap:round; stroke-linejoin:round;">
<path d="M14572 17857
L14592 17847
L14620 17847
L14649 17857
L14668 17876
L14677 17895
L14687 17933
L14687 17961
L14677 17999
L14668 18018
L14649 18038
L14620 18047
L14601 18047
L14572 18038
L14563 18028
L14563 17961
L14601 17961
" />
<path d="M14477 18047
L14477 17847
L14363 18047
L14363 17847
" />
<path d="M14268 18047
L14268 17847
L14220 17847
L14192 17857
L14172 17876
L14163 17895
L14153 17933
L14153 17961
L14163 17999
L14172 18018
L14192 18038
L14220 18047
L14268 18047
" />
<path d="M20162 12207
L20048 12207
" />
<path d="M20105 12407
L20105 12207
" />
<path d="M20001 12207
L19867 12407
" />
<path d="M19867 12207
L20001 12407
" />
<path d="M21146 11447
L21022 11447
L21089 11523
L21060 11523
L21041 11533
L21032 11542
L21022 11561
L21022 11609
L21032 11628
L21041 11638
L21060 11647
L21117 11647
L21136 11638
L21146 11628
" />
<path d="M20936 11628
L20927 11638
L20936 11647
L20946 11638
L20936 11628
L20936 11647
" />
<path d="M20860 11447
L20736 11447
L20803 11523
L20774 11523
L20755 11533
L20746 11542
L20736 11561
L20736 11609
L20746 11628
L20755 11638
L20774 11647
L20832 11647
L20851 11638
L20860 11628
" />
<path d="M20670 11514
L20622 11647
L20574 11514
" />
<path d="M19353 13107
L19420 13012
" />
<path d="M19468 13107
L19468 12907
L19392 12907
L19372 12917
L19363 12926
L19353 12945
L19353 12974
L19363 12993
L19372 13002
L19392 13012
L19468 13012
" />
<path d="M19287 12907
L19153 13107
" />
<path d="M19153 12907
L19287 13107
" />
<path d="M16310 3872
L16323 3899
L16323 3912
L16316 3933
L16296 3953
L16276 3960
L16263 3960
L16242 3953
L16188 3899
L16330 3758
L16377 3805
L16384 3825
L16384 3838
L16377 3859
L16364 3872
L16343 3879
L16330 3879
L16310 3872
L16263 3825
" />
<path d="M16404 4114
L16323 4034
" />
<path d="M16364 4074
L16505 3933
L16471 3939
L16444 3939
L16424 3933
" />
<path d="M21947 19291
L21735 19079
L21815 18998
L21846 18988
L21866 18988
L21896 18998
L21927 19029
L21937 19059
L21937 19079
L21927 19109
L21846 19190
" />
<path d="M22189 19049
L22159 19059
L22139 19059
L22108 19049
L22048 18988
L22038 18958
L22038 18938
L22048 18907
L22078 18877
L22108 18867
L22129 18867
L22159 18877
L22219 18938
L22230 18968
L22230 18988
L22219 19018
L22189 19049
" />
<path d="M22189 18766
L22371 18867
L22310 18726
L22452 18786
L22351 18604
" />
<path d="M22644 18574
L22634 18604
L22593 18645
L22563 18655
L22533 18645
L22452 18564
L22442 18534
L22452 18503
L22492 18463
L22523 18453
L22553 18463
L22573 18483
L22492 18604
" />
<path d="M22755 18483
L22613 18342
" />
<path d="M22654 18382
L22644 18352
L22644 18332
L22654 18301
L22674 18281
" />
<path d="M21694 18554
L21781 18466
L21788 18567
L21808 18547
L21829 18540
L21842 18540
L21862 18547
L21896 18581
L21903 18601
L21903 18615
L21896 18635
L21856 18675
L21835 18682
L21822 18682
" />
<path d="M21970 18534
L21983 18534
L21983 18547
L21970 18547
L21970 18534
L21983 18547
" />
<path d="M21896 18352
L21983 18264
L21990 18365
L22010 18345
L22031 18338
L22044 18338
L22064 18345
L22098 18379
L22105 18399
L22105 18413
L22098 18433
L22058 18473
L22037 18480
L22024 18480
" />
<path d="M22078 18264
L22206 18325
L22145 18197
" />
<path d="M19096 21304
L19163 21237
" />
<path d="M19123 21358
L19029 21169
L19217 21264
" />
<path d="M19183 21014
L19157 21041
L19150 21062
L19150 21075
L19157 21109
L19177 21142
L19231 21196
L19251 21203
L19264 21203
L19284 21196
L19311 21169
L19318 21149
L19318 21136
L19311 21115
L19278 21082
L19258 21075
L19244 21075
L19224 21082
L19197 21109
L19190 21129
L19190 21142
L19197 21163
" />
<path d="M22420 17962
L22447 17949
L22461 17949
L22481 17955
L22501 17976
L22508 17996
L22508 18009
L22501 18030
L22447 18083
L22306 17942
L22353 17895
L22373 17888
L22387 17888
L22407 17895
L22420 17908
L22427 17929
L22427 17942
L22420 17962
L22373 18009
" />
<path d="M22649 17881
L22575 17807
L22555 17801
L22535 17807
L22508 17834
L22501 17854
" />
<path d="M22643 17875
L22636 17895
L22602 17929
L22582 17935
L22562 17929
L22548 17915
L22542 17895
L22548 17875
L22582 17841
L22589 17821
" />
<path d="M22602 17740
L22656 17686
" />
<path d="M22575 17673
L22696 17794
L22717 17801
L22737 17794
L22750 17780
" />
<path d="M22683 17659
L22737 17605
" />
<path d="M22656 17592
L22777 17713
L22797 17720
L22818 17713
L22831 17700
" />
<path d="M22925 17592
L22919 17612
L22892 17639
L22872 17646
L22851 17639
L22797 17585
L22791 17565
L22797 17545
L22824 17518
L22845 17511
L22865 17518
L22878 17531
L22824 17612
" />
<path d="M22999 17531
L22905 17437
" />
<path d="M22932 17464
L22925 17444
L22925 17430
L22932 17410
L22946 17397
" />
<path d="M22979 17363
L23107 17423
" />
<path d="M23047 17296
L23107 17423
L23127 17471
L23127 17484
L23121 17504
" />
<path d="M19243 21774
L19344 21673
" />
<path d="M19283 21855
L19142 21572
L19425 21713
" />
<path d="M19495 21643
L19283 21431
L19334 21380
L19374 21360
L19414 21360
L19445 21370
L19495 21400
L19526 21431
L19556 21481
L19566 21511
L19566 21552
L19546 21592
L19495 21643
" />
<path d="M19808 21289
L19808 21309
L19788 21350
L19768 21370
L19728 21390
L19687 21390
L19657 21380
L19606 21350
L19576 21319
L19546 21269
L19536 21239
L19536 21198
L19556 21158
L19576 21138
L19616 21117
L19637 21117
" />
<path d="M20359 20829
L20147 20617
" />
<path d="M20258 20546
L20258 20526
L20268 20496
L20318 20445
L20349 20435
L20369 20435
L20399 20445
L20419 20465
L20440 20506
L20440 20748
L20571 20617
" />
<path d="M20763 20385
L20763 20405
L20743 20445
L20723 20465
L20682 20486
L20642 20486
L20611 20476
L20561 20445
L20531 20415
L20500 20364
L20490 20334
L20490 20294
L20510 20253
L20531 20233
L20571 20213
L20591 20213
" />
<path d="M21045 19166
L21025 19173
L21004 19193
L20991 19220
L20991 19247
L20998 19267
L21018 19301
L21038 19321
L21072 19342
L21092 19348
L21119 19348
L21146 19335
L21159 19321
L21173 19294
L21173 19281
L21126 19234
L21099 19261
" />
<path d="M21247 19234
L21106 19092
L21328 19153
L21186 19012
" />
<path d="M21395 19086
L21254 18944
L21287 18911
L21314 18897
L21341 18897
L21361 18904
L21395 18924
L21415 18944
L21435 18978
L21442 18998
L21442 19025
L21429 19052
L21395 19086
" />
<path d="M20409 20058
L20436 20045
L20469 20011
L20476 19991
L20476 19978
L20469 19957
L20456 19944
L20436 19937
L20422 19937
L20402 19944
L20368 19964
L20348 19971
L20335 19971
L20315 19964
L20301 19951
L20294 19930
L20294 19917
L20301 19897
L20335 19863
L20362 19850
" />
<path d="M20557 19924
L20416 19782
L20449 19749
L20476 19735
L20503 19735
L20523 19742
L20557 19762
L20577 19782
L20597 19816
L20604 19836
L20604 19863
L20591 19890
L20557 19924
" />
<path d="M20651 19749
L20719 19681
" />
<path d="M20678 19802
L20584 19614
L20773 19708
" />
<path d="M19662 20805
L19689 20792
L19723 20758
L19730 20738
L19730 20724
L19723 20704
L19709 20690
L19689 20684
L19676 20684
L19656 20690
L19622 20711
L19602 20717
L19588 20717
L19568 20711
L19554 20697
L19548 20677
L19548 20664
L19554 20643
L19588 20610
L19615 20596
" />
<path d="M19878 20576
L19878 20589
L19864 20616
L19851 20630
L19824 20643
L19797 20643
L19777 20637
L19743 20616
L19723 20596
L19703 20563
L19696 20542
L19696 20515
L19709 20488
L19723 20475
L19750 20462
L19763 20462
" />
<path d="M20019 20462
L19952 20529
L19810 20387
" />
<path d="M23220 2844
L23260 2804
L23290 2793
L23331 2793
L23381 2824
L23452 2894
L23482 2945
L23482 2985
L23472 3016
L23432 3056
L23402 3066
L23361 3066
L23311 3036
L23240 2965
L23210 2915
L23210 2874
L23220 2844
" />
<path d="M23573 2692
L23503 2763
" />
<path d="M23614 2874
L23402 2662
L23503 2561
" />
<path d="M23755 2511
L23684 2581
" />
<path d="M23796 2692
L23583 2480
L23684 2379
" />
</g>
<g style="fill:#000000; fill-opacity:0.0; 
stroke:#000000; stroke-width:500; stroke-opacity:1; 
stroke-linecap:round; stroke-linejoin:round;">
<path d="M7480 20205
L7385 20300
L7480 20396
L7575 20300
L7480 20205
L7480 20396
" />
</g>
<g style="fill:#000000; fill-opacity:0.0; 
stroke:#000000; stroke-width:118.11; stroke-opacity:1; 
stroke-linecap:round; stroke-linejoin:round;">
<path d="M14755 3700
L14305 3700
" />
<path d="M15755 3700
L15305 3700
" />
<path d="M15530 3925
L15530 3475
" />
</g>
<g style="fill:#000000; fill-opacity:0.0; 
stroke:#000000; stroke-width:50; stroke-opacity:1; 
stroke-linecap:round; stroke-linejoin:round;">
<path d="M20498 2641
L20538 2601
L20568 2591
L20609 2591
L20659 2621
L20730 2692
L20760 2742
L20760 2783
L20750 2813
L20710 2853
L20679 2863
L20639 2863
L20588 2833
L20518 2762
L20487 2712
L20487 2671
L20498 2641
" />
<path d="M20891 2671
L20679 2459
L21013 2550
L20801 2338
" />
<path d="M23516 5721
L23304 5509
L23385 5429
L23415 5418
L23436 5418
L23466 5429
L23496 5459
L23506 5489
L23506 5509
L23496 5540
L23415 5620
" />
<path d="M23850 5388
L23678 5358
" />
<path d="M23729 5509
L23516 5297
L23597 5216
L23628 5206
L23648 5206
L23678 5216
L23708 5247
L23718 5277
L23718 5297
L23708 5328
L23628 5408
" />
<path d="M23850 4984
L23820 4994
L23789 5024
L23769 5065
L23769 5105
L23779 5136
L23809 5186
L23840 5216
L23890 5247
L23921 5257
L23961 5257
L24001 5237
L24022 5216
L24042 5176
L24042 5156
L23971 5085
L23931 5125
" />
</g>
<g style="fill:#000000; fill-opacity:0.0; 
stroke:#000000; stroke-width:39.3701; stroke-opacity:1; 
stroke-linecap:round; stroke-linejoin:round;">
<path d="M4443 2303
L24128 2303
" />
<path d="M4443 21988
L4443 2303
" />
<path d="M24128 21988
L4443 21988
" />
<path d="M24128 2303
L24128 21988
" />
</g>
<g style="fill:#000000; fill-opacity:0.0; 
stroke:#000000; stroke-width:50; stroke-opacity:1; 
stroke-linecap:round; stroke-linejoin:round;">
<path d="M9532 11918
L9418 11898
" />
<path d="M9452 11999
L9310 11858
L9364 11804
L9384 11797
L9398 11797
L9418 11804
L9438 11824
L9445 11844
L9445 11858
L9438 11878
L9384 11932
" />
<path d="M9519 11784
L9566 11737
" />
<path d="M9660 11790
L9593 11858
L9452 11716
L9519 11649
" />
<path d="M9707 11730
L9734 11716
L9768 11683
L9775 11662
L9775 11649
L9768 11629
L9755 11615
L9734 11609
L9721 11609
L9701 11615
L9667 11635
L9647 11642
L9633 11642
L9613 11635
L9600 11622
L9593 11602
L9593 11588
L9600 11568
L9633 11534
L9660 11521
" />
<path d="M9741 11427
L9768 11400
L9788 11393
L9815 11393
L9849 11413
L9896 11460
L9916 11494
L9916 11521
L9909 11541
L9883 11568
L9862 11575
L9835 11575
L9802 11555
L9755 11508
L9734 11474
L9734 11447
L9741 11427
" />
<path d="M10004 11447
L9862 11306
L10085 11366
L9943 11225
" />
<path d="M10105 11265
L10172 11198
" />
<path d="M10132 11319
L10037 11130
L10226 11225
" />
<path d="M10112 11056
L10192 10976
" />
<path d="M10293 11157
L10152 11016
" />
<path d="M10266 10901
L10293 10875
L10314 10868
L10340 10868
L10374 10888
L10421 10935
L10442 10969
L10442 10996
L10435 11016
L10408 11043
L10388 11050
L10361 11050
L10327 11029
L10280 10982
L10260 10949
L10260 10922
L10266 10901
" />
<path d="M10610 10841
L10495 10821
" />
<path d="M10529 10922
L10388 10780
L10442 10726
L10462 10720
L10475 10720
L10495 10726
L10516 10747
L10522 10767
L10522 10780
L10516 10800
L10462 10854
" />
<path d="M21789 9999
L21708 9918
" />
<path d="M21748 9959
L21890 9817
L21856 9824
L21829 9824
L21809 9817
" />
<path d="M22004 10026
L21910 10120
" />
<path d="M21944 9966
L21869 10040
L21863 10060
L21869 10080
L21890 10100
L21910 10107
L21923 10107
" />
<path d="M22098 10161
L22051 10114
" />
<path d="M21977 10188
L22119 10046
L22186 10114
" />
</g>
<g style="fill:#000000; fill-opacity:0.0; 
stroke:#000000; stroke-width:59.0551; stroke-opacity:1; 
stroke-linecap:round; stroke-linejoin:round;">
<path d="M15280 13604
L14816 13697
" />
<path d="M15094 13419
L15001 13883
" />
<path d="M14763 13352
L14710 13326
L14683 13326
L14643 13339
L14604 13379
L14590 13419
L14590 13445
L14604 13485
L14710 13591
L14988 13313
L14895 13220
L14855 13207
L14829 13207
L14789 13220
L14763 13246
L14749 13286
L14749 13313
L14763 13352
L14855 13445
" />
<path d="M14577 13167
L14484 13074
" />
<path d="M14299 13180
L14431 13313
L14710 13034
L14577 12902
" />
<path d="M14325 12915
L14232 12822
" />
<path d="M14047 12928
L14179 13061
L14458 12782
L14325 12650
" />
</g>
<g style="fill:#000000; fill-opacity:0.0; 
stroke:#000000; stroke-width:50; stroke-opacity:1; 
stroke-linecap:round; stroke-linejoin:round;">
<path d="M13757 15278
L13838 15358
" />
<path d="M13797 15318
L13939 15177
L13932 15210
L13932 15237
L13939 15257
" />
<path d="M13730 15062
L13636 15156
" />
<path d="M13791 15123
L13717 15197
L13696 15203
L13676 15197
L13656 15177
L13649 15156
L13649 15143
" />
<path d="M13595 14968
L13643 15015
" />
<path d="M13568 15089
L13710 14948
L13643 14880
" />
<path d="M22836 11927
L22769 11832
" />
<path d="M22722 11927
L22722 11727
L22798 11727
L22817 11737
L22826 11746
L22836 11765
L22836 11794
L22826 11813
L22817 11822
L22798 11832
L22722 11832
" />
<path d="M22922 11822
L22988 11822
" />
<path d="M23017 11927
L22922 11927
L22922 11727
L23017 11727
" />
<path d="M23207 11737
L23188 11727
L23160 11727
L23131 11737
L23112 11756
L23102 11775
L23093 11813
L23093 11841
L23102 11879
L23112 11898
L23131 11918
L23160 11927
L23179 11927
L23207 11918
L23217 11908
L23217 11841
L23179 11841
" />
<path d="M23302 11727
L23302 11889
L23312 11908
L23322 11918
L23341 11927
L23379 11927
L23398 11918
L23407 11908
L23417 11889
L23417 11727
" />
<path d="M23607 11927
L23512 11927
L23512 11727
" />
<path d="M22949 9899
L22868 9818
" />
<path d="M22908 9859
L23050 9717
L23016 9724
L22989 9724
L22969 9717
" />
<path d="M23164 9926
L23070 10020
" />
<path d="M23104 9866
L23029 9940
L23023 9960
L23029 9980
L23050 10000
L23070 10007
L23083 10007
" />
<path d="M23258 10061
L23211 10014
" />
<path d="M23137 10088
L23279 9946
L23346 10014
" />
</g>
<g style="fill:#000000; fill-opacity:0.0; 
stroke:#000000; stroke-width:80; stroke-opacity:1; 
stroke-linecap:round; stroke-linejoin:round;">
<path d="M4461 20946
L4743 20663
L4851 20770
L4865 20811
L4865 20838
L4851 20878
L4811 20919
L4770 20932
L4743 20932
L4703 20919
L4595 20811
" />
<path d="M4905 21390
L4945 21161
" />
<path d="M4743 21228
L5026 20946
L5134 21053
L5147 21094
L5147 21121
L5134 21161
L5094 21201
L5053 21215
L5026 21215
L4986 21201
L4878 21094
" />
<path d="M5363 21282
L5417 21336
L5430 21377
L5430 21430
L5390 21498
L5296 21592
L5228 21632
L5174 21632
L5134 21619
L5080 21565
L5067 21525
L5067 21471
L5107 21403
L5201 21309
L5269 21269
L5323 21269
L5363 21282
" />
<path d="M5740 21686
L5727 21646
L5686 21605
L5632 21579
L5578 21579
L5538 21592
L5471 21632
L5430 21673
L5390 21740
L5376 21781
L5376 21834
L5403 21888
L5430 21915
L5484 21942
L5511 21942
L5605 21848
L5552 21794
" />
</g>
<g style="fill:#000000; fill-opacity:0.0; 
stroke:#000000; stroke-width:100; stroke-opacity:1; 
stroke-linecap:round; stroke-linejoin:round;">
<path d="M7674 18824
L7808 18689
" />
<path d="M7728 18932
L7539 18555
L7916 18743
" />
<path d="M7687 18407
L7849 18245
" />
<path d="M8051 18609
L7768 18326
" />
<path d="M8226 18434
L7943 18151
L8239 18258
L8132 17962
L8414 18245
" />
<path d="M8401 17962
L8495 17868
" />
<path d="M8684 17976
L8549 18110
L8266 17827
L8401 17693
" />
<path d="M8684 17437
L8643 17450
L8603 17491
L8576 17545
L8576 17598
L8590 17639
L8630 17706
L8670 17747
L8738 17787
L8778 17800
L8832 17800
L8886 17774
L8913 17747
L8940 17693
L8940 17666
L8845 17572
L8792 17625
" />
<path d="M8994 17504
L9128 17369
" />
<path d="M9047 17612
L8859 17235
L9236 17423
" />
<path d="M9478 17181
L9317 17343
" />
<path d="M9398 17262
L9115 16979
L9128 17046
L9128 17100
L9115 17141
" />
<path d="M9330 16817
L9330 16790
L9344 16750
L9411 16683
L9452 16669
L9478 16669
L9519 16683
L9546 16710
L9573 16763
L9573 17087
L9748 16912
" />
<path d="M9748 16588
L9707 16602
L9680 16602
L9640 16588
L9627 16575
L9613 16534
L9613 16507
L9627 16467
L9680 16413
L9721 16400
L9748 16400
L9788 16413
L9802 16427
L9815 16467
L9815 16494
L9802 16534
L9748 16588
L9734 16629
L9734 16656
L9748 16696
L9802 16750
L9842 16763
L9869 16763
L9909 16750
L9963 16696
L9977 16656
L9977 16629
L9963 16588
L9909 16534
L9869 16521
L9842 16521
L9802 16534
" />
<path d="M10071 16211
L10260 16400
" />
<path d="M9896 16171
L10031 16440
L10206 16265
" />
<path d="M10408 16252
L10125 15969
L10233 15861
L10273 15848
L10300 15848
L10340 15861
L10381 15901
L10394 15942
L10394 15969
L10381 16009
L10273 16117
" />
<path d="M10583 15861
L10798 15645
" />
<path d="M11041 15619
L10758 15336
L10866 15228
L10906 15214
L10933 15214
L10973 15228
L11014 15268
L11027 15309
L11027 15336
L11014 15376
L10906 15484
" />
</g>
<g style="fill:#000000; fill-opacity:0.0; 
stroke:#000000; stroke-width:50; stroke-opacity:1; 
stroke-linecap:round; stroke-linejoin:round;">
<path d="M16228 2702
L16257 2712
L16266 2721
L16276 2740
L16276 2769
L16266 2788
L16257 2798
L16238 2807
L16162 2807
L16162 2607
L16228 2607
L16247 2617
L16257 2626
L16266 2645
L16266 2664
L16257 2683
L16247 2693
L16228 2702
L16162 2702
" />
<path d="M16352 2750
L16447 2750
" />
<path d="M16333 2807
L16400 2607
L16466 2807
" />
<path d="M16504 2607
L16619 2607
" />
<path d="M16562 2807
L16562 2607
" />
<path d="M16657 2607
L16771 2607
" />
<path d="M16714 2807
L16714 2607
" />
<path d="M17047 2883
L17038 2874
L17019 2845
L17009 2826
L17000 2798
L16990 2750
L16990 2712
L17000 2664
L17009 2636
L17019 2617
L17038 2588
L17047 2578
" />
<path d="M17209 2674
L17209 2807
" />
<path d="M17162 2598
L17114 2740
L17238 2740
" />
<path d="M17314 2788
L17323 2798
L17314 2807
L17304 2798
L17314 2788
L17314 2807
" />
<path d="M17438 2693
L17419 2683
L17409 2674
L17400 2655
L17400 2645
L17409 2626
L17419 2617
L17438 2607
L17476 2607
L17495 2617
L17504 2626
L17514 2645
L17514 2655
L17504 2674
L17495 2683
L17476 2693
L17438 2693
L17419 2702
L17409 2712
L17400 2731
L17400 2769
L17409 2788
L17419 2798
L17438 2807
L17476 2807
L17495 2798
L17504 2788
L17514 2769
L17514 2731
L17504 2712
L17495 2702
L17476 2693
" />
<path d="M17571 2607
L17638 2807
L17704 2607
" />
<path d="M17771 2731
L17923 2731
" />
<path d="M18104 2607
L18066 2607
L18047 2617
L18038 2626
L18019 2655
L18009 2693
L18009 2769
L18019 2788
L18028 2798
L18047 2807
L18085 2807
L18104 2798
L18114 2788
L18123 2769
L18123 2721
L18114 2702
L18104 2693
L18085 2683
L18047 2683
L18028 2693
L18019 2702
L18009 2721
" />
<path d="M18181 2607
L18247 2807
L18314 2607
" />
<path d="M18362 2883
L18371 2874
L18390 2845
L18400 2826
L18409 2798
L18419 2750
L18419 2712
L18409 2664
L18400 2636
L18390 2617
L18371 2588
L18362 2578
" />
<path d="M5705 8325
L5637 8392
L5496 8250
" />
<path d="M5678 8203
L5725 8156
" />
<path d="M5819 8210
L5752 8277
L5610 8136
L5678 8069
" />
<path d="M5880 8149
L5738 8008
L5772 7974
L5799 7961
L5826 7961
L5846 7968
L5880 7988
L5900 8008
L5920 8042
L5927 8062
L5927 8089
L5913 8116
L5880 8149
" />
<path d="M6001 8055
L6109 7947
" />
<path d="M6210 7819
L6095 7799
" />
<path d="M6129 7900
L5988 7759
L6041 7705
L6062 7698
L6075 7698
L6095 7705
L6115 7725
L6122 7745
L6122 7759
L6115 7779
L6062 7833
" />
<path d="M6210 7550
L6190 7557
L6169 7577
L6156 7604
L6156 7631
L6163 7651
L6183 7685
L6203 7705
L6237 7725
L6257 7732
L6284 7732
L6311 7718
L6324 7705
L6338 7678
L6338 7665
L6291 7617
L6264 7644
" />
<path d="M6385 7496
L6412 7483
L6425 7483
L6445 7489
L6466 7510
L6472 7530
L6472 7543
L6466 7564
L6412 7617
L6270 7476
L6318 7429
L6338 7422
L6351 7422
L6371 7429
L6385 7442
L6392 7463
L6392 7476
L6385 7496
L6338 7543
" />
<path d="M13904 9577
L13985 9496
" />
<path d="M13945 9536
L13803 9395
L13837 9401
L13864 9401
L13884 9395
" />
<path d="M13844 9637
L13702 9496
" />
<path d="M13776 9597
L13790 9691
" />
<path d="M13695 9597
L13803 9597
" />
<path d="M19264 9987
L19345 9906
" />
<path d="M19305 9946
L19163 9805
L19197 9811
L19224 9811
L19244 9805
" />
<path d="M19204 10047
L19062 9906
" />
<path d="M19136 10007
L19150 10101
" />
<path d="M19055 10007
L19163 10007
" />
<path d="M16704 12427
L16785 12346
" />
<path d="M16745 12386
L16603 12245
L16637 12251
L16664 12251
L16684 12245
" />
<path d="M16644 12487
L16502 12346
" />
<path d="M16576 12447
L16590 12541
" />
<path d="M16495 12447
L16603 12447
" />
<path d="M5231 12930
L5231 13044
" />
<path d="M5231 12987
L5031 12987
L5060 13006
L5079 13025
L5088 13044
" />
<path d="M5231 12844
L5031 12844
" />
<path d="M5155 12825
L5231 12768
" />
<path d="M5098 12768
L5174 12844
" />
<path d="M7371 13285
L7290 13366
" />
<path d="M7330 13326
L7189 13184
L7195 13218
L7195 13245
L7189 13265
" />
<path d="M7431 13225
L7290 13083
" />
<path d="M7391 13157
L7485 13171
" />
<path d="M7391 13076
L7391 13184
" />
<path d="M5961 13710
L5961 13824
" />
<path d="M5961 13767
L5761 13767
L5790 13786
L5809 13805
L5818 13824
" />
<path d="M5961 13624
L5761 13624
" />
<path d="M5885 13605
L5961 13548
" />
<path d="M5828 13548
L5904 13624
" />
<path d="M13756 20777
L13675 20696
" />
<path d="M13716 20736
L13857 20595
L13823 20601
L13796 20601
L13776 20595
" />
<path d="M13817 20837
L13958 20696
" />
<path d="M13884 20797
L13871 20891
" />
<path d="M13965 20797
L13857 20797
" />
<path d="M12706 20777
L12625 20696
" />
<path d="M12666 20736
L12807 20595
L12773 20601
L12746 20601
L12726 20595
" />
<path d="M12767 20837
L12908 20696
" />
<path d="M12834 20797
L12821 20891
" />
<path d="M12915 20797
L12807 20797
" />
<path d="M13204 14513
L13184 14399
" />
<path d="M13285 14433
L13144 14291
L13090 14345
L13083 14365
L13083 14379
L13090 14399
L13110 14419
L13130 14426
L13144 14426
L13164 14419
L13218 14365
" />
<path d="M13137 14581
L13110 14608
L13090 14614
L13077 14614
L13043 14608
L13009 14587
L12955 14534
L12949 14513
L12949 14500
L12955 14480
L12982 14453
L13002 14446
L13016 14446
L13036 14453
L13070 14486
L13077 14507
L13077 14520
L13070 14540
L13043 14567
L13023 14574
L13009 14574
L12989 14567
" />
<path d="M12844 14167
L12925 14086
" />
<path d="M12885 14126
L12743 13985
L12777 13991
L12804 13991
L12824 13985
" />
<path d="M12784 14227
L12642 14086
" />
<path d="M12716 14187
L12730 14281
" />
<path d="M12635 14187
L12743 14187
" />
<path d="M20000 8758
L19913 8670
L19906 8771
L19886 8751
L19866 8744
L19852 8744
L19832 8751
L19798 8785
L19792 8805
L19792 8819
L19798 8839
L19839 8879
L19859 8886
L19872 8886
" />
<path d="M19724 8738
L19711 8738
L19711 8751
L19724 8751
L19724 8738
L19711 8751
" />
<path d="M19798 8556
L19711 8468
L19704 8569
L19684 8549
L19664 8542
L19650 8542
L19630 8549
L19596 8583
L19589 8603
L19589 8617
L19596 8637
L19637 8677
L19657 8684
L19670 8684
" />
<path d="M19616 8468
L19488 8529
L19549 8401
" />
<path d="M19448 8206
L19354 8111
L19307 8347
L19212 8253
" />
<path d="M19233 8125
L19185 8078
" />
<path d="M19091 8132
L19158 8199
L19300 8058
L19233 7990
" />
<path d="M19031 8071
L19172 7930
L18950 7990
L19091 7849
" />
<path d="M18956 7849
L18909 7802
" />
<path d="M18815 7856
L18882 7923
L19024 7781
L18956 7714
" />
<path d="M18674 7714
L18788 7694
" />
<path d="M18754 7795
L18896 7653
L18842 7600
L18822 7593
L18808 7593
L18788 7600
L18768 7620
L18761 7640
L18761 7653
L18768 7674
L18822 7728
" />
</g>
<g style="fill:#000000; fill-opacity:0.0; 
stroke:#000000; stroke-width:59.0551; stroke-opacity:1; 
stroke-linecap:round; stroke-linejoin:round;">
<path d="M15753 17504
L15783 17332
" />
<path d="M15632 17382
L15844 17170
L15925 17251
L15935 17281
L15935 17302
L15925 17332
L15894 17362
L15864 17372
L15844 17372
L15813 17362
L15733 17281
" />
<path d="M15955 17483
L16026 17554
" />
<path d="M15945 17696
L15844 17595
L16056 17382
L16157 17483
" />
<path d="M16086 17716
L16187 17817
" />
<path d="M16005 17756
L16288 17615
L16147 17898
" />
<path d="M16339 18090
L16369 17918
" />
<path d="M16218 17968
L16430 17756
L16511 17837
L16521 17867
L16521 17888
L16511 17918
L16480 17948
L16450 17958
L16430 17958
L16399 17948
L16319 17867
" />
<path d="M16713 18463
L16743 18292
" />
<path d="M16591 18342
L16803 18130
L16884 18211
L16894 18241
L16894 18261
L16884 18292
L16854 18322
L16824 18332
L16803 18332
L16773 18322
L16692 18241
" />
<path d="M16803 18554
L17016 18342
" />
<path d="M17218 18564
L17208 18534
L17177 18504
L17137 18484
L17096 18484
L17066 18494
L17016 18524
L16985 18554
L16955 18605
L16945 18635
L16945 18675
L16965 18716
L16985 18736
L17026 18756
L17046 18756
L17117 18686
L17076 18645
" />
<path d="M17117 18867
L17329 18655
" />
<path d="M17228 18756
L17349 18877
" />
<path d="M17238 18989
L17450 18776
" />
<path d="M17521 18847
L17642 18968
" />
<path d="M17369 19120
L17581 18908
" />
</g>
<g style="fill:#000000; fill-opacity:0.0; 
stroke:#000000; stroke-width:50; stroke-opacity:1; 
stroke-linecap:round; stroke-linejoin:round;">
<path d="M16965 20110
L17086 19989
" />
<path d="M17238 20261
L17026 20049
" />
<path d="M17369 20130
L17157 19918
" />
<path d="M17430 19847
L17470 19827
L17490 19827
L17521 19837
L17551 19867
L17561 19898
L17561 19918
L17551 19948
L17470 20029
L17258 19817
L17329 19746
L17359 19736
L17379 19736
L17410 19746
L17430 19766
L17440 19797
L17440 19817
L17430 19847
L17359 19918
" />
<path d="M16389 20888
L16319 20958
" />
<path d="M16430 21070
L16218 20857
L16319 20756
" />
<path d="M16500 20777
L16571 20706
" />
<path d="M16713 20787
L16612 20888
L16399 20676
L16500 20575
" />
<path d="M16803 20696
L16591 20484
L16814 20564
L16733 20342
L16945 20554
" />
<path d="M15813 21645
L15813 21666
L15793 21706
L15773 21726
L15733 21746
L15692 21746
L15662 21736
L15611 21706
L15581 21676
L15551 21625
L15541 21595
L15541 21554
L15561 21514
L15581 21494
L15622 21474
L15642 21474
" />
<path d="M15753 21322
L15793 21282
L15824 21272
L15864 21272
L15915 21302
L15985 21373
L16016 21423
L16016 21463
L16005 21494
L15965 21534
L15935 21544
L15894 21544
L15844 21514
L15773 21443
L15743 21393
L15743 21352
L15753 21322
" />
<path d="M15915 21160
L16268 21231
" />
<path d="M16056 21019
L16127 21373
" />
</g>
<g style="fill:#000000; fill-opacity:0.0; 
stroke:#000000; stroke-width:59.0551; stroke-opacity:1; 
stroke-linecap:round; stroke-linejoin:round;">
<path d="M18265 14416
L18477 14204
L18396 14426
L18619 14345
L18406 14557
" />
<path d="M18507 14658
L18720 14446
" />
<path d="M18608 14759
L18821 14547
L18871 14598
L18891 14638
L18891 14678
L18881 14709
L18851 14759
L18821 14790
L18770 14820
L18740 14830
L18699 14830
L18659 14810
L18608 14759
" />
<path d="M18821 14971
L19033 14759
L19083 14810
L19103 14850
L19103 14891
L19093 14921
L19063 14971
L19033 15002
L18982 15032
L18952 15042
L18911 15042
L18871 15022
L18821 14971
" />
<path d="M19134 15285
L19033 15183
L19245 14971
" />
<path d="M19316 15244
L19386 15315
" />
<path d="M19305 15456
L19204 15355
L19417 15143
L19518 15244
" />
<path d="M19679 15830
L19710 15658
" />
<path d="M19558 15709
L19770 15497
L19851 15577
L19861 15608
L19861 15628
L19851 15658
L19821 15689
L19790 15699
L19770 15699
L19740 15689
L19659 15608
" />
<path d="M19770 15921
L19982 15709
" />
<path d="M20184 15931
L20174 15901
L20144 15870
L20103 15850
L20063 15850
L20033 15860
L19982 15891
L19952 15921
L19922 15971
L19912 16002
L19912 16042
L19932 16083
L19952 16103
L19992 16123
L20013 16123
L20083 16052
L20043 16012
" />
<path d="M20083 16234
L20295 16022
" />
<path d="M20194 16123
L20316 16244
" />
<path d="M20204 16355
L20417 16143
" />
<path d="M20487 16214
L20609 16335
" />
<path d="M20336 16487
L20548 16274
" />
</g>
<g style="fill:#000000; fill-opacity:0.0; 
stroke:#000000; stroke-width:50; stroke-opacity:1; 
stroke-linecap:round; stroke-linejoin:round;">
<path d="M19765 17310
L19886 17189
" />
<path d="M20038 17461
L19826 17249
" />
<path d="M20169 17330
L19957 17118
" />
<path d="M20230 17047
L20270 17027
L20290 17027
L20321 17037
L20351 17067
L20361 17098
L20361 17118
L20351 17148
L20270 17229
L20058 17017
L20129 16946
L20159 16936
L20179 16936
L20210 16946
L20230 16966
L20240 16997
L20240 17017
L20230 17047
L20159 17118
" />
<path d="M19189 18088
L19119 18158
" />
<path d="M19230 18270
L19018 18057
L19119 17956
" />
<path d="M19300 17977
L19371 17906
" />
<path d="M19513 17987
L19412 18088
L19199 17876
L19300 17775
" />
<path d="M19603 17896
L19391 17684
L19614 17764
L19533 17542
L19745 17754
" />
<path d="M18613 18845
L18613 18866
L18593 18906
L18573 18926
L18533 18946
L18492 18946
L18462 18936
L18411 18906
L18381 18876
L18351 18825
L18341 18795
L18341 18754
L18361 18714
L18381 18694
L18422 18674
L18442 18674
" />
<path d="M18553 18522
L18593 18482
L18624 18472
L18664 18472
L18715 18502
L18785 18573
L18816 18623
L18816 18663
L18805 18694
L18765 18734
L18735 18744
L18694 18744
L18644 18714
L18573 18643
L18543 18593
L18543 18552
L18553 18522
" />
<path d="M18715 18360
L19068 18431
" />
<path d="M18856 18219
L18927 18573
" />
</g>
<g style="fill:#000000; fill-opacity:0.0; 
stroke:#000000; stroke-width:59.0551; stroke-opacity:1; 
stroke-linecap:round; stroke-linejoin:round;">
<path d="M21362 11541
L21292 11470
" />
<path d="M21181 11581
L21393 11369
L21494 11470
" />
<path d="M21484 11884
L21514 11713
" />
<path d="M21362 11763
L21575 11551
L21655 11632
L21666 11662
L21666 11682
L21655 11713
L21625 11743
L21595 11753
L21575 11753
L21544 11743
L21463 11662
" />
<path d="M21827 11804
L21868 11844
L21878 11874
L21878 11915
L21847 11965
L21777 12036
L21726 12066
L21686 12066
L21655 12056
L21615 12016
L21605 11986
L21605 11945
L21635 11895
L21706 11824
L21756 11794
L21797 11794
L21827 11804
" />
<path d="M21797 12198
L22009 11986
L21918 12319
L22130 12107
" />
<path d="M22201 12177
L22322 12299
" />
<path d="M22049 12450
L22262 12238
" />
<path d="M22464 12864
L22494 12693
" />
<path d="M22342 12743
L22554 12531
L22635 12612
L22645 12642
L22645 12662
L22635 12693
L22605 12723
L22575 12733
L22554 12733
L22524 12723
L22443 12642
" />
<path d="M22554 12955
L22767 12743
" />
<path d="M22969 12965
L22959 12935
L22928 12905
L22888 12885
L22847 12885
L22817 12895
L22767 12925
L22736 12955
L22706 13006
L22696 13036
L22696 13076
L22716 13117
L22736 13137
L22777 13157
L22797 13157
L22868 13087
L22827 13046
" />
<path d="M22868 13268
L23080 13056
" />
<path d="M22979 13157
L23100 13278
" />
<path d="M22989 13390
L23201 13177
" />
<path d="M23272 13248
L23393 13369
" />
<path d="M23120 13521
L23332 13309
" />
</g>
<g style="fill:#000000; fill-opacity:0.0; 
stroke:#000000; stroke-width:50; stroke-opacity:1; 
stroke-linecap:round; stroke-linejoin:round;">
<path d="M22615 14410
L22736 14289
" />
<path d="M22888 14561
L22676 14349
" />
<path d="M23019 14430
L22807 14218
" />
<path d="M23080 14147
L23120 14127
L23140 14127
L23171 14137
L23201 14167
L23211 14198
L23211 14218
L23201 14248
L23120 14329
L22908 14117
L22979 14046
L23009 14036
L23029 14036
L23060 14046
L23080 14066
L23090 14097
L23090 14117
L23080 14147
L23009 14218
" />
<path d="M22039 15188
L21969 15258
" />
<path d="M22080 15370
L21868 15157
L21969 15056
" />
<path d="M22150 15077
L22221 15006
" />
<path d="M22363 15087
L22262 15188
L22049 14976
L22150 14875
" />
<path d="M22453 14996
L22241 14784
L22464 14864
L22383 14642
L22595 14854
" />
<path d="M21463 15945
L21463 15966
L21443 16006
L21423 16026
L21383 16046
L21342 16046
L21312 16036
L21261 16006
L21231 15976
L21201 15925
L21191 15895
L21191 15854
L21211 15814
L21231 15794
L21272 15774
L21292 15774
" />
<path d="M21403 15622
L21443 15582
L21474 15572
L21514 15572
L21565 15602
L21635 15673
L21666 15723
L21666 15763
L21655 15794
L21615 15834
L21585 15844
L21544 15844
L21494 15814
L21423 15743
L21393 15693
L21393 15652
L21403 15622
" />
<path d="M21565 15460
L21918 15531
" />
<path d="M21706 15319
L21777 15673
" />
</g>
<g style="fill:#000000; fill-opacity:0.0; 
stroke:#000000; stroke-width:59.0551; stroke-opacity:1; 
stroke-linecap:round; stroke-linejoin:round;">
<path d="M7490 8970
L7520 8799
" />
<path d="M7368 8849
L7581 8637
L7661 8718
L7672 8748
L7672 8768
L7661 8799
L7631 8829
L7601 8839
L7581 8839
L7550 8829
L7469 8748
" />
<path d="M7692 8950
L7762 9021
" />
<path d="M7682 9162
L7581 9061
L7793 8849
L7894 8950
" />
<path d="M7823 9183
L7924 9284
" />
<path d="M7742 9223
L8025 9081
L7884 9364
" />
<path d="M8076 9556
L8106 9385
" />
<path d="M7954 9435
L8166 9223
L8247 9304
L8257 9334
L8257 9354
L8247 9385
L8217 9415
L8187 9425
L8166 9425
L8136 9415
L8055 9334
" />
<path d="M8429 9910
L8328 9809
L8540 9597
" />
<path d="M8611 9869
L8682 9940
" />
<path d="M8601 10082
L8500 9981
L8712 9768
L8813 9869
" />
<path d="M8874 10132
L8803 10061
" />
<path d="M8692 10172
L8904 9960
L9005 10061
" />
<path d="M9055 10112
L9177 10233
" />
<path d="M8904 10385
L9116 10172
" />
</g>
<g style="fill:#000000; fill-opacity:0.0; 
stroke:#000000; stroke-width:50; stroke-opacity:1; 
stroke-linecap:round; stroke-linejoin:round;">
<path d="M5887 8777
L6008 8656
" />
<path d="M6159 8929
L5947 8716
" />
<path d="M6291 8797
L6079 8585
" />
<path d="M6351 8514
L6392 8494
L6412 8494
L6442 8504
L6473 8535
L6483 8565
L6483 8585
L6473 8615
L6392 8696
L6180 8484
L6250 8413
L6281 8403
L6301 8403
L6331 8413
L6351 8434
L6361 8464
L6361 8484
L6351 8514
L6281 8585
" />
<path d="M5318 9528
L5247 9598
" />
<path d="M5358 9710
L5146 9497
L5247 9396
" />
<path d="M5429 9417
L5500 9346
" />
<path d="M5641 9427
L5540 9528
L5328 9316
L5429 9215
" />
<path d="M5732 9336
L5520 9124
L5742 9204
L5661 8982
L5874 9194
" />
<path d="M4769 10278
L4769 10298
L4749 10339
L4729 10359
L4688 10379
L4648 10379
L4618 10369
L4567 10339
L4537 10309
L4507 10258
L4497 10228
L4497 10187
L4517 10147
L4537 10127
L4577 10107
L4598 10107
" />
<path d="M4709 9955
L4749 9915
L4779 9904
L4820 9904
L4870 9935
L4941 10006
L4971 10056
L4971 10096
L4961 10127
L4921 10167
L4891 10177
L4850 10177
L4800 10147
L4729 10076
L4699 10026
L4699 9985
L4709 9955
" />
<path d="M4870 9793
L5224 9864
" />
<path d="M5012 9652
L5082 10006
" />
</g>
<g style="fill:#000000; fill-opacity:0.0; 
stroke:#000000; stroke-width:59.0551; stroke-opacity:1; 
stroke-linecap:round; stroke-linejoin:round;">
<path d="M13249 3008
L13179 2937
" />
<path d="M13067 3048
L13280 2836
L13381 2937
" />
<path d="M13371 3351
L13401 3179
" />
<path d="M13249 3230
L13461 3018
L13542 3099
L13552 3129
L13552 3149
L13542 3179
L13512 3210
L13482 3220
L13461 3220
L13431 3210
L13350 3129
" />
<path d="M13714 3270
L13754 3311
L13764 3341
L13764 3381
L13734 3432
L13663 3503
L13613 3533
L13573 3533
L13542 3523
L13502 3483
L13492 3452
L13492 3412
L13522 3361
L13593 3291
L13643 3260
L13684 3260
L13714 3270
" />
<path d="M13684 3664
L13896 3452
L13805 3786
L14017 3573
" />
<path d="M14088 3644
L14209 3765
" />
<path d="M13936 3917
L14148 3705
" />
<path d="M14330 4311
L14229 4210
L14441 3998
" />
<path d="M14512 4270
L14583 4341
" />
<path d="M14502 4483
L14401 4382
L14613 4169
L14714 4270
" />
<path d="M14775 4533
L14704 4462
" />
<path d="M14593 4573
L14805 4361
L14906 4462
" />
<path d="M14956 4513
L15078 4634
" />
<path d="M14805 4786
L15017 4573
" />
</g>
<g style="fill:#000000; fill-opacity:0.0; 
stroke:#000000; stroke-width:50; stroke-opacity:1; 
stroke-linecap:round; stroke-linejoin:round;">
<path d="M11572 3230
L11694 3109
" />
<path d="M11845 3381
L11633 3169
" />
<path d="M11976 3250
L11764 3038
" />
<path d="M12037 2967
L12078 2947
L12098 2947
L12128 2957
L12158 2988
L12168 3018
L12168 3038
L12158 3068
L12078 3149
L11865 2937
L11936 2866
L11966 2856
L11987 2856
L12017 2866
L12037 2887
L12047 2917
L12047 2937
L12037 2967
L11966 3038
" />
<path d="M10997 4008
L10926 4078
" />
<path d="M11037 4190
L10825 3977
L10926 3876
" />
<path d="M11108 3897
L11178 3826
" />
<path d="M11320 3907
L11219 4008
L11007 3796
L11108 3695
" />
<path d="M11411 3816
L11199 3604
L11421 3685
L11340 3462
L11552 3674
" />
<path d="M10421 4765
L10421 4786
L10401 4826
L10380 4846
L10340 4866
L10300 4866
L10269 4856
L10219 4826
L10189 4796
L10158 4745
L10148 4715
L10148 4674
L10168 4634
L10189 4614
L10229 4594
L10249 4594
" />
<path d="M10360 4442
L10401 4402
L10431 4392
L10471 4392
L10522 4422
L10593 4493
L10623 4543
L10623 4584
L10613 4614
L10572 4654
L10542 4664
L10502 4664
L10451 4634
L10380 4563
L10350 4513
L10350 4472
L10360 4442
" />
<path d="M10522 4281
L10875 4351
" />
<path d="M10663 4139
L10734 4493
" />
</g>
<g style="fill:#000000; fill-opacity:0.0; 
stroke:#000000; stroke-width:59.0551; stroke-opacity:1; 
stroke-linecap:round; stroke-linejoin:round;">
<path d="M10002 5882
L10214 5670
L10133 5893
L10355 5812
L10143 6024
" />
<path d="M10244 6125
L10456 5913
" />
<path d="M10345 6226
L10557 6014
L10608 6064
L10628 6105
L10628 6145
L10618 6175
L10588 6226
L10557 6256
L10507 6287
L10477 6297
L10436 6297
L10396 6276
L10345 6226
" />
<path d="M10557 6438
L10770 6226
L10820 6276
L10840 6317
L10840 6357
L10830 6388
L10800 6438
L10770 6468
L10719 6499
L10689 6509
L10648 6509
L10608 6489
L10557 6438
" />
<path d="M10871 6751
L10770 6650
L10982 6438
" />
<path d="M11052 6711
L11123 6782
" />
<path d="M11042 6923
L10941 6822
L11153 6610
L11254 6711
" />
<path d="M11396 7276
L11295 7175
L11507 6963
" />
<path d="M11578 7236
L11648 7307
" />
<path d="M11568 7448
L11467 7347
L11679 7135
L11780 7236
" />
<path d="M11840 7499
L11770 7428
" />
<path d="M11658 7539
L11871 7327
L11972 7428
" />
<path d="M12022 7479
L12143 7600
" />
<path d="M11871 7751
L12083 7539
" />
</g>
<g style="fill:#000000; fill-opacity:0.0; 
stroke:#000000; stroke-width:50; stroke-opacity:1; 
stroke-linecap:round; stroke-linejoin:round;">
<path d="M8572 6130
L8694 6009
" />
<path d="M8845 6281
L8633 6069
" />
<path d="M8976 6150
L8764 5938
" />
<path d="M9037 5867
L9078 5847
L9098 5847
L9128 5857
L9158 5888
L9168 5918
L9168 5938
L9158 5968
L9078 6049
L8865 5837
L8936 5766
L8966 5756
L8987 5756
L9017 5766
L9037 5787
L9047 5817
L9047 5837
L9037 5867
L8966 5938
" />
<path d="M7997 6908
L7926 6978
" />
<path d="M8037 7090
L7825 6877
L7926 6776
" />
<path d="M8108 6797
L8178 6726
" />
<path d="M8320 6807
L8219 6908
L8007 6696
L8108 6595
" />
<path d="M8411 6716
L8199 6504
L8421 6585
L8340 6362
L8552 6574
" />
<path d="M7421 7665
L7421 7686
L7401 7726
L7380 7746
L7340 7766
L7300 7766
L7269 7756
L7219 7726
L7189 7696
L7158 7645
L7148 7615
L7148 7574
L7168 7534
L7189 7514
L7229 7494
L7249 7494
" />
<path d="M7360 7342
L7401 7302
L7431 7292
L7471 7292
L7522 7322
L7593 7393
L7623 7443
L7623 7484
L7613 7514
L7572 7554
L7542 7564
L7502 7564
L7451 7534
L7380 7463
L7350 7413
L7350 7372
L7360 7342
" />
<path d="M7522 7181
L7875 7251
" />
<path d="M7663 7039
L7734 7393
" />
</g>
<g style="fill:#000000; fill-opacity:0.0; 
stroke:#000000; stroke-width:59.0551; stroke-opacity:1; 
stroke-linecap:round; stroke-linejoin:round;">
<path d="M10266 9784
L8428 11623
" />
<path d="M8428 11623
L8428 11764
" />
<path d="M8428 11764
L8852 12188
" />
<path d="M8852 12188
L8994 12188
" />
<path d="M8994 12188
L10832 10350
" />
<path d="M10832 10350
L10832 10208
" />
<path d="M10832 10208
L10408 9784
" />
<path d="M10408 9784
L10266 9784
" />
<circle cx="16844.8" cy="3484.25" r="447.213" /> 
<path d="M22829 9653
L21557 10925
" />
<path d="M21557 10925
L20991 10360
" />
<path d="M20991 10360
L22264 9087
" />
<path d="M22264 9087
L22829 9653
" />
</g>
<g style="fill:#000000; fill-opacity:0.0; 
stroke:#000000; stroke-width:120; stroke-opacity:1; 
stroke-linecap:round; stroke-linejoin:round;">
<path d="M18562 21311
L17855 20604
" />
<path d="M17855 20604
L22098 16361
" />
<path d="M22098 16361
L22805 17068
" />
<path d="M22805 17068
L18562 21311
" />
</g>
<g style="fill:#000000; fill-opacity:0.0; 
stroke:#000000; stroke-width:59.0551; stroke-opacity:1; 
stroke-linecap:round; stroke-linejoin:round;">
<path d="M17984 8768
L16286 8768
" />
<path d="M19398 10183
L19398 11880
" />
<path d="M15155 8768
L15438 8768
" />
<path d="M19398 13011
L19398 12728
" />
<path d="M19398 10183
L17984 8768
" />
<path d="M19398 13011
L14448 17961
" />
<path d="M15155 8768
L10205 13718
" />
<path d="M10205 13718
L14448 17961
" />
<path d="M14649 14783
L14084 14217
" />
<path d="M14084 14217
L12811 15490
" />
<path d="M12811 15490
L13377 16055
" />
<path d="M13377 16055
L14649 14783
" />
<path d="M22280 10886
L22080 11086
" />
<path d="M24080 12686
L23880 12886
" />
<path d="M23880 12886
L23180 12886
" />
<path d="M23180 12886
L22080 11786
" />
<path d="M22080 11786
L22080 11086
" />
<path d="M24080 12686
L24080 11286
" />
<path d="M24080 11286
L23680 10886
" />
<path d="M23680 10886
L22280 10886
" />
<path d="M23444 9007
L24009 9573
" />
<path d="M24009 9573
L22737 10845
" />
<path d="M22737 10845
L22171 10280
" />
<path d="M22171 10280
L23444 9007
" />
</g>
<g style="fill:#000000; fill-opacity:0.0; 
stroke:#000000; stroke-width:150; stroke-opacity:1; 
stroke-linecap:round; stroke-linejoin:round;">
<path d="M22008 5015
L21655 5369
" />
<path d="M21655 5369
L20948 4661
" />
<path d="M20948 4661
L21301 4308
" />
<path d="M23422 6429
L8573 21279
" />
<path d="M8573 21279
L5038 17743
" />
<path d="M5038 17743
L19887 2894
" />
<path d="M19887 2894
L23422 6429
" />
</g>
<g style="fill:#000000; fill-opacity:0.0; 
stroke:#000000; stroke-width:60; stroke-opacity:1; 
stroke-linecap:round; stroke-linejoin:round;">
<path d="M16030 2326
L16030 3326
" />
<path d="M16030 3326
L14030 3326
" />
<path d="M14030 3326
L14030 2326
" />
<path d="M14030 2326
L16030 2326
" />
</g>
<g style="fill:#000000; fill-opacity:0.0; 
stroke:#000000; stroke-width:150; stroke-opacity:1; 
stroke-linecap:round; stroke-linejoin:round;">
<circle cx="22553.4" cy="20413.4" r="900" /> 
<circle cx="6018" cy="3877.95" r="900" /> 
</g>
<g style="fill:#000000; fill-opacity:1.0; 
stroke:#000000; stroke-width:1; stroke-opacity:1; 
stroke-linecap:round; stroke-linejoin:round;">
<polyline style="fill-rule:evenodd;"
points="7386,6694
7385,6717
7385,6740
7363,6763
7317,6717
7271,6671
7224,6624
7178,6671
7132,6717
7178,6763
7224,6809
7270,6763
7317,6717
7363,6763
7316,6809
7247,6878
7224,6878
7201,6878
7132,6809
7063,6740
7063,6717
7063,6693
7132,6625
7201,6555
7224,6556
7248,6555
7317,6625
7386,6694
7386,6694
" /> 
<polyline style="fill-rule:evenodd;"
points="7582,6498
7582,6521
7581,6544
7559,6567
7420,6428
7374,6474
7327,6521
7374,6567
7420,6613
7466,6567
7511,6521
7466,6474
7420,6428
7559,6567
7512,6613
7443,6682
7420,6683
7397,6682
7327,6613
7257,6543
7258,6521
7257,6499
7327,6429
7397,6359
7421,6359
7443,6359
7513,6429
7582,6498
7582,6498
" /> 
<polyline style="fill-rule:evenodd;"
points="7776,6301
7776,6325
7776,6349
7754,6371
7708,6326
7662,6280
7615,6233
7569,6279
7523,6325
7570,6371
7616,6417
7662,6371
7708,6326
7754,6371
7708,6417
7639,6486
7615,6486
7591,6486
7523,6417
7454,6349
7454,6326
7453,6303
7523,6233
7593,6163
7617,6164
7639,6164
7708,6232
7776,6301
7776,6301
" /> 
<polyline style="fill-rule:evenodd;"
points="7973,6107
7972,6130
7972,6153
7950,6176
7904,6130
7858,6084
7811,6037
7764,6084
7718,6130
7764,6176
7774,6185
7782,6193
7790,6201
7797,6208
7803,6214
7807,6218
7810,6220
7811,6221
7812,6220
7815,6218
7820,6213
7826,6207
7832,6201
7841,6193
7849,6184
7858,6176
7904,6130
7950,6176
7903,6222
7834,6292
7811,6292
7788,6291
7719,6222
7650,6153
7650,6130
7650,6106
7719,6037
7789,5967
7811,5968
7833,5967
7903,6037
7973,6107
7973,6107
" /> 
<polyline style="fill-rule:evenodd;"
points="8169,5911
8169,5934
8168,5957
8146,5980
8100,5934
8054,5888
8007,5841
7960,5888
7914,5934
7961,5980
8007,6026
8053,5980
8100,5934
8146,5980
8099,6026
8030,6095
8007,6096
7984,6095
7915,6026
7846,5957
7846,5934
7846,5910
7915,5841
7984,5773
8008,5773
8030,5773
8100,5842
8169,5911
8169,5911
" /> 
<polyline style="fill-rule:evenodd;"
points="9399,4030
9399,4031
9401,4034
9405,4039
9411,4046
9416,4054
9423,4064
9431,4075
9440,4086
9449,4099
9459,4112
9469,4126
9479,4140
9489,4154
9499,4168
9509,4182
9519,4195
9528,4208
9537,4220
9544,4232
9551,4242
9558,4250
9563,4257
9567,4263
9569,4266
9570,4268
9578,4283
9583,4296
9583,4298
9380,4095
9379,4094
9378,4095
9377,4097
9373,4099
9370,4102
9364,4108
9357,4115
9355,4117
9346,4126
9339,4133
9335,4138
9330,4143
9328,4147
9326,4152
9324,4155
9324,4160
9323,4160
9324,4167
9324,4174
9326,4183
9328,4191
9330,4196
9334,4206
9340,4216
9348,4226
9355,4238
9365,4250
9374,4261
9383,4270
9391,4276
9400,4280
9409,4281
9417,4278
9422,4276
9425,4274
9430,4270
9435,4264
9442,4258
9447,4252
9449,4247
9454,4242
9457,4235
9461,4230
9464,4224
9466,4220
9468,4218
9467,4217
9467,4216
9464,4213
9461,4207
9457,4201
9451,4194
9445,4185
9438,4175
9431,4165
9424,4155
9417,4146
9410,4136
9403,4126
9397,4117
9391,4110
9387,4104
9383,4099
9381,4095
9380,4095
9583,4298
9586,4310
9586,4324
9583,4339
9581,4343
9579,4350
9577,4355
9574,4360
9570,4365
9565,4370
9560,4377
9553,4384
9544,4392
9534,4400
9523,4410
9509,4421
9508,4422
9498,4430
9489,4437
9481,4443
9475,4448
9470,4453
9466,4456
9464,4457
9464,4457
9463,4456
9461,4454
9457,4449
9454,4444
9453,4443
9442,4430
9484,4387
9527,4344
9529,4336
9532,4326
9532,4316
9530,4305
9528,4302
9527,4299
9524,4294
9520,4288
9516,4283
9511,4275
9506,4269
9502,4263
9498,4257
9494,4252
9492,4250
9491,4249
9490,4250
9488,4254
9487,4258
9486,4260
9482,4270
9478,4278
9473,4286
9468,4293
9461,4301
9455,4307
9449,4313
9443,4317
9440,4321
9436,4323
9433,4326
9430,4327
9419,4331
9409,4334
9398,4334
9391,4334
9385,4333
9379,4330
9372,4327
9368,4324
9364,4322
9360,4319
9357,4317
9353,4314
9348,4309
9342,4304
9338,4300
9321,4282
9307,4264
9295,4245
9285,4226
9278,4209
9275,4198
9274,4188
9273,4177
9273,4166
9275,4156
9276,4149
9280,4141
9284,4131
9290,4123
9295,4117
9297,4113
9302,4108
9308,4103
9315,4096
9324,4089
9331,4081
9340,4074
9348,4068
9355,4062
9355,4062
9360,4058
9366,4054
9372,4049
9379,4044
9385,4039
9390,4035
9395,4032
9397,4030
9399,4030
9399,4030
" /> 
<polyline style="fill-rule:evenodd;"
points="8657,4887
8667,4896
8674,4906
8684,4918
8689,4925
8698,4940
8706,4954
8713,4966
8716,4978
8720,4990
8720,4992
8722,5007
8721,5022
8720,5025
8620,4925
8614,4919
8608,4915
8604,4911
8602,4909
8593,4906
8584,4904
8576,4904
8568,4906
8543,4932
8517,4958
8560,5018
8568,5029
8576,5040
8583,5050
8590,5059
8595,5066
8599,5073
8603,5077
8604,5080
8605,5080
8608,5080
8612,5079
8617,5077
8624,5074
8630,5070
8637,5065
8643,5060
8646,5058
8649,5055
8654,5050
8657,5045
8658,5044
8665,5035
8668,5024
8669,5015
8669,5004
8665,4995
8662,4988
8658,4979
8653,4969
8647,4959
8641,4950
8636,4945
8632,4939
8626,4932
8620,4925
8720,5025
8717,5036
8711,5050
8701,5063
8690,5076
8680,5085
8666,5094
8653,5103
8641,5109
8639,5110
8635,5111
8631,5114
8629,5114
8629,5114
8631,5116
8633,5119
8636,5124
8641,5130
8645,5138
8653,5146
8659,5155
8665,5164
8672,5174
8679,5184
8686,5193
8691,5202
8697,5209
8702,5215
8706,5220
8708,5224
8709,5225
8709,5227
8706,5229
8702,5234
8697,5239
8691,5244
8691,5245
8672,5264
8670,5261
8669,5260
8667,5256
8662,5251
8658,5244
8651,5235
8643,5225
8635,5212
8626,5198
8614,5184
8604,5168
8592,5152
8580,5135
8567,5117
8565,5114
8551,5096
8539,5078
8527,5062
8516,5046
8505,5032
8496,5018
8487,5006
8480,4995
8473,4986
8468,4978
8464,4973
8461,4969
8460,4966
8460,4966
8461,4966
8463,4962
8466,4958
8467,4957
8476,4945
8486,4932
8498,4919
8510,4905
8522,4892
8530,4884
8537,4877
8542,4872
8546,4868
8549,4865
8552,4863
8554,4861
8556,4860
8566,4855
8574,4853
8583,4850
8588,4851
8600,4852
8612,4855
8624,4860
8636,4868
8648,4879
8657,4887
8657,4887
" /> 
<polyline style="fill-rule:evenodd;"
points="8768,4492
8768,4493
8769,4498
8772,4503
8775,4512
8778,4522
8782,4534
8788,4549
8792,4564
8798,4582
8805,4599
8812,4619
8819,4640
8826,4662
8834,4685
8838,4696
8907,4900
8887,4920
8867,4940
8865,4931
8863,4928
8863,4923
8860,4916
8856,4907
8853,4896
8848,4882
8843,4868
8838,4852
8831,4834
8825,4815
8818,4795
8811,4774
8803,4752
8796,4730
8795,4727
8728,4532
8748,4512
8754,4506
8759,4500
8764,4496
8766,4493
8768,4492
8768,4492
8768,4492
" /> 
<polyline style="fill-rule:evenodd;"
points="8909,4352
8911,4353
8911,4357
8913,4363
8916,4372
8920,4382
8925,4394
8929,4409
8935,4424
8941,4442
8947,4460
8954,4480
8961,4501
8968,4522
8976,4546
8979,4556
9049,4759
9029,4778
9009,4798
8998,4764
8996,4759
8993,4751
8990,4741
8986,4728
8981,4715
8976,4698
8970,4681
8963,4663
8957,4644
8950,4624
8942,4603
8935,4582
8928,4561
8870,4390
8889,4370
8897,4363
8903,4357
8906,4353
8909,4352
8909,4352
8909,4352
" /> 
<polyline style="fill-rule:evenodd;"
points="10550,2948
10560,2960
10568,2972
10573,2985
10577,2999
10577,3010
10577,3018
10575,3027
10573,3035
10569,3044
10517,2992
10510,2986
10504,2984
10497,2983
10495,2984
10490,2987
10482,2992
10475,2999
10468,3006
10463,3010
10458,3018
10452,3027
10449,3034
10448,3042
10449,3050
10451,3059
10455,3069
10461,3081
10468,3094
10470,3095
10471,3096
10471,3097
10473,3096
10476,3095
10479,3092
10484,3087
10490,3081
10495,3076
10501,3069
10507,3063
10511,3059
10514,3054
10516,3050
10516,3049
10523,3037
10526,3025
10528,3015
10526,3006
10521,2997
10517,2992
10569,3044
10568,3047
10562,3059
10555,3071
10553,3073
10549,3078
10543,3086
10536,3093
10528,3100
10521,3107
10514,3114
10507,3119
10505,3119
10500,3123
10497,3126
10495,3127
10495,3127
10495,3129
10498,3132
10501,3136
10502,3138
10511,3146
10517,3153
10524,3156
10531,3158
10538,3156
10545,3153
10550,3149
10556,3145
10562,3140
10569,3133
10577,3125
10585,3116
10594,3107
10601,3098
10608,3090
10613,3083
10618,3077
10622,3072
10625,3068
10627,3066
10627,3065
10629,3066
10631,3069
10635,3074
10638,3078
10642,3083
10645,3087
10648,3091
10649,3094
10649,3095
10648,3100
10645,3105
10640,3112
10635,3119
10630,3127
10625,3136
10618,3144
10615,3147
10600,3165
10584,3180
10574,3191
10564,3199
10555,3205
10547,3209
10538,3211
10530,3212
10526,3211
10516,3210
10507,3207
10497,3202
10486,3195
10475,3185
10468,3179
10458,3167
10446,3154
10437,3140
10427,3126
10418,3112
10410,3098
10405,3086
10400,3073
10398,3063
10398,3049
10399,3035
10403,3020
10411,3006
10420,2992
10425,2987
10430,2979
10438,2972
10446,2964
10454,2958
10460,2951
10465,2948
10478,2939
10490,2934
10502,2930
10513,2929
10519,2930
10527,2932
10533,2935
10540,2939
10547,2945
10550,2948
10550,2948
" /> 
<polyline style="fill-rule:evenodd;"
points="9075,4175
9076,4177
9078,4180
9082,4185
9087,4191
9093,4201
9101,4211
9109,4223
9119,4236
9129,4251
9140,4266
9152,4282
9164,4299
9177,4317
9182,4324
9288,4471
9273,4486
9272,4487
9137,4352
9136,4351
9134,4352
9131,4354
9125,4357
9120,4360
9114,4365
9109,4368
9106,4370
9101,4374
9096,4379
9090,4385
9087,4388
9082,4393
9078,4397
9076,4399
9074,4402
9073,4406
9072,4413
9072,4421
9074,4430
9078,4440
9084,4452
9091,4464
9094,4469
9102,4481
9110,4492
9118,4501
9126,4509
9129,4512
9135,4517
9139,4521
9143,4524
9147,4526
9149,4527
9157,4528
9164,4528
9171,4525
9172,4524
9176,4521
9181,4516
9185,4510
9191,4505
9194,4498
9196,4496
9199,4492
9202,4486
9205,4481
9208,4474
9210,4468
9213,4463
9215,4459
9215,4458
9215,4458
9213,4457
9211,4453
9208,4448
9203,4442
9198,4434
9191,4426
9184,4416
9175,4404
9168,4393
9160,4384
9154,4375
9148,4368
9143,4360
9139,4356
9137,4352
9272,4487
9259,4500
9249,4495
9243,4492
9239,4490
9237,4489
9237,4489
9237,4490
9235,4493
9234,4498
9234,4498
9232,4508
9227,4519
9223,4529
9218,4538
9216,4543
9211,4551
9205,4558
9198,4566
9191,4572
9187,4575
9176,4580
9164,4583
9152,4584
9140,4582
9139,4582
9131,4578
9122,4573
9113,4568
9103,4561
9099,4559
9090,4551
9080,4539
9068,4527
9059,4513
9049,4499
9041,4484
9034,4470
9031,4462
9026,4447
9022,4434
9022,4422
9022,4410
9025,4399
9031,4386
9031,4386
9033,4381
9036,4377
9038,4373
9042,4369
9048,4363
9063,4350
9079,4338
9096,4328
9104,4324
9109,4322
9112,4320
9114,4319
9114,4319
9113,4318
9111,4314
9107,4310
9102,4303
9097,4295
9090,4286
9083,4276
9076,4266
9038,4213
9056,4194
9062,4188
9067,4183
9070,4179
9073,4177
9075,4175
9075,4175
" /> 
<polyline style="fill-rule:evenodd;"
points="9779,3677
9782,3680
9786,3684
9790,3690
9796,3697
9802,3706
9810,3717
9819,3729
9830,3742
9838,3755
9848,3768
9858,3781
9868,3793
9876,3805
9884,3815
9890,3824
9896,3832
9900,3838
9903,3841
9905,3844
9910,3851
9896,3865
9892,3868
9752,3728
9750,3729
9747,3730
9743,3733
9741,3734
9734,3740
9725,3747
9716,3756
9708,3764
9703,3772
9698,3782
9696,3792
9695,3801
9695,3808
9697,3816
9700,3825
9706,3835
9712,3846
9720,3857
9727,3868
9734,3878
9742,3887
9749,3894
9751,3895
9758,3902
9767,3906
9775,3908
9782,3909
9788,3907
9789,3906
9792,3904
9794,3903
9797,3902
9801,3897
9805,3892
9810,3887
9814,3882
9817,3877
9817,3875
9819,3872
9821,3865
9824,3858
9827,3851
9829,3844
9831,3839
9831,3837
9831,3836
9830,3834
9828,3832
9826,3828
9823,3823
9818,3817
9813,3809
9806,3799
9797,3787
9792,3781
9785,3771
9778,3761
9770,3752
9765,3744
9760,3737
9756,3733
9753,3730
9752,3728
9892,3868
9881,3878
9869,3873
9857,3866
9856,3875
9855,3883
9852,3893
9848,3903
9843,3914
9840,3917
9836,3924
9831,3931
9825,3938
9819,3945
9813,3950
9812,3951
9802,3957
9791,3962
9780,3964
9772,3964
9761,3962
9751,3960
9741,3955
9732,3950
9721,3940
9710,3930
9699,3917
9691,3906
9679,3892
9671,3879
9664,3868
9658,3856
9653,3844
9650,3832
9649,3830
9646,3817
9645,3805
9646,3793
9647,3782
9650,3777
9652,3769
9656,3761
9660,3754
9665,3747
9671,3740
9676,3734
9684,3724
9693,3716
9703,3709
9713,3699
9723,3694
9734,3687
9742,3682
9750,3678
9758,3675
9761,3675
9764,3674
9766,3673
9768,3672
9770,3672
9773,3672
9774,3674
9776,3675
9779,3677
9779,3677
" /> 
<polyline style="fill-rule:evenodd;"
points="10013,3419
10015,3421
10018,3426
10021,3431
10025,3436
10029,3439
10031,3443
10032,3445
10032,3445
10031,3447
10029,3449
10024,3453
10019,3458
10012,3464
10009,3467
9999,3476
9989,3486
9980,3495
9972,3503
9965,3510
9959,3515
9956,3520
9954,3522
9951,3529
9950,3537
9950,3546
9951,3548
9954,3556
9958,3565
9964,3576
9970,3587
9977,3598
9985,3609
9992,3619
10000,3629
10007,3637
10015,3643
10021,3648
10024,3650
10031,3651
10039,3652
10047,3650
10050,3648
10054,3646
10059,3641
10065,3634
10074,3626
10082,3617
10091,3607
10101,3597
10104,3593
10111,3586
10116,3580
10120,3576
10123,3572
10125,3569
10126,3569
10127,3570
10130,3573
10133,3577
10136,3582
10137,3583
10147,3597
10140,3607
10130,3624
10119,3641
10109,3653
10105,3658
10099,3664
10094,3670
10088,3677
10082,3683
10077,3688
10072,3692
10070,3694
10065,3697
10058,3700
10050,3703
10045,3704
10044,3705
10031,3706
10018,3704
10005,3700
9998,3697
9995,3695
9991,3693
9988,3691
9984,3687
9980,3683
9974,3677
9972,3675
9954,3656
9938,3636
9924,3614
9913,3593
9908,3582
9903,3568
9899,3554
9898,3541
9899,3529
9903,3517
9908,3506
9917,3494
9928,3483
9942,3470
9942,3470
9949,3464
9957,3457
9966,3450
9975,3443
9984,3437
9992,3431
9999,3426
10005,3422
10009,3420
10012,3419
10013,3419
10013,3419
" /> 
<polyline style="fill-rule:evenodd;"
points="10188,3262
10254,3351
10265,3364
10274,3378
10283,3390
10292,3401
10299,3412
10306,3421
10311,3428
10316,3433
10318,3438
10321,3440
10321,3440
10319,3441
10317,3443
10313,3448
10309,3452
10306,3454
10303,3457
10165,3320
10163,3319
10160,3319
10157,3320
10153,3323
10148,3325
10147,3326
10143,3329
10138,3334
10132,3340
10125,3346
10120,3352
10116,3358
10113,3361
10108,3372
10106,3383
10106,3395
10108,3405
10111,3414
10117,3426
10123,3436
10131,3448
10139,3459
10147,3470
10155,3478
10163,3486
10164,3487
10172,3492
10180,3496
10187,3498
10191,3498
10196,3496
10203,3493
10209,3488
10215,3482
10222,3474
10227,3467
10229,3462
10233,3455
10236,3448
10238,3441
10239,3433
10241,3428
10241,3424
10241,3422
10239,3419
10236,3416
10232,3411
10228,3404
10222,3396
10215,3387
10208,3378
10202,3369
10195,3359
10188,3351
10182,3342
10176,3335
10171,3329
10168,3324
10166,3320
10165,3320
10303,3457
10292,3468
10280,3462
10268,3456
10267,3464
10263,3477
10259,3491
10253,3505
10244,3518
10234,3529
10224,3539
10219,3543
10207,3549
10195,3553
10182,3553
10169,3552
10157,3547
10143,3540
10142,3539
10137,3535
10130,3527
10122,3520
10114,3511
10106,3501
10097,3491
10089,3480
10084,3472
10076,3460
10070,3447
10064,3433
10060,3421
10057,3409
10055,3401
10056,3387
10058,3373
10063,3358
10070,3346
10073,3339
10079,3332
10084,3325
10091,3317
10098,3310
10104,3305
10106,3303
10111,3298
10118,3293
10126,3288
10134,3283
10142,3278
10149,3274
10154,3271
10155,3270
10164,3267
10172,3264
10180,3262
10183,3262
10188,3262
10188,3262
" /> 
<polyline style="fill-rule:evenodd;"
points="10757,2673
10758,2674
10760,2676
10763,2680
10767,2685
10770,2690
10774,2694
10776,2697
10776,2697
10778,2701
10757,2719
10749,2727
10740,2735
10731,2744
10722,2752
10717,2757
10711,2764
10706,2769
10702,2772
10700,2776
10698,2778
10697,2780
10697,2782
10695,2789
10695,2796
10696,2804
10700,2812
10704,2822
10708,2829
10717,2844
10726,2858
10735,2871
10744,2882
10753,2892
10757,2896
10763,2900
10766,2902
10770,2905
10774,2906
10781,2907
10789,2907
10794,2904
10799,2901
10804,2896
10810,2890
10817,2883
10826,2873
10835,2864
10845,2854
10850,2847
10856,2841
10861,2835
10866,2830
10869,2826
10871,2825
10871,2824
10872,2825
10875,2827
10878,2832
10881,2837
10885,2842
10888,2846
10890,2849
10891,2851
10891,2852
10891,2854
10888,2858
10886,2864
10882,2868
10878,2876
10874,2882
10871,2886
10865,2895
10857,2905
10850,2914
10841,2924
10833,2932
10825,2940
10817,2946
10811,2951
10808,2952
10797,2958
10784,2960
10772,2960
10759,2958
10757,2957
10748,2954
10741,2950
10735,2946
10729,2941
10722,2934
10718,2931
10700,2911
10683,2890
10669,2868
10664,2859
10656,2843
10649,2827
10646,2813
10644,2800
10644,2788
10647,2775
10652,2763
10654,2760
10659,2753
10666,2745
10674,2737
10683,2728
10694,2719
10707,2709
10719,2699
10731,2690
10744,2681
10745,2680
10750,2677
10755,2675
10757,2673
10757,2673
10757,2673
" /> 
<polyline style="fill-rule:evenodd;"
points="10933,2519
10935,2521
10938,2524
10941,2528
10945,2533
10950,2539
10956,2547
10963,2556
10971,2567
10980,2580
10992,2595
10998,2604
11009,2617
11019,2632
11028,2644
11036,2655
11043,2665
11050,2674
11056,2682
11060,2687
11063,2692
11064,2693
11064,2693
11064,2695
11063,2697
11060,2700
11055,2705
11051,2709
11048,2712
10910,2574
10909,2573
10907,2574
10904,2575
10898,2578
10898,2579
10886,2586
10876,2595
10867,2605
10859,2615
10854,2626
10852,2631
10851,2639
10851,2648
10852,2658
10856,2667
10862,2678
10869,2692
10879,2705
10880,2708
10891,2722
10901,2733
10910,2743
10919,2748
10928,2752
10935,2753
10939,2752
10946,2749
10954,2744
10962,2736
10968,2727
10973,2719
10977,2711
10982,2701
10985,2691
10987,2678
10950,2628
10942,2617
10935,2608
10928,2599
10922,2591
10917,2584
10914,2579
10912,2576
10911,2575
10910,2574
11048,2712
11037,2722
11025,2717
11014,2711
11011,2724
11006,2738
11001,2752
10993,2767
10984,2779
10974,2791
10968,2795
10957,2802
10946,2806
10934,2808
10931,2808
10920,2808
10909,2805
10899,2801
10888,2794
10878,2785
10867,2774
10862,2769
10848,2752
10836,2738
10827,2723
10818,2709
10811,2693
10808,2682
10805,2674
10803,2668
10801,2662
10801,2657
10801,2651
10801,2648
10801,2638
10803,2629
10805,2622
10808,2612
10812,2605
10817,2597
10822,2589
10829,2581
10837,2572
10842,2568
10848,2562
10854,2556
10858,2552
10864,2547
10870,2544
10872,2542
10879,2538
10886,2533
10893,2530
10898,2526
10905,2523
10912,2521
10920,2518
10927,2517
10930,2516
10930,2516
10931,2517
10932,2518
10933,2519
10933,2519
" /> 
<polyline style="fill-rule:evenodd;"
points="8215,5283
8218,5285
8222,5291
8228,5299
8235,5309
8245,5321
8255,5336
8268,5353
8272,5358
8281,5371
8289,5382
8297,5393
8304,5403
8310,5412
8316,5419
8320,5425
8322,5428
8324,5430
8324,5430
8327,5434
8307,5453
8288,5472
8287,5469
8285,5466
8281,5461
8276,5454
8271,5446
8264,5437
8257,5427
8249,5416
8242,5406
8233,5394
8225,5383
8217,5372
8210,5362
8202,5353
8196,5345
8191,5338
8187,5333
8184,5330
8183,5328
8177,5323
8172,5320
8166,5319
8160,5319
8158,5319
8156,5320
8153,5321
8151,5324
8148,5326
8144,5331
8141,5333
8135,5340
8130,5346
8126,5353
8122,5360
8119,5368
8116,5377
8115,5381
8109,5396
8159,5466
8168,5478
8177,5490
8185,5500
8192,5510
8199,5519
8204,5527
8208,5534
8212,5537
8213,5539
8213,5539
8216,5544
8197,5563
8191,5570
8186,5575
8182,5578
8179,5580
8178,5581
8177,5580
8177,5580
8175,5576
8170,5570
8165,5563
8159,5555
8151,5544
8143,5531
8133,5519
8123,5505
8112,5489
8100,5473
8087,5456
8075,5438
8071,5432
7965,5287
7983,5268
7989,5262
7994,5257
7999,5254
8001,5251
8003,5250
8003,5250
8004,5251
8006,5255
8010,5260
8015,5266
8020,5275
8027,5283
8035,5293
8042,5304
8044,5307
8052,5318
8060,5328
8066,5338
8073,5347
8078,5353
8082,5359
8085,5363
8086,5365
8086,5365
8087,5364
8088,5361
8089,5359
8093,5345
8097,5333
8100,5324
8104,5314
8108,5307
8112,5300
8118,5293
8123,5287
8129,5280
8134,5276
8138,5273
8142,5271
8153,5265
8165,5262
8176,5262
8188,5264
8199,5270
8210,5278
8215,5283
8215,5283
" /> 
<polyline style="fill-rule:evenodd;"
points="8307,5111
8309,5114
8311,5117
8315,5122
8319,5128
8320,5129
8332,5145
8310,5166
8289,5188
8321,5232
8332,5247
8341,5261
8349,5271
8357,5280
8363,5287
8368,5293
8373,5297
8376,5301
8380,5303
8383,5304
8386,5304
8389,5304
8392,5302
8397,5300
8402,5297
8409,5295
8410,5294
8416,5290
8421,5288
8424,5287
8426,5286
8427,5287
8428,5287
8429,5289
8432,5293
8435,5297
8438,5301
8446,5313
8430,5330
8425,5336
8418,5341
8414,5345
8409,5350
8408,5351
8397,5356
8387,5360
8376,5360
8366,5359
8365,5358
8360,5356
8356,5354
8351,5351
8346,5347
8341,5343
8335,5338
8329,5330
8322,5321
8314,5311
8305,5299
8294,5285
8290,5278
8282,5269
8275,5259
8269,5251
8263,5243
8259,5237
8256,5232
8253,5229
8253,5229
8251,5225
8236,5240
8230,5246
8225,5250
8222,5253
8220,5253
8219,5251
8216,5249
8213,5244
8211,5241
8202,5229
8206,5222
8208,5218
8211,5213
8216,5207
8217,5203
8220,5198
8223,5194
8225,5191
8225,5189
8224,5188
8223,5186
8220,5180
8217,5174
8215,5171
8211,5162
8206,5155
8202,5147
8199,5140
8199,5139
8191,5126
8206,5111
8213,5105
8217,5101
8220,5099
8222,5097
8223,5098
8224,5099
8226,5103
8230,5107
8234,5114
8240,5121
8242,5124
8247,5131
8252,5138
8257,5143
8259,5147
8261,5150
8262,5150
8262,5150
8264,5150
8265,5150
8267,5148
8271,5145
8275,5140
8281,5134
8284,5131
8291,5124
8296,5119
8300,5115
8303,5114
8305,5112
8306,5111
8307,5111
8307,5111
8307,5111
" /> 
<polyline style="fill-rule:evenodd;"
points="8430,4988
8431,4991
8434,4994
8438,4999
8442,5005
8443,5007
8453,5022
8432,5043
8426,5051
8420,5056
8416,5060
8413,5065
8411,5066
8411,5066
8413,5068
8415,5071
8418,5076
8423,5082
8429,5089
8435,5099
8443,5109
8444,5110
8455,5125
8464,5138
8472,5148
8479,5158
8485,5165
8491,5171
8495,5175
8498,5179
8502,5181
8505,5181
8508,5181
8511,5181
8513,5181
8517,5179
8522,5176
8528,5173
8533,5171
8539,5167
8544,5164
8547,5164
8549,5162
8549,5163
8551,5167
8554,5171
8558,5176
8558,5176
8562,5181
8566,5186
8568,5188
8569,5190
8568,5191
8566,5194
8562,5198
8558,5203
8552,5208
8547,5213
8542,5218
8537,5222
8533,5226
8531,5228
8520,5234
8509,5237
8498,5238
8488,5236
8477,5231
8467,5223
8455,5213
8454,5212
8451,5208
8447,5203
8442,5196
8435,5188
8429,5179
8421,5168
8414,5159
8411,5155
8404,5145
8397,5135
8391,5126
8385,5118
8380,5113
8377,5109
8375,5106
8375,5106
8374,5105
8373,5104
8371,5105
8369,5107
8365,5111
8361,5115
8358,5118
8344,5133
8335,5121
8332,5116
8329,5112
8327,5109
8327,5107
8326,5106
8327,5104
8328,5100
8331,5096
8335,5089
8336,5087
8341,5078
8344,5073
8346,5068
8346,5066
8346,5065
8346,5064
8343,5060
8340,5054
8336,5048
8332,5039
8330,5034
8315,5005
8329,4989
8344,4974
8347,4978
8350,4982
8354,4988
8359,4994
8365,5001
8369,5008
8374,5015
8378,5020
8382,5024
8385,5028
8385,5029
8385,5029
8387,5028
8389,5026
8394,5022
8399,5016
8405,5010
8407,5008
8414,5001
8419,4996
8423,4992
8426,4990
8428,4989
8428,4988
8430,4988
8430,4988
8430,4988
" /> 
<polyline style="fill-rule:evenodd;"
points="8790,4900
8791,4903
8795,4906
8798,4911
8802,4917
8804,4920
8810,4927
8812,4933
8815,4937
8816,4940
8814,4944
8811,4948
8807,4953
8801,4959
8795,4966
8790,4970
8787,4974
8785,4974
8783,4976
8782,4976
8778,4976
8775,4973
8772,4970
8769,4966
8765,4960
8761,4954
8756,4949
8753,4944
8750,4940
8750,4938
8749,4936
8749,4933
8751,4930
8754,4926
8757,4921
8764,4915
8765,4913
8772,4906
8777,4903
8781,4899
8784,4899
8786,4898
8789,4899
8790,4900
8790,4900
" /> 
<polyline style="fill-rule:evenodd;"
points="9213,4203
9214,4204
9217,4207
9221,4213
9225,4220
9232,4228
9238,4237
9246,4247
9254,4259
9263,4271
9272,4283
9282,4296
9290,4309
9300,4322
9309,4334
9318,4346
9326,4357
9333,4368
9340,4377
9345,4385
9350,4392
9354,4397
9356,4399
9356,4400
9357,4401
9358,4401
9356,4403
9355,4405
9353,4408
9348,4412
9343,4418
9340,4421
9333,4428
9328,4433
9324,4436
9321,4438
9321,4438
9319,4438
9319,4437
9317,4434
9312,4428
9308,4421
9301,4413
9294,4403
9285,4392
9277,4379
9267,4366
9257,4352
9246,4339
9175,4240
9194,4221
9200,4216
9205,4211
9209,4206
9213,4204
9213,4203
9213,4203
" /> 
<polyline style="fill-rule:evenodd;"
points="9464,3953
9522,4032
9531,4047
9541,4059
9551,4073
9560,4085
9568,4097
9576,4108
9583,4117
9588,4124
9592,4130
9594,4132
9609,4152
9589,4171
9570,4190
9568,4187
9567,4185
9565,4182
9560,4176
9556,4168
9549,4160
9541,4150
9533,4138
9524,4126
9514,4113
9504,4098
9496,4088
9486,4073
9476,4059
9466,4046
9458,4034
9449,4022
9443,4013
9437,4005
9432,3998
9429,3993
9427,3991
9426,3991
9427,3989
9430,3986
9433,3982
9439,3977
9444,3971
9444,3971
9464,3953
9464,3953
" /> 
<polyline style="fill-rule:evenodd;"
points="9594,3822
9607,3839
9619,3857
9598,3878
9577,3901
9609,3945
9620,3960
9629,3972
9636,3981
9643,3990
9649,3997
9653,4003
9657,4007
9661,4010
9664,4013
9667,4014
9667,4014
9670,4015
9674,4016
9677,4015
9681,4014
9688,4011
9696,4007
9699,4005
9705,4002
9709,3999
9712,3999
9715,3999
9717,4001
9720,4005
9724,4011
9726,4013
9734,4025
9718,4042
9712,4048
9706,4053
9701,4058
9697,4062
9696,4063
9685,4068
9674,4072
9664,4073
9653,4071
9642,4066
9632,4058
9624,4050
9621,4047
9617,4043
9613,4038
9608,4032
9603,4025
9596,4016
9588,4005
9580,3993
9579,3992
9571,3981
9564,3972
9558,3964
9552,3955
9548,3950
9544,3945
9542,3941
9541,3940
9539,3938
9524,3952
9519,3957
9514,3962
9511,3964
9509,3966
9509,3966
9507,3964
9505,3961
9502,3957
9499,3953
9490,3941
9493,3935
9496,3931
9499,3925
9503,3919
9505,3915
9508,3910
9511,3906
9512,3903
9512,3902
9512,3901
9510,3897
9507,3892
9504,3886
9502,3881
9498,3874
9493,3865
9490,3858
9486,3851
9485,3850
9479,3839
9494,3824
9500,3818
9504,3814
9507,3812
9509,3810
9510,3810
9511,3810
9512,3812
9514,3815
9518,3820
9523,3826
9528,3834
9531,3836
9536,3844
9541,3851
9544,3856
9548,3861
9549,3862
9550,3863
9551,3863
9552,3862
9554,3861
9558,3858
9562,3853
9568,3848
9572,3843
9594,3822
9594,3822
" /> 
<polyline style="fill-rule:evenodd;"
points="9994,3717
9995,3718
9997,3721
10000,3725
10003,3729
10007,3734
10011,3738
10013,3742
10013,3742
10015,3745
10000,3761
9993,3767
9988,3772
9983,3776
9979,3780
9978,3781
9968,3787
9957,3791
9947,3792
9937,3790
9932,3789
9922,3784
9912,3778
9903,3769
9898,3764
9897,3763
9894,3759
9889,3752
9884,3745
9877,3736
9870,3726
9862,3715
9852,3703
9843,3689
9833,3676
9823,3662
9813,3648
9802,3634
9792,3620
9782,3606
9773,3593
9764,3581
9756,3569
9748,3559
9741,3549
9735,3542
9731,3535
9728,3530
9726,3528
9725,3527
9727,3526
9729,3523
9732,3519
9738,3513
9744,3508
9744,3508
9763,3490
9843,3600
9856,3617
9867,3634
9879,3648
9887,3661
9896,3672
9902,3682
9908,3689
9914,3696
9918,3702
9922,3707
9925,3711
9928,3715
9930,3717
9933,3720
9935,3722
9947,3735
9954,3735
9958,3735
9962,3733
9967,3731
9974,3727
9977,3725
9983,3722
9988,3720
9992,3718
9994,3717
9994,3717
9994,3717
" /> 
<polyline style="fill-rule:evenodd;"
points="10358,3081
10364,3089
10370,3098
10375,3105
10376,3107
10378,3112
10381,3119
10384,3129
10387,3140
10391,3153
10396,3166
10401,3181
10405,3197
10410,3213
10412,3214
10444,3315
10421,3339
10414,3346
10408,3352
10403,3357
10400,3361
10397,3362
10397,3362
10396,3362
10392,3360
10386,3356
10379,3351
10371,3346
10360,3338
10349,3331
10336,3322
10323,3313
10308,3304
10294,3294
10278,3284
10265,3275
10250,3266
10238,3258
10226,3250
10216,3243
10207,3238
10200,3233
10195,3229
10192,3228
10190,3226
10191,3226
10194,3223
10198,3218
10203,3213
10209,3206
10210,3206
10230,3187
10304,3238
10317,3247
10330,3255
10340,3263
10351,3269
10360,3276
10368,3281
10374,3285
10378,3288
10381,3289
10381,3289
10381,3289
10380,3286
10379,3280
10376,3273
10374,3264
10369,3254
10367,3243
10362,3231
10358,3218
10354,3206
10350,3193
10345,3182
10341,3169
10338,3158
10334,3149
10331,3141
10328,3134
10326,3129
10325,3126
10322,3120
10318,3115
10316,3111
10315,3110
10311,3105
10328,3088
10346,3071
10352,3075
10358,3081
10358,3081
" /> 
<polyline style="fill-rule:evenodd;"
points="10696,2994
10698,2996
10701,3000
10705,3005
10709,3011
10713,3016
10717,3022
10719,3027
10722,3030
10722,3031
10723,3033
10722,3036
10720,3039
10717,3043
10712,3048
10706,3054
10700,3060
10696,3064
10693,3066
10690,3069
10688,3069
10685,3069
10682,3067
10681,3066
10678,3062
10675,3059
10671,3053
10666,3047
10663,3041
10659,3036
10657,3033
10657,3031
10656,3028
10656,3026
10657,3024
10659,3020
10662,3016
10667,3011
10671,3007
10677,3001
10681,2997
10685,2994
10687,2993
10689,2992
10690,2992
10691,2992
10695,2992
10696,2994
10696,2994
" /> 
<polyline style="fill-rule:evenodd;"
points="6994,6693
6994,6717
6994,6740
6971,6763
6925,6717
6879,6671
6832,6624
6786,6671
6740,6717
6786,6763
6832,6809
6878,6763
6925,6717
6971,6763
6924,6809
6855,6878
6832,6878
6810,6878
6741,6809
6671,6739
6671,6717
6671,6694
6740,6625
6809,6555
6832,6555
6856,6555
6925,6625
6994,6693
6994,6693
" /> 
<polyline style="fill-rule:evenodd;"
points="8679,4749
8682,4753
8686,4759
8693,4766
8694,4767
8698,4775
8702,4780
8704,4785
8705,4788
8703,4791
8703,4793
8700,4796
8697,4800
8692,4805
8687,4810
8682,4814
8677,4819
8674,4821
8673,4821
8669,4824
8667,4824
8667,4824
8665,4821
8662,4818
8658,4814
8654,4808
8653,4807
8648,4800
8644,4794
8642,4790
8639,4788
8638,4785
8638,4784
8638,4782
8638,4782
8638,4780
8638,4778
8640,4777
8642,4773
8645,4770
8650,4765
8653,4762
8659,4756
8664,4751
8669,4748
8671,4746
8672,4746
8674,4746
8676,4747
8679,4749
8679,4749
" /> 
<polyline style="fill-rule:evenodd;"
points="9168,4136
9181,4153
9188,4161
9191,4167
9194,4172
9196,4176
9196,4179
9195,4181
9195,4182
9193,4184
9189,4188
9185,4192
9181,4198
9176,4203
9170,4207
9167,4211
9164,4213
9163,4214
9160,4215
9156,4216
9155,4215
9153,4214
9151,4212
9149,4210
9145,4205
9141,4199
9140,4196
9134,4189
9130,4184
9128,4179
9127,4175
9128,4172
9131,4167
9134,4162
9140,4157
9143,4153
9149,4148
9154,4143
9157,4140
9160,4138
9162,4136
9163,4136
9164,4136
9168,4136
9168,4136
" /> 
<polyline style="fill-rule:evenodd;"
points="9420,3888
9423,3892
9427,3897
9431,3902
9435,3908
9440,3914
9443,3919
9445,3922
9447,3925
9447,3925
9446,3928
9444,3931
9444,3932
9442,3935
9438,3939
9434,3945
9429,3950
9423,3955
9418,3960
9414,3963
9411,3964
9411,3964
9407,3966
9404,3964
9403,3963
9399,3960
9396,3955
9391,3948
9387,3943
9383,3938
9379,3933
9377,3929
9377,3928
9377,3926
9377,3922
9379,3919
9382,3916
9387,3910
9394,3903
9394,3902
9401,3895
9406,3890
9411,3887
9413,3886
9415,3885
9418,3886
9418,3886
9420,3888
9420,3888
" /> 
<polyline style="fill-rule:evenodd;"
points="6798,6497
6798,6521
6798,6544
6775,6567
6729,6521
6683,6474
6637,6428
6591,6474
6545,6521
6591,6567
6637,6613
6683,6567
6729,6521
6775,6567
6728,6613
6659,6683
6637,6683
6614,6683
6544,6613
6475,6543
6475,6521
6475,6498
6544,6429
6613,6359
6636,6359
6660,6359
6728,6428
6798,6497
6798,6497
" /> 
<polyline style="fill-rule:evenodd;"
points="7190,6106
7190,6129
7190,6152
7167,6175
7121,6129
7075,6083
7028,6038
6982,6083
6936,6129
6982,6175
7028,6222
7075,6175
7121,6129
7167,6175
7120,6222
7050,6292
7028,6291
7006,6292
6936,6222
6867,6152
6866,6129
6867,6106
6936,6037
7005,5968
7028,5967
7052,5968
7120,6036
7190,6106
7190,6106
" /> 
<polyline style="fill-rule:evenodd;"
points="7385,5910
7386,5933
7385,5956
7362,5980
7316,5934
7269,5887
7223,5841
7178,5887
7132,5933
7178,5979
7224,6026
7270,5980
7316,5934
7362,5980
7316,6026
7246,6096
7223,6095
7200,6095
7132,6026
7063,5958
7063,5934
7063,5910
7132,5841
7200,5773
7224,5773
7248,5773
7317,5841
7385,5910
7385,5910
" /> 
<polyline style="fill-rule:evenodd;"
points="7582,5716
7581,5738
7582,5760
7558,5784
7512,5738
7465,5691
7419,5645
7373,5691
7328,5738
7373,5785
7419,5831
7465,5785
7512,5738
7558,5784
7512,5830
7442,5900
7419,5899
7396,5899
7327,5830
7257,5761
7257,5738
7258,5715
7327,5646
7396,5577
7419,5577
7443,5577
7512,5646
7582,5716
7582,5716
" /> 
<polyline style="fill-rule:evenodd;"
points="7776,5519
7777,5542
7776,5565
7754,5588
7708,5542
7661,5495
7615,5449
7569,5495
7524,5542
7569,5589
7615,5635
7661,5589
7708,5542
7754,5588
7707,5635
7639,5703
7614,5703
7592,5703
7523,5634
7453,5565
7453,5542
7454,5519
7523,5449
7592,5381
7615,5380
7639,5381
7707,5449
7776,5519
7776,5519
" /> 
<polyline style="fill-rule:evenodd;"
points="6603,6303
6603,6326
6603,6349
6580,6371
6533,6325
6487,6279
6441,6233
6395,6280
6349,6326
6395,6371
6441,6417
6487,6371
6533,6325
6580,6371
6534,6417
6465,6486
6441,6486
6417,6486
6348,6417
6279,6347
6279,6325
6279,6301
6348,6233
6417,6164
6440,6164
6463,6163
6533,6233
6603,6303
6603,6303
" /> 
<polyline style="fill-rule:evenodd;"
points="7776,5127
7776,5151
7776,5175
7755,5197
7708,5150
7662,5104
7616,5058
7570,5104
7523,5151
7569,5197
7615,5243
7662,5196
7708,5150
7755,5197
7708,5244
7639,5312
7617,5312
7593,5313
7523,5243
7453,5173
7453,5150
7454,5127
7523,5058
7592,4989
7615,4988
7638,4988
7707,5058
7776,5127
7776,5127
" /> 
<polyline style="fill-rule:evenodd;"
points="6603,5910
6603,5934
6603,5957
6580,5980
6441,5841
6395,5888
6349,5934
6395,5980
6441,6026
6487,5980
6533,5934
6487,5887
6441,5841
6580,5980
6533,6026
6464,6096
6441,6096
6418,6095
6349,6026
6279,5956
6279,5934
6279,5912
6349,5842
6418,5773
6441,5773
6465,5773
6534,5842
6603,5910
6603,5910
" /> 
<polyline style="fill-rule:evenodd;"
points="6798,5714
6798,5738
6798,5762
6776,5784
6637,5645
6591,5691
6545,5738
6591,5785
6637,5831
6683,5785
6728,5738
6683,5691
6637,5645
6776,5784
6729,5831
6661,5899
6637,5900
6614,5899
6545,5830
6475,5760
6475,5738
6475,5716
6545,5646
6614,5577
6638,5577
6661,5577
6729,5645
6798,5714
6798,5714
" /> 
<polyline style="fill-rule:evenodd;"
points="6994,5518
6994,5542
6994,5566
6971,5589
6925,5543
6879,5497
6832,5450
6786,5496
6741,5542
6787,5589
6833,5635
6879,5589
6925,5543
6971,5589
6925,5635
6856,5703
6832,5703
6808,5703
6740,5635
6671,5566
6671,5543
6671,5520
6741,5450
6811,5380
6834,5381
6856,5381
6925,5449
6994,5518
6994,5518
" /> 
<polyline style="fill-rule:evenodd;"
points="7190,5324
7190,5348
7190,5370
7167,5393
7121,5347
7075,5301
7028,5254
6982,5301
6936,5347
6982,5393
6991,5402
6999,5411
7007,5418
7014,5425
7020,5431
7024,5435
7028,5437
7028,5438
7029,5437
7032,5435
7037,5430
7043,5425
7050,5418
7058,5410
7066,5401
7075,5393
7121,5347
7167,5393
7121,5439
7052,5507
7028,5507
7004,5507
6936,5439
6867,5370
6867,5348
6866,5324
6936,5254
7006,5184
7028,5185
7050,5184
7120,5254
7190,5324
7190,5324
" /> 
<polyline style="fill-rule:evenodd;"
points="7581,4932
7582,4955
7581,4978
7559,5001
7420,4863
7374,4908
7327,4955
7374,5002
7420,5048
7466,5002
7511,4955
7466,4908
7420,4863
7559,5001
7513,5047
7443,5116
7420,5117
7397,5116
7327,5047
7257,4977
7258,4955
7257,4933
7327,4863
7397,4793
7421,4794
7443,4794
7513,4863
7581,4932
7581,4932
" /> 
<polyline style="fill-rule:evenodd;"
points="7385,4736
7386,4759
7385,4783
7363,4805
7317,4759
7270,4713
7224,4667
7178,4713
7132,4759
7178,4805
7224,4852
7271,4805
7317,4759
7363,4805
7317,4851
7248,4920
7224,4921
7201,4920
7132,4851
7063,4783
7063,4759
7063,4736
7132,4667
7202,4597
7224,4597
7248,4598
7317,4667
7385,4736
7385,4736
" /> 
<polyline style="fill-rule:evenodd;"
points="6211,5519
6210,5542
6211,5565
6188,5588
6142,5542
6096,5495
6050,5449
6003,5496
5957,5542
6003,5588
6050,5635
6096,5589
6142,5542
6188,5588
6142,5635
6072,5704
6049,5703
6026,5703
5957,5634
5888,5565
5888,5542
5888,5519
5957,5450
6027,5380
6050,5380
6072,5380
6142,5449
6211,5519
6211,5519
" /> 
<polyline style="fill-rule:evenodd;"
points="6407,5323
6407,5345
6407,5370
6383,5393
6337,5346
6291,5300
6246,5255
6199,5300
6153,5346
6199,5392
6246,5439
6291,5393
6337,5346
6383,5393
6337,5439
6269,5507
6245,5507
6222,5507
6153,5438
6084,5369
6084,5346
6084,5324
6154,5254
6223,5184
6246,5184
6268,5184
6337,5254
6407,5323
6407,5323
" /> 
<polyline style="fill-rule:evenodd;"
points="6603,5127
6603,5150
6603,5173
6579,5197
6533,5151
6487,5104
6441,5058
6395,5104
6349,5150
6395,5196
6441,5243
6487,5197
6533,5151
6579,5197
6533,5243
6463,5313
6440,5312
6417,5312
6348,5243
6279,5174
6279,5151
6279,5128
6348,5059
6417,4990
6441,4990
6465,4990
6534,5058
6603,5127
6603,5127
" /> 
<polyline style="fill-rule:evenodd;"
points="6798,4932
6797,4955
6798,4978
6775,5001
6729,4955
6683,4908
6637,4863
6591,4908
6545,4955
6591,5002
6637,5048
6683,5002
6729,4955
6775,5001
6728,5048
6659,5117
6636,5116
6613,5116
6544,5047
6475,4978
6475,4955
6475,4933
6544,4863
6613,4794
6637,4793
6659,4793
6728,4863
6798,4932
6798,4932
" /> 
<polyline style="fill-rule:evenodd;"
points="6994,4736
6994,4759
6994,4783
6971,4805
6925,4759
6878,4713
6832,4667
6786,4713
6740,4759
6786,4805
6832,4852
6878,4806
6925,4759
6971,4805
6924,4852
6856,4920
6832,4920
6809,4920
6740,4851
6671,4782
6671,4759
6671,4737
6740,4667
6810,4597
6832,4597
6855,4597
6924,4667
6994,4736
6994,4736
" /> 
</g>
<g style="fill:#000000; fill-opacity:0.0; 
stroke:#000000; stroke-width:59.0551; stroke-opacity:1; 
stroke-linecap:round; stroke-linejoin:round;">
<circle cx="5580.6" cy="7486.61" r="1000" /> 
<path d="M13477 9890
L13300 10066
" />
<path d="M14184 9183
L14360 9006
" />
<path d="M14007 9006
L13300 9713
" />
<path d="M13300 9713
L13653 10066
" />
<path d="M13653 10066
L14360 9359
" />
<path d="M14360 9359
L14007 9006
" />
<path d="M18837 10300
L18660 10476
" />
<path d="M19544 9593
L19720 9416
" />
<path d="M19367 9416
L18660 10123
" />
<path d="M18660 10123
L19013 10476
" />
<path d="M19013 10476
L19720 9769
" />
<path d="M19720 9769
L19367 9416
" />
<path d="M16984 12033
L17160 11856
" />
<path d="M16277 12740
L16100 12916
" />
<path d="M16453 12916
L17160 12209
" />
<path d="M17160 12209
L16807 11856
" />
<path d="M16807 11856
L16100 12563
" />
<path d="M16100 12563
L16453 12916
" />
<path d="M5150 12406
L5150 12156
" />
<path d="M5150 13406
L5150 13656
" />
<path d="M4900 13406
L4900 12406
" />
<path d="M4900 12406
L5400 12406
" />
<path d="M5400 12406
L5400 13406
" />
<path d="M5400 13406
L4900 13406
" />
<path d="M7684 12858
L7860 12681
" />
<path d="M6977 13565
L6800 13741
" />
<path d="M6800 13388
L7507 12681
" />
<path d="M7507 12681
L7860 13034
" />
<path d="M7860 13034
L7153 13741
" />
<path d="M7153 13741
L6800 13388
" />
<path d="M5880 13186
L5880 12936
" />
<path d="M5880 14186
L5880 14436
" />
<path d="M5630 14186
L5630 13186
" />
<path d="M5630 13186
L6130 13186
" />
<path d="M6130 13186
L6130 14186
" />
<path d="M6130 14186
L5630 14186
" />
<path d="M13477 20383
L13300 20206
" />
<path d="M14184 21090
L14360 21266
" />
<path d="M14007 21266
L13300 20559
" />
<path d="M13300 20559
L13653 20206
" />
<path d="M13653 20206
L14360 20913
" />
<path d="M14360 20913
L14007 21266
" />
<path d="M12427 20383
L12250 20206
" />
<path d="M13134 21090
L13310 21266
" />
<path d="M12957 21266
L12250 20559
" />
<path d="M12250 20559
L12603 20206
" />
<path d="M12603 20206
L13310 20913
" />
<path d="M13310 20913
L12957 21266
" />
<path d="M13124 13773
L13300 13596
" />
<path d="M12417 14480
L12240 14656
" />
<path d="M12593 14656
L13300 13949
" />
<path d="M13300 13949
L12947 13596
" />
<path d="M12947 13596
L12240 14303
" />
<path d="M12240 14303
L12593 14656
" />
<path d="M18494 8426
L19060 8992
" />
<path d="M19202 7719
L19767 8285
" />
<path d="M19767 8285
L18919 9133
" />
<path d="M18919 9133
L18353 8568
" />
<path d="M18353 8568
L19202 7719
" />
<path d="M14480 17968
L13773 18675
" />
<path d="M15187 17261
L17309 19383
" />
<path d="M17309 19383
L16601 20090
" />
<path d="M16601 20090
L15894 20797
" />
<path d="M15894 20797
L13773 18675
" />
<path d="M13773 18675
L13066 19383
" />
<path d="M13066 19383
L15187 21504
" />
<path d="M15187 21504
L15894 20797
" />
<path d="M15187 17261
L14480 17968
" />
<path d="M14480 17968
L16601 20090
" />
<path d="M17280 15168
L16573 15875
" />
<path d="M17987 14461
L20109 16583
" />
<path d="M20109 16583
L19401 17290
" />
<path d="M19401 17290
L18694 17997
" />
<path d="M18694 17997
L16573 15875
" />
<path d="M16573 15875
L15866 16583
" />
<path d="M15866 16583
L17987 18704
" />
<path d="M17987 18704
L18694 17997
" />
<path d="M17987 14461
L17280 15168
" />
<path d="M17280 15168
L19401 17290
" />
<path d="M20130 12268
L19423 12975
" />
<path d="M20837 11561
L22959 13683
" />
<path d="M22959 13683
L22251 14390
" />
<path d="M22251 14390
L21544 15097
" />
<path d="M21544 15097
L19423 12975
" />
<path d="M19423 12975
L18716 13683
" />
<path d="M18716 13683
L20837 15804
" />
<path d="M20837 15804
L21544 15097
" />
<path d="M20837 11561
L20130 12268
" />
<path d="M20130 12268
L22251 14390
" />
<path d="M7530 12304
L8237 11597
" />
<path d="M6823 13011
L4702 10890
" />
<path d="M4702 10890
L5409 10183
" />
<path d="M5409 10183
L6116 9475
" />
<path d="M6116 9475
L8237 11597
" />
<path d="M8237 11597
L8944 10890
" />
<path d="M8944 10890
L6823 8768
" />
<path d="M6823 8768
L6116 9475
" />
<path d="M6823 13011
L7530 12304
" />
<path d="M7530 12304
L5409 10183
" />
<path d="M13330 6604
L14037 5897
" />
<path d="M12623 7311
L10502 5190
" />
<path d="M10502 5190
L11209 4483
" />
<path d="M11209 4483
L11916 3775
" />
<path d="M11916 3775
L14037 5897
" />
<path d="M14037 5897
L14744 5190
" />
<path d="M14744 5190
L12623 3068
" />
<path d="M12623 3068
L11916 3775
" />
<path d="M12623 7311
L13330 6604
" />
<path d="M13330 6604
L11209 4483
" />
<path d="M10330 9504
L11037 8797
" />
<path d="M9623 10211
L7502 8090
" />
<path d="M7502 8090
L8209 7383
" />
<path d="M8209 7383
L8916 6675
" />
<path d="M8916 6675
L11037 8797
" />
<path d="M11037 8797
L11744 8090
" />
<path d="M11744 8090
L9623 5968
" />
<path d="M9623 5968
L8916 6675
" />
<path d="M9623 10211
L10330 9504
" />
<path d="M10330 9504
L8209 7383
" />
</g>
<g style="fill:#000000; fill-opacity:0.0; 
stroke:#000000; stroke-width:39.3701; stroke-opacity:1; 
stroke-linecap:round; stroke-linejoin:round;">
</g>
<g style="fill:#000000; fill-opacity:1.0; 
stroke:#000000; stroke-width:39.3701; stroke-opacity:1; 
stroke-linecap:round; stroke-linejoin:round;">
<circle cx="8923.49" cy="11693.7" r="280.315" /> 
<circle cx="9630.6" cy="10986.6" r="280.315" /> 
<circle cx="10337.7" cy="10279.5" r="280.315" /> 
<circle cx="16844.8" cy="3484.25" r="280.315" /> 
<circle cx="22264.1" cy="9653.06" r="255.315" /> 
<circle cx="21557" cy="10360.2" r="255.315" /> 
<circle cx="21369.9" cy="3483.06" r="280.315" /> 
<circle cx="22077" cy="2775.95" r="280.315" /> 
<circle cx="22077" cy="4190.17" r="280.315" /> 
<circle cx="22784.1" cy="3483.06" r="280.315" /> 
<circle cx="22784.1" cy="4897.27" r="280.315" /> 
<circle cx="23491.3" cy="4190.17" r="280.315" /> 
<circle cx="18562.8" cy="20604.4" r="280.315" /> 
<circle cx="19269.9" cy="19897.3" r="280.315" /> 
<circle cx="19977" cy="19190.2" r="280.315" /> 
<circle cx="20684.1" cy="18483.1" r="280.315" /> 
<circle cx="21391.3" cy="17776" r="280.315" /> 
<circle cx="22098.4" cy="17068.8" r="280.315" /> 
<circle cx="20105.3" cy="11597.4" r="255.315" /> 
<circle cx="19398.2" cy="12304.5" r="255.315" /> 
<circle cx="18691.1" cy="13011.6" r="255.315" /> 
<circle cx="17984" cy="13718.7" r="255.315" /> 
<circle cx="17276.9" cy="14425.8" r="255.315" /> 
<circle cx="16569.8" cy="15132.9" r="255.315" /> 
<circle cx="15862.7" cy="15840" r="255.315" /> 
<circle cx="15155.6" cy="16547.1" r="255.315" /> 
<circle cx="14448.5" cy="17254.3" r="255.315" /> 
<circle cx="13741.4" cy="17961.4" r="255.315" /> 
<circle cx="10205.8" cy="14425.8" r="255.315" /> 
<circle cx="10913" cy="13718.7" r="255.315" /> 
<circle cx="11620.1" cy="13011.6" r="255.315" /> 
<circle cx="12327.2" cy="12304.5" r="255.315" /> 
<circle cx="13034.3" cy="11597.4" r="255.315" /> 
<circle cx="13741.4" cy="10890.3" r="255.315" /> 
<circle cx="14448.5" cy="10183.2" r="255.315" /> 
<circle cx="15155.6" cy="9476.08" r="255.315" /> 
<circle cx="15862.7" cy="8768.97" r="255.315" /> 
<circle cx="16569.8" cy="8061.87" r="255.315" /> 
<circle cx="13377" cy="15490.2" r="255.315" /> 
<circle cx="14084.1" cy="14783.1" r="255.315" /> 
<polyline style="fill-rule:evenodd;"
points="23325,12131
23835,12131
23835,12641
23325,12641
23325,12131
" /> 
<circle cx="23580.6" cy="11386.6" r="255.315" /> 
<circle cx="22580.6" cy="11386.6" r="255.315" /> 
<circle cx="22737" cy="10280.2" r="255.315" /> 
<circle cx="23444.1" cy="9573.06" r="255.315" /> 
<polyline style="fill-rule:evenodd;"
points="7387,20840
6991,21236
6594,20840
6991,20443
7387,20840
" /> 
<circle cx="6284.15" cy="21547.3" r="280.315" /> 
<circle cx="6284.15" cy="20133.1" r="280.315" /> 
<circle cx="5577.04" cy="20840.2" r="280.315" /> 
<circle cx="5577.04" cy="19426" r="280.315" /> 
<circle cx="4869.94" cy="20133.1" r="280.315" /> 
<circle cx="18826.8" cy="3247.78" r="255.315" /> 
<circle cx="18119.7" cy="3954.89" r="255.315" /> 
<circle cx="17412.6" cy="4661.99" r="255.315" /> 
<circle cx="16705.5" cy="5369.1" r="255.315" /> 
<circle cx="15998.4" cy="6076.21" r="255.315" /> 
<circle cx="15291.3" cy="6783.31" r="255.315" /> 
<circle cx="14584.1" cy="7490.42" r="255.315" /> 
<circle cx="13877" cy="8197.53" r="255.315" /> 
<circle cx="13169.9" cy="8904.63" r="255.315" /> 
<circle cx="12462.8" cy="9611.74" r="255.315" /> 
<circle cx="11755.7" cy="10318.8" r="255.315" /> 
<circle cx="11048.6" cy="11026" r="255.315" /> 
<circle cx="10341.5" cy="11733.1" r="255.315" /> 
<circle cx="9634.4" cy="12440.2" r="255.315" /> 
<circle cx="8927.29" cy="13147.3" r="255.315" /> 
<circle cx="8220.19" cy="13854.4" r="255.315" /> 
<circle cx="7513.08" cy="14561.5" r="255.315" /> 
<circle cx="6805.97" cy="15268.6" r="255.315" /> 
<circle cx="6098.87" cy="15975.7" r="255.315" /> 
<circle cx="5391.76" cy="16682.8" r="255.315" /> 
<circle cx="9634.4" cy="20925.4" r="255.315" /> 
<circle cx="10341.5" cy="20218.3" r="255.315" /> 
<circle cx="11048.6" cy="19511.2" r="255.315" /> 
<circle cx="11755.7" cy="18804.1" r="255.315" /> 
<circle cx="12462.8" cy="18097" r="255.315" /> 
<circle cx="13169.9" cy="17389.9" r="255.315" /> 
<circle cx="13877" cy="16682.8" r="255.315" /> 
<circle cx="14584.1" cy="15975.7" r="255.315" /> 
<circle cx="15291.3" cy="15268.6" r="255.315" /> 
<circle cx="15998.4" cy="14561.5" r="255.315" /> 
<circle cx="16705.5" cy="13854.4" r="255.315" /> 
<circle cx="17412.6" cy="13147.3" r="255.315" /> 
<circle cx="18119.7" cy="12440.2" r="255.315" /> 
<circle cx="18826.8" cy="11733.1" r="255.315" /> 
<circle cx="19533.9" cy="11026" r="255.315" /> 
<circle cx="20241" cy="10318.8" r="255.315" /> 
<circle cx="20948.1" cy="9611.74" r="255.315" /> 
<circle cx="21655.2" cy="8904.63" r="255.315" /> 
<circle cx="22362.3" cy="8197.53" r="255.315" /> 
<circle cx="23069.4" cy="7490.42" r="255.315" /> 
<circle cx="15530.6" cy="2826.61" r="280.315" /> 
<circle cx="14530.6" cy="2826.61" r="280.315" /> 
<circle cx="22553.4" cy="20413.4" r="780.315" /> 
<circle cx="6018" cy="3877.95" r="780.315" /> 
<polyline style="fill-rule:evenodd;"
points="5085,8271
4795,7981
5014,7761
5305,8052
5085,8271
" /> 
<polyline style="fill-rule:evenodd;"
points="5439,7918
5148,7628
5368,7408
5658,7698
5439,7918
" /> 
<polyline style="fill-rule:evenodd;"
points="5792,7564
5502,7274
5722,7054
6012,7345
5792,7564
" /> 
<polyline style="fill-rule:evenodd;"
points="6146,7211
5855,6920
6075,6701
6365,6991
6146,7211
" /> 
<circle cx="14537.7" cy="8829.51" r="280.315" /> 
<circle cx="13123.5" cy="10243.7" r="280.315" /> 
<circle cx="19897.7" cy="9239.51" r="280.315" /> 
<circle cx="18483.5" cy="10653.7" r="280.315" /> 
<circle cx="15923.5" cy="13093.7" r="280.315" /> 
<circle cx="17337.7" cy="11679.5" r="280.315" /> 
<circle cx="5150.6" cy="13906.6" r="280.315" /> 
<circle cx="5150.6" cy="11906.6" r="280.315" /> 
<circle cx="6623.49" cy="13918.7" r="280.315" /> 
<circle cx="8037.7" cy="12504.5" r="280.315" /> 
<circle cx="5880.6" cy="14686.6" r="280.315" /> 
<circle cx="5880.6" cy="12686.6" r="280.315" /> 
<circle cx="14537.7" cy="21443.7" r="280.315" /> 
<circle cx="13123.5" cy="20029.5" r="280.315" /> 
<circle cx="13487.7" cy="21443.7" r="280.315" /> 
<circle cx="12073.5" cy="20029.5" r="280.315" /> 
<circle cx="12063.5" cy="14833.7" r="280.315" /> 
<circle cx="13477.7" cy="13419.5" r="280.315" /> 
<circle cx="19767.7" cy="7719.51" r="280.315" /> 
<circle cx="18353.5" cy="9133.72" r="280.315" /> 
<circle cx="15187.7" cy="17968.8" r="280.315" /> 
<circle cx="14480.6" cy="18676" r="280.315" /> 
<circle cx="13773.5" cy="19383.1" r="280.315" /> 
<circle cx="15894.8" cy="18676" r="280.315" /> 
<circle cx="15187.7" cy="19383.1" r="280.315" /> 
<circle cx="14480.6" cy="20090.2" r="280.315" /> 
<circle cx="16601.9" cy="19383.1" r="280.315" /> 
<circle cx="15894.8" cy="20090.2" r="280.315" /> 
<circle cx="15187.7" cy="20797.3" r="280.315" /> 
<circle cx="17987.7" cy="15168.8" r="280.315" /> 
<circle cx="17280.6" cy="15876" r="280.315" /> 
<circle cx="16573.5" cy="16583.1" r="280.315" /> 
<circle cx="18694.8" cy="15876" r="280.315" /> 
<circle cx="17987.7" cy="16583.1" r="280.315" /> 
<circle cx="17280.6" cy="17290.2" r="280.315" /> 
<circle cx="19401.9" cy="16583.1" r="280.315" /> 
<circle cx="18694.8" cy="17290.2" r="280.315" /> 
<circle cx="17987.7" cy="17997.3" r="280.315" /> 
<circle cx="20837.7" cy="12268.8" r="280.315" /> 
<circle cx="20130.6" cy="12976" r="280.315" /> 
<circle cx="19423.5" cy="13683.1" r="280.315" /> 
<circle cx="21544.8" cy="12976" r="280.315" /> 
<circle cx="20837.7" cy="13683.1" r="280.315" /> 
<circle cx="20130.6" cy="14390.2" r="280.315" /> 
<circle cx="22251.9" cy="13683.1" r="280.315" /> 
<circle cx="21544.8" cy="14390.2" r="280.315" /> 
<circle cx="20837.7" cy="15097.3" r="280.315" /> 
<circle cx="6823.49" cy="12304.4" r="280.315" /> 
<circle cx="7530.6" cy="11597.3" r="280.315" /> 
<circle cx="8237.7" cy="10890.2" r="280.315" /> 
<circle cx="6116.38" cy="11597.3" r="280.315" /> 
<circle cx="6823.49" cy="10890.2" r="280.315" /> 
<circle cx="7530.6" cy="10183.1" r="280.315" /> 
<circle cx="5409.28" cy="10890.2" r="280.315" /> 
<circle cx="6116.38" cy="10183.1" r="280.315" /> 
<circle cx="6823.49" cy="9475.95" r="280.315" /> 
<circle cx="12623.5" cy="6604.38" r="280.315" /> 
<circle cx="13330.6" cy="5897.27" r="280.315" /> 
<circle cx="14037.7" cy="5190.17" r="280.315" /> 
<circle cx="11916.4" cy="5897.27" r="280.315" /> 
<circle cx="12623.5" cy="5190.17" r="280.315" /> 
<circle cx="13330.6" cy="4483.06" r="280.315" /> 
<circle cx="11209.3" cy="5190.17" r="280.315" /> 
<circle cx="11916.4" cy="4483.06" r="280.315" /> 
<circle cx="12623.5" cy="3775.95" r="280.315" /> 
<circle cx="9623.49" cy="9504.38" r="280.315" /> 
<circle cx="10330.6" cy="8797.27" r="280.315" /> 
<circle cx="11037.7" cy="8090.17" r="280.315" /> 
<circle cx="8916.38" cy="8797.27" r="280.315" /> 
<circle cx="9623.49" cy="8090.17" r="280.315" /> 
<circle cx="10330.6" cy="7383.06" r="280.315" /> 
<circle cx="8209.28" cy="8090.17" r="280.315" /> 
<circle cx="8916.38" cy="7383.06" r="280.315" /> 
<circle cx="9623.49" cy="6675.95" r="280.315" /> 
</g> 
</svg>
