G04 (Genere par PCBNEW (2007-05-25)) le 20/5/2008-23:22:25*
G01*
G70*
G90*
%MOIN*%
G04 Gerber Fmt 3.4, Leading zero omitted, Abs format*
%FSLAX34Y34*%
G04 APERTURE LIST*
%ADD10C,0.012000*%
%ADD11C,0.200000*%
%ADD12C,0.060000*%
%ADD13R,0.060000X0.060000*%
%ADD14C,0.055000*%
%ADD15R,0.090000X0.062000*%
%ADD16O,0.090000X0.062000*%
%ADD17R,0.062000X0.090000*%
%ADD18O,0.062000X0.090000*%
%ADD19C,0.150000*%
%ADD20C,0.027000*%
%ADD21C,0.010000*%
%ADD22C,0.017000*%
%ADD23C,0.005000*%
%ADD24C,0.015000*%
%ADD25C,0.006000*%
G04 APERTURE END LIST*
G54D10*
X25769Y-32400D02*
X26294Y-31600D01*
X25769Y-32312D02*
X25769Y-31689D01*
X25769Y-31689D02*
X25844Y-31600D01*
X25844Y-31600D02*
X26219Y-31600D01*
X26219Y-31600D02*
X26294Y-31689D01*
X26294Y-31689D02*
X26294Y-32312D01*
X26294Y-32312D02*
X26219Y-32400D01*
X26219Y-32400D02*
X25844Y-32400D01*
X25844Y-32400D02*
X25769Y-32312D01*
X27769Y-23600D02*
X28294Y-23600D01*
X28294Y-23600D02*
X27769Y-24400D01*
X27769Y-17400D02*
X28294Y-16600D01*
X27769Y-17312D02*
X27769Y-16689D01*
X27769Y-16689D02*
X27844Y-16600D01*
X27844Y-16600D02*
X28219Y-16600D01*
X28219Y-16600D02*
X28294Y-16689D01*
X28294Y-16689D02*
X28294Y-17312D01*
X28294Y-17312D02*
X28219Y-17400D01*
X28219Y-17400D02*
X27844Y-17400D01*
X27844Y-17400D02*
X27769Y-17312D01*
X26400Y-22514D02*
X25600Y-22514D01*
X25600Y-22589D02*
X25600Y-22139D01*
X25600Y-22139D02*
X25689Y-22064D01*
X25689Y-22064D02*
X26312Y-22064D01*
X26312Y-22064D02*
X26400Y-22139D01*
X26400Y-22139D02*
X26400Y-22589D01*
X25600Y-21578D02*
X25689Y-21578D01*
X25956Y-21578D02*
X26312Y-21578D01*
X26312Y-21578D02*
X26400Y-21503D01*
X26400Y-21503D02*
X26400Y-21428D01*
X26577Y-21017D02*
X26666Y-20942D01*
X26666Y-20942D02*
X26666Y-20567D01*
X26666Y-20567D02*
X26577Y-20492D01*
X26577Y-20492D02*
X25956Y-20492D01*
X25956Y-20492D02*
X25867Y-20567D01*
X25867Y-20567D02*
X25867Y-20942D01*
X25867Y-20942D02*
X25956Y-21017D01*
X25956Y-21017D02*
X26312Y-21017D01*
X26312Y-21017D02*
X26400Y-20942D01*
X26400Y-20942D02*
X26400Y-20567D01*
X26400Y-20567D02*
X26312Y-20492D01*
X25600Y-20006D02*
X25689Y-20006D01*
X25956Y-20006D02*
X26312Y-20006D01*
X26312Y-20006D02*
X26400Y-19931D01*
X26400Y-19931D02*
X26400Y-19856D01*
X26312Y-18995D02*
X26400Y-19070D01*
X26400Y-19070D02*
X26400Y-19295D01*
X26400Y-19295D02*
X26312Y-19370D01*
X26312Y-19370D02*
X25600Y-19370D01*
X25867Y-19370D02*
X25867Y-19145D01*
X25867Y-18659D02*
X25867Y-18209D01*
X25867Y-18209D02*
X25956Y-18134D01*
X25956Y-18134D02*
X26400Y-18134D01*
X26400Y-18134D02*
X26400Y-18584D01*
X26400Y-18584D02*
X26312Y-18659D01*
X26312Y-18659D02*
X26223Y-18659D01*
X26223Y-18659D02*
X26134Y-18584D01*
X26134Y-18584D02*
X26134Y-18134D01*
X25600Y-17723D02*
X25600Y-17648D01*
X25600Y-17648D02*
X26400Y-17648D01*
X26400Y-17723D02*
X26400Y-17573D01*
G54D24*
X16000Y-78000D02*
X80000Y-78000D01*
X16000Y-12000D02*
X16000Y-78000D01*
X80000Y-12000D02*
X16000Y-12000D01*
X80000Y-78000D02*
X80000Y-12000D01*
G54D10*
X51900Y-70508D02*
X51723Y-70583D01*
X51723Y-70583D02*
X51278Y-70583D01*
X51278Y-70583D02*
X51100Y-70508D01*
X51812Y-69422D02*
X51900Y-69497D01*
X51900Y-69497D02*
X51900Y-69872D01*
X51900Y-69872D02*
X51812Y-69947D01*
X51812Y-69947D02*
X51456Y-69947D01*
X51456Y-69947D02*
X51367Y-69872D01*
X51367Y-69872D02*
X51367Y-69497D01*
X51367Y-69497D02*
X51456Y-69422D01*
X51900Y-68936D02*
X51723Y-68861D01*
X51723Y-68861D02*
X51278Y-68861D01*
X51278Y-68861D02*
X51100Y-68936D01*
X51100Y-67589D02*
X51900Y-67439D01*
X51900Y-67439D02*
X51634Y-67289D01*
X51634Y-67289D02*
X51900Y-67139D01*
X51900Y-67139D02*
X51100Y-66989D01*
X51367Y-66803D02*
X51723Y-66803D01*
X51723Y-66803D02*
X51900Y-66653D01*
X51900Y-66653D02*
X51900Y-66428D01*
X51900Y-66428D02*
X51723Y-66278D01*
X51367Y-66278D02*
X52077Y-66278D01*
X52077Y-66278D02*
X52166Y-66353D01*
X52166Y-66353D02*
X52166Y-66728D01*
X52166Y-66728D02*
X52077Y-66803D01*
X51367Y-66017D02*
X51367Y-65567D01*
X51367Y-65567D02*
X51456Y-65492D01*
X51456Y-65492D02*
X51900Y-65492D01*
X51900Y-65492D02*
X51900Y-65942D01*
X51900Y-65942D02*
X51812Y-66017D01*
X51812Y-66017D02*
X51723Y-66017D01*
X51723Y-66017D02*
X51634Y-65942D01*
X51634Y-65942D02*
X51634Y-65492D01*
X51812Y-64781D02*
X51900Y-64856D01*
X51900Y-64856D02*
X51900Y-65081D01*
X51900Y-65081D02*
X51812Y-65156D01*
X51812Y-65156D02*
X51100Y-65156D01*
X51367Y-65156D02*
X51367Y-64931D01*
X51812Y-63995D02*
X51900Y-64070D01*
X51900Y-64070D02*
X51900Y-64295D01*
X51900Y-64295D02*
X51812Y-64370D01*
X51812Y-64370D02*
X51100Y-64370D01*
X51367Y-64370D02*
X51367Y-64145D01*
X51900Y-62798D02*
X51812Y-62873D01*
X51812Y-62873D02*
X51189Y-62873D01*
X51189Y-62873D02*
X51100Y-62798D01*
X51100Y-62798D02*
X51100Y-62423D01*
X51100Y-62423D02*
X51189Y-62348D01*
X51189Y-62348D02*
X51812Y-62348D01*
X51812Y-62348D02*
X51900Y-62423D01*
X51900Y-62423D02*
X51900Y-62798D01*
X51100Y-61937D02*
X51100Y-61862D01*
X51100Y-61862D02*
X51900Y-61862D01*
X51900Y-61937D02*
X51900Y-61787D01*
X51812Y-61301D02*
X51900Y-61226D01*
X51900Y-61226D02*
X51900Y-60851D01*
X51900Y-60851D02*
X51812Y-60776D01*
X51812Y-60776D02*
X51723Y-60776D01*
X51723Y-60776D02*
X51634Y-60851D01*
X51634Y-60851D02*
X51634Y-61226D01*
X51634Y-61226D02*
X51545Y-61301D01*
X51545Y-61301D02*
X51456Y-61301D01*
X51456Y-61301D02*
X51367Y-61226D01*
X51367Y-61226D02*
X51367Y-60851D01*
X51367Y-60851D02*
X51456Y-60776D01*
X51900Y-60440D02*
X51812Y-60515D01*
X51812Y-60515D02*
X51456Y-60515D01*
X51456Y-60515D02*
X51367Y-60440D01*
X51367Y-60440D02*
X51367Y-60065D01*
X51367Y-60065D02*
X51456Y-59990D01*
X51456Y-59990D02*
X51812Y-59990D01*
X51812Y-59990D02*
X51900Y-60065D01*
X51900Y-60065D02*
X51900Y-60440D01*
X51900Y-59729D02*
X51367Y-59729D01*
X51456Y-59729D02*
X51367Y-59654D01*
X51367Y-59654D02*
X51367Y-59354D01*
X51367Y-59354D02*
X51456Y-59279D01*
X51456Y-59279D02*
X51900Y-59279D01*
X44900Y-74272D02*
X44100Y-74272D01*
X44456Y-74272D02*
X44367Y-74197D01*
X44367Y-74197D02*
X44367Y-73822D01*
X44367Y-73822D02*
X44456Y-73747D01*
X44456Y-73747D02*
X44900Y-73747D01*
X44812Y-73036D02*
X44900Y-73111D01*
X44900Y-73111D02*
X44900Y-73336D01*
X44900Y-73336D02*
X44812Y-73411D01*
X44812Y-73411D02*
X44100Y-73411D01*
X44367Y-73411D02*
X44367Y-73186D01*
X44812Y-72250D02*
X44900Y-72325D01*
X44900Y-72325D02*
X44900Y-72550D01*
X44900Y-72550D02*
X44812Y-72625D01*
X44812Y-72625D02*
X44100Y-72625D01*
X44367Y-72625D02*
X44367Y-72400D01*
X45166Y-71914D02*
X44367Y-71914D01*
X44456Y-71914D02*
X44367Y-71839D01*
X44367Y-71839D02*
X44367Y-71464D01*
X44367Y-71464D02*
X44456Y-71389D01*
X44456Y-71389D02*
X44812Y-71389D01*
X44812Y-71389D02*
X44900Y-71464D01*
X44900Y-71464D02*
X44900Y-71839D01*
X44900Y-71839D02*
X44812Y-71914D01*
X44367Y-70903D02*
X44456Y-70903D01*
X44634Y-70903D02*
X44723Y-70903D01*
X44900Y-70267D02*
X44100Y-69967D01*
X44900Y-69481D02*
X44100Y-69181D01*
X44100Y-68245D02*
X44900Y-68245D01*
X44900Y-68245D02*
X44900Y-68695D01*
X44900Y-68695D02*
X44812Y-68770D01*
X44812Y-68770D02*
X44456Y-68770D01*
X44456Y-68770D02*
X44367Y-68695D01*
X44367Y-68695D02*
X44367Y-68245D01*
X44900Y-67984D02*
X44367Y-67984D01*
X44545Y-67984D02*
X44367Y-67834D01*
X44367Y-67834D02*
X44367Y-67609D01*
X44367Y-67609D02*
X44545Y-67459D01*
X44367Y-67198D02*
X44723Y-67198D01*
X44723Y-67198D02*
X44900Y-67048D01*
X44900Y-67048D02*
X44900Y-66823D01*
X44900Y-66823D02*
X44723Y-66673D01*
X44723Y-66673D02*
X44367Y-66673D01*
X44900Y-66412D02*
X44367Y-66412D01*
X44456Y-66412D02*
X44367Y-66337D01*
X44367Y-66337D02*
X44367Y-66187D01*
X44367Y-66187D02*
X44456Y-66112D01*
X44456Y-66112D02*
X44900Y-66112D01*
X44456Y-66112D02*
X44367Y-66037D01*
X44367Y-66037D02*
X44367Y-65887D01*
X44367Y-65887D02*
X44456Y-65812D01*
X44456Y-65812D02*
X44900Y-65812D01*
X44900Y-65626D02*
X44367Y-65626D01*
X44456Y-65626D02*
X44367Y-65551D01*
X44367Y-65551D02*
X44367Y-65401D01*
X44367Y-65401D02*
X44456Y-65326D01*
X44456Y-65326D02*
X44900Y-65326D01*
X44456Y-65326D02*
X44367Y-65251D01*
X44367Y-65251D02*
X44367Y-65101D01*
X44367Y-65101D02*
X44456Y-65026D01*
X44456Y-65026D02*
X44900Y-65026D01*
X44367Y-64840D02*
X44367Y-64390D01*
X44367Y-64390D02*
X44456Y-64315D01*
X44456Y-64315D02*
X44900Y-64315D01*
X44900Y-64315D02*
X44900Y-64765D01*
X44900Y-64765D02*
X44812Y-64840D01*
X44812Y-64840D02*
X44723Y-64840D01*
X44723Y-64840D02*
X44634Y-64765D01*
X44634Y-64765D02*
X44634Y-64315D01*
X44812Y-64054D02*
X44900Y-63979D01*
X44900Y-63979D02*
X44900Y-63604D01*
X44900Y-63604D02*
X44812Y-63529D01*
X44812Y-63529D02*
X44723Y-63529D01*
X44723Y-63529D02*
X44634Y-63604D01*
X44634Y-63604D02*
X44634Y-63979D01*
X44634Y-63979D02*
X44545Y-64054D01*
X44545Y-64054D02*
X44456Y-64054D01*
X44456Y-64054D02*
X44367Y-63979D01*
X44367Y-63979D02*
X44367Y-63604D01*
X44367Y-63604D02*
X44456Y-63529D01*
X44812Y-62818D02*
X44900Y-62893D01*
X44900Y-62893D02*
X44900Y-63118D01*
X44900Y-63118D02*
X44812Y-63193D01*
X44812Y-63193D02*
X44100Y-63193D01*
X44367Y-63193D02*
X44367Y-62968D01*
X44634Y-62482D02*
X44634Y-61957D01*
X44634Y-61957D02*
X44456Y-61957D01*
X44456Y-61957D02*
X44367Y-62032D01*
X44367Y-62032D02*
X44367Y-62407D01*
X44367Y-62407D02*
X44456Y-62482D01*
X44456Y-62482D02*
X44812Y-62482D01*
X44812Y-62482D02*
X44900Y-62407D01*
X44900Y-62407D02*
X44900Y-62032D01*
X44900Y-62032D02*
X44812Y-61957D01*
X44900Y-61696D02*
X44367Y-61696D01*
X44545Y-61696D02*
X44367Y-61546D01*
X44367Y-61546D02*
X44367Y-61321D01*
X44367Y-61321D02*
X44545Y-61171D01*
X44900Y-60685D02*
X44812Y-60685D01*
X44812Y-59674D02*
X44900Y-59749D01*
X44900Y-59749D02*
X44900Y-59974D01*
X44900Y-59974D02*
X44812Y-60049D01*
X44812Y-60049D02*
X44100Y-60049D01*
X44367Y-60049D02*
X44367Y-59824D01*
X44900Y-59338D02*
X44100Y-59338D01*
X44456Y-59338D02*
X44367Y-59263D01*
X44367Y-59263D02*
X44367Y-58888D01*
X44367Y-58888D02*
X44456Y-58813D01*
X44456Y-58813D02*
X44900Y-58813D01*
X44634Y-58552D02*
X44634Y-58027D01*
X44634Y-58027D02*
X44456Y-58027D01*
X44456Y-58027D02*
X44367Y-58102D01*
X44367Y-58102D02*
X44367Y-58477D01*
X44367Y-58477D02*
X44456Y-58552D01*
X44456Y-58552D02*
X44812Y-58552D01*
X44812Y-58552D02*
X44900Y-58477D01*
X44900Y-58477D02*
X44900Y-58102D01*
X44900Y-58102D02*
X44812Y-58027D01*
X44812Y-57241D02*
X44900Y-57316D01*
X44900Y-57316D02*
X44900Y-57691D01*
X44900Y-57691D02*
X44812Y-57766D01*
X44812Y-57766D02*
X44456Y-57766D01*
X44456Y-57766D02*
X44367Y-57691D01*
X44367Y-57691D02*
X44367Y-57316D01*
X44367Y-57316D02*
X44456Y-57241D01*
X44367Y-56980D02*
X44367Y-56530D01*
X44367Y-56530D02*
X44456Y-56455D01*
X44456Y-56455D02*
X44900Y-56455D01*
X44900Y-56455D02*
X44900Y-56905D01*
X44900Y-56905D02*
X44812Y-56980D01*
X44812Y-56980D02*
X44723Y-56980D01*
X44723Y-56980D02*
X44634Y-56905D01*
X44634Y-56905D02*
X44634Y-56455D01*
X44367Y-56194D02*
X44634Y-56194D01*
X44634Y-56194D02*
X44900Y-55969D01*
X44900Y-55969D02*
X44634Y-55744D01*
X44634Y-55744D02*
X44367Y-55744D01*
X44634Y-55408D02*
X44634Y-54883D01*
X44634Y-54883D02*
X44456Y-54883D01*
X44456Y-54883D02*
X44367Y-54958D01*
X44367Y-54958D02*
X44367Y-55333D01*
X44367Y-55333D02*
X44456Y-55408D01*
X44456Y-55408D02*
X44812Y-55408D01*
X44812Y-55408D02*
X44900Y-55333D01*
X44900Y-55333D02*
X44900Y-54958D01*
X44900Y-54958D02*
X44812Y-54883D01*
X44900Y-54397D02*
X44812Y-54397D01*
X44900Y-53836D02*
X44100Y-53836D01*
X44456Y-53836D02*
X44367Y-53761D01*
X44367Y-53761D02*
X44367Y-53386D01*
X44367Y-53386D02*
X44456Y-53311D01*
X44456Y-53311D02*
X44900Y-53311D01*
X44900Y-52975D02*
X44812Y-53050D01*
X44812Y-53050D02*
X44456Y-53050D01*
X44456Y-53050D02*
X44367Y-52975D01*
X44367Y-52975D02*
X44367Y-52600D01*
X44367Y-52600D02*
X44456Y-52525D01*
X44456Y-52525D02*
X44812Y-52525D01*
X44812Y-52525D02*
X44900Y-52600D01*
X44900Y-52600D02*
X44900Y-52975D01*
X44900Y-52264D02*
X44367Y-52264D01*
X44456Y-52264D02*
X44367Y-52189D01*
X44367Y-52189D02*
X44367Y-52039D01*
X44367Y-52039D02*
X44456Y-51964D01*
X44456Y-51964D02*
X44900Y-51964D01*
X44456Y-51964D02*
X44367Y-51889D01*
X44367Y-51889D02*
X44367Y-51739D01*
X44367Y-51739D02*
X44456Y-51664D01*
X44456Y-51664D02*
X44900Y-51664D01*
X44634Y-51478D02*
X44634Y-50953D01*
X44634Y-50953D02*
X44456Y-50953D01*
X44456Y-50953D02*
X44367Y-51028D01*
X44367Y-51028D02*
X44367Y-51403D01*
X44367Y-51403D02*
X44456Y-51478D01*
X44456Y-51478D02*
X44812Y-51478D01*
X44812Y-51478D02*
X44900Y-51403D01*
X44900Y-51403D02*
X44900Y-51028D01*
X44900Y-51028D02*
X44812Y-50953D01*
X44367Y-50692D02*
X44723Y-50692D01*
X44723Y-50692D02*
X44900Y-50542D01*
X44900Y-50542D02*
X44900Y-50317D01*
X44900Y-50317D02*
X44723Y-50167D01*
X44723Y-50167D02*
X44367Y-50167D01*
X44900Y-49906D02*
X44367Y-49906D01*
X44456Y-49906D02*
X44367Y-49831D01*
X44367Y-49831D02*
X44367Y-49531D01*
X44367Y-49531D02*
X44456Y-49456D01*
X44456Y-49456D02*
X44900Y-49456D01*
X44100Y-48895D02*
X44189Y-48895D01*
X44456Y-48895D02*
X44812Y-48895D01*
X44812Y-48895D02*
X44900Y-48820D01*
X44900Y-48820D02*
X44900Y-48745D01*
X44900Y-48334D02*
X44367Y-47809D01*
X44367Y-48334D02*
X44900Y-47809D01*
X44900Y-47323D02*
X44812Y-47323D01*
X44900Y-46687D02*
X44812Y-46762D01*
X44812Y-46762D02*
X44456Y-46762D01*
X44456Y-46762D02*
X44367Y-46687D01*
X44367Y-46687D02*
X44367Y-46312D01*
X44367Y-46312D02*
X44456Y-46237D01*
X44456Y-46237D02*
X44812Y-46237D01*
X44812Y-46237D02*
X44900Y-46312D01*
X44900Y-46312D02*
X44900Y-46687D01*
X44900Y-45976D02*
X44367Y-45976D01*
X44545Y-45976D02*
X44367Y-45826D01*
X44367Y-45826D02*
X44367Y-45601D01*
X44367Y-45601D02*
X44545Y-45451D01*
X45077Y-45190D02*
X45166Y-45115D01*
X45166Y-45115D02*
X45166Y-44740D01*
X45166Y-44740D02*
X45077Y-44665D01*
X45077Y-44665D02*
X44456Y-44665D01*
X44456Y-44665D02*
X44367Y-44740D01*
X44367Y-44740D02*
X44367Y-45115D01*
X44367Y-45115D02*
X44456Y-45190D01*
X44456Y-45190D02*
X44812Y-45190D01*
X44812Y-45190D02*
X44900Y-45115D01*
X44900Y-45115D02*
X44900Y-44740D01*
X44900Y-44740D02*
X44812Y-44665D01*
X62876Y-73600D02*
X63401Y-73600D01*
X63401Y-73600D02*
X63401Y-73689D01*
X63401Y-73689D02*
X63101Y-73956D01*
X63101Y-73956D02*
X63326Y-73956D01*
X63326Y-73956D02*
X63401Y-74045D01*
X63401Y-74045D02*
X63401Y-74312D01*
X63401Y-74312D02*
X63326Y-74400D01*
X63326Y-74400D02*
X62951Y-74400D01*
X62951Y-74400D02*
X62876Y-74312D01*
X63812Y-74400D02*
X64112Y-74400D01*
X63962Y-74400D02*
X63962Y-73600D01*
X63962Y-73689D02*
X63812Y-73867D01*
X53876Y-73600D02*
X54401Y-73600D01*
X54401Y-73600D02*
X54401Y-73689D01*
X54401Y-73689D02*
X54101Y-73956D01*
X54101Y-73956D02*
X54326Y-73956D01*
X54326Y-73956D02*
X54401Y-74045D01*
X54401Y-74045D02*
X54401Y-74312D01*
X54401Y-74312D02*
X54326Y-74400D01*
X54326Y-74400D02*
X53951Y-74400D01*
X53951Y-74400D02*
X53876Y-74312D01*
X54662Y-74400D02*
X55187Y-73600D01*
X54662Y-74312D02*
X54662Y-73689D01*
X54662Y-73689D02*
X54737Y-73600D01*
X54737Y-73600D02*
X55112Y-73600D01*
X55112Y-73600D02*
X55187Y-73689D01*
X55187Y-73689D02*
X55187Y-74312D01*
X55187Y-74312D02*
X55112Y-74400D01*
X55112Y-74400D02*
X54737Y-74400D01*
X54737Y-74400D02*
X54662Y-74312D01*
X54401Y-67400D02*
X53876Y-67400D01*
X53876Y-67400D02*
X53876Y-67134D01*
X53876Y-67134D02*
X53951Y-67045D01*
X53951Y-67045D02*
X54326Y-67045D01*
X54326Y-67045D02*
X54401Y-66956D01*
X54401Y-66956D02*
X54401Y-66689D01*
X54401Y-66689D02*
X54326Y-66600D01*
X54326Y-66600D02*
X53951Y-66600D01*
X53951Y-66600D02*
X53876Y-66689D01*
X54737Y-67400D02*
X55112Y-67400D01*
X55112Y-67400D02*
X55187Y-67312D01*
X55187Y-67312D02*
X55187Y-66689D01*
X55187Y-66689D02*
X55112Y-66600D01*
X55112Y-66600D02*
X54737Y-66600D01*
X54737Y-66600D02*
X54662Y-66689D01*
X54662Y-66689D02*
X54662Y-66956D01*
X54662Y-66956D02*
X54737Y-67045D01*
X54737Y-67045D02*
X55112Y-67045D01*
X55112Y-67045D02*
X55187Y-66956D01*
X63401Y-67400D02*
X62876Y-67400D01*
X62876Y-67400D02*
X62876Y-67134D01*
X62876Y-67134D02*
X62951Y-67045D01*
X62951Y-67045D02*
X63326Y-67045D01*
X63326Y-67045D02*
X63401Y-66956D01*
X63401Y-66956D02*
X63401Y-66689D01*
X63401Y-66689D02*
X63326Y-66600D01*
X63326Y-66600D02*
X62951Y-66600D01*
X62951Y-66600D02*
X62876Y-66689D01*
X63737Y-67400D02*
X63662Y-67312D01*
X63662Y-67312D02*
X63662Y-67045D01*
X63662Y-67045D02*
X63737Y-66956D01*
X63737Y-66956D02*
X64112Y-66956D01*
X64112Y-66956D02*
X64187Y-66867D01*
X64187Y-66867D02*
X64187Y-66689D01*
X64187Y-66689D02*
X64112Y-66600D01*
X64112Y-66600D02*
X63737Y-66600D01*
X63737Y-66600D02*
X63662Y-66689D01*
X63662Y-66689D02*
X63662Y-66867D01*
X63662Y-66867D02*
X63737Y-66956D01*
X64112Y-66956D02*
X64187Y-67045D01*
X64187Y-67045D02*
X64187Y-67312D01*
X64187Y-67312D02*
X64112Y-67400D01*
X64112Y-67400D02*
X63737Y-67400D01*
X63401Y-62400D02*
X62876Y-62400D01*
X62876Y-62400D02*
X62876Y-62134D01*
X62876Y-62134D02*
X62951Y-62045D01*
X62951Y-62045D02*
X63326Y-62045D01*
X63326Y-62045D02*
X63401Y-61956D01*
X63401Y-61956D02*
X63401Y-61689D01*
X63401Y-61689D02*
X63326Y-61600D01*
X63326Y-61600D02*
X62951Y-61600D01*
X62951Y-61600D02*
X62876Y-61689D01*
X63662Y-61600D02*
X64187Y-61600D01*
X64187Y-61600D02*
X64187Y-61689D01*
X64187Y-61689D02*
X63887Y-61956D01*
X63887Y-61956D02*
X64112Y-61956D01*
X64112Y-61956D02*
X64187Y-62045D01*
X64187Y-62045D02*
X64187Y-62312D01*
X64187Y-62312D02*
X64112Y-62400D01*
X64112Y-62400D02*
X63737Y-62400D01*
X63737Y-62400D02*
X63662Y-62312D01*
X54401Y-62400D02*
X53876Y-62400D01*
X53876Y-62400D02*
X53876Y-62134D01*
X53876Y-62134D02*
X53951Y-62045D01*
X53951Y-62045D02*
X54326Y-62045D01*
X54326Y-62045D02*
X54401Y-61956D01*
X54401Y-61956D02*
X54401Y-61689D01*
X54401Y-61689D02*
X54326Y-61600D01*
X54326Y-61600D02*
X53951Y-61600D01*
X53951Y-61600D02*
X53876Y-61689D01*
X55187Y-62400D02*
X54662Y-62400D01*
X54662Y-62400D02*
X54662Y-62134D01*
X54662Y-62134D02*
X54737Y-62045D01*
X54737Y-62045D02*
X55112Y-62045D01*
X55112Y-62045D02*
X55187Y-61956D01*
X55187Y-61956D02*
X55187Y-61689D01*
X55187Y-61689D02*
X55112Y-61600D01*
X55112Y-61600D02*
X54737Y-61600D01*
X54737Y-61600D02*
X54662Y-61689D01*
X54401Y-55400D02*
X53876Y-55400D01*
X53876Y-55400D02*
X53876Y-55134D01*
X53876Y-55134D02*
X53951Y-55045D01*
X53951Y-55045D02*
X54326Y-55045D01*
X54326Y-55045D02*
X54401Y-54956D01*
X54401Y-54956D02*
X54401Y-54689D01*
X54401Y-54689D02*
X54326Y-54600D01*
X54326Y-54600D02*
X53951Y-54600D01*
X53951Y-54600D02*
X53876Y-54689D01*
X54812Y-55400D02*
X55112Y-55400D01*
X54962Y-55400D02*
X54962Y-54600D01*
X54962Y-54689D02*
X54812Y-54867D01*
X63401Y-55400D02*
X62876Y-55400D01*
X62876Y-55400D02*
X62876Y-55134D01*
X62876Y-55134D02*
X62951Y-55045D01*
X62951Y-55045D02*
X63326Y-55045D01*
X63326Y-55045D02*
X63401Y-54956D01*
X63401Y-54956D02*
X63401Y-54689D01*
X63401Y-54689D02*
X63326Y-54600D01*
X63326Y-54600D02*
X62951Y-54600D01*
X62951Y-54600D02*
X62876Y-54689D01*
X63662Y-55400D02*
X64187Y-54600D01*
X63662Y-55312D02*
X63662Y-54689D01*
X63662Y-54689D02*
X63737Y-54600D01*
X63737Y-54600D02*
X64112Y-54600D01*
X64112Y-54600D02*
X64187Y-54689D01*
X64187Y-54689D02*
X64187Y-55312D01*
X64187Y-55312D02*
X64112Y-55400D01*
X64112Y-55400D02*
X63737Y-55400D01*
X63737Y-55400D02*
X63662Y-55312D01*
X63026Y-50400D02*
X63326Y-50400D01*
X63176Y-50400D02*
X63176Y-49600D01*
X63176Y-49689D02*
X63026Y-49867D01*
X63662Y-50223D02*
X63662Y-50312D01*
X63662Y-50312D02*
X63737Y-50400D01*
X63737Y-50400D02*
X64112Y-50400D01*
X64112Y-50400D02*
X64187Y-50312D01*
X64187Y-50312D02*
X64187Y-50045D01*
X64187Y-50045D02*
X64037Y-49867D01*
X64037Y-49867D02*
X63662Y-49867D01*
X63662Y-49867D02*
X63662Y-49600D01*
X63662Y-49600D02*
X64187Y-49600D01*
X54026Y-50400D02*
X54326Y-50400D01*
X54176Y-50400D02*
X54176Y-49600D01*
X54176Y-49689D02*
X54026Y-49867D01*
X55037Y-50400D02*
X55037Y-49600D01*
X55037Y-49600D02*
X54662Y-50223D01*
X54662Y-50223D02*
X55187Y-50223D01*
X54026Y-43400D02*
X54326Y-43400D01*
X54176Y-43400D02*
X54176Y-42600D01*
X54176Y-42689D02*
X54026Y-42867D01*
X54662Y-42600D02*
X55187Y-42600D01*
X55187Y-42600D02*
X55187Y-42689D01*
X55187Y-42689D02*
X54887Y-42956D01*
X54887Y-42956D02*
X55112Y-42956D01*
X55112Y-42956D02*
X55187Y-43045D01*
X55187Y-43045D02*
X55187Y-43312D01*
X55187Y-43312D02*
X55112Y-43400D01*
X55112Y-43400D02*
X54737Y-43400D01*
X54737Y-43400D02*
X54662Y-43312D01*
X63026Y-43400D02*
X63326Y-43400D01*
X63176Y-43400D02*
X63176Y-42600D01*
X63176Y-42689D02*
X63026Y-42867D01*
X64187Y-43400D02*
X63662Y-43400D01*
X63662Y-43400D02*
X63662Y-43134D01*
X63662Y-43134D02*
X63737Y-43045D01*
X63737Y-43045D02*
X64112Y-43045D01*
X64112Y-43045D02*
X64187Y-42956D01*
X64187Y-42956D02*
X64187Y-42689D01*
X64187Y-42689D02*
X64112Y-42600D01*
X64112Y-42600D02*
X63737Y-42600D01*
X63737Y-42600D02*
X63662Y-42689D01*
X32901Y-66400D02*
X32376Y-66400D01*
X32376Y-66400D02*
X32376Y-66134D01*
X32376Y-66134D02*
X32451Y-66045D01*
X32451Y-66045D02*
X32826Y-66045D01*
X32826Y-66045D02*
X32901Y-65956D01*
X32901Y-65956D02*
X32901Y-65689D01*
X32901Y-65689D02*
X32826Y-65600D01*
X32826Y-65600D02*
X32451Y-65600D01*
X32451Y-65600D02*
X32376Y-65689D01*
X33162Y-65600D02*
X33687Y-65600D01*
X33687Y-65600D02*
X33162Y-66400D01*
X41401Y-66400D02*
X40876Y-66400D01*
X40876Y-66400D02*
X40876Y-66134D01*
X40876Y-66134D02*
X40951Y-66045D01*
X40951Y-66045D02*
X41326Y-66045D01*
X41326Y-66045D02*
X41401Y-65956D01*
X41401Y-65956D02*
X41401Y-65689D01*
X41401Y-65689D02*
X41326Y-65600D01*
X41326Y-65600D02*
X40951Y-65600D01*
X40951Y-65600D02*
X40876Y-65689D01*
X42187Y-65689D02*
X42112Y-65600D01*
X42112Y-65600D02*
X41737Y-65600D01*
X41737Y-65600D02*
X41662Y-65689D01*
X41662Y-65689D02*
X41662Y-66312D01*
X41662Y-66312D02*
X41737Y-66400D01*
X41737Y-66400D02*
X42112Y-66400D01*
X42112Y-66400D02*
X42187Y-66312D01*
X42187Y-66312D02*
X42187Y-66045D01*
X42187Y-66045D02*
X42112Y-65956D01*
X42112Y-65956D02*
X41737Y-65956D01*
X41737Y-65956D02*
X41662Y-66045D01*
X41401Y-73400D02*
X40876Y-73400D01*
X40876Y-73400D02*
X40876Y-73134D01*
X40876Y-73134D02*
X40951Y-73045D01*
X40951Y-73045D02*
X41326Y-73045D01*
X41326Y-73045D02*
X41401Y-72956D01*
X41401Y-72956D02*
X41401Y-72689D01*
X41401Y-72689D02*
X41326Y-72600D01*
X41326Y-72600D02*
X40951Y-72600D01*
X40951Y-72600D02*
X40876Y-72689D01*
X41662Y-73223D02*
X41662Y-73312D01*
X41662Y-73312D02*
X41737Y-73400D01*
X41737Y-73400D02*
X42112Y-73400D01*
X42112Y-73400D02*
X42187Y-73312D01*
X42187Y-73312D02*
X42187Y-73045D01*
X42187Y-73045D02*
X42037Y-72867D01*
X42037Y-72867D02*
X41662Y-72867D01*
X41662Y-72867D02*
X41662Y-72600D01*
X41662Y-72600D02*
X42187Y-72600D01*
X32901Y-73400D02*
X32376Y-73400D01*
X32376Y-73400D02*
X32376Y-73134D01*
X32376Y-73134D02*
X32451Y-73045D01*
X32451Y-73045D02*
X32826Y-73045D01*
X32826Y-73045D02*
X32901Y-72956D01*
X32901Y-72956D02*
X32901Y-72689D01*
X32901Y-72689D02*
X32826Y-72600D01*
X32826Y-72600D02*
X32451Y-72600D01*
X32451Y-72600D02*
X32376Y-72689D01*
X33537Y-73400D02*
X33537Y-72600D01*
X33537Y-72600D02*
X33162Y-73223D01*
X33162Y-73223D02*
X33687Y-73223D01*
X32026Y-53900D02*
X32326Y-53900D01*
X32176Y-53900D02*
X32176Y-53100D01*
X32176Y-53189D02*
X32026Y-53367D01*
X32737Y-53900D02*
X33112Y-53900D01*
X33112Y-53900D02*
X33187Y-53812D01*
X33187Y-53812D02*
X33187Y-53189D01*
X33187Y-53189D02*
X33112Y-53100D01*
X33112Y-53100D02*
X32737Y-53100D01*
X32737Y-53100D02*
X32662Y-53189D01*
X32662Y-53189D02*
X32662Y-53456D01*
X32662Y-53456D02*
X32737Y-53545D01*
X32737Y-53545D02*
X33112Y-53545D01*
X33112Y-53545D02*
X33187Y-53456D01*
X41026Y-53900D02*
X41326Y-53900D01*
X41176Y-53900D02*
X41176Y-53100D01*
X41176Y-53189D02*
X41026Y-53367D01*
X41737Y-53900D02*
X41662Y-53812D01*
X41662Y-53812D02*
X41662Y-53545D01*
X41662Y-53545D02*
X41737Y-53456D01*
X41737Y-53456D02*
X42112Y-53456D01*
X42112Y-53456D02*
X42187Y-53367D01*
X42187Y-53367D02*
X42187Y-53189D01*
X42187Y-53189D02*
X42112Y-53100D01*
X42112Y-53100D02*
X41737Y-53100D01*
X41737Y-53100D02*
X41662Y-53189D01*
X41662Y-53189D02*
X41662Y-53367D01*
X41662Y-53367D02*
X41737Y-53456D01*
X42112Y-53456D02*
X42187Y-53545D01*
X42187Y-53545D02*
X42187Y-53812D01*
X42187Y-53812D02*
X42112Y-53900D01*
X42112Y-53900D02*
X41737Y-53900D01*
X41026Y-61400D02*
X41326Y-61400D01*
X41176Y-61400D02*
X41176Y-60600D01*
X41176Y-60689D02*
X41026Y-60867D01*
X41662Y-60600D02*
X42187Y-60600D01*
X42187Y-60600D02*
X41662Y-61400D01*
X32526Y-61400D02*
X32826Y-61400D01*
X32676Y-61400D02*
X32676Y-60600D01*
X32676Y-60689D02*
X32526Y-60867D01*
X33687Y-60689D02*
X33612Y-60600D01*
X33612Y-60600D02*
X33237Y-60600D01*
X33237Y-60600D02*
X33162Y-60689D01*
X33162Y-60689D02*
X33162Y-61312D01*
X33162Y-61312D02*
X33237Y-61400D01*
X33237Y-61400D02*
X33612Y-61400D01*
X33612Y-61400D02*
X33687Y-61312D01*
X33687Y-61312D02*
X33687Y-61045D01*
X33687Y-61045D02*
X33612Y-60956D01*
X33612Y-60956D02*
X33237Y-60956D01*
X33237Y-60956D02*
X33162Y-61045D01*
X32026Y-41900D02*
X32326Y-41900D01*
X32176Y-41900D02*
X32176Y-41100D01*
X32176Y-41189D02*
X32026Y-41367D01*
X32812Y-41900D02*
X33112Y-41900D01*
X32962Y-41900D02*
X32962Y-41100D01*
X32962Y-41189D02*
X32812Y-41367D01*
X41026Y-41900D02*
X41326Y-41900D01*
X41176Y-41900D02*
X41176Y-41100D01*
X41176Y-41189D02*
X41026Y-41367D01*
X41662Y-41900D02*
X42187Y-41100D01*
X41662Y-41812D02*
X41662Y-41189D01*
X41662Y-41189D02*
X41737Y-41100D01*
X41737Y-41100D02*
X42112Y-41100D01*
X42112Y-41100D02*
X42187Y-41189D01*
X42187Y-41189D02*
X42187Y-41812D01*
X42187Y-41812D02*
X42112Y-41900D01*
X42112Y-41900D02*
X41737Y-41900D01*
X41737Y-41900D02*
X41662Y-41812D01*
X40844Y-49400D02*
X41219Y-49400D01*
X41219Y-49400D02*
X41294Y-49312D01*
X41294Y-49312D02*
X41294Y-48689D01*
X41294Y-48689D02*
X41219Y-48600D01*
X41219Y-48600D02*
X40844Y-48600D01*
X40844Y-48600D02*
X40769Y-48689D01*
X40769Y-48689D02*
X40769Y-48956D01*
X40769Y-48956D02*
X40844Y-49045D01*
X40844Y-49045D02*
X41219Y-49045D01*
X41219Y-49045D02*
X41294Y-48956D01*
X32844Y-49400D02*
X32769Y-49312D01*
X32769Y-49312D02*
X32769Y-49045D01*
X32769Y-49045D02*
X32844Y-48956D01*
X32844Y-48956D02*
X33219Y-48956D01*
X33219Y-48956D02*
X33294Y-48867D01*
X33294Y-48867D02*
X33294Y-48689D01*
X33294Y-48689D02*
X33219Y-48600D01*
X33219Y-48600D02*
X32844Y-48600D01*
X32844Y-48600D02*
X32769Y-48689D01*
X32769Y-48689D02*
X32769Y-48867D01*
X32769Y-48867D02*
X32844Y-48956D01*
X33219Y-48956D02*
X33294Y-49045D01*
X33294Y-49045D02*
X33294Y-49312D01*
X33294Y-49312D02*
X33219Y-49400D01*
X33219Y-49400D02*
X32844Y-49400D01*
X69901Y-72650D02*
X69376Y-72650D01*
X69376Y-72650D02*
X69376Y-72384D01*
X69376Y-72384D02*
X69451Y-72295D01*
X69451Y-72295D02*
X69826Y-72295D01*
X69826Y-72295D02*
X69901Y-72206D01*
X69901Y-72206D02*
X69901Y-71939D01*
X69901Y-71939D02*
X69826Y-71850D01*
X69826Y-71850D02*
X69451Y-71850D01*
X69451Y-71850D02*
X69376Y-71939D01*
X70237Y-72650D02*
X70162Y-72562D01*
X70162Y-72562D02*
X70162Y-72295D01*
X70162Y-72295D02*
X70237Y-72206D01*
X70237Y-72206D02*
X70612Y-72206D01*
X70612Y-72206D02*
X70687Y-72117D01*
X70687Y-72117D02*
X70687Y-71939D01*
X70687Y-71939D02*
X70612Y-71850D01*
X70612Y-71850D02*
X70237Y-71850D01*
X70237Y-71850D02*
X70162Y-71939D01*
X70162Y-71939D02*
X70162Y-72117D01*
X70162Y-72117D02*
X70237Y-72206D01*
X70612Y-72206D02*
X70687Y-72295D01*
X70687Y-72295D02*
X70687Y-72562D01*
X70687Y-72562D02*
X70612Y-72650D01*
X70612Y-72650D02*
X70237Y-72650D01*
X69901Y-60650D02*
X69376Y-60650D01*
X69376Y-60650D02*
X69376Y-60384D01*
X69376Y-60384D02*
X69451Y-60295D01*
X69451Y-60295D02*
X69826Y-60295D01*
X69826Y-60295D02*
X69901Y-60206D01*
X69901Y-60206D02*
X69901Y-59939D01*
X69901Y-59939D02*
X69826Y-59850D01*
X69826Y-59850D02*
X69451Y-59850D01*
X69451Y-59850D02*
X69376Y-59939D01*
X70162Y-60650D02*
X70687Y-59850D01*
X70162Y-60562D02*
X70162Y-59939D01*
X70162Y-59939D02*
X70237Y-59850D01*
X70237Y-59850D02*
X70612Y-59850D01*
X70612Y-59850D02*
X70687Y-59939D01*
X70687Y-59939D02*
X70687Y-60562D01*
X70687Y-60562D02*
X70612Y-60650D01*
X70612Y-60650D02*
X70237Y-60650D01*
X70237Y-60650D02*
X70162Y-60562D01*
X69526Y-48650D02*
X69826Y-48650D01*
X69676Y-48650D02*
X69676Y-47850D01*
X69676Y-47939D02*
X69526Y-48117D01*
X70687Y-48650D02*
X70162Y-48650D01*
X70162Y-48650D02*
X70162Y-48384D01*
X70162Y-48384D02*
X70237Y-48295D01*
X70237Y-48295D02*
X70612Y-48295D01*
X70612Y-48295D02*
X70687Y-48206D01*
X70687Y-48206D02*
X70687Y-47939D01*
X70687Y-47939D02*
X70612Y-47850D01*
X70612Y-47850D02*
X70237Y-47850D01*
X70237Y-47850D02*
X70162Y-47939D01*
X26151Y-68150D02*
X25626Y-68150D01*
X25626Y-68150D02*
X25626Y-67884D01*
X25626Y-67884D02*
X25701Y-67795D01*
X25701Y-67795D02*
X26076Y-67795D01*
X26076Y-67795D02*
X26151Y-67706D01*
X26151Y-67706D02*
X26151Y-67439D01*
X26151Y-67439D02*
X26076Y-67350D01*
X26076Y-67350D02*
X25701Y-67350D01*
X25701Y-67350D02*
X25626Y-67439D01*
X26787Y-68150D02*
X26787Y-67350D01*
X26787Y-67350D02*
X26412Y-67973D01*
X26412Y-67973D02*
X26937Y-67973D01*
X25526Y-56150D02*
X25826Y-56150D01*
X25676Y-56150D02*
X25676Y-55350D01*
X25676Y-55439D02*
X25526Y-55617D01*
X26687Y-55439D02*
X26612Y-55350D01*
X26612Y-55350D02*
X26237Y-55350D01*
X26237Y-55350D02*
X26162Y-55439D01*
X26162Y-55439D02*
X26162Y-56062D01*
X26162Y-56062D02*
X26237Y-56150D01*
X26237Y-56150D02*
X26612Y-56150D01*
X26612Y-56150D02*
X26687Y-56062D01*
X26687Y-56062D02*
X26687Y-55795D01*
X26687Y-55795D02*
X26612Y-55706D01*
X26612Y-55706D02*
X26237Y-55706D01*
X26237Y-55706D02*
X26162Y-55795D01*
X26094Y-44150D02*
X26019Y-44062D01*
X26019Y-44062D02*
X26019Y-43795D01*
X26019Y-43795D02*
X26094Y-43706D01*
X26094Y-43706D02*
X26469Y-43706D01*
X26469Y-43706D02*
X26544Y-43617D01*
X26544Y-43617D02*
X26544Y-43439D01*
X26544Y-43439D02*
X26469Y-43350D01*
X26469Y-43350D02*
X26094Y-43350D01*
X26094Y-43350D02*
X26019Y-43439D01*
X26019Y-43439D02*
X26019Y-43617D01*
X26019Y-43617D02*
X26094Y-43706D01*
X26469Y-43706D02*
X26544Y-43795D01*
X26544Y-43795D02*
X26544Y-44062D01*
X26544Y-44062D02*
X26469Y-44150D01*
X26469Y-44150D02*
X26094Y-44150D01*
X62769Y-37600D02*
X63294Y-37600D01*
X63294Y-37600D02*
X62769Y-38400D01*
X55294Y-37689D02*
X55219Y-37600D01*
X55219Y-37600D02*
X54844Y-37600D01*
X54844Y-37600D02*
X54769Y-37689D01*
X54769Y-37689D02*
X54769Y-38312D01*
X54769Y-38312D02*
X54844Y-38400D01*
X54844Y-38400D02*
X55219Y-38400D01*
X55219Y-38400D02*
X55294Y-38312D01*
X55294Y-38312D02*
X55294Y-38045D01*
X55294Y-38045D02*
X55219Y-37956D01*
X55219Y-37956D02*
X54844Y-37956D01*
X54844Y-37956D02*
X54769Y-38045D01*
X54769Y-31223D02*
X54769Y-31312D01*
X54769Y-31312D02*
X54844Y-31400D01*
X54844Y-31400D02*
X55219Y-31400D01*
X55219Y-31400D02*
X55294Y-31312D01*
X55294Y-31312D02*
X55294Y-31045D01*
X55294Y-31045D02*
X55144Y-30867D01*
X55144Y-30867D02*
X54769Y-30867D01*
X54769Y-30867D02*
X54769Y-30600D01*
X54769Y-30600D02*
X55294Y-30600D01*
X63144Y-31400D02*
X63144Y-30600D01*
X63144Y-30600D02*
X62769Y-31223D01*
X62769Y-31223D02*
X63294Y-31223D01*
X70144Y-36650D02*
X70144Y-35850D01*
X70144Y-35850D02*
X69769Y-36473D01*
X69769Y-36473D02*
X70294Y-36473D01*
X32769Y-29600D02*
X33294Y-29600D01*
X33294Y-29600D02*
X33294Y-29689D01*
X33294Y-29689D02*
X32994Y-29956D01*
X32994Y-29956D02*
X33219Y-29956D01*
X33219Y-29956D02*
X33294Y-30045D01*
X33294Y-30045D02*
X33294Y-30312D01*
X33294Y-30312D02*
X33219Y-30400D01*
X33219Y-30400D02*
X32844Y-30400D01*
X32844Y-30400D02*
X32769Y-30312D01*
X41294Y-30400D02*
X40769Y-30400D01*
X40769Y-30400D02*
X40769Y-30134D01*
X40769Y-30134D02*
X40844Y-30045D01*
X40844Y-30045D02*
X41219Y-30045D01*
X41219Y-30045D02*
X41294Y-29956D01*
X41294Y-29956D02*
X41294Y-29689D01*
X41294Y-29689D02*
X41219Y-29600D01*
X41219Y-29600D02*
X40844Y-29600D01*
X40844Y-29600D02*
X40769Y-29689D01*
X40919Y-37400D02*
X41219Y-37400D01*
X41069Y-37400D02*
X41069Y-36600D01*
X41069Y-36689D02*
X40919Y-36867D01*
X32769Y-37400D02*
X33294Y-36600D01*
X32769Y-37312D02*
X32769Y-36689D01*
X32769Y-36689D02*
X32844Y-36600D01*
X32844Y-36600D02*
X33219Y-36600D01*
X33219Y-36600D02*
X33294Y-36689D01*
X33294Y-36689D02*
X33294Y-37312D01*
X33294Y-37312D02*
X33219Y-37400D01*
X33219Y-37400D02*
X32844Y-37400D01*
X32844Y-37400D02*
X32769Y-37312D01*
X43574Y-16150D02*
X43574Y-14350D01*
X43399Y-14350D02*
X44449Y-14350D01*
X44449Y-14350D02*
X44624Y-14550D01*
X44624Y-14550D02*
X44624Y-15950D01*
X44624Y-15950D02*
X44449Y-16150D01*
X44449Y-16150D02*
X43399Y-16150D01*
X45074Y-16150D02*
X45074Y-14950D01*
X45074Y-15350D02*
X45424Y-14950D01*
X45424Y-14950D02*
X45949Y-14950D01*
X45949Y-14950D02*
X46299Y-15350D01*
X46749Y-14950D02*
X46749Y-15750D01*
X46749Y-15750D02*
X47099Y-16150D01*
X47099Y-16150D02*
X47624Y-16150D01*
X47624Y-16150D02*
X47974Y-15750D01*
X47974Y-15750D02*
X47974Y-14950D01*
X48424Y-16150D02*
X48424Y-14950D01*
X48424Y-15150D02*
X48599Y-14950D01*
X48599Y-14950D02*
X48949Y-14950D01*
X48949Y-14950D02*
X49124Y-15150D01*
X49124Y-15150D02*
X49124Y-16150D01*
X49124Y-15150D02*
X49299Y-14950D01*
X49299Y-14950D02*
X49649Y-14950D01*
X49649Y-14950D02*
X49824Y-15150D01*
X49824Y-15150D02*
X49824Y-16150D01*
X51774Y-16150D02*
X51774Y-14350D01*
X51774Y-14350D02*
X52474Y-15150D01*
X52474Y-15150D02*
X53174Y-14350D01*
X53174Y-14350D02*
X53174Y-16150D01*
X53449Y-14950D02*
X54499Y-14950D01*
X54499Y-14950D02*
X54674Y-15150D01*
X54674Y-15150D02*
X54674Y-16150D01*
X54674Y-16150D02*
X53624Y-16150D01*
X53624Y-16150D02*
X53449Y-15950D01*
X53449Y-15950D02*
X53449Y-15750D01*
X53449Y-15750D02*
X53624Y-15550D01*
X53624Y-15550D02*
X54674Y-15550D01*
X55124Y-15950D02*
X55299Y-16150D01*
X55299Y-16150D02*
X56174Y-16150D01*
X56174Y-16150D02*
X56349Y-15950D01*
X56349Y-15950D02*
X56349Y-15750D01*
X56349Y-15750D02*
X56174Y-15550D01*
X56174Y-15550D02*
X55299Y-15550D01*
X55299Y-15550D02*
X55124Y-15350D01*
X55124Y-15350D02*
X55124Y-15150D01*
X55124Y-15150D02*
X55299Y-14950D01*
X55299Y-14950D02*
X56174Y-14950D01*
X56174Y-14950D02*
X56349Y-15150D01*
X57849Y-15950D02*
X57674Y-16150D01*
X57674Y-16150D02*
X57149Y-16150D01*
X57149Y-16150D02*
X56974Y-15950D01*
X56974Y-15950D02*
X56974Y-14350D01*
X56974Y-14950D02*
X57499Y-14950D01*
X58474Y-15550D02*
X59699Y-15550D01*
X59699Y-15550D02*
X59699Y-15150D01*
X59699Y-15150D02*
X59524Y-14950D01*
X59524Y-14950D02*
X58649Y-14950D01*
X58649Y-14950D02*
X58474Y-15150D01*
X58474Y-15150D02*
X58474Y-15950D01*
X58474Y-15950D02*
X58649Y-16150D01*
X58649Y-16150D02*
X59524Y-16150D01*
X59524Y-16150D02*
X59699Y-15950D01*
X60149Y-16150D02*
X60149Y-14950D01*
X60149Y-15350D02*
X60499Y-14950D01*
X60499Y-14950D02*
X61024Y-14950D01*
X61024Y-14950D02*
X61374Y-15350D01*
X63411Y-16400D02*
X63411Y-15600D01*
X63411Y-15600D02*
X63861Y-15600D01*
X63861Y-15600D02*
X63936Y-15689D01*
X63936Y-15689D02*
X63936Y-15956D01*
X63936Y-15956D02*
X63861Y-16045D01*
X63861Y-16045D02*
X63411Y-16045D01*
X63636Y-16045D02*
X63936Y-16400D01*
X64197Y-16134D02*
X64722Y-16134D01*
X64722Y-16134D02*
X64722Y-15956D01*
X64722Y-15956D02*
X64647Y-15867D01*
X64647Y-15867D02*
X64272Y-15867D01*
X64272Y-15867D02*
X64197Y-15956D01*
X64197Y-15956D02*
X64197Y-16312D01*
X64197Y-16312D02*
X64272Y-16400D01*
X64272Y-16400D02*
X64647Y-16400D01*
X64647Y-16400D02*
X64722Y-16312D01*
X64983Y-15867D02*
X64983Y-16134D01*
X64983Y-16134D02*
X65208Y-16400D01*
X65208Y-16400D02*
X65433Y-16134D01*
X65433Y-16134D02*
X65433Y-15867D01*
X66705Y-16400D02*
X67005Y-16400D01*
X66855Y-16400D02*
X66855Y-15600D01*
X66855Y-15689D02*
X66705Y-15867D01*
X67566Y-16400D02*
X67566Y-16312D01*
X68127Y-16400D02*
X68652Y-15600D01*
X68127Y-16312D02*
X68127Y-15689D01*
X68127Y-15689D02*
X68202Y-15600D01*
X68202Y-15600D02*
X68577Y-15600D01*
X68577Y-15600D02*
X68652Y-15689D01*
X68652Y-15689D02*
X68652Y-16312D01*
X68652Y-16312D02*
X68577Y-16400D01*
X68577Y-16400D02*
X68202Y-16400D01*
X68202Y-16400D02*
X68127Y-16312D01*
G54D24*
X75500Y-15000D02*
X75433Y-15250D01*
X75433Y-15250D02*
X75250Y-15433D01*
X75250Y-15433D02*
X75000Y-15500D01*
X75000Y-15500D02*
X74750Y-15433D01*
X74750Y-15433D02*
X74567Y-15250D01*
X74567Y-15250D02*
X74500Y-15000D01*
X74500Y-15000D02*
X74567Y-14750D01*
X74567Y-14750D02*
X74750Y-14567D01*
X74750Y-14567D02*
X75000Y-14500D01*
X75000Y-14500D02*
X75250Y-14567D01*
X75250Y-14567D02*
X75433Y-14750D01*
X75433Y-14750D02*
X75500Y-15000D01*
X21500Y-15000D02*
X21433Y-15250D01*
X21433Y-15250D02*
X21250Y-15433D01*
X21250Y-15433D02*
X21000Y-15500D01*
X21000Y-15500D02*
X20750Y-15433D01*
X20750Y-15433D02*
X20567Y-15250D01*
X20567Y-15250D02*
X20500Y-15000D01*
X20500Y-15000D02*
X20567Y-14750D01*
X20567Y-14750D02*
X20750Y-14567D01*
X20750Y-14567D02*
X21000Y-14500D01*
X21000Y-14500D02*
X21250Y-14567D01*
X21250Y-14567D02*
X21433Y-14750D01*
X21433Y-14750D02*
X21500Y-15000D01*
X33500Y-62500D02*
X36500Y-62500D01*
X36500Y-62500D02*
X36500Y-60000D01*
X36500Y-60000D02*
X36000Y-59500D01*
X36000Y-59500D02*
X34000Y-59500D01*
X34000Y-59500D02*
X33500Y-60000D01*
X33500Y-60000D02*
X33500Y-62500D01*
X40500Y-52500D02*
X37500Y-52500D01*
X37500Y-52500D02*
X37500Y-55000D01*
X37500Y-55000D02*
X38000Y-55500D01*
X38000Y-55500D02*
X40000Y-55500D01*
X40000Y-55500D02*
X40500Y-55000D01*
X40500Y-55000D02*
X40500Y-52500D01*
X40500Y-59500D02*
X37500Y-59500D01*
X37500Y-59500D02*
X37500Y-62000D01*
X37500Y-62000D02*
X38000Y-62500D01*
X38000Y-62500D02*
X40000Y-62500D01*
X40000Y-62500D02*
X40500Y-62000D01*
X40500Y-62000D02*
X40500Y-59500D01*
X33500Y-55500D02*
X36500Y-55500D01*
X36500Y-55500D02*
X36500Y-53000D01*
X36500Y-53000D02*
X36000Y-52500D01*
X36000Y-52500D02*
X34000Y-52500D01*
X34000Y-52500D02*
X33500Y-53000D01*
X33500Y-53000D02*
X33500Y-55500D01*
X32000Y-55000D02*
X32000Y-54000D01*
X32000Y-54000D02*
X26000Y-54000D01*
X26000Y-54000D02*
X26000Y-55000D01*
X26000Y-55000D02*
X32000Y-55000D01*
X42500Y-54500D02*
X41500Y-54500D01*
X41500Y-54500D02*
X41500Y-60500D01*
X41500Y-60500D02*
X42500Y-60500D01*
X42500Y-60500D02*
X42500Y-54500D01*
X32000Y-62000D02*
X32000Y-61000D01*
X32000Y-61000D02*
X26000Y-61000D01*
X26000Y-61000D02*
X26000Y-62000D01*
X26000Y-62000D02*
X32000Y-62000D01*
G54D10*
X27000Y-52000D02*
X31000Y-52000D01*
X31000Y-52000D02*
X31000Y-54000D01*
X31000Y-54000D02*
X27000Y-54000D01*
X27000Y-54000D02*
X27000Y-52000D01*
G54D24*
X31000Y-56000D02*
X31000Y-55000D01*
X31000Y-55000D02*
X27000Y-55000D01*
X27000Y-55000D02*
X27000Y-56000D01*
X27000Y-56000D02*
X31000Y-56000D01*
X28000Y-58000D02*
X27000Y-58000D01*
X28000Y-59000D02*
X27000Y-59000D01*
X27000Y-59000D02*
X27000Y-56000D01*
X27000Y-56000D02*
X28000Y-56000D01*
X28000Y-56000D02*
X28000Y-59000D01*
X29000Y-58000D02*
X28000Y-58000D01*
X29000Y-59000D02*
X28000Y-59000D01*
X28000Y-59000D02*
X28000Y-56000D01*
X28000Y-56000D02*
X29000Y-56000D01*
X29000Y-56000D02*
X29000Y-59000D01*
X30000Y-58000D02*
X29000Y-58000D01*
X30000Y-59000D02*
X29000Y-59000D01*
X29000Y-59000D02*
X29000Y-56000D01*
X29000Y-56000D02*
X30000Y-56000D01*
X30000Y-56000D02*
X30000Y-59000D01*
X31000Y-58000D02*
X30000Y-58000D01*
X31000Y-59000D02*
X30000Y-59000D01*
X30000Y-59000D02*
X30000Y-56000D01*
X30000Y-56000D02*
X31000Y-56000D01*
X31000Y-56000D02*
X31000Y-59000D01*
G54D10*
X26100Y-59100D02*
X28900Y-59100D01*
X28900Y-59100D02*
X28900Y-59900D01*
X28900Y-59900D02*
X26100Y-59900D01*
X26100Y-59900D02*
X26100Y-59100D01*
X26100Y-59300D02*
X26300Y-59100D01*
X31900Y-59900D02*
X29100Y-59900D01*
X29100Y-59900D02*
X29100Y-59100D01*
X29100Y-59100D02*
X31900Y-59100D01*
X31900Y-59100D02*
X31900Y-59900D01*
X31900Y-59700D02*
X31700Y-59900D01*
X26020Y-60000D02*
X28000Y-60000D01*
X28000Y-60000D02*
X28000Y-61000D01*
X28000Y-61000D02*
X26000Y-61000D01*
X26000Y-61000D02*
X26000Y-60000D01*
X26000Y-60250D02*
X26250Y-60000D01*
X31980Y-61000D02*
X30000Y-61000D01*
X30000Y-61000D02*
X30000Y-60000D01*
X30000Y-60000D02*
X32000Y-60000D01*
X32000Y-60000D02*
X32000Y-61000D01*
X32000Y-60750D02*
X31750Y-61000D01*
G54D24*
X49000Y-52000D02*
X49000Y-52000D01*
X49000Y-52000D02*
X49000Y-52500D01*
X49000Y-52500D02*
X48000Y-52500D01*
X48000Y-52500D02*
X48000Y-52000D01*
X49500Y-52000D02*
X49500Y-61000D01*
X49500Y-61000D02*
X47500Y-61000D01*
X47500Y-61000D02*
X47500Y-52000D01*
X47500Y-52000D02*
X49500Y-52000D01*
X33000Y-56500D02*
X41000Y-56500D01*
X41000Y-58500D02*
X33000Y-58500D01*
X33000Y-58500D02*
X33000Y-56500D01*
X33000Y-57000D02*
X33500Y-57000D01*
X33500Y-57000D02*
X33500Y-58000D01*
X33500Y-58000D02*
X33000Y-58000D01*
X41000Y-56500D02*
X41000Y-58500D01*
X63000Y-59500D02*
X55000Y-59500D01*
X55000Y-57500D02*
X63000Y-57500D01*
X63000Y-57500D02*
X63000Y-59500D01*
X63000Y-59000D02*
X62500Y-59000D01*
X62500Y-59000D02*
X62500Y-58000D01*
X62500Y-58000D02*
X63000Y-58000D01*
X55000Y-59500D02*
X55000Y-57500D01*
G54D10*
X64020Y-55000D02*
X66000Y-55000D01*
X66000Y-55000D02*
X66000Y-56000D01*
X66000Y-56000D02*
X64000Y-56000D01*
X64000Y-56000D02*
X64000Y-55000D01*
X64000Y-55250D02*
X64250Y-55000D01*
X69980Y-56000D02*
X68000Y-56000D01*
X68000Y-56000D02*
X68000Y-55000D01*
X68000Y-55000D02*
X70000Y-55000D01*
X70000Y-55000D02*
X70000Y-56000D01*
X70000Y-55750D02*
X69750Y-56000D01*
X64100Y-56100D02*
X66900Y-56100D01*
X66900Y-56100D02*
X66900Y-56900D01*
X66900Y-56900D02*
X64100Y-56900D01*
X64100Y-56900D02*
X64100Y-56100D01*
X64100Y-56300D02*
X64300Y-56100D01*
X69900Y-56900D02*
X67100Y-56900D01*
X67100Y-56900D02*
X67100Y-56100D01*
X67100Y-56100D02*
X69900Y-56100D01*
X69900Y-56100D02*
X69900Y-56900D01*
X69900Y-56700D02*
X69700Y-56900D01*
G54D24*
X65000Y-58000D02*
X66000Y-58000D01*
X65000Y-57000D02*
X66000Y-57000D01*
X66000Y-57000D02*
X66000Y-60000D01*
X66000Y-60000D02*
X65000Y-60000D01*
X65000Y-60000D02*
X65000Y-57000D01*
X66000Y-58000D02*
X67000Y-58000D01*
X66000Y-57000D02*
X67000Y-57000D01*
X67000Y-57000D02*
X67000Y-60000D01*
X67000Y-60000D02*
X66000Y-60000D01*
X66000Y-60000D02*
X66000Y-57000D01*
X67000Y-58000D02*
X68000Y-58000D01*
X67000Y-57000D02*
X68000Y-57000D01*
X68000Y-57000D02*
X68000Y-60000D01*
X68000Y-60000D02*
X67000Y-60000D01*
X67000Y-60000D02*
X67000Y-57000D01*
X68000Y-58000D02*
X69000Y-58000D01*
X68000Y-57000D02*
X69000Y-57000D01*
X69000Y-57000D02*
X69000Y-60000D01*
X69000Y-60000D02*
X68000Y-60000D01*
X68000Y-60000D02*
X68000Y-57000D01*
X65000Y-60000D02*
X65000Y-61000D01*
X65000Y-61000D02*
X69000Y-61000D01*
X69000Y-61000D02*
X69000Y-60000D01*
X69000Y-60000D02*
X65000Y-60000D01*
G54D10*
X69000Y-64000D02*
X65000Y-64000D01*
X65000Y-64000D02*
X65000Y-62000D01*
X65000Y-62000D02*
X69000Y-62000D01*
X69000Y-62000D02*
X69000Y-64000D01*
G54D24*
X64000Y-54000D02*
X64000Y-55000D01*
X64000Y-55000D02*
X70000Y-55000D01*
X70000Y-55000D02*
X70000Y-54000D01*
X70000Y-54000D02*
X64000Y-54000D01*
X53500Y-61500D02*
X54500Y-61500D01*
X54500Y-61500D02*
X54500Y-55500D01*
X54500Y-55500D02*
X53500Y-55500D01*
X53500Y-55500D02*
X53500Y-61500D01*
X64000Y-61000D02*
X64000Y-62000D01*
X64000Y-62000D02*
X70000Y-62000D01*
X70000Y-62000D02*
X70000Y-61000D01*
X70000Y-61000D02*
X64000Y-61000D01*
X62500Y-60500D02*
X59500Y-60500D01*
X59500Y-60500D02*
X59500Y-63000D01*
X59500Y-63000D02*
X60000Y-63500D01*
X60000Y-63500D02*
X62000Y-63500D01*
X62000Y-63500D02*
X62500Y-63000D01*
X62500Y-63000D02*
X62500Y-60500D01*
X55500Y-56500D02*
X58500Y-56500D01*
X58500Y-56500D02*
X58500Y-54000D01*
X58500Y-54000D02*
X58000Y-53500D01*
X58000Y-53500D02*
X56000Y-53500D01*
X56000Y-53500D02*
X55500Y-54000D01*
X55500Y-54000D02*
X55500Y-56500D01*
X55500Y-63500D02*
X58500Y-63500D01*
X58500Y-63500D02*
X58500Y-61000D01*
X58500Y-61000D02*
X58000Y-60500D01*
X58000Y-60500D02*
X56000Y-60500D01*
X56000Y-60500D02*
X55500Y-61000D01*
X55500Y-61000D02*
X55500Y-63500D01*
X62500Y-53500D02*
X59500Y-53500D01*
X59500Y-53500D02*
X59500Y-56000D01*
X59500Y-56000D02*
X60000Y-56500D01*
X60000Y-56500D02*
X62000Y-56500D01*
X62000Y-56500D02*
X62500Y-56000D01*
X62500Y-56000D02*
X62500Y-53500D01*
X62500Y-65500D02*
X59500Y-65500D01*
X59500Y-65500D02*
X59500Y-68000D01*
X59500Y-68000D02*
X60000Y-68500D01*
X60000Y-68500D02*
X62000Y-68500D01*
X62000Y-68500D02*
X62500Y-68000D01*
X62500Y-68000D02*
X62500Y-65500D01*
X55500Y-75500D02*
X58500Y-75500D01*
X58500Y-75500D02*
X58500Y-73000D01*
X58500Y-73000D02*
X58000Y-72500D01*
X58000Y-72500D02*
X56000Y-72500D01*
X56000Y-72500D02*
X55500Y-73000D01*
X55500Y-73000D02*
X55500Y-75500D01*
X55500Y-68500D02*
X58500Y-68500D01*
X58500Y-68500D02*
X58500Y-66000D01*
X58500Y-66000D02*
X58000Y-65500D01*
X58000Y-65500D02*
X56000Y-65500D01*
X56000Y-65500D02*
X55500Y-66000D01*
X55500Y-66000D02*
X55500Y-68500D01*
X62500Y-72500D02*
X59500Y-72500D01*
X59500Y-72500D02*
X59500Y-75000D01*
X59500Y-75000D02*
X60000Y-75500D01*
X60000Y-75500D02*
X62000Y-75500D01*
X62000Y-75500D02*
X62500Y-75000D01*
X62500Y-75000D02*
X62500Y-72500D01*
X64000Y-73000D02*
X64000Y-74000D01*
X64000Y-74000D02*
X70000Y-74000D01*
X70000Y-74000D02*
X70000Y-73000D01*
X70000Y-73000D02*
X64000Y-73000D01*
X53500Y-73500D02*
X54500Y-73500D01*
X54500Y-73500D02*
X54500Y-67500D01*
X54500Y-67500D02*
X53500Y-67500D01*
X53500Y-67500D02*
X53500Y-73500D01*
X64000Y-66000D02*
X64000Y-67000D01*
X64000Y-67000D02*
X70000Y-67000D01*
X70000Y-67000D02*
X70000Y-66000D01*
X70000Y-66000D02*
X64000Y-66000D01*
G54D10*
X69000Y-76000D02*
X65000Y-76000D01*
X65000Y-76000D02*
X65000Y-74000D01*
X65000Y-74000D02*
X69000Y-74000D01*
X69000Y-74000D02*
X69000Y-76000D01*
G54D24*
X65000Y-72000D02*
X65000Y-73000D01*
X65000Y-73000D02*
X69000Y-73000D01*
X69000Y-73000D02*
X69000Y-72000D01*
X69000Y-72000D02*
X65000Y-72000D01*
X68000Y-70000D02*
X69000Y-70000D01*
X68000Y-69000D02*
X69000Y-69000D01*
X69000Y-69000D02*
X69000Y-72000D01*
X69000Y-72000D02*
X68000Y-72000D01*
X68000Y-72000D02*
X68000Y-69000D01*
X67000Y-70000D02*
X68000Y-70000D01*
X67000Y-69000D02*
X68000Y-69000D01*
X68000Y-69000D02*
X68000Y-72000D01*
X68000Y-72000D02*
X67000Y-72000D01*
X67000Y-72000D02*
X67000Y-69000D01*
X66000Y-70000D02*
X67000Y-70000D01*
X66000Y-69000D02*
X67000Y-69000D01*
X67000Y-69000D02*
X67000Y-72000D01*
X67000Y-72000D02*
X66000Y-72000D01*
X66000Y-72000D02*
X66000Y-69000D01*
X65000Y-70000D02*
X66000Y-70000D01*
X65000Y-69000D02*
X66000Y-69000D01*
X66000Y-69000D02*
X66000Y-72000D01*
X66000Y-72000D02*
X65000Y-72000D01*
X65000Y-72000D02*
X65000Y-69000D01*
G54D10*
X69900Y-68900D02*
X67100Y-68900D01*
X67100Y-68900D02*
X67100Y-68100D01*
X67100Y-68100D02*
X69900Y-68100D01*
X69900Y-68100D02*
X69900Y-68900D01*
X69900Y-68700D02*
X69700Y-68900D01*
X64100Y-68100D02*
X66900Y-68100D01*
X66900Y-68100D02*
X66900Y-68900D01*
X66900Y-68900D02*
X64100Y-68900D01*
X64100Y-68900D02*
X64100Y-68100D01*
X64100Y-68300D02*
X64300Y-68100D01*
X69980Y-68000D02*
X68000Y-68000D01*
X68000Y-68000D02*
X68000Y-67000D01*
X68000Y-67000D02*
X70000Y-67000D01*
X70000Y-67000D02*
X70000Y-68000D01*
X70000Y-67750D02*
X69750Y-68000D01*
X64020Y-67000D02*
X66000Y-67000D01*
X66000Y-67000D02*
X66000Y-68000D01*
X66000Y-68000D02*
X64000Y-68000D01*
X64000Y-68000D02*
X64000Y-67000D01*
X64000Y-67250D02*
X64250Y-67000D01*
G54D24*
X63000Y-71500D02*
X55000Y-71500D01*
X55000Y-69500D02*
X63000Y-69500D01*
X63000Y-69500D02*
X63000Y-71500D01*
X63000Y-71000D02*
X62500Y-71000D01*
X62500Y-71000D02*
X62500Y-70000D01*
X62500Y-70000D02*
X63000Y-70000D01*
X55000Y-71500D02*
X55000Y-69500D01*
X33000Y-68500D02*
X41000Y-68500D01*
X41000Y-70500D02*
X33000Y-70500D01*
X33000Y-70500D02*
X33000Y-68500D01*
X33000Y-69000D02*
X33500Y-69000D01*
X33500Y-69000D02*
X33500Y-70000D01*
X33500Y-70000D02*
X33000Y-70000D01*
X41000Y-68500D02*
X41000Y-70500D01*
X49000Y-64000D02*
X49000Y-64000D01*
X49000Y-64000D02*
X49000Y-64500D01*
X49000Y-64500D02*
X48000Y-64500D01*
X48000Y-64500D02*
X48000Y-64000D01*
X49500Y-64000D02*
X49500Y-73000D01*
X49500Y-73000D02*
X47500Y-73000D01*
X47500Y-73000D02*
X47500Y-64000D01*
X47500Y-64000D02*
X49500Y-64000D01*
G54D10*
X31980Y-73000D02*
X30000Y-73000D01*
X30000Y-73000D02*
X30000Y-72000D01*
X30000Y-72000D02*
X32000Y-72000D01*
X32000Y-72000D02*
X32000Y-73000D01*
X32000Y-72750D02*
X31750Y-73000D01*
X26020Y-72000D02*
X28000Y-72000D01*
X28000Y-72000D02*
X28000Y-73000D01*
X28000Y-73000D02*
X26000Y-73000D01*
X26000Y-73000D02*
X26000Y-72000D01*
X26000Y-72250D02*
X26250Y-72000D01*
X31900Y-71900D02*
X29100Y-71900D01*
X29100Y-71900D02*
X29100Y-71100D01*
X29100Y-71100D02*
X31900Y-71100D01*
X31900Y-71100D02*
X31900Y-71900D01*
X31900Y-71700D02*
X31700Y-71900D01*
X26100Y-71100D02*
X28900Y-71100D01*
X28900Y-71100D02*
X28900Y-71900D01*
X28900Y-71900D02*
X26100Y-71900D01*
X26100Y-71900D02*
X26100Y-71100D01*
X26100Y-71300D02*
X26300Y-71100D01*
G54D24*
X31000Y-70000D02*
X30000Y-70000D01*
X31000Y-71000D02*
X30000Y-71000D01*
X30000Y-71000D02*
X30000Y-68000D01*
X30000Y-68000D02*
X31000Y-68000D01*
X31000Y-68000D02*
X31000Y-71000D01*
X30000Y-70000D02*
X29000Y-70000D01*
X30000Y-71000D02*
X29000Y-71000D01*
X29000Y-71000D02*
X29000Y-68000D01*
X29000Y-68000D02*
X30000Y-68000D01*
X30000Y-68000D02*
X30000Y-71000D01*
X29000Y-70000D02*
X28000Y-70000D01*
X29000Y-71000D02*
X28000Y-71000D01*
X28000Y-71000D02*
X28000Y-68000D01*
X28000Y-68000D02*
X29000Y-68000D01*
X29000Y-68000D02*
X29000Y-71000D01*
X28000Y-70000D02*
X27000Y-70000D01*
X28000Y-71000D02*
X27000Y-71000D01*
X27000Y-71000D02*
X27000Y-68000D01*
X27000Y-68000D02*
X28000Y-68000D01*
X28000Y-68000D02*
X28000Y-71000D01*
X31000Y-68000D02*
X31000Y-67000D01*
X31000Y-67000D02*
X27000Y-67000D01*
X27000Y-67000D02*
X27000Y-68000D01*
X27000Y-68000D02*
X31000Y-68000D01*
G54D10*
X27000Y-64000D02*
X31000Y-64000D01*
X31000Y-64000D02*
X31000Y-66000D01*
X31000Y-66000D02*
X27000Y-66000D01*
X27000Y-66000D02*
X27000Y-64000D01*
G54D24*
X32000Y-74000D02*
X32000Y-73000D01*
X32000Y-73000D02*
X26000Y-73000D01*
X26000Y-73000D02*
X26000Y-74000D01*
X26000Y-74000D02*
X32000Y-74000D01*
X42500Y-66500D02*
X41500Y-66500D01*
X41500Y-66500D02*
X41500Y-72500D01*
X41500Y-72500D02*
X42500Y-72500D01*
X42500Y-72500D02*
X42500Y-66500D01*
X32000Y-67000D02*
X32000Y-66000D01*
X32000Y-66000D02*
X26000Y-66000D01*
X26000Y-66000D02*
X26000Y-67000D01*
X26000Y-67000D02*
X32000Y-67000D01*
X33500Y-67500D02*
X36500Y-67500D01*
X36500Y-67500D02*
X36500Y-65000D01*
X36500Y-65000D02*
X36000Y-64500D01*
X36000Y-64500D02*
X34000Y-64500D01*
X34000Y-64500D02*
X33500Y-65000D01*
X33500Y-65000D02*
X33500Y-67500D01*
X40500Y-71500D02*
X37500Y-71500D01*
X37500Y-71500D02*
X37500Y-74000D01*
X37500Y-74000D02*
X38000Y-74500D01*
X38000Y-74500D02*
X40000Y-74500D01*
X40000Y-74500D02*
X40500Y-74000D01*
X40500Y-74000D02*
X40500Y-71500D01*
X40500Y-64500D02*
X37500Y-64500D01*
X37500Y-64500D02*
X37500Y-67000D01*
X37500Y-67000D02*
X38000Y-67500D01*
X38000Y-67500D02*
X40000Y-67500D01*
X40000Y-67500D02*
X40500Y-67000D01*
X40500Y-67000D02*
X40500Y-64500D01*
X33500Y-74500D02*
X36500Y-74500D01*
X36500Y-74500D02*
X36500Y-72000D01*
X36500Y-72000D02*
X36000Y-71500D01*
X36000Y-71500D02*
X34000Y-71500D01*
X34000Y-71500D02*
X33500Y-72000D01*
X33500Y-72000D02*
X33500Y-74500D01*
X33500Y-50500D02*
X36500Y-50500D01*
X36500Y-50500D02*
X36500Y-48000D01*
X36500Y-48000D02*
X36000Y-47500D01*
X36000Y-47500D02*
X34000Y-47500D01*
X34000Y-47500D02*
X33500Y-48000D01*
X33500Y-48000D02*
X33500Y-50500D01*
X40500Y-40500D02*
X37500Y-40500D01*
X37500Y-40500D02*
X37500Y-43000D01*
X37500Y-43000D02*
X38000Y-43500D01*
X38000Y-43500D02*
X40000Y-43500D01*
X40000Y-43500D02*
X40500Y-43000D01*
X40500Y-43000D02*
X40500Y-40500D01*
X40500Y-47500D02*
X37500Y-47500D01*
X37500Y-47500D02*
X37500Y-50000D01*
X37500Y-50000D02*
X38000Y-50500D01*
X38000Y-50500D02*
X40000Y-50500D01*
X40000Y-50500D02*
X40500Y-50000D01*
X40500Y-50000D02*
X40500Y-47500D01*
X33500Y-43500D02*
X36500Y-43500D01*
X36500Y-43500D02*
X36500Y-41000D01*
X36500Y-41000D02*
X36000Y-40500D01*
X36000Y-40500D02*
X34000Y-40500D01*
X34000Y-40500D02*
X33500Y-41000D01*
X33500Y-41000D02*
X33500Y-43500D01*
X32000Y-43000D02*
X32000Y-42000D01*
X32000Y-42000D02*
X26000Y-42000D01*
X26000Y-42000D02*
X26000Y-43000D01*
X26000Y-43000D02*
X32000Y-43000D01*
X42500Y-42500D02*
X41500Y-42500D01*
X41500Y-42500D02*
X41500Y-48500D01*
X41500Y-48500D02*
X42500Y-48500D01*
X42500Y-48500D02*
X42500Y-42500D01*
X32000Y-50000D02*
X32000Y-49000D01*
X32000Y-49000D02*
X26000Y-49000D01*
X26000Y-49000D02*
X26000Y-50000D01*
X26000Y-50000D02*
X32000Y-50000D01*
G54D10*
X27000Y-40000D02*
X31000Y-40000D01*
X31000Y-40000D02*
X31000Y-42000D01*
X31000Y-42000D02*
X27000Y-42000D01*
X27000Y-42000D02*
X27000Y-40000D01*
G54D24*
X31000Y-44000D02*
X31000Y-43000D01*
X31000Y-43000D02*
X27000Y-43000D01*
X27000Y-43000D02*
X27000Y-44000D01*
X27000Y-44000D02*
X31000Y-44000D01*
X28000Y-46000D02*
X27000Y-46000D01*
X28000Y-47000D02*
X27000Y-47000D01*
X27000Y-47000D02*
X27000Y-44000D01*
X27000Y-44000D02*
X28000Y-44000D01*
X28000Y-44000D02*
X28000Y-47000D01*
X29000Y-46000D02*
X28000Y-46000D01*
X29000Y-47000D02*
X28000Y-47000D01*
X28000Y-47000D02*
X28000Y-44000D01*
X28000Y-44000D02*
X29000Y-44000D01*
X29000Y-44000D02*
X29000Y-47000D01*
X30000Y-46000D02*
X29000Y-46000D01*
X30000Y-47000D02*
X29000Y-47000D01*
X29000Y-47000D02*
X29000Y-44000D01*
X29000Y-44000D02*
X30000Y-44000D01*
X30000Y-44000D02*
X30000Y-47000D01*
X31000Y-46000D02*
X30000Y-46000D01*
X31000Y-47000D02*
X30000Y-47000D01*
X30000Y-47000D02*
X30000Y-44000D01*
X30000Y-44000D02*
X31000Y-44000D01*
X31000Y-44000D02*
X31000Y-47000D01*
G54D10*
X26100Y-47100D02*
X28900Y-47100D01*
X28900Y-47100D02*
X28900Y-47900D01*
X28900Y-47900D02*
X26100Y-47900D01*
X26100Y-47900D02*
X26100Y-47100D01*
X26100Y-47300D02*
X26300Y-47100D01*
X31900Y-47900D02*
X29100Y-47900D01*
X29100Y-47900D02*
X29100Y-47100D01*
X29100Y-47100D02*
X31900Y-47100D01*
X31900Y-47100D02*
X31900Y-47900D01*
X31900Y-47700D02*
X31700Y-47900D01*
X26020Y-48000D02*
X28000Y-48000D01*
X28000Y-48000D02*
X28000Y-49000D01*
X28000Y-49000D02*
X26000Y-49000D01*
X26000Y-49000D02*
X26000Y-48000D01*
X26000Y-48250D02*
X26250Y-48000D01*
X31980Y-49000D02*
X30000Y-49000D01*
X30000Y-49000D02*
X30000Y-48000D01*
X30000Y-48000D02*
X32000Y-48000D01*
X32000Y-48000D02*
X32000Y-49000D01*
X32000Y-48750D02*
X31750Y-49000D01*
G54D24*
X49000Y-40000D02*
X49000Y-40000D01*
X49000Y-40000D02*
X49000Y-40500D01*
X49000Y-40500D02*
X48000Y-40500D01*
X48000Y-40500D02*
X48000Y-40000D01*
X49500Y-40000D02*
X49500Y-49000D01*
X49500Y-49000D02*
X47500Y-49000D01*
X47500Y-49000D02*
X47500Y-40000D01*
X47500Y-40000D02*
X49500Y-40000D01*
X33000Y-44500D02*
X41000Y-44500D01*
X41000Y-46500D02*
X33000Y-46500D01*
X33000Y-46500D02*
X33000Y-44500D01*
X33000Y-45000D02*
X33500Y-45000D01*
X33500Y-45000D02*
X33500Y-46000D01*
X33500Y-46000D02*
X33000Y-46000D01*
X41000Y-44500D02*
X41000Y-46500D01*
X63000Y-47500D02*
X55000Y-47500D01*
X55000Y-45500D02*
X63000Y-45500D01*
X63000Y-45500D02*
X63000Y-47500D01*
X63000Y-47000D02*
X62500Y-47000D01*
X62500Y-47000D02*
X62500Y-46000D01*
X62500Y-46000D02*
X63000Y-46000D01*
X55000Y-47500D02*
X55000Y-45500D01*
G54D10*
X64020Y-43000D02*
X66000Y-43000D01*
X66000Y-43000D02*
X66000Y-44000D01*
X66000Y-44000D02*
X64000Y-44000D01*
X64000Y-44000D02*
X64000Y-43000D01*
X64000Y-43250D02*
X64250Y-43000D01*
X69980Y-44000D02*
X68000Y-44000D01*
X68000Y-44000D02*
X68000Y-43000D01*
X68000Y-43000D02*
X70000Y-43000D01*
X70000Y-43000D02*
X70000Y-44000D01*
X70000Y-43750D02*
X69750Y-44000D01*
X64100Y-44100D02*
X66900Y-44100D01*
X66900Y-44100D02*
X66900Y-44900D01*
X66900Y-44900D02*
X64100Y-44900D01*
X64100Y-44900D02*
X64100Y-44100D01*
X64100Y-44300D02*
X64300Y-44100D01*
X69900Y-44900D02*
X67100Y-44900D01*
X67100Y-44900D02*
X67100Y-44100D01*
X67100Y-44100D02*
X69900Y-44100D01*
X69900Y-44100D02*
X69900Y-44900D01*
X69900Y-44700D02*
X69700Y-44900D01*
G54D24*
X65000Y-46000D02*
X66000Y-46000D01*
X65000Y-45000D02*
X66000Y-45000D01*
X66000Y-45000D02*
X66000Y-48000D01*
X66000Y-48000D02*
X65000Y-48000D01*
X65000Y-48000D02*
X65000Y-45000D01*
X66000Y-46000D02*
X67000Y-46000D01*
X66000Y-45000D02*
X67000Y-45000D01*
X67000Y-45000D02*
X67000Y-48000D01*
X67000Y-48000D02*
X66000Y-48000D01*
X66000Y-48000D02*
X66000Y-45000D01*
X67000Y-46000D02*
X68000Y-46000D01*
X67000Y-45000D02*
X68000Y-45000D01*
X68000Y-45000D02*
X68000Y-48000D01*
X68000Y-48000D02*
X67000Y-48000D01*
X67000Y-48000D02*
X67000Y-45000D01*
X68000Y-46000D02*
X69000Y-46000D01*
X68000Y-45000D02*
X69000Y-45000D01*
X69000Y-45000D02*
X69000Y-48000D01*
X69000Y-48000D02*
X68000Y-48000D01*
X68000Y-48000D02*
X68000Y-45000D01*
X65000Y-48000D02*
X65000Y-49000D01*
X65000Y-49000D02*
X69000Y-49000D01*
X69000Y-49000D02*
X69000Y-48000D01*
X69000Y-48000D02*
X65000Y-48000D01*
G54D10*
X69000Y-52000D02*
X65000Y-52000D01*
X65000Y-52000D02*
X65000Y-50000D01*
X65000Y-50000D02*
X69000Y-50000D01*
X69000Y-50000D02*
X69000Y-52000D01*
G54D24*
X64000Y-42000D02*
X64000Y-43000D01*
X64000Y-43000D02*
X70000Y-43000D01*
X70000Y-43000D02*
X70000Y-42000D01*
X70000Y-42000D02*
X64000Y-42000D01*
X53500Y-49500D02*
X54500Y-49500D01*
X54500Y-49500D02*
X54500Y-43500D01*
X54500Y-43500D02*
X53500Y-43500D01*
X53500Y-43500D02*
X53500Y-49500D01*
X64000Y-49000D02*
X64000Y-50000D01*
X64000Y-50000D02*
X70000Y-50000D01*
X70000Y-50000D02*
X70000Y-49000D01*
X70000Y-49000D02*
X64000Y-49000D01*
X62500Y-48500D02*
X59500Y-48500D01*
X59500Y-48500D02*
X59500Y-51000D01*
X59500Y-51000D02*
X60000Y-51500D01*
X60000Y-51500D02*
X62000Y-51500D01*
X62000Y-51500D02*
X62500Y-51000D01*
X62500Y-51000D02*
X62500Y-48500D01*
X55500Y-44500D02*
X58500Y-44500D01*
X58500Y-44500D02*
X58500Y-42000D01*
X58500Y-42000D02*
X58000Y-41500D01*
X58000Y-41500D02*
X56000Y-41500D01*
X56000Y-41500D02*
X55500Y-42000D01*
X55500Y-42000D02*
X55500Y-44500D01*
X55500Y-51500D02*
X58500Y-51500D01*
X58500Y-51500D02*
X58500Y-49000D01*
X58500Y-49000D02*
X58000Y-48500D01*
X58000Y-48500D02*
X56000Y-48500D01*
X56000Y-48500D02*
X55500Y-49000D01*
X55500Y-49000D02*
X55500Y-51500D01*
X62500Y-41500D02*
X59500Y-41500D01*
X59500Y-41500D02*
X59500Y-44000D01*
X59500Y-44000D02*
X60000Y-44500D01*
X60000Y-44500D02*
X62000Y-44500D01*
X62000Y-44500D02*
X62500Y-44000D01*
X62500Y-44000D02*
X62500Y-41500D01*
X62500Y-29500D02*
X59500Y-29500D01*
X59500Y-29500D02*
X59500Y-32000D01*
X59500Y-32000D02*
X60000Y-32500D01*
X60000Y-32500D02*
X62000Y-32500D01*
X62000Y-32500D02*
X62500Y-32000D01*
X62500Y-32000D02*
X62500Y-29500D01*
X55500Y-39500D02*
X58500Y-39500D01*
X58500Y-39500D02*
X58500Y-37000D01*
X58500Y-37000D02*
X58000Y-36500D01*
X58000Y-36500D02*
X56000Y-36500D01*
X56000Y-36500D02*
X55500Y-37000D01*
X55500Y-37000D02*
X55500Y-39500D01*
X55500Y-32500D02*
X58500Y-32500D01*
X58500Y-32500D02*
X58500Y-30000D01*
X58500Y-30000D02*
X58000Y-29500D01*
X58000Y-29500D02*
X56000Y-29500D01*
X56000Y-29500D02*
X55500Y-30000D01*
X55500Y-30000D02*
X55500Y-32500D01*
X62500Y-36500D02*
X59500Y-36500D01*
X59500Y-36500D02*
X59500Y-39000D01*
X59500Y-39000D02*
X60000Y-39500D01*
X60000Y-39500D02*
X62000Y-39500D01*
X62000Y-39500D02*
X62500Y-39000D01*
X62500Y-39000D02*
X62500Y-36500D01*
X64000Y-37000D02*
X64000Y-38000D01*
X64000Y-38000D02*
X70000Y-38000D01*
X70000Y-38000D02*
X70000Y-37000D01*
X70000Y-37000D02*
X64000Y-37000D01*
X53500Y-37500D02*
X54500Y-37500D01*
X54500Y-37500D02*
X54500Y-31500D01*
X54500Y-31500D02*
X53500Y-31500D01*
X53500Y-31500D02*
X53500Y-37500D01*
X64000Y-30000D02*
X64000Y-31000D01*
X64000Y-31000D02*
X70000Y-31000D01*
X70000Y-31000D02*
X70000Y-30000D01*
X70000Y-30000D02*
X64000Y-30000D01*
G54D10*
X69000Y-40000D02*
X65000Y-40000D01*
X65000Y-40000D02*
X65000Y-38000D01*
X65000Y-38000D02*
X69000Y-38000D01*
X69000Y-38000D02*
X69000Y-40000D01*
G54D24*
X65000Y-36000D02*
X65000Y-37000D01*
X65000Y-37000D02*
X69000Y-37000D01*
X69000Y-37000D02*
X69000Y-36000D01*
X69000Y-36000D02*
X65000Y-36000D01*
X68000Y-34000D02*
X69000Y-34000D01*
X68000Y-33000D02*
X69000Y-33000D01*
X69000Y-33000D02*
X69000Y-36000D01*
X69000Y-36000D02*
X68000Y-36000D01*
X68000Y-36000D02*
X68000Y-33000D01*
X67000Y-34000D02*
X68000Y-34000D01*
X67000Y-33000D02*
X68000Y-33000D01*
X68000Y-33000D02*
X68000Y-36000D01*
X68000Y-36000D02*
X67000Y-36000D01*
X67000Y-36000D02*
X67000Y-33000D01*
X66000Y-34000D02*
X67000Y-34000D01*
X66000Y-33000D02*
X67000Y-33000D01*
X67000Y-33000D02*
X67000Y-36000D01*
X67000Y-36000D02*
X66000Y-36000D01*
X66000Y-36000D02*
X66000Y-33000D01*
X65000Y-34000D02*
X66000Y-34000D01*
X65000Y-33000D02*
X66000Y-33000D01*
X66000Y-33000D02*
X66000Y-36000D01*
X66000Y-36000D02*
X65000Y-36000D01*
X65000Y-36000D02*
X65000Y-33000D01*
G54D10*
X69900Y-32900D02*
X67100Y-32900D01*
X67100Y-32900D02*
X67100Y-32100D01*
X67100Y-32100D02*
X69900Y-32100D01*
X69900Y-32100D02*
X69900Y-32900D01*
X69900Y-32700D02*
X69700Y-32900D01*
X64100Y-32100D02*
X66900Y-32100D01*
X66900Y-32100D02*
X66900Y-32900D01*
X66900Y-32900D02*
X64100Y-32900D01*
X64100Y-32900D02*
X64100Y-32100D01*
X64100Y-32300D02*
X64300Y-32100D01*
X69980Y-32000D02*
X68000Y-32000D01*
X68000Y-32000D02*
X68000Y-31000D01*
X68000Y-31000D02*
X70000Y-31000D01*
X70000Y-31000D02*
X70000Y-32000D01*
X70000Y-31750D02*
X69750Y-32000D01*
X64020Y-31000D02*
X66000Y-31000D01*
X66000Y-31000D02*
X66000Y-32000D01*
X66000Y-32000D02*
X64000Y-32000D01*
X64000Y-32000D02*
X64000Y-31000D01*
X64000Y-31250D02*
X64250Y-31000D01*
G54D24*
X63000Y-35500D02*
X55000Y-35500D01*
X55000Y-33500D02*
X63000Y-33500D01*
X63000Y-33500D02*
X63000Y-35500D01*
X63000Y-35000D02*
X62500Y-35000D01*
X62500Y-35000D02*
X62500Y-34000D01*
X62500Y-34000D02*
X63000Y-34000D01*
X55000Y-35500D02*
X55000Y-33500D01*
X33000Y-32500D02*
X41000Y-32500D01*
X41000Y-34500D02*
X33000Y-34500D01*
X33000Y-34500D02*
X33000Y-32500D01*
X33000Y-33000D02*
X33500Y-33000D01*
X33500Y-33000D02*
X33500Y-34000D01*
X33500Y-34000D02*
X33000Y-34000D01*
X41000Y-32500D02*
X41000Y-34500D01*
X72000Y-26000D02*
X64000Y-26000D01*
X64000Y-24000D02*
X72000Y-24000D01*
X72000Y-24000D02*
X72000Y-26000D01*
X72000Y-25500D02*
X71500Y-25500D01*
X71500Y-25500D02*
X71500Y-24500D01*
X71500Y-24500D02*
X72000Y-24500D01*
X64000Y-26000D02*
X64000Y-24000D01*
X35500Y-13000D02*
X35500Y-13000D01*
X35500Y-13000D02*
X35500Y-13500D01*
X35500Y-13500D02*
X34500Y-13500D01*
X34500Y-13500D02*
X34500Y-13000D01*
X36000Y-13000D02*
X36000Y-22000D01*
X36000Y-22000D02*
X34000Y-22000D01*
X34000Y-22000D02*
X34000Y-13000D01*
X34000Y-13000D02*
X36000Y-13000D01*
X49000Y-28000D02*
X49000Y-28000D01*
X49000Y-28000D02*
X49000Y-28500D01*
X49000Y-28500D02*
X48000Y-28500D01*
X48000Y-28500D02*
X48000Y-28000D01*
X49500Y-28000D02*
X49500Y-37000D01*
X49500Y-37000D02*
X47500Y-37000D01*
X47500Y-37000D02*
X47500Y-28000D01*
X47500Y-28000D02*
X49500Y-28000D01*
G54D10*
X31980Y-37000D02*
X30000Y-37000D01*
X30000Y-37000D02*
X30000Y-36000D01*
X30000Y-36000D02*
X32000Y-36000D01*
X32000Y-36000D02*
X32000Y-37000D01*
X32000Y-36750D02*
X31750Y-37000D01*
X26020Y-36000D02*
X28000Y-36000D01*
X28000Y-36000D02*
X28000Y-37000D01*
X28000Y-37000D02*
X26000Y-37000D01*
X26000Y-37000D02*
X26000Y-36000D01*
X26000Y-36250D02*
X26250Y-36000D01*
X31900Y-35900D02*
X29100Y-35900D01*
X29100Y-35900D02*
X29100Y-35100D01*
X29100Y-35100D02*
X31900Y-35100D01*
X31900Y-35100D02*
X31900Y-35900D01*
X31900Y-35700D02*
X31700Y-35900D01*
X26100Y-35100D02*
X28900Y-35100D01*
X28900Y-35100D02*
X28900Y-35900D01*
X28900Y-35900D02*
X26100Y-35900D01*
X26100Y-35900D02*
X26100Y-35100D01*
X26100Y-35300D02*
X26300Y-35100D01*
G54D24*
X31000Y-34000D02*
X30000Y-34000D01*
X31000Y-35000D02*
X30000Y-35000D01*
X30000Y-35000D02*
X30000Y-32000D01*
X30000Y-32000D02*
X31000Y-32000D01*
X31000Y-32000D02*
X31000Y-35000D01*
X30000Y-34000D02*
X29000Y-34000D01*
X30000Y-35000D02*
X29000Y-35000D01*
X29000Y-35000D02*
X29000Y-32000D01*
X29000Y-32000D02*
X30000Y-32000D01*
X30000Y-32000D02*
X30000Y-35000D01*
X29000Y-34000D02*
X28000Y-34000D01*
X29000Y-35000D02*
X28000Y-35000D01*
X28000Y-35000D02*
X28000Y-32000D01*
X28000Y-32000D02*
X29000Y-32000D01*
X29000Y-32000D02*
X29000Y-35000D01*
X28000Y-34000D02*
X27000Y-34000D01*
X28000Y-35000D02*
X27000Y-35000D01*
X27000Y-35000D02*
X27000Y-32000D01*
X27000Y-32000D02*
X28000Y-32000D01*
X28000Y-32000D02*
X28000Y-35000D01*
X71000Y-18000D02*
X72000Y-18000D01*
X71000Y-17000D02*
X72000Y-17000D01*
X72000Y-17000D02*
X72000Y-20000D01*
X72000Y-20000D02*
X71000Y-20000D01*
X71000Y-20000D02*
X71000Y-17000D01*
X64000Y-18000D02*
X65000Y-18000D01*
X64000Y-17000D02*
X65000Y-17000D01*
X65000Y-17000D02*
X65000Y-20000D01*
X65000Y-20000D02*
X64000Y-20000D01*
X64000Y-20000D02*
X64000Y-17000D01*
X65500Y-18000D02*
X66500Y-18000D01*
X65500Y-17000D02*
X66500Y-17000D01*
X66500Y-17000D02*
X66500Y-20000D01*
X66500Y-20000D02*
X65500Y-20000D01*
X65500Y-20000D02*
X65500Y-17000D01*
X69500Y-18000D02*
X70500Y-18000D01*
X69500Y-17000D02*
X70500Y-17000D01*
X70500Y-17000D02*
X70500Y-20000D01*
X70500Y-20000D02*
X69500Y-20000D01*
X69500Y-20000D02*
X69500Y-17000D01*
X30500Y-25500D02*
X31500Y-25500D01*
X31500Y-25500D02*
X31500Y-15500D01*
X31500Y-15500D02*
X30500Y-15500D01*
X30500Y-15500D02*
X30500Y-25500D01*
G54D25*
X40500Y-17500D02*
X41500Y-17500D01*
X41500Y-17500D02*
X41500Y-20500D01*
X41500Y-20500D02*
X40500Y-20500D01*
X40500Y-20500D02*
X40500Y-17500D01*
X41500Y-18500D02*
X40500Y-18500D01*
G54D24*
X31000Y-32000D02*
X31000Y-31000D01*
X31000Y-31000D02*
X27000Y-31000D01*
X27000Y-31000D02*
X27000Y-32000D01*
X27000Y-32000D02*
X31000Y-32000D01*
X59500Y-27000D02*
X60500Y-27000D01*
X60500Y-27000D02*
X60500Y-23000D01*
X60500Y-23000D02*
X59500Y-23000D01*
X59500Y-23000D02*
X59500Y-27000D01*
G54D10*
X27000Y-28000D02*
X31000Y-28000D01*
X31000Y-28000D02*
X31000Y-30000D01*
X31000Y-30000D02*
X27000Y-30000D01*
X27000Y-30000D02*
X27000Y-28000D01*
G54D24*
X62500Y-28000D02*
X63500Y-28000D01*
X63500Y-28000D02*
X63500Y-22000D01*
X63500Y-22000D02*
X62500Y-22000D01*
X62500Y-22000D02*
X62500Y-28000D01*
X32000Y-38000D02*
X32000Y-37000D01*
X32000Y-37000D02*
X26000Y-37000D01*
X26000Y-37000D02*
X26000Y-38000D01*
X26000Y-38000D02*
X32000Y-38000D01*
X42500Y-30500D02*
X41500Y-30500D01*
X41500Y-30500D02*
X41500Y-36500D01*
X41500Y-36500D02*
X42500Y-36500D01*
X42500Y-36500D02*
X42500Y-30500D01*
X32000Y-31000D02*
X32000Y-30000D01*
X32000Y-30000D02*
X26000Y-30000D01*
X26000Y-30000D02*
X26000Y-31000D01*
X26000Y-31000D02*
X32000Y-31000D01*
X72500Y-51500D02*
X71500Y-51500D01*
X71500Y-51500D02*
X71500Y-57500D01*
X71500Y-57500D02*
X72500Y-57500D01*
X72500Y-57500D02*
X72500Y-51500D01*
X72500Y-57500D02*
X71500Y-57500D01*
X71500Y-57500D02*
X71500Y-63500D01*
X71500Y-63500D02*
X72500Y-63500D01*
X72500Y-63500D02*
X72500Y-57500D01*
X72500Y-63500D02*
X71500Y-63500D01*
X71500Y-63500D02*
X71500Y-69500D01*
X71500Y-69500D02*
X72500Y-69500D01*
X72500Y-69500D02*
X72500Y-63500D01*
X72500Y-69500D02*
X71500Y-69500D01*
X71500Y-69500D02*
X71500Y-75500D01*
X71500Y-75500D02*
X72500Y-75500D01*
X72500Y-75500D02*
X72500Y-69500D01*
X23500Y-51500D02*
X24500Y-51500D01*
X24500Y-51500D02*
X24500Y-45500D01*
X24500Y-45500D02*
X23500Y-45500D01*
X23500Y-45500D02*
X23500Y-51500D01*
X23500Y-45500D02*
X24500Y-45500D01*
X24500Y-45500D02*
X24500Y-39500D01*
X24500Y-39500D02*
X23500Y-39500D01*
X23500Y-39500D02*
X23500Y-45500D01*
X23500Y-39500D02*
X24500Y-39500D01*
X24500Y-39500D02*
X24500Y-33500D01*
X24500Y-33500D02*
X23500Y-33500D01*
X23500Y-33500D02*
X23500Y-39500D01*
X23500Y-33500D02*
X24500Y-33500D01*
X24500Y-33500D02*
X24500Y-27500D01*
X24500Y-27500D02*
X23500Y-27500D01*
X23500Y-27500D02*
X23500Y-33500D01*
X23500Y-75500D02*
X24500Y-75500D01*
X24500Y-75500D02*
X24500Y-69500D01*
X24500Y-69500D02*
X23500Y-69500D01*
X23500Y-69500D02*
X23500Y-75500D01*
X23500Y-69500D02*
X24500Y-69500D01*
X24500Y-69500D02*
X24500Y-63500D01*
X24500Y-63500D02*
X23500Y-63500D01*
X23500Y-63500D02*
X23500Y-69500D01*
X23500Y-63500D02*
X24500Y-63500D01*
X24500Y-63500D02*
X24500Y-57500D01*
X24500Y-57500D02*
X23500Y-57500D01*
X23500Y-57500D02*
X23500Y-63500D01*
X23500Y-57500D02*
X24500Y-57500D01*
X24500Y-57500D02*
X24500Y-51500D01*
X24500Y-51500D02*
X23500Y-51500D01*
X23500Y-51500D02*
X23500Y-57500D01*
X72500Y-27500D02*
X71500Y-27500D01*
X71500Y-27500D02*
X71500Y-33500D01*
X71500Y-33500D02*
X72500Y-33500D01*
X72500Y-33500D02*
X72500Y-27500D01*
X72500Y-33500D02*
X71500Y-33500D01*
X71500Y-33500D02*
X71500Y-39500D01*
X71500Y-39500D02*
X72500Y-39500D01*
X72500Y-39500D02*
X72500Y-33500D01*
X72500Y-39500D02*
X71500Y-39500D01*
X71500Y-39500D02*
X71500Y-45500D01*
X71500Y-45500D02*
X72500Y-45500D01*
X72500Y-45500D02*
X72500Y-39500D01*
X72500Y-45500D02*
X71500Y-45500D01*
X71500Y-45500D02*
X71500Y-51500D01*
X71500Y-51500D02*
X72500Y-51500D01*
X72500Y-51500D02*
X72500Y-45500D01*
X29500Y-24500D02*
X28500Y-24500D01*
X28500Y-24500D02*
X28500Y-16500D01*
X28500Y-16500D02*
X29500Y-16500D01*
X29500Y-16500D02*
X29500Y-24500D01*
X33500Y-31500D02*
X36500Y-31500D01*
X36500Y-31500D02*
X36500Y-29000D01*
X36500Y-29000D02*
X36000Y-28500D01*
X36000Y-28500D02*
X34000Y-28500D01*
X34000Y-28500D02*
X33500Y-29000D01*
X33500Y-29000D02*
X33500Y-31500D01*
X40500Y-35500D02*
X37500Y-35500D01*
X37500Y-35500D02*
X37500Y-38000D01*
X37500Y-38000D02*
X38000Y-38500D01*
X38000Y-38500D02*
X40000Y-38500D01*
X40000Y-38500D02*
X40500Y-38000D01*
X40500Y-38000D02*
X40500Y-35500D01*
X40500Y-28500D02*
X37500Y-28500D01*
X37500Y-28500D02*
X37500Y-31000D01*
X37500Y-31000D02*
X38000Y-31500D01*
X38000Y-31500D02*
X40000Y-31500D01*
X40000Y-31500D02*
X40500Y-31000D01*
X40500Y-31000D02*
X40500Y-28500D01*
X33500Y-38500D02*
X36500Y-38500D01*
X36500Y-38500D02*
X36500Y-36000D01*
X36500Y-36000D02*
X36000Y-35500D01*
X36000Y-35500D02*
X34000Y-35500D01*
X34000Y-35500D02*
X33500Y-36000D01*
X33500Y-36000D02*
X33500Y-38500D01*
G54D25*
X40500Y-12500D02*
X41500Y-12500D01*
X41500Y-12500D02*
X41500Y-14500D01*
X41500Y-14500D02*
X40500Y-14500D01*
X40500Y-14500D02*
X40500Y-12500D01*
X59500Y-17000D02*
X60500Y-17000D01*
X60500Y-17000D02*
X60500Y-20000D01*
X60500Y-20000D02*
X59500Y-20000D01*
X59500Y-20000D02*
X59500Y-17000D01*
X60500Y-18000D02*
X59500Y-18000D01*
G54D10*
X40500Y-27000D02*
X41500Y-27000D01*
X41500Y-22000D02*
X40500Y-22000D01*
X40500Y-27000D02*
X40500Y-22000D01*
X41500Y-22000D02*
X41500Y-27000D01*
G54D24*
X50000Y-75500D02*
X49933Y-75750D01*
X49933Y-75750D02*
X49750Y-75933D01*
X49750Y-75933D02*
X49500Y-76000D01*
X49500Y-76000D02*
X49250Y-75933D01*
X49250Y-75933D02*
X49067Y-75750D01*
X49067Y-75750D02*
X49000Y-75500D01*
X49000Y-75500D02*
X49067Y-75250D01*
X49067Y-75250D02*
X49250Y-75067D01*
X49250Y-75067D02*
X49500Y-75000D01*
X49500Y-75000D02*
X49750Y-75067D01*
X49750Y-75067D02*
X49933Y-75250D01*
X49933Y-75250D02*
X50000Y-75500D01*
M02*
