G04 (created by PCBNEW (2014-01-10 BZR 4027)-stable) date Thursday, November 27, 2014 'pmt' 01:46:01 pm*
%MOIN*%
G04 Gerber Fmt 3.4, Leading zero omitted, Abs format*
%FSLAX34Y34*%
G01*
G70*
G90*
G04 APERTURE LIST*
%ADD10C,0.00393701*%
%ADD11C,0.00590551*%
G04 APERTURE END LIST*
G54D10*
G54D11*
X82750Y-26250D02*
X82750Y-25750D01*
X82250Y-26250D02*
X82250Y-25750D01*
X82750Y-23750D02*
X82750Y-23250D01*
X82250Y-23750D02*
X82250Y-23250D01*
X82750Y-25750D02*
G75*
G03X82500Y-25500I-250J0D01*
G74*
G01*
X82500Y-25500D02*
G75*
G03X82250Y-25750I0J-250D01*
G74*
G01*
X82500Y-24000D02*
G75*
G03X82750Y-23750I0J250D01*
G74*
G01*
X82250Y-23750D02*
G75*
G03X82500Y-24000I250J0D01*
G74*
G01*
X86750Y-39500D02*
X86750Y-40500D01*
X86250Y-40750D02*
X86500Y-40750D01*
X86500Y-40750D02*
G75*
G03X86750Y-40500I0J250D01*
G74*
G01*
X86750Y-37500D02*
X86750Y-33000D01*
X87500Y-26750D02*
X83250Y-26750D01*
X89750Y-26500D02*
X89750Y-26250D01*
X87750Y-27000D02*
G75*
G03X87500Y-26750I-250J0D01*
G74*
G01*
X87500Y-27250D02*
G75*
G03X87750Y-27000I0J250D01*
G74*
G01*
X89500Y-26750D02*
G75*
G03X89750Y-26500I0J250D01*
G74*
G01*
X89500Y-26750D02*
G75*
G03X89250Y-27000I0J-250D01*
G74*
G01*
X89250Y-27000D02*
G75*
G03X89500Y-27250I250J0D01*
G74*
G01*
X78750Y-28750D02*
X78750Y-27750D01*
X78250Y-28750D02*
X78250Y-27750D01*
X78750Y-31750D02*
X78750Y-30750D01*
X78250Y-31750D02*
X78250Y-30750D01*
X78500Y-29000D02*
G75*
G03X78750Y-28750I0J250D01*
G74*
G01*
X78250Y-28750D02*
G75*
G03X78500Y-29000I250J0D01*
G74*
G01*
X78750Y-30750D02*
G75*
G03X78500Y-30500I-250J0D01*
G74*
G01*
X78500Y-30500D02*
G75*
G03X78250Y-30750I0J-250D01*
G74*
G01*
X86750Y-28750D02*
X86750Y-27750D01*
X86750Y-31750D02*
X86750Y-30750D01*
X87250Y-32000D02*
X87250Y-30750D01*
X87250Y-28750D02*
X87250Y-27500D01*
X87000Y-29000D02*
G75*
G03X87250Y-28750I0J250D01*
G74*
G01*
X86750Y-28750D02*
G75*
G03X87000Y-29000I250J0D01*
G74*
G01*
X87250Y-30750D02*
G75*
G03X87000Y-30500I-250J0D01*
G74*
G01*
X87000Y-30500D02*
G75*
G03X86750Y-30750I0J-250D01*
G74*
G01*
X87250Y-37500D02*
X87250Y-33000D01*
X87250Y-40500D02*
X87250Y-39500D01*
X87000Y-37750D02*
G75*
G03X87250Y-37500I0J250D01*
G74*
G01*
X86750Y-37500D02*
G75*
G03X87000Y-37750I250J0D01*
G74*
G01*
X87000Y-39250D02*
G75*
G03X86750Y-39500I0J-250D01*
G74*
G01*
X87250Y-39500D02*
G75*
G03X87000Y-39250I-250J0D01*
G74*
G01*
X89500Y-40750D02*
X87500Y-40750D01*
X89750Y-33000D02*
X89750Y-40500D01*
X87250Y-40500D02*
G75*
G03X87500Y-40750I250J0D01*
G74*
G01*
X89500Y-40750D02*
G75*
G03X89750Y-40500I0J250D01*
G74*
G01*
X89750Y-27500D02*
X89750Y-32000D01*
X87500Y-27250D02*
G75*
G03X87250Y-27500I0J-250D01*
G74*
G01*
X89750Y-27500D02*
G75*
G03X89500Y-27250I-250J0D01*
G74*
G01*
X87250Y-32000D02*
G75*
G03X87500Y-32250I250J0D01*
G74*
G01*
X87750Y-32500D02*
G75*
G03X87500Y-32250I-250J0D01*
G74*
G01*
X87500Y-32750D02*
G75*
G03X87750Y-32500I0J250D01*
G74*
G01*
X87500Y-32750D02*
G75*
G03X87250Y-33000I0J-250D01*
G74*
G01*
X89500Y-32250D02*
G75*
G03X89750Y-32000I0J250D01*
G74*
G01*
X89500Y-32250D02*
G75*
G03X89250Y-32500I0J-250D01*
G74*
G01*
X89750Y-33000D02*
G75*
G03X89500Y-32750I-250J0D01*
G74*
G01*
X89250Y-32500D02*
G75*
G03X89500Y-32750I250J0D01*
G74*
G01*
G54D10*
X70550Y-32750D02*
X86450Y-32750D01*
X86350Y-40750D02*
X70550Y-40750D01*
X70250Y-33050D02*
X70250Y-40450D01*
X70550Y-32750D02*
G75*
G03X70250Y-33050I0J-300D01*
G74*
G01*
X70250Y-40450D02*
G75*
G03X70550Y-40750I300J0D01*
G74*
G01*
X86750Y-33050D02*
G75*
G03X86450Y-32750I-300J0D01*
G74*
G01*
X83265Y-22735D02*
X89265Y-22735D01*
X89765Y-23235D02*
X89765Y-26235D01*
X82765Y-26235D02*
G75*
G03X83265Y-26735I500J0D01*
G74*
G01*
X89765Y-23235D02*
G75*
G03X89265Y-22735I-500J0D01*
G74*
G01*
X83265Y-22735D02*
G75*
G03X82765Y-23235I0J-500D01*
G74*
G01*
X79250Y-27255D02*
X86250Y-27255D01*
X86250Y-32255D02*
X79250Y-32255D01*
X86250Y-32255D02*
G75*
G03X86750Y-31755I0J500D01*
G74*
G01*
X86750Y-27755D02*
G75*
G03X86250Y-27255I-500J0D01*
G74*
G01*
X79250Y-27255D02*
G75*
G03X78750Y-27755I0J-500D01*
G74*
G01*
X78750Y-31755D02*
G75*
G03X79250Y-32255I500J0D01*
G74*
G01*
X78250Y-27750D02*
G75*
G03X77750Y-27250I-500J0D01*
G74*
G01*
X77750Y-32250D02*
G75*
G03X78250Y-31750I0J500D01*
G74*
G01*
X70250Y-31750D02*
G75*
G03X70750Y-32250I500J0D01*
G74*
G01*
X70750Y-27250D02*
G75*
G03X70250Y-27750I0J-500D01*
G74*
G01*
X70750Y-27250D02*
X77750Y-27250D01*
X70250Y-31750D02*
X70250Y-27750D01*
X70750Y-32250D02*
X77750Y-32250D01*
G54D11*
X72750Y-26750D02*
X81750Y-26750D01*
X72250Y-23250D02*
X72250Y-26250D01*
X81750Y-22750D02*
X72750Y-22750D01*
X72750Y-22750D02*
G75*
G03X72250Y-23250I0J-500D01*
G74*
G01*
X72250Y-26250D02*
G75*
G03X72750Y-26750I500J0D01*
G74*
G01*
X81750Y-26750D02*
G75*
G03X82250Y-26250I0J500D01*
G74*
G01*
X82250Y-23250D02*
G75*
G03X81750Y-22750I-500J0D01*
G74*
G01*
M02*
