G04 (created by PCBNEW (2014-01-10 BZR 4027)-stable) date Thursday, November 27, 2014 'pmt' 01:46:01 pm*
%MOIN*%
G04 Gerber Fmt 3.4, Leading zero omitted, Abs format*
%FSLAX34Y34*%
G01*
G70*
G90*
G04 APERTURE LIST*
%ADD10C,0.00393701*%
%ADD11C,0.005*%
%ADD12C,0.00590551*%
%ADD13C,0.011811*%
%ADD14C,0.012*%
%ADD15C,0.0045*%
G04 APERTURE END LIST*
G54D10*
G54D11*
X71902Y-38040D02*
X71921Y-38030D01*
X71950Y-38030D01*
X71978Y-38040D01*
X71997Y-38059D01*
X72007Y-38078D01*
X72016Y-38116D01*
X72016Y-38145D01*
X72007Y-38183D01*
X71997Y-38202D01*
X71978Y-38221D01*
X71950Y-38230D01*
X71930Y-38230D01*
X71902Y-38221D01*
X71892Y-38211D01*
X71892Y-38145D01*
X71930Y-38145D01*
X71807Y-38230D02*
X71807Y-38030D01*
X71692Y-38230D01*
X71692Y-38030D01*
X71597Y-38230D02*
X71597Y-38030D01*
X71550Y-38030D01*
X71521Y-38040D01*
X71502Y-38059D01*
X71492Y-38078D01*
X71483Y-38116D01*
X71483Y-38145D01*
X71492Y-38183D01*
X71502Y-38202D01*
X71521Y-38221D01*
X71550Y-38230D01*
X71597Y-38230D01*
X71926Y-37230D02*
X71926Y-37030D01*
X71878Y-37030D01*
X71850Y-37040D01*
X71830Y-37059D01*
X71821Y-37078D01*
X71811Y-37116D01*
X71811Y-37145D01*
X71821Y-37183D01*
X71830Y-37202D01*
X71850Y-37221D01*
X71878Y-37230D01*
X71926Y-37230D01*
X71726Y-37154D02*
X71573Y-37154D01*
X71650Y-37230D02*
X71650Y-37078D01*
X71926Y-36230D02*
X71926Y-36030D01*
X71878Y-36030D01*
X71850Y-36040D01*
X71830Y-36059D01*
X71821Y-36078D01*
X71811Y-36116D01*
X71811Y-36145D01*
X71821Y-36183D01*
X71830Y-36202D01*
X71850Y-36221D01*
X71878Y-36230D01*
X71926Y-36230D01*
X71726Y-36154D02*
X71573Y-36154D01*
X73230Y-35030D02*
X73164Y-35230D01*
X73097Y-35030D01*
X73030Y-35030D02*
X73030Y-35192D01*
X73021Y-35211D01*
X73011Y-35221D01*
X72992Y-35230D01*
X72954Y-35230D01*
X72935Y-35221D01*
X72926Y-35211D01*
X72916Y-35192D01*
X72916Y-35030D01*
X72830Y-35221D02*
X72802Y-35230D01*
X72754Y-35230D01*
X72735Y-35221D01*
X72726Y-35211D01*
X72716Y-35192D01*
X72716Y-35173D01*
X72726Y-35154D01*
X72735Y-35145D01*
X72754Y-35135D01*
X72792Y-35126D01*
X72811Y-35116D01*
X72821Y-35107D01*
X72830Y-35088D01*
X72830Y-35069D01*
X72821Y-35050D01*
X72811Y-35040D01*
X72792Y-35030D01*
X72745Y-35030D01*
X72716Y-35040D01*
X72564Y-35126D02*
X72535Y-35135D01*
X72526Y-35145D01*
X72516Y-35164D01*
X72516Y-35192D01*
X72526Y-35211D01*
X72535Y-35221D01*
X72554Y-35230D01*
X72630Y-35230D01*
X72630Y-35030D01*
X72564Y-35030D01*
X72545Y-35040D01*
X72535Y-35050D01*
X72526Y-35069D01*
X72526Y-35088D01*
X72535Y-35107D01*
X72545Y-35116D01*
X72564Y-35126D01*
X72630Y-35126D01*
X72221Y-35307D02*
X72230Y-35297D01*
X72250Y-35269D01*
X72259Y-35250D01*
X72269Y-35221D01*
X72278Y-35173D01*
X72278Y-35135D01*
X72269Y-35088D01*
X72259Y-35059D01*
X72250Y-35040D01*
X72230Y-35011D01*
X72221Y-35002D01*
X72145Y-35154D02*
X71992Y-35154D01*
X72069Y-35230D02*
X72069Y-35078D01*
X71802Y-35030D02*
X71897Y-35030D01*
X71907Y-35126D01*
X71897Y-35116D01*
X71878Y-35107D01*
X71830Y-35107D01*
X71811Y-35116D01*
X71802Y-35126D01*
X71792Y-35145D01*
X71792Y-35192D01*
X71802Y-35211D01*
X71811Y-35221D01*
X71830Y-35230D01*
X71878Y-35230D01*
X71897Y-35221D01*
X71907Y-35211D01*
X71735Y-35030D02*
X71669Y-35230D01*
X71602Y-35030D01*
X71554Y-35307D02*
X71545Y-35297D01*
X71526Y-35269D01*
X71516Y-35250D01*
X71507Y-35221D01*
X71497Y-35173D01*
X71497Y-35135D01*
X71507Y-35088D01*
X71516Y-35059D01*
X71526Y-35040D01*
X71545Y-35011D01*
X71554Y-35002D01*
X85726Y-34330D02*
X85726Y-34492D01*
X85716Y-34511D01*
X85707Y-34521D01*
X85688Y-34530D01*
X85650Y-34530D01*
X85630Y-34521D01*
X85621Y-34511D01*
X85611Y-34492D01*
X85611Y-34330D01*
X85450Y-34426D02*
X85421Y-34435D01*
X85411Y-34445D01*
X85402Y-34464D01*
X85402Y-34492D01*
X85411Y-34511D01*
X85421Y-34521D01*
X85440Y-34530D01*
X85516Y-34530D01*
X85516Y-34330D01*
X85450Y-34330D01*
X85430Y-34340D01*
X85421Y-34350D01*
X85411Y-34369D01*
X85411Y-34388D01*
X85421Y-34407D01*
X85430Y-34416D01*
X85450Y-34426D01*
X85516Y-34426D01*
X85250Y-34426D02*
X85221Y-34435D01*
X85211Y-34445D01*
X85202Y-34464D01*
X85202Y-34492D01*
X85211Y-34511D01*
X85221Y-34521D01*
X85240Y-34530D01*
X85316Y-34530D01*
X85316Y-34330D01*
X85250Y-34330D01*
X85230Y-34340D01*
X85221Y-34350D01*
X85211Y-34369D01*
X85211Y-34388D01*
X85221Y-34407D01*
X85230Y-34416D01*
X85250Y-34426D01*
X85316Y-34426D01*
X85050Y-34426D02*
X85021Y-34435D01*
X85011Y-34445D01*
X85002Y-34464D01*
X85002Y-34492D01*
X85011Y-34511D01*
X85021Y-34521D01*
X85040Y-34530D01*
X85116Y-34530D01*
X85116Y-34330D01*
X85050Y-34330D01*
X85030Y-34340D01*
X85021Y-34350D01*
X85011Y-34369D01*
X85011Y-34388D01*
X85021Y-34407D01*
X85030Y-34416D01*
X85050Y-34426D01*
X85116Y-34426D01*
X84783Y-34330D02*
X84659Y-34330D01*
X84726Y-34407D01*
X84697Y-34407D01*
X84678Y-34416D01*
X84669Y-34426D01*
X84659Y-34445D01*
X84659Y-34492D01*
X84669Y-34511D01*
X84678Y-34521D01*
X84697Y-34530D01*
X84754Y-34530D01*
X84773Y-34521D01*
X84783Y-34511D01*
X84583Y-34350D02*
X84573Y-34340D01*
X84554Y-34330D01*
X84507Y-34330D01*
X84488Y-34340D01*
X84478Y-34350D01*
X84469Y-34369D01*
X84469Y-34388D01*
X84478Y-34416D01*
X84592Y-34530D01*
X84469Y-34530D01*
X84383Y-34330D02*
X84383Y-34492D01*
X84373Y-34511D01*
X84364Y-34521D01*
X84345Y-34530D01*
X84307Y-34530D01*
X84288Y-34521D01*
X84278Y-34511D01*
X84269Y-34492D01*
X84269Y-34330D01*
X84088Y-34397D02*
X84088Y-34530D01*
X84135Y-34321D02*
X84183Y-34464D01*
X84059Y-34464D01*
X83716Y-34530D02*
X83783Y-34435D01*
X83830Y-34530D02*
X83830Y-34330D01*
X83754Y-34330D01*
X83735Y-34340D01*
X83726Y-34350D01*
X83716Y-34369D01*
X83716Y-34397D01*
X83726Y-34416D01*
X83735Y-34426D01*
X83754Y-34435D01*
X83830Y-34435D01*
X83554Y-34521D02*
X83573Y-34530D01*
X83611Y-34530D01*
X83630Y-34521D01*
X83640Y-34502D01*
X83640Y-34426D01*
X83630Y-34407D01*
X83611Y-34397D01*
X83573Y-34397D01*
X83554Y-34407D01*
X83545Y-34426D01*
X83545Y-34445D01*
X83640Y-34464D01*
X83478Y-34397D02*
X83430Y-34530D01*
X83383Y-34397D01*
X83049Y-34530D02*
X83164Y-34530D01*
X83107Y-34530D02*
X83107Y-34330D01*
X83126Y-34359D01*
X83145Y-34378D01*
X83164Y-34388D01*
X82964Y-34511D02*
X82954Y-34521D01*
X82964Y-34530D01*
X82973Y-34521D01*
X82964Y-34511D01*
X82964Y-34530D01*
X82830Y-34330D02*
X82811Y-34330D01*
X82792Y-34340D01*
X82783Y-34350D01*
X82773Y-34369D01*
X82764Y-34407D01*
X82764Y-34454D01*
X82773Y-34492D01*
X82783Y-34511D01*
X82792Y-34521D01*
X82811Y-34530D01*
X82830Y-34530D01*
X82849Y-34521D01*
X82859Y-34511D01*
X82869Y-34492D01*
X82878Y-34454D01*
X82878Y-34407D01*
X82869Y-34369D01*
X82859Y-34350D01*
X82849Y-34340D01*
X82830Y-34330D01*
X79250Y-24909D02*
X79250Y-24515D01*
X79250Y-24703D02*
X78907Y-24703D01*
X78907Y-24909D02*
X78907Y-24515D01*
X78364Y-24909D02*
X78364Y-24703D01*
X78392Y-24665D01*
X78450Y-24646D01*
X78564Y-24646D01*
X78621Y-24665D01*
X78364Y-24890D02*
X78421Y-24909D01*
X78564Y-24909D01*
X78621Y-24890D01*
X78650Y-24853D01*
X78650Y-24815D01*
X78621Y-24778D01*
X78564Y-24759D01*
X78421Y-24759D01*
X78364Y-24740D01*
X77821Y-24890D02*
X77878Y-24909D01*
X77992Y-24909D01*
X78050Y-24890D01*
X78078Y-24871D01*
X78107Y-24834D01*
X78107Y-24721D01*
X78078Y-24684D01*
X78050Y-24665D01*
X77992Y-24646D01*
X77878Y-24646D01*
X77821Y-24665D01*
X77564Y-24909D02*
X77564Y-24515D01*
X77507Y-24759D02*
X77335Y-24909D01*
X77335Y-24646D02*
X77564Y-24796D01*
X77107Y-24890D02*
X77050Y-24909D01*
X76935Y-24909D01*
X76878Y-24890D01*
X76850Y-24853D01*
X76850Y-24834D01*
X76878Y-24796D01*
X76935Y-24778D01*
X77021Y-24778D01*
X77078Y-24759D01*
X77107Y-24721D01*
X77107Y-24703D01*
X77078Y-24665D01*
X77021Y-24646D01*
X76935Y-24646D01*
X76878Y-24665D01*
X76678Y-24646D02*
X76450Y-24646D01*
X76592Y-24515D02*
X76592Y-24853D01*
X76564Y-24890D01*
X76507Y-24909D01*
X76450Y-24909D01*
X76307Y-24646D02*
X76164Y-24909D01*
X76021Y-24646D02*
X76164Y-24909D01*
X76221Y-25003D01*
X76250Y-25021D01*
X76307Y-25040D01*
X75707Y-24909D02*
X75764Y-24890D01*
X75792Y-24853D01*
X75792Y-24515D01*
X75250Y-24890D02*
X75307Y-24909D01*
X75421Y-24909D01*
X75478Y-24890D01*
X75507Y-24853D01*
X75507Y-24703D01*
X75478Y-24665D01*
X75421Y-24646D01*
X75307Y-24646D01*
X75250Y-24665D01*
X75221Y-24703D01*
X75221Y-24740D01*
X75507Y-24778D01*
G54D12*
X78150Y-36750D02*
X78150Y-36250D01*
X78350Y-36750D02*
X78350Y-36550D01*
X78150Y-36750D02*
X78350Y-36750D01*
X76050Y-36750D02*
X76250Y-36750D01*
X76050Y-36650D02*
X76050Y-36750D01*
X76250Y-36650D02*
X76050Y-36650D01*
X76250Y-36550D02*
X76250Y-36650D01*
X76050Y-36550D02*
X76250Y-36550D01*
X76350Y-36550D02*
X76350Y-36950D01*
X76550Y-36550D02*
X76350Y-36550D01*
X76550Y-36750D02*
X76550Y-36550D01*
X77550Y-36750D02*
X77550Y-36950D01*
X76850Y-36750D02*
X76650Y-36750D01*
X76850Y-36650D02*
X76650Y-36650D01*
X76850Y-36550D02*
X76650Y-36550D01*
X76950Y-36750D02*
X77150Y-36750D01*
X76950Y-36650D02*
X76950Y-36750D01*
X77150Y-36650D02*
X76950Y-36650D01*
X77150Y-36550D02*
X77150Y-36650D01*
X76950Y-36550D02*
X77150Y-36550D01*
X77250Y-36750D02*
X77450Y-36750D01*
X77250Y-36650D02*
X77250Y-36750D01*
X77450Y-36650D02*
X77250Y-36650D01*
X77450Y-36550D02*
X77450Y-36650D01*
X77250Y-36550D02*
X77450Y-36550D01*
X77550Y-36750D02*
X77550Y-36550D01*
X77750Y-36550D02*
X77550Y-36550D01*
X77750Y-36750D02*
X77750Y-36550D01*
X78050Y-36750D02*
X77850Y-36750D01*
X78050Y-36650D02*
X78050Y-36750D01*
X78050Y-36650D02*
X77850Y-36650D01*
X77850Y-36550D02*
X77850Y-36750D01*
X78050Y-36550D02*
X77850Y-36550D01*
X77850Y-35950D02*
X77850Y-36450D01*
X77950Y-36250D02*
X77950Y-36450D01*
X78050Y-35950D02*
X78050Y-36450D01*
X76350Y-36250D02*
X76350Y-36450D01*
X76550Y-36250D02*
X76350Y-36250D01*
X76550Y-36450D02*
X76550Y-36250D01*
X76850Y-36450D02*
X76650Y-36450D01*
X76850Y-36350D02*
X76650Y-36350D01*
X76850Y-36250D02*
X76650Y-36250D01*
X77150Y-36250D02*
X76950Y-36250D01*
X77150Y-36450D02*
X77150Y-36250D01*
X77450Y-36250D02*
X77250Y-36250D01*
X77450Y-36250D02*
X77450Y-36450D01*
X77750Y-36350D02*
X77550Y-36350D01*
X77750Y-36450D02*
X77750Y-36350D01*
X77550Y-36450D02*
X77750Y-36450D01*
X77550Y-36250D02*
X77550Y-36450D01*
X77750Y-36250D02*
X77550Y-36250D01*
X85050Y-35500D02*
X85250Y-35500D01*
X85250Y-35500D02*
X85250Y-35300D01*
X85250Y-35300D02*
X85050Y-35300D01*
X85050Y-35300D02*
X85050Y-35500D01*
X84750Y-35500D02*
X84950Y-35500D01*
X84950Y-35500D02*
X84950Y-35300D01*
X84950Y-35300D02*
X84750Y-35300D01*
X84750Y-35300D02*
X84750Y-35500D01*
X84450Y-35500D02*
X84650Y-35500D01*
X84650Y-35500D02*
X84650Y-35300D01*
X84650Y-35300D02*
X84450Y-35300D01*
X84450Y-35300D02*
X84450Y-35500D01*
X84150Y-35500D02*
X84350Y-35500D01*
X84350Y-35500D02*
X84350Y-35300D01*
X84350Y-35300D02*
X84150Y-35300D01*
X84150Y-35300D02*
X84150Y-35500D01*
X83850Y-35500D02*
X84050Y-35500D01*
X84050Y-35500D02*
X84050Y-35300D01*
X84050Y-35300D02*
X83850Y-35300D01*
X83850Y-35300D02*
X83850Y-35500D01*
X83600Y-35750D02*
X83800Y-35750D01*
X83800Y-35750D02*
X83800Y-35550D01*
X83800Y-35550D02*
X83600Y-35550D01*
X83600Y-35550D02*
X83600Y-35750D01*
X83800Y-36050D02*
X83800Y-35850D01*
X83800Y-35850D02*
X83600Y-35850D01*
X83600Y-35850D02*
X83600Y-36050D01*
X83600Y-36050D02*
X83800Y-36050D01*
X83800Y-36350D02*
X83800Y-36150D01*
X83800Y-36150D02*
X83600Y-36150D01*
X83600Y-36150D02*
X83600Y-36350D01*
X83600Y-36350D02*
X83800Y-36350D01*
X84050Y-36600D02*
X84050Y-36400D01*
X84050Y-36400D02*
X83850Y-36400D01*
X83850Y-36400D02*
X83850Y-36600D01*
X83850Y-36600D02*
X84050Y-36600D01*
X84350Y-36400D02*
X84350Y-36600D01*
X84350Y-36600D02*
X84150Y-36600D01*
X84150Y-36600D02*
X84150Y-36400D01*
X84150Y-36400D02*
X84350Y-36400D01*
X84650Y-36600D02*
X84650Y-36400D01*
X84650Y-36400D02*
X84450Y-36400D01*
X84450Y-36400D02*
X84450Y-36600D01*
X84450Y-36600D02*
X84650Y-36600D01*
X84950Y-36400D02*
X84950Y-36600D01*
X84950Y-36600D02*
X84750Y-36600D01*
X84750Y-36600D02*
X84750Y-36400D01*
X84750Y-36400D02*
X84950Y-36400D01*
X84350Y-35850D02*
X84350Y-36050D01*
X84350Y-36050D02*
X84150Y-36050D01*
X84150Y-36050D02*
X84150Y-35850D01*
X84150Y-35850D02*
X84350Y-35850D01*
X84650Y-35850D02*
X84450Y-35850D01*
X84450Y-35850D02*
X84450Y-36050D01*
X84650Y-35850D02*
X84650Y-36050D01*
X84650Y-36050D02*
X84450Y-36050D01*
X84950Y-36050D02*
X84950Y-35850D01*
X84950Y-35850D02*
X84750Y-35850D01*
X84750Y-35850D02*
X84750Y-36050D01*
X84750Y-36050D02*
X84950Y-36050D01*
X85250Y-36050D02*
X85250Y-35850D01*
X85250Y-35850D02*
X85050Y-35850D01*
X85050Y-35850D02*
X85050Y-36050D01*
X85050Y-36050D02*
X85250Y-36050D01*
X85300Y-36300D02*
X85500Y-36300D01*
X85500Y-36300D02*
X85500Y-36100D01*
X85500Y-36100D02*
X85300Y-36100D01*
X85300Y-36100D02*
X85300Y-36300D01*
X85300Y-36600D02*
X85500Y-36600D01*
X85500Y-36600D02*
X85500Y-36400D01*
X85500Y-36400D02*
X85300Y-36400D01*
X85300Y-36400D02*
X85300Y-36600D01*
X85300Y-36900D02*
X85500Y-36900D01*
X85500Y-36900D02*
X85500Y-36700D01*
X85500Y-36700D02*
X85300Y-36700D01*
X85300Y-36700D02*
X85300Y-36900D01*
X85050Y-37150D02*
X85050Y-36950D01*
X85050Y-36950D02*
X85250Y-36950D01*
X85250Y-36950D02*
X85250Y-37150D01*
X85250Y-37150D02*
X85050Y-37150D01*
X84750Y-37150D02*
X84750Y-36950D01*
X84750Y-36950D02*
X84950Y-36950D01*
X84950Y-36950D02*
X84950Y-37150D01*
X84950Y-37150D02*
X84750Y-37150D01*
X84450Y-37150D02*
X84450Y-36950D01*
X84450Y-36950D02*
X84650Y-36950D01*
X84650Y-36950D02*
X84650Y-37150D01*
X84650Y-37150D02*
X84450Y-37150D01*
X84150Y-37150D02*
X84150Y-36950D01*
X84150Y-36950D02*
X84350Y-36950D01*
X84350Y-36950D02*
X84350Y-37150D01*
X84350Y-37150D02*
X84150Y-37150D01*
X83850Y-37150D02*
X83850Y-36950D01*
X83850Y-36950D02*
X84050Y-36950D01*
X84050Y-36950D02*
X84050Y-37150D01*
X84050Y-37150D02*
X83850Y-37150D01*
G54D11*
X80890Y-36090D02*
X80890Y-36290D01*
X80970Y-36030D02*
X80950Y-36030D01*
X80950Y-36030D02*
X80910Y-36050D01*
X80910Y-36050D02*
X80890Y-36090D01*
X81010Y-36050D02*
X80970Y-36030D01*
X81010Y-36050D02*
X81070Y-36090D01*
X81070Y-36030D02*
X81070Y-36290D01*
X81310Y-36090D02*
X81310Y-36230D01*
X81310Y-36230D02*
X81290Y-36270D01*
X81290Y-36270D02*
X81250Y-36290D01*
X81250Y-36290D02*
X81210Y-36290D01*
X81210Y-36290D02*
X81170Y-36270D01*
X81170Y-36270D02*
X81150Y-36230D01*
X81150Y-36230D02*
X81150Y-36090D01*
X81150Y-36090D02*
X81170Y-36050D01*
X81170Y-36050D02*
X81210Y-36030D01*
X81210Y-36030D02*
X81230Y-36030D01*
X81250Y-36030D02*
X81290Y-36050D01*
X81290Y-36050D02*
X81310Y-36090D01*
X81510Y-36030D02*
X81410Y-36030D01*
X81510Y-36150D02*
X81450Y-36150D01*
X81510Y-36150D02*
X81550Y-36130D01*
X81550Y-36130D02*
X81570Y-36090D01*
X81570Y-36090D02*
X81550Y-36050D01*
X81550Y-36050D02*
X81510Y-36030D01*
X81550Y-36290D02*
X81450Y-36290D01*
X81450Y-36290D02*
X81410Y-36270D01*
X81410Y-36270D02*
X81390Y-36230D01*
X81390Y-36230D02*
X81390Y-36210D01*
X81390Y-36210D02*
X81410Y-36170D01*
X81410Y-36170D02*
X81450Y-36150D01*
X81650Y-36270D02*
X81610Y-36290D01*
X81670Y-35870D02*
X81670Y-36230D01*
X81670Y-36230D02*
X81650Y-36270D01*
X81950Y-35930D02*
X81950Y-36230D01*
X81950Y-36230D02*
X81930Y-36270D01*
X81930Y-36270D02*
X81890Y-36290D01*
X81890Y-36290D02*
X81810Y-36290D01*
X81810Y-36290D02*
X81770Y-36270D01*
X81770Y-36270D02*
X81750Y-36230D01*
X81750Y-36230D02*
X81750Y-35930D01*
X81750Y-35930D02*
X81770Y-35890D01*
X81770Y-35890D02*
X81810Y-35870D01*
X81810Y-35870D02*
X81890Y-35870D01*
X81890Y-35870D02*
X81930Y-35890D01*
X81930Y-35890D02*
X81950Y-35930D01*
X82250Y-36250D02*
X82230Y-36290D01*
X82250Y-35870D02*
X82250Y-36250D01*
X82330Y-36030D02*
X82170Y-36030D01*
X82290Y-36030D02*
X82250Y-35990D01*
X82210Y-36290D02*
X82230Y-36290D01*
X82430Y-36290D02*
X82450Y-36290D01*
X82510Y-36030D02*
X82470Y-35990D01*
X82550Y-36030D02*
X82390Y-36030D01*
X82470Y-35870D02*
X82470Y-36250D01*
X82470Y-36250D02*
X82450Y-36290D01*
X82750Y-36170D02*
X82750Y-36250D01*
X82750Y-36250D02*
X82710Y-36290D01*
X82610Y-36170D02*
X82670Y-36130D01*
X82670Y-36130D02*
X82710Y-36130D01*
X82710Y-36130D02*
X82750Y-36170D01*
X82710Y-36290D02*
X82670Y-36290D01*
X82670Y-36290D02*
X82610Y-36250D01*
X82710Y-36030D02*
X82630Y-36030D01*
X82630Y-36030D02*
X82610Y-36050D01*
X82610Y-36050D02*
X82610Y-36290D01*
X82730Y-36050D02*
X82710Y-36030D01*
X82790Y-36030D02*
X82890Y-36350D01*
X82890Y-36350D02*
X82930Y-36390D01*
X82930Y-36030D02*
X82870Y-36290D01*
X83150Y-35950D02*
X83070Y-36290D01*
X83070Y-36290D02*
X82970Y-35870D01*
X83330Y-35870D02*
X83230Y-36290D01*
X83230Y-36290D02*
X83130Y-35870D01*
G54D12*
X79920Y-36880D02*
X79750Y-36840D01*
X79750Y-36840D02*
X79750Y-36810D01*
X79750Y-36810D02*
X79760Y-36760D01*
X79760Y-36760D02*
X79790Y-36740D01*
X79790Y-36740D02*
X79840Y-36740D01*
X79840Y-36740D02*
X79880Y-36760D01*
X79880Y-36760D02*
X79900Y-36800D01*
X79900Y-36800D02*
X79920Y-36950D01*
X79920Y-36950D02*
X79910Y-36990D01*
X79910Y-36990D02*
X79870Y-37010D01*
X79870Y-37010D02*
X79820Y-37010D01*
X79820Y-37010D02*
X79790Y-36980D01*
X80160Y-36750D02*
X80110Y-37010D01*
X80110Y-37010D02*
X80000Y-36740D01*
X79080Y-36990D02*
X79110Y-37010D01*
X79110Y-37010D02*
X79190Y-37010D01*
X79190Y-37010D02*
X79210Y-36990D01*
X79210Y-36990D02*
X79220Y-36960D01*
X79220Y-36960D02*
X79220Y-36920D01*
X79220Y-36920D02*
X79220Y-36890D01*
X79220Y-36890D02*
X79190Y-36870D01*
X79190Y-36870D02*
X79160Y-36860D01*
X79160Y-36860D02*
X79090Y-36860D01*
X79090Y-36860D02*
X79070Y-36840D01*
X79190Y-36770D02*
X79150Y-36740D01*
X79150Y-36740D02*
X79090Y-36740D01*
X79090Y-36740D02*
X79060Y-36760D01*
X79060Y-36760D02*
X79050Y-36800D01*
X79050Y-36800D02*
X79080Y-37010D01*
X80280Y-36800D02*
X80310Y-37010D01*
X80290Y-36760D02*
X80280Y-36800D01*
X80320Y-36740D02*
X80290Y-36760D01*
X80380Y-36740D02*
X80320Y-36740D01*
X80420Y-36770D02*
X80380Y-36740D01*
X80320Y-36860D02*
X80300Y-36840D01*
X80390Y-36860D02*
X80320Y-36860D01*
X80420Y-36870D02*
X80390Y-36860D01*
X80450Y-36890D02*
X80420Y-36870D01*
X80450Y-36920D02*
X80450Y-36890D01*
X80450Y-36960D02*
X80450Y-36920D01*
X80440Y-36990D02*
X80450Y-36960D01*
X80420Y-37010D02*
X80440Y-36990D01*
X80340Y-37010D02*
X80420Y-37010D01*
X80310Y-36990D02*
X80340Y-37010D01*
X79380Y-37010D02*
X79350Y-36990D01*
X79420Y-37010D02*
X79380Y-37010D01*
X79450Y-37000D02*
X79420Y-37010D01*
X79490Y-36970D02*
X79450Y-37000D01*
X79490Y-36870D02*
X79490Y-36970D01*
X79490Y-36820D02*
X79490Y-36870D01*
X79470Y-36790D02*
X79490Y-36820D01*
X79450Y-36760D02*
X79470Y-36790D01*
X79410Y-36740D02*
X79450Y-36760D01*
X79350Y-36740D02*
X79410Y-36740D01*
X79320Y-36770D02*
X79350Y-36740D01*
X80550Y-36770D02*
X80580Y-36740D01*
X80580Y-36740D02*
X80640Y-36740D01*
X80640Y-36740D02*
X80680Y-36760D01*
X80680Y-36760D02*
X80700Y-36790D01*
X80700Y-36790D02*
X80720Y-36820D01*
X80720Y-36820D02*
X80720Y-36870D01*
X80720Y-36870D02*
X80720Y-36970D01*
X80720Y-36970D02*
X80680Y-37000D01*
X80680Y-37000D02*
X80650Y-37010D01*
X80650Y-37010D02*
X80610Y-37010D01*
X80610Y-37010D02*
X80580Y-36990D01*
X80840Y-36620D02*
X80890Y-36960D01*
X80890Y-36960D02*
X80880Y-36990D01*
X80880Y-36990D02*
X80840Y-37020D01*
X81040Y-36990D02*
X81070Y-37010D01*
X81070Y-37010D02*
X81150Y-37010D01*
X81150Y-37010D02*
X81170Y-36990D01*
X81170Y-36990D02*
X81180Y-36960D01*
X81180Y-36960D02*
X81180Y-36920D01*
X81180Y-36920D02*
X81180Y-36890D01*
X81180Y-36890D02*
X81150Y-36870D01*
X81150Y-36870D02*
X81120Y-36860D01*
X81120Y-36860D02*
X81050Y-36860D01*
X81050Y-36860D02*
X81030Y-36840D01*
X81150Y-36770D02*
X81110Y-36740D01*
X81110Y-36740D02*
X81050Y-36740D01*
X81050Y-36740D02*
X81020Y-36760D01*
X81020Y-36760D02*
X81010Y-36800D01*
X81010Y-36800D02*
X81040Y-37010D01*
X81320Y-37010D02*
X81280Y-37020D01*
X81340Y-36990D02*
X81320Y-37010D01*
X81350Y-36950D02*
X81340Y-36990D01*
X81310Y-36610D02*
X81350Y-36950D01*
X81390Y-36740D02*
X81260Y-36740D01*
X81640Y-36760D02*
X81670Y-36740D01*
X81670Y-36740D02*
X81710Y-36740D01*
X81710Y-36740D02*
X81760Y-36760D01*
X81760Y-36760D02*
X81780Y-36790D01*
X81780Y-36790D02*
X81790Y-36820D01*
X81790Y-36820D02*
X81810Y-36930D01*
X81810Y-36930D02*
X81790Y-36990D01*
X81790Y-36990D02*
X81750Y-37010D01*
X81750Y-37010D02*
X81700Y-37010D01*
X81700Y-37010D02*
X81670Y-36980D01*
X81630Y-36750D02*
X81670Y-37070D01*
X81670Y-37070D02*
X81700Y-37110D01*
X81700Y-37110D02*
X81710Y-37120D01*
X81710Y-37120D02*
X81720Y-37130D01*
X81720Y-37130D02*
X81740Y-37140D01*
X81740Y-37140D02*
X81780Y-37140D01*
X81780Y-37140D02*
X81800Y-37140D01*
X81800Y-37140D02*
X81820Y-37120D01*
X82110Y-36990D02*
X82130Y-37010D01*
X82130Y-37010D02*
X82190Y-37010D01*
X82190Y-37010D02*
X82230Y-36990D01*
X82230Y-36990D02*
X82240Y-36970D01*
X82240Y-36970D02*
X82250Y-36940D01*
X82250Y-36940D02*
X82230Y-36820D01*
X82230Y-36820D02*
X82220Y-36780D01*
X82220Y-36780D02*
X82190Y-36760D01*
X82190Y-36760D02*
X82160Y-36740D01*
X82160Y-36740D02*
X82120Y-36740D01*
X82120Y-36740D02*
X82080Y-36760D01*
X82060Y-36610D02*
X82110Y-37020D01*
X79630Y-36990D02*
X79640Y-37000D01*
X79630Y-37000D02*
X79630Y-36990D01*
X79640Y-36990D02*
X79630Y-37000D01*
X81480Y-36730D02*
X81520Y-37010D01*
X81470Y-36620D02*
X81460Y-36630D01*
X81460Y-36630D02*
X81460Y-36620D01*
X81460Y-36620D02*
X81470Y-36630D01*
X81900Y-36620D02*
X81910Y-36630D01*
X81900Y-36630D02*
X81900Y-36620D01*
X81910Y-36620D02*
X81900Y-36630D01*
X82670Y-36990D02*
X82680Y-37000D01*
X82670Y-37000D02*
X82670Y-36990D01*
X82680Y-36990D02*
X82670Y-37000D01*
X82660Y-36780D02*
X82650Y-36790D01*
X82650Y-36790D02*
X82650Y-36780D01*
X82650Y-36780D02*
X82660Y-36790D01*
X81920Y-36730D02*
X81960Y-37010D01*
X82970Y-37010D02*
X82880Y-37010D01*
X82880Y-37010D02*
X82810Y-36970D01*
X82810Y-36970D02*
X82790Y-36830D01*
X82790Y-36830D02*
X82800Y-36790D01*
X82800Y-36790D02*
X82830Y-36750D01*
X82830Y-36750D02*
X82870Y-36740D01*
X82870Y-36740D02*
X82890Y-36740D01*
X82890Y-36740D02*
X82930Y-36770D01*
X82930Y-36750D02*
X82990Y-37150D01*
X83110Y-37010D02*
X83070Y-37020D01*
X83130Y-36990D02*
X83110Y-37010D01*
X83140Y-36950D02*
X83130Y-36990D01*
X83100Y-36610D02*
X83140Y-36950D01*
X83180Y-36740D02*
X83050Y-36740D01*
X83360Y-36740D02*
X83230Y-36740D01*
X83280Y-36610D02*
X83320Y-36950D01*
X83320Y-36950D02*
X83310Y-36990D01*
X83310Y-36990D02*
X83290Y-37010D01*
X83290Y-37010D02*
X83250Y-37020D01*
X83590Y-36780D02*
X83560Y-36740D01*
X83560Y-36740D02*
X83500Y-36750D01*
X83500Y-36750D02*
X83470Y-36770D01*
X83470Y-36770D02*
X83460Y-36800D01*
X83460Y-36800D02*
X83490Y-37020D01*
X83570Y-36610D02*
X83620Y-37020D01*
X82300Y-36600D02*
X82450Y-37050D01*
X82450Y-36600D02*
X82600Y-37050D01*
X81560Y-37150D02*
X79060Y-37150D01*
X81910Y-37150D02*
X82810Y-37150D01*
X83650Y-37150D02*
X83100Y-37150D01*
G54D13*
X87320Y-28758D02*
X87005Y-29073D01*
G54D12*
X86965Y-28718D02*
X88934Y-28718D01*
X88934Y-28718D02*
X88934Y-31081D01*
X88934Y-31081D02*
X86965Y-31081D01*
X86965Y-31081D02*
X86965Y-28718D01*
G54D11*
X76750Y-30050D02*
X76750Y-30950D01*
X76750Y-30950D02*
X77250Y-30950D01*
X77250Y-30950D02*
X77250Y-30050D01*
X77250Y-30050D02*
X76750Y-30050D01*
X73750Y-30050D02*
X73750Y-30950D01*
X73750Y-30950D02*
X74250Y-30950D01*
X74250Y-30950D02*
X74250Y-30050D01*
X74250Y-30050D02*
X73750Y-30050D01*
X76000Y-30050D02*
X76000Y-30950D01*
X76000Y-30950D02*
X76500Y-30950D01*
X76500Y-30950D02*
X76500Y-30050D01*
X76500Y-30050D02*
X76000Y-30050D01*
X78000Y-28450D02*
X78000Y-27550D01*
X78000Y-27550D02*
X77500Y-27550D01*
X77500Y-27550D02*
X77500Y-28450D01*
X77500Y-28450D02*
X78000Y-28450D01*
X73000Y-30050D02*
X73000Y-30950D01*
X73000Y-30950D02*
X73500Y-30950D01*
X73500Y-30950D02*
X73500Y-30050D01*
X73500Y-30050D02*
X73000Y-30050D01*
X75250Y-30050D02*
X75250Y-30950D01*
X75250Y-30950D02*
X75750Y-30950D01*
X75750Y-30950D02*
X75750Y-30050D01*
X75750Y-30050D02*
X75250Y-30050D01*
X71500Y-30050D02*
X71500Y-30950D01*
X71500Y-30950D02*
X72000Y-30950D01*
X72000Y-30950D02*
X72000Y-30050D01*
X72000Y-30050D02*
X71500Y-30050D01*
X74500Y-30050D02*
X74500Y-30950D01*
X74500Y-30950D02*
X75000Y-30950D01*
X75000Y-30950D02*
X75000Y-30050D01*
X75000Y-30050D02*
X74500Y-30050D01*
X70750Y-30050D02*
X70750Y-30950D01*
X70750Y-30950D02*
X71250Y-30950D01*
X71250Y-30950D02*
X71250Y-30050D01*
X71250Y-30050D02*
X70750Y-30050D01*
G54D12*
X87750Y-33350D02*
X87750Y-33150D01*
X87750Y-33150D02*
X87550Y-33150D01*
X87550Y-33150D02*
X87550Y-33350D01*
X87550Y-33350D02*
X87750Y-33350D01*
X87750Y-33650D02*
X87750Y-33450D01*
X87750Y-33450D02*
X87550Y-33450D01*
X87550Y-33450D02*
X87550Y-33650D01*
X87550Y-33650D02*
X87750Y-33650D01*
X87750Y-33950D02*
X87750Y-33750D01*
X87750Y-33750D02*
X87550Y-33750D01*
X87550Y-33750D02*
X87550Y-33950D01*
X87550Y-33950D02*
X87750Y-33950D01*
X87750Y-34250D02*
X87750Y-34050D01*
X87750Y-34050D02*
X87550Y-34050D01*
X87550Y-34050D02*
X87550Y-34250D01*
X87550Y-34250D02*
X87750Y-34250D01*
X87750Y-34550D02*
X87750Y-34350D01*
X87750Y-34350D02*
X87550Y-34350D01*
X87550Y-34350D02*
X87550Y-34550D01*
X87550Y-34550D02*
X87750Y-34550D01*
X88000Y-34800D02*
X88000Y-34600D01*
X88000Y-34600D02*
X87800Y-34600D01*
X87800Y-34600D02*
X87800Y-34800D01*
X87800Y-34800D02*
X88000Y-34800D01*
X88300Y-34600D02*
X88100Y-34600D01*
X88100Y-34600D02*
X88100Y-34800D01*
X88100Y-34800D02*
X88300Y-34800D01*
X88300Y-34800D02*
X88300Y-34600D01*
X88600Y-34600D02*
X88400Y-34600D01*
X88400Y-34600D02*
X88400Y-34800D01*
X88400Y-34800D02*
X88600Y-34800D01*
X88600Y-34800D02*
X88600Y-34600D01*
X88850Y-34350D02*
X88650Y-34350D01*
X88650Y-34350D02*
X88650Y-34550D01*
X88650Y-34550D02*
X88850Y-34550D01*
X88850Y-34550D02*
X88850Y-34350D01*
X88650Y-34050D02*
X88850Y-34050D01*
X88850Y-34050D02*
X88850Y-34250D01*
X88850Y-34250D02*
X88650Y-34250D01*
X88650Y-34250D02*
X88650Y-34050D01*
X88850Y-33750D02*
X88650Y-33750D01*
X88650Y-33750D02*
X88650Y-33950D01*
X88650Y-33950D02*
X88850Y-33950D01*
X88850Y-33950D02*
X88850Y-33750D01*
X88650Y-33450D02*
X88850Y-33450D01*
X88850Y-33450D02*
X88850Y-33650D01*
X88850Y-33650D02*
X88650Y-33650D01*
X88650Y-33650D02*
X88650Y-33450D01*
X88100Y-34050D02*
X88300Y-34050D01*
X88300Y-34050D02*
X88300Y-34250D01*
X88300Y-34250D02*
X88100Y-34250D01*
X88100Y-34250D02*
X88100Y-34050D01*
X88100Y-33750D02*
X88100Y-33950D01*
X88100Y-33950D02*
X88300Y-33950D01*
X88100Y-33750D02*
X88300Y-33750D01*
X88300Y-33750D02*
X88300Y-33950D01*
X88300Y-33450D02*
X88100Y-33450D01*
X88100Y-33450D02*
X88100Y-33650D01*
X88100Y-33650D02*
X88300Y-33650D01*
X88300Y-33650D02*
X88300Y-33450D01*
X88300Y-33150D02*
X88100Y-33150D01*
X88100Y-33150D02*
X88100Y-33350D01*
X88100Y-33350D02*
X88300Y-33350D01*
X88300Y-33350D02*
X88300Y-33150D01*
X88550Y-33100D02*
X88550Y-32900D01*
X88550Y-32900D02*
X88350Y-32900D01*
X88350Y-32900D02*
X88350Y-33100D01*
X88350Y-33100D02*
X88550Y-33100D01*
X88850Y-33100D02*
X88850Y-32900D01*
X88850Y-32900D02*
X88650Y-32900D01*
X88650Y-32900D02*
X88650Y-33100D01*
X88650Y-33100D02*
X88850Y-33100D01*
X89150Y-33100D02*
X89150Y-32900D01*
X89150Y-32900D02*
X88950Y-32900D01*
X88950Y-32900D02*
X88950Y-33100D01*
X88950Y-33100D02*
X89150Y-33100D01*
X89400Y-33350D02*
X89200Y-33350D01*
X89200Y-33350D02*
X89200Y-33150D01*
X89200Y-33150D02*
X89400Y-33150D01*
X89400Y-33150D02*
X89400Y-33350D01*
X89400Y-33650D02*
X89200Y-33650D01*
X89200Y-33650D02*
X89200Y-33450D01*
X89200Y-33450D02*
X89400Y-33450D01*
X89400Y-33450D02*
X89400Y-33650D01*
X89400Y-33950D02*
X89200Y-33950D01*
X89200Y-33950D02*
X89200Y-33750D01*
X89200Y-33750D02*
X89400Y-33750D01*
X89400Y-33750D02*
X89400Y-33950D01*
X89400Y-34250D02*
X89200Y-34250D01*
X89200Y-34250D02*
X89200Y-34050D01*
X89200Y-34050D02*
X89400Y-34050D01*
X89400Y-34050D02*
X89400Y-34250D01*
X89400Y-34550D02*
X89200Y-34550D01*
X89200Y-34550D02*
X89200Y-34350D01*
X89200Y-34350D02*
X89400Y-34350D01*
X89400Y-34350D02*
X89400Y-34550D01*
X87150Y-24950D02*
X87150Y-24450D01*
X87350Y-24950D02*
X87350Y-24750D01*
X87150Y-24950D02*
X87350Y-24950D01*
X85050Y-24950D02*
X85250Y-24950D01*
X85050Y-24850D02*
X85050Y-24950D01*
X85250Y-24850D02*
X85050Y-24850D01*
X85250Y-24750D02*
X85250Y-24850D01*
X85050Y-24750D02*
X85250Y-24750D01*
X85350Y-24750D02*
X85350Y-25150D01*
X85550Y-24750D02*
X85350Y-24750D01*
X85550Y-24950D02*
X85550Y-24750D01*
X86550Y-24950D02*
X86550Y-25150D01*
X85850Y-24950D02*
X85650Y-24950D01*
X85850Y-24850D02*
X85650Y-24850D01*
X85850Y-24750D02*
X85650Y-24750D01*
X85950Y-24950D02*
X86150Y-24950D01*
X85950Y-24850D02*
X85950Y-24950D01*
X86150Y-24850D02*
X85950Y-24850D01*
X86150Y-24750D02*
X86150Y-24850D01*
X85950Y-24750D02*
X86150Y-24750D01*
X86250Y-24950D02*
X86450Y-24950D01*
X86250Y-24850D02*
X86250Y-24950D01*
X86450Y-24850D02*
X86250Y-24850D01*
X86450Y-24750D02*
X86450Y-24850D01*
X86250Y-24750D02*
X86450Y-24750D01*
X86550Y-24950D02*
X86550Y-24750D01*
X86750Y-24750D02*
X86550Y-24750D01*
X86750Y-24950D02*
X86750Y-24750D01*
X87050Y-24950D02*
X86850Y-24950D01*
X87050Y-24850D02*
X87050Y-24950D01*
X87050Y-24850D02*
X86850Y-24850D01*
X86850Y-24750D02*
X86850Y-24950D01*
X87050Y-24750D02*
X86850Y-24750D01*
X86850Y-24150D02*
X86850Y-24650D01*
X86950Y-24450D02*
X86950Y-24650D01*
X87050Y-24150D02*
X87050Y-24650D01*
X85350Y-24450D02*
X85350Y-24650D01*
X85550Y-24450D02*
X85350Y-24450D01*
X85550Y-24650D02*
X85550Y-24450D01*
X85850Y-24650D02*
X85650Y-24650D01*
X85850Y-24550D02*
X85650Y-24550D01*
X85850Y-24450D02*
X85650Y-24450D01*
X86150Y-24450D02*
X85950Y-24450D01*
X86150Y-24650D02*
X86150Y-24450D01*
X86450Y-24450D02*
X86250Y-24450D01*
X86450Y-24450D02*
X86450Y-24650D01*
X86750Y-24550D02*
X86550Y-24550D01*
X86750Y-24650D02*
X86750Y-24550D01*
X86550Y-24650D02*
X86750Y-24650D01*
X86550Y-24450D02*
X86550Y-24650D01*
X86750Y-24450D02*
X86550Y-24450D01*
X83650Y-29950D02*
X83650Y-29450D01*
X83850Y-29950D02*
X83850Y-29750D01*
X83650Y-29950D02*
X83850Y-29950D01*
X81550Y-29950D02*
X81750Y-29950D01*
X81550Y-29850D02*
X81550Y-29950D01*
X81750Y-29850D02*
X81550Y-29850D01*
X81750Y-29750D02*
X81750Y-29850D01*
X81550Y-29750D02*
X81750Y-29750D01*
X81850Y-29750D02*
X81850Y-30150D01*
X82050Y-29750D02*
X81850Y-29750D01*
X82050Y-29950D02*
X82050Y-29750D01*
X83050Y-29950D02*
X83050Y-30150D01*
X82350Y-29950D02*
X82150Y-29950D01*
X82350Y-29850D02*
X82150Y-29850D01*
X82350Y-29750D02*
X82150Y-29750D01*
X82450Y-29950D02*
X82650Y-29950D01*
X82450Y-29850D02*
X82450Y-29950D01*
X82650Y-29850D02*
X82450Y-29850D01*
X82650Y-29750D02*
X82650Y-29850D01*
X82450Y-29750D02*
X82650Y-29750D01*
X82750Y-29950D02*
X82950Y-29950D01*
X82750Y-29850D02*
X82750Y-29950D01*
X82950Y-29850D02*
X82750Y-29850D01*
X82950Y-29750D02*
X82950Y-29850D01*
X82750Y-29750D02*
X82950Y-29750D01*
X83050Y-29950D02*
X83050Y-29750D01*
X83250Y-29750D02*
X83050Y-29750D01*
X83250Y-29950D02*
X83250Y-29750D01*
X83550Y-29950D02*
X83350Y-29950D01*
X83550Y-29850D02*
X83550Y-29950D01*
X83550Y-29850D02*
X83350Y-29850D01*
X83350Y-29750D02*
X83350Y-29950D01*
X83550Y-29750D02*
X83350Y-29750D01*
X83350Y-29150D02*
X83350Y-29650D01*
X83450Y-29450D02*
X83450Y-29650D01*
X83550Y-29150D02*
X83550Y-29650D01*
X81850Y-29450D02*
X81850Y-29650D01*
X82050Y-29450D02*
X81850Y-29450D01*
X82050Y-29650D02*
X82050Y-29450D01*
X82350Y-29650D02*
X82150Y-29650D01*
X82350Y-29550D02*
X82150Y-29550D01*
X82350Y-29450D02*
X82150Y-29450D01*
X82650Y-29450D02*
X82450Y-29450D01*
X82650Y-29650D02*
X82650Y-29450D01*
X82950Y-29450D02*
X82750Y-29450D01*
X82950Y-29450D02*
X82950Y-29650D01*
X83250Y-29550D02*
X83050Y-29550D01*
X83250Y-29650D02*
X83250Y-29550D01*
X83050Y-29650D02*
X83250Y-29650D01*
X83050Y-29450D02*
X83050Y-29650D01*
X83250Y-29450D02*
X83050Y-29450D01*
G54D14*
X72250Y-25750D02*
X72250Y-26750D01*
X72250Y-26750D02*
X82250Y-26750D01*
X82250Y-26750D02*
X82250Y-25750D01*
X82250Y-25750D02*
X72250Y-25750D01*
X73250Y-25750D02*
X73250Y-26750D01*
X72250Y-22750D02*
X72250Y-23750D01*
X72250Y-23750D02*
X82250Y-23750D01*
X82250Y-23750D02*
X82250Y-22750D01*
X82250Y-22750D02*
X72250Y-22750D01*
X73250Y-22750D02*
X73250Y-23750D01*
G54D12*
X71850Y-28050D02*
X72050Y-28050D01*
X72050Y-28050D02*
X72050Y-27850D01*
X72050Y-27850D02*
X71850Y-27850D01*
X71850Y-27850D02*
X71850Y-28050D01*
X71550Y-28050D02*
X71750Y-28050D01*
X71750Y-28050D02*
X71750Y-27850D01*
X71750Y-27850D02*
X71550Y-27850D01*
X71550Y-27850D02*
X71550Y-28050D01*
X71250Y-28050D02*
X71450Y-28050D01*
X71450Y-28050D02*
X71450Y-27850D01*
X71450Y-27850D02*
X71250Y-27850D01*
X71250Y-27850D02*
X71250Y-28050D01*
X70950Y-28050D02*
X71150Y-28050D01*
X71150Y-28050D02*
X71150Y-27850D01*
X71150Y-27850D02*
X70950Y-27850D01*
X70950Y-27850D02*
X70950Y-28050D01*
X70650Y-28050D02*
X70850Y-28050D01*
X70850Y-28050D02*
X70850Y-27850D01*
X70850Y-27850D02*
X70650Y-27850D01*
X70650Y-27850D02*
X70650Y-28050D01*
X70400Y-28300D02*
X70600Y-28300D01*
X70600Y-28300D02*
X70600Y-28100D01*
X70600Y-28100D02*
X70400Y-28100D01*
X70400Y-28100D02*
X70400Y-28300D01*
X70600Y-28600D02*
X70600Y-28400D01*
X70600Y-28400D02*
X70400Y-28400D01*
X70400Y-28400D02*
X70400Y-28600D01*
X70400Y-28600D02*
X70600Y-28600D01*
X70600Y-28900D02*
X70600Y-28700D01*
X70600Y-28700D02*
X70400Y-28700D01*
X70400Y-28700D02*
X70400Y-28900D01*
X70400Y-28900D02*
X70600Y-28900D01*
X70850Y-29150D02*
X70850Y-28950D01*
X70850Y-28950D02*
X70650Y-28950D01*
X70650Y-28950D02*
X70650Y-29150D01*
X70650Y-29150D02*
X70850Y-29150D01*
X71150Y-28950D02*
X71150Y-29150D01*
X71150Y-29150D02*
X70950Y-29150D01*
X70950Y-29150D02*
X70950Y-28950D01*
X70950Y-28950D02*
X71150Y-28950D01*
X71450Y-29150D02*
X71450Y-28950D01*
X71450Y-28950D02*
X71250Y-28950D01*
X71250Y-28950D02*
X71250Y-29150D01*
X71250Y-29150D02*
X71450Y-29150D01*
X71750Y-28950D02*
X71750Y-29150D01*
X71750Y-29150D02*
X71550Y-29150D01*
X71550Y-29150D02*
X71550Y-28950D01*
X71550Y-28950D02*
X71750Y-28950D01*
X71150Y-28400D02*
X71150Y-28600D01*
X71150Y-28600D02*
X70950Y-28600D01*
X70950Y-28600D02*
X70950Y-28400D01*
X70950Y-28400D02*
X71150Y-28400D01*
X71450Y-28400D02*
X71250Y-28400D01*
X71250Y-28400D02*
X71250Y-28600D01*
X71450Y-28400D02*
X71450Y-28600D01*
X71450Y-28600D02*
X71250Y-28600D01*
X71750Y-28600D02*
X71750Y-28400D01*
X71750Y-28400D02*
X71550Y-28400D01*
X71550Y-28400D02*
X71550Y-28600D01*
X71550Y-28600D02*
X71750Y-28600D01*
X72050Y-28600D02*
X72050Y-28400D01*
X72050Y-28400D02*
X71850Y-28400D01*
X71850Y-28400D02*
X71850Y-28600D01*
X71850Y-28600D02*
X72050Y-28600D01*
X72100Y-28850D02*
X72300Y-28850D01*
X72300Y-28850D02*
X72300Y-28650D01*
X72300Y-28650D02*
X72100Y-28650D01*
X72100Y-28650D02*
X72100Y-28850D01*
X72100Y-29150D02*
X72300Y-29150D01*
X72300Y-29150D02*
X72300Y-28950D01*
X72300Y-28950D02*
X72100Y-28950D01*
X72100Y-28950D02*
X72100Y-29150D01*
X72100Y-29450D02*
X72300Y-29450D01*
X72300Y-29450D02*
X72300Y-29250D01*
X72300Y-29250D02*
X72100Y-29250D01*
X72100Y-29250D02*
X72100Y-29450D01*
X71850Y-29700D02*
X71850Y-29500D01*
X71850Y-29500D02*
X72050Y-29500D01*
X72050Y-29500D02*
X72050Y-29700D01*
X72050Y-29700D02*
X71850Y-29700D01*
X71550Y-29700D02*
X71550Y-29500D01*
X71550Y-29500D02*
X71750Y-29500D01*
X71750Y-29500D02*
X71750Y-29700D01*
X71750Y-29700D02*
X71550Y-29700D01*
X71250Y-29700D02*
X71250Y-29500D01*
X71250Y-29500D02*
X71450Y-29500D01*
X71450Y-29500D02*
X71450Y-29700D01*
X71450Y-29700D02*
X71250Y-29700D01*
X70950Y-29700D02*
X70950Y-29500D01*
X70950Y-29500D02*
X71150Y-29500D01*
X71150Y-29500D02*
X71150Y-29700D01*
X71150Y-29700D02*
X70950Y-29700D01*
X70650Y-29700D02*
X70650Y-29500D01*
X70650Y-29500D02*
X70850Y-29500D01*
X70850Y-29500D02*
X70850Y-29700D01*
X70850Y-29700D02*
X70650Y-29700D01*
X73520Y-29480D02*
X73350Y-29440D01*
X73350Y-29440D02*
X73350Y-29410D01*
X73350Y-29410D02*
X73360Y-29360D01*
X73360Y-29360D02*
X73390Y-29340D01*
X73390Y-29340D02*
X73440Y-29340D01*
X73440Y-29340D02*
X73480Y-29360D01*
X73480Y-29360D02*
X73500Y-29400D01*
X73500Y-29400D02*
X73520Y-29550D01*
X73520Y-29550D02*
X73510Y-29590D01*
X73510Y-29590D02*
X73470Y-29610D01*
X73470Y-29610D02*
X73420Y-29610D01*
X73420Y-29610D02*
X73390Y-29580D01*
X73760Y-29350D02*
X73710Y-29610D01*
X73710Y-29610D02*
X73600Y-29340D01*
X72680Y-29590D02*
X72710Y-29610D01*
X72710Y-29610D02*
X72790Y-29610D01*
X72790Y-29610D02*
X72810Y-29590D01*
X72810Y-29590D02*
X72820Y-29560D01*
X72820Y-29560D02*
X72820Y-29520D01*
X72820Y-29520D02*
X72820Y-29490D01*
X72820Y-29490D02*
X72790Y-29470D01*
X72790Y-29470D02*
X72760Y-29460D01*
X72760Y-29460D02*
X72690Y-29460D01*
X72690Y-29460D02*
X72670Y-29440D01*
X72790Y-29370D02*
X72750Y-29340D01*
X72750Y-29340D02*
X72690Y-29340D01*
X72690Y-29340D02*
X72660Y-29360D01*
X72660Y-29360D02*
X72650Y-29400D01*
X72650Y-29400D02*
X72680Y-29610D01*
X73880Y-29400D02*
X73910Y-29610D01*
X73890Y-29360D02*
X73880Y-29400D01*
X73920Y-29340D02*
X73890Y-29360D01*
X73980Y-29340D02*
X73920Y-29340D01*
X74020Y-29370D02*
X73980Y-29340D01*
X73920Y-29460D02*
X73900Y-29440D01*
X73990Y-29460D02*
X73920Y-29460D01*
X74020Y-29470D02*
X73990Y-29460D01*
X74050Y-29490D02*
X74020Y-29470D01*
X74050Y-29520D02*
X74050Y-29490D01*
X74050Y-29560D02*
X74050Y-29520D01*
X74040Y-29590D02*
X74050Y-29560D01*
X74020Y-29610D02*
X74040Y-29590D01*
X73940Y-29610D02*
X74020Y-29610D01*
X73910Y-29590D02*
X73940Y-29610D01*
X72980Y-29610D02*
X72950Y-29590D01*
X73020Y-29610D02*
X72980Y-29610D01*
X73050Y-29600D02*
X73020Y-29610D01*
X73090Y-29570D02*
X73050Y-29600D01*
X73090Y-29470D02*
X73090Y-29570D01*
X73090Y-29420D02*
X73090Y-29470D01*
X73070Y-29390D02*
X73090Y-29420D01*
X73050Y-29360D02*
X73070Y-29390D01*
X73010Y-29340D02*
X73050Y-29360D01*
X72950Y-29340D02*
X73010Y-29340D01*
X72920Y-29370D02*
X72950Y-29340D01*
X74150Y-29370D02*
X74180Y-29340D01*
X74180Y-29340D02*
X74240Y-29340D01*
X74240Y-29340D02*
X74280Y-29360D01*
X74280Y-29360D02*
X74300Y-29390D01*
X74300Y-29390D02*
X74320Y-29420D01*
X74320Y-29420D02*
X74320Y-29470D01*
X74320Y-29470D02*
X74320Y-29570D01*
X74320Y-29570D02*
X74280Y-29600D01*
X74280Y-29600D02*
X74250Y-29610D01*
X74250Y-29610D02*
X74210Y-29610D01*
X74210Y-29610D02*
X74180Y-29590D01*
X74440Y-29220D02*
X74490Y-29560D01*
X74490Y-29560D02*
X74480Y-29590D01*
X74480Y-29590D02*
X74440Y-29620D01*
X74640Y-29590D02*
X74670Y-29610D01*
X74670Y-29610D02*
X74750Y-29610D01*
X74750Y-29610D02*
X74770Y-29590D01*
X74770Y-29590D02*
X74780Y-29560D01*
X74780Y-29560D02*
X74780Y-29520D01*
X74780Y-29520D02*
X74780Y-29490D01*
X74780Y-29490D02*
X74750Y-29470D01*
X74750Y-29470D02*
X74720Y-29460D01*
X74720Y-29460D02*
X74650Y-29460D01*
X74650Y-29460D02*
X74630Y-29440D01*
X74750Y-29370D02*
X74710Y-29340D01*
X74710Y-29340D02*
X74650Y-29340D01*
X74650Y-29340D02*
X74620Y-29360D01*
X74620Y-29360D02*
X74610Y-29400D01*
X74610Y-29400D02*
X74640Y-29610D01*
X74920Y-29610D02*
X74880Y-29620D01*
X74940Y-29590D02*
X74920Y-29610D01*
X74950Y-29550D02*
X74940Y-29590D01*
X74910Y-29210D02*
X74950Y-29550D01*
X74990Y-29340D02*
X74860Y-29340D01*
X75240Y-29360D02*
X75270Y-29340D01*
X75270Y-29340D02*
X75310Y-29340D01*
X75310Y-29340D02*
X75360Y-29360D01*
X75360Y-29360D02*
X75380Y-29390D01*
X75380Y-29390D02*
X75390Y-29420D01*
X75390Y-29420D02*
X75410Y-29530D01*
X75410Y-29530D02*
X75390Y-29590D01*
X75390Y-29590D02*
X75350Y-29610D01*
X75350Y-29610D02*
X75300Y-29610D01*
X75300Y-29610D02*
X75270Y-29580D01*
X75230Y-29350D02*
X75270Y-29670D01*
X75270Y-29670D02*
X75300Y-29710D01*
X75300Y-29710D02*
X75310Y-29720D01*
X75310Y-29720D02*
X75320Y-29730D01*
X75320Y-29730D02*
X75340Y-29740D01*
X75340Y-29740D02*
X75380Y-29740D01*
X75380Y-29740D02*
X75400Y-29740D01*
X75400Y-29740D02*
X75420Y-29720D01*
X75710Y-29590D02*
X75730Y-29610D01*
X75730Y-29610D02*
X75790Y-29610D01*
X75790Y-29610D02*
X75830Y-29590D01*
X75830Y-29590D02*
X75840Y-29570D01*
X75840Y-29570D02*
X75850Y-29540D01*
X75850Y-29540D02*
X75830Y-29420D01*
X75830Y-29420D02*
X75820Y-29380D01*
X75820Y-29380D02*
X75790Y-29360D01*
X75790Y-29360D02*
X75760Y-29340D01*
X75760Y-29340D02*
X75720Y-29340D01*
X75720Y-29340D02*
X75680Y-29360D01*
X75660Y-29210D02*
X75710Y-29620D01*
X73230Y-29590D02*
X73240Y-29600D01*
X73230Y-29600D02*
X73230Y-29590D01*
X73240Y-29590D02*
X73230Y-29600D01*
X75080Y-29330D02*
X75120Y-29610D01*
X75070Y-29220D02*
X75060Y-29230D01*
X75060Y-29230D02*
X75060Y-29220D01*
X75060Y-29220D02*
X75070Y-29230D01*
X75500Y-29220D02*
X75510Y-29230D01*
X75500Y-29230D02*
X75500Y-29220D01*
X75510Y-29220D02*
X75500Y-29230D01*
X76270Y-29590D02*
X76280Y-29600D01*
X76270Y-29600D02*
X76270Y-29590D01*
X76280Y-29590D02*
X76270Y-29600D01*
X76260Y-29380D02*
X76250Y-29390D01*
X76250Y-29390D02*
X76250Y-29380D01*
X76250Y-29380D02*
X76260Y-29390D01*
X75520Y-29330D02*
X75560Y-29610D01*
X76570Y-29610D02*
X76480Y-29610D01*
X76480Y-29610D02*
X76410Y-29570D01*
X76410Y-29570D02*
X76390Y-29430D01*
X76390Y-29430D02*
X76400Y-29390D01*
X76400Y-29390D02*
X76430Y-29350D01*
X76430Y-29350D02*
X76470Y-29340D01*
X76470Y-29340D02*
X76490Y-29340D01*
X76490Y-29340D02*
X76530Y-29370D01*
X76530Y-29350D02*
X76590Y-29750D01*
X76710Y-29610D02*
X76670Y-29620D01*
X76730Y-29590D02*
X76710Y-29610D01*
X76740Y-29550D02*
X76730Y-29590D01*
X76700Y-29210D02*
X76740Y-29550D01*
X76780Y-29340D02*
X76650Y-29340D01*
X76960Y-29340D02*
X76830Y-29340D01*
X76880Y-29210D02*
X76920Y-29550D01*
X76920Y-29550D02*
X76910Y-29590D01*
X76910Y-29590D02*
X76890Y-29610D01*
X76890Y-29610D02*
X76850Y-29620D01*
X77190Y-29380D02*
X77160Y-29340D01*
X77160Y-29340D02*
X77100Y-29350D01*
X77100Y-29350D02*
X77070Y-29370D01*
X77070Y-29370D02*
X77060Y-29400D01*
X77060Y-29400D02*
X77090Y-29620D01*
X77170Y-29210D02*
X77220Y-29620D01*
X75900Y-29200D02*
X76050Y-29650D01*
X76050Y-29200D02*
X76200Y-29650D01*
X75160Y-29750D02*
X72660Y-29750D01*
X75510Y-29750D02*
X76410Y-29750D01*
X77250Y-29750D02*
X76700Y-29750D01*
G54D11*
X72590Y-28740D02*
X72590Y-28940D01*
X72670Y-28680D02*
X72650Y-28680D01*
X72650Y-28680D02*
X72610Y-28700D01*
X72610Y-28700D02*
X72590Y-28740D01*
X72710Y-28700D02*
X72670Y-28680D01*
X72710Y-28700D02*
X72770Y-28740D01*
X72770Y-28680D02*
X72770Y-28940D01*
X73010Y-28740D02*
X73010Y-28880D01*
X73010Y-28880D02*
X72990Y-28920D01*
X72990Y-28920D02*
X72950Y-28940D01*
X72950Y-28940D02*
X72910Y-28940D01*
X72910Y-28940D02*
X72870Y-28920D01*
X72870Y-28920D02*
X72850Y-28880D01*
X72850Y-28880D02*
X72850Y-28740D01*
X72850Y-28740D02*
X72870Y-28700D01*
X72870Y-28700D02*
X72910Y-28680D01*
X72910Y-28680D02*
X72930Y-28680D01*
X72950Y-28680D02*
X72990Y-28700D01*
X72990Y-28700D02*
X73010Y-28740D01*
X73210Y-28680D02*
X73110Y-28680D01*
X73210Y-28800D02*
X73150Y-28800D01*
X73210Y-28800D02*
X73250Y-28780D01*
X73250Y-28780D02*
X73270Y-28740D01*
X73270Y-28740D02*
X73250Y-28700D01*
X73250Y-28700D02*
X73210Y-28680D01*
X73250Y-28940D02*
X73150Y-28940D01*
X73150Y-28940D02*
X73110Y-28920D01*
X73110Y-28920D02*
X73090Y-28880D01*
X73090Y-28880D02*
X73090Y-28860D01*
X73090Y-28860D02*
X73110Y-28820D01*
X73110Y-28820D02*
X73150Y-28800D01*
X73350Y-28920D02*
X73310Y-28940D01*
X73370Y-28520D02*
X73370Y-28880D01*
X73370Y-28880D02*
X73350Y-28920D01*
X73650Y-28580D02*
X73650Y-28880D01*
X73650Y-28880D02*
X73630Y-28920D01*
X73630Y-28920D02*
X73590Y-28940D01*
X73590Y-28940D02*
X73510Y-28940D01*
X73510Y-28940D02*
X73470Y-28920D01*
X73470Y-28920D02*
X73450Y-28880D01*
X73450Y-28880D02*
X73450Y-28580D01*
X73450Y-28580D02*
X73470Y-28540D01*
X73470Y-28540D02*
X73510Y-28520D01*
X73510Y-28520D02*
X73590Y-28520D01*
X73590Y-28520D02*
X73630Y-28540D01*
X73630Y-28540D02*
X73650Y-28580D01*
X73950Y-28900D02*
X73930Y-28940D01*
X73950Y-28520D02*
X73950Y-28900D01*
X74030Y-28680D02*
X73870Y-28680D01*
X73990Y-28680D02*
X73950Y-28640D01*
X73910Y-28940D02*
X73930Y-28940D01*
X74130Y-28940D02*
X74150Y-28940D01*
X74210Y-28680D02*
X74170Y-28640D01*
X74250Y-28680D02*
X74090Y-28680D01*
X74170Y-28520D02*
X74170Y-28900D01*
X74170Y-28900D02*
X74150Y-28940D01*
X74450Y-28820D02*
X74450Y-28900D01*
X74450Y-28900D02*
X74410Y-28940D01*
X74310Y-28820D02*
X74370Y-28780D01*
X74370Y-28780D02*
X74410Y-28780D01*
X74410Y-28780D02*
X74450Y-28820D01*
X74410Y-28940D02*
X74370Y-28940D01*
X74370Y-28940D02*
X74310Y-28900D01*
X74410Y-28680D02*
X74330Y-28680D01*
X74330Y-28680D02*
X74310Y-28700D01*
X74310Y-28700D02*
X74310Y-28940D01*
X74430Y-28700D02*
X74410Y-28680D01*
X74490Y-28680D02*
X74590Y-29000D01*
X74590Y-29000D02*
X74630Y-29040D01*
X74630Y-28680D02*
X74570Y-28940D01*
X74850Y-28600D02*
X74770Y-28940D01*
X74770Y-28940D02*
X74670Y-28520D01*
X75030Y-28520D02*
X74930Y-28940D01*
X74930Y-28940D02*
X74830Y-28520D01*
G54D12*
X89030Y-38830D02*
X88990Y-39000D01*
X88990Y-39000D02*
X88960Y-39000D01*
X88960Y-39000D02*
X88910Y-38990D01*
X88910Y-38990D02*
X88890Y-38960D01*
X88890Y-38960D02*
X88890Y-38910D01*
X88890Y-38910D02*
X88910Y-38870D01*
X88910Y-38870D02*
X88950Y-38850D01*
X88950Y-38850D02*
X89100Y-38830D01*
X89100Y-38830D02*
X89140Y-38840D01*
X89140Y-38840D02*
X89160Y-38880D01*
X89160Y-38880D02*
X89160Y-38930D01*
X89160Y-38930D02*
X89130Y-38960D01*
X88900Y-38590D02*
X89160Y-38640D01*
X89160Y-38640D02*
X88890Y-38750D01*
X89140Y-39670D02*
X89160Y-39640D01*
X89160Y-39640D02*
X89160Y-39560D01*
X89160Y-39560D02*
X89140Y-39540D01*
X89140Y-39540D02*
X89110Y-39530D01*
X89110Y-39530D02*
X89070Y-39530D01*
X89070Y-39530D02*
X89040Y-39530D01*
X89040Y-39530D02*
X89020Y-39560D01*
X89020Y-39560D02*
X89010Y-39590D01*
X89010Y-39590D02*
X89010Y-39660D01*
X89010Y-39660D02*
X88990Y-39680D01*
X88920Y-39560D02*
X88890Y-39600D01*
X88890Y-39600D02*
X88890Y-39660D01*
X88890Y-39660D02*
X88910Y-39690D01*
X88910Y-39690D02*
X88950Y-39700D01*
X88950Y-39700D02*
X89160Y-39670D01*
X88950Y-38470D02*
X89160Y-38440D01*
X88910Y-38460D02*
X88950Y-38470D01*
X88890Y-38430D02*
X88910Y-38460D01*
X88890Y-38370D02*
X88890Y-38430D01*
X88920Y-38330D02*
X88890Y-38370D01*
X89010Y-38430D02*
X88990Y-38450D01*
X89010Y-38360D02*
X89010Y-38430D01*
X89020Y-38330D02*
X89010Y-38360D01*
X89040Y-38300D02*
X89020Y-38330D01*
X89070Y-38300D02*
X89040Y-38300D01*
X89110Y-38300D02*
X89070Y-38300D01*
X89140Y-38310D02*
X89110Y-38300D01*
X89160Y-38330D02*
X89140Y-38310D01*
X89160Y-38410D02*
X89160Y-38330D01*
X89140Y-38440D02*
X89160Y-38410D01*
X89160Y-39370D02*
X89140Y-39400D01*
X89160Y-39330D02*
X89160Y-39370D01*
X89150Y-39300D02*
X89160Y-39330D01*
X89120Y-39260D02*
X89150Y-39300D01*
X89020Y-39260D02*
X89120Y-39260D01*
X88970Y-39260D02*
X89020Y-39260D01*
X88940Y-39280D02*
X88970Y-39260D01*
X88910Y-39300D02*
X88940Y-39280D01*
X88890Y-39340D02*
X88910Y-39300D01*
X88890Y-39400D02*
X88890Y-39340D01*
X88920Y-39430D02*
X88890Y-39400D01*
X88920Y-38200D02*
X88890Y-38170D01*
X88890Y-38170D02*
X88890Y-38110D01*
X88890Y-38110D02*
X88910Y-38070D01*
X88910Y-38070D02*
X88940Y-38050D01*
X88940Y-38050D02*
X88970Y-38030D01*
X88970Y-38030D02*
X89020Y-38030D01*
X89020Y-38030D02*
X89120Y-38030D01*
X89120Y-38030D02*
X89150Y-38070D01*
X89150Y-38070D02*
X89160Y-38100D01*
X89160Y-38100D02*
X89160Y-38140D01*
X89160Y-38140D02*
X89140Y-38170D01*
X88770Y-37910D02*
X89110Y-37860D01*
X89110Y-37860D02*
X89140Y-37870D01*
X89140Y-37870D02*
X89170Y-37910D01*
X89140Y-37710D02*
X89160Y-37680D01*
X89160Y-37680D02*
X89160Y-37600D01*
X89160Y-37600D02*
X89140Y-37580D01*
X89140Y-37580D02*
X89110Y-37570D01*
X89110Y-37570D02*
X89070Y-37570D01*
X89070Y-37570D02*
X89040Y-37570D01*
X89040Y-37570D02*
X89020Y-37600D01*
X89020Y-37600D02*
X89010Y-37630D01*
X89010Y-37630D02*
X89010Y-37700D01*
X89010Y-37700D02*
X88990Y-37720D01*
X88920Y-37600D02*
X88890Y-37640D01*
X88890Y-37640D02*
X88890Y-37700D01*
X88890Y-37700D02*
X88910Y-37730D01*
X88910Y-37730D02*
X88950Y-37740D01*
X88950Y-37740D02*
X89160Y-37710D01*
X89160Y-37430D02*
X89170Y-37470D01*
X89140Y-37410D02*
X89160Y-37430D01*
X89100Y-37400D02*
X89140Y-37410D01*
X88760Y-37440D02*
X89100Y-37400D01*
X88890Y-37360D02*
X88890Y-37490D01*
X88910Y-37110D02*
X88890Y-37080D01*
X88890Y-37080D02*
X88890Y-37040D01*
X88890Y-37040D02*
X88910Y-36990D01*
X88910Y-36990D02*
X88940Y-36970D01*
X88940Y-36970D02*
X88970Y-36960D01*
X88970Y-36960D02*
X89080Y-36940D01*
X89080Y-36940D02*
X89140Y-36960D01*
X89140Y-36960D02*
X89160Y-37000D01*
X89160Y-37000D02*
X89160Y-37050D01*
X89160Y-37050D02*
X89130Y-37080D01*
X88900Y-37120D02*
X89220Y-37080D01*
X89220Y-37080D02*
X89260Y-37050D01*
X89260Y-37050D02*
X89270Y-37040D01*
X89270Y-37040D02*
X89280Y-37030D01*
X89280Y-37030D02*
X89290Y-37010D01*
X89290Y-37010D02*
X89290Y-36970D01*
X89290Y-36970D02*
X89290Y-36950D01*
X89290Y-36950D02*
X89270Y-36930D01*
X89140Y-36640D02*
X89160Y-36620D01*
X89160Y-36620D02*
X89160Y-36560D01*
X89160Y-36560D02*
X89140Y-36520D01*
X89140Y-36520D02*
X89120Y-36510D01*
X89120Y-36510D02*
X89090Y-36500D01*
X89090Y-36500D02*
X88970Y-36520D01*
X88970Y-36520D02*
X88930Y-36530D01*
X88930Y-36530D02*
X88910Y-36560D01*
X88910Y-36560D02*
X88890Y-36590D01*
X88890Y-36590D02*
X88890Y-36630D01*
X88890Y-36630D02*
X88910Y-36670D01*
X88760Y-36690D02*
X89170Y-36640D01*
X89140Y-39120D02*
X89150Y-39110D01*
X89150Y-39120D02*
X89140Y-39120D01*
X89140Y-39110D02*
X89150Y-39120D01*
X88880Y-37270D02*
X89160Y-37230D01*
X88770Y-37280D02*
X88780Y-37290D01*
X88780Y-37290D02*
X88770Y-37290D01*
X88770Y-37290D02*
X88780Y-37280D01*
X88770Y-36850D02*
X88780Y-36840D01*
X88780Y-36850D02*
X88770Y-36850D01*
X88770Y-36840D02*
X88780Y-36850D01*
X89140Y-36080D02*
X89150Y-36070D01*
X89150Y-36080D02*
X89140Y-36080D01*
X89140Y-36070D02*
X89150Y-36080D01*
X88930Y-36090D02*
X88940Y-36100D01*
X88940Y-36100D02*
X88930Y-36100D01*
X88930Y-36100D02*
X88940Y-36090D01*
X88880Y-36830D02*
X89160Y-36790D01*
X89160Y-35780D02*
X89160Y-35870D01*
X89160Y-35870D02*
X89120Y-35940D01*
X89120Y-35940D02*
X88980Y-35960D01*
X88980Y-35960D02*
X88940Y-35950D01*
X88940Y-35950D02*
X88900Y-35920D01*
X88900Y-35920D02*
X88890Y-35880D01*
X88890Y-35880D02*
X88890Y-35860D01*
X88890Y-35860D02*
X88920Y-35820D01*
X88900Y-35820D02*
X89300Y-35760D01*
X89160Y-35640D02*
X89170Y-35680D01*
X89140Y-35620D02*
X89160Y-35640D01*
X89100Y-35610D02*
X89140Y-35620D01*
X88760Y-35650D02*
X89100Y-35610D01*
X88890Y-35570D02*
X88890Y-35700D01*
X88890Y-35390D02*
X88890Y-35520D01*
X88760Y-35470D02*
X89100Y-35430D01*
X89100Y-35430D02*
X89140Y-35440D01*
X89140Y-35440D02*
X89160Y-35460D01*
X89160Y-35460D02*
X89170Y-35500D01*
X88930Y-35160D02*
X88890Y-35190D01*
X88890Y-35190D02*
X88900Y-35250D01*
X88900Y-35250D02*
X88920Y-35280D01*
X88920Y-35280D02*
X88950Y-35290D01*
X88950Y-35290D02*
X89170Y-35260D01*
X88760Y-35180D02*
X89170Y-35130D01*
X88750Y-36450D02*
X89200Y-36300D01*
X88750Y-36300D02*
X89200Y-36150D01*
X89300Y-37190D02*
X89300Y-39690D01*
X89300Y-36840D02*
X89300Y-35940D01*
X89300Y-35100D02*
X89300Y-35650D01*
G54D11*
X88290Y-37510D02*
X88490Y-37510D01*
X88230Y-37430D02*
X88230Y-37450D01*
X88230Y-37450D02*
X88250Y-37490D01*
X88250Y-37490D02*
X88290Y-37510D01*
X88250Y-37390D02*
X88230Y-37430D01*
X88250Y-37390D02*
X88290Y-37330D01*
X88230Y-37330D02*
X88490Y-37330D01*
X88290Y-37090D02*
X88430Y-37090D01*
X88430Y-37090D02*
X88470Y-37110D01*
X88470Y-37110D02*
X88490Y-37150D01*
X88490Y-37150D02*
X88490Y-37190D01*
X88490Y-37190D02*
X88470Y-37230D01*
X88470Y-37230D02*
X88430Y-37250D01*
X88430Y-37250D02*
X88290Y-37250D01*
X88290Y-37250D02*
X88250Y-37230D01*
X88250Y-37230D02*
X88230Y-37190D01*
X88230Y-37190D02*
X88230Y-37170D01*
X88230Y-37150D02*
X88250Y-37110D01*
X88250Y-37110D02*
X88290Y-37090D01*
X88230Y-36890D02*
X88230Y-36990D01*
X88350Y-36890D02*
X88350Y-36950D01*
X88350Y-36890D02*
X88330Y-36850D01*
X88330Y-36850D02*
X88290Y-36830D01*
X88290Y-36830D02*
X88250Y-36850D01*
X88250Y-36850D02*
X88230Y-36890D01*
X88490Y-36850D02*
X88490Y-36950D01*
X88490Y-36950D02*
X88470Y-36990D01*
X88470Y-36990D02*
X88430Y-37010D01*
X88430Y-37010D02*
X88410Y-37010D01*
X88410Y-37010D02*
X88370Y-36990D01*
X88370Y-36990D02*
X88350Y-36950D01*
X88470Y-36750D02*
X88490Y-36790D01*
X88070Y-36730D02*
X88430Y-36730D01*
X88430Y-36730D02*
X88470Y-36750D01*
X88130Y-36450D02*
X88430Y-36450D01*
X88430Y-36450D02*
X88470Y-36470D01*
X88470Y-36470D02*
X88490Y-36510D01*
X88490Y-36510D02*
X88490Y-36590D01*
X88490Y-36590D02*
X88470Y-36630D01*
X88470Y-36630D02*
X88430Y-36650D01*
X88430Y-36650D02*
X88130Y-36650D01*
X88130Y-36650D02*
X88090Y-36630D01*
X88090Y-36630D02*
X88070Y-36590D01*
X88070Y-36590D02*
X88070Y-36510D01*
X88070Y-36510D02*
X88090Y-36470D01*
X88090Y-36470D02*
X88130Y-36450D01*
X88450Y-36150D02*
X88490Y-36170D01*
X88070Y-36150D02*
X88450Y-36150D01*
X88230Y-36070D02*
X88230Y-36230D01*
X88230Y-36110D02*
X88190Y-36150D01*
X88490Y-36190D02*
X88490Y-36170D01*
X88490Y-35970D02*
X88490Y-35950D01*
X88230Y-35890D02*
X88190Y-35930D01*
X88230Y-35850D02*
X88230Y-36010D01*
X88070Y-35930D02*
X88450Y-35930D01*
X88450Y-35930D02*
X88490Y-35950D01*
X88370Y-35650D02*
X88450Y-35650D01*
X88450Y-35650D02*
X88490Y-35690D01*
X88370Y-35790D02*
X88330Y-35730D01*
X88330Y-35730D02*
X88330Y-35690D01*
X88330Y-35690D02*
X88370Y-35650D01*
X88490Y-35690D02*
X88490Y-35730D01*
X88490Y-35730D02*
X88450Y-35790D01*
X88230Y-35690D02*
X88230Y-35770D01*
X88230Y-35770D02*
X88250Y-35790D01*
X88250Y-35790D02*
X88490Y-35790D01*
X88250Y-35670D02*
X88230Y-35690D01*
X88230Y-35610D02*
X88550Y-35510D01*
X88550Y-35510D02*
X88590Y-35470D01*
X88230Y-35470D02*
X88490Y-35530D01*
X88150Y-35250D02*
X88490Y-35330D01*
X88490Y-35330D02*
X88070Y-35430D01*
X88070Y-35070D02*
X88490Y-35170D01*
X88490Y-35170D02*
X88070Y-35270D01*
G54D15*
X77023Y-30580D02*
X77138Y-30580D01*
X77080Y-30580D02*
X77080Y-30380D01*
X77100Y-30409D01*
X77119Y-30428D01*
X77138Y-30438D01*
X76938Y-30580D02*
X76938Y-30380D01*
X76919Y-30504D02*
X76861Y-30580D01*
X76861Y-30447D02*
X76938Y-30523D01*
X74023Y-30580D02*
X74138Y-30580D01*
X74080Y-30580D02*
X74080Y-30380D01*
X74100Y-30409D01*
X74119Y-30428D01*
X74138Y-30438D01*
X73938Y-30580D02*
X73938Y-30380D01*
X73919Y-30504D02*
X73861Y-30580D01*
X73861Y-30447D02*
X73938Y-30523D01*
X76273Y-30580D02*
X76388Y-30580D01*
X76330Y-30580D02*
X76330Y-30380D01*
X76350Y-30409D01*
X76369Y-30428D01*
X76388Y-30438D01*
X76188Y-30580D02*
X76188Y-30380D01*
X76169Y-30504D02*
X76111Y-30580D01*
X76111Y-30447D02*
X76188Y-30523D01*
X77773Y-28080D02*
X77888Y-28080D01*
X77830Y-28080D02*
X77830Y-27880D01*
X77850Y-27909D01*
X77869Y-27928D01*
X77888Y-27938D01*
X77688Y-28080D02*
X77688Y-27880D01*
X77669Y-28004D02*
X77611Y-28080D01*
X77611Y-27947D02*
X77688Y-28023D01*
X73273Y-30580D02*
X73388Y-30580D01*
X73330Y-30580D02*
X73330Y-30380D01*
X73350Y-30409D01*
X73369Y-30428D01*
X73388Y-30438D01*
X73188Y-30580D02*
X73188Y-30380D01*
X73169Y-30504D02*
X73111Y-30580D01*
X73111Y-30447D02*
X73188Y-30523D01*
X75523Y-30580D02*
X75638Y-30580D01*
X75580Y-30580D02*
X75580Y-30380D01*
X75600Y-30409D01*
X75619Y-30428D01*
X75638Y-30438D01*
X75438Y-30580D02*
X75438Y-30380D01*
X75419Y-30504D02*
X75361Y-30580D01*
X75361Y-30447D02*
X75438Y-30523D01*
X71773Y-30580D02*
X71888Y-30580D01*
X71830Y-30580D02*
X71830Y-30380D01*
X71850Y-30409D01*
X71869Y-30428D01*
X71888Y-30438D01*
X71688Y-30580D02*
X71688Y-30380D01*
X71669Y-30504D02*
X71611Y-30580D01*
X71611Y-30447D02*
X71688Y-30523D01*
X74773Y-30580D02*
X74888Y-30580D01*
X74830Y-30580D02*
X74830Y-30380D01*
X74850Y-30409D01*
X74869Y-30428D01*
X74888Y-30438D01*
X74688Y-30580D02*
X74688Y-30380D01*
X74669Y-30504D02*
X74611Y-30580D01*
X74611Y-30447D02*
X74688Y-30523D01*
X71023Y-30580D02*
X71138Y-30580D01*
X71080Y-30580D02*
X71080Y-30380D01*
X71100Y-30409D01*
X71119Y-30428D01*
X71138Y-30438D01*
X70938Y-30580D02*
X70938Y-30380D01*
X70919Y-30504D02*
X70861Y-30580D01*
X70861Y-30447D02*
X70938Y-30523D01*
M02*
