G04 (created by PCBNEW (2014-01-10 BZR 4027)-stable) date Thursday, November 27, 2014 'pmt' 01:46:01 pm*
%MOIN*%
G04 Gerber Fmt 3.4, Leading zero omitted, Abs format*
%FSLAX34Y34*%
G01*
G70*
G90*
G04 APERTURE LIST*
%ADD10C,0.00393701*%
%ADD11C,0.115748*%
%ADD12R,0.085748X0.085748*%
%ADD13R,0.075748X0.095748*%
%ADD14R,0.0944882X0.0748031*%
%ADD15R,0.106348X0.035448*%
%ADD16R,0.114148X0.094448*%
%ADD17C,0.051148*%
%ADD18R,0.031748X0.075748*%
%ADD19R,0.075748X0.031748*%
%ADD20R,0.040748X0.060748*%
%ADD21R,0.0944882X0.0314961*%
%ADD22R,0.0629921X0.0748031*%
%ADD23C,0.045748*%
%ADD24R,0.070748X0.070748*%
%ADD25C,0.070748*%
%ADD26R,0.045748X0.035748*%
%ADD27R,0.0314961X0.0708661*%
%ADD28R,0.0433071X0.0551181*%
%ADD29R,0.0610236X0.0629921*%
%ADD30R,0.0728346X0.0629921*%
%ADD31R,0.0551181X0.0433071*%
%ADD32R,0.0728346X0.0511811*%
%ADD33R,0.055148X0.047248*%
%ADD34R,0.060748X0.040748*%
%ADD35R,0.0748031X0.0748031*%
%ADD36R,0.075748X0.075748*%
%ADD37C,0.075748*%
%ADD38R,0.035748X0.045748*%
%ADD39R,0.095748X0.075748*%
%ADD40R,0.070748X0.050748*%
%ADD41R,0.0708661X0.0511811*%
%ADD42R,0.0708661X0.102362*%
G04 APERTURE END LIST*
G54D10*
G54D11*
X86350Y-40350D03*
X86350Y-33150D03*
G54D12*
X86350Y-36250D03*
X86350Y-35250D03*
X86350Y-34250D03*
X86350Y-36250D03*
X86350Y-35250D03*
X86350Y-34250D03*
G54D13*
X75350Y-40350D03*
X74350Y-40350D03*
X73350Y-40350D03*
X72350Y-40350D03*
X71350Y-40350D03*
X80350Y-40350D03*
X79350Y-40350D03*
X78350Y-40350D03*
X77350Y-40350D03*
X76350Y-40350D03*
X85350Y-40350D03*
X84350Y-40350D03*
X83350Y-40350D03*
X82350Y-40350D03*
X81350Y-40350D03*
X81350Y-33150D03*
X82350Y-33150D03*
X83350Y-33150D03*
X84350Y-33150D03*
X85350Y-33150D03*
X76350Y-33150D03*
X77350Y-33150D03*
X78350Y-33150D03*
X79350Y-33150D03*
X80350Y-33150D03*
X71350Y-33150D03*
X72350Y-33150D03*
X73350Y-33150D03*
X74350Y-33150D03*
X75350Y-33150D03*
G54D14*
X84327Y-36050D03*
X81572Y-36050D03*
X81572Y-34750D03*
X84327Y-34750D03*
G54D15*
X73108Y-36020D03*
X73108Y-36335D03*
X73108Y-36650D03*
X73108Y-36965D03*
X73108Y-37280D03*
G54D16*
X73069Y-34898D03*
X70904Y-34898D03*
X73069Y-38402D03*
X70904Y-38402D03*
G54D17*
X72085Y-35784D03*
X72085Y-37516D03*
G54D18*
X78150Y-34500D03*
X77835Y-34500D03*
X77520Y-34500D03*
X77205Y-34500D03*
X76890Y-34500D03*
X76575Y-34500D03*
X78465Y-34500D03*
X78780Y-34500D03*
X79095Y-34500D03*
X79410Y-34500D03*
X79725Y-34500D03*
X78150Y-39000D03*
X77835Y-39000D03*
X77520Y-39000D03*
X77205Y-39000D03*
X76890Y-39000D03*
X76575Y-39000D03*
X78465Y-39000D03*
X78780Y-39000D03*
X79095Y-39000D03*
X79410Y-39000D03*
X79725Y-39000D03*
G54D19*
X75900Y-36750D03*
X80400Y-36750D03*
X75900Y-37065D03*
X80400Y-37065D03*
X80400Y-37380D03*
X75900Y-37380D03*
X75900Y-37695D03*
X80400Y-37695D03*
X80400Y-38010D03*
X75900Y-38010D03*
X75900Y-38325D03*
X80400Y-38325D03*
X80400Y-36435D03*
X75900Y-36435D03*
X75900Y-36120D03*
X80400Y-36120D03*
X80400Y-35805D03*
X75900Y-35805D03*
X75900Y-35490D03*
X80400Y-35490D03*
X80400Y-35175D03*
X75900Y-35175D03*
G54D20*
X83150Y-39050D03*
X82550Y-39050D03*
X84350Y-39050D03*
X83750Y-39050D03*
X82550Y-38350D03*
X83150Y-38350D03*
X74250Y-35650D03*
X74850Y-35650D03*
X74250Y-34950D03*
X74850Y-34950D03*
X74250Y-36950D03*
X74850Y-36950D03*
X74250Y-37650D03*
X74850Y-37650D03*
X74850Y-38350D03*
X74250Y-38350D03*
X84350Y-38350D03*
X83750Y-38350D03*
X84350Y-37650D03*
X83750Y-37650D03*
G54D21*
X81609Y-39226D03*
X81609Y-38753D03*
X81609Y-38281D03*
G54D22*
X86143Y-37559D03*
X85356Y-37559D03*
X85356Y-38740D03*
X86143Y-38740D03*
G54D23*
X87000Y-39000D03*
X87000Y-38500D03*
X87000Y-38000D03*
G54D24*
X89300Y-31750D03*
G54D25*
X89300Y-30750D03*
X89300Y-29750D03*
X89300Y-28750D03*
X89300Y-27750D03*
G54D26*
X88475Y-30100D03*
X88475Y-29350D03*
X87475Y-30100D03*
X88475Y-29725D03*
X87475Y-29350D03*
G54D23*
X88000Y-32500D03*
X88500Y-32500D03*
X89000Y-32500D03*
X87000Y-30250D03*
X87000Y-29750D03*
X87000Y-29250D03*
G54D25*
X83265Y-23735D03*
X83265Y-24735D03*
X83265Y-25735D03*
X89265Y-23735D03*
X89265Y-24735D03*
X89265Y-25735D03*
G54D24*
X86250Y-31755D03*
G54D25*
X85250Y-31755D03*
X84250Y-31755D03*
X83250Y-31755D03*
X82250Y-31755D03*
X81250Y-31755D03*
X80250Y-31755D03*
X79250Y-31755D03*
G54D27*
X79390Y-30155D03*
X79640Y-30155D03*
X79900Y-30155D03*
X80150Y-30155D03*
X80410Y-30155D03*
X80665Y-30155D03*
X80920Y-30155D03*
X80920Y-27955D03*
X80665Y-27955D03*
X80410Y-27955D03*
X80150Y-27955D03*
X79895Y-27955D03*
X79640Y-27955D03*
X79385Y-27955D03*
G54D28*
X83833Y-29139D03*
X83400Y-29139D03*
X82967Y-29139D03*
X82534Y-29139D03*
X84266Y-29139D03*
X84699Y-29139D03*
X85132Y-29139D03*
X85565Y-29139D03*
G54D29*
X85988Y-28725D03*
X85988Y-27706D03*
G54D30*
X81894Y-28552D03*
G54D31*
X81805Y-28099D03*
G54D32*
X81894Y-27647D03*
G54D33*
X84017Y-30455D03*
X84883Y-30080D03*
X84883Y-30830D03*
G54D34*
X82250Y-30755D03*
X82250Y-30155D03*
X85950Y-30155D03*
X85950Y-30755D03*
X83150Y-30755D03*
X83150Y-30155D03*
G54D35*
X76750Y-27750D03*
G54D25*
X77750Y-31750D03*
X76750Y-31750D03*
X75750Y-31750D03*
X74750Y-31750D03*
X73750Y-31750D03*
X72750Y-31750D03*
X71750Y-31750D03*
X70750Y-31750D03*
X75750Y-27750D03*
X74750Y-27750D03*
X73750Y-27750D03*
X72750Y-27750D03*
G54D34*
X77750Y-28300D03*
X77750Y-27700D03*
G54D20*
X71450Y-27500D03*
X72050Y-27500D03*
X71450Y-28250D03*
X72050Y-28250D03*
G54D22*
X70856Y-30340D03*
X71643Y-30340D03*
X71643Y-29159D03*
X70856Y-29159D03*
X72856Y-30340D03*
X73643Y-30340D03*
X73643Y-29159D03*
X72856Y-29159D03*
X74856Y-30340D03*
X75643Y-30340D03*
X75643Y-29159D03*
X74856Y-29159D03*
X76856Y-30340D03*
X77643Y-30340D03*
X77643Y-29159D03*
X76856Y-29159D03*
G54D23*
X88000Y-27000D03*
X88500Y-27000D03*
X89000Y-27000D03*
X78500Y-30250D03*
X78500Y-29750D03*
X78500Y-29250D03*
G54D36*
X87987Y-33262D03*
G54D37*
X88987Y-33262D03*
G54D36*
X87987Y-40262D03*
G54D37*
X88987Y-40262D03*
G54D38*
X89112Y-34012D03*
X88362Y-34012D03*
X89112Y-35012D03*
X88737Y-34012D03*
X88362Y-35012D03*
G54D39*
X87987Y-35862D03*
X87987Y-37162D03*
G54D12*
X88987Y-39362D03*
X88987Y-38162D03*
G54D40*
X87987Y-38887D03*
X87987Y-38137D03*
G54D41*
X88987Y-36965D03*
G54D42*
X88987Y-35961D03*
G54D36*
X72750Y-25250D03*
G54D37*
X72750Y-24250D03*
X73750Y-25250D03*
X73750Y-24250D03*
X74750Y-25250D03*
X74750Y-24250D03*
X75750Y-25250D03*
X75750Y-24250D03*
X76750Y-25250D03*
X76750Y-24250D03*
X77750Y-25250D03*
X77750Y-24250D03*
X78750Y-25250D03*
X78750Y-24250D03*
X79750Y-25250D03*
X79750Y-24250D03*
G54D24*
X72750Y-26250D03*
G54D25*
X73750Y-26250D03*
X74750Y-26250D03*
X75750Y-26250D03*
X76750Y-26250D03*
X77750Y-26250D03*
X78750Y-26250D03*
X79750Y-26250D03*
X80750Y-26250D03*
X81750Y-26250D03*
G54D24*
X72750Y-23250D03*
G54D25*
X73750Y-23250D03*
X74750Y-23250D03*
X75750Y-23250D03*
X76750Y-23250D03*
X77750Y-23250D03*
X78750Y-23250D03*
X79750Y-23250D03*
X80750Y-23250D03*
X81750Y-23250D03*
G54D23*
X82500Y-25250D03*
X82500Y-24750D03*
X82500Y-24250D03*
G54D10*
G36*
X84831Y-23671D02*
X85221Y-23281D01*
X85708Y-23768D01*
X85318Y-24158D01*
X84831Y-23671D01*
X84831Y-23671D01*
G37*
G36*
X86821Y-25661D02*
X87211Y-25271D01*
X87698Y-25758D01*
X87308Y-26148D01*
X86821Y-25661D01*
X86821Y-25661D01*
G37*
G36*
X85228Y-23274D02*
X85617Y-22884D01*
X86104Y-23371D01*
X85715Y-23761D01*
X85228Y-23274D01*
X85228Y-23274D01*
G37*
G36*
X87218Y-25264D02*
X87608Y-24875D01*
X88095Y-25362D01*
X87705Y-25751D01*
X87218Y-25264D01*
X87218Y-25264D01*
G37*
G36*
X84434Y-24067D02*
X84824Y-23678D01*
X85311Y-24165D01*
X84921Y-24554D01*
X84434Y-24067D01*
X84434Y-24067D01*
G37*
G36*
X86425Y-26058D02*
X86814Y-25668D01*
X87301Y-26155D01*
X86912Y-26545D01*
X86425Y-26058D01*
X86425Y-26058D01*
G37*
G36*
X84497Y-25814D02*
X85109Y-25202D01*
X85777Y-25870D01*
X85165Y-26482D01*
X84497Y-25814D01*
X84497Y-25814D01*
G37*
G36*
X86752Y-23559D02*
X87364Y-22947D01*
X88032Y-23615D01*
X87420Y-24227D01*
X86752Y-23559D01*
X86752Y-23559D01*
G37*
M02*
