M48
;DRILL file {Pcbnew (2014-01-10 BZR 4027)-stable} date Thursday, November 27, 2014 'pmt' 01:46:04 pm
;FORMAT={-:-/ absolute / inch / decimal}
FMAT,2
INCH,TZ
T1C0.030
T2C0.035
%
G90
G05
M72
T1
X7.85Y-2.925
X7.85Y-2.975
X7.85Y-3.025
X8.25Y-2.425
X8.25Y-2.475
X8.25Y-2.525
X8.7Y-2.925
X8.7Y-2.975
X8.7Y-3.025
X8.7Y-3.8
X8.7Y-3.85
X8.7Y-3.9
X8.8Y-2.7
X8.8Y-3.25
X8.85Y-2.7
X8.85Y-3.25
X8.9Y-2.7
X8.9Y-3.25
T2
X7.2085Y-3.5784
X7.2085Y-3.7516
T0
M30
