M48
;DRILL file {KiCad (2015-07-22 BZR 5980)-product} date Tue 11 Aug 2015 09:31:32 PM MDT
;FORMAT={-:-/ absolute / inch / decimal}
FMAT,2
INCH,TZ
T1C0.014
T2C0.031
T3C0.032
T4C0.040
T5C0.120
T6C0.315
T7C0.335
%
G90
G05
M72
T1
X1.175Y-2.1
X1.175Y-2.35
X1.2Y-2.55
X1.225Y-1.75
X1.3Y-2.85
X1.3Y-2.9
X1.325Y-2.15
X1.35Y-1.65
X1.35Y-2.8
X1.4Y-2.85
X1.4Y-2.9
X1.4Y-3.2
X1.4Y-3.4
X1.475Y-1.75
X1.475Y-2.475
X1.525Y-2.1
X1.525Y-2.75
X1.525Y-4.15
X1.55Y-2.325
X1.55Y-2.725
X1.65Y-4.15
X1.675Y-2.1
X1.675Y-2.35
X1.7Y-2.55
X1.725Y-1.75
X1.8Y-2.8
X1.8Y-2.9
X1.825Y-2.15
X1.85Y-1.65
X1.85Y-2.75
X1.85Y-3.95
X1.85Y-4.075
X1.9Y-2.8
X1.9Y-2.9
X1.95Y-2.75
X1.95Y-3.95
X1.95Y-4.075
X1.975Y-1.75
X2.Y-2.8
X2.Y-3.
X2.025Y-2.1
X2.025Y-2.7
X2.05Y-2.325
X2.05Y-2.675
X2.075Y-2.8
X2.075Y-3.
X2.1Y-4.05
X2.1Y-4.2
X2.15Y-2.725
X2.175Y-2.1
X2.175Y-2.35
X2.2Y-2.55
X2.2Y-4.025
X2.2Y-4.2
X2.225Y-1.75
X2.3Y-2.75
X2.3Y-2.9
X2.3Y-4.
X2.3Y-4.2
X2.325Y-2.15
X2.35Y-1.65
X2.35Y-2.7
X2.4Y-2.75
X2.4Y-2.9
X2.4Y-3.975
X2.4Y-4.2
X2.45Y-4.725
X2.45Y-4.925
X2.475Y-1.75
X2.475Y-2.475
X2.5Y-3.85
X2.5Y-3.925
X2.525Y-2.1
X2.525Y-2.65
X2.55Y-2.325
X2.55Y-2.625
X2.55Y-3.6
X2.55Y-3.675
X2.55Y-4.75
X2.55Y-4.9
X2.65Y-2.675
X2.65Y-4.775
X2.65Y-4.875
X2.675Y-2.1
X2.675Y-2.35
X2.7Y-2.55
X2.725Y-1.75
X2.75Y-3.2
X2.75Y-3.3
X2.75Y-4.8
X2.75Y-4.85
X2.8Y-2.7
X2.8Y-2.9
X2.825Y-2.15
X2.85Y-1.65
X2.85Y-2.65
X2.85Y-4.675
X2.85Y-4.975
X2.9Y-2.7
X2.9Y-2.9
X2.95Y-4.125
X2.95Y-4.65
X2.95Y-5.
X2.975Y-1.75
X3.Y-2.65
X3.025Y-2.1
X3.025Y-2.6
X3.05Y-2.325
X3.05Y-2.575
X3.05Y-4.625
X3.05Y-5.025
X3.15Y-4.625
X3.15Y-5.025
X3.175Y-2.1
X3.175Y-2.4
X3.175Y-2.65
X3.2Y-2.55
X3.2Y-3.2
X3.2Y-3.3
X3.225Y-1.75
X3.225Y-3.45
X3.25Y-4.65
X3.25Y-5.
X3.3Y-2.6
X3.3Y-3.525
X3.325Y-2.15
X3.35Y-1.65
X3.35Y-2.65
X3.35Y-4.675
X3.35Y-4.975
X3.4Y-2.575
X3.425Y-2.925
X3.425Y-3.4
X3.425Y-3.6
X3.425Y-3.75
X3.425Y-4.05
X3.45Y-2.95
X3.45Y-3.425
X3.45Y-3.575
X3.45Y-3.775
X3.45Y-4.025
X3.45Y-4.8
X3.45Y-4.85
X3.475Y-1.75
X3.475Y-2.55
X3.525Y-2.1
X3.525Y-2.5
X3.525Y-3.025
X3.55Y-2.325
X3.55Y-2.475
X3.55Y-3.55
X3.55Y-4.775
X3.55Y-4.875
X3.575Y-3.875
X3.575Y-4.2
X3.65Y-4.75
X3.65Y-4.9
X3.675Y-2.1
X3.675Y-2.375
X3.675Y-2.525
X3.675Y-3.45
X3.675Y-4.325
X3.7Y-2.775
X3.7Y-2.95
X3.7Y-3.175
X3.7Y-3.3
X3.725Y-1.75
X3.725Y-4.325
X3.75Y-2.525
X3.75Y-2.7
X3.75Y-2.85
X3.75Y-3.075
X3.75Y-3.25
X3.75Y-3.375
X3.75Y-3.55
X3.75Y-4.725
X3.75Y-4.925
X3.8Y-2.375
X3.8Y-2.525
X3.825Y-2.15
X3.85Y-1.65
X3.85Y-2.375
X3.85Y-3.8
X3.85Y-4.325
X3.875Y-3.825
X3.875Y-4.375
X3.9Y-2.525
X3.9Y-4.325
X3.95Y-2.425
X3.95Y-2.5
X3.95Y-2.675
X3.95Y-3.125
X3.975Y-1.75
X3.975Y-3.1
X3.975Y-3.5
X3.975Y-3.825
X3.975Y-4.1
X3.975Y-4.225
X4.Y-3.15
X4.Y-3.475
X4.Y-3.85
X4.Y-3.975
X4.025Y-2.1
X4.025Y-2.325
X4.025Y-2.475
X4.025Y-3.175
X4.025Y-3.45
X4.025Y-3.825
X4.025Y-4.
X4.05Y-3.15
X4.05Y-3.425
X4.05Y-3.85
X4.05Y-3.975
X4.075Y-3.825
X4.075Y-4.
X4.1Y-1.725
X4.1Y-2.35
X4.125Y-1.65
X4.125Y-2.275
X4.125Y-3.825
X4.125Y-4.
X4.15Y-1.575
X4.15Y-2.2
X4.15Y-3.125
X4.2Y-1.2
X4.2Y-1.575
X4.2Y-1.65
X4.2Y-1.725
X4.2Y-2.2
X4.2Y-2.275
X4.2Y-2.35
X4.2Y-2.425
X4.2Y-2.6
X4.225Y-2.575
X4.25Y-2.55
X4.275Y-2.525
X4.325Y-2.65
X4.35Y-4.3
X4.4Y-3.525
X4.4Y-3.7
X4.425Y-1.75
X4.425Y-1.825
X4.5Y-1.95
X4.5Y-2.
X4.525Y-1.925
X4.525Y-1.975
X4.525Y-2.025
X4.55Y-1.9
X4.55Y-1.95
X4.55Y-2.
X4.55Y-2.05
X4.575Y-1.625
X4.575Y-1.925
X4.575Y-1.975
X4.575Y-2.025
X4.575Y-2.075
X4.575Y-3.725
X4.575Y-4.275
X4.6Y-1.6
X4.6Y-1.65
X4.6Y-1.9
X4.6Y-2.375
X4.6Y-2.475
X4.625Y-1.625
X4.65Y-1.6
X4.675Y-1.625
X4.7Y-1.6
X4.7Y-1.65
X4.7Y-1.85
X4.725Y-1.625
X4.725Y-1.875
X4.725Y-2.
X4.725Y-2.05
X4.725Y-2.1
X4.75Y-1.85
X4.75Y-1.9
X4.75Y-2.15
X4.75Y-2.45
X4.75Y-2.5
T2
X2.95Y-4.3
X2.95Y-4.3984
X3.3Y-4.3
X3.3Y-4.3984
X4.2516Y-1.925
X4.35Y-1.925
T3
X3.95Y-4.625
X3.95Y-5.025
X4.05Y-4.625
X4.05Y-5.025
X4.15Y-4.625
X4.15Y-5.025
X4.25Y-4.625
X4.25Y-5.025
X4.35Y-4.625
X4.35Y-5.025
X4.45Y-4.625
X4.45Y-5.025
X4.55Y-4.625
X4.55Y-5.025
T4
X1.1Y-4.45
X1.2Y-1.3
X1.2Y-4.45
X1.3Y-1.3
X1.3Y-4.45
X1.35Y-3.15
X1.35Y-3.75
X1.4Y-1.3
X1.4Y-4.45
X1.45Y-3.15
X1.45Y-3.25
X1.45Y-3.75
X1.5Y-1.3
X1.5Y-4.45
X1.55Y-3.15
X1.55Y-3.75
X1.6Y-1.3
X1.6Y-4.45
X1.65Y-3.15
X1.65Y-3.25
X1.65Y-3.75
X1.7Y-1.3
X1.7Y-4.45
X1.75Y-3.15
X1.75Y-3.25
X1.75Y-3.75
X1.8Y-1.3
X1.8Y-4.45
X1.85Y-3.15
X1.85Y-3.25
X1.85Y-3.75
X1.9Y-1.3
X1.9Y-4.45
X1.95Y-3.15
X1.95Y-3.35
X1.95Y-3.45
X1.95Y-3.75
X2.Y-1.3
X2.Y-4.45
X2.05Y-3.15
X2.05Y-3.35
X2.05Y-3.45
X2.05Y-3.75
X2.1Y-1.3
X2.1Y-4.45
X2.15Y-3.15
X2.15Y-3.35
X2.15Y-3.45
X2.15Y-3.75
X2.2Y-1.3
X2.2Y-4.45
X2.25Y-3.15
X2.25Y-3.35
X2.25Y-3.45
X2.25Y-3.75
X2.3Y-1.3
X2.3Y-4.45
X2.35Y-3.15
X2.35Y-3.35
X2.35Y-3.45
X2.35Y-3.75
X2.4Y-1.3
X2.4Y-4.45
X2.45Y-3.15
X2.45Y-3.35
X2.45Y-3.45
X2.45Y-3.75
X2.45Y-4.575
X2.45Y-5.075
X2.5Y-1.3
X2.5Y-4.45
X2.55Y-3.15
X2.55Y-3.35
X2.55Y-3.45
X2.55Y-3.75
X2.55Y-4.575
X2.55Y-5.075
X2.6Y-1.3
X2.6Y-4.45
X2.65Y-3.15
X2.65Y-3.25
X2.65Y-3.35
X2.65Y-3.45
X2.65Y-3.55
X2.65Y-3.65
X2.65Y-3.75
X2.65Y-4.575
X2.65Y-5.075
X2.7Y-1.3
X2.75Y-4.575
X2.75Y-5.075
X2.8Y-1.3
X2.85Y-4.575
X2.85Y-5.075
X2.9Y-1.3
X2.95Y-4.575
X2.95Y-5.075
X3.Y-1.3
X3.05Y-4.575
X3.05Y-5.075
X3.1Y-1.3
X3.15Y-4.575
X3.15Y-5.075
X3.2Y-1.3
X3.25Y-4.575
X3.25Y-5.075
X3.3Y-1.3
X3.35Y-4.575
X3.35Y-5.075
X3.4Y-1.3
X3.45Y-4.575
X3.45Y-5.075
X3.5Y-1.3
X3.55Y-4.575
X3.55Y-5.075
X3.575Y-4.45
X3.6Y-1.3
X3.65Y-4.575
X3.65Y-5.075
X3.675Y-4.45
X3.7Y-1.3
X3.75Y-4.575
X3.75Y-5.075
X3.775Y-4.45
X3.8Y-1.3
X3.875Y-4.45
X3.9Y-1.3
X3.975Y-4.45
X4.Y-1.3
X4.8Y-1.225
X4.9Y-1.225
T5
X1.15Y-1.525
X1.15Y-3.975
X4.875Y-1.525
X4.875Y-3.975
T6
X2.0494Y-4.825
T7
X1.325Y-4.825
T0
M30
