G04 #@! TF.FileFunction,Legend,Bot*
%FSLAX46Y46*%
G04 Gerber Fmt 4.6, Leading zero omitted, Abs format (unit mm)*
G04 Created by KiCad (PCBNEW (2015-07-22 BZR 5980)-product) date Tue 11 Aug 2015 09:40:34 PM MDT*
%MOMM*%
G01*
G04 APERTURE LIST*
%ADD10C,0.150000*%
%ADD11C,0.200000*%
%ADD12C,0.203200*%
%ADD13C,0.190500*%
G04 APERTURE END LIST*
D10*
D11*
X111760000Y-118745000D02*
X111760000Y-116205000D01*
X110490000Y-120015000D02*
X111760000Y-118745000D01*
X110490000Y-125095000D02*
X110490000Y-120015000D01*
X111760000Y-126365000D02*
X110490000Y-125095000D01*
X111760000Y-128905000D02*
X111760000Y-126365000D01*
X100965000Y-120015000D02*
G75*
G03X100965000Y-120015000I-635000J0D01*
G01*
D12*
X104648000Y-121539000D02*
G75*
G03X104648000Y-121539000I-254000J0D01*
G01*
X106934000Y-121031000D02*
X103886000Y-121031000D01*
X103886000Y-121031000D02*
X103886000Y-124079000D01*
X103886000Y-124079000D02*
X106934000Y-124079000D01*
X106934000Y-124079000D02*
X106934000Y-121031000D01*
D10*
X111760000Y-121285000D02*
X111760000Y-120777000D01*
X111760000Y-120777000D02*
X111252000Y-120777000D01*
X111252000Y-120777000D02*
X111252000Y-121285000D01*
X111252000Y-121285000D02*
X111760000Y-121285000D01*
X111760000Y-122047000D02*
X111760000Y-121539000D01*
X111760000Y-121539000D02*
X111252000Y-121539000D01*
X111252000Y-121539000D02*
X111252000Y-122047000D01*
X111252000Y-122047000D02*
X111760000Y-122047000D01*
X111760000Y-122809000D02*
X111760000Y-122301000D01*
X111760000Y-122301000D02*
X111252000Y-122301000D01*
X111252000Y-122301000D02*
X111252000Y-122809000D01*
X111252000Y-122809000D02*
X111760000Y-122809000D01*
X111760000Y-123571000D02*
X111760000Y-123063000D01*
X111760000Y-123063000D02*
X111252000Y-123063000D01*
X111252000Y-123063000D02*
X111252000Y-123571000D01*
X111252000Y-123571000D02*
X111760000Y-123571000D01*
X111760000Y-124333000D02*
X111760000Y-123825000D01*
X111760000Y-123825000D02*
X111252000Y-123825000D01*
X111252000Y-123825000D02*
X111252000Y-124333000D01*
X111252000Y-124333000D02*
X111760000Y-124333000D01*
X112395000Y-124968000D02*
X112395000Y-124460000D01*
X112395000Y-124460000D02*
X111887000Y-124460000D01*
X111887000Y-124460000D02*
X111887000Y-124968000D01*
X111887000Y-124968000D02*
X112395000Y-124968000D01*
X113157000Y-124460000D02*
X112649000Y-124460000D01*
X112649000Y-124460000D02*
X112649000Y-124968000D01*
X112649000Y-124968000D02*
X113157000Y-124968000D01*
X113157000Y-124968000D02*
X113157000Y-124460000D01*
X113919000Y-124460000D02*
X113411000Y-124460000D01*
X113411000Y-124460000D02*
X113411000Y-124968000D01*
X113411000Y-124968000D02*
X113919000Y-124968000D01*
X113919000Y-124968000D02*
X113919000Y-124460000D01*
X114554000Y-123825000D02*
X114046000Y-123825000D01*
X114046000Y-123825000D02*
X114046000Y-124333000D01*
X114046000Y-124333000D02*
X114554000Y-124333000D01*
X114554000Y-124333000D02*
X114554000Y-123825000D01*
X114046000Y-123063000D02*
X114554000Y-123063000D01*
X114554000Y-123063000D02*
X114554000Y-123571000D01*
X114554000Y-123571000D02*
X114046000Y-123571000D01*
X114046000Y-123571000D02*
X114046000Y-123063000D01*
X114554000Y-122301000D02*
X114046000Y-122301000D01*
X114046000Y-122301000D02*
X114046000Y-122809000D01*
X114046000Y-122809000D02*
X114554000Y-122809000D01*
X114554000Y-122809000D02*
X114554000Y-122301000D01*
X114046000Y-121539000D02*
X114554000Y-121539000D01*
X114554000Y-121539000D02*
X114554000Y-122047000D01*
X114554000Y-122047000D02*
X114046000Y-122047000D01*
X114046000Y-122047000D02*
X114046000Y-121539000D01*
X112649000Y-123063000D02*
X113157000Y-123063000D01*
X113157000Y-123063000D02*
X113157000Y-123571000D01*
X113157000Y-123571000D02*
X112649000Y-123571000D01*
X112649000Y-123571000D02*
X112649000Y-123063000D01*
X112649000Y-122301000D02*
X112649000Y-122809000D01*
X112649000Y-122809000D02*
X113157000Y-122809000D01*
X112649000Y-122301000D02*
X113157000Y-122301000D01*
X113157000Y-122301000D02*
X113157000Y-122809000D01*
X113157000Y-121539000D02*
X112649000Y-121539000D01*
X112649000Y-121539000D02*
X112649000Y-122047000D01*
X112649000Y-122047000D02*
X113157000Y-122047000D01*
X113157000Y-122047000D02*
X113157000Y-121539000D01*
X113157000Y-120777000D02*
X112649000Y-120777000D01*
X112649000Y-120777000D02*
X112649000Y-121285000D01*
X112649000Y-121285000D02*
X113157000Y-121285000D01*
X113157000Y-121285000D02*
X113157000Y-120777000D01*
X113792000Y-120650000D02*
X113792000Y-120142000D01*
X113792000Y-120142000D02*
X113284000Y-120142000D01*
X113284000Y-120142000D02*
X113284000Y-120650000D01*
X113284000Y-120650000D02*
X113792000Y-120650000D01*
X114554000Y-120650000D02*
X114554000Y-120142000D01*
X114554000Y-120142000D02*
X114046000Y-120142000D01*
X114046000Y-120142000D02*
X114046000Y-120650000D01*
X114046000Y-120650000D02*
X114554000Y-120650000D01*
X115316000Y-120650000D02*
X115316000Y-120142000D01*
X115316000Y-120142000D02*
X114808000Y-120142000D01*
X114808000Y-120142000D02*
X114808000Y-120650000D01*
X114808000Y-120650000D02*
X115316000Y-120650000D01*
X115951000Y-121285000D02*
X115443000Y-121285000D01*
X115443000Y-121285000D02*
X115443000Y-120777000D01*
X115443000Y-120777000D02*
X115951000Y-120777000D01*
X115951000Y-120777000D02*
X115951000Y-121285000D01*
X115951000Y-122047000D02*
X115443000Y-122047000D01*
X115443000Y-122047000D02*
X115443000Y-121539000D01*
X115443000Y-121539000D02*
X115951000Y-121539000D01*
X115951000Y-121539000D02*
X115951000Y-122047000D01*
X115951000Y-122809000D02*
X115443000Y-122809000D01*
X115443000Y-122809000D02*
X115443000Y-122301000D01*
X115443000Y-122301000D02*
X115951000Y-122301000D01*
X115951000Y-122301000D02*
X115951000Y-122809000D01*
X115951000Y-123571000D02*
X115443000Y-123571000D01*
X115443000Y-123571000D02*
X115443000Y-123063000D01*
X115443000Y-123063000D02*
X115951000Y-123063000D01*
X115951000Y-123063000D02*
X115951000Y-123571000D01*
X115951000Y-124333000D02*
X115443000Y-124333000D01*
X115443000Y-124333000D02*
X115443000Y-123825000D01*
X115443000Y-123825000D02*
X115951000Y-123825000D01*
X115951000Y-123825000D02*
X115951000Y-124333000D01*
D13*
X103214714Y-119779144D02*
X102452714Y-119779144D01*
X102997000Y-120033144D01*
X102452714Y-120287144D01*
X103214714Y-120287144D01*
X103178429Y-120613715D02*
X103214714Y-120722572D01*
X103214714Y-120904001D01*
X103178429Y-120976572D01*
X103142143Y-121012858D01*
X103069571Y-121049143D01*
X102997000Y-121049143D01*
X102924429Y-121012858D01*
X102888143Y-120976572D01*
X102851857Y-120904001D01*
X102815571Y-120758858D01*
X102779286Y-120686286D01*
X102743000Y-120650001D01*
X102670429Y-120613715D01*
X102597857Y-120613715D01*
X102525286Y-120650001D01*
X102489000Y-120686286D01*
X102452714Y-120758858D01*
X102452714Y-120940286D01*
X102489000Y-121049143D01*
X103178429Y-121339429D02*
X103214714Y-121448286D01*
X103214714Y-121629715D01*
X103178429Y-121702286D01*
X103142143Y-121738572D01*
X103069571Y-121774857D01*
X102997000Y-121774857D01*
X102924429Y-121738572D01*
X102888143Y-121702286D01*
X102851857Y-121629715D01*
X102815571Y-121484572D01*
X102779286Y-121412000D01*
X102743000Y-121375715D01*
X102670429Y-121339429D01*
X102597857Y-121339429D01*
X102525286Y-121375715D01*
X102489000Y-121412000D01*
X102452714Y-121484572D01*
X102452714Y-121666000D01*
X102489000Y-121774857D01*
X102452714Y-122246571D02*
X102452714Y-122391714D01*
X102489000Y-122464286D01*
X102561571Y-122536857D01*
X102706714Y-122573143D01*
X102960714Y-122573143D01*
X103105857Y-122536857D01*
X103178429Y-122464286D01*
X103214714Y-122391714D01*
X103214714Y-122246571D01*
X103178429Y-122174000D01*
X103105857Y-122101429D01*
X102960714Y-122065143D01*
X102706714Y-122065143D01*
X102561571Y-122101429D01*
X102489000Y-122174000D01*
X102452714Y-122246571D01*
X103214714Y-122899715D02*
X102452714Y-122899715D01*
X102452714Y-123190000D01*
X102489000Y-123262572D01*
X102525286Y-123298857D01*
X102597857Y-123335143D01*
X102706714Y-123335143D01*
X102779286Y-123298857D01*
X102815571Y-123262572D01*
X102851857Y-123190000D01*
X102851857Y-122899715D01*
X103287286Y-123480286D02*
X103287286Y-124060857D01*
X103214714Y-124641428D02*
X103214714Y-124206000D01*
X103214714Y-124423714D02*
X102452714Y-124423714D01*
X102561571Y-124351143D01*
X102634143Y-124278571D01*
X102670429Y-124206000D01*
X102452714Y-125113142D02*
X102452714Y-125185714D01*
X102489000Y-125258285D01*
X102525286Y-125294571D01*
X102597857Y-125330857D01*
X102743000Y-125367142D01*
X102924429Y-125367142D01*
X103069571Y-125330857D01*
X103142143Y-125294571D01*
X103178429Y-125258285D01*
X103214714Y-125185714D01*
X103214714Y-125113142D01*
X103178429Y-125040571D01*
X103142143Y-125004285D01*
X103069571Y-124968000D01*
X102924429Y-124931714D01*
X102743000Y-124931714D01*
X102597857Y-124968000D01*
X102525286Y-125004285D01*
X102489000Y-125040571D01*
X102452714Y-125113142D01*
M02*
