M48
;DRILL file {KiCad (2015-07-22 BZR 5980)-product} date Thu 23 Jul 2015 09:03:11 PM MDT
;FORMAT={-:-/ absolute / inch / decimal}
FMAT,2
INCH,TZ
T1C0.014
T2C0.031
T3C0.040
T4C0.120
%
G90
G05
M72
T1
X2.325Y-2.75
X2.325Y-3.
X2.35Y-3.2
X2.375Y-2.4
X2.45Y-3.5
X2.45Y-3.55
X2.475Y-2.8
X2.5Y-2.3
X2.5Y-3.5
X2.5Y-3.6
X2.525Y-4.75
X2.55Y-3.5
X2.55Y-3.55
X2.625Y-2.4
X2.625Y-3.125
X2.675Y-2.75
X2.675Y-3.4
X2.7Y-2.975
X2.7Y-3.375
X2.825Y-2.75
X2.825Y-3.
X2.825Y-4.75
X2.85Y-3.2
X2.875Y-2.4
X2.95Y-3.45
X2.95Y-3.55
X2.95Y-4.025
X2.975Y-2.8
X2.975Y-4.05
X3.Y-2.3
X3.Y-3.025
X3.Y-3.4
X3.Y-4.6
X3.Y-4.725
X3.05Y-3.025
X3.05Y-3.45
X3.05Y-3.55
X3.1Y-4.6
X3.1Y-4.725
X3.125Y-2.4
X3.175Y-2.75
X3.175Y-3.35
X3.175Y-3.45
X3.175Y-3.65
X3.2Y-2.975
X3.2Y-3.325
X3.225Y-3.45
X3.225Y-3.65
X3.25Y-4.7
X3.25Y-4.85
X3.325Y-2.75
X3.325Y-3.
X3.35Y-3.2
X3.35Y-4.675
X3.35Y-4.85
X3.375Y-2.4
X3.45Y-3.025
X3.45Y-3.4
X3.45Y-3.55
X3.45Y-4.65
X3.45Y-4.85
X3.475Y-2.8
X3.5Y-2.3
X3.5Y-3.025
X3.5Y-3.35
X3.5Y-4.325
X3.525Y-4.3
X3.55Y-3.4
X3.55Y-3.55
X3.55Y-4.625
X3.55Y-4.85
X3.625Y-2.4
X3.625Y-3.125
X3.675Y-2.75
X3.675Y-3.3
X3.675Y-4.3
X3.7Y-2.975
X3.7Y-3.275
X3.7Y-4.325
X3.7Y-4.525
X3.75Y-4.525
X3.8Y-4.575
X3.825Y-2.75
X3.825Y-3.
X3.85Y-3.2
X3.875Y-2.4
X3.95Y-3.025
X3.95Y-3.35
X3.95Y-3.55
X3.975Y-2.8
X4.Y-2.3
X4.Y-3.025
X4.Y-3.3
X4.05Y-3.025
X4.05Y-3.35
X4.05Y-3.55
X4.125Y-2.4
X4.175Y-2.75
X4.175Y-3.25
X4.2Y-2.975
X4.2Y-3.225
X4.325Y-2.75
X4.325Y-3.025
X4.35Y-3.2
X4.35Y-4.1
X4.35Y-4.975
X4.375Y-2.4
X4.4Y-4.975
X4.45Y-3.
X4.475Y-2.8
X4.5Y-2.3
X4.5Y-3.
X4.5Y-3.2
X4.5Y-3.25
X4.525Y-4.475
X4.525Y-4.975
X4.55Y-3.225
X4.55Y-4.5
X4.55Y-5.025
X4.575Y-3.575
X4.575Y-4.
X4.575Y-4.25
X4.575Y-4.475
X4.575Y-4.7
X4.575Y-4.975
X4.6Y-3.6
X4.6Y-4.025
X4.6Y-4.225
X4.6Y-4.5
X4.6Y-4.675
X4.625Y-2.4
X4.65Y-4.75
X4.65Y-4.875
X4.675Y-2.75
X4.675Y-3.15
X4.7Y-2.975
X4.7Y-3.125
X4.725Y-3.65
X4.725Y-3.775
X4.725Y-4.1
X4.825Y-2.75
X4.825Y-3.025
X4.875Y-2.4
X4.9Y-3.175
X4.95Y-3.025
X4.95Y-3.175
X4.975Y-2.8
X5.Y-2.3
X5.Y-3.025
X5.Y-3.075
X5.05Y-3.175
X5.1Y-3.075
X5.1Y-3.15
X5.1Y-3.325
X5.1Y-3.775
X5.125Y-2.4
X5.125Y-3.75
X5.125Y-4.075
X5.125Y-4.475
X5.125Y-4.75
X5.15Y-3.8
X5.15Y-4.025
X5.15Y-4.5
X5.15Y-4.625
X5.175Y-2.75
X5.175Y-2.975
X5.175Y-3.125
X5.175Y-3.825
X5.175Y-4.
X5.175Y-4.475
X5.175Y-4.65
X5.2Y-3.8
X5.2Y-4.025
X5.2Y-4.5
X5.2Y-4.625
X5.225Y-4.475
X5.225Y-4.65
X5.25Y-2.375
X5.25Y-3.
X5.275Y-2.3
X5.275Y-2.925
X5.3Y-2.225
X5.3Y-2.85
X5.325Y-1.825
X5.35Y-2.225
X5.35Y-2.3
X5.35Y-2.375
X5.35Y-2.85
X5.35Y-2.925
X5.35Y-3.
X5.35Y-3.075
X5.35Y-3.25
X5.375Y-3.225
X5.4Y-3.2
X5.425Y-3.175
X5.525Y-4.475
X5.525Y-4.65
X5.575Y-2.4
X5.575Y-2.475
X5.65Y-2.6
X5.65Y-2.65
X5.675Y-2.575
X5.675Y-2.625
X5.675Y-2.675
X5.7Y-2.55
X5.7Y-2.6
X5.7Y-2.65
X5.7Y-2.7
X5.725Y-2.275
X5.725Y-2.575
X5.725Y-2.625
X5.725Y-2.675
X5.725Y-2.725
X5.75Y-2.25
X5.75Y-2.3
X5.75Y-2.55
X5.75Y-2.8
X5.775Y-2.275
X5.8Y-2.25
X5.8Y-4.95
X5.825Y-2.275
X5.85Y-2.25
X5.85Y-2.3
X5.85Y-2.5
X5.85Y-4.35
X5.875Y-2.275
X5.875Y-2.525
X5.875Y-2.65
X5.875Y-2.7
X5.875Y-2.75
X5.9Y-2.5
X5.9Y-2.55
X5.9Y-2.8
X6.025Y-4.375
X6.025Y-4.925
T2
X2.25Y-3.675
X2.3484Y-3.675
X2.95Y-4.8016
X2.95Y-4.9
X5.4016Y-2.575
X5.5Y-2.575
T3
X2.25Y-5.1
X2.35Y-1.95
X2.35Y-5.1
X2.45Y-1.95
X2.45Y-5.1
X2.5Y-3.8
X2.5Y-4.4
X2.55Y-1.95
X2.55Y-5.1
X2.6Y-3.8
X2.6Y-3.9
X2.6Y-4.4
X2.65Y-1.95
X2.65Y-5.1
X2.7Y-3.8
X2.7Y-4.4
X2.75Y-1.95
X2.75Y-5.1
X2.8Y-3.8
X2.8Y-3.9
X2.8Y-4.4
X2.85Y-1.95
X2.85Y-5.1
X2.9Y-3.8
X2.9Y-3.9
X2.9Y-4.4
X2.95Y-1.95
X2.95Y-5.1
X3.Y-3.8
X3.Y-3.9
X3.Y-4.4
X3.05Y-1.95
X3.05Y-5.1
X3.1Y-3.8
X3.1Y-4.
X3.1Y-4.1
X3.1Y-4.4
X3.15Y-1.95
X3.15Y-5.1
X3.2Y-3.8
X3.2Y-4.
X3.2Y-4.1
X3.2Y-4.4
X3.25Y-1.95
X3.25Y-5.1
X3.3Y-3.8
X3.3Y-4.
X3.3Y-4.1
X3.3Y-4.4
X3.35Y-1.95
X3.35Y-5.1
X3.4Y-3.8
X3.4Y-4.
X3.4Y-4.1
X3.4Y-4.4
X3.45Y-1.95
X3.45Y-5.1
X3.5Y-3.8
X3.5Y-4.
X3.5Y-4.1
X3.5Y-4.4
X3.55Y-1.95
X3.55Y-5.1
X3.6Y-3.8
X3.6Y-4.
X3.6Y-4.1
X3.6Y-4.4
X3.65Y-1.95
X3.65Y-5.1
X3.7Y-3.8
X3.7Y-4.
X3.7Y-4.1
X3.7Y-4.4
X3.75Y-1.95
X3.75Y-5.1
X3.8Y-3.8
X3.8Y-3.9
X3.8Y-4.
X3.8Y-4.1
X3.8Y-4.2
X3.8Y-4.3
X3.8Y-4.4
X3.85Y-1.95
X3.95Y-1.95
X4.05Y-1.95
X4.15Y-1.95
X4.25Y-1.95
X4.25Y-5.1
X4.35Y-1.95
X4.35Y-5.1
X4.45Y-1.95
X4.45Y-5.1
X4.55Y-1.95
X4.55Y-5.1
X4.65Y-1.95
X4.65Y-5.1
X4.75Y-1.95
X4.85Y-1.95
X4.95Y-1.95
X5.05Y-1.95
X5.15Y-1.95
X5.85Y-1.85
X5.95Y-1.85
T4
X2.35Y-4.625
X2.75Y-2.15
X4.9Y-4.35
X5.65Y-2.15
T0
M30
