G04 #@! TF.FileFunction,Soldermask,Top*
%FSLAX46Y46*%
G04 Gerber Fmt 4.6, Leading zero omitted, Abs format (unit mm)*
G04 Created by KiCad (PCBNEW (2015-07-22 BZR 5980)-product) date Tue 11 Aug 2015 09:40:34 PM MDT*
%MOMM*%
G01*
G04 APERTURE LIST*
%ADD10C,0.150000*%
%ADD11R,1.727200X2.032000*%
%ADD12O,1.727200X2.032000*%
%ADD13R,0.400000X1.100000*%
%ADD14R,1.727200X1.727200*%
%ADD15O,1.727200X1.727200*%
%ADD16C,12.500000*%
%ADD17R,0.800100X0.800100*%
%ADD18R,2.000000X1.500000*%
%ADD19C,1.524000*%
%ADD20R,0.889000X0.635000*%
%ADD21R,0.635000X0.889000*%
%ADD22C,1.300000*%
%ADD23R,1.300000X1.300000*%
%ADD24R,1.000000X1.000000*%
%ADD25R,1.140460X2.029460*%
%ADD26C,3.556000*%
%ADD27R,1.000000X0.900000*%
%ADD28R,0.450000X1.450000*%
%ADD29R,1.450000X0.450000*%
%ADD30R,0.600000X1.500000*%
%ADD31C,0.762000*%
%ADD32R,0.299720X1.300480*%
%ADD33R,1.397000X1.397000*%
%ADD34C,1.397000*%
%ADD35R,1.750000X0.450000*%
G04 APERTURE END LIST*
D10*
D11*
X62230000Y-116205000D03*
D12*
X64770000Y-116205000D03*
X67310000Y-116205000D03*
X69850000Y-116205000D03*
X72390000Y-116205000D03*
X74930000Y-116205000D03*
X77470000Y-116205000D03*
X80010000Y-116205000D03*
X82550000Y-116205000D03*
X85090000Y-116205000D03*
X87630000Y-116205000D03*
X90170000Y-116205000D03*
X92710000Y-116205000D03*
X95250000Y-116205000D03*
D13*
X74515000Y-125405000D03*
X75165000Y-125405000D03*
X75815000Y-125405000D03*
X76465000Y-125405000D03*
X77115000Y-125405000D03*
X77765000Y-125405000D03*
X78415000Y-125405000D03*
X79065000Y-125405000D03*
X79715000Y-125405000D03*
X80365000Y-125405000D03*
X81015000Y-125405000D03*
X81665000Y-125405000D03*
X82315000Y-125405000D03*
X82965000Y-125405000D03*
X82965000Y-119705000D03*
X82315000Y-119705000D03*
X81665000Y-119705000D03*
X81015000Y-119705000D03*
X80365000Y-119705000D03*
X79715000Y-119705000D03*
X79065000Y-119705000D03*
X78415000Y-119705000D03*
X77765000Y-119705000D03*
X77115000Y-119705000D03*
X76465000Y-119705000D03*
X75815000Y-119705000D03*
X75165000Y-119705000D03*
X74515000Y-119705000D03*
D11*
X62230000Y-128905000D03*
D12*
X64770000Y-128905000D03*
X67310000Y-128905000D03*
X69850000Y-128905000D03*
X72390000Y-128905000D03*
X74930000Y-128905000D03*
X77470000Y-128905000D03*
X80010000Y-128905000D03*
X82550000Y-128905000D03*
X85090000Y-128905000D03*
X87630000Y-128905000D03*
X90170000Y-128905000D03*
X92710000Y-128905000D03*
X95250000Y-128905000D03*
D14*
X124460000Y-31115000D03*
D15*
X121920000Y-31115000D03*
D16*
X52055503Y-122555000D03*
X33655000Y-122555000D03*
D11*
X100965000Y-113030000D03*
D12*
X98425000Y-113030000D03*
X95885000Y-113030000D03*
X93345000Y-113030000D03*
X90805000Y-113030000D03*
D17*
X117160000Y-49260760D03*
X119060000Y-49260760D03*
X118110000Y-47261780D03*
X120970000Y-49260760D03*
X122870000Y-49260760D03*
X121920000Y-47261780D03*
D11*
X27940000Y-113030000D03*
D12*
X30480000Y-113030000D03*
X33020000Y-113030000D03*
X35560000Y-113030000D03*
X38100000Y-113030000D03*
X40640000Y-113030000D03*
X43180000Y-113030000D03*
X45720000Y-113030000D03*
X48260000Y-113030000D03*
X50800000Y-113030000D03*
X53340000Y-113030000D03*
X55880000Y-113030000D03*
X58420000Y-113030000D03*
X60960000Y-113030000D03*
X63500000Y-113030000D03*
X66040000Y-113030000D03*
D18*
X79065000Y-87630000D03*
X72065000Y-87630000D03*
D19*
X40640000Y-33020000D03*
X38100000Y-33020000D03*
X35560000Y-33020000D03*
X33020000Y-33020000D03*
X30480000Y-33020000D03*
X53340000Y-33020000D03*
X50800000Y-33020000D03*
X48260000Y-33020000D03*
X45720000Y-33020000D03*
X43180000Y-33020000D03*
X76200000Y-33020000D03*
X73660000Y-33020000D03*
X71120000Y-33020000D03*
X68580000Y-33020000D03*
X66040000Y-33020000D03*
X63500000Y-33020000D03*
X60960000Y-33020000D03*
X58420000Y-33020000D03*
X55880000Y-33020000D03*
X91440000Y-33020000D03*
X88900000Y-33020000D03*
X86360000Y-33020000D03*
X83820000Y-33020000D03*
X81280000Y-33020000D03*
X78740000Y-33020000D03*
X101600000Y-33020000D03*
X99060000Y-33020000D03*
X96520000Y-33020000D03*
X93980000Y-33020000D03*
D17*
X120970000Y-44180760D03*
X122870000Y-44180760D03*
X121920000Y-42181780D03*
D20*
X33528000Y-51943000D03*
X33528000Y-53467000D03*
X46228000Y-51943000D03*
X46228000Y-53467000D03*
X58928000Y-51943000D03*
X58928000Y-53467000D03*
X71628000Y-51943000D03*
X71628000Y-53467000D03*
X84328000Y-51943000D03*
X84328000Y-53467000D03*
X97028000Y-51943000D03*
X97028000Y-53467000D03*
X38735000Y-50673000D03*
X38735000Y-52197000D03*
X29845000Y-50673000D03*
X29845000Y-52197000D03*
X51435000Y-50673000D03*
X51435000Y-52197000D03*
X42545000Y-50673000D03*
X42545000Y-52197000D03*
X64135000Y-50673000D03*
X64135000Y-52197000D03*
X55245000Y-50673000D03*
X55245000Y-52197000D03*
X76835000Y-50673000D03*
X76835000Y-52197000D03*
X67945000Y-50673000D03*
X67945000Y-52197000D03*
X89535000Y-50673000D03*
X89535000Y-52197000D03*
X80645000Y-50673000D03*
X80645000Y-52197000D03*
X102235000Y-50673000D03*
X102235000Y-52197000D03*
X93345000Y-50673000D03*
X93345000Y-52197000D03*
D21*
X97663000Y-78867000D03*
X99187000Y-78867000D03*
D20*
X30480000Y-62103000D03*
X30480000Y-63627000D03*
X43180000Y-62103000D03*
X43180000Y-63627000D03*
X55880000Y-62103000D03*
X55880000Y-63627000D03*
D21*
X97663000Y-67310000D03*
X99187000Y-67310000D03*
D22*
X83820000Y-111720000D03*
D23*
X83820000Y-109220000D03*
D21*
X29972000Y-107950000D03*
X28448000Y-107950000D03*
X113538000Y-44450000D03*
X115062000Y-44450000D03*
X113538000Y-46355000D03*
X115062000Y-46355000D03*
X122682000Y-53340000D03*
X121158000Y-53340000D03*
X122682000Y-51435000D03*
X121158000Y-51435000D03*
D22*
X107990000Y-48895000D03*
D23*
X110490000Y-48895000D03*
D20*
X68580000Y-62103000D03*
X68580000Y-63627000D03*
X81280000Y-62103000D03*
X81280000Y-63627000D03*
X93980000Y-62103000D03*
X93980000Y-63627000D03*
D21*
X118872000Y-53340000D03*
X117348000Y-53340000D03*
X118872000Y-51435000D03*
X117348000Y-51435000D03*
X113157000Y-108585000D03*
X111633000Y-108585000D03*
X114427000Y-94615000D03*
X112903000Y-94615000D03*
X40513000Y-76835000D03*
X42037000Y-76835000D03*
D22*
X74930000Y-111720000D03*
D23*
X74930000Y-109220000D03*
D20*
X98425000Y-108712000D03*
X98425000Y-107188000D03*
X94615000Y-108712000D03*
X94615000Y-107188000D03*
X90805000Y-108712000D03*
X90805000Y-107188000D03*
D21*
X109347000Y-38100000D03*
X107823000Y-38100000D03*
X109347000Y-40005000D03*
X107823000Y-40005000D03*
X109347000Y-41910000D03*
X107823000Y-41910000D03*
X109347000Y-43815000D03*
X107823000Y-43815000D03*
D17*
X35240000Y-38369240D03*
X33340000Y-38369240D03*
X34290000Y-40368220D03*
X47940000Y-38369240D03*
X46040000Y-38369240D03*
X46990000Y-40368220D03*
X60640000Y-38369240D03*
X58740000Y-38369240D03*
X59690000Y-40368220D03*
X73340000Y-38369240D03*
X71440000Y-38369240D03*
X72390000Y-40368220D03*
X86040000Y-38369240D03*
X84140000Y-38369240D03*
X85090000Y-40368220D03*
X98740000Y-38369240D03*
X96840000Y-38369240D03*
X97790000Y-40368220D03*
X54290000Y-38369240D03*
X52390000Y-38369240D03*
X53340000Y-40368220D03*
X92390000Y-38369240D03*
X90490000Y-38369240D03*
X91440000Y-40368220D03*
D24*
X38735000Y-46375000D03*
X38735000Y-48875000D03*
X29845000Y-46375000D03*
X29845000Y-48875000D03*
X51435000Y-46375000D03*
X51435000Y-48875000D03*
X42545000Y-46375000D03*
X42545000Y-48875000D03*
X64135000Y-46375000D03*
X64135000Y-48875000D03*
X55245000Y-46375000D03*
X55245000Y-48875000D03*
X76835000Y-46375000D03*
X76835000Y-48875000D03*
X67945000Y-46375000D03*
X67945000Y-48875000D03*
X89535000Y-46375000D03*
X89535000Y-48875000D03*
X80645000Y-46375000D03*
X80645000Y-48875000D03*
X102235000Y-46375000D03*
X102235000Y-48875000D03*
X93345000Y-46375000D03*
X93345000Y-48875000D03*
D17*
X117160000Y-44180760D03*
X119060000Y-44180760D03*
X118110000Y-42181780D03*
D25*
X123123960Y-34290000D03*
X120716040Y-34290000D03*
D20*
X35052000Y-53467000D03*
X35052000Y-51943000D03*
X47752000Y-53467000D03*
X47752000Y-51943000D03*
X60452000Y-53467000D03*
X60452000Y-51943000D03*
X73152000Y-53467000D03*
X73152000Y-51943000D03*
X85852000Y-53467000D03*
X85852000Y-51943000D03*
X98552000Y-53467000D03*
X98552000Y-51943000D03*
D21*
X99187000Y-88900000D03*
X97663000Y-88900000D03*
X33782000Y-62865000D03*
X32258000Y-62865000D03*
X46482000Y-62865000D03*
X44958000Y-62865000D03*
X59182000Y-62865000D03*
X57658000Y-62865000D03*
X99187000Y-77343000D03*
X97663000Y-77343000D03*
X71882000Y-62865000D03*
X70358000Y-62865000D03*
X84582000Y-62865000D03*
X83058000Y-62865000D03*
X97282000Y-62865000D03*
X95758000Y-62865000D03*
D20*
X116205000Y-91948000D03*
X116205000Y-93472000D03*
D21*
X38227000Y-76835000D03*
X36703000Y-76835000D03*
D26*
X29210000Y-100965000D03*
X29210000Y-38735000D03*
X123825000Y-100965000D03*
X123825000Y-38735000D03*
D21*
X107823000Y-53975000D03*
X109347000Y-53975000D03*
X107823000Y-55880000D03*
X109347000Y-55880000D03*
D20*
X89535000Y-43053000D03*
X89535000Y-44577000D03*
X80645000Y-43053000D03*
X80645000Y-44577000D03*
X102235000Y-43053000D03*
X102235000Y-44577000D03*
X93345000Y-43053000D03*
X93345000Y-44577000D03*
X38735000Y-43053000D03*
X38735000Y-44577000D03*
X29845000Y-43053000D03*
X29845000Y-44577000D03*
X51435000Y-43053000D03*
X51435000Y-44577000D03*
X42545000Y-43053000D03*
X42545000Y-44577000D03*
X64135000Y-43053000D03*
X64135000Y-44577000D03*
X55245000Y-43053000D03*
X55245000Y-44577000D03*
X76835000Y-43053000D03*
X76835000Y-44577000D03*
X67945000Y-43053000D03*
X67945000Y-44577000D03*
D21*
X107823000Y-57785000D03*
X109347000Y-57785000D03*
X107823000Y-59690000D03*
X109347000Y-59690000D03*
X37592000Y-105410000D03*
X36068000Y-105410000D03*
X29972000Y-105410000D03*
X28448000Y-105410000D03*
D20*
X63500000Y-107188000D03*
X63500000Y-108712000D03*
X39370000Y-107188000D03*
X39370000Y-108712000D03*
X41275000Y-107188000D03*
X41275000Y-108712000D03*
X100330000Y-108712000D03*
X100330000Y-107188000D03*
X96520000Y-108712000D03*
X96520000Y-107188000D03*
X92710000Y-108712000D03*
X92710000Y-107188000D03*
X35560000Y-35433000D03*
X35560000Y-36957000D03*
X33020000Y-35433000D03*
X33020000Y-36957000D03*
X48260000Y-35433000D03*
X48260000Y-36957000D03*
X45720000Y-35433000D03*
X45720000Y-36957000D03*
X60960000Y-35433000D03*
X60960000Y-36957000D03*
X58420000Y-35433000D03*
X58420000Y-36957000D03*
X73660000Y-35433000D03*
X73660000Y-36957000D03*
X71120000Y-35433000D03*
X71120000Y-36957000D03*
X86360000Y-35433000D03*
X86360000Y-36957000D03*
X83820000Y-35433000D03*
X83820000Y-36957000D03*
X99060000Y-35433000D03*
X99060000Y-36957000D03*
X96520000Y-35433000D03*
X96520000Y-36957000D03*
X29845000Y-56388000D03*
X29845000Y-57912000D03*
X38735000Y-56388000D03*
X38735000Y-57912000D03*
X42545000Y-56388000D03*
X42545000Y-57912000D03*
X51435000Y-56388000D03*
X51435000Y-57912000D03*
X55245000Y-56388000D03*
X55245000Y-57912000D03*
X64135000Y-56388000D03*
X64135000Y-57912000D03*
X67945000Y-56388000D03*
X67945000Y-57912000D03*
X76835000Y-56388000D03*
X76835000Y-57912000D03*
X80645000Y-56388000D03*
X80645000Y-57912000D03*
X89535000Y-56388000D03*
X89535000Y-57912000D03*
X93345000Y-56388000D03*
X93345000Y-57912000D03*
X102235000Y-56388000D03*
X102235000Y-57912000D03*
D27*
X32170000Y-106500000D03*
X33870000Y-106500000D03*
X33020000Y-109400000D03*
D19*
X36830000Y-95250000D03*
X39370000Y-95250000D03*
X41910000Y-95250000D03*
X44450000Y-95250000D03*
X46990000Y-95250000D03*
X49530000Y-95250000D03*
X52070000Y-95250000D03*
X54610000Y-95250000D03*
X57150000Y-95250000D03*
X59690000Y-95250000D03*
X62230000Y-95250000D03*
X64770000Y-95250000D03*
X67310000Y-95250000D03*
X67310000Y-80010000D03*
X64770000Y-80010000D03*
X62230000Y-80010000D03*
X59690000Y-80010000D03*
X57150000Y-80010000D03*
X54610000Y-80010000D03*
X52070000Y-80010000D03*
X49530000Y-80010000D03*
X46990000Y-80010000D03*
X44450000Y-80010000D03*
X41910000Y-80010000D03*
X34290000Y-95250000D03*
X39370000Y-80010000D03*
X36830000Y-80010000D03*
X34290000Y-80010000D03*
X67310000Y-92710000D03*
X67310000Y-90170000D03*
X67310000Y-87630000D03*
X67310000Y-85090000D03*
X67310000Y-82550000D03*
X41910000Y-82550000D03*
X44450000Y-82550000D03*
X46990000Y-82550000D03*
X64770000Y-85090000D03*
X62230000Y-85090000D03*
X59690000Y-85090000D03*
X57150000Y-85090000D03*
X54610000Y-85090000D03*
X52070000Y-85090000D03*
X49530000Y-85090000D03*
X64770000Y-87630000D03*
X62230000Y-87630000D03*
X59690000Y-87630000D03*
X57150000Y-87630000D03*
X54610000Y-87630000D03*
X52070000Y-87630000D03*
X49530000Y-87630000D03*
X36830000Y-82550000D03*
D28*
X32340000Y-49305000D03*
X32990000Y-49305000D03*
X33640000Y-49305000D03*
X34290000Y-49305000D03*
X34940000Y-49305000D03*
X35590000Y-49305000D03*
X36240000Y-49305000D03*
X36240000Y-43405000D03*
X35590000Y-43405000D03*
X34940000Y-43405000D03*
X34290000Y-43405000D03*
X33640000Y-43405000D03*
X32990000Y-43405000D03*
X32340000Y-43405000D03*
X45040000Y-49305000D03*
X45690000Y-49305000D03*
X46340000Y-49305000D03*
X46990000Y-49305000D03*
X47640000Y-49305000D03*
X48290000Y-49305000D03*
X48940000Y-49305000D03*
X48940000Y-43405000D03*
X48290000Y-43405000D03*
X47640000Y-43405000D03*
X46990000Y-43405000D03*
X46340000Y-43405000D03*
X45690000Y-43405000D03*
X45040000Y-43405000D03*
X57740000Y-49305000D03*
X58390000Y-49305000D03*
X59040000Y-49305000D03*
X59690000Y-49305000D03*
X60340000Y-49305000D03*
X60990000Y-49305000D03*
X61640000Y-49305000D03*
X61640000Y-43405000D03*
X60990000Y-43405000D03*
X60340000Y-43405000D03*
X59690000Y-43405000D03*
X59040000Y-43405000D03*
X58390000Y-43405000D03*
X57740000Y-43405000D03*
X70440000Y-49305000D03*
X71090000Y-49305000D03*
X71740000Y-49305000D03*
X72390000Y-49305000D03*
X73040000Y-49305000D03*
X73690000Y-49305000D03*
X74340000Y-49305000D03*
X74340000Y-43405000D03*
X73690000Y-43405000D03*
X73040000Y-43405000D03*
X72390000Y-43405000D03*
X71740000Y-43405000D03*
X71090000Y-43405000D03*
X70440000Y-43405000D03*
X83140000Y-49305000D03*
X83790000Y-49305000D03*
X84440000Y-49305000D03*
X85090000Y-49305000D03*
X85740000Y-49305000D03*
X86390000Y-49305000D03*
X87040000Y-49305000D03*
X87040000Y-43405000D03*
X86390000Y-43405000D03*
X85740000Y-43405000D03*
X85090000Y-43405000D03*
X84440000Y-43405000D03*
X83790000Y-43405000D03*
X83140000Y-43405000D03*
X95840000Y-49305000D03*
X96490000Y-49305000D03*
X97140000Y-49305000D03*
X97790000Y-49305000D03*
X98440000Y-49305000D03*
X99090000Y-49305000D03*
X99740000Y-49305000D03*
X99740000Y-43405000D03*
X99090000Y-43405000D03*
X98440000Y-43405000D03*
X97790000Y-43405000D03*
X97140000Y-43405000D03*
X96490000Y-43405000D03*
X95840000Y-43405000D03*
D29*
X37240000Y-61005000D03*
X37240000Y-60355000D03*
X37240000Y-59705000D03*
X37240000Y-59055000D03*
X37240000Y-58405000D03*
X37240000Y-57755000D03*
X37240000Y-57105000D03*
X31340000Y-57105000D03*
X31340000Y-57755000D03*
X31340000Y-58405000D03*
X31340000Y-59055000D03*
X31340000Y-59705000D03*
X31340000Y-60355000D03*
X31340000Y-61005000D03*
X49940000Y-61005000D03*
X49940000Y-60355000D03*
X49940000Y-59705000D03*
X49940000Y-59055000D03*
X49940000Y-58405000D03*
X49940000Y-57755000D03*
X49940000Y-57105000D03*
X44040000Y-57105000D03*
X44040000Y-57755000D03*
X44040000Y-58405000D03*
X44040000Y-59055000D03*
X44040000Y-59705000D03*
X44040000Y-60355000D03*
X44040000Y-61005000D03*
X62640000Y-61005000D03*
X62640000Y-60355000D03*
X62640000Y-59705000D03*
X62640000Y-59055000D03*
X62640000Y-58405000D03*
X62640000Y-57755000D03*
X62640000Y-57105000D03*
X56740000Y-57105000D03*
X56740000Y-57755000D03*
X56740000Y-58405000D03*
X56740000Y-59055000D03*
X56740000Y-59705000D03*
X56740000Y-60355000D03*
X56740000Y-61005000D03*
X75340000Y-61005000D03*
X75340000Y-60355000D03*
X75340000Y-59705000D03*
X75340000Y-59055000D03*
X75340000Y-58405000D03*
X75340000Y-57755000D03*
X75340000Y-57105000D03*
X69440000Y-57105000D03*
X69440000Y-57755000D03*
X69440000Y-58405000D03*
X69440000Y-59055000D03*
X69440000Y-59705000D03*
X69440000Y-60355000D03*
X69440000Y-61005000D03*
X88040000Y-61005000D03*
X88040000Y-60355000D03*
X88040000Y-59705000D03*
X88040000Y-59055000D03*
X88040000Y-58405000D03*
X88040000Y-57755000D03*
X88040000Y-57105000D03*
X82140000Y-57105000D03*
X82140000Y-57755000D03*
X82140000Y-58405000D03*
X82140000Y-59055000D03*
X82140000Y-59705000D03*
X82140000Y-60355000D03*
X82140000Y-61005000D03*
X100740000Y-61005000D03*
X100740000Y-60355000D03*
X100740000Y-59705000D03*
X100740000Y-59055000D03*
X100740000Y-58405000D03*
X100740000Y-57755000D03*
X100740000Y-57105000D03*
X94840000Y-57105000D03*
X94840000Y-57755000D03*
X94840000Y-58405000D03*
X94840000Y-59055000D03*
X94840000Y-59705000D03*
X94840000Y-60355000D03*
X94840000Y-61005000D03*
D30*
X115570000Y-96950000D03*
X114300000Y-96950000D03*
X113030000Y-96950000D03*
X111760000Y-96950000D03*
X110490000Y-96950000D03*
X109220000Y-96950000D03*
X107950000Y-96950000D03*
X106680000Y-96950000D03*
X106680000Y-106250000D03*
X107950000Y-106250000D03*
X109220000Y-106250000D03*
X110490000Y-106250000D03*
X111760000Y-106250000D03*
X113030000Y-106250000D03*
X114300000Y-106250000D03*
X115570000Y-106250000D03*
D31*
X32385000Y-115570000D03*
X33655000Y-115570000D03*
X34925000Y-115570000D03*
D32*
X106019600Y-125349000D03*
X106654600Y-125349000D03*
X107315000Y-125349000D03*
X107950000Y-125349000D03*
X108610400Y-125349000D03*
X109258100Y-125349000D03*
X109905800Y-125349000D03*
X109905800Y-119761000D03*
X109258100Y-119761000D03*
X108610400Y-119761000D03*
X107950000Y-119761000D03*
X107302300Y-119761000D03*
X106654600Y-119761000D03*
X106006900Y-119761000D03*
D33*
X100330000Y-127635000D03*
D34*
X102870000Y-127635000D03*
X105410000Y-127635000D03*
X107950000Y-127635000D03*
X110490000Y-127635000D03*
X113030000Y-127635000D03*
X115570000Y-127635000D03*
D33*
X115570000Y-117475000D03*
D34*
X113030000Y-117475000D03*
X110490000Y-117475000D03*
X107950000Y-117475000D03*
X105410000Y-117475000D03*
X102870000Y-117475000D03*
X100330000Y-117475000D03*
D31*
X111760000Y-115570000D03*
X113030000Y-115570000D03*
X114300000Y-115570000D03*
X98425000Y-123190000D03*
X98425000Y-121920000D03*
X98425000Y-120650000D03*
D35*
X91650000Y-68815000D03*
X91650000Y-69465000D03*
X91650000Y-70115000D03*
X91650000Y-70765000D03*
X91650000Y-71415000D03*
X91650000Y-72065000D03*
X91650000Y-72715000D03*
X91650000Y-73365000D03*
X91650000Y-74015000D03*
X91650000Y-74665000D03*
X91650000Y-75315000D03*
X91650000Y-75965000D03*
X98850000Y-75965000D03*
X98850000Y-75315000D03*
X98850000Y-74665000D03*
X98850000Y-74015000D03*
X98850000Y-73365000D03*
X98850000Y-72715000D03*
X98850000Y-72065000D03*
X98850000Y-71415000D03*
X98850000Y-70765000D03*
X98850000Y-70115000D03*
X98850000Y-69465000D03*
X98850000Y-68815000D03*
X91650000Y-80245000D03*
X91650000Y-80895000D03*
X91650000Y-81545000D03*
X91650000Y-82195000D03*
X91650000Y-82845000D03*
X91650000Y-83495000D03*
X91650000Y-84145000D03*
X91650000Y-84795000D03*
X91650000Y-85445000D03*
X91650000Y-86095000D03*
X91650000Y-86745000D03*
X91650000Y-87395000D03*
X98850000Y-87395000D03*
X98850000Y-86745000D03*
X98850000Y-86095000D03*
X98850000Y-85445000D03*
X98850000Y-84795000D03*
X98850000Y-84145000D03*
X98850000Y-83495000D03*
X98850000Y-82845000D03*
X98850000Y-82195000D03*
X98850000Y-81545000D03*
X98850000Y-80895000D03*
X98850000Y-80245000D03*
D17*
X121600000Y-58689240D03*
X119700000Y-58689240D03*
X120650000Y-60688220D03*
D20*
X53340000Y-107188000D03*
X53340000Y-108712000D03*
X55880000Y-107188000D03*
X55880000Y-108712000D03*
X58420000Y-107188000D03*
X58420000Y-108712000D03*
X60960000Y-107188000D03*
X60960000Y-108712000D03*
M02*
