999
dxflib 3.3.4.0
  0
SECTION
  2
HEADER
  9
$ACADVER
  1
AC1015
  9
$HANDSEED
  5
FFFF
  9
$DIMADEC
 70
0
  9
$DIMASZ
 40
2.5
  9
$DIMAUNIT
 70
0
  9
$DIMAZIN
 70
2
  9
$DIMDEC
 70
4
  9
$DIMEXE
 40
1.25
  9
$DIMEXO
 40
0.625
  9
$DIMGAP
 40
0.625
  9
$DIMLUNIT
 70
2
  9
$DIMSCALE
 40
10.0
  9
$DIMTSZ
 40
0.0
  9
$DIMTXT
 40
2.5
  9
$DIMZIN
 70
8
  9
$DWGCODEPAGE
  3
ANSI_1252
  9
$INSUNITS
 70
4
  9
$LTSCALE
 40
1.0
  0
ENDSEC
  0
SECTION
  2
TABLES
  0
TABLE
  2
VPORT
  5
8
100
AcDbSymbolTable
 70
1
  0
VPORT
  5
30
100
AcDbSymbolTableRecord
100
AcDbViewportTableRecord
  2
*Active
 70
0
 10
0.0
 20
0.0
 11
1.0
 21
1.0
 12
286.3055555555554861
 22
148.5
 13
0.0
 23
0.0
 14
10.0
 24
10.0
 15
10.0
 25
10.0
 16
0.0
 26
0.0
 36
1.0
 17
0.0
 27
0.0
 37
0.0
 40
297.0
 41
1.92798353909465
 42
50.0
 43
0.0
 44
0.0
 50
0.0
 51
0.0
 71
0
 72
100
 73
1
 74
3
 75
1
 76
1
 77
0
 78
0
281
0
 65
1
110
0.0
120
0.0
130
0.0
111
1.0
121
0.0
131
0.0
112
0.0
122
1.0
132
0.0
 79
0
146
0.0
  0
ENDTAB
  0
TABLE
  2
LTYPE
  5
5
100
AcDbSymbolTable
 70
21
  0
LTYPE
  5
16
100
AcDbSymbolTableRecord
100
AcDbLinetypeTableRecord
  2
CONTINUOUS
 70
0
  3
Solid line
 72
65
 73
0
 40
0.0
  0
LTYPE
  5
31
100
AcDbSymbolTableRecord
100
AcDbLinetypeTableRecord
  2
CENTER2
 70
0
  3
Center (.5x) ___ _ ___ _ ___ _ ___ _ ___ _ ___
 72
65
 73
4
 40
28.5749999999999993
 49
19.0500000000000007
 74
0
 49
-3.1749999999999998
 74
0
 49
3.1749999999999998
 74
0
 49
-3.1749999999999998
 74
0
  0
LTYPE
  5
32
100
AcDbSymbolTableRecord
100
AcDbLinetypeTableRecord
  2
DIVIDEX2
 70
0
  3
Divide (2x) ________  .  .  ________  .  .  _
 72
65
 73
6
 40
63.5
 49
25.3999999999999986
 74
0
 49
-12.6999999999999993
 74
0
 49
0.0
 74
0
 49
-12.6999999999999993
 74
0
 49
0.0
 74
0
 49
-12.6999999999999993
 74
0
  0
LTYPE
  5
33
100
AcDbSymbolTableRecord
100
AcDbLinetypeTableRecord
  2
DOT2
 70
0
  3
Dot (.5x) .....................................
 72
65
 73
2
 40
3.1749999999999998
 49
0.0
 74
0
 49
-3.1749999999999998
 74
0
  0
LTYPE
  5
34
100
AcDbSymbolTableRecord
100
AcDbLinetypeTableRecord
  2
DASHDOT2
 70
0
  3
Dash dot (.5x) _._._._._._._._._._._._._._._.
 72
65
 73
4
 40
12.6999999999999993
 49
6.3499999999999996
 74
0
 49
-3.1749999999999998
 74
0
 49
0.0
 74
0
 49
-3.1749999999999998
 74
0
  0
LTYPE
  5
35
100
AcDbSymbolTableRecord
100
AcDbLinetypeTableRecord
  2
DIVIDE
 70
0
  3
Divide ____ . . ____ . . ____ . . ____ . . ____
 72
65
 73
6
 40
31.75
 49
12.6999999999999993
 74
0
 49
-6.3499999999999996
 74
0
 49
0.0
 74
0
 49
-6.3499999999999996
 74
0
 49
0.0
 74
0
 49
-6.3499999999999996
 74
0
  0
LTYPE
  5
36
100
AcDbSymbolTableRecord
100
AcDbLinetypeTableRecord
  2
DASHDOT
 70
0
  3
Dash dot __ . __ . __ . __ . __ . __ . __ . __
 72
65
 73
4
 40
25.3999999999999986
 49
12.6999999999999993
 74
0
 49
-6.3499999999999996
 74
0
 49
0.0
 74
0
 49
-6.3499999999999996
 74
0
  0
LTYPE
  5
37
100
AcDbSymbolTableRecord
100
AcDbLinetypeTableRecord
  2
BORDER
 70
0
  3
Border __ __ . __ __ . __ __ . __ __ . __ __ .
 72
65
 73
6
 40
44.4500000000000028
 49
12.6999999999999993
 74
0
 49
-6.3499999999999996
 74
0
 49
12.6999999999999993
 74
0
 49
-6.3499999999999996
 74
0
 49
0.0
 74
0
 49
-6.3499999999999996
 74
0
  0
LTYPE
  5
38
100
AcDbSymbolTableRecord
100
AcDbLinetypeTableRecord
  2
DASHDOTX2
 70
0
  3
Dash dot (2x) ____  .  ____  .  ____  .  ___
 72
65
 73
4
 40
50.7999999999999972
 49
25.3999999999999986
 74
0
 49
-12.6999999999999993
 74
0
 49
0.0
 74
0
 49
-12.6999999999999993
 74
0
  0
LTYPE
  5
39
100
AcDbSymbolTableRecord
100
AcDbLinetypeTableRecord
  2
CENTERX2
 70
0
  3
Center (2x) ________  __  ________  __  _____
 72
65
 73
4
 40
101.5999999999999943
 49
63.5
 74
0
 49
-12.6999999999999993
 74
0
 49
12.6999999999999993
 74
0
 49
-12.6999999999999993
 74
0
  0
LTYPE
  5
3A
100
AcDbSymbolTableRecord
100
AcDbLinetypeTableRecord
  2
BORDER2
 70
0
  3
Border (.5x) __.__.__.__.__.__.__.__.__.__.__.
 72
65
 73
6
 40
22.2250000000000014
 49
6.3499999999999996
 74
0
 49
-3.1749999999999998
 74
0
 49
6.3499999999999996
 74
0
 49
-3.1749999999999998
 74
0
 49
0.0
 74
0
 49
-3.1749999999999998
 74
0
  0
LTYPE
  5
3B
100
AcDbSymbolTableRecord
100
AcDbLinetypeTableRecord
  2
BORDERX2
 70
0
  3
Border (2x) ____  ____  .  ____  ____  .  ___
 72
65
 73
6
 40
88.9000000000000057
 49
25.3999999999999986
 74
0
 49
-12.6999999999999993
 74
0
 49
25.3999999999999986
 74
0
 49
-12.6999999999999993
 74
0
 49
0.0
 74
0
 49
-12.6999999999999993
 74
0
  0
LTYPE
  5
14
100
AcDbSymbolTableRecord
100
AcDbLinetypeTableRecord
  2
BYBLOCK
 70
0
  3

 72
65
 73
0
 40
0.0
  0
LTYPE
  5
15
100
AcDbSymbolTableRecord
100
AcDbLinetypeTableRecord
  2
BYLAYER
 70
0
  3

 72
65
 73
0
 40
0.0
  0
LTYPE
  5
3C
100
AcDbSymbolTableRecord
100
AcDbLinetypeTableRecord
  2
DASHED2
 70
0
  3
Dashed (.5x) _ _ _ _ _ _ _ _ _ _ _ _ _ _ _ _ _
 72
65
 73
2
 40
9.5250000000000004
 49
6.3499999999999996
 74
0
 49
-3.1749999999999998
 74
0
  0
LTYPE
  5
3D
100
AcDbSymbolTableRecord
100
AcDbLinetypeTableRecord
  2
CENTER
 70
0
  3
Center ____ _ ____ _ ____ _ ____ _ ____ _ ____
 72
65
 73
4
 40
50.7999999999999972
 49
31.75
 74
0
 49
-6.3499999999999996
 74
0
 49
6.3499999999999996
 74
0
 49
-6.3499999999999996
 74
0
  0
LTYPE
  5
3E
100
AcDbSymbolTableRecord
100
AcDbLinetypeTableRecord
  2
DIVIDE2
 70
0
  3
Divide (.5x) __..__..__..__..__..__..__..__.._
 72
65
 73
6
 40
15.875
 49
6.3499999999999996
 74
0
 49
-3.1749999999999998
 74
0
 49
0.0
 74
0
 49
-3.1749999999999998
 74
0
 49
0.0
 74
0
 49
-3.1749999999999998
 74
0
  0
LTYPE
  5
3F
100
AcDbSymbolTableRecord
100
AcDbLinetypeTableRecord
  2
DASHED
 70
0
  3
Dashed __ __ __ __ __ __ __ __ __ __ __ __ __ _
 72
65
 73
2
 40
19.0500000000000007
 49
12.6999999999999993
 74
0
 49
-6.3499999999999996
 74
0
  0
LTYPE
  5
40
100
AcDbSymbolTableRecord
100
AcDbLinetypeTableRecord
  2
DOTX2
 70
0
  3
Dot (2x) .  .  .  .  .  .  .  .  .  .  .  .  .
 72
65
 73
2
 40
12.6999999999999993
 49
0.0
 74
0
 49
-12.6999999999999993
 74
0
  0
LTYPE
  5
41
100
AcDbSymbolTableRecord
100
AcDbLinetypeTableRecord
  2
DASHEDX2
 70
0
  3
Dashed (2x) ____  ____  ____  ____  ____  ___
 72
65
 73
2
 40
38.1000000000000014
 49
25.3999999999999986
 74
0
 49
-12.6999999999999993
 74
0
  0
LTYPE
  5
42
100
AcDbSymbolTableRecord
100
AcDbLinetypeTableRecord
  2
DOT
 70
0
  3
Dot . . . . . . . . . . . . . . . . . . . . . .
 72
65
 73
2
 40
6.3499999999999996
 49
0.0
 74
0
 49
-6.3499999999999996
 74
0
  0
ENDTAB
  0
TABLE
  2
LAYER
  5
2
100
AcDbSymbolTable
 70
1
  0
LAYER
  5
10
100
AcDbSymbolTableRecord
100
AcDbLayerTableRecord
  2
0
 70
0
 62
7
420
0
  6
CONTINUOUS
370
25
390
F
  0
ENDTAB
  0
TABLE
  2
STYLE
  5
3
100
AcDbSymbolTable
 70
1
  0
STYLE
  5
43
100
AcDbSymbolTableRecord
100
AcDbTextStyleTableRecord
  2
Standard
 70
0
 40
0.0
 41
1.0
 50
0.0
 71
0
 42
2.5
  3

  4

1001
ACAD
1000
txt
1071
0
  0
ENDTAB
  0
TABLE
  2
VIEW
  5
6
100
AcDbSymbolTable
 70
0
  0
ENDTAB
  0
TABLE
  2
UCS
  5
7
100
AcDbSymbolTable
 70
0
  0
ENDTAB
  0
TABLE
  2
APPID
  5
9
100
AcDbSymbolTable
 70
1
  0
APPID
  5
12
100
AcDbSymbolTableRecord
100
AcDbRegAppTableRecord
  2
ACAD
 70
0
  0
APPID
  5
44
100
AcDbSymbolTableRecord
100
AcDbRegAppTableRecord
  2
QCAD
 70
0
  0
ENDTAB
  0
TABLE
  2
DIMSTYLE
  5
A
100
AcDbSymbolTable
 70
1
100
AcDbDimStyleTable
 71
0
  0
DIMSTYLE
105
27
100
AcDbSymbolTableRecord
100
AcDbDimStyleTableRecord
  2
Standard
 41
2.5
 42
0.625
 43
3.75
 44
1.25
 70
0
 73
0
 74
0
 77
1
 78
8
140
2.5
141
2.5
143
0.03937007874016
147
0.625
171
3
172
1
271
2
272
2
274
3
278
44
283
0
284
8
340
43
  0
ENDTAB
  0
TABLE
  2
BLOCK_RECORD
  5
1
100
AcDbSymbolTable
 70
1
  0
BLOCK_RECORD
  5
1F
100
AcDbSymbolTableRecord
100
AcDbBlockTableRecord
  2
*Model_Space
340
22
  0
BLOCK_RECORD
  5
1B
100
AcDbSymbolTableRecord
100
AcDbBlockTableRecord
  2
*Paper_Space
340
1E
  0
BLOCK_RECORD
  5
23
100
AcDbSymbolTableRecord
100
AcDbBlockTableRecord
  2
*Paper_Space0
340
26
  0
ENDTAB
  0
ENDSEC
  0
SECTION
  2
BLOCKS
  0
BLOCK
  5
20
100
AcDbEntity
  8
0
100
AcDbBlockBegin
  2
*Model_Space
 70
0
 10
0.0
 20
0.0
 30
0.0
  3
*Model_Space
  1

  0
ENDBLK
  5
21
100
AcDbEntity
  8
0
100
AcDbBlockEnd
  0
BLOCK
  5
1C
100
AcDbEntity
 67
1
  8
0
100
AcDbBlockBegin
  2
*Paper_Space
 70
0
 10
0.0
 20
0.0
 30
0.0
  3
*Paper_Space
  1

  0
ENDBLK
  5
1D
100
AcDbEntity
 67
1
  8
0
100
AcDbBlockEnd
  0
BLOCK
  5
24
100
AcDbEntity
  8
0
100
AcDbBlockBegin
  2
*Paper_Space0
 70
0
 10
0.0
 20
0.0
 30
0.0
  3
*Paper_Space0
  1

  0
ENDBLK
  5
25
100
AcDbEntity
  8
0
100
AcDbBlockEnd
  0
ENDSEC
  0
SECTION
  2
ENTITIES
  0
LINE
  5
45
100
AcDbEntity
100
AcDbLine
  8
0
 62
256
370
-1
  6
BYLAYER
 10
79.9113090559999932
 20
-92.5197394986666666
 30
0.0
 11
82.2847979448888935
 21
-94.891905329777785
 31
0.0
  0
LINE
  5
46
100
AcDbEntity
100
AcDbLine
  8
0
 62
256
370
-1
  6
BYLAYER
 10
82.2847979448888935
 20
-94.891905329777785
 30
0.0
 11
82.2847979448888935
 21
-95.5216140017777775
 31
0.0
  0
LINE
  5
47
100
AcDbEntity
100
AcDbLine
  8
0
 62
256
370
-1
  6
BYLAYER
 10
82.2847979448888935
 20
-95.5216140017777775
 30
0.0
 11
81.799640334222218
 21
-95.0425415537777809
 31
0.0
  0
LINE
  5
48
100
AcDbEntity
100
AcDbLine
  8
0
 62
256
370
-1
  6
BYLAYER
 10
79.9113090559999932
 20
-92.5197394986666666
 30
0.0
 11
79.601658446222217
 21
-92.8391798328889024
 31
0.0
  0
LINE
  5
49
100
AcDbEntity
100
AcDbLine
  8
0
 62
256
370
-1
  6
BYLAYER
 10
79.601658446222217
 20
-92.8391798328889024
 30
0.0
 11
80.2109053297777734
 21
-93.4531012195555491
 31
0.0
  0
LINE
  5
4A
100
AcDbEntity
100
AcDbLine
  8
0
 62
256
370
-1
  6
BYLAYER
 10
80.2109053297777734
 20
-93.4531012195555491
 30
0.0
 11
80.2109053297789529
 21
-93.4531012195456583
 31
0.0
  0
ARC
  5
4B
100
AcDbEntity
  8
0
 62
256
370
-1
  6
BYLAYER
100
AcDbCircle
 10
82.708200828652835
 20
-94.3713430867049254
 30
0.0
 40
2.6607617208776255
100
AcDbArc
 50
159.8118015458116474
 51
216.6654687259866705
  0
ARC
  5
4C
100
AcDbEntity
  8
0
 62
256
370
-1
  6
BYLAYER
100
AcDbCircle
 10
81.5587730997161344
 20
-94.4317304143023932
 30
0.0
 40
1.1624722403890193
100
AcDbArc
 50
148.9053383155028882
 51
219.4070336628244888
  0
ARC
  5
4D
100
AcDbEntity
  8
0
 62
256
370
-1
  6
BYLAYER
100
AcDbCircle
 10
80.788686012779408
 20
-94.9775505049396713
 30
0.0
 40
0.2309349066902628
100
AcDbArc
 50
236.3087346792431731
 51
339.1983296021447813
  0
ARC
  5
4E
100
AcDbEntity
  8
0
 62
256
370
-1
  6
BYLAYER
100
AcDbCircle
 10
79.3140794156024356
 20
-94.2907039735695633
 30
0.0
 40
1.8571200220536979
100
AcDbArc
 50
335.5432449641512562
 51
356.3220635943326329
  0
LINE
  5
4F
100
AcDbEntity
100
AcDbLine
  8
0
 62
256
370
-1
  6
BYLAYER
 10
81.1673745031111054
 20
-94.4098345528888956
 30
0.0
 11
80.5633304426666683
 21
-93.8313675022222355
 31
0.0
  0
LINE
  5
50
100
AcDbEntity
100
AcDbLine
  8
0
 62
256
370
-1
  6
BYLAYER
 10
80.5633304426666683
 20
-93.8313675022222355
 30
0.0
 11
80.5633304426666683
 21
-93.8313675022222355
 31
0.0
  0
ARC
  5
51
100
AcDbEntity
  8
0
 62
256
370
-1
  6
BYLAYER
100
AcDbCircle
 10
80.4907142674059486
 20
-94.7592892025190707
 30
0.0
 40
1.3392234104001475
100
AcDbArc
 50
285.0989628802710172
 51
347.7894405283901733
  0
ARC
  5
52
100
AcDbEntity
  8
0
 62
256
370
-1
  6
BYLAYER
100
AcDbCircle
 10
80.7744428412356683
 20
-95.8109097301602333
 30
0.0
 40
0.25
100
AcDbArc
 50
216.6654687259862442
 51
285.0989628802697666
  0
LINE
  5
53
100
AcDbEntity
100
AcDbLine
  8
0
 62
256
370
-1
  6
BYLAYER
 10
84.6328868337777749
 20
-94.8919053297777992
 30
0.0
 11
87.0062876693333322
 21
-92.5197394986666524
 31
0.0
  0
LINE
  5
54
100
AcDbEntity
100
AcDbLine
  8
0
 62
256
370
-1
  6
BYLAYER
 10
87.0062876693333322
 20
-92.5197394986666524
 30
0.0
 11
87.3289036857426595
 21
-92.8793527677185011
 31
0.0
  0
LINE
  5
55
100
AcDbEntity
100
AcDbLine
  8
0
 62
256
370
-1
  6
BYLAYER
 10
87.3289036857426595
 20
-92.8793527677185011
 30
0.0
 11
86.4800312782222278
 21
-93.6792321137777861
 31
0.0
  0
LINE
  5
56
100
AcDbEntity
100
AcDbLine
  8
0
 62
256
370
-1
  6
BYLAYER
 10
86.4800312782222278
 20
-93.6792321137777861
 30
0.0
 11
86.4800312782224836
 21
-93.679232113777644
 31
0.0
  0
LINE
  5
57
100
AcDbEntity
100
AcDbLine
  8
0
 62
256
370
-1
  6
BYLAYER
 10
84.6328868337777891
 20
-94.8919053297777992
 30
0.0
 11
84.6328868337777749
 21
-95.5190563911110644
 31
0.0
  0
LINE
  5
58
100
AcDbEntity
100
AcDbLine
  8
0
 62
256
370
-1
  6
BYLAYER
 10
84.6328868337777749
 20
-95.5190563911110644
 30
0.0
 11
84.8834473351111143
 21
-95.2789028906666573
 31
0.0
  0
ARC
  5
59
100
AcDbEntity
  8
0
 62
256
370
-1
  6
BYLAYER
100
AcDbCircle
 10
84.1731305919661565
 20
-94.4929710799858924
 30
0.0
 40
2.446213784887886
100
AcDbArc
 50
321.9705879454963338
 51
19.4298466548374691
  0
ARC
  5
5A
100
AcDbEntity
  8
0
 62
256
370
-1
  6
BYLAYER
100
AcDbCircle
 10
85.7109558326679064
 20
-95.6549791867270471
 30
0.0
 40
0.5199949285585556
100
AcDbArc
 50
257.5833817161239381
 51
318.4320325358936543
  0
ARC
  5
5B
100
AcDbEntity
  8
0
 62
256
370
-1
  6
BYLAYER
100
AcDbCircle
 10
85.6790844962680325
 20
-95.4055788230126893
 30
0.0
 40
0.7614401841717553
100
AcDbArc
 50
220.4906330467820226
 51
263.9738909576823289
  0
ARC
  5
5C
100
AcDbEntity
  8
0
 62
256
370
-1
  6
BYLAYER
100
AcDbCircle
 10
86.5755028077035007
 20
-95.0372485961482454
 30
0.0
 40
1.709224537733131
100
AcDbArc
 50
188.1278485939613176
 51
210.315547202720694
  0
ARC
  5
5D
100
AcDbEntity
  8
0
 62
256
370
-1
  6
BYLAYER
100
AcDbCircle
 10
82.9377812993465255
 20
-96.3224552519880461
 30
0.0
 40
2.5159253654389535
100
AcDbArc
 50
243.6027193449451431
 51
280.8442965951028327
  0
ARC
  5
5E
100
AcDbEntity
  8
0
 62
256
370
-1
  6
BYLAYER
100
AcDbCircle
 10
83.4061143038619406
 20
-96.8597828861790759
 30
0.0
 40
1.933675062174804
100
AcDbArc
 50
270.1485947847710349
 51
316.1245328443558833
  0
ARC
  5
5F
100
AcDbEntity
  8
0
 62
256
370
-1
  6
BYLAYER
100
AcDbCircle
 10
85.1887815409146754
 20
-98.382097863628772
 30
0.0
 40
0.4368974866188712
100
AcDbArc
 50
86.3806739616504728
 51
157.5930666655967229
  0
ARC
  5
60
100
AcDbEntity
  8
0
 62
256
370
-1
  6
BYLAYER
100
AcDbCircle
 10
84.9324956784797109
 20
-98.1999999999999886
 30
0.0
 40
0.3808666779019761
100
AcDbArc
 50
344.7780374676250403
 51
41.8137680905745412
  0
ARC
  5
61
100
AcDbEntity
  8
0
 62
256
370
-1
  6
BYLAYER
100
AcDbCircle
 10
83.7046005973255092
 20
-97.1637259706539425
 30
0.0
 40
1.9586775956804228
100
AcDbArc
 50
278.6742025859822434
 51
324.5408019065153553
  0
ARC
  5
62
100
AcDbEntity
  8
0
 62
256
370
-1
  6
BYLAYER
100
AcDbCircle
 10
83.0341090667973987
 20
-96.1777540349318798
 30
0.0
 40
3.07773728170549
100
AcDbArc
 50
240.5378447386206915
 51
288.2902874263720037
  0
ARC
  5
63
100
AcDbEntity
  8
0
 62
256
370
-1
  6
BYLAYER
100
AcDbCircle
 10
82.8498822346343786
 20
-99.970100259911149
 30
0.0
 40
1.7336769559520218
100
AcDbArc
 50
126.4766656922176793
 51
140.0761668445342423
  0
LINE
  5
64
100
AcDbEntity
100
AcDbLine
  8
0
 62
256
370
-1
  6
BYLAYER
 10
82.0477312782222299
 20
-100.8414143857777674
 30
0.0
 11
83.5000296746666493
 21
-103.3186201671110922
 31
0.0
  0
LINE
  5
65
100
AcDbEntity
100
AcDbLine
  8
0
 62
256
370
-1
  6
BYLAYER
 10
83.5000296746666493
 20
-103.3186201671110922
 30
0.0
 11
84.6788271928888463
 21
-101.1575384959999298
 31
0.0
  0
LINE
  5
66
100
AcDbEntity
100
AcDbLine
  8
0
 62
256
370
-1
  6
BYLAYER
 10
84.6788271928888463
 20
-101.1575384959999298
 30
0.0
 11
84.8145679537777823
 21
-100.8570251128889055
 31
0.0
  0
LINE
  5
67
100
AcDbEntity
100
AcDbLine
  8
0
 62
256
370
-1
  6
BYLAYER
 10
84.8145679537777823
 20
-100.8570251128889055
 30
0.0
 11
84.8145679537777823
 21
-100.8570251128889055
 31
0.0
  0
ARC
  5
68
100
AcDbEntity
  8
0
 62
256
370
-1
  6
BYLAYER
100
AcDbCircle
 10
83.4293568259688243
 20
-101.2465755902762936
 30
0.0
 40
1.508949377013415
100
AcDbArc
 50
35.0631903548975927
 51
145.2960447920395666
  0
ARC
  5
69
100
AcDbEntity
  8
0
 62
256
370
-1
  6
BYLAYER
100
AcDbCircle
 10
81.2758099244097423
 20
-88.6771902725134566
 30
0.0
 40
2.7361240030070881
100
AcDbArc
 50
174.1372943636585546
 51
222.2193778103709576
  0
ARC
  5
6A
100
AcDbEntity
  8
0
 62
256
370
-1
  6
BYLAYER
100
AcDbCircle
 10
78.298726887254773
 20
-88.3041336258158793
 30
0.0
 40
0.27188089797055
100
AcDbArc
 50
339.8684436576579628
 51
70.1177962459635751
  0
ARC
  5
6B
100
AcDbEntity
  8
0
 62
256
370
-1
  6
BYLAYER
100
AcDbCircle
 10
78.7028453807984789
 20
-89.0028453807984476
 30
0.0
 40
1.0039836943992189
100
AcDbArc
 50
108.0844585909123907
 51
143.0976260658471233
  0
ARC
  5
6C
100
AcDbEntity
  8
0
 62
256
370
-1
  6
BYLAYER
100
AcDbCircle
 10
80.8499999999998948
 20
-90.5499999999999687
 30
0.0
 40
3.650342449688706
100
AcDbArc
 50
143.9149269571472587
 51
203.4046895510331865
  0
ARC
  5
6D
100
AcDbEntity
  8
0
 62
256
370
-1
  6
BYLAYER
100
AcDbCircle
 10
79.7367597468504101
 20
-90.6349301898622031
 30
0.0
 40
2.6204025934348194
100
AcDbArc
 50
211.3952563881244089
 51
230.8616273966053427
  0
ARC
  5
6E
100
AcDbEntity
  8
0
 62
256
370
-1
  6
BYLAYER
100
AcDbCircle
 10
85.7840113489601634
 20
-88.7107410147341966
 30
0.0
 40
2.6685165232835377
100
AcDbArc
 50
317.1311440952516136
 51
6.5135957015797334
  0
ARC
  5
6F
100
AcDbEntity
  8
0
 62
256
370
-1
  6
BYLAYER
100
AcDbCircle
 10
88.8301527982797552
 20
-88.3301527982797552
 30
0.0
 40
0.4024564333787776
100
AcDbArc
 50
124.8807362983069567
 51
191.1569830059627293
  0
ARC
  5
70
100
AcDbEntity
  8
0
 62
256
370
-1
  6
BYLAYER
100
AcDbCircle
 10
88.3499999999999801
 20
-88.7499999999999716
 30
0.0
 40
0.7905694150420849
100
AcDbArc
 50
34.6951535312322008
 51
71.5650511770766968
  0
ARC
  5
71
100
AcDbEntity
  8
0
 62
256
370
-1
  6
BYLAYER
100
AcDbCircle
 10
85.6031250000000199
 20
-90.8187500000000085
 30
0.0
 40
4.2288132292789591
100
AcDbArc
 50
340.9357468187089921
 51
36.5565777064019457
  0
ARC
  5
72
100
AcDbEntity
  8
0
 62
256
370
-1
  6
BYLAYER
100
AcDbCircle
 10
88.0499405961943182
 20
-91.3499405961943012
 30
0.0
 40
1.7678476024038126
100
AcDbArc
 50
298.7405576604737121
 51
331.2594423395256058
  0
ARC
  5
73
100
AcDbEntity
  8
0
 62
256
370
-1
  6
BYLAYER
100
AcDbCircle
 10
84.6421156357342426
 20
-94.5460578178670801
 30
0.0
 40
1.2436879454793681
100
AcDbArc
 50
328.2772864761702181
 51
11.1525734411815112
  0
ARC
  5
74
100
AcDbEntity
  8
0
 62
256
370
-1
  6
BYLAYER
100
AcDbCircle
 10
85.5659217117412965
 20
-94.8663394268342159
 30
0.0
 40
0.3595919429960568
100
AcDbArc
 50
195.7960097672698794
 51
291.8922530082568869
  0
LINE
  5
75
100
AcDbEntity
100
AcDbLine
  8
0
 62
256
370
-1
  6
BYLAYER
 10
85.219909055999878
 20
-94.9642251128891246
 30
0.0
 11
85.8623172764444433
 21
-94.3055008355555486
 31
0.0
  0
LINE
  5
76
100
AcDbEntity
100
AcDbLine
  8
0
 62
256
370
-1
  6
BYLAYER
 10
85.8623172764444433
 20
-94.3055008355555486
 30
0.0
 11
85.8623172764444433
 21
-94.305500835555506
 31
0.0
  0
LINE
  5
77
100
AcDbEntity
100
AcDbLine
  8
0
 62
256
370
-1
  6
BYLAYER
 10
78.0827736675555428
 20
-92.6673769422222193
 30
0.0
 11
78.3124321137777599
 21
-93.1864897244444421
 31
0.0
  0
ARC
  5
78
100
AcDbEntity
  8
0
 62
256
370
-1
  6
BYLAYER
100
AcDbCircle
 10
77.6656558449815719
 20
-94.2116443400932297
 30
0.0
 40
1.2121309862650622
100
AcDbArc
 50
57.751923787638205
 51
103.4239021983127884
  0
ARC
  5
79
100
AcDbEntity
  8
0
 62
256
370
-1
  6
BYLAYER
100
AcDbCircle
 10
77.6354458625221184
 20
-93.2639731315694576
 30
0.0
 40
0.3414915639455699
100
AcDbArc
 50
137.3553426512647491
 51
244.0654895636808703
  0
ARC
  5
7A
100
AcDbEntity
  8
0
 62
256
370
-1
  6
BYLAYER
100
AcDbCircle
 10
78.1200488303842917
 20
-93.1931186863186127
 30
0.0
 40
0.7380690677727108
100
AcDbArc
 50
210.8029768253198597
 51
263.8080027900047639
  0
ARC
  5
7B
100
AcDbEntity
  8
0
 62
256
370
-1
  6
BYLAYER
100
AcDbCircle
 10
77.9261782734535728
 20
-95.1161792848967877
 30
0.0
 40
1.1947736676026104
100
AcDbArc
 50
84.5121366851603142
 51
129.2071185108900124
  0
ARC
  5
7C
100
AcDbEntity
  8
0
 62
256
370
-1
  6
BYLAYER
100
AcDbCircle
 10
77.3367060809845128
 20
-94.3632939190154616
 30
0.0
 40
0.2395351856331299
100
AcDbArc
 50
133.7940877193144331
 51
261.1853341364151788
  0
ARC
  5
7D
100
AcDbEntity
  8
0
 62
256
370
-1
  6
BYLAYER
100
AcDbCircle
 10
76.6912517032861132
 20
-95.5575720249220808
 30
0.0
 40
1.1346887994800077
100
AcDbArc
 50
25.1937856457822029
 51
57.555037616839499
  0
ARC
  5
7E
100
AcDbEntity
  8
0
 62
256
370
-1
  6
BYLAYER
100
AcDbCircle
 10
77.5321151037971816
 20
-96.5758011969382011
 30
0.0
 40
1.5127093623873913
100
AcDbArc
 50
82.9414875981715483
 51
118.676101037048781
  0
ARC
  5
7F
100
AcDbEntity
  8
0
 62
256
370
-1
  6
BYLAYER
100
AcDbCircle
 10
76.9007796349116006
 20
-95.427945928385455
 30
0.0
 40
0.2027151615162812
100
AcDbArc
 50
117.8019006617316364
 51
258.6028078275192001
  0
ARC
  5
80
100
AcDbEntity
  8
0
 62
256
370
-1
  6
BYLAYER
100
AcDbCircle
 10
77.6744892801024065
 20
-94.0056566520600825
 30
0.0
 40
1.8154436553532618
100
AcDbArc
 50
243.1414344853120326
 51
271.2313845789542484
  0
ARC
  5
81
100
AcDbEntity
  8
0
 62
256
370
-1
  6
BYLAYER
100
AcDbCircle
 10
81.049643565160423
 20
-99.295048670582446
 30
0.0
 40
4.8167481129723164
100
AcDbArc
 50
133.8372739044966693
 51
143.0557245806763547
  0
ARC
  5
82
100
AcDbEntity
  8
0
 62
256
370
-1
  6
BYLAYER
100
AcDbCircle
 10
77.3971763684581902
 20
-96.5241952806768495
 30
0.0
 40
0.2330300152786527
100
AcDbArc
 50
147.7944460197457488
 51
255.8089156717479682
  0
ARC
  5
83
100
AcDbEntity
  8
0
 62
256
370
-1
  6
BYLAYER
100
AcDbCircle
 10
79.047809235721175
 20
-92.4008233751850838
 30
0.0
 40
4.6728224837766428
100
AcDbArc
 50
248.5357493635358423
 51
257.5504201707048537
  0
ARC
  5
84
100
AcDbEntity
  8
0
 62
256
370
-1
  6
BYLAYER
100
AcDbCircle
 10
80.6776944844114894
 20
-101.1278387383380988
 30
0.0
 40
4.9289533977188498
100
AcDbArc
 50
122.3475449992794495
 51
130.7882300540931908
  0
ARC
  5
85
100
AcDbEntity
  8
0
 62
256
370
-1
  6
BYLAYER
100
AcDbCircle
 10
77.6074737449868763
 20
-97.5983644475200265
 30
0.0
 40
0.2517254919267268
100
AcDbArc
 50
126.4887774181019466
 51
276.1175907068455899
  0
ARC
  5
86
100
AcDbEntity
  8
0
 62
256
370
-1
  6
BYLAYER
100
AcDbCircle
 10
74.4577508678095796
 20
-79.7525659772479685
 30
0.0
 40
18.3727775225645473
100
AcDbArc
 50
279.956144474017492
 51
282.0762015575792248
  0
ARC
  5
87
100
AcDbEntity
  8
0
 62
256
370
-1
  6
BYLAYER
100
AcDbCircle
 10
83.6928562586669074
 20
-100.2267342833050208
 30
0.0
 40
5.9460892869652771
100
AcDbArc
 50
155.0526130317412878
 51
162.0110984126035305
  0
ARC
  5
88
100
AcDbEntity
  8
0
 62
256
370
-1
  6
BYLAYER
100
AcDbCircle
 10
78.3095107930208201
 20
-98.4233198924945043
 30
0.0
 40
0.2740631912175744
100
AcDbArc
 50
173.0983740992707567
 51
274.5338237984036027
  0
ARC
  5
89
100
AcDbEntity
  8
0
 62
256
370
-1
  6
BYLAYER
100
AcDbCircle
 10
78.6866600279549857
 20
-94.6418859336079663
 30
0.0
 40
4.0701930806695108
100
AcDbArc
 50
264.9894796632976295
 51
274.4152300205890924
  0
ARC
  5
8A
100
AcDbEntity
  8
0
 62
256
370
-1
  6
BYLAYER
100
AcDbCircle
 10
79.4498241867103872
 20
-99.702835247627192
 30
0.0
 40
1.0990997829283662
100
AcDbArc
 50
114.1587352607693333
 51
164.6109691530668613
  0
ARC
  5
8B
100
AcDbEntity
  8
0
 62
256
370
-1
  6
BYLAYER
100
AcDbCircle
 10
78.5778115617015231
 20
-99.4954590962655203
 30
0.0
 40
0.2057408760908685
100
AcDbArc
 50
155.8135171506097265
 51
276.1911919335648236
  0
ARC
  5
8C
100
AcDbEntity
  8
0
 62
256
370
-1
  6
BYLAYER
100
AcDbCircle
 10
77.7063149184091486
 20
-96.3239013122046259
 30
0.0
 40
3.4923796149318682
100
AcDbArc
 50
284.8266686934146037
 51
299.153483346442556
  0
ARC
  5
8D
100
AcDbEntity
  8
0
 62
256
370
-1
  6
BYLAYER
100
AcDbCircle
 10
82.1221796851546344
 20
-100.2861350160603564
 30
0.0
 40
2.8637432547523383
100
AcDbArc
 50
161.4240928211660844
 51
177.9512891646727155
  0
ARC
  5
8E
100
AcDbEntity
  8
0
 62
256
370
-1
  6
BYLAYER
100
AcDbCircle
 10
79.4473597699475533
 20
-100.2135593110090497
 30
0.0
 40
0.192361842164456
100
AcDbArc
 50
165.703844047427026
 51
255.7471515131917386
  0
ARC
  5
8F
100
AcDbEntity
  8
0
 62
256
370
-1
  6
BYLAYER
100
AcDbCircle
 10
79.5387484676340222
 20
-99.253071629948991
 30
0.0
 40
1.176306528584883
100
AcDbArc
 50
264.9889712037971776
 51
305.9768178261917342
  0
ARC
  5
90
100
AcDbEntity
  8
0
 62
256
370
-1
  6
BYLAYER
100
AcDbCircle
 10
81.6646758488867874
 20
-100.9824814381090903
 30
0.0
 40
1.6319930359004289
100
AcDbArc
 50
151.5495894352754931
 51
185.4220115116856675
  0
ARC
  5
91
100
AcDbEntity
  8
0
 62
256
370
-1
  6
BYLAYER
100
AcDbCircle
 10
80.2579553929465419
 20
-101.1346559510266445
 30
0.0
 40
0.2179801021283166
100
AcDbArc
 50
180.5345823901922131
 51
310.6653837379073479
  0
ARC
  5
92
100
AcDbEntity
  8
0
 62
256
370
-1
  6
BYLAYER
100
AcDbCircle
 10
79.6026724515287469
 20
-100.2372791541807686
 30
0.0
 40
1.3285732255656393
100
AcDbArc
 50
306.8797963655648005
 51
346.8229273610621703
  0
ARC
  5
93
100
AcDbEntity
  8
0
 62
256
370
-1
  6
BYLAYER
100
AcDbCircle
 10
82.5255501729728138
 20
-100.4481893339719392
 30
0.0
 40
1.6318783058283026
100
AcDbArc
 50
183.2302126744443171
 51
215.6802191561560278
  0
ARC
  5
94
100
AcDbEntity
  8
0
 62
256
370
-1
  6
BYLAYER
100
AcDbCircle
 10
81.3848789646002615
 20
-101.3072018669514023
 30
0.0
 40
0.2068616084462322
100
AcDbArc
 50
206.6539016296419504
 51
319.6060268447939734
  0
ARC
  5
95
100
AcDbEntity
  8
0
 62
256
370
-1
  6
BYLAYER
100
AcDbCircle
 10
80.4119386518882777
 20
-99.9761822865124685
 30
0.0
 40
1.8505253583692227
100
AcDbArc
 50
307.6546664539510516
 51
332.1239567215247348
  0
ARC
  5
96
100
AcDbEntity
  8
0
 62
256
370
-1
  6
BYLAYER
100
AcDbCircle
 10
85.7175850434582856
 20
-100.4604802447097995
 30
0.0
 40
0.9862493075963328
100
AcDbArc
 50
203.7078771015317216
 51
252.8284889024185702
  0
ARC
  5
97
100
AcDbEntity
  8
0
 62
256
370
-1
  6
BYLAYER
100
AcDbCircle
 10
85.5096562873514046
 20
-101.1787634486275351
 30
0.0
 40
0.2389719608621723
100
AcDbArc
 50
249.6138984702062942
 51
330.2161355455154421
  0
ARC
  5
98
100
AcDbEntity
  8
0
 62
256
370
-1
  6
BYLAYER
100
AcDbCircle
 10
81.9331260673861834
 20
-99.7996860454111498
 30
0.0
 40
4.0695843235457918
100
AcDbArc
 50
338.4050282097070408
 51
349.5136829861042997
  0
ARC
  5
99
100
AcDbEntity
  8
0
 62
256
370
-1
  6
BYLAYER
100
AcDbCircle
 10
87.2853841618562569
 20
-99.8750333997866733
 30
0.0
 40
1.5056178992350013
100
AcDbArc
 50
206.2246335255778433
 51
243.2824611758711058
  0
ARC
  5
9A
100
AcDbEntity
  8
0
 62
256
370
-1
  6
BYLAYER
100
AcDbCircle
 10
86.6841938337140903
 20
-101.0170848490049593
 30
0.0
 40
0.2164925417038139
100
AcDbArc
 50
249.5263248873756936
 51
13.2113044094947156
  0
ARC
  5
9B
100
AcDbEntity
  8
0
 62
256
370
-1
  6
BYLAYER
100
AcDbCircle
 10
96.4238483251274232
 20
-97.0508571950054773
 30
0.0
 40
10.3024611467895841
100
AcDbArc
 50
197.8456759501085571
 51
202.3445929869156146
  0
ARC
  5
9C
100
AcDbEntity
  8
0
 62
256
370
-1
  6
BYLAYER
100
AcDbCircle
 10
-94.4624575562009738
 20
-855.4632050349663359
 30
0.0
 40
776.6595713316219189
100
AcDbArc
 50
76.4601675252963986
 51
76.5172998215147828
  0
ARC
  5
9D
100
AcDbEntity
  8
0
 62
256
370
-1
  6
BYLAYER
100
AcDbCircle
 10
87.4038453028784232
 20
-100.134819074985927
 30
0.0
 40
0.2564398627190474
100
AcDbArc
 50
262.4375409156752994
 51
26.9643056876323293
  0
ARC
  5
9E
100
AcDbEntity
  8
0
 62
256
370
-1
  6
BYLAYER
100
AcDbCircle
 10
92.0197375846825452
 20
-98.312512513588544
 30
0.0
 40
4.7073556002845018
100
AcDbArc
 50
193.2099178239405717
 51
201.2487324319212973
  0
ARC
  5
9F
100
AcDbEntity
  8
0
 62
256
370
-1
  6
BYLAYER
100
AcDbCircle
 10
88.2652509055964174
 20
-98.3694981888071567
 30
0.0
 40
1.2835664888847205
100
AcDbArc
 50
233.4024110570129267
 51
265.8557028490556036
  0
ARC
  5
A0
100
AcDbEntity
  8
0
 62
256
370
-1
  6
BYLAYER
100
AcDbCircle
 10
88.2414509786351715
 20
-99.4198377212599382
 30
0.0
 40
0.2399921641565728
100
AcDbArc
 50
253.3006676024529895
 51
24.5080209986107604
  0
ARC
  5
A1
100
AcDbEntity
  8
0
 62
256
370
-1
  6
BYLAYER
100
AcDbCircle
 10
86.4579667514662589
 20
-100.6786989817241675
 30
0.0
 40
2.4192375059590088
100
AcDbArc
 50
34.1599712994569984
 51
54.8658464860365527
  0
ARC
  5
A2
100
AcDbEntity
  8
0
 62
256
370
-1
  6
BYLAYER
100
AcDbCircle
 10
88.0738222431461963
 20
-96.1818633976160413
 30
0.0
 40
2.5282737838219136
100
AcDbArc
 50
264.9261073975975478
 51
283.3168652483363417
  0
ARC
  5
A3
100
AcDbEntity
  8
0
 62
256
370
-1
  6
BYLAYER
100
AcDbCircle
 10
88.5589967891247909
 20
-98.4000000000000057
 30
0.0
 40
0.2609263261002248
100
AcDbArc
 50
291.86593946388615
 51
22.5351375684799571
  0
ARC
  5
A4
100
AcDbEntity
  8
0
 62
256
370
-1
  6
BYLAYER
100
AcDbCircle
 10
93.1271923279625469
 20
-95.9153097754719965
 30
0.0
 40
4.9407834308070493
100
AcDbArc
 50
201.3375319481825443
 51
208.8589006014604479
  0
ARC
  5
A5
100
AcDbEntity
  8
0
 62
256
370
-1
  6
BYLAYER
100
AcDbCircle
 10
90.4767242210390776
 20
-85.2241251517033476
 30
0.0
 40
12.6405163239722196
100
AcDbArc
 50
261.1182565379064613
 51
264.2030960576727807
  0
ARC
  5
A6
100
AcDbEntity
  8
0
 62
256
370
-1
  6
BYLAYER
100
AcDbCircle
 10
89.2403155312656224
 20
-97.1112621250625523
 30
0.0
 40
0.6899168083432783
100
AcDbArc
 50
266.6499925918878944
 51
301.4224943439665481
  0
ARC
  5
A7
100
AcDbEntity
  8
0
 62
256
370
-1
  6
BYLAYER
100
AcDbCircle
 10
88.4798938063328535
 20
-98.1860849549337331
 30
0.0
 40
1.2210309039923823
100
AcDbArc
 50
23.4590729399493867
 51
53.860543568233247
  0
ARC
  5
A8
100
AcDbEntity
  8
0
 62
256
370
-1
  6
BYLAYER
100
AcDbCircle
 10
89.5293072882104042
 20
-96.2913854235791007
 30
0.0
 40
0.966449035672864
100
AcDbArc
 50
223.570631535534659
 51
250.0780698006601881
  0
ARC
  5
A9
100
AcDbEntity
  8
0
 62
256
370
-1
  6
BYLAYER
100
AcDbCircle
 10
91.029097665972813
 20
-102.7522460029280609
 30
0.0
 40
6.1983071251629474
100
AcDbArc
 50
103.7336231835933944
 51
110.7895691662853466
  0
ARC
  5
AA
100
AcDbEntity
  8
0
 62
256
370
-1
  6
BYLAYER
100
AcDbCircle
 10
89.5100435223870505
 20
-96.4779190652568985
 30
0.0
 40
0.2602665118085771
100
AcDbArc
 50
275.1088341424052146
 51
43.1258690714004231
  0
ARC
  5
AB
100
AcDbEntity
  8
0
 62
256
370
-1
  6
BYLAYER
100
AcDbCircle
 10
88.1869662068546631
 20
-97.5760619915804455
 30
0.0
 40
1.9792941836816584
100
AcDbArc
 50
40.1436039622091485
 51
62.7212949985850372
  0
ARC
  5
AC
100
AcDbEntity
  8
0
 62
256
370
-1
  6
BYLAYER
100
AcDbCircle
 10
88.3571300650654194
 20
-90.3680977748575458
 30
0.0
 40
5.4984071330368112
100
AcDbArc
 50
277.702883023607626
 51
286.908917415449821
  0
ARC
  5
AD
100
AcDbEntity
  8
0
 62
256
370
-1
  6
BYLAYER
100
AcDbCircle
 10
89.8838473830265059
 20
-95.4237841603468695
 30
0.0
 40
0.2174572144305916
100
AcDbArc
 50
289.4753412663757217
 51
66.562853449342299
  0
ARC
  5
AE
100
AcDbEntity
  8
0
 62
256
370
-1
  6
BYLAYER
100
AcDbCircle
 10
89.0638035528802732
 20
-97.9243224825441985
 30
0.0
 40
2.848175279437489
100
AcDbArc
 50
71.4406658899837197
 51
89.5552316385970926
  0
ARC
  5
AF
100
AcDbEntity
  8
0
 62
256
370
-1
  6
BYLAYER
100
AcDbCircle
 10
87.7743657594185436
 20
-93.2682743195639574
 30
0.0
 40
2.2335779019900075
100
AcDbArc
 50
305.9582480370799544
 51
329.5565730261703266
  0
ARC
  5
B0
100
AcDbEntity
  8
0
 62
256
370
-1
  6
BYLAYER
100
AcDbCircle
 10
89.4761372413895089
 20
-94.2434656896526093
 30
0.0
 40
0.2731620855986917
100
AcDbArc
 50
325.0371264011716335
 51
63.0353605346802439
  0
ARC
  5
B1
100
AcDbEntity
  8
0
 62
256
370
-1
  6
BYLAYER
100
AcDbCircle
 10
89.1095400403960411
 20
-95.0839448268717433
 30
0.0
 40
1.1897425602527398
100
AcDbArc
 50
65.6543482987930958
 51
104.0322733632374224
  0
ARC
  5
B2
100
AcDbEntity
  8
0
 62
256
370
-1
  6
BYLAYER
100
AcDbCircle
 10
88.1255230008734003
 20
-92.406642250655068
 30
0.0
 40
1.6743652347677922
100
AcDbArc
 50
294.5449130769671342
 51
331.7170627621292738
  0
ARC
  5
B3
100
AcDbEntity
  8
0
 62
256
370
-1
  6
BYLAYER
100
AcDbCircle
 10
88.8497081482030637
 20
-93.9840143208594441
 30
0.0
 40
1.0851803159777385
100
AcDbArc
 50
46.2590994882648303
 51
87.343719484437031
  0
ARC
  5
B4
100
AcDbEntity
  8
0
 62
256
370
-1
  6
BYLAYER
100
AcDbCircle
 10
79.4245417682810739
 20
-89.9209466362932659
 30
0.0
 40
0.6200602116715469
100
AcDbArc
 50
253.6024399944772085
 51
282.9152763532832751
  0
ARC
  5
B5
100
AcDbEntity
  8
0
 62
256
370
-1
  6
BYLAYER
100
AcDbCircle
 10
79.4521042838299962
 20
-92.4742885197857873
 30
0.0
 40
1.9521280685809774
100
AcDbArc
 50
66.481148624241996
 51
86.7395472578080842
  0
ARC
  5
B6
100
AcDbEntity
  8
0
 62
256
370
-1
  6
BYLAYER
100
AcDbCircle
 10
54.4126939656682111
 20
-99.277059173447654
 30
0.0
 40
27.2107567462758837
100
AcDbArc
 50
18.4081752678362527
 51
19.967797112024364
  0
ARC
  5
B7
100
AcDbEntity
  8
0
 62
256
370
-1
  6
BYLAYER
100
AcDbCircle
 10
80.2977402966965883
 20
-89.9416203324089878
 30
0.0
 40
0.3130650916123875
100
AcDbArc
 50
114.554567037502963
 51
187.928766509584193
  0
ARC
  5
B8
100
AcDbEntity
  8
0
 62
256
370
-1
  6
BYLAYER
100
AcDbCircle
 10
79.9542714273138841
 20
-90.6097544050859796
 30
0.0
 40
0.9764844451409064
100
AcDbArc
 50
15.5462747277458746
 51
77.3784653342760436
  0
ARC
  5
B9
100
AcDbEntity
  8
0
 62
256
370
-1
  6
BYLAYER
100
AcDbCircle
 10
82.2804491988279807
 20
-90.4013184023746987
 30
0.0
 40
1.386442746053967
100
AcDbArc
 50
136.0069093442542396
 51
177.7977046799890388
  0
ARC
  5
BA
100
AcDbEntity
  8
0
 62
256
370
-1
  6
BYLAYER
100
AcDbCircle
 10
81.0506724428268086
 20
-90.4796359641563583
 30
0.0
 40
1.0669063006113466
100
AcDbArc
 50
24.0245325740354652
 51
77.4220776540814484
  0
ARC
  5
BB
100
AcDbEntity
  8
0
 62
256
370
-1
  6
BYLAYER
100
AcDbCircle
 10
83.4632429645573097
 20
-89.9135496188810066
 30
0.0
 40
1.4441087036309752
100
AcDbArc
 50
142.9690833804605177
 51
185.2333016226408802
  0
ARC
  5
BC
100
AcDbEntity
  8
0
 62
256
370
-1
  6
BYLAYER
100
AcDbCircle
 10
82.3035145854244945
 20
-89.4108373445862981
 30
0.0
 40
0.3670607402059443
100
AcDbArc
 50
6.7989543345380357
 51
88.9258561176838214
  0
ARC
  5
BD
100
AcDbEntity
  8
0
 62
256
370
-1
  6
BYLAYER
100
AcDbCircle
 10
84.2377975452573793
 20
-89.2097012751516729
 30
0.0
 40
1.5777029033091434
100
AcDbArc
 50
185.7359214530164877
 51
206.7441849086851562
  0
ARC
  5
BE
100
AcDbEntity
  8
0
 62
256
370
-1
  6
BYLAYER
100
AcDbCircle
 10
85.044969144139472
 20
-91.2712298323381788
 30
0.0
 40
2.5957239058996797
100
AcDbArc
 50
129.1765037581866409
 51
148.6219069892650282
  0
ARC
  5
BF
100
AcDbEntity
  8
0
 62
256
370
-1
  6
BYLAYER
100
AcDbCircle
 10
83.1395509481611015
 20
-90.0814685195747558
 30
0.0
 40
0.8642972234666522
100
AcDbArc
 50
5.408720709271531
 51
72.0984535160189495
  0
ARC
  5
C0
100
AcDbEntity
  8
0
 62
256
370
-1
  6
BYLAYER
100
AcDbCircle
 10
86.7248433259946268
 20
-90.5749059955968647
 30
0.0
 40
2.7848227805929029
100
AcDbArc
 50
143.0268439829785336
 51
167.2209649819429842
  0
ARC
  5
C1
100
AcDbEntity
  8
0
 62
256
370
-1
  6
BYLAYER
100
AcDbCircle
 10
82.9891260560870734
 20
-89.9282441346286703
 30
0.0
 40
1.8275738219818287
100
AcDbArc
 50
356.6610899543475171
 51
34.2377343554287918
  0
ARC
  5
C2
100
AcDbEntity
  8
0
 62
256
370
-1
  6
BYLAYER
100
AcDbCircle
 10
87.0571973372242525
 20
-92.2345758796049608
 30
0.0
 40
3.1421739033459333
100
AcDbArc
 50
118.5225862640159988
 51
135.5635870939232461
  0
ARC
  5
C3
100
AcDbEntity
  8
0
 62
256
370
-1
  6
BYLAYER
100
AcDbCircle
 10
85.1869382265869035
 20
-90.0377200389475263
 30
0.0
 40
0.6744117554091209
100
AcDbArc
 50
0.9396889021965349
 51
56.7419266045041226
  0
ARC
  5
C4
100
AcDbEntity
  8
0
 62
256
370
-1
  6
BYLAYER
100
AcDbCircle
 10
86.4990405312813095
 20
-89.9751179986976553
 30
0.0
 40
0.6398605102891969
100
AcDbArc
 50
184.6202676321371428
 51
215.7944677737365566
  0
ARC
  5
C5
100
AcDbEntity
  8
0
 62
256
370
-1
  6
BYLAYER
100
AcDbCircle
 10
87.8184397262576084
 20
-91.154700098979518
 30
0.0
 40
2.0070624554582803
100
AcDbArc
 50
127.9355579956638138
 51
156.3434339026929365
  0
ARC
  5
C6
100
AcDbEntity
  8
0
 62
256
370
-1
  6
BYLAYER
100
AcDbCircle
 10
86.7604391055231758
 20
-89.7406214209539286
 30
0.0
 40
0.2438518660861476
100
AcDbArc
 50
322.3456119333870333
 51
136.1620609388503169
  0
ARC
  5
C7
100
AcDbEntity
  8
0
 62
256
370
-1
  6
BYLAYER
100
AcDbCircle
 10
88.632085136916956
 20
-90.8595100540752867
 30
0.0
 40
1.9386584107693035
100
AcDbArc
 50
149.9798271376146204
 51
175.2804495403363774
  0
ARC
  5
C8
100
AcDbEntity
  8
0
 62
256
370
-1
  6
BYLAYER
100
AcDbCircle
 10
87.377265004908665
 20
-91.5545300098173556
 30
0.0
 40
1.0903712324490249
100
AcDbArc
 50
70.5800913608708953
 51
128.3988825579722857
  0
ARC
  5
C9
100
AcDbEntity
  8
0
 62
256
370
-1
  6
BYLAYER
100
AcDbCircle
 10
82.0393131702335126
 20
-100.9225386080059792
 30
0.0
 40
0.5555636887831611
100
AcDbArc
 50
74.3863869005826217
 51
172.0054661577882484
  0
ARC
  5
CA
100
AcDbEntity
  8
0
 62
256
370
-1
  6
BYLAYER
100
AcDbCircle
 10
79.589183899875664
 20
-101.2077688921705914
 30
0.0
 40
1.9342365380919424
100
AcDbArc
 50
10.8017349917756462
 51
38.6393608834512037
  0
ARC
  5
CB
100
AcDbEntity
  8
0
 62
256
370
-1
  6
BYLAYER
100
AcDbCircle
 10
81.1232509270612923
 20
-100.6101836780201779
 30
0.0
 40
0.6106265032992527
100
AcDbArc
 50
92.1821884706298107
 51
132.9910566741860691
  0
ARC
  5
CC
100
AcDbEntity
  8
0
 62
256
370
-1
  6
BYLAYER
100
AcDbCircle
 10
80.3830780736633272
 20
-100.0593678206210768
 30
0.0
 40
0.3401393583550217
100
AcDbArc
 50
342.1667539754381551
 51
66.191562734045533
  0
ARC
  5
CD
100
AcDbEntity
  8
0
 62
256
370
-1
  6
BYLAYER
100
AcDbCircle
 10
80.3474778834081889
 20
-100.9508511837438931
 30
0.0
 40
1.2150427491676232
100
AcDbArc
 50
81.8187037963106718
 51
124.7488463268331316
  0
ARC
  5
CE
100
AcDbEntity
  8
0
 62
256
370
-1
  6
BYLAYER
100
AcDbCircle
 10
78.6444429457017549
 20
-99.2458444480688939
 30
0.0
 40
1.233062342827546
100
AcDbArc
 50
325.0339636303813222
 51
12.6607232725749217
  0
ARC
  5
CF
100
AcDbEntity
  8
0
 62
256
370
-1
  6
BYLAYER
100
AcDbCircle
 10
79.6072881788722242
 20
-99.1594043230078768
 30
0.0
 40
0.302493794372219
100
AcDbArc
 50
37.4219077637036861
 51
104.6850828572734429
  0
ARC
  5
D0
100
AcDbEntity
  8
0
 62
256
370
-1
  6
BYLAYER
100
AcDbCircle
 10
79.0857405240977585
 20
-98.7395938305768937
 30
0.0
 40
0.4626910286143875
100
AcDbArc
 50
344.0433962899314224
 51
47.2188858694855469
  0
ARC
  5
D1
100
AcDbEntity
  8
0
 62
256
370
-1
  6
BYLAYER
100
AcDbCircle
 10
78.7368158522349546
 20
-99.88955244329523
 30
0.0
 40
1.6305151625095848
100
AcDbArc
 50
66.0002352496070444
 51
98.7358747657750655
  0
ARC
  5
D2
100
AcDbEntity
  8
0
 62
256
370
-1
  6
BYLAYER
100
AcDbCircle
 10
76.5987674977291704
 20
-96.8605245359444638
 30
0.0
 40
2.3627819817335767
100
AcDbArc
 50
323.1374013807130723
 51
344.0643998587572128
  0
ARC
  5
D3
100
AcDbEntity
  8
0
 62
256
370
-1
  6
BYLAYER
100
AcDbCircle
 10
78.6253947776506124
 20
-97.4501725619804375
 30
0.0
 40
0.2523655338113119
100
AcDbArc
 50
346.4635468301721062
 51
107.0343452589378046
  0
ARC
  5
D4
100
AcDbEntity
  8
0
 62
256
370
-1
  6
BYLAYER
100
AcDbCircle
 10
77.8994547073931756
 20
-97.0611963613696247
 30
0.0
 40
0.668526878597791
100
AcDbArc
 50
347.2377025061724112
 51
33.8757870052615075
  0
ARC
  5
D5
100
AcDbEntity
  8
0
 62
256
370
-1
  6
BYLAYER
100
AcDbCircle
 10
77.5129931670986139
 20
-98.4213474107665149
 30
0.0
 40
1.9720475885739164
100
AcDbArc
 50
61.4826484342890964
 51
85.3582651833897472
  0
ARC
  5
D6
100
AcDbEntity
  8
0
 62
256
370
-1
  6
BYLAYER
100
AcDbCircle
 10
75.3719802023170615
 20
-93.8699639265207395
 30
0.0
 40
3.4610902459879496
100
AcDbArc
 50
311.659628161952412
 51
326.628738316539625
  0
ARC
  5
D7
100
AcDbEntity
  8
0
 62
256
370
-1
  6
BYLAYER
100
AcDbCircle
 10
78.1283877014912065
 20
-95.6489107597795538
 30
0.0
 40
0.1831836955901116
100
AcDbArc
 50
317.0272942018012827
 51
82.5704585072515016
  0
ARC
  5
D8
100
AcDbEntity
  8
0
 62
256
370
-1
  6
BYLAYER
100
AcDbCircle
 10
77.9812847626215842
 20
-95.1671788093446054
 30
0.0
 40
0.3452837546486909
100
AcDbArc
 50
299.645765143883466
 51
50.695901698261693
  0
ARC
  5
D9
100
AcDbEntity
  8
0
 62
256
370
-1
  6
BYLAYER
100
AcDbCircle
 10
79.016935903391456
 20
-93.7830640966084559
 30
0.0
 40
1.3838099878722672
100
AcDbArc
 50
209.1832340411805262
 51
233.817962180706246
  0
ARC
  5
DA
100
AcDbEntity
  8
0
 62
256
370
-1
  6
BYLAYER
100
AcDbCircle
 10
75.5971379972197042
 20
-88.6896815175728506
 30
0.0
 40
6.1775992404229401
100
AcDbArc
 50
290.9780316637034048
 51
298.7677150930762195
  0
ARC
  5
DB
100
AcDbEntity
  8
0
 62
256
370
-1
  6
BYLAYER
100
AcDbCircle
 10
78.1774273353586864
 20
-93.9430426018852387
 30
0.0
 40
0.4247591346623492
100
AcDbArc
 50
337.6111797778205528
 51
47.7897143973345564
  0
ARC
  5
DC
100
AcDbEntity
  8
0
 62
256
370
-1
  6
BYLAYER
100
AcDbCircle
 10
78.6108344017163461
 20
-93.370278133905444
 30
0.0
 40
0.2975831973347462
100
AcDbArc
 50
240.1689264905044752
 51
13.6601862207390958
  0
ARC
  5
DD
100
AcDbEntity
  8
0
 62
256
370
-1
  6
BYLAYER
100
AcDbCircle
 10
77.650000000000162
 20
-93.5499999999998835
 30
0.0
 40
1.2747548783980056
100
AcDbArc
 50
11.3099324740167226
 51
48.1798301198663381
  0
ARC
  5
DE
100
AcDbEntity
  8
0
 62
256
370
-1
  6
BYLAYER
100
AcDbCircle
 10
78.7251398242540574
 20
-91.039693594441232
 30
0.0
 40
1.5858868490603744
100
AcDbArc
 50
262.2909858910518324
 51
298.2873353257392637
  0
ARC
  5
DF
100
AcDbEntity
  8
0
 62
256
370
-1
  6
BYLAYER
100
AcDbCircle
 10
79.2062993952322358
 20
-92.3198097683437453
 30
0.0
 40
0.2943679197242516
100
AcDbArc
 50
336.7102714656608669
 51
51.9148574236329736
  0
ARC
  5
E0
100
AcDbEntity
  8
0
 62
256
370
-1
  6
BYLAYER
100
AcDbCircle
 10
79.4925256613296085
 20
-91.9764331183563826
 30
0.0
 40
0.153050514074937
100
AcDbArc
 50
61.2586425494314781
 51
226.8613441632938645
  0
ARC
  5
E1
100
AcDbEntity
  8
0
 62
256
370
-1
  6
BYLAYER
100
AcDbCircle
 10
79.651723675396255
 20
-91.647604133135161
 30
0.0
 40
0.2126272999298985
100
AcDbArc
 50
246.2594981958717426
 51
16.8613151110306774
  0
ARC
  5
E2
100
AcDbEntity
  8
0
 62
256
370
-1
  6
BYLAYER
100
AcDbCircle
 10
78.9843032977978794
 20
-91.5012194245012438
 30
0.0
 40
0.875016859171418
100
AcDbArc
 50
354.4444630162749945
 51
39.9401596699281569
  0
ARC
  5
E3
100
AcDbEntity
  8
0
 62
256
370
-1
  6
BYLAYER
100
AcDbCircle
 10
80.3300048290611812
 20
-90.0822373756278125
 30
0.0
 40
1.0909718482113426
100
AcDbArc
 50
231.7902078440833122
 51
287.4581920834687025
  0
ARC
  5
E4
100
AcDbEntity
  8
0
 62
256
370
-1
  6
BYLAYER
100
AcDbCircle
 10
80.5764937251939415
 20
-90.8942477985964246
 30
0.0
 40
0.2425648416773396
100
AcDbArc
 50
289.4608008937864838
 51
22.8641086592817793
  0
ARC
  5
E5
100
AcDbEntity
  8
0
 62
256
370
-1
  6
BYLAYER
100
AcDbCircle
 10
80.965793683069748
 20
-90.7184126338604813
 30
0.0
 40
0.184781069537473
100
AcDbArc
 50
206.2018808141362456
 51
339.9278928533789212
  0
ARC
  5
E6
100
AcDbEntity
  8
0
 62
256
370
-1
  6
BYLAYER
100
AcDbCircle
 10
80.1924983444492199
 20
-90.0207995288725584
 30
0.0
 40
1.2147831292563067
100
AcDbArc
 50
321.2095198727486149
 51
1.8538337092525392
  0
ARC
  5
E7
100
AcDbEntity
  8
0
 62
256
370
-1
  6
BYLAYER
100
AcDbCircle
 10
82.4338094760397553
 20
-89.5279059720068204
 30
0.0
 40
1.1228599071801291
100
AcDbArc
 50
203.8262511624491253
 51
252.7053896566825699
  0
ARC
  5
E8
100
AcDbEntity
  8
0
 62
256
370
-1
  6
BYLAYER
100
AcDbCircle
 10
82.1417191846014276
 20
-90.2647656659097066
 30
0.0
 40
0.3378202911560459
100
AcDbArc
 50
262.9061361900674569
 51
330.273181687700685
  0
ARC
  5
E9
100
AcDbEntity
  8
0
 62
256
370
-1
  6
BYLAYER
100
AcDbCircle
 10
82.2308909528987613
 20
-90.2499999999999858
 30
0.0
 40
0.2737145944807043
100
AcDbArc
 50
318.2451010813747416
 51
10.5254367072280033
  0
ARC
  5
EA
100
AcDbEntity
  8
0
 62
256
370
-1
  6
BYLAYER
100
AcDbCircle
 10
82.8548557490373838
 20
-90.1402885019251414
 30
0.0
 40
0.3638701898338217
100
AcDbArc
 50
195.5714365838929609
 51
261.3292381499063595
  0
ARC
  5
EB
100
AcDbEntity
  8
0
 62
256
370
-1
  6
BYLAYER
100
AcDbCircle
 10
82.807875320280445
 20
-89.9805345128735468
 30
0.0
 40
0.519525180318561
100
AcDbArc
 50
269.1314378705291688
 51
331.5619095128898266
  0
ARC
  5
EC
100
AcDbEntity
  8
0
 62
256
370
-1
  6
BYLAYER
100
AcDbCircle
 10
83.5030765509793724
 20
-90.3445010207425412
 30
0.0
 40
0.2653403936567778
100
AcDbArc
 50
3.74618965587733
 51
153.9407828833853102
  0
ARC
  5
ED
100
AcDbEntity
  8
0
 62
256
370
-1
  6
BYLAYER
100
AcDbCircle
 10
84.0447815555555593
 20
-90.2129223562604494
 30
0.0
 40
0.2925274854640033
100
AcDbArc
 50
191.5557732526887946
 51
294.9201238753562393
  0
ARC
  5
EE
100
AcDbEntity
  8
0
 62
256
370
-1
  6
BYLAYER
100
AcDbCircle
 10
84.1041654614340217
 20
-90.1893201250195062
 30
0.0
 40
0.2958711877368071
100
AcDbArc
 50
282.467389238296164
 51
9.6845297485313093
  0
ARC
  5
EF
100
AcDbEntity
  8
0
 62
256
370
-1
  6
BYLAYER
100
AcDbCircle
 10
84.7140984231111105
 20
-90.2161759525812244
 30
0.0
 40
0.3273727759109893
100
AcDbArc
 50
166.4631753846378501
 51
290.2218227424750125
  0
ARC
  5
F0
100
AcDbEntity
  8
0
 62
256
370
-1
  6
BYLAYER
100
AcDbCircle
 10
84.2688445443362752
 20
-89.1688445443362809
 30
0.0
 40
1.4651154041542553
100
AcDbArc
 50
292.4042316685765854
 51
320.5391421999328827
  0
ARC
  5
F1
100
AcDbEntity
  8
0
 62
256
370
-1
  6
BYLAYER
100
AcDbCircle
 10
86.0947814841638461
 20
-90.2210437031672257
 30
0.0
 40
0.7052466864958493
100
AcDbArc
 50
170.1172131550891322
 51
251.4430446831070185
  0
ARC
  5
F2
100
AcDbEntity
  8
0
 62
256
370
-1
  6
BYLAYER
100
AcDbCircle
 10
85.9660617986989166
 20
-90.5088069324259408
 30
0.0
 40
0.3926624729020351
100
AcDbArc
 50
255.8902783309443407
 51
299.0765200816906031
  0
ARC
  5
F3
100
AcDbEntity
  8
0
 62
256
370
-1
  6
BYLAYER
100
AcDbCircle
 10
86.4823240889232068
 20
-90.8707759361268756
 30
0.0
 40
0.3259794347433786
100
AcDbArc
 50
176.6949782078783073
 51
232.9494642240730968
  0
ARC
  5
F4
100
AcDbEntity
  8
0
 62
256
370
-1
  6
BYLAYER
100
AcDbCircle
 10
86.7021838212225333
 20
-89.9109191061125586
 30
0.0
 40
1.2890827436827825
100
AcDbArc
 50
251.1604875676536608
 51
292.716929158792027
  0
ARC
  5
F5
100
AcDbEntity
  8
0
 62
256
370
-1
  6
BYLAYER
100
AcDbCircle
 10
88.4812394881846558
 20
-91.6937464960615358
 30
0.0
 40
1.4121294302113612
100
AcDbArc
 50
155.1362530901613184
 51
190.9817538629543776
  0
ARC
  5
F6
100
AcDbEntity
  8
0
 62
256
370
-1
  6
BYLAYER
100
AcDbCircle
 10
87.3533539804331411
 20
-91.8738316197116092
 30
0.0
 40
0.2732573504170778
100
AcDbArc
 50
198.9903608017219199
 51
279.1887903954798276
  0
ARC
  5
F7
100
AcDbEntity
  8
0
 62
256
370
-1
  6
BYLAYER
100
AcDbCircle
 10
87.5735582787810216
 20
-92.2856460071189844
 30
0.0
 40
0.2266240380922928
100
AcDbArc
 50
141.1804943419266749
 51
251.0596952954388428
  0
ARC
  5
F8
100
AcDbEntity
  8
0
 62
256
370
-1
  6
BYLAYER
100
AcDbCircle
 10
88.1788705368875441
 20
-90.6345178524498891
 30
0.0
 40
1.9851672092501766
100
AcDbArc
 50
250.002968089729336
 51
275.2447846718746973
  0
ARC
  5
F9
100
AcDbEntity
  8
0
 62
256
370
-1
  6
BYLAYER
100
AcDbCircle
 10
89.0912993396019175
 20
-93.4793410672498197
 30
0.0
 40
1.1347572083591067
100
AcDbArc
 50
130.1025611730126172
 51
178.5876000116396938
  0
ARC
  5
FA
100
AcDbEntity
  8
0
 62
256
370
-1
  6
BYLAYER
100
AcDbCircle
 10
88.3053216901507483
 20
-93.3538406192485724
 30
0.0
 40
0.3618272727399313
100
AcDbArc
 50
195.637459001969404
 51
253.0772081145497623
  0
ARC
  5
FB
100
AcDbEntity
  8
0
 62
256
370
-1
  6
BYLAYER
100
AcDbCircle
 10
88.6899999999999977
 20
-93.7999999999999687
 30
0.0
 40
0.5000999900020278
100
AcDbArc
 50
168.4653793463577074
 51
271.1457628381739937
  0
ARC
  5
FC
100
AcDbEntity
  8
0
 62
256
370
-1
  6
BYLAYER
100
AcDbCircle
 10
88.6776097652327024
 20
-95.3048025114445494
 30
0.0
 40
1.0050519437413352
100
AcDbArc
 50
60.4307594033041227
 51
88.723476831633775
  0
ARC
  5
FD
100
AcDbEntity
  8
0
 62
256
370
-1
  6
BYLAYER
100
AcDbCircle
 10
89.5951995981561566
 20
-95.2306967731392291
 30
0.0
 40
0.904346234193657
100
AcDbArc
 50
117.7890292914488839
 51
186.2549137080211779
  0
ARC
  5
FE
100
AcDbEntity
  8
0
 62
256
370
-1
  6
BYLAYER
100
AcDbCircle
 10
88.6259588522816983
 20
-95.6200314159263485
 30
0.0
 40
0.2991756865991065
100
AcDbArc
 50
23.6536631609438004
 51
76.4139333689210787
  0
ARC
  5
FF
100
AcDbEntity
  8
0
 62
256
370
-1
  6
BYLAYER
100
AcDbCircle
 10
88.4500000000000739
 20
-95.1500000000001052
 30
0.0
 40
0.5700877125494357
100
AcDbArc
 50
285.2551187030531423
 51
322.125016348906172
  0
ARC
  5
100
100
AcDbEntity
  8
0
 62
256
370
-1
  6
BYLAYER
100
AcDbCircle
 10
89.2885166736862743
 20
-95.7691645568726813
 30
0.0
 40
0.6919818970691803
100
AcDbArc
 50
174.2636283281309773
 51
261.1711607586187824
  0
ARC
  5
101
100
AcDbEntity
  8
0
 62
256
370
-1
  6
BYLAYER
100
AcDbCircle
 10
89.2926119342461959
 20
-98.1161917691225085
 30
0.0
 40
1.6668979489504214
100
AcDbArc
 50
93.7941799429339227
 51
128.933738969836952
  0
ARC
  5
102
100
AcDbEntity
  8
0
 62
256
370
-1
  6
BYLAYER
100
AcDbCircle
 10
88.4369974858891226
 20
-96.9633749283990056
 30
0.0
 40
0.2398107674553997
100
AcDbArc
 50
143.1504089207147388
 51
249.076427545461172
  0
ARC
  5
103
100
AcDbEntity
  8
0
 62
256
370
-1
  6
BYLAYER
100
AcDbCircle
 10
88.304934029792193
 20
-97.5443425469086378
 30
0.0
 40
0.3599763050812843
100
AcDbArc
 50
82.590640006131224
 51
145.5979284570831851
  0
ARC
  5
104
100
AcDbEntity
  8
0
 62
256
370
-1
  6
BYLAYER
100
AcDbCircle
 10
88.333470374669659
 20
-97.5716374272570874
 30
0.0
 40
0.3989942647624986
100
AcDbArc
 50
144.6791513897427706
 51
188.2297565432396595
  0
ARC
  5
105
100
AcDbEntity
  8
0
 62
256
370
-1
  6
BYLAYER
100
AcDbCircle
 10
89.444715993996212
 20
-97.1233742513166476
 30
0.0
 40
1.5886585663138721
100
AcDbArc
 50
198.5489767348185524
 51
227.2586876939554941
  0
ARC
  5
106
100
AcDbEntity
  8
0
 62
256
370
-1
  6
BYLAYER
100
AcDbCircle
 10
88.102605469509939
 20
-99.4052109390199945
 30
0.0
 40
1.1458888645530942
100
AcDbArc
 50
76.6849262100991069
 51
127.8178536110143142
  0
ARC
  5
107
100
AcDbEntity
  8
0
 62
256
370
-1
  6
BYLAYER
100
AcDbCircle
 10
87.6972211497008516
 20
-98.7018647663982165
 30
0.0
 40
0.3574644029887631
100
AcDbArc
 50
144.901345675429468
 51
236.5147367403525323
  0
ARC
  5
108
100
AcDbEntity
  8
0
 62
256
370
-1
  6
BYLAYER
100
AcDbCircle
 10
87.2416909288311473
 20
-99.1564734965687933
 30
0.0
 40
0.3020058465933829
100
AcDbArc
 50
31.2058358977273436
 51
138.6556078995999712
  0
ARC
  5
109
100
AcDbEntity
  8
0
 62
256
370
-1
  6
BYLAYER
100
AcDbCircle
 10
87.8702099850235641
 20
-99.3163640306808588
 30
0.0
 40
0.9276935951480267
100
AcDbArc
 50
157.2070412810971334
 51
222.3269111726712595
  0
ARC
  5
10A
100
AcDbEntity
  8
0
 62
256
370
-1
  6
BYLAYER
100
AcDbCircle
 10
86.3613948302515269
 20
-101.589531820366318
 30
0.0
 40
1.8424979324367468
100
AcDbArc
 50
63.470846476458803
 51
91.3369923746298866
  0
ARC
  5
10B
100
AcDbEntity
  8
0
 62
256
370
-1
  6
BYLAYER
100
AcDbCircle
 10
86.3965896923872378
 20
-100.0245516443442142
 30
0.0
 40
0.2878383495418218
100
AcDbArc
 50
105.7612780862340713
 51
208.4055799185741193
  0
ARC
  5
10C
100
AcDbEntity
  8
0
 62
256
370
-1
  6
BYLAYER
100
AcDbCircle
 10
85.8635473656256352
 20
-100.3670518282789743
 30
0.0
 40
0.3472480488246779
100
AcDbArc
 50
36.2994303812918346
 51
126.783117777948874
  0
ARC
  5
10D
100
AcDbEntity
  8
0
 62
256
370
-1
  6
BYLAYER
100
AcDbCircle
 10
85.9748241772440025
 20
-100.4618739133476879
 30
0.0
 40
0.4908896991437106
100
AcDbArc
 50
130.5610101100613178
 51
178.3937481178960525
  0
ARC
  5
10E
100
AcDbEntity
  8
0
 62
256
370
-1
  6
BYLAYER
100
AcDbCircle
 10
85.0335628001173234
 20
-100.4376218546916562
 30
0.0
 40
0.4506867122439771
100
AcDbArc
 50
304.697283123638158
 51
358.6660230293235259
  0
ARC
  5
10F
100
AcDbEntity
  8
0
 62
256
370
-1
  6
BYLAYER
100
AcDbCircle
 10
85.8643557358015812
 20
-100.0928221320992577
 30
0.0
 40
0.917316238023253
100
AcDbArc
 50
199.5643796422516232
 51
231.2440712129174187
  0
ARC
  5
110
100
AcDbEntity
  8
0
 62
256
370
-1
  6
BYLAYER
100
AcDbCircle
 10
84.8272170249704516
 20
-100.4727829750295598
 30
0.0
 40
0.1874868473099391
100
AcDbArc
 50
22.8427370499205189
 51
150.2380945925810636
  0
ENDSEC
  0
SECTION
  2
OBJECTS
  0
DICTIONARY
  5
C
100
AcDbDictionary
280
0
281
1
  3
ACAD_GROUP
350
D
  3
ACAD_LAYOUT
350
1A
  3
ACAD_MLINESTYLE
350
17
  3
ACAD_PLOTSETTINGS
350
19
  3
ACAD_PLOTSTYLENAME
350
E
  3
AcDbVariableDictionary
350
111
  3
QCAD_OBJECTS
350
112
  0
DICTIONARY
  5
D
100
AcDbDictionary
280
0
281
1
  0
ACDBDICTIONARYWDFLT
  5
E
100
AcDbDictionary
281
1
  3
Normal
350
F
100
AcDbDictionaryWithDefault
340
F
  0
ACDBPLACEHOLDER
  5
F
  0
DICTIONARY
  5
17
100
AcDbDictionary
280
0
281
1
  3
Standard
350
18
  0
MLINESTYLE
  5
18
100
AcDbMlineStyle
  2
STANDARD
 70
0
  3

 62
256
 51
90.0
 52
90.0
 71
2
 49
0.5
 62
256
  6
BYLAYER
 49
-0.5
 62
256
  6
BYLAYER
  0
DICTIONARY
  5
19
100
AcDbDictionary
280
0
281
1
  0
DICTIONARY
  5
1A
100
AcDbDictionary
281
1
  3
Layout1
350
1E
  3
Layout2
350
26
  3
Model
350
22
  0
LAYOUT
  5
1E
100
AcDbPlotSettings
  1

  2
none_device
  4

  6

 40
0.0
 41
0.0
 42
0.0
 43
0.0
 44
0.0
 45
0.0
 46
0.0
 47
0.0
 48
0.0
 49
0.0
140
0.0
141
0.0
142
1.0
143
1.0
 70
688
 72
0
 73
0
 74
5
  7

 75
16
147
1.0
148
0.0
149
0.0
100
AcDbLayout
  1
Layout1
 70
1
 71
1
 10
0.0
 20
0.0
 11
420.0
 21
297.0
 12
0.0
 22
0.0
 32
0.0
 14
100000000000000000000.0
 24
100000000000000000000.0
 34
100000000000000000000.0
 15
-100000000000000000000.0
 25
-100000000000000000000.0
 35
-100000000000000000000.0
146
0.0
 13
0.0
 23
0.0
 33
0.0
 16
1.0
 26
0.0
 36
0.0
 17
0.0
 27
1.0
 37
0.0
 76
0
330
1B
  0
LAYOUT
  5
22
100
AcDbPlotSettings
  1

  2
none_device
  4

  6

 40
0.0
 41
0.0
 42
0.0
 43
0.0
 44
0.0
 45
0.0
 46
0.0
 47
0.0
 48
0.0
 49
0.0
140
0.0
141
0.0
142
1.0
143
1.0
 70
1712
 72
0
 73
0
 74
0
  7

 75
0
147
1.0
148
0.0
149
0.0
100
AcDbLayout
  1
Model
 70
1
 71
0
 10
0.0
 20
0.0
 11
12.0
 21
9.0
 12
0.0
 22
0.0
 32
0.0
 14
0.0
 24
0.0
 34
0.0
 15
0.0
 25
0.0
 35
0.0
146
0.0
 13
0.0
 23
0.0
 33
0.0
 16
1.0
 26
0.0
 36
0.0
 17
0.0
 27
1.0
 37
0.0
 76
0
330
1F
  0
LAYOUT
  5
26
100
AcDbPlotSettings
  1

  2
none_device
  4

  6

 40
0.0
 41
0.0
 42
0.0
 43
0.0
 44
0.0
 45
0.0
 46
0.0
 47
0.0
 48
0.0
 49
0.0
140
0.0
141
0.0
142
1.0
143
1.0
 70
688
 72
0
 73
0
 74
5
  7

 75
16
147
1.0
148
0.0
149
0.0
100
AcDbLayout
  1
Layout2
 70
1
 71
2
 10
0.0
 20
0.0
 11
12.0
 21
9.0
 12
0.0
 22
0.0
 32
0.0
 14
0.0
 24
0.0
 34
0.0
 15
0.0
 25
0.0
 35
0.0
146
0.0
 13
0.0
 23
0.0
 33
0.0
 16
1.0
 26
0.0
 36
0.0
 17
0.0
 27
1.0
 37
0.0
 76
0
330
23
  0
DICTIONARY
  5
111
100
AcDbDictionary
281
1
  3
DIMASSOC
350
114
  3
HIDETEXT
350
113
  0
DICTIONARYVAR
  5
113
100
DictionaryVariables
280
0
  1
2
  0
DICTIONARYVAR
  5
114
100
DictionaryVariables
280
0
  1
1
  0
DICTIONARY
  5
112
100
AcDbDictionary
281
1
  3
ColorSettings/BackgroundColor
350
115
  3
ColorSettings/ColorMode
350
116
  3
DimensionSettings/AngularFormat
350
117
  3
DimensionSettings/AngularPrecision
350
118
  3
DimensionSettings/KeepProportions
350
119
  3
DimensionSettings/LinearFormat
350
11A
  3
DimensionSettings/LinearPrecision
350
11B
  3
Grid/DisplayGrid00
350
11C
  3
Grid/DisplayGrid01
350
11D
  3
Grid/DisplayGrid02
350
11E
  3
Grid/DisplayGrid03
350
11F
  3
Grid/GridSpacingX00
350
120
  3
Grid/GridSpacingX01
350
121
  3
Grid/GridSpacingX02
350
122
  3
Grid/GridSpacingX03
350
123
  3
Grid/GridSpacingY00
350
124
  3
Grid/GridSpacingY01
350
125
  3
Grid/GridSpacingY02
350
126
  3
Grid/GridSpacingY03
350
127
  3
Grid/IsometricGrid00
350
128
  3
Grid/IsometricGrid01
350
129
  3
Grid/IsometricGrid02
350
12A
  3
Grid/IsometricGrid03
350
12B
  3
Grid/IsometricProjection00
350
12C
  3
Grid/IsometricProjection01
350
12D
  3
Grid/IsometricProjection02
350
12E
  3
Grid/IsometricProjection03
350
12F
  3
Grid/MetaGridSpacingX00
350
130
  3
Grid/MetaGridSpacingX01
350
131
  3
Grid/MetaGridSpacingX02
350
132
  3
Grid/MetaGridSpacingX03
350
133
  3
Grid/MetaGridSpacingY00
350
134
  3
Grid/MetaGridSpacingY01
350
135
  3
Grid/MetaGridSpacingY02
350
136
  3
Grid/MetaGridSpacingY03
350
137
  3
MultiPageSettings/Columns
350
138
  3
MultiPageSettings/GlueMarginsBottom
350
139
  3
MultiPageSettings/GlueMarginsLeft
350
13A
  3
MultiPageSettings/GlueMarginsRight
350
13B
  3
MultiPageSettings/GlueMarginsTop
350
13C
  3
MultiPageSettings/PrintCropMarks
350
13D
  3
MultiPageSettings/Rows
350
13E
  3
PageSettings/OffsetX
350
13F
  3
PageSettings/OffsetY
350
140
  3
PageSettings/PageOrientation
350
141
  3
PageSettings/PaperHeight
350
142
  3
PageSettings/PaperWidth
350
143
  3
PageSettings/Scale
350
144
  3
PageSettings/ShowPaperBorders
350
145
  3
UnitSettings/PaperUnit
350
146
  0
XRECORD
  5
115
330
112
100
AcDbXrecord
280
1
1000
White
  0
XRECORD
  5
116
330
112
100
AcDbXrecord
280
1
1000
FullColor
  0
XRECORD
  5
117
330
112
100
AcDbXrecord
280
1
 90
0
  0
XRECORD
  5
118
330
112
100
AcDbXrecord
280
1
 90
0
  0
XRECORD
  5
119
330
112
100
AcDbXrecord
280
1
290
1
  0
XRECORD
  5
11A
330
112
100
AcDbXrecord
280
1
 90
2
  0
XRECORD
  5
11B
330
112
100
AcDbXrecord
280
1
 90
4
  0
XRECORD
  5
11C
330
112
100
AcDbXrecord
280
1
290
1
  0
XRECORD
  5
11D
330
112
100
AcDbXrecord
280
1
290
1
  0
XRECORD
  5
11E
330
112
100
AcDbXrecord
280
1
290
1
  0
XRECORD
  5
11F
330
112
100
AcDbXrecord
280
1
290
1
  0
XRECORD
  5
120
330
112
100
AcDbXrecord
280
1
1000
auto
  0
XRECORD
  5
121
330
112
100
AcDbXrecord
280
1
1000
auto
  0
XRECORD
  5
122
330
112
100
AcDbXrecord
280
1
1000
auto
  0
XRECORD
  5
123
330
112
100
AcDbXrecord
280
1
1000
auto
  0
XRECORD
  5
124
330
112
100
AcDbXrecord
280
1
1000
auto
  0
XRECORD
  5
125
330
112
100
AcDbXrecord
280
1
1000
auto
  0
XRECORD
  5
126
330
112
100
AcDbXrecord
280
1
1000
auto
  0
XRECORD
  5
127
330
112
100
AcDbXrecord
280
1
1000
auto
  0
XRECORD
  5
128
330
112
100
AcDbXrecord
280
1
290
0
  0
XRECORD
  5
129
330
112
100
AcDbXrecord
280
1
290
0
  0
XRECORD
  5
12A
330
112
100
AcDbXrecord
280
1
290
0
  0
XRECORD
  5
12B
330
112
100
AcDbXrecord
280
1
290
0
  0
XRECORD
  5
12C
330
112
100
AcDbXrecord
280
1
 90
0
  0
XRECORD
  5
12D
330
112
100
AcDbXrecord
280
1
 90
0
  0
XRECORD
  5
12E
330
112
100
AcDbXrecord
280
1
 90
0
  0
XRECORD
  5
12F
330
112
100
AcDbXrecord
280
1
 90
0
  0
XRECORD
  5
130
330
112
100
AcDbXrecord
280
1
1000
auto
  0
XRECORD
  5
131
330
112
100
AcDbXrecord
280
1
1000
auto
  0
XRECORD
  5
132
330
112
100
AcDbXrecord
280
1
1000
auto
  0
XRECORD
  5
133
330
112
100
AcDbXrecord
280
1
1000
auto
  0
XRECORD
  5
134
330
112
100
AcDbXrecord
280
1
1000
auto
  0
XRECORD
  5
135
330
112
100
AcDbXrecord
280
1
1000
auto
  0
XRECORD
  5
136
330
112
100
AcDbXrecord
280
1
1000
auto
  0
XRECORD
  5
137
330
112
100
AcDbXrecord
280
1
1000
auto
  0
XRECORD
  5
138
330
112
100
AcDbXrecord
280
1
 90
1
  0
XRECORD
  5
139
330
112
100
AcDbXrecord
280
1
 40
10.0
  0
XRECORD
  5
13A
330
112
100
AcDbXrecord
280
1
 40
10.0
  0
XRECORD
  5
13B
330
112
100
AcDbXrecord
280
1
 40
10.0
  0
XRECORD
  5
13C
330
112
100
AcDbXrecord
280
1
 40
10.0
  0
XRECORD
  5
13D
330
112
100
AcDbXrecord
280
1
290
0
  0
XRECORD
  5
13E
330
112
100
AcDbXrecord
280
1
 90
1
  0
XRECORD
  5
13F
330
112
100
AcDbXrecord
280
1
 40
0.0
  0
XRECORD
  5
140
330
112
100
AcDbXrecord
280
1
 40
0.0
  0
XRECORD
  5
141
330
112
100
AcDbXrecord
280
1
1000
Portrait
  0
XRECORD
  5
142
330
112
100
AcDbXrecord
280
1
 40
279.3999999999999773
  0
XRECORD
  5
143
330
112
100
AcDbXrecord
280
1
 40
215.9000000000000057
  0
XRECORD
  5
144
330
112
100
AcDbXrecord
280
1
1000
1:1
  0
XRECORD
  5
145
330
112
100
AcDbXrecord
280
1
290
1
  0
XRECORD
  5
146
330
112
100
AcDbXrecord
280
1
 90
4
  0
ENDSEC
  0
EOF
