999
dxflib 3.3.4.0
  0
SECTION
  2
HEADER
  9
$ACADVER
  1
AC1015
  9
$HANDSEED
  5
FFFF
  9
$DIMADEC
 70
0
  9
$DIMASZ
 40
2.5
  9
$DIMAUNIT
 70
0
  9
$DIMAZIN
 70
2
  9
$DIMDEC
 70
4
  9
$DIMEXE
 40
1.25
  9
$DIMEXO
 40
0.625
  9
$DIMGAP
 40
0.625
  9
$DIMLUNIT
 70
2
  9
$DIMTSZ
 40
0.0
  9
$DIMTXT
 40
2.5
  9
$DIMZIN
 70
8
  9
$DWGCODEPAGE
  3
ANSI_1252
  9
$INSUNITS
 70
4
  9
$LTSCALE
 40
1.0
  0
ENDSEC
  0
SECTION
  2
TABLES
  0
TABLE
  2
VPORT
  5
8
100
AcDbSymbolTable
 70
1
  0
VPORT
  5
30
100
AcDbSymbolTableRecord
100
AcDbViewportTableRecord
  2
*Active
 70
0
 10
0.0
 20
0.0
 11
1.0
 21
1.0
 12
286.3055555555554861
 22
148.5
 13
0.0
 23
0.0
 14
10.0
 24
10.0
 15
10.0
 25
10.0
 16
0.0
 26
0.0
 36
1.0
 17
0.0
 27
0.0
 37
0.0
 40
297.0
 41
1.92798353909465
 42
50.0
 43
0.0
 44
0.0
 50
0.0
 51
0.0
 71
0
 72
100
 73
1
 74
3
 75
1
 76
1
 77
0
 78
0
281
0
 65
1
110
0.0
120
0.0
130
0.0
111
1.0
121
0.0
131
0.0
112
0.0
122
1.0
132
0.0
 79
0
146
0.0
  0
ENDTAB
  0
TABLE
  2
LTYPE
  5
5
100
AcDbSymbolTable
 70
21
  0
LTYPE
  5
16
100
AcDbSymbolTableRecord
100
AcDbLinetypeTableRecord
  2
CONTINUOUS
 70
0
  3
Solid line
 72
65
 73
0
 40
0.0
  0
LTYPE
  5
31
100
AcDbSymbolTableRecord
100
AcDbLinetypeTableRecord
  2
CENTER2
 70
0
  3
Center (.5x) ___ _ ___ _ ___ _ ___ _ ___ _ ___
 72
65
 73
4
 40
28.5749999999999993
 49
19.0500000000000007
 74
0
 49
-3.1749999999999998
 74
0
 49
3.1749999999999998
 74
0
 49
-3.1749999999999998
 74
0
  0
LTYPE
  5
32
100
AcDbSymbolTableRecord
100
AcDbLinetypeTableRecord
  2
DIVIDEX2
 70
0
  3
Divide (2x) ________  .  .  ________  .  .  _
 72
65
 73
6
 40
63.5
 49
25.3999999999999986
 74
0
 49
-12.6999999999999993
 74
0
 49
0.0
 74
0
 49
-12.6999999999999993
 74
0
 49
0.0
 74
0
 49
-12.6999999999999993
 74
0
  0
LTYPE
  5
33
100
AcDbSymbolTableRecord
100
AcDbLinetypeTableRecord
  2
DOT2
 70
0
  3
Dot (.5x) .....................................
 72
65
 73
2
 40
3.1749999999999998
 49
0.0
 74
0
 49
-3.1749999999999998
 74
0
  0
LTYPE
  5
34
100
AcDbSymbolTableRecord
100
AcDbLinetypeTableRecord
  2
DASHDOT2
 70
0
  3
Dash dot (.5x) _._._._._._._._._._._._._._._.
 72
65
 73
4
 40
12.6999999999999993
 49
6.3499999999999996
 74
0
 49
-3.1749999999999998
 74
0
 49
0.0
 74
0
 49
-3.1749999999999998
 74
0
  0
LTYPE
  5
35
100
AcDbSymbolTableRecord
100
AcDbLinetypeTableRecord
  2
DIVIDE
 70
0
  3
Divide ____ . . ____ . . ____ . . ____ . . ____
 72
65
 73
6
 40
31.75
 49
12.6999999999999993
 74
0
 49
-6.3499999999999996
 74
0
 49
0.0
 74
0
 49
-6.3499999999999996
 74
0
 49
0.0
 74
0
 49
-6.3499999999999996
 74
0
  0
LTYPE
  5
36
100
AcDbSymbolTableRecord
100
AcDbLinetypeTableRecord
  2
DASHDOT
 70
0
  3
Dash dot __ . __ . __ . __ . __ . __ . __ . __
 72
65
 73
4
 40
25.3999999999999986
 49
12.6999999999999993
 74
0
 49
-6.3499999999999996
 74
0
 49
0.0
 74
0
 49
-6.3499999999999996
 74
0
  0
LTYPE
  5
37
100
AcDbSymbolTableRecord
100
AcDbLinetypeTableRecord
  2
BORDER
 70
0
  3
Border __ __ . __ __ . __ __ . __ __ . __ __ .
 72
65
 73
6
 40
44.4500000000000028
 49
12.6999999999999993
 74
0
 49
-6.3499999999999996
 74
0
 49
12.6999999999999993
 74
0
 49
-6.3499999999999996
 74
0
 49
0.0
 74
0
 49
-6.3499999999999996
 74
0
  0
LTYPE
  5
38
100
AcDbSymbolTableRecord
100
AcDbLinetypeTableRecord
  2
DASHDOTX2
 70
0
  3
Dash dot (2x) ____  .  ____  .  ____  .  ___
 72
65
 73
4
 40
50.7999999999999972
 49
25.3999999999999986
 74
0
 49
-12.6999999999999993
 74
0
 49
0.0
 74
0
 49
-12.6999999999999993
 74
0
  0
LTYPE
  5
39
100
AcDbSymbolTableRecord
100
AcDbLinetypeTableRecord
  2
CENTERX2
 70
0
  3
Center (2x) ________  __  ________  __  _____
 72
65
 73
4
 40
101.5999999999999943
 49
63.5
 74
0
 49
-12.6999999999999993
 74
0
 49
12.6999999999999993
 74
0
 49
-12.6999999999999993
 74
0
  0
LTYPE
  5
3A
100
AcDbSymbolTableRecord
100
AcDbLinetypeTableRecord
  2
BORDER2
 70
0
  3
Border (.5x) __.__.__.__.__.__.__.__.__.__.__.
 72
65
 73
6
 40
22.2250000000000014
 49
6.3499999999999996
 74
0
 49
-3.1749999999999998
 74
0
 49
6.3499999999999996
 74
0
 49
-3.1749999999999998
 74
0
 49
0.0
 74
0
 49
-3.1749999999999998
 74
0
  0
LTYPE
  5
3B
100
AcDbSymbolTableRecord
100
AcDbLinetypeTableRecord
  2
BORDERX2
 70
0
  3
Border (2x) ____  ____  .  ____  ____  .  ___
 72
65
 73
6
 40
88.9000000000000057
 49
25.3999999999999986
 74
0
 49
-12.6999999999999993
 74
0
 49
25.3999999999999986
 74
0
 49
-12.6999999999999993
 74
0
 49
0.0
 74
0
 49
-12.6999999999999993
 74
0
  0
LTYPE
  5
14
100
AcDbSymbolTableRecord
100
AcDbLinetypeTableRecord
  2
BYBLOCK
 70
0
  3

 72
65
 73
0
 40
0.0
  0
LTYPE
  5
15
100
AcDbSymbolTableRecord
100
AcDbLinetypeTableRecord
  2
BYLAYER
 70
0
  3

 72
65
 73
0
 40
0.0
  0
LTYPE
  5
3C
100
AcDbSymbolTableRecord
100
AcDbLinetypeTableRecord
  2
DASHED2
 70
0
  3
Dashed (.5x) _ _ _ _ _ _ _ _ _ _ _ _ _ _ _ _ _
 72
65
 73
2
 40
9.5250000000000004
 49
6.3499999999999996
 74
0
 49
-3.1749999999999998
 74
0
  0
LTYPE
  5
3D
100
AcDbSymbolTableRecord
100
AcDbLinetypeTableRecord
  2
CENTER
 70
0
  3
Center ____ _ ____ _ ____ _ ____ _ ____ _ ____
 72
65
 73
4
 40
50.7999999999999972
 49
31.75
 74
0
 49
-6.3499999999999996
 74
0
 49
6.3499999999999996
 74
0
 49
-6.3499999999999996
 74
0
  0
LTYPE
  5
3E
100
AcDbSymbolTableRecord
100
AcDbLinetypeTableRecord
  2
DIVIDE2
 70
0
  3
Divide (.5x) __..__..__..__..__..__..__..__.._
 72
65
 73
6
 40
15.875
 49
6.3499999999999996
 74
0
 49
-3.1749999999999998
 74
0
 49
0.0
 74
0
 49
-3.1749999999999998
 74
0
 49
0.0
 74
0
 49
-3.1749999999999998
 74
0
  0
LTYPE
  5
3F
100
AcDbSymbolTableRecord
100
AcDbLinetypeTableRecord
  2
DASHED
 70
0
  3
Dashed __ __ __ __ __ __ __ __ __ __ __ __ __ _
 72
65
 73
2
 40
19.0500000000000007
 49
12.6999999999999993
 74
0
 49
-6.3499999999999996
 74
0
  0
LTYPE
  5
40
100
AcDbSymbolTableRecord
100
AcDbLinetypeTableRecord
  2
DOTX2
 70
0
  3
Dot (2x) .  .  .  .  .  .  .  .  .  .  .  .  .
 72
65
 73
2
 40
12.6999999999999993
 49
0.0
 74
0
 49
-12.6999999999999993
 74
0
  0
LTYPE
  5
41
100
AcDbSymbolTableRecord
100
AcDbLinetypeTableRecord
  2
DASHEDX2
 70
0
  3
Dashed (2x) ____  ____  ____  ____  ____  ___
 72
65
 73
2
 40
38.1000000000000014
 49
25.3999999999999986
 74
0
 49
-12.6999999999999993
 74
0
  0
LTYPE
  5
42
100
AcDbSymbolTableRecord
100
AcDbLinetypeTableRecord
  2
DOT
 70
0
  3
Dot . . . . . . . . . . . . . . . . . . . . . .
 72
65
 73
2
 40
6.3499999999999996
 49
0.0
 74
0
 49
-6.3499999999999996
 74
0
  0
ENDTAB
  0
TABLE
  2
LAYER
  5
2
100
AcDbSymbolTable
 70
1
  0
LAYER
  5
10
100
AcDbSymbolTableRecord
100
AcDbLayerTableRecord
  2
0
 70
0
 62
7
420
0
  6
CONTINUOUS
370
25
390
F
  0
ENDTAB
  0
TABLE
  2
STYLE
  5
3
100
AcDbSymbolTable
 70
6
  0
STYLE
  5
43
100
AcDbSymbolTableRecord
100
AcDbTextStyleTableRecord
  2
Standard
 70
0
 40
0.0
 41
1.0
 50
0.0
 71
0
 42
2.5
  3

  4

1001
ACAD
1000
txt
1071
0
  0
STYLE
  5
44
100
AcDbSymbolTableRecord
100
AcDbTextStyleTableRecord
  2
textstyle0
 70
0
 40
0.0
 41
1.0
 50
0.0
 71
0
 42
1.0
  3

  4

1001
ACAD
1000
Arial
1071
0
  0
STYLE
  5
45
100
AcDbSymbolTableRecord
100
AcDbTextStyleTableRecord
  2
textstyle1
 70
0
 40
0.0
 41
1.0
 50
0.0
 71
0
 42
1.0
  3

  4

1001
ACAD
1000
Arial
1071
0
  0
STYLE
  5
46
100
AcDbSymbolTableRecord
100
AcDbTextStyleTableRecord
  2
textstyle2
 70
0
 40
0.0
 41
1.0
 50
0.0
 71
0
 42
1.0
  3

  4

1001
ACAD
1000
Arial
1071
0
  0
STYLE
  5
47
100
AcDbSymbolTableRecord
100
AcDbTextStyleTableRecord
  2
textstyle3
 70
0
 40
0.0
 41
1.0
 50
0.0
 71
0
 42
1.0
  3

  4

1001
ACAD
1000
Arial
1071
0
  0
STYLE
  5
48
100
AcDbSymbolTableRecord
100
AcDbTextStyleTableRecord
  2
textstyle4
 70
0
 40
0.0
 41
1.0
 50
0.0
 71
0
 42
1.0
  3

  4

1001
ACAD
1000
Arial
1071
0
  0
ENDTAB
  0
TABLE
  2
VIEW
  5
6
100
AcDbSymbolTable
 70
0
  0
ENDTAB
  0
TABLE
  2
UCS
  5
7
100
AcDbSymbolTable
 70
0
  0
ENDTAB
  0
TABLE
  2
APPID
  5
9
100
AcDbSymbolTable
 70
1
  0
APPID
  5
12
100
AcDbSymbolTableRecord
100
AcDbRegAppTableRecord
  2
ACAD
 70
0
  0
APPID
  5
49
100
AcDbSymbolTableRecord
100
AcDbRegAppTableRecord
  2
QCAD
 70
0
  0
ENDTAB
  0
TABLE
  2
DIMSTYLE
  5
A
100
AcDbSymbolTable
 70
1
100
AcDbDimStyleTable
 71
0
  0
DIMSTYLE
105
27
100
AcDbSymbolTableRecord
100
AcDbDimStyleTableRecord
  2
Standard
 41
2.5
 42
0.625
 43
3.75
 44
1.25
 70
0
 73
0
 74
0
 77
1
 78
8
140
2.5
141
2.5
143
0.03937007874016
147
0.625
171
3
172
1
271
2
272
2
274
3
278
44
283
0
284
8
340
43
  0
ENDTAB
  0
TABLE
  2
BLOCK_RECORD
  5
1
100
AcDbSymbolTable
 70
1
  0
BLOCK_RECORD
  5
1F
100
AcDbSymbolTableRecord
100
AcDbBlockTableRecord
  2
*Model_Space
340
22
  0
BLOCK_RECORD
  5
1B
100
AcDbSymbolTableRecord
100
AcDbBlockTableRecord
  2
*Paper_Space
340
1E
  0
BLOCK_RECORD
  5
23
100
AcDbSymbolTableRecord
100
AcDbBlockTableRecord
  2
*Paper_Space0
340
26
  0
BLOCK_RECORD
  5
4A
100
AcDbSymbolTableRecord
100
AcDbBlockTableRecord
  2
wheel (0.5 inch with 0.125 rim)
340
0
  0
BLOCK_RECORD
  5
4B
100
AcDbSymbolTableRecord
100
AcDbBlockTableRecord
  2
side (0.125 inch)
340
0
  0
BLOCK_RECORD
  5
4C
100
AcDbSymbolTableRecord
100
AcDbBlockTableRecord
  2
rear_fender (0.5 inch)
340
0
  0
BLOCK_RECORD
  5
4D
100
AcDbSymbolTableRecord
100
AcDbBlockTableRecord
  2
body (1.5 inch)
340
0
  0
BLOCK_RECORD
  5
4E
100
AcDbSymbolTableRecord
100
AcDbBlockTableRecord
  2
front_fender (0.5 inch)
340
0
  0
ENDTAB
  0
ENDSEC
  0
SECTION
  2
BLOCKS
  0
BLOCK
  5
20
100
AcDbEntity
  8
0
100
AcDbBlockBegin
  2
*Model_Space
 70
0
 10
0.0
 20
0.0
 30
0.0
  3
*Model_Space
  1

  0
ENDBLK
  5
21
100
AcDbEntity
  8
0
100
AcDbBlockEnd
  0
BLOCK
  5
1C
100
AcDbEntity
 67
1
  8
0
100
AcDbBlockBegin
  2
*Paper_Space
 70
0
 10
0.0
 20
0.0
 30
0.0
  3
*Paper_Space
  1

  0
ENDBLK
  5
1D
100
AcDbEntity
 67
1
  8
0
100
AcDbBlockEnd
  0
BLOCK
  5
24
100
AcDbEntity
  8
0
100
AcDbBlockBegin
  2
*Paper_Space0
 70
0
 10
0.0
 20
0.0
 30
0.0
  3
*Paper_Space0
  1

  0
ENDBLK
  5
25
100
AcDbEntity
  8
0
100
AcDbBlockEnd
  0
BLOCK
  5
4F
100
AcDbEntity
  8
0
100
AcDbBlockBegin
  2
wheel (0.5 inch with 0.125 rim)
 70
0
 10
0.0
 20
0.0
 30
0.0
  3
wheel (0.5 inch with 0.125 rim)
  1

  0
CIRCLE
  5
50
100
AcDbEntity
100
AcDbCircle
  8
0
 62
256
370
-1
  6
BYLAYER
 10
0.0
 20
0.0
 30
0.0
 40
10.0
  0
CIRCLE
  5
51
100
AcDbEntity
100
AcDbCircle
  8
0
 62
256
370
-1
  6
BYLAYER
 10
0.0
 20
0.0
 30
0.0
 40
6.0
  0
CIRCLE
  5
52
100
AcDbEntity
100
AcDbCircle
  8
0
 62
256
370
-1
  6
BYLAYER
 10
0.0
 20
0.0
 30
0.0
 40
1.0
  0
ENDBLK
  5
53
100
AcDbEntity
  8
0
100
AcDbBlockEnd
  0
BLOCK
  5
54
100
AcDbEntity
  8
0
100
AcDbBlockBegin
  2
side (0.125 inch)
 70
0
 10
0.0
 20
0.0
 30
0.0
  3
side (0.125 inch)
  1

  0
SPLINE
  5
55
  8
0
 62
256
370
-1
  6
BYLAYER
100
AcDbEntity
100
AcDbSpline
 70
8
 71
3
 72
17
 73
13
 74
0
 40
0.0
 40
0.0
 40
0.0
 40
0.0
 40
1.0
 40
2.0
 40
3.0
 40
4.0
 40
5.0
 40
6.0
 40
7.0
 40
8.0
 40
9.0
 40
10.0
 40
10.0
 40
10.0
 40
10.0
 10
-53.0
 20
-13.0
 30
0.0
 10
-74.4798725873233423
 20
-11.1504913168724471
 30
0.0
 10
-79.0
 20
-3.0
 30
0.0
 10
-75.0
 20
5.0
 30
0.0
 10
-65.0
 20
9.0
 30
0.0
 10
-41.0
 20
13.0
 30
0.0
 10
-22.0
 20
8.0
 30
0.0
 10
-15.0
 20
2.0
 30
0.0
 10
-8.0
 20
7.0
 30
0.0
 10
-5.0
 20
11.0
 30
0.0
 10
-11.0
 20
16.0
 30
0.0
 10
-11.0
 20
16.0
 30
0.0
 10
-11.0
 20
16.0
 30
0.0
  0
SPLINE
  5
56
  8
0
 62
256
370
-1
  6
BYLAYER
100
AcDbEntity
100
AcDbSpline
 70
8
 71
3
 72
17
 73
13
 74
0
 40
0.0
 40
0.0
 40
0.0
 40
0.0
 40
1.0
 40
2.0
 40
3.0
 40
4.0
 40
5.0
 40
6.0
 40
7.0
 40
8.0
 40
9.0
 40
10.0
 40
10.0
 40
10.0
 40
10.0
 10
-10.0
 20
17.0
 30
0.0
 10
1.0
 20
10.0
 30
0.0
 10
17.0
 20
10.0
 30
0.0
 10
28.0
 20
11.0
 30
0.0
 10
40.0
 20
11.0
 30
0.0
 10
61.0
 20
3.0
 30
0.0
 10
64.0
 20
1.0
 30
0.0
 10
65.0
 20
-1.0
 30
0.0
 10
65.0
 20
-5.0
 30
0.0
 10
62.8961274126766341
 20
-9.1584913168724569
 30
0.0
 10
57.0161274126766102
 20
-13.1184913168724506
 30
0.0
 10
42.0
 20
-13.0
 30
0.0
 10
42.0
 20
-13.0
 30
0.0
  0
LINE
  5
57
100
AcDbEntity
100
AcDbLine
  8
0
 62
256
370
-1
  6
BYLAYER
 10
-11.0
 20
16.0
 30
0.0
 11
-10.0
 21
17.0
 31
0.0
  0
LINE
  5
58
100
AcDbEntity
100
AcDbLine
  8
0
 62
256
370
-1
  6
BYLAYER
 10
42.0
 20
-13.0
 30
0.0
 11
-53.0
 21
-13.0
 31
0.0
  0
ENDBLK
  5
59
100
AcDbEntity
  8
0
100
AcDbBlockEnd
  0
BLOCK
  5
5A
100
AcDbEntity
  8
0
100
AcDbBlockBegin
  2
rear_fender (0.5 inch)
 70
0
 10
0.0
 20
0.0
 30
0.0
  3
rear_fender (0.5 inch)
  1

  0
SPLINE
  5
5B
  8
0
 62
256
370
-1
  6
BYLAYER
100
AcDbEntity
100
AcDbSpline
 70
8
 71
3
 72
17
 73
13
 74
0
 40
0.0
 40
0.0
 40
0.0
 40
0.0
 40
1.0
 40
2.0
 40
3.0
 40
4.0
 40
5.0
 40
6.0
 40
7.0
 40
8.0
 40
9.0
 40
10.0
 40
10.0
 40
10.0
 40
10.0
 10
-12.0
 20
0.0
 30
0.0
 10
-30.0
 20
0.0
 30
0.0
 10
-38.0
 20
6.0
 30
0.0
 10
-35.0
 20
14.0
 30
0.0
 10
-25.0
 20
18.0
 30
0.0
 10
-1.0
 20
22.0
 30
0.0
 10
18.0
 20
18.0
 30
0.0
 10
21.0
 20
9.0
 30
0.0
 10
22.0
 20
2.0
 30
0.0
 10
15.0
 20
0.0
 30
0.0
 10
12.0
 20
0.0
 30
0.0
 10
12.0
 20
0.0
 30
0.0
 10
12.0
 20
0.0
 30
0.0
  0
ARC
  5
5C
100
AcDbEntity
  8
0
 62
256
370
-1
  6
BYLAYER
100
AcDbCircle
 10
0.0
 20
0.0
 30
0.0
 40
12.0
100
AcDbArc
 50
0.0
 51
180.0
  0
ENDBLK
  5
5D
100
AcDbEntity
  8
0
100
AcDbBlockEnd
  0
BLOCK
  5
5E
100
AcDbEntity
  8
0
100
AcDbBlockBegin
  2
body (1.5 inch)
 70
0
 10
0.0
 20
0.0
 30
0.0
  3
body (1.5 inch)
  1

  0
LINE
  5
5F
100
AcDbEntity
100
AcDbLine
  8
0
 62
256
370
-1
  6
BYLAYER
 10
5.0
 20
21.0
 30
0.0
 11
5.0000000000000071
 21
21.0000000000000036
 31
0.0
  0
LINE
  5
60
100
AcDbEntity
100
AcDbLine
  8
0
 62
256
370
-1
  6
BYLAYER
 10
-38.0
 20
-9.0
 30
0.0
 11
-38.0
 21
-9.0
 31
0.0
  0
SPLINE
  5
61
  8
0
 62
256
370
-1
  6
BYLAYER
100
AcDbEntity
100
AcDbSpline
 70
8
 71
3
 72
17
 73
13
 74
0
 40
0.0
 40
0.0
 40
0.0
 40
0.0
 40
1.0
 40
2.0
 40
3.0
 40
4.0
 40
5.0
 40
6.0
 40
7.0
 40
8.0
 40
9.0
 40
10.0
 40
10.0
 40
10.0
 40
10.0
 10
-37.8234463841405599
 20
-8.9992583679748854
 30
0.0
 10
-59.0
 20
-6.0
 30
0.0
 10
-63.823446384140567
 20
1.0007416320251146
 30
0.0
 10
-63.0
 20
8.0
 30
0.0
 10
-51.0
 20
15.0
 30
0.0
 10
-17.0
 20
19.0
 30
0.0
 10
-11.0
 20
11.0
 30
0.0
 10
0.0
 20
0.0
 30
0.0
 10
7.1765536158594401
 20
11.0007416320251146
 30
0.0
 10
10.1765536158594401
 20
15.0007416320251146
 30
0.0
 10
17.0
 20
15.0
 30
0.0
 10
17.0
 20
15.0
 30
0.0
 10
17.0
 20
15.0
 30
0.0
  0
SPLINE
  5
62
  8
0
 62
256
370
-1
  6
BYLAYER
100
AcDbEntity
100
AcDbSpline
 70
8
 71
3
 72
17
 73
13
 74
0
 40
0.0
 40
0.0
 40
0.0
 40
0.0
 40
1.0
 40
2.0
 40
3.0
 40
4.0
 40
5.0
 40
6.0
 40
7.0
 40
8.0
 40
9.0
 40
10.0
 40
10.0
 40
10.0
 40
10.0
 10
17.0
 20
15.0
 30
0.0
 10
26.0
 20
15.0
 30
0.0
 10
34.0
 20
15.0
 30
0.0
 10
45.0
 20
16.0
 30
0.0
 10
59.0
 20
14.0
 30
0.0
 10
72.0
 20
9.0
 30
0.0
 10
78.9999999999999858
 20
6.8333333333333321
 30
0.0
 10
81.0
 20
4.0
 30
0.0
 10
81.0
 20
-1.0
 30
0.0
 10
78.0726810285360671
 20
-5.1577496848473423
 30
0.0
 10
72.1926810285360432
 20
-9.1177496848473361
 30
0.0
 10
57.176553615859433
 20
-8.9992583679748854
 30
0.0
 10
57.176553615859433
 20
-8.9992583679748854
 30
0.0
  0
LINE
  5
63
100
AcDbEntity
100
AcDbLine
  8
0
 62
256
370
-1
  6
BYLAYER
 10
57.176553615859433
 20
-8.9992583679748854
 30
0.0
 11
-37.8234463841405599
 21
-8.9992583679748854
 31
0.0
  0
ENDBLK
  5
64
100
AcDbEntity
  8
0
100
AcDbBlockEnd
  0
BLOCK
  5
65
100
AcDbEntity
  8
0
100
AcDbBlockBegin
  2
front_fender (0.5 inch)
 70
0
 10
0.0
 20
0.0
 30
0.0
  3
front_fender (0.5 inch)
  1

  0
SPLINE
  5
66
  8
0
 62
256
370
-1
  6
BYLAYER
100
AcDbEntity
100
AcDbSpline
 70
8
 71
3
 72
19
 73
15
 74
0
 40
0.0
 40
0.0
 40
0.0
 40
0.0
 40
1.0
 40
2.0
 40
3.0
 40
4.0
 40
5.0
 40
6.0
 40
7.0
 40
8.0
 40
9.0
 40
10.0
 40
11.0
 40
12.0
 40
12.0
 40
12.0
 40
12.0
 10
-12.0
 20
0.0
 30
0.0
 10
-34.0
 20
0.0
 30
0.0
 10
-40.0
 20
5.0
 30
0.0
 10
-39.0
 20
7.0
 30
0.0
 10
-39.0
 20
12.0
 30
0.0
 10
-34.0
 20
18.0
 30
0.0
 10
-19.0
 20
16.0
 30
0.0
 10
-4.0
 20
20.0
 30
0.0
 10
11.0
 20
20.0
 30
0.0
 10
34.0
 20
11.0
 30
0.0
 10
34.0
 20
7.0
 30
0.0
 10
31.0
 20
1.0
 30
0.0
 10
23.0
 20
0.0
 30
0.0
 10
12.0
 20
0.0
 30
0.0
 10
12.0
 20
0.0
 30
0.0
  0
ARC
  5
67
100
AcDbEntity
  8
0
 62
256
370
-1
  6
BYLAYER
100
AcDbCircle
 10
0.0
 20
0.0
 30
0.0
 40
12.0
100
AcDbArc
 50
360.0
 51
180.0
  0
ENDBLK
  5
68
100
AcDbEntity
  8
0
100
AcDbBlockEnd
  0
ENDSEC
  0
SECTION
  2
ENTITIES
  0
INSERT
  5
69
100
AcDbEntity
100
AcDbBlockReference
  8
0
 62
256
370
-1
  6
BYLAYER
  2
rear_fender (0.5 inch)
 10
0.0
 20
0.0
 30
0.0
  0
INSERT
  5
6A
100
AcDbEntity
100
AcDbBlockReference
  8
0
 62
256
370
-1
  6
BYLAYER
  2
front_fender (0.5 inch)
 10
70.0
 20
0.0
 30
0.0
  0
INSERT
  5
6B
100
AcDbEntity
100
AcDbBlockReference
  8
0
 62
256
370
-1
  6
BYLAYER
  2
wheel (0.5 inch with 0.125 rim)
 10
0.0
 20
0.0
 30
0.0
  0
INSERT
  5
6C
100
AcDbEntity
100
AcDbBlockReference
  8
0
 62
256
370
-1
  6
BYLAYER
  2
wheel (0.5 inch with 0.125 rim)
 10
70.0
 20
0.0
 30
0.0
  0
INSERT
  5
6D
100
AcDbEntity
100
AcDbBlockReference
  8
0
 62
256
370
-1
  6
BYLAYER
  2
side (0.125 inch)
 10
40.0
 20
10.0
 30
0.0
  0
INSERT
  5
6E
100
AcDbEntity
100
AcDbBlockReference
  8
0
 62
256
370
-1
  6
BYLAYER
  2
body (1.5 inch)
 10
25.0
 20
6.0
 30
0.0
  0
INSERT
  5
6F
100
AcDbEntity
100
AcDbBlockReference
  8
0
 62
256
370
-1
  6
BYLAYER
  2
front_fender (0.5 inch)
 10
11.1088584604238747
 20
-83.6723870055796795
 30
0.0
 41
1.0
 42
-1.0
 43
1.0
 50
180.0
  0
INSERT
  5
70
100
AcDbEntity
100
AcDbBlockReference
  8
0
 62
256
370
-1
  6
BYLAYER
  2
rear_fender (0.5 inch)
 10
72.4528584604238546
 20
-84.709187005579679
 30
0.0
 41
1.0
 42
-1.0
 43
1.0
 50
180.0
  0
INSERT
  5
71
100
AcDbEntity
100
AcDbBlockReference
  8
0
 62
256
370
-1
  6
BYLAYER
  2
front_fender (0.5 inch)
 10
71.7426244719331692
 20
-104.6774408722462795
 30
0.0
  0
INSERT
  5
72
100
AcDbEntity
100
AcDbBlockReference
  8
0
 62
256
370
-1
  6
BYLAYER
  2
rear_fender (0.5 inch)
 10
10.2448584604238846
 20
-105.2723870055796738
 30
0.0
  0
INSERT
  5
73
100
AcDbEntity
100
AcDbBlockReference
  8
0
 62
256
370
-1
  6
BYLAYER
  2
wheel (0.5 inch with 0.125 rim)
 10
115.0936776604238503
 20
-89.3155742055797504
 30
0.0
  0
INSERT
  5
74
100
AcDbEntity
100
AcDbBlockReference
  8
0
 62
256
370
-1
  6
BYLAYER
  2
wheel (0.5 inch with 0.125 rim)
 10
112.6456776604238428
 20
-110.3395742055797371
 30
0.0
  0
INSERT
  5
75
100
AcDbEntity
100
AcDbBlockReference
  8
0
 62
256
370
-1
  6
BYLAYER
  2
wheel (0.5 inch with 0.125 rim)
 10
117.8296776604238403
 20
-67.5715742055797648
 30
0.0
  0
INSERT
  5
76
100
AcDbEntity
100
AcDbBlockReference
  8
0
 62
256
370
-1
  6
BYLAYER
  2
wheel (0.5 inch with 0.125 rim)
 10
133.9576776604238262
 20
-80.6755742055797498
 30
0.0
  0
INSERT
  5
77
100
AcDbEntity
100
AcDbBlockReference
  8
0
 62
256
370
-1
  6
BYLAYER
  2
wheel (0.5 inch with 0.125 rim)
 10
132.0856776604238405
 20
-101.5555742055797452
 30
0.0
  0
MTEXT
  5
78
100
AcDbEntity
100
AcDbMText
  8
0
 62
256
370
-1
  6
BYLAYER
 10
66.4993224604239401
 20
-102.3252023655797558
 30
0.0
 40
1.0
 41
0.0
 71
1
 72
1
  1
\H5;0.5"
  7
textstyle0
 50
0.0
 73
2
 44
1.0
  0
INSERT
  5
79
100
AcDbEntity
100
AcDbBlockReference
  8
0
 62
256
370
-1
  6
BYLAYER
  2
side (0.125 inch)
 10
46.1765536158594188
 20
-151.9992583679748748
 30
0.0
  0
INSERT
  5
7A
100
AcDbEntity
100
AcDbBlockReference
  8
0
 62
256
370
-1
  6
BYLAYER
  2
side (0.125 inch)
 10
46.1765536158713132
 20
-177.9992583679748179
 30
0.0
 41
1.0
 42
-1.0
 43
1.0
 50
360.0
  0
INSERT
  5
7B
100
AcDbEntity
100
AcDbBlockReference
  8
0
 62
256
370
-1
  6
BYLAYER
  2
body (1.5 inch)
 10
31.0942468243232355
 20
-225.9996291839874516
 30
0.0
  0
INSERT
  5
7C
100
AcDbEntity
100
AcDbBlockReference
  8
0
 62
256
370
-1
  6
BYLAYER
  2
body (1.5 inch)
 10
31.0942468243232391
 20
-243.9981459199372011
 30
0.0
 41
1.0
 42
-1.0
 43
1.0
  0
MTEXT
  5
7D
100
AcDbEntity
100
AcDbMText
  8
0
 62
256
370
-1
  6
BYLAYER
 10
92.008661142350789
 20
-136.8858216150147484
 30
0.0
 40
1.0
 41
0.0
 71
1
 72
1
  1
\H5;0.125"
  7
textstyle1
 50
0.0
 73
2
 44
1.0
  0
MTEXT
  5
7E
100
AcDbEntity
100
AcDbMText
  8
0
 62
256
370
-1
  6
BYLAYER
 10
116.9549093343506456
 20
-235.1837728470147795
 30
0.0
 40
1.0
 41
0.0
 71
1
 72
1
  1
\H5;1"
  7
textstyle2
 50
0.0
 73
2
 44
1.0
  0
INSERT
  5
7F
100
AcDbEntity
100
AcDbBlockReference
  8
0
 62
256
370
-1
  6
BYLAYER
  2
wheel (0.5 inch with 0.125 rim)
 10
119.8813011423508073
 20
-166.0688616150147254
 30
0.0
  0
INSERT
  5
80
100
AcDbEntity
100
AcDbBlockReference
  8
0
 62
256
370
-1
  6
BYLAYER
  2
wheel (0.5 inch with 0.125 rim)
 10
117.4333011423507998
 20
-187.0928616150147263
 30
0.0
  0
INSERT
  5
81
100
AcDbEntity
100
AcDbBlockReference
  8
0
 62
256
370
-1
  6
BYLAYER
  2
wheel (0.5 inch with 0.125 rim)
 10
122.6173011423507972
 20
-144.3248616150147541
 30
0.0
  0
INSERT
  5
82
100
AcDbEntity
100
AcDbBlockReference
  8
0
 62
256
370
-1
  6
BYLAYER
  2
wheel (0.5 inch with 0.125 rim)
 10
138.7453011423507974
 20
-157.4288616150147391
 30
0.0
  0
INSERT
  5
83
100
AcDbEntity
100
AcDbBlockReference
  8
0
 62
256
370
-1
  6
BYLAYER
  2
wheel (0.5 inch with 0.125 rim)
 10
136.8733011423507833
 20
-178.3088616150147345
 30
0.0
  0
MTEXT
  5
84
100
AcDbEntity
100
AcDbMText
  8
0
 62
256
370
-1
  6
BYLAYER
 10
60.0
 20
-110.0
 30
0.0
 40
1.0
 41
0.0
 71
1
 72
1
  1
\H2;(cut out entire tire, no inner cuts)
  7
textstyle3
 50
0.0
 73
2
 44
1.0
  0
MTEXT
  5
85
100
AcDbEntity
100
AcDbMText
  8
0
 62
256
370
-1
  6
BYLAYER
 10
102.8076245693630284
 20
-199.4831231375249843
 30
0.0
 40
1.0
 41
0.0
 71
1
 72
1
  1
\H2;(cut / drill out inside of tire to form a ring)
  7
textstyle4
 50
0.0
 73
2
 44
1.0
  0
ENDSEC
  0
SECTION
  2
OBJECTS
  0
DICTIONARY
  5
C
100
AcDbDictionary
280
0
281
1
  3
ACAD_GROUP
350
D
  3
ACAD_LAYOUT
350
1A
  3
ACAD_MLINESTYLE
350
17
  3
ACAD_PLOTSETTINGS
350
19
  3
ACAD_PLOTSTYLENAME
350
E
  3
AcDbVariableDictionary
350
86
  3
QCAD_OBJECTS
350
87
  0
DICTIONARY
  5
D
100
AcDbDictionary
280
0
281
1
  0
ACDBDICTIONARYWDFLT
  5
E
100
AcDbDictionary
281
1
  3
Normal
350
F
100
AcDbDictionaryWithDefault
340
F
  0
ACDBPLACEHOLDER
  5
F
  0
DICTIONARY
  5
17
100
AcDbDictionary
280
0
281
1
  3
Standard
350
18
  0
MLINESTYLE
  5
18
100
AcDbMlineStyle
  2
STANDARD
 70
0
  3

 62
256
 51
90.0
 52
90.0
 71
2
 49
0.5
 62
256
  6
BYLAYER
 49
-0.5
 62
256
  6
BYLAYER
  0
DICTIONARY
  5
19
100
AcDbDictionary
280
0
281
1
  0
DICTIONARY
  5
1A
100
AcDbDictionary
281
1
  3
Layout1
350
1E
  3
Layout2
350
26
  3
Model
350
22
  0
LAYOUT
  5
1E
100
AcDbPlotSettings
  1

  2
none_device
  4

  6

 40
0.0
 41
0.0
 42
0.0
 43
0.0
 44
0.0
 45
0.0
 46
0.0
 47
0.0
 48
0.0
 49
0.0
140
0.0
141
0.0
142
1.0
143
1.0
 70
688
 72
0
 73
0
 74
5
  7

 75
16
147
1.0
148
0.0
149
0.0
100
AcDbLayout
  1
Layout1
 70
1
 71
1
 10
0.0
 20
0.0
 11
420.0
 21
297.0
 12
0.0
 22
0.0
 32
0.0
 14
100000000000000000000.0
 24
100000000000000000000.0
 34
100000000000000000000.0
 15
-100000000000000000000.0
 25
-100000000000000000000.0
 35
-100000000000000000000.0
146
0.0
 13
0.0
 23
0.0
 33
0.0
 16
1.0
 26
0.0
 36
0.0
 17
0.0
 27
1.0
 37
0.0
 76
0
330
1B
  0
LAYOUT
  5
22
100
AcDbPlotSettings
  1

  2
none_device
  4

  6

 40
0.0
 41
0.0
 42
0.0
 43
0.0
 44
0.0
 45
0.0
 46
0.0
 47
0.0
 48
0.0
 49
0.0
140
0.0
141
0.0
142
1.0
143
1.0
 70
1712
 72
0
 73
0
 74
0
  7

 75
0
147
1.0
148
0.0
149
0.0
100
AcDbLayout
  1
Model
 70
1
 71
0
 10
0.0
 20
0.0
 11
12.0
 21
9.0
 12
0.0
 22
0.0
 32
0.0
 14
0.0
 24
0.0
 34
0.0
 15
0.0
 25
0.0
 35
0.0
146
0.0
 13
0.0
 23
0.0
 33
0.0
 16
1.0
 26
0.0
 36
0.0
 17
0.0
 27
1.0
 37
0.0
 76
0
330
1F
  0
LAYOUT
  5
26
100
AcDbPlotSettings
  1

  2
none_device
  4

  6

 40
0.0
 41
0.0
 42
0.0
 43
0.0
 44
0.0
 45
0.0
 46
0.0
 47
0.0
 48
0.0
 49
0.0
140
0.0
141
0.0
142
1.0
143
1.0
 70
688
 72
0
 73
0
 74
5
  7

 75
16
147
1.0
148
0.0
149
0.0
100
AcDbLayout
  1
Layout2
 70
1
 71
2
 10
0.0
 20
0.0
 11
12.0
 21
9.0
 12
0.0
 22
0.0
 32
0.0
 14
0.0
 24
0.0
 34
0.0
 15
0.0
 25
0.0
 35
0.0
146
0.0
 13
0.0
 23
0.0
 33
0.0
 16
1.0
 26
0.0
 36
0.0
 17
0.0
 27
1.0
 37
0.0
 76
0
330
23
  0
DICTIONARY
  5
86
100
AcDbDictionary
281
1
  3
DIMASSOC
350
89
  3
HIDETEXT
350
88
  0
DICTIONARYVAR
  5
88
100
DictionaryVariables
280
0
  1
2
  0
DICTIONARYVAR
  5
89
100
DictionaryVariables
280
0
  1
1
  0
DICTIONARY
  5
87
100
AcDbDictionary
281
1
  3
Grid/DisplayGrid00
350
8A
  3
Grid/DisplayGrid01
350
8B
  3
Grid/DisplayGrid02
350
8C
  3
Grid/DisplayGrid03
350
8D
  3
Grid/GridSpacingX00
350
8E
  3
Grid/GridSpacingX01
350
8F
  3
Grid/GridSpacingX02
350
90
  3
Grid/GridSpacingX03
350
91
  3
Grid/GridSpacingY00
350
92
  3
Grid/GridSpacingY01
350
93
  3
Grid/GridSpacingY02
350
94
  3
Grid/GridSpacingY03
350
95
  3
Grid/IsometricGrid00
350
96
  3
Grid/IsometricGrid01
350
97
  3
Grid/IsometricGrid02
350
98
  3
Grid/IsometricGrid03
350
99
  3
Grid/IsometricProjection00
350
9A
  3
Grid/IsometricProjection01
350
9B
  3
Grid/IsometricProjection02
350
9C
  3
Grid/IsometricProjection03
350
9D
  3
Grid/MetaGridSpacingX00
350
9E
  3
Grid/MetaGridSpacingX01
350
9F
  3
Grid/MetaGridSpacingX02
350
A0
  3
Grid/MetaGridSpacingX03
350
A1
  3
Grid/MetaGridSpacingY00
350
A2
  3
Grid/MetaGridSpacingY01
350
A3
  3
Grid/MetaGridSpacingY02
350
A4
  3
Grid/MetaGridSpacingY03
350
A5
  3
MultiPageSettings/Columns
350
A6
  3
MultiPageSettings/GlueMarginsBottom
350
A7
  3
MultiPageSettings/GlueMarginsLeft
350
A8
  3
MultiPageSettings/GlueMarginsRight
350
A9
  3
MultiPageSettings/GlueMarginsTop
350
AA
  3
MultiPageSettings/PrintCropMarks
350
AB
  3
MultiPageSettings/Rows
350
AC
  3
PageSettings/OffsetX
350
AD
  3
PageSettings/OffsetY
350
AE
  3
PageSettings/PageOrientation
350
AF
  3
PageSettings/PaperHeight
350
B0
  3
PageSettings/PaperWidth
350
B1
  3
PageSettings/Scale
350
B2
  3
PageSettings/ShowPaperBorders
350
B3
  3
UnitSettings/PaperUnit
350
B4
  0
XRECORD
  5
8A
330
87
100
AcDbXrecord
280
1
290
1
  0
XRECORD
  5
8B
330
87
100
AcDbXrecord
280
1
290
1
  0
XRECORD
  5
8C
330
87
100
AcDbXrecord
280
1
290
1
  0
XRECORD
  5
8D
330
87
100
AcDbXrecord
280
1
290
1
  0
XRECORD
  5
8E
330
87
100
AcDbXrecord
280
1
1000
auto
  0
XRECORD
  5
8F
330
87
100
AcDbXrecord
280
1
1000
auto
  0
XRECORD
  5
90
330
87
100
AcDbXrecord
280
1
1000
auto
  0
XRECORD
  5
91
330
87
100
AcDbXrecord
280
1
1000
auto
  0
XRECORD
  5
92
330
87
100
AcDbXrecord
280
1
1000
auto
  0
XRECORD
  5
93
330
87
100
AcDbXrecord
280
1
1000
auto
  0
XRECORD
  5
94
330
87
100
AcDbXrecord
280
1
1000
auto
  0
XRECORD
  5
95
330
87
100
AcDbXrecord
280
1
1000
auto
  0
XRECORD
  5
96
330
87
100
AcDbXrecord
280
1
290
0
  0
XRECORD
  5
97
330
87
100
AcDbXrecord
280
1
290
0
  0
XRECORD
  5
98
330
87
100
AcDbXrecord
280
1
290
0
  0
XRECORD
  5
99
330
87
100
AcDbXrecord
280
1
290
0
  0
XRECORD
  5
9A
330
87
100
AcDbXrecord
280
1
 90
0
  0
XRECORD
  5
9B
330
87
100
AcDbXrecord
280
1
 90
0
  0
XRECORD
  5
9C
330
87
100
AcDbXrecord
280
1
 90
0
  0
XRECORD
  5
9D
330
87
100
AcDbXrecord
280
1
 90
0
  0
XRECORD
  5
9E
330
87
100
AcDbXrecord
280
1
1000
auto
  0
XRECORD
  5
9F
330
87
100
AcDbXrecord
280
1
1000
auto
  0
XRECORD
  5
A0
330
87
100
AcDbXrecord
280
1
1000
auto
  0
XRECORD
  5
A1
330
87
100
AcDbXrecord
280
1
1000
auto
  0
XRECORD
  5
A2
330
87
100
AcDbXrecord
280
1
1000
auto
  0
XRECORD
  5
A3
330
87
100
AcDbXrecord
280
1
1000
auto
  0
XRECORD
  5
A4
330
87
100
AcDbXrecord
280
1
1000
auto
  0
XRECORD
  5
A5
330
87
100
AcDbXrecord
280
1
1000
auto
  0
XRECORD
  5
A6
330
87
100
AcDbXrecord
280
1
 90
1
  0
XRECORD
  5
A7
330
87
100
AcDbXrecord
280
1
 40
10.0
  0
XRECORD
  5
A8
330
87
100
AcDbXrecord
280
1
 40
10.0
  0
XRECORD
  5
A9
330
87
100
AcDbXrecord
280
1
 40
10.0
  0
XRECORD
  5
AA
330
87
100
AcDbXrecord
280
1
 40
10.0
  0
XRECORD
  5
AB
330
87
100
AcDbXrecord
280
1
290
0
  0
XRECORD
  5
AC
330
87
100
AcDbXrecord
280
1
 90
1
  0
XRECORD
  5
AD
330
87
100
AcDbXrecord
280
1
 40
-48.587931647999973
  0
XRECORD
  5
AE
330
87
100
AcDbXrecord
280
1
 40
-293.9354873855999699
  0
XRECORD
  5
AF
330
87
100
AcDbXrecord
280
1
1000
Portrait
  0
XRECORD
  5
B0
330
87
100
AcDbXrecord
280
1
 40
279.3999999999999773
  0
XRECORD
  5
B1
330
87
100
AcDbXrecord
280
1
 40
215.9000000000000057
  0
XRECORD
  5
B2
330
87
100
AcDbXrecord
280
1
1000
1:1
  0
XRECORD
  5
B3
330
87
100
AcDbXrecord
280
1
290
1
  0
XRECORD
  5
B4
330
87
100
AcDbXrecord
280
1
 90
4
  0
ENDSEC
  0
EOF
