999
dxflib 3.3.4.0
  0
SECTION
  2
HEADER
  9
$ACADVER
  1
AC1015
  9
$HANDSEED
  5
FFFF
  9
$DIMADEC
 70
0
  9
$DIMASZ
 40
2.5
  9
$DIMAUNIT
 70
0
  9
$DIMAZIN
 70
2
  9
$DIMDEC
 70
4
  9
$DIMEXE
 40
1.25
  9
$DIMEXO
 40
0.625
  9
$DIMGAP
 40
0.625
  9
$DIMLUNIT
 70
2
  9
$DIMTSZ
 40
0.0
  9
$DIMTXT
 40
2.5
  9
$DIMZIN
 70
8
  9
$DWGCODEPAGE
  3
ANSI_1252
  9
$INSUNITS
 70
4
  9
$LTSCALE
 40
1.0
  0
ENDSEC
  0
SECTION
  2
TABLES
  0
TABLE
  2
VPORT
  5
8
100
AcDbSymbolTable
 70
1
  0
VPORT
  5
30
100
AcDbSymbolTableRecord
100
AcDbViewportTableRecord
  2
*Active
 70
0
 10
0.0
 20
0.0
 11
1.0
 21
1.0
 12
286.3055555555554861
 22
148.5
 13
0.0
 23
0.0
 14
10.0
 24
10.0
 15
10.0
 25
10.0
 16
0.0
 26
0.0
 36
1.0
 17
0.0
 27
0.0
 37
0.0
 40
297.0
 41
1.92798353909465
 42
50.0
 43
0.0
 44
0.0
 50
0.0
 51
0.0
 71
0
 72
100
 73
1
 74
3
 75
1
 76
1
 77
0
 78
0
281
0
 65
1
110
0.0
120
0.0
130
0.0
111
1.0
121
0.0
131
0.0
112
0.0
122
1.0
132
0.0
 79
0
146
0.0
  0
ENDTAB
  0
TABLE
  2
LTYPE
  5
5
100
AcDbSymbolTable
 70
21
  0
LTYPE
  5
16
100
AcDbSymbolTableRecord
100
AcDbLinetypeTableRecord
  2
CONTINUOUS
 70
0
  3
Solid line
 72
65
 73
0
 40
0.0
  0
LTYPE
  5
31
100
AcDbSymbolTableRecord
100
AcDbLinetypeTableRecord
  2
CENTER2
 70
0
  3
Center (.5x) ___ _ ___ _ ___ _ ___ _ ___ _ ___
 72
65
 73
4
 40
28.5749999999999993
 49
19.0500000000000007
 74
0
 49
-3.1749999999999998
 74
0
 49
3.1749999999999998
 74
0
 49
-3.1749999999999998
 74
0
  0
LTYPE
  5
32
100
AcDbSymbolTableRecord
100
AcDbLinetypeTableRecord
  2
DIVIDEX2
 70
0
  3
Divide (2x) ________  .  .  ________  .  .  _
 72
65
 73
6
 40
63.5
 49
25.3999999999999986
 74
0
 49
-12.6999999999999993
 74
0
 49
0.0
 74
0
 49
-12.6999999999999993
 74
0
 49
0.0
 74
0
 49
-12.6999999999999993
 74
0
  0
LTYPE
  5
33
100
AcDbSymbolTableRecord
100
AcDbLinetypeTableRecord
  2
DOT2
 70
0
  3
Dot (.5x) .....................................
 72
65
 73
2
 40
3.1749999999999998
 49
0.0
 74
0
 49
-3.1749999999999998
 74
0
  0
LTYPE
  5
34
100
AcDbSymbolTableRecord
100
AcDbLinetypeTableRecord
  2
DASHDOT2
 70
0
  3
Dash dot (.5x) _._._._._._._._._._._._._._._.
 72
65
 73
4
 40
12.6999999999999993
 49
6.3499999999999996
 74
0
 49
-3.1749999999999998
 74
0
 49
0.0
 74
0
 49
-3.1749999999999998
 74
0
  0
LTYPE
  5
35
100
AcDbSymbolTableRecord
100
AcDbLinetypeTableRecord
  2
DIVIDE
 70
0
  3
Divide ____ . . ____ . . ____ . . ____ . . ____
 72
65
 73
6
 40
31.75
 49
12.6999999999999993
 74
0
 49
-6.3499999999999996
 74
0
 49
0.0
 74
0
 49
-6.3499999999999996
 74
0
 49
0.0
 74
0
 49
-6.3499999999999996
 74
0
  0
LTYPE
  5
36
100
AcDbSymbolTableRecord
100
AcDbLinetypeTableRecord
  2
DASHDOT
 70
0
  3
Dash dot __ . __ . __ . __ . __ . __ . __ . __
 72
65
 73
4
 40
25.3999999999999986
 49
12.6999999999999993
 74
0
 49
-6.3499999999999996
 74
0
 49
0.0
 74
0
 49
-6.3499999999999996
 74
0
  0
LTYPE
  5
37
100
AcDbSymbolTableRecord
100
AcDbLinetypeTableRecord
  2
BORDER
 70
0
  3
Border __ __ . __ __ . __ __ . __ __ . __ __ .
 72
65
 73
6
 40
44.4500000000000028
 49
12.6999999999999993
 74
0
 49
-6.3499999999999996
 74
0
 49
12.6999999999999993
 74
0
 49
-6.3499999999999996
 74
0
 49
0.0
 74
0
 49
-6.3499999999999996
 74
0
  0
LTYPE
  5
38
100
AcDbSymbolTableRecord
100
AcDbLinetypeTableRecord
  2
DASHDOTX2
 70
0
  3
Dash dot (2x) ____  .  ____  .  ____  .  ___
 72
65
 73
4
 40
50.7999999999999972
 49
25.3999999999999986
 74
0
 49
-12.6999999999999993
 74
0
 49
0.0
 74
0
 49
-12.6999999999999993
 74
0
  0
LTYPE
  5
39
100
AcDbSymbolTableRecord
100
AcDbLinetypeTableRecord
  2
CENTERX2
 70
0
  3
Center (2x) ________  __  ________  __  _____
 72
65
 73
4
 40
101.5999999999999943
 49
63.5
 74
0
 49
-12.6999999999999993
 74
0
 49
12.6999999999999993
 74
0
 49
-12.6999999999999993
 74
0
  0
LTYPE
  5
3A
100
AcDbSymbolTableRecord
100
AcDbLinetypeTableRecord
  2
BORDER2
 70
0
  3
Border (.5x) __.__.__.__.__.__.__.__.__.__.__.
 72
65
 73
6
 40
22.2250000000000014
 49
6.3499999999999996
 74
0
 49
-3.1749999999999998
 74
0
 49
6.3499999999999996
 74
0
 49
-3.1749999999999998
 74
0
 49
0.0
 74
0
 49
-3.1749999999999998
 74
0
  0
LTYPE
  5
3B
100
AcDbSymbolTableRecord
100
AcDbLinetypeTableRecord
  2
BORDERX2
 70
0
  3
Border (2x) ____  ____  .  ____  ____  .  ___
 72
65
 73
6
 40
88.9000000000000057
 49
25.3999999999999986
 74
0
 49
-12.6999999999999993
 74
0
 49
25.3999999999999986
 74
0
 49
-12.6999999999999993
 74
0
 49
0.0
 74
0
 49
-12.6999999999999993
 74
0
  0
LTYPE
  5
14
100
AcDbSymbolTableRecord
100
AcDbLinetypeTableRecord
  2
BYBLOCK
 70
0
  3

 72
65
 73
0
 40
0.0
  0
LTYPE
  5
15
100
AcDbSymbolTableRecord
100
AcDbLinetypeTableRecord
  2
BYLAYER
 70
0
  3

 72
65
 73
0
 40
0.0
  0
LTYPE
  5
3C
100
AcDbSymbolTableRecord
100
AcDbLinetypeTableRecord
  2
DASHED2
 70
0
  3
Dashed (.5x) _ _ _ _ _ _ _ _ _ _ _ _ _ _ _ _ _
 72
65
 73
2
 40
9.5250000000000004
 49
6.3499999999999996
 74
0
 49
-3.1749999999999998
 74
0
  0
LTYPE
  5
3D
100
AcDbSymbolTableRecord
100
AcDbLinetypeTableRecord
  2
CENTER
 70
0
  3
Center ____ _ ____ _ ____ _ ____ _ ____ _ ____
 72
65
 73
4
 40
50.7999999999999972
 49
31.75
 74
0
 49
-6.3499999999999996
 74
0
 49
6.3499999999999996
 74
0
 49
-6.3499999999999996
 74
0
  0
LTYPE
  5
3E
100
AcDbSymbolTableRecord
100
AcDbLinetypeTableRecord
  2
DIVIDE2
 70
0
  3
Divide (.5x) __..__..__..__..__..__..__..__.._
 72
65
 73
6
 40
15.875
 49
6.3499999999999996
 74
0
 49
-3.1749999999999998
 74
0
 49
0.0
 74
0
 49
-3.1749999999999998
 74
0
 49
0.0
 74
0
 49
-3.1749999999999998
 74
0
  0
LTYPE
  5
3F
100
AcDbSymbolTableRecord
100
AcDbLinetypeTableRecord
  2
DASHED
 70
0
  3
Dashed __ __ __ __ __ __ __ __ __ __ __ __ __ _
 72
65
 73
2
 40
19.0500000000000007
 49
12.6999999999999993
 74
0
 49
-6.3499999999999996
 74
0
  0
LTYPE
  5
40
100
AcDbSymbolTableRecord
100
AcDbLinetypeTableRecord
  2
DOTX2
 70
0
  3
Dot (2x) .  .  .  .  .  .  .  .  .  .  .  .  .
 72
65
 73
2
 40
12.6999999999999993
 49
0.0
 74
0
 49
-12.6999999999999993
 74
0
  0
LTYPE
  5
41
100
AcDbSymbolTableRecord
100
AcDbLinetypeTableRecord
  2
DASHEDX2
 70
0
  3
Dashed (2x) ____  ____  ____  ____  ____  ___
 72
65
 73
2
 40
38.1000000000000014
 49
25.3999999999999986
 74
0
 49
-12.6999999999999993
 74
0
  0
LTYPE
  5
42
100
AcDbSymbolTableRecord
100
AcDbLinetypeTableRecord
  2
DOT
 70
0
  3
Dot . . . . . . . . . . . . . . . . . . . . . .
 72
65
 73
2
 40
6.3499999999999996
 49
0.0
 74
0
 49
-6.3499999999999996
 74
0
  0
ENDTAB
  0
TABLE
  2
LAYER
  5
2
100
AcDbSymbolTable
 70
1
  0
LAYER
  5
10
100
AcDbSymbolTableRecord
100
AcDbLayerTableRecord
  2
0
 70
0
 62
7
420
0
  6
CONTINUOUS
370
25
390
F
  0
ENDTAB
  0
TABLE
  2
STYLE
  5
3
100
AcDbSymbolTable
 70
10
  0
STYLE
  5
43
100
AcDbSymbolTableRecord
100
AcDbTextStyleTableRecord
  2
Standard
 70
0
 40
0.0
 41
1.0
 50
0.0
 71
0
 42
2.5
  3

  4

1001
ACAD
1000
txt
1071
0
  0
STYLE
  5
44
100
AcDbSymbolTableRecord
100
AcDbTextStyleTableRecord
  2
textstyle0
 70
0
 40
0.0
 41
1.0
 50
0.0
 71
0
 42
8.0
  3

  4

1001
ACAD
1000
Droid Sans Mono
1071
0
  0
STYLE
  5
45
100
AcDbSymbolTableRecord
100
AcDbTextStyleTableRecord
  2
textstyle1
 70
0
 40
0.0
 41
1.0
 50
0.0
 71
0
 42
8.0
  3

  4

1001
ACAD
1000
Droid Sans Mono
1071
0
  0
STYLE
  5
46
100
AcDbSymbolTableRecord
100
AcDbTextStyleTableRecord
  2
textstyle2
 70
0
 40
0.0
 41
1.0
 50
0.0
 71
0
 42
8.0
  3

  4

1001
ACAD
1000
Droid Sans Mono
1071
0
  0
STYLE
  5
47
100
AcDbSymbolTableRecord
100
AcDbTextStyleTableRecord
  2
textstyle3
 70
0
 40
0.0
 41
1.0
 50
0.0
 71
0
 42
8.0
  3

  4

1001
ACAD
1000
Droid Sans Mono
1071
0
  0
STYLE
  5
48
100
AcDbSymbolTableRecord
100
AcDbTextStyleTableRecord
  2
textstyle4
 70
0
 40
0.0
 41
1.0
 50
0.0
 71
0
 42
8.0
  3

  4

1001
ACAD
1000
Droid Sans Mono
1071
0
  0
STYLE
  5
49
100
AcDbSymbolTableRecord
100
AcDbTextStyleTableRecord
  2
textstyle5
 70
0
 40
0.0
 41
1.0
 50
0.0
 71
0
 42
8.0
  3

  4

1001
ACAD
1000
Droid Sans Mono
1071
0
  0
STYLE
  5
4A
100
AcDbSymbolTableRecord
100
AcDbTextStyleTableRecord
  2
textstyle6
 70
0
 40
0.0
 41
1.0
 50
0.0
 71
0
 42
8.0
  3

  4

1001
ACAD
1000
Droid Sans Mono
1071
0
  0
STYLE
  5
4B
100
AcDbSymbolTableRecord
100
AcDbTextStyleTableRecord
  2
textstyle7
 70
0
 40
0.0
 41
1.0
 50
0.0
 71
0
 42
8.0
  3

  4

1001
ACAD
1000
Droid Sans Mono
1071
0
  0
STYLE
  5
4C
100
AcDbSymbolTableRecord
100
AcDbTextStyleTableRecord
  2
textstyle8
 70
0
 40
0.0
 41
1.0
 50
0.0
 71
0
 42
8.0
  3

  4

1001
ACAD
1000
Droid Sans Mono
1071
0
  0
ENDTAB
  0
TABLE
  2
VIEW
  5
6
100
AcDbSymbolTable
 70
0
  0
ENDTAB
  0
TABLE
  2
UCS
  5
7
100
AcDbSymbolTable
 70
0
  0
ENDTAB
  0
TABLE
  2
APPID
  5
9
100
AcDbSymbolTable
 70
1
  0
APPID
  5
12
100
AcDbSymbolTableRecord
100
AcDbRegAppTableRecord
  2
ACAD
 70
0
  0
APPID
  5
4D
100
AcDbSymbolTableRecord
100
AcDbRegAppTableRecord
  2
QCAD
 70
0
  0
ENDTAB
  0
TABLE
  2
DIMSTYLE
  5
A
100
AcDbSymbolTable
 70
1
100
AcDbDimStyleTable
 71
0
  0
DIMSTYLE
105
27
100
AcDbSymbolTableRecord
100
AcDbDimStyleTableRecord
  2
Standard
 41
2.5
 42
0.625
 43
3.75
 44
1.25
 70
0
 73
0
 74
0
 77
1
 78
8
140
2.5
141
2.5
143
0.03937007874016
147
0.625
171
3
172
1
271
2
272
2
274
3
278
44
283
0
284
8
340
43
  0
ENDTAB
  0
TABLE
  2
BLOCK_RECORD
  5
1
100
AcDbSymbolTable
 70
1
  0
BLOCK_RECORD
  5
1F
100
AcDbSymbolTableRecord
100
AcDbBlockTableRecord
  2
*Model_Space
340
22
  0
BLOCK_RECORD
  5
1B
100
AcDbSymbolTableRecord
100
AcDbBlockTableRecord
  2
*Paper_Space
340
1E
  0
BLOCK_RECORD
  5
23
100
AcDbSymbolTableRecord
100
AcDbBlockTableRecord
  2
*Paper_Space0
340
26
  0
BLOCK_RECORD
  5
4E
100
AcDbSymbolTableRecord
100
AcDbBlockTableRecord
  2
wheel
340
0
  0
BLOCK_RECORD
  5
4F
100
AcDbSymbolTableRecord
100
AcDbBlockTableRecord
  2
bucket_side
340
0
  0
BLOCK_RECORD
  5
50
100
AcDbSymbolTableRecord
100
AcDbBlockTableRecord
  2
cab_top
340
0
  0
BLOCK_RECORD
  5
51
100
AcDbSymbolTableRecord
100
AcDbBlockTableRecord
  2
cab_back
340
0
  0
BLOCK_RECORD
  5
52
100
AcDbSymbolTableRecord
100
AcDbBlockTableRecord
  2
chassis_cross
340
0
  0
BLOCK_RECORD
  5
53
100
AcDbSymbolTableRecord
100
AcDbBlockTableRecord
  2
bucket_bottom
340
0
  0
BLOCK_RECORD
  5
54
100
AcDbSymbolTableRecord
100
AcDbBlockTableRecord
  2
bucket_lift
340
0
  0
BLOCK_RECORD
  5
55
100
AcDbSymbolTableRecord
100
AcDbBlockTableRecord
  2
cab_bottom
340
0
  0
BLOCK_RECORD
  5
56
100
AcDbSymbolTableRecord
100
AcDbBlockTableRecord
  2
chassis
340
0
  0
BLOCK_RECORD
  5
57
100
AcDbSymbolTableRecord
100
AcDbBlockTableRecord
  2
cab_side
340
0
  0
BLOCK_RECORD
  5
58
100
AcDbSymbolTableRecord
100
AcDbBlockTableRecord
  2
cab_grille
340
0
  0
BLOCK_RECORD
  5
59
100
AcDbSymbolTableRecord
100
AcDbBlockTableRecord
  2
cab_hood
340
0
  0
BLOCK_RECORD
  5
5A
100
AcDbSymbolTableRecord
100
AcDbBlockTableRecord
  2
bucket_front
340
0
  0
ENDTAB
  0
ENDSEC
  0
SECTION
  2
BLOCKS
  0
BLOCK
  5
20
100
AcDbEntity
  8
0
100
AcDbBlockBegin
  2
*Model_Space
 70
0
 10
0.0
 20
0.0
 30
0.0
  3
*Model_Space
  1

  0
ENDBLK
  5
21
100
AcDbEntity
  8
0
100
AcDbBlockEnd
  0
BLOCK
  5
1C
100
AcDbEntity
 67
1
  8
0
100
AcDbBlockBegin
  2
*Paper_Space
 70
0
 10
0.0
 20
0.0
 30
0.0
  3
*Paper_Space
  1

  0
ENDBLK
  5
1D
100
AcDbEntity
 67
1
  8
0
100
AcDbBlockEnd
  0
BLOCK
  5
24
100
AcDbEntity
  8
0
100
AcDbBlockBegin
  2
*Paper_Space0
 70
0
 10
0.0
 20
0.0
 30
0.0
  3
*Paper_Space0
  1

  0
ENDBLK
  5
25
100
AcDbEntity
  8
0
100
AcDbBlockEnd
  0
BLOCK
  5
5B
100
AcDbEntity
  8
0
100
AcDbBlockBegin
  2
wheel
 70
0
 10
0.0
 20
0.0
 30
0.0
  3
wheel
  1

  0
CIRCLE
  5
5C
100
AcDbEntity
100
AcDbCircle
  8
0
 62
256
370
-1
  6
BYLAYER
 10
0.0
 20
0.0
 30
0.0
 40
50.0
  0
CIRCLE
  5
5D
100
AcDbEntity
100
AcDbCircle
  8
0
 62
256
370
-1
  6
BYLAYER
 10
0.0
 20
0.0
 30
0.0
 40
3.2000000000000002
  0
ENDBLK
  5
5E
100
AcDbEntity
  8
0
100
AcDbBlockEnd
  0
BLOCK
  5
5F
100
AcDbEntity
  8
0
100
AcDbBlockBegin
  2
bucket_side
 70
0
 10
0.0
 20
0.0
 30
0.0
  3
bucket_side
  1

  0
LINE
  5
60
100
AcDbEntity
100
AcDbLine
  8
0
 62
7
420
0
370
-1
  6
BYLAYER
 10
-116.3999996177844878
 20
108.199999808920424
 30
0.0
 11
0.0
 21
108.199999808920424
 31
0.0
  0
LINE
  5
61
100
AcDbEntity
100
AcDbLine
  8
0
 62
7
420
0
370
-1
  6
BYLAYER
 10
0.0
 20
108.199999808920424
 30
0.0
 11
0.0
 21
82.638333267862194
 31
0.0
  0
LINE
  5
62
100
AcDbEntity
100
AcDbLine
  8
0
 62
7
420
0
370
-1
  6
BYLAYER
 10
0.0
 20
82.638333267862194
 30
0.0
 11
-8.1999998080223122
 21
82.638333267862194
 31
0.0
  0
LINE
  5
63
100
AcDbEntity
100
AcDbLine
  8
0
 62
7
420
0
370
-1
  6
BYLAYER
 10
-8.1999998080223122
 20
82.638333267862194
 30
0.0
 11
-8.1999998080223122
 21
62.8283332711998668
 31
0.0
  0
LINE
  5
64
100
AcDbEntity
100
AcDbLine
  8
0
 62
7
420
0
370
-1
  6
BYLAYER
 10
-8.1999998080223122
 20
62.8283332711998668
 30
0.0
 11
0.0
 21
62.8283332711998668
 31
0.0
  0
LINE
  5
65
100
AcDbEntity
100
AcDbLine
  8
0
 62
7
420
0
370
-1
  6
BYLAYER
 10
0.0
 20
62.8283332711998668
 30
0.0
 11
0.0
 21
37.1716667286823252
 31
0.0
  0
LINE
  5
66
100
AcDbEntity
100
AcDbLine
  8
0
 62
7
420
0
370
-1
  6
BYLAYER
 10
0.0
 20
37.1716667286823252
 30
0.0
 11
-8.1999998080223122
 21
37.1716667286823252
 31
0.0
  0
LINE
  5
67
100
AcDbEntity
100
AcDbLine
  8
0
 62
7
420
0
370
-1
  6
BYLAYER
 10
-8.1999998080223122
 20
37.1716667286823252
 30
0.0
 11
-8.1999998080223122
 21
17.3616667317378273
 31
0.0
  0
LINE
  5
68
100
AcDbEntity
100
AcDbLine
  8
0
 62
7
420
0
370
-1
  6
BYLAYER
 10
-8.1999998080223122
 20
17.3616667317378273
 30
0.0
 11
0.0
 21
17.3616667317378273
 31
0.0
  0
LINE
  5
69
100
AcDbEntity
100
AcDbLine
  8
0
 62
7
420
0
370
-1
  6
BYLAYER
 10
0.0
 20
17.3616667317378273
 30
0.0
 11
0.0
 21
-0.0000000000000142
 31
0.0
  0
LINE
  5
6A
100
AcDbEntity
100
AcDbLine
  8
0
 62
7
420
0
370
-1
  6
BYLAYER
 10
0.0
 20
-0.0000000000000142
 30
0.0
 11
-27.1849999210890019
 21
-0.0000000000000142
 31
0.0
  0
LINE
  5
6B
100
AcDbEntity
100
AcDbLine
  8
0
 62
7
420
0
370
-1
  6
BYLAYER
 10
-27.1849999210890019
 20
-0.0000000000000142
 30
0.0
 11
-27.1849999210890019
 21
-8.1999998091510093
 31
0.0
  0
LINE
  5
6C
100
AcDbEntity
100
AcDbLine
  8
0
 62
7
420
0
370
-1
  6
BYLAYER
 10
-27.1849999210890019
 20
-8.1999998091510093
 30
0.0
 11
-47.3749999242668309
 21
-8.1999998091510093
 31
0.0
  0
LINE
  5
6D
100
AcDbEntity
100
AcDbLine
  8
0
 62
7
420
0
370
-1
  6
BYLAYER
 10
-47.3749999242668309
 20
-8.1999998091510093
 30
0.0
 11
-47.3749999242668309
 21
-0.0000000000000142
 31
0.0
  0
LINE
  5
6E
100
AcDbEntity
100
AcDbLine
  8
0
 62
7
420
0
370
-1
  6
BYLAYER
 10
-47.3749999242668309
 20
-0.0000000000000142
 30
0.0
 11
-74.4649998454201523
 21
-0.0000000000000142
 31
0.0
  0
LINE
  5
6F
100
AcDbEntity
100
AcDbLine
  8
0
 62
7
420
0
370
-1
  6
BYLAYER
 10
-74.4649998454201523
 20
-0.0000000000000142
 30
0.0
 11
-74.4649998454201523
 21
-8.1999998091510093
 31
0.0
  0
LINE
  5
70
100
AcDbEntity
100
AcDbLine
  8
0
 62
7
420
0
370
-1
  6
BYLAYER
 10
-74.4649998454201523
 20
-8.1999998091510093
 30
0.0
 11
-94.654999848597754
 21
-8.1999998091510093
 31
0.0
  0
LINE
  5
71
100
AcDbEntity
100
AcDbLine
  8
0
 62
7
420
0
370
-1
  6
BYLAYER
 10
-94.654999848597754
 20
-8.1999998091510093
 30
0.0
 11
-94.654999848597754
 21
-0.0000000000000142
 31
0.0
  0
LINE
  5
72
100
AcDbEntity
100
AcDbLine
  8
0
 62
7
420
0
370
-1
  6
BYLAYER
 10
-94.654999848597754
 20
-0.0000000000000142
 30
0.0
 11
-121.7449997689045631
 21
-0.0000000000000142
 31
0.0
  0
LINE
  5
73
100
AcDbEntity
100
AcDbLine
  8
0
 62
7
420
0
370
-1
  6
BYLAYER
 10
-121.7449997689045631
 20
-0.0000000000000142
 30
0.0
 11
-121.7449997689045631
 21
-8.1999998091510093
 31
0.0
  0
LINE
  5
74
100
AcDbEntity
100
AcDbLine
  8
0
 62
7
420
0
370
-1
  6
BYLAYER
 10
-121.7449997689045631
 20
-8.1999998091510093
 30
0.0
 11
-141.9349997720821648
 21
-8.1999998091510093
 31
0.0
  0
LINE
  5
75
100
AcDbEntity
100
AcDbLine
  8
0
 62
7
420
0
370
-1
  6
BYLAYER
 10
-141.9349997720821648
 20
-8.1999998091510093
 30
0.0
 11
-141.9349997720821648
 21
-0.0000000000000142
 31
0.0
  0
LINE
  5
76
100
AcDbEntity
100
AcDbLine
  8
0
 62
7
420
0
370
-1
  6
BYLAYER
 10
-141.9349997720821648
 20
-0.0000000000000142
 30
0.0
 11
-169.0249996926711447
 21
-0.0000000000000142
 31
0.0
  0
LINE
  5
77
100
AcDbEntity
100
AcDbLine
  8
0
 62
7
420
0
370
-1
  6
BYLAYER
 10
-169.0249996926711447
 20
-0.0000000000000142
 30
0.0
 11
-169.0249996926711447
 21
-8.1999998091510093
 31
0.0
  0
LINE
  5
78
100
AcDbEntity
100
AcDbLine
  8
0
 62
7
420
0
370
-1
  6
BYLAYER
 10
-169.0249996926711447
 20
-8.1999998091510093
 30
0.0
 11
-189.214999695566803
 21
-8.1999998091510093
 31
0.0
  0
LINE
  5
79
100
AcDbEntity
100
AcDbLine
  8
0
 62
7
420
0
370
-1
  6
BYLAYER
 10
-189.214999695566803
 20
-8.1999998091510093
 30
0.0
 11
-189.214999695566803
 21
-0.0000000000000142
 31
0.0
  0
LINE
  5
7A
100
AcDbEntity
100
AcDbLine
  8
0
 62
7
420
0
370
-1
  6
BYLAYER
 10
-189.214999695566803
 20
-0.0000000000000142
 30
0.0
 11
-216.3999996177844878
 21
-0.0000000000000142
 31
0.0
  0
LINE
  5
7B
100
AcDbEntity
100
AcDbLine
  8
0
 62
7
420
0
370
-1
  6
BYLAYER
 10
-216.3999996177844878
 20
-0.0000000000000142
 30
0.0
 11
-216.3999996177844878
 21
68.199999808920424
 31
0.0
  0
LINE
  5
7C
100
AcDbEntity
100
AcDbLine
  8
0
 62
256
370
-1
  6
BYLAYER
 10
-116.3999996177844878
 20
108.199999808920424
 30
0.0
 11
-216.3999996177844878
 21
68.199999808920424
 31
0.0
  0
ENDBLK
  5
7D
100
AcDbEntity
  8
0
100
AcDbBlockEnd
  0
BLOCK
  5
7E
100
AcDbEntity
  8
0
100
AcDbBlockBegin
  2
cab_top
 70
0
 10
0.0
 20
0.0
 30
0.0
  3
cab_top
  1

  0
LINE
  5
7F
100
AcDbEntity
100
AcDbLine
  8
0
 62
7
420
0
370
-1
  6
BYLAYER
 10
-116.8049999348653785
 20
116.3999996181844381
 30
0.0
 11
-90.1100000271987085
 21
116.3999996181844381
 31
0.0
  0
LINE
  5
80
100
AcDbEntity
100
AcDbLine
  8
0
 62
7
420
0
370
-1
  6
BYLAYER
 10
-90.1100000271987085
 20
116.3999996181844381
 30
0.0
 11
-90.1100000271987085
 21
108.1999998087511017
 31
0.0
  0
LINE
  5
81
100
AcDbEntity
100
AcDbLine
  8
0
 62
7
420
0
370
-1
  6
BYLAYER
 10
-90.1100000271987085
 20
108.1999998087511017
 30
0.0
 11
-70.3000000316654052
 21
108.1999998087511017
 31
0.0
  0
LINE
  5
82
100
AcDbEntity
100
AcDbLine
  8
0
 62
7
420
0
370
-1
  6
BYLAYER
 10
-70.3000000316654052
 20
108.1999998087511017
 30
0.0
 11
-70.3000000316654052
 21
116.3999996181844381
 31
0.0
  0
LINE
  5
83
100
AcDbEntity
100
AcDbLine
  8
0
 62
7
420
0
370
-1
  6
BYLAYER
 10
-70.3000000316654052
 20
116.3999996181844381
 30
0.0
 11
-43.5100001220875754
 21
116.3999996181844381
 31
0.0
  0
LINE
  5
84
100
AcDbEntity
100
AcDbLine
  8
0
 62
7
420
0
370
-1
  6
BYLAYER
 10
-43.5100001220875754
 20
116.3999996181844381
 30
0.0
 11
-43.5100001220875754
 21
108.1999998087511017
 31
0.0
  0
LINE
  5
85
100
AcDbEntity
100
AcDbLine
  8
0
 62
7
420
0
370
-1
  6
BYLAYER
 10
-43.5100001220875754
 20
108.1999998087511017
 30
0.0
 11
-23.700000126554329
 21
108.1999998087511017
 31
0.0
  0
LINE
  5
86
100
AcDbEntity
100
AcDbLine
  8
0
 62
7
420
0
370
-1
  6
BYLAYER
 10
-23.700000126554329
 20
108.1999998087511017
 30
0.0
 11
-23.700000126554329
 21
116.3999996181844381
 31
0.0
  0
LINE
  5
87
100
AcDbEntity
100
AcDbLine
  8
0
 62
7
420
0
370
-1
  6
BYLAYER
 10
-23.700000126554329
 20
116.3999996181844381
 30
0.0
 11
0.0000000000000284
 21
116.3999996181844381
 31
0.0
  0
LINE
  5
88
100
AcDbEntity
100
AcDbLine
  8
0
 62
7
420
0
370
-1
  6
BYLAYER
 10
0.0000000000000284
 20
0.0
 30
0.0
 11
-23.700000126554329
 21
0.0
 31
0.0
  0
LINE
  5
89
100
AcDbEntity
100
AcDbLine
  8
0
 62
7
420
0
370
-1
  6
BYLAYER
 10
-23.700000126554329
 20
0.0
 30
0.0
 11
-23.700000126554329
 21
8.1999998091511088
 31
0.0
  0
LINE
  5
8A
100
AcDbEntity
100
AcDbLine
  8
0
 62
7
420
0
370
-1
  6
BYLAYER
 10
-23.700000126554329
 20
8.1999998091511088
 30
0.0
 11
-43.5100001220875754
 21
8.1999998091511088
 31
0.0
  0
LINE
  5
8B
100
AcDbEntity
100
AcDbLine
  8
0
 62
7
420
0
370
-1
  6
BYLAYER
 10
-43.5100001220875754
 20
8.1999998091511088
 30
0.0
 11
-43.5100001220875754
 21
0.0
 31
0.0
  0
LINE
  5
8C
100
AcDbEntity
100
AcDbLine
  8
0
 62
7
420
0
370
-1
  6
BYLAYER
 10
-43.5100001220875754
 20
0.0
 30
0.0
 11
-70.3000000316654052
 21
0.0
 31
0.0
  0
LINE
  5
8D
100
AcDbEntity
100
AcDbLine
  8
0
 62
7
420
0
370
-1
  6
BYLAYER
 10
-70.3000000316654052
 20
0.0
 30
0.0
 11
-70.3000000316654052
 21
8.1999998091511088
 31
0.0
  0
LINE
  5
8E
100
AcDbEntity
100
AcDbLine
  8
0
 62
7
420
0
370
-1
  6
BYLAYER
 10
-70.3000000316654052
 20
8.1999998091511088
 30
0.0
 11
-90.1100000271987085
 21
8.1999998091511088
 31
0.0
  0
LINE
  5
8F
100
AcDbEntity
100
AcDbLine
  8
0
 62
7
420
0
370
-1
  6
BYLAYER
 10
-90.1100000271987085
 20
8.1999998091511088
 30
0.0
 11
-90.1100000271987085
 21
0.0
 31
0.0
  0
LINE
  5
90
100
AcDbEntity
100
AcDbLine
  8
0
 62
7
420
0
370
-1
  6
BYLAYER
 10
-90.1100000271987085
 20
0.0
 30
0.0
 11
-116.8049999348653785
 21
0.0
 31
0.0
  0
LINE
  5
91
100
AcDbEntity
100
AcDbLine
  8
0
 62
7
420
0
370
-1
  6
BYLAYER
 10
-116.8049999348653785
 20
0.0
 30
0.0
 11
-116.8049999348653785
 21
25.5616665408888935
 31
0.0
  0
LINE
  5
92
100
AcDbEntity
100
AcDbLine
  8
0
 62
7
420
0
370
-1
  6
BYLAYER
 10
-116.8049999348653785
 20
25.5616665408888935
 30
0.0
 11
-108.605000124020961
 21
25.5616665408888935
 31
0.0
  0
LINE
  5
93
100
AcDbEntity
100
AcDbLine
  8
0
 62
7
420
0
370
-1
  6
BYLAYER
 10
-108.605000124020961
 20
25.5616665408888935
 30
0.0
 11
-108.605000124020961
 21
45.3716665378333346
 31
0.0
  0
LINE
  5
94
100
AcDbEntity
100
AcDbLine
  8
0
 62
7
420
0
370
-1
  6
BYLAYER
 10
-108.605000124020961
 20
45.3716665378333346
 30
0.0
 11
-116.8049999348653785
 21
45.3716665378333346
 31
0.0
  0
LINE
  5
95
100
AcDbEntity
100
AcDbLine
  8
0
 62
7
420
0
370
-1
  6
BYLAYER
 10
-116.8049999348653785
 20
45.3716665378333346
 30
0.0
 11
-116.8049999348653785
 21
71.0283330803511035
 31
0.0
  0
LINE
  5
96
100
AcDbEntity
100
AcDbLine
  8
0
 62
7
420
0
370
-1
  6
BYLAYER
 10
-116.8049999348653785
 20
71.0283330803511035
 30
0.0
 11
-108.605000124020961
 21
71.0283330803511035
 31
0.0
  0
LINE
  5
97
100
AcDbEntity
100
AcDbLine
  8
0
 62
7
420
0
370
-1
  6
BYLAYER
 10
-108.605000124020961
 20
71.0283330803511035
 30
0.0
 11
-108.605000124020961
 21
90.8383330770133171
 31
0.0
  0
LINE
  5
98
100
AcDbEntity
100
AcDbLine
  8
0
 62
7
420
0
370
-1
  6
BYLAYER
 10
-108.605000124020961
 20
90.8383330770133171
 30
0.0
 11
-116.8049999348653785
 21
90.8383330770133171
 31
0.0
  0
LINE
  5
99
100
AcDbEntity
100
AcDbLine
  8
0
 62
7
420
0
370
-1
  6
BYLAYER
 10
-116.8049999348653785
 20
90.8383330770133171
 30
0.0
 11
-116.8049999348653785
 21
116.3999996181844381
 31
0.0
  0
LINE
  5
9A
100
AcDbEntity
100
AcDbLine
  8
0
 62
256
370
-1
  6
BYLAYER
 10
0.0
 20
0.0000000000000018
 30
0.0
 11
0.0
 21
116.3999996181844381
 31
0.0
  0
MTEXT
  5
9B
100
AcDbEntity
100
AcDbMText
  8
0
 62
256
370
-1
  6
BYLAYER
 10
-81.2049995527520707
 20
64.925732125724295
 30
0.0
 40
8.0
 41
0.0
 71
1
 72
1
  1
Cab Top
  7
textstyle0
 50
0.0
 73
2
 44
1.0
  0
ENDBLK
  5
9C
100
AcDbEntity
  8
0
100
AcDbBlockEnd
  0
BLOCK
  5
9D
100
AcDbEntity
  8
0
100
AcDbBlockBegin
  2
cab_back
 70
0
 10
0.0
 20
0.0
 30
0.0
  3
cab_back
  1

  0
LINE
  5
9E
100
AcDbEntity
100
AcDbLine
  8
0
 62
7
420
0
370
-1
  6
BYLAYER
 10
0.0
 20
99.9999999996000213
 30
0.0
 11
20.5050000618846653
 21
99.9999999996000213
 31
0.0
  0
LINE
  5
9F
100
AcDbEntity
100
AcDbLine
  8
0
 62
7
420
0
370
-1
  6
BYLAYER
 10
20.5050000618846653
 20
99.9999999996000213
 30
0.0
 11
20.5050000618846653
 21
108.1999998090333577
 31
0.0
  0
LINE
  5
A0
100
AcDbEntity
100
AcDbLine
  8
0
 62
7
420
0
370
-1
  6
BYLAYER
 10
20.5050000618846653
 20
108.1999998090333577
 30
0.0
 11
40.6950000650624375
 21
108.1999998090333577
 31
0.0
  0
LINE
  5
A1
100
AcDbEntity
100
AcDbLine
  8
0
 62
7
420
0
370
-1
  6
BYLAYER
 10
40.6950000650624375
 20
108.1999998090333577
 30
0.0
 11
40.6950000650624375
 21
99.9999999996000213
 31
0.0
  0
LINE
  5
A2
100
AcDbEntity
100
AcDbLine
  8
0
 62
7
420
0
370
-1
  6
BYLAYER
 10
40.6950000650624375
 20
99.9999999996000213
 30
0.0
 11
69.3049999346668812
 21
99.9999999996000213
 31
0.0
  0
LINE
  5
A3
100
AcDbEntity
100
AcDbLine
  8
0
 62
7
420
0
370
-1
  6
BYLAYER
 10
69.3049999346668812
 20
99.9999999996000213
 30
0.0
 11
69.3049999346668812
 21
108.1999998090333577
 31
0.0
  0
LINE
  5
A4
100
AcDbEntity
100
AcDbLine
  8
0
 62
7
420
0
370
-1
  6
BYLAYER
 10
69.3049999346668812
 20
108.1999998090333577
 30
0.0
 11
89.4949999375624401
 21
108.1999998090333577
 31
0.0
  0
LINE
  5
A5
100
AcDbEntity
100
AcDbLine
  8
0
 62
7
420
0
370
-1
  6
BYLAYER
 10
89.4949999375624401
 20
108.1999998090333577
 30
0.0
 11
89.4949999375624401
 21
99.9999999996000213
 31
0.0
  0
LINE
  5
A6
100
AcDbEntity
100
AcDbLine
  8
0
 62
7
420
0
370
-1
  6
BYLAYER
 10
89.4949999375624401
 20
99.9999999996000213
 30
0.0
 11
109.9999999996446576
 21
99.9999999996000213
 31
0.0
  0
LINE
  5
A7
100
AcDbEntity
100
AcDbLine
  8
0
 62
7
420
0
370
-1
  6
BYLAYER
 10
109.9999999996446576
 20
99.9999999996000213
 30
0.0
 11
109.9999999996446576
 21
82.8283332711200444
 31
0.0
  0
LINE
  5
A8
100
AcDbEntity
100
AcDbLine
  8
0
 62
7
420
0
370
-1
  6
BYLAYER
 10
109.9999999996446576
 20
82.8283332711200444
 30
0.0
 11
118.1999998087957806
 21
82.8283332711200444
 31
0.0
  0
LINE
  5
A9
100
AcDbEntity
100
AcDbLine
  8
0
 62
7
420
0
370
-1
  6
BYLAYER
 10
118.1999998087957806
 20
82.8283332711200444
 30
0.0
 11
118.1999998087957806
 21
62.6383332679422438
 31
0.0
  0
LINE
  5
AA
100
AcDbEntity
100
AcDbLine
  8
0
 62
7
420
0
370
-1
  6
BYLAYER
 10
118.1999998087957806
 20
62.6383332679422438
 30
0.0
 11
109.9999999996446576
 21
62.6383332679422438
 31
0.0
  0
LINE
  5
AB
100
AcDbEntity
100
AcDbLine
  8
0
 62
7
420
0
370
-1
  6
BYLAYER
 10
109.9999999996446576
 20
62.6383332679422438
 30
0.0
 11
109.9999999996446576
 21
37.3616667316578059
 31
0.0
  0
LINE
  5
AC
100
AcDbEntity
100
AcDbLine
  8
0
 62
7
420
0
370
-1
  6
BYLAYER
 10
109.9999999996446576
 20
37.3616667316578059
 30
0.0
 11
118.1999998087957806
 21
37.3616667316578059
 31
0.0
  0
LINE
  5
AD
100
AcDbEntity
100
AcDbLine
  8
0
 62
7
420
0
370
-1
  6
BYLAYER
 10
118.1999998087957806
 20
37.3616667316578059
 30
0.0
 11
118.1999998087957806
 21
17.1716667287622613
 31
0.0
  0
LINE
  5
AE
100
AcDbEntity
100
AcDbLine
  8
0
 62
7
420
0
370
-1
  6
BYLAYER
 10
118.1999998087957806
 20
17.1716667287622613
 30
0.0
 11
109.9999999996446576
 21
17.1716667287622613
 31
0.0
  0
LINE
  5
AF
100
AcDbEntity
100
AcDbLine
  8
0
 62
7
420
0
370
-1
  6
BYLAYER
 10
109.9999999996446576
 20
17.1716667287622613
 30
0.0
 11
109.9999999996446576
 21
0.0000000000000284
 31
0.0
  0
LINE
  5
B0
100
AcDbEntity
100
AcDbLine
  8
0
 62
7
420
0
370
-1
  6
BYLAYER
 10
109.9999999996446576
 20
0.0000000000000284
 30
0.0
 11
89.4949999375624401
 21
0.0000000000000284
 31
0.0
  0
LINE
  5
B1
100
AcDbEntity
100
AcDbLine
  8
0
 62
7
420
0
370
-1
  6
BYLAYER
 10
89.4949999375624401
 20
0.0000000000000284
 30
0.0
 11
89.4949999375624401
 21
-8.1999998091510804
 31
0.0
  0
LINE
  5
B2
100
AcDbEntity
100
AcDbLine
  8
0
 62
7
420
0
370
-1
  6
BYLAYER
 10
89.4949999375624401
 20
-8.1999998091510804
 30
0.0
 11
69.3049999346668812
 21
-8.1999998091510804
 31
0.0
  0
LINE
  5
B3
100
AcDbEntity
100
AcDbLine
  8
0
 62
7
420
0
370
-1
  6
BYLAYER
 10
69.3049999346668812
 20
-8.1999998091510804
 30
0.0
 11
69.3049999346668812
 21
0.0000000000000284
 31
0.0
  0
LINE
  5
B4
100
AcDbEntity
100
AcDbLine
  8
0
 62
7
420
0
370
-1
  6
BYLAYER
 10
69.3049999346668812
 20
0.0000000000000284
 30
0.0
 11
40.6950000650624375
 21
0.0000000000000284
 31
0.0
  0
LINE
  5
B5
100
AcDbEntity
100
AcDbLine
  8
0
 62
7
420
0
370
-1
  6
BYLAYER
 10
40.6950000650624375
 20
0.0000000000000284
 30
0.0
 11
40.6950000650624375
 21
-8.1999998091510804
 31
0.0
  0
LINE
  5
B6
100
AcDbEntity
100
AcDbLine
  8
0
 62
7
420
0
370
-1
  6
BYLAYER
 10
40.6950000650624375
 20
-8.1999998091510804
 30
0.0
 11
20.5050000618846653
 21
-8.1999998091510804
 31
0.0
  0
LINE
  5
B7
100
AcDbEntity
100
AcDbLine
  8
0
 62
7
420
0
370
-1
  6
BYLAYER
 10
20.5050000618846653
 20
-8.1999998091510804
 30
0.0
 11
20.5050000618846653
 21
0.0000000000000284
 31
0.0
  0
LINE
  5
B8
100
AcDbEntity
100
AcDbLine
  8
0
 62
7
420
0
370
-1
  6
BYLAYER
 10
20.5050000618846653
 20
0.0000000000000284
 30
0.0
 11
0.0
 21
0.0000000000000284
 31
0.0
  0
LINE
  5
B9
100
AcDbEntity
100
AcDbLine
  8
0
 62
7
420
0
370
-1
  6
BYLAYER
 10
0.0
 20
0.0000000000000284
 30
0.0
 11
0.0
 21
17.1716667287622613
 31
0.0
  0
LINE
  5
BA
100
AcDbEntity
100
AcDbLine
  8
0
 62
7
420
0
370
-1
  6
BYLAYER
 10
0.0
 20
17.1716667287622613
 30
0.0
 11
-8.1999998092357771
 21
17.1716667287622613
 31
0.0
  0
LINE
  5
BB
100
AcDbEntity
100
AcDbLine
  8
0
 62
7
420
0
370
-1
  6
BYLAYER
 10
-8.1999998092357771
 20
17.1716667287622613
 30
0.0
 11
-8.1999998092357771
 21
37.3616667316578059
 31
0.0
  0
LINE
  5
BC
100
AcDbEntity
100
AcDbLine
  8
0
 62
7
420
0
370
-1
  6
BYLAYER
 10
-8.1999998092357771
 20
37.3616667316578059
 30
0.0
 11
0.0
 21
37.3616667316578059
 31
0.0
  0
LINE
  5
BD
100
AcDbEntity
100
AcDbLine
  8
0
 62
7
420
0
370
-1
  6
BYLAYER
 10
0.0
 20
37.3616667316578059
 30
0.0
 11
0.0
 21
62.6383332679422438
 31
0.0
  0
LINE
  5
BE
100
AcDbEntity
100
AcDbLine
  8
0
 62
7
420
0
370
-1
  6
BYLAYER
 10
0.0
 20
62.6383332679422438
 30
0.0
 11
-8.1999998092357771
 21
62.6383332679422438
 31
0.0
  0
LINE
  5
BF
100
AcDbEntity
100
AcDbLine
  8
0
 62
7
420
0
370
-1
  6
BYLAYER
 10
-8.1999998092357771
 20
62.6383332679422438
 30
0.0
 11
-8.1999998092357771
 21
82.8283332711200444
 31
0.0
  0
LINE
  5
C0
100
AcDbEntity
100
AcDbLine
  8
0
 62
7
420
0
370
-1
  6
BYLAYER
 10
-8.1999998092357771
 20
82.8283332711200444
 30
0.0
 11
0.0
 21
82.8283332711200444
 31
0.0
  0
LINE
  5
C1
100
AcDbEntity
100
AcDbLine
  8
0
 62
7
420
0
370
-1
  6
BYLAYER
 10
0.0
 20
82.8283332711200444
 30
0.0
 11
0.0
 21
99.9999999996000213
 31
0.0
  0
MTEXT
  5
C2
100
AcDbEntity
100
AcDbMText
  8
0
 62
256
370
-1
  6
BYLAYER
 10
27.8000001907802243
 20
52.5999994269200215
 30
0.0
 40
8.0
 41
0.0
 71
1
 72
1
  1
Cab Back
  7
textstyle1
 50
0.0
 73
2
 44
1.0
  0
ENDBLK
  5
C3
100
AcDbEntity
  8
0
100
AcDbBlockEnd
  0
BLOCK
  5
C4
100
AcDbEntity
  8
0
100
AcDbBlockBegin
  2
chassis_cross
 70
0
 10
0.0
 20
0.0
 30
0.0
  3
chassis_cross
  1

  0
LINE
  5
C5
100
AcDbEntity
100
AcDbLine
  8
0
 62
256
370
-1
  6
BYLAYER
 10
0.0
 20
-0.0000000000001137
 30
0.0
 11
0.0
 21
39.9999999999998863
 31
0.0
  0
LINE
  5
C6
100
AcDbEntity
100
AcDbLine
  8
0
 62
256
370
-1
  6
BYLAYER
 10
77.8964501749508145
 20
-0.0000000000001137
 30
0.0
 11
77.8964501749508145
 21
39.9999999999997726
 31
0.0
  0
LINE
  5
C7
100
AcDbEntity
100
AcDbLine
  8
0
 62
256
370
-1
  6
BYLAYER
 10
77.8964501749508145
 20
39.9999999999997726
 30
0.0
 11
0.0
 21
39.9999999999998863
 31
0.0
  0
LINE
  5
C8
100
AcDbEntity
100
AcDbLine
  8
0
 62
256
370
-1
  6
BYLAYER
 10
0.0
 20
-0.0000000000001137
 30
0.0
 11
77.8964501749508145
 21
-0.0000000000001137
 31
0.0
  0
MTEXT
  5
C9
100
AcDbEntity
100
AcDbMText
  8
0
 62
256
370
-1
  6
BYLAYER
 10
5.0
 20
34.0
 30
0.0
 40
8.0
 41
0.0
 71
1
 72
1
  1
Chassis\PCross
  7
textstyle2
 50
0.0
 73
2
 44
1.0
  0
ENDBLK
  5
CA
100
AcDbEntity
  8
0
100
AcDbBlockEnd
  0
BLOCK
  5
CB
100
AcDbEntity
  8
0
100
AcDbBlockBegin
  2
bucket_bottom
 70
0
 10
0.0
 20
0.0
 30
0.0
  3
bucket_bottom
  1

  0
LINE
  5
CC
100
AcDbEntity
100
AcDbLine
  8
0
 62
7
420
0
370
-1
  6
BYLAYER
 10
0.0
 20
166.3999996179843777
 30
0.0
 11
27.3749999251933787
 21
166.3999996179843777
 31
0.0
  0
LINE
  5
CD
100
AcDbEntity
100
AcDbLine
  8
0
 62
7
420
0
370
-1
  6
BYLAYER
 10
27.3749999251933787
 20
166.3999996179843777
 30
0.0
 11
27.3749999251933787
 21
158.1999998085512118
 31
0.0
  0
LINE
  5
CE
100
AcDbEntity
100
AcDbLine
  8
0
 62
7
420
0
370
-1
  6
BYLAYER
 10
27.3749999251933787
 20
158.1999998085512118
 30
0.0
 11
47.1849999221378766
 21
158.1999998085512118
 31
0.0
  0
LINE
  5
CF
100
AcDbEntity
100
AcDbLine
  8
0
 62
7
420
0
370
-1
  6
BYLAYER
 10
47.1849999221378766
 20
158.1999998085512118
 30
0.0
 11
47.1849999221378766
 21
166.3999996179843777
 31
0.0
  0
LINE
  5
D0
100
AcDbEntity
100
AcDbLine
  8
0
 62
7
420
0
370
-1
  6
BYLAYER
 10
47.1849999221378766
 20
166.3999996179843777
 30
0.0
 11
74.6549998489599602
 21
166.3999996179843777
 31
0.0
  0
LINE
  5
D1
100
AcDbEntity
100
AcDbLine
  8
0
 62
7
420
0
370
-1
  6
BYLAYER
 10
74.6549998489599602
 20
166.3999996179843777
 30
0.0
 11
74.6549998489599602
 21
158.1999998085512118
 31
0.0
  0
LINE
  5
D2
100
AcDbEntity
100
AcDbLine
  8
0
 62
7
420
0
370
-1
  6
BYLAYER
 10
74.6549998489599602
 20
158.1999998085512118
 30
0.0
 11
94.4649998456222875
 21
158.1999998085512118
 31
0.0
  0
LINE
  5
D3
100
AcDbEntity
100
AcDbLine
  8
0
 62
7
420
0
370
-1
  6
BYLAYER
 10
94.4649998456222875
 20
158.1999998085512118
 30
0.0
 11
94.4649998456222875
 21
166.3999996179843777
 31
0.0
  0
LINE
  5
D4
100
AcDbEntity
100
AcDbLine
  8
0
 62
7
420
0
370
-1
  6
BYLAYER
 10
94.4649998456222875
 20
166.3999996179843777
 30
0.0
 11
121.934999772444371
 21
166.3999996179843777
 31
0.0
  0
LINE
  5
D5
100
AcDbEntity
100
AcDbLine
  8
0
 62
7
420
0
370
-1
  6
BYLAYER
 10
121.934999772444371
 20
166.3999996179843777
 30
0.0
 11
121.934999772444371
 21
158.1999998085512118
 31
0.0
  0
LINE
  5
D6
100
AcDbEntity
100
AcDbLine
  8
0
 62
7
420
0
370
-1
  6
BYLAYER
 10
121.934999772444371
 20
158.1999998085512118
 30
0.0
 11
141.7449997691066983
 21
158.1999998085512118
 31
0.0
  0
LINE
  5
D7
100
AcDbEntity
100
AcDbLine
  8
0
 62
7
420
0
370
-1
  6
BYLAYER
 10
141.7449997691066983
 20
158.1999998085512118
 30
0.0
 11
141.7449997691066983
 21
166.3999996179843777
 31
0.0
  0
LINE
  5
D8
100
AcDbEntity
100
AcDbLine
  8
0
 62
7
420
0
370
-1
  6
BYLAYER
 10
141.7449997691066983
 20
166.3999996179843777
 30
0.0
 11
169.2149996945177008
 21
166.3999996179843777
 31
0.0
  0
LINE
  5
D9
100
AcDbEntity
100
AcDbLine
  8
0
 62
7
420
0
370
-1
  6
BYLAYER
 10
169.2149996945177008
 20
166.3999996179843777
 30
0.0
 11
169.2149996945177008
 21
158.1999998085512118
 31
0.0
  0
LINE
  5
DA
100
AcDbEntity
100
AcDbLine
  8
0
 62
7
420
0
370
-1
  6
BYLAYER
 10
169.2149996945177008
 20
158.1999998085512118
 30
0.0
 11
189.0249996928732799
 21
158.1999998085512118
 31
0.0
  0
LINE
  5
DB
100
AcDbEntity
100
AcDbLine
  8
0
 62
7
420
0
370
-1
  6
BYLAYER
 10
189.0249996928732799
 20
158.1999998085512118
 30
0.0
 11
189.0249996928732799
 21
166.3999996179843777
 31
0.0
  0
LINE
  5
DC
100
AcDbEntity
100
AcDbLine
  8
0
 62
7
420
0
370
-1
  6
BYLAYER
 10
189.0249996928732799
 20
166.3999996179843777
 30
0.0
 11
216.3999996177844878
 21
166.3999996179843777
 31
0.0
  0
LINE
  5
DD
100
AcDbEntity
100
AcDbLine
  8
0
 62
7
420
0
370
-1
  6
BYLAYER
 10
216.3999996177844878
 20
166.3999996179843777
 30
0.0
 11
216.3999996177844878
 21
139.7049997117290161
 31
0.0
  0
LINE
  5
DE
100
AcDbEntity
100
AcDbLine
  8
0
 62
7
420
0
370
-1
  6
BYLAYER
 10
216.3999996177844878
 20
139.7049997117290161
 30
0.0
 11
208.1999998097621756
 21
139.7049997117290161
 31
0.0
  0
LINE
  5
DF
100
AcDbEntity
100
AcDbLine
  8
0
 62
7
420
0
370
-1
  6
BYLAYER
 10
208.1999998097621756
 20
139.7049997117290161
 30
0.0
 11
208.1999998097621756
 21
119.8949997150666889
 31
0.0
  0
LINE
  5
E0
100
AcDbEntity
100
AcDbLine
  8
0
 62
7
420
0
370
-1
  6
BYLAYER
 10
208.1999998097621756
 20
119.8949997150666889
 30
0.0
 11
216.3999996177844878
 21
119.8949997150666889
 31
0.0
  0
LINE
  5
E1
100
AcDbEntity
100
AcDbLine
  8
0
 62
7
420
0
370
-1
  6
BYLAYER
 10
216.3999996177844878
 20
119.8949997150666889
 30
0.0
 11
216.3999996177844878
 21
93.1049998071821676
 31
0.0
  0
LINE
  5
E2
100
AcDbEntity
100
AcDbLine
  8
0
 62
7
420
0
370
-1
  6
BYLAYER
 10
216.3999996177844878
 20
93.1049998071821676
 30
0.0
 11
208.1999998097621756
 21
93.1049998071821676
 31
0.0
  0
LINE
  5
E3
100
AcDbEntity
100
AcDbLine
  8
0
 62
7
420
0
370
-1
  6
BYLAYER
 10
208.1999998097621756
 20
93.1049998071821676
 30
0.0
 11
208.1999998097621756
 21
73.2949998105200677
 31
0.0
  0
LINE
  5
E4
100
AcDbEntity
100
AcDbLine
  8
0
 62
7
420
0
370
-1
  6
BYLAYER
 10
208.1999998097621756
 20
73.2949998105200677
 30
0.0
 11
216.3999996177844878
 21
73.2949998105200677
 31
0.0
  0
LINE
  5
E5
100
AcDbEntity
100
AcDbLine
  8
0
 62
7
420
0
370
-1
  6
BYLAYER
 10
216.3999996177844878
 20
73.2949998105200677
 30
0.0
 11
216.3999996177844878
 21
46.5049999029177172
 31
0.0
  0
LINE
  5
E6
100
AcDbEntity
100
AcDbLine
  8
0
 62
7
420
0
370
-1
  6
BYLAYER
 10
216.3999996177844878
 20
46.5049999029177172
 30
0.0
 11
208.1999998097621756
 21
46.5049999029177172
 31
0.0
  0
LINE
  5
E7
100
AcDbEntity
100
AcDbLine
  8
0
 62
7
420
0
370
-1
  6
BYLAYER
 10
208.1999998097621756
 20
46.5049999029177172
 30
0.0
 11
208.1999998097621756
 21
26.6949999062556174
 31
0.0
  0
LINE
  5
E8
100
AcDbEntity
100
AcDbLine
  8
0
 62
7
420
0
370
-1
  6
BYLAYER
 10
208.1999998097621756
 20
26.6949999062556174
 30
0.0
 11
216.3999996177844878
 21
26.6949999062556174
 31
0.0
  0
LINE
  5
E9
100
AcDbEntity
100
AcDbLine
  8
0
 62
7
420
0
370
-1
  6
BYLAYER
 10
216.3999996177844878
 20
26.6949999062556174
 30
0.0
 11
216.3999996177844878
 21
0.0000000000000284
 31
0.0
  0
LINE
  5
EA
100
AcDbEntity
100
AcDbLine
  8
0
 62
7
420
0
370
-1
  6
BYLAYER
 10
216.3999996177844878
 20
0.0000000000000284
 30
0.0
 11
189.0249996928732799
 21
0.0000000000000284
 31
0.0
  0
LINE
  5
EB
100
AcDbEntity
100
AcDbLine
  8
0
 62
7
420
0
370
-1
  6
BYLAYER
 10
189.0249996928732799
 20
0.0000000000000284
 30
0.0
 11
189.0249996928732799
 21
8.1999998080223406
 31
0.0
  0
LINE
  5
EC
100
AcDbEntity
100
AcDbLine
  8
0
 62
7
420
0
370
-1
  6
BYLAYER
 10
189.0249996928732799
 20
8.1999998080223406
 30
0.0
 11
169.2149996945177008
 21
8.1999998080223406
 31
0.0
  0
LINE
  5
ED
100
AcDbEntity
100
AcDbLine
  8
0
 62
7
420
0
370
-1
  6
BYLAYER
 10
169.2149996945177008
 20
8.1999998080223406
 30
0.0
 11
169.2149996945177008
 21
0.0000000000000284
 31
0.0
  0
LINE
  5
EE
100
AcDbEntity
100
AcDbLine
  8
0
 62
7
420
0
370
-1
  6
BYLAYER
 10
169.2149996945177008
 20
0.0000000000000284
 30
0.0
 11
141.7449997691066983
 21
0.0000000000000284
 31
0.0
  0
LINE
  5
EF
100
AcDbEntity
100
AcDbLine
  8
0
 62
7
420
0
370
-1
  6
BYLAYER
 10
141.7449997691066983
 20
0.0000000000000284
 30
0.0
 11
141.7449997691066983
 21
8.1999998080223406
 31
0.0
  0
LINE
  5
F0
100
AcDbEntity
100
AcDbLine
  8
0
 62
7
420
0
370
-1
  6
BYLAYER
 10
141.7449997691066983
 20
8.1999998080223406
 30
0.0
 11
121.934999772444371
 21
8.1999998080223406
 31
0.0
  0
LINE
  5
F1
100
AcDbEntity
100
AcDbLine
  8
0
 62
7
420
0
370
-1
  6
BYLAYER
 10
121.934999772444371
 20
8.1999998080223406
 30
0.0
 11
121.934999772444371
 21
0.0000000000000284
 31
0.0
  0
LINE
  5
F2
100
AcDbEntity
100
AcDbLine
  8
0
 62
7
420
0
370
-1
  6
BYLAYER
 10
121.934999772444371
 20
0.0000000000000284
 30
0.0
 11
94.4649998456222875
 21
0.0000000000000284
 31
0.0
  0
LINE
  5
F3
100
AcDbEntity
100
AcDbLine
  8
0
 62
7
420
0
370
-1
  6
BYLAYER
 10
94.4649998456222875
 20
0.0000000000000284
 30
0.0
 11
94.4649998456222875
 21
8.1999998080223406
 31
0.0
  0
LINE
  5
F4
100
AcDbEntity
100
AcDbLine
  8
0
 62
7
420
0
370
-1
  6
BYLAYER
 10
94.4649998456222875
 20
8.1999998080223406
 30
0.0
 11
74.6549998489599602
 21
8.1999998080223406
 31
0.0
  0
LINE
  5
F5
100
AcDbEntity
100
AcDbLine
  8
0
 62
7
420
0
370
-1
  6
BYLAYER
 10
74.6549998489599602
 20
8.1999998080223406
 30
0.0
 11
74.6549998489599602
 21
0.0000000000000284
 31
0.0
  0
LINE
  5
F6
100
AcDbEntity
100
AcDbLine
  8
0
 62
7
420
0
370
-1
  6
BYLAYER
 10
74.6549998489599602
 20
0.0000000000000284
 30
0.0
 11
47.1849999221378766
 21
0.0000000000000284
 31
0.0
  0
LINE
  5
F7
100
AcDbEntity
100
AcDbLine
  8
0
 62
7
420
0
370
-1
  6
BYLAYER
 10
47.1849999221378766
 20
0.0000000000000284
 30
0.0
 11
47.1849999221378766
 21
8.1999998080223406
 31
0.0
  0
LINE
  5
F8
100
AcDbEntity
100
AcDbLine
  8
0
 62
7
420
0
370
-1
  6
BYLAYER
 10
47.1849999221378766
 20
8.1999998080223406
 30
0.0
 11
27.3749999251933787
 21
8.1999998080223406
 31
0.0
  0
LINE
  5
F9
100
AcDbEntity
100
AcDbLine
  8
0
 62
7
420
0
370
-1
  6
BYLAYER
 10
27.3749999251933787
 20
8.1999998080223406
 30
0.0
 11
27.3749999251933787
 21
0.0000000000000284
 31
0.0
  0
LINE
  5
FA
100
AcDbEntity
100
AcDbLine
  8
0
 62
7
420
0
370
-1
  6
BYLAYER
 10
27.3749999251933787
 20
0.0000000000000284
 30
0.0
 11
0.0
 21
0.0000000000000284
 31
0.0
  0
LINE
  5
FB
100
AcDbEntity
100
AcDbLine
  8
0
 62
7
420
0
370
-1
  6
BYLAYER
 10
0.0
 20
0.0000000000000284
 30
0.0
 11
0.0
 21
166.3999996179843777
 31
0.0
  0
ENDBLK
  5
FC
100
AcDbEntity
  8
0
100
AcDbBlockEnd
  0
BLOCK
  5
FD
100
AcDbEntity
  8
0
100
AcDbBlockBegin
  2
bucket_lift
 70
0
 10
0.0
 20
0.0
 30
0.0
  3
bucket_lift
  1

  0
LINE
  5
FE
100
AcDbEntity
100
AcDbLine
  8
0
 62
256
370
-1
  6
BYLAYER
 10
-160.0
 20
0.0000000000000568
 30
0.0
 11
0.0
 21
0.0000000000000568
 31
0.0
  0
LINE
  5
FF
100
AcDbEntity
100
AcDbLine
  8
0
 62
256
370
-1
  6
BYLAYER
 10
0.0
 20
0.0000000000000568
 30
0.0
 11
0.0
 21
55.0000000000000568
 31
0.0
  0
LINE
  5
100
100
AcDbEntity
100
AcDbLine
  8
0
 62
256
370
-1
  6
BYLAYER
 10
0.0
 20
55.0000000000000568
 30
0.0
 11
-200.0
 21
55.0000000000000568
 31
0.0
  0
LINE
  5
101
100
AcDbEntity
100
AcDbLine
  8
0
 62
256
370
-1
  6
BYLAYER
 10
-200.0
 20
55.0000000000000568
 30
0.0
 11
-200.0
 21
20.0000000000000568
 31
0.0
  0
LINE
  5
102
100
AcDbEntity
100
AcDbLine
  8
0
 62
256
370
-1
  6
BYLAYER
 10
-160.0
 20
0.0000000000000568
 30
0.0
 11
-200.0
 21
20.0000000000000568
 31
0.0
  0
MTEXT
  5
103
100
AcDbEntity
100
AcDbMText
  8
0
 62
256
370
-1
  6
BYLAYER
 10
-135.2709275108491056
 20
38.9509617887366062
 30
0.0
 40
8.0
 41
0.0
 71
1
 72
1
  1
Bucket Lift\P(36mm / 1.5" thick)
  7
textstyle3
 50
0.0
 73
2
 44
1.0
  0
CIRCLE
  5
104
100
AcDbEntity
100
AcDbCircle
  8
0
 62
256
370
-1
  6
BYLAYER
 10
-160.0
 20
10.0000000000000568
 30
0.0
 40
3.2000000000000002
  0
ENDBLK
  5
105
100
AcDbEntity
  8
0
100
AcDbBlockEnd
  0
BLOCK
  5
106
100
AcDbEntity
  8
0
100
AcDbBlockBegin
  2
cab_bottom
 70
0
 10
0.0
 20
0.0
 30
0.0
  3
cab_bottom
  1

  0
LINE
  5
107
100
AcDbEntity
100
AcDbLine
  8
0
 62
7
420
0
370
-1
  6
BYLAYER
 10
0.0
 20
116.3999996181844381
 30
0.0
 11
26.6949999062555605
 21
116.3999996181844381
 31
0.0
  0
LINE
  5
108
100
AcDbEntity
100
AcDbLine
  8
0
 62
7
420
0
370
-1
  6
BYLAYER
 10
26.6949999062555605
 20
116.3999996181844381
 30
0.0
 11
26.6949999062555605
 21
108.1999998087511017
 31
0.0
  0
LINE
  5
109
100
AcDbEntity
100
AcDbLine
  8
0
 62
7
420
0
370
-1
  6
BYLAYER
 10
26.6949999062555605
 20
108.1999998087511017
 30
0.0
 11
46.5049999029177741
 21
108.1999998087511017
 31
0.0
  0
LINE
  5
10A
100
AcDbEntity
100
AcDbLine
  8
0
 62
7
420
0
370
-1
  6
BYLAYER
 10
46.5049999029177741
 20
108.1999998087511017
 30
0.0
 11
46.5049999029177741
 21
116.3999996181844381
 31
0.0
  0
LINE
  5
10B
100
AcDbEntity
100
AcDbLine
  8
0
 62
7
420
0
370
-1
  6
BYLAYER
 10
46.5049999029177741
 20
116.3999996181844381
 30
0.0
 11
73.29499981080221
 21
116.3999996181844381
 31
0.0
  0
LINE
  5
10C
100
AcDbEntity
100
AcDbLine
  8
0
 62
7
420
0
370
-1
  6
BYLAYER
 10
73.29499981080221
 20
116.3999996181844381
 30
0.0
 11
73.29499981080221
 21
108.1999998087511017
 31
0.0
  0
LINE
  5
10D
100
AcDbEntity
100
AcDbLine
  8
0
 62
7
420
0
370
-1
  6
BYLAYER
 10
73.29499981080221
 20
108.1999998087511017
 30
0.0
 11
93.1049998074644236
 21
108.1999998087511017
 31
0.0
  0
LINE
  5
10E
100
AcDbEntity
100
AcDbLine
  8
0
 62
7
420
0
370
-1
  6
BYLAYER
 10
93.1049998074644236
 20
108.1999998087511017
 30
0.0
 11
93.1049998074644236
 21
116.3999996181844381
 31
0.0
  0
LINE
  5
10F
100
AcDbEntity
100
AcDbLine
  8
0
 62
7
420
0
370
-1
  6
BYLAYER
 10
93.1049998074644236
 20
116.3999996181844381
 30
0.0
 11
119.8949997150666604
 21
116.3999996181844381
 31
0.0
  0
LINE
  5
110
100
AcDbEntity
100
AcDbLine
  8
0
 62
7
420
0
370
-1
  6
BYLAYER
 10
119.8949997150666604
 20
116.3999996181844381
 30
0.0
 11
119.8949997150666604
 21
108.1999998087511017
 31
0.0
  0
LINE
  5
111
100
AcDbEntity
100
AcDbLine
  8
0
 62
7
420
0
370
-1
  6
BYLAYER
 10
119.8949997150666604
 20
108.1999998087511017
 30
0.0
 11
139.7049997117289024
 21
108.1999998087511017
 31
0.0
  0
LINE
  5
112
100
AcDbEntity
100
AcDbLine
  8
0
 62
7
420
0
370
-1
  6
BYLAYER
 10
139.7049997117289024
 20
108.1999998087511017
 30
0.0
 11
139.7049997117289024
 21
116.3999996181844381
 31
0.0
  0
LINE
  5
113
100
AcDbEntity
100
AcDbLine
  8
0
 62
7
420
0
370
-1
  6
BYLAYER
 10
139.7049997117289024
 20
116.3999996181844381
 30
0.0
 11
166.3999996191133448
 21
116.3999996181844381
 31
0.0
  0
LINE
  5
114
100
AcDbEntity
100
AcDbLine
  8
0
 62
7
420
0
370
-1
  6
BYLAYER
 10
166.3999996191133448
 20
116.3999996181844381
 30
0.0
 11
166.3999996191133448
 21
90.8383330770133171
 31
0.0
  0
LINE
  5
115
100
AcDbEntity
100
AcDbLine
  8
0
 62
7
420
0
370
-1
  6
BYLAYER
 10
166.3999996191133448
 20
90.8383330770133171
 30
0.0
 11
158.1999998082689274
 21
90.8383330770133171
 31
0.0
  0
LINE
  5
116
100
AcDbEntity
100
AcDbLine
  8
0
 62
7
420
0
370
-1
  6
BYLAYER
 10
158.1999998082689274
 20
90.8383330770133171
 30
0.0
 11
158.1999998082689274
 21
71.0283330803511035
 31
0.0
  0
LINE
  5
117
100
AcDbEntity
100
AcDbLine
  8
0
 62
7
420
0
370
-1
  6
BYLAYER
 10
158.1999998082689274
 20
71.0283330803511035
 30
0.0
 11
166.3999996191133448
 21
71.0283330803511035
 31
0.0
  0
LINE
  5
118
100
AcDbEntity
100
AcDbLine
  8
0
 62
7
420
0
370
-1
  6
BYLAYER
 10
166.3999996191133448
 20
71.0283330803511035
 30
0.0
 11
166.3999996191133448
 21
45.3716665378333346
 31
0.0
  0
LINE
  5
119
100
AcDbEntity
100
AcDbLine
  8
0
 62
7
420
0
370
-1
  6
BYLAYER
 10
166.3999996191133448
 20
45.3716665378333346
 30
0.0
 11
158.1999998082689274
 21
45.3716665378333346
 31
0.0
  0
LINE
  5
11A
100
AcDbEntity
100
AcDbLine
  8
0
 62
7
420
0
370
-1
  6
BYLAYER
 10
158.1999998082689274
 20
45.3716665378333346
 30
0.0
 11
158.1999998082689274
 21
25.5616665408888935
 31
0.0
  0
LINE
  5
11B
100
AcDbEntity
100
AcDbLine
  8
0
 62
7
420
0
370
-1
  6
BYLAYER
 10
158.1999998082689274
 20
25.5616665408888935
 30
0.0
 11
166.3999996191133448
 21
25.5616665408888935
 31
0.0
  0
LINE
  5
11C
100
AcDbEntity
100
AcDbLine
  8
0
 62
7
420
0
370
-1
  6
BYLAYER
 10
166.3999996191133448
 20
25.5616665408888935
 30
0.0
 11
166.3999996191133448
 21
0.0
 31
0.0
  0
LINE
  5
11D
100
AcDbEntity
100
AcDbLine
  8
0
 62
7
420
0
370
-1
  6
BYLAYER
 10
166.3999996191133448
 20
0.0
 30
0.0
 11
139.7049997117289024
 21
0.0
 31
0.0
  0
LINE
  5
11E
100
AcDbEntity
100
AcDbLine
  8
0
 62
7
420
0
370
-1
  6
BYLAYER
 10
139.7049997117289024
 20
0.0
 30
0.0
 11
139.7049997117289024
 21
8.1999998091511088
 31
0.0
  0
LINE
  5
11F
100
AcDbEntity
100
AcDbLine
  8
0
 62
7
420
0
370
-1
  6
BYLAYER
 10
139.7049997117289024
 20
8.1999998091511088
 30
0.0
 11
119.8949997150666604
 21
8.1999998091511088
 31
0.0
  0
LINE
  5
120
100
AcDbEntity
100
AcDbLine
  8
0
 62
7
420
0
370
-1
  6
BYLAYER
 10
119.8949997150666604
 20
8.1999998091511088
 30
0.0
 11
119.8949997150666604
 21
0.0
 31
0.0
  0
LINE
  5
121
100
AcDbEntity
100
AcDbLine
  8
0
 62
7
420
0
370
-1
  6
BYLAYER
 10
119.8949997150666604
 20
0.0
 30
0.0
 11
93.1049998074644236
 21
0.0
 31
0.0
  0
LINE
  5
122
100
AcDbEntity
100
AcDbLine
  8
0
 62
7
420
0
370
-1
  6
BYLAYER
 10
93.1049998074644236
 20
0.0
 30
0.0
 11
93.1049998074644236
 21
8.1999998091511088
 31
0.0
  0
LINE
  5
123
100
AcDbEntity
100
AcDbLine
  8
0
 62
7
420
0
370
-1
  6
BYLAYER
 10
93.1049998074644236
 20
8.1999998091511088
 30
0.0
 11
73.29499981080221
 21
8.1999998091511088
 31
0.0
  0
LINE
  5
124
100
AcDbEntity
100
AcDbLine
  8
0
 62
7
420
0
370
-1
  6
BYLAYER
 10
73.29499981080221
 20
8.1999998091511088
 30
0.0
 11
73.29499981080221
 21
0.0
 31
0.0
  0
LINE
  5
125
100
AcDbEntity
100
AcDbLine
  8
0
 62
7
420
0
370
-1
  6
BYLAYER
 10
73.29499981080221
 20
0.0
 30
0.0
 11
46.5049999029177741
 21
0.0
 31
0.0
  0
LINE
  5
126
100
AcDbEntity
100
AcDbLine
  8
0
 62
7
420
0
370
-1
  6
BYLAYER
 10
46.5049999029177741
 20
0.0
 30
0.0
 11
46.5049999029177741
 21
8.1999998091511088
 31
0.0
  0
LINE
  5
127
100
AcDbEntity
100
AcDbLine
  8
0
 62
7
420
0
370
-1
  6
BYLAYER
 10
46.5049999029177741
 20
8.1999998091511088
 30
0.0
 11
26.6949999062555605
 21
8.1999998091511088
 31
0.0
  0
LINE
  5
128
100
AcDbEntity
100
AcDbLine
  8
0
 62
7
420
0
370
-1
  6
BYLAYER
 10
26.6949999062555605
 20
8.1999998091511088
 30
0.0
 11
26.6949999062555605
 21
0.0
 31
0.0
  0
LINE
  5
129
100
AcDbEntity
100
AcDbLine
  8
0
 62
7
420
0
370
-1
  6
BYLAYER
 10
26.6949999062555605
 20
0.0
 30
0.0
 11
0.0
 21
0.0
 31
0.0
  0
LINE
  5
12A
100
AcDbEntity
100
AcDbLine
  8
0
 62
7
420
0
370
-1
  6
BYLAYER
 10
0.0
 20
0.0
 30
0.0
 11
0.0
 21
25.5616665408888935
 31
0.0
  0
LINE
  5
12B
100
AcDbEntity
100
AcDbLine
  8
0
 62
7
420
0
370
-1
  6
BYLAYER
 10
0.0
 20
25.5616665408888935
 30
0.0
 11
8.1999998094333364
 21
25.5616665408888935
 31
0.0
  0
LINE
  5
12C
100
AcDbEntity
100
AcDbLine
  8
0
 62
7
420
0
370
-1
  6
BYLAYER
 10
8.1999998094333364
 20
25.5616665408888935
 30
0.0
 11
8.1999998094333364
 21
45.3716665378333346
 31
0.0
  0
LINE
  5
12D
100
AcDbEntity
100
AcDbLine
  8
0
 62
7
420
0
370
-1
  6
BYLAYER
 10
8.1999998094333364
 20
45.3716665378333346
 30
0.0
 11
0.0
 21
45.3716665378333346
 31
0.0
  0
LINE
  5
12E
100
AcDbEntity
100
AcDbLine
  8
0
 62
7
420
0
370
-1
  6
BYLAYER
 10
0.0
 20
45.3716665378333346
 30
0.0
 11
0.0
 21
71.0283330803511035
 31
0.0
  0
LINE
  5
12F
100
AcDbEntity
100
AcDbLine
  8
0
 62
7
420
0
370
-1
  6
BYLAYER
 10
0.0
 20
71.0283330803511035
 30
0.0
 11
8.1999998094333364
 21
71.0283330803511035
 31
0.0
  0
LINE
  5
130
100
AcDbEntity
100
AcDbLine
  8
0
 62
7
420
0
370
-1
  6
BYLAYER
 10
8.1999998094333364
 20
71.0283330803511035
 30
0.0
 11
8.1999998094333364
 21
90.8383330770133171
 31
0.0
  0
LINE
  5
131
100
AcDbEntity
100
AcDbLine
  8
0
 62
7
420
0
370
-1
  6
BYLAYER
 10
8.1999998094333364
 20
90.8383330770133171
 30
0.0
 11
0.0
 21
90.8383330770133171
 31
0.0
  0
LINE
  5
132
100
AcDbEntity
100
AcDbLine
  8
0
 62
7
420
0
370
-1
  6
BYLAYER
 10
0.0
 20
90.8383330770133171
 30
0.0
 11
0.0
 21
116.3999996181844381
 31
0.0
  0
MTEXT
  5
133
100
AcDbEntity
100
AcDbMText
  8
0
 62
256
370
-1
  6
BYLAYER
 10
45.6000003821133362
 20
60.7999992360711019
 30
0.0
 40
8.0
 41
0.0
 71
1
 72
1
  1
Cab Bottom
  7
textstyle4
 50
0.0
 73
2
 44
1.0
  0
ENDBLK
  5
134
100
AcDbEntity
  8
0
100
AcDbBlockEnd
  0
BLOCK
  5
135
100
AcDbEntity
  8
0
100
AcDbBlockBegin
  2
chassis
 70
0
 10
0.0
 20
0.0
 30
0.0
  3
chassis
  1

  0
LINE
  5
136
100
AcDbEntity
100
AcDbLine
  8
0
 62
256
370
-1
  6
BYLAYER
 10
-300.0
 20
0.0
 30
0.0
 11
-10.0
 21
0.0
 31
0.0
  0
LINE
  5
137
100
AcDbEntity
100
AcDbLine
  8
0
 62
256
370
-1
  6
BYLAYER
 10
50.0
 20
55.0
 30
0.0
 11
-300.0
 21
55.0
 31
0.0
  0
LINE
  5
138
100
AcDbEntity
100
AcDbLine
  8
0
 62
256
370
-1
  6
BYLAYER
 10
-300.0
 20
55.0
 30
0.0
 11
-300.0
 21
0.0
 31
0.0
  0
MTEXT
  5
139
100
AcDbEntity
100
AcDbMText
  8
0
 62
256
370
-1
  6
BYLAYER
 10
-224.7977471970709757
 20
39.1593316098322362
 30
0.0
 40
8.0
 41
0.0
 71
1
 72
1
  1
Chassis (2x 18mm / 3/4" thick)
  7
textstyle5
 50
0.0
 73
2
 44
1.0
  0
LINE
  5
13A
100
AcDbEntity
100
AcDbLine
  8
0
 62
256
370
-1
  6
BYLAYER
 10
50.0
 20
55.0
 30
0.0
 11
50.0
 21
30.0
 31
0.0
  0
LINE
  5
13B
100
AcDbEntity
100
AcDbLine
  8
0
 62
256
370
-1
  6
BYLAYER
 10
50.0
 20
0.0
 30
0.0
 11
50.0
 21
0.0
 31
0.0
  0
LINE
  5
13C
100
AcDbEntity
100
AcDbLine
  8
0
 62
256
370
-1
  6
BYLAYER
 10
-10.0
 20
0.0
 30
0.0
 11
50.0000000000000071
 21
30.0
 31
0.0
  0
CIRCLE
  5
13D
100
AcDbEntity
100
AcDbCircle
  8
0
 62
256
370
-1
  6
BYLAYER
 10
-270.0
 20
30.0
 30
0.0
 40
3.2000000000000002
  0
CIRCLE
  5
13E
100
AcDbEntity
100
AcDbCircle
  8
0
 62
256
370
-1
  6
BYLAYER
 10
-250.0
 20
15.0
 30
0.0
 40
3.2000000000000002
  0
CIRCLE
  5
13F
100
AcDbEntity
100
AcDbCircle
  8
0
 62
256
370
-1
  6
BYLAYER
 10
-20.0
 20
15.0
 30
0.0
 40
3.2000000000000002
  0
ENDBLK
  5
140
100
AcDbEntity
  8
0
100
AcDbBlockEnd
  0
BLOCK
  5
141
100
AcDbEntity
  8
0
100
AcDbBlockBegin
  2
cab_side
 70
0
 10
0.0
 20
0.0
 30
0.0
  3
cab_side
  1

  0
ARC
  5
142
100
AcDbEntity
  8
0
 62
256
370
-1
  6
BYLAYER
100
AcDbCircle
 10
49.004999902998037
 20
89.300000190848877
 30
0.0
 40
11.25
100
AcDbArc
 50
90.0
 51
180.0
  0
ARC
  5
143
100
AcDbEntity
  8
0
 62
256
370
-1
  6
BYLAYER
100
AcDbCircle
 10
97.4446404143796769
 20
89.300000190848877
 30
0.0
 40
11.25
100
AcDbArc
 50
9.4623222080257658
 51
90.0
  0
ARC
  5
144
100
AcDbEntity
  8
0
 62
256
370
-1
  6
BYLAYER
100
AcDbCircle
 10
101.8196404143799043
 20
63.050000190848877
 30
0.0
 40
11.25
100
AcDbArc
 50
270.0
 51
9.4623222080258422
  0
ARC
  5
145
100
AcDbEntity
  8
0
 62
256
370
-1
  6
BYLAYER
100
AcDbCircle
 10
49.004999902998037
 20
63.050000190848877
 30
0.0
 40
11.25
100
AcDbArc
 50
180.0
 51
270.0
  0
LINE
  5
146
100
AcDbEntity
100
AcDbLine
  8
0
 62
256
370
-1
  6
BYLAYER
 10
112.9165720574911518
 20
64.8994887980339712
 30
0.0
 11
108.5415720574913792
 21
91.1494887980341986
 31
0.0
  0
LINE
  5
147
100
AcDbEntity
100
AcDbLine
  8
0
 62
256
370
-1
  6
BYLAYER
 10
97.4446404143796769
 20
100.550000190848877
 30
0.0
 11
49.004999902998037
 21
100.550000190848877
 31
0.0
  0
LINE
  5
148
100
AcDbEntity
100
AcDbLine
  8
0
 62
256
370
-1
  6
BYLAYER
 10
126.4199619269489574
 20
52.3102280471433545
 30
0.0
 11
116.8049999348654069
 21
109.9999999996446718
 31
0.0
  0
LINE
  5
149
100
AcDbEntity
100
AcDbLine
  8
0
 62
256
370
-1
  6
BYLAYER
 10
37.754999902998037
 20
89.300000190848877
 30
0.0
 11
37.754999902998037
 21
63.050000190848877
 31
0.0
  0
LINE
  5
14A
100
AcDbEntity
100
AcDbLine
  8
0
 62
256
370
-1
  6
BYLAYER
 10
49.004999902998037
 20
51.800000190848877
 30
0.0
 11
101.8196404143799043
 21
51.800000190848877
 31
0.0
  0
LINE
  5
14B
100
AcDbEntity
100
AcDbLine
  8
0
 62
256
370
-1
  6
BYLAYER
 10
126.4199619269491848
 20
52.3102280471433545
 30
0.0
 11
166.3999996191133448
 21
49.3261435155986021
 31
0.0
  0
LINE
  5
14C
100
AcDbEntity
100
AcDbLine
  8
0
 62
7
420
0
370
-1
  6
BYLAYER
 10
0.0
 20
109.9999999996446718
 30
0.0
 11
26.5049999029977528
 21
109.9999999996446718
 31
0.0
  0
LINE
  5
14D
100
AcDbEntity
100
AcDbLine
  8
0
 62
7
420
0
370
-1
  6
BYLAYER
 10
26.5049999029977528
 20
109.9999999996446718
 30
0.0
 11
26.5049999029977528
 21
118.1999998088804489
 31
0.0
  0
LINE
  5
14E
100
AcDbEntity
100
AcDbLine
  8
0
 62
7
420
0
370
-1
  6
BYLAYER
 10
26.5049999029977528
 20
118.1999998088804489
 30
0.0
 11
46.6949999061755534
 21
118.1999998088804489
 31
0.0
  0
LINE
  5
14F
100
AcDbEntity
100
AcDbLine
  8
0
 62
7
420
0
370
-1
  6
BYLAYER
 10
46.6949999061755534
 20
118.1999998088804489
 30
0.0
 11
46.6949999061755534
 21
109.9999999996446718
 31
0.0
  0
LINE
  5
150
100
AcDbEntity
100
AcDbLine
  8
0
 62
7
420
0
370
-1
  6
BYLAYER
 10
46.6949999061755534
 20
109.9999999996446718
 30
0.0
 11
73.1049998075444307
 21
109.9999999996446718
 31
0.0
  0
LINE
  5
151
100
AcDbEntity
100
AcDbLine
  8
0
 62
7
420
0
370
-1
  6
BYLAYER
 10
73.1049998075444307
 20
109.9999999996446718
 30
0.0
 11
73.1049998075444307
 21
118.1999998088804489
 31
0.0
  0
LINE
  5
152
100
AcDbEntity
100
AcDbLine
  8
0
 62
7
420
0
370
-1
  6
BYLAYER
 10
73.1049998075444307
 20
118.1999998088804489
 30
0.0
 11
93.2949998107222029
 21
118.1999998088804489
 31
0.0
  0
LINE
  5
153
100
AcDbEntity
100
AcDbLine
  8
0
 62
7
420
0
370
-1
  6
BYLAYER
 10
93.2949998107222029
 20
118.1999998088804489
 30
0.0
 11
93.2949998107222029
 21
109.9999999996446718
 31
0.0
  0
LINE
  5
154
100
AcDbEntity
100
AcDbLine
  8
0
 62
7
420
0
370
-1
  6
BYLAYER
 10
93.2949998107222029
 20
109.9999999996446718
 30
0.0
 11
116.80499993486535
 21
109.9999999996446718
 31
0.0
  0
LINE
  5
155
100
AcDbEntity
100
AcDbLine
  8
0
 62
7
420
0
370
-1
  6
BYLAYER
 10
166.3999996191133448
 20
49.3261435155986021
 30
0.0
 11
166.3999996191133448
 21
40.5050000620022246
 31
0.0
  0
LINE
  5
156
100
AcDbEntity
100
AcDbLine
  8
0
 62
7
420
0
370
-1
  6
BYLAYER
 10
166.3999996191133448
 20
40.5050000620022246
 30
0.0
 11
158.1999998082689274
 21
40.5050000620022246
 31
0.0
  0
LINE
  5
157
100
AcDbEntity
100
AcDbLine
  8
0
 62
7
420
0
370
-1
  6
BYLAYER
 10
158.1999998082689274
 20
40.5050000620022246
 30
0.0
 11
158.1999998082689274
 21
20.6950000650577834
 31
0.0
  0
LINE
  5
158
100
AcDbEntity
100
AcDbLine
  8
0
 62
7
420
0
370
-1
  6
BYLAYER
 10
158.1999998082689274
 20
20.6950000650577834
 30
0.0
 11
166.3999996191133448
 21
20.6950000650577834
 31
0.0
  0
LINE
  5
159
100
AcDbEntity
100
AcDbLine
  8
0
 62
7
420
0
370
-1
  6
BYLAYER
 10
166.3999996191133448
 20
20.6950000650577834
 30
0.0
 11
166.3999996191133448
 21
0.0000000000000142
 31
0.0
  0
LINE
  5
15A
100
AcDbEntity
100
AcDbLine
  8
0
 62
7
420
0
370
-1
  6
BYLAYER
 10
166.3999996191133448
 20
0.0000000000000142
 30
0.0
 11
139.8949997149866533
 21
0.0000000000000142
 31
0.0
  0
LINE
  5
15B
100
AcDbEntity
100
AcDbLine
  8
0
 62
7
420
0
370
-1
  6
BYLAYER
 10
139.8949997149866533
 20
0.0000000000000142
 30
0.0
 11
139.8949997149866533
 21
-8.1999998091511088
 31
0.0
  0
LINE
  5
15C
100
AcDbEntity
100
AcDbLine
  8
0
 62
7
420
0
370
-1
  6
BYLAYER
 10
139.8949997149866533
 20
-8.1999998091511088
 30
0.0
 11
119.7049997118088811
 21
-8.1999998091511088
 31
0.0
  0
LINE
  5
15D
100
AcDbEntity
100
AcDbLine
  8
0
 62
7
420
0
370
-1
  6
BYLAYER
 10
119.7049997118088811
 20
-8.1999998091511088
 30
0.0
 11
119.7049997118088811
 21
0.0000000000000142
 31
0.0
  0
LINE
  5
15E
100
AcDbEntity
100
AcDbLine
  8
0
 62
7
420
0
370
-1
  6
BYLAYER
 10
119.7049997118088811
 20
0.0000000000000142
 30
0.0
 11
93.2949998107222029
 21
0.0000000000000142
 31
0.0
  0
LINE
  5
15F
100
AcDbEntity
100
AcDbLine
  8
0
 62
7
420
0
370
-1
  6
BYLAYER
 10
93.2949998107222029
 20
0.0000000000000142
 30
0.0
 11
93.2949998107222029
 21
-8.1999998091511088
 31
0.0
  0
LINE
  5
160
100
AcDbEntity
100
AcDbLine
  8
0
 62
7
420
0
370
-1
  6
BYLAYER
 10
93.2949998107222029
 20
-8.1999998091511088
 30
0.0
 11
73.1049998075444307
 21
-8.1999998091511088
 31
0.0
  0
LINE
  5
161
100
AcDbEntity
100
AcDbLine
  8
0
 62
7
420
0
370
-1
  6
BYLAYER
 10
73.1049998075444307
 20
-8.1999998091511088
 30
0.0
 11
73.1049998075444307
 21
0.0000000000000142
 31
0.0
  0
LINE
  5
162
100
AcDbEntity
100
AcDbLine
  8
0
 62
7
420
0
370
-1
  6
BYLAYER
 10
73.1049998075444307
 20
0.0000000000000142
 30
0.0
 11
46.6949999061755534
 21
0.0000000000000142
 31
0.0
  0
LINE
  5
163
100
AcDbEntity
100
AcDbLine
  8
0
 62
7
420
0
370
-1
  6
BYLAYER
 10
46.6949999061755534
 20
0.0000000000000142
 30
0.0
 11
46.6949999061755534
 21
-8.1999998091511088
 31
0.0
  0
LINE
  5
164
100
AcDbEntity
100
AcDbLine
  8
0
 62
7
420
0
370
-1
  6
BYLAYER
 10
46.6949999061755534
 20
-8.1999998091511088
 30
0.0
 11
26.5049999029977528
 21
-8.1999998091511088
 31
0.0
  0
LINE
  5
165
100
AcDbEntity
100
AcDbLine
  8
0
 62
7
420
0
370
-1
  6
BYLAYER
 10
26.5049999029977528
 20
-8.1999998091511088
 30
0.0
 11
26.5049999029977528
 21
0.0000000000000142
 31
0.0
  0
LINE
  5
166
100
AcDbEntity
100
AcDbLine
  8
0
 62
7
420
0
370
-1
  6
BYLAYER
 10
26.5049999029977528
 20
0.0000000000000142
 30
0.0
 11
0.0
 21
0.0000000000000142
 31
0.0
  0
LINE
  5
167
100
AcDbEntity
100
AcDbLine
  8
0
 62
7
420
0
370
-1
  6
BYLAYER
 10
0.0
 20
0.0
 30
0.0
 11
0.0
 21
20.6950000650577834
 31
0.0
  0
LINE
  5
168
100
AcDbEntity
100
AcDbLine
  8
0
 62
7
420
0
370
-1
  6
BYLAYER
 10
0.0
 20
20.6950000650577834
 30
0.0
 11
8.1999998094333364
 21
20.6950000650577834
 31
0.0
  0
LINE
  5
169
100
AcDbEntity
100
AcDbLine
  8
0
 62
7
420
0
370
-1
  6
BYLAYER
 10
8.1999998094333364
 20
20.6950000650577834
 30
0.0
 11
8.1999998094333364
 21
40.5050000620022246
 31
0.0
  0
LINE
  5
16A
100
AcDbEntity
100
AcDbLine
  8
0
 62
7
420
0
370
-1
  6
BYLAYER
 10
8.1999998094333364
 20
40.5050000620022246
 30
0.0
 11
0.0
 21
40.5050000620022246
 31
0.0
  0
LINE
  5
16B
100
AcDbEntity
100
AcDbLine
  8
0
 62
7
420
0
370
-1
  6
BYLAYER
 10
0.0
 20
40.5050000620022246
 30
0.0
 11
0.0
 21
69.4949999378400065
 31
0.0
  0
LINE
  5
16C
100
AcDbEntity
100
AcDbLine
  8
0
 62
7
420
0
370
-1
  6
BYLAYER
 10
0.0
 20
69.4949999378400065
 30
0.0
 11
8.1999998094333364
 21
69.4949999378400065
 31
0.0
  0
LINE
  5
16D
100
AcDbEntity
100
AcDbLine
  8
0
 62
7
420
0
370
-1
  6
BYLAYER
 10
8.1999998094333364
 20
69.4949999378400065
 30
0.0
 11
8.1999998094333364
 21
89.3049999345022343
 31
0.0
  0
LINE
  5
16E
100
AcDbEntity
100
AcDbLine
  8
0
 62
7
420
0
370
-1
  6
BYLAYER
 10
8.1999998094333364
 20
89.3049999345022343
 30
0.0
 11
0.0
 21
89.3049999345022343
 31
0.0
  0
LINE
  5
16F
100
AcDbEntity
100
AcDbLine
  8
0
 62
7
420
0
370
-1
  6
BYLAYER
 10
0.0
 20
89.3049999345022343
 30
0.0
 11
0.0
 21
109.9999999996446718
 31
0.0
  0
ENDBLK
  5
170
100
AcDbEntity
  8
0
100
AcDbBlockEnd
  0
BLOCK
  5
171
100
AcDbEntity
  8
0
100
AcDbBlockBegin
  2
cab_grille
 70
0
 10
0.0
 20
0.0
 30
0.0
  3
cab_grille
  1

  0
LINE
  5
172
100
AcDbEntity
100
AcDbLine
  8
0
 62
7
420
0
370
-1
  6
BYLAYER
 10
-49.3261435155985168
 20
99.9999999996000213
 30
0.0
 11
-28.8211434537986975
 21
99.9999999996000213
 31
0.0
  0
LINE
  5
173
100
AcDbEntity
100
AcDbLine
  8
0
 62
7
420
0
370
-1
  6
BYLAYER
 10
-28.8211434537986975
 20
99.9999999996000213
 30
0.0
 11
-28.8211434537986406
 21
108.1999998090334145
 31
0.0
  0
LINE
  5
174
100
AcDbEntity
100
AcDbLine
  8
0
 62
7
420
0
370
-1
  6
BYLAYER
 10
-28.8211434537986406
 20
108.1999998090334145
 30
0.0
 11
-8.6311434506208116
 21
108.1999998090334145
 31
0.0
  0
LINE
  5
175
100
AcDbEntity
100
AcDbLine
  8
0
 62
7
420
0
370
-1
  6
BYLAYER
 10
-8.6311434506208116
 20
108.1999998090334145
 30
0.0
 11
-8.6311434506208684
 21
99.9999999996000213
 31
0.0
  0
LINE
  5
176
100
AcDbEntity
100
AcDbLine
  8
0
 62
7
420
0
370
-1
  6
BYLAYER
 10
-8.6311434506208684
 20
99.9999999996000213
 30
0.0
 11
-0.0000000000000568
 21
99.9999999996000213
 31
0.0
  0
LINE
  5
177
100
AcDbEntity
100
AcDbLine
  8
0
 62
7
420
0
370
-1
  6
BYLAYER
 10
-0.0000000000000568
 20
-0.0000000000000284
 30
0.0
 11
-8.6311434506208684
 21
-0.0000000000000284
 31
0.0
  0
LINE
  5
178
100
AcDbEntity
100
AcDbLine
  8
0
 62
7
420
0
370
-1
  6
BYLAYER
 10
-8.6311434506208684
 20
-0.0000000000000284
 30
0.0
 11
-8.6311434506208684
 21
-8.1999998091510236
 31
0.0
  0
LINE
  5
179
100
AcDbEntity
100
AcDbLine
  8
0
 62
7
420
0
370
-1
  6
BYLAYER
 10
-8.6311434506208684
 20
-8.1999998091510236
 30
0.0
 11
-28.8211434537986406
 21
-8.199999809151052
 31
0.0
  0
LINE
  5
17A
100
AcDbEntity
100
AcDbLine
  8
0
 62
7
420
0
370
-1
  6
BYLAYER
 10
-28.8211434537986406
 20
-8.199999809151052
 30
0.0
 11
-28.8211434537986406
 21
-0.0000000000000284
 31
0.0
  0
LINE
  5
17B
100
AcDbEntity
100
AcDbLine
  8
0
 62
7
420
0
370
-1
  6
BYLAYER
 10
-28.8211434537986406
 20
-0.0000000000000284
 30
0.0
 11
-49.3261435155985168
 21
-0.0000000000000284
 31
0.0
  0
LINE
  5
17C
100
AcDbEntity
100
AcDbLine
  8
0
 62
7
420
0
370
-1
  6
BYLAYER
 10
-49.3261435155985168
 20
-0.0000000000000284
 30
0.0
 11
-49.3261435155985168
 21
17.1716667287623466
 31
0.0
  0
LINE
  5
17D
100
AcDbEntity
100
AcDbLine
  8
0
 62
7
420
0
370
-1
  6
BYLAYER
 10
-49.3261435155985168
 20
17.1716667287623466
 30
0.0
 11
-57.526143326443048
 21
17.1716667287623466
 31
0.0
  0
LINE
  5
17E
100
AcDbEntity
100
AcDbLine
  8
0
 62
7
420
0
370
-1
  6
BYLAYER
 10
-57.526143326443048
 20
17.1716667287623466
 30
0.0
 11
-57.526143326443048
 21
37.3616667316578344
 31
0.0
  0
LINE
  5
17F
100
AcDbEntity
100
AcDbLine
  8
0
 62
7
420
0
370
-1
  6
BYLAYER
 10
-57.526143326443048
 20
37.3616667316578344
 30
0.0
 11
-49.3261435155985168
 21
37.3616667316578344
 31
0.0
  0
LINE
  5
180
100
AcDbEntity
100
AcDbLine
  8
0
 62
7
420
0
370
-1
  6
BYLAYER
 10
-49.3261435155985168
 20
37.3616667316578344
 30
0.0
 11
-49.3261435155985168
 21
62.6383332679422722
 31
0.0
  0
LINE
  5
181
100
AcDbEntity
100
AcDbLine
  8
0
 62
7
420
0
370
-1
  6
BYLAYER
 10
-49.3261435155985168
 20
62.6383332679422722
 30
0.0
 11
-57.526143326443048
 21
62.6383332679422722
 31
0.0
  0
LINE
  5
182
100
AcDbEntity
100
AcDbLine
  8
0
 62
7
420
0
370
-1
  6
BYLAYER
 10
-57.526143326443048
 20
62.6383332679422722
 30
0.0
 11
-57.526143326443048
 21
82.8283332711201012
 31
0.0
  0
LINE
  5
183
100
AcDbEntity
100
AcDbLine
  8
0
 62
7
420
0
370
-1
  6
BYLAYER
 10
-57.526143326443048
 20
82.8283332711201012
 30
0.0
 11
-49.3261435155985168
 21
82.8283332711200444
 31
0.0
  0
LINE
  5
184
100
AcDbEntity
100
AcDbLine
  8
0
 62
7
420
0
370
-1
  6
BYLAYER
 10
-49.3261435155985168
 20
82.8283332711200444
 30
0.0
 11
-49.3261435155985168
 21
99.9999999996000213
 31
0.0
  0
LINE
  5
185
100
AcDbEntity
100
AcDbLine
  8
0
 62
256
370
-1
  6
BYLAYER
 10
-0.0000000000000568
 20
99.9999999995999644
 30
0.0
 11
-0.0000000000000568
 21
-0.0000000000000284
 31
0.0
  0
MTEXT
  5
186
100
AcDbEntity
100
AcDbMText
  8
0
 62
256
370
-1
  6
BYLAYER
 10
-44.2087443864487
 20
54.3054451525907496
 30
0.0
 40
8.0
 41
0.0
 71
1
 72
1
  1
Grille
  7
textstyle6
 50
0.0
 73
2
 44
1.0
  0
ENDBLK
  5
187
100
AcDbEntity
  8
0
100
AcDbBlockEnd
  0
BLOCK
  5
188
100
AcDbEntity
  8
0
100
AcDbBlockBegin
  2
cab_hood
 70
0
 10
0.0
 20
0.0
 30
0.0
  3
cab_hood
  1

  0
LINE
  5
189
100
AcDbEntity
100
AcDbLine
  8
0
 62
256
370
-1
  6
BYLAYER
 10
-32.4999999999999432
 20
0.0
 30
0.0
 11
0.0000000000000568
 21
0.0
 31
0.0
  0
LINE
  5
18A
100
AcDbEntity
100
AcDbLine
  8
0
 62
256
370
-1
  6
BYLAYER
 10
0.0000000000000568
 20
0.0
 30
0.0
 11
0.0000000000000568
 21
100.0
 31
0.0
  0
LINE
  5
18B
100
AcDbEntity
100
AcDbLine
  8
0
 62
256
370
-1
  6
BYLAYER
 10
0.0000000000000568
 20
100.0
 30
0.0
 11
-32.4999999999999432
 21
100.0
 31
0.0
  0
LINE
  5
18C
100
AcDbEntity
100
AcDbLine
  8
0
 62
256
370
-1
  6
BYLAYER
 10
-32.4999999999999432
 20
100.0
 30
0.0
 11
-32.4999999999999432
 21
0.0
 31
0.0
  0
MTEXT
  5
18D
100
AcDbEntity
100
AcDbMText
  8
0
 62
256
370
-1
  6
BYLAYER
 10
-27.8393989191397964
 20
49.1981346273289546
 30
0.0
 40
8.0
 41
0.0
 71
1
 72
1
  1
Hood
  7
textstyle7
 50
0.0
 73
2
 44
1.0
  0
ENDBLK
  5
18E
100
AcDbEntity
  8
0
100
AcDbBlockEnd
  0
BLOCK
  5
18F
100
AcDbEntity
  8
0
100
AcDbBlockBegin
  2
bucket_front
 70
0
 10
0.0
 20
0.0
 30
0.0
  3
bucket_front
  1

  0
LINE
  5
190
100
AcDbEntity
100
AcDbLine
  8
0
 62
7
420
0
370
-1
  6
BYLAYER
 10
-108.1999998104442966
 20
150.0000000005288712
 30
0.0
 11
-91.0283330813999783
 21
150.0000000005288712
 31
0.0
  0
LINE
  5
191
100
AcDbEntity
100
AcDbLine
  8
0
 62
7
420
0
370
-1
  6
BYLAYER
 10
-91.0283330813999783
 20
150.0000000005288712
 30
0.0
 11
-91.0283330813999783
 21
158.199999809962037
 31
0.0
  0
LINE
  5
192
100
AcDbEntity
100
AcDbLine
  8
0
 62
7
420
0
370
-1
  6
BYLAYER
 10
-91.0283330813999783
 20
158.199999809962037
 30
0.0
 11
-70.8383330782221492
 21
158.199999809962037
 31
0.0
  0
LINE
  5
193
100
AcDbEntity
100
AcDbLine
  8
0
 62
7
420
0
370
-1
  6
BYLAYER
 10
-70.8383330782221492
 20
158.199999809962037
 30
0.0
 11
-70.8383330782221492
 21
150.0000000005288712
 31
0.0
  0
LINE
  5
194
100
AcDbEntity
100
AcDbLine
  8
0
 62
7
420
0
370
-1
  6
BYLAYER
 10
-70.8383330782221492
 20
150.0000000005288712
 30
0.0
 11
-45.5616665430666217
 21
150.0000000005288712
 31
0.0
  0
LINE
  5
195
100
AcDbEntity
100
AcDbLine
  8
0
 62
7
420
0
370
-1
  6
BYLAYER
 10
-45.5616665430666217
 20
150.0000000005288712
 30
0.0
 11
-45.5616665430666217
 21
158.199999809962037
 31
0.0
  0
LINE
  5
196
100
AcDbEntity
100
AcDbLine
  8
0
 62
7
420
0
370
-1
  6
BYLAYER
 10
-45.5616665430666217
 20
158.199999809962037
 30
0.0
 11
-25.3716665398887926
 21
158.199999809962037
 31
0.0
  0
LINE
  5
197
100
AcDbEntity
100
AcDbLine
  8
0
 62
7
420
0
370
-1
  6
BYLAYER
 10
-25.3716665398887926
 20
158.199999809962037
 30
0.0
 11
-25.3716665398887926
 21
150.0000000005288712
 31
0.0
  0
LINE
  5
198
100
AcDbEntity
100
AcDbLine
  8
0
 62
7
420
0
370
-1
  6
BYLAYER
 10
-25.3716665398887926
 20
150.0000000005288712
 30
0.0
 11
0.0
 21
150.0000000005288712
 31
0.0
  0
LINE
  5
199
100
AcDbEntity
100
AcDbLine
  8
0
 62
7
420
0
370
-1
  6
BYLAYER
 10
0.0
 20
150.0000000005288712
 30
0.0
 11
0.0
 21
0.0
 31
0.0
  0
LINE
  5
19A
100
AcDbEntity
100
AcDbLine
  8
0
 62
7
420
0
370
-1
  6
BYLAYER
 10
0.0
 20
0.0
 30
0.0
 11
-25.3716665398887926
 21
0.0
 31
0.0
  0
LINE
  5
19B
100
AcDbEntity
100
AcDbLine
  8
0
 62
7
420
0
370
-1
  6
BYLAYER
 10
-25.3716665398887926
 20
0.0
 30
0.0
 11
-25.3716665398887926
 21
-8.1999998080223122
 31
0.0
  0
LINE
  5
19C
100
AcDbEntity
100
AcDbLine
  8
0
 62
7
420
0
370
-1
  6
BYLAYER
 10
-25.3716665398887926
 20
-8.1999998080223122
 30
0.0
 11
-45.5616665430666217
 21
-8.1999998080223122
 31
0.0
  0
LINE
  5
19D
100
AcDbEntity
100
AcDbLine
  8
0
 62
7
420
0
370
-1
  6
BYLAYER
 10
-45.5616665430666217
 20
-8.1999998080223122
 30
0.0
 11
-45.5616665430666217
 21
0.0
 31
0.0
  0
LINE
  5
19E
100
AcDbEntity
100
AcDbLine
  8
0
 62
7
420
0
370
-1
  6
BYLAYER
 10
-45.5616665430666217
 20
0.0
 30
0.0
 11
-70.8383330782221492
 21
0.0
 31
0.0
  0
LINE
  5
19F
100
AcDbEntity
100
AcDbLine
  8
0
 62
7
420
0
370
-1
  6
BYLAYER
 10
-70.8383330782221492
 20
0.0
 30
0.0
 11
-70.8383330782221492
 21
-8.1999998080223122
 31
0.0
  0
LINE
  5
1A0
100
AcDbEntity
100
AcDbLine
  8
0
 62
7
420
0
370
-1
  6
BYLAYER
 10
-70.8383330782221492
 20
-8.1999998080223122
 30
0.0
 11
-91.0283330813999783
 21
-8.1999998080223122
 31
0.0
  0
LINE
  5
1A1
100
AcDbEntity
100
AcDbLine
  8
0
 62
7
420
0
370
-1
  6
BYLAYER
 10
-91.0283330813999783
 20
-8.1999998080223122
 30
0.0
 11
-91.0283330813999783
 21
0.0
 31
0.0
  0
LINE
  5
1A2
100
AcDbEntity
100
AcDbLine
  8
0
 62
7
420
0
370
-1
  6
BYLAYER
 10
-91.0283330813999783
 20
0.0
 30
0.0
 11
-108.1999998104442966
 21
0.0
 31
0.0
  0
LINE
  5
1A3
100
AcDbEntity
100
AcDbLine
  8
0
 62
7
420
0
370
-1
  6
BYLAYER
 10
-108.1999998104442966
 20
0.0
 30
0.0
 11
-108.1999998104442966
 21
18.3050000949754121
 31
0.0
  0
LINE
  5
1A4
100
AcDbEntity
100
AcDbLine
  8
0
 62
7
420
0
370
-1
  6
BYLAYER
 10
-108.1999998104442966
 20
18.3050000949754121
 30
0.0
 11
-116.3999996184666088
 21
18.3050000949754121
 31
0.0
  0
LINE
  5
1A5
100
AcDbEntity
100
AcDbLine
  8
0
 62
7
420
0
370
-1
  6
BYLAYER
 10
-116.3999996184666088
 20
18.3050000949754121
 30
0.0
 11
-116.3999996184666088
 21
38.4950000981532412
 31
0.0
  0
LINE
  5
1A6
100
AcDbEntity
100
AcDbLine
  8
0
 62
7
420
0
370
-1
  6
BYLAYER
 10
-116.3999996184666088
 20
38.4950000981532412
 30
0.0
 11
-108.1999998104442966
 21
38.4950000981532412
 31
0.0
  0
LINE
  5
1A7
100
AcDbEntity
100
AcDbLine
  8
0
 62
7
420
0
370
-1
  6
BYLAYER
 10
-108.1999998104442966
 20
38.4950000981532412
 30
0.0
 11
-108.1999998104442966
 21
64.9049999992398625
 31
0.0
  0
LINE
  5
1A8
100
AcDbEntity
100
AcDbLine
  8
0
 62
7
420
0
370
-1
  6
BYLAYER
 10
-108.1999998104442966
 20
64.9049999992398625
 30
0.0
 11
-116.3999996184666088
 21
64.9049999992398625
 31
0.0
  0
LINE
  5
1A9
100
AcDbEntity
100
AcDbLine
  8
0
 62
7
420
0
370
-1
  6
BYLAYER
 10
-116.3999996184666088
 20
64.9049999992398625
 30
0.0
 11
-116.3999996184666088
 21
85.0950000024176916
 31
0.0
  0
LINE
  5
1AA
100
AcDbEntity
100
AcDbLine
  8
0
 62
7
420
0
370
-1
  6
BYLAYER
 10
-116.3999996184666088
 20
85.0950000024176916
 30
0.0
 11
-108.1999998104442966
 21
85.0950000024176916
 31
0.0
  0
LINE
  5
1AB
100
AcDbEntity
100
AcDbLine
  8
0
 62
7
420
0
370
-1
  6
BYLAYER
 10
-108.1999998104442966
 20
85.0950000024176916
 30
0.0
 11
-108.1999998104442966
 21
111.5049999037864836
 31
0.0
  0
LINE
  5
1AC
100
AcDbEntity
100
AcDbLine
  8
0
 62
7
420
0
370
-1
  6
BYLAYER
 10
-108.1999998104442966
 20
111.5049999037864836
 30
0.0
 11
-116.3999996184666088
 21
111.5049999037864836
 31
0.0
  0
LINE
  5
1AD
100
AcDbEntity
100
AcDbLine
  8
0
 62
7
420
0
370
-1
  6
BYLAYER
 10
-116.3999996184666088
 20
111.5049999037864836
 30
0.0
 11
-116.3999996184666088
 21
131.6949999069643127
 31
0.0
  0
LINE
  5
1AE
100
AcDbEntity
100
AcDbLine
  8
0
 62
7
420
0
370
-1
  6
BYLAYER
 10
-116.3999996184666088
 20
131.6949999069643127
 30
0.0
 11
-108.1999998104442966
 21
131.6949999069643127
 31
0.0
  0
LINE
  5
1AF
100
AcDbEntity
100
AcDbLine
  8
0
 62
7
420
0
370
-1
  6
BYLAYER
 10
-108.1999998104442966
 20
131.6949999069643127
 30
0.0
 11
-108.1999998104442966
 21
150.0000000005288712
 31
0.0
  0
ENDBLK
  5
1B0
100
AcDbEntity
  8
0
100
AcDbBlockEnd
  0
ENDSEC
  0
SECTION
  2
ENTITIES
  0
INSERT
  5
1B1
100
AcDbEntity
100
AcDbBlockReference
  8
0
 62
256
370
-1
  6
BYLAYER
  2
cab_top
 10
300.0
 20
0.0
 30
0.0
  0
INSERT
  5
1B2
100
AcDbEntity
100
AcDbBlockReference
  8
0
 62
256
370
-1
  6
BYLAYER
  2
cab_side
 10
134.3999996178866638
 20
-122.1999998088644475
 30
0.0
  0
INSERT
  5
1B3
100
AcDbEntity
100
AcDbBlockReference
  8
0
 62
256
370
-1
  6
BYLAYER
  2
cab_back
 10
12.1999998092197774
 20
-242.5999994269200215
 30
0.0
  0
INSERT
  5
1B4
100
AcDbEntity
100
AcDbBlockReference
  8
0
 62
256
370
-1
  6
BYLAYER
  2
cab_bottom
 10
134.3999996178866638
 20
-250.7999992360711019
 30
0.0
  0
INSERT
  5
1B5
100
AcDbEntity
100
AcDbBlockReference
  8
0
 62
256
370
-1
  6
BYLAYER
  2
cab_grille
 10
364.2087443864487
 20
-244.3054451525907496
 30
0.0
  0
INSERT
  5
1B6
100
AcDbEntity
100
AcDbBlockReference
  8
0
 62
256
370
-1
  6
BYLAYER
  2
cab_hood
 10
406.5026112598665691
 20
-244.7624527935302581
 30
0.0
  0
INSERT
  5
1B7
100
AcDbEntity
100
AcDbBlockReference
  8
0
 62
256
370
-1
  6
BYLAYER
  2
cab_side
 10
134.3999996178866354
 20
-262.9999990450932046
 30
0.0
 41
1.0
 42
-1.0
 43
1.0
 50
360.0
  0
INSERT
  5
1B8
100
AcDbEntity
100
AcDbBlockReference
  8
0
 62
256
370
-1
  6
BYLAYER
  2
bucket_side
 10
658.2054163928776234
 20
39.321918678183394
 30
0.0
  0
INSERT
  5
1B9
100
AcDbEntity
100
AcDbBlockReference
  8
0
 62
256
370
-1
  6
BYLAYER
  2
bucket_front
 10
778.6054160123442216
 20
-131.0780809408009588
 30
0.0
  0
INSERT
  5
1BA
100
AcDbEntity
100
AcDbBlockReference
  8
0
 62
256
370
-1
  6
BYLAYER
  2
bucket_bottom
 10
441.8054167750931356
 20
-139.2780807488232995
 30
0.0
  0
INSERT
  5
1BB
100
AcDbEntity
100
AcDbBlockReference
  8
0
 62
256
370
-1
  6
BYLAYER
  2
bucket_side
 10
658.2054163928776234
 20
-151.4780805581277434
 30
0.0
 41
1.0
 42
-1.0
 43
1.0
 50
360.0
  0
INSERT
  5
1BC
100
AcDbEntity
100
AcDbBlockReference
  8
0
 62
256
370
-1
  6
BYLAYER
  2
bucket_lift
 10
661.8054167750931356
 20
-332.4780815128962104
 30
0.0
  0
INSERT
  5
1BD
100
AcDbEntity
100
AcDbBlockReference
  8
0
 62
256
370
-1
  6
BYLAYER
  2
chassis
 10
741.8054167750931356
 20
-407.4780815128962104
 30
0.0
  0
INSERT
  5
1BE
100
AcDbEntity
100
AcDbBlockReference
  8
0
 62
256
370
-1
  6
BYLAYER
  2
cab_back
 10
593.7362708097430186
 20
-438.9936190357167334
 30
0.0
 50
-90.0
  0
INSERT
  5
1BF
100
AcDbEntity
100
AcDbBlockReference
  8
0
 62
256
370
-1
  6
BYLAYER
  2
bucket_front
 10
718.7362708098074791
 20
-438.9936190357167334
 30
0.0
 50
90.0
  0
LINE
  5
1C0
100
AcDbEntity
100
AcDbLine
  8
0
 62
256
370
-1
  6
BYLAYER
 10
625.736270808978702
 20
-610.3936186541833422
 30
0.0
 11
661.736270808978702
 21
-610.3936186541833422
 31
0.0
  0
LINE
  5
1C1
100
AcDbEntity
100
AcDbLine
  8
0
 62
256
370
-1
  6
BYLAYER
 10
661.736270808978702
 20
-610.3936186541833422
 30
0.0
 11
661.736270808978702
 21
-555.3936186541833422
 31
0.0
  0
LINE
  5
1C2
100
AcDbEntity
100
AcDbLine
  8
0
 62
256
370
-1
  6
BYLAYER
 10
661.736270808978702
 20
-555.3936186541833422
 30
0.0
 11
625.736270808978702
 21
-555.3936186541833422
 31
0.0
  0
LINE
  5
1C3
100
AcDbEntity
100
AcDbLine
  8
0
 62
256
370
-1
  6
BYLAYER
 10
625.736270808978702
 20
-555.3936186541833422
 30
0.0
 11
625.736270808978702
 21
-610.3936186541833422
 31
0.0
  0
LINE
  5
1C4
100
AcDbEntity
100
AcDbLine
  8
0
 62
256
370
-1
  6
BYLAYER
 10
586.7880457215032948
 20
-630.3210959174019763
 30
0.0
 11
604.7880457215032948
 21
-630.3210959174019763
 31
0.0
  0
LINE
  5
1C5
100
AcDbEntity
100
AcDbLine
  8
0
 62
256
370
-1
  6
BYLAYER
 10
604.7880457215032948
 20
-630.3210959174019763
 30
0.0
 11
604.7880457215032948
 21
-575.3210959174019763
 31
0.0
  0
LINE
  5
1C6
100
AcDbEntity
100
AcDbLine
  8
0
 62
256
370
-1
  6
BYLAYER
 10
604.7880457215032948
 20
-575.3210959174019763
 30
0.0
 11
586.7880457215032948
 21
-575.3210959174019763
 31
0.0
  0
LINE
  5
1C7
100
AcDbEntity
100
AcDbLine
  8
0
 62
256
370
-1
  6
BYLAYER
 10
586.7880457215032948
 20
-575.3210959174019763
 30
0.0
 11
586.7880457215032948
 21
-630.3210959174019763
 31
0.0
  0
LINE
  5
1C8
100
AcDbEntity
100
AcDbLine
  8
0
 62
256
370
-1
  6
BYLAYER
 10
682.6844958964541092
 20
-630.3210959174019763
 30
0.0
 11
682.6844958964541092
 21
-575.3210959174019763
 31
0.0
  0
LINE
  5
1C9
100
AcDbEntity
100
AcDbLine
  8
0
 62
256
370
-1
  6
BYLAYER
 10
682.6844958964541092
 20
-575.3210959174019763
 30
0.0
 11
700.6844958964541092
 21
-575.3210959174019763
 31
0.0
  0
LINE
  5
1CA
100
AcDbEntity
100
AcDbLine
  8
0
 62
256
370
-1
  6
BYLAYER
 10
700.6844958964541092
 20
-575.3210959174019763
 30
0.0
 11
700.6844958964541092
 21
-630.3210959174019763
 31
0.0
  0
LINE
  5
1CB
100
AcDbEntity
100
AcDbLine
  8
0
 62
256
370
-1
  6
BYLAYER
 10
700.6844958964541092
 20
-630.3210959174019763
 30
0.0
 11
682.6844958964541092
 21
-630.3210959174019763
 31
0.0
  0
LINE
  5
1CC
100
AcDbEntity
100
AcDbLine
  8
0
 62
256
370
-1
  6
BYLAYER
 10
564.7362708097430186
 20
-665.1936188433836605
 30
0.0
 11
582.7362708097430186
 21
-665.1936188433836605
 31
0.0
  0
LINE
  5
1CD
100
AcDbEntity
100
AcDbLine
  8
0
 62
256
370
-1
  6
BYLAYER
 10
582.7362708097430186
 20
-665.1936188433836605
 30
0.0
 11
582.7362708097430186
 21
-565.1936188433836605
 31
0.0
  0
LINE
  5
1CE
100
AcDbEntity
100
AcDbLine
  8
0
 62
256
370
-1
  6
BYLAYER
 10
582.7362708097430186
 20
-565.1936188433836605
 30
0.0
 11
564.7362708097430186
 21
-565.1936188433836605
 31
0.0
  0
LINE
  5
1CF
100
AcDbEntity
100
AcDbLine
  8
0
 62
256
370
-1
  6
BYLAYER
 10
564.7362708097430186
 20
-565.1936188433836605
 30
0.0
 11
564.7362708097430186
 21
-665.1936188433836605
 31
0.0
  0
LINE
  5
1D0
100
AcDbEntity
100
AcDbLine
  8
0
 62
256
370
-1
  6
BYLAYER
 10
722.7362708082143854
 20
-665.1936188433836605
 30
0.0
 11
704.7362708082143854
 21
-665.1936188433836605
 31
0.0
  0
LINE
  5
1D1
100
AcDbEntity
100
AcDbLine
  8
0
 62
256
370
-1
  6
BYLAYER
 10
704.7362708082143854
 20
-665.1936188433836605
 30
0.0
 11
704.7362708082143854
 21
-565.1936188433836605
 31
0.0
  0
LINE
  5
1D2
100
AcDbEntity
100
AcDbLine
  8
0
 62
256
370
-1
  6
BYLAYER
 10
704.7362708082143854
 20
-565.1936188433836605
 30
0.0
 11
722.7362708082143854
 21
-565.1936188433836605
 31
0.0
  0
LINE
  5
1D3
100
AcDbEntity
100
AcDbLine
  8
0
 62
256
370
-1
  6
BYLAYER
 10
722.7362708082143854
 20
-565.1936188433836605
 30
0.0
 11
722.7362708082143854
 21
-665.1936188433836605
 31
0.0
  0
LINE
  5
1D4
100
AcDbEntity
100
AcDbLine
  8
0
 62
256
370
-1
  6
BYLAYER
 10
564.7362708097430186
 20
-612.0136188433837106
 30
0.0
 11
722.7362708082143854
 21
-612.0136188433837106
 31
0.0
  0
LINE
  5
1D5
100
AcDbEntity
100
AcDbLine
  8
0
 62
256
370
-1
  6
BYLAYER
 10
564.7362708097430186
 20
-618.3736188433836105
 30
0.0
 11
722.7362708082143854
 21
-618.3736188433834968
 31
0.0
  0
INSERT
  5
1D6
100
AcDbEntity
100
AcDbBlockReference
  8
0
 62
256
370
-1
  6
BYLAYER
  2
chassis_cross
 10
604.7880457215032948
 20
-597.1936188445124571
 30
0.0
  0
INSERT
  5
1D7
100
AcDbEntity
100
AcDbBlockReference
  8
0
 62
256
370
-1
  6
BYLAYER
  2
chassis_cross
 10
681.0517749125245928
 20
-329.9999999999998863
 30
0.0
  0
INSERT
  5
1D8
100
AcDbEntity
100
AcDbBlockReference
  8
0
 62
256
370
-1
  6
BYLAYER
  2
chassis_cross
 10
681.0517749125245928
 20
-279.9999999999998863
 30
0.0
  0
INSERT
  5
1D9
100
AcDbEntity
100
AcDbBlockReference
  8
0
 62
256
370
-1
  6
BYLAYER
  2
wheel
 10
900.0
 20
-100.0
 30
0.0
  0
INSERT
  5
1DA
100
AcDbEntity
100
AcDbBlockReference
  8
0
 62
256
370
-1
  6
BYLAYER
  2
wheel
 10
1010.0
 20
-100.0
 30
0.0
  0
INSERT
  5
1DB
100
AcDbEntity
100
AcDbBlockReference
  8
0
 62
256
370
-1
  6
BYLAYER
  2
wheel
 10
1010.0
 20
-210.0
 30
0.0
  0
INSERT
  5
1DC
100
AcDbEntity
100
AcDbBlockReference
  8
0
 62
256
370
-1
  6
BYLAYER
  2
wheel
 10
900.0
 20
-210.0
 30
0.0
  0
INSERT
  5
1DD
100
AcDbEntity
100
AcDbBlockReference
  8
0
 62
256
370
-1
  6
BYLAYER
  2
cab_side
 10
308.6000003815510695
 20
-551.4525001583004951
 30
0.0
  0
LINE
  5
1DE
100
AcDbEntity
100
AcDbLine
  8
0
 62
256
370
-1
  6
BYLAYER
 10
296.8000001911076993
 20
-612.0000001909644425
 30
0.0
 11
256.8000001911076424
 21
-612.0000001909644425
 31
0.0
  0
LINE
  5
1DF
100
AcDbEntity
100
AcDbLine
  8
0
 62
256
370
-1
  6
BYLAYER
 10
256.8000001911076424
 20
-612.0000001909644425
 30
0.0
 11
256.8000001911076424
 21
-630.0000001909644425
 31
0.0
  0
INSERT
  5
1E0
100
AcDbEntity
100
AcDbBlockReference
  8
0
 62
256
370
-1
  6
BYLAYER
  2
wheel
 10
389.9999999999999432
 20
-615.0
 30
0.0
  0
INSERT
  5
1E1
100
AcDbEntity
100
AcDbBlockReference
  8
0
 62
256
370
-1
  6
BYLAYER
  2
wheel
 10
160.0
 20
-615.0
 30
0.0
  0
LINE
  5
1E2
100
AcDbEntity
100
AcDbLine
  8
0
 62
256
370
-1
  6
BYLAYER
 10
429.6030768929172723
 20
-599.6063813475808502
 30
0.0
 11
447.6030768929172723
 21
-599.6063813475808502
 31
0.0
  0
LINE
  5
1E3
100
AcDbEntity
100
AcDbLine
  8
0
 62
256
370
-1
  6
BYLAYER
 10
447.6030768929172723
 20
-599.6063813475808502
 30
0.0
 11
447.6030768929172723
 21
-559.6063813475808502
 31
0.0
  0
LINE
  5
1E4
100
AcDbEntity
100
AcDbLine
  8
0
 62
256
370
-1
  6
BYLAYER
 10
447.6030768929172723
 20
-559.6063813475808502
 30
0.0
 11
429.6030768929172723
 21
-559.6063813475808502
 31
0.0
  0
LINE
  5
1E5
100
AcDbEntity
100
AcDbLine
  8
0
 62
256
370
-1
  6
BYLAYER
 10
429.6030768929172723
 20
-559.6063813475808502
 30
0.0
 11
429.6030768929172723
 21
-599.6063813475808502
 31
0.0
  0
LINE
  5
1E6
100
AcDbEntity
100
AcDbLine
  8
0
 62
256
370
-1
  6
BYLAYER
 10
310.0637293813646806
 20
-599.6063813475808502
 30
0.0
 11
328.0637293813646806
 21
-599.6063813475808502
 31
0.0
  0
LINE
  5
1E7
100
AcDbEntity
100
AcDbLine
  8
0
 62
256
370
-1
  6
BYLAYER
 10
328.0637293813646806
 20
-599.6063813475808502
 30
0.0
 11
328.0637293813646806
 21
-559.6063813475808502
 31
0.0
  0
LINE
  5
1E8
100
AcDbEntity
100
AcDbLine
  8
0
 62
256
370
-1
  6
BYLAYER
 10
328.0637293813646806
 20
-559.6063813475808502
 30
0.0
 11
310.0637293813646806
 21
-559.6063813475808502
 31
0.0
  0
LINE
  5
1E9
100
AcDbEntity
100
AcDbLine
  8
0
 62
256
370
-1
  6
BYLAYER
 10
310.0637293813646806
 20
-559.6063813475808502
 30
0.0
 11
310.0637293813646806
 21
-599.6063813475808502
 31
0.0
  0
LINE
  5
1EA
100
AcDbEntity
100
AcDbLine
  8
0
 62
256
370
-1
  6
BYLAYER
 10
171.8000001911077561
 20
-630.0
 30
0.0
 11
211.8000001911077561
 21
-630.0
 31
0.0
  0
INSERT
  5
1EB
100
AcDbEntity
100
AcDbBlockReference
  8
0
 62
256
370
-1
  6
BYLAYER
  2
bucket_side
 10
300.0
 20
-546.8000001908491186
 30
0.0
  0
LINE
  5
1EC
100
AcDbEntity
100
AcDbLine
  8
0
 62
256
370
-1
  6
BYLAYER
 10
211.8000001911077561
 20
-630.0
 30
0.0
 11
211.8000001911077561
 21
-612.0
 31
0.0
  0
INSERT
  5
1ED
100
AcDbEntity
100
AcDbBlockReference
  8
0
 62
256
370
-1
  6
BYLAYER
  2
bucket_lift
 10
299.9999999999999432
 20
-610.0000000000001137
 30
0.0
  0
LINE
  5
1EE
100
AcDbEntity
100
AcDbLine
  8
0
 62
256
370
-1
  6
BYLAYER
 10
211.8000001911077561
 20
-612.0
 30
0.0
 11
171.8000001911077561
 21
-612.0
 31
0.0
  0
LINE
  5
1EF
100
AcDbEntity
100
AcDbLine
  8
0
 62
256
370
-1
  6
BYLAYER
 10
171.8000001911077561
 20
-612.0
 30
0.0
 11
171.8000001911077561
 21
-630.0
 31
0.0
  0
LINE
  5
1F0
100
AcDbEntity
100
AcDbLine
  8
0
 62
256
370
-1
  6
BYLAYER
 10
256.8000001911076424
 20
-630.0000001909644425
 30
0.0
 11
296.8000001911076993
 21
-630.0000001909644425
 31
0.0
  0
INSERT
  5
1F1
100
AcDbEntity
100
AcDbBlockReference
  8
0
 62
256
370
-1
  6
BYLAYER
  2
chassis
 10
409.9999999999999432
 20
-630.0
 30
0.0
  0
LINE
  5
1F2
100
AcDbEntity
100
AcDbLine
  8
0
 62
256
370
-1
  6
BYLAYER
 10
296.8000001911076993
 20
-630.0000001909644425
 30
0.0
 11
296.8000001911076993
 21
-612.0000001909644425
 31
0.0
  0
LINE
  5
1F3
100
AcDbEntity
100
AcDbLine
  8
0
 62
256
370
-1
  6
BYLAYER
 10
148.6602540378443109
 20
-629.9999999999998863
 30
0.0
 11
148.6602540378443109
 21
-612.0000000000001137
 31
0.0
  0
LINE
  5
1F4
100
AcDbEntity
100
AcDbLine
  8
0
 62
256
370
-1
  6
BYLAYER
 10
119.300000191439949
 20
-629.9999999999998863
 30
0.0
 11
119.300000191439949
 21
-624.385226154224938
 31
0.0
  0
LINE
  5
1F5
100
AcDbEntity
100
AcDbLine
  8
0
 62
256
370
-1
  6
BYLAYER
 10
119.300000191439949
 20
-624.3852261542248243
 30
0.0
 11
138.0582741955799406
 21
-612.0
 31
0.0
  0
LINE
  5
1F6
100
AcDbEntity
100
AcDbLine
  8
0
 62
256
370
-1
  6
BYLAYER
 10
148.6602540378443109
 20
-629.9999999999998863
 30
0.0
 11
119.3000001914400627
 21
-629.9999999999998863
 31
0.0
  0
DIMENSION
  5
1F7
100
AcDbEntity
  8
0
 62
256
370
-1
  6
BYLAYER
100
AcDbDimension
 10
111.3397459621555754
 20
-629.6410161513776984
 30
0.0
 11
139.2074393253665221
 21
-622.5686162737284803
 31
0.0
 70
2
 71
8
 72
2
 41
1.0
 42
0.0
  1

  3
Standard
100
AcDb2LineAngularDimension
 13
148.6602540378443109
 23
-629.9999999999998863
 33
0.0
 14
148.6602540378443109
 24
-605.0000000000001137
 34
0.0
 15
148.6602540378443109
 25
-605.0000000000001137
 35
0.0
 16
139.3184142643856376
 26
-624.7248835163779859
 36
0.0
  0
LINE
  5
1F8
100
AcDbEntity
100
AcDbLine
  8
0
 62
256
370
-1
  6
BYLAYER
 10
148.6602540378443109
 20
-612.0
 30
0.0
 11
138.0
 21
-612.0
 31
0.0
  0
DIMENSION
  5
1F9
100
AcDbEntity
  8
0
 62
256
370
-1
  6
BYLAYER
100
AcDbDimension
 10
148.6602540378443109
 20
-629.9999999999998863
 30
0.0
 11
131.2071638160069824
 21
-623.8695834407477605
 31
0.0
 70
2
 71
8
 72
2
 41
1.0
 42
0.0
  1

  3
Standard
100
AcDb2LineAngularDimension
 13
129.4036928977943148
 23
-617.7142222477154974
 33
0.0
 14
110.8181760058301393
 24
-629.9853848210599381
 34
0.0
 15
119.3000001914400627
 25
-629.9999999999998863
 35
0.0
 16
130.0
 26
-627.0
 36
0.0
  0
DIMENSION
  5
1FA
100
AcDbEntity
  8
0
 62
256
370
-1
  6
BYLAYER
100
AcDbDimension
 10
681.0517749125245928
 20
-232.0455223252247947
 30
0.0
 11
720.0
 21
-230.1705223252248516
 31
0.0
 70
1
 71
8
 72
2
 41
1.0
 42
0.0
  1

  3
Standard
100
AcDbAlignedDimension
 13
681.0517749125245928
 23
-239.9999999999999716
 33
0.0
 14
758.9482250874754072
 24
-240.0000000000000853
 34
0.0
1001
ACAD
1000
DSTYLE
1002
{
1070
144
1040
1
1002
}
  0
LINE
  5
1FB
100
AcDbEntity
100
AcDbLine
  8
0
 62
256
370
-1
  6
BYLAYER
 10
315.6669863903066471
 20
-123.3966495853102998
 30
0.0
 11
373.6669863903066471
 21
-123.3966495853102998
 31
0.0
  0
LINE
  5
1FC
100
AcDbEntity
100
AcDbLine
  8
0
 62
256
370
-1
  6
BYLAYER
 10
373.6669863903066471
 20
-123.3966495853102998
 30
0.0
 11
373.6669863903066471
 21
-23.3966495853102998
 31
0.0
  0
LINE
  5
1FD
100
AcDbEntity
100
AcDbLine
  8
0
 62
256
370
-1
  6
BYLAYER
 10
373.6669863903066471
 20
-23.3966495853102998
 30
0.0
 11
315.6669863903066471
 21
-23.3966495853102998
 31
0.0
  0
LINE
  5
1FE
100
AcDbEntity
100
AcDbLine
  8
0
 62
256
370
-1
  6
BYLAYER
 10
315.6669863903066471
 20
-23.3966495853102998
 30
0.0
 11
315.6669863903066471
 21
-123.3966495853102998
 31
0.0
  0
LINE
  5
1FF
100
AcDbEntity
100
AcDbLine
  8
0
 62
256
370
-1
  6
BYLAYER
 10
335.6669863903066471
 20
-113.3966495853102998
 30
0.0
 11
353.6669863903066471
 21
-113.3966495853102998
 31
0.0
  0
LINE
  5
200
100
AcDbEntity
100
AcDbLine
  8
0
 62
256
370
-1
  6
BYLAYER
 10
363.6669863903066471
 20
-103.3966495853102998
 30
0.0
 11
363.6669863903066471
 21
-43.396649585310314
 31
0.0
  0
LINE
  5
201
100
AcDbEntity
100
AcDbLine
  8
0
 62
256
370
-1
  6
BYLAYER
 10
353.6669863903066471
 20
-33.3966495853102998
 30
0.0
 11
335.6669863903066471
 21
-33.3966495853102998
 31
0.0
  0
LINE
  5
202
100
AcDbEntity
100
AcDbLine
  8
0
 62
256
370
-1
  6
BYLAYER
 10
325.6669863903066471
 20
-43.3966495853102998
 30
0.0
 11
325.6669863903066471
 21
-103.3966495853102998
 31
0.0
  0
ARC
  5
203
100
AcDbEntity
  8
0
 62
256
370
-1
  6
BYLAYER
100
AcDbCircle
 10
335.6669863903066471
 20
-43.3966495853102998
 30
0.0
 40
10.0
100
AcDbArc
 50
90.0
 51
180.0
  0
ARC
  5
204
100
AcDbEntity
  8
0
 62
256
370
-1
  6
BYLAYER
100
AcDbCircle
 10
335.6669863903066471
 20
-103.3966495853102998
 30
0.0
 40
10.0
100
AcDbArc
 50
180.0
 51
270.0
  0
ARC
  5
205
100
AcDbEntity
  8
0
 62
256
370
-1
  6
BYLAYER
100
AcDbCircle
 10
353.6669863903066471
 20
-103.3966495853102998
 30
0.0
 40
10.0
100
AcDbArc
 50
270.0
 51
0.0
  0
ARC
  5
206
100
AcDbEntity
  8
0
 62
256
370
-1
  6
BYLAYER
100
AcDbCircle
 10
353.6669863903066471
 20
-43.3966495853103069
 30
0.0
 40
10.0
100
AcDbArc
 50
360.0
 51
90.0
  0
MTEXT
  5
207
100
AcDbEntity
100
AcDbMText
  8
0
 62
256
370
-1
  6
BYLAYER
 10
339.2653986998924438
 20
-127.1210203945831267
 30
0.0
 40
8.0
 41
0.0
 71
1
 72
1
  1
Front Windsheild
  7
textstyle8
 50
90.0
 73
2
 44
1.0
  0
ENDSEC
  0
SECTION
  2
OBJECTS
  0
DICTIONARY
  5
C
100
AcDbDictionary
280
0
281
1
  3
ACAD_GROUP
350
D
  3
ACAD_LAYOUT
350
1A
  3
ACAD_MLINESTYLE
350
17
  3
ACAD_PLOTSETTINGS
350
19
  3
ACAD_PLOTSTYLENAME
350
E
  3
AcDbVariableDictionary
350
208
  3
QCAD_OBJECTS
350
209
  0
DICTIONARY
  5
D
100
AcDbDictionary
280
0
281
1
  0
ACDBDICTIONARYWDFLT
  5
E
100
AcDbDictionary
281
1
  3
Normal
350
F
100
AcDbDictionaryWithDefault
340
F
  0
ACDBPLACEHOLDER
  5
F
  0
DICTIONARY
  5
17
100
AcDbDictionary
280
0
281
1
  3
Standard
350
18
  0
MLINESTYLE
  5
18
100
AcDbMlineStyle
  2
STANDARD
 70
0
  3

 62
256
 51
90.0
 52
90.0
 71
2
 49
0.5
 62
256
  6
BYLAYER
 49
-0.5
 62
256
  6
BYLAYER
  0
DICTIONARY
  5
19
100
AcDbDictionary
280
0
281
1
  0
DICTIONARY
  5
1A
100
AcDbDictionary
281
1
  3
Layout1
350
1E
  3
Layout2
350
26
  3
Model
350
22
  0
LAYOUT
  5
1E
100
AcDbPlotSettings
  1

  2
none_device
  4

  6

 40
0.0
 41
0.0
 42
0.0
 43
0.0
 44
0.0
 45
0.0
 46
0.0
 47
0.0
 48
0.0
 49
0.0
140
0.0
141
0.0
142
1.0
143
1.0
 70
688
 72
0
 73
0
 74
5
  7

 75
16
147
1.0
148
0.0
149
0.0
100
AcDbLayout
  1
Layout1
 70
1
 71
1
 10
0.0
 20
0.0
 11
420.0
 21
297.0
 12
0.0
 22
0.0
 32
0.0
 14
100000000000000000000.0
 24
100000000000000000000.0
 34
100000000000000000000.0
 15
-100000000000000000000.0
 25
-100000000000000000000.0
 35
-100000000000000000000.0
146
0.0
 13
0.0
 23
0.0
 33
0.0
 16
1.0
 26
0.0
 36
0.0
 17
0.0
 27
1.0
 37
0.0
 76
0
330
1B
  0
LAYOUT
  5
22
100
AcDbPlotSettings
  1

  2
none_device
  4

  6

 40
0.0
 41
0.0
 42
0.0
 43
0.0
 44
0.0
 45
0.0
 46
0.0
 47
0.0
 48
0.0
 49
0.0
140
0.0
141
0.0
142
1.0
143
1.0
 70
1712
 72
0
 73
0
 74
0
  7

 75
0
147
1.0
148
0.0
149
0.0
100
AcDbLayout
  1
Model
 70
1
 71
0
 10
0.0
 20
0.0
 11
12.0
 21
9.0
 12
0.0
 22
0.0
 32
0.0
 14
0.0
 24
0.0
 34
0.0
 15
0.0
 25
0.0
 35
0.0
146
0.0
 13
0.0
 23
0.0
 33
0.0
 16
1.0
 26
0.0
 36
0.0
 17
0.0
 27
1.0
 37
0.0
 76
0
330
1F
  0
LAYOUT
  5
26
100
AcDbPlotSettings
  1

  2
none_device
  4

  6

 40
0.0
 41
0.0
 42
0.0
 43
0.0
 44
0.0
 45
0.0
 46
0.0
 47
0.0
 48
0.0
 49
0.0
140
0.0
141
0.0
142
1.0
143
1.0
 70
688
 72
0
 73
0
 74
5
  7

 75
16
147
1.0
148
0.0
149
0.0
100
AcDbLayout
  1
Layout2
 70
1
 71
2
 10
0.0
 20
0.0
 11
12.0
 21
9.0
 12
0.0
 22
0.0
 32
0.0
 14
0.0
 24
0.0
 34
0.0
 15
0.0
 25
0.0
 35
0.0
146
0.0
 13
0.0
 23
0.0
 33
0.0
 16
1.0
 26
0.0
 36
0.0
 17
0.0
 27
1.0
 37
0.0
 76
0
330
23
  0
DICTIONARY
  5
208
100
AcDbDictionary
281
1
  3
DIMASSOC
350
20B
  3
HIDETEXT
350
20A
  0
DICTIONARYVAR
  5
20A
100
DictionaryVariables
280
0
  1
2
  0
DICTIONARYVAR
  5
20B
100
DictionaryVariables
280
0
  1
1
  0
DICTIONARY
  5
209
100
AcDbDictionary
281
1
  3
Grid/DisplayGrid00
350
20C
  3
Grid/DisplayGrid01
350
20D
  3
Grid/DisplayGrid02
350
20E
  3
Grid/DisplayGrid03
350
20F
  3
Grid/GridSpacingX00
350
210
  3
Grid/GridSpacingX01
350
211
  3
Grid/GridSpacingX02
350
212
  3
Grid/GridSpacingX03
350
213
  3
Grid/GridSpacingY00
350
214
  3
Grid/GridSpacingY01
350
215
  3
Grid/GridSpacingY02
350
216
  3
Grid/GridSpacingY03
350
217
  3
Grid/IsometricGrid00
350
218
  3
Grid/IsometricGrid01
350
219
  3
Grid/IsometricGrid02
350
21A
  3
Grid/IsometricGrid03
350
21B
  3
Grid/IsometricProjection00
350
21C
  3
Grid/IsometricProjection01
350
21D
  3
Grid/IsometricProjection02
350
21E
  3
Grid/IsometricProjection03
350
21F
  3
Grid/MetaGridSpacingX00
350
220
  3
Grid/MetaGridSpacingX01
350
221
  3
Grid/MetaGridSpacingX02
350
222
  3
Grid/MetaGridSpacingX03
350
223
  3
Grid/MetaGridSpacingY00
350
224
  3
Grid/MetaGridSpacingY01
350
225
  3
Grid/MetaGridSpacingY02
350
226
  3
Grid/MetaGridSpacingY03
350
227
  3
MultiPageSettings/Columns
350
228
  3
MultiPageSettings/GlueMarginsBottom
350
229
  3
MultiPageSettings/GlueMarginsLeft
350
22A
  3
MultiPageSettings/GlueMarginsRight
350
22B
  3
MultiPageSettings/GlueMarginsTop
350
22C
  3
MultiPageSettings/PrintCropMarks
350
22D
  3
MultiPageSettings/Rows
350
22E
  3
PageSettings/OffsetX
350
22F
  3
PageSettings/OffsetY
350
230
  3
PageSettings/PageOrientation
350
231
  3
PageSettings/PaperHeight
350
232
  3
PageSettings/PaperWidth
350
233
  3
PageSettings/Scale
350
234
  3
PageSettings/ShowPaperBorders
350
235
  3
UnitSettings/PaperUnit
350
236
  0
XRECORD
  5
20C
330
209
100
AcDbXrecord
280
1
290
1
  0
XRECORD
  5
20D
330
209
100
AcDbXrecord
280
1
290
1
  0
XRECORD
  5
20E
330
209
100
AcDbXrecord
280
1
290
1
  0
XRECORD
  5
20F
330
209
100
AcDbXrecord
280
1
290
1
  0
XRECORD
  5
210
330
209
100
AcDbXrecord
280
1
1000
auto
  0
XRECORD
  5
211
330
209
100
AcDbXrecord
280
1
1000
auto
  0
XRECORD
  5
212
330
209
100
AcDbXrecord
280
1
1000
auto
  0
XRECORD
  5
213
330
209
100
AcDbXrecord
280
1
1000
auto
  0
XRECORD
  5
214
330
209
100
AcDbXrecord
280
1
1000
auto
  0
XRECORD
  5
215
330
209
100
AcDbXrecord
280
1
1000
auto
  0
XRECORD
  5
216
330
209
100
AcDbXrecord
280
1
1000
auto
  0
XRECORD
  5
217
330
209
100
AcDbXrecord
280
1
1000
auto
  0
XRECORD
  5
218
330
209
100
AcDbXrecord
280
1
290
0
  0
XRECORD
  5
219
330
209
100
AcDbXrecord
280
1
290
0
  0
XRECORD
  5
21A
330
209
100
AcDbXrecord
280
1
290
0
  0
XRECORD
  5
21B
330
209
100
AcDbXrecord
280
1
290
0
  0
XRECORD
  5
21C
330
209
100
AcDbXrecord
280
1
 90
0
  0
XRECORD
  5
21D
330
209
100
AcDbXrecord
280
1
 90
0
  0
XRECORD
  5
21E
330
209
100
AcDbXrecord
280
1
 90
0
  0
XRECORD
  5
21F
330
209
100
AcDbXrecord
280
1
 90
0
  0
XRECORD
  5
220
330
209
100
AcDbXrecord
280
1
1000
auto
  0
XRECORD
  5
221
330
209
100
AcDbXrecord
280
1
1000
auto
  0
XRECORD
  5
222
330
209
100
AcDbXrecord
280
1
1000
auto
  0
XRECORD
  5
223
330
209
100
AcDbXrecord
280
1
1000
auto
  0
XRECORD
  5
224
330
209
100
AcDbXrecord
280
1
1000
auto
  0
XRECORD
  5
225
330
209
100
AcDbXrecord
280
1
1000
auto
  0
XRECORD
  5
226
330
209
100
AcDbXrecord
280
1
1000
auto
  0
XRECORD
  5
227
330
209
100
AcDbXrecord
280
1
1000
auto
  0
XRECORD
  5
228
330
209
100
AcDbXrecord
280
1
 90
1
  0
XRECORD
  5
229
330
209
100
AcDbXrecord
280
1
 40
10.0
  0
XRECORD
  5
22A
330
209
100
AcDbXrecord
280
1
 40
10.0
  0
XRECORD
  5
22B
330
209
100
AcDbXrecord
280
1
 40
10.0
  0
XRECORD
  5
22C
330
209
100
AcDbXrecord
280
1
 40
10.0
  0
XRECORD
  5
22D
330
209
100
AcDbXrecord
280
1
290
0
  0
XRECORD
  5
22E
330
209
100
AcDbXrecord
280
1
 90
1
  0
XRECORD
  5
22F
330
209
100
AcDbXrecord
280
1
 40
228.9754567334506419
  0
XRECORD
  5
230
330
209
100
AcDbXrecord
280
1
 40
-230.9240307153392564
  0
XRECORD
  5
231
330
209
100
AcDbXrecord
280
1
1000
Portrait
  0
XRECORD
  5
232
330
209
100
AcDbXrecord
280
1
 40
279.3999999999999773
  0
XRECORD
  5
233
330
209
100
AcDbXrecord
280
1
 40
215.9000000000000057
  0
XRECORD
  5
234
330
209
100
AcDbXrecord
280
1
1000
1:1
  0
XRECORD
  5
235
330
209
100
AcDbXrecord
280
1
290
1
  0
XRECORD
  5
236
330
209
100
AcDbXrecord
280
1
 90
4
  0
ENDSEC
  0
EOF
