999
dxflib 3.3.4.0
  0
SECTION
  2
HEADER
  9
$ACADVER
  1
AC1015
  9
$HANDSEED
  5
FFFF
  9
$DIMADEC
 70
0
  9
$DIMASZ
 40
2.5
  9
$DIMAUNIT
 70
0
  9
$DIMAZIN
 70
2
  9
$DIMDEC
 70
4
  9
$DIMEXE
 40
1.25
  9
$DIMEXO
 40
0.625
  9
$DIMGAP
 40
0.625
  9
$DIMLUNIT
 70
2
  9
$DIMTSZ
 40
0.0
  9
$DIMTXT
 40
2.5
  9
$DIMZIN
 70
8
  9
$DWGCODEPAGE
  3
ANSI_1252
  9
$INSUNITS
 70
4
  9
$LTSCALE
 40
1.0
  0
ENDSEC
  0
SECTION
  2
TABLES
  0
TABLE
  2
VPORT
  5
8
100
AcDbSymbolTable
 70
1
  0
VPORT
  5
30
100
AcDbSymbolTableRecord
100
AcDbViewportTableRecord
  2
*Active
 70
0
 10
0.0
 20
0.0
 11
1.0
 21
1.0
 12
286.3055555555554861
 22
148.5
 13
0.0
 23
0.0
 14
10.0
 24
10.0
 15
10.0
 25
10.0
 16
0.0
 26
0.0
 36
1.0
 17
0.0
 27
0.0
 37
0.0
 40
297.0
 41
1.92798353909465
 42
50.0
 43
0.0
 44
0.0
 50
0.0
 51
0.0
 71
0
 72
100
 73
1
 74
3
 75
1
 76
1
 77
0
 78
0
281
0
 65
1
110
0.0
120
0.0
130
0.0
111
1.0
121
0.0
131
0.0
112
0.0
122
1.0
132
0.0
 79
0
146
0.0
  0
ENDTAB
  0
TABLE
  2
LTYPE
  5
5
100
AcDbSymbolTable
 70
21
  0
LTYPE
  5
16
100
AcDbSymbolTableRecord
100
AcDbLinetypeTableRecord
  2
CONTINUOUS
 70
0
  3
Solid line
 72
65
 73
0
 40
0.0
  0
LTYPE
  5
31
100
AcDbSymbolTableRecord
100
AcDbLinetypeTableRecord
  2
CENTER2
 70
0
  3
Center (.5x) ___ _ ___ _ ___ _ ___ _ ___ _ ___
 72
65
 73
4
 40
28.5749999999999993
 49
19.0500000000000007
 74
0
 49
-3.1749999999999998
 74
0
 49
3.1749999999999998
 74
0
 49
-3.1749999999999998
 74
0
  0
LTYPE
  5
32
100
AcDbSymbolTableRecord
100
AcDbLinetypeTableRecord
  2
DIVIDEX2
 70
0
  3
Divide (2x) ________  .  .  ________  .  .  _
 72
65
 73
6
 40
63.5
 49
25.3999999999999986
 74
0
 49
-12.6999999999999993
 74
0
 49
0.0
 74
0
 49
-12.6999999999999993
 74
0
 49
0.0
 74
0
 49
-12.6999999999999993
 74
0
  0
LTYPE
  5
33
100
AcDbSymbolTableRecord
100
AcDbLinetypeTableRecord
  2
DOT2
 70
0
  3
Dot (.5x) .....................................
 72
65
 73
2
 40
3.1749999999999998
 49
0.0
 74
0
 49
-3.1749999999999998
 74
0
  0
LTYPE
  5
34
100
AcDbSymbolTableRecord
100
AcDbLinetypeTableRecord
  2
DASHDOT2
 70
0
  3
Dash dot (.5x) _._._._._._._._._._._._._._._.
 72
65
 73
4
 40
12.6999999999999993
 49
6.3499999999999996
 74
0
 49
-3.1749999999999998
 74
0
 49
0.0
 74
0
 49
-3.1749999999999998
 74
0
  0
LTYPE
  5
35
100
AcDbSymbolTableRecord
100
AcDbLinetypeTableRecord
  2
DIVIDE
 70
0
  3
Divide ____ . . ____ . . ____ . . ____ . . ____
 72
65
 73
6
 40
31.75
 49
12.6999999999999993
 74
0
 49
-6.3499999999999996
 74
0
 49
0.0
 74
0
 49
-6.3499999999999996
 74
0
 49
0.0
 74
0
 49
-6.3499999999999996
 74
0
  0
LTYPE
  5
36
100
AcDbSymbolTableRecord
100
AcDbLinetypeTableRecord
  2
DASHDOT
 70
0
  3
Dash dot __ . __ . __ . __ . __ . __ . __ . __
 72
65
 73
4
 40
25.3999999999999986
 49
12.6999999999999993
 74
0
 49
-6.3499999999999996
 74
0
 49
0.0
 74
0
 49
-6.3499999999999996
 74
0
  0
LTYPE
  5
37
100
AcDbSymbolTableRecord
100
AcDbLinetypeTableRecord
  2
BORDER
 70
0
  3
Border __ __ . __ __ . __ __ . __ __ . __ __ .
 72
65
 73
6
 40
44.4500000000000028
 49
12.6999999999999993
 74
0
 49
-6.3499999999999996
 74
0
 49
12.6999999999999993
 74
0
 49
-6.3499999999999996
 74
0
 49
0.0
 74
0
 49
-6.3499999999999996
 74
0
  0
LTYPE
  5
38
100
AcDbSymbolTableRecord
100
AcDbLinetypeTableRecord
  2
DASHDOTX2
 70
0
  3
Dash dot (2x) ____  .  ____  .  ____  .  ___
 72
65
 73
4
 40
50.7999999999999972
 49
25.3999999999999986
 74
0
 49
-12.6999999999999993
 74
0
 49
0.0
 74
0
 49
-12.6999999999999993
 74
0
  0
LTYPE
  5
39
100
AcDbSymbolTableRecord
100
AcDbLinetypeTableRecord
  2
CENTERX2
 70
0
  3
Center (2x) ________  __  ________  __  _____
 72
65
 73
4
 40
101.5999999999999943
 49
63.5
 74
0
 49
-12.6999999999999993
 74
0
 49
12.6999999999999993
 74
0
 49
-12.6999999999999993
 74
0
  0
LTYPE
  5
3A
100
AcDbSymbolTableRecord
100
AcDbLinetypeTableRecord
  2
BORDER2
 70
0
  3
Border (.5x) __.__.__.__.__.__.__.__.__.__.__.
 72
65
 73
6
 40
22.2250000000000014
 49
6.3499999999999996
 74
0
 49
-3.1749999999999998
 74
0
 49
6.3499999999999996
 74
0
 49
-3.1749999999999998
 74
0
 49
0.0
 74
0
 49
-3.1749999999999998
 74
0
  0
LTYPE
  5
3B
100
AcDbSymbolTableRecord
100
AcDbLinetypeTableRecord
  2
BORDERX2
 70
0
  3
Border (2x) ____  ____  .  ____  ____  .  ___
 72
65
 73
6
 40
88.9000000000000057
 49
25.3999999999999986
 74
0
 49
-12.6999999999999993
 74
0
 49
25.3999999999999986
 74
0
 49
-12.6999999999999993
 74
0
 49
0.0
 74
0
 49
-12.6999999999999993
 74
0
  0
LTYPE
  5
14
100
AcDbSymbolTableRecord
100
AcDbLinetypeTableRecord
  2
BYBLOCK
 70
0
  3

 72
65
 73
0
 40
0.0
  0
LTYPE
  5
15
100
AcDbSymbolTableRecord
100
AcDbLinetypeTableRecord
  2
BYLAYER
 70
0
  3

 72
65
 73
0
 40
0.0
  0
LTYPE
  5
3C
100
AcDbSymbolTableRecord
100
AcDbLinetypeTableRecord
  2
DASHED2
 70
0
  3
Dashed (.5x) _ _ _ _ _ _ _ _ _ _ _ _ _ _ _ _ _
 72
65
 73
2
 40
9.5250000000000004
 49
6.3499999999999996
 74
0
 49
-3.1749999999999998
 74
0
  0
LTYPE
  5
3D
100
AcDbSymbolTableRecord
100
AcDbLinetypeTableRecord
  2
CENTER
 70
0
  3
Center ____ _ ____ _ ____ _ ____ _ ____ _ ____
 72
65
 73
4
 40
50.7999999999999972
 49
31.75
 74
0
 49
-6.3499999999999996
 74
0
 49
6.3499999999999996
 74
0
 49
-6.3499999999999996
 74
0
  0
LTYPE
  5
3E
100
AcDbSymbolTableRecord
100
AcDbLinetypeTableRecord
  2
DIVIDE2
 70
0
  3
Divide (.5x) __..__..__..__..__..__..__..__.._
 72
65
 73
6
 40
15.875
 49
6.3499999999999996
 74
0
 49
-3.1749999999999998
 74
0
 49
0.0
 74
0
 49
-3.1749999999999998
 74
0
 49
0.0
 74
0
 49
-3.1749999999999998
 74
0
  0
LTYPE
  5
3F
100
AcDbSymbolTableRecord
100
AcDbLinetypeTableRecord
  2
DASHED
 70
0
  3
Dashed __ __ __ __ __ __ __ __ __ __ __ __ __ _
 72
65
 73
2
 40
19.0500000000000007
 49
12.6999999999999993
 74
0
 49
-6.3499999999999996
 74
0
  0
LTYPE
  5
40
100
AcDbSymbolTableRecord
100
AcDbLinetypeTableRecord
  2
DOTX2
 70
0
  3
Dot (2x) .  .  .  .  .  .  .  .  .  .  .  .  .
 72
65
 73
2
 40
12.6999999999999993
 49
0.0
 74
0
 49
-12.6999999999999993
 74
0
  0
LTYPE
  5
41
100
AcDbSymbolTableRecord
100
AcDbLinetypeTableRecord
  2
DASHEDX2
 70
0
  3
Dashed (2x) ____  ____  ____  ____  ____  ___
 72
65
 73
2
 40
38.1000000000000014
 49
25.3999999999999986
 74
0
 49
-12.6999999999999993
 74
0
  0
LTYPE
  5
42
100
AcDbSymbolTableRecord
100
AcDbLinetypeTableRecord
  2
DOT
 70
0
  3
Dot . . . . . . . . . . . . . . . . . . . . . .
 72
65
 73
2
 40
6.3499999999999996
 49
0.0
 74
0
 49
-6.3499999999999996
 74
0
  0
ENDTAB
  0
TABLE
  2
LAYER
  5
2
100
AcDbSymbolTable
 70
9
  0
LAYER
  5
43
100
AcDbSymbolTableRecord
100
AcDbLayerTableRecord
  2
dowels
 70
1
 62
-14
420
8388608
  6
CONTINUOUS
370
25
390
F
  0
LAYER
  5
44
100
AcDbSymbolTableRecord
100
AcDbLayerTableRecord
  2
bracing_top
 70
1
 62
-94
420
32768
  6
CONTINUOUS
370
25
390
F
  0
LAYER
  5
45
100
AcDbSymbolTableRecord
100
AcDbLayerTableRecord
  2
frets
 70
0
 62
7
420
0
  6
CONTINUOUS
370
13
390
F
  0
LAYER
  5
46
100
AcDbSymbolTableRecord
100
AcDbLayerTableRecord
  2
guides
 70
0
 62
252
420
10526884
  6
CONTINUOUS
370
25
390
F
  0
LAYER
  5
47
100
AcDbSymbolTableRecord
100
AcDbLayerTableRecord
  2
dimensions
 70
1
 62
-5
420
255
  6
DASHED
370
25
390
F
  0
LAYER
  5
48
100
AcDbSymbolTableRecord
100
AcDbLayerTableRecord
  2
rosette
 70
0
 62
7
420
0
  6
CONTINUOUS
370
25
390
F
  0
LAYER
  5
10
100
AcDbSymbolTableRecord
100
AcDbLayerTableRecord
  2
0
 70
0
 62
7
420
0
  6
CONTINUOUS
370
25
390
F
  0
LAYER
  5
49
100
AcDbSymbolTableRecord
100
AcDbLayerTableRecord
  2
strings
 70
0
 62
7
420
0
  6
CONTINUOUS
370
25
390
F
  0
LAYER
  5
4A
100
AcDbSymbolTableRecord
100
AcDbLayerTableRecord
  2
bracing_back
 70
1
 62
-54
420
8421376
  6
CONTINUOUS
370
25
390
F
  0
ENDTAB
  0
TABLE
  2
STYLE
  5
3
100
AcDbSymbolTable
 70
6
  0
STYLE
  5
4B
100
AcDbSymbolTableRecord
100
AcDbTextStyleTableRecord
  2
Standard
 70
0
 40
0.0
 41
1.0
 50
0.0
 71
0
 42
2.5
  3

  4

1001
ACAD
1000
txt
1071
0
  0
STYLE
  5
4C
100
AcDbSymbolTableRecord
100
AcDbTextStyleTableRecord
  2
textstyle0
 70
0
 40
0.0
 41
1.0
 50
0.0
 71
0
 42
1.0
  3

  4

1001
ACAD
1000
Arial
1071
0
  0
STYLE
  5
4D
100
AcDbSymbolTableRecord
100
AcDbTextStyleTableRecord
  2
textstyle1
 70
0
 40
0.0
 41
1.0
 50
0.0
 71
0
 42
1.0
  3

  4

1001
ACAD
1000
Arial
1071
0
  0
STYLE
  5
4E
100
AcDbSymbolTableRecord
100
AcDbTextStyleTableRecord
  2
textstyle2
 70
0
 40
0.0
 41
1.0
 50
0.0
 71
0
 42
1.0
  3

  4

1001
ACAD
1000
Arial
1071
0
  0
STYLE
  5
4F
100
AcDbSymbolTableRecord
100
AcDbTextStyleTableRecord
  2
textstyle3
 70
0
 40
0.0
 41
1.0
 50
0.0
 71
0
 42
1.0
  3

  4

1001
ACAD
1000
Arial
1071
0
  0
STYLE
  5
50
100
AcDbSymbolTableRecord
100
AcDbTextStyleTableRecord
  2
textstyle4
 70
0
 40
0.0
 41
1.0
 50
0.0
 71
0
 42
1.0
  3

  4

1001
ACAD
1000
Arial
1071
0
  0
ENDTAB
  0
TABLE
  2
VIEW
  5
6
100
AcDbSymbolTable
 70
0
  0
ENDTAB
  0
TABLE
  2
UCS
  5
7
100
AcDbSymbolTable
 70
0
  0
ENDTAB
  0
TABLE
  2
APPID
  5
9
100
AcDbSymbolTable
 70
1
  0
APPID
  5
12
100
AcDbSymbolTableRecord
100
AcDbRegAppTableRecord
  2
ACAD
 70
0
  0
APPID
  5
51
100
AcDbSymbolTableRecord
100
AcDbRegAppTableRecord
  2
QCAD
 70
0
  0
ENDTAB
  0
TABLE
  2
DIMSTYLE
  5
A
100
AcDbSymbolTable
 70
1
100
AcDbDimStyleTable
 71
0
  0
DIMSTYLE
105
27
100
AcDbSymbolTableRecord
100
AcDbDimStyleTableRecord
  2
Standard
 41
2.5
 42
0.625
 43
3.75
 44
1.25
 70
0
 73
0
 74
0
 77
1
 78
8
140
2.5
141
2.5
143
0.03937007874016
147
0.625
171
3
172
1
271
2
272
2
274
3
278
44
283
0
284
8
340
4B
  0
ENDTAB
  0
TABLE
  2
BLOCK_RECORD
  5
1
100
AcDbSymbolTable
 70
1
  0
BLOCK_RECORD
  5
1F
100
AcDbSymbolTableRecord
100
AcDbBlockTableRecord
  2
*Model_Space
340
22
  0
BLOCK_RECORD
  5
1B
100
AcDbSymbolTableRecord
100
AcDbBlockTableRecord
  2
*Paper_Space
340
1E
  0
BLOCK_RECORD
  5
23
100
AcDbSymbolTableRecord
100
AcDbBlockTableRecord
  2
*Paper_Space0
340
26
  0
BLOCK_RECORD
  5
52
100
AcDbSymbolTableRecord
100
AcDbBlockTableRecord
  2
tuner
340
0
  0
BLOCK_RECORD
  5
53
100
AcDbSymbolTableRecord
100
AcDbBlockTableRecord
  2
classical_tuners
340
0
  0
ENDTAB
  0
ENDSEC
  0
SECTION
  2
BLOCKS
  0
BLOCK
  5
20
100
AcDbEntity
  8
0
100
AcDbBlockBegin
  2
*Model_Space
 70
0
 10
0.0
 20
0.0
 30
0.0
  3
*Model_Space
  1

  0
ENDBLK
  5
21
100
AcDbEntity
  8
0
100
AcDbBlockEnd
  0
BLOCK
  5
1C
100
AcDbEntity
 67
1
  8
0
100
AcDbBlockBegin
  2
*Paper_Space
 70
0
 10
0.0
 20
0.0
 30
0.0
  3
*Paper_Space
  1

  0
ENDBLK
  5
1D
100
AcDbEntity
 67
1
  8
0
100
AcDbBlockEnd
  0
BLOCK
  5
24
100
AcDbEntity
  8
0
100
AcDbBlockBegin
  2
*Paper_Space0
 70
0
 10
0.0
 20
0.0
 30
0.0
  3
*Paper_Space0
  1

  0
ENDBLK
  5
25
100
AcDbEntity
  8
0
100
AcDbBlockEnd
  0
BLOCK
  5
54
100
AcDbEntity
  8
0
100
AcDbBlockBegin
  2
tuner
 70
0
 10
0.0
 20
0.0
 30
0.0
  3
tuner
  1

  0
LINE
  5
55
100
AcDbEntity
100
AcDbLine
  8
0
 62
256
370
-1
  6
BYLAYER
 10
-19.0
 20
-27.0
 30
0.0
 11
3.0
 21
-27.0
 31
0.0
  0
LINE
  5
56
100
AcDbEntity
100
AcDbLine
  8
0
 62
256
370
-1
  6
BYLAYER
 10
3.0
 20
-27.0
 30
0.0
 11
3.0
 21
-17.0
 31
0.0
  0
LINE
  5
57
100
AcDbEntity
100
AcDbLine
  8
0
 62
256
370
-1
  6
BYLAYER
 10
3.0
 20
-17.0
 30
0.0
 11
-19.0
 21
-17.0
 31
0.0
  0
LINE
  5
58
100
AcDbEntity
100
AcDbLine
  8
0
 62
256
370
-1
  6
BYLAYER
 10
-19.0
 20
-17.0
 30
0.0
 11
-19.0
 21
-27.0
 31
0.0
  0
LINE
  5
59
100
AcDbEntity
100
AcDbLine
  8
0
 62
256
370
-1
  6
BYLAYER
 10
-11.0
 20
-17.0
 30
0.0
 11
-11.0
 21
-7.5
 31
0.0
  0
LINE
  5
5A
100
AcDbEntity
100
AcDbLine
  8
0
 62
256
370
-1
  6
BYLAYER
 10
-7.0
 20
-17.0
 30
0.0
 11
-7.0
 21
-7.5
 31
0.0
  0
LINE
  5
5B
100
AcDbEntity
100
AcDbLine
  8
0
 62
256
370
-1
  6
BYLAYER
 10
11.0
 20
-3.0
 30
0.0
 11
4.0
 21
8.0
 31
0.0
  0
LINE
  5
5C
100
AcDbEntity
100
AcDbLine
  8
0
 62
256
370
-1
  6
BYLAYER
 10
-12.0
 20
-7.5
 30
0.0
 11
-19.0
 21
3.5
 31
0.0
  0
LINE
  5
5D
100
AcDbEntity
100
AcDbLine
  8
0
 62
256
370
-1
  6
BYLAYER
 10
-12.0
 20
-7.5
 30
0.0
 11
11.0
 21
-7.5
 31
0.0
  0
LINE
  5
5E
100
AcDbEntity
100
AcDbLine
  8
0
 62
256
370
-1
  6
BYLAYER
 10
11.0
 20
-7.5
 30
0.0
 11
11.0
 21
-3.0
 31
0.0
  0
LINE
  5
5F
100
AcDbEntity
100
AcDbLine
  8
0
 62
256
370
-1
  6
BYLAYER
 10
4.0
 20
8.0
 30
0.0
 11
-19.0
 21
8.0
 31
0.0
  0
LINE
  5
60
100
AcDbEntity
100
AcDbLine
  8
0
 62
256
370
-1
  6
BYLAYER
 10
-19.0
 20
8.0
 30
0.0
 11
-19.0
 21
3.5
 31
0.0
  0
CIRCLE
  5
61
100
AcDbEntity
100
AcDbCircle
  8
0
 62
256
370
-1
  6
BYLAYER
 10
0.0
 20
0.0
 30
0.0
 40
2.0
  0
LINE
  5
62
100
AcDbEntity
100
AcDbLine
  8
0
 62
256
370
-1
  6
BYLAYER
 10
-19.0
 20
-27.0
 30
0.0
 11
3.0
 21
-27.0
 31
0.0
  0
LINE
  5
63
100
AcDbEntity
100
AcDbLine
  8
0
 62
256
370
-1
  6
BYLAYER
 10
3.0
 20
-27.0
 30
0.0
 11
3.0
 21
-17.0
 31
0.0
  0
LINE
  5
64
100
AcDbEntity
100
AcDbLine
  8
0
 62
256
370
-1
  6
BYLAYER
 10
3.0
 20
-17.0
 30
0.0
 11
-19.0
 21
-17.0
 31
0.0
  0
LINE
  5
65
100
AcDbEntity
100
AcDbLine
  8
0
 62
256
370
-1
  6
BYLAYER
 10
-19.0
 20
-17.0
 30
0.0
 11
-19.0
 21
-27.0
 31
0.0
  0
LINE
  5
66
100
AcDbEntity
100
AcDbLine
  8
0
 62
256
370
-1
  6
BYLAYER
 10
-11.0
 20
-17.0
 30
0.0
 11
-11.0
 21
-7.5
 31
0.0
  0
LINE
  5
67
100
AcDbEntity
100
AcDbLine
  8
0
 62
256
370
-1
  6
BYLAYER
 10
-7.0
 20
-17.0
 30
0.0
 11
-7.0
 21
-7.5
 31
0.0
  0
LINE
  5
68
100
AcDbEntity
100
AcDbLine
  8
0
 62
256
370
-1
  6
BYLAYER
 10
11.0
 20
-3.0
 30
0.0
 11
4.0
 21
8.0
 31
0.0
  0
LINE
  5
69
100
AcDbEntity
100
AcDbLine
  8
0
 62
256
370
-1
  6
BYLAYER
 10
-12.0
 20
-7.5
 30
0.0
 11
-19.0
 21
3.5
 31
0.0
  0
LINE
  5
6A
100
AcDbEntity
100
AcDbLine
  8
0
 62
256
370
-1
  6
BYLAYER
 10
-12.0
 20
-7.5
 30
0.0
 11
11.0
 21
-7.5
 31
0.0
  0
LINE
  5
6B
100
AcDbEntity
100
AcDbLine
  8
0
 62
256
370
-1
  6
BYLAYER
 10
11.0
 20
-7.5
 30
0.0
 11
11.0
 21
-3.0
 31
0.0
  0
LINE
  5
6C
100
AcDbEntity
100
AcDbLine
  8
0
 62
256
370
-1
  6
BYLAYER
 10
4.0
 20
8.0
 30
0.0
 11
-19.0
 21
8.0
 31
0.0
  0
LINE
  5
6D
100
AcDbEntity
100
AcDbLine
  8
0
 62
256
370
-1
  6
BYLAYER
 10
-19.0
 20
8.0
 30
0.0
 11
-19.0
 21
3.5
 31
0.0
  0
CIRCLE
  5
6E
100
AcDbEntity
100
AcDbCircle
  8
0
 62
256
370
-1
  6
BYLAYER
 10
0.0
 20
0.0
 30
0.0
 40
2.0
  0
LINE
  5
6F
100
AcDbEntity
100
AcDbLine
  8
0
 62
256
370
-1
  6
BYLAYER
 10
-19.0
 20
-27.0
 30
0.0
 11
3.0
 21
-27.0
 31
0.0
  0
LINE
  5
70
100
AcDbEntity
100
AcDbLine
  8
0
 62
256
370
-1
  6
BYLAYER
 10
3.0
 20
-27.0
 30
0.0
 11
3.0
 21
-17.0
 31
0.0
  0
LINE
  5
71
100
AcDbEntity
100
AcDbLine
  8
0
 62
256
370
-1
  6
BYLAYER
 10
3.0
 20
-17.0
 30
0.0
 11
-19.0
 21
-17.0
 31
0.0
  0
LINE
  5
72
100
AcDbEntity
100
AcDbLine
  8
0
 62
256
370
-1
  6
BYLAYER
 10
-19.0
 20
-17.0
 30
0.0
 11
-19.0
 21
-27.0
 31
0.0
  0
LINE
  5
73
100
AcDbEntity
100
AcDbLine
  8
0
 62
256
370
-1
  6
BYLAYER
 10
-11.0
 20
-17.0
 30
0.0
 11
-11.0
 21
-7.5
 31
0.0
  0
LINE
  5
74
100
AcDbEntity
100
AcDbLine
  8
0
 62
256
370
-1
  6
BYLAYER
 10
-7.0
 20
-17.0
 30
0.0
 11
-7.0
 21
-7.5
 31
0.0
  0
LINE
  5
75
100
AcDbEntity
100
AcDbLine
  8
0
 62
256
370
-1
  6
BYLAYER
 10
11.0
 20
-3.0
 30
0.0
 11
4.0
 21
8.0
 31
0.0
  0
LINE
  5
76
100
AcDbEntity
100
AcDbLine
  8
0
 62
256
370
-1
  6
BYLAYER
 10
-12.0
 20
-7.5
 30
0.0
 11
-19.0
 21
3.5
 31
0.0
  0
LINE
  5
77
100
AcDbEntity
100
AcDbLine
  8
0
 62
256
370
-1
  6
BYLAYER
 10
-12.0
 20
-7.5
 30
0.0
 11
11.0
 21
-7.5
 31
0.0
  0
LINE
  5
78
100
AcDbEntity
100
AcDbLine
  8
0
 62
256
370
-1
  6
BYLAYER
 10
11.0
 20
-7.5
 30
0.0
 11
11.0
 21
-3.0
 31
0.0
  0
LINE
  5
79
100
AcDbEntity
100
AcDbLine
  8
0
 62
256
370
-1
  6
BYLAYER
 10
4.0
 20
8.0
 30
0.0
 11
-19.0
 21
8.0
 31
0.0
  0
LINE
  5
7A
100
AcDbEntity
100
AcDbLine
  8
0
 62
256
370
-1
  6
BYLAYER
 10
-19.0
 20
8.0
 30
0.0
 11
-19.0
 21
3.5
 31
0.0
  0
CIRCLE
  5
7B
100
AcDbEntity
100
AcDbCircle
  8
0
 62
256
370
-1
  6
BYLAYER
 10
0.0
 20
0.0
 30
0.0
 40
2.0
  0
LINE
  5
7C
100
AcDbEntity
100
AcDbLine
  8
0
 62
256
370
-1
  6
BYLAYER
 10
-19.0
 20
-27.0
 30
0.0
 11
3.0
 21
-27.0
 31
0.0
  0
LINE
  5
7D
100
AcDbEntity
100
AcDbLine
  8
0
 62
256
370
-1
  6
BYLAYER
 10
3.0
 20
-27.0
 30
0.0
 11
3.0
 21
-17.0
 31
0.0
  0
LINE
  5
7E
100
AcDbEntity
100
AcDbLine
  8
0
 62
256
370
-1
  6
BYLAYER
 10
3.0
 20
-17.0
 30
0.0
 11
-19.0
 21
-17.0
 31
0.0
  0
LINE
  5
7F
100
AcDbEntity
100
AcDbLine
  8
0
 62
256
370
-1
  6
BYLAYER
 10
-19.0
 20
-17.0
 30
0.0
 11
-19.0
 21
-27.0
 31
0.0
  0
LINE
  5
80
100
AcDbEntity
100
AcDbLine
  8
0
 62
256
370
-1
  6
BYLAYER
 10
-11.0
 20
-17.0
 30
0.0
 11
-11.0
 21
-7.5
 31
0.0
  0
LINE
  5
81
100
AcDbEntity
100
AcDbLine
  8
0
 62
256
370
-1
  6
BYLAYER
 10
-7.0
 20
-17.0
 30
0.0
 11
-7.0
 21
-7.5
 31
0.0
  0
LINE
  5
82
100
AcDbEntity
100
AcDbLine
  8
0
 62
256
370
-1
  6
BYLAYER
 10
11.0
 20
-3.0
 30
0.0
 11
4.0
 21
8.0
 31
0.0
  0
LINE
  5
83
100
AcDbEntity
100
AcDbLine
  8
0
 62
256
370
-1
  6
BYLAYER
 10
-12.0
 20
-7.5
 30
0.0
 11
-19.0
 21
3.5
 31
0.0
  0
LINE
  5
84
100
AcDbEntity
100
AcDbLine
  8
0
 62
256
370
-1
  6
BYLAYER
 10
-12.0
 20
-7.5
 30
0.0
 11
11.0
 21
-7.5
 31
0.0
  0
LINE
  5
85
100
AcDbEntity
100
AcDbLine
  8
0
 62
256
370
-1
  6
BYLAYER
 10
11.0
 20
-7.5
 30
0.0
 11
11.0
 21
-3.0
 31
0.0
  0
LINE
  5
86
100
AcDbEntity
100
AcDbLine
  8
0
 62
256
370
-1
  6
BYLAYER
 10
4.0
 20
8.0
 30
0.0
 11
-19.0
 21
8.0
 31
0.0
  0
LINE
  5
87
100
AcDbEntity
100
AcDbLine
  8
0
 62
256
370
-1
  6
BYLAYER
 10
-19.0
 20
8.0
 30
0.0
 11
-19.0
 21
3.5
 31
0.0
  0
CIRCLE
  5
88
100
AcDbEntity
100
AcDbCircle
  8
0
 62
256
370
-1
  6
BYLAYER
 10
0.0
 20
0.0
 30
0.0
 40
2.0
  0
ENDBLK
  5
89
100
AcDbEntity
  8
0
100
AcDbBlockEnd
  0
BLOCK
  5
8A
100
AcDbEntity
  8
0
100
AcDbBlockBegin
  2
classical_tuners
 70
0
 10
0.0
 20
0.0
 30
0.0
  3
classical_tuners
  1

  0
LINE
  5
8B
100
AcDbEntity
100
AcDbLine
  8
0
 62
256
370
-1
  6
BYLAYER
 10
-42.0
 20
1.0
 30
0.0
 11
-42.0
 21
29.0
 31
0.0
  0
LINE
  5
8C
100
AcDbEntity
100
AcDbLine
  8
0
 62
256
370
-1
  6
BYLAYER
 10
-42.0
 20
29.0
 30
0.0
 11
-48.0
 21
29.0
 31
0.0
  0
LINE
  5
8D
100
AcDbEntity
100
AcDbLine
  8
0
 62
256
370
-1
  6
BYLAYER
 10
-48.0
 20
29.0
 30
0.0
 11
-48.0
 21
1.0
 31
0.0
  0
LINE
  5
8E
100
AcDbEntity
100
AcDbLine
  8
0
 62
256
370
-1
  6
BYLAYER
 10
-7.0
 20
1.0
 30
0.0
 11
-7.0
 21
29.0
 31
0.0
  0
LINE
  5
8F
100
AcDbEntity
100
AcDbLine
  8
0
 62
256
370
-1
  6
BYLAYER
 10
-7.0
 20
29.0
 30
0.0
 11
-13.0
 21
29.0
 31
0.0
  0
LINE
  5
90
100
AcDbEntity
100
AcDbLine
  8
0
 62
256
370
-1
  6
BYLAYER
 10
-13.0
 20
29.0
 30
0.0
 11
-13.0
 21
1.0
 31
0.0
  0
LINE
  5
91
100
AcDbEntity
100
AcDbLine
  8
0
 62
256
370
-1
  6
BYLAYER
 10
28.0
 20
1.0
 30
0.0
 11
28.0
 21
29.0
 31
0.0
  0
LINE
  5
92
100
AcDbEntity
100
AcDbLine
  8
0
 62
256
370
-1
  6
BYLAYER
 10
28.0
 20
29.0
 30
0.0
 11
22.0
 21
29.0
 31
0.0
  0
LINE
  5
93
100
AcDbEntity
100
AcDbLine
  8
0
 62
256
370
-1
  6
BYLAYER
 10
22.0
 20
29.0
 30
0.0
 11
22.0
 21
1.0
 31
0.0
  0
CIRCLE
  5
94
100
AcDbEntity
100
AcDbCircle
  8
0
 62
256
370
-1
  6
BYLAYER
 10
-45.0
 20
15.0
 30
0.0
 40
1.0
  0
CIRCLE
  5
95
100
AcDbEntity
100
AcDbCircle
  8
0
 62
256
370
-1
  6
BYLAYER
 10
-10.0
 20
15.0
 30
0.0
 40
1.0
  0
CIRCLE
  5
96
100
AcDbEntity
100
AcDbCircle
  8
0
 62
256
370
-1
  6
BYLAYER
 10
25.0
 20
15.0
 30
0.0
 40
1.0
  0
LINE
  5
97
100
AcDbEntity
100
AcDbLine
  8
0
 62
256
370
-1
  6
BYLAYER
 10
-62.5
 20
0.0
 30
0.0
 11
57.5
 21
0.0
 31
0.0
  0
LINE
  5
98
100
AcDbEntity
100
AcDbLine
  8
0
 62
256
370
-1
  6
BYLAYER
 10
57.5
 20
0.0
 30
0.0
 11
57.5
 21
1.0
 31
0.0
  0
LINE
  5
99
100
AcDbEntity
100
AcDbLine
  8
0
 62
256
370
-1
  6
BYLAYER
 10
57.5
 20
1.0
 30
0.0
 11
-62.5
 21
1.0
 31
0.0
  0
LINE
  5
9A
100
AcDbEntity
100
AcDbLine
  8
0
 62
256
370
-1
  6
BYLAYER
 10
-62.5
 20
1.0
 30
0.0
 11
-62.5
 21
0.0
 31
0.0
  0
CIRCLE
  5
9B
100
AcDbEntity
100
AcDbCircle
  8
0
 62
256
370
-1
  6
BYLAYER
 10
-39.0
 20
-3.0
 30
0.0
 40
3.0
  0
LINE
  5
9C
100
AcDbEntity
100
AcDbLine
  8
0
 62
256
370
-1
  6
BYLAYER
 10
-48.0
 20
-1.0
 30
0.0
 11
-42.0
 21
-1.0
 31
0.0
  0
LINE
  5
9D
100
AcDbEntity
100
AcDbLine
  8
0
 62
256
370
-1
  6
BYLAYER
 10
-42.0
 20
-1.0
 30
0.0
 11
-42.0
 21
-5.0
 31
0.0
  0
LINE
  5
9E
100
AcDbEntity
100
AcDbLine
  8
0
 62
256
370
-1
  6
BYLAYER
 10
-42.0
 20
-5.0
 30
0.0
 11
-48.0
 21
-5.0
 31
0.0
  0
LINE
  5
9F
100
AcDbEntity
100
AcDbLine
  8
0
 62
256
370
-1
  6
BYLAYER
 10
-48.0
 20
-5.0
 30
0.0
 11
-48.0
 21
-1.0
 31
0.0
  0
LINE
  5
A0
100
AcDbEntity
100
AcDbLine
  8
0
 62
256
370
-1
  6
BYLAYER
 10
-42.098076211353316
 20
-3.6339745962155621
 30
0.0
 11
-47.294228634059948
 21
-6.6339745962155607
 31
0.0
  0
LINE
  5
A1
100
AcDbEntity
100
AcDbLine
  8
0
 62
256
370
-1
  6
BYLAYER
 10
-47.294228634059948
 20
-6.6339745962155607
 30
0.0
 11
-46.294228634059948
 21
-8.366025403784441
 31
0.0
  0
LINE
  5
A2
100
AcDbEntity
100
AcDbLine
  8
0
 62
256
370
-1
  6
BYLAYER
 10
-46.294228634059948
 20
-8.366025403784441
 30
0.0
 11
-41.098076211353316
 21
-5.3660254037844393
 31
0.0
  0
LINE
  5
A3
100
AcDbEntity
100
AcDbLine
  8
0
 62
256
370
-1
  6
BYLAYER
 10
-35.901923788646684
 20
-2.3660254037844384
 30
0.0
 11
-30.705771365940052
 21
0.6339745962155563
 31
0.0
  0
LINE
  5
A4
100
AcDbEntity
100
AcDbLine
  8
0
 62
256
370
-1
  6
BYLAYER
 10
-30.705771365940052
 20
0.6339745962155563
 30
0.0
 11
-31.705771365940052
 21
2.3660254037844393
 31
0.0
  0
LINE
  5
A5
100
AcDbEntity
100
AcDbLine
  8
0
 62
256
370
-1
  6
BYLAYER
 10
-31.705771365940052
 20
2.3660254037844393
 30
0.0
 11
-36.901923788646684
 21
-0.6339745962155612
 31
0.0
  0
LINE
  5
A6
100
AcDbEntity
100
AcDbLine
  8
0
 62
256
370
-1
  6
BYLAYER
 10
-13.0
 20
-5.0
 30
0.0
 11
-13.0
 21
-1.0
 31
0.0
  0
LINE
  5
A7
100
AcDbEntity
100
AcDbLine
  8
0
 62
256
370
-1
  6
BYLAYER
 10
-7.098076211353316
 20
-3.6339745962155621
 30
0.0
 11
-12.294228634059948
 21
-6.6339745962155607
 31
0.0
  0
LINE
  5
A8
100
AcDbEntity
100
AcDbLine
  8
0
 62
256
370
-1
  6
BYLAYER
 10
-12.294228634059948
 20
-6.6339745962155607
 30
0.0
 11
-11.294228634059948
 21
-8.366025403784441
 31
0.0
  0
LINE
  5
A9
100
AcDbEntity
100
AcDbLine
  8
0
 62
256
370
-1
  6
BYLAYER
 10
-11.294228634059948
 20
-8.366025403784441
 30
0.0
 11
-6.098076211353316
 21
-5.3660254037844393
 31
0.0
  0
LINE
  5
AA
100
AcDbEntity
100
AcDbLine
  8
0
 62
256
370
-1
  6
BYLAYER
 10
-0.901923788646684
 20
-2.3660254037844384
 30
0.0
 11
4.294228634059948
 21
0.6339745962155563
 31
0.0
  0
LINE
  5
AB
100
AcDbEntity
100
AcDbLine
  8
0
 62
256
370
-1
  6
BYLAYER
 10
4.294228634059948
 20
0.6339745962155563
 30
0.0
 11
3.294228634059948
 21
2.3660254037844393
 31
0.0
  0
LINE
  5
AC
100
AcDbEntity
100
AcDbLine
  8
0
 62
256
370
-1
  6
BYLAYER
 10
3.294228634059948
 20
2.3660254037844393
 30
0.0
 11
-1.901923788646684
 21
-0.6339745962155612
 31
0.0
  0
CIRCLE
  5
AD
100
AcDbEntity
100
AcDbCircle
  8
0
 62
256
370
-1
  6
BYLAYER
 10
-4.0
 20
-3.0
 30
0.0
 40
3.0
  0
LINE
  5
AE
100
AcDbEntity
100
AcDbLine
  8
0
 62
256
370
-1
  6
BYLAYER
 10
-13.0
 20
-1.0
 30
0.0
 11
-7.0
 21
-1.0
 31
0.0
  0
LINE
  5
AF
100
AcDbEntity
100
AcDbLine
  8
0
 62
256
370
-1
  6
BYLAYER
 10
-7.0
 20
-1.0
 30
0.0
 11
-7.0
 21
-5.0
 31
0.0
  0
LINE
  5
B0
100
AcDbEntity
100
AcDbLine
  8
0
 62
256
370
-1
  6
BYLAYER
 10
-7.0
 20
-5.0
 30
0.0
 11
-13.0
 21
-5.0
 31
0.0
  0
LINE
  5
B1
100
AcDbEntity
100
AcDbLine
  8
0
 62
256
370
-1
  6
BYLAYER
 10
22.0
 20
-5.0
 30
0.0
 11
22.0
 21
-1.0
 31
0.0
  0
LINE
  5
B2
100
AcDbEntity
100
AcDbLine
  8
0
 62
256
370
-1
  6
BYLAYER
 10
27.901923788646684
 20
-3.6339745962155621
 30
0.0
 11
22.705771365940052
 21
-6.6339745962155607
 31
0.0
  0
LINE
  5
B3
100
AcDbEntity
100
AcDbLine
  8
0
 62
256
370
-1
  6
BYLAYER
 10
22.705771365940052
 20
-6.6339745962155607
 30
0.0
 11
23.705771365940052
 21
-8.366025403784441
 31
0.0
  0
LINE
  5
B4
100
AcDbEntity
100
AcDbLine
  8
0
 62
256
370
-1
  6
BYLAYER
 10
23.705771365940052
 20
-8.366025403784441
 30
0.0
 11
28.901923788646684
 21
-5.3660254037844393
 31
0.0
  0
LINE
  5
B5
100
AcDbEntity
100
AcDbLine
  8
0
 62
256
370
-1
  6
BYLAYER
 10
34.098076211353316
 20
-2.3660254037844384
 30
0.0
 11
39.294228634059948
 21
0.6339745962155563
 31
0.0
  0
LINE
  5
B6
100
AcDbEntity
100
AcDbLine
  8
0
 62
256
370
-1
  6
BYLAYER
 10
39.294228634059948
 20
0.6339745962155563
 30
0.0
 11
38.294228634059948
 21
2.3660254037844393
 31
0.0
  0
LINE
  5
B7
100
AcDbEntity
100
AcDbLine
  8
0
 62
256
370
-1
  6
BYLAYER
 10
38.294228634059948
 20
2.3660254037844393
 30
0.0
 11
33.098076211353316
 21
-0.6339745962155612
 31
0.0
  0
CIRCLE
  5
B8
100
AcDbEntity
100
AcDbCircle
  8
0
 62
256
370
-1
  6
BYLAYER
 10
31.0
 20
-3.0
 30
0.0
 40
3.0
  0
LINE
  5
B9
100
AcDbEntity
100
AcDbLine
  8
0
 62
256
370
-1
  6
BYLAYER
 10
22.0
 20
-1.0
 30
0.0
 11
28.0
 21
-1.0
 31
0.0
  0
LINE
  5
BA
100
AcDbEntity
100
AcDbLine
  8
0
 62
256
370
-1
  6
BYLAYER
 10
28.0
 20
-1.0
 30
0.0
 11
28.0
 21
-5.0
 31
0.0
  0
LINE
  5
BB
100
AcDbEntity
100
AcDbLine
  8
0
 62
256
370
-1
  6
BYLAYER
 10
28.0
 20
-5.0
 30
0.0
 11
22.0
 21
-5.0
 31
0.0
  0
ENDBLK
  5
BC
100
AcDbEntity
  8
0
100
AcDbBlockEnd
  0
ENDSEC
  0
SECTION
  2
ENTITIES
  0
LINE
  5
BD
100
AcDbEntity
100
AcDbLine
  8
0
 62
256
370
-1
  6
BYLAYER
 10
619.0000000000001137
 20
-0.0000000000001705
 30
0.0
 11
619.0000000000001137
 21
38.8039442692321899
 31
0.0
  0
LINE
  5
BE
100
AcDbEntity
100
AcDbLine
  8
0
 62
256
370
-1
  6
BYLAYER
 10
619.0188736835945065
 20
39.9999999999998295
 30
0.0
 11
619.8725461576278803
 21
94.0985997609458025
 31
0.0
  0
LINE
  5
BF
100
AcDbEntity
100
AcDbLine
  8
0
 62
256
370
-1
  6
BYLAYER
 10
650.22099629220304
 20
93.945718130104666
 30
0.0
 11
651.9833526288476833
 21
39.9999999999997868
 31
0.0
  0
LINE
  5
C0
100
AcDbEntity
100
AcDbLine
  8
0
 62
256
370
-1
  6
BYLAYER
 10
651.9833526288476833
 20
38.8039442692321899
 30
0.0
 11
651.9833526288476833
 21
-0.0000000000001705
 31
0.0
  0
LINE
  5
C1
100
AcDbEntity
100
AcDbLine
  8
0
 62
256
370
-1
  6
BYLAYER
 10
776.6431331740693622
 20
32.6199341119836674
 30
0.0
 11
759.239572461405487
 21
32.6199341119836674
 31
0.0
  0
LINE
  5
C2
100
AcDbEntity
100
AcDbLine
  8
0
 62
256
370
-1
  6
BYLAYER
 10
759.239572461405487
 20
32.6199341119836674
 30
0.0
 11
752.8188714519544646
 21
26.192662381731818
 31
0.0
  0
LINE
  5
C3
100
AcDbEntity
100
AcDbLine
  8
0
 62
256
370
-1
  6
BYLAYER
 10
752.8188714519544646
 20
26.192662381731818
 30
0.0
 11
752.8188714519544646
 21
0.0
 31
0.0
  0
LINE
  5
C4
100
AcDbEntity
100
AcDbLine
  8
0
 62
256
370
-1
  6
BYLAYER
 10
619.0000000000001137
 20
-0.0000000000001944
 30
0.0
 11
619.0000000000001137
 21
-38.8039442692326446
 31
0.0
  0
LINE
  5
C5
100
AcDbEntity
100
AcDbLine
  8
0
 62
256
370
-1
  6
BYLAYER
 10
651.9833526288476833
 20
-38.803944269232673
 30
0.0
 11
651.9833526288476833
 21
-0.000000000000207
 31
0.0
  0
LINE
  5
C6
100
AcDbEntity
100
AcDbLine
  8
0
 62
256
370
-1
  6
BYLAYER
 10
776.6431331740693622
 20
-32.6199341119837456
 30
0.0
 11
759.239572461405487
 21
-32.6199341119837669
 31
0.0
  0
LINE
  5
C7
100
AcDbEntity
100
AcDbLine
  8
0
 62
256
370
-1
  6
BYLAYER
 10
759.239572461405487
 20
-32.6199341119837669
 30
0.0
 11
752.8188714519544646
 21
-26.1926623817319317
 31
0.0
  0
LINE
  5
C8
100
AcDbEntity
100
AcDbLine
  8
0
 62
256
370
-1
  6
BYLAYER
 10
752.8188714519544646
 20
-26.1926623817319317
 30
0.0
 11
752.8188714519544646
 21
0.0
 31
0.0
  0
SPLINE
  5
C9
  8
0
 62
256
370
-1
  6
BYLAYER
100
AcDbEntity
100
AcDbSpline
 70
8
 71
3
 72
38
 73
34
 74
0
 40
0.0
 40
0.0
 40
0.0
 40
0.0
 40
1.0
 40
2.0
 40
3.0
 40
4.0
 40
5.0
 40
6.0
 40
7.0
 40
8.0
 40
9.0
 40
10.0
 40
11.0
 40
12.0
 40
13.0
 40
14.0
 40
15.0
 40
16.0
 40
17.0
 40
18.0
 40
19.0
 40
20.0
 40
21.0
 40
22.0
 40
23.0
 40
24.0
 40
25.0
 40
26.0
 40
27.0
 40
28.0
 40
29.0
 40
30.0
 40
31.0
 40
31.0
 40
31.0
 40
31.0
 10
330.1808863600397217
 20
40.0
 30
0.0
 10
330.3756729401154644
 20
46.7265493263234646
 30
0.0
 10
332.6867050709024625
 20
57.7564754050796623
 30
0.0
 10
338.1491446527627431
 20
70.3621052093724586
 30
0.0
 10
344.6769797952695171
 20
82.1014922687204063
 30
0.0
 10
356.1128071537239066
 20
97.7123042183566071
 30
0.0
 10
371.3184433437825192
 20
110.3094075711616
 30
0.0
 10
391.3404262658311836
 20
121.1546483206047213
 30
0.0
 10
412.8736900239584884
 20
123.3162158594314661
 30
0.0
 10
429.7695740911869962
 20
122.8311665560661794
 30
0.0
 10
444.4827362932712731
 20
119.5975045336300724
 30
0.0
 10
463.5029897140489084
 20
114.8977786574644568
 30
0.0
 10
480.6051001266325784
 20
108.6409089943241923
 30
0.0
 10
491.8674655202846679
 20
104.4696625522307016
 30
0.0
 10
499.7928337602625106
 20
103.6354132638119978
 30
0.0
 10
512.2279556633059201
 20
105.1268669832285951
 30
0.0
 10
524.7583960002455115
 20
111.5133494775398475
 30
0.0
 10
546.5107939117099249
 20
124.4916454742795935
 30
0.0
 10
573.6238957853174725
 20
140.7595065984442613
 30
0.0
 10
596.5657512168320409
 20
152.0218719920967203
 30
0.0
 10
619.5076066483463819
 20
158.6958662994462941
 30
0.0
 10
641.1980881472320561
 20
161.6157388089118854
 30
0.0
 10
661.416186730414438
 20
161.7579899821513436
 30
0.0
 10
687.1237998087810865
 20
156.8266553979363778
 30
0.0
 10
712.6697297860257549
 20
144.7812643643620447
 30
0.0
 10
727.1403673364268343
 20
133.7059719375185125
 30
0.0
 10
739.7785457287093323
 20
120.9460859985003225
 30
0.0
 10
752.2922850549896339
 20
103.0097262974982613
 30
0.0
 10
763.1375258044329257
 20
81.7363694428213563
 30
0.0
 10
768.1393362307042025
 20
70.0837538547864654
 30
0.0
 10
773.8118696426361112
 20
52.8560597889196444
 30
0.0
 10
776.164920539437162
 20
41.9731993912135337
 30
0.0
 10
776.6431331740693622
 20
32.6199341119836674
 30
0.0
 10
776.6431331740693622
 20
32.6199341119836674
 30
0.0
  0
LINE
  5
CA
100
AcDbEntity
100
AcDbLine
  8
bracing_top
 62
256
370
-1
  6
BYLAYER
 10
519.0389999999999873
 20
-99.9999999999998295
 30
0.0
 11
525.0389999999999873
 21
-99.9999999999998295
 31
0.0
  0
LINE
  5
CB
100
AcDbEntity
100
AcDbLine
  8
bracing_top
 62
256
370
-1
  6
BYLAYER
 10
525.0389999999999873
 20
100.0000000000001705
 30
0.0
 11
519.0389999999999873
 21
100.0000000000001705
 31
0.0
  0
LINE
  5
CC
100
AcDbEntity
100
AcDbLine
  8
bracing_top
 62
256
370
-1
  6
BYLAYER
 10
519.0389999999999873
 20
100.0000000000001705
 30
0.0
 11
519.0389999999999873
 21
-99.9999999999998295
 31
0.0
  0
LINE
  5
CD
100
AcDbEntity
100
AcDbLine
  8
bracing_top
 62
256
370
-1
  6
BYLAYER
 10
414.0389999999999873
 20
-114.9999999999998295
 30
0.0
 11
420.0389999999999873
 21
-114.9999999999998295
 31
0.0
  0
LINE
  5
CE
100
AcDbEntity
100
AcDbLine
  8
bracing_top
 62
256
370
-1
  6
BYLAYER
 10
420.0389999999999873
 20
-114.9999999999998295
 30
0.0
 11
420.0389999999999873
 21
115.0000000000001705
 31
0.0
  0
LINE
  5
CF
100
AcDbEntity
100
AcDbLine
  8
bracing_top
 62
256
370
-1
  6
BYLAYER
 10
420.0389999999999873
 20
115.0000000000001705
 30
0.0
 11
414.0389999999999873
 21
115.0000000000001705
 31
0.0
  0
LINE
  5
D0
100
AcDbEntity
100
AcDbLine
  8
bracing_top
 62
256
370
-1
  6
BYLAYER
 10
377.0389999999999873
 20
-74.9999999999998295
 30
0.0
 11
383.0389999999999873
 21
-74.9999999999998295
 31
0.0
  0
LINE
  5
D1
100
AcDbEntity
100
AcDbLine
  8
bracing_top
 62
256
370
-1
  6
BYLAYER
 10
383.0389999999999873
 20
75.0000000000001705
 30
0.0
 11
377.0389999999999873
 21
75.0000000000001705
 31
0.0
  0
LINE
  5
D2
100
AcDbEntity
100
AcDbLine
  8
bracing_top
 62
256
370
-1
  6
BYLAYER
 10
751.5246509352293742
 20
-1.1299352437262433
 30
0.0
 11
688.5912436929972955
 21
-137.4856509352293585
 31
0.0
  0
LINE
  5
D3
100
AcDbEntity
100
AcDbLine
  8
bracing_top
 62
256
370
-1
  6
BYLAYER
 10
688.5912436929972955
 20
-137.4856509352293585
 30
0.0
 11
691.315121846498414
 21
-138.7428254676146082
 31
0.0
  0
LINE
  5
D4
100
AcDbEntity
100
AcDbLine
  8
bracing_top
 62
256
370
-1
  6
BYLAYER
 10
734.0389999999999873
 20
-1.4999999999998295
 30
0.0
 11
734.0389999999999873
 21
1.5000000000001705
 31
0.0
  0
LINE
  5
D5
100
AcDbEntity
100
AcDbLine
  8
bracing_top
 62
256
370
-1
  6
BYLAYER
 10
751.5246509352293742
 20
-1.1299352437261909
 30
0.0
 11
754.2485290887309475
 21
-2.3871097761113926
 31
0.0
  0
LINE
  5
D6
100
AcDbEntity
100
AcDbLine
  8
bracing_top
 62
256
370
-1
  6
BYLAYER
 10
519.0389999999999873
 20
58.3333333333335062
 30
0.0
 11
420.0389999999999873
 21
91.3333333333335133
 31
0.0
  0
LINE
  5
D7
100
AcDbEntity
100
AcDbLine
  8
bracing_top
 62
256
370
-1
  6
BYLAYER
 10
519.0389999999999873
 20
-57.2064642442072326
 30
0.0
 11
420.0389999999999873
 21
-90.2064642442072113
 31
0.0
  0
CIRCLE
  5
D8
100
AcDbEntity
100
AcDbCircle
  8
dowels
 62
256
370
-1
  6
BYLAYER
 10
789.1361914521969538
 20
46.8308189015841378
 30
0.0
 40
9.5
  0
CIRCLE
  5
D9
100
AcDbEntity
100
AcDbCircle
  8
dowels
 62
256
370
-1
  6
BYLAYER
 10
789.1361914521969538
 20
46.8308189015841378
 30
0.0
 40
1.0
  0
CIRCLE
  5
DA
100
AcDbEntity
100
AcDbCircle
  8
dowels
 62
256
370
-1
  6
BYLAYER
 10
768.7253549376343926
 20
100.9414895556370055
 30
0.0
 40
9.5
  0
CIRCLE
  5
DB
100
AcDbEntity
100
AcDbCircle
  8
dowels
 62
256
370
-1
  6
BYLAYER
 10
768.7253549376343926
 20
100.9414895556370055
 30
0.0
 40
1.0
  0
CIRCLE
  5
DC
100
AcDbEntity
100
AcDbCircle
  8
dowels
 62
256
370
-1
  6
BYLAYER
 10
793.2256836167728125
 20
18.9640185082664061
 30
0.0
 40
9.5
  0
CIRCLE
  5
DD
100
AcDbEntity
100
AcDbCircle
  8
dowels
 62
256
370
-1
  6
BYLAYER
 10
793.2256836167728125
 20
18.9640185082664061
 30
0.0
 40
1.0
  0
CIRCLE
  5
DE
100
AcDbEntity
100
AcDbCircle
  8
dowels
 62
256
370
-1
  6
BYLAYER
 10
680.5336375758099621
 20
168.4976949856979331
 30
0.0
 40
9.5
  0
CIRCLE
  5
DF
100
AcDbEntity
100
AcDbCircle
  8
dowels
 62
256
370
-1
  6
BYLAYER
 10
680.5336375758099621
 20
168.4976949856979331
 30
0.0
 40
1.0
  0
CIRCLE
  5
E0
100
AcDbEntity
100
AcDbCircle
  8
dowels
 62
256
370
-1
  6
BYLAYER
 10
644.7755845051199231
 20
149.6073295756262667
 30
0.0
 40
9.5
  0
CIRCLE
  5
E1
100
AcDbEntity
100
AcDbCircle
  8
dowels
 62
256
370
-1
  6
BYLAYER
 10
644.7755845051199231
 20
149.6073295756262667
 30
0.0
 40
1.0
  0
CIRCLE
  5
E2
100
AcDbEntity
100
AcDbCircle
  8
dowels
 62
256
370
-1
  6
BYLAYER
 10
593.8691198608464674
 20
158.4565447294838521
 30
0.0
 40
9.5
  0
CIRCLE
  5
E3
100
AcDbEntity
100
AcDbCircle
  8
dowels
 62
256
370
-1
  6
BYLAYER
 10
593.8691198608464674
 20
158.4565447294838521
 30
0.0
 40
1.0
  0
CIRCLE
  5
E4
100
AcDbEntity
100
AcDbCircle
  8
dowels
 62
256
370
-1
  6
BYLAYER
 10
493.7971382066505157
 20
115.7635965178113935
 30
0.0
 40
9.5
  0
CIRCLE
  5
E5
100
AcDbEntity
100
AcDbCircle
  8
dowels
 62
256
370
-1
  6
BYLAYER
 10
493.7971382066505157
 20
115.7635965178113935
 30
0.0
 40
1.0
  0
CIRCLE
  5
E6
100
AcDbEntity
100
AcDbCircle
  8
dowels
 62
256
370
-1
  6
BYLAYER
 10
517.2746477985176625
 20
116.3053852007006412
 30
0.0
 40
9.5
  0
CIRCLE
  5
E7
100
AcDbEntity
100
AcDbCircle
  8
dowels
 62
256
370
-1
  6
BYLAYER
 10
517.2746477985176625
 20
116.3053852007006412
 30
0.0
 40
1.0
  0
CIRCLE
  5
E8
100
AcDbEntity
100
AcDbCircle
  8
dowels
 62
256
370
-1
  6
BYLAYER
 10
425.1705717073461983
 20
132.5590456873779885
 30
0.0
 40
9.5
  0
CIRCLE
  5
E9
100
AcDbEntity
100
AcDbCircle
  8
dowels
 62
256
370
-1
  6
BYLAYER
 10
425.1705717073461983
 20
132.5590456873779885
 30
0.0
 40
1.0
  0
CIRCLE
  5
EA
100
AcDbEntity
100
AcDbCircle
  8
dowels
 62
256
370
-1
  6
BYLAYER
 10
351.704026307564618
 20
98.6069548929853426
 30
0.0
 40
9.5
  0
CIRCLE
  5
EB
100
AcDbEntity
100
AcDbCircle
  8
dowels
 62
256
370
-1
  6
BYLAYER
 10
351.704026307564618
 20
98.6069548929853426
 30
0.0
 40
1.0
  0
CIRCLE
  5
EC
100
AcDbEntity
100
AcDbCircle
  8
dowels
 62
256
370
-1
  6
BYLAYER
 10
325.6620502833548016
 20
37.2042374988709383
 30
0.0
 40
9.5
  0
CIRCLE
  5
ED
100
AcDbEntity
100
AcDbCircle
  8
dowels
 62
256
370
-1
  6
BYLAYER
 10
325.6620502833548016
 20
37.2042374988709383
 30
0.0
 40
1.0
  0
CIRCLE
  5
EE
100
AcDbEntity
100
AcDbCircle
  8
dowels
 62
256
370
-1
  6
BYLAYER
 10
352.3103325829388268
 20
57.41118387651413
 30
0.0
 40
9.5
  0
CIRCLE
  5
EF
100
AcDbEntity
100
AcDbCircle
  8
dowels
 62
256
370
-1
  6
BYLAYER
 10
352.3103325829388268
 20
57.41118387651413
 30
0.0
 40
1.0
  0
CIRCLE
  5
F0
100
AcDbEntity
100
AcDbCircle
  8
dowels
 62
256
370
-1
  6
BYLAYER
 10
387.9481437422723502
 20
103.31415765562096
 30
0.0
 40
9.5
  0
CIRCLE
  5
F1
100
AcDbEntity
100
AcDbCircle
  8
dowels
 62
256
370
-1
  6
BYLAYER
 10
387.9481437422723502
 20
103.31415765562096
 30
0.0
 40
1.0
  0
CIRCLE
  5
F2
100
AcDbEntity
100
AcDbCircle
  8
dowels
 62
256
370
-1
  6
BYLAYER
 10
453.4544756405764474
 20
106.993504799864354
 30
0.0
 40
9.5
  0
CIRCLE
  5
F3
100
AcDbEntity
100
AcDbCircle
  8
dowels
 62
256
370
-1
  6
BYLAYER
 10
453.4544756405764474
 20
106.993504799864354
 30
0.0
 40
1.0
  0
CIRCLE
  5
F4
100
AcDbEntity
100
AcDbCircle
  8
dowels
 62
256
370
-1
  6
BYLAYER
 10
563.9589662650098489
 20
118.8564696679122648
 30
0.0
 40
9.5
  0
CIRCLE
  5
F5
100
AcDbEntity
100
AcDbCircle
  8
dowels
 62
256
370
-1
  6
BYLAYER
 10
563.9589662650098489
 20
118.8564696679122648
 30
0.0
 40
1.0
  0
CIRCLE
  5
F6
100
AcDbEntity
100
AcDbCircle
  8
dowels
 62
256
370
-1
  6
BYLAYER
 10
736.6135456210929533
 20
110.4968693811709528
 30
0.0
 40
9.5
  0
CIRCLE
  5
F7
100
AcDbEntity
100
AcDbCircle
  8
dowels
 62
256
370
-1
  6
BYLAYER
 10
736.6135456210929533
 20
110.4968693811709528
 30
0.0
 40
1.0
  0
CIRCLE
  5
F8
100
AcDbEntity
100
AcDbCircle
  8
dowels
 62
256
370
-1
  6
BYLAYER
 10
762.7530396593608657
 20
61.042935079209812
 30
0.0
 40
9.5
  0
CIRCLE
  5
F9
100
AcDbEntity
100
AcDbCircle
  8
dowels
 62
256
370
-1
  6
BYLAYER
 10
762.7530396593608657
 20
61.042935079209812
 30
0.0
 40
1.0
  0
CIRCLE
  5
FA
100
AcDbEntity
100
AcDbCircle
  8
dowels
 62
256
370
-1
  6
BYLAYER
 10
644.7755845051199231
 20
-149.6073295756258688
 30
0.0
 40
9.5
  0
CIRCLE
  5
FB
100
AcDbEntity
100
AcDbCircle
  8
dowels
 62
256
370
-1
  6
BYLAYER
 10
644.7755845051199231
 20
-149.6073295756258688
 30
0.0
 40
1.0
  0
CIRCLE
  5
FC
100
AcDbEntity
100
AcDbCircle
  8
dowels
 62
256
370
-1
  6
BYLAYER
 10
593.8691198608464674
 20
-158.4565447294835678
 30
0.0
 40
9.5
  0
CIRCLE
  5
FD
100
AcDbEntity
100
AcDbCircle
  8
dowels
 62
256
370
-1
  6
BYLAYER
 10
593.8691198608464674
 20
-158.4565447294835678
 30
0.0
 40
1.0
  0
CIRCLE
  5
FE
100
AcDbEntity
100
AcDbCircle
  8
dowels
 62
256
370
-1
  6
BYLAYER
 10
493.7971382066505157
 20
-115.7635965178110524
 30
0.0
 40
9.5
  0
CIRCLE
  5
FF
100
AcDbEntity
100
AcDbCircle
  8
dowels
 62
256
370
-1
  6
BYLAYER
 10
493.7971382066505157
 20
-115.7635965178110524
 30
0.0
 40
1.0
  0
CIRCLE
  5
100
100
AcDbEntity
100
AcDbCircle
  8
dowels
 62
256
370
-1
  6
BYLAYER
 10
517.2746477985176625
 20
-116.305385200700286
 30
0.0
 40
9.5
  0
CIRCLE
  5
101
100
AcDbEntity
100
AcDbCircle
  8
dowels
 62
256
370
-1
  6
BYLAYER
 10
517.2746477985176625
 20
-116.305385200700286
 30
0.0
 40
1.0
  0
CIRCLE
  5
102
100
AcDbEntity
100
AcDbCircle
  8
dowels
 62
256
370
-1
  6
BYLAYER
 10
425.1705717073461983
 20
-132.5590456873776475
 30
0.0
 40
9.5
  0
CIRCLE
  5
103
100
AcDbEntity
100
AcDbCircle
  8
dowels
 62
256
370
-1
  6
BYLAYER
 10
425.1705717073461983
 20
-132.5590456873776475
 30
0.0
 40
1.0
  0
CIRCLE
  5
104
100
AcDbEntity
100
AcDbCircle
  8
dowels
 62
256
370
-1
  6
BYLAYER
 10
351.704026307564618
 20
-98.6069548929850015
 30
0.0
 40
9.5
  0
CIRCLE
  5
105
100
AcDbEntity
100
AcDbCircle
  8
dowels
 62
256
370
-1
  6
BYLAYER
 10
351.704026307564618
 20
-98.6069548929850015
 30
0.0
 40
1.0
  0
CIRCLE
  5
106
100
AcDbEntity
100
AcDbCircle
  8
dowels
 62
256
370
-1
  6
BYLAYER
 10
325.6620502833548016
 20
-37.2042374988706044
 30
0.0
 40
9.5
  0
CIRCLE
  5
107
100
AcDbEntity
100
AcDbCircle
  8
dowels
 62
256
370
-1
  6
BYLAYER
 10
325.6620502833548016
 20
-37.2042374988706044
 30
0.0
 40
1.0
  0
CIRCLE
  5
108
100
AcDbEntity
100
AcDbCircle
  8
dowels
 62
256
370
-1
  6
BYLAYER
 10
789.1361914521969538
 20
-46.8308189015837542
 30
0.0
 40
9.5
  0
CIRCLE
  5
109
100
AcDbEntity
100
AcDbCircle
  8
dowels
 62
256
370
-1
  6
BYLAYER
 10
352.3103325829388268
 20
-57.4111838765137819
 30
0.0
 40
9.5
  0
CIRCLE
  5
10A
100
AcDbEntity
100
AcDbCircle
  8
dowels
 62
256
370
-1
  6
BYLAYER
 10
789.1361914521969538
 20
-46.8308189015837542
 30
0.0
 40
1.0
  0
CIRCLE
  5
10B
100
AcDbEntity
100
AcDbCircle
  8
dowels
 62
256
370
-1
  6
BYLAYER
 10
352.3103325829388268
 20
-57.4111838765137819
 30
0.0
 40
1.0
  0
CIRCLE
  5
10C
100
AcDbEntity
100
AcDbCircle
  8
dowels
 62
256
370
-1
  6
BYLAYER
 10
387.9481437422723502
 20
-103.3141576556206189
 30
0.0
 40
9.5
  0
CIRCLE
  5
10D
100
AcDbEntity
100
AcDbCircle
  8
dowels
 62
256
370
-1
  6
BYLAYER
 10
387.9481437422723502
 20
-103.3141576556206189
 30
0.0
 40
1.0
  0
CIRCLE
  5
10E
100
AcDbEntity
100
AcDbCircle
  8
dowels
 62
256
370
-1
  6
BYLAYER
 10
453.4544756405764474
 20
-106.9935047998640414
 30
0.0
 40
9.5
  0
CIRCLE
  5
10F
100
AcDbEntity
100
AcDbCircle
  8
dowels
 62
256
370
-1
  6
BYLAYER
 10
793.2256836167728125
 20
-18.9640185082661716
 30
0.0
 40
9.5
  0
CIRCLE
  5
110
100
AcDbEntity
100
AcDbCircle
  8
dowels
 62
256
370
-1
  6
BYLAYER
 10
453.4544756405764474
 20
-106.9935047998640414
 30
0.0
 40
1.0
  0
CIRCLE
  5
111
100
AcDbEntity
100
AcDbCircle
  8
dowels
 62
256
370
-1
  6
BYLAYER
 10
793.2256836167728125
 20
-18.9640185082661716
 30
0.0
 40
1.0
  0
CIRCLE
  5
112
100
AcDbEntity
100
AcDbCircle
  8
dowels
 62
256
370
-1
  6
BYLAYER
 10
563.9589662650098489
 20
-118.8564696679119805
 30
0.0
 40
9.5
  0
CIRCLE
  5
113
100
AcDbEntity
100
AcDbCircle
  8
dowels
 62
256
370
-1
  6
BYLAYER
 10
563.9589662650098489
 20
-118.8564696679119805
 30
0.0
 40
1.0
  0
LINE
  5
114
100
AcDbEntity
100
AcDbLine
  8
dimensions
 62
256
370
-1
  6
BYLAYER
 10
834.3255889568663406
 20
0.5634345445629645
 30
0.0
 11
304.3255889568663406
 21
0.5634345445629645
 31
0.0
  0
LINE
  5
115
100
AcDbEntity
100
AcDbLine
  8
dimensions
 62
256
370
-1
  6
BYLAYER
 10
464.2865889568662965
 20
145.1268690891257904
 30
0.0
 11
464.2865889568662965
 21
-142.8731309108742664
 31
0.0
  0
LINE
  5
116
100
AcDbEntity
100
AcDbLine
  8
dimensions
 62
256
370
-1
  6
BYLAYER
 10
504.548038099224641
 20
153.6354132638123247
 30
0.0
 11
504.5480380992248683
 21
-153.6354132638118699
 31
0.0
  0
CIRCLE
  5
117
100
AcDbEntity
100
AcDbCircle
  8
dowels
 62
256
370
-1
  6
BYLAYER
 10
708.21317088539422
 20
135.7055409533904538
 30
0.0
 40
9.5
  0
CIRCLE
  5
118
100
AcDbEntity
100
AcDbCircle
  8
dowels
 62
256
370
-1
  6
BYLAYER
 10
708.21317088539422
 20
135.7055409533904538
 30
0.0
 40
1.0
  0
CIRCLE
  5
119
100
AcDbEntity
100
AcDbCircle
  8
dowels
 62
256
370
-1
  6
BYLAYER
 10
736.6135456210929533
 20
-110.4968693811706117
 30
0.0
 40
9.5
  0
CIRCLE
  5
11A
100
AcDbEntity
100
AcDbCircle
  8
dowels
 62
256
370
-1
  6
BYLAYER
 10
736.6135456210929533
 20
-110.4968693811706117
 30
0.0
 40
1.0
  0
CIRCLE
  5
11B
100
AcDbEntity
100
AcDbCircle
  8
dowels
 62
256
370
-1
  6
BYLAYER
 10
762.7530396593608657
 20
-61.0429350792094425
 30
0.0
 40
9.5
  0
CIRCLE
  5
11C
100
AcDbEntity
100
AcDbCircle
  8
dowels
 62
256
370
-1
  6
BYLAYER
 10
762.7530396593608657
 20
-61.0429350792094425
 30
0.0
 40
1.0
  0
CIRCLE
  5
11D
100
AcDbEntity
100
AcDbCircle
  8
dowels
 62
256
370
-1
  6
BYLAYER
 10
768.7253549376343926
 20
-100.9414895556366503
 30
0.0
 40
9.5
  0
CIRCLE
  5
11E
100
AcDbEntity
100
AcDbCircle
  8
dowels
 62
256
370
-1
  6
BYLAYER
 10
768.7253549376343926
 20
-100.9414895556366503
 30
0.0
 40
1.0
  0
CIRCLE
  5
11F
100
AcDbEntity
100
AcDbCircle
  8
dowels
 62
256
370
-1
  6
BYLAYER
 10
708.21317088539422
 20
-135.7055409533900843
 30
0.0
 40
9.5
  0
CIRCLE
  5
120
100
AcDbEntity
100
AcDbCircle
  8
dowels
 62
256
370
-1
  6
BYLAYER
 10
708.21317088539422
 20
-135.7055409533900843
 30
0.0
 40
1.0
  0
CIRCLE
  5
121
100
AcDbEntity
100
AcDbCircle
  8
dowels
 62
256
370
-1
  6
BYLAYER
 10
680.5336375758099621
 20
-168.4976949856975637
 30
0.0
 40
9.5
  0
CIRCLE
  5
122
100
AcDbEntity
100
AcDbCircle
  8
dowels
 62
256
370
-1
  6
BYLAYER
 10
680.5336375758099621
 20
-168.4976949856975637
 30
0.0
 40
1.0
  0
LINE
  5
123
100
AcDbEntity
100
AcDbLine
  8
guides
 62
256
370
-1
  6
BYLAYER
 10
519.0389999999999873
 20
15.0000000000001705
 30
0.0
 11
549.0389999999999873
 21
-14.9999999999998295
 31
0.0
  0
LINE
  5
124
100
AcDbEntity
100
AcDbLine
  8
guides
 62
256
370
-1
  6
BYLAYER
 10
549.0389999999999873
 20
15.0000000000001705
 30
0.0
 11
519.0389999999999873
 21
-14.9999999999998295
 31
0.0
  0
LINE
  5
125
100
AcDbEntity
100
AcDbLine
  8
guides
 62
256
370
-1
  6
BYLAYER
 10
519.0389999999999873
 20
-14.9999999999998295
 30
0.0
 11
519.0389999999999873
 21
15.0000000000001705
 31
0.0
  0
LINE
  5
126
100
AcDbEntity
100
AcDbLine
  8
guides
 62
256
370
-1
  6
BYLAYER
 10
519.0389999999999873
 20
15.0000000000001705
 30
0.0
 11
549.0389999999999873
 21
15.0000000000001705
 31
0.0
  0
LINE
  5
127
100
AcDbEntity
100
AcDbLine
  8
guides
 62
256
370
-1
  6
BYLAYER
 10
549.0389999999999873
 20
15.0000000000001705
 30
0.0
 11
549.0389999999999873
 21
-14.9999999999998295
 31
0.0
  0
LINE
  5
128
100
AcDbEntity
100
AcDbLine
  8
guides
 62
256
370
-1
  6
BYLAYER
 10
549.0389999999999873
 20
-14.9999999999998295
 30
0.0
 11
519.0389999999999873
 21
-14.9999999999998295
 31
0.0
  0
LINE
  5
129
100
AcDbEntity
100
AcDbLine
  8
guides
 62
256
370
-1
  6
BYLAYER
 10
769.1547776153408904
 20
15.0000000000001705
 30
0.0
 11
799.1547776153408904
 21
-14.9999999999998295
 31
0.0
  0
LINE
  5
12A
100
AcDbEntity
100
AcDbLine
  8
guides
 62
256
370
-1
  6
BYLAYER
 10
799.1547776153408904
 20
15.0000000000001705
 30
0.0
 11
769.1547776153408904
 21
-14.9999999999998295
 31
0.0
  0
LINE
  5
12B
100
AcDbEntity
100
AcDbLine
  8
guides
 62
256
370
-1
  6
BYLAYER
 10
769.1547776153408904
 20
-14.9999999999998295
 30
0.0
 11
769.1547776153408904
 21
15.0000000000001705
 31
0.0
  0
LINE
  5
12C
100
AcDbEntity
100
AcDbLine
  8
guides
 62
256
370
-1
  6
BYLAYER
 10
769.1547776153408904
 20
15.0000000000001705
 30
0.0
 11
799.1547776153408904
 21
15.0000000000001705
 31
0.0
  0
LINE
  5
12D
100
AcDbEntity
100
AcDbLine
  8
guides
 62
256
370
-1
  6
BYLAYER
 10
799.1547776153408904
 20
15.0000000000001705
 30
0.0
 11
799.1547776153408904
 21
-14.9999999999998295
 31
0.0
  0
LINE
  5
12E
100
AcDbEntity
100
AcDbLine
  8
guides
 62
256
370
-1
  6
BYLAYER
 10
799.1547776153408904
 20
-14.9999999999998295
 30
0.0
 11
769.1547776153408904
 21
-14.9999999999998295
 31
0.0
  0
LINE
  5
12F
100
AcDbEntity
100
AcDbLine
  8
guides
 62
256
370
-1
  6
BYLAYER
 10
519.0389999999999873
 20
165.0000000000001705
 30
0.0
 11
549.0389999999999873
 21
135.0000000000001705
 31
0.0
  0
LINE
  5
130
100
AcDbEntity
100
AcDbLine
  8
guides
 62
256
370
-1
  6
BYLAYER
 10
549.0389999999999873
 20
165.0000000000001705
 30
0.0
 11
519.0389999999999873
 21
135.0000000000001705
 31
0.0
  0
LINE
  5
131
100
AcDbEntity
100
AcDbLine
  8
guides
 62
256
370
-1
  6
BYLAYER
 10
519.0389999999999873
 20
135.0000000000001705
 30
0.0
 11
519.0389999999999873
 21
165.0000000000001705
 31
0.0
  0
LINE
  5
132
100
AcDbEntity
100
AcDbLine
  8
guides
 62
256
370
-1
  6
BYLAYER
 10
519.0389999999999873
 20
165.0000000000001705
 30
0.0
 11
549.0389999999999873
 21
165.0000000000001705
 31
0.0
  0
LINE
  5
133
100
AcDbEntity
100
AcDbLine
  8
guides
 62
256
370
-1
  6
BYLAYER
 10
549.0389999999999873
 20
165.0000000000001705
 30
0.0
 11
549.0389999999999873
 21
135.0000000000001705
 31
0.0
  0
LINE
  5
134
100
AcDbEntity
100
AcDbLine
  8
guides
 62
256
370
-1
  6
BYLAYER
 10
549.0389999999999873
 20
135.0000000000001705
 30
0.0
 11
519.0389999999999873
 21
135.0000000000001705
 31
0.0
  0
LINE
  5
135
100
AcDbEntity
100
AcDbLine
  8
guides
 62
256
370
-1
  6
BYLAYER
 10
299.0389999999999873
 20
15.0000000000001705
 30
0.0
 11
329.0389999999999873
 21
-14.9999999999998295
 31
0.0
  0
LINE
  5
136
100
AcDbEntity
100
AcDbLine
  8
guides
 62
256
370
-1
  6
BYLAYER
 10
329.0389999999999873
 20
15.0000000000001705
 30
0.0
 11
299.0389999999999873
 21
-14.9999999999998295
 31
0.0
  0
LINE
  5
137
100
AcDbEntity
100
AcDbLine
  8
guides
 62
256
370
-1
  6
BYLAYER
 10
299.0389999999999873
 20
-14.9999999999998295
 30
0.0
 11
299.0389999999999873
 21
15.0000000000001705
 31
0.0
  0
LINE
  5
138
100
AcDbEntity
100
AcDbLine
  8
guides
 62
256
370
-1
  6
BYLAYER
 10
299.0389999999999873
 20
15.0000000000001705
 30
0.0
 11
329.0389999999999873
 21
15.0000000000001705
 31
0.0
  0
LINE
  5
139
100
AcDbEntity
100
AcDbLine
  8
guides
 62
256
370
-1
  6
BYLAYER
 10
329.0389999999999873
 20
15.0000000000001705
 30
0.0
 11
329.0389999999999873
 21
-14.9999999999998295
 31
0.0
  0
LINE
  5
13A
100
AcDbEntity
100
AcDbLine
  8
guides
 62
256
370
-1
  6
BYLAYER
 10
329.0389999999999873
 20
-14.9999999999998295
 30
0.0
 11
299.0389999999999873
 21
-14.9999999999998295
 31
0.0
  0
LINE
  5
13B
100
AcDbEntity
100
AcDbLine
  8
guides
 62
256
370
-1
  6
BYLAYER
 10
519.0389999999999873
 20
-164.9999999999998579
 30
0.0
 11
549.0389999999999873
 21
-134.9999999999997158
 31
0.0
  0
LINE
  5
13C
100
AcDbEntity
100
AcDbLine
  8
guides
 62
256
370
-1
  6
BYLAYER
 10
549.0389999999999873
 20
-164.9999999999998863
 30
0.0
 11
519.0389999999999873
 21
-134.9999999999997726
 31
0.0
  0
LINE
  5
13D
100
AcDbEntity
100
AcDbLine
  8
guides
 62
256
370
-1
  6
BYLAYER
 10
519.0389999999999873
 20
-134.9999999999997726
 30
0.0
 11
519.0389999999999873
 21
-164.9999999999998579
 31
0.0
  0
LINE
  5
13E
100
AcDbEntity
100
AcDbLine
  8
guides
 62
256
370
-1
  6
BYLAYER
 10
519.0389999999999873
 20
-164.9999999999998579
 30
0.0
 11
549.0389999999999873
 21
-164.9999999999998863
 31
0.0
  0
LINE
  5
13F
100
AcDbEntity
100
AcDbLine
  8
guides
 62
256
370
-1
  6
BYLAYER
 10
549.0389999999999873
 20
-164.9999999999998863
 30
0.0
 11
549.0389999999999873
 21
-134.9999999999997158
 31
0.0
  0
LINE
  5
140
100
AcDbEntity
100
AcDbLine
  8
guides
 62
256
370
-1
  6
BYLAYER
 10
549.0389999999999873
 20
-134.9999999999997158
 30
0.0
 11
519.0389999999999873
 21
-134.9999999999997726
 31
0.0
  0
LINE
  5
141
100
AcDbEntity
100
AcDbLine
  8
bracing_back
 62
256
370
-1
  6
BYLAYER
 10
366.0389999999999873
 20
-5.9999999999998295
 30
0.0
 11
757.5740757909168224
 21
-5.9999999999998295
 31
0.0
  0
LINE
  5
142
100
AcDbEntity
100
AcDbLine
  8
bracing_back
 62
256
370
-1
  6
BYLAYER
 10
757.5740757909168224
 20
-5.9999999999998304
 30
0.0
 11
757.5740757909168224
 21
6.0000000000001696
 31
0.0
  0
LINE
  5
143
100
AcDbEntity
100
AcDbLine
  8
bracing_back
 62
256
370
-1
  6
BYLAYER
 10
757.5740757909168224
 20
6.0000000000001705
 30
0.0
 11
366.0389999999999873
 21
6.0000000000001705
 31
0.0
  0
LINE
  5
144
100
AcDbEntity
100
AcDbLine
  8
bracing_back
 62
256
370
-1
  6
BYLAYER
 10
366.0389999999999873
 20
6.0000000000001705
 30
0.0
 11
366.0389999999999873
 21
-5.9999999999998295
 31
0.0
  0
LINE
  5
145
100
AcDbEntity
100
AcDbLine
  8
bracing_back
 62
256
370
-1
  6
BYLAYER
 10
414.0389999999999873
 20
-121.9999999999998295
 30
0.0
 11
420.0389999999999873
 21
-121.9999999999998295
 31
0.0
  0
LINE
  5
146
100
AcDbEntity
100
AcDbLine
  8
bracing_back
 62
256
370
-1
  6
BYLAYER
 10
420.0389999999999873
 20
-121.9999999999998295
 30
0.0
 11
420.0389999999999873
 21
122.0000000000001705
 31
0.0
  0
LINE
  5
147
100
AcDbEntity
100
AcDbLine
  8
bracing_back
 62
256
370
-1
  6
BYLAYER
 10
414.0389999999999873
 20
122.000000000000199
 30
0.0
 11
414.0389999999999873
 21
-121.9999999999998295
 31
0.0
  0
LINE
  5
148
100
AcDbEntity
100
AcDbLine
  8
bracing_back
 62
256
370
-1
  6
BYLAYER
 10
522.5299619007751062
 20
-102.9999999999998295
 30
0.0
 11
528.5299619007751062
 21
-102.9999999999998295
 31
0.0
  0
LINE
  5
149
100
AcDbEntity
100
AcDbLine
  8
bracing_back
 62
256
370
-1
  6
BYLAYER
 10
528.5299619007751062
 20
-102.9999999999998295
 30
0.0
 11
528.5299619007751062
 21
103.0000000000001137
 31
0.0
  0
LINE
  5
14A
100
AcDbEntity
100
AcDbLine
  8
bracing_back
 62
256
370
-1
  6
BYLAYER
 10
522.5299619007751062
 20
103.0000000000001705
 30
0.0
 11
522.5299619007751062
 21
-102.9999999999998295
 31
0.0
  0
LINE
  5
14B
100
AcDbEntity
100
AcDbLine
  8
bracing_back
 62
256
370
-1
  6
BYLAYER
 10
698.0389999999999873
 20
-158.9999999999998295
 30
0.0
 11
704.0389999999999873
 21
-158.9999999999998295
 31
0.0
  0
LINE
  5
14C
100
AcDbEntity
100
AcDbLine
  8
bracing_back
 62
256
370
-1
  6
BYLAYER
 10
704.0389999999999873
 20
-158.9999999999998295
 30
0.0
 11
704.0389999999999873
 21
159.0000000000001137
 31
0.0
  0
LINE
  5
14D
100
AcDbEntity
100
AcDbLine
  8
bracing_back
 62
256
370
-1
  6
BYLAYER
 10
698.0389999999999873
 20
159.0000000000002274
 30
0.0
 11
698.0389999999999873
 21
-158.9999999999998295
 31
0.0
  0
LINE
  5
14E
100
AcDbEntity
100
AcDbLine
  8
bracing_back
 62
256
370
-1
  6
BYLAYER
 10
414.0389999999999873
 20
122.0000000000002132
 30
0.0
 11
420.0389999999999873
 21
122.0000000000001563
 31
0.0
  0
LINE
  5
14F
100
AcDbEntity
100
AcDbLine
  8
bracing_back
 62
256
370
-1
  6
BYLAYER
 10
522.5299619007751062
 20
103.0000000000001847
 30
0.0
 11
528.5299619007751062
 21
103.0000000000001563
 31
0.0
  0
LINE
  5
150
100
AcDbEntity
100
AcDbLine
  8
bracing_back
 62
256
370
-1
  6
BYLAYER
 10
698.0389999999999873
 20
159.000000000000199
 30
0.0
 11
704.0389999999999873
 21
159.0000000000001137
 31
0.0
  0
LINE
  5
151
100
AcDbEntity
100
AcDbLine
  8
guides
 62
256
370
-1
  6
BYLAYER
 10
190.3209999999999695
 20
14.9999999999999751
 30
0.0
 11
220.3209999999999695
 21
-15.0000000000000249
 31
0.0
  0
LINE
  5
152
100
AcDbEntity
100
AcDbLine
  8
guides
 62
256
370
-1
  6
BYLAYER
 10
220.3209999999999695
 20
14.9999999999999751
 30
0.0
 11
190.3209999999999695
 21
-15.0000000000000249
 31
0.0
  0
LINE
  5
153
100
AcDbEntity
100
AcDbLine
  8
guides
 62
256
370
-1
  6
BYLAYER
 10
190.3209999999999695
 20
-15.0000000000000249
 30
0.0
 11
190.3209999999999695
 21
14.9999999999999751
 31
0.0
  0
LINE
  5
154
100
AcDbEntity
100
AcDbLine
  8
guides
 62
256
370
-1
  6
BYLAYER
 10
190.3209999999999695
 20
14.9999999999999751
 30
0.0
 11
220.3209999999999695
 21
14.9999999999999751
 31
0.0
  0
LINE
  5
155
100
AcDbEntity
100
AcDbLine
  8
guides
 62
256
370
-1
  6
BYLAYER
 10
220.3209999999999695
 20
14.9999999999999751
 30
0.0
 11
220.3209999999999695
 21
-15.0000000000000249
 31
0.0
  0
LINE
  5
156
100
AcDbEntity
100
AcDbLine
  8
guides
 62
256
370
-1
  6
BYLAYER
 10
220.3209999999999695
 20
-15.0000000000000249
 30
0.0
 11
190.3209999999999695
 21
-15.0000000000000249
 31
0.0
  0
LINE
  5
157
100
AcDbEntity
100
AcDbLine
  8
0
 62
256
370
-1
  6
BYLAYER
 10
-10.0
 20
21.4999999999999964
 30
0.0
 11
433.0229872845392265
 21
30.4198027545838343
 31
0.0
  0
INSERT
  5
158
100
AcDbEntity
100
AcDbBlockReference
  8
0
 62
256
370
-1
  6
BYLAYER
  2
tuner
 10
-127.0
 20
-11.0000000000001705
 30
0.0
 50
-1.5
  0
INSERT
  5
159
100
AcDbEntity
100
AcDbBlockReference
  8
0
 62
256
370
-1
  6
BYLAYER
  2
tuner
 10
-87.0
 20
-14.0000000000001705
 30
0.0
 50
-6.0
  0
INSERT
  5
15A
100
AcDbEntity
100
AcDbBlockReference
  8
0
 62
256
370
-1
  6
BYLAYER
  2
tuner
 10
-45.8600343327070732
 20
-21.0000000000001705
 30
0.0
 50
-12.0
  0
INSERT
  5
15B
100
AcDbEntity
100
AcDbBlockReference
  8
0
 62
256
370
-1
  6
BYLAYER
  2
tuner
 10
-142.0
 20
13.9999999999998295
 30
0.0
 41
1.0
 42
-1.0
 43
1.0
 50
364.0
  0
INSERT
  5
15C
100
AcDbEntity
100
AcDbBlockReference
  8
0
 62
256
370
-1
  6
BYLAYER
  2
tuner
 10
-102.0
 20
17.9999999999998295
 30
0.0
 41
1.0
 42
-1.0
 43
1.0
 50
365.5
  0
INSERT
  5
15D
100
AcDbEntity
100
AcDbBlockReference
  8
0
 62
256
370
-1
  6
BYLAYER
  2
tuner
 10
-62.0
 20
23.418410658067657
 30
0.0
 41
1.0
 42
-1.0
 43
1.0
 50
368.9999999999999432
  0
ARC
  5
15E
100
AcDbEntity
  8
0
 62
256
370
-1
  6
BYLAYER
100
AcDbCircle
 10
-178.7751207011775136
 20
662.2078986422604885
 30
0.0
 40
638.2103673107119448
100
AcDbArc
 50
270.1593629007790014
 51
281.3505038985629199
  0
ARC
  5
15F
100
AcDbEntity
  8
0
 62
256
370
-1
  6
BYLAYER
100
AcDbCircle
 10
-132.3918505901574747
 20
-388.2466598465441621
 30
0.0
 40
366.8655082880487726
100
AcDbArc
 50
74.9288350456976815
 51
92.1897431894254709
  0
ARC
  5
160
100
AcDbEntity
  8
0
 62
256
370
-1
  6
BYLAYER
100
AcDbCircle
 10
-153.0155712781771058
 20
22.3595453014683478
 30
0.0
 40
23.9871235027463996
100
AcDbArc
 50
176.0781782370193014
 51
248.7721377855814353
  0
LINE
  5
161
100
AcDbEntity
100
AcDbLine
  8
0
 62
256
370
-1
  6
BYLAYER
 10
360.8990343327070605
 20
-35.0
 30
0.0
 11
360.8990343327070605
 21
35.0
 31
0.0
  0
LINE
  5
162
100
AcDbEntity
100
AcDbLine
  8
0
 62
256
370
-1
  6
BYLAYER
 10
330.0389999999999873
 20
40.0
 30
0.0
 11
355.8990343327070605
 21
40.0
 31
0.0
  0
LINE
  5
163
100
AcDbEntity
100
AcDbLine
  8
0
 62
256
370
-1
  6
BYLAYER
 10
330.0389999999999873
 20
-40.0
 30
0.0
 11
355.8990343327070605
 21
-40.0
 31
0.0
  0
LINE
  5
164
100
AcDbEntity
100
AcDbLine
  8
0
 62
256
370
-1
  6
BYLAYER
 10
355.8990343327070605
 20
40.0
 30
0.0
 11
360.8990343327070605
 21
35.0
 31
0.0
  0
LINE
  5
165
100
AcDbEntity
100
AcDbLine
  8
0
 62
256
370
-1
  6
BYLAYER
 10
360.8990343327070605
 20
-35.0
 30
0.0
 11
355.8990343327070605
 21
-40.0
 31
0.0
  0
LINE
  5
166
100
AcDbEntity
100
AcDbLine
  8
0
 62
256
370
-1
  6
BYLAYER
 10
330.0389999999999873
 20
-40.0
 30
0.0
 11
330.0389999999999873
 21
40.0
 31
0.0
  0
LINE
  5
167
100
AcDbEntity
100
AcDbLine
  8
0
 62
256
370
-1
  6
BYLAYER
 10
776.6431331740693622
 20
-32.6199341119837456
 30
0.0
 11
776.6431331740693622
 21
32.6199341119836674
 31
0.0
  0
SPLINE
  5
168
  8
0
 62
256
370
-1
  6
BYLAYER
100
AcDbEntity
100
AcDbSpline
 70
8
 71
3
 72
38
 73
34
 74
0
 40
0.0
 40
0.0
 40
0.0
 40
0.0
 40
1.0
 40
2.0
 40
3.0
 40
4.0
 40
5.0
 40
6.0
 40
7.0
 40
8.0
 40
9.0
 40
10.0
 40
11.0
 40
12.0
 40
13.0
 40
14.0
 40
15.0
 40
16.0
 40
17.0
 40
18.0
 40
19.0
 40
20.0
 40
21.0
 40
22.0
 40
23.0
 40
24.0
 40
25.0
 40
26.0
 40
27.0
 40
28.0
 40
29.0
 40
30.0
 40
31.0
 40
31.0
 40
31.0
 40
31.0
 10
330.1808863600397217
 20
-40.0000000000001705
 30
0.0
 10
330.3756729401154644
 20
-46.7265493263230525
 30
0.0
 10
332.6867050709024625
 20
-57.7564754050797831
 30
0.0
 10
338.1491446527627431
 20
-70.3621052093723591
 30
0.0
 10
344.6769797952695171
 20
-82.1014922687204347
 30
0.0
 10
356.1128071537239066
 20
-97.7123042183566923
 30
0.0
 10
371.3184433437825192
 20
-110.3094075711614863
 30
0.0
 10
391.3404262658311836
 20
-121.1546483206045082
 30
0.0
 10
412.8736900239584884
 20
-123.3162158594314519
 30
0.0
 10
429.7695740911869962
 20
-122.8311665560659804
 30
0.0
 10
444.4827362932710457
 20
-119.5975045336301434
 30
0.0
 10
463.5029897140489084
 20
-114.8977786574645847
 30
0.0
 10
480.6051001266325784
 20
-108.6409089943241781
 30
0.0
 10
491.8674655202846679
 20
-104.4696625522307443
 30
0.0
 10
499.7928337602625106
 20
-103.6354132638120689
 30
0.0
 10
512.2279556633059201
 20
-105.126866983228652
 30
0.0
 10
524.7583960002455115
 20
-111.5133494775399328
 30
0.0
 10
546.5107939117099249
 20
-124.4916454742795935
 30
0.0
 10
573.6238957853174725
 20
-140.7595065984442613
 30
0.0
 10
596.5657512168320409
 20
-152.0218719920967203
 30
0.0
 10
619.5076066483463819
 20
-158.6958662994463225
 30
0.0
 10
641.1980881472320561
 20
-161.6157388089118854
 30
0.0
 10
661.416186730414438
 20
-161.7579899821513152
 30
0.0
 10
687.1237998087810865
 20
-156.8266553979364346
 30
0.0
 10
712.6697297860257549
 20
-144.7812643643620731
 30
0.0
 10
727.1403673364268343
 20
-133.7059719375185978
 30
0.0
 10
739.7785457287093323
 20
-120.9460859985004078
 30
0.0
 10
752.2922850549896339
 20
-103.0097262974983465
 30
0.0
 10
763.1375258044329257
 20
-81.7363694428214416
 30
0.0
 10
768.1393362307042025
 20
-70.0837538547865364
 30
0.0
 10
773.8118696426361112
 20
-52.8560597889197084
 30
0.0
 10
776.164920539437162
 20
-41.9731993912135977
 30
0.0
 10
776.6431331740693622
 20
-32.6199341119837527
 30
0.0
 10
776.6431331740693622
 20
-32.6199341119837527
 30
0.0
  0
ARC
  5
169
100
AcDbEntity
  8
0
 62
256
370
-1
  6
BYLAYER
100
AcDbCircle
 10
389.2790835851212705
 20
13.9375247205867279
 30
0.0
 40
46.7460650756182687
100
AcDbArc
 50
342.6532402390824359
 51
20.6459217975732052
  0
ARC
  5
16A
100
AcDbEntity
  8
0
 62
256
370
-1
  6
BYLAYER
100
AcDbCircle
 10
478.5189850802928504
 20
-13.9375247205867421
 30
0.0
 40
46.7460650756182687
100
AcDbArc
 50
162.6532402390823506
 51
200.6852803318055578
  0
LINE
  5
16B
100
AcDbEntity
100
AcDbLine
  8
0
 62
256
370
-1
  6
BYLAYER
 10
-10.0
 20
-25.0000000000001705
 30
0.0
 11
-10.0
 21
24.9999999999998295
 31
0.0
  0
LINE
  5
16C
100
AcDbEntity
100
AcDbLine
  8
0
 62
256
370
-1
  6
BYLAYER
 10
-15.0
 20
-25.0000000000001705
 30
0.0
 11
-15.0
 21
24.9999999999998295
 31
0.0
  0
LINE
  5
16D
100
AcDbEntity
100
AcDbLine
  8
strings
 62
9
420
12632256
370
70
  6
BYLAYER
 10
-10.0
 20
18.0
 30
0.0
 11
625.0000000000001137
 21
30.0
 31
0.0
  0
LINE
  5
16E
100
AcDbEntity
100
AcDbLine
  8
strings
 62
9
420
12632256
370
80
  6
BYLAYER
 10
-10.0
 20
6.0
 30
0.0
 11
625.0000000000001137
 21
6.0
 31
0.0
  0
LINE
  5
16F
100
AcDbEntity
100
AcDbLine
  8
strings
 62
9
420
12632256
370
100
  6
BYLAYER
 10
-10.0
 20
-5.0
 30
0.0
 11
625.0000000000001137
 21
-6.0000000000004086
 31
0.0
  0
LINE
  5
170
100
AcDbEntity
100
AcDbLine
  8
strings
 62
252
420
10526884
370
70
  6
BYLAYER
 10
-10.0
 20
-18.0
 30
0.0
 11
625.0000000000001137
 21
-30.0000000000004015
 31
0.0
  0
LINE
  5
171
100
AcDbEntity
100
AcDbLine
  8
strings
 62
252
420
10526884
370
90
  6
BYLAYER
 10
-10.0
 20
-7.0
 30
0.0
 11
625.0000000000001137
 21
-18.0000000000004015
 31
0.0
  0
LINE
  5
172
100
AcDbEntity
100
AcDbLine
  8
strings
 62
252
420
10526884
370
106
  6
BYLAYER
 10
-10.0
 20
15.9999999999999982
 30
0.0
 11
625.0000000000001137
 21
18.0
 31
0.0
  0
LINE
  5
173
100
AcDbEntity
100
AcDbLine
  8
strings
 62
9
420
12632256
370
70
  6
BYLAYER
 10
-15.0
 20
19.0
 30
0.0
 11
-62.0
 21
21.418410658067657
 31
0.0
  0
LINE
  5
174
100
AcDbEntity
100
AcDbLine
  8
strings
 62
252
420
10526884
370
106
  6
BYLAYER
 10
-14.9999999999999982
 20
15.4999999999999982
 30
0.0
 11
-102.0
 21
15.9999999999998295
 31
0.0
  0
LINE
  5
175
100
AcDbEntity
100
AcDbLine
  8
strings
 62
9
420
12632256
370
80
  6
BYLAYER
 10
-14.9999999999999982
 20
5.4999999999999991
 30
0.0
 11
-142.0
 21
11.9999999999998295
 31
0.0
  0
LINE
  5
176
100
AcDbEntity
100
AcDbLine
  8
strings
 62
9
420
12632256
370
100
  6
BYLAYER
 10
-14.9999999999999982
 20
-4.5
 30
0.0
 11
-127.0
 21
-9.0000000000001705
 31
0.0
  0
LINE
  5
177
100
AcDbEntity
100
AcDbLine
  8
strings
 62
252
420
10526884
370
90
  6
BYLAYER
 10
-14.9999999999999982
 20
-7.9999999999999991
 30
0.0
 11
-87.0
 21
-12.0000000000001705
 31
0.0
  0
LINE
  5
178
100
AcDbEntity
100
AcDbLine
  8
strings
 62
252
420
10526884
370
70
  6
BYLAYER
 10
-15.0
 20
-18.0
 30
0.0
 11
-45.8600343327070732
 21
-19.0000000000001705
 31
0.0
  0
ARC
  5
179
100
AcDbEntity
  8
0
 62
256
370
-1
  6
BYLAYER
100
AcDbCircle
 10
627.3331669977006868
 20
78.2304736688518858
 30
0.0
 40
17.5344885580937309
100
AcDbArc
 50
64.071892179715249
 51
115.1812180630575853
  0
ARC
  5
17A
100
AcDbEntity
  8
0
 62
256
370
-1
  6
BYLAYER
100
AcDbCircle
 10
642.6668330022995406
 20
109.7695263311478016
 30
0.0
 40
17.5344885580937309
100
AcDbArc
 50
244.0718921797152348
 51
295.5194474665889857
  0
LINE
  5
17B
100
AcDbEntity
100
AcDbLine
  8
0
 62
256
370
-1
  6
BYLAYER
 10
619.0188736835940517
 20
-40.0000000000001705
 30
0.0
 11
619.8725461576278803
 21
-94.0985997609468257
 31
0.0
  0
ARC
  5
17C
100
AcDbEntity
  8
0
 62
256
370
-1
  6
BYLAYER
100
AcDbCircle
 10
627.3331669976997773
 20
-78.2304736688526816
 30
0.0
 40
17.5344885580937309
100
AcDbArc
 50
244.818781936944049
 51
295.9281078202860726
  0
ARC
  5
17D
100
AcDbEntity
  8
0
 62
256
370
-1
  6
BYLAYER
100
AcDbCircle
 10
642.6668330022999953
 20
-109.7695263311481142
 30
0.0
 40
17.5344885580937309
100
AcDbArc
 50
64.4805525334114122
 51
115.9281078202862147
  0
LINE
  5
17E
100
AcDbEntity
100
AcDbLine
  8
0
 62
256
370
-1
  6
BYLAYER
 10
650.22099629220304
 20
-93.9457181301049218
 30
0.0
 11
651.9833526288476833
 21
-40.0000000000002132
 31
0.0
  0
LINE
  5
17F
100
AcDbEntity
100
AcDbLine
  8
0
 62
256
370
-1
  6
BYLAYER
 10
642.9833526288476833
 20
-40.0000000000002061
 30
0.0
 11
651.9833526288476833
 21
-40.0000000000002061
 31
0.0
  0
LINE
  5
180
100
AcDbEntity
100
AcDbLine
  8
0
 62
256
370
-1
  6
BYLAYER
 10
651.9833526288476833
 20
-40.0000000000002061
 30
0.0
 11
651.9833526288476833
 21
39.9999999999997939
 31
0.0
  0
LINE
  5
181
100
AcDbEntity
100
AcDbLine
  8
0
 62
256
370
-1
  6
BYLAYER
 10
651.9833526288476833
 20
39.9999999999997939
 30
0.0
 11
642.9833526288476833
 21
39.9999999999997939
 31
0.0
  0
LINE
  5
182
100
AcDbEntity
100
AcDbLine
  8
0
 62
256
370
-1
  6
BYLAYER
 10
642.9833526288476833
 20
39.9999999999997939
 30
0.0
 11
642.9833526288476833
 21
-40.0000000000002061
 31
0.0
  0
LINE
  5
183
100
AcDbEntity
100
AcDbLine
  8
0
 62
256
370
-1
  6
BYLAYER
 10
619.0000000000001137
 20
-40.0000000000001705
 30
0.0
 11
633.0000000000001137
 21
-40.0000000000001705
 31
0.0
  0
LINE
  5
184
100
AcDbEntity
100
AcDbLine
  8
0
 62
256
370
-1
  6
BYLAYER
 10
633.0000000000001137
 20
-40.0000000000001705
 30
0.0
 11
633.0000000000001137
 21
39.9999999999998295
 31
0.0
  0
LINE
  5
185
100
AcDbEntity
100
AcDbLine
  8
0
 62
256
370
-1
  6
BYLAYER
 10
633.0000000000001137
 20
39.9999999999998295
 30
0.0
 11
619.0000000000001137
 21
39.9999999999998295
 31
0.0
  0
LINE
  5
186
100
AcDbEntity
100
AcDbLine
  8
0
 62
256
370
-1
  6
BYLAYER
 10
619.0000000000001137
 20
39.9999999999998295
 30
0.0
 11
619.0000000000001137
 21
-40.0000000000001705
 31
0.0
  0
LINE
  5
187
100
AcDbEntity
100
AcDbLine
  8
0
 62
256
370
-1
  6
BYLAYER
 10
633.0000000000001137
 20
39.9999999999998295
 30
0.0
 11
642.9833526288476833
 21
39.9999999999997868
 31
0.0
  0
LINE
  5
188
100
AcDbEntity
100
AcDbLine
  8
0
 62
256
370
-1
  6
BYLAYER
 10
642.9833526288476833
 20
-40.0000000000002132
 30
0.0
 11
633.0000000000001137
 21
-40.0000000000001705
 31
0.0
  0
LINE
  5
189
100
AcDbEntity
100
AcDbLine
  8
bracing_back
 62
256
370
-1
  6
BYLAYER
 10
608.0389999999999873
 20
159.000000000000199
 30
0.0
 11
614.0389999999999873
 21
159.0000000000001137
 31
0.0
  0
LINE
  5
18A
100
AcDbEntity
100
AcDbLine
  8
bracing_back
 62
256
370
-1
  6
BYLAYER
 10
608.0389999999999873
 20
-158.9999999999998295
 30
0.0
 11
614.0389999999999873
 21
-158.9999999999998295
 31
0.0
  0
LINE
  5
18B
100
AcDbEntity
100
AcDbLine
  8
bracing_back
 62
256
370
-1
  6
BYLAYER
 10
614.0389999999999873
 20
-158.9999999999998295
 30
0.0
 11
614.0389999999999873
 21
159.0000000000001137
 31
0.0
  0
LINE
  5
18C
100
AcDbEntity
100
AcDbLine
  8
bracing_back
 62
256
370
-1
  6
BYLAYER
 10
608.0389999999999873
 20
159.0000000000002274
 30
0.0
 11
608.0389999999999873
 21
-158.9999999999998295
 31
0.0
  0
LINE
  5
18D
100
AcDbEntity
100
AcDbLine
  8
bracing_top
 62
256
370
-1
  6
BYLAYER
 10
717.8138167824729408
 20
-58.771238437828643
 30
0.0
 11
525.0389999999999873
 21
-29.2497215834457549
 31
0.0
  0
LINE
  5
18E
100
AcDbEntity
100
AcDbLine
  8
bracing_top
 62
256
370
-1
  6
BYLAYER
 10
695.1985095134953099
 20
-102.0768028770143019
 30
0.0
 11
525.0389999999999873
 21
-53.9835414434274909
 31
0.0
  0
LINE
  5
18F
100
AcDbEntity
100
AcDbLine
  8
bracing_top
 62
256
370
-1
  6
BYLAYER
 10
734.0389999999999873
 20
1.5000000000001705
 30
0.0
 11
525.0389999999999873
 21
1.5000000000001705
 31
0.0
  0
LINE
  5
190
100
AcDbEntity
100
AcDbLine
  8
bracing_top
 62
256
370
-1
  6
BYLAYER
 10
525.0389999999999873
 20
-1.4999999999998295
 30
0.0
 11
734.0389999999999873
 21
-1.4999999999998295
 31
0.0
  0
LINE
  5
191
100
AcDbEntity
100
AcDbLine
  8
bracing_top
 62
256
370
-1
  6
BYLAYER
 10
717.3596912494938351
 20
-61.7366675805154728
 30
0.0
 11
525.0389999999999873
 21
-32.2846954664654504
 31
0.0
  0
LINE
  5
192
100
AcDbEntity
100
AcDbLine
  8
bracing_top
 62
256
370
-1
  6
BYLAYER
 10
694.3825645869185337
 20
-104.9637101974514621
 30
0.0
 11
525.0389999999999873
 21
-57.1010644537044882
 31
0.0
  0
LINE
  5
193
100
AcDbEntity
100
AcDbLine
  8
bracing_top
 62
256
370
-1
  6
BYLAYER
 10
695.1985095134953099
 20
-102.0768028770143019
 30
0.0
 11
694.3825645869185337
 21
-104.9637101974514621
 31
0.0
  0
LINE
  5
194
100
AcDbEntity
100
AcDbLine
  8
bracing_top
 62
256
370
-1
  6
BYLAYER
 10
717.8138167824729408
 20
-58.771238437828643
 30
0.0
 11
717.3596912494938351
 21
-61.7366675805154728
 31
0.0
  0
LINE
  5
195
100
AcDbEntity
100
AcDbLine
  8
bracing_top
 62
256
370
-1
  6
BYLAYER
 10
377.0389999999999873
 20
-74.9999999999998295
 30
0.0
 11
377.0389999999999873
 21
75.0000000000001705
 31
0.0
  0
LINE
  5
196
100
AcDbEntity
100
AcDbLine
  8
bracing_top
 62
256
370
-1
  6
BYLAYER
 10
754.2485290887309475
 20
-2.3871097761114828
 30
0.0
 11
691.315121846498414
 21
-138.7428254676146082
 31
0.0
  0
LINE
  5
197
100
AcDbEntity
100
AcDbLine
  8
bracing_top
 62
256
370
-1
  6
BYLAYER
 10
717.8138167824729408
 20
58.7712384378288846
 30
0.0
 11
525.0389999999999873
 21
29.2497215834460995
 31
0.0
  0
LINE
  5
198
100
AcDbEntity
100
AcDbLine
  8
bracing_top
 62
256
370
-1
  6
BYLAYER
 10
695.1985095134953099
 20
102.0768028770145719
 30
0.0
 11
525.0389999999999873
 21
53.9835414434277538
 31
0.0
  0
LINE
  5
199
100
AcDbEntity
100
AcDbLine
  8
bracing_top
 62
256
370
-1
  6
BYLAYER
 10
754.2485290887309475
 20
2.3871097761117381
 30
0.0
 11
691.315121846498414
 21
138.7428254676148924
 31
0.0
  0
LINE
  5
19A
100
AcDbEntity
100
AcDbLine
  8
bracing_top
 62
256
370
-1
  6
BYLAYER
 10
717.3596912494938351
 20
61.7366675805157428
 30
0.0
 11
525.0389999999999873
 21
32.2846954664657346
 31
0.0
  0
LINE
  5
19B
100
AcDbEntity
100
AcDbLine
  8
bracing_top
 62
256
370
-1
  6
BYLAYER
 10
694.3825645869185337
 20
104.963710197451789
 30
0.0
 11
525.0389999999999873
 21
57.1010644537046375
 31
0.0
  0
LINE
  5
19C
100
AcDbEntity
100
AcDbLine
  8
bracing_top
 62
256
370
-1
  6
BYLAYER
 10
751.5246509352293742
 20
1.1299352437265204
 30
0.0
 11
688.5912436929972955
 21
137.4856509352295859
 31
0.0
  0
LINE
  5
19D
100
AcDbEntity
100
AcDbLine
  8
bracing_top
 62
256
370
-1
  6
BYLAYER
 10
751.5246509352293742
 20
1.1299352437264425
 30
0.0
 11
754.2485290887309475
 21
2.3871097761116187
 31
0.0
  0
LINE
  5
19E
100
AcDbEntity
100
AcDbLine
  8
bracing_top
 62
256
370
-1
  6
BYLAYER
 10
695.1985095134953099
 20
102.0768028770145719
 30
0.0
 11
694.3825645869185337
 21
104.963710197451789
 31
0.0
  0
LINE
  5
19F
100
AcDbEntity
100
AcDbLine
  8
bracing_top
 62
256
370
-1
  6
BYLAYER
 10
688.5912436929972955
 20
137.4856509352295859
 30
0.0
 11
691.315121846498414
 21
138.7428254676148924
 31
0.0
  0
LINE
  5
1A0
100
AcDbEntity
100
AcDbLine
  8
bracing_top
 62
256
370
-1
  6
BYLAYER
 10
717.8138167824729408
 20
58.7712384378288846
 30
0.0
 11
717.3596912494938351
 21
61.7366675805157428
 31
0.0
  0
LINE
  5
1A1
100
AcDbEntity
100
AcDbLine
  8
bracing_top
 62
256
370
-1
  6
BYLAYER
 10
383.0389999999999873
 20
-74.9999999999998295
 30
0.0
 11
383.0389999999999873
 21
75.0000000000001705
 31
0.0
  0
LINE
  5
1A2
100
AcDbEntity
100
AcDbLine
  8
bracing_top
 62
256
370
-1
  6
BYLAYER
 10
414.0389999999999873
 20
-114.9999999999998295
 30
0.0
 11
414.0389999999999873
 21
115.0000000000001705
 31
0.0
  0
LINE
  5
1A3
100
AcDbEntity
100
AcDbLine
  8
bracing_top
 62
256
370
-1
  6
BYLAYER
 10
525.0389999999999873
 20
100.0000000000001705
 30
0.0
 11
525.0389999999999873
 21
-99.9999999999998295
 31
0.0
  0
LINE
  5
1A4
100
AcDbEntity
100
AcDbLine
  8
bracing_top
 62
256
370
-1
  6
BYLAYER
 10
519.0389999999999873
 20
64.6578886536702839
 30
0.0
 11
420.0389999999999873
 21
97.6578886536702697
 31
0.0
  0
LINE
  5
1A5
100
AcDbEntity
100
AcDbLine
  8
bracing_top
 62
256
370
-1
  6
BYLAYER
 10
519.0389999999999873
 20
-63.5310195645440103
 30
0.0
 11
420.0389999999999873
 21
-96.5310195645439819
 31
0.0
  0
LINE
  5
1A6
100
AcDbEntity
100
AcDbLine
  8
frets
 62
256
370
-1
  6
BYLAYER
 10
86.813999999999993
 20
-30.0000000000000853
 30
0.0
 11
86.813999999999993
 21
-3.0000000000001705
 31
0.0
  0
LINE
  5
1A7
100
AcDbEntity
100
AcDbLine
  8
frets
 62
256
370
-1
  6
BYLAYER
 10
83.813999999999993
 20
-0.0000000000001705
 30
0.0
 11
83.8140000000000072
 21
-0.0000000000001705
 31
0.0
  0
LINE
  5
1A8
100
AcDbEntity
100
AcDbLine
  8
frets
 62
256
370
-1
  6
BYLAYER
 10
80.813999999999993
 20
-3.0000000000001705
 30
0.0
 11
80.813999999999993
 21
-30.0000000000000888
 31
0.0
  0
LINE
  5
1A9
100
AcDbEntity
100
AcDbLine
  8
frets
 62
256
370
-1
  6
BYLAYER
 10
145.8007217402140441
 20
-30.0000000000000675
 30
0.0
 11
145.8007217402140441
 21
-2.9994531503185531
 31
0.0
  0
LINE
  5
1AA
100
AcDbEntity
100
AcDbLine
  8
frets
 62
256
370
-1
  6
BYLAYER
 10
142.8007217402140441
 20
0.0005468496814469
 30
0.0
 11
142.8007217402140157
 21
0.0005468496814469
 31
0.0
  0
LINE
  5
1AB
100
AcDbEntity
100
AcDbLine
  8
frets
 62
256
370
-1
  6
BYLAYER
 10
139.8007217402140441
 20
-2.9994531503185531
 30
0.0
 11
139.8007217402140441
 21
-30.0000000000000782
 31
0.0
  0
LINE
  5
1AC
100
AcDbEntity
100
AcDbLine
  8
frets
 62
256
370
-1
  6
BYLAYER
 10
266.9480608863244697
 20
-30.0000000000000426
 30
0.0
 11
266.9480608863244697
 21
-2.9964422599953657
 31
0.0
  0
LINE
  5
1AD
100
AcDbEntity
100
AcDbLine
  8
frets
 62
256
370
-1
  6
BYLAYER
 10
267.4540608863243278
 20
0.0035577400046343
 30
0.0
 11
267.4540608863243278
 21
0.0035577400046343
 31
0.0
  0
LINE
  5
1AE
100
AcDbEntity
100
AcDbLine
  8
frets
 62
256
370
-1
  6
BYLAYER
 10
260.9480608863244697
 20
-2.9964422599953657
 30
0.0
 11
260.9480608863244697
 21
-30.0000000000000497
 31
0.0
  0
LINE
  5
1AF
100
AcDbEntity
100
AcDbLine
  8
frets
 62
256
370
-1
  6
BYLAYER
 10
306.20900000000006
 20
-30.000000000000032
 30
0.0
 11
306.20900000000006
 21
-3.0000000000000471
 31
0.0
  0
LINE
  5
1B0
100
AcDbEntity
100
AcDbLine
  8
frets
 62
256
370
-1
  6
BYLAYER
 10
303.8780000000000996
 20
-0.0000000000000471
 30
0.0
 11
303.8780000000000996
 21
-0.0000000000000471
 31
0.0
  0
LINE
  5
1B1
100
AcDbEntity
100
AcDbLine
  8
frets
 62
256
370
-1
  6
BYLAYER
 10
300.20900000000006
 20
-3.0000000000000471
 30
0.0
 11
300.20900000000006
 21
-30.0000000000000391
 31
0.0
  0
LINE
  5
1B2
100
AcDbEntity
100
AcDbLine
  8
frets
 62
256
370
-1
  6
BYLAYER
 10
198.4604999999999961
 20
-30.0000000000000604
 30
0.0
 11
198.4604999999999961
 21
-3.0000000000002029
 31
0.0
  0
LINE
  5
1B3
100
AcDbEntity
100
AcDbLine
  8
frets
 62
256
370
-1
  6
BYLAYER
 10
195.4604999999999961
 20
-0.0000000000002028
 30
0.0
 11
195.4604999999999961
 21
-0.0000000000002028
 31
0.0
  0
LINE
  5
1B4
100
AcDbEntity
100
AcDbLine
  8
frets
 62
256
370
-1
  6
BYLAYER
 10
192.4604999999999961
 20
-3.0000000000002029
 30
0.0
 11
192.4604999999999961
 21
-30.0000000000000604
 31
0.0
  0
ARC
  5
1B5
100
AcDbEntity
  8
frets
 62
256
370
-1
  6
BYLAYER
100
AcDbCircle
 10
83.8140000000000072
 20
-3.0000000000001705
 30
0.0
 40
3.0
100
AcDbArc
 50
90.0
 51
180.0
  0
ARC
  5
1B6
100
AcDbEntity
  8
frets
 62
256
370
-1
  6
BYLAYER
100
AcDbCircle
 10
83.813999999999993
 20
-3.0000000000001705
 30
0.0
 40
3.0
100
AcDbArc
 50
0.0
 51
90.0
  0
ARC
  5
1B7
100
AcDbEntity
  8
frets
 62
256
370
-1
  6
BYLAYER
100
AcDbCircle
 10
142.8007217402140157
 20
-2.9994531503185531
 30
0.0
 40
3.0
100
AcDbArc
 50
90.0
 51
180.0
  0
ARC
  5
1B8
100
AcDbEntity
  8
frets
 62
256
370
-1
  6
BYLAYER
100
AcDbCircle
 10
142.8007217402140441
 20
-2.9994531503185531
 30
0.0
 40
3.0
100
AcDbArc
 50
0.0
 51
90.0
  0
ARC
  5
1B9
100
AcDbEntity
  8
frets
 62
256
370
-1
  6
BYLAYER
100
AcDbCircle
 10
195.4604999999999961
 20
-3.0000000000002029
 30
0.0
 40
3.0
100
AcDbArc
 50
90.0
 51
180.0
  0
ARC
  5
1BA
100
AcDbEntity
  8
frets
 62
256
370
-1
  6
BYLAYER
100
AcDbCircle
 10
195.4604999999999961
 20
-3.0000000000002029
 30
0.0
 40
3.0
100
AcDbArc
 50
0.0
 51
90.0
  0
ARC
  5
1BB
100
AcDbEntity
  8
frets
 62
256
370
-1
  6
BYLAYER
100
AcDbCircle
 10
263.9480608863244129
 20
-2.9964422599953657
 30
0.0
 40
3.0
100
AcDbArc
 50
90.0
 51
180.0
  0
ARC
  5
1BC
100
AcDbEntity
  8
frets
 62
256
370
-1
  6
BYLAYER
100
AcDbCircle
 10
263.9480608863244129
 20
-2.9964422599953657
 30
0.0
 40
3.0
100
AcDbArc
 50
0.0
 51
90.0
  0
ARC
  5
1BD
100
AcDbEntity
  8
frets
 62
256
370
-1
  6
BYLAYER
100
AcDbCircle
 10
303.20900000000006
 20
-3.0000000000000471
 30
0.0
 40
3.0
100
AcDbArc
 50
90.0
 51
180.0
  0
ARC
  5
1BE
100
AcDbEntity
  8
frets
 62
256
370
-1
  6
BYLAYER
100
AcDbCircle
 10
303.20900000000006
 20
-3.0000000000000471
 30
0.0
 40
3.0
100
AcDbArc
 50
0.0
 51
90.0
  0
ARC
  5
1BF
100
AcDbEntity
  8
bracing_top
 62
256
370
-1
  6
BYLAYER
100
AcDbCircle
 10
468.2865889568663533
 20
0.5634345445629645
 30
0.0
 40
64.0
100
AcDbArc
 50
221.0733934658638304
 51
322.4673606982540264
  0
ARC
  5
1C0
100
AcDbEntity
  8
bracing_top
 62
256
370
-1
  6
BYLAYER
100
AcDbCircle
 10
468.2865889568663533
 20
0.5634345445629645
 30
0.0
 40
64.0
100
AcDbArc
 50
37.5326393017459665
 51
138.9266065341361696
  0
LINE
  5
1C1
100
AcDbEntity
100
AcDbLine
  8
frets
 62
256
370
-1
  6
BYLAYER
 10
-10.0
 20
-30.0000000000001137
 30
0.0
 11
-10.0
 21
29.9999999999997726
 31
0.0
  0
LINE
  5
1C2
100
AcDbEntity
100
AcDbLine
  8
frets
 62
256
370
-1
  6
BYLAYER
 10
-10.0
 20
29.9999999999997726
 30
0.0
 11
428.1370000000000573
 21
29.9999999999999893
 31
0.0
  0
LINE
  5
1C3
100
AcDbEntity
100
AcDbLine
  8
frets
 62
256
370
-1
  6
BYLAYER
 10
-10.0
 20
-30.0000000000001137
 30
0.0
 11
428.1370000000000573
 21
-30.0000000000000071
 31
0.0
  0
LINE
  5
1C4
100
AcDbEntity
100
AcDbLine
  8
frets
 62
256
370
-1
  6
BYLAYER
 10
428.1370000000000005
 20
-30.0
 30
0.0
 11
428.1370000000000005
 21
30.0
 31
0.0
  0
ARC
  5
1C5
100
AcDbEntity
  8
0
 62
256
370
-1
  6
BYLAYER
100
AcDbCircle
 10
-4.2229971288495811
 20
107.8389233363114101
 30
0.0
 40
86.5319793200567915
100
AcDbArc
 50
235.5534856786422893
 51
266.1720018271705044
  0
LINE
  5
1C6
100
AcDbEntity
100
AcDbLine
  8
0
 62
256
370
-1
  6
BYLAYER
 10
-10.0
 20
-21.4999999999999964
 30
0.0
 11
434.7864139712710312
 21
-30.4498481261009033
 31
0.0
  0
ARC
  5
1C7
100
AcDbEntity
  8
0
 62
256
370
-1
  6
BYLAYER
100
AcDbCircle
 10
-5.8630136986269683
 20
-65.8458904109731975
 30
0.0
 40
44.5384401612785723
100
AcDbArc
 50
95.3296439362207479
 51
134.3551342746829675
  0
ARC
  5
1C8
100
AcDbEntity
  8
0
 62
256
370
-1
  6
BYLAYER
100
AcDbCircle
 10
-170.3859861088694174
 20
-22.3595453014687706
 30
0.0
 40
23.9871235027463996
100
AcDbArc
 50
1.6973488240522834
 51
68.7721377855814637
  0
ARC
  5
1C9
100
AcDbEntity
  8
rosette
 62
256
370
-1
  6
BYLAYER
100
AcDbCircle
 10
464.2865889568663533
 20
0.5634345445627957
 30
0.0
 40
57.2022239772875096
100
AcDbArc
 50
224.4889046117162934
 51
254.9904373506036848
  0
ARC
  5
1CA
100
AcDbEntity
  8
rosette
 62
256
370
-1
  6
BYLAYER
100
AcDbCircle
 10
464.2865889568663533
 20
0.563434544562794
 30
0.0
 40
59.8183522831354537
100
AcDbArc
 50
50.7586982692088284
 51
77.2196453273619454
  0
LINE
  5
1CB
100
AcDbEntity
100
AcDbLine
  8
rosette
 62
256
370
-1
  6
BYLAYER
 10
502.1269463186815756
 20
46.8920717422984268
 30
0.0
 11
499.0789156503348636
 21
43.160312402628378
 31
0.0
  0
LINE
  5
1CC
100
AcDbEntity
100
AcDbLine
  8
rosette
 62
256
370
-1
  6
BYLAYER
 10
442.180708048652491
 20
64.4895988652936012
 30
0.0
 11
446.3117787667235348
 21
52.543297940192609
 31
0.0
  0
LINE
  5
1CD
100
AcDbEntity
100
AcDbLine
  8
rosette
 62
256
370
-1
  6
BYLAYER
 10
423.4793136155263369
 20
-39.5222325593264756
 30
0.0
 11
425.7637359064794964
 21
-37.2782064459955294
 31
0.0
  0
LINE
  5
1CE
100
AcDbEntity
100
AcDbLine
  8
rosette
 62
256
370
-1
  6
BYLAYER
 10
449.4723424478931975
 20
-54.6871991922473342
 30
0.0
 11
450.3016552276780544
 21
-51.5942267200128271
 31
0.0
  0
ARC
  5
1CF
100
AcDbEntity
  8
rosette
 62
256
370
-1
  6
BYLAYER
100
AcDbCircle
 10
464.2865889568663533
 20
0.563434544562794
 30
0.0
 40
47.9729692910986785
100
AcDbArc
 50
224.4889046117162934
 51
254.9904373506036848
  0
LINE
  5
1D0
100
AcDbEntity
100
AcDbLine
  8
rosette
 62
256
370
-1
  6
BYLAYER
 10
451.8625371730070697
 20
-45.7728225321226319
 30
0.0
 11
450.8196157361664973
 21
-49.6624614879915001
 31
0.0
  0
LINE
  5
1D1
100
AcDbEntity
100
AcDbLine
  8
rosette
 62
256
370
-1
  6
BYLAYER
 10
430.0633362459086584
 20
-33.0546373288600606
 30
0.0
 11
427.1905082416790265
 21
-35.876664187085936
 31
0.0
  0
ARC
  5
1D2
100
AcDbEntity
  8
rosette
 62
256
370
-1
  6
BYLAYER
100
AcDbCircle
 10
464.2865889568663533
 20
0.5634345445627957
 30
0.0
 40
62.6039999315697457
100
AcDbArc
 50
254.9904373506036848
 51
292.0571192981632294
  0
ARC
  5
1D3
100
AcDbEntity
  8
rosette
 62
256
370
-1
  6
BYLAYER
100
AcDbCircle
 10
464.2865889568663533
 20
0.5634345445627957
 30
0.0
 40
53.9999999999999929
100
AcDbArc
 50
254.9904373506036848
 51
292.0571192981632862
  0
LINE
  5
1D4
100
AcDbEntity
100
AcDbLine
  8
rosette
 62
256
370
-1
  6
BYLAYER
 10
487.7963150696429011
 20
-57.4585749478205088
 30
0.0
 11
484.5652486507774483
 21
-49.484302277580781
 31
0.0
  0
LINE
  5
1D5
100
AcDbEntity
100
AcDbLine
  8
rosette
 62
256
370
-1
  6
BYLAYER
 10
448.0733891378828275
 20
-59.9046806820729358
 30
0.0
 11
449.4723424478931975
 21
-54.6871991922473413
 31
0.0
  0
LINE
  5
1D6
100
AcDbEntity
100
AcDbLine
  8
rosette
 62
256
370
-1
  6
BYLAYER
 10
482.1434622701958688
 20
-61.9356220520907215
 30
0.0
 11
481.4852304289545373
 21
-59.6318106077459618
 31
0.0
  0
ARC
  5
1D7
100
AcDbEntity
  8
rosette
 62
256
370
-1
  6
BYLAYER
100
AcDbCircle
 10
464.2865889568663533
 20
0.5634345445627957
 30
0.0
 40
67.6404054947130646
100
AcDbArc
 50
77.2196453273619596
 51
109.0755562090698447
  0
LINE
  5
1D8
100
AcDbEntity
100
AcDbLine
  8
rosette
 62
256
370
-1
  6
BYLAYER
 10
479.249602386812569
 20
66.5280666180039191
 30
0.0
 11
477.5192536936229999
 21
58.8998027365739603
 31
0.0
  0
ARC
  5
1D9
100
AcDbEntity
  8
rosette
 62
256
370
-1
  6
BYLAYER
100
AcDbCircle
 10
464.2865889568663533
 20
0.563434544562794
 30
0.0
 40
57.2022239772875096
100
AcDbArc
 50
224.4889046117162934
 51
254.9904373506036848
  0
LINE
  5
1DA
100
AcDbEntity
100
AcDbLine
  8
rosette
 62
256
370
-1
  6
BYLAYER
 10
514.2448735181983466
 20
-1.4785751735791326
 30
0.0
 11
519.2407019743316141
 21
-1.682776145393321
 31
0.0
  0
ARC
  5
1DB
100
AcDbEntity
  8
rosette
 62
256
370
-1
  6
BYLAYER
100
AcDbCircle
 10
464.2865889568663533
 20
0.563434544562794
 30
0.0
 40
59.8183522831354537
100
AcDbArc
 50
50.7586982692088284
 51
77.2196453273619454
  0
ARC
  5
1DC
100
AcDbEntity
  8
rosette
 62
256
370
70
  6
BYLAYER
100
AcDbCircle
 10
464.2865889568663533
 20
0.563434544562794
 30
0.0
 40
54.0
100
AcDbArc
 50
123.6900675259797708
 51
285.945395900922847
  0
LINE
  5
1DD
100
AcDbEntity
100
AcDbLine
  8
rosette
 62
256
370
-1
  6
BYLAYER
 10
502.1269463186815756
 20
46.8920717422984268
 30
0.0
 11
499.0789156503349204
 21
43.160312402628378
 31
0.0
  0
LINE
  5
1DE
100
AcDbEntity
100
AcDbLine
  8
rosette
 62
256
370
-1
  6
BYLAYER
 10
436.5515791456050465
 20
42.1659492614549833
 30
0.0
 11
433.778078164478984
 21
46.3262007331441907
 31
0.0
  0
LINE
  5
1DF
100
AcDbEntity
100
AcDbLine
  8
rosette
 62
256
370
-1
  6
BYLAYER
 10
442.180708048652491
 20
64.4895988652936012
 30
0.0
 11
446.3117787667235916
 21
52.5432979401926161
 31
0.0
  0
ARC
  5
1E0
100
AcDbEntity
  8
rosette
 62
256
370
-1
  6
BYLAYER
100
AcDbCircle
 10
464.2865889568663533
 20
0.563434544562794
 30
0.0
 40
50.0
100
AcDbArc
 50
357.6593782585515555
 51
123.6900675259797708
  0
LINE
  5
1E1
100
AcDbEntity
100
AcDbLine
  8
rosette
 62
256
370
-1
  6
BYLAYER
 10
423.47931361552628
 20
-39.5222325593264756
 30
0.0
 11
425.7637359064794964
 21
-37.2782064459955294
 31
0.0
  0
ARC
  5
1E2
100
AcDbEntity
  8
rosette
 62
256
370
-1
  6
BYLAYER
100
AcDbCircle
 10
464.2865889568663533
 20
0.563434544562794
 30
0.0
 40
55.0
100
AcDbArc
 50
357.6593782585515555
 51
123.6900675259798135
  0
LINE
  5
1E3
100
AcDbEntity
100
AcDbLine
  8
rosette
 62
256
370
-1
  6
BYLAYER
 10
449.4723424478931975
 20
-54.6871991922473342
 30
0.0
 11
450.3016552276781113
 21
-51.5942267200128271
 31
0.0
  0
LINE
  5
1E4
100
AcDbEntity
100
AcDbLine
  8
rosette
 62
256
370
-1
  6
BYLAYER
 10
516.7717445667115044
 20
17.0044941396845388
 30
0.0
 11
526.3145001321379368
 21
19.9937777024339454
 31
0.0
  0
ARC
  5
1E5
100
AcDbEntity
  8
rosette
 62
256
370
-1
  6
BYLAYER
100
AcDbCircle
 10
464.2865889568663533
 20
0.563434544562794
 30
0.0
 40
47.9729692910986785
100
AcDbArc
 50
224.4889046117162934
 51
254.9904373506036848
  0
LINE
  5
1E6
100
AcDbEntity
100
AcDbLine
  8
rosette
 62
256
370
-1
  6
BYLAYER
 10
477.0611214040945924
 20
-44.1474290207354727
 30
0.0
 11
479.1215298633248949
 21
-51.3588586280415953
 31
0.0
  0
LINE
  5
1E7
100
AcDbEntity
100
AcDbLine
  8
rosette
 62
256
370
-1
  6
BYLAYER
 10
451.8625371730070128
 20
-45.7728225321226319
 30
0.0
 11
450.8196157361664973
 21
-49.6624614879915001
 31
0.0
  0
LINE
  5
1E8
100
AcDbEntity
100
AcDbLine
  8
rosette
 62
256
370
-1
  6
BYLAYER
 10
508.660402336099196
 20
14.4636031113475365
 30
0.0
 11
512.0003667839985155
 21
15.5098523583098693
 31
0.0
  0
LINE
  5
1E9
100
AcDbEntity
100
AcDbLine
  8
rosette
 62
256
370
-1
  6
BYLAYER
 10
430.0633362459086584
 20
-33.0546373288600606
 30
0.0
 11
427.1905082416790265
 21
-35.876664187085936
 31
0.0
  0
ARC
  5
1EA
100
AcDbEntity
  8
rosette
 62
256
370
70
  6
BYLAYER
100
AcDbCircle
 10
464.2865889568663533
 20
0.563434544562794
 30
0.0
 40
52.0
100
AcDbArc
 50
123.6900675259797708
 51
285.945395900922847
  0
ARC
  5
1EB
100
AcDbEntity
  8
rosette
 62
256
370
-1
  6
BYLAYER
100
AcDbCircle
 10
464.2865889568663533
 20
0.563434544562794
 30
0.0
 40
62.6039999315697457
100
AcDbArc
 50
254.9904373506036848
 51
292.0571192981632294
  0
ARC
  5
1EC
100
AcDbEntity
  8
rosette
 62
256
370
-1
  6
BYLAYER
100
AcDbCircle
 10
464.2865889568663533
 20
0.563434544562794
 30
0.0
 40
53.9999999999999929
100
AcDbArc
 50
254.9904373506036848
 51
292.0571192981632862
  0
LINE
  5
1ED
100
AcDbEntity
100
AcDbLine
  8
rosette
 62
256
370
-1
  6
BYLAYER
 10
487.7963150696429011
 20
-57.4585749478205088
 30
0.0
 11
484.5652486507774483
 21
-49.484302277580781
 31
0.0
  0
LINE
  5
1EE
100
AcDbEntity
100
AcDbLine
  8
rosette
 62
256
370
-1
  6
BYLAYER
 10
448.0733891378828275
 20
-59.9046806820729358
 30
0.0
 11
449.4723424478931975
 21
-54.6871991922473413
 31
0.0
  0
LINE
  5
1EF
100
AcDbEntity
100
AcDbLine
  8
rosette
 62
256
370
-1
  6
BYLAYER
 10
482.1434622701958688
 20
-61.9356220520907215
 30
0.0
 11
481.4852304289545373
 21
-59.6318106077459618
 31
0.0
  0
ARC
  5
1F0
100
AcDbEntity
  8
rosette
 62
256
370
-1
  6
BYLAYER
100
AcDbCircle
 10
464.2865889568663533
 20
0.563434544562794
 30
0.0
 40
67.6404054947130646
100
AcDbArc
 50
77.2196453273619596
 51
109.0755562090698447
  0
LINE
  5
1F1
100
AcDbEntity
100
AcDbLine
  8
rosette
 62
256
370
-1
  6
BYLAYER
 10
479.2496023868125121
 20
66.5280666180039191
 30
0.0
 11
477.5192536936229999
 21
58.8998027365739603
 31
0.0
  0
CIRCLE
  5
1F2
100
AcDbEntity
100
AcDbCircle
  8
rosette
 62
256
370
-1
  6
BYLAYER
 10
464.2865889568663533
 20
0.563434544562794
 30
0.0
 40
44.0
  0
ARC
  5
1F3
100
AcDbEntity
  8
rosette
 62
256
370
-1
  6
BYLAYER
100
AcDbCircle
 10
464.2865889568663533
 20
0.563434544562794
 30
0.0
 40
46.5
100
AcDbArc
 50
285.945395900922847
 51
17.3932490924198788
  0
ARC
  5
1F4
100
AcDbEntity
  8
rosette
 62
256
370
-1
  6
BYLAYER
100
AcDbCircle
 10
464.2865889568663533
 20
0.563434544562794
 30
0.0
 40
65.0
100
AcDbArc
 50
285.945395900922847
 51
17.3932490924198788
  0
LINE
  5
1F5
100
AcDbEntity
100
AcDbLine
  8
rosette
 62
256
370
-1
  6
BYLAYER
 10
478.0390870827093295
 20
61.0189454207326492
 30
0.0
 11
478.4827160545107745
 21
62.96912319093164
 31
0.0
  0
ARC
  5
1F6
100
AcDbEntity
  8
rosette
 62
256
370
70
  6
BYLAYER
100
AcDbCircle
 10
464.2865889568663533
 20
0.563434544562794
 30
0.0
 40
64.0
100
AcDbArc
 50
17.3932490924198788
 51
77.1843711342423546
  0
ARC
  5
1F7
100
AcDbEntity
  8
rosette
 62
256
370
70
  6
BYLAYER
100
AcDbCircle
 10
464.2865889568663533
 20
0.563434544562794
 30
0.0
 40
62.0
100
AcDbArc
 50
17.3932490924198788
 51
77.1843711342423546
  0
LINE
  5
1F8
100
AcDbEntity
100
AcDbLine
  8
frets
 62
256
370
-1
  6
BYLAYER
 10
35.0790000000000006
 20
-30.0
 30
0.0
 11
35.0790000000000006
 21
30.0
 31
0.0
  0
LINE
  5
1F9
100
AcDbEntity
100
AcDbLine
  8
frets
 62
256
370
-1
  6
BYLAYER
 10
68.1880000000000024
 20
-30.0
 30
0.0
 11
68.1880000000000024
 21
30.0
 31
0.0
  0
LINE
  5
1FA
100
AcDbEntity
100
AcDbLine
  8
frets
 62
256
370
-1
  6
BYLAYER
 10
99.4399999999999977
 20
-30.0
 30
0.0
 11
99.4399999999999977
 21
30.0
 31
0.0
  0
LINE
  5
1FB
100
AcDbEntity
100
AcDbLine
  8
frets
 62
256
370
-1
  6
BYLAYER
 10
128.9370000000000118
 20
-30.0
 30
0.0
 11
128.9370000000000118
 21
30.0
 31
0.0
  0
LINE
  5
1FC
100
AcDbEntity
100
AcDbLine
  8
frets
 62
256
370
-1
  6
BYLAYER
 10
156.7789999999999964
 20
-30.0
 30
0.0
 11
156.7789999999999964
 21
30.0
 31
0.0
  0
LINE
  5
1FD
100
AcDbEntity
100
AcDbLine
  8
frets
 62
256
370
-1
  6
BYLAYER
 10
183.0579999999999927
 20
-30.0
 30
0.0
 11
183.0579999999999927
 21
30.0
 31
0.0
  0
LINE
  5
1FE
100
AcDbEntity
100
AcDbLine
  8
frets
 62
256
370
-1
  6
BYLAYER
 10
207.8629999999999995
 20
-30.0
 30
0.0
 11
207.8629999999999995
 21
30.0
 31
0.0
  0
LINE
  5
1FF
100
AcDbEntity
100
AcDbLine
  8
frets
 62
256
370
-1
  6
BYLAYER
 10
231.2750000000000057
 20
-30.0
 30
0.0
 11
231.2750000000000057
 21
30.0
 31
0.0
  0
LINE
  5
200
100
AcDbEntity
100
AcDbLine
  8
frets
 62
256
370
-1
  6
BYLAYER
 10
253.3729999999999905
 20
-30.0
 30
0.0
 11
253.3729999999999905
 21
30.0
 31
0.0
  0
LINE
  5
201
100
AcDbEntity
100
AcDbLine
  8
frets
 62
256
370
-1
  6
BYLAYER
 10
274.2309999999999945
 20
-30.0
 30
0.0
 11
274.2309999999999945
 21
30.0
 31
0.0
  0
LINE
  5
202
100
AcDbEntity
100
AcDbLine
  8
frets
 62
256
370
-1
  6
BYLAYER
 10
293.9180000000000064
 20
-30.0
 30
0.0
 11
293.9180000000000064
 21
30.0
 31
0.0
  0
LINE
  5
203
100
AcDbEntity
100
AcDbLine
  8
frets
 62
256
370
-1
  6
BYLAYER
 10
312.5
 20
-30.0
 30
0.0
 11
312.5
 21
30.0
 31
0.0
  0
LINE
  5
204
100
AcDbEntity
100
AcDbLine
  8
frets
 62
256
370
-1
  6
BYLAYER
 10
330.0389999999999873
 20
-30.0
 30
0.0
 11
330.0389999999999873
 21
30.0
 31
0.0
  0
LINE
  5
205
100
AcDbEntity
100
AcDbLine
  8
frets
 62
256
370
-1
  6
BYLAYER
 10
346.5939999999999941
 20
-30.0
 30
0.0
 11
346.5939999999999941
 21
30.0
 31
0.0
  0
LINE
  5
206
100
AcDbEntity
100
AcDbLine
  8
frets
 62
256
370
-1
  6
BYLAYER
 10
362.2200000000000273
 20
-30.0
 30
0.0
 11
362.2200000000000273
 21
30.0
 31
0.0
  0
LINE
  5
207
100
AcDbEntity
100
AcDbLine
  8
frets
 62
256
370
-1
  6
BYLAYER
 10
376.9689999999999941
 20
-30.0
 30
0.0
 11
376.9689999999999941
 21
30.0
 31
0.0
  0
LINE
  5
208
100
AcDbEntity
100
AcDbLine
  8
frets
 62
256
370
-1
  6
BYLAYER
 10
390.8899999999999864
 20
-30.0
 30
0.0
 11
390.8899999999999864
 21
30.0
 31
0.0
  0
LINE
  5
209
100
AcDbEntity
100
AcDbLine
  8
frets
 62
256
370
-1
  6
BYLAYER
 10
404.0289999999999964
 20
-30.0
 30
0.0
 11
404.0289999999999964
 21
30.0
 31
0.0
  0
LINE
  5
20A
100
AcDbEntity
100
AcDbLine
  8
frets
 62
256
370
-1
  6
BYLAYER
 10
416.4309999999999832
 20
-30.0
 30
0.0
 11
416.4309999999999832
 21
30.0
 31
0.0
  0
LINE
  5
20B
100
AcDbEntity
100
AcDbLine
  8
frets
 62
256
370
-1
  6
BYLAYER
 10
0.0
 20
-30.0
 30
0.0
 11
0.0
 21
30.0
 31
0.0
  0
LINE
  5
20C
100
AcDbEntity
100
AcDbLine
  8
frets
 62
256
370
-1
  6
BYLAYER
 10
68.1880000000000024
 20
0.0
 30
0.0
 11
99.4399999999999977
 21
0.0
 31
0.0
  0
LINE
  5
20D
100
AcDbEntity
100
AcDbLine
  8
frets
 62
256
370
-1
  6
BYLAYER
 10
128.9370000000000118
 20
0.0
 30
0.0
 11
156.7789999999999964
 21
0.0
 31
0.0
  0
LINE
  5
20E
100
AcDbEntity
100
AcDbLine
  8
frets
 62
256
370
-1
  6
BYLAYER
 10
183.0579999999999927
 20
0.0
 30
0.0
 11
207.8629999999999995
 21
0.0
 31
0.0
  0
LINE
  5
20F
100
AcDbEntity
100
AcDbLine
  8
frets
 62
256
370
-1
  6
BYLAYER
 10
253.3729999999999905
 20
0.0
 30
0.0
 11
274.2309999999999945
 21
0.0
 31
0.0
  0
LINE
  5
210
100
AcDbEntity
100
AcDbLine
  8
frets
 62
256
370
-1
  6
BYLAYER
 10
293.9180000000000064
 20
0.0
 30
0.0
 11
312.5
 21
0.0000000000001705
 31
0.0
  0
ARC
  5
211
100
AcDbEntity
  8
rosette
 62
256
370
-1
  6
BYLAYER
100
AcDbCircle
 10
464.2865889568662965
 20
0.5634345445629645
 30
0.0
 40
47.3234358692473123
100
AcDbArc
 50
56.8948642301309206
 51
116.0244272229559925
  0
ARC
  5
212
100
AcDbEntity
  8
rosette
 62
256
370
-1
  6
BYLAYER
100
AcDbCircle
 10
464.2865889568662965
 20
0.5634345445629645
 30
0.0
 40
66.8108972599646904
100
AcDbArc
 50
56.894864230130878
 51
116.024427222956021
  0
LINE
  5
213
100
AcDbEntity
100
AcDbLine
  8
rosette
 62
256
370
-1
  6
BYLAYER
 10
490.133563492096755
 20
40.2048458444386583
 30
0.0
 11
500.7771676402367689
 21
56.5289030053406805
 31
0.0
  0
LINE
  5
214
100
AcDbEntity
100
AcDbLine
  8
rosette
 62
256
370
-1
  6
BYLAYER
 10
434.9730208500955086
 20
60.600179272531598
 30
0.0
 11
443.523228228423477
 21
43.08860866215268
 31
0.0
  0
DIMENSION
  5
215
100
AcDbEntity
  8
0
 62
256
370
-1
  6
BYLAYER
100
AcDbDimension
 10
8.0
 20
-22.0
 30
0.0
 11
6.125
 21
0.0000000000000002
 31
0.0
 70
1
 71
8
 72
2
 41
1.0
 42
0.0
  1

  3
Standard
100
AcDbAlignedDimension
 13
0.0
 23
-22.0
 33
0.0
 14
0.0
 24
22.0
 34
0.0
1001
ACAD
1000
DSTYLE
1002
{
1070
144
1040
1
1002
}
  0
LINE
  5
216
100
AcDbEntity
100
AcDbLine
  8
0
 62
256
370
-1
  6
BYLAYER
 10
625.0000000000001137
 20
-32.5000000000001705
 30
0.0
 11
625.0000000000001137
 21
32.4999999999998295
 31
0.0
  0
LINE
  5
217
100
AcDbEntity
100
AcDbLine
  8
0
 62
256
370
-1
  6
BYLAYER
 10
628.0
 20
-32.5
 30
0.0
 11
628.0
 21
32.5
 31
0.0
  0
LINE
  5
218
100
AcDbEntity
100
AcDbLine
  8
0
 62
256
370
-1
  6
BYLAYER
 10
625.0000000000001137
 20
32.4999999999998295
 30
0.0
 11
628.0
 21
32.5
 31
0.0
  0
LINE
  5
219
100
AcDbEntity
100
AcDbLine
  8
0
 62
256
370
-1
  6
BYLAYER
 10
625.0000000000001137
 20
-32.5000000000001705
 30
0.0
 11
628.0
 21
-32.5
 31
0.0
  0
LINE
  5
21A
100
AcDbEntity
100
AcDbLine
  8
0
 62
256
370
-1
  6
BYLAYER
 10
625.0
 20
6.0
 30
0.0
 11
610.0
 21
6.0
 31
0.0
  0
LINE
  5
21B
100
AcDbEntity
100
AcDbLine
  8
0
 62
256
370
-1
  6
BYLAYER
 10
625.0
 20
18.0
 30
0.0
 11
610.0
 21
18.0
 31
0.0
  0
LINE
  5
21C
100
AcDbEntity
100
AcDbLine
  8
0
 62
256
370
-1
  6
BYLAYER
 10
625.0
 20
30.0
 30
0.0
 11
610.0
 21
30.0
 31
0.0
  0
LINE
  5
21D
100
AcDbEntity
100
AcDbLine
  8
0
 62
256
370
-1
  6
BYLAYER
 10
625.0
 20
-30.0000000000004015
 30
0.0
 11
610.0
 21
-30.0000000000004086
 31
0.0
  0
LINE
  5
21E
100
AcDbEntity
100
AcDbLine
  8
0
 62
256
370
-1
  6
BYLAYER
 10
625.0
 20
-6.0000000000004086
 30
0.0
 11
610.0
 21
-6.0000000000004103
 31
0.0
  0
LINE
  5
21F
100
AcDbEntity
100
AcDbLine
  8
0
 62
256
370
-1
  6
BYLAYER
 10
625.0
 20
-18.000000000000405
 30
0.0
 11
610.0
 21
-18.0000000000004086
 31
0.0
  0
CIRCLE
  5
220
100
AcDbEntity
100
AcDbCircle
  8
0
 62
256
370
-1
  6
BYLAYER
 10
653.0
 20
-30.0
 30
0.0
 40
0.5
  0
CIRCLE
  5
221
100
AcDbEntity
100
AcDbCircle
  8
0
 62
256
370
-1
  6
BYLAYER
 10
653.0
 20
-27.9999999999999964
 30
0.0
 40
0.5
  0
CIRCLE
  5
222
100
AcDbEntity
100
AcDbCircle
  8
0
 62
256
370
-1
  6
BYLAYER
 10
653.0
 20
-18.0
 30
0.0
 40
0.5
  0
CIRCLE
  5
223
100
AcDbEntity
100
AcDbCircle
  8
0
 62
256
370
-1
  6
BYLAYER
 10
653.0
 20
-6.0
 30
0.0
 40
0.5
  0
CIRCLE
  5
224
100
AcDbEntity
100
AcDbCircle
  8
0
 62
256
370
-1
  6
BYLAYER
 10
653.0
 20
6.0
 30
0.0
 40
0.5
  0
CIRCLE
  5
225
100
AcDbEntity
100
AcDbCircle
  8
0
 62
256
370
-1
  6
BYLAYER
 10
653.0
 20
18.0
 30
0.0
 40
0.5
  0
CIRCLE
  5
226
100
AcDbEntity
100
AcDbCircle
  8
0
 62
256
370
-1
  6
BYLAYER
 10
653.0
 20
30.0
 30
0.0
 40
0.5
  0
LINE
  5
227
100
AcDbEntity
100
AcDbLine
  8
0
 62
256
370
-1
  6
BYLAYER
 10
620.0000000000001137
 20
-28.0
 30
0.0
 11
625.0000000000001137
 21
-28.0
 31
0.0
  0
LINE
  5
228
100
AcDbEntity
100
AcDbLine
  8
0
 62
256
370
-1
  6
BYLAYER
 10
620.0000000000001137
 20
-13.3744388763135156
 30
0.0
 11
625.0000000000001137
 21
-13.3744388763135156
 31
0.0
  0
LINE
  5
229
100
AcDbEntity
100
AcDbLine
  8
0
 62
256
370
-1
  6
BYLAYER
 10
620.0000000000001137
 20
-8.0
 30
0.0
 11
625.0000000000001137
 21
-8.0
 31
0.0
  0
LINE
  5
22A
100
AcDbEntity
100
AcDbLine
  8
0
 62
256
370
-1
  6
BYLAYER
 10
620.0000000000001137
 20
8.0
 30
0.0
 11
625.0000000000001137
 21
8.0
 31
0.0
  0
LINE
  5
22B
100
AcDbEntity
100
AcDbLine
  8
0
 62
256
370
-1
  6
BYLAYER
 10
620.0000000000001137
 20
23.0
 30
0.0
 11
625.0000000000001137
 21
23.0
 31
0.0
  0
LINE
  5
22C
100
AcDbEntity
100
AcDbLine
  8
0
 62
256
370
-1
  6
BYLAYER
 10
620.0000000000001137
 20
28.0
 30
0.0
 11
625.0000000000001137
 21
28.0
 31
0.0
  0
CIRCLE
  5
22D
100
AcDbEntity
100
AcDbCircle
  8
0
 62
256
370
-1
  6
BYLAYER
 10
653.0
 20
-20.0
 30
0.0
 40
0.5
  0
CIRCLE
  5
22E
100
AcDbEntity
100
AcDbCircle
  8
0
 62
256
370
-1
  6
BYLAYER
 10
653.0
 20
-8.0
 30
0.0
 40
0.5
  0
CIRCLE
  5
22F
100
AcDbEntity
100
AcDbCircle
  8
0
 62
256
370
-1
  6
BYLAYER
 10
653.0
 20
4.0
 30
0.0
 40
0.5
  0
CIRCLE
  5
230
100
AcDbEntity
100
AcDbCircle
  8
0
 62
256
370
-1
  6
BYLAYER
 10
653.0
 20
16.0
 30
0.0
 40
0.5
  0
CIRCLE
  5
231
100
AcDbEntity
100
AcDbCircle
  8
0
 62
256
370
-1
  6
BYLAYER
 10
653.0
 20
27.9999999999999964
 30
0.0
 40
0.5
  0
DIMENSION
  5
232
100
AcDbEntity
  8
0
 62
256
370
-1
  6
BYLAYER
100
AcDbDimension
 10
15.2555089465787717
 20
-21.4999999999999964
 30
0.0
 11
13.3805089465787717
 21
0.000000000000002
 31
0.0
 70
1
 71
8
 72
2
 41
1.0
 42
0.0
  1

  3
Standard
100
AcDbAlignedDimension
 13
-10.0
 23
-21.4999999999999964
 33
0.0
 14
-10.0
 24
21.5
 34
0.0
1001
ACAD
1000
DSTYLE
1002
{
1070
144
1040
1
1002
}
  0
SPLINE
  5
233
  8
0
 62
256
370
-1
  6
BYLAYER
100
AcDbEntity
100
AcDbSpline
 70
8
 71
3
 72
37
 73
33
 74
0
 40
0.0
 40
0.0
 40
0.0
 40
0.0
 40
1.0
 40
2.0
 40
3.0
 40
4.0
 40
5.0
 40
6.0
 40
7.0
 40
8.0
 40
9.0
 40
10.0
 40
11.0
 40
12.0
 40
13.0
 40
14.0
 40
15.0
 40
16.0
 40
17.0
 40
18.0
 40
19.0
 40
20.0
 40
21.0
 40
22.0
 40
23.0
 40
24.0
 40
25.0
 40
26.0
 40
27.0
 40
28.0
 40
29.0
 40
30.0
 40
30.0
 40
30.0
 40
30.0
 10
213.5
 20
1000.0000000000001137
 30
0.0
 10
213.5
 20
1009.2105263157895934
 30
0.0
 10
212.6140485486072293
 20
1028.9382932804014672
 30
0.0
 10
217.3442744706291876
 20
1052.9441898346638027
 30
0.0
 10
229.1606699505304618
 20
1067.8302066755081796
 30
0.0
 10
238.9692664224355951
 20
1073.3475421909547549
 30
0.0
 10
250.3763639075893934
 20
1075.5571621142960339
 30
0.0
 10
263.4337583798379114
 20
1075.9677720033603237
 30
0.0
 10
275.1772012070804294
 20
1074.0789665136639996
 30
0.0
 10
286.0994242561938563
 20
1071.4510632236515448
 30
0.0
 10
302.0310879518934257
 20
1066.8522324661303173
 30
0.0
 10
311.9678472672524094
 20
1063.8958412648662488
 30
0.0
 10
320.4264109819794157
 20
1063.4852313758019591
 30
0.0
 10
332.8268296317250474
 20
1065.7025247767498968
 30
0.0
 10
343.1741988361483209
 20
1071.2046972902128346
 30
0.0
 10
353.7679339740105888
 20
1079.0062851824372956
 30
0.0
 10
371.9990130484708288
 20
1092.9670214106272397
 30
0.0
 10
383.9066998313388694
 20
1099.4546576578454733
 30
0.0
 10
397.785314081716308
 20
1105.7780499494374453
 30
0.0
 10
414.0454656886674343
 20
1108.4059532394499001
 30
0.0
 10
422.2576634699557871
 20
1108.4880752172625762
 30
0.0
 10
440.5917752110242418
 20
1106.8178814740590497
 30
0.0
 10
452.9480913171294105
 20
1101.4951606898910086
 30
0.0
 10
469.8667395239504572
 20
1091.3249620487117681
 30
0.0
 10
478.6017045251124387
 20
1078.816568205915928
 30
0.0
 10
483.2210657770873468
 20
1068.8934958868587728
 30
0.0
 10
486.8275893027033021
 20
1058.8540840992338872
 30
0.0
 10
489.5079594118737418
 20
1046.5357874273011021
 30
0.0
 10
491.732096310972679
 20
1032.7347328226358059
 30
0.0
 10
492.8156501848927178
 20
1018.1352701003453376
 30
0.0
 10
493.5
 20
1005.7534246575343104
 30
0.0
 10
493.5
 20
1000.0
 30
0.0
 10
493.5
 20
1000.0
 30
0.0
  0
SPLINE
  5
234
  8
0
 62
256
370
-1
  6
BYLAYER
100
AcDbEntity
100
AcDbSpline
 70
8
 71
3
 72
37
 73
33
 74
0
 40
0.0
 40
0.0
 40
0.0
 40
0.0
 40
1.0
 40
2.0
 40
3.0
 40
4.0
 40
5.0
 40
6.0
 40
7.0
 40
8.0
 40
9.0
 40
10.0
 40
11.0
 40
12.0
 40
13.0
 40
14.0
 40
15.0
 40
16.0
 40
17.0
 40
18.0
 40
19.0
 40
20.0
 40
21.0
 40
22.0
 40
23.0
 40
24.0
 40
25.0
 40
26.0
 40
27.0
 40
28.0
 40
29.0
 40
30.0
 40
30.0
 40
30.0
 40
30.0
 10
213.5
 20
1000.0000000000001137
 30
0.0
 10
213.5
 20
990.789473684210293
 30
0.0
 10
212.6140485486072293
 20
971.0617067195987602
 30
0.0
 10
217.3442744706291876
 20
947.0558101653361973
 30
0.0
 10
229.1606699505304618
 20
932.1697933244917067
 30
0.0
 10
238.9692664224355951
 20
926.6524578090451314
 30
0.0
 10
250.3763639075893934
 20
924.4428378857043072
 30
0.0
 10
263.4337583798379114
 20
924.0322279966396763
 30
0.0
 10
275.1772012070804294
 20
925.9210334863360004
 30
0.0
 10
286.0994242561938563
 20
928.5489367763483415
 30
0.0
 10
302.0310879518934257
 20
933.14776753386991
 30
0.0
 10
311.9678472672524094
 20
936.1041587351336375
 30
0.0
 10
320.4264109819794157
 20
936.5147686241980409
 30
0.0
 10
332.8268296317250474
 20
934.2974752232503306
 30
0.0
 10
343.1741988361483209
 20
928.7953027097870518
 30
0.0
 10
353.7679339740105888
 20
920.9937148175627044
 30
0.0
 10
371.9990130484708288
 20
907.0329785893726466
 30
0.0
 10
383.9066998313388694
 20
900.5453423421546404
 30
0.0
 10
397.785314081716308
 20
894.2219500505625547
 30
0.0
 10
414.0454656886673206
 20
891.5940467605503272
 30
0.0
 10
422.2576634699556735
 20
891.5119247827375375
 30
0.0
 10
440.5917752110242418
 20
893.1821185259408367
 30
0.0
 10
452.9480913171294105
 20
898.5048393101092188
 30
0.0
 10
469.8667395239504572
 20
908.6750379512884592
 30
0.0
 10
478.6017045251124387
 20
921.1834317940842993
 30
0.0
 10
483.2210657770872899
 20
931.1065041131412272
 30
0.0
 10
486.8275893027033021
 20
941.1459159007663402
 30
0.0
 10
489.5079594118737418
 20
953.4642125726987842
 30
0.0
 10
491.732096310972679
 20
967.2652671773639668
 30
0.0
 10
492.8156501848927178
 20
981.8647298996546624
 30
0.0
 10
493.5
 20
994.2465753424658033
 30
0.0
 10
493.5
 20
1000.0
 30
0.0
 10
493.5
 20
1000.0
 30
0.0
  0
CIRCLE
  5
235
100
AcDbEntity
100
AcDbCircle
  8
0
 62
256
370
-1
  6
BYLAYER
 10
300.0
 20
1000.0
 30
0.0
 40
30.0
  0
LINE
  5
236
100
AcDbEntity
100
AcDbLine
  8
bracing_top
 62
256
370
-1
  6
BYLAYER
 10
260.0
 20
1090.0
 30
0.0
 11
260.0
 21
900.0
 31
0.0
  0
LINE
  5
237
100
AcDbEntity
100
AcDbLine
  8
bracing_top
 62
256
370
-1
  6
BYLAYER
 10
340.0
 20
1090.0
 30
0.0
 11
340.0
 21
900.0
 31
0.0
  0
LINE
  5
238
100
AcDbEntity
100
AcDbLine
  8
bracing_top
 62
256
370
-1
  6
BYLAYER
 10
266.0
 20
951.5
 30
0.0
 11
334.0
 21
968.5
 31
0.0
  0
LINE
  5
239
100
AcDbEntity
100
AcDbLine
  8
bracing_top
 62
256
370
-1
  6
BYLAYER
 10
266.0
 20
947.5
 30
0.0
 11
334.0
 21
964.5
 31
0.0
  0
LINE
  5
23A
100
AcDbEntity
100
AcDbLine
  8
bracing_top
 62
256
370
-1
  6
BYLAYER
 10
266.0
 20
1090.0
 30
0.0
 11
266.0
 21
900.0
 31
0.0
  0
LINE
  5
23B
100
AcDbEntity
100
AcDbLine
  8
bracing_top
 62
256
370
-1
  6
BYLAYER
 10
334.0
 20
1090.0
 30
0.0
 11
334.0
 21
900.0
 31
0.0
  0
LINE
  5
23C
100
AcDbEntity
100
AcDbLine
  8
bracing_top
 62
256
370
-1
  6
BYLAYER
 10
266.0
 20
1048.5
 30
0.0
 11
334.0
 21
1031.5
 31
0.0
  0
LINE
  5
23D
100
AcDbEntity
100
AcDbLine
  8
bracing_top
 62
256
370
-1
  6
BYLAYER
 10
266.0
 20
1052.5
 30
0.0
 11
334.0
 21
1035.5
 31
0.0
  0
LINE
  5
23E
100
AcDbEntity
100
AcDbLine
  8
bracing_top
 62
256
370
-1
  6
BYLAYER
 10
353.5
 20
1030.0
 30
0.0
 11
463.5
 21
1080.0
 31
0.0
  0
LINE
  5
23F
100
AcDbEntity
100
AcDbLine
  8
bracing_top
 62
256
370
-1
  6
BYLAYER
 10
353.5
 20
1002.0000000000001137
 30
0.0
 11
473.5
 21
1002.0000000000001137
 31
0.0
  0
LINE
  5
240
100
AcDbEntity
100
AcDbLine
  8
0
 62
256
370
-1
  6
BYLAYER
 10
491.5
 20
1030.0
 30
0.0
 11
483.5
 21
1030.0
 31
0.0
  0
LINE
  5
241
100
AcDbEntity
100
AcDbLine
  8
0
 62
256
370
-1
  6
BYLAYER
 10
481.5
 20
1028.0
 30
0.0
 11
481.5
 21
1000.0000000000001137
 31
0.0
  0
LINE
  5
242
100
AcDbEntity
100
AcDbLine
  8
0
 62
256
370
-1
  6
BYLAYER
 10
491.5
 20
970.0000000000001137
 30
0.0
 11
483.5
 21
970.0000000000001137
 31
0.0
  0
LINE
  5
243
100
AcDbEntity
100
AcDbLine
  8
0
 62
256
370
-1
  6
BYLAYER
 10
481.5
 20
972.0000000000001137
 30
0.0
 11
481.5
 21
1000.0000000000001137
 31
0.0
  0
ARC
  5
244
100
AcDbEntity
  8
0
 62
256
370
-1
  6
BYLAYER
100
AcDbCircle
 10
483.5
 20
1028.0
 30
0.0
 40
2.0
100
AcDbArc
 50
90.0
 51
180.0
  0
ARC
  5
245
100
AcDbEntity
  8
0
 62
256
370
-1
  6
BYLAYER
100
AcDbCircle
 10
483.5
 20
972.0000000000001137
 30
0.0
 40
2.0
100
AcDbArc
 50
180.0
 51
270.0
  0
LINE
  5
246
100
AcDbEntity
100
AcDbLine
  8
bracing_top
 62
256
370
-1
  6
BYLAYER
 10
353.5
 20
998.0000000000001137
 30
0.0
 11
473.5
 21
998.0000000000001137
 31
0.0
  0
LINE
  5
247
100
AcDbEntity
100
AcDbLine
  8
bracing_top
 62
256
370
-1
  6
BYLAYER
 10
355.1552117772047268
 20
1026.3585340901495329
 30
0.0
 11
465.1552117772047268
 21
1076.3585340901495329
 31
0.0
  0
LINE
  5
248
100
AcDbEntity
100
AcDbLine
  8
0
 62
256
370
-1
  6
BYLAYER
 10
0.0
 20
1000.0
 30
0.0
 11
213.5
 21
1000.0000000000001137
 31
0.0
  0
LINE
  5
249
100
AcDbEntity
100
AcDbLine
  8
bracing_back
 62
256
370
-1
  6
BYLAYER
 10
385.0
 20
1000.0
 30
0.0
 11
385.0
 21
1026.5
 31
0.0
  0
LINE
  5
24A
100
AcDbEntity
100
AcDbLine
  8
bracing_back
 62
256
370
-1
  6
BYLAYER
 10
385.0
 20
1000.0
 30
0.0
 11
385.0
 21
973.4999999999998863
 31
0.0
  0
LINE
  5
24B
100
AcDbEntity
100
AcDbLine
  8
frets
 62
256
370
-1
  6
BYLAYER
 10
0.0
 20
1027.5
 30
0.0
 11
0.0
 21
972.5
 31
0.0
  0
LINE
  5
24C
100
AcDbEntity
100
AcDbLine
  8
frets
 62
256
370
-1
  6
BYLAYER
 10
-2.5
 20
1018.0
 30
0.0
 11
2.5
 21
1018.0
 31
0.0
  0
LINE
  5
24D
100
AcDbEntity
100
AcDbLine
  8
frets
 62
256
370
-1
  6
BYLAYER
 10
-2.5
 20
982.0
 30
0.0
 11
2.5
 21
982.0
 31
0.0
  0
LINE
  5
24E
100
AcDbEntity
100
AcDbLine
  8
frets
 62
256
370
-1
  6
BYLAYER
 10
21.6080000000000005
 20
1027.5
 30
0.0
 11
21.6080000000000005
 21
972.5
 31
0.0
  0
LINE
  5
24F
100
AcDbEntity
100
AcDbLine
  8
frets
 62
256
370
-1
  6
BYLAYER
 10
42.0039999999999978
 20
1027.5
 30
0.0
 11
42.0039999999999978
 21
972.5
 31
0.0
  0
LINE
  5
250
100
AcDbEntity
100
AcDbLine
  8
frets
 62
256
370
-1
  6
BYLAYER
 10
61.2550000000000026
 20
1027.5
 30
0.0
 11
61.2550000000000026
 21
972.5
 31
0.0
  0
LINE
  5
251
100
AcDbEntity
100
AcDbLine
  8
frets
 62
256
370
-1
  6
BYLAYER
 10
79.4249999999999972
 20
1027.5
 30
0.0
 11
79.4249999999999972
 21
972.5
 31
0.0
  0
LINE
  5
252
100
AcDbEntity
100
AcDbLine
  8
frets
 62
256
370
-1
  6
BYLAYER
 10
96.5759999999999934
 20
1027.5
 30
0.0
 11
96.5759999999999934
 21
972.5
 31
0.0
  0
LINE
  5
253
100
AcDbEntity
100
AcDbLine
  8
frets
 62
256
370
-1
  6
BYLAYER
 10
112.7639999999999958
 20
1027.5
 30
0.0
 11
112.7639999999999958
 21
972.5
 31
0.0
  0
LINE
  5
254
100
AcDbEntity
100
AcDbLine
  8
frets
 62
256
370
-1
  6
BYLAYER
 10
128.0430000000000064
 20
1027.5
 30
0.0
 11
128.0430000000000064
 21
972.5
 31
0.0
  0
LINE
  5
255
100
AcDbEntity
100
AcDbLine
  8
frets
 62
256
370
-1
  6
BYLAYER
 10
142.4650000000000034
 20
1027.5
 30
0.0
 11
142.4650000000000034
 21
972.5
 31
0.0
  0
LINE
  5
256
100
AcDbEntity
100
AcDbLine
  8
frets
 62
256
370
-1
  6
BYLAYER
 10
156.078000000000003
 20
1027.5
 30
0.0
 11
156.078000000000003
 21
972.5
 31
0.0
  0
LINE
  5
257
100
AcDbEntity
100
AcDbLine
  8
frets
 62
256
370
-1
  6
BYLAYER
 10
168.9259999999999877
 20
1027.5
 30
0.0
 11
168.9259999999999877
 21
972.5
 31
0.0
  0
LINE
  5
258
100
AcDbEntity
100
AcDbLine
  8
frets
 62
256
370
-1
  6
BYLAYER
 10
181.0529999999999973
 20
1027.5
 30
0.0
 11
181.0529999999999973
 21
972.5
 31
0.0
  0
LINE
  5
259
100
AcDbEntity
100
AcDbLine
  8
frets
 62
256
370
-1
  6
BYLAYER
 10
192.5
 20
1027.5
 30
0.0
 11
192.5
 21
972.5
 31
0.0
  0
LINE
  5
25A
100
AcDbEntity
100
AcDbLine
  8
frets
 62
256
370
-1
  6
BYLAYER
 10
203.304000000000002
 20
1027.5
 30
0.0
 11
203.304000000000002
 21
972.5
 31
0.0
  0
LINE
  5
25B
100
AcDbEntity
100
AcDbLine
  8
frets
 62
256
370
-1
  6
BYLAYER
 10
213.5020000000000095
 20
1027.5
 30
0.0
 11
213.5020000000000095
 21
972.5
 31
0.0
  0
LINE
  5
25C
100
AcDbEntity
100
AcDbLine
  8
frets
 62
256
370
-1
  6
BYLAYER
 10
223.1270000000000095
 20
1027.5
 30
0.0
 11
223.1270000000000095
 21
972.5
 31
0.0
  0
LINE
  5
25D
100
AcDbEntity
100
AcDbLine
  8
frets
 62
256
370
-1
  6
BYLAYER
 10
232.2129999999999939
 20
1027.5
 30
0.0
 11
232.2129999999999939
 21
972.5
 31
0.0
  0
LINE
  5
25E
100
AcDbEntity
100
AcDbLine
  8
frets
 62
256
370
-1
  6
BYLAYER
 10
240.7880000000000109
 20
1027.5
 30
0.0
 11
240.7880000000000109
 21
972.5
 31
0.0
  0
LINE
  5
25F
100
AcDbEntity
100
AcDbLine
  8
frets
 62
256
370
-1
  6
BYLAYER
 10
248.882000000000005
 20
1027.5
 30
0.0
 11
248.882000000000005
 21
972.5
 31
0.0
  0
LINE
  5
260
100
AcDbEntity
100
AcDbLine
  8
frets
 62
256
370
-1
  6
BYLAYER
 10
256.5219999999999914
 20
1027.5
 30
0.0
 11
256.5219999999999914
 21
972.5
 31
0.0
  0
LINE
  5
261
100
AcDbEntity
100
AcDbLine
  8
frets
 62
256
370
-1
  6
BYLAYER
 10
263.7330000000000041
 20
1027.5
 30
0.0
 11
263.7330000000000041
 21
972.5
 31
0.0
  0
LINE
  5
262
100
AcDbEntity
100
AcDbLine
  8
frets
 62
256
370
-1
  6
BYLAYER
 10
270.5389999999999873
 20
1027.5
 30
0.0
 11
270.5389999999999873
 21
972.5
 31
0.0
  0
LINE
  5
263
100
AcDbEntity
100
AcDbLine
  8
bracing_back
 62
256
370
-1
  6
BYLAYER
 10
396.1664367788758341
 20
955.0
 30
0.0
 11
402.5
 21
955.0
 31
0.0
  0
LINE
  5
264
100
AcDbEntity
100
AcDbLine
  8
bracing_back
 62
256
370
-1
  6
BYLAYER
 10
402.5
 20
955.0
 30
0.0
 11
402.5
 21
1045.0
 31
0.0
  0
LINE
  5
265
100
AcDbEntity
100
AcDbLine
  8
bracing_back
 62
256
370
-1
  6
BYLAYER
 10
402.5
 20
1045.0
 30
0.0
 11
396.1664367788758341
 21
1045.0
 31
0.0
  0
LINE
  5
266
100
AcDbEntity
100
AcDbLine
  8
bracing_back
 62
256
370
-1
  6
BYLAYER
 10
377.5
 20
1036.5152560096016714
 30
0.0
 11
377.5
 21
963.4847439903981012
 31
0.0
  0
LINE
  5
267
100
AcDbEntity
100
AcDbLine
  8
bracing_top
 62
256
370
-1
  6
BYLAYER
 10
353.5
 20
970.0
 30
0.0
 11
463.5
 21
920.0
 31
0.0
  0
LINE
  5
268
100
AcDbEntity
100
AcDbLine
  8
bracing_top
 62
256
370
-1
  6
BYLAYER
 10
355.1552117772047268
 20
973.6414659098504671
 30
0.0
 11
465.1552117772046699
 21
923.6414659098504671
 31
0.0
  0
LINE
  5
269
100
AcDbEntity
100
AcDbLine
  8
strings
 62
256
370
-1
  6
BYLAYER
 10
0.0
 20
984.9999999999998863
 30
0.0
 11
384.9999999999998863
 21
978.5
 31
0.0
  0
LINE
  5
26A
100
AcDbEntity
100
AcDbLine
  8
0
 62
256
370
-1
  6
BYLAYER
 10
0.0
 20
1018.0
 30
0.0
 11
213.502000000000038
 21
1022.7136805194804765
 31
0.0
  0
LINE
  5
26B
100
AcDbEntity
100
AcDbLine
  8
0
 62
256
370
-1
  6
BYLAYER
 10
0.0
 20
982.0
 30
0.0
 11
213.502000000000038
 21
977.2863194805194098
 31
0.0
  0
LINE
  5
26C
100
AcDbEntity
100
AcDbLine
  8
strings
 62
256
370
-1
  6
BYLAYER
 10
0.0
 20
995.0
 30
0.0
 11
385.0000000000000568
 21
992.7999999999999545
 31
0.0
  0
LINE
  5
26D
100
AcDbEntity
100
AcDbLine
  8
strings
 62
256
370
-1
  6
BYLAYER
 10
0.0
 20
1015.0000000000004547
 30
0.0
 11
384.9999999999998863
 21
1021.5000000000003411
 31
0.0
  0
LINE
  5
26E
100
AcDbEntity
100
AcDbLine
  8
strings
 62
256
370
-1
  6
BYLAYER
 10
0.0
 20
1005.0000000000001137
 30
0.0
 11
385.0000000000000568
 21
1007.200000000000955
 31
0.0
  0
CIRCLE
  5
26F
100
AcDbEntity
100
AcDbCircle
  8
dowels
 62
256
370
-1
  6
BYLAYER
 10
710.0
 20
1029.5
 30
0.0
 40
9.5
  0
CIRCLE
  5
270
100
AcDbEntity
100
AcDbCircle
  8
dowels
 62
256
370
-1
  6
BYLAYER
 10
710.0
 20
1029.5
 30
0.0
 40
1.0
  0
LINE
  5
271
100
AcDbEntity
100
AcDbLine
  8
guides
 62
256
370
-1
  6
BYLAYER
 10
355.0000000000000568
 20
865.0000000000001137
 30
0.0
 11
355.0000000000000568
 21
895.0000000000001137
 31
0.0
  0
LINE
  5
272
100
AcDbEntity
100
AcDbLine
  8
guides
 62
256
370
-1
  6
BYLAYER
 10
355.0000000000000568
 20
895.0000000000001137
 30
0.0
 11
385.0000000000000568
 21
895.0000000000001137
 31
0.0
  0
LINE
  5
273
100
AcDbEntity
100
AcDbLine
  8
guides
 62
256
370
-1
  6
BYLAYER
 10
385.0000000000000568
 20
895.0000000000001137
 30
0.0
 11
385.0000000000000568
 21
865.0000000000001137
 31
0.0
  0
LINE
  5
274
100
AcDbEntity
100
AcDbLine
  8
guides
 62
256
370
-1
  6
BYLAYER
 10
385.0000000000000568
 20
865.0000000000001137
 30
0.0
 11
355.0000000000000568
 21
865.0000000000001137
 31
0.0
  0
LINE
  5
275
100
AcDbEntity
100
AcDbLine
  8
guides
 62
256
370
-1
  6
BYLAYER
 10
355.0000000000000568
 20
895.0000000000001137
 30
0.0
 11
385.0000000000000568
 21
865.0000000000001137
 31
0.0
  0
LINE
  5
276
100
AcDbEntity
100
AcDbLine
  8
guides
 62
256
370
-1
  6
BYLAYER
 10
385.0000000000000568
 20
895.0000000000001137
 30
0.0
 11
355.0000000000000568
 21
865.0000000000001137
 31
0.0
  0
LINE
  5
277
100
AcDbEntity
100
AcDbLine
  8
guides
 62
256
370
-1
  6
BYLAYER
 10
355.0000000000000568
 20
1135.0
 30
0.0
 11
355.0
 21
1105.0000000000002274
 31
0.0
  0
LINE
  5
278
100
AcDbEntity
100
AcDbLine
  8
guides
 62
256
370
-1
  6
BYLAYER
 10
355.0
 20
1105.0000000000002274
 30
0.0
 11
385.0000000000000568
 21
1105.0
 31
0.0
  0
LINE
  5
279
100
AcDbEntity
100
AcDbLine
  8
guides
 62
256
370
-1
  6
BYLAYER
 10
385.0000000000000568
 20
1105.0
 30
0.0
 11
385.0
 21
1135.0000000000002274
 31
0.0
  0
LINE
  5
27A
100
AcDbEntity
100
AcDbLine
  8
guides
 62
256
370
-1
  6
BYLAYER
 10
385.0
 20
1135.0000000000002274
 30
0.0
 11
355.0000000000000568
 21
1135.0
 31
0.0
  0
LINE
  5
27B
100
AcDbEntity
100
AcDbLine
  8
guides
 62
256
370
-1
  6
BYLAYER
 10
355.0
 20
1105.0000000000002274
 30
0.0
 11
385.0
 21
1135.0000000000002274
 31
0.0
  0
LINE
  5
27C
100
AcDbEntity
100
AcDbLine
  8
guides
 62
256
370
-1
  6
BYLAYER
 10
385.0000000000000568
 20
1105.0
 30
0.0
 11
355.0000000000000568
 21
1135.0
 31
0.0
  0
LINE
  5
27D
100
AcDbEntity
100
AcDbLine
  8
guides
 62
256
370
-1
  6
BYLAYER
 10
-130.0
 20
1000.0
 30
0.0
 11
-0.0
 21
1000.0
 31
0.0
  0
ARC
  5
27E
100
AcDbEntity
  8
0
 62
256
370
-1
  6
BYLAYER
100
AcDbCircle
 10
-109.2209661817422273
 20
1072.8737701230229504
 30
0.0
 40
53.3836947502216361
100
AcDbArc
 50
351.1379360578961268
 51
30.188844548932984
  0
ARC
  5
27F
100
AcDbEntity
  8
0
 62
256
370
-1
  6
BYLAYER
100
AcDbCircle
 10
63.6232770585996263
 20
1140.4561004740985481
 30
0.0
 40
22.9763474324225676
100
AcDbArc
 50
214.1389258000832569
 51
278.2556191834414676
  0
ARC
  5
280
100
AcDbEntity
  8
0
 62
256
370
-1
  6
BYLAYER
100
AcDbCircle
 10
24.9734525978735746
 20
1587.7913648636013022
 30
0.0
 40
460.6481872108947186
100
AcDbArc
 50
259.1683194459221227
 51
272.4426801117764398
  0
ARC
  5
281
100
AcDbEntity
  8
0
 62
256
370
-1
  6
BYLAYER
100
AcDbCircle
 10
-29.7677131287998975
 20
1116.177749977137637
 30
0.0
 40
37.1547302967145185
100
AcDbArc
 50
148.9343677097820375
 51
206.2960601728877919
  0
ARC
  5
282
100
AcDbEntity
  8
0
 62
256
370
-1
  6
BYLAYER
100
AcDbCircle
 10
32.7897750345711216
 20
526.4434571653954436
 30
0.0
 40
545.5584847096902195
100
AcDbArc
 50
88.7589121639419858
 51
99.4170829373830003
  0
ARC
  5
283
100
AcDbEntity
  8
0
 62
256
370
-1
  6
BYLAYER
100
AcDbCircle
 10
63.6232770585996192
 20
1058.979599174248051
 30
0.0
 40
22.9763474324225676
100
AcDbArc
 50
81.7443808165585324
 51
145.8610741999167715
  0
ARC
  5
284
100
AcDbEntity
  8
0
 62
256
370
-1
  6
BYLAYER
100
AcDbCircle
 10
51.8164509312159893
 20
2096.3492560179374777
 30
0.0
 40
768.5164762188793475
100
AcDbArc
 50
261.491509298450751
 51
269.6918929905835967
  0
ARC
  5
285
100
AcDbEntity
  8
0
 62
256
370
-1
  6
BYLAYER
100
AcDbCircle
 10
51.8164509312160675
 20
503.6507439820622949
 30
0.0
 40
768.5164762188793475
100
AcDbArc
 50
90.3081070094163891
 51
98.5084907015492774
  0
ARC
  5
286
100
AcDbEntity
  8
0
 62
256
370
-1
  6
BYLAYER
100
AcDbCircle
 10
-99.560955019538568
 20
1325.6575793003405579
 30
0.0
 40
39.1428337913908422
100
AcDbArc
 50
319.0434891578196925
 51
15.7630554751318552
  0
ARC
  5
287
100
AcDbEntity
  8
0
 62
256
370
-1
  6
BYLAYER
100
AcDbCircle
 10
-99.560955019538568
 20
1274.3424206996594421
 30
0.0
 40
39.1428337913908422
100
AcDbArc
 50
344.236944524868079
 51
40.9565108421803501
  0
ARC
  5
288
100
AcDbEntity
  8
0
 62
256
370
-1
  6
BYLAYER
100
AcDbCircle
 10
66.7008336330852103
 20
1340.7382506499252486
 30
0.0
 40
22.9763474324225676
100
AcDbArc
 50
214.1389258000832569
 51
278.2556191834414676
  0
ARC
  5
289
100
AcDbEntity
  8
0
 62
256
370
-1
  6
BYLAYER
100
AcDbCircle
 10
66.7008336330851961
 20
1259.2617493500747514
 30
0.0
 40
22.9763474324225676
100
AcDbArc
 50
81.7443808165585324
 51
145.8610741999167715
  0
ARC
  5
28A
100
AcDbEntity
  8
0
 62
256
370
-1
  6
BYLAYER
100
AcDbCircle
 10
-99.560955019538568
 20
1225.6575793003405579
 30
0.0
 40
39.1428337913908422
100
AcDbArc
 50
319.0434891578196925
 51
15.7630554751318552
  0
ARC
  5
28B
100
AcDbEntity
  8
0
 62
256
370
-1
  6
BYLAYER
100
AcDbCircle
 10
-99.560955019538568
 20
1174.3424206996594421
 30
0.0
 40
39.1428337913908422
100
AcDbArc
 50
344.236944524868079
 51
40.9565108421803501
  0
ARC
  5
28C
100
AcDbEntity
  8
0
 62
256
370
-1
  6
BYLAYER
100
AcDbCircle
 10
66.7008336330852103
 20
1240.7382506499252486
 30
0.0
 40
22.9763474324225676
100
AcDbArc
 50
214.1389258000832569
 51
278.2556191834414676
  0
ARC
  5
28D
100
AcDbEntity
  8
0
 62
256
370
-1
  6
BYLAYER
100
AcDbCircle
 10
-42.301880458100996
 20
775.4841594163915488
 30
0.0
 40
461.2230996375059249
100
AcDbArc
 50
78.7493027461397332
 51
92.4340995428945433
  0
ARC
  5
28E
100
AcDbEntity
  8
0
 62
256
370
-1
  6
BYLAYER
100
AcDbCircle
 10
-42.3018804581011096
 20
1624.5158405836084512
 30
0.0
 40
461.2230996375059249
100
AcDbArc
 50
267.5659004571054425
 51
281.2506972538602668
  0
ARC
  5
28F
100
AcDbEntity
  8
0
 62
256
370
-1
  6
BYLAYER
100
AcDbCircle
 10
66.7008336330851961
 20
1159.2617493500747514
 30
0.0
 40
22.9763474324225676
100
AcDbArc
 50
81.7443808165585324
 51
145.8610741999167715
  0
LINE
  5
290
100
AcDbEntity
100
AcDbLine
  8
0
 62
256
370
-1
  6
BYLAYER
 10
213.684331789249967
 20
1030.0
 30
0.0
 11
238.0000000000000284
 21
1030.0
 31
0.0
  0
LINE
  5
291
100
AcDbEntity
100
AcDbLine
  8
0
 62
256
370
-1
  6
BYLAYER
 10
213.6843317892498817
 20
970.0000000000007958
 30
0.0
 11
238.0000000000000284
 21
970.0000000000006821
 31
0.0
  0
LINE
  5
292
100
AcDbEntity
100
AcDbLine
  8
0
 62
256
370
-1
  6
BYLAYER
 10
240.0
 20
972.0000000000006821
 30
0.0
 11
240.0
 21
1028.0
 31
0.0
  0
ARC
  5
293
100
AcDbEntity
  8
0
 62
256
370
-1
  6
BYLAYER
100
AcDbCircle
 10
238.0000000000000284
 20
1028.0
 30
0.0
 40
2.0
100
AcDbArc
 50
0.0
 51
90.0
  0
ARC
  5
294
100
AcDbEntity
  8
0
 62
256
370
-1
  6
BYLAYER
100
AcDbCircle
 10
238.0000000000000284
 20
972.0000000000006821
 30
0.0
 40
2.0
100
AcDbArc
 50
270.0
 51
0.0
  0
CIRCLE
  5
295
100
AcDbEntity
100
AcDbCircle
  8
dowels
 62
256
370
-1
  6
BYLAYER
 10
203.8834501062962374
 20
1011.1376848260089218
 30
0.0
 40
9.5
  0
CIRCLE
  5
296
100
AcDbEntity
100
AcDbCircle
  8
dowels
 62
256
370
-1
  6
BYLAYER
 10
203.8834501062962374
 20
1011.1376848260089218
 30
0.0
 40
1.0
  0
CIRCLE
  5
297
100
AcDbEntity
100
AcDbCircle
  8
dowels
 62
256
370
-1
  6
BYLAYER
 10
224.9905875566789746
 20
1031.7070608126875868
 30
0.0
 40
9.5
  0
CIRCLE
  5
298
100
AcDbEntity
100
AcDbCircle
  8
dowels
 62
256
370
-1
  6
BYLAYER
 10
224.9905875566789746
 20
1031.7070608126875868
 30
0.0
 40
1.0
  0
CIRCLE
  5
299
100
AcDbEntity
100
AcDbCircle
  8
dowels
 62
256
370
-1
  6
BYLAYER
 10
236.4180186603894072
 20
1058.4606936319626129
 30
0.0
 40
9.5
  0
CIRCLE
  5
29A
100
AcDbEntity
100
AcDbCircle
  8
dowels
 62
256
370
-1
  6
BYLAYER
 10
236.4180186603894072
 20
1058.4606936319626129
 30
0.0
 40
1.0
  0
CIRCLE
  5
29B
100
AcDbEntity
100
AcDbCircle
  8
dowels
 62
256
370
-1
  6
BYLAYER
 10
269.6247890441126174
 20
1063.703867903076798
 30
0.0
 40
9.5
  0
CIRCLE
  5
29C
100
AcDbEntity
100
AcDbCircle
  8
dowels
 62
256
370
-1
  6
BYLAYER
 10
269.6247890441126174
 20
1063.703867903076798
 30
0.0
 40
1.0
  0
CIRCLE
  5
29D
100
AcDbEntity
100
AcDbCircle
  8
dowels
 62
256
370
-1
  6
BYLAYER
 10
297.5346090103512324
 20
1078.2234274230856954
 30
0.0
 40
9.5
  0
CIRCLE
  5
29E
100
AcDbEntity
100
AcDbCircle
  8
dowels
 62
256
370
-1
  6
BYLAYER
 10
297.5346090103512324
 20
1078.2234274230856954
 30
0.0
 40
1.0
  0
CIRCLE
  5
29F
100
AcDbEntity
100
AcDbCircle
  8
dowels
 62
256
370
-1
  6
BYLAYER
 10
319.1795079244379849
 20
1073.3835742497494721
 30
0.0
 40
9.5
  0
CIRCLE
  5
2A0
100
AcDbEntity
100
AcDbCircle
  8
dowels
 62
256
370
-1
  6
BYLAYER
 10
319.1795079244379849
 20
1073.3835742497494721
 30
0.0
 40
1.0
  0
CIRCLE
  5
2A1
100
AcDbEntity
100
AcDbCircle
  8
dowels
 62
256
370
-1
  6
BYLAYER
 10
340.2866453748207505
 20
1081.181115473457794
 30
0.0
 40
9.5
  0
CIRCLE
  5
2A2
100
AcDbEntity
100
AcDbCircle
  8
dowels
 62
256
370
-1
  6
BYLAYER
 10
340.2866453748207505
 20
1081.181115473457794
 30
0.0
 40
1.0
  0
CIRCLE
  5
2A3
100
AcDbEntity
100
AcDbCircle
  8
dowels
 62
256
370
-1
  6
BYLAYER
 10
373.3589753926181061
 20
1080.1055925460495928
 30
0.0
 40
9.5
  0
CIRCLE
  5
2A4
100
AcDbEntity
100
AcDbCircle
  8
dowels
 62
256
370
-1
  6
BYLAYER
 10
373.3589753926181061
 20
1080.1055925460495928
 30
0.0
 40
1.0
  0
CIRCLE
  5
2A5
100
AcDbEntity
100
AcDbCircle
  8
dowels
 62
256
370
-1
  6
BYLAYER
 10
403.2047366281911991
 20
1095.4317942616141863
 30
0.0
 40
9.5
  0
CIRCLE
  5
2A6
100
AcDbEntity
100
AcDbCircle
  8
dowels
 62
256
370
-1
  6
BYLAYER
 10
403.2047366281911991
 20
1095.4317942616141863
 30
0.0
 40
1.0
  0
CIRCLE
  5
2A7
100
AcDbEntity
100
AcDbCircle
  8
dowels
 62
256
370
-1
  6
BYLAYER
 10
432.6471767659862735
 20
1096.1039960912441984
 30
0.0
 40
9.5
  0
CIRCLE
  5
2A8
100
AcDbEntity
100
AcDbCircle
  8
dowels
 62
256
370
-1
  6
BYLAYER
 10
432.6471767659862735
 20
1096.1039960912441984
 30
0.0
 40
1.0
  0
CIRCLE
  5
2A9
100
AcDbEntity
100
AcDbCircle
  8
dowels
 62
256
370
-1
  6
BYLAYER
 10
458.3252866578531552
 20
1084.9454457193858161
 30
0.0
 40
9.5
  0
CIRCLE
  5
2AA
100
AcDbEntity
100
AcDbCircle
  8
dowels
 62
256
370
-1
  6
BYLAYER
 10
458.3252866578531552
 20
1084.9454457193858161
 30
0.0
 40
1.0
  0
CIRCLE
  5
2AB
100
AcDbEntity
100
AcDbCircle
  8
dowels
 62
256
370
-1
  6
BYLAYER
 10
471.903763616379706
 20
1066.9304366853004922
 30
0.0
 40
9.5
  0
CIRCLE
  5
2AC
100
AcDbEntity
100
AcDbCircle
  8
dowels
 62
256
370
-1
  6
BYLAYER
 10
471.903763616379706
 20
1066.9304366853004922
 30
0.0
 40
1.0
  0
CIRCLE
  5
2AD
100
AcDbEntity
100
AcDbCircle
  8
dowels
 62
256
370
-1
  6
BYLAYER
 10
478.7602222786059656
 20
1043.1344919163975646
 30
0.0
 40
9.5
  0
CIRCLE
  5
2AE
100
AcDbEntity
100
AcDbCircle
  8
dowels
 62
256
370
-1
  6
BYLAYER
 10
478.7602222786059656
 20
1043.1344919163975646
 30
0.0
 40
1.0
  0
CIRCLE
  5
2AF
100
AcDbEntity
100
AcDbCircle
  8
dowels
 62
256
370
-1
  6
BYLAYER
 10
481.8523506949042599
 20
1012.6165288511947438
 30
0.0
 40
9.5
  0
CIRCLE
  5
2B0
100
AcDbEntity
100
AcDbCircle
  8
dowels
 62
256
370
-1
  6
BYLAYER
 10
481.8523506949042599
 20
1012.6165288511947438
 30
0.0
 40
1.0
  0
CIRCLE
  5
2B1
100
AcDbEntity
100
AcDbCircle
  8
dowels
 62
256
370
-1
  6
BYLAYER
 10
502.018405583804963
 20
1025.1194828823131502
 30
0.0
 40
9.5
  0
CIRCLE
  5
2B2
100
AcDbEntity
100
AcDbCircle
  8
dowels
 62
256
370
-1
  6
BYLAYER
 10
502.018405583804963
 20
1025.1194828823131502
 30
0.0
 40
1.0
  0
CIRCLE
  5
2B3
100
AcDbEntity
100
AcDbCircle
  8
dowels
 62
256
370
-1
  6
BYLAYER
 10
481.341477304385478
 20
1091.1297025519813815
 30
0.0
 40
9.5
  0
CIRCLE
  5
2B4
100
AcDbEntity
100
AcDbCircle
  8
dowels
 62
256
370
-1
  6
BYLAYER
 10
481.341477304385478
 20
1091.1297025519813815
 30
0.0
 40
1.0
  0
CIRCLE
  5
2B5
100
AcDbEntity
100
AcDbCircle
  8
dowels
 62
256
370
-1
  6
BYLAYER
 10
248.3096454595697082
 20
1084.8082089938479839
 30
0.0
 40
9.5
  0
CIRCLE
  5
2B6
100
AcDbEntity
100
AcDbCircle
  8
dowels
 62
256
370
-1
  6
BYLAYER
 10
248.3096454595697082
 20
1084.8082089938479839
 30
0.0
 40
1.0
  0
CIRCLE
  5
2B7
100
AcDbEntity
100
AcDbCircle
  8
dowels
 62
256
370
-1
  6
BYLAYER
 10
373.3589753926180492
 20
919.8944074539504072
 30
0.0
 40
1.0
  0
CIRCLE
  5
2B8
100
AcDbEntity
100
AcDbCircle
  8
dowels
 62
256
370
-1
  6
BYLAYER
 10
403.2047366281911422
 20
904.5682057383858137
 30
0.0
 40
9.5
  0
CIRCLE
  5
2B9
100
AcDbEntity
100
AcDbCircle
  8
dowels
 62
256
370
-1
  6
BYLAYER
 10
403.2047366281911422
 20
904.5682057383858137
 30
0.0
 40
1.0
  0
CIRCLE
  5
2BA
100
AcDbEntity
100
AcDbCircle
  8
dowels
 62
256
370
-1
  6
BYLAYER
 10
432.6471767659862167
 20
903.8960039087558016
 30
0.0
 40
9.5
  0
CIRCLE
  5
2BB
100
AcDbEntity
100
AcDbCircle
  8
dowels
 62
256
370
-1
  6
BYLAYER
 10
432.6471767659862167
 20
903.8960039087558016
 30
0.0
 40
1.0
  0
CIRCLE
  5
2BC
100
AcDbEntity
100
AcDbCircle
  8
dowels
 62
256
370
-1
  6
BYLAYER
 10
458.3252866578531552
 20
915.0545542806141839
 30
0.0
 40
9.5
  0
CIRCLE
  5
2BD
100
AcDbEntity
100
AcDbCircle
  8
dowels
 62
256
370
-1
  6
BYLAYER
 10
458.3252866578531552
 20
915.0545542806141839
 30
0.0
 40
1.0
  0
CIRCLE
  5
2BE
100
AcDbEntity
100
AcDbCircle
  8
dowels
 62
256
370
-1
  6
BYLAYER
 10
471.9037636163796492
 20
933.0695633146995078
 30
0.0
 40
9.5
  0
CIRCLE
  5
2BF
100
AcDbEntity
100
AcDbCircle
  8
dowels
 62
256
370
-1
  6
BYLAYER
 10
471.9037636163796492
 20
933.0695633146995078
 30
0.0
 40
1.0
  0
CIRCLE
  5
2C0
100
AcDbEntity
100
AcDbCircle
  8
dowels
 62
256
370
-1
  6
BYLAYER
 10
478.7602222786059656
 20
956.8655080836024354
 30
0.0
 40
9.5
  0
CIRCLE
  5
2C1
100
AcDbEntity
100
AcDbCircle
  8
dowels
 62
256
370
-1
  6
BYLAYER
 10
478.7602222786059656
 20
956.8655080836024354
 30
0.0
 40
1.0
  0
CIRCLE
  5
2C2
100
AcDbEntity
100
AcDbCircle
  8
dowels
 62
256
370
-1
  6
BYLAYER
 10
481.8523506949042599
 20
987.3834711488052562
 30
0.0
 40
9.5
  0
CIRCLE
  5
2C3
100
AcDbEntity
100
AcDbCircle
  8
dowels
 62
256
370
-1
  6
BYLAYER
 10
481.8523506949042599
 20
987.3834711488052562
 30
0.0
 40
1.0
  0
CIRCLE
  5
2C4
100
AcDbEntity
100
AcDbCircle
  8
dowels
 62
256
370
-1
  6
BYLAYER
 10
502.018405583804963
 20
974.8805171176868498
 30
0.0
 40
9.5
  0
CIRCLE
  5
2C5
100
AcDbEntity
100
AcDbCircle
  8
dowels
 62
256
370
-1
  6
BYLAYER
 10
502.018405583804963
 20
974.8805171176868498
 30
0.0
 40
1.0
  0
CIRCLE
  5
2C6
100
AcDbEntity
100
AcDbCircle
  8
dowels
 62
256
370
-1
  6
BYLAYER
 10
481.3414773043854211
 20
908.8702974480186185
 30
0.0
 40
9.5
  0
CIRCLE
  5
2C7
100
AcDbEntity
100
AcDbCircle
  8
dowels
 62
256
370
-1
  6
BYLAYER
 10
481.3414773043854211
 20
908.8702974480186185
 30
0.0
 40
1.0
  0
CIRCLE
  5
2C8
100
AcDbEntity
100
AcDbCircle
  8
dowels
 62
256
370
-1
  6
BYLAYER
 10
248.3096454595696798
 20
915.1917910061521297
 30
0.0
 40
9.5
  0
CIRCLE
  5
2C9
100
AcDbEntity
100
AcDbCircle
  8
dowels
 62
256
370
-1
  6
BYLAYER
 10
248.3096454595696798
 20
915.1917910061521297
 30
0.0
 40
1.0
  0
CIRCLE
  5
2CA
100
AcDbEntity
100
AcDbCircle
  8
dowels
 62
256
370
-1
  6
BYLAYER
 10
203.883450106296209
 20
988.8623151739916466
 30
0.0
 40
9.5
  0
CIRCLE
  5
2CB
100
AcDbEntity
100
AcDbCircle
  8
dowels
 62
256
370
-1
  6
BYLAYER
 10
203.883450106296209
 20
988.8623151739916466
 30
0.0
 40
1.0
  0
CIRCLE
  5
2CC
100
AcDbEntity
100
AcDbCircle
  8
dowels
 62
256
370
-1
  6
BYLAYER
 10
224.9905875566789746
 20
968.2929391873122995
 30
0.0
 40
9.5
  0
CIRCLE
  5
2CD
100
AcDbEntity
100
AcDbCircle
  8
dowels
 62
256
370
-1
  6
BYLAYER
 10
224.9905875566789746
 20
968.2929391873122995
 30
0.0
 40
1.0
  0
CIRCLE
  5
2CE
100
AcDbEntity
100
AcDbCircle
  8
dowels
 62
256
370
-1
  6
BYLAYER
 10
236.4180186603894072
 20
941.5393063680376144
 30
0.0
 40
9.5
  0
CIRCLE
  5
2CF
100
AcDbEntity
100
AcDbCircle
  8
dowels
 62
256
370
-1
  6
BYLAYER
 10
236.4180186603894072
 20
941.5393063680376144
 30
0.0
 40
1.0
  0
CIRCLE
  5
2D0
100
AcDbEntity
100
AcDbCircle
  8
dowels
 62
256
370
-1
  6
BYLAYER
 10
269.6247890441126174
 20
936.2961320969233157
 30
0.0
 40
9.5
  0
CIRCLE
  5
2D1
100
AcDbEntity
100
AcDbCircle
  8
dowels
 62
256
370
-1
  6
BYLAYER
 10
269.6247890441126174
 20
936.2961320969233157
 30
0.0
 40
1.0
  0
CIRCLE
  5
2D2
100
AcDbEntity
100
AcDbCircle
  8
dowels
 62
256
370
-1
  6
BYLAYER
 10
297.5346090103512324
 20
921.7765725769144183
 30
0.0
 40
9.5
  0
CIRCLE
  5
2D3
100
AcDbEntity
100
AcDbCircle
  8
dowels
 62
256
370
-1
  6
BYLAYER
 10
297.5346090103512324
 20
921.7765725769144183
 30
0.0
 40
1.0
  0
CIRCLE
  5
2D4
100
AcDbEntity
100
AcDbCircle
  8
dowels
 62
256
370
-1
  6
BYLAYER
 10
319.1795079244379849
 20
926.6164257502505279
 30
0.0
 40
9.5
  0
CIRCLE
  5
2D5
100
AcDbEntity
100
AcDbCircle
  8
dowels
 62
256
370
-1
  6
BYLAYER
 10
319.1795079244379849
 20
926.6164257502505279
 30
0.0
 40
1.0
  0
CIRCLE
  5
2D6
100
AcDbEntity
100
AcDbCircle
  8
dowels
 62
256
370
-1
  6
BYLAYER
 10
340.2866453748207505
 20
918.818884526542206
 30
0.0
 40
9.5
  0
CIRCLE
  5
2D7
100
AcDbEntity
100
AcDbCircle
  8
dowels
 62
256
370
-1
  6
BYLAYER
 10
340.2866453748207505
 20
918.818884526542206
 30
0.0
 40
1.0
  0
CIRCLE
  5
2D8
100
AcDbEntity
100
AcDbCircle
  8
dowels
 62
256
370
-1
  6
BYLAYER
 10
373.3589753926180492
 20
919.8944074539504072
 30
0.0
 40
9.5
  0
CIRCLE
  5
2D9
100
AcDbEntity
100
AcDbCircle
  8
frets
 62
256
370
-1
  6
BYLAYER
 10
52.0
 20
1000.0
 30
0.0
 40
3.5
  0
CIRCLE
  5
2DA
100
AcDbEntity
100
AcDbCircle
  8
frets
 62
256
370
-1
  6
BYLAYER
 10
88.0
 20
1000.0
 30
0.0
 40
3.5
  0
CIRCLE
  5
2DB
100
AcDbEntity
100
AcDbCircle
  8
frets
 62
256
370
-1
  6
BYLAYER
 10
120.0
 20
1000.0
 30
0.0
 40
3.5
  0
CIRCLE
  5
2DC
100
AcDbEntity
100
AcDbCircle
  8
frets
 62
256
370
-1
  6
BYLAYER
 10
163.0
 20
1000.0
 30
0.0
 40
3.5
  0
CIRCLE
  5
2DD
100
AcDbEntity
100
AcDbCircle
  8
frets
 62
256
370
-1
  6
BYLAYER
 10
187.0
 20
1000.0
 30
0.0
 40
3.5
  0
SPLINE
  5
2DE
  8
0
 62
256
370
-1
  6
BYLAYER
100
AcDbEntity
100
AcDbSpline
 70
8
 71
3
 72
37
 73
33
 74
0
 40
0.0
 40
0.0
 40
0.0
 40
0.0
 40
1.0
 40
2.0
 40
3.0
 40
4.0
 40
5.0
 40
6.0
 40
7.0
 40
8.0
 40
9.0
 40
10.0
 40
11.0
 40
12.0
 40
13.0
 40
14.0
 40
15.0
 40
16.0
 40
17.0
 40
18.0
 40
19.0
 40
20.0
 40
21.0
 40
22.0
 40
23.0
 40
24.0
 40
25.0
 40
26.0
 40
27.0
 40
28.0
 40
29.0
 40
30.0
 40
30.0
 40
30.0
 40
30.0
 10
306.5785396817961441
 20
1379.0826305488803882
 30
0.0
 10
306.5785396817961441
 20
1388.2931568646697542
 30
0.0
 10
305.6925882304033735
 20
1408.0209238292816281
 30
0.0
 10
310.4228141524253033
 20
1432.0268203835439635
 30
0.0
 10
322.239209632326606
 20
1446.9128372243883405
 30
0.0
 10
332.0478061042317677
 20
1452.4301727398349158
 30
0.0
 10
343.4549035893855375
 20
1454.6397926631761948
 30
0.0
 10
356.5122980616340556
 20
1455.0504025522404845
 30
0.0
 10
368.2557408888765735
 20
1453.1615970625441605
 30
0.0
 10
379.1779639379900004
 20
1450.5336937725317057
 30
0.0
 10
395.1096276336895698
 20
1445.9348630150104782
 30
0.0
 10
405.0463869490485536
 20
1442.9784718137464097
 30
0.0
 10
413.5049506637755599
 20
1442.5678619246821199
 30
0.0
 10
425.9053693135211915
 20
1444.7851553256300576
 30
0.0
 10
436.252738517944465
 20
1450.2873278390929954
 30
0.0
 10
446.8464736558067329
 20
1458.0889157313174564
 30
0.0
 10
465.077552730266973
 20
1472.0496519595074005
 30
0.0
 10
476.9852395131350136
 20
1478.5372882067256342
 30
0.0
 10
490.8638537635124521
 20
1484.8606804983176062
 30
0.0
 10
507.1240053704635784
 20
1487.488583788330061
 30
0.0
 10
515.3362031517519881
 20
1487.570705766142737
 30
0.0
 10
533.6703148928204428
 20
1485.9005120229392105
 30
0.0
 10
546.0266309989256115
 20
1480.5777912387711694
 30
0.0
 10
562.9452792057466013
 20
1470.407592597591929
 30
0.0
 10
571.6802442069085828
 20
1457.8991987547960889
 30
0.0
 10
576.299605458883434
 20
1447.9761264357389337
 30
0.0
 10
579.9061289844994462
 20
1437.936714648114048
 30
0.0
 10
582.586499093669886
 20
1425.6184179761812629
 30
0.0
 10
584.8106359927687663
 20
1411.8173633715159667
 30
0.0
 10
585.8941898666888619
 20
1397.2179006492256121
 30
0.0
 10
586.578539681796201
 20
1384.836055206414585
 30
0.0
 10
586.578539681796201
 20
1379.0826305488801609
 30
0.0
 10
586.578539681796201
 20
1379.0826305488801609
 30
0.0
  0
LINE
  5
2DF
100
AcDbEntity
100
AcDbLine
  8
frets
 62
256
370
-1
  6
BYLAYER
 10
306.5785396817961441
 20
1379.0826305488803882
 30
0.0
 11
586.578539681796201
 21
1379.0826305488801609
 31
0.0
  0
LINE
  5
2E0
100
AcDbEntity
100
AcDbLine
  8
guides
 62
256
370
-1
  6
BYLAYER
 10
524.1287071022472901
 20
1495.8305041011176399
 30
0.0
 11
494.1287071022473469
 21
1525.8305041011176399
 31
0.0
  0
LINE
  5
2E1
100
AcDbEntity
100
AcDbLine
  8
guides
 62
256
370
-1
  6
BYLAYER
 10
494.1287071022473469
 20
1525.8305041011176399
 30
0.0
 11
494.1287071022472901
 21
1495.8305041011178673
 31
0.0
  0
LINE
  5
2E2
100
AcDbEntity
100
AcDbLine
  8
guides
 62
256
370
-1
  6
BYLAYER
 10
494.1287071022472901
 20
1495.8305041011178673
 30
0.0
 11
524.1287071022472901
 21
1495.8305041011176399
 31
0.0
  0
LINE
  5
2E3
100
AcDbEntity
100
AcDbLine
  8
guides
 62
256
370
-1
  6
BYLAYER
 10
524.1287071022472901
 20
1495.8305041011176399
 30
0.0
 11
524.1287071022472901
 21
1525.8305041011178673
 31
0.0
  0
LINE
  5
2E4
100
AcDbEntity
100
AcDbLine
  8
guides
 62
256
370
-1
  6
BYLAYER
 10
524.1287071022472901
 20
1525.8305041011178673
 30
0.0
 11
494.1287071022473469
 21
1525.8305041011176399
 31
0.0
  0
LINE
  5
2E5
100
AcDbEntity
100
AcDbLine
  8
guides
 62
256
370
-1
  6
BYLAYER
 10
494.1287071022472901
 20
1495.8305041011178673
 30
0.0
 11
524.1287071022472901
 21
1525.8305041011178673
 31
0.0
  0
LINE
  5
2E6
100
AcDbEntity
100
AcDbLine
  8
guides
 62
256
370
-1
  6
BYLAYER
 10
530.7977479187991321
 20
1327.9929768845659055
 30
0.0
 11
500.7977479187990753
 21
1357.9929768845659055
 31
0.0
  0
LINE
  5
2E7
100
AcDbEntity
100
AcDbLine
  8
guides
 62
256
370
-1
  6
BYLAYER
 10
500.7977479187990753
 20
1357.9929768845659055
 30
0.0
 11
500.7977479187990184
 21
1327.9929768845661329
 31
0.0
  0
LINE
  5
2E8
100
AcDbEntity
100
AcDbLine
  8
guides
 62
256
370
-1
  6
BYLAYER
 10
500.7977479187990184
 20
1327.9929768845661329
 30
0.0
 11
530.7977479187991321
 21
1327.9929768845659055
 31
0.0
  0
LINE
  5
2E9
100
AcDbEntity
100
AcDbLine
  8
guides
 62
256
370
-1
  6
BYLAYER
 10
530.7977479187991321
 20
1327.9929768845659055
 30
0.0
 11
530.7977479187990184
 21
1357.9929768845661329
 31
0.0
  0
LINE
  5
2EA
100
AcDbEntity
100
AcDbLine
  8
guides
 62
256
370
-1
  6
BYLAYER
 10
530.7977479187990184
 20
1357.9929768845661329
 30
0.0
 11
500.7977479187990753
 21
1357.9929768845659055
 31
0.0
  0
LINE
  5
2EB
100
AcDbEntity
100
AcDbLine
  8
guides
 62
256
370
-1
  6
BYLAYER
 10
500.7977479187990184
 20
1327.9929768845661329
 30
0.0
 11
530.7977479187990184
 21
1357.9929768845661329
 31
0.0
  0
ARC
  5
2EC
100
AcDbEntity
  8
0
 62
256
370
-1
  6
BYLAYER
100
AcDbCircle
 10
-176.1434096072566433
 20
973.1559202988493098
 30
0.0
 40
53.3836947502216361
100
AcDbArc
 50
351.1379360578961268
 51
30.188844548932984
  0
ARC
  5
2ED
100
AcDbEntity
  8
0
 62
256
370
-1
  6
BYLAYER
100
AcDbCircle
 10
-3.2991663669147933
 20
1040.7382506499247938
 30
0.0
 40
22.9763474324225676
100
AcDbArc
 50
214.1389258000832569
 51
278.2556191834414676
  0
ARC
  5
2EE
100
AcDbEntity
  8
0
 62
256
370
-1
  6
BYLAYER
100
AcDbCircle
 10
-41.9489908276408414
 20
1488.0735150394275479
 30
0.0
 40
460.6481872108947186
100
AcDbArc
 50
259.1683194459221227
 51
272.4426801117764398
  0
ARC
  5
2EF
100
AcDbEntity
  8
0
 62
256
370
-1
  6
BYLAYER
100
AcDbCircle
 10
-96.6901565543143136
 20
1016.4599001529639963
 30
0.0
 40
37.1547302967145185
100
AcDbArc
 50
148.9343677097820375
 51
206.2960601728877919
  0
ARC
  5
2F0
100
AcDbEntity
  8
0
 62
256
370
-1
  6
BYLAYER
100
AcDbCircle
 10
-34.1326683909432944
 20
426.7256073412218029
 30
0.0
 40
545.5584847096902195
100
AcDbArc
 50
88.7589121639419858
 51
99.4170829373830003
  0
ARC
  5
2F1
100
AcDbEntity
  8
0
 62
256
370
-1
  6
BYLAYER
100
AcDbCircle
 10
-3.2991663669148004
 20
959.2617493500744104
 30
0.0
 40
22.9763474324225676
100
AcDbArc
 50
81.7443808165585324
 51
145.8610741999167715
  0
LINE
  5
2F2
100
AcDbEntity
100
AcDbLine
  8
0
 62
256
370
-1
  6
BYLAYER
 10
213.5000000000000568
 20
790.0000000000001137
 30
0.0
 11
213.5000000000000568
 21
810.0000000000001137
 31
0.0
  0
LINE
  5
2F3
100
AcDbEntity
100
AcDbLine
  8
0
 62
256
370
-1
  6
BYLAYER
 10
-45.8399999999999181
 20
800.0000000000001137
 30
0.0
 11
213.5000000000000568
 21
800.0000000000001137
 31
0.0
  0
LINE
  5
2F4
100
AcDbEntity
100
AcDbLine
  8
0
 62
256
370
-1
  6
BYLAYER
 10
-45.8399999999999181
 20
800.0000000000001137
 30
0.0
 11
384.1600000000000819
 21
800.0000000000001137
 31
0.0
  0
LINE
  5
2F5
100
AcDbEntity
100
AcDbLine
  8
0
 62
256
370
-1
  6
BYLAYER
 10
384.1600000000000819
 20
790.0000000000001137
 30
0.0
 11
384.1600000000000819
 21
810.0000000000001137
 31
0.0
  0
LINE
  5
2F6
100
AcDbEntity
100
AcDbLine
  8
0
 62
256
370
-1
  6
BYLAYER
 10
403.5000000000000568
 20
790.0000000000001137
 30
0.0
 11
403.5000000000000568
 21
810.0000000000001137
 31
0.0
  0
MTEXT
  5
2F7
100
AcDbEntity
100
AcDbMText
  8
0
 62
256
370
-1
  6
BYLAYER
 10
403.5000000000000568
 20
790.0000000000001137
 30
0.0
 40
1.0
 41
0.0
 71
1
 72
1
  1
\H2.5;Middle of string tie pad
  7
textstyle0
 50
0.0
 73
2
 44
1.0
  0
MTEXT
  5
2F8
100
AcDbEntity
100
AcDbMText
  8
0
 62
256
370
-1
  6
BYLAYER
 10
384.1600000000000819
 20
790.0000000000001137
 30
0.0
 40
1.0
 41
0.0
 71
1
 72
1
  1
\H2.5;Saddle
  7
textstyle1
 50
0.0
 73
2
 44
1.0
  0
MTEXT
  5
2F9
100
AcDbEntity
100
AcDbMText
  8
0
 62
256
370
-1
  6
BYLAYER
 10
213.5000000000000568
 20
790.0000000000001137
 30
0.0
 40
1.0
 41
0.0
 71
1
 72
1
  1
\H2.5;Body at 16th Fret
  7
textstyle2
 50
0.0
 73
2
 44
1.0
  0
LINE
  5
2FA
100
AcDbEntity
100
AcDbLine
  8
0
 62
256
370
-1
  6
BYLAYER
 10
-45.8399999999999181
 20
790.0000000000001137
 30
0.0
 11
-45.8399999999999181
 21
810.0000000000001137
 31
0.0
  0
MTEXT
  5
2FB
100
AcDbEntity
100
AcDbMText
  8
0
 62
256
370
-1
  6
BYLAYER
 10
-45.8399999999999181
 20
790.0000000000001137
 30
0.0
 40
1.0
 41
0.0
 71
1
 72
1
  1
\H2.5;0 Fret
  7
textstyle3
 50
0.0
 73
2
 44
1.0
  0
SPLINE
  5
2FC
  8
0
 62
256
370
-1
  6
BYLAYER
100
AcDbEntity
100
AcDbSpline
 70
8
 71
3
 72
37
 73
33
 74
0
 40
0.0
 40
0.0
 40
0.0
 40
0.0
 40
1.0
 40
2.0
 40
3.0
 40
4.0
 40
5.0
 40
6.0
 40
7.0
 40
8.0
 40
9.0
 40
10.0
 40
11.0
 40
12.0
 40
13.0
 40
14.0
 40
15.0
 40
16.0
 40
17.0
 40
18.0
 40
19.0
 40
20.0
 40
21.0
 40
22.0
 40
23.0
 40
24.0
 40
25.0
 40
26.0
 40
27.0
 40
28.0
 40
29.0
 40
30.0
 40
30.0
 40
30.0
 40
30.0
 10
213.5000000000000568
 20
800.0000000000001137
 30
0.0
 10
213.5000000000000568
 20
809.2105263157895934
 30
0.0
 10
212.6140485486072862
 20
828.9382932804014672
 30
0.0
 10
217.3442744706292444
 20
852.9441898346638027
 30
0.0
 10
229.1606699505305187
 20
867.8302066755081796
 30
0.0
 10
238.969266422435652
 20
873.3475421909547549
 30
0.0
 10
250.3763639075894503
 20
875.5571621142960339
 30
0.0
 10
263.4337583798379683
 20
875.9677720033603237
 30
0.0
 10
275.1772012070804863
 20
874.0789665136639996
 30
0.0
 10
286.0994242561939132
 20
871.4510632236515448
 30
0.0
 10
302.0310879518934826
 20
866.8522324661303173
 30
0.0
 10
311.9678472672524663
 20
863.8958412648662488
 30
0.0
 10
320.4264109819794726
 20
863.4852313758019591
 30
0.0
 10
332.8268296317251043
 20
865.7025247767498968
 30
0.0
 10
343.1741988361483777
 20
871.2046972902128346
 30
0.0
 10
353.7679339740106457
 20
879.0062851824372956
 30
0.0
 10
371.9990130484708857
 20
892.9670214106272397
 30
0.0
 10
383.9066998313389263
 20
899.4546576578454733
 30
0.0
 10
397.7853140817163649
 20
905.7780499494374453
 30
0.0
 10
414.0454656886674911
 20
908.4059532394499001
 30
0.0
 10
422.257663469955844
 20
908.4880752172625762
 30
0.0
 10
440.5917752110242986
 20
906.8178814740590497
 30
0.0
 10
452.9480913171294674
 20
901.4951606898910086
 30
0.0
 10
469.866739523950514
 20
891.3249620487117681
 30
0.0
 10
478.6017045251124955
 20
878.816568205915928
 30
0.0
 10
483.2210657770874036
 20
868.8934958868587728
 30
0.0
 10
486.827589302703359
 20
858.8540840992338872
 30
0.0
 10
489.5079594118737987
 20
846.5357874273011021
 30
0.0
 10
491.7320963109727359
 20
832.7347328226358059
 30
0.0
 10
492.8156501848927746
 20
818.1352701003453376
 30
0.0
 10
493.5000000000000568
 20
805.7534246575343104
 30
0.0
 10
493.5000000000000568
 20
800.0
 30
0.0
 10
493.5000000000000568
 20
800.0
 30
0.0
  0
SPLINE
  5
2FD
  8
0
 62
256
370
-1
  6
BYLAYER
100
AcDbEntity
100
AcDbSpline
 70
8
 71
3
 72
37
 73
33
 74
0
 40
0.0
 40
0.0
 40
0.0
 40
0.0
 40
1.0
 40
2.0
 40
3.0
 40
4.0
 40
5.0
 40
6.0
 40
7.0
 40
8.0
 40
9.0
 40
10.0
 40
11.0
 40
12.0
 40
13.0
 40
14.0
 40
15.0
 40
16.0
 40
17.0
 40
18.0
 40
19.0
 40
20.0
 40
21.0
 40
22.0
 40
23.0
 40
24.0
 40
25.0
 40
26.0
 40
27.0
 40
28.0
 40
29.0
 40
30.0
 40
30.0
 40
30.0
 40
30.0
 10
213.5000000000000568
 20
800.0000000000001137
 30
0.0
 10
213.5000000000000568
 20
790.789473684210293
 30
0.0
 10
212.6140485486072862
 20
771.0617067195987602
 30
0.0
 10
217.3442744706292444
 20
747.0558101653361973
 30
0.0
 10
229.1606699505305187
 20
732.1697933244917067
 30
0.0
 10
238.969266422435652
 20
726.6524578090451314
 30
0.0
 10
250.3763639075894503
 20
724.4428378857043072
 30
0.0
 10
263.4337583798379683
 20
724.0322279966396763
 30
0.0
 10
275.1772012070804863
 20
725.9210334863360004
 30
0.0
 10
286.0994242561939132
 20
728.5489367763483415
 30
0.0
 10
302.0310879518934826
 20
733.14776753386991
 30
0.0
 10
311.9678472672524663
 20
736.1041587351336375
 30
0.0
 10
320.4264109819794726
 20
736.5147686241980409
 30
0.0
 10
332.8268296317251043
 20
734.2974752232503306
 30
0.0
 10
343.1741988361483777
 20
728.7953027097870518
 30
0.0
 10
353.7679339740106457
 20
720.9937148175627044
 30
0.0
 10
371.9990130484708857
 20
707.0329785893726466
 30
0.0
 10
383.9066998313389263
 20
700.5453423421546404
 30
0.0
 10
397.7853140817163649
 20
694.2219500505625547
 30
0.0
 10
414.0454656886673774
 20
691.5940467605503272
 30
0.0
 10
422.2576634699557303
 20
691.5119247827375375
 30
0.0
 10
440.5917752110242986
 20
693.1821185259408367
 30
0.0
 10
452.9480913171294674
 20
698.5048393101092188
 30
0.0
 10
469.866739523950514
 20
708.6750379512884592
 30
0.0
 10
478.6017045251124955
 20
721.1834317940842993
 30
0.0
 10
483.2210657770873468
 20
731.1065041131412272
 30
0.0
 10
486.827589302703359
 20
741.1459159007663402
 30
0.0
 10
489.5079594118737987
 20
753.4642125726987842
 30
0.0
 10
491.7320963109727359
 20
767.2652671773639668
 30
0.0
 10
492.8156501848927746
 20
781.8647298996546624
 30
0.0
 10
493.5000000000000568
 20
794.2465753424658033
 30
0.0
 10
493.5000000000000568
 20
800.0
 30
0.0
 10
493.5000000000000568
 20
800.0
 30
0.0
  0
CIRCLE
  5
2FE
100
AcDbEntity
100
AcDbCircle
  8
0
 62
256
370
-1
  6
BYLAYER
 10
300.0000000000000568
 20
800.0
 30
0.0
 40
30.0
  0
ARC
  5
2FF
100
AcDbEntity
  8
0
 62
256
370
-1
  6
BYLAYER
100
AcDbCircle
 10
-87.7889908276407596
 20
1288.0735150394275479
 30
0.0
 40
460.6481872108947186
100
AcDbArc
 50
259.1683194459221227
 51
272.4426801117764398
  0
ARC
  5
300
100
AcDbEntity
  8
0
 62
256
370
-1
  6
BYLAYER
100
AcDbCircle
 10
-142.5301565543142317
 20
816.45990015296411
 30
0.0
 40
37.1547302967145185
100
AcDbArc
 50
148.9343677097820375
 51
206.2960601728877919
  0
ARC
  5
301
100
AcDbEntity
  8
0
 62
256
370
-1
  6
BYLAYER
100
AcDbCircle
 10
-79.9726683909432126
 20
226.7256073412219166
 30
0.0
 40
545.5584847096902195
100
AcDbArc
 50
88.7589121639419858
 51
99.4170829373830003
  0
ARC
  5
302
100
AcDbEntity
  8
0
 62
256
370
-1
  6
BYLAYER
100
AcDbCircle
 10
-49.1391663669147221
 20
759.261749350074524
 30
0.0
 40
22.9763474324225676
100
AcDbArc
 50
81.7443808165585324
 51
145.8610741999167715
  0
ARC
  5
303
100
AcDbEntity
  8
0
 62
256
370
-1
  6
BYLAYER
100
AcDbCircle
 10
-221.9834096072565615
 20
773.1559202988494235
 30
0.0
 40
53.3836947502216361
100
AcDbArc
 50
351.1379360578961268
 51
30.188844548932984
  0
ARC
  5
304
100
AcDbEntity
  8
0
 62
256
370
-1
  6
BYLAYER
100
AcDbCircle
 10
-49.1391663669147079
 20
840.7382506499249075
 30
0.0
 40
22.9763474324225676
100
AcDbArc
 50
214.1389258000832569
 51
278.2556191834414676
  0
LINE
  5
305
100
AcDbEntity
100
AcDbLine
  8
0
 62
256
370
-1
  6
BYLAYER
 10
-45.839999999999911
 20
818.0
 30
0.0
 11
282.1405377075518572
 21
822.7417958840439951
 31
0.0
  0
LINE
  5
306
100
AcDbEntity
100
AcDbLine
  8
0
 62
256
370
-1
  6
BYLAYER
 10
-45.8399999999999253
 20
782.0000000000002274
 30
0.0
 11
281.1175321289935596
 21
777.2729942729436061
 31
0.0
  0
ARC
  5
307
100
AcDbEntity
  8
0
 62
256
370
-1
  6
BYLAYER
100
AcDbCircle
 10
303.917250905785238
 20
808.7890618960126403
 30
0.0
 40
25.8631789124791709
100
AcDbArc
 50
147.3515785426638161
 51
199.989526489546364
  0
ARC
  5
308
100
AcDbEntity
  8
0
 62
256
370
-1
  6
BYLAYER
100
AcDbCircle
 10
258.977194761389967
 20
787.1904982216655071
 30
0.0
 40
24.2600787988049689
100
AcDbArc
 50
335.8705671462710143
 51
31.7258040908591248
  0
MTEXT
  5
309
100
AcDbEntity
100
AcDbMText
  8
0
 62
256
370
-1
  6
BYLAYER
 10
100.0
 20
790.0
 30
0.0
 40
1.0
 41
0.0
 71
1
 72
1
  1
\H2.5;430mm Scale Length
  7
textstyle4
 50
0.0
 73
2
 44
1.0
  0
ENDSEC
  0
SECTION
  2
OBJECTS
  0
DICTIONARY
  5
C
100
AcDbDictionary
280
0
281
1
  3
ACAD_GROUP
350
D
  3
ACAD_LAYOUT
350
1A
  3
ACAD_MLINESTYLE
350
17
  3
ACAD_PLOTSETTINGS
350
19
  3
ACAD_PLOTSTYLENAME
350
E
  3
AcDbVariableDictionary
350
30A
  3
QCAD_OBJECTS
350
30B
  0
DICTIONARY
  5
D
100
AcDbDictionary
280
0
281
1
  0
ACDBDICTIONARYWDFLT
  5
E
100
AcDbDictionary
281
1
  3
Normal
350
F
100
AcDbDictionaryWithDefault
340
F
  0
ACDBPLACEHOLDER
  5
F
  0
DICTIONARY
  5
17
100
AcDbDictionary
280
0
281
1
  3
Standard
350
18
  0
MLINESTYLE
  5
18
100
AcDbMlineStyle
  2
STANDARD
 70
0
  3

 62
256
 51
90.0
 52
90.0
 71
2
 49
0.5
 62
256
  6
BYLAYER
 49
-0.5
 62
256
  6
BYLAYER
  0
DICTIONARY
  5
19
100
AcDbDictionary
280
0
281
1
  0
DICTIONARY
  5
1A
100
AcDbDictionary
281
1
  3
Layout1
350
1E
  3
Layout2
350
26
  3
Model
350
22
  0
LAYOUT
  5
1E
100
AcDbPlotSettings
  1

  2
none_device
  4

  6

 40
0.0
 41
0.0
 42
0.0
 43
0.0
 44
0.0
 45
0.0
 46
0.0
 47
0.0
 48
0.0
 49
0.0
140
0.0
141
0.0
142
1.0
143
1.0
 70
688
 72
0
 73
0
 74
5
  7

 75
16
147
1.0
148
0.0
149
0.0
100
AcDbLayout
  1
Layout1
 70
1
 71
1
 10
0.0
 20
0.0
 11
420.0
 21
297.0
 12
0.0
 22
0.0
 32
0.0
 14
100000000000000000000.0
 24
100000000000000000000.0
 34
100000000000000000000.0
 15
-100000000000000000000.0
 25
-100000000000000000000.0
 35
-100000000000000000000.0
146
0.0
 13
0.0
 23
0.0
 33
0.0
 16
1.0
 26
0.0
 36
0.0
 17
0.0
 27
1.0
 37
0.0
 76
0
330
1B
  0
LAYOUT
  5
22
100
AcDbPlotSettings
  1

  2
none_device
  4

  6

 40
0.0
 41
0.0
 42
0.0
 43
0.0
 44
0.0
 45
0.0
 46
0.0
 47
0.0
 48
0.0
 49
0.0
140
0.0
141
0.0
142
1.0
143
1.0
 70
1712
 72
0
 73
0
 74
0
  7

 75
0
147
1.0
148
0.0
149
0.0
100
AcDbLayout
  1
Model
 70
1
 71
0
 10
0.0
 20
0.0
 11
12.0
 21
9.0
 12
0.0
 22
0.0
 32
0.0
 14
0.0
 24
0.0
 34
0.0
 15
0.0
 25
0.0
 35
0.0
146
0.0
 13
0.0
 23
0.0
 33
0.0
 16
1.0
 26
0.0
 36
0.0
 17
0.0
 27
1.0
 37
0.0
 76
0
330
1F
  0
LAYOUT
  5
26
100
AcDbPlotSettings
  1

  2
none_device
  4

  6

 40
0.0
 41
0.0
 42
0.0
 43
0.0
 44
0.0
 45
0.0
 46
0.0
 47
0.0
 48
0.0
 49
0.0
140
0.0
141
0.0
142
1.0
143
1.0
 70
688
 72
0
 73
0
 74
5
  7

 75
16
147
1.0
148
0.0
149
0.0
100
AcDbLayout
  1
Layout2
 70
1
 71
2
 10
0.0
 20
0.0
 11
12.0
 21
9.0
 12
0.0
 22
0.0
 32
0.0
 14
0.0
 24
0.0
 34
0.0
 15
0.0
 25
0.0
 35
0.0
146
0.0
 13
0.0
 23
0.0
 33
0.0
 16
1.0
 26
0.0
 36
0.0
 17
0.0
 27
1.0
 37
0.0
 76
0
330
23
  0
DICTIONARY
  5
30A
100
AcDbDictionary
281
1
  3
DIMASSOC
350
30D
  3
HIDETEXT
350
30C
  0
DICTIONARYVAR
  5
30C
100
DictionaryVariables
280
0
  1
2
  0
DICTIONARYVAR
  5
30D
100
DictionaryVariables
280
0
  1
1
  0
DICTIONARY
  5
30B
100
AcDbDictionary
281
1
  3
Grid/DisplayGrid00
350
30E
  3
Grid/DisplayGrid01
350
30F
  3
Grid/DisplayGrid02
350
310
  3
Grid/DisplayGrid03
350
311
  3
Grid/GridSpacingX00
350
312
  3
Grid/GridSpacingX01
350
313
  3
Grid/GridSpacingX02
350
314
  3
Grid/GridSpacingX03
350
315
  3
Grid/GridSpacingY00
350
316
  3
Grid/GridSpacingY01
350
317
  3
Grid/GridSpacingY02
350
318
  3
Grid/GridSpacingY03
350
319
  3
Grid/IsometricGrid00
350
31A
  3
Grid/IsometricGrid01
350
31B
  3
Grid/IsometricGrid02
350
31C
  3
Grid/IsometricGrid03
350
31D
  3
Grid/IsometricProjection00
350
31E
  3
Grid/IsometricProjection01
350
31F
  3
Grid/IsometricProjection02
350
320
  3
Grid/IsometricProjection03
350
321
  3
Grid/MetaGridSpacingX00
350
322
  3
Grid/MetaGridSpacingX01
350
323
  3
Grid/MetaGridSpacingX02
350
324
  3
Grid/MetaGridSpacingX03
350
325
  3
Grid/MetaGridSpacingY00
350
326
  3
Grid/MetaGridSpacingY01
350
327
  3
Grid/MetaGridSpacingY02
350
328
  3
Grid/MetaGridSpacingY03
350
329
  3
MultiPageSettings/Columns
350
32A
  3
MultiPageSettings/GlueMarginsBottom
350
32B
  3
MultiPageSettings/GlueMarginsLeft
350
32C
  3
MultiPageSettings/GlueMarginsRight
350
32D
  3
MultiPageSettings/GlueMarginsTop
350
32E
  3
MultiPageSettings/PrintCropMarks
350
32F
  3
MultiPageSettings/Rows
350
330
  3
PageSettings/OffsetX
350
331
  3
PageSettings/OffsetY
350
332
  3
PageSettings/PageOrientation
350
333
  3
PageSettings/PaperHeight
350
334
  3
PageSettings/PaperWidth
350
335
  3
PageSettings/Scale
350
336
  3
PageSettings/ShowPaperBorders
350
337
  3
UnitSettings/PaperUnit
350
338
  0
XRECORD
  5
30E
330
30B
100
AcDbXrecord
280
1
290
1
  0
XRECORD
  5
30F
330
30B
100
AcDbXrecord
280
1
290
1
  0
XRECORD
  5
310
330
30B
100
AcDbXrecord
280
1
290
1
  0
XRECORD
  5
311
330
30B
100
AcDbXrecord
280
1
290
1
  0
XRECORD
  5
312
330
30B
100
AcDbXrecord
280
1
1000
auto
  0
XRECORD
  5
313
330
30B
100
AcDbXrecord
280
1
1000
auto
  0
XRECORD
  5
314
330
30B
100
AcDbXrecord
280
1
1000
auto
  0
XRECORD
  5
315
330
30B
100
AcDbXrecord
280
1
1000
auto
  0
XRECORD
  5
316
330
30B
100
AcDbXrecord
280
1
1000
auto
  0
XRECORD
  5
317
330
30B
100
AcDbXrecord
280
1
1000
auto
  0
XRECORD
  5
318
330
30B
100
AcDbXrecord
280
1
1000
auto
  0
XRECORD
  5
319
330
30B
100
AcDbXrecord
280
1
1000
auto
  0
XRECORD
  5
31A
330
30B
100
AcDbXrecord
280
1
290
0
  0
XRECORD
  5
31B
330
30B
100
AcDbXrecord
280
1
290
0
  0
XRECORD
  5
31C
330
30B
100
AcDbXrecord
280
1
290
0
  0
XRECORD
  5
31D
330
30B
100
AcDbXrecord
280
1
290
0
  0
XRECORD
  5
31E
330
30B
100
AcDbXrecord
280
1
 90
0
  0
XRECORD
  5
31F
330
30B
100
AcDbXrecord
280
1
 90
0
  0
XRECORD
  5
320
330
30B
100
AcDbXrecord
280
1
 90
0
  0
XRECORD
  5
321
330
30B
100
AcDbXrecord
280
1
 90
0
  0
XRECORD
  5
322
330
30B
100
AcDbXrecord
280
1
1000
auto
  0
XRECORD
  5
323
330
30B
100
AcDbXrecord
280
1
1000
auto
  0
XRECORD
  5
324
330
30B
100
AcDbXrecord
280
1
1000
auto
  0
XRECORD
  5
325
330
30B
100
AcDbXrecord
280
1
1000
auto
  0
XRECORD
  5
326
330
30B
100
AcDbXrecord
280
1
1000
auto
  0
XRECORD
  5
327
330
30B
100
AcDbXrecord
280
1
1000
auto
  0
XRECORD
  5
328
330
30B
100
AcDbXrecord
280
1
1000
auto
  0
XRECORD
  5
329
330
30B
100
AcDbXrecord
280
1
1000
auto
  0
XRECORD
  5
32A
330
30B
100
AcDbXrecord
280
1
 90
1
  0
XRECORD
  5
32B
330
30B
100
AcDbXrecord
280
1
 40
10.0
  0
XRECORD
  5
32C
330
30B
100
AcDbXrecord
280
1
 40
10.0
  0
XRECORD
  5
32D
330
30B
100
AcDbXrecord
280
1
 40
10.0
  0
XRECORD
  5
32E
330
30B
100
AcDbXrecord
280
1
 40
10.0
  0
XRECORD
  5
32F
330
30B
100
AcDbXrecord
280
1
290
0
  0
XRECORD
  5
330
330
30B
100
AcDbXrecord
280
1
 90
1
  0
XRECORD
  5
331
330
30B
100
AcDbXrecord
280
1
 40
372.9717470856573982
  0
XRECORD
  5
332
330
30B
100
AcDbXrecord
280
1
 40
1319.4127688744201805
  0
XRECORD
  5
333
330
30B
100
AcDbXrecord
280
1
1000
Landscape
  0
XRECORD
  5
334
330
30B
100
AcDbXrecord
280
1
 40
279.3999999999999773
  0
XRECORD
  5
335
330
30B
100
AcDbXrecord
280
1
 40
215.9000000000000057
  0
XRECORD
  5
336
330
30B
100
AcDbXrecord
280
1
1000
1:1
  0
XRECORD
  5
337
330
30B
100
AcDbXrecord
280
1
290
1
  0
XRECORD
  5
338
330
30B
100
AcDbXrecord
280
1
 90
4
  0
ENDSEC
  0
EOF
