999
dxflib 3.3.4.0
  0
SECTION
  2
HEADER
  9
$ACADVER
  1
AC1015
  9
$HANDSEED
  5
FFFF
  9
$DIMADEC
 70
0
  9
$DIMASZ
 40
2.5
  9
$DIMAUNIT
 70
0
  9
$DIMAZIN
 70
2
  9
$DIMDEC
 70
4
  9
$DIMEXE
 40
1.25
  9
$DIMEXO
 40
0.625
  9
$DIMGAP
 40
0.625
  9
$DIMLUNIT
 70
2
  9
$DIMTSZ
 40
0.0
  9
$DIMTXT
 40
2.5
  9
$DIMZIN
 70
8
  9
$DWGCODEPAGE
  3
ANSI_1252
  9
$INSUNITS
 70
4
  9
$LTSCALE
 40
1.0
  0
ENDSEC
  0
SECTION
  2
TABLES
  0
TABLE
  2
VPORT
  5
8
100
AcDbSymbolTable
 70
1
  0
VPORT
  5
30
100
AcDbSymbolTableRecord
100
AcDbViewportTableRecord
  2
*Active
 70
0
 10
0.0
 20
0.0
 11
1.0
 21
1.0
 12
286.3055555555554861
 22
148.5
 13
0.0
 23
0.0
 14
10.0
 24
10.0
 15
10.0
 25
10.0
 16
0.0
 26
0.0
 36
1.0
 17
0.0
 27
0.0
 37
0.0
 40
297.0
 41
1.92798353909465
 42
50.0
 43
0.0
 44
0.0
 50
0.0
 51
0.0
 71
0
 72
100
 73
1
 74
3
 75
1
 76
1
 77
0
 78
0
281
0
 65
1
110
0.0
120
0.0
130
0.0
111
1.0
121
0.0
131
0.0
112
0.0
122
1.0
132
0.0
 79
0
146
0.0
  0
ENDTAB
  0
TABLE
  2
LTYPE
  5
5
100
AcDbSymbolTable
 70
21
  0
LTYPE
  5
16
100
AcDbSymbolTableRecord
100
AcDbLinetypeTableRecord
  2
CONTINUOUS
 70
0
  3
Solid line
 72
65
 73
0
 40
0.0
  0
LTYPE
  5
31
100
AcDbSymbolTableRecord
100
AcDbLinetypeTableRecord
  2
CENTER2
 70
0
  3
Center (.5x) ___ _ ___ _ ___ _ ___ _ ___ _ ___
 72
65
 73
4
 40
28.5749999999999993
 49
19.0500000000000007
 74
0
 49
-3.1749999999999998
 74
0
 49
3.1749999999999998
 74
0
 49
-3.1749999999999998
 74
0
  0
LTYPE
  5
32
100
AcDbSymbolTableRecord
100
AcDbLinetypeTableRecord
  2
DIVIDEX2
 70
0
  3
Divide (2x) ________  .  .  ________  .  .  _
 72
65
 73
6
 40
63.5
 49
25.3999999999999986
 74
0
 49
-12.6999999999999993
 74
0
 49
0.0
 74
0
 49
-12.6999999999999993
 74
0
 49
0.0
 74
0
 49
-12.6999999999999993
 74
0
  0
LTYPE
  5
33
100
AcDbSymbolTableRecord
100
AcDbLinetypeTableRecord
  2
DOT2
 70
0
  3
Dot (.5x) .....................................
 72
65
 73
2
 40
3.1749999999999998
 49
0.0
 74
0
 49
-3.1749999999999998
 74
0
  0
LTYPE
  5
34
100
AcDbSymbolTableRecord
100
AcDbLinetypeTableRecord
  2
DASHDOT2
 70
0
  3
Dash dot (.5x) _._._._._._._._._._._._._._._.
 72
65
 73
4
 40
12.6999999999999993
 49
6.3499999999999996
 74
0
 49
-3.1749999999999998
 74
0
 49
0.0
 74
0
 49
-3.1749999999999998
 74
0
  0
LTYPE
  5
35
100
AcDbSymbolTableRecord
100
AcDbLinetypeTableRecord
  2
DIVIDE
 70
0
  3
Divide ____ . . ____ . . ____ . . ____ . . ____
 72
65
 73
6
 40
31.75
 49
12.6999999999999993
 74
0
 49
-6.3499999999999996
 74
0
 49
0.0
 74
0
 49
-6.3499999999999996
 74
0
 49
0.0
 74
0
 49
-6.3499999999999996
 74
0
  0
LTYPE
  5
36
100
AcDbSymbolTableRecord
100
AcDbLinetypeTableRecord
  2
DASHDOT
 70
0
  3
Dash dot __ . __ . __ . __ . __ . __ . __ . __
 72
65
 73
4
 40
25.3999999999999986
 49
12.6999999999999993
 74
0
 49
-6.3499999999999996
 74
0
 49
0.0
 74
0
 49
-6.3499999999999996
 74
0
  0
LTYPE
  5
37
100
AcDbSymbolTableRecord
100
AcDbLinetypeTableRecord
  2
BORDER
 70
0
  3
Border __ __ . __ __ . __ __ . __ __ . __ __ .
 72
65
 73
6
 40
44.4500000000000028
 49
12.6999999999999993
 74
0
 49
-6.3499999999999996
 74
0
 49
12.6999999999999993
 74
0
 49
-6.3499999999999996
 74
0
 49
0.0
 74
0
 49
-6.3499999999999996
 74
0
  0
LTYPE
  5
38
100
AcDbSymbolTableRecord
100
AcDbLinetypeTableRecord
  2
DASHDOTX2
 70
0
  3
Dash dot (2x) ____  .  ____  .  ____  .  ___
 72
65
 73
4
 40
50.7999999999999972
 49
25.3999999999999986
 74
0
 49
-12.6999999999999993
 74
0
 49
0.0
 74
0
 49
-12.6999999999999993
 74
0
  0
LTYPE
  5
39
100
AcDbSymbolTableRecord
100
AcDbLinetypeTableRecord
  2
CENTERX2
 70
0
  3
Center (2x) ________  __  ________  __  _____
 72
65
 73
4
 40
101.5999999999999943
 49
63.5
 74
0
 49
-12.6999999999999993
 74
0
 49
12.6999999999999993
 74
0
 49
-12.6999999999999993
 74
0
  0
LTYPE
  5
3A
100
AcDbSymbolTableRecord
100
AcDbLinetypeTableRecord
  2
BORDER2
 70
0
  3
Border (.5x) __.__.__.__.__.__.__.__.__.__.__.
 72
65
 73
6
 40
22.2250000000000014
 49
6.3499999999999996
 74
0
 49
-3.1749999999999998
 74
0
 49
6.3499999999999996
 74
0
 49
-3.1749999999999998
 74
0
 49
0.0
 74
0
 49
-3.1749999999999998
 74
0
  0
LTYPE
  5
3B
100
AcDbSymbolTableRecord
100
AcDbLinetypeTableRecord
  2
BORDERX2
 70
0
  3
Border (2x) ____  ____  .  ____  ____  .  ___
 72
65
 73
6
 40
88.9000000000000057
 49
25.3999999999999986
 74
0
 49
-12.6999999999999993
 74
0
 49
25.3999999999999986
 74
0
 49
-12.6999999999999993
 74
0
 49
0.0
 74
0
 49
-12.6999999999999993
 74
0
  0
LTYPE
  5
14
100
AcDbSymbolTableRecord
100
AcDbLinetypeTableRecord
  2
BYBLOCK
 70
0
  3

 72
65
 73
0
 40
0.0
  0
LTYPE
  5
15
100
AcDbSymbolTableRecord
100
AcDbLinetypeTableRecord
  2
BYLAYER
 70
0
  3

 72
65
 73
0
 40
0.0
  0
LTYPE
  5
3C
100
AcDbSymbolTableRecord
100
AcDbLinetypeTableRecord
  2
DASHED2
 70
0
  3
Dashed (.5x) _ _ _ _ _ _ _ _ _ _ _ _ _ _ _ _ _
 72
65
 73
2
 40
9.5250000000000004
 49
6.3499999999999996
 74
0
 49
-3.1749999999999998
 74
0
  0
LTYPE
  5
3D
100
AcDbSymbolTableRecord
100
AcDbLinetypeTableRecord
  2
CENTER
 70
0
  3
Center ____ _ ____ _ ____ _ ____ _ ____ _ ____
 72
65
 73
4
 40
50.7999999999999972
 49
31.75
 74
0
 49
-6.3499999999999996
 74
0
 49
6.3499999999999996
 74
0
 49
-6.3499999999999996
 74
0
  0
LTYPE
  5
3E
100
AcDbSymbolTableRecord
100
AcDbLinetypeTableRecord
  2
DIVIDE2
 70
0
  3
Divide (.5x) __..__..__..__..__..__..__..__.._
 72
65
 73
6
 40
15.875
 49
6.3499999999999996
 74
0
 49
-3.1749999999999998
 74
0
 49
0.0
 74
0
 49
-3.1749999999999998
 74
0
 49
0.0
 74
0
 49
-3.1749999999999998
 74
0
  0
LTYPE
  5
3F
100
AcDbSymbolTableRecord
100
AcDbLinetypeTableRecord
  2
DASHED
 70
0
  3
Dashed __ __ __ __ __ __ __ __ __ __ __ __ __ _
 72
65
 73
2
 40
19.0500000000000007
 49
12.6999999999999993
 74
0
 49
-6.3499999999999996
 74
0
  0
LTYPE
  5
40
100
AcDbSymbolTableRecord
100
AcDbLinetypeTableRecord
  2
DOTX2
 70
0
  3
Dot (2x) .  .  .  .  .  .  .  .  .  .  .  .  .
 72
65
 73
2
 40
12.6999999999999993
 49
0.0
 74
0
 49
-12.6999999999999993
 74
0
  0
LTYPE
  5
41
100
AcDbSymbolTableRecord
100
AcDbLinetypeTableRecord
  2
DASHEDX2
 70
0
  3
Dashed (2x) ____  ____  ____  ____  ____  ___
 72
65
 73
2
 40
38.1000000000000014
 49
25.3999999999999986
 74
0
 49
-12.6999999999999993
 74
0
  0
LTYPE
  5
42
100
AcDbSymbolTableRecord
100
AcDbLinetypeTableRecord
  2
DOT
 70
0
  3
Dot . . . . . . . . . . . . . . . . . . . . . .
 72
65
 73
2
 40
6.3499999999999996
 49
0.0
 74
0
 49
-6.3499999999999996
 74
0
  0
ENDTAB
  0
TABLE
  2
LAYER
  5
2
100
AcDbSymbolTable
 70
1
  0
LAYER
  5
10
100
AcDbSymbolTableRecord
100
AcDbLayerTableRecord
  2
0
 70
0
 62
7
420
0
  6
CONTINUOUS
370
25
390
F
  0
ENDTAB
  0
TABLE
  2
STYLE
  5
3
100
AcDbSymbolTable
 70
1
  0
STYLE
  5
43
100
AcDbSymbolTableRecord
100
AcDbTextStyleTableRecord
  2
Standard
 70
0
 40
0.0
 41
1.0
 50
0.0
 71
0
 42
2.5
  3

  4

1001
ACAD
1000
txt
1071
0
  0
ENDTAB
  0
TABLE
  2
VIEW
  5
6
100
AcDbSymbolTable
 70
0
  0
ENDTAB
  0
TABLE
  2
UCS
  5
7
100
AcDbSymbolTable
 70
0
  0
ENDTAB
  0
TABLE
  2
APPID
  5
9
100
AcDbSymbolTable
 70
1
  0
APPID
  5
12
100
AcDbSymbolTableRecord
100
AcDbRegAppTableRecord
  2
ACAD
 70
0
  0
APPID
  5
44
100
AcDbSymbolTableRecord
100
AcDbRegAppTableRecord
  2
QCAD
 70
0
  0
ENDTAB
  0
TABLE
  2
DIMSTYLE
  5
A
100
AcDbSymbolTable
 70
1
100
AcDbDimStyleTable
 71
0
  0
DIMSTYLE
105
27
100
AcDbSymbolTableRecord
100
AcDbDimStyleTableRecord
  2
Standard
 41
2.5
 42
0.625
 43
3.75
 44
1.25
 70
0
 73
0
 74
0
 77
1
 78
8
140
2.5
141
2.5
143
0.03937007874016
147
0.625
171
3
172
1
271
2
272
2
274
3
278
44
283
0
284
8
340
43
  0
ENDTAB
  0
TABLE
  2
BLOCK_RECORD
  5
1
100
AcDbSymbolTable
 70
1
  0
BLOCK_RECORD
  5
1F
100
AcDbSymbolTableRecord
100
AcDbBlockTableRecord
  2
*Model_Space
340
22
  0
BLOCK_RECORD
  5
1B
100
AcDbSymbolTableRecord
100
AcDbBlockTableRecord
  2
*Paper_Space
340
1E
  0
BLOCK_RECORD
  5
23
100
AcDbSymbolTableRecord
100
AcDbBlockTableRecord
  2
*Paper_Space0
340
26
  0
ENDTAB
  0
ENDSEC
  0
SECTION
  2
BLOCKS
  0
BLOCK
  5
20
100
AcDbEntity
  8
0
100
AcDbBlockBegin
  2
*Model_Space
 70
0
 10
0.0
 20
0.0
 30
0.0
  3
*Model_Space
  1

  0
ENDBLK
  5
21
100
AcDbEntity
  8
0
100
AcDbBlockEnd
  0
BLOCK
  5
1C
100
AcDbEntity
 67
1
  8
0
100
AcDbBlockBegin
  2
*Paper_Space
 70
0
 10
0.0
 20
0.0
 30
0.0
  3
*Paper_Space
  1

  0
ENDBLK
  5
1D
100
AcDbEntity
 67
1
  8
0
100
AcDbBlockEnd
  0
BLOCK
  5
24
100
AcDbEntity
  8
0
100
AcDbBlockBegin
  2
*Paper_Space0
 70
0
 10
0.0
 20
0.0
 30
0.0
  3
*Paper_Space0
  1

  0
ENDBLK
  5
25
100
AcDbEntity
  8
0
100
AcDbBlockEnd
  0
ENDSEC
  0
SECTION
  2
ENTITIES
  0
LINE
  5
45
100
AcDbEntity
100
AcDbLine
  8
0
 62
256
370
-1
  6
BYLAYER
 10
0.0
 20
0.0
 30
0.0
 11
0.000000000000008
 21
130.0
 31
0.0
  0
LINE
  5
46
100
AcDbEntity
100
AcDbLine
  8
0
 62
256
370
-1
  6
BYLAYER
 10
0.000000000000008
 20
130.0
 30
0.0
 11
-84.9999999999999574
 21
130.0000000000000284
 31
0.0
  0
LINE
  5
47
100
AcDbEntity
100
AcDbLine
  8
0
 62
256
370
-1
  6
BYLAYER
 10
-84.9999999999999574
 20
130.0000000000000284
 30
0.0
 11
-85.0
 21
0.0000000000000104
 31
0.0
  0
LINE
  5
48
100
AcDbEntity
100
AcDbLine
  8
0
 62
256
370
-1
  6
BYLAYER
 10
-17.5
 20
0.0000000000000021
 30
0.0
 11
-67.5
 21
0.0000000000000083
 31
0.0
  0
SPLINE
  5
49
  8
0
 62
256
370
-1
  6
BYLAYER
100
AcDbEntity
100
AcDbSpline
 70
8
 71
3
 72
8
 73
4
 74
0
 40
0.0
 40
0.0
 40
0.0
 40
0.0
 40
1.0
 40
1.0
 40
1.0
 40
1.0
 10
-67.5
 20
0.0000000000000083
 30
0.0
 10
-69.9999999999999858
 20
25.0000000000000213
 30
0.0
 10
-79.9999999999999858
 20
34.0000000000000071
 30
0.0
 10
-79.9999999999999858
 20
34.0000000000000071
 30
0.0
  0
SPLINE
  5
4A
  8
0
 62
256
370
-1
  6
BYLAYER
100
AcDbEntity
100
AcDbSpline
 70
8
 71
3
 72
9
 73
5
 74
0
 40
0.0
 40
0.0
 40
0.0
 40
0.0
 40
1.0
 40
2.0
 40
2.0
 40
2.0
 40
2.0
 10
-79.9999999999999858
 20
34.0000000000000071
 30
0.0
 10
-84.9999999999999716
 20
103.0000000000000284
 30
0.0
 10
-60.0000000000000071
 20
130.0
 30
0.0
 10
-30.0000000000000178
 20
130.0
 30
0.0
 10
-30.0000000000000178
 20
130.0
 30
0.0
  0
SPLINE
  5
4B
  8
0
 62
256
370
-1
  6
BYLAYER
100
AcDbEntity
100
AcDbSpline
 70
8
 71
3
 72
8
 73
4
 74
0
 40
0.0
 40
0.0
 40
0.0
 40
0.0
 40
1.0
 40
1.0
 40
1.0
 40
1.0
 10
-17.5
 20
0.0000000000000021
 30
0.0
 10
-15.0000000000000071
 20
25.0
 30
0.0
 10
-4.9999999999999689
 20
34.0
 30
0.0
 10
-4.9999999999999689
 20
34.0
 30
0.0
  0
SPLINE
  5
4C
  8
0
 62
256
370
-1
  6
BYLAYER
100
AcDbEntity
100
AcDbSpline
 70
8
 71
3
 72
8
 73
4
 74
0
 40
0.0
 40
0.0
 40
0.0
 40
0.0
 40
1.0
 40
1.0
 40
1.0
 40
1.0
 10
-30.0000000000000178
 20
130.0
 30
0.0
 10
-28.0000000000000142
 20
102.0
 30
0.0
 10
-5.000000000000056
 20
100.0
 30
0.0
 10
-5.000000000000056
 20
100.0
 30
0.0
  0
SPLINE
  5
4D
  8
0
 62
256
370
-1
  6
BYLAYER
100
AcDbEntity
100
AcDbSpline
 70
8
 71
3
 72
8
 73
4
 74
0
 40
0.0
 40
0.0
 40
0.0
 40
0.0
 40
1.0
 40
1.0
 40
1.0
 40
1.0
 10
-4.9999999999999689
 20
34.0
 30
0.0
 10
0.0000000000000043
 20
70.0
 30
0.0
 10
-5.000000000000056
 20
100.0
 30
0.0
 10
-5.000000000000056
 20
100.0
 30
0.0
  0
SPLINE
  5
4E
  8
0
 62
256
370
-1
  6
BYLAYER
100
AcDbEntity
100
AcDbSpline
 70
8
 71
3
 72
8
 73
4
 74
0
 40
0.0
 40
0.0
 40
0.0
 40
0.0
 40
1.0
 40
1.0
 40
1.0
 40
1.0
 10
32.5
 20
0.0000000000000083
 30
0.0
 10
30.0000000000000142
 20
25.0000000000000213
 30
0.0
 10
20.0000000000000142
 20
34.0000000000000071
 30
0.0
 10
20.0000000000000142
 20
34.0000000000000071
 30
0.0
  0
SPLINE
  5
4F
  8
0
 62
256
370
-1
  6
BYLAYER
100
AcDbEntity
100
AcDbSpline
 70
8
 71
3
 72
9
 73
5
 74
0
 40
0.0
 40
0.0
 40
0.0
 40
0.0
 40
1.0
 40
2.0
 40
2.0
 40
2.0
 40
2.0
 10
20.0000000000000142
 20
34.0000000000000071
 30
0.0
 10
15.0000000000000284
 20
103.0000000000000284
 30
0.0
 10
30.0
 20
130.0
 30
0.0
 10
57.5000000000000284
 20
130.0
 30
0.0
 10
57.5000000000000284
 20
130.0
 30
0.0
  0
SPLINE
  5
50
  8
0
 62
256
370
-1
  6
BYLAYER
100
AcDbEntity
100
AcDbSpline
 70
8
 71
3
 72
8
 73
4
 74
0
 40
0.0
 40
0.0
 40
0.0
 40
0.0
 40
1.0
 40
1.0
 40
1.0
 40
1.0
 10
82.5
 20
0.0000000000000021
 30
0.0
 10
85.0
 20
25.0
 30
0.0
 10
95.0000000000000284
 20
34.0
 30
0.0
 10
95.0000000000000284
 20
34.0
 30
0.0
  0
LINE
  5
51
100
AcDbEntity
100
AcDbLine
  8
0
 62
256
370
-1
  6
BYLAYER
 10
100.0
 20
0.0
 30
0.0
 11
100.0000000000000142
 21
130.0
 31
0.0
  0
LINE
  5
52
100
AcDbEntity
100
AcDbLine
  8
0
 62
256
370
-1
  6
BYLAYER
 10
100.0000000000000142
 20
130.0
 30
0.0
 11
15.0000000000000426
 21
130.0000000000000284
 31
0.0
  0
LINE
  5
53
100
AcDbEntity
100
AcDbLine
  8
0
 62
256
370
-1
  6
BYLAYER
 10
15.0000000000000426
 20
130.0000000000000284
 30
0.0
 11
15.0
 21
0.0000000000000104
 31
0.0
  0
LINE
  5
54
100
AcDbEntity
100
AcDbLine
  8
0
 62
256
370
-1
  6
BYLAYER
 10
82.5
 20
0.0000000000000021
 30
0.0
 11
32.5
 21
0.0000000000000083
 31
0.0
  0
SPLINE
  5
55
  8
0
 62
256
370
-1
  6
BYLAYER
100
AcDbEntity
100
AcDbSpline
 70
8
 71
3
 72
9
 73
5
 74
0
 40
0.0
 40
0.0
 40
0.0
 40
0.0
 40
1.0
 40
2.0
 40
2.0
 40
2.0
 40
2.0
 10
95.0000000000019043
 20
33.9999999999978897
 30
0.0
 10
100.000000000005798
 20
102.9999999999976268
 30
0.0
 10
85.000000000007347
 20
129.9999999999984368
 30
0.0
 10
57.5000000000000284
 20
130.0
 30
0.0
 10
57.5000000000000284
 20
130.0
 30
0.0
  0
LINE
  5
56
100
AcDbEntity
100
AcDbLine
  8
0
 62
256
370
-1
  6
BYLAYER
 10
24.0
 20
40.0
 30
0.0
 11
41.0
 21
40.0
 31
0.0
  0
LINE
  5
57
100
AcDbEntity
100
AcDbLine
  8
0
 62
256
370
-1
  6
BYLAYER
 10
41.0
 20
40.0
 30
0.0
 11
41.0
 21
73.0
 31
0.0
  0
LINE
  5
58
100
AcDbEntity
100
AcDbLine
  8
0
 62
256
370
-1
  6
BYLAYER
 10
41.0
 20
73.0
 30
0.0
 11
24.0
 21
73.0
 31
0.0
  0
LINE
  5
59
100
AcDbEntity
100
AcDbLine
  8
0
 62
256
370
-1
  6
BYLAYER
 10
24.0
 20
73.0
 30
0.0
 11
24.0
 21
40.0
 31
0.0
  0
CIRCLE
  5
5A
100
AcDbEntity
100
AcDbCircle
  8
0
 62
256
370
-1
  6
BYLAYER
 10
32.5
 20
68.1850000000000023
 30
0.0
 40
1.0
  0
CIRCLE
  5
5B
100
AcDbEntity
100
AcDbCircle
  8
0
 62
256
370
-1
  6
BYLAYER
 10
32.5
 20
44.8149999999999977
 30
0.0
 40
1.0
  0
CIRCLE
  5
5C
100
AcDbEntity
100
AcDbCircle
  8
0
 62
256
370
-1
  6
BYLAYER
 10
32.0
 20
52.0
 30
0.0
 40
3.0
  0
LINE
  5
5D
100
AcDbEntity
100
AcDbLine
  8
0
 62
256
370
-1
  6
BYLAYER
 10
27.0
 20
83.0
 30
0.0
 11
44.0
 21
83.0
 31
0.0
  0
LINE
  5
5E
100
AcDbEntity
100
AcDbLine
  8
0
 62
256
370
-1
  6
BYLAYER
 10
44.0
 20
83.0
 30
0.0
 11
44.0
 21
116.0
 31
0.0
  0
LINE
  5
5F
100
AcDbEntity
100
AcDbLine
  8
0
 62
256
370
-1
  6
BYLAYER
 10
44.0
 20
116.0
 30
0.0
 11
27.0
 21
116.0
 31
0.0
  0
LINE
  5
60
100
AcDbEntity
100
AcDbLine
  8
0
 62
256
370
-1
  6
BYLAYER
 10
27.0
 20
116.0
 30
0.0
 11
27.0
 21
83.0
 31
0.0
  0
CIRCLE
  5
61
100
AcDbEntity
100
AcDbCircle
  8
0
 62
256
370
-1
  6
BYLAYER
 10
35.5
 20
111.1850000000000023
 30
0.0
 40
1.0
  0
CIRCLE
  5
62
100
AcDbEntity
100
AcDbCircle
  8
0
 62
256
370
-1
  6
BYLAYER
 10
35.5
 20
87.8149999999999977
 30
0.0
 40
1.0
  0
CIRCLE
  5
63
100
AcDbEntity
100
AcDbCircle
  8
0
 62
256
370
-1
  6
BYLAYER
 10
35.0
 20
95.0
 30
0.0
 40
3.0
  0
LINE
  5
64
100
AcDbEntity
100
AcDbLine
  8
0
 62
256
370
-1
  6
BYLAYER
 10
70.9999999999977831
 20
116.00000000000027
 30
0.0
 11
87.9999999999977831
 21
116.0000000000005826
 31
0.0
  0
LINE
  5
65
100
AcDbEntity
100
AcDbLine
  8
0
 62
256
370
-1
  6
BYLAYER
 10
87.9999999999977831
 20
116.0000000000005826
 30
0.0
 11
87.9999999999984226
 21
83.0000000000005826
 31
0.0
  0
CIRCLE
  5
66
100
AcDbEntity
100
AcDbCircle
  8
0
 62
256
370
-1
  6
BYLAYER
 10
79.4999999999978968
 20
111.1850000000004144
 30
0.0
 40
1.0
  0
LINE
  5
67
100
AcDbEntity
100
AcDbLine
  8
0
 62
256
370
-1
  6
BYLAYER
 10
90.9999999999992326
 20
40.0000000000006324
 30
0.0
 11
73.9999999999992326
 21
40.0000000000003126
 31
0.0
  0
CIRCLE
  5
68
100
AcDbEntity
100
AcDbCircle
  8
0
 62
256
370
-1
  6
BYLAYER
 10
79.4999999999983231
 20
87.8150000000004098
 30
0.0
 40
1.0
  0
LINE
  5
69
100
AcDbEntity
100
AcDbLine
  8
0
 62
256
370
-1
  6
BYLAYER
 10
73.9999999999992326
 20
40.0000000000003126
 30
0.0
 11
73.9999999999986073
 21
73.0000000000003126
 31
0.0
  0
CIRCLE
  5
6A
100
AcDbEntity
100
AcDbCircle
  8
0
 62
256
370
-1
  6
BYLAYER
 10
79.999999999998181
 20
95.0000000000004405
 30
0.0
 40
3.0
  0
LINE
  5
6B
100
AcDbEntity
100
AcDbLine
  8
0
 62
256
370
-1
  6
BYLAYER
 10
73.9999999999986073
 20
73.0000000000003126
 30
0.0
 11
90.9999999999986073
 21
73.0000000000006537
 31
0.0
  0
LINE
  5
6C
100
AcDbEntity
100
AcDbLine
  8
0
 62
256
370
-1
  6
BYLAYER
 10
90.9999999999986073
 20
73.0000000000006537
 30
0.0
 11
90.9999999999992326
 21
40.0000000000006324
 31
0.0
  0
CIRCLE
  5
6D
100
AcDbEntity
100
AcDbCircle
  8
0
 62
256
370
-1
  6
BYLAYER
 10
82.4999999999987068
 20
68.1850000000004712
 30
0.0
 40
1.0
  0
CIRCLE
  5
6E
100
AcDbEntity
100
AcDbCircle
  8
0
 62
256
370
-1
  6
BYLAYER
 10
82.4999999999991473
 20
44.8150000000004738
 30
0.0
 40
1.0
  0
CIRCLE
  5
6F
100
AcDbEntity
100
AcDbCircle
  8
0
 62
256
370
-1
  6
BYLAYER
 10
82.9999999999990052
 20
52.0000000000004832
 30
0.0
 40
3.0
  0
LINE
  5
70
100
AcDbEntity
100
AcDbLine
  8
0
 62
256
370
-1
  6
BYLAYER
 10
87.9999999999984226
 20
83.0000000000005826
 30
0.0
 11
70.9999999999984226
 21
83.0000000000002558
 31
0.0
  0
LINE
  5
71
100
AcDbEntity
100
AcDbLine
  8
0
 62
256
370
-1
  6
BYLAYER
 10
70.9999999999984226
 20
83.0000000000002558
 30
0.0
 11
70.9999999999977831
 21
116.00000000000027
 31
0.0
  0
LINE
  5
72
100
AcDbEntity
100
AcDbLine
  8
0
 62
256
370
-1
  6
BYLAYER
 10
190.9999999999992326
 20
40.0000000000006324
 30
0.0
 11
173.9999999999992326
 21
40.0000000000003126
 31
0.0
  0
SPLINE
  5
73
  8
0
 62
256
370
-1
  6
BYLAYER
100
AcDbEntity
100
AcDbSpline
 70
8
 71
3
 72
8
 73
4
 74
0
 40
0.0
 40
0.0
 40
0.0
 40
0.0
 40
1.0
 40
1.0
 40
1.0
 40
1.0
 10
132.5
 20
0.0000000000000083
 30
0.0
 10
130.0
 20
25.0000000000000213
 30
0.0
 10
120.0000000000000142
 20
34.0000000000000071
 30
0.0
 10
120.0000000000000142
 20
34.0000000000000071
 30
0.0
  0
LINE
  5
74
100
AcDbEntity
100
AcDbLine
  8
0
 62
256
370
-1
  6
BYLAYER
 10
173.9999999999992326
 20
40.0000000000003126
 30
0.0
 11
173.9999999999986073
 21
73.0000000000003126
 31
0.0
  0
SPLINE
  5
75
  8
0
 62
256
370
-1
  6
BYLAYER
100
AcDbEntity
100
AcDbSpline
 70
8
 71
3
 72
8
 73
4
 74
0
 40
0.0
 40
0.0
 40
0.0
 40
0.0
 40
1.0
 40
1.0
 40
1.0
 40
1.0
 10
182.5
 20
0.0000000000000021
 30
0.0
 10
185.0
 20
25.0
 30
0.0
 10
195.0000000000000284
 20
34.0
 30
0.0
 10
195.0000000000000284
 20
34.0
 30
0.0
  0
LINE
  5
76
100
AcDbEntity
100
AcDbLine
  8
0
 62
256
370
-1
  6
BYLAYER
 10
173.9999999999986073
 20
73.0000000000003126
 30
0.0
 11
190.9999999999986073
 21
73.0000000000006537
 31
0.0
  0
LINE
  5
77
100
AcDbEntity
100
AcDbLine
  8
0
 62
256
370
-1
  6
BYLAYER
 10
190.9999999999986073
 20
73.0000000000006537
 30
0.0
 11
190.9999999999992326
 21
40.0000000000006324
 31
0.0
  0
CIRCLE
  5
78
100
AcDbEntity
100
AcDbCircle
  8
0
 62
256
370
-1
  6
BYLAYER
 10
182.4999999999986926
 20
68.1850000000004712
 30
0.0
 40
1.0
  0
LINE
  5
79
100
AcDbEntity
100
AcDbLine
  8
0
 62
256
370
-1
  6
BYLAYER
 10
200.0
 20
0.0
 30
0.0
 11
200.0
 21
130.0
 31
0.0
  0
CIRCLE
  5
7A
100
AcDbEntity
100
AcDbCircle
  8
0
 62
256
370
-1
  6
BYLAYER
 10
182.4999999999991473
 20
44.8150000000004738
 30
0.0
 40
1.0
  0
LINE
  5
7B
100
AcDbEntity
100
AcDbLine
  8
0
 62
256
370
-1
  6
BYLAYER
 10
200.0
 20
130.0
 30
0.0
 11
115.0000000000000426
 21
130.0000000000000284
 31
0.0
  0
CIRCLE
  5
7C
100
AcDbEntity
100
AcDbCircle
  8
0
 62
256
370
-1
  6
BYLAYER
 10
182.9999999999990052
 20
52.0000000000004832
 30
0.0
 40
3.0
  0
LINE
  5
7D
100
AcDbEntity
100
AcDbLine
  8
0
 62
256
370
-1
  6
BYLAYER
 10
115.0000000000000426
 20
130.0000000000000284
 30
0.0
 11
115.0
 21
0.0000000000000104
 31
0.0
  0
LINE
  5
7E
100
AcDbEntity
100
AcDbLine
  8
0
 62
256
370
-1
  6
BYLAYER
 10
182.5
 20
0.0000000000000021
 30
0.0
 11
132.5
 21
0.0000000000000083
 31
0.0
  0
LINE
  5
7F
100
AcDbEntity
100
AcDbLine
  8
0
 62
256
370
-1
  6
BYLAYER
 10
124.0
 20
40.0
 30
0.0
 11
141.0
 21
40.0
 31
0.0
  0
LINE
  5
80
100
AcDbEntity
100
AcDbLine
  8
0
 62
256
370
-1
  6
BYLAYER
 10
141.0
 20
40.0
 30
0.0
 11
141.0
 21
73.0
 31
0.0
  0
LINE
  5
81
100
AcDbEntity
100
AcDbLine
  8
0
 62
256
370
-1
  6
BYLAYER
 10
141.0
 20
73.0
 30
0.0
 11
124.0
 21
73.0
 31
0.0
  0
LINE
  5
82
100
AcDbEntity
100
AcDbLine
  8
0
 62
256
370
-1
  6
BYLAYER
 10
124.0
 20
73.0
 30
0.0
 11
124.0
 21
40.0
 31
0.0
  0
CIRCLE
  5
83
100
AcDbEntity
100
AcDbCircle
  8
0
 62
256
370
-1
  6
BYLAYER
 10
132.5
 20
68.1850000000000023
 30
0.0
 40
1.0
  0
CIRCLE
  5
84
100
AcDbEntity
100
AcDbCircle
  8
0
 62
256
370
-1
  6
BYLAYER
 10
132.5
 20
44.8149999999999977
 30
0.0
 40
1.0
  0
CIRCLE
  5
85
100
AcDbEntity
100
AcDbCircle
  8
0
 62
256
370
-1
  6
BYLAYER
 10
132.0
 20
52.0
 30
0.0
 40
3.0
  0
LINE
  5
86
100
AcDbEntity
100
AcDbLine
  8
0
 62
256
370
-1
  6
BYLAYER
 10
136.0
 20
87.5
 30
0.0
 11
153.0
 21
87.5
 31
0.0
  0
LINE
  5
87
100
AcDbEntity
100
AcDbLine
  8
0
 62
256
370
-1
  6
BYLAYER
 10
153.0
 20
87.5
 30
0.0
 11
153.0
 21
120.5
 31
0.0
  0
LINE
  5
88
100
AcDbEntity
100
AcDbLine
  8
0
 62
256
370
-1
  6
BYLAYER
 10
153.0
 20
120.5
 30
0.0
 11
136.0
 21
120.5
 31
0.0
  0
LINE
  5
89
100
AcDbEntity
100
AcDbLine
  8
0
 62
256
370
-1
  6
BYLAYER
 10
136.0
 20
120.5
 30
0.0
 11
136.0
 21
87.5
 31
0.0
  0
CIRCLE
  5
8A
100
AcDbEntity
100
AcDbCircle
  8
0
 62
256
370
-1
  6
BYLAYER
 10
144.5
 20
115.6850000000000023
 30
0.0
 40
1.0
  0
CIRCLE
  5
8B
100
AcDbEntity
100
AcDbCircle
  8
0
 62
256
370
-1
  6
BYLAYER
 10
144.5
 20
92.3149999999999977
 30
0.0
 40
1.0
  0
CIRCLE
  5
8C
100
AcDbEntity
100
AcDbCircle
  8
0
 62
256
370
-1
  6
BYLAYER
 10
144.0
 20
99.5
 30
0.0
 40
3.0
  0
SPLINE
  5
8D
  8
0
 62
256
370
-1
  6
BYLAYER
100
AcDbEntity
100
AcDbSpline
 70
8
 71
3
 72
10
 73
6
 74
0
 40
0.0
 40
0.0
 40
0.0
 40
0.0
 40
1.0
 40
2.0
 40
3.0
 40
3.0
 40
3.0
 40
3.0
 10
120.0000000000000142
 20
34.0000000000000071
 30
0.0
 10
115.0000000000000284
 20
65.0000000000000142
 30
0.0
 10
121.3059024207408783
 20
115.7026239999999859
 30
0.0
 10
150.0
 20
130.0
 30
0.0
 10
157.4999999999997158
 20
130.0000000000000284
 30
0.0
 10
157.4999999999997158
 20
130.0000000000000284
 30
0.0
  0
LINE
  5
8E
100
AcDbEntity
100
AcDbLine
  8
0
 62
256
370
-1
  6
BYLAYER
 10
178.9999999999974989
 20
87.5000000000006253
 30
0.0
 11
161.9999999999975273
 21
87.5000000000001279
 31
0.0
  0
LINE
  5
8F
100
AcDbEntity
100
AcDbLine
  8
0
 62
256
370
-1
  6
BYLAYER
 10
161.9999999999975273
 20
87.5000000000001279
 30
0.0
 11
161.9999999999965894
 21
120.5000000000001137
 31
0.0
  0
LINE
  5
90
100
AcDbEntity
100
AcDbLine
  8
0
 62
256
370
-1
  6
BYLAYER
 10
161.9999999999965894
 20
120.5000000000001137
 30
0.0
 11
178.9999999999965894
 21
120.5000000000006111
 31
0.0
  0
LINE
  5
91
100
AcDbEntity
100
AcDbLine
  8
0
 62
256
370
-1
  6
BYLAYER
 10
178.9999999999965894
 20
120.5000000000006111
 30
0.0
 11
178.9999999999974989
 21
87.5000000000006253
 31
0.0
  0
CIRCLE
  5
92
100
AcDbEntity
100
AcDbCircle
  8
0
 62
256
370
-1
  6
BYLAYER
 10
170.4999999999967031
 20
115.685000000000386
 30
0.0
 40
1.0
  0
CIRCLE
  5
93
100
AcDbEntity
100
AcDbCircle
  8
0
 62
256
370
-1
  6
BYLAYER
 10
170.4999999999973852
 20
92.315000000000353
 30
0.0
 40
1.0
  0
CIRCLE
  5
94
100
AcDbEntity
100
AcDbCircle
  8
0
 62
256
370
-1
  6
BYLAYER
 10
170.9999999999971863
 20
99.5000000000003837
 30
0.0
 40
3.0
  0
SPLINE
  5
95
  8
0
 62
256
370
-1
  6
BYLAYER
100
AcDbEntity
100
AcDbSpline
 70
8
 71
3
 72
10
 73
6
 74
0
 40
0.0
 40
0.0
 40
0.0
 40
0.0
 40
1.0
 40
2.0
 40
3.0
 40
3.0
 40
3.0
 40
3.0
 10
194.9999999999990337
 20
34.0000000000010729
 30
0.0
 10
199.9999999999981526
 20
65.0000000000012079
 30
0.0
 10
193.6940975792558675
 20
115.7026240000010091
 30
0.0
 10
164.9999999999963052
 20
130.000000000000199
 30
0.0
 10
157.4999999999997158
 20
130.0000000000000284
 30
0.0
 10
157.4999999999997158
 20
130.0000000000000284
 30
0.0
  0
ENDSEC
  0
SECTION
  2
OBJECTS
  0
DICTIONARY
  5
C
100
AcDbDictionary
280
0
281
1
  3
ACAD_GROUP
350
D
  3
ACAD_LAYOUT
350
1A
  3
ACAD_MLINESTYLE
350
17
  3
ACAD_PLOTSETTINGS
350
19
  3
ACAD_PLOTSTYLENAME
350
E
  3
AcDbVariableDictionary
350
96
  3
QCAD_OBJECTS
350
97
  0
DICTIONARY
  5
D
100
AcDbDictionary
280
0
281
1
  0
ACDBDICTIONARYWDFLT
  5
E
100
AcDbDictionary
281
1
  3
Normal
350
F
100
AcDbDictionaryWithDefault
340
F
  0
ACDBPLACEHOLDER
  5
F
  0
DICTIONARY
  5
17
100
AcDbDictionary
280
0
281
1
  3
Standard
350
18
  0
MLINESTYLE
  5
18
100
AcDbMlineStyle
  2
STANDARD
 70
0
  3

 62
256
 51
90.0
 52
90.0
 71
2
 49
0.5
 62
256
  6
BYLAYER
 49
-0.5
 62
256
  6
BYLAYER
  0
DICTIONARY
  5
19
100
AcDbDictionary
280
0
281
1
  0
DICTIONARY
  5
1A
100
AcDbDictionary
281
1
  3
Layout1
350
1E
  3
Layout2
350
26
  3
Model
350
22
  0
LAYOUT
  5
1E
100
AcDbPlotSettings
  1

  2
none_device
  4

  6

 40
0.0
 41
0.0
 42
0.0
 43
0.0
 44
0.0
 45
0.0
 46
0.0
 47
0.0
 48
0.0
 49
0.0
140
0.0
141
0.0
142
1.0
143
1.0
 70
688
 72
0
 73
0
 74
5
  7

 75
16
147
1.0
148
0.0
149
0.0
100
AcDbLayout
  1
Layout1
 70
1
 71
1
 10
0.0
 20
0.0
 11
420.0
 21
297.0
 12
0.0
 22
0.0
 32
0.0
 14
100000000000000000000.0
 24
100000000000000000000.0
 34
100000000000000000000.0
 15
-100000000000000000000.0
 25
-100000000000000000000.0
 35
-100000000000000000000.0
146
0.0
 13
0.0
 23
0.0
 33
0.0
 16
1.0
 26
0.0
 36
0.0
 17
0.0
 27
1.0
 37
0.0
 76
0
330
1B
  0
LAYOUT
  5
22
100
AcDbPlotSettings
  1

  2
none_device
  4

  6

 40
0.0
 41
0.0
 42
0.0
 43
0.0
 44
0.0
 45
0.0
 46
0.0
 47
0.0
 48
0.0
 49
0.0
140
0.0
141
0.0
142
1.0
143
1.0
 70
1712
 72
0
 73
0
 74
0
  7

 75
0
147
1.0
148
0.0
149
0.0
100
AcDbLayout
  1
Model
 70
1
 71
0
 10
0.0
 20
0.0
 11
12.0
 21
9.0
 12
0.0
 22
0.0
 32
0.0
 14
0.0
 24
0.0
 34
0.0
 15
0.0
 25
0.0
 35
0.0
146
0.0
 13
0.0
 23
0.0
 33
0.0
 16
1.0
 26
0.0
 36
0.0
 17
0.0
 27
1.0
 37
0.0
 76
0
330
1F
  0
LAYOUT
  5
26
100
AcDbPlotSettings
  1

  2
none_device
  4

  6

 40
0.0
 41
0.0
 42
0.0
 43
0.0
 44
0.0
 45
0.0
 46
0.0
 47
0.0
 48
0.0
 49
0.0
140
0.0
141
0.0
142
1.0
143
1.0
 70
688
 72
0
 73
0
 74
5
  7

 75
16
147
1.0
148
0.0
149
0.0
100
AcDbLayout
  1
Layout2
 70
1
 71
2
 10
0.0
 20
0.0
 11
12.0
 21
9.0
 12
0.0
 22
0.0
 32
0.0
 14
0.0
 24
0.0
 34
0.0
 15
0.0
 25
0.0
 35
0.0
146
0.0
 13
0.0
 23
0.0
 33
0.0
 16
1.0
 26
0.0
 36
0.0
 17
0.0
 27
1.0
 37
0.0
 76
0
330
23
  0
DICTIONARY
  5
96
100
AcDbDictionary
281
1
  3
DIMASSOC
350
99
  3
HIDETEXT
350
98
  0
DICTIONARYVAR
  5
98
100
DictionaryVariables
280
0
  1
2
  0
DICTIONARYVAR
  5
99
100
DictionaryVariables
280
0
  1
1
  0
DICTIONARY
  5
97
100
AcDbDictionary
281
1
  3
Grid/DisplayGrid00
350
9A
  3
Grid/DisplayGrid01
350
9B
  3
Grid/DisplayGrid02
350
9C
  3
Grid/DisplayGrid03
350
9D
  3
Grid/GridSpacingX00
350
9E
  3
Grid/GridSpacingX01
350
9F
  3
Grid/GridSpacingX02
350
A0
  3
Grid/GridSpacingX03
350
A1
  3
Grid/GridSpacingY00
350
A2
  3
Grid/GridSpacingY01
350
A3
  3
Grid/GridSpacingY02
350
A4
  3
Grid/GridSpacingY03
350
A5
  3
Grid/IsometricGrid00
350
A6
  3
Grid/IsometricGrid01
350
A7
  3
Grid/IsometricGrid02
350
A8
  3
Grid/IsometricGrid03
350
A9
  3
Grid/IsometricProjection00
350
AA
  3
Grid/IsometricProjection01
350
AB
  3
Grid/IsometricProjection02
350
AC
  3
Grid/IsometricProjection03
350
AD
  3
Grid/MetaGridSpacingX00
350
AE
  3
Grid/MetaGridSpacingX01
350
AF
  3
Grid/MetaGridSpacingX02
350
B0
  3
Grid/MetaGridSpacingX03
350
B1
  3
Grid/MetaGridSpacingY00
350
B2
  3
Grid/MetaGridSpacingY01
350
B3
  3
Grid/MetaGridSpacingY02
350
B4
  3
Grid/MetaGridSpacingY03
350
B5
  3
MultiPageSettings/Columns
350
B6
  3
MultiPageSettings/GlueMarginsBottom
350
B7
  3
MultiPageSettings/GlueMarginsLeft
350
B8
  3
MultiPageSettings/GlueMarginsRight
350
B9
  3
MultiPageSettings/GlueMarginsTop
350
BA
  3
MultiPageSettings/PrintCropMarks
350
BB
  3
MultiPageSettings/Rows
350
BC
  3
PageSettings/OffsetX
350
BD
  3
PageSettings/OffsetY
350
BE
  3
PageSettings/PageOrientation
350
BF
  3
PageSettings/PaperHeight
350
C0
  3
PageSettings/PaperWidth
350
C1
  3
PageSettings/Scale
350
C2
  3
PageSettings/ShowPaperBorders
350
C3
  3
UnitSettings/PaperUnit
350
C4
  0
XRECORD
  5
9A
330
97
100
AcDbXrecord
280
1
290
1
  0
XRECORD
  5
9B
330
97
100
AcDbXrecord
280
1
290
1
  0
XRECORD
  5
9C
330
97
100
AcDbXrecord
280
1
290
1
  0
XRECORD
  5
9D
330
97
100
AcDbXrecord
280
1
290
1
  0
XRECORD
  5
9E
330
97
100
AcDbXrecord
280
1
1000
auto
  0
XRECORD
  5
9F
330
97
100
AcDbXrecord
280
1
1000
auto
  0
XRECORD
  5
A0
330
97
100
AcDbXrecord
280
1
1000
auto
  0
XRECORD
  5
A1
330
97
100
AcDbXrecord
280
1
1000
auto
  0
XRECORD
  5
A2
330
97
100
AcDbXrecord
280
1
1000
auto
  0
XRECORD
  5
A3
330
97
100
AcDbXrecord
280
1
1000
auto
  0
XRECORD
  5
A4
330
97
100
AcDbXrecord
280
1
1000
auto
  0
XRECORD
  5
A5
330
97
100
AcDbXrecord
280
1
1000
auto
  0
XRECORD
  5
A6
330
97
100
AcDbXrecord
280
1
290
0
  0
XRECORD
  5
A7
330
97
100
AcDbXrecord
280
1
290
0
  0
XRECORD
  5
A8
330
97
100
AcDbXrecord
280
1
290
0
  0
XRECORD
  5
A9
330
97
100
AcDbXrecord
280
1
290
0
  0
XRECORD
  5
AA
330
97
100
AcDbXrecord
280
1
 90
0
  0
XRECORD
  5
AB
330
97
100
AcDbXrecord
280
1
 90
0
  0
XRECORD
  5
AC
330
97
100
AcDbXrecord
280
1
 90
0
  0
XRECORD
  5
AD
330
97
100
AcDbXrecord
280
1
 90
0
  0
XRECORD
  5
AE
330
97
100
AcDbXrecord
280
1
1000
auto
  0
XRECORD
  5
AF
330
97
100
AcDbXrecord
280
1
1000
auto
  0
XRECORD
  5
B0
330
97
100
AcDbXrecord
280
1
1000
auto
  0
XRECORD
  5
B1
330
97
100
AcDbXrecord
280
1
1000
auto
  0
XRECORD
  5
B2
330
97
100
AcDbXrecord
280
1
1000
auto
  0
XRECORD
  5
B3
330
97
100
AcDbXrecord
280
1
1000
auto
  0
XRECORD
  5
B4
330
97
100
AcDbXrecord
280
1
1000
auto
  0
XRECORD
  5
B5
330
97
100
AcDbXrecord
280
1
1000
auto
  0
XRECORD
  5
B6
330
97
100
AcDbXrecord
280
1
 90
1
  0
XRECORD
  5
B7
330
97
100
AcDbXrecord
280
1
 40
10.0
  0
XRECORD
  5
B8
330
97
100
AcDbXrecord
280
1
 40
10.0
  0
XRECORD
  5
B9
330
97
100
AcDbXrecord
280
1
 40
10.0
  0
XRECORD
  5
BA
330
97
100
AcDbXrecord
280
1
 40
10.0
  0
XRECORD
  5
BB
330
97
100
AcDbXrecord
280
1
290
0
  0
XRECORD
  5
BC
330
97
100
AcDbXrecord
280
1
 90
1
  0
XRECORD
  5
BD
330
97
100
AcDbXrecord
280
1
 40
-48.0067384946236899
  0
XRECORD
  5
BE
330
97
100
AcDbXrecord
280
1
 40
-42.0552720430107243
  0
XRECORD
  5
BF
330
97
100
AcDbXrecord
280
1
1000
Landscape
  0
XRECORD
  5
C0
330
97
100
AcDbXrecord
280
1
 40
279.3999999999999773
  0
XRECORD
  5
C1
330
97
100
AcDbXrecord
280
1
 40
215.9000000000000057
  0
XRECORD
  5
C2
330
97
100
AcDbXrecord
280
1
1000
1:1
  0
XRECORD
  5
C3
330
97
100
AcDbXrecord
280
1
290
1
  0
XRECORD
  5
C4
330
97
100
AcDbXrecord
280
1
 90
4
  0
ENDSEC
  0
EOF
