999
dxflib 3.3.4.0
  0
SECTION
  2
HEADER
  9
$ACADVER
  1
AC1015
  9
$HANDSEED
  5
FFFF
  9
$DIMADEC
 70
0
  9
$DIMASZ
 40
2.5
  9
$DIMAUNIT
 70
0
  9
$DIMAZIN
 70
2
  9
$DIMDEC
 70
4
  9
$DIMEXE
 40
1.25
  9
$DIMEXO
 40
0.625
  9
$DIMGAP
 40
0.625
  9
$DIMLUNIT
 70
2
  9
$DIMTSZ
 40
0.0
  9
$DIMTXT
 40
2.5
  9
$DIMZIN
 70
8
  9
$DWGCODEPAGE
  3
ANSI_1252
  9
$INSUNITS
 70
4
  9
$LTSCALE
 40
1.0
  0
ENDSEC
  0
SECTION
  2
TABLES
  0
TABLE
  2
VPORT
  5
8
100
AcDbSymbolTable
 70
1
  0
VPORT
  5
30
100
AcDbSymbolTableRecord
100
AcDbViewportTableRecord
  2
*Active
 70
0
 10
0.0
 20
0.0
 11
1.0
 21
1.0
 12
286.3055555555554861
 22
148.5
 13
0.0
 23
0.0
 14
10.0
 24
10.0
 15
10.0
 25
10.0
 16
0.0
 26
0.0
 36
1.0
 17
0.0
 27
0.0
 37
0.0
 40
297.0
 41
1.92798353909465
 42
50.0
 43
0.0
 44
0.0
 50
0.0
 51
0.0
 71
0
 72
100
 73
1
 74
3
 75
1
 76
1
 77
0
 78
0
281
0
 65
1
110
0.0
120
0.0
130
0.0
111
1.0
121
0.0
131
0.0
112
0.0
122
1.0
132
0.0
 79
0
146
0.0
  0
ENDTAB
  0
TABLE
  2
LTYPE
  5
5
100
AcDbSymbolTable
 70
21
  0
LTYPE
  5
16
100
AcDbSymbolTableRecord
100
AcDbLinetypeTableRecord
  2
CONTINUOUS
 70
0
  3
Solid line
 72
65
 73
0
 40
0.0
  0
LTYPE
  5
31
100
AcDbSymbolTableRecord
100
AcDbLinetypeTableRecord
  2
CENTER2
 70
0
  3
Center (.5x) ___ _ ___ _ ___ _ ___ _ ___ _ ___
 72
65
 73
4
 40
28.5749999999999993
 49
19.0500000000000007
 74
0
 49
-3.1749999999999998
 74
0
 49
3.1749999999999998
 74
0
 49
-3.1749999999999998
 74
0
  0
LTYPE
  5
32
100
AcDbSymbolTableRecord
100
AcDbLinetypeTableRecord
  2
DIVIDEX2
 70
0
  3
Divide (2x) ________  .  .  ________  .  .  _
 72
65
 73
6
 40
63.5
 49
25.3999999999999986
 74
0
 49
-12.6999999999999993
 74
0
 49
0.0
 74
0
 49
-12.6999999999999993
 74
0
 49
0.0
 74
0
 49
-12.6999999999999993
 74
0
  0
LTYPE
  5
33
100
AcDbSymbolTableRecord
100
AcDbLinetypeTableRecord
  2
DOT2
 70
0
  3
Dot (.5x) .....................................
 72
65
 73
2
 40
3.1749999999999998
 49
0.0
 74
0
 49
-3.1749999999999998
 74
0
  0
LTYPE
  5
34
100
AcDbSymbolTableRecord
100
AcDbLinetypeTableRecord
  2
DASHDOT2
 70
0
  3
Dash dot (.5x) _._._._._._._._._._._._._._._.
 72
65
 73
4
 40
12.6999999999999993
 49
6.3499999999999996
 74
0
 49
-3.1749999999999998
 74
0
 49
0.0
 74
0
 49
-3.1749999999999998
 74
0
  0
LTYPE
  5
35
100
AcDbSymbolTableRecord
100
AcDbLinetypeTableRecord
  2
DIVIDE
 70
0
  3
Divide ____ . . ____ . . ____ . . ____ . . ____
 72
65
 73
6
 40
31.75
 49
12.6999999999999993
 74
0
 49
-6.3499999999999996
 74
0
 49
0.0
 74
0
 49
-6.3499999999999996
 74
0
 49
0.0
 74
0
 49
-6.3499999999999996
 74
0
  0
LTYPE
  5
36
100
AcDbSymbolTableRecord
100
AcDbLinetypeTableRecord
  2
DASHDOT
 70
0
  3
Dash dot __ . __ . __ . __ . __ . __ . __ . __
 72
65
 73
4
 40
25.3999999999999986
 49
12.6999999999999993
 74
0
 49
-6.3499999999999996
 74
0
 49
0.0
 74
0
 49
-6.3499999999999996
 74
0
  0
LTYPE
  5
37
100
AcDbSymbolTableRecord
100
AcDbLinetypeTableRecord
  2
BORDER
 70
0
  3
Border __ __ . __ __ . __ __ . __ __ . __ __ .
 72
65
 73
6
 40
44.4500000000000028
 49
12.6999999999999993
 74
0
 49
-6.3499999999999996
 74
0
 49
12.6999999999999993
 74
0
 49
-6.3499999999999996
 74
0
 49
0.0
 74
0
 49
-6.3499999999999996
 74
0
  0
LTYPE
  5
38
100
AcDbSymbolTableRecord
100
AcDbLinetypeTableRecord
  2
DASHDOTX2
 70
0
  3
Dash dot (2x) ____  .  ____  .  ____  .  ___
 72
65
 73
4
 40
50.7999999999999972
 49
25.3999999999999986
 74
0
 49
-12.6999999999999993
 74
0
 49
0.0
 74
0
 49
-12.6999999999999993
 74
0
  0
LTYPE
  5
39
100
AcDbSymbolTableRecord
100
AcDbLinetypeTableRecord
  2
CENTERX2
 70
0
  3
Center (2x) ________  __  ________  __  _____
 72
65
 73
4
 40
101.5999999999999943
 49
63.5
 74
0
 49
-12.6999999999999993
 74
0
 49
12.6999999999999993
 74
0
 49
-12.6999999999999993
 74
0
  0
LTYPE
  5
3A
100
AcDbSymbolTableRecord
100
AcDbLinetypeTableRecord
  2
BORDER2
 70
0
  3
Border (.5x) __.__.__.__.__.__.__.__.__.__.__.
 72
65
 73
6
 40
22.2250000000000014
 49
6.3499999999999996
 74
0
 49
-3.1749999999999998
 74
0
 49
6.3499999999999996
 74
0
 49
-3.1749999999999998
 74
0
 49
0.0
 74
0
 49
-3.1749999999999998
 74
0
  0
LTYPE
  5
3B
100
AcDbSymbolTableRecord
100
AcDbLinetypeTableRecord
  2
BORDERX2
 70
0
  3
Border (2x) ____  ____  .  ____  ____  .  ___
 72
65
 73
6
 40
88.9000000000000057
 49
25.3999999999999986
 74
0
 49
-12.6999999999999993
 74
0
 49
25.3999999999999986
 74
0
 49
-12.6999999999999993
 74
0
 49
0.0
 74
0
 49
-12.6999999999999993
 74
0
  0
LTYPE
  5
14
100
AcDbSymbolTableRecord
100
AcDbLinetypeTableRecord
  2
BYBLOCK
 70
0
  3

 72
65
 73
0
 40
0.0
  0
LTYPE
  5
15
100
AcDbSymbolTableRecord
100
AcDbLinetypeTableRecord
  2
BYLAYER
 70
0
  3

 72
65
 73
0
 40
0.0
  0
LTYPE
  5
3C
100
AcDbSymbolTableRecord
100
AcDbLinetypeTableRecord
  2
DASHED2
 70
0
  3
Dashed (.5x) _ _ _ _ _ _ _ _ _ _ _ _ _ _ _ _ _
 72
65
 73
2
 40
9.5250000000000004
 49
6.3499999999999996
 74
0
 49
-3.1749999999999998
 74
0
  0
LTYPE
  5
3D
100
AcDbSymbolTableRecord
100
AcDbLinetypeTableRecord
  2
CENTER
 70
0
  3
Center ____ _ ____ _ ____ _ ____ _ ____ _ ____
 72
65
 73
4
 40
50.7999999999999972
 49
31.75
 74
0
 49
-6.3499999999999996
 74
0
 49
6.3499999999999996
 74
0
 49
-6.3499999999999996
 74
0
  0
LTYPE
  5
3E
100
AcDbSymbolTableRecord
100
AcDbLinetypeTableRecord
  2
DIVIDE2
 70
0
  3
Divide (.5x) __..__..__..__..__..__..__..__.._
 72
65
 73
6
 40
15.875
 49
6.3499999999999996
 74
0
 49
-3.1749999999999998
 74
0
 49
0.0
 74
0
 49
-3.1749999999999998
 74
0
 49
0.0
 74
0
 49
-3.1749999999999998
 74
0
  0
LTYPE
  5
3F
100
AcDbSymbolTableRecord
100
AcDbLinetypeTableRecord
  2
DASHED
 70
0
  3
Dashed __ __ __ __ __ __ __ __ __ __ __ __ __ _
 72
65
 73
2
 40
19.0500000000000007
 49
12.6999999999999993
 74
0
 49
-6.3499999999999996
 74
0
  0
LTYPE
  5
40
100
AcDbSymbolTableRecord
100
AcDbLinetypeTableRecord
  2
DOTX2
 70
0
  3
Dot (2x) .  .  .  .  .  .  .  .  .  .  .  .  .
 72
65
 73
2
 40
12.6999999999999993
 49
0.0
 74
0
 49
-12.6999999999999993
 74
0
  0
LTYPE
  5
41
100
AcDbSymbolTableRecord
100
AcDbLinetypeTableRecord
  2
DASHEDX2
 70
0
  3
Dashed (2x) ____  ____  ____  ____  ____  ___
 72
65
 73
2
 40
38.1000000000000014
 49
25.3999999999999986
 74
0
 49
-12.6999999999999993
 74
0
  0
LTYPE
  5
42
100
AcDbSymbolTableRecord
100
AcDbLinetypeTableRecord
  2
DOT
 70
0
  3
Dot . . . . . . . . . . . . . . . . . . . . . .
 72
65
 73
2
 40
6.3499999999999996
 49
0.0
 74
0
 49
-6.3499999999999996
 74
0
  0
ENDTAB
  0
TABLE
  2
LAYER
  5
2
100
AcDbSymbolTable
 70
1
  0
LAYER
  5
10
100
AcDbSymbolTableRecord
100
AcDbLayerTableRecord
  2
0
 70
0
 62
7
420
0
  6
CONTINUOUS
370
25
390
F
  0
ENDTAB
  0
TABLE
  2
STYLE
  5
3
100
AcDbSymbolTable
 70
7
  0
STYLE
  5
43
100
AcDbSymbolTableRecord
100
AcDbTextStyleTableRecord
  2
Standard
 70
0
 40
0.0
 41
1.0
 50
0.0
 71
0
 42
2.5
  3

  4

1001
ACAD
1000
txt
1071
0
  0
STYLE
  5
44
100
AcDbSymbolTableRecord
100
AcDbTextStyleTableRecord
  2
textstyle0
 70
0
 40
0.0
 41
1.0
 50
0.0
 71
0
 42
8.0
  3

  4

1001
ACAD
1000
Droid Sans Mono
1071
0
  0
STYLE
  5
45
100
AcDbSymbolTableRecord
100
AcDbTextStyleTableRecord
  2
textstyle1
 70
0
 40
0.0
 41
1.0
 50
0.0
 71
0
 42
8.0
  3

  4

1001
ACAD
1000
Droid Sans Mono
1071
0
  0
STYLE
  5
46
100
AcDbSymbolTableRecord
100
AcDbTextStyleTableRecord
  2
textstyle2
 70
0
 40
0.0
 41
1.0
 50
0.0
 71
0
 42
8.0
  3

  4

1001
ACAD
1000
Droid Sans Mono
1071
0
  0
STYLE
  5
47
100
AcDbSymbolTableRecord
100
AcDbTextStyleTableRecord
  2
textstyle3
 70
0
 40
0.0
 41
1.0
 50
0.0
 71
0
 42
8.0
  3

  4

1001
ACAD
1000
Droid Sans Mono
1071
0
  0
STYLE
  5
48
100
AcDbSymbolTableRecord
100
AcDbTextStyleTableRecord
  2
textstyle4
 70
0
 40
0.0
 41
1.0
 50
0.0
 71
0
 42
8.0
  3

  4

1001
ACAD
1000
Droid Sans Mono
1071
0
  0
STYLE
  5
49
100
AcDbSymbolTableRecord
100
AcDbTextStyleTableRecord
  2
textstyle5
 70
0
 40
0.0
 41
1.0
 50
0.0
 71
0
 42
8.0
  3

  4

1001
ACAD
1000
Droid Sans Mono
1071
0
  0
ENDTAB
  0
TABLE
  2
VIEW
  5
6
100
AcDbSymbolTable
 70
0
  0
ENDTAB
  0
TABLE
  2
UCS
  5
7
100
AcDbSymbolTable
 70
0
  0
ENDTAB
  0
TABLE
  2
APPID
  5
9
100
AcDbSymbolTable
 70
1
  0
APPID
  5
12
100
AcDbSymbolTableRecord
100
AcDbRegAppTableRecord
  2
ACAD
 70
0
  0
APPID
  5
4A
100
AcDbSymbolTableRecord
100
AcDbRegAppTableRecord
  2
QCAD
 70
0
  0
ENDTAB
  0
TABLE
  2
DIMSTYLE
  5
A
100
AcDbSymbolTable
 70
1
100
AcDbDimStyleTable
 71
0
  0
DIMSTYLE
105
27
100
AcDbSymbolTableRecord
100
AcDbDimStyleTableRecord
  2
Standard
 41
2.5
 42
0.625
 43
3.75
 44
1.25
 70
0
 73
0
 74
0
 77
1
 78
8
140
2.5
141
2.5
143
0.03937007874016
147
0.625
171
3
172
1
271
2
272
2
274
3
278
44
283
0
284
8
340
43
  0
ENDTAB
  0
TABLE
  2
BLOCK_RECORD
  5
1
100
AcDbSymbolTable
 70
1
  0
BLOCK_RECORD
  5
1F
100
AcDbSymbolTableRecord
100
AcDbBlockTableRecord
  2
*Model_Space
340
22
  0
BLOCK_RECORD
  5
1B
100
AcDbSymbolTableRecord
100
AcDbBlockTableRecord
  2
*Paper_Space
340
1E
  0
BLOCK_RECORD
  5
23
100
AcDbSymbolTableRecord
100
AcDbBlockTableRecord
  2
*Paper_Space0
340
26
  0
ENDTAB
  0
ENDSEC
  0
SECTION
  2
BLOCKS
  0
BLOCK
  5
20
100
AcDbEntity
  8
0
100
AcDbBlockBegin
  2
*Model_Space
 70
0
 10
0.0
 20
0.0
 30
0.0
  3
*Model_Space
  1

  0
ENDBLK
  5
21
100
AcDbEntity
  8
0
100
AcDbBlockEnd
  0
BLOCK
  5
1C
100
AcDbEntity
 67
1
  8
0
100
AcDbBlockBegin
  2
*Paper_Space
 70
0
 10
0.0
 20
0.0
 30
0.0
  3
*Paper_Space
  1

  0
ENDBLK
  5
1D
100
AcDbEntity
 67
1
  8
0
100
AcDbBlockEnd
  0
BLOCK
  5
24
100
AcDbEntity
  8
0
100
AcDbBlockBegin
  2
*Paper_Space0
 70
0
 10
0.0
 20
0.0
 30
0.0
  3
*Paper_Space0
  1

  0
ENDBLK
  5
25
100
AcDbEntity
  8
0
100
AcDbBlockEnd
  0
ENDSEC
  0
SECTION
  2
ENTITIES
  0
LINE
  5
4B
100
AcDbEntity
100
AcDbLine
  8
0
 62
7
420
0
370
-1
  6
BYLAYER
 10
174.3999996177266496
 20
-402.9999990445333538
 30
0.0
 11
213.5849995398399699
 21
-402.9999990445333538
 31
0.0
  0
LINE
  5
4C
100
AcDbEntity
100
AcDbLine
  8
0
 62
7
420
0
370
-1
  6
BYLAYER
 10
213.5849995398399699
 20
-402.9999990445333538
 30
0.0
 11
213.5849995398399699
 21
-394.7999992365110984
 31
0.0
  0
LINE
  5
4D
100
AcDbEntity
100
AcDbLine
  8
0
 62
7
420
0
370
-1
  6
BYLAYER
 10
213.5849995398399699
 20
-394.7999992365110984
 30
0.0
 11
243.7749995429777528
 21
-394.7999992365110984
 31
0.0
  0
LINE
  5
4E
100
AcDbEntity
100
AcDbLine
  8
0
 62
7
420
0
370
-1
  6
BYLAYER
 10
243.7749995429777528
 20
-394.7999992365110984
 30
0.0
 11
243.7749995429777528
 21
-402.9999990445333538
 31
0.0
  0
LINE
  5
4F
100
AcDbEntity
100
AcDbLine
  8
0
 62
7
420
0
370
-1
  6
BYLAYER
 10
243.7749995429777528
 20
-402.9999990445333538
 30
0.0
 11
282.8649994623333441
 21
-402.9999990445333538
 31
0.0
  0
LINE
  5
50
100
AcDbEntity
100
AcDbLine
  8
0
 62
7
420
0
370
-1
  6
BYLAYER
 10
282.8649994623333441
 20
-402.9999990445333538
 30
0.0
 11
282.8649994623333441
 21
-394.7999992365110984
 31
0.0
  0
LINE
  5
51
100
AcDbEntity
100
AcDbLine
  8
0
 62
7
420
0
370
-1
  6
BYLAYER
 10
282.8649994623333441
 20
-394.7999992365110984
 30
0.0
 11
313.054999466599952
 21
-394.7999992365110984
 31
0.0
  0
LINE
  5
52
100
AcDbEntity
100
AcDbLine
  8
0
 62
7
420
0
370
-1
  6
BYLAYER
 10
313.054999466599952
 20
-394.7999992365110984
 30
0.0
 11
313.054999466599952
 21
-402.9999990445333538
 31
0.0
  0
LINE
  5
53
100
AcDbEntity
100
AcDbLine
  8
0
 62
7
420
0
370
-1
  6
BYLAYER
 10
313.054999466599952
 20
-402.9999990445333538
 30
0.0
 11
352.1449993859555434
 21
-402.9999990445333538
 31
0.0
  0
LINE
  5
54
100
AcDbEntity
100
AcDbLine
  8
0
 62
7
420
0
370
-1
  6
BYLAYER
 10
352.1449993859555434
 20
-402.9999990445333538
 30
0.0
 11
352.1449993859555434
 21
-394.7999992365110984
 31
0.0
  0
LINE
  5
55
100
AcDbEntity
100
AcDbLine
  8
0
 62
7
420
0
370
-1
  6
BYLAYER
 10
352.1449993859555434
 20
-394.7999992365110984
 30
0.0
 11
382.3349993902222081
 21
-394.7999992365110984
 31
0.0
  0
LINE
  5
56
100
AcDbEntity
100
AcDbLine
  8
0
 62
7
420
0
370
-1
  6
BYLAYER
 10
382.3349993902222081
 20
-394.7999992365110984
 30
0.0
 11
382.3349993902222081
 21
-402.9999990445333538
 31
0.0
  0
LINE
  5
57
100
AcDbEntity
100
AcDbLine
  8
0
 62
7
420
0
370
-1
  6
BYLAYER
 10
382.3349993902222081
 20
-402.9999990445333538
 30
0.0
 11
421.4249993095777427
 21
-402.9999990445333538
 31
0.0
  0
LINE
  5
58
100
AcDbEntity
100
AcDbLine
  8
0
 62
7
420
0
370
-1
  6
BYLAYER
 10
421.4249993095777427
 20
-402.9999990445333538
 30
0.0
 11
421.4249993095777427
 21
-394.7999992365110984
 31
0.0
  0
LINE
  5
59
100
AcDbEntity
100
AcDbLine
  8
0
 62
7
420
0
370
-1
  6
BYLAYER
 10
421.4249993095777427
 20
-394.7999992365110984
 30
0.0
 11
451.6149993138444074
 21
-394.7999992365110984
 31
0.0
  0
LINE
  5
5A
100
AcDbEntity
100
AcDbLine
  8
0
 62
7
420
0
370
-1
  6
BYLAYER
 10
451.6149993138444074
 20
-394.7999992365110984
 30
0.0
 11
451.6149993138444074
 21
-402.9999990445333538
 31
0.0
  0
LINE
  5
5B
100
AcDbEntity
100
AcDbLine
  8
0
 62
7
420
0
370
-1
  6
BYLAYER
 10
451.6149993138444074
 20
-402.9999990445333538
 30
0.0
 11
490.7999992351111018
 21
-402.9999990445333538
 31
0.0
  0
LINE
  5
5C
100
AcDbEntity
100
AcDbLine
  8
0
 62
7
420
0
370
-1
  6
BYLAYER
 10
490.7999992351111018
 20
-402.9999990445333538
 30
0.0
 11
490.7999992351111018
 21
-430.3616657756666655
 31
0.0
  0
LINE
  5
5D
100
AcDbEntity
100
AcDbLine
  8
0
 62
7
420
0
370
-1
  6
BYLAYER
 10
490.7999992351111018
 20
-430.3616657756666655
 30
0.0
 11
482.5999994270889033
 21
-430.3616657756666655
 31
0.0
  0
LINE
  5
5E
100
AcDbEntity
100
AcDbLine
  8
0
 62
7
420
0
370
-1
  6
BYLAYER
 10
482.5999994270889033
 20
-430.3616657756666655
 30
0.0
 11
482.5999994270889033
 21
-460.1716657722888613
 31
0.0
  0
LINE
  5
5F
100
AcDbEntity
100
AcDbLine
  8
0
 62
7
420
0
370
-1
  6
BYLAYER
 10
482.5999994270889033
 20
-460.1716657722888613
 30
0.0
 11
490.7999992351111018
 21
-460.1716657722888613
 31
0.0
  0
LINE
  5
60
100
AcDbEntity
100
AcDbLine
  8
0
 62
7
420
0
370
-1
  6
BYLAYER
 10
490.7999992351111018
 20
-460.1716657722888613
 30
0.0
 11
490.7999992351111018
 21
-495.8283323161777503
 31
0.0
  0
LINE
  5
61
100
AcDbEntity
100
AcDbLine
  8
0
 62
7
420
0
370
-1
  6
BYLAYER
 10
490.7999992351111018
 20
-495.8283323161777503
 30
0.0
 11
482.5999994270889033
 21
-495.8283323161777503
 31
0.0
  0
LINE
  5
62
100
AcDbEntity
100
AcDbLine
  8
0
 62
7
420
0
370
-1
  6
BYLAYER
 10
482.5999994270889033
 20
-495.8283323161777503
 30
0.0
 11
482.5999994270889033
 21
-525.6383323128000029
 31
0.0
  0
LINE
  5
63
100
AcDbEntity
100
AcDbLine
  8
0
 62
7
420
0
370
-1
  6
BYLAYER
 10
482.5999994270889033
 20
-525.6383323128000029
 30
0.0
 11
490.7999992351111018
 21
-525.6383323128000029
 31
0.0
  0
LINE
  5
64
100
AcDbEntity
100
AcDbLine
  8
0
 62
7
420
0
370
-1
  6
BYLAYER
 10
490.7999992351111018
 20
-525.6383323128000029
 30
0.0
 11
490.7999992351111018
 21
-561.199998854777732
 31
0.0
  0
LINE
  5
65
100
AcDbEntity
100
AcDbLine
  8
0
 62
7
420
0
370
-1
  6
BYLAYER
 10
490.7999992351111018
 20
-561.199998854777732
 30
0.0
 11
374.3999996177267349
 21
-561.199998854777732
 31
0.0
  0
LINE
  5
66
100
AcDbEntity
100
AcDbLine
  8
0
 62
7
420
0
370
-1
  6
BYLAYER
 10
174.3999996177266496
 20
-511.199998854777732
 30
0.0
 11
174.3999996177266496
 21
-402.9999990445333538
 31
0.0
  0
LINE
  5
67
100
AcDbEntity
100
AcDbLine
  8
0
 62
7
420
0
370
-1
  6
BYLAYER
 10
174.3999996177266496
 20
-174.3999996177266496
 30
0.0
 11
213.7749995430977776
 21
-174.3999996177266496
 31
0.0
  0
LINE
  5
68
100
AcDbEntity
100
AcDbLine
  8
0
 62
7
420
0
370
-1
  6
BYLAYER
 10
213.7749995430977776
 20
-174.3999996177266496
 30
0.0
 11
213.7749995430977776
 21
-182.5999994271600144
 31
0.0
  0
LINE
  5
69
100
AcDbEntity
100
AcDbLine
  8
0
 62
7
420
0
370
-1
  6
BYLAYER
 10
213.7749995430977776
 20
-182.5999994271600144
 30
0.0
 11
243.5849995397200018
 21
-182.5999994271600144
 31
0.0
  0
LINE
  5
6A
100
AcDbEntity
100
AcDbLine
  8
0
 62
7
420
0
370
-1
  6
BYLAYER
 10
243.5849995397200018
 20
-182.5999994271600144
 30
0.0
 11
243.5849995397200018
 21
-174.3999996177266496
 31
0.0
  0
LINE
  5
6B
100
AcDbEntity
100
AcDbLine
  8
0
 62
7
420
0
370
-1
  6
BYLAYER
 10
243.5849995397200018
 20
-174.3999996177266496
 30
0.0
 11
283.0549994661555502
 21
-174.3999996177266496
 31
0.0
  0
LINE
  5
6C
100
AcDbEntity
100
AcDbLine
  8
0
 62
7
420
0
370
-1
  6
BYLAYER
 10
283.0549994661555502
 20
-174.3999996177266496
 30
0.0
 11
283.0549994661555502
 21
-182.5999994271600144
 31
0.0
  0
LINE
  5
6D
100
AcDbEntity
100
AcDbLine
  8
0
 62
7
420
0
370
-1
  6
BYLAYER
 10
283.0549994661555502
 20
-182.5999994271600144
 30
0.0
 11
312.864999462777746
 21
-182.5999994271600144
 31
0.0
  0
LINE
  5
6E
100
AcDbEntity
100
AcDbLine
  8
0
 62
7
420
0
370
-1
  6
BYLAYER
 10
312.864999462777746
 20
-182.5999994271600144
 30
0.0
 11
312.864999462777746
 21
-174.3999996177266496
 31
0.0
  0
LINE
  5
6F
100
AcDbEntity
100
AcDbLine
  8
0
 62
7
420
0
370
-1
  6
BYLAYER
 10
312.864999462777746
 20
-174.3999996177266496
 30
0.0
 11
352.3349993897777495
 21
-174.3999996177266496
 31
0.0
  0
LINE
  5
70
100
AcDbEntity
100
AcDbLine
  8
0
 62
7
420
0
370
-1
  6
BYLAYER
 10
352.3349993897777495
 20
-174.3999996177266496
 30
0.0
 11
352.3349993897777495
 21
-182.5999994271600144
 31
0.0
  0
LINE
  5
71
100
AcDbEntity
100
AcDbLine
  8
0
 62
7
420
0
370
-1
  6
BYLAYER
 10
352.3349993897777495
 20
-182.5999994271600144
 30
0.0
 11
382.1449993863999453
 21
-182.5999994271600144
 31
0.0
  0
LINE
  5
72
100
AcDbEntity
100
AcDbLine
  8
0
 62
7
420
0
370
-1
  6
BYLAYER
 10
382.1449993863999453
 20
-182.5999994271600144
 30
0.0
 11
382.1449993863999453
 21
-174.3999996177266496
 31
0.0
  0
LINE
  5
73
100
AcDbEntity
100
AcDbLine
  8
0
 62
7
420
0
370
-1
  6
BYLAYER
 10
382.1449993863999453
 20
-174.3999996177266496
 30
0.0
 11
421.6149993134000056
 21
-174.3999996177266496
 31
0.0
  0
LINE
  5
74
100
AcDbEntity
100
AcDbLine
  8
0
 62
7
420
0
370
-1
  6
BYLAYER
 10
421.6149993134000056
 20
-174.3999996177266496
 30
0.0
 11
421.6149993134000056
 21
-182.5999994271600144
 31
0.0
  0
LINE
  5
75
100
AcDbEntity
100
AcDbLine
  8
0
 62
7
420
0
370
-1
  6
BYLAYER
 10
421.6149993134000056
 20
-182.5999994271600144
 30
0.0
 11
451.4249993100222014
 21
-182.5999994271600144
 31
0.0
  0
LINE
  5
76
100
AcDbEntity
100
AcDbLine
  8
0
 62
7
420
0
370
-1
  6
BYLAYER
 10
451.4249993100222014
 20
-182.5999994271600144
 30
0.0
 11
451.4249993100222014
 21
-174.3999996177266496
 31
0.0
  0
LINE
  5
77
100
AcDbEntity
100
AcDbLine
  8
0
 62
7
420
0
370
-1
  6
BYLAYER
 10
451.4249993100222014
 20
-174.3999996177266496
 30
0.0
 11
490.7999992351111018
 21
-174.3999996177266496
 31
0.0
  0
LINE
  5
78
100
AcDbEntity
100
AcDbLine
  8
0
 62
7
420
0
370
-1
  6
BYLAYER
 10
490.7999992351111018
 20
-174.3999996177266496
 30
0.0
 11
490.7999992351111018
 21
-206.0949995239622012
 31
0.0
  0
LINE
  5
79
100
AcDbEntity
100
AcDbLine
  8
0
 62
7
420
0
370
-1
  6
BYLAYER
 10
490.7999992351111018
 20
-206.0949995239622012
 30
0.0
 11
482.5999994270889033
 21
-206.0949995239622012
 31
0.0
  0
LINE
  5
7A
100
AcDbEntity
100
AcDbLine
  8
0
 62
7
420
0
370
-1
  6
BYLAYER
 10
482.5999994270889033
 20
-206.0949995239622012
 30
0.0
 11
482.5999994270889033
 21
-235.9049995205844539
 31
0.0
  0
LINE
  5
7B
100
AcDbEntity
100
AcDbLine
  8
0
 62
7
420
0
370
-1
  6
BYLAYER
 10
482.5999994270889033
 20
-235.9049995205844539
 30
0.0
 11
490.7999992351111018
 21
-235.9049995205844539
 31
0.0
  0
LINE
  5
7C
100
AcDbEntity
100
AcDbLine
  8
0
 62
7
420
0
370
-1
  6
BYLAYER
 10
490.7999992351111018
 20
-235.9049995205844539
 30
0.0
 11
490.7999992351111018
 21
-267.6949994284488525
 31
0.0
  0
LINE
  5
7D
100
AcDbEntity
100
AcDbLine
  8
0
 62
7
420
0
370
-1
  6
BYLAYER
 10
490.7999992351111018
 20
-267.6949994284488525
 30
0.0
 11
482.5999994270889033
 21
-267.6949994284488525
 31
0.0
  0
LINE
  5
7E
100
AcDbEntity
100
AcDbLine
  8
0
 62
7
420
0
370
-1
  6
BYLAYER
 10
482.5999994270889033
 20
-267.6949994284488525
 30
0.0
 11
482.5999994270889033
 21
-297.5049994262000155
 31
0.0
  0
LINE
  5
7F
100
AcDbEntity
100
AcDbLine
  8
0
 62
7
420
0
370
-1
  6
BYLAYER
 10
482.5999994270889033
 20
-297.5049994262000155
 30
0.0
 11
490.7999992351111018
 21
-297.5049994262000155
 31
0.0
  0
LINE
  5
80
100
AcDbEntity
100
AcDbLine
  8
0
 62
7
420
0
370
-1
  6
BYLAYER
 10
490.7999992351111018
 20
-297.5049994262000155
 30
0.0
 11
490.7999992351111018
 21
-329.294999332088878
 31
0.0
  0
LINE
  5
81
100
AcDbEntity
100
AcDbLine
  8
0
 62
7
420
0
370
-1
  6
BYLAYER
 10
490.7999992351111018
 20
-329.294999332088878
 30
0.0
 11
482.5999994270889033
 21
-329.294999332088878
 31
0.0
  0
LINE
  5
82
100
AcDbEntity
100
AcDbLine
  8
0
 62
7
420
0
370
-1
  6
BYLAYER
 10
482.5999994270889033
 20
-329.294999332088878
 30
0.0
 11
482.5999994270889033
 21
-359.1049993287110738
 31
0.0
  0
LINE
  5
83
100
AcDbEntity
100
AcDbLine
  8
0
 62
7
420
0
370
-1
  6
BYLAYER
 10
482.5999994270889033
 20
-359.1049993287110738
 30
0.0
 11
490.7999992351111018
 21
-359.1049993287110738
 31
0.0
  0
LINE
  5
84
100
AcDbEntity
100
AcDbLine
  8
0
 62
7
420
0
370
-1
  6
BYLAYER
 10
490.7999992351111018
 20
-359.1049993287110738
 30
0.0
 11
490.7999992351111018
 21
-390.7999992355110521
 31
0.0
  0
LINE
  5
85
100
AcDbEntity
100
AcDbLine
  8
0
 62
7
420
0
370
-1
  6
BYLAYER
 10
490.7999992351111018
 20
-390.7999992355110521
 30
0.0
 11
451.4249993100222014
 21
-390.7999992355110521
 31
0.0
  0
LINE
  5
86
100
AcDbEntity
100
AcDbLine
  8
0
 62
7
420
0
370
-1
  6
BYLAYER
 10
451.4249993100222014
 20
-390.7999992355110521
 30
0.0
 11
451.4249993100222014
 21
-382.5999994274889104
 31
0.0
  0
LINE
  5
87
100
AcDbEntity
100
AcDbLine
  8
0
 62
7
420
0
370
-1
  6
BYLAYER
 10
451.4249993100222014
 20
-382.5999994274889104
 30
0.0
 11
421.6149993134000056
 21
-382.5999994274889104
 31
0.0
  0
LINE
  5
88
100
AcDbEntity
100
AcDbLine
  8
0
 62
7
420
0
370
-1
  6
BYLAYER
 10
421.6149993134000056
 20
-382.5999994274889104
 30
0.0
 11
421.6149993134000056
 21
-390.7999992355110521
 31
0.0
  0
LINE
  5
89
100
AcDbEntity
100
AcDbLine
  8
0
 62
7
420
0
370
-1
  6
BYLAYER
 10
421.6149993134000056
 20
-390.7999992355110521
 30
0.0
 11
382.1449993863999453
 21
-390.7999992355110521
 31
0.0
  0
LINE
  5
8A
100
AcDbEntity
100
AcDbLine
  8
0
 62
7
420
0
370
-1
  6
BYLAYER
 10
382.1449993863999453
 20
-390.7999992355110521
 30
0.0
 11
382.1449993863999453
 21
-382.5999994274889104
 31
0.0
  0
LINE
  5
8B
100
AcDbEntity
100
AcDbLine
  8
0
 62
7
420
0
370
-1
  6
BYLAYER
 10
382.1449993863999453
 20
-382.5999994274889104
 30
0.0
 11
352.3349993897777495
 21
-382.5999994274889104
 31
0.0
  0
LINE
  5
8C
100
AcDbEntity
100
AcDbLine
  8
0
 62
7
420
0
370
-1
  6
BYLAYER
 10
352.3349993897777495
 20
-382.5999994274889104
 30
0.0
 11
352.3349993897777495
 21
-390.7999992355110521
 31
0.0
  0
LINE
  5
8D
100
AcDbEntity
100
AcDbLine
  8
0
 62
7
420
0
370
-1
  6
BYLAYER
 10
352.3349993897777495
 20
-390.7999992355110521
 30
0.0
 11
312.864999462777746
 21
-390.7999992355110521
 31
0.0
  0
LINE
  5
8E
100
AcDbEntity
100
AcDbLine
  8
0
 62
7
420
0
370
-1
  6
BYLAYER
 10
312.864999462777746
 20
-390.7999992355110521
 30
0.0
 11
312.864999462777746
 21
-382.5999994274889104
 31
0.0
  0
LINE
  5
8F
100
AcDbEntity
100
AcDbLine
  8
0
 62
7
420
0
370
-1
  6
BYLAYER
 10
312.864999462777746
 20
-382.5999994274889104
 30
0.0
 11
283.0549994661555502
 21
-382.5999994274889104
 31
0.0
  0
LINE
  5
90
100
AcDbEntity
100
AcDbLine
  8
0
 62
7
420
0
370
-1
  6
BYLAYER
 10
283.0549994661555502
 20
-382.5999994274889104
 30
0.0
 11
283.0549994661555502
 21
-390.7999992355110521
 31
0.0
  0
LINE
  5
91
100
AcDbEntity
100
AcDbLine
  8
0
 62
7
420
0
370
-1
  6
BYLAYER
 10
283.0549994661555502
 20
-390.7999992355110521
 30
0.0
 11
243.5849995397200018
 21
-390.7999992355110521
 31
0.0
  0
LINE
  5
92
100
AcDbEntity
100
AcDbLine
  8
0
 62
7
420
0
370
-1
  6
BYLAYER
 10
243.5849995397200018
 20
-390.7999992355110521
 30
0.0
 11
243.5849995397200018
 21
-382.5999994274889104
 31
0.0
  0
LINE
  5
93
100
AcDbEntity
100
AcDbLine
  8
0
 62
7
420
0
370
-1
  6
BYLAYER
 10
243.5849995397200018
 20
-382.5999994274889104
 30
0.0
 11
213.7749995430977776
 21
-382.5999994274889104
 31
0.0
  0
LINE
  5
94
100
AcDbEntity
100
AcDbLine
  8
0
 62
7
420
0
370
-1
  6
BYLAYER
 10
213.7749995430977776
 20
-382.5999994274889104
 30
0.0
 11
213.7749995430977776
 21
-390.7999992355110521
 31
0.0
  0
LINE
  5
95
100
AcDbEntity
100
AcDbLine
  8
0
 62
7
420
0
370
-1
  6
BYLAYER
 10
213.7749995430977776
 20
-390.7999992355110521
 30
0.0
 11
174.3999996177266496
 21
-390.7999992355110521
 31
0.0
  0
LINE
  5
96
100
AcDbEntity
100
AcDbLine
  8
0
 62
7
420
0
370
-1
  6
BYLAYER
 10
174.3999996177266496
 20
-390.7999992355110521
 30
0.0
 11
174.3999996177266496
 21
-359.1049993287110738
 31
0.0
  0
LINE
  5
97
100
AcDbEntity
100
AcDbLine
  8
0
 62
7
420
0
370
-1
  6
BYLAYER
 10
174.3999996177266496
 20
-390.799999235511109
 30
0.0
 11
174.3999996177266496
 21
-174.3999996177266496
 31
0.0
  0
LINE
  5
98
100
AcDbEntity
100
AcDbLine
  8
0
 62
7
420
0
370
-1
  6
BYLAYER
 10
502.9999990441332898
 20
-182.5999994271600144
 30
0.0
 11
530.1716657742666712
 21
-182.5999994271600144
 31
0.0
  0
LINE
  5
99
100
AcDbEntity
100
AcDbLine
  8
0
 62
7
420
0
370
-1
  6
BYLAYER
 10
530.1716657742666712
 20
-182.5999994271600144
 30
0.0
 11
530.1716657742666712
 21
-174.3999996177266496
 31
0.0
  0
LINE
  5
9A
100
AcDbEntity
100
AcDbLine
  8
0
 62
7
420
0
370
-1
  6
BYLAYER
 10
530.1716657742666712
 20
-174.3999996177266496
 30
0.0
 11
560.361665775711117
 21
-174.3999996177266496
 31
0.0
  0
LINE
  5
9B
100
AcDbEntity
100
AcDbLine
  8
0
 62
7
420
0
370
-1
  6
BYLAYER
 10
560.361665775711117
 20
-174.3999996177266496
 30
0.0
 11
560.361665775711117
 21
-182.5999994271600144
 31
0.0
  0
LINE
  5
9C
100
AcDbEntity
100
AcDbLine
  8
0
 62
7
420
0
370
-1
  6
BYLAYER
 10
560.361665775711117
 20
-182.5999994271600144
 30
0.0
 11
595.6383323119555371
 21
-182.5999994271600144
 31
0.0
  0
LINE
  5
9D
100
AcDbEntity
100
AcDbLine
  8
0
 62
7
420
0
370
-1
  6
BYLAYER
 10
595.6383323119555371
 20
-182.5999994271600144
 30
0.0
 11
595.6383323119555371
 21
-174.3999996177266496
 31
0.0
  0
LINE
  5
9E
100
AcDbEntity
100
AcDbLine
  8
0
 62
7
420
0
370
-1
  6
BYLAYER
 10
595.6383323119555371
 20
-174.3999996177266496
 30
0.0
 11
625.8283323162222587
 21
-174.3999996177266496
 31
0.0
  0
LINE
  5
9F
100
AcDbEntity
100
AcDbLine
  8
0
 62
7
420
0
370
-1
  6
BYLAYER
 10
625.8283323162222587
 20
-174.3999996177266496
 30
0.0
 11
625.8283323162222587
 21
-182.5999994271600144
 31
0.0
  0
LINE
  5
A0
100
AcDbEntity
100
AcDbLine
  8
0
 62
7
420
0
370
-1
  6
BYLAYER
 10
625.8283323162222587
 20
-182.5999994271600144
 30
0.0
 11
661.1999988543775544
 21
-182.5999994271600144
 31
0.0
  0
LINE
  5
A1
100
AcDbEntity
100
AcDbLine
  8
0
 62
7
420
0
370
-1
  6
BYLAYER
 10
661.1999988543776681
 20
-182.5999994271600144
 30
0.0
 11
661.1999988543776681
 21
-382.5999994274889104
 31
0.0
  0
LINE
  5
A2
100
AcDbEntity
100
AcDbLine
  8
0
 62
7
420
0
370
-1
  6
BYLAYER
 10
661.1999988543776681
 20
-382.5999994274889104
 30
0.0
 11
625.8283323162222587
 21
-382.5999994274889104
 31
0.0
  0
LINE
  5
A3
100
AcDbEntity
100
AcDbLine
  8
0
 62
7
420
0
370
-1
  6
BYLAYER
 10
625.8283323162222587
 20
-382.5999994274889104
 30
0.0
 11
625.8283323162222587
 21
-390.7999992355110521
 31
0.0
  0
LINE
  5
A4
100
AcDbEntity
100
AcDbLine
  8
0
 62
7
420
0
370
-1
  6
BYLAYER
 10
625.8283323162222587
 20
-390.7999992355110521
 30
0.0
 11
595.6383323119555371
 21
-390.7999992355110521
 31
0.0
  0
LINE
  5
A5
100
AcDbEntity
100
AcDbLine
  8
0
 62
7
420
0
370
-1
  6
BYLAYER
 10
595.6383323119555371
 20
-390.7999992355110521
 30
0.0
 11
595.6383323119555371
 21
-382.5999994274889104
 31
0.0
  0
LINE
  5
A6
100
AcDbEntity
100
AcDbLine
  8
0
 62
7
420
0
370
-1
  6
BYLAYER
 10
595.6383323119555371
 20
-382.5999994274889104
 30
0.0
 11
560.361665775711117
 21
-382.5999994274889104
 31
0.0
  0
LINE
  5
A7
100
AcDbEntity
100
AcDbLine
  8
0
 62
7
420
0
370
-1
  6
BYLAYER
 10
560.361665775711117
 20
-382.5999994274889104
 30
0.0
 11
560.361665775711117
 21
-390.7999992355110521
 31
0.0
  0
LINE
  5
A8
100
AcDbEntity
100
AcDbLine
  8
0
 62
7
420
0
370
-1
  6
BYLAYER
 10
560.361665775711117
 20
-390.7999992355110521
 30
0.0
 11
530.1716657742666712
 21
-390.7999992355110521
 31
0.0
  0
LINE
  5
A9
100
AcDbEntity
100
AcDbLine
  8
0
 62
7
420
0
370
-1
  6
BYLAYER
 10
530.1716657742666712
 20
-390.7999992355110521
 30
0.0
 11
530.1716657742666712
 21
-382.5999994274889104
 31
0.0
  0
LINE
  5
AA
100
AcDbEntity
100
AcDbLine
  8
0
 62
7
420
0
370
-1
  6
BYLAYER
 10
530.1716657742666712
 20
-382.5999994274889104
 30
0.0
 11
502.9999990441332898
 21
-382.5999994274889104
 31
0.0
  0
LINE
  5
AB
100
AcDbEntity
100
AcDbLine
  8
0
 62
7
420
0
370
-1
  6
BYLAYER
 10
502.9999990441332898
 20
-382.5999994274889104
 30
0.0
 11
502.9999990441332898
 21
-359.2949993325333367
 31
0.0
  0
LINE
  5
AC
100
AcDbEntity
100
AcDbLine
  8
0
 62
7
420
0
370
-1
  6
BYLAYER
 10
502.9999990441332898
 20
-359.2949993325333367
 30
0.0
 11
494.7999992361110912
 21
-359.2949993325333367
 31
0.0
  0
LINE
  5
AD
100
AcDbEntity
100
AcDbLine
  8
0
 62
7
420
0
370
-1
  6
BYLAYER
 10
494.7999992361110912
 20
-359.2949993325333367
 30
0.0
 11
494.7999992361110912
 21
-329.1049993282666719
 31
0.0
  0
LINE
  5
AE
100
AcDbEntity
100
AcDbLine
  8
0
 62
7
420
0
370
-1
  6
BYLAYER
 10
494.7999992361110912
 20
-329.1049993282666719
 30
0.0
 11
502.9999990441332898
 21
-329.1049993282666719
 31
0.0
  0
LINE
  5
AF
100
AcDbEntity
100
AcDbLine
  8
0
 62
7
420
0
370
-1
  6
BYLAYER
 10
502.9999990441332898
 20
-329.1049993282666719
 30
0.0
 11
502.9999990441332898
 21
-297.6949994272000026
 31
0.0
  0
LINE
  5
B0
100
AcDbEntity
100
AcDbLine
  8
0
 62
7
420
0
370
-1
  6
BYLAYER
 10
502.9999990441332898
 20
-297.6949994272000026
 30
0.0
 11
494.7999992361110912
 21
-297.6949994272000026
 31
0.0
  0
LINE
  5
B1
100
AcDbEntity
100
AcDbLine
  8
0
 62
7
420
0
370
-1
  6
BYLAYER
 10
494.7999992361110912
 20
-297.6949994272000026
 30
0.0
 11
494.7999992361110912
 21
-267.5049994251911016
 31
0.0
  0
LINE
  5
B2
100
AcDbEntity
100
AcDbLine
  8
0
 62
7
420
0
370
-1
  6
BYLAYER
 10
494.7999992361110912
 20
-267.5049994251911016
 30
0.0
 11
502.9999990441332898
 21
-267.5049994251911016
 31
0.0
  0
LINE
  5
B3
100
AcDbEntity
100
AcDbLine
  8
0
 62
7
420
0
370
-1
  6
BYLAYER
 10
502.9999990441332898
 20
-267.5049994251911016
 30
0.0
 11
502.9999990441332898
 21
-236.0949995238422048
 31
0.0
  0
LINE
  5
B4
100
AcDbEntity
100
AcDbLine
  8
0
 62
7
420
0
370
-1
  6
BYLAYER
 10
502.9999990441332898
 20
-236.0949995238422048
 30
0.0
 11
494.7999992361110912
 21
-236.0949995238422048
 31
0.0
  0
LINE
  5
B5
100
AcDbEntity
100
AcDbLine
  8
0
 62
7
420
0
370
-1
  6
BYLAYER
 10
494.7999992361110912
 20
-236.0949995238422048
 30
0.0
 11
494.7999992361110912
 21
-205.9049995207044219
 31
0.0
  0
LINE
  5
B6
100
AcDbEntity
100
AcDbLine
  8
0
 62
7
420
0
370
-1
  6
BYLAYER
 10
494.7999992361110912
 20
-205.9049995207044219
 30
0.0
 11
502.9999990441332898
 21
-205.9049995207044219
 31
0.0
  0
LINE
  5
B7
100
AcDbEntity
100
AcDbLine
  8
0
 62
7
420
0
370
-1
  6
BYLAYER
 10
502.9999990441332898
 20
-205.9049995207044219
 30
0.0
 11
502.9999990441332898
 21
-182.5999994271600144
 31
0.0
  0
LINE
  5
B8
100
AcDbEntity
100
AcDbLine
  8
0
 62
7
420
0
370
-1
  6
BYLAYER
 10
374.3999996177266212
 20
-3.9999999999839999
 30
0.0
 11
490.799999235111045
 21
-3.9999999999839999
 31
0.0
  0
LINE
  5
B9
100
AcDbEntity
100
AcDbLine
  8
0
 62
7
420
0
370
-1
  6
BYLAYER
 10
490.7999992351111018
 20
-3.9999999999839986
 30
0.0
 11
490.7999992351111018
 21
-39.5616665410022179
 31
0.0
  0
LINE
  5
BA
100
AcDbEntity
100
AcDbLine
  8
0
 62
7
420
0
370
-1
  6
BYLAYER
 10
490.7999992351111018
 20
-39.5616665410022179
 30
0.0
 11
482.5999994270889033
 21
-39.5616665410022179
 31
0.0
  0
LINE
  5
BB
100
AcDbEntity
100
AcDbLine
  8
0
 62
7
420
0
370
-1
  6
BYLAYER
 10
482.5999994270889033
 20
-39.5616665410022179
 30
0.0
 11
482.5999994270889033
 21
-69.371666537624435
 31
0.0
  0
LINE
  5
BC
100
AcDbEntity
100
AcDbLine
  8
0
 62
7
420
0
370
-1
  6
BYLAYER
 10
482.5999994270889033
 20
-69.371666537624435
 30
0.0
 11
490.7999992351111018
 21
-69.371666537624435
 31
0.0
  0
LINE
  5
BD
100
AcDbEntity
100
AcDbLine
  8
0
 62
7
420
0
370
-1
  6
BYLAYER
 10
490.7999992351111018
 20
-69.371666537624435
 30
0.0
 11
490.7999992351111018
 21
-105.0283330801022146
 31
0.0
  0
LINE
  5
BE
100
AcDbEntity
100
AcDbLine
  8
0
 62
7
420
0
370
-1
  6
BYLAYER
 10
490.7999992351111018
 20
-105.0283330801022146
 30
0.0
 11
482.5999994270889033
 21
-105.0283330801022146
 31
0.0
  0
LINE
  5
BF
100
AcDbEntity
100
AcDbLine
  8
0
 62
7
420
0
370
-1
  6
BYLAYER
 10
482.5999994270889033
 20
-105.0283330801022146
 30
0.0
 11
482.5999994270889033
 21
-134.8383330770066664
 31
0.0
  0
LINE
  5
C0
100
AcDbEntity
100
AcDbLine
  8
0
 62
7
420
0
370
-1
  6
BYLAYER
 10
482.5999994270889033
 20
-134.8383330770066664
 30
0.0
 11
490.7999992351111018
 21
-134.8383330770066664
 31
0.0
  0
LINE
  5
C1
100
AcDbEntity
100
AcDbLine
  8
0
 62
7
420
0
370
-1
  6
BYLAYER
 10
490.7999992351111018
 20
-134.8383330770066664
 30
0.0
 11
490.7999992351111018
 21
-162.1999998087044332
 31
0.0
  0
LINE
  5
C2
100
AcDbEntity
100
AcDbLine
  8
0
 62
7
420
0
370
-1
  6
BYLAYER
 10
490.7999992351111018
 20
-162.1999998087044332
 30
0.0
 11
451.6149993138444074
 21
-162.1999998087044332
 31
0.0
  0
LINE
  5
C3
100
AcDbEntity
100
AcDbLine
  8
0
 62
7
420
0
370
-1
  6
BYLAYER
 10
451.6149993138444074
 20
-162.1999998087044332
 30
0.0
 11
451.6149993138444074
 21
-170.3999996178555421
 31
0.0
  0
LINE
  5
C4
100
AcDbEntity
100
AcDbLine
  8
0
 62
7
420
0
370
-1
  6
BYLAYER
 10
451.6149993138444074
 20
-170.3999996178555421
 30
0.0
 11
421.4249993095777427
 21
-170.3999996178555421
 31
0.0
  0
LINE
  5
C5
100
AcDbEntity
100
AcDbLine
  8
0
 62
7
420
0
370
-1
  6
BYLAYER
 10
421.4249993095777427
 20
-170.3999996178555421
 30
0.0
 11
421.4249993095777427
 21
-162.1999998087044332
 31
0.0
  0
LINE
  5
C6
100
AcDbEntity
100
AcDbLine
  8
0
 62
7
420
0
370
-1
  6
BYLAYER
 10
421.4249993095777427
 20
-162.1999998087044332
 30
0.0
 11
382.3349993902222081
 21
-162.1999998087044332
 31
0.0
  0
LINE
  5
C7
100
AcDbEntity
100
AcDbLine
  8
0
 62
7
420
0
370
-1
  6
BYLAYER
 10
382.3349993902222081
 20
-162.1999998087044332
 30
0.0
 11
382.3349993902222081
 21
-170.3999996178555421
 31
0.0
  0
LINE
  5
C8
100
AcDbEntity
100
AcDbLine
  8
0
 62
7
420
0
370
-1
  6
BYLAYER
 10
382.3349993902222081
 20
-170.3999996178555421
 30
0.0
 11
352.1449993859555434
 21
-170.3999996178555421
 31
0.0
  0
LINE
  5
C9
100
AcDbEntity
100
AcDbLine
  8
0
 62
7
420
0
370
-1
  6
BYLAYER
 10
352.1449993859555434
 20
-170.3999996178555421
 30
0.0
 11
352.1449993859555434
 21
-162.1999998087044332
 31
0.0
  0
LINE
  5
CA
100
AcDbEntity
100
AcDbLine
  8
0
 62
7
420
0
370
-1
  6
BYLAYER
 10
352.1449993859555434
 20
-162.1999998087044332
 30
0.0
 11
313.054999466599952
 21
-162.1999998087044332
 31
0.0
  0
LINE
  5
CB
100
AcDbEntity
100
AcDbLine
  8
0
 62
7
420
0
370
-1
  6
BYLAYER
 10
313.054999466599952
 20
-162.1999998087044332
 30
0.0
 11
313.054999466599952
 21
-170.3999996178555421
 31
0.0
  0
LINE
  5
CC
100
AcDbEntity
100
AcDbLine
  8
0
 62
7
420
0
370
-1
  6
BYLAYER
 10
313.054999466599952
 20
-170.3999996178555421
 30
0.0
 11
282.8649994623333441
 21
-170.3999996178555421
 31
0.0
  0
LINE
  5
CD
100
AcDbEntity
100
AcDbLine
  8
0
 62
7
420
0
370
-1
  6
BYLAYER
 10
282.8649994623333441
 20
-170.3999996178555421
 30
0.0
 11
282.8649994623333441
 21
-162.1999998087044332
 31
0.0
  0
LINE
  5
CE
100
AcDbEntity
100
AcDbLine
  8
0
 62
7
420
0
370
-1
  6
BYLAYER
 10
282.8649994623333441
 20
-162.1999998087044332
 30
0.0
 11
243.7749995429777528
 21
-162.1999998087044332
 31
0.0
  0
LINE
  5
CF
100
AcDbEntity
100
AcDbLine
  8
0
 62
7
420
0
370
-1
  6
BYLAYER
 10
243.7749995429777528
 20
-162.1999998087044332
 30
0.0
 11
243.7749995429777528
 21
-170.3999996178555421
 31
0.0
  0
LINE
  5
D0
100
AcDbEntity
100
AcDbLine
  8
0
 62
7
420
0
370
-1
  6
BYLAYER
 10
243.7749995429777528
 20
-170.3999996178555421
 30
0.0
 11
213.5849995398399699
 21
-170.3999996178555421
 31
0.0
  0
LINE
  5
D1
100
AcDbEntity
100
AcDbLine
  8
0
 62
7
420
0
370
-1
  6
BYLAYER
 10
213.5849995398399699
 20
-170.3999996178555421
 30
0.0
 11
213.5849995398399699
 21
-162.1999998087044332
 31
0.0
  0
LINE
  5
D2
100
AcDbEntity
100
AcDbLine
  8
0
 62
7
420
0
370
-1
  6
BYLAYER
 10
213.5849995398399699
 20
-162.1999998087044332
 30
0.0
 11
174.3999996177266496
 21
-162.1999998087044332
 31
0.0
  0
LINE
  5
D3
100
AcDbEntity
100
AcDbLine
  8
0
 62
7
420
0
370
-1
  6
BYLAYER
 10
174.3999996177266496
 20
-162.1999998087044332
 30
0.0
 11
174.3999996177266496
 21
-53.9999999999840128
 31
0.0
  0
LINE
  5
D4
100
AcDbEntity
100
AcDbLine
  8
0
 62
256
370
-1
  6
BYLAYER
 10
374.3999996177266212
 20
-3.9999999999839999
 30
0.0
 11
174.3999996177266496
 21
-53.9999999999839986
 31
0.0
  0
LINE
  5
D5
100
AcDbEntity
100
AcDbLine
  8
0
 62
256
370
-1
  6
BYLAYER
 10
374.3999996177267349
 20
-561.199998854777732
 30
0.0
 11
174.3999996177266496
 21
-511.199998854777732
 31
0.0
  0
LINE
  5
D6
100
AcDbEntity
100
AcDbLine
  8
0
 62
256
370
-1
  6
BYLAYER
 10
240.0
 20
-650.0
 30
0.0
 11
490.0
 21
-650.0
 31
0.0
  0
LINE
  5
D7
100
AcDbEntity
100
AcDbLine
  8
0
 62
256
370
-1
  6
BYLAYER
 10
490.0
 20
-650.0
 30
0.0
 11
490.0
 21
-600.0
 31
0.0
  0
LINE
  5
D8
100
AcDbEntity
100
AcDbLine
  8
0
 62
256
370
-1
  6
BYLAYER
 10
490.0
 20
-600.0
 30
0.0
 11
190.0
 21
-600.0
 31
0.0
  0
LINE
  5
D9
100
AcDbEntity
100
AcDbLine
  8
0
 62
256
370
-1
  6
BYLAYER
 10
190.0
 20
-600.0
 30
0.0
 11
190.0
 21
-630.0
 31
0.0
  0
LINE
  5
DA
100
AcDbEntity
100
AcDbLine
  8
0
 62
256
370
-1
  6
BYLAYER
 10
240.0
 20
-650.0
 30
0.0
 11
190.0
 21
-630.0
 31
0.0
  0
LINE
  5
DB
100
AcDbEntity
100
AcDbLine
  8
0
 62
256
370
-1
  6
BYLAYER
 10
240.0
 20
-750.0
 30
0.0
 11
650.0
 21
-750.0
 31
0.0
  0
LINE
  5
DC
100
AcDbEntity
100
AcDbLine
  8
0
 62
256
370
-1
  6
BYLAYER
 10
700.0
 20
-670.0
 30
0.0
 11
190.0
 21
-670.0
 31
0.0
  0
LINE
  5
DD
100
AcDbEntity
100
AcDbLine
  8
0
 62
256
370
-1
  6
BYLAYER
 10
190.0
 20
-670.0
 30
0.0
 11
190.0
 21
-730.0
 31
0.0
  0
CIRCLE
  5
DE
100
AcDbEntity
100
AcDbCircle
  8
0
 62
256
370
-1
  6
BYLAYER
 10
210.0
 20
-620.0
 30
0.0
 40
3.1749999999999998
  0
MTEXT
  5
DF
100
AcDbEntity
100
AcDbMText
  8
0
 62
256
370
-1
  6
BYLAYER
 10
260.0
 20
-620.0
 30
0.0
 40
8.0
 41
0.0
 71
1
 72
1
  1
\H10.2857;Double Thick
  7
textstyle0
 50
0.0
 73
2
 44
1.0
  0
CIRCLE
  5
E0
100
AcDbEntity
100
AcDbCircle
  8
0
 62
256
370
-1
  6
BYLAYER
 10
210.0
 20
-690.0
 30
0.0
 40
3.1749999999999998
  0
CIRCLE
  5
E1
100
AcDbEntity
100
AcDbCircle
  8
0
 62
256
370
-1
  6
BYLAYER
 10
300.0
 20
-730.0
 30
0.0
 40
3.1749999999999998
  0
CIRCLE
  5
E2
100
AcDbEntity
100
AcDbCircle
  8
0
 62
256
370
-1
  6
BYLAYER
 10
600.0
 20
-730.0
 30
0.0
 40
3.1749999999999998
  0
CIRCLE
  5
E3
100
AcDbEntity
100
AcDbCircle
  8
0
 62
256
370
-1
  6
BYLAYER
 10
300.0
 20
-730.0
 30
0.0
 40
50.0
  0
CIRCLE
  5
E4
100
AcDbEntity
100
AcDbCircle
  8
0
 62
256
370
-1
  6
BYLAYER
 10
600.0
 20
-730.0
 30
0.0
 40
50.0
  0
LINE
  5
E5
100
AcDbEntity
100
AcDbLine
  8
0
 62
256
370
-1
  6
BYLAYER
 10
630.0
 20
-750.0
 30
0.0
 11
630.0
 21
-750.0
 31
0.0
  0
LINE
  5
E6
100
AcDbEntity
100
AcDbLine
  8
0
 62
256
370
-1
  6
BYLAYER
 10
240.0
 20
-750.0
 30
0.0
 11
190.0
 21
-730.0
 31
0.0
  0
LINE
  5
E7
100
AcDbEntity
100
AcDbLine
  8
0
 62
256
370
-1
  6
BYLAYER
 10
700.0
 20
-670.0
 30
0.0
 11
700.0
 21
-730.0
 31
0.0
  0
LINE
  5
E8
100
AcDbEntity
100
AcDbLine
  8
0
 62
256
370
-1
  6
BYLAYER
 10
650.0
 20
-750.0
 30
0.0
 11
700.0
 21
-730.0
 31
0.0
  0
ARC
  5
E9
100
AcDbEntity
  8
0
 62
256
370
-1
  6
BYLAYER
100
AcDbCircle
 10
550.0000000000002274
 20
-509.9999999999998863
 30
0.0
 40
15.0
100
AcDbArc
 50
90.0
 51
180.0
  0
ARC
  5
EA
100
AcDbEntity
  8
0
 62
256
370
-1
  6
BYLAYER
100
AcDbCircle
 10
614.5861873485091564
 20
-509.9999999999998863
 30
0.0
 40
15.0
100
AcDbArc
 50
9.4623222080257658
 51
90.0
  0
LINE
  5
EB
100
AcDbEntity
100
AcDbLine
  8
0
 62
256
370
-1
  6
BYLAYER
 10
520.0000000000002274
 20
-479.9999999999998863
 30
0.0
 11
520.0000000000002274
 21
-639.9999999999998863
 31
0.0
  0
ARC
  5
EC
100
AcDbEntity
  8
0
 62
256
370
-1
  6
BYLAYER
100
AcDbCircle
 10
620.4195206818426414
 20
-544.9999999999998863
 30
0.0
 40
15.0
100
AcDbArc
 50
270.0
 51
9.4623222080258422
  0
LINE
  5
ED
100
AcDbEntity
100
AcDbLine
  8
0
 62
256
370
-1
  6
BYLAYER
 10
930.3316586372914117
 20
-507.6604298457652931
 30
0.0
 11
1130.3316586372914117
 21
-507.6604298457652931
 31
0.0
  0
ARC
  5
EE
100
AcDbEntity
  8
0
 62
256
370
-1
  6
BYLAYER
100
AcDbCircle
 10
550.0000000000002274
 20
-544.9999999999998863
 30
0.0
 40
15.0
100
AcDbArc
 50
180.0
 51
270.0
  0
LINE
  5
EF
100
AcDbEntity
100
AcDbLine
  8
0
 62
256
370
-1
  6
BYLAYER
 10
635.215429539324532
 20
-542.5340151904194954
 30
0.0
 11
629.3820962059912745
 21
-507.5340151904194954
 31
0.0
  0
LINE
  5
F0
100
AcDbEntity
100
AcDbLine
  8
0
 62
256
370
-1
  6
BYLAYER
 10
614.5861873485091564
 20
-494.9999999999998863
 30
0.0
 11
550.0000000000002274
 21
-494.9999999999998863
 31
0.0
  0
LINE
  5
F1
100
AcDbEntity
100
AcDbLine
  8
0
 62
256
370
-1
  6
BYLAYER
 10
653.2199493652681213
 20
-559.3196961916070222
 30
0.0
 11
640.0000000000002274
 21
-479.9999999999998863
 31
0.0
  0
LINE
  5
F2
100
AcDbEntity
100
AcDbLine
  8
0
 62
256
370
-1
  6
BYLAYER
 10
535.0000000000002274
 20
-509.9999999999998863
 30
0.0
 11
535.0000000000002274
 21
-544.9999999999998863
 31
0.0
  0
LINE
  5
F3
100
AcDbEntity
100
AcDbLine
  8
0
 62
256
370
-1
  6
BYLAYER
 10
850.3316586372914117
 20
-507.6604298457654068
 30
0.0
 11
730.3316586372914117
 21
-507.6604298457654068
 31
0.0
  0
LINE
  5
F4
100
AcDbEntity
100
AcDbLine
  8
0
 62
256
370
-1
  6
BYLAYER
 10
550.0000000000002274
 20
-559.9999999999998863
 30
0.0
 11
620.4195206818426414
 21
-559.9999999999998863
 31
0.0
  0
LINE
  5
F5
100
AcDbEntity
100
AcDbLine
  8
0
 62
256
370
-1
  6
BYLAYER
 10
730.3316586372914117
 20
-507.6604298457654068
 30
0.0
 11
730.3316586372914117
 21
-507.6604298457654068
 31
0.0
  0
LINE
  5
F6
100
AcDbEntity
100
AcDbLine
  8
0
 62
256
370
-1
  6
BYLAYER
 10
653.2199493652683486
 20
-559.3196961916070222
 30
0.0
 11
715.8426027338598487
 21
-563.9938111256739148
 31
0.0
  0
LINE
  5
F7
100
AcDbEntity
100
AcDbLine
  8
0
 62
256
370
-1
  6
BYLAYER
 10
730.3316586372911843
 20
-507.6604298457654068
 30
0.0
 11
730.3316586372911843
 21
-357.6604298457654068
 31
0.0
  0
LINE
  5
F8
100
AcDbEntity
100
AcDbLine
  8
0
 62
256
370
-1
  6
BYLAYER
 10
850.3316586372911843
 20
-507.6604298457654068
 30
0.0
 11
850.3316586372911843
 21
-357.6604298457654068
 31
0.0
  0
LINE
  5
F9
100
AcDbEntity
100
AcDbLine
  8
0
 62
256
370
-1
  6
BYLAYER
 10
730.3316586372911843
 20
-357.6604298457654068
 30
0.0
 11
850.3316586372911843
 21
-357.6604298457654068
 31
0.0
  0
LINE
  5
FA
100
AcDbEntity
100
AcDbLine
  8
0
 62
256
370
-1
  6
BYLAYER
 10
640.0000000000002274
 20
-479.9999999999998863
 30
0.0
 11
520.0000000000002274
 21
-479.9999999999998863
 31
0.0
  0
LINE
  5
FB
100
AcDbEntity
100
AcDbLine
  8
0
 62
256
370
-1
  6
BYLAYER
 10
720.0000000000002274
 20
-639.9999999999996589
 30
0.0
 11
715.842602733859394
 21
-563.9938111256739148
 31
0.0
  0
LINE
  5
FC
100
AcDbEntity
100
AcDbLine
  8
0
 62
256
370
-1
  6
BYLAYER
 10
520.0000000000002274
 20
-639.9999999999998863
 30
0.0
 11
720.0000000000004547
 21
-639.9999999999996589
 31
0.0
  0
LINE
  5
FD
100
AcDbEntity
100
AcDbLine
  8
0
 62
256
370
-1
  6
BYLAYER
 10
930.3316586372914117
 20
-507.6604298457652931
 30
0.0
 11
930.3316586372914117
 21
-357.6604298457652931
 31
0.0
  0
LINE
  5
FE
100
AcDbEntity
100
AcDbLine
  8
0
 62
256
370
-1
  6
BYLAYER
 10
1130.3316586372914117
 20
-507.6604298457652931
 30
0.0
 11
1130.3316586372914117
 21
-357.6604298457652931
 31
0.0
  0
LINE
  5
FF
100
AcDbEntity
100
AcDbLine
  8
0
 62
256
370
-1
  6
BYLAYER
 10
930.3316586372914117
 20
-357.6604298457652931
 30
0.0
 11
1130.3316586372914117
 21
-357.6604298457652931
 31
0.0
  0
MTEXT
  5
100
100
AcDbEntity
100
AcDbMText
  8
0
 62
256
370
-1
  6
BYLAYER
 10
980.3316586372911843
 20
-427.6604298457654068
 30
0.0
 40
8.0
 41
0.0
 71
1
 72
1
  1
\H10.2857;Bottom of Cab
  7
textstyle1
 50
0.0
 73
2
 44
1.0
  0
MTEXT
  5
101
100
AcDbEntity
100
AcDbMText
  8
0
 62
256
370
-1
  6
BYLAYER
 10
750.3316586372911843
 20
-417.6604298457654068
 30
0.0
 40
8.0
 41
0.0
 71
1
 72
1
  1
\H10.2857;Top of Cab
  7
textstyle2
 50
0.0
 73
2
 44
1.0
  0
MTEXT
  5
102
100
AcDbEntity
100
AcDbMText
  8
0
 62
256
370
-1
  6
BYLAYER
 10
590.0
 20
-600.0
 30
0.0
 40
8.0
 41
0.0
 71
1
 72
1
  1
2x
  7
textstyle3
 50
0.0
 73
2
 44
1.0
  0
MTEXT
  5
103
100
AcDbEntity
100
AcDbMText
  8
0
 62
256
370
-1
  6
BYLAYER
 10
463.2042826464709719
 20
-714.3501377153655767
 30
0.0
 40
8.0
 41
0.0
 71
1
 72
1
  1
2x
  7
textstyle4
 50
0.0
 73
2
 44
1.0
  0
MTEXT
  5
104
100
AcDbEntity
100
AcDbMText
  8
0
 62
256
370
-1
  6
BYLAYER
 10
810.0
 20
-580.0
 30
0.0
 40
8.0
 41
0.0
 71
1
 72
1
  1
Still need hood and grill
  7
textstyle5
 50
0.0
 73
2
 44
1.0
  0
DIMENSION
  5
105
100
AcDbEntity
  8
0
 62
256
370
-1
  6
BYLAYER
100
AcDbDimension
 10
190.0
 20
-660.0
 30
0.0
 11
445.0
 21
-658.125
 31
0.0
 70
1
 71
8
 72
2
 41
1.0
 42
0.0
  1

  3
Standard
100
AcDbAlignedDimension
 13
190.0
 23
-670.0
 33
0.0
 14
700.0
 24
-670.0
 34
0.0
1001
ACAD
1000
DSTYLE
1002
{
1070
144
1040
1
1002
}
  0
DIMENSION
  5
106
100
AcDbEntity
  8
0
 62
256
370
-1
  6
BYLAYER
100
AcDbDimension
 10
180.0
 20
-750.0
 30
0.0
 11
178.125
 21
-710.0
 31
0.0
 70
1
 71
8
 72
2
 41
1.0
 42
0.0
  1

  3
Standard
100
AcDbAlignedDimension
 13
240.0
 23
-750.0
 33
0.0
 14
240.0
 24
-670.0
 34
0.0
1001
ACAD
1000
DSTYLE
1002
{
1070
144
1040
1
1002
}
  0
DIMENSION
  5
107
100
AcDbEntity
  8
0
 62
256
370
-1
  6
BYLAYER
100
AcDbDimension
 10
500.0
 20
-600.0
 30
0.0
 11
498.125
 21
-625.0
 31
0.0
 70
1
 71
8
 72
2
 41
1.0
 42
0.0
  1

  3
Standard
100
AcDbAlignedDimension
 13
490.0
 23
-600.0
 33
0.0
 14
490.0
 24
-650.0
 34
0.0
1001
ACAD
1000
DSTYLE
1002
{
1070
144
1040
1
1002
}
  0
DIMENSION
  5
108
100
AcDbEntity
  8
0
 62
256
370
-1
  6
BYLAYER
100
AcDbDimension
 10
490.0
 20
-580.0
 30
0.0
 11
340.0
 21
-578.125
 31
0.0
 70
1
 71
8
 72
2
 41
1.0
 42
0.0
  1

  3
Standard
100
AcDbAlignedDimension
 13
490.0
 23
-600.0
 33
0.0
 14
190.0
 24
-600.0
 34
0.0
1001
ACAD
1000
DSTYLE
1002
{
1070
144
1040
1
1002
}
  0
ENDSEC
  0
SECTION
  2
OBJECTS
  0
DICTIONARY
  5
C
100
AcDbDictionary
280
0
281
1
  3
ACAD_GROUP
350
D
  3
ACAD_LAYOUT
350
1A
  3
ACAD_MLINESTYLE
350
17
  3
ACAD_PLOTSETTINGS
350
19
  3
ACAD_PLOTSTYLENAME
350
E
  3
AcDbVariableDictionary
350
109
  3
QCAD_OBJECTS
350
10A
  0
DICTIONARY
  5
D
100
AcDbDictionary
280
0
281
1
  0
ACDBDICTIONARYWDFLT
  5
E
100
AcDbDictionary
281
1
  3
Normal
350
F
100
AcDbDictionaryWithDefault
340
F
  0
ACDBPLACEHOLDER
  5
F
  0
DICTIONARY
  5
17
100
AcDbDictionary
280
0
281
1
  3
Standard
350
18
  0
MLINESTYLE
  5
18
100
AcDbMlineStyle
  2
STANDARD
 70
0
  3

 62
256
 51
90.0
 52
90.0
 71
2
 49
0.5
 62
256
  6
BYLAYER
 49
-0.5
 62
256
  6
BYLAYER
  0
DICTIONARY
  5
19
100
AcDbDictionary
280
0
281
1
  0
DICTIONARY
  5
1A
100
AcDbDictionary
281
1
  3
Layout1
350
1E
  3
Layout2
350
26
  3
Model
350
22
  0
LAYOUT
  5
1E
100
AcDbPlotSettings
  1

  2
none_device
  4

  6

 40
0.0
 41
0.0
 42
0.0
 43
0.0
 44
0.0
 45
0.0
 46
0.0
 47
0.0
 48
0.0
 49
0.0
140
0.0
141
0.0
142
1.0
143
1.0
 70
688
 72
0
 73
0
 74
5
  7

 75
16
147
1.0
148
0.0
149
0.0
100
AcDbLayout
  1
Layout1
 70
1
 71
1
 10
0.0
 20
0.0
 11
420.0
 21
297.0
 12
0.0
 22
0.0
 32
0.0
 14
100000000000000000000.0
 24
100000000000000000000.0
 34
100000000000000000000.0
 15
-100000000000000000000.0
 25
-100000000000000000000.0
 35
-100000000000000000000.0
146
0.0
 13
0.0
 23
0.0
 33
0.0
 16
1.0
 26
0.0
 36
0.0
 17
0.0
 27
1.0
 37
0.0
 76
0
330
1B
  0
LAYOUT
  5
22
100
AcDbPlotSettings
  1

  2
none_device
  4

  6

 40
0.0
 41
0.0
 42
0.0
 43
0.0
 44
0.0
 45
0.0
 46
0.0
 47
0.0
 48
0.0
 49
0.0
140
0.0
141
0.0
142
1.0
143
1.0
 70
1712
 72
0
 73
0
 74
0
  7

 75
0
147
1.0
148
0.0
149
0.0
100
AcDbLayout
  1
Model
 70
1
 71
0
 10
0.0
 20
0.0
 11
12.0
 21
9.0
 12
0.0
 22
0.0
 32
0.0
 14
0.0
 24
0.0
 34
0.0
 15
0.0
 25
0.0
 35
0.0
146
0.0
 13
0.0
 23
0.0
 33
0.0
 16
1.0
 26
0.0
 36
0.0
 17
0.0
 27
1.0
 37
0.0
 76
0
330
1F
  0
LAYOUT
  5
26
100
AcDbPlotSettings
  1

  2
none_device
  4

  6

 40
0.0
 41
0.0
 42
0.0
 43
0.0
 44
0.0
 45
0.0
 46
0.0
 47
0.0
 48
0.0
 49
0.0
140
0.0
141
0.0
142
1.0
143
1.0
 70
688
 72
0
 73
0
 74
5
  7

 75
16
147
1.0
148
0.0
149
0.0
100
AcDbLayout
  1
Layout2
 70
1
 71
2
 10
0.0
 20
0.0
 11
12.0
 21
9.0
 12
0.0
 22
0.0
 32
0.0
 14
0.0
 24
0.0
 34
0.0
 15
0.0
 25
0.0
 35
0.0
146
0.0
 13
0.0
 23
0.0
 33
0.0
 16
1.0
 26
0.0
 36
0.0
 17
0.0
 27
1.0
 37
0.0
 76
0
330
23
  0
DICTIONARY
  5
109
100
AcDbDictionary
281
1
  3
DIMASSOC
350
10C
  3
HIDETEXT
350
10B
  0
DICTIONARYVAR
  5
10B
100
DictionaryVariables
280
0
  1
2
  0
DICTIONARYVAR
  5
10C
100
DictionaryVariables
280
0
  1
1
  0
DICTIONARY
  5
10A
100
AcDbDictionary
281
1
  3
Grid/DisplayGrid00
350
10D
  3
Grid/DisplayGrid01
350
10E
  3
Grid/DisplayGrid02
350
10F
  3
Grid/DisplayGrid03
350
110
  3
Grid/GridSpacingX00
350
111
  3
Grid/GridSpacingX01
350
112
  3
Grid/GridSpacingX02
350
113
  3
Grid/GridSpacingX03
350
114
  3
Grid/GridSpacingY00
350
115
  3
Grid/GridSpacingY01
350
116
  3
Grid/GridSpacingY02
350
117
  3
Grid/GridSpacingY03
350
118
  3
Grid/IsometricGrid00
350
119
  3
Grid/IsometricGrid01
350
11A
  3
Grid/IsometricGrid02
350
11B
  3
Grid/IsometricGrid03
350
11C
  3
Grid/IsometricProjection00
350
11D
  3
Grid/IsometricProjection01
350
11E
  3
Grid/IsometricProjection02
350
11F
  3
Grid/IsometricProjection03
350
120
  3
Grid/MetaGridSpacingX00
350
121
  3
Grid/MetaGridSpacingX01
350
122
  3
Grid/MetaGridSpacingX02
350
123
  3
Grid/MetaGridSpacingX03
350
124
  3
Grid/MetaGridSpacingY00
350
125
  3
Grid/MetaGridSpacingY01
350
126
  3
Grid/MetaGridSpacingY02
350
127
  3
Grid/MetaGridSpacingY03
350
128
  3
MultiPageSettings/Columns
350
129
  3
MultiPageSettings/GlueMarginsBottom
350
12A
  3
MultiPageSettings/GlueMarginsLeft
350
12B
  3
MultiPageSettings/GlueMarginsRight
350
12C
  3
MultiPageSettings/GlueMarginsTop
350
12D
  3
MultiPageSettings/PrintCropMarks
350
12E
  3
MultiPageSettings/Rows
350
12F
  3
PageSettings/OffsetX
350
130
  3
PageSettings/OffsetY
350
131
  3
PageSettings/PageOrientation
350
132
  3
PageSettings/PaperHeight
350
133
  3
PageSettings/PaperWidth
350
134
  3
PageSettings/Scale
350
135
  3
PageSettings/ShowPaperBorders
350
136
  3
UnitSettings/PaperUnit
350
137
  0
XRECORD
  5
10D
330
10A
100
AcDbXrecord
280
1
290
1
  0
XRECORD
  5
10E
330
10A
100
AcDbXrecord
280
1
290
1
  0
XRECORD
  5
10F
330
10A
100
AcDbXrecord
280
1
290
1
  0
XRECORD
  5
110
330
10A
100
AcDbXrecord
280
1
290
1
  0
XRECORD
  5
111
330
10A
100
AcDbXrecord
280
1
1000
auto
  0
XRECORD
  5
112
330
10A
100
AcDbXrecord
280
1
1000
auto
  0
XRECORD
  5
113
330
10A
100
AcDbXrecord
280
1
1000
auto
  0
XRECORD
  5
114
330
10A
100
AcDbXrecord
280
1
1000
auto
  0
XRECORD
  5
115
330
10A
100
AcDbXrecord
280
1
1000
auto
  0
XRECORD
  5
116
330
10A
100
AcDbXrecord
280
1
1000
auto
  0
XRECORD
  5
117
330
10A
100
AcDbXrecord
280
1
1000
auto
  0
XRECORD
  5
118
330
10A
100
AcDbXrecord
280
1
1000
auto
  0
XRECORD
  5
119
330
10A
100
AcDbXrecord
280
1
290
0
  0
XRECORD
  5
11A
330
10A
100
AcDbXrecord
280
1
290
0
  0
XRECORD
  5
11B
330
10A
100
AcDbXrecord
280
1
290
0
  0
XRECORD
  5
11C
330
10A
100
AcDbXrecord
280
1
290
0
  0
XRECORD
  5
11D
330
10A
100
AcDbXrecord
280
1
 90
0
  0
XRECORD
  5
11E
330
10A
100
AcDbXrecord
280
1
 90
0
  0
XRECORD
  5
11F
330
10A
100
AcDbXrecord
280
1
 90
0
  0
XRECORD
  5
120
330
10A
100
AcDbXrecord
280
1
 90
0
  0
XRECORD
  5
121
330
10A
100
AcDbXrecord
280
1
1000
auto
  0
XRECORD
  5
122
330
10A
100
AcDbXrecord
280
1
1000
auto
  0
XRECORD
  5
123
330
10A
100
AcDbXrecord
280
1
1000
auto
  0
XRECORD
  5
124
330
10A
100
AcDbXrecord
280
1
1000
auto
  0
XRECORD
  5
125
330
10A
100
AcDbXrecord
280
1
1000
auto
  0
XRECORD
  5
126
330
10A
100
AcDbXrecord
280
1
1000
auto
  0
XRECORD
  5
127
330
10A
100
AcDbXrecord
280
1
1000
auto
  0
XRECORD
  5
128
330
10A
100
AcDbXrecord
280
1
1000
auto
  0
XRECORD
  5
129
330
10A
100
AcDbXrecord
280
1
 90
1
  0
XRECORD
  5
12A
330
10A
100
AcDbXrecord
280
1
 40
10.0
  0
XRECORD
  5
12B
330
10A
100
AcDbXrecord
280
1
 40
10.0
  0
XRECORD
  5
12C
330
10A
100
AcDbXrecord
280
1
 40
10.0
  0
XRECORD
  5
12D
330
10A
100
AcDbXrecord
280
1
 40
10.0
  0
XRECORD
  5
12E
330
10A
100
AcDbXrecord
280
1
290
0
  0
XRECORD
  5
12F
330
10A
100
AcDbXrecord
280
1
 90
1
  0
XRECORD
  5
130
330
10A
100
AcDbXrecord
280
1
 40
148.2795918367373815
  0
XRECORD
  5
131
330
10A
100
AcDbXrecord
280
1
 40
-808.5673469387909336
  0
XRECORD
  5
132
330
10A
100
AcDbXrecord
280
1
1000
Portrait
  0
XRECORD
  5
133
330
10A
100
AcDbXrecord
280
1
 40
279.3999999999999773
  0
XRECORD
  5
134
330
10A
100
AcDbXrecord
280
1
 40
215.9000000000000057
  0
XRECORD
  5
135
330
10A
100
AcDbXrecord
280
1
1000
1:1
  0
XRECORD
  5
136
330
10A
100
AcDbXrecord
280
1
290
1
  0
XRECORD
  5
137
330
10A
100
AcDbXrecord
280
1
 90
4
  0
ENDSEC
  0
EOF
