G04 #@! TF.FileFunction,Copper,L2,Bot,Signal*
%FSLAX46Y46*%
G04 Gerber Fmt 4.6, Leading zero omitted, Abs format (unit mm)*
G04 Created by KiCad (PCBNEW 4.0.7) date Saturday, November 24, 2018 'AMt' 10:44:27 AM*
%MOMM*%
%LPD*%
G01*
G04 APERTURE LIST*
%ADD10C,0.100000*%
%ADD11R,3.960000X3.960000*%
%ADD12R,5.080000X1.270000*%
%ADD13R,1.700000X1.700000*%
%ADD14O,1.700000X1.700000*%
%ADD15R,1.600000X1.600000*%
%ADD16C,1.600000*%
%ADD17C,1.700000*%
%ADD18R,3.500000X3.500000*%
%ADD19C,3.556000*%
%ADD20C,0.685800*%
%ADD21C,1.500000*%
%ADD22C,0.350000*%
%ADD23C,0.250000*%
%ADD24C,1.000000*%
%ADD25C,0.254000*%
G04 APERTURE END LIST*
D10*
D11*
X128000000Y-131250000D03*
D12*
X128000000Y-120265000D03*
X128000000Y-142235000D03*
D13*
X172720000Y-111760000D03*
D14*
X170180000Y-111760000D03*
X172720000Y-109220000D03*
X170180000Y-109220000D03*
X172720000Y-106680000D03*
X170180000Y-106680000D03*
X172720000Y-104140000D03*
X170180000Y-104140000D03*
D15*
X171000000Y-137000000D03*
D16*
X171000000Y-140500000D03*
D15*
X128750000Y-145000000D03*
D16*
X128750000Y-147500000D03*
D13*
X159000000Y-103250000D03*
D17*
X159000000Y-105790000D03*
X156460000Y-103250000D03*
X156460000Y-105790000D03*
X153920000Y-103250000D03*
X153920000Y-105790000D03*
X151380000Y-103250000D03*
X151380000Y-105790000D03*
X148840000Y-103250000D03*
X148840000Y-105790000D03*
X146300000Y-103250000D03*
X146300000Y-105790000D03*
X143760000Y-103250000D03*
X143760000Y-105790000D03*
X141220000Y-103250000D03*
X141220000Y-105790000D03*
D13*
X129540000Y-104140000D03*
D14*
X129540000Y-106680000D03*
D13*
X127000000Y-109220000D03*
D14*
X129540000Y-109220000D03*
X127000000Y-111760000D03*
X129540000Y-111760000D03*
D18*
X156750000Y-142000000D03*
X156750000Y-148000000D03*
X161450000Y-145000000D03*
D13*
X170180000Y-119380000D03*
D14*
X170180000Y-121920000D03*
X170180000Y-124460000D03*
D13*
X170180000Y-127000000D03*
D14*
X170180000Y-129540000D03*
X170180000Y-132080000D03*
D13*
X127000000Y-104140000D03*
D14*
X127000000Y-106680000D03*
D19*
X166710000Y-147000000D03*
X171790000Y-147000000D03*
D13*
X141000000Y-138000000D03*
D14*
X138460000Y-138000000D03*
D13*
X172720000Y-119380000D03*
D14*
X172720000Y-121920000D03*
X172720000Y-124460000D03*
X172720000Y-127000000D03*
X172720000Y-129540000D03*
X172720000Y-132080000D03*
D20*
X162000000Y-134750000D03*
X167500000Y-134750000D03*
X167250000Y-138500000D03*
X151750000Y-145000000D03*
X161250000Y-110500000D03*
X168000000Y-122250000D03*
X165250000Y-121000000D03*
X160750000Y-121000000D03*
X136750000Y-137250000D03*
X154000000Y-118750000D03*
X154250000Y-125250000D03*
X141750000Y-118000000D03*
X131000000Y-114500000D03*
X130500000Y-131500000D03*
X146000000Y-137750000D03*
X152500000Y-132250000D03*
X160750000Y-133500000D03*
X128000000Y-115250000D03*
X129500000Y-136000000D03*
X132000000Y-123000000D03*
X146250000Y-109500000D03*
X139500000Y-129000000D03*
X165250000Y-114000000D03*
X147250000Y-140500000D03*
X139500000Y-121000000D03*
X139500000Y-123000000D03*
X139500000Y-125000000D03*
X135750000Y-107000000D03*
X135750000Y-112000000D03*
X135750000Y-117000000D03*
X136000000Y-101000000D03*
X136000000Y-104000000D03*
X145500000Y-124500000D03*
X133500000Y-142000000D03*
X142750000Y-128000000D03*
X126000000Y-120000000D03*
X127000000Y-122000000D03*
X145750000Y-148500000D03*
X143000000Y-122250000D03*
X141750000Y-136250000D03*
X142750000Y-129000000D03*
X145750000Y-131250000D03*
X155000000Y-136000000D03*
X155000000Y-133750000D03*
X156000000Y-121250000D03*
X156000000Y-123500000D03*
X151750000Y-142750000D03*
X165250000Y-119000000D03*
X125750000Y-118750000D03*
X147750000Y-135250000D03*
X136000000Y-144500000D03*
X158750000Y-109500000D03*
X152750000Y-111750000D03*
X143750000Y-110500000D03*
X151500000Y-136750000D03*
X150750000Y-127500000D03*
X150750000Y-123750000D03*
X154000000Y-119750000D03*
X148750000Y-135250000D03*
X131250000Y-121250000D03*
X131250000Y-119000000D03*
X150000000Y-130250000D03*
X152250000Y-131250000D03*
X151750000Y-125750000D03*
X157250000Y-132250000D03*
X161500000Y-117750000D03*
X161750000Y-128750000D03*
X160500000Y-122750000D03*
X162250000Y-131000000D03*
X161250000Y-122000000D03*
X135750000Y-115000000D03*
X148750000Y-132500000D03*
X135750000Y-109000000D03*
X147750000Y-132000000D03*
X146000000Y-125500000D03*
X144500000Y-115250000D03*
X144500000Y-114000000D03*
X148250000Y-131250000D03*
X147750000Y-130500000D03*
X144500000Y-112750000D03*
X153250000Y-126750000D03*
X164250000Y-104250000D03*
X154250000Y-126250000D03*
X135750000Y-119000000D03*
X162750000Y-123250000D03*
X157250000Y-131250000D03*
X156250000Y-136000000D03*
X155750000Y-117750000D03*
X136550000Y-103050000D03*
X138500000Y-133000000D03*
X136500000Y-105000000D03*
X137750000Y-131000000D03*
X156000000Y-116000000D03*
X156000000Y-114500000D03*
X156000000Y-113250000D03*
X162750000Y-101250000D03*
X152000000Y-101250000D03*
X138500000Y-101000000D03*
X147750000Y-114000000D03*
X147750000Y-127500000D03*
X148500000Y-115250000D03*
X148250000Y-128250000D03*
X149250000Y-116750000D03*
X147750000Y-129000000D03*
X149500000Y-117750000D03*
X148250000Y-129750000D03*
X157250000Y-130250000D03*
X158500000Y-116500000D03*
X157250000Y-129250000D03*
X158250000Y-115250000D03*
X157250000Y-128250000D03*
X158250000Y-114000000D03*
X151750000Y-123750000D03*
X156250000Y-118750000D03*
X165000000Y-126750000D03*
X137750000Y-140500000D03*
X165750000Y-125000000D03*
X138500000Y-141250000D03*
D21*
X171790000Y-147000000D02*
X171790000Y-141290000D01*
X171790000Y-141290000D02*
X171000000Y-140500000D01*
D22*
X172720000Y-104140000D02*
X172720000Y-103220000D01*
X162000000Y-109750000D02*
X161250000Y-110500000D01*
X162000000Y-105000000D02*
X162000000Y-109750000D01*
X165500000Y-101500000D02*
X162000000Y-105000000D01*
X171000000Y-101500000D02*
X165500000Y-101500000D01*
X172720000Y-103220000D02*
X171000000Y-101500000D01*
X170180000Y-124460000D02*
X170180000Y-124430000D01*
X170180000Y-124430000D02*
X168000000Y-122250000D01*
X154250000Y-125250000D02*
X152500000Y-125250000D01*
X151750000Y-118750000D02*
X154000000Y-118750000D01*
X150000000Y-120500000D02*
X151750000Y-118750000D01*
X150000000Y-124500000D02*
X150000000Y-120500000D01*
X150500000Y-125000000D02*
X150000000Y-124500000D01*
X152250000Y-125000000D02*
X150500000Y-125000000D01*
X152500000Y-125250000D02*
X152250000Y-125000000D01*
X128250000Y-131500000D02*
X130500000Y-131500000D01*
X128250000Y-131500000D02*
X128000000Y-131250000D01*
X129500000Y-136000000D02*
X129500000Y-132750000D01*
X129500000Y-132750000D02*
X128000000Y-131250000D01*
X152250000Y-137750000D02*
X146000000Y-137750000D01*
X152500000Y-137500000D02*
X152250000Y-137750000D01*
X152500000Y-132250000D02*
X152500000Y-137500000D01*
X128000000Y-120265000D02*
X126735000Y-120265000D01*
X126735000Y-120265000D02*
X125500000Y-121500000D01*
X125500000Y-121500000D02*
X125500000Y-139735000D01*
X125500000Y-139735000D02*
X128000000Y-142235000D01*
D23*
X145500000Y-124500000D02*
X144750000Y-125250000D01*
X133265000Y-142235000D02*
X128000000Y-142235000D01*
X133500000Y-142000000D02*
X133265000Y-142235000D01*
X144250000Y-128000000D02*
X142750000Y-128000000D01*
X144750000Y-127500000D02*
X144250000Y-128000000D01*
X144750000Y-125250000D02*
X144750000Y-127500000D01*
D22*
X134750000Y-125500000D02*
X134750000Y-122500000D01*
X134250000Y-122000000D02*
X127000000Y-122000000D01*
X134750000Y-122500000D02*
X134250000Y-122000000D01*
X131000000Y-145000000D02*
X128750000Y-145000000D01*
X132500000Y-143500000D02*
X131000000Y-145000000D01*
X136500000Y-143500000D02*
X132500000Y-143500000D01*
X137000000Y-144000000D02*
X136500000Y-143500000D01*
X137000000Y-148000000D02*
X137000000Y-144000000D01*
X137750000Y-148750000D02*
X137000000Y-148000000D01*
X145500000Y-148750000D02*
X137750000Y-148750000D01*
X145750000Y-148500000D02*
X145500000Y-148750000D01*
X172720000Y-119380000D02*
X172720000Y-115470000D01*
X172720000Y-115470000D02*
X170180000Y-112930000D01*
X142750000Y-129000000D02*
X142500000Y-129000000D01*
X141750000Y-123500000D02*
X143000000Y-122250000D01*
X141750000Y-128250000D02*
X141750000Y-123500000D01*
X142500000Y-129000000D02*
X141750000Y-128250000D01*
X142750000Y-130500000D02*
X142750000Y-129000000D01*
X143500000Y-131250000D02*
X142750000Y-130500000D01*
X145750000Y-131250000D02*
X143500000Y-131250000D01*
X137000000Y-136250000D02*
X140500000Y-136250000D01*
X134750000Y-134000000D02*
X137000000Y-136250000D01*
X134750000Y-125500000D02*
X134750000Y-134000000D01*
X155000000Y-136000000D02*
X155000000Y-133750000D01*
D23*
X156000000Y-123500000D02*
X156000000Y-127250000D01*
X155000000Y-133250000D02*
X155000000Y-133750000D01*
X155250000Y-133000000D02*
X155000000Y-133250000D01*
X155250000Y-128000000D02*
X155250000Y-133000000D01*
X156000000Y-127250000D02*
X155250000Y-128000000D01*
X156000000Y-123500000D02*
X156000000Y-121250000D01*
D22*
X166750000Y-120500000D02*
X165250000Y-119000000D01*
X166750000Y-127250000D02*
X166750000Y-120500000D01*
X166000000Y-128000000D02*
X166750000Y-127250000D01*
X166000000Y-138750000D02*
X166000000Y-128000000D01*
X165000000Y-139750000D02*
X166000000Y-138750000D01*
X154750000Y-139750000D02*
X165000000Y-139750000D01*
X151750000Y-142750000D02*
X154750000Y-139750000D01*
D23*
X172720000Y-119380000D02*
X172720000Y-119220000D01*
D22*
X172720000Y-119220000D02*
X171250000Y-117750000D01*
X171250000Y-117750000D02*
X166500000Y-117750000D01*
X166500000Y-117750000D02*
X165250000Y-119000000D01*
X170180000Y-111760000D02*
X170180000Y-112930000D01*
X125500000Y-105640000D02*
X127000000Y-104140000D01*
X125500000Y-118500000D02*
X125500000Y-105640000D01*
X125750000Y-118750000D02*
X125500000Y-118500000D01*
X143250000Y-136250000D02*
X141750000Y-136250000D01*
X144250000Y-135250000D02*
X143250000Y-136250000D01*
X147750000Y-135250000D02*
X144250000Y-135250000D01*
X141750000Y-136250000D02*
X140500000Y-136250000D01*
D24*
X166710000Y-147000000D02*
X166710000Y-141290000D01*
X166710000Y-141290000D02*
X171000000Y-137000000D01*
D22*
X153500000Y-145250000D02*
X156750000Y-142000000D01*
X153500000Y-147750000D02*
X153500000Y-145250000D01*
X151750000Y-149500000D02*
X153500000Y-147750000D01*
X137250000Y-149500000D02*
X151750000Y-149500000D01*
X136000000Y-148250000D02*
X137250000Y-149500000D01*
X136000000Y-144500000D02*
X136000000Y-148250000D01*
X161250000Y-104750000D02*
X165250000Y-100750000D01*
X171250000Y-100750000D02*
X173250000Y-102750000D01*
X165250000Y-100750000D02*
X171250000Y-100750000D01*
X171000000Y-137000000D02*
X171250000Y-137000000D01*
X171250000Y-137000000D02*
X174500000Y-133750000D01*
X161250000Y-107000000D02*
X158750000Y-109500000D01*
X161250000Y-104750000D02*
X161250000Y-107000000D01*
X174500000Y-104000000D02*
X173250000Y-102750000D01*
X174500000Y-104250000D02*
X174500000Y-104000000D01*
X174500000Y-110000000D02*
X174500000Y-104250000D01*
X174500000Y-133750000D02*
X174500000Y-110000000D01*
X152500000Y-112000000D02*
X152750000Y-111750000D01*
X145250000Y-112000000D02*
X152500000Y-112000000D01*
X143750000Y-110500000D02*
X145250000Y-112000000D01*
D24*
X170180000Y-132080000D02*
X170180000Y-136180000D01*
X170180000Y-136180000D02*
X171000000Y-137000000D01*
D23*
X151500000Y-128250000D02*
X151500000Y-136750000D01*
X150750000Y-127500000D02*
X151500000Y-128250000D01*
X154000000Y-122250000D02*
X154000000Y-119750000D01*
X153500000Y-122750000D02*
X154000000Y-122250000D01*
X151750000Y-122750000D02*
X153500000Y-122750000D01*
X150750000Y-123750000D02*
X151750000Y-122750000D01*
X135500000Y-129750000D02*
X135500000Y-121750000D01*
X135500000Y-121750000D02*
X135000000Y-121250000D01*
X135500000Y-133750000D02*
X137000000Y-135250000D01*
X148750000Y-134250000D02*
X148750000Y-135250000D01*
X148250000Y-133750000D02*
X148750000Y-134250000D01*
X144250000Y-133750000D02*
X148250000Y-133750000D01*
X142750000Y-135250000D02*
X144250000Y-133750000D01*
X137000000Y-135250000D02*
X142750000Y-135250000D01*
X131250000Y-121250000D02*
X135000000Y-121250000D01*
X135500000Y-133750000D02*
X135500000Y-129750000D01*
X136000000Y-130000000D02*
X136000000Y-121250000D01*
X136000000Y-121250000D02*
X135500000Y-120750000D01*
X131250000Y-119000000D02*
X133000000Y-120750000D01*
X133000000Y-120750000D02*
X135500000Y-120750000D01*
X136000000Y-130000000D02*
X136000000Y-133500000D01*
X150000000Y-132250000D02*
X150000000Y-130250000D01*
X149000000Y-133250000D02*
X150000000Y-132250000D01*
X144000000Y-133250000D02*
X149000000Y-133250000D01*
X142500000Y-134750000D02*
X144000000Y-133250000D01*
X137250000Y-134750000D02*
X142500000Y-134750000D01*
X136000000Y-133500000D02*
X137250000Y-134750000D01*
X152000000Y-131000000D02*
X152250000Y-131250000D01*
X152000000Y-126000000D02*
X152000000Y-131000000D01*
X151750000Y-125750000D02*
X152000000Y-126000000D01*
X159000000Y-131750000D02*
X159000000Y-127000000D01*
X158750000Y-132000000D02*
X159000000Y-131750000D01*
X158500000Y-132250000D02*
X158750000Y-132000000D01*
X157250000Y-132250000D02*
X158500000Y-132250000D01*
X158750000Y-126750000D02*
X159000000Y-127000000D01*
X158750000Y-118250000D02*
X158750000Y-126750000D01*
X159000000Y-118000000D02*
X158750000Y-118250000D01*
X161250000Y-118000000D02*
X159000000Y-118000000D01*
X161500000Y-117750000D02*
X161250000Y-118000000D01*
X162250000Y-128250000D02*
X161750000Y-128750000D01*
X162250000Y-124500000D02*
X162250000Y-128250000D01*
X160500000Y-122750000D02*
X162250000Y-124500000D01*
X162750000Y-130500000D02*
X162250000Y-131000000D01*
X162750000Y-124250000D02*
X162750000Y-130500000D01*
X161750000Y-123250000D02*
X162750000Y-124250000D01*
X161750000Y-122500000D02*
X161750000Y-123250000D01*
X161250000Y-122000000D02*
X161750000Y-122500000D01*
X136500000Y-130250000D02*
X136500000Y-115750000D01*
X136500000Y-115750000D02*
X135750000Y-115000000D01*
X137500000Y-134250000D02*
X142250000Y-134250000D01*
X144000000Y-132500000D02*
X146750000Y-132500000D01*
X146750000Y-132500000D02*
X147000000Y-132750000D01*
X147000000Y-132750000D02*
X148500000Y-132750000D01*
X148500000Y-132750000D02*
X148750000Y-132500000D01*
X142250000Y-134250000D02*
X144000000Y-132500000D01*
X136500000Y-133250000D02*
X137500000Y-134250000D01*
X136500000Y-130250000D02*
X136500000Y-133250000D01*
X137000000Y-130500000D02*
X137000000Y-109500000D01*
X137000000Y-109500000D02*
X136500000Y-109000000D01*
X147750000Y-132000000D02*
X143750000Y-132000000D01*
X143750000Y-132000000D02*
X142000000Y-133750000D01*
X137000000Y-130500000D02*
X137000000Y-133000000D01*
X137000000Y-133000000D02*
X137750000Y-133750000D01*
X137750000Y-133750000D02*
X142000000Y-133750000D01*
X135750000Y-109000000D02*
X136500000Y-109000000D01*
X144500000Y-115250000D02*
X146250000Y-117000000D01*
X146250000Y-117000000D02*
X146250000Y-125250000D01*
X146250000Y-125250000D02*
X146000000Y-125500000D01*
X147500000Y-131250000D02*
X146500000Y-130250000D01*
X145500000Y-114000000D02*
X144500000Y-114000000D01*
X146750000Y-115250000D02*
X145500000Y-114000000D01*
X146750000Y-126750000D02*
X146750000Y-115250000D01*
X146500000Y-127000000D02*
X146750000Y-126750000D01*
X146500000Y-130250000D02*
X146500000Y-127000000D01*
X148250000Y-131250000D02*
X147500000Y-131250000D01*
X147750000Y-130500000D02*
X147000000Y-129750000D01*
X147000000Y-129750000D02*
X147000000Y-127250000D01*
X147000000Y-127250000D02*
X147250000Y-127000000D01*
X147250000Y-127000000D02*
X147250000Y-115000000D01*
X147250000Y-115000000D02*
X145000000Y-112750000D01*
X145000000Y-112750000D02*
X144500000Y-112750000D01*
X164750000Y-110500000D02*
X163750000Y-110500000D01*
X163500000Y-121750000D02*
X164250000Y-122500000D01*
X163500000Y-110750000D02*
X163500000Y-121750000D01*
X163750000Y-110500000D02*
X163500000Y-110750000D01*
X154000000Y-138000000D02*
X164000000Y-138000000D01*
X164250000Y-137750000D02*
X164250000Y-137250000D01*
X164000000Y-138000000D02*
X164250000Y-137750000D01*
X153500000Y-127000000D02*
X153250000Y-126750000D01*
X153500000Y-137500000D02*
X153500000Y-127000000D01*
X154000000Y-138000000D02*
X153500000Y-137500000D01*
X164250000Y-123500000D02*
X164250000Y-137250000D01*
X172720000Y-111720000D02*
X171500000Y-110500000D01*
X171500000Y-110500000D02*
X164750000Y-110500000D01*
X164250000Y-122500000D02*
X164250000Y-123500000D01*
X172720000Y-111760000D02*
X172720000Y-111720000D01*
X163750000Y-122750000D02*
X163000000Y-122000000D01*
X163000000Y-105500000D02*
X163750000Y-104750000D01*
X163000000Y-122000000D02*
X163000000Y-105500000D01*
X163750000Y-136750000D02*
X163750000Y-137250000D01*
X163500000Y-137500000D02*
X154250000Y-137500000D01*
X163750000Y-137250000D02*
X163500000Y-137500000D01*
X154000000Y-133500000D02*
X154000000Y-126500000D01*
X163750000Y-122750000D02*
X163750000Y-123500000D01*
X164250000Y-104250000D02*
X163750000Y-104750000D01*
X163750000Y-136750000D02*
X163750000Y-123500000D01*
X154000000Y-137250000D02*
X154250000Y-137500000D01*
X154000000Y-133500000D02*
X154000000Y-137250000D01*
X154000000Y-126500000D02*
X154250000Y-126250000D01*
X131000000Y-117750000D02*
X126250000Y-117750000D01*
X127750000Y-113500000D02*
X128250000Y-113000000D01*
X126250000Y-113500000D02*
X127750000Y-113500000D01*
X126000000Y-113750000D02*
X126250000Y-113500000D01*
X126000000Y-117500000D02*
X126000000Y-113750000D01*
X126250000Y-117750000D02*
X126000000Y-117500000D01*
X133500000Y-119000000D02*
X132250000Y-119000000D01*
X132250000Y-119000000D02*
X131000000Y-117750000D01*
X127000000Y-106680000D02*
X127180000Y-106680000D01*
X127180000Y-106680000D02*
X128250000Y-107750000D01*
X128250000Y-107750000D02*
X128250000Y-113000000D01*
X133500000Y-119000000D02*
X135750000Y-119000000D01*
X162750000Y-123250000D02*
X163250000Y-123750000D01*
X163250000Y-123750000D02*
X163250000Y-136750000D01*
X156250000Y-135000000D02*
X158250000Y-137000000D01*
X158250000Y-137000000D02*
X163000000Y-137000000D01*
X163000000Y-137000000D02*
X163250000Y-136750000D01*
X157250000Y-131250000D02*
X156750000Y-131750000D01*
X156750000Y-131750000D02*
X156250000Y-132250000D01*
X156250000Y-132250000D02*
X156250000Y-135000000D01*
X156250000Y-127750000D02*
X155750000Y-128250000D01*
X155750000Y-135500000D02*
X156250000Y-136000000D01*
X155750000Y-128250000D02*
X155750000Y-135500000D01*
X156750000Y-127250000D02*
X156250000Y-127750000D01*
X156750000Y-120250000D02*
X156750000Y-127250000D01*
X155500000Y-119000000D02*
X156750000Y-120250000D01*
X155500000Y-118000000D02*
X155500000Y-119000000D01*
X155750000Y-117750000D02*
X155500000Y-118000000D01*
X138500000Y-130500000D02*
X138500000Y-130250000D01*
X138000000Y-103500000D02*
X137500000Y-103000000D01*
X138000000Y-129750000D02*
X138000000Y-103500000D01*
X138500000Y-130250000D02*
X138000000Y-129750000D01*
X138500000Y-130500000D02*
X138500000Y-133000000D01*
X136550000Y-103050000D02*
X136600000Y-103000000D01*
X136600000Y-103000000D02*
X137500000Y-103000000D01*
X137750000Y-131000000D02*
X137500000Y-130750000D01*
X137500000Y-105500000D02*
X137000000Y-105000000D01*
X137500000Y-130750000D02*
X137500000Y-105500000D01*
X136500000Y-105000000D02*
X137000000Y-105000000D01*
X156000000Y-116000000D02*
X156000000Y-115500000D01*
X156000000Y-115500000D02*
X157250000Y-114250000D01*
X156250000Y-110500000D02*
X160500000Y-106250000D01*
X156250000Y-111750000D02*
X156250000Y-110500000D01*
X157250000Y-112750000D02*
X156250000Y-111750000D01*
X157250000Y-114250000D02*
X157250000Y-112750000D01*
X160500000Y-104750000D02*
X159000000Y-103250000D01*
X160500000Y-106250000D02*
X160500000Y-104750000D01*
X155750000Y-109040000D02*
X159000000Y-105790000D01*
X155750000Y-112000000D02*
X155750000Y-109040000D01*
X156750000Y-113000000D02*
X155750000Y-112000000D01*
X156750000Y-113750000D02*
X156750000Y-113000000D01*
X156000000Y-114500000D02*
X156750000Y-113750000D01*
X155250000Y-104460000D02*
X156460000Y-103250000D01*
X155250000Y-112500000D02*
X155250000Y-104460000D01*
X156000000Y-113250000D02*
X155250000Y-112500000D01*
X162750000Y-101250000D02*
X154500000Y-101250000D01*
X153920000Y-101830000D02*
X153920000Y-103250000D01*
X154500000Y-101250000D02*
X153920000Y-101830000D01*
X152750000Y-104620000D02*
X153920000Y-105790000D01*
X152750000Y-102000000D02*
X152750000Y-104620000D01*
X152000000Y-101250000D02*
X152750000Y-102000000D01*
X144250000Y-101000000D02*
X146300000Y-103050000D01*
X138500000Y-101000000D02*
X144250000Y-101000000D01*
X146300000Y-103050000D02*
X146300000Y-103250000D01*
X147750000Y-123000000D02*
X147750000Y-114000000D01*
X147750000Y-127500000D02*
X147750000Y-123000000D01*
X148250000Y-115500000D02*
X148250000Y-126500000D01*
X148500000Y-115250000D02*
X148250000Y-115500000D01*
X148500000Y-126750000D02*
X148250000Y-126500000D01*
X148500000Y-128000000D02*
X148500000Y-126750000D01*
X148250000Y-128250000D02*
X148500000Y-128000000D01*
X148750000Y-117250000D02*
X148750000Y-126250000D01*
X149250000Y-116750000D02*
X148750000Y-117250000D01*
X149000000Y-126500000D02*
X148750000Y-126250000D01*
X149000000Y-128500000D02*
X149000000Y-126500000D01*
X148500000Y-129000000D02*
X149000000Y-128500000D01*
X147750000Y-129000000D02*
X148500000Y-129000000D01*
X149250000Y-118000000D02*
X149500000Y-117750000D01*
X149250000Y-126000000D02*
X149250000Y-118000000D01*
X149500000Y-126250000D02*
X149250000Y-126000000D01*
X149500000Y-129000000D02*
X149500000Y-126250000D01*
X148750000Y-129750000D02*
X149500000Y-129000000D01*
X148250000Y-129750000D02*
X148750000Y-129750000D01*
X158500000Y-129000000D02*
X157250000Y-130250000D01*
X158500000Y-127250000D02*
X158500000Y-129000000D01*
X158250000Y-127000000D02*
X158500000Y-127250000D01*
X158250000Y-116750000D02*
X158250000Y-127000000D01*
X158500000Y-116500000D02*
X158250000Y-116750000D01*
X158000000Y-128500000D02*
X158000000Y-127500000D01*
X157250000Y-129250000D02*
X158000000Y-128500000D01*
X158000000Y-127500000D02*
X157750000Y-127250000D01*
X157750000Y-115750000D02*
X157750000Y-127250000D01*
X158250000Y-115250000D02*
X157750000Y-115750000D01*
X157250000Y-115500000D02*
X157250000Y-115000000D01*
X157250000Y-115000000D02*
X158250000Y-114000000D01*
X157250000Y-128250000D02*
X157250000Y-115500000D01*
X151750000Y-123750000D02*
X154500000Y-123750000D01*
X155500000Y-116750000D02*
X155250000Y-116750000D01*
X155500000Y-116750000D02*
X156250000Y-116750000D01*
X156250000Y-116750000D02*
X156750000Y-117250000D01*
X156750000Y-117250000D02*
X156750000Y-118250000D01*
X156750000Y-118250000D02*
X156250000Y-118750000D01*
X155250000Y-116750000D02*
X154750000Y-117250000D01*
X154750000Y-117250000D02*
X154750000Y-123500000D01*
X154750000Y-123500000D02*
X154500000Y-123750000D01*
X164750000Y-127000000D02*
X165000000Y-126750000D01*
X164750000Y-138000000D02*
X164750000Y-127000000D01*
X164250000Y-138500000D02*
X164750000Y-138000000D01*
X146750000Y-138500000D02*
X164250000Y-138500000D01*
X145000000Y-140250000D02*
X146750000Y-138500000D01*
X138000000Y-140250000D02*
X145000000Y-140250000D01*
X137750000Y-140500000D02*
X138000000Y-140250000D01*
X165750000Y-127250000D02*
X165750000Y-125000000D01*
X165250000Y-127750000D02*
X165750000Y-127250000D01*
X165250000Y-138250000D02*
X165250000Y-127750000D01*
X164500000Y-139000000D02*
X165250000Y-138250000D01*
X147000000Y-139000000D02*
X164500000Y-139000000D01*
X145250000Y-140750000D02*
X147000000Y-139000000D01*
X139000000Y-140750000D02*
X145250000Y-140750000D01*
X138500000Y-141250000D02*
X139000000Y-140750000D01*
D25*
G36*
X159052560Y-146750000D02*
X159096838Y-146985317D01*
X159235910Y-147201441D01*
X159448110Y-147346431D01*
X159700000Y-147397440D01*
X163200000Y-147397440D01*
X163435317Y-147353162D01*
X163651441Y-147214090D01*
X163796431Y-147001890D01*
X163847440Y-146750000D01*
X163847440Y-144127000D01*
X164373000Y-144127000D01*
X164373000Y-146335902D01*
X164297420Y-146517919D01*
X164296583Y-147477870D01*
X164663166Y-148365069D01*
X165341361Y-149044449D01*
X165932714Y-149290000D01*
X153105512Y-149290000D01*
X154072757Y-148322756D01*
X154248343Y-148059973D01*
X154275766Y-147922103D01*
X154310000Y-147750000D01*
X154310000Y-145585512D01*
X155498072Y-144397440D01*
X158500000Y-144397440D01*
X158735317Y-144353162D01*
X158951441Y-144214090D01*
X159010947Y-144127000D01*
X159052560Y-144127000D01*
X159052560Y-146750000D01*
X159052560Y-146750000D01*
G37*
X159052560Y-146750000D02*
X159096838Y-146985317D01*
X159235910Y-147201441D01*
X159448110Y-147346431D01*
X159700000Y-147397440D01*
X163200000Y-147397440D01*
X163435317Y-147353162D01*
X163651441Y-147214090D01*
X163796431Y-147001890D01*
X163847440Y-146750000D01*
X163847440Y-144127000D01*
X164373000Y-144127000D01*
X164373000Y-146335902D01*
X164297420Y-146517919D01*
X164296583Y-147477870D01*
X164663166Y-148365069D01*
X165341361Y-149044449D01*
X165932714Y-149290000D01*
X153105512Y-149290000D01*
X154072757Y-148322756D01*
X154248343Y-148059973D01*
X154275766Y-147922103D01*
X154310000Y-147750000D01*
X154310000Y-145585512D01*
X155498072Y-144397440D01*
X158500000Y-144397440D01*
X158735317Y-144353162D01*
X158951441Y-144214090D01*
X159010947Y-144127000D01*
X159052560Y-144127000D01*
X159052560Y-146750000D01*
G36*
X174290000Y-144930069D02*
X173950592Y-146636390D01*
X173023654Y-148023651D01*
X171636390Y-148950592D01*
X169930069Y-149290000D01*
X167486562Y-149290000D01*
X168075069Y-149046834D01*
X168754449Y-148368639D01*
X169122580Y-147482081D01*
X169122763Y-147272520D01*
X169127000Y-147250000D01*
X169127000Y-141507745D01*
X170171861Y-141507745D01*
X170245995Y-141753864D01*
X170783223Y-141946965D01*
X171353454Y-141919778D01*
X171754005Y-141753864D01*
X171828139Y-141507745D01*
X171000000Y-140679605D01*
X170171861Y-141507745D01*
X169127000Y-141507745D01*
X169127000Y-140478132D01*
X169682727Y-139922405D01*
X169553035Y-140283223D01*
X169580222Y-140853454D01*
X169746136Y-141254005D01*
X169992255Y-141328139D01*
X170820395Y-140500000D01*
X171179605Y-140500000D01*
X172007745Y-141328139D01*
X172253864Y-141254005D01*
X172446965Y-140716777D01*
X172419778Y-140146546D01*
X172253864Y-139745995D01*
X172007745Y-139671861D01*
X171179605Y-140500000D01*
X170820395Y-140500000D01*
X170806252Y-140485858D01*
X170985858Y-140306252D01*
X171000000Y-140320395D01*
X171828139Y-139492255D01*
X171754005Y-139246136D01*
X171216777Y-139053035D01*
X170646546Y-139080222D01*
X170438900Y-139166232D01*
X171157692Y-138447440D01*
X171800000Y-138447440D01*
X172035317Y-138403162D01*
X172251441Y-138264090D01*
X172396431Y-138051890D01*
X172447440Y-137800000D01*
X172447440Y-136948072D01*
X174290000Y-135105513D01*
X174290000Y-144930069D01*
X174290000Y-144930069D01*
G37*
X174290000Y-144930069D02*
X173950592Y-146636390D01*
X173023654Y-148023651D01*
X171636390Y-148950592D01*
X169930069Y-149290000D01*
X167486562Y-149290000D01*
X168075069Y-149046834D01*
X168754449Y-148368639D01*
X169122580Y-147482081D01*
X169122763Y-147272520D01*
X169127000Y-147250000D01*
X169127000Y-141507745D01*
X170171861Y-141507745D01*
X170245995Y-141753864D01*
X170783223Y-141946965D01*
X171353454Y-141919778D01*
X171754005Y-141753864D01*
X171828139Y-141507745D01*
X171000000Y-140679605D01*
X170171861Y-141507745D01*
X169127000Y-141507745D01*
X169127000Y-140478132D01*
X169682727Y-139922405D01*
X169553035Y-140283223D01*
X169580222Y-140853454D01*
X169746136Y-141254005D01*
X169992255Y-141328139D01*
X170820395Y-140500000D01*
X171179605Y-140500000D01*
X172007745Y-141328139D01*
X172253864Y-141254005D01*
X172446965Y-140716777D01*
X172419778Y-140146546D01*
X172253864Y-139745995D01*
X172007745Y-139671861D01*
X171179605Y-140500000D01*
X170820395Y-140500000D01*
X170806252Y-140485858D01*
X170985858Y-140306252D01*
X171000000Y-140320395D01*
X171828139Y-139492255D01*
X171754005Y-139246136D01*
X171216777Y-139053035D01*
X170646546Y-139080222D01*
X170438900Y-139166232D01*
X171157692Y-138447440D01*
X171800000Y-138447440D01*
X172035317Y-138403162D01*
X172251441Y-138264090D01*
X172396431Y-138051890D01*
X172447440Y-137800000D01*
X172447440Y-136948072D01*
X174290000Y-135105513D01*
X174290000Y-144930069D01*
G36*
X130664488Y-144190000D02*
X130195558Y-144190000D01*
X130153162Y-143964683D01*
X130014090Y-143748559D01*
X129801890Y-143603569D01*
X129550000Y-143552560D01*
X127950000Y-143552560D01*
X127714683Y-143596838D01*
X127498559Y-143735910D01*
X127353569Y-143948110D01*
X127302560Y-144200000D01*
X127302560Y-145800000D01*
X127346838Y-146035317D01*
X127485910Y-146251441D01*
X127698110Y-146396431D01*
X127936201Y-146444646D01*
X127921861Y-146492255D01*
X128750000Y-147320395D01*
X129578139Y-146492255D01*
X129563855Y-146444833D01*
X129785317Y-146403162D01*
X130001441Y-146264090D01*
X130146431Y-146051890D01*
X130195415Y-145810000D01*
X131000000Y-145810000D01*
X131309974Y-145748342D01*
X131572756Y-145572756D01*
X132835513Y-144310000D01*
X135022265Y-144310000D01*
X135021931Y-144693663D01*
X135170493Y-145053212D01*
X135190000Y-145072753D01*
X135190000Y-148250000D01*
X135251658Y-148559974D01*
X135342127Y-148695370D01*
X135427244Y-148822756D01*
X135894488Y-149290000D01*
X130069931Y-149290000D01*
X128363610Y-148950592D01*
X128154395Y-148810799D01*
X128533223Y-148946965D01*
X129103454Y-148919778D01*
X129504005Y-148753864D01*
X129578139Y-148507745D01*
X128750000Y-147679605D01*
X128735858Y-147693748D01*
X128556252Y-147514142D01*
X128570395Y-147500000D01*
X128929605Y-147500000D01*
X129757745Y-148328139D01*
X130003864Y-148254005D01*
X130196965Y-147716777D01*
X130169778Y-147146546D01*
X130003864Y-146745995D01*
X129757745Y-146671861D01*
X128929605Y-147500000D01*
X128570395Y-147500000D01*
X127742255Y-146671861D01*
X127496136Y-146745995D01*
X127303035Y-147283223D01*
X127330222Y-147853454D01*
X127496136Y-148254005D01*
X127742253Y-148328139D01*
X127627378Y-148443014D01*
X127674523Y-148490159D01*
X126976349Y-148023654D01*
X126049408Y-146636390D01*
X125710000Y-144930069D01*
X125710000Y-143517440D01*
X130540000Y-143517440D01*
X130775317Y-143473162D01*
X130991441Y-143334090D01*
X131136431Y-143121890D01*
X131162127Y-142995000D01*
X131859487Y-142995000D01*
X130664488Y-144190000D01*
X130664488Y-144190000D01*
G37*
X130664488Y-144190000D02*
X130195558Y-144190000D01*
X130153162Y-143964683D01*
X130014090Y-143748559D01*
X129801890Y-143603569D01*
X129550000Y-143552560D01*
X127950000Y-143552560D01*
X127714683Y-143596838D01*
X127498559Y-143735910D01*
X127353569Y-143948110D01*
X127302560Y-144200000D01*
X127302560Y-145800000D01*
X127346838Y-146035317D01*
X127485910Y-146251441D01*
X127698110Y-146396431D01*
X127936201Y-146444646D01*
X127921861Y-146492255D01*
X128750000Y-147320395D01*
X129578139Y-146492255D01*
X129563855Y-146444833D01*
X129785317Y-146403162D01*
X130001441Y-146264090D01*
X130146431Y-146051890D01*
X130195415Y-145810000D01*
X131000000Y-145810000D01*
X131309974Y-145748342D01*
X131572756Y-145572756D01*
X132835513Y-144310000D01*
X135022265Y-144310000D01*
X135021931Y-144693663D01*
X135170493Y-145053212D01*
X135190000Y-145072753D01*
X135190000Y-148250000D01*
X135251658Y-148559974D01*
X135342127Y-148695370D01*
X135427244Y-148822756D01*
X135894488Y-149290000D01*
X130069931Y-149290000D01*
X128363610Y-148950592D01*
X128154395Y-148810799D01*
X128533223Y-148946965D01*
X129103454Y-148919778D01*
X129504005Y-148753864D01*
X129578139Y-148507745D01*
X128750000Y-147679605D01*
X128735858Y-147693748D01*
X128556252Y-147514142D01*
X128570395Y-147500000D01*
X128929605Y-147500000D01*
X129757745Y-148328139D01*
X130003864Y-148254005D01*
X130196965Y-147716777D01*
X130169778Y-147146546D01*
X130003864Y-146745995D01*
X129757745Y-146671861D01*
X128929605Y-147500000D01*
X128570395Y-147500000D01*
X127742255Y-146671861D01*
X127496136Y-146745995D01*
X127303035Y-147283223D01*
X127330222Y-147853454D01*
X127496136Y-148254005D01*
X127742253Y-148328139D01*
X127627378Y-148443014D01*
X127674523Y-148490159D01*
X126976349Y-148023654D01*
X126049408Y-146636390D01*
X125710000Y-144930069D01*
X125710000Y-143517440D01*
X130540000Y-143517440D01*
X130775317Y-143473162D01*
X130991441Y-143334090D01*
X131136431Y-143121890D01*
X131162127Y-142995000D01*
X131859487Y-142995000D01*
X130664488Y-144190000D01*
G36*
X126445341Y-122828540D02*
X126804630Y-122977730D01*
X127193663Y-122978069D01*
X127553212Y-122829507D01*
X127572753Y-122810000D01*
X133914488Y-122810000D01*
X133940000Y-122835513D01*
X133940000Y-134000000D01*
X134001658Y-134309974D01*
X134075505Y-134420493D01*
X134177244Y-134572756D01*
X136427244Y-136822757D01*
X136690027Y-136998343D01*
X137000000Y-137060000D01*
X137316971Y-137060000D01*
X137088039Y-137402622D01*
X136975000Y-137970907D01*
X136975000Y-138029093D01*
X137088039Y-138597378D01*
X137409946Y-139079147D01*
X137891715Y-139401054D01*
X138338876Y-139490000D01*
X138000000Y-139490000D01*
X137838238Y-139522177D01*
X137556337Y-139521931D01*
X137196788Y-139670493D01*
X136921460Y-139945341D01*
X136772270Y-140304630D01*
X136771931Y-140693663D01*
X136920493Y-141053212D01*
X137195341Y-141328540D01*
X137532150Y-141468396D01*
X137670493Y-141803212D01*
X137945341Y-142078540D01*
X138304630Y-142227730D01*
X138693663Y-142228069D01*
X139053212Y-142079507D01*
X139328540Y-141804659D01*
X139450893Y-141510000D01*
X145250000Y-141510000D01*
X145540839Y-141452148D01*
X145787401Y-141287401D01*
X147314802Y-139760000D01*
X153594487Y-139760000D01*
X151582534Y-141771954D01*
X151556337Y-141771931D01*
X151196788Y-141920493D01*
X150921460Y-142195341D01*
X150772270Y-142554630D01*
X150771931Y-142943663D01*
X150920493Y-143303212D01*
X151195341Y-143578540D01*
X151554630Y-143727730D01*
X151943663Y-143728069D01*
X152303212Y-143579507D01*
X152578540Y-143304659D01*
X152727730Y-142945370D01*
X152727754Y-142917758D01*
X154352560Y-141292953D01*
X154352560Y-143251928D01*
X152927244Y-144677244D01*
X152751658Y-144940026D01*
X152690000Y-145250000D01*
X152690000Y-147414487D01*
X151414488Y-148690000D01*
X146727735Y-148690000D01*
X146728069Y-148306337D01*
X146579507Y-147946788D01*
X146304659Y-147671460D01*
X145945370Y-147522270D01*
X145556337Y-147521931D01*
X145196788Y-147670493D01*
X144926810Y-147940000D01*
X138085513Y-147940000D01*
X137810000Y-147664488D01*
X137810000Y-144000000D01*
X137772201Y-143809973D01*
X137748343Y-143690027D01*
X137572757Y-143427244D01*
X137072756Y-142927244D01*
X136809974Y-142751658D01*
X136500000Y-142690000D01*
X134192963Y-142690000D01*
X134328540Y-142554659D01*
X134477730Y-142195370D01*
X134478069Y-141806337D01*
X134329507Y-141446788D01*
X134054659Y-141171460D01*
X133695370Y-141022270D01*
X133306337Y-141021931D01*
X132946788Y-141170493D01*
X132671460Y-141445341D01*
X132659144Y-141475000D01*
X131163920Y-141475000D01*
X131143162Y-141364683D01*
X131004090Y-141148559D01*
X130791890Y-141003569D01*
X130540000Y-140952560D01*
X127863073Y-140952560D01*
X126310000Y-139399488D01*
X126310000Y-133865000D01*
X127714250Y-133865000D01*
X127873000Y-133706250D01*
X127873000Y-131377000D01*
X128127000Y-131377000D01*
X128127000Y-133706250D01*
X128285750Y-133865000D01*
X130106310Y-133865000D01*
X130339699Y-133768327D01*
X130518327Y-133589698D01*
X130615000Y-133356309D01*
X130615000Y-131535750D01*
X130456250Y-131377000D01*
X128127000Y-131377000D01*
X127873000Y-131377000D01*
X127853000Y-131377000D01*
X127853000Y-131123000D01*
X127873000Y-131123000D01*
X127873000Y-128793750D01*
X128127000Y-128793750D01*
X128127000Y-131123000D01*
X130456250Y-131123000D01*
X130615000Y-130964250D01*
X130615000Y-129143691D01*
X130518327Y-128910302D01*
X130339699Y-128731673D01*
X130106310Y-128635000D01*
X128285750Y-128635000D01*
X128127000Y-128793750D01*
X127873000Y-128793750D01*
X127714250Y-128635000D01*
X126310000Y-128635000D01*
X126310000Y-122692963D01*
X126445341Y-122828540D01*
X126445341Y-122828540D01*
G37*
X126445341Y-122828540D02*
X126804630Y-122977730D01*
X127193663Y-122978069D01*
X127553212Y-122829507D01*
X127572753Y-122810000D01*
X133914488Y-122810000D01*
X133940000Y-122835513D01*
X133940000Y-134000000D01*
X134001658Y-134309974D01*
X134075505Y-134420493D01*
X134177244Y-134572756D01*
X136427244Y-136822757D01*
X136690027Y-136998343D01*
X137000000Y-137060000D01*
X137316971Y-137060000D01*
X137088039Y-137402622D01*
X136975000Y-137970907D01*
X136975000Y-138029093D01*
X137088039Y-138597378D01*
X137409946Y-139079147D01*
X137891715Y-139401054D01*
X138338876Y-139490000D01*
X138000000Y-139490000D01*
X137838238Y-139522177D01*
X137556337Y-139521931D01*
X137196788Y-139670493D01*
X136921460Y-139945341D01*
X136772270Y-140304630D01*
X136771931Y-140693663D01*
X136920493Y-141053212D01*
X137195341Y-141328540D01*
X137532150Y-141468396D01*
X137670493Y-141803212D01*
X137945341Y-142078540D01*
X138304630Y-142227730D01*
X138693663Y-142228069D01*
X139053212Y-142079507D01*
X139328540Y-141804659D01*
X139450893Y-141510000D01*
X145250000Y-141510000D01*
X145540839Y-141452148D01*
X145787401Y-141287401D01*
X147314802Y-139760000D01*
X153594487Y-139760000D01*
X151582534Y-141771954D01*
X151556337Y-141771931D01*
X151196788Y-141920493D01*
X150921460Y-142195341D01*
X150772270Y-142554630D01*
X150771931Y-142943663D01*
X150920493Y-143303212D01*
X151195341Y-143578540D01*
X151554630Y-143727730D01*
X151943663Y-143728069D01*
X152303212Y-143579507D01*
X152578540Y-143304659D01*
X152727730Y-142945370D01*
X152727754Y-142917758D01*
X154352560Y-141292953D01*
X154352560Y-143251928D01*
X152927244Y-144677244D01*
X152751658Y-144940026D01*
X152690000Y-145250000D01*
X152690000Y-147414487D01*
X151414488Y-148690000D01*
X146727735Y-148690000D01*
X146728069Y-148306337D01*
X146579507Y-147946788D01*
X146304659Y-147671460D01*
X145945370Y-147522270D01*
X145556337Y-147521931D01*
X145196788Y-147670493D01*
X144926810Y-147940000D01*
X138085513Y-147940000D01*
X137810000Y-147664488D01*
X137810000Y-144000000D01*
X137772201Y-143809973D01*
X137748343Y-143690027D01*
X137572757Y-143427244D01*
X137072756Y-142927244D01*
X136809974Y-142751658D01*
X136500000Y-142690000D01*
X134192963Y-142690000D01*
X134328540Y-142554659D01*
X134477730Y-142195370D01*
X134478069Y-141806337D01*
X134329507Y-141446788D01*
X134054659Y-141171460D01*
X133695370Y-141022270D01*
X133306337Y-141021931D01*
X132946788Y-141170493D01*
X132671460Y-141445341D01*
X132659144Y-141475000D01*
X131163920Y-141475000D01*
X131143162Y-141364683D01*
X131004090Y-141148559D01*
X130791890Y-141003569D01*
X130540000Y-140952560D01*
X127863073Y-140952560D01*
X126310000Y-139399488D01*
X126310000Y-133865000D01*
X127714250Y-133865000D01*
X127873000Y-133706250D01*
X127873000Y-131377000D01*
X128127000Y-131377000D01*
X128127000Y-133706250D01*
X128285750Y-133865000D01*
X130106310Y-133865000D01*
X130339699Y-133768327D01*
X130518327Y-133589698D01*
X130615000Y-133356309D01*
X130615000Y-131535750D01*
X130456250Y-131377000D01*
X128127000Y-131377000D01*
X127873000Y-131377000D01*
X127853000Y-131377000D01*
X127853000Y-131123000D01*
X127873000Y-131123000D01*
X127873000Y-128793750D01*
X128127000Y-128793750D01*
X128127000Y-131123000D01*
X130456250Y-131123000D01*
X130615000Y-130964250D01*
X130615000Y-129143691D01*
X130518327Y-128910302D01*
X130339699Y-128731673D01*
X130106310Y-128635000D01*
X128285750Y-128635000D01*
X128127000Y-128793750D01*
X127873000Y-128793750D01*
X127714250Y-128635000D01*
X126310000Y-128635000D01*
X126310000Y-122692963D01*
X126445341Y-122828540D01*
G36*
X168682560Y-120230000D02*
X168726838Y-120465317D01*
X168865910Y-120681441D01*
X169078110Y-120826431D01*
X169145541Y-120840086D01*
X169100853Y-120869946D01*
X168778946Y-121351715D01*
X168665907Y-121920000D01*
X168778946Y-122488285D01*
X169100853Y-122970054D01*
X169441553Y-123197702D01*
X169298642Y-123264817D01*
X168908355Y-123693076D01*
X168738524Y-124103110D01*
X168859845Y-124333000D01*
X170053000Y-124333000D01*
X170053000Y-124313000D01*
X170307000Y-124313000D01*
X170307000Y-124333000D01*
X172593000Y-124333000D01*
X172593000Y-124313000D01*
X172847000Y-124313000D01*
X172847000Y-124333000D01*
X172867000Y-124333000D01*
X172867000Y-124587000D01*
X172847000Y-124587000D01*
X172847000Y-124607000D01*
X172593000Y-124607000D01*
X172593000Y-124587000D01*
X170307000Y-124587000D01*
X170307000Y-126873000D01*
X170327000Y-126873000D01*
X170327000Y-127127000D01*
X170307000Y-127127000D01*
X170307000Y-127147000D01*
X170053000Y-127147000D01*
X170053000Y-127127000D01*
X168853750Y-127127000D01*
X168695000Y-127285750D01*
X168695000Y-127976310D01*
X168791673Y-128209699D01*
X168970302Y-128388327D01*
X169144777Y-128460597D01*
X169100853Y-128489946D01*
X168778946Y-128971715D01*
X168665907Y-129540000D01*
X168778946Y-130108285D01*
X169100853Y-130590054D01*
X169430026Y-130810000D01*
X169100853Y-131029946D01*
X168778946Y-131511715D01*
X168665907Y-132080000D01*
X168778946Y-132648285D01*
X169045000Y-133046464D01*
X169045000Y-136180000D01*
X169131397Y-136614346D01*
X169270653Y-136822757D01*
X169377434Y-136982566D01*
X169394868Y-137000000D01*
X166521868Y-139873000D01*
X166022512Y-139873000D01*
X166572757Y-139322756D01*
X166748343Y-139059973D01*
X166810000Y-138750000D01*
X166810000Y-135442963D01*
X166945341Y-135578540D01*
X167304630Y-135727730D01*
X167693663Y-135728069D01*
X168053212Y-135579507D01*
X168328540Y-135304659D01*
X168477730Y-134945370D01*
X168478069Y-134556337D01*
X168329507Y-134196788D01*
X168054659Y-133921460D01*
X167695370Y-133772270D01*
X167306337Y-133771931D01*
X166946788Y-133920493D01*
X166810000Y-134057043D01*
X166810000Y-128335512D01*
X167322756Y-127822757D01*
X167485290Y-127579507D01*
X167498342Y-127559974D01*
X167560000Y-127250000D01*
X167560000Y-126023690D01*
X168695000Y-126023690D01*
X168695000Y-126714250D01*
X168853750Y-126873000D01*
X170053000Y-126873000D01*
X170053000Y-124587000D01*
X168859845Y-124587000D01*
X168738524Y-124816890D01*
X168908355Y-125226924D01*
X169179878Y-125524864D01*
X168970302Y-125611673D01*
X168791673Y-125790301D01*
X168695000Y-126023690D01*
X167560000Y-126023690D01*
X167560000Y-120500000D01*
X167498342Y-120190026D01*
X167391415Y-120029999D01*
X167322756Y-119927243D01*
X166395512Y-119000000D01*
X166835513Y-118560000D01*
X168682560Y-118560000D01*
X168682560Y-120230000D01*
X168682560Y-120230000D01*
G37*
X168682560Y-120230000D02*
X168726838Y-120465317D01*
X168865910Y-120681441D01*
X169078110Y-120826431D01*
X169145541Y-120840086D01*
X169100853Y-120869946D01*
X168778946Y-121351715D01*
X168665907Y-121920000D01*
X168778946Y-122488285D01*
X169100853Y-122970054D01*
X169441553Y-123197702D01*
X169298642Y-123264817D01*
X168908355Y-123693076D01*
X168738524Y-124103110D01*
X168859845Y-124333000D01*
X170053000Y-124333000D01*
X170053000Y-124313000D01*
X170307000Y-124313000D01*
X170307000Y-124333000D01*
X172593000Y-124333000D01*
X172593000Y-124313000D01*
X172847000Y-124313000D01*
X172847000Y-124333000D01*
X172867000Y-124333000D01*
X172867000Y-124587000D01*
X172847000Y-124587000D01*
X172847000Y-124607000D01*
X172593000Y-124607000D01*
X172593000Y-124587000D01*
X170307000Y-124587000D01*
X170307000Y-126873000D01*
X170327000Y-126873000D01*
X170327000Y-127127000D01*
X170307000Y-127127000D01*
X170307000Y-127147000D01*
X170053000Y-127147000D01*
X170053000Y-127127000D01*
X168853750Y-127127000D01*
X168695000Y-127285750D01*
X168695000Y-127976310D01*
X168791673Y-128209699D01*
X168970302Y-128388327D01*
X169144777Y-128460597D01*
X169100853Y-128489946D01*
X168778946Y-128971715D01*
X168665907Y-129540000D01*
X168778946Y-130108285D01*
X169100853Y-130590054D01*
X169430026Y-130810000D01*
X169100853Y-131029946D01*
X168778946Y-131511715D01*
X168665907Y-132080000D01*
X168778946Y-132648285D01*
X169045000Y-133046464D01*
X169045000Y-136180000D01*
X169131397Y-136614346D01*
X169270653Y-136822757D01*
X169377434Y-136982566D01*
X169394868Y-137000000D01*
X166521868Y-139873000D01*
X166022512Y-139873000D01*
X166572757Y-139322756D01*
X166748343Y-139059973D01*
X166810000Y-138750000D01*
X166810000Y-135442963D01*
X166945341Y-135578540D01*
X167304630Y-135727730D01*
X167693663Y-135728069D01*
X168053212Y-135579507D01*
X168328540Y-135304659D01*
X168477730Y-134945370D01*
X168478069Y-134556337D01*
X168329507Y-134196788D01*
X168054659Y-133921460D01*
X167695370Y-133772270D01*
X167306337Y-133771931D01*
X166946788Y-133920493D01*
X166810000Y-134057043D01*
X166810000Y-128335512D01*
X167322756Y-127822757D01*
X167485290Y-127579507D01*
X167498342Y-127559974D01*
X167560000Y-127250000D01*
X167560000Y-126023690D01*
X168695000Y-126023690D01*
X168695000Y-126714250D01*
X168853750Y-126873000D01*
X170053000Y-126873000D01*
X170053000Y-124587000D01*
X168859845Y-124587000D01*
X168738524Y-124816890D01*
X168908355Y-125226924D01*
X169179878Y-125524864D01*
X168970302Y-125611673D01*
X168791673Y-125790301D01*
X168695000Y-126023690D01*
X167560000Y-126023690D01*
X167560000Y-120500000D01*
X167498342Y-120190026D01*
X167391415Y-120029999D01*
X167322756Y-119927243D01*
X166395512Y-119000000D01*
X166835513Y-118560000D01*
X168682560Y-118560000D01*
X168682560Y-120230000D01*
G36*
X152740000Y-137500000D02*
X152787739Y-137740000D01*
X146750000Y-137740000D01*
X146459161Y-137797852D01*
X146212599Y-137962599D01*
X144685198Y-139490000D01*
X141889540Y-139490000D01*
X142085317Y-139453162D01*
X142301441Y-139314090D01*
X142446431Y-139101890D01*
X142497440Y-138850000D01*
X142497440Y-137150000D01*
X142480505Y-137060000D01*
X143250000Y-137060000D01*
X143559974Y-136998342D01*
X143822756Y-136822756D01*
X144585513Y-136060000D01*
X147176833Y-136060000D01*
X147195341Y-136078540D01*
X147554630Y-136227730D01*
X147943663Y-136228069D01*
X148250311Y-136101365D01*
X148554630Y-136227730D01*
X148943663Y-136228069D01*
X149303212Y-136079507D01*
X149578540Y-135804659D01*
X149727730Y-135445370D01*
X149728069Y-135056337D01*
X149579507Y-134696788D01*
X149510000Y-134627160D01*
X149510000Y-134250000D01*
X149452148Y-133959161D01*
X149399119Y-133879798D01*
X149537401Y-133787401D01*
X150537401Y-132787401D01*
X150702148Y-132540839D01*
X150740000Y-132350546D01*
X150740000Y-136126920D01*
X150671460Y-136195341D01*
X150522270Y-136554630D01*
X150521931Y-136943663D01*
X150670493Y-137303212D01*
X150945341Y-137578540D01*
X151304630Y-137727730D01*
X151693663Y-137728069D01*
X152053212Y-137579507D01*
X152328540Y-137304659D01*
X152477730Y-136945370D01*
X152478069Y-136556337D01*
X152329507Y-136196788D01*
X152260000Y-136127160D01*
X152260000Y-132227909D01*
X152443663Y-132228069D01*
X152740000Y-132105626D01*
X152740000Y-137500000D01*
X152740000Y-137500000D01*
G37*
X152740000Y-137500000D02*
X152787739Y-137740000D01*
X146750000Y-137740000D01*
X146459161Y-137797852D01*
X146212599Y-137962599D01*
X144685198Y-139490000D01*
X141889540Y-139490000D01*
X142085317Y-139453162D01*
X142301441Y-139314090D01*
X142446431Y-139101890D01*
X142497440Y-138850000D01*
X142497440Y-137150000D01*
X142480505Y-137060000D01*
X143250000Y-137060000D01*
X143559974Y-136998342D01*
X143822756Y-136822756D01*
X144585513Y-136060000D01*
X147176833Y-136060000D01*
X147195341Y-136078540D01*
X147554630Y-136227730D01*
X147943663Y-136228069D01*
X148250311Y-136101365D01*
X148554630Y-136227730D01*
X148943663Y-136228069D01*
X149303212Y-136079507D01*
X149578540Y-135804659D01*
X149727730Y-135445370D01*
X149728069Y-135056337D01*
X149579507Y-134696788D01*
X149510000Y-134627160D01*
X149510000Y-134250000D01*
X149452148Y-133959161D01*
X149399119Y-133879798D01*
X149537401Y-133787401D01*
X150537401Y-132787401D01*
X150702148Y-132540839D01*
X150740000Y-132350546D01*
X150740000Y-136126920D01*
X150671460Y-136195341D01*
X150522270Y-136554630D01*
X150521931Y-136943663D01*
X150670493Y-137303212D01*
X150945341Y-137578540D01*
X151304630Y-137727730D01*
X151693663Y-137728069D01*
X152053212Y-137579507D01*
X152328540Y-137304659D01*
X152477730Y-136945370D01*
X152478069Y-136556337D01*
X152329507Y-136196788D01*
X152260000Y-136127160D01*
X152260000Y-132227909D01*
X152443663Y-132228069D01*
X152740000Y-132105626D01*
X152740000Y-137500000D01*
G36*
X162240000Y-121915198D02*
X162227985Y-121903183D01*
X162228069Y-121806337D01*
X162079507Y-121446788D01*
X161804659Y-121171460D01*
X161445370Y-121022270D01*
X161056337Y-121021931D01*
X160696788Y-121170493D01*
X160421460Y-121445341D01*
X160281604Y-121782150D01*
X159946788Y-121920493D01*
X159671460Y-122195341D01*
X159522270Y-122554630D01*
X159521931Y-122943663D01*
X159670493Y-123303212D01*
X159945341Y-123578540D01*
X160304630Y-123727730D01*
X160403014Y-123727816D01*
X161490000Y-124814802D01*
X161490000Y-127799341D01*
X161196788Y-127920493D01*
X160921460Y-128195341D01*
X160772270Y-128554630D01*
X160771931Y-128943663D01*
X160920493Y-129303212D01*
X161195341Y-129578540D01*
X161554630Y-129727730D01*
X161943663Y-129728069D01*
X161990000Y-129708923D01*
X161990000Y-130049341D01*
X161696788Y-130170493D01*
X161421460Y-130445341D01*
X161272270Y-130804630D01*
X161271931Y-131193663D01*
X161420493Y-131553212D01*
X161695341Y-131828540D01*
X162054630Y-131977730D01*
X162443663Y-131978069D01*
X162490000Y-131958923D01*
X162490000Y-133894611D01*
X162195370Y-133772270D01*
X161806337Y-133771931D01*
X161446788Y-133920493D01*
X161171460Y-134195341D01*
X161022270Y-134554630D01*
X161021931Y-134943663D01*
X161170493Y-135303212D01*
X161445341Y-135578540D01*
X161804630Y-135727730D01*
X162193663Y-135728069D01*
X162490000Y-135605626D01*
X162490000Y-136240000D01*
X158564802Y-136240000D01*
X157010000Y-134685198D01*
X157010000Y-133209198D01*
X157054630Y-133227730D01*
X157443663Y-133228069D01*
X157803212Y-133079507D01*
X157872840Y-133010000D01*
X158500000Y-133010000D01*
X158790839Y-132952148D01*
X159037401Y-132787401D01*
X159537401Y-132287401D01*
X159702148Y-132040840D01*
X159760000Y-131750000D01*
X159760000Y-127000000D01*
X159712261Y-126760000D01*
X159702148Y-126709160D01*
X159537401Y-126462599D01*
X159510000Y-126435198D01*
X159510000Y-118760000D01*
X161250000Y-118760000D01*
X161411761Y-118727823D01*
X161693663Y-118728069D01*
X162053212Y-118579507D01*
X162240000Y-118393045D01*
X162240000Y-121915198D01*
X162240000Y-121915198D01*
G37*
X162240000Y-121915198D02*
X162227985Y-121903183D01*
X162228069Y-121806337D01*
X162079507Y-121446788D01*
X161804659Y-121171460D01*
X161445370Y-121022270D01*
X161056337Y-121021931D01*
X160696788Y-121170493D01*
X160421460Y-121445341D01*
X160281604Y-121782150D01*
X159946788Y-121920493D01*
X159671460Y-122195341D01*
X159522270Y-122554630D01*
X159521931Y-122943663D01*
X159670493Y-123303212D01*
X159945341Y-123578540D01*
X160304630Y-123727730D01*
X160403014Y-123727816D01*
X161490000Y-124814802D01*
X161490000Y-127799341D01*
X161196788Y-127920493D01*
X160921460Y-128195341D01*
X160772270Y-128554630D01*
X160771931Y-128943663D01*
X160920493Y-129303212D01*
X161195341Y-129578540D01*
X161554630Y-129727730D01*
X161943663Y-129728069D01*
X161990000Y-129708923D01*
X161990000Y-130049341D01*
X161696788Y-130170493D01*
X161421460Y-130445341D01*
X161272270Y-130804630D01*
X161271931Y-131193663D01*
X161420493Y-131553212D01*
X161695341Y-131828540D01*
X162054630Y-131977730D01*
X162443663Y-131978069D01*
X162490000Y-131958923D01*
X162490000Y-133894611D01*
X162195370Y-133772270D01*
X161806337Y-133771931D01*
X161446788Y-133920493D01*
X161171460Y-134195341D01*
X161022270Y-134554630D01*
X161021931Y-134943663D01*
X161170493Y-135303212D01*
X161445341Y-135578540D01*
X161804630Y-135727730D01*
X162193663Y-135728069D01*
X162490000Y-135605626D01*
X162490000Y-136240000D01*
X158564802Y-136240000D01*
X157010000Y-134685198D01*
X157010000Y-133209198D01*
X157054630Y-133227730D01*
X157443663Y-133228069D01*
X157803212Y-133079507D01*
X157872840Y-133010000D01*
X158500000Y-133010000D01*
X158790839Y-132952148D01*
X159037401Y-132787401D01*
X159537401Y-132287401D01*
X159702148Y-132040840D01*
X159760000Y-131750000D01*
X159760000Y-127000000D01*
X159712261Y-126760000D01*
X159702148Y-126709160D01*
X159537401Y-126462599D01*
X159510000Y-126435198D01*
X159510000Y-118760000D01*
X161250000Y-118760000D01*
X161411761Y-118727823D01*
X161693663Y-118728069D01*
X162053212Y-118579507D01*
X162240000Y-118393045D01*
X162240000Y-121915198D01*
G36*
X137522270Y-100804630D02*
X137521931Y-101193663D01*
X137670493Y-101553212D01*
X137945341Y-101828540D01*
X138304630Y-101977730D01*
X138693663Y-101978069D01*
X139053212Y-101829507D01*
X139122840Y-101760000D01*
X143935198Y-101760000D01*
X143940355Y-101765157D01*
X143465911Y-101764743D01*
X142919914Y-101990344D01*
X142501812Y-102407717D01*
X142490252Y-102435557D01*
X142479656Y-102409914D01*
X142062283Y-101991812D01*
X141516681Y-101765258D01*
X140925911Y-101764743D01*
X140379914Y-101990344D01*
X139961812Y-102407717D01*
X139735258Y-102953319D01*
X139734743Y-103544089D01*
X139960344Y-104090086D01*
X140377717Y-104508188D01*
X140425312Y-104527951D01*
X140355647Y-104746042D01*
X141220000Y-105610395D01*
X142084353Y-104746042D01*
X142014819Y-104528360D01*
X142060086Y-104509656D01*
X142478188Y-104092283D01*
X142489748Y-104064443D01*
X142500344Y-104090086D01*
X142917717Y-104508188D01*
X142945557Y-104519748D01*
X142919914Y-104530344D01*
X142501812Y-104947717D01*
X142482049Y-104995312D01*
X142263958Y-104925647D01*
X141399605Y-105790000D01*
X142263958Y-106654353D01*
X142481640Y-106584819D01*
X142500344Y-106630086D01*
X142917717Y-107048188D01*
X143463319Y-107274742D01*
X144054089Y-107275257D01*
X144600086Y-107049656D01*
X145018188Y-106632283D01*
X145029748Y-106604443D01*
X145040344Y-106630086D01*
X145457717Y-107048188D01*
X146003319Y-107274742D01*
X146594089Y-107275257D01*
X147140086Y-107049656D01*
X147558188Y-106632283D01*
X147569748Y-106604443D01*
X147580344Y-106630086D01*
X147997717Y-107048188D01*
X148543319Y-107274742D01*
X149134089Y-107275257D01*
X149680086Y-107049656D01*
X149896160Y-106833958D01*
X150515647Y-106833958D01*
X150595920Y-107085259D01*
X151151279Y-107286718D01*
X151741458Y-107260315D01*
X152164080Y-107085259D01*
X152244353Y-106833958D01*
X151380000Y-105969605D01*
X150515647Y-106833958D01*
X149896160Y-106833958D01*
X150098188Y-106632283D01*
X150117951Y-106584688D01*
X150336042Y-106654353D01*
X151200395Y-105790000D01*
X150336042Y-104925647D01*
X150118360Y-104995181D01*
X150099656Y-104949914D01*
X149682283Y-104531812D01*
X149654443Y-104520252D01*
X149680086Y-104509656D01*
X150098188Y-104092283D01*
X150109748Y-104064443D01*
X150120344Y-104090086D01*
X150537717Y-104508188D01*
X150585312Y-104527951D01*
X150515647Y-104746042D01*
X151380000Y-105610395D01*
X151394143Y-105596253D01*
X151573748Y-105775858D01*
X151559605Y-105790000D01*
X152423958Y-106654353D01*
X152641640Y-106584819D01*
X152660344Y-106630086D01*
X153077717Y-107048188D01*
X153623319Y-107274742D01*
X154214089Y-107275257D01*
X154490000Y-107161253D01*
X154490000Y-112500000D01*
X154547852Y-112790839D01*
X154712599Y-113037401D01*
X155022015Y-113346817D01*
X155021931Y-113443663D01*
X155170493Y-113803212D01*
X155242040Y-113874884D01*
X155171460Y-113945341D01*
X155022270Y-114304630D01*
X155021931Y-114693663D01*
X155170493Y-115053212D01*
X155309206Y-115192168D01*
X155297852Y-115209161D01*
X155270548Y-115346426D01*
X155171460Y-115445341D01*
X155022270Y-115804630D01*
X155022069Y-116035339D01*
X154959161Y-116047852D01*
X154712599Y-116212599D01*
X154212599Y-116712599D01*
X154047852Y-116959161D01*
X153990000Y-117250000D01*
X153990000Y-118772091D01*
X153806337Y-118771931D01*
X153446788Y-118920493D01*
X153171460Y-119195341D01*
X153022270Y-119554630D01*
X153021931Y-119943663D01*
X153170493Y-120303212D01*
X153240000Y-120372840D01*
X153240000Y-121935198D01*
X153185198Y-121990000D01*
X151750000Y-121990000D01*
X151459161Y-122047852D01*
X151212599Y-122212599D01*
X150653183Y-122772015D01*
X150556337Y-122771931D01*
X150196788Y-122920493D01*
X150010000Y-123106955D01*
X150010000Y-118597362D01*
X150053212Y-118579507D01*
X150328540Y-118304659D01*
X150477730Y-117945370D01*
X150478069Y-117556337D01*
X150329507Y-117196788D01*
X150183899Y-117050926D01*
X150227730Y-116945370D01*
X150228069Y-116556337D01*
X150079507Y-116196788D01*
X149804659Y-115921460D01*
X149445370Y-115772270D01*
X149342026Y-115772180D01*
X149477730Y-115445370D01*
X149478069Y-115056337D01*
X149329507Y-114696788D01*
X149054659Y-114421460D01*
X148695735Y-114272422D01*
X148727730Y-114195370D01*
X148728069Y-113806337D01*
X148579507Y-113446788D01*
X148304659Y-113171460D01*
X147945370Y-113022270D01*
X147556337Y-113021931D01*
X147196788Y-113170493D01*
X146921460Y-113445341D01*
X146877063Y-113552261D01*
X146134802Y-112810000D01*
X152500000Y-112810000D01*
X152809974Y-112748342D01*
X152840449Y-112727979D01*
X152943663Y-112728069D01*
X153303212Y-112579507D01*
X153578540Y-112304659D01*
X153727730Y-111945370D01*
X153728069Y-111556337D01*
X153579507Y-111196788D01*
X153304659Y-110921460D01*
X152945370Y-110772270D01*
X152556337Y-110771931D01*
X152196788Y-110920493D01*
X151926810Y-111190000D01*
X145585513Y-111190000D01*
X144728046Y-110332534D01*
X144728069Y-110306337D01*
X144579507Y-109946788D01*
X144304659Y-109671460D01*
X143945370Y-109522270D01*
X143556337Y-109521931D01*
X143196788Y-109670493D01*
X142921460Y-109945341D01*
X142772270Y-110304630D01*
X142771931Y-110693663D01*
X142920493Y-111053212D01*
X143195341Y-111328540D01*
X143554630Y-111477730D01*
X143582242Y-111477754D01*
X144002118Y-111897631D01*
X143946788Y-111920493D01*
X143671460Y-112195341D01*
X143522270Y-112554630D01*
X143521931Y-112943663D01*
X143670493Y-113303212D01*
X143742040Y-113374884D01*
X143671460Y-113445341D01*
X143522270Y-113804630D01*
X143521931Y-114193663D01*
X143670493Y-114553212D01*
X143742040Y-114624884D01*
X143671460Y-114695341D01*
X143522270Y-115054630D01*
X143521931Y-115443663D01*
X143670493Y-115803212D01*
X143945341Y-116078540D01*
X144304630Y-116227730D01*
X144403014Y-116227816D01*
X145490000Y-117314802D01*
X145490000Y-123522091D01*
X145306337Y-123521931D01*
X144946788Y-123670493D01*
X144671460Y-123945341D01*
X144522270Y-124304630D01*
X144522184Y-124403014D01*
X144212599Y-124712599D01*
X144047852Y-124959161D01*
X143990000Y-125250000D01*
X143990000Y-127185198D01*
X143935198Y-127240000D01*
X143373080Y-127240000D01*
X143304659Y-127171460D01*
X142945370Y-127022270D01*
X142560000Y-127021934D01*
X142560000Y-123835512D01*
X143167467Y-123228046D01*
X143193663Y-123228069D01*
X143553212Y-123079507D01*
X143828540Y-122804659D01*
X143977730Y-122445370D01*
X143978069Y-122056337D01*
X143829507Y-121696788D01*
X143554659Y-121421460D01*
X143195370Y-121272270D01*
X142806337Y-121271931D01*
X142446788Y-121420493D01*
X142171460Y-121695341D01*
X142022270Y-122054630D01*
X142022246Y-122082241D01*
X141177244Y-122927244D01*
X141001658Y-123190026D01*
X140940000Y-123500000D01*
X140940000Y-128250000D01*
X141001658Y-128559974D01*
X141155918Y-128790839D01*
X141177244Y-128822756D01*
X141927243Y-129572756D01*
X141940000Y-129581280D01*
X141940000Y-130500000D01*
X142001658Y-130809974D01*
X142155918Y-131040839D01*
X142177244Y-131072756D01*
X142889843Y-131785355D01*
X141685198Y-132990000D01*
X139477909Y-132990000D01*
X139478069Y-132806337D01*
X139329507Y-132446788D01*
X139260000Y-132377160D01*
X139260000Y-130250000D01*
X139202148Y-129959161D01*
X139037401Y-129712599D01*
X138760000Y-129435198D01*
X138760000Y-106833958D01*
X140355647Y-106833958D01*
X140435920Y-107085259D01*
X140991279Y-107286718D01*
X141581458Y-107260315D01*
X142004080Y-107085259D01*
X142084353Y-106833958D01*
X141220000Y-105969605D01*
X140355647Y-106833958D01*
X138760000Y-106833958D01*
X138760000Y-105561279D01*
X139723282Y-105561279D01*
X139749685Y-106151458D01*
X139924741Y-106574080D01*
X140176042Y-106654353D01*
X141040395Y-105790000D01*
X140176042Y-104925647D01*
X139924741Y-105005920D01*
X139723282Y-105561279D01*
X138760000Y-105561279D01*
X138760000Y-103500000D01*
X138702148Y-103209161D01*
X138537401Y-102962599D01*
X138037401Y-102462599D01*
X137790839Y-102297852D01*
X137500000Y-102240000D01*
X137123167Y-102240000D01*
X137104659Y-102221460D01*
X136745370Y-102072270D01*
X136356337Y-102071931D01*
X135996788Y-102220493D01*
X135721460Y-102495341D01*
X135572270Y-102854630D01*
X135571931Y-103243663D01*
X135720493Y-103603212D01*
X135995341Y-103878540D01*
X136340737Y-104021961D01*
X136306337Y-104021931D01*
X135946788Y-104170493D01*
X135671460Y-104445341D01*
X135522270Y-104804630D01*
X135521931Y-105193663D01*
X135670493Y-105553212D01*
X135945341Y-105828540D01*
X136304630Y-105977730D01*
X136693663Y-105978069D01*
X136740000Y-105958923D01*
X136740000Y-108287739D01*
X136500000Y-108240000D01*
X136373080Y-108240000D01*
X136304659Y-108171460D01*
X135945370Y-108022270D01*
X135556337Y-108021931D01*
X135196788Y-108170493D01*
X134921460Y-108445341D01*
X134772270Y-108804630D01*
X134771931Y-109193663D01*
X134920493Y-109553212D01*
X135195341Y-109828540D01*
X135554630Y-109977730D01*
X135943663Y-109978069D01*
X136240000Y-109855626D01*
X136240000Y-114144611D01*
X135945370Y-114022270D01*
X135556337Y-114021931D01*
X135196788Y-114170493D01*
X134921460Y-114445341D01*
X134772270Y-114804630D01*
X134771931Y-115193663D01*
X134920493Y-115553212D01*
X135195341Y-115828540D01*
X135554630Y-115977730D01*
X135653014Y-115977816D01*
X135740000Y-116064802D01*
X135740000Y-118022091D01*
X135556337Y-118021931D01*
X135196788Y-118170493D01*
X135127160Y-118240000D01*
X132564802Y-118240000D01*
X131537401Y-117212599D01*
X131290839Y-117047852D01*
X131000000Y-116990000D01*
X126760000Y-116990000D01*
X126760000Y-114260000D01*
X127750000Y-114260000D01*
X128040839Y-114202148D01*
X128287401Y-114037401D01*
X128787401Y-113537401D01*
X128952148Y-113290839D01*
X128982186Y-113139831D01*
X129510907Y-113245000D01*
X129569093Y-113245000D01*
X130137378Y-113131961D01*
X130619147Y-112810054D01*
X130941054Y-112328285D01*
X131054093Y-111760000D01*
X130941054Y-111191715D01*
X130619147Y-110709946D01*
X130289974Y-110490000D01*
X130619147Y-110270054D01*
X130941054Y-109788285D01*
X131054093Y-109220000D01*
X130941054Y-108651715D01*
X130619147Y-108169946D01*
X130289974Y-107950000D01*
X130619147Y-107730054D01*
X130941054Y-107248285D01*
X131054093Y-106680000D01*
X130941054Y-106111715D01*
X130619147Y-105629946D01*
X130577548Y-105602150D01*
X130625317Y-105593162D01*
X130841441Y-105454090D01*
X130986431Y-105241890D01*
X131037440Y-104990000D01*
X131037440Y-103290000D01*
X130993162Y-103054683D01*
X130854090Y-102838559D01*
X130641890Y-102693569D01*
X130390000Y-102642560D01*
X128690000Y-102642560D01*
X128454683Y-102686838D01*
X128267923Y-102807015D01*
X128101890Y-102693569D01*
X127850000Y-102642560D01*
X126531199Y-102642560D01*
X126976349Y-101976346D01*
X128363610Y-101049408D01*
X130069931Y-100710000D01*
X137561564Y-100710000D01*
X137522270Y-100804630D01*
X137522270Y-100804630D01*
G37*
X137522270Y-100804630D02*
X137521931Y-101193663D01*
X137670493Y-101553212D01*
X137945341Y-101828540D01*
X138304630Y-101977730D01*
X138693663Y-101978069D01*
X139053212Y-101829507D01*
X139122840Y-101760000D01*
X143935198Y-101760000D01*
X143940355Y-101765157D01*
X143465911Y-101764743D01*
X142919914Y-101990344D01*
X142501812Y-102407717D01*
X142490252Y-102435557D01*
X142479656Y-102409914D01*
X142062283Y-101991812D01*
X141516681Y-101765258D01*
X140925911Y-101764743D01*
X140379914Y-101990344D01*
X139961812Y-102407717D01*
X139735258Y-102953319D01*
X139734743Y-103544089D01*
X139960344Y-104090086D01*
X140377717Y-104508188D01*
X140425312Y-104527951D01*
X140355647Y-104746042D01*
X141220000Y-105610395D01*
X142084353Y-104746042D01*
X142014819Y-104528360D01*
X142060086Y-104509656D01*
X142478188Y-104092283D01*
X142489748Y-104064443D01*
X142500344Y-104090086D01*
X142917717Y-104508188D01*
X142945557Y-104519748D01*
X142919914Y-104530344D01*
X142501812Y-104947717D01*
X142482049Y-104995312D01*
X142263958Y-104925647D01*
X141399605Y-105790000D01*
X142263958Y-106654353D01*
X142481640Y-106584819D01*
X142500344Y-106630086D01*
X142917717Y-107048188D01*
X143463319Y-107274742D01*
X144054089Y-107275257D01*
X144600086Y-107049656D01*
X145018188Y-106632283D01*
X145029748Y-106604443D01*
X145040344Y-106630086D01*
X145457717Y-107048188D01*
X146003319Y-107274742D01*
X146594089Y-107275257D01*
X147140086Y-107049656D01*
X147558188Y-106632283D01*
X147569748Y-106604443D01*
X147580344Y-106630086D01*
X147997717Y-107048188D01*
X148543319Y-107274742D01*
X149134089Y-107275257D01*
X149680086Y-107049656D01*
X149896160Y-106833958D01*
X150515647Y-106833958D01*
X150595920Y-107085259D01*
X151151279Y-107286718D01*
X151741458Y-107260315D01*
X152164080Y-107085259D01*
X152244353Y-106833958D01*
X151380000Y-105969605D01*
X150515647Y-106833958D01*
X149896160Y-106833958D01*
X150098188Y-106632283D01*
X150117951Y-106584688D01*
X150336042Y-106654353D01*
X151200395Y-105790000D01*
X150336042Y-104925647D01*
X150118360Y-104995181D01*
X150099656Y-104949914D01*
X149682283Y-104531812D01*
X149654443Y-104520252D01*
X149680086Y-104509656D01*
X150098188Y-104092283D01*
X150109748Y-104064443D01*
X150120344Y-104090086D01*
X150537717Y-104508188D01*
X150585312Y-104527951D01*
X150515647Y-104746042D01*
X151380000Y-105610395D01*
X151394143Y-105596253D01*
X151573748Y-105775858D01*
X151559605Y-105790000D01*
X152423958Y-106654353D01*
X152641640Y-106584819D01*
X152660344Y-106630086D01*
X153077717Y-107048188D01*
X153623319Y-107274742D01*
X154214089Y-107275257D01*
X154490000Y-107161253D01*
X154490000Y-112500000D01*
X154547852Y-112790839D01*
X154712599Y-113037401D01*
X155022015Y-113346817D01*
X155021931Y-113443663D01*
X155170493Y-113803212D01*
X155242040Y-113874884D01*
X155171460Y-113945341D01*
X155022270Y-114304630D01*
X155021931Y-114693663D01*
X155170493Y-115053212D01*
X155309206Y-115192168D01*
X155297852Y-115209161D01*
X155270548Y-115346426D01*
X155171460Y-115445341D01*
X155022270Y-115804630D01*
X155022069Y-116035339D01*
X154959161Y-116047852D01*
X154712599Y-116212599D01*
X154212599Y-116712599D01*
X154047852Y-116959161D01*
X153990000Y-117250000D01*
X153990000Y-118772091D01*
X153806337Y-118771931D01*
X153446788Y-118920493D01*
X153171460Y-119195341D01*
X153022270Y-119554630D01*
X153021931Y-119943663D01*
X153170493Y-120303212D01*
X153240000Y-120372840D01*
X153240000Y-121935198D01*
X153185198Y-121990000D01*
X151750000Y-121990000D01*
X151459161Y-122047852D01*
X151212599Y-122212599D01*
X150653183Y-122772015D01*
X150556337Y-122771931D01*
X150196788Y-122920493D01*
X150010000Y-123106955D01*
X150010000Y-118597362D01*
X150053212Y-118579507D01*
X150328540Y-118304659D01*
X150477730Y-117945370D01*
X150478069Y-117556337D01*
X150329507Y-117196788D01*
X150183899Y-117050926D01*
X150227730Y-116945370D01*
X150228069Y-116556337D01*
X150079507Y-116196788D01*
X149804659Y-115921460D01*
X149445370Y-115772270D01*
X149342026Y-115772180D01*
X149477730Y-115445370D01*
X149478069Y-115056337D01*
X149329507Y-114696788D01*
X149054659Y-114421460D01*
X148695735Y-114272422D01*
X148727730Y-114195370D01*
X148728069Y-113806337D01*
X148579507Y-113446788D01*
X148304659Y-113171460D01*
X147945370Y-113022270D01*
X147556337Y-113021931D01*
X147196788Y-113170493D01*
X146921460Y-113445341D01*
X146877063Y-113552261D01*
X146134802Y-112810000D01*
X152500000Y-112810000D01*
X152809974Y-112748342D01*
X152840449Y-112727979D01*
X152943663Y-112728069D01*
X153303212Y-112579507D01*
X153578540Y-112304659D01*
X153727730Y-111945370D01*
X153728069Y-111556337D01*
X153579507Y-111196788D01*
X153304659Y-110921460D01*
X152945370Y-110772270D01*
X152556337Y-110771931D01*
X152196788Y-110920493D01*
X151926810Y-111190000D01*
X145585513Y-111190000D01*
X144728046Y-110332534D01*
X144728069Y-110306337D01*
X144579507Y-109946788D01*
X144304659Y-109671460D01*
X143945370Y-109522270D01*
X143556337Y-109521931D01*
X143196788Y-109670493D01*
X142921460Y-109945341D01*
X142772270Y-110304630D01*
X142771931Y-110693663D01*
X142920493Y-111053212D01*
X143195341Y-111328540D01*
X143554630Y-111477730D01*
X143582242Y-111477754D01*
X144002118Y-111897631D01*
X143946788Y-111920493D01*
X143671460Y-112195341D01*
X143522270Y-112554630D01*
X143521931Y-112943663D01*
X143670493Y-113303212D01*
X143742040Y-113374884D01*
X143671460Y-113445341D01*
X143522270Y-113804630D01*
X143521931Y-114193663D01*
X143670493Y-114553212D01*
X143742040Y-114624884D01*
X143671460Y-114695341D01*
X143522270Y-115054630D01*
X143521931Y-115443663D01*
X143670493Y-115803212D01*
X143945341Y-116078540D01*
X144304630Y-116227730D01*
X144403014Y-116227816D01*
X145490000Y-117314802D01*
X145490000Y-123522091D01*
X145306337Y-123521931D01*
X144946788Y-123670493D01*
X144671460Y-123945341D01*
X144522270Y-124304630D01*
X144522184Y-124403014D01*
X144212599Y-124712599D01*
X144047852Y-124959161D01*
X143990000Y-125250000D01*
X143990000Y-127185198D01*
X143935198Y-127240000D01*
X143373080Y-127240000D01*
X143304659Y-127171460D01*
X142945370Y-127022270D01*
X142560000Y-127021934D01*
X142560000Y-123835512D01*
X143167467Y-123228046D01*
X143193663Y-123228069D01*
X143553212Y-123079507D01*
X143828540Y-122804659D01*
X143977730Y-122445370D01*
X143978069Y-122056337D01*
X143829507Y-121696788D01*
X143554659Y-121421460D01*
X143195370Y-121272270D01*
X142806337Y-121271931D01*
X142446788Y-121420493D01*
X142171460Y-121695341D01*
X142022270Y-122054630D01*
X142022246Y-122082241D01*
X141177244Y-122927244D01*
X141001658Y-123190026D01*
X140940000Y-123500000D01*
X140940000Y-128250000D01*
X141001658Y-128559974D01*
X141155918Y-128790839D01*
X141177244Y-128822756D01*
X141927243Y-129572756D01*
X141940000Y-129581280D01*
X141940000Y-130500000D01*
X142001658Y-130809974D01*
X142155918Y-131040839D01*
X142177244Y-131072756D01*
X142889843Y-131785355D01*
X141685198Y-132990000D01*
X139477909Y-132990000D01*
X139478069Y-132806337D01*
X139329507Y-132446788D01*
X139260000Y-132377160D01*
X139260000Y-130250000D01*
X139202148Y-129959161D01*
X139037401Y-129712599D01*
X138760000Y-129435198D01*
X138760000Y-106833958D01*
X140355647Y-106833958D01*
X140435920Y-107085259D01*
X140991279Y-107286718D01*
X141581458Y-107260315D01*
X142004080Y-107085259D01*
X142084353Y-106833958D01*
X141220000Y-105969605D01*
X140355647Y-106833958D01*
X138760000Y-106833958D01*
X138760000Y-105561279D01*
X139723282Y-105561279D01*
X139749685Y-106151458D01*
X139924741Y-106574080D01*
X140176042Y-106654353D01*
X141040395Y-105790000D01*
X140176042Y-104925647D01*
X139924741Y-105005920D01*
X139723282Y-105561279D01*
X138760000Y-105561279D01*
X138760000Y-103500000D01*
X138702148Y-103209161D01*
X138537401Y-102962599D01*
X138037401Y-102462599D01*
X137790839Y-102297852D01*
X137500000Y-102240000D01*
X137123167Y-102240000D01*
X137104659Y-102221460D01*
X136745370Y-102072270D01*
X136356337Y-102071931D01*
X135996788Y-102220493D01*
X135721460Y-102495341D01*
X135572270Y-102854630D01*
X135571931Y-103243663D01*
X135720493Y-103603212D01*
X135995341Y-103878540D01*
X136340737Y-104021961D01*
X136306337Y-104021931D01*
X135946788Y-104170493D01*
X135671460Y-104445341D01*
X135522270Y-104804630D01*
X135521931Y-105193663D01*
X135670493Y-105553212D01*
X135945341Y-105828540D01*
X136304630Y-105977730D01*
X136693663Y-105978069D01*
X136740000Y-105958923D01*
X136740000Y-108287739D01*
X136500000Y-108240000D01*
X136373080Y-108240000D01*
X136304659Y-108171460D01*
X135945370Y-108022270D01*
X135556337Y-108021931D01*
X135196788Y-108170493D01*
X134921460Y-108445341D01*
X134772270Y-108804630D01*
X134771931Y-109193663D01*
X134920493Y-109553212D01*
X135195341Y-109828540D01*
X135554630Y-109977730D01*
X135943663Y-109978069D01*
X136240000Y-109855626D01*
X136240000Y-114144611D01*
X135945370Y-114022270D01*
X135556337Y-114021931D01*
X135196788Y-114170493D01*
X134921460Y-114445341D01*
X134772270Y-114804630D01*
X134771931Y-115193663D01*
X134920493Y-115553212D01*
X135195341Y-115828540D01*
X135554630Y-115977730D01*
X135653014Y-115977816D01*
X135740000Y-116064802D01*
X135740000Y-118022091D01*
X135556337Y-118021931D01*
X135196788Y-118170493D01*
X135127160Y-118240000D01*
X132564802Y-118240000D01*
X131537401Y-117212599D01*
X131290839Y-117047852D01*
X131000000Y-116990000D01*
X126760000Y-116990000D01*
X126760000Y-114260000D01*
X127750000Y-114260000D01*
X128040839Y-114202148D01*
X128287401Y-114037401D01*
X128787401Y-113537401D01*
X128952148Y-113290839D01*
X128982186Y-113139831D01*
X129510907Y-113245000D01*
X129569093Y-113245000D01*
X130137378Y-113131961D01*
X130619147Y-112810054D01*
X130941054Y-112328285D01*
X131054093Y-111760000D01*
X130941054Y-111191715D01*
X130619147Y-110709946D01*
X130289974Y-110490000D01*
X130619147Y-110270054D01*
X130941054Y-109788285D01*
X131054093Y-109220000D01*
X130941054Y-108651715D01*
X130619147Y-108169946D01*
X130289974Y-107950000D01*
X130619147Y-107730054D01*
X130941054Y-107248285D01*
X131054093Y-106680000D01*
X130941054Y-106111715D01*
X130619147Y-105629946D01*
X130577548Y-105602150D01*
X130625317Y-105593162D01*
X130841441Y-105454090D01*
X130986431Y-105241890D01*
X131037440Y-104990000D01*
X131037440Y-103290000D01*
X130993162Y-103054683D01*
X130854090Y-102838559D01*
X130641890Y-102693569D01*
X130390000Y-102642560D01*
X128690000Y-102642560D01*
X128454683Y-102686838D01*
X128267923Y-102807015D01*
X128101890Y-102693569D01*
X127850000Y-102642560D01*
X126531199Y-102642560D01*
X126976349Y-101976346D01*
X128363610Y-101049408D01*
X130069931Y-100710000D01*
X137561564Y-100710000D01*
X137522270Y-100804630D01*
G36*
X155240000Y-124122840D02*
X155240000Y-126935198D01*
X154760000Y-127415198D01*
X154760000Y-127097362D01*
X154803212Y-127079507D01*
X155078540Y-126804659D01*
X155227730Y-126445370D01*
X155228069Y-126056337D01*
X155079507Y-125696788D01*
X154804659Y-125421460D01*
X154445370Y-125272270D01*
X154056337Y-125271931D01*
X153696788Y-125420493D01*
X153421460Y-125695341D01*
X153389536Y-125772221D01*
X153056337Y-125771931D01*
X152740585Y-125902396D01*
X152727823Y-125838239D01*
X152728069Y-125556337D01*
X152579507Y-125196788D01*
X152304659Y-124921460D01*
X151945370Y-124772270D01*
X151556337Y-124771931D01*
X151196788Y-124920493D01*
X150921460Y-125195341D01*
X150772270Y-125554630D01*
X150771931Y-125943663D01*
X150920493Y-126303212D01*
X151195341Y-126578540D01*
X151240000Y-126597084D01*
X151240000Y-126644611D01*
X150945370Y-126522270D01*
X150556337Y-126521931D01*
X150260000Y-126644374D01*
X150260000Y-126250000D01*
X150212261Y-126010000D01*
X150202148Y-125959160D01*
X150037401Y-125712599D01*
X150010000Y-125685198D01*
X150010000Y-124392875D01*
X150195341Y-124578540D01*
X150554630Y-124727730D01*
X150943663Y-124728069D01*
X151250311Y-124601365D01*
X151554630Y-124727730D01*
X151943663Y-124728069D01*
X152303212Y-124579507D01*
X152372840Y-124510000D01*
X154500000Y-124510000D01*
X154790839Y-124452148D01*
X155037401Y-124287401D01*
X155220997Y-124103805D01*
X155240000Y-124122840D01*
X155240000Y-124122840D01*
G37*
X155240000Y-124122840D02*
X155240000Y-126935198D01*
X154760000Y-127415198D01*
X154760000Y-127097362D01*
X154803212Y-127079507D01*
X155078540Y-126804659D01*
X155227730Y-126445370D01*
X155228069Y-126056337D01*
X155079507Y-125696788D01*
X154804659Y-125421460D01*
X154445370Y-125272270D01*
X154056337Y-125271931D01*
X153696788Y-125420493D01*
X153421460Y-125695341D01*
X153389536Y-125772221D01*
X153056337Y-125771931D01*
X152740585Y-125902396D01*
X152727823Y-125838239D01*
X152728069Y-125556337D01*
X152579507Y-125196788D01*
X152304659Y-124921460D01*
X151945370Y-124772270D01*
X151556337Y-124771931D01*
X151196788Y-124920493D01*
X150921460Y-125195341D01*
X150772270Y-125554630D01*
X150771931Y-125943663D01*
X150920493Y-126303212D01*
X151195341Y-126578540D01*
X151240000Y-126597084D01*
X151240000Y-126644611D01*
X150945370Y-126522270D01*
X150556337Y-126521931D01*
X150260000Y-126644374D01*
X150260000Y-126250000D01*
X150212261Y-126010000D01*
X150202148Y-125959160D01*
X150037401Y-125712599D01*
X150010000Y-125685198D01*
X150010000Y-124392875D01*
X150195341Y-124578540D01*
X150554630Y-124727730D01*
X150943663Y-124728069D01*
X151250311Y-124601365D01*
X151554630Y-124727730D01*
X151943663Y-124728069D01*
X152303212Y-124579507D01*
X152372840Y-124510000D01*
X154500000Y-124510000D01*
X154790839Y-124452148D01*
X155037401Y-124287401D01*
X155220997Y-124103805D01*
X155240000Y-124122840D01*
G36*
X168665907Y-111760000D02*
X168778946Y-112328285D01*
X169100853Y-112810054D01*
X169383739Y-112999072D01*
X169431658Y-113239974D01*
X169568900Y-113445370D01*
X169607244Y-113502756D01*
X171910000Y-115805513D01*
X171910000Y-117264488D01*
X171822756Y-117177244D01*
X171639295Y-117054659D01*
X171559974Y-117001658D01*
X171250000Y-116940000D01*
X166500000Y-116940000D01*
X166190026Y-117001658D01*
X166110705Y-117054659D01*
X165927244Y-117177243D01*
X165082534Y-118021954D01*
X165056337Y-118021931D01*
X164696788Y-118170493D01*
X164421460Y-118445341D01*
X164272270Y-118804630D01*
X164271931Y-119193663D01*
X164420493Y-119553212D01*
X164695341Y-119828540D01*
X165054630Y-119977730D01*
X165082242Y-119977754D01*
X165940000Y-120835513D01*
X165940000Y-124022265D01*
X165556337Y-124021931D01*
X165196788Y-124170493D01*
X165010000Y-124356955D01*
X165010000Y-122500000D01*
X164964634Y-122271931D01*
X164952148Y-122209160D01*
X164787401Y-121962599D01*
X164260000Y-121435198D01*
X164260000Y-111260000D01*
X168765363Y-111260000D01*
X168665907Y-111760000D01*
X168665907Y-111760000D01*
G37*
X168665907Y-111760000D02*
X168778946Y-112328285D01*
X169100853Y-112810054D01*
X169383739Y-112999072D01*
X169431658Y-113239974D01*
X169568900Y-113445370D01*
X169607244Y-113502756D01*
X171910000Y-115805513D01*
X171910000Y-117264488D01*
X171822756Y-117177244D01*
X171639295Y-117054659D01*
X171559974Y-117001658D01*
X171250000Y-116940000D01*
X166500000Y-116940000D01*
X166190026Y-117001658D01*
X166110705Y-117054659D01*
X165927244Y-117177243D01*
X165082534Y-118021954D01*
X165056337Y-118021931D01*
X164696788Y-118170493D01*
X164421460Y-118445341D01*
X164272270Y-118804630D01*
X164271931Y-119193663D01*
X164420493Y-119553212D01*
X164695341Y-119828540D01*
X165054630Y-119977730D01*
X165082242Y-119977754D01*
X165940000Y-120835513D01*
X165940000Y-124022265D01*
X165556337Y-124021931D01*
X165196788Y-124170493D01*
X165010000Y-124356955D01*
X165010000Y-122500000D01*
X164964634Y-122271931D01*
X164952148Y-122209160D01*
X164787401Y-121962599D01*
X164260000Y-121435198D01*
X164260000Y-111260000D01*
X168765363Y-111260000D01*
X168665907Y-111760000D01*
G36*
X163272270Y-104054630D02*
X163272184Y-104153014D01*
X162462599Y-104962599D01*
X162297852Y-105209161D01*
X162240000Y-105500000D01*
X162240000Y-117107125D01*
X162054659Y-116921460D01*
X161695370Y-116772270D01*
X161306337Y-116771931D01*
X160946788Y-116920493D01*
X160671460Y-117195341D01*
X160652916Y-117240000D01*
X159142875Y-117240000D01*
X159328540Y-117054659D01*
X159477730Y-116695370D01*
X159478069Y-116306337D01*
X159329507Y-115946788D01*
X159110586Y-115727484D01*
X159227730Y-115445370D01*
X159228069Y-115056337D01*
X159079507Y-114696788D01*
X159007960Y-114625116D01*
X159078540Y-114554659D01*
X159227730Y-114195370D01*
X159228069Y-113806337D01*
X159079507Y-113446788D01*
X158804659Y-113171460D01*
X158445370Y-113022270D01*
X158056337Y-113021931D01*
X158010000Y-113041077D01*
X158010000Y-112750000D01*
X157952148Y-112459161D01*
X157787401Y-112212599D01*
X157010000Y-111435198D01*
X157010000Y-110814802D01*
X157876957Y-109947845D01*
X157920493Y-110053212D01*
X158195341Y-110328540D01*
X158554630Y-110477730D01*
X158943663Y-110478069D01*
X159303212Y-110329507D01*
X159578540Y-110054659D01*
X159727730Y-109695370D01*
X159727754Y-109667758D01*
X161822757Y-107572756D01*
X161928012Y-107415229D01*
X161998342Y-107309974D01*
X162060000Y-107000000D01*
X162060000Y-105085512D01*
X163401072Y-103744440D01*
X163272270Y-104054630D01*
X163272270Y-104054630D01*
G37*
X163272270Y-104054630D02*
X163272184Y-104153014D01*
X162462599Y-104962599D01*
X162297852Y-105209161D01*
X162240000Y-105500000D01*
X162240000Y-117107125D01*
X162054659Y-116921460D01*
X161695370Y-116772270D01*
X161306337Y-116771931D01*
X160946788Y-116920493D01*
X160671460Y-117195341D01*
X160652916Y-117240000D01*
X159142875Y-117240000D01*
X159328540Y-117054659D01*
X159477730Y-116695370D01*
X159478069Y-116306337D01*
X159329507Y-115946788D01*
X159110586Y-115727484D01*
X159227730Y-115445370D01*
X159228069Y-115056337D01*
X159079507Y-114696788D01*
X159007960Y-114625116D01*
X159078540Y-114554659D01*
X159227730Y-114195370D01*
X159228069Y-113806337D01*
X159079507Y-113446788D01*
X158804659Y-113171460D01*
X158445370Y-113022270D01*
X158056337Y-113021931D01*
X158010000Y-113041077D01*
X158010000Y-112750000D01*
X157952148Y-112459161D01*
X157787401Y-112212599D01*
X157010000Y-111435198D01*
X157010000Y-110814802D01*
X157876957Y-109947845D01*
X157920493Y-110053212D01*
X158195341Y-110328540D01*
X158554630Y-110477730D01*
X158943663Y-110478069D01*
X159303212Y-110329507D01*
X159578540Y-110054659D01*
X159727730Y-109695370D01*
X159727754Y-109667758D01*
X161822757Y-107572756D01*
X161928012Y-107415229D01*
X161998342Y-107309974D01*
X162060000Y-107000000D01*
X162060000Y-105085512D01*
X163401072Y-103744440D01*
X163272270Y-104054630D01*
G36*
X157546838Y-104335317D02*
X157685910Y-104551441D01*
X157898110Y-104696431D01*
X157977443Y-104712496D01*
X157741812Y-104947717D01*
X157722049Y-104995312D01*
X157503958Y-104925647D01*
X156639605Y-105790000D01*
X156653748Y-105804143D01*
X156474143Y-105983748D01*
X156460000Y-105969605D01*
X156445858Y-105983748D01*
X156266253Y-105804143D01*
X156280395Y-105790000D01*
X156266253Y-105775858D01*
X156445858Y-105596253D01*
X156460000Y-105610395D01*
X157324353Y-104746042D01*
X157254819Y-104528360D01*
X157300086Y-104509656D01*
X157535435Y-104274717D01*
X157546838Y-104335317D01*
X157546838Y-104335317D01*
G37*
X157546838Y-104335317D02*
X157685910Y-104551441D01*
X157898110Y-104696431D01*
X157977443Y-104712496D01*
X157741812Y-104947717D01*
X157722049Y-104995312D01*
X157503958Y-104925647D01*
X156639605Y-105790000D01*
X156653748Y-105804143D01*
X156474143Y-105983748D01*
X156460000Y-105969605D01*
X156445858Y-105983748D01*
X156266253Y-105804143D01*
X156280395Y-105790000D01*
X156266253Y-105775858D01*
X156445858Y-105596253D01*
X156460000Y-105610395D01*
X157324353Y-104746042D01*
X157254819Y-104528360D01*
X157300086Y-104509656D01*
X157535435Y-104274717D01*
X157546838Y-104335317D01*
G36*
X172847000Y-104013000D02*
X172867000Y-104013000D01*
X172867000Y-104267000D01*
X172847000Y-104267000D01*
X172847000Y-104287000D01*
X172593000Y-104287000D01*
X172593000Y-104267000D01*
X172573000Y-104267000D01*
X172573000Y-104013000D01*
X172593000Y-104013000D01*
X172593000Y-103993000D01*
X172847000Y-103993000D01*
X172847000Y-104013000D01*
X172847000Y-104013000D01*
G37*
X172847000Y-104013000D02*
X172867000Y-104013000D01*
X172867000Y-104267000D01*
X172847000Y-104267000D01*
X172847000Y-104287000D01*
X172593000Y-104287000D01*
X172593000Y-104267000D01*
X172573000Y-104267000D01*
X172573000Y-104013000D01*
X172593000Y-104013000D01*
X172593000Y-103993000D01*
X172847000Y-103993000D01*
X172847000Y-104013000D01*
G36*
X168123000Y-146373000D02*
X165377000Y-146373000D01*
X165377000Y-143250000D01*
X165366994Y-143200590D01*
X165338553Y-143158965D01*
X165296159Y-143131685D01*
X165250000Y-143123000D01*
X163823543Y-143123000D01*
X163803162Y-143014683D01*
X163664090Y-142798559D01*
X163451890Y-142653569D01*
X163200000Y-142602560D01*
X159700000Y-142602560D01*
X159464683Y-142646838D01*
X159248559Y-142785910D01*
X159103569Y-142998110D01*
X159078278Y-143123000D01*
X156127000Y-143123000D01*
X156127000Y-140877000D01*
X168123000Y-140877000D01*
X168123000Y-146373000D01*
X168123000Y-146373000D01*
G37*
X168123000Y-146373000D02*
X165377000Y-146373000D01*
X165377000Y-143250000D01*
X165366994Y-143200590D01*
X165338553Y-143158965D01*
X165296159Y-143131685D01*
X165250000Y-143123000D01*
X163823543Y-143123000D01*
X163803162Y-143014683D01*
X163664090Y-142798559D01*
X163451890Y-142653569D01*
X163200000Y-142602560D01*
X159700000Y-142602560D01*
X159464683Y-142646838D01*
X159248559Y-142785910D01*
X159103569Y-142998110D01*
X159078278Y-143123000D01*
X156127000Y-143123000D01*
X156127000Y-140877000D01*
X168123000Y-140877000D01*
X168123000Y-146373000D01*
M02*
