G04 #@! TF.FileFunction,Legend,Bot*
%FSLAX46Y46*%
G04 Gerber Fmt 4.6, Leading zero omitted, Abs format (unit mm)*
G04 Created by KiCad (PCBNEW 4.0.7) date Saturday, November 24, 2018 'AMt' 10:44:27 AM*
%MOMM*%
%LPD*%
G01*
G04 APERTURE LIST*
%ADD10C,0.100000*%
%ADD11C,0.300000*%
%ADD12C,0.150000*%
G04 APERTURE END LIST*
D10*
D11*
X157964284Y-130178571D02*
X158678570Y-130178571D01*
X158678570Y-128678571D01*
X157464284Y-129392857D02*
X156964284Y-129392857D01*
X156749998Y-130178571D02*
X157464284Y-130178571D01*
X157464284Y-128678571D01*
X156749998Y-128678571D01*
X156107141Y-130178571D02*
X156107141Y-128678571D01*
X155749998Y-128678571D01*
X155535713Y-128750000D01*
X155392855Y-128892857D01*
X155321427Y-129035714D01*
X155249998Y-129321429D01*
X155249998Y-129535714D01*
X155321427Y-129821429D01*
X155392855Y-129964286D01*
X155535713Y-130107143D01*
X155749998Y-130178571D01*
X156107141Y-130178571D01*
X153464284Y-130178571D02*
X153464284Y-128678571D01*
X153107141Y-128678571D01*
X152892856Y-128750000D01*
X152749998Y-128892857D01*
X152678570Y-129035714D01*
X152607141Y-129321429D01*
X152607141Y-129535714D01*
X152678570Y-129821429D01*
X152749998Y-129964286D01*
X152892856Y-130107143D01*
X153107141Y-130178571D01*
X153464284Y-130178571D01*
X151964284Y-130178571D02*
X151964284Y-129178571D01*
X151964284Y-129464286D02*
X151892856Y-129321429D01*
X151821427Y-129250000D01*
X151678570Y-129178571D01*
X151535713Y-129178571D01*
X151035713Y-130178571D02*
X151035713Y-129178571D01*
X151035713Y-128678571D02*
X151107142Y-128750000D01*
X151035713Y-128821429D01*
X150964285Y-128750000D01*
X151035713Y-128678571D01*
X151035713Y-128821429D01*
X150464284Y-129178571D02*
X150107141Y-130178571D01*
X149749999Y-129178571D01*
X148607142Y-130107143D02*
X148749999Y-130178571D01*
X149035713Y-130178571D01*
X149178570Y-130107143D01*
X149249999Y-129964286D01*
X149249999Y-129392857D01*
X149178570Y-129250000D01*
X149035713Y-129178571D01*
X148749999Y-129178571D01*
X148607142Y-129250000D01*
X148535713Y-129392857D01*
X148535713Y-129535714D01*
X149249999Y-129678571D01*
X147892856Y-130178571D02*
X147892856Y-129178571D01*
X147892856Y-129464286D02*
X147821428Y-129321429D01*
X147749999Y-129250000D01*
X147607142Y-129178571D01*
X147464285Y-129178571D01*
X145964285Y-129178571D02*
X145607142Y-130178571D01*
X145250000Y-129178571D01*
X143892857Y-130178571D02*
X144750000Y-130178571D01*
X144321428Y-130178571D02*
X144321428Y-128678571D01*
X144464285Y-128892857D01*
X144607143Y-129035714D01*
X144750000Y-129107143D01*
X143250000Y-130035714D02*
X143178572Y-130107143D01*
X143250000Y-130178571D01*
X143321429Y-130107143D01*
X143250000Y-130035714D01*
X143250000Y-130178571D01*
X142250000Y-128678571D02*
X142107143Y-128678571D01*
X141964286Y-128750000D01*
X141892857Y-128821429D01*
X141821428Y-128964286D01*
X141750000Y-129250000D01*
X141750000Y-129607143D01*
X141821428Y-129892857D01*
X141892857Y-130035714D01*
X141964286Y-130107143D01*
X142107143Y-130178571D01*
X142250000Y-130178571D01*
X142392857Y-130107143D01*
X142464286Y-130035714D01*
X142535714Y-129892857D01*
X142607143Y-129607143D01*
X142607143Y-129250000D01*
X142535714Y-128964286D01*
X142464286Y-128821429D01*
X142392857Y-128750000D01*
X142250000Y-128678571D01*
D10*
X119446464Y-137254601D02*
G75*
G03X119450000Y-125250000I-7806464J6004601D01*
G01*
X119433470Y-137253354D02*
G75*
G03X120420000Y-140590000I1716530J-1306646D01*
G01*
X124370000Y-142030000D02*
X120420000Y-140590000D01*
X135540000Y-139950000D02*
X133460000Y-142030000D01*
X135540000Y-122550000D02*
X135540000Y-139950000D01*
X135540000Y-122550000D02*
X133460000Y-120470000D01*
X124370000Y-120470000D02*
X120420000Y-121910000D01*
X120411831Y-121924756D02*
G75*
G03X119450000Y-125250000I738169J-2015244D01*
G01*
X133460000Y-142030000D02*
X131000000Y-142030000D01*
X125000000Y-142030000D02*
X124370000Y-142030000D01*
X133460000Y-120470000D02*
X131000000Y-120470000D01*
X125000000Y-120470000D02*
X124370000Y-120470000D01*
D12*
X151790000Y-126008000D02*
X151790000Y-127024000D01*
X151790000Y-124992000D02*
X151790000Y-126008000D01*
X144170000Y-126008000D02*
X145186000Y-126008000D01*
X145694000Y-124992000D02*
X145694000Y-127024000D01*
X153314000Y-124484000D02*
X153314000Y-121944000D01*
X154330000Y-124484000D02*
X154330000Y-121944000D01*
X154838000Y-126008000D02*
X154838000Y-123468000D01*
X155854000Y-126008000D02*
X154838000Y-126008000D01*
X155854000Y-124992000D02*
X155854000Y-126008000D01*
X144170000Y-125500000D02*
X144170000Y-126008000D01*
X145186000Y-125500000D02*
X144170000Y-125500000D01*
X145186000Y-124992000D02*
X145186000Y-125500000D01*
X144170000Y-124992000D02*
X145186000Y-124992000D01*
X146710000Y-124992000D02*
X145694000Y-124992000D01*
X146710000Y-126008000D02*
X146710000Y-124992000D01*
X148234000Y-126008000D02*
X147218000Y-126008000D01*
X148234000Y-125500000D02*
X147218000Y-125500000D01*
X148234000Y-124992000D02*
X147218000Y-124992000D01*
X148742000Y-126008000D02*
X149758000Y-126008000D01*
X148742000Y-125500000D02*
X148742000Y-126008000D01*
X149758000Y-125500000D02*
X148742000Y-125500000D01*
X149758000Y-124992000D02*
X149758000Y-125500000D01*
X148742000Y-124992000D02*
X149758000Y-124992000D01*
X150266000Y-126008000D02*
X151282000Y-126008000D01*
X150266000Y-125500000D02*
X150266000Y-126008000D01*
X151282000Y-125500000D02*
X150266000Y-125500000D01*
X151282000Y-124992000D02*
X151282000Y-125500000D01*
X150266000Y-124992000D02*
X151282000Y-124992000D01*
X152806000Y-124992000D02*
X151790000Y-124992000D01*
X152806000Y-126008000D02*
X152806000Y-124992000D01*
X154330000Y-125500000D02*
X153314000Y-125500000D01*
X154330000Y-126008000D02*
X154330000Y-125500000D01*
X153314000Y-126008000D02*
X154330000Y-126008000D01*
X153314000Y-124992000D02*
X153314000Y-126008000D01*
X154330000Y-124992000D02*
X153314000Y-124992000D01*
X153822000Y-124484000D02*
X153822000Y-123468000D01*
X152806000Y-123976000D02*
X151790000Y-123976000D01*
X152806000Y-124484000D02*
X152806000Y-123976000D01*
X151790000Y-124484000D02*
X152806000Y-124484000D01*
X151790000Y-123468000D02*
X151790000Y-124484000D01*
X152806000Y-123468000D02*
X151790000Y-123468000D01*
X145694000Y-123468000D02*
X145694000Y-124484000D01*
X146710000Y-123468000D02*
X145694000Y-123468000D01*
X146710000Y-124484000D02*
X146710000Y-123468000D01*
X148234000Y-123976000D02*
X147218000Y-123976000D01*
X148234000Y-123468000D02*
X147218000Y-123468000D01*
X148234000Y-124484000D02*
X147218000Y-124484000D01*
X151282000Y-123468000D02*
X151282000Y-124484000D01*
X151282000Y-123468000D02*
X150266000Y-123468000D01*
X149758000Y-123468000D02*
X149758000Y-124484000D01*
X149758000Y-124484000D02*
X149758000Y-123468000D01*
X149758000Y-123468000D02*
X148742000Y-123468000D01*
M02*
