G04 #@! TF.FileFunction,Soldermask,Top*
%FSLAX46Y46*%
G04 Gerber Fmt 4.6, Leading zero omitted, Abs format (unit mm)*
G04 Created by KiCad (PCBNEW 4.0.7) date Saturday, November 24, 2018 'AMt' 11:25:14 AM*
%MOMM*%
%LPD*%
G01*
G04 APERTURE LIST*
%ADD10C,0.100000*%
%ADD11R,1.300000X1.200000*%
%ADD12R,1.200000X1.150000*%
%ADD13R,2.100000X2.100000*%
%ADD14O,2.100000X2.100000*%
%ADD15R,0.900000X1.300000*%
%ADD16R,1.400000X0.650000*%
%ADD17R,0.650000X1.400000*%
%ADD18R,1.700000X2.300000*%
%ADD19R,1.400000X1.100000*%
%ADD20R,1.600000X1.550000*%
%ADD21R,1.600000X1.850000*%
%ADD22R,1.100000X1.400000*%
%ADD23R,1.300000X1.850000*%
%ADD24R,2.000000X2.000000*%
%ADD25C,2.000000*%
%ADD26R,2.400000X4.200000*%
%ADD27R,2.400000X1.900000*%
%ADD28R,1.950000X2.200000*%
%ADD29R,0.850000X1.850000*%
%ADD30C,2.100000*%
%ADD31R,3.900000X3.900000*%
%ADD32R,1.850000X0.850000*%
%ADD33C,3.956000*%
%ADD34R,1.200000X1.200000*%
%ADD35R,0.850000X1.780000*%
%ADD36R,1.875000X2.500000*%
%ADD37R,2.775000X2.300000*%
%ADD38R,1.575000X2.300000*%
%ADD39R,2.300000X2.900000*%
%ADD40R,1.670000X1.370000*%
G04 APERTURE END LIST*
D10*
D11*
X133000000Y-103050000D03*
X133000000Y-104950000D03*
X135000000Y-104000000D03*
D12*
X134750000Y-101000000D03*
X133250000Y-101000000D03*
X134750000Y-107000000D03*
X133250000Y-107000000D03*
X127250000Y-133000000D03*
X128750000Y-133000000D03*
X158250000Y-135000000D03*
X159750000Y-135000000D03*
X132750000Y-133000000D03*
X131250000Y-133000000D03*
X159750000Y-133000000D03*
X158250000Y-133000000D03*
X140250000Y-129000000D03*
X141750000Y-129000000D03*
X140250000Y-123000000D03*
X141750000Y-123000000D03*
X159750000Y-121000000D03*
X158250000Y-121000000D03*
X140250000Y-135000000D03*
X141750000Y-135000000D03*
X166250000Y-121000000D03*
X167750000Y-121000000D03*
D13*
X172720000Y-111760000D03*
D14*
X170180000Y-111760000D03*
X172720000Y-109220000D03*
X170180000Y-109220000D03*
X172720000Y-106680000D03*
X170180000Y-106680000D03*
X172720000Y-104140000D03*
X170180000Y-104140000D03*
D15*
X140250000Y-133000000D03*
X141750000Y-133000000D03*
X140250000Y-131000000D03*
X141750000Y-131000000D03*
X141750000Y-121000000D03*
X140250000Y-121000000D03*
X167750000Y-119000000D03*
X166250000Y-119000000D03*
D16*
X144300000Y-124250000D03*
X144300000Y-124750000D03*
X144300000Y-125250000D03*
X144300000Y-125750000D03*
X144300000Y-126250000D03*
X144300000Y-126750000D03*
X144300000Y-127250000D03*
X144300000Y-127750000D03*
X144300000Y-128250000D03*
X144300000Y-128750000D03*
X144300000Y-129250000D03*
X144300000Y-129750000D03*
X144300000Y-130250000D03*
X144300000Y-130750000D03*
X144300000Y-131250000D03*
X144300000Y-131750000D03*
D17*
X146250000Y-133700000D03*
X146750000Y-133700000D03*
X147250000Y-133700000D03*
X147750000Y-133700000D03*
X148250000Y-133700000D03*
X148750000Y-133700000D03*
X149250000Y-133700000D03*
X149750000Y-133700000D03*
X150250000Y-133700000D03*
X150750000Y-133700000D03*
X151250000Y-133700000D03*
X151750000Y-133700000D03*
X152250000Y-133700000D03*
X152750000Y-133700000D03*
X153250000Y-133700000D03*
X153750000Y-133700000D03*
D16*
X155700000Y-131750000D03*
X155700000Y-131250000D03*
X155700000Y-130750000D03*
X155700000Y-130250000D03*
X155700000Y-129750000D03*
X155700000Y-129250000D03*
X155700000Y-128750000D03*
X155700000Y-128250000D03*
X155700000Y-127750000D03*
X155700000Y-127250000D03*
X155700000Y-126750000D03*
X155700000Y-126250000D03*
X155700000Y-125750000D03*
X155700000Y-125250000D03*
X155700000Y-124750000D03*
X155700000Y-124250000D03*
D17*
X153750000Y-122300000D03*
X153250000Y-122300000D03*
X152750000Y-122300000D03*
X152250000Y-122300000D03*
X151750000Y-122300000D03*
X151250000Y-122300000D03*
X150750000Y-122300000D03*
X150250000Y-122300000D03*
X149750000Y-122300000D03*
X149250000Y-122300000D03*
X148750000Y-122300000D03*
X148250000Y-122300000D03*
X147750000Y-122300000D03*
X147250000Y-122300000D03*
X146750000Y-122300000D03*
X146250000Y-122300000D03*
D18*
X132750000Y-127400000D03*
X127250000Y-127400000D03*
X127250000Y-130600000D03*
X132750000Y-130600000D03*
D19*
X129690000Y-120050000D03*
X129690000Y-121150000D03*
X129690000Y-122250000D03*
X129690000Y-123350000D03*
X129690000Y-118950000D03*
X129690000Y-117850000D03*
X129690000Y-116750000D03*
X129690000Y-115650000D03*
D20*
X128640000Y-114575000D03*
X126050000Y-114575000D03*
D21*
X128200000Y-124975000D03*
D22*
X127050000Y-125200000D03*
D23*
X125900000Y-124975000D03*
D24*
X171000000Y-137000000D03*
D25*
X171000000Y-140500000D03*
D24*
X128750000Y-145000000D03*
D25*
X128750000Y-147500000D03*
D15*
X166250000Y-108000000D03*
X167750000Y-108000000D03*
X166250000Y-110000000D03*
X167750000Y-110000000D03*
X166250000Y-106000000D03*
X167750000Y-106000000D03*
D26*
X143600000Y-142750000D03*
D27*
X149900000Y-142750000D03*
X149900000Y-140450000D03*
X149900000Y-145050000D03*
D28*
X149675000Y-137750000D03*
X147325000Y-137750000D03*
X147313000Y-147966000D03*
X149663000Y-147966000D03*
D15*
X158250000Y-129000000D03*
X159750000Y-129000000D03*
X159750000Y-131000000D03*
X158250000Y-131000000D03*
D29*
X164025000Y-138950000D03*
X164675000Y-138950000D03*
X165325000Y-138950000D03*
X165975000Y-138950000D03*
X165975000Y-133050000D03*
X165325000Y-133050000D03*
X164675000Y-133050000D03*
X164025000Y-133050000D03*
D13*
X159000000Y-103250000D03*
D30*
X159000000Y-105790000D03*
X156460000Y-103250000D03*
X156460000Y-105790000D03*
X153920000Y-103250000D03*
X153920000Y-105790000D03*
X151380000Y-103250000D03*
X151380000Y-105790000D03*
X148840000Y-103250000D03*
X148840000Y-105790000D03*
X146300000Y-103250000D03*
X146300000Y-105790000D03*
X143760000Y-103250000D03*
X143760000Y-105790000D03*
X141220000Y-103250000D03*
X141220000Y-105790000D03*
D12*
X140250000Y-125000000D03*
X141750000Y-125000000D03*
D13*
X129540000Y-104140000D03*
D14*
X129540000Y-106680000D03*
D13*
X127000000Y-109220000D03*
D14*
X129540000Y-109220000D03*
X127000000Y-111760000D03*
X129540000Y-111760000D03*
D31*
X156750000Y-142000000D03*
X156750000Y-148000000D03*
X161450000Y-145000000D03*
D13*
X170180000Y-119380000D03*
D14*
X170180000Y-121920000D03*
X170180000Y-124460000D03*
D13*
X170180000Y-127000000D03*
D14*
X170180000Y-129540000D03*
X170180000Y-132080000D03*
D15*
X134750000Y-125000000D03*
X133250000Y-125000000D03*
X133250000Y-119000000D03*
X134750000Y-119000000D03*
D11*
X133000000Y-111050000D03*
X133000000Y-112950000D03*
X135000000Y-112000000D03*
D15*
X134750000Y-109000000D03*
X133250000Y-109000000D03*
X134750000Y-115000000D03*
X133250000Y-115000000D03*
X134750000Y-117000000D03*
X133250000Y-117000000D03*
D13*
X127000000Y-104140000D03*
D14*
X127000000Y-106680000D03*
D32*
X140050000Y-112075000D03*
X140050000Y-112725000D03*
X140050000Y-113375000D03*
X140050000Y-114025000D03*
X140050000Y-114675000D03*
X140050000Y-115325000D03*
X140050000Y-115975000D03*
X140050000Y-116625000D03*
X140050000Y-117275000D03*
X140050000Y-117925000D03*
X145950000Y-117925000D03*
X145950000Y-117275000D03*
X145950000Y-116625000D03*
X145950000Y-115975000D03*
X145950000Y-115325000D03*
X145950000Y-114675000D03*
X145950000Y-114025000D03*
X145950000Y-113375000D03*
X145950000Y-112725000D03*
X145950000Y-112075000D03*
X154050000Y-112075000D03*
X154050000Y-112725000D03*
X154050000Y-113375000D03*
X154050000Y-114025000D03*
X154050000Y-114675000D03*
X154050000Y-115325000D03*
X154050000Y-115975000D03*
X154050000Y-116625000D03*
X154050000Y-117275000D03*
X154050000Y-117925000D03*
X159950000Y-117925000D03*
X159950000Y-117275000D03*
X159950000Y-116625000D03*
X159950000Y-115975000D03*
X159950000Y-115325000D03*
X159950000Y-114675000D03*
X159950000Y-114025000D03*
X159950000Y-113375000D03*
X159950000Y-112725000D03*
X159950000Y-112075000D03*
D12*
X158750000Y-110500000D03*
X160250000Y-110500000D03*
X144750000Y-110500000D03*
X146250000Y-110500000D03*
D33*
X166710000Y-147000000D03*
X171790000Y-147000000D03*
D34*
X166200000Y-116000000D03*
X167800000Y-116000000D03*
D15*
X167750000Y-114000000D03*
X166250000Y-114000000D03*
D12*
X131250000Y-135000000D03*
X132750000Y-135000000D03*
X128750000Y-135000000D03*
X127250000Y-135000000D03*
D35*
X136700000Y-146340000D03*
X137350000Y-146340000D03*
X138000000Y-146340000D03*
X138650000Y-146340000D03*
X139300000Y-146340000D03*
D36*
X135537500Y-146700000D03*
X140462500Y-146700000D03*
D37*
X135090000Y-149000000D03*
X140910000Y-149000000D03*
D38*
X137160000Y-149000000D03*
X138840000Y-149000000D03*
D15*
X159750000Y-125000000D03*
X158250000Y-125000000D03*
X159750000Y-127000000D03*
X158250000Y-127000000D03*
D39*
X132200000Y-138000000D03*
X127800000Y-138000000D03*
D13*
X141000000Y-138000000D03*
D14*
X138460000Y-138000000D03*
D13*
X172720000Y-119380000D03*
D14*
X172720000Y-121920000D03*
X172720000Y-124460000D03*
X172720000Y-127000000D03*
X172720000Y-129540000D03*
X172720000Y-132080000D03*
D11*
X133000000Y-121050000D03*
X133000000Y-122950000D03*
X135000000Y-122000000D03*
D40*
X135000000Y-142860000D03*
X135000000Y-144140000D03*
M02*
