G04 #@! TF.FileFunction,Soldermask,Bot*
%FSLAX46Y46*%
G04 Gerber Fmt 4.6, Leading zero omitted, Abs format (unit mm)*
G04 Created by KiCad (PCBNEW 4.0.7) date Saturday, November 24, 2018 'AMt' 11:25:14 AM*
%MOMM*%
%LPD*%
G01*
G04 APERTURE LIST*
%ADD10C,0.100000*%
%ADD11R,4.360000X4.360000*%
%ADD12R,5.480000X1.670000*%
%ADD13R,2.100000X2.100000*%
%ADD14O,2.100000X2.100000*%
%ADD15R,2.000000X2.000000*%
%ADD16C,2.000000*%
%ADD17C,2.100000*%
%ADD18R,3.900000X3.900000*%
%ADD19C,3.956000*%
G04 APERTURE END LIST*
D10*
D11*
X128000000Y-131250000D03*
D12*
X128000000Y-120265000D03*
X128000000Y-142235000D03*
D13*
X172720000Y-111760000D03*
D14*
X170180000Y-111760000D03*
X172720000Y-109220000D03*
X170180000Y-109220000D03*
X172720000Y-106680000D03*
X170180000Y-106680000D03*
X172720000Y-104140000D03*
X170180000Y-104140000D03*
D15*
X171000000Y-137000000D03*
D16*
X171000000Y-140500000D03*
D15*
X128750000Y-145000000D03*
D16*
X128750000Y-147500000D03*
D13*
X159000000Y-103250000D03*
D17*
X159000000Y-105790000D03*
X156460000Y-103250000D03*
X156460000Y-105790000D03*
X153920000Y-103250000D03*
X153920000Y-105790000D03*
X151380000Y-103250000D03*
X151380000Y-105790000D03*
X148840000Y-103250000D03*
X148840000Y-105790000D03*
X146300000Y-103250000D03*
X146300000Y-105790000D03*
X143760000Y-103250000D03*
X143760000Y-105790000D03*
X141220000Y-103250000D03*
X141220000Y-105790000D03*
D13*
X129540000Y-104140000D03*
D14*
X129540000Y-106680000D03*
D13*
X127000000Y-109220000D03*
D14*
X129540000Y-109220000D03*
X127000000Y-111760000D03*
X129540000Y-111760000D03*
D18*
X156750000Y-142000000D03*
X156750000Y-148000000D03*
X161450000Y-145000000D03*
D13*
X170180000Y-119380000D03*
D14*
X170180000Y-121920000D03*
X170180000Y-124460000D03*
D13*
X170180000Y-127000000D03*
D14*
X170180000Y-129540000D03*
X170180000Y-132080000D03*
D13*
X127000000Y-104140000D03*
D14*
X127000000Y-106680000D03*
D19*
X166710000Y-147000000D03*
X171790000Y-147000000D03*
D13*
X141000000Y-138000000D03*
D14*
X138460000Y-138000000D03*
D13*
X172720000Y-119380000D03*
D14*
X172720000Y-121920000D03*
X172720000Y-124460000D03*
X172720000Y-127000000D03*
X172720000Y-129540000D03*
X172720000Y-132080000D03*
M02*
