M48
;DRILL file {KiCad 4.0.7} date Saturday, November 24, 2018 'AMt' 11:25:18 AM
;FORMAT={-:-/ absolute / metric / decimal}
FMAT,2
METRIC,TZ
T1C0.356
T2C0.800
T3C1.000
T4C1.778
%
G90
G05
M71
T1
X125.75Y-118.75
X126.Y-120.
X127.Y-122.
X128.Y-115.25
X129.5Y-136.
X130.5Y-131.5
X131.Y-114.5
X131.25Y-119.
X131.25Y-121.25
X132.Y-123.
X133.5Y-142.
X135.75Y-107.
X135.75Y-109.
X135.75Y-112.
X135.75Y-115.
X135.75Y-117.
X135.75Y-119.
X136.Y-101.
X136.Y-104.
X136.Y-144.5
X136.5Y-105.
X136.55Y-103.05
X136.75Y-137.25
X137.75Y-131.
X137.75Y-140.5
X138.5Y-101.
X138.5Y-133.
X138.5Y-141.25
X139.5Y-121.
X139.5Y-123.
X139.5Y-125.
X139.5Y-129.
X141.75Y-111.75
X141.75Y-118.
X141.75Y-136.25
X142.75Y-128.
X142.75Y-129.
X143.Y-122.25
X144.5Y-111.75
X144.5Y-112.75
X144.5Y-114.
X144.5Y-115.25
X145.5Y-124.5
X145.75Y-131.25
X145.75Y-148.5
X146.Y-125.5
X146.Y-137.75
X146.25Y-109.5
X147.25Y-140.5
X147.75Y-114.
X147.75Y-127.5
X147.75Y-129.
X147.75Y-130.5
X147.75Y-132.
X147.75Y-135.25
X148.25Y-128.25
X148.25Y-129.75
X148.25Y-131.25
X148.5Y-115.25
X148.75Y-132.5
X148.75Y-135.25
X149.25Y-116.75
X149.5Y-117.75
X150.Y-130.25
X150.75Y-123.75
X150.75Y-127.5
X151.5Y-136.75
X151.75Y-123.75
X151.75Y-125.75
X151.75Y-142.75
X151.75Y-145.
X152.Y-101.25
X152.25Y-111.75
X152.25Y-131.25
X152.5Y-132.25
X153.25Y-126.75
X154.Y-118.75
X154.Y-119.75
X154.25Y-110.5
X154.25Y-125.25
X154.25Y-126.25
X155.Y-133.75
X155.Y-136.
X155.75Y-117.75
X156.Y-113.25
X156.Y-114.5
X156.Y-116.
X156.Y-121.25
X156.Y-123.5
X156.25Y-118.75
X156.25Y-136.
X157.25Y-128.25
X157.25Y-129.25
X157.25Y-130.25
X157.25Y-131.25
X157.25Y-132.25
X158.25Y-114.
X158.25Y-115.25
X158.5Y-116.5
X158.75Y-109.5
X160.5Y-122.75
X160.75Y-121.
X160.75Y-133.5
X161.25Y-110.5
X161.25Y-122.
X161.5Y-117.75
X161.75Y-128.75
X162.Y-134.75
X162.25Y-131.
X162.75Y-101.25
X162.75Y-123.25
X164.25Y-104.25
X165.Y-126.75
X165.25Y-114.
X165.25Y-119.
X165.25Y-121.
X165.75Y-125.
X167.25Y-138.5
X167.5Y-134.75
X168.Y-122.25
T2
X128.75Y-145.
X128.75Y-147.5
X171.Y-137.
X171.Y-140.5
T3
X127.Y-104.14
X127.Y-106.68
X127.Y-109.22
X127.Y-111.76
X129.54Y-104.14
X129.54Y-106.68
X129.54Y-109.22
X129.54Y-111.76
X138.46Y-138.
X141.Y-138.
X141.22Y-103.25
X141.22Y-105.79
X143.76Y-103.25
X143.76Y-105.79
X146.3Y-103.25
X146.3Y-105.79
X148.84Y-103.25
X148.84Y-105.79
X151.38Y-103.25
X151.38Y-105.79
X153.92Y-103.25
X153.92Y-105.79
X156.46Y-103.25
X156.46Y-105.79
X159.Y-103.25
X159.Y-105.79
X170.18Y-104.14
X170.18Y-106.68
X170.18Y-109.22
X170.18Y-111.76
X170.18Y-119.38
X170.18Y-121.92
X170.18Y-124.46
X170.18Y-127.
X170.18Y-129.54
X170.18Y-132.08
X172.72Y-104.14
X172.72Y-106.68
X172.72Y-109.22
X172.72Y-111.76
X172.72Y-119.38
X172.72Y-121.92
X172.72Y-124.46
X172.72Y-127.
X172.72Y-129.54
X172.72Y-132.08
T4
X166.71Y-147.
X171.79Y-147.
T3
X155.75Y-142.G85X157.75Y-142.
G05
X155.75Y-148.G85X157.75Y-148.
G05
X161.45Y-146.G85X161.45Y-144.
G05
T0
M30
