M48
;DRILL file {KiCad 4.0.7} date Saturday, November 24, 2018 'AMt' 10:53:54 AM
;FORMAT={3:3/ absolute / metric / suppress leading zeros}
FMAT,2
METRIC,TZ
T1C0.356
T2C0.800
T3C1.000
T4C1.778
%
G90
G05
M71
T1
X125750Y-118750
X126000Y-120000
X127000Y-122000
X128000Y-115250
X129500Y-136000
X130500Y-131500
X131000Y-114500
X131250Y-119000
X131250Y-121250
X132000Y-123000
X133500Y-142000
X135750Y-107000
X135750Y-109000
X135750Y-112000
X135750Y-115000
X135750Y-117000
X135750Y-119000
X136000Y-101000
X136000Y-104000
X136000Y-144500
X136500Y-105000
X136550Y-103050
X136750Y-137250
X137750Y-131000
X137750Y-140500
X138500Y-101000
X138500Y-133000
X138500Y-141250
X139500Y-121000
X139500Y-123000
X139500Y-125000
X139500Y-129000
X141750Y-118000
X141750Y-136250
X142750Y-128000
X142750Y-129000
X143000Y-122250
X143750Y-110500
X144500Y-112750
X144500Y-114000
X144500Y-115250
X145500Y-124500
X145750Y-131250
X145750Y-148500
X146000Y-125500
X146000Y-137750
X146250Y-109500
X147250Y-140500
X147750Y-114000
X147750Y-127500
X147750Y-129000
X147750Y-130500
X147750Y-132000
X147750Y-135250
X148250Y-128250
X148250Y-129750
X148250Y-131250
X148500Y-115250
X148750Y-132500
X148750Y-135250
X149250Y-116750
X149500Y-117750
X150000Y-130250
X150750Y-123750
X150750Y-127500
X151500Y-136750
X151750Y-123750
X151750Y-125750
X151750Y-142750
X151750Y-145000
X152000Y-101250
X152250Y-131250
X152500Y-132250
X152750Y-111750
X153250Y-126750
X154000Y-118750
X154000Y-119750
X154250Y-125250
X154250Y-126250
X155000Y-133750
X155000Y-136000
X155750Y-117750
X156000Y-113250
X156000Y-114500
X156000Y-116000
X156000Y-121250
X156000Y-123500
X156250Y-118750
X156250Y-136000
X157250Y-128250
X157250Y-129250
X157250Y-130250
X157250Y-131250
X157250Y-132250
X158250Y-114000
X158250Y-115250
X158500Y-116500
X158750Y-109500
X160500Y-122750
X160750Y-121000
X160750Y-133500
X161250Y-110500
X161250Y-122000
X161500Y-117750
X161750Y-128750
X162000Y-134750
X162250Y-131000
X162750Y-101250
X162750Y-123250
X164250Y-104250
X165000Y-126750
X165250Y-114000
X165250Y-119000
X165250Y-121000
X165750Y-125000
X167250Y-138500
X167500Y-134750
X168000Y-122250
T2
X128750Y-145000
X128750Y-147500
X171000Y-137000
X171000Y-140500
T3
X127000Y-104140
X127000Y-106680
X127000Y-109220
X127000Y-111760
X129540Y-104140
X129540Y-106680
X129540Y-109220
X129540Y-111760
X138460Y-138000
X141000Y-138000
X141220Y-103250
X141220Y-105790
X143760Y-103250
X143760Y-105790
X146300Y-103250
X146300Y-105790
X148840Y-103250
X148840Y-105790
X151380Y-103250
X151380Y-105790
X153920Y-103250
X153920Y-105790
X156460Y-103250
X156460Y-105790
X159000Y-103250
X159000Y-105790
X170180Y-104140
X170180Y-106680
X170180Y-109220
X170180Y-111760
X170180Y-119380
X170180Y-121920
X170180Y-124460
X170180Y-127000
X170180Y-129540
X170180Y-132080
X172720Y-104140
X172720Y-106680
X172720Y-109220
X172720Y-111760
X172720Y-119380
X172720Y-121920
X172720Y-124460
X172720Y-127000
X172720Y-129540
X172720Y-132080
T4
X166710Y-147000
X171790Y-147000
T3
X155750Y-142000G85X157750Y-142000
G05
X155750Y-148000G85X157750Y-148000
G05
X161450Y-146000G85X161450Y-144000
G05
T0
M30
