999
dxflib 3.3.4.0
  0
SECTION
  2
HEADER
  9
$ACADVER
  1
AC1015
  9
$HANDSEED
  5
FFFF
  9
$DIMADEC
 70
0
  9
$DIMASZ
 40
2.5
  9
$DIMAUNIT
 70
0
  9
$DIMAZIN
 70
2
  9
$DIMDEC
 70
4
  9
$DIMEXE
 40
1.25
  9
$DIMEXO
 40
0.625
  9
$DIMGAP
 40
0.625
  9
$DIMLUNIT
 70
2
  9
$DIMTSZ
 40
0.0
  9
$DIMTXT
 40
2.5
  9
$DIMZIN
 70
8
  9
$DWGCODEPAGE
  3
ANSI_1252
  9
$INSUNITS
 70
4
  9
$LTSCALE
 40
1.0
  0
ENDSEC
  0
SECTION
  2
TABLES
  0
TABLE
  2
VPORT
  5
8
100
AcDbSymbolTable
 70
1
  0
VPORT
  5
30
100
AcDbSymbolTableRecord
100
AcDbViewportTableRecord
  2
*Active
 70
0
 10
0.0
 20
0.0
 11
1.0
 21
1.0
 12
286.3055555555554861
 22
148.5
 13
0.0
 23
0.0
 14
10.0
 24
10.0
 15
10.0
 25
10.0
 16
0.0
 26
0.0
 36
1.0
 17
0.0
 27
0.0
 37
0.0
 40
297.0
 41
1.92798353909465
 42
50.0
 43
0.0
 44
0.0
 50
0.0
 51
0.0
 71
0
 72
100
 73
1
 74
3
 75
1
 76
1
 77
0
 78
0
281
0
 65
1
110
0.0
120
0.0
130
0.0
111
1.0
121
0.0
131
0.0
112
0.0
122
1.0
132
0.0
 79
0
146
0.0
  0
ENDTAB
  0
TABLE
  2
LTYPE
  5
5
100
AcDbSymbolTable
 70
21
  0
LTYPE
  5
16
100
AcDbSymbolTableRecord
100
AcDbLinetypeTableRecord
  2
CONTINUOUS
 70
0
  3
Solid line
 72
65
 73
0
 40
0.0
  0
LTYPE
  5
31
100
AcDbSymbolTableRecord
100
AcDbLinetypeTableRecord
  2
CENTER2
 70
0
  3
Center (.5x) ___ _ ___ _ ___ _ ___ _ ___ _ ___
 72
65
 73
4
 40
28.5749999999999993
 49
19.0500000000000007
 74
0
 49
-3.1749999999999998
 74
0
 49
3.1749999999999998
 74
0
 49
-3.1749999999999998
 74
0
  0
LTYPE
  5
32
100
AcDbSymbolTableRecord
100
AcDbLinetypeTableRecord
  2
DIVIDEX2
 70
0
  3
Divide (2x) ________  .  .  ________  .  .  _
 72
65
 73
6
 40
63.5
 49
25.3999999999999986
 74
0
 49
-12.6999999999999993
 74
0
 49
0.0
 74
0
 49
-12.6999999999999993
 74
0
 49
0.0
 74
0
 49
-12.6999999999999993
 74
0
  0
LTYPE
  5
33
100
AcDbSymbolTableRecord
100
AcDbLinetypeTableRecord
  2
DOT2
 70
0
  3
Dot (.5x) .....................................
 72
65
 73
2
 40
3.1749999999999998
 49
0.0
 74
0
 49
-3.1749999999999998
 74
0
  0
LTYPE
  5
34
100
AcDbSymbolTableRecord
100
AcDbLinetypeTableRecord
  2
DASHDOT2
 70
0
  3
Dash dot (.5x) _._._._._._._._._._._._._._._.
 72
65
 73
4
 40
12.6999999999999993
 49
6.3499999999999996
 74
0
 49
-3.1749999999999998
 74
0
 49
0.0
 74
0
 49
-3.1749999999999998
 74
0
  0
LTYPE
  5
35
100
AcDbSymbolTableRecord
100
AcDbLinetypeTableRecord
  2
DIVIDE
 70
0
  3
Divide ____ . . ____ . . ____ . . ____ . . ____
 72
65
 73
6
 40
31.75
 49
12.6999999999999993
 74
0
 49
-6.3499999999999996
 74
0
 49
0.0
 74
0
 49
-6.3499999999999996
 74
0
 49
0.0
 74
0
 49
-6.3499999999999996
 74
0
  0
LTYPE
  5
36
100
AcDbSymbolTableRecord
100
AcDbLinetypeTableRecord
  2
DASHDOT
 70
0
  3
Dash dot __ . __ . __ . __ . __ . __ . __ . __
 72
65
 73
4
 40
25.3999999999999986
 49
12.6999999999999993
 74
0
 49
-6.3499999999999996
 74
0
 49
0.0
 74
0
 49
-6.3499999999999996
 74
0
  0
LTYPE
  5
37
100
AcDbSymbolTableRecord
100
AcDbLinetypeTableRecord
  2
BORDER
 70
0
  3
Border __ __ . __ __ . __ __ . __ __ . __ __ .
 72
65
 73
6
 40
44.4500000000000028
 49
12.6999999999999993
 74
0
 49
-6.3499999999999996
 74
0
 49
12.6999999999999993
 74
0
 49
-6.3499999999999996
 74
0
 49
0.0
 74
0
 49
-6.3499999999999996
 74
0
  0
LTYPE
  5
38
100
AcDbSymbolTableRecord
100
AcDbLinetypeTableRecord
  2
DASHDOTX2
 70
0
  3
Dash dot (2x) ____  .  ____  .  ____  .  ___
 72
65
 73
4
 40
50.7999999999999972
 49
25.3999999999999986
 74
0
 49
-12.6999999999999993
 74
0
 49
0.0
 74
0
 49
-12.6999999999999993
 74
0
  0
LTYPE
  5
39
100
AcDbSymbolTableRecord
100
AcDbLinetypeTableRecord
  2
CENTERX2
 70
0
  3
Center (2x) ________  __  ________  __  _____
 72
65
 73
4
 40
101.5999999999999943
 49
63.5
 74
0
 49
-12.6999999999999993
 74
0
 49
12.6999999999999993
 74
0
 49
-12.6999999999999993
 74
0
  0
LTYPE
  5
3A
100
AcDbSymbolTableRecord
100
AcDbLinetypeTableRecord
  2
BORDER2
 70
0
  3
Border (.5x) __.__.__.__.__.__.__.__.__.__.__.
 72
65
 73
6
 40
22.2250000000000014
 49
6.3499999999999996
 74
0
 49
-3.1749999999999998
 74
0
 49
6.3499999999999996
 74
0
 49
-3.1749999999999998
 74
0
 49
0.0
 74
0
 49
-3.1749999999999998
 74
0
  0
LTYPE
  5
3B
100
AcDbSymbolTableRecord
100
AcDbLinetypeTableRecord
  2
BORDERX2
 70
0
  3
Border (2x) ____  ____  .  ____  ____  .  ___
 72
65
 73
6
 40
88.9000000000000057
 49
25.3999999999999986
 74
0
 49
-12.6999999999999993
 74
0
 49
25.3999999999999986
 74
0
 49
-12.6999999999999993
 74
0
 49
0.0
 74
0
 49
-12.6999999999999993
 74
0
  0
LTYPE
  5
14
100
AcDbSymbolTableRecord
100
AcDbLinetypeTableRecord
  2
BYBLOCK
 70
0
  3

 72
65
 73
0
 40
0.0
  0
LTYPE
  5
15
100
AcDbSymbolTableRecord
100
AcDbLinetypeTableRecord
  2
BYLAYER
 70
0
  3

 72
65
 73
0
 40
0.0
  0
LTYPE
  5
3C
100
AcDbSymbolTableRecord
100
AcDbLinetypeTableRecord
  2
DASHED2
 70
0
  3
Dashed (.5x) _ _ _ _ _ _ _ _ _ _ _ _ _ _ _ _ _
 72
65
 73
2
 40
9.5250000000000004
 49
6.3499999999999996
 74
0
 49
-3.1749999999999998
 74
0
  0
LTYPE
  5
3D
100
AcDbSymbolTableRecord
100
AcDbLinetypeTableRecord
  2
CENTER
 70
0
  3
Center ____ _ ____ _ ____ _ ____ _ ____ _ ____
 72
65
 73
4
 40
50.7999999999999972
 49
31.75
 74
0
 49
-6.3499999999999996
 74
0
 49
6.3499999999999996
 74
0
 49
-6.3499999999999996
 74
0
  0
LTYPE
  5
3E
100
AcDbSymbolTableRecord
100
AcDbLinetypeTableRecord
  2
DIVIDE2
 70
0
  3
Divide (.5x) __..__..__..__..__..__..__..__.._
 72
65
 73
6
 40
15.875
 49
6.3499999999999996
 74
0
 49
-3.1749999999999998
 74
0
 49
0.0
 74
0
 49
-3.1749999999999998
 74
0
 49
0.0
 74
0
 49
-3.1749999999999998
 74
0
  0
LTYPE
  5
3F
100
AcDbSymbolTableRecord
100
AcDbLinetypeTableRecord
  2
DASHED
 70
0
  3
Dashed __ __ __ __ __ __ __ __ __ __ __ __ __ _
 72
65
 73
2
 40
19.0500000000000007
 49
12.6999999999999993
 74
0
 49
-6.3499999999999996
 74
0
  0
LTYPE
  5
40
100
AcDbSymbolTableRecord
100
AcDbLinetypeTableRecord
  2
DOTX2
 70
0
  3
Dot (2x) .  .  .  .  .  .  .  .  .  .  .  .  .
 72
65
 73
2
 40
12.6999999999999993
 49
0.0
 74
0
 49
-12.6999999999999993
 74
0
  0
LTYPE
  5
41
100
AcDbSymbolTableRecord
100
AcDbLinetypeTableRecord
  2
DASHEDX2
 70
0
  3
Dashed (2x) ____  ____  ____  ____  ____  ___
 72
65
 73
2
 40
38.1000000000000014
 49
25.3999999999999986
 74
0
 49
-12.6999999999999993
 74
0
  0
LTYPE
  5
42
100
AcDbSymbolTableRecord
100
AcDbLinetypeTableRecord
  2
DOT
 70
0
  3
Dot . . . . . . . . . . . . . . . . . . . . . .
 72
65
 73
2
 40
6.3499999999999996
 49
0.0
 74
0
 49
-6.3499999999999996
 74
0
  0
ENDTAB
  0
TABLE
  2
LAYER
  5
2
100
AcDbSymbolTable
 70
1
  0
LAYER
  5
10
100
AcDbSymbolTableRecord
100
AcDbLayerTableRecord
  2
0
 70
0
 62
7
420
0
  6
CONTINUOUS
370
25
390
F
  0
ENDTAB
  0
TABLE
  2
STYLE
  5
3
100
AcDbSymbolTable
 70
3
  0
STYLE
  5
43
100
AcDbSymbolTableRecord
100
AcDbTextStyleTableRecord
  2
Standard
 70
0
 40
0.0
 41
1.0
 50
0.0
 71
0
 42
2.5
  3

  4

1001
ACAD
1000
txt
1071
0
  0
STYLE
  5
44
100
AcDbSymbolTableRecord
100
AcDbTextStyleTableRecord
  2
textstyle0
 70
0
 40
0.0
 41
1.0
 50
0.0
 71
0
 42
1.0
  3

  4

1001
ACAD
1000
Liberation Sans
1071
0
  0
STYLE
  5
45
100
AcDbSymbolTableRecord
100
AcDbTextStyleTableRecord
  2
textstyle1
 70
0
 40
0.0
 41
1.0
 50
0.0
 71
0
 42
1.0
  3

  4

1001
ACAD
1000
Liberation Sans
1071
0
  0
ENDTAB
  0
TABLE
  2
VIEW
  5
6
100
AcDbSymbolTable
 70
0
  0
ENDTAB
  0
TABLE
  2
UCS
  5
7
100
AcDbSymbolTable
 70
0
  0
ENDTAB
  0
TABLE
  2
APPID
  5
9
100
AcDbSymbolTable
 70
1
  0
APPID
  5
12
100
AcDbSymbolTableRecord
100
AcDbRegAppTableRecord
  2
ACAD
 70
0
  0
APPID
  5
46
100
AcDbSymbolTableRecord
100
AcDbRegAppTableRecord
  2
QCAD
 70
0
  0
ENDTAB
  0
TABLE
  2
DIMSTYLE
  5
A
100
AcDbSymbolTable
 70
1
100
AcDbDimStyleTable
 71
0
  0
DIMSTYLE
105
27
100
AcDbSymbolTableRecord
100
AcDbDimStyleTableRecord
  2
Standard
 41
2.5
 42
0.625
 43
3.75
 44
1.25
 70
0
 73
0
 74
0
 77
1
 78
8
140
2.5
141
2.5
143
0.03937007874016
147
0.625
171
3
172
1
271
2
272
2
274
3
278
44
283
0
284
8
340
43
  0
ENDTAB
  0
TABLE
  2
BLOCK_RECORD
  5
1
100
AcDbSymbolTable
 70
1
  0
BLOCK_RECORD
  5
1F
100
AcDbSymbolTableRecord
100
AcDbBlockTableRecord
  2
*Model_Space
340
22
  0
BLOCK_RECORD
  5
1B
100
AcDbSymbolTableRecord
100
AcDbBlockTableRecord
  2
*Paper_Space
340
1E
  0
BLOCK_RECORD
  5
23
100
AcDbSymbolTableRecord
100
AcDbBlockTableRecord
  2
*Paper_Space0
340
26
  0
ENDTAB
  0
ENDSEC
  0
SECTION
  2
BLOCKS
  0
BLOCK
  5
20
100
AcDbEntity
  8
0
100
AcDbBlockBegin
  2
*Model_Space
 70
0
 10
0.0
 20
0.0
 30
0.0
  3
*Model_Space
  1

  0
ENDBLK
  5
21
100
AcDbEntity
  8
0
100
AcDbBlockEnd
  0
BLOCK
  5
1C
100
AcDbEntity
 67
1
  8
0
100
AcDbBlockBegin
  2
*Paper_Space
 70
0
 10
0.0
 20
0.0
 30
0.0
  3
*Paper_Space
  1

  0
ENDBLK
  5
1D
100
AcDbEntity
 67
1
  8
0
100
AcDbBlockEnd
  0
BLOCK
  5
24
100
AcDbEntity
  8
0
100
AcDbBlockBegin
  2
*Paper_Space0
 70
0
 10
0.0
 20
0.0
 30
0.0
  3
*Paper_Space0
  1

  0
ENDBLK
  5
25
100
AcDbEntity
  8
0
100
AcDbBlockEnd
  0
ENDSEC
  0
SECTION
  2
ENTITIES
  0
LINE
  5
47
100
AcDbEntity
100
AcDbLine
  8
0
 62
256
370
-1
  6
BYLAYER
 10
50.0
 20
137.5
 30
0.0
 11
130.0
 21
137.5
 31
0.0
  0
LINE
  5
48
100
AcDbEntity
100
AcDbLine
  8
0
 62
256
370
-1
  6
BYLAYER
 10
0.0
 20
0.0
 30
0.0
 11
144.0
 21
0.0
 31
0.0
  0
LINE
  5
49
100
AcDbEntity
100
AcDbLine
  8
0
 62
256
370
-1
  6
BYLAYER
 10
144.0
 20
0.0
 30
0.0
 11
144.0
 21
14.0
 31
0.0
  0
LINE
  5
4A
100
AcDbEntity
100
AcDbLine
  8
0
 62
256
370
-1
  6
BYLAYER
 10
144.0
 20
14.0
 30
0.0
 11
0.0
 21
14.0
 31
0.0
  0
LINE
  5
4B
100
AcDbEntity
100
AcDbLine
  8
0
 62
256
370
-1
  6
BYLAYER
 10
0.0
 20
14.0
 30
0.0
 11
0.0
 21
0.0
 31
0.0
  0
LINE
  5
4C
100
AcDbEntity
100
AcDbLine
  8
0
 62
256
370
-1
  6
BYLAYER
 10
0.0
 20
10.5999999999999996
 30
0.0
 11
6.3999999999999995
 21
10.5999999999999996
 31
0.0
  0
LINE
  5
4D
100
AcDbEntity
100
AcDbLine
  8
0
 62
256
370
-1
  6
BYLAYER
 10
0.0
 20
7.1999999999999993
 30
0.0
 11
1.9999999999999998
 21
7.1999999999999993
 31
0.0
  0
LINE
  5
4E
100
AcDbEntity
100
AcDbLine
  8
0
 62
256
370
-1
  6
BYLAYER
 10
0.0
 20
3.7999999999999989
 30
0.0
 11
1.9999999999999998
 21
3.7999999999999989
 31
0.0
  0
LINE
  5
4F
100
AcDbEntity
100
AcDbLine
  8
0
 62
256
370
-1
  6
BYLAYER
 10
0.0
 20
0.399999999999999
 30
0.0
 11
1.9999999999999998
 21
0.399999999999999
 31
0.0
  0
LINE
  5
50
100
AcDbEntity
100
AcDbLine
  8
0
 62
256
370
-1
  6
BYLAYER
 10
6.3999999999999995
 20
10.5999999999999996
 30
0.0
 11
6.4000000000000057
 21
14.0
 31
0.0
  0
LINE
  5
51
100
AcDbEntity
100
AcDbLine
  8
0
 62
256
370
-1
  6
BYLAYER
 10
6.4000000000000057
 20
14.0
 30
0.0
 11
6.4000000000000066
 21
14.0
 31
0.0
  0
LINE
  5
52
100
AcDbEntity
100
AcDbLine
  8
0
 62
256
370
-1
  6
BYLAYER
 10
6.3999999999999986
 20
10.5999999999999979
 30
0.0
 11
11.9999999999999982
 21
10.5999999999999996
 31
0.0
  0
LINE
  5
53
100
AcDbEntity
100
AcDbLine
  8
0
 62
256
370
-1
  6
BYLAYER
 10
11.9999999999999982
 20
10.5999999999999996
 30
0.0
 11
12.0
 21
14.0
 31
0.0
  0
LINE
  5
54
100
AcDbEntity
100
AcDbLine
  8
0
 62
256
370
-1
  6
BYLAYER
 10
12.0
 20
14.0
 30
0.0
 11
11.9999999999999982
 21
14.0
 31
0.0
  0
DIMENSION
  5
55
100
AcDbEntity
  8
0
 62
256
370
-1
  6
BYLAYER
100
AcDbDimension
 10
6.4000000000000066
 20
20.0
 30
0.0
 11
9.2000000000000028
 21
21.875
 31
0.0
 70
1
 71
8
 72
2
 41
1.0
 42
0.0
  1

  3
Standard
100
AcDbAlignedDimension
 13
6.4000000000000066
 23
14.0
 33
0.0
 14
11.9999999999999982
 24
14.0
 34
0.0
1001
ACAD
1000
DSTYLE
1002
{
1070
144
1040
0
1002
}
  0
DIMENSION
  5
56
100
AcDbEntity
  8
0
 62
256
370
-1
  6
BYLAYER
100
AcDbDimension
 10
6.4000000000000075
 20
28.0
 30
0.0
 11
3.2000000000000042
 21
29.875
 31
0.0
 70
1
 71
8
 72
2
 41
1.0
 42
0.0
  1

  3
Standard
100
AcDbAlignedDimension
 13
6.4000000000000066
 23
14.0
 33
0.0
 14
0.0
 24
14.0
 34
0.0
1001
ACAD
1000
DSTYLE
1002
{
1070
144
1040
0
1002
}
  0
LINE
  5
57
100
AcDbEntity
100
AcDbLine
  8
0
 62
256
370
-1
  6
BYLAYER
 10
18.3999999999999986
 20
10.5999999999999996
 30
0.0
 11
23.9999999999999964
 21
10.6000000000000014
 31
0.0
  0
LINE
  5
58
100
AcDbEntity
100
AcDbLine
  8
0
 62
256
370
-1
  6
BYLAYER
 10
23.9999999999999964
 20
10.6000000000000014
 30
0.0
 11
24.0
 21
14.0000000000000018
 31
0.0
  0
LINE
  5
59
100
AcDbEntity
100
AcDbLine
  8
0
 62
256
370
-1
  6
BYLAYER
 10
11.9999999999999982
 20
10.6000000000000014
 30
0.0
 11
18.3999999999999986
 21
10.6000000000000014
 31
0.0
  0
LINE
  5
5A
100
AcDbEntity
100
AcDbLine
  8
0
 62
256
370
-1
  6
BYLAYER
 10
18.3999999999999986
 20
10.6000000000000014
 30
0.0
 11
18.4000000000000057
 21
14.0000000000000018
 31
0.0
  0
LINE
  5
5B
100
AcDbEntity
100
AcDbLine
  8
0
 62
256
370
-1
  6
BYLAYER
 10
30.399999999999995
 20
10.6000000000000014
 30
0.0
 11
35.9999999999999929
 21
10.6000000000000032
 31
0.0
  0
LINE
  5
5C
100
AcDbEntity
100
AcDbLine
  8
0
 62
256
370
-1
  6
BYLAYER
 10
35.9999999999999929
 20
10.6000000000000032
 30
0.0
 11
36.0
 21
14.0000000000000036
 31
0.0
  0
LINE
  5
5D
100
AcDbEntity
100
AcDbLine
  8
0
 62
256
370
-1
  6
BYLAYER
 10
23.9999999999999964
 20
10.6000000000000032
 30
0.0
 11
30.399999999999995
 21
10.6000000000000032
 31
0.0
  0
LINE
  5
5E
100
AcDbEntity
100
AcDbLine
  8
0
 62
256
370
-1
  6
BYLAYER
 10
30.399999999999995
 20
10.6000000000000032
 30
0.0
 11
30.4000000000000021
 21
14.0000000000000036
 31
0.0
  0
LINE
  5
5F
100
AcDbEntity
100
AcDbLine
  8
0
 62
256
370
-1
  6
BYLAYER
 10
42.3999999999999915
 20
10.6000000000000032
 30
0.0
 11
47.9999999999999929
 21
10.600000000000005
 31
0.0
  0
LINE
  5
60
100
AcDbEntity
100
AcDbLine
  8
0
 62
256
370
-1
  6
BYLAYER
 10
47.9999999999999929
 20
10.600000000000005
 30
0.0
 11
47.9999999999999929
 21
14.0000000000000053
 31
0.0
  0
LINE
  5
61
100
AcDbEntity
100
AcDbLine
  8
0
 62
256
370
-1
  6
BYLAYER
 10
35.9999999999999929
 20
10.600000000000005
 30
0.0
 11
42.3999999999999915
 21
10.600000000000005
 31
0.0
  0
LINE
  5
62
100
AcDbEntity
100
AcDbLine
  8
0
 62
256
370
-1
  6
BYLAYER
 10
42.3999999999999915
 20
10.600000000000005
 30
0.0
 11
42.3999999999999986
 21
14.0000000000000053
 31
0.0
  0
DIMENSION
  5
63
100
AcDbEntity
  8
0
 62
256
370
-1
  6
BYLAYER
100
AcDbDimension
 10
0.0000000000000013
 20
36.0
 30
0.0
 11
23.9999999999999964
 21
37.875
 31
0.0
 70
1
 71
8
 72
2
 41
1.0
 42
0.0
  1

  3
Standard
100
AcDbAlignedDimension
 13
0.0
 23
14.0
 33
0.0
 14
47.9999999999999929
 24
14.0
 34
0.0
1001
ACAD
1000
DSTYLE
1002
{
1070
144
1040
0
1002
}
  0
LINE
  5
64
100
AcDbEntity
100
AcDbLine
  8
0
 62
256
370
-1
  6
BYLAYER
 10
50.0
 20
80.0
 30
0.0
 11
130.0
 21
80.0
 31
0.0
  0
LINE
  5
65
100
AcDbEntity
100
AcDbLine
  8
0
 62
256
370
-1
  6
BYLAYER
 10
130.0
 20
80.0
 30
0.0
 11
130.0
 21
162.9999999999999716
 31
0.0
  0
LINE
  5
66
100
AcDbEntity
100
AcDbLine
  8
0
 62
256
370
-1
  6
BYLAYER
 10
50.0
 20
162.9999999999999716
 30
0.0
 11
50.0
 21
80.0
 31
0.0
  0
LINE
  5
67
100
AcDbEntity
100
AcDbLine
  8
0
 62
256
370
-1
  6
BYLAYER
 10
50.0
 20
88.5000000000000284
 30
0.0
 11
130.0
 21
88.5000000000000284
 31
0.0
  0
LINE
  5
68
100
AcDbEntity
100
AcDbLine
  8
0
 62
256
370
-1
  6
BYLAYER
 10
50.0
 20
97.0
 30
0.0
 11
130.0
 21
97.0
 31
0.0
  0
LINE
  5
69
100
AcDbEntity
100
AcDbLine
  8
0
 62
256
370
-1
  6
BYLAYER
 10
50.0
 20
105.4999999999999716
 30
0.0
 11
130.0
 21
105.4999999999999716
 31
0.0
  0
LINE
  5
6A
100
AcDbEntity
100
AcDbLine
  8
0
 62
256
370
-1
  6
BYLAYER
 10
50.0
 20
113.9999999999999716
 30
0.0
 11
130.0
 21
113.9999999999999716
 31
0.0
  0
LINE
  5
6B
100
AcDbEntity
100
AcDbLine
  8
0
 62
256
370
-1
  6
BYLAYER
 10
50.0
 20
122.5
 30
0.0
 11
130.0
 21
122.5
 31
0.0
  0
LINE
  5
6C
100
AcDbEntity
100
AcDbLine
  8
0
 62
256
370
-1
  6
BYLAYER
 10
50.0
 20
130.9999999999999716
 30
0.0
 11
130.0
 21
130.9999999999999716
 31
0.0
  0
LINE
  5
6D
100
AcDbEntity
100
AcDbLine
  8
0
 62
256
370
-1
  6
BYLAYER
 10
50.0
 20
146.0
 30
0.0
 11
130.0
 21
146.0
 31
0.0
  0
LINE
  5
6E
100
AcDbEntity
100
AcDbLine
  8
0
 62
256
370
-1
  6
BYLAYER
 10
50.0
 20
154.4999999999999432
 30
0.0
 11
130.0
 21
154.4999999999999432
 31
0.0
  0
LINE
  5
6F
100
AcDbEntity
100
AcDbLine
  8
0
 62
256
370
-1
  6
BYLAYER
 10
50.0
 20
162.9999999999999716
 30
0.0
 11
130.0
 21
162.9999999999999716
 31
0.0
  0
LINE
  5
70
100
AcDbEntity
100
AcDbLine
  8
0
 62
256
370
-1
  6
BYLAYER
 10
50.0
 20
133.4999999999999716
 30
0.0
 11
130.0
 21
133.4999999999999716
 31
0.0
  0
LINE
  5
71
100
AcDbEntity
100
AcDbLine
  8
0
 62
256
370
-1
  6
BYLAYER
 10
50.0
 20
134.9999999999999716
 30
0.0
 11
130.0
 21
134.9999999999999716
 31
0.0
  0
LINE
  5
72
100
AcDbEntity
100
AcDbLine
  8
0
 62
256
370
-1
  6
BYLAYER
 10
50.0
 20
133.4999999999999716
 30
0.0
 11
50.0
 21
130.9999999999999716
 31
0.0
  0
LINE
  5
73
100
AcDbEntity
100
AcDbLine
  8
0
 62
256
370
-1
  6
BYLAYER
 10
130.0
 20
133.5
 30
0.0
 11
130.0
 21
130.9999999999999716
 31
0.0
  0
LINE
  5
74
100
AcDbEntity
100
AcDbLine
  8
0
 62
256
370
-1
  6
BYLAYER
 10
130.0
 20
130.9999999999999716
 30
0.0
 11
130.0
 21
130.9999999999999716
 31
0.0
  0
LINE
  5
75
100
AcDbEntity
100
AcDbLine
  8
0
 62
256
370
-1
  6
BYLAYER
 10
130.0
 20
133.5
 30
0.0
 11
130.0
 21
135.0
 31
0.0
  0
LINE
  5
76
100
AcDbEntity
100
AcDbLine
  8
0
 62
256
370
-1
  6
BYLAYER
 10
130.0
 20
135.0
 30
0.0
 11
130.0
 21
134.9999999999999716
 31
0.0
  0
LINE
  5
77
100
AcDbEntity
100
AcDbLine
  8
0
 62
256
370
-1
  6
BYLAYER
 10
130.0
 20
134.9999999999999716
 30
0.0
 11
130.0
 21
134.9999999999999716
 31
0.0
  0
LINE
  5
78
100
AcDbEntity
100
AcDbLine
  8
0
 62
256
370
-1
  6
BYLAYER
 10
130.0
 20
134.9999999999999716
 30
0.0
 11
130.0
 21
137.4999999999999716
 31
0.0
  0
LINE
  5
79
100
AcDbEntity
100
AcDbLine
  8
0
 62
256
370
-1
  6
BYLAYER
 10
130.0
 20
137.4999999999999716
 30
0.0
 11
130.0
 21
137.4999999999999716
 31
0.0
  0
LINE
  5
7A
100
AcDbEntity
100
AcDbLine
  8
0
 62
256
370
-1
  6
BYLAYER
 10
50.0
 20
133.4999999999999716
 30
0.0
 11
50.0
 21
134.9999999999999716
 31
0.0
  0
LINE
  5
7B
100
AcDbEntity
100
AcDbLine
  8
0
 62
256
370
-1
  6
BYLAYER
 10
50.0
 20
134.9999999999999716
 30
0.0
 11
50.0
 21
134.9999999999999716
 31
0.0
  0
LINE
  5
7C
100
AcDbEntity
100
AcDbLine
  8
0
 62
256
370
-1
  6
BYLAYER
 10
50.0
 20
134.9999999999999716
 30
0.0
 11
50.0
 21
137.5
 31
0.0
  0
LINE
  5
7D
100
AcDbEntity
100
AcDbLine
  8
0
 62
256
370
-1
  6
BYLAYER
 10
50.0
 20
137.5
 30
0.0
 11
50.0
 21
137.5
 31
0.0
  0
HATCH
  5
7E
  8
0
 62
252
420
10526884
370
-1
  6
BYLAYER
100
AcDbEntity
100
AcDbHatch
 10
0.0
 20
0.0
 30
0.0
210
0.0
220
0.0
230
1.0
  2
SOLID
 70
1
 71
0
 91
1
 92
1
 93
5
 72
1
 10
50.0
 20
133.4999999999999716
 11
130.0
 21
133.4999999999999716
 72
1
 10
130.0
 20
133.5
 11
130.0
 21
130.9999999999999716
 72
1
 10
130.0
 20
130.9999999999999716
 11
130.0
 21
130.9999999999999716
 72
1
 10
130.0
 20
130.9999999999999716
 11
50.0
 21
130.9999999999999716
 72
1
 10
50.0
 20
130.9999999999999716
 11
50.0
 21
133.4999999999999716
 97
0
 75
0
 76
1
 98
0
1001
ACAD
1010
0.0
1020
0.0
1030
0
  0
HATCH
  5
7F
  8
0
 62
252
420
10526884
370
-1
  6
BYLAYER
100
AcDbEntity
100
AcDbHatch
 10
0.0
 20
0.0
 30
0.0
210
0.0
220
0.0
230
1.0
  2
SOLID
 70
1
 71
0
 91
2
 92
1
 93
8
 72
1
 10
50.0
 20
134.9999999999999716
 11
130.0
 21
134.9999999999999716
 72
1
 10
130.0
 20
134.9999999999999716
 11
130.0
 21
135.0
 72
1
 10
130.0
 20
134.9999999999999716
 11
130.0
 21
134.9999999999999716
 72
1
 10
130.0
 20
134.9999999999999716
 11
130.0
 21
137.4999999999999716
 72
1
 10
130.0
 20
137.4999999999999716
 11
130.0
 21
137.4999999999999716
 72
1
 10
130.0
 20
137.5
 11
50.0
 21
137.5
 72
1
 10
50.0
 20
137.5
 11
50.0
 21
134.9999999999999716
 72
1
 10
50.0
 20
134.9999999999999716
 11
50.0
 21
134.9999999999999716
 97
0
 92
1
 93
1
 72
1
 10
50.0
 20
137.5
 11
50.0
 21
137.5
 97
0
 75
0
 76
1
 98
0
1001
ACAD
1010
0.0
1020
0.0
1030
0
  0
HATCH
  5
80
  8
0
 62
9
420
12632256
370
-1
  6
BYLAYER
100
AcDbEntity
100
AcDbHatch
 10
0.0
 20
0.0
 30
0.0
210
0.0
220
0.0
230
1.0
  2
SOLID
 70
1
 71
0
 91
3
 92
1
 93
4
 72
1
 10
50.0
 20
133.4999999999999716
 11
130.0
 21
133.4999999999999716
 72
1
 10
130.0
 20
133.5
 11
130.0
 21
135.0
 72
1
 10
130.0
 20
134.9999999999999716
 11
50.0
 21
134.9999999999999716
 72
1
 10
50.0
 20
134.9999999999999716
 11
50.0
 21
133.4999999999999716
 97
0
 92
1
 93
2
 72
1
 10
130.0
 20
135.0
 11
130.0
 21
134.9999999999999716
 72
1
 10
130.0
 20
134.9999999999999716
 11
130.0
 21
134.9999999999999716
 97
0
 92
1
 93
1
 72
1
 10
50.0
 20
134.9999999999999716
 11
50.0
 21
134.9999999999999716
 97
0
 75
0
 76
1
 98
0
1001
ACAD
1010
0.0
1020
0.0
1030
0
  0
DIMENSION
  5
81
100
AcDbEntity
  8
0
 62
256
370
-1
  6
BYLAYER
100
AcDbDimension
 10
45.0
 20
80.0
 30
0.0
 11
43.125
 21
84.25
 31
0.0
 70
1
 71
8
 72
2
 41
1.0
 42
0.0
  1

  3
Standard
100
AcDbAlignedDimension
 13
50.0
 23
80.0
 33
0.0
 14
50.0
 24
88.5
 34
0.0
1001
ACAD
1000
DSTYLE
1002
{
1070
144
1040
0
1002
}
  0
DIMENSION
  5
82
100
AcDbEntity
  8
0
 62
256
370
-1
  6
BYLAYER
100
AcDbDimension
 10
45.0
 20
130.9999999999999716
 30
0.0
 11
43.125
 21
136.0694444444444287
 31
0.0
 70
1
 71
8
 72
2
 41
1.0
 42
0.0
  1

  3
Standard
100
AcDbAlignedDimension
 13
50.0
 23
130.9999999999999716
 33
0.0
 14
50.0
 24
133.4999999999999716
 34
0.0
1001
ACAD
1000
DSTYLE
1002
{
1070
144
1040
0
1002
}
  0
DIMENSION
  5
83
100
AcDbEntity
  8
0
 62
256
370
-1
  6
BYLAYER
100
AcDbDimension
 10
45.0
 20
134.9999999999999716
 30
0.0
 11
43.125
 21
140.0694444444444287
 31
0.0
 70
1
 71
8
 72
2
 41
1.0
 42
0.0
  1

  3
Standard
100
AcDbAlignedDimension
 13
50.0
 23
134.9999999999999716
 33
0.0
 14
50.0
 24
137.4999999999999716
 34
0.0
1001
ACAD
1000
DSTYLE
1002
{
1070
144
1040
0
1002
}
  0
DIMENSION
  5
84
100
AcDbEntity
  8
0
 62
256
370
-1
  6
BYLAYER
100
AcDbDimension
 10
48.0
 20
133.4999999999999716
 30
0.0
 11
46.125
 21
137.5694444444444287
 31
0.0
 70
1
 71
8
 72
2
 41
1.0
 42
0.0
  1

  3
Standard
100
AcDbAlignedDimension
 13
50.0
 23
133.4999999999999716
 33
0.0
 14
50.0
 24
134.9999999999999716
 34
0.0
1001
ACAD
1000
DSTYLE
1002
{
1070
144
1040
0
1002
}
  0
DIMENSION
  5
85
100
AcDbEntity
  8
0
 62
256
370
-1
  6
BYLAYER
100
AcDbDimension
 10
50.0
 20
164.9999999999999716
 30
0.0
 11
90.0
 21
166.8749999999999716
 31
0.0
 70
1
 71
8
 72
2
 41
1.0
 42
0.0
  1

  3
Standard
100
AcDbAlignedDimension
 13
50.0
 23
162.9999999999999716
 33
0.0
 14
130.0
 24
162.9999999999999716
 34
0.0
1001
ACAD
1000
DSTYLE
1002
{
1070
144
1040
0
1002
}
  0
DIMENSION
  5
86
100
AcDbEntity
  8
0
 62
256
370
-1
  6
BYLAYER
100
AcDbDimension
 10
135.0
 20
162.9999999999999716
 30
0.0
 11
133.125
 21
121.4999999999999858
 31
0.0
 70
1
 71
8
 72
2
 41
1.0
 42
0.0
  1

  3
Standard
100
AcDbAlignedDimension
 13
130.0
 23
162.9999999999999716
 33
0.0
 14
130.0
 24
80.0
 34
0.0
1001
ACAD
1000
DSTYLE
1002
{
1070
144
1040
0
1002
}
  0
DIMENSION
  5
87
100
AcDbEntity
  8
0
 62
256
370
-1
  6
BYLAYER
100
AcDbDimension
 10
50.0
 20
41.0
 30
0.0
 11
25.0
 21
42.875
 31
0.0
 70
1
 71
8
 72
2
 41
1.0
 42
0.0
  1

  3
Standard
100
AcDbAlignedDimension
 13
50.0
 23
14.0
 33
0.0
 14
0.0
 24
14.0
 34
0.0
1001
ACAD
1000
DSTYLE
1002
{
1070
144
1040
0
1002
}
  0
DIMENSION
  5
88
100
AcDbEntity
  8
0
 62
256
370
-1
  6
BYLAYER
100
AcDbDimension
 10
50.0
 20
41.0
 30
0.0
 11
75.0
 21
42.875
 31
0.0
 70
1
 71
8
 72
2
 41
1.0
 42
0.0
  1

  3
Standard
100
AcDbAlignedDimension
 13
50.0
 23
14.0
 33
0.0
 14
100.0
 24
14.0
 34
0.0
1001
ACAD
1000
DSTYLE
1002
{
1070
144
1040
1
1002
}
  0
LINE
  5
89
100
AcDbEntity
100
AcDbLine
  8
0
 62
256
370
-1
  6
BYLAYER
 10
49.9999999999999929
 20
10.5999999999999996
 30
0.0
 11
56.3999999999999915
 21
10.5999999999999996
 31
0.0
  0
LINE
  5
8A
100
AcDbEntity
100
AcDbLine
  8
0
 62
256
370
-1
  6
BYLAYER
 10
56.3999999999999915
 20
10.5999999999999996
 30
0.0
 11
56.3999999999999986
 21
14.0
 31
0.0
  0
LINE
  5
8B
100
AcDbEntity
100
AcDbLine
  8
0
 62
256
370
-1
  6
BYLAYER
 10
56.3999999999999986
 20
14.0
 30
0.0
 11
56.3999999999999986
 21
14.0
 31
0.0
  0
LINE
  5
8C
100
AcDbEntity
100
AcDbLine
  8
0
 62
256
370
-1
  6
BYLAYER
 10
56.3999999999999915
 20
10.5999999999999979
 30
0.0
 11
61.9999999999999929
 21
10.5999999999999996
 31
0.0
  0
LINE
  5
8D
100
AcDbEntity
100
AcDbLine
  8
0
 62
256
370
-1
  6
BYLAYER
 10
61.9999999999999929
 20
10.5999999999999996
 30
0.0
 11
61.9999999999999929
 21
14.0
 31
0.0
  0
LINE
  5
8E
100
AcDbEntity
100
AcDbLine
  8
0
 62
256
370
-1
  6
BYLAYER
 10
61.9999999999999929
 20
14.0
 30
0.0
 11
61.9999999999999929
 21
14.0
 31
0.0
  0
LINE
  5
8F
100
AcDbEntity
100
AcDbLine
  8
0
 62
256
370
-1
  6
BYLAYER
 10
68.3999999999999915
 20
10.5999999999999996
 30
0.0
 11
73.9999999999999858
 21
10.6000000000000014
 31
0.0
  0
LINE
  5
90
100
AcDbEntity
100
AcDbLine
  8
0
 62
256
370
-1
  6
BYLAYER
 10
73.9999999999999858
 20
10.6000000000000014
 30
0.0
 11
74.0
 21
14.0000000000000018
 31
0.0
  0
LINE
  5
91
100
AcDbEntity
100
AcDbLine
  8
0
 62
256
370
-1
  6
BYLAYER
 10
61.9999999999999929
 20
10.6000000000000014
 30
0.0
 11
68.3999999999999915
 21
10.6000000000000014
 31
0.0
  0
LINE
  5
92
100
AcDbEntity
100
AcDbLine
  8
0
 62
256
370
-1
  6
BYLAYER
 10
68.3999999999999915
 20
10.6000000000000014
 30
0.0
 11
68.4000000000000057
 21
14.0000000000000018
 31
0.0
  0
LINE
  5
93
100
AcDbEntity
100
AcDbLine
  8
0
 62
256
370
-1
  6
BYLAYER
 10
80.3999999999999915
 20
10.6000000000000014
 30
0.0
 11
85.9999999999999858
 21
10.6000000000000032
 31
0.0
  0
LINE
  5
94
100
AcDbEntity
100
AcDbLine
  8
0
 62
256
370
-1
  6
BYLAYER
 10
85.9999999999999858
 20
10.6000000000000032
 30
0.0
 11
86.0
 21
14.0000000000000036
 31
0.0
  0
LINE
  5
95
100
AcDbEntity
100
AcDbLine
  8
0
 62
256
370
-1
  6
BYLAYER
 10
73.9999999999999858
 20
10.6000000000000032
 30
0.0
 11
80.3999999999999915
 21
10.6000000000000032
 31
0.0
  0
LINE
  5
96
100
AcDbEntity
100
AcDbLine
  8
0
 62
256
370
-1
  6
BYLAYER
 10
80.3999999999999915
 20
10.6000000000000032
 30
0.0
 11
80.3999999999999915
 21
14.0000000000000036
 31
0.0
  0
LINE
  5
97
100
AcDbEntity
100
AcDbLine
  8
0
 62
256
370
-1
  6
BYLAYER
 10
92.3999999999999773
 20
10.6000000000000032
 30
0.0
 11
97.9999999999999858
 21
10.600000000000005
 31
0.0
  0
LINE
  5
98
100
AcDbEntity
100
AcDbLine
  8
0
 62
256
370
-1
  6
BYLAYER
 10
97.9999999999999858
 20
10.600000000000005
 30
0.0
 11
97.9999999999999858
 21
14.0000000000000053
 31
0.0
  0
LINE
  5
99
100
AcDbEntity
100
AcDbLine
  8
0
 62
256
370
-1
  6
BYLAYER
 10
85.9999999999999858
 20
10.600000000000005
 30
0.0
 11
92.3999999999999773
 21
10.600000000000005
 31
0.0
  0
LINE
  5
9A
100
AcDbEntity
100
AcDbLine
  8
0
 62
256
370
-1
  6
BYLAYER
 10
92.3999999999999773
 20
10.600000000000005
 30
0.0
 11
92.3999999999999915
 21
14.0000000000000053
 31
0.0
  0
LINE
  5
9B
100
AcDbEntity
100
AcDbLine
  8
0
 62
256
370
-1
  6
BYLAYER
 10
49.9999999999999929
 20
10.5999999999999996
 30
0.0
 11
50.0
 21
14.0
 31
0.0
  0
LINE
  5
9C
100
AcDbEntity
100
AcDbLine
  8
0
 62
256
370
-1
  6
BYLAYER
 10
99.9999999999999858
 20
10.5999999999999996
 30
0.0
 11
100.0
 21
14.0
 31
0.0
  0
LINE
  5
9D
100
AcDbEntity
100
AcDbLine
  8
0
 62
256
370
-1
  6
BYLAYER
 10
99.9999999999999858
 20
10.5999999999999996
 30
0.0
 11
106.3999999999999773
 21
10.5999999999999996
 31
0.0
  0
LINE
  5
9E
100
AcDbEntity
100
AcDbLine
  8
0
 62
256
370
-1
  6
BYLAYER
 10
106.3999999999999773
 20
10.5999999999999996
 30
0.0
 11
106.3999999999999915
 21
14.0
 31
0.0
  0
LINE
  5
9F
100
AcDbEntity
100
AcDbLine
  8
0
 62
256
370
-1
  6
BYLAYER
 10
106.3999999999999915
 20
14.0
 30
0.0
 11
106.3999999999999915
 21
14.0
 31
0.0
  0
LINE
  5
A0
100
AcDbEntity
100
AcDbLine
  8
0
 62
256
370
-1
  6
BYLAYER
 10
106.3999999999999773
 20
10.5999999999999979
 30
0.0
 11
111.9999999999999858
 21
10.5999999999999996
 31
0.0
  0
LINE
  5
A1
100
AcDbEntity
100
AcDbLine
  8
0
 62
256
370
-1
  6
BYLAYER
 10
111.9999999999999858
 20
10.5999999999999996
 30
0.0
 11
111.9999999999999858
 21
14.0
 31
0.0
  0
LINE
  5
A2
100
AcDbEntity
100
AcDbLine
  8
0
 62
256
370
-1
  6
BYLAYER
 10
111.9999999999999858
 20
14.0
 30
0.0
 11
111.9999999999999858
 21
14.0
 31
0.0
  0
LINE
  5
A3
100
AcDbEntity
100
AcDbLine
  8
0
 62
256
370
-1
  6
BYLAYER
 10
118.3999999999999773
 20
10.5999999999999996
 30
0.0
 11
123.9999999999999716
 21
10.6000000000000014
 31
0.0
  0
LINE
  5
A4
100
AcDbEntity
100
AcDbLine
  8
0
 62
256
370
-1
  6
BYLAYER
 10
123.9999999999999716
 20
10.6000000000000014
 30
0.0
 11
124.0
 21
14.0000000000000018
 31
0.0
  0
LINE
  5
A5
100
AcDbEntity
100
AcDbLine
  8
0
 62
256
370
-1
  6
BYLAYER
 10
111.9999999999999858
 20
10.6000000000000014
 30
0.0
 11
118.3999999999999773
 21
10.6000000000000014
 31
0.0
  0
LINE
  5
A6
100
AcDbEntity
100
AcDbLine
  8
0
 62
256
370
-1
  6
BYLAYER
 10
118.3999999999999773
 20
10.6000000000000014
 30
0.0
 11
118.4000000000000057
 21
14.0000000000000018
 31
0.0
  0
LINE
  5
A7
100
AcDbEntity
100
AcDbLine
  8
0
 62
256
370
-1
  6
BYLAYER
 10
130.3999999999999773
 20
10.6000000000000014
 30
0.0
 11
135.9999999999999716
 21
10.6000000000000032
 31
0.0
  0
LINE
  5
A8
100
AcDbEntity
100
AcDbLine
  8
0
 62
256
370
-1
  6
BYLAYER
 10
135.9999999999999716
 20
10.6000000000000032
 30
0.0
 11
136.0
 21
14.0000000000000036
 31
0.0
  0
LINE
  5
A9
100
AcDbEntity
100
AcDbLine
  8
0
 62
256
370
-1
  6
BYLAYER
 10
123.9999999999999716
 20
10.6000000000000032
 30
0.0
 11
130.3999999999999773
 21
10.6000000000000032
 31
0.0
  0
LINE
  5
AA
100
AcDbEntity
100
AcDbLine
  8
0
 62
256
370
-1
  6
BYLAYER
 10
130.3999999999999773
 20
10.6000000000000032
 30
0.0
 11
130.3999999999999773
 21
14.0000000000000036
 31
0.0
  0
LINE
  5
AB
100
AcDbEntity
100
AcDbLine
  8
0
 62
256
370
-1
  6
BYLAYER
 10
135.9999999999999716
 20
10.600000000000005
 30
0.0
 11
142.3999999999999773
 21
10.600000000000005
 31
0.0
  0
LINE
  5
AC
100
AcDbEntity
100
AcDbLine
  8
0
 62
256
370
-1
  6
BYLAYER
 10
142.3999999999999773
 20
10.600000000000005
 30
0.0
 11
142.3999999999999773
 21
14.0000000000000053
 31
0.0
  0
LINE
  5
AD
100
AcDbEntity
100
AcDbLine
  8
0
 62
256
370
-1
  6
BYLAYER
 10
59.0
 20
170.0
 30
0.0
 11
129.0
 21
170.0
 31
0.0
  0
LINE
  5
AE
100
AcDbEntity
100
AcDbLine
  8
0
 62
256
370
-1
  6
BYLAYER
 10
129.0
 20
170.0
 30
0.0
 11
129.0
 21
178.5
 31
0.0
  0
LINE
  5
AF
100
AcDbEntity
100
AcDbLine
  8
0
 62
256
370
-1
  6
BYLAYER
 10
59.0
 20
178.5
 30
0.0
 11
59.0
 21
170.0
 31
0.0
  0
LINE
  5
B0
100
AcDbEntity
100
AcDbLine
  8
0
 62
256
370
-1
  6
BYLAYER
 10
129.0
 20
185.0
 30
0.0
 11
129.0
 21
193.5
 31
0.0
  0
LINE
  5
B1
100
AcDbEntity
100
AcDbLine
  8
0
 62
256
370
-1
  6
BYLAYER
 10
129.0
 20
193.5
 30
0.0
 11
59.0
 21
193.5
 31
0.0
  0
LINE
  5
B2
100
AcDbEntity
100
AcDbLine
  8
0
 62
256
370
-1
  6
BYLAYER
 10
59.0
 20
193.5
 30
0.0
 11
59.0
 21
185.0
 31
0.0
  0
LINE
  5
B3
100
AcDbEntity
100
AcDbLine
  8
0
 62
256
370
-1
  6
BYLAYER
 10
59.0
 20
178.5
 30
0.0
 11
129.0
 21
178.5
 31
0.0
  0
DIMENSION
  5
B4
100
AcDbEntity
  8
0
 62
256
370
-1
  6
BYLAYER
100
AcDbDimension
 10
54.0
 20
182.5
 30
0.0
 11
52.125
 21
187.5694444444444571
 31
0.0
 70
1
 71
8
 72
2
 41
1.0
 42
0.0
  1

  3
Standard
100
AcDbAlignedDimension
 13
59.0
 23
182.5
 33
0.0
 14
59.0
 24
185.0
 34
0.0
1001
ACAD
1000
DSTYLE
1002
{
1070
144
1040
0
1002
}
  0
LINE
  5
B5
100
AcDbEntity
100
AcDbLine
  8
0
 62
256
370
-1
  6
BYLAYER
 10
59.0
 20
185.0000000000000284
 30
0.0
 11
129.0
 21
185.0
 31
0.0
  0
LINE
  5
B6
100
AcDbEntity
100
AcDbLine
  8
0
 62
256
370
-1
  6
BYLAYER
 10
59.0
 20
181.0
 30
0.0
 11
129.0
 21
181.0
 31
0.0
  0
LINE
  5
B7
100
AcDbEntity
100
AcDbLine
  8
0
 62
256
370
-1
  6
BYLAYER
 10
59.0
 20
182.5
 30
0.0
 11
129.0
 21
182.5
 31
0.0
  0
LINE
  5
B8
100
AcDbEntity
100
AcDbLine
  8
0
 62
256
370
-1
  6
BYLAYER
 10
59.0
 20
181.0
 30
0.0
 11
59.0
 21
178.5
 31
0.0
  0
LINE
  5
B9
100
AcDbEntity
100
AcDbLine
  8
0
 62
256
370
-1
  6
BYLAYER
 10
129.0
 20
181.0000000000000284
 30
0.0
 11
129.0
 21
178.5
 31
0.0
  0
LINE
  5
BA
100
AcDbEntity
100
AcDbLine
  8
0
 62
256
370
-1
  6
BYLAYER
 10
129.0
 20
178.5
 30
0.0
 11
129.0
 21
178.5
 31
0.0
  0
LINE
  5
BB
100
AcDbEntity
100
AcDbLine
  8
0
 62
256
370
-1
  6
BYLAYER
 10
129.0
 20
181.0000000000000284
 30
0.0
 11
129.0
 21
182.5000000000000284
 31
0.0
  0
LINE
  5
BC
100
AcDbEntity
100
AcDbLine
  8
0
 62
256
370
-1
  6
BYLAYER
 10
129.0
 20
182.5000000000000284
 30
0.0
 11
129.0
 21
182.5
 31
0.0
  0
LINE
  5
BD
100
AcDbEntity
100
AcDbLine
  8
0
 62
256
370
-1
  6
BYLAYER
 10
129.0
 20
182.5
 30
0.0
 11
129.0
 21
182.5
 31
0.0
  0
LINE
  5
BE
100
AcDbEntity
100
AcDbLine
  8
0
 62
256
370
-1
  6
BYLAYER
 10
129.0
 20
182.5
 30
0.0
 11
129.0
 21
185.0
 31
0.0
  0
LINE
  5
BF
100
AcDbEntity
100
AcDbLine
  8
0
 62
256
370
-1
  6
BYLAYER
 10
129.0
 20
185.0
 30
0.0
 11
129.0
 21
185.0
 31
0.0
  0
HATCH
  5
C0
  8
0
 62
252
420
10526884
370
-1
  6
BYLAYER
100
AcDbEntity
100
AcDbHatch
 10
0.0
 20
0.0
 30
0.0
210
0.0
220
0.0
230
1.0
  2
SOLID
 70
1
 71
0
 91
2
 92
1
 93
8
 72
1
 10
59.0
 20
182.5
 11
129.0
 21
182.5
 72
1
 10
129.0
 20
182.5
 11
129.0
 21
182.5
 72
1
 10
129.0
 20
182.5
 11
129.0
 21
182.5
 72
1
 10
129.0
 20
182.5
 11
129.0
 21
185.0
 72
1
 10
129.0
 20
185.0
 11
129.0
 21
185.0
 72
1
 10
129.0
 20
185.0
 11
59.0
 21
185.0000000000000284
 72
1
 10
59.0
 20
185.0000000000000284
 11
59.0
 21
182.5
 72
1
 10
59.0
 20
182.5
 11
59.0
 21
182.5
 97
0
 92
1
 93
1
 72
1
 10
59.0
 20
185.0000000000000284
 11
59.0
 21
185.0000000000000284
 97
0
 75
0
 76
1
 98
0
1001
ACAD
1010
0.0
1020
0.0
1030
0
  0
LINE
  5
C1
100
AcDbEntity
100
AcDbLine
  8
0
 62
256
370
-1
  6
BYLAYER
 10
59.0
 20
181.0
 30
0.0
 11
59.0
 21
182.5
 31
0.0
  0
HATCH
  5
C2
  8
0
 62
9
420
12632256
370
-1
  6
BYLAYER
100
AcDbEntity
100
AcDbHatch
 10
0.0
 20
0.0
 30
0.0
210
0.0
220
0.0
230
1.0
  2
SOLID
 70
1
 71
0
 91
3
 92
1
 93
4
 72
1
 10
59.0
 20
181.0
 11
129.0
 21
181.0
 72
1
 10
129.0
 20
181.0
 11
129.0
 21
182.5
 72
1
 10
129.0
 20
182.5
 11
59.0
 21
182.5
 72
1
 10
59.0
 20
182.5
 11
59.0
 21
181.0
 97
0
 92
1
 93
2
 72
1
 10
129.0
 20
182.5
 11
129.0
 21
182.5
 72
1
 10
129.0
 20
182.5
 11
129.0
 21
182.5
 97
0
 92
1
 93
1
 72
1
 10
59.0
 20
182.5
 11
59.0
 21
182.5
 97
0
 75
0
 76
1
 98
0
1001
ACAD
1010
0.0
1020
0.0
1030
0
  0
LINE
  5
C3
100
AcDbEntity
100
AcDbLine
  8
0
 62
256
370
-1
  6
BYLAYER
 10
59.0
 20
182.5
 30
0.0
 11
59.0
 21
182.5
 31
0.0
  0
HATCH
  5
C4
  8
0
 62
252
420
10526884
370
-1
  6
BYLAYER
100
AcDbEntity
100
AcDbHatch
 10
0.0
 20
0.0
 30
0.0
210
0.0
220
0.0
230
1.0
  2
SOLID
 70
1
 71
0
 91
1
 92
1
 93
5
 72
1
 10
59.0
 20
181.0
 11
129.0
 21
181.0
 72
1
 10
129.0
 20
181.0
 11
129.0
 21
178.5
 72
1
 10
129.0
 20
178.5
 11
129.0
 21
178.5
 72
1
 10
129.0
 20
178.5
 11
59.0
 21
178.5
 72
1
 10
59.0
 20
178.5
 11
59.0
 21
181.0
 97
0
 75
0
 76
1
 98
0
1001
ACAD
1010
0.0
1020
0.0
1030
0
  0
LINE
  5
C5
100
AcDbEntity
100
AcDbLine
  8
0
 62
256
370
-1
  6
BYLAYER
 10
59.0
 20
182.5
 30
0.0
 11
59.0
 21
185.0000000000000284
 31
0.0
  0
LINE
  5
C6
100
AcDbEntity
100
AcDbLine
  8
0
 62
256
370
-1
  6
BYLAYER
 10
59.0
 20
185.0000000000000284
 30
0.0
 11
59.0
 21
185.0000000000000284
 31
0.0
  0
DIMENSION
  5
C7
100
AcDbEntity
  8
0
 62
256
370
-1
  6
BYLAYER
100
AcDbDimension
 10
52.3898709372477356
 20
178.5
 30
0.0
 11
50.5148709372477356
 21
174.25
 31
0.0
 70
1
 71
8
 72
2
 41
1.0
 42
0.0
  1

  3
Standard
100
AcDbAlignedDimension
 13
59.0
 23
178.5
 33
0.0
 14
59.0
 24
170.0
 34
0.0
1001
ACAD
1000
DSTYLE
1002
{
1070
144
1040
0
1002
}
  0
DIMENSION
  5
C8
100
AcDbEntity
  8
0
 62
256
370
-1
  6
BYLAYER
100
AcDbDimension
 10
59.0
 20
200.0
 30
0.0
 11
94.0
 21
201.875
 31
0.0
 70
1
 71
8
 72
2
 41
1.0
 42
0.0
  1

  3
Standard
100
AcDbAlignedDimension
 13
59.0
 23
193.5
 33
0.0
 14
129.0
 24
193.5
 34
0.0
1001
ACAD
1000
DSTYLE
1002
{
1070
144
1040
0
1002
}
  0
DIMENSION
  5
C9
100
AcDbEntity
  8
0
 62
256
370
-1
  6
BYLAYER
100
AcDbDimension
 10
132.9999999999999716
 20
193.5
 30
0.0
 11
131.1249999999999716
 21
181.75
 31
0.0
 70
1
 71
8
 72
2
 41
1.0
 42
0.0
  1

  3
Standard
100
AcDbAlignedDimension
 13
129.0
 23
193.5
 33
0.0
 14
129.0
 24
170.0
 34
0.0
1001
ACAD
1000
DSTYLE
1002
{
1070
144
1040
0
1002
}
  0
MTEXT
  5
CA
100
AcDbEntity
100
AcDbMText
  8
0
 62
256
370
-1
  6
BYLAYER
 10
89.0
 20
190.0
 30
0.0
 40
1.0
 41
0.0
 71
1
 72
1
  1
\H2;Snare
  7
textstyle0
 50
0.0
 73
2
 44
1.0
  0
MTEXT
  5
CB
100
AcDbEntity
100
AcDbMText
  8
0
 62
256
370
-1
  6
BYLAYER
 10
90.0
 20
150.0
 30
0.0
 40
1.0
 41
0.0
 71
1
 72
1
  1
\H2;Tom / Bass
  7
textstyle1
 50
0.0
 73
2
 44
1.0
  0
ENDSEC
  0
SECTION
  2
OBJECTS
  0
DICTIONARY
  5
C
100
AcDbDictionary
280
0
281
1
  3
ACAD_GROUP
350
D
  3
ACAD_LAYOUT
350
1A
  3
ACAD_MLINESTYLE
350
17
  3
ACAD_PLOTSETTINGS
350
19
  3
ACAD_PLOTSTYLENAME
350
E
  3
AcDbVariableDictionary
350
CC
  3
QCAD_OBJECTS
350
CD
  0
DICTIONARY
  5
D
100
AcDbDictionary
280
0
281
1
  0
ACDBDICTIONARYWDFLT
  5
E
100
AcDbDictionary
281
1
  3
Normal
350
F
100
AcDbDictionaryWithDefault
340
F
  0
ACDBPLACEHOLDER
  5
F
  0
DICTIONARY
  5
17
100
AcDbDictionary
280
0
281
1
  3
Standard
350
18
  0
MLINESTYLE
  5
18
100
AcDbMlineStyle
  2
STANDARD
 70
0
  3

 62
256
 51
90.0
 52
90.0
 71
2
 49
0.5
 62
256
  6
BYLAYER
 49
-0.5
 62
256
  6
BYLAYER
  0
DICTIONARY
  5
19
100
AcDbDictionary
280
0
281
1
  0
DICTIONARY
  5
1A
100
AcDbDictionary
281
1
  3
Layout1
350
1E
  3
Layout2
350
26
  3
Model
350
22
  0
LAYOUT
  5
1E
100
AcDbPlotSettings
  1

  2
none_device
  4

  6

 40
0.0
 41
0.0
 42
0.0
 43
0.0
 44
0.0
 45
0.0
 46
0.0
 47
0.0
 48
0.0
 49
0.0
140
0.0
141
0.0
142
1.0
143
1.0
 70
688
 72
0
 73
0
 74
5
  7

 75
16
147
1.0
148
0.0
149
0.0
100
AcDbLayout
  1
Layout1
 70
1
 71
1
 10
0.0
 20
0.0
 11
420.0
 21
297.0
 12
0.0
 22
0.0
 32
0.0
 14
100000000000000000000.0
 24
100000000000000000000.0
 34
100000000000000000000.0
 15
-100000000000000000000.0
 25
-100000000000000000000.0
 35
-100000000000000000000.0
146
0.0
 13
0.0
 23
0.0
 33
0.0
 16
1.0
 26
0.0
 36
0.0
 17
0.0
 27
1.0
 37
0.0
 76
0
330
1B
  0
LAYOUT
  5
22
100
AcDbPlotSettings
  1

  2
none_device
  4

  6

 40
0.0
 41
0.0
 42
0.0
 43
0.0
 44
0.0
 45
0.0
 46
0.0
 47
0.0
 48
0.0
 49
0.0
140
0.0
141
0.0
142
1.0
143
1.0
 70
1712
 72
0
 73
0
 74
0
  7

 75
0
147
1.0
148
0.0
149
0.0
100
AcDbLayout
  1
Model
 70
1
 71
0
 10
0.0
 20
0.0
 11
12.0
 21
9.0
 12
0.0
 22
0.0
 32
0.0
 14
0.0
 24
0.0
 34
0.0
 15
0.0
 25
0.0
 35
0.0
146
0.0
 13
0.0
 23
0.0
 33
0.0
 16
1.0
 26
0.0
 36
0.0
 17
0.0
 27
1.0
 37
0.0
 76
0
330
1F
  0
LAYOUT
  5
26
100
AcDbPlotSettings
  1

  2
none_device
  4

  6

 40
0.0
 41
0.0
 42
0.0
 43
0.0
 44
0.0
 45
0.0
 46
0.0
 47
0.0
 48
0.0
 49
0.0
140
0.0
141
0.0
142
1.0
143
1.0
 70
688
 72
0
 73
0
 74
5
  7

 75
16
147
1.0
148
0.0
149
0.0
100
AcDbLayout
  1
Layout2
 70
1
 71
2
 10
0.0
 20
0.0
 11
12.0
 21
9.0
 12
0.0
 22
0.0
 32
0.0
 14
0.0
 24
0.0
 34
0.0
 15
0.0
 25
0.0
 35
0.0
146
0.0
 13
0.0
 23
0.0
 33
0.0
 16
1.0
 26
0.0
 36
0.0
 17
0.0
 27
1.0
 37
0.0
 76
0
330
23
  0
DICTIONARY
  5
CC
100
AcDbDictionary
281
1
  3
DIMASSOC
350
CF
  3
HIDETEXT
350
CE
  0
DICTIONARYVAR
  5
CE
100
DictionaryVariables
280
0
  1
2
  0
DICTIONARYVAR
  5
CF
100
DictionaryVariables
280
0
  1
1
  0
DICTIONARY
  5
CD
100
AcDbDictionary
281
1
  3
Grid/DisplayGrid00
350
D0
  3
Grid/DisplayGrid01
350
D1
  3
Grid/DisplayGrid02
350
D2
  3
Grid/DisplayGrid03
350
D3
  3
Grid/GridSpacingX00
350
D4
  3
Grid/GridSpacingX01
350
D5
  3
Grid/GridSpacingX02
350
D6
  3
Grid/GridSpacingX03
350
D7
  3
Grid/GridSpacingY00
350
D8
  3
Grid/GridSpacingY01
350
D9
  3
Grid/GridSpacingY02
350
DA
  3
Grid/GridSpacingY03
350
DB
  3
Grid/IsometricGrid00
350
DC
  3
Grid/IsometricGrid01
350
DD
  3
Grid/IsometricGrid02
350
DE
  3
Grid/IsometricGrid03
350
DF
  3
Grid/IsometricProjection00
350
E0
  3
Grid/IsometricProjection01
350
E1
  3
Grid/IsometricProjection02
350
E2
  3
Grid/IsometricProjection03
350
E3
  3
Grid/MetaGridSpacingX00
350
E4
  3
Grid/MetaGridSpacingX01
350
E5
  3
Grid/MetaGridSpacingX02
350
E6
  3
Grid/MetaGridSpacingX03
350
E7
  3
Grid/MetaGridSpacingY00
350
E8
  3
Grid/MetaGridSpacingY01
350
E9
  3
Grid/MetaGridSpacingY02
350
EA
  3
Grid/MetaGridSpacingY03
350
EB
  3
MultiPageSettings/Columns
350
EC
  3
MultiPageSettings/GlueMarginsBottom
350
ED
  3
MultiPageSettings/GlueMarginsLeft
350
EE
  3
MultiPageSettings/GlueMarginsRight
350
EF
  3
MultiPageSettings/GlueMarginsTop
350
F0
  3
MultiPageSettings/PrintCropMarks
350
F1
  3
MultiPageSettings/Rows
350
F2
  3
PageSettings/OffsetX
350
F3
  3
PageSettings/OffsetY
350
F4
  3
PageSettings/PageOrientation
350
F5
  3
PageSettings/PaperHeight
350
F6
  3
PageSettings/PaperWidth
350
F7
  3
PageSettings/Scale
350
F8
  3
PageSettings/ShowPaperBorders
350
F9
  3
UnitSettings/PaperUnit
350
FA
  0
XRECORD
  5
D0
330
CD
100
AcDbXrecord
280
1
290
1
  0
XRECORD
  5
D1
330
CD
100
AcDbXrecord
280
1
290
1
  0
XRECORD
  5
D2
330
CD
100
AcDbXrecord
280
1
290
1
  0
XRECORD
  5
D3
330
CD
100
AcDbXrecord
280
1
290
1
  0
XRECORD
  5
D4
330
CD
100
AcDbXrecord
280
1
1000
auto
  0
XRECORD
  5
D5
330
CD
100
AcDbXrecord
280
1
1000
auto
  0
XRECORD
  5
D6
330
CD
100
AcDbXrecord
280
1
1000
auto
  0
XRECORD
  5
D7
330
CD
100
AcDbXrecord
280
1
1000
auto
  0
XRECORD
  5
D8
330
CD
100
AcDbXrecord
280
1
1000
auto
  0
XRECORD
  5
D9
330
CD
100
AcDbXrecord
280
1
1000
auto
  0
XRECORD
  5
DA
330
CD
100
AcDbXrecord
280
1
1000
auto
  0
XRECORD
  5
DB
330
CD
100
AcDbXrecord
280
1
1000
auto
  0
XRECORD
  5
DC
330
CD
100
AcDbXrecord
280
1
290
0
  0
XRECORD
  5
DD
330
CD
100
AcDbXrecord
280
1
290
0
  0
XRECORD
  5
DE
330
CD
100
AcDbXrecord
280
1
290
0
  0
XRECORD
  5
DF
330
CD
100
AcDbXrecord
280
1
290
0
  0
XRECORD
  5
E0
330
CD
100
AcDbXrecord
280
1
 90
0
  0
XRECORD
  5
E1
330
CD
100
AcDbXrecord
280
1
 90
0
  0
XRECORD
  5
E2
330
CD
100
AcDbXrecord
280
1
 90
0
  0
XRECORD
  5
E3
330
CD
100
AcDbXrecord
280
1
 90
0
  0
XRECORD
  5
E4
330
CD
100
AcDbXrecord
280
1
1000
auto
  0
XRECORD
  5
E5
330
CD
100
AcDbXrecord
280
1
1000
auto
  0
XRECORD
  5
E6
330
CD
100
AcDbXrecord
280
1
1000
auto
  0
XRECORD
  5
E7
330
CD
100
AcDbXrecord
280
1
1000
auto
  0
XRECORD
  5
E8
330
CD
100
AcDbXrecord
280
1
1000
auto
  0
XRECORD
  5
E9
330
CD
100
AcDbXrecord
280
1
1000
auto
  0
XRECORD
  5
EA
330
CD
100
AcDbXrecord
280
1
1000
auto
  0
XRECORD
  5
EB
330
CD
100
AcDbXrecord
280
1
1000
auto
  0
XRECORD
  5
EC
330
CD
100
AcDbXrecord
280
1
 90
1
  0
XRECORD
  5
ED
330
CD
100
AcDbXrecord
280
1
 40
10.0
  0
XRECORD
  5
EE
330
CD
100
AcDbXrecord
280
1
 40
10.0
  0
XRECORD
  5
EF
330
CD
100
AcDbXrecord
280
1
 40
10.0
  0
XRECORD
  5
F0
330
CD
100
AcDbXrecord
280
1
 40
10.0
  0
XRECORD
  5
F1
330
CD
100
AcDbXrecord
280
1
290
0
  0
XRECORD
  5
F2
330
CD
100
AcDbXrecord
280
1
 90
1
  0
XRECORD
  5
F3
330
CD
100
AcDbXrecord
280
1
 40
-27.2436402585599886
  0
XRECORD
  5
F4
330
CD
100
AcDbXrecord
280
1
 40
-29.7203348275199879
  0
XRECORD
  5
F5
330
CD
100
AcDbXrecord
280
1
1000
Portrait
  0
XRECORD
  5
F6
330
CD
100
AcDbXrecord
280
1
 40
279.3999999999999773
  0
XRECORD
  5
F7
330
CD
100
AcDbXrecord
280
1
 40
215.9000000000000057
  0
XRECORD
  5
F8
330
CD
100
AcDbXrecord
280
1
1000
1:1
  0
XRECORD
  5
F9
330
CD
100
AcDbXrecord
280
1
290
1
  0
XRECORD
  5
FA
330
CD
100
AcDbXrecord
280
1
 90
4
  0
ENDSEC
  0
EOF
