999
dxflib 3.3.4.0
  0
SECTION
  2
HEADER
  9
$ACADVER
  1
AC1015
  9
$HANDSEED
  5
FFFF
  9
$DIMADEC
 70
0
  9
$DIMASZ
 40
2.5
  9
$DIMAUNIT
 70
0
  9
$DIMAZIN
 70
2
  9
$DIMDEC
 70
4
  9
$DIMEXE
 40
1.25
  9
$DIMEXO
 40
0.625
  9
$DIMGAP
 40
0.625
  9
$DIMLUNIT
 70
2
  9
$DIMTSZ
 40
0.0
  9
$DIMTXT
 40
2.5
  9
$DIMZIN
 70
8
  9
$DWGCODEPAGE
  3
ANSI_1252
  9
$INSUNITS
 70
4
  9
$LTSCALE
 40
1.0
  0
ENDSEC
  0
SECTION
  2
TABLES
  0
TABLE
  2
VPORT
  5
8
100
AcDbSymbolTable
 70
1
  0
VPORT
  5
30
100
AcDbSymbolTableRecord
100
AcDbViewportTableRecord
  2
*Active
 70
0
 10
0.0
 20
0.0
 11
1.0
 21
1.0
 12
286.3055555555554861
 22
148.5
 13
0.0
 23
0.0
 14
10.0
 24
10.0
 15
10.0
 25
10.0
 16
0.0
 26
0.0
 36
1.0
 17
0.0
 27
0.0
 37
0.0
 40
297.0
 41
1.92798353909465
 42
50.0
 43
0.0
 44
0.0
 50
0.0
 51
0.0
 71
0
 72
100
 73
1
 74
3
 75
1
 76
1
 77
0
 78
0
281
0
 65
1
110
0.0
120
0.0
130
0.0
111
1.0
121
0.0
131
0.0
112
0.0
122
1.0
132
0.0
 79
0
146
0.0
  0
ENDTAB
  0
TABLE
  2
LTYPE
  5
5
100
AcDbSymbolTable
 70
21
  0
LTYPE
  5
16
100
AcDbSymbolTableRecord
100
AcDbLinetypeTableRecord
  2
CONTINUOUS
 70
0
  3
Solid line
 72
65
 73
0
 40
0.0
  0
LTYPE
  5
31
100
AcDbSymbolTableRecord
100
AcDbLinetypeTableRecord
  2
CENTER2
 70
0
  3
Center (.5x) ___ _ ___ _ ___ _ ___ _ ___ _ ___
 72
65
 73
4
 40
28.5749999999999993
 49
19.0500000000000007
 74
0
 49
-3.1749999999999998
 74
0
 49
3.1749999999999998
 74
0
 49
-3.1749999999999998
 74
0
  0
LTYPE
  5
32
100
AcDbSymbolTableRecord
100
AcDbLinetypeTableRecord
  2
DIVIDEX2
 70
0
  3
Divide (2x) ________  .  .  ________  .  .  _
 72
65
 73
6
 40
63.5
 49
25.3999999999999986
 74
0
 49
-12.6999999999999993
 74
0
 49
0.0
 74
0
 49
-12.6999999999999993
 74
0
 49
0.0
 74
0
 49
-12.6999999999999993
 74
0
  0
LTYPE
  5
33
100
AcDbSymbolTableRecord
100
AcDbLinetypeTableRecord
  2
DOT2
 70
0
  3
Dot (.5x) .....................................
 72
65
 73
2
 40
3.1749999999999998
 49
0.0
 74
0
 49
-3.1749999999999998
 74
0
  0
LTYPE
  5
34
100
AcDbSymbolTableRecord
100
AcDbLinetypeTableRecord
  2
DASHDOT2
 70
0
  3
Dash dot (.5x) _._._._._._._._._._._._._._._.
 72
65
 73
4
 40
12.6999999999999993
 49
6.3499999999999996
 74
0
 49
-3.1749999999999998
 74
0
 49
0.0
 74
0
 49
-3.1749999999999998
 74
0
  0
LTYPE
  5
35
100
AcDbSymbolTableRecord
100
AcDbLinetypeTableRecord
  2
DIVIDE
 70
0
  3
Divide ____ . . ____ . . ____ . . ____ . . ____
 72
65
 73
6
 40
31.75
 49
12.6999999999999993
 74
0
 49
-6.3499999999999996
 74
0
 49
0.0
 74
0
 49
-6.3499999999999996
 74
0
 49
0.0
 74
0
 49
-6.3499999999999996
 74
0
  0
LTYPE
  5
36
100
AcDbSymbolTableRecord
100
AcDbLinetypeTableRecord
  2
DASHDOT
 70
0
  3
Dash dot __ . __ . __ . __ . __ . __ . __ . __
 72
65
 73
4
 40
25.3999999999999986
 49
12.6999999999999993
 74
0
 49
-6.3499999999999996
 74
0
 49
0.0
 74
0
 49
-6.3499999999999996
 74
0
  0
LTYPE
  5
37
100
AcDbSymbolTableRecord
100
AcDbLinetypeTableRecord
  2
BORDER
 70
0
  3
Border __ __ . __ __ . __ __ . __ __ . __ __ .
 72
65
 73
6
 40
44.4500000000000028
 49
12.6999999999999993
 74
0
 49
-6.3499999999999996
 74
0
 49
12.6999999999999993
 74
0
 49
-6.3499999999999996
 74
0
 49
0.0
 74
0
 49
-6.3499999999999996
 74
0
  0
LTYPE
  5
38
100
AcDbSymbolTableRecord
100
AcDbLinetypeTableRecord
  2
DASHDOTX2
 70
0
  3
Dash dot (2x) ____  .  ____  .  ____  .  ___
 72
65
 73
4
 40
50.7999999999999972
 49
25.3999999999999986
 74
0
 49
-12.6999999999999993
 74
0
 49
0.0
 74
0
 49
-12.6999999999999993
 74
0
  0
LTYPE
  5
39
100
AcDbSymbolTableRecord
100
AcDbLinetypeTableRecord
  2
CENTERX2
 70
0
  3
Center (2x) ________  __  ________  __  _____
 72
65
 73
4
 40
101.5999999999999943
 49
63.5
 74
0
 49
-12.6999999999999993
 74
0
 49
12.6999999999999993
 74
0
 49
-12.6999999999999993
 74
0
  0
LTYPE
  5
3A
100
AcDbSymbolTableRecord
100
AcDbLinetypeTableRecord
  2
BORDER2
 70
0
  3
Border (.5x) __.__.__.__.__.__.__.__.__.__.__.
 72
65
 73
6
 40
22.2250000000000014
 49
6.3499999999999996
 74
0
 49
-3.1749999999999998
 74
0
 49
6.3499999999999996
 74
0
 49
-3.1749999999999998
 74
0
 49
0.0
 74
0
 49
-3.1749999999999998
 74
0
  0
LTYPE
  5
3B
100
AcDbSymbolTableRecord
100
AcDbLinetypeTableRecord
  2
BORDERX2
 70
0
  3
Border (2x) ____  ____  .  ____  ____  .  ___
 72
65
 73
6
 40
88.9000000000000057
 49
25.3999999999999986
 74
0
 49
-12.6999999999999993
 74
0
 49
25.3999999999999986
 74
0
 49
-12.6999999999999993
 74
0
 49
0.0
 74
0
 49
-12.6999999999999993
 74
0
  0
LTYPE
  5
14
100
AcDbSymbolTableRecord
100
AcDbLinetypeTableRecord
  2
BYBLOCK
 70
0
  3

 72
65
 73
0
 40
0.0
  0
LTYPE
  5
15
100
AcDbSymbolTableRecord
100
AcDbLinetypeTableRecord
  2
BYLAYER
 70
0
  3

 72
65
 73
0
 40
0.0
  0
LTYPE
  5
3C
100
AcDbSymbolTableRecord
100
AcDbLinetypeTableRecord
  2
DASHED2
 70
0
  3
Dashed (.5x) _ _ _ _ _ _ _ _ _ _ _ _ _ _ _ _ _
 72
65
 73
2
 40
9.5250000000000004
 49
6.3499999999999996
 74
0
 49
-3.1749999999999998
 74
0
  0
LTYPE
  5
3D
100
AcDbSymbolTableRecord
100
AcDbLinetypeTableRecord
  2
CENTER
 70
0
  3
Center ____ _ ____ _ ____ _ ____ _ ____ _ ____
 72
65
 73
4
 40
50.7999999999999972
 49
31.75
 74
0
 49
-6.3499999999999996
 74
0
 49
6.3499999999999996
 74
0
 49
-6.3499999999999996
 74
0
  0
LTYPE
  5
3E
100
AcDbSymbolTableRecord
100
AcDbLinetypeTableRecord
  2
DIVIDE2
 70
0
  3
Divide (.5x) __..__..__..__..__..__..__..__.._
 72
65
 73
6
 40
15.875
 49
6.3499999999999996
 74
0
 49
-3.1749999999999998
 74
0
 49
0.0
 74
0
 49
-3.1749999999999998
 74
0
 49
0.0
 74
0
 49
-3.1749999999999998
 74
0
  0
LTYPE
  5
3F
100
AcDbSymbolTableRecord
100
AcDbLinetypeTableRecord
  2
DASHED
 70
0
  3
Dashed __ __ __ __ __ __ __ __ __ __ __ __ __ _
 72
65
 73
2
 40
19.0500000000000007
 49
12.6999999999999993
 74
0
 49
-6.3499999999999996
 74
0
  0
LTYPE
  5
40
100
AcDbSymbolTableRecord
100
AcDbLinetypeTableRecord
  2
DOTX2
 70
0
  3
Dot (2x) .  .  .  .  .  .  .  .  .  .  .  .  .
 72
65
 73
2
 40
12.6999999999999993
 49
0.0
 74
0
 49
-12.6999999999999993
 74
0
  0
LTYPE
  5
41
100
AcDbSymbolTableRecord
100
AcDbLinetypeTableRecord
  2
DASHEDX2
 70
0
  3
Dashed (2x) ____  ____  ____  ____  ____  ___
 72
65
 73
2
 40
38.1000000000000014
 49
25.3999999999999986
 74
0
 49
-12.6999999999999993
 74
0
  0
LTYPE
  5
42
100
AcDbSymbolTableRecord
100
AcDbLinetypeTableRecord
  2
DOT
 70
0
  3
Dot . . . . . . . . . . . . . . . . . . . . . .
 72
65
 73
2
 40
6.3499999999999996
 49
0.0
 74
0
 49
-6.3499999999999996
 74
0
  0
ENDTAB
  0
TABLE
  2
LAYER
  5
2
100
AcDbSymbolTable
 70
1
  0
LAYER
  5
10
100
AcDbSymbolTableRecord
100
AcDbLayerTableRecord
  2
0
 70
0
 62
7
420
0
  6
CONTINUOUS
370
25
390
F
  0
ENDTAB
  0
TABLE
  2
STYLE
  5
3
100
AcDbSymbolTable
 70
6
  0
STYLE
  5
43
100
AcDbSymbolTableRecord
100
AcDbTextStyleTableRecord
  2
Standard
 70
0
 40
0.0
 41
1.0
 50
0.0
 71
0
 42
2.5
  3

  4

1001
ACAD
1000
txt
1071
0
  0
STYLE
  5
44
100
AcDbSymbolTableRecord
100
AcDbTextStyleTableRecord
  2
textstyle0
 70
0
 40
0.0
 41
1.0
 50
0.0
 71
0
 42
2.5
  3

  4

1001
ACAD
1000
Liberation Sans
1071
0
  0
STYLE
  5
45
100
AcDbSymbolTableRecord
100
AcDbTextStyleTableRecord
  2
textstyle1
 70
0
 40
0.0
 41
1.0
 50
0.0
 71
0
 42
2.5
  3

  4

1001
ACAD
1000
Liberation Sans
1071
0
  0
STYLE
  5
46
100
AcDbSymbolTableRecord
100
AcDbTextStyleTableRecord
  2
textstyle2
 70
0
 40
0.0
 41
1.0
 50
0.0
 71
0
 42
2.5
  3

  4

1001
ACAD
1000
Liberation Sans
1071
0
  0
STYLE
  5
47
100
AcDbSymbolTableRecord
100
AcDbTextStyleTableRecord
  2
textstyle3
 70
0
 40
0.0
 41
1.0
 50
0.0
 71
0
 42
2.5
  3

  4

1001
ACAD
1000
Liberation Sans
1071
0
  0
STYLE
  5
48
100
AcDbSymbolTableRecord
100
AcDbTextStyleTableRecord
  2
textstyle4
 70
0
 40
0.0
 41
1.0
 50
0.0
 71
0
 42
2.5
  3

  4

1001
ACAD
1000
Liberation Sans
1071
0
  0
ENDTAB
  0
TABLE
  2
VIEW
  5
6
100
AcDbSymbolTable
 70
0
  0
ENDTAB
  0
TABLE
  2
UCS
  5
7
100
AcDbSymbolTable
 70
0
  0
ENDTAB
  0
TABLE
  2
APPID
  5
9
100
AcDbSymbolTable
 70
1
  0
APPID
  5
12
100
AcDbSymbolTableRecord
100
AcDbRegAppTableRecord
  2
ACAD
 70
0
  0
APPID
  5
49
100
AcDbSymbolTableRecord
100
AcDbRegAppTableRecord
  2
QCAD
 70
0
  0
ENDTAB
  0
TABLE
  2
DIMSTYLE
  5
A
100
AcDbSymbolTable
 70
1
100
AcDbDimStyleTable
 71
0
  0
DIMSTYLE
105
27
100
AcDbSymbolTableRecord
100
AcDbDimStyleTableRecord
  2
Standard
 41
2.5
 42
0.625
 43
3.75
 44
1.25
 70
0
 73
0
 74
0
 77
1
 78
8
140
2.5
141
2.5
143
0.03937007874016
147
0.625
171
3
172
1
271
2
272
2
274
3
278
44
283
0
284
8
340
43
  0
ENDTAB
  0
TABLE
  2
BLOCK_RECORD
  5
1
100
AcDbSymbolTable
 70
1
  0
BLOCK_RECORD
  5
1F
100
AcDbSymbolTableRecord
100
AcDbBlockTableRecord
  2
*Model_Space
340
22
  0
BLOCK_RECORD
  5
1B
100
AcDbSymbolTableRecord
100
AcDbBlockTableRecord
  2
*Paper_Space
340
1E
  0
BLOCK_RECORD
  5
23
100
AcDbSymbolTableRecord
100
AcDbBlockTableRecord
  2
*Paper_Space0
340
26
  0
ENDTAB
  0
ENDSEC
  0
SECTION
  2
BLOCKS
  0
BLOCK
  5
20
100
AcDbEntity
  8
0
100
AcDbBlockBegin
  2
*Model_Space
 70
0
 10
0.0
 20
0.0
 30
0.0
  3
*Model_Space
  1

  0
ENDBLK
  5
21
100
AcDbEntity
  8
0
100
AcDbBlockEnd
  0
BLOCK
  5
1C
100
AcDbEntity
 67
1
  8
0
100
AcDbBlockBegin
  2
*Paper_Space
 70
0
 10
0.0
 20
0.0
 30
0.0
  3
*Paper_Space
  1

  0
ENDBLK
  5
1D
100
AcDbEntity
 67
1
  8
0
100
AcDbBlockEnd
  0
BLOCK
  5
24
100
AcDbEntity
  8
0
100
AcDbBlockBegin
  2
*Paper_Space0
 70
0
 10
0.0
 20
0.0
 30
0.0
  3
*Paper_Space0
  1

  0
ENDBLK
  5
25
100
AcDbEntity
  8
0
100
AcDbBlockEnd
  0
ENDSEC
  0
SECTION
  2
ENTITIES
  0
LINE
  5
4A
100
AcDbEntity
100
AcDbLine
  8
0
 62
9
420
12632256
370
-1
  6
BYLAYER
 10
14.1999999999999975
 20
104.0
 30
0.0
 11
14.1999999999999975
 21
106.0
 31
0.0
  0
LINE
  5
4B
100
AcDbEntity
100
AcDbLine
  8
0
 62
9
420
12632256
370
-1
  6
BYLAYER
 10
10.1999999999999993
 20
104.0
 30
0.0
 11
10.1999999999999993
 21
106.0
 31
0.0
  0
LINE
  5
4C
100
AcDbEntity
100
AcDbLine
  8
0
 62
256
370
-1
  6
DOT2
 10
11.2999999999999989
 20
104.0
 30
0.0
 11
11.2999999999999989
 21
94.0
 31
0.0
  0
LINE
  5
4D
100
AcDbEntity
100
AcDbLine
  8
0
 62
256
370
-1
  6
BYLAYER
 10
11.2999999999999989
 20
106.0
 30
0.0
 11
13.2999999999999989
 21
106.0
 31
0.0
  0
LINE
  5
4E
100
AcDbEntity
100
AcDbLine
  8
0
 62
256
370
-1
  6
DOT2
 10
13.2999999999999989
 20
106.0
 30
0.0
 11
13.2999999999999989
 21
111.0
 31
0.0
  0
LINE
  5
4F
100
AcDbEntity
100
AcDbLine
  8
0
 62
256
370
-1
  6
DOT2
 10
13.2999999999999989
 20
111.0
 30
0.0
 11
11.2999999999999989
 21
111.0
 31
0.0
  0
LINE
  5
50
100
AcDbEntity
100
AcDbLine
  8
0
 62
256
370
-1
  6
DOT2
 10
11.2999999999999989
 20
111.0
 30
0.0
 11
11.2999999999999989
 21
106.0
 31
0.0
  0
LINE
  5
51
100
AcDbEntity
100
AcDbLine
  8
0
 62
256
370
-1
  6
BYLAYER
 10
15.7999999999999989
 20
100.0
 30
0.0
 11
15.7999999999999989
 21
106.0
 31
0.0
  0
LINE
  5
52
100
AcDbEntity
100
AcDbLine
  8
0
 62
256
370
-1
  6
BYLAYER
 10
15.7999999999999989
 20
106.0
 30
0.0
 11
8.8000000000000007
 21
106.0
 31
0.0
  0
LINE
  5
53
100
AcDbEntity
100
AcDbLine
  8
0
 62
256
370
-1
  6
BYLAYER
 10
8.8000000000000007
 20
106.0
 30
0.0
 11
8.8000000000000007
 21
100.0
 31
0.0
  0
LINE
  5
54
100
AcDbEntity
100
AcDbLine
  8
0
 62
256
370
-1
  6
BYLAYER
 10
15.4749999999999996
 20
106.0
 30
0.0
 11
9.125
 21
106.0
 31
0.0
  0
LINE
  5
55
100
AcDbEntity
100
AcDbLine
  8
0
 62
256
370
-1
  6
BYLAYER
 10
8.7999999999999989
 20
104.0
 30
0.0
 11
15.7999999999999989
 21
104.0
 31
0.0
  0
LINE
  5
56
100
AcDbEntity
100
AcDbLine
  8
0
 62
256
370
-1
  6
BYLAYER
 10
10.1999999999999993
 20
106.0
 30
0.0
 11
10.1999999999999993
 21
106.0
 31
0.0
  0
LINE
  5
57
100
AcDbEntity
100
AcDbLine
  8
0
 62
256
370
-1
  6
BYLAYER
 10
14.1999999999999975
 20
106.0
 30
0.0
 11
14.1999999999999975
 21
106.0
 31
0.0
  0
LINE
  5
58
100
AcDbEntity
100
AcDbLine
  8
0
 62
256
370
-1
  6
BYLAYER
 10
9.3000000000000007
 20
94.0
 30
0.0
 11
15.2999999999999989
 21
94.0
 31
0.0
  0
LINE
  5
59
100
AcDbEntity
100
AcDbLine
  8
0
 62
256
370
-1
  6
BYLAYER
 10
15.2999999999999989
 20
94.0
 30
0.0
 11
15.2999999999999989
 21
104.0
 31
0.0
  0
LINE
  5
5A
100
AcDbEntity
100
AcDbLine
  8
0
 62
256
370
-1
  6
BYLAYER
 10
15.2999999999999989
 20
104.0
 30
0.0
 11
9.3000000000000007
 21
104.0
 31
0.0
  0
LINE
  5
5B
100
AcDbEntity
100
AcDbLine
  8
0
 62
256
370
-1
  6
BYLAYER
 10
9.3000000000000007
 20
104.0
 30
0.0
 11
9.3000000000000007
 21
94.0
 31
0.0
  0
LINE
  5
5C
100
AcDbEntity
100
AcDbLine
  8
0
 62
256
370
-1
  6
DOT2
 10
13.2999999999999989
 20
94.0
 30
0.0
 11
13.2999999999999989
 21
104.0
 31
0.0
  0
LINE
  5
5D
100
AcDbEntity
100
AcDbLine
  8
0
 62
256
370
-1
  6
BYLAYER
 10
13.2999999999999989
 20
104.0
 30
0.0
 11
11.2999999999999989
 21
104.0
 31
0.0
  0
LINE
  5
5E
100
AcDbEntity
100
AcDbLine
  8
0
 62
256
370
-1
  6
DOT2
 10
3.0
 20
112.0
 30
0.0
 11
31.9680550879952534
 21
112.0359747085488209
 31
0.0
  0
LINE
  5
5F
100
AcDbEntity
100
AcDbLine
  8
0
 62
256
370
-1
  6
DOT2
 10
32.0
 20
119.9999999999999147
 30
0.0
 11
5.0
 21
120.0
 31
0.0
  0
LINE
  5
60
100
AcDbEntity
100
AcDbLine
  8
0
 62
256
370
-1
  6
BYLAYER
 10
0.0
 20
100.0
 30
0.0
 11
50.0
 21
100.0
 31
0.0
  0
LINE
  5
61
100
AcDbEntity
100
AcDbLine
  8
0
 62
256
370
-1
  6
BYLAYER
 10
47.0
 20
100.0
 30
0.0
 11
47.0
 21
100.0
 31
0.0
  0
LINE
  5
62
100
AcDbEntity
100
AcDbLine
  8
0
 62
256
370
-1
  6
BYLAYER
 10
21.8999999999999986
 20
100.0
 30
0.0
 11
21.8999999999999986
 21
100.0
 31
0.0
  0
LINE
  5
63
100
AcDbEntity
100
AcDbLine
  8
0
 62
256
370
-1
  6
BYLAYER
 10
21.8999999999999986
 20
103.1800000000000068
 30
0.0
 11
21.8999999999999986
 21
103.1800000000000068
 31
0.0
  0
LINE
  5
64
100
AcDbEntity
100
AcDbLine
  8
0
 62
256
370
-1
  6
DOT2
 10
18.0
 20
120.0
 30
0.0
 11
18.0
 21
120.9999999999999858
 31
0.0
  0
LINE
  5
65
100
AcDbEntity
100
AcDbLine
  8
0
 62
256
370
-1
  6
BYLAYER
 10
32.0
 20
117.0
 30
0.0
 11
32.0
 21
117.0
 31
0.0
  0
SPLINE
  5
66
  8
0
 62
256
370
-1
  6
BYLAYER
100
AcDbEntity
100
AcDbSpline
 70
8
 71
3
 72
17
 73
13
 74
0
 40
0.0
 40
0.0
 40
0.0
 40
0.0
 40
1.0
 40
2.0
 40
3.0
 40
4.0
 40
5.0
 40
6.0
 40
7.0
 40
8.0
 40
9.0
 40
10.0
 40
10.0
 40
10.0
 40
10.0
 10
1.0
 20
99.9999999999999147
 30
0.0
 10
1.0
 20
111.9999999999999147
 30
0.0
 10
2.0
 20
124.9999999999999147
 30
0.0
 10
7.0
 20
126.9999999999999147
 30
0.0
 10
22.0
 20
126.9999999999999147
 30
0.0
 10
35.0
 20
121.9999999999999147
 30
0.0
 10
39.0
 20
116.9999999999999147
 30
0.0
 10
45.0
 20
108.9999999999999147
 30
0.0
 10
49.0
 20
99.9999999999999147
 30
0.0
 10
49.0
 20
99.9999999999999147
 30
0.0
 10
49.0
 20
99.9999999999999147
 30
0.0
 10
49.0
 20
99.9999999999999147
 30
0.0
 10
49.0
 20
99.9999999999999147
 30
0.0
  0
SPLINE
  5
67
  8
0
 62
256
370
-1
  6
DOT2
100
AcDbEntity
100
AcDbSpline
 70
8
 71
3
 72
9
 73
5
 74
0
 40
0.0
 40
0.0
 40
0.0
 40
0.0
 40
1.0
 40
2.0
 40
2.0
 40
2.0
 40
2.0
 10
18.0
 20
120.9999999999999858
 30
0.0
 10
28.0
 20
120.9999999999999147
 30
0.0
 10
32.0
 20
120.9999999999999147
 30
0.0
 10
32.0
 20
117.0
 30
0.0
 10
32.0
 20
100.0
 30
0.0
  0
LINE
  5
68
100
AcDbEntity
100
AcDbLine
  8
0
 62
256
370
-1
  6
BYLAYER
 10
69.9000000000000057
 20
99.9999999999999005
 30
0.0
 11
97.0000000000000284
 21
99.999999999999801
 31
0.0
  0
CIRCLE
  5
69
100
AcDbEntity
100
AcDbCircle
  8
0
 62
256
370
-1
  6
BYLAYER
 10
83.0
 20
115.9999999999999147
 30
0.0
 40
4.0
  0
LINE
  5
6A
100
AcDbEntity
100
AcDbLine
  8
0
 62
256
370
-1
  6
BYLAYER
 10
0.0
 20
100.0
 30
0.0
 11
0.0
 21
129.9999999999999147
 31
0.0
  0
LINE
  5
6B
100
AcDbEntity
100
AcDbLine
  8
0
 62
256
370
-1
  6
BYLAYER
 10
0.0
 20
129.9999999999999147
 30
0.0
 11
50.0
 21
129.9999999999999147
 31
0.0
  0
LINE
  5
6C
100
AcDbEntity
100
AcDbLine
  8
0
 62
256
370
-1
  6
BYLAYER
 10
50.0
 20
129.9999999999999147
 30
0.0
 11
50.0
 21
100.0
 31
0.0
  0
LINE
  5
6D
100
AcDbEntity
100
AcDbLine
  8
0
 62
256
370
-1
  6
BYLAYER
 10
47.0
 20
100.0
 30
0.0
 11
47.0
 21
100.0
 31
0.0
  0
LINE
  5
6E
100
AcDbEntity
100
AcDbLine
  8
0
 62
256
370
-1
  6
BYLAYER
 10
69.9000000000000057
 20
99.9999999999999005
 30
0.0
 11
69.9000000000000057
 21
129.9999999999998863
 31
0.0
  0
LINE
  5
6F
100
AcDbEntity
100
AcDbLine
  8
0
 62
256
370
-1
  6
BYLAYER
 10
96.9000000000000057
 20
129.9999999999998863
 30
0.0
 11
96.9000000000000057
 21
99.9999999999998863
 31
0.0
  0
LINE
  5
70
100
AcDbEntity
100
AcDbLine
  8
0
 62
256
370
-1
  6
BYLAYER
 10
94.0
 20
99.9999999999999147
 30
0.0
 11
94.0
 21
100.0000000000000426
 31
0.0
  0
DIMENSION
  5
71
100
AcDbEntity
  8
0
 62
256
370
-1
  6
BYLAYER
100
AcDbDimension
 10
12.2999999999999972
 20
90.0
 30
0.0
 11
25.0
 21
91.875
 31
0.0
 70
1
 71
8
 72
2
 41
1.0
 42
0.0
  1

  3
Standard
100
AcDbAlignedDimension
 13
12.2999999999999972
 23
93.0
 33
0.0
 14
37.7000000000000028
 24
93.0
 34
0.0
1001
ACAD
1000
DSTYLE
1002
{
1070
144
1040
1
1002
}
  0
DIMENSION
  5
72
100
AcDbEntity
  8
0
 62
256
370
-1
  6
BYLAYER
100
AcDbDimension
 10
-3.0
 20
120.0
 30
0.0
 11
-4.8749999999999964
 21
128.7152777777777715
 31
0.0
 70
1
 71
8
 72
2
 41
1.0
 42
0.0
  1
5/16" Drill
  3
Standard
100
AcDbAlignedDimension
 13
6.0
 23
120.0
 33
0.0
 14
6.0
 24
112.0
 34
0.0
1001
ACAD
1000
DSTYLE
1002
{
1070
144
1040
1
1002
}
  0
LINE
  5
73
100
AcDbEntity
100
AcDbLine
  8
0
 62
256
370
-1
  6
BYLAYER
 10
3.0
 20
112.0
 30
0.0
 11
3.0
 21
120.0
 31
0.0
  0
DIMENSION
  5
74
100
AcDbEntity
  8
0
 62
256
370
-1
  6
BYLAYER
100
AcDbDimension
 10
-1.0
 20
100.0
 30
0.0
 11
-2.875
 21
108.0
 31
0.0
 70
1
 71
8
 72
2
 41
1.0
 42
0.0
  1

  3
Standard
100
AcDbAlignedDimension
 13
3.0
 23
100.0
 33
0.0
 14
3.0
 24
116.0
 34
0.0
1001
ACAD
1000
DSTYLE
1002
{
1070
144
1040
1
1002
}
  0
DIMENSION
  5
75
100
AcDbEntity
  8
0
 62
256
370
-1
  6
BYLAYER
100
AcDbDimension
 10
26.0
 20
100.0
 30
0.0
 11
24.125
 21
105.5
 31
0.0
 70
1
 71
8
 72
2
 41
1.0
 42
0.0
  1

  3
Standard
100
AcDbAlignedDimension
 13
12.2999999999999972
 23
100.0
 33
0.0
 14
12.2999999999999989
 24
111.0
 34
0.0
1001
ACAD
1000
DSTYLE
1002
{
1070
144
1040
1
1002
}
  0
DIMENSION
  5
76
100
AcDbEntity
  8
0
 62
256
370
-1
  6
BYLAYER
100
AcDbDimension
 10
12.2999999999999972
 20
90.0
 30
0.0
 11
6.1499999999999977
 21
91.875
 31
0.0
 70
1
 71
8
 72
2
 41
1.0
 42
0.0
  1

  3
Standard
100
AcDbAlignedDimension
 13
12.2999999999999989
 23
104.0
 33
0.0
 14
0.0
 24
104.0
 34
0.0
1001
ACAD
1000
DSTYLE
1002
{
1070
144
1040
1
1002
}
  0
DIMENSION
  5
77
100
AcDbEntity
  8
0
 62
256
370
-1
  6
BYLAYER
100
AcDbDimension
 10
29.9999999999999964
 20
106.0
 30
0.0
 11
28.125
 21
103.0
 31
0.0
 70
1
 71
8
 72
2
 41
1.0
 42
0.0
  1

  3
Standard
100
AcDbAlignedDimension
 13
34.2000000000000028
 23
106.0
 33
0.0
 14
34.2000000000000099
 24
100.0
 34
0.0
1001
ACAD
1000
DSTYLE
1002
{
1070
144
1040
1
1002
}
  0
LINE
  5
78
100
AcDbEntity
100
AcDbLine
  8
0
 62
256
370
-1
  6
DOT2
 10
38.7000000000000028
 20
94.0
 30
0.0
 11
38.7000000000000028
 21
104.0
 31
0.0
  0
LINE
  5
79
100
AcDbEntity
100
AcDbLine
  8
0
 62
256
370
-1
  6
BYLAYER
 10
38.7000000000000028
 20
104.0
 30
0.0
 11
36.7000000000000028
 21
104.0
 31
0.0
  0
LINE
  5
7A
100
AcDbEntity
100
AcDbLine
  8
0
 62
256
370
-1
  6
DOT2
 10
36.7000000000000028
 20
104.0
 30
0.0
 11
36.7000000000000028
 21
94.0
 31
0.0
  0
LINE
  5
7B
100
AcDbEntity
100
AcDbLine
  8
0
 62
256
370
-1
  6
BYLAYER
 10
36.7000000000000028
 20
106.0
 30
0.0
 11
38.7000000000000028
 21
106.0
 31
0.0
  0
LINE
  5
7C
100
AcDbEntity
100
AcDbLine
  8
0
 62
256
370
-1
  6
DOT2
 10
38.7000000000000028
 20
106.0
 30
0.0
 11
38.7000000000000028
 21
111.0
 31
0.0
  0
LINE
  5
7D
100
AcDbEntity
100
AcDbLine
  8
0
 62
256
370
-1
  6
DOT2
 10
38.7000000000000028
 20
111.0
 30
0.0
 11
36.7000000000000028
 21
111.0
 31
0.0
  0
LINE
  5
7E
100
AcDbEntity
100
AcDbLine
  8
0
 62
256
370
-1
  6
DOT2
 10
36.7000000000000028
 20
111.0
 30
0.0
 11
36.7000000000000028
 21
106.0
 31
0.0
  0
LINE
  5
7F
100
AcDbEntity
100
AcDbLine
  8
0
 62
256
370
-1
  6
BYLAYER
 10
41.2000000000000028
 20
100.0
 30
0.0
 11
41.2000000000000028
 21
106.0
 31
0.0
  0
LINE
  5
80
100
AcDbEntity
100
AcDbLine
  8
0
 62
256
370
-1
  6
BYLAYER
 10
41.2000000000000028
 20
106.0
 30
0.0
 11
34.2000000000000028
 21
106.0
 31
0.0
  0
LINE
  5
81
100
AcDbEntity
100
AcDbLine
  8
0
 62
256
370
-1
  6
BYLAYER
 10
34.2000000000000028
 20
106.0
 30
0.0
 11
34.2000000000000028
 21
100.0
 31
0.0
  0
LINE
  5
82
100
AcDbEntity
100
AcDbLine
  8
0
 62
256
370
-1
  6
BYLAYER
 10
40.8750000000000071
 20
106.0
 30
0.0
 11
34.5250000000000057
 21
106.0
 31
0.0
  0
LINE
  5
83
100
AcDbEntity
100
AcDbLine
  8
0
 62
256
370
-1
  6
BYLAYER
 10
34.2000000000000028
 20
104.0
 30
0.0
 11
41.2000000000000028
 21
104.0
 31
0.0
  0
LINE
  5
84
100
AcDbEntity
100
AcDbLine
  8
0
 62
9
420
12632256
370
-1
  6
BYLAYER
 10
35.6000000000000085
 20
104.0
 30
0.0
 11
35.6000000000000085
 21
106.0
 31
0.0
  0
LINE
  5
85
100
AcDbEntity
100
AcDbLine
  8
0
 62
256
370
-1
  6
BYLAYER
 10
35.6000000000000085
 20
106.0
 30
0.0
 11
35.6000000000000014
 21
106.0
 31
0.0
  0
LINE
  5
86
100
AcDbEntity
100
AcDbLine
  8
0
 62
9
420
12632256
370
-1
  6
BYLAYER
 10
39.6000000000000014
 20
104.0
 30
0.0
 11
39.6000000000000014
 21
106.0
 31
0.0
  0
LINE
  5
87
100
AcDbEntity
100
AcDbLine
  8
0
 62
256
370
-1
  6
BYLAYER
 10
39.6000000000000014
 20
106.0
 30
0.0
 11
39.6000000000000014
 21
106.0
 31
0.0
  0
LINE
  5
88
100
AcDbEntity
100
AcDbLine
  8
0
 62
256
370
-1
  6
BYLAYER
 10
34.7000000000000028
 20
94.0
 30
0.0
 11
40.7000000000000028
 21
94.0
 31
0.0
  0
LINE
  5
89
100
AcDbEntity
100
AcDbLine
  8
0
 62
256
370
-1
  6
BYLAYER
 10
40.7000000000000028
 20
94.0
 30
0.0
 11
40.7000000000000028
 21
104.0
 31
0.0
  0
LINE
  5
8A
100
AcDbEntity
100
AcDbLine
  8
0
 62
256
370
-1
  6
BYLAYER
 10
40.7000000000000028
 20
104.0
 30
0.0
 11
34.7000000000000028
 21
104.0
 31
0.0
  0
LINE
  5
8B
100
AcDbEntity
100
AcDbLine
  8
0
 62
256
370
-1
  6
BYLAYER
 10
34.7000000000000028
 20
104.0
 30
0.0
 11
34.7000000000000028
 21
94.0
 31
0.0
  0
DIMENSION
  5
8C
100
AcDbEntity
  8
0
 62
256
370
-1
  6
BYLAYER
100
AcDbDimension
 10
52.0
 20
104.0
 30
0.0
 11
50.125
 21
99.0
 31
0.0
 70
1
 71
8
 72
2
 41
1.0
 42
0.0
  1

  3
Standard
100
AcDbAlignedDimension
 13
40.7000000000000028
 23
104.0
 33
0.0
 14
40.7000000000000028
 24
94.0
 34
0.0
1001
ACAD
1000
DSTYLE
1002
{
1070
144
1040
1
1002
}
  0
LINE
  5
8D
100
AcDbEntity
100
AcDbLine
  8
0
 62
256
370
-1
  6
BYLAYER
 10
96.9000000000000057
 20
129.9999999999998295
 30
0.0
 11
69.9000000000000057
 21
129.9999999999998863
 31
0.0
  0
DIMENSION
  5
8E
100
AcDbEntity
  8
0
 62
256
370
-1
  6
BYLAYER
100
AcDbDimension
 10
36.7000000000000028
 20
131.0
 30
0.0
 11
46.44305555555556
 21
132.875
 31
0.0
 70
1
 71
8
 72
2
 41
1.0
 42
0.0
  1
1/8" Drill
  3
Standard
100
AcDbAlignedDimension
 13
36.7000000000000028
 23
111.0
 33
0.0
 14
38.7000000000000028
 24
111.0
 34
0.0
1001
ACAD
1000
DSTYLE
1002
{
1070
144
1040
1
1002
}
  0
DIMENSION
  5
8F
100
AcDbEntity
  8
0
 62
256
370
-1
  6
BYLAYER
100
AcDbDimension
 10
8.8000000000000025
 20
130.0
 30
0.0
 11
13.0
 21
133.0
 31
0.0
 70
129
 71
8
 72
2
 41
1.0
 42
0.0
  1
17/64" Drill
  3
Standard
100
AcDbAlignedDimension
 13
8.8000000000000007
 23
106.0
 33
0.0
 14
15.7999999999999989
 24
106.0
 34
0.0
1001
ACAD
1000
DSTYLE
1002
{
1070
144
1040
1
1002
}
  0
DIMENSION
  5
90
100
AcDbEntity
  8
0
 62
256
370
-1
  6
BYLAYER
100
AcDbDimension
 10
102.0000000000000568
 20
115.9999999999998437
 30
0.0
 11
100.1250000000000284
 21
107.9999999999998153
 31
0.0
 70
1
 71
8
 72
2
 41
1.0
 42
0.0
  1

  3
Standard
100
AcDbAlignedDimension
 13
83.0
 23
115.9999999999999147
 33
0.0
 14
82.9999999999999432
 24
99.9999999999998579
 34
0.0
1001
ACAD
1000
DSTYLE
1002
{
1070
144
1040
1
1002
}
  0
MTEXT
  5
91
100
AcDbEntity
100
AcDbMText
  8
0
 62
256
370
-1
  6
BYLAYER
 10
53.0
 20
139.9999999999999147
 30
0.0
 40
2.5
 41
0.0
 71
1
 72
1
  1
Single ended lug design
  7
textstyle0
 50
0.0
 73
2
 44
1.0
  0
LINE
  5
92
100
AcDbEntity
100
AcDbLine
  8
0
 62
256
370
-1
  6
DOT2
 10
18.0
 20
111.9999999999999147
 30
0.0
 11
18.0
 21
100.0
 31
0.0
  0
DIMENSION
  5
93
100
AcDbEntity
  8
0
 62
256
370
-1
  6
BYLAYER
100
AcDbDimension
 10
2.9999999999999991
 20
115.9999999999999858
 30
0.0
 11
17.5
 21
117.8749999999999432
 31
0.0
 70
1
 71
8
 72
2
 41
1.0
 42
0.0
  1

  3
Standard
100
AcDbAlignedDimension
 13
3.0
 23
120.0
 33
0.0
 14
32.0
 24
119.9999999999999147
 34
0.0
1001
ACAD
1000
DSTYLE
1002
{
1070
144
1040
1
1002
}
  0
DIMENSION
  5
94
100
AcDbEntity
  8
0
 62
256
370
-1
  6
BYLAYER
100
AcDbDimension
 10
0.0000000000000049
 20
139.9999999999999432
 30
0.0
 11
25.0000000000000036
 21
141.8749999999999432
 31
0.0
 70
1
 71
8
 72
2
 41
1.0
 42
0.0
  1

  3
Standard
100
AcDbAlignedDimension
 13
0.0000000000000018
 23
129.9999999999999432
 33
0.0
 14
50.0
 24
129.9999999999999147
 34
0.0
1001
ACAD
1000
DSTYLE
1002
{
1070
144
1040
1
1002
}
  0
DIMENSION
  5
95
100
AcDbEntity
  8
0
 62
256
370
-1
  6
BYLAYER
100
AcDbDimension
 10
61.9000000000000199
 20
99.9999999999998863
 30
0.0
 11
60.0250000000000199
 21
114.9999999999998863
 31
0.0
 70
1
 71
8
 72
2
 41
1.0
 42
0.0
  1

  3
Standard
100
AcDbAlignedDimension
 13
69.9000000000000057
 23
99.9999999999998863
 33
0.0
 14
69.9000000000000057
 24
129.9999999999998863
 34
0.0
1001
ACAD
1000
DSTYLE
1002
{
1070
144
1040
1
1002
}
  0
MTEXT
  5
96
100
AcDbEntity
100
AcDbMText
  8
0
 62
256
370
-1
  6
BYLAYER
 10
-7.0
 20
9.9999999999999147
 30
0.0
 40
2.5
 41
0.0
 71
1
 72
1
  3
Construction Steps:\P1) Cut sides + center to square size\P2) Cut inside recess on center using "center cutouts" template.  Keep cutouts.\P3) Glue all three layers together\P4) Drill 1/8" holes to 10mm depth\P5) Drill 17/64" holes to 6mm depth.\P6) P
  3
ut cutout back in center.  Drill 5/16"swivel nut hole to 29mm depth.\P7) Cut side profile using "side profile" template.\P8) Cut front profile on table saw with blade set to 10 degrees.\P9) Sand slightly rounded underside profile by wrapping sand pap
  3
er around a cylinder.\P10) Sand all tooling marks off, and then sand to at least 220 grit paper.\P11) Cut 1/4" dowel to length.  Drill center in jig.\P12) Using 1/2" #4 screws,attach nuts to dowels.\P13) Glue dowel in holes with nut in first.  Use pl
  3
enty of glue.  Verify alignment before glue sets.\P14) After glue is completely dry (24 hours), remove the screws.  The lugs are now ready!\P\P\PIMPORTANT: All measurements and drill sizes may differ between drums.  Be sure\Pto measure your own stuff
  1
, and don't just take these values as gospel.\P\PIt is a good idea to make a couple extras in case stuff happens.  I made 2 extra\PArariba lugs and one extra Walnut; I ended up with only one of each.
  7
textstyle1
 50
0.0
 73
2
 44
1.0
  0
LINE
  5
97
100
AcDbEntity
100
AcDbLine
  8
0
 62
256
370
-1
  6
DOT2
 10
84.0
 20
93.9999999999999147
 30
0.0
 11
84.0
 21
103.9999999999999147
 31
0.0
  0
LINE
  5
98
100
AcDbEntity
100
AcDbLine
  8
0
 62
256
370
-1
  6
BYLAYER
 10
84.0
 20
103.9999999999999147
 30
0.0
 11
82.0
 21
103.9999999999999147
 31
0.0
  0
LINE
  5
99
100
AcDbEntity
100
AcDbLine
  8
0
 62
256
370
-1
  6
DOT2
 10
82.0
 20
103.9999999999999147
 30
0.0
 11
82.0
 21
93.9999999999999147
 31
0.0
  0
LINE
  5
9A
100
AcDbEntity
100
AcDbLine
  8
0
 62
256
370
-1
  6
BYLAYER
 10
82.0
 20
105.9999999999999147
 30
0.0
 11
84.0
 21
105.9999999999999147
 31
0.0
  0
LINE
  5
9B
100
AcDbEntity
100
AcDbLine
  8
0
 62
256
370
-1
  6
DOT2
 10
84.0
 20
105.9999999999999147
 30
0.0
 11
84.0
 21
110.9999999999999147
 31
0.0
  0
LINE
  5
9C
100
AcDbEntity
100
AcDbLine
  8
0
 62
256
370
-1
  6
DOT2
 10
84.0
 20
110.9999999999999147
 30
0.0
 11
82.0
 21
110.9999999999999147
 31
0.0
  0
LINE
  5
9D
100
AcDbEntity
100
AcDbLine
  8
0
 62
256
370
-1
  6
DOT2
 10
82.0
 20
110.9999999999999147
 30
0.0
 11
82.0
 21
105.9999999999999147
 31
0.0
  0
LINE
  5
9E
100
AcDbEntity
100
AcDbLine
  8
0
 62
256
370
-1
  6
BYLAYER
 10
86.5
 20
99.9999999999999147
 30
0.0
 11
86.5
 21
105.9999999999999147
 31
0.0
  0
LINE
  5
9F
100
AcDbEntity
100
AcDbLine
  8
0
 62
256
370
-1
  6
BYLAYER
 10
86.5
 20
105.9999999999999147
 30
0.0
 11
79.5
 21
105.9999999999999147
 31
0.0
  0
LINE
  5
A0
100
AcDbEntity
100
AcDbLine
  8
0
 62
256
370
-1
  6
BYLAYER
 10
79.5
 20
105.9999999999999147
 30
0.0
 11
79.5
 21
99.9999999999999147
 31
0.0
  0
LINE
  5
A1
100
AcDbEntity
100
AcDbLine
  8
0
 62
256
370
-1
  6
BYLAYER
 10
86.1750000000000114
 20
105.9999999999999147
 30
0.0
 11
79.8250000000000028
 21
105.9999999999999147
 31
0.0
  0
LINE
  5
A2
100
AcDbEntity
100
AcDbLine
  8
0
 62
256
370
-1
  6
BYLAYER
 10
79.5
 20
103.9999999999999147
 30
0.0
 11
86.5
 21
103.9999999999999147
 31
0.0
  0
LINE
  5
A3
100
AcDbEntity
100
AcDbLine
  8
0
 62
9
420
12632256
370
-1
  6
BYLAYER
 10
80.9000000000000057
 20
103.9999999999999147
 30
0.0
 11
80.9000000000000057
 21
105.9999999999999147
 31
0.0
  0
LINE
  5
A4
100
AcDbEntity
100
AcDbLine
  8
0
 62
256
370
-1
  6
BYLAYER
 10
80.9000000000000057
 20
105.9999999999999147
 30
0.0
 11
80.9000000000000057
 21
105.9999999999999147
 31
0.0
  0
LINE
  5
A5
100
AcDbEntity
100
AcDbLine
  8
0
 62
9
420
12632256
370
-1
  6
BYLAYER
 10
84.9000000000000057
 20
103.9999999999999147
 30
0.0
 11
84.9000000000000057
 21
105.9999999999999147
 31
0.0
  0
LINE
  5
A6
100
AcDbEntity
100
AcDbLine
  8
0
 62
256
370
-1
  6
BYLAYER
 10
84.9000000000000057
 20
105.9999999999999147
 30
0.0
 11
84.9000000000000057
 21
105.9999999999999147
 31
0.0
  0
LINE
  5
A7
100
AcDbEntity
100
AcDbLine
  8
0
 62
256
370
-1
  6
BYLAYER
 10
80.0
 20
93.9999999999999147
 30
0.0
 11
86.0
 21
93.9999999999999147
 31
0.0
  0
LINE
  5
A8
100
AcDbEntity
100
AcDbLine
  8
0
 62
256
370
-1
  6
BYLAYER
 10
86.0
 20
93.9999999999999147
 30
0.0
 11
86.0
 21
103.9999999999999147
 31
0.0
  0
LINE
  5
A9
100
AcDbEntity
100
AcDbLine
  8
0
 62
256
370
-1
  6
BYLAYER
 10
86.0
 20
103.9999999999999147
 30
0.0
 11
80.0
 21
103.9999999999999147
 31
0.0
  0
LINE
  5
AA
100
AcDbEntity
100
AcDbLine
  8
0
 62
256
370
-1
  6
BYLAYER
 10
80.0
 20
103.9999999999999147
 30
0.0
 11
80.0
 21
93.9999999999999147
 31
0.0
  0
LINE
  5
AB
100
AcDbEntity
100
AcDbLine
  8
0
 62
256
370
-1
  6
DOT2
 10
38.7000000000000028
 20
36.0
 30
0.0
 11
38.7000000000000028
 21
41.0
 31
0.0
  0
LINE
  5
AC
100
AcDbEntity
100
AcDbLine
  8
0
 62
256
370
-1
  6
DOT2
 10
38.7000000000000028
 20
41.0
 30
0.0
 11
36.7000000000000028
 21
41.0
 31
0.0
  0
LINE
  5
AD
100
AcDbEntity
100
AcDbLine
  8
0
 62
256
370
-1
  6
DOT2
 10
36.7000000000000028
 20
41.0
 30
0.0
 11
36.7000000000000028
 21
36.0
 31
0.0
  0
LINE
  5
AE
100
AcDbEntity
100
AcDbLine
  8
0
 62
256
370
-1
  6
BYLAYER
 10
41.2000000000000028
 20
30.0
 30
0.0
 11
41.2000000000000028
 21
36.0
 31
0.0
  0
LINE
  5
AF
100
AcDbEntity
100
AcDbLine
  8
0
 62
256
370
-1
  6
BYLAYER
 10
41.2000000000000028
 20
36.0
 30
0.0
 11
34.2000000000000028
 21
36.0
 31
0.0
  0
LINE
  5
B0
100
AcDbEntity
100
AcDbLine
  8
0
 62
256
370
-1
  6
BYLAYER
 10
34.2000000000000028
 20
36.0
 30
0.0
 11
34.2000000000000028
 21
30.0
 31
0.0
  0
LINE
  5
B1
100
AcDbEntity
100
AcDbLine
  8
0
 62
256
370
-1
  6
BYLAYER
 10
40.8750000000000071
 20
36.0
 30
0.0
 11
34.5250000000000057
 21
36.0
 31
0.0
  0
LINE
  5
B2
100
AcDbEntity
100
AcDbLine
  8
0
 62
256
370
-1
  6
BYLAYER
 10
34.2000000000000028
 20
34.0
 30
0.0
 11
41.2000000000000028
 21
34.0
 31
0.0
  0
LINE
  5
B3
100
AcDbEntity
100
AcDbLine
  8
0
 62
9
420
12632256
370
-1
  6
BYLAYER
 10
35.6000000000000085
 20
34.0
 30
0.0
 11
35.6000000000000085
 21
36.0
 31
0.0
  0
LINE
  5
B4
100
AcDbEntity
100
AcDbLine
  8
0
 62
256
370
-1
  6
BYLAYER
 10
35.6000000000000085
 20
36.0
 30
0.0
 11
35.6000000000000014
 21
36.0
 31
0.0
  0
LINE
  5
B5
100
AcDbEntity
100
AcDbLine
  8
0
 62
9
420
12632256
370
-1
  6
BYLAYER
 10
39.6000000000000014
 20
34.0
 30
0.0
 11
39.6000000000000014
 21
36.0
 31
0.0
  0
LINE
  5
B6
100
AcDbEntity
100
AcDbLine
  8
0
 62
256
370
-1
  6
BYLAYER
 10
39.6000000000000014
 20
36.0
 30
0.0
 11
39.6000000000000014
 21
36.0
 31
0.0
  0
LINE
  5
B7
100
AcDbEntity
100
AcDbLine
  8
0
 62
256
370
-1
  6
BYLAYER
 10
34.7000000000000028
 20
24.0
 30
0.0
 11
40.7000000000000028
 21
24.0
 31
0.0
  0
LINE
  5
B8
100
AcDbEntity
100
AcDbLine
  8
0
 62
256
370
-1
  6
BYLAYER
 10
40.7000000000000028
 20
24.0
 30
0.0
 11
40.7000000000000028
 21
34.0
 31
0.0
  0
LINE
  5
B9
100
AcDbEntity
100
AcDbLine
  8
0
 62
256
370
-1
  6
BYLAYER
 10
40.7000000000000028
 20
34.0
 30
0.0
 11
34.7000000000000028
 21
34.0
 31
0.0
  0
LINE
  5
BA
100
AcDbEntity
100
AcDbLine
  8
0
 62
256
370
-1
  6
BYLAYER
 10
34.7000000000000028
 20
34.0
 30
0.0
 11
34.7000000000000028
 21
24.0
 31
0.0
  0
DIMENSION
  5
BB
100
AcDbEntity
  8
0
 62
256
370
-1
  6
BYLAYER
100
AcDbDimension
 10
3.0000000000000013
 20
45.9999999999999858
 30
0.0
 11
13.0
 21
47.8749999999999858
 31
0.0
 70
1
 71
8
 72
2
 41
1.0
 42
0.0
  1

  3
Standard
100
AcDbAlignedDimension
 13
3.0000000000000009
 23
50.0
 33
0.0
 14
23.0
 24
50.0
 34
0.0
1001
ACAD
1000
DSTYLE
1002
{
1070
144
1040
1
1002
}
  0
DIMENSION
  5
BC
100
AcDbEntity
  8
0
 62
256
370
-1
  6
BYLAYER
100
AcDbDimension
 10
52.0
 20
34.0
 30
0.0
 11
50.125
 21
29.0
 31
0.0
 70
1
 71
8
 72
2
 41
1.0
 42
0.0
  1

  3
Standard
100
AcDbAlignedDimension
 13
40.7000000000000028
 23
34.0
 33
0.0
 14
40.7000000000000028
 24
24.0
 34
0.0
1001
ACAD
1000
DSTYLE
1002
{
1070
144
1040
1
1002
}
  0
DIMENSION
  5
BD
100
AcDbEntity
  8
0
 62
256
370
-1
  6
BYLAYER
100
AcDbDimension
 10
0.0000000000000056
 20
69.9999999999999432
 30
0.0
 11
25.0000000000000036
 21
71.8749999999999289
 31
0.0
 70
1
 71
8
 72
2
 41
1.0
 42
0.0
  1

  3
Standard
100
AcDbAlignedDimension
 13
0.0000000000000025
 23
59.9999999999999432
 33
0.0
 14
50.0
 24
59.9999999999999147
 34
0.0
1001
ACAD
1000
DSTYLE
1002
{
1070
144
1040
1
1002
}
  0
LINE
  5
BE
100
AcDbEntity
100
AcDbLine
  8
0
 62
256
370
-1
  6
BYLAYER
 10
96.9000000000000057
 20
59.9999999999998295
 30
0.0
 11
69.9000000000000057
 21
59.9999999999998863
 31
0.0
  0
DIMENSION
  5
BF
100
AcDbEntity
  8
0
 62
256
370
-1
  6
BYLAYER
100
AcDbDimension
 10
61.9000000000000199
 20
29.9999999999998863
 30
0.0
 11
60.0250000000000199
 21
44.9999999999998863
 31
0.0
 70
1
 71
8
 72
2
 41
1.0
 42
0.0
  1

  3
Standard
100
AcDbAlignedDimension
 13
69.9000000000000057
 23
29.9999999999998863
 33
0.0
 14
69.9000000000000057
 24
59.9999999999998863
 34
0.0
1001
ACAD
1000
DSTYLE
1002
{
1070
144
1040
1
1002
}
  0
DIMENSION
  5
C0
100
AcDbEntity
  8
0
 62
256
370
-1
  6
BYLAYER
100
AcDbDimension
 10
36.7000000000000028
 20
61.0
 30
0.0
 11
46.44305555555556
 21
62.875
 31
0.0
 70
1
 71
8
 72
2
 41
1.0
 42
0.0
  1
1/8" Drill
  3
Standard
100
AcDbAlignedDimension
 13
36.7000000000000028
 23
41.0
 33
0.0
 14
38.7000000000000028
 24
41.0
 34
0.0
1001
ACAD
1000
DSTYLE
1002
{
1070
144
1040
1
1002
}
  0
DIMENSION
  5
C1
100
AcDbEntity
  8
0
 62
256
370
-1
  6
BYLAYER
100
AcDbDimension
 10
8.8000000000000025
 20
60.0
 30
0.0
 11
13.0
 21
63.0
 31
0.0
 70
129
 71
8
 72
2
 41
1.0
 42
0.0
  1
17/64" Drill
  3
Standard
100
AcDbAlignedDimension
 13
8.8000000000000007
 23
36.0
 33
0.0
 14
15.7999999999999989
 24
36.0
 34
0.0
1001
ACAD
1000
DSTYLE
1002
{
1070
144
1040
1
1002
}
  0
DIMENSION
  5
C2
100
AcDbEntity
  8
0
 62
256
370
-1
  6
BYLAYER
100
AcDbDimension
 10
102.0000000000000568
 20
45.9999999999998437
 30
0.0
 11
100.1250000000000284
 21
37.9999999999998224
 31
0.0
 70
1
 71
8
 72
2
 41
1.0
 42
0.0
  1

  3
Standard
100
AcDbAlignedDimension
 13
83.0
 23
45.9999999999999147
 33
0.0
 14
82.9999999999999432
 24
29.9999999999998579
 34
0.0
1001
ACAD
1000
DSTYLE
1002
{
1070
144
1040
1
1002
}
  0
MTEXT
  5
C3
100
AcDbEntity
100
AcDbMText
  8
0
 62
256
370
-1
  6
BYLAYER
 10
53.0
 20
69.9999999999999147
 30
0.0
 40
2.5
 41
0.0
 71
1
 72
1
  1
Double ended lug design
  7
textstyle2
 50
0.0
 73
2
 44
1.0
  0
LINE
  5
C4
100
AcDbEntity
100
AcDbLine
  8
0
 62
9
420
12632256
370
-1
  6
BYLAYER
 10
14.1999999999999975
 20
34.0
 30
0.0
 11
14.1999999999999975
 21
36.0
 31
0.0
  0
LINE
  5
C5
100
AcDbEntity
100
AcDbLine
  8
0
 62
9
420
12632256
370
-1
  6
BYLAYER
 10
10.1999999999999993
 20
34.0
 30
0.0
 11
10.1999999999999993
 21
36.0
 31
0.0
  0
LINE
  5
C6
100
AcDbEntity
100
AcDbLine
  8
0
 62
256
370
-1
  6
DOT2
 10
11.2999999999999989
 20
34.0
 30
0.0
 11
11.2999999999999989
 21
24.0
 31
0.0
  0
LINE
  5
C7
100
AcDbEntity
100
AcDbLine
  8
0
 62
256
370
-1
  6
BYLAYER
 10
11.2999999999999989
 20
36.0
 30
0.0
 11
13.2999999999999989
 21
36.0
 31
0.0
  0
LINE
  5
C8
100
AcDbEntity
100
AcDbLine
  8
0
 62
256
370
-1
  6
DOT2
 10
13.2999999999999989
 20
36.0
 30
0.0
 11
13.2999999999999989
 21
41.0
 31
0.0
  0
LINE
  5
C9
100
AcDbEntity
100
AcDbLine
  8
0
 62
256
370
-1
  6
DOT2
 10
13.2999999999999989
 20
41.0
 30
0.0
 11
11.2999999999999989
 21
41.0
 31
0.0
  0
LINE
  5
CA
100
AcDbEntity
100
AcDbLine
  8
0
 62
256
370
-1
  6
DOT2
 10
11.2999999999999989
 20
41.0
 30
0.0
 11
11.2999999999999989
 21
36.0
 31
0.0
  0
LINE
  5
CB
100
AcDbEntity
100
AcDbLine
  8
0
 62
256
370
-1
  6
BYLAYER
 10
15.7999999999999989
 20
30.0
 30
0.0
 11
15.7999999999999989
 21
36.0
 31
0.0
  0
LINE
  5
CC
100
AcDbEntity
100
AcDbLine
  8
0
 62
256
370
-1
  6
BYLAYER
 10
15.7999999999999989
 20
36.0
 30
0.0
 11
8.8000000000000007
 21
36.0
 31
0.0
  0
LINE
  5
CD
100
AcDbEntity
100
AcDbLine
  8
0
 62
256
370
-1
  6
BYLAYER
 10
8.8000000000000007
 20
36.0
 30
0.0
 11
8.8000000000000007
 21
30.0
 31
0.0
  0
LINE
  5
CE
100
AcDbEntity
100
AcDbLine
  8
0
 62
256
370
-1
  6
BYLAYER
 10
15.4749999999999996
 20
36.0
 30
0.0
 11
9.125
 21
36.0
 31
0.0
  0
LINE
  5
CF
100
AcDbEntity
100
AcDbLine
  8
0
 62
256
370
-1
  6
BYLAYER
 10
8.7999999999999989
 20
34.0
 30
0.0
 11
15.7999999999999989
 21
34.0
 31
0.0
  0
LINE
  5
D0
100
AcDbEntity
100
AcDbLine
  8
0
 62
256
370
-1
  6
BYLAYER
 10
10.1999999999999993
 20
36.0
 30
0.0
 11
10.1999999999999993
 21
36.0
 31
0.0
  0
LINE
  5
D1
100
AcDbEntity
100
AcDbLine
  8
0
 62
256
370
-1
  6
BYLAYER
 10
14.1999999999999975
 20
36.0
 30
0.0
 11
14.1999999999999975
 21
36.0
 31
0.0
  0
LINE
  5
D2
100
AcDbEntity
100
AcDbLine
  8
0
 62
256
370
-1
  6
BYLAYER
 10
9.3000000000000007
 20
24.0
 30
0.0
 11
15.2999999999999989
 21
24.0
 31
0.0
  0
LINE
  5
D3
100
AcDbEntity
100
AcDbLine
  8
0
 62
256
370
-1
  6
BYLAYER
 10
15.2999999999999989
 20
24.0
 30
0.0
 11
15.2999999999999989
 21
34.0
 31
0.0
  0
LINE
  5
D4
100
AcDbEntity
100
AcDbLine
  8
0
 62
256
370
-1
  6
BYLAYER
 10
15.2999999999999989
 20
34.0
 30
0.0
 11
9.3000000000000007
 21
34.0
 31
0.0
  0
LINE
  5
D5
100
AcDbEntity
100
AcDbLine
  8
0
 62
256
370
-1
  6
BYLAYER
 10
9.3000000000000007
 20
34.0
 30
0.0
 11
9.3000000000000007
 21
24.0
 31
0.0
  0
LINE
  5
D6
100
AcDbEntity
100
AcDbLine
  8
0
 62
256
370
-1
  6
DOT2
 10
13.2999999999999989
 20
24.0
 30
0.0
 11
13.2999999999999989
 21
34.0
 31
0.0
  0
LINE
  5
D7
100
AcDbEntity
100
AcDbLine
  8
0
 62
256
370
-1
  6
BYLAYER
 10
13.2999999999999989
 20
34.0
 30
0.0
 11
11.2999999999999989
 21
34.0
 31
0.0
  0
LINE
  5
D8
100
AcDbEntity
100
AcDbLine
  8
0
 62
256
370
-1
  6
DOT2
 10
3.0000000000000009
 20
42.0
 30
0.0
 11
23.0
 21
42.0
 31
0.0
  0
LINE
  5
D9
100
AcDbEntity
100
AcDbLine
  8
0
 62
256
370
-1
  6
DOT2
 10
23.0
 20
50.0
 30
0.0
 11
5.0000000000000009
 21
50.0
 31
0.0
  0
LINE
  5
DA
100
AcDbEntity
100
AcDbLine
  8
0
 62
256
370
-1
  6
BYLAYER
 10
0.0000000000000007
 20
30.0
 30
0.0
 11
50.0
 21
30.0
 31
0.0
  0
LINE
  5
DB
100
AcDbEntity
100
AcDbLine
  8
0
 62
256
370
-1
  6
BYLAYER
 10
47.0
 20
30.0
 30
0.0
 11
47.0
 21
30.0
 31
0.0
  0
LINE
  5
DC
100
AcDbEntity
100
AcDbLine
  8
0
 62
256
370
-1
  6
BYLAYER
 10
21.8999999999999986
 20
30.0
 30
0.0
 11
21.8999999999999986
 21
30.0
 31
0.0
  0
LINE
  5
DD
100
AcDbEntity
100
AcDbLine
  8
0
 62
256
370
-1
  6
BYLAYER
 10
21.8999999999999986
 20
33.1800000000000068
 30
0.0
 11
21.8999999999999986
 21
33.1800000000000068
 31
0.0
  0
LINE
  5
DE
100
AcDbEntity
100
AcDbLine
  8
0
 62
256
370
-1
  6
DOT2
 10
18.0
 20
50.0
 30
0.0
 11
18.0
 21
50.9999999999999858
 31
0.0
  0
LINE
  5
DF
100
AcDbEntity
100
AcDbLine
  8
0
 62
256
370
-1
  6
BYLAYER
 10
32.0
 20
47.0
 30
0.0
 11
32.0
 21
47.0
 31
0.0
  0
LINE
  5
E0
100
AcDbEntity
100
AcDbLine
  8
0
 62
256
370
-1
  6
BYLAYER
 10
69.9000000000000057
 20
29.9999999999999005
 30
0.0
 11
97.0000000000000284
 21
29.999999999999801
 31
0.0
  0
CIRCLE
  5
E1
100
AcDbEntity
100
AcDbCircle
  8
0
 62
256
370
-1
  6
BYLAYER
 10
83.0
 20
45.9999999999999147
 30
0.0
 40
4.0
  0
LINE
  5
E2
100
AcDbEntity
100
AcDbLine
  8
0
 62
256
370
-1
  6
BYLAYER
 10
0.0000000000000007
 20
30.0
 30
0.0
 11
0.0000000000000007
 21
59.9999999999999147
 31
0.0
  0
LINE
  5
E3
100
AcDbEntity
100
AcDbLine
  8
0
 62
256
370
-1
  6
BYLAYER
 10
0.0000000000000007
 20
59.9999999999999147
 30
0.0
 11
50.0
 21
59.9999999999999147
 31
0.0
  0
LINE
  5
E4
100
AcDbEntity
100
AcDbLine
  8
0
 62
256
370
-1
  6
BYLAYER
 10
50.0
 20
59.9999999999999147
 30
0.0
 11
50.0
 21
30.0
 31
0.0
  0
LINE
  5
E5
100
AcDbEntity
100
AcDbLine
  8
0
 62
256
370
-1
  6
BYLAYER
 10
47.0
 20
30.0
 30
0.0
 11
47.0
 21
30.0
 31
0.0
  0
LINE
  5
E6
100
AcDbEntity
100
AcDbLine
  8
0
 62
256
370
-1
  6
BYLAYER
 10
69.9000000000000057
 20
29.9999999999999005
 30
0.0
 11
69.9000000000000057
 21
59.9999999999998863
 31
0.0
  0
LINE
  5
E7
100
AcDbEntity
100
AcDbLine
  8
0
 62
256
370
-1
  6
BYLAYER
 10
96.9000000000000057
 20
59.9999999999998863
 30
0.0
 11
96.9000000000000057
 21
29.9999999999998863
 31
0.0
  0
LINE
  5
E8
100
AcDbEntity
100
AcDbLine
  8
0
 62
256
370
-1
  6
BYLAYER
 10
94.0
 20
29.9999999999999147
 30
0.0
 11
94.0
 21
30.0000000000000426
 31
0.0
  0
LINE
  5
E9
100
AcDbEntity
100
AcDbLine
  8
0
 62
256
370
-1
  6
DOT2
 10
84.0
 20
23.9999999999999147
 30
0.0
 11
84.0
 21
33.9999999999999147
 31
0.0
  0
LINE
  5
EA
100
AcDbEntity
100
AcDbLine
  8
0
 62
256
370
-1
  6
BYLAYER
 10
84.0
 20
33.9999999999999147
 30
0.0
 11
82.0
 21
33.9999999999999147
 31
0.0
  0
LINE
  5
EB
100
AcDbEntity
100
AcDbLine
  8
0
 62
256
370
-1
  6
DOT2
 10
82.0
 20
33.9999999999999147
 30
0.0
 11
82.0
 21
23.9999999999999147
 31
0.0
  0
LINE
  5
EC
100
AcDbEntity
100
AcDbLine
  8
0
 62
256
370
-1
  6
BYLAYER
 10
82.0
 20
35.9999999999999147
 30
0.0
 11
84.0
 21
35.9999999999999147
 31
0.0
  0
LINE
  5
ED
100
AcDbEntity
100
AcDbLine
  8
0
 62
256
370
-1
  6
DOT2
 10
84.0
 20
35.9999999999999147
 30
0.0
 11
84.0
 21
40.9999999999999147
 31
0.0
  0
LINE
  5
EE
100
AcDbEntity
100
AcDbLine
  8
0
 62
256
370
-1
  6
DOT2
 10
84.0
 20
40.9999999999999147
 30
0.0
 11
82.0
 21
40.9999999999999147
 31
0.0
  0
LINE
  5
EF
100
AcDbEntity
100
AcDbLine
  8
0
 62
256
370
-1
  6
DOT2
 10
82.0
 20
40.9999999999999147
 30
0.0
 11
82.0
 21
35.9999999999999147
 31
0.0
  0
LINE
  5
F0
100
AcDbEntity
100
AcDbLine
  8
0
 62
256
370
-1
  6
BYLAYER
 10
86.5
 20
29.9999999999999147
 30
0.0
 11
86.5
 21
35.9999999999999147
 31
0.0
  0
LINE
  5
F1
100
AcDbEntity
100
AcDbLine
  8
0
 62
256
370
-1
  6
BYLAYER
 10
86.5
 20
35.9999999999999147
 30
0.0
 11
79.5
 21
35.9999999999999147
 31
0.0
  0
LINE
  5
F2
100
AcDbEntity
100
AcDbLine
  8
0
 62
256
370
-1
  6
BYLAYER
 10
79.5
 20
35.9999999999999147
 30
0.0
 11
79.5
 21
29.9999999999999147
 31
0.0
  0
LINE
  5
F3
100
AcDbEntity
100
AcDbLine
  8
0
 62
256
370
-1
  6
BYLAYER
 10
86.1750000000000114
 20
35.9999999999999147
 30
0.0
 11
79.8250000000000028
 21
35.9999999999999147
 31
0.0
  0
LINE
  5
F4
100
AcDbEntity
100
AcDbLine
  8
0
 62
256
370
-1
  6
BYLAYER
 10
79.5
 20
33.9999999999999147
 30
0.0
 11
86.5
 21
33.9999999999999147
 31
0.0
  0
LINE
  5
F5
100
AcDbEntity
100
AcDbLine
  8
0
 62
9
420
12632256
370
-1
  6
BYLAYER
 10
80.9000000000000057
 20
33.9999999999999147
 30
0.0
 11
80.9000000000000057
 21
35.9999999999999147
 31
0.0
  0
LINE
  5
F6
100
AcDbEntity
100
AcDbLine
  8
0
 62
256
370
-1
  6
BYLAYER
 10
80.9000000000000057
 20
35.9999999999999147
 30
0.0
 11
80.9000000000000057
 21
35.9999999999999147
 31
0.0
  0
LINE
  5
F7
100
AcDbEntity
100
AcDbLine
  8
0
 62
9
420
12632256
370
-1
  6
BYLAYER
 10
84.9000000000000057
 20
33.9999999999999147
 30
0.0
 11
84.9000000000000057
 21
35.9999999999999147
 31
0.0
  0
LINE
  5
F8
100
AcDbEntity
100
AcDbLine
  8
0
 62
256
370
-1
  6
BYLAYER
 10
84.9000000000000057
 20
35.9999999999999147
 30
0.0
 11
84.9000000000000057
 21
35.9999999999999147
 31
0.0
  0
LINE
  5
F9
100
AcDbEntity
100
AcDbLine
  8
0
 62
256
370
-1
  6
BYLAYER
 10
80.0
 20
23.9999999999999147
 30
0.0
 11
86.0
 21
23.9999999999999147
 31
0.0
  0
LINE
  5
FA
100
AcDbEntity
100
AcDbLine
  8
0
 62
256
370
-1
  6
BYLAYER
 10
86.0
 20
23.9999999999999147
 30
0.0
 11
86.0
 21
33.9999999999999147
 31
0.0
  0
LINE
  5
FB
100
AcDbEntity
100
AcDbLine
  8
0
 62
256
370
-1
  6
BYLAYER
 10
86.0
 20
33.9999999999999147
 30
0.0
 11
80.0
 21
33.9999999999999147
 31
0.0
  0
LINE
  5
FC
100
AcDbEntity
100
AcDbLine
  8
0
 62
256
370
-1
  6
BYLAYER
 10
80.0
 20
33.9999999999999147
 30
0.0
 11
80.0
 21
23.9999999999999147
 31
0.0
  0
DIMENSION
  5
FD
100
AcDbEntity
  8
0
 62
256
370
-1
  6
BYLAYER
100
AcDbDimension
 10
12.2999999999999972
 20
20.0
 30
0.0
 11
25.0
 21
21.875
 31
0.0
 70
1
 71
8
 72
2
 41
1.0
 42
0.0
  1

  3
Standard
100
AcDbAlignedDimension
 13
12.2999999999999972
 23
23.0
 33
0.0
 14
37.7000000000000028
 24
23.0
 34
0.0
1001
ACAD
1000
DSTYLE
1002
{
1070
144
1040
1
1002
}
  0
DIMENSION
  5
FE
100
AcDbEntity
  8
0
 62
256
370
-1
  6
BYLAYER
100
AcDbDimension
 10
-2.9999999999999991
 20
50.0
 30
0.0
 11
-4.8749999999999956
 21
58.7152777777777715
 31
0.0
 70
1
 71
8
 72
2
 41
1.0
 42
0.0
  1
5/16" Drill
  3
Standard
100
AcDbAlignedDimension
 13
6.0000000000000009
 23
50.0
 33
0.0
 14
6.0000000000000009
 24
42.0
 34
0.0
1001
ACAD
1000
DSTYLE
1002
{
1070
144
1040
1
1002
}
  0
LINE
  5
FF
100
AcDbEntity
100
AcDbLine
  8
0
 62
256
370
-1
  6
BYLAYER
 10
3.0000000000000009
 20
42.0
 30
0.0
 11
3.0000000000000009
 21
50.0
 31
0.0
  0
DIMENSION
  5
100
100
AcDbEntity
  8
0
 62
256
370
-1
  6
BYLAYER
100
AcDbDimension
 10
-0.9999999999999991
 20
30.0
 30
0.0
 11
-2.8749999999999991
 21
38.0
 31
0.0
 70
1
 71
8
 72
2
 41
1.0
 42
0.0
  1

  3
Standard
100
AcDbAlignedDimension
 13
3.0000000000000009
 23
30.0
 33
0.0
 14
3.0000000000000009
 24
46.0
 34
0.0
1001
ACAD
1000
DSTYLE
1002
{
1070
144
1040
1
1002
}
  0
DIMENSION
  5
101
100
AcDbEntity
  8
0
 62
256
370
-1
  6
BYLAYER
100
AcDbDimension
 10
26.0
 20
30.0
 30
0.0
 11
24.125
 21
35.5
 31
0.0
 70
1
 71
8
 72
2
 41
1.0
 42
0.0
  1

  3
Standard
100
AcDbAlignedDimension
 13
12.2999999999999972
 23
30.0
 33
0.0
 14
12.2999999999999989
 24
41.0
 34
0.0
1001
ACAD
1000
DSTYLE
1002
{
1070
144
1040
1
1002
}
  0
DIMENSION
  5
102
100
AcDbEntity
  8
0
 62
256
370
-1
  6
BYLAYER
100
AcDbDimension
 10
12.2999999999999972
 20
20.0
 30
0.0
 11
6.1499999999999977
 21
21.875
 31
0.0
 70
1
 71
8
 72
2
 41
1.0
 42
0.0
  1

  3
Standard
100
AcDbAlignedDimension
 13
12.2999999999999989
 23
34.0
 33
0.0
 14
0.0000000000000007
 24
34.0
 34
0.0
1001
ACAD
1000
DSTYLE
1002
{
1070
144
1040
1
1002
}
  0
DIMENSION
  5
103
100
AcDbEntity
  8
0
 62
256
370
-1
  6
BYLAYER
100
AcDbDimension
 10
29.9999999999999964
 20
36.0
 30
0.0
 11
28.125
 21
33.0
 31
0.0
 70
1
 71
8
 72
2
 41
1.0
 42
0.0
  1

  3
Standard
100
AcDbAlignedDimension
 13
34.2000000000000028
 23
36.0
 33
0.0
 14
34.2000000000000099
 24
30.0
 34
0.0
1001
ACAD
1000
DSTYLE
1002
{
1070
144
1040
1
1002
}
  0
LINE
  5
104
100
AcDbEntity
100
AcDbLine
  8
0
 62
256
370
-1
  6
DOT2
 10
38.7000000000000028
 20
24.0
 30
0.0
 11
38.7000000000000028
 21
34.0
 31
0.0
  0
LINE
  5
105
100
AcDbEntity
100
AcDbLine
  8
0
 62
256
370
-1
  6
BYLAYER
 10
38.7000000000000028
 20
34.0
 30
0.0
 11
36.7000000000000028
 21
34.0
 31
0.0
  0
LINE
  5
106
100
AcDbEntity
100
AcDbLine
  8
0
 62
256
370
-1
  6
DOT2
 10
18.0
 20
41.9999999999999147
 30
0.0
 11
18.0
 21
30.0
 31
0.0
  0
LINE
  5
107
100
AcDbEntity
100
AcDbLine
  8
0
 62
256
370
-1
  6
DOT2
 10
36.7000000000000028
 20
34.0
 30
0.0
 11
36.7000000000000028
 21
24.0
 31
0.0
  0
LINE
  5
108
100
AcDbEntity
100
AcDbLine
  8
0
 62
256
370
-1
  6
BYLAYER
 10
36.7000000000000028
 20
36.0
 30
0.0
 11
38.7000000000000028
 21
36.0
 31
0.0
  0
SPLINE
  5
109
  8
0
 62
256
370
-1
  6
BYLAYER
100
AcDbEntity
100
AcDbSpline
 70
8
 71
3
 72
9
 73
5
 74
0
 40
0.0
 40
0.0
 40
0.0
 40
0.0
 40
1.0
 40
2.0
 40
2.0
 40
2.0
 40
2.0
 10
1.0000000000000011
 20
30.0
 30
0.0
 10
1.0000000000000009
 20
42.0
 30
0.0
 10
2.0
 20
57.0
 30
0.0
 10
7.0000000000000009
 20
56.9999999999999147
 30
0.0
 10
25.0
 20
57.0
 30
0.0
  0
SPLINE
  5
10A
  8
0
 62
256
370
-1
  6
BYLAYER
100
AcDbEntity
100
AcDbSpline
 70
8
 71
3
 72
9
 73
5
 74
0
 40
0.0
 40
0.0
 40
0.0
 40
0.0
 40
1.0
 40
2.0
 40
2.0
 40
2.0
 40
2.0
 10
49.0
 20
29.9999999999999964
 30
0.0
 10
48.9999999999999929
 20
41.9999999999999858
 30
0.0
 10
48.0
 20
56.9999999999999787
 30
0.0
 10
43.0
 20
56.9999999999999218
 30
0.0
 10
25.0
 20
57.0
 30
0.0
  0
LINE
  5
10B
100
AcDbEntity
100
AcDbLine
  8
0
 62
256
370
-1
  6
DOT2
 10
31.9999999999999964
 20
50.0
 30
0.0
 11
32.0
 21
50.9999999999999858
 31
0.0
  0
LINE
  5
10C
100
AcDbEntity
100
AcDbLine
  8
0
 62
256
370
-1
  6
DOT2
 10
31.9999999999999929
 20
41.9999999999999147
 30
0.0
 11
31.9999999999999858
 21
29.9999999999999964
 31
0.0
  0
LINE
  5
10D
100
AcDbEntity
100
AcDbLine
  8
0
 62
256
370
-1
  6
DOT2
 10
47.0
 20
42.0
 30
0.0
 11
27.0000000000000071
 21
42.0
 31
0.0
  0
LINE
  5
10E
100
AcDbEntity
100
AcDbLine
  8
0
 62
256
370
-1
  6
DOT2
 10
26.9999999999999964
 20
50.0
 30
0.0
 11
45.0
 21
50.0
 31
0.0
  0
LINE
  5
10F
100
AcDbEntity
100
AcDbLine
  8
0
 62
256
370
-1
  6
DOT2
 10
18.0
 20
50.9999999999999858
 30
0.0
 11
32.0
 21
50.9999999999999858
 31
0.0
  0
SPLINE
  5
110
  8
0
 62
256
370
-1
  6
DOT2
100
AcDbEntity
100
AcDbSpline
 70
8
 71
3
 72
17
 73
13
 74
0
 40
0.0
 40
0.0
 40
0.0
 40
0.0
 40
1.0
 40
2.0
 40
3.0
 40
4.0
 40
5.0
 40
6.0
 40
7.0
 40
8.0
 40
9.0
 40
10.0
 40
10.0
 40
10.0
 40
10.0
 10
449.9999999999999432
 20
107.0000000000000142
 30
0.0
 10
438.0000000000000568
 20
107.0000000000000142
 30
0.0
 10
425.0000000000000568
 20
108.0000000000000142
 30
0.0
 10
423.0000000000000568
 20
113.0000000000000142
 30
0.0
 10
423.0000000000000568
 20
128.0000000000000284
 30
0.0
 10
428.0
 20
141.0000000000000284
 30
0.0
 10
433.0
 20
145.0000000000000284
 30
0.0
 10
441.0
 20
151.0000000000000284
 30
0.0
 10
449.9999999999999432
 20
155.0000000000000284
 30
0.0
 10
449.9999999999999432
 20
155.0000000000000284
 30
0.0
 10
449.9999999999999432
 20
155.0000000000000284
 30
0.0
 10
449.9999999999999432
 20
155.0000000000000284
 30
0.0
 10
449.9999999999999432
 20
155.0000000000000284
 30
0.0
  0
SPLINE
  5
111
  8
0
 62
256
370
-1
  6
BYLAYER
100
AcDbEntity
100
AcDbSpline
 70
8
 71
3
 72
9
 73
5
 74
0
 40
0.0
 40
0.0
 40
0.0
 40
0.0
 40
1.0
 40
2.0
 40
2.0
 40
2.0
 40
2.0
 10
428.9999999999999432
 20
124.0000000000000142
 30
0.0
 10
429.0000000000000568
 20
134.0000000000000284
 30
0.0
 10
429.0000000000000568
 20
138.0000000000000284
 30
0.0
 10
432.9999999999999432
 20
138.0000000000000284
 30
0.0
 10
449.9999999999999432
 20
138.0000000000000284
 30
0.0
  0
LINE
  5
112
100
AcDbEntity
100
AcDbLine
  8
0
 62
256
370
-1
  6
DOT2
 10
449.9999999999999432
 20
106.0000000000000142
 30
0.0
 11
449.9999999999999432
 21
156.0000000000000284
 31
0.0
  0
LINE
  5
113
100
AcDbEntity
100
AcDbLine
  8
0
 62
256
370
-1
  6
DOT2
 10
449.9999999999999432
 20
106.0000000000000142
 30
0.0
 11
420.0000000000000568
 21
106.0000000000000142
 31
0.0
  0
LINE
  5
114
100
AcDbEntity
100
AcDbLine
  8
0
 62
256
370
-1
  6
BYLAYER
 10
439.9999999999999432
 20
124.0000000000000142
 30
0.0
 11
439.9999999999999432
 21
126.0000000000000142
 31
0.0
  0
LINE
  5
115
100
AcDbEntity
100
AcDbLine
  8
0
 62
256
370
-1
  6
DOT2
 10
420.0000000000000568
 20
106.0000000000000142
 30
0.0
 11
420.0000000000000568
 21
156.0000000000000284
 31
0.0
  0
LINE
  5
116
100
AcDbEntity
100
AcDbLine
  8
0
 62
256
370
-1
  6
BYLAYER
 10
439.9999999999999432
 20
126.0000000000000142
 30
0.0
 11
429.0004987089844235
 21
126.0072576594436811
 31
0.0
  0
LINE
  5
117
100
AcDbEntity
100
AcDbLine
  8
0
 62
256
370
-1
  6
DOT2
 10
420.0000000000000568
 20
156.0000000000000284
 30
0.0
 11
449.9999999999999432
 21
156.0000000000000284
 31
0.0
  0
LINE
  5
118
100
AcDbEntity
100
AcDbLine
  8
0
 62
256
370
-1
  6
BYLAYER
 10
428.9999999999999432
 20
124.0000000000000142
 30
0.0
 11
449.9999999999999432
 21
124.0000000000000142
 31
0.0
  0
SPLINE
  5
119
  8
0
 62
256
370
-1
  6
DOT2
100
AcDbEntity
100
AcDbSpline
 70
8
 71
3
 72
17
 73
13
 74
0
 40
0.0
 40
0.0
 40
0.0
 40
0.0
 40
1.0
 40
2.0
 40
3.0
 40
4.0
 40
5.0
 40
6.0
 40
7.0
 40
8.0
 40
9.0
 40
10.0
 40
10.0
 40
10.0
 40
10.0
 10
449.9999999999998863
 20
52.0
 30
0.0
 10
438.0
 20
52.0
 30
0.0
 10
425.0
 20
53.0
 30
0.0
 10
423.0
 20
58.0
 30
0.0
 10
423.0
 20
73.0000000000000142
 30
0.0
 10
427.9999999999999432
 20
86.0000000000000142
 30
0.0
 10
432.9999999999999432
 20
90.0000000000000142
 30
0.0
 10
440.9999999999999432
 20
96.0000000000000142
 30
0.0
 10
449.9999999999998863
 20
100.0000000000000142
 30
0.0
 10
449.9999999999998863
 20
100.0000000000000142
 30
0.0
 10
449.9999999999998863
 20
100.0000000000000142
 30
0.0
 10
449.9999999999998863
 20
100.0000000000000142
 30
0.0
 10
449.9999999999998863
 20
100.0000000000000142
 30
0.0
  0
SPLINE
  5
11A
  8
0
 62
256
370
-1
  6
BYLAYER
100
AcDbEntity
100
AcDbSpline
 70
8
 71
3
 72
9
 73
5
 74
0
 40
0.0
 40
0.0
 40
0.0
 40
0.0
 40
1.0
 40
2.0
 40
2.0
 40
2.0
 40
2.0
 10
428.9999999999998863
 20
69.0
 30
0.0
 10
429.0
 20
79.0
 30
0.0
 10
429.0
 20
83.0000000000000142
 30
0.0
 10
432.9999999999998863
 20
83.0000000000000142
 30
0.0
 10
449.9999999999998863
 20
83.0000000000000142
 30
0.0
  0
LINE
  5
11B
100
AcDbEntity
100
AcDbLine
  8
0
 62
256
370
-1
  6
DOT2
 10
449.9999999999998863
 20
51.0
 30
0.0
 11
449.9999999999998863
 21
101.0000000000000142
 31
0.0
  0
LINE
  5
11C
100
AcDbEntity
100
AcDbLine
  8
0
 62
256
370
-1
  6
DOT2
 10
449.9999999999998863
 20
51.0
 30
0.0
 11
420.0
 21
51.0
 31
0.0
  0
LINE
  5
11D
100
AcDbEntity
100
AcDbLine
  8
0
 62
256
370
-1
  6
BYLAYER
 10
439.9999999999998863
 20
69.0
 30
0.0
 11
439.9999999999998863
 21
71.0
 31
0.0
  0
LINE
  5
11E
100
AcDbEntity
100
AcDbLine
  8
0
 62
256
370
-1
  6
DOT2
 10
420.0
 20
51.0
 30
0.0
 11
420.0
 21
101.0000000000000142
 31
0.0
  0
LINE
  5
11F
100
AcDbEntity
100
AcDbLine
  8
0
 62
256
370
-1
  6
BYLAYER
 10
439.9999999999998863
 20
71.0
 30
0.0
 11
429.0004987089843667
 21
71.0072576594436669
 31
0.0
  0
LINE
  5
120
100
AcDbEntity
100
AcDbLine
  8
0
 62
256
370
-1
  6
DOT2
 10
420.0
 20
101.0000000000000142
 30
0.0
 11
449.9999999999998863
 21
101.0000000000000142
 31
0.0
  0
LINE
  5
121
100
AcDbEntity
100
AcDbLine
  8
0
 62
256
370
-1
  6
BYLAYER
 10
428.9999999999998863
 20
69.0
 30
0.0
 11
449.9999999999998863
 21
69.0
 31
0.0
  0
SPLINE
  5
122
  8
0
 62
256
370
-1
  6
DOT2
100
AcDbEntity
100
AcDbSpline
 70
8
 71
3
 72
17
 73
13
 74
0
 40
0.0
 40
0.0
 40
0.0
 40
0.0
 40
1.0
 40
2.0
 40
3.0
 40
4.0
 40
5.0
 40
6.0
 40
7.0
 40
8.0
 40
9.0
 40
10.0
 40
10.0
 40
10.0
 40
10.0
 10
449.9999999999998863
 20
-3.0000000000000142
 30
0.0
 10
438.0
 20
-3.0000000000000142
 30
0.0
 10
425.0
 20
-2.0000000000000142
 30
0.0
 10
423.0
 20
2.9999999999999858
 30
0.0
 10
423.0
 20
18.0
 30
0.0
 10
427.9999999999999432
 20
31.0
 30
0.0
 10
432.9999999999999432
 20
35.0
 30
0.0
 10
440.9999999999999432
 20
41.0
 30
0.0
 10
449.9999999999998863
 20
45.0
 30
0.0
 10
449.9999999999998863
 20
45.0
 30
0.0
 10
449.9999999999998863
 20
45.0
 30
0.0
 10
449.9999999999998863
 20
45.0
 30
0.0
 10
449.9999999999998863
 20
45.0
 30
0.0
  0
SPLINE
  5
123
  8
0
 62
256
370
-1
  6
BYLAYER
100
AcDbEntity
100
AcDbSpline
 70
8
 71
3
 72
9
 73
5
 74
0
 40
0.0
 40
0.0
 40
0.0
 40
0.0
 40
1.0
 40
2.0
 40
2.0
 40
2.0
 40
2.0
 10
428.9999999999998863
 20
13.9999999999999858
 30
0.0
 10
429.0
 20
23.9999999999999858
 30
0.0
 10
429.0
 20
28.0
 30
0.0
 10
432.9999999999998863
 20
28.0
 30
0.0
 10
449.9999999999998863
 20
28.0
 30
0.0
  0
LINE
  5
124
100
AcDbEntity
100
AcDbLine
  8
0
 62
256
370
-1
  6
DOT2
 10
449.9999999999998863
 20
-4.0000000000000142
 30
0.0
 11
449.9999999999998863
 21
46.0
 31
0.0
  0
LINE
  5
125
100
AcDbEntity
100
AcDbLine
  8
0
 62
256
370
-1
  6
DOT2
 10
449.9999999999998863
 20
-4.0000000000000142
 30
0.0
 11
420.0
 21
-4.0000000000000142
 31
0.0
  0
LINE
  5
126
100
AcDbEntity
100
AcDbLine
  8
0
 62
256
370
-1
  6
BYLAYER
 10
439.9999999999998863
 20
13.9999999999999858
 30
0.0
 11
439.9999999999998863
 21
15.9999999999999858
 31
0.0
  0
LINE
  5
127
100
AcDbEntity
100
AcDbLine
  8
0
 62
256
370
-1
  6
DOT2
 10
420.0
 20
-4.0000000000000142
 30
0.0
 11
420.0
 21
46.0
 31
0.0
  0
LINE
  5
128
100
AcDbEntity
100
AcDbLine
  8
0
 62
256
370
-1
  6
BYLAYER
 10
439.9999999999998863
 20
15.9999999999999858
 30
0.0
 11
429.0004987089843667
 21
16.0072576594436526
 31
0.0
  0
LINE
  5
129
100
AcDbEntity
100
AcDbLine
  8
0
 62
256
370
-1
  6
DOT2
 10
420.0
 20
46.0
 30
0.0
 11
449.9999999999998863
 21
46.0
 31
0.0
  0
LINE
  5
12A
100
AcDbEntity
100
AcDbLine
  8
0
 62
256
370
-1
  6
BYLAYER
 10
428.9999999999998863
 20
13.9999999999999858
 30
0.0
 11
449.9999999999998863
 21
13.9999999999999858
 31
0.0
  0
SPLINE
  5
12B
  8
0
 62
256
370
-1
  6
DOT2
100
AcDbEntity
100
AcDbSpline
 70
8
 71
3
 72
17
 73
13
 74
0
 40
0.0
 40
0.0
 40
0.0
 40
0.0
 40
1.0
 40
2.0
 40
3.0
 40
4.0
 40
5.0
 40
6.0
 40
7.0
 40
8.0
 40
9.0
 40
10.0
 40
10.0
 40
10.0
 40
10.0
 10
449.9999999999998295
 20
-58.0000000000000426
 30
0.0
 10
437.9999999999999432
 20
-58.0000000000000426
 30
0.0
 10
424.9999999999999432
 20
-57.0000000000000426
 30
0.0
 10
422.9999999999999432
 20
-52.0000000000000426
 30
0.0
 10
422.9999999999999432
 20
-37.0000000000000284
 30
0.0
 10
427.9999999999998863
 20
-24.0000000000000284
 30
0.0
 10
432.9999999999998863
 20
-20.0000000000000284
 30
0.0
 10
440.9999999999998863
 20
-14.0000000000000284
 30
0.0
 10
449.9999999999998295
 20
-10.0000000000000284
 30
0.0
 10
449.9999999999998295
 20
-10.0000000000000284
 30
0.0
 10
449.9999999999998295
 20
-10.0000000000000284
 30
0.0
 10
449.9999999999998295
 20
-10.0000000000000284
 30
0.0
 10
449.9999999999998295
 20
-10.0000000000000284
 30
0.0
  0
SPLINE
  5
12C
  8
0
 62
256
370
-1
  6
BYLAYER
100
AcDbEntity
100
AcDbSpline
 70
8
 71
3
 72
9
 73
5
 74
0
 40
0.0
 40
0.0
 40
0.0
 40
0.0
 40
1.0
 40
2.0
 40
2.0
 40
2.0
 40
2.0
 10
428.9999999999998295
 20
-41.0000000000000426
 30
0.0
 10
428.9999999999999432
 20
-31.0000000000000426
 30
0.0
 10
428.9999999999999432
 20
-27.0000000000000284
 30
0.0
 10
432.9999999999998295
 20
-27.0000000000000284
 30
0.0
 10
449.9999999999998295
 20
-27.0000000000000284
 30
0.0
  0
LINE
  5
12D
100
AcDbEntity
100
AcDbLine
  8
0
 62
256
370
-1
  6
DOT2
 10
449.9999999999998295
 20
-59.0000000000000426
 30
0.0
 11
449.9999999999998295
 21
-9.0000000000000284
 31
0.0
  0
LINE
  5
12E
100
AcDbEntity
100
AcDbLine
  8
0
 62
256
370
-1
  6
DOT2
 10
449.9999999999998295
 20
-59.0000000000000426
 30
0.0
 11
419.9999999999999432
 21
-59.0000000000000426
 31
0.0
  0
LINE
  5
12F
100
AcDbEntity
100
AcDbLine
  8
0
 62
256
370
-1
  6
BYLAYER
 10
439.9999999999998295
 20
-41.0000000000000426
 30
0.0
 11
439.9999999999998295
 21
-39.0000000000000426
 31
0.0
  0
LINE
  5
130
100
AcDbEntity
100
AcDbLine
  8
0
 62
256
370
-1
  6
DOT2
 10
419.9999999999999432
 20
-59.0000000000000426
 30
0.0
 11
419.9999999999999432
 21
-9.0000000000000284
 31
0.0
  0
LINE
  5
131
100
AcDbEntity
100
AcDbLine
  8
0
 62
256
370
-1
  6
BYLAYER
 10
439.9999999999998295
 20
-39.0000000000000426
 30
0.0
 11
429.0004987089843098
 21
-38.9927423405563758
 31
0.0
  0
LINE
  5
132
100
AcDbEntity
100
AcDbLine
  8
0
 62
256
370
-1
  6
DOT2
 10
419.9999999999999432
 20
-9.0000000000000284
 30
0.0
 11
449.9999999999998295
 21
-9.0000000000000284
 31
0.0
  0
LINE
  5
133
100
AcDbEntity
100
AcDbLine
  8
0
 62
256
370
-1
  6
BYLAYER
 10
428.9999999999998295
 20
-41.0000000000000426
 30
0.0
 11
449.9999999999998295
 21
-41.0000000000000426
 31
0.0
  0
LINE
  5
134
100
AcDbEntity
100
AcDbLine
  8
0
 62
256
370
-1
  6
DOT2
 10
449.9999999999999432
 20
106.0000000000000142
 30
0.0
 11
449.9999999999999432
 21
156.0000000000000284
 31
0.0
  0
LINE
  5
135
100
AcDbEntity
100
AcDbLine
  8
0
 62
256
370
-1
  6
DOT2
 10
449.9999999999998863
 20
51.0
 30
0.0
 11
449.9999999999998863
 21
101.0000000000000142
 31
0.0
  0
LINE
  5
136
100
AcDbEntity
100
AcDbLine
  8
0
 62
256
370
-1
  6
DOT2
 10
449.9999999999998863
 20
-4.0000000000000142
 30
0.0
 11
449.9999999999998863
 21
46.0
 31
0.0
  0
LINE
  5
137
100
AcDbEntity
100
AcDbLine
  8
0
 62
256
370
-1
  6
DOT2
 10
449.9999999999998295
 20
-59.0000000000000426
 30
0.0
 11
449.9999999999998295
 21
-9.0000000000000284
 31
0.0
  0
SPLINE
  5
138
  8
0
 62
256
370
-1
  6
BYLAYER
100
AcDbEntity
100
AcDbSpline
 70
8
 71
3
 72
17
 73
13
 74
0
 40
0.0
 40
0.0
 40
0.0
 40
0.0
 40
1.0
 40
2.0
 40
3.0
 40
4.0
 40
5.0
 40
6.0
 40
7.0
 40
8.0
 40
9.0
 40
10.0
 40
10.0
 40
10.0
 40
10.0
 10
308.0000000000000568
 20
130.0000000000000568
 30
0.0
 10
308.0000000000000568
 20
142.0000000000000568
 30
0.0
 10
309.0000000000000568
 20
155.0000000000000568
 30
0.0
 10
314.0000000000000568
 20
157.0000000000000568
 30
0.0
 10
329.0000000000000568
 20
157.0000000000000568
 30
0.0
 10
342.0000000000000568
 20
152.0000000000000568
 30
0.0
 10
346.0000000000000568
 20
147.0000000000000568
 30
0.0
 10
352.0000000000000568
 20
139.0000000000000568
 30
0.0
 10
356.0000000000000568
 20
130.0000000000000568
 30
0.0
 10
356.0000000000000568
 20
130.0000000000000568
 30
0.0
 10
356.0000000000000568
 20
130.0000000000000568
 30
0.0
 10
356.0000000000000568
 20
130.0000000000000568
 30
0.0
 10
356.0000000000000568
 20
130.0000000000000568
 30
0.0
  0
LINE
  5
139
100
AcDbEntity
100
AcDbLine
  8
0
 62
256
370
-1
  6
DOT2
 10
307.0000000000000568
 20
160.0000000000000568
 30
0.0
 11
357.0000000000000568
 21
160.0000000000000568
 31
0.0
  0
LINE
  5
13A
100
AcDbEntity
100
AcDbLine
  8
0
 62
256
370
-1
  6
DOT2
 10
307.0000000000000568
 20
130.0000000000001421
 30
0.0
 11
357.0000000000000568
 21
130.0000000000001421
 31
0.0
  0
SPLINE
  5
13B
  8
0
 62
256
370
-1
  6
BYLAYER
100
AcDbEntity
100
AcDbSpline
 70
8
 71
3
 72
17
 73
13
 74
0
 40
0.0
 40
0.0
 40
0.0
 40
0.0
 40
1.0
 40
2.0
 40
3.0
 40
4.0
 40
5.0
 40
6.0
 40
7.0
 40
8.0
 40
9.0
 40
10.0
 40
10.0
 40
10.0
 40
10.0
 10
308.0000000000000568
 20
100.0000000000001563
 30
0.0
 10
308.0000000000000568
 20
112.0000000000001563
 30
0.0
 10
309.0000000000000568
 20
125.0000000000001563
 30
0.0
 10
314.0000000000000568
 20
127.0000000000001563
 30
0.0
 10
329.0000000000000568
 20
127.0000000000001563
 30
0.0
 10
342.0000000000000568
 20
122.0000000000001563
 30
0.0
 10
346.0000000000000568
 20
117.0000000000001563
 30
0.0
 10
352.0000000000000568
 20
109.0000000000001563
 30
0.0
 10
356.0000000000000568
 20
100.0000000000001563
 30
0.0
 10
356.0000000000000568
 20
100.0000000000001563
 30
0.0
 10
356.0000000000000568
 20
100.0000000000001563
 30
0.0
 10
356.0000000000000568
 20
100.0000000000001563
 30
0.0
 10
356.0000000000000568
 20
100.0000000000001563
 30
0.0
  0
LINE
  5
13C
100
AcDbEntity
100
AcDbLine
  8
0
 62
256
370
-1
  6
DOT2
 10
307.0000000000000568
 20
130.0000000000001421
 30
0.0
 11
357.0000000000000568
 21
130.0000000000001421
 31
0.0
  0
LINE
  5
13D
100
AcDbEntity
100
AcDbLine
  8
0
 62
256
370
-1
  6
DOT2
 10
307.0000000000000568
 20
100.0000000000002416
 30
0.0
 11
357.0000000000000568
 21
100.0000000000002416
 31
0.0
  0
SPLINE
  5
13E
  8
0
 62
256
370
-1
  6
BYLAYER
100
AcDbEntity
100
AcDbSpline
 70
8
 71
3
 72
17
 73
13
 74
0
 40
0.0
 40
0.0
 40
0.0
 40
0.0
 40
1.0
 40
2.0
 40
3.0
 40
4.0
 40
5.0
 40
6.0
 40
7.0
 40
8.0
 40
9.0
 40
10.0
 40
10.0
 40
10.0
 40
10.0
 10
308.0000000000000568
 20
70.0000000000002558
 30
0.0
 10
308.0000000000000568
 20
82.0000000000002558
 30
0.0
 10
309.0000000000000568
 20
95.0000000000002558
 30
0.0
 10
314.0000000000000568
 20
97.0000000000002558
 30
0.0
 10
329.0000000000000568
 20
97.0000000000002558
 30
0.0
 10
342.0000000000000568
 20
92.0000000000002558
 30
0.0
 10
346.0000000000000568
 20
87.0000000000002558
 30
0.0
 10
352.0000000000000568
 20
79.0000000000002558
 30
0.0
 10
356.0000000000000568
 20
70.0000000000002558
 30
0.0
 10
356.0000000000000568
 20
70.0000000000002558
 30
0.0
 10
356.0000000000000568
 20
70.0000000000002558
 30
0.0
 10
356.0000000000000568
 20
70.0000000000002558
 30
0.0
 10
356.0000000000000568
 20
70.0000000000002558
 30
0.0
  0
LINE
  5
13F
100
AcDbEntity
100
AcDbLine
  8
0
 62
256
370
-1
  6
DOT2
 10
307.0000000000000568
 20
100.0000000000002558
 30
0.0
 11
357.0000000000000568
 21
100.0000000000002558
 31
0.0
  0
LINE
  5
140
100
AcDbEntity
100
AcDbLine
  8
0
 62
256
370
-1
  6
DOT2
 10
307.0000000000000568
 20
70.0000000000003411
 30
0.0
 11
357.0000000000000568
 21
70.0000000000003411
 31
0.0
  0
SPLINE
  5
141
  8
0
 62
256
370
-1
  6
BYLAYER
100
AcDbEntity
100
AcDbSpline
 70
8
 71
3
 72
17
 73
13
 74
0
 40
0.0
 40
0.0
 40
0.0
 40
0.0
 40
1.0
 40
2.0
 40
3.0
 40
4.0
 40
5.0
 40
6.0
 40
7.0
 40
8.0
 40
9.0
 40
10.0
 40
10.0
 40
10.0
 40
10.0
 10
308.0000000000000568
 20
40.0000000000003553
 30
0.0
 10
308.0000000000000568
 20
52.0000000000003553
 30
0.0
 10
309.0000000000000568
 20
65.0000000000003553
 30
0.0
 10
314.0000000000000568
 20
67.0000000000003553
 30
0.0
 10
329.0000000000000568
 20
67.0000000000003553
 30
0.0
 10
342.0000000000000568
 20
62.0000000000003553
 30
0.0
 10
346.0000000000000568
 20
57.0000000000003553
 30
0.0
 10
352.0000000000000568
 20
49.0000000000003553
 30
0.0
 10
356.0000000000000568
 20
40.0000000000003553
 30
0.0
 10
356.0000000000000568
 20
40.0000000000003553
 30
0.0
 10
356.0000000000000568
 20
40.0000000000003553
 30
0.0
 10
356.0000000000000568
 20
40.0000000000003553
 30
0.0
 10
356.0000000000000568
 20
40.0000000000003553
 30
0.0
  0
LINE
  5
142
100
AcDbEntity
100
AcDbLine
  8
0
 62
256
370
-1
  6
DOT2
 10
307.0000000000000568
 20
70.0000000000003553
 30
0.0
 11
357.0000000000000568
 21
70.0000000000003553
 31
0.0
  0
LINE
  5
143
100
AcDbEntity
100
AcDbLine
  8
0
 62
256
370
-1
  6
DOT2
 10
307.0000000000000568
 20
40.0000000000004405
 30
0.0
 11
357.0000000000000568
 21
40.0000000000004405
 31
0.0
  0
SPLINE
  5
144
  8
0
 62
256
370
-1
  6
BYLAYER
100
AcDbEntity
100
AcDbSpline
 70
8
 71
3
 72
17
 73
13
 74
0
 40
0.0
 40
0.0
 40
0.0
 40
0.0
 40
1.0
 40
2.0
 40
3.0
 40
4.0
 40
5.0
 40
6.0
 40
7.0
 40
8.0
 40
9.0
 40
10.0
 40
10.0
 40
10.0
 40
10.0
 10
308.0000000000000568
 20
10.0000000000004547
 30
0.0
 10
308.0000000000000568
 20
22.0000000000004547
 30
0.0
 10
309.0000000000000568
 20
35.0000000000004547
 30
0.0
 10
314.0000000000000568
 20
37.0000000000004547
 30
0.0
 10
329.0000000000000568
 20
37.0000000000004547
 30
0.0
 10
342.0000000000000568
 20
32.0000000000004547
 30
0.0
 10
346.0000000000000568
 20
27.0000000000004547
 30
0.0
 10
352.0000000000000568
 20
19.0000000000004547
 30
0.0
 10
356.0000000000000568
 20
10.0000000000004547
 30
0.0
 10
356.0000000000000568
 20
10.0000000000004547
 30
0.0
 10
356.0000000000000568
 20
10.0000000000004547
 30
0.0
 10
356.0000000000000568
 20
10.0000000000004547
 30
0.0
 10
356.0000000000000568
 20
10.0000000000004547
 30
0.0
  0
LINE
  5
145
100
AcDbEntity
100
AcDbLine
  8
0
 62
256
370
-1
  6
DOT2
 10
307.0000000000000568
 20
40.0000000000004547
 30
0.0
 11
357.0000000000000568
 21
40.0000000000004547
 31
0.0
  0
LINE
  5
146
100
AcDbEntity
100
AcDbLine
  8
0
 62
256
370
-1
  6
DOT2
 10
307.0000000000000568
 20
10.00000000000054
 30
0.0
 11
357.0000000000000568
 21
10.00000000000054
 31
0.0
  0
SPLINE
  5
147
  8
0
 62
256
370
-1
  6
BYLAYER
100
AcDbEntity
100
AcDbSpline
 70
8
 71
3
 72
17
 73
13
 74
0
 40
0.0
 40
0.0
 40
0.0
 40
0.0
 40
1.0
 40
2.0
 40
3.0
 40
4.0
 40
5.0
 40
6.0
 40
7.0
 40
8.0
 40
9.0
 40
10.0
 40
10.0
 40
10.0
 40
10.0
 10
308.0000000000000568
 20
-19.9999999999994316
 30
0.0
 10
308.0000000000000568
 20
-7.9999999999994316
 30
0.0
 10
309.0000000000000568
 20
5.0000000000005684
 30
0.0
 10
314.0000000000000568
 20
7.0000000000005684
 30
0.0
 10
329.0000000000000568
 20
7.0000000000005684
 30
0.0
 10
342.0000000000000568
 20
2.0000000000005684
 30
0.0
 10
346.0000000000000568
 20
-2.9999999999994316
 30
0.0
 10
352.0000000000000568
 20
-10.9999999999994316
 30
0.0
 10
356.0000000000000568
 20
-19.9999999999994316
 30
0.0
 10
356.0000000000000568
 20
-19.9999999999994316
 30
0.0
 10
356.0000000000000568
 20
-19.9999999999994316
 30
0.0
 10
356.0000000000000568
 20
-19.9999999999994316
 30
0.0
 10
356.0000000000000568
 20
-19.9999999999994316
 30
0.0
  0
LINE
  5
148
100
AcDbEntity
100
AcDbLine
  8
0
 62
256
370
-1
  6
DOT2
 10
307.0000000000000568
 20
10.0000000000005684
 30
0.0
 11
357.0000000000000568
 21
10.0000000000005684
 31
0.0
  0
LINE
  5
149
100
AcDbEntity
100
AcDbLine
  8
0
 62
256
370
-1
  6
DOT2
 10
307.0000000000000568
 20
-19.9999999999993463
 30
0.0
 11
357.0000000000000568
 21
-19.9999999999993463
 31
0.0
  0
SPLINE
  5
14A
  8
0
 62
256
370
-1
  6
BYLAYER
100
AcDbEntity
100
AcDbSpline
 70
8
 71
3
 72
17
 73
13
 74
0
 40
0.0
 40
0.0
 40
0.0
 40
0.0
 40
1.0
 40
2.0
 40
3.0
 40
4.0
 40
5.0
 40
6.0
 40
7.0
 40
8.0
 40
9.0
 40
10.0
 40
10.0
 40
10.0
 40
10.0
 10
308.0000000000000568
 20
-49.9999999999993463
 30
0.0
 10
308.0000000000000568
 20
-37.9999999999993463
 30
0.0
 10
309.0000000000000568
 20
-24.9999999999993463
 30
0.0
 10
314.0000000000000568
 20
-22.9999999999993463
 30
0.0
 10
329.0000000000000568
 20
-22.9999999999993463
 30
0.0
 10
342.0000000000000568
 20
-27.9999999999993463
 30
0.0
 10
346.0000000000000568
 20
-32.9999999999993463
 30
0.0
 10
352.0000000000000568
 20
-40.9999999999993463
 30
0.0
 10
356.0000000000000568
 20
-49.9999999999993463
 30
0.0
 10
356.0000000000000568
 20
-49.9999999999993463
 30
0.0
 10
356.0000000000000568
 20
-49.9999999999993463
 30
0.0
 10
356.0000000000000568
 20
-49.9999999999993463
 30
0.0
 10
356.0000000000000568
 20
-49.9999999999993463
 30
0.0
  0
LINE
  5
14B
100
AcDbEntity
100
AcDbLine
  8
0
 62
256
370
-1
  6
DOT2
 10
307.0000000000000568
 20
-19.9999999999993463
 30
0.0
 11
357.0000000000000568
 21
-19.9999999999993463
 31
0.0
  0
LINE
  5
14C
100
AcDbEntity
100
AcDbLine
  8
0
 62
256
370
-1
  6
DOT2
 10
307.0000000000000568
 20
-49.999999999999261
 30
0.0
 11
357.0000000000000568
 21
-49.999999999999261
 31
0.0
  0
SPLINE
  5
14D
  8
0
 62
256
370
-1
  6
BYLAYER
100
AcDbEntity
100
AcDbSpline
 70
8
 71
3
 72
17
 73
13
 74
0
 40
0.0
 40
0.0
 40
0.0
 40
0.0
 40
1.0
 40
2.0
 40
3.0
 40
4.0
 40
5.0
 40
6.0
 40
7.0
 40
8.0
 40
9.0
 40
10.0
 40
10.0
 40
10.0
 40
10.0
 10
308.0000000000000568
 20
-79.999999999999261
 30
0.0
 10
308.0000000000000568
 20
-67.999999999999261
 30
0.0
 10
309.0000000000000568
 20
-54.999999999999261
 30
0.0
 10
314.0000000000000568
 20
-52.999999999999261
 30
0.0
 10
329.0000000000000568
 20
-52.999999999999261
 30
0.0
 10
342.0000000000000568
 20
-57.999999999999261
 30
0.0
 10
346.0000000000000568
 20
-62.999999999999261
 30
0.0
 10
352.0000000000000568
 20
-70.999999999999261
 30
0.0
 10
356.0000000000000568
 20
-79.999999999999261
 30
0.0
 10
356.0000000000000568
 20
-79.999999999999261
 30
0.0
 10
356.0000000000000568
 20
-79.999999999999261
 30
0.0
 10
356.0000000000000568
 20
-79.999999999999261
 30
0.0
 10
356.0000000000000568
 20
-79.999999999999261
 30
0.0
  0
LINE
  5
14E
100
AcDbEntity
100
AcDbLine
  8
0
 62
256
370
-1
  6
DOT2
 10
307.0000000000000568
 20
-49.999999999999261
 30
0.0
 11
357.0000000000000568
 21
-49.999999999999261
 31
0.0
  0
LINE
  5
14F
100
AcDbEntity
100
AcDbLine
  8
0
 62
256
370
-1
  6
DOT2
 10
307.0000000000000568
 20
-79.9999999999991758
 30
0.0
 11
357.0000000000000568
 21
-79.9999999999991758
 31
0.0
  0
LINE
  5
150
100
AcDbEntity
100
AcDbLine
  8
0
 62
256
370
-1
  6
DOT2
 10
230.0000000000000284
 20
-19.9999999999993889
 30
0.0
 11
230.0000000000000284
 21
10.0000000000005258
 31
0.0
  0
LINE
  5
151
100
AcDbEntity
100
AcDbLine
  8
0
 62
256
370
-1
  6
DOT2
 10
230.0000000000000284
 20
10.0000000000005258
 30
0.0
 11
280.0
 21
10.0000000000005258
 31
0.0
  0
LINE
  5
152
100
AcDbEntity
100
AcDbLine
  8
0
 62
256
370
-1
  6
DOT2
 10
230.0000000000000284
 20
-19.9999999999993889
 30
0.0
 11
280.0
 21
-19.9999999999993889
 31
0.0
  0
SPLINE
  5
153
  8
0
 62
256
370
-1
  6
BYLAYER
100
AcDbEntity
100
AcDbSpline
 70
8
 71
3
 72
17
 73
13
 74
0
 40
0.0
 40
0.0
 40
0.0
 40
0.0
 40
1.0
 40
2.0
 40
3.0
 40
4.0
 40
5.0
 40
6.0
 40
7.0
 40
8.0
 40
9.0
 40
10.0
 40
10.0
 40
10.0
 40
10.0
 10
231.0000000000000284
 20
-49.9999999999993889
 30
0.0
 10
231.0000000000000284
 20
-37.9999999999993889
 30
0.0
 10
232.0000000000000284
 20
-24.9999999999993889
 30
0.0
 10
237.0000000000000284
 20
-22.9999999999993889
 30
0.0
 10
252.0000000000000284
 20
-22.9999999999993889
 30
0.0
 10
265.0
 20
-27.9999999999993889
 30
0.0
 10
269.0
 20
-32.9999999999993889
 30
0.0
 10
275.0
 20
-40.9999999999993889
 30
0.0
 10
279.0
 20
-49.9999999999993889
 30
0.0
 10
279.0
 20
-49.9999999999993889
 30
0.0
 10
279.0
 20
-49.9999999999993889
 30
0.0
 10
279.0
 20
-49.9999999999993889
 30
0.0
 10
279.0
 20
-49.9999999999993889
 30
0.0
  0
LINE
  5
154
100
AcDbEntity
100
AcDbLine
  8
0
 62
256
370
-1
  6
DOT2
 10
230.0000000000000284
 20
-49.9999999999993037
 30
0.0
 11
230.0000000000000284
 21
-19.9999999999993889
 31
0.0
  0
LINE
  5
155
100
AcDbEntity
100
AcDbLine
  8
0
 62
256
370
-1
  6
DOT2
 10
230.0000000000000284
 20
-19.9999999999993889
 30
0.0
 11
280.0
 21
-19.9999999999993889
 31
0.0
  0
LINE
  5
156
100
AcDbEntity
100
AcDbLine
  8
0
 62
256
370
-1
  6
DOT2
 10
230.0000000000000284
 20
-49.9999999999993037
 30
0.0
 11
280.0
 21
-49.9999999999993037
 31
0.0
  0
SPLINE
  5
157
  8
0
 62
256
370
-1
  6
BYLAYER
100
AcDbEntity
100
AcDbSpline
 70
8
 71
3
 72
17
 73
13
 74
0
 40
0.0
 40
0.0
 40
0.0
 40
0.0
 40
1.0
 40
2.0
 40
3.0
 40
4.0
 40
5.0
 40
6.0
 40
7.0
 40
8.0
 40
9.0
 40
10.0
 40
10.0
 40
10.0
 40
10.0
 10
231.0000000000000284
 20
-79.9999999999993037
 30
0.0
 10
231.0000000000000284
 20
-67.9999999999993037
 30
0.0
 10
232.0000000000000284
 20
-54.9999999999993037
 30
0.0
 10
237.0000000000000284
 20
-52.9999999999993037
 30
0.0
 10
252.0000000000000284
 20
-52.9999999999993037
 30
0.0
 10
265.0
 20
-57.9999999999993037
 30
0.0
 10
269.0
 20
-62.9999999999993037
 30
0.0
 10
275.0
 20
-70.9999999999993037
 30
0.0
 10
279.0
 20
-79.9999999999993037
 30
0.0
 10
279.0
 20
-79.9999999999993037
 30
0.0
 10
279.0
 20
-79.9999999999993037
 30
0.0
 10
279.0
 20
-79.9999999999993037
 30
0.0
 10
279.0
 20
-79.9999999999993037
 30
0.0
  0
LINE
  5
158
100
AcDbEntity
100
AcDbLine
  8
0
 62
256
370
-1
  6
DOT2
 10
230.0000000000000284
 20
-79.9999999999992184
 30
0.0
 11
230.0000000000000284
 21
-49.9999999999993037
 31
0.0
  0
LINE
  5
159
100
AcDbEntity
100
AcDbLine
  8
0
 62
256
370
-1
  6
DOT2
 10
230.0000000000000284
 20
-49.9999999999993037
 30
0.0
 11
280.0
 21
-49.9999999999993037
 31
0.0
  0
LINE
  5
15A
100
AcDbEntity
100
AcDbLine
  8
0
 62
256
370
-1
  6
DOT2
 10
230.0000000000000284
 20
-79.9999999999992184
 30
0.0
 11
280.0
 21
-79.9999999999992184
 31
0.0
  0
SPLINE
  5
15B
  8
0
 62
256
370
-1
  6
BYLAYER
100
AcDbEntity
100
AcDbSpline
 70
8
 71
3
 72
17
 73
13
 74
0
 40
0.0
 40
0.0
 40
0.0
 40
0.0
 40
1.0
 40
2.0
 40
3.0
 40
4.0
 40
5.0
 40
6.0
 40
7.0
 40
8.0
 40
9.0
 40
10.0
 40
10.0
 40
10.0
 40
10.0
 10
231.0000000000000284
 20
130.0000000000000284
 30
0.0
 10
231.0000000000000284
 20
142.0000000000000284
 30
0.0
 10
232.0000000000000284
 20
155.0000000000000284
 30
0.0
 10
237.0000000000000284
 20
157.0000000000000284
 30
0.0
 10
252.0000000000000284
 20
157.0000000000000284
 30
0.0
 10
265.0
 20
152.0000000000000284
 30
0.0
 10
269.0
 20
147.0000000000000284
 30
0.0
 10
275.0
 20
139.0000000000000284
 30
0.0
 10
279.0
 20
130.0000000000000284
 30
0.0
 10
279.0
 20
130.0000000000000284
 30
0.0
 10
279.0
 20
130.0000000000000284
 30
0.0
 10
279.0
 20
130.0000000000000284
 30
0.0
 10
279.0
 20
130.0000000000000284
 30
0.0
  0
LINE
  5
15C
100
AcDbEntity
100
AcDbLine
  8
0
 62
256
370
-1
  6
DOT2
 10
230.0000000000000284
 20
130.0000000000000853
 30
0.0
 11
230.0000000000000284
 21
160.0000000000000284
 31
0.0
  0
LINE
  5
15D
100
AcDbEntity
100
AcDbLine
  8
0
 62
256
370
-1
  6
DOT2
 10
230.0000000000000284
 20
160.0000000000000284
 30
0.0
 11
280.0
 21
160.0000000000000284
 31
0.0
  0
LINE
  5
15E
100
AcDbEntity
100
AcDbLine
  8
0
 62
256
370
-1
  6
DOT2
 10
230.0000000000000284
 20
130.0000000000000853
 30
0.0
 11
280.0
 21
130.0000000000000853
 31
0.0
  0
SPLINE
  5
15F
  8
0
 62
256
370
-1
  6
BYLAYER
100
AcDbEntity
100
AcDbSpline
 70
8
 71
3
 72
17
 73
13
 74
0
 40
0.0
 40
0.0
 40
0.0
 40
0.0
 40
1.0
 40
2.0
 40
3.0
 40
4.0
 40
5.0
 40
6.0
 40
7.0
 40
8.0
 40
9.0
 40
10.0
 40
10.0
 40
10.0
 40
10.0
 10
231.0000000000000284
 20
100.0000000000001137
 30
0.0
 10
231.0000000000000284
 20
112.0000000000001137
 30
0.0
 10
232.0000000000000284
 20
125.0000000000001137
 30
0.0
 10
237.0000000000000284
 20
127.0000000000001137
 30
0.0
 10
252.0000000000000284
 20
127.0000000000001137
 30
0.0
 10
265.0
 20
122.0000000000001137
 30
0.0
 10
269.0
 20
117.0000000000001137
 30
0.0
 10
275.0
 20
109.0000000000001137
 30
0.0
 10
279.0
 20
100.0000000000001137
 30
0.0
 10
279.0
 20
100.0000000000001137
 30
0.0
 10
279.0
 20
100.0000000000001137
 30
0.0
 10
279.0
 20
100.0000000000001137
 30
0.0
 10
279.0
 20
100.0000000000001137
 30
0.0
  0
LINE
  5
160
100
AcDbEntity
100
AcDbLine
  8
0
 62
256
370
-1
  6
DOT2
 10
230.0000000000000284
 20
100.000000000000199
 30
0.0
 11
230.0000000000000284
 21
130.0000000000001137
 31
0.0
  0
LINE
  5
161
100
AcDbEntity
100
AcDbLine
  8
0
 62
256
370
-1
  6
DOT2
 10
230.0000000000000284
 20
130.0000000000001137
 30
0.0
 11
280.0
 21
130.0000000000001137
 31
0.0
  0
LINE
  5
162
100
AcDbEntity
100
AcDbLine
  8
0
 62
256
370
-1
  6
DOT2
 10
230.0000000000000284
 20
100.000000000000199
 30
0.0
 11
280.0
 21
100.000000000000199
 31
0.0
  0
SPLINE
  5
163
  8
0
 62
256
370
-1
  6
BYLAYER
100
AcDbEntity
100
AcDbSpline
 70
8
 71
3
 72
17
 73
13
 74
0
 40
0.0
 40
0.0
 40
0.0
 40
0.0
 40
1.0
 40
2.0
 40
3.0
 40
4.0
 40
5.0
 40
6.0
 40
7.0
 40
8.0
 40
9.0
 40
10.0
 40
10.0
 40
10.0
 40
10.0
 10
231.0000000000000284
 20
70.0000000000002132
 30
0.0
 10
231.0000000000000284
 20
82.0000000000002132
 30
0.0
 10
232.0000000000000284
 20
95.0000000000002132
 30
0.0
 10
237.0000000000000284
 20
97.0000000000002132
 30
0.0
 10
252.0000000000000284
 20
97.0000000000002132
 30
0.0
 10
265.0
 20
92.0000000000002132
 30
0.0
 10
269.0
 20
87.0000000000002132
 30
0.0
 10
275.0
 20
79.0000000000002132
 30
0.0
 10
279.0
 20
70.0000000000002132
 30
0.0
 10
279.0
 20
70.0000000000002132
 30
0.0
 10
279.0
 20
70.0000000000002132
 30
0.0
 10
279.0
 20
70.0000000000002132
 30
0.0
 10
279.0
 20
70.0000000000002132
 30
0.0
  0
LINE
  5
164
100
AcDbEntity
100
AcDbLine
  8
0
 62
256
370
-1
  6
DOT2
 10
230.0000000000000284
 20
70.0000000000002984
 30
0.0
 11
230.0000000000000284
 21
100.0000000000002132
 31
0.0
  0
LINE
  5
165
100
AcDbEntity
100
AcDbLine
  8
0
 62
256
370
-1
  6
DOT2
 10
230.0000000000000284
 20
100.0000000000002132
 30
0.0
 11
280.0
 21
100.0000000000002132
 31
0.0
  0
LINE
  5
166
100
AcDbEntity
100
AcDbLine
  8
0
 62
256
370
-1
  6
DOT2
 10
230.0000000000000284
 20
70.0000000000002984
 30
0.0
 11
280.0
 21
70.0000000000002984
 31
0.0
  0
SPLINE
  5
167
  8
0
 62
256
370
-1
  6
BYLAYER
100
AcDbEntity
100
AcDbSpline
 70
8
 71
3
 72
17
 73
13
 74
0
 40
0.0
 40
0.0
 40
0.0
 40
0.0
 40
1.0
 40
2.0
 40
3.0
 40
4.0
 40
5.0
 40
6.0
 40
7.0
 40
8.0
 40
9.0
 40
10.0
 40
10.0
 40
10.0
 40
10.0
 10
231.0000000000000284
 20
40.0000000000003126
 30
0.0
 10
231.0000000000000284
 20
52.0000000000003126
 30
0.0
 10
232.0000000000000284
 20
65.0000000000003126
 30
0.0
 10
237.0000000000000284
 20
67.0000000000003126
 30
0.0
 10
252.0000000000000284
 20
67.0000000000003126
 30
0.0
 10
265.0
 20
62.0000000000003126
 30
0.0
 10
269.0
 20
57.0000000000003126
 30
0.0
 10
275.0
 20
49.0000000000003126
 30
0.0
 10
279.0
 20
40.0000000000003126
 30
0.0
 10
279.0
 20
40.0000000000003126
 30
0.0
 10
279.0
 20
40.0000000000003126
 30
0.0
 10
279.0
 20
40.0000000000003126
 30
0.0
 10
279.0
 20
40.0000000000003126
 30
0.0
  0
LINE
  5
168
100
AcDbEntity
100
AcDbLine
  8
0
 62
256
370
-1
  6
DOT2
 10
230.0000000000000284
 20
40.0000000000003979
 30
0.0
 11
230.0000000000000284
 21
70.0000000000003126
 31
0.0
  0
LINE
  5
169
100
AcDbEntity
100
AcDbLine
  8
0
 62
256
370
-1
  6
DOT2
 10
230.0000000000000284
 20
70.0000000000003126
 30
0.0
 11
280.0
 21
70.0000000000003126
 31
0.0
  0
LINE
  5
16A
100
AcDbEntity
100
AcDbLine
  8
0
 62
256
370
-1
  6
DOT2
 10
230.0000000000000284
 20
40.0000000000003979
 30
0.0
 11
280.0
 21
40.0000000000003979
 31
0.0
  0
SPLINE
  5
16B
  8
0
 62
256
370
-1
  6
BYLAYER
100
AcDbEntity
100
AcDbSpline
 70
8
 71
3
 72
17
 73
13
 74
0
 40
0.0
 40
0.0
 40
0.0
 40
0.0
 40
1.0
 40
2.0
 40
3.0
 40
4.0
 40
5.0
 40
6.0
 40
7.0
 40
8.0
 40
9.0
 40
10.0
 40
10.0
 40
10.0
 40
10.0
 10
231.0000000000000284
 20
10.0000000000004121
 30
0.0
 10
231.0000000000000284
 20
22.0000000000004121
 30
0.0
 10
232.0000000000000284
 20
35.0000000000004121
 30
0.0
 10
237.0000000000000284
 20
37.0000000000004121
 30
0.0
 10
252.0000000000000284
 20
37.0000000000004121
 30
0.0
 10
265.0
 20
32.0000000000004121
 30
0.0
 10
269.0
 20
27.0000000000004121
 30
0.0
 10
275.0
 20
19.0000000000004121
 30
0.0
 10
279.0
 20
10.0000000000004121
 30
0.0
 10
279.0
 20
10.0000000000004121
 30
0.0
 10
279.0
 20
10.0000000000004121
 30
0.0
 10
279.0
 20
10.0000000000004121
 30
0.0
 10
279.0
 20
10.0000000000004121
 30
0.0
  0
LINE
  5
16C
100
AcDbEntity
100
AcDbLine
  8
0
 62
256
370
-1
  6
DOT2
 10
230.0000000000000284
 20
10.0000000000004974
 30
0.0
 11
230.0000000000000284
 21
40.0000000000004121
 31
0.0
  0
LINE
  5
16D
100
AcDbEntity
100
AcDbLine
  8
0
 62
256
370
-1
  6
DOT2
 10
230.0000000000000284
 20
40.0000000000004121
 30
0.0
 11
280.0
 21
40.0000000000004121
 31
0.0
  0
LINE
  5
16E
100
AcDbEntity
100
AcDbLine
  8
0
 62
256
370
-1
  6
DOT2
 10
230.0000000000000284
 20
10.0000000000004974
 30
0.0
 11
280.0
 21
10.0000000000004974
 31
0.0
  0
SPLINE
  5
16F
  8
0
 62
256
370
-1
  6
BYLAYER
100
AcDbEntity
100
AcDbSpline
 70
8
 71
3
 72
17
 73
13
 74
0
 40
0.0
 40
0.0
 40
0.0
 40
0.0
 40
1.0
 40
2.0
 40
3.0
 40
4.0
 40
5.0
 40
6.0
 40
7.0
 40
8.0
 40
9.0
 40
10.0
 40
10.0
 40
10.0
 40
10.0
 10
231.0000000000000284
 20
-19.9999999999994742
 30
0.0
 10
231.0000000000000284
 20
-7.9999999999994742
 30
0.0
 10
232.0000000000000284
 20
5.0000000000005258
 30
0.0
 10
237.0000000000000284
 20
7.0000000000005258
 30
0.0
 10
252.0000000000000284
 20
7.0000000000005258
 30
0.0
 10
265.0
 20
2.0000000000005258
 30
0.0
 10
269.0
 20
-2.9999999999994742
 30
0.0
 10
275.0
 20
-10.9999999999994742
 30
0.0
 10
279.0
 20
-19.9999999999994742
 30
0.0
 10
279.0
 20
-19.9999999999994742
 30
0.0
 10
279.0
 20
-19.9999999999994742
 30
0.0
 10
279.0
 20
-19.9999999999994742
 30
0.0
 10
279.0
 20
-19.9999999999994742
 30
0.0
  0
LINE
  5
170
100
AcDbEntity
100
AcDbLine
  8
0
 62
256
370
-1
  6
BYLAYER
 10
75.7608284791285342
 20
127.0
 30
0.0
 11
90.2391715208714658
 21
127.0
 31
0.0
  0
LINE
  5
171
100
AcDbEntity
100
AcDbLine
  8
0
 62
256
370
-1
  6
BYLAYER
 10
71.0
 20
100.0
 30
0.0
 11
75.7608284791285485
 21
127.0
 31
0.0
  0
LINE
  5
172
100
AcDbEntity
100
AcDbLine
  8
0
 62
256
370
-1
  6
BYLAYER
 10
94.9999999999999858
 20
100.0
 30
0.0
 11
90.2391715208714515
 21
127.0
 31
0.0
  0
DIMENSION
  5
173
100
AcDbEntity
  8
0
 62
256
370
-1
  6
BYLAYER
100
AcDbDimension
 10
69.9000000000000057
 20
129.9999999999998863
 30
0.0
 11
72.3661505153776403
 21
121.9498193756690938
 31
0.0
 70
2
 71
8
 72
2
 41
1.0
 42
0.0
  1

  3
Standard
100
AcDb2LineAngularDimension
 13
75.7608284791285485
 23
127.0
 33
0.0
 14
71.0
 24
100.0
 34
0.0
 15
69.9000000000000057
 25
99.9999999999999005
 35
0.0
 16
73.0
 26
120.0
 36
0.0
  0
LINE
  5
174
100
AcDbEntity
100
AcDbLine
  8
0
 62
256
370
-1
  6
BYLAYER
 10
75.7608284791285342
 20
57.0000000000000142
 30
0.0
 11
90.2391715208714658
 21
57.0000000000000142
 31
0.0
  0
LINE
  5
175
100
AcDbEntity
100
AcDbLine
  8
0
 62
256
370
-1
  6
BYLAYER
 10
71.0
 20
30.0000000000000142
 30
0.0
 11
75.7608284791285485
 21
57.0000000000000142
 31
0.0
  0
LINE
  5
176
100
AcDbEntity
100
AcDbLine
  8
0
 62
256
370
-1
  6
BYLAYER
 10
94.9999999999999858
 20
30.0000000000000142
 30
0.0
 11
90.2391715208714515
 21
57.0000000000000142
 31
0.0
  0
DIMENSION
  5
177
100
AcDbEntity
  8
0
 62
256
370
-1
  6
BYLAYER
100
AcDbDimension
 10
69.9000000000000057
 20
59.9999999999999005
 30
0.0
 11
72.3661505153776545
 21
51.949819375669108
 31
0.0
 70
2
 71
8
 72
2
 41
1.0
 42
0.0
  1

  3
Standard
100
AcDb2LineAngularDimension
 13
75.7608284791285485
 23
57.0000000000000142
 33
0.0
 14
71.0
 24
30.0000000000000142
 34
0.0
 15
69.9000000000000057
 25
29.9999999999999147
 35
0.0
 16
73.0
 26
50.0000000000000142
 36
0.0
  0
LINE
  5
178
100
AcDbEntity
100
AcDbLine
  8
0
 62
256
370
-1
  6
DOT2
 10
357.0000000000000568
 20
160.0000000000000568
 30
0.0
 11
357.0000000000000568
 21
-79.9999999999991758
 31
0.0
  0
LINE
  5
179
100
AcDbEntity
100
AcDbLine
  8
0
 62
256
370
-1
  6
DOT2
 10
307.0000000000000568
 20
160.0000000000000568
 30
0.0
 11
307.0000000000000568
 21
-79.9999999999991758
 31
0.0
  0
LINE
  5
17A
100
AcDbEntity
100
AcDbLine
  8
0
 62
256
370
-1
  6
DOT2
 10
280.0
 20
160.0000000000000284
 30
0.0
 11
280.0
 21
-79.9999999999992184
 31
0.0
  0
MTEXT
  5
17B
100
AcDbEntity
100
AcDbMText
  8
0
 62
256
370
-1
  6
BYLAYER
 10
248.408209631659787
 20
172.188378036055326
 30
0.0
 40
2.5
 41
0.0
 71
1
 72
1
  1
Side Profiles (cut out each square and glue to the side of each\Passembled lug, then cut along the solid lines with the scroll saw.)
  7
textstyle3
 50
0.0
 73
2
 44
1.0
  0
LINE
  5
17C
100
AcDbEntity
100
AcDbLine
  8
0
 62
256
370
-1
  6
DOT2
 10
449.9999999999999432
 20
156.0
 30
0.0
 11
449.9999999999998295
 21
-59.0000000000000426
 31
0.0
  0
LINE
  5
17D
100
AcDbEntity
100
AcDbLine
  8
0
 62
256
370
-1
  6
DOT2
 10
419.9999999999999432
 20
-59.0000000000000426
 30
0.0
 11
420.0000000000000568
 21
156.0
 31
0.0
  0
LINE
  5
17E
100
AcDbEntity
100
AcDbLine
  8
0
 62
256
370
-1
  6
DOT2
 10
489.9999999999998295
 20
51.0000000000000284
 30
0.0
 11
489.9999999999998295
 21
101.0000000000000426
 31
0.0
  0
LINE
  5
17F
100
AcDbEntity
100
AcDbLine
  8
0
 62
256
370
-1
  6
DOT2
 10
489.9999999999998863
 20
156.0000000000000284
 30
0.0
 11
489.9999999999997726
 21
-59.0000000000000142
 31
0.0
  0
LINE
  5
180
100
AcDbEntity
100
AcDbLine
  8
0
 62
256
370
-1
  6
DOT2
 10
459.9999999999998863
 20
-59.0000000000000142
 30
0.0
 11
460.0
 21
156.0000000000000284
 31
0.0
  0
LINE
  5
181
100
AcDbEntity
100
AcDbLine
  8
0
 62
256
370
-1
  6
DOT2
 10
489.9999999999998295
 20
-3.9999999999999858
 30
0.0
 11
489.9999999999998295
 21
46.0000000000000284
 31
0.0
  0
LINE
  5
182
100
AcDbEntity
100
AcDbLine
  8
0
 62
256
370
-1
  6
DOT2
 10
489.9999999999997726
 20
-59.0000000000000142
 30
0.0
 11
489.9999999999997726
 21
-9.0
 31
0.0
  0
SPLINE
  5
183
  8
0
 62
256
370
-1
  6
DOT2
100
AcDbEntity
100
AcDbSpline
 70
8
 71
3
 72
17
 73
13
 74
0
 40
0.0
 40
0.0
 40
0.0
 40
0.0
 40
1.0
 40
2.0
 40
3.0
 40
4.0
 40
5.0
 40
6.0
 40
7.0
 40
8.0
 40
9.0
 40
10.0
 40
10.0
 40
10.0
 40
10.0
 10
489.9999999999998863
 20
107.0000000000000426
 30
0.0
 10
478.0
 20
107.0000000000000426
 30
0.0
 10
465.0
 20
108.0000000000000426
 30
0.0
 10
463.0
 20
113.0000000000000426
 30
0.0
 10
463.0
 20
128.0000000000000568
 30
0.0
 10
467.9999999999999432
 20
141.0000000000000568
 30
0.0
 10
472.9999999999999432
 20
145.0000000000000568
 30
0.0
 10
480.9999999999999432
 20
151.0000000000000568
 30
0.0
 10
489.9999999999998863
 20
155.0000000000000568
 30
0.0
 10
489.9999999999998863
 20
155.0000000000000568
 30
0.0
 10
489.9999999999998863
 20
155.0000000000000568
 30
0.0
 10
489.9999999999998863
 20
155.0000000000000568
 30
0.0
 10
489.9999999999998863
 20
155.0000000000000568
 30
0.0
  0
SPLINE
  5
184
  8
0
 62
256
370
-1
  6
BYLAYER
100
AcDbEntity
100
AcDbSpline
 70
8
 71
3
 72
9
 73
5
 74
0
 40
0.0
 40
0.0
 40
0.0
 40
0.0
 40
1.0
 40
2.0
 40
2.0
 40
2.0
 40
2.0
 10
468.9999999999998863
 20
124.0000000000000426
 30
0.0
 10
469.0
 20
134.0000000000000568
 30
0.0
 10
469.0
 20
138.0000000000000568
 30
0.0
 10
472.9999999999998863
 20
138.0000000000000568
 30
0.0
 10
489.9999999999998863
 20
138.0000000000000568
 30
0.0
  0
LINE
  5
185
100
AcDbEntity
100
AcDbLine
  8
0
 62
256
370
-1
  6
DOT2
 10
489.9999999999998863
 20
106.0000000000000426
 30
0.0
 11
489.9999999999998863
 21
156.0000000000000568
 31
0.0
  0
LINE
  5
186
100
AcDbEntity
100
AcDbLine
  8
0
 62
256
370
-1
  6
DOT2
 10
489.9999999999998863
 20
106.0000000000000426
 30
0.0
 11
460.0
 21
106.0000000000000426
 31
0.0
  0
LINE
  5
187
100
AcDbEntity
100
AcDbLine
  8
0
 62
256
370
-1
  6
BYLAYER
 10
479.9999999999998863
 20
124.0000000000000426
 30
0.0
 11
479.9999999999998863
 21
126.0000000000000426
 31
0.0
  0
LINE
  5
188
100
AcDbEntity
100
AcDbLine
  8
0
 62
256
370
-1
  6
DOT2
 10
460.0
 20
106.0000000000000426
 30
0.0
 11
460.0
 21
156.0000000000000568
 31
0.0
  0
LINE
  5
189
100
AcDbEntity
100
AcDbLine
  8
0
 62
256
370
-1
  6
BYLAYER
 10
479.9999999999998863
 20
126.0000000000000426
 30
0.0
 11
469.0004987089843667
 21
126.0072576594437095
 31
0.0
  0
LINE
  5
18A
100
AcDbEntity
100
AcDbLine
  8
0
 62
256
370
-1
  6
DOT2
 10
460.0
 20
156.0000000000000568
 30
0.0
 11
489.9999999999998863
 21
156.0000000000000568
 31
0.0
  0
LINE
  5
18B
100
AcDbEntity
100
AcDbLine
  8
0
 62
256
370
-1
  6
BYLAYER
 10
468.9999999999998863
 20
124.0000000000000426
 30
0.0
 11
489.9999999999998863
 21
124.0000000000000426
 31
0.0
  0
SPLINE
  5
18C
  8
0
 62
256
370
-1
  6
DOT2
100
AcDbEntity
100
AcDbSpline
 70
8
 71
3
 72
17
 73
13
 74
0
 40
0.0
 40
0.0
 40
0.0
 40
0.0
 40
1.0
 40
2.0
 40
3.0
 40
4.0
 40
5.0
 40
6.0
 40
7.0
 40
8.0
 40
9.0
 40
10.0
 40
10.0
 40
10.0
 40
10.0
 10
489.9999999999998295
 20
52.0000000000000284
 30
0.0
 10
477.9999999999999432
 20
52.0000000000000284
 30
0.0
 10
464.9999999999999432
 20
53.0000000000000284
 30
0.0
 10
462.9999999999999432
 20
58.0000000000000284
 30
0.0
 10
462.9999999999999432
 20
73.0000000000000426
 30
0.0
 10
467.9999999999998863
 20
86.0000000000000426
 30
0.0
 10
472.9999999999998863
 20
90.0000000000000426
 30
0.0
 10
480.9999999999998863
 20
96.0000000000000426
 30
0.0
 10
489.9999999999998295
 20
100.0000000000000426
 30
0.0
 10
489.9999999999998295
 20
100.0000000000000426
 30
0.0
 10
489.9999999999998295
 20
100.0000000000000426
 30
0.0
 10
489.9999999999998295
 20
100.0000000000000426
 30
0.0
 10
489.9999999999998295
 20
100.0000000000000426
 30
0.0
  0
SPLINE
  5
18D
  8
0
 62
256
370
-1
  6
BYLAYER
100
AcDbEntity
100
AcDbSpline
 70
8
 71
3
 72
9
 73
5
 74
0
 40
0.0
 40
0.0
 40
0.0
 40
0.0
 40
1.0
 40
2.0
 40
2.0
 40
2.0
 40
2.0
 10
468.9999999999998295
 20
69.0000000000000284
 30
0.0
 10
468.9999999999999432
 20
79.0000000000000284
 30
0.0
 10
468.9999999999999432
 20
83.0000000000000426
 30
0.0
 10
472.9999999999998295
 20
83.0000000000000426
 30
0.0
 10
489.9999999999998295
 20
83.0000000000000426
 30
0.0
  0
LINE
  5
18E
100
AcDbEntity
100
AcDbLine
  8
0
 62
256
370
-1
  6
DOT2
 10
489.9999999999998295
 20
51.0000000000000284
 30
0.0
 11
489.9999999999998295
 21
101.0000000000000426
 31
0.0
  0
LINE
  5
18F
100
AcDbEntity
100
AcDbLine
  8
0
 62
256
370
-1
  6
DOT2
 10
489.9999999999998295
 20
51.0000000000000284
 30
0.0
 11
459.9999999999999432
 21
51.0000000000000284
 31
0.0
  0
LINE
  5
190
100
AcDbEntity
100
AcDbLine
  8
0
 62
256
370
-1
  6
BYLAYER
 10
479.9999999999998295
 20
69.0000000000000284
 30
0.0
 11
479.9999999999998295
 21
71.0000000000000284
 31
0.0
  0
LINE
  5
191
100
AcDbEntity
100
AcDbLine
  8
0
 62
256
370
-1
  6
DOT2
 10
459.9999999999999432
 20
51.0000000000000284
 30
0.0
 11
459.9999999999999432
 21
101.0000000000000426
 31
0.0
  0
LINE
  5
192
100
AcDbEntity
100
AcDbLine
  8
0
 62
256
370
-1
  6
BYLAYER
 10
479.9999999999998295
 20
71.0000000000000284
 30
0.0
 11
469.0004987089843098
 21
71.0072576594436953
 31
0.0
  0
LINE
  5
193
100
AcDbEntity
100
AcDbLine
  8
0
 62
256
370
-1
  6
DOT2
 10
459.9999999999999432
 20
101.0000000000000426
 30
0.0
 11
489.9999999999998295
 21
101.0000000000000426
 31
0.0
  0
LINE
  5
194
100
AcDbEntity
100
AcDbLine
  8
0
 62
256
370
-1
  6
BYLAYER
 10
468.9999999999998295
 20
69.0000000000000284
 30
0.0
 11
489.9999999999998295
 21
69.0000000000000284
 31
0.0
  0
SPLINE
  5
195
  8
0
 62
256
370
-1
  6
DOT2
100
AcDbEntity
100
AcDbSpline
 70
8
 71
3
 72
17
 73
13
 74
0
 40
0.0
 40
0.0
 40
0.0
 40
0.0
 40
1.0
 40
2.0
 40
3.0
 40
4.0
 40
5.0
 40
6.0
 40
7.0
 40
8.0
 40
9.0
 40
10.0
 40
10.0
 40
10.0
 40
10.0
 10
489.9999999999998295
 20
-2.9999999999999858
 30
0.0
 10
477.9999999999999432
 20
-2.9999999999999858
 30
0.0
 10
464.9999999999999432
 20
-1.9999999999999858
 30
0.0
 10
462.9999999999999432
 20
3.0000000000000142
 30
0.0
 10
462.9999999999999432
 20
18.0000000000000284
 30
0.0
 10
467.9999999999998863
 20
31.0000000000000284
 30
0.0
 10
472.9999999999998863
 20
35.0000000000000284
 30
0.0
 10
480.9999999999998863
 20
41.0000000000000284
 30
0.0
 10
489.9999999999998295
 20
45.0000000000000284
 30
0.0
 10
489.9999999999998295
 20
45.0000000000000284
 30
0.0
 10
489.9999999999998295
 20
45.0000000000000284
 30
0.0
 10
489.9999999999998295
 20
45.0000000000000284
 30
0.0
 10
489.9999999999998295
 20
45.0000000000000284
 30
0.0
  0
SPLINE
  5
196
  8
0
 62
256
370
-1
  6
BYLAYER
100
AcDbEntity
100
AcDbSpline
 70
8
 71
3
 72
9
 73
5
 74
0
 40
0.0
 40
0.0
 40
0.0
 40
0.0
 40
1.0
 40
2.0
 40
2.0
 40
2.0
 40
2.0
 10
468.9999999999998295
 20
14.0000000000000142
 30
0.0
 10
468.9999999999999432
 20
24.0000000000000142
 30
0.0
 10
468.9999999999999432
 20
28.0000000000000284
 30
0.0
 10
472.9999999999998295
 20
28.0000000000000284
 30
0.0
 10
489.9999999999998295
 20
28.0000000000000284
 30
0.0
  0
LINE
  5
197
100
AcDbEntity
100
AcDbLine
  8
0
 62
256
370
-1
  6
DOT2
 10
489.9999999999998295
 20
-3.9999999999999858
 30
0.0
 11
489.9999999999998295
 21
46.0000000000000284
 31
0.0
  0
LINE
  5
198
100
AcDbEntity
100
AcDbLine
  8
0
 62
256
370
-1
  6
DOT2
 10
489.9999999999998295
 20
-3.9999999999999858
 30
0.0
 11
459.9999999999999432
 21
-3.9999999999999858
 31
0.0
  0
LINE
  5
199
100
AcDbEntity
100
AcDbLine
  8
0
 62
256
370
-1
  6
BYLAYER
 10
479.9999999999998295
 20
14.0000000000000142
 30
0.0
 11
479.9999999999998295
 21
16.0000000000000142
 31
0.0
  0
LINE
  5
19A
100
AcDbEntity
100
AcDbLine
  8
0
 62
256
370
-1
  6
DOT2
 10
459.9999999999999432
 20
-3.9999999999999858
 30
0.0
 11
459.9999999999999432
 21
46.0000000000000284
 31
0.0
  0
LINE
  5
19B
100
AcDbEntity
100
AcDbLine
  8
0
 62
256
370
-1
  6
BYLAYER
 10
479.9999999999998295
 20
16.0000000000000142
 30
0.0
 11
469.0004987089843098
 21
16.0072576594436811
 31
0.0
  0
LINE
  5
19C
100
AcDbEntity
100
AcDbLine
  8
0
 62
256
370
-1
  6
DOT2
 10
459.9999999999999432
 20
46.0000000000000284
 30
0.0
 11
489.9999999999998295
 21
46.0000000000000284
 31
0.0
  0
LINE
  5
19D
100
AcDbEntity
100
AcDbLine
  8
0
 62
256
370
-1
  6
BYLAYER
 10
468.9999999999998295
 20
14.0000000000000142
 30
0.0
 11
489.9999999999998295
 21
14.0000000000000142
 31
0.0
  0
SPLINE
  5
19E
  8
0
 62
256
370
-1
  6
DOT2
100
AcDbEntity
100
AcDbSpline
 70
8
 71
3
 72
17
 73
13
 74
0
 40
0.0
 40
0.0
 40
0.0
 40
0.0
 40
1.0
 40
2.0
 40
3.0
 40
4.0
 40
5.0
 40
6.0
 40
7.0
 40
8.0
 40
9.0
 40
10.0
 40
10.0
 40
10.0
 40
10.0
 10
489.9999999999997726
 20
-58.0000000000000142
 30
0.0
 10
477.9999999999998863
 20
-58.0000000000000142
 30
0.0
 10
464.9999999999998863
 20
-57.0000000000000142
 30
0.0
 10
462.9999999999998863
 20
-52.0000000000000142
 30
0.0
 10
462.9999999999998863
 20
-37.0
 30
0.0
 10
467.9999999999998295
 20
-24.0
 30
0.0
 10
472.9999999999998295
 20
-20.0
 30
0.0
 10
480.9999999999998295
 20
-14.0
 30
0.0
 10
489.9999999999997726
 20
-10.0
 30
0.0
 10
489.9999999999997726
 20
-10.0
 30
0.0
 10
489.9999999999997726
 20
-10.0
 30
0.0
 10
489.9999999999997726
 20
-10.0
 30
0.0
 10
489.9999999999997726
 20
-10.0
 30
0.0
  0
SPLINE
  5
19F
  8
0
 62
256
370
-1
  6
BYLAYER
100
AcDbEntity
100
AcDbSpline
 70
8
 71
3
 72
9
 73
5
 74
0
 40
0.0
 40
0.0
 40
0.0
 40
0.0
 40
1.0
 40
2.0
 40
2.0
 40
2.0
 40
2.0
 10
468.9999999999997726
 20
-41.0000000000000142
 30
0.0
 10
468.9999999999998863
 20
-31.0000000000000142
 30
0.0
 10
468.9999999999998863
 20
-27.0
 30
0.0
 10
472.9999999999997726
 20
-27.0
 30
0.0
 10
489.9999999999997726
 20
-27.0
 30
0.0
  0
LINE
  5
1A0
100
AcDbEntity
100
AcDbLine
  8
0
 62
256
370
-1
  6
DOT2
 10
489.9999999999997726
 20
-59.0000000000000142
 30
0.0
 11
489.9999999999997726
 21
-9.0
 31
0.0
  0
LINE
  5
1A1
100
AcDbEntity
100
AcDbLine
  8
0
 62
256
370
-1
  6
DOT2
 10
489.9999999999997726
 20
-59.0000000000000142
 30
0.0
 11
459.9999999999998863
 21
-59.0000000000000142
 31
0.0
  0
LINE
  5
1A2
100
AcDbEntity
100
AcDbLine
  8
0
 62
256
370
-1
  6
BYLAYER
 10
479.9999999999997726
 20
-41.0000000000000142
 30
0.0
 11
479.9999999999997726
 21
-39.0000000000000142
 31
0.0
  0
LINE
  5
1A3
100
AcDbEntity
100
AcDbLine
  8
0
 62
256
370
-1
  6
DOT2
 10
459.9999999999998863
 20
-59.0000000000000142
 30
0.0
 11
459.9999999999998863
 21
-9.0
 31
0.0
  0
LINE
  5
1A4
100
AcDbEntity
100
AcDbLine
  8
0
 62
256
370
-1
  6
BYLAYER
 10
479.9999999999997726
 20
-39.0000000000000142
 30
0.0
 11
469.000498708984253
 21
-38.9927423405563474
 31
0.0
  0
LINE
  5
1A5
100
AcDbEntity
100
AcDbLine
  8
0
 62
256
370
-1
  6
DOT2
 10
459.9999999999998863
 20
-9.0
 30
0.0
 11
489.9999999999997726
 21
-9.0
 31
0.0
  0
LINE
  5
1A6
100
AcDbEntity
100
AcDbLine
  8
0
 62
256
370
-1
  6
BYLAYER
 10
468.9999999999997726
 20
-41.0000000000000142
 30
0.0
 11
489.9999999999997726
 21
-41.0000000000000142
 31
0.0
  0
LINE
  5
1A7
100
AcDbEntity
100
AcDbLine
  8
0
 62
256
370
-1
  6
DOT2
 10
489.9999999999998863
 20
106.0000000000000426
 30
0.0
 11
489.9999999999998863
 21
156.0000000000000568
 31
0.0
  0
LINE
  5
1A8
100
AcDbEntity
100
AcDbLine
  8
0
 62
256
370
-1
  6
DOT2
 10
529.9999999999997726
 20
51.0000000000000568
 30
0.0
 11
529.9999999999997726
 21
101.0000000000000711
 31
0.0
  0
LINE
  5
1A9
100
AcDbEntity
100
AcDbLine
  8
0
 62
256
370
-1
  6
DOT2
 10
529.9999999999997726
 20
156.0000000000000568
 30
0.0
 11
529.9999999999997726
 21
-58.9999999999999858
 31
0.0
  0
LINE
  5
1AA
100
AcDbEntity
100
AcDbLine
  8
0
 62
256
370
-1
  6
DOT2
 10
499.9999999999998295
 20
-58.9999999999999858
 30
0.0
 11
499.9999999999999432
 21
156.0000000000000568
 31
0.0
  0
LINE
  5
1AB
100
AcDbEntity
100
AcDbLine
  8
0
 62
256
370
-1
  6
DOT2
 10
529.9999999999997726
 20
-3.9999999999999574
 30
0.0
 11
529.9999999999997726
 21
46.0000000000000568
 31
0.0
  0
LINE
  5
1AC
100
AcDbEntity
100
AcDbLine
  8
0
 62
256
370
-1
  6
DOT2
 10
529.9999999999997726
 20
-58.9999999999999858
 30
0.0
 11
529.9999999999997726
 21
-8.9999999999999716
 31
0.0
  0
SPLINE
  5
1AD
  8
0
 62
256
370
-1
  6
DOT2
100
AcDbEntity
100
AcDbSpline
 70
8
 71
3
 72
17
 73
13
 74
0
 40
0.0
 40
0.0
 40
0.0
 40
0.0
 40
1.0
 40
2.0
 40
3.0
 40
4.0
 40
5.0
 40
6.0
 40
7.0
 40
8.0
 40
9.0
 40
10.0
 40
10.0
 40
10.0
 40
10.0
 10
529.9999999999997726
 20
107.0000000000000711
 30
0.0
 10
518.0
 20
107.0000000000000711
 30
0.0
 10
504.9999999999999432
 20
108.0000000000000711
 30
0.0
 10
502.9999999999999432
 20
113.0000000000000711
 30
0.0
 10
502.9999999999999432
 20
128.0000000000000853
 30
0.0
 10
507.9999999999998863
 20
141.0000000000000853
 30
0.0
 10
512.9999999999998863
 20
145.0000000000000853
 30
0.0
 10
520.9999999999998863
 20
151.0000000000000853
 30
0.0
 10
529.9999999999997726
 20
155.0000000000000853
 30
0.0
 10
529.9999999999997726
 20
155.0000000000000853
 30
0.0
 10
529.9999999999997726
 20
155.0000000000000853
 30
0.0
 10
529.9999999999997726
 20
155.0000000000000853
 30
0.0
 10
529.9999999999997726
 20
155.0000000000000853
 30
0.0
  0
SPLINE
  5
1AE
  8
0
 62
256
370
-1
  6
BYLAYER
100
AcDbEntity
100
AcDbSpline
 70
8
 71
3
 72
9
 73
5
 74
0
 40
0.0
 40
0.0
 40
0.0
 40
0.0
 40
1.0
 40
2.0
 40
2.0
 40
2.0
 40
2.0
 10
508.9999999999998295
 20
124.0000000000000711
 30
0.0
 10
508.9999999999999432
 20
134.0000000000000853
 30
0.0
 10
508.9999999999999432
 20
138.0000000000000853
 30
0.0
 10
512.9999999999997726
 20
138.0000000000000853
 30
0.0
 10
529.9999999999997726
 20
138.0000000000000853
 30
0.0
  0
LINE
  5
1AF
100
AcDbEntity
100
AcDbLine
  8
0
 62
256
370
-1
  6
DOT2
 10
529.9999999999997726
 20
106.0000000000000711
 30
0.0
 11
529.9999999999997726
 21
156.0000000000000853
 31
0.0
  0
LINE
  5
1B0
100
AcDbEntity
100
AcDbLine
  8
0
 62
256
370
-1
  6
DOT2
 10
529.9999999999997726
 20
106.0000000000000711
 30
0.0
 11
499.9999999999999432
 21
106.0000000000000711
 31
0.0
  0
LINE
  5
1B1
100
AcDbEntity
100
AcDbLine
  8
0
 62
256
370
-1
  6
BYLAYER
 10
519.9999999999997726
 20
124.0000000000000711
 30
0.0
 11
519.9999999999997726
 21
126.0000000000000711
 31
0.0
  0
LINE
  5
1B2
100
AcDbEntity
100
AcDbLine
  8
0
 62
256
370
-1
  6
DOT2
 10
499.9999999999999432
 20
106.0000000000000711
 30
0.0
 11
499.9999999999999432
 21
156.0000000000000853
 31
0.0
  0
LINE
  5
1B3
100
AcDbEntity
100
AcDbLine
  8
0
 62
256
370
-1
  6
BYLAYER
 10
519.9999999999997726
 20
126.0000000000000711
 30
0.0
 11
509.0004987089843098
 21
126.0072576594437379
 31
0.0
  0
LINE
  5
1B4
100
AcDbEntity
100
AcDbLine
  8
0
 62
256
370
-1
  6
DOT2
 10
499.9999999999999432
 20
156.0000000000000853
 30
0.0
 11
529.9999999999997726
 21
156.0000000000000853
 31
0.0
  0
LINE
  5
1B5
100
AcDbEntity
100
AcDbLine
  8
0
 62
256
370
-1
  6
BYLAYER
 10
508.9999999999998295
 20
124.0000000000000711
 30
0.0
 11
529.9999999999997726
 21
124.0000000000000711
 31
0.0
  0
SPLINE
  5
1B6
  8
0
 62
256
370
-1
  6
DOT2
100
AcDbEntity
100
AcDbSpline
 70
8
 71
3
 72
17
 73
13
 74
0
 40
0.0
 40
0.0
 40
0.0
 40
0.0
 40
1.0
 40
2.0
 40
3.0
 40
4.0
 40
5.0
 40
6.0
 40
7.0
 40
8.0
 40
9.0
 40
10.0
 40
10.0
 40
10.0
 40
10.0
 10
529.9999999999997726
 20
52.0000000000000568
 30
0.0
 10
517.9999999999998863
 20
52.0000000000000568
 30
0.0
 10
504.9999999999998863
 20
53.0000000000000568
 30
0.0
 10
502.9999999999998863
 20
58.0000000000000568
 30
0.0
 10
502.9999999999998863
 20
73.0000000000000711
 30
0.0
 10
507.9999999999998295
 20
86.0000000000000711
 30
0.0
 10
512.9999999999997726
 20
90.0000000000000711
 30
0.0
 10
520.9999999999997726
 20
96.0000000000000711
 30
0.0
 10
529.9999999999997726
 20
100.0000000000000711
 30
0.0
 10
529.9999999999997726
 20
100.0000000000000711
 30
0.0
 10
529.9999999999997726
 20
100.0000000000000711
 30
0.0
 10
529.9999999999997726
 20
100.0000000000000711
 30
0.0
 10
529.9999999999997726
 20
100.0000000000000711
 30
0.0
  0
SPLINE
  5
1B7
  8
0
 62
256
370
-1
  6
BYLAYER
100
AcDbEntity
100
AcDbSpline
 70
8
 71
3
 72
9
 73
5
 74
0
 40
0.0
 40
0.0
 40
0.0
 40
0.0
 40
1.0
 40
2.0
 40
2.0
 40
2.0
 40
2.0
 10
508.9999999999997726
 20
69.0000000000000568
 30
0.0
 10
508.9999999999998863
 20
79.0000000000000568
 30
0.0
 10
508.9999999999998863
 20
83.0000000000000711
 30
0.0
 10
512.9999999999997726
 20
83.0000000000000711
 30
0.0
 10
529.9999999999997726
 20
83.0000000000000711
 30
0.0
  0
LINE
  5
1B8
100
AcDbEntity
100
AcDbLine
  8
0
 62
256
370
-1
  6
DOT2
 10
529.9999999999997726
 20
51.0000000000000568
 30
0.0
 11
529.9999999999997726
 21
101.0000000000000711
 31
0.0
  0
LINE
  5
1B9
100
AcDbEntity
100
AcDbLine
  8
0
 62
256
370
-1
  6
DOT2
 10
529.9999999999997726
 20
51.0000000000000568
 30
0.0
 11
499.9999999999998863
 21
51.0000000000000568
 31
0.0
  0
LINE
  5
1BA
100
AcDbEntity
100
AcDbLine
  8
0
 62
256
370
-1
  6
BYLAYER
 10
519.9999999999997726
 20
69.0000000000000568
 30
0.0
 11
519.9999999999997726
 21
71.0000000000000568
 31
0.0
  0
LINE
  5
1BB
100
AcDbEntity
100
AcDbLine
  8
0
 62
256
370
-1
  6
DOT2
 10
499.9999999999998863
 20
51.0000000000000568
 30
0.0
 11
499.9999999999998863
 21
101.0000000000000711
 31
0.0
  0
LINE
  5
1BC
100
AcDbEntity
100
AcDbLine
  8
0
 62
256
370
-1
  6
BYLAYER
 10
519.9999999999997726
 20
71.0000000000000568
 30
0.0
 11
509.000498708984253
 21
71.0072576594437237
 31
0.0
  0
LINE
  5
1BD
100
AcDbEntity
100
AcDbLine
  8
0
 62
256
370
-1
  6
DOT2
 10
499.9999999999998863
 20
101.0000000000000711
 30
0.0
 11
529.9999999999997726
 21
101.0000000000000711
 31
0.0
  0
LINE
  5
1BE
100
AcDbEntity
100
AcDbLine
  8
0
 62
256
370
-1
  6
BYLAYER
 10
508.9999999999997726
 20
69.0000000000000568
 30
0.0
 11
529.9999999999997726
 21
69.0000000000000568
 31
0.0
  0
SPLINE
  5
1BF
  8
0
 62
256
370
-1
  6
DOT2
100
AcDbEntity
100
AcDbSpline
 70
8
 71
3
 72
17
 73
13
 74
0
 40
0.0
 40
0.0
 40
0.0
 40
0.0
 40
1.0
 40
2.0
 40
3.0
 40
4.0
 40
5.0
 40
6.0
 40
7.0
 40
8.0
 40
9.0
 40
10.0
 40
10.0
 40
10.0
 40
10.0
 10
529.9999999999997726
 20
-2.9999999999999574
 30
0.0
 10
517.9999999999998863
 20
-2.9999999999999574
 30
0.0
 10
504.9999999999998863
 20
-1.9999999999999574
 30
0.0
 10
502.9999999999998863
 20
3.0000000000000426
 30
0.0
 10
502.9999999999998863
 20
18.0000000000000568
 30
0.0
 10
507.9999999999998295
 20
31.0000000000000568
 30
0.0
 10
512.9999999999997726
 20
35.0000000000000568
 30
0.0
 10
520.9999999999997726
 20
41.0000000000000568
 30
0.0
 10
529.9999999999997726
 20
45.0000000000000568
 30
0.0
 10
529.9999999999997726
 20
45.0000000000000568
 30
0.0
 10
529.9999999999997726
 20
45.0000000000000568
 30
0.0
 10
529.9999999999997726
 20
45.0000000000000568
 30
0.0
 10
529.9999999999997726
 20
45.0000000000000568
 30
0.0
  0
SPLINE
  5
1C0
  8
0
 62
256
370
-1
  6
BYLAYER
100
AcDbEntity
100
AcDbSpline
 70
8
 71
3
 72
9
 73
5
 74
0
 40
0.0
 40
0.0
 40
0.0
 40
0.0
 40
1.0
 40
2.0
 40
2.0
 40
2.0
 40
2.0
 10
508.9999999999997726
 20
14.0000000000000426
 30
0.0
 10
508.9999999999998863
 20
24.0000000000000426
 30
0.0
 10
508.9999999999998863
 20
28.0000000000000568
 30
0.0
 10
512.9999999999997726
 20
28.0000000000000568
 30
0.0
 10
529.9999999999997726
 20
28.0000000000000568
 30
0.0
  0
LINE
  5
1C1
100
AcDbEntity
100
AcDbLine
  8
0
 62
256
370
-1
  6
DOT2
 10
529.9999999999997726
 20
-3.9999999999999574
 30
0.0
 11
529.9999999999997726
 21
46.0000000000000568
 31
0.0
  0
LINE
  5
1C2
100
AcDbEntity
100
AcDbLine
  8
0
 62
256
370
-1
  6
DOT2
 10
529.9999999999997726
 20
-3.9999999999999574
 30
0.0
 11
499.9999999999998863
 21
-3.9999999999999574
 31
0.0
  0
LINE
  5
1C3
100
AcDbEntity
100
AcDbLine
  8
0
 62
256
370
-1
  6
BYLAYER
 10
519.9999999999997726
 20
14.0000000000000426
 30
0.0
 11
519.9999999999997726
 21
16.0000000000000426
 31
0.0
  0
LINE
  5
1C4
100
AcDbEntity
100
AcDbLine
  8
0
 62
256
370
-1
  6
DOT2
 10
499.9999999999998863
 20
-3.9999999999999574
 30
0.0
 11
499.9999999999998863
 21
46.0000000000000568
 31
0.0
  0
LINE
  5
1C5
100
AcDbEntity
100
AcDbLine
  8
0
 62
256
370
-1
  6
BYLAYER
 10
519.9999999999997726
 20
16.0000000000000426
 30
0.0
 11
509.000498708984253
 21
16.0072576594437095
 31
0.0
  0
LINE
  5
1C6
100
AcDbEntity
100
AcDbLine
  8
0
 62
256
370
-1
  6
DOT2
 10
499.9999999999998863
 20
46.0000000000000568
 30
0.0
 11
529.9999999999997726
 21
46.0000000000000568
 31
0.0
  0
LINE
  5
1C7
100
AcDbEntity
100
AcDbLine
  8
0
 62
256
370
-1
  6
BYLAYER
 10
508.9999999999997726
 20
14.0000000000000426
 30
0.0
 11
529.9999999999997726
 21
14.0000000000000426
 31
0.0
  0
SPLINE
  5
1C8
  8
0
 62
256
370
-1
  6
DOT2
100
AcDbEntity
100
AcDbSpline
 70
8
 71
3
 72
17
 73
13
 74
0
 40
0.0
 40
0.0
 40
0.0
 40
0.0
 40
1.0
 40
2.0
 40
3.0
 40
4.0
 40
5.0
 40
6.0
 40
7.0
 40
8.0
 40
9.0
 40
10.0
 40
10.0
 40
10.0
 40
10.0
 10
529.9999999999997726
 20
-57.9999999999999858
 30
0.0
 10
517.9999999999997726
 20
-57.9999999999999858
 30
0.0
 10
504.9999999999998295
 20
-56.9999999999999858
 30
0.0
 10
502.9999999999998295
 20
-51.9999999999999858
 30
0.0
 10
502.9999999999998295
 20
-36.9999999999999716
 30
0.0
 10
507.9999999999997726
 20
-23.9999999999999716
 30
0.0
 10
512.9999999999997726
 20
-19.9999999999999716
 30
0.0
 10
520.9999999999997726
 20
-13.9999999999999716
 30
0.0
 10
529.9999999999997726
 20
-9.9999999999999716
 30
0.0
 10
529.9999999999997726
 20
-9.9999999999999716
 30
0.0
 10
529.9999999999997726
 20
-9.9999999999999716
 30
0.0
 10
529.9999999999997726
 20
-9.9999999999999716
 30
0.0
 10
529.9999999999997726
 20
-9.9999999999999716
 30
0.0
  0
SPLINE
  5
1C9
  8
0
 62
256
370
-1
  6
BYLAYER
100
AcDbEntity
100
AcDbSpline
 70
8
 71
3
 72
9
 73
5
 74
0
 40
0.0
 40
0.0
 40
0.0
 40
0.0
 40
1.0
 40
2.0
 40
2.0
 40
2.0
 40
2.0
 10
508.9999999999997158
 20
-40.9999999999999858
 30
0.0
 10
508.9999999999998295
 20
-30.9999999999999858
 30
0.0
 10
508.9999999999998295
 20
-26.9999999999999716
 30
0.0
 10
512.9999999999997726
 20
-26.9999999999999716
 30
0.0
 10
529.9999999999997726
 20
-26.9999999999999716
 30
0.0
  0
LINE
  5
1CA
100
AcDbEntity
100
AcDbLine
  8
0
 62
256
370
-1
  6
DOT2
 10
529.9999999999997726
 20
-58.9999999999999858
 30
0.0
 11
529.9999999999997726
 21
-8.9999999999999716
 31
0.0
  0
LINE
  5
1CB
100
AcDbEntity
100
AcDbLine
  8
0
 62
256
370
-1
  6
DOT2
 10
529.9999999999997726
 20
-58.9999999999999858
 30
0.0
 11
499.9999999999998295
 21
-58.9999999999999858
 31
0.0
  0
LINE
  5
1CC
100
AcDbEntity
100
AcDbLine
  8
0
 62
256
370
-1
  6
BYLAYER
 10
519.9999999999997726
 20
-40.9999999999999858
 30
0.0
 11
519.9999999999997726
 21
-38.9999999999999858
 31
0.0
  0
LINE
  5
1CD
100
AcDbEntity
100
AcDbLine
  8
0
 62
256
370
-1
  6
DOT2
 10
499.9999999999998295
 20
-58.9999999999999858
 30
0.0
 11
499.9999999999998295
 21
-8.9999999999999716
 31
0.0
  0
LINE
  5
1CE
100
AcDbEntity
100
AcDbLine
  8
0
 62
256
370
-1
  6
BYLAYER
 10
519.9999999999997726
 20
-38.9999999999999858
 30
0.0
 11
509.0004987089841961
 21
-38.9927423405563189
 31
0.0
  0
LINE
  5
1CF
100
AcDbEntity
100
AcDbLine
  8
0
 62
256
370
-1
  6
DOT2
 10
499.9999999999998295
 20
-8.9999999999999716
 30
0.0
 11
529.9999999999997726
 21
-8.9999999999999716
 31
0.0
  0
LINE
  5
1D0
100
AcDbEntity
100
AcDbLine
  8
0
 62
256
370
-1
  6
BYLAYER
 10
508.9999999999997158
 20
-40.9999999999999858
 30
0.0
 11
529.9999999999997726
 21
-40.9999999999999858
 31
0.0
  0
LINE
  5
1D1
100
AcDbEntity
100
AcDbLine
  8
0
 62
256
370
-1
  6
DOT2
 10
529.9999999999997726
 20
106.0000000000000711
 30
0.0
 11
529.9999999999997726
 21
156.0000000000000853
 31
0.0
  0
LINE
  5
1D2
100
AcDbEntity
100
AcDbLine
  8
0
 62
256
370
-1
  6
DOT2
 10
569.9999999999997726
 20
51.0000000000000853
 30
0.0
 11
569.9999999999997726
 21
101.0000000000000995
 31
0.0
  0
LINE
  5
1D3
100
AcDbEntity
100
AcDbLine
  8
0
 62
256
370
-1
  6
DOT2
 10
569.9999999999997726
 20
156.0000000000000853
 30
0.0
 11
569.9999999999996589
 21
-58.9999999999999574
 31
0.0
  0
LINE
  5
1D4
100
AcDbEntity
100
AcDbLine
  8
0
 62
256
370
-1
  6
DOT2
 10
539.9999999999997726
 20
-58.9999999999999574
 30
0.0
 11
539.9999999999998863
 21
156.0000000000000853
 31
0.0
  0
LINE
  5
1D5
100
AcDbEntity
100
AcDbLine
  8
0
 62
256
370
-1
  6
DOT2
 10
569.9999999999997726
 20
-3.9999999999999289
 30
0.0
 11
569.9999999999997726
 21
46.0000000000000853
 31
0.0
  0
LINE
  5
1D6
100
AcDbEntity
100
AcDbLine
  8
0
 62
256
370
-1
  6
DOT2
 10
569.9999999999996589
 20
-58.9999999999999574
 30
0.0
 11
569.9999999999996589
 21
-8.9999999999999432
 31
0.0
  0
SPLINE
  5
1D7
  8
0
 62
256
370
-1
  6
DOT2
100
AcDbEntity
100
AcDbSpline
 70
8
 71
3
 72
17
 73
13
 74
0
 40
0.0
 40
0.0
 40
0.0
 40
0.0
 40
1.0
 40
2.0
 40
3.0
 40
4.0
 40
5.0
 40
6.0
 40
7.0
 40
8.0
 40
9.0
 40
10.0
 40
10.0
 40
10.0
 40
10.0
 10
569.9999999999997726
 20
107.0000000000000995
 30
0.0
 10
557.9999999999998863
 20
107.0000000000000995
 30
0.0
 10
544.9999999999998863
 20
108.0000000000000995
 30
0.0
 10
542.9999999999998863
 20
113.0000000000000995
 30
0.0
 10
542.9999999999998863
 20
128.0000000000001137
 30
0.0
 10
547.9999999999997726
 20
141.0000000000001137
 30
0.0
 10
552.9999999999997726
 20
145.0000000000001137
 30
0.0
 10
560.9999999999997726
 20
151.0000000000001137
 30
0.0
 10
569.9999999999997726
 20
155.0000000000001137
 30
0.0
 10
569.9999999999997726
 20
155.0000000000001137
 30
0.0
 10
569.9999999999997726
 20
155.0000000000001137
 30
0.0
 10
569.9999999999997726
 20
155.0000000000001137
 30
0.0
 10
569.9999999999997726
 20
155.0000000000001137
 30
0.0
  0
SPLINE
  5
1D8
  8
0
 62
256
370
-1
  6
BYLAYER
100
AcDbEntity
100
AcDbSpline
 70
8
 71
3
 72
9
 73
5
 74
0
 40
0.0
 40
0.0
 40
0.0
 40
0.0
 40
1.0
 40
2.0
 40
2.0
 40
2.0
 40
2.0
 10
548.9999999999997726
 20
124.0000000000000995
 30
0.0
 10
548.9999999999998863
 20
134.0000000000001137
 30
0.0
 10
548.9999999999998863
 20
138.0000000000001137
 30
0.0
 10
552.9999999999997726
 20
138.0000000000001137
 30
0.0
 10
569.9999999999997726
 20
138.0000000000001137
 30
0.0
  0
LINE
  5
1D9
100
AcDbEntity
100
AcDbLine
  8
0
 62
256
370
-1
  6
DOT2
 10
569.9999999999997726
 20
106.0000000000000995
 30
0.0
 11
569.9999999999997726
 21
156.0000000000001137
 31
0.0
  0
LINE
  5
1DA
100
AcDbEntity
100
AcDbLine
  8
0
 62
256
370
-1
  6
DOT2
 10
569.9999999999997726
 20
106.0000000000000995
 30
0.0
 11
539.9999999999998863
 21
106.0000000000000995
 31
0.0
  0
LINE
  5
1DB
100
AcDbEntity
100
AcDbLine
  8
0
 62
256
370
-1
  6
BYLAYER
 10
559.9999999999997726
 20
124.0000000000000995
 30
0.0
 11
559.9999999999997726
 21
126.0000000000000995
 31
0.0
  0
LINE
  5
1DC
100
AcDbEntity
100
AcDbLine
  8
0
 62
256
370
-1
  6
DOT2
 10
539.9999999999998863
 20
106.0000000000000995
 30
0.0
 11
539.9999999999998863
 21
156.0000000000001137
 31
0.0
  0
LINE
  5
1DD
100
AcDbEntity
100
AcDbLine
  8
0
 62
256
370
-1
  6
BYLAYER
 10
559.9999999999997726
 20
126.0000000000000995
 30
0.0
 11
549.0004987089841961
 21
126.0072576594437663
 31
0.0
  0
LINE
  5
1DE
100
AcDbEntity
100
AcDbLine
  8
0
 62
256
370
-1
  6
DOT2
 10
539.9999999999998863
 20
156.0000000000001137
 30
0.0
 11
569.9999999999997726
 21
156.0000000000001137
 31
0.0
  0
LINE
  5
1DF
100
AcDbEntity
100
AcDbLine
  8
0
 62
256
370
-1
  6
BYLAYER
 10
548.9999999999997726
 20
124.0000000000000995
 30
0.0
 11
569.9999999999997726
 21
124.0000000000000995
 31
0.0
  0
SPLINE
  5
1E0
  8
0
 62
256
370
-1
  6
DOT2
100
AcDbEntity
100
AcDbSpline
 70
8
 71
3
 72
17
 73
13
 74
0
 40
0.0
 40
0.0
 40
0.0
 40
0.0
 40
1.0
 40
2.0
 40
3.0
 40
4.0
 40
5.0
 40
6.0
 40
7.0
 40
8.0
 40
9.0
 40
10.0
 40
10.0
 40
10.0
 40
10.0
 10
569.9999999999997726
 20
52.0000000000000853
 30
0.0
 10
557.9999999999997726
 20
52.0000000000000853
 30
0.0
 10
544.9999999999997726
 20
53.0000000000000853
 30
0.0
 10
542.9999999999997726
 20
58.0000000000000853
 30
0.0
 10
542.9999999999997726
 20
73.0000000000000995
 30
0.0
 10
547.9999999999997726
 20
86.0000000000000995
 30
0.0
 10
552.9999999999997726
 20
90.0000000000000995
 30
0.0
 10
560.9999999999997726
 20
96.0000000000000995
 30
0.0
 10
569.9999999999997726
 20
100.0000000000000995
 30
0.0
 10
569.9999999999997726
 20
100.0000000000000995
 30
0.0
 10
569.9999999999997726
 20
100.0000000000000995
 30
0.0
 10
569.9999999999997726
 20
100.0000000000000995
 30
0.0
 10
569.9999999999997726
 20
100.0000000000000995
 30
0.0
  0
SPLINE
  5
1E1
  8
0
 62
256
370
-1
  6
BYLAYER
100
AcDbEntity
100
AcDbSpline
 70
8
 71
3
 72
9
 73
5
 74
0
 40
0.0
 40
0.0
 40
0.0
 40
0.0
 40
1.0
 40
2.0
 40
2.0
 40
2.0
 40
2.0
 10
548.9999999999997726
 20
69.0000000000000853
 30
0.0
 10
548.9999999999997726
 20
79.0000000000000853
 30
0.0
 10
548.9999999999997726
 20
83.0000000000000995
 30
0.0
 10
552.9999999999997726
 20
83.0000000000000995
 30
0.0
 10
569.9999999999997726
 20
83.0000000000000995
 30
0.0
  0
LINE
  5
1E2
100
AcDbEntity
100
AcDbLine
  8
0
 62
256
370
-1
  6
DOT2
 10
569.9999999999997726
 20
51.0000000000000853
 30
0.0
 11
569.9999999999997726
 21
101.0000000000000995
 31
0.0
  0
LINE
  5
1E3
100
AcDbEntity
100
AcDbLine
  8
0
 62
256
370
-1
  6
DOT2
 10
569.9999999999997726
 20
51.0000000000000853
 30
0.0
 11
539.9999999999997726
 21
51.0000000000000853
 31
0.0
  0
LINE
  5
1E4
100
AcDbEntity
100
AcDbLine
  8
0
 62
256
370
-1
  6
BYLAYER
 10
559.9999999999997726
 20
69.0000000000000853
 30
0.0
 11
559.9999999999997726
 21
71.0000000000000853
 31
0.0
  0
LINE
  5
1E5
100
AcDbEntity
100
AcDbLine
  8
0
 62
256
370
-1
  6
DOT2
 10
539.9999999999997726
 20
51.0000000000000853
 30
0.0
 11
539.9999999999997726
 21
101.0000000000000995
 31
0.0
  0
LINE
  5
1E6
100
AcDbEntity
100
AcDbLine
  8
0
 62
256
370
-1
  6
BYLAYER
 10
559.9999999999997726
 20
71.0000000000000853
 30
0.0
 11
549.0004987089841961
 21
71.0072576594437521
 31
0.0
  0
LINE
  5
1E7
100
AcDbEntity
100
AcDbLine
  8
0
 62
256
370
-1
  6
DOT2
 10
539.9999999999997726
 20
101.0000000000000995
 30
0.0
 11
569.9999999999997726
 21
101.0000000000000995
 31
0.0
  0
LINE
  5
1E8
100
AcDbEntity
100
AcDbLine
  8
0
 62
256
370
-1
  6
BYLAYER
 10
548.9999999999997726
 20
69.0000000000000853
 30
0.0
 11
569.9999999999997726
 21
69.0000000000000853
 31
0.0
  0
SPLINE
  5
1E9
  8
0
 62
256
370
-1
  6
DOT2
100
AcDbEntity
100
AcDbSpline
 70
8
 71
3
 72
17
 73
13
 74
0
 40
0.0
 40
0.0
 40
0.0
 40
0.0
 40
1.0
 40
2.0
 40
3.0
 40
4.0
 40
5.0
 40
6.0
 40
7.0
 40
8.0
 40
9.0
 40
10.0
 40
10.0
 40
10.0
 40
10.0
 10
569.9999999999997726
 20
-2.9999999999999289
 30
0.0
 10
557.9999999999997726
 20
-2.9999999999999289
 30
0.0
 10
544.9999999999997726
 20
-1.9999999999999289
 30
0.0
 10
542.9999999999997726
 20
3.0000000000000711
 30
0.0
 10
542.9999999999997726
 20
18.0000000000000853
 30
0.0
 10
547.9999999999997726
 20
31.0000000000000853
 30
0.0
 10
552.9999999999997726
 20
35.0000000000000853
 30
0.0
 10
560.9999999999997726
 20
41.0000000000000853
 30
0.0
 10
569.9999999999997726
 20
45.0000000000000853
 30
0.0
 10
569.9999999999997726
 20
45.0000000000000853
 30
0.0
 10
569.9999999999997726
 20
45.0000000000000853
 30
0.0
 10
569.9999999999997726
 20
45.0000000000000853
 30
0.0
 10
569.9999999999997726
 20
45.0000000000000853
 30
0.0
  0
SPLINE
  5
1EA
  8
0
 62
256
370
-1
  6
BYLAYER
100
AcDbEntity
100
AcDbSpline
 70
8
 71
3
 72
9
 73
5
 74
0
 40
0.0
 40
0.0
 40
0.0
 40
0.0
 40
1.0
 40
2.0
 40
2.0
 40
2.0
 40
2.0
 10
548.9999999999997726
 20
14.0000000000000711
 30
0.0
 10
548.9999999999997726
 20
24.0000000000000711
 30
0.0
 10
548.9999999999997726
 20
28.0000000000000853
 30
0.0
 10
552.9999999999997726
 20
28.0000000000000853
 30
0.0
 10
569.9999999999997726
 20
28.0000000000000853
 30
0.0
  0
LINE
  5
1EB
100
AcDbEntity
100
AcDbLine
  8
0
 62
256
370
-1
  6
DOT2
 10
569.9999999999997726
 20
-3.9999999999999289
 30
0.0
 11
569.9999999999997726
 21
46.0000000000000853
 31
0.0
  0
LINE
  5
1EC
100
AcDbEntity
100
AcDbLine
  8
0
 62
256
370
-1
  6
DOT2
 10
569.9999999999997726
 20
-3.9999999999999289
 30
0.0
 11
539.9999999999997726
 21
-3.9999999999999289
 31
0.0
  0
LINE
  5
1ED
100
AcDbEntity
100
AcDbLine
  8
0
 62
256
370
-1
  6
BYLAYER
 10
559.9999999999997726
 20
14.0000000000000711
 30
0.0
 11
559.9999999999997726
 21
16.0000000000000711
 31
0.0
  0
LINE
  5
1EE
100
AcDbEntity
100
AcDbLine
  8
0
 62
256
370
-1
  6
DOT2
 10
539.9999999999997726
 20
-3.9999999999999289
 30
0.0
 11
539.9999999999997726
 21
46.0000000000000853
 31
0.0
  0
LINE
  5
1EF
100
AcDbEntity
100
AcDbLine
  8
0
 62
256
370
-1
  6
BYLAYER
 10
559.9999999999997726
 20
16.0000000000000711
 30
0.0
 11
549.0004987089841961
 21
16.0072576594437379
 31
0.0
  0
LINE
  5
1F0
100
AcDbEntity
100
AcDbLine
  8
0
 62
256
370
-1
  6
DOT2
 10
539.9999999999997726
 20
46.0000000000000853
 30
0.0
 11
569.9999999999997726
 21
46.0000000000000853
 31
0.0
  0
LINE
  5
1F1
100
AcDbEntity
100
AcDbLine
  8
0
 62
256
370
-1
  6
BYLAYER
 10
548.9999999999997726
 20
14.0000000000000711
 30
0.0
 11
569.9999999999997726
 21
14.0000000000000711
 31
0.0
  0
SPLINE
  5
1F2
  8
0
 62
256
370
-1
  6
DOT2
100
AcDbEntity
100
AcDbSpline
 70
8
 71
3
 72
17
 73
13
 74
0
 40
0.0
 40
0.0
 40
0.0
 40
0.0
 40
1.0
 40
2.0
 40
3.0
 40
4.0
 40
5.0
 40
6.0
 40
7.0
 40
8.0
 40
9.0
 40
10.0
 40
10.0
 40
10.0
 40
10.0
 10
569.9999999999996589
 20
-57.9999999999999574
 30
0.0
 10
557.9999999999997726
 20
-57.9999999999999574
 30
0.0
 10
544.9999999999997726
 20
-56.9999999999999574
 30
0.0
 10
542.9999999999997726
 20
-51.9999999999999574
 30
0.0
 10
542.9999999999997726
 20
-36.9999999999999432
 30
0.0
 10
547.9999999999997726
 20
-23.9999999999999432
 30
0.0
 10
552.9999999999997726
 20
-19.9999999999999432
 30
0.0
 10
560.9999999999997726
 20
-13.9999999999999432
 30
0.0
 10
569.9999999999996589
 20
-9.9999999999999432
 30
0.0
 10
569.9999999999996589
 20
-9.9999999999999432
 30
0.0
 10
569.9999999999996589
 20
-9.9999999999999432
 30
0.0
 10
569.9999999999996589
 20
-9.9999999999999432
 30
0.0
 10
569.9999999999996589
 20
-9.9999999999999432
 30
0.0
  0
SPLINE
  5
1F3
  8
0
 62
256
370
-1
  6
BYLAYER
100
AcDbEntity
100
AcDbSpline
 70
8
 71
3
 72
9
 73
5
 74
0
 40
0.0
 40
0.0
 40
0.0
 40
0.0
 40
1.0
 40
2.0
 40
2.0
 40
2.0
 40
2.0
 10
548.9999999999996589
 20
-40.9999999999999574
 30
0.0
 10
548.9999999999997726
 20
-30.9999999999999574
 30
0.0
 10
548.9999999999997726
 20
-26.9999999999999432
 30
0.0
 10
552.9999999999996589
 20
-26.9999999999999432
 30
0.0
 10
569.9999999999996589
 20
-26.9999999999999432
 30
0.0
  0
LINE
  5
1F4
100
AcDbEntity
100
AcDbLine
  8
0
 62
256
370
-1
  6
DOT2
 10
569.9999999999996589
 20
-58.9999999999999574
 30
0.0
 11
569.9999999999996589
 21
-8.9999999999999432
 31
0.0
  0
LINE
  5
1F5
100
AcDbEntity
100
AcDbLine
  8
0
 62
256
370
-1
  6
DOT2
 10
569.9999999999996589
 20
-58.9999999999999574
 30
0.0
 11
539.9999999999997726
 21
-58.9999999999999574
 31
0.0
  0
LINE
  5
1F6
100
AcDbEntity
100
AcDbLine
  8
0
 62
256
370
-1
  6
BYLAYER
 10
559.9999999999996589
 20
-40.9999999999999574
 30
0.0
 11
559.9999999999996589
 21
-38.9999999999999574
 31
0.0
  0
LINE
  5
1F7
100
AcDbEntity
100
AcDbLine
  8
0
 62
256
370
-1
  6
DOT2
 10
539.9999999999997726
 20
-58.9999999999999574
 30
0.0
 11
539.9999999999997726
 21
-8.9999999999999432
 31
0.0
  0
LINE
  5
1F8
100
AcDbEntity
100
AcDbLine
  8
0
 62
256
370
-1
  6
BYLAYER
 10
559.9999999999996589
 20
-38.9999999999999574
 30
0.0
 11
549.0004987089841961
 21
-38.9927423405562905
 31
0.0
  0
LINE
  5
1F9
100
AcDbEntity
100
AcDbLine
  8
0
 62
256
370
-1
  6
DOT2
 10
539.9999999999997726
 20
-8.9999999999999432
 30
0.0
 11
569.9999999999996589
 21
-8.9999999999999432
 31
0.0
  0
LINE
  5
1FA
100
AcDbEntity
100
AcDbLine
  8
0
 62
256
370
-1
  6
BYLAYER
 10
548.9999999999996589
 20
-40.9999999999999574
 30
0.0
 11
569.9999999999996589
 21
-40.9999999999999574
 31
0.0
  0
LINE
  5
1FB
100
AcDbEntity
100
AcDbLine
  8
0
 62
256
370
-1
  6
DOT2
 10
569.9999999999997726
 20
106.0000000000000995
 30
0.0
 11
569.9999999999997726
 21
156.0000000000001137
 31
0.0
  0
MTEXT
  5
1FC
100
AcDbEntity
100
AcDbMText
  8
0
 62
256
370
-1
  6
BYLAYER
 10
440.860088470319738
 20
176.0004042998478155
 30
0.0
 40
2.5
 41
0.0
 71
1
 72
1
  1
Center Cutouts (cut each vertical strip and glue to the center wood for your lugs.\PCut along the solid lines on the scroll saw, and keep the cutouts for later.)
  7
textstyle4
 50
0.0
 73
2
 44
1.0
  0
ENDSEC
  0
SECTION
  2
OBJECTS
  0
DICTIONARY
  5
C
100
AcDbDictionary
280
0
281
1
  3
ACAD_GROUP
350
D
  3
ACAD_LAYOUT
350
1A
  3
ACAD_MLINESTYLE
350
17
  3
ACAD_PLOTSETTINGS
350
19
  3
ACAD_PLOTSTYLENAME
350
E
  3
AcDbVariableDictionary
350
1FD
  3
QCAD_OBJECTS
350
1FE
  0
DICTIONARY
  5
D
100
AcDbDictionary
280
0
281
1
  0
ACDBDICTIONARYWDFLT
  5
E
100
AcDbDictionary
281
1
  3
Normal
350
F
100
AcDbDictionaryWithDefault
340
F
  0
ACDBPLACEHOLDER
  5
F
  0
DICTIONARY
  5
17
100
AcDbDictionary
280
0
281
1
  3
Standard
350
18
  0
MLINESTYLE
  5
18
100
AcDbMlineStyle
  2
STANDARD
 70
0
  3

 62
256
 51
90.0
 52
90.0
 71
2
 49
0.5
 62
256
  6
BYLAYER
 49
-0.5
 62
256
  6
BYLAYER
  0
DICTIONARY
  5
19
100
AcDbDictionary
280
0
281
1
  0
DICTIONARY
  5
1A
100
AcDbDictionary
281
1
  3
Layout1
350
1E
  3
Layout2
350
26
  3
Model
350
22
  0
LAYOUT
  5
1E
100
AcDbPlotSettings
  1

  2
none_device
  4

  6

 40
0.0
 41
0.0
 42
0.0
 43
0.0
 44
0.0
 45
0.0
 46
0.0
 47
0.0
 48
0.0
 49
0.0
140
0.0
141
0.0
142
1.0
143
1.0
 70
688
 72
0
 73
0
 74
5
  7

 75
16
147
1.0
148
0.0
149
0.0
100
AcDbLayout
  1
Layout1
 70
1
 71
1
 10
0.0
 20
0.0
 11
420.0
 21
297.0
 12
0.0
 22
0.0
 32
0.0
 14
100000000000000000000.0
 24
100000000000000000000.0
 34
100000000000000000000.0
 15
-100000000000000000000.0
 25
-100000000000000000000.0
 35
-100000000000000000000.0
146
0.0
 13
0.0
 23
0.0
 33
0.0
 16
1.0
 26
0.0
 36
0.0
 17
0.0
 27
1.0
 37
0.0
 76
0
330
1B
  0
LAYOUT
  5
22
100
AcDbPlotSettings
  1

  2
none_device
  4

  6

 40
0.0
 41
0.0
 42
0.0
 43
0.0
 44
0.0
 45
0.0
 46
0.0
 47
0.0
 48
0.0
 49
0.0
140
0.0
141
0.0
142
1.0
143
1.0
 70
1712
 72
0
 73
0
 74
0
  7

 75
0
147
1.0
148
0.0
149
0.0
100
AcDbLayout
  1
Model
 70
1
 71
0
 10
0.0
 20
0.0
 11
12.0
 21
9.0
 12
0.0
 22
0.0
 32
0.0
 14
0.0
 24
0.0
 34
0.0
 15
0.0
 25
0.0
 35
0.0
146
0.0
 13
0.0
 23
0.0
 33
0.0
 16
1.0
 26
0.0
 36
0.0
 17
0.0
 27
1.0
 37
0.0
 76
0
330
1F
  0
LAYOUT
  5
26
100
AcDbPlotSettings
  1

  2
none_device
  4

  6

 40
0.0
 41
0.0
 42
0.0
 43
0.0
 44
0.0
 45
0.0
 46
0.0
 47
0.0
 48
0.0
 49
0.0
140
0.0
141
0.0
142
1.0
143
1.0
 70
688
 72
0
 73
0
 74
5
  7

 75
16
147
1.0
148
0.0
149
0.0
100
AcDbLayout
  1
Layout2
 70
1
 71
2
 10
0.0
 20
0.0
 11
12.0
 21
9.0
 12
0.0
 22
0.0
 32
0.0
 14
0.0
 24
0.0
 34
0.0
 15
0.0
 25
0.0
 35
0.0
146
0.0
 13
0.0
 23
0.0
 33
0.0
 16
1.0
 26
0.0
 36
0.0
 17
0.0
 27
1.0
 37
0.0
 76
0
330
23
  0
DICTIONARY
  5
1FD
100
AcDbDictionary
281
1
  3
DIMASSOC
350
200
  3
HIDETEXT
350
1FF
  0
DICTIONARYVAR
  5
1FF
100
DictionaryVariables
280
0
  1
2
  0
DICTIONARYVAR
  5
200
100
DictionaryVariables
280
0
  1
1
  0
DICTIONARY
  5
1FE
100
AcDbDictionary
281
1
  3
Grid/DisplayGrid00
350
201
  3
Grid/DisplayGrid01
350
202
  3
Grid/DisplayGrid02
350
203
  3
Grid/DisplayGrid03
350
204
  3
Grid/GridSpacingX00
350
205
  3
Grid/GridSpacingX01
350
206
  3
Grid/GridSpacingX02
350
207
  3
Grid/GridSpacingX03
350
208
  3
Grid/GridSpacingY00
350
209
  3
Grid/GridSpacingY01
350
20A
  3
Grid/GridSpacingY02
350
20B
  3
Grid/GridSpacingY03
350
20C
  3
Grid/IsometricGrid00
350
20D
  3
Grid/IsometricGrid01
350
20E
  3
Grid/IsometricGrid02
350
20F
  3
Grid/IsometricGrid03
350
210
  3
Grid/IsometricProjection00
350
211
  3
Grid/IsometricProjection01
350
212
  3
Grid/IsometricProjection02
350
213
  3
Grid/IsometricProjection03
350
214
  3
Grid/MetaGridSpacingX00
350
215
  3
Grid/MetaGridSpacingX01
350
216
  3
Grid/MetaGridSpacingX02
350
217
  3
Grid/MetaGridSpacingX03
350
218
  3
Grid/MetaGridSpacingY00
350
219
  3
Grid/MetaGridSpacingY01
350
21A
  3
Grid/MetaGridSpacingY02
350
21B
  3
Grid/MetaGridSpacingY03
350
21C
  3
MultiPageSettings/Columns
350
21D
  3
MultiPageSettings/GlueMarginsBottom
350
21E
  3
MultiPageSettings/GlueMarginsLeft
350
21F
  3
MultiPageSettings/GlueMarginsRight
350
220
  3
MultiPageSettings/GlueMarginsTop
350
221
  3
MultiPageSettings/PrintCropMarks
350
222
  3
MultiPageSettings/Rows
350
223
  3
PageSettings/OffsetX
350
224
  3
PageSettings/OffsetY
350
225
  3
PageSettings/PageOrientation
350
226
  3
PageSettings/PaperHeight
350
227
  3
PageSettings/PaperWidth
350
228
  3
PageSettings/Scale
350
229
  3
PageSettings/ShowPaperBorders
350
22A
  3
UnitSettings/PaperUnit
350
22B
  0
XRECORD
  5
201
330
1FE
100
AcDbXrecord
280
1
290
1
  0
XRECORD
  5
202
330
1FE
100
AcDbXrecord
280
1
290
1
  0
XRECORD
  5
203
330
1FE
100
AcDbXrecord
280
1
290
1
  0
XRECORD
  5
204
330
1FE
100
AcDbXrecord
280
1
290
1
  0
XRECORD
  5
205
330
1FE
100
AcDbXrecord
280
1
1000
auto
  0
XRECORD
  5
206
330
1FE
100
AcDbXrecord
280
1
1000
auto
  0
XRECORD
  5
207
330
1FE
100
AcDbXrecord
280
1
1000
auto
  0
XRECORD
  5
208
330
1FE
100
AcDbXrecord
280
1
1000
auto
  0
XRECORD
  5
209
330
1FE
100
AcDbXrecord
280
1
1000
auto
  0
XRECORD
  5
20A
330
1FE
100
AcDbXrecord
280
1
1000
auto
  0
XRECORD
  5
20B
330
1FE
100
AcDbXrecord
280
1
1000
auto
  0
XRECORD
  5
20C
330
1FE
100
AcDbXrecord
280
1
1000
auto
  0
XRECORD
  5
20D
330
1FE
100
AcDbXrecord
280
1
290
0
  0
XRECORD
  5
20E
330
1FE
100
AcDbXrecord
280
1
290
0
  0
XRECORD
  5
20F
330
1FE
100
AcDbXrecord
280
1
290
0
  0
XRECORD
  5
210
330
1FE
100
AcDbXrecord
280
1
290
0
  0
XRECORD
  5
211
330
1FE
100
AcDbXrecord
280
1
 90
0
  0
XRECORD
  5
212
330
1FE
100
AcDbXrecord
280
1
 90
0
  0
XRECORD
  5
213
330
1FE
100
AcDbXrecord
280
1
 90
0
  0
XRECORD
  5
214
330
1FE
100
AcDbXrecord
280
1
 90
0
  0
XRECORD
  5
215
330
1FE
100
AcDbXrecord
280
1
1000
auto
  0
XRECORD
  5
216
330
1FE
100
AcDbXrecord
280
1
1000
auto
  0
XRECORD
  5
217
330
1FE
100
AcDbXrecord
280
1
1000
auto
  0
XRECORD
  5
218
330
1FE
100
AcDbXrecord
280
1
1000
auto
  0
XRECORD
  5
219
330
1FE
100
AcDbXrecord
280
1
1000
auto
  0
XRECORD
  5
21A
330
1FE
100
AcDbXrecord
280
1
1000
auto
  0
XRECORD
  5
21B
330
1FE
100
AcDbXrecord
280
1
1000
auto
  0
XRECORD
  5
21C
330
1FE
100
AcDbXrecord
280
1
1000
auto
  0
XRECORD
  5
21D
330
1FE
100
AcDbXrecord
280
1
 90
1
  0
XRECORD
  5
21E
330
1FE
100
AcDbXrecord
280
1
 40
10.0
  0
XRECORD
  5
21F
330
1FE
100
AcDbXrecord
280
1
 40
10.0
  0
XRECORD
  5
220
330
1FE
100
AcDbXrecord
280
1
 40
10.0
  0
XRECORD
  5
221
330
1FE
100
AcDbXrecord
280
1
 40
10.0
  0
XRECORD
  5
222
330
1FE
100
AcDbXrecord
280
1
290
0
  0
XRECORD
  5
223
330
1FE
100
AcDbXrecord
280
1
 90
1
  0
XRECORD
  5
224
330
1FE
100
AcDbXrecord
280
1
 40
183.6878097151369218
  0
XRECORD
  5
225
330
1FE
100
AcDbXrecord
280
1
 40
-92.5428173984355311
  0
XRECORD
  5
226
330
1FE
100
AcDbXrecord
280
1
1000
Portrait
  0
XRECORD
  5
227
330
1FE
100
AcDbXrecord
280
1
 40
279.3999999999999773
  0
XRECORD
  5
228
330
1FE
100
AcDbXrecord
280
1
 40
215.9000000000000057
  0
XRECORD
  5
229
330
1FE
100
AcDbXrecord
280
1
1000
1:1
  0
XRECORD
  5
22A
330
1FE
100
AcDbXrecord
280
1
290
1
  0
XRECORD
  5
22B
330
1FE
100
AcDbXrecord
280
1
 90
4
  0
ENDSEC
  0
EOF
