999
dxflib 3.3.4.0
  0
SECTION
  2
HEADER
  9
$ACADVER
  1
AC1015
  9
$HANDSEED
  5
FFFF
  9
$DIMADEC
 70
0
  9
$DIMASZ
 40
2.5
  9
$DIMAUNIT
 70
0
  9
$DIMAZIN
 70
2
  9
$DIMDEC
 70
4
  9
$DIMEXE
 40
1.25
  9
$DIMEXO
 40
0.625
  9
$DIMGAP
 40
0.625
  9
$DIMLUNIT
 70
2
  9
$DIMTSZ
 40
0.0
  9
$DIMTXT
 40
2.5
  9
$DIMZIN
 70
8
  9
$DWGCODEPAGE
  3
ANSI_1252
  9
$INSUNITS
 70
4
  9
$LTSCALE
 40
1.0
  0
ENDSEC
  0
SECTION
  2
TABLES
  0
TABLE
  2
VPORT
  5
8
100
AcDbSymbolTable
 70
1
  0
VPORT
  5
30
100
AcDbSymbolTableRecord
100
AcDbViewportTableRecord
  2
*Active
 70
0
 10
0.0
 20
0.0
 11
1.0
 21
1.0
 12
286.3055555555554861
 22
148.5
 13
0.0
 23
0.0
 14
10.0
 24
10.0
 15
10.0
 25
10.0
 16
0.0
 26
0.0
 36
1.0
 17
0.0
 27
0.0
 37
0.0
 40
297.0
 41
1.92798353909465
 42
50.0
 43
0.0
 44
0.0
 50
0.0
 51
0.0
 71
0
 72
100
 73
1
 74
3
 75
1
 76
1
 77
0
 78
0
281
0
 65
1
110
0.0
120
0.0
130
0.0
111
1.0
121
0.0
131
0.0
112
0.0
122
1.0
132
0.0
 79
0
146
0.0
  0
ENDTAB
  0
TABLE
  2
LTYPE
  5
5
100
AcDbSymbolTable
 70
21
  0
LTYPE
  5
16
100
AcDbSymbolTableRecord
100
AcDbLinetypeTableRecord
  2
CONTINUOUS
 70
0
  3
Solid line
 72
65
 73
0
 40
0.0
  0
LTYPE
  5
31
100
AcDbSymbolTableRecord
100
AcDbLinetypeTableRecord
  2
CENTER2
 70
0
  3
Center (.5x) ___ _ ___ _ ___ _ ___ _ ___ _ ___
 72
65
 73
4
 40
28.5749999999999993
 49
19.0500000000000007
 74
0
 49
-3.1749999999999998
 74
0
 49
3.1749999999999998
 74
0
 49
-3.1749999999999998
 74
0
  0
LTYPE
  5
32
100
AcDbSymbolTableRecord
100
AcDbLinetypeTableRecord
  2
DIVIDEX2
 70
0
  3
Divide (2x) ________  .  .  ________  .  .  _
 72
65
 73
6
 40
63.5
 49
25.3999999999999986
 74
0
 49
-12.6999999999999993
 74
0
 49
0.0
 74
0
 49
-12.6999999999999993
 74
0
 49
0.0
 74
0
 49
-12.6999999999999993
 74
0
  0
LTYPE
  5
33
100
AcDbSymbolTableRecord
100
AcDbLinetypeTableRecord
  2
DOT2
 70
0
  3
Dot (.5x) .....................................
 72
65
 73
2
 40
3.1749999999999998
 49
0.0
 74
0
 49
-3.1749999999999998
 74
0
  0
LTYPE
  5
34
100
AcDbSymbolTableRecord
100
AcDbLinetypeTableRecord
  2
DASHDOT2
 70
0
  3
Dash dot (.5x) _._._._._._._._._._._._._._._.
 72
65
 73
4
 40
12.6999999999999993
 49
6.3499999999999996
 74
0
 49
-3.1749999999999998
 74
0
 49
0.0
 74
0
 49
-3.1749999999999998
 74
0
  0
LTYPE
  5
35
100
AcDbSymbolTableRecord
100
AcDbLinetypeTableRecord
  2
DIVIDE
 70
0
  3
Divide ____ . . ____ . . ____ . . ____ . . ____
 72
65
 73
6
 40
31.75
 49
12.6999999999999993
 74
0
 49
-6.3499999999999996
 74
0
 49
0.0
 74
0
 49
-6.3499999999999996
 74
0
 49
0.0
 74
0
 49
-6.3499999999999996
 74
0
  0
LTYPE
  5
36
100
AcDbSymbolTableRecord
100
AcDbLinetypeTableRecord
  2
DASHDOT
 70
0
  3
Dash dot __ . __ . __ . __ . __ . __ . __ . __
 72
65
 73
4
 40
25.3999999999999986
 49
12.6999999999999993
 74
0
 49
-6.3499999999999996
 74
0
 49
0.0
 74
0
 49
-6.3499999999999996
 74
0
  0
LTYPE
  5
37
100
AcDbSymbolTableRecord
100
AcDbLinetypeTableRecord
  2
BORDER
 70
0
  3
Border __ __ . __ __ . __ __ . __ __ . __ __ .
 72
65
 73
6
 40
44.4500000000000028
 49
12.6999999999999993
 74
0
 49
-6.3499999999999996
 74
0
 49
12.6999999999999993
 74
0
 49
-6.3499999999999996
 74
0
 49
0.0
 74
0
 49
-6.3499999999999996
 74
0
  0
LTYPE
  5
38
100
AcDbSymbolTableRecord
100
AcDbLinetypeTableRecord
  2
DASHDOTX2
 70
0
  3
Dash dot (2x) ____  .  ____  .  ____  .  ___
 72
65
 73
4
 40
50.7999999999999972
 49
25.3999999999999986
 74
0
 49
-12.6999999999999993
 74
0
 49
0.0
 74
0
 49
-12.6999999999999993
 74
0
  0
LTYPE
  5
39
100
AcDbSymbolTableRecord
100
AcDbLinetypeTableRecord
  2
CENTERX2
 70
0
  3
Center (2x) ________  __  ________  __  _____
 72
65
 73
4
 40
101.5999999999999943
 49
63.5
 74
0
 49
-12.6999999999999993
 74
0
 49
12.6999999999999993
 74
0
 49
-12.6999999999999993
 74
0
  0
LTYPE
  5
3A
100
AcDbSymbolTableRecord
100
AcDbLinetypeTableRecord
  2
BORDER2
 70
0
  3
Border (.5x) __.__.__.__.__.__.__.__.__.__.__.
 72
65
 73
6
 40
22.2250000000000014
 49
6.3499999999999996
 74
0
 49
-3.1749999999999998
 74
0
 49
6.3499999999999996
 74
0
 49
-3.1749999999999998
 74
0
 49
0.0
 74
0
 49
-3.1749999999999998
 74
0
  0
LTYPE
  5
3B
100
AcDbSymbolTableRecord
100
AcDbLinetypeTableRecord
  2
BORDERX2
 70
0
  3
Border (2x) ____  ____  .  ____  ____  .  ___
 72
65
 73
6
 40
88.9000000000000057
 49
25.3999999999999986
 74
0
 49
-12.6999999999999993
 74
0
 49
25.3999999999999986
 74
0
 49
-12.6999999999999993
 74
0
 49
0.0
 74
0
 49
-12.6999999999999993
 74
0
  0
LTYPE
  5
14
100
AcDbSymbolTableRecord
100
AcDbLinetypeTableRecord
  2
BYBLOCK
 70
0
  3

 72
65
 73
0
 40
0.0
  0
LTYPE
  5
15
100
AcDbSymbolTableRecord
100
AcDbLinetypeTableRecord
  2
BYLAYER
 70
0
  3

 72
65
 73
0
 40
0.0
  0
LTYPE
  5
3C
100
AcDbSymbolTableRecord
100
AcDbLinetypeTableRecord
  2
DASHED2
 70
0
  3
Dashed (.5x) _ _ _ _ _ _ _ _ _ _ _ _ _ _ _ _ _
 72
65
 73
2
 40
9.5250000000000004
 49
6.3499999999999996
 74
0
 49
-3.1749999999999998
 74
0
  0
LTYPE
  5
3D
100
AcDbSymbolTableRecord
100
AcDbLinetypeTableRecord
  2
CENTER
 70
0
  3
Center ____ _ ____ _ ____ _ ____ _ ____ _ ____
 72
65
 73
4
 40
50.7999999999999972
 49
31.75
 74
0
 49
-6.3499999999999996
 74
0
 49
6.3499999999999996
 74
0
 49
-6.3499999999999996
 74
0
  0
LTYPE
  5
3E
100
AcDbSymbolTableRecord
100
AcDbLinetypeTableRecord
  2
DIVIDE2
 70
0
  3
Divide (.5x) __..__..__..__..__..__..__..__.._
 72
65
 73
6
 40
15.875
 49
6.3499999999999996
 74
0
 49
-3.1749999999999998
 74
0
 49
0.0
 74
0
 49
-3.1749999999999998
 74
0
 49
0.0
 74
0
 49
-3.1749999999999998
 74
0
  0
LTYPE
  5
3F
100
AcDbSymbolTableRecord
100
AcDbLinetypeTableRecord
  2
DASHED
 70
0
  3
Dashed __ __ __ __ __ __ __ __ __ __ __ __ __ _
 72
65
 73
2
 40
19.0500000000000007
 49
12.6999999999999993
 74
0
 49
-6.3499999999999996
 74
0
  0
LTYPE
  5
40
100
AcDbSymbolTableRecord
100
AcDbLinetypeTableRecord
  2
DOTX2
 70
0
  3
Dot (2x) .  .  .  .  .  .  .  .  .  .  .  .  .
 72
65
 73
2
 40
12.6999999999999993
 49
0.0
 74
0
 49
-12.6999999999999993
 74
0
  0
LTYPE
  5
41
100
AcDbSymbolTableRecord
100
AcDbLinetypeTableRecord
  2
DASHEDX2
 70
0
  3
Dashed (2x) ____  ____  ____  ____  ____  ___
 72
65
 73
2
 40
38.1000000000000014
 49
25.3999999999999986
 74
0
 49
-12.6999999999999993
 74
0
  0
LTYPE
  5
42
100
AcDbSymbolTableRecord
100
AcDbLinetypeTableRecord
  2
DOT
 70
0
  3
Dot . . . . . . . . . . . . . . . . . . . . . .
 72
65
 73
2
 40
6.3499999999999996
 49
0.0
 74
0
 49
-6.3499999999999996
 74
0
  0
ENDTAB
  0
TABLE
  2
LAYER
  5
2
100
AcDbSymbolTable
 70
1
  0
LAYER
  5
10
100
AcDbSymbolTableRecord
100
AcDbLayerTableRecord
  2
0
 70
0
 62
7
420
0
  6
CONTINUOUS
370
25
390
F
  0
ENDTAB
  0
TABLE
  2
STYLE
  5
3
100
AcDbSymbolTable
 70
8
  0
STYLE
  5
43
100
AcDbSymbolTableRecord
100
AcDbTextStyleTableRecord
  2
Standard
 70
0
 40
0.0
 41
1.0
 50
0.0
 71
0
 42
2.5
  3

  4

1001
ACAD
1000
txt
1071
0
  0
STYLE
  5
44
100
AcDbSymbolTableRecord
100
AcDbTextStyleTableRecord
  2
textstyle0
 70
0
 40
0.0
 41
1.0
 50
0.0
 71
0
 42
2.5
  3

  4

1001
ACAD
1000
Liberation Sans
1071
0
  0
STYLE
  5
45
100
AcDbSymbolTableRecord
100
AcDbTextStyleTableRecord
  2
textstyle1
 70
0
 40
0.0
 41
1.0
 50
0.0
 71
0
 42
2.5
  3

  4

1001
ACAD
1000
Liberation Sans
1071
0
  0
STYLE
  5
46
100
AcDbSymbolTableRecord
100
AcDbTextStyleTableRecord
  2
textstyle2
 70
0
 40
0.0
 41
1.0
 50
0.0
 71
0
 42
2.5
  3

  4

1001
ACAD
1000
Liberation Sans
1071
0
  0
STYLE
  5
47
100
AcDbSymbolTableRecord
100
AcDbTextStyleTableRecord
  2
textstyle3
 70
0
 40
0.0
 41
1.0
 50
0.0
 71
0
 42
2.5
  3

  4

1001
ACAD
1000
Liberation Sans
1071
0
  0
STYLE
  5
48
100
AcDbSymbolTableRecord
100
AcDbTextStyleTableRecord
  2
textstyle4
 70
0
 40
0.0
 41
1.0
 50
0.0
 71
0
 42
2.5
  3

  4

1001
ACAD
1000
Liberation Sans
1071
0
  0
STYLE
  5
49
100
AcDbSymbolTableRecord
100
AcDbTextStyleTableRecord
  2
textstyle5
 70
0
 40
0.0
 41
1.0
 50
0.0
 71
0
 42
2.5
  3

  4

1001
ACAD
1000
Liberation Sans
1071
0
  0
STYLE
  5
4A
100
AcDbSymbolTableRecord
100
AcDbTextStyleTableRecord
  2
textstyle6
 70
0
 40
0.0
 41
1.0
 50
0.0
 71
0
 42
2.5
  3

  4

1001
ACAD
1000
Liberation Sans
1071
0
  0
ENDTAB
  0
TABLE
  2
VIEW
  5
6
100
AcDbSymbolTable
 70
0
  0
ENDTAB
  0
TABLE
  2
UCS
  5
7
100
AcDbSymbolTable
 70
0
  0
ENDTAB
  0
TABLE
  2
APPID
  5
9
100
AcDbSymbolTable
 70
1
  0
APPID
  5
12
100
AcDbSymbolTableRecord
100
AcDbRegAppTableRecord
  2
ACAD
 70
0
  0
APPID
  5
4B
100
AcDbSymbolTableRecord
100
AcDbRegAppTableRecord
  2
QCAD
 70
0
  0
ENDTAB
  0
TABLE
  2
DIMSTYLE
  5
A
100
AcDbSymbolTable
 70
1
100
AcDbDimStyleTable
 71
0
  0
DIMSTYLE
105
27
100
AcDbSymbolTableRecord
100
AcDbDimStyleTableRecord
  2
Standard
 41
2.5
 42
0.625
 43
3.75
 44
1.25
 70
0
 73
0
 74
0
 77
1
 78
8
140
2.5
141
2.5
143
0.03937007874016
147
0.625
171
3
172
1
271
2
272
2
274
3
278
44
283
0
284
8
340
43
  0
ENDTAB
  0
TABLE
  2
BLOCK_RECORD
  5
1
100
AcDbSymbolTable
 70
1
  0
BLOCK_RECORD
  5
1F
100
AcDbSymbolTableRecord
100
AcDbBlockTableRecord
  2
*Model_Space
340
22
  0
BLOCK_RECORD
  5
1B
100
AcDbSymbolTableRecord
100
AcDbBlockTableRecord
  2
*Paper_Space
340
1E
  0
BLOCK_RECORD
  5
23
100
AcDbSymbolTableRecord
100
AcDbBlockTableRecord
  2
*Paper_Space0
340
26
  0
BLOCK_RECORD
  5
4C
100
AcDbSymbolTableRecord
100
AcDbBlockTableRecord
  2
drill
340
0
  0
ENDTAB
  0
ENDSEC
  0
SECTION
  2
BLOCKS
  0
BLOCK
  5
20
100
AcDbEntity
  8
0
100
AcDbBlockBegin
  2
*Model_Space
 70
0
 10
0.0
 20
0.0
 30
0.0
  3
*Model_Space
  1

  0
ENDBLK
  5
21
100
AcDbEntity
  8
0
100
AcDbBlockEnd
  0
BLOCK
  5
1C
100
AcDbEntity
 67
1
  8
0
100
AcDbBlockBegin
  2
*Paper_Space
 70
0
 10
0.0
 20
0.0
 30
0.0
  3
*Paper_Space
  1

  0
ENDBLK
  5
1D
100
AcDbEntity
 67
1
  8
0
100
AcDbBlockEnd
  0
BLOCK
  5
24
100
AcDbEntity
  8
0
100
AcDbBlockBegin
  2
*Paper_Space0
 70
0
 10
0.0
 20
0.0
 30
0.0
  3
*Paper_Space0
  1

  0
ENDBLK
  5
25
100
AcDbEntity
  8
0
100
AcDbBlockEnd
  0
BLOCK
  5
4D
100
AcDbEntity
  8
0
100
AcDbBlockBegin
  2
drill
 70
0
 10
0.0
 20
0.0
 30
0.0
  3
drill
  1

  0
LINE
  5
4E
100
AcDbEntity
100
AcDbLine
  8
0
 62
9
420
12632256
370
-1
  6
BYLAYER
 10
1.9000000000000004
 20
4.0
 30
0.0
 11
1.9000000000000004
 21
6.0
 31
0.0
  0
LINE
  5
4F
100
AcDbEntity
100
AcDbLine
  8
0
 62
9
420
12632256
370
-1
  6
BYLAYER
 10
-2.0999999999999979
 20
4.0
 30
0.0
 11
-2.0999999999999979
 21
6.0
 31
0.0
  0
LINE
  5
50
100
AcDbEntity
100
AcDbLine
  8
0
 62
256
370
-1
  6
DOT2
 10
-0.9999999999999982
 20
4.0
 30
0.0
 11
-0.9999999999999982
 21
-6.0
 31
0.0
  0
LINE
  5
51
100
AcDbEntity
100
AcDbLine
  8
0
 62
256
370
-1
  6
BYLAYER
 10
-0.9999999999999982
 20
6.0
 30
0.0
 11
1.0000000000000018
 21
6.0
 31
0.0
  0
LINE
  5
52
100
AcDbEntity
100
AcDbLine
  8
0
 62
256
370
-1
  6
DOT2
 10
1.0000000000000018
 20
6.0
 30
0.0
 11
1.0000000000000018
 21
10.0
 31
0.0
  0
LINE
  5
53
100
AcDbEntity
100
AcDbLine
  8
0
 62
256
370
-1
  6
DOT2
 10
1.0
 20
10.0
 30
0.0
 11
-1.0
 21
10.0
 31
0.0
  0
LINE
  5
54
100
AcDbEntity
100
AcDbLine
  8
0
 62
256
370
-1
  6
DOT2
 10
-0.9999999999999982
 20
10.0
 30
0.0
 11
-0.9999999999999982
 21
6.0
 31
0.0
  0
LINE
  5
55
100
AcDbEntity
100
AcDbLine
  8
0
 62
256
370
-1
  6
BYLAYER
 10
3.5000000000000018
 20
0.0
 30
0.0
 11
3.5000000000000018
 21
6.0
 31
0.0
  0
LINE
  5
56
100
AcDbEntity
100
AcDbLine
  8
0
 62
256
370
-1
  6
BYLAYER
 10
3.5000000000000018
 20
6.0
 30
0.0
 11
-3.4999999999999964
 21
6.0
 31
0.0
  0
LINE
  5
57
100
AcDbEntity
100
AcDbLine
  8
0
 62
256
370
-1
  6
BYLAYER
 10
-3.4999999999999964
 20
6.0
 30
0.0
 11
-3.4999999999999964
 21
0.0
 31
0.0
  0
LINE
  5
58
100
AcDbEntity
100
AcDbLine
  8
0
 62
256
370
-1
  6
BYLAYER
 10
3.1750000000000025
 20
6.0
 30
0.0
 11
-3.1749999999999972
 21
6.0
 31
0.0
  0
LINE
  5
59
100
AcDbEntity
100
AcDbLine
  8
0
 62
256
370
-1
  6
BYLAYER
 10
-3.4999999999999982
 20
4.0
 30
0.0
 11
3.5000000000000018
 21
4.0
 31
0.0
  0
LINE
  5
5A
100
AcDbEntity
100
AcDbLine
  8
0
 62
256
370
-1
  6
BYLAYER
 10
-2.0999999999999979
 20
6.0
 30
0.0
 11
-2.0999999999999979
 21
6.0
 31
0.0
  0
LINE
  5
5B
100
AcDbEntity
100
AcDbLine
  8
0
 62
256
370
-1
  6
BYLAYER
 10
1.9000000000000004
 20
6.0
 30
0.0
 11
1.9000000000000004
 21
6.0
 31
0.0
  0
LINE
  5
5C
100
AcDbEntity
100
AcDbLine
  8
0
 62
256
370
-1
  6
BYLAYER
 10
-2.9999999999999964
 20
-6.0
 30
0.0
 11
3.0000000000000018
 21
-6.0
 31
0.0
  0
LINE
  5
5D
100
AcDbEntity
100
AcDbLine
  8
0
 62
256
370
-1
  6
BYLAYER
 10
3.0000000000000018
 20
-6.0
 30
0.0
 11
3.0000000000000018
 21
4.0
 31
0.0
  0
LINE
  5
5E
100
AcDbEntity
100
AcDbLine
  8
0
 62
256
370
-1
  6
BYLAYER
 10
3.0000000000000018
 20
4.0
 30
0.0
 11
-2.9999999999999964
 21
4.0
 31
0.0
  0
LINE
  5
5F
100
AcDbEntity
100
AcDbLine
  8
0
 62
256
370
-1
  6
BYLAYER
 10
-2.9999999999999964
 20
4.0
 30
0.0
 11
-2.9999999999999964
 21
-6.0
 31
0.0
  0
LINE
  5
60
100
AcDbEntity
100
AcDbLine
  8
0
 62
256
370
-1
  6
DOT2
 10
1.0000000000000018
 20
-6.0
 30
0.0
 11
1.0000000000000018
 21
4.0
 31
0.0
  0
LINE
  5
61
100
AcDbEntity
100
AcDbLine
  8
0
 62
256
370
-1
  6
BYLAYER
 10
1.0000000000000018
 20
4.0
 30
0.0
 11
-0.9999999999999982
 21
4.0
 31
0.0
  0
ENDBLK
  5
62
100
AcDbEntity
  8
0
100
AcDbBlockEnd
  0
ENDSEC
  0
SECTION
  2
ENTITIES
  0
LINE
  5
63
100
AcDbEntity
100
AcDbLine
  8
0
 62
9
420
12632256
370
-1
  6
BYLAYER
 10
14.1999999999999975
 20
104.0
 30
0.0
 11
14.1999999999999975
 21
106.0
 31
0.0
  0
LINE
  5
64
100
AcDbEntity
100
AcDbLine
  8
0
 62
9
420
12632256
370
-1
  6
BYLAYER
 10
10.1999999999999993
 20
104.0
 30
0.0
 11
10.1999999999999993
 21
106.0
 31
0.0
  0
LINE
  5
65
100
AcDbEntity
100
AcDbLine
  8
0
 62
256
370
-1
  6
DOT2
 10
11.2999999999999989
 20
104.0
 30
0.0
 11
11.2999999999999989
 21
94.0
 31
0.0
  0
LINE
  5
66
100
AcDbEntity
100
AcDbLine
  8
0
 62
256
370
-1
  6
BYLAYER
 10
11.2999999999999989
 20
106.0
 30
0.0
 11
13.2999999999999989
 21
106.0
 31
0.0
  0
LINE
  5
67
100
AcDbEntity
100
AcDbLine
  8
0
 62
256
370
-1
  6
DOT2
 10
13.2999999999999989
 20
106.0
 30
0.0
 11
13.2999999999999989
 21
111.0
 31
0.0
  0
LINE
  5
68
100
AcDbEntity
100
AcDbLine
  8
0
 62
256
370
-1
  6
DOT2
 10
13.2999999999999989
 20
111.0
 30
0.0
 11
11.2999999999999989
 21
111.0
 31
0.0
  0
LINE
  5
69
100
AcDbEntity
100
AcDbLine
  8
0
 62
256
370
-1
  6
DOT2
 10
11.2999999999999989
 20
111.0
 30
0.0
 11
11.2999999999999989
 21
106.0
 31
0.0
  0
LINE
  5
6A
100
AcDbEntity
100
AcDbLine
  8
0
 62
256
370
-1
  6
BYLAYER
 10
15.7999999999999989
 20
100.0
 30
0.0
 11
15.7999999999999989
 21
106.0
 31
0.0
  0
LINE
  5
6B
100
AcDbEntity
100
AcDbLine
  8
0
 62
256
370
-1
  6
BYLAYER
 10
15.7999999999999989
 20
106.0
 30
0.0
 11
8.8000000000000007
 21
106.0
 31
0.0
  0
LINE
  5
6C
100
AcDbEntity
100
AcDbLine
  8
0
 62
256
370
-1
  6
BYLAYER
 10
8.8000000000000007
 20
106.0
 30
0.0
 11
8.8000000000000007
 21
100.0
 31
0.0
  0
LINE
  5
6D
100
AcDbEntity
100
AcDbLine
  8
0
 62
256
370
-1
  6
BYLAYER
 10
15.4749999999999996
 20
106.0
 30
0.0
 11
9.125
 21
106.0
 31
0.0
  0
LINE
  5
6E
100
AcDbEntity
100
AcDbLine
  8
0
 62
256
370
-1
  6
BYLAYER
 10
8.7999999999999989
 20
104.0
 30
0.0
 11
15.7999999999999989
 21
104.0
 31
0.0
  0
LINE
  5
6F
100
AcDbEntity
100
AcDbLine
  8
0
 62
256
370
-1
  6
BYLAYER
 10
10.1999999999999993
 20
106.0
 30
0.0
 11
10.1999999999999993
 21
106.0
 31
0.0
  0
LINE
  5
70
100
AcDbEntity
100
AcDbLine
  8
0
 62
256
370
-1
  6
BYLAYER
 10
14.1999999999999975
 20
106.0
 30
0.0
 11
14.1999999999999975
 21
106.0
 31
0.0
  0
LINE
  5
71
100
AcDbEntity
100
AcDbLine
  8
0
 62
256
370
-1
  6
BYLAYER
 10
9.3000000000000007
 20
94.0
 30
0.0
 11
15.2999999999999989
 21
94.0
 31
0.0
  0
LINE
  5
72
100
AcDbEntity
100
AcDbLine
  8
0
 62
256
370
-1
  6
BYLAYER
 10
15.2999999999999989
 20
94.0
 30
0.0
 11
15.2999999999999989
 21
104.0
 31
0.0
  0
LINE
  5
73
100
AcDbEntity
100
AcDbLine
  8
0
 62
256
370
-1
  6
BYLAYER
 10
15.2999999999999989
 20
104.0
 30
0.0
 11
9.3000000000000007
 21
104.0
 31
0.0
  0
LINE
  5
74
100
AcDbEntity
100
AcDbLine
  8
0
 62
256
370
-1
  6
BYLAYER
 10
9.3000000000000007
 20
104.0
 30
0.0
 11
9.3000000000000007
 21
94.0
 31
0.0
  0
LINE
  5
75
100
AcDbEntity
100
AcDbLine
  8
0
 62
256
370
-1
  6
DOT2
 10
13.2999999999999989
 20
94.0
 30
0.0
 11
13.2999999999999989
 21
104.0
 31
0.0
  0
LINE
  5
76
100
AcDbEntity
100
AcDbLine
  8
0
 62
256
370
-1
  6
BYLAYER
 10
13.2999999999999989
 20
104.0
 30
0.0
 11
11.2999999999999989
 21
104.0
 31
0.0
  0
LINE
  5
77
100
AcDbEntity
100
AcDbLine
  8
0
 62
256
370
-1
  6
DOT2
 10
3.0
 20
112.0
 30
0.0
 11
31.9680550879952534
 21
112.0359747085488209
 31
0.0
  0
LINE
  5
78
100
AcDbEntity
100
AcDbLine
  8
0
 62
256
370
-1
  6
DOT2
 10
32.0
 20
119.9999999999999147
 30
0.0
 11
5.0
 21
120.0
 31
0.0
  0
LINE
  5
79
100
AcDbEntity
100
AcDbLine
  8
0
 62
256
370
-1
  6
BYLAYER
 10
0.0
 20
100.0
 30
0.0
 11
50.0
 21
100.0
 31
0.0
  0
LINE
  5
7A
100
AcDbEntity
100
AcDbLine
  8
0
 62
256
370
-1
  6
BYLAYER
 10
47.0
 20
100.0
 30
0.0
 11
47.0
 21
100.0
 31
0.0
  0
LINE
  5
7B
100
AcDbEntity
100
AcDbLine
  8
0
 62
256
370
-1
  6
BYLAYER
 10
21.8999999999999986
 20
100.0
 30
0.0
 11
21.8999999999999986
 21
100.0
 31
0.0
  0
LINE
  5
7C
100
AcDbEntity
100
AcDbLine
  8
0
 62
256
370
-1
  6
BYLAYER
 10
21.8999999999999986
 20
103.1800000000000068
 30
0.0
 11
21.8999999999999986
 21
103.1800000000000068
 31
0.0
  0
LINE
  5
7D
100
AcDbEntity
100
AcDbLine
  8
0
 62
256
370
-1
  6
DOT2
 10
18.0
 20
120.0
 30
0.0
 11
18.0
 21
120.9999999999999858
 31
0.0
  0
LINE
  5
7E
100
AcDbEntity
100
AcDbLine
  8
0
 62
256
370
-1
  6
BYLAYER
 10
32.0
 20
117.0
 30
0.0
 11
32.0
 21
117.0
 31
0.0
  0
SPLINE
  5
7F
  8
0
 62
256
370
-1
  6
BYLAYER
100
AcDbEntity
100
AcDbSpline
 70
8
 71
3
 72
17
 73
13
 74
0
 40
0.0
 40
0.0
 40
0.0
 40
0.0
 40
1.0
 40
2.0
 40
3.0
 40
4.0
 40
5.0
 40
6.0
 40
7.0
 40
8.0
 40
9.0
 40
10.0
 40
10.0
 40
10.0
 40
10.0
 10
1.0
 20
99.9999999999999147
 30
0.0
 10
1.0
 20
111.9999999999999147
 30
0.0
 10
2.0
 20
124.9999999999999147
 30
0.0
 10
7.0
 20
126.9999999999999147
 30
0.0
 10
22.0
 20
126.9999999999999147
 30
0.0
 10
35.0
 20
121.9999999999999147
 30
0.0
 10
39.0
 20
116.9999999999999147
 30
0.0
 10
45.0
 20
108.9999999999999147
 30
0.0
 10
49.0
 20
99.9999999999999147
 30
0.0
 10
49.0
 20
99.9999999999999147
 30
0.0
 10
49.0
 20
99.9999999999999147
 30
0.0
 10
49.0
 20
99.9999999999999147
 30
0.0
 10
49.0
 20
99.9999999999999147
 30
0.0
  0
SPLINE
  5
80
  8
0
 62
256
370
-1
  6
DOT2
100
AcDbEntity
100
AcDbSpline
 70
8
 71
3
 72
9
 73
5
 74
0
 40
0.0
 40
0.0
 40
0.0
 40
0.0
 40
1.0
 40
2.0
 40
2.0
 40
2.0
 40
2.0
 10
18.0
 20
120.9999999999999858
 30
0.0
 10
28.0
 20
120.9999999999999147
 30
0.0
 10
32.0
 20
120.9999999999999147
 30
0.0
 10
32.0
 20
117.0
 30
0.0
 10
32.0
 20
100.0
 30
0.0
  0
LINE
  5
81
100
AcDbEntity
100
AcDbLine
  8
0
 62
256
370
-1
  6
BYLAYER
 10
69.9000000000000057
 20
99.9999999999999005
 30
0.0
 11
97.0000000000000284
 21
99.999999999999801
 31
0.0
  0
CIRCLE
  5
82
100
AcDbEntity
100
AcDbCircle
  8
0
 62
256
370
-1
  6
BYLAYER
 10
83.0
 20
115.9999999999999147
 30
0.0
 40
4.0
  0
LINE
  5
83
100
AcDbEntity
100
AcDbLine
  8
0
 62
256
370
-1
  6
BYLAYER
 10
0.0
 20
100.0
 30
0.0
 11
0.0
 21
129.9999999999999147
 31
0.0
  0
LINE
  5
84
100
AcDbEntity
100
AcDbLine
  8
0
 62
256
370
-1
  6
BYLAYER
 10
0.0
 20
129.9999999999999147
 30
0.0
 11
50.0
 21
129.9999999999999147
 31
0.0
  0
LINE
  5
85
100
AcDbEntity
100
AcDbLine
  8
0
 62
256
370
-1
  6
BYLAYER
 10
50.0
 20
129.9999999999999147
 30
0.0
 11
50.0
 21
100.0
 31
0.0
  0
LINE
  5
86
100
AcDbEntity
100
AcDbLine
  8
0
 62
256
370
-1
  6
BYLAYER
 10
47.0
 20
100.0
 30
0.0
 11
47.0
 21
100.0
 31
0.0
  0
LINE
  5
87
100
AcDbEntity
100
AcDbLine
  8
0
 62
256
370
-1
  6
BYLAYER
 10
69.9000000000000057
 20
99.9999999999999005
 30
0.0
 11
69.9000000000000057
 21
129.9999999999998863
 31
0.0
  0
LINE
  5
88
100
AcDbEntity
100
AcDbLine
  8
0
 62
256
370
-1
  6
BYLAYER
 10
96.9000000000000057
 20
129.9999999999998863
 30
0.0
 11
96.9000000000000057
 21
99.9999999999998863
 31
0.0
  0
LINE
  5
89
100
AcDbEntity
100
AcDbLine
  8
0
 62
256
370
-1
  6
BYLAYER
 10
94.0
 20
99.9999999999999147
 30
0.0
 11
94.0
 21
100.0000000000000426
 31
0.0
  0
DIMENSION
  5
8A
100
AcDbEntity
  8
0
 62
256
370
-1
  6
BYLAYER
100
AcDbDimension
 10
12.2999999999999972
 20
90.0
 30
0.0
 11
25.0
 21
91.875
 31
0.0
 70
1
 71
8
 72
2
 41
1.0
 42
0.0
  1

  3
Standard
100
AcDbAlignedDimension
 13
12.2999999999999972
 23
93.0
 33
0.0
 14
37.7000000000000028
 24
93.0
 34
0.0
1001
ACAD
1000
DSTYLE
1002
{
1070
144
1040
1
1002
}
  0
DIMENSION
  5
8B
100
AcDbEntity
  8
0
 62
256
370
-1
  6
BYLAYER
100
AcDbDimension
 10
-3.0
 20
120.0
 30
0.0
 11
-4.8749999999999964
 21
128.7152777777777715
 31
0.0
 70
1
 71
8
 72
2
 41
1.0
 42
0.0
  1
5/16" Drill
  3
Standard
100
AcDbAlignedDimension
 13
6.0
 23
120.0
 33
0.0
 14
6.0
 24
112.0
 34
0.0
1001
ACAD
1000
DSTYLE
1002
{
1070
144
1040
1
1002
}
  0
LINE
  5
8C
100
AcDbEntity
100
AcDbLine
  8
0
 62
256
370
-1
  6
BYLAYER
 10
3.0
 20
112.0
 30
0.0
 11
3.0
 21
120.0
 31
0.0
  0
DIMENSION
  5
8D
100
AcDbEntity
  8
0
 62
256
370
-1
  6
BYLAYER
100
AcDbDimension
 10
-1.0
 20
100.0
 30
0.0
 11
-2.875
 21
108.0
 31
0.0
 70
1
 71
8
 72
2
 41
1.0
 42
0.0
  1

  3
Standard
100
AcDbAlignedDimension
 13
3.0
 23
100.0
 33
0.0
 14
3.0
 24
116.0
 34
0.0
1001
ACAD
1000
DSTYLE
1002
{
1070
144
1040
1
1002
}
  0
DIMENSION
  5
8E
100
AcDbEntity
  8
0
 62
256
370
-1
  6
BYLAYER
100
AcDbDimension
 10
26.0
 20
100.0
 30
0.0
 11
24.125
 21
105.5
 31
0.0
 70
1
 71
8
 72
2
 41
1.0
 42
0.0
  1

  3
Standard
100
AcDbAlignedDimension
 13
12.2999999999999972
 23
100.0
 33
0.0
 14
12.2999999999999989
 24
111.0
 34
0.0
1001
ACAD
1000
DSTYLE
1002
{
1070
144
1040
1
1002
}
  0
DIMENSION
  5
8F
100
AcDbEntity
  8
0
 62
256
370
-1
  6
BYLAYER
100
AcDbDimension
 10
12.2999999999999972
 20
90.0
 30
0.0
 11
6.1499999999999977
 21
91.875
 31
0.0
 70
1
 71
8
 72
2
 41
1.0
 42
0.0
  1

  3
Standard
100
AcDbAlignedDimension
 13
12.2999999999999989
 23
104.0
 33
0.0
 14
0.0
 24
104.0
 34
0.0
1001
ACAD
1000
DSTYLE
1002
{
1070
144
1040
1
1002
}
  0
DIMENSION
  5
90
100
AcDbEntity
  8
0
 62
256
370
-1
  6
BYLAYER
100
AcDbDimension
 10
29.9999999999999964
 20
106.0
 30
0.0
 11
28.125
 21
103.0
 31
0.0
 70
1
 71
8
 72
2
 41
1.0
 42
0.0
  1

  3
Standard
100
AcDbAlignedDimension
 13
34.2000000000000028
 23
106.0
 33
0.0
 14
34.2000000000000099
 24
100.0
 34
0.0
1001
ACAD
1000
DSTYLE
1002
{
1070
144
1040
1
1002
}
  0
LINE
  5
91
100
AcDbEntity
100
AcDbLine
  8
0
 62
256
370
-1
  6
DOT2
 10
38.7000000000000028
 20
94.0
 30
0.0
 11
38.7000000000000028
 21
104.0
 31
0.0
  0
LINE
  5
92
100
AcDbEntity
100
AcDbLine
  8
0
 62
256
370
-1
  6
BYLAYER
 10
38.7000000000000028
 20
104.0
 30
0.0
 11
36.7000000000000028
 21
104.0
 31
0.0
  0
LINE
  5
93
100
AcDbEntity
100
AcDbLine
  8
0
 62
256
370
-1
  6
DOT2
 10
36.7000000000000028
 20
104.0
 30
0.0
 11
36.7000000000000028
 21
94.0
 31
0.0
  0
LINE
  5
94
100
AcDbEntity
100
AcDbLine
  8
0
 62
256
370
-1
  6
BYLAYER
 10
36.7000000000000028
 20
106.0
 30
0.0
 11
38.7000000000000028
 21
106.0
 31
0.0
  0
LINE
  5
95
100
AcDbEntity
100
AcDbLine
  8
0
 62
256
370
-1
  6
DOT2
 10
38.7000000000000028
 20
106.0
 30
0.0
 11
38.7000000000000028
 21
111.0
 31
0.0
  0
LINE
  5
96
100
AcDbEntity
100
AcDbLine
  8
0
 62
256
370
-1
  6
DOT2
 10
38.7000000000000028
 20
111.0
 30
0.0
 11
36.7000000000000028
 21
111.0
 31
0.0
  0
LINE
  5
97
100
AcDbEntity
100
AcDbLine
  8
0
 62
256
370
-1
  6
DOT2
 10
36.7000000000000028
 20
111.0
 30
0.0
 11
36.7000000000000028
 21
106.0
 31
0.0
  0
LINE
  5
98
100
AcDbEntity
100
AcDbLine
  8
0
 62
256
370
-1
  6
BYLAYER
 10
41.2000000000000028
 20
100.0
 30
0.0
 11
41.2000000000000028
 21
106.0
 31
0.0
  0
LINE
  5
99
100
AcDbEntity
100
AcDbLine
  8
0
 62
256
370
-1
  6
BYLAYER
 10
41.2000000000000028
 20
106.0
 30
0.0
 11
34.2000000000000028
 21
106.0
 31
0.0
  0
LINE
  5
9A
100
AcDbEntity
100
AcDbLine
  8
0
 62
256
370
-1
  6
BYLAYER
 10
34.2000000000000028
 20
106.0
 30
0.0
 11
34.2000000000000028
 21
100.0
 31
0.0
  0
LINE
  5
9B
100
AcDbEntity
100
AcDbLine
  8
0
 62
256
370
-1
  6
BYLAYER
 10
40.8750000000000071
 20
106.0
 30
0.0
 11
34.5250000000000057
 21
106.0
 31
0.0
  0
LINE
  5
9C
100
AcDbEntity
100
AcDbLine
  8
0
 62
256
370
-1
  6
BYLAYER
 10
34.2000000000000028
 20
104.0
 30
0.0
 11
41.2000000000000028
 21
104.0
 31
0.0
  0
LINE
  5
9D
100
AcDbEntity
100
AcDbLine
  8
0
 62
9
420
12632256
370
-1
  6
BYLAYER
 10
35.6000000000000085
 20
104.0
 30
0.0
 11
35.6000000000000085
 21
106.0
 31
0.0
  0
LINE
  5
9E
100
AcDbEntity
100
AcDbLine
  8
0
 62
256
370
-1
  6
BYLAYER
 10
35.6000000000000085
 20
106.0
 30
0.0
 11
35.6000000000000014
 21
106.0
 31
0.0
  0
LINE
  5
9F
100
AcDbEntity
100
AcDbLine
  8
0
 62
9
420
12632256
370
-1
  6
BYLAYER
 10
39.6000000000000014
 20
104.0
 30
0.0
 11
39.6000000000000014
 21
106.0
 31
0.0
  0
LINE
  5
A0
100
AcDbEntity
100
AcDbLine
  8
0
 62
256
370
-1
  6
BYLAYER
 10
39.6000000000000014
 20
106.0
 30
0.0
 11
39.6000000000000014
 21
106.0
 31
0.0
  0
LINE
  5
A1
100
AcDbEntity
100
AcDbLine
  8
0
 62
256
370
-1
  6
BYLAYER
 10
34.7000000000000028
 20
94.0
 30
0.0
 11
40.7000000000000028
 21
94.0
 31
0.0
  0
LINE
  5
A2
100
AcDbEntity
100
AcDbLine
  8
0
 62
256
370
-1
  6
BYLAYER
 10
40.7000000000000028
 20
94.0
 30
0.0
 11
40.7000000000000028
 21
104.0
 31
0.0
  0
LINE
  5
A3
100
AcDbEntity
100
AcDbLine
  8
0
 62
256
370
-1
  6
BYLAYER
 10
40.7000000000000028
 20
104.0
 30
0.0
 11
34.7000000000000028
 21
104.0
 31
0.0
  0
LINE
  5
A4
100
AcDbEntity
100
AcDbLine
  8
0
 62
256
370
-1
  6
BYLAYER
 10
34.7000000000000028
 20
104.0
 30
0.0
 11
34.7000000000000028
 21
94.0
 31
0.0
  0
DIMENSION
  5
A5
100
AcDbEntity
  8
0
 62
256
370
-1
  6
BYLAYER
100
AcDbDimension
 10
52.0
 20
104.0
 30
0.0
 11
50.125
 21
99.0
 31
0.0
 70
1
 71
8
 72
2
 41
1.0
 42
0.0
  1

  3
Standard
100
AcDbAlignedDimension
 13
40.7000000000000028
 23
104.0
 33
0.0
 14
40.7000000000000028
 24
94.0
 34
0.0
1001
ACAD
1000
DSTYLE
1002
{
1070
144
1040
1
1002
}
  0
LINE
  5
A6
100
AcDbEntity
100
AcDbLine
  8
0
 62
256
370
-1
  6
BYLAYER
 10
96.9000000000000057
 20
129.9999999999998295
 30
0.0
 11
69.9000000000000057
 21
129.9999999999998863
 31
0.0
  0
DIMENSION
  5
A7
100
AcDbEntity
  8
0
 62
256
370
-1
  6
BYLAYER
100
AcDbDimension
 10
36.7000000000000028
 20
131.0
 30
0.0
 11
46.44305555555556
 21
132.875
 31
0.0
 70
1
 71
8
 72
2
 41
1.0
 42
0.0
  1
1/8" Drill
  3
Standard
100
AcDbAlignedDimension
 13
36.7000000000000028
 23
111.0
 33
0.0
 14
38.7000000000000028
 24
111.0
 34
0.0
1001
ACAD
1000
DSTYLE
1002
{
1070
144
1040
1
1002
}
  0
DIMENSION
  5
A8
100
AcDbEntity
  8
0
 62
256
370
-1
  6
BYLAYER
100
AcDbDimension
 10
8.8000000000000025
 20
130.0
 30
0.0
 11
13.0
 21
133.0
 31
0.0
 70
129
 71
8
 72
2
 41
1.0
 42
0.0
  1
17/64" Drill
  3
Standard
100
AcDbAlignedDimension
 13
8.8000000000000007
 23
106.0
 33
0.0
 14
15.7999999999999989
 24
106.0
 34
0.0
1001
ACAD
1000
DSTYLE
1002
{
1070
144
1040
1
1002
}
  0
DIMENSION
  5
A9
100
AcDbEntity
  8
0
 62
256
370
-1
  6
BYLAYER
100
AcDbDimension
 10
102.0000000000000568
 20
115.9999999999998437
 30
0.0
 11
100.1250000000000284
 21
107.9999999999998153
 31
0.0
 70
1
 71
8
 72
2
 41
1.0
 42
0.0
  1

  3
Standard
100
AcDbAlignedDimension
 13
83.0
 23
115.9999999999999147
 33
0.0
 14
82.9999999999999432
 24
99.9999999999998579
 34
0.0
1001
ACAD
1000
DSTYLE
1002
{
1070
144
1040
1
1002
}
  0
MTEXT
  5
AA
100
AcDbEntity
100
AcDbMText
  8
0
 62
256
370
-1
  6
BYLAYER
 10
53.0
 20
139.9999999999999147
 30
0.0
 40
2.5
 41
0.0
 71
1
 72
1
  1
Single ended lug design
  7
textstyle0
 50
0.0
 73
2
 44
1.0
  0
LINE
  5
AB
100
AcDbEntity
100
AcDbLine
  8
0
 62
256
370
-1
  6
DOT2
 10
18.0
 20
111.9999999999999147
 30
0.0
 11
18.0
 21
100.0
 31
0.0
  0
DIMENSION
  5
AC
100
AcDbEntity
  8
0
 62
256
370
-1
  6
BYLAYER
100
AcDbDimension
 10
2.9999999999999991
 20
115.9999999999999858
 30
0.0
 11
17.5
 21
117.8749999999999432
 31
0.0
 70
1
 71
8
 72
2
 41
1.0
 42
0.0
  1

  3
Standard
100
AcDbAlignedDimension
 13
3.0
 23
120.0
 33
0.0
 14
32.0
 24
119.9999999999999147
 34
0.0
1001
ACAD
1000
DSTYLE
1002
{
1070
144
1040
1
1002
}
  0
DIMENSION
  5
AD
100
AcDbEntity
  8
0
 62
256
370
-1
  6
BYLAYER
100
AcDbDimension
 10
0.0000000000000049
 20
139.9999999999999432
 30
0.0
 11
25.0000000000000036
 21
141.8749999999999432
 31
0.0
 70
1
 71
8
 72
2
 41
1.0
 42
0.0
  1

  3
Standard
100
AcDbAlignedDimension
 13
0.0000000000000018
 23
129.9999999999999432
 33
0.0
 14
50.0
 24
129.9999999999999147
 34
0.0
1001
ACAD
1000
DSTYLE
1002
{
1070
144
1040
1
1002
}
  0
DIMENSION
  5
AE
100
AcDbEntity
  8
0
 62
256
370
-1
  6
BYLAYER
100
AcDbDimension
 10
61.9000000000000199
 20
99.9999999999998863
 30
0.0
 11
60.0250000000000199
 21
114.9999999999998863
 31
0.0
 70
1
 71
8
 72
2
 41
1.0
 42
0.0
  1

  3
Standard
100
AcDbAlignedDimension
 13
69.9000000000000057
 23
99.9999999999998863
 33
0.0
 14
69.9000000000000057
 24
129.9999999999998863
 34
0.0
1001
ACAD
1000
DSTYLE
1002
{
1070
144
1040
1
1002
}
  0
MTEXT
  5
AF
100
AcDbEntity
100
AcDbMText
  8
0
 62
256
370
-1
  6
BYLAYER
 10
-7.0
 20
9.9999999999999147
 30
0.0
 40
2.5
 41
0.0
 71
1
 72
1
  3
Construction Steps:\P1) Cut sides + center to square size\P2) Cut inside recess on center using "center cutouts" template.  Keep cutouts.\P3) Glue all three layers together\P4) Drill 1/8" holes to 10mm depth\P5) Drill 17/64" holes to 6mm depth.\P6) P
  3
ut cutout back in center.  Drill 5/16"swivel nut hole to 29mm depth.\P7) Cut side profile using "side profile" template.\P8) Cut front profile on table saw with blade set to 10 degrees.\P9) Sand slightly rounded underside profile by wrapping sand pap
  3
er around a cylinder.\P10) Sand all tooling marks off, and then sand to at least 220 grit paper.\P11) Cut 1/4" dowel to length.  Drill center in jig.\P12) Using 1/2" #4 screws,attach nuts to dowels.\P13) Glue dowel in holes with nut in first.  Use pl
  3
enty of glue.  Verify alignment before glue sets.\P14) After glue is completely dry (24 hours), remove the screws.  The lugs are now ready!\P\P\PIMPORTANT: All measurements and drill sizes may differ between drums.  Be sure\Pto measure your own stuff
  1
, and don't just take these values as gospel.\P\PIt is a good idea to make a couple extras in case stuff happens.  I made 2 extra\PArariba lugs and one extra Walnut; I ended up with only one of each.
  7
textstyle1
 50
0.0
 73
2
 44
1.0
  0
LINE
  5
B0
100
AcDbEntity
100
AcDbLine
  8
0
 62
256
370
-1
  6
DOT2
 10
84.0
 20
93.9999999999999147
 30
0.0
 11
84.0
 21
103.9999999999999147
 31
0.0
  0
LINE
  5
B1
100
AcDbEntity
100
AcDbLine
  8
0
 62
256
370
-1
  6
BYLAYER
 10
84.0
 20
103.9999999999999147
 30
0.0
 11
82.0
 21
103.9999999999999147
 31
0.0
  0
LINE
  5
B2
100
AcDbEntity
100
AcDbLine
  8
0
 62
256
370
-1
  6
DOT2
 10
82.0
 20
103.9999999999999147
 30
0.0
 11
82.0
 21
93.9999999999999147
 31
0.0
  0
LINE
  5
B3
100
AcDbEntity
100
AcDbLine
  8
0
 62
256
370
-1
  6
BYLAYER
 10
82.0
 20
105.9999999999999147
 30
0.0
 11
84.0
 21
105.9999999999999147
 31
0.0
  0
LINE
  5
B4
100
AcDbEntity
100
AcDbLine
  8
0
 62
256
370
-1
  6
DOT2
 10
84.0
 20
105.9999999999999147
 30
0.0
 11
84.0
 21
110.9999999999999147
 31
0.0
  0
LINE
  5
B5
100
AcDbEntity
100
AcDbLine
  8
0
 62
256
370
-1
  6
DOT2
 10
84.0
 20
110.9999999999999147
 30
0.0
 11
82.0
 21
110.9999999999999147
 31
0.0
  0
LINE
  5
B6
100
AcDbEntity
100
AcDbLine
  8
0
 62
256
370
-1
  6
DOT2
 10
82.0
 20
110.9999999999999147
 30
0.0
 11
82.0
 21
105.9999999999999147
 31
0.0
  0
LINE
  5
B7
100
AcDbEntity
100
AcDbLine
  8
0
 62
256
370
-1
  6
BYLAYER
 10
86.5
 20
99.9999999999999147
 30
0.0
 11
86.5
 21
105.9999999999999147
 31
0.0
  0
LINE
  5
B8
100
AcDbEntity
100
AcDbLine
  8
0
 62
256
370
-1
  6
BYLAYER
 10
86.5
 20
105.9999999999999147
 30
0.0
 11
79.5
 21
105.9999999999999147
 31
0.0
  0
LINE
  5
B9
100
AcDbEntity
100
AcDbLine
  8
0
 62
256
370
-1
  6
BYLAYER
 10
79.5
 20
105.9999999999999147
 30
0.0
 11
79.5
 21
99.9999999999999147
 31
0.0
  0
LINE
  5
BA
100
AcDbEntity
100
AcDbLine
  8
0
 62
256
370
-1
  6
BYLAYER
 10
86.1750000000000114
 20
105.9999999999999147
 30
0.0
 11
79.8250000000000028
 21
105.9999999999999147
 31
0.0
  0
LINE
  5
BB
100
AcDbEntity
100
AcDbLine
  8
0
 62
256
370
-1
  6
BYLAYER
 10
79.5
 20
103.9999999999999147
 30
0.0
 11
86.5
 21
103.9999999999999147
 31
0.0
  0
LINE
  5
BC
100
AcDbEntity
100
AcDbLine
  8
0
 62
9
420
12632256
370
-1
  6
BYLAYER
 10
80.9000000000000057
 20
103.9999999999999147
 30
0.0
 11
80.9000000000000057
 21
105.9999999999999147
 31
0.0
  0
LINE
  5
BD
100
AcDbEntity
100
AcDbLine
  8
0
 62
256
370
-1
  6
BYLAYER
 10
80.9000000000000057
 20
105.9999999999999147
 30
0.0
 11
80.9000000000000057
 21
105.9999999999999147
 31
0.0
  0
LINE
  5
BE
100
AcDbEntity
100
AcDbLine
  8
0
 62
9
420
12632256
370
-1
  6
BYLAYER
 10
84.9000000000000057
 20
103.9999999999999147
 30
0.0
 11
84.9000000000000057
 21
105.9999999999999147
 31
0.0
  0
LINE
  5
BF
100
AcDbEntity
100
AcDbLine
  8
0
 62
256
370
-1
  6
BYLAYER
 10
84.9000000000000057
 20
105.9999999999999147
 30
0.0
 11
84.9000000000000057
 21
105.9999999999999147
 31
0.0
  0
LINE
  5
C0
100
AcDbEntity
100
AcDbLine
  8
0
 62
256
370
-1
  6
BYLAYER
 10
80.0
 20
93.9999999999999147
 30
0.0
 11
86.0
 21
93.9999999999999147
 31
0.0
  0
LINE
  5
C1
100
AcDbEntity
100
AcDbLine
  8
0
 62
256
370
-1
  6
BYLAYER
 10
86.0
 20
93.9999999999999147
 30
0.0
 11
86.0
 21
103.9999999999999147
 31
0.0
  0
LINE
  5
C2
100
AcDbEntity
100
AcDbLine
  8
0
 62
256
370
-1
  6
BYLAYER
 10
86.0
 20
103.9999999999999147
 30
0.0
 11
80.0
 21
103.9999999999999147
 31
0.0
  0
LINE
  5
C3
100
AcDbEntity
100
AcDbLine
  8
0
 62
256
370
-1
  6
BYLAYER
 10
80.0
 20
103.9999999999999147
 30
0.0
 11
80.0
 21
93.9999999999999147
 31
0.0
  0
DIMENSION
  5
C4
100
AcDbEntity
  8
0
 62
256
370
-1
  6
BYLAYER
100
AcDbDimension
 10
52.0
 20
34.0
 30
0.0
 11
50.125
 21
29.0
 31
0.0
 70
1
 71
8
 72
2
 41
1.0
 42
0.0
  1

  3
Standard
100
AcDbAlignedDimension
 13
40.7000000000000028
 23
34.0
 33
0.0
 14
40.7000000000000028
 24
24.0
 34
0.0
1001
ACAD
1000
DSTYLE
1002
{
1070
144
1040
1
1002
}
  0
DIMENSION
  5
C5
100
AcDbEntity
  8
0
 62
256
370
-1
  6
BYLAYER
100
AcDbDimension
 10
0.0000000000000056
 20
69.9999999999999432
 30
0.0
 11
25.0000000000000036
 21
71.8749999999999289
 31
0.0
 70
1
 71
8
 72
2
 41
1.0
 42
0.0
  1

  3
Standard
100
AcDbAlignedDimension
 13
0.0000000000000025
 23
59.9999999999999432
 33
0.0
 14
50.0
 24
59.9999999999999147
 34
0.0
1001
ACAD
1000
DSTYLE
1002
{
1070
144
1040
1
1002
}
  0
LINE
  5
C6
100
AcDbEntity
100
AcDbLine
  8
0
 62
256
370
-1
  6
BYLAYER
 10
96.9000000000000057
 20
59.9999999999998295
 30
0.0
 11
69.9000000000000057
 21
59.9999999999998863
 31
0.0
  0
DIMENSION
  5
C7
100
AcDbEntity
  8
0
 62
256
370
-1
  6
BYLAYER
100
AcDbDimension
 10
61.9000000000000199
 20
29.9999999999998863
 30
0.0
 11
60.0250000000000199
 21
44.9999999999998863
 31
0.0
 70
1
 71
8
 72
2
 41
1.0
 42
0.0
  1

  3
Standard
100
AcDbAlignedDimension
 13
69.9000000000000057
 23
29.9999999999998863
 33
0.0
 14
69.9000000000000057
 24
59.9999999999998863
 34
0.0
1001
ACAD
1000
DSTYLE
1002
{
1070
144
1040
1
1002
}
  0
DIMENSION
  5
C8
100
AcDbEntity
  8
0
 62
256
370
-1
  6
BYLAYER
100
AcDbDimension
 10
36.7000000000000028
 20
61.0
 30
0.0
 11
46.44305555555556
 21
62.875
 31
0.0
 70
1
 71
8
 72
2
 41
1.0
 42
0.0
  1
1/8" Drill
  3
Standard
100
AcDbAlignedDimension
 13
36.7000000000000028
 23
41.0
 33
0.0
 14
38.7000000000000028
 24
41.0
 34
0.0
1001
ACAD
1000
DSTYLE
1002
{
1070
144
1040
1
1002
}
  0
DIMENSION
  5
C9
100
AcDbEntity
  8
0
 62
256
370
-1
  6
BYLAYER
100
AcDbDimension
 10
102.0000000000000568
 20
43.9999999999999005
 30
0.0
 11
100.1250000000000284
 21
36.9999999999998437
 31
0.0
 70
1
 71
8
 72
2
 41
1.0
 42
0.0
  1

  3
Standard
100
AcDbAlignedDimension
 13
83.0
 23
43.9999999999999929
 33
0.0
 14
82.9999999999999432
 24
29.9999999999998579
 34
0.0
1001
ACAD
1000
DSTYLE
1002
{
1070
144
1040
1
1002
}
  0
MTEXT
  5
CA
100
AcDbEntity
100
AcDbMText
  8
0
 62
256
370
-1
  6
BYLAYER
 10
53.0
 20
69.9999999999999147
 30
0.0
 40
2.5
 41
0.0
 71
1
 72
1
  1
Double ended lug design
  7
textstyle2
 50
0.0
 73
2
 44
1.0
  0
LINE
  5
CB
100
AcDbEntity
100
AcDbLine
  8
0
 62
256
370
-1
  6
DOT2
 10
3.0000000000000009
 20
40.0
 30
0.0
 11
17.0
 21
40.0
 31
0.0
  0
LINE
  5
CC
100
AcDbEntity
100
AcDbLine
  8
0
 62
256
370
-1
  6
DOT2
 10
17.0
 20
48.0000000000000213
 30
0.0
 11
0.0000000000000009
 21
48.0
 31
0.0
  0
LINE
  5
CD
100
AcDbEntity
100
AcDbLine
  8
0
 62
256
370
-1
  6
BYLAYER
 10
0.0000000000000007
 20
30.0
 30
0.0
 11
50.0
 21
30.0
 31
0.0
  0
LINE
  5
CE
100
AcDbEntity
100
AcDbLine
  8
0
 62
256
370
-1
  6
BYLAYER
 10
47.0
 20
30.0
 30
0.0
 11
47.0
 21
30.0
 31
0.0
  0
LINE
  5
CF
100
AcDbEntity
100
AcDbLine
  8
0
 62
256
370
-1
  6
BYLAYER
 10
21.8999999999999986
 20
30.0
 30
0.0
 11
21.8999999999999986
 21
30.0
 31
0.0
  0
LINE
  5
D0
100
AcDbEntity
100
AcDbLine
  8
0
 62
256
370
-1
  6
BYLAYER
 10
21.8999999999999986
 20
33.1800000000000068
 30
0.0
 11
21.8999999999999986
 21
33.1800000000000068
 31
0.0
  0
LINE
  5
D1
100
AcDbEntity
100
AcDbLine
  8
0
 62
256
370
-1
  6
DOT2
 10
17.0
 20
48.0000000000000213
 30
0.0
 11
17.0
 21
49.0000000000000071
 31
0.0
  0
LINE
  5
D2
100
AcDbEntity
100
AcDbLine
  8
0
 62
256
370
-1
  6
BYLAYER
 10
32.0
 20
47.0
 30
0.0
 11
32.0
 21
47.0
 31
0.0
  0
LINE
  5
D3
100
AcDbEntity
100
AcDbLine
  8
0
 62
256
370
-1
  6
BYLAYER
 10
69.9000000000000057
 20
29.9999999999999005
 30
0.0
 11
97.0000000000000284
 21
29.999999999999801
 31
0.0
  0
CIRCLE
  5
D4
100
AcDbEntity
100
AcDbCircle
  8
0
 62
256
370
-1
  6
BYLAYER
 10
83.0
 20
43.9999999999999929
 30
0.0
 40
4.0
  0
LINE
  5
D5
100
AcDbEntity
100
AcDbLine
  8
0
 62
256
370
-1
  6
BYLAYER
 10
0.0000000000000007
 20
30.0
 30
0.0
 11
0.0000000000000007
 21
59.9999999999999147
 31
0.0
  0
LINE
  5
D6
100
AcDbEntity
100
AcDbLine
  8
0
 62
256
370
-1
  6
BYLAYER
 10
0.0000000000000007
 20
59.9999999999999147
 30
0.0
 11
50.0
 21
59.9999999999999147
 31
0.0
  0
LINE
  5
D7
100
AcDbEntity
100
AcDbLine
  8
0
 62
256
370
-1
  6
BYLAYER
 10
50.0
 20
59.9999999999999147
 30
0.0
 11
50.0
 21
30.0
 31
0.0
  0
LINE
  5
D8
100
AcDbEntity
100
AcDbLine
  8
0
 62
256
370
-1
  6
BYLAYER
 10
47.0
 20
30.0
 30
0.0
 11
47.0
 21
30.0
 31
0.0
  0
LINE
  5
D9
100
AcDbEntity
100
AcDbLine
  8
0
 62
256
370
-1
  6
BYLAYER
 10
69.9000000000000057
 20
29.9999999999999005
 30
0.0
 11
69.9000000000000057
 21
59.9999999999998863
 31
0.0
  0
LINE
  5
DA
100
AcDbEntity
100
AcDbLine
  8
0
 62
256
370
-1
  6
BYLAYER
 10
96.9000000000000057
 20
59.9999999999998863
 30
0.0
 11
96.9000000000000057
 21
29.9999999999998863
 31
0.0
  0
LINE
  5
DB
100
AcDbEntity
100
AcDbLine
  8
0
 62
256
370
-1
  6
BYLAYER
 10
94.0
 20
29.9999999999999147
 30
0.0
 11
94.0
 21
30.0000000000000426
 31
0.0
  0
DIMENSION
  5
DC
100
AcDbEntity
  8
0
 62
256
370
-1
  6
BYLAYER
100
AcDbDimension
 10
-2.9999999999999991
 20
48.0
 30
0.0
 11
-4.8749999999999956
 21
56.7152777777777715
 31
0.0
 70
1
 71
8
 72
2
 41
1.0
 42
0.0
  1
5/16" Drill
  3
Standard
100
AcDbAlignedDimension
 13
6.0000000000000009
 23
48.0
 33
0.0
 14
6.0000000000000009
 24
40.0
 34
0.0
1001
ACAD
1000
DSTYLE
1002
{
1070
144
1040
1
1002
}
  0
LINE
  5
DD
100
AcDbEntity
100
AcDbLine
  8
0
 62
256
370
-1
  6
BYLAYER
 10
3.0000000000000009
 20
42.0
 30
0.0
 11
3.0000000000000009
 21
50.0
 31
0.0
  0
DIMENSION
  5
DE
100
AcDbEntity
  8
0
 62
256
370
-1
  6
BYLAYER
100
AcDbDimension
 10
-0.9999999999999991
 20
30.0
 30
0.0
 11
-2.8749999999999996
 21
37.0
 31
0.0
 70
1
 71
8
 72
2
 41
1.0
 42
0.0
  1

  3
Standard
100
AcDbAlignedDimension
 13
3.0000000000000009
 23
30.0
 33
0.0
 14
3.0
 24
44.0
 34
0.0
1001
ACAD
1000
DSTYLE
1002
{
1070
144
1040
1
1002
}
  0
DIMENSION
  5
DF
100
AcDbEntity
  8
0
 62
256
370
-1
  6
BYLAYER
100
AcDbDimension
 10
13.9999999999999929
 20
29.9999999999999964
 30
0.0
 11
12.0
 21
38.0
 31
0.0
 70
129
 71
8
 72
2
 41
1.0
 42
0.0
  1

  3
Standard
100
AcDbAlignedDimension
 13
9.4999999999999982
 23
30.0
 33
0.0
 14
9.5000000000000053
 24
39.9999999999999929
 34
0.0
1001
ACAD
1000
DSTYLE
1002
{
1070
144
1040
1
1002
}
  0
DIMENSION
  5
E0
100
AcDbEntity
  8
0
 62
256
370
-1
  6
BYLAYER
100
AcDbDimension
 10
36.0
 20
36.0
 30
0.0
 11
34.125
 21
33.0
 31
0.0
 70
1
 71
8
 72
2
 41
1.0
 42
0.0
  1

  3
Standard
100
AcDbAlignedDimension
 13
38.0
 23
36.0
 33
0.0
 14
38.0
 24
30.0
 34
0.0
1001
ACAD
1000
DSTYLE
1002
{
1070
144
1040
1
1002
}
  0
LINE
  5
E1
100
AcDbEntity
100
AcDbLine
  8
0
 62
256
370
-1
  6
DOT2
 10
17.0
 20
40.0
 30
0.0
 11
17.0
 21
28.0000000000000853
 31
0.0
  0
SPLINE
  5
E2
  8
0
 62
256
370
-1
  6
BYLAYER
100
AcDbEntity
100
AcDbSpline
 70
8
 71
3
 72
9
 73
5
 74
0
 40
0.0
 40
0.0
 40
0.0
 40
0.0
 40
1.0
 40
2.0
 40
2.0
 40
2.0
 40
2.0
 10
1.0000000000000011
 20
30.0
 30
0.0
 10
1.0000000000000009
 20
42.0
 30
0.0
 10
2.0
 20
55.0
 30
0.0
 10
7.0
 20
55.0
 30
0.0
 10
25.0
 20
55.0
 30
0.0
  0
LINE
  5
E3
100
AcDbEntity
100
AcDbLine
  8
0
 62
256
370
-1
  6
DOT2
 10
33.0
 20
48.0
 30
0.0
 11
33.0
 21
48.9999999999999858
 31
0.0
  0
LINE
  5
E4
100
AcDbEntity
100
AcDbLine
  8
0
 62
256
370
-1
  6
DOT2
 10
33.0
 20
40.0
 30
0.0
 11
32.9999999999999929
 21
28.0000000000000817
 31
0.0
  0
LINE
  5
E5
100
AcDbEntity
100
AcDbLine
  8
0
 62
256
370
-1
  6
DOT2
 10
47.0
 20
40.0
 30
0.0
 11
33.0
 21
40.0
 31
0.0
  0
LINE
  5
E6
100
AcDbEntity
100
AcDbLine
  8
0
 62
256
370
-1
  6
DOT2
 10
33.0
 20
48.0
 30
0.0
 11
45.0
 21
48.0
 31
0.0
  0
LINE
  5
E7
100
AcDbEntity
100
AcDbLine
  8
0
 62
256
370
-1
  6
DOT2
 10
17.0
 20
49.0000000000000071
 30
0.0
 11
33.0
 21
48.9999999999999858
 31
0.0
  0
SPLINE
  5
E8
  8
0
 62
256
370
-1
  6
DOT2
100
AcDbEntity
100
AcDbSpline
 70
8
 71
3
 72
17
 73
13
 74
0
 40
0.0
 40
0.0
 40
0.0
 40
0.0
 40
1.0
 40
2.0
 40
3.0
 40
4.0
 40
5.0
 40
6.0
 40
7.0
 40
8.0
 40
9.0
 40
10.0
 40
10.0
 40
10.0
 40
10.0
 10
449.9999999999999432
 20
107.0000000000000142
 30
0.0
 10
438.0000000000000568
 20
107.0000000000000142
 30
0.0
 10
425.0000000000000568
 20
108.0000000000000142
 30
0.0
 10
423.0000000000000568
 20
113.0000000000000142
 30
0.0
 10
423.0000000000000568
 20
128.0000000000000284
 30
0.0
 10
428.0
 20
141.0000000000000284
 30
0.0
 10
433.0
 20
145.0000000000000284
 30
0.0
 10
441.0
 20
151.0000000000000284
 30
0.0
 10
449.9999999999999432
 20
155.0000000000000284
 30
0.0
 10
449.9999999999999432
 20
155.0000000000000284
 30
0.0
 10
449.9999999999999432
 20
155.0000000000000284
 30
0.0
 10
449.9999999999999432
 20
155.0000000000000284
 30
0.0
 10
449.9999999999999432
 20
155.0000000000000284
 30
0.0
  0
SPLINE
  5
E9
  8
0
 62
256
370
-1
  6
BYLAYER
100
AcDbEntity
100
AcDbSpline
 70
8
 71
3
 72
9
 73
5
 74
0
 40
0.0
 40
0.0
 40
0.0
 40
0.0
 40
1.0
 40
2.0
 40
2.0
 40
2.0
 40
2.0
 10
428.9999999999999432
 20
124.0000000000000142
 30
0.0
 10
429.0000000000000568
 20
134.0000000000000284
 30
0.0
 10
429.0000000000000568
 20
138.0000000000000284
 30
0.0
 10
432.9999999999999432
 20
138.0000000000000284
 30
0.0
 10
449.9999999999999432
 20
138.0000000000000284
 30
0.0
  0
LINE
  5
EA
100
AcDbEntity
100
AcDbLine
  8
0
 62
256
370
-1
  6
DOT2
 10
449.9999999999999432
 20
106.0000000000000142
 30
0.0
 11
449.9999999999999432
 21
156.0000000000000284
 31
0.0
  0
LINE
  5
EB
100
AcDbEntity
100
AcDbLine
  8
0
 62
256
370
-1
  6
DOT2
 10
449.9999999999999432
 20
106.0000000000000142
 30
0.0
 11
420.0000000000000568
 21
106.0000000000000142
 31
0.0
  0
LINE
  5
EC
100
AcDbEntity
100
AcDbLine
  8
0
 62
256
370
-1
  6
BYLAYER
 10
439.9999999999999432
 20
124.0000000000000142
 30
0.0
 11
439.9999999999999432
 21
126.0000000000000142
 31
0.0
  0
LINE
  5
ED
100
AcDbEntity
100
AcDbLine
  8
0
 62
256
370
-1
  6
DOT2
 10
420.0000000000000568
 20
106.0000000000000142
 30
0.0
 11
420.0000000000000568
 21
156.0000000000000284
 31
0.0
  0
LINE
  5
EE
100
AcDbEntity
100
AcDbLine
  8
0
 62
256
370
-1
  6
BYLAYER
 10
439.9999999999999432
 20
126.0000000000000142
 30
0.0
 11
429.0004987089844235
 21
126.0072576594436811
 31
0.0
  0
LINE
  5
EF
100
AcDbEntity
100
AcDbLine
  8
0
 62
256
370
-1
  6
DOT2
 10
420.0000000000000568
 20
156.0000000000000284
 30
0.0
 11
449.9999999999999432
 21
156.0000000000000284
 31
0.0
  0
LINE
  5
F0
100
AcDbEntity
100
AcDbLine
  8
0
 62
256
370
-1
  6
BYLAYER
 10
428.9999999999999432
 20
124.0000000000000142
 30
0.0
 11
449.9999999999999432
 21
124.0000000000000142
 31
0.0
  0
SPLINE
  5
F1
  8
0
 62
256
370
-1
  6
DOT2
100
AcDbEntity
100
AcDbSpline
 70
8
 71
3
 72
17
 73
13
 74
0
 40
0.0
 40
0.0
 40
0.0
 40
0.0
 40
1.0
 40
2.0
 40
3.0
 40
4.0
 40
5.0
 40
6.0
 40
7.0
 40
8.0
 40
9.0
 40
10.0
 40
10.0
 40
10.0
 40
10.0
 10
449.9999999999998863
 20
52.0
 30
0.0
 10
438.0
 20
52.0
 30
0.0
 10
425.0
 20
53.0
 30
0.0
 10
423.0
 20
58.0
 30
0.0
 10
423.0
 20
73.0000000000000142
 30
0.0
 10
427.9999999999999432
 20
86.0000000000000142
 30
0.0
 10
432.9999999999999432
 20
90.0000000000000142
 30
0.0
 10
440.9999999999999432
 20
96.0000000000000142
 30
0.0
 10
449.9999999999998863
 20
100.0000000000000142
 30
0.0
 10
449.9999999999998863
 20
100.0000000000000142
 30
0.0
 10
449.9999999999998863
 20
100.0000000000000142
 30
0.0
 10
449.9999999999998863
 20
100.0000000000000142
 30
0.0
 10
449.9999999999998863
 20
100.0000000000000142
 30
0.0
  0
SPLINE
  5
F2
  8
0
 62
256
370
-1
  6
BYLAYER
100
AcDbEntity
100
AcDbSpline
 70
8
 71
3
 72
9
 73
5
 74
0
 40
0.0
 40
0.0
 40
0.0
 40
0.0
 40
1.0
 40
2.0
 40
2.0
 40
2.0
 40
2.0
 10
428.9999999999998863
 20
69.0
 30
0.0
 10
429.0
 20
79.0
 30
0.0
 10
429.0
 20
83.0000000000000142
 30
0.0
 10
432.9999999999998863
 20
83.0000000000000142
 30
0.0
 10
449.9999999999998863
 20
83.0000000000000142
 30
0.0
  0
LINE
  5
F3
100
AcDbEntity
100
AcDbLine
  8
0
 62
256
370
-1
  6
DOT2
 10
449.9999999999998863
 20
51.0
 30
0.0
 11
449.9999999999998863
 21
101.0000000000000142
 31
0.0
  0
LINE
  5
F4
100
AcDbEntity
100
AcDbLine
  8
0
 62
256
370
-1
  6
DOT2
 10
449.9999999999998863
 20
51.0
 30
0.0
 11
420.0
 21
51.0
 31
0.0
  0
LINE
  5
F5
100
AcDbEntity
100
AcDbLine
  8
0
 62
256
370
-1
  6
BYLAYER
 10
439.9999999999998863
 20
69.0
 30
0.0
 11
439.9999999999998863
 21
71.0
 31
0.0
  0
LINE
  5
F6
100
AcDbEntity
100
AcDbLine
  8
0
 62
256
370
-1
  6
DOT2
 10
420.0
 20
51.0
 30
0.0
 11
420.0
 21
101.0000000000000142
 31
0.0
  0
LINE
  5
F7
100
AcDbEntity
100
AcDbLine
  8
0
 62
256
370
-1
  6
BYLAYER
 10
439.9999999999998863
 20
71.0
 30
0.0
 11
429.0004987089843667
 21
71.0072576594436669
 31
0.0
  0
LINE
  5
F8
100
AcDbEntity
100
AcDbLine
  8
0
 62
256
370
-1
  6
DOT2
 10
420.0
 20
101.0000000000000142
 30
0.0
 11
449.9999999999998863
 21
101.0000000000000142
 31
0.0
  0
LINE
  5
F9
100
AcDbEntity
100
AcDbLine
  8
0
 62
256
370
-1
  6
BYLAYER
 10
428.9999999999998863
 20
69.0
 30
0.0
 11
449.9999999999998863
 21
69.0
 31
0.0
  0
SPLINE
  5
FA
  8
0
 62
256
370
-1
  6
DOT2
100
AcDbEntity
100
AcDbSpline
 70
8
 71
3
 72
17
 73
13
 74
0
 40
0.0
 40
0.0
 40
0.0
 40
0.0
 40
1.0
 40
2.0
 40
3.0
 40
4.0
 40
5.0
 40
6.0
 40
7.0
 40
8.0
 40
9.0
 40
10.0
 40
10.0
 40
10.0
 40
10.0
 10
449.9999999999998863
 20
-3.0000000000000142
 30
0.0
 10
438.0
 20
-3.0000000000000142
 30
0.0
 10
425.0
 20
-2.0000000000000142
 30
0.0
 10
423.0
 20
2.9999999999999858
 30
0.0
 10
423.0
 20
18.0
 30
0.0
 10
427.9999999999999432
 20
31.0
 30
0.0
 10
432.9999999999999432
 20
35.0
 30
0.0
 10
440.9999999999999432
 20
41.0
 30
0.0
 10
449.9999999999998863
 20
45.0
 30
0.0
 10
449.9999999999998863
 20
45.0
 30
0.0
 10
449.9999999999998863
 20
45.0
 30
0.0
 10
449.9999999999998863
 20
45.0
 30
0.0
 10
449.9999999999998863
 20
45.0
 30
0.0
  0
SPLINE
  5
FB
  8
0
 62
256
370
-1
  6
BYLAYER
100
AcDbEntity
100
AcDbSpline
 70
8
 71
3
 72
9
 73
5
 74
0
 40
0.0
 40
0.0
 40
0.0
 40
0.0
 40
1.0
 40
2.0
 40
2.0
 40
2.0
 40
2.0
 10
428.9999999999998863
 20
13.9999999999999858
 30
0.0
 10
429.0
 20
23.9999999999999858
 30
0.0
 10
429.0
 20
28.0
 30
0.0
 10
432.9999999999998863
 20
28.0
 30
0.0
 10
449.9999999999998863
 20
28.0
 30
0.0
  0
LINE
  5
FC
100
AcDbEntity
100
AcDbLine
  8
0
 62
256
370
-1
  6
DOT2
 10
449.9999999999998863
 20
-4.0000000000000142
 30
0.0
 11
449.9999999999998863
 21
46.0
 31
0.0
  0
LINE
  5
FD
100
AcDbEntity
100
AcDbLine
  8
0
 62
256
370
-1
  6
DOT2
 10
449.9999999999998863
 20
-4.0000000000000142
 30
0.0
 11
420.0
 21
-4.0000000000000142
 31
0.0
  0
LINE
  5
FE
100
AcDbEntity
100
AcDbLine
  8
0
 62
256
370
-1
  6
BYLAYER
 10
439.9999999999998863
 20
13.9999999999999858
 30
0.0
 11
439.9999999999998863
 21
15.9999999999999858
 31
0.0
  0
LINE
  5
FF
100
AcDbEntity
100
AcDbLine
  8
0
 62
256
370
-1
  6
DOT2
 10
420.0
 20
-4.0000000000000142
 30
0.0
 11
420.0
 21
46.0
 31
0.0
  0
LINE
  5
100
100
AcDbEntity
100
AcDbLine
  8
0
 62
256
370
-1
  6
BYLAYER
 10
439.9999999999998863
 20
15.9999999999999858
 30
0.0
 11
429.0004987089843667
 21
16.0072576594436526
 31
0.0
  0
LINE
  5
101
100
AcDbEntity
100
AcDbLine
  8
0
 62
256
370
-1
  6
DOT2
 10
420.0
 20
46.0
 30
0.0
 11
449.9999999999998863
 21
46.0
 31
0.0
  0
LINE
  5
102
100
AcDbEntity
100
AcDbLine
  8
0
 62
256
370
-1
  6
BYLAYER
 10
428.9999999999998863
 20
13.9999999999999858
 30
0.0
 11
449.9999999999998863
 21
13.9999999999999858
 31
0.0
  0
SPLINE
  5
103
  8
0
 62
256
370
-1
  6
DOT2
100
AcDbEntity
100
AcDbSpline
 70
8
 71
3
 72
17
 73
13
 74
0
 40
0.0
 40
0.0
 40
0.0
 40
0.0
 40
1.0
 40
2.0
 40
3.0
 40
4.0
 40
5.0
 40
6.0
 40
7.0
 40
8.0
 40
9.0
 40
10.0
 40
10.0
 40
10.0
 40
10.0
 10
449.9999999999998295
 20
-58.0000000000000426
 30
0.0
 10
437.9999999999999432
 20
-58.0000000000000426
 30
0.0
 10
424.9999999999999432
 20
-57.0000000000000426
 30
0.0
 10
422.9999999999999432
 20
-52.0000000000000426
 30
0.0
 10
422.9999999999999432
 20
-37.0000000000000284
 30
0.0
 10
427.9999999999998863
 20
-24.0000000000000284
 30
0.0
 10
432.9999999999998863
 20
-20.0000000000000284
 30
0.0
 10
440.9999999999998863
 20
-14.0000000000000284
 30
0.0
 10
449.9999999999998295
 20
-10.0000000000000284
 30
0.0
 10
449.9999999999998295
 20
-10.0000000000000284
 30
0.0
 10
449.9999999999998295
 20
-10.0000000000000284
 30
0.0
 10
449.9999999999998295
 20
-10.0000000000000284
 30
0.0
 10
449.9999999999998295
 20
-10.0000000000000284
 30
0.0
  0
SPLINE
  5
104
  8
0
 62
256
370
-1
  6
BYLAYER
100
AcDbEntity
100
AcDbSpline
 70
8
 71
3
 72
9
 73
5
 74
0
 40
0.0
 40
0.0
 40
0.0
 40
0.0
 40
1.0
 40
2.0
 40
2.0
 40
2.0
 40
2.0
 10
428.9999999999998295
 20
-41.0000000000000426
 30
0.0
 10
428.9999999999999432
 20
-31.0000000000000426
 30
0.0
 10
428.9999999999999432
 20
-27.0000000000000284
 30
0.0
 10
432.9999999999998295
 20
-27.0000000000000284
 30
0.0
 10
449.9999999999998295
 20
-27.0000000000000284
 30
0.0
  0
LINE
  5
105
100
AcDbEntity
100
AcDbLine
  8
0
 62
256
370
-1
  6
DOT2
 10
449.9999999999998295
 20
-59.0000000000000426
 30
0.0
 11
449.9999999999998295
 21
-9.0000000000000284
 31
0.0
  0
LINE
  5
106
100
AcDbEntity
100
AcDbLine
  8
0
 62
256
370
-1
  6
DOT2
 10
449.9999999999998295
 20
-59.0000000000000426
 30
0.0
 11
419.9999999999999432
 21
-59.0000000000000426
 31
0.0
  0
LINE
  5
107
100
AcDbEntity
100
AcDbLine
  8
0
 62
256
370
-1
  6
BYLAYER
 10
439.9999999999998295
 20
-41.0000000000000426
 30
0.0
 11
439.9999999999998295
 21
-39.0000000000000426
 31
0.0
  0
LINE
  5
108
100
AcDbEntity
100
AcDbLine
  8
0
 62
256
370
-1
  6
DOT2
 10
419.9999999999999432
 20
-59.0000000000000426
 30
0.0
 11
419.9999999999999432
 21
-9.0000000000000284
 31
0.0
  0
LINE
  5
109
100
AcDbEntity
100
AcDbLine
  8
0
 62
256
370
-1
  6
BYLAYER
 10
439.9999999999998295
 20
-39.0000000000000426
 30
0.0
 11
429.0004987089843098
 21
-38.9927423405563758
 31
0.0
  0
LINE
  5
10A
100
AcDbEntity
100
AcDbLine
  8
0
 62
256
370
-1
  6
DOT2
 10
419.9999999999999432
 20
-9.0000000000000284
 30
0.0
 11
449.9999999999998295
 21
-9.0000000000000284
 31
0.0
  0
LINE
  5
10B
100
AcDbEntity
100
AcDbLine
  8
0
 62
256
370
-1
  6
BYLAYER
 10
428.9999999999998295
 20
-41.0000000000000426
 30
0.0
 11
449.9999999999998295
 21
-41.0000000000000426
 31
0.0
  0
LINE
  5
10C
100
AcDbEntity
100
AcDbLine
  8
0
 62
256
370
-1
  6
DOT2
 10
449.9999999999999432
 20
106.0000000000000142
 30
0.0
 11
449.9999999999999432
 21
156.0000000000000284
 31
0.0
  0
LINE
  5
10D
100
AcDbEntity
100
AcDbLine
  8
0
 62
256
370
-1
  6
DOT2
 10
449.9999999999998863
 20
51.0
 30
0.0
 11
449.9999999999998863
 21
101.0000000000000142
 31
0.0
  0
LINE
  5
10E
100
AcDbEntity
100
AcDbLine
  8
0
 62
256
370
-1
  6
DOT2
 10
449.9999999999998863
 20
-4.0000000000000142
 30
0.0
 11
449.9999999999998863
 21
46.0
 31
0.0
  0
LINE
  5
10F
100
AcDbEntity
100
AcDbLine
  8
0
 62
256
370
-1
  6
DOT2
 10
449.9999999999998295
 20
-59.0000000000000426
 30
0.0
 11
449.9999999999998295
 21
-9.0000000000000284
 31
0.0
  0
SPLINE
  5
110
  8
0
 62
256
370
-1
  6
BYLAYER
100
AcDbEntity
100
AcDbSpline
 70
8
 71
3
 72
17
 73
13
 74
0
 40
0.0
 40
0.0
 40
0.0
 40
0.0
 40
1.0
 40
2.0
 40
3.0
 40
4.0
 40
5.0
 40
6.0
 40
7.0
 40
8.0
 40
9.0
 40
10.0
 40
10.0
 40
10.0
 40
10.0
 10
308.0000000000000568
 20
130.0000000000000568
 30
0.0
 10
308.0000000000000568
 20
142.0000000000000568
 30
0.0
 10
309.0000000000000568
 20
155.0000000000000568
 30
0.0
 10
314.0000000000000568
 20
157.0000000000000568
 30
0.0
 10
329.0000000000000568
 20
157.0000000000000568
 30
0.0
 10
342.0000000000000568
 20
152.0000000000000568
 30
0.0
 10
346.0000000000000568
 20
147.0000000000000568
 30
0.0
 10
352.0000000000000568
 20
139.0000000000000568
 30
0.0
 10
356.0000000000000568
 20
130.0000000000000568
 30
0.0
 10
356.0000000000000568
 20
130.0000000000000568
 30
0.0
 10
356.0000000000000568
 20
130.0000000000000568
 30
0.0
 10
356.0000000000000568
 20
130.0000000000000568
 30
0.0
 10
356.0000000000000568
 20
130.0000000000000568
 30
0.0
  0
LINE
  5
111
100
AcDbEntity
100
AcDbLine
  8
0
 62
256
370
-1
  6
DOT2
 10
307.0000000000000568
 20
160.0000000000000568
 30
0.0
 11
357.0000000000000568
 21
160.0000000000000568
 31
0.0
  0
LINE
  5
112
100
AcDbEntity
100
AcDbLine
  8
0
 62
256
370
-1
  6
DOT2
 10
307.0000000000000568
 20
130.0000000000001421
 30
0.0
 11
357.0000000000000568
 21
130.0000000000001421
 31
0.0
  0
SPLINE
  5
113
  8
0
 62
256
370
-1
  6
BYLAYER
100
AcDbEntity
100
AcDbSpline
 70
8
 71
3
 72
17
 73
13
 74
0
 40
0.0
 40
0.0
 40
0.0
 40
0.0
 40
1.0
 40
2.0
 40
3.0
 40
4.0
 40
5.0
 40
6.0
 40
7.0
 40
8.0
 40
9.0
 40
10.0
 40
10.0
 40
10.0
 40
10.0
 10
308.0000000000000568
 20
100.0000000000001563
 30
0.0
 10
308.0000000000000568
 20
112.0000000000001563
 30
0.0
 10
309.0000000000000568
 20
125.0000000000001563
 30
0.0
 10
314.0000000000000568
 20
127.0000000000001563
 30
0.0
 10
329.0000000000000568
 20
127.0000000000001563
 30
0.0
 10
342.0000000000000568
 20
122.0000000000001563
 30
0.0
 10
346.0000000000000568
 20
117.0000000000001563
 30
0.0
 10
352.0000000000000568
 20
109.0000000000001563
 30
0.0
 10
356.0000000000000568
 20
100.0000000000001563
 30
0.0
 10
356.0000000000000568
 20
100.0000000000001563
 30
0.0
 10
356.0000000000000568
 20
100.0000000000001563
 30
0.0
 10
356.0000000000000568
 20
100.0000000000001563
 30
0.0
 10
356.0000000000000568
 20
100.0000000000001563
 30
0.0
  0
LINE
  5
114
100
AcDbEntity
100
AcDbLine
  8
0
 62
256
370
-1
  6
DOT2
 10
307.0000000000000568
 20
130.0000000000001421
 30
0.0
 11
357.0000000000000568
 21
130.0000000000001421
 31
0.0
  0
LINE
  5
115
100
AcDbEntity
100
AcDbLine
  8
0
 62
256
370
-1
  6
DOT2
 10
307.0000000000000568
 20
100.0000000000002416
 30
0.0
 11
357.0000000000000568
 21
100.0000000000002416
 31
0.0
  0
SPLINE
  5
116
  8
0
 62
256
370
-1
  6
BYLAYER
100
AcDbEntity
100
AcDbSpline
 70
8
 71
3
 72
17
 73
13
 74
0
 40
0.0
 40
0.0
 40
0.0
 40
0.0
 40
1.0
 40
2.0
 40
3.0
 40
4.0
 40
5.0
 40
6.0
 40
7.0
 40
8.0
 40
9.0
 40
10.0
 40
10.0
 40
10.0
 40
10.0
 10
308.0000000000000568
 20
70.0000000000002558
 30
0.0
 10
308.0000000000000568
 20
82.0000000000002558
 30
0.0
 10
309.0000000000000568
 20
95.0000000000002558
 30
0.0
 10
314.0000000000000568
 20
97.0000000000002558
 30
0.0
 10
329.0000000000000568
 20
97.0000000000002558
 30
0.0
 10
342.0000000000000568
 20
92.0000000000002558
 30
0.0
 10
346.0000000000000568
 20
87.0000000000002558
 30
0.0
 10
352.0000000000000568
 20
79.0000000000002558
 30
0.0
 10
356.0000000000000568
 20
70.0000000000002558
 30
0.0
 10
356.0000000000000568
 20
70.0000000000002558
 30
0.0
 10
356.0000000000000568
 20
70.0000000000002558
 30
0.0
 10
356.0000000000000568
 20
70.0000000000002558
 30
0.0
 10
356.0000000000000568
 20
70.0000000000002558
 30
0.0
  0
LINE
  5
117
100
AcDbEntity
100
AcDbLine
  8
0
 62
256
370
-1
  6
DOT2
 10
307.0000000000000568
 20
100.0000000000002558
 30
0.0
 11
357.0000000000000568
 21
100.0000000000002558
 31
0.0
  0
LINE
  5
118
100
AcDbEntity
100
AcDbLine
  8
0
 62
256
370
-1
  6
DOT2
 10
307.0000000000000568
 20
70.0000000000003411
 30
0.0
 11
357.0000000000000568
 21
70.0000000000003411
 31
0.0
  0
SPLINE
  5
119
  8
0
 62
256
370
-1
  6
BYLAYER
100
AcDbEntity
100
AcDbSpline
 70
8
 71
3
 72
17
 73
13
 74
0
 40
0.0
 40
0.0
 40
0.0
 40
0.0
 40
1.0
 40
2.0
 40
3.0
 40
4.0
 40
5.0
 40
6.0
 40
7.0
 40
8.0
 40
9.0
 40
10.0
 40
10.0
 40
10.0
 40
10.0
 10
308.0000000000000568
 20
40.0000000000003553
 30
0.0
 10
308.0000000000000568
 20
52.0000000000003553
 30
0.0
 10
309.0000000000000568
 20
65.0000000000003553
 30
0.0
 10
314.0000000000000568
 20
67.0000000000003553
 30
0.0
 10
329.0000000000000568
 20
67.0000000000003553
 30
0.0
 10
342.0000000000000568
 20
62.0000000000003553
 30
0.0
 10
346.0000000000000568
 20
57.0000000000003553
 30
0.0
 10
352.0000000000000568
 20
49.0000000000003553
 30
0.0
 10
356.0000000000000568
 20
40.0000000000003553
 30
0.0
 10
356.0000000000000568
 20
40.0000000000003553
 30
0.0
 10
356.0000000000000568
 20
40.0000000000003553
 30
0.0
 10
356.0000000000000568
 20
40.0000000000003553
 30
0.0
 10
356.0000000000000568
 20
40.0000000000003553
 30
0.0
  0
LINE
  5
11A
100
AcDbEntity
100
AcDbLine
  8
0
 62
256
370
-1
  6
DOT2
 10
307.0000000000000568
 20
70.0000000000003553
 30
0.0
 11
357.0000000000000568
 21
70.0000000000003553
 31
0.0
  0
LINE
  5
11B
100
AcDbEntity
100
AcDbLine
  8
0
 62
256
370
-1
  6
DOT2
 10
307.0000000000000568
 20
40.0000000000004405
 30
0.0
 11
357.0000000000000568
 21
40.0000000000004405
 31
0.0
  0
SPLINE
  5
11C
  8
0
 62
256
370
-1
  6
BYLAYER
100
AcDbEntity
100
AcDbSpline
 70
8
 71
3
 72
17
 73
13
 74
0
 40
0.0
 40
0.0
 40
0.0
 40
0.0
 40
1.0
 40
2.0
 40
3.0
 40
4.0
 40
5.0
 40
6.0
 40
7.0
 40
8.0
 40
9.0
 40
10.0
 40
10.0
 40
10.0
 40
10.0
 10
308.0000000000000568
 20
10.0000000000004547
 30
0.0
 10
308.0000000000000568
 20
22.0000000000004547
 30
0.0
 10
309.0000000000000568
 20
35.0000000000004547
 30
0.0
 10
314.0000000000000568
 20
37.0000000000004547
 30
0.0
 10
329.0000000000000568
 20
37.0000000000004547
 30
0.0
 10
342.0000000000000568
 20
32.0000000000004547
 30
0.0
 10
346.0000000000000568
 20
27.0000000000004547
 30
0.0
 10
352.0000000000000568
 20
19.0000000000004547
 30
0.0
 10
356.0000000000000568
 20
10.0000000000004547
 30
0.0
 10
356.0000000000000568
 20
10.0000000000004547
 30
0.0
 10
356.0000000000000568
 20
10.0000000000004547
 30
0.0
 10
356.0000000000000568
 20
10.0000000000004547
 30
0.0
 10
356.0000000000000568
 20
10.0000000000004547
 30
0.0
  0
LINE
  5
11D
100
AcDbEntity
100
AcDbLine
  8
0
 62
256
370
-1
  6
DOT2
 10
307.0000000000000568
 20
40.0000000000004547
 30
0.0
 11
357.0000000000000568
 21
40.0000000000004547
 31
0.0
  0
LINE
  5
11E
100
AcDbEntity
100
AcDbLine
  8
0
 62
256
370
-1
  6
DOT2
 10
307.0000000000000568
 20
10.00000000000054
 30
0.0
 11
357.0000000000000568
 21
10.00000000000054
 31
0.0
  0
SPLINE
  5
11F
  8
0
 62
256
370
-1
  6
BYLAYER
100
AcDbEntity
100
AcDbSpline
 70
8
 71
3
 72
17
 73
13
 74
0
 40
0.0
 40
0.0
 40
0.0
 40
0.0
 40
1.0
 40
2.0
 40
3.0
 40
4.0
 40
5.0
 40
6.0
 40
7.0
 40
8.0
 40
9.0
 40
10.0
 40
10.0
 40
10.0
 40
10.0
 10
308.0000000000000568
 20
-19.9999999999994316
 30
0.0
 10
308.0000000000000568
 20
-7.9999999999994316
 30
0.0
 10
309.0000000000000568
 20
5.0000000000005684
 30
0.0
 10
314.0000000000000568
 20
7.0000000000005684
 30
0.0
 10
329.0000000000000568
 20
7.0000000000005684
 30
0.0
 10
342.0000000000000568
 20
2.0000000000005684
 30
0.0
 10
346.0000000000000568
 20
-2.9999999999994316
 30
0.0
 10
352.0000000000000568
 20
-10.9999999999994316
 30
0.0
 10
356.0000000000000568
 20
-19.9999999999994316
 30
0.0
 10
356.0000000000000568
 20
-19.9999999999994316
 30
0.0
 10
356.0000000000000568
 20
-19.9999999999994316
 30
0.0
 10
356.0000000000000568
 20
-19.9999999999994316
 30
0.0
 10
356.0000000000000568
 20
-19.9999999999994316
 30
0.0
  0
LINE
  5
120
100
AcDbEntity
100
AcDbLine
  8
0
 62
256
370
-1
  6
DOT2
 10
307.0000000000000568
 20
10.0000000000005684
 30
0.0
 11
357.0000000000000568
 21
10.0000000000005684
 31
0.0
  0
LINE
  5
121
100
AcDbEntity
100
AcDbLine
  8
0
 62
256
370
-1
  6
DOT2
 10
307.0000000000000568
 20
-19.9999999999993463
 30
0.0
 11
357.0000000000000568
 21
-19.9999999999993463
 31
0.0
  0
SPLINE
  5
122
  8
0
 62
256
370
-1
  6
BYLAYER
100
AcDbEntity
100
AcDbSpline
 70
8
 71
3
 72
17
 73
13
 74
0
 40
0.0
 40
0.0
 40
0.0
 40
0.0
 40
1.0
 40
2.0
 40
3.0
 40
4.0
 40
5.0
 40
6.0
 40
7.0
 40
8.0
 40
9.0
 40
10.0
 40
10.0
 40
10.0
 40
10.0
 10
308.0000000000000568
 20
-49.9999999999993463
 30
0.0
 10
308.0000000000000568
 20
-37.9999999999993463
 30
0.0
 10
309.0000000000000568
 20
-24.9999999999993463
 30
0.0
 10
314.0000000000000568
 20
-22.9999999999993463
 30
0.0
 10
329.0000000000000568
 20
-22.9999999999993463
 30
0.0
 10
342.0000000000000568
 20
-27.9999999999993463
 30
0.0
 10
346.0000000000000568
 20
-32.9999999999993463
 30
0.0
 10
352.0000000000000568
 20
-40.9999999999993463
 30
0.0
 10
356.0000000000000568
 20
-49.9999999999993463
 30
0.0
 10
356.0000000000000568
 20
-49.9999999999993463
 30
0.0
 10
356.0000000000000568
 20
-49.9999999999993463
 30
0.0
 10
356.0000000000000568
 20
-49.9999999999993463
 30
0.0
 10
356.0000000000000568
 20
-49.9999999999993463
 30
0.0
  0
LINE
  5
123
100
AcDbEntity
100
AcDbLine
  8
0
 62
256
370
-1
  6
DOT2
 10
307.0000000000000568
 20
-19.9999999999993463
 30
0.0
 11
357.0000000000000568
 21
-19.9999999999993463
 31
0.0
  0
LINE
  5
124
100
AcDbEntity
100
AcDbLine
  8
0
 62
256
370
-1
  6
DOT2
 10
307.0000000000000568
 20
-49.999999999999261
 30
0.0
 11
357.0000000000000568
 21
-49.999999999999261
 31
0.0
  0
SPLINE
  5
125
  8
0
 62
256
370
-1
  6
BYLAYER
100
AcDbEntity
100
AcDbSpline
 70
8
 71
3
 72
17
 73
13
 74
0
 40
0.0
 40
0.0
 40
0.0
 40
0.0
 40
1.0
 40
2.0
 40
3.0
 40
4.0
 40
5.0
 40
6.0
 40
7.0
 40
8.0
 40
9.0
 40
10.0
 40
10.0
 40
10.0
 40
10.0
 10
308.0000000000000568
 20
-79.999999999999261
 30
0.0
 10
308.0000000000000568
 20
-67.999999999999261
 30
0.0
 10
309.0000000000000568
 20
-54.999999999999261
 30
0.0
 10
314.0000000000000568
 20
-52.999999999999261
 30
0.0
 10
329.0000000000000568
 20
-52.999999999999261
 30
0.0
 10
342.0000000000000568
 20
-57.999999999999261
 30
0.0
 10
346.0000000000000568
 20
-62.999999999999261
 30
0.0
 10
352.0000000000000568
 20
-70.999999999999261
 30
0.0
 10
356.0000000000000568
 20
-79.999999999999261
 30
0.0
 10
356.0000000000000568
 20
-79.999999999999261
 30
0.0
 10
356.0000000000000568
 20
-79.999999999999261
 30
0.0
 10
356.0000000000000568
 20
-79.999999999999261
 30
0.0
 10
356.0000000000000568
 20
-79.999999999999261
 30
0.0
  0
LINE
  5
126
100
AcDbEntity
100
AcDbLine
  8
0
 62
256
370
-1
  6
DOT2
 10
307.0000000000000568
 20
-49.999999999999261
 30
0.0
 11
357.0000000000000568
 21
-49.999999999999261
 31
0.0
  0
LINE
  5
127
100
AcDbEntity
100
AcDbLine
  8
0
 62
256
370
-1
  6
DOT2
 10
307.0000000000000568
 20
-79.9999999999991758
 30
0.0
 11
357.0000000000000568
 21
-79.9999999999991758
 31
0.0
  0
LINE
  5
128
100
AcDbEntity
100
AcDbLine
  8
0
 62
256
370
-1
  6
DOT2
 10
230.0000000000000284
 20
-19.9999999999993889
 30
0.0
 11
230.0000000000000284
 21
10.0000000000005258
 31
0.0
  0
LINE
  5
129
100
AcDbEntity
100
AcDbLine
  8
0
 62
256
370
-1
  6
DOT2
 10
230.0000000000000284
 20
10.0000000000005258
 30
0.0
 11
280.0
 21
10.0000000000005258
 31
0.0
  0
LINE
  5
12A
100
AcDbEntity
100
AcDbLine
  8
0
 62
256
370
-1
  6
DOT2
 10
230.0000000000000284
 20
-19.9999999999993889
 30
0.0
 11
280.0
 21
-19.9999999999993889
 31
0.0
  0
SPLINE
  5
12B
  8
0
 62
256
370
-1
  6
BYLAYER
100
AcDbEntity
100
AcDbSpline
 70
8
 71
3
 72
17
 73
13
 74
0
 40
0.0
 40
0.0
 40
0.0
 40
0.0
 40
1.0
 40
2.0
 40
3.0
 40
4.0
 40
5.0
 40
6.0
 40
7.0
 40
8.0
 40
9.0
 40
10.0
 40
10.0
 40
10.0
 40
10.0
 10
231.0000000000000284
 20
-49.9999999999993889
 30
0.0
 10
231.0000000000000284
 20
-37.9999999999993889
 30
0.0
 10
232.0000000000000284
 20
-24.9999999999993889
 30
0.0
 10
237.0000000000000284
 20
-22.9999999999993889
 30
0.0
 10
252.0000000000000284
 20
-22.9999999999993889
 30
0.0
 10
265.0
 20
-27.9999999999993889
 30
0.0
 10
269.0
 20
-32.9999999999993889
 30
0.0
 10
275.0
 20
-40.9999999999993889
 30
0.0
 10
279.0
 20
-49.9999999999993889
 30
0.0
 10
279.0
 20
-49.9999999999993889
 30
0.0
 10
279.0
 20
-49.9999999999993889
 30
0.0
 10
279.0
 20
-49.9999999999993889
 30
0.0
 10
279.0
 20
-49.9999999999993889
 30
0.0
  0
LINE
  5
12C
100
AcDbEntity
100
AcDbLine
  8
0
 62
256
370
-1
  6
DOT2
 10
230.0000000000000284
 20
-49.9999999999993037
 30
0.0
 11
230.0000000000000284
 21
-19.9999999999993889
 31
0.0
  0
LINE
  5
12D
100
AcDbEntity
100
AcDbLine
  8
0
 62
256
370
-1
  6
DOT2
 10
230.0000000000000284
 20
-19.9999999999993889
 30
0.0
 11
280.0
 21
-19.9999999999993889
 31
0.0
  0
LINE
  5
12E
100
AcDbEntity
100
AcDbLine
  8
0
 62
256
370
-1
  6
DOT2
 10
230.0000000000000284
 20
-49.9999999999993037
 30
0.0
 11
280.0
 21
-49.9999999999993037
 31
0.0
  0
SPLINE
  5
12F
  8
0
 62
256
370
-1
  6
BYLAYER
100
AcDbEntity
100
AcDbSpline
 70
8
 71
3
 72
17
 73
13
 74
0
 40
0.0
 40
0.0
 40
0.0
 40
0.0
 40
1.0
 40
2.0
 40
3.0
 40
4.0
 40
5.0
 40
6.0
 40
7.0
 40
8.0
 40
9.0
 40
10.0
 40
10.0
 40
10.0
 40
10.0
 10
231.0000000000000284
 20
-79.9999999999993037
 30
0.0
 10
231.0000000000000284
 20
-67.9999999999993037
 30
0.0
 10
232.0000000000000284
 20
-54.9999999999993037
 30
0.0
 10
237.0000000000000284
 20
-52.9999999999993037
 30
0.0
 10
252.0000000000000284
 20
-52.9999999999993037
 30
0.0
 10
265.0
 20
-57.9999999999993037
 30
0.0
 10
269.0
 20
-62.9999999999993037
 30
0.0
 10
275.0
 20
-70.9999999999993037
 30
0.0
 10
279.0
 20
-79.9999999999993037
 30
0.0
 10
279.0
 20
-79.9999999999993037
 30
0.0
 10
279.0
 20
-79.9999999999993037
 30
0.0
 10
279.0
 20
-79.9999999999993037
 30
0.0
 10
279.0
 20
-79.9999999999993037
 30
0.0
  0
LINE
  5
130
100
AcDbEntity
100
AcDbLine
  8
0
 62
256
370
-1
  6
DOT2
 10
230.0000000000000284
 20
-79.9999999999992184
 30
0.0
 11
230.0000000000000284
 21
-49.9999999999993037
 31
0.0
  0
LINE
  5
131
100
AcDbEntity
100
AcDbLine
  8
0
 62
256
370
-1
  6
DOT2
 10
230.0000000000000284
 20
-49.9999999999993037
 30
0.0
 11
280.0
 21
-49.9999999999993037
 31
0.0
  0
LINE
  5
132
100
AcDbEntity
100
AcDbLine
  8
0
 62
256
370
-1
  6
DOT2
 10
230.0000000000000284
 20
-79.9999999999992184
 30
0.0
 11
280.0
 21
-79.9999999999992184
 31
0.0
  0
SPLINE
  5
133
  8
0
 62
256
370
-1
  6
BYLAYER
100
AcDbEntity
100
AcDbSpline
 70
8
 71
3
 72
17
 73
13
 74
0
 40
0.0
 40
0.0
 40
0.0
 40
0.0
 40
1.0
 40
2.0
 40
3.0
 40
4.0
 40
5.0
 40
6.0
 40
7.0
 40
8.0
 40
9.0
 40
10.0
 40
10.0
 40
10.0
 40
10.0
 10
231.0000000000000284
 20
130.0000000000000284
 30
0.0
 10
231.0000000000000284
 20
142.0000000000000284
 30
0.0
 10
232.0000000000000284
 20
155.0000000000000284
 30
0.0
 10
237.0000000000000284
 20
157.0000000000000284
 30
0.0
 10
252.0000000000000284
 20
157.0000000000000284
 30
0.0
 10
265.0
 20
152.0000000000000284
 30
0.0
 10
269.0
 20
147.0000000000000284
 30
0.0
 10
275.0
 20
139.0000000000000284
 30
0.0
 10
279.0
 20
130.0000000000000284
 30
0.0
 10
279.0
 20
130.0000000000000284
 30
0.0
 10
279.0
 20
130.0000000000000284
 30
0.0
 10
279.0
 20
130.0000000000000284
 30
0.0
 10
279.0
 20
130.0000000000000284
 30
0.0
  0
LINE
  5
134
100
AcDbEntity
100
AcDbLine
  8
0
 62
256
370
-1
  6
DOT2
 10
230.0000000000000284
 20
130.0000000000000853
 30
0.0
 11
230.0000000000000284
 21
160.0000000000000284
 31
0.0
  0
LINE
  5
135
100
AcDbEntity
100
AcDbLine
  8
0
 62
256
370
-1
  6
DOT2
 10
230.0000000000000284
 20
160.0000000000000284
 30
0.0
 11
280.0
 21
160.0000000000000284
 31
0.0
  0
LINE
  5
136
100
AcDbEntity
100
AcDbLine
  8
0
 62
256
370
-1
  6
DOT2
 10
230.0000000000000284
 20
130.0000000000000853
 30
0.0
 11
280.0
 21
130.0000000000000853
 31
0.0
  0
SPLINE
  5
137
  8
0
 62
256
370
-1
  6
BYLAYER
100
AcDbEntity
100
AcDbSpline
 70
8
 71
3
 72
17
 73
13
 74
0
 40
0.0
 40
0.0
 40
0.0
 40
0.0
 40
1.0
 40
2.0
 40
3.0
 40
4.0
 40
5.0
 40
6.0
 40
7.0
 40
8.0
 40
9.0
 40
10.0
 40
10.0
 40
10.0
 40
10.0
 10
231.0000000000000284
 20
100.0000000000001137
 30
0.0
 10
231.0000000000000284
 20
112.0000000000001137
 30
0.0
 10
232.0000000000000284
 20
125.0000000000001137
 30
0.0
 10
237.0000000000000284
 20
127.0000000000001137
 30
0.0
 10
252.0000000000000284
 20
127.0000000000001137
 30
0.0
 10
265.0
 20
122.0000000000001137
 30
0.0
 10
269.0
 20
117.0000000000001137
 30
0.0
 10
275.0
 20
109.0000000000001137
 30
0.0
 10
279.0
 20
100.0000000000001137
 30
0.0
 10
279.0
 20
100.0000000000001137
 30
0.0
 10
279.0
 20
100.0000000000001137
 30
0.0
 10
279.0
 20
100.0000000000001137
 30
0.0
 10
279.0
 20
100.0000000000001137
 30
0.0
  0
LINE
  5
138
100
AcDbEntity
100
AcDbLine
  8
0
 62
256
370
-1
  6
DOT2
 10
230.0000000000000284
 20
100.000000000000199
 30
0.0
 11
230.0000000000000284
 21
130.0000000000001137
 31
0.0
  0
LINE
  5
139
100
AcDbEntity
100
AcDbLine
  8
0
 62
256
370
-1
  6
DOT2
 10
230.0000000000000284
 20
130.0000000000001137
 30
0.0
 11
280.0
 21
130.0000000000001137
 31
0.0
  0
LINE
  5
13A
100
AcDbEntity
100
AcDbLine
  8
0
 62
256
370
-1
  6
DOT2
 10
230.0000000000000284
 20
100.000000000000199
 30
0.0
 11
280.0
 21
100.000000000000199
 31
0.0
  0
SPLINE
  5
13B
  8
0
 62
256
370
-1
  6
BYLAYER
100
AcDbEntity
100
AcDbSpline
 70
8
 71
3
 72
17
 73
13
 74
0
 40
0.0
 40
0.0
 40
0.0
 40
0.0
 40
1.0
 40
2.0
 40
3.0
 40
4.0
 40
5.0
 40
6.0
 40
7.0
 40
8.0
 40
9.0
 40
10.0
 40
10.0
 40
10.0
 40
10.0
 10
231.0000000000000284
 20
70.0000000000002132
 30
0.0
 10
231.0000000000000284
 20
82.0000000000002132
 30
0.0
 10
232.0000000000000284
 20
95.0000000000002132
 30
0.0
 10
237.0000000000000284
 20
97.0000000000002132
 30
0.0
 10
252.0000000000000284
 20
97.0000000000002132
 30
0.0
 10
265.0
 20
92.0000000000002132
 30
0.0
 10
269.0
 20
87.0000000000002132
 30
0.0
 10
275.0
 20
79.0000000000002132
 30
0.0
 10
279.0
 20
70.0000000000002132
 30
0.0
 10
279.0
 20
70.0000000000002132
 30
0.0
 10
279.0
 20
70.0000000000002132
 30
0.0
 10
279.0
 20
70.0000000000002132
 30
0.0
 10
279.0
 20
70.0000000000002132
 30
0.0
  0
LINE
  5
13C
100
AcDbEntity
100
AcDbLine
  8
0
 62
256
370
-1
  6
DOT2
 10
230.0000000000000284
 20
70.0000000000002984
 30
0.0
 11
230.0000000000000284
 21
100.0000000000002132
 31
0.0
  0
LINE
  5
13D
100
AcDbEntity
100
AcDbLine
  8
0
 62
256
370
-1
  6
DOT2
 10
230.0000000000000284
 20
100.0000000000002132
 30
0.0
 11
280.0
 21
100.0000000000002132
 31
0.0
  0
LINE
  5
13E
100
AcDbEntity
100
AcDbLine
  8
0
 62
256
370
-1
  6
DOT2
 10
230.0000000000000284
 20
70.0000000000002984
 30
0.0
 11
280.0
 21
70.0000000000002984
 31
0.0
  0
SPLINE
  5
13F
  8
0
 62
256
370
-1
  6
BYLAYER
100
AcDbEntity
100
AcDbSpline
 70
8
 71
3
 72
17
 73
13
 74
0
 40
0.0
 40
0.0
 40
0.0
 40
0.0
 40
1.0
 40
2.0
 40
3.0
 40
4.0
 40
5.0
 40
6.0
 40
7.0
 40
8.0
 40
9.0
 40
10.0
 40
10.0
 40
10.0
 40
10.0
 10
231.0000000000000284
 20
40.0000000000003126
 30
0.0
 10
231.0000000000000284
 20
52.0000000000003126
 30
0.0
 10
232.0000000000000284
 20
65.0000000000003126
 30
0.0
 10
237.0000000000000284
 20
67.0000000000003126
 30
0.0
 10
252.0000000000000284
 20
67.0000000000003126
 30
0.0
 10
265.0
 20
62.0000000000003126
 30
0.0
 10
269.0
 20
57.0000000000003126
 30
0.0
 10
275.0
 20
49.0000000000003126
 30
0.0
 10
279.0
 20
40.0000000000003126
 30
0.0
 10
279.0
 20
40.0000000000003126
 30
0.0
 10
279.0
 20
40.0000000000003126
 30
0.0
 10
279.0
 20
40.0000000000003126
 30
0.0
 10
279.0
 20
40.0000000000003126
 30
0.0
  0
LINE
  5
140
100
AcDbEntity
100
AcDbLine
  8
0
 62
256
370
-1
  6
DOT2
 10
230.0000000000000284
 20
40.0000000000003979
 30
0.0
 11
230.0000000000000284
 21
70.0000000000003126
 31
0.0
  0
LINE
  5
141
100
AcDbEntity
100
AcDbLine
  8
0
 62
256
370
-1
  6
DOT2
 10
230.0000000000000284
 20
70.0000000000003126
 30
0.0
 11
280.0
 21
70.0000000000003126
 31
0.0
  0
LINE
  5
142
100
AcDbEntity
100
AcDbLine
  8
0
 62
256
370
-1
  6
DOT2
 10
230.0000000000000284
 20
40.0000000000003979
 30
0.0
 11
280.0
 21
40.0000000000003979
 31
0.0
  0
SPLINE
  5
143
  8
0
 62
256
370
-1
  6
BYLAYER
100
AcDbEntity
100
AcDbSpline
 70
8
 71
3
 72
17
 73
13
 74
0
 40
0.0
 40
0.0
 40
0.0
 40
0.0
 40
1.0
 40
2.0
 40
3.0
 40
4.0
 40
5.0
 40
6.0
 40
7.0
 40
8.0
 40
9.0
 40
10.0
 40
10.0
 40
10.0
 40
10.0
 10
231.0000000000000284
 20
10.0000000000004121
 30
0.0
 10
231.0000000000000284
 20
22.0000000000004121
 30
0.0
 10
232.0000000000000284
 20
35.0000000000004121
 30
0.0
 10
237.0000000000000284
 20
37.0000000000004121
 30
0.0
 10
252.0000000000000284
 20
37.0000000000004121
 30
0.0
 10
265.0
 20
32.0000000000004121
 30
0.0
 10
269.0
 20
27.0000000000004121
 30
0.0
 10
275.0
 20
19.0000000000004121
 30
0.0
 10
279.0
 20
10.0000000000004121
 30
0.0
 10
279.0
 20
10.0000000000004121
 30
0.0
 10
279.0
 20
10.0000000000004121
 30
0.0
 10
279.0
 20
10.0000000000004121
 30
0.0
 10
279.0
 20
10.0000000000004121
 30
0.0
  0
LINE
  5
144
100
AcDbEntity
100
AcDbLine
  8
0
 62
256
370
-1
  6
DOT2
 10
230.0000000000000284
 20
10.0000000000004974
 30
0.0
 11
230.0000000000000284
 21
40.0000000000004121
 31
0.0
  0
LINE
  5
145
100
AcDbEntity
100
AcDbLine
  8
0
 62
256
370
-1
  6
DOT2
 10
230.0000000000000284
 20
40.0000000000004121
 30
0.0
 11
280.0
 21
40.0000000000004121
 31
0.0
  0
LINE
  5
146
100
AcDbEntity
100
AcDbLine
  8
0
 62
256
370
-1
  6
DOT2
 10
230.0000000000000284
 20
10.0000000000004974
 30
0.0
 11
280.0
 21
10.0000000000004974
 31
0.0
  0
SPLINE
  5
147
  8
0
 62
256
370
-1
  6
BYLAYER
100
AcDbEntity
100
AcDbSpline
 70
8
 71
3
 72
17
 73
13
 74
0
 40
0.0
 40
0.0
 40
0.0
 40
0.0
 40
1.0
 40
2.0
 40
3.0
 40
4.0
 40
5.0
 40
6.0
 40
7.0
 40
8.0
 40
9.0
 40
10.0
 40
10.0
 40
10.0
 40
10.0
 10
231.0000000000000284
 20
-19.9999999999994742
 30
0.0
 10
231.0000000000000284
 20
-7.9999999999994742
 30
0.0
 10
232.0000000000000284
 20
5.0000000000005258
 30
0.0
 10
237.0000000000000284
 20
7.0000000000005258
 30
0.0
 10
252.0000000000000284
 20
7.0000000000005258
 30
0.0
 10
265.0
 20
2.0000000000005258
 30
0.0
 10
269.0
 20
-2.9999999999994742
 30
0.0
 10
275.0
 20
-10.9999999999994742
 30
0.0
 10
279.0
 20
-19.9999999999994742
 30
0.0
 10
279.0
 20
-19.9999999999994742
 30
0.0
 10
279.0
 20
-19.9999999999994742
 30
0.0
 10
279.0
 20
-19.9999999999994742
 30
0.0
 10
279.0
 20
-19.9999999999994742
 30
0.0
  0
LINE
  5
148
100
AcDbEntity
100
AcDbLine
  8
0
 62
256
370
-1
  6
BYLAYER
 10
75.7608284791285342
 20
127.0
 30
0.0
 11
90.2391715208714658
 21
127.0
 31
0.0
  0
LINE
  5
149
100
AcDbEntity
100
AcDbLine
  8
0
 62
256
370
-1
  6
BYLAYER
 10
71.0
 20
100.0
 30
0.0
 11
75.7608284791285485
 21
127.0
 31
0.0
  0
LINE
  5
14A
100
AcDbEntity
100
AcDbLine
  8
0
 62
256
370
-1
  6
BYLAYER
 10
94.9999999999999858
 20
100.0
 30
0.0
 11
90.2391715208714515
 21
127.0
 31
0.0
  0
DIMENSION
  5
14B
100
AcDbEntity
  8
0
 62
256
370
-1
  6
BYLAYER
100
AcDbDimension
 10
69.9000000000000057
 20
129.9999999999998863
 30
0.0
 11
72.3661505153776403
 21
121.9498193756690938
 31
0.0
 70
2
 71
8
 72
2
 41
1.0
 42
0.0
  1

  3
Standard
100
AcDb2LineAngularDimension
 13
75.7608284791285485
 23
127.0
 33
0.0
 14
71.0
 24
100.0
 34
0.0
 15
69.9000000000000057
 25
99.9999999999999005
 35
0.0
 16
73.0
 26
120.0
 36
0.0
  0
LINE
  5
14C
100
AcDbEntity
100
AcDbLine
  8
0
 62
256
370
-1
  6
BYLAYER
 10
75.4081745177116147
 20
55.0000000000000142
 30
0.0
 11
90.5918254822883853
 21
55.0000000000000142
 31
0.0
  0
LINE
  5
14D
100
AcDbEntity
100
AcDbLine
  8
0
 62
256
370
-1
  6
BYLAYER
 10
71.0
 20
30.0000000000000142
 30
0.0
 11
75.4081745177116147
 21
55.0000000000000142
 31
0.0
  0
LINE
  5
14E
100
AcDbEntity
100
AcDbLine
  8
0
 62
256
370
-1
  6
BYLAYER
 10
94.9999999999999858
 20
30.0000000000000142
 30
0.0
 11
90.5918254822883853
 21
55.0000000000000284
 31
0.0
  0
DIMENSION
  5
14F
100
AcDbEntity
  8
0
 62
256
370
-1
  6
BYLAYER
100
AcDbDimension
 10
69.9000000000000057
 20
59.9999999999999005
 30
0.0
 11
72.3661505153776545
 21
51.949819375669108
 31
0.0
 70
2
 71
8
 72
2
 41
1.0
 42
0.0
  1

  3
Standard
100
AcDb2LineAngularDimension
 13
75.4081745177116147
 23
55.0000000000000142
 33
0.0
 14
71.0
 24
30.0000000000000142
 34
0.0
 15
69.9000000000000057
 25
29.9999999999999147
 35
0.0
 16
73.0
 26
50.0000000000000142
 36
0.0
  0
LINE
  5
150
100
AcDbEntity
100
AcDbLine
  8
0
 62
256
370
-1
  6
DOT2
 10
357.0000000000000568
 20
160.0000000000000568
 30
0.0
 11
357.0000000000000568
 21
-79.9999999999991758
 31
0.0
  0
LINE
  5
151
100
AcDbEntity
100
AcDbLine
  8
0
 62
256
370
-1
  6
DOT2
 10
307.0000000000000568
 20
160.0000000000000568
 30
0.0
 11
307.0000000000000568
 21
-79.9999999999991758
 31
0.0
  0
LINE
  5
152
100
AcDbEntity
100
AcDbLine
  8
0
 62
256
370
-1
  6
DOT2
 10
280.0
 20
160.0000000000000284
 30
0.0
 11
280.0
 21
-79.9999999999992184
 31
0.0
  0
MTEXT
  5
153
100
AcDbEntity
100
AcDbMText
  8
0
 62
256
370
-1
  6
BYLAYER
 10
248.408209631659787
 20
172.188378036055326
 30
0.0
 40
2.5
 41
0.0
 71
1
 72
1
  1
Side Profiles (cut out each square and glue to the side of each\Passembled lug, then cut along the solid lines with the scroll saw.)
  7
textstyle3
 50
0.0
 73
2
 44
1.0
  0
LINE
  5
154
100
AcDbEntity
100
AcDbLine
  8
0
 62
256
370
-1
  6
DOT2
 10
449.9999999999999432
 20
156.0
 30
0.0
 11
449.9999999999998295
 21
-59.0000000000000426
 31
0.0
  0
LINE
  5
155
100
AcDbEntity
100
AcDbLine
  8
0
 62
256
370
-1
  6
DOT2
 10
419.9999999999999432
 20
-59.0000000000000426
 30
0.0
 11
420.0000000000000568
 21
156.0
 31
0.0
  0
LINE
  5
156
100
AcDbEntity
100
AcDbLine
  8
0
 62
256
370
-1
  6
DOT2
 10
489.9999999999998295
 20
51.0000000000000284
 30
0.0
 11
489.9999999999998295
 21
101.0000000000000426
 31
0.0
  0
LINE
  5
157
100
AcDbEntity
100
AcDbLine
  8
0
 62
256
370
-1
  6
DOT2
 10
489.9999999999998863
 20
156.0000000000000284
 30
0.0
 11
489.9999999999997726
 21
-59.0000000000000142
 31
0.0
  0
LINE
  5
158
100
AcDbEntity
100
AcDbLine
  8
0
 62
256
370
-1
  6
DOT2
 10
459.9999999999998863
 20
-59.0000000000000142
 30
0.0
 11
460.0
 21
156.0000000000000284
 31
0.0
  0
LINE
  5
159
100
AcDbEntity
100
AcDbLine
  8
0
 62
256
370
-1
  6
DOT2
 10
489.9999999999998295
 20
-3.9999999999999858
 30
0.0
 11
489.9999999999998295
 21
46.0000000000000284
 31
0.0
  0
LINE
  5
15A
100
AcDbEntity
100
AcDbLine
  8
0
 62
256
370
-1
  6
DOT2
 10
489.9999999999997726
 20
-59.0000000000000142
 30
0.0
 11
489.9999999999997726
 21
-9.0
 31
0.0
  0
SPLINE
  5
15B
  8
0
 62
256
370
-1
  6
DOT2
100
AcDbEntity
100
AcDbSpline
 70
8
 71
3
 72
17
 73
13
 74
0
 40
0.0
 40
0.0
 40
0.0
 40
0.0
 40
1.0
 40
2.0
 40
3.0
 40
4.0
 40
5.0
 40
6.0
 40
7.0
 40
8.0
 40
9.0
 40
10.0
 40
10.0
 40
10.0
 40
10.0
 10
489.9999999999998863
 20
107.0000000000000426
 30
0.0
 10
478.0
 20
107.0000000000000426
 30
0.0
 10
465.0
 20
108.0000000000000426
 30
0.0
 10
463.0
 20
113.0000000000000426
 30
0.0
 10
463.0
 20
128.0000000000000568
 30
0.0
 10
467.9999999999999432
 20
141.0000000000000568
 30
0.0
 10
472.9999999999999432
 20
145.0000000000000568
 30
0.0
 10
480.9999999999999432
 20
151.0000000000000568
 30
0.0
 10
489.9999999999998863
 20
155.0000000000000568
 30
0.0
 10
489.9999999999998863
 20
155.0000000000000568
 30
0.0
 10
489.9999999999998863
 20
155.0000000000000568
 30
0.0
 10
489.9999999999998863
 20
155.0000000000000568
 30
0.0
 10
489.9999999999998863
 20
155.0000000000000568
 30
0.0
  0
SPLINE
  5
15C
  8
0
 62
256
370
-1
  6
BYLAYER
100
AcDbEntity
100
AcDbSpline
 70
8
 71
3
 72
9
 73
5
 74
0
 40
0.0
 40
0.0
 40
0.0
 40
0.0
 40
1.0
 40
2.0
 40
2.0
 40
2.0
 40
2.0
 10
468.9999999999998863
 20
124.0000000000000426
 30
0.0
 10
469.0
 20
134.0000000000000568
 30
0.0
 10
469.0
 20
138.0000000000000568
 30
0.0
 10
472.9999999999998863
 20
138.0000000000000568
 30
0.0
 10
489.9999999999998863
 20
138.0000000000000568
 30
0.0
  0
LINE
  5
15D
100
AcDbEntity
100
AcDbLine
  8
0
 62
256
370
-1
  6
DOT2
 10
489.9999999999998863
 20
106.0000000000000426
 30
0.0
 11
489.9999999999998863
 21
156.0000000000000568
 31
0.0
  0
LINE
  5
15E
100
AcDbEntity
100
AcDbLine
  8
0
 62
256
370
-1
  6
DOT2
 10
489.9999999999998863
 20
106.0000000000000426
 30
0.0
 11
460.0
 21
106.0000000000000426
 31
0.0
  0
LINE
  5
15F
100
AcDbEntity
100
AcDbLine
  8
0
 62
256
370
-1
  6
BYLAYER
 10
479.9999999999998863
 20
124.0000000000000426
 30
0.0
 11
479.9999999999998863
 21
126.0000000000000426
 31
0.0
  0
LINE
  5
160
100
AcDbEntity
100
AcDbLine
  8
0
 62
256
370
-1
  6
DOT2
 10
460.0
 20
106.0000000000000426
 30
0.0
 11
460.0
 21
156.0000000000000568
 31
0.0
  0
LINE
  5
161
100
AcDbEntity
100
AcDbLine
  8
0
 62
256
370
-1
  6
BYLAYER
 10
479.9999999999998863
 20
126.0000000000000426
 30
0.0
 11
469.0004987089843667
 21
126.0072576594437095
 31
0.0
  0
LINE
  5
162
100
AcDbEntity
100
AcDbLine
  8
0
 62
256
370
-1
  6
DOT2
 10
460.0
 20
156.0000000000000568
 30
0.0
 11
489.9999999999998863
 21
156.0000000000000568
 31
0.0
  0
LINE
  5
163
100
AcDbEntity
100
AcDbLine
  8
0
 62
256
370
-1
  6
BYLAYER
 10
468.9999999999998863
 20
124.0000000000000426
 30
0.0
 11
489.9999999999998863
 21
124.0000000000000426
 31
0.0
  0
SPLINE
  5
164
  8
0
 62
256
370
-1
  6
DOT2
100
AcDbEntity
100
AcDbSpline
 70
8
 71
3
 72
17
 73
13
 74
0
 40
0.0
 40
0.0
 40
0.0
 40
0.0
 40
1.0
 40
2.0
 40
3.0
 40
4.0
 40
5.0
 40
6.0
 40
7.0
 40
8.0
 40
9.0
 40
10.0
 40
10.0
 40
10.0
 40
10.0
 10
489.9999999999998295
 20
52.0000000000000284
 30
0.0
 10
477.9999999999999432
 20
52.0000000000000284
 30
0.0
 10
464.9999999999999432
 20
53.0000000000000284
 30
0.0
 10
462.9999999999999432
 20
58.0000000000000284
 30
0.0
 10
462.9999999999999432
 20
73.0000000000000426
 30
0.0
 10
467.9999999999998863
 20
86.0000000000000426
 30
0.0
 10
472.9999999999998863
 20
90.0000000000000426
 30
0.0
 10
480.9999999999998863
 20
96.0000000000000426
 30
0.0
 10
489.9999999999998295
 20
100.0000000000000426
 30
0.0
 10
489.9999999999998295
 20
100.0000000000000426
 30
0.0
 10
489.9999999999998295
 20
100.0000000000000426
 30
0.0
 10
489.9999999999998295
 20
100.0000000000000426
 30
0.0
 10
489.9999999999998295
 20
100.0000000000000426
 30
0.0
  0
SPLINE
  5
165
  8
0
 62
256
370
-1
  6
BYLAYER
100
AcDbEntity
100
AcDbSpline
 70
8
 71
3
 72
9
 73
5
 74
0
 40
0.0
 40
0.0
 40
0.0
 40
0.0
 40
1.0
 40
2.0
 40
2.0
 40
2.0
 40
2.0
 10
468.9999999999998295
 20
69.0000000000000284
 30
0.0
 10
468.9999999999999432
 20
79.0000000000000284
 30
0.0
 10
468.9999999999999432
 20
83.0000000000000426
 30
0.0
 10
472.9999999999998295
 20
83.0000000000000426
 30
0.0
 10
489.9999999999998295
 20
83.0000000000000426
 30
0.0
  0
LINE
  5
166
100
AcDbEntity
100
AcDbLine
  8
0
 62
256
370
-1
  6
DOT2
 10
489.9999999999998295
 20
51.0000000000000284
 30
0.0
 11
489.9999999999998295
 21
101.0000000000000426
 31
0.0
  0
LINE
  5
167
100
AcDbEntity
100
AcDbLine
  8
0
 62
256
370
-1
  6
DOT2
 10
489.9999999999998295
 20
51.0000000000000284
 30
0.0
 11
459.9999999999999432
 21
51.0000000000000284
 31
0.0
  0
LINE
  5
168
100
AcDbEntity
100
AcDbLine
  8
0
 62
256
370
-1
  6
BYLAYER
 10
479.9999999999998295
 20
69.0000000000000284
 30
0.0
 11
479.9999999999998295
 21
71.0000000000000284
 31
0.0
  0
LINE
  5
169
100
AcDbEntity
100
AcDbLine
  8
0
 62
256
370
-1
  6
DOT2
 10
459.9999999999999432
 20
51.0000000000000284
 30
0.0
 11
459.9999999999999432
 21
101.0000000000000426
 31
0.0
  0
LINE
  5
16A
100
AcDbEntity
100
AcDbLine
  8
0
 62
256
370
-1
  6
BYLAYER
 10
479.9999999999998295
 20
71.0000000000000284
 30
0.0
 11
469.0004987089843098
 21
71.0072576594436953
 31
0.0
  0
LINE
  5
16B
100
AcDbEntity
100
AcDbLine
  8
0
 62
256
370
-1
  6
DOT2
 10
459.9999999999999432
 20
101.0000000000000426
 30
0.0
 11
489.9999999999998295
 21
101.0000000000000426
 31
0.0
  0
LINE
  5
16C
100
AcDbEntity
100
AcDbLine
  8
0
 62
256
370
-1
  6
BYLAYER
 10
468.9999999999998295
 20
69.0000000000000284
 30
0.0
 11
489.9999999999998295
 21
69.0000000000000284
 31
0.0
  0
SPLINE
  5
16D
  8
0
 62
256
370
-1
  6
DOT2
100
AcDbEntity
100
AcDbSpline
 70
8
 71
3
 72
17
 73
13
 74
0
 40
0.0
 40
0.0
 40
0.0
 40
0.0
 40
1.0
 40
2.0
 40
3.0
 40
4.0
 40
5.0
 40
6.0
 40
7.0
 40
8.0
 40
9.0
 40
10.0
 40
10.0
 40
10.0
 40
10.0
 10
489.9999999999998295
 20
-2.9999999999999858
 30
0.0
 10
477.9999999999999432
 20
-2.9999999999999858
 30
0.0
 10
464.9999999999999432
 20
-1.9999999999999858
 30
0.0
 10
462.9999999999999432
 20
3.0000000000000142
 30
0.0
 10
462.9999999999999432
 20
18.0000000000000284
 30
0.0
 10
467.9999999999998863
 20
31.0000000000000284
 30
0.0
 10
472.9999999999998863
 20
35.0000000000000284
 30
0.0
 10
480.9999999999998863
 20
41.0000000000000284
 30
0.0
 10
489.9999999999998295
 20
45.0000000000000284
 30
0.0
 10
489.9999999999998295
 20
45.0000000000000284
 30
0.0
 10
489.9999999999998295
 20
45.0000000000000284
 30
0.0
 10
489.9999999999998295
 20
45.0000000000000284
 30
0.0
 10
489.9999999999998295
 20
45.0000000000000284
 30
0.0
  0
SPLINE
  5
16E
  8
0
 62
256
370
-1
  6
BYLAYER
100
AcDbEntity
100
AcDbSpline
 70
8
 71
3
 72
9
 73
5
 74
0
 40
0.0
 40
0.0
 40
0.0
 40
0.0
 40
1.0
 40
2.0
 40
2.0
 40
2.0
 40
2.0
 10
468.9999999999998295
 20
14.0000000000000142
 30
0.0
 10
468.9999999999999432
 20
24.0000000000000142
 30
0.0
 10
468.9999999999999432
 20
28.0000000000000284
 30
0.0
 10
472.9999999999998295
 20
28.0000000000000284
 30
0.0
 10
489.9999999999998295
 20
28.0000000000000284
 30
0.0
  0
LINE
  5
16F
100
AcDbEntity
100
AcDbLine
  8
0
 62
256
370
-1
  6
DOT2
 10
489.9999999999998295
 20
-3.9999999999999858
 30
0.0
 11
489.9999999999998295
 21
46.0000000000000284
 31
0.0
  0
LINE
  5
170
100
AcDbEntity
100
AcDbLine
  8
0
 62
256
370
-1
  6
DOT2
 10
489.9999999999998295
 20
-3.9999999999999858
 30
0.0
 11
459.9999999999999432
 21
-3.9999999999999858
 31
0.0
  0
LINE
  5
171
100
AcDbEntity
100
AcDbLine
  8
0
 62
256
370
-1
  6
BYLAYER
 10
479.9999999999998295
 20
14.0000000000000142
 30
0.0
 11
479.9999999999998295
 21
16.0000000000000142
 31
0.0
  0
LINE
  5
172
100
AcDbEntity
100
AcDbLine
  8
0
 62
256
370
-1
  6
DOT2
 10
459.9999999999999432
 20
-3.9999999999999858
 30
0.0
 11
459.9999999999999432
 21
46.0000000000000284
 31
0.0
  0
LINE
  5
173
100
AcDbEntity
100
AcDbLine
  8
0
 62
256
370
-1
  6
BYLAYER
 10
479.9999999999998295
 20
16.0000000000000142
 30
0.0
 11
469.0004987089843098
 21
16.0072576594436811
 31
0.0
  0
LINE
  5
174
100
AcDbEntity
100
AcDbLine
  8
0
 62
256
370
-1
  6
DOT2
 10
459.9999999999999432
 20
46.0000000000000284
 30
0.0
 11
489.9999999999998295
 21
46.0000000000000284
 31
0.0
  0
LINE
  5
175
100
AcDbEntity
100
AcDbLine
  8
0
 62
256
370
-1
  6
BYLAYER
 10
468.9999999999998295
 20
14.0000000000000142
 30
0.0
 11
489.9999999999998295
 21
14.0000000000000142
 31
0.0
  0
SPLINE
  5
176
  8
0
 62
256
370
-1
  6
DOT2
100
AcDbEntity
100
AcDbSpline
 70
8
 71
3
 72
17
 73
13
 74
0
 40
0.0
 40
0.0
 40
0.0
 40
0.0
 40
1.0
 40
2.0
 40
3.0
 40
4.0
 40
5.0
 40
6.0
 40
7.0
 40
8.0
 40
9.0
 40
10.0
 40
10.0
 40
10.0
 40
10.0
 10
489.9999999999997726
 20
-58.0000000000000142
 30
0.0
 10
477.9999999999998863
 20
-58.0000000000000142
 30
0.0
 10
464.9999999999998863
 20
-57.0000000000000142
 30
0.0
 10
462.9999999999998863
 20
-52.0000000000000142
 30
0.0
 10
462.9999999999998863
 20
-37.0
 30
0.0
 10
467.9999999999998295
 20
-24.0
 30
0.0
 10
472.9999999999998295
 20
-20.0
 30
0.0
 10
480.9999999999998295
 20
-14.0
 30
0.0
 10
489.9999999999997726
 20
-10.0
 30
0.0
 10
489.9999999999997726
 20
-10.0
 30
0.0
 10
489.9999999999997726
 20
-10.0
 30
0.0
 10
489.9999999999997726
 20
-10.0
 30
0.0
 10
489.9999999999997726
 20
-10.0
 30
0.0
  0
SPLINE
  5
177
  8
0
 62
256
370
-1
  6
BYLAYER
100
AcDbEntity
100
AcDbSpline
 70
8
 71
3
 72
9
 73
5
 74
0
 40
0.0
 40
0.0
 40
0.0
 40
0.0
 40
1.0
 40
2.0
 40
2.0
 40
2.0
 40
2.0
 10
468.9999999999997726
 20
-41.0000000000000142
 30
0.0
 10
468.9999999999998863
 20
-31.0000000000000142
 30
0.0
 10
468.9999999999998863
 20
-27.0
 30
0.0
 10
472.9999999999997726
 20
-27.0
 30
0.0
 10
489.9999999999997726
 20
-27.0
 30
0.0
  0
LINE
  5
178
100
AcDbEntity
100
AcDbLine
  8
0
 62
256
370
-1
  6
DOT2
 10
489.9999999999997726
 20
-59.0000000000000142
 30
0.0
 11
489.9999999999997726
 21
-9.0
 31
0.0
  0
LINE
  5
179
100
AcDbEntity
100
AcDbLine
  8
0
 62
256
370
-1
  6
DOT2
 10
489.9999999999997726
 20
-59.0000000000000142
 30
0.0
 11
459.9999999999998863
 21
-59.0000000000000142
 31
0.0
  0
LINE
  5
17A
100
AcDbEntity
100
AcDbLine
  8
0
 62
256
370
-1
  6
BYLAYER
 10
479.9999999999997726
 20
-41.0000000000000142
 30
0.0
 11
479.9999999999997726
 21
-39.0000000000000142
 31
0.0
  0
LINE
  5
17B
100
AcDbEntity
100
AcDbLine
  8
0
 62
256
370
-1
  6
DOT2
 10
459.9999999999998863
 20
-59.0000000000000142
 30
0.0
 11
459.9999999999998863
 21
-9.0
 31
0.0
  0
LINE
  5
17C
100
AcDbEntity
100
AcDbLine
  8
0
 62
256
370
-1
  6
BYLAYER
 10
479.9999999999997726
 20
-39.0000000000000142
 30
0.0
 11
469.000498708984253
 21
-38.9927423405563474
 31
0.0
  0
LINE
  5
17D
100
AcDbEntity
100
AcDbLine
  8
0
 62
256
370
-1
  6
DOT2
 10
459.9999999999998863
 20
-9.0
 30
0.0
 11
489.9999999999997726
 21
-9.0
 31
0.0
  0
LINE
  5
17E
100
AcDbEntity
100
AcDbLine
  8
0
 62
256
370
-1
  6
BYLAYER
 10
468.9999999999997726
 20
-41.0000000000000142
 30
0.0
 11
489.9999999999997726
 21
-41.0000000000000142
 31
0.0
  0
LINE
  5
17F
100
AcDbEntity
100
AcDbLine
  8
0
 62
256
370
-1
  6
DOT2
 10
489.9999999999998863
 20
106.0000000000000426
 30
0.0
 11
489.9999999999998863
 21
156.0000000000000568
 31
0.0
  0
LINE
  5
180
100
AcDbEntity
100
AcDbLine
  8
0
 62
256
370
-1
  6
DOT2
 10
529.9999999999997726
 20
51.0000000000000568
 30
0.0
 11
529.9999999999997726
 21
101.0000000000000711
 31
0.0
  0
LINE
  5
181
100
AcDbEntity
100
AcDbLine
  8
0
 62
256
370
-1
  6
DOT2
 10
529.9999999999997726
 20
156.0000000000000568
 30
0.0
 11
529.9999999999997726
 21
-58.9999999999999858
 31
0.0
  0
LINE
  5
182
100
AcDbEntity
100
AcDbLine
  8
0
 62
256
370
-1
  6
DOT2
 10
499.9999999999998295
 20
-58.9999999999999858
 30
0.0
 11
499.9999999999999432
 21
156.0000000000000568
 31
0.0
  0
LINE
  5
183
100
AcDbEntity
100
AcDbLine
  8
0
 62
256
370
-1
  6
DOT2
 10
529.9999999999997726
 20
-3.9999999999999574
 30
0.0
 11
529.9999999999997726
 21
46.0000000000000568
 31
0.0
  0
LINE
  5
184
100
AcDbEntity
100
AcDbLine
  8
0
 62
256
370
-1
  6
DOT2
 10
529.9999999999997726
 20
-58.9999999999999858
 30
0.0
 11
529.9999999999997726
 21
-8.9999999999999716
 31
0.0
  0
SPLINE
  5
185
  8
0
 62
256
370
-1
  6
DOT2
100
AcDbEntity
100
AcDbSpline
 70
8
 71
3
 72
17
 73
13
 74
0
 40
0.0
 40
0.0
 40
0.0
 40
0.0
 40
1.0
 40
2.0
 40
3.0
 40
4.0
 40
5.0
 40
6.0
 40
7.0
 40
8.0
 40
9.0
 40
10.0
 40
10.0
 40
10.0
 40
10.0
 10
529.9999999999997726
 20
107.0000000000000711
 30
0.0
 10
518.0
 20
107.0000000000000711
 30
0.0
 10
504.9999999999999432
 20
108.0000000000000711
 30
0.0
 10
502.9999999999999432
 20
113.0000000000000711
 30
0.0
 10
502.9999999999999432
 20
128.0000000000000853
 30
0.0
 10
507.9999999999998863
 20
141.0000000000000853
 30
0.0
 10
512.9999999999998863
 20
145.0000000000000853
 30
0.0
 10
520.9999999999998863
 20
151.0000000000000853
 30
0.0
 10
529.9999999999997726
 20
155.0000000000000853
 30
0.0
 10
529.9999999999997726
 20
155.0000000000000853
 30
0.0
 10
529.9999999999997726
 20
155.0000000000000853
 30
0.0
 10
529.9999999999997726
 20
155.0000000000000853
 30
0.0
 10
529.9999999999997726
 20
155.0000000000000853
 30
0.0
  0
SPLINE
  5
186
  8
0
 62
256
370
-1
  6
BYLAYER
100
AcDbEntity
100
AcDbSpline
 70
8
 71
3
 72
9
 73
5
 74
0
 40
0.0
 40
0.0
 40
0.0
 40
0.0
 40
1.0
 40
2.0
 40
2.0
 40
2.0
 40
2.0
 10
508.9999999999998295
 20
124.0000000000000711
 30
0.0
 10
508.9999999999999432
 20
134.0000000000000853
 30
0.0
 10
508.9999999999999432
 20
138.0000000000000853
 30
0.0
 10
512.9999999999997726
 20
138.0000000000000853
 30
0.0
 10
529.9999999999997726
 20
138.0000000000000853
 30
0.0
  0
LINE
  5
187
100
AcDbEntity
100
AcDbLine
  8
0
 62
256
370
-1
  6
DOT2
 10
529.9999999999997726
 20
106.0000000000000711
 30
0.0
 11
529.9999999999997726
 21
156.0000000000000853
 31
0.0
  0
LINE
  5
188
100
AcDbEntity
100
AcDbLine
  8
0
 62
256
370
-1
  6
DOT2
 10
529.9999999999997726
 20
106.0000000000000711
 30
0.0
 11
499.9999999999999432
 21
106.0000000000000711
 31
0.0
  0
LINE
  5
189
100
AcDbEntity
100
AcDbLine
  8
0
 62
256
370
-1
  6
BYLAYER
 10
519.9999999999997726
 20
124.0000000000000711
 30
0.0
 11
519.9999999999997726
 21
126.0000000000000711
 31
0.0
  0
LINE
  5
18A
100
AcDbEntity
100
AcDbLine
  8
0
 62
256
370
-1
  6
DOT2
 10
499.9999999999999432
 20
106.0000000000000711
 30
0.0
 11
499.9999999999999432
 21
156.0000000000000853
 31
0.0
  0
LINE
  5
18B
100
AcDbEntity
100
AcDbLine
  8
0
 62
256
370
-1
  6
BYLAYER
 10
519.9999999999997726
 20
126.0000000000000711
 30
0.0
 11
509.0004987089843098
 21
126.0072576594437379
 31
0.0
  0
LINE
  5
18C
100
AcDbEntity
100
AcDbLine
  8
0
 62
256
370
-1
  6
DOT2
 10
499.9999999999999432
 20
156.0000000000000853
 30
0.0
 11
529.9999999999997726
 21
156.0000000000000853
 31
0.0
  0
LINE
  5
18D
100
AcDbEntity
100
AcDbLine
  8
0
 62
256
370
-1
  6
BYLAYER
 10
508.9999999999998295
 20
124.0000000000000711
 30
0.0
 11
529.9999999999997726
 21
124.0000000000000711
 31
0.0
  0
SPLINE
  5
18E
  8
0
 62
256
370
-1
  6
DOT2
100
AcDbEntity
100
AcDbSpline
 70
8
 71
3
 72
17
 73
13
 74
0
 40
0.0
 40
0.0
 40
0.0
 40
0.0
 40
1.0
 40
2.0
 40
3.0
 40
4.0
 40
5.0
 40
6.0
 40
7.0
 40
8.0
 40
9.0
 40
10.0
 40
10.0
 40
10.0
 40
10.0
 10
529.9999999999997726
 20
52.0000000000000568
 30
0.0
 10
517.9999999999998863
 20
52.0000000000000568
 30
0.0
 10
504.9999999999998863
 20
53.0000000000000568
 30
0.0
 10
502.9999999999998863
 20
58.0000000000000568
 30
0.0
 10
502.9999999999998863
 20
73.0000000000000711
 30
0.0
 10
507.9999999999998295
 20
86.0000000000000711
 30
0.0
 10
512.9999999999997726
 20
90.0000000000000711
 30
0.0
 10
520.9999999999997726
 20
96.0000000000000711
 30
0.0
 10
529.9999999999997726
 20
100.0000000000000711
 30
0.0
 10
529.9999999999997726
 20
100.0000000000000711
 30
0.0
 10
529.9999999999997726
 20
100.0000000000000711
 30
0.0
 10
529.9999999999997726
 20
100.0000000000000711
 30
0.0
 10
529.9999999999997726
 20
100.0000000000000711
 30
0.0
  0
SPLINE
  5
18F
  8
0
 62
256
370
-1
  6
BYLAYER
100
AcDbEntity
100
AcDbSpline
 70
8
 71
3
 72
9
 73
5
 74
0
 40
0.0
 40
0.0
 40
0.0
 40
0.0
 40
1.0
 40
2.0
 40
2.0
 40
2.0
 40
2.0
 10
508.9999999999997726
 20
69.0000000000000568
 30
0.0
 10
508.9999999999998863
 20
79.0000000000000568
 30
0.0
 10
508.9999999999998863
 20
83.0000000000000711
 30
0.0
 10
512.9999999999997726
 20
83.0000000000000711
 30
0.0
 10
529.9999999999997726
 20
83.0000000000000711
 30
0.0
  0
LINE
  5
190
100
AcDbEntity
100
AcDbLine
  8
0
 62
256
370
-1
  6
DOT2
 10
529.9999999999997726
 20
51.0000000000000568
 30
0.0
 11
529.9999999999997726
 21
101.0000000000000711
 31
0.0
  0
LINE
  5
191
100
AcDbEntity
100
AcDbLine
  8
0
 62
256
370
-1
  6
DOT2
 10
529.9999999999997726
 20
51.0000000000000568
 30
0.0
 11
499.9999999999998863
 21
51.0000000000000568
 31
0.0
  0
LINE
  5
192
100
AcDbEntity
100
AcDbLine
  8
0
 62
256
370
-1
  6
BYLAYER
 10
519.9999999999997726
 20
69.0000000000000568
 30
0.0
 11
519.9999999999997726
 21
71.0000000000000568
 31
0.0
  0
LINE
  5
193
100
AcDbEntity
100
AcDbLine
  8
0
 62
256
370
-1
  6
DOT2
 10
499.9999999999998863
 20
51.0000000000000568
 30
0.0
 11
499.9999999999998863
 21
101.0000000000000711
 31
0.0
  0
LINE
  5
194
100
AcDbEntity
100
AcDbLine
  8
0
 62
256
370
-1
  6
BYLAYER
 10
519.9999999999997726
 20
71.0000000000000568
 30
0.0
 11
509.000498708984253
 21
71.0072576594437237
 31
0.0
  0
LINE
  5
195
100
AcDbEntity
100
AcDbLine
  8
0
 62
256
370
-1
  6
DOT2
 10
499.9999999999998863
 20
101.0000000000000711
 30
0.0
 11
529.9999999999997726
 21
101.0000000000000711
 31
0.0
  0
LINE
  5
196
100
AcDbEntity
100
AcDbLine
  8
0
 62
256
370
-1
  6
BYLAYER
 10
508.9999999999997726
 20
69.0000000000000568
 30
0.0
 11
529.9999999999997726
 21
69.0000000000000568
 31
0.0
  0
SPLINE
  5
197
  8
0
 62
256
370
-1
  6
DOT2
100
AcDbEntity
100
AcDbSpline
 70
8
 71
3
 72
17
 73
13
 74
0
 40
0.0
 40
0.0
 40
0.0
 40
0.0
 40
1.0
 40
2.0
 40
3.0
 40
4.0
 40
5.0
 40
6.0
 40
7.0
 40
8.0
 40
9.0
 40
10.0
 40
10.0
 40
10.0
 40
10.0
 10
529.9999999999997726
 20
-2.9999999999999574
 30
0.0
 10
517.9999999999998863
 20
-2.9999999999999574
 30
0.0
 10
504.9999999999998863
 20
-1.9999999999999574
 30
0.0
 10
502.9999999999998863
 20
3.0000000000000426
 30
0.0
 10
502.9999999999998863
 20
18.0000000000000568
 30
0.0
 10
507.9999999999998295
 20
31.0000000000000568
 30
0.0
 10
512.9999999999997726
 20
35.0000000000000568
 30
0.0
 10
520.9999999999997726
 20
41.0000000000000568
 30
0.0
 10
529.9999999999997726
 20
45.0000000000000568
 30
0.0
 10
529.9999999999997726
 20
45.0000000000000568
 30
0.0
 10
529.9999999999997726
 20
45.0000000000000568
 30
0.0
 10
529.9999999999997726
 20
45.0000000000000568
 30
0.0
 10
529.9999999999997726
 20
45.0000000000000568
 30
0.0
  0
SPLINE
  5
198
  8
0
 62
256
370
-1
  6
BYLAYER
100
AcDbEntity
100
AcDbSpline
 70
8
 71
3
 72
9
 73
5
 74
0
 40
0.0
 40
0.0
 40
0.0
 40
0.0
 40
1.0
 40
2.0
 40
2.0
 40
2.0
 40
2.0
 10
508.9999999999997726
 20
14.0000000000000426
 30
0.0
 10
508.9999999999998863
 20
24.0000000000000426
 30
0.0
 10
508.9999999999998863
 20
28.0000000000000568
 30
0.0
 10
512.9999999999997726
 20
28.0000000000000568
 30
0.0
 10
529.9999999999997726
 20
28.0000000000000568
 30
0.0
  0
LINE
  5
199
100
AcDbEntity
100
AcDbLine
  8
0
 62
256
370
-1
  6
DOT2
 10
529.9999999999997726
 20
-3.9999999999999574
 30
0.0
 11
529.9999999999997726
 21
46.0000000000000568
 31
0.0
  0
LINE
  5
19A
100
AcDbEntity
100
AcDbLine
  8
0
 62
256
370
-1
  6
DOT2
 10
529.9999999999997726
 20
-3.9999999999999574
 30
0.0
 11
499.9999999999998863
 21
-3.9999999999999574
 31
0.0
  0
LINE
  5
19B
100
AcDbEntity
100
AcDbLine
  8
0
 62
256
370
-1
  6
BYLAYER
 10
519.9999999999997726
 20
14.0000000000000426
 30
0.0
 11
519.9999999999997726
 21
16.0000000000000426
 31
0.0
  0
LINE
  5
19C
100
AcDbEntity
100
AcDbLine
  8
0
 62
256
370
-1
  6
DOT2
 10
499.9999999999998863
 20
-3.9999999999999574
 30
0.0
 11
499.9999999999998863
 21
46.0000000000000568
 31
0.0
  0
LINE
  5
19D
100
AcDbEntity
100
AcDbLine
  8
0
 62
256
370
-1
  6
BYLAYER
 10
519.9999999999997726
 20
16.0000000000000426
 30
0.0
 11
509.000498708984253
 21
16.0072576594437095
 31
0.0
  0
LINE
  5
19E
100
AcDbEntity
100
AcDbLine
  8
0
 62
256
370
-1
  6
DOT2
 10
499.9999999999998863
 20
46.0000000000000568
 30
0.0
 11
529.9999999999997726
 21
46.0000000000000568
 31
0.0
  0
LINE
  5
19F
100
AcDbEntity
100
AcDbLine
  8
0
 62
256
370
-1
  6
BYLAYER
 10
508.9999999999997726
 20
14.0000000000000426
 30
0.0
 11
529.9999999999997726
 21
14.0000000000000426
 31
0.0
  0
SPLINE
  5
1A0
  8
0
 62
256
370
-1
  6
DOT2
100
AcDbEntity
100
AcDbSpline
 70
8
 71
3
 72
17
 73
13
 74
0
 40
0.0
 40
0.0
 40
0.0
 40
0.0
 40
1.0
 40
2.0
 40
3.0
 40
4.0
 40
5.0
 40
6.0
 40
7.0
 40
8.0
 40
9.0
 40
10.0
 40
10.0
 40
10.0
 40
10.0
 10
529.9999999999997726
 20
-57.9999999999999858
 30
0.0
 10
517.9999999999997726
 20
-57.9999999999999858
 30
0.0
 10
504.9999999999998295
 20
-56.9999999999999858
 30
0.0
 10
502.9999999999998295
 20
-51.9999999999999858
 30
0.0
 10
502.9999999999998295
 20
-36.9999999999999716
 30
0.0
 10
507.9999999999997726
 20
-23.9999999999999716
 30
0.0
 10
512.9999999999997726
 20
-19.9999999999999716
 30
0.0
 10
520.9999999999997726
 20
-13.9999999999999716
 30
0.0
 10
529.9999999999997726
 20
-9.9999999999999716
 30
0.0
 10
529.9999999999997726
 20
-9.9999999999999716
 30
0.0
 10
529.9999999999997726
 20
-9.9999999999999716
 30
0.0
 10
529.9999999999997726
 20
-9.9999999999999716
 30
0.0
 10
529.9999999999997726
 20
-9.9999999999999716
 30
0.0
  0
SPLINE
  5
1A1
  8
0
 62
256
370
-1
  6
BYLAYER
100
AcDbEntity
100
AcDbSpline
 70
8
 71
3
 72
9
 73
5
 74
0
 40
0.0
 40
0.0
 40
0.0
 40
0.0
 40
1.0
 40
2.0
 40
2.0
 40
2.0
 40
2.0
 10
508.9999999999997158
 20
-40.9999999999999858
 30
0.0
 10
508.9999999999998295
 20
-30.9999999999999858
 30
0.0
 10
508.9999999999998295
 20
-26.9999999999999716
 30
0.0
 10
512.9999999999997726
 20
-26.9999999999999716
 30
0.0
 10
529.9999999999997726
 20
-26.9999999999999716
 30
0.0
  0
LINE
  5
1A2
100
AcDbEntity
100
AcDbLine
  8
0
 62
256
370
-1
  6
DOT2
 10
529.9999999999997726
 20
-58.9999999999999858
 30
0.0
 11
529.9999999999997726
 21
-8.9999999999999716
 31
0.0
  0
LINE
  5
1A3
100
AcDbEntity
100
AcDbLine
  8
0
 62
256
370
-1
  6
DOT2
 10
529.9999999999997726
 20
-58.9999999999999858
 30
0.0
 11
499.9999999999998295
 21
-58.9999999999999858
 31
0.0
  0
LINE
  5
1A4
100
AcDbEntity
100
AcDbLine
  8
0
 62
256
370
-1
  6
BYLAYER
 10
519.9999999999997726
 20
-40.9999999999999858
 30
0.0
 11
519.9999999999997726
 21
-38.9999999999999858
 31
0.0
  0
LINE
  5
1A5
100
AcDbEntity
100
AcDbLine
  8
0
 62
256
370
-1
  6
DOT2
 10
499.9999999999998295
 20
-58.9999999999999858
 30
0.0
 11
499.9999999999998295
 21
-8.9999999999999716
 31
0.0
  0
LINE
  5
1A6
100
AcDbEntity
100
AcDbLine
  8
0
 62
256
370
-1
  6
BYLAYER
 10
519.9999999999997726
 20
-38.9999999999999858
 30
0.0
 11
509.0004987089841961
 21
-38.9927423405563189
 31
0.0
  0
LINE
  5
1A7
100
AcDbEntity
100
AcDbLine
  8
0
 62
256
370
-1
  6
DOT2
 10
499.9999999999998295
 20
-8.9999999999999716
 30
0.0
 11
529.9999999999997726
 21
-8.9999999999999716
 31
0.0
  0
LINE
  5
1A8
100
AcDbEntity
100
AcDbLine
  8
0
 62
256
370
-1
  6
BYLAYER
 10
508.9999999999997158
 20
-40.9999999999999858
 30
0.0
 11
529.9999999999997726
 21
-40.9999999999999858
 31
0.0
  0
LINE
  5
1A9
100
AcDbEntity
100
AcDbLine
  8
0
 62
256
370
-1
  6
DOT2
 10
529.9999999999997726
 20
106.0000000000000711
 30
0.0
 11
529.9999999999997726
 21
156.0000000000000853
 31
0.0
  0
LINE
  5
1AA
100
AcDbEntity
100
AcDbLine
  8
0
 62
256
370
-1
  6
DOT2
 10
569.9999999999997726
 20
51.0000000000000853
 30
0.0
 11
569.9999999999997726
 21
101.0000000000000995
 31
0.0
  0
LINE
  5
1AB
100
AcDbEntity
100
AcDbLine
  8
0
 62
256
370
-1
  6
DOT2
 10
569.9999999999997726
 20
156.0000000000000853
 30
0.0
 11
569.9999999999996589
 21
-58.9999999999999574
 31
0.0
  0
LINE
  5
1AC
100
AcDbEntity
100
AcDbLine
  8
0
 62
256
370
-1
  6
DOT2
 10
539.9999999999997726
 20
-58.9999999999999574
 30
0.0
 11
539.9999999999998863
 21
156.0000000000000853
 31
0.0
  0
LINE
  5
1AD
100
AcDbEntity
100
AcDbLine
  8
0
 62
256
370
-1
  6
DOT2
 10
569.9999999999997726
 20
-3.9999999999999289
 30
0.0
 11
569.9999999999997726
 21
46.0000000000000853
 31
0.0
  0
LINE
  5
1AE
100
AcDbEntity
100
AcDbLine
  8
0
 62
256
370
-1
  6
DOT2
 10
569.9999999999996589
 20
-58.9999999999999574
 30
0.0
 11
569.9999999999996589
 21
-8.9999999999999432
 31
0.0
  0
SPLINE
  5
1AF
  8
0
 62
256
370
-1
  6
DOT2
100
AcDbEntity
100
AcDbSpline
 70
8
 71
3
 72
17
 73
13
 74
0
 40
0.0
 40
0.0
 40
0.0
 40
0.0
 40
1.0
 40
2.0
 40
3.0
 40
4.0
 40
5.0
 40
6.0
 40
7.0
 40
8.0
 40
9.0
 40
10.0
 40
10.0
 40
10.0
 40
10.0
 10
569.9999999999997726
 20
107.0000000000000995
 30
0.0
 10
557.9999999999998863
 20
107.0000000000000995
 30
0.0
 10
544.9999999999998863
 20
108.0000000000000995
 30
0.0
 10
542.9999999999998863
 20
113.0000000000000995
 30
0.0
 10
542.9999999999998863
 20
128.0000000000001137
 30
0.0
 10
547.9999999999997726
 20
141.0000000000001137
 30
0.0
 10
552.9999999999997726
 20
145.0000000000001137
 30
0.0
 10
560.9999999999997726
 20
151.0000000000001137
 30
0.0
 10
569.9999999999997726
 20
155.0000000000001137
 30
0.0
 10
569.9999999999997726
 20
155.0000000000001137
 30
0.0
 10
569.9999999999997726
 20
155.0000000000001137
 30
0.0
 10
569.9999999999997726
 20
155.0000000000001137
 30
0.0
 10
569.9999999999997726
 20
155.0000000000001137
 30
0.0
  0
SPLINE
  5
1B0
  8
0
 62
256
370
-1
  6
BYLAYER
100
AcDbEntity
100
AcDbSpline
 70
8
 71
3
 72
9
 73
5
 74
0
 40
0.0
 40
0.0
 40
0.0
 40
0.0
 40
1.0
 40
2.0
 40
2.0
 40
2.0
 40
2.0
 10
548.9999999999997726
 20
124.0000000000000995
 30
0.0
 10
548.9999999999998863
 20
134.0000000000001137
 30
0.0
 10
548.9999999999998863
 20
138.0000000000001137
 30
0.0
 10
552.9999999999997726
 20
138.0000000000001137
 30
0.0
 10
569.9999999999997726
 20
138.0000000000001137
 30
0.0
  0
LINE
  5
1B1
100
AcDbEntity
100
AcDbLine
  8
0
 62
256
370
-1
  6
DOT2
 10
569.9999999999997726
 20
106.0000000000000995
 30
0.0
 11
569.9999999999997726
 21
156.0000000000001137
 31
0.0
  0
LINE
  5
1B2
100
AcDbEntity
100
AcDbLine
  8
0
 62
256
370
-1
  6
DOT2
 10
569.9999999999997726
 20
106.0000000000000995
 30
0.0
 11
539.9999999999998863
 21
106.0000000000000995
 31
0.0
  0
LINE
  5
1B3
100
AcDbEntity
100
AcDbLine
  8
0
 62
256
370
-1
  6
BYLAYER
 10
559.9999999999997726
 20
124.0000000000000995
 30
0.0
 11
559.9999999999997726
 21
126.0000000000000995
 31
0.0
  0
LINE
  5
1B4
100
AcDbEntity
100
AcDbLine
  8
0
 62
256
370
-1
  6
DOT2
 10
539.9999999999998863
 20
106.0000000000000995
 30
0.0
 11
539.9999999999998863
 21
156.0000000000001137
 31
0.0
  0
LINE
  5
1B5
100
AcDbEntity
100
AcDbLine
  8
0
 62
256
370
-1
  6
BYLAYER
 10
559.9999999999997726
 20
126.0000000000000995
 30
0.0
 11
549.0004987089841961
 21
126.0072576594437663
 31
0.0
  0
LINE
  5
1B6
100
AcDbEntity
100
AcDbLine
  8
0
 62
256
370
-1
  6
DOT2
 10
539.9999999999998863
 20
156.0000000000001137
 30
0.0
 11
569.9999999999997726
 21
156.0000000000001137
 31
0.0
  0
LINE
  5
1B7
100
AcDbEntity
100
AcDbLine
  8
0
 62
256
370
-1
  6
BYLAYER
 10
548.9999999999997726
 20
124.0000000000000995
 30
0.0
 11
569.9999999999997726
 21
124.0000000000000995
 31
0.0
  0
SPLINE
  5
1B8
  8
0
 62
256
370
-1
  6
DOT2
100
AcDbEntity
100
AcDbSpline
 70
8
 71
3
 72
17
 73
13
 74
0
 40
0.0
 40
0.0
 40
0.0
 40
0.0
 40
1.0
 40
2.0
 40
3.0
 40
4.0
 40
5.0
 40
6.0
 40
7.0
 40
8.0
 40
9.0
 40
10.0
 40
10.0
 40
10.0
 40
10.0
 10
569.9999999999997726
 20
52.0000000000000853
 30
0.0
 10
557.9999999999997726
 20
52.0000000000000853
 30
0.0
 10
544.9999999999997726
 20
53.0000000000000853
 30
0.0
 10
542.9999999999997726
 20
58.0000000000000853
 30
0.0
 10
542.9999999999997726
 20
73.0000000000000995
 30
0.0
 10
547.9999999999997726
 20
86.0000000000000995
 30
0.0
 10
552.9999999999997726
 20
90.0000000000000995
 30
0.0
 10
560.9999999999997726
 20
96.0000000000000995
 30
0.0
 10
569.9999999999997726
 20
100.0000000000000995
 30
0.0
 10
569.9999999999997726
 20
100.0000000000000995
 30
0.0
 10
569.9999999999997726
 20
100.0000000000000995
 30
0.0
 10
569.9999999999997726
 20
100.0000000000000995
 30
0.0
 10
569.9999999999997726
 20
100.0000000000000995
 30
0.0
  0
SPLINE
  5
1B9
  8
0
 62
256
370
-1
  6
BYLAYER
100
AcDbEntity
100
AcDbSpline
 70
8
 71
3
 72
9
 73
5
 74
0
 40
0.0
 40
0.0
 40
0.0
 40
0.0
 40
1.0
 40
2.0
 40
2.0
 40
2.0
 40
2.0
 10
548.9999999999997726
 20
69.0000000000000853
 30
0.0
 10
548.9999999999997726
 20
79.0000000000000853
 30
0.0
 10
548.9999999999997726
 20
83.0000000000000995
 30
0.0
 10
552.9999999999997726
 20
83.0000000000000995
 30
0.0
 10
569.9999999999997726
 20
83.0000000000000995
 30
0.0
  0
LINE
  5
1BA
100
AcDbEntity
100
AcDbLine
  8
0
 62
256
370
-1
  6
DOT2
 10
569.9999999999997726
 20
51.0000000000000853
 30
0.0
 11
569.9999999999997726
 21
101.0000000000000995
 31
0.0
  0
LINE
  5
1BB
100
AcDbEntity
100
AcDbLine
  8
0
 62
256
370
-1
  6
DOT2
 10
569.9999999999997726
 20
51.0000000000000853
 30
0.0
 11
539.9999999999997726
 21
51.0000000000000853
 31
0.0
  0
LINE
  5
1BC
100
AcDbEntity
100
AcDbLine
  8
0
 62
256
370
-1
  6
BYLAYER
 10
559.9999999999997726
 20
69.0000000000000853
 30
0.0
 11
559.9999999999997726
 21
71.0000000000000853
 31
0.0
  0
LINE
  5
1BD
100
AcDbEntity
100
AcDbLine
  8
0
 62
256
370
-1
  6
DOT2
 10
539.9999999999997726
 20
51.0000000000000853
 30
0.0
 11
539.9999999999997726
 21
101.0000000000000995
 31
0.0
  0
LINE
  5
1BE
100
AcDbEntity
100
AcDbLine
  8
0
 62
256
370
-1
  6
BYLAYER
 10
559.9999999999997726
 20
71.0000000000000853
 30
0.0
 11
549.0004987089841961
 21
71.0072576594437521
 31
0.0
  0
LINE
  5
1BF
100
AcDbEntity
100
AcDbLine
  8
0
 62
256
370
-1
  6
DOT2
 10
539.9999999999997726
 20
101.0000000000000995
 30
0.0
 11
569.9999999999997726
 21
101.0000000000000995
 31
0.0
  0
LINE
  5
1C0
100
AcDbEntity
100
AcDbLine
  8
0
 62
256
370
-1
  6
BYLAYER
 10
548.9999999999997726
 20
69.0000000000000853
 30
0.0
 11
569.9999999999997726
 21
69.0000000000000853
 31
0.0
  0
SPLINE
  5
1C1
  8
0
 62
256
370
-1
  6
DOT2
100
AcDbEntity
100
AcDbSpline
 70
8
 71
3
 72
17
 73
13
 74
0
 40
0.0
 40
0.0
 40
0.0
 40
0.0
 40
1.0
 40
2.0
 40
3.0
 40
4.0
 40
5.0
 40
6.0
 40
7.0
 40
8.0
 40
9.0
 40
10.0
 40
10.0
 40
10.0
 40
10.0
 10
569.9999999999997726
 20
-2.9999999999999289
 30
0.0
 10
557.9999999999997726
 20
-2.9999999999999289
 30
0.0
 10
544.9999999999997726
 20
-1.9999999999999289
 30
0.0
 10
542.9999999999997726
 20
3.0000000000000711
 30
0.0
 10
542.9999999999997726
 20
18.0000000000000853
 30
0.0
 10
547.9999999999997726
 20
31.0000000000000853
 30
0.0
 10
552.9999999999997726
 20
35.0000000000000853
 30
0.0
 10
560.9999999999997726
 20
41.0000000000000853
 30
0.0
 10
569.9999999999997726
 20
45.0000000000000853
 30
0.0
 10
569.9999999999997726
 20
45.0000000000000853
 30
0.0
 10
569.9999999999997726
 20
45.0000000000000853
 30
0.0
 10
569.9999999999997726
 20
45.0000000000000853
 30
0.0
 10
569.9999999999997726
 20
45.0000000000000853
 30
0.0
  0
SPLINE
  5
1C2
  8
0
 62
256
370
-1
  6
BYLAYER
100
AcDbEntity
100
AcDbSpline
 70
8
 71
3
 72
9
 73
5
 74
0
 40
0.0
 40
0.0
 40
0.0
 40
0.0
 40
1.0
 40
2.0
 40
2.0
 40
2.0
 40
2.0
 10
548.9999999999997726
 20
14.0000000000000711
 30
0.0
 10
548.9999999999997726
 20
24.0000000000000711
 30
0.0
 10
548.9999999999997726
 20
28.0000000000000853
 30
0.0
 10
552.9999999999997726
 20
28.0000000000000853
 30
0.0
 10
569.9999999999997726
 20
28.0000000000000853
 30
0.0
  0
LINE
  5
1C3
100
AcDbEntity
100
AcDbLine
  8
0
 62
256
370
-1
  6
DOT2
 10
569.9999999999997726
 20
-3.9999999999999289
 30
0.0
 11
569.9999999999997726
 21
46.0000000000000853
 31
0.0
  0
LINE
  5
1C4
100
AcDbEntity
100
AcDbLine
  8
0
 62
256
370
-1
  6
DOT2
 10
569.9999999999997726
 20
-3.9999999999999289
 30
0.0
 11
539.9999999999997726
 21
-3.9999999999999289
 31
0.0
  0
LINE
  5
1C5
100
AcDbEntity
100
AcDbLine
  8
0
 62
256
370
-1
  6
BYLAYER
 10
559.9999999999997726
 20
14.0000000000000711
 30
0.0
 11
559.9999999999997726
 21
16.0000000000000711
 31
0.0
  0
LINE
  5
1C6
100
AcDbEntity
100
AcDbLine
  8
0
 62
256
370
-1
  6
DOT2
 10
539.9999999999997726
 20
-3.9999999999999289
 30
0.0
 11
539.9999999999997726
 21
46.0000000000000853
 31
0.0
  0
LINE
  5
1C7
100
AcDbEntity
100
AcDbLine
  8
0
 62
256
370
-1
  6
BYLAYER
 10
559.9999999999997726
 20
16.0000000000000711
 30
0.0
 11
549.0004987089841961
 21
16.0072576594437379
 31
0.0
  0
LINE
  5
1C8
100
AcDbEntity
100
AcDbLine
  8
0
 62
256
370
-1
  6
DOT2
 10
539.9999999999997726
 20
46.0000000000000853
 30
0.0
 11
569.9999999999997726
 21
46.0000000000000853
 31
0.0
  0
LINE
  5
1C9
100
AcDbEntity
100
AcDbLine
  8
0
 62
256
370
-1
  6
BYLAYER
 10
548.9999999999997726
 20
14.0000000000000711
 30
0.0
 11
569.9999999999997726
 21
14.0000000000000711
 31
0.0
  0
SPLINE
  5
1CA
  8
0
 62
256
370
-1
  6
DOT2
100
AcDbEntity
100
AcDbSpline
 70
8
 71
3
 72
17
 73
13
 74
0
 40
0.0
 40
0.0
 40
0.0
 40
0.0
 40
1.0
 40
2.0
 40
3.0
 40
4.0
 40
5.0
 40
6.0
 40
7.0
 40
8.0
 40
9.0
 40
10.0
 40
10.0
 40
10.0
 40
10.0
 10
569.9999999999996589
 20
-57.9999999999999574
 30
0.0
 10
557.9999999999997726
 20
-57.9999999999999574
 30
0.0
 10
544.9999999999997726
 20
-56.9999999999999574
 30
0.0
 10
542.9999999999997726
 20
-51.9999999999999574
 30
0.0
 10
542.9999999999997726
 20
-36.9999999999999432
 30
0.0
 10
547.9999999999997726
 20
-23.9999999999999432
 30
0.0
 10
552.9999999999997726
 20
-19.9999999999999432
 30
0.0
 10
560.9999999999997726
 20
-13.9999999999999432
 30
0.0
 10
569.9999999999996589
 20
-9.9999999999999432
 30
0.0
 10
569.9999999999996589
 20
-9.9999999999999432
 30
0.0
 10
569.9999999999996589
 20
-9.9999999999999432
 30
0.0
 10
569.9999999999996589
 20
-9.9999999999999432
 30
0.0
 10
569.9999999999996589
 20
-9.9999999999999432
 30
0.0
  0
SPLINE
  5
1CB
  8
0
 62
256
370
-1
  6
BYLAYER
100
AcDbEntity
100
AcDbSpline
 70
8
 71
3
 72
9
 73
5
 74
0
 40
0.0
 40
0.0
 40
0.0
 40
0.0
 40
1.0
 40
2.0
 40
2.0
 40
2.0
 40
2.0
 10
548.9999999999996589
 20
-40.9999999999999574
 30
0.0
 10
548.9999999999997726
 20
-30.9999999999999574
 30
0.0
 10
548.9999999999997726
 20
-26.9999999999999432
 30
0.0
 10
552.9999999999996589
 20
-26.9999999999999432
 30
0.0
 10
569.9999999999996589
 20
-26.9999999999999432
 30
0.0
  0
LINE
  5
1CC
100
AcDbEntity
100
AcDbLine
  8
0
 62
256
370
-1
  6
DOT2
 10
569.9999999999996589
 20
-58.9999999999999574
 30
0.0
 11
569.9999999999996589
 21
-8.9999999999999432
 31
0.0
  0
LINE
  5
1CD
100
AcDbEntity
100
AcDbLine
  8
0
 62
256
370
-1
  6
DOT2
 10
569.9999999999996589
 20
-58.9999999999999574
 30
0.0
 11
539.9999999999997726
 21
-58.9999999999999574
 31
0.0
  0
LINE
  5
1CE
100
AcDbEntity
100
AcDbLine
  8
0
 62
256
370
-1
  6
BYLAYER
 10
559.9999999999996589
 20
-40.9999999999999574
 30
0.0
 11
559.9999999999996589
 21
-38.9999999999999574
 31
0.0
  0
LINE
  5
1CF
100
AcDbEntity
100
AcDbLine
  8
0
 62
256
370
-1
  6
DOT2
 10
539.9999999999997726
 20
-58.9999999999999574
 30
0.0
 11
539.9999999999997726
 21
-8.9999999999999432
 31
0.0
  0
LINE
  5
1D0
100
AcDbEntity
100
AcDbLine
  8
0
 62
256
370
-1
  6
BYLAYER
 10
559.9999999999996589
 20
-38.9999999999999574
 30
0.0
 11
549.0004987089841961
 21
-38.9927423405562905
 31
0.0
  0
LINE
  5
1D1
100
AcDbEntity
100
AcDbLine
  8
0
 62
256
370
-1
  6
DOT2
 10
539.9999999999997726
 20
-8.9999999999999432
 30
0.0
 11
569.9999999999996589
 21
-8.9999999999999432
 31
0.0
  0
LINE
  5
1D2
100
AcDbEntity
100
AcDbLine
  8
0
 62
256
370
-1
  6
BYLAYER
 10
548.9999999999996589
 20
-40.9999999999999574
 30
0.0
 11
569.9999999999996589
 21
-40.9999999999999574
 31
0.0
  0
LINE
  5
1D3
100
AcDbEntity
100
AcDbLine
  8
0
 62
256
370
-1
  6
DOT2
 10
569.9999999999997726
 20
106.0000000000000995
 30
0.0
 11
569.9999999999997726
 21
156.0000000000001137
 31
0.0
  0
MTEXT
  5
1D4
100
AcDbEntity
100
AcDbMText
  8
0
 62
256
370
-1
  6
BYLAYER
 10
440.860088470319738
 20
176.0004042998478155
 30
0.0
 40
2.5
 41
0.0
 71
1
 72
1
  1
Center Cutouts (cut each vertical strip and glue to the center wood for your lugs.\PCut along the solid lines on the scroll saw, and keep the cutouts for later.)
  7
textstyle4
 50
0.0
 73
2
 44
1.0
  0
INSERT
  5
1D5
100
AcDbEntity
100
AcDbBlockReference
  8
0
 62
256
370
-1
  6
BYLAYER
  2
drill
 10
41.5
 20
30.0
 30
0.0
  0
LINE
  5
1D6
100
AcDbEntity
100
AcDbLine
  8
0
 62
256
370
-1
  6
BYLAYER
 10
25.0
 20
30.0
 30
0.0
 11
41.5
 21
30.0
 31
0.0
  0
INSERT
  5
1D7
100
AcDbEntity
100
AcDbBlockReference
  8
0
 62
256
370
-1
  6
BYLAYER
  2
drill
 10
8.5
 20
30.0000000000000036
 30
0.0
 41
1.0
 42
-1.0
 43
1.0
 50
180.0
  0
DIMENSION
  5
1D8
100
AcDbEntity
  8
0
 62
256
370
-1
  6
BYLAYER
100
AcDbDimension
 10
0.0000000000000013
 20
19.9999999999999964
 30
0.0
 11
4.2500000000000009
 21
21.875
 31
0.0
 70
1
 71
8
 72
2
 41
1.0
 42
0.0
  1

  3
Standard
100
AcDbAlignedDimension
 13
0.0000000000000007
 23
30.0
 33
0.0
 14
8.5
 24
30.0000000000000036
 34
0.0
1001
ACAD
1000
DSTYLE
1002
{
1070
144
1040
1
1002
}
  0
SPLINE
  5
1D9
  8
0
 62
256
370
-1
  6
BYLAYER
100
AcDbEntity
100
AcDbSpline
 70
8
 71
3
 72
9
 73
5
 74
0
 40
0.0
 40
0.0
 40
0.0
 40
0.0
 40
1.0
 40
2.0
 40
2.0
 40
2.0
 40
2.0
 10
49.0
 20
30.0000000000000036
 30
0.0
 10
49.0
 20
42.0
 30
0.0
 10
48.0
 20
55.0
 30
0.0
 10
43.0
 20
55.0
 30
0.0
 10
25.0
 20
55.0
 30
0.0
  0
INSERT
  5
1DA
100
AcDbEntity
100
AcDbBlockReference
  8
0
 62
256
370
-1
  6
BYLAYER
  2
drill
 10
83.0
 20
30.0
 30
0.0
  0
LINE
  5
1DB
100
AcDbEntity
100
AcDbLine
  8
0
 62
256
370
-1
  6
DOT2
 10
-100.0
 20
130.0000000000001137
 30
0.0
 11
-100.0
 21
160.0
 31
0.0
  0
SPLINE
  5
1DC
  8
0
 62
256
370
-1
  6
BYLAYER
100
AcDbEntity
100
AcDbSpline
 70
8
 71
3
 72
9
 73
5
 74
0
 40
0.0
 40
0.0
 40
0.0
 40
0.0
 40
1.0
 40
2.0
 40
2.0
 40
2.0
 40
2.0
 10
-51.0
 20
130.0000000000001137
 30
0.0
 10
-51.0
 20
142.0000000000001137
 30
0.0
 10
-52.0
 20
155.0000000000001137
 30
0.0
 10
-57.0
 20
155.0000000000001137
 30
0.0
 10
-75.0
 20
155.0000000000001137
 30
0.0
  0
LINE
  5
1DD
100
AcDbEntity
100
AcDbLine
  8
0
 62
256
370
-1
  6
DOT2
 10
-100.0
 20
160.0
 30
0.0
 11
-50.0
 21
160.0
 31
0.0
  0
LINE
  5
1DE
100
AcDbEntity
100
AcDbLine
  8
0
 62
256
370
-1
  6
DOT2
 10
-50.0
 20
160.0
 30
0.0
 11
-50.0
 21
130.0000000000001137
 31
0.0
  0
SPLINE
  5
1DF
  8
0
 62
256
370
-1
  6
BYLAYER
100
AcDbEntity
100
AcDbSpline
 70
8
 71
3
 72
9
 73
5
 74
0
 40
0.0
 40
0.0
 40
0.0
 40
0.0
 40
1.0
 40
2.0
 40
2.0
 40
2.0
 40
2.0
 10
-99.0
 20
130.0000000000001137
 30
0.0
 10
-99.0
 20
142.0000000000001137
 30
0.0
 10
-98.0
 20
155.0000000000001137
 30
0.0
 10
-93.0
 20
155.0000000000001137
 30
0.0
 10
-75.0
 20
155.0000000000001137
 30
0.0
  0
LINE
  5
1E0
100
AcDbEntity
100
AcDbLine
  8
0
 62
256
370
-1
  6
DOT2
 10
-100.0
 20
130.0000000000001137
 30
0.0
 11
-50.0
 21
130.0000000000001137
 31
0.0
  0
LINE
  5
1E1
100
AcDbEntity
100
AcDbLine
  8
0
 62
256
370
-1
  6
DOT2
 10
-100.0
 20
100.000000000000199
 30
0.0
 11
-100.0
 21
130.0000000000001137
 31
0.0
  0
SPLINE
  5
1E2
  8
0
 62
256
370
-1
  6
BYLAYER
100
AcDbEntity
100
AcDbSpline
 70
8
 71
3
 72
9
 73
5
 74
0
 40
0.0
 40
0.0
 40
0.0
 40
0.0
 40
1.0
 40
2.0
 40
2.0
 40
2.0
 40
2.0
 10
-51.0
 20
100.000000000000199
 30
0.0
 10
-51.0
 20
112.000000000000199
 30
0.0
 10
-52.0
 20
125.000000000000199
 30
0.0
 10
-57.0
 20
125.000000000000199
 30
0.0
 10
-75.0
 20
125.000000000000199
 30
0.0
  0
LINE
  5
1E3
100
AcDbEntity
100
AcDbLine
  8
0
 62
256
370
-1
  6
DOT2
 10
-100.0
 20
130.0000000000001137
 30
0.0
 11
-50.0
 21
130.0000000000001137
 31
0.0
  0
LINE
  5
1E4
100
AcDbEntity
100
AcDbLine
  8
0
 62
256
370
-1
  6
DOT2
 10
-50.0
 20
130.0000000000001137
 30
0.0
 11
-50.0
 21
100.000000000000199
 31
0.0
  0
SPLINE
  5
1E5
  8
0
 62
256
370
-1
  6
BYLAYER
100
AcDbEntity
100
AcDbSpline
 70
8
 71
3
 72
9
 73
5
 74
0
 40
0.0
 40
0.0
 40
0.0
 40
0.0
 40
1.0
 40
2.0
 40
2.0
 40
2.0
 40
2.0
 10
-99.0
 20
100.000000000000199
 30
0.0
 10
-99.0
 20
112.000000000000199
 30
0.0
 10
-98.0
 20
125.000000000000199
 30
0.0
 10
-93.0
 20
125.000000000000199
 30
0.0
 10
-75.0
 20
125.000000000000199
 30
0.0
  0
LINE
  5
1E6
100
AcDbEntity
100
AcDbLine
  8
0
 62
256
370
-1
  6
DOT2
 10
-100.0
 20
100.000000000000199
 30
0.0
 11
-50.0
 21
100.000000000000199
 31
0.0
  0
LINE
  5
1E7
100
AcDbEntity
100
AcDbLine
  8
0
 62
256
370
-1
  6
DOT2
 10
-100.0
 20
70.0000000000002984
 30
0.0
 11
-100.0
 21
100.000000000000199
 31
0.0
  0
SPLINE
  5
1E8
  8
0
 62
256
370
-1
  6
BYLAYER
100
AcDbEntity
100
AcDbSpline
 70
8
 71
3
 72
9
 73
5
 74
0
 40
0.0
 40
0.0
 40
0.0
 40
0.0
 40
1.0
 40
2.0
 40
2.0
 40
2.0
 40
2.0
 10
-51.0
 20
70.0000000000002984
 30
0.0
 10
-51.0
 20
82.0000000000002984
 30
0.0
 10
-52.0
 20
95.0000000000002984
 30
0.0
 10
-57.0
 20
95.0000000000002984
 30
0.0
 10
-75.0
 20
95.0000000000002984
 30
0.0
  0
LINE
  5
1E9
100
AcDbEntity
100
AcDbLine
  8
0
 62
256
370
-1
  6
DOT2
 10
-100.0
 20
100.000000000000199
 30
0.0
 11
-50.0
 21
100.000000000000199
 31
0.0
  0
LINE
  5
1EA
100
AcDbEntity
100
AcDbLine
  8
0
 62
256
370
-1
  6
DOT2
 10
-50.0
 20
100.000000000000199
 30
0.0
 11
-50.0
 21
70.0000000000002984
 31
0.0
  0
SPLINE
  5
1EB
  8
0
 62
256
370
-1
  6
BYLAYER
100
AcDbEntity
100
AcDbSpline
 70
8
 71
3
 72
9
 73
5
 74
0
 40
0.0
 40
0.0
 40
0.0
 40
0.0
 40
1.0
 40
2.0
 40
2.0
 40
2.0
 40
2.0
 10
-99.0
 20
70.0000000000002984
 30
0.0
 10
-99.0
 20
82.0000000000002984
 30
0.0
 10
-98.0
 20
95.0000000000002984
 30
0.0
 10
-93.0
 20
95.0000000000002984
 30
0.0
 10
-75.0
 20
95.0000000000002984
 30
0.0
  0
LINE
  5
1EC
100
AcDbEntity
100
AcDbLine
  8
0
 62
256
370
-1
  6
DOT2
 10
-100.0
 20
70.0000000000002984
 30
0.0
 11
-50.0
 21
70.0000000000002984
 31
0.0
  0
LINE
  5
1ED
100
AcDbEntity
100
AcDbLine
  8
0
 62
256
370
-1
  6
DOT2
 10
-100.0
 20
40.0000000000003979
 30
0.0
 11
-100.0
 21
70.0000000000002984
 31
0.0
  0
SPLINE
  5
1EE
  8
0
 62
256
370
-1
  6
BYLAYER
100
AcDbEntity
100
AcDbSpline
 70
8
 71
3
 72
9
 73
5
 74
0
 40
0.0
 40
0.0
 40
0.0
 40
0.0
 40
1.0
 40
2.0
 40
2.0
 40
2.0
 40
2.0
 10
-51.0
 20
40.0000000000003979
 30
0.0
 10
-51.0
 20
52.0000000000003979
 30
0.0
 10
-52.0
 20
65.0000000000003979
 30
0.0
 10
-57.0
 20
65.0000000000003979
 30
0.0
 10
-75.0
 20
65.0000000000003979
 30
0.0
  0
LINE
  5
1EF
100
AcDbEntity
100
AcDbLine
  8
0
 62
256
370
-1
  6
DOT2
 10
-100.0
 20
70.0000000000002984
 30
0.0
 11
-50.0
 21
70.0000000000002984
 31
0.0
  0
LINE
  5
1F0
100
AcDbEntity
100
AcDbLine
  8
0
 62
256
370
-1
  6
DOT2
 10
-50.0
 20
70.0000000000002984
 30
0.0
 11
-50.0
 21
40.0000000000003979
 31
0.0
  0
SPLINE
  5
1F1
  8
0
 62
256
370
-1
  6
BYLAYER
100
AcDbEntity
100
AcDbSpline
 70
8
 71
3
 72
9
 73
5
 74
0
 40
0.0
 40
0.0
 40
0.0
 40
0.0
 40
1.0
 40
2.0
 40
2.0
 40
2.0
 40
2.0
 10
-99.0
 20
40.0000000000003979
 30
0.0
 10
-99.0
 20
52.0000000000003979
 30
0.0
 10
-98.0
 20
65.0000000000003979
 30
0.0
 10
-93.0
 20
65.0000000000003979
 30
0.0
 10
-75.0
 20
65.0000000000003979
 30
0.0
  0
LINE
  5
1F2
100
AcDbEntity
100
AcDbLine
  8
0
 62
256
370
-1
  6
DOT2
 10
-100.0
 20
40.0000000000003979
 30
0.0
 11
-50.0
 21
40.0000000000003979
 31
0.0
  0
LINE
  5
1F3
100
AcDbEntity
100
AcDbLine
  8
0
 62
256
370
-1
  6
DOT2
 10
-100.0
 20
10.0000000000004974
 30
0.0
 11
-100.0
 21
40.0000000000003979
 31
0.0
  0
SPLINE
  5
1F4
  8
0
 62
256
370
-1
  6
BYLAYER
100
AcDbEntity
100
AcDbSpline
 70
8
 71
3
 72
9
 73
5
 74
0
 40
0.0
 40
0.0
 40
0.0
 40
0.0
 40
1.0
 40
2.0
 40
2.0
 40
2.0
 40
2.0
 10
-51.0
 20
10.0000000000004974
 30
0.0
 10
-51.0
 20
22.0000000000004974
 30
0.0
 10
-52.0
 20
35.0000000000004974
 30
0.0
 10
-57.0
 20
35.0000000000004974
 30
0.0
 10
-75.0
 20
35.0000000000004974
 30
0.0
  0
LINE
  5
1F5
100
AcDbEntity
100
AcDbLine
  8
0
 62
256
370
-1
  6
DOT2
 10
-100.0
 20
40.0000000000003979
 30
0.0
 11
-50.0
 21
40.0000000000003979
 31
0.0
  0
LINE
  5
1F6
100
AcDbEntity
100
AcDbLine
  8
0
 62
256
370
-1
  6
DOT2
 10
-50.0
 20
40.0000000000003979
 30
0.0
 11
-50.0
 21
10.0000000000004974
 31
0.0
  0
SPLINE
  5
1F7
  8
0
 62
256
370
-1
  6
BYLAYER
100
AcDbEntity
100
AcDbSpline
 70
8
 71
3
 72
9
 73
5
 74
0
 40
0.0
 40
0.0
 40
0.0
 40
0.0
 40
1.0
 40
2.0
 40
2.0
 40
2.0
 40
2.0
 10
-99.0
 20
10.0000000000004974
 30
0.0
 10
-99.0
 20
22.0000000000004974
 30
0.0
 10
-98.0
 20
35.0000000000004974
 30
0.0
 10
-93.0
 20
35.0000000000004974
 30
0.0
 10
-75.0
 20
35.0000000000004974
 30
0.0
  0
LINE
  5
1F8
100
AcDbEntity
100
AcDbLine
  8
0
 62
256
370
-1
  6
DOT2
 10
-100.0
 20
10.0000000000004974
 30
0.0
 11
-50.0
 21
10.0000000000004974
 31
0.0
  0
LINE
  5
1F9
100
AcDbEntity
100
AcDbLine
  8
0
 62
256
370
-1
  6
DOT2
 10
-100.0
 20
-19.9999999999993889
 30
0.0
 11
-100.0
 21
10.0000000000005116
 31
0.0
  0
SPLINE
  5
1FA
  8
0
 62
256
370
-1
  6
BYLAYER
100
AcDbEntity
100
AcDbSpline
 70
8
 71
3
 72
9
 73
5
 74
0
 40
0.0
 40
0.0
 40
0.0
 40
0.0
 40
1.0
 40
2.0
 40
2.0
 40
2.0
 40
2.0
 10
-51.0
 20
-19.9999999999993889
 30
0.0
 10
-51.0
 20
-7.9999999999993889
 30
0.0
 10
-52.0
 20
5.0000000000006111
 30
0.0
 10
-57.0
 20
5.0000000000006111
 30
0.0
 10
-75.0
 20
5.0000000000006111
 30
0.0
  0
LINE
  5
1FB
100
AcDbEntity
100
AcDbLine
  8
0
 62
256
370
-1
  6
DOT2
 10
-100.0
 20
10.0000000000005116
 30
0.0
 11
-50.0
 21
10.0000000000005116
 31
0.0
  0
LINE
  5
1FC
100
AcDbEntity
100
AcDbLine
  8
0
 62
256
370
-1
  6
DOT2
 10
-50.0
 20
10.0000000000005116
 30
0.0
 11
-50.0
 21
-19.9999999999993889
 31
0.0
  0
SPLINE
  5
1FD
  8
0
 62
256
370
-1
  6
BYLAYER
100
AcDbEntity
100
AcDbSpline
 70
8
 71
3
 72
9
 73
5
 74
0
 40
0.0
 40
0.0
 40
0.0
 40
0.0
 40
1.0
 40
2.0
 40
2.0
 40
2.0
 40
2.0
 10
-99.0
 20
-19.9999999999993889
 30
0.0
 10
-99.0
 20
-7.9999999999993889
 30
0.0
 10
-98.0
 20
5.0000000000006111
 30
0.0
 10
-93.0
 20
5.0000000000006111
 30
0.0
 10
-75.0
 20
5.0000000000006111
 30
0.0
  0
LINE
  5
1FE
100
AcDbEntity
100
AcDbLine
  8
0
 62
256
370
-1
  6
DOT2
 10
-100.0
 20
-19.9999999999993889
 30
0.0
 11
-50.0
 21
-19.9999999999993889
 31
0.0
  0
LINE
  5
1FF
100
AcDbEntity
100
AcDbLine
  8
0
 62
256
370
-1
  6
DOT2
 10
-100.0
 20
-49.9999999999993037
 30
0.0
 11
-100.0
 21
-19.9999999999994031
 31
0.0
  0
SPLINE
  5
200
  8
0
 62
256
370
-1
  6
BYLAYER
100
AcDbEntity
100
AcDbSpline
 70
8
 71
3
 72
9
 73
5
 74
0
 40
0.0
 40
0.0
 40
0.0
 40
0.0
 40
1.0
 40
2.0
 40
2.0
 40
2.0
 40
2.0
 10
-51.0
 20
-49.9999999999993037
 30
0.0
 10
-51.0
 20
-37.9999999999993037
 30
0.0
 10
-52.0
 20
-24.9999999999993037
 30
0.0
 10
-57.0
 20
-24.9999999999993037
 30
0.0
 10
-75.0
 20
-24.9999999999993037
 30
0.0
  0
LINE
  5
201
100
AcDbEntity
100
AcDbLine
  8
0
 62
256
370
-1
  6
DOT2
 10
-100.0
 20
-19.9999999999994031
 30
0.0
 11
-50.0
 21
-19.9999999999994031
 31
0.0
  0
LINE
  5
202
100
AcDbEntity
100
AcDbLine
  8
0
 62
256
370
-1
  6
DOT2
 10
-50.0
 20
-19.9999999999994031
 30
0.0
 11
-50.0
 21
-49.9999999999993037
 31
0.0
  0
SPLINE
  5
203
  8
0
 62
256
370
-1
  6
BYLAYER
100
AcDbEntity
100
AcDbSpline
 70
8
 71
3
 72
9
 73
5
 74
0
 40
0.0
 40
0.0
 40
0.0
 40
0.0
 40
1.0
 40
2.0
 40
2.0
 40
2.0
 40
2.0
 10
-99.0
 20
-49.9999999999993037
 30
0.0
 10
-99.0
 20
-37.9999999999993037
 30
0.0
 10
-98.0
 20
-24.9999999999993037
 30
0.0
 10
-93.0
 20
-24.9999999999993037
 30
0.0
 10
-75.0
 20
-24.9999999999993037
 30
0.0
  0
LINE
  5
204
100
AcDbEntity
100
AcDbLine
  8
0
 62
256
370
-1
  6
DOT2
 10
-100.0
 20
-49.9999999999993037
 30
0.0
 11
-50.0
 21
-49.9999999999993037
 31
0.0
  0
LINE
  5
205
100
AcDbEntity
100
AcDbLine
  8
0
 62
256
370
-1
  6
DOT2
 10
-100.0
 20
-79.9999999999992184
 30
0.0
 11
-100.0
 21
-49.9999999999993179
 31
0.0
  0
SPLINE
  5
206
  8
0
 62
256
370
-1
  6
BYLAYER
100
AcDbEntity
100
AcDbSpline
 70
8
 71
3
 72
9
 73
5
 74
0
 40
0.0
 40
0.0
 40
0.0
 40
0.0
 40
1.0
 40
2.0
 40
2.0
 40
2.0
 40
2.0
 10
-51.0
 20
-79.9999999999992184
 30
0.0
 10
-51.0
 20
-67.9999999999992184
 30
0.0
 10
-52.0
 20
-54.9999999999992184
 30
0.0
 10
-57.0
 20
-54.9999999999992184
 30
0.0
 10
-75.0
 20
-54.9999999999992184
 30
0.0
  0
LINE
  5
207
100
AcDbEntity
100
AcDbLine
  8
0
 62
256
370
-1
  6
DOT2
 10
-100.0
 20
-49.9999999999993179
 30
0.0
 11
-50.0
 21
-49.9999999999993179
 31
0.0
  0
LINE
  5
208
100
AcDbEntity
100
AcDbLine
  8
0
 62
256
370
-1
  6
DOT2
 10
-50.0
 20
-49.9999999999993179
 30
0.0
 11
-50.0
 21
-79.9999999999992184
 31
0.0
  0
SPLINE
  5
209
  8
0
 62
256
370
-1
  6
BYLAYER
100
AcDbEntity
100
AcDbSpline
 70
8
 71
3
 72
9
 73
5
 74
0
 40
0.0
 40
0.0
 40
0.0
 40
0.0
 40
1.0
 40
2.0
 40
2.0
 40
2.0
 40
2.0
 10
-99.0
 20
-79.9999999999992184
 30
0.0
 10
-99.0
 20
-67.9999999999992184
 30
0.0
 10
-98.0
 20
-54.9999999999992184
 30
0.0
 10
-93.0
 20
-54.9999999999992184
 30
0.0
 10
-75.0
 20
-54.9999999999992184
 30
0.0
  0
LINE
  5
20A
100
AcDbEntity
100
AcDbLine
  8
0
 62
256
370
-1
  6
DOT2
 10
-100.0
 20
-79.9999999999992184
 30
0.0
 11
-50.0
 21
-79.9999999999992184
 31
0.0
  0
MTEXT
  5
20B
100
AcDbEntity
100
AcDbMText
  8
0
 62
256
370
-1
  6
BYLAYER
 10
-151.7951594806860101
 20
170.7247555698028521
 30
0.0
 40
2.5
 41
0.0
 71
1
 72
1
  1
Side Profiles (cut out each square and glue to the side of each\Passembled lug, then cut along the solid lines with the scroll saw.)
  7
textstyle5
 50
0.0
 73
2
 44
1.0
  0
LINE
  5
20C
100
AcDbEntity
100
AcDbLine
  8
0
 62
256
370
-1
  6
BYLAYER
 10
-229.0000000000000568
 20
143.0
 30
0.0
 11
-210.0000000000000568
 21
142.9999999999999716
 31
0.0
  0
LINE
  5
20D
100
AcDbEntity
100
AcDbLine
  8
0
 62
256
370
-1
  6
DOT2
 10
-210.0000000000000568
 20
110.0
 30
0.0
 11
-210.0000000000000568
 21
160.0
 31
0.0
  0
LINE
  5
20E
100
AcDbEntity
100
AcDbLine
  8
0
 62
256
370
-1
  6
BYLAYER
 10
-229.0000000000000568
 20
127.0
 30
0.0
 11
-229.0000000000000568
 21
143.0
 31
0.0
  0
LINE
  5
20F
100
AcDbEntity
100
AcDbLine
  8
0
 62
256
370
-1
  6
DOT2
 10
-210.0000000000000568
 20
110.0
 30
0.0
 11
-239.9999999999999716
 21
110.0
 31
0.0
  0
SPLINE
  5
210
  8
0
 62
256
370
-1
  6
DOT2
100
AcDbEntity
100
AcDbSpline
 70
8
 71
3
 72
9
 73
5
 74
0
 40
0.0
 40
0.0
 40
0.0
 40
0.0
 40
1.0
 40
2.0
 40
2.0
 40
2.0
 40
2.0
 10
-210.0000000000000568
 20
159.0
 30
0.0
 10
-222.0000000000000568
 20
159.0
 30
0.0
 10
-235.0000000000000568
 20
158.0
 30
0.0
 10
-235.0000000000000568
 20
153.0
 30
0.0
 10
-235.0000000000000568
 20
135.0
 30
0.0
  0
LINE
  5
211
100
AcDbEntity
100
AcDbLine
  8
0
 62
256
370
-1
  6
DOT2
 10
-240.0000000000001421
 20
-55.0000000000000924
 30
0.0
 11
-239.9999999999999716
 21
160.0
 31
0.0
  0
LINE
  5
212
100
AcDbEntity
100
AcDbLine
  8
0
 62
256
370
-1
  6
DOT2
 10
-239.9999999999999716
 20
160.0
 30
0.0
 11
-210.0000000000000568
 21
160.0
 31
0.0
  0
LINE
  5
213
100
AcDbEntity
100
AcDbLine
  8
0
 62
256
370
-1
  6
BYLAYER
 10
-229.0000000000000568
 20
127.0
 30
0.0
 11
-210.0000000000000568
 21
127.0
 31
0.0
  0
SPLINE
  5
214
  8
0
 62
256
370
-1
  6
DOT2
100
AcDbEntity
100
AcDbSpline
 70
8
 71
3
 72
9
 73
5
 74
0
 40
0.0
 40
0.0
 40
0.0
 40
0.0
 40
1.0
 40
2.0
 40
2.0
 40
2.0
 40
2.0
 10
-210.0000000000000568
 20
111.0
 30
0.0
 10
-222.0000000000000568
 20
111.0
 30
0.0
 10
-235.0000000000000568
 20
112.0
 30
0.0
 10
-235.0000000000000568
 20
117.0
 30
0.0
 10
-235.0000000000000568
 20
135.0
 30
0.0
  0
LINE
  5
215
100
AcDbEntity
100
AcDbLine
  8
0
 62
256
370
-1
  6
BYLAYER
 10
-218.0000000000000568
 20
127.0
 30
0.0
 11
-218.0000000000000568
 21
130.0
 31
0.0
  0
LINE
  5
216
100
AcDbEntity
100
AcDbLine
  8
0
 62
256
370
-1
  6
BYLAYER
 10
-218.0000000000000568
 20
130.0
 30
0.0
 11
-229.0000000000000568
 21
130.0
 31
0.0
  0
LINE
  5
217
100
AcDbEntity
100
AcDbLine
  8
0
 62
256
370
-1
  6
BYLAYER
 10
-218.0000000000000568
 20
143.0
 30
0.0
 11
-218.0000000000000568
 21
140.0
 31
0.0
  0
LINE
  5
218
100
AcDbEntity
100
AcDbLine
  8
0
 62
256
370
-1
  6
BYLAYER
 10
-218.0000000000000568
 20
140.0
 30
0.0
 11
-229.0000000000000568
 21
140.0
 31
0.0
  0
LINE
  5
219
100
AcDbEntity
100
AcDbLine
  8
0
 62
256
370
-1
  6
BYLAYER
 10
-229.0000000000000568
 20
140.0
 30
0.0
 11
-229.0000000000000568
 21
140.0
 31
0.0
  0
LINE
  5
21A
100
AcDbEntity
100
AcDbLine
  8
0
 62
256
370
-1
  6
DOT2
 10
-240.0000000000000284
 20
104.9999999999999716
 30
0.0
 11
-210.0000000000001137
 21
104.9999999999999716
 31
0.0
  0
LINE
  5
21B
100
AcDbEntity
100
AcDbLine
  8
0
 62
256
370
-1
  6
BYLAYER
 10
-229.0000000000001137
 20
71.9999999999999716
 30
0.0
 11
-210.0000000000001137
 21
71.9999999999999716
 31
0.0
  0
SPLINE
  5
21C
  8
0
 62
256
370
-1
  6
DOT2
100
AcDbEntity
100
AcDbSpline
 70
8
 71
3
 72
9
 73
5
 74
0
 40
0.0
 40
0.0
 40
0.0
 40
0.0
 40
1.0
 40
2.0
 40
2.0
 40
2.0
 40
2.0
 10
-210.0000000000001137
 20
55.9999999999999716
 30
0.0
 10
-222.0000000000001137
 20
55.9999999999999716
 30
0.0
 10
-235.0000000000001137
 20
56.9999999999999716
 30
0.0
 10
-235.0000000000001137
 20
61.9999999999999716
 30
0.0
 10
-235.0000000000001137
 20
79.9999999999999716
 30
0.0
  0
LINE
  5
21D
100
AcDbEntity
100
AcDbLine
  8
0
 62
256
370
-1
  6
BYLAYER
 10
-229.0000000000001137
 20
87.9999999999999716
 30
0.0
 11
-210.0000000000001137
 21
87.9999999999999432
 31
0.0
  0
LINE
  5
21E
100
AcDbEntity
100
AcDbLine
  8
0
 62
256
370
-1
  6
BYLAYER
 10
-218.0000000000001137
 20
71.9999999999999716
 30
0.0
 11
-218.0000000000001137
 21
74.9999999999999716
 31
0.0
  0
LINE
  5
21F
100
AcDbEntity
100
AcDbLine
  8
0
 62
256
370
-1
  6
DOT2
 10
-210.0000000000001137
 20
54.9999999999999716
 30
0.0
 11
-210.0000000000001137
 21
104.9999999999999716
 31
0.0
  0
LINE
  5
220
100
AcDbEntity
100
AcDbLine
  8
0
 62
256
370
-1
  6
BYLAYER
 10
-218.0000000000001137
 20
74.9999999999999716
 30
0.0
 11
-229.0000000000001137
 21
74.9999999999999716
 31
0.0
  0
LINE
  5
221
100
AcDbEntity
100
AcDbLine
  8
0
 62
256
370
-1
  6
BYLAYER
 10
-218.0000000000001137
 20
87.9999999999999716
 30
0.0
 11
-218.0000000000001137
 21
84.9999999999999716
 31
0.0
  0
LINE
  5
222
100
AcDbEntity
100
AcDbLine
  8
0
 62
256
370
-1
  6
BYLAYER
 10
-229.0000000000001137
 20
71.9999999999999716
 30
0.0
 11
-229.0000000000001137
 21
87.9999999999999716
 31
0.0
  0
LINE
  5
223
100
AcDbEntity
100
AcDbLine
  8
0
 62
256
370
-1
  6
BYLAYER
 10
-218.0000000000001137
 20
84.9999999999999716
 30
0.0
 11
-229.0000000000001137
 21
84.9999999999999716
 31
0.0
  0
LINE
  5
224
100
AcDbEntity
100
AcDbLine
  8
0
 62
256
370
-1
  6
BYLAYER
 10
-229.0000000000001137
 20
84.9999999999999716
 30
0.0
 11
-229.0000000000001137
 21
84.9999999999999716
 31
0.0
  0
LINE
  5
225
100
AcDbEntity
100
AcDbLine
  8
0
 62
256
370
-1
  6
DOT2
 10
-210.0000000000001137
 20
54.9999999999999716
 30
0.0
 11
-240.0000000000000284
 21
54.9999999999999716
 31
0.0
  0
SPLINE
  5
226
  8
0
 62
256
370
-1
  6
DOT2
100
AcDbEntity
100
AcDbSpline
 70
8
 71
3
 72
9
 73
5
 74
0
 40
0.0
 40
0.0
 40
0.0
 40
0.0
 40
1.0
 40
2.0
 40
2.0
 40
2.0
 40
2.0
 10
-210.0000000000001137
 20
103.9999999999999716
 30
0.0
 10
-222.0000000000001137
 20
103.9999999999999716
 30
0.0
 10
-235.0000000000001137
 20
102.9999999999999716
 30
0.0
 10
-235.0000000000001137
 20
97.9999999999999716
 30
0.0
 10
-235.0000000000001137
 20
79.9999999999999716
 30
0.0
  0
LINE
  5
227
100
AcDbEntity
100
AcDbLine
  8
0
 62
256
370
-1
  6
DOT2
 10
-240.0000000000000284
 20
54.9999999999999716
 30
0.0
 11
-240.0000000000000284
 21
104.9999999999999716
 31
0.0
  0
LINE
  5
228
100
AcDbEntity
100
AcDbLine
  8
0
 62
256
370
-1
  6
DOT2
 10
-240.0000000000000853
 20
49.9999999999999432
 30
0.0
 11
-210.0000000000001705
 21
49.9999999999999432
 31
0.0
  0
LINE
  5
229
100
AcDbEntity
100
AcDbLine
  8
0
 62
256
370
-1
  6
BYLAYER
 10
-229.0000000000001705
 20
16.9999999999999432
 30
0.0
 11
-210.0000000000001705
 21
16.9999999999999432
 31
0.0
  0
SPLINE
  5
22A
  8
0
 62
256
370
-1
  6
DOT2
100
AcDbEntity
100
AcDbSpline
 70
8
 71
3
 72
9
 73
5
 74
0
 40
0.0
 40
0.0
 40
0.0
 40
0.0
 40
1.0
 40
2.0
 40
2.0
 40
2.0
 40
2.0
 10
-210.0000000000001705
 20
0.9999999999999432
 30
0.0
 10
-222.0000000000001705
 20
0.9999999999999432
 30
0.0
 10
-235.0000000000001705
 20
1.9999999999999432
 30
0.0
 10
-235.0000000000001705
 20
6.9999999999999432
 30
0.0
 10
-235.0000000000001705
 20
24.9999999999999432
 30
0.0
  0
LINE
  5
22B
100
AcDbEntity
100
AcDbLine
  8
0
 62
256
370
-1
  6
BYLAYER
 10
-229.0000000000001705
 20
32.9999999999999432
 30
0.0
 11
-210.0000000000001705
 21
32.9999999999999147
 31
0.0
  0
LINE
  5
22C
100
AcDbEntity
100
AcDbLine
  8
0
 62
256
370
-1
  6
BYLAYER
 10
-218.0000000000001705
 20
16.9999999999999432
 30
0.0
 11
-218.0000000000001705
 21
19.9999999999999432
 31
0.0
  0
LINE
  5
22D
100
AcDbEntity
100
AcDbLine
  8
0
 62
256
370
-1
  6
DOT2
 10
-210.0000000000001705
 20
-0.0000000000000568
 30
0.0
 11
-210.0000000000001705
 21
49.9999999999999432
 31
0.0
  0
LINE
  5
22E
100
AcDbEntity
100
AcDbLine
  8
0
 62
256
370
-1
  6
BYLAYER
 10
-218.0000000000001705
 20
19.9999999999999432
 30
0.0
 11
-229.0000000000001705
 21
19.9999999999999432
 31
0.0
  0
LINE
  5
22F
100
AcDbEntity
100
AcDbLine
  8
0
 62
256
370
-1
  6
BYLAYER
 10
-218.0000000000001705
 20
32.9999999999999432
 30
0.0
 11
-218.0000000000001705
 21
29.9999999999999432
 31
0.0
  0
LINE
  5
230
100
AcDbEntity
100
AcDbLine
  8
0
 62
256
370
-1
  6
BYLAYER
 10
-229.0000000000001705
 20
16.9999999999999432
 30
0.0
 11
-229.0000000000001705
 21
32.9999999999999432
 31
0.0
  0
LINE
  5
231
100
AcDbEntity
100
AcDbLine
  8
0
 62
256
370
-1
  6
BYLAYER
 10
-218.0000000000001705
 20
29.9999999999999432
 30
0.0
 11
-229.0000000000001705
 21
29.9999999999999432
 31
0.0
  0
LINE
  5
232
100
AcDbEntity
100
AcDbLine
  8
0
 62
256
370
-1
  6
BYLAYER
 10
-229.0000000000001705
 20
29.9999999999999432
 30
0.0
 11
-229.0000000000001705
 21
29.9999999999999432
 31
0.0
  0
LINE
  5
233
100
AcDbEntity
100
AcDbLine
  8
0
 62
256
370
-1
  6
DOT2
 10
-210.0000000000001705
 20
-0.0000000000000568
 30
0.0
 11
-240.0000000000000853
 21
-0.0000000000000568
 31
0.0
  0
SPLINE
  5
234
  8
0
 62
256
370
-1
  6
DOT2
100
AcDbEntity
100
AcDbSpline
 70
8
 71
3
 72
9
 73
5
 74
0
 40
0.0
 40
0.0
 40
0.0
 40
0.0
 40
1.0
 40
2.0
 40
2.0
 40
2.0
 40
2.0
 10
-210.0000000000001705
 20
48.9999999999999432
 30
0.0
 10
-222.0000000000001705
 20
48.9999999999999432
 30
0.0
 10
-235.0000000000001705
 20
47.9999999999999432
 30
0.0
 10
-235.0000000000001705
 20
42.9999999999999432
 30
0.0
 10
-235.0000000000001705
 20
24.9999999999999432
 30
0.0
  0
LINE
  5
235
100
AcDbEntity
100
AcDbLine
  8
0
 62
256
370
-1
  6
DOT2
 10
-240.0000000000000853
 20
-0.0000000000000568
 30
0.0
 11
-240.0000000000000853
 21
49.9999999999999432
 31
0.0
  0
LINE
  5
236
100
AcDbEntity
100
AcDbLine
  8
0
 62
256
370
-1
  6
DOT2
 10
-240.0000000000001421
 20
-5.0000000000000853
 30
0.0
 11
-210.0000000000002274
 21
-5.0000000000000853
 31
0.0
  0
LINE
  5
237
100
AcDbEntity
100
AcDbLine
  8
0
 62
256
370
-1
  6
BYLAYER
 10
-229.0000000000002274
 20
-38.0000000000000853
 30
0.0
 11
-210.0000000000002274
 21
-38.0000000000000853
 31
0.0
  0
SPLINE
  5
238
  8
0
 62
256
370
-1
  6
DOT2
100
AcDbEntity
100
AcDbSpline
 70
8
 71
3
 72
9
 73
5
 74
0
 40
0.0
 40
0.0
 40
0.0
 40
0.0
 40
1.0
 40
2.0
 40
2.0
 40
2.0
 40
2.0
 10
-210.0000000000002274
 20
-54.0000000000000853
 30
0.0
 10
-222.0000000000002274
 20
-54.0000000000000853
 30
0.0
 10
-235.0000000000002274
 20
-53.0000000000000853
 30
0.0
 10
-235.0000000000002274
 20
-48.0000000000000853
 30
0.0
 10
-235.0000000000002274
 20
-30.0000000000000853
 30
0.0
  0
LINE
  5
239
100
AcDbEntity
100
AcDbLine
  8
0
 62
256
370
-1
  6
BYLAYER
 10
-229.0000000000002274
 20
-22.0000000000000853
 30
0.0
 11
-210.0000000000002274
 21
-22.0000000000001137
 31
0.0
  0
LINE
  5
23A
100
AcDbEntity
100
AcDbLine
  8
0
 62
256
370
-1
  6
BYLAYER
 10
-218.0000000000002274
 20
-38.0000000000000853
 30
0.0
 11
-218.0000000000002274
 21
-35.0000000000000853
 31
0.0
  0
LINE
  5
23B
100
AcDbEntity
100
AcDbLine
  8
0
 62
256
370
-1
  6
DOT2
 10
-210.0000000000002842
 20
-55.0000000000000924
 30
0.0
 11
-210.0000000000000568
 21
160.0000000000000284
 31
0.0
  0
LINE
  5
23C
100
AcDbEntity
100
AcDbLine
  8
0
 62
256
370
-1
  6
BYLAYER
 10
-218.0000000000002274
 20
-35.0000000000000853
 30
0.0
 11
-229.0000000000002274
 21
-35.0000000000000853
 31
0.0
  0
LINE
  5
23D
100
AcDbEntity
100
AcDbLine
  8
0
 62
256
370
-1
  6
BYLAYER
 10
-218.0000000000002274
 20
-22.0000000000000853
 30
0.0
 11
-218.0000000000002274
 21
-25.0000000000000853
 31
0.0
  0
LINE
  5
23E
100
AcDbEntity
100
AcDbLine
  8
0
 62
256
370
-1
  6
BYLAYER
 10
-229.0000000000002274
 20
-38.0000000000000853
 30
0.0
 11
-229.0000000000002274
 21
-22.0000000000000853
 31
0.0
  0
LINE
  5
23F
100
AcDbEntity
100
AcDbLine
  8
0
 62
256
370
-1
  6
BYLAYER
 10
-218.0000000000002274
 20
-25.0000000000000853
 30
0.0
 11
-229.0000000000002274
 21
-25.0000000000000853
 31
0.0
  0
LINE
  5
240
100
AcDbEntity
100
AcDbLine
  8
0
 62
256
370
-1
  6
BYLAYER
 10
-229.0000000000002274
 20
-25.0000000000000853
 30
0.0
 11
-229.0000000000002274
 21
-25.0000000000000853
 31
0.0
  0
LINE
  5
241
100
AcDbEntity
100
AcDbLine
  8
0
 62
256
370
-1
  6
DOT2
 10
-210.0000000000002274
 20
-55.0000000000000853
 30
0.0
 11
-240.0000000000001421
 21
-55.0000000000000853
 31
0.0
  0
SPLINE
  5
242
  8
0
 62
256
370
-1
  6
DOT2
100
AcDbEntity
100
AcDbSpline
 70
8
 71
3
 72
9
 73
5
 74
0
 40
0.0
 40
0.0
 40
0.0
 40
0.0
 40
1.0
 40
2.0
 40
2.0
 40
2.0
 40
2.0
 10
-210.0000000000002274
 20
-6.0000000000000853
 30
0.0
 10
-222.0000000000002274
 20
-6.0000000000000853
 30
0.0
 10
-235.0000000000002274
 20
-7.0000000000000853
 30
0.0
 10
-235.0000000000002274
 20
-12.0000000000000853
 30
0.0
 10
-235.0000000000002274
 20
-30.0000000000000853
 30
0.0
  0
LINE
  5
243
100
AcDbEntity
100
AcDbLine
  8
0
 62
256
370
-1
  6
DOT2
 10
-240.0000000000001421
 20
-55.0000000000000853
 30
0.0
 11
-240.0000000000001421
 21
-5.0000000000000853
 31
0.0
  0
LINE
  5
244
100
AcDbEntity
100
AcDbLine
  8
0
 62
256
370
-1
  6
BYLAYER
 10
-247.9999999999999716
 20
126.9999999999999716
 30
0.0
 11
-247.9999999999999716
 21
129.9999999999999716
 31
0.0
  0
LINE
  5
245
100
AcDbEntity
100
AcDbLine
  8
0
 62
256
370
-1
  6
BYLAYER
 10
-247.9999999999999716
 20
129.9999999999999716
 30
0.0
 11
-259.0
 21
129.9999999999999716
 31
0.0
  0
LINE
  5
246
100
AcDbEntity
100
AcDbLine
  8
0
 62
256
370
-1
  6
BYLAYER
 10
-247.9999999999999716
 20
142.9999999999999716
 30
0.0
 11
-247.9999999999999716
 21
139.9999999999999716
 31
0.0
  0
LINE
  5
247
100
AcDbEntity
100
AcDbLine
  8
0
 62
256
370
-1
  6
BYLAYER
 10
-247.9999999999999716
 20
139.9999999999999716
 30
0.0
 11
-259.0
 21
139.9999999999999716
 31
0.0
  0
LINE
  5
248
100
AcDbEntity
100
AcDbLine
  8
0
 62
256
370
-1
  6
BYLAYER
 10
-259.0
 20
139.9999999999999716
 30
0.0
 11
-259.0
 21
139.9999999999999716
 31
0.0
  0
LINE
  5
249
100
AcDbEntity
100
AcDbLine
  8
0
 62
256
370
-1
  6
DOT2
 10
-269.9999999999999432
 20
104.9999999999999432
 30
0.0
 11
-240.0000000000000284
 21
104.9999999999999432
 31
0.0
  0
LINE
  5
24A
100
AcDbEntity
100
AcDbLine
  8
0
 62
256
370
-1
  6
BYLAYER
 10
-259.0
 20
71.9999999999999432
 30
0.0
 11
-240.0000000000000284
 21
71.9999999999999432
 31
0.0
  0
SPLINE
  5
24B
  8
0
 62
256
370
-1
  6
DOT2
100
AcDbEntity
100
AcDbSpline
 70
8
 71
3
 72
9
 73
5
 74
0
 40
0.0
 40
0.0
 40
0.0
 40
0.0
 40
1.0
 40
2.0
 40
2.0
 40
2.0
 40
2.0
 10
-240.0000000000000284
 20
55.9999999999999432
 30
0.0
 10
-252.0000000000000284
 20
55.9999999999999432
 30
0.0
 10
-265.0
 20
56.9999999999999432
 30
0.0
 10
-265.0
 20
61.9999999999999432
 30
0.0
 10
-265.0
 20
79.9999999999999432
 30
0.0
  0
LINE
  5
24C
100
AcDbEntity
100
AcDbLine
  8
0
 62
256
370
-1
  6
BYLAYER
 10
-259.0
 20
87.9999999999999432
 30
0.0
 11
-240.0000000000000284
 21
87.9999999999999147
 31
0.0
  0
LINE
  5
24D
100
AcDbEntity
100
AcDbLine
  8
0
 62
256
370
-1
  6
BYLAYER
 10
-248.0000000000000284
 20
71.9999999999999432
 30
0.0
 11
-248.0000000000000284
 21
74.9999999999999432
 31
0.0
  0
LINE
  5
24E
100
AcDbEntity
100
AcDbLine
  8
0
 62
256
370
-1
  6
DOT2
 10
-240.0000000000000284
 20
54.9999999999999432
 30
0.0
 11
-240.0000000000000284
 21
104.9999999999999432
 31
0.0
  0
LINE
  5
24F
100
AcDbEntity
100
AcDbLine
  8
0
 62
256
370
-1
  6
BYLAYER
 10
-248.0000000000000284
 20
74.9999999999999432
 30
0.0
 11
-259.0
 21
74.9999999999999432
 31
0.0
  0
LINE
  5
250
100
AcDbEntity
100
AcDbLine
  8
0
 62
256
370
-1
  6
BYLAYER
 10
-248.0000000000000284
 20
87.9999999999999432
 30
0.0
 11
-248.0000000000000284
 21
84.9999999999999432
 31
0.0
  0
LINE
  5
251
100
AcDbEntity
100
AcDbLine
  8
0
 62
256
370
-1
  6
BYLAYER
 10
-259.0
 20
71.9999999999999432
 30
0.0
 11
-259.0
 21
87.9999999999999432
 31
0.0
  0
LINE
  5
252
100
AcDbEntity
100
AcDbLine
  8
0
 62
256
370
-1
  6
BYLAYER
 10
-248.0000000000000284
 20
84.9999999999999432
 30
0.0
 11
-259.0
 21
84.9999999999999432
 31
0.0
  0
LINE
  5
253
100
AcDbEntity
100
AcDbLine
  8
0
 62
256
370
-1
  6
BYLAYER
 10
-259.0
 20
84.9999999999999432
 30
0.0
 11
-259.0
 21
84.9999999999999432
 31
0.0
  0
LINE
  5
254
100
AcDbEntity
100
AcDbLine
  8
0
 62
256
370
-1
  6
DOT2
 10
-240.0000000000000284
 20
54.9999999999999432
 30
0.0
 11
-269.9999999999999432
 21
54.9999999999999432
 31
0.0
  0
SPLINE
  5
255
  8
0
 62
256
370
-1
  6
DOT2
100
AcDbEntity
100
AcDbSpline
 70
8
 71
3
 72
9
 73
5
 74
0
 40
0.0
 40
0.0
 40
0.0
 40
0.0
 40
1.0
 40
2.0
 40
2.0
 40
2.0
 40
2.0
 10
-240.0000000000000284
 20
103.9999999999999432
 30
0.0
 10
-252.0000000000000284
 20
103.9999999999999432
 30
0.0
 10
-265.0
 20
102.9999999999999432
 30
0.0
 10
-265.0
 20
97.9999999999999432
 30
0.0
 10
-265.0
 20
79.9999999999999432
 30
0.0
  0
LINE
  5
256
100
AcDbEntity
100
AcDbLine
  8
0
 62
256
370
-1
  6
DOT2
 10
-269.9999999999999432
 20
54.9999999999999432
 30
0.0
 11
-269.9999999999999432
 21
104.9999999999999432
 31
0.0
  0
LINE
  5
257
100
AcDbEntity
100
AcDbLine
  8
0
 62
256
370
-1
  6
DOT2
 10
-270.0
 20
49.9999999999999147
 30
0.0
 11
-240.0000000000000853
 21
49.9999999999999147
 31
0.0
  0
LINE
  5
258
100
AcDbEntity
100
AcDbLine
  8
0
 62
256
370
-1
  6
BYLAYER
 10
-259.0000000000001137
 20
16.9999999999999147
 30
0.0
 11
-240.0000000000000853
 21
16.9999999999999147
 31
0.0
  0
SPLINE
  5
259
  8
0
 62
256
370
-1
  6
DOT2
100
AcDbEntity
100
AcDbSpline
 70
8
 71
3
 72
9
 73
5
 74
0
 40
0.0
 40
0.0
 40
0.0
 40
0.0
 40
1.0
 40
2.0
 40
2.0
 40
2.0
 40
2.0
 10
-240.0000000000000853
 20
0.9999999999999147
 30
0.0
 10
-252.0000000000000853
 20
0.9999999999999147
 30
0.0
 10
-265.0000000000001137
 20
1.9999999999999147
 30
0.0
 10
-265.0000000000001137
 20
6.9999999999999147
 30
0.0
 10
-265.0000000000001137
 20
24.9999999999999147
 30
0.0
  0
LINE
  5
25A
100
AcDbEntity
100
AcDbLine
  8
0
 62
256
370
-1
  6
BYLAYER
 10
-259.0000000000001137
 20
32.9999999999999147
 30
0.0
 11
-240.0000000000000853
 21
32.9999999999998863
 31
0.0
  0
LINE
  5
25B
100
AcDbEntity
100
AcDbLine
  8
0
 62
256
370
-1
  6
BYLAYER
 10
-248.0000000000000853
 20
16.9999999999999147
 30
0.0
 11
-248.0000000000000853
 21
19.9999999999999147
 31
0.0
  0
LINE
  5
25C
100
AcDbEntity
100
AcDbLine
  8
0
 62
256
370
-1
  6
DOT2
 10
-240.0000000000000853
 20
-0.0000000000000853
 30
0.0
 11
-240.0000000000000853
 21
49.9999999999999147
 31
0.0
  0
LINE
  5
25D
100
AcDbEntity
100
AcDbLine
  8
0
 62
256
370
-1
  6
BYLAYER
 10
-248.0000000000000853
 20
19.9999999999999147
 30
0.0
 11
-259.0000000000001137
 21
19.9999999999999147
 31
0.0
  0
LINE
  5
25E
100
AcDbEntity
100
AcDbLine
  8
0
 62
256
370
-1
  6
BYLAYER
 10
-248.0000000000000853
 20
32.9999999999999147
 30
0.0
 11
-248.0000000000000853
 21
29.9999999999999147
 31
0.0
  0
LINE
  5
25F
100
AcDbEntity
100
AcDbLine
  8
0
 62
256
370
-1
  6
BYLAYER
 10
-259.0000000000001137
 20
16.9999999999999147
 30
0.0
 11
-259.0000000000001137
 21
32.9999999999999147
 31
0.0
  0
LINE
  5
260
100
AcDbEntity
100
AcDbLine
  8
0
 62
256
370
-1
  6
BYLAYER
 10
-248.0000000000000853
 20
29.9999999999999147
 30
0.0
 11
-259.0000000000001137
 21
29.9999999999999147
 31
0.0
  0
LINE
  5
261
100
AcDbEntity
100
AcDbLine
  8
0
 62
256
370
-1
  6
BYLAYER
 10
-259.0000000000001137
 20
29.9999999999999147
 30
0.0
 11
-259.0000000000001137
 21
29.9999999999999147
 31
0.0
  0
LINE
  5
262
100
AcDbEntity
100
AcDbLine
  8
0
 62
256
370
-1
  6
DOT2
 10
-240.0000000000000853
 20
-0.0000000000000853
 30
0.0
 11
-270.0
 21
-0.0000000000000853
 31
0.0
  0
SPLINE
  5
263
  8
0
 62
256
370
-1
  6
DOT2
100
AcDbEntity
100
AcDbSpline
 70
8
 71
3
 72
9
 73
5
 74
0
 40
0.0
 40
0.0
 40
0.0
 40
0.0
 40
1.0
 40
2.0
 40
2.0
 40
2.0
 40
2.0
 10
-240.0000000000000853
 20
48.9999999999999147
 30
0.0
 10
-252.0000000000000853
 20
48.9999999999999147
 30
0.0
 10
-265.0000000000001137
 20
47.9999999999999147
 30
0.0
 10
-265.0000000000001137
 20
42.9999999999999147
 30
0.0
 10
-265.0000000000001137
 20
24.9999999999999147
 30
0.0
  0
LINE
  5
264
100
AcDbEntity
100
AcDbLine
  8
0
 62
256
370
-1
  6
DOT2
 10
-270.0
 20
-0.0000000000000853
 30
0.0
 11
-270.0
 21
49.9999999999999147
 31
0.0
  0
LINE
  5
265
100
AcDbEntity
100
AcDbLine
  8
0
 62
256
370
-1
  6
DOT2
 10
-270.0000000000000568
 20
-5.0000000000001137
 30
0.0
 11
-240.0000000000001421
 21
-5.0000000000001137
 31
0.0
  0
LINE
  5
266
100
AcDbEntity
100
AcDbLine
  8
0
 62
256
370
-1
  6
BYLAYER
 10
-259.0000000000001137
 20
-38.0000000000001137
 30
0.0
 11
-240.0000000000001421
 21
-38.0000000000001137
 31
0.0
  0
SPLINE
  5
267
  8
0
 62
256
370
-1
  6
DOT2
100
AcDbEntity
100
AcDbSpline
 70
8
 71
3
 72
9
 73
5
 74
0
 40
0.0
 40
0.0
 40
0.0
 40
0.0
 40
1.0
 40
2.0
 40
2.0
 40
2.0
 40
2.0
 10
-240.0000000000001421
 20
-54.0000000000001137
 30
0.0
 10
-252.0000000000001421
 20
-54.0000000000001137
 30
0.0
 10
-265.0000000000001137
 20
-53.0000000000001137
 30
0.0
 10
-265.0000000000001137
 20
-48.0000000000001137
 30
0.0
 10
-265.0000000000001137
 20
-30.0000000000001137
 30
0.0
  0
LINE
  5
268
100
AcDbEntity
100
AcDbLine
  8
0
 62
256
370
-1
  6
BYLAYER
 10
-259.0000000000001137
 20
-22.0000000000001137
 30
0.0
 11
-240.0000000000001421
 21
-22.0000000000001421
 31
0.0
  0
LINE
  5
269
100
AcDbEntity
100
AcDbLine
  8
0
 62
256
370
-1
  6
BYLAYER
 10
-248.0000000000001421
 20
-38.0000000000001137
 30
0.0
 11
-248.0000000000001421
 21
-35.0000000000001137
 31
0.0
  0
LINE
  5
26A
100
AcDbEntity
100
AcDbLine
  8
0
 62
256
370
-1
  6
DOT2
 10
-240.0000000000001421
 20
-55.0000000000001137
 30
0.0
 11
-239.9999999999999716
 21
160.0
 31
0.0
  0
LINE
  5
26B
100
AcDbEntity
100
AcDbLine
  8
0
 62
256
370
-1
  6
BYLAYER
 10
-248.0000000000001421
 20
-35.0000000000001137
 30
0.0
 11
-259.0000000000001137
 21
-35.0000000000001137
 31
0.0
  0
LINE
  5
26C
100
AcDbEntity
100
AcDbLine
  8
0
 62
256
370
-1
  6
BYLAYER
 10
-248.0000000000001421
 20
-22.0000000000001137
 30
0.0
 11
-248.0000000000001421
 21
-25.0000000000001137
 31
0.0
  0
LINE
  5
26D
100
AcDbEntity
100
AcDbLine
  8
0
 62
256
370
-1
  6
BYLAYER
 10
-259.0000000000001137
 20
-38.0000000000001137
 30
0.0
 11
-259.0000000000001137
 21
-22.0000000000001137
 31
0.0
  0
LINE
  5
26E
100
AcDbEntity
100
AcDbLine
  8
0
 62
256
370
-1
  6
BYLAYER
 10
-248.0000000000001421
 20
-25.0000000000001137
 30
0.0
 11
-259.0000000000001137
 21
-25.0000000000001137
 31
0.0
  0
LINE
  5
26F
100
AcDbEntity
100
AcDbLine
  8
0
 62
256
370
-1
  6
BYLAYER
 10
-259.0000000000001137
 20
-25.0000000000001137
 30
0.0
 11
-259.0000000000001137
 21
-25.0000000000001137
 31
0.0
  0
LINE
  5
270
100
AcDbEntity
100
AcDbLine
  8
0
 62
256
370
-1
  6
DOT2
 10
-240.0000000000001421
 20
-55.0000000000001137
 30
0.0
 11
-270.0000000000000568
 21
-55.0000000000001137
 31
0.0
  0
SPLINE
  5
271
  8
0
 62
256
370
-1
  6
DOT2
100
AcDbEntity
100
AcDbSpline
 70
8
 71
3
 72
9
 73
5
 74
0
 40
0.0
 40
0.0
 40
0.0
 40
0.0
 40
1.0
 40
2.0
 40
2.0
 40
2.0
 40
2.0
 10
-240.0000000000001421
 20
-6.0000000000001137
 30
0.0
 10
-252.0000000000001421
 20
-6.0000000000001137
 30
0.0
 10
-265.0000000000001137
 20
-7.0000000000001137
 30
0.0
 10
-265.0000000000001137
 20
-12.0000000000001137
 30
0.0
 10
-265.0000000000001137
 20
-30.0000000000001137
 30
0.0
  0
LINE
  5
272
100
AcDbEntity
100
AcDbLine
  8
0
 62
256
370
-1
  6
DOT2
 10
-270.0000000000000568
 20
-55.0000000000001137
 30
0.0
 11
-270.0000000000000568
 21
-5.0000000000001137
 31
0.0
  0
LINE
  5
273
100
AcDbEntity
100
AcDbLine
  8
0
 62
256
370
-1
  6
BYLAYER
 10
-259.0
 20
142.9999999999999716
 30
0.0
 11
-239.9999999999999716
 21
142.9999999999999432
 31
0.0
  0
LINE
  5
274
100
AcDbEntity
100
AcDbLine
  8
0
 62
256
370
-1
  6
DOT2
 10
-239.9999999999999716
 20
109.9999999999999716
 30
0.0
 11
-239.9999999999999716
 21
159.9999999999999716
 31
0.0
  0
LINE
  5
275
100
AcDbEntity
100
AcDbLine
  8
0
 62
256
370
-1
  6
BYLAYER
 10
-259.0
 20
126.9999999999999716
 30
0.0
 11
-259.0
 21
142.9999999999999716
 31
0.0
  0
LINE
  5
276
100
AcDbEntity
100
AcDbLine
  8
0
 62
256
370
-1
  6
DOT2
 10
-239.9999999999999716
 20
109.9999999999999716
 30
0.0
 11
-269.9999999999998863
 21
109.9999999999999716
 31
0.0
  0
SPLINE
  5
277
  8
0
 62
256
370
-1
  6
DOT2
100
AcDbEntity
100
AcDbSpline
 70
8
 71
3
 72
9
 73
5
 74
0
 40
0.0
 40
0.0
 40
0.0
 40
0.0
 40
1.0
 40
2.0
 40
2.0
 40
2.0
 40
2.0
 10
-239.9999999999999716
 20
158.9999999999999716
 30
0.0
 10
-251.9999999999999716
 20
158.9999999999999716
 30
0.0
 10
-265.0
 20
157.9999999999999716
 30
0.0
 10
-265.0
 20
152.9999999999999716
 30
0.0
 10
-265.0
 20
134.9999999999999716
 30
0.0
  0
LINE
  5
278
100
AcDbEntity
100
AcDbLine
  8
0
 62
256
370
-1
  6
DOT2
 10
-270.0000000000000568
 20
-55.0000000000001208
 30
0.0
 11
-269.9999999999998863
 21
159.9999999999999716
 31
0.0
  0
LINE
  5
279
100
AcDbEntity
100
AcDbLine
  8
0
 62
256
370
-1
  6
DOT2
 10
-269.9999999999998863
 20
159.9999999999999716
 30
0.0
 11
-239.9999999999999716
 21
159.9999999999999716
 31
0.0
  0
LINE
  5
27A
100
AcDbEntity
100
AcDbLine
  8
0
 62
256
370
-1
  6
BYLAYER
 10
-259.0
 20
126.9999999999999716
 30
0.0
 11
-239.9999999999999716
 21
126.9999999999999716
 31
0.0
  0
SPLINE
  5
27B
  8
0
 62
256
370
-1
  6
DOT2
100
AcDbEntity
100
AcDbSpline
 70
8
 71
3
 72
9
 73
5
 74
0
 40
0.0
 40
0.0
 40
0.0
 40
0.0
 40
1.0
 40
2.0
 40
2.0
 40
2.0
 40
2.0
 10
-239.9999999999999716
 20
110.9999999999999716
 30
0.0
 10
-251.9999999999999716
 20
110.9999999999999716
 30
0.0
 10
-265.0
 20
111.9999999999999716
 30
0.0
 10
-265.0
 20
116.9999999999999716
 30
0.0
 10
-265.0
 20
134.9999999999999716
 30
0.0
  0
MTEXT
  5
27C
100
AcDbEntity
100
AcDbMText
  8
0
 62
256
370
-1
  6
BYLAYER
 10
-304.1030213175188237
 20
169.7247555698028521
 30
0.0
 40
2.5
 41
0.0
 71
1
 72
1
  1
Center Cutouts (cut each vertical strip and glue to the center wood for your lugs.\PCut along the solid lines on the scroll saw, and keep the cutouts for later.)
  7
textstyle6
 50
0.0
 73
2
 44
1.0
  0
SPLINE
  5
27D
  8
0
 62
256
370
-1
  6
BYLAYER
100
AcDbEntity
100
AcDbSpline
 70
8
 71
3
 72
9
 73
5
 74
0
 40
0.0
 40
0.0
 40
0.0
 40
0.0
 40
1.0
 40
2.0
 40
2.0
 40
2.0
 40
2.0
 10
-101.0
 20
130.0000000000001137
 30
0.0
 10
-101.0
 20
142.0000000000001137
 30
0.0
 10
-102.0
 20
155.0000000000001137
 30
0.0
 10
-107.0
 20
155.0000000000001137
 30
0.0
 10
-125.0
 20
155.0000000000001137
 30
0.0
  0
LINE
  5
27E
100
AcDbEntity
100
AcDbLine
  8
0
 62
256
370
-1
  6
DOT2
 10
-150.0
 20
160.0
 30
0.0
 11
-100.0
 21
160.0
 31
0.0
  0
LINE
  5
27F
100
AcDbEntity
100
AcDbLine
  8
0
 62
256
370
-1
  6
DOT2
 10
-100.0
 20
160.0
 30
0.0
 11
-100.0
 21
130.0000000000001137
 31
0.0
  0
SPLINE
  5
280
  8
0
 62
256
370
-1
  6
BYLAYER
100
AcDbEntity
100
AcDbSpline
 70
8
 71
3
 72
9
 73
5
 74
0
 40
0.0
 40
0.0
 40
0.0
 40
0.0
 40
1.0
 40
2.0
 40
2.0
 40
2.0
 40
2.0
 10
-149.0
 20
130.0000000000001137
 30
0.0
 10
-149.0
 20
142.0000000000001137
 30
0.0
 10
-148.0
 20
155.0000000000001137
 30
0.0
 10
-143.0
 20
155.0000000000001137
 30
0.0
 10
-125.0
 20
155.0000000000001137
 30
0.0
  0
LINE
  5
281
100
AcDbEntity
100
AcDbLine
  8
0
 62
256
370
-1
  6
DOT2
 10
-150.0
 20
130.0000000000001137
 30
0.0
 11
-100.0
 21
130.0000000000001137
 31
0.0
  0
LINE
  5
282
100
AcDbEntity
100
AcDbLine
  8
0
 62
256
370
-1
  6
DOT2
 10
-150.0
 20
100.000000000000199
 30
0.0
 11
-150.0
 21
130.0000000000001137
 31
0.0
  0
SPLINE
  5
283
  8
0
 62
256
370
-1
  6
BYLAYER
100
AcDbEntity
100
AcDbSpline
 70
8
 71
3
 72
9
 73
5
 74
0
 40
0.0
 40
0.0
 40
0.0
 40
0.0
 40
1.0
 40
2.0
 40
2.0
 40
2.0
 40
2.0
 10
-101.0
 20
100.000000000000199
 30
0.0
 10
-101.0
 20
112.000000000000199
 30
0.0
 10
-102.0
 20
125.000000000000199
 30
0.0
 10
-107.0
 20
125.000000000000199
 30
0.0
 10
-125.0
 20
125.000000000000199
 30
0.0
  0
LINE
  5
284
100
AcDbEntity
100
AcDbLine
  8
0
 62
256
370
-1
  6
DOT2
 10
-150.0
 20
130.0000000000001137
 30
0.0
 11
-100.0
 21
130.0000000000001137
 31
0.0
  0
LINE
  5
285
100
AcDbEntity
100
AcDbLine
  8
0
 62
256
370
-1
  6
DOT2
 10
-100.0
 20
130.0000000000001137
 30
0.0
 11
-100.0
 21
100.000000000000199
 31
0.0
  0
SPLINE
  5
286
  8
0
 62
256
370
-1
  6
BYLAYER
100
AcDbEntity
100
AcDbSpline
 70
8
 71
3
 72
9
 73
5
 74
0
 40
0.0
 40
0.0
 40
0.0
 40
0.0
 40
1.0
 40
2.0
 40
2.0
 40
2.0
 40
2.0
 10
-149.0
 20
100.000000000000199
 30
0.0
 10
-149.0
 20
112.000000000000199
 30
0.0
 10
-148.0
 20
125.000000000000199
 30
0.0
 10
-143.0
 20
125.000000000000199
 30
0.0
 10
-125.0
 20
125.000000000000199
 30
0.0
  0
LINE
  5
287
100
AcDbEntity
100
AcDbLine
  8
0
 62
256
370
-1
  6
DOT2
 10
-150.0
 20
100.000000000000199
 30
0.0
 11
-100.0
 21
100.000000000000199
 31
0.0
  0
LINE
  5
288
100
AcDbEntity
100
AcDbLine
  8
0
 62
256
370
-1
  6
DOT2
 10
-150.0
 20
70.0000000000002984
 30
0.0
 11
-150.0
 21
100.000000000000199
 31
0.0
  0
SPLINE
  5
289
  8
0
 62
256
370
-1
  6
BYLAYER
100
AcDbEntity
100
AcDbSpline
 70
8
 71
3
 72
9
 73
5
 74
0
 40
0.0
 40
0.0
 40
0.0
 40
0.0
 40
1.0
 40
2.0
 40
2.0
 40
2.0
 40
2.0
 10
-101.0
 20
70.0000000000002984
 30
0.0
 10
-101.0
 20
82.0000000000002984
 30
0.0
 10
-102.0
 20
95.0000000000002984
 30
0.0
 10
-107.0
 20
95.0000000000002984
 30
0.0
 10
-125.0
 20
95.0000000000002984
 30
0.0
  0
LINE
  5
28A
100
AcDbEntity
100
AcDbLine
  8
0
 62
256
370
-1
  6
DOT2
 10
-150.0
 20
100.000000000000199
 30
0.0
 11
-100.0
 21
100.000000000000199
 31
0.0
  0
LINE
  5
28B
100
AcDbEntity
100
AcDbLine
  8
0
 62
256
370
-1
  6
DOT2
 10
-100.0
 20
100.000000000000199
 30
0.0
 11
-100.0
 21
70.0000000000002984
 31
0.0
  0
SPLINE
  5
28C
  8
0
 62
256
370
-1
  6
BYLAYER
100
AcDbEntity
100
AcDbSpline
 70
8
 71
3
 72
9
 73
5
 74
0
 40
0.0
 40
0.0
 40
0.0
 40
0.0
 40
1.0
 40
2.0
 40
2.0
 40
2.0
 40
2.0
 10
-149.0
 20
70.0000000000002984
 30
0.0
 10
-149.0
 20
82.0000000000002984
 30
0.0
 10
-148.0
 20
95.0000000000002984
 30
0.0
 10
-143.0
 20
95.0000000000002984
 30
0.0
 10
-125.0
 20
95.0000000000002984
 30
0.0
  0
LINE
  5
28D
100
AcDbEntity
100
AcDbLine
  8
0
 62
256
370
-1
  6
DOT2
 10
-150.0
 20
70.0000000000002984
 30
0.0
 11
-100.0
 21
70.0000000000002984
 31
0.0
  0
LINE
  5
28E
100
AcDbEntity
100
AcDbLine
  8
0
 62
256
370
-1
  6
DOT2
 10
-150.0
 20
40.0000000000003979
 30
0.0
 11
-150.0
 21
70.0000000000002984
 31
0.0
  0
SPLINE
  5
28F
  8
0
 62
256
370
-1
  6
BYLAYER
100
AcDbEntity
100
AcDbSpline
 70
8
 71
3
 72
9
 73
5
 74
0
 40
0.0
 40
0.0
 40
0.0
 40
0.0
 40
1.0
 40
2.0
 40
2.0
 40
2.0
 40
2.0
 10
-101.0
 20
40.0000000000003979
 30
0.0
 10
-101.0
 20
52.0000000000003979
 30
0.0
 10
-102.0
 20
65.0000000000003979
 30
0.0
 10
-107.0
 20
65.0000000000003979
 30
0.0
 10
-125.0
 20
65.0000000000003979
 30
0.0
  0
LINE
  5
290
100
AcDbEntity
100
AcDbLine
  8
0
 62
256
370
-1
  6
DOT2
 10
-150.0
 20
70.0000000000002984
 30
0.0
 11
-100.0
 21
70.0000000000002984
 31
0.0
  0
LINE
  5
291
100
AcDbEntity
100
AcDbLine
  8
0
 62
256
370
-1
  6
DOT2
 10
-100.0
 20
70.0000000000002984
 30
0.0
 11
-100.0
 21
40.0000000000003979
 31
0.0
  0
SPLINE
  5
292
  8
0
 62
256
370
-1
  6
BYLAYER
100
AcDbEntity
100
AcDbSpline
 70
8
 71
3
 72
9
 73
5
 74
0
 40
0.0
 40
0.0
 40
0.0
 40
0.0
 40
1.0
 40
2.0
 40
2.0
 40
2.0
 40
2.0
 10
-149.0
 20
40.0000000000003979
 30
0.0
 10
-149.0
 20
52.0000000000003979
 30
0.0
 10
-148.0
 20
65.0000000000003979
 30
0.0
 10
-143.0
 20
65.0000000000003979
 30
0.0
 10
-125.0
 20
65.0000000000003979
 30
0.0
  0
LINE
  5
293
100
AcDbEntity
100
AcDbLine
  8
0
 62
256
370
-1
  6
DOT2
 10
-150.0
 20
40.0000000000003979
 30
0.0
 11
-100.0
 21
40.0000000000003979
 31
0.0
  0
LINE
  5
294
100
AcDbEntity
100
AcDbLine
  8
0
 62
256
370
-1
  6
DOT2
 10
-150.0
 20
10.0000000000004974
 30
0.0
 11
-150.0
 21
40.0000000000003979
 31
0.0
  0
SPLINE
  5
295
  8
0
 62
256
370
-1
  6
BYLAYER
100
AcDbEntity
100
AcDbSpline
 70
8
 71
3
 72
9
 73
5
 74
0
 40
0.0
 40
0.0
 40
0.0
 40
0.0
 40
1.0
 40
2.0
 40
2.0
 40
2.0
 40
2.0
 10
-101.0
 20
10.0000000000004974
 30
0.0
 10
-101.0
 20
22.0000000000004974
 30
0.0
 10
-102.0
 20
35.0000000000004974
 30
0.0
 10
-107.0
 20
35.0000000000004974
 30
0.0
 10
-125.0
 20
35.0000000000004974
 30
0.0
  0
LINE
  5
296
100
AcDbEntity
100
AcDbLine
  8
0
 62
256
370
-1
  6
DOT2
 10
-150.0
 20
40.0000000000003979
 30
0.0
 11
-100.0
 21
40.0000000000003979
 31
0.0
  0
LINE
  5
297
100
AcDbEntity
100
AcDbLine
  8
0
 62
256
370
-1
  6
DOT2
 10
-100.0
 20
40.0000000000003979
 30
0.0
 11
-100.0
 21
10.0000000000004974
 31
0.0
  0
SPLINE
  5
298
  8
0
 62
256
370
-1
  6
BYLAYER
100
AcDbEntity
100
AcDbSpline
 70
8
 71
3
 72
9
 73
5
 74
0
 40
0.0
 40
0.0
 40
0.0
 40
0.0
 40
1.0
 40
2.0
 40
2.0
 40
2.0
 40
2.0
 10
-149.0
 20
10.0000000000004974
 30
0.0
 10
-149.0
 20
22.0000000000004974
 30
0.0
 10
-148.0
 20
35.0000000000004974
 30
0.0
 10
-143.0
 20
35.0000000000004974
 30
0.0
 10
-125.0
 20
35.0000000000004974
 30
0.0
  0
LINE
  5
299
100
AcDbEntity
100
AcDbLine
  8
0
 62
256
370
-1
  6
DOT2
 10
-150.0
 20
10.0000000000004974
 30
0.0
 11
-100.0
 21
10.0000000000004974
 31
0.0
  0
LINE
  5
29A
100
AcDbEntity
100
AcDbLine
  8
0
 62
256
370
-1
  6
DOT2
 10
-150.0
 20
-19.9999999999993889
 30
0.0
 11
-150.0
 21
10.0000000000005116
 31
0.0
  0
SPLINE
  5
29B
  8
0
 62
256
370
-1
  6
BYLAYER
100
AcDbEntity
100
AcDbSpline
 70
8
 71
3
 72
9
 73
5
 74
0
 40
0.0
 40
0.0
 40
0.0
 40
0.0
 40
1.0
 40
2.0
 40
2.0
 40
2.0
 40
2.0
 10
-101.0
 20
-19.9999999999993889
 30
0.0
 10
-101.0
 20
-7.9999999999993889
 30
0.0
 10
-102.0
 20
5.0000000000006111
 30
0.0
 10
-107.0
 20
5.0000000000006111
 30
0.0
 10
-125.0
 20
5.0000000000006111
 30
0.0
  0
LINE
  5
29C
100
AcDbEntity
100
AcDbLine
  8
0
 62
256
370
-1
  6
DOT2
 10
-150.0
 20
10.0000000000005116
 30
0.0
 11
-100.0
 21
10.0000000000005116
 31
0.0
  0
LINE
  5
29D
100
AcDbEntity
100
AcDbLine
  8
0
 62
256
370
-1
  6
DOT2
 10
-100.0
 20
10.0000000000005116
 30
0.0
 11
-100.0
 21
-19.9999999999993889
 31
0.0
  0
SPLINE
  5
29E
  8
0
 62
256
370
-1
  6
BYLAYER
100
AcDbEntity
100
AcDbSpline
 70
8
 71
3
 72
9
 73
5
 74
0
 40
0.0
 40
0.0
 40
0.0
 40
0.0
 40
1.0
 40
2.0
 40
2.0
 40
2.0
 40
2.0
 10
-149.0
 20
-19.9999999999993889
 30
0.0
 10
-149.0
 20
-7.9999999999993889
 30
0.0
 10
-148.0
 20
5.0000000000006111
 30
0.0
 10
-143.0
 20
5.0000000000006111
 30
0.0
 10
-125.0
 20
5.0000000000006111
 30
0.0
  0
LINE
  5
29F
100
AcDbEntity
100
AcDbLine
  8
0
 62
256
370
-1
  6
DOT2
 10
-150.0
 20
-19.9999999999993889
 30
0.0
 11
-100.0
 21
-19.9999999999993889
 31
0.0
  0
LINE
  5
2A0
100
AcDbEntity
100
AcDbLine
  8
0
 62
256
370
-1
  6
DOT2
 10
-150.0
 20
-49.9999999999993037
 30
0.0
 11
-150.0
 21
-19.9999999999994031
 31
0.0
  0
SPLINE
  5
2A1
  8
0
 62
256
370
-1
  6
BYLAYER
100
AcDbEntity
100
AcDbSpline
 70
8
 71
3
 72
9
 73
5
 74
0
 40
0.0
 40
0.0
 40
0.0
 40
0.0
 40
1.0
 40
2.0
 40
2.0
 40
2.0
 40
2.0
 10
-101.0
 20
-49.9999999999993037
 30
0.0
 10
-101.0
 20
-37.9999999999993037
 30
0.0
 10
-102.0
 20
-24.9999999999993037
 30
0.0
 10
-107.0
 20
-24.9999999999993037
 30
0.0
 10
-125.0
 20
-24.9999999999993037
 30
0.0
  0
LINE
  5
2A2
100
AcDbEntity
100
AcDbLine
  8
0
 62
256
370
-1
  6
DOT2
 10
-150.0
 20
-19.9999999999994031
 30
0.0
 11
-100.0
 21
-19.9999999999994031
 31
0.0
  0
LINE
  5
2A3
100
AcDbEntity
100
AcDbLine
  8
0
 62
256
370
-1
  6
DOT2
 10
-100.0
 20
-19.9999999999994031
 30
0.0
 11
-100.0
 21
-49.9999999999993037
 31
0.0
  0
SPLINE
  5
2A4
  8
0
 62
256
370
-1
  6
BYLAYER
100
AcDbEntity
100
AcDbSpline
 70
8
 71
3
 72
9
 73
5
 74
0
 40
0.0
 40
0.0
 40
0.0
 40
0.0
 40
1.0
 40
2.0
 40
2.0
 40
2.0
 40
2.0
 10
-149.0
 20
-49.9999999999993037
 30
0.0
 10
-149.0
 20
-37.9999999999993037
 30
0.0
 10
-148.0
 20
-24.9999999999993037
 30
0.0
 10
-143.0
 20
-24.9999999999993037
 30
0.0
 10
-125.0
 20
-24.9999999999993037
 30
0.0
  0
LINE
  5
2A5
100
AcDbEntity
100
AcDbLine
  8
0
 62
256
370
-1
  6
DOT2
 10
-150.0
 20
-49.9999999999993037
 30
0.0
 11
-100.0
 21
-49.9999999999993037
 31
0.0
  0
LINE
  5
2A6
100
AcDbEntity
100
AcDbLine
  8
0
 62
256
370
-1
  6
DOT2
 10
-150.0
 20
-79.9999999999992184
 30
0.0
 11
-150.0
 21
-49.9999999999993179
 31
0.0
  0
SPLINE
  5
2A7
  8
0
 62
256
370
-1
  6
BYLAYER
100
AcDbEntity
100
AcDbSpline
 70
8
 71
3
 72
9
 73
5
 74
0
 40
0.0
 40
0.0
 40
0.0
 40
0.0
 40
1.0
 40
2.0
 40
2.0
 40
2.0
 40
2.0
 10
-101.0
 20
-79.9999999999992184
 30
0.0
 10
-101.0
 20
-67.9999999999992184
 30
0.0
 10
-102.0
 20
-54.9999999999992184
 30
0.0
 10
-107.0
 20
-54.9999999999992184
 30
0.0
 10
-125.0
 20
-54.9999999999992184
 30
0.0
  0
LINE
  5
2A8
100
AcDbEntity
100
AcDbLine
  8
0
 62
256
370
-1
  6
DOT2
 10
-150.0
 20
-49.9999999999993179
 30
0.0
 11
-100.0
 21
-49.9999999999993179
 31
0.0
  0
LINE
  5
2A9
100
AcDbEntity
100
AcDbLine
  8
0
 62
256
370
-1
  6
DOT2
 10
-100.0
 20
-49.9999999999993179
 30
0.0
 11
-100.0
 21
-79.9999999999992184
 31
0.0
  0
SPLINE
  5
2AA
  8
0
 62
256
370
-1
  6
BYLAYER
100
AcDbEntity
100
AcDbSpline
 70
8
 71
3
 72
9
 73
5
 74
0
 40
0.0
 40
0.0
 40
0.0
 40
0.0
 40
1.0
 40
2.0
 40
2.0
 40
2.0
 40
2.0
 10
-149.0
 20
-79.9999999999992184
 30
0.0
 10
-149.0
 20
-67.9999999999992184
 30
0.0
 10
-148.0
 20
-54.9999999999992184
 30
0.0
 10
-143.0
 20
-54.9999999999992184
 30
0.0
 10
-125.0
 20
-54.9999999999992184
 30
0.0
  0
LINE
  5
2AB
100
AcDbEntity
100
AcDbLine
  8
0
 62
256
370
-1
  6
DOT2
 10
-150.0
 20
-79.9999999999992184
 30
0.0
 11
-100.0
 21
-79.9999999999992184
 31
0.0
  0
LINE
  5
2AC
100
AcDbEntity
100
AcDbLine
  8
0
 62
256
370
-1
  6
DOT2
 10
-150.0
 20
130.0000000000001137
 30
0.0
 11
-150.0
 21
160.0
 31
0.0
  0
LINE
  5
2AD
100
AcDbEntity
100
AcDbLine
  8
0
 62
256
370
-1
  6
DOT2
 10
-269.9999999999998863
 20
110.0
 30
0.0
 11
-299.9999999999997726
 21
110.0
 31
0.0
  0
SPLINE
  5
2AE
  8
0
 62
256
370
-1
  6
DOT2
100
AcDbEntity
100
AcDbSpline
 70
8
 71
3
 72
9
 73
5
 74
0
 40
0.0
 40
0.0
 40
0.0
 40
0.0
 40
1.0
 40
2.0
 40
2.0
 40
2.0
 40
2.0
 10
-269.9999999999998863
 20
159.0
 30
0.0
 10
-281.9999999999998863
 20
159.0
 30
0.0
 10
-294.9999999999998863
 20
158.0
 30
0.0
 10
-294.9999999999998863
 20
153.0
 30
0.0
 10
-294.9999999999998863
 20
135.0
 30
0.0
  0
LINE
  5
2AF
100
AcDbEntity
100
AcDbLine
  8
0
 62
256
370
-1
  6
DOT2
 10
-299.9999999999999432
 20
-55.0000000000000924
 30
0.0
 11
-299.9999999999997726
 21
160.0
 31
0.0
  0
LINE
  5
2B0
100
AcDbEntity
100
AcDbLine
  8
0
 62
256
370
-1
  6
DOT2
 10
-299.9999999999997726
 20
160.0
 30
0.0
 11
-269.9999999999998863
 21
160.0
 31
0.0
  0
LINE
  5
2B1
100
AcDbEntity
100
AcDbLine
  8
0
 62
256
370
-1
  6
BYLAYER
 10
-288.9999999999998863
 20
127.0
 30
0.0
 11
-269.9999999999998863
 21
127.0
 31
0.0
  0
SPLINE
  5
2B2
  8
0
 62
256
370
-1
  6
DOT2
100
AcDbEntity
100
AcDbSpline
 70
8
 71
3
 72
9
 73
5
 74
0
 40
0.0
 40
0.0
 40
0.0
 40
0.0
 40
1.0
 40
2.0
 40
2.0
 40
2.0
 40
2.0
 10
-269.9999999999998863
 20
111.0
 30
0.0
 10
-281.9999999999998863
 20
111.0
 30
0.0
 10
-294.9999999999998863
 20
112.0
 30
0.0
 10
-294.9999999999998863
 20
117.0
 30
0.0
 10
-294.9999999999998863
 20
135.0
 30
0.0
  0
LINE
  5
2B3
100
AcDbEntity
100
AcDbLine
  8
0
 62
256
370
-1
  6
BYLAYER
 10
-277.9999999999998863
 20
127.0
 30
0.0
 11
-277.9999999999998863
 21
130.0
 31
0.0
  0
LINE
  5
2B4
100
AcDbEntity
100
AcDbLine
  8
0
 62
256
370
-1
  6
BYLAYER
 10
-277.9999999999998863
 20
130.0
 30
0.0
 11
-288.9999999999998863
 21
130.0
 31
0.0
  0
LINE
  5
2B5
100
AcDbEntity
100
AcDbLine
  8
0
 62
256
370
-1
  6
BYLAYER
 10
-277.9999999999998863
 20
143.0
 30
0.0
 11
-277.9999999999998863
 21
140.0
 31
0.0
  0
LINE
  5
2B6
100
AcDbEntity
100
AcDbLine
  8
0
 62
256
370
-1
  6
BYLAYER
 10
-277.9999999999998863
 20
140.0
 30
0.0
 11
-288.9999999999998863
 21
140.0
 31
0.0
  0
LINE
  5
2B7
100
AcDbEntity
100
AcDbLine
  8
0
 62
256
370
-1
  6
BYLAYER
 10
-288.9999999999998863
 20
140.0
 30
0.0
 11
-288.9999999999998863
 21
140.0
 31
0.0
  0
LINE
  5
2B8
100
AcDbEntity
100
AcDbLine
  8
0
 62
256
370
-1
  6
DOT2
 10
-299.9999999999998295
 20
104.9999999999999716
 30
0.0
 11
-269.9999999999998863
 21
104.9999999999999716
 31
0.0
  0
LINE
  5
2B9
100
AcDbEntity
100
AcDbLine
  8
0
 62
256
370
-1
  6
BYLAYER
 10
-288.9999999999998863
 20
71.9999999999999716
 30
0.0
 11
-269.9999999999998863
 21
71.9999999999999716
 31
0.0
  0
SPLINE
  5
2BA
  8
0
 62
256
370
-1
  6
DOT2
100
AcDbEntity
100
AcDbSpline
 70
8
 71
3
 72
9
 73
5
 74
0
 40
0.0
 40
0.0
 40
0.0
 40
0.0
 40
1.0
 40
2.0
 40
2.0
 40
2.0
 40
2.0
 10
-269.9999999999998863
 20
55.9999999999999716
 30
0.0
 10
-281.9999999999998863
 20
55.9999999999999716
 30
0.0
 10
-294.9999999999998863
 20
56.9999999999999716
 30
0.0
 10
-294.9999999999998863
 20
61.9999999999999716
 30
0.0
 10
-294.9999999999998863
 20
79.9999999999999716
 30
0.0
  0
LINE
  5
2BB
100
AcDbEntity
100
AcDbLine
  8
0
 62
256
370
-1
  6
BYLAYER
 10
-288.9999999999998863
 20
87.9999999999999716
 30
0.0
 11
-269.9999999999998863
 21
87.9999999999999432
 31
0.0
  0
LINE
  5
2BC
100
AcDbEntity
100
AcDbLine
  8
0
 62
256
370
-1
  6
BYLAYER
 10
-277.9999999999998863
 20
71.9999999999999716
 30
0.0
 11
-277.9999999999998863
 21
74.9999999999999716
 31
0.0
  0
LINE
  5
2BD
100
AcDbEntity
100
AcDbLine
  8
0
 62
256
370
-1
  6
DOT2
 10
-269.9999999999998863
 20
54.9999999999999716
 30
0.0
 11
-269.9999999999998863
 21
104.9999999999999716
 31
0.0
  0
LINE
  5
2BE
100
AcDbEntity
100
AcDbLine
  8
0
 62
256
370
-1
  6
BYLAYER
 10
-277.9999999999998863
 20
74.9999999999999716
 30
0.0
 11
-288.9999999999998863
 21
74.9999999999999716
 31
0.0
  0
LINE
  5
2BF
100
AcDbEntity
100
AcDbLine
  8
0
 62
256
370
-1
  6
BYLAYER
 10
-277.9999999999998863
 20
87.9999999999999716
 30
0.0
 11
-277.9999999999998863
 21
84.9999999999999716
 31
0.0
  0
LINE
  5
2C0
100
AcDbEntity
100
AcDbLine
  8
0
 62
256
370
-1
  6
BYLAYER
 10
-288.9999999999998863
 20
71.9999999999999716
 30
0.0
 11
-288.9999999999998863
 21
87.9999999999999716
 31
0.0
  0
LINE
  5
2C1
100
AcDbEntity
100
AcDbLine
  8
0
 62
256
370
-1
  6
BYLAYER
 10
-277.9999999999998863
 20
84.9999999999999716
 30
0.0
 11
-288.9999999999998863
 21
84.9999999999999716
 31
0.0
  0
LINE
  5
2C2
100
AcDbEntity
100
AcDbLine
  8
0
 62
256
370
-1
  6
BYLAYER
 10
-288.9999999999998863
 20
84.9999999999999716
 30
0.0
 11
-288.9999999999998863
 21
84.9999999999999716
 31
0.0
  0
LINE
  5
2C3
100
AcDbEntity
100
AcDbLine
  8
0
 62
256
370
-1
  6
DOT2
 10
-269.9999999999998863
 20
54.9999999999999716
 30
0.0
 11
-299.9999999999998295
 21
54.9999999999999716
 31
0.0
  0
SPLINE
  5
2C4
  8
0
 62
256
370
-1
  6
DOT2
100
AcDbEntity
100
AcDbSpline
 70
8
 71
3
 72
9
 73
5
 74
0
 40
0.0
 40
0.0
 40
0.0
 40
0.0
 40
1.0
 40
2.0
 40
2.0
 40
2.0
 40
2.0
 10
-269.9999999999998863
 20
103.9999999999999716
 30
0.0
 10
-281.9999999999998863
 20
103.9999999999999716
 30
0.0
 10
-294.9999999999998863
 20
102.9999999999999716
 30
0.0
 10
-294.9999999999998863
 20
97.9999999999999716
 30
0.0
 10
-294.9999999999998863
 20
79.9999999999999716
 30
0.0
  0
LINE
  5
2C5
100
AcDbEntity
100
AcDbLine
  8
0
 62
256
370
-1
  6
DOT2
 10
-299.9999999999998295
 20
54.9999999999999716
 30
0.0
 11
-299.9999999999998295
 21
104.9999999999999716
 31
0.0
  0
LINE
  5
2C6
100
AcDbEntity
100
AcDbLine
  8
0
 62
256
370
-1
  6
DOT2
 10
-299.9999999999998863
 20
49.9999999999999432
 30
0.0
 11
-270.0
 21
49.9999999999999432
 31
0.0
  0
LINE
  5
2C7
100
AcDbEntity
100
AcDbLine
  8
0
 62
256
370
-1
  6
BYLAYER
 10
-289.0
 20
16.9999999999999432
 30
0.0
 11
-270.0
 21
16.9999999999999432
 31
0.0
  0
SPLINE
  5
2C8
  8
0
 62
256
370
-1
  6
DOT2
100
AcDbEntity
100
AcDbSpline
 70
8
 71
3
 72
9
 73
5
 74
0
 40
0.0
 40
0.0
 40
0.0
 40
0.0
 40
1.0
 40
2.0
 40
2.0
 40
2.0
 40
2.0
 10
-270.0
 20
0.9999999999999432
 30
0.0
 10
-282.0
 20
0.9999999999999432
 30
0.0
 10
-295.0
 20
1.9999999999999432
 30
0.0
 10
-295.0
 20
6.9999999999999432
 30
0.0
 10
-295.0
 20
24.9999999999999432
 30
0.0
  0
LINE
  5
2C9
100
AcDbEntity
100
AcDbLine
  8
0
 62
256
370
-1
  6
BYLAYER
 10
-289.0
 20
32.9999999999999432
 30
0.0
 11
-270.0
 21
32.9999999999999147
 31
0.0
  0
LINE
  5
2CA
100
AcDbEntity
100
AcDbLine
  8
0
 62
256
370
-1
  6
BYLAYER
 10
-278.0
 20
16.9999999999999432
 30
0.0
 11
-278.0
 21
19.9999999999999432
 31
0.0
  0
LINE
  5
2CB
100
AcDbEntity
100
AcDbLine
  8
0
 62
256
370
-1
  6
DOT2
 10
-270.0
 20
-0.0000000000000568
 30
0.0
 11
-270.0
 21
49.9999999999999432
 31
0.0
  0
LINE
  5
2CC
100
AcDbEntity
100
AcDbLine
  8
0
 62
256
370
-1
  6
BYLAYER
 10
-278.0
 20
19.9999999999999432
 30
0.0
 11
-289.0
 21
19.9999999999999432
 31
0.0
  0
LINE
  5
2CD
100
AcDbEntity
100
AcDbLine
  8
0
 62
256
370
-1
  6
BYLAYER
 10
-278.0
 20
32.9999999999999432
 30
0.0
 11
-278.0
 21
29.9999999999999432
 31
0.0
  0
LINE
  5
2CE
100
AcDbEntity
100
AcDbLine
  8
0
 62
256
370
-1
  6
BYLAYER
 10
-289.0
 20
16.9999999999999432
 30
0.0
 11
-289.0
 21
32.9999999999999432
 31
0.0
  0
LINE
  5
2CF
100
AcDbEntity
100
AcDbLine
  8
0
 62
256
370
-1
  6
BYLAYER
 10
-278.0
 20
29.9999999999999432
 30
0.0
 11
-289.0
 21
29.9999999999999432
 31
0.0
  0
LINE
  5
2D0
100
AcDbEntity
100
AcDbLine
  8
0
 62
256
370
-1
  6
BYLAYER
 10
-289.0
 20
29.9999999999999432
 30
0.0
 11
-289.0
 21
29.9999999999999432
 31
0.0
  0
LINE
  5
2D1
100
AcDbEntity
100
AcDbLine
  8
0
 62
256
370
-1
  6
DOT2
 10
-270.0
 20
-0.0000000000000568
 30
0.0
 11
-299.9999999999998863
 21
-0.0000000000000568
 31
0.0
  0
SPLINE
  5
2D2
  8
0
 62
256
370
-1
  6
DOT2
100
AcDbEntity
100
AcDbSpline
 70
8
 71
3
 72
9
 73
5
 74
0
 40
0.0
 40
0.0
 40
0.0
 40
0.0
 40
1.0
 40
2.0
 40
2.0
 40
2.0
 40
2.0
 10
-270.0
 20
48.9999999999999432
 30
0.0
 10
-282.0
 20
48.9999999999999432
 30
0.0
 10
-295.0
 20
47.9999999999999432
 30
0.0
 10
-295.0
 20
42.9999999999999432
 30
0.0
 10
-295.0
 20
24.9999999999999432
 30
0.0
  0
LINE
  5
2D3
100
AcDbEntity
100
AcDbLine
  8
0
 62
256
370
-1
  6
DOT2
 10
-299.9999999999998863
 20
-0.0000000000000568
 30
0.0
 11
-299.9999999999998863
 21
49.9999999999999432
 31
0.0
  0
LINE
  5
2D4
100
AcDbEntity
100
AcDbLine
  8
0
 62
256
370
-1
  6
DOT2
 10
-299.9999999999999432
 20
-5.0000000000000853
 30
0.0
 11
-270.0
 21
-5.0000000000000853
 31
0.0
  0
LINE
  5
2D5
100
AcDbEntity
100
AcDbLine
  8
0
 62
256
370
-1
  6
BYLAYER
 10
-289.0
 20
-38.0000000000000853
 30
0.0
 11
-270.0
 21
-38.0000000000000853
 31
0.0
  0
SPLINE
  5
2D6
  8
0
 62
256
370
-1
  6
DOT2
100
AcDbEntity
100
AcDbSpline
 70
8
 71
3
 72
9
 73
5
 74
0
 40
0.0
 40
0.0
 40
0.0
 40
0.0
 40
1.0
 40
2.0
 40
2.0
 40
2.0
 40
2.0
 10
-270.0
 20
-54.0000000000000853
 30
0.0
 10
-282.0
 20
-54.0000000000000853
 30
0.0
 10
-295.0
 20
-53.0000000000000853
 30
0.0
 10
-295.0
 20
-48.0000000000000853
 30
0.0
 10
-295.0
 20
-30.0000000000000853
 30
0.0
  0
LINE
  5
2D7
100
AcDbEntity
100
AcDbLine
  8
0
 62
256
370
-1
  6
BYLAYER
 10
-289.0
 20
-22.0000000000000853
 30
0.0
 11
-270.0
 21
-22.0000000000001137
 31
0.0
  0
LINE
  5
2D8
100
AcDbEntity
100
AcDbLine
  8
0
 62
256
370
-1
  6
BYLAYER
 10
-278.0
 20
-38.0000000000000853
 30
0.0
 11
-278.0
 21
-35.0000000000000853
 31
0.0
  0
LINE
  5
2D9
100
AcDbEntity
100
AcDbLine
  8
0
 62
256
370
-1
  6
DOT2
 10
-270.0000000000001137
 20
-55.0000000000000924
 30
0.0
 11
-269.9999999999998863
 21
160.0000000000000284
 31
0.0
  0
LINE
  5
2DA
100
AcDbEntity
100
AcDbLine
  8
0
 62
256
370
-1
  6
BYLAYER
 10
-278.0
 20
-35.0000000000000853
 30
0.0
 11
-289.0
 21
-35.0000000000000853
 31
0.0
  0
LINE
  5
2DB
100
AcDbEntity
100
AcDbLine
  8
0
 62
256
370
-1
  6
BYLAYER
 10
-278.0
 20
-22.0000000000000853
 30
0.0
 11
-278.0
 21
-25.0000000000000853
 31
0.0
  0
LINE
  5
2DC
100
AcDbEntity
100
AcDbLine
  8
0
 62
256
370
-1
  6
BYLAYER
 10
-289.0
 20
-38.0000000000000853
 30
0.0
 11
-289.0
 21
-22.0000000000000853
 31
0.0
  0
LINE
  5
2DD
100
AcDbEntity
100
AcDbLine
  8
0
 62
256
370
-1
  6
BYLAYER
 10
-278.0
 20
-25.0000000000000853
 30
0.0
 11
-289.0
 21
-25.0000000000000853
 31
0.0
  0
LINE
  5
2DE
100
AcDbEntity
100
AcDbLine
  8
0
 62
256
370
-1
  6
BYLAYER
 10
-289.0
 20
-25.0000000000000853
 30
0.0
 11
-289.0
 21
-25.0000000000000853
 31
0.0
  0
LINE
  5
2DF
100
AcDbEntity
100
AcDbLine
  8
0
 62
256
370
-1
  6
DOT2
 10
-270.0
 20
-55.0000000000000853
 30
0.0
 11
-299.9999999999999432
 21
-55.0000000000000853
 31
0.0
  0
SPLINE
  5
2E0
  8
0
 62
256
370
-1
  6
DOT2
100
AcDbEntity
100
AcDbSpline
 70
8
 71
3
 72
9
 73
5
 74
0
 40
0.0
 40
0.0
 40
0.0
 40
0.0
 40
1.0
 40
2.0
 40
2.0
 40
2.0
 40
2.0
 10
-270.0
 20
-6.0000000000000853
 30
0.0
 10
-282.0
 20
-6.0000000000000853
 30
0.0
 10
-295.0
 20
-7.0000000000000853
 30
0.0
 10
-295.0
 20
-12.0000000000000853
 30
0.0
 10
-295.0
 20
-30.0000000000000853
 30
0.0
  0
LINE
  5
2E1
100
AcDbEntity
100
AcDbLine
  8
0
 62
256
370
-1
  6
DOT2
 10
-299.9999999999999432
 20
-55.0000000000000853
 30
0.0
 11
-299.9999999999999432
 21
-5.0000000000000853
 31
0.0
  0
LINE
  5
2E2
100
AcDbEntity
100
AcDbLine
  8
0
 62
256
370
-1
  6
BYLAYER
 10
-307.9999999999997726
 20
126.9999999999999716
 30
0.0
 11
-307.9999999999997726
 21
129.9999999999999716
 31
0.0
  0
LINE
  5
2E3
100
AcDbEntity
100
AcDbLine
  8
0
 62
256
370
-1
  6
BYLAYER
 10
-307.9999999999997726
 20
129.9999999999999716
 30
0.0
 11
-318.9999999999997726
 21
129.9999999999999716
 31
0.0
  0
LINE
  5
2E4
100
AcDbEntity
100
AcDbLine
  8
0
 62
256
370
-1
  6
BYLAYER
 10
-307.9999999999997726
 20
142.9999999999999716
 30
0.0
 11
-307.9999999999997726
 21
139.9999999999999716
 31
0.0
  0
LINE
  5
2E5
100
AcDbEntity
100
AcDbLine
  8
0
 62
256
370
-1
  6
BYLAYER
 10
-307.9999999999997726
 20
139.9999999999999716
 30
0.0
 11
-318.9999999999997726
 21
139.9999999999999716
 31
0.0
  0
LINE
  5
2E6
100
AcDbEntity
100
AcDbLine
  8
0
 62
256
370
-1
  6
BYLAYER
 10
-318.9999999999997726
 20
139.9999999999999716
 30
0.0
 11
-318.9999999999997726
 21
139.9999999999999716
 31
0.0
  0
LINE
  5
2E7
100
AcDbEntity
100
AcDbLine
  8
0
 62
256
370
-1
  6
DOT2
 10
-329.9999999999997726
 20
104.9999999999999432
 30
0.0
 11
-299.9999999999998295
 21
104.9999999999999432
 31
0.0
  0
LINE
  5
2E8
100
AcDbEntity
100
AcDbLine
  8
0
 62
256
370
-1
  6
BYLAYER
 10
-318.9999999999997726
 20
71.9999999999999432
 30
0.0
 11
-299.9999999999998295
 21
71.9999999999999432
 31
0.0
  0
SPLINE
  5
2E9
  8
0
 62
256
370
-1
  6
DOT2
100
AcDbEntity
100
AcDbSpline
 70
8
 71
3
 72
9
 73
5
 74
0
 40
0.0
 40
0.0
 40
0.0
 40
0.0
 40
1.0
 40
2.0
 40
2.0
 40
2.0
 40
2.0
 10
-299.9999999999998295
 20
55.9999999999999432
 30
0.0
 10
-311.9999999999998295
 20
55.9999999999999432
 30
0.0
 10
-324.9999999999997726
 20
56.9999999999999432
 30
0.0
 10
-324.9999999999997726
 20
61.9999999999999432
 30
0.0
 10
-324.9999999999997726
 20
79.9999999999999432
 30
0.0
  0
LINE
  5
2EA
100
AcDbEntity
100
AcDbLine
  8
0
 62
256
370
-1
  6
BYLAYER
 10
-318.9999999999997726
 20
87.9999999999999432
 30
0.0
 11
-299.9999999999998295
 21
87.9999999999999147
 31
0.0
  0
LINE
  5
2EB
100
AcDbEntity
100
AcDbLine
  8
0
 62
256
370
-1
  6
BYLAYER
 10
-307.9999999999998295
 20
71.9999999999999432
 30
0.0
 11
-307.9999999999998295
 21
74.9999999999999432
 31
0.0
  0
LINE
  5
2EC
100
AcDbEntity
100
AcDbLine
  8
0
 62
256
370
-1
  6
DOT2
 10
-299.9999999999998295
 20
54.9999999999999432
 30
0.0
 11
-299.9999999999998295
 21
104.9999999999999432
 31
0.0
  0
LINE
  5
2ED
100
AcDbEntity
100
AcDbLine
  8
0
 62
256
370
-1
  6
BYLAYER
 10
-307.9999999999998295
 20
74.9999999999999432
 30
0.0
 11
-318.9999999999997726
 21
74.9999999999999432
 31
0.0
  0
LINE
  5
2EE
100
AcDbEntity
100
AcDbLine
  8
0
 62
256
370
-1
  6
BYLAYER
 10
-307.9999999999998295
 20
87.9999999999999432
 30
0.0
 11
-307.9999999999998295
 21
84.9999999999999432
 31
0.0
  0
LINE
  5
2EF
100
AcDbEntity
100
AcDbLine
  8
0
 62
256
370
-1
  6
BYLAYER
 10
-318.9999999999997726
 20
71.9999999999999432
 30
0.0
 11
-318.9999999999997726
 21
87.9999999999999432
 31
0.0
  0
LINE
  5
2F0
100
AcDbEntity
100
AcDbLine
  8
0
 62
256
370
-1
  6
BYLAYER
 10
-307.9999999999998295
 20
84.9999999999999432
 30
0.0
 11
-318.9999999999997726
 21
84.9999999999999432
 31
0.0
  0
LINE
  5
2F1
100
AcDbEntity
100
AcDbLine
  8
0
 62
256
370
-1
  6
BYLAYER
 10
-318.9999999999997726
 20
84.9999999999999432
 30
0.0
 11
-318.9999999999997726
 21
84.9999999999999432
 31
0.0
  0
LINE
  5
2F2
100
AcDbEntity
100
AcDbLine
  8
0
 62
256
370
-1
  6
DOT2
 10
-299.9999999999998295
 20
54.9999999999999432
 30
0.0
 11
-329.9999999999997726
 21
54.9999999999999432
 31
0.0
  0
SPLINE
  5
2F3
  8
0
 62
256
370
-1
  6
DOT2
100
AcDbEntity
100
AcDbSpline
 70
8
 71
3
 72
9
 73
5
 74
0
 40
0.0
 40
0.0
 40
0.0
 40
0.0
 40
1.0
 40
2.0
 40
2.0
 40
2.0
 40
2.0
 10
-299.9999999999998295
 20
103.9999999999999432
 30
0.0
 10
-311.9999999999998295
 20
103.9999999999999432
 30
0.0
 10
-324.9999999999997726
 20
102.9999999999999432
 30
0.0
 10
-324.9999999999997726
 20
97.9999999999999432
 30
0.0
 10
-324.9999999999997726
 20
79.9999999999999432
 30
0.0
  0
LINE
  5
2F4
100
AcDbEntity
100
AcDbLine
  8
0
 62
256
370
-1
  6
DOT2
 10
-329.9999999999997726
 20
54.9999999999999432
 30
0.0
 11
-329.9999999999997726
 21
104.9999999999999432
 31
0.0
  0
LINE
  5
2F5
100
AcDbEntity
100
AcDbLine
  8
0
 62
256
370
-1
  6
DOT2
 10
-329.9999999999997726
 20
49.9999999999999147
 30
0.0
 11
-299.9999999999998863
 21
49.9999999999999147
 31
0.0
  0
LINE
  5
2F6
100
AcDbEntity
100
AcDbLine
  8
0
 62
256
370
-1
  6
BYLAYER
 10
-318.9999999999998863
 20
16.9999999999999147
 30
0.0
 11
-299.9999999999998863
 21
16.9999999999999147
 31
0.0
  0
SPLINE
  5
2F7
  8
0
 62
256
370
-1
  6
DOT2
100
AcDbEntity
100
AcDbSpline
 70
8
 71
3
 72
9
 73
5
 74
0
 40
0.0
 40
0.0
 40
0.0
 40
0.0
 40
1.0
 40
2.0
 40
2.0
 40
2.0
 40
2.0
 10
-299.9999999999998863
 20
0.9999999999999147
 30
0.0
 10
-311.9999999999998863
 20
0.9999999999999147
 30
0.0
 10
-324.9999999999998863
 20
1.9999999999999147
 30
0.0
 10
-324.9999999999998863
 20
6.9999999999999147
 30
0.0
 10
-324.9999999999998863
 20
24.9999999999999147
 30
0.0
  0
LINE
  5
2F8
100
AcDbEntity
100
AcDbLine
  8
0
 62
256
370
-1
  6
BYLAYER
 10
-318.9999999999998863
 20
32.9999999999999147
 30
0.0
 11
-299.9999999999998863
 21
32.9999999999998863
 31
0.0
  0
LINE
  5
2F9
100
AcDbEntity
100
AcDbLine
  8
0
 62
256
370
-1
  6
BYLAYER
 10
-307.9999999999998863
 20
16.9999999999999147
 30
0.0
 11
-307.9999999999998863
 21
19.9999999999999147
 31
0.0
  0
LINE
  5
2FA
100
AcDbEntity
100
AcDbLine
  8
0
 62
256
370
-1
  6
DOT2
 10
-299.9999999999998863
 20
-0.0000000000000853
 30
0.0
 11
-299.9999999999998863
 21
49.9999999999999147
 31
0.0
  0
LINE
  5
2FB
100
AcDbEntity
100
AcDbLine
  8
0
 62
256
370
-1
  6
BYLAYER
 10
-307.9999999999998863
 20
19.9999999999999147
 30
0.0
 11
-318.9999999999998863
 21
19.9999999999999147
 31
0.0
  0
LINE
  5
2FC
100
AcDbEntity
100
AcDbLine
  8
0
 62
256
370
-1
  6
BYLAYER
 10
-307.9999999999998863
 20
32.9999999999999147
 30
0.0
 11
-307.9999999999998863
 21
29.9999999999999147
 31
0.0
  0
LINE
  5
2FD
100
AcDbEntity
100
AcDbLine
  8
0
 62
256
370
-1
  6
BYLAYER
 10
-318.9999999999998863
 20
16.9999999999999147
 30
0.0
 11
-318.9999999999998863
 21
32.9999999999999147
 31
0.0
  0
LINE
  5
2FE
100
AcDbEntity
100
AcDbLine
  8
0
 62
256
370
-1
  6
BYLAYER
 10
-307.9999999999998863
 20
29.9999999999999147
 30
0.0
 11
-318.9999999999998863
 21
29.9999999999999147
 31
0.0
  0
LINE
  5
2FF
100
AcDbEntity
100
AcDbLine
  8
0
 62
256
370
-1
  6
BYLAYER
 10
-318.9999999999998863
 20
29.9999999999999147
 30
0.0
 11
-318.9999999999998863
 21
29.9999999999999147
 31
0.0
  0
LINE
  5
300
100
AcDbEntity
100
AcDbLine
  8
0
 62
256
370
-1
  6
DOT2
 10
-299.9999999999998863
 20
-0.0000000000000853
 30
0.0
 11
-329.9999999999997726
 21
-0.0000000000000853
 31
0.0
  0
SPLINE
  5
301
  8
0
 62
256
370
-1
  6
DOT2
100
AcDbEntity
100
AcDbSpline
 70
8
 71
3
 72
9
 73
5
 74
0
 40
0.0
 40
0.0
 40
0.0
 40
0.0
 40
1.0
 40
2.0
 40
2.0
 40
2.0
 40
2.0
 10
-299.9999999999998863
 20
48.9999999999999147
 30
0.0
 10
-311.9999999999998863
 20
48.9999999999999147
 30
0.0
 10
-324.9999999999998863
 20
47.9999999999999147
 30
0.0
 10
-324.9999999999998863
 20
42.9999999999999147
 30
0.0
 10
-324.9999999999998863
 20
24.9999999999999147
 30
0.0
  0
LINE
  5
302
100
AcDbEntity
100
AcDbLine
  8
0
 62
256
370
-1
  6
DOT2
 10
-329.9999999999997726
 20
-0.0000000000000853
 30
0.0
 11
-329.9999999999997726
 21
49.9999999999999147
 31
0.0
  0
LINE
  5
303
100
AcDbEntity
100
AcDbLine
  8
0
 62
256
370
-1
  6
DOT2
 10
-329.9999999999998863
 20
-5.0000000000001137
 30
0.0
 11
-299.9999999999999432
 21
-5.0000000000001137
 31
0.0
  0
LINE
  5
304
100
AcDbEntity
100
AcDbLine
  8
0
 62
256
370
-1
  6
BYLAYER
 10
-318.9999999999998863
 20
-38.0000000000001137
 30
0.0
 11
-299.9999999999999432
 21
-38.0000000000001137
 31
0.0
  0
SPLINE
  5
305
  8
0
 62
256
370
-1
  6
DOT2
100
AcDbEntity
100
AcDbSpline
 70
8
 71
3
 72
9
 73
5
 74
0
 40
0.0
 40
0.0
 40
0.0
 40
0.0
 40
1.0
 40
2.0
 40
2.0
 40
2.0
 40
2.0
 10
-299.9999999999999432
 20
-54.0000000000001137
 30
0.0
 10
-311.9999999999999432
 20
-54.0000000000001137
 30
0.0
 10
-324.9999999999998863
 20
-53.0000000000001137
 30
0.0
 10
-324.9999999999998863
 20
-48.0000000000001137
 30
0.0
 10
-324.9999999999998863
 20
-30.0000000000001137
 30
0.0
  0
LINE
  5
306
100
AcDbEntity
100
AcDbLine
  8
0
 62
256
370
-1
  6
BYLAYER
 10
-318.9999999999998863
 20
-22.0000000000001137
 30
0.0
 11
-299.9999999999999432
 21
-22.0000000000001421
 31
0.0
  0
LINE
  5
307
100
AcDbEntity
100
AcDbLine
  8
0
 62
256
370
-1
  6
BYLAYER
 10
-307.9999999999999432
 20
-38.0000000000001137
 30
0.0
 11
-307.9999999999999432
 21
-35.0000000000001137
 31
0.0
  0
LINE
  5
308
100
AcDbEntity
100
AcDbLine
  8
0
 62
256
370
-1
  6
DOT2
 10
-299.9999999999999432
 20
-55.0000000000001137
 30
0.0
 11
-299.9999999999997726
 21
160.0
 31
0.0
  0
LINE
  5
309
100
AcDbEntity
100
AcDbLine
  8
0
 62
256
370
-1
  6
BYLAYER
 10
-307.9999999999999432
 20
-35.0000000000001137
 30
0.0
 11
-318.9999999999998863
 21
-35.0000000000001137
 31
0.0
  0
LINE
  5
30A
100
AcDbEntity
100
AcDbLine
  8
0
 62
256
370
-1
  6
BYLAYER
 10
-307.9999999999999432
 20
-22.0000000000001137
 30
0.0
 11
-307.9999999999999432
 21
-25.0000000000001137
 31
0.0
  0
LINE
  5
30B
100
AcDbEntity
100
AcDbLine
  8
0
 62
256
370
-1
  6
BYLAYER
 10
-318.9999999999998863
 20
-38.0000000000001137
 30
0.0
 11
-318.9999999999998863
 21
-22.0000000000001137
 31
0.0
  0
LINE
  5
30C
100
AcDbEntity
100
AcDbLine
  8
0
 62
256
370
-1
  6
BYLAYER
 10
-307.9999999999999432
 20
-25.0000000000001137
 30
0.0
 11
-318.9999999999998863
 21
-25.0000000000001137
 31
0.0
  0
LINE
  5
30D
100
AcDbEntity
100
AcDbLine
  8
0
 62
256
370
-1
  6
BYLAYER
 10
-318.9999999999998863
 20
-25.0000000000001137
 30
0.0
 11
-318.9999999999998863
 21
-25.0000000000001137
 31
0.0
  0
LINE
  5
30E
100
AcDbEntity
100
AcDbLine
  8
0
 62
256
370
-1
  6
DOT2
 10
-299.9999999999999432
 20
-55.0000000000001137
 30
0.0
 11
-329.9999999999998863
 21
-55.0000000000001137
 31
0.0
  0
SPLINE
  5
30F
  8
0
 62
256
370
-1
  6
DOT2
100
AcDbEntity
100
AcDbSpline
 70
8
 71
3
 72
9
 73
5
 74
0
 40
0.0
 40
0.0
 40
0.0
 40
0.0
 40
1.0
 40
2.0
 40
2.0
 40
2.0
 40
2.0
 10
-299.9999999999999432
 20
-6.0000000000001137
 30
0.0
 10
-311.9999999999999432
 20
-6.0000000000001137
 30
0.0
 10
-324.9999999999998863
 20
-7.0000000000001137
 30
0.0
 10
-324.9999999999998863
 20
-12.0000000000001137
 30
0.0
 10
-324.9999999999998863
 20
-30.0000000000001137
 30
0.0
  0
LINE
  5
310
100
AcDbEntity
100
AcDbLine
  8
0
 62
256
370
-1
  6
DOT2
 10
-329.9999999999998863
 20
-55.0000000000001137
 30
0.0
 11
-329.9999999999998863
 21
-5.0000000000001137
 31
0.0
  0
LINE
  5
311
100
AcDbEntity
100
AcDbLine
  8
0
 62
256
370
-1
  6
BYLAYER
 10
-318.9999999999997726
 20
142.9999999999999716
 30
0.0
 11
-299.9999999999997726
 21
142.9999999999999432
 31
0.0
  0
LINE
  5
312
100
AcDbEntity
100
AcDbLine
  8
0
 62
256
370
-1
  6
DOT2
 10
-299.9999999999997726
 20
109.9999999999999716
 30
0.0
 11
-299.9999999999997726
 21
159.9999999999999716
 31
0.0
  0
LINE
  5
313
100
AcDbEntity
100
AcDbLine
  8
0
 62
256
370
-1
  6
BYLAYER
 10
-318.9999999999997726
 20
126.9999999999999716
 30
0.0
 11
-318.9999999999997726
 21
142.9999999999999716
 31
0.0
  0
LINE
  5
314
100
AcDbEntity
100
AcDbLine
  8
0
 62
256
370
-1
  6
DOT2
 10
-299.9999999999997726
 20
109.9999999999999716
 30
0.0
 11
-329.9999999999996589
 21
109.9999999999999716
 31
0.0
  0
SPLINE
  5
315
  8
0
 62
256
370
-1
  6
DOT2
100
AcDbEntity
100
AcDbSpline
 70
8
 71
3
 72
9
 73
5
 74
0
 40
0.0
 40
0.0
 40
0.0
 40
0.0
 40
1.0
 40
2.0
 40
2.0
 40
2.0
 40
2.0
 10
-299.9999999999997726
 20
158.9999999999999716
 30
0.0
 10
-311.9999999999997726
 20
158.9999999999999716
 30
0.0
 10
-324.9999999999997726
 20
157.9999999999999716
 30
0.0
 10
-324.9999999999997726
 20
152.9999999999999716
 30
0.0
 10
-324.9999999999997726
 20
134.9999999999999716
 30
0.0
  0
LINE
  5
316
100
AcDbEntity
100
AcDbLine
  8
0
 62
256
370
-1
  6
DOT2
 10
-329.9999999999998863
 20
-55.0000000000001208
 30
0.0
 11
-329.9999999999996589
 21
159.9999999999999716
 31
0.0
  0
LINE
  5
317
100
AcDbEntity
100
AcDbLine
  8
0
 62
256
370
-1
  6
DOT2
 10
-329.9999999999996589
 20
159.9999999999999716
 30
0.0
 11
-299.9999999999997726
 21
159.9999999999999716
 31
0.0
  0
LINE
  5
318
100
AcDbEntity
100
AcDbLine
  8
0
 62
256
370
-1
  6
BYLAYER
 10
-318.9999999999997726
 20
126.9999999999999716
 30
0.0
 11
-299.9999999999997726
 21
126.9999999999999716
 31
0.0
  0
SPLINE
  5
319
  8
0
 62
256
370
-1
  6
DOT2
100
AcDbEntity
100
AcDbSpline
 70
8
 71
3
 72
9
 73
5
 74
0
 40
0.0
 40
0.0
 40
0.0
 40
0.0
 40
1.0
 40
2.0
 40
2.0
 40
2.0
 40
2.0
 10
-299.9999999999997726
 20
110.9999999999999716
 30
0.0
 10
-311.9999999999997726
 20
110.9999999999999716
 30
0.0
 10
-324.9999999999997726
 20
111.9999999999999716
 30
0.0
 10
-324.9999999999997726
 20
116.9999999999999716
 30
0.0
 10
-324.9999999999997726
 20
134.9999999999999716
 30
0.0
  0
LINE
  5
31A
100
AcDbEntity
100
AcDbLine
  8
0
 62
256
370
-1
  6
BYLAYER
 10
-288.9999999999998863
 20
143.0
 30
0.0
 11
-269.9999999999998863
 21
142.9999999999999716
 31
0.0
  0
LINE
  5
31B
100
AcDbEntity
100
AcDbLine
  8
0
 62
256
370
-1
  6
DOT2
 10
-269.9999999999998863
 20
110.0
 30
0.0
 11
-269.9999999999998863
 21
160.0
 31
0.0
  0
LINE
  5
31C
100
AcDbEntity
100
AcDbLine
  8
0
 62
256
370
-1
  6
BYLAYER
 10
-288.9999999999998863
 20
127.0
 30
0.0
 11
-288.9999999999998863
 21
143.0
 31
0.0
  0
ENDSEC
  0
SECTION
  2
OBJECTS
  0
DICTIONARY
  5
C
100
AcDbDictionary
280
0
281
1
  3
ACAD_GROUP
350
D
  3
ACAD_LAYOUT
350
1A
  3
ACAD_MLINESTYLE
350
17
  3
ACAD_PLOTSETTINGS
350
19
  3
ACAD_PLOTSTYLENAME
350
E
  3
AcDbVariableDictionary
350
31D
  3
QCAD_OBJECTS
350
31E
  0
DICTIONARY
  5
D
100
AcDbDictionary
280
0
281
1
  0
ACDBDICTIONARYWDFLT
  5
E
100
AcDbDictionary
281
1
  3
Normal
350
F
100
AcDbDictionaryWithDefault
340
F
  0
ACDBPLACEHOLDER
  5
F
  0
DICTIONARY
  5
17
100
AcDbDictionary
280
0
281
1
  3
Standard
350
18
  0
MLINESTYLE
  5
18
100
AcDbMlineStyle
  2
STANDARD
 70
0
  3

 62
256
 51
90.0
 52
90.0
 71
2
 49
0.5
 62
256
  6
BYLAYER
 49
-0.5
 62
256
  6
BYLAYER
  0
DICTIONARY
  5
19
100
AcDbDictionary
280
0
281
1
  0
DICTIONARY
  5
1A
100
AcDbDictionary
281
1
  3
Layout1
350
1E
  3
Layout2
350
26
  3
Model
350
22
  0
LAYOUT
  5
1E
100
AcDbPlotSettings
  1

  2
none_device
  4

  6

 40
0.0
 41
0.0
 42
0.0
 43
0.0
 44
0.0
 45
0.0
 46
0.0
 47
0.0
 48
0.0
 49
0.0
140
0.0
141
0.0
142
1.0
143
1.0
 70
688
 72
0
 73
0
 74
5
  7

 75
16
147
1.0
148
0.0
149
0.0
100
AcDbLayout
  1
Layout1
 70
1
 71
1
 10
0.0
 20
0.0
 11
420.0
 21
297.0
 12
0.0
 22
0.0
 32
0.0
 14
100000000000000000000.0
 24
100000000000000000000.0
 34
100000000000000000000.0
 15
-100000000000000000000.0
 25
-100000000000000000000.0
 35
-100000000000000000000.0
146
0.0
 13
0.0
 23
0.0
 33
0.0
 16
1.0
 26
0.0
 36
0.0
 17
0.0
 27
1.0
 37
0.0
 76
0
330
1B
  0
LAYOUT
  5
22
100
AcDbPlotSettings
  1

  2
none_device
  4

  6

 40
0.0
 41
0.0
 42
0.0
 43
0.0
 44
0.0
 45
0.0
 46
0.0
 47
0.0
 48
0.0
 49
0.0
140
0.0
141
0.0
142
1.0
143
1.0
 70
1712
 72
0
 73
0
 74
0
  7

 75
0
147
1.0
148
0.0
149
0.0
100
AcDbLayout
  1
Model
 70
1
 71
0
 10
0.0
 20
0.0
 11
12.0
 21
9.0
 12
0.0
 22
0.0
 32
0.0
 14
0.0
 24
0.0
 34
0.0
 15
0.0
 25
0.0
 35
0.0
146
0.0
 13
0.0
 23
0.0
 33
0.0
 16
1.0
 26
0.0
 36
0.0
 17
0.0
 27
1.0
 37
0.0
 76
0
330
1F
  0
LAYOUT
  5
26
100
AcDbPlotSettings
  1

  2
none_device
  4

  6

 40
0.0
 41
0.0
 42
0.0
 43
0.0
 44
0.0
 45
0.0
 46
0.0
 47
0.0
 48
0.0
 49
0.0
140
0.0
141
0.0
142
1.0
143
1.0
 70
688
 72
0
 73
0
 74
5
  7

 75
16
147
1.0
148
0.0
149
0.0
100
AcDbLayout
  1
Layout2
 70
1
 71
2
 10
0.0
 20
0.0
 11
12.0
 21
9.0
 12
0.0
 22
0.0
 32
0.0
 14
0.0
 24
0.0
 34
0.0
 15
0.0
 25
0.0
 35
0.0
146
0.0
 13
0.0
 23
0.0
 33
0.0
 16
1.0
 26
0.0
 36
0.0
 17
0.0
 27
1.0
 37
0.0
 76
0
330
23
  0
DICTIONARY
  5
31D
100
AcDbDictionary
281
1
  3
DIMASSOC
350
320
  3
HIDETEXT
350
31F
  0
DICTIONARYVAR
  5
31F
100
DictionaryVariables
280
0
  1
2
  0
DICTIONARYVAR
  5
320
100
DictionaryVariables
280
0
  1
1
  0
DICTIONARY
  5
31E
100
AcDbDictionary
281
1
  3
Grid/DisplayGrid00
350
321
  3
Grid/DisplayGrid01
350
322
  3
Grid/DisplayGrid02
350
323
  3
Grid/DisplayGrid03
350
324
  3
Grid/GridSpacingX00
350
325
  3
Grid/GridSpacingX01
350
326
  3
Grid/GridSpacingX02
350
327
  3
Grid/GridSpacingX03
350
328
  3
Grid/GridSpacingY00
350
329
  3
Grid/GridSpacingY01
350
32A
  3
Grid/GridSpacingY02
350
32B
  3
Grid/GridSpacingY03
350
32C
  3
Grid/IsometricGrid00
350
32D
  3
Grid/IsometricGrid01
350
32E
  3
Grid/IsometricGrid02
350
32F
  3
Grid/IsometricGrid03
350
330
  3
Grid/IsometricProjection00
350
331
  3
Grid/IsometricProjection01
350
332
  3
Grid/IsometricProjection02
350
333
  3
Grid/IsometricProjection03
350
334
  3
Grid/MetaGridSpacingX00
350
335
  3
Grid/MetaGridSpacingX01
350
336
  3
Grid/MetaGridSpacingX02
350
337
  3
Grid/MetaGridSpacingX03
350
338
  3
Grid/MetaGridSpacingY00
350
339
  3
Grid/MetaGridSpacingY01
350
33A
  3
Grid/MetaGridSpacingY02
350
33B
  3
Grid/MetaGridSpacingY03
350
33C
  3
MultiPageSettings/Columns
350
33D
  3
MultiPageSettings/GlueMarginsBottom
350
33E
  3
MultiPageSettings/GlueMarginsLeft
350
33F
  3
MultiPageSettings/GlueMarginsRight
350
340
  3
MultiPageSettings/GlueMarginsTop
350
341
  3
MultiPageSettings/PrintCropMarks
350
342
  3
MultiPageSettings/Rows
350
343
  3
PageSettings/OffsetX
350
344
  3
PageSettings/OffsetY
350
345
  3
PageSettings/PageOrientation
350
346
  3
PageSettings/PaperHeight
350
347
  3
PageSettings/PaperWidth
350
348
  3
PageSettings/Scale
350
349
  3
PageSettings/ShowPaperBorders
350
34A
  3
UnitSettings/PaperUnit
350
34B
  0
XRECORD
  5
321
330
31E
100
AcDbXrecord
280
1
290
1
  0
XRECORD
  5
322
330
31E
100
AcDbXrecord
280
1
290
1
  0
XRECORD
  5
323
330
31E
100
AcDbXrecord
280
1
290
1
  0
XRECORD
  5
324
330
31E
100
AcDbXrecord
280
1
290
1
  0
XRECORD
  5
325
330
31E
100
AcDbXrecord
280
1
1000
auto
  0
XRECORD
  5
326
330
31E
100
AcDbXrecord
280
1
1000
auto
  0
XRECORD
  5
327
330
31E
100
AcDbXrecord
280
1
1000
auto
  0
XRECORD
  5
328
330
31E
100
AcDbXrecord
280
1
1000
auto
  0
XRECORD
  5
329
330
31E
100
AcDbXrecord
280
1
1000
auto
  0
XRECORD
  5
32A
330
31E
100
AcDbXrecord
280
1
1000
auto
  0
XRECORD
  5
32B
330
31E
100
AcDbXrecord
280
1
1000
auto
  0
XRECORD
  5
32C
330
31E
100
AcDbXrecord
280
1
1000
auto
  0
XRECORD
  5
32D
330
31E
100
AcDbXrecord
280
1
290
0
  0
XRECORD
  5
32E
330
31E
100
AcDbXrecord
280
1
290
0
  0
XRECORD
  5
32F
330
31E
100
AcDbXrecord
280
1
290
0
  0
XRECORD
  5
330
330
31E
100
AcDbXrecord
280
1
290
0
  0
XRECORD
  5
331
330
31E
100
AcDbXrecord
280
1
 90
0
  0
XRECORD
  5
332
330
31E
100
AcDbXrecord
280
1
 90
0
  0
XRECORD
  5
333
330
31E
100
AcDbXrecord
280
1
 90
0
  0
XRECORD
  5
334
330
31E
100
AcDbXrecord
280
1
 90
0
  0
XRECORD
  5
335
330
31E
100
AcDbXrecord
280
1
1000
auto
  0
XRECORD
  5
336
330
31E
100
AcDbXrecord
280
1
1000
auto
  0
XRECORD
  5
337
330
31E
100
AcDbXrecord
280
1
1000
auto
  0
XRECORD
  5
338
330
31E
100
AcDbXrecord
280
1
1000
auto
  0
XRECORD
  5
339
330
31E
100
AcDbXrecord
280
1
1000
auto
  0
XRECORD
  5
33A
330
31E
100
AcDbXrecord
280
1
1000
auto
  0
XRECORD
  5
33B
330
31E
100
AcDbXrecord
280
1
1000
auto
  0
XRECORD
  5
33C
330
31E
100
AcDbXrecord
280
1
1000
auto
  0
XRECORD
  5
33D
330
31E
100
AcDbXrecord
280
1
 90
1
  0
XRECORD
  5
33E
330
31E
100
AcDbXrecord
280
1
 40
10.0
  0
XRECORD
  5
33F
330
31E
100
AcDbXrecord
280
1
 40
10.0
  0
XRECORD
  5
340
330
31E
100
AcDbXrecord
280
1
 40
10.0
  0
XRECORD
  5
341
330
31E
100
AcDbXrecord
280
1
 40
10.0
  0
XRECORD
  5
342
330
31E
100
AcDbXrecord
280
1
290
0
  0
XRECORD
  5
343
330
31E
100
AcDbXrecord
280
1
 90
1
  0
XRECORD
  5
344
330
31E
100
AcDbXrecord
280
1
 40
-47.6199524916550629
  0
XRECORD
  5
345
330
31E
100
AcDbXrecord
280
1
 40
-103.6633828891466464
  0
XRECORD
  5
346
330
31E
100
AcDbXrecord
280
1
1000
Portrait
  0
XRECORD
  5
347
330
31E
100
AcDbXrecord
280
1
 40
279.3999999999999773
  0
XRECORD
  5
348
330
31E
100
AcDbXrecord
280
1
 40
215.9000000000000057
  0
XRECORD
  5
349
330
31E
100
AcDbXrecord
280
1
1000
1:1
  0
XRECORD
  5
34A
330
31E
100
AcDbXrecord
280
1
290
1
  0
XRECORD
  5
34B
330
31E
100
AcDbXrecord
280
1
 90
4
  0
ENDSEC
  0
EOF
