999
dxflib 3.3.4.0
  0
SECTION
  2
HEADER
  9
$ACADVER
  1
AC1015
  9
$HANDSEED
  5
FFFF
  9
$DIMADEC
 70
0
  9
$DIMASZ
 40
2.5
  9
$DIMAUNIT
 70
0
  9
$DIMAZIN
 70
2
  9
$DIMDEC
 70
4
  9
$DIMEXE
 40
1.25
  9
$DIMEXO
 40
0.625
  9
$DIMGAP
 40
0.625
  9
$DIMLUNIT
 70
2
  9
$DIMTSZ
 40
0.0
  9
$DIMTXT
 40
2.5
  9
$DIMZIN
 70
8
  9
$DWGCODEPAGE
  3
ANSI_1252
  9
$INSUNITS
 70
4
  9
$LTSCALE
 40
1.0
  0
ENDSEC
  0
SECTION
  2
TABLES
  0
TABLE
  2
VPORT
  5
8
100
AcDbSymbolTable
 70
1
  0
VPORT
  5
30
100
AcDbSymbolTableRecord
100
AcDbViewportTableRecord
  2
*Active
 70
0
 10
0.0
 20
0.0
 11
1.0
 21
1.0
 12
286.3055555555554861
 22
148.5
 13
0.0
 23
0.0
 14
10.0
 24
10.0
 15
10.0
 25
10.0
 16
0.0
 26
0.0
 36
1.0
 17
0.0
 27
0.0
 37
0.0
 40
297.0
 41
1.92798353909465
 42
50.0
 43
0.0
 44
0.0
 50
0.0
 51
0.0
 71
0
 72
100
 73
1
 74
3
 75
1
 76
1
 77
0
 78
0
281
0
 65
1
110
0.0
120
0.0
130
0.0
111
1.0
121
0.0
131
0.0
112
0.0
122
1.0
132
0.0
 79
0
146
0.0
  0
ENDTAB
  0
TABLE
  2
LTYPE
  5
5
100
AcDbSymbolTable
 70
21
  0
LTYPE
  5
16
100
AcDbSymbolTableRecord
100
AcDbLinetypeTableRecord
  2
CONTINUOUS
 70
0
  3
Solid line
 72
65
 73
0
 40
0.0
  0
LTYPE
  5
31
100
AcDbSymbolTableRecord
100
AcDbLinetypeTableRecord
  2
CENTER2
 70
0
  3
Center (.5x) ___ _ ___ _ ___ _ ___ _ ___ _ ___
 72
65
 73
4
 40
28.5749999999999993
 49
19.0500000000000007
 74
0
 49
-3.1749999999999998
 74
0
 49
3.1749999999999998
 74
0
 49
-3.1749999999999998
 74
0
  0
LTYPE
  5
32
100
AcDbSymbolTableRecord
100
AcDbLinetypeTableRecord
  2
DIVIDEX2
 70
0
  3
Divide (2x) ________  .  .  ________  .  .  _
 72
65
 73
6
 40
63.5
 49
25.3999999999999986
 74
0
 49
-12.6999999999999993
 74
0
 49
0.0
 74
0
 49
-12.6999999999999993
 74
0
 49
0.0
 74
0
 49
-12.6999999999999993
 74
0
  0
LTYPE
  5
33
100
AcDbSymbolTableRecord
100
AcDbLinetypeTableRecord
  2
DOT2
 70
0
  3
Dot (.5x) .....................................
 72
65
 73
2
 40
3.1749999999999998
 49
0.0
 74
0
 49
-3.1749999999999998
 74
0
  0
LTYPE
  5
34
100
AcDbSymbolTableRecord
100
AcDbLinetypeTableRecord
  2
DASHDOT2
 70
0
  3
Dash dot (.5x) _._._._._._._._._._._._._._._.
 72
65
 73
4
 40
12.6999999999999993
 49
6.3499999999999996
 74
0
 49
-3.1749999999999998
 74
0
 49
0.0
 74
0
 49
-3.1749999999999998
 74
0
  0
LTYPE
  5
35
100
AcDbSymbolTableRecord
100
AcDbLinetypeTableRecord
  2
DIVIDE
 70
0
  3
Divide ____ . . ____ . . ____ . . ____ . . ____
 72
65
 73
6
 40
31.75
 49
12.6999999999999993
 74
0
 49
-6.3499999999999996
 74
0
 49
0.0
 74
0
 49
-6.3499999999999996
 74
0
 49
0.0
 74
0
 49
-6.3499999999999996
 74
0
  0
LTYPE
  5
36
100
AcDbSymbolTableRecord
100
AcDbLinetypeTableRecord
  2
DASHDOT
 70
0
  3
Dash dot __ . __ . __ . __ . __ . __ . __ . __
 72
65
 73
4
 40
25.3999999999999986
 49
12.6999999999999993
 74
0
 49
-6.3499999999999996
 74
0
 49
0.0
 74
0
 49
-6.3499999999999996
 74
0
  0
LTYPE
  5
37
100
AcDbSymbolTableRecord
100
AcDbLinetypeTableRecord
  2
BORDER
 70
0
  3
Border __ __ . __ __ . __ __ . __ __ . __ __ .
 72
65
 73
6
 40
44.4500000000000028
 49
12.6999999999999993
 74
0
 49
-6.3499999999999996
 74
0
 49
12.6999999999999993
 74
0
 49
-6.3499999999999996
 74
0
 49
0.0
 74
0
 49
-6.3499999999999996
 74
0
  0
LTYPE
  5
38
100
AcDbSymbolTableRecord
100
AcDbLinetypeTableRecord
  2
DASHDOTX2
 70
0
  3
Dash dot (2x) ____  .  ____  .  ____  .  ___
 72
65
 73
4
 40
50.7999999999999972
 49
25.3999999999999986
 74
0
 49
-12.6999999999999993
 74
0
 49
0.0
 74
0
 49
-12.6999999999999993
 74
0
  0
LTYPE
  5
39
100
AcDbSymbolTableRecord
100
AcDbLinetypeTableRecord
  2
CENTERX2
 70
0
  3
Center (2x) ________  __  ________  __  _____
 72
65
 73
4
 40
101.5999999999999943
 49
63.5
 74
0
 49
-12.6999999999999993
 74
0
 49
12.6999999999999993
 74
0
 49
-12.6999999999999993
 74
0
  0
LTYPE
  5
3A
100
AcDbSymbolTableRecord
100
AcDbLinetypeTableRecord
  2
BORDER2
 70
0
  3
Border (.5x) __.__.__.__.__.__.__.__.__.__.__.
 72
65
 73
6
 40
22.2250000000000014
 49
6.3499999999999996
 74
0
 49
-3.1749999999999998
 74
0
 49
6.3499999999999996
 74
0
 49
-3.1749999999999998
 74
0
 49
0.0
 74
0
 49
-3.1749999999999998
 74
0
  0
LTYPE
  5
3B
100
AcDbSymbolTableRecord
100
AcDbLinetypeTableRecord
  2
BORDERX2
 70
0
  3
Border (2x) ____  ____  .  ____  ____  .  ___
 72
65
 73
6
 40
88.9000000000000057
 49
25.3999999999999986
 74
0
 49
-12.6999999999999993
 74
0
 49
25.3999999999999986
 74
0
 49
-12.6999999999999993
 74
0
 49
0.0
 74
0
 49
-12.6999999999999993
 74
0
  0
LTYPE
  5
14
100
AcDbSymbolTableRecord
100
AcDbLinetypeTableRecord
  2
BYBLOCK
 70
0
  3

 72
65
 73
0
 40
0.0
  0
LTYPE
  5
15
100
AcDbSymbolTableRecord
100
AcDbLinetypeTableRecord
  2
BYLAYER
 70
0
  3

 72
65
 73
0
 40
0.0
  0
LTYPE
  5
3C
100
AcDbSymbolTableRecord
100
AcDbLinetypeTableRecord
  2
DASHED2
 70
0
  3
Dashed (.5x) _ _ _ _ _ _ _ _ _ _ _ _ _ _ _ _ _
 72
65
 73
2
 40
9.5250000000000004
 49
6.3499999999999996
 74
0
 49
-3.1749999999999998
 74
0
  0
LTYPE
  5
3D
100
AcDbSymbolTableRecord
100
AcDbLinetypeTableRecord
  2
CENTER
 70
0
  3
Center ____ _ ____ _ ____ _ ____ _ ____ _ ____
 72
65
 73
4
 40
50.7999999999999972
 49
31.75
 74
0
 49
-6.3499999999999996
 74
0
 49
6.3499999999999996
 74
0
 49
-6.3499999999999996
 74
0
  0
LTYPE
  5
3E
100
AcDbSymbolTableRecord
100
AcDbLinetypeTableRecord
  2
DIVIDE2
 70
0
  3
Divide (.5x) __..__..__..__..__..__..__..__.._
 72
65
 73
6
 40
15.875
 49
6.3499999999999996
 74
0
 49
-3.1749999999999998
 74
0
 49
0.0
 74
0
 49
-3.1749999999999998
 74
0
 49
0.0
 74
0
 49
-3.1749999999999998
 74
0
  0
LTYPE
  5
3F
100
AcDbSymbolTableRecord
100
AcDbLinetypeTableRecord
  2
DASHED
 70
0
  3
Dashed __ __ __ __ __ __ __ __ __ __ __ __ __ _
 72
65
 73
2
 40
19.0500000000000007
 49
12.6999999999999993
 74
0
 49
-6.3499999999999996
 74
0
  0
LTYPE
  5
40
100
AcDbSymbolTableRecord
100
AcDbLinetypeTableRecord
  2
DOTX2
 70
0
  3
Dot (2x) .  .  .  .  .  .  .  .  .  .  .  .  .
 72
65
 73
2
 40
12.6999999999999993
 49
0.0
 74
0
 49
-12.6999999999999993
 74
0
  0
LTYPE
  5
41
100
AcDbSymbolTableRecord
100
AcDbLinetypeTableRecord
  2
DASHEDX2
 70
0
  3
Dashed (2x) ____  ____  ____  ____  ____  ___
 72
65
 73
2
 40
38.1000000000000014
 49
25.3999999999999986
 74
0
 49
-12.6999999999999993
 74
0
  0
LTYPE
  5
42
100
AcDbSymbolTableRecord
100
AcDbLinetypeTableRecord
  2
DOT
 70
0
  3
Dot . . . . . . . . . . . . . . . . . . . . . .
 72
65
 73
2
 40
6.3499999999999996
 49
0.0
 74
0
 49
-6.3499999999999996
 74
0
  0
ENDTAB
  0
TABLE
  2
LAYER
  5
2
100
AcDbSymbolTable
 70
1
  0
LAYER
  5
10
100
AcDbSymbolTableRecord
100
AcDbLayerTableRecord
  2
0
 70
0
 62
7
420
0
  6
CONTINUOUS
370
25
390
F
  0
ENDTAB
  0
TABLE
  2
STYLE
  5
3
100
AcDbSymbolTable
 70
18
  0
STYLE
  5
43
100
AcDbSymbolTableRecord
100
AcDbTextStyleTableRecord
  2
Standard
 70
0
 40
0.0
 41
1.0
 50
0.0
 71
0
 42
2.5
  3

  4

1001
ACAD
1000
txt
1071
0
  0
STYLE
  5
44
100
AcDbSymbolTableRecord
100
AcDbTextStyleTableRecord
  2
textstyle0
 70
0
 40
0.0
 41
1.0
 50
0.0
 71
0
 42
1.0
  3

  4

1001
ACAD
1000
Impact
1071
0
  0
STYLE
  5
45
100
AcDbSymbolTableRecord
100
AcDbTextStyleTableRecord
  2
textstyle1
 70
0
 40
0.0
 41
1.0
 50
0.0
 71
0
 42
1.0
  3

  4

1001
ACAD
1000
Impact
1071
0
  0
STYLE
  5
46
100
AcDbSymbolTableRecord
100
AcDbTextStyleTableRecord
  2
textstyle2
 70
0
 40
0.0
 41
1.0
 50
0.0
 71
0
 42
1.0
  3

  4

1001
ACAD
1000
Impact
1071
0
  0
STYLE
  5
47
100
AcDbSymbolTableRecord
100
AcDbTextStyleTableRecord
  2
textstyle3
 70
0
 40
0.0
 41
1.0
 50
0.0
 71
0
 42
1.0
  3

  4

1001
ACAD
1000
Impact
1071
0
  0
STYLE
  5
48
100
AcDbSymbolTableRecord
100
AcDbTextStyleTableRecord
  2
textstyle4
 70
0
 40
0.0
 41
1.0
 50
0.0
 71
0
 42
1.0
  3

  4

1001
ACAD
1000
Impact
1071
0
  0
STYLE
  5
49
100
AcDbSymbolTableRecord
100
AcDbTextStyleTableRecord
  2
textstyle5
 70
0
 40
0.0
 41
1.0
 50
0.0
 71
0
 42
1.0
  3

  4

1001
ACAD
1000
Impact
1071
0
  0
STYLE
  5
4A
100
AcDbSymbolTableRecord
100
AcDbTextStyleTableRecord
  2
textstyle6
 70
0
 40
0.0
 41
1.0
 50
0.0
 71
0
 42
1.0
  3

  4

1001
ACAD
1000
Impact
1071
0
  0
STYLE
  5
4B
100
AcDbSymbolTableRecord
100
AcDbTextStyleTableRecord
  2
textstyle7
 70
0
 40
0.0
 41
1.0
 50
0.0
 71
0
 42
1.0
  3

  4

1001
ACAD
1000
Impact
1071
0
  0
STYLE
  5
4C
100
AcDbSymbolTableRecord
100
AcDbTextStyleTableRecord
  2
textstyle8
 70
0
 40
0.0
 41
1.0
 50
0.0
 71
0
 42
1.0
  3

  4

1001
ACAD
1000
Impact
1071
0
  0
STYLE
  5
4D
100
AcDbSymbolTableRecord
100
AcDbTextStyleTableRecord
  2
textstyle9
 70
0
 40
0.0
 41
1.0
 50
0.0
 71
0
 42
1.0
  3

  4

1001
ACAD
1000
Impact
1071
0
  0
STYLE
  5
4E
100
AcDbSymbolTableRecord
100
AcDbTextStyleTableRecord
  2
textstyle10
 70
0
 40
0.0
 41
1.0
 50
0.0
 71
0
 42
1.0
  3

  4

1001
ACAD
1000
Impact
1071
0
  0
STYLE
  5
4F
100
AcDbSymbolTableRecord
100
AcDbTextStyleTableRecord
  2
textstyle11
 70
0
 40
0.0
 41
1.0
 50
0.0
 71
0
 42
1.0
  3

  4

1001
ACAD
1000
Impact
1071
0
  0
STYLE
  5
50
100
AcDbSymbolTableRecord
100
AcDbTextStyleTableRecord
  2
textstyle12
 70
0
 40
0.0
 41
1.0
 50
0.0
 71
0
 42
1.0
  3

  4

1001
ACAD
1000
Impact
1071
0
  0
STYLE
  5
51
100
AcDbSymbolTableRecord
100
AcDbTextStyleTableRecord
  2
textstyle13
 70
0
 40
0.0
 41
1.0
 50
0.0
 71
0
 42
1.0
  3

  4

1001
ACAD
1000
Impact
1071
0
  0
STYLE
  5
52
100
AcDbSymbolTableRecord
100
AcDbTextStyleTableRecord
  2
textstyle14
 70
0
 40
0.0
 41
1.0
 50
0.0
 71
0
 42
1.0
  3

  4

1001
ACAD
1000
Impact
1071
0
  0
STYLE
  5
53
100
AcDbSymbolTableRecord
100
AcDbTextStyleTableRecord
  2
textstyle15
 70
0
 40
0.0
 41
1.0
 50
0.0
 71
0
 42
1.0
  3

  4

1001
ACAD
1000
Impact
1071
0
  0
STYLE
  5
54
100
AcDbSymbolTableRecord
100
AcDbTextStyleTableRecord
  2
textstyle16
 70
0
 40
0.0
 41
1.0
 50
0.0
 71
0
 42
1.0
  3

  4

1001
ACAD
1000
Impact
1071
0
  0
ENDTAB
  0
TABLE
  2
VIEW
  5
6
100
AcDbSymbolTable
 70
0
  0
ENDTAB
  0
TABLE
  2
UCS
  5
7
100
AcDbSymbolTable
 70
0
  0
ENDTAB
  0
TABLE
  2
APPID
  5
9
100
AcDbSymbolTable
 70
1
  0
APPID
  5
12
100
AcDbSymbolTableRecord
100
AcDbRegAppTableRecord
  2
ACAD
 70
0
  0
APPID
  5
55
100
AcDbSymbolTableRecord
100
AcDbRegAppTableRecord
  2
QCAD
 70
0
  0
ENDTAB
  0
TABLE
  2
DIMSTYLE
  5
A
100
AcDbSymbolTable
 70
1
100
AcDbDimStyleTable
 71
0
  0
DIMSTYLE
105
27
100
AcDbSymbolTableRecord
100
AcDbDimStyleTableRecord
  2
Standard
 41
2.5
 42
0.625
 43
3.75
 44
1.25
 70
0
 73
0
 74
0
 77
1
 78
8
140
2.5
141
2.5
143
0.03937007874016
147
0.625
171
3
172
1
271
2
272
2
274
3
278
44
283
0
284
8
340
43
  0
ENDTAB
  0
TABLE
  2
BLOCK_RECORD
  5
1
100
AcDbSymbolTable
 70
1
  0
BLOCK_RECORD
  5
1F
100
AcDbSymbolTableRecord
100
AcDbBlockTableRecord
  2
*Model_Space
340
22
  0
BLOCK_RECORD
  5
1B
100
AcDbSymbolTableRecord
100
AcDbBlockTableRecord
  2
*Paper_Space
340
1E
  0
BLOCK_RECORD
  5
23
100
AcDbSymbolTableRecord
100
AcDbBlockTableRecord
  2
*Paper_Space0
340
26
  0
BLOCK_RECORD
  5
56
100
AcDbSymbolTableRecord
100
AcDbBlockTableRecord
  2
servo
340
0
  0
BLOCK_RECORD
  5
57
100
AcDbSymbolTableRecord
100
AcDbBlockTableRecord
  2
display
340
0
  0
BLOCK_RECORD
  5
58
100
AcDbSymbolTableRecord
100
AcDbBlockTableRecord
  2
ground
340
0
  0
BLOCK_RECORD
  5
59
100
AcDbSymbolTableRecord
100
AcDbBlockTableRecord
  2
high_freq
340
0
  0
BLOCK_RECORD
  5
5A
100
AcDbSymbolTableRecord
100
AcDbBlockTableRecord
  2
dds
340
0
  0
BLOCK_RECORD
  5
5B
100
AcDbSymbolTableRecord
100
AcDbBlockTableRecord
  2
power
340
0
  0
BLOCK_RECORD
  5
5C
100
AcDbSymbolTableRecord
100
AcDbBlockTableRecord
  2
buttons
340
0
  0
ENDTAB
  0
ENDSEC
  0
SECTION
  2
BLOCKS
  0
BLOCK
  5
20
100
AcDbEntity
  8
0
100
AcDbBlockBegin
  2
*Model_Space
 70
0
 10
0.0
 20
0.0
 30
0.0
  3
*Model_Space
  1

  0
ENDBLK
  5
21
100
AcDbEntity
  8
0
100
AcDbBlockEnd
  0
BLOCK
  5
1C
100
AcDbEntity
 67
1
  8
0
100
AcDbBlockBegin
  2
*Paper_Space
 70
0
 10
0.0
 20
0.0
 30
0.0
  3
*Paper_Space
  1

  0
ENDBLK
  5
1D
100
AcDbEntity
 67
1
  8
0
100
AcDbBlockEnd
  0
BLOCK
  5
24
100
AcDbEntity
  8
0
100
AcDbBlockBegin
  2
*Paper_Space0
 70
0
 10
0.0
 20
0.0
 30
0.0
  3
*Paper_Space0
  1

  0
ENDBLK
  5
25
100
AcDbEntity
  8
0
100
AcDbBlockEnd
  0
BLOCK
  5
5D
100
AcDbEntity
  8
0
100
AcDbBlockBegin
  2
servo
 70
0
 10
0.0
 20
0.0
 30
0.0
  3
servo
  1

  0
LINE
  5
5E
100
AcDbEntity
100
AcDbLine
  8
0
 62
256
370
-1
  6
BYLAYER
 10
1.5
 20
-4.0
 30
0.0
 11
1.5
 21
4.0
 31
0.0
  0
LINE
  5
5F
100
AcDbEntity
100
AcDbLine
  8
0
 62
256
370
-1
  6
BYLAYER
 10
1.5
 20
4.0
 30
0.0
 11
-1.5
 21
4.0
 31
0.0
  0
LINE
  5
60
100
AcDbEntity
100
AcDbLine
  8
0
 62
256
370
-1
  6
BYLAYER
 10
-1.5
 20
4.0
 30
0.0
 11
-1.5
 21
-4.0
 31
0.0
  0
LINE
  5
61
100
AcDbEntity
100
AcDbLine
  8
0
 62
256
370
-1
  6
BYLAYER
 10
-1.5
 20
-4.0
 30
0.0
 11
1.5
 21
-4.0
 31
0.0
  0
MTEXT
  5
62
100
AcDbEntity
100
AcDbMText
  8
0
 62
256
370
-1
  6
BYLAYER
 10
6.5214031381524578
 20
0.0266697863343879
 30
0.0
 40
1.0
 41
0.0
 71
5
 72
1
  1
\H3;Servo
  7
textstyle5
 50
90.0
 73
2
 44
1.0
  0
ENDBLK
  5
63
100
AcDbEntity
  8
0
100
AcDbBlockEnd
  0
BLOCK
  5
64
100
AcDbEntity
  8
0
100
AcDbBlockBegin
  2
display
 70
0
 10
0.0
 20
0.0
 30
0.0
  3
display
  1

  0
LINE
  5
65
100
AcDbEntity
100
AcDbLine
  8
0
 62
256
370
-1
  6
BYLAYER
 10
0.0
 20
-24.0
 30
0.0
 11
71.0
 21
-24.0
 31
0.0
  0
LINE
  5
66
100
AcDbEntity
100
AcDbLine
  8
0
 62
256
370
-1
  6
BYLAYER
 10
71.0
 20
-24.0
 30
0.0
 11
71.0
 21
0.0
 31
0.0
  0
LINE
  5
67
100
AcDbEntity
100
AcDbLine
  8
0
 62
256
370
-1
  6
BYLAYER
 10
71.0
 20
0.0
 30
0.0
 11
0.0
 21
0.0
 31
0.0
  0
LINE
  5
68
100
AcDbEntity
100
AcDbLine
  8
0
 62
256
370
-1
  6
BYLAYER
 10
0.0
 20
0.0
 30
0.0
 11
0.0
 21
-24.0
 31
0.0
  0
ENDBLK
  5
69
100
AcDbEntity
  8
0
100
AcDbBlockEnd
  0
BLOCK
  5
6A
100
AcDbEntity
  8
0
100
AcDbBlockBegin
  2
ground
 70
0
 10
0.0
 20
0.0
 30
0.0
  3
ground
  1

  0
CIRCLE
  5
6B
100
AcDbEntity
100
AcDbCircle
  8
0
 62
256
370
-1
  6
BYLAYER
 10
0.0
 20
0.0
 30
0.0
 40
4.0
  0
MTEXT
  5
6C
100
AcDbEntity
100
AcDbMText
  8
0
 62
256
370
-1
  6
BYLAYER
 10
0.0
 20
-9.0
 30
0.0
 40
1.0
 41
0.0
 71
5
 72
1
  1
\H3;GND
  7
textstyle4
 50
0.0
 73
2
 44
1.0
  0
ENDBLK
  5
6D
100
AcDbEntity
  8
0
100
AcDbBlockEnd
  0
BLOCK
  5
6E
100
AcDbEntity
  8
0
100
AcDbBlockBegin
  2
high_freq
 70
0
 10
0.0
 20
0.0
 30
0.0
  3
high_freq
  1

  0
CIRCLE
  5
6F
100
AcDbEntity
100
AcDbCircle
  8
0
 62
256
370
-1
  6
BYLAYER
 10
0.0
 20
0.0
 30
0.0
 40
4.0
  0
MTEXT
  5
70
100
AcDbEntity
100
AcDbMText
  8
0
 62
256
370
-1
  6
BYLAYER
 10
0.0
 20
-9.0
 30
0.0
 40
1.0
 41
0.0
 71
5
 72
1
  1
\H3;HF
  7
textstyle3
 50
0.0
 73
2
 44
1.0
  0
CIRCLE
  5
71
100
AcDbEntity
100
AcDbCircle
  8
0
 62
256
370
-1
  6
BYLAYER
 10
-11.0
 20
0.0
 30
0.0
 40
3.0
  0
MTEXT
  5
72
100
AcDbEntity
100
AcDbMText
  8
0
 62
256
370
-1
  6
BYLAYER
 10
-11.0
 20
-7.0
 30
0.0
 40
1.0
 41
0.0
 71
5
 72
1
  1
\H3;Off
  7
textstyle11
 50
0.0
 73
2
 44
1.0
  0
MTEXT
  5
73
100
AcDbEntity
100
AcDbMText
  8
0
 62
256
370
-1
  6
BYLAYER
 10
-11.0
 20
7.0
 30
0.0
 40
1.0
 41
0.0
 71
5
 72
1
  1
\H3;On
  7
textstyle12
 50
0.0
 73
2
 44
1.0
  0
MTEXT
  5
74
100
AcDbEntity
100
AcDbMText
  8
0
 62
256
370
-1
  6
BYLAYER
 10
-18.0
 20
0.0
 30
0.0
 40
1.0
 41
0.0
 71
5
 72
1
  1
\H3;Buffer
  7
textstyle13
 50
90.0
 73
2
 44
1.0
  0
ENDBLK
  5
75
100
AcDbEntity
  8
0
100
AcDbBlockEnd
  0
BLOCK
  5
76
100
AcDbEntity
  8
0
100
AcDbBlockBegin
  2
dds
 70
0
 10
0.0
 20
0.0
 30
0.0
  3
dds
  1

  0
CIRCLE
  5
77
100
AcDbEntity
100
AcDbCircle
  8
0
 62
256
370
-1
  6
BYLAYER
 10
0.0
 20
0.0
 30
0.0
 40
4.0
  0
CIRCLE
  5
78
100
AcDbEntity
100
AcDbCircle
  8
0
 62
256
370
-1
  6
BYLAYER
 10
-11.0
 20
0.0
 30
0.0
 40
3.0
  0
MTEXT
  5
79
100
AcDbEntity
100
AcDbMText
  8
0
 62
256
370
-1
  6
BYLAYER
 10
0.0
 20
-9.0
 30
0.0
 40
1.0
 41
0.0
 71
5
 72
1
  1
\H3;DDS
  7
textstyle2
 50
0.0
 73
2
 44
1.0
  0
MTEXT
  5
7A
100
AcDbEntity
100
AcDbMText
  8
0
 62
256
370
-1
  6
BYLAYER
 10
-11.0
 20
-7.0
 30
0.0
 40
1.0
 41
0.0
 71
5
 72
1
  1
\H3;0 - 5v
  7
textstyle9
 50
0.0
 73
2
 44
1.0
  0
MTEXT
  5
7B
100
AcDbEntity
100
AcDbMText
  8
0
 62
256
370
-1
  6
BYLAYER
 10
-11.0
 20
7.0
 30
0.0
 40
1.0
 41
0.0
 71
5
 72
1
  1
\H3;-5v - 5v
  7
textstyle10
 50
0.0
 73
2
 44
1.0
  0
MTEXT
  5
7C
100
AcDbEntity
100
AcDbMText
  8
0
 62
256
370
-1
  6
BYLAYER
 10
-18.0
 20
0.0
 30
0.0
 40
1.0
 41
0.0
 71
5
 72
1
  1
\H3;Range
  7
textstyle14
 50
90.0
 73
2
 44
1.0
  0
ENDBLK
  5
7D
100
AcDbEntity
  8
0
100
AcDbBlockEnd
  0
BLOCK
  5
7E
100
AcDbEntity
  8
0
100
AcDbBlockBegin
  2
power
 70
0
 10
0.0
 20
0.0
 30
0.0
  3
power
  1

  0
CIRCLE
  5
7F
100
AcDbEntity
100
AcDbCircle
  8
0
 62
256
370
-1
  6
BYLAYER
 10
-14.0000000000000018
 20
0.0
 30
0.0
 40
4.0
  0
CIRCLE
  5
80
100
AcDbEntity
100
AcDbCircle
  8
0
 62
256
370
-1
  6
BYLAYER
 10
0.0
 20
0.0
 30
0.0
 40
4.0
  0
MTEXT
  5
81
100
AcDbEntity
100
AcDbMText
  8
0
 62
256
370
-1
  6
BYLAYER
 10
13.9999999999999982
 20
-9.0
 30
0.0
 40
1.0
 41
0.0
 71
5
 72
1
  1
\H3;+12v
  7
textstyle0
 50
0.0
 73
2
 44
1.0
  0
MTEXT
  5
82
100
AcDbEntity
100
AcDbMText
  8
0
 62
256
370
-1
  6
BYLAYER
 10
0.0
 20
-9.0
 30
0.0
 40
1.0
 41
0.0
 71
5
 72
1
  1
\H3;GND
  7
textstyle1
 50
0.0
 73
2
 44
1.0
  0
MTEXT
  5
83
100
AcDbEntity
100
AcDbMText
  8
0
 62
256
370
-1
  6
BYLAYER
 10
28.0
 20
-9.0
 30
0.0
 40
1.0
 41
0.0
 71
5
 72
1
  1
\H3;-12v
  7
textstyle15
 50
0.0
 73
2
 44
1.0
  0
MTEXT
  5
84
100
AcDbEntity
100
AcDbMText
  8
0
 62
256
370
-1
  6
BYLAYER
 10
-14.0
 20
-9.0
 30
0.0
 40
1.0
 41
0.0
 71
5
 72
1
  1
\H3;GND
  7
textstyle16
 50
0.0
 73
2
 44
1.0
  0
CIRCLE
  5
85
100
AcDbEntity
100
AcDbCircle
  8
0
 62
256
370
-1
  6
BYLAYER
 10
14.0
 20
0.0
 30
0.0
 40
4.0
  0
CIRCLE
  5
86
100
AcDbEntity
100
AcDbCircle
  8
0
 62
256
370
-1
  6
BYLAYER
 10
28.0
 20
0.0
 30
0.0
 40
4.0
  0
ENDBLK
  5
87
100
AcDbEntity
  8
0
100
AcDbBlockEnd
  0
BLOCK
  5
88
100
AcDbEntity
  8
0
100
AcDbBlockBegin
  2
buttons
 70
0
 10
0.0
 20
0.0
 30
0.0
  3
buttons
  1

  0
CIRCLE
  5
89
100
AcDbEntity
100
AcDbCircle
  8
0
 62
256
370
-1
  6
BYLAYER
 10
0.0
 20
10.0
 30
0.0
 40
3.5
  0
CIRCLE
  5
8A
100
AcDbEntity
100
AcDbCircle
  8
0
 62
256
370
-1
  6
BYLAYER
 10
0.0
 20
0.0
 30
0.0
 40
3.5
  0
CIRCLE
  5
8B
100
AcDbEntity
100
AcDbCircle
  8
0
 62
256
370
-1
  6
BYLAYER
 10
0.0
 20
-10.0
 30
0.0
 40
3.5
  0
MTEXT
  5
8C
100
AcDbEntity
100
AcDbMText
  8
0
 62
256
370
-1
  6
BYLAYER
 10
-12.0000000000000142
 20
10.0
 30
0.0
 40
1.0
 41
0.0
 71
5
 72
1
  1
\H3;Mode
  7
textstyle6
 50
0.0
 73
2
 44
1.0
  0
MTEXT
  5
8D
100
AcDbEntity
100
AcDbMText
  8
0
 62
256
370
-1
  6
BYLAYER
 10
-12.0000000000000142
 20
-0.0000000000000036
 30
0.0
 40
1.0
 41
0.0
 71
5
 72
1
  1
\H5;+
  7
textstyle7
 50
0.0
 73
2
 44
1.0
  0
MTEXT
  5
8E
100
AcDbEntity
100
AcDbMText
  8
0
 62
256
370
-1
  6
BYLAYER
 10
-12.0000000000000142
 20
-10.0000000000000036
 30
0.0
 40
1.0
 41
0.0
 71
5
 72
1
  1
\H5;-
  7
textstyle8
 50
0.0
 73
2
 44
1.0
  0
ENDBLK
  5
8F
100
AcDbEntity
  8
0
100
AcDbBlockEnd
  0
ENDSEC
  0
SECTION
  2
ENTITIES
  0
LINE
  5
90
100
AcDbEntity
100
AcDbLine
  8
0
 62
7
420
0
370
-1
  6
BYLAYER
 10
60.9999999998688907
 20
-154.4999999994666382
 30
0.0
 11
76.8549999935844426
 21
-154.4999999994666382
 31
0.0
  0
LINE
  5
91
100
AcDbEntity
100
AcDbLine
  8
0
 62
7
420
0
370
-1
  6
BYLAYER
 10
76.8549999935844426
 20
-154.4999999994666382
 30
0.0
 11
76.8549999935844426
 21
-150.9999999995088729
 31
0.0
  0
LINE
  5
92
100
AcDbEntity
100
AcDbLine
  8
0
 62
7
420
0
370
-1
  6
BYLAYER
 10
76.8549999935844426
 20
-150.9999999995088729
 30
0.0
 11
92.1450000056266703
 21
-150.9999999995088729
 31
0.0
  0
LINE
  5
93
100
AcDbEntity
100
AcDbLine
  8
0
 62
7
420
0
370
-1
  6
BYLAYER
 10
92.1450000056266703
 20
-150.9999999995088729
 30
0.0
 11
92.1450000056266703
 21
-154.4999999994666382
 31
0.0
  0
LINE
  5
94
100
AcDbEntity
100
AcDbLine
  8
0
 62
7
420
0
370
-1
  6
BYLAYER
 10
92.1450000056266703
 20
-154.4999999994666382
 30
0.0
 11
107.8549999935733155
 21
-154.4999999994666382
 31
0.0
  0
LINE
  5
95
100
AcDbEntity
100
AcDbLine
  8
0
 62
7
420
0
370
-1
  6
BYLAYER
 10
107.8549999935733155
 20
-154.4999999994666382
 30
0.0
 11
107.8549999935733155
 21
-150.9999999995088729
 31
0.0
  0
LINE
  5
96
100
AcDbEntity
100
AcDbLine
  8
0
 62
7
420
0
370
-1
  6
BYLAYER
 10
107.8549999935733155
 20
-150.9999999995088729
 30
0.0
 11
123.1450000056155432
 21
-150.9999999995088729
 31
0.0
  0
LINE
  5
97
100
AcDbEntity
100
AcDbLine
  8
0
 62
7
420
0
370
-1
  6
BYLAYER
 10
123.1450000056155432
 20
-150.9999999995088729
 30
0.0
 11
123.1450000056155432
 21
-154.4999999994666382
 31
0.0
  0
LINE
  5
98
100
AcDbEntity
100
AcDbLine
  8
0
 62
7
420
0
370
-1
  6
BYLAYER
 10
123.1450000056155432
 20
-154.4999999994666382
 30
0.0
 11
138.8549999932799892
 21
-154.4999999994666382
 31
0.0
  0
LINE
  5
99
100
AcDbEntity
100
AcDbLine
  8
0
 62
7
420
0
370
-1
  6
BYLAYER
 10
138.8549999932799892
 20
-154.4999999994666382
 30
0.0
 11
138.8549999932799892
 21
-150.9999999995088729
 31
0.0
  0
LINE
  5
9A
100
AcDbEntity
100
AcDbLine
  8
0
 62
7
420
0
370
-1
  6
BYLAYER
 10
138.8549999932799892
 20
-150.9999999995088729
 30
0.0
 11
154.1450000053222027
 21
-150.9999999995088729
 31
0.0
  0
LINE
  5
9B
100
AcDbEntity
100
AcDbLine
  8
0
 62
7
420
0
370
-1
  6
BYLAYER
 10
154.1450000053222027
 20
-150.9999999995088729
 30
0.0
 11
154.1450000053222027
 21
-154.4999999994666382
 31
0.0
  0
LINE
  5
9C
100
AcDbEntity
100
AcDbLine
  8
0
 62
7
420
0
370
-1
  6
BYLAYER
 10
154.1450000053222027
 20
-154.4999999994666382
 30
0.0
 11
169.8549999932688763
 21
-154.4999999994666382
 31
0.0
  0
LINE
  5
9D
100
AcDbEntity
100
AcDbLine
  8
0
 62
7
420
0
370
-1
  6
BYLAYER
 10
169.8549999932688763
 20
-154.4999999994666382
 30
0.0
 11
169.8549999932688763
 21
-150.9999999995088729
 31
0.0
  0
LINE
  5
9E
100
AcDbEntity
100
AcDbLine
  8
0
 62
7
420
0
370
-1
  6
BYLAYER
 10
169.8549999932688763
 20
-150.9999999995088729
 30
0.0
 11
185.1450000053110898
 21
-150.9999999995088729
 31
0.0
  0
LINE
  5
9F
100
AcDbEntity
100
AcDbLine
  8
0
 62
7
420
0
370
-1
  6
BYLAYER
 10
185.1450000053110898
 20
-150.9999999995088729
 30
0.0
 11
185.1450000053110898
 21
-154.4999999994666382
 31
0.0
  0
LINE
  5
A0
100
AcDbEntity
100
AcDbLine
  8
0
 62
7
420
0
370
-1
  6
BYLAYER
 10
185.1450000053110898
 20
-154.4999999994666382
 30
0.0
 11
200.9999999993088693
 21
-154.4999999994666382
 31
0.0
  0
LINE
  5
A1
100
AcDbEntity
100
AcDbLine
  8
0
 62
7
420
0
370
-1
  6
BYLAYER
 10
200.9999999993088693
 20
-154.4999999994666382
 30
0.0
 11
200.9999999993088693
 21
-170.145000005371088
 31
0.0
  0
LINE
  5
A2
100
AcDbEntity
100
AcDbLine
  8
0
 62
7
420
0
370
-1
  6
BYLAYER
 10
200.9999999993088693
 20
-170.145000005371088
 30
0.0
 11
197.499999999351104
 21
-170.145000005371088
 31
0.0
  0
LINE
  5
A3
100
AcDbEntity
100
AcDbLine
  8
0
 62
7
420
0
370
-1
  6
BYLAYER
 10
197.499999999351104
 20
-170.145000005371088
 30
0.0
 11
197.499999999351104
 21
-184.8549999932088781
 31
0.0
  0
LINE
  5
A4
100
AcDbEntity
100
AcDbLine
  8
0
 62
7
420
0
370
-1
  6
BYLAYER
 10
197.499999999351104
 20
-184.8549999932088781
 30
0.0
 11
200.9999999993088693
 21
-184.8549999932088781
 31
0.0
  0
LINE
  5
A5
100
AcDbEntity
100
AcDbLine
  8
0
 62
7
420
0
370
-1
  6
BYLAYER
 10
200.9999999993088693
 20
-184.8549999932088781
 30
0.0
 11
200.9999999993088693
 21
-200.4999999991133279
 31
0.0
  0
LINE
  5
A6
100
AcDbEntity
100
AcDbLine
  8
0
 62
7
420
0
370
-1
  6
BYLAYER
 10
200.9999999993088693
 20
-200.4999999991133279
 30
0.0
 11
185.1450000053110898
 21
-200.4999999991133279
 31
0.0
  0
LINE
  5
A7
100
AcDbEntity
100
AcDbLine
  8
0
 62
7
420
0
370
-1
  6
BYLAYER
 10
185.1450000053110898
 20
-200.4999999991133279
 30
0.0
 11
185.1450000053110898
 21
-203.9999999990711217
 31
0.0
  0
LINE
  5
A8
100
AcDbEntity
100
AcDbLine
  8
0
 62
7
420
0
370
-1
  6
BYLAYER
 10
185.1450000053110898
 20
-203.9999999990711217
 30
0.0
 11
169.8549999932688763
 21
-203.9999999990711217
 31
0.0
  0
LINE
  5
A9
100
AcDbEntity
100
AcDbLine
  8
0
 62
7
420
0
370
-1
  6
BYLAYER
 10
169.8549999932688763
 20
-203.9999999990711217
 30
0.0
 11
169.8549999932688763
 21
-200.4999999991133279
 31
0.0
  0
LINE
  5
AA
100
AcDbEntity
100
AcDbLine
  8
0
 62
7
420
0
370
-1
  6
BYLAYER
 10
169.8549999932688763
 20
-200.4999999991133279
 30
0.0
 11
154.1450000053222027
 21
-200.4999999991133279
 31
0.0
  0
LINE
  5
AB
100
AcDbEntity
100
AcDbLine
  8
0
 62
7
420
0
370
-1
  6
BYLAYER
 10
154.1450000053222027
 20
-200.4999999991133279
 30
0.0
 11
154.1450000053222027
 21
-203.9999999990711217
 31
0.0
  0
LINE
  5
AC
100
AcDbEntity
100
AcDbLine
  8
0
 62
7
420
0
370
-1
  6
BYLAYER
 10
154.1450000053222027
 20
-203.9999999990711217
 30
0.0
 11
138.8549999932799892
 21
-203.9999999990711217
 31
0.0
  0
LINE
  5
AD
100
AcDbEntity
100
AcDbLine
  8
0
 62
7
420
0
370
-1
  6
BYLAYER
 10
138.8549999932799892
 20
-203.9999999990711217
 30
0.0
 11
138.8549999932799892
 21
-200.4999999991133279
 31
0.0
  0
LINE
  5
AE
100
AcDbEntity
100
AcDbLine
  8
0
 62
7
420
0
370
-1
  6
BYLAYER
 10
138.8549999932799892
 20
-200.4999999991133279
 30
0.0
 11
123.1450000056155432
 21
-200.4999999991133279
 31
0.0
  0
LINE
  5
AF
100
AcDbEntity
100
AcDbLine
  8
0
 62
7
420
0
370
-1
  6
BYLAYER
 10
123.1450000056155432
 20
-200.4999999991133279
 30
0.0
 11
123.1450000056155432
 21
-203.9999999990711217
 31
0.0
  0
LINE
  5
B0
100
AcDbEntity
100
AcDbLine
  8
0
 62
7
420
0
370
-1
  6
BYLAYER
 10
123.1450000056155432
 20
-203.9999999990711217
 30
0.0
 11
107.8549999935733155
 21
-203.9999999990711217
 31
0.0
  0
LINE
  5
B1
100
AcDbEntity
100
AcDbLine
  8
0
 62
7
420
0
370
-1
  6
BYLAYER
 10
107.8549999935733155
 20
-203.9999999990711217
 30
0.0
 11
107.8549999935733155
 21
-200.4999999991133279
 31
0.0
  0
LINE
  5
B2
100
AcDbEntity
100
AcDbLine
  8
0
 62
7
420
0
370
-1
  6
BYLAYER
 10
107.8549999935733155
 20
-200.4999999991133279
 30
0.0
 11
92.1450000056266703
 21
-200.4999999991133279
 31
0.0
  0
LINE
  5
B3
100
AcDbEntity
100
AcDbLine
  8
0
 62
7
420
0
370
-1
  6
BYLAYER
 10
92.1450000056266703
 20
-200.4999999991133279
 30
0.0
 11
92.1450000056266703
 21
-203.9999999990711217
 31
0.0
  0
LINE
  5
B4
100
AcDbEntity
100
AcDbLine
  8
0
 62
7
420
0
370
-1
  6
BYLAYER
 10
92.1450000056266703
 20
-203.9999999990711217
 30
0.0
 11
76.8549999935844426
 21
-203.9999999990711217
 31
0.0
  0
LINE
  5
B5
100
AcDbEntity
100
AcDbLine
  8
0
 62
7
420
0
370
-1
  6
BYLAYER
 10
76.8549999935844426
 20
-203.9999999990711217
 30
0.0
 11
76.8549999935844426
 21
-200.4999999991133279
 31
0.0
  0
LINE
  5
B6
100
AcDbEntity
100
AcDbLine
  8
0
 62
7
420
0
370
-1
  6
BYLAYER
 10
76.8549999935844426
 20
-200.4999999991133279
 30
0.0
 11
60.9999999998688907
 21
-200.4999999991133279
 31
0.0
  0
LINE
  5
B7
100
AcDbEntity
100
AcDbLine
  8
0
 62
7
420
0
370
-1
  6
BYLAYER
 10
60.9999999998688907
 20
-200.4999999991133279
 30
0.0
 11
60.9999999998688907
 21
-184.8549999932088781
 31
0.0
  0
LINE
  5
B8
100
AcDbEntity
100
AcDbLine
  8
0
 62
7
420
0
370
-1
  6
BYLAYER
 10
60.9999999998688907
 20
-184.8549999932088781
 30
0.0
 11
64.499999999826656
 21
-184.8549999932088781
 31
0.0
  0
LINE
  5
B9
100
AcDbEntity
100
AcDbLine
  8
0
 62
7
420
0
370
-1
  6
BYLAYER
 10
64.499999999826656
 20
-184.8549999932088781
 30
0.0
 11
64.499999999826656
 21
-170.145000005371088
 31
0.0
  0
LINE
  5
BA
100
AcDbEntity
100
AcDbLine
  8
0
 62
7
420
0
370
-1
  6
BYLAYER
 10
64.499999999826656
 20
-170.145000005371088
 30
0.0
 11
60.9999999998688907
 21
-170.145000005371088
 31
0.0
  0
LINE
  5
BB
100
AcDbEntity
100
AcDbLine
  8
0
 62
7
420
0
370
-1
  6
BYLAYER
 10
60.9999999998688907
 20
-170.145000005371088
 30
0.0
 11
60.9999999998688907
 21
-154.4999999994666382
 31
0.0
  0
LINE
  5
BC
100
AcDbEntity
100
AcDbLine
  8
0
 62
7
420
0
370
-1
  6
BYLAYER
 10
7.4999999999699991
 20
-64.499999999826656
 30
0.0
 11
22.8549999938286632
 21
-64.499999999826656
 31
0.0
  0
LINE
  5
BD
100
AcDbEntity
100
AcDbLine
  8
0
 62
7
420
0
370
-1
  6
BYLAYER
 10
22.8549999938286632
 20
-64.499999999826656
 30
0.0
 11
22.8549999938286632
 21
-60.9999999998688907
 31
0.0
  0
LINE
  5
BE
100
AcDbEntity
100
AcDbLine
  8
0
 62
7
420
0
370
-1
  6
BYLAYER
 10
22.8549999938286632
 20
-60.9999999998688907
 30
0.0
 11
38.1450000059555592
 21
-60.9999999998688907
 31
0.0
  0
LINE
  5
BF
100
AcDbEntity
100
AcDbLine
  8
0
 62
7
420
0
370
-1
  6
BYLAYER
 10
38.1450000059555592
 20
-60.9999999998688907
 30
0.0
 11
38.1450000059555592
 21
-64.499999999826656
 31
0.0
  0
LINE
  5
C0
100
AcDbEntity
100
AcDbLine
  8
0
 62
7
420
0
370
-1
  6
BYLAYER
 10
38.1450000059555592
 20
-64.499999999826656
 30
0.0
 11
53.499999999757776
 21
-64.499999999826656
 31
0.0
  0
LINE
  5
C1
100
AcDbEntity
100
AcDbLine
  8
0
 62
7
420
0
370
-1
  6
BYLAYER
 10
53.499999999757776
 20
-64.499999999826656
 30
0.0
 11
53.499999999757776
 21
-79.5216666603533184
 31
0.0
  0
LINE
  5
C2
100
AcDbEntity
100
AcDbLine
  8
0
 62
7
420
0
370
-1
  6
BYLAYER
 10
53.499999999757776
 20
-79.5216666603533184
 30
0.0
 11
56.9999999997155484
 21
-79.5216666603533184
 31
0.0
  0
LINE
  5
C3
100
AcDbEntity
100
AcDbLine
  8
0
 62
7
420
0
370
-1
  6
BYLAYER
 10
56.9999999997155484
 20
-79.5216666603533184
 30
0.0
 11
56.9999999997155484
 21
-94.8116666723955461
 31
0.0
  0
LINE
  5
C4
100
AcDbEntity
100
AcDbLine
  8
0
 62
7
420
0
370
-1
  6
BYLAYER
 10
56.9999999997155484
 20
-94.8116666723955461
 30
0.0
 11
53.499999999757776
 21
-94.8116666723955461
 31
0.0
  0
LINE
  5
C5
100
AcDbEntity
100
AcDbLine
  8
0
 62
7
420
0
370
-1
  6
BYLAYER
 10
53.499999999757776
 20
-94.8116666723955461
 30
0.0
 11
53.499999999757776
 21
-113.1883333268288823
 31
0.0
  0
LINE
  5
C6
100
AcDbEntity
100
AcDbLine
  8
0
 62
7
420
0
370
-1
  6
BYLAYER
 10
53.499999999757776
 20
-113.1883333268288823
 30
0.0
 11
56.9999999997155484
 21
-113.1883333268288823
 31
0.0
  0
LINE
  5
C7
100
AcDbEntity
100
AcDbLine
  8
0
 62
7
420
0
370
-1
  6
BYLAYER
 10
56.9999999997155484
 20
-113.1883333268288823
 30
0.0
 11
56.9999999997155484
 21
-128.4783333388711242
 31
0.0
  0
LINE
  5
C8
100
AcDbEntity
100
AcDbLine
  8
0
 62
7
420
0
370
-1
  6
BYLAYER
 10
56.9999999997155484
 20
-128.4783333388711242
 30
0.0
 11
53.499999999757776
 21
-128.4783333388711242
 31
0.0
  0
LINE
  5
C9
100
AcDbEntity
100
AcDbLine
  8
0
 62
7
420
0
370
-1
  6
BYLAYER
 10
53.499999999757776
 20
-128.4783333388711242
 30
0.0
 11
53.499999999757776
 21
-143.4999999993977724
 31
0.0
  0
LINE
  5
CA
100
AcDbEntity
100
AcDbLine
  8
0
 62
7
420
0
370
-1
  6
BYLAYER
 10
53.499999999757776
 20
-143.4999999993977724
 30
0.0
 11
38.1450000059555592
 21
-143.4999999993977724
 31
0.0
  0
LINE
  5
CB
100
AcDbEntity
100
AcDbLine
  8
0
 62
7
420
0
370
-1
  6
BYLAYER
 10
38.1450000059555592
 20
-143.4999999993977724
 30
0.0
 11
38.1450000059555592
 21
-146.9999999993555377
 31
0.0
  0
LINE
  5
CC
100
AcDbEntity
100
AcDbLine
  8
0
 62
7
420
0
370
-1
  6
BYLAYER
 10
38.1450000059555592
 20
-146.9999999993555377
 30
0.0
 11
22.8549999938286632
 21
-146.9999999993555377
 31
0.0
  0
LINE
  5
CD
100
AcDbEntity
100
AcDbLine
  8
0
 62
7
420
0
370
-1
  6
BYLAYER
 10
22.8549999938286632
 20
-146.9999999993555377
 30
0.0
 11
22.8549999938286632
 21
-143.4999999993977724
 31
0.0
  0
LINE
  5
CE
100
AcDbEntity
100
AcDbLine
  8
0
 62
7
420
0
370
-1
  6
BYLAYER
 10
22.8549999938286632
 20
-143.4999999993977724
 30
0.0
 11
7.4999999999699991
 21
-143.4999999993977724
 31
0.0
  0
LINE
  5
CF
100
AcDbEntity
100
AcDbLine
  8
0
 62
7
420
0
370
-1
  6
BYLAYER
 10
7.4999999999699991
 20
-143.4999999993977724
 30
0.0
 11
7.4999999999699991
 21
-128.4783333388711242
 31
0.0
  0
LINE
  5
D0
100
AcDbEntity
100
AcDbLine
  8
0
 62
7
420
0
370
-1
  6
BYLAYER
 10
7.4999999999699991
 20
-128.4783333388711242
 30
0.0
 11
3.9999999999839999
 21
-128.4783333388711242
 31
0.0
  0
LINE
  5
D1
100
AcDbEntity
100
AcDbLine
  8
0
 62
7
420
0
370
-1
  6
BYLAYER
 10
3.9999999999839999
 20
-128.4783333388711242
 30
0.0
 11
3.9999999999839999
 21
-113.1883333268288823
 31
0.0
  0
LINE
  5
D2
100
AcDbEntity
100
AcDbLine
  8
0
 62
7
420
0
370
-1
  6
BYLAYER
 10
3.9999999999839999
 20
-113.1883333268288823
 30
0.0
 11
7.4999999999699991
 21
-113.1883333268288823
 31
0.0
  0
LINE
  5
D3
100
AcDbEntity
100
AcDbLine
  8
0
 62
7
420
0
370
-1
  6
BYLAYER
 10
7.4999999999699991
 20
-113.1883333268288823
 30
0.0
 11
7.4999999999699991
 21
-94.8116666723955461
 31
0.0
  0
LINE
  5
D4
100
AcDbEntity
100
AcDbLine
  8
0
 62
7
420
0
370
-1
  6
BYLAYER
 10
7.4999999999699991
 20
-94.8116666723955461
 30
0.0
 11
3.9999999999839999
 21
-94.8116666723955461
 31
0.0
  0
LINE
  5
D5
100
AcDbEntity
100
AcDbLine
  8
0
 62
7
420
0
370
-1
  6
BYLAYER
 10
3.9999999999839999
 20
-94.8116666723955461
 30
0.0
 11
3.9999999999839999
 21
-79.5216666603533184
 31
0.0
  0
LINE
  5
D6
100
AcDbEntity
100
AcDbLine
  8
0
 62
7
420
0
370
-1
  6
BYLAYER
 10
3.9999999999839999
 20
-79.5216666603533184
 30
0.0
 11
7.4999999999699991
 21
-79.5216666603533184
 31
0.0
  0
LINE
  5
D7
100
AcDbEntity
100
AcDbLine
  8
0
 62
7
420
0
370
-1
  6
BYLAYER
 10
7.4999999999699991
 20
-79.5216666603533184
 30
0.0
 11
7.4999999999699991
 21
-64.499999999826656
 31
0.0
  0
LINE
  5
D8
100
AcDbEntity
100
AcDbLine
  8
0
 62
7
420
0
370
-1
  6
BYLAYER
 10
60.9999999998688907
 20
-60.9999999998688907
 30
0.0
 11
77.1450000056866685
 21
-60.9999999998688907
 31
0.0
  0
LINE
  5
D9
100
AcDbEntity
100
AcDbLine
  8
0
 62
7
420
0
370
-1
  6
BYLAYER
 10
77.1450000056866685
 20
-60.9999999998688907
 30
0.0
 11
77.1450000056866685
 21
-64.499999999826656
 31
0.0
  0
LINE
  5
DA
100
AcDbEntity
100
AcDbLine
  8
0
 62
7
420
0
370
-1
  6
BYLAYER
 10
77.1450000056866685
 20
-64.499999999826656
 30
0.0
 11
91.8549999935244301
 21
-64.499999999826656
 31
0.0
  0
LINE
  5
DB
100
AcDbEntity
100
AcDbLine
  8
0
 62
7
420
0
370
-1
  6
BYLAYER
 10
91.8549999935244301
 20
-64.499999999826656
 30
0.0
 11
91.8549999935244301
 21
-60.9999999998688907
 31
0.0
  0
LINE
  5
DC
100
AcDbEntity
100
AcDbLine
  8
0
 62
7
420
0
370
-1
  6
BYLAYER
 10
91.8549999935244301
 20
-60.9999999998688907
 30
0.0
 11
108.1450000056755556
 21
-60.9999999998688907
 31
0.0
  0
LINE
  5
DD
100
AcDbEntity
100
AcDbLine
  8
0
 62
7
420
0
370
-1
  6
BYLAYER
 10
108.1450000056755556
 20
-60.9999999998688907
 30
0.0
 11
108.1450000056755556
 21
-64.499999999826656
 31
0.0
  0
LINE
  5
DE
100
AcDbEntity
100
AcDbLine
  8
0
 62
7
420
0
370
-1
  6
BYLAYER
 10
108.1450000056755556
 20
-64.499999999826656
 30
0.0
 11
122.8549999935133314
 21
-64.499999999826656
 31
0.0
  0
LINE
  5
DF
100
AcDbEntity
100
AcDbLine
  8
0
 62
7
420
0
370
-1
  6
BYLAYER
 10
122.8549999935133314
 20
-64.499999999826656
 30
0.0
 11
122.8549999935133314
 21
-60.9999999998688907
 31
0.0
  0
LINE
  5
E0
100
AcDbEntity
100
AcDbLine
  8
0
 62
7
420
0
370
-1
  6
BYLAYER
 10
122.8549999935133314
 20
-60.9999999998688907
 30
0.0
 11
139.1450000053822009
 21
-60.9999999998688907
 31
0.0
  0
LINE
  5
E1
100
AcDbEntity
100
AcDbLine
  8
0
 62
7
420
0
370
-1
  6
BYLAYER
 10
139.1450000053822009
 20
-60.9999999998688907
 30
0.0
 11
139.1450000053822009
 21
-64.499999999826656
 31
0.0
  0
LINE
  5
E2
100
AcDbEntity
100
AcDbLine
  8
0
 62
7
420
0
370
-1
  6
BYLAYER
 10
139.1450000053822009
 20
-64.499999999826656
 30
0.0
 11
153.854999993219991
 21
-64.499999999826656
 31
0.0
  0
LINE
  5
E3
100
AcDbEntity
100
AcDbLine
  8
0
 62
7
420
0
370
-1
  6
BYLAYER
 10
153.854999993219991
 20
-64.499999999826656
 30
0.0
 11
153.854999993219991
 21
-60.9999999998688907
 31
0.0
  0
LINE
  5
E4
100
AcDbEntity
100
AcDbLine
  8
0
 62
7
420
0
370
-1
  6
BYLAYER
 10
153.854999993219991
 20
-60.9999999998688907
 30
0.0
 11
170.145000005371088
 21
-60.9999999998688907
 31
0.0
  0
LINE
  5
E5
100
AcDbEntity
100
AcDbLine
  8
0
 62
7
420
0
370
-1
  6
BYLAYER
 10
170.145000005371088
 20
-60.9999999998688907
 30
0.0
 11
170.145000005371088
 21
-64.499999999826656
 31
0.0
  0
LINE
  5
E6
100
AcDbEntity
100
AcDbLine
  8
0
 62
7
420
0
370
-1
  6
BYLAYER
 10
170.145000005371088
 20
-64.499999999826656
 30
0.0
 11
184.8549999932088781
 21
-64.499999999826656
 31
0.0
  0
LINE
  5
E7
100
AcDbEntity
100
AcDbLine
  8
0
 62
7
420
0
370
-1
  6
BYLAYER
 10
184.8549999932088781
 20
-64.499999999826656
 30
0.0
 11
184.8549999932088781
 21
-60.9999999998688907
 31
0.0
  0
LINE
  5
E8
100
AcDbEntity
100
AcDbLine
  8
0
 62
7
420
0
370
-1
  6
BYLAYER
 10
184.8549999932088781
 20
-60.9999999998688907
 30
0.0
 11
200.9999999993088693
 21
-60.9999999998688907
 31
0.0
  0
LINE
  5
E9
100
AcDbEntity
100
AcDbLine
  8
0
 62
7
420
0
370
-1
  6
BYLAYER
 10
200.9999999993088693
 20
-60.9999999998688907
 30
0.0
 11
200.9999999993088693
 21
-79.8116666724555586
 31
0.0
  0
LINE
  5
EA
100
AcDbEntity
100
AcDbLine
  8
0
 62
7
420
0
370
-1
  6
BYLAYER
 10
200.9999999993088693
 20
-79.8116666724555586
 30
0.0
 11
197.499999999351104
 21
-79.8116666724555586
 31
0.0
  0
LINE
  5
EB
100
AcDbEntity
100
AcDbLine
  8
0
 62
7
420
0
370
-1
  6
BYLAYER
 10
197.499999999351104
 20
-79.8116666724555586
 30
0.0
 11
197.499999999351104
 21
-94.5216666602933344
 31
0.0
  0
LINE
  5
EC
100
AcDbEntity
100
AcDbLine
  8
0
 62
7
420
0
370
-1
  6
BYLAYER
 10
197.499999999351104
 20
-94.5216666602933344
 30
0.0
 11
200.9999999993088693
 21
-94.5216666602933344
 31
0.0
  0
LINE
  5
ED
100
AcDbEntity
100
AcDbLine
  8
0
 62
7
420
0
370
-1
  6
BYLAYER
 10
200.9999999993088693
 20
-94.5216666602933344
 30
0.0
 11
200.9999999993088693
 21
-113.4783333389311082
 31
0.0
  0
LINE
  5
EE
100
AcDbEntity
100
AcDbLine
  8
0
 62
7
420
0
370
-1
  6
BYLAYER
 10
200.9999999993088693
 20
-113.4783333389311082
 30
0.0
 11
197.499999999351104
 21
-113.4783333389311082
 31
0.0
  0
LINE
  5
EF
100
AcDbEntity
100
AcDbLine
  8
0
 62
7
420
0
370
-1
  6
BYLAYER
 10
197.499999999351104
 20
-113.4783333389311082
 30
0.0
 11
197.499999999351104
 21
-128.188333326768884
 31
0.0
  0
LINE
  5
F0
100
AcDbEntity
100
AcDbLine
  8
0
 62
7
420
0
370
-1
  6
BYLAYER
 10
197.499999999351104
 20
-128.188333326768884
 30
0.0
 11
200.9999999993088693
 21
-128.188333326768884
 31
0.0
  0
LINE
  5
F1
100
AcDbEntity
100
AcDbLine
  8
0
 62
7
420
0
370
-1
  6
BYLAYER
 10
200.9999999993088693
 20
-128.188333326768884
 30
0.0
 11
200.9999999993088693
 21
-146.9999999993555377
 31
0.0
  0
LINE
  5
F2
100
AcDbEntity
100
AcDbLine
  8
0
 62
7
420
0
370
-1
  6
BYLAYER
 10
200.9999999993088693
 20
-146.9999999993555377
 30
0.0
 11
184.8549999932088781
 21
-146.9999999993555377
 31
0.0
  0
LINE
  5
F3
100
AcDbEntity
100
AcDbLine
  8
0
 62
7
420
0
370
-1
  6
BYLAYER
 10
184.8549999932088781
 20
-146.9999999993555377
 30
0.0
 11
184.8549999932088781
 21
-143.4999999993977724
 31
0.0
  0
LINE
  5
F4
100
AcDbEntity
100
AcDbLine
  8
0
 62
7
420
0
370
-1
  6
BYLAYER
 10
184.8549999932088781
 20
-143.4999999993977724
 30
0.0
 11
170.145000005371088
 21
-143.4999999993977724
 31
0.0
  0
LINE
  5
F5
100
AcDbEntity
100
AcDbLine
  8
0
 62
7
420
0
370
-1
  6
BYLAYER
 10
170.145000005371088
 20
-143.4999999993977724
 30
0.0
 11
170.145000005371088
 21
-146.9999999993555377
 31
0.0
  0
LINE
  5
F6
100
AcDbEntity
100
AcDbLine
  8
0
 62
7
420
0
370
-1
  6
BYLAYER
 10
170.145000005371088
 20
-146.9999999993555377
 30
0.0
 11
153.854999993219991
 21
-146.9999999993555377
 31
0.0
  0
LINE
  5
F7
100
AcDbEntity
100
AcDbLine
  8
0
 62
7
420
0
370
-1
  6
BYLAYER
 10
153.854999993219991
 20
-146.9999999993555377
 30
0.0
 11
153.854999993219991
 21
-143.4999999993977724
 31
0.0
  0
LINE
  5
F8
100
AcDbEntity
100
AcDbLine
  8
0
 62
7
420
0
370
-1
  6
BYLAYER
 10
153.854999993219991
 20
-143.4999999993977724
 30
0.0
 11
139.1450000053822009
 21
-143.4999999993977724
 31
0.0
  0
LINE
  5
F9
100
AcDbEntity
100
AcDbLine
  8
0
 62
7
420
0
370
-1
  6
BYLAYER
 10
139.1450000053822009
 20
-143.4999999993977724
 30
0.0
 11
139.1450000053822009
 21
-146.9999999993555377
 31
0.0
  0
LINE
  5
FA
100
AcDbEntity
100
AcDbLine
  8
0
 62
7
420
0
370
-1
  6
BYLAYER
 10
139.1450000053822009
 20
-146.9999999993555377
 30
0.0
 11
122.8549999935133314
 21
-146.9999999993555377
 31
0.0
  0
LINE
  5
FB
100
AcDbEntity
100
AcDbLine
  8
0
 62
7
420
0
370
-1
  6
BYLAYER
 10
122.8549999935133314
 20
-146.9999999993555377
 30
0.0
 11
122.8549999935133314
 21
-143.4999999993977724
 31
0.0
  0
LINE
  5
FC
100
AcDbEntity
100
AcDbLine
  8
0
 62
7
420
0
370
-1
  6
BYLAYER
 10
122.8549999935133314
 20
-143.4999999993977724
 30
0.0
 11
108.1450000056755556
 21
-143.4999999993977724
 31
0.0
  0
LINE
  5
FD
100
AcDbEntity
100
AcDbLine
  8
0
 62
7
420
0
370
-1
  6
BYLAYER
 10
108.1450000056755556
 20
-143.4999999993977724
 30
0.0
 11
108.1450000056755556
 21
-146.9999999993555377
 31
0.0
  0
LINE
  5
FE
100
AcDbEntity
100
AcDbLine
  8
0
 62
7
420
0
370
-1
  6
BYLAYER
 10
108.1450000056755556
 20
-146.9999999993555377
 30
0.0
 11
91.8549999935244301
 21
-146.9999999993555377
 31
0.0
  0
LINE
  5
FF
100
AcDbEntity
100
AcDbLine
  8
0
 62
7
420
0
370
-1
  6
BYLAYER
 10
91.8549999935244301
 20
-146.9999999993555377
 30
0.0
 11
91.8549999935244301
 21
-143.4999999993977724
 31
0.0
  0
LINE
  5
100
100
AcDbEntity
100
AcDbLine
  8
0
 62
7
420
0
370
-1
  6
BYLAYER
 10
91.8549999935244301
 20
-143.4999999993977724
 30
0.0
 11
77.1450000056866685
 21
-143.4999999993977724
 31
0.0
  0
LINE
  5
101
100
AcDbEntity
100
AcDbLine
  8
0
 62
7
420
0
370
-1
  6
BYLAYER
 10
77.1450000056866685
 20
-143.4999999993977724
 30
0.0
 11
77.1450000056866685
 21
-146.9999999993555377
 31
0.0
  0
LINE
  5
102
100
AcDbEntity
100
AcDbLine
  8
0
 62
7
420
0
370
-1
  6
BYLAYER
 10
77.1450000056866685
 20
-146.9999999993555377
 30
0.0
 11
60.9999999998688907
 21
-146.9999999993555377
 31
0.0
  0
LINE
  5
103
100
AcDbEntity
100
AcDbLine
  8
0
 62
7
420
0
370
-1
  6
BYLAYER
 10
60.9999999998688907
 20
-146.9999999993555377
 30
0.0
 11
60.9999999998688907
 21
-128.188333326768884
 31
0.0
  0
LINE
  5
104
100
AcDbEntity
100
AcDbLine
  8
0
 62
7
420
0
370
-1
  6
BYLAYER
 10
60.9999999998688907
 20
-128.188333326768884
 30
0.0
 11
64.499999999826656
 21
-128.188333326768884
 31
0.0
  0
LINE
  5
105
100
AcDbEntity
100
AcDbLine
  8
0
 62
7
420
0
370
-1
  6
BYLAYER
 10
64.499999999826656
 20
-128.188333326768884
 30
0.0
 11
64.499999999826656
 21
-113.4783333389311082
 31
0.0
  0
LINE
  5
106
100
AcDbEntity
100
AcDbLine
  8
0
 62
7
420
0
370
-1
  6
BYLAYER
 10
64.499999999826656
 20
-113.4783333389311082
 30
0.0
 11
60.9999999998688907
 21
-113.4783333389311082
 31
0.0
  0
LINE
  5
107
100
AcDbEntity
100
AcDbLine
  8
0
 62
7
420
0
370
-1
  6
BYLAYER
 10
60.9999999998688907
 20
-113.4783333389311082
 30
0.0
 11
60.9999999998688907
 21
-94.5216666602933344
 31
0.0
  0
LINE
  5
108
100
AcDbEntity
100
AcDbLine
  8
0
 62
7
420
0
370
-1
  6
BYLAYER
 10
60.9999999998688907
 20
-94.5216666602933344
 30
0.0
 11
64.499999999826656
 21
-94.5216666602933344
 31
0.0
  0
LINE
  5
109
100
AcDbEntity
100
AcDbLine
  8
0
 62
7
420
0
370
-1
  6
BYLAYER
 10
64.499999999826656
 20
-94.5216666602933344
 30
0.0
 11
64.499999999826656
 21
-79.8116666724555586
 31
0.0
  0
LINE
  5
10A
100
AcDbEntity
100
AcDbLine
  8
0
 62
7
420
0
370
-1
  6
BYLAYER
 10
64.499999999826656
 20
-79.8116666724555586
 30
0.0
 11
60.9999999998688907
 21
-79.8116666724555586
 31
0.0
  0
LINE
  5
10B
100
AcDbEntity
100
AcDbLine
  8
0
 62
7
420
0
370
-1
  6
BYLAYER
 10
60.9999999998688907
 20
-79.8116666724555586
 30
0.0
 11
60.9999999998688907
 21
-60.9999999998688907
 31
0.0
  0
LINE
  5
10C
100
AcDbEntity
100
AcDbLine
  8
0
 62
7
420
0
370
-1
  6
BYLAYER
 10
208.4999999991377422
 20
-64.499999999826656
 30
0.0
 11
223.8549999929399803
 21
-64.499999999826656
 31
0.0
  0
LINE
  5
10D
100
AcDbEntity
100
AcDbLine
  8
0
 62
7
420
0
370
-1
  6
BYLAYER
 10
223.8549999929399803
 20
-64.499999999826656
 30
0.0
 11
223.8549999929399803
 21
-60.9999999998688907
 31
0.0
  0
LINE
  5
10E
100
AcDbEntity
100
AcDbLine
  8
0
 62
7
420
0
370
-1
  6
BYLAYER
 10
223.8549999929399803
 20
-60.9999999998688907
 30
0.0
 11
239.1450000049821938
 21
-60.9999999998688907
 31
0.0
  0
LINE
  5
10F
100
AcDbEntity
100
AcDbLine
  8
0
 62
7
420
0
370
-1
  6
BYLAYER
 10
239.1450000049821938
 20
-60.9999999998688907
 30
0.0
 11
239.1450000049821938
 21
-64.499999999826656
 31
0.0
  0
LINE
  5
110
100
AcDbEntity
100
AcDbLine
  8
0
 62
7
420
0
370
-1
  6
BYLAYER
 10
239.1450000049821938
 20
-64.499999999826656
 30
0.0
 11
254.4999999990666595
 21
-64.499999999826656
 31
0.0
  0
LINE
  5
111
100
AcDbEntity
100
AcDbLine
  8
0
 62
7
420
0
370
-1
  6
BYLAYER
 10
254.4999999990666595
 20
-64.499999999826656
 30
0.0
 11
254.4999999990666595
 21
-79.5216666603533184
 31
0.0
  0
LINE
  5
112
100
AcDbEntity
100
AcDbLine
  8
0
 62
7
420
0
370
-1
  6
BYLAYER
 10
254.4999999990666595
 20
-79.5216666603533184
 30
0.0
 11
257.9999999990244532
 21
-79.5216666603533184
 31
0.0
  0
LINE
  5
113
100
AcDbEntity
100
AcDbLine
  8
0
 62
7
420
0
370
-1
  6
BYLAYER
 10
257.9999999990244532
 20
-79.5216666603533184
 30
0.0
 11
257.9999999990244532
 21
-94.8116666723955461
 31
0.0
  0
LINE
  5
114
100
AcDbEntity
100
AcDbLine
  8
0
 62
7
420
0
370
-1
  6
BYLAYER
 10
257.9999999990244532
 20
-94.8116666723955461
 30
0.0
 11
254.4999999990666595
 21
-94.8116666723955461
 31
0.0
  0
LINE
  5
115
100
AcDbEntity
100
AcDbLine
  8
0
 62
7
420
0
370
-1
  6
BYLAYER
 10
254.4999999990666595
 20
-94.8116666723955461
 30
0.0
 11
254.4999999990666595
 21
-113.1883333268288823
 31
0.0
  0
LINE
  5
116
100
AcDbEntity
100
AcDbLine
  8
0
 62
7
420
0
370
-1
  6
BYLAYER
 10
254.4999999990666595
 20
-113.1883333268288823
 30
0.0
 11
257.9999999990244532
 21
-113.1883333268288823
 31
0.0
  0
LINE
  5
117
100
AcDbEntity
100
AcDbLine
  8
0
 62
7
420
0
370
-1
  6
BYLAYER
 10
257.9999999990244532
 20
-113.1883333268288823
 30
0.0
 11
257.9999999990244532
 21
-128.4783333388711242
 31
0.0
  0
LINE
  5
118
100
AcDbEntity
100
AcDbLine
  8
0
 62
7
420
0
370
-1
  6
BYLAYER
 10
257.9999999990244532
 20
-128.4783333388711242
 30
0.0
 11
254.4999999990666595
 21
-128.4783333388711242
 31
0.0
  0
LINE
  5
119
100
AcDbEntity
100
AcDbLine
  8
0
 62
7
420
0
370
-1
  6
BYLAYER
 10
254.4999999990666595
 20
-128.4783333388711242
 30
0.0
 11
254.4999999990666595
 21
-143.4999999993977724
 31
0.0
  0
LINE
  5
11A
100
AcDbEntity
100
AcDbLine
  8
0
 62
7
420
0
370
-1
  6
BYLAYER
 10
254.4999999990666595
 20
-143.4999999993977724
 30
0.0
 11
239.1450000049821938
 21
-143.4999999993977724
 31
0.0
  0
LINE
  5
11B
100
AcDbEntity
100
AcDbLine
  8
0
 62
7
420
0
370
-1
  6
BYLAYER
 10
239.1450000049821938
 20
-143.4999999993977724
 30
0.0
 11
239.1450000049821938
 21
-146.9999999993555377
 31
0.0
  0
LINE
  5
11C
100
AcDbEntity
100
AcDbLine
  8
0
 62
7
420
0
370
-1
  6
BYLAYER
 10
239.1450000049821938
 20
-146.9999999993555377
 30
0.0
 11
223.8549999929399803
 21
-146.9999999993555377
 31
0.0
  0
LINE
  5
11D
100
AcDbEntity
100
AcDbLine
  8
0
 62
7
420
0
370
-1
  6
BYLAYER
 10
223.8549999929399803
 20
-146.9999999993555377
 30
0.0
 11
223.8549999929399803
 21
-143.4999999993977724
 31
0.0
  0
LINE
  5
11E
100
AcDbEntity
100
AcDbLine
  8
0
 62
7
420
0
370
-1
  6
BYLAYER
 10
223.8549999929399803
 20
-143.4999999993977724
 30
0.0
 11
208.4999999991377422
 21
-143.4999999993977724
 31
0.0
  0
LINE
  5
11F
100
AcDbEntity
100
AcDbLine
  8
0
 62
7
420
0
370
-1
  6
BYLAYER
 10
208.4999999991377422
 20
-143.4999999993977724
 30
0.0
 11
208.4999999991377422
 21
-128.4783333388711242
 31
0.0
  0
LINE
  5
120
100
AcDbEntity
100
AcDbLine
  8
0
 62
7
420
0
370
-1
  6
BYLAYER
 10
208.4999999991377422
 20
-128.4783333388711242
 30
0.0
 11
204.9999999991800053
 21
-128.4783333388711242
 31
0.0
  0
LINE
  5
121
100
AcDbEntity
100
AcDbLine
  8
0
 62
7
420
0
370
-1
  6
BYLAYER
 10
204.9999999991800053
 20
-128.4783333388711242
 30
0.0
 11
204.9999999991800053
 21
-113.1883333268288823
 31
0.0
  0
LINE
  5
122
100
AcDbEntity
100
AcDbLine
  8
0
 62
7
420
0
370
-1
  6
BYLAYER
 10
204.9999999991800053
 20
-113.1883333268288823
 30
0.0
 11
208.4999999991377422
 21
-113.1883333268288823
 31
0.0
  0
LINE
  5
123
100
AcDbEntity
100
AcDbLine
  8
0
 62
7
420
0
370
-1
  6
BYLAYER
 10
208.4999999991377422
 20
-113.1883333268288823
 30
0.0
 11
208.4999999991377422
 21
-94.8116666723955461
 31
0.0
  0
LINE
  5
124
100
AcDbEntity
100
AcDbLine
  8
0
 62
7
420
0
370
-1
  6
BYLAYER
 10
208.4999999991377422
 20
-94.8116666723955461
 30
0.0
 11
204.9999999991800053
 21
-94.8116666723955461
 31
0.0
  0
LINE
  5
125
100
AcDbEntity
100
AcDbLine
  8
0
 62
7
420
0
370
-1
  6
BYLAYER
 10
204.9999999991800053
 20
-94.8116666723955461
 30
0.0
 11
204.9999999991800053
 21
-79.5216666603533184
 31
0.0
  0
LINE
  5
126
100
AcDbEntity
100
AcDbLine
  8
0
 62
7
420
0
370
-1
  6
BYLAYER
 10
204.9999999991800053
 20
-79.5216666603533184
 30
0.0
 11
208.4999999991377422
 21
-79.5216666603533184
 31
0.0
  0
LINE
  5
127
100
AcDbEntity
100
AcDbLine
  8
0
 62
7
420
0
370
-1
  6
BYLAYER
 10
208.4999999991377422
 20
-79.5216666603533184
 30
0.0
 11
208.4999999991377422
 21
-64.499999999826656
 31
0.0
  0
LINE
  5
128
100
AcDbEntity
100
AcDbLine
  8
0
 62
7
420
0
370
-1
  6
BYLAYER
 10
261.9999999988955324
 20
-60.9999999998688907
 30
0.0
 11
278.145000004995552
 21
-60.9999999998688907
 31
0.0
  0
LINE
  5
129
100
AcDbEntity
100
AcDbLine
  8
0
 62
7
420
0
370
-1
  6
BYLAYER
 10
278.145000004995552
 20
-60.9999999998688907
 30
0.0
 11
278.145000004995552
 21
-64.499999999826656
 31
0.0
  0
LINE
  5
12A
100
AcDbEntity
100
AcDbLine
  8
0
 62
7
420
0
370
-1
  6
BYLAYER
 10
278.145000004995552
 20
-64.499999999826656
 30
0.0
 11
292.8549999914222326
 21
-64.499999999826656
 31
0.0
  0
LINE
  5
12B
100
AcDbEntity
100
AcDbLine
  8
0
 62
7
420
0
370
-1
  6
BYLAYER
 10
292.8549999914222326
 20
-64.499999999826656
 30
0.0
 11
292.8549999914222326
 21
-60.9999999998688907
 31
0.0
  0
LINE
  5
12C
100
AcDbEntity
100
AcDbLine
  8
0
 62
7
420
0
370
-1
  6
BYLAYER
 10
292.8549999914222326
 20
-60.9999999998688907
 30
0.0
 11
309.1450000052666383
 21
-60.9999999998688907
 31
0.0
  0
LINE
  5
12D
100
AcDbEntity
100
AcDbLine
  8
0
 62
7
420
0
370
-1
  6
BYLAYER
 10
309.1450000052666383
 20
-60.9999999998688907
 30
0.0
 11
309.1450000052666383
 21
-64.499999999826656
 31
0.0
  0
LINE
  5
12E
100
AcDbEntity
100
AcDbLine
  8
0
 62
7
420
0
370
-1
  6
BYLAYER
 10
309.1450000052666383
 20
-64.499999999826656
 30
0.0
 11
323.8549999928221723
 21
-64.499999999826656
 31
0.0
  0
LINE
  5
12F
100
AcDbEntity
100
AcDbLine
  8
0
 62
7
420
0
370
-1
  6
BYLAYER
 10
323.8549999928221723
 20
-64.499999999826656
 30
0.0
 11
323.8549999928221723
 21
-60.9999999998688907
 31
0.0
  0
LINE
  5
130
100
AcDbEntity
100
AcDbLine
  8
0
 62
7
420
0
370
-1
  6
BYLAYER
 10
323.8549999928221723
 20
-60.9999999998688907
 30
0.0
 11
340.1450000038444159
 21
-60.9999999998688907
 31
0.0
  0
LINE
  5
131
100
AcDbEntity
100
AcDbLine
  8
0
 62
7
420
0
370
-1
  6
BYLAYER
 10
340.1450000038444159
 20
-60.9999999998688907
 30
0.0
 11
340.1450000038444159
 21
-64.499999999826656
 31
0.0
  0
LINE
  5
132
100
AcDbEntity
100
AcDbLine
  8
0
 62
7
420
0
370
-1
  6
BYLAYER
 10
340.1450000038444159
 20
-64.499999999826656
 30
0.0
 11
354.8549999914000068
 21
-64.499999999826656
 31
0.0
  0
LINE
  5
133
100
AcDbEntity
100
AcDbLine
  8
0
 62
7
420
0
370
-1
  6
BYLAYER
 10
354.8549999914000068
 20
-64.499999999826656
 30
0.0
 11
354.8549999914000068
 21
-60.9999999998688907
 31
0.0
  0
LINE
  5
134
100
AcDbEntity
100
AcDbLine
  8
0
 62
7
420
0
370
-1
  6
BYLAYER
 10
354.8549999914000068
 20
-60.9999999998688907
 30
0.0
 11
371.1450000052444125
 21
-60.9999999998688907
 31
0.0
  0
LINE
  5
135
100
AcDbEntity
100
AcDbLine
  8
0
 62
7
420
0
370
-1
  6
BYLAYER
 10
371.1450000052444125
 20
-60.9999999998688907
 30
0.0
 11
371.1450000052444125
 21
-64.499999999826656
 31
0.0
  0
LINE
  5
136
100
AcDbEntity
100
AcDbLine
  8
0
 62
7
420
0
370
-1
  6
BYLAYER
 10
371.1450000052444125
 20
-64.499999999826656
 30
0.0
 11
385.8549999928000034
 21
-64.499999999826656
 31
0.0
  0
LINE
  5
137
100
AcDbEntity
100
AcDbLine
  8
0
 62
7
420
0
370
-1
  6
BYLAYER
 10
385.8549999928000034
 20
-64.499999999826656
 30
0.0
 11
385.8549999928000034
 21
-60.9999999998688907
 31
0.0
  0
LINE
  5
138
100
AcDbEntity
100
AcDbLine
  8
0
 62
7
420
0
370
-1
  6
BYLAYER
 10
385.8549999928000034
 20
-60.9999999998688907
 30
0.0
 11
401.9999999974888283
 21
-60.9999999998688907
 31
0.0
  0
LINE
  5
139
100
AcDbEntity
100
AcDbLine
  8
0
 62
7
420
0
370
-1
  6
BYLAYER
 10
401.9999999974888283
 20
-60.9999999998688907
 30
0.0
 11
401.9999999974888283
 21
-79.8116666724555586
 31
0.0
  0
LINE
  5
13A
100
AcDbEntity
100
AcDbLine
  8
0
 62
7
420
0
370
-1
  6
BYLAYER
 10
401.9999999974888283
 20
-79.8116666724555586
 30
0.0
 11
398.4999999983777457
 21
-79.8116666724555586
 31
0.0
  0
LINE
  5
13B
100
AcDbEntity
100
AcDbLine
  8
0
 62
7
420
0
370
-1
  6
BYLAYER
 10
398.4999999983777457
 20
-79.8116666724555586
 30
0.0
 11
398.4999999983777457
 21
-94.5216666602933344
 31
0.0
  0
LINE
  5
13C
100
AcDbEntity
100
AcDbLine
  8
0
 62
7
420
0
370
-1
  6
BYLAYER
 10
398.4999999983777457
 20
-94.5216666602933344
 30
0.0
 11
401.9999999974888283
 21
-94.5216666602933344
 31
0.0
  0
LINE
  5
13D
100
AcDbEntity
100
AcDbLine
  8
0
 62
7
420
0
370
-1
  6
BYLAYER
 10
401.9999999974888283
 20
-94.5216666602933344
 30
0.0
 11
401.9999999974888283
 21
-113.4783333389311082
 31
0.0
  0
LINE
  5
13E
100
AcDbEntity
100
AcDbLine
  8
0
 62
7
420
0
370
-1
  6
BYLAYER
 10
401.9999999974888283
 20
-113.4783333389311082
 30
0.0
 11
398.4999999983777457
 21
-113.4783333389311082
 31
0.0
  0
LINE
  5
13F
100
AcDbEntity
100
AcDbLine
  8
0
 62
7
420
0
370
-1
  6
BYLAYER
 10
398.4999999983777457
 20
-113.4783333389311082
 30
0.0
 11
398.4999999983777457
 21
-128.188333326768884
 31
0.0
  0
LINE
  5
140
100
AcDbEntity
100
AcDbLine
  8
0
 62
7
420
0
370
-1
  6
BYLAYER
 10
398.4999999983777457
 20
-128.188333326768884
 30
0.0
 11
401.9999999974888283
 21
-128.188333326768884
 31
0.0
  0
LINE
  5
141
100
AcDbEntity
100
AcDbLine
  8
0
 62
7
420
0
370
-1
  6
BYLAYER
 10
401.9999999974888283
 20
-128.188333326768884
 30
0.0
 11
401.9999999974888283
 21
-146.9999999993555377
 31
0.0
  0
LINE
  5
142
100
AcDbEntity
100
AcDbLine
  8
0
 62
7
420
0
370
-1
  6
BYLAYER
 10
401.9999999974888283
 20
-146.9999999993555377
 30
0.0
 11
385.8549999928000034
 21
-146.9999999993555377
 31
0.0
  0
LINE
  5
143
100
AcDbEntity
100
AcDbLine
  8
0
 62
7
420
0
370
-1
  6
BYLAYER
 10
385.8549999928000034
 20
-146.9999999993555377
 30
0.0
 11
385.8549999928000034
 21
-143.4999999993977724
 31
0.0
  0
LINE
  5
144
100
AcDbEntity
100
AcDbLine
  8
0
 62
7
420
0
370
-1
  6
BYLAYER
 10
385.8549999928000034
 20
-143.4999999993977724
 30
0.0
 11
371.1450000052444125
 21
-143.4999999993977724
 31
0.0
  0
LINE
  5
145
100
AcDbEntity
100
AcDbLine
  8
0
 62
7
420
0
370
-1
  6
BYLAYER
 10
371.1450000052444125
 20
-143.4999999993977724
 30
0.0
 11
371.1450000052444125
 21
-146.9999999993555377
 31
0.0
  0
LINE
  5
146
100
AcDbEntity
100
AcDbLine
  8
0
 62
7
420
0
370
-1
  6
BYLAYER
 10
371.1450000052444125
 20
-146.9999999993555377
 30
0.0
 11
354.8549999914000068
 21
-146.9999999993555377
 31
0.0
  0
LINE
  5
147
100
AcDbEntity
100
AcDbLine
  8
0
 62
7
420
0
370
-1
  6
BYLAYER
 10
354.8549999914000068
 20
-146.9999999993555377
 30
0.0
 11
354.8549999914000068
 21
-143.4999999993977724
 31
0.0
  0
LINE
  5
148
100
AcDbEntity
100
AcDbLine
  8
0
 62
7
420
0
370
-1
  6
BYLAYER
 10
354.8549999914000068
 20
-143.4999999993977724
 30
0.0
 11
340.1450000038444159
 21
-143.4999999993977724
 31
0.0
  0
LINE
  5
149
100
AcDbEntity
100
AcDbLine
  8
0
 62
7
420
0
370
-1
  6
BYLAYER
 10
340.1450000038444159
 20
-143.4999999993977724
 30
0.0
 11
340.1450000038444159
 21
-146.9999999993555377
 31
0.0
  0
LINE
  5
14A
100
AcDbEntity
100
AcDbLine
  8
0
 62
7
420
0
370
-1
  6
BYLAYER
 10
340.1450000038444159
 20
-146.9999999993555377
 30
0.0
 11
323.8549999928221723
 21
-146.9999999993555377
 31
0.0
  0
LINE
  5
14B
100
AcDbEntity
100
AcDbLine
  8
0
 62
7
420
0
370
-1
  6
BYLAYER
 10
323.8549999928221723
 20
-146.9999999993555377
 30
0.0
 11
323.8549999928221723
 21
-143.4999999993977724
 31
0.0
  0
LINE
  5
14C
100
AcDbEntity
100
AcDbLine
  8
0
 62
7
420
0
370
-1
  6
BYLAYER
 10
323.8549999928221723
 20
-143.4999999993977724
 30
0.0
 11
309.1450000052666383
 21
-143.4999999993977724
 31
0.0
  0
LINE
  5
14D
100
AcDbEntity
100
AcDbLine
  8
0
 62
7
420
0
370
-1
  6
BYLAYER
 10
309.1450000052666383
 20
-143.4999999993977724
 30
0.0
 11
309.1450000052666383
 21
-146.9999999993555377
 31
0.0
  0
LINE
  5
14E
100
AcDbEntity
100
AcDbLine
  8
0
 62
7
420
0
370
-1
  6
BYLAYER
 10
309.1450000052666383
 20
-146.9999999993555377
 30
0.0
 11
292.8549999914222326
 21
-146.9999999993555377
 31
0.0
  0
LINE
  5
14F
100
AcDbEntity
100
AcDbLine
  8
0
 62
7
420
0
370
-1
  6
BYLAYER
 10
292.8549999914222326
 20
-146.9999999993555377
 30
0.0
 11
292.8549999914222326
 21
-143.4999999993977724
 31
0.0
  0
LINE
  5
150
100
AcDbEntity
100
AcDbLine
  8
0
 62
7
420
0
370
-1
  6
BYLAYER
 10
292.8549999914222326
 20
-143.4999999993977724
 30
0.0
 11
278.145000004995552
 21
-143.4999999993977724
 31
0.0
  0
LINE
  5
151
100
AcDbEntity
100
AcDbLine
  8
0
 62
7
420
0
370
-1
  6
BYLAYER
 10
278.145000004995552
 20
-143.4999999993977724
 30
0.0
 11
278.145000004995552
 21
-146.9999999993555377
 31
0.0
  0
LINE
  5
152
100
AcDbEntity
100
AcDbLine
  8
0
 62
7
420
0
370
-1
  6
BYLAYER
 10
278.145000004995552
 20
-146.9999999993555377
 30
0.0
 11
261.9999999988955324
 21
-146.9999999993555377
 31
0.0
  0
LINE
  5
153
100
AcDbEntity
100
AcDbLine
  8
0
 62
7
420
0
370
-1
  6
BYLAYER
 10
261.9999999988955324
 20
-146.9999999993555377
 30
0.0
 11
261.9999999988955324
 21
-128.188333326768884
 31
0.0
  0
LINE
  5
154
100
AcDbEntity
100
AcDbLine
  8
0
 62
7
420
0
370
-1
  6
BYLAYER
 10
261.9999999988955324
 20
-128.188333326768884
 30
0.0
 11
265.4999999988532977
 21
-128.188333326768884
 31
0.0
  0
LINE
  5
155
100
AcDbEntity
100
AcDbLine
  8
0
 62
7
420
0
370
-1
  6
BYLAYER
 10
265.4999999988532977
 20
-128.188333326768884
 30
0.0
 11
265.4999999988532977
 21
-113.4783333389311082
 31
0.0
  0
LINE
  5
156
100
AcDbEntity
100
AcDbLine
  8
0
 62
7
420
0
370
-1
  6
BYLAYER
 10
265.4999999988532977
 20
-113.4783333389311082
 30
0.0
 11
261.9999999988955324
 21
-113.4783333389311082
 31
0.0
  0
LINE
  5
157
100
AcDbEntity
100
AcDbLine
  8
0
 62
7
420
0
370
-1
  6
BYLAYER
 10
261.9999999988955324
 20
-113.4783333389311082
 30
0.0
 11
261.9999999988955324
 21
-94.5216666602933344
 31
0.0
  0
LINE
  5
158
100
AcDbEntity
100
AcDbLine
  8
0
 62
7
420
0
370
-1
  6
BYLAYER
 10
261.9999999988955324
 20
-94.5216666602933344
 30
0.0
 11
265.4999999988532977
 21
-94.5216666602933344
 31
0.0
  0
LINE
  5
159
100
AcDbEntity
100
AcDbLine
  8
0
 62
7
420
0
370
-1
  6
BYLAYER
 10
265.4999999988532977
 20
-94.5216666602933344
 30
0.0
 11
265.4999999988532977
 21
-79.8116666724555586
 31
0.0
  0
LINE
  5
15A
100
AcDbEntity
100
AcDbLine
  8
0
 62
7
420
0
370
-1
  6
BYLAYER
 10
265.4999999988532977
 20
-79.8116666724555586
 30
0.0
 11
261.9999999988955324
 21
-79.8116666724555586
 31
0.0
  0
LINE
  5
15B
100
AcDbEntity
100
AcDbLine
  8
0
 62
7
420
0
370
-1
  6
BYLAYER
 10
261.9999999988955324
 20
-79.8116666724555586
 30
0.0
 11
261.9999999988955324
 21
-60.9999999998688907
 31
0.0
  0
LINE
  5
15C
100
AcDbEntity
100
AcDbLine
  8
0
 62
7
420
0
370
-1
  6
BYLAYER
 10
60.9999999998688907
 20
-7.4999999999699991
 30
0.0
 11
76.8549999935844426
 21
-7.4999999999699991
 31
0.0
  0
LINE
  5
15D
100
AcDbEntity
100
AcDbLine
  8
0
 62
7
420
0
370
-1
  6
BYLAYER
 10
76.8549999935844426
 20
-7.4999999999699991
 30
0.0
 11
76.8549999935844426
 21
-3.9999999999839999
 31
0.0
  0
LINE
  5
15E
100
AcDbEntity
100
AcDbLine
  8
0
 62
7
420
0
370
-1
  6
BYLAYER
 10
76.8549999935844426
 20
-3.9999999999839999
 30
0.0
 11
92.1450000056266703
 21
-3.9999999999839999
 31
0.0
  0
LINE
  5
15F
100
AcDbEntity
100
AcDbLine
  8
0
 62
7
420
0
370
-1
  6
BYLAYER
 10
92.1450000056266703
 20
-3.9999999999839999
 30
0.0
 11
92.1450000056266703
 21
-7.4999999999699991
 31
0.0
  0
LINE
  5
160
100
AcDbEntity
100
AcDbLine
  8
0
 62
7
420
0
370
-1
  6
BYLAYER
 10
92.1450000056266703
 20
-7.4999999999699991
 30
0.0
 11
107.8549999935733155
 21
-7.4999999999699991
 31
0.0
  0
LINE
  5
161
100
AcDbEntity
100
AcDbLine
  8
0
 62
7
420
0
370
-1
  6
BYLAYER
 10
107.8549999935733155
 20
-7.4999999999699991
 30
0.0
 11
107.8549999935733155
 21
-3.9999999999839999
 31
0.0
  0
LINE
  5
162
100
AcDbEntity
100
AcDbLine
  8
0
 62
7
420
0
370
-1
  6
BYLAYER
 10
107.8549999935733155
 20
-3.9999999999839999
 30
0.0
 11
123.1450000056155432
 21
-3.9999999999839999
 31
0.0
  0
LINE
  5
163
100
AcDbEntity
100
AcDbLine
  8
0
 62
7
420
0
370
-1
  6
BYLAYER
 10
123.1450000056155432
 20
-3.9999999999839999
 30
0.0
 11
123.1450000056155432
 21
-7.4999999999699991
 31
0.0
  0
LINE
  5
164
100
AcDbEntity
100
AcDbLine
  8
0
 62
7
420
0
370
-1
  6
BYLAYER
 10
123.1450000056155432
 20
-7.4999999999699991
 30
0.0
 11
138.8549999932799892
 21
-7.4999999999699991
 31
0.0
  0
LINE
  5
165
100
AcDbEntity
100
AcDbLine
  8
0
 62
7
420
0
370
-1
  6
BYLAYER
 10
138.8549999932799892
 20
-7.4999999999699991
 30
0.0
 11
138.8549999932799892
 21
-3.9999999999839999
 31
0.0
  0
LINE
  5
166
100
AcDbEntity
100
AcDbLine
  8
0
 62
7
420
0
370
-1
  6
BYLAYER
 10
138.8549999932799892
 20
-3.9999999999839999
 30
0.0
 11
154.1450000053222027
 21
-3.9999999999839999
 31
0.0
  0
LINE
  5
167
100
AcDbEntity
100
AcDbLine
  8
0
 62
7
420
0
370
-1
  6
BYLAYER
 10
154.1450000053222027
 20
-3.9999999999839999
 30
0.0
 11
154.1450000053222027
 21
-7.4999999999699991
 31
0.0
  0
LINE
  5
168
100
AcDbEntity
100
AcDbLine
  8
0
 62
7
420
0
370
-1
  6
BYLAYER
 10
154.1450000053222027
 20
-7.4999999999699991
 30
0.0
 11
169.8549999932688763
 21
-7.4999999999699991
 31
0.0
  0
LINE
  5
169
100
AcDbEntity
100
AcDbLine
  8
0
 62
7
420
0
370
-1
  6
BYLAYER
 10
169.8549999932688763
 20
-7.4999999999699991
 30
0.0
 11
169.8549999932688763
 21
-3.9999999999839999
 31
0.0
  0
LINE
  5
16A
100
AcDbEntity
100
AcDbLine
  8
0
 62
7
420
0
370
-1
  6
BYLAYER
 10
169.8549999932688763
 20
-3.9999999999839999
 30
0.0
 11
185.1450000053110898
 21
-3.9999999999839999
 31
0.0
  0
LINE
  5
16B
100
AcDbEntity
100
AcDbLine
  8
0
 62
7
420
0
370
-1
  6
BYLAYER
 10
185.1450000053110898
 20
-3.9999999999839999
 30
0.0
 11
185.1450000053110898
 21
-7.4999999999699991
 31
0.0
  0
LINE
  5
16C
100
AcDbEntity
100
AcDbLine
  8
0
 62
7
420
0
370
-1
  6
BYLAYER
 10
185.1450000053110898
 20
-7.4999999999699991
 30
0.0
 11
200.9999999993088693
 21
-7.4999999999699991
 31
0.0
  0
LINE
  5
16D
100
AcDbEntity
100
AcDbLine
  8
0
 62
7
420
0
370
-1
  6
BYLAYER
 10
200.9999999993088693
 20
-7.4999999999699991
 30
0.0
 11
200.9999999993088693
 21
-23.1450000059873311
 31
0.0
  0
LINE
  5
16E
100
AcDbEntity
100
AcDbLine
  8
0
 62
7
420
0
370
-1
  6
BYLAYER
 10
200.9999999993088693
 20
-23.1450000059873311
 30
0.0
 11
197.499999999351104
 21
-23.1450000059873311
 31
0.0
  0
LINE
  5
16F
100
AcDbEntity
100
AcDbLine
  8
0
 62
7
420
0
370
-1
  6
BYLAYER
 10
197.499999999351104
 20
-23.1450000059873311
 30
0.0
 11
197.499999999351104
 21
-37.8549999938533333
 31
0.0
  0
LINE
  5
170
100
AcDbEntity
100
AcDbLine
  8
0
 62
7
420
0
370
-1
  6
BYLAYER
 10
197.499999999351104
 20
-37.8549999938533333
 30
0.0
 11
200.9999999993088693
 21
-37.8549999938533333
 31
0.0
  0
LINE
  5
171
100
AcDbEntity
100
AcDbLine
  8
0
 62
7
420
0
370
-1
  6
BYLAYER
 10
200.9999999993088693
 20
-37.8549999938533333
 30
0.0
 11
200.9999999993088693
 21
-53.499999999757776
 31
0.0
  0
LINE
  5
172
100
AcDbEntity
100
AcDbLine
  8
0
 62
7
420
0
370
-1
  6
BYLAYER
 10
200.9999999993088693
 20
-53.499999999757776
 30
0.0
 11
185.1450000053110898
 21
-53.499999999757776
 31
0.0
  0
LINE
  5
173
100
AcDbEntity
100
AcDbLine
  8
0
 62
7
420
0
370
-1
  6
BYLAYER
 10
185.1450000053110898
 20
-53.499999999757776
 30
0.0
 11
185.1450000053110898
 21
-56.9999999997155484
 31
0.0
  0
LINE
  5
174
100
AcDbEntity
100
AcDbLine
  8
0
 62
7
420
0
370
-1
  6
BYLAYER
 10
185.1450000053110898
 20
-56.9999999997155484
 30
0.0
 11
169.8549999932688763
 21
-56.9999999997155484
 31
0.0
  0
LINE
  5
175
100
AcDbEntity
100
AcDbLine
  8
0
 62
7
420
0
370
-1
  6
BYLAYER
 10
169.8549999932688763
 20
-56.9999999997155484
 30
0.0
 11
169.8549999932688763
 21
-53.499999999757776
 31
0.0
  0
LINE
  5
176
100
AcDbEntity
100
AcDbLine
  8
0
 62
7
420
0
370
-1
  6
BYLAYER
 10
169.8549999932688763
 20
-53.499999999757776
 30
0.0
 11
154.1450000053222027
 21
-53.499999999757776
 31
0.0
  0
LINE
  5
177
100
AcDbEntity
100
AcDbLine
  8
0
 62
7
420
0
370
-1
  6
BYLAYER
 10
154.1450000053222027
 20
-53.499999999757776
 30
0.0
 11
154.1450000053222027
 21
-56.9999999997155484
 31
0.0
  0
LINE
  5
178
100
AcDbEntity
100
AcDbLine
  8
0
 62
7
420
0
370
-1
  6
BYLAYER
 10
154.1450000053222027
 20
-56.9999999997155484
 30
0.0
 11
138.8549999932799892
 21
-56.9999999997155484
 31
0.0
  0
LINE
  5
179
100
AcDbEntity
100
AcDbLine
  8
0
 62
7
420
0
370
-1
  6
BYLAYER
 10
138.8549999932799892
 20
-56.9999999997155484
 30
0.0
 11
138.8549999932799892
 21
-53.499999999757776
 31
0.0
  0
LINE
  5
17A
100
AcDbEntity
100
AcDbLine
  8
0
 62
7
420
0
370
-1
  6
BYLAYER
 10
138.8549999932799892
 20
-53.499999999757776
 30
0.0
 11
123.1450000056155432
 21
-53.499999999757776
 31
0.0
  0
LINE
  5
17B
100
AcDbEntity
100
AcDbLine
  8
0
 62
7
420
0
370
-1
  6
BYLAYER
 10
123.1450000056155432
 20
-53.499999999757776
 30
0.0
 11
123.1450000056155432
 21
-56.9999999997155484
 31
0.0
  0
LINE
  5
17C
100
AcDbEntity
100
AcDbLine
  8
0
 62
7
420
0
370
-1
  6
BYLAYER
 10
123.1450000056155432
 20
-56.9999999997155484
 30
0.0
 11
107.8549999935733155
 21
-56.9999999997155484
 31
0.0
  0
LINE
  5
17D
100
AcDbEntity
100
AcDbLine
  8
0
 62
7
420
0
370
-1
  6
BYLAYER
 10
107.8549999935733155
 20
-56.9999999997155484
 30
0.0
 11
107.8549999935733155
 21
-53.499999999757776
 31
0.0
  0
LINE
  5
17E
100
AcDbEntity
100
AcDbLine
  8
0
 62
7
420
0
370
-1
  6
BYLAYER
 10
107.8549999935733155
 20
-53.499999999757776
 30
0.0
 11
92.1450000056266703
 21
-53.499999999757776
 31
0.0
  0
LINE
  5
17F
100
AcDbEntity
100
AcDbLine
  8
0
 62
7
420
0
370
-1
  6
BYLAYER
 10
92.1450000056266703
 20
-53.499999999757776
 30
0.0
 11
92.1450000056266703
 21
-56.9999999997155484
 31
0.0
  0
LINE
  5
180
100
AcDbEntity
100
AcDbLine
  8
0
 62
7
420
0
370
-1
  6
BYLAYER
 10
92.1450000056266703
 20
-56.9999999997155484
 30
0.0
 11
76.8549999935844426
 21
-56.9999999997155484
 31
0.0
  0
LINE
  5
181
100
AcDbEntity
100
AcDbLine
  8
0
 62
7
420
0
370
-1
  6
BYLAYER
 10
76.8549999935844426
 20
-56.9999999997155484
 30
0.0
 11
76.8549999935844426
 21
-53.499999999757776
 31
0.0
  0
LINE
  5
182
100
AcDbEntity
100
AcDbLine
  8
0
 62
7
420
0
370
-1
  6
BYLAYER
 10
76.8549999935844426
 20
-53.499999999757776
 30
0.0
 11
60.9999999998688907
 21
-53.499999999757776
 31
0.0
  0
LINE
  5
183
100
AcDbEntity
100
AcDbLine
  8
0
 62
7
420
0
370
-1
  6
BYLAYER
 10
60.9999999998688907
 20
-53.499999999757776
 30
0.0
 11
60.9999999998688907
 21
-37.8549999938533333
 31
0.0
  0
LINE
  5
184
100
AcDbEntity
100
AcDbLine
  8
0
 62
7
420
0
370
-1
  6
BYLAYER
 10
60.9999999998688907
 20
-37.8549999938533333
 30
0.0
 11
64.499999999826656
 21
-37.8549999938533333
 31
0.0
  0
LINE
  5
185
100
AcDbEntity
100
AcDbLine
  8
0
 62
7
420
0
370
-1
  6
BYLAYER
 10
64.499999999826656
 20
-37.8549999938533333
 30
0.0
 11
64.499999999826656
 21
-23.1450000059873311
 31
0.0
  0
LINE
  5
186
100
AcDbEntity
100
AcDbLine
  8
0
 62
7
420
0
370
-1
  6
BYLAYER
 10
64.499999999826656
 20
-23.1450000059873311
 30
0.0
 11
60.9999999998688907
 21
-23.1450000059873311
 31
0.0
  0
LINE
  5
187
100
AcDbEntity
100
AcDbLine
  8
0
 62
7
420
0
370
-1
  6
BYLAYER
 10
60.9999999998688907
 20
-23.1450000059873311
 30
0.0
 11
60.9999999998688907
 21
-7.4999999999699991
 31
0.0
  0
LINE
  5
188
100
AcDbEntity
100
AcDbLine
  8
0
 62
256
370
-1
  6
BYLAYER
 10
0.0
 20
0.0
 30
0.0
 11
140.0
 21
0.0
 31
0.0
  0
LINE
  5
189
100
AcDbEntity
100
AcDbLine
  8
0
 62
256
370
-1
  6
BYLAYER
 10
140.0
 20
0.0
 30
0.0
 11
140.0
 21
86.0
 31
0.0
  0
LINE
  5
18A
100
AcDbEntity
100
AcDbLine
  8
0
 62
256
370
-1
  6
BYLAYER
 10
140.0
 20
86.0
 30
0.0
 11
0.0
 21
86.0
 31
0.0
  0
LINE
  5
18B
100
AcDbEntity
100
AcDbLine
  8
0
 62
256
370
-1
  6
BYLAYER
 10
0.0
 20
86.0
 30
0.0
 11
0.0
 21
0.0
 31
0.0
  0
LINE
  5
18C
100
AcDbEntity
100
AcDbLine
  8
0
 62
256
370
-1
  6
BYLAYER
 10
60.0
 20
67.0
 30
0.0
 11
60.0
 21
67.0
 31
0.0
  0
INSERT
  5
18D
100
AcDbEntity
100
AcDbBlockReference
  8
0
 62
256
370
-1
  6
BYLAYER
  2
servo
 10
120.0
 20
53.0
 30
0.0
 50
270.0
  0
INSERT
  5
18E
100
AcDbEntity
100
AcDbBlockReference
  8
0
 62
256
370
-1
  6
BYLAYER
  2
high_freq
 10
96.0
 20
70.0
 30
0.0
  0
INSERT
  5
18F
100
AcDbEntity
100
AcDbBlockReference
  8
0
 62
256
370
-1
  6
BYLAYER
  2
dds
 10
126.0
 20
70.0
 30
0.0
  0
INSERT
  5
190
100
AcDbEntity
100
AcDbBlockReference
  8
0
 62
256
370
-1
  6
BYLAYER
  2
power
 10
28.0
 20
70.0
 30
0.0
  0
INSERT
  5
191
100
AcDbEntity
100
AcDbBlockReference
  8
0
 62
256
370
-1
  6
BYLAYER
  2
display
 10
20.0
 20
44.0
 30
0.0
  0
INSERT
  5
192
100
AcDbEntity
100
AcDbBlockReference
  8
0
 62
256
370
-1
  6
BYLAYER
  2
buttons
 10
120.0
 20
24.0
 30
0.0
  0
INSERT
  5
193
100
AcDbEntity
100
AcDbBlockReference
  8
0
 62
256
370
-1
  6
BYLAYER
  2
servo
 10
180.9999999998688907
 20
-93.9999999998688907
 30
0.0
 50
270.0
  0
INSERT
  5
194
100
AcDbEntity
100
AcDbBlockReference
  8
0
 62
256
370
-1
  6
BYLAYER
  2
high_freq
 10
156.9999999998688907
 20
-76.9999999998688907
 30
0.0
  0
INSERT
  5
195
100
AcDbEntity
100
AcDbBlockReference
  8
0
 62
256
370
-1
  6
BYLAYER
  2
dds
 10
186.9999999998688907
 20
-76.9999999998688907
 30
0.0
  0
LINE
  5
196
100
AcDbEntity
100
AcDbLine
  8
0
 62
256
370
-1
  6
BYLAYER
 10
120.9999999998688907
 20
-79.9999999998688907
 30
0.0
 11
120.9999999998688907
 21
-79.9999999998688907
 31
0.0
  0
INSERT
  5
197
100
AcDbEntity
100
AcDbBlockReference
  8
0
 62
256
370
-1
  6
BYLAYER
  2
power
 10
88.9999999998688907
 20
-76.9999999998688907
 30
0.0
  0
INSERT
  5
198
100
AcDbEntity
100
AcDbBlockReference
  8
0
 62
256
370
-1
  6
BYLAYER
  2
display
 10
80.9999999998688907
 20
-102.9999999998688907
 30
0.0
  0
INSERT
  5
199
100
AcDbEntity
100
AcDbBlockReference
  8
0
 62
256
370
-1
  6
BYLAYER
  2
buttons
 10
180.9999999998688907
 20
-122.9999999998688907
 30
0.0
  0
ENDSEC
  0
SECTION
  2
OBJECTS
  0
DICTIONARY
  5
C
100
AcDbDictionary
280
0
281
1
  3
ACAD_GROUP
350
D
  3
ACAD_LAYOUT
350
1A
  3
ACAD_MLINESTYLE
350
17
  3
ACAD_PLOTSETTINGS
350
19
  3
ACAD_PLOTSTYLENAME
350
E
  3
AcDbVariableDictionary
350
19A
  3
QCAD_OBJECTS
350
19B
  0
DICTIONARY
  5
D
100
AcDbDictionary
280
0
281
1
  0
ACDBDICTIONARYWDFLT
  5
E
100
AcDbDictionary
281
1
  3
Normal
350
F
100
AcDbDictionaryWithDefault
340
F
  0
ACDBPLACEHOLDER
  5
F
  0
DICTIONARY
  5
17
100
AcDbDictionary
280
0
281
1
  3
Standard
350
18
  0
MLINESTYLE
  5
18
100
AcDbMlineStyle
  2
STANDARD
 70
0
  3

 62
256
 51
90.0
 52
90.0
 71
2
 49
0.5
 62
256
  6
BYLAYER
 49
-0.5
 62
256
  6
BYLAYER
  0
DICTIONARY
  5
19
100
AcDbDictionary
280
0
281
1
  0
DICTIONARY
  5
1A
100
AcDbDictionary
281
1
  3
Layout1
350
1E
  3
Layout2
350
26
  3
Model
350
22
  0
LAYOUT
  5
1E
100
AcDbPlotSettings
  1

  2
none_device
  4

  6

 40
0.0
 41
0.0
 42
0.0
 43
0.0
 44
0.0
 45
0.0
 46
0.0
 47
0.0
 48
0.0
 49
0.0
140
0.0
141
0.0
142
1.0
143
1.0
 70
688
 72
0
 73
0
 74
5
  7

 75
16
147
1.0
148
0.0
149
0.0
100
AcDbLayout
  1
Layout1
 70
1
 71
1
 10
0.0
 20
0.0
 11
420.0
 21
297.0
 12
0.0
 22
0.0
 32
0.0
 14
100000000000000000000.0
 24
100000000000000000000.0
 34
100000000000000000000.0
 15
-100000000000000000000.0
 25
-100000000000000000000.0
 35
-100000000000000000000.0
146
0.0
 13
0.0
 23
0.0
 33
0.0
 16
1.0
 26
0.0
 36
0.0
 17
0.0
 27
1.0
 37
0.0
 76
0
330
1B
  0
LAYOUT
  5
22
100
AcDbPlotSettings
  1

  2
none_device
  4

  6

 40
0.0
 41
0.0
 42
0.0
 43
0.0
 44
0.0
 45
0.0
 46
0.0
 47
0.0
 48
0.0
 49
0.0
140
0.0
141
0.0
142
1.0
143
1.0
 70
1712
 72
0
 73
0
 74
0
  7

 75
0
147
1.0
148
0.0
149
0.0
100
AcDbLayout
  1
Model
 70
1
 71
0
 10
0.0
 20
0.0
 11
12.0
 21
9.0
 12
0.0
 22
0.0
 32
0.0
 14
0.0
 24
0.0
 34
0.0
 15
0.0
 25
0.0
 35
0.0
146
0.0
 13
0.0
 23
0.0
 33
0.0
 16
1.0
 26
0.0
 36
0.0
 17
0.0
 27
1.0
 37
0.0
 76
0
330
1F
  0
LAYOUT
  5
26
100
AcDbPlotSettings
  1

  2
none_device
  4

  6

 40
0.0
 41
0.0
 42
0.0
 43
0.0
 44
0.0
 45
0.0
 46
0.0
 47
0.0
 48
0.0
 49
0.0
140
0.0
141
0.0
142
1.0
143
1.0
 70
688
 72
0
 73
0
 74
5
  7

 75
16
147
1.0
148
0.0
149
0.0
100
AcDbLayout
  1
Layout2
 70
1
 71
2
 10
0.0
 20
0.0
 11
12.0
 21
9.0
 12
0.0
 22
0.0
 32
0.0
 14
0.0
 24
0.0
 34
0.0
 15
0.0
 25
0.0
 35
0.0
146
0.0
 13
0.0
 23
0.0
 33
0.0
 16
1.0
 26
0.0
 36
0.0
 17
0.0
 27
1.0
 37
0.0
 76
0
330
23
  0
DICTIONARY
  5
19A
100
AcDbDictionary
281
1
  3
DIMASSOC
350
19D
  3
HIDETEXT
350
19C
  0
DICTIONARYVAR
  5
19C
100
DictionaryVariables
280
0
  1
2
  0
DICTIONARYVAR
  5
19D
100
DictionaryVariables
280
0
  1
1
  0
DICTIONARY
  5
19B
100
AcDbDictionary
281
1
  3
Grid/DisplayGrid00
350
19E
  3
Grid/DisplayGrid01
350
19F
  3
Grid/DisplayGrid02
350
1A0
  3
Grid/DisplayGrid03
350
1A1
  3
Grid/GridSpacingX00
350
1A2
  3
Grid/GridSpacingX01
350
1A3
  3
Grid/GridSpacingX02
350
1A4
  3
Grid/GridSpacingX03
350
1A5
  3
Grid/GridSpacingY00
350
1A6
  3
Grid/GridSpacingY01
350
1A7
  3
Grid/GridSpacingY02
350
1A8
  3
Grid/GridSpacingY03
350
1A9
  3
Grid/IsometricGrid00
350
1AA
  3
Grid/IsometricGrid01
350
1AB
  3
Grid/IsometricGrid02
350
1AC
  3
Grid/IsometricGrid03
350
1AD
  3
Grid/IsometricProjection00
350
1AE
  3
Grid/IsometricProjection01
350
1AF
  3
Grid/IsometricProjection02
350
1B0
  3
Grid/IsometricProjection03
350
1B1
  3
Grid/MetaGridSpacingX00
350
1B2
  3
Grid/MetaGridSpacingX01
350
1B3
  3
Grid/MetaGridSpacingX02
350
1B4
  3
Grid/MetaGridSpacingX03
350
1B5
  3
Grid/MetaGridSpacingY00
350
1B6
  3
Grid/MetaGridSpacingY01
350
1B7
  3
Grid/MetaGridSpacingY02
350
1B8
  3
Grid/MetaGridSpacingY03
350
1B9
  3
MultiPageSettings/Columns
350
1BA
  3
MultiPageSettings/GlueMarginsBottom
350
1BB
  3
MultiPageSettings/GlueMarginsLeft
350
1BC
  3
MultiPageSettings/GlueMarginsRight
350
1BD
  3
MultiPageSettings/GlueMarginsTop
350
1BE
  3
MultiPageSettings/PrintCropMarks
350
1BF
  3
MultiPageSettings/Rows
350
1C0
  3
PageSettings/OffsetX
350
1C1
  3
PageSettings/OffsetY
350
1C2
  3
PageSettings/PageOrientation
350
1C3
  3
PageSettings/PaperHeight
350
1C4
  3
PageSettings/PaperWidth
350
1C5
  3
PageSettings/Scale
350
1C6
  3
PageSettings/ShowPaperBorders
350
1C7
  3
UnitSettings/PaperUnit
350
1C8
  0
XRECORD
  5
19E
330
19B
100
AcDbXrecord
280
1
290
1
  0
XRECORD
  5
19F
330
19B
100
AcDbXrecord
280
1
290
1
  0
XRECORD
  5
1A0
330
19B
100
AcDbXrecord
280
1
290
1
  0
XRECORD
  5
1A1
330
19B
100
AcDbXrecord
280
1
290
1
  0
XRECORD
  5
1A2
330
19B
100
AcDbXrecord
280
1
1000
auto
  0
XRECORD
  5
1A3
330
19B
100
AcDbXrecord
280
1
1000
auto
  0
XRECORD
  5
1A4
330
19B
100
AcDbXrecord
280
1
1000
auto
  0
XRECORD
  5
1A5
330
19B
100
AcDbXrecord
280
1
1000
auto
  0
XRECORD
  5
1A6
330
19B
100
AcDbXrecord
280
1
1000
auto
  0
XRECORD
  5
1A7
330
19B
100
AcDbXrecord
280
1
1000
auto
  0
XRECORD
  5
1A8
330
19B
100
AcDbXrecord
280
1
1000
auto
  0
XRECORD
  5
1A9
330
19B
100
AcDbXrecord
280
1
1000
auto
  0
XRECORD
  5
1AA
330
19B
100
AcDbXrecord
280
1
290
0
  0
XRECORD
  5
1AB
330
19B
100
AcDbXrecord
280
1
290
0
  0
XRECORD
  5
1AC
330
19B
100
AcDbXrecord
280
1
290
0
  0
XRECORD
  5
1AD
330
19B
100
AcDbXrecord
280
1
290
0
  0
XRECORD
  5
1AE
330
19B
100
AcDbXrecord
280
1
 90
0
  0
XRECORD
  5
1AF
330
19B
100
AcDbXrecord
280
1
 90
0
  0
XRECORD
  5
1B0
330
19B
100
AcDbXrecord
280
1
 90
0
  0
XRECORD
  5
1B1
330
19B
100
AcDbXrecord
280
1
 90
0
  0
XRECORD
  5
1B2
330
19B
100
AcDbXrecord
280
1
1000
auto
  0
XRECORD
  5
1B3
330
19B
100
AcDbXrecord
280
1
1000
auto
  0
XRECORD
  5
1B4
330
19B
100
AcDbXrecord
280
1
1000
auto
  0
XRECORD
  5
1B5
330
19B
100
AcDbXrecord
280
1
1000
auto
  0
XRECORD
  5
1B6
330
19B
100
AcDbXrecord
280
1
1000
auto
  0
XRECORD
  5
1B7
330
19B
100
AcDbXrecord
280
1
1000
auto
  0
XRECORD
  5
1B8
330
19B
100
AcDbXrecord
280
1
1000
auto
  0
XRECORD
  5
1B9
330
19B
100
AcDbXrecord
280
1
1000
auto
  0
XRECORD
  5
1BA
330
19B
100
AcDbXrecord
280
1
 90
1
  0
XRECORD
  5
1BB
330
19B
100
AcDbXrecord
280
1
 40
10.0
  0
XRECORD
  5
1BC
330
19B
100
AcDbXrecord
280
1
 40
10.0
  0
XRECORD
  5
1BD
330
19B
100
AcDbXrecord
280
1
 40
10.0
  0
XRECORD
  5
1BE
330
19B
100
AcDbXrecord
280
1
 40
10.0
  0
XRECORD
  5
1BF
330
19B
100
AcDbXrecord
280
1
290
0
  0
XRECORD
  5
1C0
330
19B
100
AcDbXrecord
280
1
 90
1
  0
XRECORD
  5
1C1
330
19B
100
AcDbXrecord
280
1
 40
-18.1362416325950768
  0
XRECORD
  5
1C2
330
19B
100
AcDbXrecord
280
1
 40
-174.7357126525017179
  0
XRECORD
  5
1C3
330
19B
100
AcDbXrecord
280
1
1000
Portrait
  0
XRECORD
  5
1C4
330
19B
100
AcDbXrecord
280
1
 40
279.3999999999999773
  0
XRECORD
  5
1C5
330
19B
100
AcDbXrecord
280
1
 40
215.9000000000000057
  0
XRECORD
  5
1C6
330
19B
100
AcDbXrecord
280
1
1000
1:1
  0
XRECORD
  5
1C7
330
19B
100
AcDbXrecord
280
1
290
1
  0
XRECORD
  5
1C8
330
19B
100
AcDbXrecord
280
1
 90
4
  0
ENDSEC
  0
EOF
