G04 (Genere par PCBNEW (2007-05-25)) le 20/5/2008-23:22:25*
G01*
G70*
G90*
%MOIN*%
G04 Gerber Fmt 3.4, Leading zero omitted, Abs format*
%FSLAX34Y34*%
G04 APERTURE LIST*
%ADD10C,0.015000*%
%ADD11C,0.200000*%
%ADD12C,0.060000*%
%ADD13R,0.060000X0.060000*%
%ADD14C,0.055000*%
%ADD15R,0.090000X0.062000*%
%ADD16O,0.090000X0.062000*%
%ADD17R,0.062000X0.090000*%
%ADD18O,0.062000X0.090000*%
%ADD19C,0.150000*%
%ADD20C,0.027000*%
%ADD21C,0.010000*%
%ADD22C,0.017000*%
%ADD23C,0.005000*%
%ADD24C,0.015000*%
%ADD25C,0.006000*%
%ADD26C,0.220000*%
%ADD27C,0.080000*%
%ADD28R,0.080000X0.080000*%
%ADD29C,0.075000*%
%ADD30R,0.110000X0.082000*%
%ADD31O,0.110000X0.082000*%
%ADD32R,0.082000X0.110000*%
%ADD33O,0.082000X0.110000*%
%ADD34C,0.170000*%
G04 APERTURE END LIST*
G54D10*
X16000Y-78000D02*
X80000Y-78000D01*
X16000Y-12000D02*
X16000Y-78000D01*
X80000Y-12000D02*
X16000Y-12000D01*
X80000Y-78000D02*
X80000Y-12000D01*
G54D26*
X75000Y-15000D03*
X21000Y-15000D03*
G54D27*
X34000Y-62000D03*
X35000Y-60000D03*
X36000Y-62000D03*
X40000Y-53000D03*
X39000Y-55000D03*
X38000Y-53000D03*
X40000Y-60000D03*
X39000Y-62000D03*
X38000Y-60000D03*
X34000Y-55000D03*
X35000Y-53000D03*
X36000Y-55000D03*
G54D28*
X26500Y-54500D03*
G54D27*
X27500Y-54500D03*
X28500Y-54500D03*
X29500Y-54500D03*
X30500Y-54500D03*
X31500Y-54500D03*
G54D28*
X42000Y-60000D03*
G54D27*
X42000Y-59000D03*
X42000Y-58000D03*
X42000Y-57000D03*
X42000Y-56000D03*
X42000Y-55000D03*
G54D28*
X26500Y-61500D03*
G54D27*
X27500Y-61500D03*
X28500Y-61500D03*
X29500Y-61500D03*
X30500Y-61500D03*
X31500Y-61500D03*
G54D28*
X27500Y-53500D03*
G54D27*
X27500Y-52500D03*
X28500Y-53500D03*
X28500Y-52500D03*
X29500Y-53500D03*
X29500Y-52500D03*
X30500Y-53500D03*
X30500Y-52500D03*
G54D28*
X27500Y-55500D03*
G54D27*
X28500Y-55500D03*
X29500Y-55500D03*
X30500Y-55500D03*
X27500Y-56500D03*
X27500Y-58500D03*
X28500Y-56500D03*
X28500Y-58500D03*
X29500Y-56500D03*
X29500Y-58500D03*
X30500Y-56500D03*
X30500Y-58500D03*
G54D29*
X26500Y-59500D03*
X28500Y-59500D03*
X31500Y-59500D03*
X29500Y-59500D03*
X26500Y-60500D03*
X27500Y-60500D03*
X31500Y-60500D03*
X30500Y-60500D03*
G54D30*
X47000Y-53000D03*
G54D31*
X47000Y-54000D03*
X47000Y-55000D03*
X47000Y-56000D03*
X47000Y-57000D03*
X47000Y-58000D03*
X47000Y-59000D03*
X47000Y-60000D03*
X50000Y-60000D03*
X50000Y-59000D03*
X50000Y-58000D03*
X50000Y-57000D03*
X50000Y-56000D03*
X50000Y-55000D03*
X50000Y-54000D03*
X50000Y-53000D03*
G54D32*
X34000Y-59000D03*
G54D33*
X35000Y-59000D03*
X36000Y-59000D03*
X37000Y-59000D03*
X38000Y-59000D03*
X39000Y-59000D03*
X40000Y-59000D03*
X40000Y-56000D03*
X39000Y-56000D03*
X38000Y-56000D03*
X37000Y-56000D03*
X36000Y-56000D03*
X35000Y-56000D03*
X34000Y-56000D03*
G54D32*
X62000Y-57000D03*
G54D33*
X61000Y-57000D03*
X60000Y-57000D03*
X59000Y-57000D03*
X58000Y-57000D03*
X57000Y-57000D03*
X56000Y-57000D03*
X56000Y-60000D03*
X57000Y-60000D03*
X58000Y-60000D03*
X59000Y-60000D03*
X60000Y-60000D03*
X61000Y-60000D03*
X62000Y-60000D03*
G54D29*
X64500Y-55500D03*
X65500Y-55500D03*
X69500Y-55500D03*
X68500Y-55500D03*
X64500Y-56500D03*
X66500Y-56500D03*
X69500Y-56500D03*
X67500Y-56500D03*
G54D27*
X65500Y-59500D03*
X65500Y-57500D03*
X66500Y-59500D03*
X66500Y-57500D03*
X67500Y-59500D03*
X67500Y-57500D03*
X68500Y-59500D03*
X68500Y-57500D03*
G54D28*
X68500Y-60500D03*
G54D27*
X67500Y-60500D03*
X66500Y-60500D03*
X65500Y-60500D03*
G54D28*
X68500Y-62500D03*
G54D27*
X68500Y-63500D03*
X67500Y-62500D03*
X67500Y-63500D03*
X66500Y-62500D03*
X66500Y-63500D03*
X65500Y-62500D03*
X65500Y-63500D03*
G54D28*
X69500Y-54500D03*
G54D27*
X68500Y-54500D03*
X67500Y-54500D03*
X66500Y-54500D03*
X65500Y-54500D03*
X64500Y-54500D03*
G54D28*
X54000Y-56000D03*
G54D27*
X54000Y-57000D03*
X54000Y-58000D03*
X54000Y-59000D03*
X54000Y-60000D03*
X54000Y-61000D03*
G54D28*
X69500Y-61500D03*
G54D27*
X68500Y-61500D03*
X67500Y-61500D03*
X66500Y-61500D03*
X65500Y-61500D03*
X64500Y-61500D03*
X62000Y-61000D03*
X61000Y-63000D03*
X60000Y-61000D03*
X56000Y-56000D03*
X57000Y-54000D03*
X58000Y-56000D03*
X56000Y-63000D03*
X57000Y-61000D03*
X58000Y-63000D03*
X62000Y-54000D03*
X61000Y-56000D03*
X60000Y-54000D03*
X62000Y-66000D03*
X61000Y-68000D03*
X60000Y-66000D03*
X56000Y-75000D03*
X57000Y-73000D03*
X58000Y-75000D03*
X56000Y-68000D03*
X57000Y-66000D03*
X58000Y-68000D03*
X62000Y-73000D03*
X61000Y-75000D03*
X60000Y-73000D03*
G54D28*
X69500Y-73500D03*
G54D27*
X68500Y-73500D03*
X67500Y-73500D03*
X66500Y-73500D03*
X65500Y-73500D03*
X64500Y-73500D03*
G54D28*
X54000Y-68000D03*
G54D27*
X54000Y-69000D03*
X54000Y-70000D03*
X54000Y-71000D03*
X54000Y-72000D03*
X54000Y-73000D03*
G54D28*
X69500Y-66500D03*
G54D27*
X68500Y-66500D03*
X67500Y-66500D03*
X66500Y-66500D03*
X65500Y-66500D03*
X64500Y-66500D03*
G54D28*
X68500Y-74500D03*
G54D27*
X68500Y-75500D03*
X67500Y-74500D03*
X67500Y-75500D03*
X66500Y-74500D03*
X66500Y-75500D03*
X65500Y-74500D03*
X65500Y-75500D03*
G54D28*
X68500Y-72500D03*
G54D27*
X67500Y-72500D03*
X66500Y-72500D03*
X65500Y-72500D03*
X68500Y-71500D03*
X68500Y-69500D03*
X67500Y-71500D03*
X67500Y-69500D03*
X66500Y-71500D03*
X66500Y-69500D03*
X65500Y-71500D03*
X65500Y-69500D03*
G54D29*
X69500Y-68500D03*
X67500Y-68500D03*
X64500Y-68500D03*
X66500Y-68500D03*
X69500Y-67500D03*
X68500Y-67500D03*
X64500Y-67500D03*
X65500Y-67500D03*
G54D32*
X62000Y-69000D03*
G54D33*
X61000Y-69000D03*
X60000Y-69000D03*
X59000Y-69000D03*
X58000Y-69000D03*
X57000Y-69000D03*
X56000Y-69000D03*
X56000Y-72000D03*
X57000Y-72000D03*
X58000Y-72000D03*
X59000Y-72000D03*
X60000Y-72000D03*
X61000Y-72000D03*
X62000Y-72000D03*
G54D32*
X34000Y-71000D03*
G54D33*
X35000Y-71000D03*
X36000Y-71000D03*
X37000Y-71000D03*
X38000Y-71000D03*
X39000Y-71000D03*
X40000Y-71000D03*
X40000Y-68000D03*
X39000Y-68000D03*
X38000Y-68000D03*
X37000Y-68000D03*
X36000Y-68000D03*
X35000Y-68000D03*
X34000Y-68000D03*
G54D30*
X47000Y-65000D03*
G54D31*
X47000Y-66000D03*
X47000Y-67000D03*
X47000Y-68000D03*
X47000Y-69000D03*
X47000Y-70000D03*
X47000Y-71000D03*
X47000Y-72000D03*
X50000Y-72000D03*
X50000Y-71000D03*
X50000Y-70000D03*
X50000Y-69000D03*
X50000Y-68000D03*
X50000Y-67000D03*
X50000Y-66000D03*
X50000Y-65000D03*
G54D29*
X31500Y-72500D03*
X30500Y-72500D03*
X26500Y-72500D03*
X27500Y-72500D03*
X31500Y-71500D03*
X29500Y-71500D03*
X26500Y-71500D03*
X28500Y-71500D03*
G54D27*
X30500Y-68500D03*
X30500Y-70500D03*
X29500Y-68500D03*
X29500Y-70500D03*
X28500Y-68500D03*
X28500Y-70500D03*
X27500Y-68500D03*
X27500Y-70500D03*
G54D28*
X27500Y-67500D03*
G54D27*
X28500Y-67500D03*
X29500Y-67500D03*
X30500Y-67500D03*
G54D28*
X27500Y-65500D03*
G54D27*
X27500Y-64500D03*
X28500Y-65500D03*
X28500Y-64500D03*
X29500Y-65500D03*
X29500Y-64500D03*
X30500Y-65500D03*
X30500Y-64500D03*
G54D28*
X26500Y-73500D03*
G54D27*
X27500Y-73500D03*
X28500Y-73500D03*
X29500Y-73500D03*
X30500Y-73500D03*
X31500Y-73500D03*
G54D28*
X42000Y-72000D03*
G54D27*
X42000Y-71000D03*
X42000Y-70000D03*
X42000Y-69000D03*
X42000Y-68000D03*
X42000Y-67000D03*
G54D28*
X26500Y-66500D03*
G54D27*
X27500Y-66500D03*
X28500Y-66500D03*
X29500Y-66500D03*
X30500Y-66500D03*
X31500Y-66500D03*
X34000Y-67000D03*
X35000Y-65000D03*
X36000Y-67000D03*
X40000Y-72000D03*
X39000Y-74000D03*
X38000Y-72000D03*
X40000Y-65000D03*
X39000Y-67000D03*
X38000Y-65000D03*
X34000Y-74000D03*
X35000Y-72000D03*
X36000Y-74000D03*
X34000Y-50000D03*
X35000Y-48000D03*
X36000Y-50000D03*
X40000Y-41000D03*
X39000Y-43000D03*
X38000Y-41000D03*
X40000Y-48000D03*
X39000Y-50000D03*
X38000Y-48000D03*
X34000Y-43000D03*
X35000Y-41000D03*
X36000Y-43000D03*
G54D28*
X26500Y-42500D03*
G54D27*
X27500Y-42500D03*
X28500Y-42500D03*
X29500Y-42500D03*
X30500Y-42500D03*
X31500Y-42500D03*
G54D28*
X42000Y-48000D03*
G54D27*
X42000Y-47000D03*
X42000Y-46000D03*
X42000Y-45000D03*
X42000Y-44000D03*
X42000Y-43000D03*
G54D28*
X26500Y-49500D03*
G54D27*
X27500Y-49500D03*
X28500Y-49500D03*
X29500Y-49500D03*
X30500Y-49500D03*
X31500Y-49500D03*
G54D28*
X27500Y-41500D03*
G54D27*
X27500Y-40500D03*
X28500Y-41500D03*
X28500Y-40500D03*
X29500Y-41500D03*
X29500Y-40500D03*
X30500Y-41500D03*
X30500Y-40500D03*
G54D28*
X27500Y-43500D03*
G54D27*
X28500Y-43500D03*
X29500Y-43500D03*
X30500Y-43500D03*
X27500Y-44500D03*
X27500Y-46500D03*
X28500Y-44500D03*
X28500Y-46500D03*
X29500Y-44500D03*
X29500Y-46500D03*
X30500Y-44500D03*
X30500Y-46500D03*
G54D29*
X26500Y-47500D03*
X28500Y-47500D03*
X31500Y-47500D03*
X29500Y-47500D03*
X26500Y-48500D03*
X27500Y-48500D03*
X31500Y-48500D03*
X30500Y-48500D03*
G54D30*
X47000Y-41000D03*
G54D31*
X47000Y-42000D03*
X47000Y-43000D03*
X47000Y-44000D03*
X47000Y-45000D03*
X47000Y-46000D03*
X47000Y-47000D03*
X47000Y-48000D03*
X50000Y-48000D03*
X50000Y-47000D03*
X50000Y-46000D03*
X50000Y-45000D03*
X50000Y-44000D03*
X50000Y-43000D03*
X50000Y-42000D03*
X50000Y-41000D03*
G54D32*
X34000Y-47000D03*
G54D33*
X35000Y-47000D03*
X36000Y-47000D03*
X37000Y-47000D03*
X38000Y-47000D03*
X39000Y-47000D03*
X40000Y-47000D03*
X40000Y-44000D03*
X39000Y-44000D03*
X38000Y-44000D03*
X37000Y-44000D03*
X36000Y-44000D03*
X35000Y-44000D03*
X34000Y-44000D03*
G54D32*
X62000Y-45000D03*
G54D33*
X61000Y-45000D03*
X60000Y-45000D03*
X59000Y-45000D03*
X58000Y-45000D03*
X57000Y-45000D03*
X56000Y-45000D03*
X56000Y-48000D03*
X57000Y-48000D03*
X58000Y-48000D03*
X59000Y-48000D03*
X60000Y-48000D03*
X61000Y-48000D03*
X62000Y-48000D03*
G54D29*
X64500Y-43500D03*
X65500Y-43500D03*
X69500Y-43500D03*
X68500Y-43500D03*
X64500Y-44500D03*
X66500Y-44500D03*
X69500Y-44500D03*
X67500Y-44500D03*
G54D27*
X65500Y-47500D03*
X65500Y-45500D03*
X66500Y-47500D03*
X66500Y-45500D03*
X67500Y-47500D03*
X67500Y-45500D03*
X68500Y-47500D03*
X68500Y-45500D03*
G54D28*
X68500Y-48500D03*
G54D27*
X67500Y-48500D03*
X66500Y-48500D03*
X65500Y-48500D03*
G54D28*
X68500Y-50500D03*
G54D27*
X68500Y-51500D03*
X67500Y-50500D03*
X67500Y-51500D03*
X66500Y-50500D03*
X66500Y-51500D03*
X65500Y-50500D03*
X65500Y-51500D03*
G54D28*
X69500Y-42500D03*
G54D27*
X68500Y-42500D03*
X67500Y-42500D03*
X66500Y-42500D03*
X65500Y-42500D03*
X64500Y-42500D03*
G54D28*
X54000Y-44000D03*
G54D27*
X54000Y-45000D03*
X54000Y-46000D03*
X54000Y-47000D03*
X54000Y-48000D03*
X54000Y-49000D03*
G54D28*
X69500Y-49500D03*
G54D27*
X68500Y-49500D03*
X67500Y-49500D03*
X66500Y-49500D03*
X65500Y-49500D03*
X64500Y-49500D03*
X62000Y-49000D03*
X61000Y-51000D03*
X60000Y-49000D03*
X56000Y-44000D03*
X57000Y-42000D03*
X58000Y-44000D03*
X56000Y-51000D03*
X57000Y-49000D03*
X58000Y-51000D03*
X62000Y-42000D03*
X61000Y-44000D03*
X60000Y-42000D03*
X62000Y-30000D03*
X61000Y-32000D03*
X60000Y-30000D03*
X56000Y-39000D03*
X57000Y-37000D03*
X58000Y-39000D03*
X56000Y-32000D03*
X57000Y-30000D03*
X58000Y-32000D03*
X62000Y-37000D03*
X61000Y-39000D03*
X60000Y-37000D03*
G54D28*
X69500Y-37500D03*
G54D27*
X68500Y-37500D03*
X67500Y-37500D03*
X66500Y-37500D03*
X65500Y-37500D03*
X64500Y-37500D03*
G54D28*
X54000Y-32000D03*
G54D27*
X54000Y-33000D03*
X54000Y-34000D03*
X54000Y-35000D03*
X54000Y-36000D03*
X54000Y-37000D03*
G54D28*
X69500Y-30500D03*
G54D27*
X68500Y-30500D03*
X67500Y-30500D03*
X66500Y-30500D03*
X65500Y-30500D03*
X64500Y-30500D03*
G54D28*
X68500Y-38500D03*
G54D27*
X68500Y-39500D03*
X67500Y-38500D03*
X67500Y-39500D03*
X66500Y-38500D03*
X66500Y-39500D03*
X65500Y-38500D03*
X65500Y-39500D03*
G54D28*
X68500Y-36500D03*
G54D27*
X67500Y-36500D03*
X66500Y-36500D03*
X65500Y-36500D03*
X68500Y-35500D03*
X68500Y-33500D03*
X67500Y-35500D03*
X67500Y-33500D03*
X66500Y-35500D03*
X66500Y-33500D03*
X65500Y-35500D03*
X65500Y-33500D03*
G54D29*
X69500Y-32500D03*
X67500Y-32500D03*
X64500Y-32500D03*
X66500Y-32500D03*
X69500Y-31500D03*
X68500Y-31500D03*
X64500Y-31500D03*
X65500Y-31500D03*
G54D32*
X62000Y-33000D03*
G54D33*
X61000Y-33000D03*
X60000Y-33000D03*
X59000Y-33000D03*
X58000Y-33000D03*
X57000Y-33000D03*
X56000Y-33000D03*
X56000Y-36000D03*
X57000Y-36000D03*
X58000Y-36000D03*
X59000Y-36000D03*
X60000Y-36000D03*
X61000Y-36000D03*
X62000Y-36000D03*
G54D32*
X34000Y-35000D03*
G54D33*
X35000Y-35000D03*
X36000Y-35000D03*
X37000Y-35000D03*
X38000Y-35000D03*
X39000Y-35000D03*
X40000Y-35000D03*
X40000Y-32000D03*
X39000Y-32000D03*
X38000Y-32000D03*
X37000Y-32000D03*
X36000Y-32000D03*
X35000Y-32000D03*
X34000Y-32000D03*
G54D32*
X71000Y-23500D03*
G54D33*
X70000Y-23500D03*
X69000Y-23500D03*
X68000Y-23500D03*
X67000Y-23500D03*
X66000Y-23500D03*
X65000Y-23500D03*
X65000Y-26500D03*
X66000Y-26500D03*
X67000Y-26500D03*
X68000Y-26500D03*
X69000Y-26500D03*
X70000Y-26500D03*
X71000Y-26500D03*
G54D30*
X33500Y-14000D03*
G54D31*
X33500Y-15000D03*
X33500Y-16000D03*
X33500Y-17000D03*
X33500Y-18000D03*
X33500Y-19000D03*
X33500Y-20000D03*
X33500Y-21000D03*
X36500Y-21000D03*
X36500Y-20000D03*
X36500Y-19000D03*
X36500Y-18000D03*
X36500Y-17000D03*
X36500Y-16000D03*
X36500Y-15000D03*
X36500Y-14000D03*
G54D30*
X47000Y-29000D03*
G54D31*
X47000Y-30000D03*
X47000Y-31000D03*
X47000Y-32000D03*
X47000Y-33000D03*
X47000Y-34000D03*
X47000Y-35000D03*
X47000Y-36000D03*
X50000Y-36000D03*
X50000Y-35000D03*
X50000Y-34000D03*
X50000Y-33000D03*
X50000Y-32000D03*
X50000Y-31000D03*
X50000Y-30000D03*
X50000Y-29000D03*
G54D29*
X31500Y-36500D03*
X30500Y-36500D03*
X26500Y-36500D03*
X27500Y-36500D03*
X31500Y-35500D03*
X29500Y-35500D03*
X26500Y-35500D03*
X28500Y-35500D03*
G54D27*
X30500Y-32500D03*
X30500Y-34500D03*
X29500Y-32500D03*
X29500Y-34500D03*
X28500Y-32500D03*
X28500Y-34500D03*
X27500Y-32500D03*
X27500Y-34500D03*
X71500Y-19500D03*
X71500Y-17500D03*
X64500Y-19500D03*
X64500Y-17500D03*
X66000Y-19500D03*
X66000Y-17500D03*
X70000Y-19500D03*
X70000Y-17500D03*
G54D28*
X31000Y-16000D03*
G54D27*
X31000Y-17000D03*
X31000Y-18000D03*
X31000Y-19000D03*
X31000Y-20000D03*
X31000Y-21000D03*
X31000Y-22000D03*
X31000Y-23000D03*
X31000Y-24000D03*
X31000Y-25000D03*
G54D28*
X41000Y-18000D03*
G54D27*
X41000Y-19000D03*
X41000Y-20000D03*
G54D28*
X27500Y-31500D03*
G54D27*
X28500Y-31500D03*
X29500Y-31500D03*
X30500Y-31500D03*
G54D28*
X60000Y-23500D03*
G54D27*
X60000Y-24500D03*
X60000Y-25500D03*
X60000Y-26500D03*
G54D28*
X27500Y-29500D03*
G54D27*
X27500Y-28500D03*
X28500Y-29500D03*
X28500Y-28500D03*
X29500Y-29500D03*
X29500Y-28500D03*
X30500Y-29500D03*
X30500Y-28500D03*
G54D28*
X63000Y-22500D03*
G54D27*
X63000Y-23500D03*
X63000Y-24500D03*
X63000Y-25500D03*
X63000Y-26500D03*
X63000Y-27500D03*
G54D28*
X26500Y-37500D03*
G54D27*
X27500Y-37500D03*
X28500Y-37500D03*
X29500Y-37500D03*
X30500Y-37500D03*
X31500Y-37500D03*
G54D28*
X42000Y-36000D03*
G54D27*
X42000Y-35000D03*
X42000Y-34000D03*
X42000Y-33000D03*
X42000Y-32000D03*
X42000Y-31000D03*
G54D28*
X26500Y-30500D03*
G54D27*
X27500Y-30500D03*
X28500Y-30500D03*
X29500Y-30500D03*
X30500Y-30500D03*
X31500Y-30500D03*
G54D28*
X72000Y-57000D03*
G54D27*
X72000Y-56000D03*
X72000Y-55000D03*
X72000Y-54000D03*
X72000Y-53000D03*
X72000Y-52000D03*
G54D28*
X72000Y-63000D03*
G54D27*
X72000Y-62000D03*
X72000Y-61000D03*
X72000Y-60000D03*
X72000Y-59000D03*
X72000Y-58000D03*
G54D28*
X72000Y-69000D03*
G54D27*
X72000Y-68000D03*
X72000Y-67000D03*
X72000Y-66000D03*
X72000Y-65000D03*
X72000Y-64000D03*
G54D28*
X72000Y-75000D03*
G54D27*
X72000Y-74000D03*
X72000Y-73000D03*
X72000Y-72000D03*
X72000Y-71000D03*
X72000Y-70000D03*
G54D28*
X24000Y-46000D03*
G54D27*
X24000Y-47000D03*
X24000Y-48000D03*
X24000Y-49000D03*
X24000Y-50000D03*
X24000Y-51000D03*
G54D28*
X24000Y-40000D03*
G54D27*
X24000Y-41000D03*
X24000Y-42000D03*
X24000Y-43000D03*
X24000Y-44000D03*
X24000Y-45000D03*
G54D28*
X24000Y-34000D03*
G54D27*
X24000Y-35000D03*
X24000Y-36000D03*
X24000Y-37000D03*
X24000Y-38000D03*
X24000Y-39000D03*
G54D28*
X24000Y-28000D03*
G54D27*
X24000Y-29000D03*
X24000Y-30000D03*
X24000Y-31000D03*
X24000Y-32000D03*
X24000Y-33000D03*
G54D28*
X24000Y-70000D03*
G54D27*
X24000Y-71000D03*
X24000Y-72000D03*
X24000Y-73000D03*
X24000Y-74000D03*
X24000Y-75000D03*
G54D28*
X24000Y-64000D03*
G54D27*
X24000Y-65000D03*
X24000Y-66000D03*
X24000Y-67000D03*
X24000Y-68000D03*
X24000Y-69000D03*
G54D28*
X24000Y-58000D03*
G54D27*
X24000Y-59000D03*
X24000Y-60000D03*
X24000Y-61000D03*
X24000Y-62000D03*
X24000Y-63000D03*
G54D28*
X24000Y-52000D03*
G54D27*
X24000Y-53000D03*
X24000Y-54000D03*
X24000Y-55000D03*
X24000Y-56000D03*
X24000Y-57000D03*
G54D28*
X72000Y-33000D03*
G54D27*
X72000Y-32000D03*
X72000Y-31000D03*
X72000Y-30000D03*
X72000Y-29000D03*
X72000Y-28000D03*
G54D28*
X72000Y-39000D03*
G54D27*
X72000Y-38000D03*
X72000Y-37000D03*
X72000Y-36000D03*
X72000Y-35000D03*
X72000Y-34000D03*
G54D28*
X72000Y-45000D03*
G54D27*
X72000Y-44000D03*
X72000Y-43000D03*
X72000Y-42000D03*
X72000Y-41000D03*
X72000Y-40000D03*
G54D28*
X72000Y-51000D03*
G54D27*
X72000Y-50000D03*
X72000Y-49000D03*
X72000Y-48000D03*
X72000Y-47000D03*
X72000Y-46000D03*
X29000Y-17000D03*
X29000Y-18000D03*
X29000Y-19000D03*
X29000Y-20000D03*
X29000Y-21000D03*
X29000Y-22000D03*
X29000Y-23000D03*
X29000Y-24000D03*
X34000Y-31000D03*
X35000Y-29000D03*
X36000Y-31000D03*
X40000Y-36000D03*
X39000Y-38000D03*
X38000Y-36000D03*
X40000Y-29000D03*
X39000Y-31000D03*
X38000Y-29000D03*
X34000Y-38000D03*
X35000Y-36000D03*
X36000Y-38000D03*
G54D34*
X77500Y-73500D03*
G54D27*
X75000Y-73000D03*
X74000Y-72500D03*
X75000Y-72000D03*
X74000Y-71500D03*
X75000Y-71000D03*
X74000Y-70500D03*
X75000Y-70000D03*
X74000Y-69500D03*
X75000Y-67500D03*
X74000Y-67000D03*
X75000Y-66500D03*
X74000Y-66000D03*
X75000Y-65500D03*
X74000Y-65000D03*
X75000Y-64500D03*
X74000Y-64000D03*
X75000Y-62000D03*
X74000Y-61500D03*
X75000Y-61000D03*
X74000Y-60500D03*
X75000Y-60000D03*
X74000Y-59500D03*
X75000Y-59000D03*
X74000Y-58500D03*
X75000Y-56500D03*
X74000Y-56000D03*
X75000Y-55500D03*
X74000Y-55000D03*
X75000Y-54500D03*
X74000Y-54000D03*
X75000Y-53500D03*
X74000Y-53000D03*
G54D34*
X77500Y-52500D03*
X18500Y-29500D03*
G54D27*
X21000Y-30000D03*
X22000Y-30500D03*
X21000Y-31000D03*
X22000Y-31500D03*
X21000Y-32000D03*
X22000Y-32500D03*
X21000Y-33000D03*
X22000Y-33500D03*
X21000Y-35500D03*
X22000Y-36000D03*
X21000Y-36500D03*
X22000Y-37000D03*
X21000Y-37500D03*
X22000Y-38000D03*
X21000Y-38500D03*
X22000Y-39000D03*
X21000Y-41000D03*
X22000Y-41500D03*
X21000Y-42000D03*
X22000Y-42500D03*
X21000Y-43000D03*
X22000Y-43500D03*
X21000Y-44000D03*
X22000Y-44500D03*
X21000Y-46500D03*
X22000Y-47000D03*
X21000Y-47500D03*
X22000Y-48000D03*
X21000Y-48500D03*
X22000Y-49000D03*
X21000Y-49500D03*
X22000Y-50000D03*
G54D34*
X18500Y-50500D03*
X18500Y-52500D03*
G54D27*
X21000Y-53000D03*
X22000Y-53500D03*
X21000Y-54000D03*
X22000Y-54500D03*
X21000Y-55000D03*
X22000Y-55500D03*
X21000Y-56000D03*
X22000Y-56500D03*
X21000Y-58500D03*
X22000Y-59000D03*
X21000Y-59500D03*
X22000Y-60000D03*
X21000Y-60500D03*
X22000Y-61000D03*
X21000Y-61500D03*
X22000Y-62000D03*
X21000Y-64000D03*
X22000Y-64500D03*
X21000Y-65000D03*
X22000Y-65500D03*
X21000Y-66000D03*
X22000Y-66500D03*
X21000Y-67000D03*
X22000Y-67500D03*
X21000Y-69500D03*
X22000Y-70000D03*
X21000Y-70500D03*
X22000Y-71000D03*
X21000Y-71500D03*
X22000Y-72000D03*
X21000Y-72500D03*
X22000Y-73000D03*
G54D34*
X18500Y-73500D03*
X77500Y-50500D03*
G54D27*
X75000Y-50000D03*
X74000Y-49500D03*
X75000Y-49000D03*
X74000Y-48500D03*
X75000Y-48000D03*
X74000Y-47500D03*
X75000Y-47000D03*
X74000Y-46500D03*
X75000Y-44500D03*
X74000Y-44000D03*
X75000Y-43500D03*
X74000Y-43000D03*
X75000Y-42500D03*
X74000Y-42000D03*
X75000Y-41500D03*
X74000Y-41000D03*
X75000Y-39000D03*
X74000Y-38500D03*
X75000Y-38000D03*
X74000Y-37500D03*
X75000Y-37000D03*
X74000Y-36500D03*
X75000Y-36000D03*
X74000Y-35500D03*
X75000Y-33500D03*
X74000Y-33000D03*
X75000Y-32500D03*
X74000Y-32000D03*
X75000Y-31500D03*
X74000Y-31000D03*
X75000Y-30500D03*
X74000Y-30000D03*
G54D34*
X77500Y-29500D03*
G54D28*
X41000Y-13000D03*
G54D27*
X41000Y-14000D03*
G54D28*
X60000Y-17500D03*
G54D27*
X60000Y-18500D03*
X60000Y-19500D03*
G54D28*
X41000Y-26500D03*
G54D27*
X41000Y-25500D03*
X41000Y-24500D03*
X41000Y-23500D03*
X41000Y-22500D03*
G54D26*
X49500Y-75500D03*
M02*
