G04 #@! TF.FileFunction,Legend,Bot*
%FSLAX46Y46*%
G04 Gerber Fmt 4.6, Leading zero omitted, Abs format (unit mm)*
G04 Created by KiCad (PCBNEW 4.0.2-stable) date Friday, March 18, 2016 'pmt' 12:09:26 pm*
%MOMM*%
G01*
G04 APERTURE LIST*
%ADD10C,0.100000*%
%ADD11C,0.300000*%
%ADD12C,0.190500*%
G04 APERTURE END LIST*
D10*
D11*
X81792857Y-69285714D02*
X81864286Y-69357143D01*
X82078572Y-69428571D01*
X82221429Y-69428571D01*
X82435714Y-69357143D01*
X82578572Y-69214286D01*
X82650000Y-69071429D01*
X82721429Y-68785714D01*
X82721429Y-68571429D01*
X82650000Y-68285714D01*
X82578572Y-68142857D01*
X82435714Y-68000000D01*
X82221429Y-67928571D01*
X82078572Y-67928571D01*
X81864286Y-68000000D01*
X81792857Y-68071429D01*
X81150000Y-69428571D02*
X81150000Y-67928571D01*
X80507143Y-69428571D02*
X80507143Y-68642857D01*
X80578572Y-68500000D01*
X80721429Y-68428571D01*
X80935714Y-68428571D01*
X81078572Y-68500000D01*
X81150000Y-68571429D01*
X79792857Y-69428571D02*
X79792857Y-68428571D01*
X79792857Y-67928571D02*
X79864286Y-68000000D01*
X79792857Y-68071429D01*
X79721429Y-68000000D01*
X79792857Y-67928571D01*
X79792857Y-68071429D01*
X79078571Y-69428571D02*
X79078571Y-68428571D01*
X79078571Y-67928571D02*
X79150000Y-68000000D01*
X79078571Y-68071429D01*
X79007143Y-68000000D01*
X79078571Y-67928571D01*
X79078571Y-68071429D01*
X78364285Y-68428571D02*
X78364285Y-69428571D01*
X78364285Y-68571429D02*
X78292857Y-68500000D01*
X78149999Y-68428571D01*
X77935714Y-68428571D01*
X77792857Y-68500000D01*
X77721428Y-68642857D01*
X77721428Y-69428571D01*
X76364285Y-69428571D02*
X76364285Y-67928571D01*
X76364285Y-69357143D02*
X76507142Y-69428571D01*
X76792856Y-69428571D01*
X76935714Y-69357143D01*
X77007142Y-69285714D01*
X77078571Y-69142857D01*
X77078571Y-68714286D01*
X77007142Y-68571429D01*
X76935714Y-68500000D01*
X76792856Y-68428571D01*
X76507142Y-68428571D01*
X76364285Y-68500000D01*
X75649999Y-69428571D02*
X75649999Y-68428571D01*
X75649999Y-67928571D02*
X75721428Y-68000000D01*
X75649999Y-68071429D01*
X75578571Y-68000000D01*
X75649999Y-67928571D01*
X75649999Y-68071429D01*
X74935713Y-69428571D02*
X74935713Y-68428571D01*
X74935713Y-67928571D02*
X75007142Y-68000000D01*
X74935713Y-68071429D01*
X74864285Y-68000000D01*
X74935713Y-67928571D01*
X74935713Y-68071429D01*
X72221427Y-69428571D02*
X72721427Y-68714286D01*
X73078570Y-69428571D02*
X73078570Y-67928571D01*
X72507142Y-67928571D01*
X72364284Y-68000000D01*
X72292856Y-68071429D01*
X72221427Y-68214286D01*
X72221427Y-68428571D01*
X72292856Y-68571429D01*
X72364284Y-68642857D01*
X72507142Y-68714286D01*
X73078570Y-68714286D01*
X71007142Y-69357143D02*
X71149999Y-69428571D01*
X71435713Y-69428571D01*
X71578570Y-69357143D01*
X71649999Y-69214286D01*
X71649999Y-68642857D01*
X71578570Y-68500000D01*
X71435713Y-68428571D01*
X71149999Y-68428571D01*
X71007142Y-68500000D01*
X70935713Y-68642857D01*
X70935713Y-68785714D01*
X71649999Y-68928571D01*
X70435713Y-68428571D02*
X70078570Y-69428571D01*
X69721428Y-68428571D01*
X68078571Y-68071429D02*
X68007142Y-68000000D01*
X67864285Y-67928571D01*
X67507142Y-67928571D01*
X67364285Y-68000000D01*
X67292856Y-68071429D01*
X67221428Y-68214286D01*
X67221428Y-68357143D01*
X67292856Y-68571429D01*
X68149999Y-69428571D01*
X67221428Y-69428571D01*
X66578571Y-69285714D02*
X66507143Y-69357143D01*
X66578571Y-69428571D01*
X66650000Y-69357143D01*
X66578571Y-69285714D01*
X66578571Y-69428571D01*
X65078571Y-69428571D02*
X65935714Y-69428571D01*
X65507142Y-69428571D02*
X65507142Y-67928571D01*
X65649999Y-68142857D01*
X65792857Y-68285714D01*
X65935714Y-68357143D01*
D10*
X68627260Y-59103380D02*
G75*
G02X68236040Y-58661196I816936J1116936D01*
G01*
X67598191Y-58393770D02*
G75*
G02X68467700Y-58130262I755247J-925789D01*
G01*
X67727260Y-58803380D02*
G75*
G02X67598191Y-58393770I36706J236706D01*
G01*
X67727259Y-58803380D02*
G75*
G02X68145261Y-59277936I-608747J-957572D01*
G01*
X68997428Y-58308209D02*
G75*
G02X68236040Y-58661196I-2973030J5415147D01*
G01*
X68510034Y-56870757D02*
X68739692Y-57389870D01*
X68627260Y-59103380D02*
G75*
G02X68579335Y-59670645I-218715J-267179D01*
G01*
X70338569Y-56723119D02*
X72712058Y-59095285D01*
X71001169Y-60163575D02*
G75*
G02X70638165Y-57656481I2134292J1588852D01*
G01*
X71087843Y-59373077D02*
G75*
G02X70990590Y-58034748I898190J737967D01*
G01*
X72712058Y-59095285D02*
X72712058Y-59724994D01*
X72712058Y-59724994D02*
X72226900Y-59245922D01*
X71594635Y-58613214D02*
G75*
G02X71431828Y-59262943I-1853296J119130D01*
G01*
X71266824Y-60255659D02*
G75*
G02X71001169Y-60163575I-65121J241369D01*
G01*
X71431826Y-59262944D02*
G75*
G02X71087842Y-59373077I-215880J82013D01*
G01*
X72226901Y-59245921D02*
G75*
G02X71266825Y-60255659I-1308927J283252D01*
G01*
X71594635Y-58613215D02*
X70990590Y-58034748D01*
X70338569Y-56723119D02*
X70028918Y-57042560D01*
X70638165Y-57656481D02*
X70638165Y-57656481D01*
X70028918Y-57042560D02*
X70638165Y-57656481D01*
X70990590Y-58034748D02*
X70990590Y-58034748D01*
X68881758Y-60891943D02*
G75*
G02X68978726Y-61412258I-555043J-372633D01*
G01*
X68978725Y-61412260D02*
G75*
G02X69298010Y-61712622I73930J-241293D01*
G01*
X68467700Y-61167150D02*
G75*
G02X67765187Y-60952947I1007369J4562947D01*
G01*
X67885041Y-61599364D02*
G75*
G02X68467700Y-61167150I3219913J-3731855D01*
G01*
X68061561Y-62052035D02*
G75*
G02X67885041Y-61599364I-26827J250291D01*
G01*
X68099841Y-60659147D02*
G75*
G02X68881758Y-60891943I-159588J-1965580D01*
G01*
X68689679Y-59977158D02*
G75*
G02X68099841Y-60659148I-2890439J1903814D01*
G01*
X68579335Y-59670646D02*
G75*
G02X68689679Y-59977158I-23687J-181645D01*
G01*
X67767307Y-60953494D02*
G75*
G02X67627260Y-60603380I57129J225919D01*
G01*
X67627260Y-60603380D02*
G75*
G02X68140763Y-60024061I3849644J-2895049D01*
G01*
X68140763Y-60024061D02*
G75*
G02X67281551Y-59828638I-39014J1815024D01*
G01*
X67287982Y-59830044D02*
G75*
G02X67233490Y-59452011I40058J198718D01*
G01*
X67233490Y-59452010D02*
G75*
G02X68145261Y-59277936I725885J-1327171D01*
G01*
X68817392Y-63614545D02*
G75*
G02X69427260Y-62903380I1059692J-291670D01*
G01*
X69957864Y-63070172D02*
G75*
G02X70274783Y-63178965I76684J-292612D01*
G01*
X69027261Y-63903381D02*
G75*
G02X68817391Y-63614545I-22189J204542D01*
G01*
X70274784Y-63178965D02*
G75*
G02X70082188Y-64155881I-1203081J-270259D01*
G01*
X69834891Y-63577239D02*
G75*
G02X69027260Y-63903380I-1701316J3049958D01*
G01*
X68758435Y-62899906D02*
G75*
G02X68464693Y-62593767I-21664J273206D01*
G01*
X69298010Y-61712622D02*
G75*
G02X68916434Y-62481333I-2271983J648717D01*
G01*
X68464693Y-62593767D02*
G75*
G02X68728824Y-61922138I5655423J-1836347D01*
G01*
X69827260Y-62603381D02*
G75*
G02X69957864Y-63070172I-314259J-339593D01*
G01*
X68916434Y-62481333D02*
G75*
G02X69827260Y-62603380I247642J-1611599D01*
G01*
X69427260Y-62903380D02*
G75*
G02X68758435Y-62899905I-313340J4058114D01*
G01*
X69687527Y-64387139D02*
G75*
G02X69834890Y-63577239I2861913J-102376D01*
G01*
X69827261Y-64603380D02*
G75*
G02X69688215Y-64369439I47359J186441D01*
G01*
X70657039Y-64408383D02*
G75*
G02X69863261Y-64628262I-691031J951931D01*
G01*
X70082188Y-64155881D02*
G75*
G02X70947646Y-63951554I692550J-998350D01*
G01*
X76527260Y-60203380D02*
G75*
G02X76026407Y-60366191I-389044J345021D01*
G01*
X75643622Y-62149452D02*
G75*
G02X75727260Y-62503380I-283866J-253928D01*
G01*
X76570667Y-64364860D02*
G75*
G02X76745664Y-63950916I253183J136928D01*
G01*
X76082879Y-64292319D02*
G75*
G02X76570666Y-64364859I207928J-278113D01*
G01*
X75212131Y-62418941D02*
G75*
G02X75643622Y-62149452I403911J-166537D01*
G01*
X78277481Y-62903610D02*
G75*
G02X78887081Y-63523664I-1392254J-1978469D01*
G01*
X78599749Y-63853089D02*
G75*
G02X77927260Y-63603380I92762J1280211D01*
G01*
X78887081Y-63523665D02*
G75*
G02X78599749Y-63853088I-218370J-99553D01*
G01*
X77442219Y-63160353D02*
G75*
G02X77927260Y-63203380I226732J-199500D01*
G01*
X77611612Y-64144416D02*
G75*
G02X77442219Y-63160353I685858J624672D01*
G01*
X78059666Y-64221920D02*
G75*
G02X77797356Y-64592408I-228561J-116279D01*
G01*
X78059667Y-64221921D02*
G75*
G02X77864202Y-63591615I4387331J1706028D01*
G01*
X77927260Y-63203380D02*
G75*
G02X77832017Y-62699708I197221J298135D01*
G01*
X77827259Y-62703380D02*
G75*
G02X78793770Y-62493505I702606J-905211D01*
G01*
X79083436Y-62845534D02*
G75*
G02X78277481Y-62903610I-582354J2460291D01*
G01*
X78793770Y-62493506D02*
G75*
G02X78365845Y-61832131I1078206J1166752D01*
G01*
X79227260Y-62503381D02*
G75*
G02X79083435Y-62845535I-241003J-99999D01*
G01*
X79227260Y-62503379D02*
G75*
G02X78952344Y-61916450I4327192J2384689D01*
G01*
X79256350Y-61160889D02*
G75*
G02X79984828Y-60934529I2200008J-5794737D01*
G01*
X79627261Y-61403380D02*
G75*
G02X79256351Y-61160889I329306J908615D01*
G01*
X79627260Y-61403380D02*
G75*
G02X80027260Y-61903380I-720106J-986085D01*
G01*
X80027260Y-61903380D02*
G75*
G02X79627260Y-62003380I-359684J588738D01*
G01*
X80127261Y-60503380D02*
G75*
G02X79960480Y-60940532I-189957J-177919D01*
G01*
X78778614Y-61390752D02*
G75*
G02X78672358Y-61022936I85643J223997D01*
G01*
X78435180Y-61544337D02*
G75*
G02X78778616Y-61390752I297014J-203386D01*
G01*
X78672357Y-61022936D02*
G75*
G02X79609569Y-60656327I1047515J-1296636D01*
G01*
X78365845Y-61832130D02*
G75*
G02X78435180Y-61544337I394885J57113D01*
G01*
X79627260Y-62003380D02*
G75*
G02X78952344Y-61916450I1276724J12575875D01*
G01*
X75911388Y-64651493D02*
G75*
G02X76082880Y-64292318I490696J-13761D01*
G01*
X76144321Y-65500847D02*
G75*
G02X75853672Y-65606148I-207405J118704D01*
G01*
X75241828Y-65060405D02*
X75241828Y-65060405D01*
X76362001Y-64743733D02*
G75*
G02X76144321Y-65500848I-4001615J740667D01*
G01*
X75717372Y-65011544D02*
G75*
G02X75427260Y-64603380I574244J715342D01*
G01*
X75853672Y-65606147D02*
G75*
G02X75241828Y-65060405I291173J942287D01*
G01*
X77035730Y-65423282D02*
G75*
G02X76362002Y-64743733I676914J1344869D01*
G01*
X77322216Y-65170987D02*
G75*
G02X77035730Y-65423282I-210762J-49478D01*
G01*
X77322217Y-65170987D02*
G75*
G02X77044346Y-64411470I9528891J3916750D01*
G01*
X76745664Y-63950916D02*
G75*
G02X77611612Y-64144416I42991J-1841996D01*
G01*
X74595300Y-54681594D02*
G75*
G02X74185444Y-54474902I-123258J265292D01*
G01*
X73832480Y-53462396D02*
G75*
G02X74427260Y-54203380I-265669J-822453D01*
G01*
X74927260Y-53103380D02*
G75*
G02X75240858Y-54238066I-1510874J-1028244D01*
G01*
X73691972Y-54431317D02*
G75*
G02X74195110Y-54530545I238365J-116564D01*
G01*
X74436259Y-54162306D02*
G75*
G02X74927260Y-53103380I2715844J-615980D01*
G01*
X74823079Y-54342927D02*
G75*
G02X74595299Y-54681594I-291654J-49773D01*
G01*
X75254516Y-54726749D02*
G75*
G02X74823080Y-54342928I-113158J307193D01*
G01*
X73256131Y-54123060D02*
G75*
G02X73095254Y-53570763I1408927J709979D01*
G01*
X72927259Y-54403380D02*
G75*
G02X72862342Y-54635659I-269108J-50000D01*
G01*
X73227260Y-54703380D02*
G75*
G02X72931601Y-54441346I54856J359711D01*
G01*
X73691970Y-54431317D02*
G75*
G02X73227260Y-54703380I-456835J247402D01*
G01*
X72737657Y-53247222D02*
G75*
G02X73095254Y-53570763I-6882J-366995D01*
G01*
X73256130Y-54123059D02*
G75*
G02X73832481Y-53462395I2216099J-1351551D01*
G01*
X76584147Y-55055362D02*
G75*
G02X76297599Y-55093003I-190825J343175D01*
G01*
X77627260Y-55303380D02*
G75*
G02X76713175Y-55334322I-497816J1189081D01*
G01*
X76713176Y-55334321D02*
G75*
G02X76584147Y-55055363I196408J260165D01*
G01*
X77127260Y-54903380D02*
G75*
G02X77380759Y-54092970I1932085J-159510D01*
G01*
X78862562Y-52611408D02*
G75*
G02X79027260Y-52203380I394851J77875D01*
G01*
X77522229Y-56166132D02*
G75*
G02X77627260Y-55303380I1386270J269006D01*
G01*
X78862563Y-52611407D02*
G75*
G02X78167061Y-54729573I-2651292J-302714D01*
G01*
X79027260Y-52203380D02*
G75*
G02X79427260Y-52503380I-250000J-750000D01*
G01*
X77824249Y-56346963D02*
G75*
G02X77522229Y-56166132I-43635J269751D01*
G01*
X77127260Y-54903380D02*
G75*
G02X78167061Y-54729573I677265J-854530D01*
G01*
X79427260Y-52503380D02*
G75*
G02X80027260Y-56403380I-3396875J-2518750D01*
G01*
X76407297Y-54552740D02*
G75*
G02X76288519Y-54230040I519004J374242D01*
G01*
X77011808Y-53775104D02*
G75*
G02X77380759Y-54092970I175891J-168897D01*
G01*
X76407297Y-54552740D02*
G75*
G02X77011808Y-53775105I1838403J-805340D01*
G01*
X75827260Y-54303380D02*
G75*
G02X75254517Y-54726750I-1131155J931155D01*
G01*
X75984053Y-53677151D02*
G75*
G02X76288519Y-54230040I-369855J-563949D01*
G01*
X75240857Y-54238066D02*
G75*
G02X75984053Y-53677151I2243600J-2199890D01*
G01*
X76297598Y-55093003D02*
G75*
G02X75827260Y-54303380I224443J668579D01*
G01*
X76127261Y-59403380D02*
G75*
G02X75647169Y-59167605I-134079J333661D01*
G01*
X76289577Y-58508881D02*
X76289577Y-58508881D01*
X76907292Y-57882612D02*
G75*
G02X76527260Y-60203380I-2306901J-813739D01*
G01*
X76289578Y-58508881D02*
G75*
G02X76127260Y-59403380I-1220202J-240557D01*
G01*
X75647169Y-59167605D02*
X76289577Y-58508881D01*
X77756164Y-57082733D02*
X76907291Y-57882612D01*
X75060147Y-59095285D02*
X77433548Y-56723119D01*
X76907291Y-57882612D02*
X76907291Y-57882612D01*
X80397599Y-59427647D02*
G75*
G02X80383608Y-59832180I-86492J-199517D01*
G01*
X79513173Y-59279614D02*
G75*
G02X80397599Y-59427648I-22109J-2848088D01*
G01*
X79127260Y-58503380D02*
G75*
G02X79600838Y-58634029I-22390J-1004803D01*
G01*
X80383608Y-59832180D02*
G75*
G02X79521375Y-60020270I-1599218J5260702D01*
G01*
X80127260Y-58603380D02*
G75*
G02X79513173Y-59279613I-1925634J1131726D01*
G01*
X79123498Y-59532608D02*
G75*
G02X79600838Y-58634029I898962J98531D01*
G01*
X79248325Y-58133085D02*
G75*
G02X80027260Y-58203380I288475J-1154240D01*
G01*
X80027259Y-58203380D02*
G75*
G02X80127260Y-58603380I-123862J-243466D01*
G01*
X80027260Y-56403380D02*
G75*
G02X79327260Y-57103380I-1550059J850059D01*
G01*
X79327260Y-57103380D02*
G75*
G02X80027260Y-57403380I-50292J-1084014D01*
G01*
X80027260Y-57403380D02*
G75*
G02X79248325Y-58133085I-1474477J793358D01*
G01*
X78627260Y-57903380D02*
G75*
G02X78384147Y-57654751I105322J346159D01*
G01*
X78787597Y-56814754D02*
G75*
G02X77927260Y-56703380I-181466J1976856D01*
G01*
X77927259Y-56703380D02*
G75*
G02X77824250Y-56346962I73559J214354D01*
G01*
X79127260Y-58503380D02*
G75*
G02X78627260Y-57903380I-10000J500000D01*
G01*
X78384148Y-57654751D02*
G75*
G02X78787597Y-56814754I1134411J-27970D01*
G01*
X77433548Y-56723119D02*
X77756164Y-57082733D01*
X75527260Y-60103380D02*
G75*
G02X75310707Y-59482283I1475503J862751D01*
G01*
X75060147Y-59722436D02*
X75310707Y-59482283D01*
X76026407Y-60366191D02*
G75*
G02X75527260Y-60103380I79937J757232D01*
G01*
X75060147Y-59095285D02*
X75060147Y-59722436D01*
X79123497Y-59532608D02*
G75*
G02X79327260Y-59703380I-70278J-290803D01*
G01*
X79327260Y-59703380D02*
G75*
G02X79027260Y-59903380I-450000J350000D01*
G01*
X79609569Y-60656328D02*
G75*
G02X79027260Y-59903380I106208J683783D01*
G01*
X79521375Y-60020270D02*
G75*
G02X80127260Y-60503380I-907149J-1759172D01*
G01*
X70467245Y-65340069D02*
G75*
G02X70657039Y-64408383I1624691J154208D01*
G01*
X70827259Y-65503379D02*
G75*
G02X70467245Y-65340070I-142044J165343D01*
G01*
X71323525Y-64743522D02*
G75*
G02X70827260Y-65503380I-1293593J302863D01*
G01*
X71627260Y-65603379D02*
G75*
G02X71323525Y-64743522I1325550J951810D01*
G01*
X71134134Y-64366915D02*
G75*
G02X71527260Y-64203380I416377J-446649D01*
G01*
X70947645Y-63951555D02*
G75*
G02X71134134Y-64366915I-137307J-311193D01*
G01*
X71969686Y-65644637D02*
G75*
G02X71627260Y-65603380I-157547J134055D01*
G01*
X71527261Y-64203380D02*
G75*
G02X71916409Y-65048652I-1510817J-1207769D01*
G01*
X71916408Y-65048652D02*
G75*
G02X72616102Y-64590856I550165J-77267D01*
G01*
X72474991Y-65044794D02*
G75*
G02X71969686Y-65644636I-1635792J865232D01*
G01*
X74427260Y-63303381D02*
G75*
G02X71947588Y-63060861I-965891J2922247D01*
G01*
X72616102Y-64590856D02*
G75*
G02X75091721Y-64583095I1240515J-859100D01*
G01*
X75227260Y-62403380D02*
G75*
G02X73838389Y-62996831I-1393886J1340217D01*
G01*
X73838389Y-62996831D02*
G75*
G02X72246479Y-62779432I-473348J2470996D01*
G01*
X75091720Y-64583095D02*
G75*
G02X75427260Y-64603380I162757J-93068D01*
G01*
X71947588Y-63060860D02*
G75*
G02X72246479Y-62779432I1329554J-1112620D01*
G01*
X75727261Y-62503381D02*
G75*
G02X74427260Y-63303380I-1595400J1136275D01*
G01*
X75106087Y-65360918D02*
X75241828Y-65060405D01*
X75911387Y-64651494D02*
G75*
G02X75717372Y-65011543I-450564J10492D01*
G01*
X73927290Y-67522000D02*
X75106087Y-65360918D01*
X72474991Y-65044794D02*
X73927290Y-67522000D01*
X67913357Y-57774455D02*
G75*
G02X67811515Y-57236010I149349J307102D01*
G01*
X68467701Y-58130262D02*
G75*
G02X67913357Y-57774455I79608J733763D01*
G01*
X67811516Y-57236010D02*
G75*
G02X68739692Y-57389870I281400J-1179014D01*
G01*
X68890062Y-57831810D02*
G75*
G02X68997428Y-58308209I-285375J-314613D01*
G01*
X69327259Y-57503380D02*
G75*
G02X68890063Y-57831810I-289165J-70278D01*
G01*
X70594903Y-53860246D02*
G75*
G02X71322291Y-54551420I-213372J-952888D01*
G01*
X69990392Y-54728700D02*
G75*
G02X70658363Y-54887706I-111028J-1948969D01*
G01*
X70414928Y-54188185D02*
G75*
G02X70594903Y-53860247I310072J43185D01*
G01*
X71084568Y-55326336D02*
G75*
G02X70082452Y-55142850I-327303J1040719D01*
G01*
X71227261Y-55003380D02*
G75*
G02X71084567Y-55326335I-223507J-94248D01*
G01*
X71566612Y-54985211D02*
G75*
G02X71227260Y-55003380I-173558J63418D01*
G01*
X69676759Y-54719167D02*
G75*
G02X68981257Y-52601089I2026311J1838597D01*
G01*
X69815136Y-56291494D02*
G75*
G02X69993381Y-56045619I104650J111681D01*
G01*
X70282471Y-55789310D02*
G75*
G02X69993381Y-56045619I-203487J-61674D01*
G01*
X69990391Y-54728702D02*
G75*
G02X69676758Y-54719167I-138589J604375D01*
G01*
X67927260Y-56203380D02*
G75*
G02X68327260Y-52603380I3350000J1450000D01*
G01*
X68818450Y-52251839D02*
G75*
G02X68981257Y-52601089I-92463J-255675D01*
G01*
X70082452Y-55142849D02*
G75*
G02X70282470Y-55789310I-670889J-561750D01*
G01*
X68327260Y-52603380D02*
G75*
G02X68818450Y-52251839I802845J-602845D01*
G01*
X71322291Y-54551420D02*
G75*
G02X71710270Y-53641715I1385418J-53278D01*
G01*
X71710270Y-53641714D02*
G75*
G02X72452414Y-54248649I-232338J-1041302D01*
G01*
X72452414Y-54248649D02*
G75*
G02X72737656Y-53247221I1438089J131719D01*
G01*
X71833905Y-54184882D02*
G75*
G02X71566611Y-54985210I-1214147J-39298D01*
G01*
X72527260Y-54803379D02*
G75*
G02X71833906Y-54184881I333809J1072093D01*
G01*
X72862342Y-54635659D02*
G75*
G02X72527260Y-54803380I-293363J167513D01*
G01*
X68927260Y-56803380D02*
G75*
G02X69327260Y-57503380I-850000J-950000D01*
G01*
X69903941Y-56639577D02*
G75*
G02X68939666Y-56814627I-751541J1396503D01*
G01*
X68510034Y-56870757D02*
G75*
G02X67927260Y-56203380I1653986J2032447D01*
G01*
X69815134Y-56291494D02*
G75*
G02X69903941Y-56639577I-181575J-231696D01*
G01*
D12*
X65282142Y-57029714D02*
X65282142Y-56267714D01*
X65100714Y-56267714D01*
X64991857Y-56304000D01*
X64919285Y-56376571D01*
X64883000Y-56449143D01*
X64846714Y-56594286D01*
X64846714Y-56703143D01*
X64883000Y-56848286D01*
X64919285Y-56920857D01*
X64991857Y-56993429D01*
X65100714Y-57029714D01*
X65282142Y-57029714D01*
X64556428Y-56812000D02*
X64193571Y-56812000D01*
X64629000Y-57029714D02*
X64375000Y-56267714D01*
X64121000Y-57029714D01*
X63431571Y-56957143D02*
X63467857Y-56993429D01*
X63576714Y-57029714D01*
X63649285Y-57029714D01*
X63758142Y-56993429D01*
X63830714Y-56920857D01*
X63866999Y-56848286D01*
X63903285Y-56703143D01*
X63903285Y-56594286D01*
X63866999Y-56449143D01*
X63830714Y-56376571D01*
X63758142Y-56304000D01*
X63649285Y-56267714D01*
X63576714Y-56267714D01*
X63467857Y-56304000D01*
X63431571Y-56340286D01*
X63032427Y-59569714D02*
X63032427Y-58807714D01*
X62742142Y-58807714D01*
X62669570Y-58844000D01*
X62633285Y-58880286D01*
X62596999Y-58952857D01*
X62596999Y-59061714D01*
X62633285Y-59134286D01*
X62669570Y-59170571D01*
X62742142Y-59206857D01*
X63032427Y-59206857D01*
X61834999Y-59497143D02*
X61871285Y-59533429D01*
X61980142Y-59569714D01*
X62052713Y-59569714D01*
X62161570Y-59533429D01*
X62234142Y-59460857D01*
X62270427Y-59388286D01*
X62306713Y-59243143D01*
X62306713Y-59134286D01*
X62270427Y-58989143D01*
X62234142Y-58916571D01*
X62161570Y-58844000D01*
X62052713Y-58807714D01*
X61980142Y-58807714D01*
X61871285Y-58844000D01*
X61834999Y-58880286D01*
X61472142Y-59569714D02*
X61326999Y-59569714D01*
X61254427Y-59533429D01*
X61218142Y-59497143D01*
X61145570Y-59388286D01*
X61109285Y-59243143D01*
X61109285Y-58952857D01*
X61145570Y-58880286D01*
X61181856Y-58844000D01*
X61254427Y-58807714D01*
X61399570Y-58807714D01*
X61472142Y-58844000D01*
X61508427Y-58880286D01*
X61544713Y-58952857D01*
X61544713Y-59134286D01*
X61508427Y-59206857D01*
X61472142Y-59243143D01*
X61399570Y-59279429D01*
X61254427Y-59279429D01*
X61181856Y-59243143D01*
X61145570Y-59206857D01*
X61109285Y-59134286D01*
X60964142Y-59642286D02*
X60383571Y-59642286D01*
X60311000Y-58807714D02*
X59875571Y-58807714D01*
X60093285Y-59569714D02*
X60093285Y-58807714D01*
X59186143Y-59569714D02*
X59440143Y-59206857D01*
X59621571Y-59569714D02*
X59621571Y-58807714D01*
X59331286Y-58807714D01*
X59258714Y-58844000D01*
X59222429Y-58880286D01*
X59186143Y-58952857D01*
X59186143Y-59061714D01*
X59222429Y-59134286D01*
X59258714Y-59170571D01*
X59331286Y-59206857D01*
X59621571Y-59206857D01*
X58859571Y-59569714D02*
X58859571Y-58807714D01*
X58097572Y-58844000D02*
X58170143Y-58807714D01*
X58279000Y-58807714D01*
X58387857Y-58844000D01*
X58460429Y-58916571D01*
X58496714Y-58989143D01*
X58533000Y-59134286D01*
X58533000Y-59243143D01*
X58496714Y-59388286D01*
X58460429Y-59460857D01*
X58387857Y-59533429D01*
X58279000Y-59569714D01*
X58206429Y-59569714D01*
X58097572Y-59533429D01*
X58061286Y-59497143D01*
X58061286Y-59243143D01*
X58206429Y-59243143D01*
X62832856Y-58299714D02*
X62832856Y-57537714D01*
X62542571Y-57537714D01*
X62469999Y-57574000D01*
X62433714Y-57610286D01*
X62397428Y-57682857D01*
X62397428Y-57791714D01*
X62433714Y-57864286D01*
X62469999Y-57900571D01*
X62542571Y-57936857D01*
X62832856Y-57936857D01*
X62107142Y-58082000D02*
X61744285Y-58082000D01*
X62179714Y-58299714D02*
X61925714Y-57537714D01*
X61671714Y-58299714D01*
X61054856Y-57537714D02*
X61417713Y-57537714D01*
X61453999Y-57900571D01*
X61417713Y-57864286D01*
X61345142Y-57828000D01*
X61163713Y-57828000D01*
X61091142Y-57864286D01*
X61054856Y-57900571D01*
X61018571Y-57973143D01*
X61018571Y-58154571D01*
X61054856Y-58227143D01*
X61091142Y-58263429D01*
X61163713Y-58299714D01*
X61345142Y-58299714D01*
X61417713Y-58263429D01*
X61453999Y-58227143D01*
X60873428Y-58372286D02*
X60292857Y-58372286D01*
X59966286Y-57537714D02*
X59821143Y-57537714D01*
X59748571Y-57574000D01*
X59676000Y-57646571D01*
X59639714Y-57791714D01*
X59639714Y-58045714D01*
X59676000Y-58190857D01*
X59748571Y-58263429D01*
X59821143Y-58299714D01*
X59966286Y-58299714D01*
X60038857Y-58263429D01*
X60111428Y-58190857D01*
X60147714Y-58045714D01*
X60147714Y-57791714D01*
X60111428Y-57646571D01*
X60038857Y-57574000D01*
X59966286Y-57537714D01*
X59313142Y-57537714D02*
X59313142Y-58154571D01*
X59276857Y-58227143D01*
X59240571Y-58263429D01*
X59168000Y-58299714D01*
X59022857Y-58299714D01*
X58950285Y-58263429D01*
X58914000Y-58227143D01*
X58877714Y-58154571D01*
X58877714Y-57537714D01*
X58623714Y-57537714D02*
X58188285Y-57537714D01*
X58405999Y-58299714D02*
X58405999Y-57537714D01*
X84368429Y-42842001D02*
X84404714Y-42950858D01*
X84404714Y-43132287D01*
X84368429Y-43204858D01*
X84332143Y-43241144D01*
X84259571Y-43277429D01*
X84187000Y-43277429D01*
X84114429Y-43241144D01*
X84078143Y-43204858D01*
X84041857Y-43132287D01*
X84005571Y-42987144D01*
X83969286Y-42914572D01*
X83933000Y-42878287D01*
X83860429Y-42842001D01*
X83787857Y-42842001D01*
X83715286Y-42878287D01*
X83679000Y-42914572D01*
X83642714Y-42987144D01*
X83642714Y-43168572D01*
X83679000Y-43277429D01*
X84404714Y-43604001D02*
X83642714Y-43604001D01*
X83642714Y-43894286D01*
X83679000Y-43966858D01*
X83715286Y-44003143D01*
X83787857Y-44039429D01*
X83896714Y-44039429D01*
X83969286Y-44003143D01*
X84005571Y-43966858D01*
X84041857Y-43894286D01*
X84041857Y-43604001D01*
X84404714Y-44366001D02*
X83642714Y-44366001D01*
X83715286Y-44692572D02*
X83679000Y-44728858D01*
X83642714Y-44801429D01*
X83642714Y-44982858D01*
X83679000Y-45055429D01*
X83715286Y-45091715D01*
X83787857Y-45128000D01*
X83860429Y-45128000D01*
X83969286Y-45091715D01*
X84404714Y-44656286D01*
X84404714Y-45128000D01*
X88178429Y-45545286D02*
X88214714Y-45654143D01*
X88214714Y-45835572D01*
X88178429Y-45908143D01*
X88142143Y-45944429D01*
X88069571Y-45980714D01*
X87997000Y-45980714D01*
X87924429Y-45944429D01*
X87888143Y-45908143D01*
X87851857Y-45835572D01*
X87815571Y-45690429D01*
X87779286Y-45617857D01*
X87743000Y-45581572D01*
X87670429Y-45545286D01*
X87597857Y-45545286D01*
X87525286Y-45581572D01*
X87489000Y-45617857D01*
X87452714Y-45690429D01*
X87452714Y-45871857D01*
X87489000Y-45980714D01*
X88142143Y-46742714D02*
X88178429Y-46706428D01*
X88214714Y-46597571D01*
X88214714Y-46525000D01*
X88178429Y-46416143D01*
X88105857Y-46343571D01*
X88033286Y-46307286D01*
X87888143Y-46271000D01*
X87779286Y-46271000D01*
X87634143Y-46307286D01*
X87561571Y-46343571D01*
X87489000Y-46416143D01*
X87452714Y-46525000D01*
X87452714Y-46597571D01*
X87489000Y-46706428D01*
X87525286Y-46742714D01*
X88214714Y-47069286D02*
X87452714Y-47069286D01*
X88214714Y-47504714D02*
X87779286Y-47178143D01*
X87452714Y-47504714D02*
X87888143Y-47069286D01*
X86944714Y-45327572D02*
X86182714Y-45327572D01*
X86727000Y-45581572D01*
X86182714Y-45835572D01*
X86944714Y-45835572D01*
X86944714Y-46198429D02*
X86182714Y-46198429D01*
X86908429Y-46525000D02*
X86944714Y-46633857D01*
X86944714Y-46815286D01*
X86908429Y-46887857D01*
X86872143Y-46924143D01*
X86799571Y-46960428D01*
X86727000Y-46960428D01*
X86654429Y-46924143D01*
X86618143Y-46887857D01*
X86581857Y-46815286D01*
X86545571Y-46670143D01*
X86509286Y-46597571D01*
X86473000Y-46561286D01*
X86400429Y-46525000D01*
X86327857Y-46525000D01*
X86255286Y-46561286D01*
X86219000Y-46597571D01*
X86182714Y-46670143D01*
X86182714Y-46851571D01*
X86219000Y-46960428D01*
X86182714Y-47432142D02*
X86182714Y-47577285D01*
X86219000Y-47649857D01*
X86291571Y-47722428D01*
X86436714Y-47758714D01*
X86690714Y-47758714D01*
X86835857Y-47722428D01*
X86908429Y-47649857D01*
X86944714Y-47577285D01*
X86944714Y-47432142D01*
X86908429Y-47359571D01*
X86835857Y-47287000D01*
X86690714Y-47250714D01*
X86436714Y-47250714D01*
X86291571Y-47287000D01*
X86219000Y-47359571D01*
X86182714Y-47432142D01*
X85674714Y-45327572D02*
X84912714Y-45327572D01*
X85457000Y-45581572D01*
X84912714Y-45835572D01*
X85674714Y-45835572D01*
X84912714Y-46343571D02*
X84912714Y-46488714D01*
X84949000Y-46561286D01*
X85021571Y-46633857D01*
X85166714Y-46670143D01*
X85420714Y-46670143D01*
X85565857Y-46633857D01*
X85638429Y-46561286D01*
X85674714Y-46488714D01*
X85674714Y-46343571D01*
X85638429Y-46271000D01*
X85565857Y-46198429D01*
X85420714Y-46162143D01*
X85166714Y-46162143D01*
X85021571Y-46198429D01*
X84949000Y-46271000D01*
X84912714Y-46343571D01*
X85638429Y-46960429D02*
X85674714Y-47069286D01*
X85674714Y-47250715D01*
X85638429Y-47323286D01*
X85602143Y-47359572D01*
X85529571Y-47395857D01*
X85457000Y-47395857D01*
X85384429Y-47359572D01*
X85348143Y-47323286D01*
X85311857Y-47250715D01*
X85275571Y-47105572D01*
X85239286Y-47033000D01*
X85203000Y-46996715D01*
X85130429Y-46960429D01*
X85057857Y-46960429D01*
X84985286Y-46996715D01*
X84949000Y-47033000D01*
X84912714Y-47105572D01*
X84912714Y-47287000D01*
X84949000Y-47395857D01*
X85674714Y-47722429D02*
X84912714Y-47722429D01*
X83043999Y-67189714D02*
X83043999Y-66427714D01*
X82753714Y-66427714D01*
X82681142Y-66464000D01*
X82644857Y-66500286D01*
X82608571Y-66572857D01*
X82608571Y-66681714D01*
X82644857Y-66754286D01*
X82681142Y-66790571D01*
X82753714Y-66826857D01*
X83043999Y-66826857D01*
X82318285Y-66972000D02*
X81955428Y-66972000D01*
X82390857Y-67189714D02*
X82136857Y-66427714D01*
X81882857Y-67189714D01*
X81302285Y-66681714D02*
X81302285Y-67189714D01*
X81483714Y-66391429D02*
X81665142Y-66935714D01*
X81193428Y-66935714D01*
X83043999Y-65919714D02*
X83043999Y-65157714D01*
X82753714Y-65157714D01*
X82681142Y-65194000D01*
X82644857Y-65230286D01*
X82608571Y-65302857D01*
X82608571Y-65411714D01*
X82644857Y-65484286D01*
X82681142Y-65520571D01*
X82753714Y-65556857D01*
X83043999Y-65556857D01*
X82318285Y-65702000D02*
X81955428Y-65702000D01*
X82390857Y-65919714D02*
X82136857Y-65157714D01*
X81882857Y-65919714D01*
X81265999Y-65157714D02*
X81628856Y-65157714D01*
X81665142Y-65520571D01*
X81628856Y-65484286D01*
X81556285Y-65448000D01*
X81374856Y-65448000D01*
X81302285Y-65484286D01*
X81265999Y-65520571D01*
X81229714Y-65593143D01*
X81229714Y-65774571D01*
X81265999Y-65847143D01*
X81302285Y-65883429D01*
X81374856Y-65919714D01*
X81556285Y-65919714D01*
X81628856Y-65883429D01*
X81665142Y-65847143D01*
X83043999Y-64649714D02*
X83043999Y-63887714D01*
X82753714Y-63887714D01*
X82681142Y-63924000D01*
X82644857Y-63960286D01*
X82608571Y-64032857D01*
X82608571Y-64141714D01*
X82644857Y-64214286D01*
X82681142Y-64250571D01*
X82753714Y-64286857D01*
X83043999Y-64286857D01*
X82318285Y-64432000D02*
X81955428Y-64432000D01*
X82390857Y-64649714D02*
X82136857Y-63887714D01*
X81882857Y-64649714D01*
X81302285Y-63887714D02*
X81447428Y-63887714D01*
X81519999Y-63924000D01*
X81556285Y-63960286D01*
X81628856Y-64069143D01*
X81665142Y-64214286D01*
X81665142Y-64504571D01*
X81628856Y-64577143D01*
X81592571Y-64613429D01*
X81519999Y-64649714D01*
X81374856Y-64649714D01*
X81302285Y-64613429D01*
X81265999Y-64577143D01*
X81229714Y-64504571D01*
X81229714Y-64323143D01*
X81265999Y-64250571D01*
X81302285Y-64214286D01*
X81374856Y-64178000D01*
X81519999Y-64178000D01*
X81592571Y-64214286D01*
X81628856Y-64250571D01*
X81665142Y-64323143D01*
X83043999Y-63379714D02*
X83043999Y-62617714D01*
X82753714Y-62617714D01*
X82681142Y-62654000D01*
X82644857Y-62690286D01*
X82608571Y-62762857D01*
X82608571Y-62871714D01*
X82644857Y-62944286D01*
X82681142Y-62980571D01*
X82753714Y-63016857D01*
X83043999Y-63016857D01*
X82318285Y-63162000D02*
X81955428Y-63162000D01*
X82390857Y-63379714D02*
X82136857Y-62617714D01*
X81882857Y-63379714D01*
X81701428Y-62617714D02*
X81193428Y-62617714D01*
X81519999Y-63379714D01*
X83098428Y-62109714D02*
X83098428Y-61347714D01*
X82808143Y-61347714D01*
X82735571Y-61384000D01*
X82699286Y-61420286D01*
X82663000Y-61492857D01*
X82663000Y-61601714D01*
X82699286Y-61674286D01*
X82735571Y-61710571D01*
X82808143Y-61746857D01*
X83098428Y-61746857D01*
X81901000Y-62037143D02*
X81937286Y-62073429D01*
X82046143Y-62109714D01*
X82118714Y-62109714D01*
X82227571Y-62073429D01*
X82300143Y-62000857D01*
X82336428Y-61928286D01*
X82372714Y-61783143D01*
X82372714Y-61674286D01*
X82336428Y-61529143D01*
X82300143Y-61456571D01*
X82227571Y-61384000D01*
X82118714Y-61347714D01*
X82046143Y-61347714D01*
X81937286Y-61384000D01*
X81901000Y-61420286D01*
X81247857Y-61601714D02*
X81247857Y-62109714D01*
X81429286Y-61311429D02*
X81610714Y-61855714D01*
X81139000Y-61855714D01*
X83098428Y-60839714D02*
X83098428Y-60077714D01*
X82808143Y-60077714D01*
X82735571Y-60114000D01*
X82699286Y-60150286D01*
X82663000Y-60222857D01*
X82663000Y-60331714D01*
X82699286Y-60404286D01*
X82735571Y-60440571D01*
X82808143Y-60476857D01*
X83098428Y-60476857D01*
X81901000Y-60767143D02*
X81937286Y-60803429D01*
X82046143Y-60839714D01*
X82118714Y-60839714D01*
X82227571Y-60803429D01*
X82300143Y-60730857D01*
X82336428Y-60658286D01*
X82372714Y-60513143D01*
X82372714Y-60404286D01*
X82336428Y-60259143D01*
X82300143Y-60186571D01*
X82227571Y-60114000D01*
X82118714Y-60077714D01*
X82046143Y-60077714D01*
X81937286Y-60114000D01*
X81901000Y-60150286D01*
X81211571Y-60077714D02*
X81574428Y-60077714D01*
X81610714Y-60440571D01*
X81574428Y-60404286D01*
X81501857Y-60368000D01*
X81320428Y-60368000D01*
X81247857Y-60404286D01*
X81211571Y-60440571D01*
X81175286Y-60513143D01*
X81175286Y-60694571D01*
X81211571Y-60767143D01*
X81247857Y-60803429D01*
X81320428Y-60839714D01*
X81501857Y-60839714D01*
X81574428Y-60803429D01*
X81610714Y-60767143D01*
X83098428Y-59569714D02*
X83098428Y-58807714D01*
X82808143Y-58807714D01*
X82735571Y-58844000D01*
X82699286Y-58880286D01*
X82663000Y-58952857D01*
X82663000Y-59061714D01*
X82699286Y-59134286D01*
X82735571Y-59170571D01*
X82808143Y-59206857D01*
X83098428Y-59206857D01*
X82082428Y-59170571D02*
X81973571Y-59206857D01*
X81937286Y-59243143D01*
X81901000Y-59315714D01*
X81901000Y-59424571D01*
X81937286Y-59497143D01*
X81973571Y-59533429D01*
X82046143Y-59569714D01*
X82336428Y-59569714D01*
X82336428Y-58807714D01*
X82082428Y-58807714D01*
X82009857Y-58844000D01*
X81973571Y-58880286D01*
X81937286Y-58952857D01*
X81937286Y-59025429D01*
X81973571Y-59098000D01*
X82009857Y-59134286D01*
X82082428Y-59170571D01*
X82336428Y-59170571D01*
X81429286Y-58807714D02*
X81356714Y-58807714D01*
X81284143Y-58844000D01*
X81247857Y-58880286D01*
X81211571Y-58952857D01*
X81175286Y-59098000D01*
X81175286Y-59279429D01*
X81211571Y-59424571D01*
X81247857Y-59497143D01*
X81284143Y-59533429D01*
X81356714Y-59569714D01*
X81429286Y-59569714D01*
X81501857Y-59533429D01*
X81538143Y-59497143D01*
X81574428Y-59424571D01*
X81610714Y-59279429D01*
X81610714Y-59098000D01*
X81574428Y-58952857D01*
X81538143Y-58880286D01*
X81501857Y-58844000D01*
X81429286Y-58807714D01*
X83098428Y-58299714D02*
X83098428Y-57537714D01*
X82808143Y-57537714D01*
X82735571Y-57574000D01*
X82699286Y-57610286D01*
X82663000Y-57682857D01*
X82663000Y-57791714D01*
X82699286Y-57864286D01*
X82735571Y-57900571D01*
X82808143Y-57936857D01*
X83098428Y-57936857D01*
X82082428Y-57900571D02*
X81973571Y-57936857D01*
X81937286Y-57973143D01*
X81901000Y-58045714D01*
X81901000Y-58154571D01*
X81937286Y-58227143D01*
X81973571Y-58263429D01*
X82046143Y-58299714D01*
X82336428Y-58299714D01*
X82336428Y-57537714D01*
X82082428Y-57537714D01*
X82009857Y-57574000D01*
X81973571Y-57610286D01*
X81937286Y-57682857D01*
X81937286Y-57755429D01*
X81973571Y-57828000D01*
X82009857Y-57864286D01*
X82082428Y-57900571D01*
X82336428Y-57900571D01*
X81175286Y-58299714D02*
X81610714Y-58299714D01*
X81393000Y-58299714D02*
X81393000Y-57537714D01*
X81465571Y-57646571D01*
X81538143Y-57719143D01*
X81610714Y-57755429D01*
X62179714Y-42969001D02*
X61417714Y-42969001D01*
X61417714Y-43259286D01*
X61454000Y-43331858D01*
X61490286Y-43368143D01*
X61562857Y-43404429D01*
X61671714Y-43404429D01*
X61744286Y-43368143D01*
X61780571Y-43331858D01*
X61816857Y-43259286D01*
X61816857Y-42969001D01*
X61417714Y-43658429D02*
X62179714Y-43839858D01*
X61635429Y-43985001D01*
X62179714Y-44130143D01*
X61417714Y-44311572D01*
X62179714Y-45037286D02*
X61816857Y-44783286D01*
X62179714Y-44601858D02*
X61417714Y-44601858D01*
X61417714Y-44892143D01*
X61454000Y-44964715D01*
X61490286Y-45001000D01*
X61562857Y-45037286D01*
X61671714Y-45037286D01*
X61744286Y-45001000D01*
X61780571Y-44964715D01*
X61816857Y-44892143D01*
X61816857Y-44601858D01*
X62724000Y-45944428D02*
X62687714Y-45871857D01*
X62687714Y-45763000D01*
X62724000Y-45654143D01*
X62796571Y-45581571D01*
X62869143Y-45545286D01*
X63014286Y-45509000D01*
X63123143Y-45509000D01*
X63268286Y-45545286D01*
X63340857Y-45581571D01*
X63413429Y-45654143D01*
X63449714Y-45763000D01*
X63449714Y-45835571D01*
X63413429Y-45944428D01*
X63377143Y-45980714D01*
X63123143Y-45980714D01*
X63123143Y-45835571D01*
X63449714Y-46307286D02*
X62687714Y-46307286D01*
X63449714Y-46742714D01*
X62687714Y-46742714D01*
X63449714Y-47105572D02*
X62687714Y-47105572D01*
X62687714Y-47287000D01*
X62724000Y-47395857D01*
X62796571Y-47468429D01*
X62869143Y-47504714D01*
X63014286Y-47541000D01*
X63123143Y-47541000D01*
X63268286Y-47504714D01*
X63340857Y-47468429D01*
X63413429Y-47395857D01*
X63449714Y-47287000D01*
X63449714Y-47105572D01*
X63957714Y-45509000D02*
X64719714Y-45763000D01*
X63957714Y-46017000D01*
X64719714Y-46271001D02*
X63957714Y-46271001D01*
X63957714Y-46452429D01*
X63994000Y-46561286D01*
X64066571Y-46633858D01*
X64139143Y-46670143D01*
X64284286Y-46706429D01*
X64393143Y-46706429D01*
X64538286Y-46670143D01*
X64610857Y-46633858D01*
X64683429Y-46561286D01*
X64719714Y-46452429D01*
X64719714Y-46271001D01*
X64719714Y-47033001D02*
X63957714Y-47033001D01*
X63957714Y-47214429D01*
X63994000Y-47323286D01*
X64066571Y-47395858D01*
X64139143Y-47432143D01*
X64284286Y-47468429D01*
X64393143Y-47468429D01*
X64538286Y-47432143D01*
X64610857Y-47395858D01*
X64683429Y-47323286D01*
X64719714Y-47214429D01*
X64719714Y-47033001D01*
X79959714Y-42969001D02*
X79197714Y-42969001D01*
X79197714Y-43259286D01*
X79234000Y-43331858D01*
X79270286Y-43368143D01*
X79342857Y-43404429D01*
X79451714Y-43404429D01*
X79524286Y-43368143D01*
X79560571Y-43331858D01*
X79596857Y-43259286D01*
X79596857Y-42969001D01*
X79197714Y-43658429D02*
X79959714Y-43839858D01*
X79415429Y-43985001D01*
X79959714Y-44130143D01*
X79197714Y-44311572D01*
X79959714Y-45037286D02*
X79596857Y-44783286D01*
X79959714Y-44601858D02*
X79197714Y-44601858D01*
X79197714Y-44892143D01*
X79234000Y-44964715D01*
X79270286Y-45001000D01*
X79342857Y-45037286D01*
X79451714Y-45037286D01*
X79524286Y-45001000D01*
X79560571Y-44964715D01*
X79596857Y-44892143D01*
X79596857Y-44601858D01*
X80504000Y-45944428D02*
X80467714Y-45871857D01*
X80467714Y-45763000D01*
X80504000Y-45654143D01*
X80576571Y-45581571D01*
X80649143Y-45545286D01*
X80794286Y-45509000D01*
X80903143Y-45509000D01*
X81048286Y-45545286D01*
X81120857Y-45581571D01*
X81193429Y-45654143D01*
X81229714Y-45763000D01*
X81229714Y-45835571D01*
X81193429Y-45944428D01*
X81157143Y-45980714D01*
X80903143Y-45980714D01*
X80903143Y-45835571D01*
X81229714Y-46307286D02*
X80467714Y-46307286D01*
X81229714Y-46742714D01*
X80467714Y-46742714D01*
X81229714Y-47105572D02*
X80467714Y-47105572D01*
X80467714Y-47287000D01*
X80504000Y-47395857D01*
X80576571Y-47468429D01*
X80649143Y-47504714D01*
X80794286Y-47541000D01*
X80903143Y-47541000D01*
X81048286Y-47504714D01*
X81120857Y-47468429D01*
X81193429Y-47395857D01*
X81229714Y-47287000D01*
X81229714Y-47105572D01*
X81737714Y-45509000D02*
X82499714Y-45763000D01*
X81737714Y-46017000D01*
X82499714Y-46271001D02*
X81737714Y-46271001D01*
X81737714Y-46452429D01*
X81774000Y-46561286D01*
X81846571Y-46633858D01*
X81919143Y-46670143D01*
X82064286Y-46706429D01*
X82173143Y-46706429D01*
X82318286Y-46670143D01*
X82390857Y-46633858D01*
X82463429Y-46561286D01*
X82499714Y-46452429D01*
X82499714Y-46271001D01*
X82499714Y-47033001D02*
X81737714Y-47033001D01*
X81737714Y-47214429D01*
X81774000Y-47323286D01*
X81846571Y-47395858D01*
X81919143Y-47432143D01*
X82064286Y-47468429D01*
X82173143Y-47468429D01*
X82318286Y-47432143D01*
X82390857Y-47395858D01*
X82463429Y-47323286D01*
X82499714Y-47214429D01*
X82499714Y-47033001D01*
X65899000Y-43223000D02*
X65862714Y-43150429D01*
X65862714Y-43041572D01*
X65899000Y-42932715D01*
X65971571Y-42860143D01*
X66044143Y-42823858D01*
X66189286Y-42787572D01*
X66298143Y-42787572D01*
X66443286Y-42823858D01*
X66515857Y-42860143D01*
X66588429Y-42932715D01*
X66624714Y-43041572D01*
X66624714Y-43114143D01*
X66588429Y-43223000D01*
X66552143Y-43259286D01*
X66298143Y-43259286D01*
X66298143Y-43114143D01*
X66624714Y-43585858D02*
X65862714Y-43585858D01*
X65862714Y-43876143D01*
X65899000Y-43948715D01*
X65935286Y-43985000D01*
X66007857Y-44021286D01*
X66116714Y-44021286D01*
X66189286Y-43985000D01*
X66225571Y-43948715D01*
X66261857Y-43876143D01*
X66261857Y-43585858D01*
X66624714Y-44347858D02*
X65862714Y-44347858D01*
X65862714Y-44855857D02*
X65862714Y-45001000D01*
X65899000Y-45073572D01*
X65971571Y-45146143D01*
X66116714Y-45182429D01*
X66370714Y-45182429D01*
X66515857Y-45146143D01*
X66588429Y-45073572D01*
X66624714Y-45001000D01*
X66624714Y-44855857D01*
X66588429Y-44783286D01*
X66515857Y-44710715D01*
X66370714Y-44674429D01*
X66116714Y-44674429D01*
X65971571Y-44710715D01*
X65899000Y-44783286D01*
X65862714Y-44855857D01*
X67894714Y-45218715D02*
X67132714Y-45218715D01*
X67132714Y-45509000D01*
X67169000Y-45581572D01*
X67205286Y-45617857D01*
X67277857Y-45654143D01*
X67386714Y-45654143D01*
X67459286Y-45617857D01*
X67495571Y-45581572D01*
X67531857Y-45509000D01*
X67531857Y-45218715D01*
X67822143Y-46416143D02*
X67858429Y-46379857D01*
X67894714Y-46271000D01*
X67894714Y-46198429D01*
X67858429Y-46089572D01*
X67785857Y-46017000D01*
X67713286Y-45980715D01*
X67568143Y-45944429D01*
X67459286Y-45944429D01*
X67314143Y-45980715D01*
X67241571Y-46017000D01*
X67169000Y-46089572D01*
X67132714Y-46198429D01*
X67132714Y-46271000D01*
X67169000Y-46379857D01*
X67205286Y-46416143D01*
X67894714Y-47141857D02*
X67894714Y-46706429D01*
X67894714Y-46924143D02*
X67132714Y-46924143D01*
X67241571Y-46851572D01*
X67314143Y-46779000D01*
X67350429Y-46706429D01*
X67132714Y-47831286D02*
X67132714Y-47468429D01*
X67495571Y-47432143D01*
X67459286Y-47468429D01*
X67423000Y-47541000D01*
X67423000Y-47722429D01*
X67459286Y-47795000D01*
X67495571Y-47831286D01*
X67568143Y-47867571D01*
X67749571Y-47867571D01*
X67822143Y-47831286D01*
X67858429Y-47795000D01*
X67894714Y-47722429D01*
X67894714Y-47541000D01*
X67858429Y-47468429D01*
X67822143Y-47432143D01*
X69164714Y-45218715D02*
X68402714Y-45218715D01*
X68402714Y-45509000D01*
X68439000Y-45581572D01*
X68475286Y-45617857D01*
X68547857Y-45654143D01*
X68656714Y-45654143D01*
X68729286Y-45617857D01*
X68765571Y-45581572D01*
X68801857Y-45509000D01*
X68801857Y-45218715D01*
X69092143Y-46416143D02*
X69128429Y-46379857D01*
X69164714Y-46271000D01*
X69164714Y-46198429D01*
X69128429Y-46089572D01*
X69055857Y-46017000D01*
X68983286Y-45980715D01*
X68838143Y-45944429D01*
X68729286Y-45944429D01*
X68584143Y-45980715D01*
X68511571Y-46017000D01*
X68439000Y-46089572D01*
X68402714Y-46198429D01*
X68402714Y-46271000D01*
X68439000Y-46379857D01*
X68475286Y-46416143D01*
X69164714Y-47141857D02*
X69164714Y-46706429D01*
X69164714Y-46924143D02*
X68402714Y-46924143D01*
X68511571Y-46851572D01*
X68584143Y-46779000D01*
X68620429Y-46706429D01*
X68656714Y-47795000D02*
X69164714Y-47795000D01*
X68366429Y-47613571D02*
X68910714Y-47432143D01*
X68910714Y-47903857D01*
X74752714Y-42406572D02*
X75369571Y-42406572D01*
X75442143Y-42442857D01*
X75478429Y-42479143D01*
X75514714Y-42551714D01*
X75514714Y-42696857D01*
X75478429Y-42769429D01*
X75442143Y-42805714D01*
X75369571Y-42842000D01*
X74752714Y-42842000D01*
X75297000Y-43168572D02*
X75297000Y-43531429D01*
X75514714Y-43096000D02*
X74752714Y-43350000D01*
X75514714Y-43604000D01*
X75514714Y-44293429D02*
X75151857Y-44039429D01*
X75514714Y-43858001D02*
X74752714Y-43858001D01*
X74752714Y-44148286D01*
X74789000Y-44220858D01*
X74825286Y-44257143D01*
X74897857Y-44293429D01*
X75006714Y-44293429D01*
X75079286Y-44257143D01*
X75115571Y-44220858D01*
X75151857Y-44148286D01*
X75151857Y-43858001D01*
X74752714Y-44511143D02*
X74752714Y-44946572D01*
X75514714Y-44728858D02*
X74752714Y-44728858D01*
X75514714Y-45599714D02*
X75514714Y-45164286D01*
X75514714Y-45382000D02*
X74752714Y-45382000D01*
X74861571Y-45309429D01*
X74934143Y-45236857D01*
X74970429Y-45164286D01*
X77292714Y-45944429D02*
X77292714Y-46379858D01*
X78054714Y-46162144D02*
X77292714Y-46162144D01*
X77292714Y-46561286D02*
X78054714Y-47069286D01*
X77292714Y-47069286D02*
X78054714Y-46561286D01*
X76784714Y-46398000D02*
X76421857Y-46144000D01*
X76784714Y-45962572D02*
X76022714Y-45962572D01*
X76022714Y-46252857D01*
X76059000Y-46325429D01*
X76095286Y-46361714D01*
X76167857Y-46398000D01*
X76276714Y-46398000D01*
X76349286Y-46361714D01*
X76385571Y-46325429D01*
X76421857Y-46252857D01*
X76421857Y-45962572D01*
X76022714Y-46652000D02*
X76784714Y-47160000D01*
X76022714Y-47160000D02*
X76784714Y-46652000D01*
X71069714Y-42878287D02*
X70307714Y-42878287D01*
X70380286Y-43204858D02*
X70344000Y-43241144D01*
X70307714Y-43313715D01*
X70307714Y-43495144D01*
X70344000Y-43567715D01*
X70380286Y-43604001D01*
X70452857Y-43640286D01*
X70525429Y-43640286D01*
X70634286Y-43604001D01*
X71069714Y-43168572D01*
X71069714Y-43640286D01*
X70997143Y-44402286D02*
X71033429Y-44366000D01*
X71069714Y-44257143D01*
X71069714Y-44184572D01*
X71033429Y-44075715D01*
X70960857Y-44003143D01*
X70888286Y-43966858D01*
X70743143Y-43930572D01*
X70634286Y-43930572D01*
X70489143Y-43966858D01*
X70416571Y-44003143D01*
X70344000Y-44075715D01*
X70307714Y-44184572D01*
X70307714Y-44257143D01*
X70344000Y-44366000D01*
X70380286Y-44402286D01*
X71069714Y-45128000D02*
X71069714Y-44692572D01*
X71069714Y-44910286D02*
X70307714Y-44910286D01*
X70416571Y-44837715D01*
X70489143Y-44765143D01*
X70525429Y-44692572D01*
X72303429Y-45599715D02*
X72339714Y-45708572D01*
X72339714Y-45890001D01*
X72303429Y-45962572D01*
X72267143Y-45998858D01*
X72194571Y-46035143D01*
X72122000Y-46035143D01*
X72049429Y-45998858D01*
X72013143Y-45962572D01*
X71976857Y-45890001D01*
X71940571Y-45744858D01*
X71904286Y-45672286D01*
X71868000Y-45636001D01*
X71795429Y-45599715D01*
X71722857Y-45599715D01*
X71650286Y-45636001D01*
X71614000Y-45672286D01*
X71577714Y-45744858D01*
X71577714Y-45926286D01*
X71614000Y-46035143D01*
X72339714Y-46361715D02*
X71577714Y-46361715D01*
X71577714Y-46543143D01*
X71614000Y-46652000D01*
X71686571Y-46724572D01*
X71759143Y-46760857D01*
X71904286Y-46797143D01*
X72013143Y-46797143D01*
X72158286Y-46760857D01*
X72230857Y-46724572D01*
X72303429Y-46652000D01*
X72339714Y-46543143D01*
X72339714Y-46361715D01*
X72122000Y-47087429D02*
X72122000Y-47450286D01*
X72339714Y-47014857D02*
X71577714Y-47268857D01*
X72339714Y-47522857D01*
X73573429Y-45617858D02*
X73609714Y-45726715D01*
X73609714Y-45908144D01*
X73573429Y-45980715D01*
X73537143Y-46017001D01*
X73464571Y-46053286D01*
X73392000Y-46053286D01*
X73319429Y-46017001D01*
X73283143Y-45980715D01*
X73246857Y-45908144D01*
X73210571Y-45763001D01*
X73174286Y-45690429D01*
X73138000Y-45654144D01*
X73065429Y-45617858D01*
X72992857Y-45617858D01*
X72920286Y-45654144D01*
X72884000Y-45690429D01*
X72847714Y-45763001D01*
X72847714Y-45944429D01*
X72884000Y-46053286D01*
X73537143Y-46815286D02*
X73573429Y-46779000D01*
X73609714Y-46670143D01*
X73609714Y-46597572D01*
X73573429Y-46488715D01*
X73500857Y-46416143D01*
X73428286Y-46379858D01*
X73283143Y-46343572D01*
X73174286Y-46343572D01*
X73029143Y-46379858D01*
X72956571Y-46416143D01*
X72884000Y-46488715D01*
X72847714Y-46597572D01*
X72847714Y-46670143D01*
X72884000Y-46779000D01*
X72920286Y-46815286D01*
X73609714Y-47504715D02*
X73609714Y-47141858D01*
X72847714Y-47141858D01*
M02*
