G04 #@! TF.FileFunction,Copper,L2,Bot,Signal*
%FSLAX46Y46*%
G04 Gerber Fmt 4.6, Leading zero omitted, Abs format (unit mm)*
G04 Created by KiCad (PCBNEW 4.0.2-stable) date Friday, March 18, 2016 'pmt' 12:09:26 pm*
%MOMM*%
G01*
G04 APERTURE LIST*
%ADD10C,0.100000*%
%ADD11R,2.032000X1.016000*%
%ADD12R,1.016000X2.032000*%
%ADD13R,1.727200X2.032000*%
%ADD14O,1.727200X2.032000*%
%ADD15R,2.032000X2.032000*%
%ADD16O,2.032000X2.032000*%
%ADD17C,3.556000*%
%ADD18C,1.300000*%
%ADD19R,1.300000X1.300000*%
%ADD20C,3.048000*%
%ADD21C,0.685800*%
%ADD22C,0.177800*%
%ADD23C,3.048000*%
%ADD24C,2.032000*%
%ADD25C,0.304800*%
%ADD26C,0.254000*%
G04 APERTURE END LIST*
D10*
D11*
X64375000Y-57955000D03*
X64375000Y-59225000D03*
D12*
X85330000Y-43985000D03*
X86600000Y-43985000D03*
X87870000Y-43985000D03*
D11*
X84695000Y-57955000D03*
X84695000Y-59225000D03*
X84695000Y-60495000D03*
X84695000Y-61765000D03*
X84695000Y-63035000D03*
X84695000Y-64305000D03*
X84695000Y-65575000D03*
X84695000Y-66845000D03*
D12*
X64375000Y-43985000D03*
X63105000Y-43985000D03*
X82155000Y-43985000D03*
X80885000Y-43985000D03*
X68820000Y-43985000D03*
X67550000Y-43985000D03*
X76440000Y-43985000D03*
X77710000Y-43985000D03*
X73265000Y-43985000D03*
X71995000Y-43985000D03*
D13*
X72630000Y-37000000D03*
D14*
X75170000Y-37000000D03*
X77710000Y-37000000D03*
X80250000Y-37000000D03*
X82790000Y-37000000D03*
X85330000Y-37000000D03*
X87870000Y-37000000D03*
D15*
X74535000Y-83990000D03*
D16*
X71995000Y-83990000D03*
D13*
X68820000Y-74465000D03*
D14*
X71360000Y-74465000D03*
X73900000Y-74465000D03*
X76440000Y-74465000D03*
X78980000Y-74465000D03*
X81520000Y-74465000D03*
D17*
X51000000Y-38230000D03*
X96000000Y-38230000D03*
X96000000Y-83230000D03*
X51000000Y-83230000D03*
D10*
G36*
X80600761Y-78275000D02*
X81520000Y-77355761D01*
X82439239Y-78275000D01*
X81520000Y-79194239D01*
X80600761Y-78275000D01*
X80600761Y-78275000D01*
G37*
D18*
X84207006Y-80962006D03*
D19*
X54215000Y-60495000D03*
D18*
X50415000Y-60495000D03*
D19*
X92950000Y-61130000D03*
D18*
X96750000Y-61130000D03*
D13*
X56755000Y-52240000D03*
D20*
X53834000Y-52240000D03*
X50405000Y-52240000D03*
D13*
X56755000Y-43350000D03*
D20*
X53834000Y-43350000D03*
X50405000Y-43350000D03*
D13*
X56755000Y-69385000D03*
D20*
X53834000Y-69385000D03*
X50405000Y-69385000D03*
D13*
X56755000Y-78275000D03*
D20*
X53834000Y-78275000D03*
X50405000Y-78275000D03*
D13*
X90410000Y-78910000D03*
D20*
X93331000Y-78910000D03*
X96760000Y-78910000D03*
D13*
X90410000Y-70020000D03*
D20*
X93331000Y-70020000D03*
X96760000Y-70020000D03*
D13*
X90410000Y-52240000D03*
D20*
X93331000Y-52240000D03*
X96760000Y-52240000D03*
D13*
X90410000Y-43350000D03*
D20*
X93331000Y-43350000D03*
X96760000Y-43350000D03*
D21*
X56120000Y-81450000D03*
X56755000Y-80815000D03*
X57390000Y-81450000D03*
X58025000Y-80815000D03*
X58660000Y-80180000D03*
X58660000Y-81450000D03*
X59295000Y-80815000D03*
X59295000Y-79545000D03*
X59930000Y-80180000D03*
X59930000Y-81450000D03*
X60565000Y-80815000D03*
X60565000Y-79545000D03*
X61200000Y-80180000D03*
X61200000Y-81450000D03*
X61835000Y-80815000D03*
X61835000Y-79545000D03*
X62470000Y-80180000D03*
X62470000Y-81450000D03*
X65645000Y-80815000D03*
X65645000Y-79545000D03*
X65010000Y-80180000D03*
X65010000Y-81450000D03*
X68820000Y-52875000D03*
X66280000Y-48430000D03*
X70725000Y-42715000D03*
X77075000Y-50970000D03*
X69455000Y-47795000D03*
X64375000Y-74465000D03*
X65645000Y-74465000D03*
X65010000Y-75100000D03*
X63740000Y-75100000D03*
X64375000Y-75735000D03*
X65645000Y-75735000D03*
X66915000Y-77005000D03*
X66280000Y-77640000D03*
X66280000Y-76370000D03*
X65010000Y-76370000D03*
X67550000Y-77640000D03*
X58025000Y-75735000D03*
X62470000Y-68115000D03*
X66280000Y-42080000D03*
X80885000Y-42715000D03*
X82155000Y-52240000D03*
X81520000Y-54780000D03*
X78980000Y-40810000D03*
X81520000Y-40175000D03*
X65010000Y-53510000D03*
X63105000Y-47795000D03*
X64375000Y-47795000D03*
X82790000Y-41445000D03*
X80250000Y-41445000D03*
X69455000Y-45890000D03*
X75170000Y-39540000D03*
X69455000Y-44620000D03*
X66915000Y-43985000D03*
X73265000Y-43350000D03*
X71995000Y-43350000D03*
X75805000Y-45255000D03*
X76440000Y-42080000D03*
X83425000Y-56685000D03*
X83425000Y-54145000D03*
X78980000Y-56050000D03*
X75170000Y-42080000D03*
X84060000Y-49065000D03*
X84695000Y-49700000D03*
X85330000Y-50335000D03*
X75170000Y-50335000D03*
X73900000Y-50335000D03*
X74535000Y-53510000D03*
X73900000Y-54145000D03*
X72630000Y-50970000D03*
X72630000Y-54145000D03*
X65645000Y-57955000D03*
X71360000Y-54145000D03*
X75805000Y-50970000D03*
X73900000Y-47795000D03*
X75805000Y-46525000D03*
X78345000Y-46525000D03*
X65645000Y-59225000D03*
X71995000Y-56050000D03*
D22*
X92950000Y-61130000D02*
X92950000Y-52621000D01*
X92950000Y-52621000D02*
X93331000Y-52240000D01*
D23*
X93331000Y-70020000D02*
X93331000Y-52240000D01*
D22*
X54215000Y-60495000D02*
X54215000Y-52621000D01*
X54215000Y-52621000D02*
X53834000Y-52240000D01*
D23*
X53834000Y-52240000D02*
X53834000Y-69385000D01*
X53834000Y-69385000D02*
X53630802Y-69385000D01*
X53630802Y-69385000D02*
X53834000Y-69385000D01*
D22*
X56755000Y-80815000D02*
X56120000Y-81450000D01*
X58025000Y-80815000D02*
X57390000Y-81450000D01*
X58660000Y-81450000D02*
X58660000Y-80180000D01*
X59295000Y-79545000D02*
X59295000Y-80815000D01*
X59930000Y-81450000D02*
X59930000Y-80180000D01*
X60565000Y-79545000D02*
X60565000Y-80815000D01*
X61200000Y-81450000D02*
X61200000Y-80180000D01*
X61835000Y-79545000D02*
X61835000Y-80815000D01*
X62470000Y-81450000D02*
X62470000Y-80180000D01*
X65645000Y-79545000D02*
X65645000Y-80815000D01*
X65010000Y-81450000D02*
X65010000Y-80180000D01*
D23*
X93331000Y-52240000D02*
X93331000Y-43350000D01*
X93331000Y-78910000D02*
X93331000Y-70020000D01*
X53834000Y-69385000D02*
X53834000Y-78275000D01*
X53834000Y-43350000D02*
X53834000Y-52240000D01*
D22*
X65645000Y-74465000D02*
X64375000Y-74465000D01*
X63740000Y-75100000D02*
X65010000Y-75100000D01*
X65645000Y-75735000D02*
X64375000Y-75735000D01*
X66280000Y-77640000D02*
X66915000Y-77005000D01*
X65010000Y-76370000D02*
X66280000Y-76370000D01*
D23*
X51000000Y-83230000D02*
X52185000Y-83230000D01*
X52185000Y-83230000D02*
X52945000Y-83990000D01*
X77710000Y-83990000D02*
X95240000Y-83990000D01*
X74535000Y-80815000D02*
X77710000Y-83990000D01*
X70090000Y-80815000D02*
X74535000Y-80815000D01*
X66915000Y-83990000D02*
X70090000Y-80815000D01*
X52945000Y-83990000D02*
X66915000Y-83990000D01*
X95240000Y-83990000D02*
X96760000Y-82470000D01*
X96760000Y-82470000D02*
X96760000Y-78910000D01*
X50405000Y-78275000D02*
X50405000Y-82635000D01*
X50405000Y-82635000D02*
X51000000Y-83230000D01*
X50405000Y-69385000D02*
X50405000Y-78275000D01*
X50405000Y-52240000D02*
X50405000Y-69385000D01*
X50405000Y-43350000D02*
X50405000Y-52036802D01*
X50405000Y-52036802D02*
X50608198Y-52240000D01*
X50608198Y-52240000D02*
X50405000Y-52240000D01*
X96760000Y-70020000D02*
X96760000Y-78910000D01*
X96760000Y-52240000D02*
X96760000Y-70020000D01*
X96760000Y-43350000D02*
X96760000Y-52240000D01*
D22*
X80885000Y-43985000D02*
X80885000Y-42715000D01*
D24*
X51040000Y-38270000D02*
X51000000Y-38230000D01*
X96125000Y-38355000D02*
X96000000Y-38230000D01*
X51040000Y-83190000D02*
X51000000Y-83230000D01*
X96125000Y-83105000D02*
X96000000Y-83230000D01*
D22*
X64375000Y-47795000D02*
X64375000Y-43985000D01*
X82155000Y-43985000D02*
X82155000Y-42080000D01*
X82155000Y-42080000D02*
X82790000Y-41445000D01*
D25*
X80250000Y-41445000D02*
X82790000Y-41445000D01*
D22*
X70090000Y-40810000D02*
X71995000Y-38905000D01*
X71995000Y-38905000D02*
X82155000Y-38905000D01*
X69455000Y-45890000D02*
X70090000Y-45255000D01*
X70090000Y-45255000D02*
X70090000Y-40810000D01*
X82155000Y-38905000D02*
X82790000Y-38270000D01*
X82790000Y-38270000D02*
X82790000Y-37000000D01*
X84695000Y-39540000D02*
X85330000Y-38905000D01*
X85330000Y-38905000D02*
X85330000Y-37000000D01*
X75170000Y-39540000D02*
X84695000Y-39540000D01*
X69455000Y-44620000D02*
X68820000Y-43985000D01*
X66915000Y-43985000D02*
X67550000Y-43985000D01*
X73265000Y-43350000D02*
X73265000Y-43985000D01*
X71995000Y-43350000D02*
X71995000Y-43985000D01*
X76440000Y-43985000D02*
X76440000Y-44620000D01*
X76440000Y-44620000D02*
X75805000Y-45255000D01*
X76440000Y-42080000D02*
X77075000Y-42080000D01*
X77710000Y-42715000D02*
X77710000Y-43985000D01*
X77075000Y-42080000D02*
X77710000Y-42715000D01*
X83425000Y-56685000D02*
X83425000Y-54145000D01*
X76440000Y-51605000D02*
X77075000Y-52240000D01*
X77075000Y-52240000D02*
X77075000Y-54145000D01*
X77075000Y-54145000D02*
X78980000Y-56050000D01*
X74535000Y-47160000D02*
X76440000Y-49065000D01*
X76440000Y-49065000D02*
X76440000Y-51605000D01*
X74535000Y-42715000D02*
X75170000Y-42080000D01*
X74535000Y-47160000D02*
X74535000Y-42715000D01*
X85330000Y-47795000D02*
X85330000Y-43985000D01*
X84060000Y-49065000D02*
X85330000Y-47795000D01*
X86600000Y-47795000D02*
X86600000Y-43985000D01*
X84695000Y-49700000D02*
X86600000Y-47795000D01*
X87870000Y-47795000D02*
X87870000Y-43985000D01*
X85330000Y-50335000D02*
X87870000Y-47795000D01*
X80250000Y-59225000D02*
X75805000Y-54780000D01*
X84695000Y-59225000D02*
X80250000Y-59225000D01*
X75805000Y-52875000D02*
X75170000Y-52240000D01*
X75170000Y-52240000D02*
X75170000Y-50335000D01*
X75805000Y-54780000D02*
X75805000Y-52875000D01*
X75170000Y-54780000D02*
X75170000Y-52875000D01*
X80885000Y-60495000D02*
X75170000Y-54780000D01*
X84695000Y-60495000D02*
X80885000Y-60495000D01*
X73900000Y-51605000D02*
X73900000Y-50335000D01*
X75170000Y-52875000D02*
X73900000Y-51605000D01*
X84695000Y-60495000D02*
X84060000Y-60495000D01*
X84695000Y-61765000D02*
X81520000Y-61765000D01*
X74535000Y-54780000D02*
X74535000Y-53510000D01*
X81520000Y-61765000D02*
X74535000Y-54780000D01*
X82155000Y-63035000D02*
X84695000Y-63035000D01*
X73900000Y-54780000D02*
X82155000Y-63035000D01*
X73900000Y-54145000D02*
X73900000Y-54780000D01*
X84695000Y-64305000D02*
X82790000Y-64305000D01*
X72630000Y-52875000D02*
X72630000Y-50970000D01*
X73265000Y-53510000D02*
X72630000Y-52875000D01*
X73265000Y-54780000D02*
X73265000Y-53510000D01*
X82790000Y-64305000D02*
X73265000Y-54780000D01*
X83425000Y-65575000D02*
X84695000Y-65575000D01*
X72630000Y-54780000D02*
X83425000Y-65575000D01*
X72630000Y-54145000D02*
X72630000Y-54780000D01*
X65645000Y-57955000D02*
X64375000Y-57955000D01*
X84695000Y-66845000D02*
X83425000Y-66845000D01*
X82790000Y-65575000D02*
X71360000Y-54145000D01*
X82790000Y-66210000D02*
X82790000Y-65575000D01*
X83425000Y-66845000D02*
X82790000Y-66210000D01*
X79615000Y-57955000D02*
X84695000Y-57955000D01*
X76440000Y-54780000D02*
X79615000Y-57955000D01*
X76440000Y-52875000D02*
X76440000Y-54780000D01*
X75805000Y-52240000D02*
X76440000Y-52875000D01*
X75805000Y-50970000D02*
X75805000Y-52240000D01*
X71995000Y-50335000D02*
X71995000Y-49700000D01*
X71995000Y-49700000D02*
X73900000Y-47795000D01*
X78345000Y-46525000D02*
X75805000Y-46525000D01*
X65645000Y-59225000D02*
X64375000Y-59225000D01*
X70725000Y-54780000D02*
X71995000Y-56050000D01*
X70725000Y-53510000D02*
X70725000Y-54780000D01*
X71995000Y-52240000D02*
X70725000Y-53510000D01*
X71995000Y-50335000D02*
X71995000Y-52240000D01*
D26*
G36*
X71377936Y-38016000D02*
X71404503Y-38157190D01*
X71487946Y-38286865D01*
X71615266Y-38373859D01*
X71766400Y-38404464D01*
X73493600Y-38404464D01*
X73634790Y-38377897D01*
X73764465Y-38294454D01*
X73851459Y-38167134D01*
X73882064Y-38016000D01*
X73882064Y-36161000D01*
X74142379Y-36161000D01*
X74020140Y-36343943D01*
X73925400Y-36820231D01*
X73925400Y-37179769D01*
X74020140Y-37656057D01*
X74289935Y-38059834D01*
X74693712Y-38329629D01*
X75170000Y-38424369D01*
X75646288Y-38329629D01*
X76050065Y-38059834D01*
X76319860Y-37656057D01*
X76414600Y-37179769D01*
X76414600Y-36820231D01*
X76319860Y-36343943D01*
X76197621Y-36161000D01*
X79222379Y-36161000D01*
X79100140Y-36343943D01*
X79005400Y-36820231D01*
X79005400Y-37179769D01*
X79100140Y-37656057D01*
X79369935Y-38059834D01*
X79773712Y-38329629D01*
X80250000Y-38424369D01*
X80726288Y-38329629D01*
X81130065Y-38059834D01*
X81399860Y-37656057D01*
X81494600Y-37179769D01*
X81494600Y-36820231D01*
X81399860Y-36343943D01*
X81277621Y-36161000D01*
X81762379Y-36161000D01*
X81640140Y-36343943D01*
X81545400Y-36820231D01*
X81545400Y-37179769D01*
X81640140Y-37656057D01*
X81909935Y-38059834D01*
X82165119Y-38230342D01*
X81960362Y-38435100D01*
X71995000Y-38435100D01*
X71822306Y-38469451D01*
X71815177Y-38470869D01*
X71662731Y-38572730D01*
X69757731Y-40477731D01*
X69655869Y-40630177D01*
X69620100Y-40810000D01*
X69620100Y-42719342D01*
X69606454Y-42698135D01*
X69479134Y-42611141D01*
X69328000Y-42580536D01*
X68312000Y-42580536D01*
X68180339Y-42605310D01*
X68058000Y-42580536D01*
X67042000Y-42580536D01*
X66900810Y-42607103D01*
X66771135Y-42690546D01*
X66684141Y-42817866D01*
X66653536Y-42969000D01*
X66653536Y-43309774D01*
X66505479Y-43370950D01*
X66301665Y-43574408D01*
X66191226Y-43840376D01*
X66190975Y-44128361D01*
X66300950Y-44394521D01*
X66504408Y-44598335D01*
X66653536Y-44660258D01*
X66653536Y-45001000D01*
X66680103Y-45142190D01*
X66763546Y-45271865D01*
X66890866Y-45358859D01*
X67042000Y-45389464D01*
X68058000Y-45389464D01*
X68189661Y-45364690D01*
X68312000Y-45389464D01*
X68931766Y-45389464D01*
X68841665Y-45479408D01*
X68731226Y-45745376D01*
X68730975Y-46033361D01*
X68840950Y-46299521D01*
X69044408Y-46503335D01*
X69310376Y-46613774D01*
X69598361Y-46614025D01*
X69864521Y-46504050D01*
X70068335Y-46300592D01*
X70178774Y-46034624D01*
X70178952Y-45830587D01*
X70422270Y-45587269D01*
X70524131Y-45434823D01*
X70559900Y-45255000D01*
X70559900Y-41004638D01*
X72189639Y-39374900D01*
X74454728Y-39374900D01*
X74446226Y-39395376D01*
X74445975Y-39683361D01*
X74555950Y-39949521D01*
X74759408Y-40153335D01*
X75025376Y-40263774D01*
X75313361Y-40264025D01*
X75579521Y-40154050D01*
X75723923Y-40009900D01*
X84695000Y-40009900D01*
X84874823Y-39974131D01*
X85027269Y-39872269D01*
X85662270Y-39237269D01*
X85764131Y-39084823D01*
X85799900Y-38905000D01*
X85799900Y-38330900D01*
X85806288Y-38329629D01*
X86210065Y-38059834D01*
X86479860Y-37656057D01*
X86574600Y-37179769D01*
X86574600Y-36820231D01*
X86479860Y-36343943D01*
X86357621Y-36161000D01*
X86842379Y-36161000D01*
X86720140Y-36343943D01*
X86625400Y-36820231D01*
X86625400Y-37179769D01*
X86720140Y-37656057D01*
X86989935Y-38059834D01*
X87393712Y-38329629D01*
X87870000Y-38424369D01*
X88346288Y-38329629D01*
X88750065Y-38059834D01*
X89019860Y-37656057D01*
X89114600Y-37179769D01*
X89114600Y-36820231D01*
X89019860Y-36343943D01*
X88897621Y-36161000D01*
X95957552Y-36161000D01*
X96788541Y-36326294D01*
X97457033Y-36772966D01*
X97903707Y-37441461D01*
X98069000Y-38272448D01*
X98069000Y-83187552D01*
X97903707Y-84018539D01*
X97457033Y-84687034D01*
X96788541Y-85133706D01*
X95957552Y-85299000D01*
X72543122Y-85299000D01*
X72982828Y-85005197D01*
X73285660Y-84551978D01*
X73392000Y-84017369D01*
X73392000Y-83962631D01*
X73285660Y-83428022D01*
X72982828Y-82974803D01*
X72529609Y-82671971D01*
X71995000Y-82565631D01*
X71460391Y-82671971D01*
X71007172Y-82974803D01*
X70704340Y-83428022D01*
X70598000Y-83962631D01*
X70598000Y-84017369D01*
X70704340Y-84551978D01*
X71007172Y-85005197D01*
X71446878Y-85299000D01*
X51042448Y-85299000D01*
X50211461Y-85133707D01*
X49542966Y-84687033D01*
X49096294Y-84018541D01*
X48931000Y-83187552D01*
X48931000Y-69385000D01*
X51725802Y-69385000D01*
X51870811Y-70114012D01*
X51929000Y-70201098D01*
X51929000Y-78274482D01*
X51928670Y-78652265D01*
X52183000Y-79267791D01*
X52183000Y-80815000D01*
X52193006Y-80864410D01*
X52220197Y-80904803D01*
X53490197Y-82174803D01*
X53532211Y-82202666D01*
X53580000Y-82212000D01*
X66280000Y-82212000D01*
X66329410Y-82201994D01*
X66371035Y-82173553D01*
X66398315Y-82131159D01*
X66407000Y-82085000D01*
X66407000Y-78269633D01*
X80212334Y-78269633D01*
X80240849Y-78421176D01*
X80326075Y-78549686D01*
X81245314Y-79468925D01*
X81363936Y-79549975D01*
X81514633Y-79582666D01*
X81666176Y-79554151D01*
X81794686Y-79468925D01*
X82713925Y-78549686D01*
X82794975Y-78431064D01*
X82827666Y-78280367D01*
X82799151Y-78128824D01*
X82713925Y-78000314D01*
X81794686Y-77081075D01*
X81676064Y-77000025D01*
X81525367Y-76967334D01*
X81373824Y-76995849D01*
X81245314Y-77081075D01*
X80326075Y-78000314D01*
X80245025Y-78118936D01*
X80212334Y-78269633D01*
X66407000Y-78269633D01*
X66407000Y-77005000D01*
X66396994Y-76955590D01*
X66368553Y-76913965D01*
X66326159Y-76886685D01*
X66280000Y-76878000D01*
X57655459Y-76878000D01*
X57618600Y-76870536D01*
X55891400Y-76870536D01*
X55851733Y-76878000D01*
X55739000Y-76878000D01*
X55739000Y-74285231D01*
X70115400Y-74285231D01*
X70115400Y-74644769D01*
X70210140Y-75121057D01*
X70479935Y-75524834D01*
X70883712Y-75794629D01*
X71360000Y-75889369D01*
X71836288Y-75794629D01*
X72240065Y-75524834D01*
X72509860Y-75121057D01*
X72604600Y-74644769D01*
X72604600Y-74285231D01*
X72655400Y-74285231D01*
X72655400Y-74644769D01*
X72750140Y-75121057D01*
X73019935Y-75524834D01*
X73423712Y-75794629D01*
X73900000Y-75889369D01*
X74376288Y-75794629D01*
X74780065Y-75524834D01*
X75049860Y-75121057D01*
X75144600Y-74644769D01*
X75144600Y-74285231D01*
X75195400Y-74285231D01*
X75195400Y-74644769D01*
X75290140Y-75121057D01*
X75559935Y-75524834D01*
X75963712Y-75794629D01*
X76440000Y-75889369D01*
X76916288Y-75794629D01*
X77320065Y-75524834D01*
X77589860Y-75121057D01*
X77684600Y-74644769D01*
X77684600Y-74285231D01*
X77735400Y-74285231D01*
X77735400Y-74644769D01*
X77830140Y-75121057D01*
X78099935Y-75524834D01*
X78503712Y-75794629D01*
X78980000Y-75889369D01*
X79456288Y-75794629D01*
X79860065Y-75524834D01*
X80129860Y-75121057D01*
X80224600Y-74644769D01*
X80224600Y-74285231D01*
X80275400Y-74285231D01*
X80275400Y-74644769D01*
X80370140Y-75121057D01*
X80639935Y-75524834D01*
X81043712Y-75794629D01*
X81520000Y-75889369D01*
X81996288Y-75794629D01*
X82400065Y-75524834D01*
X82669860Y-75121057D01*
X82764600Y-74644769D01*
X82764600Y-74285231D01*
X82669860Y-73808943D01*
X82400065Y-73405166D01*
X81996288Y-73135371D01*
X81520000Y-73040631D01*
X81043712Y-73135371D01*
X80639935Y-73405166D01*
X80370140Y-73808943D01*
X80275400Y-74285231D01*
X80224600Y-74285231D01*
X80129860Y-73808943D01*
X79860065Y-73405166D01*
X79456288Y-73135371D01*
X78980000Y-73040631D01*
X78503712Y-73135371D01*
X78099935Y-73405166D01*
X77830140Y-73808943D01*
X77735400Y-74285231D01*
X77684600Y-74285231D01*
X77589860Y-73808943D01*
X77320065Y-73405166D01*
X76916288Y-73135371D01*
X76440000Y-73040631D01*
X75963712Y-73135371D01*
X75559935Y-73405166D01*
X75290140Y-73808943D01*
X75195400Y-74285231D01*
X75144600Y-74285231D01*
X75049860Y-73808943D01*
X74780065Y-73405166D01*
X74376288Y-73135371D01*
X73900000Y-73040631D01*
X73423712Y-73135371D01*
X73019935Y-73405166D01*
X72750140Y-73808943D01*
X72655400Y-74285231D01*
X72604600Y-74285231D01*
X72509860Y-73808943D01*
X72240065Y-73405166D01*
X71836288Y-73135371D01*
X71360000Y-73040631D01*
X70883712Y-73135371D01*
X70479935Y-73405166D01*
X70210140Y-73808943D01*
X70115400Y-74285231D01*
X55739000Y-74285231D01*
X55739000Y-70757994D01*
X55740266Y-70758859D01*
X55891400Y-70789464D01*
X57618600Y-70789464D01*
X57759790Y-70762897D01*
X57889465Y-70679454D01*
X57976459Y-70552134D01*
X58007064Y-70401000D01*
X58007064Y-68369000D01*
X57980497Y-68227810D01*
X57897054Y-68098135D01*
X57769734Y-68011141D01*
X57618600Y-67980536D01*
X55891400Y-67980536D01*
X55750210Y-68007103D01*
X55739000Y-68014316D01*
X55739000Y-57447000D01*
X62970536Y-57447000D01*
X62970536Y-58463000D01*
X62995310Y-58594661D01*
X62970536Y-58717000D01*
X62970536Y-59733000D01*
X62997103Y-59874190D01*
X63080546Y-60003865D01*
X63207866Y-60090859D01*
X63359000Y-60121464D01*
X65391000Y-60121464D01*
X65532190Y-60094897D01*
X65661865Y-60011454D01*
X65704571Y-59948952D01*
X65788361Y-59949025D01*
X66054521Y-59839050D01*
X66258335Y-59635592D01*
X66368774Y-59369624D01*
X66369025Y-59081639D01*
X66259050Y-58815479D01*
X66055592Y-58611665D01*
X66003617Y-58590083D01*
X66054521Y-58569050D01*
X66258335Y-58365592D01*
X66368774Y-58099624D01*
X66369025Y-57811639D01*
X66259050Y-57545479D01*
X66055592Y-57341665D01*
X65789624Y-57231226D01*
X65704856Y-57231152D01*
X65669454Y-57176135D01*
X65542134Y-57089141D01*
X65391000Y-57058536D01*
X63359000Y-57058536D01*
X63217810Y-57085103D01*
X63088135Y-57168546D01*
X63001141Y-57295866D01*
X62970536Y-57447000D01*
X55739000Y-57447000D01*
X55739000Y-53612994D01*
X55740266Y-53613859D01*
X55891400Y-53644464D01*
X57618600Y-53644464D01*
X57759790Y-53617897D01*
X57889465Y-53534454D01*
X57906173Y-53510000D01*
X70255100Y-53510000D01*
X70255100Y-54780000D01*
X70290869Y-54959823D01*
X70392731Y-55112269D01*
X71271152Y-55990690D01*
X71270975Y-56193361D01*
X71380950Y-56459521D01*
X71584408Y-56663335D01*
X71850376Y-56773774D01*
X72138361Y-56774025D01*
X72404521Y-56664050D01*
X72608335Y-56460592D01*
X72718774Y-56194624D01*
X72718797Y-56168335D01*
X82320100Y-65769638D01*
X82320100Y-66210000D01*
X82322923Y-66224190D01*
X82355869Y-66389823D01*
X82457731Y-66542269D01*
X83092731Y-67177270D01*
X83245177Y-67279131D01*
X83290536Y-67288153D01*
X83290536Y-67353000D01*
X83317103Y-67494190D01*
X83400546Y-67623865D01*
X83527866Y-67710859D01*
X83679000Y-67741464D01*
X85711000Y-67741464D01*
X85852190Y-67714897D01*
X85981865Y-67631454D01*
X86068859Y-67504134D01*
X86099464Y-67353000D01*
X86099464Y-66337000D01*
X86074690Y-66205339D01*
X86099464Y-66083000D01*
X86099464Y-65067000D01*
X86074690Y-64935339D01*
X86099464Y-64813000D01*
X86099464Y-63797000D01*
X86074690Y-63665339D01*
X86099464Y-63543000D01*
X86099464Y-62527000D01*
X86074690Y-62395339D01*
X86099464Y-62273000D01*
X86099464Y-61257000D01*
X86074690Y-61125339D01*
X86099464Y-61003000D01*
X86099464Y-59987000D01*
X86074690Y-59855339D01*
X86099464Y-59733000D01*
X86099464Y-58717000D01*
X86074690Y-58585339D01*
X86099464Y-58463000D01*
X86099464Y-57447000D01*
X86072897Y-57305810D01*
X85989454Y-57176135D01*
X85862134Y-57089141D01*
X85711000Y-57058536D01*
X84053722Y-57058536D01*
X84148774Y-56829624D01*
X84149025Y-56541639D01*
X84039050Y-56275479D01*
X83894900Y-56131077D01*
X83894900Y-54698776D01*
X84038335Y-54555592D01*
X84148774Y-54289624D01*
X84149025Y-54001639D01*
X84039050Y-53735479D01*
X83835592Y-53531665D01*
X83569624Y-53421226D01*
X83281639Y-53420975D01*
X83015479Y-53530950D01*
X82811665Y-53734408D01*
X82701226Y-54000376D01*
X82700975Y-54288361D01*
X82810950Y-54554521D01*
X82955100Y-54698923D01*
X82955100Y-56131224D01*
X82811665Y-56274408D01*
X82701226Y-56540376D01*
X82700975Y-56828361D01*
X82810950Y-57094521D01*
X83014408Y-57298335D01*
X83280376Y-57408774D01*
X83298274Y-57408790D01*
X83290536Y-57447000D01*
X83290536Y-57485100D01*
X79809639Y-57485100D01*
X79098542Y-56774003D01*
X79123361Y-56774025D01*
X79389521Y-56664050D01*
X79593335Y-56460592D01*
X79703774Y-56194624D01*
X79704025Y-55906639D01*
X79594050Y-55640479D01*
X79390592Y-55436665D01*
X79124624Y-55326226D01*
X78920587Y-55326048D01*
X77544900Y-53950362D01*
X77544900Y-52240000D01*
X77509131Y-52060177D01*
X77407270Y-51907731D01*
X76909900Y-51410362D01*
X76909900Y-49208361D01*
X83335975Y-49208361D01*
X83445950Y-49474521D01*
X83649408Y-49678335D01*
X83915376Y-49788774D01*
X83971023Y-49788823D01*
X83970975Y-49843361D01*
X84080950Y-50109521D01*
X84284408Y-50313335D01*
X84550376Y-50423774D01*
X84606023Y-50423823D01*
X84605975Y-50478361D01*
X84715950Y-50744521D01*
X84919408Y-50948335D01*
X85185376Y-51058774D01*
X85473361Y-51059025D01*
X85739521Y-50949050D01*
X85943335Y-50745592D01*
X86053774Y-50479624D01*
X86053952Y-50275586D01*
X88202269Y-48127270D01*
X88304131Y-47974823D01*
X88339900Y-47795000D01*
X88339900Y-45389464D01*
X88378000Y-45389464D01*
X88519190Y-45362897D01*
X88648865Y-45279454D01*
X88735859Y-45152134D01*
X88766464Y-45001000D01*
X88766464Y-42969000D01*
X88739897Y-42827810D01*
X88656454Y-42698135D01*
X88529134Y-42611141D01*
X88378000Y-42580536D01*
X87362000Y-42580536D01*
X87230339Y-42605310D01*
X87108000Y-42580536D01*
X86092000Y-42580536D01*
X85960339Y-42605310D01*
X85838000Y-42580536D01*
X84822000Y-42580536D01*
X84680810Y-42607103D01*
X84551135Y-42690546D01*
X84464141Y-42817866D01*
X84433536Y-42969000D01*
X84433536Y-45001000D01*
X84460103Y-45142190D01*
X84543546Y-45271865D01*
X84670866Y-45358859D01*
X84822000Y-45389464D01*
X84860100Y-45389464D01*
X84860100Y-47600361D01*
X84119310Y-48341152D01*
X83916639Y-48340975D01*
X83650479Y-48450950D01*
X83446665Y-48654408D01*
X83336226Y-48920376D01*
X83335975Y-49208361D01*
X76909900Y-49208361D01*
X76909900Y-49065000D01*
X76874131Y-48885177D01*
X76772270Y-48732731D01*
X75004900Y-46965362D01*
X75004900Y-42909638D01*
X75110690Y-42803848D01*
X75313361Y-42804025D01*
X75579521Y-42694050D01*
X75783335Y-42490592D01*
X75804917Y-42438617D01*
X75825950Y-42489521D01*
X75919209Y-42582943D01*
X75790810Y-42607103D01*
X75661135Y-42690546D01*
X75574141Y-42817866D01*
X75543536Y-42969000D01*
X75543536Y-44579774D01*
X75395479Y-44640950D01*
X75191665Y-44844408D01*
X75081226Y-45110376D01*
X75080975Y-45398361D01*
X75190950Y-45664521D01*
X75394408Y-45868335D01*
X75446383Y-45889917D01*
X75395479Y-45910950D01*
X75191665Y-46114408D01*
X75081226Y-46380376D01*
X75080975Y-46668361D01*
X75190950Y-46934521D01*
X75394408Y-47138335D01*
X75660376Y-47248774D01*
X75948361Y-47249025D01*
X76214521Y-47139050D01*
X76358923Y-46994900D01*
X77791224Y-46994900D01*
X77934408Y-47138335D01*
X78200376Y-47248774D01*
X78488361Y-47249025D01*
X78754521Y-47139050D01*
X78958335Y-46935592D01*
X79068774Y-46669624D01*
X79069025Y-46381639D01*
X78959050Y-46115479D01*
X78755592Y-45911665D01*
X78489624Y-45801226D01*
X78201639Y-45800975D01*
X77935479Y-45910950D01*
X77791077Y-46055100D01*
X76358776Y-46055100D01*
X76215592Y-45911665D01*
X76163617Y-45890083D01*
X76214521Y-45869050D01*
X76418335Y-45665592D01*
X76528774Y-45399624D01*
X76528783Y-45389464D01*
X76948000Y-45389464D01*
X77079661Y-45364690D01*
X77202000Y-45389464D01*
X78218000Y-45389464D01*
X78359190Y-45362897D01*
X78488865Y-45279454D01*
X78575859Y-45152134D01*
X78606464Y-45001000D01*
X78606464Y-42969000D01*
X78579897Y-42827810D01*
X78496454Y-42698135D01*
X78369134Y-42611141D01*
X78218000Y-42580536D01*
X78153153Y-42580536D01*
X78144131Y-42535177D01*
X78042270Y-42382731D01*
X77407269Y-41747731D01*
X77254823Y-41645869D01*
X77075000Y-41610100D01*
X76993776Y-41610100D01*
X76972076Y-41588361D01*
X79525975Y-41588361D01*
X79635950Y-41854521D01*
X79839408Y-42058335D01*
X80105376Y-42168774D01*
X80393361Y-42169025D01*
X80659521Y-42059050D01*
X80740312Y-41978400D01*
X81705309Y-41978400D01*
X81685100Y-42080000D01*
X81685100Y-42580536D01*
X81647000Y-42580536D01*
X81505810Y-42607103D01*
X81376135Y-42690546D01*
X81289141Y-42817866D01*
X81258536Y-42969000D01*
X81258536Y-45001000D01*
X81285103Y-45142190D01*
X81368546Y-45271865D01*
X81495866Y-45358859D01*
X81647000Y-45389464D01*
X82663000Y-45389464D01*
X82804190Y-45362897D01*
X82933865Y-45279454D01*
X83020859Y-45152134D01*
X83051464Y-45001000D01*
X83051464Y-42969000D01*
X83024897Y-42827810D01*
X82941454Y-42698135D01*
X82814134Y-42611141D01*
X82663000Y-42580536D01*
X82624900Y-42580536D01*
X82624900Y-42334000D01*
X89157936Y-42334000D01*
X89157936Y-44366000D01*
X89184503Y-44507190D01*
X89267946Y-44636865D01*
X89395266Y-44723859D01*
X89546400Y-44754464D01*
X91273600Y-44754464D01*
X91414790Y-44727897D01*
X91426000Y-44720684D01*
X91426000Y-50867006D01*
X91424734Y-50866141D01*
X91273600Y-50835536D01*
X89546400Y-50835536D01*
X89405210Y-50862103D01*
X89275535Y-50945546D01*
X89188541Y-51072866D01*
X89157936Y-51224000D01*
X89157936Y-53256000D01*
X89184503Y-53397190D01*
X89267946Y-53526865D01*
X89395266Y-53613859D01*
X89546400Y-53644464D01*
X91273600Y-53644464D01*
X91414790Y-53617897D01*
X91426000Y-53610684D01*
X91426000Y-68647006D01*
X91424734Y-68646141D01*
X91273600Y-68615536D01*
X89546400Y-68615536D01*
X89405210Y-68642103D01*
X89275535Y-68725546D01*
X89188541Y-68852866D01*
X89157936Y-69004000D01*
X89157936Y-71036000D01*
X89184503Y-71177190D01*
X89267946Y-71306865D01*
X89395266Y-71393859D01*
X89546400Y-71424464D01*
X91273600Y-71424464D01*
X91414790Y-71397897D01*
X91426000Y-71390684D01*
X91426000Y-77537006D01*
X91424734Y-77536141D01*
X91273600Y-77505536D01*
X89546400Y-77505536D01*
X89405210Y-77532103D01*
X89275535Y-77615546D01*
X89188541Y-77742866D01*
X89157936Y-77894000D01*
X89157936Y-79926000D01*
X89184503Y-80067190D01*
X89267946Y-80196865D01*
X89395266Y-80283859D01*
X89546400Y-80314464D01*
X91273600Y-80314464D01*
X91414790Y-80287897D01*
X91544465Y-80204454D01*
X91631459Y-80077134D01*
X91662064Y-79926000D01*
X91662064Y-79859382D01*
X91715078Y-79987686D01*
X92250495Y-80524039D01*
X92950410Y-80814668D01*
X93708265Y-80815330D01*
X94408686Y-80525922D01*
X94945039Y-79990505D01*
X95235668Y-79290590D01*
X95236330Y-78532735D01*
X95236000Y-78531936D01*
X95236000Y-70020000D01*
X95236330Y-69642735D01*
X95236000Y-69641936D01*
X95236000Y-52240000D01*
X95236330Y-51862735D01*
X95236000Y-51861936D01*
X95236000Y-43350000D01*
X95236330Y-42972735D01*
X94946922Y-42272314D01*
X94411505Y-41735961D01*
X93711590Y-41445332D01*
X92953735Y-41444670D01*
X92253314Y-41734078D01*
X91716961Y-42269495D01*
X91662064Y-42401702D01*
X91662064Y-42334000D01*
X91635497Y-42192810D01*
X91552054Y-42063135D01*
X91424734Y-41976141D01*
X91273600Y-41945536D01*
X89546400Y-41945536D01*
X89405210Y-41972103D01*
X89275535Y-42055546D01*
X89188541Y-42182866D01*
X89157936Y-42334000D01*
X82624900Y-42334000D01*
X82624900Y-42274638D01*
X82730690Y-42168848D01*
X82933361Y-42169025D01*
X83199521Y-42059050D01*
X83403335Y-41855592D01*
X83513774Y-41589624D01*
X83514025Y-41301639D01*
X83404050Y-41035479D01*
X83200592Y-40831665D01*
X82934624Y-40721226D01*
X82646639Y-40720975D01*
X82380479Y-40830950D01*
X82299688Y-40911600D01*
X80740387Y-40911600D01*
X80660592Y-40831665D01*
X80394624Y-40721226D01*
X80106639Y-40720975D01*
X79840479Y-40830950D01*
X79636665Y-41034408D01*
X79526226Y-41300376D01*
X79525975Y-41588361D01*
X76972076Y-41588361D01*
X76850592Y-41466665D01*
X76584624Y-41356226D01*
X76296639Y-41355975D01*
X76030479Y-41465950D01*
X75826665Y-41669408D01*
X75805083Y-41721383D01*
X75784050Y-41670479D01*
X75580592Y-41466665D01*
X75314624Y-41356226D01*
X75026639Y-41355975D01*
X74760479Y-41465950D01*
X74556665Y-41669408D01*
X74446226Y-41935376D01*
X74446048Y-42139413D01*
X74202731Y-42382731D01*
X74100869Y-42535177D01*
X74065100Y-42715000D01*
X74065100Y-42719342D01*
X74051454Y-42698135D01*
X73924134Y-42611141D01*
X73773000Y-42580536D01*
X72757000Y-42580536D01*
X72625339Y-42605310D01*
X72503000Y-42580536D01*
X71487000Y-42580536D01*
X71345810Y-42607103D01*
X71216135Y-42690546D01*
X71129141Y-42817866D01*
X71098536Y-42969000D01*
X71098536Y-45001000D01*
X71125103Y-45142190D01*
X71208546Y-45271865D01*
X71335866Y-45358859D01*
X71487000Y-45389464D01*
X72503000Y-45389464D01*
X72634661Y-45364690D01*
X72757000Y-45389464D01*
X73773000Y-45389464D01*
X73914190Y-45362897D01*
X74043865Y-45279454D01*
X74065100Y-45248376D01*
X74065100Y-47079728D01*
X74044624Y-47071226D01*
X73756639Y-47070975D01*
X73490479Y-47180950D01*
X73286665Y-47384408D01*
X73176226Y-47650376D01*
X73176048Y-47854413D01*
X71662731Y-49367731D01*
X71560869Y-49520177D01*
X71525100Y-49700000D01*
X71525100Y-52045361D01*
X70392731Y-53177731D01*
X70290869Y-53330177D01*
X70255100Y-53510000D01*
X57906173Y-53510000D01*
X57976459Y-53407134D01*
X58007064Y-53256000D01*
X58007064Y-51224000D01*
X57980497Y-51082810D01*
X57897054Y-50953135D01*
X57769734Y-50866141D01*
X57618600Y-50835536D01*
X55891400Y-50835536D01*
X55750210Y-50862103D01*
X55739000Y-50869316D01*
X55739000Y-44722994D01*
X55740266Y-44723859D01*
X55891400Y-44754464D01*
X57618600Y-44754464D01*
X57759790Y-44727897D01*
X57889465Y-44644454D01*
X57976459Y-44517134D01*
X58007064Y-44366000D01*
X58007064Y-42969000D01*
X63478536Y-42969000D01*
X63478536Y-45001000D01*
X63505103Y-45142190D01*
X63588546Y-45271865D01*
X63715866Y-45358859D01*
X63867000Y-45389464D01*
X63905100Y-45389464D01*
X63905100Y-47241224D01*
X63761665Y-47384408D01*
X63651226Y-47650376D01*
X63650975Y-47938361D01*
X63760950Y-48204521D01*
X63964408Y-48408335D01*
X64230376Y-48518774D01*
X64518361Y-48519025D01*
X64784521Y-48409050D01*
X64988335Y-48205592D01*
X65098774Y-47939624D01*
X65099025Y-47651639D01*
X64989050Y-47385479D01*
X64844900Y-47241077D01*
X64844900Y-45389464D01*
X64883000Y-45389464D01*
X65024190Y-45362897D01*
X65153865Y-45279454D01*
X65240859Y-45152134D01*
X65271464Y-45001000D01*
X65271464Y-42969000D01*
X65244897Y-42827810D01*
X65161454Y-42698135D01*
X65034134Y-42611141D01*
X64883000Y-42580536D01*
X63867000Y-42580536D01*
X63725810Y-42607103D01*
X63596135Y-42690546D01*
X63509141Y-42817866D01*
X63478536Y-42969000D01*
X58007064Y-42969000D01*
X58007064Y-42334000D01*
X57980497Y-42192810D01*
X57897054Y-42063135D01*
X57769734Y-41976141D01*
X57618600Y-41945536D01*
X55891400Y-41945536D01*
X55750210Y-41972103D01*
X55620535Y-42055546D01*
X55533541Y-42182866D01*
X55502936Y-42334000D01*
X55502936Y-42400618D01*
X55449922Y-42272314D01*
X54914505Y-41735961D01*
X54214590Y-41445332D01*
X53456735Y-41444670D01*
X52756314Y-41734078D01*
X52219961Y-42269495D01*
X51929332Y-42969410D01*
X51928670Y-43727265D01*
X51929000Y-43728064D01*
X51929000Y-52239482D01*
X51928670Y-52617265D01*
X51929000Y-52618064D01*
X51929000Y-68568902D01*
X51870811Y-68655988D01*
X51725802Y-69385000D01*
X48931000Y-69385000D01*
X48931000Y-38272448D01*
X49096294Y-37441459D01*
X49542966Y-36772967D01*
X50211461Y-36326293D01*
X51042448Y-36161000D01*
X71377936Y-36161000D01*
X71377936Y-38016000D01*
X71377936Y-38016000D01*
G37*
X71377936Y-38016000D02*
X71404503Y-38157190D01*
X71487946Y-38286865D01*
X71615266Y-38373859D01*
X71766400Y-38404464D01*
X73493600Y-38404464D01*
X73634790Y-38377897D01*
X73764465Y-38294454D01*
X73851459Y-38167134D01*
X73882064Y-38016000D01*
X73882064Y-36161000D01*
X74142379Y-36161000D01*
X74020140Y-36343943D01*
X73925400Y-36820231D01*
X73925400Y-37179769D01*
X74020140Y-37656057D01*
X74289935Y-38059834D01*
X74693712Y-38329629D01*
X75170000Y-38424369D01*
X75646288Y-38329629D01*
X76050065Y-38059834D01*
X76319860Y-37656057D01*
X76414600Y-37179769D01*
X76414600Y-36820231D01*
X76319860Y-36343943D01*
X76197621Y-36161000D01*
X79222379Y-36161000D01*
X79100140Y-36343943D01*
X79005400Y-36820231D01*
X79005400Y-37179769D01*
X79100140Y-37656057D01*
X79369935Y-38059834D01*
X79773712Y-38329629D01*
X80250000Y-38424369D01*
X80726288Y-38329629D01*
X81130065Y-38059834D01*
X81399860Y-37656057D01*
X81494600Y-37179769D01*
X81494600Y-36820231D01*
X81399860Y-36343943D01*
X81277621Y-36161000D01*
X81762379Y-36161000D01*
X81640140Y-36343943D01*
X81545400Y-36820231D01*
X81545400Y-37179769D01*
X81640140Y-37656057D01*
X81909935Y-38059834D01*
X82165119Y-38230342D01*
X81960362Y-38435100D01*
X71995000Y-38435100D01*
X71822306Y-38469451D01*
X71815177Y-38470869D01*
X71662731Y-38572730D01*
X69757731Y-40477731D01*
X69655869Y-40630177D01*
X69620100Y-40810000D01*
X69620100Y-42719342D01*
X69606454Y-42698135D01*
X69479134Y-42611141D01*
X69328000Y-42580536D01*
X68312000Y-42580536D01*
X68180339Y-42605310D01*
X68058000Y-42580536D01*
X67042000Y-42580536D01*
X66900810Y-42607103D01*
X66771135Y-42690546D01*
X66684141Y-42817866D01*
X66653536Y-42969000D01*
X66653536Y-43309774D01*
X66505479Y-43370950D01*
X66301665Y-43574408D01*
X66191226Y-43840376D01*
X66190975Y-44128361D01*
X66300950Y-44394521D01*
X66504408Y-44598335D01*
X66653536Y-44660258D01*
X66653536Y-45001000D01*
X66680103Y-45142190D01*
X66763546Y-45271865D01*
X66890866Y-45358859D01*
X67042000Y-45389464D01*
X68058000Y-45389464D01*
X68189661Y-45364690D01*
X68312000Y-45389464D01*
X68931766Y-45389464D01*
X68841665Y-45479408D01*
X68731226Y-45745376D01*
X68730975Y-46033361D01*
X68840950Y-46299521D01*
X69044408Y-46503335D01*
X69310376Y-46613774D01*
X69598361Y-46614025D01*
X69864521Y-46504050D01*
X70068335Y-46300592D01*
X70178774Y-46034624D01*
X70178952Y-45830587D01*
X70422270Y-45587269D01*
X70524131Y-45434823D01*
X70559900Y-45255000D01*
X70559900Y-41004638D01*
X72189639Y-39374900D01*
X74454728Y-39374900D01*
X74446226Y-39395376D01*
X74445975Y-39683361D01*
X74555950Y-39949521D01*
X74759408Y-40153335D01*
X75025376Y-40263774D01*
X75313361Y-40264025D01*
X75579521Y-40154050D01*
X75723923Y-40009900D01*
X84695000Y-40009900D01*
X84874823Y-39974131D01*
X85027269Y-39872269D01*
X85662270Y-39237269D01*
X85764131Y-39084823D01*
X85799900Y-38905000D01*
X85799900Y-38330900D01*
X85806288Y-38329629D01*
X86210065Y-38059834D01*
X86479860Y-37656057D01*
X86574600Y-37179769D01*
X86574600Y-36820231D01*
X86479860Y-36343943D01*
X86357621Y-36161000D01*
X86842379Y-36161000D01*
X86720140Y-36343943D01*
X86625400Y-36820231D01*
X86625400Y-37179769D01*
X86720140Y-37656057D01*
X86989935Y-38059834D01*
X87393712Y-38329629D01*
X87870000Y-38424369D01*
X88346288Y-38329629D01*
X88750065Y-38059834D01*
X89019860Y-37656057D01*
X89114600Y-37179769D01*
X89114600Y-36820231D01*
X89019860Y-36343943D01*
X88897621Y-36161000D01*
X95957552Y-36161000D01*
X96788541Y-36326294D01*
X97457033Y-36772966D01*
X97903707Y-37441461D01*
X98069000Y-38272448D01*
X98069000Y-83187552D01*
X97903707Y-84018539D01*
X97457033Y-84687034D01*
X96788541Y-85133706D01*
X95957552Y-85299000D01*
X72543122Y-85299000D01*
X72982828Y-85005197D01*
X73285660Y-84551978D01*
X73392000Y-84017369D01*
X73392000Y-83962631D01*
X73285660Y-83428022D01*
X72982828Y-82974803D01*
X72529609Y-82671971D01*
X71995000Y-82565631D01*
X71460391Y-82671971D01*
X71007172Y-82974803D01*
X70704340Y-83428022D01*
X70598000Y-83962631D01*
X70598000Y-84017369D01*
X70704340Y-84551978D01*
X71007172Y-85005197D01*
X71446878Y-85299000D01*
X51042448Y-85299000D01*
X50211461Y-85133707D01*
X49542966Y-84687033D01*
X49096294Y-84018541D01*
X48931000Y-83187552D01*
X48931000Y-69385000D01*
X51725802Y-69385000D01*
X51870811Y-70114012D01*
X51929000Y-70201098D01*
X51929000Y-78274482D01*
X51928670Y-78652265D01*
X52183000Y-79267791D01*
X52183000Y-80815000D01*
X52193006Y-80864410D01*
X52220197Y-80904803D01*
X53490197Y-82174803D01*
X53532211Y-82202666D01*
X53580000Y-82212000D01*
X66280000Y-82212000D01*
X66329410Y-82201994D01*
X66371035Y-82173553D01*
X66398315Y-82131159D01*
X66407000Y-82085000D01*
X66407000Y-78269633D01*
X80212334Y-78269633D01*
X80240849Y-78421176D01*
X80326075Y-78549686D01*
X81245314Y-79468925D01*
X81363936Y-79549975D01*
X81514633Y-79582666D01*
X81666176Y-79554151D01*
X81794686Y-79468925D01*
X82713925Y-78549686D01*
X82794975Y-78431064D01*
X82827666Y-78280367D01*
X82799151Y-78128824D01*
X82713925Y-78000314D01*
X81794686Y-77081075D01*
X81676064Y-77000025D01*
X81525367Y-76967334D01*
X81373824Y-76995849D01*
X81245314Y-77081075D01*
X80326075Y-78000314D01*
X80245025Y-78118936D01*
X80212334Y-78269633D01*
X66407000Y-78269633D01*
X66407000Y-77005000D01*
X66396994Y-76955590D01*
X66368553Y-76913965D01*
X66326159Y-76886685D01*
X66280000Y-76878000D01*
X57655459Y-76878000D01*
X57618600Y-76870536D01*
X55891400Y-76870536D01*
X55851733Y-76878000D01*
X55739000Y-76878000D01*
X55739000Y-74285231D01*
X70115400Y-74285231D01*
X70115400Y-74644769D01*
X70210140Y-75121057D01*
X70479935Y-75524834D01*
X70883712Y-75794629D01*
X71360000Y-75889369D01*
X71836288Y-75794629D01*
X72240065Y-75524834D01*
X72509860Y-75121057D01*
X72604600Y-74644769D01*
X72604600Y-74285231D01*
X72655400Y-74285231D01*
X72655400Y-74644769D01*
X72750140Y-75121057D01*
X73019935Y-75524834D01*
X73423712Y-75794629D01*
X73900000Y-75889369D01*
X74376288Y-75794629D01*
X74780065Y-75524834D01*
X75049860Y-75121057D01*
X75144600Y-74644769D01*
X75144600Y-74285231D01*
X75195400Y-74285231D01*
X75195400Y-74644769D01*
X75290140Y-75121057D01*
X75559935Y-75524834D01*
X75963712Y-75794629D01*
X76440000Y-75889369D01*
X76916288Y-75794629D01*
X77320065Y-75524834D01*
X77589860Y-75121057D01*
X77684600Y-74644769D01*
X77684600Y-74285231D01*
X77735400Y-74285231D01*
X77735400Y-74644769D01*
X77830140Y-75121057D01*
X78099935Y-75524834D01*
X78503712Y-75794629D01*
X78980000Y-75889369D01*
X79456288Y-75794629D01*
X79860065Y-75524834D01*
X80129860Y-75121057D01*
X80224600Y-74644769D01*
X80224600Y-74285231D01*
X80275400Y-74285231D01*
X80275400Y-74644769D01*
X80370140Y-75121057D01*
X80639935Y-75524834D01*
X81043712Y-75794629D01*
X81520000Y-75889369D01*
X81996288Y-75794629D01*
X82400065Y-75524834D01*
X82669860Y-75121057D01*
X82764600Y-74644769D01*
X82764600Y-74285231D01*
X82669860Y-73808943D01*
X82400065Y-73405166D01*
X81996288Y-73135371D01*
X81520000Y-73040631D01*
X81043712Y-73135371D01*
X80639935Y-73405166D01*
X80370140Y-73808943D01*
X80275400Y-74285231D01*
X80224600Y-74285231D01*
X80129860Y-73808943D01*
X79860065Y-73405166D01*
X79456288Y-73135371D01*
X78980000Y-73040631D01*
X78503712Y-73135371D01*
X78099935Y-73405166D01*
X77830140Y-73808943D01*
X77735400Y-74285231D01*
X77684600Y-74285231D01*
X77589860Y-73808943D01*
X77320065Y-73405166D01*
X76916288Y-73135371D01*
X76440000Y-73040631D01*
X75963712Y-73135371D01*
X75559935Y-73405166D01*
X75290140Y-73808943D01*
X75195400Y-74285231D01*
X75144600Y-74285231D01*
X75049860Y-73808943D01*
X74780065Y-73405166D01*
X74376288Y-73135371D01*
X73900000Y-73040631D01*
X73423712Y-73135371D01*
X73019935Y-73405166D01*
X72750140Y-73808943D01*
X72655400Y-74285231D01*
X72604600Y-74285231D01*
X72509860Y-73808943D01*
X72240065Y-73405166D01*
X71836288Y-73135371D01*
X71360000Y-73040631D01*
X70883712Y-73135371D01*
X70479935Y-73405166D01*
X70210140Y-73808943D01*
X70115400Y-74285231D01*
X55739000Y-74285231D01*
X55739000Y-70757994D01*
X55740266Y-70758859D01*
X55891400Y-70789464D01*
X57618600Y-70789464D01*
X57759790Y-70762897D01*
X57889465Y-70679454D01*
X57976459Y-70552134D01*
X58007064Y-70401000D01*
X58007064Y-68369000D01*
X57980497Y-68227810D01*
X57897054Y-68098135D01*
X57769734Y-68011141D01*
X57618600Y-67980536D01*
X55891400Y-67980536D01*
X55750210Y-68007103D01*
X55739000Y-68014316D01*
X55739000Y-57447000D01*
X62970536Y-57447000D01*
X62970536Y-58463000D01*
X62995310Y-58594661D01*
X62970536Y-58717000D01*
X62970536Y-59733000D01*
X62997103Y-59874190D01*
X63080546Y-60003865D01*
X63207866Y-60090859D01*
X63359000Y-60121464D01*
X65391000Y-60121464D01*
X65532190Y-60094897D01*
X65661865Y-60011454D01*
X65704571Y-59948952D01*
X65788361Y-59949025D01*
X66054521Y-59839050D01*
X66258335Y-59635592D01*
X66368774Y-59369624D01*
X66369025Y-59081639D01*
X66259050Y-58815479D01*
X66055592Y-58611665D01*
X66003617Y-58590083D01*
X66054521Y-58569050D01*
X66258335Y-58365592D01*
X66368774Y-58099624D01*
X66369025Y-57811639D01*
X66259050Y-57545479D01*
X66055592Y-57341665D01*
X65789624Y-57231226D01*
X65704856Y-57231152D01*
X65669454Y-57176135D01*
X65542134Y-57089141D01*
X65391000Y-57058536D01*
X63359000Y-57058536D01*
X63217810Y-57085103D01*
X63088135Y-57168546D01*
X63001141Y-57295866D01*
X62970536Y-57447000D01*
X55739000Y-57447000D01*
X55739000Y-53612994D01*
X55740266Y-53613859D01*
X55891400Y-53644464D01*
X57618600Y-53644464D01*
X57759790Y-53617897D01*
X57889465Y-53534454D01*
X57906173Y-53510000D01*
X70255100Y-53510000D01*
X70255100Y-54780000D01*
X70290869Y-54959823D01*
X70392731Y-55112269D01*
X71271152Y-55990690D01*
X71270975Y-56193361D01*
X71380950Y-56459521D01*
X71584408Y-56663335D01*
X71850376Y-56773774D01*
X72138361Y-56774025D01*
X72404521Y-56664050D01*
X72608335Y-56460592D01*
X72718774Y-56194624D01*
X72718797Y-56168335D01*
X82320100Y-65769638D01*
X82320100Y-66210000D01*
X82322923Y-66224190D01*
X82355869Y-66389823D01*
X82457731Y-66542269D01*
X83092731Y-67177270D01*
X83245177Y-67279131D01*
X83290536Y-67288153D01*
X83290536Y-67353000D01*
X83317103Y-67494190D01*
X83400546Y-67623865D01*
X83527866Y-67710859D01*
X83679000Y-67741464D01*
X85711000Y-67741464D01*
X85852190Y-67714897D01*
X85981865Y-67631454D01*
X86068859Y-67504134D01*
X86099464Y-67353000D01*
X86099464Y-66337000D01*
X86074690Y-66205339D01*
X86099464Y-66083000D01*
X86099464Y-65067000D01*
X86074690Y-64935339D01*
X86099464Y-64813000D01*
X86099464Y-63797000D01*
X86074690Y-63665339D01*
X86099464Y-63543000D01*
X86099464Y-62527000D01*
X86074690Y-62395339D01*
X86099464Y-62273000D01*
X86099464Y-61257000D01*
X86074690Y-61125339D01*
X86099464Y-61003000D01*
X86099464Y-59987000D01*
X86074690Y-59855339D01*
X86099464Y-59733000D01*
X86099464Y-58717000D01*
X86074690Y-58585339D01*
X86099464Y-58463000D01*
X86099464Y-57447000D01*
X86072897Y-57305810D01*
X85989454Y-57176135D01*
X85862134Y-57089141D01*
X85711000Y-57058536D01*
X84053722Y-57058536D01*
X84148774Y-56829624D01*
X84149025Y-56541639D01*
X84039050Y-56275479D01*
X83894900Y-56131077D01*
X83894900Y-54698776D01*
X84038335Y-54555592D01*
X84148774Y-54289624D01*
X84149025Y-54001639D01*
X84039050Y-53735479D01*
X83835592Y-53531665D01*
X83569624Y-53421226D01*
X83281639Y-53420975D01*
X83015479Y-53530950D01*
X82811665Y-53734408D01*
X82701226Y-54000376D01*
X82700975Y-54288361D01*
X82810950Y-54554521D01*
X82955100Y-54698923D01*
X82955100Y-56131224D01*
X82811665Y-56274408D01*
X82701226Y-56540376D01*
X82700975Y-56828361D01*
X82810950Y-57094521D01*
X83014408Y-57298335D01*
X83280376Y-57408774D01*
X83298274Y-57408790D01*
X83290536Y-57447000D01*
X83290536Y-57485100D01*
X79809639Y-57485100D01*
X79098542Y-56774003D01*
X79123361Y-56774025D01*
X79389521Y-56664050D01*
X79593335Y-56460592D01*
X79703774Y-56194624D01*
X79704025Y-55906639D01*
X79594050Y-55640479D01*
X79390592Y-55436665D01*
X79124624Y-55326226D01*
X78920587Y-55326048D01*
X77544900Y-53950362D01*
X77544900Y-52240000D01*
X77509131Y-52060177D01*
X77407270Y-51907731D01*
X76909900Y-51410362D01*
X76909900Y-49208361D01*
X83335975Y-49208361D01*
X83445950Y-49474521D01*
X83649408Y-49678335D01*
X83915376Y-49788774D01*
X83971023Y-49788823D01*
X83970975Y-49843361D01*
X84080950Y-50109521D01*
X84284408Y-50313335D01*
X84550376Y-50423774D01*
X84606023Y-50423823D01*
X84605975Y-50478361D01*
X84715950Y-50744521D01*
X84919408Y-50948335D01*
X85185376Y-51058774D01*
X85473361Y-51059025D01*
X85739521Y-50949050D01*
X85943335Y-50745592D01*
X86053774Y-50479624D01*
X86053952Y-50275586D01*
X88202269Y-48127270D01*
X88304131Y-47974823D01*
X88339900Y-47795000D01*
X88339900Y-45389464D01*
X88378000Y-45389464D01*
X88519190Y-45362897D01*
X88648865Y-45279454D01*
X88735859Y-45152134D01*
X88766464Y-45001000D01*
X88766464Y-42969000D01*
X88739897Y-42827810D01*
X88656454Y-42698135D01*
X88529134Y-42611141D01*
X88378000Y-42580536D01*
X87362000Y-42580536D01*
X87230339Y-42605310D01*
X87108000Y-42580536D01*
X86092000Y-42580536D01*
X85960339Y-42605310D01*
X85838000Y-42580536D01*
X84822000Y-42580536D01*
X84680810Y-42607103D01*
X84551135Y-42690546D01*
X84464141Y-42817866D01*
X84433536Y-42969000D01*
X84433536Y-45001000D01*
X84460103Y-45142190D01*
X84543546Y-45271865D01*
X84670866Y-45358859D01*
X84822000Y-45389464D01*
X84860100Y-45389464D01*
X84860100Y-47600361D01*
X84119310Y-48341152D01*
X83916639Y-48340975D01*
X83650479Y-48450950D01*
X83446665Y-48654408D01*
X83336226Y-48920376D01*
X83335975Y-49208361D01*
X76909900Y-49208361D01*
X76909900Y-49065000D01*
X76874131Y-48885177D01*
X76772270Y-48732731D01*
X75004900Y-46965362D01*
X75004900Y-42909638D01*
X75110690Y-42803848D01*
X75313361Y-42804025D01*
X75579521Y-42694050D01*
X75783335Y-42490592D01*
X75804917Y-42438617D01*
X75825950Y-42489521D01*
X75919209Y-42582943D01*
X75790810Y-42607103D01*
X75661135Y-42690546D01*
X75574141Y-42817866D01*
X75543536Y-42969000D01*
X75543536Y-44579774D01*
X75395479Y-44640950D01*
X75191665Y-44844408D01*
X75081226Y-45110376D01*
X75080975Y-45398361D01*
X75190950Y-45664521D01*
X75394408Y-45868335D01*
X75446383Y-45889917D01*
X75395479Y-45910950D01*
X75191665Y-46114408D01*
X75081226Y-46380376D01*
X75080975Y-46668361D01*
X75190950Y-46934521D01*
X75394408Y-47138335D01*
X75660376Y-47248774D01*
X75948361Y-47249025D01*
X76214521Y-47139050D01*
X76358923Y-46994900D01*
X77791224Y-46994900D01*
X77934408Y-47138335D01*
X78200376Y-47248774D01*
X78488361Y-47249025D01*
X78754521Y-47139050D01*
X78958335Y-46935592D01*
X79068774Y-46669624D01*
X79069025Y-46381639D01*
X78959050Y-46115479D01*
X78755592Y-45911665D01*
X78489624Y-45801226D01*
X78201639Y-45800975D01*
X77935479Y-45910950D01*
X77791077Y-46055100D01*
X76358776Y-46055100D01*
X76215592Y-45911665D01*
X76163617Y-45890083D01*
X76214521Y-45869050D01*
X76418335Y-45665592D01*
X76528774Y-45399624D01*
X76528783Y-45389464D01*
X76948000Y-45389464D01*
X77079661Y-45364690D01*
X77202000Y-45389464D01*
X78218000Y-45389464D01*
X78359190Y-45362897D01*
X78488865Y-45279454D01*
X78575859Y-45152134D01*
X78606464Y-45001000D01*
X78606464Y-42969000D01*
X78579897Y-42827810D01*
X78496454Y-42698135D01*
X78369134Y-42611141D01*
X78218000Y-42580536D01*
X78153153Y-42580536D01*
X78144131Y-42535177D01*
X78042270Y-42382731D01*
X77407269Y-41747731D01*
X77254823Y-41645869D01*
X77075000Y-41610100D01*
X76993776Y-41610100D01*
X76972076Y-41588361D01*
X79525975Y-41588361D01*
X79635950Y-41854521D01*
X79839408Y-42058335D01*
X80105376Y-42168774D01*
X80393361Y-42169025D01*
X80659521Y-42059050D01*
X80740312Y-41978400D01*
X81705309Y-41978400D01*
X81685100Y-42080000D01*
X81685100Y-42580536D01*
X81647000Y-42580536D01*
X81505810Y-42607103D01*
X81376135Y-42690546D01*
X81289141Y-42817866D01*
X81258536Y-42969000D01*
X81258536Y-45001000D01*
X81285103Y-45142190D01*
X81368546Y-45271865D01*
X81495866Y-45358859D01*
X81647000Y-45389464D01*
X82663000Y-45389464D01*
X82804190Y-45362897D01*
X82933865Y-45279454D01*
X83020859Y-45152134D01*
X83051464Y-45001000D01*
X83051464Y-42969000D01*
X83024897Y-42827810D01*
X82941454Y-42698135D01*
X82814134Y-42611141D01*
X82663000Y-42580536D01*
X82624900Y-42580536D01*
X82624900Y-42334000D01*
X89157936Y-42334000D01*
X89157936Y-44366000D01*
X89184503Y-44507190D01*
X89267946Y-44636865D01*
X89395266Y-44723859D01*
X89546400Y-44754464D01*
X91273600Y-44754464D01*
X91414790Y-44727897D01*
X91426000Y-44720684D01*
X91426000Y-50867006D01*
X91424734Y-50866141D01*
X91273600Y-50835536D01*
X89546400Y-50835536D01*
X89405210Y-50862103D01*
X89275535Y-50945546D01*
X89188541Y-51072866D01*
X89157936Y-51224000D01*
X89157936Y-53256000D01*
X89184503Y-53397190D01*
X89267946Y-53526865D01*
X89395266Y-53613859D01*
X89546400Y-53644464D01*
X91273600Y-53644464D01*
X91414790Y-53617897D01*
X91426000Y-53610684D01*
X91426000Y-68647006D01*
X91424734Y-68646141D01*
X91273600Y-68615536D01*
X89546400Y-68615536D01*
X89405210Y-68642103D01*
X89275535Y-68725546D01*
X89188541Y-68852866D01*
X89157936Y-69004000D01*
X89157936Y-71036000D01*
X89184503Y-71177190D01*
X89267946Y-71306865D01*
X89395266Y-71393859D01*
X89546400Y-71424464D01*
X91273600Y-71424464D01*
X91414790Y-71397897D01*
X91426000Y-71390684D01*
X91426000Y-77537006D01*
X91424734Y-77536141D01*
X91273600Y-77505536D01*
X89546400Y-77505536D01*
X89405210Y-77532103D01*
X89275535Y-77615546D01*
X89188541Y-77742866D01*
X89157936Y-77894000D01*
X89157936Y-79926000D01*
X89184503Y-80067190D01*
X89267946Y-80196865D01*
X89395266Y-80283859D01*
X89546400Y-80314464D01*
X91273600Y-80314464D01*
X91414790Y-80287897D01*
X91544465Y-80204454D01*
X91631459Y-80077134D01*
X91662064Y-79926000D01*
X91662064Y-79859382D01*
X91715078Y-79987686D01*
X92250495Y-80524039D01*
X92950410Y-80814668D01*
X93708265Y-80815330D01*
X94408686Y-80525922D01*
X94945039Y-79990505D01*
X95235668Y-79290590D01*
X95236330Y-78532735D01*
X95236000Y-78531936D01*
X95236000Y-70020000D01*
X95236330Y-69642735D01*
X95236000Y-69641936D01*
X95236000Y-52240000D01*
X95236330Y-51862735D01*
X95236000Y-51861936D01*
X95236000Y-43350000D01*
X95236330Y-42972735D01*
X94946922Y-42272314D01*
X94411505Y-41735961D01*
X93711590Y-41445332D01*
X92953735Y-41444670D01*
X92253314Y-41734078D01*
X91716961Y-42269495D01*
X91662064Y-42401702D01*
X91662064Y-42334000D01*
X91635497Y-42192810D01*
X91552054Y-42063135D01*
X91424734Y-41976141D01*
X91273600Y-41945536D01*
X89546400Y-41945536D01*
X89405210Y-41972103D01*
X89275535Y-42055546D01*
X89188541Y-42182866D01*
X89157936Y-42334000D01*
X82624900Y-42334000D01*
X82624900Y-42274638D01*
X82730690Y-42168848D01*
X82933361Y-42169025D01*
X83199521Y-42059050D01*
X83403335Y-41855592D01*
X83513774Y-41589624D01*
X83514025Y-41301639D01*
X83404050Y-41035479D01*
X83200592Y-40831665D01*
X82934624Y-40721226D01*
X82646639Y-40720975D01*
X82380479Y-40830950D01*
X82299688Y-40911600D01*
X80740387Y-40911600D01*
X80660592Y-40831665D01*
X80394624Y-40721226D01*
X80106639Y-40720975D01*
X79840479Y-40830950D01*
X79636665Y-41034408D01*
X79526226Y-41300376D01*
X79525975Y-41588361D01*
X76972076Y-41588361D01*
X76850592Y-41466665D01*
X76584624Y-41356226D01*
X76296639Y-41355975D01*
X76030479Y-41465950D01*
X75826665Y-41669408D01*
X75805083Y-41721383D01*
X75784050Y-41670479D01*
X75580592Y-41466665D01*
X75314624Y-41356226D01*
X75026639Y-41355975D01*
X74760479Y-41465950D01*
X74556665Y-41669408D01*
X74446226Y-41935376D01*
X74446048Y-42139413D01*
X74202731Y-42382731D01*
X74100869Y-42535177D01*
X74065100Y-42715000D01*
X74065100Y-42719342D01*
X74051454Y-42698135D01*
X73924134Y-42611141D01*
X73773000Y-42580536D01*
X72757000Y-42580536D01*
X72625339Y-42605310D01*
X72503000Y-42580536D01*
X71487000Y-42580536D01*
X71345810Y-42607103D01*
X71216135Y-42690546D01*
X71129141Y-42817866D01*
X71098536Y-42969000D01*
X71098536Y-45001000D01*
X71125103Y-45142190D01*
X71208546Y-45271865D01*
X71335866Y-45358859D01*
X71487000Y-45389464D01*
X72503000Y-45389464D01*
X72634661Y-45364690D01*
X72757000Y-45389464D01*
X73773000Y-45389464D01*
X73914190Y-45362897D01*
X74043865Y-45279454D01*
X74065100Y-45248376D01*
X74065100Y-47079728D01*
X74044624Y-47071226D01*
X73756639Y-47070975D01*
X73490479Y-47180950D01*
X73286665Y-47384408D01*
X73176226Y-47650376D01*
X73176048Y-47854413D01*
X71662731Y-49367731D01*
X71560869Y-49520177D01*
X71525100Y-49700000D01*
X71525100Y-52045361D01*
X70392731Y-53177731D01*
X70290869Y-53330177D01*
X70255100Y-53510000D01*
X57906173Y-53510000D01*
X57976459Y-53407134D01*
X58007064Y-53256000D01*
X58007064Y-51224000D01*
X57980497Y-51082810D01*
X57897054Y-50953135D01*
X57769734Y-50866141D01*
X57618600Y-50835536D01*
X55891400Y-50835536D01*
X55750210Y-50862103D01*
X55739000Y-50869316D01*
X55739000Y-44722994D01*
X55740266Y-44723859D01*
X55891400Y-44754464D01*
X57618600Y-44754464D01*
X57759790Y-44727897D01*
X57889465Y-44644454D01*
X57976459Y-44517134D01*
X58007064Y-44366000D01*
X58007064Y-42969000D01*
X63478536Y-42969000D01*
X63478536Y-45001000D01*
X63505103Y-45142190D01*
X63588546Y-45271865D01*
X63715866Y-45358859D01*
X63867000Y-45389464D01*
X63905100Y-45389464D01*
X63905100Y-47241224D01*
X63761665Y-47384408D01*
X63651226Y-47650376D01*
X63650975Y-47938361D01*
X63760950Y-48204521D01*
X63964408Y-48408335D01*
X64230376Y-48518774D01*
X64518361Y-48519025D01*
X64784521Y-48409050D01*
X64988335Y-48205592D01*
X65098774Y-47939624D01*
X65099025Y-47651639D01*
X64989050Y-47385479D01*
X64844900Y-47241077D01*
X64844900Y-45389464D01*
X64883000Y-45389464D01*
X65024190Y-45362897D01*
X65153865Y-45279454D01*
X65240859Y-45152134D01*
X65271464Y-45001000D01*
X65271464Y-42969000D01*
X65244897Y-42827810D01*
X65161454Y-42698135D01*
X65034134Y-42611141D01*
X64883000Y-42580536D01*
X63867000Y-42580536D01*
X63725810Y-42607103D01*
X63596135Y-42690546D01*
X63509141Y-42817866D01*
X63478536Y-42969000D01*
X58007064Y-42969000D01*
X58007064Y-42334000D01*
X57980497Y-42192810D01*
X57897054Y-42063135D01*
X57769734Y-41976141D01*
X57618600Y-41945536D01*
X55891400Y-41945536D01*
X55750210Y-41972103D01*
X55620535Y-42055546D01*
X55533541Y-42182866D01*
X55502936Y-42334000D01*
X55502936Y-42400618D01*
X55449922Y-42272314D01*
X54914505Y-41735961D01*
X54214590Y-41445332D01*
X53456735Y-41444670D01*
X52756314Y-41734078D01*
X52219961Y-42269495D01*
X51929332Y-42969410D01*
X51928670Y-43727265D01*
X51929000Y-43728064D01*
X51929000Y-52239482D01*
X51928670Y-52617265D01*
X51929000Y-52618064D01*
X51929000Y-68568902D01*
X51870811Y-68655988D01*
X51725802Y-69385000D01*
X48931000Y-69385000D01*
X48931000Y-38272448D01*
X49096294Y-37441459D01*
X49542966Y-36772967D01*
X50211461Y-36326293D01*
X51042448Y-36161000D01*
X71377936Y-36161000D01*
X71377936Y-38016000D01*
G36*
X55502936Y-79291000D02*
X55529503Y-79432190D01*
X55612946Y-79561865D01*
X55740266Y-79648859D01*
X55891400Y-79679464D01*
X57618600Y-79679464D01*
X57759790Y-79652897D01*
X57889465Y-79569454D01*
X57976459Y-79442134D01*
X58007064Y-79291000D01*
X58007064Y-77767000D01*
X65518000Y-77767000D01*
X65518000Y-81323000D01*
X53632606Y-81323000D01*
X53072000Y-80762394D01*
X53072000Y-77767000D01*
X55502936Y-77767000D01*
X55502936Y-79291000D01*
X55502936Y-79291000D01*
G37*
X55502936Y-79291000D02*
X55529503Y-79432190D01*
X55612946Y-79561865D01*
X55740266Y-79648859D01*
X55891400Y-79679464D01*
X57618600Y-79679464D01*
X57759790Y-79652897D01*
X57889465Y-79569454D01*
X57976459Y-79442134D01*
X58007064Y-79291000D01*
X58007064Y-77767000D01*
X65518000Y-77767000D01*
X65518000Y-81323000D01*
X53632606Y-81323000D01*
X53072000Y-80762394D01*
X53072000Y-77767000D01*
X55502936Y-77767000D01*
X55502936Y-79291000D01*
M02*
