M48
;DRILL file {KiCad 4.0.2+dfsg1-2~bpo8+1-stable} date Sat 05 Mar 2016 08:20:59 PM MST
;FORMAT={-:-/ absolute / inch / decimal}
FMAT,2
INCH,TZ
T1C0.014
T2C0.032
T3C0.040
T4C0.120
%
G90
G05
M72
T1
X1.9531Y-1.9561
X1.9531Y-2.2061
X1.9531Y-2.7311
X1.9531Y-2.9811
X2.1781Y-2.0311
X2.1781Y-2.8311
X2.4031Y-2.4311
X2.4281Y-1.9811
X2.4281Y-2.3561
X2.5031Y-2.1311
X2.5281Y-2.0311
X2.6031Y-2.2811
X2.6031Y-3.0061
X2.6344Y-2.7567
X2.6344Y-2.8067
X2.6594Y-2.7817
X2.6594Y-2.9317
X2.6781Y-2.0311
X2.6781Y-2.2311
X2.6844Y-2.7567
X2.6844Y-2.8067
X2.6844Y-2.9567
X2.7094Y-2.7817
X2.7094Y-2.9317
X2.7344Y-2.9567
X2.7531Y-1.7811
X2.7531Y-1.9311
X2.7594Y-2.8067
X2.7594Y-2.9317
X2.8031Y-1.6811
X2.8031Y-1.9311
X2.8031Y-2.1061
X2.8094Y-2.8067
X2.8094Y-2.9567
X2.8281Y-2.1311
X2.8531Y-1.9061
X2.8594Y-2.1817
X2.8594Y-2.7567
X2.8594Y-2.8817
X2.8844Y-2.1567
X2.9594Y-2.9317
X2.9781Y-1.9811
X2.9781Y-2.1811
X3.0531Y-1.7811
X3.0531Y-1.8561
X3.0781Y-2.3811
X3.1031Y-2.9561
X3.1281Y-3.2311
X3.1781Y-2.4061
X3.1781Y-2.8061
X3.2281Y-2.3061
X3.2281Y-2.9061
X3.2531Y-2.1811
X3.2781Y-2.1561
X3.2781Y-2.9061
X3.3031Y-2.1311
X3.3281Y-2.1061
X3.3281Y-2.4061
X3.3281Y-2.9061
X3.3531Y-1.8311
X3.3531Y-2.3061
X3.3781Y-1.8811
X3.3781Y-2.1061
X3.6031Y-2.2347
X3.8281Y-1.8561
X3.8281Y-2.1061
X3.8281Y-2.6311
X3.8281Y-2.8561
T2
X2.3281Y-1.7061
X2.4281Y-1.7061
X2.7031Y-3.2311
X2.8031Y-3.2311
X2.9031Y-3.2311
X3.0031Y-3.2311
T3
X2.1281Y-2.3311
X2.1281Y-2.4811
X2.2281Y-2.3311
X2.2281Y-2.4811
X2.3281Y-1.9811
X2.3281Y-2.0811
X2.3281Y-2.1811
X2.3281Y-2.3311
X2.3281Y-2.4811
X2.3281Y-2.6311
X2.3281Y-2.7311
X2.3281Y-2.8311
X2.4781Y-3.3061
X2.5781Y-3.3061
X2.6031Y-2.6311
X2.6031Y-3.1061
X2.7031Y-2.6311
X2.7031Y-3.1061
X2.8031Y-2.6311
X2.8031Y-3.1061
X2.9031Y-2.6311
X2.9031Y-3.1061
X3.0031Y-3.1061
X3.1031Y-3.1061
X3.4531Y-1.9811
X3.4531Y-2.0811
X3.4531Y-2.1811
X3.4531Y-2.3311
X3.4531Y-2.4811
X3.4531Y-2.6311
X3.4531Y-2.7311
X3.4531Y-2.8311
X3.5531Y-2.3311
X3.5531Y-2.4811
X3.6531Y-2.3311
X3.6531Y-2.4811
T4
X2.1063Y-1.6035
X2.1063Y-3.1783
X3.6811Y-1.6035
X3.6811Y-3.1783
T0
M30
