G04 #@! TF.FileFunction,Soldermask,Bot*
%FSLAX46Y46*%
G04 Gerber Fmt 4.6, Leading zero omitted, Abs format (unit mm)*
G04 Created by KiCad (PCBNEW 4.0.2-stable) date Friday, March 18, 2016 'pmt' 12:09:26 pm*
%MOMM*%
G01*
G04 APERTURE LIST*
%ADD10C,0.100000*%
%ADD11R,2.032000X1.016000*%
%ADD12R,1.016000X2.032000*%
%ADD13R,1.727200X2.032000*%
%ADD14O,1.727200X2.032000*%
%ADD15R,2.032000X2.032000*%
%ADD16O,2.032000X2.032000*%
%ADD17C,3.556000*%
%ADD18C,1.300000*%
%ADD19R,1.300000X1.300000*%
%ADD20C,3.048000*%
G04 APERTURE END LIST*
D10*
D11*
X64375000Y-57955000D03*
X64375000Y-59225000D03*
D12*
X85330000Y-43985000D03*
X86600000Y-43985000D03*
X87870000Y-43985000D03*
D11*
X84695000Y-57955000D03*
X84695000Y-59225000D03*
X84695000Y-60495000D03*
X84695000Y-61765000D03*
X84695000Y-63035000D03*
X84695000Y-64305000D03*
X84695000Y-65575000D03*
X84695000Y-66845000D03*
D12*
X64375000Y-43985000D03*
X63105000Y-43985000D03*
X82155000Y-43985000D03*
X80885000Y-43985000D03*
X68820000Y-43985000D03*
X67550000Y-43985000D03*
X76440000Y-43985000D03*
X77710000Y-43985000D03*
X73265000Y-43985000D03*
X71995000Y-43985000D03*
D13*
X72630000Y-37000000D03*
D14*
X75170000Y-37000000D03*
X77710000Y-37000000D03*
X80250000Y-37000000D03*
X82790000Y-37000000D03*
X85330000Y-37000000D03*
X87870000Y-37000000D03*
D15*
X74535000Y-83990000D03*
D16*
X71995000Y-83990000D03*
D13*
X68820000Y-74465000D03*
D14*
X71360000Y-74465000D03*
X73900000Y-74465000D03*
X76440000Y-74465000D03*
X78980000Y-74465000D03*
X81520000Y-74465000D03*
D17*
X51000000Y-38230000D03*
X96000000Y-38230000D03*
X96000000Y-83230000D03*
X51000000Y-83230000D03*
D10*
G36*
X80600761Y-78275000D02*
X81520000Y-77355761D01*
X82439239Y-78275000D01*
X81520000Y-79194239D01*
X80600761Y-78275000D01*
X80600761Y-78275000D01*
G37*
D18*
X84207006Y-80962006D03*
D19*
X54215000Y-60495000D03*
D18*
X50415000Y-60495000D03*
D19*
X92950000Y-61130000D03*
D18*
X96750000Y-61130000D03*
D13*
X56755000Y-52240000D03*
D20*
X53834000Y-52240000D03*
X50405000Y-52240000D03*
D13*
X56755000Y-43350000D03*
D20*
X53834000Y-43350000D03*
X50405000Y-43350000D03*
D13*
X56755000Y-69385000D03*
D20*
X53834000Y-69385000D03*
X50405000Y-69385000D03*
D13*
X56755000Y-78275000D03*
D20*
X53834000Y-78275000D03*
X50405000Y-78275000D03*
D13*
X90410000Y-78910000D03*
D20*
X93331000Y-78910000D03*
X96760000Y-78910000D03*
D13*
X90410000Y-70020000D03*
D20*
X93331000Y-70020000D03*
X96760000Y-70020000D03*
D13*
X90410000Y-52240000D03*
D20*
X93331000Y-52240000D03*
X96760000Y-52240000D03*
D13*
X90410000Y-43350000D03*
D20*
X93331000Y-43350000D03*
X96760000Y-43350000D03*
M02*
