G04 #@! TF.FileFunction,Copper,L1,Top,Signal*
%FSLAX46Y46*%
G04 Gerber Fmt 4.6, Leading zero omitted, Abs format (unit mm)*
G04 Created by KiCad (PCBNEW 4.0.2-stable) date Friday, March 18, 2016 'pmt' 12:09:26 pm*
%MOMM*%
G01*
G04 APERTURE LIST*
%ADD10C,0.100000*%
%ADD11R,1.000000X0.250000*%
%ADD12R,0.250000X1.000000*%
%ADD13R,1.727200X2.032000*%
%ADD14O,1.727200X2.032000*%
%ADD15R,2.000000X3.000000*%
%ADD16R,2.032000X2.032000*%
%ADD17O,2.032000X2.032000*%
%ADD18R,0.635000X0.889000*%
%ADD19R,0.889000X0.635000*%
%ADD20R,1.500000X1.200000*%
%ADD21C,3.556000*%
%ADD22R,1.000000X1.000000*%
%ADD23R,0.800100X0.800100*%
%ADD24R,1.000760X1.501140*%
%ADD25R,1.998980X2.999740*%
%ADD26C,1.300000*%
%ADD27R,1.300000X1.300000*%
%ADD28C,3.048000*%
%ADD29C,0.685800*%
%ADD30C,0.177800*%
%ADD31C,0.762000*%
%ADD32C,2.540000*%
%ADD33C,3.048000*%
%ADD34C,0.508000*%
%ADD35C,0.304800*%
%ADD36C,0.254000*%
G04 APERTURE END LIST*
D10*
D11*
X68200000Y-42775000D03*
X68200000Y-43275000D03*
X68200000Y-43775000D03*
X68200000Y-44275000D03*
X68200000Y-44775000D03*
X68200000Y-45275000D03*
X68200000Y-45775000D03*
X68200000Y-46275000D03*
X68200000Y-46775000D03*
X68200000Y-47275000D03*
X68200000Y-47775000D03*
X68200000Y-48275000D03*
X68200000Y-48775000D03*
X68200000Y-49275000D03*
X68200000Y-49775000D03*
X68200000Y-50275000D03*
D12*
X70150000Y-52225000D03*
X70650000Y-52225000D03*
X71150000Y-52225000D03*
X71650000Y-52225000D03*
X72150000Y-52225000D03*
X72650000Y-52225000D03*
X73150000Y-52225000D03*
X73650000Y-52225000D03*
X74150000Y-52225000D03*
X74650000Y-52225000D03*
X75150000Y-52225000D03*
X75650000Y-52225000D03*
X76150000Y-52225000D03*
X76650000Y-52225000D03*
X77150000Y-52225000D03*
X77650000Y-52225000D03*
D11*
X79600000Y-50275000D03*
X79600000Y-49775000D03*
X79600000Y-49275000D03*
X79600000Y-48775000D03*
X79600000Y-48275000D03*
X79600000Y-47775000D03*
X79600000Y-47275000D03*
X79600000Y-46775000D03*
X79600000Y-46275000D03*
X79600000Y-45775000D03*
X79600000Y-45275000D03*
X79600000Y-44775000D03*
X79600000Y-44275000D03*
X79600000Y-43775000D03*
X79600000Y-43275000D03*
X79600000Y-42775000D03*
D12*
X77650000Y-40825000D03*
X77150000Y-40825000D03*
X76650000Y-40825000D03*
X76150000Y-40825000D03*
X75650000Y-40825000D03*
X75150000Y-40825000D03*
X74650000Y-40825000D03*
X74150000Y-40825000D03*
X73650000Y-40825000D03*
X73150000Y-40825000D03*
X72650000Y-40825000D03*
X72150000Y-40825000D03*
X71650000Y-40825000D03*
X71150000Y-40825000D03*
X70650000Y-40825000D03*
X70150000Y-40825000D03*
D13*
X72630000Y-37000000D03*
D14*
X75170000Y-37000000D03*
X77710000Y-37000000D03*
X80250000Y-37000000D03*
X82790000Y-37000000D03*
X85330000Y-37000000D03*
X87870000Y-37000000D03*
D15*
X66915000Y-70655000D03*
X69455000Y-70655000D03*
X71995000Y-70655000D03*
X74535000Y-70655000D03*
D16*
X74535000Y-83990000D03*
D17*
X71995000Y-83990000D03*
D13*
X68820000Y-74465000D03*
D14*
X71360000Y-74465000D03*
X73900000Y-74465000D03*
X76440000Y-74465000D03*
X78980000Y-74465000D03*
X81520000Y-74465000D03*
D18*
X66153000Y-39540000D03*
X67677000Y-39540000D03*
X66153000Y-53510000D03*
X67677000Y-53510000D03*
X81647000Y-40810000D03*
X80123000Y-40810000D03*
X66153000Y-40810000D03*
X67677000Y-40810000D03*
X63613000Y-49065000D03*
X65137000Y-49065000D03*
X60438000Y-43985000D03*
X61962000Y-43985000D03*
X61962000Y-45255000D03*
X60438000Y-45255000D03*
X61962000Y-42715000D03*
X60438000Y-42715000D03*
D19*
X83425000Y-53637000D03*
X83425000Y-52113000D03*
X84695000Y-53637000D03*
X84695000Y-52113000D03*
D18*
X61073000Y-37000000D03*
X62597000Y-37000000D03*
D20*
X59000000Y-39230000D03*
X59000000Y-37230000D03*
X56000000Y-37230000D03*
X56000000Y-39230000D03*
D18*
X61073000Y-38270000D03*
X62597000Y-38270000D03*
X61073000Y-39540000D03*
X62597000Y-39540000D03*
D21*
X51000000Y-38230000D03*
X96000000Y-38230000D03*
X96000000Y-83230000D03*
X51000000Y-83230000D03*
D22*
X56735000Y-45890000D03*
X54235000Y-45890000D03*
X90430000Y-45890000D03*
X92930000Y-45890000D03*
X90430000Y-76370000D03*
X92930000Y-76370000D03*
X56735000Y-75735000D03*
X54235000Y-75735000D03*
X56735000Y-54780000D03*
X54235000Y-54780000D03*
X90430000Y-54780000D03*
X92930000Y-54780000D03*
X90430000Y-67480000D03*
X92930000Y-67480000D03*
X56735000Y-66845000D03*
X54235000Y-66845000D03*
D23*
X50039240Y-46210000D03*
X50039240Y-48110000D03*
X52038220Y-47160000D03*
X97125760Y-48110000D03*
X97125760Y-46210000D03*
X95126780Y-47160000D03*
X97125760Y-76050000D03*
X97125760Y-74150000D03*
X95126780Y-75100000D03*
X50039240Y-73515000D03*
X50039240Y-75415000D03*
X52038220Y-74465000D03*
X50039240Y-55100000D03*
X50039240Y-57000000D03*
X52038220Y-56050000D03*
X97125760Y-57000000D03*
X97125760Y-55100000D03*
X95126780Y-56050000D03*
X97125760Y-67160000D03*
X97125760Y-65260000D03*
X95126780Y-66210000D03*
X50039240Y-64625000D03*
X50039240Y-66525000D03*
X52038220Y-65575000D03*
D19*
X56755000Y-47033000D03*
X56755000Y-48557000D03*
X90410000Y-47033000D03*
X90410000Y-48557000D03*
X54215000Y-47033000D03*
X54215000Y-48557000D03*
X55485000Y-48557000D03*
X55485000Y-47033000D03*
X91680000Y-48557000D03*
X91680000Y-47033000D03*
X92950000Y-47033000D03*
X92950000Y-48557000D03*
X90410000Y-75227000D03*
X90410000Y-73703000D03*
X56755000Y-74592000D03*
X56755000Y-73068000D03*
X91680000Y-73703000D03*
X91680000Y-75227000D03*
X92950000Y-75227000D03*
X92950000Y-73703000D03*
X55485000Y-73068000D03*
X55485000Y-74592000D03*
X54215000Y-74592000D03*
X54215000Y-73068000D03*
X56755000Y-55923000D03*
X56755000Y-57447000D03*
X90410000Y-55923000D03*
X90410000Y-57447000D03*
X55485000Y-57447000D03*
X55485000Y-55923000D03*
X54215000Y-55923000D03*
X54215000Y-57447000D03*
X91680000Y-57447000D03*
X91680000Y-55923000D03*
X92950000Y-55923000D03*
X92950000Y-57447000D03*
X90410000Y-66337000D03*
X90410000Y-64813000D03*
X56755000Y-65702000D03*
X56755000Y-64178000D03*
X91680000Y-64813000D03*
X91680000Y-66337000D03*
X92950000Y-66337000D03*
X92950000Y-64813000D03*
X55485000Y-64178000D03*
X55485000Y-65702000D03*
X54215000Y-65702000D03*
X54215000Y-64178000D03*
D18*
X81647000Y-52240000D03*
X80123000Y-52240000D03*
X80123000Y-53510000D03*
X81647000Y-53510000D03*
D24*
X65241140Y-77693340D03*
X63740000Y-77693340D03*
X62238860Y-77693340D03*
D25*
X63740000Y-80644820D03*
D10*
G36*
X62739240Y-79170350D02*
X63239620Y-78421050D01*
X64240380Y-78421050D01*
X64740760Y-79170350D01*
X62739240Y-79170350D01*
X62739240Y-79170350D01*
G37*
D19*
X67550000Y-79672000D03*
X67550000Y-78148000D03*
D18*
X60692000Y-76370000D03*
X59168000Y-76370000D03*
D10*
G36*
X80600761Y-78275000D02*
X81520000Y-77355761D01*
X82439239Y-78275000D01*
X81520000Y-79194239D01*
X80600761Y-78275000D01*
X80600761Y-78275000D01*
G37*
D26*
X84207006Y-80962006D03*
D27*
X54215000Y-60495000D03*
D26*
X50415000Y-60495000D03*
D27*
X92950000Y-61130000D03*
D26*
X96750000Y-61130000D03*
D19*
X68820000Y-38397000D03*
X68820000Y-36873000D03*
X70090000Y-38397000D03*
X70090000Y-36873000D03*
D13*
X56755000Y-52240000D03*
D28*
X53834000Y-52240000D03*
X50405000Y-52240000D03*
D13*
X56755000Y-43350000D03*
D28*
X53834000Y-43350000D03*
X50405000Y-43350000D03*
D13*
X56755000Y-69385000D03*
D28*
X53834000Y-69385000D03*
X50405000Y-69385000D03*
D13*
X56755000Y-78275000D03*
D28*
X53834000Y-78275000D03*
X50405000Y-78275000D03*
D13*
X90410000Y-78910000D03*
D28*
X93331000Y-78910000D03*
X96760000Y-78910000D03*
D13*
X90410000Y-70020000D03*
D28*
X93331000Y-70020000D03*
X96760000Y-70020000D03*
D13*
X90410000Y-52240000D03*
D28*
X93331000Y-52240000D03*
X96760000Y-52240000D03*
D13*
X90410000Y-43350000D03*
D28*
X93331000Y-43350000D03*
X96760000Y-43350000D03*
D29*
X56120000Y-81450000D03*
X56755000Y-80815000D03*
X57390000Y-81450000D03*
X58025000Y-80815000D03*
X58660000Y-80180000D03*
X58660000Y-81450000D03*
X59295000Y-80815000D03*
X59295000Y-79545000D03*
X59930000Y-80180000D03*
X59930000Y-81450000D03*
X60565000Y-80815000D03*
X60565000Y-79545000D03*
X61200000Y-80180000D03*
X61200000Y-81450000D03*
X61835000Y-80815000D03*
X61835000Y-79545000D03*
X62470000Y-80180000D03*
X62470000Y-81450000D03*
X65645000Y-80815000D03*
X65645000Y-79545000D03*
X65010000Y-80180000D03*
X65010000Y-81450000D03*
X68820000Y-52875000D03*
X66280000Y-48430000D03*
X70725000Y-42715000D03*
X77075000Y-50970000D03*
X69455000Y-47795000D03*
X64375000Y-74465000D03*
X65645000Y-74465000D03*
X65010000Y-75100000D03*
X63740000Y-75100000D03*
X64375000Y-75735000D03*
X65645000Y-75735000D03*
X66915000Y-77005000D03*
X66280000Y-77640000D03*
X66280000Y-76370000D03*
X65010000Y-76370000D03*
X67550000Y-77640000D03*
X58025000Y-75735000D03*
X62470000Y-68115000D03*
X66280000Y-42080000D03*
X80885000Y-42715000D03*
X82155000Y-52240000D03*
X81520000Y-54780000D03*
X78980000Y-40810000D03*
X81520000Y-40175000D03*
X65010000Y-53510000D03*
X63105000Y-47795000D03*
X64375000Y-47795000D03*
X82790000Y-41445000D03*
X80250000Y-41445000D03*
X69455000Y-45890000D03*
X75170000Y-39540000D03*
X69455000Y-44620000D03*
X66915000Y-43985000D03*
X73265000Y-43350000D03*
X71995000Y-43350000D03*
X75805000Y-45255000D03*
X76440000Y-42080000D03*
X83425000Y-56685000D03*
X83425000Y-54145000D03*
X78980000Y-56050000D03*
X75170000Y-42080000D03*
X84060000Y-49065000D03*
X84695000Y-49700000D03*
X85330000Y-50335000D03*
X75170000Y-50335000D03*
X73900000Y-50335000D03*
X74535000Y-53510000D03*
X73900000Y-54145000D03*
X72630000Y-50970000D03*
X72630000Y-54145000D03*
X65645000Y-57955000D03*
X71360000Y-54145000D03*
X75805000Y-50970000D03*
X73900000Y-47795000D03*
X75805000Y-46525000D03*
X78345000Y-46525000D03*
X65645000Y-59225000D03*
X71995000Y-56050000D03*
D30*
X63740000Y-80644820D02*
X63275180Y-80644820D01*
X63275180Y-80644820D02*
X62470000Y-81450000D01*
X57390000Y-81450000D02*
X56755000Y-80815000D01*
X58660000Y-80180000D02*
X58025000Y-80815000D01*
X59295000Y-80815000D02*
X58660000Y-81450000D01*
X59930000Y-80180000D02*
X59295000Y-79545000D01*
X60565000Y-80815000D02*
X59930000Y-81450000D01*
X61200000Y-80180000D02*
X60565000Y-79545000D01*
X61835000Y-80815000D02*
X61200000Y-81450000D01*
X62470000Y-80180000D02*
X61835000Y-79545000D01*
X56120000Y-81450000D02*
X55167500Y-82402500D01*
X55167500Y-82402500D02*
X56120000Y-81450000D01*
X56120000Y-81450000D02*
X56120000Y-83355000D01*
X63740000Y-80644820D02*
X64204820Y-80644820D01*
X64204820Y-80644820D02*
X65010000Y-81450000D01*
X65010000Y-80180000D02*
X65645000Y-79545000D01*
D31*
X63740000Y-78795700D02*
X63740000Y-80644820D01*
X63740000Y-77693340D02*
X63740000Y-80644820D01*
D32*
X93331000Y-78910000D02*
X93331000Y-81069000D01*
D33*
X73265000Y-80815000D02*
X76440000Y-80815000D01*
X76440000Y-80815000D02*
X79615000Y-83990000D01*
X79615000Y-83990000D02*
X90410000Y-83990000D01*
X90410000Y-83990000D02*
X92315000Y-82085000D01*
X73265000Y-80815000D02*
X70407500Y-83672500D01*
D32*
X93331000Y-81069000D02*
X92315000Y-82085000D01*
D33*
X70090000Y-83672500D02*
X70407500Y-83672500D01*
X53834000Y-81069000D02*
X53834000Y-78275000D01*
X56437500Y-83672500D02*
X56120000Y-83355000D01*
X56120000Y-83355000D02*
X53834000Y-81069000D01*
X70090000Y-83672500D02*
X56437500Y-83672500D01*
X70407500Y-83672500D02*
X70725000Y-83990000D01*
D32*
X71995000Y-83990000D02*
X70725000Y-83990000D01*
D31*
X92930000Y-54780000D02*
X92930000Y-52641000D01*
X92930000Y-52641000D02*
X93331000Y-52240000D01*
X92930000Y-45890000D02*
X92930000Y-43751000D01*
X92930000Y-43751000D02*
X93331000Y-43350000D01*
X92930000Y-76370000D02*
X92930000Y-78509000D01*
X92930000Y-78509000D02*
X93331000Y-78910000D01*
X92930000Y-67480000D02*
X92930000Y-69619000D01*
X92930000Y-69619000D02*
X93331000Y-70020000D01*
X54235000Y-75735000D02*
X54235000Y-77874000D01*
X54235000Y-77874000D02*
X53834000Y-78275000D01*
X54235000Y-66845000D02*
X54235000Y-68984000D01*
X54235000Y-68984000D02*
X53834000Y-69385000D01*
X54235000Y-45890000D02*
X54235000Y-43751000D01*
X54235000Y-43751000D02*
X53834000Y-43350000D01*
X54235000Y-54780000D02*
X54235000Y-52641000D01*
X54235000Y-52641000D02*
X53834000Y-52240000D01*
D30*
X53580000Y-43350000D02*
X53580000Y-42080000D01*
X59295000Y-42715000D02*
X60438000Y-42715000D01*
X58025000Y-41445000D02*
X59295000Y-42715000D01*
X54215000Y-41445000D02*
X58025000Y-41445000D01*
X53580000Y-42080000D02*
X54215000Y-41445000D01*
D31*
X71868000Y-83863000D02*
X71995000Y-83990000D01*
D30*
X93585000Y-42715000D02*
X93585000Y-43350000D01*
D34*
X53600000Y-69365000D02*
X53580000Y-69385000D01*
D30*
X70650000Y-52225000D02*
X70650000Y-51530000D01*
X68820000Y-51605000D02*
X68820000Y-52875000D01*
X69455000Y-50970000D02*
X68820000Y-51605000D01*
X70090000Y-50970000D02*
X69455000Y-50970000D01*
X70650000Y-51530000D02*
X70090000Y-50970000D01*
X68200000Y-48275000D02*
X66435000Y-48275000D01*
X66435000Y-48275000D02*
X66280000Y-48430000D01*
X70650000Y-40825000D02*
X70650000Y-42640000D01*
X70650000Y-42640000D02*
X70725000Y-42715000D01*
X77150000Y-52225000D02*
X77150000Y-51045000D01*
X77150000Y-51045000D02*
X77075000Y-50970000D01*
X68200000Y-48275000D02*
X68975000Y-48275000D01*
X68975000Y-48275000D02*
X69455000Y-47795000D01*
X65010000Y-76370000D02*
X65645000Y-75735000D01*
X65010000Y-75100000D02*
X65645000Y-74465000D01*
X64375000Y-75735000D02*
X63740000Y-75100000D01*
X65241140Y-77693340D02*
X65241140Y-76601140D01*
X66280000Y-76370000D02*
X66280000Y-77640000D01*
X65241140Y-76601140D02*
X65010000Y-76370000D01*
X67550000Y-78148000D02*
X67550000Y-77640000D01*
D34*
X59168000Y-76370000D02*
X58660000Y-76370000D01*
X58660000Y-76370000D02*
X58025000Y-75735000D01*
D30*
X69455000Y-70655000D02*
X69455000Y-68750000D01*
X69455000Y-68750000D02*
X68820000Y-68115000D01*
X68820000Y-68115000D02*
X62470000Y-68115000D01*
X66153000Y-40810000D02*
X66153000Y-41953000D01*
X66153000Y-41953000D02*
X66280000Y-42080000D01*
X80325000Y-43275000D02*
X80885000Y-42715000D01*
X80325000Y-43275000D02*
X79600000Y-43275000D01*
X81647000Y-52240000D02*
X82155000Y-52240000D01*
X81647000Y-53510000D02*
X81647000Y-54653000D01*
X81647000Y-54653000D02*
X81520000Y-54780000D01*
D35*
X77710000Y-37000000D02*
X78980000Y-38270000D01*
X78980000Y-38270000D02*
X78980000Y-40810000D01*
D30*
X81647000Y-40810000D02*
X81647000Y-40302000D01*
X81647000Y-40302000D02*
X81520000Y-40175000D01*
X66153000Y-53510000D02*
X65010000Y-53510000D01*
X63613000Y-49065000D02*
X63613000Y-48303000D01*
X63613000Y-48303000D02*
X63105000Y-47795000D01*
X66153000Y-39540000D02*
X66153000Y-40810000D01*
X81647000Y-53510000D02*
X81647000Y-52240000D01*
D34*
X68820000Y-75100000D02*
X68820000Y-74465000D01*
X68820000Y-74465000D02*
X68820000Y-71290000D01*
X68820000Y-71290000D02*
X69455000Y-70655000D01*
D30*
X54215000Y-65702000D02*
X53453000Y-65702000D01*
X52310000Y-66845000D02*
X50359240Y-66845000D01*
X53453000Y-65702000D02*
X52310000Y-66845000D01*
X50359240Y-66845000D02*
X50039240Y-66525000D01*
X54215000Y-55923000D02*
X53453000Y-55923000D01*
X53453000Y-55923000D02*
X51040000Y-53510000D01*
X51040000Y-53510000D02*
X51040000Y-52240000D01*
X54215000Y-47033000D02*
X53453000Y-47033000D01*
X51040000Y-44620000D02*
X51040000Y-43350000D01*
X53453000Y-47033000D02*
X51040000Y-44620000D01*
D34*
X70090000Y-54145000D02*
X70725000Y-53510000D01*
D35*
X75805000Y-76370000D02*
X77710000Y-78275000D01*
X73900000Y-76370000D02*
X75805000Y-76370000D01*
X77710000Y-78275000D02*
X81520000Y-78275000D01*
D34*
X60692000Y-76370000D02*
X60692000Y-77132000D01*
X61253340Y-77693340D02*
X62238860Y-77693340D01*
X60692000Y-77132000D02*
X61253340Y-77693340D01*
D31*
X62238860Y-77693340D02*
X62238860Y-74868860D01*
X61835000Y-74465000D02*
X61835000Y-70655000D01*
X62238860Y-74868860D02*
X61835000Y-74465000D01*
D35*
X71150000Y-52225000D02*
X71150000Y-53085000D01*
X71150000Y-53085000D02*
X70725000Y-53510000D01*
D34*
X70090000Y-55415000D02*
X68820000Y-56685000D01*
X70090000Y-54145000D02*
X70090000Y-55415000D01*
D30*
X70725000Y-50335000D02*
X69455000Y-50335000D01*
X67677000Y-52113000D02*
X67677000Y-53510000D01*
X69455000Y-50335000D02*
X67677000Y-52113000D01*
D35*
X70725000Y-50970000D02*
X70725000Y-50335000D01*
X70725000Y-50335000D02*
X70725000Y-49065000D01*
X77075000Y-49065000D02*
X70725000Y-49065000D01*
X77075000Y-49065000D02*
X78345000Y-50335000D01*
X77650000Y-51665000D02*
X78345000Y-50970000D01*
X78345000Y-50970000D02*
X78345000Y-50335000D01*
X77650000Y-51665000D02*
X77650000Y-52225000D01*
X70725000Y-49065000D02*
X69455000Y-49065000D01*
X69165000Y-48775000D02*
X69455000Y-49065000D01*
X69165000Y-48775000D02*
X68200000Y-48775000D01*
D30*
X65137000Y-49065000D02*
X65137000Y-48557000D01*
X65137000Y-48557000D02*
X64375000Y-47795000D01*
D35*
X80123000Y-40810000D02*
X80123000Y-41318000D01*
X83425000Y-41445000D02*
X87870000Y-37000000D01*
X82790000Y-41445000D02*
X83425000Y-41445000D01*
X80123000Y-41318000D02*
X80250000Y-41445000D01*
D30*
X67550000Y-38905000D02*
X67550000Y-39413000D01*
X67550000Y-39413000D02*
X67677000Y-39540000D01*
X67550000Y-37635000D02*
X68185000Y-37000000D01*
X68185000Y-37000000D02*
X68693000Y-37000000D01*
X68693000Y-37000000D02*
X68820000Y-36873000D01*
X63232000Y-36238000D02*
X63613000Y-36238000D01*
X67550000Y-37635000D02*
X67550000Y-38905000D01*
X65010000Y-37635000D02*
X67550000Y-37635000D01*
X63613000Y-36238000D02*
X65010000Y-37635000D01*
X56000000Y-39230000D02*
X55048000Y-39230000D01*
X55104000Y-36238000D02*
X63232000Y-36238000D01*
X54596000Y-36746000D02*
X55104000Y-36238000D01*
X54596000Y-38778000D02*
X54596000Y-36746000D01*
X55048000Y-39230000D02*
X54596000Y-38778000D01*
X70090000Y-36873000D02*
X72503000Y-36873000D01*
X72503000Y-36873000D02*
X72630000Y-37000000D01*
X68820000Y-36873000D02*
X70090000Y-36873000D01*
D35*
X68200000Y-42775000D02*
X69455000Y-42775000D01*
X69455000Y-42775000D02*
X69455000Y-42715000D01*
D30*
X65137000Y-49065000D02*
X66915000Y-49065000D01*
X66915000Y-49065000D02*
X67205000Y-48775000D01*
X67205000Y-48775000D02*
X68200000Y-48775000D01*
D35*
X77075000Y-49065000D02*
X77075000Y-44620000D01*
X77075000Y-44620000D02*
X77075000Y-42715000D01*
X78980000Y-42080000D02*
X77710000Y-42080000D01*
X77710000Y-42080000D02*
X77075000Y-42715000D01*
X79600000Y-42700000D02*
X78980000Y-42080000D01*
X69455000Y-43350000D02*
X70725000Y-44620000D01*
X69455000Y-42715000D02*
X69455000Y-43350000D01*
X70725000Y-49065000D02*
X70725000Y-44620000D01*
D30*
X80123000Y-52240000D02*
X80123000Y-51732000D01*
X83425000Y-51605000D02*
X83425000Y-52113000D01*
X82790000Y-50970000D02*
X83425000Y-51605000D01*
X80885000Y-50970000D02*
X82790000Y-50970000D01*
X80123000Y-51732000D02*
X80885000Y-50970000D01*
X84695000Y-52113000D02*
X83425000Y-52113000D01*
D35*
X73900000Y-76370000D02*
X67550000Y-76370000D01*
X67550000Y-76370000D02*
X66915000Y-75735000D01*
X66915000Y-75735000D02*
X66915000Y-70655000D01*
D34*
X60565000Y-59225000D02*
X60565000Y-57320000D01*
X60565000Y-57320000D02*
X61200000Y-56685000D01*
X61200000Y-56685000D02*
X68820000Y-56685000D01*
X60565000Y-61765000D02*
X61073000Y-62273000D01*
X60565000Y-59225000D02*
X60565000Y-61765000D01*
X61835000Y-70655000D02*
X61073000Y-69893000D01*
X61073000Y-69893000D02*
X61073000Y-62273000D01*
D35*
X70150000Y-40825000D02*
X70150000Y-41385000D01*
X69455000Y-42080000D02*
X69455000Y-42715000D01*
X70150000Y-41385000D02*
X69455000Y-42080000D01*
X79600000Y-42775000D02*
X79600000Y-42700000D01*
X79600000Y-42775000D02*
X79600000Y-41333000D01*
X79600000Y-41333000D02*
X80123000Y-40810000D01*
D30*
X70150000Y-40825000D02*
X70105000Y-40825000D01*
X70105000Y-40825000D02*
X68820000Y-39540000D01*
X68820000Y-39540000D02*
X67677000Y-39540000D01*
X68200000Y-42775000D02*
X68200000Y-42095000D01*
X67677000Y-41572000D02*
X67677000Y-40810000D01*
X68200000Y-42095000D02*
X67677000Y-41572000D01*
D35*
X71150000Y-52225000D02*
X71150000Y-51395000D01*
X71150000Y-51395000D02*
X70725000Y-50970000D01*
D30*
X77650000Y-52225000D02*
X80108000Y-52225000D01*
X80108000Y-52225000D02*
X80123000Y-52240000D01*
D35*
X73900000Y-76370000D02*
X73900000Y-74465000D01*
D34*
X66915000Y-70655000D02*
X66915000Y-71290000D01*
X66280000Y-71290000D02*
X66915000Y-70655000D01*
X61835000Y-70655000D02*
X66915000Y-70655000D01*
D30*
X85330000Y-47160000D02*
X86600000Y-48430000D01*
X79600000Y-47775000D02*
X80905000Y-47775000D01*
X86600000Y-48430000D02*
X86600000Y-49065000D01*
X81520000Y-47160000D02*
X85330000Y-47160000D01*
X80905000Y-47775000D02*
X81520000Y-47160000D01*
X84695000Y-63670000D02*
X86600000Y-65575000D01*
X86600000Y-65575000D02*
X86600000Y-66845000D01*
X84695000Y-58590000D02*
X86600000Y-56685000D01*
X86600000Y-56685000D02*
X86600000Y-55415000D01*
X76440000Y-75735000D02*
X76440000Y-74465000D01*
X86600000Y-66845000D02*
X86600000Y-75735000D01*
X86600000Y-75735000D02*
X85965000Y-76370000D01*
X85965000Y-76370000D02*
X77075000Y-76370000D01*
X77075000Y-76370000D02*
X76440000Y-75735000D01*
X84695000Y-58590000D02*
X84695000Y-63670000D01*
X86600000Y-49065000D02*
X86600000Y-55415000D01*
X79600000Y-48275000D02*
X81040000Y-48275000D01*
X85965000Y-48430000D02*
X85965000Y-49065000D01*
X85330000Y-47795000D02*
X85965000Y-48430000D01*
X81520000Y-47795000D02*
X85330000Y-47795000D01*
X81040000Y-48275000D02*
X81520000Y-47795000D01*
X84060000Y-72560000D02*
X85965000Y-70655000D01*
X84060000Y-63670000D02*
X85965000Y-65575000D01*
X85965000Y-65575000D02*
X85965000Y-67480000D01*
X84060000Y-58590000D02*
X85965000Y-56685000D01*
X85965000Y-56685000D02*
X85965000Y-54780000D01*
X85965000Y-67480000D02*
X85965000Y-70655000D01*
X84060000Y-58590000D02*
X84060000Y-63670000D01*
X85965000Y-49065000D02*
X85965000Y-54780000D01*
X78980000Y-73195000D02*
X78980000Y-74465000D01*
X84060000Y-72560000D02*
X79615000Y-72560000D01*
X79615000Y-72560000D02*
X78980000Y-73195000D01*
X66280000Y-49700000D02*
X66915000Y-49700000D01*
X67340000Y-49275000D02*
X68200000Y-49275000D01*
X66915000Y-49700000D02*
X67340000Y-49275000D01*
X62470000Y-47795000D02*
X61835000Y-47160000D01*
X57263000Y-47033000D02*
X56755000Y-47033000D01*
X57390000Y-47160000D02*
X57263000Y-47033000D01*
X61835000Y-47160000D02*
X57390000Y-47160000D01*
X62470000Y-49700000D02*
X62470000Y-47795000D01*
X63105000Y-50335000D02*
X62470000Y-49700000D01*
X65645000Y-50335000D02*
X63105000Y-50335000D01*
X66280000Y-49700000D02*
X65645000Y-50335000D01*
X56882000Y-47160000D02*
X56755000Y-47033000D01*
X56882000Y-47160000D02*
X56755000Y-47033000D01*
X85330000Y-46525000D02*
X87235000Y-48430000D01*
X80885000Y-46525000D02*
X85330000Y-46525000D01*
X87235000Y-48430000D02*
X87235000Y-49065000D01*
X85330000Y-63670000D02*
X87235000Y-65575000D01*
X87235000Y-65575000D02*
X87235000Y-66210000D01*
X85330000Y-58590000D02*
X87235000Y-56685000D01*
X87235000Y-56685000D02*
X87235000Y-56050000D01*
X80635000Y-46275000D02*
X80885000Y-46525000D01*
X87235000Y-49065000D02*
X87235000Y-56050000D01*
X79600000Y-46275000D02*
X80635000Y-46275000D01*
X85330000Y-58590000D02*
X85330000Y-63670000D01*
X87870000Y-75100000D02*
X90283000Y-75100000D01*
X87235000Y-66210000D02*
X87235000Y-74465000D01*
X87235000Y-74465000D02*
X87870000Y-75100000D01*
X90283000Y-75100000D02*
X90410000Y-75227000D01*
X87870000Y-47160000D02*
X90283000Y-47160000D01*
X90283000Y-47160000D02*
X90410000Y-47033000D01*
X79600000Y-44775000D02*
X80730000Y-44775000D01*
X80730000Y-44775000D02*
X80885000Y-44620000D01*
X90283000Y-47160000D02*
X90410000Y-47033000D01*
X85330000Y-44620000D02*
X87870000Y-47160000D01*
X80885000Y-44620000D02*
X85330000Y-44620000D01*
X69455000Y-54780000D02*
X68185000Y-56050000D01*
X70150000Y-52225000D02*
X70150000Y-52815000D01*
X60565000Y-56050000D02*
X59930000Y-56685000D01*
X68185000Y-56050000D02*
X60565000Y-56050000D01*
X69455000Y-53510000D02*
X69455000Y-54780000D01*
X70150000Y-52815000D02*
X69455000Y-53510000D01*
X56882000Y-74465000D02*
X59295000Y-74465000D01*
X59930000Y-56685000D02*
X59930000Y-73830000D01*
X59930000Y-73830000D02*
X59295000Y-74465000D01*
X56882000Y-74465000D02*
X56755000Y-74592000D01*
X56882000Y-74465000D02*
X56755000Y-74592000D01*
X63105000Y-45255000D02*
X65010000Y-47160000D01*
X65010000Y-47160000D02*
X65645000Y-47795000D01*
X61962000Y-42715000D02*
X61962000Y-43985000D01*
X68200000Y-47775000D02*
X66935000Y-47775000D01*
X66915000Y-47795000D02*
X65645000Y-47795000D01*
X66935000Y-47775000D02*
X66915000Y-47795000D01*
X62470000Y-43985000D02*
X61962000Y-43985000D01*
X63105000Y-44620000D02*
X62470000Y-43985000D01*
X63105000Y-45255000D02*
X63105000Y-44620000D01*
X61073000Y-39540000D02*
X59310000Y-39540000D01*
X59310000Y-39540000D02*
X59000000Y-39230000D01*
X60438000Y-43985000D02*
X60438000Y-45255000D01*
X65010000Y-42715000D02*
X65010000Y-45255000D01*
X65645000Y-45890000D02*
X66915000Y-45890000D01*
X65010000Y-45255000D02*
X65645000Y-45890000D01*
X68200000Y-46275000D02*
X67300000Y-46275000D01*
X67300000Y-46275000D02*
X66915000Y-45890000D01*
X64375000Y-38905000D02*
X64375000Y-42080000D01*
X64375000Y-42080000D02*
X65010000Y-42715000D01*
X63105000Y-37000000D02*
X62597000Y-37000000D01*
X63740000Y-37635000D02*
X63105000Y-37000000D01*
X63740000Y-38270000D02*
X63740000Y-37635000D01*
X64375000Y-38905000D02*
X63740000Y-38270000D01*
X61073000Y-37000000D02*
X59230000Y-37000000D01*
X59230000Y-37000000D02*
X59000000Y-37230000D01*
X61073000Y-38270000D02*
X57390000Y-38270000D01*
X57390000Y-38270000D02*
X56350000Y-37230000D01*
X56350000Y-37230000D02*
X56000000Y-37230000D01*
X64375000Y-45255000D02*
X65645000Y-46525000D01*
X64375000Y-43350000D02*
X64375000Y-45255000D01*
X65645000Y-46525000D02*
X66915000Y-46525000D01*
X68200000Y-46775000D02*
X67165000Y-46775000D01*
X67165000Y-46775000D02*
X66915000Y-46525000D01*
X63740000Y-38905000D02*
X63740000Y-42715000D01*
X64375000Y-43350000D02*
X63740000Y-42715000D01*
X67165000Y-46775000D02*
X66915000Y-46525000D01*
X63105000Y-38270000D02*
X62597000Y-38270000D01*
X63740000Y-38905000D02*
X63105000Y-38270000D01*
X63740000Y-45255000D02*
X65645000Y-47160000D01*
X63740000Y-43985000D02*
X63740000Y-45255000D01*
X65645000Y-47160000D02*
X66915000Y-47160000D01*
X63105000Y-43350000D02*
X63105000Y-40048000D01*
X63105000Y-40048000D02*
X62597000Y-39540000D01*
X63740000Y-43985000D02*
X63105000Y-43350000D01*
X62470000Y-39667000D02*
X62597000Y-39540000D01*
X68200000Y-47275000D02*
X67030000Y-47275000D01*
X67030000Y-47275000D02*
X66915000Y-47160000D01*
X68200000Y-49775000D02*
X67475000Y-49775000D01*
X59295000Y-51605000D02*
X58660000Y-52240000D01*
X66280000Y-51605000D02*
X59295000Y-51605000D01*
X66915000Y-50970000D02*
X66280000Y-51605000D01*
X66915000Y-50335000D02*
X66915000Y-50970000D01*
X67475000Y-49775000D02*
X66915000Y-50335000D01*
X56882000Y-56050000D02*
X56755000Y-55923000D01*
X58660000Y-52240000D02*
X58660000Y-55415000D01*
X58025000Y-56050000D02*
X56882000Y-56050000D01*
X58660000Y-55415000D02*
X58025000Y-56050000D01*
X56882000Y-56050000D02*
X56755000Y-55923000D01*
X85330000Y-45255000D02*
X88505000Y-48430000D01*
X80885000Y-45255000D02*
X85330000Y-45255000D01*
X88505000Y-48430000D02*
X88505000Y-49065000D01*
X79600000Y-45275000D02*
X80865000Y-45275000D01*
X80865000Y-45275000D02*
X80885000Y-45255000D01*
X89140000Y-56050000D02*
X90283000Y-56050000D01*
X88505000Y-55415000D02*
X89140000Y-56050000D01*
X88505000Y-49065000D02*
X88505000Y-55415000D01*
X90283000Y-56050000D02*
X90410000Y-55923000D01*
X85330000Y-45890000D02*
X87870000Y-48430000D01*
X80885000Y-45890000D02*
X85330000Y-45890000D01*
X87870000Y-48430000D02*
X87870000Y-49065000D01*
X79600000Y-45775000D02*
X80770000Y-45775000D01*
X87870000Y-49065000D02*
X87870000Y-56685000D01*
X80770000Y-45775000D02*
X80885000Y-45890000D01*
X87870000Y-56685000D02*
X85965000Y-58590000D01*
X85965000Y-63670000D02*
X88505000Y-66210000D01*
X85965000Y-58590000D02*
X85965000Y-63670000D01*
X88505000Y-66210000D02*
X90283000Y-66210000D01*
X90283000Y-66210000D02*
X90410000Y-66337000D01*
X68200000Y-50275000D02*
X68200000Y-50955000D01*
X59930000Y-52240000D02*
X59295000Y-52875000D01*
X66915000Y-52240000D02*
X59930000Y-52240000D01*
X68200000Y-50955000D02*
X66915000Y-52240000D01*
X56882000Y-65575000D02*
X58660000Y-65575000D01*
X59295000Y-52875000D02*
X59295000Y-64940000D01*
X59295000Y-64940000D02*
X58660000Y-65575000D01*
X56882000Y-65575000D02*
X56755000Y-65702000D01*
X56882000Y-65575000D02*
X56755000Y-65702000D01*
D31*
X56735000Y-45890000D02*
X56735000Y-43370000D01*
X56735000Y-43370000D02*
X56755000Y-43350000D01*
D30*
X55485000Y-47033000D02*
X55485000Y-47160000D01*
D34*
X55485000Y-47160000D02*
X54850000Y-47795000D01*
X52673220Y-47795000D02*
X52038220Y-47160000D01*
X54850000Y-47795000D02*
X52673220Y-47795000D01*
X56735000Y-45890000D02*
X56120000Y-45890000D01*
X56120000Y-45890000D02*
X55485000Y-46525000D01*
X55485000Y-46525000D02*
X55485000Y-47033000D01*
D31*
X90430000Y-45890000D02*
X90430000Y-43370000D01*
X90430000Y-43370000D02*
X90410000Y-43350000D01*
D34*
X94491780Y-47795000D02*
X95126780Y-47160000D01*
X92315000Y-47795000D02*
X94491780Y-47795000D01*
X91680000Y-47160000D02*
X92315000Y-47795000D01*
D30*
X91680000Y-47033000D02*
X91680000Y-47160000D01*
D34*
X91680000Y-46525000D02*
X91045000Y-45890000D01*
X91045000Y-45890000D02*
X90430000Y-45890000D01*
X91680000Y-47033000D02*
X91680000Y-46525000D01*
D31*
X90430000Y-76370000D02*
X90430000Y-78890000D01*
X90430000Y-78890000D02*
X90410000Y-78910000D01*
D34*
X91680000Y-75227000D02*
X91680000Y-75735000D01*
X91045000Y-76370000D02*
X90430000Y-76370000D01*
X91680000Y-75735000D02*
X91045000Y-76370000D01*
D30*
X91680000Y-75227000D02*
X91680000Y-75100000D01*
D34*
X91680000Y-75100000D02*
X92315000Y-74465000D01*
X92315000Y-74465000D02*
X94491780Y-74465000D01*
X94491780Y-74465000D02*
X95126780Y-75100000D01*
D31*
X56735000Y-75735000D02*
X56735000Y-78255000D01*
X56735000Y-78255000D02*
X56755000Y-78275000D01*
D34*
X55485000Y-74592000D02*
X55485000Y-75100000D01*
X56120000Y-75735000D02*
X56735000Y-75735000D01*
X55485000Y-75100000D02*
X56120000Y-75735000D01*
D30*
X55485000Y-74592000D02*
X55485000Y-74465000D01*
D34*
X55485000Y-74465000D02*
X54850000Y-73830000D01*
X52673220Y-73830000D02*
X52038220Y-74465000D01*
X54850000Y-73830000D02*
X52673220Y-73830000D01*
D31*
X56735000Y-54780000D02*
X56735000Y-52260000D01*
X56735000Y-52260000D02*
X56755000Y-52240000D01*
D30*
X55485000Y-55923000D02*
X55485000Y-56050000D01*
D34*
X55485000Y-56050000D02*
X54850000Y-56685000D01*
X52673220Y-56685000D02*
X52038220Y-56050000D01*
X54850000Y-56685000D02*
X52673220Y-56685000D01*
X55485000Y-55415000D02*
X55485000Y-55923000D01*
X56120000Y-54780000D02*
X55485000Y-55415000D01*
X56735000Y-54780000D02*
X56120000Y-54780000D01*
D31*
X90430000Y-54780000D02*
X90430000Y-52260000D01*
X90430000Y-52260000D02*
X90410000Y-52240000D01*
D34*
X91680000Y-55923000D02*
X91680000Y-55415000D01*
X91045000Y-54780000D02*
X90430000Y-54780000D01*
X91680000Y-55415000D02*
X91045000Y-54780000D01*
D30*
X91680000Y-55923000D02*
X91680000Y-56050000D01*
D34*
X91680000Y-56050000D02*
X92315000Y-56685000D01*
X92315000Y-56685000D02*
X94491780Y-56685000D01*
X94491780Y-56685000D02*
X95126780Y-56050000D01*
D31*
X90430000Y-67480000D02*
X90430000Y-70000000D01*
X90430000Y-70000000D02*
X90410000Y-70020000D01*
D34*
X94491780Y-65575000D02*
X95126780Y-66210000D01*
X92315000Y-65575000D02*
X94491780Y-65575000D01*
X91680000Y-66210000D02*
X92315000Y-65575000D01*
D30*
X91680000Y-66337000D02*
X91680000Y-66210000D01*
D34*
X91680000Y-66845000D02*
X91045000Y-67480000D01*
X91045000Y-67480000D02*
X90430000Y-67480000D01*
X91680000Y-66337000D02*
X91680000Y-66845000D01*
D31*
X56735000Y-66845000D02*
X56735000Y-69365000D01*
X56735000Y-69365000D02*
X56755000Y-69385000D01*
D30*
X55485000Y-65702000D02*
X55485000Y-65575000D01*
D34*
X55485000Y-65575000D02*
X54850000Y-64940000D01*
X52673220Y-64940000D02*
X52038220Y-65575000D01*
X54850000Y-64940000D02*
X52673220Y-64940000D01*
X55485000Y-65702000D02*
X55485000Y-66210000D01*
X55485000Y-66210000D02*
X56120000Y-66845000D01*
X56120000Y-66845000D02*
X56735000Y-66845000D01*
D30*
X54215000Y-48557000D02*
X51802000Y-48557000D01*
X50039240Y-46794240D02*
X50039240Y-46210000D01*
X51802000Y-48557000D02*
X50039240Y-46794240D01*
X54088000Y-48430000D02*
X54215000Y-48557000D01*
X55485000Y-48557000D02*
X54215000Y-48557000D01*
X56755000Y-48557000D02*
X55485000Y-48557000D01*
X90410000Y-48557000D02*
X91680000Y-48557000D01*
X91680000Y-48557000D02*
X92950000Y-48557000D01*
X96678760Y-48557000D02*
X97125760Y-48110000D01*
X92950000Y-48557000D02*
X96678760Y-48557000D01*
X92950000Y-73703000D02*
X95363000Y-73703000D01*
X97125760Y-75465760D02*
X97125760Y-76050000D01*
X95363000Y-73703000D02*
X97125760Y-75465760D01*
X91680000Y-73703000D02*
X92950000Y-73703000D01*
X90410000Y-73703000D02*
X91680000Y-73703000D01*
X54215000Y-73068000D02*
X50486240Y-73068000D01*
X50486240Y-73068000D02*
X50039240Y-73515000D01*
X55485000Y-73068000D02*
X54215000Y-73068000D01*
X56755000Y-73068000D02*
X55485000Y-73068000D01*
X54215000Y-57447000D02*
X51802000Y-57447000D01*
X50039240Y-55684240D02*
X50039240Y-55100000D01*
X51802000Y-57447000D02*
X50039240Y-55684240D01*
X56755000Y-57447000D02*
X55485000Y-57447000D01*
X55485000Y-57447000D02*
X54215000Y-57447000D01*
X54088000Y-57320000D02*
X54215000Y-57447000D01*
X92950000Y-57447000D02*
X96678760Y-57447000D01*
X96678760Y-57447000D02*
X97125760Y-57000000D01*
X91680000Y-57447000D02*
X92950000Y-57447000D01*
X90410000Y-57447000D02*
X91680000Y-57447000D01*
X90410000Y-64813000D02*
X91680000Y-64813000D01*
X91680000Y-64813000D02*
X92950000Y-64813000D01*
X95363000Y-64813000D02*
X97125760Y-66575760D01*
X97125760Y-66575760D02*
X97125760Y-67160000D01*
X92950000Y-64813000D02*
X95363000Y-64813000D01*
X54215000Y-64178000D02*
X50486240Y-64178000D01*
X50486240Y-64178000D02*
X50039240Y-64625000D01*
X55485000Y-64178000D02*
X54215000Y-64178000D01*
X56755000Y-64178000D02*
X55485000Y-64178000D01*
X77650000Y-40825000D02*
X77650000Y-39480000D01*
X75170000Y-38270000D02*
X75170000Y-37000000D01*
X75805000Y-38905000D02*
X75170000Y-38270000D01*
X77075000Y-38905000D02*
X75805000Y-38905000D01*
X77650000Y-39480000D02*
X77075000Y-38905000D01*
X79600000Y-43775000D02*
X81095000Y-43775000D01*
X80885000Y-41445000D02*
X80885000Y-39540000D01*
X81520000Y-42080000D02*
X80885000Y-41445000D01*
X81520000Y-43350000D02*
X81520000Y-42080000D01*
X81095000Y-43775000D02*
X81520000Y-43350000D01*
X80250000Y-38905000D02*
X80250000Y-37000000D01*
X80885000Y-39540000D02*
X80250000Y-38905000D01*
X69455000Y-45890000D02*
X69340000Y-45775000D01*
X68200000Y-45775000D02*
X69340000Y-45775000D01*
X74650000Y-40825000D02*
X74650000Y-40060000D01*
X74650000Y-40060000D02*
X75170000Y-39540000D01*
X76650000Y-52225000D02*
X76650000Y-53085000D01*
X77075000Y-53510000D02*
X80123000Y-53510000D01*
X76650000Y-53085000D02*
X77075000Y-53510000D01*
X68200000Y-43775000D02*
X69245000Y-43775000D01*
X69455000Y-43985000D02*
X69455000Y-44620000D01*
X69245000Y-43775000D02*
X69455000Y-43985000D01*
X68200000Y-44275000D02*
X67205000Y-44275000D01*
X67205000Y-44275000D02*
X66915000Y-43985000D01*
X71650000Y-40825000D02*
X71650000Y-39195000D01*
X70852000Y-38397000D02*
X70090000Y-38397000D01*
X71650000Y-39195000D02*
X70852000Y-38397000D01*
X71650000Y-40825000D02*
X71650000Y-41735000D01*
X71650000Y-41735000D02*
X73265000Y-43350000D01*
X71150000Y-40825000D02*
X71150000Y-39965000D01*
X68820000Y-38905000D02*
X68820000Y-38397000D01*
X69455000Y-39540000D02*
X68820000Y-38905000D01*
X70725000Y-39540000D02*
X69455000Y-39540000D01*
X71150000Y-39965000D02*
X70725000Y-39540000D01*
X71150000Y-40825000D02*
X71150000Y-41870000D01*
X71360000Y-42715000D02*
X71995000Y-43350000D01*
X71360000Y-42080000D02*
X71360000Y-42715000D01*
X71150000Y-41870000D02*
X71360000Y-42080000D01*
X72650000Y-40825000D02*
X72650000Y-41425000D01*
X74535000Y-45255000D02*
X75805000Y-45255000D01*
X73900000Y-44620000D02*
X74535000Y-45255000D01*
X73900000Y-42675000D02*
X73900000Y-44620000D01*
X72650000Y-41425000D02*
X73900000Y-42675000D01*
X73150000Y-41330000D02*
X74535000Y-42715000D01*
X74535000Y-42715000D02*
X75805000Y-42715000D01*
X75805000Y-42715000D02*
X76440000Y-42080000D01*
X73150000Y-40825000D02*
X73150000Y-41330000D01*
X76150000Y-52225000D02*
X76150000Y-53220000D01*
X76150000Y-53220000D02*
X78345000Y-55415000D01*
X78980000Y-71925000D02*
X78345000Y-72560000D01*
X84060000Y-71925000D02*
X78980000Y-71925000D01*
X71995000Y-71290000D02*
X73265000Y-72560000D01*
X78345000Y-72560000D02*
X73265000Y-72560000D01*
X85330000Y-65575000D02*
X85330000Y-68115000D01*
X85330000Y-68115000D02*
X85330000Y-70655000D01*
X83425000Y-56685000D02*
X83425000Y-63670000D01*
X83425000Y-63670000D02*
X85330000Y-65575000D01*
X84060000Y-71925000D02*
X85330000Y-70655000D01*
X78345000Y-55415000D02*
X82790000Y-55415000D01*
X83425000Y-54780000D02*
X83425000Y-54145000D01*
X82790000Y-55415000D02*
X83425000Y-54780000D01*
X83425000Y-54145000D02*
X83425000Y-53637000D01*
X71995000Y-70655000D02*
X71995000Y-71290000D01*
X82790000Y-56050000D02*
X82790000Y-58590000D01*
X82790000Y-58590000D02*
X82790000Y-63670000D01*
X82790000Y-63670000D02*
X84695000Y-65575000D01*
X84695000Y-65575000D02*
X84695000Y-68750000D01*
X75805000Y-71925000D02*
X74535000Y-70655000D01*
X84695000Y-68750000D02*
X84695000Y-70655000D01*
X84695000Y-70655000D02*
X84060000Y-71290000D01*
X84060000Y-71290000D02*
X78345000Y-71290000D01*
X78345000Y-71290000D02*
X77710000Y-71925000D01*
X77710000Y-71925000D02*
X75805000Y-71925000D01*
X82790000Y-56050000D02*
X84695000Y-54145000D01*
X84695000Y-54145000D02*
X84695000Y-53637000D01*
X78980000Y-56050000D02*
X82790000Y-56050000D01*
X75150000Y-42060000D02*
X75150000Y-40825000D01*
X75170000Y-42080000D02*
X75150000Y-42060000D01*
X79600000Y-48775000D02*
X80595000Y-48775000D01*
X80885000Y-49065000D02*
X84060000Y-49065000D01*
X80595000Y-48775000D02*
X80885000Y-49065000D01*
X79600000Y-49275000D02*
X80460000Y-49275000D01*
X80885000Y-49700000D02*
X84695000Y-49700000D01*
X80460000Y-49275000D02*
X80885000Y-49700000D01*
X80885000Y-50335000D02*
X85330000Y-50335000D01*
X79600000Y-49775000D02*
X80325000Y-49775000D01*
X80325000Y-49775000D02*
X80885000Y-50335000D01*
X75170000Y-50335000D02*
X75170000Y-51605000D01*
X75150000Y-51625000D02*
X75150000Y-52225000D01*
X75170000Y-51605000D02*
X75150000Y-51625000D01*
X74650000Y-51085000D02*
X74650000Y-52225000D01*
X73900000Y-50335000D02*
X74650000Y-51085000D01*
X74150000Y-52225000D02*
X74150000Y-53125000D01*
X74150000Y-53125000D02*
X74535000Y-53510000D01*
X73650000Y-52225000D02*
X73650000Y-53895000D01*
X73650000Y-53895000D02*
X73900000Y-54145000D01*
X73150000Y-51490000D02*
X73150000Y-52225000D01*
X72630000Y-50970000D02*
X73150000Y-51490000D01*
X72650000Y-52225000D02*
X72650000Y-54125000D01*
X72650000Y-54125000D02*
X72630000Y-54145000D01*
X65645000Y-57955000D02*
X68820000Y-57955000D01*
X68820000Y-57955000D02*
X71995000Y-54780000D01*
X72150000Y-52225000D02*
X72150000Y-53355000D01*
X71995000Y-53510000D02*
X71995000Y-54780000D01*
X72150000Y-53355000D02*
X71995000Y-53510000D01*
X71360000Y-54145000D02*
X71360000Y-53510000D01*
X71650000Y-53220000D02*
X71650000Y-52225000D01*
X71360000Y-53510000D02*
X71650000Y-53220000D01*
X75650000Y-52225000D02*
X75650000Y-51125000D01*
X75650000Y-51125000D02*
X75805000Y-50970000D01*
X74535000Y-47795000D02*
X75805000Y-46525000D01*
X73900000Y-47795000D02*
X74535000Y-47795000D01*
X79600000Y-46775000D02*
X78595000Y-46775000D01*
X78595000Y-46775000D02*
X78345000Y-46525000D01*
X68820000Y-59225000D02*
X65645000Y-59225000D01*
X71995000Y-56050000D02*
X68820000Y-59225000D01*
D36*
G36*
X55502936Y-79291000D02*
X55529503Y-79432190D01*
X55612946Y-79561865D01*
X55740266Y-79648859D01*
X55891400Y-79679464D01*
X57618600Y-79679464D01*
X57759790Y-79652897D01*
X57889465Y-79569454D01*
X57976459Y-79442134D01*
X58007064Y-79291000D01*
X58007064Y-79037000D01*
X80813389Y-79037000D01*
X81245314Y-79468925D01*
X81363936Y-79549975D01*
X81514633Y-79582666D01*
X81666176Y-79554151D01*
X81794686Y-79468925D01*
X82226611Y-79037000D01*
X89157936Y-79037000D01*
X89157936Y-79926000D01*
X89184503Y-80067190D01*
X89267946Y-80196865D01*
X89395266Y-80283859D01*
X89546400Y-80314464D01*
X91273600Y-80314464D01*
X91414790Y-80287897D01*
X91544465Y-80204454D01*
X91631459Y-80077134D01*
X91662064Y-79926000D01*
X91662064Y-79037000D01*
X94854889Y-79037000D01*
X94854670Y-79287265D01*
X95144078Y-79987686D01*
X95679495Y-80524039D01*
X96379410Y-80814668D01*
X97137265Y-80815330D01*
X97837686Y-80525922D01*
X98069000Y-80295012D01*
X98069000Y-82583711D01*
X97831378Y-82008623D01*
X97224572Y-81400756D01*
X96431336Y-81071376D01*
X95572433Y-81070626D01*
X94778623Y-81398622D01*
X94170756Y-82005428D01*
X93841376Y-82798664D01*
X93840626Y-83657567D01*
X94168622Y-84451377D01*
X94775428Y-85059244D01*
X95352825Y-85299000D01*
X75799260Y-85299000D01*
X75821865Y-85284454D01*
X75908859Y-85157134D01*
X75939464Y-85006000D01*
X75939464Y-82974000D01*
X75912897Y-82832810D01*
X75829454Y-82703135D01*
X75702134Y-82616141D01*
X75551000Y-82585536D01*
X73519000Y-82585536D01*
X73377810Y-82612103D01*
X73248135Y-82695546D01*
X73161141Y-82822866D01*
X73130536Y-82974000D01*
X73130536Y-85006000D01*
X73157103Y-85147190D01*
X73240546Y-85276865D01*
X73272942Y-85299000D01*
X51646289Y-85299000D01*
X52221377Y-85061378D01*
X52829244Y-84454572D01*
X53158624Y-83661336D01*
X53159374Y-82802433D01*
X52831378Y-82008623D01*
X52224572Y-81400756D01*
X51659662Y-81166185D01*
X83175828Y-81166185D01*
X83332457Y-81545257D01*
X83622229Y-81835535D01*
X84001028Y-81992826D01*
X84411185Y-81993184D01*
X84790257Y-81836555D01*
X85080535Y-81546783D01*
X85237826Y-81167984D01*
X85238184Y-80757827D01*
X85081555Y-80378755D01*
X84791783Y-80088477D01*
X84412984Y-79931186D01*
X84002827Y-79930828D01*
X83623755Y-80087457D01*
X83333477Y-80377229D01*
X83176186Y-80756028D01*
X83175828Y-81166185D01*
X51659662Y-81166185D01*
X51431336Y-81071376D01*
X50572433Y-81070626D01*
X49778623Y-81398622D01*
X49170756Y-82005428D01*
X48931000Y-82582825D01*
X48931000Y-79494856D01*
X49324495Y-79889039D01*
X50024410Y-80179668D01*
X50782265Y-80180330D01*
X51482686Y-79890922D01*
X52019039Y-79355505D01*
X52151293Y-79037000D01*
X55502936Y-79037000D01*
X55502936Y-79291000D01*
X55502936Y-79291000D01*
G37*
X55502936Y-79291000D02*
X55529503Y-79432190D01*
X55612946Y-79561865D01*
X55740266Y-79648859D01*
X55891400Y-79679464D01*
X57618600Y-79679464D01*
X57759790Y-79652897D01*
X57889465Y-79569454D01*
X57976459Y-79442134D01*
X58007064Y-79291000D01*
X58007064Y-79037000D01*
X80813389Y-79037000D01*
X81245314Y-79468925D01*
X81363936Y-79549975D01*
X81514633Y-79582666D01*
X81666176Y-79554151D01*
X81794686Y-79468925D01*
X82226611Y-79037000D01*
X89157936Y-79037000D01*
X89157936Y-79926000D01*
X89184503Y-80067190D01*
X89267946Y-80196865D01*
X89395266Y-80283859D01*
X89546400Y-80314464D01*
X91273600Y-80314464D01*
X91414790Y-80287897D01*
X91544465Y-80204454D01*
X91631459Y-80077134D01*
X91662064Y-79926000D01*
X91662064Y-79037000D01*
X94854889Y-79037000D01*
X94854670Y-79287265D01*
X95144078Y-79987686D01*
X95679495Y-80524039D01*
X96379410Y-80814668D01*
X97137265Y-80815330D01*
X97837686Y-80525922D01*
X98069000Y-80295012D01*
X98069000Y-82583711D01*
X97831378Y-82008623D01*
X97224572Y-81400756D01*
X96431336Y-81071376D01*
X95572433Y-81070626D01*
X94778623Y-81398622D01*
X94170756Y-82005428D01*
X93841376Y-82798664D01*
X93840626Y-83657567D01*
X94168622Y-84451377D01*
X94775428Y-85059244D01*
X95352825Y-85299000D01*
X75799260Y-85299000D01*
X75821865Y-85284454D01*
X75908859Y-85157134D01*
X75939464Y-85006000D01*
X75939464Y-82974000D01*
X75912897Y-82832810D01*
X75829454Y-82703135D01*
X75702134Y-82616141D01*
X75551000Y-82585536D01*
X73519000Y-82585536D01*
X73377810Y-82612103D01*
X73248135Y-82695546D01*
X73161141Y-82822866D01*
X73130536Y-82974000D01*
X73130536Y-85006000D01*
X73157103Y-85147190D01*
X73240546Y-85276865D01*
X73272942Y-85299000D01*
X51646289Y-85299000D01*
X52221377Y-85061378D01*
X52829244Y-84454572D01*
X53158624Y-83661336D01*
X53159374Y-82802433D01*
X52831378Y-82008623D01*
X52224572Y-81400756D01*
X51659662Y-81166185D01*
X83175828Y-81166185D01*
X83332457Y-81545257D01*
X83622229Y-81835535D01*
X84001028Y-81992826D01*
X84411185Y-81993184D01*
X84790257Y-81836555D01*
X85080535Y-81546783D01*
X85237826Y-81167984D01*
X85238184Y-80757827D01*
X85081555Y-80378755D01*
X84791783Y-80088477D01*
X84412984Y-79931186D01*
X84002827Y-79930828D01*
X83623755Y-80087457D01*
X83333477Y-80377229D01*
X83176186Y-80756028D01*
X83175828Y-81166185D01*
X51659662Y-81166185D01*
X51431336Y-81071376D01*
X50572433Y-81070626D01*
X49778623Y-81398622D01*
X49170756Y-82005428D01*
X48931000Y-82582825D01*
X48931000Y-79494856D01*
X49324495Y-79889039D01*
X50024410Y-80179668D01*
X50782265Y-80180330D01*
X51482686Y-79890922D01*
X52019039Y-79355505D01*
X52151293Y-79037000D01*
X55502936Y-79037000D01*
X55502936Y-79291000D01*
G36*
X65526536Y-72155000D02*
X65553103Y-72296190D01*
X65636546Y-72425865D01*
X65763866Y-72512859D01*
X65915000Y-72543464D01*
X66381600Y-72543464D01*
X66381600Y-75735000D01*
X66422203Y-75939123D01*
X66537829Y-76112171D01*
X67172827Y-76747168D01*
X67172829Y-76747171D01*
X67311609Y-76839900D01*
X67345877Y-76862797D01*
X67550000Y-76903401D01*
X67550005Y-76903400D01*
X75584058Y-76903400D01*
X76828658Y-78148000D01*
X64628844Y-78148000D01*
X64628844Y-76942770D01*
X64602277Y-76801580D01*
X64518834Y-76671905D01*
X64391514Y-76584911D01*
X64240380Y-76554306D01*
X63239620Y-76554306D01*
X63098430Y-76580873D01*
X63000860Y-76643657D01*
X63000860Y-74868860D01*
X62942856Y-74577255D01*
X62900147Y-74513336D01*
X62777675Y-74330044D01*
X62597000Y-74149369D01*
X62597000Y-71290000D01*
X65526536Y-71290000D01*
X65526536Y-72155000D01*
X65526536Y-72155000D01*
G37*
X65526536Y-72155000D02*
X65553103Y-72296190D01*
X65636546Y-72425865D01*
X65763866Y-72512859D01*
X65915000Y-72543464D01*
X66381600Y-72543464D01*
X66381600Y-75735000D01*
X66422203Y-75939123D01*
X66537829Y-76112171D01*
X67172827Y-76747168D01*
X67172829Y-76747171D01*
X67311609Y-76839900D01*
X67345877Y-76862797D01*
X67550000Y-76903401D01*
X67550005Y-76903400D01*
X75584058Y-76903400D01*
X76828658Y-78148000D01*
X64628844Y-78148000D01*
X64628844Y-76942770D01*
X64602277Y-76801580D01*
X64518834Y-76671905D01*
X64391514Y-76584911D01*
X64240380Y-76554306D01*
X63239620Y-76554306D01*
X63098430Y-76580873D01*
X63000860Y-76643657D01*
X63000860Y-74868860D01*
X62942856Y-74577255D01*
X62900147Y-74513336D01*
X62777675Y-74330044D01*
X62597000Y-74149369D01*
X62597000Y-71290000D01*
X65526536Y-71290000D01*
X65526536Y-72155000D01*
G36*
X60438000Y-62536025D02*
X60438000Y-69893000D01*
X60486336Y-70136004D01*
X60623987Y-70342013D01*
X61073000Y-70791026D01*
X61073000Y-74465000D01*
X61131004Y-74756605D01*
X61226237Y-74899131D01*
X61296185Y-75003815D01*
X61476860Y-75184490D01*
X61476860Y-76658367D01*
X61467615Y-76664316D01*
X61397964Y-76766254D01*
X61397964Y-75925500D01*
X61371397Y-75784310D01*
X61287954Y-75654635D01*
X61160634Y-75567641D01*
X61009500Y-75537036D01*
X60374500Y-75537036D01*
X60233310Y-75563603D01*
X60103635Y-75647046D01*
X60016641Y-75774366D01*
X59986036Y-75925500D01*
X59986036Y-76814500D01*
X60012603Y-76955690D01*
X60057000Y-77024685D01*
X60057000Y-77132000D01*
X60105336Y-77375004D01*
X60242987Y-77581013D01*
X60804327Y-78142353D01*
X60812778Y-78148000D01*
X58007064Y-78148000D01*
X58007064Y-77259000D01*
X57980497Y-77117810D01*
X57897054Y-76988135D01*
X57769734Y-76901141D01*
X57618600Y-76870536D01*
X57497000Y-76870536D01*
X57497000Y-76519158D01*
X57505865Y-76513454D01*
X57592859Y-76386134D01*
X57623464Y-76235000D01*
X57623464Y-75235000D01*
X57596897Y-75093810D01*
X57561713Y-75039132D01*
X57582820Y-74934900D01*
X59295000Y-74934900D01*
X59474823Y-74899131D01*
X59627269Y-74797269D01*
X60262270Y-74162269D01*
X60364131Y-74009823D01*
X60399900Y-73830000D01*
X60399900Y-62497925D01*
X60438000Y-62536025D01*
X60438000Y-62536025D01*
G37*
X60438000Y-62536025D02*
X60438000Y-69893000D01*
X60486336Y-70136004D01*
X60623987Y-70342013D01*
X61073000Y-70791026D01*
X61073000Y-74465000D01*
X61131004Y-74756605D01*
X61226237Y-74899131D01*
X61296185Y-75003815D01*
X61476860Y-75184490D01*
X61476860Y-76658367D01*
X61467615Y-76664316D01*
X61397964Y-76766254D01*
X61397964Y-75925500D01*
X61371397Y-75784310D01*
X61287954Y-75654635D01*
X61160634Y-75567641D01*
X61009500Y-75537036D01*
X60374500Y-75537036D01*
X60233310Y-75563603D01*
X60103635Y-75647046D01*
X60016641Y-75774366D01*
X59986036Y-75925500D01*
X59986036Y-76814500D01*
X60012603Y-76955690D01*
X60057000Y-77024685D01*
X60057000Y-77132000D01*
X60105336Y-77375004D01*
X60242987Y-77581013D01*
X60804327Y-78142353D01*
X60812778Y-78148000D01*
X58007064Y-78148000D01*
X58007064Y-77259000D01*
X57980497Y-77117810D01*
X57897054Y-76988135D01*
X57769734Y-76901141D01*
X57618600Y-76870536D01*
X57497000Y-76870536D01*
X57497000Y-76519158D01*
X57505865Y-76513454D01*
X57592859Y-76386134D01*
X57623464Y-76235000D01*
X57623464Y-75235000D01*
X57596897Y-75093810D01*
X57561713Y-75039132D01*
X57582820Y-74934900D01*
X59295000Y-74934900D01*
X59474823Y-74899131D01*
X59627269Y-74797269D01*
X60262270Y-74162269D01*
X60364131Y-74009823D01*
X60399900Y-73830000D01*
X60399900Y-62497925D01*
X60438000Y-62536025D01*
G36*
X81640140Y-36343943D02*
X81545400Y-36820231D01*
X81545400Y-37179769D01*
X81640140Y-37656057D01*
X81909935Y-38059834D01*
X82313712Y-38329629D01*
X82790000Y-38424369D01*
X83266288Y-38329629D01*
X83670065Y-38059834D01*
X83939860Y-37656057D01*
X84034600Y-37179769D01*
X84034600Y-36820231D01*
X83939860Y-36343943D01*
X83817621Y-36161000D01*
X84302379Y-36161000D01*
X84180140Y-36343943D01*
X84085400Y-36820231D01*
X84085400Y-37179769D01*
X84180140Y-37656057D01*
X84449935Y-38059834D01*
X84853712Y-38329629D01*
X85330000Y-38424369D01*
X85780999Y-38334659D01*
X83242256Y-40873402D01*
X83200592Y-40831665D01*
X82934624Y-40721226D01*
X82646639Y-40720975D01*
X82380479Y-40830950D01*
X82176665Y-41034408D01*
X82066226Y-41300376D01*
X82065975Y-41588361D01*
X82175950Y-41854521D01*
X82379408Y-42058335D01*
X82645376Y-42168774D01*
X82933361Y-42169025D01*
X83199521Y-42059050D01*
X83280312Y-41978400D01*
X83425000Y-41978400D01*
X83629123Y-41937797D01*
X83802171Y-41822171D01*
X87334366Y-38289976D01*
X87393712Y-38329629D01*
X87870000Y-38424369D01*
X88346288Y-38329629D01*
X88750065Y-38059834D01*
X89019860Y-37656057D01*
X89114600Y-37179769D01*
X89114600Y-36820231D01*
X89019860Y-36343943D01*
X88897621Y-36161000D01*
X95957552Y-36161000D01*
X96788541Y-36326294D01*
X97457033Y-36772966D01*
X97903707Y-37441461D01*
X98069000Y-38272448D01*
X98069000Y-78148000D01*
X95077361Y-78148000D01*
X94946922Y-77832314D01*
X94411505Y-77295961D01*
X93779413Y-77033495D01*
X93787859Y-77021134D01*
X93818464Y-76870000D01*
X93818464Y-75870000D01*
X93791897Y-75728810D01*
X93708454Y-75599135D01*
X93581134Y-75512141D01*
X93430000Y-75481536D01*
X92512964Y-75481536D01*
X92512964Y-75165062D01*
X92578026Y-75100000D01*
X94228754Y-75100000D01*
X94338266Y-75209512D01*
X94338266Y-75500050D01*
X94364833Y-75641240D01*
X94448276Y-75770915D01*
X94575596Y-75857909D01*
X94726730Y-75888514D01*
X95526830Y-75888514D01*
X95668020Y-75861947D01*
X95797695Y-75778504D01*
X95884689Y-75651184D01*
X95915294Y-75500050D01*
X95915294Y-74919833D01*
X96419170Y-75423709D01*
X96367851Y-75498816D01*
X96337246Y-75649950D01*
X96337246Y-76450050D01*
X96363813Y-76591240D01*
X96447256Y-76720915D01*
X96574576Y-76807909D01*
X96725710Y-76838514D01*
X97525810Y-76838514D01*
X97667000Y-76811947D01*
X97796675Y-76728504D01*
X97883669Y-76601184D01*
X97914274Y-76450050D01*
X97914274Y-75649950D01*
X97887707Y-75508760D01*
X97804264Y-75379085D01*
X97676944Y-75292091D01*
X97546330Y-75265641D01*
X97458029Y-75133490D01*
X95695269Y-73370731D01*
X95542823Y-73268869D01*
X95363000Y-73233100D01*
X93749184Y-73233100D01*
X93672954Y-73114635D01*
X93545634Y-73027641D01*
X93394500Y-72997036D01*
X92505500Y-72997036D01*
X92364310Y-73023603D01*
X92315599Y-73054948D01*
X92275634Y-73027641D01*
X92124500Y-72997036D01*
X91235500Y-72997036D01*
X91094310Y-73023603D01*
X91045599Y-73054948D01*
X91005634Y-73027641D01*
X90854500Y-72997036D01*
X89965500Y-72997036D01*
X89824310Y-73023603D01*
X89694635Y-73107046D01*
X89607641Y-73234366D01*
X89577036Y-73385500D01*
X89577036Y-74020500D01*
X89603603Y-74161690D01*
X89687046Y-74291365D01*
X89814366Y-74378359D01*
X89965500Y-74408964D01*
X90854500Y-74408964D01*
X90995690Y-74382397D01*
X91044401Y-74351052D01*
X91084366Y-74378359D01*
X91235500Y-74408964D01*
X91473010Y-74408964D01*
X91360938Y-74521036D01*
X91235500Y-74521036D01*
X91094310Y-74547603D01*
X91045599Y-74578948D01*
X91005634Y-74551641D01*
X90854500Y-74521036D01*
X89965500Y-74521036D01*
X89824310Y-74547603D01*
X89696105Y-74630100D01*
X88064639Y-74630100D01*
X87704900Y-74270362D01*
X87704900Y-66074439D01*
X88172730Y-66542269D01*
X88287207Y-66618760D01*
X88325177Y-66644131D01*
X88505000Y-66679900D01*
X89581815Y-66679900D01*
X89601704Y-66785599D01*
X89572141Y-66828866D01*
X89541536Y-66980000D01*
X89541536Y-67980000D01*
X89568103Y-68121190D01*
X89651546Y-68250865D01*
X89668000Y-68262108D01*
X89668000Y-68615536D01*
X89546400Y-68615536D01*
X89405210Y-68642103D01*
X89275535Y-68725546D01*
X89188541Y-68852866D01*
X89157936Y-69004000D01*
X89157936Y-71036000D01*
X89184503Y-71177190D01*
X89267946Y-71306865D01*
X89395266Y-71393859D01*
X89546400Y-71424464D01*
X91273600Y-71424464D01*
X91414790Y-71397897D01*
X91544465Y-71314454D01*
X91631459Y-71187134D01*
X91662064Y-71036000D01*
X91662064Y-70969382D01*
X91715078Y-71097686D01*
X92250495Y-71634039D01*
X92950410Y-71924668D01*
X93708265Y-71925330D01*
X94408686Y-71635922D01*
X94945039Y-71100505D01*
X95235668Y-70400590D01*
X95236330Y-69642735D01*
X94946922Y-68942314D01*
X94411505Y-68405961D01*
X93779413Y-68143495D01*
X93787859Y-68131134D01*
X93818464Y-67980000D01*
X93818464Y-66980000D01*
X93791897Y-66838810D01*
X93708454Y-66709135D01*
X93581134Y-66622141D01*
X93430000Y-66591536D01*
X92512964Y-66591536D01*
X92512964Y-66275062D01*
X92578026Y-66210000D01*
X94228754Y-66210000D01*
X94338266Y-66319512D01*
X94338266Y-66610050D01*
X94364833Y-66751240D01*
X94448276Y-66880915D01*
X94575596Y-66967909D01*
X94726730Y-66998514D01*
X95526830Y-66998514D01*
X95668020Y-66971947D01*
X95797695Y-66888504D01*
X95884689Y-66761184D01*
X95915294Y-66610050D01*
X95915294Y-66029833D01*
X96419170Y-66533709D01*
X96367851Y-66608816D01*
X96337246Y-66759950D01*
X96337246Y-67560050D01*
X96363813Y-67701240D01*
X96447256Y-67830915D01*
X96574576Y-67917909D01*
X96725710Y-67948514D01*
X97525810Y-67948514D01*
X97667000Y-67921947D01*
X97796675Y-67838504D01*
X97883669Y-67711184D01*
X97914274Y-67560050D01*
X97914274Y-66759950D01*
X97887707Y-66618760D01*
X97804264Y-66489085D01*
X97676944Y-66402091D01*
X97546330Y-66375641D01*
X97458029Y-66243490D01*
X95695269Y-64480731D01*
X95542823Y-64378869D01*
X95363000Y-64343100D01*
X93749184Y-64343100D01*
X93672954Y-64224635D01*
X93545634Y-64137641D01*
X93394500Y-64107036D01*
X92505500Y-64107036D01*
X92364310Y-64133603D01*
X92315599Y-64164948D01*
X92275634Y-64137641D01*
X92124500Y-64107036D01*
X91235500Y-64107036D01*
X91094310Y-64133603D01*
X91045599Y-64164948D01*
X91005634Y-64137641D01*
X90854500Y-64107036D01*
X89965500Y-64107036D01*
X89824310Y-64133603D01*
X89694635Y-64217046D01*
X89607641Y-64344366D01*
X89577036Y-64495500D01*
X89577036Y-65130500D01*
X89603603Y-65271690D01*
X89687046Y-65401365D01*
X89814366Y-65488359D01*
X89965500Y-65518964D01*
X90854500Y-65518964D01*
X90995690Y-65492397D01*
X91044401Y-65461052D01*
X91084366Y-65488359D01*
X91235500Y-65518964D01*
X91473010Y-65518964D01*
X91360938Y-65631036D01*
X91235500Y-65631036D01*
X91094310Y-65657603D01*
X91045599Y-65688948D01*
X91005634Y-65661641D01*
X90854500Y-65631036D01*
X89965500Y-65631036D01*
X89824310Y-65657603D01*
X89696105Y-65740100D01*
X88699639Y-65740100D01*
X86434900Y-63475362D01*
X86434900Y-60480000D01*
X91911536Y-60480000D01*
X91911536Y-61780000D01*
X91938103Y-61921190D01*
X92021546Y-62050865D01*
X92148866Y-62137859D01*
X92300000Y-62168464D01*
X93600000Y-62168464D01*
X93741190Y-62141897D01*
X93870865Y-62058454D01*
X93957859Y-61931134D01*
X93988464Y-61780000D01*
X93988464Y-60480000D01*
X93961897Y-60338810D01*
X93878454Y-60209135D01*
X93751134Y-60122141D01*
X93600000Y-60091536D01*
X92300000Y-60091536D01*
X92158810Y-60118103D01*
X92029135Y-60201546D01*
X91942141Y-60328866D01*
X91911536Y-60480000D01*
X86434900Y-60480000D01*
X86434900Y-58784638D01*
X88202270Y-57017269D01*
X88304131Y-56864823D01*
X88309364Y-56838514D01*
X88339900Y-56685000D01*
X88339900Y-55914438D01*
X88807731Y-56382270D01*
X88960177Y-56484131D01*
X89140000Y-56519900D01*
X89699537Y-56519900D01*
X89814366Y-56598359D01*
X89965500Y-56628964D01*
X90854500Y-56628964D01*
X90995690Y-56602397D01*
X91044401Y-56571052D01*
X91084366Y-56598359D01*
X91235500Y-56628964D01*
X91360938Y-56628964D01*
X91473010Y-56741036D01*
X91235500Y-56741036D01*
X91094310Y-56767603D01*
X91045599Y-56798948D01*
X91005634Y-56771641D01*
X90854500Y-56741036D01*
X89965500Y-56741036D01*
X89824310Y-56767603D01*
X89694635Y-56851046D01*
X89607641Y-56978366D01*
X89577036Y-57129500D01*
X89577036Y-57764500D01*
X89603603Y-57905690D01*
X89687046Y-58035365D01*
X89814366Y-58122359D01*
X89965500Y-58152964D01*
X90854500Y-58152964D01*
X90995690Y-58126397D01*
X91044401Y-58095052D01*
X91084366Y-58122359D01*
X91235500Y-58152964D01*
X92124500Y-58152964D01*
X92265690Y-58126397D01*
X92314401Y-58095052D01*
X92354366Y-58122359D01*
X92505500Y-58152964D01*
X93394500Y-58152964D01*
X93535690Y-58126397D01*
X93665365Y-58042954D01*
X93751494Y-57916900D01*
X96678760Y-57916900D01*
X96858583Y-57881131D01*
X96997193Y-57788514D01*
X97525810Y-57788514D01*
X97667000Y-57761947D01*
X97796675Y-57678504D01*
X97883669Y-57551184D01*
X97914274Y-57400050D01*
X97914274Y-56599950D01*
X97887707Y-56458760D01*
X97804264Y-56329085D01*
X97676944Y-56242091D01*
X97525810Y-56211486D01*
X96725710Y-56211486D01*
X96584520Y-56238053D01*
X96454845Y-56321496D01*
X96367851Y-56448816D01*
X96337246Y-56599950D01*
X96337246Y-56977100D01*
X95097706Y-56977100D01*
X95236292Y-56838514D01*
X95526830Y-56838514D01*
X95668020Y-56811947D01*
X95797695Y-56728504D01*
X95884689Y-56601184D01*
X95915294Y-56450050D01*
X95915294Y-55649950D01*
X95888727Y-55508760D01*
X95805284Y-55379085D01*
X95677964Y-55292091D01*
X95526830Y-55261486D01*
X94726730Y-55261486D01*
X94585540Y-55288053D01*
X94455865Y-55371496D01*
X94368871Y-55498816D01*
X94338266Y-55649950D01*
X94338266Y-55940488D01*
X94228754Y-56050000D01*
X92578026Y-56050000D01*
X92512964Y-55984938D01*
X92512964Y-55668464D01*
X93430000Y-55668464D01*
X93571190Y-55641897D01*
X93700865Y-55558454D01*
X93787859Y-55431134D01*
X93818464Y-55280000D01*
X93818464Y-54280000D01*
X93791897Y-54138810D01*
X93777646Y-54116663D01*
X94408686Y-53855922D01*
X94945039Y-53320505D01*
X95235668Y-52620590D01*
X95236330Y-51862735D01*
X94946922Y-51162314D01*
X94411505Y-50625961D01*
X93711590Y-50335332D01*
X92953735Y-50334670D01*
X92253314Y-50624078D01*
X91716961Y-51159495D01*
X91662064Y-51291702D01*
X91662064Y-51224000D01*
X91635497Y-51082810D01*
X91552054Y-50953135D01*
X91424734Y-50866141D01*
X91273600Y-50835536D01*
X89546400Y-50835536D01*
X89405210Y-50862103D01*
X89275535Y-50945546D01*
X89188541Y-51072866D01*
X89157936Y-51224000D01*
X89157936Y-53256000D01*
X89184503Y-53397190D01*
X89267946Y-53526865D01*
X89395266Y-53613859D01*
X89546400Y-53644464D01*
X89668000Y-53644464D01*
X89668000Y-53995842D01*
X89659135Y-54001546D01*
X89572141Y-54128866D01*
X89541536Y-54280000D01*
X89541536Y-55280000D01*
X89568103Y-55421190D01*
X89603287Y-55475868D01*
X89582180Y-55580100D01*
X89334639Y-55580100D01*
X88974900Y-55220362D01*
X88974900Y-48430000D01*
X88939131Y-48250177D01*
X88931997Y-48239500D01*
X88837269Y-48097730D01*
X88369439Y-47629900D01*
X89699537Y-47629900D01*
X89814366Y-47708359D01*
X89965500Y-47738964D01*
X90854500Y-47738964D01*
X90995690Y-47712397D01*
X91044401Y-47681052D01*
X91084366Y-47708359D01*
X91235500Y-47738964D01*
X91360938Y-47738964D01*
X91473010Y-47851036D01*
X91235500Y-47851036D01*
X91094310Y-47877603D01*
X91045599Y-47908948D01*
X91005634Y-47881641D01*
X90854500Y-47851036D01*
X89965500Y-47851036D01*
X89824310Y-47877603D01*
X89694635Y-47961046D01*
X89607641Y-48088366D01*
X89577036Y-48239500D01*
X89577036Y-48874500D01*
X89603603Y-49015690D01*
X89687046Y-49145365D01*
X89814366Y-49232359D01*
X89965500Y-49262964D01*
X90854500Y-49262964D01*
X90995690Y-49236397D01*
X91044401Y-49205052D01*
X91084366Y-49232359D01*
X91235500Y-49262964D01*
X92124500Y-49262964D01*
X92265690Y-49236397D01*
X92314401Y-49205052D01*
X92354366Y-49232359D01*
X92505500Y-49262964D01*
X93394500Y-49262964D01*
X93535690Y-49236397D01*
X93665365Y-49152954D01*
X93751494Y-49026900D01*
X96678760Y-49026900D01*
X96858583Y-48991131D01*
X96997193Y-48898514D01*
X97525810Y-48898514D01*
X97667000Y-48871947D01*
X97796675Y-48788504D01*
X97883669Y-48661184D01*
X97914274Y-48510050D01*
X97914274Y-47709950D01*
X97887707Y-47568760D01*
X97804264Y-47439085D01*
X97676944Y-47352091D01*
X97525810Y-47321486D01*
X96725710Y-47321486D01*
X96584520Y-47348053D01*
X96454845Y-47431496D01*
X96367851Y-47558816D01*
X96337246Y-47709950D01*
X96337246Y-48087100D01*
X95097706Y-48087100D01*
X95236292Y-47948514D01*
X95526830Y-47948514D01*
X95668020Y-47921947D01*
X95797695Y-47838504D01*
X95884689Y-47711184D01*
X95915294Y-47560050D01*
X95915294Y-46759950D01*
X95888727Y-46618760D01*
X95805284Y-46489085D01*
X95677964Y-46402091D01*
X95526830Y-46371486D01*
X94726730Y-46371486D01*
X94585540Y-46398053D01*
X94455865Y-46481496D01*
X94368871Y-46608816D01*
X94338266Y-46759950D01*
X94338266Y-47050488D01*
X94228754Y-47160000D01*
X92578026Y-47160000D01*
X92512964Y-47094938D01*
X92512964Y-46778464D01*
X93430000Y-46778464D01*
X93571190Y-46751897D01*
X93700865Y-46668454D01*
X93787859Y-46541134D01*
X93818464Y-46390000D01*
X93818464Y-45390000D01*
X93791897Y-45248810D01*
X93777646Y-45226663D01*
X94408686Y-44965922D01*
X94945039Y-44430505D01*
X95235668Y-43730590D01*
X95236330Y-42972735D01*
X94946922Y-42272314D01*
X94411505Y-41735961D01*
X93711590Y-41445332D01*
X92953735Y-41444670D01*
X92253314Y-41734078D01*
X91716961Y-42269495D01*
X91662064Y-42401702D01*
X91662064Y-42334000D01*
X91635497Y-42192810D01*
X91552054Y-42063135D01*
X91424734Y-41976141D01*
X91273600Y-41945536D01*
X89546400Y-41945536D01*
X89405210Y-41972103D01*
X89275535Y-42055546D01*
X89188541Y-42182866D01*
X89157936Y-42334000D01*
X89157936Y-44366000D01*
X89184503Y-44507190D01*
X89267946Y-44636865D01*
X89395266Y-44723859D01*
X89546400Y-44754464D01*
X89668000Y-44754464D01*
X89668000Y-45105842D01*
X89659135Y-45111546D01*
X89572141Y-45238866D01*
X89541536Y-45390000D01*
X89541536Y-46390000D01*
X89568103Y-46531190D01*
X89603287Y-46585868D01*
X89582180Y-46690100D01*
X88064639Y-46690100D01*
X85662269Y-44287731D01*
X85509823Y-44185869D01*
X85330000Y-44150100D01*
X81363168Y-44150100D01*
X81427269Y-44107269D01*
X81852270Y-43682269D01*
X81954131Y-43529823D01*
X81960289Y-43498866D01*
X81989900Y-43350000D01*
X81989900Y-42080000D01*
X81954131Y-41900177D01*
X81950605Y-41894900D01*
X81852270Y-41747731D01*
X81354900Y-41250362D01*
X81354900Y-39540000D01*
X81319131Y-39360177D01*
X81217270Y-39207731D01*
X80719900Y-38710362D01*
X80719900Y-38330900D01*
X80726288Y-38329629D01*
X81130065Y-38059834D01*
X81399860Y-37656057D01*
X81494600Y-37179769D01*
X81494600Y-36820231D01*
X81399860Y-36343943D01*
X81277621Y-36161000D01*
X81762379Y-36161000D01*
X81640140Y-36343943D01*
X81640140Y-36343943D01*
G37*
X81640140Y-36343943D02*
X81545400Y-36820231D01*
X81545400Y-37179769D01*
X81640140Y-37656057D01*
X81909935Y-38059834D01*
X82313712Y-38329629D01*
X82790000Y-38424369D01*
X83266288Y-38329629D01*
X83670065Y-38059834D01*
X83939860Y-37656057D01*
X84034600Y-37179769D01*
X84034600Y-36820231D01*
X83939860Y-36343943D01*
X83817621Y-36161000D01*
X84302379Y-36161000D01*
X84180140Y-36343943D01*
X84085400Y-36820231D01*
X84085400Y-37179769D01*
X84180140Y-37656057D01*
X84449935Y-38059834D01*
X84853712Y-38329629D01*
X85330000Y-38424369D01*
X85780999Y-38334659D01*
X83242256Y-40873402D01*
X83200592Y-40831665D01*
X82934624Y-40721226D01*
X82646639Y-40720975D01*
X82380479Y-40830950D01*
X82176665Y-41034408D01*
X82066226Y-41300376D01*
X82065975Y-41588361D01*
X82175950Y-41854521D01*
X82379408Y-42058335D01*
X82645376Y-42168774D01*
X82933361Y-42169025D01*
X83199521Y-42059050D01*
X83280312Y-41978400D01*
X83425000Y-41978400D01*
X83629123Y-41937797D01*
X83802171Y-41822171D01*
X87334366Y-38289976D01*
X87393712Y-38329629D01*
X87870000Y-38424369D01*
X88346288Y-38329629D01*
X88750065Y-38059834D01*
X89019860Y-37656057D01*
X89114600Y-37179769D01*
X89114600Y-36820231D01*
X89019860Y-36343943D01*
X88897621Y-36161000D01*
X95957552Y-36161000D01*
X96788541Y-36326294D01*
X97457033Y-36772966D01*
X97903707Y-37441461D01*
X98069000Y-38272448D01*
X98069000Y-78148000D01*
X95077361Y-78148000D01*
X94946922Y-77832314D01*
X94411505Y-77295961D01*
X93779413Y-77033495D01*
X93787859Y-77021134D01*
X93818464Y-76870000D01*
X93818464Y-75870000D01*
X93791897Y-75728810D01*
X93708454Y-75599135D01*
X93581134Y-75512141D01*
X93430000Y-75481536D01*
X92512964Y-75481536D01*
X92512964Y-75165062D01*
X92578026Y-75100000D01*
X94228754Y-75100000D01*
X94338266Y-75209512D01*
X94338266Y-75500050D01*
X94364833Y-75641240D01*
X94448276Y-75770915D01*
X94575596Y-75857909D01*
X94726730Y-75888514D01*
X95526830Y-75888514D01*
X95668020Y-75861947D01*
X95797695Y-75778504D01*
X95884689Y-75651184D01*
X95915294Y-75500050D01*
X95915294Y-74919833D01*
X96419170Y-75423709D01*
X96367851Y-75498816D01*
X96337246Y-75649950D01*
X96337246Y-76450050D01*
X96363813Y-76591240D01*
X96447256Y-76720915D01*
X96574576Y-76807909D01*
X96725710Y-76838514D01*
X97525810Y-76838514D01*
X97667000Y-76811947D01*
X97796675Y-76728504D01*
X97883669Y-76601184D01*
X97914274Y-76450050D01*
X97914274Y-75649950D01*
X97887707Y-75508760D01*
X97804264Y-75379085D01*
X97676944Y-75292091D01*
X97546330Y-75265641D01*
X97458029Y-75133490D01*
X95695269Y-73370731D01*
X95542823Y-73268869D01*
X95363000Y-73233100D01*
X93749184Y-73233100D01*
X93672954Y-73114635D01*
X93545634Y-73027641D01*
X93394500Y-72997036D01*
X92505500Y-72997036D01*
X92364310Y-73023603D01*
X92315599Y-73054948D01*
X92275634Y-73027641D01*
X92124500Y-72997036D01*
X91235500Y-72997036D01*
X91094310Y-73023603D01*
X91045599Y-73054948D01*
X91005634Y-73027641D01*
X90854500Y-72997036D01*
X89965500Y-72997036D01*
X89824310Y-73023603D01*
X89694635Y-73107046D01*
X89607641Y-73234366D01*
X89577036Y-73385500D01*
X89577036Y-74020500D01*
X89603603Y-74161690D01*
X89687046Y-74291365D01*
X89814366Y-74378359D01*
X89965500Y-74408964D01*
X90854500Y-74408964D01*
X90995690Y-74382397D01*
X91044401Y-74351052D01*
X91084366Y-74378359D01*
X91235500Y-74408964D01*
X91473010Y-74408964D01*
X91360938Y-74521036D01*
X91235500Y-74521036D01*
X91094310Y-74547603D01*
X91045599Y-74578948D01*
X91005634Y-74551641D01*
X90854500Y-74521036D01*
X89965500Y-74521036D01*
X89824310Y-74547603D01*
X89696105Y-74630100D01*
X88064639Y-74630100D01*
X87704900Y-74270362D01*
X87704900Y-66074439D01*
X88172730Y-66542269D01*
X88287207Y-66618760D01*
X88325177Y-66644131D01*
X88505000Y-66679900D01*
X89581815Y-66679900D01*
X89601704Y-66785599D01*
X89572141Y-66828866D01*
X89541536Y-66980000D01*
X89541536Y-67980000D01*
X89568103Y-68121190D01*
X89651546Y-68250865D01*
X89668000Y-68262108D01*
X89668000Y-68615536D01*
X89546400Y-68615536D01*
X89405210Y-68642103D01*
X89275535Y-68725546D01*
X89188541Y-68852866D01*
X89157936Y-69004000D01*
X89157936Y-71036000D01*
X89184503Y-71177190D01*
X89267946Y-71306865D01*
X89395266Y-71393859D01*
X89546400Y-71424464D01*
X91273600Y-71424464D01*
X91414790Y-71397897D01*
X91544465Y-71314454D01*
X91631459Y-71187134D01*
X91662064Y-71036000D01*
X91662064Y-70969382D01*
X91715078Y-71097686D01*
X92250495Y-71634039D01*
X92950410Y-71924668D01*
X93708265Y-71925330D01*
X94408686Y-71635922D01*
X94945039Y-71100505D01*
X95235668Y-70400590D01*
X95236330Y-69642735D01*
X94946922Y-68942314D01*
X94411505Y-68405961D01*
X93779413Y-68143495D01*
X93787859Y-68131134D01*
X93818464Y-67980000D01*
X93818464Y-66980000D01*
X93791897Y-66838810D01*
X93708454Y-66709135D01*
X93581134Y-66622141D01*
X93430000Y-66591536D01*
X92512964Y-66591536D01*
X92512964Y-66275062D01*
X92578026Y-66210000D01*
X94228754Y-66210000D01*
X94338266Y-66319512D01*
X94338266Y-66610050D01*
X94364833Y-66751240D01*
X94448276Y-66880915D01*
X94575596Y-66967909D01*
X94726730Y-66998514D01*
X95526830Y-66998514D01*
X95668020Y-66971947D01*
X95797695Y-66888504D01*
X95884689Y-66761184D01*
X95915294Y-66610050D01*
X95915294Y-66029833D01*
X96419170Y-66533709D01*
X96367851Y-66608816D01*
X96337246Y-66759950D01*
X96337246Y-67560050D01*
X96363813Y-67701240D01*
X96447256Y-67830915D01*
X96574576Y-67917909D01*
X96725710Y-67948514D01*
X97525810Y-67948514D01*
X97667000Y-67921947D01*
X97796675Y-67838504D01*
X97883669Y-67711184D01*
X97914274Y-67560050D01*
X97914274Y-66759950D01*
X97887707Y-66618760D01*
X97804264Y-66489085D01*
X97676944Y-66402091D01*
X97546330Y-66375641D01*
X97458029Y-66243490D01*
X95695269Y-64480731D01*
X95542823Y-64378869D01*
X95363000Y-64343100D01*
X93749184Y-64343100D01*
X93672954Y-64224635D01*
X93545634Y-64137641D01*
X93394500Y-64107036D01*
X92505500Y-64107036D01*
X92364310Y-64133603D01*
X92315599Y-64164948D01*
X92275634Y-64137641D01*
X92124500Y-64107036D01*
X91235500Y-64107036D01*
X91094310Y-64133603D01*
X91045599Y-64164948D01*
X91005634Y-64137641D01*
X90854500Y-64107036D01*
X89965500Y-64107036D01*
X89824310Y-64133603D01*
X89694635Y-64217046D01*
X89607641Y-64344366D01*
X89577036Y-64495500D01*
X89577036Y-65130500D01*
X89603603Y-65271690D01*
X89687046Y-65401365D01*
X89814366Y-65488359D01*
X89965500Y-65518964D01*
X90854500Y-65518964D01*
X90995690Y-65492397D01*
X91044401Y-65461052D01*
X91084366Y-65488359D01*
X91235500Y-65518964D01*
X91473010Y-65518964D01*
X91360938Y-65631036D01*
X91235500Y-65631036D01*
X91094310Y-65657603D01*
X91045599Y-65688948D01*
X91005634Y-65661641D01*
X90854500Y-65631036D01*
X89965500Y-65631036D01*
X89824310Y-65657603D01*
X89696105Y-65740100D01*
X88699639Y-65740100D01*
X86434900Y-63475362D01*
X86434900Y-60480000D01*
X91911536Y-60480000D01*
X91911536Y-61780000D01*
X91938103Y-61921190D01*
X92021546Y-62050865D01*
X92148866Y-62137859D01*
X92300000Y-62168464D01*
X93600000Y-62168464D01*
X93741190Y-62141897D01*
X93870865Y-62058454D01*
X93957859Y-61931134D01*
X93988464Y-61780000D01*
X93988464Y-60480000D01*
X93961897Y-60338810D01*
X93878454Y-60209135D01*
X93751134Y-60122141D01*
X93600000Y-60091536D01*
X92300000Y-60091536D01*
X92158810Y-60118103D01*
X92029135Y-60201546D01*
X91942141Y-60328866D01*
X91911536Y-60480000D01*
X86434900Y-60480000D01*
X86434900Y-58784638D01*
X88202270Y-57017269D01*
X88304131Y-56864823D01*
X88309364Y-56838514D01*
X88339900Y-56685000D01*
X88339900Y-55914438D01*
X88807731Y-56382270D01*
X88960177Y-56484131D01*
X89140000Y-56519900D01*
X89699537Y-56519900D01*
X89814366Y-56598359D01*
X89965500Y-56628964D01*
X90854500Y-56628964D01*
X90995690Y-56602397D01*
X91044401Y-56571052D01*
X91084366Y-56598359D01*
X91235500Y-56628964D01*
X91360938Y-56628964D01*
X91473010Y-56741036D01*
X91235500Y-56741036D01*
X91094310Y-56767603D01*
X91045599Y-56798948D01*
X91005634Y-56771641D01*
X90854500Y-56741036D01*
X89965500Y-56741036D01*
X89824310Y-56767603D01*
X89694635Y-56851046D01*
X89607641Y-56978366D01*
X89577036Y-57129500D01*
X89577036Y-57764500D01*
X89603603Y-57905690D01*
X89687046Y-58035365D01*
X89814366Y-58122359D01*
X89965500Y-58152964D01*
X90854500Y-58152964D01*
X90995690Y-58126397D01*
X91044401Y-58095052D01*
X91084366Y-58122359D01*
X91235500Y-58152964D01*
X92124500Y-58152964D01*
X92265690Y-58126397D01*
X92314401Y-58095052D01*
X92354366Y-58122359D01*
X92505500Y-58152964D01*
X93394500Y-58152964D01*
X93535690Y-58126397D01*
X93665365Y-58042954D01*
X93751494Y-57916900D01*
X96678760Y-57916900D01*
X96858583Y-57881131D01*
X96997193Y-57788514D01*
X97525810Y-57788514D01*
X97667000Y-57761947D01*
X97796675Y-57678504D01*
X97883669Y-57551184D01*
X97914274Y-57400050D01*
X97914274Y-56599950D01*
X97887707Y-56458760D01*
X97804264Y-56329085D01*
X97676944Y-56242091D01*
X97525810Y-56211486D01*
X96725710Y-56211486D01*
X96584520Y-56238053D01*
X96454845Y-56321496D01*
X96367851Y-56448816D01*
X96337246Y-56599950D01*
X96337246Y-56977100D01*
X95097706Y-56977100D01*
X95236292Y-56838514D01*
X95526830Y-56838514D01*
X95668020Y-56811947D01*
X95797695Y-56728504D01*
X95884689Y-56601184D01*
X95915294Y-56450050D01*
X95915294Y-55649950D01*
X95888727Y-55508760D01*
X95805284Y-55379085D01*
X95677964Y-55292091D01*
X95526830Y-55261486D01*
X94726730Y-55261486D01*
X94585540Y-55288053D01*
X94455865Y-55371496D01*
X94368871Y-55498816D01*
X94338266Y-55649950D01*
X94338266Y-55940488D01*
X94228754Y-56050000D01*
X92578026Y-56050000D01*
X92512964Y-55984938D01*
X92512964Y-55668464D01*
X93430000Y-55668464D01*
X93571190Y-55641897D01*
X93700865Y-55558454D01*
X93787859Y-55431134D01*
X93818464Y-55280000D01*
X93818464Y-54280000D01*
X93791897Y-54138810D01*
X93777646Y-54116663D01*
X94408686Y-53855922D01*
X94945039Y-53320505D01*
X95235668Y-52620590D01*
X95236330Y-51862735D01*
X94946922Y-51162314D01*
X94411505Y-50625961D01*
X93711590Y-50335332D01*
X92953735Y-50334670D01*
X92253314Y-50624078D01*
X91716961Y-51159495D01*
X91662064Y-51291702D01*
X91662064Y-51224000D01*
X91635497Y-51082810D01*
X91552054Y-50953135D01*
X91424734Y-50866141D01*
X91273600Y-50835536D01*
X89546400Y-50835536D01*
X89405210Y-50862103D01*
X89275535Y-50945546D01*
X89188541Y-51072866D01*
X89157936Y-51224000D01*
X89157936Y-53256000D01*
X89184503Y-53397190D01*
X89267946Y-53526865D01*
X89395266Y-53613859D01*
X89546400Y-53644464D01*
X89668000Y-53644464D01*
X89668000Y-53995842D01*
X89659135Y-54001546D01*
X89572141Y-54128866D01*
X89541536Y-54280000D01*
X89541536Y-55280000D01*
X89568103Y-55421190D01*
X89603287Y-55475868D01*
X89582180Y-55580100D01*
X89334639Y-55580100D01*
X88974900Y-55220362D01*
X88974900Y-48430000D01*
X88939131Y-48250177D01*
X88931997Y-48239500D01*
X88837269Y-48097730D01*
X88369439Y-47629900D01*
X89699537Y-47629900D01*
X89814366Y-47708359D01*
X89965500Y-47738964D01*
X90854500Y-47738964D01*
X90995690Y-47712397D01*
X91044401Y-47681052D01*
X91084366Y-47708359D01*
X91235500Y-47738964D01*
X91360938Y-47738964D01*
X91473010Y-47851036D01*
X91235500Y-47851036D01*
X91094310Y-47877603D01*
X91045599Y-47908948D01*
X91005634Y-47881641D01*
X90854500Y-47851036D01*
X89965500Y-47851036D01*
X89824310Y-47877603D01*
X89694635Y-47961046D01*
X89607641Y-48088366D01*
X89577036Y-48239500D01*
X89577036Y-48874500D01*
X89603603Y-49015690D01*
X89687046Y-49145365D01*
X89814366Y-49232359D01*
X89965500Y-49262964D01*
X90854500Y-49262964D01*
X90995690Y-49236397D01*
X91044401Y-49205052D01*
X91084366Y-49232359D01*
X91235500Y-49262964D01*
X92124500Y-49262964D01*
X92265690Y-49236397D01*
X92314401Y-49205052D01*
X92354366Y-49232359D01*
X92505500Y-49262964D01*
X93394500Y-49262964D01*
X93535690Y-49236397D01*
X93665365Y-49152954D01*
X93751494Y-49026900D01*
X96678760Y-49026900D01*
X96858583Y-48991131D01*
X96997193Y-48898514D01*
X97525810Y-48898514D01*
X97667000Y-48871947D01*
X97796675Y-48788504D01*
X97883669Y-48661184D01*
X97914274Y-48510050D01*
X97914274Y-47709950D01*
X97887707Y-47568760D01*
X97804264Y-47439085D01*
X97676944Y-47352091D01*
X97525810Y-47321486D01*
X96725710Y-47321486D01*
X96584520Y-47348053D01*
X96454845Y-47431496D01*
X96367851Y-47558816D01*
X96337246Y-47709950D01*
X96337246Y-48087100D01*
X95097706Y-48087100D01*
X95236292Y-47948514D01*
X95526830Y-47948514D01*
X95668020Y-47921947D01*
X95797695Y-47838504D01*
X95884689Y-47711184D01*
X95915294Y-47560050D01*
X95915294Y-46759950D01*
X95888727Y-46618760D01*
X95805284Y-46489085D01*
X95677964Y-46402091D01*
X95526830Y-46371486D01*
X94726730Y-46371486D01*
X94585540Y-46398053D01*
X94455865Y-46481496D01*
X94368871Y-46608816D01*
X94338266Y-46759950D01*
X94338266Y-47050488D01*
X94228754Y-47160000D01*
X92578026Y-47160000D01*
X92512964Y-47094938D01*
X92512964Y-46778464D01*
X93430000Y-46778464D01*
X93571190Y-46751897D01*
X93700865Y-46668454D01*
X93787859Y-46541134D01*
X93818464Y-46390000D01*
X93818464Y-45390000D01*
X93791897Y-45248810D01*
X93777646Y-45226663D01*
X94408686Y-44965922D01*
X94945039Y-44430505D01*
X95235668Y-43730590D01*
X95236330Y-42972735D01*
X94946922Y-42272314D01*
X94411505Y-41735961D01*
X93711590Y-41445332D01*
X92953735Y-41444670D01*
X92253314Y-41734078D01*
X91716961Y-42269495D01*
X91662064Y-42401702D01*
X91662064Y-42334000D01*
X91635497Y-42192810D01*
X91552054Y-42063135D01*
X91424734Y-41976141D01*
X91273600Y-41945536D01*
X89546400Y-41945536D01*
X89405210Y-41972103D01*
X89275535Y-42055546D01*
X89188541Y-42182866D01*
X89157936Y-42334000D01*
X89157936Y-44366000D01*
X89184503Y-44507190D01*
X89267946Y-44636865D01*
X89395266Y-44723859D01*
X89546400Y-44754464D01*
X89668000Y-44754464D01*
X89668000Y-45105842D01*
X89659135Y-45111546D01*
X89572141Y-45238866D01*
X89541536Y-45390000D01*
X89541536Y-46390000D01*
X89568103Y-46531190D01*
X89603287Y-46585868D01*
X89582180Y-46690100D01*
X88064639Y-46690100D01*
X85662269Y-44287731D01*
X85509823Y-44185869D01*
X85330000Y-44150100D01*
X81363168Y-44150100D01*
X81427269Y-44107269D01*
X81852270Y-43682269D01*
X81954131Y-43529823D01*
X81960289Y-43498866D01*
X81989900Y-43350000D01*
X81989900Y-42080000D01*
X81954131Y-41900177D01*
X81950605Y-41894900D01*
X81852270Y-41747731D01*
X81354900Y-41250362D01*
X81354900Y-39540000D01*
X81319131Y-39360177D01*
X81217270Y-39207731D01*
X80719900Y-38710362D01*
X80719900Y-38330900D01*
X80726288Y-38329629D01*
X81130065Y-38059834D01*
X81399860Y-37656057D01*
X81494600Y-37179769D01*
X81494600Y-36820231D01*
X81399860Y-36343943D01*
X81277621Y-36161000D01*
X81762379Y-36161000D01*
X81640140Y-36343943D01*
G36*
X54263731Y-36413731D02*
X54161869Y-36566177D01*
X54126100Y-36746000D01*
X54126100Y-38778000D01*
X54149916Y-38897731D01*
X54161869Y-38957823D01*
X54263731Y-39110269D01*
X54715731Y-39562270D01*
X54810914Y-39625869D01*
X54861536Y-39659694D01*
X54861536Y-39830000D01*
X54888103Y-39971190D01*
X54971546Y-40100865D01*
X55098866Y-40187859D01*
X55250000Y-40218464D01*
X56750000Y-40218464D01*
X56891190Y-40191897D01*
X57020865Y-40108454D01*
X57107859Y-39981134D01*
X57138464Y-39830000D01*
X57138464Y-38656214D01*
X57210177Y-38704131D01*
X57390000Y-38739900D01*
X57861536Y-38739900D01*
X57861536Y-39830000D01*
X57888103Y-39971190D01*
X57971546Y-40100865D01*
X58098866Y-40187859D01*
X58250000Y-40218464D01*
X59750000Y-40218464D01*
X59891190Y-40191897D01*
X60020865Y-40108454D01*
X60088204Y-40009900D01*
X60371815Y-40009900D01*
X60393603Y-40125690D01*
X60477046Y-40255365D01*
X60604366Y-40342359D01*
X60755500Y-40372964D01*
X61390500Y-40372964D01*
X61531690Y-40346397D01*
X61661365Y-40262954D01*
X61748359Y-40135634D01*
X61778964Y-39984500D01*
X61778964Y-39095500D01*
X61752397Y-38954310D01*
X61721052Y-38905599D01*
X61748359Y-38865634D01*
X61778964Y-38714500D01*
X61778964Y-37825500D01*
X61752397Y-37684310D01*
X61721052Y-37635599D01*
X61748359Y-37595634D01*
X61778964Y-37444500D01*
X61778964Y-36707900D01*
X61891036Y-36707900D01*
X61891036Y-37444500D01*
X61917603Y-37585690D01*
X61948948Y-37634401D01*
X61921641Y-37674366D01*
X61891036Y-37825500D01*
X61891036Y-38714500D01*
X61917603Y-38855690D01*
X61948948Y-38904401D01*
X61921641Y-38944366D01*
X61891036Y-39095500D01*
X61891036Y-39984500D01*
X61917603Y-40125690D01*
X62001046Y-40255365D01*
X62128366Y-40342359D01*
X62279500Y-40372964D01*
X62635100Y-40372964D01*
X62635100Y-42119524D01*
X62557954Y-41999635D01*
X62430634Y-41912641D01*
X62279500Y-41882036D01*
X61644500Y-41882036D01*
X61503310Y-41908603D01*
X61373635Y-41992046D01*
X61286641Y-42119366D01*
X61256036Y-42270500D01*
X61256036Y-43159500D01*
X61282603Y-43300690D01*
X61313948Y-43349401D01*
X61286641Y-43389366D01*
X61256036Y-43540500D01*
X61256036Y-44429500D01*
X61282603Y-44570690D01*
X61366046Y-44700365D01*
X61493366Y-44787359D01*
X61644500Y-44817964D01*
X62279500Y-44817964D01*
X62420690Y-44791397D01*
X62537009Y-44716548D01*
X62635100Y-44814639D01*
X62635100Y-45255000D01*
X62663942Y-45400000D01*
X62670869Y-45434823D01*
X62772731Y-45587269D01*
X64256458Y-47070997D01*
X64231639Y-47070975D01*
X63965479Y-47180950D01*
X63761665Y-47384408D01*
X63651226Y-47650376D01*
X63650975Y-47938361D01*
X63760950Y-48204521D01*
X63964408Y-48408335D01*
X64230376Y-48518774D01*
X64434413Y-48518952D01*
X64448706Y-48533244D01*
X64431036Y-48620500D01*
X64431036Y-49509500D01*
X64457603Y-49650690D01*
X64541046Y-49780365D01*
X64665060Y-49865100D01*
X63299639Y-49865100D01*
X62939900Y-49505362D01*
X62939900Y-47795000D01*
X62904131Y-47615177D01*
X62890767Y-47595177D01*
X62802270Y-47462731D01*
X62167269Y-46827731D01*
X62014823Y-46725869D01*
X61835000Y-46690100D01*
X57583185Y-46690100D01*
X57563296Y-46584401D01*
X57592859Y-46541134D01*
X57623464Y-46390000D01*
X57623464Y-45390000D01*
X57596897Y-45248810D01*
X57513454Y-45119135D01*
X57497000Y-45107892D01*
X57497000Y-44754464D01*
X57618600Y-44754464D01*
X57759790Y-44727897D01*
X57889465Y-44644454D01*
X57976459Y-44517134D01*
X58007064Y-44366000D01*
X58007064Y-42334000D01*
X57980497Y-42192810D01*
X57897054Y-42063135D01*
X57769734Y-41976141D01*
X57618600Y-41945536D01*
X55891400Y-41945536D01*
X55750210Y-41972103D01*
X55620535Y-42055546D01*
X55533541Y-42182866D01*
X55502936Y-42334000D01*
X55502936Y-42400618D01*
X55449922Y-42272314D01*
X55093132Y-41914900D01*
X57830362Y-41914900D01*
X58962730Y-43047269D01*
X59055313Y-43109131D01*
X59115177Y-43149131D01*
X59295000Y-43184900D01*
X59736815Y-43184900D01*
X59758603Y-43300690D01*
X59789948Y-43349401D01*
X59762641Y-43389366D01*
X59732036Y-43540500D01*
X59732036Y-44429500D01*
X59758603Y-44570690D01*
X59789948Y-44619401D01*
X59762641Y-44659366D01*
X59732036Y-44810500D01*
X59732036Y-45699500D01*
X59758603Y-45840690D01*
X59842046Y-45970365D01*
X59969366Y-46057359D01*
X60120500Y-46087964D01*
X60755500Y-46087964D01*
X60896690Y-46061397D01*
X61026365Y-45977954D01*
X61113359Y-45850634D01*
X61143964Y-45699500D01*
X61143964Y-44810500D01*
X61117397Y-44669310D01*
X61086052Y-44620599D01*
X61113359Y-44580634D01*
X61143964Y-44429500D01*
X61143964Y-43540500D01*
X61117397Y-43399310D01*
X61086052Y-43350599D01*
X61113359Y-43310634D01*
X61143964Y-43159500D01*
X61143964Y-42270500D01*
X61117397Y-42129310D01*
X61033954Y-41999635D01*
X60906634Y-41912641D01*
X60755500Y-41882036D01*
X60120500Y-41882036D01*
X59979310Y-41908603D01*
X59849635Y-41992046D01*
X59762641Y-42119366D01*
X59737180Y-42245100D01*
X59489639Y-42245100D01*
X58357269Y-41112731D01*
X58204823Y-41010869D01*
X58025000Y-40975100D01*
X54215000Y-40975100D01*
X54035177Y-41010869D01*
X53882731Y-41112730D01*
X53550709Y-41444752D01*
X53456735Y-41444670D01*
X52756314Y-41734078D01*
X52219961Y-42269495D01*
X51929332Y-42969410D01*
X51928670Y-43727265D01*
X52218078Y-44427686D01*
X52753495Y-44964039D01*
X53385587Y-45226505D01*
X53377141Y-45238866D01*
X53346536Y-45390000D01*
X53346536Y-46390000D01*
X53373103Y-46531190D01*
X53456546Y-46660865D01*
X53583866Y-46747859D01*
X53735000Y-46778464D01*
X54652036Y-46778464D01*
X54652036Y-47094938D01*
X54586974Y-47160000D01*
X52936246Y-47160000D01*
X52826734Y-47050488D01*
X52826734Y-46759950D01*
X52800167Y-46618760D01*
X52716724Y-46489085D01*
X52589404Y-46402091D01*
X52438270Y-46371486D01*
X51638170Y-46371486D01*
X51496980Y-46398053D01*
X51367305Y-46481496D01*
X51280311Y-46608816D01*
X51249706Y-46759950D01*
X51249706Y-47340168D01*
X50745830Y-46836292D01*
X50797149Y-46761184D01*
X50827754Y-46610050D01*
X50827754Y-45809950D01*
X50801187Y-45668760D01*
X50717744Y-45539085D01*
X50590424Y-45452091D01*
X50439290Y-45421486D01*
X49639190Y-45421486D01*
X49498000Y-45448053D01*
X49368325Y-45531496D01*
X49281331Y-45658816D01*
X49250726Y-45809950D01*
X49250726Y-46610050D01*
X49277293Y-46751240D01*
X49360736Y-46880915D01*
X49488056Y-46967909D01*
X49618670Y-46994359D01*
X49706971Y-47126509D01*
X51469730Y-48889269D01*
X51599870Y-48976226D01*
X51622177Y-48991131D01*
X51802000Y-49026900D01*
X53415816Y-49026900D01*
X53492046Y-49145365D01*
X53619366Y-49232359D01*
X53770500Y-49262964D01*
X54659500Y-49262964D01*
X54800690Y-49236397D01*
X54849401Y-49205052D01*
X54889366Y-49232359D01*
X55040500Y-49262964D01*
X55929500Y-49262964D01*
X56070690Y-49236397D01*
X56119401Y-49205052D01*
X56159366Y-49232359D01*
X56310500Y-49262964D01*
X57199500Y-49262964D01*
X57340690Y-49236397D01*
X57470365Y-49152954D01*
X57557359Y-49025634D01*
X57587964Y-48874500D01*
X57587964Y-48239500D01*
X57561397Y-48098310D01*
X57477954Y-47968635D01*
X57350634Y-47881641D01*
X57199500Y-47851036D01*
X56310500Y-47851036D01*
X56169310Y-47877603D01*
X56120599Y-47908948D01*
X56080634Y-47881641D01*
X55929500Y-47851036D01*
X55691990Y-47851036D01*
X55804062Y-47738964D01*
X55929500Y-47738964D01*
X56070690Y-47712397D01*
X56119401Y-47681052D01*
X56159366Y-47708359D01*
X56310500Y-47738964D01*
X57199500Y-47738964D01*
X57340690Y-47712397D01*
X57468895Y-47629900D01*
X61640362Y-47629900D01*
X62000100Y-47989639D01*
X62000100Y-49700000D01*
X62032940Y-49865100D01*
X62035869Y-49879823D01*
X62137731Y-50032269D01*
X62772731Y-50667270D01*
X62900631Y-50752730D01*
X62925177Y-50769131D01*
X63105000Y-50804900D01*
X65645000Y-50804900D01*
X65824823Y-50769131D01*
X65977269Y-50667269D01*
X66474639Y-50169900D01*
X66477940Y-50169900D01*
X66445100Y-50335000D01*
X66445100Y-50775361D01*
X66085362Y-51135100D01*
X59295000Y-51135100D01*
X59115177Y-51170869D01*
X58962731Y-51272730D01*
X58327732Y-51907730D01*
X58327731Y-51907731D01*
X58225869Y-52060177D01*
X58190100Y-52240000D01*
X58190100Y-55220361D01*
X57830362Y-55580100D01*
X57583185Y-55580100D01*
X57563296Y-55474401D01*
X57592859Y-55431134D01*
X57623464Y-55280000D01*
X57623464Y-54280000D01*
X57596897Y-54138810D01*
X57513454Y-54009135D01*
X57497000Y-53997892D01*
X57497000Y-53644464D01*
X57618600Y-53644464D01*
X57759790Y-53617897D01*
X57889465Y-53534454D01*
X57976459Y-53407134D01*
X58007064Y-53256000D01*
X58007064Y-51224000D01*
X57980497Y-51082810D01*
X57897054Y-50953135D01*
X57769734Y-50866141D01*
X57618600Y-50835536D01*
X55891400Y-50835536D01*
X55750210Y-50862103D01*
X55620535Y-50945546D01*
X55533541Y-51072866D01*
X55502936Y-51224000D01*
X55502936Y-51290618D01*
X55449922Y-51162314D01*
X54914505Y-50625961D01*
X54214590Y-50335332D01*
X53456735Y-50334670D01*
X52756314Y-50624078D01*
X52219961Y-51159495D01*
X51929332Y-51859410D01*
X51928670Y-52617265D01*
X52218078Y-53317686D01*
X52753495Y-53854039D01*
X53385587Y-54116505D01*
X53377141Y-54128866D01*
X53346536Y-54280000D01*
X53346536Y-55280000D01*
X53373103Y-55421190D01*
X53456546Y-55550865D01*
X53583866Y-55637859D01*
X53735000Y-55668464D01*
X54652036Y-55668464D01*
X54652036Y-55984938D01*
X54586974Y-56050000D01*
X52936246Y-56050000D01*
X52826734Y-55940488D01*
X52826734Y-55649950D01*
X52800167Y-55508760D01*
X52716724Y-55379085D01*
X52589404Y-55292091D01*
X52438270Y-55261486D01*
X51638170Y-55261486D01*
X51496980Y-55288053D01*
X51367305Y-55371496D01*
X51280311Y-55498816D01*
X51249706Y-55649950D01*
X51249706Y-56230168D01*
X50745830Y-55726292D01*
X50797149Y-55651184D01*
X50827754Y-55500050D01*
X50827754Y-54699950D01*
X50801187Y-54558760D01*
X50717744Y-54429085D01*
X50590424Y-54342091D01*
X50439290Y-54311486D01*
X49639190Y-54311486D01*
X49498000Y-54338053D01*
X49368325Y-54421496D01*
X49281331Y-54548816D01*
X49250726Y-54699950D01*
X49250726Y-55500050D01*
X49277293Y-55641240D01*
X49360736Y-55770915D01*
X49488056Y-55857909D01*
X49618670Y-55884359D01*
X49706971Y-56016509D01*
X51469730Y-57779269D01*
X51622177Y-57881131D01*
X51802000Y-57916900D01*
X53415816Y-57916900D01*
X53492046Y-58035365D01*
X53619366Y-58122359D01*
X53770500Y-58152964D01*
X54659500Y-58152964D01*
X54800690Y-58126397D01*
X54849401Y-58095052D01*
X54889366Y-58122359D01*
X55040500Y-58152964D01*
X55929500Y-58152964D01*
X56070690Y-58126397D01*
X56119401Y-58095052D01*
X56159366Y-58122359D01*
X56310500Y-58152964D01*
X57199500Y-58152964D01*
X57340690Y-58126397D01*
X57470365Y-58042954D01*
X57557359Y-57915634D01*
X57587964Y-57764500D01*
X57587964Y-57129500D01*
X57561397Y-56988310D01*
X57477954Y-56858635D01*
X57350634Y-56771641D01*
X57199500Y-56741036D01*
X56310500Y-56741036D01*
X56169310Y-56767603D01*
X56120599Y-56798948D01*
X56080634Y-56771641D01*
X55929500Y-56741036D01*
X55691990Y-56741036D01*
X55804062Y-56628964D01*
X55929500Y-56628964D01*
X56070690Y-56602397D01*
X56119401Y-56571052D01*
X56159366Y-56598359D01*
X56310500Y-56628964D01*
X57199500Y-56628964D01*
X57340690Y-56602397D01*
X57468895Y-56519900D01*
X58025000Y-56519900D01*
X58204823Y-56484131D01*
X58357269Y-56382269D01*
X58825100Y-55914439D01*
X58825100Y-64745361D01*
X58465362Y-65105100D01*
X57465463Y-65105100D01*
X57350634Y-65026641D01*
X57199500Y-64996036D01*
X56310500Y-64996036D01*
X56169310Y-65022603D01*
X56120599Y-65053948D01*
X56080634Y-65026641D01*
X55929500Y-64996036D01*
X55804062Y-64996036D01*
X55691990Y-64883964D01*
X55929500Y-64883964D01*
X56070690Y-64857397D01*
X56119401Y-64826052D01*
X56159366Y-64853359D01*
X56310500Y-64883964D01*
X57199500Y-64883964D01*
X57340690Y-64857397D01*
X57470365Y-64773954D01*
X57557359Y-64646634D01*
X57587964Y-64495500D01*
X57587964Y-63860500D01*
X57561397Y-63719310D01*
X57477954Y-63589635D01*
X57350634Y-63502641D01*
X57199500Y-63472036D01*
X56310500Y-63472036D01*
X56169310Y-63498603D01*
X56120599Y-63529948D01*
X56080634Y-63502641D01*
X55929500Y-63472036D01*
X55040500Y-63472036D01*
X54899310Y-63498603D01*
X54850599Y-63529948D01*
X54810634Y-63502641D01*
X54659500Y-63472036D01*
X53770500Y-63472036D01*
X53629310Y-63498603D01*
X53499635Y-63582046D01*
X53413506Y-63708100D01*
X50486240Y-63708100D01*
X50306417Y-63743869D01*
X50167806Y-63836486D01*
X49639190Y-63836486D01*
X49498000Y-63863053D01*
X49368325Y-63946496D01*
X49281331Y-64073816D01*
X49250726Y-64224950D01*
X49250726Y-65025050D01*
X49277293Y-65166240D01*
X49360736Y-65295915D01*
X49488056Y-65382909D01*
X49639190Y-65413514D01*
X50439290Y-65413514D01*
X50580480Y-65386947D01*
X50710155Y-65303504D01*
X50797149Y-65176184D01*
X50827754Y-65025050D01*
X50827754Y-64647900D01*
X52067294Y-64647900D01*
X51928708Y-64786486D01*
X51638170Y-64786486D01*
X51496980Y-64813053D01*
X51367305Y-64896496D01*
X51280311Y-65023816D01*
X51249706Y-65174950D01*
X51249706Y-65975050D01*
X51276273Y-66116240D01*
X51359716Y-66245915D01*
X51487036Y-66332909D01*
X51638170Y-66363514D01*
X52438270Y-66363514D01*
X52579460Y-66336947D01*
X52709135Y-66253504D01*
X52796129Y-66126184D01*
X52826734Y-65975050D01*
X52826734Y-65684512D01*
X52936246Y-65575000D01*
X54586974Y-65575000D01*
X54652036Y-65640062D01*
X54652036Y-65956536D01*
X53735000Y-65956536D01*
X53593810Y-65983103D01*
X53464135Y-66066546D01*
X53377141Y-66193866D01*
X53346536Y-66345000D01*
X53346536Y-67345000D01*
X53373103Y-67486190D01*
X53387354Y-67508337D01*
X52756314Y-67769078D01*
X52219961Y-68304495D01*
X51929332Y-69004410D01*
X51928670Y-69762265D01*
X52218078Y-70462686D01*
X52753495Y-70999039D01*
X53453410Y-71289668D01*
X54211265Y-71290330D01*
X54911686Y-71000922D01*
X55448039Y-70465505D01*
X55502936Y-70333298D01*
X55502936Y-70401000D01*
X55529503Y-70542190D01*
X55612946Y-70671865D01*
X55740266Y-70758859D01*
X55891400Y-70789464D01*
X57618600Y-70789464D01*
X57759790Y-70762897D01*
X57889465Y-70679454D01*
X57976459Y-70552134D01*
X58007064Y-70401000D01*
X58007064Y-68369000D01*
X57980497Y-68227810D01*
X57897054Y-68098135D01*
X57769734Y-68011141D01*
X57618600Y-67980536D01*
X57497000Y-67980536D01*
X57497000Y-67629158D01*
X57505865Y-67623454D01*
X57592859Y-67496134D01*
X57623464Y-67345000D01*
X57623464Y-66345000D01*
X57596897Y-66203810D01*
X57561713Y-66149132D01*
X57582820Y-66044900D01*
X58660000Y-66044900D01*
X58839823Y-66009131D01*
X58992269Y-65907269D01*
X59460100Y-65439439D01*
X59460100Y-73635361D01*
X59100362Y-73995100D01*
X57465463Y-73995100D01*
X57350634Y-73916641D01*
X57199500Y-73886036D01*
X56310500Y-73886036D01*
X56169310Y-73912603D01*
X56120599Y-73943948D01*
X56080634Y-73916641D01*
X55929500Y-73886036D01*
X55804062Y-73886036D01*
X55691990Y-73773964D01*
X55929500Y-73773964D01*
X56070690Y-73747397D01*
X56119401Y-73716052D01*
X56159366Y-73743359D01*
X56310500Y-73773964D01*
X57199500Y-73773964D01*
X57340690Y-73747397D01*
X57470365Y-73663954D01*
X57557359Y-73536634D01*
X57587964Y-73385500D01*
X57587964Y-72750500D01*
X57561397Y-72609310D01*
X57477954Y-72479635D01*
X57350634Y-72392641D01*
X57199500Y-72362036D01*
X56310500Y-72362036D01*
X56169310Y-72388603D01*
X56120599Y-72419948D01*
X56080634Y-72392641D01*
X55929500Y-72362036D01*
X55040500Y-72362036D01*
X54899310Y-72388603D01*
X54850599Y-72419948D01*
X54810634Y-72392641D01*
X54659500Y-72362036D01*
X53770500Y-72362036D01*
X53629310Y-72388603D01*
X53499635Y-72472046D01*
X53413506Y-72598100D01*
X50486240Y-72598100D01*
X50306417Y-72633869D01*
X50167806Y-72726486D01*
X49639190Y-72726486D01*
X49498000Y-72753053D01*
X49368325Y-72836496D01*
X49281331Y-72963816D01*
X49250726Y-73114950D01*
X49250726Y-73915050D01*
X49277293Y-74056240D01*
X49360736Y-74185915D01*
X49488056Y-74272909D01*
X49639190Y-74303514D01*
X50439290Y-74303514D01*
X50580480Y-74276947D01*
X50710155Y-74193504D01*
X50797149Y-74066184D01*
X50827754Y-73915050D01*
X50827754Y-73537900D01*
X52067294Y-73537900D01*
X51928708Y-73676486D01*
X51638170Y-73676486D01*
X51496980Y-73703053D01*
X51367305Y-73786496D01*
X51280311Y-73913816D01*
X51249706Y-74064950D01*
X51249706Y-74865050D01*
X51276273Y-75006240D01*
X51359716Y-75135915D01*
X51487036Y-75222909D01*
X51638170Y-75253514D01*
X52438270Y-75253514D01*
X52579460Y-75226947D01*
X52709135Y-75143504D01*
X52796129Y-75016184D01*
X52826734Y-74865050D01*
X52826734Y-74574512D01*
X52936246Y-74465000D01*
X54586974Y-74465000D01*
X54652036Y-74530062D01*
X54652036Y-74846536D01*
X53735000Y-74846536D01*
X53593810Y-74873103D01*
X53464135Y-74956546D01*
X53377141Y-75083866D01*
X53346536Y-75235000D01*
X53346536Y-76235000D01*
X53373103Y-76376190D01*
X53387354Y-76398337D01*
X52756314Y-76659078D01*
X52219961Y-77194495D01*
X51929332Y-77894410D01*
X51929110Y-78148000D01*
X48931000Y-78148000D01*
X48931000Y-59845000D01*
X53176536Y-59845000D01*
X53176536Y-61145000D01*
X53203103Y-61286190D01*
X53286546Y-61415865D01*
X53413866Y-61502859D01*
X53565000Y-61533464D01*
X54865000Y-61533464D01*
X55006190Y-61506897D01*
X55135865Y-61423454D01*
X55222859Y-61296134D01*
X55253464Y-61145000D01*
X55253464Y-59845000D01*
X55226897Y-59703810D01*
X55143454Y-59574135D01*
X55016134Y-59487141D01*
X54865000Y-59456536D01*
X53565000Y-59456536D01*
X53423810Y-59483103D01*
X53294135Y-59566546D01*
X53207141Y-59693866D01*
X53176536Y-59845000D01*
X48931000Y-59845000D01*
X48931000Y-38272448D01*
X49096294Y-37441459D01*
X49542966Y-36772967D01*
X50211461Y-36326293D01*
X51042448Y-36161000D01*
X54516462Y-36161000D01*
X54263731Y-36413731D01*
X54263731Y-36413731D01*
G37*
X54263731Y-36413731D02*
X54161869Y-36566177D01*
X54126100Y-36746000D01*
X54126100Y-38778000D01*
X54149916Y-38897731D01*
X54161869Y-38957823D01*
X54263731Y-39110269D01*
X54715731Y-39562270D01*
X54810914Y-39625869D01*
X54861536Y-39659694D01*
X54861536Y-39830000D01*
X54888103Y-39971190D01*
X54971546Y-40100865D01*
X55098866Y-40187859D01*
X55250000Y-40218464D01*
X56750000Y-40218464D01*
X56891190Y-40191897D01*
X57020865Y-40108454D01*
X57107859Y-39981134D01*
X57138464Y-39830000D01*
X57138464Y-38656214D01*
X57210177Y-38704131D01*
X57390000Y-38739900D01*
X57861536Y-38739900D01*
X57861536Y-39830000D01*
X57888103Y-39971190D01*
X57971546Y-40100865D01*
X58098866Y-40187859D01*
X58250000Y-40218464D01*
X59750000Y-40218464D01*
X59891190Y-40191897D01*
X60020865Y-40108454D01*
X60088204Y-40009900D01*
X60371815Y-40009900D01*
X60393603Y-40125690D01*
X60477046Y-40255365D01*
X60604366Y-40342359D01*
X60755500Y-40372964D01*
X61390500Y-40372964D01*
X61531690Y-40346397D01*
X61661365Y-40262954D01*
X61748359Y-40135634D01*
X61778964Y-39984500D01*
X61778964Y-39095500D01*
X61752397Y-38954310D01*
X61721052Y-38905599D01*
X61748359Y-38865634D01*
X61778964Y-38714500D01*
X61778964Y-37825500D01*
X61752397Y-37684310D01*
X61721052Y-37635599D01*
X61748359Y-37595634D01*
X61778964Y-37444500D01*
X61778964Y-36707900D01*
X61891036Y-36707900D01*
X61891036Y-37444500D01*
X61917603Y-37585690D01*
X61948948Y-37634401D01*
X61921641Y-37674366D01*
X61891036Y-37825500D01*
X61891036Y-38714500D01*
X61917603Y-38855690D01*
X61948948Y-38904401D01*
X61921641Y-38944366D01*
X61891036Y-39095500D01*
X61891036Y-39984500D01*
X61917603Y-40125690D01*
X62001046Y-40255365D01*
X62128366Y-40342359D01*
X62279500Y-40372964D01*
X62635100Y-40372964D01*
X62635100Y-42119524D01*
X62557954Y-41999635D01*
X62430634Y-41912641D01*
X62279500Y-41882036D01*
X61644500Y-41882036D01*
X61503310Y-41908603D01*
X61373635Y-41992046D01*
X61286641Y-42119366D01*
X61256036Y-42270500D01*
X61256036Y-43159500D01*
X61282603Y-43300690D01*
X61313948Y-43349401D01*
X61286641Y-43389366D01*
X61256036Y-43540500D01*
X61256036Y-44429500D01*
X61282603Y-44570690D01*
X61366046Y-44700365D01*
X61493366Y-44787359D01*
X61644500Y-44817964D01*
X62279500Y-44817964D01*
X62420690Y-44791397D01*
X62537009Y-44716548D01*
X62635100Y-44814639D01*
X62635100Y-45255000D01*
X62663942Y-45400000D01*
X62670869Y-45434823D01*
X62772731Y-45587269D01*
X64256458Y-47070997D01*
X64231639Y-47070975D01*
X63965479Y-47180950D01*
X63761665Y-47384408D01*
X63651226Y-47650376D01*
X63650975Y-47938361D01*
X63760950Y-48204521D01*
X63964408Y-48408335D01*
X64230376Y-48518774D01*
X64434413Y-48518952D01*
X64448706Y-48533244D01*
X64431036Y-48620500D01*
X64431036Y-49509500D01*
X64457603Y-49650690D01*
X64541046Y-49780365D01*
X64665060Y-49865100D01*
X63299639Y-49865100D01*
X62939900Y-49505362D01*
X62939900Y-47795000D01*
X62904131Y-47615177D01*
X62890767Y-47595177D01*
X62802270Y-47462731D01*
X62167269Y-46827731D01*
X62014823Y-46725869D01*
X61835000Y-46690100D01*
X57583185Y-46690100D01*
X57563296Y-46584401D01*
X57592859Y-46541134D01*
X57623464Y-46390000D01*
X57623464Y-45390000D01*
X57596897Y-45248810D01*
X57513454Y-45119135D01*
X57497000Y-45107892D01*
X57497000Y-44754464D01*
X57618600Y-44754464D01*
X57759790Y-44727897D01*
X57889465Y-44644454D01*
X57976459Y-44517134D01*
X58007064Y-44366000D01*
X58007064Y-42334000D01*
X57980497Y-42192810D01*
X57897054Y-42063135D01*
X57769734Y-41976141D01*
X57618600Y-41945536D01*
X55891400Y-41945536D01*
X55750210Y-41972103D01*
X55620535Y-42055546D01*
X55533541Y-42182866D01*
X55502936Y-42334000D01*
X55502936Y-42400618D01*
X55449922Y-42272314D01*
X55093132Y-41914900D01*
X57830362Y-41914900D01*
X58962730Y-43047269D01*
X59055313Y-43109131D01*
X59115177Y-43149131D01*
X59295000Y-43184900D01*
X59736815Y-43184900D01*
X59758603Y-43300690D01*
X59789948Y-43349401D01*
X59762641Y-43389366D01*
X59732036Y-43540500D01*
X59732036Y-44429500D01*
X59758603Y-44570690D01*
X59789948Y-44619401D01*
X59762641Y-44659366D01*
X59732036Y-44810500D01*
X59732036Y-45699500D01*
X59758603Y-45840690D01*
X59842046Y-45970365D01*
X59969366Y-46057359D01*
X60120500Y-46087964D01*
X60755500Y-46087964D01*
X60896690Y-46061397D01*
X61026365Y-45977954D01*
X61113359Y-45850634D01*
X61143964Y-45699500D01*
X61143964Y-44810500D01*
X61117397Y-44669310D01*
X61086052Y-44620599D01*
X61113359Y-44580634D01*
X61143964Y-44429500D01*
X61143964Y-43540500D01*
X61117397Y-43399310D01*
X61086052Y-43350599D01*
X61113359Y-43310634D01*
X61143964Y-43159500D01*
X61143964Y-42270500D01*
X61117397Y-42129310D01*
X61033954Y-41999635D01*
X60906634Y-41912641D01*
X60755500Y-41882036D01*
X60120500Y-41882036D01*
X59979310Y-41908603D01*
X59849635Y-41992046D01*
X59762641Y-42119366D01*
X59737180Y-42245100D01*
X59489639Y-42245100D01*
X58357269Y-41112731D01*
X58204823Y-41010869D01*
X58025000Y-40975100D01*
X54215000Y-40975100D01*
X54035177Y-41010869D01*
X53882731Y-41112730D01*
X53550709Y-41444752D01*
X53456735Y-41444670D01*
X52756314Y-41734078D01*
X52219961Y-42269495D01*
X51929332Y-42969410D01*
X51928670Y-43727265D01*
X52218078Y-44427686D01*
X52753495Y-44964039D01*
X53385587Y-45226505D01*
X53377141Y-45238866D01*
X53346536Y-45390000D01*
X53346536Y-46390000D01*
X53373103Y-46531190D01*
X53456546Y-46660865D01*
X53583866Y-46747859D01*
X53735000Y-46778464D01*
X54652036Y-46778464D01*
X54652036Y-47094938D01*
X54586974Y-47160000D01*
X52936246Y-47160000D01*
X52826734Y-47050488D01*
X52826734Y-46759950D01*
X52800167Y-46618760D01*
X52716724Y-46489085D01*
X52589404Y-46402091D01*
X52438270Y-46371486D01*
X51638170Y-46371486D01*
X51496980Y-46398053D01*
X51367305Y-46481496D01*
X51280311Y-46608816D01*
X51249706Y-46759950D01*
X51249706Y-47340168D01*
X50745830Y-46836292D01*
X50797149Y-46761184D01*
X50827754Y-46610050D01*
X50827754Y-45809950D01*
X50801187Y-45668760D01*
X50717744Y-45539085D01*
X50590424Y-45452091D01*
X50439290Y-45421486D01*
X49639190Y-45421486D01*
X49498000Y-45448053D01*
X49368325Y-45531496D01*
X49281331Y-45658816D01*
X49250726Y-45809950D01*
X49250726Y-46610050D01*
X49277293Y-46751240D01*
X49360736Y-46880915D01*
X49488056Y-46967909D01*
X49618670Y-46994359D01*
X49706971Y-47126509D01*
X51469730Y-48889269D01*
X51599870Y-48976226D01*
X51622177Y-48991131D01*
X51802000Y-49026900D01*
X53415816Y-49026900D01*
X53492046Y-49145365D01*
X53619366Y-49232359D01*
X53770500Y-49262964D01*
X54659500Y-49262964D01*
X54800690Y-49236397D01*
X54849401Y-49205052D01*
X54889366Y-49232359D01*
X55040500Y-49262964D01*
X55929500Y-49262964D01*
X56070690Y-49236397D01*
X56119401Y-49205052D01*
X56159366Y-49232359D01*
X56310500Y-49262964D01*
X57199500Y-49262964D01*
X57340690Y-49236397D01*
X57470365Y-49152954D01*
X57557359Y-49025634D01*
X57587964Y-48874500D01*
X57587964Y-48239500D01*
X57561397Y-48098310D01*
X57477954Y-47968635D01*
X57350634Y-47881641D01*
X57199500Y-47851036D01*
X56310500Y-47851036D01*
X56169310Y-47877603D01*
X56120599Y-47908948D01*
X56080634Y-47881641D01*
X55929500Y-47851036D01*
X55691990Y-47851036D01*
X55804062Y-47738964D01*
X55929500Y-47738964D01*
X56070690Y-47712397D01*
X56119401Y-47681052D01*
X56159366Y-47708359D01*
X56310500Y-47738964D01*
X57199500Y-47738964D01*
X57340690Y-47712397D01*
X57468895Y-47629900D01*
X61640362Y-47629900D01*
X62000100Y-47989639D01*
X62000100Y-49700000D01*
X62032940Y-49865100D01*
X62035869Y-49879823D01*
X62137731Y-50032269D01*
X62772731Y-50667270D01*
X62900631Y-50752730D01*
X62925177Y-50769131D01*
X63105000Y-50804900D01*
X65645000Y-50804900D01*
X65824823Y-50769131D01*
X65977269Y-50667269D01*
X66474639Y-50169900D01*
X66477940Y-50169900D01*
X66445100Y-50335000D01*
X66445100Y-50775361D01*
X66085362Y-51135100D01*
X59295000Y-51135100D01*
X59115177Y-51170869D01*
X58962731Y-51272730D01*
X58327732Y-51907730D01*
X58327731Y-51907731D01*
X58225869Y-52060177D01*
X58190100Y-52240000D01*
X58190100Y-55220361D01*
X57830362Y-55580100D01*
X57583185Y-55580100D01*
X57563296Y-55474401D01*
X57592859Y-55431134D01*
X57623464Y-55280000D01*
X57623464Y-54280000D01*
X57596897Y-54138810D01*
X57513454Y-54009135D01*
X57497000Y-53997892D01*
X57497000Y-53644464D01*
X57618600Y-53644464D01*
X57759790Y-53617897D01*
X57889465Y-53534454D01*
X57976459Y-53407134D01*
X58007064Y-53256000D01*
X58007064Y-51224000D01*
X57980497Y-51082810D01*
X57897054Y-50953135D01*
X57769734Y-50866141D01*
X57618600Y-50835536D01*
X55891400Y-50835536D01*
X55750210Y-50862103D01*
X55620535Y-50945546D01*
X55533541Y-51072866D01*
X55502936Y-51224000D01*
X55502936Y-51290618D01*
X55449922Y-51162314D01*
X54914505Y-50625961D01*
X54214590Y-50335332D01*
X53456735Y-50334670D01*
X52756314Y-50624078D01*
X52219961Y-51159495D01*
X51929332Y-51859410D01*
X51928670Y-52617265D01*
X52218078Y-53317686D01*
X52753495Y-53854039D01*
X53385587Y-54116505D01*
X53377141Y-54128866D01*
X53346536Y-54280000D01*
X53346536Y-55280000D01*
X53373103Y-55421190D01*
X53456546Y-55550865D01*
X53583866Y-55637859D01*
X53735000Y-55668464D01*
X54652036Y-55668464D01*
X54652036Y-55984938D01*
X54586974Y-56050000D01*
X52936246Y-56050000D01*
X52826734Y-55940488D01*
X52826734Y-55649950D01*
X52800167Y-55508760D01*
X52716724Y-55379085D01*
X52589404Y-55292091D01*
X52438270Y-55261486D01*
X51638170Y-55261486D01*
X51496980Y-55288053D01*
X51367305Y-55371496D01*
X51280311Y-55498816D01*
X51249706Y-55649950D01*
X51249706Y-56230168D01*
X50745830Y-55726292D01*
X50797149Y-55651184D01*
X50827754Y-55500050D01*
X50827754Y-54699950D01*
X50801187Y-54558760D01*
X50717744Y-54429085D01*
X50590424Y-54342091D01*
X50439290Y-54311486D01*
X49639190Y-54311486D01*
X49498000Y-54338053D01*
X49368325Y-54421496D01*
X49281331Y-54548816D01*
X49250726Y-54699950D01*
X49250726Y-55500050D01*
X49277293Y-55641240D01*
X49360736Y-55770915D01*
X49488056Y-55857909D01*
X49618670Y-55884359D01*
X49706971Y-56016509D01*
X51469730Y-57779269D01*
X51622177Y-57881131D01*
X51802000Y-57916900D01*
X53415816Y-57916900D01*
X53492046Y-58035365D01*
X53619366Y-58122359D01*
X53770500Y-58152964D01*
X54659500Y-58152964D01*
X54800690Y-58126397D01*
X54849401Y-58095052D01*
X54889366Y-58122359D01*
X55040500Y-58152964D01*
X55929500Y-58152964D01*
X56070690Y-58126397D01*
X56119401Y-58095052D01*
X56159366Y-58122359D01*
X56310500Y-58152964D01*
X57199500Y-58152964D01*
X57340690Y-58126397D01*
X57470365Y-58042954D01*
X57557359Y-57915634D01*
X57587964Y-57764500D01*
X57587964Y-57129500D01*
X57561397Y-56988310D01*
X57477954Y-56858635D01*
X57350634Y-56771641D01*
X57199500Y-56741036D01*
X56310500Y-56741036D01*
X56169310Y-56767603D01*
X56120599Y-56798948D01*
X56080634Y-56771641D01*
X55929500Y-56741036D01*
X55691990Y-56741036D01*
X55804062Y-56628964D01*
X55929500Y-56628964D01*
X56070690Y-56602397D01*
X56119401Y-56571052D01*
X56159366Y-56598359D01*
X56310500Y-56628964D01*
X57199500Y-56628964D01*
X57340690Y-56602397D01*
X57468895Y-56519900D01*
X58025000Y-56519900D01*
X58204823Y-56484131D01*
X58357269Y-56382269D01*
X58825100Y-55914439D01*
X58825100Y-64745361D01*
X58465362Y-65105100D01*
X57465463Y-65105100D01*
X57350634Y-65026641D01*
X57199500Y-64996036D01*
X56310500Y-64996036D01*
X56169310Y-65022603D01*
X56120599Y-65053948D01*
X56080634Y-65026641D01*
X55929500Y-64996036D01*
X55804062Y-64996036D01*
X55691990Y-64883964D01*
X55929500Y-64883964D01*
X56070690Y-64857397D01*
X56119401Y-64826052D01*
X56159366Y-64853359D01*
X56310500Y-64883964D01*
X57199500Y-64883964D01*
X57340690Y-64857397D01*
X57470365Y-64773954D01*
X57557359Y-64646634D01*
X57587964Y-64495500D01*
X57587964Y-63860500D01*
X57561397Y-63719310D01*
X57477954Y-63589635D01*
X57350634Y-63502641D01*
X57199500Y-63472036D01*
X56310500Y-63472036D01*
X56169310Y-63498603D01*
X56120599Y-63529948D01*
X56080634Y-63502641D01*
X55929500Y-63472036D01*
X55040500Y-63472036D01*
X54899310Y-63498603D01*
X54850599Y-63529948D01*
X54810634Y-63502641D01*
X54659500Y-63472036D01*
X53770500Y-63472036D01*
X53629310Y-63498603D01*
X53499635Y-63582046D01*
X53413506Y-63708100D01*
X50486240Y-63708100D01*
X50306417Y-63743869D01*
X50167806Y-63836486D01*
X49639190Y-63836486D01*
X49498000Y-63863053D01*
X49368325Y-63946496D01*
X49281331Y-64073816D01*
X49250726Y-64224950D01*
X49250726Y-65025050D01*
X49277293Y-65166240D01*
X49360736Y-65295915D01*
X49488056Y-65382909D01*
X49639190Y-65413514D01*
X50439290Y-65413514D01*
X50580480Y-65386947D01*
X50710155Y-65303504D01*
X50797149Y-65176184D01*
X50827754Y-65025050D01*
X50827754Y-64647900D01*
X52067294Y-64647900D01*
X51928708Y-64786486D01*
X51638170Y-64786486D01*
X51496980Y-64813053D01*
X51367305Y-64896496D01*
X51280311Y-65023816D01*
X51249706Y-65174950D01*
X51249706Y-65975050D01*
X51276273Y-66116240D01*
X51359716Y-66245915D01*
X51487036Y-66332909D01*
X51638170Y-66363514D01*
X52438270Y-66363514D01*
X52579460Y-66336947D01*
X52709135Y-66253504D01*
X52796129Y-66126184D01*
X52826734Y-65975050D01*
X52826734Y-65684512D01*
X52936246Y-65575000D01*
X54586974Y-65575000D01*
X54652036Y-65640062D01*
X54652036Y-65956536D01*
X53735000Y-65956536D01*
X53593810Y-65983103D01*
X53464135Y-66066546D01*
X53377141Y-66193866D01*
X53346536Y-66345000D01*
X53346536Y-67345000D01*
X53373103Y-67486190D01*
X53387354Y-67508337D01*
X52756314Y-67769078D01*
X52219961Y-68304495D01*
X51929332Y-69004410D01*
X51928670Y-69762265D01*
X52218078Y-70462686D01*
X52753495Y-70999039D01*
X53453410Y-71289668D01*
X54211265Y-71290330D01*
X54911686Y-71000922D01*
X55448039Y-70465505D01*
X55502936Y-70333298D01*
X55502936Y-70401000D01*
X55529503Y-70542190D01*
X55612946Y-70671865D01*
X55740266Y-70758859D01*
X55891400Y-70789464D01*
X57618600Y-70789464D01*
X57759790Y-70762897D01*
X57889465Y-70679454D01*
X57976459Y-70552134D01*
X58007064Y-70401000D01*
X58007064Y-68369000D01*
X57980497Y-68227810D01*
X57897054Y-68098135D01*
X57769734Y-68011141D01*
X57618600Y-67980536D01*
X57497000Y-67980536D01*
X57497000Y-67629158D01*
X57505865Y-67623454D01*
X57592859Y-67496134D01*
X57623464Y-67345000D01*
X57623464Y-66345000D01*
X57596897Y-66203810D01*
X57561713Y-66149132D01*
X57582820Y-66044900D01*
X58660000Y-66044900D01*
X58839823Y-66009131D01*
X58992269Y-65907269D01*
X59460100Y-65439439D01*
X59460100Y-73635361D01*
X59100362Y-73995100D01*
X57465463Y-73995100D01*
X57350634Y-73916641D01*
X57199500Y-73886036D01*
X56310500Y-73886036D01*
X56169310Y-73912603D01*
X56120599Y-73943948D01*
X56080634Y-73916641D01*
X55929500Y-73886036D01*
X55804062Y-73886036D01*
X55691990Y-73773964D01*
X55929500Y-73773964D01*
X56070690Y-73747397D01*
X56119401Y-73716052D01*
X56159366Y-73743359D01*
X56310500Y-73773964D01*
X57199500Y-73773964D01*
X57340690Y-73747397D01*
X57470365Y-73663954D01*
X57557359Y-73536634D01*
X57587964Y-73385500D01*
X57587964Y-72750500D01*
X57561397Y-72609310D01*
X57477954Y-72479635D01*
X57350634Y-72392641D01*
X57199500Y-72362036D01*
X56310500Y-72362036D01*
X56169310Y-72388603D01*
X56120599Y-72419948D01*
X56080634Y-72392641D01*
X55929500Y-72362036D01*
X55040500Y-72362036D01*
X54899310Y-72388603D01*
X54850599Y-72419948D01*
X54810634Y-72392641D01*
X54659500Y-72362036D01*
X53770500Y-72362036D01*
X53629310Y-72388603D01*
X53499635Y-72472046D01*
X53413506Y-72598100D01*
X50486240Y-72598100D01*
X50306417Y-72633869D01*
X50167806Y-72726486D01*
X49639190Y-72726486D01*
X49498000Y-72753053D01*
X49368325Y-72836496D01*
X49281331Y-72963816D01*
X49250726Y-73114950D01*
X49250726Y-73915050D01*
X49277293Y-74056240D01*
X49360736Y-74185915D01*
X49488056Y-74272909D01*
X49639190Y-74303514D01*
X50439290Y-74303514D01*
X50580480Y-74276947D01*
X50710155Y-74193504D01*
X50797149Y-74066184D01*
X50827754Y-73915050D01*
X50827754Y-73537900D01*
X52067294Y-73537900D01*
X51928708Y-73676486D01*
X51638170Y-73676486D01*
X51496980Y-73703053D01*
X51367305Y-73786496D01*
X51280311Y-73913816D01*
X51249706Y-74064950D01*
X51249706Y-74865050D01*
X51276273Y-75006240D01*
X51359716Y-75135915D01*
X51487036Y-75222909D01*
X51638170Y-75253514D01*
X52438270Y-75253514D01*
X52579460Y-75226947D01*
X52709135Y-75143504D01*
X52796129Y-75016184D01*
X52826734Y-74865050D01*
X52826734Y-74574512D01*
X52936246Y-74465000D01*
X54586974Y-74465000D01*
X54652036Y-74530062D01*
X54652036Y-74846536D01*
X53735000Y-74846536D01*
X53593810Y-74873103D01*
X53464135Y-74956546D01*
X53377141Y-75083866D01*
X53346536Y-75235000D01*
X53346536Y-76235000D01*
X53373103Y-76376190D01*
X53387354Y-76398337D01*
X52756314Y-76659078D01*
X52219961Y-77194495D01*
X51929332Y-77894410D01*
X51929110Y-78148000D01*
X48931000Y-78148000D01*
X48931000Y-59845000D01*
X53176536Y-59845000D01*
X53176536Y-61145000D01*
X53203103Y-61286190D01*
X53286546Y-61415865D01*
X53413866Y-61502859D01*
X53565000Y-61533464D01*
X54865000Y-61533464D01*
X55006190Y-61506897D01*
X55135865Y-61423454D01*
X55222859Y-61296134D01*
X55253464Y-61145000D01*
X55253464Y-59845000D01*
X55226897Y-59703810D01*
X55143454Y-59574135D01*
X55016134Y-59487141D01*
X54865000Y-59456536D01*
X53565000Y-59456536D01*
X53423810Y-59483103D01*
X53294135Y-59566546D01*
X53207141Y-59693866D01*
X53176536Y-59845000D01*
X48931000Y-59845000D01*
X48931000Y-38272448D01*
X49096294Y-37441459D01*
X49542966Y-36772967D01*
X50211461Y-36326293D01*
X51042448Y-36161000D01*
X54516462Y-36161000D01*
X54263731Y-36413731D01*
G36*
X75525000Y-53113464D02*
X75680100Y-53113464D01*
X75680100Y-53220000D01*
X75706953Y-53355000D01*
X75715869Y-53399823D01*
X75817731Y-53552269D01*
X78012731Y-55747270D01*
X78165177Y-55849131D01*
X78270853Y-55870151D01*
X78256226Y-55905376D01*
X78255975Y-56193361D01*
X78365950Y-56459521D01*
X78569408Y-56663335D01*
X78835376Y-56773774D01*
X79123361Y-56774025D01*
X79389521Y-56664050D01*
X79533923Y-56519900D01*
X82320100Y-56519900D01*
X82320100Y-63670000D01*
X82353216Y-63836486D01*
X82355869Y-63849823D01*
X82457731Y-64002269D01*
X84225100Y-65769639D01*
X84225100Y-70460361D01*
X83865362Y-70820100D01*
X78345000Y-70820100D01*
X78165177Y-70855869D01*
X78012731Y-70957730D01*
X77515362Y-71455100D01*
X75999639Y-71455100D01*
X75923464Y-71378925D01*
X75923464Y-69155000D01*
X75896897Y-69013810D01*
X75813454Y-68884135D01*
X75686134Y-68797141D01*
X75535000Y-68766536D01*
X73535000Y-68766536D01*
X73393810Y-68793103D01*
X73264135Y-68876546D01*
X73263566Y-68877379D01*
X73146134Y-68797141D01*
X72995000Y-68766536D01*
X70995000Y-68766536D01*
X70853810Y-68793103D01*
X70724135Y-68876546D01*
X70637141Y-69003866D01*
X70606536Y-69155000D01*
X70606536Y-72155000D01*
X70633103Y-72296190D01*
X70716546Y-72425865D01*
X70843866Y-72512859D01*
X70995000Y-72543464D01*
X72583925Y-72543464D01*
X72932730Y-72892269D01*
X73054690Y-72973760D01*
X73085177Y-72994131D01*
X73265000Y-73029900D01*
X78345000Y-73029900D01*
X78524823Y-72994131D01*
X78588250Y-72951750D01*
X78545869Y-73015177D01*
X78522713Y-73131592D01*
X78503712Y-73135371D01*
X78099935Y-73405166D01*
X77830140Y-73808943D01*
X77735400Y-74285231D01*
X77735400Y-74644769D01*
X77830140Y-75121057D01*
X78099935Y-75524834D01*
X78503712Y-75794629D01*
X78980000Y-75889369D01*
X79456288Y-75794629D01*
X79860065Y-75524834D01*
X80129860Y-75121057D01*
X80224600Y-74644769D01*
X80224600Y-74285231D01*
X80275400Y-74285231D01*
X80275400Y-74644769D01*
X80370140Y-75121057D01*
X80639935Y-75524834D01*
X81043712Y-75794629D01*
X81520000Y-75889369D01*
X81996288Y-75794629D01*
X82400065Y-75524834D01*
X82669860Y-75121057D01*
X82764600Y-74644769D01*
X82764600Y-74285231D01*
X82669860Y-73808943D01*
X82400065Y-73405166D01*
X81996288Y-73135371D01*
X81520000Y-73040631D01*
X81043712Y-73135371D01*
X80639935Y-73405166D01*
X80370140Y-73808943D01*
X80275400Y-74285231D01*
X80224600Y-74285231D01*
X80129860Y-73808943D01*
X79860065Y-73405166D01*
X79604881Y-73234658D01*
X79809639Y-73029900D01*
X84060000Y-73029900D01*
X84239823Y-72994131D01*
X84392269Y-72892269D01*
X86130100Y-71154439D01*
X86130100Y-75540361D01*
X85770362Y-75900100D01*
X77269639Y-75900100D01*
X77064881Y-75695342D01*
X77320065Y-75524834D01*
X77589860Y-75121057D01*
X77684600Y-74644769D01*
X77684600Y-74285231D01*
X77589860Y-73808943D01*
X77320065Y-73405166D01*
X76916288Y-73135371D01*
X76440000Y-73040631D01*
X75963712Y-73135371D01*
X75559935Y-73405166D01*
X75290140Y-73808943D01*
X75195400Y-74285231D01*
X75195400Y-74644769D01*
X75290140Y-75121057D01*
X75559935Y-75524834D01*
X75963712Y-75794629D01*
X75982713Y-75798408D01*
X75996953Y-75870000D01*
X75997944Y-75874979D01*
X75805000Y-75836600D01*
X74433400Y-75836600D01*
X74433400Y-75756468D01*
X74780065Y-75524834D01*
X75049860Y-75121057D01*
X75144600Y-74644769D01*
X75144600Y-74285231D01*
X75049860Y-73808943D01*
X74780065Y-73405166D01*
X74376288Y-73135371D01*
X73900000Y-73040631D01*
X73423712Y-73135371D01*
X73019935Y-73405166D01*
X72750140Y-73808943D01*
X72655400Y-74285231D01*
X72655400Y-74644769D01*
X72750140Y-75121057D01*
X73019935Y-75524834D01*
X73366600Y-75756468D01*
X73366600Y-75836600D01*
X71625286Y-75836600D01*
X71836288Y-75794629D01*
X72240065Y-75524834D01*
X72509860Y-75121057D01*
X72604600Y-74644769D01*
X72604600Y-74285231D01*
X72509860Y-73808943D01*
X72240065Y-73405166D01*
X71836288Y-73135371D01*
X71360000Y-73040631D01*
X70883712Y-73135371D01*
X70479935Y-73405166D01*
X70210140Y-73808943D01*
X70115400Y-74285231D01*
X70115400Y-74644769D01*
X70210140Y-75121057D01*
X70479935Y-75524834D01*
X70883712Y-75794629D01*
X71094714Y-75836600D01*
X67770941Y-75836600D01*
X67448400Y-75514058D01*
X67448400Y-72543464D01*
X67915000Y-72543464D01*
X68056190Y-72516897D01*
X68185865Y-72433454D01*
X68272859Y-72306134D01*
X68303464Y-72155000D01*
X68303464Y-69155000D01*
X68276897Y-69013810D01*
X68193454Y-68884135D01*
X68066134Y-68797141D01*
X67915000Y-68766536D01*
X65915000Y-68766536D01*
X65773810Y-68793103D01*
X65644135Y-68876546D01*
X65557141Y-69003866D01*
X65526536Y-69155000D01*
X65526536Y-70020000D01*
X62229864Y-70020000D01*
X62126605Y-69951004D01*
X62004802Y-69926776D01*
X61708000Y-69629974D01*
X61708000Y-62273000D01*
X61659664Y-62029996D01*
X61659664Y-62029995D01*
X61586962Y-61921190D01*
X61522013Y-61823987D01*
X61522010Y-61823985D01*
X61200000Y-61501974D01*
X61200000Y-57583026D01*
X61463026Y-57320000D01*
X65286182Y-57320000D01*
X65235479Y-57340950D01*
X65031665Y-57544408D01*
X64921226Y-57810376D01*
X64920975Y-58098361D01*
X65030950Y-58364521D01*
X65234408Y-58568335D01*
X65286383Y-58589917D01*
X65235479Y-58610950D01*
X65031665Y-58814408D01*
X64921226Y-59080376D01*
X64920975Y-59368361D01*
X65030950Y-59634521D01*
X65234408Y-59838335D01*
X65500376Y-59948774D01*
X65788361Y-59949025D01*
X66054521Y-59839050D01*
X66198923Y-59694900D01*
X68820000Y-59694900D01*
X68999823Y-59659131D01*
X69152269Y-59557269D01*
X71935691Y-56773848D01*
X72138361Y-56774025D01*
X72404521Y-56664050D01*
X72608335Y-56460592D01*
X72718774Y-56194624D01*
X72719025Y-55906639D01*
X72609050Y-55640479D01*
X72405592Y-55436665D01*
X72139624Y-55326226D01*
X72113336Y-55326203D01*
X72327269Y-55112270D01*
X72429131Y-54959823D01*
X72437017Y-54920177D01*
X72450151Y-54854147D01*
X72485376Y-54868774D01*
X72773361Y-54869025D01*
X73039521Y-54759050D01*
X73243335Y-54555592D01*
X73264917Y-54503617D01*
X73285950Y-54554521D01*
X73489408Y-54758335D01*
X73755376Y-54868774D01*
X74043361Y-54869025D01*
X74309521Y-54759050D01*
X74513335Y-54555592D01*
X74623774Y-54289624D01*
X74623823Y-54233977D01*
X74678361Y-54234025D01*
X74944521Y-54124050D01*
X75148335Y-53920592D01*
X75258774Y-53654624D01*
X75259025Y-53366639D01*
X75154415Y-53113464D01*
X75275000Y-53113464D01*
X75404588Y-53089080D01*
X75525000Y-53113464D01*
X75525000Y-53113464D01*
G37*
X75525000Y-53113464D02*
X75680100Y-53113464D01*
X75680100Y-53220000D01*
X75706953Y-53355000D01*
X75715869Y-53399823D01*
X75817731Y-53552269D01*
X78012731Y-55747270D01*
X78165177Y-55849131D01*
X78270853Y-55870151D01*
X78256226Y-55905376D01*
X78255975Y-56193361D01*
X78365950Y-56459521D01*
X78569408Y-56663335D01*
X78835376Y-56773774D01*
X79123361Y-56774025D01*
X79389521Y-56664050D01*
X79533923Y-56519900D01*
X82320100Y-56519900D01*
X82320100Y-63670000D01*
X82353216Y-63836486D01*
X82355869Y-63849823D01*
X82457731Y-64002269D01*
X84225100Y-65769639D01*
X84225100Y-70460361D01*
X83865362Y-70820100D01*
X78345000Y-70820100D01*
X78165177Y-70855869D01*
X78012731Y-70957730D01*
X77515362Y-71455100D01*
X75999639Y-71455100D01*
X75923464Y-71378925D01*
X75923464Y-69155000D01*
X75896897Y-69013810D01*
X75813454Y-68884135D01*
X75686134Y-68797141D01*
X75535000Y-68766536D01*
X73535000Y-68766536D01*
X73393810Y-68793103D01*
X73264135Y-68876546D01*
X73263566Y-68877379D01*
X73146134Y-68797141D01*
X72995000Y-68766536D01*
X70995000Y-68766536D01*
X70853810Y-68793103D01*
X70724135Y-68876546D01*
X70637141Y-69003866D01*
X70606536Y-69155000D01*
X70606536Y-72155000D01*
X70633103Y-72296190D01*
X70716546Y-72425865D01*
X70843866Y-72512859D01*
X70995000Y-72543464D01*
X72583925Y-72543464D01*
X72932730Y-72892269D01*
X73054690Y-72973760D01*
X73085177Y-72994131D01*
X73265000Y-73029900D01*
X78345000Y-73029900D01*
X78524823Y-72994131D01*
X78588250Y-72951750D01*
X78545869Y-73015177D01*
X78522713Y-73131592D01*
X78503712Y-73135371D01*
X78099935Y-73405166D01*
X77830140Y-73808943D01*
X77735400Y-74285231D01*
X77735400Y-74644769D01*
X77830140Y-75121057D01*
X78099935Y-75524834D01*
X78503712Y-75794629D01*
X78980000Y-75889369D01*
X79456288Y-75794629D01*
X79860065Y-75524834D01*
X80129860Y-75121057D01*
X80224600Y-74644769D01*
X80224600Y-74285231D01*
X80275400Y-74285231D01*
X80275400Y-74644769D01*
X80370140Y-75121057D01*
X80639935Y-75524834D01*
X81043712Y-75794629D01*
X81520000Y-75889369D01*
X81996288Y-75794629D01*
X82400065Y-75524834D01*
X82669860Y-75121057D01*
X82764600Y-74644769D01*
X82764600Y-74285231D01*
X82669860Y-73808943D01*
X82400065Y-73405166D01*
X81996288Y-73135371D01*
X81520000Y-73040631D01*
X81043712Y-73135371D01*
X80639935Y-73405166D01*
X80370140Y-73808943D01*
X80275400Y-74285231D01*
X80224600Y-74285231D01*
X80129860Y-73808943D01*
X79860065Y-73405166D01*
X79604881Y-73234658D01*
X79809639Y-73029900D01*
X84060000Y-73029900D01*
X84239823Y-72994131D01*
X84392269Y-72892269D01*
X86130100Y-71154439D01*
X86130100Y-75540361D01*
X85770362Y-75900100D01*
X77269639Y-75900100D01*
X77064881Y-75695342D01*
X77320065Y-75524834D01*
X77589860Y-75121057D01*
X77684600Y-74644769D01*
X77684600Y-74285231D01*
X77589860Y-73808943D01*
X77320065Y-73405166D01*
X76916288Y-73135371D01*
X76440000Y-73040631D01*
X75963712Y-73135371D01*
X75559935Y-73405166D01*
X75290140Y-73808943D01*
X75195400Y-74285231D01*
X75195400Y-74644769D01*
X75290140Y-75121057D01*
X75559935Y-75524834D01*
X75963712Y-75794629D01*
X75982713Y-75798408D01*
X75996953Y-75870000D01*
X75997944Y-75874979D01*
X75805000Y-75836600D01*
X74433400Y-75836600D01*
X74433400Y-75756468D01*
X74780065Y-75524834D01*
X75049860Y-75121057D01*
X75144600Y-74644769D01*
X75144600Y-74285231D01*
X75049860Y-73808943D01*
X74780065Y-73405166D01*
X74376288Y-73135371D01*
X73900000Y-73040631D01*
X73423712Y-73135371D01*
X73019935Y-73405166D01*
X72750140Y-73808943D01*
X72655400Y-74285231D01*
X72655400Y-74644769D01*
X72750140Y-75121057D01*
X73019935Y-75524834D01*
X73366600Y-75756468D01*
X73366600Y-75836600D01*
X71625286Y-75836600D01*
X71836288Y-75794629D01*
X72240065Y-75524834D01*
X72509860Y-75121057D01*
X72604600Y-74644769D01*
X72604600Y-74285231D01*
X72509860Y-73808943D01*
X72240065Y-73405166D01*
X71836288Y-73135371D01*
X71360000Y-73040631D01*
X70883712Y-73135371D01*
X70479935Y-73405166D01*
X70210140Y-73808943D01*
X70115400Y-74285231D01*
X70115400Y-74644769D01*
X70210140Y-75121057D01*
X70479935Y-75524834D01*
X70883712Y-75794629D01*
X71094714Y-75836600D01*
X67770941Y-75836600D01*
X67448400Y-75514058D01*
X67448400Y-72543464D01*
X67915000Y-72543464D01*
X68056190Y-72516897D01*
X68185865Y-72433454D01*
X68272859Y-72306134D01*
X68303464Y-72155000D01*
X68303464Y-69155000D01*
X68276897Y-69013810D01*
X68193454Y-68884135D01*
X68066134Y-68797141D01*
X67915000Y-68766536D01*
X65915000Y-68766536D01*
X65773810Y-68793103D01*
X65644135Y-68876546D01*
X65557141Y-69003866D01*
X65526536Y-69155000D01*
X65526536Y-70020000D01*
X62229864Y-70020000D01*
X62126605Y-69951004D01*
X62004802Y-69926776D01*
X61708000Y-69629974D01*
X61708000Y-62273000D01*
X61659664Y-62029996D01*
X61659664Y-62029995D01*
X61586962Y-61921190D01*
X61522013Y-61823987D01*
X61522010Y-61823985D01*
X61200000Y-61501974D01*
X61200000Y-57583026D01*
X61463026Y-57320000D01*
X65286182Y-57320000D01*
X65235479Y-57340950D01*
X65031665Y-57544408D01*
X64921226Y-57810376D01*
X64920975Y-58098361D01*
X65030950Y-58364521D01*
X65234408Y-58568335D01*
X65286383Y-58589917D01*
X65235479Y-58610950D01*
X65031665Y-58814408D01*
X64921226Y-59080376D01*
X64920975Y-59368361D01*
X65030950Y-59634521D01*
X65234408Y-59838335D01*
X65500376Y-59948774D01*
X65788361Y-59949025D01*
X66054521Y-59839050D01*
X66198923Y-59694900D01*
X68820000Y-59694900D01*
X68999823Y-59659131D01*
X69152269Y-59557269D01*
X71935691Y-56773848D01*
X72138361Y-56774025D01*
X72404521Y-56664050D01*
X72608335Y-56460592D01*
X72718774Y-56194624D01*
X72719025Y-55906639D01*
X72609050Y-55640479D01*
X72405592Y-55436665D01*
X72139624Y-55326226D01*
X72113336Y-55326203D01*
X72327269Y-55112270D01*
X72429131Y-54959823D01*
X72437017Y-54920177D01*
X72450151Y-54854147D01*
X72485376Y-54868774D01*
X72773361Y-54869025D01*
X73039521Y-54759050D01*
X73243335Y-54555592D01*
X73264917Y-54503617D01*
X73285950Y-54554521D01*
X73489408Y-54758335D01*
X73755376Y-54868774D01*
X74043361Y-54869025D01*
X74309521Y-54759050D01*
X74513335Y-54555592D01*
X74623774Y-54289624D01*
X74623823Y-54233977D01*
X74678361Y-54234025D01*
X74944521Y-54124050D01*
X75148335Y-53920592D01*
X75258774Y-53654624D01*
X75259025Y-53366639D01*
X75154415Y-53113464D01*
X75275000Y-53113464D01*
X75404588Y-53089080D01*
X75525000Y-53113464D01*
G36*
X70191600Y-50970000D02*
X70232203Y-51174123D01*
X70347829Y-51347171D01*
X70352986Y-51352328D01*
X70275000Y-51336536D01*
X70025000Y-51336536D01*
X69883810Y-51363103D01*
X69754135Y-51446546D01*
X69667141Y-51573866D01*
X69636536Y-51725000D01*
X69636536Y-52663925D01*
X69122732Y-53177730D01*
X69122731Y-53177731D01*
X69020869Y-53330177D01*
X68985100Y-53510000D01*
X68985100Y-54585361D01*
X67990362Y-55580100D01*
X60565000Y-55580100D01*
X60385177Y-55615869D01*
X60232731Y-55717730D01*
X59764900Y-56185562D01*
X59764900Y-53069638D01*
X60124639Y-52709900D01*
X66915000Y-52709900D01*
X67094823Y-52674131D01*
X67207100Y-52599109D01*
X67207100Y-52710816D01*
X67088635Y-52787046D01*
X67001641Y-52914366D01*
X66971036Y-53065500D01*
X66971036Y-53954500D01*
X66997603Y-54095690D01*
X67081046Y-54225365D01*
X67208366Y-54312359D01*
X67359500Y-54342964D01*
X67994500Y-54342964D01*
X68135690Y-54316397D01*
X68265365Y-54232954D01*
X68352359Y-54105634D01*
X68382964Y-53954500D01*
X68382964Y-53065500D01*
X68356397Y-52924310D01*
X68272954Y-52794635D01*
X68146900Y-52708506D01*
X68146900Y-52307638D01*
X69649639Y-50804900D01*
X70191600Y-50804900D01*
X70191600Y-50970000D01*
X70191600Y-50970000D01*
G37*
X70191600Y-50970000D02*
X70232203Y-51174123D01*
X70347829Y-51347171D01*
X70352986Y-51352328D01*
X70275000Y-51336536D01*
X70025000Y-51336536D01*
X69883810Y-51363103D01*
X69754135Y-51446546D01*
X69667141Y-51573866D01*
X69636536Y-51725000D01*
X69636536Y-52663925D01*
X69122732Y-53177730D01*
X69122731Y-53177731D01*
X69020869Y-53330177D01*
X68985100Y-53510000D01*
X68985100Y-54585361D01*
X67990362Y-55580100D01*
X60565000Y-55580100D01*
X60385177Y-55615869D01*
X60232731Y-55717730D01*
X59764900Y-56185562D01*
X59764900Y-53069638D01*
X60124639Y-52709900D01*
X66915000Y-52709900D01*
X67094823Y-52674131D01*
X67207100Y-52599109D01*
X67207100Y-52710816D01*
X67088635Y-52787046D01*
X67001641Y-52914366D01*
X66971036Y-53065500D01*
X66971036Y-53954500D01*
X66997603Y-54095690D01*
X67081046Y-54225365D01*
X67208366Y-54312359D01*
X67359500Y-54342964D01*
X67994500Y-54342964D01*
X68135690Y-54316397D01*
X68265365Y-54232954D01*
X68352359Y-54105634D01*
X68382964Y-53954500D01*
X68382964Y-53065500D01*
X68356397Y-52924310D01*
X68272954Y-52794635D01*
X68146900Y-52708506D01*
X68146900Y-52307638D01*
X69649639Y-50804900D01*
X70191600Y-50804900D01*
X70191600Y-50970000D01*
G36*
X82694564Y-51539103D02*
X82622641Y-51644366D01*
X82592036Y-51795500D01*
X82592036Y-52430500D01*
X82618603Y-52571690D01*
X82702046Y-52701365D01*
X82829366Y-52788359D01*
X82980500Y-52818964D01*
X83869500Y-52818964D01*
X84010690Y-52792397D01*
X84059401Y-52761052D01*
X84099366Y-52788359D01*
X84250500Y-52818964D01*
X85139500Y-52818964D01*
X85280690Y-52792397D01*
X85410365Y-52708954D01*
X85495100Y-52584940D01*
X85495100Y-53168524D01*
X85417954Y-53048635D01*
X85290634Y-52961641D01*
X85139500Y-52931036D01*
X84250500Y-52931036D01*
X84109310Y-52957603D01*
X84060599Y-52988948D01*
X84020634Y-52961641D01*
X83869500Y-52931036D01*
X82980500Y-52931036D01*
X82839310Y-52957603D01*
X82709635Y-53041046D01*
X82622641Y-53168366D01*
X82592036Y-53319500D01*
X82592036Y-53954500D01*
X82618603Y-54095690D01*
X82701031Y-54223788D01*
X82700975Y-54288361D01*
X82810950Y-54554521D01*
X82898369Y-54642093D01*
X82595362Y-54945100D01*
X78539639Y-54945100D01*
X77574438Y-53979900D01*
X79421815Y-53979900D01*
X79443603Y-54095690D01*
X79527046Y-54225365D01*
X79654366Y-54312359D01*
X79805500Y-54342964D01*
X80440500Y-54342964D01*
X80581690Y-54316397D01*
X80711365Y-54232954D01*
X80798359Y-54105634D01*
X80828964Y-53954500D01*
X80828964Y-53065500D01*
X80802397Y-52924310D01*
X80771052Y-52875599D01*
X80798359Y-52835634D01*
X80828964Y-52684500D01*
X80828964Y-51795500D01*
X80812347Y-51707191D01*
X81079639Y-51439900D01*
X82595362Y-51439900D01*
X82694564Y-51539103D01*
X82694564Y-51539103D01*
G37*
X82694564Y-51539103D02*
X82622641Y-51644366D01*
X82592036Y-51795500D01*
X82592036Y-52430500D01*
X82618603Y-52571690D01*
X82702046Y-52701365D01*
X82829366Y-52788359D01*
X82980500Y-52818964D01*
X83869500Y-52818964D01*
X84010690Y-52792397D01*
X84059401Y-52761052D01*
X84099366Y-52788359D01*
X84250500Y-52818964D01*
X85139500Y-52818964D01*
X85280690Y-52792397D01*
X85410365Y-52708954D01*
X85495100Y-52584940D01*
X85495100Y-53168524D01*
X85417954Y-53048635D01*
X85290634Y-52961641D01*
X85139500Y-52931036D01*
X84250500Y-52931036D01*
X84109310Y-52957603D01*
X84060599Y-52988948D01*
X84020634Y-52961641D01*
X83869500Y-52931036D01*
X82980500Y-52931036D01*
X82839310Y-52957603D01*
X82709635Y-53041046D01*
X82622641Y-53168366D01*
X82592036Y-53319500D01*
X82592036Y-53954500D01*
X82618603Y-54095690D01*
X82701031Y-54223788D01*
X82700975Y-54288361D01*
X82810950Y-54554521D01*
X82898369Y-54642093D01*
X82595362Y-54945100D01*
X78539639Y-54945100D01*
X77574438Y-53979900D01*
X79421815Y-53979900D01*
X79443603Y-54095690D01*
X79527046Y-54225365D01*
X79654366Y-54312359D01*
X79805500Y-54342964D01*
X80440500Y-54342964D01*
X80581690Y-54316397D01*
X80711365Y-54232954D01*
X80798359Y-54105634D01*
X80828964Y-53954500D01*
X80828964Y-53065500D01*
X80802397Y-52924310D01*
X80771052Y-52875599D01*
X80798359Y-52835634D01*
X80828964Y-52684500D01*
X80828964Y-51795500D01*
X80812347Y-51707191D01*
X81079639Y-51439900D01*
X82595362Y-51439900D01*
X82694564Y-51539103D01*
G36*
X77811600Y-50555942D02*
X77811600Y-50749059D01*
X77272829Y-51287829D01*
X77157203Y-51460877D01*
X77133729Y-51578887D01*
X77053454Y-51454135D01*
X76926134Y-51367141D01*
X76775000Y-51336536D01*
X76525000Y-51336536D01*
X76429139Y-51354574D01*
X76528774Y-51114624D01*
X76529025Y-50826639D01*
X76419050Y-50560479D01*
X76215592Y-50356665D01*
X75949624Y-50246226D01*
X75893977Y-50246177D01*
X75894025Y-50191639D01*
X75784050Y-49925479D01*
X75580592Y-49721665D01*
X75314624Y-49611226D01*
X75026639Y-49610975D01*
X74760479Y-49720950D01*
X74556665Y-49924408D01*
X74535083Y-49976383D01*
X74514050Y-49925479D01*
X74310592Y-49721665D01*
X74044624Y-49611226D01*
X73756639Y-49610975D01*
X73490479Y-49720950D01*
X73286665Y-49924408D01*
X73176226Y-50190376D01*
X73175975Y-50478361D01*
X73185791Y-50502118D01*
X73040592Y-50356665D01*
X72774624Y-50246226D01*
X72486639Y-50245975D01*
X72220479Y-50355950D01*
X72016665Y-50559408D01*
X71906226Y-50825376D01*
X71905975Y-51113361D01*
X72000123Y-51341217D01*
X71895412Y-51360920D01*
X71775000Y-51336536D01*
X71671771Y-51336536D01*
X71642797Y-51190877D01*
X71527171Y-51017829D01*
X71258400Y-50749058D01*
X71258400Y-49598400D01*
X76854058Y-49598400D01*
X77811600Y-50555942D01*
X77811600Y-50555942D01*
G37*
X77811600Y-50555942D02*
X77811600Y-50749059D01*
X77272829Y-51287829D01*
X77157203Y-51460877D01*
X77133729Y-51578887D01*
X77053454Y-51454135D01*
X76926134Y-51367141D01*
X76775000Y-51336536D01*
X76525000Y-51336536D01*
X76429139Y-51354574D01*
X76528774Y-51114624D01*
X76529025Y-50826639D01*
X76419050Y-50560479D01*
X76215592Y-50356665D01*
X75949624Y-50246226D01*
X75893977Y-50246177D01*
X75894025Y-50191639D01*
X75784050Y-49925479D01*
X75580592Y-49721665D01*
X75314624Y-49611226D01*
X75026639Y-49610975D01*
X74760479Y-49720950D01*
X74556665Y-49924408D01*
X74535083Y-49976383D01*
X74514050Y-49925479D01*
X74310592Y-49721665D01*
X74044624Y-49611226D01*
X73756639Y-49610975D01*
X73490479Y-49720950D01*
X73286665Y-49924408D01*
X73176226Y-50190376D01*
X73175975Y-50478361D01*
X73185791Y-50502118D01*
X73040592Y-50356665D01*
X72774624Y-50246226D01*
X72486639Y-50245975D01*
X72220479Y-50355950D01*
X72016665Y-50559408D01*
X71906226Y-50825376D01*
X71905975Y-51113361D01*
X72000123Y-51341217D01*
X71895412Y-51360920D01*
X71775000Y-51336536D01*
X71671771Y-51336536D01*
X71642797Y-51190877D01*
X71527171Y-51017829D01*
X71258400Y-50749058D01*
X71258400Y-49598400D01*
X76854058Y-49598400D01*
X77811600Y-50555942D01*
G36*
X65645000Y-48264900D02*
X66915000Y-48264900D01*
X67015547Y-48244900D01*
X67529900Y-48244900D01*
X67548866Y-48257859D01*
X67631072Y-48274506D01*
X67558810Y-48288103D01*
X67532396Y-48305100D01*
X67205000Y-48305100D01*
X67025177Y-48340869D01*
X66872731Y-48442730D01*
X66720362Y-48595100D01*
X65838185Y-48595100D01*
X65816397Y-48479310D01*
X65732954Y-48349635D01*
X65605634Y-48262641D01*
X65477226Y-48236638D01*
X65473288Y-48230744D01*
X65645000Y-48264900D01*
X65645000Y-48264900D01*
G37*
X65645000Y-48264900D02*
X66915000Y-48264900D01*
X67015547Y-48244900D01*
X67529900Y-48244900D01*
X67548866Y-48257859D01*
X67631072Y-48274506D01*
X67558810Y-48288103D01*
X67532396Y-48305100D01*
X67205000Y-48305100D01*
X67025177Y-48340869D01*
X66872731Y-48442730D01*
X66720362Y-48595100D01*
X65838185Y-48595100D01*
X65816397Y-48479310D01*
X65732954Y-48349635D01*
X65605634Y-48262641D01*
X65477226Y-48236638D01*
X65473288Y-48230744D01*
X65645000Y-48264900D01*
G36*
X70680100Y-41492604D02*
X70680100Y-41870000D01*
X70705886Y-41999635D01*
X70715869Y-42049823D01*
X70817731Y-42202269D01*
X70890100Y-42274638D01*
X70890100Y-42715000D01*
X70922940Y-42880100D01*
X70925869Y-42894823D01*
X71027731Y-43047269D01*
X71271152Y-43290690D01*
X71270975Y-43493361D01*
X71380950Y-43759521D01*
X71584408Y-43963335D01*
X71850376Y-44073774D01*
X72138361Y-44074025D01*
X72404521Y-43964050D01*
X72608335Y-43760592D01*
X72629917Y-43708617D01*
X72650950Y-43759521D01*
X72854408Y-43963335D01*
X73120376Y-44073774D01*
X73408361Y-44074025D01*
X73430100Y-44065043D01*
X73430100Y-44620000D01*
X73462940Y-44785100D01*
X73465869Y-44799823D01*
X73567731Y-44952269D01*
X74202731Y-45587270D01*
X74324690Y-45668760D01*
X74355177Y-45689131D01*
X74535000Y-45724900D01*
X75251224Y-45724900D01*
X75394408Y-45868335D01*
X75446383Y-45889917D01*
X75395479Y-45910950D01*
X75191665Y-46114408D01*
X75081226Y-46380376D01*
X75081048Y-46584413D01*
X74397119Y-47268343D01*
X74310592Y-47181665D01*
X74044624Y-47071226D01*
X73756639Y-47070975D01*
X73490479Y-47180950D01*
X73286665Y-47384408D01*
X73176226Y-47650376D01*
X73175975Y-47938361D01*
X73285950Y-48204521D01*
X73489408Y-48408335D01*
X73755376Y-48518774D01*
X74043361Y-48519025D01*
X74309521Y-48409050D01*
X74453923Y-48264900D01*
X74535000Y-48264900D01*
X74714823Y-48229131D01*
X74867269Y-48127269D01*
X75745690Y-47248848D01*
X75948361Y-47249025D01*
X76214521Y-47139050D01*
X76418335Y-46935592D01*
X76528774Y-46669624D01*
X76529025Y-46381639D01*
X76419050Y-46115479D01*
X76215592Y-45911665D01*
X76163617Y-45890083D01*
X76214521Y-45869050D01*
X76418335Y-45665592D01*
X76528774Y-45399624D01*
X76529025Y-45111639D01*
X76419050Y-44845479D01*
X76215592Y-44641665D01*
X75949624Y-44531226D01*
X75661639Y-44530975D01*
X75395479Y-44640950D01*
X75251077Y-44785100D01*
X74729639Y-44785100D01*
X74369900Y-44425362D01*
X74369900Y-43152060D01*
X74535000Y-43184900D01*
X75805000Y-43184900D01*
X75984823Y-43149131D01*
X76137269Y-43047269D01*
X76380690Y-42803848D01*
X76541600Y-42803989D01*
X76541600Y-48531600D01*
X71258400Y-48531600D01*
X71258400Y-44620000D01*
X71240692Y-44530975D01*
X71217797Y-44415876D01*
X71102171Y-44242829D01*
X69988400Y-43129058D01*
X69988400Y-42300942D01*
X70527168Y-41762173D01*
X70527171Y-41762171D01*
X70606822Y-41642964D01*
X70642797Y-41589124D01*
X70666271Y-41471113D01*
X70680100Y-41492604D01*
X70680100Y-41492604D01*
G37*
X70680100Y-41492604D02*
X70680100Y-41870000D01*
X70705886Y-41999635D01*
X70715869Y-42049823D01*
X70817731Y-42202269D01*
X70890100Y-42274638D01*
X70890100Y-42715000D01*
X70922940Y-42880100D01*
X70925869Y-42894823D01*
X71027731Y-43047269D01*
X71271152Y-43290690D01*
X71270975Y-43493361D01*
X71380950Y-43759521D01*
X71584408Y-43963335D01*
X71850376Y-44073774D01*
X72138361Y-44074025D01*
X72404521Y-43964050D01*
X72608335Y-43760592D01*
X72629917Y-43708617D01*
X72650950Y-43759521D01*
X72854408Y-43963335D01*
X73120376Y-44073774D01*
X73408361Y-44074025D01*
X73430100Y-44065043D01*
X73430100Y-44620000D01*
X73462940Y-44785100D01*
X73465869Y-44799823D01*
X73567731Y-44952269D01*
X74202731Y-45587270D01*
X74324690Y-45668760D01*
X74355177Y-45689131D01*
X74535000Y-45724900D01*
X75251224Y-45724900D01*
X75394408Y-45868335D01*
X75446383Y-45889917D01*
X75395479Y-45910950D01*
X75191665Y-46114408D01*
X75081226Y-46380376D01*
X75081048Y-46584413D01*
X74397119Y-47268343D01*
X74310592Y-47181665D01*
X74044624Y-47071226D01*
X73756639Y-47070975D01*
X73490479Y-47180950D01*
X73286665Y-47384408D01*
X73176226Y-47650376D01*
X73175975Y-47938361D01*
X73285950Y-48204521D01*
X73489408Y-48408335D01*
X73755376Y-48518774D01*
X74043361Y-48519025D01*
X74309521Y-48409050D01*
X74453923Y-48264900D01*
X74535000Y-48264900D01*
X74714823Y-48229131D01*
X74867269Y-48127269D01*
X75745690Y-47248848D01*
X75948361Y-47249025D01*
X76214521Y-47139050D01*
X76418335Y-46935592D01*
X76528774Y-46669624D01*
X76529025Y-46381639D01*
X76419050Y-46115479D01*
X76215592Y-45911665D01*
X76163617Y-45890083D01*
X76214521Y-45869050D01*
X76418335Y-45665592D01*
X76528774Y-45399624D01*
X76529025Y-45111639D01*
X76419050Y-44845479D01*
X76215592Y-44641665D01*
X75949624Y-44531226D01*
X75661639Y-44530975D01*
X75395479Y-44640950D01*
X75251077Y-44785100D01*
X74729639Y-44785100D01*
X74369900Y-44425362D01*
X74369900Y-43152060D01*
X74535000Y-43184900D01*
X75805000Y-43184900D01*
X75984823Y-43149131D01*
X76137269Y-43047269D01*
X76380690Y-42803848D01*
X76541600Y-42803989D01*
X76541600Y-48531600D01*
X71258400Y-48531600D01*
X71258400Y-44620000D01*
X71240692Y-44530975D01*
X71217797Y-44415876D01*
X71102171Y-44242829D01*
X69988400Y-43129058D01*
X69988400Y-42300942D01*
X70527168Y-41762173D01*
X70527171Y-41762171D01*
X70606822Y-41642964D01*
X70642797Y-41589124D01*
X70666271Y-41471113D01*
X70680100Y-41492604D01*
G36*
X70191600Y-44840942D02*
X70191600Y-48531600D01*
X69675942Y-48531600D01*
X69542171Y-48397829D01*
X69369123Y-48282203D01*
X69165000Y-48241600D01*
X68872733Y-48241600D01*
X68970865Y-48178454D01*
X69057859Y-48051134D01*
X69088464Y-47900000D01*
X69088464Y-47650000D01*
X69064080Y-47520412D01*
X69088464Y-47400000D01*
X69088464Y-47150000D01*
X69064080Y-47020412D01*
X69088464Y-46900000D01*
X69088464Y-46650000D01*
X69064080Y-46520412D01*
X69065744Y-46512195D01*
X69310376Y-46613774D01*
X69598361Y-46614025D01*
X69864521Y-46504050D01*
X70068335Y-46300592D01*
X70178774Y-46034624D01*
X70179025Y-45746639D01*
X70069050Y-45480479D01*
X69865592Y-45276665D01*
X69813617Y-45255083D01*
X69864521Y-45234050D01*
X70068335Y-45030592D01*
X70160145Y-44809487D01*
X70191600Y-44840942D01*
X70191600Y-44840942D01*
G37*
X70191600Y-44840942D02*
X70191600Y-48531600D01*
X69675942Y-48531600D01*
X69542171Y-48397829D01*
X69369123Y-48282203D01*
X69165000Y-48241600D01*
X68872733Y-48241600D01*
X68970865Y-48178454D01*
X69057859Y-48051134D01*
X69088464Y-47900000D01*
X69088464Y-47650000D01*
X69064080Y-47520412D01*
X69088464Y-47400000D01*
X69088464Y-47150000D01*
X69064080Y-47020412D01*
X69088464Y-46900000D01*
X69088464Y-46650000D01*
X69064080Y-46520412D01*
X69065744Y-46512195D01*
X69310376Y-46613774D01*
X69598361Y-46614025D01*
X69864521Y-46504050D01*
X70068335Y-46300592D01*
X70178774Y-46034624D01*
X70179025Y-45746639D01*
X70069050Y-45480479D01*
X69865592Y-45276665D01*
X69813617Y-45255083D01*
X69864521Y-45234050D01*
X70068335Y-45030592D01*
X70160145Y-44809487D01*
X70191600Y-44840942D01*
G36*
X64677730Y-37967269D02*
X64750661Y-38016000D01*
X64830177Y-38069131D01*
X65010000Y-38104900D01*
X67080100Y-38104900D01*
X67080100Y-38829537D01*
X67001641Y-38944366D01*
X66971036Y-39095500D01*
X66971036Y-39984500D01*
X66997603Y-40125690D01*
X67028948Y-40174401D01*
X67001641Y-40214366D01*
X66971036Y-40365500D01*
X66971036Y-41254500D01*
X66997603Y-41395690D01*
X67081046Y-41525365D01*
X67208366Y-41612359D01*
X67215412Y-41613786D01*
X67234584Y-41710171D01*
X67242869Y-41751823D01*
X67344731Y-41904269D01*
X67701997Y-42261536D01*
X67700000Y-42261536D01*
X67558810Y-42288103D01*
X67429135Y-42371546D01*
X67342141Y-42498866D01*
X67311536Y-42650000D01*
X67311536Y-42900000D01*
X67335920Y-43029588D01*
X67311536Y-43150000D01*
X67311536Y-43365828D01*
X67059624Y-43261226D01*
X66771639Y-43260975D01*
X66505479Y-43370950D01*
X66301665Y-43574408D01*
X66191226Y-43840376D01*
X66190975Y-44128361D01*
X66300950Y-44394521D01*
X66504408Y-44598335D01*
X66770376Y-44708774D01*
X67024975Y-44708996D01*
X67025177Y-44709131D01*
X67205000Y-44744900D01*
X67311536Y-44744900D01*
X67311536Y-44900000D01*
X67335920Y-45029588D01*
X67311536Y-45150000D01*
X67311536Y-45400000D01*
X67335920Y-45529588D01*
X67316252Y-45626713D01*
X67247269Y-45557731D01*
X67094823Y-45455869D01*
X67089564Y-45454823D01*
X66915000Y-45420100D01*
X65839639Y-45420100D01*
X65479900Y-45060362D01*
X65479900Y-42715000D01*
X65444131Y-42535177D01*
X65440091Y-42529131D01*
X65342270Y-42382731D01*
X64844900Y-41885362D01*
X64844900Y-38905000D01*
X64809131Y-38725177D01*
X64801997Y-38714500D01*
X64707270Y-38572731D01*
X64209900Y-38075362D01*
X64209900Y-37635000D01*
X64176240Y-37465778D01*
X64677730Y-37967269D01*
X64677730Y-37967269D01*
G37*
X64677730Y-37967269D02*
X64750661Y-38016000D01*
X64830177Y-38069131D01*
X65010000Y-38104900D01*
X67080100Y-38104900D01*
X67080100Y-38829537D01*
X67001641Y-38944366D01*
X66971036Y-39095500D01*
X66971036Y-39984500D01*
X66997603Y-40125690D01*
X67028948Y-40174401D01*
X67001641Y-40214366D01*
X66971036Y-40365500D01*
X66971036Y-41254500D01*
X66997603Y-41395690D01*
X67081046Y-41525365D01*
X67208366Y-41612359D01*
X67215412Y-41613786D01*
X67234584Y-41710171D01*
X67242869Y-41751823D01*
X67344731Y-41904269D01*
X67701997Y-42261536D01*
X67700000Y-42261536D01*
X67558810Y-42288103D01*
X67429135Y-42371546D01*
X67342141Y-42498866D01*
X67311536Y-42650000D01*
X67311536Y-42900000D01*
X67335920Y-43029588D01*
X67311536Y-43150000D01*
X67311536Y-43365828D01*
X67059624Y-43261226D01*
X66771639Y-43260975D01*
X66505479Y-43370950D01*
X66301665Y-43574408D01*
X66191226Y-43840376D01*
X66190975Y-44128361D01*
X66300950Y-44394521D01*
X66504408Y-44598335D01*
X66770376Y-44708774D01*
X67024975Y-44708996D01*
X67025177Y-44709131D01*
X67205000Y-44744900D01*
X67311536Y-44744900D01*
X67311536Y-44900000D01*
X67335920Y-45029588D01*
X67311536Y-45150000D01*
X67311536Y-45400000D01*
X67335920Y-45529588D01*
X67316252Y-45626713D01*
X67247269Y-45557731D01*
X67094823Y-45455869D01*
X67089564Y-45454823D01*
X66915000Y-45420100D01*
X65839639Y-45420100D01*
X65479900Y-45060362D01*
X65479900Y-42715000D01*
X65444131Y-42535177D01*
X65440091Y-42529131D01*
X65342270Y-42382731D01*
X64844900Y-41885362D01*
X64844900Y-38905000D01*
X64809131Y-38725177D01*
X64801997Y-38714500D01*
X64707270Y-38572731D01*
X64209900Y-38075362D01*
X64209900Y-37635000D01*
X64176240Y-37465778D01*
X64677730Y-37967269D01*
G36*
X81050100Y-42274639D02*
X81050100Y-43155361D01*
X80900362Y-43305100D01*
X80270100Y-43305100D01*
X80251134Y-43292141D01*
X80168928Y-43275494D01*
X80241190Y-43261897D01*
X80370865Y-43178454D01*
X80457859Y-43051134D01*
X80488464Y-42900000D01*
X80488464Y-42650000D01*
X80461897Y-42508810D01*
X80378454Y-42379135D01*
X80251134Y-42292141D01*
X80133400Y-42268300D01*
X80133400Y-42168798D01*
X80393361Y-42169025D01*
X80659521Y-42059050D01*
X80747093Y-41971631D01*
X81050100Y-42274639D01*
X81050100Y-42274639D01*
G37*
X81050100Y-42274639D02*
X81050100Y-43155361D01*
X80900362Y-43305100D01*
X80270100Y-43305100D01*
X80251134Y-43292141D01*
X80168928Y-43275494D01*
X80241190Y-43261897D01*
X80370865Y-43178454D01*
X80457859Y-43051134D01*
X80488464Y-42900000D01*
X80488464Y-42650000D01*
X80461897Y-42508810D01*
X80378454Y-42379135D01*
X80251134Y-42292141D01*
X80133400Y-42268300D01*
X80133400Y-42168798D01*
X80393361Y-42169025D01*
X80659521Y-42059050D01*
X80747093Y-41971631D01*
X81050100Y-42274639D01*
G36*
X79100140Y-36343943D02*
X79005400Y-36820231D01*
X79005400Y-37179769D01*
X79100140Y-37656057D01*
X79369935Y-38059834D01*
X79773712Y-38329629D01*
X79780100Y-38330900D01*
X79780100Y-38905000D01*
X79812940Y-39070100D01*
X79815869Y-39084823D01*
X79917731Y-39237269D01*
X80415100Y-39734639D01*
X80415100Y-39977036D01*
X79805500Y-39977036D01*
X79664310Y-40003603D01*
X79534635Y-40087046D01*
X79447641Y-40214366D01*
X79417036Y-40365500D01*
X79417036Y-40761622D01*
X79222829Y-40955829D01*
X79107203Y-41128877D01*
X79066600Y-41333000D01*
X79066600Y-41563826D01*
X78980000Y-41546600D01*
X78084712Y-41546600D01*
X78132859Y-41476134D01*
X78163464Y-41325000D01*
X78163464Y-40325000D01*
X78136897Y-40183810D01*
X78119900Y-40157396D01*
X78119900Y-39480000D01*
X78084131Y-39300177D01*
X77982270Y-39147731D01*
X77407269Y-38572731D01*
X77254823Y-38470869D01*
X77247694Y-38469451D01*
X77075000Y-38435100D01*
X75999639Y-38435100D01*
X75794881Y-38230342D01*
X76050065Y-38059834D01*
X76319860Y-37656057D01*
X76414600Y-37179769D01*
X76414600Y-36820231D01*
X76319860Y-36343943D01*
X76197621Y-36161000D01*
X79222379Y-36161000D01*
X79100140Y-36343943D01*
X79100140Y-36343943D01*
G37*
X79100140Y-36343943D02*
X79005400Y-36820231D01*
X79005400Y-37179769D01*
X79100140Y-37656057D01*
X79369935Y-38059834D01*
X79773712Y-38329629D01*
X79780100Y-38330900D01*
X79780100Y-38905000D01*
X79812940Y-39070100D01*
X79815869Y-39084823D01*
X79917731Y-39237269D01*
X80415100Y-39734639D01*
X80415100Y-39977036D01*
X79805500Y-39977036D01*
X79664310Y-40003603D01*
X79534635Y-40087046D01*
X79447641Y-40214366D01*
X79417036Y-40365500D01*
X79417036Y-40761622D01*
X79222829Y-40955829D01*
X79107203Y-41128877D01*
X79066600Y-41333000D01*
X79066600Y-41563826D01*
X78980000Y-41546600D01*
X78084712Y-41546600D01*
X78132859Y-41476134D01*
X78163464Y-41325000D01*
X78163464Y-40325000D01*
X78136897Y-40183810D01*
X78119900Y-40157396D01*
X78119900Y-39480000D01*
X78084131Y-39300177D01*
X77982270Y-39147731D01*
X77407269Y-38572731D01*
X77254823Y-38470869D01*
X77247694Y-38469451D01*
X77075000Y-38435100D01*
X75999639Y-38435100D01*
X75794881Y-38230342D01*
X76050065Y-38059834D01*
X76319860Y-37656057D01*
X76414600Y-37179769D01*
X76414600Y-36820231D01*
X76319860Y-36343943D01*
X76197621Y-36161000D01*
X79222379Y-36161000D01*
X79100140Y-36343943D01*
M02*
