G04 #@! TF.FileFunction,Soldermask,Top*
%FSLAX46Y46*%
G04 Gerber Fmt 4.6, Leading zero omitted, Abs format (unit mm)*
G04 Created by KiCad (PCBNEW 4.0.2+dfsg1-2~bpo8+1-stable) date Sat 05 Mar 2016 08:20:57 PM MST*
%MOMM*%
G01*
G04 APERTURE LIST*
%ADD10C,0.100000*%
%ADD11R,0.500000X0.280000*%
%ADD12R,0.900000X1.600000*%
%ADD13R,0.550000X1.500000*%
%ADD14R,1.500000X0.550000*%
%ADD15R,1.727200X2.032000*%
%ADD16O,1.727200X2.032000*%
%ADD17R,2.032000X2.032000*%
%ADD18O,2.032000X2.032000*%
%ADD19R,0.889000X0.635000*%
%ADD20R,1.500000X2.000000*%
%ADD21R,0.635000X0.889000*%
%ADD22R,1.000000X1.000000*%
%ADD23R,1.100000X1.200000*%
%ADD24R,1.500000X1.200000*%
%ADD25C,1.501140*%
%ADD26R,0.800100X0.800100*%
%ADD27R,2.032000X1.727200*%
%ADD28O,2.032000X1.727200*%
%ADD29C,3.556000*%
%ADD30R,0.400000X1.350000*%
%ADD31R,2.000000X3.000000*%
%ADD32R,3.000000X2.000000*%
G04 APERTURE END LIST*
D10*
D11*
X69090000Y-71810000D03*
X69090000Y-72310000D03*
X69090000Y-72810000D03*
X69090000Y-73310000D03*
X71090000Y-73310000D03*
X71090000Y-72810000D03*
X71090000Y-72310000D03*
X71090000Y-71810000D03*
D12*
X70090000Y-72560000D03*
D13*
X75835000Y-47160000D03*
X75035000Y-47160000D03*
X74235000Y-47160000D03*
X73435000Y-47160000D03*
X72635000Y-47160000D03*
X71835000Y-47160000D03*
X71035000Y-47160000D03*
X70235000Y-47160000D03*
X69435000Y-47160000D03*
X68635000Y-47160000D03*
X67835000Y-47160000D03*
D14*
X66135000Y-48860000D03*
X66135000Y-49660000D03*
X66135000Y-50460000D03*
X66135000Y-51260000D03*
X66135000Y-52060000D03*
X66135000Y-52860000D03*
X66135000Y-53660000D03*
X66135000Y-54460000D03*
X66135000Y-55260000D03*
X66135000Y-56060000D03*
X66135000Y-56860000D03*
D13*
X67835000Y-58560000D03*
X68635000Y-58560000D03*
X69435000Y-58560000D03*
X70235000Y-58560000D03*
X71035000Y-58560000D03*
X71835000Y-58560000D03*
X72635000Y-58560000D03*
X73435000Y-58560000D03*
X74235000Y-58560000D03*
X75035000Y-58560000D03*
X75835000Y-58560000D03*
D14*
X77535000Y-56860000D03*
X77535000Y-56060000D03*
X77535000Y-55260000D03*
X77535000Y-54460000D03*
X77535000Y-53660000D03*
X77535000Y-52860000D03*
X77535000Y-52060000D03*
X77535000Y-51260000D03*
X77535000Y-50460000D03*
X77535000Y-49660000D03*
X77535000Y-48860000D03*
D15*
X66120000Y-66830000D03*
D16*
X68660000Y-66830000D03*
X71200000Y-66830000D03*
X73740000Y-66830000D03*
D17*
X65485000Y-83975000D03*
D18*
X62945000Y-83975000D03*
D19*
X56365000Y-56627000D03*
X56365000Y-55103000D03*
D20*
X80841184Y-37162768D03*
X80841184Y-44162768D03*
X87075000Y-44295000D03*
X87075000Y-37295000D03*
D15*
X66120000Y-78895000D03*
D16*
X68660000Y-78895000D03*
X71200000Y-78895000D03*
X73740000Y-78895000D03*
X76280000Y-78895000D03*
X78820000Y-78895000D03*
D19*
X80090000Y-51082000D03*
X80090000Y-49558000D03*
D21*
X77042000Y-45240000D03*
X75518000Y-45240000D03*
D19*
X78185000Y-59972000D03*
X78185000Y-58448000D03*
X66120000Y-58448000D03*
X66120000Y-59972000D03*
X80090000Y-48542000D03*
X80090000Y-47018000D03*
X63580000Y-51717000D03*
X63580000Y-50193000D03*
D22*
X54615000Y-50365000D03*
X52115000Y-50365000D03*
X92250000Y-46500000D03*
X94750000Y-46500000D03*
X92250000Y-71985000D03*
X94750000Y-71985000D03*
X54615000Y-75985000D03*
X52115000Y-75985000D03*
D19*
X56365000Y-50627000D03*
X56365000Y-49103000D03*
X90500000Y-46238000D03*
X90500000Y-47762000D03*
X56365000Y-46103000D03*
X56365000Y-47627000D03*
X90500000Y-50762000D03*
X90500000Y-49238000D03*
X90500000Y-71723000D03*
X90500000Y-73247000D03*
X56365000Y-76247000D03*
X56365000Y-74723000D03*
X90500000Y-76247000D03*
X90500000Y-74723000D03*
X56365000Y-71723000D03*
X56365000Y-73247000D03*
X90500000Y-52238000D03*
X90500000Y-53762000D03*
X81995000Y-47018000D03*
X81995000Y-48542000D03*
X76280000Y-64417000D03*
X76280000Y-62893000D03*
X77550000Y-62893000D03*
X77550000Y-64417000D03*
X75010000Y-62893000D03*
X75010000Y-64417000D03*
X76280000Y-76482000D03*
X76280000Y-74958000D03*
X71835000Y-64417000D03*
X71835000Y-62893000D03*
X83900000Y-48542000D03*
X83900000Y-47018000D03*
X77550000Y-74958000D03*
X77550000Y-76482000D03*
X73105000Y-64417000D03*
X73105000Y-62893000D03*
D23*
X62245000Y-56885000D03*
X62245000Y-55185000D03*
X63645000Y-55185000D03*
X63645000Y-56885000D03*
D21*
X71962000Y-45240000D03*
X70438000Y-45240000D03*
X63707000Y-59210000D03*
X62183000Y-59210000D03*
D19*
X61675000Y-52352000D03*
X61675000Y-50828000D03*
X84535000Y-76482000D03*
X84535000Y-74958000D03*
D24*
X84765000Y-84340000D03*
X84765000Y-82340000D03*
X81765000Y-82340000D03*
X81765000Y-84340000D03*
D19*
X83265000Y-76482000D03*
X83265000Y-74958000D03*
X81995000Y-76482000D03*
X81995000Y-74958000D03*
D25*
X73740000Y-82070000D03*
X71200000Y-82070000D03*
X68660000Y-82070000D03*
X76280000Y-82070000D03*
X59135000Y-43335000D03*
X61675000Y-43335000D03*
D26*
X54365760Y-54315000D03*
X54365760Y-52415000D03*
X52366780Y-53365000D03*
X92499240Y-54550000D03*
X92499240Y-56450000D03*
X94498220Y-55500000D03*
D22*
X54615000Y-56365000D03*
X52115000Y-56365000D03*
X92250000Y-52500000D03*
X94750000Y-52500000D03*
D26*
X54365760Y-48315000D03*
X54365760Y-46415000D03*
X52366780Y-47365000D03*
X92499240Y-48549999D03*
X92499240Y-50449999D03*
X94498220Y-49499999D03*
X92499240Y-74035000D03*
X92499240Y-75935000D03*
X94498220Y-74985000D03*
X54365760Y-73935000D03*
X54365760Y-72035000D03*
X52366780Y-72985000D03*
D19*
X56365000Y-52103000D03*
X56365000Y-53627000D03*
X90500000Y-56762000D03*
X90500000Y-55238000D03*
D22*
X54615000Y-69985000D03*
X52115000Y-69985000D03*
X92250000Y-65985000D03*
X94750000Y-65985000D03*
D26*
X54365760Y-67935000D03*
X54365760Y-66035000D03*
X52366780Y-66985000D03*
X92499240Y-68035000D03*
X92499240Y-69935000D03*
X94498220Y-68985000D03*
D19*
X56365000Y-70247000D03*
X56365000Y-68723000D03*
X90500000Y-65723000D03*
X90500000Y-67247000D03*
X56365000Y-65723000D03*
X56365000Y-67247000D03*
X90500000Y-70247000D03*
X90500000Y-68723000D03*
D27*
X59135000Y-55400000D03*
D28*
X59135000Y-52860000D03*
X59135000Y-50320000D03*
D27*
X87710000Y-55400000D03*
D28*
X87710000Y-52860000D03*
X87710000Y-50320000D03*
D27*
X87710000Y-71910000D03*
D28*
X87710000Y-69370000D03*
X87710000Y-66830000D03*
D27*
X59135000Y-71910000D03*
D28*
X59135000Y-69370000D03*
X59135000Y-66830000D03*
D15*
X54055000Y-59210000D03*
D16*
X56595000Y-59210000D03*
X59135000Y-59210000D03*
D15*
X92790000Y-59210000D03*
D16*
X90250000Y-59210000D03*
X87710000Y-59210000D03*
D15*
X54055000Y-63020000D03*
D16*
X56595000Y-63020000D03*
X59135000Y-63020000D03*
D15*
X92790000Y-63020000D03*
D16*
X90250000Y-63020000D03*
X87710000Y-63020000D03*
D29*
X53500000Y-40730000D03*
X93500000Y-40730000D03*
X93500000Y-80730000D03*
X53500000Y-80730000D03*
D19*
X66755000Y-42573000D03*
X66755000Y-44097000D03*
X65485000Y-42573000D03*
X65485000Y-44097000D03*
D30*
X66800900Y-39792540D03*
X66150900Y-39792540D03*
X65500900Y-39792540D03*
X64850900Y-39792540D03*
X64200900Y-39792540D03*
D31*
X70580000Y-37595000D03*
X60420000Y-37595000D03*
D32*
X97500000Y-66735000D03*
X97500000Y-69235000D03*
X49365000Y-69234999D03*
X49365000Y-66734999D03*
X49365000Y-49615000D03*
X49365000Y-47115000D03*
X97500000Y-47250000D03*
X97500000Y-49750000D03*
X97500000Y-72734999D03*
X97500000Y-75234999D03*
X49365000Y-75235000D03*
X49365000Y-72735000D03*
X49365000Y-55615000D03*
X49365000Y-53115000D03*
X97500000Y-53250000D03*
X97500000Y-55750000D03*
D19*
X67550000Y-73322000D03*
X67550000Y-71798000D03*
D21*
X70852000Y-70020000D03*
X69328000Y-70020000D03*
D19*
X73265000Y-71417000D03*
X73265000Y-69893000D03*
D21*
X71233000Y-75100000D03*
X72757000Y-75100000D03*
M02*
