999
dxflib 3.3.4.0
  0
SECTION
  2
HEADER
  9
$ACADVER
  1
AC1015
  9
$HANDSEED
  5
FFFF
  9
$DIMADEC
 70
0
  9
$DIMASZ
 40
2.5
  9
$DIMAUNIT
 70
0
  9
$DIMAZIN
 70
2
  9
$DIMDEC
 70
4
  9
$DIMEXE
 40
1.25
  9
$DIMEXO
 40
0.625
  9
$DIMGAP
 40
0.625
  9
$DIMLUNIT
 70
2
  9
$DIMTSZ
 40
0.0
  9
$DIMTXT
 40
2.5
  9
$DIMZIN
 70
8
  9
$DWGCODEPAGE
  3
ANSI_1252
  9
$INSUNITS
 70
4
  9
$LTSCALE
 40
1.0
  0
ENDSEC
  0
SECTION
  2
TABLES
  0
TABLE
  2
VPORT
  5
8
100
AcDbSymbolTable
 70
1
  0
VPORT
  5
30
100
AcDbSymbolTableRecord
100
AcDbViewportTableRecord
  2
*Active
 70
0
 10
0.0
 20
0.0
 11
1.0
 21
1.0
 12
286.3055555555554861
 22
148.5
 13
0.0
 23
0.0
 14
10.0
 24
10.0
 15
10.0
 25
10.0
 16
0.0
 26
0.0
 36
1.0
 17
0.0
 27
0.0
 37
0.0
 40
297.0
 41
1.92798353909465
 42
50.0
 43
0.0
 44
0.0
 50
0.0
 51
0.0
 71
0
 72
100
 73
1
 74
3
 75
1
 76
1
 77
0
 78
0
281
0
 65
1
110
0.0
120
0.0
130
0.0
111
1.0
121
0.0
131
0.0
112
0.0
122
1.0
132
0.0
 79
0
146
0.0
  0
ENDTAB
  0
TABLE
  2
LTYPE
  5
5
100
AcDbSymbolTable
 70
21
  0
LTYPE
  5
16
100
AcDbSymbolTableRecord
100
AcDbLinetypeTableRecord
  2
CONTINUOUS
 70
0
  3
Solid line
 72
65
 73
0
 40
0.0
  0
LTYPE
  5
31
100
AcDbSymbolTableRecord
100
AcDbLinetypeTableRecord
  2
CENTER2
 70
0
  3
Center (.5x) ___ _ ___ _ ___ _ ___ _ ___ _ ___
 72
65
 73
4
 40
28.5749999999999993
 49
19.0500000000000007
 74
0
 49
-3.1749999999999998
 74
0
 49
3.1749999999999998
 74
0
 49
-3.1749999999999998
 74
0
  0
LTYPE
  5
32
100
AcDbSymbolTableRecord
100
AcDbLinetypeTableRecord
  2
DIVIDEX2
 70
0
  3
Divide (2x) ________  .  .  ________  .  .  _
 72
65
 73
6
 40
63.5
 49
25.3999999999999986
 74
0
 49
-12.6999999999999993
 74
0
 49
0.0
 74
0
 49
-12.6999999999999993
 74
0
 49
0.0
 74
0
 49
-12.6999999999999993
 74
0
  0
LTYPE
  5
33
100
AcDbSymbolTableRecord
100
AcDbLinetypeTableRecord
  2
DOT2
 70
0
  3
Dot (.5x) .....................................
 72
65
 73
2
 40
3.1749999999999998
 49
0.0
 74
0
 49
-3.1749999999999998
 74
0
  0
LTYPE
  5
34
100
AcDbSymbolTableRecord
100
AcDbLinetypeTableRecord
  2
DASHDOT2
 70
0
  3
Dash dot (.5x) _._._._._._._._._._._._._._._.
 72
65
 73
4
 40
12.6999999999999993
 49
6.3499999999999996
 74
0
 49
-3.1749999999999998
 74
0
 49
0.0
 74
0
 49
-3.1749999999999998
 74
0
  0
LTYPE
  5
35
100
AcDbSymbolTableRecord
100
AcDbLinetypeTableRecord
  2
DIVIDE
 70
0
  3
Divide ____ . . ____ . . ____ . . ____ . . ____
 72
65
 73
6
 40
31.75
 49
12.6999999999999993
 74
0
 49
-6.3499999999999996
 74
0
 49
0.0
 74
0
 49
-6.3499999999999996
 74
0
 49
0.0
 74
0
 49
-6.3499999999999996
 74
0
  0
LTYPE
  5
36
100
AcDbSymbolTableRecord
100
AcDbLinetypeTableRecord
  2
DASHDOT
 70
0
  3
Dash dot __ . __ . __ . __ . __ . __ . __ . __
 72
65
 73
4
 40
25.3999999999999986
 49
12.6999999999999993
 74
0
 49
-6.3499999999999996
 74
0
 49
0.0
 74
0
 49
-6.3499999999999996
 74
0
  0
LTYPE
  5
37
100
AcDbSymbolTableRecord
100
AcDbLinetypeTableRecord
  2
BORDER
 70
0
  3
Border __ __ . __ __ . __ __ . __ __ . __ __ .
 72
65
 73
6
 40
44.4500000000000028
 49
12.6999999999999993
 74
0
 49
-6.3499999999999996
 74
0
 49
12.6999999999999993
 74
0
 49
-6.3499999999999996
 74
0
 49
0.0
 74
0
 49
-6.3499999999999996
 74
0
  0
LTYPE
  5
38
100
AcDbSymbolTableRecord
100
AcDbLinetypeTableRecord
  2
DASHDOTX2
 70
0
  3
Dash dot (2x) ____  .  ____  .  ____  .  ___
 72
65
 73
4
 40
50.7999999999999972
 49
25.3999999999999986
 74
0
 49
-12.6999999999999993
 74
0
 49
0.0
 74
0
 49
-12.6999999999999993
 74
0
  0
LTYPE
  5
39
100
AcDbSymbolTableRecord
100
AcDbLinetypeTableRecord
  2
CENTERX2
 70
0
  3
Center (2x) ________  __  ________  __  _____
 72
65
 73
4
 40
101.5999999999999943
 49
63.5
 74
0
 49
-12.6999999999999993
 74
0
 49
12.6999999999999993
 74
0
 49
-12.6999999999999993
 74
0
  0
LTYPE
  5
3A
100
AcDbSymbolTableRecord
100
AcDbLinetypeTableRecord
  2
BORDER2
 70
0
  3
Border (.5x) __.__.__.__.__.__.__.__.__.__.__.
 72
65
 73
6
 40
22.2250000000000014
 49
6.3499999999999996
 74
0
 49
-3.1749999999999998
 74
0
 49
6.3499999999999996
 74
0
 49
-3.1749999999999998
 74
0
 49
0.0
 74
0
 49
-3.1749999999999998
 74
0
  0
LTYPE
  5
3B
100
AcDbSymbolTableRecord
100
AcDbLinetypeTableRecord
  2
BORDERX2
 70
0
  3
Border (2x) ____  ____  .  ____  ____  .  ___
 72
65
 73
6
 40
88.9000000000000057
 49
25.3999999999999986
 74
0
 49
-12.6999999999999993
 74
0
 49
25.3999999999999986
 74
0
 49
-12.6999999999999993
 74
0
 49
0.0
 74
0
 49
-12.6999999999999993
 74
0
  0
LTYPE
  5
14
100
AcDbSymbolTableRecord
100
AcDbLinetypeTableRecord
  2
BYBLOCK
 70
0
  3

 72
65
 73
0
 40
0.0
  0
LTYPE
  5
15
100
AcDbSymbolTableRecord
100
AcDbLinetypeTableRecord
  2
BYLAYER
 70
0
  3

 72
65
 73
0
 40
0.0
  0
LTYPE
  5
3C
100
AcDbSymbolTableRecord
100
AcDbLinetypeTableRecord
  2
DASHED2
 70
0
  3
Dashed (.5x) _ _ _ _ _ _ _ _ _ _ _ _ _ _ _ _ _
 72
65
 73
2
 40
9.5250000000000004
 49
6.3499999999999996
 74
0
 49
-3.1749999999999998
 74
0
  0
LTYPE
  5
3D
100
AcDbSymbolTableRecord
100
AcDbLinetypeTableRecord
  2
CENTER
 70
0
  3
Center ____ _ ____ _ ____ _ ____ _ ____ _ ____
 72
65
 73
4
 40
50.7999999999999972
 49
31.75
 74
0
 49
-6.3499999999999996
 74
0
 49
6.3499999999999996
 74
0
 49
-6.3499999999999996
 74
0
  0
LTYPE
  5
3E
100
AcDbSymbolTableRecord
100
AcDbLinetypeTableRecord
  2
DIVIDE2
 70
0
  3
Divide (.5x) __..__..__..__..__..__..__..__.._
 72
65
 73
6
 40
15.875
 49
6.3499999999999996
 74
0
 49
-3.1749999999999998
 74
0
 49
0.0
 74
0
 49
-3.1749999999999998
 74
0
 49
0.0
 74
0
 49
-3.1749999999999998
 74
0
  0
LTYPE
  5
3F
100
AcDbSymbolTableRecord
100
AcDbLinetypeTableRecord
  2
DASHED
 70
0
  3
Dashed __ __ __ __ __ __ __ __ __ __ __ __ __ _
 72
65
 73
2
 40
19.0500000000000007
 49
12.6999999999999993
 74
0
 49
-6.3499999999999996
 74
0
  0
LTYPE
  5
40
100
AcDbSymbolTableRecord
100
AcDbLinetypeTableRecord
  2
DOTX2
 70
0
  3
Dot (2x) .  .  .  .  .  .  .  .  .  .  .  .  .
 72
65
 73
2
 40
12.6999999999999993
 49
0.0
 74
0
 49
-12.6999999999999993
 74
0
  0
LTYPE
  5
41
100
AcDbSymbolTableRecord
100
AcDbLinetypeTableRecord
  2
DASHEDX2
 70
0
  3
Dashed (2x) ____  ____  ____  ____  ____  ___
 72
65
 73
2
 40
38.1000000000000014
 49
25.3999999999999986
 74
0
 49
-12.6999999999999993
 74
0
  0
LTYPE
  5
42
100
AcDbSymbolTableRecord
100
AcDbLinetypeTableRecord
  2
DOT
 70
0
  3
Dot . . . . . . . . . . . . . . . . . . . . . .
 72
65
 73
2
 40
6.3499999999999996
 49
0.0
 74
0
 49
-6.3499999999999996
 74
0
  0
ENDTAB
  0
TABLE
  2
LAYER
  5
2
100
AcDbSymbolTable
 70
1
  0
LAYER
  5
10
100
AcDbSymbolTableRecord
100
AcDbLayerTableRecord
  2
0
 70
0
 62
7
420
0
  6
CONTINUOUS
370
25
390
F
  0
ENDTAB
  0
TABLE
  2
STYLE
  5
3
100
AcDbSymbolTable
 70
10
  0
STYLE
  5
43
100
AcDbSymbolTableRecord
100
AcDbTextStyleTableRecord
  2
Standard
 70
0
 40
0.0
 41
1.0
 50
0.0
 71
0
 42
2.5
  3

  4

1001
ACAD
1000
txt
1071
0
  0
STYLE
  5
44
100
AcDbSymbolTableRecord
100
AcDbTextStyleTableRecord
  2
textstyle0
 70
0
 40
0.0
 41
1.0
 50
0.0
 71
0
 42
8.0
  3

  4

1001
ACAD
1000
Arial
1071
0
  0
STYLE
  5
45
100
AcDbSymbolTableRecord
100
AcDbTextStyleTableRecord
  2
textstyle1
 70
0
 40
0.0
 41
1.0
 50
0.0
 71
0
 42
8.0
  3

  4

1001
ACAD
1000
Arial
1071
0
  0
STYLE
  5
46
100
AcDbSymbolTableRecord
100
AcDbTextStyleTableRecord
  2
textstyle2
 70
0
 40
0.0
 41
1.0
 50
0.0
 71
0
 42
8.0
  3

  4

1001
ACAD
1000
Arial
1071
0
  0
STYLE
  5
47
100
AcDbSymbolTableRecord
100
AcDbTextStyleTableRecord
  2
textstyle3
 70
0
 40
0.0
 41
1.0
 50
0.0
 71
0
 42
8.0
  3

  4

1001
ACAD
1000
Arial
1071
0
  0
STYLE
  5
48
100
AcDbSymbolTableRecord
100
AcDbTextStyleTableRecord
  2
textstyle4
 70
0
 40
0.0
 41
1.0
 50
0.0
 71
0
 42
8.0
  3

  4

1001
ACAD
1000
Arial
1071
0
  0
STYLE
  5
49
100
AcDbSymbolTableRecord
100
AcDbTextStyleTableRecord
  2
textstyle5
 70
0
 40
0.0
 41
1.0
 50
0.0
 71
0
 42
8.0
  3

  4

1001
ACAD
1000
Arial
1071
0
  0
STYLE
  5
4A
100
AcDbSymbolTableRecord
100
AcDbTextStyleTableRecord
  2
textstyle6
 70
0
 40
0.0
 41
1.0
 50
0.0
 71
0
 42
8.0
  3

  4

1001
ACAD
1000
Arial
1071
0
  0
STYLE
  5
4B
100
AcDbSymbolTableRecord
100
AcDbTextStyleTableRecord
  2
textstyle7
 70
0
 40
0.0
 41
1.0
 50
0.0
 71
0
 42
8.0
  3

  4

1001
ACAD
1000
Arial
1071
0
  0
STYLE
  5
4C
100
AcDbSymbolTableRecord
100
AcDbTextStyleTableRecord
  2
textstyle8
 70
0
 40
0.0
 41
1.0
 50
0.0
 71
0
 42
8.0
  3

  4

1001
ACAD
1000
Arial
1071
0
  0
ENDTAB
  0
TABLE
  2
VIEW
  5
6
100
AcDbSymbolTable
 70
0
  0
ENDTAB
  0
TABLE
  2
UCS
  5
7
100
AcDbSymbolTable
 70
0
  0
ENDTAB
  0
TABLE
  2
APPID
  5
9
100
AcDbSymbolTable
 70
1
  0
APPID
  5
12
100
AcDbSymbolTableRecord
100
AcDbRegAppTableRecord
  2
ACAD
 70
0
  0
APPID
  5
4D
100
AcDbSymbolTableRecord
100
AcDbRegAppTableRecord
  2
QCAD
 70
0
  0
ENDTAB
  0
TABLE
  2
DIMSTYLE
  5
A
100
AcDbSymbolTable
 70
1
100
AcDbDimStyleTable
 71
0
  0
DIMSTYLE
105
27
100
AcDbSymbolTableRecord
100
AcDbDimStyleTableRecord
  2
Standard
 41
2.5
 42
0.625
 43
3.75
 44
1.25
 70
0
 73
0
 74
0
 77
1
 78
8
140
2.5
141
2.5
143
0.03937007874016
147
0.625
171
3
172
1
271
2
272
2
274
3
278
44
283
0
284
8
340
43
  0
ENDTAB
  0
TABLE
  2
BLOCK_RECORD
  5
1
100
AcDbSymbolTable
 70
1
  0
BLOCK_RECORD
  5
1F
100
AcDbSymbolTableRecord
100
AcDbBlockTableRecord
  2
*Model_Space
340
22
  0
BLOCK_RECORD
  5
1B
100
AcDbSymbolTableRecord
100
AcDbBlockTableRecord
  2
*Paper_Space
340
1E
  0
BLOCK_RECORD
  5
23
100
AcDbSymbolTableRecord
100
AcDbBlockTableRecord
  2
*Paper_Space0
340
26
  0
BLOCK_RECORD
  5
4E
100
AcDbSymbolTableRecord
100
AcDbBlockTableRecord
  2
femur_tibia
340
0
  0
BLOCK_RECORD
  5
4F
100
AcDbSymbolTableRecord
100
AcDbBlockTableRecord
  2
body_top
340
0
  0
BLOCK_RECORD
  5
50
100
AcDbSymbolTableRecord
100
AcDbBlockTableRecord
  2
coxa
340
0
  0
BLOCK_RECORD
  5
51
100
AcDbSymbolTableRecord
100
AcDbBlockTableRecord
  2
femur_vertical
340
0
  0
BLOCK_RECORD
  5
52
100
AcDbSymbolTableRecord
100
AcDbBlockTableRecord
  2
control_pcb
340
0
  0
BLOCK_RECORD
  5
53
100
AcDbSymbolTableRecord
100
AcDbBlockTableRecord
  2
servo_mount
340
0
  0
BLOCK_RECORD
  5
54
100
AcDbSymbolTableRecord
100
AcDbBlockTableRecord
  2
tibia
340
0
  0
ENDTAB
  0
ENDSEC
  0
SECTION
  2
BLOCKS
  0
BLOCK
  5
20
100
AcDbEntity
  8
0
100
AcDbBlockBegin
  2
*Model_Space
 70
0
 10
0.0
 20
0.0
 30
0.0
  3
*Model_Space
  1

  0
ENDBLK
  5
21
100
AcDbEntity
  8
0
100
AcDbBlockEnd
  0
BLOCK
  5
1C
100
AcDbEntity
 67
1
  8
0
100
AcDbBlockBegin
  2
*Paper_Space
 70
0
 10
0.0
 20
0.0
 30
0.0
  3
*Paper_Space
  1

  0
ENDBLK
  5
1D
100
AcDbEntity
 67
1
  8
0
100
AcDbBlockEnd
  0
BLOCK
  5
24
100
AcDbEntity
  8
0
100
AcDbBlockBegin
  2
*Paper_Space0
 70
0
 10
0.0
 20
0.0
 30
0.0
  3
*Paper_Space0
  1

  0
ENDBLK
  5
25
100
AcDbEntity
  8
0
100
AcDbBlockEnd
  0
BLOCK
  5
55
100
AcDbEntity
  8
0
100
AcDbBlockBegin
  2
femur_tibia
 70
0
 10
0.0
 20
0.0
 30
0.0
  3
femur_tibia
  1

  0
LINE
  5
56
100
AcDbEntity
100
AcDbLine
  8
0
 62
256
370
-1
  6
BYLAYER
 10
25.0
 20
5.0
 30
0.0
 11
25.0
 21
-5.0
 31
0.0
  0
CIRCLE
  5
57
100
AcDbEntity
100
AcDbCircle
  8
0
 62
256
370
-1
  6
BYLAYER
 10
-20.0000000000000036
 20
0.0
 30
0.0
 40
1.0
  0
CIRCLE
  5
58
100
AcDbEntity
100
AcDbCircle
  8
0
 62
256
370
-1
  6
BYLAYER
 10
20.0000000000000036
 20
0.0
 30
0.0
 40
1.0
  0
DIMENSION
  5
59
100
AcDbEntity
  8
0
 62
256
370
-1
  6
BYLAYER
100
AcDbDimension
 10
-21.0000000000000036
 20
2.1550058548009474
 30
0.0
 11
-17.8783539381229453
 21
-2.6838989915815192
 31
0.0
 70
129
 71
8
 72
2
 41
1.0
 42
0.0
  1
9/64"
  3
Standard
100
AcDbAlignedDimension
 13
-21.0000000000000036
 23
0.0000000000000026
 33
0.0
 14
-19.0000000000000036
 24
0.0000000000000023
 34
0.0
1001
ACAD
1000
DSTYLE
1002
{
1070
144
1040
1
1002
}
  0
LINE
  5
5A
100
AcDbEntity
100
AcDbLine
  8
0
 62
256
370
-1
  6
BYLAYER
 10
-25.0
 20
5.0
 30
0.0
 11
25.0
 21
5.0
 31
0.0
  0
LINE
  5
5B
100
AcDbEntity
100
AcDbLine
  8
0
 62
256
370
-1
  6
BYLAYER
 10
25.0
 20
-5.0
 30
0.0
 11
-25.0
 21
-5.0
 31
0.0
  0
DIMENSION
  5
5C
100
AcDbEntity
  8
0
 62
256
370
-1
  6
BYLAYER
100
AcDbDimension
 10
13.5000000000000036
 20
-2.0690704396689399
 30
0.0
 11
15.3561444646010781
 21
2.3340089716700976
 31
0.0
 70
129
 71
8
 72
2
 41
1.0
 42
0.0
  1
3/64"
  3
Standard
100
AcDbAlignedDimension
 13
13.5000000000000036
 23
0.0
 33
0.0
 14
14.5000000000000036
 24
0.0
 34
0.0
1001
ACAD
1000
DSTYLE
1002
{
1070
144
1040
1
1002
}
  0
LINE
  5
5D
100
AcDbEntity
100
AcDbLine
  8
0
 62
256
370
-1
  6
BYLAYER
 10
25.0
 20
5.0
 30
0.0
 11
25.0
 21
-5.0
 31
0.0
  0
CIRCLE
  5
5E
100
AcDbEntity
100
AcDbCircle
  8
0
 62
256
370
-1
  6
BYLAYER
 10
14.0000000000000036
 20
0.0
 30
0.0
 40
0.5
  0
CIRCLE
  5
5F
100
AcDbEntity
100
AcDbCircle
  8
0
 62
256
370
-1
  6
BYLAYER
 10
-20.0000000000000036
 20
0.0
 30
0.0
 40
1.0
  0
CIRCLE
  5
60
100
AcDbEntity
100
AcDbCircle
  8
0
 62
256
370
-1
  6
BYLAYER
 10
-14.0000000000000036
 20
0.0
 30
0.0
 40
0.5
  0
CIRCLE
  5
61
100
AcDbEntity
100
AcDbCircle
  8
0
 62
256
370
-1
  6
BYLAYER
 10
20.0000000000000036
 20
0.0
 30
0.0
 40
1.0
  0
DIMENSION
  5
62
100
AcDbEntity
  8
0
 62
256
370
-1
  6
BYLAYER
100
AcDbDimension
 10
-21.0000000000000036
 20
2.1550058548009474
 30
0.0
 11
-17.8783539381229453
 21
-2.6838989915815192
 31
0.0
 70
129
 71
8
 72
2
 41
1.0
 42
0.0
  1
9/64"
  3
Standard
100
AcDbAlignedDimension
 13
-21.0000000000000036
 23
0.0000000000000026
 33
0.0
 14
-19.0000000000000036
 24
0.0000000000000023
 34
0.0
1001
ACAD
1000
DSTYLE
1002
{
1070
144
1040
1
1002
}
  0
LINE
  5
63
100
AcDbEntity
100
AcDbLine
  8
0
 62
256
370
-1
  6
BYLAYER
 10
-25.0
 20
-5.0
 30
0.0
 11
-25.0
 21
5.0
 31
0.0
  0
LINE
  5
64
100
AcDbEntity
100
AcDbLine
  8
0
 62
256
370
-1
  6
BYLAYER
 10
-25.0
 20
5.0
 30
0.0
 11
25.0
 21
5.0
 31
0.0
  0
LINE
  5
65
100
AcDbEntity
100
AcDbLine
  8
0
 62
256
370
-1
  6
BYLAYER
 10
25.0
 20
-5.0
 30
0.0
 11
-25.0
 21
-5.0
 31
0.0
  0
DIMENSION
  5
66
100
AcDbEntity
  8
0
 62
256
370
-1
  6
BYLAYER
100
AcDbDimension
 10
13.5000000000000036
 20
-2.0690704396689399
 30
0.0
 11
15.3561444646010781
 21
2.3340089716700976
 31
0.0
 70
129
 71
8
 72
2
 41
1.0
 42
0.0
  1
3/64"
  3
Standard
100
AcDbAlignedDimension
 13
13.5000000000000036
 23
0.0
 33
0.0
 14
14.5000000000000036
 24
0.0
 34
0.0
1001
ACAD
1000
DSTYLE
1002
{
1070
144
1040
1
1002
}
  0
CIRCLE
  5
67
100
AcDbEntity
100
AcDbCircle
  8
0
 62
256
370
-1
  6
BYLAYER
 10
14.0000000000000036
 20
0.0
 30
0.0
 40
0.5
  0
CIRCLE
  5
68
100
AcDbEntity
100
AcDbCircle
  8
0
 62
256
370
-1
  6
BYLAYER
 10
-14.0000000000000036
 20
0.0
 30
0.0
 40
0.5
  0
LINE
  5
69
100
AcDbEntity
100
AcDbLine
  8
0
 62
256
370
-1
  6
BYLAYER
 10
-25.0
 20
-5.0
 30
0.0
 11
-25.0
 21
5.0
 31
0.0
  0
ENDBLK
  5
6A
100
AcDbEntity
  8
0
100
AcDbBlockEnd
  0
BLOCK
  5
6B
100
AcDbEntity
  8
0
100
AcDbBlockBegin
  2
body_top
 70
0
 10
0.0
 20
0.0
 30
0.0
  3
body_top
  1

  0
LINE
  5
6C
100
AcDbEntity
100
AcDbLine
  8
0
 62
256
370
-1
  6
BYLAYER
 10
-21.3895152803011293
 20
-12.3492424049174634
 30
0.0
 11
-21.3895152803011293
 21
-12.3492424049174634
 31
0.0
  0
ARC
  5
6D
100
AcDbEntity
  8
0
 62
256
370
-1
  6
BYLAYER
100
AcDbCircle
 10
-32.4999999999999076
 20
-12.9903810567665658
 30
0.0
 40
0.0
100
AcDbArc
 50
0.0
 51
0.0
  0
ARC
  5
6E
100
AcDbEntity
  8
0
 62
256
370
-1
  6
BYLAYER
100
AcDbCircle
 10
17.1132486540520148
 20
29.6410161513777446
 30
0.0
 40
5.0
100
AcDbArc
 50
30.0
 51
89.9999999999999432
  0
ARC
  5
6F
100
AcDbEntity
  8
0
 62
256
370
-1
  6
BYLAYER
100
AcDbCircle
 10
-17.1132486540518158
 20
-29.6410161513774746
 30
0.0
 40
5.0
100
AcDbArc
 50
209.9999999999999716
 51
269.9999999999995453
  0
ARC
  5
70
100
AcDbEntity
  8
0
 62
256
370
-1
  6
BYLAYER
100
AcDbCircle
 10
-44.2264973081036388
 20
0.0000000000000447
 30
0.0
 40
5.0
100
AcDbArc
 50
149.9999999999997158
 51
209.9999999999999716
  0
ARC
  5
71
100
AcDbEntity
  8
0
 62
256
370
-1
  6
BYLAYER
100
AcDbCircle
 10
-22.1132486540518371
 20
38.3012701892219027
 30
0.0
 40
5.0
100
AcDbArc
 50
90.0000000000000995
 51
149.9999999999998863
  0
ARC
  5
72
100
AcDbEntity
  8
0
 62
256
370
-1
  6
BYLAYER
100
AcDbCircle
 10
22.1132486540518549
 20
38.3012701892219098
 30
0.0
 40
5.0
100
AcDbArc
 50
30.0
 51
89.9999999999997726
  0
ARC
  5
73
100
AcDbEntity
  8
0
 62
256
370
-1
  6
BYLAYER
100
AcDbCircle
 10
44.2264973081037738
 20
0.0000000000000284
 30
0.0
 40
5.0
100
AcDbArc
 50
329.9999999999998295
 51
30.0
  0
ARC
  5
74
100
AcDbEntity
  8
0
 62
256
370
-1
  6
BYLAYER
100
AcDbCircle
 10
22.1132486540518798
 20
-38.3012701892220235
 30
0.0
 40
5.0
100
AcDbArc
 50
269.9999999999997726
 51
330.0000000000002274
  0
ARC
  5
75
100
AcDbEntity
  8
0
 62
256
370
-1
  6
BYLAYER
100
AcDbCircle
 10
-22.1132486540518656
 20
-38.3012701892218743
 30
0.0
 40
5.0
100
AcDbArc
 50
209.9999999999999716
 51
269.9999999999997726
  0
DIMENSION
  5
76
100
AcDbEntity
  8
0
 62
256
370
-1
  6
BYLAYER
100
AcDbDimension
 10
-42.0288568297002385
 20
1.0000000000002152
 30
0.0
 11
-38.8724932772943106
 21
2.7325844337477401
 31
0.0
 70
129
 71
8
 72
2
 41
1.0
 42
0.5235987755982988
  1
9/64"
  3
Standard
100
AcDbAlignedDimension
 13
-44.9999999999999574
 23
1.0000000000001947
 33
0.0
 14
-44.9999999999999432
 24
-1.0000000000001834
 34
0.0
1001
ACAD
1000
DSTYLE
1002
{
1070
144
1040
1
1002
}
  0
ARC
  5
77
100
AcDbEntity
  8
0
 62
256
370
-1
  6
BYLAYER
100
AcDbCircle
 10
-17.4999999999999396
 20
30.3108891324553298
 30
0.0
 40
5.0
100
AcDbArc
 50
230.4292202493906814
 51
9.5707797506097503
  0
ARC
  5
78
100
AcDbEntity
  8
0
 62
256
370
-1
  6
BYLAYER
100
AcDbCircle
 10
-22.596247625298961
 20
24.1441833553297549
 30
0.0
 40
3.0
100
AcDbArc
 50
50.4292202493907311
 51
150.0000000000000284
  0
ARC
  5
79
100
AcDbEntity
  8
0
 62
256
370
-1
  6
BYLAYER
100
AcDbCircle
 10
-9.6113523266953997
 20
31.6410161513776806
 30
0.0
 40
3.0
100
AcDbArc
 50
90.0000000000001137
 51
189.570779750609745
  0
LINE
  5
7A
100
AcDbEntity
100
AcDbLine
  8
0
 62
256
370
-1
  6
BYLAYER
 10
34.5151724426988409
 20
-9.5000000000000338
 30
0.0
 11
25.1943238366524618
 21
-25.6441833553298153
 31
0.0
  0
LINE
  5
7B
100
AcDbEntity
100
AcDbLine
  8
0
 62
256
370
-1
  6
BYLAYER
 10
9.6113523266955649
 20
-34.64101615137767
 30
0.0
 11
-17.113248654051791
 21
-34.6410161513776416
 31
0.0
  0
ARC
  5
7C
100
AcDbEntity
  8
0
 62
256
370
-1
  6
BYLAYER
100
AcDbCircle
 10
17.5000000000000568
 20
-30.3108891324553831
 30
0.0
 40
5.0
100
AcDbArc
 50
50.4292202493902195
 51
189.570779750609347
  0
ARC
  5
7D
100
AcDbEntity
  8
0
 62
256
370
-1
  6
BYLAYER
100
AcDbCircle
 10
9.6113523266955472
 20
-31.6410161513776735
 30
0.0
 40
3.0
100
AcDbArc
 50
269.9999999999999432
 51
9.5707797506092938
  0
ARC
  5
7E
100
AcDbEntity
  8
0
 62
256
370
-1
  6
BYLAYER
100
AcDbCircle
 10
22.5962476252991458
 20
-24.1441833553298082
 30
0.0
 40
3.0
100
AcDbArc
 50
230.429220249390255
 51
329.9999999999998295
  0
CIRCLE
  5
7F
100
AcDbEntity
100
AcDbCircle
  8
0
 62
256
370
-1
  6
BYLAYER
 10
-17.4999999999999396
 20
30.3108891324553298
 30
0.0
 40
1.0
  0
CIRCLE
  5
80
100
AcDbEntity
100
AcDbCircle
  8
0
 62
256
370
-1
  6
BYLAYER
 10
17.5000000000000568
 20
-30.3108891324553831
 30
0.0
 40
1.0
  0
DIMENSION
  5
81
100
AcDbEntity
  8
0
 62
256
370
-1
  6
BYLAYER
100
AcDbDimension
 10
17.6339745962156087
 20
-32.5429399400242048
 30
0.0
 11
20.0
 21
-34.6410161513775421
 31
0.0
 70
129
 71
8
 72
2
 41
1.0
 42
1.0471975511965976
  1
9/64"
  3
Standard
100
AcDbAlignedDimension
 13
16.6339745962156336
 23
-30.8108891324553831
 33
0.0
 14
18.3660254037845121
 24
-29.810889132455376
 34
0.0
1001
ACAD
1000
DSTYLE
1002
{
1070
144
1040
1
1002
}
  0
LINE
  5
82
100
AcDbEntity
100
AcDbLine
  8
0
 62
256
370
-1
  6
BYLAYER
 10
21.4433756729742093
 20
32.1410161513777481
 30
0.0
 11
34.5151724426986419
 21
9.4999999999999609
 31
0.0
  0
LINE
  5
83
100
AcDbEntity
100
AcDbLine
  8
0
 62
256
370
-1
  6
BYLAYER
 10
29.6984848098350156
 20
4.9999999999999716
 30
0.0
 11
31.9170962313453153
 21
4.9999999999999716
 31
0.0
  0
INSERT
  5
84
100
AcDbEntity
100
AcDbBlockReference
  8
0
 62
256
370
-1
  6
BYLAYER
  2
control_pcb
 10
0.0000000000000179
 20
35.3553390593273278
 30
0.0
 50
90.0
  0
LINE
  5
85
100
AcDbEntity
100
AcDbLine
  8
0
 62
256
370
-1
  6
BYLAYER
 10
29.6984848098350156
 20
-5.0000000000000284
 30
0.0
 11
31.9170962313455284
 21
-5.0000000000000284
 31
0.0
  0
LINE
  5
86
100
AcDbEntity
100
AcDbLine
  8
0
 62
256
370
-1
  6
BYLAYER
 10
-26.4433756729740281
 20
40.8012701892219312
 30
0.0
 11
-48.5566243270258653
 21
2.5000000000000973
 31
0.0
  0
ARC
  5
87
100
AcDbEntity
  8
0
 62
256
370
-1
  6
BYLAYER
100
AcDbCircle
 10
29.6984848098350156
 20
-0.0000000000000284
 30
0.0
 40
5.0
100
AcDbArc
 50
90.0
 51
270.0
  0
LINE
  5
88
100
AcDbEntity
100
AcDbLine
  8
0
 62
256
370
-1
  6
BYLAYER
 10
-22.1132486540518514
 20
-43.3012701892219667
 30
0.0
 11
22.1132486540518478
 21
-43.301270189221988
 31
0.0
  0
ARC
  5
89
100
AcDbEntity
  8
0
 62
256
370
-1
  6
BYLAYER
100
AcDbCircle
 10
31.9170962313453153
 20
7.9999999999999716
 30
0.0
 40
3.0
100
AcDbArc
 50
270.0
 51
29.9999999999996696
  0
CIRCLE
  5
8A
100
AcDbEntity
100
AcDbCircle
  8
0
 62
256
370
-1
  6
BYLAYER
 10
-44.9999999999999574
 20
0.0000000000000655
 30
0.0
 40
1.0
  0
ARC
  5
8B
100
AcDbEntity
  8
0
 62
256
370
-1
  6
BYLAYER
100
AcDbCircle
 10
31.9170962313455284
 20
-8.0000000000000284
 30
0.0
 40
3.0
100
AcDbArc
 50
329.9999999999998863
 51
90.0
  0
CIRCLE
  5
8C
100
AcDbEntity
100
AcDbCircle
  8
0
 62
256
370
-1
  6
BYLAYER
 10
-22.5000000000000924
 20
-38.9711431702996904
 30
0.0
 40
1.0
  0
ARC
  5
8D
100
AcDbEntity
  8
0
 62
256
370
-1
  6
BYLAYER
100
AcDbCircle
 10
-31.9170962313453153
 20
7.9999999999999716
 30
0.0
 40
3.0
100
AcDbArc
 50
150.0000000000003411
 51
270.0
  0
CIRCLE
  5
8E
100
AcDbEntity
100
AcDbCircle
  8
0
 62
256
370
-1
  6
BYLAYER
 10
22.4999999999999574
 20
-38.9711431702998183
 30
0.0
 40
1.0
  0
ARC
  5
8F
100
AcDbEntity
  8
0
 62
256
370
-1
  6
BYLAYER
100
AcDbCircle
 10
-31.9170962313455284
 20
-7.9999999999999911
 30
0.0
 40
3.0
100
AcDbArc
 50
90.0
 51
210.0000000000001421
  0
CIRCLE
  5
90
100
AcDbEntity
100
AcDbCircle
  8
0
 62
256
370
-1
  6
BYLAYER
 10
45.0000000000000213
 20
-0.0000000000001309
 30
0.0
 40
1.0
  0
LINE
  5
91
100
AcDbEntity
100
AcDbLine
  8
0
 62
256
370
-1
  6
BYLAYER
 10
-29.6984848098350156
 20
4.9999999999999698
 30
0.0
 11
-31.9170962313453153
 21
4.9999999999999787
 31
0.0
  0
CIRCLE
  5
92
100
AcDbEntity
100
AcDbCircle
  8
0
 62
256
370
-1
  6
BYLAYER
 10
22.5000000000001492
 20
38.9711431702996265
 30
0.0
 40
1.0
  0
LINE
  5
93
100
AcDbEntity
100
AcDbLine
  8
0
 62
256
370
-1
  6
BYLAYER
 10
-29.6984848098350156
 20
-5.0000000000000231
 30
0.0
 11
-31.9170962313455284
 21
-5.0000000000000195
 31
0.0
  0
CIRCLE
  5
94
100
AcDbEntity
100
AcDbCircle
  8
0
 62
256
370
-1
  6
BYLAYER
 10
-22.4999999999998614
 20
38.9711431702997615
 30
0.0
 40
1.0
  0
ARC
  5
95
100
AcDbEntity
  8
0
 62
256
370
-1
  6
BYLAYER
100
AcDbCircle
 10
-29.6984848098350191
 20
-0.0000000000000355
 30
0.0
 40
5.0
100
AcDbArc
 50
270.0
 51
90.0
  0
LINE
  5
96
100
AcDbEntity
100
AcDbLine
  8
0
 62
256
370
-1
  6
BYLAYER
 10
26.4433756729740566
 20
40.8012701892219027
 30
0.0
 11
48.5566243270259292
 21
2.499999999999996
 31
0.0
  0
LINE
  5
97
100
AcDbEntity
100
AcDbLine
  8
0
 62
256
370
-1
  6
BYLAYER
 10
-34.5151724426988409
 20
-9.4999999999999964
 30
0.0
 11
-21.4433756729740104
 21
-32.141016151377471
 31
0.0
  0
LINE
  5
98
100
AcDbEntity
100
AcDbLine
  8
0
 62
256
370
-1
  6
BYLAYER
 10
-22.1132486540518407
 20
43.3012701892219241
 30
0.0
 11
22.1132486540518762
 21
43.3012701892218743
 31
0.0
  0
LINE
  5
99
100
AcDbEntity
100
AcDbLine
  8
0
 62
256
370
-1
  6
BYLAYER
 10
-34.5151724426986419
 20
9.4999999999999574
 30
0.0
 11
-25.194323836652277
 21
25.6441833553297549
 31
0.0
  0
LINE
  5
9A
100
AcDbEntity
100
AcDbLine
  8
0
 62
256
370
-1
  6
BYLAYER
 10
48.556624327025979
 20
-2.5000000000000226
 30
0.0
 11
26.4433756729740566
 21
-40.8012701892219809
 31
0.0
  0
DIMENSION
  5
9B
100
AcDbEntity
  8
0
 62
256
370
-1
  6
BYLAYER
100
AcDbDimension
 10
36.0
 20
0.9999999999998707
 30
0.0
 11
40.0
 21
0.9999999999999293
 31
0.0
 70
129
 71
8
 72
2
 41
1.0
 42
0.0
  1
7/64"
  3
Standard
100
AcDbAlignedDimension
 13
29.6984848098350156
 23
0.9999999999998722
 33
0.0
 14
29.6984848098350156
 24
-0.999999999999891
 34
0.0
1001
ACAD
1000
DSTYLE
1002
{
1070
144
1040
1
1002
}
  0
LINE
  5
9C
100
AcDbEntity
100
AcDbLine
  8
0
 62
256
370
-1
  6
BYLAYER
 10
-48.5566243270259292
 20
-2.5000000000000235
 30
0.0
 11
-26.4433756729741525
 21
-40.8012701892219312
 31
0.0
  0
LINE
  5
9D
100
AcDbEntity
100
AcDbLine
  8
0
 62
256
370
-1
  6
BYLAYER
 10
17.1132486540520219
 20
34.6410161513777339
 30
0.0
 11
-9.6113523266954068
 21
34.6410161513776771
 31
0.0
  0
ENDBLK
  5
9E
100
AcDbEntity
  8
0
100
AcDbBlockEnd
  0
BLOCK
  5
9F
100
AcDbEntity
  8
0
100
AcDbBlockBegin
  2
coxa
 70
0
 10
0.0
 20
0.0
 30
0.0
  3
coxa
  1

  0
ARC
  5
A0
100
AcDbEntity
  8
0
 62
252
420
10526884
370
-1
  6
BYLAYER
100
AcDbCircle
 10
2.1650635094610493
 20
-1.25
 30
0.0
 40
5.0
100
AcDbArc
 50
240.0
 51
300.0
  0
ARC
  5
A1
100
AcDbEntity
  8
0
 62
252
420
10526884
370
-1
  6
BYLAYER
100
AcDbCircle
 10
17.8253175473054739
 20
5.8743556529821319
 30
0.0
 40
5.0
100
AcDbArc
 50
150.0
 51
240.0
  0
ARC
  5
A2
100
AcDbEntity
  8
0
 62
252
420
10526884
370
-1
  6
BYLAYER
100
AcDbCircle
 10
12.8253175473054171
 20
-2.7858983848621506
 30
0.0
 40
5.0
100
AcDbArc
 50
240.0
 51
59.9999999999999645
  0
LINE
  5
A3
100
AcDbEntity
100
AcDbLine
  8
0
 62
252
420
10526884
370
-1
  6
BYLAYER
 10
10.3253175473054739
 20
-7.1160254037843913
 30
0.0
 11
7.6650635094610493
 21
-5.5801270189221555
 31
0.0
  0
ARC
  5
A4
100
AcDbEntity
  8
0
 62
252
420
10526884
370
-1
  6
BYLAYER
100
AcDbCircle
 10
6.1650635094610493
 20
-8.1782032302754715
 30
0.0
 40
3.0
100
AcDbArc
 50
60.0
 51
119.9999999999999716
  0
ARC
  5
A5
100
AcDbEntity
  8
0
 62
252
420
10526884
370
-1
  6
BYLAYER
100
AcDbCircle
 10
6.3708348754011013
 20
24.0346096908265849
 30
0.0
 40
1.0
100
AcDbArc
 50
60.0
 51
150.0
  0
ARC
  5
A6
100
AcDbEntity
  8
0
 62
252
420
10526884
370
-1
  6
BYLAYER
100
AcDbCircle
 10
17.6291651245988419
 20
17.5346096908265565
 30
0.0
 40
1.0
100
AcDbArc
 50
330.0
 51
60.0
  0
LINE
  5
A7
100
AcDbEntity
100
AcDbLine
  8
0
 62
252
420
10526884
370
-1
  6
BYLAYER
 10
13.4951905283832616
 20
8.3743556529822172
 30
0.0
 11
18.4951905283832616
 21
17.0346096908265565
 31
0.0
  0
LINE
  5
A8
100
AcDbEntity
100
AcDbLine
  8
0
 62
252
420
10526884
370
-1
  6
BYLAYER
 10
5.5048094716167384
 20
24.5346096908264997
 30
0.0
 11
-6.4951905283833753
 21
3.7500000000001421
 31
0.0
  0
LINE
  5
A9
100
AcDbEntity
100
AcDbLine
  8
0
 62
252
420
10526884
370
-1
  6
BYLAYER
 10
-4.6650635094611062
 20
-3.0801270189221555
 30
0.0
 11
-0.3349364905389507
 21
-5.580127018922127
 31
0.0
  0
LINE
  5
AA
100
AcDbEntity
100
AcDbLine
  8
0
 62
252
420
10526884
370
-1
  6
BYLAYER
 10
5.2496306570155298
 20
2.742627018922235
 30
0.0
 11
29.7496306570156435
 21
45.1778718043597678
 31
0.0
  0
LINE
  5
AB
100
AcDbEntity
100
AcDbLine
  8
0
 62
252
420
10526884
370
-1
  6
BYLAYER
 10
29.7496306570156435
 20
45.1778718043597678
 30
0.0
 11
24.2503693429844702
 21
48.3528718043597792
 31
0.0
  0
LINE
  5
AC
100
AcDbEntity
100
AcDbLine
  8
0
 62
252
420
10526884
370
-1
  6
BYLAYER
 10
24.2503693429844702
 20
48.3528718043597792
 30
0.0
 11
-0.2496306570155298
 21
5.9176270189221611
 31
0.0
  0
LINE
  5
AD
100
AcDbEntity
100
AcDbLine
  8
0
 62
252
420
10526884
370
-1
  6
BYLAYER
 10
-0.2496306570155298
 20
5.9176270189221611
 30
0.0
 11
5.2496306570155298
 21
2.742627018922235
 31
0.0
  0
LINE
  5
AE
100
AcDbEntity
100
AcDbLine
  8
0
 62
252
420
10526884
370
-1
  6
DOT
 10
34.086162745612512
 20
38.6218479301341233
 30
0.0
 11
16.4044200757892895
 21
48.8304068202983501
 31
0.0
  0
LINE
  5
AF
100
AcDbEntity
100
AcDbLine
  8
0
 62
252
420
10526884
370
-1
  6
DOT
 10
14.9044200757892327
 20
46.2323306089450909
 30
0.0
 11
32.5861627456126257
 21
36.0237717187807505
 31
0.0
  0
LINE
  5
B0
100
AcDbEntity
100
AcDbLine
  8
0
 62
252
420
10526884
370
-1
  6
BYLAYER
 10
10.2496306570155298
 20
11.4028810567666312
 30
0.0
 11
15.2496306570155298
 21
20.0631350946110274
 31
0.0
  0
LINE
  5
B1
100
AcDbEntity
100
AcDbLine
  8
0
 62
252
420
10526884
370
-1
  6
BYLAYER
 10
9.7503693429844702
 20
23.2381350946109535
 30
0.0
 11
4.7503693429843565
 21
14.5778810567666426
 31
0.0
  0
LINE
  5
B2
100
AcDbEntity
100
AcDbLine
  8
0
 62
252
420
10526884
370
-1
  6
DOT
 10
4.7503693429843565
 20
14.5778810567666426
 30
0.0
 11
10.2496306570155298
 21
11.4028810567666312
 31
0.0
  0
LINE
  5
B3
100
AcDbEntity
100
AcDbLine
  8
0
 62
252
420
10526884
370
-1
  6
BYLAYER
 10
9.7503693429844702
 20
23.2381350946109535
 30
0.0
 11
6.8708348754010444
 21
24.9006350946110615
 31
0.0
  0
LINE
  5
B4
100
AcDbEntity
100
AcDbLine
  8
0
 62
252
420
10526884
370
-1
  6
BYLAYER
 10
15.2496306570155298
 20
20.0631350946110274
 30
0.0
 11
18.1291651245988419
 21
18.4006350946109762
 31
0.0
  0
ARC
  5
B5
100
AcDbEntity
  8
0
 62
252
420
10526884
370
-1
  6
BYLAYER
100
AcDbCircle
 10
-2.1650635094610493
 20
1.25
 30
0.0
 40
5.0
100
AcDbArc
 50
150.0
 51
240.0
  0
CIRCLE
  5
B6
100
AcDbEntity
100
AcDbCircle
  8
0
 62
252
420
10526884
370
-1
  6
BYLAYER
 10
24.4952914107008723
 20
42.4270892695395787
 30
0.0
 40
1.0
  0
CIRCLE
  5
B7
100
AcDbEntity
100
AcDbCircle
  8
0
 62
256
370
-1
  6
BYLAYER
 10
0.0
 20
0.0
 30
0.0
 40
1.0
  0
ENDBLK
  5
B8
100
AcDbEntity
  8
0
100
AcDbBlockEnd
  0
BLOCK
  5
B9
100
AcDbEntity
  8
0
100
AcDbBlockBegin
  2
femur_vertical
 70
0
 10
0.0
 20
0.0
 30
0.0
  3
femur_vertical
  1

  0
ARC
  5
BA
100
AcDbEntity
  8
0
 62
256
370
-1
  6
BYLAYER
100
AcDbCircle
 10
34.0
 20
17.8249999999999993
 30
0.0
 40
5.0
100
AcDbArc
 50
0.0
 51
90.0
  0
ARC
  5
BB
100
AcDbEntity
  8
0
 62
256
370
-1
  6
BYLAYER
100
AcDbCircle
 10
34.0
 20
17.8249999999999993
 30
0.0
 40
5.0
100
AcDbArc
 50
270.0
 51
0.0
  0
ARC
  5
BC
100
AcDbEntity
  8
0
 62
256
370
-1
  6
BYLAYER
100
AcDbCircle
 10
15.9999999999999982
 20
-12.5
 30
0.0
 40
5.0
100
AcDbArc
 50
180.0
 51
270.0
  0
LINE
  5
BD
100
AcDbEntity
100
AcDbLine
  8
0
 62
256
370
-1
  6
BYLAYER
 10
0.0
 20
-3.1749999999999998
 30
0.0
 11
-10.0
 21
-3.1749999999999998
 31
0.0
  0
LINE
  5
BE
100
AcDbEntity
100
AcDbLine
  8
0
 62
256
370
-1
  6
BYLAYER
 10
-0.0
 20
3.1749999999999998
 30
0.0
 11
-10.0
 21
3.1750000000000007
 31
0.0
  0
DIMENSION
  5
BF
100
AcDbEntity
  8
0
 62
256
370
-1
  6
BYLAYER
100
AcDbDimension
 10
35.5
 20
20.0729994958112563
 30
0.0
 11
24.0
 21
21.0000000000000071
 31
0.0
 70
129
 71
8
 72
2
 41
1.0
 42
0.0
  1
9/64"
  3
Standard
100
AcDbAlignedDimension
 13
35.5
 23
17.8249999999999957
 33
0.0
 14
32.5
 24
17.8249999999999922
 34
0.0
1001
ACAD
1000
DSTYLE
1002
{
1070
144
1040
1
1002
}
  0
CIRCLE
  5
C0
100
AcDbEntity
100
AcDbCircle
  8
0
 62
256
370
-1
  6
BYLAYER
 10
34.0
 20
17.8249999999999993
 30
0.0
 40
1.5
  0
ARC
  5
C1
100
AcDbEntity
  8
0
 62
256
370
-1
  6
BYLAYER
100
AcDbCircle
 10
6.0
 20
-12.5
 30
0.0
 40
5.0
100
AcDbArc
 50
0.0
 51
90.0
  0
ARC
  5
C2
100
AcDbEntity
  8
0
 62
256
370
-1
  6
BYLAYER
100
AcDbCircle
 10
6.0
 20
12.5
 30
0.0
 40
5.0
100
AcDbArc
 50
270.0
 51
0.0
  0
ARC
  5
C3
100
AcDbEntity
  8
0
 62
256
370
-1
  6
BYLAYER
100
AcDbCircle
 10
-9.0
 20
6.5000000000000009
 30
0.0
 40
1.0
100
AcDbArc
 50
89.9999999999999005
 51
180.0
  0
ARC
  5
C4
100
AcDbEntity
  8
0
 62
256
370
-1
  6
BYLAYER
100
AcDbCircle
 10
-9.0
 20
-6.4999999999999991
 30
0.0
 40
1.0
100
AcDbArc
 50
180.0
 51
270.0
  0
LINE
  5
C5
100
AcDbEntity
100
AcDbLine
  8
0
 62
256
370
-1
  6
BYLAYER
 10
-9.0
 20
-7.5
 30
0.0
 11
6.0
 21
-7.5
 31
0.0
  0
ARC
  5
C6
100
AcDbEntity
  8
0
 62
256
370
-1
  6
BYLAYER
100
AcDbCircle
 10
24.0
 20
-12.5
 30
0.0
 40
5.0
100
AcDbArc
 50
270.0
 51
0.0
  0
LINE
  5
C7
100
AcDbEntity
100
AcDbLine
  8
0
 62
256
370
-1
  6
BYLAYER
 10
6.0
 20
7.5000000000000009
 30
0.0
 11
-8.9999999999999982
 21
7.5000000000000009
 31
0.0
  0
LINE
  5
C8
100
AcDbEntity
100
AcDbLine
  8
0
 62
256
370
-1
  6
BYLAYER
 10
-10.0
 20
3.1749999999999998
 30
0.0
 11
-10.0
 21
6.5000000000000009
 31
0.0
  0
LINE
  5
C9
100
AcDbEntity
100
AcDbLine
  8
0
 62
256
370
-1
  6
BYLAYER
 10
0.0
 20
-3.1749999999999998
 30
0.0
 11
-10.0
 21
-3.1749999999999998
 31
0.0
  0
LINE
  5
CA
100
AcDbEntity
100
AcDbLine
  8
0
 62
256
370
-1
  6
BYLAYER
 10
-0.0
 20
3.1749999999999998
 30
0.0
 11
-10.0
 21
3.1750000000000007
 31
0.0
  0
DIMENSION
  5
CB
100
AcDbEntity
  8
0
 62
256
370
-1
  6
BYLAYER
100
AcDbDimension
 10
35.5
 20
20.0729994958112563
 30
0.0
 11
24.0
 21
21.0000000000000071
 31
0.0
 70
129
 71
8
 72
2
 41
1.0
 42
0.0
  1
9/64"
  3
Standard
100
AcDbAlignedDimension
 13
35.5
 23
17.8249999999999957
 33
0.0
 14
32.5
 24
17.8249999999999922
 34
0.0
1001
ACAD
1000
DSTYLE
1002
{
1070
144
1040
1
1002
}
  0
CIRCLE
  5
CC
100
AcDbEntity
100
AcDbCircle
  8
0
 62
256
370
-1
  6
BYLAYER
 10
34.0
 20
17.8249999999999993
 30
0.0
 40
1.5
  0
INSERT
  5
CD
100
AcDbEntity
100
AcDbBlockReference
  8
0
 62
256
370
-1
  6
BYLAYER
  2
servo_mount
 10
20.0
 20
-0.1749999999999998
 30
0.0
  0
LINE
  5
CE
100
AcDbEntity
100
AcDbLine
  8
0
 62
256
370
-1
  6
BYLAYER
 10
15.9999999999999982
 20
-17.5
 30
0.0
 11
24.0
 21
-17.5
 31
0.0
  0
LINE
  5
CF
100
AcDbEntity
100
AcDbLine
  8
0
 62
256
370
-1
  6
BYLAYER
 10
-10.0
 20
-3.1749999999999998
 30
0.0
 11
-10.0
 21
-6.4999999999999991
 31
0.0
  0
LINE
  5
D0
100
AcDbEntity
100
AcDbLine
  8
0
 62
256
370
-1
  6
BYLAYER
 10
29.0
 20
22.8249999999999993
 30
0.0
 11
16.0
 21
22.8249999999999993
 31
0.0
  0
INSERT
  5
D1
100
AcDbEntity
100
AcDbBlockReference
  8
0
 62
256
370
-1
  6
BYLAYER
  2
servo_mount
 10
20.0
 20
-0.1749999999999998
 30
0.0
  0
LINE
  5
D2
100
AcDbEntity
100
AcDbLine
  8
0
 62
256
370
-1
  6
BYLAYER
 10
11.0
 20
17.8249999999999993
 30
0.0
 11
11.0
 21
12.5
 31
0.0
  0
LINE
  5
D3
100
AcDbEntity
100
AcDbLine
  8
0
 62
256
370
-1
  6
BYLAYER
 10
39.0
 20
17.8249999999999993
 30
0.0
 11
39.0
 21
17.8249999999999993
 31
0.0
  0
LINE
  5
D4
100
AcDbEntity
100
AcDbLine
  8
0
 62
256
370
-1
  6
BYLAYER
 10
32.0
 20
12.8249999999999993
 30
0.0
 11
34.0
 21
12.8249999999999993
 31
0.0
  0
LINE
  5
D5
100
AcDbEntity
100
AcDbLine
  8
0
 62
256
370
-1
  6
BYLAYER
 10
39.0
 20
17.8249999999999993
 30
0.0
 11
39.0
 21
17.8249999999999993
 31
0.0
  0
LINE
  5
D6
100
AcDbEntity
100
AcDbLine
  8
0
 62
256
370
-1
  6
BYLAYER
 10
34.0
 20
22.8249999999999993
 30
0.0
 11
29.0
 21
22.8249999999999993
 31
0.0
  0
LINE
  5
D7
100
AcDbEntity
100
AcDbLine
  8
0
 62
256
370
-1
  6
BYLAYER
 10
29.0
 20
9.8249999999999993
 30
0.0
 11
29.0
 21
-12.5000000000000036
 31
0.0
  0
ARC
  5
D8
100
AcDbEntity
  8
0
 62
256
370
-1
  6
BYLAYER
100
AcDbCircle
 10
32.0
 20
9.8249999999999993
 30
0.0
 40
3.0
100
AcDbArc
 50
90.0
 51
180.0
  0
ARC
  5
D9
100
AcDbEntity
  8
0
 62
256
370
-1
  6
BYLAYER
100
AcDbCircle
 10
16.0
 20
17.8249999999999993
 30
0.0
 40
5.0
100
AcDbArc
 50
90.0
 51
180.0
  0
LINE
  5
DA
100
AcDbEntity
100
AcDbLine
  8
0
 62
7
420
0
370
-1
  6
DOT2
 10
-13.5
 20
-3.1750000000000398
 30
0.0
 11
-13.5
 21
3.1749999999999829
 31
0.0
  0
LINE
  5
DB
100
AcDbEntity
100
AcDbLine
  8
0
 62
7
420
0
370
-1
  6
DOT2
 10
-16.5
 20
3.1749999999999829
 30
0.0
 11
-16.5
 21
-3.1750000000000398
 31
0.0
  0
LINE
  5
DC
100
AcDbEntity
100
AcDbLine
  8
0
 62
7
420
0
370
-1
  6
BYLAYER
 10
-20.0
 20
-3.1750000000000398
 30
0.0
 11
10.0
 21
-3.1750000000000398
 31
0.0
  0
LINE
  5
DD
100
AcDbEntity
100
AcDbLine
  8
0
 62
7
420
0
370
-1
  6
BYLAYER
 10
10.0
 20
-3.1750000000000398
 30
0.0
 11
10.0
 21
3.1749999999999829
 31
0.0
  0
LINE
  5
DE
100
AcDbEntity
100
AcDbLine
  8
0
 62
7
420
0
370
-1
  6
BYLAYER
 10
10.0
 20
3.1749999999999829
 30
0.0
 11
-20.0
 21
3.1749999999999829
 31
0.0
  0
LINE
  5
DF
100
AcDbEntity
100
AcDbLine
  8
0
 62
7
420
0
370
-1
  6
DOT
 10
0.0
 20
3.1750000000000398
 30
0.0
 11
0.0
 21
-3.1749999999999261
 31
0.0
  0
LINE
  5
E0
100
AcDbEntity
100
AcDbLine
  8
0
 62
7
420
0
370
-1
  6
BYLAYER
 10
-20.0
 20
3.1749999999999829
 30
0.0
 11
-20.0
 21
-3.1750000000000398
 31
0.0
  0
ENDBLK
  5
E1
100
AcDbEntity
  8
0
100
AcDbBlockEnd
  0
BLOCK
  5
E2
100
AcDbEntity
  8
0
100
AcDbBlockBegin
  2
control_pcb
 70
0
 10
0.0
 20
0.0
 30
0.0
  3
control_pcb
  1

  0
LINE
  5
E3
100
AcDbEntity
100
AcDbLine
  8
0
 62
256
370
-1
  6
DASHED
 10
-52.9999999999999858
 20
10.4999999999999716
 30
0.0
 11
-52.9999999999999858
 21
-14.5000000000000284
 31
0.0
  0
CIRCLE
  5
E4
100
AcDbEntity
100
AcDbCircle
  8
0
 62
256
370
-1
  6
CONTINUOUS
 10
-35.3553390593273562
 20
-29.6984848098349943
 30
0.0
 40
1.0
  0
CIRCLE
  5
E5
100
AcDbEntity
100
AcDbCircle
  8
0
 62
256
370
-1
  6
CONTINUOUS
 10
-35.3553390593273562
 20
29.6984848098349801
 30
0.0
 40
1.0
  0
LINE
  5
E6
100
AcDbEntity
100
AcDbLine
  8
0
 62
256
370
-1
  6
DASHED
 10
-70.7106781186547266
 20
-0.0000000000000142
 30
0.0
 11
-35.3553390593273633
 21
-35.3553390593273917
 31
0.0
  0
LINE
  5
E7
100
AcDbEntity
100
AcDbLine
  8
0
 62
256
370
-1
  6
DASHED
 10
-35.3553390593273633
 20
-35.3553390593273917
 30
0.0
 11
0.0000000000000142
 21
-0.0000000000000142
 31
0.0
  0
LINE
  5
E8
100
AcDbEntity
100
AcDbLine
  8
0
 62
256
370
-1
  6
DASHED
 10
0.0000000000000142
 20
-0.0000000000000142
 30
0.0
 11
-35.3553390593273562
 21
35.3553390593273633
 31
0.0
  0
LINE
  5
E9
100
AcDbEntity
100
AcDbLine
  8
0
 62
256
370
-1
  6
DASHED
 10
-35.3553390593273562
 20
35.3553390593273633
 30
0.0
 11
-70.7106781186547266
 21
-0.0000000000000142
 31
0.0
  0
LINE
  5
EA
100
AcDbEntity
100
AcDbLine
  8
0
 62
256
370
-1
  6
DASHED
 10
-61.9999999999999858
 20
-7.0000000000000284
 30
0.0
 11
-9.9999999999999858
 21
-7.0000000000000284
 31
0.0
  0
LINE
  5
EB
100
AcDbEntity
100
AcDbLine
  8
0
 62
256
370
-1
  6
DASHED
 10
-9.9999999999999858
 20
-7.0000000000000284
 30
0.0
 11
-9.9999999999999858
 21
6.9999999999999716
 31
0.0
  0
LINE
  5
EC
100
AcDbEntity
100
AcDbLine
  8
0
 62
256
370
-1
  6
DASHED
 10
-9.9999999999999858
 20
6.9999999999999716
 30
0.0
 11
-61.9999999999999858
 21
6.9999999999999716
 31
0.0
  0
LINE
  5
ED
100
AcDbEntity
100
AcDbLine
  8
0
 62
256
370
-1
  6
DASHED
 10
-61.9999999999999858
 20
6.9999999999999716
 30
0.0
 11
-61.9999999999999858
 21
-7.0000000000000284
 31
0.0
  0
LINE
  5
EE
100
AcDbEntity
100
AcDbLine
  8
0
 62
256
370
-1
  6
DASHED
 10
-52.9999999999999858
 20
-14.5000000000000284
 30
0.0
 11
-17.9999999999999858
 21
-14.5000000000000284
 31
0.0
  0
LINE
  5
EF
100
AcDbEntity
100
AcDbLine
  8
0
 62
256
370
-1
  6
DASHED
 10
-17.9999999999999858
 20
-14.5000000000000284
 30
0.0
 11
-17.9999999999999858
 21
10.4999999999999716
 31
0.0
  0
LINE
  5
F0
100
AcDbEntity
100
AcDbLine
  8
0
 62
256
370
-1
  6
DASHED
 10
-17.9999999999999858
 20
10.4999999999999716
 30
0.0
 11
-52.9999999999999858
 21
10.4999999999999716
 31
0.0
  0
ENDBLK
  5
F1
100
AcDbEntity
  8
0
100
AcDbBlockEnd
  0
BLOCK
  5
F2
100
AcDbEntity
  8
0
100
AcDbBlockBegin
  2
servo_mount
 70
0
 10
0.0
 20
0.0
 30
0.0
  3
servo_mount
  1

  0
LINE
  5
F3
100
AcDbEntity
100
AcDbLine
  8
0
 62
256
370
-1
  6
BYLAYER
 10
-5.9999999999999893
 20
11.5
 30
0.0
 11
-6.0
 21
-11.4999999999999982
 31
0.0
  0
LINE
  5
F4
100
AcDbEntity
100
AcDbLine
  8
0
 62
256
370
-1
  6
BYLAYER
 10
-6.0
 20
-11.4999999999999982
 30
0.0
 11
6.0
 21
-11.5
 31
0.0
  0
DIMENSION
  5
F5
100
AcDbEntity
  8
0
 62
256
370
-1
  6
BYLAYER
100
AcDbDimension
 10
3.5654529172320149
 20
14.4999999999999982
 30
0.0
 11
1.8056235137575523
 21
6.4065370865184263
 31
0.0
 70
129
 71
8
 72
2
 41
1.0
 42
0.0
  1
1/16"
  3
Standard
100
AcDbAlignedDimension
 13
0.0000000000000009
 23
14.4999999999999982
 33
0.0
 14
0.0000000000000008
 24
13.4999999999999982
 34
0.0
1001
ACAD
1000
DSTYLE
1002
{
1070
144
1040
1
1002
}
  0
CIRCLE
  5
F6
100
AcDbEntity
100
AcDbCircle
  8
0
 62
256
370
-1
  6
BYLAYER
 10
0.0
 20
13.9999999999999982
 30
0.0
 40
0.5
  0
CIRCLE
  5
F7
100
AcDbEntity
100
AcDbCircle
  8
0
 62
256
370
-1
  6
BYLAYER
 10
0.0
 20
-13.9999999999999982
 30
0.0
 40
0.5
  0
LINE
  5
F8
100
AcDbEntity
100
AcDbLine
  8
0
 62
256
370
-1
  6
BYLAYER
 10
6.0
 20
-11.5
 30
0.0
 11
6.0
 21
11.5
 31
0.0
  0
LINE
  5
F9
100
AcDbEntity
100
AcDbLine
  8
0
 62
256
370
-1
  6
BYLAYER
 10
6.0
 20
11.5
 30
0.0
 11
-5.9999999999999893
 21
11.5
 31
0.0
  0
LINE
  5
FA
100
AcDbEntity
100
AcDbLine
  8
0
 62
256
370
-1
  6
BYLAYER
 10
-5.9999999999999893
 20
11.5
 30
0.0
 11
-6.0
 21
-11.4999999999999982
 31
0.0
  0
LINE
  5
FB
100
AcDbEntity
100
AcDbLine
  8
0
 62
256
370
-1
  6
BYLAYER
 10
-6.0
 20
-11.4999999999999982
 30
0.0
 11
6.0
 21
-11.5
 31
0.0
  0
DIMENSION
  5
FC
100
AcDbEntity
  8
0
 62
256
370
-1
  6
BYLAYER
100
AcDbDimension
 10
3.5654529172320149
 20
14.4999999999999982
 30
0.0
 11
1.8056235137575523
 21
6.4065370865184263
 31
0.0
 70
129
 71
8
 72
2
 41
1.0
 42
0.0
  1
1/16"
  3
Standard
100
AcDbAlignedDimension
 13
0.0000000000000009
 23
14.4999999999999982
 33
0.0
 14
0.0000000000000008
 24
13.4999999999999982
 34
0.0
1001
ACAD
1000
DSTYLE
1002
{
1070
144
1040
1
1002
}
  0
CIRCLE
  5
FD
100
AcDbEntity
100
AcDbCircle
  8
0
 62
256
370
-1
  6
BYLAYER
 10
0.0
 20
13.9999999999999982
 30
0.0
 40
0.5
  0
CIRCLE
  5
FE
100
AcDbEntity
100
AcDbCircle
  8
0
 62
256
370
-1
  6
BYLAYER
 10
0.0
 20
-13.9999999999999982
 30
0.0
 40
0.5
  0
LINE
  5
FF
100
AcDbEntity
100
AcDbLine
  8
0
 62
256
370
-1
  6
BYLAYER
 10
6.0
 20
-11.5
 30
0.0
 11
6.0
 21
11.5
 31
0.0
  0
LINE
  5
100
100
AcDbEntity
100
AcDbLine
  8
0
 62
256
370
-1
  6
BYLAYER
 10
6.0
 20
11.5
 30
0.0
 11
-5.9999999999999893
 21
11.5
 31
0.0
  0
DIMENSION
  5
101
100
AcDbEntity
  8
0
 62
256
370
-1
  6
BYLAYER
100
AcDbDimension
 10
3.5654529172320149
 20
14.4999999999999982
 30
0.0
 11
1.8056235137575523
 21
6.4065370865184263
 31
0.0
 70
129
 71
8
 72
2
 41
1.0
 42
0.0
  1
1/16"
  3
Standard
100
AcDbAlignedDimension
 13
0.0000000000000009
 23
14.4999999999999982
 33
0.0
 14
0.0000000000000008
 24
13.4999999999999982
 34
0.0
1001
ACAD
1000
DSTYLE
1002
{
1070
144
1040
1
1002
}
  0
LINE
  5
102
100
AcDbEntity
100
AcDbLine
  8
0
 62
256
370
-1
  6
BYLAYER
 10
-5.9999999999999893
 20
11.5
 30
0.0
 11
-6.0
 21
-11.4999999999999982
 31
0.0
  0
CIRCLE
  5
103
100
AcDbEntity
100
AcDbCircle
  8
0
 62
256
370
-1
  6
BYLAYER
 10
0.0
 20
13.9999999999999982
 30
0.0
 40
0.5
  0
LINE
  5
104
100
AcDbEntity
100
AcDbLine
  8
0
 62
256
370
-1
  6
BYLAYER
 10
-6.0
 20
-11.4999999999999982
 30
0.0
 11
6.0
 21
-11.5
 31
0.0
  0
CIRCLE
  5
105
100
AcDbEntity
100
AcDbCircle
  8
0
 62
256
370
-1
  6
BYLAYER
 10
0.0
 20
-13.9999999999999982
 30
0.0
 40
0.5
  0
LINE
  5
106
100
AcDbEntity
100
AcDbLine
  8
0
 62
256
370
-1
  6
BYLAYER
 10
6.0
 20
-11.5
 30
0.0
 11
6.0
 21
11.5
 31
0.0
  0
LINE
  5
107
100
AcDbEntity
100
AcDbLine
  8
0
 62
256
370
-1
  6
BYLAYER
 10
6.0
 20
11.5
 30
0.0
 11
-5.9999999999999893
 21
11.5
 31
0.0
  0
ENDBLK
  5
108
100
AcDbEntity
  8
0
100
AcDbBlockEnd
  0
BLOCK
  5
109
100
AcDbEntity
  8
0
100
AcDbBlockBegin
  2
tibia
 70
0
 10
0.0
 20
0.0
 30
0.0
  3
tibia
  1

  0
INSERT
  5
10A
100
AcDbEntity
100
AcDbBlockReference
  8
0
 62
256
370
-1
  6
BYLAYER
  2
servo_mount
 10
5.0
 20
-23.5
 30
0.0
  0
LINE
  5
10B
100
AcDbEntity
100
AcDbLine
  8
0
 62
256
370
-1
  6
BYLAYER
 10
15.0
 20
-37.0
 30
0.0
 11
15.0
 21
-10.0
 31
0.0
  0
INSERT
  5
10C
100
AcDbEntity
100
AcDbBlockReference
  8
0
 62
256
370
-1
  6
BYLAYER
  2
servo_mount
 10
5.0
 20
-23.5
 30
0.0
  0
LINE
  5
10D
100
AcDbEntity
100
AcDbLine
  8
0
 62
256
370
-1
  6
BYLAYER
 10
-5.0
 20
-5.0
 30
0.0
 11
-5.0
 21
-42.0
 31
0.0
  0
LINE
  5
10E
100
AcDbEntity
100
AcDbLine
  8
0
 62
256
370
-1
  6
BYLAYER
 10
15.0
 20
-37.0
 30
0.0
 11
15.0
 21
-10.0
 31
0.0
  0
LINE
  5
10F
100
AcDbEntity
100
AcDbLine
  8
0
 62
256
370
-1
  6
BYLAYER
 10
0.0
 20
-57.0
 30
0.0
 11
0.0
 21
-57.0
 31
0.0
  0
LINE
  5
110
100
AcDbEntity
100
AcDbLine
  8
0
 62
256
370
-1
  6
BYLAYER
 10
-5.0
 20
-5.0
 30
0.0
 11
-5.0
 21
-42.0
 31
0.0
  0
LINE
  5
111
100
AcDbEntity
100
AcDbLine
  8
0
 62
256
370
-1
  6
BYLAYER
 10
5.0
 20
-52.0
 30
0.0
 11
5.0
 21
-47.0
 31
0.0
  0
LINE
  5
112
100
AcDbEntity
100
AcDbLine
  8
0
 62
256
370
-1
  6
BYLAYER
 10
0.0
 20
-57.0
 30
0.0
 11
0.0
 21
-57.0
 31
0.0
  0
LINE
  5
113
100
AcDbEntity
100
AcDbLine
  8
0
 62
256
370
-1
  6
BYLAYER
 10
-5.0
 20
-42.0
 30
0.0
 11
-5.0
 21
-52.0
 31
0.0
  0
LINE
  5
114
100
AcDbEntity
100
AcDbLine
  8
0
 62
256
370
-1
  6
BYLAYER
 10
5.0
 20
-52.0
 30
0.0
 11
5.0
 21
-47.0
 31
0.0
  0
LINE
  5
115
100
AcDbEntity
100
AcDbLine
  8
0
 62
256
370
-1
  6
BYLAYER
 10
10.0
 20
-42.0
 30
0.0
 11
10.0
 21
-42.0
 31
0.0
  0
LINE
  5
116
100
AcDbEntity
100
AcDbLine
  8
0
 62
256
370
-1
  6
BYLAYER
 10
-5.0
 20
-42.0
 30
0.0
 11
-5.0
 21
-52.0
 31
0.0
  0
LINE
  5
117
100
AcDbEntity
100
AcDbLine
  8
0
 62
256
370
-1
  6
BYLAYER
 10
5.0
 20
0.0
 30
0.0
 11
5.0
 21
0.0
 31
0.0
  0
LINE
  5
118
100
AcDbEntity
100
AcDbLine
  8
0
 62
256
370
-1
  6
BYLAYER
 10
10.0
 20
-42.0
 30
0.0
 11
10.0
 21
-42.0
 31
0.0
  0
LINE
  5
119
100
AcDbEntity
100
AcDbLine
  8
0
 62
256
370
-1
  6
BYLAYER
 10
0.0
 20
5.0
 30
0.0
 11
0.0
 21
5.0
 31
0.0
  0
LINE
  5
11A
100
AcDbEntity
100
AcDbLine
  8
0
 62
256
370
-1
  6
BYLAYER
 10
5.0
 20
0.0
 30
0.0
 11
5.0
 21
0.0
 31
0.0
  0
LINE
  5
11B
100
AcDbEntity
100
AcDbLine
  8
0
 62
256
370
-1
  6
BYLAYER
 10
-5.0
 20
0.0
 30
0.0
 11
-5.0
 21
-5.0
 31
0.0
  0
LINE
  5
11C
100
AcDbEntity
100
AcDbLine
  8
0
 62
256
370
-1
  6
BYLAYER
 10
0.0
 20
5.0
 30
0.0
 11
0.0
 21
5.0
 31
0.0
  0
LINE
  5
11D
100
AcDbEntity
100
AcDbLine
  8
0
 62
256
370
-1
  6
BYLAYER
 10
10.0
 20
-5.0
 30
0.0
 11
10.0
 21
-5.0
 31
0.0
  0
LINE
  5
11E
100
AcDbEntity
100
AcDbLine
  8
0
 62
256
370
-1
  6
BYLAYER
 10
-5.0
 20
0.0
 30
0.0
 11
-5.0
 21
-5.0
 31
0.0
  0
ARC
  5
11F
100
AcDbEntity
  8
0
 62
256
370
-1
  6
BYLAYER
100
AcDbCircle
 10
0.0
 20
0.0
 30
0.0
 40
5.0
100
AcDbArc
 50
90.0
 51
180.0
  0
LINE
  5
120
100
AcDbEntity
100
AcDbLine
  8
0
 62
256
370
-1
  6
BYLAYER
 10
10.0
 20
-5.0
 30
0.0
 11
10.0
 21
-5.0
 31
0.0
  0
ARC
  5
121
100
AcDbEntity
  8
0
 62
256
370
-1
  6
BYLAYER
100
AcDbCircle
 10
0.0
 20
0.0
 30
0.0
 40
5.0
100
AcDbArc
 50
0.0
 51
90.0
  0
ARC
  5
122
100
AcDbEntity
  8
0
 62
256
370
-1
  6
BYLAYER
100
AcDbCircle
 10
0.0
 20
0.0
 30
0.0
 40
5.0
100
AcDbArc
 50
90.0
 51
180.0
  0
ARC
  5
123
100
AcDbEntity
  8
0
 62
256
370
-1
  6
BYLAYER
100
AcDbCircle
 10
10.0
 20
-10.0000000000000018
 30
0.0
 40
5.0
100
AcDbArc
 50
0.0
 51
90.0
  0
ARC
  5
124
100
AcDbEntity
  8
0
 62
256
370
-1
  6
BYLAYER
100
AcDbCircle
 10
0.0
 20
0.0
 30
0.0
 40
5.0
100
AcDbArc
 50
0.0
 51
90.0
  0
ARC
  5
125
100
AcDbEntity
  8
0
 62
256
370
-1
  6
BYLAYER
100
AcDbCircle
 10
10.0
 20
-37.0
 30
0.0
 40
5.0
100
AcDbArc
 50
270.0
 51
0.0
  0
ARC
  5
126
100
AcDbEntity
  8
0
 62
256
370
-1
  6
BYLAYER
100
AcDbCircle
 10
10.0
 20
-10.0000000000000018
 30
0.0
 40
5.0
100
AcDbArc
 50
0.0
 51
90.0
  0
ARC
  5
127
100
AcDbEntity
  8
0
 62
256
370
-1
  6
BYLAYER
100
AcDbCircle
 10
0.0
 20
-52.0
 30
0.0
 40
5.0
100
AcDbArc
 50
180.0
 51
270.0
  0
ARC
  5
128
100
AcDbEntity
  8
0
 62
256
370
-1
  6
BYLAYER
100
AcDbCircle
 10
10.0
 20
-37.0
 30
0.0
 40
5.0
100
AcDbArc
 50
270.0
 51
0.0
  0
ARC
  5
129
100
AcDbEntity
  8
0
 62
256
370
-1
  6
BYLAYER
100
AcDbCircle
 10
0.0
 20
-52.0
 30
0.0
 40
5.0
100
AcDbArc
 50
270.0
 51
0.0
  0
ARC
  5
12A
100
AcDbEntity
  8
0
 62
256
370
-1
  6
BYLAYER
100
AcDbCircle
 10
0.0
 20
-52.0
 30
0.0
 40
5.0
100
AcDbArc
 50
180.0
 51
270.0
  0
CIRCLE
  5
12B
100
AcDbEntity
100
AcDbCircle
  8
0
 62
256
370
-1
  6
BYLAYER
 10
0.0
 20
0.0
 30
0.0
 40
1.5
  0
ARC
  5
12C
100
AcDbEntity
  8
0
 62
256
370
-1
  6
BYLAYER
100
AcDbCircle
 10
0.0
 20
-52.0
 30
0.0
 40
5.0
100
AcDbArc
 50
270.0
 51
0.0
  0
DIMENSION
  5
12D
100
AcDbEntity
  8
0
 62
256
370
-1
  6
BYLAYER
100
AcDbDimension
 10
1.4999999999999996
 20
-3.0
 30
0.0
 11
0.9999999999999993
 21
-6.0
 31
0.0
 70
129
 71
8
 72
2
 41
1.0
 42
0.0
  1
9/64"
  3
Standard
100
AcDbAlignedDimension
 13
1.5
 23
0.0
 33
0.0
 14
-1.5
 24
0.0000000000000002
 34
0.0
1001
ACAD
1000
DSTYLE
1002
{
1070
144
1040
1
1002
}
  0
CIRCLE
  5
12E
100
AcDbEntity
100
AcDbCircle
  8
0
 62
256
370
-1
  6
BYLAYER
 10
0.0
 20
0.0
 30
0.0
 40
1.5
  0
ARC
  5
12F
100
AcDbEntity
  8
0
 62
256
370
-1
  6
BYLAYER
100
AcDbCircle
 10
10.0
 20
-47.0
 30
0.0
 40
5.0
100
AcDbArc
 50
90.0
 51
180.0
  0
DIMENSION
  5
130
100
AcDbEntity
  8
0
 62
256
370
-1
  6
BYLAYER
100
AcDbDimension
 10
1.4999999999999996
 20
-3.0
 30
0.0
 11
0.9999999999999993
 21
-6.0
 31
0.0
 70
129
 71
8
 72
2
 41
1.0
 42
0.0
  1
9/64"
  3
Standard
100
AcDbAlignedDimension
 13
1.5
 23
0.0
 33
0.0
 14
-1.5
 24
0.0000000000000002
 34
0.0
1001
ACAD
1000
DSTYLE
1002
{
1070
144
1040
1
1002
}
  0
ARC
  5
131
100
AcDbEntity
  8
0
 62
256
370
-1
  6
BYLAYER
100
AcDbCircle
 10
10.0
 20
-0.0
 30
0.0
 40
5.0
100
AcDbArc
 50
180.0
 51
270.0
  0
ARC
  5
132
100
AcDbEntity
  8
0
 62
256
370
-1
  6
BYLAYER
100
AcDbCircle
 10
10.0
 20
-47.0
 30
0.0
 40
5.0
100
AcDbArc
 50
90.0
 51
180.0
  0
ARC
  5
133
100
AcDbEntity
  8
0
 62
256
370
-1
  6
BYLAYER
100
AcDbCircle
 10
10.0
 20
-0.0
 30
0.0
 40
5.0
100
AcDbArc
 50
180.0
 51
270.0
  0
ENDBLK
  5
134
100
AcDbEntity
  8
0
100
AcDbBlockEnd
  0
ENDSEC
  0
SECTION
  2
ENTITIES
  0
INSERT
  5
135
100
AcDbEntity
100
AcDbBlockReference
  8
0
 62
256
370
-1
  6
BYLAYER
  2
femur_vertical
 10
15.0
 20
50.0000000000000284
 30
0.0
 50
360.0
  0
INSERT
  5
136
100
AcDbEntity
100
AcDbBlockReference
  8
0
 62
256
370
-1
  6
BYLAYER
  2
tibia
 10
86.5877048314363265
 20
54.1441942669732796
 30
0.0
 50
379.0000000000001137
  0
INSERT
  5
137
100
AcDbEntity
100
AcDbBlockReference
  8
0
 62
256
370
-1
  6
BYLAYER
  2
femur_tibia
 10
67.7938524157181632
 20
60.9845971334866448
 30
0.0
 50
160.0
  0
LINE
  5
138
100
AcDbEntity
100
AcDbLine
  8
0
 62
256
370
70
  6
BYLAYER
 10
-10.0000000000000036
 20
0.0
 30
0.0
 11
130.0000000000000284
 21
0.0
 31
0.0
  0
LINE
  5
139
100
AcDbEntity
100
AcDbLine
  8
0
 62
256
370
-1
  6
DASHED
 10
0.0
 20
50.0
 30
0.0
 11
-0.0000000000000036
 21
-0.0
 31
0.0
  0
MTEXT
  5
13A
100
AcDbEntity
100
AcDbMText
  8
0
 62
256
370
-1
  6
BYLAYER
 10
0.0
 20
70.0
 30
0.0
 40
8.0
 41
0.0
 71
1
 72
1
  1
\H5.14286;150mm
  7
textstyle0
 50
0.0
 73
2
 44
1.0
  0
MTEXT
  5
13B
100
AcDbEntity
100
AcDbMText
  8
0
 62
256
370
-1
  6
BYLAYER
 10
0.0000000000000036
 20
-30.0
 30
0.0
 40
8.0
 41
0.0
 71
1
 72
1
  1
\H5.14286;140mm
  7
textstyle1
 50
0.0
 73
2
 44
1.0
  0
INSERT
  5
13C
100
AcDbEntity
100
AcDbBlockReference
  8
0
 62
256
370
-1
  6
BYLAYER
  2
femur_vertical
 10
15.0000000000000036
 20
-49.9999999999999716
 30
0.0
 50
360.0
  0
INSERT
  5
13D
100
AcDbEntity
100
AcDbBlockReference
  8
0
 62
256
370
-1
  6
BYLAYER
  2
tibia
 10
87.4504678375327558
 20
-43.2004942326799863
 30
0.0
 50
368.0
  0
INSERT
  5
13E
100
AcDbEntity
100
AcDbBlockReference
  8
0
 62
256
370
-1
  6
BYLAYER
  2
femur_tibia
 10
68.2252339187663779
 20
-37.6877471163399704
 30
0.0
 50
164.0
  0
LINE
  5
13F
100
AcDbEntity
100
AcDbLine
  8
0
 62
256
370
70
  6
BYLAYER
 10
-10.0
 20
-100.0
 30
0.0
 11
130.0000000000000284
 21
-100.0
 31
0.0
  0
LINE
  5
140
100
AcDbEntity
100
AcDbLine
  8
0
 62
256
370
-1
  6
DASHED
 10
0.0000000000000036
 20
-50.0
 30
0.0
 11
0.0
 21
-100.0
 31
0.0
  0
MTEXT
  5
141
100
AcDbEntity
100
AcDbMText
  8
0
 62
256
370
-1
  6
BYLAYER
 10
0.0000000000000036
 20
-130.0
 30
0.0
 40
8.0
 41
0.0
 71
1
 72
1
  1
\H5.14286;130mm
  7
textstyle2
 50
0.0
 73
2
 44
1.0
  0
INSERT
  5
142
100
AcDbEntity
100
AcDbBlockReference
  8
0
 62
256
370
-1
  6
BYLAYER
  2
femur_vertical
 10
15.0000000000000036
 20
-149.9999999999999432
 30
0.0
 50
360.0
  0
INSERT
  5
143
100
AcDbEntity
100
AcDbBlockReference
  8
0
 62
256
370
-1
  6
BYLAYER
  2
tibia
 10
87.4504678375327842
 20
-143.2004942326799721
 30
0.0
 50
357.0000000000000568
  0
INSERT
  5
144
100
AcDbEntity
100
AcDbBlockReference
  8
0
 62
256
370
-1
  6
BYLAYER
  2
femur_tibia
 10
68.2252339187663779
 20
-137.6877471163399775
 30
0.0
 50
164.0
  0
LINE
  5
145
100
AcDbEntity
100
AcDbLine
  8
0
 62
256
370
70
  6
BYLAYER
 10
-10.0
 20
-200.0
 30
0.0
 11
130.0000000000000284
 21
-200.0
 31
0.0
  0
LINE
  5
146
100
AcDbEntity
100
AcDbLine
  8
0
 62
256
370
-1
  6
DASHED
 10
0.0000000000000036
 20
-150.0
 30
0.0
 11
0.0
 21
-200.0
 31
0.0
  0
MTEXT
  5
147
100
AcDbEntity
100
AcDbMText
  8
0
 62
256
370
-1
  6
BYLAYER
 10
0.0000000000000036
 20
-229.9999999999999716
 30
0.0
 40
8.0
 41
0.0
 71
1
 72
1
  1
\H5.14286;120mm
  7
textstyle3
 50
0.0
 73
2
 44
1.0
  0
INSERT
  5
148
100
AcDbEntity
100
AcDbBlockReference
  8
0
 62
256
370
-1
  6
BYLAYER
  2
femur_vertical
 10
15.0000000000000036
 20
-249.9999999999999432
 30
0.0
 50
360.0
  0
INSERT
  5
149
100
AcDbEntity
100
AcDbBlockReference
  8
0
 62
256
370
-1
  6
BYLAYER
  2
tibia
 10
87.0422606518061457
 20
-244.5356797749978455
 30
0.0
 50
347.0000000000000568
  0
INSERT
  5
14A
100
AcDbEntity
100
AcDbBlockReference
  8
0
 62
256
370
-1
  6
BYLAYER
  2
femur_tibia
 10
68.0211303259030728
 20
-238.3553398874989
 30
0.0
 50
162.0
  0
LINE
  5
14B
100
AcDbEntity
100
AcDbLine
  8
0
 62
256
370
70
  6
BYLAYER
 10
-10.0
 20
-300.0
 30
0.0
 11
130.0000000000000284
 21
-300.0
 31
0.0
  0
LINE
  5
14C
100
AcDbEntity
100
AcDbLine
  8
0
 62
256
370
-1
  6
DASHED
 10
0.0000000000000036
 20
-249.9999999999999716
 30
0.0
 11
0.0
 21
-300.0
 31
0.0
  0
MTEXT
  5
14D
100
AcDbEntity
100
AcDbMText
  8
0
 62
256
370
-1
  6
BYLAYER
 10
0.0000000000000036
 20
-329.9999999999999432
 30
0.0
 40
8.0
 41
0.0
 71
1
 72
1
  1
\H5.14286;110mm
  7
textstyle4
 50
0.0
 73
2
 44
1.0
  0
INSERT
  5
14E
100
AcDbEntity
100
AcDbBlockReference
  8
0
 62
256
370
-1
  6
BYLAYER
  2
femur_vertical
 10
15.0000000000000036
 20
-349.9999999999998863
 30
0.0
 50
360.0
  0
INSERT
  5
14F
100
AcDbEntity
100
AcDbBlockReference
  8
0
 62
256
370
-1
  6
BYLAYER
  2
tibia
 10
86.0873541826715041
 20
-347.1592637366364329
 30
0.0
 50
338.0000000000000568
  0
INSERT
  5
150
100
AcDbEntity
100
AcDbBlockReference
  8
0
 62
256
370
-1
  6
BYLAYER
  2
femur_tibia
 10
67.543677091335752
 20
-339.6671318683182221
 30
0.0
 50
158.0
  0
LINE
  5
151
100
AcDbEntity
100
AcDbLine
  8
0
 62
256
370
70
  6
BYLAYER
 10
-10.0
 20
-399.9999999999999432
 30
0.0
 11
130.0000000000000284
 21
-399.9999999999999432
 31
0.0
  0
LINE
  5
152
100
AcDbEntity
100
AcDbLine
  8
0
 62
256
370
-1
  6
DASHED
 10
0.0000000000000036
 20
-349.9999999999999432
 30
0.0
 11
0.0
 21
-399.9999999999999432
 31
0.0
  0
MTEXT
  5
153
100
AcDbEntity
100
AcDbMText
  8
0
 62
256
370
-1
  6
BYLAYER
 10
0.0000000000000036
 20
-429.9999999999999432
 30
0.0
 40
8.0
 41
0.0
 71
1
 72
1
  1
\H5.14286;100mm
  7
textstyle5
 50
0.0
 73
2
 44
1.0
  0
INSERT
  5
154
100
AcDbEntity
100
AcDbBlockReference
  8
0
 62
256
370
-1
  6
BYLAYER
  2
femur_vertical
 10
15.0000000000000036
 20
-449.9999999999998863
 30
0.0
 50
360.0
  0
INSERT
  5
155
100
AcDbEntity
100
AcDbBlockReference
  8
0
 62
256
370
-1
  6
BYLAYER
  2
tibia
 10
84.3179037143571009
 20
-450.9538625114356023
 30
0.0
 50
329.0000000000000568
  0
INSERT
  5
156
100
AcDbEntity
100
AcDbBlockReference
  8
0
 62
256
370
-1
  6
BYLAYER
  2
femur_tibia
 10
66.6589518571785362
 20
-441.56443125571775
 30
0.0
 50
152.0000000000000284
  0
LINE
  5
157
100
AcDbEntity
100
AcDbLine
  8
0
 62
256
370
70
  6
BYLAYER
 10
-10.0
 20
-499.9999999999999432
 30
0.0
 11
130.0000000000000284
 21
-499.9999999999999432
 31
0.0
  0
LINE
  5
158
100
AcDbEntity
100
AcDbLine
  8
0
 62
256
370
-1
  6
DASHED
 10
0.0000000000000036
 20
-449.9999999999999432
 30
0.0
 11
0.0
 21
-499.9999999999999432
 31
0.0
  0
MTEXT
  5
159
100
AcDbEntity
100
AcDbMText
  8
0
 62
256
370
-1
  6
BYLAYER
 10
0.0000000000000036
 20
170.0
 30
0.0
 40
8.0
 41
0.0
 71
1
 72
1
  1
\H5.14286;160mm
  7
textstyle6
 50
0.0
 73
2
 44
1.0
  0
INSERT
  5
15A
100
AcDbEntity
100
AcDbBlockReference
  8
0
 62
256
370
-1
  6
BYLAYER
  2
femur_vertical
 10
15.0000000000000036
 20
150.0000000000001137
 30
0.0
 50
360.0
  0
INSERT
  5
15B
100
AcDbEntity
100
AcDbBlockReference
  8
0
 62
256
370
-1
  6
BYLAYER
  2
tibia
 10
83.4296810801577635
 20
147.4633433699851821
 30
0.0
 50
393.7000000000000455
  0
INSERT
  5
15C
100
AcDbEntity
100
AcDbBlockReference
  8
0
 62
256
370
-1
  6
BYLAYER
  2
femur_tibia
 10
66.2148405400788818
 20
157.6441716849926138
 30
0.0
 50
149.4000000000000057
  0
LINE
  5
15D
100
AcDbEntity
100
AcDbLine
  8
0
 62
256
370
70
  6
BYLAYER
 10
-10.0
 20
100.0
 30
0.0
 11
130.0000000000000284
 21
100.0
 31
0.0
  0
LINE
  5
15E
100
AcDbEntity
100
AcDbLine
  8
0
 62
256
370
-1
  6
DASHED
 10
0.0000000000000036
 20
150.0
 30
0.0
 11
0.0
 21
100.0
 31
0.0
  0
DIMENSION
  5
15F
100
AcDbEntity
  8
0
 62
256
370
-1
  6
BYLAYER
100
AcDbDimension
 10
95.4204711596957367
 20
-109.6456362365833428
 30
0.0
 11
47.721840709156524
 21
-107.9477620906249911
 31
0.0
 70
1
 71
8
 72
2
 41
1.0
 42
0.0
  1

  3
Standard
100
AcDbAlignedDimension
 13
95.3833345922564746
 23
-99.6457741509495065
 33
0.0
 14
-0.0
 24
-100.0000000000000142
 34
0.0
1001
ACAD
1000
DSTYLE
1002
{
1070
144
1040
1
1002
}
  0
DIMENSION
  5
160
100
AcDbEntity
  8
0
 62
256
370
-1
  6
BYLAYER
100
AcDbDimension
 10
105.1688315003343064
 20
-9.7503081742553999
 30
0.0
 11
52.5918350703832047
 21
-8.0001311876626318
 31
0.0
 70
1
 71
8
 72
2
 41
1.0
 42
0.0
  1

  3
Standard
100
AcDbAlignedDimension
 13
105.1450896354943723
 23
0.2496354578122588
 33
0.0
 14
-0.0000000000000036
 24
-0.0
 34
0.0
1001
ACAD
1000
DSTYLE
1002
{
1070
144
1040
1
1002
}
  0
DIMENSION
  5
161
100
AcDbEntity
  8
0
 62
256
370
-1
  6
BYLAYER
100
AcDbDimension
 10
84.4555101504264343
 20
-208.272598658339291
 30
0.0
 11
42.2245675142060151
 21
-206.3364117693705282
 31
0.0
 70
1
 71
8
 72
2
 41
1.0
 42
0.0
  1

  3
Standard
100
AcDbAlignedDimension
 13
84.4673183316850498
 23
-200.1223777136906961
 33
0.0
 14
-0.0
 24
-200.0000000000000284
 34
0.0
1001
ACAD
1000
DSTYLE
1002
{
1070
144
1040
1
1002
}
  0
DIMENSION
  5
162
100
AcDbEntity
  8
0
 62
256
370
-1
  6
BYLAYER
100
AcDbDimension
 10
74.212565835526604
 20
-307.5040958659066632
 30
0.0
 11
37.104429538286098
 21
-305.591710083560713
 31
0.0
 70
1
 71
8
 72
2
 41
1.0
 42
0.0
  1

  3
Standard
100
AcDbAlignedDimension
 13
74.2200505542059119
 23
-300.0747734677563017
 33
0.0
 14
-0.0
 24
-299.9999999999999432
 34
0.0
1001
ACAD
1000
DSTYLE
1002
{
1070
144
1040
1
1002
}
  0
DIMENSION
  5
163
100
AcDbEntity
  8
0
 62
256
370
-1
  6
BYLAYER
100
AcDbDimension
 10
64.7338219008958902
 20
-407.0901652735100242
 30
0.0
 11
32.3666859700650917
 21
-405.2107935671409109
 31
0.0
 70
1
 71
8
 72
2
 41
1.0
 42
0.0
  1

  3
Standard
100
AcDbAlignedDimension
 13
64.7347783579645437
 23
-400.0087434469432992
 33
0.0
 14
-0.0
 24
-399.9999999999998863
 34
0.0
1001
ACAD
1000
DSTYLE
1002
{
1070
144
1040
1
1002
}
  0
DIMENSION
  5
164
100
AcDbEntity
  8
0
 62
256
370
-1
  6
BYLAYER
100
AcDbDimension
 10
54.9846500618249294
 20
-506.8191437562643387
 30
0.0
 11
27.4978833070989772
 21
-505.0379553533456374
 31
0.0
 70
1
 71
8
 72
2
 41
1.0
 42
0.0
  1

  3
Standard
100
AcDbAlignedDimension
 13
54.9607334444839779
 23
-499.8123986514559647
 33
0.0
 14
-0.0
 24
-499.9999999999998863
 34
0.0
1001
ACAD
1000
DSTYLE
1002
{
1070
144
1040
1
1002
}
  0
DIMENSION
  5
165
100
AcDbEntity
  8
0
 62
256
370
-1
  6
BYLAYER
100
AcDbDimension
 10
115.0586080553957089
 20
92.3787457482811192
 30
0.0
 11
57.5300175604654527
 21
94.2327664193286409
 31
0.0
 70
1
 71
8
 72
2
 41
1.0
 42
0.0
  1

  3
Standard
100
AcDbAlignedDimension
 13
115.0558134446937402
 23
100.0419584085476714
 33
0.0
 14
-0.0
 24
100.0000000000000142
 34
0.0
1001
ACAD
1000
DSTYLE
1002
{
1070
144
1040
1
1002
}
  0
INSERT
  5
166
100
AcDbEntity
100
AcDbBlockReference
  8
0
 62
256
370
-1
  6
BYLAYER
  2
body_top
 10
284.5151724426988267
 20
141.1249999999999716
 30
0.0
  0
INSERT
  5
167
100
AcDbEntity
100
AcDbBlockReference
  8
0
 62
256
370
-1
  6
BYLAYER
  2
coxa
 10
307.0151724426989972
 20
180.0961431702995981
 30
0.0
 50
-6.2000000000000002
  0
LINE
  5
168
100
AcDbEntity
100
AcDbLine
  8
0
 62
256
370
-1
  6
BYLAYER
 10
307.0151724426989972
 20
180.0961431702995981
 30
0.0
 11
367.6113139405033508
 21
262.8902711962537069
 31
0.0
  0
INSERT
  5
169
100
AcDbEntity
100
AcDbBlockReference
  8
0
 62
256
370
-1
  6
BYLAYER
  2
femur_tibia
 10
478.9605345685654356
 20
193.6888372911016347
 30
0.0
 50
176.4000000000000057
  0
LINE
  5
16A
100
AcDbEntity
100
AcDbLine
  8
0
 62
256
370
70
  6
BYLAYER
 10
400.0
 20
127.1196476816878942
 30
0.0
 11
540.0
 21
127.1196476816878942
 31
0.0
  0
MTEXT
  5
16B
100
AcDbEntity
100
AcDbMText
  8
0
 62
256
370
-1
  6
BYLAYER
 10
390.1679487321598572
 20
215.1983261219176029
 30
0.0
 40
8.0
 41
0.0
 71
1
 72
1
  1
\H5.14286;x,y,z = 84, 122, 10 (front right)
  7
textstyle7
 50
0.0
 73
2
 44
1.0
  0
LINE
  5
16C
100
AcDbEntity
100
AcDbLine
  8
0
 62
256
370
-1
  6
DASHED
 10
410.0
 20
177.1196476816878942
 30
0.0
 11
410.0
 21
127.1196476816878942
 31
0.0
  0
INSERT
  5
16D
100
AcDbEntity
100
AcDbBlockReference
  8
0
 62
256
370
-1
  6
BYLAYER
  2
femur_vertical
 10
425.0
 20
177.1196476816880079
 30
0.0
 50
360.0
  0
INSERT
  5
16E
100
AcDbEntity
100
AcDbBlockReference
  8
0
 62
256
370
-1
  6
BYLAYER
  2
tibia
 10
498.9210691371308712
 20
192.4330269005153866
 30
0.0
 50
373.8000000000000682
  0
INSERT
  5
16F
100
AcDbEntity
100
AcDbBlockReference
  8
0
 62
256
370
-1
  6
BYLAYER
  2
tibia
 10
199.0
 20
385.8691062885736187
 30
0.0
 50
360.0000000000000568
  0
INSERT
  5
170
100
AcDbEntity
100
AcDbBlockReference
  8
0
 62
256
370
-1
  6
BYLAYER
  2
femur_tibia
 10
179.0
 20
385.8691062885736756
 30
0.0
 50
180.0000000000000284
  0
LINE
  5
171
100
AcDbEntity
100
AcDbLine
  8
0
 62
256
370
-1
  6
DASHED
 10
110.0
 20
368.0441062885736301
 30
0.0
 11
110.0
 21
318.0441062885736301
 31
0.0
  0
LINE
  5
172
100
AcDbEntity
100
AcDbLine
  8
0
 62
256
370
70
  6
BYLAYER
 10
100.0
 20
318.0441062885736301
 30
0.0
 11
240.0
 21
318.0441062885736301
 31
0.0
  0
DIMENSION
  5
173
100
AcDbEntity
  8
0
 62
256
370
-1
  6
BYLAYER
100
AcDbDimension
 10
225.0586080553957231
 20
310.4228520368551472
 30
0.0
 11
167.5300175604654669
 21
312.2768727079028963
 31
0.0
 70
1
 71
8
 72
2
 41
1.0
 42
0.0
  1

  3
Standard
100
AcDbAlignedDimension
 13
225.0558134446937402
 23
318.0860646971209462
 33
0.0
 14
109.9999999999999858
 24
318.0441062885737438
 34
0.0
1001
ACAD
1000
DSTYLE
1002
{
1070
144
1040
1
1002
}
  0
MTEXT
  5
174
100
AcDbEntity
100
AcDbMText
  8
0
 62
256
370
-1
  6
BYLAYER
 10
110.0000000000000142
 20
388.0441062885736301
 30
0.0
 40
8.0
 41
0.0
 71
1
 72
1
  1
\H5.14286;160mm
  7
textstyle8
 50
0.0
 73
2
 44
1.0
  0
INSERT
  5
175
100
AcDbEntity
100
AcDbBlockReference
  8
0
 62
256
370
-1
  6
BYLAYER
  2
femur_vertical
 10
125.0
 20
368.0441062885737438
 30
0.0
 50
360.0
  0
DIMENSION
  5
176
100
AcDbEntity
  8
0
 62
256
370
-1
  6
BYLAYER
100
AcDbDimension
 10
377.4859217823506583
 20
141.1249999999999716
 30
0.0
 11
375.6109217823506015
 21
202.0076355981268534
 31
0.0
 70
1
 71
8
 72
2
 41
1.0
 42
0.0
  1

  3
Standard
100
AcDbAlignedDimension
 13
367.6113139405034076
 23
141.1249999999999716
 33
0.0
 14
367.6113139405033508
 24
262.8902711962537069
 34
0.0
1001
ACAD
1000
DSTYLE
1002
{
1070
144
1040
1
1002
}
  0
DIMENSION
  5
177
100
AcDbEntity
  8
0
 62
256
370
-1
  6
BYLAYER
100
AcDbDimension
 10
367.6113139405034076
 20
131.1249999999999716
 30
0.0
 11
326.0632431916011456
 21
132.9999999999999716
 31
0.0
 70
1
 71
8
 72
2
 41
1.0
 42
0.0
  1

  3
Standard
100
AcDbAlignedDimension
 13
367.6113139405034076
 23
141.1249999999999716
 33
0.0
 14
284.5151724426988267
 24
141.1249999999999716
 34
0.0
1001
ACAD
1000
DSTYLE
1002
{
1070
144
1040
1
1002
}
  0
ENDSEC
  0
SECTION
  2
OBJECTS
  0
DICTIONARY
  5
C
100
AcDbDictionary
280
0
281
1
  3
ACAD_GROUP
350
D
  3
ACAD_LAYOUT
350
1A
  3
ACAD_MLINESTYLE
350
17
  3
ACAD_PLOTSETTINGS
350
19
  3
ACAD_PLOTSTYLENAME
350
E
  3
AcDbVariableDictionary
350
178
  3
QCAD_OBJECTS
350
179
  0
DICTIONARY
  5
D
100
AcDbDictionary
280
0
281
1
  0
ACDBDICTIONARYWDFLT
  5
E
100
AcDbDictionary
281
1
  3
Normal
350
F
100
AcDbDictionaryWithDefault
340
F
  0
ACDBPLACEHOLDER
  5
F
  0
DICTIONARY
  5
17
100
AcDbDictionary
280
0
281
1
  3
Standard
350
18
  0
MLINESTYLE
  5
18
100
AcDbMlineStyle
  2
STANDARD
 70
0
  3

 62
256
 51
90.0
 52
90.0
 71
2
 49
0.5
 62
256
  6
BYLAYER
 49
-0.5
 62
256
  6
BYLAYER
  0
DICTIONARY
  5
19
100
AcDbDictionary
280
0
281
1
  0
DICTIONARY
  5
1A
100
AcDbDictionary
281
1
  3
Layout1
350
1E
  3
Layout2
350
26
  3
Model
350
22
  0
LAYOUT
  5
1E
100
AcDbPlotSettings
  1

  2
none_device
  4

  6

 40
0.0
 41
0.0
 42
0.0
 43
0.0
 44
0.0
 45
0.0
 46
0.0
 47
0.0
 48
0.0
 49
0.0
140
0.0
141
0.0
142
1.0
143
1.0
 70
688
 72
0
 73
0
 74
5
  7

 75
16
147
1.0
148
0.0
149
0.0
100
AcDbLayout
  1
Layout1
 70
1
 71
1
 10
0.0
 20
0.0
 11
420.0
 21
297.0
 12
0.0
 22
0.0
 32
0.0
 14
100000000000000000000.0
 24
100000000000000000000.0
 34
100000000000000000000.0
 15
-100000000000000000000.0
 25
-100000000000000000000.0
 35
-100000000000000000000.0
146
0.0
 13
0.0
 23
0.0
 33
0.0
 16
1.0
 26
0.0
 36
0.0
 17
0.0
 27
1.0
 37
0.0
 76
0
330
1B
  0
LAYOUT
  5
22
100
AcDbPlotSettings
  1

  2
none_device
  4

  6

 40
0.0
 41
0.0
 42
0.0
 43
0.0
 44
0.0
 45
0.0
 46
0.0
 47
0.0
 48
0.0
 49
0.0
140
0.0
141
0.0
142
1.0
143
1.0
 70
1712
 72
0
 73
0
 74
0
  7

 75
0
147
1.0
148
0.0
149
0.0
100
AcDbLayout
  1
Model
 70
1
 71
0
 10
0.0
 20
0.0
 11
12.0
 21
9.0
 12
0.0
 22
0.0
 32
0.0
 14
0.0
 24
0.0
 34
0.0
 15
0.0
 25
0.0
 35
0.0
146
0.0
 13
0.0
 23
0.0
 33
0.0
 16
1.0
 26
0.0
 36
0.0
 17
0.0
 27
1.0
 37
0.0
 76
0
330
1F
  0
LAYOUT
  5
26
100
AcDbPlotSettings
  1

  2
none_device
  4

  6

 40
0.0
 41
0.0
 42
0.0
 43
0.0
 44
0.0
 45
0.0
 46
0.0
 47
0.0
 48
0.0
 49
0.0
140
0.0
141
0.0
142
1.0
143
1.0
 70
688
 72
0
 73
0
 74
5
  7

 75
16
147
1.0
148
0.0
149
0.0
100
AcDbLayout
  1
Layout2
 70
1
 71
2
 10
0.0
 20
0.0
 11
12.0
 21
9.0
 12
0.0
 22
0.0
 32
0.0
 14
0.0
 24
0.0
 34
0.0
 15
0.0
 25
0.0
 35
0.0
146
0.0
 13
0.0
 23
0.0
 33
0.0
 16
1.0
 26
0.0
 36
0.0
 17
0.0
 27
1.0
 37
0.0
 76
0
330
23
  0
DICTIONARY
  5
178
100
AcDbDictionary
281
1
  3
DIMASSOC
350
17B
  3
HIDETEXT
350
17A
  0
DICTIONARYVAR
  5
17A
100
DictionaryVariables
280
0
  1
2
  0
DICTIONARYVAR
  5
17B
100
DictionaryVariables
280
0
  1
1
  0
DICTIONARY
  5
179
100
AcDbDictionary
281
1
  3
Grid/DisplayGrid00
350
17C
  3
Grid/DisplayGrid01
350
17D
  3
Grid/DisplayGrid02
350
17E
  3
Grid/DisplayGrid03
350
17F
  3
Grid/GridSpacingX00
350
180
  3
Grid/GridSpacingX01
350
181
  3
Grid/GridSpacingX02
350
182
  3
Grid/GridSpacingX03
350
183
  3
Grid/GridSpacingY00
350
184
  3
Grid/GridSpacingY01
350
185
  3
Grid/GridSpacingY02
350
186
  3
Grid/GridSpacingY03
350
187
  3
Grid/IsometricGrid00
350
188
  3
Grid/IsometricGrid01
350
189
  3
Grid/IsometricGrid02
350
18A
  3
Grid/IsometricGrid03
350
18B
  3
Grid/IsometricProjection00
350
18C
  3
Grid/IsometricProjection01
350
18D
  3
Grid/IsometricProjection02
350
18E
  3
Grid/IsometricProjection03
350
18F
  3
Grid/MetaGridSpacingX00
350
190
  3
Grid/MetaGridSpacingX01
350
191
  3
Grid/MetaGridSpacingX02
350
192
  3
Grid/MetaGridSpacingX03
350
193
  3
Grid/MetaGridSpacingY00
350
194
  3
Grid/MetaGridSpacingY01
350
195
  3
Grid/MetaGridSpacingY02
350
196
  3
Grid/MetaGridSpacingY03
350
197
  3
MultiPageSettings/Columns
350
198
  3
MultiPageSettings/GlueMarginsBottom
350
199
  3
MultiPageSettings/GlueMarginsLeft
350
19A
  3
MultiPageSettings/GlueMarginsRight
350
19B
  3
MultiPageSettings/GlueMarginsTop
350
19C
  3
MultiPageSettings/PrintCropMarks
350
19D
  3
MultiPageSettings/Rows
350
19E
  3
PageSettings/OffsetX
350
19F
  3
PageSettings/OffsetY
350
1A0
  3
PageSettings/PageOrientation
350
1A1
  3
PageSettings/PaperHeight
350
1A2
  3
PageSettings/PaperWidth
350
1A3
  3
PageSettings/Scale
350
1A4
  3
PageSettings/ShowPaperBorders
350
1A5
  3
UnitSettings/PaperUnit
350
1A6
  0
XRECORD
  5
17C
330
179
100
AcDbXrecord
280
1
290
1
  0
XRECORD
  5
17D
330
179
100
AcDbXrecord
280
1
290
1
  0
XRECORD
  5
17E
330
179
100
AcDbXrecord
280
1
290
1
  0
XRECORD
  5
17F
330
179
100
AcDbXrecord
280
1
290
1
  0
XRECORD
  5
180
330
179
100
AcDbXrecord
280
1
1000
auto
  0
XRECORD
  5
181
330
179
100
AcDbXrecord
280
1
1000
auto
  0
XRECORD
  5
182
330
179
100
AcDbXrecord
280
1
1000
auto
  0
XRECORD
  5
183
330
179
100
AcDbXrecord
280
1
1000
auto
  0
XRECORD
  5
184
330
179
100
AcDbXrecord
280
1
1000
auto
  0
XRECORD
  5
185
330
179
100
AcDbXrecord
280
1
1000
auto
  0
XRECORD
  5
186
330
179
100
AcDbXrecord
280
1
1000
auto
  0
XRECORD
  5
187
330
179
100
AcDbXrecord
280
1
1000
auto
  0
XRECORD
  5
188
330
179
100
AcDbXrecord
280
1
290
0
  0
XRECORD
  5
189
330
179
100
AcDbXrecord
280
1
290
0
  0
XRECORD
  5
18A
330
179
100
AcDbXrecord
280
1
290
0
  0
XRECORD
  5
18B
330
179
100
AcDbXrecord
280
1
290
0
  0
XRECORD
  5
18C
330
179
100
AcDbXrecord
280
1
 90
0
  0
XRECORD
  5
18D
330
179
100
AcDbXrecord
280
1
 90
0
  0
XRECORD
  5
18E
330
179
100
AcDbXrecord
280
1
 90
0
  0
XRECORD
  5
18F
330
179
100
AcDbXrecord
280
1
 90
0
  0
XRECORD
  5
190
330
179
100
AcDbXrecord
280
1
1000
auto
  0
XRECORD
  5
191
330
179
100
AcDbXrecord
280
1
1000
auto
  0
XRECORD
  5
192
330
179
100
AcDbXrecord
280
1
1000
auto
  0
XRECORD
  5
193
330
179
100
AcDbXrecord
280
1
1000
auto
  0
XRECORD
  5
194
330
179
100
AcDbXrecord
280
1
1000
auto
  0
XRECORD
  5
195
330
179
100
AcDbXrecord
280
1
1000
auto
  0
XRECORD
  5
196
330
179
100
AcDbXrecord
280
1
1000
auto
  0
XRECORD
  5
197
330
179
100
AcDbXrecord
280
1
1000
auto
  0
XRECORD
  5
198
330
179
100
AcDbXrecord
280
1
 90
1
  0
XRECORD
  5
199
330
179
100
AcDbXrecord
280
1
 40
10.0
  0
XRECORD
  5
19A
330
179
100
AcDbXrecord
280
1
 40
10.0
  0
XRECORD
  5
19B
330
179
100
AcDbXrecord
280
1
 40
10.0
  0
XRECORD
  5
19C
330
179
100
AcDbXrecord
280
1
 40
10.0
  0
XRECORD
  5
19D
330
179
100
AcDbXrecord
280
1
290
0
  0
XRECORD
  5
19E
330
179
100
AcDbXrecord
280
1
 90
1
  0
XRECORD
  5
19F
330
179
100
AcDbXrecord
280
1
 40
0.0
  0
XRECORD
  5
1A0
330
179
100
AcDbXrecord
280
1
 40
0.0
  0
XRECORD
  5
1A1
330
179
100
AcDbXrecord
280
1
1000
Portrait
  0
XRECORD
  5
1A2
330
179
100
AcDbXrecord
280
1
 40
279.3999999999999773
  0
XRECORD
  5
1A3
330
179
100
AcDbXrecord
280
1
 40
215.9000000000000057
  0
XRECORD
  5
1A4
330
179
100
AcDbXrecord
280
1
1000
1:1
  0
XRECORD
  5
1A5
330
179
100
AcDbXrecord
280
1
290
1
  0
XRECORD
  5
1A6
330
179
100
AcDbXrecord
280
1
 90
4
  0
ENDSEC
  0
EOF
