999
dxflib 3.3.4.0
  0
SECTION
  2
HEADER
  9
$ACADVER
  1
AC1015
  9
$HANDSEED
  5
FFFF
  9
$DIMADEC
 70
0
  9
$DIMASZ
 40
2.5
  9
$DIMAUNIT
 70
0
  9
$DIMAZIN
 70
2
  9
$DIMDEC
 70
4
  9
$DIMEXE
 40
1.25
  9
$DIMEXO
 40
0.625
  9
$DIMGAP
 40
0.625
  9
$DIMLUNIT
 70
2
  9
$DIMTSZ
 40
0.0
  9
$DIMTXT
 40
2.5
  9
$DIMZIN
 70
8
  9
$DWGCODEPAGE
  3
ANSI_1252
  9
$INSUNITS
 70
4
  9
$LTSCALE
 40
1.0
  0
ENDSEC
  0
SECTION
  2
TABLES
  0
TABLE
  2
VPORT
  5
8
100
AcDbSymbolTable
 70
1
  0
VPORT
  5
30
100
AcDbSymbolTableRecord
100
AcDbViewportTableRecord
  2
*Active
 70
0
 10
0.0
 20
0.0
 11
1.0
 21
1.0
 12
286.3055555555554861
 22
148.5
 13
0.0
 23
0.0
 14
10.0
 24
10.0
 15
10.0
 25
10.0
 16
0.0
 26
0.0
 36
1.0
 17
0.0
 27
0.0
 37
0.0
 40
297.0
 41
1.92798353909465
 42
50.0
 43
0.0
 44
0.0
 50
0.0
 51
0.0
 71
0
 72
100
 73
1
 74
3
 75
1
 76
1
 77
0
 78
0
281
0
 65
1
110
0.0
120
0.0
130
0.0
111
1.0
121
0.0
131
0.0
112
0.0
122
1.0
132
0.0
 79
0
146
0.0
  0
ENDTAB
  0
TABLE
  2
LTYPE
  5
5
100
AcDbSymbolTable
 70
21
  0
LTYPE
  5
16
100
AcDbSymbolTableRecord
100
AcDbLinetypeTableRecord
  2
CONTINUOUS
 70
0
  3
Solid line
 72
65
 73
0
 40
0.0
  0
LTYPE
  5
31
100
AcDbSymbolTableRecord
100
AcDbLinetypeTableRecord
  2
CENTER2
 70
0
  3
Center (.5x) ___ _ ___ _ ___ _ ___ _ ___ _ ___
 72
65
 73
4
 40
28.5749999999999993
 49
19.0500000000000007
 74
0
 49
-3.1749999999999998
 74
0
 49
3.1749999999999998
 74
0
 49
-3.1749999999999998
 74
0
  0
LTYPE
  5
32
100
AcDbSymbolTableRecord
100
AcDbLinetypeTableRecord
  2
DIVIDEX2
 70
0
  3
Divide (2x) ________  .  .  ________  .  .  _
 72
65
 73
6
 40
63.5
 49
25.3999999999999986
 74
0
 49
-12.6999999999999993
 74
0
 49
0.0
 74
0
 49
-12.6999999999999993
 74
0
 49
0.0
 74
0
 49
-12.6999999999999993
 74
0
  0
LTYPE
  5
33
100
AcDbSymbolTableRecord
100
AcDbLinetypeTableRecord
  2
DOT2
 70
0
  3
Dot (.5x) .....................................
 72
65
 73
2
 40
3.1749999999999998
 49
0.0
 74
0
 49
-3.1749999999999998
 74
0
  0
LTYPE
  5
34
100
AcDbSymbolTableRecord
100
AcDbLinetypeTableRecord
  2
DASHDOT2
 70
0
  3
Dash dot (.5x) _._._._._._._._._._._._._._._.
 72
65
 73
4
 40
12.6999999999999993
 49
6.3499999999999996
 74
0
 49
-3.1749999999999998
 74
0
 49
0.0
 74
0
 49
-3.1749999999999998
 74
0
  0
LTYPE
  5
35
100
AcDbSymbolTableRecord
100
AcDbLinetypeTableRecord
  2
DIVIDE
 70
0
  3
Divide ____ . . ____ . . ____ . . ____ . . ____
 72
65
 73
6
 40
31.75
 49
12.6999999999999993
 74
0
 49
-6.3499999999999996
 74
0
 49
0.0
 74
0
 49
-6.3499999999999996
 74
0
 49
0.0
 74
0
 49
-6.3499999999999996
 74
0
  0
LTYPE
  5
36
100
AcDbSymbolTableRecord
100
AcDbLinetypeTableRecord
  2
DASHDOT
 70
0
  3
Dash dot __ . __ . __ . __ . __ . __ . __ . __
 72
65
 73
4
 40
25.3999999999999986
 49
12.6999999999999993
 74
0
 49
-6.3499999999999996
 74
0
 49
0.0
 74
0
 49
-6.3499999999999996
 74
0
  0
LTYPE
  5
37
100
AcDbSymbolTableRecord
100
AcDbLinetypeTableRecord
  2
BORDER
 70
0
  3
Border __ __ . __ __ . __ __ . __ __ . __ __ .
 72
65
 73
6
 40
44.4500000000000028
 49
12.6999999999999993
 74
0
 49
-6.3499999999999996
 74
0
 49
12.6999999999999993
 74
0
 49
-6.3499999999999996
 74
0
 49
0.0
 74
0
 49
-6.3499999999999996
 74
0
  0
LTYPE
  5
38
100
AcDbSymbolTableRecord
100
AcDbLinetypeTableRecord
  2
DASHDOTX2
 70
0
  3
Dash dot (2x) ____  .  ____  .  ____  .  ___
 72
65
 73
4
 40
50.7999999999999972
 49
25.3999999999999986
 74
0
 49
-12.6999999999999993
 74
0
 49
0.0
 74
0
 49
-12.6999999999999993
 74
0
  0
LTYPE
  5
39
100
AcDbSymbolTableRecord
100
AcDbLinetypeTableRecord
  2
CENTERX2
 70
0
  3
Center (2x) ________  __  ________  __  _____
 72
65
 73
4
 40
101.5999999999999943
 49
63.5
 74
0
 49
-12.6999999999999993
 74
0
 49
12.6999999999999993
 74
0
 49
-12.6999999999999993
 74
0
  0
LTYPE
  5
3A
100
AcDbSymbolTableRecord
100
AcDbLinetypeTableRecord
  2
BORDER2
 70
0
  3
Border (.5x) __.__.__.__.__.__.__.__.__.__.__.
 72
65
 73
6
 40
22.2250000000000014
 49
6.3499999999999996
 74
0
 49
-3.1749999999999998
 74
0
 49
6.3499999999999996
 74
0
 49
-3.1749999999999998
 74
0
 49
0.0
 74
0
 49
-3.1749999999999998
 74
0
  0
LTYPE
  5
3B
100
AcDbSymbolTableRecord
100
AcDbLinetypeTableRecord
  2
BORDERX2
 70
0
  3
Border (2x) ____  ____  .  ____  ____  .  ___
 72
65
 73
6
 40
88.9000000000000057
 49
25.3999999999999986
 74
0
 49
-12.6999999999999993
 74
0
 49
25.3999999999999986
 74
0
 49
-12.6999999999999993
 74
0
 49
0.0
 74
0
 49
-12.6999999999999993
 74
0
  0
LTYPE
  5
14
100
AcDbSymbolTableRecord
100
AcDbLinetypeTableRecord
  2
BYBLOCK
 70
0
  3

 72
65
 73
0
 40
0.0
  0
LTYPE
  5
15
100
AcDbSymbolTableRecord
100
AcDbLinetypeTableRecord
  2
BYLAYER
 70
0
  3

 72
65
 73
0
 40
0.0
  0
LTYPE
  5
3C
100
AcDbSymbolTableRecord
100
AcDbLinetypeTableRecord
  2
DASHED2
 70
0
  3
Dashed (.5x) _ _ _ _ _ _ _ _ _ _ _ _ _ _ _ _ _
 72
65
 73
2
 40
9.5250000000000004
 49
6.3499999999999996
 74
0
 49
-3.1749999999999998
 74
0
  0
LTYPE
  5
3D
100
AcDbSymbolTableRecord
100
AcDbLinetypeTableRecord
  2
CENTER
 70
0
  3
Center ____ _ ____ _ ____ _ ____ _ ____ _ ____
 72
65
 73
4
 40
50.7999999999999972
 49
31.75
 74
0
 49
-6.3499999999999996
 74
0
 49
6.3499999999999996
 74
0
 49
-6.3499999999999996
 74
0
  0
LTYPE
  5
3E
100
AcDbSymbolTableRecord
100
AcDbLinetypeTableRecord
  2
DIVIDE2
 70
0
  3
Divide (.5x) __..__..__..__..__..__..__..__.._
 72
65
 73
6
 40
15.875
 49
6.3499999999999996
 74
0
 49
-3.1749999999999998
 74
0
 49
0.0
 74
0
 49
-3.1749999999999998
 74
0
 49
0.0
 74
0
 49
-3.1749999999999998
 74
0
  0
LTYPE
  5
3F
100
AcDbSymbolTableRecord
100
AcDbLinetypeTableRecord
  2
DASHED
 70
0
  3
Dashed __ __ __ __ __ __ __ __ __ __ __ __ __ _
 72
65
 73
2
 40
19.0500000000000007
 49
12.6999999999999993
 74
0
 49
-6.3499999999999996
 74
0
  0
LTYPE
  5
40
100
AcDbSymbolTableRecord
100
AcDbLinetypeTableRecord
  2
DOTX2
 70
0
  3
Dot (2x) .  .  .  .  .  .  .  .  .  .  .  .  .
 72
65
 73
2
 40
12.6999999999999993
 49
0.0
 74
0
 49
-12.6999999999999993
 74
0
  0
LTYPE
  5
41
100
AcDbSymbolTableRecord
100
AcDbLinetypeTableRecord
  2
DASHEDX2
 70
0
  3
Dashed (2x) ____  ____  ____  ____  ____  ___
 72
65
 73
2
 40
38.1000000000000014
 49
25.3999999999999986
 74
0
 49
-12.6999999999999993
 74
0
  0
LTYPE
  5
42
100
AcDbSymbolTableRecord
100
AcDbLinetypeTableRecord
  2
DOT
 70
0
  3
Dot . . . . . . . . . . . . . . . . . . . . . .
 72
65
 73
2
 40
6.3499999999999996
 49
0.0
 74
0
 49
-6.3499999999999996
 74
0
  0
ENDTAB
  0
TABLE
  2
LAYER
  5
2
100
AcDbSymbolTable
 70
1
  0
LAYER
  5
10
100
AcDbSymbolTableRecord
100
AcDbLayerTableRecord
  2
0
 70
0
 62
7
420
0
  6
CONTINUOUS
370
25
390
F
  0
ENDTAB
  0
TABLE
  2
STYLE
  5
3
100
AcDbSymbolTable
 70
8
  0
STYLE
  5
43
100
AcDbSymbolTableRecord
100
AcDbTextStyleTableRecord
  2
Standard
 70
0
 40
0.0
 41
1.0
 50
0.0
 71
0
 42
2.5
  3

  4

1001
ACAD
1000
txt
1071
0
  0
STYLE
  5
44
100
AcDbSymbolTableRecord
100
AcDbTextStyleTableRecord
  2
textstyle0
 70
0
 40
0.0
 41
1.0
 50
0.0
 71
0
 42
8.0
  3

  4

1001
ACAD
1000
Arial
1071
0
  0
STYLE
  5
45
100
AcDbSymbolTableRecord
100
AcDbTextStyleTableRecord
  2
textstyle1
 70
0
 40
0.0
 41
1.0
 50
0.0
 71
0
 42
8.0
  3

  4

1001
ACAD
1000
Arial
1071
0
  0
STYLE
  5
46
100
AcDbSymbolTableRecord
100
AcDbTextStyleTableRecord
  2
textstyle2
 70
0
 40
0.0
 41
1.0
 50
0.0
 71
0
 42
8.0
  3

  4

1001
ACAD
1000
Arial
1071
0
  0
STYLE
  5
47
100
AcDbSymbolTableRecord
100
AcDbTextStyleTableRecord
  2
textstyle3
 70
0
 40
0.0
 41
1.0
 50
0.0
 71
0
 42
8.0
  3

  4

1001
ACAD
1000
Arial
1071
0
  0
STYLE
  5
48
100
AcDbSymbolTableRecord
100
AcDbTextStyleTableRecord
  2
textstyle4
 70
0
 40
0.0
 41
1.0
 50
0.0
 71
0
 42
8.0
  3

  4

1001
ACAD
1000
Arial
1071
0
  0
STYLE
  5
49
100
AcDbSymbolTableRecord
100
AcDbTextStyleTableRecord
  2
textstyle5
 70
0
 40
0.0
 41
1.0
 50
0.0
 71
0
 42
8.0
  3

  4

1001
ACAD
1000
Arial
1071
0
  0
STYLE
  5
4A
100
AcDbSymbolTableRecord
100
AcDbTextStyleTableRecord
  2
textstyle6
 70
0
 40
0.0
 41
1.0
 50
0.0
 71
0
 42
8.0
  3

  4

1001
ACAD
1000
Arial
1071
0
  0
ENDTAB
  0
TABLE
  2
VIEW
  5
6
100
AcDbSymbolTable
 70
0
  0
ENDTAB
  0
TABLE
  2
UCS
  5
7
100
AcDbSymbolTable
 70
0
  0
ENDTAB
  0
TABLE
  2
APPID
  5
9
100
AcDbSymbolTable
 70
1
  0
APPID
  5
12
100
AcDbSymbolTableRecord
100
AcDbRegAppTableRecord
  2
ACAD
 70
0
  0
APPID
  5
4B
100
AcDbSymbolTableRecord
100
AcDbRegAppTableRecord
  2
QCAD
 70
0
  0
ENDTAB
  0
TABLE
  2
DIMSTYLE
  5
A
100
AcDbSymbolTable
 70
1
100
AcDbDimStyleTable
 71
0
  0
DIMSTYLE
105
27
100
AcDbSymbolTableRecord
100
AcDbDimStyleTableRecord
  2
Standard
 41
2.5
 42
0.625
 43
3.75
 44
1.25
 70
0
 73
0
 74
0
 77
1
 78
8
140
2.5
141
2.5
143
0.03937007874016
147
0.625
171
3
172
1
271
2
272
2
274
3
278
44
283
0
284
8
340
43
  0
ENDTAB
  0
TABLE
  2
BLOCK_RECORD
  5
1
100
AcDbSymbolTable
 70
1
  0
BLOCK_RECORD
  5
1F
100
AcDbSymbolTableRecord
100
AcDbBlockTableRecord
  2
*Model_Space
340
22
  0
BLOCK_RECORD
  5
1B
100
AcDbSymbolTableRecord
100
AcDbBlockTableRecord
  2
*Paper_Space
340
1E
  0
BLOCK_RECORD
  5
23
100
AcDbSymbolTableRecord
100
AcDbBlockTableRecord
  2
*Paper_Space0
340
26
  0
BLOCK_RECORD
  5
4C
100
AcDbSymbolTableRecord
100
AcDbBlockTableRecord
  2
femur_tibia
340
0
  0
BLOCK_RECORD
  5
4D
100
AcDbSymbolTableRecord
100
AcDbBlockTableRecord
  2
femur_vertical
340
0
  0
BLOCK_RECORD
  5
4E
100
AcDbSymbolTableRecord
100
AcDbBlockTableRecord
  2
servo_mount
340
0
  0
BLOCK_RECORD
  5
4F
100
AcDbSymbolTableRecord
100
AcDbBlockTableRecord
  2
tibia
340
0
  0
ENDTAB
  0
ENDSEC
  0
SECTION
  2
BLOCKS
  0
BLOCK
  5
20
100
AcDbEntity
  8
0
100
AcDbBlockBegin
  2
*Model_Space
 70
0
 10
0.0
 20
0.0
 30
0.0
  3
*Model_Space
  1

  0
ENDBLK
  5
21
100
AcDbEntity
  8
0
100
AcDbBlockEnd
  0
BLOCK
  5
1C
100
AcDbEntity
 67
1
  8
0
100
AcDbBlockBegin
  2
*Paper_Space
 70
0
 10
0.0
 20
0.0
 30
0.0
  3
*Paper_Space
  1

  0
ENDBLK
  5
1D
100
AcDbEntity
 67
1
  8
0
100
AcDbBlockEnd
  0
BLOCK
  5
24
100
AcDbEntity
  8
0
100
AcDbBlockBegin
  2
*Paper_Space0
 70
0
 10
0.0
 20
0.0
 30
0.0
  3
*Paper_Space0
  1

  0
ENDBLK
  5
25
100
AcDbEntity
  8
0
100
AcDbBlockEnd
  0
BLOCK
  5
50
100
AcDbEntity
  8
0
100
AcDbBlockBegin
  2
femur_tibia
 70
0
 10
0.0
 20
0.0
 30
0.0
  3
femur_tibia
  1

  0
LINE
  5
51
100
AcDbEntity
100
AcDbLine
  8
0
 62
256
370
-1
  6
BYLAYER
 10
25.0
 20
5.0
 30
0.0
 11
25.0
 21
-5.0
 31
0.0
  0
CIRCLE
  5
52
100
AcDbEntity
100
AcDbCircle
  8
0
 62
256
370
-1
  6
BYLAYER
 10
-20.0000000000000036
 20
0.0
 30
0.0
 40
1.0
  0
CIRCLE
  5
53
100
AcDbEntity
100
AcDbCircle
  8
0
 62
256
370
-1
  6
BYLAYER
 10
20.0000000000000036
 20
0.0
 30
0.0
 40
1.0
  0
DIMENSION
  5
54
100
AcDbEntity
  8
0
 62
256
370
-1
  6
BYLAYER
100
AcDbDimension
 10
-21.0000000000000036
 20
2.1550058548009474
 30
0.0
 11
-17.8783539381229453
 21
-2.6838989915815192
 31
0.0
 70
129
 71
8
 72
2
 41
1.0
 42
0.0
  1
9/64"
  3
Standard
100
AcDbAlignedDimension
 13
-21.0000000000000036
 23
0.0000000000000026
 33
0.0
 14
-19.0000000000000036
 24
0.0000000000000023
 34
0.0
1001
ACAD
1000
DSTYLE
1002
{
1070
144
1040
1
1002
}
  0
LINE
  5
55
100
AcDbEntity
100
AcDbLine
  8
0
 62
256
370
-1
  6
BYLAYER
 10
-25.0
 20
5.0
 30
0.0
 11
25.0
 21
5.0
 31
0.0
  0
LINE
  5
56
100
AcDbEntity
100
AcDbLine
  8
0
 62
256
370
-1
  6
BYLAYER
 10
25.0
 20
-5.0
 30
0.0
 11
-25.0
 21
-5.0
 31
0.0
  0
DIMENSION
  5
57
100
AcDbEntity
  8
0
 62
256
370
-1
  6
BYLAYER
100
AcDbDimension
 10
13.5000000000000036
 20
-2.0690704396689399
 30
0.0
 11
15.3561444646010781
 21
2.3340089716700976
 31
0.0
 70
129
 71
8
 72
2
 41
1.0
 42
0.0
  1
3/64"
  3
Standard
100
AcDbAlignedDimension
 13
13.5000000000000036
 23
0.0
 33
0.0
 14
14.5000000000000036
 24
0.0
 34
0.0
1001
ACAD
1000
DSTYLE
1002
{
1070
144
1040
1
1002
}
  0
LINE
  5
58
100
AcDbEntity
100
AcDbLine
  8
0
 62
256
370
-1
  6
BYLAYER
 10
25.0
 20
5.0
 30
0.0
 11
25.0
 21
-5.0
 31
0.0
  0
CIRCLE
  5
59
100
AcDbEntity
100
AcDbCircle
  8
0
 62
256
370
-1
  6
BYLAYER
 10
14.0000000000000036
 20
0.0
 30
0.0
 40
0.5
  0
CIRCLE
  5
5A
100
AcDbEntity
100
AcDbCircle
  8
0
 62
256
370
-1
  6
BYLAYER
 10
-20.0000000000000036
 20
0.0
 30
0.0
 40
1.0
  0
CIRCLE
  5
5B
100
AcDbEntity
100
AcDbCircle
  8
0
 62
256
370
-1
  6
BYLAYER
 10
-14.0000000000000036
 20
0.0
 30
0.0
 40
0.5
  0
CIRCLE
  5
5C
100
AcDbEntity
100
AcDbCircle
  8
0
 62
256
370
-1
  6
BYLAYER
 10
20.0000000000000036
 20
0.0
 30
0.0
 40
1.0
  0
DIMENSION
  5
5D
100
AcDbEntity
  8
0
 62
256
370
-1
  6
BYLAYER
100
AcDbDimension
 10
-21.0000000000000036
 20
2.1550058548009474
 30
0.0
 11
-17.8783539381229453
 21
-2.6838989915815192
 31
0.0
 70
129
 71
8
 72
2
 41
1.0
 42
0.0
  1
9/64"
  3
Standard
100
AcDbAlignedDimension
 13
-21.0000000000000036
 23
0.0000000000000026
 33
0.0
 14
-19.0000000000000036
 24
0.0000000000000023
 34
0.0
1001
ACAD
1000
DSTYLE
1002
{
1070
144
1040
1
1002
}
  0
LINE
  5
5E
100
AcDbEntity
100
AcDbLine
  8
0
 62
256
370
-1
  6
BYLAYER
 10
-25.0
 20
-5.0
 30
0.0
 11
-25.0
 21
5.0
 31
0.0
  0
LINE
  5
5F
100
AcDbEntity
100
AcDbLine
  8
0
 62
256
370
-1
  6
BYLAYER
 10
-25.0
 20
5.0
 30
0.0
 11
25.0
 21
5.0
 31
0.0
  0
LINE
  5
60
100
AcDbEntity
100
AcDbLine
  8
0
 62
256
370
-1
  6
BYLAYER
 10
25.0
 20
-5.0
 30
0.0
 11
-25.0
 21
-5.0
 31
0.0
  0
DIMENSION
  5
61
100
AcDbEntity
  8
0
 62
256
370
-1
  6
BYLAYER
100
AcDbDimension
 10
13.5000000000000036
 20
-2.0690704396689399
 30
0.0
 11
15.3561444646010781
 21
2.3340089716700976
 31
0.0
 70
129
 71
8
 72
2
 41
1.0
 42
0.0
  1
3/64"
  3
Standard
100
AcDbAlignedDimension
 13
13.5000000000000036
 23
0.0
 33
0.0
 14
14.5000000000000036
 24
0.0
 34
0.0
1001
ACAD
1000
DSTYLE
1002
{
1070
144
1040
1
1002
}
  0
CIRCLE
  5
62
100
AcDbEntity
100
AcDbCircle
  8
0
 62
256
370
-1
  6
BYLAYER
 10
14.0000000000000036
 20
0.0
 30
0.0
 40
0.5
  0
CIRCLE
  5
63
100
AcDbEntity
100
AcDbCircle
  8
0
 62
256
370
-1
  6
BYLAYER
 10
-14.0000000000000036
 20
0.0
 30
0.0
 40
0.5
  0
LINE
  5
64
100
AcDbEntity
100
AcDbLine
  8
0
 62
256
370
-1
  6
BYLAYER
 10
-25.0
 20
-5.0
 30
0.0
 11
-25.0
 21
5.0
 31
0.0
  0
ENDBLK
  5
65
100
AcDbEntity
  8
0
100
AcDbBlockEnd
  0
BLOCK
  5
66
100
AcDbEntity
  8
0
100
AcDbBlockBegin
  2
femur_vertical
 70
0
 10
0.0
 20
0.0
 30
0.0
  3
femur_vertical
  1

  0
ARC
  5
67
100
AcDbEntity
  8
0
 62
256
370
-1
  6
BYLAYER
100
AcDbCircle
 10
34.0
 20
17.8249999999999993
 30
0.0
 40
5.0
100
AcDbArc
 50
0.0
 51
90.0
  0
ARC
  5
68
100
AcDbEntity
  8
0
 62
256
370
-1
  6
BYLAYER
100
AcDbCircle
 10
34.0
 20
17.8249999999999993
 30
0.0
 40
5.0
100
AcDbArc
 50
270.0
 51
0.0
  0
ARC
  5
69
100
AcDbEntity
  8
0
 62
256
370
-1
  6
BYLAYER
100
AcDbCircle
 10
15.9999999999999982
 20
-12.5
 30
0.0
 40
5.0
100
AcDbArc
 50
180.0
 51
270.0
  0
LINE
  5
6A
100
AcDbEntity
100
AcDbLine
  8
0
 62
256
370
-1
  6
BYLAYER
 10
0.0
 20
-3.1749999999999998
 30
0.0
 11
-10.0
 21
-3.1749999999999998
 31
0.0
  0
LINE
  5
6B
100
AcDbEntity
100
AcDbLine
  8
0
 62
256
370
-1
  6
BYLAYER
 10
-0.0
 20
3.1749999999999998
 30
0.0
 11
-10.0
 21
3.1750000000000007
 31
0.0
  0
DIMENSION
  5
6C
100
AcDbEntity
  8
0
 62
256
370
-1
  6
BYLAYER
100
AcDbDimension
 10
35.5
 20
20.0729994958112563
 30
0.0
 11
24.0
 21
21.0000000000000071
 31
0.0
 70
129
 71
8
 72
2
 41
1.0
 42
0.0
  1
9/64"
  3
Standard
100
AcDbAlignedDimension
 13
35.5
 23
17.8249999999999957
 33
0.0
 14
32.5
 24
17.8249999999999922
 34
0.0
1001
ACAD
1000
DSTYLE
1002
{
1070
144
1040
1
1002
}
  0
CIRCLE
  5
6D
100
AcDbEntity
100
AcDbCircle
  8
0
 62
256
370
-1
  6
BYLAYER
 10
34.0
 20
17.8249999999999993
 30
0.0
 40
1.5
  0
ARC
  5
6E
100
AcDbEntity
  8
0
 62
256
370
-1
  6
BYLAYER
100
AcDbCircle
 10
6.0
 20
-12.5
 30
0.0
 40
5.0
100
AcDbArc
 50
0.0
 51
90.0
  0
ARC
  5
6F
100
AcDbEntity
  8
0
 62
256
370
-1
  6
BYLAYER
100
AcDbCircle
 10
6.0
 20
12.5
 30
0.0
 40
5.0
100
AcDbArc
 50
270.0
 51
0.0
  0
ARC
  5
70
100
AcDbEntity
  8
0
 62
256
370
-1
  6
BYLAYER
100
AcDbCircle
 10
-9.0
 20
6.5000000000000009
 30
0.0
 40
1.0
100
AcDbArc
 50
89.9999999999999005
 51
180.0
  0
ARC
  5
71
100
AcDbEntity
  8
0
 62
256
370
-1
  6
BYLAYER
100
AcDbCircle
 10
-9.0
 20
-6.4999999999999991
 30
0.0
 40
1.0
100
AcDbArc
 50
180.0
 51
270.0
  0
LINE
  5
72
100
AcDbEntity
100
AcDbLine
  8
0
 62
256
370
-1
  6
BYLAYER
 10
-9.0
 20
-7.5
 30
0.0
 11
6.0
 21
-7.5
 31
0.0
  0
ARC
  5
73
100
AcDbEntity
  8
0
 62
256
370
-1
  6
BYLAYER
100
AcDbCircle
 10
24.0
 20
-12.5
 30
0.0
 40
5.0
100
AcDbArc
 50
270.0
 51
0.0
  0
LINE
  5
74
100
AcDbEntity
100
AcDbLine
  8
0
 62
256
370
-1
  6
BYLAYER
 10
6.0
 20
7.5000000000000009
 30
0.0
 11
-8.9999999999999982
 21
7.5000000000000009
 31
0.0
  0
LINE
  5
75
100
AcDbEntity
100
AcDbLine
  8
0
 62
256
370
-1
  6
BYLAYER
 10
-10.0
 20
3.1749999999999998
 30
0.0
 11
-10.0
 21
6.5000000000000009
 31
0.0
  0
LINE
  5
76
100
AcDbEntity
100
AcDbLine
  8
0
 62
256
370
-1
  6
BYLAYER
 10
0.0
 20
-3.1749999999999998
 30
0.0
 11
-10.0
 21
-3.1749999999999998
 31
0.0
  0
LINE
  5
77
100
AcDbEntity
100
AcDbLine
  8
0
 62
256
370
-1
  6
BYLAYER
 10
-0.0
 20
3.1749999999999998
 30
0.0
 11
-10.0
 21
3.1750000000000007
 31
0.0
  0
DIMENSION
  5
78
100
AcDbEntity
  8
0
 62
256
370
-1
  6
BYLAYER
100
AcDbDimension
 10
35.5
 20
20.0729994958112563
 30
0.0
 11
24.0
 21
21.0000000000000071
 31
0.0
 70
129
 71
8
 72
2
 41
1.0
 42
0.0
  1
9/64"
  3
Standard
100
AcDbAlignedDimension
 13
35.5
 23
17.8249999999999957
 33
0.0
 14
32.5
 24
17.8249999999999922
 34
0.0
1001
ACAD
1000
DSTYLE
1002
{
1070
144
1040
1
1002
}
  0
CIRCLE
  5
79
100
AcDbEntity
100
AcDbCircle
  8
0
 62
256
370
-1
  6
BYLAYER
 10
34.0
 20
17.8249999999999993
 30
0.0
 40
1.5
  0
INSERT
  5
7A
100
AcDbEntity
100
AcDbBlockReference
  8
0
 62
256
370
-1
  6
BYLAYER
  2
servo_mount
 10
20.0
 20
-0.1749999999999998
 30
0.0
  0
LINE
  5
7B
100
AcDbEntity
100
AcDbLine
  8
0
 62
256
370
-1
  6
BYLAYER
 10
15.9999999999999982
 20
-17.5
 30
0.0
 11
24.0
 21
-17.5
 31
0.0
  0
LINE
  5
7C
100
AcDbEntity
100
AcDbLine
  8
0
 62
256
370
-1
  6
BYLAYER
 10
-10.0
 20
-3.1749999999999998
 30
0.0
 11
-10.0
 21
-6.4999999999999991
 31
0.0
  0
LINE
  5
7D
100
AcDbEntity
100
AcDbLine
  8
0
 62
256
370
-1
  6
BYLAYER
 10
29.0
 20
22.8249999999999993
 30
0.0
 11
16.0
 21
22.8249999999999993
 31
0.0
  0
INSERT
  5
7E
100
AcDbEntity
100
AcDbBlockReference
  8
0
 62
256
370
-1
  6
BYLAYER
  2
servo_mount
 10
20.0
 20
-0.1749999999999998
 30
0.0
  0
LINE
  5
7F
100
AcDbEntity
100
AcDbLine
  8
0
 62
256
370
-1
  6
BYLAYER
 10
11.0
 20
17.8249999999999993
 30
0.0
 11
11.0
 21
12.5
 31
0.0
  0
LINE
  5
80
100
AcDbEntity
100
AcDbLine
  8
0
 62
256
370
-1
  6
BYLAYER
 10
39.0
 20
17.8249999999999993
 30
0.0
 11
39.0
 21
17.8249999999999993
 31
0.0
  0
LINE
  5
81
100
AcDbEntity
100
AcDbLine
  8
0
 62
256
370
-1
  6
BYLAYER
 10
32.0
 20
12.8249999999999993
 30
0.0
 11
34.0
 21
12.8249999999999993
 31
0.0
  0
LINE
  5
82
100
AcDbEntity
100
AcDbLine
  8
0
 62
256
370
-1
  6
BYLAYER
 10
39.0
 20
17.8249999999999993
 30
0.0
 11
39.0
 21
17.8249999999999993
 31
0.0
  0
LINE
  5
83
100
AcDbEntity
100
AcDbLine
  8
0
 62
256
370
-1
  6
BYLAYER
 10
34.0
 20
22.8249999999999993
 30
0.0
 11
29.0
 21
22.8249999999999993
 31
0.0
  0
LINE
  5
84
100
AcDbEntity
100
AcDbLine
  8
0
 62
256
370
-1
  6
BYLAYER
 10
29.0
 20
9.8249999999999993
 30
0.0
 11
29.0
 21
-12.5000000000000036
 31
0.0
  0
ARC
  5
85
100
AcDbEntity
  8
0
 62
256
370
-1
  6
BYLAYER
100
AcDbCircle
 10
32.0
 20
9.8249999999999993
 30
0.0
 40
3.0
100
AcDbArc
 50
90.0
 51
180.0
  0
ARC
  5
86
100
AcDbEntity
  8
0
 62
256
370
-1
  6
BYLAYER
100
AcDbCircle
 10
16.0
 20
17.8249999999999993
 30
0.0
 40
5.0
100
AcDbArc
 50
90.0
 51
180.0
  0
LINE
  5
87
100
AcDbEntity
100
AcDbLine
  8
0
 62
7
420
0
370
-1
  6
DOT2
 10
-13.5
 20
-3.1750000000000398
 30
0.0
 11
-13.5
 21
3.1749999999999829
 31
0.0
  0
LINE
  5
88
100
AcDbEntity
100
AcDbLine
  8
0
 62
7
420
0
370
-1
  6
DOT2
 10
-16.5
 20
3.1749999999999829
 30
0.0
 11
-16.5
 21
-3.1750000000000398
 31
0.0
  0
LINE
  5
89
100
AcDbEntity
100
AcDbLine
  8
0
 62
7
420
0
370
-1
  6
BYLAYER
 10
-20.0
 20
-3.1750000000000398
 30
0.0
 11
10.0
 21
-3.1750000000000398
 31
0.0
  0
LINE
  5
8A
100
AcDbEntity
100
AcDbLine
  8
0
 62
7
420
0
370
-1
  6
BYLAYER
 10
10.0
 20
-3.1750000000000398
 30
0.0
 11
10.0
 21
3.1749999999999829
 31
0.0
  0
LINE
  5
8B
100
AcDbEntity
100
AcDbLine
  8
0
 62
7
420
0
370
-1
  6
BYLAYER
 10
10.0
 20
3.1749999999999829
 30
0.0
 11
-20.0
 21
3.1749999999999829
 31
0.0
  0
LINE
  5
8C
100
AcDbEntity
100
AcDbLine
  8
0
 62
7
420
0
370
-1
  6
DOT
 10
0.0
 20
3.1750000000000398
 30
0.0
 11
0.0
 21
-3.1749999999999261
 31
0.0
  0
LINE
  5
8D
100
AcDbEntity
100
AcDbLine
  8
0
 62
7
420
0
370
-1
  6
BYLAYER
 10
-20.0
 20
3.1749999999999829
 30
0.0
 11
-20.0
 21
-3.1750000000000398
 31
0.0
  0
ENDBLK
  5
8E
100
AcDbEntity
  8
0
100
AcDbBlockEnd
  0
BLOCK
  5
8F
100
AcDbEntity
  8
0
100
AcDbBlockBegin
  2
servo_mount
 70
0
 10
0.0
 20
0.0
 30
0.0
  3
servo_mount
  1

  0
LINE
  5
90
100
AcDbEntity
100
AcDbLine
  8
0
 62
256
370
-1
  6
BYLAYER
 10
-5.9999999999999893
 20
11.5
 30
0.0
 11
-6.0
 21
-11.4999999999999982
 31
0.0
  0
LINE
  5
91
100
AcDbEntity
100
AcDbLine
  8
0
 62
256
370
-1
  6
BYLAYER
 10
-6.0
 20
-11.4999999999999982
 30
0.0
 11
6.0
 21
-11.5
 31
0.0
  0
DIMENSION
  5
92
100
AcDbEntity
  8
0
 62
256
370
-1
  6
BYLAYER
100
AcDbDimension
 10
3.5654529172320149
 20
14.4999999999999982
 30
0.0
 11
1.8056235137575523
 21
6.4065370865184263
 31
0.0
 70
129
 71
8
 72
2
 41
1.0
 42
0.0
  1
1/16"
  3
Standard
100
AcDbAlignedDimension
 13
0.0000000000000009
 23
14.4999999999999982
 33
0.0
 14
0.0000000000000008
 24
13.4999999999999982
 34
0.0
1001
ACAD
1000
DSTYLE
1002
{
1070
144
1040
1
1002
}
  0
CIRCLE
  5
93
100
AcDbEntity
100
AcDbCircle
  8
0
 62
256
370
-1
  6
BYLAYER
 10
0.0
 20
13.9999999999999982
 30
0.0
 40
0.5
  0
CIRCLE
  5
94
100
AcDbEntity
100
AcDbCircle
  8
0
 62
256
370
-1
  6
BYLAYER
 10
0.0
 20
-13.9999999999999982
 30
0.0
 40
0.5
  0
LINE
  5
95
100
AcDbEntity
100
AcDbLine
  8
0
 62
256
370
-1
  6
BYLAYER
 10
6.0
 20
-11.5
 30
0.0
 11
6.0
 21
11.5
 31
0.0
  0
LINE
  5
96
100
AcDbEntity
100
AcDbLine
  8
0
 62
256
370
-1
  6
BYLAYER
 10
6.0
 20
11.5
 30
0.0
 11
-5.9999999999999893
 21
11.5
 31
0.0
  0
LINE
  5
97
100
AcDbEntity
100
AcDbLine
  8
0
 62
256
370
-1
  6
BYLAYER
 10
-5.9999999999999893
 20
11.5
 30
0.0
 11
-6.0
 21
-11.4999999999999982
 31
0.0
  0
LINE
  5
98
100
AcDbEntity
100
AcDbLine
  8
0
 62
256
370
-1
  6
BYLAYER
 10
-6.0
 20
-11.4999999999999982
 30
0.0
 11
6.0
 21
-11.5
 31
0.0
  0
DIMENSION
  5
99
100
AcDbEntity
  8
0
 62
256
370
-1
  6
BYLAYER
100
AcDbDimension
 10
3.5654529172320149
 20
14.4999999999999982
 30
0.0
 11
1.8056235137575523
 21
6.4065370865184263
 31
0.0
 70
129
 71
8
 72
2
 41
1.0
 42
0.0
  1
1/16"
  3
Standard
100
AcDbAlignedDimension
 13
0.0000000000000009
 23
14.4999999999999982
 33
0.0
 14
0.0000000000000008
 24
13.4999999999999982
 34
0.0
1001
ACAD
1000
DSTYLE
1002
{
1070
144
1040
1
1002
}
  0
CIRCLE
  5
9A
100
AcDbEntity
100
AcDbCircle
  8
0
 62
256
370
-1
  6
BYLAYER
 10
0.0
 20
13.9999999999999982
 30
0.0
 40
0.5
  0
CIRCLE
  5
9B
100
AcDbEntity
100
AcDbCircle
  8
0
 62
256
370
-1
  6
BYLAYER
 10
0.0
 20
-13.9999999999999982
 30
0.0
 40
0.5
  0
LINE
  5
9C
100
AcDbEntity
100
AcDbLine
  8
0
 62
256
370
-1
  6
BYLAYER
 10
6.0
 20
-11.5
 30
0.0
 11
6.0
 21
11.5
 31
0.0
  0
LINE
  5
9D
100
AcDbEntity
100
AcDbLine
  8
0
 62
256
370
-1
  6
BYLAYER
 10
6.0
 20
11.5
 30
0.0
 11
-5.9999999999999893
 21
11.5
 31
0.0
  0
DIMENSION
  5
9E
100
AcDbEntity
  8
0
 62
256
370
-1
  6
BYLAYER
100
AcDbDimension
 10
3.5654529172320149
 20
14.4999999999999982
 30
0.0
 11
1.8056235137575523
 21
6.4065370865184263
 31
0.0
 70
129
 71
8
 72
2
 41
1.0
 42
0.0
  1
1/16"
  3
Standard
100
AcDbAlignedDimension
 13
0.0000000000000009
 23
14.4999999999999982
 33
0.0
 14
0.0000000000000008
 24
13.4999999999999982
 34
0.0
1001
ACAD
1000
DSTYLE
1002
{
1070
144
1040
1
1002
}
  0
LINE
  5
9F
100
AcDbEntity
100
AcDbLine
  8
0
 62
256
370
-1
  6
BYLAYER
 10
-5.9999999999999893
 20
11.5
 30
0.0
 11
-6.0
 21
-11.4999999999999982
 31
0.0
  0
CIRCLE
  5
A0
100
AcDbEntity
100
AcDbCircle
  8
0
 62
256
370
-1
  6
BYLAYER
 10
0.0
 20
13.9999999999999982
 30
0.0
 40
0.5
  0
LINE
  5
A1
100
AcDbEntity
100
AcDbLine
  8
0
 62
256
370
-1
  6
BYLAYER
 10
-6.0
 20
-11.4999999999999982
 30
0.0
 11
6.0
 21
-11.5
 31
0.0
  0
CIRCLE
  5
A2
100
AcDbEntity
100
AcDbCircle
  8
0
 62
256
370
-1
  6
BYLAYER
 10
0.0
 20
-13.9999999999999982
 30
0.0
 40
0.5
  0
LINE
  5
A3
100
AcDbEntity
100
AcDbLine
  8
0
 62
256
370
-1
  6
BYLAYER
 10
6.0
 20
-11.5
 30
0.0
 11
6.0
 21
11.5
 31
0.0
  0
LINE
  5
A4
100
AcDbEntity
100
AcDbLine
  8
0
 62
256
370
-1
  6
BYLAYER
 10
6.0
 20
11.5
 30
0.0
 11
-5.9999999999999893
 21
11.5
 31
0.0
  0
ENDBLK
  5
A5
100
AcDbEntity
  8
0
100
AcDbBlockEnd
  0
BLOCK
  5
A6
100
AcDbEntity
  8
0
100
AcDbBlockBegin
  2
tibia
 70
0
 10
0.0
 20
0.0
 30
0.0
  3
tibia
  1

  0
INSERT
  5
A7
100
AcDbEntity
100
AcDbBlockReference
  8
0
 62
256
370
-1
  6
BYLAYER
  2
servo_mount
 10
5.0
 20
-23.5
 30
0.0
  0
LINE
  5
A8
100
AcDbEntity
100
AcDbLine
  8
0
 62
256
370
-1
  6
BYLAYER
 10
15.0
 20
-37.0
 30
0.0
 11
15.0
 21
-10.0
 31
0.0
  0
INSERT
  5
A9
100
AcDbEntity
100
AcDbBlockReference
  8
0
 62
256
370
-1
  6
BYLAYER
  2
servo_mount
 10
5.0
 20
-23.5
 30
0.0
  0
LINE
  5
AA
100
AcDbEntity
100
AcDbLine
  8
0
 62
256
370
-1
  6
BYLAYER
 10
-5.0
 20
-5.0
 30
0.0
 11
-5.0
 21
-42.0
 31
0.0
  0
LINE
  5
AB
100
AcDbEntity
100
AcDbLine
  8
0
 62
256
370
-1
  6
BYLAYER
 10
15.0
 20
-37.0
 30
0.0
 11
15.0
 21
-10.0
 31
0.0
  0
LINE
  5
AC
100
AcDbEntity
100
AcDbLine
  8
0
 62
256
370
-1
  6
BYLAYER
 10
0.0
 20
-57.0
 30
0.0
 11
0.0
 21
-57.0
 31
0.0
  0
LINE
  5
AD
100
AcDbEntity
100
AcDbLine
  8
0
 62
256
370
-1
  6
BYLAYER
 10
-5.0
 20
-5.0
 30
0.0
 11
-5.0
 21
-42.0
 31
0.0
  0
LINE
  5
AE
100
AcDbEntity
100
AcDbLine
  8
0
 62
256
370
-1
  6
BYLAYER
 10
5.0
 20
-52.0
 30
0.0
 11
5.0
 21
-47.0
 31
0.0
  0
LINE
  5
AF
100
AcDbEntity
100
AcDbLine
  8
0
 62
256
370
-1
  6
BYLAYER
 10
0.0
 20
-57.0
 30
0.0
 11
0.0
 21
-57.0
 31
0.0
  0
LINE
  5
B0
100
AcDbEntity
100
AcDbLine
  8
0
 62
256
370
-1
  6
BYLAYER
 10
-5.0
 20
-42.0
 30
0.0
 11
-5.0
 21
-52.0
 31
0.0
  0
LINE
  5
B1
100
AcDbEntity
100
AcDbLine
  8
0
 62
256
370
-1
  6
BYLAYER
 10
5.0
 20
-52.0
 30
0.0
 11
5.0
 21
-47.0
 31
0.0
  0
LINE
  5
B2
100
AcDbEntity
100
AcDbLine
  8
0
 62
256
370
-1
  6
BYLAYER
 10
10.0
 20
-42.0
 30
0.0
 11
10.0
 21
-42.0
 31
0.0
  0
LINE
  5
B3
100
AcDbEntity
100
AcDbLine
  8
0
 62
256
370
-1
  6
BYLAYER
 10
-5.0
 20
-42.0
 30
0.0
 11
-5.0
 21
-52.0
 31
0.0
  0
LINE
  5
B4
100
AcDbEntity
100
AcDbLine
  8
0
 62
256
370
-1
  6
BYLAYER
 10
5.0
 20
0.0
 30
0.0
 11
5.0
 21
0.0
 31
0.0
  0
LINE
  5
B5
100
AcDbEntity
100
AcDbLine
  8
0
 62
256
370
-1
  6
BYLAYER
 10
10.0
 20
-42.0
 30
0.0
 11
10.0
 21
-42.0
 31
0.0
  0
LINE
  5
B6
100
AcDbEntity
100
AcDbLine
  8
0
 62
256
370
-1
  6
BYLAYER
 10
0.0
 20
5.0
 30
0.0
 11
0.0
 21
5.0
 31
0.0
  0
LINE
  5
B7
100
AcDbEntity
100
AcDbLine
  8
0
 62
256
370
-1
  6
BYLAYER
 10
5.0
 20
0.0
 30
0.0
 11
5.0
 21
0.0
 31
0.0
  0
LINE
  5
B8
100
AcDbEntity
100
AcDbLine
  8
0
 62
256
370
-1
  6
BYLAYER
 10
-5.0
 20
0.0
 30
0.0
 11
-5.0
 21
-5.0
 31
0.0
  0
LINE
  5
B9
100
AcDbEntity
100
AcDbLine
  8
0
 62
256
370
-1
  6
BYLAYER
 10
0.0
 20
5.0
 30
0.0
 11
0.0
 21
5.0
 31
0.0
  0
LINE
  5
BA
100
AcDbEntity
100
AcDbLine
  8
0
 62
256
370
-1
  6
BYLAYER
 10
10.0
 20
-5.0
 30
0.0
 11
10.0
 21
-5.0
 31
0.0
  0
LINE
  5
BB
100
AcDbEntity
100
AcDbLine
  8
0
 62
256
370
-1
  6
BYLAYER
 10
-5.0
 20
0.0
 30
0.0
 11
-5.0
 21
-5.0
 31
0.0
  0
ARC
  5
BC
100
AcDbEntity
  8
0
 62
256
370
-1
  6
BYLAYER
100
AcDbCircle
 10
0.0
 20
0.0
 30
0.0
 40
5.0
100
AcDbArc
 50
90.0
 51
180.0
  0
LINE
  5
BD
100
AcDbEntity
100
AcDbLine
  8
0
 62
256
370
-1
  6
BYLAYER
 10
10.0
 20
-5.0
 30
0.0
 11
10.0
 21
-5.0
 31
0.0
  0
ARC
  5
BE
100
AcDbEntity
  8
0
 62
256
370
-1
  6
BYLAYER
100
AcDbCircle
 10
0.0
 20
0.0
 30
0.0
 40
5.0
100
AcDbArc
 50
0.0
 51
90.0
  0
ARC
  5
BF
100
AcDbEntity
  8
0
 62
256
370
-1
  6
BYLAYER
100
AcDbCircle
 10
0.0
 20
0.0
 30
0.0
 40
5.0
100
AcDbArc
 50
90.0
 51
180.0
  0
ARC
  5
C0
100
AcDbEntity
  8
0
 62
256
370
-1
  6
BYLAYER
100
AcDbCircle
 10
10.0
 20
-10.0000000000000018
 30
0.0
 40
5.0
100
AcDbArc
 50
0.0
 51
90.0
  0
ARC
  5
C1
100
AcDbEntity
  8
0
 62
256
370
-1
  6
BYLAYER
100
AcDbCircle
 10
0.0
 20
0.0
 30
0.0
 40
5.0
100
AcDbArc
 50
0.0
 51
90.0
  0
ARC
  5
C2
100
AcDbEntity
  8
0
 62
256
370
-1
  6
BYLAYER
100
AcDbCircle
 10
10.0
 20
-37.0
 30
0.0
 40
5.0
100
AcDbArc
 50
270.0
 51
0.0
  0
ARC
  5
C3
100
AcDbEntity
  8
0
 62
256
370
-1
  6
BYLAYER
100
AcDbCircle
 10
10.0
 20
-10.0000000000000018
 30
0.0
 40
5.0
100
AcDbArc
 50
0.0
 51
90.0
  0
ARC
  5
C4
100
AcDbEntity
  8
0
 62
256
370
-1
  6
BYLAYER
100
AcDbCircle
 10
0.0
 20
-52.0
 30
0.0
 40
5.0
100
AcDbArc
 50
180.0
 51
270.0
  0
ARC
  5
C5
100
AcDbEntity
  8
0
 62
256
370
-1
  6
BYLAYER
100
AcDbCircle
 10
10.0
 20
-37.0
 30
0.0
 40
5.0
100
AcDbArc
 50
270.0
 51
0.0
  0
ARC
  5
C6
100
AcDbEntity
  8
0
 62
256
370
-1
  6
BYLAYER
100
AcDbCircle
 10
0.0
 20
-52.0
 30
0.0
 40
5.0
100
AcDbArc
 50
270.0
 51
0.0
  0
ARC
  5
C7
100
AcDbEntity
  8
0
 62
256
370
-1
  6
BYLAYER
100
AcDbCircle
 10
0.0
 20
-52.0
 30
0.0
 40
5.0
100
AcDbArc
 50
180.0
 51
270.0
  0
CIRCLE
  5
C8
100
AcDbEntity
100
AcDbCircle
  8
0
 62
256
370
-1
  6
BYLAYER
 10
0.0
 20
0.0
 30
0.0
 40
1.5
  0
ARC
  5
C9
100
AcDbEntity
  8
0
 62
256
370
-1
  6
BYLAYER
100
AcDbCircle
 10
0.0
 20
-52.0
 30
0.0
 40
5.0
100
AcDbArc
 50
270.0
 51
0.0
  0
DIMENSION
  5
CA
100
AcDbEntity
  8
0
 62
256
370
-1
  6
BYLAYER
100
AcDbDimension
 10
1.4999999999999996
 20
-3.0
 30
0.0
 11
0.9999999999999993
 21
-6.0
 31
0.0
 70
129
 71
8
 72
2
 41
1.0
 42
0.0
  1
9/64"
  3
Standard
100
AcDbAlignedDimension
 13
1.5
 23
0.0
 33
0.0
 14
-1.5
 24
0.0000000000000002
 34
0.0
1001
ACAD
1000
DSTYLE
1002
{
1070
144
1040
1
1002
}
  0
CIRCLE
  5
CB
100
AcDbEntity
100
AcDbCircle
  8
0
 62
256
370
-1
  6
BYLAYER
 10
0.0
 20
0.0
 30
0.0
 40
1.5
  0
ARC
  5
CC
100
AcDbEntity
  8
0
 62
256
370
-1
  6
BYLAYER
100
AcDbCircle
 10
10.0
 20
-47.0
 30
0.0
 40
5.0
100
AcDbArc
 50
90.0
 51
180.0
  0
DIMENSION
  5
CD
100
AcDbEntity
  8
0
 62
256
370
-1
  6
BYLAYER
100
AcDbDimension
 10
1.4999999999999996
 20
-3.0
 30
0.0
 11
0.9999999999999993
 21
-6.0
 31
0.0
 70
129
 71
8
 72
2
 41
1.0
 42
0.0
  1
9/64"
  3
Standard
100
AcDbAlignedDimension
 13
1.5
 23
0.0
 33
0.0
 14
-1.5
 24
0.0000000000000002
 34
0.0
1001
ACAD
1000
DSTYLE
1002
{
1070
144
1040
1
1002
}
  0
ARC
  5
CE
100
AcDbEntity
  8
0
 62
256
370
-1
  6
BYLAYER
100
AcDbCircle
 10
10.0
 20
-0.0
 30
0.0
 40
5.0
100
AcDbArc
 50
180.0
 51
270.0
  0
ARC
  5
CF
100
AcDbEntity
  8
0
 62
256
370
-1
  6
BYLAYER
100
AcDbCircle
 10
10.0
 20
-47.0
 30
0.0
 40
5.0
100
AcDbArc
 50
90.0
 51
180.0
  0
ARC
  5
D0
100
AcDbEntity
  8
0
 62
256
370
-1
  6
BYLAYER
100
AcDbCircle
 10
10.0
 20
-0.0
 30
0.0
 40
5.0
100
AcDbArc
 50
180.0
 51
270.0
  0
ENDBLK
  5
D1
100
AcDbEntity
  8
0
100
AcDbBlockEnd
  0
ENDSEC
  0
SECTION
  2
ENTITIES
  0
INSERT
  5
D2
100
AcDbEntity
100
AcDbBlockReference
  8
0
 62
256
370
-1
  6
BYLAYER
  2
femur_vertical
 10
15.0
 20
50.0000000000000284
 30
0.0
 50
360.0
  0
INSERT
  5
D3
100
AcDbEntity
100
AcDbBlockReference
  8
0
 62
256
370
-1
  6
BYLAYER
  2
tibia
 10
86.5877048314363265
 20
54.1441942669732796
 30
0.0
 50
379.0000000000001137
  0
INSERT
  5
D4
100
AcDbEntity
100
AcDbBlockReference
  8
0
 62
256
370
-1
  6
BYLAYER
  2
femur_tibia
 10
67.7938524157181632
 20
60.9845971334866448
 30
0.0
 50
160.0
  0
LINE
  5
D5
100
AcDbEntity
100
AcDbLine
  8
0
 62
256
370
70
  6
BYLAYER
 10
-10.0000000000000036
 20
0.0
 30
0.0
 11
130.0000000000000284
 21
0.0
 31
0.0
  0
LINE
  5
D6
100
AcDbEntity
100
AcDbLine
  8
0
 62
256
370
-1
  6
DASHED
 10
0.0
 20
50.0
 30
0.0
 11
-0.0000000000000036
 21
-0.0
 31
0.0
  0
MTEXT
  5
D7
100
AcDbEntity
100
AcDbMText
  8
0
 62
256
370
-1
  6
BYLAYER
 10
0.0
 20
70.0
 30
0.0
 40
8.0
 41
0.0
 71
1
 72
1
  1
\H5.14286;150mm
  7
textstyle0
 50
0.0
 73
2
 44
1.0
  0
MTEXT
  5
D8
100
AcDbEntity
100
AcDbMText
  8
0
 62
256
370
-1
  6
BYLAYER
 10
0.0000000000000036
 20
-30.0
 30
0.0
 40
8.0
 41
0.0
 71
1
 72
1
  1
\H5.14286;140mm
  7
textstyle1
 50
0.0
 73
2
 44
1.0
  0
INSERT
  5
D9
100
AcDbEntity
100
AcDbBlockReference
  8
0
 62
256
370
-1
  6
BYLAYER
  2
femur_vertical
 10
15.0000000000000036
 20
-49.9999999999999716
 30
0.0
 50
360.0
  0
INSERT
  5
DA
100
AcDbEntity
100
AcDbBlockReference
  8
0
 62
256
370
-1
  6
BYLAYER
  2
tibia
 10
87.4504678375327558
 20
-43.2004942326799863
 30
0.0
 50
368.0
  0
INSERT
  5
DB
100
AcDbEntity
100
AcDbBlockReference
  8
0
 62
256
370
-1
  6
BYLAYER
  2
femur_tibia
 10
68.2252339187663779
 20
-37.6877471163399704
 30
0.0
 50
164.0
  0
LINE
  5
DC
100
AcDbEntity
100
AcDbLine
  8
0
 62
256
370
70
  6
BYLAYER
 10
-10.0
 20
-100.0
 30
0.0
 11
130.0000000000000284
 21
-100.0
 31
0.0
  0
LINE
  5
DD
100
AcDbEntity
100
AcDbLine
  8
0
 62
256
370
-1
  6
DASHED
 10
0.0000000000000036
 20
-50.0
 30
0.0
 11
0.0
 21
-100.0
 31
0.0
  0
MTEXT
  5
DE
100
AcDbEntity
100
AcDbMText
  8
0
 62
256
370
-1
  6
BYLAYER
 10
0.0000000000000036
 20
-130.0
 30
0.0
 40
8.0
 41
0.0
 71
1
 72
1
  1
\H5.14286;130mm
  7
textstyle2
 50
0.0
 73
2
 44
1.0
  0
INSERT
  5
DF
100
AcDbEntity
100
AcDbBlockReference
  8
0
 62
256
370
-1
  6
BYLAYER
  2
femur_vertical
 10
15.0000000000000036
 20
-149.9999999999999432
 30
0.0
 50
360.0
  0
INSERT
  5
E0
100
AcDbEntity
100
AcDbBlockReference
  8
0
 62
256
370
-1
  6
BYLAYER
  2
tibia
 10
87.4504678375327842
 20
-143.2004942326799721
 30
0.0
 50
357.0000000000000568
  0
INSERT
  5
E1
100
AcDbEntity
100
AcDbBlockReference
  8
0
 62
256
370
-1
  6
BYLAYER
  2
femur_tibia
 10
68.2252339187663779
 20
-137.6877471163399775
 30
0.0
 50
164.0
  0
LINE
  5
E2
100
AcDbEntity
100
AcDbLine
  8
0
 62
256
370
70
  6
BYLAYER
 10
-10.0
 20
-200.0
 30
0.0
 11
130.0000000000000284
 21
-200.0
 31
0.0
  0
LINE
  5
E3
100
AcDbEntity
100
AcDbLine
  8
0
 62
256
370
-1
  6
DASHED
 10
0.0000000000000036
 20
-150.0
 30
0.0
 11
0.0
 21
-200.0
 31
0.0
  0
MTEXT
  5
E4
100
AcDbEntity
100
AcDbMText
  8
0
 62
256
370
-1
  6
BYLAYER
 10
0.0000000000000036
 20
-229.9999999999999716
 30
0.0
 40
8.0
 41
0.0
 71
1
 72
1
  1
\H5.14286;120mm
  7
textstyle3
 50
0.0
 73
2
 44
1.0
  0
INSERT
  5
E5
100
AcDbEntity
100
AcDbBlockReference
  8
0
 62
256
370
-1
  6
BYLAYER
  2
femur_vertical
 10
15.0000000000000036
 20
-249.9999999999999432
 30
0.0
 50
360.0
  0
INSERT
  5
E6
100
AcDbEntity
100
AcDbBlockReference
  8
0
 62
256
370
-1
  6
BYLAYER
  2
tibia
 10
87.0422606518061457
 20
-244.5356797749978455
 30
0.0
 50
347.0000000000000568
  0
INSERT
  5
E7
100
AcDbEntity
100
AcDbBlockReference
  8
0
 62
256
370
-1
  6
BYLAYER
  2
femur_tibia
 10
68.0211303259030728
 20
-238.3553398874989
 30
0.0
 50
162.0
  0
LINE
  5
E8
100
AcDbEntity
100
AcDbLine
  8
0
 62
256
370
70
  6
BYLAYER
 10
-10.0
 20
-300.0
 30
0.0
 11
130.0000000000000284
 21
-300.0
 31
0.0
  0
LINE
  5
E9
100
AcDbEntity
100
AcDbLine
  8
0
 62
256
370
-1
  6
DASHED
 10
0.0000000000000036
 20
-249.9999999999999716
 30
0.0
 11
0.0
 21
-300.0
 31
0.0
  0
MTEXT
  5
EA
100
AcDbEntity
100
AcDbMText
  8
0
 62
256
370
-1
  6
BYLAYER
 10
0.0000000000000036
 20
-329.9999999999999432
 30
0.0
 40
8.0
 41
0.0
 71
1
 72
1
  1
\H5.14286;110mm
  7
textstyle4
 50
0.0
 73
2
 44
1.0
  0
INSERT
  5
EB
100
AcDbEntity
100
AcDbBlockReference
  8
0
 62
256
370
-1
  6
BYLAYER
  2
femur_vertical
 10
15.0000000000000036
 20
-349.9999999999998863
 30
0.0
 50
360.0
  0
INSERT
  5
EC
100
AcDbEntity
100
AcDbBlockReference
  8
0
 62
256
370
-1
  6
BYLAYER
  2
tibia
 10
86.0873541826715041
 20
-347.1592637366364329
 30
0.0
 50
338.0000000000000568
  0
INSERT
  5
ED
100
AcDbEntity
100
AcDbBlockReference
  8
0
 62
256
370
-1
  6
BYLAYER
  2
femur_tibia
 10
67.543677091335752
 20
-339.6671318683182221
 30
0.0
 50
158.0
  0
LINE
  5
EE
100
AcDbEntity
100
AcDbLine
  8
0
 62
256
370
70
  6
BYLAYER
 10
-10.0
 20
-399.9999999999999432
 30
0.0
 11
130.0000000000000284
 21
-399.9999999999999432
 31
0.0
  0
LINE
  5
EF
100
AcDbEntity
100
AcDbLine
  8
0
 62
256
370
-1
  6
DASHED
 10
0.0000000000000036
 20
-349.9999999999999432
 30
0.0
 11
0.0
 21
-399.9999999999999432
 31
0.0
  0
MTEXT
  5
F0
100
AcDbEntity
100
AcDbMText
  8
0
 62
256
370
-1
  6
BYLAYER
 10
0.0000000000000036
 20
-429.9999999999999432
 30
0.0
 40
8.0
 41
0.0
 71
1
 72
1
  1
\H5.14286;100mm
  7
textstyle5
 50
0.0
 73
2
 44
1.0
  0
INSERT
  5
F1
100
AcDbEntity
100
AcDbBlockReference
  8
0
 62
256
370
-1
  6
BYLAYER
  2
femur_vertical
 10
15.0000000000000036
 20
-449.9999999999998863
 30
0.0
 50
360.0
  0
INSERT
  5
F2
100
AcDbEntity
100
AcDbBlockReference
  8
0
 62
256
370
-1
  6
BYLAYER
  2
tibia
 10
84.3179037143571009
 20
-450.9538625114356023
 30
0.0
 50
329.0000000000000568
  0
INSERT
  5
F3
100
AcDbEntity
100
AcDbBlockReference
  8
0
 62
256
370
-1
  6
BYLAYER
  2
femur_tibia
 10
66.6589518571785362
 20
-441.56443125571775
 30
0.0
 50
152.0000000000000284
  0
LINE
  5
F4
100
AcDbEntity
100
AcDbLine
  8
0
 62
256
370
70
  6
BYLAYER
 10
-10.0
 20
-499.9999999999999432
 30
0.0
 11
130.0000000000000284
 21
-499.9999999999999432
 31
0.0
  0
LINE
  5
F5
100
AcDbEntity
100
AcDbLine
  8
0
 62
256
370
-1
  6
DASHED
 10
0.0000000000000036
 20
-449.9999999999999432
 30
0.0
 11
0.0
 21
-499.9999999999999432
 31
0.0
  0
MTEXT
  5
F6
100
AcDbEntity
100
AcDbMText
  8
0
 62
256
370
-1
  6
BYLAYER
 10
0.0000000000000036
 20
170.0
 30
0.0
 40
8.0
 41
0.0
 71
1
 72
1
  1
\H5.14286;160mm
  7
textstyle6
 50
0.0
 73
2
 44
1.0
  0
INSERT
  5
F7
100
AcDbEntity
100
AcDbBlockReference
  8
0
 62
256
370
-1
  6
BYLAYER
  2
femur_vertical
 10
15.0000000000000036
 20
150.0000000000001137
 30
0.0
 50
360.0
  0
INSERT
  5
F8
100
AcDbEntity
100
AcDbBlockReference
  8
0
 62
256
370
-1
  6
BYLAYER
  2
tibia
 10
83.4296810801577635
 20
147.4633433699851821
 30
0.0
 50
393.7000000000000455
  0
INSERT
  5
F9
100
AcDbEntity
100
AcDbBlockReference
  8
0
 62
256
370
-1
  6
BYLAYER
  2
femur_tibia
 10
66.2148405400788818
 20
157.6441716849926138
 30
0.0
 50
149.4000000000000057
  0
LINE
  5
FA
100
AcDbEntity
100
AcDbLine
  8
0
 62
256
370
70
  6
BYLAYER
 10
-10.0
 20
100.0
 30
0.0
 11
130.0000000000000284
 21
100.0
 31
0.0
  0
LINE
  5
FB
100
AcDbEntity
100
AcDbLine
  8
0
 62
256
370
-1
  6
DASHED
 10
0.0000000000000036
 20
150.0
 30
0.0
 11
0.0
 21
100.0
 31
0.0
  0
DIMENSION
  5
FC
100
AcDbEntity
  8
0
 62
256
370
-1
  6
BYLAYER
100
AcDbDimension
 10
95.4204711596957367
 20
-109.6456362365833428
 30
0.0
 11
47.721840709156524
 21
-107.9477620906249911
 31
0.0
 70
1
 71
8
 72
2
 41
1.0
 42
0.0
  1

  3
Standard
100
AcDbAlignedDimension
 13
95.3833345922564746
 23
-99.6457741509495065
 33
0.0
 14
-0.0
 24
-100.0000000000000142
 34
0.0
1001
ACAD
1000
DSTYLE
1002
{
1070
144
1040
1
1002
}
  0
DIMENSION
  5
FD
100
AcDbEntity
  8
0
 62
256
370
-1
  6
BYLAYER
100
AcDbDimension
 10
105.1688315003343064
 20
-9.7503081742553999
 30
0.0
 11
52.5918350703832047
 21
-8.0001311876626318
 31
0.0
 70
1
 71
8
 72
2
 41
1.0
 42
0.0
  1

  3
Standard
100
AcDbAlignedDimension
 13
105.1450896354943723
 23
0.2496354578122588
 33
0.0
 14
-0.0000000000000036
 24
-0.0
 34
0.0
1001
ACAD
1000
DSTYLE
1002
{
1070
144
1040
1
1002
}
  0
DIMENSION
  5
FE
100
AcDbEntity
  8
0
 62
256
370
-1
  6
BYLAYER
100
AcDbDimension
 10
84.4555101504264343
 20
-208.272598658339291
 30
0.0
 11
42.2245675142060151
 21
-206.3364117693705282
 31
0.0
 70
1
 71
8
 72
2
 41
1.0
 42
0.0
  1

  3
Standard
100
AcDbAlignedDimension
 13
84.4673183316850498
 23
-200.1223777136906961
 33
0.0
 14
-0.0
 24
-200.0000000000000284
 34
0.0
1001
ACAD
1000
DSTYLE
1002
{
1070
144
1040
1
1002
}
  0
DIMENSION
  5
FF
100
AcDbEntity
  8
0
 62
256
370
-1
  6
BYLAYER
100
AcDbDimension
 10
74.212565835526604
 20
-307.5040958659066632
 30
0.0
 11
37.104429538286098
 21
-305.591710083560713
 31
0.0
 70
1
 71
8
 72
2
 41
1.0
 42
0.0
  1

  3
Standard
100
AcDbAlignedDimension
 13
74.2200505542059119
 23
-300.0747734677563017
 33
0.0
 14
-0.0
 24
-299.9999999999999432
 34
0.0
1001
ACAD
1000
DSTYLE
1002
{
1070
144
1040
1
1002
}
  0
DIMENSION
  5
100
100
AcDbEntity
  8
0
 62
256
370
-1
  6
BYLAYER
100
AcDbDimension
 10
64.7338219008958902
 20
-407.0901652735100242
 30
0.0
 11
32.3666859700650917
 21
-405.2107935671409109
 31
0.0
 70
1
 71
8
 72
2
 41
1.0
 42
0.0
  1

  3
Standard
100
AcDbAlignedDimension
 13
64.7347783579645437
 23
-400.0087434469432992
 33
0.0
 14
-0.0
 24
-399.9999999999998863
 34
0.0
1001
ACAD
1000
DSTYLE
1002
{
1070
144
1040
1
1002
}
  0
DIMENSION
  5
101
100
AcDbEntity
  8
0
 62
256
370
-1
  6
BYLAYER
100
AcDbDimension
 10
54.9846500618249294
 20
-506.8191437562643387
 30
0.0
 11
27.4978833070989772
 21
-505.0379553533456374
 31
0.0
 70
1
 71
8
 72
2
 41
1.0
 42
0.0
  1

  3
Standard
100
AcDbAlignedDimension
 13
54.9607334444839779
 23
-499.8123986514559647
 33
0.0
 14
-0.0
 24
-499.9999999999998863
 34
0.0
1001
ACAD
1000
DSTYLE
1002
{
1070
144
1040
1
1002
}
  0
DIMENSION
  5
102
100
AcDbEntity
  8
0
 62
256
370
-1
  6
BYLAYER
100
AcDbDimension
 10
115.0586080553957089
 20
92.3787457482811192
 30
0.0
 11
57.5300175604654527
 21
94.2327664193286409
 31
0.0
 70
1
 71
8
 72
2
 41
1.0
 42
0.0
  1

  3
Standard
100
AcDbAlignedDimension
 13
115.0558134446937402
 23
100.0419584085476714
 33
0.0
 14
-0.0
 24
100.0000000000000142
 34
0.0
1001
ACAD
1000
DSTYLE
1002
{
1070
144
1040
1
1002
}
  0
ENDSEC
  0
SECTION
  2
OBJECTS
  0
DICTIONARY
  5
C
100
AcDbDictionary
280
0
281
1
  3
ACAD_GROUP
350
D
  3
ACAD_LAYOUT
350
1A
  3
ACAD_MLINESTYLE
350
17
  3
ACAD_PLOTSETTINGS
350
19
  3
ACAD_PLOTSTYLENAME
350
E
  3
AcDbVariableDictionary
350
103
  3
QCAD_OBJECTS
350
104
  0
DICTIONARY
  5
D
100
AcDbDictionary
280
0
281
1
  0
ACDBDICTIONARYWDFLT
  5
E
100
AcDbDictionary
281
1
  3
Normal
350
F
100
AcDbDictionaryWithDefault
340
F
  0
ACDBPLACEHOLDER
  5
F
  0
DICTIONARY
  5
17
100
AcDbDictionary
280
0
281
1
  3
Standard
350
18
  0
MLINESTYLE
  5
18
100
AcDbMlineStyle
  2
STANDARD
 70
0
  3

 62
256
 51
90.0
 52
90.0
 71
2
 49
0.5
 62
256
  6
BYLAYER
 49
-0.5
 62
256
  6
BYLAYER
  0
DICTIONARY
  5
19
100
AcDbDictionary
280
0
281
1
  0
DICTIONARY
  5
1A
100
AcDbDictionary
281
1
  3
Layout1
350
1E
  3
Layout2
350
26
  3
Model
350
22
  0
LAYOUT
  5
1E
100
AcDbPlotSettings
  1

  2
none_device
  4

  6

 40
0.0
 41
0.0
 42
0.0
 43
0.0
 44
0.0
 45
0.0
 46
0.0
 47
0.0
 48
0.0
 49
0.0
140
0.0
141
0.0
142
1.0
143
1.0
 70
688
 72
0
 73
0
 74
5
  7

 75
16
147
1.0
148
0.0
149
0.0
100
AcDbLayout
  1
Layout1
 70
1
 71
1
 10
0.0
 20
0.0
 11
420.0
 21
297.0
 12
0.0
 22
0.0
 32
0.0
 14
100000000000000000000.0
 24
100000000000000000000.0
 34
100000000000000000000.0
 15
-100000000000000000000.0
 25
-100000000000000000000.0
 35
-100000000000000000000.0
146
0.0
 13
0.0
 23
0.0
 33
0.0
 16
1.0
 26
0.0
 36
0.0
 17
0.0
 27
1.0
 37
0.0
 76
0
330
1B
  0
LAYOUT
  5
22
100
AcDbPlotSettings
  1

  2
none_device
  4

  6

 40
0.0
 41
0.0
 42
0.0
 43
0.0
 44
0.0
 45
0.0
 46
0.0
 47
0.0
 48
0.0
 49
0.0
140
0.0
141
0.0
142
1.0
143
1.0
 70
1712
 72
0
 73
0
 74
0
  7

 75
0
147
1.0
148
0.0
149
0.0
100
AcDbLayout
  1
Model
 70
1
 71
0
 10
0.0
 20
0.0
 11
12.0
 21
9.0
 12
0.0
 22
0.0
 32
0.0
 14
0.0
 24
0.0
 34
0.0
 15
0.0
 25
0.0
 35
0.0
146
0.0
 13
0.0
 23
0.0
 33
0.0
 16
1.0
 26
0.0
 36
0.0
 17
0.0
 27
1.0
 37
0.0
 76
0
330
1F
  0
LAYOUT
  5
26
100
AcDbPlotSettings
  1

  2
none_device
  4

  6

 40
0.0
 41
0.0
 42
0.0
 43
0.0
 44
0.0
 45
0.0
 46
0.0
 47
0.0
 48
0.0
 49
0.0
140
0.0
141
0.0
142
1.0
143
1.0
 70
688
 72
0
 73
0
 74
5
  7

 75
16
147
1.0
148
0.0
149
0.0
100
AcDbLayout
  1
Layout2
 70
1
 71
2
 10
0.0
 20
0.0
 11
12.0
 21
9.0
 12
0.0
 22
0.0
 32
0.0
 14
0.0
 24
0.0
 34
0.0
 15
0.0
 25
0.0
 35
0.0
146
0.0
 13
0.0
 23
0.0
 33
0.0
 16
1.0
 26
0.0
 36
0.0
 17
0.0
 27
1.0
 37
0.0
 76
0
330
23
  0
DICTIONARY
  5
103
100
AcDbDictionary
281
1
  3
DIMASSOC
350
106
  3
HIDETEXT
350
105
  0
DICTIONARYVAR
  5
105
100
DictionaryVariables
280
0
  1
2
  0
DICTIONARYVAR
  5
106
100
DictionaryVariables
280
0
  1
1
  0
DICTIONARY
  5
104
100
AcDbDictionary
281
1
  3
Grid/DisplayGrid00
350
107
  3
Grid/DisplayGrid01
350
108
  3
Grid/DisplayGrid02
350
109
  3
Grid/DisplayGrid03
350
10A
  3
Grid/GridSpacingX00
350
10B
  3
Grid/GridSpacingX01
350
10C
  3
Grid/GridSpacingX02
350
10D
  3
Grid/GridSpacingX03
350
10E
  3
Grid/GridSpacingY00
350
10F
  3
Grid/GridSpacingY01
350
110
  3
Grid/GridSpacingY02
350
111
  3
Grid/GridSpacingY03
350
112
  3
Grid/IsometricGrid00
350
113
  3
Grid/IsometricGrid01
350
114
  3
Grid/IsometricGrid02
350
115
  3
Grid/IsometricGrid03
350
116
  3
Grid/IsometricProjection00
350
117
  3
Grid/IsometricProjection01
350
118
  3
Grid/IsometricProjection02
350
119
  3
Grid/IsometricProjection03
350
11A
  3
Grid/MetaGridSpacingX00
350
11B
  3
Grid/MetaGridSpacingX01
350
11C
  3
Grid/MetaGridSpacingX02
350
11D
  3
Grid/MetaGridSpacingX03
350
11E
  3
Grid/MetaGridSpacingY00
350
11F
  3
Grid/MetaGridSpacingY01
350
120
  3
Grid/MetaGridSpacingY02
350
121
  3
Grid/MetaGridSpacingY03
350
122
  3
MultiPageSettings/Columns
350
123
  3
MultiPageSettings/GlueMarginsBottom
350
124
  3
MultiPageSettings/GlueMarginsLeft
350
125
  3
MultiPageSettings/GlueMarginsRight
350
126
  3
MultiPageSettings/GlueMarginsTop
350
127
  3
MultiPageSettings/PrintCropMarks
350
128
  3
MultiPageSettings/Rows
350
129
  3
PageSettings/OffsetX
350
12A
  3
PageSettings/OffsetY
350
12B
  3
PageSettings/PageOrientation
350
12C
  3
PageSettings/PaperHeight
350
12D
  3
PageSettings/PaperWidth
350
12E
  3
PageSettings/Scale
350
12F
  3
PageSettings/ShowPaperBorders
350
130
  3
UnitSettings/PaperUnit
350
131
  0
XRECORD
  5
107
330
104
100
AcDbXrecord
280
1
290
1
  0
XRECORD
  5
108
330
104
100
AcDbXrecord
280
1
290
1
  0
XRECORD
  5
109
330
104
100
AcDbXrecord
280
1
290
1
  0
XRECORD
  5
10A
330
104
100
AcDbXrecord
280
1
290
1
  0
XRECORD
  5
10B
330
104
100
AcDbXrecord
280
1
1000
auto
  0
XRECORD
  5
10C
330
104
100
AcDbXrecord
280
1
1000
auto
  0
XRECORD
  5
10D
330
104
100
AcDbXrecord
280
1
1000
auto
  0
XRECORD
  5
10E
330
104
100
AcDbXrecord
280
1
1000
auto
  0
XRECORD
  5
10F
330
104
100
AcDbXrecord
280
1
1000
auto
  0
XRECORD
  5
110
330
104
100
AcDbXrecord
280
1
1000
auto
  0
XRECORD
  5
111
330
104
100
AcDbXrecord
280
1
1000
auto
  0
XRECORD
  5
112
330
104
100
AcDbXrecord
280
1
1000
auto
  0
XRECORD
  5
113
330
104
100
AcDbXrecord
280
1
290
0
  0
XRECORD
  5
114
330
104
100
AcDbXrecord
280
1
290
0
  0
XRECORD
  5
115
330
104
100
AcDbXrecord
280
1
290
0
  0
XRECORD
  5
116
330
104
100
AcDbXrecord
280
1
290
0
  0
XRECORD
  5
117
330
104
100
AcDbXrecord
280
1
 90
0
  0
XRECORD
  5
118
330
104
100
AcDbXrecord
280
1
 90
0
  0
XRECORD
  5
119
330
104
100
AcDbXrecord
280
1
 90
0
  0
XRECORD
  5
11A
330
104
100
AcDbXrecord
280
1
 90
0
  0
XRECORD
  5
11B
330
104
100
AcDbXrecord
280
1
1000
auto
  0
XRECORD
  5
11C
330
104
100
AcDbXrecord
280
1
1000
auto
  0
XRECORD
  5
11D
330
104
100
AcDbXrecord
280
1
1000
auto
  0
XRECORD
  5
11E
330
104
100
AcDbXrecord
280
1
1000
auto
  0
XRECORD
  5
11F
330
104
100
AcDbXrecord
280
1
1000
auto
  0
XRECORD
  5
120
330
104
100
AcDbXrecord
280
1
1000
auto
  0
XRECORD
  5
121
330
104
100
AcDbXrecord
280
1
1000
auto
  0
XRECORD
  5
122
330
104
100
AcDbXrecord
280
1
1000
auto
  0
XRECORD
  5
123
330
104
100
AcDbXrecord
280
1
 90
1
  0
XRECORD
  5
124
330
104
100
AcDbXrecord
280
1
 40
10.0
  0
XRECORD
  5
125
330
104
100
AcDbXrecord
280
1
 40
10.0
  0
XRECORD
  5
126
330
104
100
AcDbXrecord
280
1
 40
10.0
  0
XRECORD
  5
127
330
104
100
AcDbXrecord
280
1
 40
10.0
  0
XRECORD
  5
128
330
104
100
AcDbXrecord
280
1
290
0
  0
XRECORD
  5
129
330
104
100
AcDbXrecord
280
1
 90
1
  0
XRECORD
  5
12A
330
104
100
AcDbXrecord
280
1
 40
0.0
  0
XRECORD
  5
12B
330
104
100
AcDbXrecord
280
1
 40
0.0
  0
XRECORD
  5
12C
330
104
100
AcDbXrecord
280
1
1000
Portrait
  0
XRECORD
  5
12D
330
104
100
AcDbXrecord
280
1
 40
279.3999999999999773
  0
XRECORD
  5
12E
330
104
100
AcDbXrecord
280
1
 40
215.9000000000000057
  0
XRECORD
  5
12F
330
104
100
AcDbXrecord
280
1
1000
1:1
  0
XRECORD
  5
130
330
104
100
AcDbXrecord
280
1
290
1
  0
XRECORD
  5
131
330
104
100
AcDbXrecord
280
1
 90
4
  0
ENDSEC
  0
EOF
