999
dxflib 3.3.4.0
  0
SECTION
  2
HEADER
  9
$ACADVER
  1
AC1015
  9
$HANDSEED
  5
FFFF
  9
$DIMADEC
 70
0
  9
$DIMASZ
 40
2.5
  9
$DIMAUNIT
 70
0
  9
$DIMAZIN
 70
2
  9
$DIMDEC
 70
4
  9
$DIMEXE
 40
1.25
  9
$DIMEXO
 40
0.625
  9
$DIMGAP
 40
0.625
  9
$DIMLUNIT
 70
2
  9
$DIMTSZ
 40
0.0
  9
$DIMTXT
 40
2.5
  9
$DIMZIN
 70
8
  9
$DWGCODEPAGE
  3
ANSI_1252
  9
$INSUNITS
 70
4
  9
$LTSCALE
 40
1.0
  0
ENDSEC
  0
SECTION
  2
TABLES
  0
TABLE
  2
VPORT
  5
8
100
AcDbSymbolTable
 70
1
  0
VPORT
  5
30
100
AcDbSymbolTableRecord
100
AcDbViewportTableRecord
  2
*Active
 70
0
 10
0.0
 20
0.0
 11
1.0
 21
1.0
 12
286.3055555555554861
 22
148.5
 13
0.0
 23
0.0
 14
10.0
 24
10.0
 15
10.0
 25
10.0
 16
0.0
 26
0.0
 36
1.0
 17
0.0
 27
0.0
 37
0.0
 40
297.0
 41
1.92798353909465
 42
50.0
 43
0.0
 44
0.0
 50
0.0
 51
0.0
 71
0
 72
100
 73
1
 74
3
 75
1
 76
1
 77
0
 78
0
281
0
 65
1
110
0.0
120
0.0
130
0.0
111
1.0
121
0.0
131
0.0
112
0.0
122
1.0
132
0.0
 79
0
146
0.0
  0
ENDTAB
  0
TABLE
  2
LTYPE
  5
5
100
AcDbSymbolTable
 70
21
  0
LTYPE
  5
16
100
AcDbSymbolTableRecord
100
AcDbLinetypeTableRecord
  2
CONTINUOUS
 70
0
  3
Solid line
 72
65
 73
0
 40
0.0
  0
LTYPE
  5
31
100
AcDbSymbolTableRecord
100
AcDbLinetypeTableRecord
  2
CENTER2
 70
0
  3
Center (.5x) ___ _ ___ _ ___ _ ___ _ ___ _ ___
 72
65
 73
4
 40
28.5749999999999993
 49
19.0500000000000007
 74
0
 49
-3.1749999999999998
 74
0
 49
3.1749999999999998
 74
0
 49
-3.1749999999999998
 74
0
  0
LTYPE
  5
32
100
AcDbSymbolTableRecord
100
AcDbLinetypeTableRecord
  2
DIVIDEX2
 70
0
  3
Divide (2x) ________  .  .  ________  .  .  _
 72
65
 73
6
 40
63.5
 49
25.3999999999999986
 74
0
 49
-12.6999999999999993
 74
0
 49
0.0
 74
0
 49
-12.6999999999999993
 74
0
 49
0.0
 74
0
 49
-12.6999999999999993
 74
0
  0
LTYPE
  5
33
100
AcDbSymbolTableRecord
100
AcDbLinetypeTableRecord
  2
DOT2
 70
0
  3
Dot (.5x) .....................................
 72
65
 73
2
 40
3.1749999999999998
 49
0.0
 74
0
 49
-3.1749999999999998
 74
0
  0
LTYPE
  5
34
100
AcDbSymbolTableRecord
100
AcDbLinetypeTableRecord
  2
DASHDOT2
 70
0
  3
Dash dot (.5x) _._._._._._._._._._._._._._._.
 72
65
 73
4
 40
12.6999999999999993
 49
6.3499999999999996
 74
0
 49
-3.1749999999999998
 74
0
 49
0.0
 74
0
 49
-3.1749999999999998
 74
0
  0
LTYPE
  5
35
100
AcDbSymbolTableRecord
100
AcDbLinetypeTableRecord
  2
DIVIDE
 70
0
  3
Divide ____ . . ____ . . ____ . . ____ . . ____
 72
65
 73
6
 40
31.75
 49
12.6999999999999993
 74
0
 49
-6.3499999999999996
 74
0
 49
0.0
 74
0
 49
-6.3499999999999996
 74
0
 49
0.0
 74
0
 49
-6.3499999999999996
 74
0
  0
LTYPE
  5
36
100
AcDbSymbolTableRecord
100
AcDbLinetypeTableRecord
  2
DASHDOT
 70
0
  3
Dash dot __ . __ . __ . __ . __ . __ . __ . __
 72
65
 73
4
 40
25.3999999999999986
 49
12.6999999999999993
 74
0
 49
-6.3499999999999996
 74
0
 49
0.0
 74
0
 49
-6.3499999999999996
 74
0
  0
LTYPE
  5
37
100
AcDbSymbolTableRecord
100
AcDbLinetypeTableRecord
  2
BORDER
 70
0
  3
Border __ __ . __ __ . __ __ . __ __ . __ __ .
 72
65
 73
6
 40
44.4500000000000028
 49
12.6999999999999993
 74
0
 49
-6.3499999999999996
 74
0
 49
12.6999999999999993
 74
0
 49
-6.3499999999999996
 74
0
 49
0.0
 74
0
 49
-6.3499999999999996
 74
0
  0
LTYPE
  5
38
100
AcDbSymbolTableRecord
100
AcDbLinetypeTableRecord
  2
DASHDOTX2
 70
0
  3
Dash dot (2x) ____  .  ____  .  ____  .  ___
 72
65
 73
4
 40
50.7999999999999972
 49
25.3999999999999986
 74
0
 49
-12.6999999999999993
 74
0
 49
0.0
 74
0
 49
-12.6999999999999993
 74
0
  0
LTYPE
  5
39
100
AcDbSymbolTableRecord
100
AcDbLinetypeTableRecord
  2
CENTERX2
 70
0
  3
Center (2x) ________  __  ________  __  _____
 72
65
 73
4
 40
101.5999999999999943
 49
63.5
 74
0
 49
-12.6999999999999993
 74
0
 49
12.6999999999999993
 74
0
 49
-12.6999999999999993
 74
0
  0
LTYPE
  5
3A
100
AcDbSymbolTableRecord
100
AcDbLinetypeTableRecord
  2
BORDER2
 70
0
  3
Border (.5x) __.__.__.__.__.__.__.__.__.__.__.
 72
65
 73
6
 40
22.2250000000000014
 49
6.3499999999999996
 74
0
 49
-3.1749999999999998
 74
0
 49
6.3499999999999996
 74
0
 49
-3.1749999999999998
 74
0
 49
0.0
 74
0
 49
-3.1749999999999998
 74
0
  0
LTYPE
  5
3B
100
AcDbSymbolTableRecord
100
AcDbLinetypeTableRecord
  2
BORDERX2
 70
0
  3
Border (2x) ____  ____  .  ____  ____  .  ___
 72
65
 73
6
 40
88.9000000000000057
 49
25.3999999999999986
 74
0
 49
-12.6999999999999993
 74
0
 49
25.3999999999999986
 74
0
 49
-12.6999999999999993
 74
0
 49
0.0
 74
0
 49
-12.6999999999999993
 74
0
  0
LTYPE
  5
14
100
AcDbSymbolTableRecord
100
AcDbLinetypeTableRecord
  2
BYBLOCK
 70
0
  3

 72
65
 73
0
 40
0.0
  0
LTYPE
  5
15
100
AcDbSymbolTableRecord
100
AcDbLinetypeTableRecord
  2
BYLAYER
 70
0
  3

 72
65
 73
0
 40
0.0
  0
LTYPE
  5
3C
100
AcDbSymbolTableRecord
100
AcDbLinetypeTableRecord
  2
DASHED2
 70
0
  3
Dashed (.5x) _ _ _ _ _ _ _ _ _ _ _ _ _ _ _ _ _
 72
65
 73
2
 40
9.5250000000000004
 49
6.3499999999999996
 74
0
 49
-3.1749999999999998
 74
0
  0
LTYPE
  5
3D
100
AcDbSymbolTableRecord
100
AcDbLinetypeTableRecord
  2
CENTER
 70
0
  3
Center ____ _ ____ _ ____ _ ____ _ ____ _ ____
 72
65
 73
4
 40
50.7999999999999972
 49
31.75
 74
0
 49
-6.3499999999999996
 74
0
 49
6.3499999999999996
 74
0
 49
-6.3499999999999996
 74
0
  0
LTYPE
  5
3E
100
AcDbSymbolTableRecord
100
AcDbLinetypeTableRecord
  2
DIVIDE2
 70
0
  3
Divide (.5x) __..__..__..__..__..__..__..__.._
 72
65
 73
6
 40
15.875
 49
6.3499999999999996
 74
0
 49
-3.1749999999999998
 74
0
 49
0.0
 74
0
 49
-3.1749999999999998
 74
0
 49
0.0
 74
0
 49
-3.1749999999999998
 74
0
  0
LTYPE
  5
3F
100
AcDbSymbolTableRecord
100
AcDbLinetypeTableRecord
  2
DASHED
 70
0
  3
Dashed __ __ __ __ __ __ __ __ __ __ __ __ __ _
 72
65
 73
2
 40
19.0500000000000007
 49
12.6999999999999993
 74
0
 49
-6.3499999999999996
 74
0
  0
LTYPE
  5
40
100
AcDbSymbolTableRecord
100
AcDbLinetypeTableRecord
  2
DOTX2
 70
0
  3
Dot (2x) .  .  .  .  .  .  .  .  .  .  .  .  .
 72
65
 73
2
 40
12.6999999999999993
 49
0.0
 74
0
 49
-12.6999999999999993
 74
0
  0
LTYPE
  5
41
100
AcDbSymbolTableRecord
100
AcDbLinetypeTableRecord
  2
DASHEDX2
 70
0
  3
Dashed (2x) ____  ____  ____  ____  ____  ___
 72
65
 73
2
 40
38.1000000000000014
 49
25.3999999999999986
 74
0
 49
-12.6999999999999993
 74
0
  0
LTYPE
  5
42
100
AcDbSymbolTableRecord
100
AcDbLinetypeTableRecord
  2
DOT
 70
0
  3
Dot . . . . . . . . . . . . . . . . . . . . . .
 72
65
 73
2
 40
6.3499999999999996
 49
0.0
 74
0
 49
-6.3499999999999996
 74
0
  0
ENDTAB
  0
TABLE
  2
LAYER
  5
2
100
AcDbSymbolTable
 70
1
  0
LAYER
  5
10
100
AcDbSymbolTableRecord
100
AcDbLayerTableRecord
  2
0
 70
0
 62
7
420
0
  6
CONTINUOUS
370
25
390
F
  0
ENDTAB
  0
TABLE
  2
STYLE
  5
3
100
AcDbSymbolTable
 70
13
  0
STYLE
  5
43
100
AcDbSymbolTableRecord
100
AcDbTextStyleTableRecord
  2
Standard
 70
0
 40
0.0
 41
1.0
 50
0.0
 71
0
 42
2.5
  3

  4

1001
ACAD
1000
txt
1071
0
  0
STYLE
  5
44
100
AcDbSymbolTableRecord
100
AcDbTextStyleTableRecord
  2
textstyle0
 70
0
 40
0.0
 41
1.0
 50
0.0
 71
0
 42
8.0
  3

  4

1001
ACAD
1000
Arial
1071
0
  0
STYLE
  5
45
100
AcDbSymbolTableRecord
100
AcDbTextStyleTableRecord
  2
textstyle1
 70
0
 40
0.0
 41
1.0
 50
0.0
 71
0
 42
8.0
  3

  4

1001
ACAD
1000
Arial
1071
0
  0
STYLE
  5
46
100
AcDbSymbolTableRecord
100
AcDbTextStyleTableRecord
  2
textstyle2
 70
0
 40
0.0
 41
1.0
 50
0.0
 71
0
 42
8.0
  3

  4

1001
ACAD
1000
Arial
1071
0
  0
STYLE
  5
47
100
AcDbSymbolTableRecord
100
AcDbTextStyleTableRecord
  2
textstyle3
 70
0
 40
0.0
 41
1.0
 50
0.0
 71
0
 42
8.0
  3

  4

1001
ACAD
1000
Arial
1071
0
  0
STYLE
  5
48
100
AcDbSymbolTableRecord
100
AcDbTextStyleTableRecord
  2
textstyle4
 70
0
 40
0.0
 41
1.0
 50
0.0
 71
0
 42
8.0
  3

  4

1001
ACAD
1000
Arial
1071
0
  0
STYLE
  5
49
100
AcDbSymbolTableRecord
100
AcDbTextStyleTableRecord
  2
textstyle5
 70
0
 40
0.0
 41
1.0
 50
0.0
 71
0
 42
8.0
  3

  4

1001
ACAD
1000
Arial
1071
0
  0
STYLE
  5
4A
100
AcDbSymbolTableRecord
100
AcDbTextStyleTableRecord
  2
textstyle6
 70
0
 40
0.0
 41
1.0
 50
0.0
 71
0
 42
8.0
  3

  4

1001
ACAD
1000
Arial
1071
0
  0
STYLE
  5
4B
100
AcDbSymbolTableRecord
100
AcDbTextStyleTableRecord
  2
textstyle7
 70
0
 40
0.0
 41
1.0
 50
0.0
 71
0
 42
8.0
  3

  4

1001
ACAD
1000
Arial
1071
0
  0
STYLE
  5
4C
100
AcDbSymbolTableRecord
100
AcDbTextStyleTableRecord
  2
textstyle8
 70
0
 40
0.0
 41
1.0
 50
0.0
 71
0
 42
8.0
  3

  4

1001
ACAD
1000
Arial
1071
0
  0
STYLE
  5
4D
100
AcDbSymbolTableRecord
100
AcDbTextStyleTableRecord
  2
textstyle9
 70
0
 40
0.0
 41
1.0
 50
0.0
 71
0
 42
8.0
  3

  4

1001
ACAD
1000
Arial
1071
0
  0
STYLE
  5
4E
100
AcDbSymbolTableRecord
100
AcDbTextStyleTableRecord
  2
textstyle10
 70
0
 40
0.0
 41
1.0
 50
0.0
 71
0
 42
8.0
  3

  4

1001
ACAD
1000
Arial
1071
0
  0
STYLE
  5
4F
100
AcDbSymbolTableRecord
100
AcDbTextStyleTableRecord
  2
textstyle11
 70
0
 40
0.0
 41
1.0
 50
0.0
 71
0
 42
8.0
  3

  4

1001
ACAD
1000
Arial
1071
0
  0
ENDTAB
  0
TABLE
  2
VIEW
  5
6
100
AcDbSymbolTable
 70
0
  0
ENDTAB
  0
TABLE
  2
UCS
  5
7
100
AcDbSymbolTable
 70
0
  0
ENDTAB
  0
TABLE
  2
APPID
  5
9
100
AcDbSymbolTable
 70
1
  0
APPID
  5
12
100
AcDbSymbolTableRecord
100
AcDbRegAppTableRecord
  2
ACAD
 70
0
  0
APPID
  5
50
100
AcDbSymbolTableRecord
100
AcDbRegAppTableRecord
  2
QCAD
 70
0
  0
ENDTAB
  0
TABLE
  2
DIMSTYLE
  5
A
100
AcDbSymbolTable
 70
1
100
AcDbDimStyleTable
 71
0
  0
DIMSTYLE
105
27
100
AcDbSymbolTableRecord
100
AcDbDimStyleTableRecord
  2
Standard
 41
2.5
 42
0.625
 43
3.75
 44
1.25
 70
0
 73
0
 74
0
 77
1
 78
8
140
2.5
141
2.5
143
0.03937007874016
147
0.625
171
3
172
1
271
2
272
2
274
3
278
44
283
0
284
8
340
43
  0
ENDTAB
  0
TABLE
  2
BLOCK_RECORD
  5
1
100
AcDbSymbolTable
 70
1
  0
BLOCK_RECORD
  5
1F
100
AcDbSymbolTableRecord
100
AcDbBlockTableRecord
  2
*Model_Space
340
22
  0
BLOCK_RECORD
  5
1B
100
AcDbSymbolTableRecord
100
AcDbBlockTableRecord
  2
*Paper_Space
340
1E
  0
BLOCK_RECORD
  5
23
100
AcDbSymbolTableRecord
100
AcDbBlockTableRecord
  2
*Paper_Space0
340
26
  0
BLOCK_RECORD
  5
51
100
AcDbSymbolTableRecord
100
AcDbBlockTableRecord
  2
femur_horizontal
340
0
  0
BLOCK_RECORD
  5
52
100
AcDbSymbolTableRecord
100
AcDbBlockTableRecord
  2
body_bottom
340
0
  0
BLOCK_RECORD
  5
53
100
AcDbSymbolTableRecord
100
AcDbBlockTableRecord
  2
femur_tibia
340
0
  0
BLOCK_RECORD
  5
54
100
AcDbSymbolTableRecord
100
AcDbBlockTableRecord
  2
femur_vertical
340
0
  0
BLOCK_RECORD
  5
55
100
AcDbSymbolTableRecord
100
AcDbBlockTableRecord
  2
body_middle
340
0
  0
BLOCK_RECORD
  5
56
100
AcDbSymbolTableRecord
100
AcDbBlockTableRecord
  2
battery_holder
340
0
  0
BLOCK_RECORD
  5
57
100
AcDbSymbolTableRecord
100
AcDbBlockTableRecord
  2
servi_top
340
0
  0
BLOCK_RECORD
  5
58
100
AcDbSymbolTableRecord
100
AcDbBlockTableRecord
  2
servo_mount
340
0
  0
BLOCK_RECORD
  5
59
100
AcDbSymbolTableRecord
100
AcDbBlockTableRecord
  2
tibia
340
0
  0
ENDTAB
  0
ENDSEC
  0
SECTION
  2
BLOCKS
  0
BLOCK
  5
20
100
AcDbEntity
  8
0
100
AcDbBlockBegin
  2
*Model_Space
 70
0
 10
0.0
 20
0.0
 30
0.0
  3
*Model_Space
  1

  0
ENDBLK
  5
21
100
AcDbEntity
  8
0
100
AcDbBlockEnd
  0
BLOCK
  5
1C
100
AcDbEntity
 67
1
  8
0
100
AcDbBlockBegin
  2
*Paper_Space
 70
0
 10
0.0
 20
0.0
 30
0.0
  3
*Paper_Space
  1

  0
ENDBLK
  5
1D
100
AcDbEntity
 67
1
  8
0
100
AcDbBlockEnd
  0
BLOCK
  5
24
100
AcDbEntity
  8
0
100
AcDbBlockBegin
  2
*Paper_Space0
 70
0
 10
0.0
 20
0.0
 30
0.0
  3
*Paper_Space0
  1

  0
ENDBLK
  5
25
100
AcDbEntity
  8
0
100
AcDbBlockEnd
  0
BLOCK
  5
5A
100
AcDbEntity
  8
0
100
AcDbBlockBegin
  2
femur_horizontal
 70
0
 10
0.0
 20
0.0
 30
0.0
  3
femur_horizontal
  1

  0
ARC
  5
5B
100
AcDbEntity
  8
0
 62
252
420
10526884
370
-1
  6
BYLAYER
100
AcDbCircle
 10
-15.0
 20
-2.5
 30
0.0
 40
5.0
100
AcDbArc
 50
180.0
 51
240.0
  0
ARC
  5
5C
100
AcDbEntity
  8
0
 62
252
420
10526884
370
-1
  6
BYLAYER
100
AcDbCircle
 10
-0.9999999999999973
 20
-12.5
 30
0.0
 40
5.0
100
AcDbArc
 50
90.0
 51
180.0
  0
ARC
  5
5D
100
AcDbEntity
  8
0
 62
252
420
10526884
370
-1
  6
BYLAYER
100
AcDbCircle
 10
-10.9999999999999982
 20
-12.4999999999999982
 30
0.0
 40
5.0
100
AcDbArc
 50
180.0
 51
360.0
  0
LINE
  5
5E
100
AcDbEntity
100
AcDbLine
  8
0
 62
252
420
10526884
370
-1
  6
BYLAYER
 10
-15.9999999999999982
 20
-12.4999999999999982
 30
0.0
 11
-15.9999999999999982
 21
-9.428203230275507
 31
0.0
  0
ARC
  5
5F
100
AcDbEntity
  8
0
 62
252
420
10526884
370
-1
  6
BYLAYER
100
AcDbCircle
 10
-19.0
 20
-9.428203230275507
 30
0.0
 40
3.0
100
AcDbArc
 50
0.0
 51
59.9999999999999858
  0
CIRCLE
  5
60
100
AcDbEntity
100
AcDbCircle
  8
0
 62
252
420
10526884
370
-1
  6
BYLAYER
 10
-10.9999999999999982
 20
-12.4999999999999982
 30
0.0
 40
0.5
  0
ARC
  5
61
100
AcDbEntity
  8
0
 62
252
420
10526884
370
-1
  6
BYLAYER
100
AcDbCircle
 10
8.9999999999999982
 20
6.5
 30
0.0
 40
1.0
100
AcDbArc
 50
0.0
 51
90.0
  0
ARC
  5
62
100
AcDbEntity
  8
0
 62
252
420
10526884
370
-1
  6
BYLAYER
100
AcDbCircle
 10
9.0
 20
-6.5
 30
0.0
 40
1.0
100
AcDbArc
 50
270.0
 51
0.0
  0
LINE
  5
63
100
AcDbEntity
100
AcDbLine
  8
0
 62
252
420
10526884
370
-1
  6
BYLAYER
 10
-0.9999999999999973
 20
-7.5
 30
0.0
 11
9.0
 21
-7.5
 31
0.0
  0
LINE
  5
64
100
AcDbEntity
100
AcDbLine
  8
0
 62
252
420
10526884
370
-1
  6
BYLAYER
 10
8.9999999999999982
 20
7.5
 30
0.0
 11
-15.0
 21
7.5
 31
0.0
  0
LINE
  5
65
100
AcDbEntity
100
AcDbLine
  8
0
 62
252
420
10526884
370
-1
  6
BYLAYER
 10
-20.0
 20
2.5
 30
0.0
 11
-20.0
 21
-2.5
 31
0.0
  0
LINE
  5
66
100
AcDbEntity
100
AcDbLine
  8
0
 62
252
420
10526884
370
-1
  6
BYLAYER
 10
0.0
 20
-3.1749999999999972
 30
0.0
 11
10.0
 21
-3.1749999999999972
 31
0.0
  0
LINE
  5
67
100
AcDbEntity
100
AcDbLine
  8
0
 62
252
420
10526884
370
-1
  6
BYLAYER
 10
10.0
 20
3.1750000000000007
 30
0.0
 11
0.0
 21
3.1750000000000007
 31
0.0
  0
LINE
  5
68
100
AcDbEntity
100
AcDbLine
  8
0
 62
252
420
10526884
370
-1
  6
BYLAYER
 10
0.0
 20
3.1750000000000007
 30
0.0
 11
0.0
 21
-3.1749999999999972
 31
0.0
  0
LINE
  5
69
100
AcDbEntity
100
AcDbLine
  8
0
 62
252
420
10526884
370
-1
  6
BYLAYER
 10
10.0
 20
3.1750000000000007
 30
0.0
 11
10.0
 21
6.5
 31
0.0
  0
LINE
  5
6A
100
AcDbEntity
100
AcDbLine
  8
0
 62
252
420
10526884
370
-1
  6
BYLAYER
 10
10.0
 20
-3.1749999999999972
 30
0.0
 11
10.0
 21
-6.5
 31
0.0
  0
ARC
  5
6B
100
AcDbEntity
  8
0
 62
252
420
10526884
370
-1
  6
BYLAYER
100
AcDbCircle
 10
-15.0
 20
2.5
 30
0.0
 40
5.0
100
AcDbArc
 50
90.0
 51
180.0
  0
CIRCLE
  5
6C
100
AcDbEntity
100
AcDbCircle
  8
0
 62
252
420
10526884
370
-1
  6
BYLAYER
 10
-14.9999999999999982
 20
0.0
 30
0.0
 40
1.5
  0
ENDBLK
  5
6D
100
AcDbEntity
  8
0
100
AcDbBlockEnd
  0
BLOCK
  5
6E
100
AcDbEntity
  8
0
100
AcDbBlockBegin
  2
body_bottom
 70
0
 10
0.0
 20
0.0
 30
0.0
  3
body_bottom
  1

  0
INSERT
  5
6F
100
AcDbEntity
100
AcDbBlockReference
  8
0
 62
256
370
-1
  6
BYLAYER
  2
battery_holder
 10
0.0
 20
0.0
 30
0.0
  0
LINE
  5
70
100
AcDbEntity
100
AcDbLine
  8
0
 62
256
370
-1
  6
BYLAYER
 10
43.3012701892218956
 20
22.1132486540518443
 30
0.0
 11
43.3012701892218956
 21
-22.1132486540518869
 31
0.0
  0
LINE
  5
71
100
AcDbEntity
100
AcDbLine
  8
0
 62
256
370
-1
  6
BYLAYER
 10
2.5000000000000284
 20
48.5566243270259292
 30
0.0
 11
40.8012701892218956
 21
26.4433756729740566
 31
0.0
  0
LINE
  5
72
100
AcDbEntity
100
AcDbLine
  8
0
 62
256
370
-1
  6
BYLAYER
 10
40.8012701892218956
 20
-26.4433756729740992
 30
0.0
 11
2.4999999999999716
 21
-48.5566243270259577
 31
0.0
  0
LINE
  5
73
100
AcDbEntity
100
AcDbLine
  8
0
 62
256
370
-1
  6
BYLAYER
 10
-43.3012701892219525
 20
22.1132486540518869
 30
0.0
 11
-43.3012701892220093
 21
-22.1132486540518585
 31
0.0
  0
LINE
  5
74
100
AcDbEntity
100
AcDbLine
  8
0
 62
256
370
-1
  6
BYLAYER
 10
-2.4999999999999716
 20
48.5566243270259577
 30
0.0
 11
-40.8012701892219525
 21
26.443375672974085
 31
0.0
  0
LINE
  5
75
100
AcDbEntity
100
AcDbLine
  8
0
 62
256
370
-1
  6
BYLAYER
 10
-40.8012701892220093
 20
-26.4433756729740423
 30
0.0
 11
-2.5000000000000284
 21
-48.5566243270259861
 31
0.0
  0
CIRCLE
  5
76
100
AcDbEntity
100
AcDbCircle
  8
0
 62
256
370
-1
  6
BYLAYER
 10
-38.9711431702996833
 20
22.5000000000000711
 30
0.0
 40
1.0
  0
CIRCLE
  5
77
100
AcDbEntity
100
AcDbCircle
  8
0
 62
256
370
-1
  6
BYLAYER
 10
-38.971143170299797
 20
-22.4999999999999147
 30
0.0
 40
1.0
  0
CIRCLE
  5
78
100
AcDbEntity
100
AcDbCircle
  8
0
 62
256
370
-1
  6
BYLAYER
 10
-0.0000000000001137
 20
-45.0000000000000284
 30
0.0
 40
1.0
  0
CIRCLE
  5
79
100
AcDbEntity
100
AcDbCircle
  8
0
 62
256
370
-1
  6
BYLAYER
 10
38.9711431702996833
 20
-22.5000000000000853
 30
0.0
 40
1.0
  0
CIRCLE
  5
7A
100
AcDbEntity
100
AcDbCircle
  8
0
 62
256
370
-1
  6
BYLAYER
 10
38.971143170299797
 20
22.4999999999998721
 30
0.0
 40
1.0
  0
CIRCLE
  5
7B
100
AcDbEntity
100
AcDbCircle
  8
0
 62
256
370
-1
  6
BYLAYER
 10
0.0000000000001137
 20
44.9999999999999858
 30
0.0
 40
1.0
  0
LINE
  5
7C
100
AcDbEntity
100
AcDbLine
  8
0
 62
256
370
-1
  6
BYLAYER
 10
-20.0
 20
-20.0
 30
0.0
 11
20.0
 21
-20.0
 31
0.0
  0
LINE
  5
7D
100
AcDbEntity
100
AcDbLine
  8
0
 62
256
370
-1
  6
BYLAYER
 10
25.0
 20
-15.0000000000000284
 30
0.0
 11
25.0
 21
15.0000000000000142
 31
0.0
  0
LINE
  5
7E
100
AcDbEntity
100
AcDbLine
  8
0
 62
256
370
-1
  6
BYLAYER
 10
20.0
 20
20.0
 30
0.0
 11
-20.0
 21
20.0
 31
0.0
  0
LINE
  5
7F
100
AcDbEntity
100
AcDbLine
  8
0
 62
256
370
-1
  6
BYLAYER
 10
-25.0
 20
15.0
 30
0.0
 11
-25.0
 21
-15.0
 31
0.0
  0
ARC
  5
80
100
AcDbEntity
  8
0
 62
256
370
-1
  6
BYLAYER
100
AcDbCircle
 10
-20.0
 20
15.0
 30
0.0
 40
5.0
100
AcDbArc
 50
90.0
 51
180.0
  0
ARC
  5
81
100
AcDbEntity
  8
0
 62
256
370
-1
  6
BYLAYER
100
AcDbCircle
 10
20.0
 20
15.0000000000000142
 30
0.0
 40
5.0
100
AcDbArc
 50
0.0
 51
90.0
  0
ARC
  5
82
100
AcDbEntity
  8
0
 62
256
370
-1
  6
BYLAYER
100
AcDbCircle
 10
20.0
 20
-15.0000000000000284
 30
0.0
 40
5.0
100
AcDbArc
 50
270.0
 51
0.0
  0
ARC
  5
83
100
AcDbEntity
  8
0
 62
256
370
-1
  6
BYLAYER
100
AcDbCircle
 10
-20.0
 20
-15.0
 30
0.0
 40
5.0
100
AcDbArc
 50
180.0
 51
270.0
  0
ARC
  5
84
100
AcDbEntity
  8
0
 62
256
370
-1
  6
BYLAYER
100
AcDbCircle
 10
0.0000000000000284
 20
44.2264973081037596
 30
0.0
 40
5.0
100
AcDbArc
 50
59.999999999999865
 51
119.9999999999999716
  0
ARC
  5
85
100
AcDbEntity
  8
0
 62
256
370
-1
  6
BYLAYER
100
AcDbCircle
 10
38.3012701892218814
 20
22.1132486540518443
 30
0.0
 40
5.0
100
AcDbArc
 50
0.0
 51
59.9999999999999645
  0
ARC
  5
86
100
AcDbEntity
  8
0
 62
256
370
-1
  6
BYLAYER
100
AcDbCircle
 10
38.3012701892218956
 20
-22.1132486540518869
 30
0.0
 40
5.0
100
AcDbArc
 50
299.9999999999998295
 51
0.0
  0
ARC
  5
87
100
AcDbEntity
  8
0
 62
256
370
-1
  6
BYLAYER
100
AcDbCircle
 10
-0.0000000000000284
 20
-44.2264973081037738
 30
0.0
 40
5.0
100
AcDbArc
 50
240.0000000000001421
 51
300.0000000000000568
  0
ARC
  5
88
100
AcDbEntity
  8
0
 62
256
370
-1
  6
BYLAYER
100
AcDbCircle
 10
-38.3012701892220093
 20
-22.1132486540518585
 30
0.0
 40
5.0
100
AcDbArc
 50
180.0
 51
239.9999999999999432
  0
ARC
  5
89
100
AcDbEntity
  8
0
 62
256
370
-1
  6
BYLAYER
100
AcDbCircle
 10
-38.3012701892219525
 20
22.1132486540518869
 30
0.0
 40
5.0
100
AcDbArc
 50
119.9999999999999716
 51
180.0
  0
LINE
  5
8A
100
AcDbEntity
100
AcDbLine
  8
0
 62
256
370
-1
  6
BYLAYER
 10
-30.0
 20
9.8149545762236841
 30
0.0
 11
-30.0
 21
-9.814954576223613
 31
0.0
  0
LINE
  5
8B
100
AcDbEntity
100
AcDbLine
  8
0
 62
256
370
-1
  6
BYLAYER
 10
-38.3012701892219525
 20
11.1435935394490429
 30
0.0
 11
-38.3012701892220093
 21
-11.1435935394490286
 31
0.0
  0
LINE
  5
8C
100
AcDbEntity
100
AcDbLine
  8
0
 62
256
370
-1
  6
BYLAYER
 10
-33.8012701892219809
 20
13.7416697508023589
 30
0.0
 11
-31.5
 21
12.4130307875769859
 31
0.0
  0
LINE
  5
8D
100
AcDbEntity
100
AcDbLine
  8
0
 62
256
370
-1
  6
BYLAYER
 10
-33.8012701892220093
 20
-13.7416697508023162
 30
0.0
 11
-31.4999999999999716
 21
-12.413030787576929
 31
0.0
  0
ARC
  5
8E
100
AcDbEntity
  8
0
 62
256
370
-1
  6
BYLAYER
100
AcDbCircle
 10
-35.3012701892220093
 20
-11.1435935394490286
 30
0.0
 40
3.0
100
AcDbArc
 50
180.0
 51
300.0000000000002274
  0
ARC
  5
8F
100
AcDbEntity
  8
0
 62
256
370
-1
  6
BYLAYER
100
AcDbCircle
 10
-32.9999999999999716
 20
-9.814954576223613
 30
0.0
 40
3.0
100
AcDbArc
 50
300.0
 51
0.0
  0
ARC
  5
90
100
AcDbEntity
  8
0
 62
256
370
-1
  6
BYLAYER
100
AcDbCircle
 10
-33.0
 20
9.8149545762236841
 30
0.0
 40
3.0
100
AcDbArc
 50
0.0
 51
59.999999999999865
  0
ARC
  5
91
100
AcDbEntity
  8
0
 62
256
370
-1
  6
BYLAYER
100
AcDbCircle
 10
-35.3012701892219809
 20
11.1435935394490429
 30
0.0
 40
3.0
100
AcDbArc
 50
60.0000000000000071
 51
180.0
  0
LINE
  5
92
100
AcDbEntity
100
AcDbLine
  8
0
 62
256
370
-1
  6
BYLAYER
 10
30.0000000000000995
 20
9.8149545762235846
 30
0.0
 11
30.0000000000000142
 21
-9.8149545762237267
 31
0.0
  0
LINE
  5
93
100
AcDbEntity
100
AcDbLine
  8
0
 62
256
370
-1
  6
BYLAYER
 10
38.3012701892220377
 20
11.1435935394488865
 30
0.0
 11
38.3012701892220235
 21
-11.1435935394491992
 31
0.0
  0
LINE
  5
94
100
AcDbEntity
100
AcDbLine
  8
0
 62
256
370
-1
  6
BYLAYER
 10
33.8012701892220946
 20
13.741669750802231
 30
0.0
 11
31.5000000000001279
 21
12.4130307875768722
 31
0.0
  0
LINE
  5
95
100
AcDbEntity
100
AcDbLine
  8
0
 62
256
370
-1
  6
BYLAYER
 10
33.8012701892220093
 20
-13.7416697508024299
 30
0.0
 11
31.5000000000000142
 21
-12.4130307875770143
 31
0.0
  0
ARC
  5
96
100
AcDbEntity
  8
0
 62
256
370
-1
  6
BYLAYER
100
AcDbCircle
 10
35.3012701892220377
 20
-11.1435935394491423
 30
0.0
 40
3.0
100
AcDbArc
 50
239.9999999999995168
 51
360.0
  0
ARC
  5
97
100
AcDbEntity
  8
0
 62
256
370
-1
  6
BYLAYER
100
AcDbCircle
 10
33.0000000000000284
 20
-9.8149545762237267
 30
0.0
 40
3.0
100
AcDbArc
 50
180.0
 51
239.9999999999998295
  0
ARC
  5
98
100
AcDbEntity
  8
0
 62
256
370
-1
  6
BYLAYER
100
AcDbCircle
 10
33.0000000000000853
 20
9.8149545762235562
 30
0.0
 40
3.0
100
AcDbArc
 50
119.9999999999998295
 51
180.0
  0
ARC
  5
99
100
AcDbEntity
  8
0
 62
256
370
-1
  6
BYLAYER
100
AcDbCircle
 10
35.3012701892221088
 20
11.1435935394489292
 30
0.0
 40
3.0
100
AcDbArc
 50
360.0
 51
119.99999999999973
  0
CIRCLE
  5
9A
100
AcDbEntity
100
AcDbCircle
  8
0
 62
256
370
-1
  6
BYLAYER
 10
0.0000000000000142
 20
34.9999999999999858
 30
0.0
 40
2.0
  0
CIRCLE
  5
9B
100
AcDbEntity
100
AcDbCircle
  8
0
 62
256
370
-1
  6
BYLAYER
 10
0.0
 20
-34.9999999999999858
 30
0.0
 40
2.0
  0
ARC
  5
9C
100
AcDbEntity
  8
0
 62
256
370
-1
  6
BYLAYER
100
AcDbCircle
 10
-7.7055398066734284
 20
-32.8494985961940102
 30
0.0
 40
3.0
100
AcDbArc
 50
240.0
 51
344.4063736581757098
  0
ARC
  5
9D
100
AcDbEntity
  8
0
 62
256
370
-1
  6
BYLAYER
100
AcDbCircle
 10
7.7055398066734142
 20
-32.8494985961939676
 30
0.0
 40
3.0
100
AcDbArc
 50
195.5936263418245176
 51
300.0
  0
ARC
  5
9E
100
AcDbEntity
  8
0
 62
256
370
-1
  6
BYLAYER
100
AcDbCircle
 10
-5.9422218066982424
 20
-26.0
 30
0.0
 40
3.0
100
AcDbArc
 50
31.9089827353176219
 51
90.0
  0
ARC
  5
9F
100
AcDbEntity
  8
0
 62
256
370
-1
  6
BYLAYER
100
AcDbCircle
 10
5.9422218066981998
 20
-26.0
 30
0.0
 40
3.0
100
AcDbArc
 50
90.0
 51
148.0910172646822787
  0
ARC
  5
A0
100
AcDbEntity
  8
0
 62
256
370
-1
  6
BYLAYER
100
AcDbCircle
 10
-27.0333209967908914
 20
-24.0
 30
0.0
 40
1.0
100
AcDbArc
 50
90.0
 51
239.9999999999997442
  0
ARC
  5
A1
100
AcDbEntity
  8
0
 62
256
370
-1
  6
BYLAYER
100
AcDbCircle
 10
27.0333209967908914
 20
-23.9999999999999858
 30
0.0
 40
1.0
100
AcDbArc
 50
299.9999999999997726
 51
90.0
  0
LINE
  5
A2
100
AcDbEntity
100
AcDbLine
  8
0
 62
256
370
-1
  6
BYLAYER
 10
-27.5333209967908914
 20
-24.8660254037844339
 30
0.0
 11
-9.2055398066734284
 21
-35.4475748075473263
 31
0.0
  0
LINE
  5
A3
100
AcDbEntity
100
AcDbLine
  8
0
 62
256
370
-1
  6
BYLAYER
 10
27.5333209967908772
 20
-24.8660254037844126
 30
0.0
 11
9.2055398066734142
 21
-35.4475748075472836
 31
0.0
  0
LINE
  5
A4
100
AcDbEntity
100
AcDbLine
  8
0
 62
256
370
-1
  6
BYLAYER
 10
-27.0333209967908914
 20
-23.0
 30
0.0
 11
-5.9422218066982424
 21
-23.0
 31
0.0
  0
ARC
  5
A5
100
AcDbEntity
  8
0
 62
256
370
-1
  6
BYLAYER
100
AcDbCircle
 10
-0.0000000000000284
 20
-22.2999999999999972
 30
0.0
 40
4.0
100
AcDbArc
 50
211.9089827353177213
 51
328.0910172646824776
  0
LINE
  5
A6
100
AcDbEntity
100
AcDbLine
  8
0
 62
256
370
-1
  6
BYLAYER
 10
5.9422218066981998
 20
-23.0
 30
0.0
 11
27.0333209967908914
 21
-22.9999999999999858
 31
0.0
  0
ARC
  5
A7
100
AcDbEntity
  8
0
 62
256
370
-1
  6
BYLAYER
100
AcDbCircle
 10
0.0
 20
-34.9999999999999858
 30
0.0
 40
5.0
100
AcDbArc
 50
15.5936263418245549
 51
164.4063736581757951
  0
ARC
  5
A8
100
AcDbEntity
  8
0
 62
256
370
-1
  6
BYLAYER
100
AcDbCircle
 10
0.0000000000000213
 20
34.9999999999999716
 30
0.0
 40
5.0
100
AcDbArc
 50
195.5936263418241481
 51
344.4063736581754256
  0
ARC
  5
A9
100
AcDbEntity
  8
0
 62
256
370
-1
  6
BYLAYER
100
AcDbCircle
 10
-7.7055398066734213
 20
32.8494985961940316
 30
0.0
 40
3.0
100
AcDbArc
 50
15.5936263418242458
 51
120.0000000000000711
  0
ARC
  5
AA
100
AcDbEntity
  8
0
 62
256
370
-1
  6
BYLAYER
100
AcDbCircle
 10
7.7055398066734284
 20
32.8494985961939889
 30
0.0
 40
3.0
100
AcDbArc
 50
60.0000000000000142
 51
164.4063736581755109
  0
ARC
  5
AB
100
AcDbEntity
  8
0
 62
256
370
-1
  6
BYLAYER
100
AcDbCircle
 10
-5.9422218066982282
 20
26.0000000000000142
 30
0.0
 40
3.0
100
AcDbArc
 50
270.0
 51
328.0910172646823071
  0
ARC
  5
AC
100
AcDbEntity
  8
0
 62
256
370
-1
  6
BYLAYER
100
AcDbCircle
 10
5.9422218066982211
 20
26.0
 30
0.0
 40
3.0
100
AcDbArc
 50
211.9089827353176361
 51
270.0
  0
ARC
  5
AD
100
AcDbEntity
  8
0
 62
256
370
-1
  6
BYLAYER
100
AcDbCircle
 10
-27.0333209967908807
 20
24.0000000000000178
 30
0.0
 40
1.0
100
AcDbArc
 50
120.0000000000002558
 51
270.0
  0
ARC
  5
AE
100
AcDbEntity
  8
0
 62
256
370
-1
  6
BYLAYER
100
AcDbCircle
 10
27.0333209967909056
 20
23.9999999999999929
 30
0.0
 40
1.0
100
AcDbArc
 50
270.0
 51
60.0000000000002274
  0
LINE
  5
AF
100
AcDbEntity
100
AcDbLine
  8
0
 62
256
370
-1
  6
BYLAYER
 10
-27.5333209967908843
 20
24.8660254037844588
 30
0.0
 11
-9.2055398066734213
 21
35.4475748075473547
 31
0.0
  0
LINE
  5
B0
100
AcDbEntity
100
AcDbLine
  8
0
 62
256
370
-1
  6
BYLAYER
 10
27.5333209967908772
 20
24.8660254037844375
 30
0.0
 11
9.2055398066734284
 21
35.4475748075472836
 31
0.0
  0
LINE
  5
B1
100
AcDbEntity
100
AcDbLine
  8
0
 62
256
370
-1
  6
BYLAYER
 10
-27.0333209967908807
 20
23.0000000000000213
 30
0.0
 11
-5.9422218066982282
 21
23.0
 31
0.0
  0
ARC
  5
B2
100
AcDbEntity
  8
0
 62
256
370
-1
  6
BYLAYER
100
AcDbCircle
 10
-0.0000000000000284
 20
22.300000000000022
 30
0.0
 40
4.0
100
AcDbArc
 50
31.9089827353175011
 51
148.0910172646823355
  0
LINE
  5
B3
100
AcDbEntity
100
AcDbLine
  8
0
 62
256
370
-1
  6
BYLAYER
 10
5.942221806698214
 20
23.0
 30
0.0
 11
27.0333209967908914
 21
23.0000000000000355
 31
0.0
  0
ENDBLK
  5
B4
100
AcDbEntity
  8
0
100
AcDbBlockEnd
  0
BLOCK
  5
B5
100
AcDbEntity
  8
0
100
AcDbBlockBegin
  2
femur_tibia
 70
0
 10
0.0
 20
0.0
 30
0.0
  3
femur_tibia
  1

  0
CIRCLE
  5
B6
100
AcDbEntity
100
AcDbCircle
  8
0
 62
256
370
-1
  6
BYLAYER
 10
3.9999999999999996
 20
0.0
 30
0.0
 40
0.5
  0
CIRCLE
  5
B7
100
AcDbEntity
100
AcDbCircle
  8
0
 62
256
370
-1
  6
BYLAYER
 10
-3.9999999999999996
 20
0.0
 30
0.0
 40
0.5
  0
LINE
  5
B8
100
AcDbEntity
100
AcDbLine
  8
0
 62
256
370
-1
  6
BYLAYER
 10
-14.9999999999999982
 20
-5.0
 30
0.0
 11
-14.9999999999999982
 21
5.0
 31
0.0
  0
LINE
  5
B9
100
AcDbEntity
100
AcDbLine
  8
0
 62
256
370
-1
  6
BYLAYER
 10
14.9999999999999982
 20
5.0
 30
0.0
 11
14.9999999999999982
 21
-5.0
 31
0.0
  0
CIRCLE
  5
BA
100
AcDbEntity
100
AcDbCircle
  8
0
 62
256
370
-1
  6
BYLAYER
 10
-10.0
 20
0.0
 30
0.0
 40
1.0
  0
CIRCLE
  5
BB
100
AcDbEntity
100
AcDbCircle
  8
0
 62
256
370
-1
  6
BYLAYER
 10
10.0
 20
0.0
 30
0.0
 40
1.0
  0
DIMENSION
  5
BC
100
AcDbEntity
  8
0
 62
256
370
-1
  6
BYLAYER
100
AcDbDimension
 10
-11.0
 20
2.1550058548009492
 30
0.0
 11
-7.8783539381229426
 21
-2.6838989915815099
 31
0.0
 70
129
 71
8
 72
2
 41
1.0
 42
0.0
  1
9/64"
  3
Standard
100
AcDbAlignedDimension
 13
-11.0
 23
0.0000000000000013
 33
0.0
 14
-9.0
 24
0.0000000000000011
 34
0.0
1001
ACAD
1000
DSTYLE
1002
{
1070
144
1040
1
1002
}
  0
CIRCLE
  5
BD
100
AcDbEntity
100
AcDbCircle
  8
0
 62
256
370
-1
  6
BYLAYER
 10
0.0
 20
0.0
 30
0.0
 40
0.5
  0
LINE
  5
BE
100
AcDbEntity
100
AcDbLine
  8
0
 62
256
370
-1
  6
BYLAYER
 10
-14.9999999999999982
 20
5.0
 30
0.0
 11
14.9999999999999982
 21
5.0
 31
0.0
  0
LINE
  5
BF
100
AcDbEntity
100
AcDbLine
  8
0
 62
256
370
-1
  6
BYLAYER
 10
14.9999999999999982
 20
-5.0
 30
0.0
 11
-14.9999999999999982
 21
-5.0
 31
0.0
  0
DIMENSION
  5
C0
100
AcDbEntity
  8
0
 62
256
370
-1
  6
BYLAYER
100
AcDbDimension
 10
3.5
 20
-2.0690704396689492
 30
0.0
 11
5.3561444646010745
 21
2.3340089716700887
 31
0.0
 70
129
 71
8
 72
2
 41
1.0
 42
0.0
  1
3/64"
  3
Standard
100
AcDbAlignedDimension
 13
3.5
 23
0.0
 33
0.0
 14
4.5
 24
0.0
 34
0.0
1001
ACAD
1000
DSTYLE
1002
{
1070
144
1040
1
1002
}
  0
ENDBLK
  5
C1
100
AcDbEntity
  8
0
100
AcDbBlockEnd
  0
BLOCK
  5
C2
100
AcDbEntity
  8
0
100
AcDbBlockBegin
  2
femur_vertical
 70
0
 10
0.0
 20
0.0
 30
0.0
  3
femur_vertical
  1

  0
LINE
  5
C3
100
AcDbEntity
100
AcDbLine
  8
0
 62
256
370
-1
  6
BYLAYER
 10
32.0
 20
12.8249999999999993
 30
0.0
 11
34.0
 21
12.8249999999999993
 31
0.0
  0
LINE
  5
C4
100
AcDbEntity
100
AcDbLine
  8
0
 62
256
370
-1
  6
BYLAYER
 10
39.0
 20
17.8249999999999993
 30
0.0
 11
39.0
 21
17.8249999999999993
 31
0.0
  0
LINE
  5
C5
100
AcDbEntity
100
AcDbLine
  8
0
 62
256
370
-1
  6
BYLAYER
 10
34.0
 20
22.8249999999999993
 30
0.0
 11
29.0
 21
22.8249999999999993
 31
0.0
  0
LINE
  5
C6
100
AcDbEntity
100
AcDbLine
  8
0
 62
256
370
-1
  6
BYLAYER
 10
29.0
 20
9.8249999999999993
 30
0.0
 11
29.0
 21
-12.5000000000000036
 31
0.0
  0
ARC
  5
C7
100
AcDbEntity
  8
0
 62
256
370
-1
  6
BYLAYER
100
AcDbCircle
 10
32.0
 20
9.8249999999999993
 30
0.0
 40
3.0
100
AcDbArc
 50
90.0
 51
180.0
  0
ARC
  5
C8
100
AcDbEntity
  8
0
 62
256
370
-1
  6
BYLAYER
100
AcDbCircle
 10
34.0
 20
17.8249999999999993
 30
0.0
 40
5.0
100
AcDbArc
 50
0.0
 51
90.0
  0
ARC
  5
C9
100
AcDbEntity
  8
0
 62
256
370
-1
  6
BYLAYER
100
AcDbCircle
 10
34.0
 20
17.8249999999999993
 30
0.0
 40
5.0
100
AcDbArc
 50
270.0
 51
0.0
  0
ARC
  5
CA
100
AcDbEntity
  8
0
 62
256
370
-1
  6
BYLAYER
100
AcDbCircle
 10
16.0
 20
17.8249999999999993
 30
0.0
 40
5.0
100
AcDbArc
 50
90.0
 51
180.0
  0
ARC
  5
CB
100
AcDbEntity
  8
0
 62
256
370
-1
  6
BYLAYER
100
AcDbCircle
 10
15.9999999999999982
 20
-12.5
 30
0.0
 40
5.0
100
AcDbArc
 50
180.0
 51
270.0
  0
ARC
  5
CC
100
AcDbEntity
  8
0
 62
256
370
-1
  6
BYLAYER
100
AcDbCircle
 10
24.0
 20
-12.5
 30
0.0
 40
5.0
100
AcDbArc
 50
270.0
 51
0.0
  0
LINE
  5
CD
100
AcDbEntity
100
AcDbLine
  8
0
 62
256
370
-1
  6
BYLAYER
 10
0.0
 20
3.1749999999999998
 30
0.0
 11
0.0
 21
-3.1749999999999998
 31
0.0
  0
LINE
  5
CE
100
AcDbEntity
100
AcDbLine
  8
0
 62
256
370
-1
  6
BYLAYER
 10
0.0
 20
-3.1749999999999998
 30
0.0
 11
-10.0
 21
-3.1749999999999998
 31
0.0
  0
LINE
  5
CF
100
AcDbEntity
100
AcDbLine
  8
0
 62
256
370
-1
  6
BYLAYER
 10
-0.0
 20
3.1749999999999998
 30
0.0
 11
-10.0
 21
3.1750000000000007
 31
0.0
  0
DIMENSION
  5
D0
100
AcDbEntity
  8
0
 62
256
370
-1
  6
BYLAYER
100
AcDbDimension
 10
35.5
 20
20.0729994958112563
 30
0.0
 11
24.0
 21
21.0000000000000071
 31
0.0
 70
129
 71
8
 72
2
 41
1.0
 42
0.0
  1
9/64"
  3
Standard
100
AcDbAlignedDimension
 13
35.5
 23
17.8249999999999957
 33
0.0
 14
32.5
 24
17.8249999999999922
 34
0.0
1001
ACAD
1000
DSTYLE
1002
{
1070
144
1040
1
1002
}
  0
CIRCLE
  5
D1
100
AcDbEntity
100
AcDbCircle
  8
0
 62
256
370
-1
  6
BYLAYER
 10
34.0
 20
17.8249999999999993
 30
0.0
 40
1.5
  0
ARC
  5
D2
100
AcDbEntity
  8
0
 62
256
370
-1
  6
BYLAYER
100
AcDbCircle
 10
6.0
 20
-12.5
 30
0.0
 40
5.0
100
AcDbArc
 50
0.0
 51
90.0
  0
ARC
  5
D3
100
AcDbEntity
  8
0
 62
256
370
-1
  6
BYLAYER
100
AcDbCircle
 10
6.0
 20
12.5
 30
0.0
 40
5.0
100
AcDbArc
 50
270.0
 51
0.0
  0
ARC
  5
D4
100
AcDbEntity
  8
0
 62
256
370
-1
  6
BYLAYER
100
AcDbCircle
 10
-9.0
 20
6.5000000000000009
 30
0.0
 40
1.0
100
AcDbArc
 50
89.9999999999999005
 51
180.0
  0
ARC
  5
D5
100
AcDbEntity
  8
0
 62
256
370
-1
  6
BYLAYER
100
AcDbCircle
 10
-9.0
 20
-6.4999999999999991
 30
0.0
 40
1.0
100
AcDbArc
 50
180.0
 51
270.0
  0
LINE
  5
D6
100
AcDbEntity
100
AcDbLine
  8
0
 62
256
370
-1
  6
BYLAYER
 10
-9.0
 20
-7.5
 30
0.0
 11
6.0
 21
-7.5
 31
0.0
  0
LINE
  5
D7
100
AcDbEntity
100
AcDbLine
  8
0
 62
256
370
-1
  6
BYLAYER
 10
6.0
 20
7.5000000000000009
 30
0.0
 11
-8.9999999999999982
 21
7.5000000000000009
 31
0.0
  0
LINE
  5
D8
100
AcDbEntity
100
AcDbLine
  8
0
 62
256
370
-1
  6
BYLAYER
 10
-10.0
 20
3.1749999999999998
 30
0.0
 11
-10.0
 21
6.5000000000000009
 31
0.0
  0
LINE
  5
D9
100
AcDbEntity
100
AcDbLine
  8
0
 62
256
370
-1
  6
BYLAYER
 10
-10.0
 20
-3.1749999999999998
 30
0.0
 11
-10.0
 21
-6.4999999999999991
 31
0.0
  0
INSERT
  5
DA
100
AcDbEntity
100
AcDbBlockReference
  8
0
 62
256
370
-1
  6
BYLAYER
  2
servo_mount
 10
20.0
 20
-0.1749999999999998
 30
0.0
  0
LINE
  5
DB
100
AcDbEntity
100
AcDbLine
  8
0
 62
256
370
-1
  6
BYLAYER
 10
15.9999999999999982
 20
-17.5
 30
0.0
 11
24.0
 21
-17.5
 31
0.0
  0
LINE
  5
DC
100
AcDbEntity
100
AcDbLine
  8
0
 62
256
370
-1
  6
BYLAYER
 10
29.0
 20
22.8249999999999993
 30
0.0
 11
16.0
 21
22.8249999999999993
 31
0.0
  0
LINE
  5
DD
100
AcDbEntity
100
AcDbLine
  8
0
 62
256
370
-1
  6
BYLAYER
 10
11.0
 20
17.8249999999999993
 30
0.0
 11
11.0
 21
12.5
 31
0.0
  0
ENDBLK
  5
DE
100
AcDbEntity
  8
0
100
AcDbBlockEnd
  0
BLOCK
  5
DF
100
AcDbEntity
  8
0
100
AcDbBlockBegin
  2
body_middle
 70
0
 10
0.0
 20
0.0
 30
0.0
  3
body_middle
  1

  0
ARC
  5
E0
100
AcDbEntity
  8
0
 62
256
370
-1
  6
BYLAYER
100
AcDbCircle
 10
26.0140831103240444
 20
32.3397459621556322
 30
0.0
 40
3.0
100
AcDbArc
 50
29.999999999999968
 51
119.9999999999999716
  0
ARC
  5
E1
100
AcDbEntity
  8
0
 62
256
370
-1
  6
BYLAYER
100
AcDbCircle
 10
35.0140831103240089
 20
-16.7512886940357042
 30
0.0
 40
3.0
100
AcDbArc
 50
240.0
 51
330.0000000000000568
  0
ARC
  5
E2
100
AcDbEntity
  8
0
 62
256
370
-1
  6
BYLAYER
100
AcDbCircle
 10
14.9999999999999893
 20
-38.6987298107780973
 30
0.0
 40
3.0
100
AcDbArc
 50
270.0
 51
0.0000000000000509
  0
ARC
  5
E3
100
AcDbEntity
  8
0
 62
256
370
-1
  6
BYLAYER
100
AcDbCircle
 10
-26.0140831103240089
 20
-32.3397459621555967
 30
0.0
 40
3.0
100
AcDbArc
 50
210.0
 51
300.0
  0
ARC
  5
E4
100
AcDbEntity
  8
0
 62
256
370
-1
  6
BYLAYER
100
AcDbCircle
 10
-32.0140831103240089
 20
-21.9474411167423646
 30
0.0
 40
3.0
100
AcDbArc
 50
119.9999999999999716
 51
210.0
  0
ARC
  5
E5
100
AcDbEntity
  8
0
 62
256
370
-1
  6
BYLAYER
100
AcDbCircle
 10
-44.7347997377701887
 20
-0.0854863906806155
 30
0.0
 40
3.0
100
AcDbArc
 50
150.0
 51
240.0
  0
ARC
  5
E6
100
AcDbEntity
  8
0
 62
256
370
-1
  6
BYLAYER
100
AcDbCircle
 10
-35.0140831103240515
 20
16.7512886940356793
 30
0.0
 40
3.0
100
AcDbArc
 50
60.0
 51
150.0
  0
LINE
  5
E7
100
AcDbEntity
100
AcDbLine
  8
0
 62
256
370
-1
  6
BYLAYER
 10
-22.4999999999999893
 20
-7.7942286340599383
 30
0.0
 11
-37.3179306876173698
 21
0.7609076372691955
 31
0.0
  0
LINE
  5
E8
100
AcDbEntity
100
AcDbLine
  8
0
 62
256
370
-1
  6
BYLAYER
 10
22.5000000000000071
 20
7.7942286340599418
 30
0.0
 11
37.3179306876173342
 21
-0.7609076372691331
 31
0.0
  0
ARC
  5
E9
100
AcDbEntity
  8
0
 62
256
370
-1
  6
BYLAYER
100
AcDbCircle
 10
-23.9999999999999893
 20
-10.3923048454132321
 30
0.0
 40
3.0
100
AcDbArc
 50
300.0
 51
60.0
  0
LINE
  5
EA
100
AcDbEntity
100
AcDbLine
  8
0
 62
256
370
-1
  6
BYLAYER
 10
-42.1367235264168727
 20
-1.5854863906806043
 30
0.0
 11
-41.4160068989706929
 21
-0.3371685740841152
 31
0.0
  0
ARC
  5
EB
100
AcDbEntity
  8
0
 62
256
370
-1
  6
BYLAYER
100
AcDbCircle
 10
-38.8179306876173698
 20
-1.8371685740841293
 30
0.0
 40
3.0
100
AcDbArc
 50
60.0
 51
150.0
  0
ARC
  5
EC
100
AcDbEntity
  8
0
 62
256
370
-1
  6
BYLAYER
100
AcDbCircle
 10
-44.7347997377701887
 20
-0.0854863906806155
 30
0.0
 40
3.0
100
AcDbArc
 50
240.0
 51
330.0
  0
ARC
  5
ED
100
AcDbEntity
  8
0
 62
256
370
-1
  6
BYLAYER
100
AcDbCircle
 10
24.0
 20
10.3923048454132569
 30
0.0
 40
3.0
100
AcDbArc
 50
119.9999999999999716
 51
240.0
  0
LINE
  5
EE
100
AcDbEntity
100
AcDbLine
  8
0
 62
256
370
-1
  6
BYLAYER
 10
42.1367235264168229
 20
1.5854863906806347
 30
0.0
 11
41.4160068989706645
 21
0.3371685740841834
 31
0.0
  0
ARC
  5
EF
100
AcDbEntity
  8
0
 62
256
370
-1
  6
BYLAYER
100
AcDbCircle
 10
44.734799737770139
 20
0.0854863906806496
 30
0.0
 40
3.0
100
AcDbArc
 50
330.0
 51
150.0000000000000568
  0
ARC
  5
F0
100
AcDbEntity
  8
0
 62
256
370
-1
  6
BYLAYER
100
AcDbCircle
 10
38.8179306876173342
 20
1.8371685740841919
 30
0.0
 40
3.0
100
AcDbArc
 50
240.0
 51
330.0
  0
CIRCLE
  5
F1
100
AcDbEntity
100
AcDbCircle
  8
0
 62
256
370
-1
  6
BYLAYER
 10
-4.8632525251674181
 20
-38.8653933127633593
 30
0.0
 40
1.0
  0
ARC
  5
F2
100
AcDbEntity
  8
0
 62
256
370
-1
  6
BYLAYER
100
AcDbCircle
 10
-4.9999999999999716
 20
-29.8664322545007508
 30
0.0
 40
5.0
100
AcDbArc
 50
270.8705949631606131
 51
0.0000000000001018
  0
LINE
  5
F3
100
AcDbEntity
100
AcDbLine
  8
0
 62
256
370
-1
  6
BYLAYER
 10
0.0000000000001106
 20
-25.9807621135331708
 30
0.0
 11
0.000000000000021
 21
-29.8664322545007437
 31
0.0
  0
ARC
  5
F4
100
AcDbEntity
  8
0
 62
256
370
-1
  6
BYLAYER
100
AcDbCircle
 10
-4.8632525251674181
 20
-38.8653933127633593
 30
0.0
 40
4.0
100
AcDbArc
 50
90.8705949631606558
 51
204.6244180832547102
  0
ARC
  5
F5
100
AcDbEntity
  8
0
 62
256
370
-1
  6
BYLAYER
100
AcDbCircle
 10
4.9999999999999671
 20
29.8664322545007543
 30
0.0
 40
5.0
100
AcDbArc
 50
90.8705949631606273
 51
180.0000000000000284
  0
LINE
  5
F6
100
AcDbEntity
100
AcDbLine
  8
0
 62
256
370
-1
  6
BYLAYER
 10
-0.0000000000001138
 20
25.9807621135331708
 30
0.0
 11
-0.0000000000000247
 21
29.8664322545007437
 31
0.0
  0
ARC
  5
F7
100
AcDbEntity
  8
0
 62
256
370
-1
  6
BYLAYER
100
AcDbCircle
 10
-6.6813697604073692
 20
-39.698729810778083
 30
0.0
 40
2.0
100
AcDbArc
 50
204.6244180832547954
 51
270.0
  0
CIRCLE
  5
F8
100
AcDbEntity
100
AcDbCircle
  8
0
 62
256
370
-1
  6
BYLAYER
 10
4.8632525251674226
 20
38.8653933127633593
 30
0.0
 40
1.0
  0
ARC
  5
F9
100
AcDbEntity
  8
0
 62
256
370
-1
  6
BYLAYER
100
AcDbCircle
 10
4.8632525251674226
 20
38.8653933127633593
 30
0.0
 40
4.0
100
AcDbArc
 50
270.87059496316067
 51
24.6244180832547173
  0
LINE
  5
FA
100
AcDbEntity
100
AcDbLine
  8
0
 62
256
370
-1
  6
BYLAYER
 10
-15.0000000000000444
 20
41.6987298107780759
 30
0.0
 11
6.6813697604074056
 21
41.698729810778083
 31
0.0
  0
ARC
  5
FB
100
AcDbEntity
  8
0
 62
256
370
-1
  6
BYLAYER
100
AcDbCircle
 10
6.6813697604073878
 20
39.6987298107780759
 30
0.0
 40
2.0
100
AcDbArc
 50
24.624418083254767
 51
90.0
  0
MTEXT
  5
FC
100
AcDbEntity
100
AcDbMText
  8
0
 62
256
370
-1
  6
BYLAYER
 10
-21.8188465745127615
 20
-1.1528039436962332
 30
0.0
 40
8.0
 41
0.0
 71
1
 72
1
  1
\H2.28571;Servo layer
  7
textstyle0
 50
0.0
 73
2
 44
1.0
  0
INSERT
  5
FD
100
AcDbEntity
100
AcDbBlockReference
  8
0
 62
256
370
-1
  6
BYLAYER
  2
servo_mount
 10
17.3227401592340904
 20
20.3935935394490073
 30
0.0
 41
1.0
 42
-1.0
 43
1.0
 50
119.9999999999999716
  0
INSERT
  5
FE
100
AcDbEntity
100
AcDbBlockReference
  8
0
 62
256
370
-1
  6
BYLAYER
  2
servo_mount
 10
26.3227401592340655
 20
-4.8051362713290962
 30
0.0
 41
1.0
 42
-1.0
 43
1.0
 50
60.0
  0
INSERT
  5
FF
100
AcDbEntity
100
AcDbBlockReference
  8
0
 62
256
370
-1
  6
BYLAYER
  2
servo_mount
 10
8.9999999999999858
 20
-25.1987298107780937
 30
0.0
 41
1.0
 42
-1.0
 43
1.0
 50
360.0
  0
INSERT
  5
100
100
AcDbEntity
100
AcDbBlockReference
  8
0
 62
256
370
-1
  6
BYLAYER
  2
servo_mount
 10
-17.3227401592340904
 20
-20.3935935394489753
 30
0.0
 41
1.0
 42
-1.0
 43
1.0
 50
300.0
  0
INSERT
  5
101
100
AcDbEntity
100
AcDbBlockReference
  8
0
 62
256
370
-1
  6
BYLAYER
  2
servo_mount
 10
-26.3227401592340833
 20
4.805136271329121
 30
0.0
 41
1.0
 42
-1.0
 43
1.0
 50
240.0
  0
INSERT
  5
102
100
AcDbEntity
100
AcDbBlockReference
  8
0
 62
256
370
-1
  6
BYLAYER
  2
servo_mount
 10
-9.0000000000000124
 20
25.1987298107781363
 30
0.0
 41
1.0
 42
-1.0
 43
1.0
 50
180.0000000000000284
  0
CIRCLE
  5
103
100
AcDbEntity
100
AcDbCircle
  8
0
 62
256
370
-1
  6
BYLAYER
 10
0.0
 20
0.0
 30
0.0
 40
10.0
  0
DIMENSION
  5
104
100
AcDbEntity
  8
0
 62
256
370
-1
  6
BYLAYER
100
AcDbDimension
 10
44.1160254037850095
 20
3.5310889132458239
 30
0.0
 11
36.0788383248864761
 21
3.5096189432333551
 31
0.0
 70
129
 71
8
 72
2
 41
1.0
 42
0.0
  1
9/64"
  3
Standard
100
AcDbAlignedDimension
 13
45.8660254037844268
 23
0.4999999999998978
 33
0.0
 14
44.1339745962155448
 24
-0.4999999999996431
 34
0.0
1001
ACAD
1000
DSTYLE
1002
{
1070
144
1040
1
1002
}
  0
LINE
  5
105
100
AcDbEntity
100
AcDbLine
  8
0
 62
256
370
-1
  6
BYLAYER
 10
33.514083110324016
 20
19.3493649053890628
 30
0.0
 11
22.5000000000000071
 21
12.9903810567665836
 31
0.0
  0
LINE
  5
106
100
AcDbEntity
100
AcDbLine
  8
0
 62
256
370
-1
  6
BYLAYER
 10
33.5140831103239591
 20
-19.3493649053890913
 30
0.0
 11
22.4999999999999645
 21
-12.9903810567666014
 31
0.0
  0
CIRCLE
  5
107
100
AcDbEntity
100
AcDbCircle
  8
0
 62
256
370
-1
  6
BYLAYER
 10
45.0
 20
0.0000000000001089
 30
0.0
 40
1.0
  0
LINE
  5
108
100
AcDbEntity
100
AcDbLine
  8
0
 62
256
370
-1
  6
BYLAYER
 10
-33.5140831103240089
 20
-19.3493649053890628
 30
0.0
 11
-22.4999999999999964
 21
-12.9903810567665818
 31
0.0
  0
LINE
  5
109
100
AcDbEntity
100
AcDbLine
  8
0
 62
256
370
-1
  6
BYLAYER
 10
-33.5140831103239876
 20
19.349364905389141
 30
0.0
 11
-22.499999999999968
 21
12.9903810567665978
 31
0.0
  0
CIRCLE
  5
10A
100
AcDbEntity
100
AcDbCircle
  8
0
 62
256
370
-1
  6
BYLAYER
 10
-45.0
 20
-0.0000000000001544
 30
0.0
 40
1.0
  0
LINE
  5
10B
100
AcDbEntity
100
AcDbLine
  8
0
 62
256
370
-1
  6
BYLAYER
 10
4.500000000000016
 20
23.3826859021798761
 30
0.0
 11
24.5140831103240089
 21
34.9378221735089696
 31
0.0
  0
LINE
  5
10C
100
AcDbEntity
100
AcDbLine
  8
0
 62
256
370
-1
  6
BYLAYER
 10
-18.0000000000000071
 20
15.5884572681198836
 30
0.0
 11
-18.000000000000032
 21
37.6905518731862088
 31
0.0
  0
LINE
  5
10D
100
AcDbEntity
100
AcDbLine
  8
0
 62
256
370
-1
  6
BYLAYER
 10
-4.4999999999999831
 20
-23.3826859021797979
 30
0.0
 11
-24.5140831103239805
 21
-34.937822173508934
 31
0.0
  0
LINE
  5
10E
100
AcDbEntity
100
AcDbLine
  8
0
 62
256
370
-1
  6
BYLAYER
 10
18.0
 20
-15.5884572681198641
 30
0.0
 11
17.9999999999999929
 21
-38.6987298107780902
 31
0.0
  0
ARC
  5
10F
100
AcDbEntity
  8
0
 62
256
370
-1
  6
BYLAYER
100
AcDbCircle
 10
-13.0000000000000213
 20
37.6905518731862088
 30
0.0
 40
5.0
100
AcDbArc
 50
149.7291052607407664
 51
180.0000000000000284
  0
ARC
  5
110
100
AcDbEntity
  8
0
 62
256
370
-1
  6
BYLAYER
100
AcDbCircle
 10
21.0
 20
-15.5884572681198641
 30
0.0
 40
3.0
100
AcDbArc
 50
60.0
 51
180.0
  0
ARC
  5
111
100
AcDbEntity
  8
0
 62
256
370
-1
  6
BYLAYER
100
AcDbCircle
 10
-2.9999999999998734
 20
-25.9807621135331743
 30
0.0
 40
3.0
100
AcDbArc
 50
0.0000000000000509
 51
120.0000000000000142
  0
ARC
  5
112
100
AcDbEntity
  8
0
 62
256
370
-1
  6
BYLAYER
100
AcDbCircle
 10
-21.0000000000000071
 20
15.5884572681198819
 30
0.0
 40
3.0
100
AcDbArc
 50
240.0
 51
0.0000000000000509
  0
ARC
  5
113
100
AcDbEntity
  8
0
 62
256
370
-1
  6
BYLAYER
100
AcDbCircle
 10
3.0000000000000129
 20
25.9807621135331992
 30
0.0
 40
3.0
100
AcDbArc
 50
180.0000000000003126
 51
300.0
  0
LINE
  5
114
100
AcDbEntity
100
AcDbLine
  8
0
 62
256
370
-1
  6
BYLAYER
 10
-47.3328759491235047
 20
1.4145136093193713
 30
0.0
 11
-37.6121593216773604
 21
18.2512886940356722
 31
0.0
  0
LINE
  5
115
100
AcDbEntity
100
AcDbLine
  8
0
 62
256
370
-1
  6
BYLAYER
 10
-28.6121593216773142
 20
-33.839745962155618
 30
0.0
 11
-34.6121593216773178
 21
-23.447441116742354
 31
0.0
  0
LINE
  5
116
100
AcDbEntity
100
AcDbLine
  8
0
 62
256
370
-1
  6
BYLAYER
 10
15.0000000000000124
 20
-41.698729810778083
 30
0.0
 11
-6.6813697604073692
 21
-41.698729810778083
 31
0.0
  0
LINE
  5
117
100
AcDbEntity
100
AcDbLine
  8
0
 62
256
370
-1
  6
BYLAYER
 10
47.332875949123455
 20
-1.4145136093193758
 30
0.0
 11
37.6121593216773107
 21
-18.2512886940357326
 31
0.0
  0
LINE
  5
118
100
AcDbEntity
100
AcDbLine
  8
0
 62
256
370
-1
  6
BYLAYER
 10
28.6121593216773711
 20
33.839745962155618
 30
0.0
 11
34.6121593216773178
 21
23.4474411167423469
 31
0.0
  0
ARC
  5
119
100
AcDbEntity
  8
0
 62
256
370
-1
  6
BYLAYER
100
AcDbCircle
 10
-14.7273034609335163
 20
38.6987298107781257
 30
0.0
 40
3.0
100
AcDbArc
 50
89.9999999999999858
 51
149.7291052607407948
  0
ARC
  5
11A
100
AcDbEntity
  8
0
 62
256
370
-1
  6
BYLAYER
100
AcDbCircle
 10
32.0140831103240089
 20
21.9474411167423575
 30
0.0
 40
3.0
100
AcDbArc
 50
300.0
 51
29.999999999999968
  0
ENDBLK
  5
11B
100
AcDbEntity
  8
0
100
AcDbBlockEnd
  0
BLOCK
  5
11C
100
AcDbEntity
  8
0
100
AcDbBlockBegin
  2
battery_holder
 70
0
 10
0.0
 20
0.0
 30
0.0
  3
battery_holder
  1

  0
CIRCLE
  5
11D
100
AcDbEntity
100
AcDbCircle
  8
0
 62
256
370
-1
  6
DOT2
 10
0.0
 20
22.2999999999999972
 30
0.0
 40
1.5
  0
DIMENSION
  5
11E
100
AcDbEntity
  8
0
 62
256
370
-1
  6
BYLAYER
100
AcDbDimension
 10
6.0000000000000009
 20
23.7999999999999972
 30
0.0
 11
10.0000000000000018
 21
22.0
 31
0.0
 70
129
 71
8
 72
2
 41
1.0
 42
0.0
  1
9/64"
  3
Standard
100
AcDbAlignedDimension
 13
0.0000000000000015
 23
23.7999999999999972
 33
0.0
 14
0.0000000000000013
 24
20.7999999999999972
 34
0.0
1001
ACAD
1000
DSTYLE
1002
{
1070
144
1040
1
1002
}
  0
LINE
  5
11F
100
AcDbEntity
100
AcDbLine
  8
0
 62
256
370
-1
  6
DOT2
 10
-29.0
 20
-31.0
 30
0.0
 11
29.0
 21
-31.0
 31
0.0
  0
LINE
  5
120
100
AcDbEntity
100
AcDbLine
  8
0
 62
256
370
-1
  6
DOT2
 10
29.0
 20
-31.0
 30
0.0
 11
29.0
 21
31.0
 31
0.0
  0
LINE
  5
121
100
AcDbEntity
100
AcDbLine
  8
0
 62
256
370
-1
  6
DOT2
 10
29.0
 20
31.0
 30
0.0
 11
-29.0
 21
31.0
 31
0.0
  0
LINE
  5
122
100
AcDbEntity
100
AcDbLine
  8
0
 62
256
370
-1
  6
DOT2
 10
-29.0
 20
31.0
 30
0.0
 11
-29.0
 21
-31.0
 31
0.0
  0
CIRCLE
  5
123
100
AcDbEntity
100
AcDbCircle
  8
0
 62
256
370
-1
  6
DOT2
 10
-0.0000000000000284
 20
-22.2999999999999972
 30
0.0
 40
1.5
  0
ENDBLK
  5
124
100
AcDbEntity
  8
0
100
AcDbBlockEnd
  0
BLOCK
  5
125
100
AcDbEntity
  8
0
100
AcDbBlockBegin
  2
servi_top
 70
0
 10
0.0
 20
0.0
 30
0.0
  3
servi_top
  1

  0
CIRCLE
  5
126
100
AcDbEntity
100
AcDbCircle
  8
0
 62
252
420
10526884
370
-1
  6
BYLAYER
 10
-16.8999999999999773
 20
5.999999999999968
 30
0.0
 40
2.0
  0
LINE
  5
127
100
AcDbEntity
100
AcDbLine
  8
0
 62
252
420
10526884
370
-1
  6
BYLAYER
 10
-23.0
 20
-0.0000000000000036
 30
0.0
 11
0.0
 21
-0.0000000000000036
 31
0.0
  0
LINE
  5
128
100
AcDbEntity
100
AcDbLine
  8
0
 62
252
420
10526884
370
-1
  6
BYLAYER
 10
0.0
 20
11.9999999999999964
 30
0.0
 11
-23.0
 21
11.9999999999999964
 31
0.0
  0
LINE
  5
129
100
AcDbEntity
100
AcDbLine
  8
0
 62
252
420
10526884
370
-1
  6
BYLAYER
 10
-23.0
 20
11.9999999999999964
 30
0.0
 11
-23.0
 21
-0.0000000000000036
 31
0.0
  0
CIRCLE
  5
12A
100
AcDbEntity
100
AcDbCircle
  8
0
 62
252
420
10526884
370
-1
  6
BYLAYER
 10
-11.3733149610606361
 20
-1.3152895642648375
 30
0.0
 40
0.5
  0
LINE
  5
12B
100
AcDbEntity
100
AcDbLine
  8
0
 62
252
420
10526884
370
-1
  6
BYLAYER
 10
-18.3547610280124758
 20
4.6275312931159771
 30
0.0
 11
-12.1006954750668907
 21
-2.0015239177068374
 31
0.0
  0
LINE
  5
12C
100
AcDbEntity
100
AcDbLine
  8
0
 62
252
420
10526884
370
-1
  6
BYLAYER
 10
-15.1822441742763417
 20
7.0243607387988014
 30
0.0
 11
-10.5144370481988254
 21
-0.8031091948654243
 31
0.0
  0
ARC
  5
12D
100
AcDbEntity
  8
0
 62
252
420
10526884
370
-1
  6
BYLAYER
100
AcDbCircle
 10
-11.3733149610606361
 20
-1.3152895642648375
 30
0.0
 40
1.0
100
AcDbArc
 50
223.3327595361658666
 51
30.8091724947548968
  0
CIRCLE
  5
12E
100
AcDbEntity
100
AcDbCircle
  8
0
 62
252
420
10526884
370
-1
  6
BYLAYER
 10
2.5000000000000036
 20
5.9999999999999956
 30
0.0
 40
0.5
  0
CIRCLE
  5
12F
100
AcDbEntity
100
AcDbCircle
  8
0
 62
252
420
10526884
370
-1
  6
BYLAYER
 10
-25.5
 20
5.9999999999999911
 30
0.0
 40
0.5
  0
LINE
  5
130
100
AcDbEntity
100
AcDbLine
  8
0
 62
252
420
10526884
370
-1
  6
BYLAYER
 10
0.0
 20
-0.0000000000000036
 30
0.0
 11
0.0000000000000036
 21
11.9999999999999964
 31
0.0
  0
ENDBLK
  5
131
100
AcDbEntity
  8
0
100
AcDbBlockEnd
  0
BLOCK
  5
132
100
AcDbEntity
  8
0
100
AcDbBlockBegin
  2
servo_mount
 70
0
 10
0.0
 20
0.0
 30
0.0
  3
servo_mount
  1

  0
LINE
  5
133
100
AcDbEntity
100
AcDbLine
  8
0
 62
252
420
10526884
370
-1
  6
BYLAYER
 10
-6.0
 20
-11.4999999999999982
 30
0.0
 11
6.0
 21
-11.5
 31
0.0
  0
LINE
  5
134
100
AcDbEntity
100
AcDbLine
  8
0
 62
252
420
10526884
370
-1
  6
BYLAYER
 10
-6.0
 20
-11.4999999999999982
 30
0.0
 11
6.0
 21
-11.5
 31
0.0
  0
CIRCLE
  5
135
100
AcDbEntity
100
AcDbCircle
  8
0
 62
252
420
10526884
370
-1
  6
BYLAYER
 10
0.0
 20
13.9999999999999982
 30
0.0
 40
0.5
  0
CIRCLE
  5
136
100
AcDbEntity
100
AcDbCircle
  8
0
 62
252
420
10526884
370
-1
  6
BYLAYER
 10
0.0
 20
-13.9999999999999982
 30
0.0
 40
0.5
  0
CIRCLE
  5
137
100
AcDbEntity
100
AcDbCircle
  8
0
 62
252
420
10526884
370
-1
  6
BYLAYER
 10
0.0
 20
13.9999999999999982
 30
0.0
 40
0.5
  0
LINE
  5
138
100
AcDbEntity
100
AcDbLine
  8
0
 62
252
420
10526884
370
-1
  6
BYLAYER
 10
6.0
 20
-11.5
 30
0.0
 11
6.0
 21
11.5
 31
0.0
  0
CIRCLE
  5
139
100
AcDbEntity
100
AcDbCircle
  8
0
 62
252
420
10526884
370
-1
  6
BYLAYER
 10
0.0
 20
-13.9999999999999982
 30
0.0
 40
0.5
  0
LINE
  5
13A
100
AcDbEntity
100
AcDbLine
  8
0
 62
252
420
10526884
370
-1
  6
BYLAYER
 10
6.0
 20
11.5
 30
0.0
 11
-5.9999999999999893
 21
11.5
 31
0.0
  0
LINE
  5
13B
100
AcDbEntity
100
AcDbLine
  8
0
 62
252
420
10526884
370
-1
  6
BYLAYER
 10
6.0
 20
-11.5
 30
0.0
 11
6.0
 21
11.5
 31
0.0
  0
LINE
  5
13C
100
AcDbEntity
100
AcDbLine
  8
0
 62
252
420
10526884
370
-1
  6
BYLAYER
 10
-5.9999999999999893
 20
11.5
 30
0.0
 11
-6.0
 21
-11.4999999999999982
 31
0.0
  0
LINE
  5
13D
100
AcDbEntity
100
AcDbLine
  8
0
 62
252
420
10526884
370
-1
  6
BYLAYER
 10
6.0
 20
11.5
 30
0.0
 11
-5.9999999999999893
 21
11.5
 31
0.0
  0
LINE
  5
13E
100
AcDbEntity
100
AcDbLine
  8
0
 62
252
420
10526884
370
-1
  6
BYLAYER
 10
-5.9999999999999893
 20
11.5
 30
0.0
 11
-6.0
 21
-11.4999999999999982
 31
0.0
  0
ENDBLK
  5
13F
100
AcDbEntity
  8
0
100
AcDbBlockEnd
  0
BLOCK
  5
140
100
AcDbEntity
  8
0
100
AcDbBlockBegin
  2
tibia
 70
0
 10
0.0
 20
0.0
 30
0.0
  3
tibia
  1

  0
LINE
  5
141
100
AcDbEntity
100
AcDbLine
  8
0
 62
256
370
-1
  6
BYLAYER
 10
0.0
 20
5.0
 30
0.0
 11
0.0
 21
5.0
 31
0.0
  0
LINE
  5
142
100
AcDbEntity
100
AcDbLine
  8
0
 62
256
370
-1
  6
BYLAYER
 10
-5.0
 20
0.0
 30
0.0
 11
-5.0
 21
-5.0
 31
0.0
  0
LINE
  5
143
100
AcDbEntity
100
AcDbLine
  8
0
 62
256
370
-1
  6
BYLAYER
 10
10.0
 20
-5.0
 30
0.0
 11
10.0
 21
-5.0
 31
0.0
  0
ARC
  5
144
100
AcDbEntity
  8
0
 62
256
370
-1
  6
BYLAYER
100
AcDbCircle
 10
0.0
 20
0.0
 30
0.0
 40
5.0
100
AcDbArc
 50
90.0
 51
180.0
  0
ARC
  5
145
100
AcDbEntity
  8
0
 62
256
370
-1
  6
BYLAYER
100
AcDbCircle
 10
0.0
 20
0.0
 30
0.0
 40
5.0
100
AcDbArc
 50
0.0
 51
90.0
  0
ARC
  5
146
100
AcDbEntity
  8
0
 62
256
370
-1
  6
BYLAYER
100
AcDbCircle
 10
10.0
 20
-10.0000000000000018
 30
0.0
 40
5.0
100
AcDbArc
 50
0.0
 51
90.0
  0
ARC
  5
147
100
AcDbEntity
  8
0
 62
256
370
-1
  6
BYLAYER
100
AcDbCircle
 10
10.0
 20
-37.0
 30
0.0
 40
5.0
100
AcDbArc
 50
270.0
 51
0.0
  0
ARC
  5
148
100
AcDbEntity
  8
0
 62
256
370
-1
  6
BYLAYER
100
AcDbCircle
 10
0.0
 20
-52.0
 30
0.0
 40
5.0
100
AcDbArc
 50
180.0
 51
270.0
  0
ARC
  5
149
100
AcDbEntity
  8
0
 62
256
370
-1
  6
BYLAYER
100
AcDbCircle
 10
0.0
 20
-52.0
 30
0.0
 40
5.0
100
AcDbArc
 50
270.0
 51
0.0
  0
CIRCLE
  5
14A
100
AcDbEntity
100
AcDbCircle
  8
0
 62
256
370
-1
  6
BYLAYER
 10
0.0
 20
0.0
 30
0.0
 40
1.5
  0
DIMENSION
  5
14B
100
AcDbEntity
  8
0
 62
256
370
-1
  6
BYLAYER
100
AcDbDimension
 10
1.4999999999999996
 20
-3.0
 30
0.0
 11
0.9999999999999993
 21
-6.0
 31
0.0
 70
129
 71
8
 72
2
 41
1.0
 42
0.0
  1
9/64"
  3
Standard
100
AcDbAlignedDimension
 13
1.5
 23
0.0
 33
0.0
 14
-1.5
 24
0.0000000000000002
 34
0.0
1001
ACAD
1000
DSTYLE
1002
{
1070
144
1040
1
1002
}
  0
ARC
  5
14C
100
AcDbEntity
  8
0
 62
256
370
-1
  6
BYLAYER
100
AcDbCircle
 10
10.0
 20
-47.0
 30
0.0
 40
5.0
100
AcDbArc
 50
90.0
 51
180.0
  0
ARC
  5
14D
100
AcDbEntity
  8
0
 62
256
370
-1
  6
BYLAYER
100
AcDbCircle
 10
10.0
 20
-0.0
 30
0.0
 40
5.0
100
AcDbArc
 50
180.0
 51
270.0
  0
INSERT
  5
14E
100
AcDbEntity
100
AcDbBlockReference
  8
0
 62
256
370
-1
  6
BYLAYER
  2
servo_mount
 10
5.0
 20
-23.5
 30
0.0
  0
LINE
  5
14F
100
AcDbEntity
100
AcDbLine
  8
0
 62
256
370
-1
  6
BYLAYER
 10
15.0
 20
-37.0
 30
0.0
 11
15.0
 21
-10.0
 31
0.0
  0
LINE
  5
150
100
AcDbEntity
100
AcDbLine
  8
0
 62
256
370
-1
  6
BYLAYER
 10
-5.0
 20
-5.0
 30
0.0
 11
-5.0
 21
-42.0
 31
0.0
  0
LINE
  5
151
100
AcDbEntity
100
AcDbLine
  8
0
 62
256
370
-1
  6
BYLAYER
 10
0.0
 20
-57.0
 30
0.0
 11
0.0
 21
-57.0
 31
0.0
  0
LINE
  5
152
100
AcDbEntity
100
AcDbLine
  8
0
 62
256
370
-1
  6
BYLAYER
 10
5.0
 20
-52.0
 30
0.0
 11
5.0
 21
-47.0
 31
0.0
  0
LINE
  5
153
100
AcDbEntity
100
AcDbLine
  8
0
 62
256
370
-1
  6
BYLAYER
 10
-5.0
 20
-42.0
 30
0.0
 11
-5.0
 21
-52.0
 31
0.0
  0
LINE
  5
154
100
AcDbEntity
100
AcDbLine
  8
0
 62
256
370
-1
  6
BYLAYER
 10
10.0
 20
-42.0
 30
0.0
 11
10.0
 21
-42.0
 31
0.0
  0
LINE
  5
155
100
AcDbEntity
100
AcDbLine
  8
0
 62
256
370
-1
  6
BYLAYER
 10
5.0
 20
0.0
 30
0.0
 11
5.0
 21
0.0
 31
0.0
  0
ENDBLK
  5
156
100
AcDbEntity
  8
0
100
AcDbBlockEnd
  0
ENDSEC
  0
SECTION
  2
ENTITIES
  0
LINE
  5
157
100
AcDbEntity
100
AcDbLine
  8
0
 62
252
420
10526884
370
-1
  6
BYLAYER
 10
82.5813904869149837
 20
6.7145376709796736
 30
0.0
 11
72.9681418328631253
 21
-9.9360974236312849
 31
0.0
  0
LINE
  5
158
100
AcDbEntity
100
AcDbLine
  8
0
 62
252
420
10526884
370
-1
  6
BYLAYER
 10
60.4681418328631821
 20
50.0158078602016047
 30
0.0
 11
82.5813904869149837
 21
11.7145376709796949
 31
0.0
  0
LINE
  5
159
100
AcDbEntity
100
AcDbLine
  8
0
 62
252
420
10526884
370
-1
  6
BYLAYER
 10
56.1380148139409698
 20
52.5158078602016332
 30
0.0
 11
11.9115175058372529
 21
52.5158078602016332
 31
0.0
  0
CIRCLE
  5
15A
100
AcDbEntity
100
AcDbCircle
  8
0
 62
252
420
10526884
370
-1
  6
BYLAYER
 10
11.5247661598891682
 20
48.1856808412794493
 30
0.0
 40
1.0
  0
CIRCLE
  5
15B
100
AcDbEntity
100
AcDbCircle
  8
0
 62
252
420
10526884
370
-1
  6
BYLAYER
 10
79.0247661598891113
 20
9.2145376709795386
 30
0.0
 40
1.0
  0
CIRCLE
  5
15C
100
AcDbEntity
100
AcDbCircle
  8
0
 62
252
420
10526884
370
-1
  6
BYLAYER
 10
56.524766159889225
 20
48.1856808412793498
 30
0.0
 40
1.0
  0
ARC
  5
15D
100
AcDbEntity
  8
0
 62
252
420
10526884
370
-1
  6
BYLAYER
100
AcDbCircle
 10
56.1380148139409698
 20
47.5158078602016332
 30
0.0
 40
5.0
100
AcDbArc
 50
29.9999999999998685
 51
89.9999999999999716
  0
ARC
  5
15E
100
AcDbEntity
  8
0
 62
252
420
10526884
370
-1
  6
BYLAYER
100
AcDbCircle
 10
78.2512634679928283
 20
9.2145376709796807
 30
0.0
 40
5.0
100
AcDbArc
 50
330.0
 51
29.9999999999999716
  0
ARC
  5
15F
100
AcDbEntity
  8
0
 62
252
420
10526884
370
-1
  6
BYLAYER
100
AcDbCircle
 10
11.911517505837196
 20
47.5158078602016332
 30
0.0
 40
5.0
100
AcDbArc
 50
89.9999999999999716
 51
150.0
  0
CIRCLE
  5
160
100
AcDbEntity
100
AcDbCircle
  8
0
 62
252
420
10526884
370
-1
  6
BYLAYER
 10
34.0247661598891113
 20
9.2145376709796807
 30
0.0
 40
0.5
  0
LINE
  5
161
100
AcDbEntity
100
AcDbLine
  8
0
 62
252
420
10526884
370
-1
  6
BYLAYER
 10
66.7743968169049253
 20
59.5885618980458815
 30
0.0
 11
71.7743968169048685
 21
68.2488159358903062
 31
0.0
  0
LINE
  5
162
100
AcDbEntity
100
AcDbLine
  8
0
 62
252
420
10526884
370
-1
  6
BYLAYER
 10
66.2751355028735816
 20
71.4238159358903602
 30
0.0
 11
61.2751355028735816
 21
62.763561898045964
 31
0.0
  0
LINE
  5
163
100
AcDbEntity
100
AcDbLine
  8
0
 62
252
420
10526884
370
-1
  6
BYLAYER
 10
61.2751355028735816
 20
62.763561898045964
 30
0.0
 11
66.7743968169049253
 21
59.5885618980458815
 31
0.0
  0
LINE
  5
164
100
AcDbEntity
100
AcDbLine
  8
0
 62
252
420
10526884
370
-1
  6
BYLAYER
 10
66.2751355028735816
 20
71.4238159358903602
 30
0.0
 11
63.3956010352904968
 21
73.086315935890255
 31
0.0
  0
LINE
  5
165
100
AcDbEntity
100
AcDbLine
  8
0
 62
252
420
10526884
370
-1
  6
BYLAYER
 10
71.7743968169048685
 20
68.2488159358903062
 30
0.0
 11
74.6539312844880669
 21
66.5863159358903118
 31
0.0
  0
ARC
  5
166
100
AcDbEntity
  8
0
 62
252
420
10526884
370
-1
  6
BYLAYER
100
AcDbCircle
 10
54.3597026504281189
 20
49.4356808412793356
 30
0.0
 40
5.0
100
AcDbArc
 50
150.0
 51
240.0
  0
CIRCLE
  5
167
100
AcDbEntity
100
AcDbCircle
  8
0
 62
252
420
10526884
370
-1
  6
BYLAYER
 10
56.5247661598891113
 20
48.1856808412794066
 30
0.0
 40
1.5
  0
ARC
  5
168
100
AcDbEntity
  8
0
 62
252
420
10526884
370
-1
  6
BYLAYER
100
AcDbCircle
 10
58.6898296693503312
 20
46.9356808412793356
 30
0.0
 40
5.0
100
AcDbArc
 50
240.0
 51
300.0
  0
ARC
  5
169
100
AcDbEntity
  8
0
 62
252
420
10526884
370
-1
  6
BYLAYER
100
AcDbCircle
 10
74.3500837071947558
 20
54.0600364942614675
 30
0.0
 40
5.0
100
AcDbArc
 50
150.0
 51
240.0
  0
ARC
  5
16A
100
AcDbEntity
  8
0
 62
252
420
10526884
370
-1
  6
BYLAYER
100
AcDbCircle
 10
69.3500837071947558
 20
45.3997824564170713
 30
0.0
 40
5.0
100
AcDbArc
 50
240.0
 51
59.9999999999999858
  0
LINE
  5
16B
100
AcDbEntity
100
AcDbLine
  8
0
 62
252
420
10526884
370
-1
  6
BYLAYER
 10
66.8500837071947558
 20
41.0696554374948875
 30
0.0
 11
64.1898296693503312
 21
42.6055538223571517
 31
0.0
  0
ARC
  5
16C
100
AcDbEntity
  8
0
 62
252
420
10526884
370
-1
  6
BYLAYER
100
AcDbCircle
 10
62.6898296693503312
 20
40.0074776110038215
 30
0.0
 40
3.0
100
AcDbArc
 50
60.0
 51
119.9999999999999716
  0
ARC
  5
16D
100
AcDbEntity
  8
0
 62
252
420
10526884
370
-1
  6
BYLAYER
100
AcDbCircle
 10
62.8956010352903832
 20
72.2202905321058637
 30
0.0
 40
1.0
100
AcDbArc
 50
60.0
 51
150.0
  0
ARC
  5
16E
100
AcDbEntity
  8
0
 62
252
420
10526884
370
-1
  6
BYLAYER
100
AcDbCircle
 10
74.1539312844880669
 20
65.7202905321058921
 30
0.0
 40
1.0
100
AcDbArc
 50
330.0
 51
60.0
  0
LINE
  5
16F
100
AcDbEntity
100
AcDbLine
  8
0
 62
252
420
10526884
370
-1
  6
BYLAYER
 10
70.0199566882725435
 20
56.5600364942614959
 30
0.0
 11
75.0199566882724866
 21
65.2202905321059063
 31
0.0
  0
LINE
  5
170
100
AcDbEntity
100
AcDbLine
  8
0
 62
252
420
10526884
370
-1
  6
BYLAYER
 10
62.0295756315059634
 20
72.7202905321058637
 30
0.0
 11
50.0295756315059634
 21
51.9356808412793356
 31
0.0
  0
LINE
  5
171
100
AcDbEntity
100
AcDbLine
  8
0
 62
252
420
10526884
370
-1
  6
BYLAYER
 10
51.8597026504281757
 20
45.1055538223571233
 30
0.0
 11
56.1898296693503312
 21
42.6055538223571375
 31
0.0
  0
DIMENSION
  5
172
100
AcDbEntity
  8
0
 62
256
370
-1
  6
BYLAYER
100
AcDbDimension
 10
41.8023342955537345
 20
56.685680841279364
 30
0.0
 11
28.928536663457912
 21
38.137609256129501
 31
0.0
 70
1
 71
8
 72
2
 41
1.0
 42
0.0
  1
leg offset
  3
Standard
100
AcDbAlignedDimension
 13
56.5247661598891113
 23
48.1856808412794066
 33
0.0
 14
34.0247661598891113
 24
9.2145376709796807
 34
0.0
1001
ACAD
1000
DSTYLE
1002
{
1070
144
1040
1
1002
}
  0
MTEXT
  5
173
100
AcDbEntity
100
AcDbMText
  8
0
 62
256
370
-1
  6
BYLAYER
 10
50.0
 20
100.0
 30
0.0
 40
8.0
 41
0.0
 71
1
 72
1
  1
\H5.14286;Figure 1.1
  7
textstyle1
 50
0.0
 73
2
 44
1.0
  0
DIMENSION
  5
174
100
AcDbEntity
  8
0
 62
256
370
-1
  6
BYLAYER
100
AcDbDimension
 10
79.0247661598891113
 20
9.2145376709795386
 30
0.0
 11
102.307908861622721
 21
48.6378284909390715
 31
0.0
 70
2
 71
8
 72
2
 41
1.0
 42
0.0
  1
mounting angle
  3
Standard
100
AcDb2LineAngularDimension
 13
56.524766159889225
 23
48.1856808412793498
 33
0.0
 14
34.0247661598891113
 24
9.2145376709796807
 34
0.0
 15
34.0247661598891113
 25
9.2145376709796807
 35
0.0
 16
105.194493813717088
 26
38.5316699630485431
 36
0.0
  0
LINE
  5
175
100
AcDbEntity
100
AcDbLine
  8
0
 62
252
420
10526884
370
-1
  6
BYLAYER
 10
196.0908373102117821
 20
69.9192449860853174
 30
0.0
 11
186.0908373102117821
 21
69.9192449860853174
 31
0.0
  0
LINE
  5
176
100
AcDbEntity
100
AcDbLine
  8
0
 62
252
420
10526884
370
-1
  6
DOT
 10
186.0908373102117821
 20
69.9192449860853174
 30
0.0
 11
186.0908373102117821
 21
63.5692449860854083
 31
0.0
  0
LINE
  5
177
100
AcDbEntity
100
AcDbLine
  8
0
 62
252
420
10526884
370
-1
  6
BYLAYER
 10
196.0908373102117821
 20
69.9192449860853174
 30
0.0
 11
196.0908373102117821
 21
73.2442449860853628
 31
0.0
  0
LINE
  5
178
100
AcDbEntity
100
AcDbLine
  8
0
 62
252
420
10526884
370
-1
  6
BYLAYER
 10
196.0908373102117821
 20
63.5692449860854083
 30
0.0
 11
196.0908373102117821
 21
60.2442449860853628
 31
0.0
  0
ARC
  5
179
100
AcDbEntity
  8
0
 62
252
420
10526884
370
-1
  6
BYLAYER
100
AcDbCircle
 10
171.0908373102117821
 20
69.2442449860853628
 30
0.0
 40
5.0
100
AcDbArc
 50
90.0
 51
180.0
  0
CIRCLE
  5
17A
100
AcDbEntity
100
AcDbCircle
  8
0
 62
252
420
10526884
370
-1
  6
BYLAYER
 10
171.0908373102117821
 20
66.7442449860853628
 30
0.0
 40
1.5
  0
ARC
  5
17B
100
AcDbEntity
  8
0
 62
252
420
10526884
370
-1
  6
BYLAYER
100
AcDbCircle
 10
171.0908373102117821
 20
64.2442449860853628
 30
0.0
 40
5.0
100
AcDbArc
 50
180.0
 51
240.0
  0
ARC
  5
17C
100
AcDbEntity
  8
0
 62
252
420
10526884
370
-1
  6
BYLAYER
100
AcDbCircle
 10
185.0908373102117821
 20
54.2442449860853628
 30
0.0
 40
5.0
100
AcDbArc
 50
90.0
 51
180.0
  0
ARC
  5
17D
100
AcDbEntity
  8
0
 62
252
420
10526884
370
-1
  6
BYLAYER
100
AcDbCircle
 10
175.0908373102117821
 20
54.2442449860853628
 30
0.0
 40
5.0
100
AcDbArc
 50
180.0
 51
360.0
  0
LINE
  5
17E
100
AcDbEntity
100
AcDbLine
  8
0
 62
252
420
10526884
370
-1
  6
BYLAYER
 10
170.0908373102117821
 20
54.2442449860853628
 30
0.0
 11
170.0908373102117821
 21
57.3160417558098914
 31
0.0
  0
ARC
  5
17F
100
AcDbEntity
  8
0
 62
252
420
10526884
370
-1
  6
BYLAYER
100
AcDbCircle
 10
167.0908373102117821
 20
57.3160417558098914
 30
0.0
 40
3.0
100
AcDbArc
 50
0.0
 51
59.9999999999999858
  0
ARC
  5
180
100
AcDbEntity
  8
0
 62
252
420
10526884
370
-1
  6
BYLAYER
100
AcDbCircle
 10
195.0908373102117821
 20
73.2442449860853628
 30
0.0
 40
1.0
100
AcDbArc
 50
0.0
 51
90.0
  0
ARC
  5
181
100
AcDbEntity
  8
0
 62
252
420
10526884
370
-1
  6
BYLAYER
100
AcDbCircle
 10
195.0908373102117821
 20
60.2442449860853628
 30
0.0
 40
1.0
100
AcDbArc
 50
270.0
 51
0.0
  0
LINE
  5
182
100
AcDbEntity
100
AcDbLine
  8
0
 62
252
420
10526884
370
-1
  6
BYLAYER
 10
185.0908373102117821
 20
59.2442449860853628
 30
0.0
 11
195.0908373102117821
 21
59.2442449860853628
 31
0.0
  0
LINE
  5
183
100
AcDbEntity
100
AcDbLine
  8
0
 62
252
420
10526884
370
-1
  6
BYLAYER
 10
195.0908373102117821
 20
74.2442449860853628
 30
0.0
 11
171.0908373102117821
 21
74.2442449860853628
 31
0.0
  0
LINE
  5
184
100
AcDbEntity
100
AcDbLine
  8
0
 62
252
420
10526884
370
-1
  6
BYLAYER
 10
166.0908373102117821
 20
69.2442449860853628
 30
0.0
 11
166.0908373102117821
 21
64.2442449860853628
 31
0.0
  0
LINE
  5
185
100
AcDbEntity
100
AcDbLine
  8
0
 62
252
420
10526884
370
-1
  6
BYLAYER
 10
176.0908373102117821
 20
63.5692449860853515
 30
0.0
 11
225.0908373102118389
 21
63.5692449860853515
 31
0.0
  0
LINE
  5
186
100
AcDbEntity
100
AcDbLine
  8
0
 62
252
420
10526884
370
-1
  6
BYLAYER
 10
225.0908373102118389
 20
63.5692449860853515
 30
0.0
 11
225.0908373102118389
 21
69.9192449860853174
 31
0.0
  0
LINE
  5
187
100
AcDbEntity
100
AcDbLine
  8
0
 62
252
420
10526884
370
-1
  6
BYLAYER
 10
225.0908373102118389
 20
69.9192449860853174
 30
0.0
 11
176.0908373102117821
 21
69.9192449860853174
 31
0.0
  0
LINE
  5
188
100
AcDbEntity
100
AcDbLine
  8
0
 62
252
420
10526884
370
-1
  6
BYLAYER
 10
176.0908373102117821
 20
69.9192449860853174
 30
0.0
 11
176.0908373102117821
 21
63.5692449860853515
 31
0.0
  0
LINE
  5
189
100
AcDbEntity
100
AcDbLine
  8
0
 62
252
420
10526884
370
-1
  6
BYLAYER
 10
166.0908373102117821
 20
7.2192449860853785
 30
0.0
 11
196.0908373102117821
 21
7.2192449860853785
 31
0.0
  0
LINE
  5
18A
100
AcDbEntity
100
AcDbLine
  8
0
 62
252
420
10526884
370
-1
  6
BYLAYER
 10
196.0908373102117821
 20
7.2192449860853785
 30
0.0
 11
196.0908373102117821
 21
13.5692449860854012
 31
0.0
  0
LINE
  5
18B
100
AcDbEntity
100
AcDbLine
  8
0
 62
252
420
10526884
370
-1
  6
BYLAYER
 10
196.0908373102117821
 20
13.5692449860854012
 30
0.0
 11
166.0908373102117821
 21
13.5692449860854012
 31
0.0
  0
LINE
  5
18C
100
AcDbEntity
100
AcDbLine
  8
0
 62
252
420
10526884
370
-1
  6
BYLAYER
 10
166.0908373102117821
 20
13.5692449860854012
 30
0.0
 11
166.0908373102117821
 21
7.2192449860853785
 31
0.0
  0
LINE
  5
18D
100
AcDbEntity
100
AcDbLine
  8
0
 62
7
420
0
370
-1
  6
DOT2
 10
172.5908373102117821
 20
7.2192449860853785
 30
0.0
 11
172.5908373102117821
 21
13.5692449860854012
 31
0.0
  0
LINE
  5
18E
100
AcDbEntity
100
AcDbLine
  8
0
 62
7
420
0
370
-1
  6
DOT2
 10
169.5908373102117821
 20
13.5692449860854012
 30
0.0
 11
169.5908373102117821
 21
7.2192449860853785
 31
0.0
  0
LINE
  5
18F
100
AcDbEntity
100
AcDbLine
  8
0
 62
252
420
10526884
370
-1
  6
DOT
 10
221.5814201316136405
 20
56.535686095921136
 30
0.0
 11
221.5814201316136973
 21
76.9528038762495896
 31
0.0
  0
LINE
  5
190
100
AcDbEntity
100
AcDbLine
  8
0
 62
252
420
10526884
370
-1
  6
DOT
 10
218.5814201316136405
 20
76.9528038762495896
 30
0.0
 11
218.5814201316136405
 21
56.535686095921136
 31
0.0
  0
LINE
  5
191
100
AcDbEntity
100
AcDbLine
  8
0
 62
252
420
10526884
370
-1
  6
BYLAYER
 10
213.7031466349450284
 20
70.6028038762496806
 30
0.0
 11
245.3141466349450468
 21
70.6028038762496806
 31
0.0
  0
LINE
  5
192
100
AcDbEntity
100
AcDbLine
  8
0
 62
252
420
10526884
370
-1
  6
BYLAYER
 10
245.3141466349450468
 20
70.6028038762496806
 30
0.0
 11
245.3141466349450468
 21
76.9528038762495896
 31
0.0
  0
LINE
  5
193
100
AcDbEntity
100
AcDbLine
  8
0
 62
252
420
10526884
370
-1
  6
BYLAYER
 10
245.3141466349450468
 20
76.9528038762495896
 30
0.0
 11
213.7031466349450284
 21
76.9528038762495896
 31
0.0
  0
LINE
  5
194
100
AcDbEntity
100
AcDbLine
  8
0
 62
252
420
10526884
370
-1
  6
BYLAYER
 10
213.7031466349450284
 20
76.9528038762495896
 30
0.0
 11
213.7031466349450284
 21
70.6028038762496806
 31
0.0
  0
LINE
  5
195
100
AcDbEntity
100
AcDbLine
  8
0
 62
252
420
10526884
370
-1
  6
BYLAYER
 10
213.7031466349450284
 20
62.8856860959210451
 30
0.0
 11
245.3141466349450468
 21
62.8856860959210451
 31
0.0
  0
LINE
  5
196
100
AcDbEntity
100
AcDbLine
  8
0
 62
252
420
10526884
370
-1
  6
BYLAYER
 10
245.3141466349450468
 20
62.8856860959210451
 30
0.0
 11
245.3141466349450468
 21
56.535686095921136
 31
0.0
  0
LINE
  5
197
100
AcDbEntity
100
AcDbLine
  8
0
 62
252
420
10526884
370
-1
  6
BYLAYER
 10
245.3141466349450468
 20
56.535686095921136
 30
0.0
 11
213.7031466349450284
 21
56.535686095921136
 31
0.0
  0
LINE
  5
198
100
AcDbEntity
100
AcDbLine
  8
0
 62
252
420
10526884
370
-1
  6
BYLAYER
 10
213.7031466349450284
 20
56.535686095921136
 30
0.0
 11
213.7031466349450284
 21
62.8856860959210451
 31
0.0
  0
LINE
  5
199
100
AcDbEntity
100
AcDbLine
  8
0
 62
252
420
10526884
370
-1
  6
BYLAYER
 10
233.8846897259299453
 20
63.5692449860853515
 30
0.0
 11
265.936389725929871
 21
63.5692449860853515
 31
0.0
  0
LINE
  5
19A
100
AcDbEntity
100
AcDbLine
  8
0
 62
252
420
10526884
370
-1
  6
BYLAYER
 10
265.936389725929871
 20
63.5692449860853515
 30
0.0
 11
265.936389725929871
 21
69.9192449860853174
 31
0.0
  0
LINE
  5
19B
100
AcDbEntity
100
AcDbLine
  8
0
 62
252
420
10526884
370
-1
  6
BYLAYER
 10
265.936389725929871
 20
69.9192449860853174
 30
0.0
 11
233.8846897259299453
 21
69.9192449860853174
 31
0.0
  0
LINE
  5
19C
100
AcDbEntity
100
AcDbLine
  8
0
 62
252
420
10526884
370
-1
  6
BYLAYER
 10
233.8846897259299453
 20
69.9192449860853174
 30
0.0
 11
233.8846897259299453
 21
63.5692449860853515
 31
0.0
  0
LINE
  5
19D
100
AcDbEntity
100
AcDbLine
  8
0
 62
252
420
10526884
370
-1
  6
DOT
 10
240.3846897259299453
 20
56.535686095921136
 30
0.0
 11
240.3846897259299453
 21
76.9528038762495896
 31
0.0
  0
LINE
  5
19E
100
AcDbEntity
100
AcDbLine
  8
0
 62
252
420
10526884
370
-1
  6
DOT
 10
237.3846897259299453
 20
76.9528038762495896
 30
0.0
 11
237.3846897259299453
 21
56.535686095921136
 31
0.0
  0
LINE
  5
19F
100
AcDbEntity
100
AcDbLine
  8
0
 62
256
370
-1
  6
DOTX2
 10
258.3798378954929831
 20
-32.1836372652246965
 30
0.0
 11
258.3798378954929831
 21
63.5692449860854083
 31
0.0
  0
LINE
  5
1A0
100
AcDbEntity
100
AcDbLine
  8
0
 62
252
420
10526884
370
-1
  6
BYLAYER
 10
192.0908373102117821
 20
17.8942449860854467
 30
0.0
 11
177.0908373102117821
 21
17.8942449860854467
 31
0.0
  0
LINE
  5
1A1
100
AcDbEntity
100
AcDbLine
  8
0
 62
252
420
10526884
370
-1
  6
BYLAYER
 10
176.0908373102117821
 20
13.569244986085458
 30
0.0
 11
176.0908373102117821
 21
16.8942449860854467
 31
0.0
  0
LINE
  5
1A2
100
AcDbEntity
100
AcDbLine
  8
0
 62
252
420
10526884
370
-1
  6
BYLAYER
 10
176.0908373102117821
 20
7.2192449860854921
 30
0.0
 11
176.0908373102117821
 21
3.8942449860854467
 31
0.0
  0
LINE
  5
1A3
100
AcDbEntity
100
AcDbLine
  8
0
 62
252
420
10526884
370
-1
  6
BYLAYER
 10
202.0908373102117821
 20
-7.1057550139145533
 30
0.0
 11
210.0908373102117821
 21
-7.1057550139145533
 31
0.0
  0
LINE
  5
1A4
100
AcDbEntity
100
AcDbLine
  8
0
 62
252
420
10526884
370
-1
  6
BYLAYER
 10
215.0908373102117821
 20
33.2192449860854921
 30
0.0
 11
202.0908373102117821
 21
33.2192449860854921
 31
0.0
  0
LINE
  5
1A5
100
AcDbEntity
100
AcDbLine
  8
0
 62
252
420
10526884
370
-1
  6
BYLAYER
 10
197.0908373102117821
 20
28.2192449860854921
 30
0.0
 11
197.0908373102117821
 21
22.8942449860854467
 31
0.0
  0
LINE
  5
1A6
100
AcDbEntity
100
AcDbLine
  8
0
 62
252
420
10526884
370
-1
  6
BYLAYER
 10
218.0908373102117821
 20
23.2192449860854921
 30
0.0
 11
220.0908373102117821
 21
23.2192449860854921
 31
0.0
  0
LINE
  5
1A7
100
AcDbEntity
100
AcDbLine
  8
0
 62
252
420
10526884
370
-1
  6
BYLAYER
 10
225.0908373102117821
 20
28.2192449860854921
 30
0.0
 11
225.0908373102117821
 21
28.2192449860854921
 31
0.0
  0
LINE
  5
1A8
100
AcDbEntity
100
AcDbLine
  8
0
 62
252
420
10526884
370
-1
  6
BYLAYER
 10
220.0908373102117821
 20
33.2192449860854921
 30
0.0
 11
215.0908373102117821
 21
33.2192449860854921
 31
0.0
  0
LINE
  5
1A9
100
AcDbEntity
100
AcDbLine
  8
0
 62
252
420
10526884
370
-1
  6
BYLAYER
 10
215.0908373102117821
 20
20.2192449860854921
 30
0.0
 11
215.0908373102117821
 21
-2.1057550139145533
 31
0.0
  0
ARC
  5
1AA
100
AcDbEntity
  8
0
 62
252
420
10526884
370
-1
  6
BYLAYER
100
AcDbCircle
 10
218.0908373102117821
 20
20.2192449860854921
 30
0.0
 40
3.0
100
AcDbArc
 50
90.0
 51
180.0
  0
ARC
  5
1AB
100
AcDbEntity
  8
0
 62
252
420
10526884
370
-1
  6
BYLAYER
100
AcDbCircle
 10
220.0908373102117821
 20
28.2192449860854921
 30
0.0
 40
5.0
100
AcDbArc
 50
0.0
 51
90.0
  0
ARC
  5
1AC
100
AcDbEntity
  8
0
 62
252
420
10526884
370
-1
  6
BYLAYER
100
AcDbCircle
 10
220.0908373102117821
 20
28.2192449860854921
 30
0.0
 40
5.0
100
AcDbArc
 50
270.0
 51
0.0
  0
ARC
  5
1AD
100
AcDbEntity
  8
0
 62
252
420
10526884
370
-1
  6
BYLAYER
100
AcDbCircle
 10
202.0908373102117821
 20
28.2192449860854921
 30
0.0
 40
5.0
100
AcDbArc
 50
90.0
 51
180.0
  0
LINE
  5
1AE
100
AcDbEntity
100
AcDbLine
  8
0
 62
252
420
10526884
370
50
  6
BYLAYER
 10
151.0908373102117821
 20
-46.4307550139145988
 30
0.0
 11
276.0908373102117821
 21
-46.4307550139145988
 31
0.0
  0
ARC
  5
1AF
100
AcDbEntity
  8
0
 62
252
420
10526884
370
-1
  6
BYLAYER
100
AcDbCircle
 10
202.0908373102117821
 20
-2.1057550139145533
 30
0.0
 40
5.0
100
AcDbArc
 50
180.0
 51
270.0
  0
ARC
  5
1B0
100
AcDbEntity
  8
0
 62
252
420
10526884
370
-1
  6
BYLAYER
100
AcDbCircle
 10
210.0908373102117821
 20
-2.1057550139145533
 30
0.0
 40
5.0
100
AcDbArc
 50
270.0
 51
0.0
  0
LINE
  5
1B1
100
AcDbEntity
100
AcDbLine
  8
0
 62
252
420
10526884
370
-1
  6
DOT
 10
186.0908373102117821
 20
13.569244986085458
 30
0.0
 11
186.0908373102117821
 21
7.2192449860854921
 31
0.0
  0
LINE
  5
1B2
100
AcDbEntity
100
AcDbLine
  8
0
 62
252
420
10526884
370
-1
  6
DASHED
 10
220.0908373102117821
 20
10.3942449860853827
 30
0.0
 11
220.0908373102117821
 21
28.2192449860854921
 31
0.0
  0
LINE
  5
1B3
100
AcDbEntity
100
AcDbLine
  8
0
 62
252
420
10526884
370
-1
  6
BYLAYER
 10
186.0908373102117821
 20
7.2192449860854921
 30
0.0
 11
176.0908373102117821
 21
7.2192449860854921
 31
0.0
  0
DIMENSION
  5
1B4
100
AcDbEntity
  8
0
 62
256
370
-1
  6
BYLAYER
100
AcDbDimension
 10
156.0908373102114695
 20
10.3942449860855302
 30
0.0
 11
154.215837310211441
 21
-18.0182550139145476
 31
0.0
 70
1
 71
8
 72
2
 41
1.0
 42
0.0
  1
coxa height
  3
Standard
100
AcDbAlignedDimension
 13
166.0908373102118105
 23
10.3942449860855106
 33
0.0
 14
166.0908373102117253
 24
-46.4307550139146556
 34
0.0
1001
ACAD
1000
DSTYLE
1002
{
1070
144
1040
1
1002
}
  0
LINE
  5
1B5
100
AcDbEntity
100
AcDbLine
  8
0
 62
252
420
10526884
370
-1
  6
BYLAYER
 10
186.0908373102117821
 20
13.569244986085458
 30
0.0
 11
176.0908373102117821
 21
13.569244986085458
 31
0.0
  0
DIMENSION
  5
1B6
100
AcDbEntity
  8
0
 62
256
370
-1
  6
BYLAYER
100
AcDbDimension
 10
156.0908373102117537
 20
28.2192449860859895
 30
0.0
 11
152.4240146977547283
 21
19.7183229955743116
 31
0.0
 70
129
 71
8
 72
2
 41
1.0
 42
0.0
  1
femur height
  3
Standard
100
AcDbAlignedDimension
 13
220.0908373102117821
 23
28.2192449860854708
 33
0.0
 14
220.09083731021164
 24
10.3942449860853792
 34
0.0
1001
ACAD
1000
DSTYLE
1002
{
1070
144
1040
1
1002
}
  0
CIRCLE
  5
1B7
100
AcDbEntity
100
AcDbCircle
  8
0
 62
252
420
10526884
370
-1
  6
BYLAYER
 10
220.0908373102117821
 20
28.2192449860854921
 30
0.0
 40
1.5
  0
ARC
  5
1B8
100
AcDbEntity
  8
0
 62
252
420
10526884
370
-1
  6
BYLAYER
100
AcDbCircle
 10
192.0908373102117821
 20
-2.1057550139145533
 30
0.0
 40
5.0
100
AcDbArc
 50
0.0
 51
90.0
  0
ARC
  5
1B9
100
AcDbEntity
  8
0
 62
252
420
10526884
370
-1
  6
BYLAYER
100
AcDbCircle
 10
192.0908373102117821
 20
22.8942449860854467
 30
0.0
 40
5.0
100
AcDbArc
 50
270.0
 51
0.0
  0
ARC
  5
1BA
100
AcDbEntity
  8
0
 62
252
420
10526884
370
-1
  6
BYLAYER
100
AcDbCircle
 10
177.0908373102117821
 20
16.8942449860854467
 30
0.0
 40
1.0
100
AcDbArc
 50
89.9999999999999005
 51
180.0
  0
ARC
  5
1BB
100
AcDbEntity
  8
0
 62
252
420
10526884
370
-1
  6
BYLAYER
100
AcDbCircle
 10
177.0908373102117821
 20
3.8942449860854467
 30
0.0
 40
1.0
100
AcDbArc
 50
180.0
 51
270.0
  0
LINE
  5
1BC
100
AcDbEntity
100
AcDbLine
  8
0
 62
252
420
10526884
370
-1
  6
BYLAYER
 10
177.0908373102117821
 20
2.8942449860854467
 30
0.0
 11
192.0908373102117821
 21
2.8942449860854467
 31
0.0
  0
LINE
  5
1BD
100
AcDbEntity
100
AcDbLine
  8
0
 62
252
420
10526884
370
-1
  6
BYLAYER
 10
213.6822734896538805
 20
25.2308825987842837
 30
0.0
 11
217.1024749229105737
 21
34.6278088066433938
 31
0.0
  0
LINE
  5
1BE
100
AcDbEntity
100
AcDbLine
  8
0
 62
252
420
10526884
370
-1
  6
BYLAYER
 10
245.2932535464878185
 20
24.3672045068733141
 30
0.0
 11
241.8730521132311537
 21
14.970278299014204
 31
0.0
  0
CIRCLE
  5
1BF
100
AcDbEntity
100
AcDbCircle
  8
0
 62
252
420
10526884
370
-1
  6
BYLAYER
 10
220.0908373102117821
 20
28.2192449860854921
 30
0.0
 40
1.0
  0
CIRCLE
  5
1C0
100
AcDbEntity
100
AcDbCircle
  8
0
 62
252
420
10526884
370
-1
  6
BYLAYER
 10
238.8846897259299453
 20
21.3788421195721057
 30
0.0
 40
1.0
  0
LINE
  5
1C1
100
AcDbEntity
100
AcDbLine
  8
0
 62
252
420
10526884
370
-1
  6
BYLAYER
 10
217.1024749229105737
 20
34.6278088066433938
 30
0.0
 11
245.2932535464878185
 21
24.3672045068733141
 31
0.0
  0
LINE
  5
1C2
100
AcDbEntity
100
AcDbLine
  8
0
 62
252
420
10526884
370
-1
  6
BYLAYER
 10
241.8730521132311537
 20
14.970278299014204
 30
0.0
 11
213.6822734896538805
 21
25.2308825987842837
 31
0.0
  0
LINE
  5
1C3
100
AcDbEntity
100
AcDbLine
  8
0
 62
252
420
10526884
370
-1
  6
BYLAYER
 10
248.5510726416784166
 20
-19.798348670064378
 30
0.0
 11
251.9712740749351099
 21
-29.1952748779234881
 31
0.0
  0
LINE
  5
1C4
100
AcDbEntity
100
AcDbLine
  8
0
 62
252
420
10526884
370
-1
  6
BYLAYER
 10
262.6464619534671101
 20
-14.668046520179395
 30
0.0
 11
262.6464619534671101
 21
-14.668046520179395
 31
0.0
  0
LINE
  5
1C5
100
AcDbEntity
100
AcDbLine
  8
0
 62
252
420
10526884
370
-1
  6
BYLAYER
 10
243.5831528298595288
 20
23.0889428362004523
 30
0.0
 11
243.5831528298595288
 21
23.0889428362004523
 31
0.0
  0
LINE
  5
1C6
100
AcDbEntity
100
AcDbLine
  8
0
 62
252
420
10526884
370
-1
  6
BYLAYER
 10
237.1745890093015987
 20
26.0773052235016607
 30
0.0
 11
237.1745890093015987
 21
26.0773052235016607
 31
0.0
  0
LINE
  5
1C7
100
AcDbEntity
100
AcDbLine
  8
0
 62
252
420
10526884
370
-1
  6
BYLAYER
 10
234.1862266220003903
 20
19.6687414029437591
 30
0.0
 11
235.8963273386287369
 21
14.970278299014204
 31
0.0
  0
LINE
  5
1C8
100
AcDbEntity
100
AcDbLine
  8
0
 62
252
420
10526884
370
-1
  6
BYLAYER
 10
249.9917166504174304
 20
20.1005804488992439
 30
0.0
 11
249.9917166504174304
 21
20.1005804488992439
 31
0.0
  0
ARC
  5
1C9
100
AcDbEntity
  8
0
 62
252
420
10526884
370
-1
  6
BYLAYER
100
AcDbCircle
 10
238.8846897259299453
 20
21.3788421195721057
 30
0.0
 40
5.0
100
AcDbArc
 50
110.0000000000000142
 51
200.0
  0
ARC
  5
1CA
100
AcDbEntity
  8
0
 62
252
420
10526884
370
-1
  6
BYLAYER
100
AcDbCircle
 10
238.8846897259299453
 20
21.3788421195721057
 30
0.0
 40
5.0
100
AcDbArc
 50
20.0
 51
110.0000000000000142
  0
ARC
  5
1CB
100
AcDbEntity
  8
0
 62
252
420
10526884
370
-1
  6
BYLAYER
100
AcDbCircle
 10
251.7018173670457202
 20
15.4021173449696889
 30
0.0
 40
5.0
100
AcDbArc
 50
20.0
 51
110.0000000000000142
  0
ARC
  5
1CC
100
AcDbEntity
  8
0
 62
252
420
10526884
370
-1
  6
BYLAYER
100
AcDbCircle
 10
260.9363612368387066
 20
-9.96958341624984
 30
0.0
 40
5.0
100
AcDbArc
 50
289.9999999999999432
 51
20.0
  0
ARC
  5
1CD
100
AcDbEntity
  8
0
 62
252
420
10526884
370
-1
  6
BYLAYER
100
AcDbCircle
 10
256.6697371788646933
 20
-27.4851741612951415
 30
0.0
 40
5.0
100
AcDbArc
 50
200.0
 51
289.9999999999999432
  0
ARC
  5
1CE
100
AcDbEntity
  8
0
 62
252
420
10526884
370
-1
  6
BYLAYER
100
AcDbCircle
 10
256.6697371788646933
 20
-27.4851741612951415
 30
0.0
 40
5.0
100
AcDbArc
 50
289.9999999999999432
 51
20.0
  0
CIRCLE
  5
1CF
100
AcDbEntity
100
AcDbCircle
  8
0
 62
252
420
10526884
370
-1
  6
BYLAYER
 10
238.8846897259299453
 20
21.3788421195721057
 30
0.0
 40
1.5
  0
ARC
  5
1D0
100
AcDbEntity
  8
0
 62
252
420
10526884
370
-1
  6
BYLAYER
100
AcDbCircle
 10
264.3565626700953999
 20
-19.3665096241088932
 30
0.0
 40
5.0
100
AcDbArc
 50
110.0000000000000142
 51
200.0
  0
ARC
  5
1D1
100
AcDbEntity
  8
0
 62
252
420
10526884
370
-1
  6
BYLAYER
100
AcDbCircle
 10
248.2816159337890269
 20
24.7990435528287989
 30
0.0
 40
5.0
100
AcDbArc
 50
200.0
 51
289.9999999999999432
  0
LINE
  5
1D2
100
AcDbEntity
100
AcDbLine
  8
0
 62
252
420
10526884
370
-1
  6
BYLAYER
 10
265.6348243407683185
 20
-8.2594826996214934
 30
0.0
 11
256.4002804709751899
 21
17.1122180615980355
 31
0.0
  0
LINE
  5
1D3
100
AcDbEntity
100
AcDbLine
  8
0
 62
252
420
10526884
370
-1
  6
BYLAYER
 10
235.8963273386287369
 20
14.970278299014204
 30
0.0
 11
248.5510726416784166
 21
-19.798348670064378
 31
0.0
  0
LINE
  5
1D4
100
AcDbEntity
100
AcDbLine
  8
0
 62
252
420
10526884
370
-1
  6
BYLAYER
 10
258.3798378954929831
 20
-32.1836372652246965
 30
0.0
 11
258.3798378954929831
 21
-32.1836372652246965
 31
0.0
  0
LINE
  5
1D5
100
AcDbEntity
100
AcDbLine
  8
0
 62
252
420
10526884
370
-1
  6
BYLAYER
 10
261.3682002827941915
 20
-25.7750734446667948
 30
0.0
 11
259.6580995661659017
 21
-21.0766103407372398
 31
0.0
  0
LINE
  5
1D6
100
AcDbEntity
100
AcDbLine
  8
0
 62
252
420
10526884
370
-1
  6
BYLAYER
 10
186.0908373102117821
 20
63.5692449860854083
 30
0.0
 11
196.0908373102117821
 21
63.5692449860854083
 31
0.0
  0
LINE
  5
1D7
100
AcDbEntity
100
AcDbLine
  8
0
 62
9
420
12632256
370
-1
  6
DASHED
 10
166.0908373102117821
 20
13.5692449860854012
 30
0.0
 11
166.0908373102117821
 21
64.2442449860853344
 31
0.0
  0
LINE
  5
1D8
100
AcDbEntity
100
AcDbLine
  8
0
 62
9
420
12632256
370
-1
  6
DASHED
 10
176.0908373102117821
 20
13.5692449860854012
 30
0.0
 11
176.0908373102117821
 21
63.5692449860853372
 31
0.0
  0
LINE
  5
1D9
100
AcDbEntity
100
AcDbLine
  8
0
 62
9
420
12632256
370
-1
  6
DASHED
 10
196.0908373102118105
 20
13.569244986085387
 30
0.0
 11
196.0908373102118105
 21
63.5692449860853372
 31
0.0
  0
LINE
  5
1DA
100
AcDbEntity
100
AcDbLine
  8
0
 62
9
420
12632256
370
-1
  6
DASHED
 10
213.703146634945
 20
25.2232853952027867
 30
0.0
 11
213.703146634945
 21
56.535686095921136
 31
0.0
  0
LINE
  5
1DB
100
AcDbEntity
100
AcDbLine
  8
0
 62
9
420
12632256
370
-1
  6
DASHED
 10
245.3141466349450468
 20
24.3596000445730212
 30
0.0
 11
245.3141466349450468
 21
56.535686095921136
 31
0.0
  0
LINE
  5
1DC
100
AcDbEntity
100
AcDbLine
  8
0
 62
9
420
12632256
370
-1
  6
DASHED
 10
265.936389725929871
 20
-9.0880267858422492
 30
0.0
 11
265.936389725929871
 21
63.5692449860853515
 31
0.0
  0
DIMENSION
  5
1DD
100
AcDbEntity
  8
0
 62
256
370
-1
  6
BYLAYER
100
AcDbDimension
 10
171.0692428761836368
 20
79.7458700225240023
 30
0.0
 11
195.6554624053378859
 21
81.6617079269160513
 31
0.0
 70
1
 71
8
 72
2
 41
1.0
 42
0.0
  1
coxa length
  3
Standard
100
AcDbAlignedDimension
 13
171.0908373102117821
 23
66.7442449860853628
 33
0.0
 14
220.2695047450258983
 24
66.8259259672295372
 34
0.0
1001
ACAD
1000
DSTYLE
1002
{
1070
144
1040
1
1002
}
  0
MTEXT
  5
1DE
100
AcDbEntity
100
AcDbMText
  8
0
 62
252
420
10526884
370
-1
  6
BYLAYER
 10
217.2695047450259267
 20
-36.1740740327704557
 30
0.0
 40
8.0
 41
0.0
 71
1
 72
1
  1
\H2.85714;(ground)
  7
textstyle2
 50
0.0
 73
2
 44
1.0
  0
MTEXT
  5
1DF
100
AcDbEntity
100
AcDbMText
  8
0
 62
256
370
-1
  6
BYLAYER
 10
200.0
 20
100.0
 30
0.0
 40
8.0
 41
0.0
 71
1
 72
1
  1
\H5.14286;Figure 1.2
  7
textstyle3
 50
0.0
 73
2
 44
1.0
  0
DIMENSION
  5
1E0
100
AcDbEntity
  8
0
 62
256
370
-1
  6
BYLAYER
100
AcDbDimension
 10
224.4172680885199895
 20
40.1060158563207381
 30
0.0
 11
234.8358628551068534
 21
40.7661658385380576
 31
0.0
 70
129
 71
8
 72
2
 41
1.0
 42
0.0
  1
femur length
  3
Standard
100
AcDbAlignedDimension
 13
220.0908373102117821
 23
28.2192449860854921
 33
0.0
 14
238.8846897259299453
 24
21.3788421195721057
 34
0.0
1001
ACAD
1000
DSTYLE
1002
{
1070
144
1040
1
1002
}
  0
DIMENSION
  5
1E1
100
AcDbEntity
  8
0
 62
256
370
-1
  6
BYLAYER
100
AcDbDimension
 10
258.2237425120206353
 20
28.4176816926119535
 30
0.0
 11
269.7332402607756876
 21
2.2777297689491753
 31
0.0
 70
1
 71
8
 72
2
 41
1.0
 42
0.0
  1
tibia length
  3
Standard
100
AcDbAlignedDimension
 13
238.8846897259299453
 23
21.3788421195721057
 33
0.0
 14
258.3798378954929831
 24
-32.1836372652247036
 34
0.0
1001
ACAD
1000
DSTYLE
1002
{
1070
144
1040
1
1002
}
  0
DIMENSION
  5
1E2
100
AcDbEntity
  8
0
 62
256
370
-1
  6
DASHED
100
AcDbDimension
 10
383.2269944046098544
 20
64.0870941815073394
 30
0.0
 11
376.2269944046097407
 21
65.9620941815072825
 31
0.0
 70
1
 71
8
 72
2
 41
1.0
 42
0.0
  1
d
  3
Standard
100
AcDbAlignedDimension
 13
383.2269944046098544
 23
57.7182655525791262
 33
0.0
 14
369.2269944046096839
 24
57.7182655525790125
 34
0.0
1001
ACAD
1000
DSTYLE
1002
{
1070
144
1040
1
1002
}
  0
DIMENSION
  5
1E3
100
AcDbEntity
  8
0
 62
256
370
-1
  6
DASHED
100
AcDbDimension
 10
386.8135195657764598
 20
58.3608914476438585
 30
0.0
 11
391.1378149552958803
 21
44.8579116097896957
 31
0.0
 70
1
 71
8
 72
2
 41
1.0
 42
0.0
  1
a
  3
Standard
100
AcDbAlignedDimension
 13
383.2269944046098544
 23
57.7182655525791262
 33
0.0
 14
388.1843697855275082
 24
30.050921809423528
 34
0.0
1001
ACAD
1000
DSTYLE
1002
{
1070
144
1040
1
1002
}
  0
LINE
  5
1E4
100
AcDbEntity
100
AcDbLine
  8
0
 62
256
370
50
  6
BYLAYER
 10
383.2269944046099681
 20
57.7182655525792399
 30
0.0
 11
369.2269944046099681
 21
57.718265552579183
 31
0.0
  0
LINE
  5
1E5
100
AcDbEntity
100
AcDbLine
  8
0
 62
256
370
50
  6
BYLAYER
 10
383.2269944046099681
 20
57.7182655525792399
 30
0.0
 11
388.1843697855277924
 21
30.0509218094234285
 31
0.0
  0
LINE
  5
1E6
100
AcDbEntity
100
AcDbLine
  8
0
 62
256
370
50
  6
BYLAYER
 10
388.1843697855276787
 20
30.0509218094234285
 30
0.0
 11
373.1843697855277924
 21
30.0509218094234285
 31
0.0
  0
DIMENSION
  5
1E7
100
AcDbEntity
  8
0
 62
256
370
-1
  6
BYLAYER
100
AcDbDimension
 10
378.2269944046098544
 20
15.7182655525793535
 30
0.0
 11
346.6257736003154832
 21
21.2462795783927376
 31
0.0
 70
130
 71
8
 72
2
 41
1.0
 42
0.0
  1
desired angle
  3
Standard
100
AcDb2LineAngularDimension
 13
358.2269944046098544
 23
52.718265552579183
 33
0.0
 14
388.226994404610025
 24
52.7182655525792825
 34
0.0
 15
378.2269944046098544
 25
52.7182655525791262
 35
0.0
 16
356.0486914283061424
 26
17.790870539157325
 36
0.0
  0
DIMENSION
  5
1E8
100
AcDbEntity
  8
0
 62
256
370
-1
  6
BYLAYER
100
AcDbDimension
 10
388.1843697855276218
 20
30.0509218094233006
 30
0.0
 11
335.9857978170483648
 21
12.682105609585804
 31
0.0
 70
130
 71
8
 72
2
 41
1.0
 42
0.0
  1
E (desired angle + E offset)
  3
Standard
100
AcDb2LineAngularDimension
 13
369.2269944046096839
 23
57.7182655525790125
 33
0.0
 14
383.2269944046098544
 24
57.7182655525791262
 34
0.0
 15
383.2269944046098544
 25
57.7182655525791262
 35
0.0
 16
343.1843697855274513
 26
10.0509218094232011
 36
0.0
  0
LINE
  5
1E9
100
AcDbEntity
100
AcDbLine
  8
0
 62
252
420
10526884
370
-1
  6
BYLAYER
 10
378.2269944046099681
 20
15.7182655525792399
 30
0.0
 11
378.2269944046099681
 21
5.7182655525792399
 31
0.0
  0
LINE
  5
1EA
100
AcDbEntity
100
AcDbLine
  8
0
 62
252
420
10526884
370
-1
  6
BYLAYER
 10
393.2269944046099681
 20
15.7182655525792399
 30
0.0
 11
393.2269944046099681
 21
15.7182655525792399
 31
0.0
  0
LINE
  5
1EB
100
AcDbEntity
100
AcDbLine
  8
0
 62
252
420
10526884
370
-1
  6
BYLAYER
 10
388.2269944046099681
 20
57.7182655525792399
 30
0.0
 11
388.2269944046099681
 21
57.7182655525792399
 31
0.0
  0
LINE
  5
1EC
100
AcDbEntity
100
AcDbLine
  8
0
 62
252
420
10526884
370
-1
  6
BYLAYER
 10
383.2269944046099681
 20
62.7182655525792399
 30
0.0
 11
383.2269944046099681
 21
62.7182655525792399
 31
0.0
  0
LINE
  5
1ED
100
AcDbEntity
100
AcDbLine
  8
0
 62
256
370
-1
  6
DASHED
 10
388.1843697855276787
 20
30.0509218094234285
 30
0.0
 11
388.1843697855276787
 21
40.7101122881274051
 31
0.0
  0
LINE
  5
1EE
100
AcDbEntity
100
AcDbLine
  8
0
 62
252
420
10526884
370
-1
  6
BYLAYER
 10
378.2269944046099681
 20
57.7182655525792399
 30
0.0
 11
378.2269944046099681
 21
52.7182655525792399
 31
0.0
  0
DIMENSION
  5
1EF
100
AcDbEntity
  8
0
 62
256
370
-1
  6
BYLAYER
100
AcDbDimension
 10
388.1843697855278492
 20
40.7101122881276254
 30
0.0
 11
357.4859996069201884
 21
74.7825046044261654
 31
0.0
 70
130
 71
8
 72
2
 41
1.0
 42
0.0
  1
N (servo neutral angle)
  3
Standard
100
AcDb2LineAngularDimension
 13
373.1843697855275082
 23
30.0509218094233077
 33
0.0
 14
388.1843697855275082
 24
30.050921809423528
 34
0.0
 15
388.1843697855275082
 25
30.050921809423528
 35
0.0
 16
350.9107758265770372
 26
65.5365721689014578
 36
0.0
  0
LINE
  5
1F0
100
AcDbEntity
100
AcDbLine
  8
0
 62
252
420
10526884
370
-1
  6
BYLAYER
 10
393.2269944046099681
 20
52.7182655525792399
 30
0.0
 11
393.2269944046099681
 21
52.7182655525792399
 31
0.0
  0
ARC
  5
1F1
100
AcDbEntity
  8
0
 62
252
420
10526884
370
-1
  6
BYLAYER
100
AcDbCircle
 10
383.2269944046099681
 20
57.7182655525792399
 30
0.0
 40
5.0
100
AcDbArc
 50
90.0
 51
180.0
  0
ARC
  5
1F2
100
AcDbEntity
  8
0
 62
252
420
10526884
370
-1
  6
BYLAYER
100
AcDbCircle
 10
383.2269944046099681
 20
57.7182655525792399
 30
0.0
 40
5.0
100
AcDbArc
 50
0.0
 51
90.0
  0
ARC
  5
1F3
100
AcDbEntity
  8
0
 62
252
420
10526884
370
-1
  6
BYLAYER
100
AcDbCircle
 10
393.2269944046099681
 20
47.7182655525792399
 30
0.0
 40
5.0
100
AcDbArc
 50
0.0
 51
90.0
  0
ARC
  5
1F4
100
AcDbEntity
  8
0
 62
252
420
10526884
370
-1
  6
BYLAYER
100
AcDbCircle
 10
393.2269944046099681
 20
20.7182655525792399
 30
0.0
 40
5.0
100
AcDbArc
 50
270.0
 51
0.0
  0
ARC
  5
1F5
100
AcDbEntity
  8
0
 62
252
420
10526884
370
-1
  6
BYLAYER
100
AcDbCircle
 10
383.2269944046099681
 20
5.7182655525792399
 30
0.0
 40
5.0
100
AcDbArc
 50
180.0
 51
270.0
  0
ARC
  5
1F6
100
AcDbEntity
  8
0
 62
252
420
10526884
370
-1
  6
BYLAYER
100
AcDbCircle
 10
383.2269944046099681
 20
5.7182655525792399
 30
0.0
 40
5.0
100
AcDbArc
 50
270.0
 51
0.0
  0
CIRCLE
  5
1F7
100
AcDbEntity
100
AcDbCircle
  8
0
 62
256
370
-1
  6
BYLAYER
 10
383.2269944046099681
 20
57.7182655525792399
 30
0.0
 40
1.5
  0
ARC
  5
1F8
100
AcDbEntity
  8
0
 62
252
420
10526884
370
-1
  6
BYLAYER
100
AcDbCircle
 10
393.2269944046099681
 20
10.7182655525792399
 30
0.0
 40
5.0
100
AcDbArc
 50
90.0
 51
180.0
  0
ARC
  5
1F9
100
AcDbEntity
  8
0
 62
252
420
10526884
370
-1
  6
BYLAYER
100
AcDbCircle
 10
393.2269944046099681
 20
57.7182655525792399
 30
0.0
 40
5.0
100
AcDbArc
 50
180.0
 51
270.0
  0
LINE
  5
1FA
100
AcDbEntity
100
AcDbLine
  8
0
 62
252
420
10526884
370
-1
  6
BYLAYER
 10
398.2269944046099681
 20
20.7182655525792399
 30
0.0
 11
398.2269944046099681
 21
47.7182655525792399
 31
0.0
  0
LINE
  5
1FB
100
AcDbEntity
100
AcDbLine
  8
0
 62
252
420
10526884
370
-1
  6
BYLAYER
 10
378.2269944046099681
 20
52.7182655525792399
 30
0.0
 11
378.2269944046099681
 21
15.7182655525792399
 31
0.0
  0
LINE
  5
1FC
100
AcDbEntity
100
AcDbLine
  8
0
 62
252
420
10526884
370
-1
  6
BYLAYER
 10
383.2269944046099681
 20
0.7182655525792399
 30
0.0
 11
383.2269944046099681
 21
0.7182655525792399
 31
0.0
  0
LINE
  5
1FD
100
AcDbEntity
100
AcDbLine
  8
0
 62
252
420
10526884
370
-1
  6
BYLAYER
 10
388.2269944046099681
 20
5.7182655525792399
 30
0.0
 11
388.2269944046099681
 21
10.7182655525792399
 31
0.0
  0
LINE
  5
1FE
100
AcDbEntity
100
AcDbLine
  8
0
 62
252
420
10526884
370
-1
  6
BYLAYER
 10
382.2269944046099681
 20
22.7182655525792399
 30
0.0
 11
394.2269944046099681
 21
22.7182655525792399
 31
0.0
  0
CIRCLE
  5
1FF
100
AcDbEntity
100
AcDbCircle
  8
0
 62
252
420
10526884
370
-1
  6
BYLAYER
 10
388.2269944046099681
 20
48.2182655525792399
 30
0.0
 40
0.5
  0
CIRCLE
  5
200
100
AcDbEntity
100
AcDbCircle
  8
0
 62
252
420
10526884
370
-1
  6
BYLAYER
 10
388.2269944046099681
 20
20.2182655525792399
 30
0.0
 40
0.5
  0
LINE
  5
201
100
AcDbEntity
100
AcDbLine
  8
0
 62
252
420
10526884
370
-1
  6
BYLAYER
 10
394.2269944046099681
 20
22.7182655525792399
 30
0.0
 11
394.2269944046099681
 21
45.7182655525792399
 31
0.0
  0
LINE
  5
202
100
AcDbEntity
100
AcDbLine
  8
0
 62
252
420
10526884
370
-1
  6
BYLAYER
 10
394.2269944046099681
 20
45.7182655525792399
 30
0.0
 11
382.2269944046099681
 21
45.7182655525792399
 31
0.0
  0
LINE
  5
203
100
AcDbEntity
100
AcDbLine
  8
0
 62
252
420
10526884
370
-1
  6
BYLAYER
 10
382.2269944046099681
 20
45.7182655525792399
 30
0.0
 11
382.2269944046099681
 21
22.7182655525792399
 31
0.0
  0
CIRCLE
  5
204
100
AcDbEntity
100
AcDbCircle
  8
0
 62
256
370
-1
  6
BYLAYER
 10
369.2269944046099681
 20
57.7182655525792399
 30
0.0
 40
0.5
  0
LINE
  5
205
100
AcDbEntity
100
AcDbLine
  8
0
 62
252
420
10526884
370
-1
  6
BYLAYER
 10
358.2269944046099681
 20
52.7182655525792399
 30
0.0
 11
358.2269944046099681
 21
62.7182655525792399
 31
0.0
  0
LINE
  5
206
100
AcDbEntity
100
AcDbLine
  8
0
 62
252
420
10526884
370
-1
  6
BYLAYER
 10
388.2269944046099681
 20
62.7182655525792399
 30
0.0
 11
388.2269944046099681
 21
52.7182655525792399
 31
0.0
  0
CIRCLE
  5
207
100
AcDbEntity
100
AcDbCircle
  8
0
 62
252
420
10526884
370
-1
  6
BYLAYER
 10
363.2269944046099681
 20
57.7182655525792399
 30
0.0
 40
1.0
  0
CIRCLE
  5
208
100
AcDbEntity
100
AcDbCircle
  8
0
 62
252
420
10526884
370
-1
  6
BYLAYER
 10
383.2269944046099681
 20
57.7182655525792399
 30
0.0
 40
1.0
  0
LINE
  5
209
100
AcDbEntity
100
AcDbLine
  8
0
 62
252
420
10526884
370
-1
  6
BYLAYER
 10
358.2269944046099681
 20
62.7182655525792399
 30
0.0
 11
388.2269944046099681
 21
62.7182655525792399
 31
0.0
  0
LINE
  5
20A
100
AcDbEntity
100
AcDbLine
  8
0
 62
252
420
10526884
370
-1
  6
BYLAYER
 10
388.2269944046099681
 20
52.7182655525792399
 30
0.0
 11
358.2269944046099681
 21
52.7182655525792399
 31
0.0
  0
CIRCLE
  5
20B
100
AcDbEntity
100
AcDbCircle
  8
0
 62
252
420
10526884
370
-1
  6
BYLAYER
 10
388.1843697855277924
 20
30.0509218094234285
 30
0.0
 40
2.0
  0
LINE
  5
20C
100
AcDbEntity
100
AcDbLine
  8
0
 62
252
420
10526884
370
-1
  6
BYLAYER
 10
388.1843697855277924
 20
32.0509218094234285
 30
0.0
 11
372.1256477635763531
 21
31.1062911022497275
 31
0.0
  0
LINE
  5
20D
100
AcDbEntity
100
AcDbLine
  8
0
 62
252
420
10526884
370
-1
  6
BYLAYER
 10
371.1843697855277924
 20
30.1080167290746914
 30
0.0
 11
371.1843697855277924
 21
29.9938268897719382
 31
0.0
  0
LINE
  5
20E
100
AcDbEntity
100
AcDbLine
  8
0
 62
252
420
10526884
370
-1
  6
BYLAYER
 10
372.1256477635763531
 20
28.9955525165969021
 30
0.0
 11
388.1843697855277924
 21
28.0509218094234285
 31
0.0
  0
ARC
  5
20F
100
AcDbEntity
  8
0
 62
252
420
10526884
370
-1
  6
BYLAYER
100
AcDbCircle
 10
372.1843697855277924
 20
30.1080167290746914
 30
0.0
 40
1.0
100
AcDbArc
 50
93.3664606634313259
 51
180.0
  0
ARC
  5
210
100
AcDbEntity
  8
0
 62
252
420
10526884
370
-1
  6
BYLAYER
100
AcDbCircle
 10
372.1843697855277924
 20
29.9938268897719382
 30
0.0
 40
1.0
100
AcDbArc
 50
180.0
 51
266.6335393365719142
  0
LINE
  5
211
100
AcDbEntity
100
AcDbLine
  8
0
 62
256
370
50
  6
BYLAYER
 10
369.2269944046099681
 20
57.7182655525792399
 30
0.0
 11
373.1843697855277924
 21
30.0509218094234285
 31
0.0
  0
DIMENSION
  5
212
100
AcDbEntity
  8
0
 62
256
370
-1
  6
DASHED
100
AcDbDimension
 10
388.1843697855276218
 20
25.0870941815069841
 30
0.0
 11
380.684369785527565
 21
26.9620941815069877
 31
0.0
 70
1
 71
8
 72
2
 41
1.0
 42
0.0
  1
b
  3
Standard
100
AcDbAlignedDimension
 13
388.1843697855276218
 23
30.0509218094233006
 33
0.0
 14
373.1843697855275082
 24
30.0509218094233077
 34
0.0
1001
ACAD
1000
DSTYLE
1002
{
1070
144
1040
1
1002
}
  0
DIMENSION
  5
213
100
AcDbEntity
  8
0
 62
256
370
-1
  6
DASHED
100
AcDbDimension
 10
370.615084279590917
 20
29.6834262051422613
 30
0.0
 11
367.7003801320257139
 21
43.0870941815069912
 31
0.0
 70
129
 71
8
 72
2
 41
1.0
 42
0.0
  1
c
  3
Standard
100
AcDbAlignedDimension
 13
373.1843697855275082
 23
30.0509218094233077
 33
0.0
 14
369.2269944046096839
 24
57.7182655525790125
 34
0.0
1001
ACAD
1000
DSTYLE
1002
{
1070
144
1040
1
1002
}
  0
MTEXT
  5
214
100
AcDbEntity
100
AcDbMText
  8
0
 62
256
370
-1
  6
BYLAYER
 10
350.0
 20
100.0
 30
0.0
 40
8.0
 41
0.0
 71
1
 72
1
  1
\H5.14286;Figure 1.3
  7
textstyle4
 50
0.0
 73
2
 44
1.0
  0
LINE
  5
215
100
AcDbEntity
100
AcDbLine
  8
0
 62
252
420
10526884
370
-1
  6
BYLAYER
 10
476.4402986412669634
 20
45.9189150630618386
 30
0.0
 11
506.4402986412669634
 21
45.9189150630618528
 31
0.0
  0
LINE
  5
216
100
AcDbEntity
100
AcDbLine
  8
0
 62
252
420
10526884
370
-1
  6
BYLAYER
 10
545.4402986412669634
 20
36.2689150630617902
 30
0.0
 11
545.4402986412669634
 21
39.5939150630617931
 31
0.0
  0
CIRCLE
  5
217
100
AcDbEntity
100
AcDbCircle
  8
0
 62
252
420
10526884
370
-1
  6
BYLAYER
 10
487.4402986412669634
 20
50.9189150630618457
 30
0.0
 40
0.5
  0
ARC
  5
218
100
AcDbEntity
  8
0
 62
252
420
10526884
370
-1
  6
BYLAYER
100
AcDbCircle
 10
499.0898852750683545
 20
27.8322438692982814
 30
0.0
 40
1.0
100
AcDbArc
 50
93.3664606634280716
 51
180.0
  0
CIRCLE
  5
219
100
AcDbEntity
100
AcDbCircle
  8
0
 62
252
420
10526884
370
-1
  6
BYLAYER
 10
515.0898852750683545
 20
27.7751489496469333
 30
0.0
 40
2.0
  0
LINE
  5
21A
100
AcDbEntity
100
AcDbLine
  8
0
 62
252
420
10526884
370
-1
  6
BYLAYER
 10
515.0898852750683545
 20
25.775148949646919
 30
0.0
 11
499.0311632531168016
 21
26.7197796568204993
 31
0.0
  0
LINE
  5
21B
100
AcDbEntity
100
AcDbLine
  8
0
 62
252
420
10526884
370
-1
  6
BYLAYER
 10
499.0311632531169153
 20
28.8305182424733317
 30
0.0
 11
515.0898852750683545
 21
29.7751489496469048
 31
0.0
  0
ARC
  5
21C
100
AcDbEntity
  8
0
 62
252
420
10526884
370
-1
  6
BYLAYER
100
AcDbCircle
 10
499.0898852750683545
 20
27.7180540299955496
 30
0.0
 40
1.0
100
AcDbArc
 50
180.0
 51
266.6335393365686741
  0
LINE
  5
21D
100
AcDbEntity
100
AcDbLine
  8
0
 62
256
370
50
  6
BYLAYER
 10
515.0898852750683545
 20
27.7751489496469333
 30
0.0
 11
501.4402986412669634
 21
50.9189150630618457
 31
0.0
  0
LINE
  5
21E
100
AcDbEntity
100
AcDbLine
  8
0
 62
256
370
50
  6
BYLAYER
 10
501.4402986412669634
 20
50.9189150630618457
 30
0.0
 11
487.4402986412669634
 21
50.9189150630618457
 31
0.0
  0
LINE
  5
21F
100
AcDbEntity
100
AcDbLine
  8
0
 62
256
370
50
  6
BYLAYER
 10
487.4402986412669634
 20
50.9189150630618457
 30
0.0
 11
499.5898852750683545
 21
27.7751489496469119
 31
0.0
  0
LINE
  5
220
100
AcDbEntity
100
AcDbLine
  8
0
 62
256
370
50
  6
BYLAYER
 10
499.5898852750683545
 20
27.7751489496469119
 30
0.0
 11
515.0898852750683545
 21
27.7751489496469333
 31
0.0
  0
DIMENSION
  5
221
100
AcDbEntity
  8
0
 62
256
370
-1
  6
DASHED
100
AcDbDimension
 10
504.6814540500057547
 20
52.8304635694024398
 30
0.0
 11
513.1212870941430992
 21
42.2110886121080569
 31
0.0
 70
1
 71
8
 72
2
 41
1.0
 42
0.0
  1
a
  3
Standard
100
AcDbAlignedDimension
 13
501.4402986412669634
 23
50.9189150630618457
 33
0.0
 14
515.0898852750683545
 24
27.7751489496470896
 34
0.0
1001
ACAD
1000
DSTYLE
1002
{
1070
144
1040
1
1002
}
  0
DIMENSION
  5
222
100
AcDbEntity
  8
0
 62
256
370
-1
  6
DASHED
100
AcDbDimension
 10
501.4402986412669634
 20
57.0321956336462677
 30
0.0
 11
494.4402986412670771
 21
58.9071956336461824
 31
0.0
 70
1
 71
8
 72
2
 41
1.0
 42
0.0
  1
d
  3
Standard
100
AcDbAlignedDimension
 13
501.4402986412669634
 23
50.9189150630618457
 33
0.0
 14
487.4402986412671908
 24
50.918915063061668
 34
0.0
1001
ACAD
1000
DSTYLE
1002
{
1070
144
1040
1
1002
}
  0
DIMENSION
  5
223
100
AcDbEntity
  8
0
 62
256
370
-1
  6
DASHED
100
AcDbDimension
 10
515.0898852750683545
 20
23.0321956336465945
 30
0.0
 11
507.3398852750682977
 21
24.9071956336464524
 31
0.0
 70
1
 71
8
 72
2
 41
1.0
 42
0.0
  1
b
  3
Standard
100
AcDbAlignedDimension
 13
515.0898852750683545
 23
27.7751489496470896
 33
0.0
 14
499.5898852750682408
 24
27.7751489496468054
 34
0.0
1001
ACAD
1000
DSTYLE
1002
{
1070
144
1040
1
1002
}
  0
DIMENSION
  5
224
100
AcDbEntity
  8
0
 62
256
370
-1
  6
DASHED
100
AcDbDimension
 10
496.5695977373718506
 20
26.1896142134932894
 30
0.0
 11
489.1272749144563932
 21
37.0321956336465163
 31
0.0
 70
129
 71
8
 72
2
 41
1.0
 42
0.0
  1
c
  3
Standard
100
AcDbAlignedDimension
 13
499.5898852750682408
 23
27.7751489496468054
 33
0.0
 14
487.4402986412671908
 24
50.918915063061668
 34
0.0
1001
ACAD
1000
DSTYLE
1002
{
1070
144
1040
1
1002
}
  0
DIMENSION
  5
225
100
AcDbEntity
  8
0
 62
256
370
-1
  6
BYLAYER
100
AcDbDimension
 10
515.0898852750683545
 20
27.7751489496470896
 30
0.0
 11
453.3711518373501121
 21
5.1417020954100821
 31
0.0
 70
130
 71
8
 72
2
 41
1.0
 42
0.0
  1
E (desired angle + E offset)
  3
Standard
100
AcDb2LineAngularDimension
 13
487.4402986412671908
 23
50.918915063061668
 33
0.0
 14
501.4402986412669634
 24
50.9189150630618457
 34
0.0
 15
501.4402986412669634
 25
50.9189150630618457
 35
0.0
 16
460.8349193717933758
 26
2.5268447619147452
 36
0.0
  0
LINE
  5
226
100
AcDbEntity
100
AcDbLine
  8
0
 62
252
420
10526884
370
-1
  6
BYLAYER
 10
545.4402986412669634
 20
29.9189150630618741
 30
0.0
 11
545.4402986412669634
 21
26.5939150630618002
 31
0.0
  0
LINE
  5
227
100
AcDbEntity
100
AcDbLine
  8
0
 62
252
420
10526884
370
-1
  6
BYLAYER
 10
519.4402986412669634
 20
15.5939150630618002
 30
0.0
 11
511.4402986412669634
 21
15.5939150630618002
 31
0.0
  0
LINE
  5
228
100
AcDbEntity
100
AcDbLine
  8
0
 62
252
420
10526884
370
-1
  6
BYLAYER
 10
506.4402986412669634
 20
55.9189150630618386
 30
0.0
 11
519.4402986412669634
 21
55.9189150630618101
 31
0.0
  0
LINE
  5
229
100
AcDbEntity
100
AcDbLine
  8
0
 62
252
420
10526884
370
-1
  6
BYLAYER
 10
524.4402986412669634
 20
50.9189150630618883
 30
0.0
 11
524.4402986412669634
 21
45.5939150630617931
 31
0.0
  0
LINE
  5
22A
100
AcDbEntity
100
AcDbLine
  8
0
 62
252
420
10526884
370
-1
  6
BYLAYER
 10
503.4402986412669634
 20
45.9189150630618244
 30
0.0
 11
501.4402986412669634
 21
45.9189150630618386
 31
0.0
  0
LINE
  5
22B
100
AcDbEntity
100
AcDbLine
  8
0
 62
252
420
10526884
370
-1
  6
BYLAYER
 10
496.4402986412669634
 20
50.9189150630618386
 30
0.0
 11
496.4402986412669634
 21
50.9189150630618386
 31
0.0
  0
LINE
  5
22C
100
AcDbEntity
100
AcDbLine
  8
0
 62
252
420
10526884
370
-1
  6
BYLAYER
 10
501.4402986412669634
 20
55.9189150630618599
 30
0.0
 11
506.4402986412669634
 21
55.9189150630618386
 31
0.0
  0
LINE
  5
22D
100
AcDbEntity
100
AcDbLine
  8
0
 62
252
420
10526884
370
-1
  6
BYLAYER
 10
506.4402986412669634
 20
42.9189150630618386
 30
0.0
 11
506.4402986412669634
 21
20.593915063061786
 31
0.0
  0
ARC
  5
22E
100
AcDbEntity
  8
0
 62
252
420
10526884
370
-1
  6
BYLAYER
100
AcDbCircle
 10
503.4402986412669634
 20
42.9189150630618386
 30
0.0
 40
3.0
100
AcDbArc
 50
360.0
 51
89.9999999999999858
  0
ARC
  5
22F
100
AcDbEntity
  8
0
 62
252
420
10526884
370
-1
  6
BYLAYER
100
AcDbCircle
 10
501.4402986412669634
 20
50.9189150630618457
 30
0.0
 40
5.0
100
AcDbArc
 50
89.9999999999999858
 51
180.0
  0
ARC
  5
230
100
AcDbEntity
  8
0
 62
252
420
10526884
370
-1
  6
BYLAYER
100
AcDbCircle
 10
501.4402986412669634
 20
50.9189150630618457
 30
0.0
 40
5.0
100
AcDbArc
 50
180.0
 51
270.0
  0
ARC
  5
231
100
AcDbEntity
  8
0
 62
252
420
10526884
370
-1
  6
BYLAYER
100
AcDbCircle
 10
519.4402986412669634
 20
50.9189150630618101
 30
0.0
 40
5.0
100
AcDbArc
 50
360.0
 51
89.9999999999999858
  0
ARC
  5
232
100
AcDbEntity
  8
0
 62
252
420
10526884
370
-1
  6
BYLAYER
100
AcDbCircle
 10
519.4402986412669634
 20
20.593915063061786
 30
0.0
 40
5.0
100
AcDbArc
 50
270.0
 51
360.0
  0
ARC
  5
233
100
AcDbEntity
  8
0
 62
252
420
10526884
370
-1
  6
BYLAYER
100
AcDbCircle
 10
511.4402986412669634
 20
20.5939150630618002
 30
0.0
 40
5.0
100
AcDbArc
 50
180.0
 51
270.0
  0
LINE
  5
234
100
AcDbEntity
100
AcDbLine
  8
0
 62
252
420
10526884
370
-1
  6
BYLAYER
 10
535.4402986412669634
 20
36.2689150630617974
 30
0.0
 11
535.4402986412669634
 21
29.9189150630618315
 31
0.0
  0
LINE
  5
235
100
AcDbEntity
100
AcDbLine
  8
0
 62
252
420
10526884
370
-1
  6
BYLAYER
 10
535.4402986412669634
 20
29.9189150630618315
 30
0.0
 11
545.4402986412669634
 21
29.9189150630618741
 31
0.0
  0
LINE
  5
236
100
AcDbEntity
100
AcDbLine
  8
0
 62
252
420
10526884
370
-1
  6
BYLAYER
 10
535.4402986412669634
 20
36.2689150630617974
 30
0.0
 11
545.4402986412669634
 21
36.2689150630617902
 31
0.0
  0
CIRCLE
  5
237
100
AcDbEntity
100
AcDbCircle
  8
0
 62
252
420
10526884
370
-1
  6
BYLAYER
 10
501.4402986412669634
 20
50.9189150630618457
 30
0.0
 40
1.5
  0
ARC
  5
238
100
AcDbEntity
  8
0
 62
252
420
10526884
370
-1
  6
BYLAYER
100
AcDbCircle
 10
529.4402986412669634
 20
20.593915063061786
 30
0.0
 40
5.0
100
AcDbArc
 50
89.9999999999999858
 51
180.0
  0
ARC
  5
239
100
AcDbEntity
  8
0
 62
252
420
10526884
370
-1
  6
BYLAYER
100
AcDbCircle
 10
529.4402986412669634
 20
45.5939150630617931
 30
0.0
 40
5.0
100
AcDbArc
 50
180.0
 51
270.0
  0
ARC
  5
23A
100
AcDbEntity
  8
0
 62
252
420
10526884
370
-1
  6
BYLAYER
100
AcDbCircle
 10
544.4402986412669634
 20
39.5939150630618073
 30
0.0
 40
1.0
100
AcDbArc
 50
360.0
 51
90.0000000000000853
  0
ARC
  5
23B
100
AcDbEntity
  8
0
 62
252
420
10526884
370
-1
  6
BYLAYER
100
AcDbCircle
 10
544.4402986412669634
 20
26.5939150630618144
 30
0.0
 40
1.0
100
AcDbArc
 50
270.0
 51
360.0
  0
LINE
  5
23C
100
AcDbEntity
100
AcDbLine
  8
0
 62
252
420
10526884
370
-1
  6
BYLAYER
 10
544.4402986412669634
 20
25.5939150630618286
 30
0.0
 11
529.4402986412669634
 21
25.5939150630618002
 31
0.0
  0
LINE
  5
23D
100
AcDbEntity
100
AcDbLine
  8
0
 62
252
420
10526884
370
-1
  6
BYLAYER
 10
521.4402986412669634
 20
21.4189150630618457
 30
0.0
 11
509.4402986412669634
 21
21.4189150630618599
 31
0.0
  0
CIRCLE
  5
23E
100
AcDbEntity
100
AcDbCircle
  8
0
 62
252
420
10526884
370
-1
  6
BYLAYER
 10
515.4402986412669634
 20
46.9189150630618457
 30
0.0
 40
0.5
  0
CIRCLE
  5
23F
100
AcDbEntity
100
AcDbCircle
  8
0
 62
252
420
10526884
370
-1
  6
BYLAYER
 10
515.4402986412669634
 20
18.9189150630618315
 30
0.0
 40
0.5
  0
LINE
  5
240
100
AcDbEntity
100
AcDbLine
  8
0
 62
252
420
10526884
370
-1
  6
BYLAYER
 10
509.4402986412669634
 20
21.4189150630618599
 30
0.0
 11
509.4402986412669634
 21
44.4189150630618457
 31
0.0
  0
LINE
  5
241
100
AcDbEntity
100
AcDbLine
  8
0
 62
252
420
10526884
370
-1
  6
BYLAYER
 10
509.4402986412669634
 20
44.4189150630618457
 30
0.0
 11
521.4402986412669634
 21
44.4189150630618812
 31
0.0
  0
LINE
  5
242
100
AcDbEntity
100
AcDbLine
  8
0
 62
252
420
10526884
370
-1
  6
BYLAYER
 10
521.4402986412669634
 20
44.4189150630618812
 30
0.0
 11
521.4402986412669634
 21
21.4189150630618457
 31
0.0
  0
LINE
  5
243
100
AcDbEntity
100
AcDbLine
  8
0
 62
252
420
10526884
370
-1
  6
BYLAYER
 10
506.4402986412669634
 20
45.9189150630618528
 30
0.0
 11
506.4402986412669634
 21
55.9189150630618386
 31
0.0
  0
LINE
  5
244
100
AcDbEntity
100
AcDbLine
  8
0
 62
252
420
10526884
370
-1
  6
BYLAYER
 10
476.4402986412669634
 20
55.9189150630618457
 30
0.0
 11
476.4402986412669634
 21
45.9189150630618386
 31
0.0
  0
CIRCLE
  5
245
100
AcDbEntity
100
AcDbCircle
  8
0
 62
252
420
10526884
370
-1
  6
BYLAYER
 10
501.4402986412669634
 20
50.9189150630618457
 30
0.0
 40
1.0
  0
CIRCLE
  5
246
100
AcDbEntity
100
AcDbCircle
  8
0
 62
252
420
10526884
370
-1
  6
BYLAYER
 10
481.4402986412669634
 20
50.9189150630618386
 30
0.0
 40
1.0
  0
LINE
  5
247
100
AcDbEntity
100
AcDbLine
  8
0
 62
252
420
10526884
370
-1
  6
BYLAYER
 10
506.4402986412669634
 20
55.9189150630618386
 30
0.0
 11
476.4402986412669634
 21
55.9189150630618457
 31
0.0
  0
LINE
  5
248
100
AcDbEntity
100
AcDbLine
  8
0
 62
252
420
10526884
370
-1
  6
BYLAYER
 10
529.4402986412669634
 20
40.593915063061786
 30
0.0
 11
544.4402986412669634
 21
40.5939150630617505
 31
0.0
  0
DIMENSION
  5
249
100
AcDbEntity
  8
0
 62
256
370
-1
  6
BYLAYER
100
AcDbDimension
 10
499.5898852750683545
 20
27.7751489496469119
 30
0.0
 11
466.2508043404092177
 21
70.9646432505046789
 31
0.0
 70
2
 71
8
 72
2
 41
1.0
 42
0.0
  1
N (servo neutral angle)
  3
Standard
100
AcDb2LineAngularDimension
 13
509.4402986412669634
 23
44.4189150630618457
 33
0.0
 14
509.4402986412669634
 24
21.4189150630618599
 34
0.0
 15
515.0898852750683545
 25
27.7751489496469333
 35
0.0
 16
455.6099224995820123
 26
52.4211259672294858
 36
0.0
  0
MTEXT
  5
24A
100
AcDbEntity
100
AcDbMText
  8
0
 62
256
370
-1
  6
BYLAYER
 10
470.0
 20
100.0
 30
0.0
 40
8.0
 41
0.0
 71
1
 72
1
  1
\H5.14286;Figure 1.4
  7
textstyle5
 50
0.0
 73
2
 44
1.0
  0
LINE
  5
24B
100
AcDbEntity
100
AcDbLine
  8
0
 62
252
420
10526884
370
-1
  6
BYLAYER
 10
88.0131435789637777
 20
-155.4848001393665982
 30
0.0
 11
58.3085201433003846
 21
-166.2963988900343111
 31
0.0
  0
LINE
  5
24C
100
AcDbEntity
100
AcDbLine
  8
0
 62
252
420
10526884
370
-1
  6
BYLAYER
 10
58.3085201433003846
 20
-166.2963988900343111
 30
0.0
 11
56.1366922331824441
 21
-160.3293507480439075
 31
0.0
  0
LINE
  5
24D
100
AcDbEntity
100
AcDbLine
  8
0
 62
252
420
10526884
370
-1
  6
BYLAYER
 10
74.867348442268181
 20
-152.7845212425718273
 30
0.0
 11
104.9860944159119782
 21
-141.8221942147408754
 31
0.0
  0
LINE
  5
24E
100
AcDbEntity
100
AcDbLine
  8
0
 62
252
420
10526884
370
-1
  6
BYLAYER
 10
104.9860944159119782
 20
-141.8221942147408754
 30
0.0
 11
102.8142665057938672
 21
-135.8551460727501308
 31
0.0
  0
LINE
  5
24F
100
AcDbEntity
100
AcDbLine
  8
0
 62
252
420
10526884
370
-1
  6
BYLAYER
 10
29.9558180082871246
 20
-169.1309814958817697
 30
0.0
 11
39.3527442161461778
 21
-165.7107800626250764
 31
0.0
  0
LINE
  5
250
100
AcDbEntity
100
AcDbLine
  8
0
 62
252
420
10526884
370
-1
  6
BYLAYER
 10
102.8142665057938672
 20
-135.8551460727501308
 30
0.0
 11
72.6955205321502973
 21
-146.8174731005815374
 31
0.0
  0
LINE
  5
251
100
AcDbEntity
100
AcDbLine
  8
0
 62
252
420
10526884
370
-1
  6
BYLAYER
 10
37.1809163060281804
 20
-159.7437319206346729
 30
0.0
 11
27.7839900981691272
 21
-163.1639333538912524
 31
0.0
  0
LINE
  5
252
100
AcDbEntity
100
AcDbLine
  8
0
 62
252
420
10526884
370
-1
  6
BYLAYER
 10
72.6955205321502973
 20
-146.8174731005815374
 30
0.0
 11
74.867348442268181
 21
-152.7845212425718273
 31
0.0
  0
LINE
  5
253
100
AcDbEntity
100
AcDbLine
  8
0
 62
252
420
10526884
370
-1
  6
DOT
 10
27.7839900981691272
 20
-163.1639333538912524
 30
0.0
 11
29.9558180082871246
 21
-169.1309814958817697
 31
0.0
  0
LINE
  5
254
100
AcDbEntity
100
AcDbLine
  8
0
 62
252
420
10526884
370
-1
  6
BYLAYER
 10
37.1809163060281804
 20
-159.7437319206346729
 30
0.0
 11
36.0436993294703285
 21
-156.6192539565213337
 31
0.0
  0
LINE
  5
255
100
AcDbEntity
100
AcDbLine
  8
0
 62
252
420
10526884
370
-1
  6
BYLAYER
 10
39.3527442161461778
 20
-165.7107800626250764
 30
0.0
 11
40.4899611927040297
 21
-168.8352580267383019
 31
0.0
  0
LINE
  5
256
100
AcDbEntity
100
AcDbLine
  8
0
 62
252
420
10526884
370
-1
  6
DOT
 10
83.3809692970801422
 20
-157.1707736979055881
 30
0.0
 11
76.3979037475551337
 21
-137.984958782014246
 31
0.0
  0
ARC
  5
257
100
AcDbEntity
  8
0
 62
252
420
10526884
370
-1
  6
BYLAYER
100
AcDbCircle
 10
13.9194643831253444
 20
-168.9285280228068586
 30
0.0
 40
5.0
100
AcDbArc
 50
110.0000000000000142
 51
200.0
  0
LINE
  5
258
100
AcDbEntity
100
AcDbLine
  8
0
 62
252
420
10526884
370
-1
  6
DOT
 10
73.5788258851973893
 20
-139.0110192119911972
 30
0.0
 11
80.5618914347224546
 21
-158.1968341278827666
 31
0.0
  0
CIRCLE
  5
259
100
AcDbEntity
100
AcDbCircle
  8
0
 62
252
420
10526884
370
-1
  6
BYLAYER
 10
14.7745147414394893
 20
-171.2777595747716077
 30
0.0
 40
1.5
  0
LINE
  5
25A
100
AcDbEntity
100
AcDbLine
  8
0
 62
256
370
-1
  6
DASHED
 10
96.5855818776266943
 20
-171.2777595747716077
 30
0.0
 11
96.5855818776266943
 21
-140.8358551958481257
 31
0.0
  0
LINE
  5
25B
100
AcDbEntity
100
AcDbLine
  8
0
 62
256
370
-1
  6
DASHED
 10
14.7745147414394893
 20
-171.2777595747716077
 30
0.0
 11
96.5855818776266375
 21
-171.2777595747716077
 31
0.0
  0
DIMENSION
  5
25C
100
AcDbEntity
  8
0
 62
256
370
-1
  6
BYLAYER
100
AcDbDimension
 10
14.7745147414393081
 20
-176.210880390594582
 30
0.0
 11
55.6800483095329284
 21
-174.3358803905945251
 31
0.0
 70
1
 71
8
 72
2
 41
1.0
 42
0.0
  1
x1
  3
Standard
100
AcDbAlignedDimension
 13
14.7745147414393081
 23
-171.2777595747718351
 33
0.0
 14
96.5855818776265522
 24
-171.277759574771693
 34
0.0
1001
ACAD
1000
DSTYLE
1002
{
1070
144
1040
1
1002
}
  0
DIMENSION
  5
25D
100
AcDbEntity
  8
0
 62
256
370
-1
  6
BYLAYER
100
AcDbDimension
 10
101.5834906220991201
 20
-171.277759574771693
 30
0.0
 11
99.7084906220991343
 21
-156.0568073853098667
 31
0.0
 70
1
 71
8
 72
2
 41
1.0
 42
0.0
  1
y1
  3
Standard
100
AcDbAlignedDimension
 13
96.5855818776265522
 23
-171.277759574771693
 33
0.0
 14
96.5855818776265806
 24
-140.835855195848012
 34
0.0
1001
ACAD
1000
DSTYLE
1002
{
1070
144
1040
1
1002
}
  0
LINE
  5
25E
100
AcDbEntity
100
AcDbLine
  8
0
 62
256
370
-1
  6
DASHED
 10
14.7745147414394893
 20
-171.2777595747716077
 30
0.0
 11
96.5855818776266943
 21
-140.8358551958478984
 31
0.0
  0
DIMENSION
  5
25F
100
AcDbEntity
  8
0
 62
256
370
-1
  6
BYLAYER
100
AcDbDimension
 10
96.5855818776265522
 20
-171.277759574771693
 30
0.0
 11
124.8876624243511912
 21
-151.4551207997380686
 31
0.0
 70
2
 71
8
 72
2
 41
1.0
 42
0.0
  1
coxa angle
  3
Standard
100
AcDb2LineAngularDimension
 13
96.5855818776265806
 23
-140.835855195848012
 33
0.0
 14
14.7745147414393081
 24
-171.2777595747718351
 34
0.0
 15
14.7745147414393081
 25
-171.2777595747718351
 35
0.0
 16
122.5640700594916979
 26
-149.2957708926231817
 36
0.0
  0
ARC
  5
260
100
AcDbEntity
  8
0
 62
252
420
10526884
370
-1
  6
BYLAYER
100
AcDbCircle
 10
15.6295650997536342
 20
-173.6269911267363568
 30
0.0
 40
5.0
100
AcDbArc
 50
200.0
 51
259.9999999999999432
  0
DIMENSION
  5
261
100
AcDbEntity
  8
0
 62
256
370
-1
  6
BYLAYER
100
AcDbDimension
 10
-0.2048372607601987
 20
-130.1223281906670479
 30
0.0
 11
40.1662898333870899
 21
-113.4331062812270261
 31
0.0
 70
1
 71
8
 72
2
 41
1.0
 42
0.0
  1
leg length
  3
Standard
100
AcDbAlignedDimension
 13
14.7745147414393081
 23
-171.2777595747718351
 33
0.0
 14
96.7993444672051595
 24
-141.4231630838389435
 34
0.0
1001
ACAD
1000
DSTYLE
1002
{
1070
144
1040
1
1002
}
  0
ARC
  5
262
100
AcDbEntity
  8
0
 62
252
420
10526884
370
-1
  6
BYLAYER
100
AcDbCircle
 10
32.2054632240130587
 20
-178.2356353280360963
 30
0.0
 40
5.0
100
AcDbArc
 50
110.0000000000000142
 51
200.0
  0
ARC
  5
263
100
AcDbEntity
  8
0
 62
252
420
10526884
370
-1
  6
BYLAYER
100
AcDbCircle
 10
22.8085370161540055
 20
-181.6558367612926759
 30
0.0
 40
5.0
100
AcDbArc
 50
200.0
 51
19.9999999999999751
  0
LINE
  5
264
100
AcDbEntity
100
AcDbLine
  8
0
 62
252
420
10526884
370
-1
  6
BYLAYER
 10
18.1100739122244505
 20
-183.3659374779210793
 30
0.0
 11
17.0594575407759095
 21
-180.4793927208569357
 31
0.0
  0
ARC
  5
265
100
AcDbEntity
  8
0
 62
252
420
10526884
370
-1
  6
BYLAYER
100
AcDbCircle
 10
14.2403796784182219
 20
-181.5054531508340006
 30
0.0
 40
3.0
100
AcDbArc
 50
20.0
 51
79.9999999999999858
  0
ARC
  5
266
100
AcDbEntity
  8
0
 62
252
420
10526884
370
-1
  6
BYLAYER
100
AcDbCircle
 10
35.1040067086844516
 20
-156.9612740998470599
 30
0.0
 40
1.0
100
AcDbArc
 50
20.0
 51
110.0000000000000142
  0
ARC
  5
267
100
AcDbEntity
  8
0
 62
252
420
10526884
370
-1
  6
BYLAYER
100
AcDbCircle
 10
39.5502685719181528
 20
-169.1772781700639143
 30
0.0
 40
1.0
100
AcDbArc
 50
289.9999999999999432
 51
20.0
  0
LINE
  5
268
100
AcDbEntity
100
AcDbLine
  8
0
 62
252
420
10526884
370
-1
  6
BYLAYER
 10
30.4953625073847121
 20
-173.5371722241064845
 30
0.0
 11
39.8922887152438221
 21
-170.1169707908497912
 31
0.0
  0
LINE
  5
269
100
AcDbEntity
100
AcDbLine
  8
0
 62
252
420
10526884
370
-1
  6
BYLAYER
 10
34.7619865653587823
 20
-156.0215814790612967
 30
0.0
 11
12.2093636664969978
 21
-164.2300649188771331
 31
0.0
  0
LINE
  5
26A
100
AcDbEntity
100
AcDbLine
  8
0
 62
252
420
10526884
370
-1
  6
BYLAYER
 10
9.2210012791957894
 20
-170.6386287394351484
 30
0.0
 11
10.931101995824136
 21
-175.3370918433646466
 31
0.0
  0
LINE
  5
26B
100
AcDbEntity
100
AcDbLine
  8
0
 62
252
420
10526884
370
-1
  6
BYLAYER
 10
20.5588918004280146
 20
-172.5511829291384629
 30
0.0
 11
66.603830218937631
 21
-155.7921959061807229
 31
0.0
  0
LINE
  5
26C
100
AcDbEntity
100
AcDbLine
  8
0
 62
252
420
10526884
370
-1
  6
BYLAYER
 10
66.603830218937631
 20
-155.7921959061807229
 30
0.0
 11
64.4320023088196336
 21
-149.8251477641902056
 31
0.0
  0
LINE
  5
26D
100
AcDbEntity
100
AcDbLine
  8
0
 62
252
420
10526884
370
-1
  6
BYLAYER
 10
64.4320023088196336
 20
-149.8251477641902056
 30
0.0
 11
18.387063890310074
 21
-166.5841347871480593
 31
0.0
  0
LINE
  5
26E
100
AcDbEntity
100
AcDbLine
  8
0
 62
252
420
10526884
370
-1
  6
BYLAYER
 10
18.387063890310074
 20
-166.5841347871480593
 30
0.0
 11
20.5588918004280146
 21
-172.5511829291384629
 31
0.0
  0
LINE
  5
26F
100
AcDbEntity
100
AcDbLine
  8
0
 62
252
420
10526884
370
-1
  6
DOT
 10
65.7116756126530532
 20
-163.6018706595448293
 30
0.0
 11
58.7286100631281585
 21
-144.4160557436534873
 31
0.0
  0
LINE
  5
270
100
AcDbEntity
100
AcDbLine
  8
0
 62
252
420
10526884
370
-1
  6
DOT
 10
55.9095322007703572
 20
-145.4421161736304384
 30
0.0
 11
62.8925977502953657
 21
-164.6279310895218941
 31
0.0
  0
LINE
  5
271
100
AcDbEntity
100
AcDbLine
  8
0
 62
252
420
10526884
370
-1
  6
BYLAYER
 10
53.4972825038933166
 20
-153.0776321161333726
 30
0.0
 11
83.2019059395567098
 21
-142.266033365465546
 31
0.0
  0
LINE
  5
272
100
AcDbEntity
100
AcDbLine
  8
0
 62
252
420
10526884
370
-1
  6
BYLAYER
 10
83.2019059395567098
 20
-142.266033365465546
 30
0.0
 11
81.0300780294387124
 21
-136.2989852234750288
 31
0.0
  0
LINE
  5
273
100
AcDbEntity
100
AcDbLine
  8
0
 62
252
420
10526884
370
-1
  6
BYLAYER
 10
81.0300780294387124
 20
-136.2989852234750288
 30
0.0
 11
51.3254545937753761
 21
-147.1105839741428554
 31
0.0
  0
LINE
  5
274
100
AcDbEntity
100
AcDbLine
  8
0
 62
252
420
10526884
370
-1
  6
BYLAYER
 10
51.3254545937753761
 20
-147.1105839741428554
 30
0.0
 11
53.4972825038933166
 21
-153.0776321161333726
 31
0.0
  0
LINE
  5
275
100
AcDbEntity
100
AcDbLine
  8
0
 62
252
420
10526884
370
-1
  6
BYLAYER
 10
56.1366922331824441
 20
-160.3293507480439075
 30
0.0
 11
85.8413156688457235
 21
-149.5177519973760809
 31
0.0
  0
LINE
  5
276
100
AcDbEntity
100
AcDbLine
  8
0
 62
252
420
10526884
370
-1
  6
BYLAYER
 10
85.8413156688457235
 20
-149.5177519973760809
 30
0.0
 11
88.0131435789637777
 21
-155.4848001393665982
 31
0.0
  0
MTEXT
  5
277
100
AcDbEntity
100
AcDbMText
  8
0
 62
256
370
-1
  6
BYLAYER
 10
0.0
 20
-100.0
 30
0.0
 40
8.0
 41
0.0
 71
1
 72
1
  1
\H5.14286;Figure 2.1
  7
textstyle6
 50
0.0
 73
2
 44
1.0
  0
CIRCLE
  5
278
100
AcDbEntity
100
AcDbCircle
  8
0
 62
252
420
10526884
370
-1
  6
BYLAYER
 10
238.8846897259299453
 20
-128.8937588095626552
 30
0.0
 40
1.0
  0
LINE
  5
279
100
AcDbEntity
100
AcDbLine
  8
0
 62
252
420
10526884
370
-1
  6
BYLAYER
 10
217.1024749229105737
 20
-115.6447921224913813
 30
0.0
 11
245.293253546487847
 21
-125.905396422261461
 31
0.0
  0
LINE
  5
27A
100
AcDbEntity
100
AcDbLine
  8
0
 62
252
420
10526884
370
-1
  6
BYLAYER
 10
241.8730521132311537
 20
-135.3023226301205568
 30
0.0
 11
213.6822734896538805
 21
-125.0417183303504913
 31
0.0
  0
LINE
  5
27B
100
AcDbEntity
100
AcDbLine
  8
0
 62
252
420
10526884
370
-1
  6
BYLAYER
 10
248.5510726416784451
 20
-170.0709495991991389
 30
0.0
 11
251.9712740749351383
 21
-179.4678758070582489
 31
0.0
  0
LINE
  5
27C
100
AcDbEntity
100
AcDbLine
  8
0
 62
252
420
10526884
370
-1
  6
BYLAYER
 10
262.6464619534671101
 20
-164.9406474493141559
 30
0.0
 11
262.6464619534671101
 21
-164.9406474493141559
 31
0.0
  0
DIMENSION
  5
27D
100
AcDbEntity
  8
0
 62
256
370
-1
  6
BYLAYER
100
AcDbDimension
 10
242.8599050587802139
 20
-107.6201895798278088
 30
0.0
 11
263.5880399300993417
 21
-136.8177748785768415
 31
0.0
 70
1
 71
8
 72
2
 41
1.0
 42
0.0
  1
leg extension
  3
Standard
100
AcDbAlignedDimension
 13
220.0908373102117821
 23
-122.0533559430492829
 33
0.0
 14
258.3798378954927557
 24
-182.4562381943595142
 34
0.0
1001
ACAD
1000
DSTYLE
1002
{
1070
144
1040
1
1002
}
  0
LINE
  5
27E
100
AcDbEntity
100
AcDbLine
  8
0
 62
252
420
10526884
370
-1
  6
BYLAYER
 10
243.5831528298595003
 20
-127.1836580929343228
 30
0.0
 11
243.5831528298595003
 21
-127.1836580929343228
 31
0.0
  0
LINE
  5
27F
100
AcDbEntity
100
AcDbLine
  8
0
 62
252
420
10526884
370
-1
  6
BYLAYER
 10
237.1745890093015987
 20
-124.1952957056331144
 30
0.0
 11
237.1745890093015987
 21
-124.1952957056331144
 31
0.0
  0
LINE
  5
280
100
AcDbEntity
100
AcDbLine
  8
0
 62
252
420
10526884
370
-1
  6
BYLAYER
 10
234.1862266220003903
 20
-130.6038595261910018
 30
0.0
 11
235.8963273386287369
 21
-135.3023226301205568
 31
0.0
  0
LINE
  5
281
100
AcDbEntity
100
AcDbLine
  8
0
 62
252
420
10526884
370
-1
  6
BYLAYER
 10
249.991716650417402
 20
-130.172020480235517
 30
0.0
 11
249.991716650417402
 21
-130.172020480235517
 31
0.0
  0
ARC
  5
282
100
AcDbEntity
  8
0
 62
252
420
10526884
370
-1
  6
BYLAYER
100
AcDbCircle
 10
238.8846897259299453
 20
-128.8937588095626552
 30
0.0
 40
5.0
100
AcDbArc
 50
110.0000000000000142
 51
200.0
  0
ARC
  5
283
100
AcDbEntity
  8
0
 62
252
420
10526884
370
-1
  6
BYLAYER
100
AcDbCircle
 10
238.8846897259299453
 20
-128.8937588095626552
 30
0.0
 40
5.0
100
AcDbArc
 50
20.0
 51
110.0000000000000142
  0
ARC
  5
284
100
AcDbEntity
  8
0
 62
252
420
10526884
370
-1
  6
BYLAYER
100
AcDbCircle
 10
251.7018173670456918
 20
-134.870483584165072
 30
0.0
 40
5.0
100
AcDbArc
 50
20.0
 51
110.0000000000000142
  0
ARC
  5
285
100
AcDbEntity
  8
0
 62
252
420
10526884
370
-1
  6
BYLAYER
100
AcDbCircle
 10
260.9363612368387635
 20
-160.2421843453846009
 30
0.0
 40
5.0
100
AcDbArc
 50
289.9999999999999432
 51
20.0
  0
ARC
  5
286
100
AcDbEntity
  8
0
 62
252
420
10526884
370
-1
  6
BYLAYER
100
AcDbCircle
 10
256.6697371788646933
 20
-177.7577750904299023
 30
0.0
 40
5.0
100
AcDbArc
 50
200.0
 51
289.9999999999999432
  0
ARC
  5
287
100
AcDbEntity
  8
0
 62
252
420
10526884
370
-1
  6
BYLAYER
100
AcDbCircle
 10
256.6697371788646933
 20
-177.7577750904299023
 30
0.0
 40
5.0
100
AcDbArc
 50
289.9999999999999432
 51
20.0
  0
CIRCLE
  5
288
100
AcDbEntity
100
AcDbCircle
  8
0
 62
252
420
10526884
370
-1
  6
BYLAYER
 10
238.8846897259299453
 20
-128.8937588095626552
 30
0.0
 40
1.5
  0
ARC
  5
289
100
AcDbEntity
  8
0
 62
252
420
10526884
370
-1
  6
BYLAYER
100
AcDbCircle
 10
264.3565626700954567
 20
-169.6391105532436541
 30
0.0
 40
5.0
100
AcDbArc
 50
110.0000000000000142
 51
200.0
  0
ARC
  5
28A
100
AcDbEntity
  8
0
 62
252
420
10526884
370
-1
  6
BYLAYER
100
AcDbCircle
 10
248.2816159337890554
 20
-125.4735573763059762
 30
0.0
 40
5.0
100
AcDbArc
 50
200.0
 51
289.9999999999999432
  0
LINE
  5
28B
100
AcDbEntity
100
AcDbLine
  8
0
 62
252
420
10526884
370
-1
  6
BYLAYER
 10
265.6348243407683185
 20
-158.5320836287562543
 30
0.0
 11
256.4002804709752468
 21
-133.1603828675367254
 31
0.0
  0
LINE
  5
28C
100
AcDbEntity
100
AcDbLine
  8
0
 62
252
420
10526884
370
-1
  6
BYLAYER
 10
235.8963273386287369
 20
-135.3023226301205568
 30
0.0
 11
248.5510726416784451
 21
-170.0709495991991389
 31
0.0
  0
LINE
  5
28D
100
AcDbEntity
100
AcDbLine
  8
0
 62
252
420
10526884
370
-1
  6
BYLAYER
 10
258.3798378954930399
 20
-182.4562381943594573
 30
0.0
 11
258.3798378954930399
 21
-182.4562381943594573
 31
0.0
  0
LINE
  5
28E
100
AcDbEntity
100
AcDbLine
  8
0
 62
252
420
10526884
370
-1
  6
BYLAYER
 10
261.3682002827942483
 20
-176.0476743738015557
 30
0.0
 11
259.6580995661659017
 21
-171.3492112698720007
 31
0.0
  0
LINE
  5
28F
100
AcDbEntity
100
AcDbLine
  8
0
 62
252
420
10526884
370
-1
  6
BYLAYER
 10
192.0908373102117821
 20
-132.3783559430493142
 30
0.0
 11
177.0908373102117821
 21
-132.3783559430493142
 31
0.0
  0
LINE
  5
290
100
AcDbEntity
100
AcDbLine
  8
0
 62
252
420
10526884
370
-1
  6
BYLAYER
 10
176.0908373102117821
 20
-136.7033559430493028
 30
0.0
 11
176.0908373102117821
 21
-133.3783559430493142
 31
0.0
  0
LINE
  5
291
100
AcDbEntity
100
AcDbLine
  8
0
 62
252
420
10526884
370
-1
  6
BYLAYER
 10
176.0908373102117821
 20
-143.0533559430492687
 30
0.0
 11
176.0908373102117821
 21
-146.3783559430493142
 31
0.0
  0
LINE
  5
292
100
AcDbEntity
100
AcDbLine
  8
0
 62
252
420
10526884
370
-1
  6
BYLAYER
 10
202.0908373102117821
 20
-157.3783559430493142
 30
0.0
 11
210.0908373102117821
 21
-157.3783559430493142
 31
0.0
  0
LINE
  5
293
100
AcDbEntity
100
AcDbLine
  8
0
 62
252
420
10526884
370
-1
  6
BYLAYER
 10
215.0908373102117821
 20
-117.0533559430492829
 30
0.0
 11
202.0908373102117821
 21
-117.0533559430492829
 31
0.0
  0
LINE
  5
294
100
AcDbEntity
100
AcDbLine
  8
0
 62
252
420
10526884
370
-1
  6
BYLAYER
 10
197.0908373102117821
 20
-122.0533559430492829
 30
0.0
 11
197.0908373102117821
 21
-127.3783559430493284
 31
0.0
  0
LINE
  5
295
100
AcDbEntity
100
AcDbLine
  8
0
 62
252
420
10526884
370
-1
  6
BYLAYER
 10
218.0908373102117821
 20
-127.0533559430492829
 30
0.0
 11
220.0908373102117821
 21
-127.0533559430492829
 31
0.0
  0
LINE
  5
296
100
AcDbEntity
100
AcDbLine
  8
0
 62
252
420
10526884
370
-1
  6
BYLAYER
 10
166.0908373102117821
 20
-143.0533559430493824
 30
0.0
 11
196.0908373102117821
 21
-143.0533559430493824
 31
0.0
  0
LINE
  5
297
100
AcDbEntity
100
AcDbLine
  8
0
 62
252
420
10526884
370
-1
  6
BYLAYER
 10
225.0908373102117821
 20
-122.0533559430492829
 30
0.0
 11
225.0908373102117821
 21
-122.0533559430492829
 31
0.0
  0
LINE
  5
298
100
AcDbEntity
100
AcDbLine
  8
0
 62
252
420
10526884
370
-1
  6
BYLAYER
 10
196.0908373102117821
 20
-143.0533559430493824
 30
0.0
 11
196.0908373102117821
 21
-136.7033559430493597
 31
0.0
  0
LINE
  5
299
100
AcDbEntity
100
AcDbLine
  8
0
 62
252
420
10526884
370
-1
  6
BYLAYER
 10
220.0908373102117821
 20
-117.0533559430492829
 30
0.0
 11
215.0908373102117821
 21
-117.0533559430492829
 31
0.0
  0
LINE
  5
29A
100
AcDbEntity
100
AcDbLine
  8
0
 62
252
420
10526884
370
-1
  6
BYLAYER
 10
196.0908373102117821
 20
-136.7033559430493597
 30
0.0
 11
166.0908373102117821
 21
-136.7033559430493597
 31
0.0
  0
LINE
  5
29B
100
AcDbEntity
100
AcDbLine
  8
0
 62
252
420
10526884
370
-1
  6
BYLAYER
 10
215.0908373102117821
 20
-130.0533559430492687
 30
0.0
 11
215.0908373102117821
 21
-152.3783559430493142
 31
0.0
  0
LINE
  5
29C
100
AcDbEntity
100
AcDbLine
  8
0
 62
252
420
10526884
370
-1
  6
BYLAYER
 10
166.0908373102117821
 20
-136.7033559430493597
 30
0.0
 11
166.0908373102117821
 21
-143.0533559430493824
 31
0.0
  0
ARC
  5
29D
100
AcDbEntity
  8
0
 62
252
420
10526884
370
-1
  6
BYLAYER
100
AcDbCircle
 10
218.0908373102117821
 20
-130.0533559430492687
 30
0.0
 40
3.0
100
AcDbArc
 50
90.0
 51
180.0
  0
LINE
  5
29E
100
AcDbEntity
100
AcDbLine
  8
0
 62
7
420
0
370
-1
  6
DOT2
 10
172.5908373102117821
 20
-143.0533559430493824
 30
0.0
 11
172.5908373102117821
 21
-136.7033559430493597
 31
0.0
  0
LINE
  5
29F
100
AcDbEntity
100
AcDbLine
  8
0
 62
256
370
50
  6
BYLAYER
 10
161.0908373102117821
 20
-196.7033559430493597
 30
0.0
 11
276.0908373102117821
 21
-196.7033559430493597
 31
0.0
  0
ARC
  5
2A0
100
AcDbEntity
  8
0
 62
252
420
10526884
370
-1
  6
BYLAYER
100
AcDbCircle
 10
220.0908373102117821
 20
-122.0533559430492829
 30
0.0
 40
5.0
100
AcDbArc
 50
0.0
 51
90.0
  0
LINE
  5
2A1
100
AcDbEntity
100
AcDbLine
  8
0
 62
7
420
0
370
-1
  6
DOT2
 10
169.5908373102117821
 20
-136.7033559430493597
 30
0.0
 11
169.5908373102117821
 21
-143.0533559430493824
 31
0.0
  0
DIMENSION
  5
2A2
100
AcDbEntity
  8
0
 62
256
370
-1
  6
BYLAYER
100
AcDbDimension
 10
270.8196123152766859
 20
-182.7577750904301297
 30
0.0
 11
268.9446123152765722
 21
-189.7305655167398868
 31
0.0
 70
1
 71
8
 72
2
 41
1.0
 42
0.0
  1
z
  3
Standard
100
AcDbAlignedDimension
 13
256.6697371788646365
 23
-182.7577750904299023
 33
0.0
 14
256.6697371788644091
 24
-196.7033559430494734
 34
0.0
1001
ACAD
1000
DSTYLE
1002
{
1070
144
1040
1
1002
}
  0
ARC
  5
2A3
100
AcDbEntity
  8
0
 62
252
420
10526884
370
-1
  6
BYLAYER
100
AcDbCircle
 10
220.0908373102117821
 20
-122.0533559430492829
 30
0.0
 40
5.0
100
AcDbArc
 50
270.0
 51
0.0
  0
LINE
  5
2A4
100
AcDbEntity
100
AcDbLine
  8
0
 62
256
370
-1
  6
DASHED
 10
220.0908373102117821
 20
-182.7577750904299023
 30
0.0
 11
256.6697371788646933
 21
-182.7577750904299023
 31
0.0
  0
ARC
  5
2A5
100
AcDbEntity
  8
0
 62
252
420
10526884
370
-1
  6
BYLAYER
100
AcDbCircle
 10
202.0908373102117821
 20
-122.0533559430492829
 30
0.0
 40
5.0
100
AcDbArc
 50
90.0
 51
180.0
  0
LINE
  5
2A6
100
AcDbEntity
100
AcDbLine
  8
0
 62
256
370
-1
  6
DASHED
 10
220.0908373102117821
 20
-182.7577750904299023
 30
0.0
 11
220.0908373102117821
 21
-122.0533559430492829
 31
0.0
  0
ARC
  5
2A7
100
AcDbEntity
  8
0
 62
252
420
10526884
370
-1
  6
BYLAYER
100
AcDbCircle
 10
202.0908373102117821
 20
-152.3783559430493142
 30
0.0
 40
5.0
100
AcDbArc
 50
180.0
 51
270.0
  0
DIMENSION
  5
2A8
100
AcDbEntity
  8
0
 62
256
370
-1
  6
BYLAYER
100
AcDbDimension
 10
156.0908373102114979
 20
-139.8783559430492573
 30
0.0
 11
152.0962641342902089
 21
-167.6293278327700591
 31
0.0
 70
129
 71
8
 72
2
 41
1.0
 42
0.0
  1
coxa height
  3
Standard
100
AcDbAlignedDimension
 13
166.0908373102118389
 23
-139.8783559430492573
 33
0.0
 14
166.0908373102117821
 24
-196.7033559430494165
 34
0.0
1001
ACAD
1000
DSTYLE
1002
{
1070
144
1040
1
1002
}
  0
ARC
  5
2A9
100
AcDbEntity
  8
0
 62
252
420
10526884
370
-1
  6
BYLAYER
100
AcDbCircle
 10
210.0908373102117821
 20
-152.3783559430493142
 30
0.0
 40
5.0
100
AcDbArc
 50
270.0
 51
0.0
  0
DIMENSION
  5
2AA
100
AcDbEntity
  8
0
 62
256
370
-1
  6
BYLAYER
100
AcDbDimension
 10
156.0908373102117821
 20
-122.0533559430486434
 30
0.0
 11
151.6642641342901925
 21
-130.9093278327700887
 31
0.0
 70
129
 71
8
 72
2
 41
1.0
 42
0.0
  1
femur height
  3
Standard
100
AcDbAlignedDimension
 13
220.0908373102117821
 23
-122.0533559430492829
 33
0.0
 14
220.0908373102116116
 24
-139.878355943049371
 34
0.0
1001
ACAD
1000
DSTYLE
1002
{
1070
144
1040
1
1002
}
  0
LINE
  5
2AB
100
AcDbEntity
100
AcDbLine
  8
0
 62
252
420
10526884
370
-1
  6
DOT
 10
186.0908373102117821
 20
-136.7033559430493028
 30
0.0
 11
186.0908373102117821
 21
-143.0533559430492687
 31
0.0
  0
DIMENSION
  5
2AC
100
AcDbEntity
  8
0
 62
256
370
-1
  6
BYLAYER
100
AcDbDimension
 10
171.0908373102116684
 20
-113.622093272769888
 30
0.0
 11
195.59083731021164
 21
-111.7470932727699164
 31
0.0
 70
1
 71
8
 72
2
 41
1.0
 42
0.0
  1
coxa length
  3
Standard
100
AcDbAlignedDimension
 13
171.0908373102116684
 23
-139.8783559430493142
 33
0.0
 14
220.0908373102116116
 24
-139.878355943049371
 34
0.0
1001
ACAD
1000
DSTYLE
1002
{
1070
144
1040
1
1002
}
  0
LINE
  5
2AD
100
AcDbEntity
100
AcDbLine
  8
0
 62
252
420
10526884
370
-1
  6
BYLAYER
 10
186.0908373102117821
 20
-143.0533559430492687
 30
0.0
 11
176.0908373102117821
 21
-143.0533559430492687
 31
0.0
  0
LINE
  5
2AE
100
AcDbEntity
100
AcDbLine
  8
0
 62
252
420
10526884
370
-1
  6
BYLAYER
 10
186.0908373102117821
 20
-136.7033559430493028
 30
0.0
 11
176.0908373102117821
 21
-136.7033559430493028
 31
0.0
  0
CIRCLE
  5
2AF
100
AcDbEntity
100
AcDbCircle
  8
0
 62
252
420
10526884
370
-1
  6
BYLAYER
 10
220.0908373102117821
 20
-122.0533559430492829
 30
0.0
 40
1.5
  0
ARC
  5
2B0
100
AcDbEntity
  8
0
 62
252
420
10526884
370
-1
  6
BYLAYER
100
AcDbCircle
 10
192.0908373102117821
 20
-152.3783559430493142
 30
0.0
 40
5.0
100
AcDbArc
 50
0.0
 51
90.0
  0
LINE
  5
2B1
100
AcDbEntity
100
AcDbLine
  8
0
 62
256
370
-1
  6
DASHED
 10
258.3798378954930399
 20
-182.4562381943594573
 30
0.0
 11
220.0908373102117821
 21
-122.0533559430492829
 31
0.0
  0
DIMENSION
  5
2B2
100
AcDbEntity
  8
0
 62
256
370
-1
  6
BYLAYER
100
AcDbDimension
 10
258.3798378954927557
 20
-193.7730055007706937
 30
0.0
 11
214.7353376028522689
 21
-191.8980055007706369
 31
0.0
 70
1
 71
8
 72
2
 41
1.0
 42
0.0
  1
leg length
  3
Standard
100
AcDbAlignedDimension
 13
258.3798378954927557
 23
-182.4562381943595142
 33
0.0
 14
171.0908373102117537
 24
-182.4562381943594005
 34
0.0
1001
ACAD
1000
DSTYLE
1002
{
1070
144
1040
1
1002
}
  0
ARC
  5
2B3
100
AcDbEntity
  8
0
 62
252
420
10526884
370
-1
  6
BYLAYER
100
AcDbCircle
 10
192.0908373102117821
 20
-127.3783559430493284
 30
0.0
 40
5.0
100
AcDbArc
 50
270.0
 51
0.0
  0
ARC
  5
2B4
100
AcDbEntity
  8
0
 62
252
420
10526884
370
-1
  6
BYLAYER
100
AcDbCircle
 10
177.0908373102117821
 20
-133.3783559430493142
 30
0.0
 40
1.0
100
AcDbArc
 50
89.9999999999999005
 51
180.0
  0
ARC
  5
2B5
100
AcDbEntity
  8
0
 62
252
420
10526884
370
-1
  6
BYLAYER
100
AcDbCircle
 10
177.0908373102117821
 20
-146.3783559430493142
 30
0.0
 40
1.0
100
AcDbArc
 50
180.0
 51
270.0
  0
LINE
  5
2B6
100
AcDbEntity
100
AcDbLine
  8
0
 62
252
420
10526884
370
-1
  6
BYLAYER
 10
177.0908373102117821
 20
-147.3783559430493142
 30
0.0
 11
192.0908373102117821
 21
-147.3783559430493142
 31
0.0
  0
LINE
  5
2B7
100
AcDbEntity
100
AcDbLine
  8
0
 62
252
420
10526884
370
-1
  6
BYLAYER
 10
213.6822734896538805
 20
-125.0417183303504913
 30
0.0
 11
217.1024749229105737
 21
-115.6447921224913813
 31
0.0
  0
LINE
  5
2B8
100
AcDbEntity
100
AcDbLine
  8
0
 62
252
420
10526884
370
-1
  6
BYLAYER
 10
245.293253546487847
 20
-125.905396422261461
 30
0.0
 11
241.8730521132311537
 21
-135.3023226301205568
 31
0.0
  0
CIRCLE
  5
2B9
100
AcDbEntity
100
AcDbCircle
  8
0
 62
252
420
10526884
370
-1
  6
BYLAYER
 10
220.0908373102117821
 20
-122.0533559430492829
 30
0.0
 40
1.0
  0
MTEXT
  5
2BA
100
AcDbEntity
100
AcDbMText
  8
0
 62
256
370
-1
  6
BYLAYER
 10
150.0
 20
-100.0
 30
0.0
 40
8.0
 41
0.0
 71
1
 72
1
  1
\H5.14286;Figure 2.2
  7
textstyle7
 50
0.0
 73
2
 44
1.0
  0
LINE
  5
2BB
100
AcDbEntity
100
AcDbLine
  8
0
 62
256
370
-1
  6
DASHED
 10
171.0908373102116684
 20
-144.2533559430493142
 30
0.0
 11
171.0908373102117537
 21
-181.0812381943594005
 31
0.0
  0
LINE
  5
2BC
100
AcDbEntity
100
AcDbLine
  8
0
 62
252
420
10526884
370
-1
  6
BYLAYER
 10
354.1872174806367184
 20
-134.9050380520938006
 30
0.0
 11
339.1872174806367184
 21
-134.9050380520938006
 31
0.0
  0
LINE
  5
2BD
100
AcDbEntity
100
AcDbLine
  8
0
 62
252
420
10526884
370
-1
  6
BYLAYER
 10
338.1872174806367184
 20
-139.2300380520938461
 30
0.0
 11
338.1872174806367184
 21
-135.9050380520938006
 31
0.0
  0
LINE
  5
2BE
100
AcDbEntity
100
AcDbLine
  8
0
 62
252
420
10526884
370
-1
  6
BYLAYER
 10
338.1872174806367184
 20
-145.5800380520937551
 30
0.0
 11
338.1872174806367184
 21
-148.9050380520938006
 31
0.0
  0
LINE
  5
2BF
100
AcDbEntity
100
AcDbLine
  8
0
 62
252
420
10526884
370
-1
  6
BYLAYER
 10
364.1872174806367184
 20
-159.9050380520938006
 30
0.0
 11
372.1872174806367184
 21
-159.9050380520938006
 31
0.0
  0
LINE
  5
2C0
100
AcDbEntity
100
AcDbLine
  8
0
 62
252
420
10526884
370
-1
  6
BYLAYER
 10
377.1872174806367184
 20
-119.5800380520937694
 30
0.0
 11
364.1872174806367184
 21
-119.5800380520937694
 31
0.0
  0
LINE
  5
2C1
100
AcDbEntity
100
AcDbLine
  8
0
 62
252
420
10526884
370
-1
  6
BYLAYER
 10
359.1872174806367184
 20
-124.5800380520937694
 30
0.0
 11
359.1872174806367184
 21
-129.9050380520938006
 31
0.0
  0
LINE
  5
2C2
100
AcDbEntity
100
AcDbLine
  8
0
 62
252
420
10526884
370
-1
  6
BYLAYER
 10
380.1872174806367184
 20
-129.5800380520937551
 30
0.0
 11
382.1872174806367184
 21
-129.5800380520937551
 31
0.0
  0
LINE
  5
2C3
100
AcDbEntity
100
AcDbLine
  8
0
 62
252
420
10526884
370
-1
  6
BYLAYER
 10
387.1872174806367184
 20
-124.5800380520937694
 30
0.0
 11
387.1872174806367184
 21
-124.5800380520937694
 31
0.0
  0
LINE
  5
2C4
100
AcDbEntity
100
AcDbLine
  8
0
 62
252
420
10526884
370
-1
  6
BYLAYER
 10
382.1872174806367184
 20
-119.5800380520937694
 30
0.0
 11
377.1872174806367184
 21
-119.5800380520937694
 31
0.0
  0
LINE
  5
2C5
100
AcDbEntity
100
AcDbLine
  8
0
 62
252
420
10526884
370
-1
  6
BYLAYER
 10
377.1872174806367184
 20
-132.5800380520937551
 30
0.0
 11
377.1872174806367184
 21
-154.9050380520938006
 31
0.0
  0
ARC
  5
2C6
100
AcDbEntity
  8
0
 62
252
420
10526884
370
-1
  6
BYLAYER
100
AcDbCircle
 10
380.1872174806367184
 20
-132.5800380520937551
 30
0.0
 40
3.0
100
AcDbArc
 50
90.0
 51
180.0
  0
ARC
  5
2C7
100
AcDbEntity
  8
0
 62
252
420
10526884
370
-1
  6
BYLAYER
100
AcDbCircle
 10
382.1872174806367184
 20
-124.5800380520937694
 30
0.0
 40
5.0
100
AcDbArc
 50
0.0
 51
90.0
  0
ARC
  5
2C8
100
AcDbEntity
  8
0
 62
252
420
10526884
370
-1
  6
BYLAYER
100
AcDbCircle
 10
382.1872174806367184
 20
-124.5800380520937694
 30
0.0
 40
5.0
100
AcDbArc
 50
270.0
 51
0.0
  0
ARC
  5
2C9
100
AcDbEntity
  8
0
 62
252
420
10526884
370
-1
  6
BYLAYER
100
AcDbCircle
 10
364.1872174806367184
 20
-124.5800380520937694
 30
0.0
 40
5.0
100
AcDbArc
 50
90.0
 51
180.0
  0
ARC
  5
2CA
100
AcDbEntity
  8
0
 62
252
420
10526884
370
-1
  6
BYLAYER
100
AcDbCircle
 10
364.1872174806367184
 20
-154.9050380520938006
 30
0.0
 40
5.0
100
AcDbArc
 50
180.0
 51
270.0
  0
ARC
  5
2CB
100
AcDbEntity
  8
0
 62
252
420
10526884
370
-1
  6
BYLAYER
100
AcDbCircle
 10
372.1872174806367184
 20
-154.9050380520938006
 30
0.0
 40
5.0
100
AcDbArc
 50
270.0
 51
0.0
  0
LINE
  5
2CC
100
AcDbEntity
100
AcDbLine
  8
0
 62
252
420
10526884
370
-1
  6
DOT
 10
348.1872174806367184
 20
-139.2300380520938461
 30
0.0
 11
348.1872174806367184
 21
-145.5800380520937551
 31
0.0
  0
LINE
  5
2CD
100
AcDbEntity
100
AcDbLine
  8
0
 62
252
420
10526884
370
-1
  6
BYLAYER
 10
348.1872174806367184
 20
-145.5800380520937551
 30
0.0
 11
338.1872174806367184
 21
-145.5800380520937551
 31
0.0
  0
LINE
  5
2CE
100
AcDbEntity
100
AcDbLine
  8
0
 62
252
420
10526884
370
-1
  6
BYLAYER
 10
348.1872174806367184
 20
-139.2300380520938461
 30
0.0
 11
338.1872174806367184
 21
-139.2300380520938461
 31
0.0
  0
CIRCLE
  5
2CF
100
AcDbEntity
100
AcDbCircle
  8
0
 62
252
420
10526884
370
-1
  6
BYLAYER
 10
382.1872174806367184
 20
-124.5800380520937694
 30
0.0
 40
1.5
  0
ARC
  5
2D0
100
AcDbEntity
  8
0
 62
252
420
10526884
370
-1
  6
BYLAYER
100
AcDbCircle
 10
354.1872174806367184
 20
-154.9050380520938006
 30
0.0
 40
5.0
100
AcDbArc
 50
0.0
 51
90.0
  0
ARC
  5
2D1
100
AcDbEntity
  8
0
 62
252
420
10526884
370
-1
  6
BYLAYER
100
AcDbCircle
 10
354.1872174806367184
 20
-129.9050380520938006
 30
0.0
 40
5.0
100
AcDbArc
 50
270.0
 51
0.0
  0
ARC
  5
2D2
100
AcDbEntity
  8
0
 62
252
420
10526884
370
-1
  6
BYLAYER
100
AcDbCircle
 10
339.1872174806367184
 20
-135.9050380520938006
 30
0.0
 40
1.0
100
AcDbArc
 50
89.9999999999999005
 51
180.0
  0
LINE
  5
2D3
100
AcDbEntity
100
AcDbLine
  8
0
 62
252
420
10526884
370
-1
  6
BYLAYER
 10
328.1872174806367184
 20
-145.5800380520938688
 30
0.0
 11
358.1872174806367184
 21
-145.5800380520938688
 31
0.0
  0
ARC
  5
2D4
100
AcDbEntity
  8
0
 62
252
420
10526884
370
-1
  6
BYLAYER
100
AcDbCircle
 10
339.1872174806367184
 20
-148.9050380520938006
 30
0.0
 40
1.0
100
AcDbArc
 50
180.0
 51
270.0
  0
LINE
  5
2D5
100
AcDbEntity
100
AcDbLine
  8
0
 62
252
420
10526884
370
-1
  6
BYLAYER
 10
358.1872174806367184
 20
-145.5800380520938688
 30
0.0
 11
358.1872174806367184
 21
-139.2300380520938461
 31
0.0
  0
LINE
  5
2D6
100
AcDbEntity
100
AcDbLine
  8
0
 62
252
420
10526884
370
-1
  6
BYLAYER
 10
339.1872174806367184
 20
-149.9050380520938006
 30
0.0
 11
354.1872174806367184
 21
-149.9050380520938006
 31
0.0
  0
LINE
  5
2D7
100
AcDbEntity
100
AcDbLine
  8
0
 62
252
420
10526884
370
-1
  6
BYLAYER
 10
358.1872174806367184
 20
-139.2300380520938461
 30
0.0
 11
328.1872174806367184
 21
-139.2300380520938461
 31
0.0
  0
LINE
  5
2D8
100
AcDbEntity
100
AcDbLine
  8
0
 62
252
420
10526884
370
-1
  6
BYLAYER
 10
328.1872174806367184
 20
-139.2300380520938461
 30
0.0
 11
328.1872174806367184
 21
-145.5800380520938688
 31
0.0
  0
LINE
  5
2D9
100
AcDbEntity
100
AcDbLine
  8
0
 62
252
420
10526884
370
-1
  6
BYLAYER
 10
375.7786536600788168
 20
-127.5684004393949778
 30
0.0
 11
379.19885509333551
 21
-118.1714742315358677
 31
0.0
  0
LINE
  5
2DA
100
AcDbEntity
100
AcDbLine
  8
0
 62
252
420
10526884
370
-1
  6
BYLAYER
 10
407.3896337169127264
 20
-128.4320785313059332
 30
0.0
 11
403.9694322836561469
 21
-137.8290047391650432
 31
0.0
  0
CIRCLE
  5
2DB
100
AcDbEntity
100
AcDbCircle
  8
0
 62
252
420
10526884
370
-1
  6
BYLAYER
 10
382.1872174806367184
 20
-124.5800380520937694
 30
0.0
 40
1.0
  0
CIRCLE
  5
2DC
100
AcDbEntity
100
AcDbCircle
  8
0
 62
252
420
10526884
370
-1
  6
BYLAYER
 10
400.9810698963548248
 20
-131.4204409186071416
 30
0.0
 40
1.0
  0
LINE
  5
2DD
100
AcDbEntity
100
AcDbLine
  8
0
 62
7
420
0
370
-1
  6
DOT2
 10
334.6872174806367184
 20
-145.5800380520938688
 30
0.0
 11
334.6872174806367184
 21
-139.2300380520938461
 31
0.0
  0
LINE
  5
2DE
100
AcDbEntity
100
AcDbLine
  8
0
 62
252
420
10526884
370
-1
  6
BYLAYER
 10
379.19885509333551
 20
-118.1714742315358677
 30
0.0
 11
407.3896337169127264
 21
-128.4320785313059332
 31
0.0
  0
LINE
  5
2DF
100
AcDbEntity
100
AcDbLine
  8
0
 62
252
420
10526884
370
-1
  6
BYLAYER
 10
403.9694322836561469
 20
-137.8290047391650432
 30
0.0
 11
375.7786536600788168
 21
-127.5684004393949778
 31
0.0
  0
LINE
  5
2E0
100
AcDbEntity
100
AcDbLine
  8
0
 62
7
420
0
370
-1
  6
DOT2
 10
331.6872174806367184
 20
-139.2300380520938461
 30
0.0
 11
331.6872174806367184
 21
-145.5800380520938688
 31
0.0
  0
LINE
  5
2E1
100
AcDbEntity
100
AcDbLine
  8
0
 62
252
420
10526884
370
-1
  6
BYLAYER
 10
410.6474528121033245
 20
-172.5976317082436253
 30
0.0
 11
414.0676542453601314
 21
-181.9945579161027354
 31
0.0
  0
LINE
  5
2E2
100
AcDbEntity
100
AcDbLine
  8
0
 62
252
420
10526884
370
-1
  6
BYLAYER
 10
424.7428421238920464
 20
-167.4673295583586423
 30
0.0
 11
424.7428421238920464
 21
-167.4673295583586423
 31
0.0
  0
LINE
  5
2E3
100
AcDbEntity
100
AcDbLine
  8
0
 62
252
420
10526884
370
-1
  6
BYLAYER
 10
405.6795330002844366
 20
-129.7103402019787382
 30
0.0
 11
405.6795330002844366
 21
-129.7103402019787382
 31
0.0
  0
LINE
  5
2E4
100
AcDbEntity
100
AcDbLine
  8
0
 62
252
420
10526884
370
-1
  6
BYLAYER
 10
399.270969179726535
 20
-126.7219778146776576
 30
0.0
 11
399.270969179726535
 21
-126.7219778146776576
 31
0.0
  0
LINE
  5
2E5
100
AcDbEntity
100
AcDbLine
  8
0
 62
252
420
10526884
370
-1
  6
BYLAYER
 10
396.2826067924253266
 20
-133.1305416352355451
 30
0.0
 11
397.9927075090537301
 21
-137.8290047391650432
 31
0.0
  0
DIMENSION
  5
2E6
100
AcDbEntity
  8
0
 62
256
370
-1
  6
BYLAYER
100
AcDbDimension
 10
385.8727478787322411
 20
-114.4541265046122049
 30
0.0
 11
397.1099794439501238
 21
-112.7279657155052774
 31
0.0
 70
129
 71
8
 72
2
 41
1.0
 42
0.0
  1
femur length
  3
Standard
100
AcDbAlignedDimension
 13
382.1872174806366047
 23
-124.5800380520939967
 33
0.0
 14
400.9810698963547111
 24
-131.4204409186070279
 34
0.0
1001
ACAD
1000
DSTYLE
1002
{
1070
144
1040
1
1002
}
  0
LINE
  5
2E7
100
AcDbEntity
100
AcDbLine
  8
0
 62
256
370
-1
  6
DASHED
 10
420.4762180659179194
 20
-184.9829203034041711
 30
0.0
 11
382.1872174806366047
 21
-124.5800380520939967
 31
0.0
  0
DIMENSION
  5
2E8
100
AcDbEntity
  8
0
 62
256
370
-1
  6
BYLAYER
100
AcDbDimension
 10
372.6495172135127518
 20
-130.6259252266622184
 30
0.0
 11
393.3776520848320501
 21
-159.8235105254110806
 31
0.0
 70
1
 71
8
 72
2
 41
1.0
 42
0.0
  1
leg extension
  3
Standard
100
AcDbAlignedDimension
 13
382.1872174806366615
 23
-124.5800380520940536
 33
0.0
 14
420.4762180659179762
 24
-184.9829203034039438
 34
0.0
1001
ACAD
1000
DSTYLE
1002
{
1070
144
1040
1
1002
}
  0
DIMENSION
  5
2E9
100
AcDbEntity
  8
0
 62
256
370
-1
  6
BYLAYER
100
AcDbDimension
 10
418.7199457158769178
 20
-124.9640181309564753
 30
0.0
 11
430.2294434646320269
 21
-151.1039700546193103
 31
0.0
 70
1
 71
8
 72
2
 41
1.0
 42
0.0
  1
tibia length
  3
Standard
100
AcDbAlignedDimension
 13
400.9810698963547111
 23
-131.4204409186070279
 33
0.0
 14
420.4762180659178625
 24
-184.9829203034039438
 34
0.0
1001
ACAD
1000
DSTYLE
1002
{
1070
144
1040
1
1002
}
  0
LINE
  5
2EA
100
AcDbEntity
100
AcDbLine
  8
0
 62
256
370
-1
  6
DASHED
 10
420.4762180659178057
 20
-184.9829203034039438
 30
0.0
 11
400.9810698963548248
 21
-131.4204409186071416
 31
0.0
  0
LINE
  5
2EB
100
AcDbEntity
100
AcDbLine
  8
0
 62
256
370
-1
  6
DASHED
 10
400.9810698963548248
 20
-131.4204409186071416
 30
0.0
 11
382.1872174806366047
 21
-124.5800380520939967
 31
0.0
  0
LINE
  5
2EC
100
AcDbEntity
100
AcDbLine
  8
0
 62
252
420
10526884
370
-1
  6
BYLAYER
 10
412.0880968208423383
 20
-132.6987025892800602
 30
0.0
 11
412.0880968208423383
 21
-132.6987025892800602
 31
0.0
  0
ARC
  5
2ED
100
AcDbEntity
  8
0
 62
252
420
10526884
370
-1
  6
BYLAYER
100
AcDbCircle
 10
400.9810698963548248
 20
-131.4204409186071416
 30
0.0
 40
5.0
100
AcDbArc
 50
110.0000000000000142
 51
200.0
  0
ARC
  5
2EE
100
AcDbEntity
  8
0
 62
252
420
10526884
370
-1
  6
BYLAYER
100
AcDbCircle
 10
400.9810698963548248
 20
-131.4204409186071416
 30
0.0
 40
5.0
100
AcDbArc
 50
20.0
 51
110.0000000000000142
  0
ARC
  5
2EF
100
AcDbEntity
  8
0
 62
252
420
10526884
370
-1
  6
BYLAYER
100
AcDbCircle
 10
413.798197537470628
 20
-137.3971656932095584
 30
0.0
 40
5.0
100
AcDbArc
 50
20.0
 51
110.0000000000000142
  0
ARC
  5
2F0
100
AcDbEntity
  8
0
 62
252
420
10526884
370
-1
  6
BYLAYER
100
AcDbCircle
 10
423.0327414072636429
 20
-162.7688664544290305
 30
0.0
 40
5.0
100
AcDbArc
 50
289.9999999999999432
 51
20.0
  0
ARC
  5
2F1
100
AcDbEntity
  8
0
 62
252
420
10526884
370
-1
  6
BYLAYER
100
AcDbCircle
 10
418.7661173492896296
 20
-180.2844571994743319
 30
0.0
 40
5.0
100
AcDbArc
 50
200.0
 51
289.9999999999999432
  0
ARC
  5
2F2
100
AcDbEntity
  8
0
 62
252
420
10526884
370
-1
  6
BYLAYER
100
AcDbCircle
 10
418.7661173492896296
 20
-180.2844571994743319
 30
0.0
 40
5.0
100
AcDbArc
 50
289.9999999999999432
 51
20.0
  0
CIRCLE
  5
2F3
100
AcDbEntity
100
AcDbCircle
  8
0
 62
252
420
10526884
370
-1
  6
BYLAYER
 10
400.9810698963548248
 20
-131.4204409186071416
 30
0.0
 40
1.5
  0
ARC
  5
2F4
100
AcDbEntity
  8
0
 62
252
420
10526884
370
-1
  6
BYLAYER
100
AcDbCircle
 10
426.4529428405204499
 20
-172.1657926622881405
 30
0.0
 40
5.0
100
AcDbArc
 50
110.0000000000000142
 51
200.0
  0
ARC
  5
2F5
100
AcDbEntity
  8
0
 62
252
420
10526884
370
-1
  6
BYLAYER
100
AcDbCircle
 10
410.3779961042140485
 20
-128.0002394853504484
 30
0.0
 40
5.0
100
AcDbArc
 50
200.0
 51
289.9999999999999432
  0
LINE
  5
2F6
100
AcDbEntity
100
AcDbLine
  8
0
 62
252
420
10526884
370
-1
  6
BYLAYER
 10
427.7312045111932548
 20
-161.0587657378007407
 30
0.0
 11
418.4966606414001262
 21
-135.687064976581155
 31
0.0
  0
LINE
  5
2F7
100
AcDbEntity
100
AcDbLine
  8
0
 62
252
420
10526884
370
-1
  6
BYLAYER
 10
397.9927075090537301
 20
-137.8290047391650432
 30
0.0
 11
410.6474528121033245
 21
-172.5976317082436253
 31
0.0
  0
LINE
  5
2F8
100
AcDbEntity
100
AcDbLine
  8
0
 62
252
420
10526884
370
-1
  6
BYLAYER
 10
420.4762180659180331
 20
-184.9829203034039438
 30
0.0
 11
420.4762180659180331
 21
-184.9829203034039438
 31
0.0
  0
LINE
  5
2F9
100
AcDbEntity
100
AcDbLine
  8
0
 62
252
420
10526884
370
-1
  6
BYLAYER
 10
423.4645804532191278
 20
-178.5743564828460421
 30
0.0
 11
421.754479736590838
 21
-173.8758933789164303
 31
0.0
  0
MTEXT
  5
2FA
100
AcDbEntity
100
AcDbMText
  8
0
 62
256
370
-1
  6
BYLAYER
 10
340.0
 20
-100.0
 30
0.0
 40
8.0
 41
0.0
 71
1
 72
1
  1
\H5.14286;Figure 2.3
  7
textstyle8
 50
0.0
 73
2
 44
1.0
  0
MTEXT
  5
2FB
100
AcDbEntity
100
AcDbMText
  8
0
 62
256
370
-1
  6
BYLAYER
 10
277.8729945978933529
 20
-189.2068673248618893
 30
0.0
 40
8.0
 41
0.0
 71
1
 72
1
  1
\H2.85714;(ground)
  7
textstyle9
 50
0.0
 73
2
 44
1.0
  0
LINE
  5
2FC
100
AcDbEntity
100
AcDbLine
  8
0
 62
256
370
50
  6
DOT2
 10
515.0898852750683545
 20
27.7751489496469119
 30
0.0
 11
487.4402986412669634
 21
50.9189150630618457
 31
0.0
  0
LINE
  5
2FD
100
AcDbEntity
100
AcDbLine
  8
0
 62
256
370
50
  6
DOT2
 10
388.1843697855276218
 20
30.0509218094242243
 30
0.0
 11
369.2269944046099681
 21
57.7182655525791901
 31
0.0
  0
DIMENSION
  5
2FE
100
AcDbEntity
  8
0
 62
256
370
-1
  6
DASHED
100
AcDbDimension
 10
386.9388448510096055
 20
29.1975011142846306
 30
0.0
 11
379.006902195779162
 21
44.0909865524842814
 31
0.0
 70
1
 71
8
 72
2
 41
1.0
 42
0.0
  1
e
  3
Standard
100
AcDbAlignedDimension
 13
388.184369785527565
 23
30.0509218094242385
 33
0.0
 14
369.2269944046099681
 24
57.7182655525791901
 34
0.0
1001
ACAD
1000
DSTYLE
1002
{
1070
144
1040
1
1002
}
  0
DIMENSION
  5
2FF
100
AcDbEntity
  8
0
 62
256
370
-1
  6
DASHED
100
AcDbDimension
 10
516.1788744586802977
 20
29.0761515880245618
 30
0.0
 11
503.5575679132966229
 21
42.0858262119570128
 31
0.0
 70
1
 71
8
 72
2
 41
1.0
 42
0.0
  1
e
  3
Standard
100
AcDbAlignedDimension
 13
515.0898852750684682
 23
27.7751489496469119
 33
0.0
 14
487.4402986412669634
 24
50.9189150630617888
 34
0.0
1001
ACAD
1000
DSTYLE
1002
{
1070
144
1040
1
1002
}
  0
DIMENSION
  5
300
100
AcDbEntity
  8
0
 62
256
370
-1
  6
BYLAYER
100
AcDbDimension
 10
258.3798378954930399
 20
-182.4562381943594573
 30
0.0
 11
233.0471726579548886
 21
-165.2621493392388743
 31
0.0
 70
130
 71
8
 72
2
 41
1.0
 42
0.0
  1
femur angle A
  3
Standard
100
AcDb2LineAngularDimension
 13
220.0908373102117821
 23
-182.7577750904299023
 33
0.0
 14
220.0908373102117821
 24
-122.0533559430492829
 34
0.0
 15
220.0908373102117821
 25
-122.0533559430492829
 35
0.0
 16
234.1282862203547666
 26
-162.37917983950598
 36
0.0
  0
ARC
  5
301
100
AcDbEntity
  8
0
 62
252
420
10526884
370
-1
  6
BYLAYER
100
AcDbCircle
 10
530.9810698963548248
 20
-131.4204409186071416
 30
0.0
 40
5.0
100
AcDbArc
 50
110.0000000000000142
 51
200.0
  0
ARC
  5
302
100
AcDbEntity
  8
0
 62
252
420
10526884
370
-1
  6
BYLAYER
100
AcDbCircle
 10
530.9810698963548248
 20
-131.4204409186071416
 30
0.0
 40
5.0
100
AcDbArc
 50
20.0
 51
110.0000000000000142
  0
ARC
  5
303
100
AcDbEntity
  8
0
 62
252
420
10526884
370
-1
  6
BYLAYER
100
AcDbCircle
 10
543.798197537470628
 20
-137.3971656932095584
 30
0.0
 40
5.0
100
AcDbArc
 50
20.0
 51
110.0000000000000142
  0
ARC
  5
304
100
AcDbEntity
  8
0
 62
252
420
10526884
370
-1
  6
BYLAYER
100
AcDbCircle
 10
553.0327414072636429
 20
-162.7688664544290305
 30
0.0
 40
5.0
100
AcDbArc
 50
289.9999999999999432
 51
20.0
  0
ARC
  5
305
100
AcDbEntity
  8
0
 62
252
420
10526884
370
-1
  6
BYLAYER
100
AcDbCircle
 10
548.7661173492896296
 20
-180.2844571994743319
 30
0.0
 40
5.0
100
AcDbArc
 50
200.0
 51
289.9999999999999432
  0
ARC
  5
306
100
AcDbEntity
  8
0
 62
252
420
10526884
370
-1
  6
BYLAYER
100
AcDbCircle
 10
548.7661173492896296
 20
-180.2844571994743319
 30
0.0
 40
5.0
100
AcDbArc
 50
289.9999999999999432
 51
20.0
  0
CIRCLE
  5
307
100
AcDbEntity
100
AcDbCircle
  8
0
 62
252
420
10526884
370
-1
  6
BYLAYER
 10
530.9810698963548248
 20
-131.4204409186071416
 30
0.0
 40
1.5
  0
ARC
  5
308
100
AcDbEntity
  8
0
 62
252
420
10526884
370
-1
  6
BYLAYER
100
AcDbCircle
 10
556.4529428405204499
 20
-172.1657926622881405
 30
0.0
 40
5.0
100
AcDbArc
 50
110.0000000000000142
 51
200.0
  0
ARC
  5
309
100
AcDbEntity
  8
0
 62
252
420
10526884
370
-1
  6
BYLAYER
100
AcDbCircle
 10
540.3779961042140485
 20
-128.0002394853504484
 30
0.0
 40
5.0
100
AcDbArc
 50
200.0
 51
289.9999999999999432
  0
LINE
  5
30A
100
AcDbEntity
100
AcDbLine
  8
0
 62
252
420
10526884
370
-1
  6
BYLAYER
 10
557.7312045111932548
 20
-161.0587657378007407
 30
0.0
 11
548.4966606414001262
 21
-135.687064976581155
 31
0.0
  0
LINE
  5
30B
100
AcDbEntity
100
AcDbLine
  8
0
 62
252
420
10526884
370
-1
  6
BYLAYER
 10
527.9927075090537301
 20
-137.8290047391650432
 30
0.0
 11
540.6474528121033245
 21
-172.5976317082436253
 31
0.0
  0
LINE
  5
30C
100
AcDbEntity
100
AcDbLine
  8
0
 62
252
420
10526884
370
-1
  6
BYLAYER
 10
550.4762180659180331
 20
-184.9829203034039438
 30
0.0
 11
550.4762180659180331
 21
-184.9829203034039438
 31
0.0
  0
LINE
  5
30D
100
AcDbEntity
100
AcDbLine
  8
0
 62
252
420
10526884
370
-1
  6
BYLAYER
 10
553.4645804532191278
 20
-178.5743564828460421
 30
0.0
 11
551.754479736590838
 21
-173.8758933789164303
 31
0.0
  0
MTEXT
  5
30E
100
AcDbEntity
100
AcDbMText
  8
0
 62
256
370
-1
  6
BYLAYER
 10
470.0
 20
-100.0
 30
0.0
 40
8.0
 41
0.0
 71
1
 72
1
  1
\H5.14286;Figure 2.4
  7
textstyle10
 50
0.0
 73
2
 44
1.0
  0
LINE
  5
30F
100
AcDbEntity
100
AcDbLine
  8
0
 62
252
420
10526884
370
-1
  6
BYLAYER
 10
484.1872174806367184
 20
-134.9050380520938006
 30
0.0
 11
469.1872174806367184
 21
-134.9050380520938006
 31
0.0
  0
LINE
  5
310
100
AcDbEntity
100
AcDbLine
  8
0
 62
252
420
10526884
370
-1
  6
BYLAYER
 10
468.1872174806367184
 20
-139.2300380520938461
 30
0.0
 11
468.1872174806367184
 21
-135.9050380520938006
 31
0.0
  0
LINE
  5
311
100
AcDbEntity
100
AcDbLine
  8
0
 62
252
420
10526884
370
-1
  6
BYLAYER
 10
468.1872174806367184
 20
-145.5800380520937551
 30
0.0
 11
468.1872174806367184
 21
-148.9050380520938006
 31
0.0
  0
LINE
  5
312
100
AcDbEntity
100
AcDbLine
  8
0
 62
252
420
10526884
370
-1
  6
BYLAYER
 10
494.1872174806367184
 20
-159.9050380520938006
 30
0.0
 11
502.1872174806367184
 21
-159.9050380520938006
 31
0.0
  0
LINE
  5
313
100
AcDbEntity
100
AcDbLine
  8
0
 62
252
420
10526884
370
-1
  6
BYLAYER
 10
507.1872174806367184
 20
-119.5800380520937694
 30
0.0
 11
494.1872174806367184
 21
-119.5800380520937694
 31
0.0
  0
LINE
  5
314
100
AcDbEntity
100
AcDbLine
  8
0
 62
252
420
10526884
370
-1
  6
BYLAYER
 10
489.1872174806367184
 20
-124.5800380520937694
 30
0.0
 11
489.1872174806367184
 21
-129.9050380520938006
 31
0.0
  0
LINE
  5
315
100
AcDbEntity
100
AcDbLine
  8
0
 62
252
420
10526884
370
-1
  6
BYLAYER
 10
510.1872174806367184
 20
-129.5800380520937551
 30
0.0
 11
512.1872174806367184
 21
-129.5800380520937551
 31
0.0
  0
LINE
  5
316
100
AcDbEntity
100
AcDbLine
  8
0
 62
252
420
10526884
370
-1
  6
BYLAYER
 10
517.1872174806367184
 20
-124.5800380520937694
 30
0.0
 11
517.1872174806367184
 21
-124.5800380520937694
 31
0.0
  0
LINE
  5
317
100
AcDbEntity
100
AcDbLine
  8
0
 62
252
420
10526884
370
-1
  6
BYLAYER
 10
512.1872174806367184
 20
-119.5800380520937694
 30
0.0
 11
507.1872174806367184
 21
-119.5800380520937694
 31
0.0
  0
LINE
  5
318
100
AcDbEntity
100
AcDbLine
  8
0
 62
252
420
10526884
370
-1
  6
BYLAYER
 10
507.1872174806367184
 20
-132.5800380520937551
 30
0.0
 11
507.1872174806367184
 21
-154.9050380520938006
 31
0.0
  0
ARC
  5
319
100
AcDbEntity
  8
0
 62
252
420
10526884
370
-1
  6
BYLAYER
100
AcDbCircle
 10
510.1872174806367184
 20
-132.5800380520937551
 30
0.0
 40
3.0
100
AcDbArc
 50
90.0
 51
180.0
  0
ARC
  5
31A
100
AcDbEntity
  8
0
 62
252
420
10526884
370
-1
  6
BYLAYER
100
AcDbCircle
 10
512.1872174806367184
 20
-124.5800380520937694
 30
0.0
 40
5.0
100
AcDbArc
 50
0.0
 51
90.0
  0
ARC
  5
31B
100
AcDbEntity
  8
0
 62
252
420
10526884
370
-1
  6
BYLAYER
100
AcDbCircle
 10
512.1872174806367184
 20
-124.5800380520937694
 30
0.0
 40
5.0
100
AcDbArc
 50
270.0
 51
0.0
  0
ARC
  5
31C
100
AcDbEntity
  8
0
 62
252
420
10526884
370
-1
  6
BYLAYER
100
AcDbCircle
 10
494.1872174806367184
 20
-124.5800380520937694
 30
0.0
 40
5.0
100
AcDbArc
 50
90.0
 51
180.0
  0
ARC
  5
31D
100
AcDbEntity
  8
0
 62
252
420
10526884
370
-1
  6
BYLAYER
100
AcDbCircle
 10
494.1872174806367184
 20
-154.9050380520938006
 30
0.0
 40
5.0
100
AcDbArc
 50
180.0
 51
270.0
  0
ARC
  5
31E
100
AcDbEntity
  8
0
 62
252
420
10526884
370
-1
  6
BYLAYER
100
AcDbCircle
 10
502.1872174806367184
 20
-154.9050380520938006
 30
0.0
 40
5.0
100
AcDbArc
 50
270.0
 51
0.0
  0
LINE
  5
31F
100
AcDbEntity
100
AcDbLine
  8
0
 62
252
420
10526884
370
-1
  6
DOT
 10
478.1872174806367184
 20
-139.2300380520938461
 30
0.0
 11
478.1872174806367184
 21
-145.5800380520937551
 31
0.0
  0
LINE
  5
320
100
AcDbEntity
100
AcDbLine
  8
0
 62
252
420
10526884
370
-1
  6
BYLAYER
 10
478.1872174806367184
 20
-145.5800380520937551
 30
0.0
 11
468.1872174806367184
 21
-145.5800380520937551
 31
0.0
  0
LINE
  5
321
100
AcDbEntity
100
AcDbLine
  8
0
 62
252
420
10526884
370
-1
  6
BYLAYER
 10
478.1872174806367184
 20
-139.2300380520938461
 30
0.0
 11
468.1872174806367184
 21
-139.2300380520938461
 31
0.0
  0
CIRCLE
  5
322
100
AcDbEntity
100
AcDbCircle
  8
0
 62
252
420
10526884
370
-1
  6
BYLAYER
 10
512.1872174806367184
 20
-124.5800380520937694
 30
0.0
 40
1.5
  0
ARC
  5
323
100
AcDbEntity
  8
0
 62
252
420
10526884
370
-1
  6
BYLAYER
100
AcDbCircle
 10
484.1872174806367184
 20
-154.9050380520938006
 30
0.0
 40
5.0
100
AcDbArc
 50
0.0
 51
90.0
  0
ARC
  5
324
100
AcDbEntity
  8
0
 62
252
420
10526884
370
-1
  6
BYLAYER
100
AcDbCircle
 10
484.1872174806367184
 20
-129.9050380520938006
 30
0.0
 40
5.0
100
AcDbArc
 50
270.0
 51
0.0
  0
ARC
  5
325
100
AcDbEntity
  8
0
 62
252
420
10526884
370
-1
  6
BYLAYER
100
AcDbCircle
 10
469.1872174806367184
 20
-135.9050380520938006
 30
0.0
 40
1.0
100
AcDbArc
 50
89.9999999999999005
 51
180.0
  0
LINE
  5
326
100
AcDbEntity
100
AcDbLine
  8
0
 62
252
420
10526884
370
-1
  6
BYLAYER
 10
458.1872174806367184
 20
-145.5800380520938688
 30
0.0
 11
488.1872174806367184
 21
-145.5800380520938688
 31
0.0
  0
ARC
  5
327
100
AcDbEntity
  8
0
 62
252
420
10526884
370
-1
  6
BYLAYER
100
AcDbCircle
 10
469.1872174806367184
 20
-148.9050380520938006
 30
0.0
 40
1.0
100
AcDbArc
 50
180.0
 51
270.0
  0
LINE
  5
328
100
AcDbEntity
100
AcDbLine
  8
0
 62
252
420
10526884
370
-1
  6
BYLAYER
 10
488.1872174806367184
 20
-145.5800380520938688
 30
0.0
 11
488.1872174806367184
 21
-139.2300380520938461
 31
0.0
  0
LINE
  5
329
100
AcDbEntity
100
AcDbLine
  8
0
 62
252
420
10526884
370
-1
  6
BYLAYER
 10
469.1872174806367184
 20
-149.9050380520938006
 30
0.0
 11
484.1872174806367184
 21
-149.9050380520938006
 31
0.0
  0
LINE
  5
32A
100
AcDbEntity
100
AcDbLine
  8
0
 62
252
420
10526884
370
-1
  6
BYLAYER
 10
488.1872174806367184
 20
-139.2300380520938461
 30
0.0
 11
458.1872174806367184
 21
-139.2300380520938461
 31
0.0
  0
LINE
  5
32B
100
AcDbEntity
100
AcDbLine
  8
0
 62
252
420
10526884
370
-1
  6
BYLAYER
 10
458.1872174806367184
 20
-139.2300380520938461
 30
0.0
 11
458.1872174806367184
 21
-145.5800380520938688
 31
0.0
  0
LINE
  5
32C
100
AcDbEntity
100
AcDbLine
  8
0
 62
252
420
10526884
370
-1
  6
BYLAYER
 10
505.7786536600788168
 20
-127.5684004393949778
 30
0.0
 11
509.19885509333551
 21
-118.1714742315358677
 31
0.0
  0
LINE
  5
32D
100
AcDbEntity
100
AcDbLine
  8
0
 62
252
420
10526884
370
-1
  6
BYLAYER
 10
537.3896337169127264
 20
-128.4320785313059332
 30
0.0
 11
533.9694322836561469
 21
-137.8290047391650432
 31
0.0
  0
CIRCLE
  5
32E
100
AcDbEntity
100
AcDbCircle
  8
0
 62
252
420
10526884
370
-1
  6
BYLAYER
 10
512.1872174806367184
 20
-124.5800380520937694
 30
0.0
 40
1.0
  0
CIRCLE
  5
32F
100
AcDbEntity
100
AcDbCircle
  8
0
 62
252
420
10526884
370
-1
  6
BYLAYER
 10
530.9810698963548248
 20
-131.4204409186071416
 30
0.0
 40
1.0
  0
LINE
  5
330
100
AcDbEntity
100
AcDbLine
  8
0
 62
7
420
0
370
-1
  6
DOT2
 10
464.6872174806367184
 20
-145.5800380520938688
 30
0.0
 11
464.6872174806367184
 21
-139.2300380520938461
 31
0.0
  0
LINE
  5
331
100
AcDbEntity
100
AcDbLine
  8
0
 62
252
420
10526884
370
-1
  6
BYLAYER
 10
509.19885509333551
 20
-118.1714742315358677
 30
0.0
 11
537.3896337169127264
 21
-128.4320785313059332
 31
0.0
  0
LINE
  5
332
100
AcDbEntity
100
AcDbLine
  8
0
 62
252
420
10526884
370
-1
  6
BYLAYER
 10
533.9694322836561469
 20
-137.8290047391650432
 30
0.0
 11
505.7786536600788168
 21
-127.5684004393949778
 31
0.0
  0
LINE
  5
333
100
AcDbEntity
100
AcDbLine
  8
0
 62
7
420
0
370
-1
  6
DOT2
 10
461.6872174806367184
 20
-139.2300380520938461
 30
0.0
 11
461.6872174806367184
 21
-145.5800380520938688
 31
0.0
  0
LINE
  5
334
100
AcDbEntity
100
AcDbLine
  8
0
 62
252
420
10526884
370
-1
  6
BYLAYER
 10
540.6474528121033245
 20
-172.5976317082436253
 30
0.0
 11
544.0676542453601314
 21
-181.9945579161027354
 31
0.0
  0
LINE
  5
335
100
AcDbEntity
100
AcDbLine
  8
0
 62
252
420
10526884
370
-1
  6
BYLAYER
 10
554.7428421238920464
 20
-167.4673295583586423
 30
0.0
 11
554.7428421238920464
 21
-167.4673295583586423
 31
0.0
  0
LINE
  5
336
100
AcDbEntity
100
AcDbLine
  8
0
 62
252
420
10526884
370
-1
  6
BYLAYER
 10
535.6795330002844366
 20
-129.7103402019787382
 30
0.0
 11
535.6795330002844366
 21
-129.7103402019787382
 31
0.0
  0
LINE
  5
337
100
AcDbEntity
100
AcDbLine
  8
0
 62
252
420
10526884
370
-1
  6
BYLAYER
 10
529.270969179726535
 20
-126.7219778146776576
 30
0.0
 11
529.270969179726535
 21
-126.7219778146776576
 31
0.0
  0
LINE
  5
338
100
AcDbEntity
100
AcDbLine
  8
0
 62
252
420
10526884
370
-1
  6
BYLAYER
 10
526.2826067924253266
 20
-133.1305416352355451
 30
0.0
 11
527.9927075090537301
 21
-137.8290047391650432
 31
0.0
  0
DIMENSION
  5
339
100
AcDbEntity
  8
0
 62
256
370
-1
  6
BYLAYER
100
AcDbDimension
 10
515.8727478787321843
 20
-114.454126504612276
 30
0.0
 11
527.1099794439501238
 21
-112.7279657155052774
 31
0.0
 70
129
 71
8
 72
2
 41
1.0
 42
0.0
  1
femur length
  3
Standard
100
AcDbAlignedDimension
 13
512.1872174806366047
 23
-124.5800380520939967
 33
0.0
 14
530.9810698963547111
 24
-131.4204409186070279
 34
0.0
1001
ACAD
1000
DSTYLE
1002
{
1070
144
1040
1
1002
}
  0
LINE
  5
33A
100
AcDbEntity
100
AcDbLine
  8
0
 62
256
370
-1
  6
DASHED
 10
550.4762180659179194
 20
-184.9829203034041711
 30
0.0
 11
512.1872174806366047
 21
-124.5800380520939967
 31
0.0
  0
DIMENSION
  5
33B
100
AcDbEntity
  8
0
 62
256
370
-1
  6
BYLAYER
100
AcDbDimension
 10
502.6495172135128087
 20
-130.62592522666219
 30
0.0
 11
523.377652084832107
 21
-159.8235105254110806
 31
0.0
 70
1
 71
8
 72
2
 41
1.0
 42
0.0
  1
leg extension
  3
Standard
100
AcDbAlignedDimension
 13
512.1872174806367184
 23
-124.5800380520940536
 33
0.0
 14
550.4762180659179194
 24
-184.9829203034039438
 34
0.0
1001
ACAD
1000
DSTYLE
1002
{
1070
144
1040
1
1002
}
  0
DIMENSION
  5
33C
100
AcDbEntity
  8
0
 62
256
370
-1
  6
BYLAYER
100
AcDbDimension
 10
548.7199457158769746
 20
-124.9640181309564326
 30
0.0
 11
560.2294434646321406
 21
-151.1039700546192535
 31
0.0
 70
1
 71
8
 72
2
 41
1.0
 42
0.0
  1
tibia length
  3
Standard
100
AcDbAlignedDimension
 13
530.9810698963547111
 23
-131.4204409186070279
 33
0.0
 14
550.4762180659179194
 24
-184.9829203034039438
 34
0.0
1001
ACAD
1000
DSTYLE
1002
{
1070
144
1040
1
1002
}
  0
LINE
  5
33D
100
AcDbEntity
100
AcDbLine
  8
0
 62
256
370
-1
  6
DASHED
 10
550.4762180659178057
 20
-184.9829203034039438
 30
0.0
 11
530.9810698963548248
 21
-131.4204409186071416
 31
0.0
  0
LINE
  5
33E
100
AcDbEntity
100
AcDbLine
  8
0
 62
256
370
-1
  6
DASHED
 10
530.9810698963548248
 20
-131.4204409186071416
 30
0.0
 11
512.1872174806366047
 21
-124.5800380520939967
 31
0.0
  0
DIMENSION
  5
33F
100
AcDbEntity
  8
0
 62
256
370
-1
  6
BYLAYER
100
AcDbDimension
 10
550.4762180659179194
 20
-184.9829203034039438
 30
0.0
 11
522.8029685163053273
 21
-137.1565581809561536
 31
0.0
 70
130
 71
8
 72
2
 41
1.0
 42
0.0
  1
tibia angle
  3
Standard
100
AcDb2LineAngularDimension
 13
512.1872174806367184
 23
-124.5800380520940536
 33
0.0
 14
530.9810698963547111
 24
-131.4204409186070279
 34
0.0
 15
530.9810698963547111
 25
-131.4204409186070279
 35
0.0
 16
526.4840783547211913
 26
-138.6797760451285626
 36
0.0
  0
LINE
  5
340
100
AcDbEntity
100
AcDbLine
  8
0
 62
252
420
10526884
370
-1
  6
BYLAYER
 10
542.0880968208423383
 20
-132.6987025892800602
 30
0.0
 11
542.0880968208423383
 21
-132.6987025892800602
 31
0.0
  0
DIMENSION
  5
341
100
AcDbEntity
  8
0
 62
256
370
-1
  6
BYLAYER
100
AcDbDimension
 10
420.4762180659179194
 20
-184.9829203034041711
 30
0.0
 11
413.6424119955490823
 21
-149.067280727001588
 31
0.0
 70
130
 71
8
 72
2
 41
1.0
 42
0.0
  1
femur angle B
  3
Standard
100
AcDb2LineAngularDimension
 13
400.9810698963548248
 23
-131.4204409186071416
 33
0.0
 14
382.1872174806366047
 24
-124.5800380520939967
 34
0.0
 15
382.1872174806366047
 25
-124.5800380520939967
 35
0.0
 16
412.4953972206264439
 26
-146.7732511771562542
 36
0.0
  0
DIMENSION
  5
342
100
AcDbEntity
  8
0
 62
256
370
-1
  6
BYLAYER
100
AcDbDimension
 10
506.4402986412669634
 20
20.593915063061786
 30
0.0
 11
472.4424527597525412
 21
12.1539485110262717
 31
0.0
 70
130
 71
8
 72
2
 41
1.0
 42
0.0
  1
desired angle
  3
Standard
100
AcDb2LineAngularDimension
 13
476.4402986412669634
 23
45.9189150630618386
 33
0.0
 14
506.4402986412669634
 24
45.9189150630618528
 34
0.0
 15
506.4402986412669634
 25
42.9189150630618386
 35
0.0
 16
493.5241672265492525
 26
2.7842976368943795
 36
0.0
  0
DIMENSION
  5
343
100
AcDbEntity
  8
0
 62
256
370
-1
  6
BYLAYER
100
AcDbDimension
 10
534.1665014235950366
 20
-4.5705003525496544
 30
0.0
 11
518.7301297276862897
 21
-0.083656396694046
 31
0.0
 70
130
 71
8
 72
2
 41
1.0
 42
0.0
  1
E offset
  3
Standard
100
AcDb2LineAngularDimension
 13
506.4402986412669634
 23
-0.3579843552201609
 33
0.0
 14
506.4402986412669634
 24
19.968915063061786
 34
0.0
 15
515.4073879748726768
 25
27.2368023739015364
 35
0.0
 16
525.3619606081482516
 26
5.4220145229347381
 36
0.0
  0
DIMENSION
  5
344
100
AcDbEntity
  8
0
 62
256
370
-1
  6
BYLAYER
100
AcDbDimension
 10
394.4271749033020455
 20
-4.7904653850687602
 30
0.0
 11
384.6040868202059642
 21
8.5403977985130837
 31
0.0
 70
130
 71
8
 72
2
 41
1.0
 42
0.0
  1
E offset
  3
Standard
100
AcDb2LineAngularDimension
 13
378.2269944046099681
 23
15.7182655525792399
 33
0.0
 14
378.2269944046099681
 24
52.7182655525792399
 34
0.0
 15
388.2946004634354722
 25
29.4357192430697587
 35
0.0
 16
389.8815133856329567
 26
12.3961980314899733
 36
0.0
  0
LINE
  5
345
100
AcDbEntity
100
AcDbLine
  8
0
 62
252
420
10526884
370
-1
  6
BYLAYER
 10
577.6308592480805828
 20
69.5513949183038562
 30
0.0
 11
597.6449423584045917
 21
81.1065311896329604
 31
0.0
  0
LINE
  5
346
100
AcDbEntity
100
AcDbLine
  8
0
 62
252
420
10526884
370
-1
  6
BYLAYER
 10
591.1308592480805828
 20
30.5802517480041196
 30
0.0
 11
591.1308592480805828
 21
7.4699792053458935
 31
0.0
  0
ARC
  5
347
100
AcDbEntity
  8
0
 62
252
420
10526884
370
-1
  6
BYLAYER
100
AcDbCircle
 10
594.1308592480805828
 20
30.5802517480041196
 30
0.0
 40
3.0
100
AcDbArc
 50
60.0
 51
180.0
  0
ARC
  5
348
100
AcDbEntity
  8
0
 62
252
420
10526884
370
-1
  6
BYLAYER
100
AcDbCircle
 10
576.1308592480805828
 20
72.1494711296571865
 30
0.0
 40
3.0
100
AcDbArc
 50
180.0000000000003126
 51
300.0
  0
LINE
  5
349
100
AcDbEntity
100
AcDbLine
  8
0
 62
252
420
10526884
370
-1
  6
BYLAYER
 10
620.4637351972040733
 20
44.7541954068046053
 30
0.0
 11
610.7430185697578509
 21
27.9174203220882511
 31
0.0
  0
LINE
  5
34A
100
AcDbEntity
100
AcDbLine
  8
0
 62
252
420
10526884
370
-1
  6
BYLAYER
 10
601.7430185697579645
 20
80.0084549782796159
 30
0.0
 11
607.7430185697578509
 21
69.6161501328663377
 31
0.0
  0
ARC
  5
34B
100
AcDbEntity
  8
0
 62
252
420
10526884
370
-1
  6
BYLAYER
100
AcDbCircle
 10
605.1449423584045917
 20
68.1161501328663377
 30
0.0
 40
3.0
100
AcDbArc
 50
300.0
 51
29.999999999999968
  0
ARC
  5
34C
100
AcDbEntity
  8
0
 62
252
420
10526884
370
-1
  6
BYLAYER
100
AcDbCircle
 10
599.1449423584045917
 20
78.5084549782796159
 30
0.0
 40
3.0
100
AcDbArc
 50
29.999999999999968
 51
119.9999999999999716
  0
ARC
  5
34D
100
AcDbEntity
  8
0
 62
252
420
10526884
370
-1
  6
BYLAYER
100
AcDbCircle
 10
608.1449423584045917
 20
29.4174203220882795
 30
0.0
 40
3.0
100
AcDbArc
 50
240.0
 51
330.0000000000000568
  0
ARC
  5
34E
100
AcDbEntity
  8
0
 62
252
420
10526884
370
-1
  6
BYLAYER
100
AcDbCircle
 10
588.1308592480805828
 20
7.4699792053458864
 30
0.0
 40
3.0
100
AcDbArc
 50
270.0
 51
0.0000000000000509
  0
LINE
  5
34F
100
AcDbEntity
100
AcDbLine
  8
0
 62
252
420
10526884
370
-1
  6
BYLAYER
 10
595.6308592480805828
 20
53.9629376501839246
 30
0.0
 11
610.4487899356979597
 21
45.4078013788548489
 31
0.0
  0
ARC
  5
350
100
AcDbEntity
  8
0
 62
252
420
10526884
370
-1
  6
BYLAYER
100
AcDbCircle
 10
597.1308592480805828
 20
56.5610138615372406
 30
0.0
 40
3.0
100
AcDbArc
 50
119.9999999999999716
 51
240.0
  0
LINE
  5
351
100
AcDbEntity
100
AcDbLine
  8
0
 62
252
420
10526884
370
-1
  6
BYLAYER
 10
615.2675827744974413
 20
47.7541954068046195
 30
0.0
 11
614.5468661470512188
 21
46.5058775902081649
 31
0.0
  0
ARC
  5
352
100
AcDbEntity
  8
0
 62
252
420
10526884
370
-1
  6
BYLAYER
100
AcDbCircle
 10
617.8656589858507004
 20
46.2541954068046337
 30
0.0
 40
3.0
100
AcDbArc
 50
330.0
 51
150.0000000000000568
  0
ARC
  5
353
100
AcDbEntity
  8
0
 62
252
420
10526884
370
-1
  6
BYLAYER
100
AcDbCircle
 10
611.9487899356979597
 20
48.005877590208172
 30
0.0
 40
3.0
100
AcDbArc
 50
240.0
 51
330.0
  0
ARC
  5
354
100
AcDbEntity
  8
0
 62
252
420
10526884
370
-1
  6
BYLAYER
100
AcDbCircle
 10
578.1308592480805828
 20
76.0351412706247345
 30
0.0
 40
5.0
100
AcDbArc
 50
90.8705949631606273
 51
180.0000000000000284
  0
LINE
  5
355
100
AcDbEntity
100
AcDbLine
  8
0
 62
252
420
10526884
370
-1
  6
BYLAYER
 10
573.1308592480804691
 20
72.149471129657158
 30
0.0
 11
573.1308592480805828
 21
76.0351412706247203
 31
0.0
  0
CIRCLE
  5
356
100
AcDbEntity
100
AcDbCircle
  8
0
 62
252
420
10526884
370
-1
  6
BYLAYER
 10
577.9941117732480507
 20
85.034102328887343
 30
0.0
 40
1.0
  0
ARC
  5
357
100
AcDbEntity
  8
0
 62
252
420
10526884
370
-1
  6
BYLAYER
100
AcDbCircle
 10
577.9941117732480507
 20
85.034102328887343
 30
0.0
 40
4.0
100
AcDbArc
 50
270.87059496316067
 51
24.6244180832547173
  0
ARC
  5
358
100
AcDbEntity
  8
0
 62
252
420
10526884
370
-1
  6
BYLAYER
100
AcDbCircle
 10
579.8122290084879751
 20
85.8674388269020596
 30
0.0
 40
2.0
100
AcDbArc
 50
24.624418083254767
 51
90.0
  0
INSERT
  5
359
100
AcDbEntity
100
AcDbBlockReference
  8
0
 62
252
420
10526884
370
-1
  6
BYLAYER
  2
servo_mount
 10
590.4535994073146412
 20
66.5623025555729839
 30
0.0
 41
1.0
 42
-1.0
 43
1.0
 50
119.9999999999999716
  0
INSERT
  5
35A
100
AcDbEntity
100
AcDbBlockReference
  8
0
 62
252
420
10526884
370
-1
  6
BYLAYER
  2
servo_mount
 10
582.1308592480805828
 20
20.96997920534589
 30
0.0
 41
1.0
 42
-1.0
 43
1.0
 50
360.0
  0
CIRCLE
  5
35B
100
AcDbEntity
100
AcDbCircle
  8
0
 62
252
420
10526884
370
-1
  6
BYLAYER
 10
573.1308592480805828
 20
46.1687090161239837
 30
0.0
 40
10.0
  0
LINE
  5
35C
100
AcDbEntity
100
AcDbLine
  8
0
 62
252
420
10526884
370
-1
  6
BYLAYER
 10
606.6449423584045917
 20
65.5180739215130501
 30
0.0
 11
595.6308592480805828
 21
59.1590900728905638
 31
0.0
  0
LINE
  5
35D
100
AcDbEntity
100
AcDbLine
  8
0
 62
252
420
10526884
370
-1
  6
BYLAYER
 10
606.6449423584045917
 20
26.8193441107348924
 30
0.0
 11
595.6308592480805828
 21
33.1783279593573823
 31
0.0
  0
CIRCLE
  5
35E
100
AcDbEntity
100
AcDbCircle
  8
0
 62
252
420
10526884
370
-1
  6
BYLAYER
 10
618.1308592480805828
 20
46.1687090161240903
 30
0.0
 40
1.0
  0
INSERT
  5
35F
100
AcDbEntity
100
AcDbBlockReference
  8
0
 62
252
420
10526884
370
-1
  6
BYLAYER
  2
servi_top
 10
606.4128915508355249
 20
30.4174203220882724
 30
0.0
 50
-30.0
  0
INSERT
  5
360
100
AcDbEntity
100
AcDbBlockReference
  8
0
 62
252
420
10526884
370
-1
  6
BYLAYER
  2
femur_horizontal
 10
633.1308592480805828
 20
46.1687090161240405
 30
0.0
 50
359.9999999999999432
  0
LINE
  5
361
100
AcDbEntity
100
AcDbLine
  8
0
 62
256
370
50
  6
BYLAYER
 10
618.1308592480805828
 20
46.1687090161240903
 30
0.0
 11
594.7770622268784564
 21
44.063572744794854
 31
0.0
  0
LINE
  5
362
100
AcDbEntity
100
AcDbLine
  8
0
 62
256
370
50
  6
BYLAYER
 10
622.1308592480805828
 20
33.6687090161240619
 30
0.0
 11
618.1308592480805828
 21
46.1687090161240903
 31
0.0
  0
LINE
  5
363
100
AcDbEntity
100
AcDbLine
  8
0
 62
256
370
50
  6
BYLAYER
 10
622.1308592480805828
 20
33.6687090161239979
 30
0.0
 11
595.9056670871830192
 21
34.9650036266326723
 31
0.0
  0
LINE
  5
364
100
AcDbEntity
100
AcDbLine
  8
0
 62
256
370
50
  6
BYLAYER
 10
595.9056670871830192
 20
34.9650036266326723
 30
0.0
 11
594.7770622268784564
 21
44.063572744794854
 31
0.0
  0
LINE
  5
365
100
AcDbEntity
100
AcDbLine
  8
0
 62
256
370
50
  6
DOT2
 10
622.1308592480805828
 20
33.6687090161240619
 30
0.0
 11
594.7770622268783427
 21
44.0635727447948469
 31
0.0
  0
DIMENSION
  5
366
100
AcDbEntity
  8
0
 62
256
370
-1
  6
DASHED
100
AcDbDimension
 10
594.2188411686382778
 20
50.2563221000980249
 30
0.0
 11
605.727407671361334
 21
53.1763187712423218
 31
0.0
 70
1
 71
8
 72
2
 41
1.0
 42
0.0
  1
a
  3
Standard
100
AcDbAlignedDimension
 13
594.7770622268783427
 23
44.0635727447948327
 33
0.0
 14
618.1308592480804691
 24
46.1687090161240832
 34
0.0
1001
ACAD
1000
DSTYLE
1002
{
1070
144
1040
1
1002
}
  0
DIMENSION
  5
367
100
AcDbEntity
  8
0
 62
256
370
-1
  6
DASHED
100
AcDbDimension
 10
586.5781064913167029
 20
33.8079942016819857
 30
0.0
 11
587.8745436438852039
 21
38.588088650707995
 31
0.0
 70
1
 71
8
 72
2
 41
1.0
 42
0.0
  1
b
  3
Standard
100
AcDbAlignedDimension
 13
595.9056670871829056
 23
34.9650036266326723
 33
0.0
 14
594.7770622268784564
 24
44.0635727447948042
 34
0.0
1001
ACAD
1000
DSTYLE
1002
{
1070
144
1040
1
1002
}
  0
DIMENSION
  5
368
100
AcDbEntity
  8
0
 62
256
370
-1
  6
DASHED
100
AcDbDimension
 10
621.8510691988195731
 20
28.0083076327498972
 30
0.0
 11
608.8310401650238646
 21
30.5291685685078207
 31
0.0
 70
1
 71
8
 72
2
 41
1.0
 42
0.0
  1
c
  3
Standard
100
AcDbAlignedDimension
 13
622.1308592480808102
 23
33.6687090161239837
 33
0.0
 14
595.9056670871829056
 24
34.9650036266326723
 34
0.0
1001
ACAD
1000
DSTYLE
1002
{
1070
144
1040
1
1002
}
  0
DIMENSION
  5
369
100
AcDbEntity
  8
0
 62
256
370
-1
  6
DASHED
100
AcDbDimension
 10
627.9532952821094796
 20
35.5318885470132457
 30
0.0
 11
627.739090558108046
 21
42.3533430353329123
 31
0.0
 70
1
 71
8
 72
2
 41
1.0
 42
0.0
  1
d
  3
Standard
100
AcDbAlignedDimension
 13
622.1308592480808102
 23
33.6687090161239837
 33
0.0
 14
618.1308592480805828
 24
46.1687090161240832
 34
0.0
1001
ACAD
1000
DSTYLE
1002
{
1070
144
1040
1
1002
}
  0
DIMENSION
  5
36A
100
AcDbEntity
  8
0
 62
256
370
-1
  6
DASHED
100
AcDbDimension
 10
594.1743728254050438
 20
42.4776122180335989
 30
0.0
 11
608.5173282013284961
 21
39.0328906127419089
 31
0.0
 70
129
 71
8
 72
2
 41
1.0
 42
0.0
  1
e
  3
Standard
100
AcDbAlignedDimension
 13
594.7770622268784564
 23
44.0635727447948042
 33
0.0
 14
622.1308592480808102
 24
33.6687090161239837
 34
0.0
1001
ACAD
1000
DSTYLE
1002
{
1070
144
1040
1
1002
}
  0
DIMENSION
  5
36B
100
AcDbEntity
  8
0
 62
256
370
-1
  6
BYLAYER
100
AcDbDimension
 10
618.1308592480805828
 20
46.1687090161240903
 30
0.0
 11
657.2266458574472381
 21
-6.307322717554424
 31
0.0
 70
2
 71
8
 72
2
 41
1.0
 42
0.0
  1
N (servo neutral angle)
  3
Standard
100
AcDb2LineAngularDimension
 13
595.9056670871830192
 23
34.9650036266326723
 33
0.0
 14
594.7770622268784564
 24
44.063572744794854
 34
0.0
 15
594.7770622268784564
 25
44.063572744794854
 35
0.0
 16
666.2980242278147216
 26
3.735972851680323
 36
0.0
  0
LINE
  5
36C
100
AcDbEntity
100
AcDbLine
  8
0
 62
252
420
10526884
370
-1
  6
DOT
 10
618.1308592480808102
 20
46.1687090161241045
 30
0.0
 11
668.1308592480808102
 21
46.1687090161241045
 31
0.0
  0
DIMENSION
  5
36D
100
AcDbEntity
  8
0
 62
256
370
-1
  6
BYLAYER
100
AcDbDimension
 10
654.4455984440457996
 20
49.4421584939920464
 30
0.0
 11
650.9491762823374756
 21
16.5925898741834672
 31
0.0
 70
130
 71
8
 72
2
 41
1.0
 42
0.0
  1
180 + E offset (i.e. E offset is negative)
  3
Standard
100
AcDb2LineAngularDimension
 13
627.1426972356206306
 23
18.0067153050617534
 33
0.0
 14
622.3213440775205072
 24
33.0734439241245184
 34
0.0
 15
618.7533354265738126
 25
46.2248196854167546
 35
0.0
 16
656.691030743080205
 26
39.1970811556266838
 36
0.0
  0
DIMENSION
  5
36E
100
AcDbEntity
  8
0
 62
256
370
-1
  6
BYLAYER
100
AcDbDimension
 10
594.7770622268784564
 20
44.063572744794854
 30
0.0
 11
608.3752251556184092
 21
5.3237074788328442
 31
0.0
 70
130
 71
8
 72
2
 41
1.0
 42
0.0
  1
E
  3
Standard
100
AcDb2LineAngularDimension
 13
622.1308592480805828
 23
33.6687090161240619
 33
0.0
 14
618.1308592480805828
 24
46.1687090161240903
 34
0.0
 15
618.1308592480805828
 25
46.1687090161240903
 35
0.0
 16
583.0231228390890692
 26
28.3399917716226781
 36
0.0
  0
LINE
  5
36F
100
AcDbEntity
100
AcDbLine
  8
0
 62
252
420
10526884
370
-1
  6
DOT
 10
618.1308592480808102
 20
46.1687090161241045
 30
0.0
 11
663.4462485999132468
 21
67.2996221031590665
 31
0.0
  0
DIMENSION
  5
370
100
AcDbEntity
  8
0
 62
256
370
-1
  6
BYLAYER
100
AcDbDimension
 10
668.7558592480808102
 20
46.1687090161241045
 30
0.0
 11
680.8869761268556431
 21
60.0814051763449868
 31
0.0
 70
2
 71
8
 72
2
 41
1.0
 42
0.0
  1
desired angle
  3
Standard
100
AcDb2LineAngularDimension
 13
663.4462485999132468
 23
67.2996221031590665
 33
0.0
 14
618.1308592480808102
 24
46.1687090161241045
 34
0.0
 15
665.6579621733378644
 25
46.1687090161241045
 35
0.0
 16
680.3912739970504617
 26
50.4114006142892137
 36
0.0
  0
LINE
  5
371
100
AcDbEntity
100
AcDbLine
  8
0
 62
252
420
10526884
370
-1
  6
DOT2
 10
633.0672890346570512
 20
49.6304557183931294
 30
0.0
 11
642.1303669050236067
 21
53.8566383358001062
 31
0.0
  0
LINE
  5
372
100
AcDbEntity
100
AcDbLine
  8
0
 62
252
420
10526884
370
-1
  6
DOT2
 10
639.4467409429701092
 20
59.6116927834828445
 30
0.0
 11
630.3836630726036674
 21
55.3855101660758535
 31
0.0
  0
LINE
  5
373
100
AcDbEntity
100
AcDbLine
  8
0
 62
252
420
10526884
370
-1
  6
DOT2
 10
630.3836630726036674
 20
55.3855101660758535
 30
0.0
 11
633.0672890346570512
 21
49.6304557183931294
 31
0.0
  0
LINE
  5
374
100
AcDbEntity
100
AcDbLine
  8
0
 62
252
420
10526884
370
-1
  6
DOT2
 10
639.4467409429701092
 20
59.6116927834828445
 30
0.0
 11
638.0415352226823416
 21
62.6251661753797109
 31
0.0
  0
LINE
  5
375
100
AcDbEntity
100
AcDbLine
  8
0
 62
252
420
10526884
370
-1
  6
DOT2
 10
642.1303669050236067
 20
53.8566383358001062
 30
0.0
 11
643.5355726253113744
 21
50.843164943903254
 31
0.0
  0
ARC
  5
376
100
AcDbEntity
  8
0
 62
252
420
10526884
370
-1
  6
DOT2
100
AcDbCircle
 10
617.0743135937289026
 20
48.4344784837156297
 30
0.0
 40
5.0
100
AcDbArc
 50
114.9999999999999716
 51
205.0
  0
CIRCLE
  5
377
100
AcDbEntity
100
AcDbCircle
  8
0
 62
252
420
10526884
370
-1
  6
DOT2
 10
618.1308592480805828
 20
46.1687090161240121
 30
0.0
 40
1.5
  0
ARC
  5
378
100
AcDbEntity
  8
0
 62
252
420
10526884
370
-1
  6
DOT2
100
AcDbCircle
 10
619.1874049024323767
 20
43.9029395485323946
 30
0.0
 40
5.0
100
AcDbArc
 50
205.0
 51
265.0
  0
ARC
  5
379
100
AcDbEntity
  8
0
 62
252
420
10526884
370
-1
  6
DOT2
100
AcDbCircle
 10
636.1018965383524346
 20
40.7565173425356591
 30
0.0
 40
5.0
100
AcDbArc
 50
114.9999999999999716
 51
205.0
  0
ARC
  5
37A
100
AcDbEntity
  8
0
 62
252
420
10526884
370
-1
  6
DOT2
100
AcDbCircle
 10
627.0388186679859928
 20
36.5303347251286823
 30
0.0
 40
5.0
100
AcDbArc
 50
205.0
 51
24.9999999999999716
  0
LINE
  5
37B
100
AcDbEntity
100
AcDbLine
  8
0
 62
252
420
10526884
370
-1
  6
DOT2
 10
622.5072797328026581
 20
34.4172434164251868
 30
0.0
 11
621.2090823215610271
 21
37.2012367490205236
 31
0.0
  0
ARC
  5
37C
100
AcDbEntity
  8
0
 62
252
420
10526884
370
-1
  6
DOT2
100
AcDbCircle
 10
618.4901589604510264
 20
35.933381963798432
 30
0.0
 40
3.0
100
AcDbArc
 50
24.9999999999999716
 51
84.9999999999999574
  0
CIRCLE
  5
37D
100
AcDbEntity
100
AcDbCircle
  8
0
 62
252
420
10526884
370
-1
  6
DOT2
 10
627.0388186679859928
 20
36.5303347251286823
 30
0.0
 40
0.5
  0
ARC
  5
37E
100
AcDbEntity
  8
0
 62
252
420
10526884
370
-1
  6
DOT2
100
AcDbCircle
 10
637.1352274356456746
 20
62.2025479136390018
 30
0.0
 40
1.0
100
AcDbArc
 50
24.9999999999999716
 51
114.9999999999999716
  0
ARC
  5
37F
100
AcDbEntity
  8
0
 62
252
420
10526884
370
-1
  6
DOT2
100
AcDbCircle
 10
642.6292648382747075
 20
50.4205466821625592
 30
0.0
 40
1.0
100
AcDbArc
 50
295.0
 51
24.9999999999999716
  0
LINE
  5
380
100
AcDbEntity
100
AcDbLine
  8
0
 62
252
420
10526884
370
-1
  6
DOT2
 10
633.9888052296489604
 20
45.2880562777189155
 30
0.0
 11
643.0518831000154023
 21
49.5142388951258923
 31
0.0
  0
LINE
  5
381
100
AcDbEntity
100
AcDbLine
  8
0
 62
252
420
10526884
370
-1
  6
DOT2
 10
636.7126091739049798
 20
63.1088557006756616
 30
0.0
 11
614.9612222850253147
 21
52.9660174188988719
 31
0.0
  0
LINE
  5
382
100
AcDbEntity
100
AcDbLine
  8
0
 62
252
420
10526884
370
-1
  6
DOT2
 10
612.5427746585455679
 20
46.3213871750121484
 30
0.0
 11
614.6558659672491558
 21
41.7898482398288849
 31
0.0
  0
MTEXT
  5
383
100
AcDbEntity
100
AcDbMText
  8
0
 62
256
370
-1
  6
BYLAYER
 10
600.0
 20
100.0
 30
0.0
 40
8.0
 41
0.0
 71
1
 72
1
  1
\H5.14286;Figure 1.5
  7
textstyle11
 50
0.0
 73
2
 44
1.0
  0
ENDSEC
  0
SECTION
  2
OBJECTS
  0
DICTIONARY
  5
C
100
AcDbDictionary
280
0
281
1
  3
ACAD_GROUP
350
D
  3
ACAD_LAYOUT
350
1A
  3
ACAD_MLINESTYLE
350
17
  3
ACAD_PLOTSETTINGS
350
19
  3
ACAD_PLOTSTYLENAME
350
E
  3
AcDbVariableDictionary
350
384
  3
QCAD_OBJECTS
350
385
  0
DICTIONARY
  5
D
100
AcDbDictionary
280
0
281
1
  0
ACDBDICTIONARYWDFLT
  5
E
100
AcDbDictionary
281
1
  3
Normal
350
F
100
AcDbDictionaryWithDefault
340
F
  0
ACDBPLACEHOLDER
  5
F
  0
DICTIONARY
  5
17
100
AcDbDictionary
280
0
281
1
  3
Standard
350
18
  0
MLINESTYLE
  5
18
100
AcDbMlineStyle
  2
STANDARD
 70
0
  3

 62
256
 51
90.0
 52
90.0
 71
2
 49
0.5
 62
256
  6
BYLAYER
 49
-0.5
 62
256
  6
BYLAYER
  0
DICTIONARY
  5
19
100
AcDbDictionary
280
0
281
1
  0
DICTIONARY
  5
1A
100
AcDbDictionary
281
1
  3
Layout1
350
1E
  3
Layout2
350
26
  3
Model
350
22
  0
LAYOUT
  5
1E
100
AcDbPlotSettings
  1

  2
none_device
  4

  6

 40
0.0
 41
0.0
 42
0.0
 43
0.0
 44
0.0
 45
0.0
 46
0.0
 47
0.0
 48
0.0
 49
0.0
140
0.0
141
0.0
142
1.0
143
1.0
 70
688
 72
0
 73
0
 74
5
  7

 75
16
147
1.0
148
0.0
149
0.0
100
AcDbLayout
  1
Layout1
 70
1
 71
1
 10
0.0
 20
0.0
 11
420.0
 21
297.0
 12
0.0
 22
0.0
 32
0.0
 14
100000000000000000000.0
 24
100000000000000000000.0
 34
100000000000000000000.0
 15
-100000000000000000000.0
 25
-100000000000000000000.0
 35
-100000000000000000000.0
146
0.0
 13
0.0
 23
0.0
 33
0.0
 16
1.0
 26
0.0
 36
0.0
 17
0.0
 27
1.0
 37
0.0
 76
0
330
1B
  0
LAYOUT
  5
22
100
AcDbPlotSettings
  1

  2
none_device
  4

  6

 40
0.0
 41
0.0
 42
0.0
 43
0.0
 44
0.0
 45
0.0
 46
0.0
 47
0.0
 48
0.0
 49
0.0
140
0.0
141
0.0
142
1.0
143
1.0
 70
1712
 72
0
 73
0
 74
0
  7

 75
0
147
1.0
148
0.0
149
0.0
100
AcDbLayout
  1
Model
 70
1
 71
0
 10
0.0
 20
0.0
 11
12.0
 21
9.0
 12
0.0
 22
0.0
 32
0.0
 14
0.0
 24
0.0
 34
0.0
 15
0.0
 25
0.0
 35
0.0
146
0.0
 13
0.0
 23
0.0
 33
0.0
 16
1.0
 26
0.0
 36
0.0
 17
0.0
 27
1.0
 37
0.0
 76
0
330
1F
  0
LAYOUT
  5
26
100
AcDbPlotSettings
  1

  2
none_device
  4

  6

 40
0.0
 41
0.0
 42
0.0
 43
0.0
 44
0.0
 45
0.0
 46
0.0
 47
0.0
 48
0.0
 49
0.0
140
0.0
141
0.0
142
1.0
143
1.0
 70
688
 72
0
 73
0
 74
5
  7

 75
16
147
1.0
148
0.0
149
0.0
100
AcDbLayout
  1
Layout2
 70
1
 71
2
 10
0.0
 20
0.0
 11
12.0
 21
9.0
 12
0.0
 22
0.0
 32
0.0
 14
0.0
 24
0.0
 34
0.0
 15
0.0
 25
0.0
 35
0.0
146
0.0
 13
0.0
 23
0.0
 33
0.0
 16
1.0
 26
0.0
 36
0.0
 17
0.0
 27
1.0
 37
0.0
 76
0
330
23
  0
DICTIONARY
  5
384
100
AcDbDictionary
281
1
  3
DIMASSOC
350
387
  3
HIDETEXT
350
386
  0
DICTIONARYVAR
  5
386
100
DictionaryVariables
280
0
  1
2
  0
DICTIONARYVAR
  5
387
100
DictionaryVariables
280
0
  1
1
  0
DICTIONARY
  5
385
100
AcDbDictionary
281
1
  3
Grid/DisplayGrid00
350
388
  3
Grid/DisplayGrid01
350
389
  3
Grid/DisplayGrid02
350
38A
  3
Grid/DisplayGrid03
350
38B
  3
Grid/GridSpacingX00
350
38C
  3
Grid/GridSpacingX01
350
38D
  3
Grid/GridSpacingX02
350
38E
  3
Grid/GridSpacingX03
350
38F
  3
Grid/GridSpacingY00
350
390
  3
Grid/GridSpacingY01
350
391
  3
Grid/GridSpacingY02
350
392
  3
Grid/GridSpacingY03
350
393
  3
Grid/IsometricGrid00
350
394
  3
Grid/IsometricGrid01
350
395
  3
Grid/IsometricGrid02
350
396
  3
Grid/IsometricGrid03
350
397
  3
Grid/IsometricProjection00
350
398
  3
Grid/IsometricProjection01
350
399
  3
Grid/IsometricProjection02
350
39A
  3
Grid/IsometricProjection03
350
39B
  3
Grid/MetaGridSpacingX00
350
39C
  3
Grid/MetaGridSpacingX01
350
39D
  3
Grid/MetaGridSpacingX02
350
39E
  3
Grid/MetaGridSpacingX03
350
39F
  3
Grid/MetaGridSpacingY00
350
3A0
  3
Grid/MetaGridSpacingY01
350
3A1
  3
Grid/MetaGridSpacingY02
350
3A2
  3
Grid/MetaGridSpacingY03
350
3A3
  3
MultiPageSettings/Columns
350
3A4
  3
MultiPageSettings/GlueMarginsBottom
350
3A5
  3
MultiPageSettings/GlueMarginsLeft
350
3A6
  3
MultiPageSettings/GlueMarginsRight
350
3A7
  3
MultiPageSettings/GlueMarginsTop
350
3A8
  3
MultiPageSettings/PrintCropMarks
350
3A9
  3
MultiPageSettings/Rows
350
3AA
  3
PageSettings/OffsetX
350
3AB
  3
PageSettings/OffsetY
350
3AC
  3
PageSettings/PageOrientation
350
3AD
  3
PageSettings/PaperHeight
350
3AE
  3
PageSettings/PaperSizeName
350
3AF
  3
PageSettings/PaperWidth
350
3B0
  3
PageSettings/Scale
350
3B1
  3
PageSettings/ShowPaperBorders
350
3B2
  3
UnitSettings/PaperUnit
350
3B3
  0
XRECORD
  5
388
330
385
100
AcDbXrecord
280
1
290
1
  0
XRECORD
  5
389
330
385
100
AcDbXrecord
280
1
290
1
  0
XRECORD
  5
38A
330
385
100
AcDbXrecord
280
1
290
1
  0
XRECORD
  5
38B
330
385
100
AcDbXrecord
280
1
290
1
  0
XRECORD
  5
38C
330
385
100
AcDbXrecord
280
1
1000
auto
  0
XRECORD
  5
38D
330
385
100
AcDbXrecord
280
1
1000
auto
  0
XRECORD
  5
38E
330
385
100
AcDbXrecord
280
1
1000
auto
  0
XRECORD
  5
38F
330
385
100
AcDbXrecord
280
1
1000
auto
  0
XRECORD
  5
390
330
385
100
AcDbXrecord
280
1
1000
auto
  0
XRECORD
  5
391
330
385
100
AcDbXrecord
280
1
1000
auto
  0
XRECORD
  5
392
330
385
100
AcDbXrecord
280
1
1000
auto
  0
XRECORD
  5
393
330
385
100
AcDbXrecord
280
1
1000
auto
  0
XRECORD
  5
394
330
385
100
AcDbXrecord
280
1
290
0
  0
XRECORD
  5
395
330
385
100
AcDbXrecord
280
1
290
0
  0
XRECORD
  5
396
330
385
100
AcDbXrecord
280
1
290
0
  0
XRECORD
  5
397
330
385
100
AcDbXrecord
280
1
290
0
  0
XRECORD
  5
398
330
385
100
AcDbXrecord
280
1
 90
0
  0
XRECORD
  5
399
330
385
100
AcDbXrecord
280
1
 90
0
  0
XRECORD
  5
39A
330
385
100
AcDbXrecord
280
1
 90
0
  0
XRECORD
  5
39B
330
385
100
AcDbXrecord
280
1
 90
0
  0
XRECORD
  5
39C
330
385
100
AcDbXrecord
280
1
1000
auto
  0
XRECORD
  5
39D
330
385
100
AcDbXrecord
280
1
1000
auto
  0
XRECORD
  5
39E
330
385
100
AcDbXrecord
280
1
1000
auto
  0
XRECORD
  5
39F
330
385
100
AcDbXrecord
280
1
1000
auto
  0
XRECORD
  5
3A0
330
385
100
AcDbXrecord
280
1
1000
auto
  0
XRECORD
  5
3A1
330
385
100
AcDbXrecord
280
1
1000
auto
  0
XRECORD
  5
3A2
330
385
100
AcDbXrecord
280
1
1000
auto
  0
XRECORD
  5
3A3
330
385
100
AcDbXrecord
280
1
1000
auto
  0
XRECORD
  5
3A4
330
385
100
AcDbXrecord
280
1
 90
1
  0
XRECORD
  5
3A5
330
385
100
AcDbXrecord
280
1
 40
10.0
  0
XRECORD
  5
3A6
330
385
100
AcDbXrecord
280
1
 40
10.0
  0
XRECORD
  5
3A7
330
385
100
AcDbXrecord
280
1
 40
10.0
  0
XRECORD
  5
3A8
330
385
100
AcDbXrecord
280
1
 40
10.0
  0
XRECORD
  5
3A9
330
385
100
AcDbXrecord
280
1
290
0
  0
XRECORD
  5
3AA
330
385
100
AcDbXrecord
280
1
 90
1
  0
XRECORD
  5
3AB
330
385
100
AcDbXrecord
280
1
 40
-16.6683242220372705
  0
XRECORD
  5
3AC
330
385
100
AcDbXrecord
280
1
 40
-267.8107704927338659
  0
XRECORD
  5
3AD
330
385
100
AcDbXrecord
280
1
1000
Portrait
  0
XRECORD
  5
3AE
330
385
100
AcDbXrecord
280
1
1000
400
  0
XRECORD
  5
3AF
330
385
100
AcDbXrecord
280
1
1000
Custom
  0
XRECORD
  5
3B0
330
385
100
AcDbXrecord
280
1
1000
600
  0
XRECORD
  5
3B1
330
385
100
AcDbXrecord
280
1
1000
1:1
  0
XRECORD
  5
3B2
330
385
100
AcDbXrecord
280
1
290
1
  0
XRECORD
  5
3B3
330
385
100
AcDbXrecord
280
1
 90
4
  0
ENDSEC
  0
EOF
