999
dxflib 3.3.4.0
  0
SECTION
  2
HEADER
  9
$ACADVER
  1
AC1015
  9
$HANDSEED
  5
FFFF
  9
$DIMADEC
 70
0
  9
$DIMASZ
 40
2.5
  9
$DIMAUNIT
 70
0
  9
$DIMAZIN
 70
2
  9
$DIMDEC
 70
4
  9
$DIMEXE
 40
1.25
  9
$DIMEXO
 40
0.625
  9
$DIMGAP
 40
0.625
  9
$DIMLUNIT
 70
2
  9
$DIMTSZ
 40
0.0
  9
$DIMTXT
 40
2.5
  9
$DIMZIN
 70
8
  9
$DWGCODEPAGE
  3
ANSI_1252
  9
$INSUNITS
 70
4
  9
$LTSCALE
 40
1.0
  0
ENDSEC
  0
SECTION
  2
TABLES
  0
TABLE
  2
VPORT
  5
8
100
AcDbSymbolTable
 70
1
  0
VPORT
  5
30
100
AcDbSymbolTableRecord
100
AcDbViewportTableRecord
  2
*Active
 70
0
 10
0.0
 20
0.0
 11
1.0
 21
1.0
 12
286.3055555555554861
 22
148.5
 13
0.0
 23
0.0
 14
10.0
 24
10.0
 15
10.0
 25
10.0
 16
0.0
 26
0.0
 36
1.0
 17
0.0
 27
0.0
 37
0.0
 40
297.0
 41
1.92798353909465
 42
50.0
 43
0.0
 44
0.0
 50
0.0
 51
0.0
 71
0
 72
100
 73
1
 74
3
 75
1
 76
1
 77
0
 78
0
281
0
 65
1
110
0.0
120
0.0
130
0.0
111
1.0
121
0.0
131
0.0
112
0.0
122
1.0
132
0.0
 79
0
146
0.0
  0
ENDTAB
  0
TABLE
  2
LTYPE
  5
5
100
AcDbSymbolTable
 70
21
  0
LTYPE
  5
16
100
AcDbSymbolTableRecord
100
AcDbLinetypeTableRecord
  2
CONTINUOUS
 70
0
  3
Solid line
 72
65
 73
0
 40
0.0
  0
LTYPE
  5
31
100
AcDbSymbolTableRecord
100
AcDbLinetypeTableRecord
  2
CENTER2
 70
0
  3
Center (.5x) ___ _ ___ _ ___ _ ___ _ ___ _ ___
 72
65
 73
4
 40
28.5749999999999993
 49
19.0500000000000007
 74
0
 49
-3.1749999999999998
 74
0
 49
3.1749999999999998
 74
0
 49
-3.1749999999999998
 74
0
  0
LTYPE
  5
32
100
AcDbSymbolTableRecord
100
AcDbLinetypeTableRecord
  2
DIVIDEX2
 70
0
  3
Divide (2x) ________  .  .  ________  .  .  _
 72
65
 73
6
 40
63.5
 49
25.3999999999999986
 74
0
 49
-12.6999999999999993
 74
0
 49
0.0
 74
0
 49
-12.6999999999999993
 74
0
 49
0.0
 74
0
 49
-12.6999999999999993
 74
0
  0
LTYPE
  5
33
100
AcDbSymbolTableRecord
100
AcDbLinetypeTableRecord
  2
DOT2
 70
0
  3
Dot (.5x) .....................................
 72
65
 73
2
 40
3.1749999999999998
 49
0.0
 74
0
 49
-3.1749999999999998
 74
0
  0
LTYPE
  5
34
100
AcDbSymbolTableRecord
100
AcDbLinetypeTableRecord
  2
DASHDOT2
 70
0
  3
Dash dot (.5x) _._._._._._._._._._._._._._._.
 72
65
 73
4
 40
12.6999999999999993
 49
6.3499999999999996
 74
0
 49
-3.1749999999999998
 74
0
 49
0.0
 74
0
 49
-3.1749999999999998
 74
0
  0
LTYPE
  5
35
100
AcDbSymbolTableRecord
100
AcDbLinetypeTableRecord
  2
DIVIDE
 70
0
  3
Divide ____ . . ____ . . ____ . . ____ . . ____
 72
65
 73
6
 40
31.75
 49
12.6999999999999993
 74
0
 49
-6.3499999999999996
 74
0
 49
0.0
 74
0
 49
-6.3499999999999996
 74
0
 49
0.0
 74
0
 49
-6.3499999999999996
 74
0
  0
LTYPE
  5
36
100
AcDbSymbolTableRecord
100
AcDbLinetypeTableRecord
  2
DASHDOT
 70
0
  3
Dash dot __ . __ . __ . __ . __ . __ . __ . __
 72
65
 73
4
 40
25.3999999999999986
 49
12.6999999999999993
 74
0
 49
-6.3499999999999996
 74
0
 49
0.0
 74
0
 49
-6.3499999999999996
 74
0
  0
LTYPE
  5
37
100
AcDbSymbolTableRecord
100
AcDbLinetypeTableRecord
  2
BORDER
 70
0
  3
Border __ __ . __ __ . __ __ . __ __ . __ __ .
 72
65
 73
6
 40
44.4500000000000028
 49
12.6999999999999993
 74
0
 49
-6.3499999999999996
 74
0
 49
12.6999999999999993
 74
0
 49
-6.3499999999999996
 74
0
 49
0.0
 74
0
 49
-6.3499999999999996
 74
0
  0
LTYPE
  5
38
100
AcDbSymbolTableRecord
100
AcDbLinetypeTableRecord
  2
DASHDOTX2
 70
0
  3
Dash dot (2x) ____  .  ____  .  ____  .  ___
 72
65
 73
4
 40
50.7999999999999972
 49
25.3999999999999986
 74
0
 49
-12.6999999999999993
 74
0
 49
0.0
 74
0
 49
-12.6999999999999993
 74
0
  0
LTYPE
  5
39
100
AcDbSymbolTableRecord
100
AcDbLinetypeTableRecord
  2
CENTERX2
 70
0
  3
Center (2x) ________  __  ________  __  _____
 72
65
 73
4
 40
101.5999999999999943
 49
63.5
 74
0
 49
-12.6999999999999993
 74
0
 49
12.6999999999999993
 74
0
 49
-12.6999999999999993
 74
0
  0
LTYPE
  5
3A
100
AcDbSymbolTableRecord
100
AcDbLinetypeTableRecord
  2
BORDER2
 70
0
  3
Border (.5x) __.__.__.__.__.__.__.__.__.__.__.
 72
65
 73
6
 40
22.2250000000000014
 49
6.3499999999999996
 74
0
 49
-3.1749999999999998
 74
0
 49
6.3499999999999996
 74
0
 49
-3.1749999999999998
 74
0
 49
0.0
 74
0
 49
-3.1749999999999998
 74
0
  0
LTYPE
  5
3B
100
AcDbSymbolTableRecord
100
AcDbLinetypeTableRecord
  2
BORDERX2
 70
0
  3
Border (2x) ____  ____  .  ____  ____  .  ___
 72
65
 73
6
 40
88.9000000000000057
 49
25.3999999999999986
 74
0
 49
-12.6999999999999993
 74
0
 49
25.3999999999999986
 74
0
 49
-12.6999999999999993
 74
0
 49
0.0
 74
0
 49
-12.6999999999999993
 74
0
  0
LTYPE
  5
14
100
AcDbSymbolTableRecord
100
AcDbLinetypeTableRecord
  2
BYBLOCK
 70
0
  3

 72
65
 73
0
 40
0.0
  0
LTYPE
  5
15
100
AcDbSymbolTableRecord
100
AcDbLinetypeTableRecord
  2
BYLAYER
 70
0
  3

 72
65
 73
0
 40
0.0
  0
LTYPE
  5
3C
100
AcDbSymbolTableRecord
100
AcDbLinetypeTableRecord
  2
DASHED2
 70
0
  3
Dashed (.5x) _ _ _ _ _ _ _ _ _ _ _ _ _ _ _ _ _
 72
65
 73
2
 40
9.5250000000000004
 49
6.3499999999999996
 74
0
 49
-3.1749999999999998
 74
0
  0
LTYPE
  5
3D
100
AcDbSymbolTableRecord
100
AcDbLinetypeTableRecord
  2
CENTER
 70
0
  3
Center ____ _ ____ _ ____ _ ____ _ ____ _ ____
 72
65
 73
4
 40
50.7999999999999972
 49
31.75
 74
0
 49
-6.3499999999999996
 74
0
 49
6.3499999999999996
 74
0
 49
-6.3499999999999996
 74
0
  0
LTYPE
  5
3E
100
AcDbSymbolTableRecord
100
AcDbLinetypeTableRecord
  2
DIVIDE2
 70
0
  3
Divide (.5x) __..__..__..__..__..__..__..__.._
 72
65
 73
6
 40
15.875
 49
6.3499999999999996
 74
0
 49
-3.1749999999999998
 74
0
 49
0.0
 74
0
 49
-3.1749999999999998
 74
0
 49
0.0
 74
0
 49
-3.1749999999999998
 74
0
  0
LTYPE
  5
3F
100
AcDbSymbolTableRecord
100
AcDbLinetypeTableRecord
  2
DASHED
 70
0
  3
Dashed __ __ __ __ __ __ __ __ __ __ __ __ __ _
 72
65
 73
2
 40
19.0500000000000007
 49
12.6999999999999993
 74
0
 49
-6.3499999999999996
 74
0
  0
LTYPE
  5
40
100
AcDbSymbolTableRecord
100
AcDbLinetypeTableRecord
  2
DOTX2
 70
0
  3
Dot (2x) .  .  .  .  .  .  .  .  .  .  .  .  .
 72
65
 73
2
 40
12.6999999999999993
 49
0.0
 74
0
 49
-12.6999999999999993
 74
0
  0
LTYPE
  5
41
100
AcDbSymbolTableRecord
100
AcDbLinetypeTableRecord
  2
DASHEDX2
 70
0
  3
Dashed (2x) ____  ____  ____  ____  ____  ___
 72
65
 73
2
 40
38.1000000000000014
 49
25.3999999999999986
 74
0
 49
-12.6999999999999993
 74
0
  0
LTYPE
  5
42
100
AcDbSymbolTableRecord
100
AcDbLinetypeTableRecord
  2
DOT
 70
0
  3
Dot . . . . . . . . . . . . . . . . . . . . . .
 72
65
 73
2
 40
6.3499999999999996
 49
0.0
 74
0
 49
-6.3499999999999996
 74
0
  0
ENDTAB
  0
TABLE
  2
LAYER
  5
2
100
AcDbSymbolTable
 70
1
  0
LAYER
  5
10
100
AcDbSymbolTableRecord
100
AcDbLayerTableRecord
  2
0
 70
0
 62
7
420
0
  6
CONTINUOUS
370
25
390
F
  0
ENDTAB
  0
TABLE
  2
STYLE
  5
3
100
AcDbSymbolTable
 70
1
  0
STYLE
  5
43
100
AcDbSymbolTableRecord
100
AcDbTextStyleTableRecord
  2
Standard
 70
0
 40
0.0
 41
1.0
 50
0.0
 71
0
 42
2.5
  3

  4

1001
ACAD
1000
txt
1071
0
  0
ENDTAB
  0
TABLE
  2
VIEW
  5
6
100
AcDbSymbolTable
 70
0
  0
ENDTAB
  0
TABLE
  2
UCS
  5
7
100
AcDbSymbolTable
 70
0
  0
ENDTAB
  0
TABLE
  2
APPID
  5
9
100
AcDbSymbolTable
 70
1
  0
APPID
  5
12
100
AcDbSymbolTableRecord
100
AcDbRegAppTableRecord
  2
ACAD
 70
0
  0
APPID
  5
44
100
AcDbSymbolTableRecord
100
AcDbRegAppTableRecord
  2
QCAD
 70
0
  0
ENDTAB
  0
TABLE
  2
DIMSTYLE
  5
A
100
AcDbSymbolTable
 70
1
100
AcDbDimStyleTable
 71
0
  0
DIMSTYLE
105
27
100
AcDbSymbolTableRecord
100
AcDbDimStyleTableRecord
  2
Standard
 41
2.5
 42
0.625
 43
3.75
 44
1.25
 70
0
 73
0
 74
0
 77
1
 78
8
140
2.5
141
2.5
143
0.03937007874016
147
0.625
171
3
172
1
271
2
272
2
274
3
278
44
283
0
284
8
340
43
  0
ENDTAB
  0
TABLE
  2
BLOCK_RECORD
  5
1
100
AcDbSymbolTable
 70
1
  0
BLOCK_RECORD
  5
1F
100
AcDbSymbolTableRecord
100
AcDbBlockTableRecord
  2
*Model_Space
340
22
  0
BLOCK_RECORD
  5
1B
100
AcDbSymbolTableRecord
100
AcDbBlockTableRecord
  2
*Paper_Space
340
1E
  0
BLOCK_RECORD
  5
23
100
AcDbSymbolTableRecord
100
AcDbBlockTableRecord
  2
*Paper_Space0
340
26
  0
BLOCK_RECORD
  5
45
100
AcDbSymbolTableRecord
100
AcDbBlockTableRecord
  2
femur_horizontal
340
0
  0
BLOCK_RECORD
  5
46
100
AcDbSymbolTableRecord
100
AcDbBlockTableRecord
  2
body_bottom
340
0
  0
BLOCK_RECORD
  5
47
100
AcDbSymbolTableRecord
100
AcDbBlockTableRecord
  2
servo_top
340
0
  0
BLOCK_RECORD
  5
48
100
AcDbSymbolTableRecord
100
AcDbBlockTableRecord
  2
body_top
340
0
  0
BLOCK_RECORD
  5
49
100
AcDbSymbolTableRecord
100
AcDbBlockTableRecord
  2
femur_tibia
340
0
  0
BLOCK_RECORD
  5
4A
100
AcDbSymbolTableRecord
100
AcDbBlockTableRecord
  2
femur_vertical
340
0
  0
BLOCK_RECORD
  5
4B
100
AcDbSymbolTableRecord
100
AcDbBlockTableRecord
  2
body_middle
340
0
  0
BLOCK_RECORD
  5
4C
100
AcDbSymbolTableRecord
100
AcDbBlockTableRecord
  2
femur_crossbrace
340
0
  0
BLOCK_RECORD
  5
4D
100
AcDbSymbolTableRecord
100
AcDbBlockTableRecord
  2
battery_holder
340
0
  0
BLOCK_RECORD
  5
4E
100
AcDbSymbolTableRecord
100
AcDbBlockTableRecord
  2
control_pcb
340
0
  0
BLOCK_RECORD
  5
4F
100
AcDbSymbolTableRecord
100
AcDbBlockTableRecord
  2
servo_mount
340
0
  0
BLOCK_RECORD
  5
50
100
AcDbSymbolTableRecord
100
AcDbBlockTableRecord
  2
tibia
340
0
  0
ENDTAB
  0
ENDSEC
  0
SECTION
  2
BLOCKS
  0
BLOCK
  5
20
100
AcDbEntity
  8
0
100
AcDbBlockBegin
  2
*Model_Space
 70
0
 10
0.0
 20
0.0
 30
0.0
  3
*Model_Space
  1

  0
ENDBLK
  5
21
100
AcDbEntity
  8
0
100
AcDbBlockEnd
  0
BLOCK
  5
1C
100
AcDbEntity
 67
1
  8
0
100
AcDbBlockBegin
  2
*Paper_Space
 70
0
 10
0.0
 20
0.0
 30
0.0
  3
*Paper_Space
  1

  0
ENDBLK
  5
1D
100
AcDbEntity
 67
1
  8
0
100
AcDbBlockEnd
  0
BLOCK
  5
24
100
AcDbEntity
  8
0
100
AcDbBlockBegin
  2
*Paper_Space0
 70
0
 10
0.0
 20
0.0
 30
0.0
  3
*Paper_Space0
  1

  0
ENDBLK
  5
25
100
AcDbEntity
  8
0
100
AcDbBlockEnd
  0
BLOCK
  5
51
100
AcDbEntity
  8
0
100
AcDbBlockBegin
  2
femur_horizontal
 70
0
 10
0.0
 20
0.0
 30
0.0
  3
femur_horizontal
  1

  0
LINE
  5
52
100
AcDbEntity
100
AcDbLine
  8
0
 62
256
370
-1
  6
BYLAYER
 10
-0.9999999999999973
 20
-7.5
 30
0.0
 11
9.0
 21
-7.5
 31
0.0
  0
LINE
  5
53
100
AcDbEntity
100
AcDbLine
  8
0
 62
256
370
-1
  6
BYLAYER
 10
8.9999999999999982
 20
7.5
 30
0.0
 11
-15.0
 21
7.5
 31
0.0
  0
LINE
  5
54
100
AcDbEntity
100
AcDbLine
  8
0
 62
256
370
-1
  6
BYLAYER
 10
-20.0
 20
2.5
 30
0.0
 11
-20.0
 21
-2.5
 31
0.0
  0
LINE
  5
55
100
AcDbEntity
100
AcDbLine
  8
0
 62
256
370
-1
  6
BYLAYER
 10
0.0
 20
-3.1749999999999972
 30
0.0
 11
10.0
 21
-3.1749999999999972
 31
0.0
  0
LINE
  5
56
100
AcDbEntity
100
AcDbLine
  8
0
 62
256
370
-1
  6
BYLAYER
 10
10.0
 20
3.1750000000000007
 30
0.0
 11
0.0
 21
3.1750000000000007
 31
0.0
  0
LINE
  5
57
100
AcDbEntity
100
AcDbLine
  8
0
 62
256
370
-1
  6
BYLAYER
 10
0.0
 20
3.1750000000000007
 30
0.0
 11
0.0
 21
-3.1749999999999972
 31
0.0
  0
LINE
  5
58
100
AcDbEntity
100
AcDbLine
  8
0
 62
256
370
-1
  6
BYLAYER
 10
10.0
 20
3.1750000000000007
 30
0.0
 11
10.0
 21
6.5
 31
0.0
  0
LINE
  5
59
100
AcDbEntity
100
AcDbLine
  8
0
 62
256
370
-1
  6
BYLAYER
 10
10.0
 20
-3.1749999999999972
 30
0.0
 11
10.0
 21
-6.5
 31
0.0
  0
ARC
  5
5A
100
AcDbEntity
  8
0
 62
256
370
-1
  6
BYLAYER
100
AcDbCircle
 10
-15.0
 20
2.5
 30
0.0
 40
5.0
100
AcDbArc
 50
90.0
 51
180.0
  0
DIMENSION
  5
5B
100
AcDbEntity
  8
0
 62
256
370
-1
  6
BYLAYER
100
AcDbDimension
 10
-2.2479647218453138
 20
3.1750000000000012
 30
0.0
 11
-6.0
 21
0.0
 31
0.0
 70
129
 71
8
 72
2
 41
1.0
 42
0.0
  1
1/4"
  3
Standard
100
AcDbAlignedDimension
 13
0.0
 23
3.1750000000000007
 33
0.0
 14
-0.0
 24
-3.1749999999999972
 34
0.0
1001
ACAD
1000
DSTYLE
1002
{
1070
144
1040
1
1002
}
  0
CIRCLE
  5
5C
100
AcDbEntity
100
AcDbCircle
  8
0
 62
256
370
-1
  6
BYLAYER
 10
-14.9999999999999982
 20
0.0
 30
0.0
 40
1.5
  0
DIMENSION
  5
5D
100
AcDbEntity
  8
0
 62
256
370
-1
  6
BYLAYER
100
AcDbDimension
 10
-16.5
 20
2.7227438353965319
 30
0.0
 11
-11.5564636461351959
 21
4.9574792492364228
 31
0.0
 70
129
 71
8
 72
2
 41
1.0
 42
0.0
  1
9/64"
  3
Standard
100
AcDbAlignedDimension
 13
-16.5
 23
0.0
 33
0.0
 14
-13.4999999999999982
 24
0.0
 34
0.0
1001
ACAD
1000
DSTYLE
1002
{
1070
144
1040
1
1002
}
  0
ARC
  5
5E
100
AcDbEntity
  8
0
 62
256
370
-1
  6
BYLAYER
100
AcDbCircle
 10
-15.0
 20
-2.5
 30
0.0
 40
5.0
100
AcDbArc
 50
180.0
 51
240.0
  0
ARC
  5
5F
100
AcDbEntity
  8
0
 62
256
370
-1
  6
BYLAYER
100
AcDbCircle
 10
-0.9999999999999973
 20
-12.5
 30
0.0
 40
5.0
100
AcDbArc
 50
90.0
 51
180.0
  0
ARC
  5
60
100
AcDbEntity
  8
0
 62
256
370
-1
  6
BYLAYER
100
AcDbCircle
 10
-10.9999999999999982
 20
-12.4999999999999982
 30
0.0
 40
5.0
100
AcDbArc
 50
180.0
 51
360.0
  0
LINE
  5
61
100
AcDbEntity
100
AcDbLine
  8
0
 62
256
370
-1
  6
BYLAYER
 10
-15.9999999999999982
 20
-12.4999999999999982
 30
0.0
 11
-15.9999999999999982
 21
-9.428203230275507
 31
0.0
  0
ARC
  5
62
100
AcDbEntity
  8
0
 62
256
370
-1
  6
BYLAYER
100
AcDbCircle
 10
-19.0
 20
-9.428203230275507
 30
0.0
 40
3.0
100
AcDbArc
 50
0.0
 51
59.9999999999999858
  0
CIRCLE
  5
63
100
AcDbEntity
100
AcDbCircle
  8
0
 62
256
370
-1
  6
BYLAYER
 10
-10.9999999999999982
 20
-12.4999999999999982
 30
0.0
 40
0.5
  0
ARC
  5
64
100
AcDbEntity
  8
0
 62
256
370
-1
  6
BYLAYER
100
AcDbCircle
 10
8.9999999999999982
 20
6.5
 30
0.0
 40
1.0
100
AcDbArc
 50
0.0
 51
90.0
  0
ARC
  5
65
100
AcDbEntity
  8
0
 62
256
370
-1
  6
BYLAYER
100
AcDbCircle
 10
9.0
 20
-6.5
 30
0.0
 40
1.0
100
AcDbArc
 50
270.0
 51
0.0
  0
DIMENSION
  5
66
100
AcDbEntity
  8
0
 62
256
370
-1
  6
BYLAYER
100
AcDbDimension
 10
-11.4999999999999982
 20
-10.0
 30
0.0
 11
-10.451917202944216
 21
-6.3689740114361211
 31
0.0
 70
129
 71
8
 72
2
 41
1.0
 42
0.0
  1
3/64"
  3
Standard
100
AcDbAlignedDimension
 13
-11.4999999999999982
 23
-12.4999999999999982
 33
0.0
 14
-10.4999999999999982
 24
-12.4999999999999982
 34
0.0
1001
ACAD
1000
DSTYLE
1002
{
1070
144
1040
1
1002
}
  0
ENDBLK
  5
67
100
AcDbEntity
  8
0
100
AcDbBlockEnd
  0
BLOCK
  5
68
100
AcDbEntity
  8
0
100
AcDbBlockBegin
  2
body_bottom
 70
0
 10
0.0
 20
0.0
 30
0.0
  3
body_bottom
  1

  0
INSERT
  5
69
100
AcDbEntity
100
AcDbBlockReference
  8
0
 62
256
370
-1
  6
BYLAYER
  2
battery_holder
 10
0.0
 20
0.0
 30
0.0
 50
30.0
  0
LINE
  5
6A
100
AcDbEntity
100
AcDbLine
  8
0
 62
256
370
-1
  6
BYLAYER
 10
26.443375672974053
 20
40.8012701892218885
 30
0.0
 11
48.556624327025915
 21
2.499999999999952
 31
0.0
  0
LINE
  5
6B
100
AcDbEntity
100
AcDbLine
  8
0
 62
256
370
-1
  6
BYLAYER
 10
-22.1132486540518336
 20
43.3012701892219454
 30
0.0
 11
22.1132486540518407
 21
43.3012701892219027
 31
0.0
  0
LINE
  5
6C
100
AcDbEntity
100
AcDbLine
  8
0
 62
256
370
-1
  6
BYLAYER
 10
48.5566243270259221
 20
-2.5000000000000626
 30
0.0
 11
26.4433756729740495
 21
-40.8012701892219667
 31
0.0
  0
LINE
  5
6D
100
AcDbEntity
100
AcDbLine
  8
0
 62
256
370
-1
  6
BYLAYER
 10
-48.5566243270259648
 20
-2.4999999999999818
 30
0.0
 11
-26.4433756729741596
 21
-40.8012701892219383
 31
0.0
  0
LINE
  5
6E
100
AcDbEntity
100
AcDbLine
  8
0
 62
256
370
-1
  6
BYLAYER
 10
-26.4433756729740388
 20
40.8012701892219809
 30
0.0
 11
-48.5566243270259577
 21
2.5000000000000155
 31
0.0
  0
LINE
  5
6F
100
AcDbEntity
100
AcDbLine
  8
0
 62
256
370
-1
  6
BYLAYER
 10
-22.1132486540519437
 20
-43.3012701892219525
 30
0.0
 11
22.113248654051894
 21
-43.3012701892219809
 31
0.0
  0
CIRCLE
  5
70
100
AcDbEntity
100
AcDbCircle
  8
0
 62
256
370
-1
  6
BYLAYER
 10
-44.9999999999999858
 20
0.0000000000000854
 30
0.0
 40
1.0
  0
CIRCLE
  5
71
100
AcDbEntity
100
AcDbCircle
  8
0
 62
256
370
-1
  6
BYLAYER
 10
-22.5000000000000924
 20
-38.9711431702996904
 30
0.0
 40
1.0
  0
CIRCLE
  5
72
100
AcDbEntity
100
AcDbCircle
  8
0
 62
256
370
-1
  6
BYLAYER
 10
22.4999999999999112
 20
-38.9711431702998183
 30
0.0
 40
1.0
  0
CIRCLE
  5
73
100
AcDbEntity
100
AcDbCircle
  8
0
 62
256
370
-1
  6
BYLAYER
 10
44.9999999999999929
 20
-0.000000000000091
 30
0.0
 40
1.0
  0
CIRCLE
  5
74
100
AcDbEntity
100
AcDbCircle
  8
0
 62
256
370
-1
  6
BYLAYER
 10
22.5000000000001243
 20
38.9711431702996549
 30
0.0
 40
1.0
  0
CIRCLE
  5
75
100
AcDbEntity
100
AcDbCircle
  8
0
 62
256
370
-1
  6
BYLAYER
 10
-22.499999999999897
 20
38.9711431702997828
 30
0.0
 40
1.0
  0
LINE
  5
76
100
AcDbEntity
100
AcDbLine
  8
0
 62
256
370
-1
  6
BYLAYER
 10
-7.3205080756887693
 20
-27.3205080756887746
 30
0.0
 11
6.0398863652667369
 21
-19.6068807487235333
 31
0.0
  0
LINE
  5
77
100
AcDbEntity
100
AcDbLine
  8
0
 62
256
370
-1
  6
BYLAYER
 10
29.1506350946109833
 20
-0.490381056766602
 30
0.0
 11
14.1506350946109603
 21
25.4903810567665907
 31
0.0
  0
LINE
  5
78
100
AcDbEntity
100
AcDbLine
  8
0
 62
256
370
-1
  6
BYLAYER
 10
7.3205080756887728
 20
27.3205080756887746
 30
0.0
 11
-6.0398863652668222
 21
19.6068807487234835
 31
0.0
  0
LINE
  5
79
100
AcDbEntity
100
AcDbLine
  8
0
 62
256
370
-1
  6
BYLAYER
 10
-29.1506350946109656
 20
0.4903810567665851
 30
0.0
 11
-14.1506350946109656
 21
-25.4903810567665801
 31
0.0
  0
ARC
  5
7A
100
AcDbEntity
  8
0
 62
256
370
-1
  6
BYLAYER
100
AcDbCircle
 10
-24.820508075688771
 20
2.9903810567665836
 30
0.0
 40
5.0
100
AcDbArc
 50
120.0
 51
209.9999999999999716
  0
ARC
  5
7B
100
AcDbEntity
  8
0
 62
256
370
-1
  6
BYLAYER
100
AcDbCircle
 10
9.8205080756887675
 20
22.9903810567665943
 30
0.0
 40
5.0
100
AcDbArc
 50
30.0
 51
120.0
  0
ARC
  5
7C
100
AcDbEntity
  8
0
 62
256
370
-1
  6
BYLAYER
100
AcDbCircle
 10
24.8205080756887888
 20
-2.9903810567666
 30
0.0
 40
5.0
100
AcDbArc
 50
300.0
 51
30.0
  0
ARC
  5
7D
100
AcDbEntity
  8
0
 62
256
370
-1
  6
BYLAYER
100
AcDbCircle
 10
-9.820508075688771
 20
-22.9903810567665801
 30
0.0
 40
5.0
100
AcDbArc
 50
209.9999999999999716
 51
300.0
  0
ARC
  5
7E
100
AcDbEntity
  8
0
 62
256
370
-1
  6
BYLAYER
100
AcDbCircle
 10
-22.1132486540518514
 20
38.3012701892219667
 30
0.0
 40
5.0
100
AcDbArc
 50
89.9999999999998721
 51
149.9999999999999716
  0
ARC
  5
7F
100
AcDbEntity
  8
0
 62
256
370
-1
  6
BYLAYER
100
AcDbCircle
 10
22.1132486540518443
 20
38.3012701892218743
 30
0.0
 40
5.0
100
AcDbArc
 50
30.0
 51
89.9999999999999716
  0
ARC
  5
80
100
AcDbEntity
  8
0
 62
256
370
-1
  6
BYLAYER
100
AcDbCircle
 10
44.2264973081037169
 20
-0.0000000000000501
 30
0.0
 40
5.0
100
AcDbArc
 50
329.9999999999998295
 51
30.0
  0
ARC
  5
81
100
AcDbEntity
  8
0
 62
256
370
-1
  6
BYLAYER
100
AcDbCircle
 10
22.1132486540518549
 20
-38.3012701892219738
 30
0.0
 40
5.0
100
AcDbArc
 50
270.0000000000001705
 51
330.0000000000000568
  0
ARC
  5
82
100
AcDbEntity
  8
0
 62
256
370
-1
  6
BYLAYER
100
AcDbCircle
 10
-22.1132486540519544
 20
-38.3012701892219525
 30
0.0
 40
5.0
100
AcDbArc
 50
209.9999999999999716
 51
269.9999999999999432
  0
ARC
  5
83
100
AcDbEntity
  8
0
 62
256
370
-1
  6
BYLAYER
100
AcDbCircle
 10
-44.2264973081037667
 20
0.0000000000000054
 30
0.0
 40
5.0
100
AcDbArc
 50
149.9999999999999716
 51
209.9999999999999716
  0
LINE
  5
84
100
AcDbEntity
100
AcDbLine
  8
0
 62
256
370
-1
  6
BYLAYER
 10
-30.8882394016450021
 20
-6.49999999999996
 30
0.0
 11
-21.0732848254213572
 21
-23.4999999999999751
 31
0.0
  0
LINE
  5
85
100
AcDbEntity
100
AcDbLine
  8
0
 62
256
370
-1
  6
BYLAYER
 10
-38.7416697508023375
 20
-9.499999999999968
 30
0.0
 11
-27.5980762113533764
 21
-28.8012701892219951
 31
0.0
  0
LINE
  5
86
100
AcDbEntity
100
AcDbLine
  8
0
 62
256
370
-1
  6
BYLAYER
 10
-36.14359353944905
 20
-4.9999999999999725
 30
0.0
 11
-33.4863156129983111
 21
-4.9999999999999627
 31
0.0
  0
LINE
  5
87
100
AcDbEntity
100
AcDbLine
  8
0
 62
256
370
-1
  6
BYLAYER
 10
-22.4019237886467479
 20
-28.8012701892219845
 30
0.0
 11
-21.0732848254213252
 21
-26.4999999999999645
 31
0.0
  0
ARC
  5
88
100
AcDbEntity
  8
0
 62
256
370
-1
  6
BYLAYER
100
AcDbCircle
 10
-25.0000000000000462
 20
-27.3012701892220129
 30
0.0
 40
3.0
100
AcDbArc
 50
209.9999999999999716
 51
330.0000000000002274
  0
ARC
  5
89
100
AcDbEntity
  8
0
 62
256
370
-1
  6
BYLAYER
100
AcDbCircle
 10
-23.6713610367746732
 20
-24.9999999999999396
 30
0.0
 40
3.0
100
AcDbArc
 50
330.0
 51
30.0
  0
ARC
  5
8A
100
AcDbEntity
  8
0
 62
256
370
-1
  6
BYLAYER
100
AcDbCircle
 10
-33.4863156129983182
 20
-7.9999999999999449
 30
0.0
 40
3.0
100
AcDbArc
 50
30.0
 51
89.9999999999998721
  0
ARC
  5
8B
100
AcDbEntity
  8
0
 62
256
370
-1
  6
BYLAYER
100
AcDbCircle
 10
-36.14359353944905
 20
-7.9999999999999742
 30
0.0
 40
3.0
100
AcDbArc
 50
90.0
 51
209.9999999999999716
  0
LINE
  5
8C
100
AcDbEntity
100
AcDbLine
  8
0
 62
256
370
-1
  6
BYLAYER
 10
21.0732848254214602
 20
23.4999999999999964
 30
0.0
 11
30.8882394016450377
 21
6.4999999999999192
 31
0.0
  0
LINE
  5
8D
100
AcDbEntity
100
AcDbLine
  8
0
 62
256
370
-1
  6
BYLAYER
 10
27.5980762113534546
 20
28.8012701892219063
 30
0.0
 11
38.7416697508024868
 21
9.4999999999998526
 31
0.0
  0
LINE
  5
8E
100
AcDbEntity
100
AcDbLine
  8
0
 62
256
370
-1
  6
BYLAYER
 10
22.4019237886468616
 20
28.8012701892219525
 30
0.0
 11
21.0732848254214886
 21
26.5
 31
0.0
  0
LINE
  5
8F
100
AcDbEntity
100
AcDbLine
  8
0
 62
256
370
-1
  6
BYLAYER
 10
36.143593539449121
 20
4.9999999999999103
 30
0.0
 11
33.4863156129983324
 21
4.9999999999999609
 31
0.0
  0
ARC
  5
90
100
AcDbEntity
  8
0
 62
256
370
-1
  6
BYLAYER
100
AcDbCircle
 10
36.1435935394491494
 20
7.9999999999999076
 30
0.0
 40
3.0
100
AcDbArc
 50
269.9999999999995453
 51
30.0
  0
ARC
  5
91
100
AcDbEntity
  8
0
 62
256
370
-1
  6
BYLAYER
100
AcDbCircle
 10
33.4863156129983537
 20
7.9999999999999627
 30
0.0
 40
3.0
100
AcDbArc
 50
209.9999999999999716
 51
269.9999999999998295
  0
ARC
  5
92
100
AcDbEntity
  8
0
 62
256
370
-1
  6
BYLAYER
100
AcDbCircle
 10
23.6713610367747762
 20
24.9999999999999609
 30
0.0
 40
3.0
100
AcDbArc
 50
149.9999999999998295
 51
209.9999999999999716
  0
ARC
  5
93
100
AcDbEntity
  8
0
 62
256
370
-1
  6
BYLAYER
100
AcDbCircle
 10
25.0000000000001741
 20
27.3012701892219809
 30
0.0
 40
3.0
100
AcDbArc
 50
30.0
 51
149.9999999999997158
  0
ARC
  5
94
100
AcDbEntity
  8
0
 62
256
370
-1
  6
BYLAYER
100
AcDbCircle
 10
9.7515560756455777
 20
-32.301270189221988
 30
0.0
 40
3.0
100
AcDbArc
 50
270.0
 51
14.4063736581757453
  0
ARC
  5
95
100
AcDbEntity
  8
0
 62
256
370
-1
  6
BYLAYER
100
AcDbCircle
 10
23.0979425205483793
 20
-24.5957303825485312
 30
0.0
 40
3.0
100
AcDbArc
 50
225.593626341824546
 51
330.0
  0
ARC
  5
96
100
AcDbEntity
  8
0
 62
256
370
-1
  6
BYLAYER
100
AcDbCircle
 10
7.8538849604774565
 20
-25.4877714017445278
 30
0.0
 40
3.0
100
AcDbArc
 50
61.9089827353176076
 51
120.0
  0
ARC
  5
97
100
AcDbEntity
  8
0
 62
256
370
-1
  6
BYLAYER
100
AcDbCircle
 10
18.1461150395225062
 20
-19.5455495950463032
 30
0.0
 40
3.0
100
AcDbArc
 50
120.0
 51
178.0910172646822787
  0
ARC
  5
98
100
AcDbEntity
  8
0
 62
256
370
-1
  6
BYLAYER
100
AcDbCircle
 10
-11.4115427318801856
 20
-34.3012701892219738
 30
0.0
 40
1.0
100
AcDbArc
 50
120.0
 51
269.9999999999997726
  0
ARC
  5
99
100
AcDbEntity
  8
0
 62
256
370
-1
  6
BYLAYER
100
AcDbCircle
 10
35.4115427318801679
 20
-7.2679491924310646
 30
0.0
 40
1.0
100
AcDbArc
 50
329.9999999999997726
 51
120.0
  0
LINE
  5
9A
100
AcDbEntity
100
AcDbLine
  8
0
 62
256
370
-1
  6
BYLAYER
 10
-11.4115427318801714
 20
-35.3012701892219809
 30
0.0
 11
9.7515560756455919
 21
-35.3012701892219809
 31
0.0
  0
LINE
  5
9B
100
AcDbEntity
100
AcDbLine
  8
0
 62
256
370
-1
  6
BYLAYER
 10
36.2775681356645876
 20
-7.7679491924310753
 30
0.0
 11
25.6960187319017059
 21
-26.0957303825485205
 31
0.0
  0
LINE
  5
9C
100
AcDbEntity
100
AcDbLine
  8
0
 62
256
370
-1
  6
BYLAYER
 10
-11.9115427318801643
 20
-33.4352447854375399
 30
0.0
 11
6.3538849604774601
 21
-22.8896951903912118
 31
0.0
  0
ARC
  5
9D
100
AcDbEntity
  8
0
 62
256
370
-1
  6
BYLAYER
100
AcDbCircle
 10
11.1499999999999648
 20
-19.3123665043929975
 30
0.0
 40
4.0
100
AcDbArc
 50
241.9089827353177498
 51
358.0910172646824776
  0
LINE
  5
9E
100
AcDbEntity
100
AcDbLine
  8
0
 62
256
370
-1
  6
BYLAYER
 10
16.6461150395225062
 20
-16.9474733836929872
 30
0.0
 11
34.9115427318801679
 21
-6.4019237886466165
 31
0.0
  0
ARC
  5
9F
100
AcDbEntity
  8
0
 62
256
370
-1
  6
BYLAYER
100
AcDbCircle
 10
17.4999999999999929
 20
-30.3108891324553369
 30
0.0
 40
5.0
100
AcDbArc
 50
45.5936263418245531
 51
194.4063736581758235
  0
ARC
  5
A0
100
AcDbEntity
  8
0
 62
256
370
-1
  6
BYLAYER
100
AcDbCircle
 10
-17.4999999999999645
 20
30.3108891324553404
 30
0.0
 40
5.0
100
AcDbArc
 50
225.5936263418241765
 51
14.4063736581754398
  0
ARC
  5
A1
100
AcDbEntity
  8
0
 62
256
370
-1
  6
BYLAYER
100
AcDbCircle
 10
-23.0979425205484254
 20
24.5957303825485738
 30
0.0
 40
3.0
100
AcDbArc
 50
45.5936263418242405
 51
150.0000000000000568
  0
ARC
  5
A2
100
AcDbEntity
  8
0
 62
256
370
-1
  6
BYLAYER
100
AcDbCircle
 10
-9.7515560756455759
 20
32.3012701892219667
 30
0.0
 40
3.0
100
AcDbArc
 50
90.0000000000000142
 51
194.4063736581755393
  0
ARC
  5
A3
100
AcDbEntity
  8
0
 62
256
370
-1
  6
BYLAYER
100
AcDbCircle
 10
-18.1461150395225275
 20
19.5455495950463067
 30
0.0
 40
3.0
100
AcDbArc
 50
300.0
 51
358.0910172646823071
  0
ARC
  5
A4
100
AcDbEntity
  8
0
 62
256
370
-1
  6
BYLAYER
100
AcDbCircle
 10
-7.853884960477469
 20
25.4877714017445172
 30
0.0
 40
3.0
100
AcDbArc
 50
241.9089827353176645
 51
300.0
  0
ARC
  5
A5
100
AcDbEntity
  8
0
 62
256
370
-1
  6
BYLAYER
100
AcDbCircle
 10
-35.4115427318801679
 20
7.267949192431109
 30
0.0
 40
1.0
100
AcDbArc
 50
150.0000000000002558
 51
300.0
  0
ARC
  5
A6
100
AcDbEntity
  8
0
 62
256
370
-1
  6
BYLAYER
100
AcDbCircle
 10
11.411542731880191
 20
34.3012701892219809
 30
0.0
 40
1.0
100
AcDbArc
 50
300.0
 51
90.0000000000002132
  0
LINE
  5
A7
100
AcDbEntity
100
AcDbLine
  8
0
 62
256
370
-1
  6
BYLAYER
 10
-36.277568135664616
 20
7.767949192431109
 30
0.0
 11
-25.6960187319017521
 21
26.0957303825485845
 31
0.0
  0
LINE
  5
A8
100
AcDbEntity
100
AcDbLine
  8
0
 62
256
370
-1
  6
BYLAYER
 10
11.4115427318801625
 20
35.3012701892219667
 30
0.0
 11
-9.7515560756455546
 21
35.3012701892219454
 31
0.0
  0
LINE
  5
A9
100
AcDbEntity
100
AcDbLine
  8
0
 62
256
370
-1
  6
BYLAYER
 10
-34.9115427318801821
 20
6.4019237886466778
 30
0.0
 11
-16.6461150395225275
 21
16.9474733836929765
 31
0.0
  0
ARC
  5
AA
100
AcDbEntity
  8
0
 62
256
370
-1
  6
BYLAYER
100
AcDbCircle
 10
-11.1500000000000306
 20
19.3123665043929904
 30
0.0
 40
4.0
100
AcDbArc
 50
61.9089827353175011
 51
178.0910172646823355
  0
LINE
  5
AB
100
AcDbEntity
100
AcDbLine
  8
0
 62
256
370
-1
  6
BYLAYER
 10
-6.3538849604774823
 20
22.8896951903911976
 30
0.0
 11
11.9115427318801643
 21
33.4352447854375541
 31
0.0
  0
CIRCLE
  5
AC
100
AcDbEntity
100
AcDbCircle
  8
0
 62
256
370
-1
  6
BYLAYER
 10
17.4999999999999929
 20
-30.3108891324553369
 30
0.0
 40
1.0
  0
CIRCLE
  5
AD
100
AcDbEntity
100
AcDbCircle
  8
0
 62
256
370
-1
  6
BYLAYER
 10
-17.4999999999999645
 20
30.3108891324553404
 30
0.0
 40
1.0
  0
CIRCLE
  5
AE
100
AcDbEntity
100
AcDbCircle
  8
0
 62
256
370
-1
  6
BYLAYER
 10
11.1499999999999648
 20
-19.3123665043929975
 30
0.0
 40
1.0
  0
CIRCLE
  5
AF
100
AcDbEntity
100
AcDbCircle
  8
0
 62
256
370
-1
  6
BYLAYER
 10
-11.1500000000000306
 20
19.3123665043929904
 30
0.0
 40
1.0
  0
DIMENSION
  5
B0
100
AcDbEntity
  8
0
 62
256
370
-1
  6
BYLAYER
100
AcDbDimension
 10
22.1911038718216815
 20
-29.3108891324553369
 30
0.0
 11
25.5944410425097715
 21
-32.7323727824499429
 31
0.0
 70
129
 71
8
 72
2
 41
1.0
 42
0.0
  1
9/64"
  3
Standard
100
AcDbAlignedDimension
 13
17.4999999999999929
 23
-29.3108891324553369
 33
0.0
 14
17.4999999999999929
 24
-31.3108891324553369
 34
0.0
1001
ACAD
1000
DSTYLE
1002
{
1070
144
1040
1
1002
}
  0
DIMENSION
  5
B1
100
AcDbEntity
  8
0
 62
256
370
-1
  6
BYLAYER
100
AcDbDimension
 10
-42.0
 20
1.0000000000000848
 30
0.0
 11
-38.5800537290309009
 21
0.555107436343274
 31
0.0
 70
129
 71
8
 72
2
 41
1.0
 42
0.0
  1
9/64"
  3
Standard
100
AcDbAlignedDimension
 13
-44.9999999999999858
 23
1.0000000000000855
 33
0.0
 14
-44.9999999999999858
 24
-0.9999999999999145
 34
0.0
1001
ACAD
1000
DSTYLE
1002
{
1070
144
1040
1
1002
}
  0
ARC
  5
B2
100
AcDbEntity
  8
0
 62
256
370
-1
  6
BYLAYER
100
AcDbCircle
 10
11.1499999999999648
 20
-19.3123665043929975
 30
0.0
 40
4.0
100
AcDbArc
 50
79.212961806736331
 51
160.7870381932637542
  0
LINE
  5
B3
100
AcDbEntity
100
AcDbLine
  8
0
 62
256
370
-1
  6
BYLAYER
 10
13.9601136347331956
 20
-15.034135402654055
 30
0.0
 11
27.3205080756887746
 21
-7.320508075688771
 31
0.0
  0
ARC
  5
B4
100
AcDbEntity
  8
0
 62
256
370
-1
  6
BYLAYER
100
AcDbCircle
 10
4.5398863652667369
 20
-17.0088045373702172
 30
0.0
 40
3.0
100
AcDbArc
 50
300.0
 51
340.7870381932636406
  0
ARC
  5
B5
100
AcDbEntity
  8
0
 62
256
370
-1
  6
BYLAYER
100
AcDbCircle
 10
12.4601136347331956
 20
-12.436059191300739
 30
0.0
 40
3.0
100
AcDbArc
 50
259.2129618067363026
 51
300.0
  0
LINE
  5
B6
100
AcDbEntity
100
AcDbLine
  8
0
 62
256
370
-1
  6
BYLAYER
 10
-13.9601136347332293
 20
15.0341354026540408
 30
0.0
 11
-27.320508075688771
 21
7.3205080756887808
 31
0.0
  0
ARC
  5
B7
100
AcDbEntity
  8
0
 62
256
370
-1
  6
BYLAYER
100
AcDbCircle
 10
-11.1500000000000306
 20
19.3123665043929904
 30
0.0
 40
4.0
100
AcDbArc
 50
259.2129618067366437
 51
340.7870381932632995
  0
ARC
  5
B8
100
AcDbEntity
  8
0
 62
256
370
-1
  6
BYLAYER
100
AcDbCircle
 10
-12.4601136347332293
 20
12.4360591913007248
 30
0.0
 40
3.0
100
AcDbArc
 50
79.2129618067365584
 51
120.0000000000000142
  0
ARC
  5
B9
100
AcDbEntity
  8
0
 62
256
370
-1
  6
BYLAYER
100
AcDbCircle
 10
-4.5398863652668204
 20
17.0088045373701675
 30
0.0
 40
3.0
100
AcDbArc
 50
120.0000000000000284
 51
160.7870381932634132
  0
ENDBLK
  5
BA
100
AcDbEntity
  8
0
100
AcDbBlockEnd
  0
BLOCK
  5
BB
100
AcDbEntity
  8
0
100
AcDbBlockBegin
  2
servo_top
 70
0
 10
0.0
 20
0.0
 30
0.0
  3
servo_top
  1

  0
LINE
  5
BC
100
AcDbEntity
100
AcDbLine
  8
0
 62
256
370
-1
  6
BYLAYER
 10
31.0
 20
5.0000000000000284
 30
0.0
 11
26.5
 21
5.0000000000000284
 31
0.0
  0
LINE
  5
BD
100
AcDbEntity
100
AcDbLine
  8
0
 62
256
370
-1
  6
BYLAYER
 10
26.5
 20
5.0000000000000284
 30
0.0
 11
26.5
 21
-4.9999999999999716
 31
0.0
  0
CIRCLE
  5
BE
100
AcDbEntity
100
AcDbCircle
  8
0
 62
256
370
-1
  6
BYLAYER
 10
0.0
 20
0.0
 30
0.0
 40
1.0
  0
CIRCLE
  5
BF
100
AcDbEntity
100
AcDbCircle
  8
0
 62
256
370
-1
  6
BYLAYER
 10
30.0
 20
0.0
 30
0.0
 40
1.0
  0
CIRCLE
  5
C0
100
AcDbEntity
100
AcDbCircle
  8
0
 62
256
370
-1
  6
BYLAYER
 10
10.5
 20
0.0000000000000284
 30
0.0
 40
10.0
  0
CIRCLE
  5
C1
100
AcDbEntity
100
AcDbCircle
  8
0
 62
256
370
-1
  6
BYLAYER
 10
15.0499999999999972
 20
7.0000000000000284
 30
0.0
 40
0.5
  0
CIRCLE
  5
C2
100
AcDbEntity
100
AcDbCircle
  8
0
 62
256
370
-1
  6
DOT
 10
10.5
 20
0.0000000000000284
 30
0.0
 40
5.0
  0
CIRCLE
  5
C3
100
AcDbEntity
100
AcDbCircle
  8
0
 62
256
370
-1
  6
BYLAYER
 10
10.5
 20
0.0000000000000284
 30
0.0
 40
2.0
  0
LINE
  5
C4
100
AcDbEntity
100
AcDbLine
  8
0
 62
256
370
-1
  6
BYLAYER
 10
3.5
 20
-5.9999999999999716
 30
0.0
 11
26.5
 21
-5.9999999999999716
 31
0.0
  0
LINE
  5
C5
100
AcDbEntity
100
AcDbLine
  8
0
 62
256
370
-1
  6
BYLAYER
 10
26.5
 20
-5.9999999999999716
 30
0.0
 11
26.5
 21
6.0000000000000284
 31
0.0
  0
LINE
  5
C6
100
AcDbEntity
100
AcDbLine
  8
0
 62
256
370
-1
  6
BYLAYER
 10
26.5
 20
6.0000000000000284
 30
0.0
 11
3.5
 21
6.0000000000000284
 31
0.0
  0
LINE
  5
C7
100
AcDbEntity
100
AcDbLine
  8
0
 62
256
370
-1
  6
BYLAYER
 10
3.5
 20
6.0000000000000284
 30
0.0
 11
3.5
 21
-5.9999999999999716
 31
0.0
  0
LINE
  5
C8
100
AcDbEntity
100
AcDbLine
  8
0
 62
256
370
-1
  6
BYLAYER
 10
-1.0
 20
-4.9999999999999716
 30
0.0
 11
3.5
 21
-4.9999999999999716
 31
0.0
  0
LINE
  5
C9
100
AcDbEntity
100
AcDbLine
  8
0
 62
256
370
-1
  6
BYLAYER
 10
3.5
 20
-4.9999999999999716
 30
0.0
 11
3.5
 21
5.0000000000000284
 31
0.0
  0
LINE
  5
CA
100
AcDbEntity
100
AcDbLine
  8
0
 62
256
370
-1
  6
BYLAYER
 10
3.5
 20
5.0000000000000284
 30
0.0
 11
-1.0
 21
5.0000000000000284
 31
0.0
  0
LINE
  5
CB
100
AcDbEntity
100
AcDbLine
  8
0
 62
256
370
-1
  6
BYLAYER
 10
-1.0
 20
5.0000000000000284
 30
0.0
 11
-1.0
 21
-4.9999999999999716
 31
0.0
  0
LINE
  5
CC
100
AcDbEntity
100
AcDbLine
  8
0
 62
256
370
-1
  6
BYLAYER
 10
26.5
 20
-4.9999999999999716
 30
0.0
 11
31.0
 21
-4.9999999999999716
 31
0.0
  0
LINE
  5
CD
100
AcDbEntity
100
AcDbLine
  8
0
 62
256
370
-1
  6
BYLAYER
 10
31.0
 20
-4.9999999999999716
 30
0.0
 11
31.0
 21
5.0000000000000284
 31
0.0
  0
ENDBLK
  5
CE
100
AcDbEntity
  8
0
100
AcDbBlockEnd
  0
BLOCK
  5
CF
100
AcDbEntity
  8
0
100
AcDbBlockBegin
  2
body_top
 70
0
 10
0.0
 20
0.0
 30
0.0
  3
body_top
  1

  0
INSERT
  5
D0
100
AcDbEntity
100
AcDbBlockReference
  8
0
 62
256
370
-1
  6
BYLAYER
  2
control_pcb
 10
0.0000000000000179
 20
35.3553390593273278
 30
0.0
 50
90.0
  0
LINE
  5
D1
100
AcDbEntity
100
AcDbLine
  8
0
 62
256
370
-1
  6
BYLAYER
 10
-26.4433756729740281
 20
40.8012701892219312
 30
0.0
 11
-48.5566243270258653
 21
2.5000000000000973
 31
0.0
  0
LINE
  5
D2
100
AcDbEntity
100
AcDbLine
  8
0
 62
256
370
-1
  6
BYLAYER
 10
-22.1132486540518514
 20
-43.3012701892219667
 30
0.0
 11
22.1132486540518478
 21
-43.301270189221988
 31
0.0
  0
CIRCLE
  5
D3
100
AcDbEntity
100
AcDbCircle
  8
0
 62
256
370
-1
  6
BYLAYER
 10
-44.9999999999999574
 20
0.0000000000000655
 30
0.0
 40
1.0
  0
CIRCLE
  5
D4
100
AcDbEntity
100
AcDbCircle
  8
0
 62
256
370
-1
  6
BYLAYER
 10
-22.5000000000000924
 20
-38.9711431702996904
 30
0.0
 40
1.0
  0
CIRCLE
  5
D5
100
AcDbEntity
100
AcDbCircle
  8
0
 62
256
370
-1
  6
BYLAYER
 10
22.4999999999999574
 20
-38.9711431702998183
 30
0.0
 40
1.0
  0
CIRCLE
  5
D6
100
AcDbEntity
100
AcDbCircle
  8
0
 62
256
370
-1
  6
BYLAYER
 10
45.0000000000000213
 20
-0.0000000000001309
 30
0.0
 40
1.0
  0
CIRCLE
  5
D7
100
AcDbEntity
100
AcDbCircle
  8
0
 62
256
370
-1
  6
BYLAYER
 10
22.5000000000001492
 20
38.9711431702996265
 30
0.0
 40
1.0
  0
CIRCLE
  5
D8
100
AcDbEntity
100
AcDbCircle
  8
0
 62
256
370
-1
  6
BYLAYER
 10
-22.4999999999998614
 20
38.9711431702997615
 30
0.0
 40
1.0
  0
LINE
  5
D9
100
AcDbEntity
100
AcDbLine
  8
0
 62
256
370
-1
  6
BYLAYER
 10
26.4433756729740566
 20
40.8012701892219027
 30
0.0
 11
48.5566243270259292
 21
2.499999999999996
 31
0.0
  0
LINE
  5
DA
100
AcDbEntity
100
AcDbLine
  8
0
 62
256
370
-1
  6
BYLAYER
 10
-22.1132486540518407
 20
43.3012701892219241
 30
0.0
 11
22.1132486540518762
 21
43.3012701892218743
 31
0.0
  0
LINE
  5
DB
100
AcDbEntity
100
AcDbLine
  8
0
 62
256
370
-1
  6
BYLAYER
 10
48.556624327025979
 20
-2.5000000000000226
 30
0.0
 11
26.4433756729740566
 21
-40.8012701892219809
 31
0.0
  0
LINE
  5
DC
100
AcDbEntity
100
AcDbLine
  8
0
 62
256
370
-1
  6
BYLAYER
 10
-48.5566243270259292
 20
-2.5000000000000235
 30
0.0
 11
-26.4433756729741525
 21
-40.8012701892219312
 31
0.0
  0
LINE
  5
DD
100
AcDbEntity
100
AcDbLine
  8
0
 62
256
370
-1
  6
BYLAYER
 10
17.1132486540520219
 20
34.6410161513777339
 30
0.0
 11
-9.6113523266954068
 21
34.6410161513776771
 31
0.0
  0
LINE
  5
DE
100
AcDbEntity
100
AcDbLine
  8
0
 62
256
370
-1
  6
BYLAYER
 10
-21.3895152803011293
 20
-12.3492424049174634
 30
0.0
 11
-21.3895152803011293
 21
-12.3492424049174634
 31
0.0
  0
ARC
  5
DF
100
AcDbEntity
  8
0
 62
256
370
-1
  6
BYLAYER
100
AcDbCircle
 10
-32.4999999999999076
 20
-12.9903810567665658
 30
0.0
 40
0.0
100
AcDbArc
 50
0.0
 51
0.0
  0
ARC
  5
E0
100
AcDbEntity
  8
0
 62
256
370
-1
  6
BYLAYER
100
AcDbCircle
 10
17.1132486540520148
 20
29.6410161513777446
 30
0.0
 40
5.0
100
AcDbArc
 50
30.0
 51
89.9999999999999432
  0
ARC
  5
E1
100
AcDbEntity
  8
0
 62
256
370
-1
  6
BYLAYER
100
AcDbCircle
 10
-17.1132486540518158
 20
-29.6410161513774746
 30
0.0
 40
5.0
100
AcDbArc
 50
209.9999999999999716
 51
269.9999999999995453
  0
ARC
  5
E2
100
AcDbEntity
  8
0
 62
256
370
-1
  6
BYLAYER
100
AcDbCircle
 10
-44.2264973081036388
 20
0.0000000000000447
 30
0.0
 40
5.0
100
AcDbArc
 50
149.9999999999997158
 51
209.9999999999999716
  0
ARC
  5
E3
100
AcDbEntity
  8
0
 62
256
370
-1
  6
BYLAYER
100
AcDbCircle
 10
-22.1132486540518371
 20
38.3012701892219027
 30
0.0
 40
5.0
100
AcDbArc
 50
90.0000000000000995
 51
149.9999999999998863
  0
ARC
  5
E4
100
AcDbEntity
  8
0
 62
256
370
-1
  6
BYLAYER
100
AcDbCircle
 10
22.1132486540518549
 20
38.3012701892219098
 30
0.0
 40
5.0
100
AcDbArc
 50
30.0
 51
89.9999999999997726
  0
ARC
  5
E5
100
AcDbEntity
  8
0
 62
256
370
-1
  6
BYLAYER
100
AcDbCircle
 10
44.2264973081037738
 20
0.0000000000000284
 30
0.0
 40
5.0
100
AcDbArc
 50
329.9999999999998295
 51
30.0
  0
ARC
  5
E6
100
AcDbEntity
  8
0
 62
256
370
-1
  6
BYLAYER
100
AcDbCircle
 10
22.1132486540518798
 20
-38.3012701892220235
 30
0.0
 40
5.0
100
AcDbArc
 50
269.9999999999997726
 51
330.0000000000002274
  0
ARC
  5
E7
100
AcDbEntity
  8
0
 62
256
370
-1
  6
BYLAYER
100
AcDbCircle
 10
-22.1132486540518656
 20
-38.3012701892218743
 30
0.0
 40
5.0
100
AcDbArc
 50
209.9999999999999716
 51
269.9999999999997726
  0
DIMENSION
  5
E8
100
AcDbEntity
  8
0
 62
256
370
-1
  6
BYLAYER
100
AcDbDimension
 10
-42.0288568297002385
 20
1.0000000000000877
 30
0.0
 11
-38.8724932772943106
 21
2.7325844337476943
 31
0.0
 70
129
 71
8
 72
2
 41
1.0
 42
0.5235987755982988
  1
9/64"
  3
Standard
100
AcDbAlignedDimension
 13
-44.9999999999999574
 23
1.0000000000000673
 33
0.0
 14
-44.9999999999999432
 24
-0.9999999999999507
 34
0.0
1001
ACAD
1000
DSTYLE
1002
{
1070
144
1040
1
1002
}
  0
ARC
  5
E9
100
AcDbEntity
  8
0
 62
256
370
-1
  6
BYLAYER
100
AcDbCircle
 10
-17.4999999999999396
 20
30.3108891324553298
 30
0.0
 40
5.0
100
AcDbArc
 50
230.4292202493906814
 51
9.5707797506097503
  0
ARC
  5
EA
100
AcDbEntity
  8
0
 62
256
370
-1
  6
BYLAYER
100
AcDbCircle
 10
-22.596247625298961
 20
24.1441833553297549
 30
0.0
 40
3.0
100
AcDbArc
 50
50.4292202493907311
 51
150.0000000000000284
  0
ARC
  5
EB
100
AcDbEntity
  8
0
 62
256
370
-1
  6
BYLAYER
100
AcDbCircle
 10
-9.6113523266953997
 20
31.6410161513776806
 30
0.0
 40
3.0
100
AcDbArc
 50
90.0000000000001137
 51
189.570779750609745
  0
LINE
  5
EC
100
AcDbEntity
100
AcDbLine
  8
0
 62
256
370
-1
  6
BYLAYER
 10
34.5151724426988409
 20
-9.5000000000000338
 30
0.0
 11
25.1943238366524618
 21
-25.6441833553298153
 31
0.0
  0
LINE
  5
ED
100
AcDbEntity
100
AcDbLine
  8
0
 62
256
370
-1
  6
BYLAYER
 10
9.6113523266955649
 20
-34.64101615137767
 30
0.0
 11
-17.113248654051791
 21
-34.6410161513776416
 31
0.0
  0
ARC
  5
EE
100
AcDbEntity
  8
0
 62
256
370
-1
  6
BYLAYER
100
AcDbCircle
 10
17.5000000000000568
 20
-30.3108891324553831
 30
0.0
 40
5.0
100
AcDbArc
 50
50.4292202493902195
 51
189.570779750609347
  0
ARC
  5
EF
100
AcDbEntity
  8
0
 62
256
370
-1
  6
BYLAYER
100
AcDbCircle
 10
9.6113523266955472
 20
-31.6410161513776735
 30
0.0
 40
3.0
100
AcDbArc
 50
269.9999999999999432
 51
9.5707797506092938
  0
ARC
  5
F0
100
AcDbEntity
  8
0
 62
256
370
-1
  6
BYLAYER
100
AcDbCircle
 10
22.5962476252991458
 20
-24.1441833553298082
 30
0.0
 40
3.0
100
AcDbArc
 50
230.429220249390255
 51
329.9999999999998295
  0
CIRCLE
  5
F1
100
AcDbEntity
100
AcDbCircle
  8
0
 62
256
370
-1
  6
BYLAYER
 10
-17.4999999999999396
 20
30.3108891324553298
 30
0.0
 40
1.0
  0
CIRCLE
  5
F2
100
AcDbEntity
100
AcDbCircle
  8
0
 62
256
370
-1
  6
BYLAYER
 10
17.5000000000000568
 20
-30.3108891324553831
 30
0.0
 40
1.0
  0
DIMENSION
  5
F3
100
AcDbEntity
  8
0
 62
256
370
-1
  6
BYLAYER
100
AcDbDimension
 10
17.6339745962156087
 20
-32.5429399400242048
 30
0.0
 11
20.0
 21
-34.6410161513775421
 31
0.0
 70
129
 71
8
 72
2
 41
1.0
 42
1.0471975511965976
  1
9/64"
  3
Standard
100
AcDbAlignedDimension
 13
16.6339745962156336
 23
-30.8108891324553831
 33
0.0
 14
18.3660254037845121
 24
-29.810889132455376
 34
0.0
1001
ACAD
1000
DSTYLE
1002
{
1070
144
1040
1
1002
}
  0
LINE
  5
F4
100
AcDbEntity
100
AcDbLine
  8
0
 62
256
370
-1
  6
BYLAYER
 10
21.4433756729742093
 20
32.1410161513777481
 30
0.0
 11
34.5151724426986419
 21
9.4999999999999609
 31
0.0
  0
LINE
  5
F5
100
AcDbEntity
100
AcDbLine
  8
0
 62
256
370
-1
  6
BYLAYER
 10
29.6984848098350156
 20
4.9999999999999716
 30
0.0
 11
31.9170962313453153
 21
4.9999999999999716
 31
0.0
  0
LINE
  5
F6
100
AcDbEntity
100
AcDbLine
  8
0
 62
256
370
-1
  6
BYLAYER
 10
29.6984848098350156
 20
-5.0000000000000284
 30
0.0
 11
31.9170962313455284
 21
-5.0000000000000284
 31
0.0
  0
ARC
  5
F7
100
AcDbEntity
  8
0
 62
256
370
-1
  6
BYLAYER
100
AcDbCircle
 10
29.6984848098350156
 20
-0.0000000000000284
 30
0.0
 40
5.0
100
AcDbArc
 50
90.0
 51
270.0
  0
ARC
  5
F8
100
AcDbEntity
  8
0
 62
256
370
-1
  6
BYLAYER
100
AcDbCircle
 10
31.9170962313453153
 20
7.9999999999999716
 30
0.0
 40
3.0
100
AcDbArc
 50
270.0
 51
29.9999999999996696
  0
ARC
  5
F9
100
AcDbEntity
  8
0
 62
256
370
-1
  6
BYLAYER
100
AcDbCircle
 10
31.9170962313455284
 20
-8.0000000000000284
 30
0.0
 40
3.0
100
AcDbArc
 50
329.9999999999998863
 51
90.0
  0
ARC
  5
FA
100
AcDbEntity
  8
0
 62
256
370
-1
  6
BYLAYER
100
AcDbCircle
 10
-31.9170962313453153
 20
7.9999999999999716
 30
0.0
 40
3.0
100
AcDbArc
 50
150.0000000000003411
 51
270.0
  0
ARC
  5
FB
100
AcDbEntity
  8
0
 62
256
370
-1
  6
BYLAYER
100
AcDbCircle
 10
-31.9170962313455284
 20
-7.9999999999999911
 30
0.0
 40
3.0
100
AcDbArc
 50
90.0
 51
210.0000000000001421
  0
LINE
  5
FC
100
AcDbEntity
100
AcDbLine
  8
0
 62
256
370
-1
  6
BYLAYER
 10
-29.6984848098350156
 20
4.9999999999999698
 30
0.0
 11
-31.9170962313453153
 21
4.9999999999999787
 31
0.0
  0
LINE
  5
FD
100
AcDbEntity
100
AcDbLine
  8
0
 62
256
370
-1
  6
BYLAYER
 10
-29.6984848098350156
 20
-5.0000000000000231
 30
0.0
 11
-31.9170962313455284
 21
-5.0000000000000195
 31
0.0
  0
ARC
  5
FE
100
AcDbEntity
  8
0
 62
256
370
-1
  6
BYLAYER
100
AcDbCircle
 10
-29.6984848098350191
 20
-0.0000000000000355
 30
0.0
 40
5.0
100
AcDbArc
 50
270.0
 51
90.0
  0
LINE
  5
FF
100
AcDbEntity
100
AcDbLine
  8
0
 62
256
370
-1
  6
BYLAYER
 10
-34.5151724426988409
 20
-9.4999999999999964
 30
0.0
 11
-21.4433756729740104
 21
-32.141016151377471
 31
0.0
  0
LINE
  5
100
100
AcDbEntity
100
AcDbLine
  8
0
 62
256
370
-1
  6
BYLAYER
 10
-34.5151724426986419
 20
9.4999999999999574
 30
0.0
 11
-25.194323836652277
 21
25.6441833553297549
 31
0.0
  0
DIMENSION
  5
101
100
AcDbEntity
  8
0
 62
256
370
-1
  6
BYLAYER
100
AcDbDimension
 10
36.0
 20
0.99999999999997
 30
0.0
 11
40.0
 21
1.0
 31
0.0
 70
129
 71
8
 72
2
 41
1.0
 42
0.0
  1
7/64"
  3
Standard
100
AcDbAlignedDimension
 13
29.6984848098350156
 23
0.9999999999999716
 33
0.0
 14
29.6984848098350156
 24
-1.0000000000000284
 34
0.0
1001
ACAD
1000
DSTYLE
1002
{
1070
144
1040
1
1002
}
  0
ENDBLK
  5
102
100
AcDbEntity
  8
0
100
AcDbBlockEnd
  0
BLOCK
  5
103
100
AcDbEntity
  8
0
100
AcDbBlockBegin
  2
femur_tibia
 70
0
 10
0.0
 20
0.0
 30
0.0
  3
femur_tibia
  1

  0
CIRCLE
  5
104
100
AcDbEntity
100
AcDbCircle
  8
0
 62
256
370
-1
  6
BYLAYER
 10
-20.0000000000000036
 20
0.0
 30
0.0
 40
1.0
  0
CIRCLE
  5
105
100
AcDbEntity
100
AcDbCircle
  8
0
 62
256
370
-1
  6
BYLAYER
 10
20.0000000000000036
 20
0.0
 30
0.0
 40
1.0
  0
DIMENSION
  5
106
100
AcDbEntity
  8
0
 62
256
370
-1
  6
BYLAYER
100
AcDbDimension
 10
-21.0000000000000036
 20
2.1550058548009448
 30
0.0
 11
-17.8783539381229453
 21
-2.683898991581513
 31
0.0
 70
129
 71
8
 72
2
 41
1.0
 42
0.0
  1
9/64"
  3
Standard
100
AcDbAlignedDimension
 13
-21.0000000000000036
 23
0.0000000000000001
 33
0.0
 14
-19.0000000000000036
 24
-0.0000000000000002
 34
0.0
1001
ACAD
1000
DSTYLE
1002
{
1070
144
1040
1
1002
}
  0
LINE
  5
107
100
AcDbEntity
100
AcDbLine
  8
0
 62
256
370
-1
  6
BYLAYER
 10
-25.0
 20
5.0
 30
0.0
 11
25.0
 21
5.0
 31
0.0
  0
LINE
  5
108
100
AcDbEntity
100
AcDbLine
  8
0
 62
256
370
-1
  6
BYLAYER
 10
25.0
 20
-5.0
 30
0.0
 11
-25.0
 21
-5.0
 31
0.0
  0
DIMENSION
  5
109
100
AcDbEntity
  8
0
 62
256
370
-1
  6
BYLAYER
100
AcDbDimension
 10
13.5000000000000036
 20
-2.0690704396689483
 30
0.0
 11
15.3561444646010781
 21
2.3340089716700891
 31
0.0
 70
129
 71
8
 72
2
 41
1.0
 42
0.0
  1
3/64"
  3
Standard
100
AcDbAlignedDimension
 13
13.5000000000000036
 23
0.0
 33
0.0
 14
14.5000000000000036
 24
0.0
 34
0.0
1001
ACAD
1000
DSTYLE
1002
{
1070
144
1040
1
1002
}
  0
CIRCLE
  5
10A
100
AcDbEntity
100
AcDbCircle
  8
0
 62
256
370
-1
  6
BYLAYER
 10
14.0000000000000036
 20
0.0
 30
0.0
 40
0.5
  0
CIRCLE
  5
10B
100
AcDbEntity
100
AcDbCircle
  8
0
 62
256
370
-1
  6
BYLAYER
 10
-14.0000000000000036
 20
0.0
 30
0.0
 40
0.5
  0
LINE
  5
10C
100
AcDbEntity
100
AcDbLine
  8
0
 62
256
370
-1
  6
BYLAYER
 10
-25.0
 20
-5.0
 30
0.0
 11
-25.0
 21
5.0
 31
0.0
  0
LINE
  5
10D
100
AcDbEntity
100
AcDbLine
  8
0
 62
256
370
-1
  6
BYLAYER
 10
25.0
 20
5.0
 30
0.0
 11
25.0
 21
-5.0
 31
0.0
  0
ENDBLK
  5
10E
100
AcDbEntity
  8
0
100
AcDbBlockEnd
  0
BLOCK
  5
10F
100
AcDbEntity
  8
0
100
AcDbBlockBegin
  2
femur_vertical
 70
0
 10
0.0
 20
0.0
 30
0.0
  3
femur_vertical
  1

  0
LINE
  5
110
100
AcDbEntity
100
AcDbLine
  8
0
 62
256
370
-1
  6
BYLAYER
 10
-9.0
 20
-7.5
 30
0.0
 11
6.0
 21
-7.5
 31
0.0
  0
LINE
  5
111
100
AcDbEntity
100
AcDbLine
  8
0
 62
256
370
-1
  6
BYLAYER
 10
6.0
 20
7.5000000000000009
 30
0.0
 11
-8.9999999999999982
 21
7.5000000000000009
 31
0.0
  0
LINE
  5
112
100
AcDbEntity
100
AcDbLine
  8
0
 62
256
370
-1
  6
BYLAYER
 10
-10.0
 20
3.1749999999999998
 30
0.0
 11
-10.0
 21
6.5000000000000009
 31
0.0
  0
LINE
  5
113
100
AcDbEntity
100
AcDbLine
  8
0
 62
256
370
-1
  6
BYLAYER
 10
-10.0
 20
-3.1749999999999998
 30
0.0
 11
-10.0
 21
-6.4999999999999991
 31
0.0
  0
INSERT
  5
114
100
AcDbEntity
100
AcDbBlockReference
  8
0
 62
256
370
-1
  6
BYLAYER
  2
servo_mount
 10
20.0
 20
-0.1749999999999998
 30
0.0
  0
LINE
  5
115
100
AcDbEntity
100
AcDbLine
  8
0
 62
256
370
-1
  6
BYLAYER
 10
15.9999999999999982
 20
-17.5
 30
0.0
 11
24.0
 21
-17.5
 31
0.0
  0
LINE
  5
116
100
AcDbEntity
100
AcDbLine
  8
0
 62
256
370
-1
  6
BYLAYER
 10
29.0
 20
22.8249999999999993
 30
0.0
 11
16.0
 21
22.8249999999999993
 31
0.0
  0
LINE
  5
117
100
AcDbEntity
100
AcDbLine
  8
0
 62
256
370
-1
  6
BYLAYER
 10
11.0
 20
17.8249999999999993
 30
0.0
 11
11.0
 21
12.5
 31
0.0
  0
LINE
  5
118
100
AcDbEntity
100
AcDbLine
  8
0
 62
256
370
-1
  6
BYLAYER
 10
32.0
 20
12.8249999999999993
 30
0.0
 11
34.0
 21
12.8249999999999993
 31
0.0
  0
LINE
  5
119
100
AcDbEntity
100
AcDbLine
  8
0
 62
256
370
-1
  6
BYLAYER
 10
39.0
 20
17.8249999999999993
 30
0.0
 11
39.0
 21
17.8249999999999993
 31
0.0
  0
LINE
  5
11A
100
AcDbEntity
100
AcDbLine
  8
0
 62
256
370
-1
  6
BYLAYER
 10
34.0
 20
22.8249999999999993
 30
0.0
 11
29.0
 21
22.8249999999999993
 31
0.0
  0
LINE
  5
11B
100
AcDbEntity
100
AcDbLine
  8
0
 62
256
370
-1
  6
BYLAYER
 10
29.0
 20
9.8249999999999993
 30
0.0
 11
29.0
 21
-12.5000000000000036
 31
0.0
  0
ARC
  5
11C
100
AcDbEntity
  8
0
 62
256
370
-1
  6
BYLAYER
100
AcDbCircle
 10
32.0
 20
9.8249999999999993
 30
0.0
 40
3.0
100
AcDbArc
 50
90.0
 51
180.0
  0
ARC
  5
11D
100
AcDbEntity
  8
0
 62
256
370
-1
  6
BYLAYER
100
AcDbCircle
 10
34.0
 20
17.8249999999999993
 30
0.0
 40
5.0
100
AcDbArc
 50
0.0
 51
90.0
  0
ARC
  5
11E
100
AcDbEntity
  8
0
 62
256
370
-1
  6
BYLAYER
100
AcDbCircle
 10
34.0
 20
17.8249999999999993
 30
0.0
 40
5.0
100
AcDbArc
 50
270.0
 51
0.0
  0
ARC
  5
11F
100
AcDbEntity
  8
0
 62
256
370
-1
  6
BYLAYER
100
AcDbCircle
 10
16.0
 20
17.8249999999999993
 30
0.0
 40
5.0
100
AcDbArc
 50
90.0
 51
180.0
  0
ARC
  5
120
100
AcDbEntity
  8
0
 62
256
370
-1
  6
BYLAYER
100
AcDbCircle
 10
15.9999999999999982
 20
-12.5
 30
0.0
 40
5.0
100
AcDbArc
 50
180.0
 51
270.0
  0
ARC
  5
121
100
AcDbEntity
  8
0
 62
256
370
-1
  6
BYLAYER
100
AcDbCircle
 10
24.0
 20
-12.5
 30
0.0
 40
5.0
100
AcDbArc
 50
270.0
 51
0.0
  0
LINE
  5
122
100
AcDbEntity
100
AcDbLine
  8
0
 62
256
370
-1
  6
BYLAYER
 10
0.0
 20
3.1749999999999998
 30
0.0
 11
0.0
 21
-3.1749999999999998
 31
0.0
  0
LINE
  5
123
100
AcDbEntity
100
AcDbLine
  8
0
 62
256
370
-1
  6
BYLAYER
 10
0.0
 20
-3.1749999999999998
 30
0.0
 11
-10.0
 21
-3.1749999999999998
 31
0.0
  0
LINE
  5
124
100
AcDbEntity
100
AcDbLine
  8
0
 62
256
370
-1
  6
BYLAYER
 10
-0.0
 20
3.1749999999999998
 30
0.0
 11
-10.0
 21
3.1750000000000007
 31
0.0
  0
DIMENSION
  5
125
100
AcDbEntity
  8
0
 62
256
370
-1
  6
BYLAYER
100
AcDbDimension
 10
35.5
 20
20.0729994958112634
 30
0.0
 11
24.0
 21
21.0
 31
0.0
 70
129
 71
8
 72
2
 41
1.0
 42
0.0
  1
9/64"
  3
Standard
100
AcDbAlignedDimension
 13
35.5
 23
17.8249999999999922
 33
0.0
 14
32.5
 24
17.8249999999999993
 34
0.0
1001
ACAD
1000
DSTYLE
1002
{
1070
144
1040
1
1002
}
  0
CIRCLE
  5
126
100
AcDbEntity
100
AcDbCircle
  8
0
 62
256
370
-1
  6
BYLAYER
 10
34.0
 20
17.8249999999999993
 30
0.0
 40
1.5
  0
ARC
  5
127
100
AcDbEntity
  8
0
 62
256
370
-1
  6
BYLAYER
100
AcDbCircle
 10
6.0
 20
-12.5
 30
0.0
 40
5.0
100
AcDbArc
 50
0.0
 51
90.0
  0
ARC
  5
128
100
AcDbEntity
  8
0
 62
256
370
-1
  6
BYLAYER
100
AcDbCircle
 10
6.0
 20
12.5
 30
0.0
 40
5.0
100
AcDbArc
 50
270.0
 51
0.0
  0
ARC
  5
129
100
AcDbEntity
  8
0
 62
256
370
-1
  6
BYLAYER
100
AcDbCircle
 10
-9.0
 20
6.5000000000000009
 30
0.0
 40
1.0
100
AcDbArc
 50
89.9999999999999005
 51
180.0
  0
ARC
  5
12A
100
AcDbEntity
  8
0
 62
256
370
-1
  6
BYLAYER
100
AcDbCircle
 10
-9.0
 20
-6.4999999999999991
 30
0.0
 40
1.0
100
AcDbArc
 50
180.0
 51
270.0
  0
ENDBLK
  5
12B
100
AcDbEntity
  8
0
100
AcDbBlockEnd
  0
BLOCK
  5
12C
100
AcDbEntity
  8
0
100
AcDbBlockBegin
  2
body_middle
 70
0
 10
0.0
 20
0.0
 30
0.0
  3
body_middle
  1

  0
INSERT
  5
12D
100
AcDbEntity
100
AcDbBlockReference
  8
0
 62
256
370
-1
  6
BYLAYER
  2
servo_mount
 10
-26.3227401592340939
 20
-4.8051362713290793
 30
0.0
 50
-240.0
  0
INSERT
  5
12E
100
AcDbEntity
100
AcDbBlockReference
  8
0
 62
256
370
-1
  6
BYLAYER
  2
servo_mount
 10
-9.0000000000000178
 20
-25.198729810778083
 30
0.0
 50
-180.0000000000000284
  0
INSERT
  5
12F
100
AcDbEntity
100
AcDbBlockReference
  8
0
 62
256
370
-1
  6
BYLAYER
  2
servo_mount
 10
17.3227401592340584
 20
-20.3935935394489931
 30
0.0
 50
-120.0000000000000142
  0
INSERT
  5
130
100
AcDbEntity
100
AcDbBlockReference
  8
0
 62
256
370
-1
  6
BYLAYER
  2
servo_mount
 10
26.3227401592340655
 20
4.8051362713291308
 30
0.0
 50
-60.0000000000000071
  0
INSERT
  5
131
100
AcDbEntity
100
AcDbBlockReference
  8
0
 62
256
370
-1
  6
BYLAYER
  2
servo_mount
 10
8.9999999999999893
 20
25.1987298107781221
 30
0.0
 50
-0.0000000000000191
  0
INSERT
  5
132
100
AcDbEntity
100
AcDbBlockReference
  8
0
 62
256
370
-1
  6
BYLAYER
  2
servo_mount
 10
-17.3227401592340975
 20
20.3935935394490322
 30
0.0
 50
59.9999999999999574
  0
CIRCLE
  5
133
100
AcDbEntity
100
AcDbCircle
  8
0
 62
256
370
-1
  6
BYLAYER
 10
-22.4999999999999041
 20
38.971143170299797
 30
0.0
 40
1.0
  0
LINE
  5
134
100
AcDbEntity
100
AcDbLine
  8
0
 62
256
370
-1
  6
BYLAYER
 10
0.0000000000000194
 20
38.3012701892220235
 30
0.0
 11
0.0000000000000149
 21
29.4216360292789645
 31
0.0
  0
ARC
  5
135
100
AcDbEntity
  8
0
 62
256
370
-1
  6
BYLAYER
100
AcDbCircle
 10
5.0000000000000195
 20
38.3012701892220235
 30
0.0
 40
5.0
100
AcDbArc
 50
89.9999999999999716
 51
180.0000000000000284
  0
ARC
  5
136
100
AcDbEntity
  8
0
 62
256
370
-1
  6
BYLAYER
100
AcDbCircle
 10
-2.9999999999999734
 20
29.4216360292789503
 30
0.0
 40
3.0
100
AcDbArc
 50
227.8665474670656863
 51
0.0
  0
LINE
  5
137
100
AcDbEntity
100
AcDbLine
  8
0
 62
256
370
-1
  6
BYLAYER
 10
-33.1698729810778303
 20
19.150635094611058
 30
0.0
 11
-25.4798842222550981
 21
14.7108180146394929
 31
0.0
  0
ARC
  5
138
100
AcDbEntity
  8
0
 62
256
370
-1
  6
BYLAYER
100
AcDbCircle
 10
-30.6698729810778623
 20
23.4807621135332276
 30
0.0
 40
5.0
100
AcDbArc
 50
145.6345194428891716
 51
240.0
  0
ARC
  5
139
100
AcDbEntity
  8
0
 62
256
370
-1
  6
BYLAYER
100
AcDbCircle
 10
-26.9798842222550697
 20
12.1127418032862479
 30
0.0
 40
3.0
100
AcDbArc
 50
277.5685920288273678
 51
59.9999999999999574
  0
CIRCLE
  5
13A
100
AcDbEntity
100
AcDbCircle
  8
0
 62
256
370
-1
  6
BYLAYER
 10
0.0
 20
0.0
 30
0.0
 40
10.0
  0
CIRCLE
  5
13B
100
AcDbEntity
100
AcDbCircle
  8
0
 62
256
370
-1
  6
BYLAYER
 10
-17.4999999999999929
 20
30.3108891324553582
 30
0.0
 40
1.0
  0
CIRCLE
  5
13C
100
AcDbEntity
100
AcDbCircle
  8
0
 62
256
370
-1
  6
BYLAYER
 10
17.5
 20
-30.3108891324553511
 30
0.0
 40
1.0
  0
DIMENSION
  5
13D
100
AcDbEntity
  8
0
 62
256
370
-1
  6
BYLAYER
100
AcDbDimension
 10
-15.4019237886466769
 20
32.6769145362397992
 30
0.0
 11
-10.3038475772933609
 21
29.8467875173176012
 31
0.0
 70
129
 71
8
 72
2
 41
1.0
 42
0.5235987755982988
  1
9/64"
  3
Standard
100
AcDbAlignedDimension
 13
-17.9999999999999929
 23
31.1769145362397992
 33
0.0
 14
-16.9999999999999929
 24
29.4448637286709207
 34
0.0
1001
ACAD
1000
DSTYLE
1002
{
1070
144
1040
1
1002
}
  0
DIMENSION
  5
13E
100
AcDbEntity
  8
0
 62
256
370
-1
  6
BYLAYER
100
AcDbDimension
 10
-25.1160254037845299
 20
-36.4400542570542356
 30
0.0
 11
-21.0788383248864726
 21
-29.4903810567665801
 31
0.0
 70
129
 71
8
 72
2
 41
1.0
 42
0.5235987755982988
  1
9/64"
  3
Standard
100
AcDbAlignedDimension
 13
-23.3660254037845583
 23
-39.471143170299662
 33
0.0
 14
-21.6339745962156904
 24
-38.4711431702996478
 34
0.0
1001
ACAD
1000
DSTYLE
1002
{
1070
144
1040
1
1002
}
  0
LINE
  5
13F
100
AcDbEntity
100
AcDbLine
  8
0
 62
256
370
-1
  6
BYLAYER
 10
-34.7971416243839116
 20
26.3031110547491522
 30
0.0
 11
-24.9763611859835173
 21
40.6645525350293582
 31
0.0
  0
LINE
  5
140
100
AcDbEntity
100
AcDbLine
  8
0
 62
256
370
-1
  6
BYLAYER
 10
-20.4874208629928134
 20
41.1958960143891773
 30
0.0
 11
-5.012579137007056
 21
27.1968831851895736
 31
0.0
  0
ARC
  5
141
100
AcDbEntity
  8
0
 62
256
370
-1
  6
BYLAYER
100
AcDbCircle
 10
-22.4999999999999041
 20
38.971143170299797
 30
0.0
 40
3.0
100
AcDbArc
 50
47.866547467065665
 51
145.6345194428891432
  0
LINE
  5
142
100
AcDbEntity
100
AcDbLine
  8
0
 62
256
370
-1
  6
BYLAYER
 10
-33.169872981077873
 20
19.1506350946110366
 30
0.0
 11
-25.479884222255091
 21
14.7108180146395018
 31
0.0
  0
LINE
  5
143
100
AcDbEntity
100
AcDbLine
  8
0
 62
256
370
-1
  6
BYLAYER
 10
-40.1777331841680194
 20
-16.9836530984267817
 30
0.0
 11
-47.7047161218540765
 21
-1.2978870136426657
 31
0.0
  0
ARC
  5
144
100
AcDbEntity
  8
0
 62
256
370
-1
  6
BYLAYER
100
AcDbCircle
 10
-30.6698729810778659
 20
23.4807621135332312
 30
0.0
 40
5.0
100
AcDbArc
 50
149.9999999999999716
 51
240.0000000000000284
  0
LINE
  5
145
100
AcDbEntity
100
AcDbLine
  8
0
 62
256
370
-1
  6
BYLAYER
 10
-45.9204029116195471
 20
2.8553210818195214
 30
0.0
 11
-26.0594813106355332
 21
9.2574207214668061
 31
0.0
  0
ARC
  5
146
100
AcDbEntity
  8
0
 62
256
370
-1
  6
BYLAYER
100
AcDbCircle
 10
-26.9798842222550768
 20
12.1127418032861911
 30
0.0
 40
3.0
100
AcDbArc
 50
287.8665474670656863
 51
59.9999999999999574
  0
ARC
  5
147
100
AcDbEntity
  8
0
 62
256
370
-1
  6
BYLAYER
100
AcDbCircle
 10
-45.0
 20
0.0000000000001254
 30
0.0
 40
3.0
100
AcDbArc
 50
107.8665474670656437
 51
205.6345194428891432
  0
LINE
  5
148
100
AcDbEntity
100
AcDbLine
  8
0
 62
256
370
-1
  6
BYLAYER
 10
-33.169872981077873
 20
-19.150635094610994
 30
0.0
 11
-25.4798842222551087
 21
-14.7108180146394751
 31
0.0
  0
CIRCLE
  5
149
100
AcDbEntity
100
AcDbCircle
  8
0
 62
256
370
-1
  6
BYLAYER
 10
-45.0
 20
0.0000000000001254
 30
0.0
 40
1.0
  0
ARC
  5
14A
100
AcDbEntity
  8
0
 62
256
370
-1
  6
BYLAYER
100
AcDbCircle
 10
-35.6698729810779014
 20
-14.8205080756887586
 30
0.0
 40
5.0
100
AcDbArc
 50
205.6345194428891716
 51
300.0
  0
ARC
  5
14B
100
AcDbEntity
  8
0
 62
256
370
-1
  6
BYLAYER
100
AcDbCircle
 10
-23.979884222255162
 20
-17.3088942259927201
 30
0.0
 40
3.0
100
AcDbArc
 50
337.5685920288273678
 51
119.9999999999999716
  0
LINE
  5
14C
100
AcDbEntity
100
AcDbLine
  8
0
 62
256
370
-1
  6
BYLAYER
 10
-33.1698729810778943
 20
-19.1506350946110047
 30
0.0
 11
-25.4798842222551087
 21
-14.7108180146394751
 31
0.0
  0
LINE
  5
14D
100
AcDbEntity
100
AcDbLine
  8
0
 62
256
370
-1
  6
BYLAYER
 10
-5.3805915597841398
 20
-43.2867641531759446
 30
0.0
 11
-22.7283549358705663
 21
-41.9624395486720303
 31
0.0
  0
ARC
  5
14E
100
AcDbEntity
  8
0
 62
256
370
-1
  6
BYLAYER
100
AcDbCircle
 10
-35.6698729810778872
 20
-14.8205080756888243
 30
0.0
 40
5.0
100
AcDbArc
 50
209.9999999999999716
 51
300.0
  0
LINE
  5
14F
100
AcDbEntity
100
AcDbLine
  8
0
 62
256
370
-1
  6
BYLAYER
 10
-25.4329820486267728
 20
-38.3405749325696448
 30
0.0
 11
-21.0469021736284958
 21
-17.9394624637227587
 31
0.0
  0
ARC
  5
150
100
AcDbEntity
  8
0
 62
256
370
-1
  6
BYLAYER
100
AcDbCircle
 10
-23.9798842222551301
 20
-17.3088942259927308
 30
0.0
 40
3.0
100
AcDbArc
 50
347.8665474670656863
 51
120.0
  0
ARC
  5
151
100
AcDbEntity
  8
0
 62
256
370
-1
  6
BYLAYER
100
AcDbCircle
 10
-22.5000000000001243
 20
-38.9711431702996691
 30
0.0
 40
3.0
100
AcDbArc
 50
167.8665474670656579
 51
265.6345194428892
  0
LINE
  5
152
100
AcDbEntity
100
AcDbLine
  8
0
 62
256
370
-1
  6
BYLAYER
 10
-0.0000000000000411
 20
-38.3012701892220022
 30
0.0
 11
-0.0000000000000315
 21
-29.4216360292789645
 31
0.0
  0
CIRCLE
  5
153
100
AcDbEntity
100
AcDbCircle
  8
0
 62
256
370
-1
  6
BYLAYER
 10
-22.5000000000001243
 20
-38.9711431702996691
 30
0.0
 40
1.0
  0
ARC
  5
154
100
AcDbEntity
  8
0
 62
256
370
-1
  6
BYLAYER
100
AcDbCircle
 10
-5.0000000000000071
 20
-38.3012701892220164
 30
0.0
 40
5.0
100
AcDbArc
 50
265.6345194428892
 51
359.9999999999999432
  0
ARC
  5
155
100
AcDbEntity
  8
0
 62
256
370
-1
  6
BYLAYER
100
AcDbCircle
 10
2.9999999999999192
 20
-29.4216360292789751
 30
0.0
 40
3.0
100
AcDbArc
 50
37.5685920288273394
 51
179.9999999999999432
  0
LINE
  5
156
100
AcDbEntity
100
AcDbLine
  8
0
 62
256
370
-1
  6
BYLAYER
 10
-0.0000000000000411
 20
-38.3012701892220235
 30
0.0
 11
-0.0000000000000315
 21
-29.4216360292789645
 31
0.0
  0
LINE
  5
157
100
AcDbEntity
100
AcDbLine
  8
0
 62
256
370
-1
  6
BYLAYER
 10
34.7971416243839045
 20
-26.3031110547491558
 30
0.0
 11
24.9763611859835315
 21
-40.664552535029344
 31
0.0
  0
ARC
  5
158
100
AcDbEntity
  8
0
 62
256
370
-1
  6
BYLAYER
100
AcDbCircle
 10
-5.000000000000008
 20
-38.3012701892220235
 30
0.0
 40
5.0
100
AcDbArc
 50
270.0
 51
0.0
  0
LINE
  5
159
100
AcDbEntity
100
AcDbLine
  8
0
 62
256
370
-1
  6
BYLAYER
 10
20.4874208629928276
 20
-41.1958960143891701
 30
0.0
 11
5.012579137007064
 21
-27.19688318518957
 31
0.0
  0
ARC
  5
15A
100
AcDbEntity
  8
0
 62
256
370
-1
  6
BYLAYER
100
AcDbCircle
 10
2.9999999999999698
 20
-29.4216360292789503
 30
0.0
 40
3.0
100
AcDbArc
 50
47.8665474670656934
 51
180.0000000000000284
  0
ARC
  5
15B
100
AcDbEntity
  8
0
 62
256
370
-1
  6
BYLAYER
100
AcDbCircle
 10
22.499999999999897
 20
-38.971143170299797
 30
0.0
 40
3.0
100
AcDbArc
 50
227.8665474670656863
 51
325.6345194428892
  0
LINE
  5
15C
100
AcDbEntity
100
AcDbLine
  8
0
 62
256
370
-1
  6
BYLAYER
 10
33.1698729810778374
 20
-19.1506350946110473
 30
0.0
 11
25.4798842222550945
 21
-14.7108180146394947
 31
0.0
  0
CIRCLE
  5
15D
100
AcDbEntity
100
AcDbCircle
  8
0
 62
256
370
-1
  6
BYLAYER
 10
22.499999999999897
 20
-38.971143170299797
 30
0.0
 40
1.0
  0
ARC
  5
15E
100
AcDbEntity
  8
0
 62
256
370
-1
  6
BYLAYER
100
AcDbCircle
 10
30.6698729810778659
 20
-23.4807621135332134
 30
0.0
 40
5.0
100
AcDbArc
 50
325.6345194428892
 51
59.9999999999999574
  0
ARC
  5
15F
100
AcDbEntity
  8
0
 62
256
370
-1
  6
BYLAYER
100
AcDbCircle
 10
26.9798842222550803
 20
-12.1127418032862266
 30
0.0
 40
3.0
100
AcDbArc
 50
97.5685920288273678
 51
240.0
  0
LINE
  5
160
100
AcDbEntity
100
AcDbLine
  8
0
 62
256
370
-1
  6
BYLAYER
 10
33.169872981077873
 20
-19.1506350946110295
 30
0.0
 11
25.4798842222550945
 21
-14.7108180146394947
 31
0.0
  0
LINE
  5
161
100
AcDbEntity
100
AcDbLine
  8
0
 62
256
370
-1
  6
BYLAYER
 10
40.1777331841680265
 20
16.9836530984267782
 30
0.0
 11
47.7047161218540765
 21
1.297887013642681
 31
0.0
  0
ARC
  5
162
100
AcDbEntity
  8
0
 62
256
370
-1
  6
BYLAYER
100
AcDbCircle
 10
30.669872981077873
 20
-23.480762113533217
 30
0.0
 40
5.0
100
AcDbArc
 50
330.0
 51
60.0000000000000071
  0
LINE
  5
163
100
AcDbEntity
100
AcDbLine
  8
0
 62
256
370
-1
  6
BYLAYER
 10
45.92040291161954
 20
-2.8553210818195058
 30
0.0
 11
26.0594813106355367
 21
-9.2574207214667972
 31
0.0
  0
ARC
  5
164
100
AcDbEntity
  8
0
 62
256
370
-1
  6
BYLAYER
100
AcDbCircle
 10
26.9798842222550732
 20
-12.1127418032861947
 30
0.0
 40
3.0
100
AcDbArc
 50
107.8665474670656153
 51
240.0
  0
ARC
  5
165
100
AcDbEntity
  8
0
 62
256
370
-1
  6
BYLAYER
100
AcDbCircle
 10
45.0
 20
-0.0000000000001309
 30
0.0
 40
3.0
100
AcDbArc
 50
287.8665474670656863
 51
25.6345194428891503
  0
LINE
  5
166
100
AcDbEntity
100
AcDbLine
  8
0
 62
256
370
-1
  6
BYLAYER
 10
33.1698729810778659
 20
19.1506350946110011
 30
0.0
 11
25.4798842222551016
 21
14.7108180146394822
 31
0.0
  0
CIRCLE
  5
167
100
AcDbEntity
100
AcDbCircle
  8
0
 62
256
370
-1
  6
BYLAYER
 10
45.0
 20
-0.0000000000001309
 30
0.0
 40
1.0
  0
ARC
  5
168
100
AcDbEntity
  8
0
 62
256
370
-1
  6
BYLAYER
100
AcDbCircle
 10
35.6698729810778872
 20
14.820508075688787
 30
0.0
 40
5.0
100
AcDbArc
 50
25.6345194428891503
 51
119.9999999999999289
  0
ARC
  5
169
100
AcDbEntity
  8
0
 62
256
370
-1
  6
BYLAYER
100
AcDbCircle
 10
23.9798842222551727
 20
17.3088942259927023
 30
0.0
 40
3.0
100
AcDbArc
 50
157.568592028827311
 51
300.0
  0
LINE
  5
16A
100
AcDbEntity
100
AcDbLine
  8
0
 62
256
370
-1
  6
BYLAYER
 10
33.1698729810778872
 20
19.1506350946110118
 30
0.0
 11
25.4798842222551016
 21
14.7108180146394822
 31
0.0
  0
LINE
  5
16B
100
AcDbEntity
100
AcDbLine
  8
0
 62
256
370
-1
  6
BYLAYER
 10
5.380591559784154
 20
43.2867641531759446
 30
0.0
 11
22.728354935870577
 21
41.9624395486720232
 31
0.0
  0
ARC
  5
16C
100
AcDbEntity
  8
0
 62
256
370
-1
  6
BYLAYER
100
AcDbCircle
 10
35.6698729810778943
 20
14.8205080756887888
 30
0.0
 40
5.0
100
AcDbArc
 50
29.999999999999968
 51
120.0
  0
LINE
  5
16D
100
AcDbEntity
100
AcDbLine
  8
0
 62
256
370
-1
  6
BYLAYER
 10
25.4329820486267622
 20
38.3405749325696519
 30
0.0
 11
21.0469021736284887
 21
17.9394624637227729
 31
0.0
  0
ARC
  5
16E
100
AcDbEntity
  8
0
 62
256
370
-1
  6
BYLAYER
100
AcDbCircle
 10
23.9798842222551229
 20
17.3088942259927414
 30
0.0
 40
3.0
100
AcDbArc
 50
167.8665474670656579
 51
299.9999999999999432
  0
ARC
  5
16F
100
AcDbEntity
  8
0
 62
256
370
-1
  6
BYLAYER
100
AcDbCircle
 10
22.500000000000135
 20
38.971143170299662
 30
0.0
 40
3.0
100
AcDbArc
 50
347.8665474670656295
 51
85.6345194428891006
  0
LINE
  5
170
100
AcDbEntity
100
AcDbLine
  8
0
 62
256
370
-1
  6
BYLAYER
 10
0.0000000000000874
 20
38.3012701892220022
 30
0.0
 11
0.000000000000041
 21
29.4216360292789645
 31
0.0
  0
CIRCLE
  5
171
100
AcDbEntity
100
AcDbCircle
  8
0
 62
256
370
-1
  6
BYLAYER
 10
22.500000000000135
 20
38.971143170299662
 30
0.0
 40
1.0
  0
ARC
  5
172
100
AcDbEntity
  8
0
 62
256
370
-1
  6
BYLAYER
100
AcDbCircle
 10
5.0000000000000515
 20
38.3012701892220093
 30
0.0
 40
5.0
100
AcDbArc
 50
85.6345194428891574
 51
179.9999999999998863
  0
ARC
  5
173
100
AcDbEntity
  8
0
 62
256
370
-1
  6
BYLAYER
100
AcDbCircle
 10
-2.9999999999999098
 20
29.4216360292789751
 30
0.0
 40
3.0
100
AcDbArc
 50
217.5685920288273678
 51
359.9999999999999432
  0
ENDBLK
  5
174
100
AcDbEntity
  8
0
100
AcDbBlockEnd
  0
BLOCK
  5
175
100
AcDbEntity
  8
0
100
AcDbBlockBegin
  2
femur_crossbrace
 70
0
 10
0.0
 20
0.0
 30
0.0
  3
femur_crossbrace
  1

  0
LINE
  5
176
100
AcDbEntity
100
AcDbLine
  8
0
 62
256
370
-1
  6
BYLAYER
 10
-8.0
 20
-0.0000000000000284
 30
0.0
 11
-8.0
 21
12.9999999999999716
 31
0.0
  0
LINE
  5
177
100
AcDbEntity
100
AcDbLine
  8
0
 62
256
370
-1
  6
BYLAYER
 10
-8.0
 20
0.0
 30
0.0
 11
0.0
 21
0.0
 31
0.0
  0
LINE
  5
178
100
AcDbEntity
100
AcDbLine
  8
0
 62
256
370
-1
  6
BYLAYER
 10
0.0
 20
0.0
 30
0.0
 11
0.0
 21
13.0
 31
0.0
  0
LINE
  5
179
100
AcDbEntity
100
AcDbLine
  8
0
 62
256
370
-1
  6
BYLAYER
 10
0.0
 20
13.0
 30
0.0
 11
-8.0
 21
13.0
 31
0.0
  0
ENDBLK
  5
17A
100
AcDbEntity
  8
0
100
AcDbBlockEnd
  0
BLOCK
  5
17B
100
AcDbEntity
  8
0
100
AcDbBlockBegin
  2
battery_holder
 70
0
 10
0.0
 20
0.0
 30
0.0
  3
battery_holder
  1

  0
LINE
  5
17C
100
AcDbEntity
100
AcDbLine
  8
0
 62
256
370
-1
  6
DOT2
 10
-29.0
 20
-31.0
 30
0.0
 11
29.0
 21
-31.0
 31
0.0
  0
LINE
  5
17D
100
AcDbEntity
100
AcDbLine
  8
0
 62
256
370
-1
  6
DOT2
 10
29.0
 20
-31.0
 30
0.0
 11
29.0
 21
31.0
 31
0.0
  0
LINE
  5
17E
100
AcDbEntity
100
AcDbLine
  8
0
 62
256
370
-1
  6
DOT2
 10
29.0
 20
31.0
 30
0.0
 11
-29.0
 21
31.0
 31
0.0
  0
LINE
  5
17F
100
AcDbEntity
100
AcDbLine
  8
0
 62
256
370
-1
  6
DOT2
 10
-29.0
 20
31.0
 30
0.0
 11
-29.0
 21
-31.0
 31
0.0
  0
DIMENSION
  5
180
100
AcDbEntity
  8
0
 62
256
370
-1
  6
BYLAYER
100
AcDbDimension
 10
6.0
 20
23.2999999999999972
 30
0.0
 11
9.5469678027119187
 21
23.1763995699557341
 31
0.0
 70
129
 71
8
 72
2
 41
1.0
 42
0.0
  1
9/64"
  3
Standard
100
AcDbAlignedDimension
 13
-0.0
 23
23.2999999999999972
 33
0.0
 14
0.0000000000000001
 24
21.2999999999999972
 34
0.0
1001
ACAD
1000
DSTYLE
1002
{
1070
144
1040
1
1002
}
  0
CIRCLE
  5
181
100
AcDbEntity
100
AcDbCircle
  8
0
 62
256
370
-1
  6
DOT2
 10
0.0
 20
22.2999999999999972
 30
0.0
 40
1.0
  0
CIRCLE
  5
182
100
AcDbEntity
100
AcDbCircle
  8
0
 62
256
370
-1
  6
DOT2
 10
-0.0000000000000284
 20
-22.2999999999999972
 30
0.0
 40
1.0
  0
ENDBLK
  5
183
100
AcDbEntity
  8
0
100
AcDbBlockEnd
  0
BLOCK
  5
184
100
AcDbEntity
  8
0
100
AcDbBlockBegin
  2
control_pcb
 70
0
 10
0.0
 20
0.0
 30
0.0
  3
control_pcb
  1

  0
LINE
  5
185
100
AcDbEntity
100
AcDbLine
  8
0
 62
256
370
-1
  6
DASHED
 10
-70.7106781186547266
 20
-0.0000000000000142
 30
0.0
 11
-35.3553390593273633
 21
-35.3553390593273917
 31
0.0
  0
LINE
  5
186
100
AcDbEntity
100
AcDbLine
  8
0
 62
256
370
-1
  6
DASHED
 10
-35.3553390593273633
 20
-35.3553390593273917
 30
0.0
 11
0.0000000000000142
 21
-0.0000000000000142
 31
0.0
  0
LINE
  5
187
100
AcDbEntity
100
AcDbLine
  8
0
 62
256
370
-1
  6
DASHED
 10
0.0000000000000142
 20
-0.0000000000000142
 30
0.0
 11
-35.3553390593273562
 21
35.3553390593273633
 31
0.0
  0
LINE
  5
188
100
AcDbEntity
100
AcDbLine
  8
0
 62
256
370
-1
  6
DASHED
 10
-35.3553390593273562
 20
35.3553390593273633
 30
0.0
 11
-70.7106781186547266
 21
-0.0000000000000142
 31
0.0
  0
LINE
  5
189
100
AcDbEntity
100
AcDbLine
  8
0
 62
256
370
-1
  6
DASHED
 10
-61.9999999999999858
 20
-7.0000000000000284
 30
0.0
 11
-9.9999999999999858
 21
-7.0000000000000284
 31
0.0
  0
LINE
  5
18A
100
AcDbEntity
100
AcDbLine
  8
0
 62
256
370
-1
  6
DASHED
 10
-9.9999999999999858
 20
-7.0000000000000284
 30
0.0
 11
-9.9999999999999858
 21
6.9999999999999716
 31
0.0
  0
LINE
  5
18B
100
AcDbEntity
100
AcDbLine
  8
0
 62
256
370
-1
  6
DASHED
 10
-9.9999999999999858
 20
6.9999999999999716
 30
0.0
 11
-61.9999999999999858
 21
6.9999999999999716
 31
0.0
  0
LINE
  5
18C
100
AcDbEntity
100
AcDbLine
  8
0
 62
256
370
-1
  6
DASHED
 10
-61.9999999999999858
 20
6.9999999999999716
 30
0.0
 11
-61.9999999999999858
 21
-7.0000000000000284
 31
0.0
  0
LINE
  5
18D
100
AcDbEntity
100
AcDbLine
  8
0
 62
256
370
-1
  6
DASHED
 10
-52.9999999999999858
 20
-14.5000000000000284
 30
0.0
 11
-17.9999999999999858
 21
-14.5000000000000284
 31
0.0
  0
LINE
  5
18E
100
AcDbEntity
100
AcDbLine
  8
0
 62
256
370
-1
  6
DASHED
 10
-17.9999999999999858
 20
-14.5000000000000284
 30
0.0
 11
-17.9999999999999858
 21
10.4999999999999716
 31
0.0
  0
LINE
  5
18F
100
AcDbEntity
100
AcDbLine
  8
0
 62
256
370
-1
  6
DASHED
 10
-17.9999999999999858
 20
10.4999999999999716
 30
0.0
 11
-52.9999999999999858
 21
10.4999999999999716
 31
0.0
  0
LINE
  5
190
100
AcDbEntity
100
AcDbLine
  8
0
 62
256
370
-1
  6
DASHED
 10
-52.9999999999999858
 20
10.4999999999999716
 30
0.0
 11
-52.9999999999999858
 21
-14.5000000000000284
 31
0.0
  0
CIRCLE
  5
191
100
AcDbEntity
100
AcDbCircle
  8
0
 62
256
370
-1
  6
CONTINUOUS
 10
-35.3553390593273562
 20
-29.6984848098349943
 30
0.0
 40
1.0
  0
CIRCLE
  5
192
100
AcDbEntity
100
AcDbCircle
  8
0
 62
256
370
-1
  6
CONTINUOUS
 10
-35.3553390593273562
 20
29.6984848098349801
 30
0.0
 40
1.0
  0
ENDBLK
  5
193
100
AcDbEntity
  8
0
100
AcDbBlockEnd
  0
BLOCK
  5
194
100
AcDbEntity
  8
0
100
AcDbBlockBegin
  2
servo_mount
 70
0
 10
0.0
 20
0.0
 30
0.0
  3
servo_mount
  1

  0
CIRCLE
  5
195
100
AcDbEntity
100
AcDbCircle
  8
0
 62
256
370
-1
  6
BYLAYER
 10
0.0
 20
13.9999999999999982
 30
0.0
 40
0.5
  0
CIRCLE
  5
196
100
AcDbEntity
100
AcDbCircle
  8
0
 62
256
370
-1
  6
BYLAYER
 10
0.0
 20
-13.9999999999999982
 30
0.0
 40
0.5
  0
LINE
  5
197
100
AcDbEntity
100
AcDbLine
  8
0
 62
256
370
-1
  6
BYLAYER
 10
6.0
 20
-11.5
 30
0.0
 11
6.0
 21
11.5
 31
0.0
  0
LINE
  5
198
100
AcDbEntity
100
AcDbLine
  8
0
 62
256
370
-1
  6
BYLAYER
 10
6.0
 20
11.5
 30
0.0
 11
-5.9999999999999893
 21
11.5
 31
0.0
  0
LINE
  5
199
100
AcDbEntity
100
AcDbLine
  8
0
 62
256
370
-1
  6
BYLAYER
 10
-5.9999999999999893
 20
11.5
 30
0.0
 11
-6.0
 21
-11.4999999999999982
 31
0.0
  0
LINE
  5
19A
100
AcDbEntity
100
AcDbLine
  8
0
 62
256
370
-1
  6
BYLAYER
 10
-6.0
 20
-11.4999999999999982
 30
0.0
 11
6.0
 21
-11.5
 31
0.0
  0
DIMENSION
  5
19B
100
AcDbEntity
  8
0
 62
256
370
-1
  6
BYLAYER
100
AcDbDimension
 10
3.5654529172320153
 20
14.4999999999999982
 30
0.0
 11
1.8056235137575527
 21
6.4065370865184263
 31
0.0
 70
129
 71
8
 72
2
 41
1.0
 42
0.0
  1
1/16"
  3
Standard
100
AcDbAlignedDimension
 13
0.0
 23
14.4999999999999982
 33
0.0
 14
0.0
 24
13.4999999999999982
 34
0.0
1001
ACAD
1000
DSTYLE
1002
{
1070
144
1040
1
1002
}
  0
ENDBLK
  5
19C
100
AcDbEntity
  8
0
100
AcDbBlockEnd
  0
BLOCK
  5
19D
100
AcDbEntity
  8
0
100
AcDbBlockBegin
  2
tibia
 70
0
 10
0.0
 20
0.0
 30
0.0
  3
tibia
  1

  0
INSERT
  5
19E
100
AcDbEntity
100
AcDbBlockReference
  8
0
 62
256
370
-1
  6
BYLAYER
  2
servo_mount
 10
5.0
 20
-23.5
 30
0.0
  0
LINE
  5
19F
100
AcDbEntity
100
AcDbLine
  8
0
 62
256
370
-1
  6
BYLAYER
 10
15.0
 20
-37.0
 30
0.0
 11
15.0
 21
-10.0
 31
0.0
  0
LINE
  5
1A0
100
AcDbEntity
100
AcDbLine
  8
0
 62
256
370
-1
  6
BYLAYER
 10
-5.0
 20
-5.0
 30
0.0
 11
-5.0
 21
-42.0
 31
0.0
  0
LINE
  5
1A1
100
AcDbEntity
100
AcDbLine
  8
0
 62
256
370
-1
  6
BYLAYER
 10
0.0
 20
-57.0
 30
0.0
 11
0.0
 21
-57.0
 31
0.0
  0
LINE
  5
1A2
100
AcDbEntity
100
AcDbLine
  8
0
 62
256
370
-1
  6
BYLAYER
 10
5.0
 20
-52.0
 30
0.0
 11
5.0
 21
-47.0
 31
0.0
  0
LINE
  5
1A3
100
AcDbEntity
100
AcDbLine
  8
0
 62
256
370
-1
  6
BYLAYER
 10
-5.0
 20
-42.0
 30
0.0
 11
-5.0
 21
-52.0
 31
0.0
  0
LINE
  5
1A4
100
AcDbEntity
100
AcDbLine
  8
0
 62
256
370
-1
  6
BYLAYER
 10
10.0
 20
-42.0
 30
0.0
 11
10.0
 21
-42.0
 31
0.0
  0
LINE
  5
1A5
100
AcDbEntity
100
AcDbLine
  8
0
 62
256
370
-1
  6
BYLAYER
 10
5.0
 20
0.0
 30
0.0
 11
5.0
 21
0.0
 31
0.0
  0
LINE
  5
1A6
100
AcDbEntity
100
AcDbLine
  8
0
 62
256
370
-1
  6
BYLAYER
 10
0.0
 20
5.0
 30
0.0
 11
0.0
 21
5.0
 31
0.0
  0
LINE
  5
1A7
100
AcDbEntity
100
AcDbLine
  8
0
 62
256
370
-1
  6
BYLAYER
 10
-5.0
 20
0.0
 30
0.0
 11
-5.0
 21
-5.0
 31
0.0
  0
LINE
  5
1A8
100
AcDbEntity
100
AcDbLine
  8
0
 62
256
370
-1
  6
BYLAYER
 10
10.0
 20
-5.0
 30
0.0
 11
10.0
 21
-5.0
 31
0.0
  0
ARC
  5
1A9
100
AcDbEntity
  8
0
 62
256
370
-1
  6
BYLAYER
100
AcDbCircle
 10
0.0
 20
0.0
 30
0.0
 40
5.0
100
AcDbArc
 50
90.0
 51
180.0
  0
ARC
  5
1AA
100
AcDbEntity
  8
0
 62
256
370
-1
  6
BYLAYER
100
AcDbCircle
 10
0.0
 20
0.0
 30
0.0
 40
5.0
100
AcDbArc
 50
0.0
 51
90.0
  0
ARC
  5
1AB
100
AcDbEntity
  8
0
 62
256
370
-1
  6
BYLAYER
100
AcDbCircle
 10
10.0
 20
-10.0000000000000018
 30
0.0
 40
5.0
100
AcDbArc
 50
0.0
 51
90.0
  0
ARC
  5
1AC
100
AcDbEntity
  8
0
 62
256
370
-1
  6
BYLAYER
100
AcDbCircle
 10
10.0
 20
-37.0
 30
0.0
 40
5.0
100
AcDbArc
 50
270.0
 51
0.0
  0
ARC
  5
1AD
100
AcDbEntity
  8
0
 62
256
370
-1
  6
BYLAYER
100
AcDbCircle
 10
0.0
 20
-52.0
 30
0.0
 40
5.0
100
AcDbArc
 50
180.0
 51
270.0
  0
ARC
  5
1AE
100
AcDbEntity
  8
0
 62
256
370
-1
  6
BYLAYER
100
AcDbCircle
 10
0.0
 20
-52.0
 30
0.0
 40
5.0
100
AcDbArc
 50
270.0
 51
0.0
  0
CIRCLE
  5
1AF
100
AcDbEntity
100
AcDbCircle
  8
0
 62
256
370
-1
  6
BYLAYER
 10
0.0
 20
0.0
 30
0.0
 40
1.5
  0
DIMENSION
  5
1B0
100
AcDbEntity
  8
0
 62
256
370
-1
  6
BYLAYER
100
AcDbDimension
 10
1.4999999999999996
 20
-3.0
 30
0.0
 11
1.0
 21
-6.0
 31
0.0
 70
129
 71
8
 72
2
 41
1.0
 42
0.0
  1
9/64"
  3
Standard
100
AcDbAlignedDimension
 13
1.5
 23
0.0
 33
0.0
 14
-1.5
 24
0.0
 34
0.0
1001
ACAD
1000
DSTYLE
1002
{
1070
144
1040
1
1002
}
  0
ARC
  5
1B1
100
AcDbEntity
  8
0
 62
256
370
-1
  6
BYLAYER
100
AcDbCircle
 10
10.0
 20
-47.0
 30
0.0
 40
5.0
100
AcDbArc
 50
90.0
 51
180.0
  0
ARC
  5
1B2
100
AcDbEntity
  8
0
 62
256
370
-1
  6
BYLAYER
100
AcDbCircle
 10
10.0
 20
-0.0
 30
0.0
 40
5.0
100
AcDbArc
 50
180.0
 51
270.0
  0
ENDBLK
  5
1B3
100
AcDbEntity
  8
0
100
AcDbBlockEnd
  0
ENDSEC
  0
SECTION
  2
ENTITIES
  0
INSERT
  5
1B4
100
AcDbEntity
100
AcDbBlockReference
  8
0
 62
256
370
-1
  6
BYLAYER
  2
femur_tibia
 10
15.0
 20
25.0
 30
0.0
 50
90.0
  0
INSERT
  5
1B5
100
AcDbEntity
100
AcDbBlockReference
  8
0
 62
256
370
-1
  6
BYLAYER
  2
femur_horizontal
 10
59.2688495083469604
 20
92.5201721978815783
 30
0.0
 50
180.0
  0
INSERT
  5
1B6
100
AcDbEntity
100
AcDbBlockReference
  8
0
 62
256
370
-1
  6
BYLAYER
  2
femur_vertical
 10
39.2688495083469604
 20
92.5201721978815499
 30
0.0
 50
180.0
  0
INSERT
  5
1B7
100
AcDbEntity
100
AcDbBlockReference
  8
0
 62
256
370
-1
  6
BYLAYER
  2
tibia
 10
70.2677489312592343
 20
115.0403443957631282
 30
0.0
 50
270.0
  0
INSERT
  5
1B8
100
AcDbEntity
100
AcDbBlockReference
  8
0
 62
256
370
-1
  6
BYLAYER
  2
body_top
 10
140.1557096655386658
 20
43.2628529343195254
 30
0.0
  0
INSERT
  5
1B9
100
AcDbEntity
100
AcDbBlockReference
  8
0
 62
256
370
-1
  6
BYLAYER
  2
body_bottom
 10
146.863252525167411
 20
129.8653933127633877
 30
0.0
  0
INSERT
  5
1BA
100
AcDbEntity
100
AcDbBlockReference
  8
0
 62
256
370
-1
  6
BYLAYER
  2
femur_tibia
 10
4.9999999999999716
 20
25.0
 30
0.0
 50
90.0
  0
INSERT
  5
1BB
100
AcDbEntity
100
AcDbBlockReference
  8
0
 62
256
370
-1
  6
BYLAYER
  2
femur_tibia
 10
25.0
 20
25.0
 30
0.0
 50
90.0
  0
INSERT
  5
1BC
100
AcDbEntity
100
AcDbBlockReference
  8
0
 62
256
370
-1
  6
BYLAYER
  2
femur_tibia
 10
34.9999999999999432
 20
24.9999999999999716
 30
0.0
 50
90.0
  0
INSERT
  5
1BD
100
AcDbEntity
100
AcDbBlockReference
  8
0
 62
256
370
-1
  6
BYLAYER
  2
femur_tibia
 10
55.0
 20
25.0000000000000284
 30
0.0
 50
90.0
  0
INSERT
  5
1BE
100
AcDbEntity
100
AcDbBlockReference
  8
0
 62
256
370
-1
  6
BYLAYER
  2
femur_tibia
 10
44.9999999999999432
 20
25.0
 30
0.0
 50
90.0
  0
INSERT
  5
1BF
100
AcDbEntity
100
AcDbBlockReference
  8
0
 62
256
370
-1
  6
BYLAYER
  2
femur_tibia
 10
74.9999999999999716
 20
25.0000000000000284
 30
0.0
 50
90.0
  0
INSERT
  5
1C0
100
AcDbEntity
100
AcDbBlockReference
  8
0
 62
256
370
-1
  6
BYLAYER
  2
femur_tibia
 10
190.0
 20
180.0
 30
0.0
 50
270.0
  0
INSERT
  5
1C1
100
AcDbEntity
100
AcDbBlockReference
  8
0
 62
256
370
-1
  6
BYLAYER
  2
femur_tibia
 10
84.9999999999999716
 20
25.0000000000000284
 30
0.0
 50
90.0
  0
INSERT
  5
1C2
100
AcDbEntity
100
AcDbBlockReference
  8
0
 62
256
370
-1
  6
BYLAYER
  2
femur_tibia
 10
190.0
 20
80.0
 30
0.0
 50
270.0
  0
INSERT
  5
1C3
100
AcDbEntity
100
AcDbBlockReference
  8
0
 62
256
370
-1
  6
BYLAYER
  2
femur_tibia
 10
99.0
 20
185.0
 30
0.0
 50
200.0
  0
INSERT
  5
1C4
100
AcDbEntity
100
AcDbBlockReference
  8
0
 62
256
370
-1
  6
BYLAYER
  2
femur_tibia
 10
64.9999999999999716
 20
25.0000000000000284
 30
0.0
 50
90.0
  0
INSERT
  5
1C5
100
AcDbEntity
100
AcDbBlockReference
  8
0
 62
256
370
-1
  6
BYLAYER
  2
body_middle
 10
147.4393103278132457
 20
216.4534276551612777
 30
0.0
  0
INSERT
  5
1C6
100
AcDbEntity
100
AcDbBlockReference
  8
0
 62
256
370
-1
  6
BYLAYER
  2
femur_horizontal
 10
48.2688495083469604
 20
77.5201721978815499
 30
0.0
 50
360.0
  0
INSERT
  5
1C7
100
AcDbEntity
100
AcDbBlockReference
  8
0
 62
256
370
-1
  6
BYLAYER
  2
femur_vertical
 10
68.268849508346932
 20
77.5201721978815499
 30
0.0
 50
360.0
  0
INSERT
  5
1C8
100
AcDbEntity
100
AcDbBlockReference
  8
0
 62
256
370
-1
  6
BYLAYER
  2
tibia
 10
37.2699500854347434
 20
55.0
 30
0.0
 50
450.0
  0
INSERT
  5
1C9
100
AcDbEntity
100
AcDbBlockReference
  8
0
 62
256
370
-1
  6
BYLAYER
  2
femur_horizontal
 10
48.2688495083470457
 20
217.5201721978818341
 30
0.0
 50
360.0
  0
INSERT
  5
1CA
100
AcDbEntity
100
AcDbBlockReference
  8
0
 62
256
370
-1
  6
BYLAYER
  2
femur_vertical
 10
68.2688495083470457
 20
217.5201721978816067
 30
0.0
 50
360.0
  0
INSERT
  5
1CB
100
AcDbEntity
100
AcDbBlockReference
  8
0
 62
256
370
-1
  6
BYLAYER
  2
tibia
 10
37.2699500854347718
 20
195.0
 30
0.0
 50
450.0
  0
INSERT
  5
1CC
100
AcDbEntity
100
AcDbBlockReference
  8
0
 62
256
370
-1
  6
BYLAYER
  2
femur_horizontal
 10
59.2688495083468183
 20
232.5201721978817204
 30
0.0
 50
180.0
  0
INSERT
  5
1CD
100
AcDbEntity
100
AcDbBlockReference
  8
0
 62
256
370
-1
  6
BYLAYER
  2
femur_vertical
 10
39.2688495083469888
 20
232.5201721978821752
 30
0.0
 50
180.0
  0
INSERT
  5
1CE
100
AcDbEntity
100
AcDbBlockReference
  8
0
 62
256
370
-1
  6
BYLAYER
  2
tibia
 10
70.2677489312594332
 20
255.0403443957631566
 30
0.0
 50
270.0
  0
INSERT
  5
1CF
100
AcDbEntity
100
AcDbBlockReference
  8
0
 62
256
370
-1
  6
BYLAYER
  2
femur_horizontal
 10
48.2688495083469888
 20
147.5201721978815499
 30
0.0
 50
360.0
  0
INSERT
  5
1D0
100
AcDbEntity
100
AcDbBlockReference
  8
0
 62
256
370
-1
  6
BYLAYER
  2
femur_vertical
 10
68.2688495083469604
 20
147.5201721978815499
 30
0.0
 50
360.0
  0
INSERT
  5
1D1
100
AcDbEntity
100
AcDbBlockReference
  8
0
 62
256
370
-1
  6
BYLAYER
  2
tibia
 10
37.269950085434715
 20
125.0
 30
0.0
 50
450.0
  0
INSERT
  5
1D2
100
AcDbEntity
100
AcDbBlockReference
  8
0
 62
256
370
-1
  6
BYLAYER
  2
femur_horizontal
 10
59.268849508346932
 20
162.5201721978815499
 30
0.0
 50
180.0
  0
INSERT
  5
1D3
100
AcDbEntity
100
AcDbBlockReference
  8
0
 62
256
370
-1
  6
BYLAYER
  2
femur_vertical
 10
39.2688495083469888
 20
162.5201721978815499
 30
0.0
 50
180.0
  0
INSERT
  5
1D4
100
AcDbEntity
100
AcDbBlockReference
  8
0
 62
256
370
-1
  6
BYLAYER
  2
tibia
 10
70.2677489312592911
 20
185.0403443957631566
 30
0.0
 50
270.0
  0
INSERT
  5
1D5
100
AcDbEntity
100
AcDbBlockReference
  8
0
 62
256
370
-1
  6
BYLAYER
  2
femur_crossbrace
 10
28.268849508346932
 20
199.6951721978815613
 30
0.0
 50
90.0
  0
INSERT
  5
1D6
100
AcDbEntity
100
AcDbBlockReference
  8
0
 62
256
370
-1
  6
BYLAYER
  2
femur_crossbrace
 10
15.268849508346932
 20
207.6951721978815613
 30
0.0
 50
90.0
  0
INSERT
  5
1D7
100
AcDbEntity
100
AcDbBlockReference
  8
0
 62
256
370
-1
  6
BYLAYER
  2
femur_crossbrace
 10
15.268849508346932
 20
199.6951721978815613
 30
0.0
 50
90.0
  0
INSERT
  5
1D8
100
AcDbEntity
100
AcDbBlockReference
  8
0
 62
256
370
-1
  6
BYLAYER
  2
femur_crossbrace
 10
2.2688495083469888
 20
191.6951721978815613
 30
0.0
 50
180.0
  0
INSERT
  5
1D9
100
AcDbEntity
100
AcDbBlockReference
  8
0
 62
256
370
-1
  6
BYLAYER
  2
femur_crossbrace
 10
2.2688495083469888
 20
178.6951721978815613
 30
0.0
 50
180.0
  0
INSERT
  5
1DA
100
AcDbEntity
100
AcDbBlockReference
  8
0
 62
256
370
-1
  6
BYLAYER
  2
femur_crossbrace
 10
2.2688495083469888
 20
165.6951721978815613
 30
0.0
 50
180.0
  0
ENDSEC
  0
SECTION
  2
OBJECTS
  0
DICTIONARY
  5
C
100
AcDbDictionary
280
0
281
1
  3
ACAD_GROUP
350
D
  3
ACAD_LAYOUT
350
1A
  3
ACAD_MLINESTYLE
350
17
  3
ACAD_PLOTSETTINGS
350
19
  3
ACAD_PLOTSTYLENAME
350
E
  3
AcDbVariableDictionary
350
1DB
  3
QCAD_OBJECTS
350
1DC
  0
DICTIONARY
  5
D
100
AcDbDictionary
280
0
281
1
  0
ACDBDICTIONARYWDFLT
  5
E
100
AcDbDictionary
281
1
  3
Normal
350
F
100
AcDbDictionaryWithDefault
340
F
  0
ACDBPLACEHOLDER
  5
F
  0
DICTIONARY
  5
17
100
AcDbDictionary
280
0
281
1
  3
Standard
350
18
  0
MLINESTYLE
  5
18
100
AcDbMlineStyle
  2
STANDARD
 70
0
  3

 62
256
 51
90.0
 52
90.0
 71
2
 49
0.5
 62
256
  6
BYLAYER
 49
-0.5
 62
256
  6
BYLAYER
  0
DICTIONARY
  5
19
100
AcDbDictionary
280
0
281
1
  0
DICTIONARY
  5
1A
100
AcDbDictionary
281
1
  3
Layout1
350
1E
  3
Layout2
350
26
  3
Model
350
22
  0
LAYOUT
  5
1E
100
AcDbPlotSettings
  1

  2
none_device
  4

  6

 40
0.0
 41
0.0
 42
0.0
 43
0.0
 44
0.0
 45
0.0
 46
0.0
 47
0.0
 48
0.0
 49
0.0
140
0.0
141
0.0
142
1.0
143
1.0
 70
688
 72
0
 73
0
 74
5
  7

 75
16
147
1.0
148
0.0
149
0.0
100
AcDbLayout
  1
Layout1
 70
1
 71
1
 10
0.0
 20
0.0
 11
420.0
 21
297.0
 12
0.0
 22
0.0
 32
0.0
 14
100000000000000000000.0
 24
100000000000000000000.0
 34
100000000000000000000.0
 15
-100000000000000000000.0
 25
-100000000000000000000.0
 35
-100000000000000000000.0
146
0.0
 13
0.0
 23
0.0
 33
0.0
 16
1.0
 26
0.0
 36
0.0
 17
0.0
 27
1.0
 37
0.0
 76
0
330
1B
  0
LAYOUT
  5
22
100
AcDbPlotSettings
  1

  2
none_device
  4

  6

 40
0.0
 41
0.0
 42
0.0
 43
0.0
 44
0.0
 45
0.0
 46
0.0
 47
0.0
 48
0.0
 49
0.0
140
0.0
141
0.0
142
1.0
143
1.0
 70
1712
 72
0
 73
0
 74
0
  7

 75
0
147
1.0
148
0.0
149
0.0
100
AcDbLayout
  1
Model
 70
1
 71
0
 10
0.0
 20
0.0
 11
12.0
 21
9.0
 12
0.0
 22
0.0
 32
0.0
 14
0.0
 24
0.0
 34
0.0
 15
0.0
 25
0.0
 35
0.0
146
0.0
 13
0.0
 23
0.0
 33
0.0
 16
1.0
 26
0.0
 36
0.0
 17
0.0
 27
1.0
 37
0.0
 76
0
330
1F
  0
LAYOUT
  5
26
100
AcDbPlotSettings
  1

  2
none_device
  4

  6

 40
0.0
 41
0.0
 42
0.0
 43
0.0
 44
0.0
 45
0.0
 46
0.0
 47
0.0
 48
0.0
 49
0.0
140
0.0
141
0.0
142
1.0
143
1.0
 70
688
 72
0
 73
0
 74
5
  7

 75
16
147
1.0
148
0.0
149
0.0
100
AcDbLayout
  1
Layout2
 70
1
 71
2
 10
0.0
 20
0.0
 11
12.0
 21
9.0
 12
0.0
 22
0.0
 32
0.0
 14
0.0
 24
0.0
 34
0.0
 15
0.0
 25
0.0
 35
0.0
146
0.0
 13
0.0
 23
0.0
 33
0.0
 16
1.0
 26
0.0
 36
0.0
 17
0.0
 27
1.0
 37
0.0
 76
0
330
23
  0
DICTIONARY
  5
1DB
100
AcDbDictionary
281
1
  3
DIMASSOC
350
1DE
  3
HIDETEXT
350
1DD
  0
DICTIONARYVAR
  5
1DD
100
DictionaryVariables
280
0
  1
2
  0
DICTIONARYVAR
  5
1DE
100
DictionaryVariables
280
0
  1
1
  0
DICTIONARY
  5
1DC
100
AcDbDictionary
281
1
  3
Grid/DisplayGrid00
350
1DF
  3
Grid/DisplayGrid01
350
1E0
  3
Grid/DisplayGrid02
350
1E1
  3
Grid/DisplayGrid03
350
1E2
  3
Grid/GridSpacingX00
350
1E3
  3
Grid/GridSpacingX01
350
1E4
  3
Grid/GridSpacingX02
350
1E5
  3
Grid/GridSpacingX03
350
1E6
  3
Grid/GridSpacingY00
350
1E7
  3
Grid/GridSpacingY01
350
1E8
  3
Grid/GridSpacingY02
350
1E9
  3
Grid/GridSpacingY03
350
1EA
  3
Grid/IsometricGrid00
350
1EB
  3
Grid/IsometricGrid01
350
1EC
  3
Grid/IsometricGrid02
350
1ED
  3
Grid/IsometricGrid03
350
1EE
  3
Grid/IsometricProjection00
350
1EF
  3
Grid/IsometricProjection01
350
1F0
  3
Grid/IsometricProjection02
350
1F1
  3
Grid/IsometricProjection03
350
1F2
  3
Grid/MetaGridSpacingX00
350
1F3
  3
Grid/MetaGridSpacingX01
350
1F4
  3
Grid/MetaGridSpacingX02
350
1F5
  3
Grid/MetaGridSpacingX03
350
1F6
  3
Grid/MetaGridSpacingY00
350
1F7
  3
Grid/MetaGridSpacingY01
350
1F8
  3
Grid/MetaGridSpacingY02
350
1F9
  3
Grid/MetaGridSpacingY03
350
1FA
  3
MultiPageSettings/Columns
350
1FB
  3
MultiPageSettings/GlueMarginsBottom
350
1FC
  3
MultiPageSettings/GlueMarginsLeft
350
1FD
  3
MultiPageSettings/GlueMarginsRight
350
1FE
  3
MultiPageSettings/GlueMarginsTop
350
1FF
  3
MultiPageSettings/PrintCropMarks
350
200
  3
MultiPageSettings/Rows
350
201
  3
PageSettings/OffsetX
350
202
  3
PageSettings/OffsetY
350
203
  3
PageSettings/PageOrientation
350
204
  3
PageSettings/PaperHeight
350
205
  3
PageSettings/PaperWidth
350
206
  3
PageSettings/Scale
350
207
  3
PageSettings/ShowPaperBorders
350
208
  3
UnitSettings/PaperUnit
350
209
  0
XRECORD
  5
1DF
330
1DC
100
AcDbXrecord
280
1
290
1
  0
XRECORD
  5
1E0
330
1DC
100
AcDbXrecord
280
1
290
1
  0
XRECORD
  5
1E1
330
1DC
100
AcDbXrecord
280
1
290
1
  0
XRECORD
  5
1E2
330
1DC
100
AcDbXrecord
280
1
290
1
  0
XRECORD
  5
1E3
330
1DC
100
AcDbXrecord
280
1
1000
auto
  0
XRECORD
  5
1E4
330
1DC
100
AcDbXrecord
280
1
1000
auto
  0
XRECORD
  5
1E5
330
1DC
100
AcDbXrecord
280
1
1000
auto
  0
XRECORD
  5
1E6
330
1DC
100
AcDbXrecord
280
1
1000
auto
  0
XRECORD
  5
1E7
330
1DC
100
AcDbXrecord
280
1
1000
auto
  0
XRECORD
  5
1E8
330
1DC
100
AcDbXrecord
280
1
1000
auto
  0
XRECORD
  5
1E9
330
1DC
100
AcDbXrecord
280
1
1000
auto
  0
XRECORD
  5
1EA
330
1DC
100
AcDbXrecord
280
1
1000
auto
  0
XRECORD
  5
1EB
330
1DC
100
AcDbXrecord
280
1
290
0
  0
XRECORD
  5
1EC
330
1DC
100
AcDbXrecord
280
1
290
0
  0
XRECORD
  5
1ED
330
1DC
100
AcDbXrecord
280
1
290
0
  0
XRECORD
  5
1EE
330
1DC
100
AcDbXrecord
280
1
290
0
  0
XRECORD
  5
1EF
330
1DC
100
AcDbXrecord
280
1
 90
0
  0
XRECORD
  5
1F0
330
1DC
100
AcDbXrecord
280
1
 90
0
  0
XRECORD
  5
1F1
330
1DC
100
AcDbXrecord
280
1
 90
0
  0
XRECORD
  5
1F2
330
1DC
100
AcDbXrecord
280
1
 90
0
  0
XRECORD
  5
1F3
330
1DC
100
AcDbXrecord
280
1
1000
auto
  0
XRECORD
  5
1F4
330
1DC
100
AcDbXrecord
280
1
1000
auto
  0
XRECORD
  5
1F5
330
1DC
100
AcDbXrecord
280
1
1000
auto
  0
XRECORD
  5
1F6
330
1DC
100
AcDbXrecord
280
1
1000
auto
  0
XRECORD
  5
1F7
330
1DC
100
AcDbXrecord
280
1
1000
auto
  0
XRECORD
  5
1F8
330
1DC
100
AcDbXrecord
280
1
1000
auto
  0
XRECORD
  5
1F9
330
1DC
100
AcDbXrecord
280
1
1000
auto
  0
XRECORD
  5
1FA
330
1DC
100
AcDbXrecord
280
1
1000
auto
  0
XRECORD
  5
1FB
330
1DC
100
AcDbXrecord
280
1
 90
1
  0
XRECORD
  5
1FC
330
1DC
100
AcDbXrecord
280
1
 40
10.0
  0
XRECORD
  5
1FD
330
1DC
100
AcDbXrecord
280
1
 40
10.0
  0
XRECORD
  5
1FE
330
1DC
100
AcDbXrecord
280
1
 40
10.0
  0
XRECORD
  5
1FF
330
1DC
100
AcDbXrecord
280
1
 40
10.0
  0
XRECORD
  5
200
330
1DC
100
AcDbXrecord
280
1
290
0
  0
XRECORD
  5
201
330
1DC
100
AcDbXrecord
280
1
 90
1
  0
XRECORD
  5
202
330
1DC
100
AcDbXrecord
280
1
 40
-10.0639284062826029
  0
XRECORD
  5
203
330
1DC
100
AcDbXrecord
280
1
 40
-10.0775747396167059
  0
XRECORD
  5
204
330
1DC
100
AcDbXrecord
280
1
1000
Portrait
  0
XRECORD
  5
205
330
1DC
100
AcDbXrecord
280
1
 40
279.3999999999999773
  0
XRECORD
  5
206
330
1DC
100
AcDbXrecord
280
1
 40
215.9000000000000057
  0
XRECORD
  5
207
330
1DC
100
AcDbXrecord
280
1
1000
1:1
  0
XRECORD
  5
208
330
1DC
100
AcDbXrecord
280
1
290
1
  0
XRECORD
  5
209
330
1DC
100
AcDbXrecord
280
1
 90
4
  0
ENDSEC
  0
EOF
