999
dxflib 3.3.4.0
  0
SECTION
  2
HEADER
  9
$ACADVER
  1
AC1015
  9
$HANDSEED
  5
FFFF
  9
$DIMADEC
 70
0
  9
$DIMASZ
 40
2.5
  9
$DIMAUNIT
 70
0
  9
$DIMAZIN
 70
2
  9
$DIMDEC
 70
4
  9
$DIMEXE
 40
1.25
  9
$DIMEXO
 40
0.625
  9
$DIMGAP
 40
0.625
  9
$DIMLUNIT
 70
2
  9
$DIMTSZ
 40
0.0
  9
$DIMTXT
 40
2.5
  9
$DIMZIN
 70
8
  9
$DWGCODEPAGE
  3
ANSI_1252
  9
$INSUNITS
 70
4
  9
$LTSCALE
 40
1.0
  0
ENDSEC
  0
SECTION
  2
TABLES
  0
TABLE
  2
VPORT
  5
8
100
AcDbSymbolTable
 70
1
  0
VPORT
  5
30
100
AcDbSymbolTableRecord
100
AcDbViewportTableRecord
  2
*Active
 70
0
 10
0.0
 20
0.0
 11
1.0
 21
1.0
 12
286.3055555555554861
 22
148.5
 13
0.0
 23
0.0
 14
10.0
 24
10.0
 15
10.0
 25
10.0
 16
0.0
 26
0.0
 36
1.0
 17
0.0
 27
0.0
 37
0.0
 40
297.0
 41
1.92798353909465
 42
50.0
 43
0.0
 44
0.0
 50
0.0
 51
0.0
 71
0
 72
100
 73
1
 74
3
 75
1
 76
1
 77
0
 78
0
281
0
 65
1
110
0.0
120
0.0
130
0.0
111
1.0
121
0.0
131
0.0
112
0.0
122
1.0
132
0.0
 79
0
146
0.0
  0
ENDTAB
  0
TABLE
  2
LTYPE
  5
5
100
AcDbSymbolTable
 70
21
  0
LTYPE
  5
16
100
AcDbSymbolTableRecord
100
AcDbLinetypeTableRecord
  2
CONTINUOUS
 70
0
  3
Solid line
 72
65
 73
0
 40
0.0
  0
LTYPE
  5
31
100
AcDbSymbolTableRecord
100
AcDbLinetypeTableRecord
  2
CENTER2
 70
0
  3
Center (.5x) ___ _ ___ _ ___ _ ___ _ ___ _ ___
 72
65
 73
4
 40
28.5749999999999993
 49
19.0500000000000007
 74
0
 49
-3.1749999999999998
 74
0
 49
3.1749999999999998
 74
0
 49
-3.1749999999999998
 74
0
  0
LTYPE
  5
32
100
AcDbSymbolTableRecord
100
AcDbLinetypeTableRecord
  2
DIVIDEX2
 70
0
  3
Divide (2x) ________  .  .  ________  .  .  _
 72
65
 73
6
 40
63.5
 49
25.3999999999999986
 74
0
 49
-12.6999999999999993
 74
0
 49
0.0
 74
0
 49
-12.6999999999999993
 74
0
 49
0.0
 74
0
 49
-12.6999999999999993
 74
0
  0
LTYPE
  5
33
100
AcDbSymbolTableRecord
100
AcDbLinetypeTableRecord
  2
DOT2
 70
0
  3
Dot (.5x) .....................................
 72
65
 73
2
 40
3.1749999999999998
 49
0.0
 74
0
 49
-3.1749999999999998
 74
0
  0
LTYPE
  5
34
100
AcDbSymbolTableRecord
100
AcDbLinetypeTableRecord
  2
DASHDOT2
 70
0
  3
Dash dot (.5x) _._._._._._._._._._._._._._._.
 72
65
 73
4
 40
12.6999999999999993
 49
6.3499999999999996
 74
0
 49
-3.1749999999999998
 74
0
 49
0.0
 74
0
 49
-3.1749999999999998
 74
0
  0
LTYPE
  5
35
100
AcDbSymbolTableRecord
100
AcDbLinetypeTableRecord
  2
DIVIDE
 70
0
  3
Divide ____ . . ____ . . ____ . . ____ . . ____
 72
65
 73
6
 40
31.75
 49
12.6999999999999993
 74
0
 49
-6.3499999999999996
 74
0
 49
0.0
 74
0
 49
-6.3499999999999996
 74
0
 49
0.0
 74
0
 49
-6.3499999999999996
 74
0
  0
LTYPE
  5
36
100
AcDbSymbolTableRecord
100
AcDbLinetypeTableRecord
  2
DASHDOT
 70
0
  3
Dash dot __ . __ . __ . __ . __ . __ . __ . __
 72
65
 73
4
 40
25.3999999999999986
 49
12.6999999999999993
 74
0
 49
-6.3499999999999996
 74
0
 49
0.0
 74
0
 49
-6.3499999999999996
 74
0
  0
LTYPE
  5
37
100
AcDbSymbolTableRecord
100
AcDbLinetypeTableRecord
  2
BORDER
 70
0
  3
Border __ __ . __ __ . __ __ . __ __ . __ __ .
 72
65
 73
6
 40
44.4500000000000028
 49
12.6999999999999993
 74
0
 49
-6.3499999999999996
 74
0
 49
12.6999999999999993
 74
0
 49
-6.3499999999999996
 74
0
 49
0.0
 74
0
 49
-6.3499999999999996
 74
0
  0
LTYPE
  5
38
100
AcDbSymbolTableRecord
100
AcDbLinetypeTableRecord
  2
DASHDOTX2
 70
0
  3
Dash dot (2x) ____  .  ____  .  ____  .  ___
 72
65
 73
4
 40
50.7999999999999972
 49
25.3999999999999986
 74
0
 49
-12.6999999999999993
 74
0
 49
0.0
 74
0
 49
-12.6999999999999993
 74
0
  0
LTYPE
  5
39
100
AcDbSymbolTableRecord
100
AcDbLinetypeTableRecord
  2
CENTERX2
 70
0
  3
Center (2x) ________  __  ________  __  _____
 72
65
 73
4
 40
101.5999999999999943
 49
63.5
 74
0
 49
-12.6999999999999993
 74
0
 49
12.6999999999999993
 74
0
 49
-12.6999999999999993
 74
0
  0
LTYPE
  5
3A
100
AcDbSymbolTableRecord
100
AcDbLinetypeTableRecord
  2
BORDER2
 70
0
  3
Border (.5x) __.__.__.__.__.__.__.__.__.__.__.
 72
65
 73
6
 40
22.2250000000000014
 49
6.3499999999999996
 74
0
 49
-3.1749999999999998
 74
0
 49
6.3499999999999996
 74
0
 49
-3.1749999999999998
 74
0
 49
0.0
 74
0
 49
-3.1749999999999998
 74
0
  0
LTYPE
  5
3B
100
AcDbSymbolTableRecord
100
AcDbLinetypeTableRecord
  2
BORDERX2
 70
0
  3
Border (2x) ____  ____  .  ____  ____  .  ___
 72
65
 73
6
 40
88.9000000000000057
 49
25.3999999999999986
 74
0
 49
-12.6999999999999993
 74
0
 49
25.3999999999999986
 74
0
 49
-12.6999999999999993
 74
0
 49
0.0
 74
0
 49
-12.6999999999999993
 74
0
  0
LTYPE
  5
14
100
AcDbSymbolTableRecord
100
AcDbLinetypeTableRecord
  2
BYBLOCK
 70
0
  3

 72
65
 73
0
 40
0.0
  0
LTYPE
  5
15
100
AcDbSymbolTableRecord
100
AcDbLinetypeTableRecord
  2
BYLAYER
 70
0
  3

 72
65
 73
0
 40
0.0
  0
LTYPE
  5
3C
100
AcDbSymbolTableRecord
100
AcDbLinetypeTableRecord
  2
DASHED2
 70
0
  3
Dashed (.5x) _ _ _ _ _ _ _ _ _ _ _ _ _ _ _ _ _
 72
65
 73
2
 40
9.5250000000000004
 49
6.3499999999999996
 74
0
 49
-3.1749999999999998
 74
0
  0
LTYPE
  5
3D
100
AcDbSymbolTableRecord
100
AcDbLinetypeTableRecord
  2
CENTER
 70
0
  3
Center ____ _ ____ _ ____ _ ____ _ ____ _ ____
 72
65
 73
4
 40
50.7999999999999972
 49
31.75
 74
0
 49
-6.3499999999999996
 74
0
 49
6.3499999999999996
 74
0
 49
-6.3499999999999996
 74
0
  0
LTYPE
  5
3E
100
AcDbSymbolTableRecord
100
AcDbLinetypeTableRecord
  2
DIVIDE2
 70
0
  3
Divide (.5x) __..__..__..__..__..__..__..__.._
 72
65
 73
6
 40
15.875
 49
6.3499999999999996
 74
0
 49
-3.1749999999999998
 74
0
 49
0.0
 74
0
 49
-3.1749999999999998
 74
0
 49
0.0
 74
0
 49
-3.1749999999999998
 74
0
  0
LTYPE
  5
3F
100
AcDbSymbolTableRecord
100
AcDbLinetypeTableRecord
  2
DASHED
 70
0
  3
Dashed __ __ __ __ __ __ __ __ __ __ __ __ __ _
 72
65
 73
2
 40
19.0500000000000007
 49
12.6999999999999993
 74
0
 49
-6.3499999999999996
 74
0
  0
LTYPE
  5
40
100
AcDbSymbolTableRecord
100
AcDbLinetypeTableRecord
  2
DOTX2
 70
0
  3
Dot (2x) .  .  .  .  .  .  .  .  .  .  .  .  .
 72
65
 73
2
 40
12.6999999999999993
 49
0.0
 74
0
 49
-12.6999999999999993
 74
0
  0
LTYPE
  5
41
100
AcDbSymbolTableRecord
100
AcDbLinetypeTableRecord
  2
DASHEDX2
 70
0
  3
Dashed (2x) ____  ____  ____  ____  ____  ___
 72
65
 73
2
 40
38.1000000000000014
 49
25.3999999999999986
 74
0
 49
-12.6999999999999993
 74
0
  0
LTYPE
  5
42
100
AcDbSymbolTableRecord
100
AcDbLinetypeTableRecord
  2
DOT
 70
0
  3
Dot . . . . . . . . . . . . . . . . . . . . . .
 72
65
 73
2
 40
6.3499999999999996
 49
0.0
 74
0
 49
-6.3499999999999996
 74
0
  0
ENDTAB
  0
TABLE
  2
LAYER
  5
2
100
AcDbSymbolTable
 70
1
  0
LAYER
  5
10
100
AcDbSymbolTableRecord
100
AcDbLayerTableRecord
  2
0
 70
0
 62
7
420
0
  6
CONTINUOUS
370
25
390
F
  0
ENDTAB
  0
TABLE
  2
STYLE
  5
3
100
AcDbSymbolTable
 70
1
  0
STYLE
  5
43
100
AcDbSymbolTableRecord
100
AcDbTextStyleTableRecord
  2
Standard
 70
0
 40
0.0
 41
1.0
 50
0.0
 71
0
 42
2.5
  3

  4

1001
ACAD
1000
txt
1071
0
  0
ENDTAB
  0
TABLE
  2
VIEW
  5
6
100
AcDbSymbolTable
 70
0
  0
ENDTAB
  0
TABLE
  2
UCS
  5
7
100
AcDbSymbolTable
 70
0
  0
ENDTAB
  0
TABLE
  2
APPID
  5
9
100
AcDbSymbolTable
 70
1
  0
APPID
  5
12
100
AcDbSymbolTableRecord
100
AcDbRegAppTableRecord
  2
ACAD
 70
0
  0
APPID
  5
44
100
AcDbSymbolTableRecord
100
AcDbRegAppTableRecord
  2
QCAD
 70
0
  0
ENDTAB
  0
TABLE
  2
DIMSTYLE
  5
A
100
AcDbSymbolTable
 70
1
100
AcDbDimStyleTable
 71
0
  0
DIMSTYLE
105
27
100
AcDbSymbolTableRecord
100
AcDbDimStyleTableRecord
  2
Standard
 41
2.5
 42
0.625
 43
3.75
 44
1.25
 70
0
 73
0
 74
0
 77
1
 78
8
140
2.5
141
2.5
143
0.03937007874016
147
0.625
171
3
172
1
271
2
272
2
274
3
278
44
283
0
284
8
340
43
  0
ENDTAB
  0
TABLE
  2
BLOCK_RECORD
  5
1
100
AcDbSymbolTable
 70
1
  0
BLOCK_RECORD
  5
1F
100
AcDbSymbolTableRecord
100
AcDbBlockTableRecord
  2
*Model_Space
340
22
  0
BLOCK_RECORD
  5
1B
100
AcDbSymbolTableRecord
100
AcDbBlockTableRecord
  2
*Paper_Space
340
1E
  0
BLOCK_RECORD
  5
23
100
AcDbSymbolTableRecord
100
AcDbBlockTableRecord
  2
*Paper_Space0
340
26
  0
BLOCK_RECORD
  5
45
100
AcDbSymbolTableRecord
100
AcDbBlockTableRecord
  2
femur_horizontal
340
0
  0
BLOCK_RECORD
  5
46
100
AcDbSymbolTableRecord
100
AcDbBlockTableRecord
  2
body_bottom
340
0
  0
BLOCK_RECORD
  5
47
100
AcDbSymbolTableRecord
100
AcDbBlockTableRecord
  2
servo_top
340
0
  0
BLOCK_RECORD
  5
48
100
AcDbSymbolTableRecord
100
AcDbBlockTableRecord
  2
body_top
340
0
  0
BLOCK_RECORD
  5
49
100
AcDbSymbolTableRecord
100
AcDbBlockTableRecord
  2
femur_tibia
340
0
  0
BLOCK_RECORD
  5
4A
100
AcDbSymbolTableRecord
100
AcDbBlockTableRecord
  2
femur_vertical
340
0
  0
BLOCK_RECORD
  5
4B
100
AcDbSymbolTableRecord
100
AcDbBlockTableRecord
  2
femur_crossbrace
340
0
  0
BLOCK_RECORD
  5
4C
100
AcDbSymbolTableRecord
100
AcDbBlockTableRecord
  2
body_middle
340
0
  0
BLOCK_RECORD
  5
4D
100
AcDbSymbolTableRecord
100
AcDbBlockTableRecord
  2
battery_holder
340
0
  0
BLOCK_RECORD
  5
4E
100
AcDbSymbolTableRecord
100
AcDbBlockTableRecord
  2
control_pcb
340
0
  0
BLOCK_RECORD
  5
4F
100
AcDbSymbolTableRecord
100
AcDbBlockTableRecord
  2
servo_mount
340
0
  0
BLOCK_RECORD
  5
50
100
AcDbSymbolTableRecord
100
AcDbBlockTableRecord
  2
tibia
340
0
  0
ENDTAB
  0
ENDSEC
  0
SECTION
  2
BLOCKS
  0
BLOCK
  5
20
100
AcDbEntity
  8
0
100
AcDbBlockBegin
  2
*Model_Space
 70
0
 10
0.0
 20
0.0
 30
0.0
  3
*Model_Space
  1

  0
ENDBLK
  5
21
100
AcDbEntity
  8
0
100
AcDbBlockEnd
  0
BLOCK
  5
1C
100
AcDbEntity
 67
1
  8
0
100
AcDbBlockBegin
  2
*Paper_Space
 70
0
 10
0.0
 20
0.0
 30
0.0
  3
*Paper_Space
  1

  0
ENDBLK
  5
1D
100
AcDbEntity
 67
1
  8
0
100
AcDbBlockEnd
  0
BLOCK
  5
24
100
AcDbEntity
  8
0
100
AcDbBlockBegin
  2
*Paper_Space0
 70
0
 10
0.0
 20
0.0
 30
0.0
  3
*Paper_Space0
  1

  0
ENDBLK
  5
25
100
AcDbEntity
  8
0
100
AcDbBlockEnd
  0
BLOCK
  5
51
100
AcDbEntity
  8
0
100
AcDbBlockBegin
  2
femur_horizontal
 70
0
 10
0.0
 20
0.0
 30
0.0
  3
femur_horizontal
  1

  0
LINE
  5
52
100
AcDbEntity
100
AcDbLine
  8
0
 62
256
370
-1
  6
BYLAYER
 10
-0.9999999999999973
 20
-7.5
 30
0.0
 11
9.0
 21
-7.5
 31
0.0
  0
LINE
  5
53
100
AcDbEntity
100
AcDbLine
  8
0
 62
256
370
-1
  6
BYLAYER
 10
8.9999999999999982
 20
7.5
 30
0.0
 11
-15.0
 21
7.5
 31
0.0
  0
LINE
  5
54
100
AcDbEntity
100
AcDbLine
  8
0
 62
256
370
-1
  6
BYLAYER
 10
-20.0
 20
2.5
 30
0.0
 11
-20.0
 21
-2.5
 31
0.0
  0
LINE
  5
55
100
AcDbEntity
100
AcDbLine
  8
0
 62
256
370
-1
  6
BYLAYER
 10
0.0
 20
-3.1749999999999972
 30
0.0
 11
10.0
 21
-3.1749999999999972
 31
0.0
  0
LINE
  5
56
100
AcDbEntity
100
AcDbLine
  8
0
 62
256
370
-1
  6
BYLAYER
 10
10.0
 20
3.1750000000000007
 30
0.0
 11
0.0
 21
3.1750000000000007
 31
0.0
  0
LINE
  5
57
100
AcDbEntity
100
AcDbLine
  8
0
 62
256
370
-1
  6
BYLAYER
 10
0.0
 20
3.1750000000000007
 30
0.0
 11
0.0
 21
-3.1749999999999972
 31
0.0
  0
LINE
  5
58
100
AcDbEntity
100
AcDbLine
  8
0
 62
256
370
-1
  6
BYLAYER
 10
10.0
 20
3.1750000000000007
 30
0.0
 11
10.0
 21
6.5
 31
0.0
  0
LINE
  5
59
100
AcDbEntity
100
AcDbLine
  8
0
 62
256
370
-1
  6
BYLAYER
 10
10.0
 20
-3.1749999999999972
 30
0.0
 11
10.0
 21
-6.5
 31
0.0
  0
ARC
  5
5A
100
AcDbEntity
  8
0
 62
256
370
-1
  6
BYLAYER
100
AcDbCircle
 10
-15.0
 20
2.5
 30
0.0
 40
5.0
100
AcDbArc
 50
90.0
 51
180.0
  0
DIMENSION
  5
5B
100
AcDbEntity
  8
0
 62
256
370
-1
  6
BYLAYER
100
AcDbDimension
 10
-2.2479647218453138
 20
3.1750000000000012
 30
0.0
 11
-6.0
 21
0.0
 31
0.0
 70
129
 71
8
 72
2
 41
1.0
 42
0.0
  1
1/4"
  3
Standard
100
AcDbAlignedDimension
 13
0.0
 23
3.1750000000000007
 33
0.0
 14
-0.0
 24
-3.1749999999999972
 34
0.0
1001
ACAD
1000
DSTYLE
1002
{
1070
144
1040
1
1002
}
  0
CIRCLE
  5
5C
100
AcDbEntity
100
AcDbCircle
  8
0
 62
256
370
-1
  6
BYLAYER
 10
-14.9999999999999982
 20
0.0
 30
0.0
 40
1.5
  0
DIMENSION
  5
5D
100
AcDbEntity
  8
0
 62
256
370
-1
  6
BYLAYER
100
AcDbDimension
 10
-16.5
 20
2.7227438353965319
 30
0.0
 11
-11.5564636461351959
 21
4.9574792492364228
 31
0.0
 70
129
 71
8
 72
2
 41
1.0
 42
0.0
  1
9/64"
  3
Standard
100
AcDbAlignedDimension
 13
-16.5
 23
0.0
 33
0.0
 14
-13.4999999999999982
 24
0.0
 34
0.0
1001
ACAD
1000
DSTYLE
1002
{
1070
144
1040
1
1002
}
  0
ARC
  5
5E
100
AcDbEntity
  8
0
 62
256
370
-1
  6
BYLAYER
100
AcDbCircle
 10
-15.0
 20
-2.5
 30
0.0
 40
5.0
100
AcDbArc
 50
180.0
 51
240.0
  0
ARC
  5
5F
100
AcDbEntity
  8
0
 62
256
370
-1
  6
BYLAYER
100
AcDbCircle
 10
-0.9999999999999973
 20
-12.5
 30
0.0
 40
5.0
100
AcDbArc
 50
90.0
 51
180.0
  0
ARC
  5
60
100
AcDbEntity
  8
0
 62
256
370
-1
  6
BYLAYER
100
AcDbCircle
 10
-10.9999999999999982
 20
-12.4999999999999982
 30
0.0
 40
5.0
100
AcDbArc
 50
180.0
 51
360.0
  0
LINE
  5
61
100
AcDbEntity
100
AcDbLine
  8
0
 62
256
370
-1
  6
BYLAYER
 10
-15.9999999999999982
 20
-12.4999999999999982
 30
0.0
 11
-15.9999999999999982
 21
-9.428203230275507
 31
0.0
  0
ARC
  5
62
100
AcDbEntity
  8
0
 62
256
370
-1
  6
BYLAYER
100
AcDbCircle
 10
-19.0
 20
-9.428203230275507
 30
0.0
 40
3.0
100
AcDbArc
 50
0.0
 51
59.9999999999999858
  0
CIRCLE
  5
63
100
AcDbEntity
100
AcDbCircle
  8
0
 62
256
370
-1
  6
BYLAYER
 10
-10.9999999999999982
 20
-12.4999999999999982
 30
0.0
 40
0.5
  0
ARC
  5
64
100
AcDbEntity
  8
0
 62
256
370
-1
  6
BYLAYER
100
AcDbCircle
 10
8.9999999999999982
 20
6.5
 30
0.0
 40
1.0
100
AcDbArc
 50
0.0
 51
90.0
  0
ARC
  5
65
100
AcDbEntity
  8
0
 62
256
370
-1
  6
BYLAYER
100
AcDbCircle
 10
9.0
 20
-6.5
 30
0.0
 40
1.0
100
AcDbArc
 50
270.0
 51
0.0
  0
DIMENSION
  5
66
100
AcDbEntity
  8
0
 62
256
370
-1
  6
BYLAYER
100
AcDbDimension
 10
-11.4999999999999982
 20
-10.0
 30
0.0
 11
-10.451917202944216
 21
-6.3689740114361211
 31
0.0
 70
129
 71
8
 72
2
 41
1.0
 42
0.0
  1
3/64"
  3
Standard
100
AcDbAlignedDimension
 13
-11.4999999999999982
 23
-12.4999999999999982
 33
0.0
 14
-10.4999999999999982
 24
-12.4999999999999982
 34
0.0
1001
ACAD
1000
DSTYLE
1002
{
1070
144
1040
1
1002
}
  0
ENDBLK
  5
67
100
AcDbEntity
  8
0
100
AcDbBlockEnd
  0
BLOCK
  5
68
100
AcDbEntity
  8
0
100
AcDbBlockBegin
  2
body_bottom
 70
0
 10
0.0
 20
0.0
 30
0.0
  3
body_bottom
  1

  0
INSERT
  5
69
100
AcDbEntity
100
AcDbBlockReference
  8
0
 62
256
370
-1
  6
BYLAYER
  2
battery_holder
 10
0.0
 20
0.0
 30
0.0
  0
LINE
  5
6A
100
AcDbEntity
100
AcDbLine
  8
0
 62
256
370
-1
  6
BYLAYER
 10
43.3012701892218956
 20
22.1132486540518443
 30
0.0
 11
43.3012701892218956
 21
-22.1132486540518869
 31
0.0
  0
LINE
  5
6B
100
AcDbEntity
100
AcDbLine
  8
0
 62
256
370
-1
  6
BYLAYER
 10
2.5000000000000284
 20
48.5566243270259292
 30
0.0
 11
40.8012701892218956
 21
26.4433756729740566
 31
0.0
  0
LINE
  5
6C
100
AcDbEntity
100
AcDbLine
  8
0
 62
256
370
-1
  6
BYLAYER
 10
40.8012701892218956
 20
-26.4433756729740992
 30
0.0
 11
2.4999999999999716
 21
-48.5566243270259577
 31
0.0
  0
LINE
  5
6D
100
AcDbEntity
100
AcDbLine
  8
0
 62
256
370
-1
  6
BYLAYER
 10
-43.3012701892219525
 20
22.1132486540518869
 30
0.0
 11
-43.3012701892220093
 21
-22.1132486540518585
 31
0.0
  0
LINE
  5
6E
100
AcDbEntity
100
AcDbLine
  8
0
 62
256
370
-1
  6
BYLAYER
 10
-2.4999999999999716
 20
48.5566243270259577
 30
0.0
 11
-40.8012701892219525
 21
26.443375672974085
 31
0.0
  0
LINE
  5
6F
100
AcDbEntity
100
AcDbLine
  8
0
 62
256
370
-1
  6
BYLAYER
 10
-40.8012701892220093
 20
-26.4433756729740423
 30
0.0
 11
-2.5000000000000284
 21
-48.5566243270259861
 31
0.0
  0
CIRCLE
  5
70
100
AcDbEntity
100
AcDbCircle
  8
0
 62
256
370
-1
  6
BYLAYER
 10
-38.9711431702996833
 20
22.5000000000000711
 30
0.0
 40
1.0
  0
CIRCLE
  5
71
100
AcDbEntity
100
AcDbCircle
  8
0
 62
256
370
-1
  6
BYLAYER
 10
-38.971143170299797
 20
-22.4999999999999147
 30
0.0
 40
1.0
  0
CIRCLE
  5
72
100
AcDbEntity
100
AcDbCircle
  8
0
 62
256
370
-1
  6
BYLAYER
 10
-0.0000000000001137
 20
-45.0000000000000284
 30
0.0
 40
1.0
  0
CIRCLE
  5
73
100
AcDbEntity
100
AcDbCircle
  8
0
 62
256
370
-1
  6
BYLAYER
 10
38.9711431702996833
 20
-22.5000000000000853
 30
0.0
 40
1.0
  0
CIRCLE
  5
74
100
AcDbEntity
100
AcDbCircle
  8
0
 62
256
370
-1
  6
BYLAYER
 10
38.971143170299797
 20
22.4999999999998721
 30
0.0
 40
1.0
  0
CIRCLE
  5
75
100
AcDbEntity
100
AcDbCircle
  8
0
 62
256
370
-1
  6
BYLAYER
 10
0.0000000000001137
 20
44.9999999999999858
 30
0.0
 40
1.0
  0
LINE
  5
76
100
AcDbEntity
100
AcDbLine
  8
0
 62
256
370
-1
  6
BYLAYER
 10
-20.0
 20
-20.0
 30
0.0
 11
20.0
 21
-20.0
 31
0.0
  0
LINE
  5
77
100
AcDbEntity
100
AcDbLine
  8
0
 62
256
370
-1
  6
BYLAYER
 10
25.0
 20
-15.0000000000000284
 30
0.0
 11
25.0
 21
15.0000000000000142
 31
0.0
  0
LINE
  5
78
100
AcDbEntity
100
AcDbLine
  8
0
 62
256
370
-1
  6
BYLAYER
 10
20.0
 20
20.0
 30
0.0
 11
-20.0
 21
20.0
 31
0.0
  0
LINE
  5
79
100
AcDbEntity
100
AcDbLine
  8
0
 62
256
370
-1
  6
BYLAYER
 10
-25.0
 20
15.0
 30
0.0
 11
-25.0
 21
-15.0
 31
0.0
  0
ARC
  5
7A
100
AcDbEntity
  8
0
 62
256
370
-1
  6
BYLAYER
100
AcDbCircle
 10
-20.0
 20
15.0
 30
0.0
 40
5.0
100
AcDbArc
 50
90.0
 51
180.0
  0
ARC
  5
7B
100
AcDbEntity
  8
0
 62
256
370
-1
  6
BYLAYER
100
AcDbCircle
 10
20.0
 20
15.0000000000000142
 30
0.0
 40
5.0
100
AcDbArc
 50
0.0
 51
90.0
  0
ARC
  5
7C
100
AcDbEntity
  8
0
 62
256
370
-1
  6
BYLAYER
100
AcDbCircle
 10
20.0
 20
-15.0000000000000284
 30
0.0
 40
5.0
100
AcDbArc
 50
270.0
 51
0.0
  0
ARC
  5
7D
100
AcDbEntity
  8
0
 62
256
370
-1
  6
BYLAYER
100
AcDbCircle
 10
-20.0
 20
-15.0
 30
0.0
 40
5.0
100
AcDbArc
 50
180.0
 51
270.0
  0
ARC
  5
7E
100
AcDbEntity
  8
0
 62
256
370
-1
  6
BYLAYER
100
AcDbCircle
 10
0.0000000000000284
 20
44.2264973081037596
 30
0.0
 40
5.0
100
AcDbArc
 50
59.999999999999865
 51
119.9999999999999716
  0
ARC
  5
7F
100
AcDbEntity
  8
0
 62
256
370
-1
  6
BYLAYER
100
AcDbCircle
 10
38.3012701892218814
 20
22.1132486540518443
 30
0.0
 40
5.0
100
AcDbArc
 50
0.0
 51
59.9999999999999645
  0
ARC
  5
80
100
AcDbEntity
  8
0
 62
256
370
-1
  6
BYLAYER
100
AcDbCircle
 10
38.3012701892218956
 20
-22.1132486540518869
 30
0.0
 40
5.0
100
AcDbArc
 50
299.9999999999998295
 51
0.0
  0
ARC
  5
81
100
AcDbEntity
  8
0
 62
256
370
-1
  6
BYLAYER
100
AcDbCircle
 10
-0.0000000000000284
 20
-44.2264973081037738
 30
0.0
 40
5.0
100
AcDbArc
 50
240.0000000000001421
 51
300.0000000000000568
  0
ARC
  5
82
100
AcDbEntity
  8
0
 62
256
370
-1
  6
BYLAYER
100
AcDbCircle
 10
-38.3012701892220093
 20
-22.1132486540518585
 30
0.0
 40
5.0
100
AcDbArc
 50
180.0
 51
239.9999999999999432
  0
ARC
  5
83
100
AcDbEntity
  8
0
 62
256
370
-1
  6
BYLAYER
100
AcDbCircle
 10
-38.3012701892219525
 20
22.1132486540518869
 30
0.0
 40
5.0
100
AcDbArc
 50
119.9999999999999716
 51
180.0
  0
LINE
  5
84
100
AcDbEntity
100
AcDbLine
  8
0
 62
256
370
-1
  6
BYLAYER
 10
-30.0
 20
9.8149545762236841
 30
0.0
 11
-30.0
 21
-9.814954576223613
 31
0.0
  0
LINE
  5
85
100
AcDbEntity
100
AcDbLine
  8
0
 62
256
370
-1
  6
BYLAYER
 10
-38.3012701892219525
 20
11.1435935394490429
 30
0.0
 11
-38.3012701892220093
 21
-11.1435935394490286
 31
0.0
  0
LINE
  5
86
100
AcDbEntity
100
AcDbLine
  8
0
 62
256
370
-1
  6
BYLAYER
 10
-33.8012701892219809
 20
13.7416697508023589
 30
0.0
 11
-31.5
 21
12.4130307875769859
 31
0.0
  0
LINE
  5
87
100
AcDbEntity
100
AcDbLine
  8
0
 62
256
370
-1
  6
BYLAYER
 10
-33.8012701892220093
 20
-13.7416697508023162
 30
0.0
 11
-31.4999999999999716
 21
-12.413030787576929
 31
0.0
  0
ARC
  5
88
100
AcDbEntity
  8
0
 62
256
370
-1
  6
BYLAYER
100
AcDbCircle
 10
-35.3012701892220093
 20
-11.1435935394490286
 30
0.0
 40
3.0
100
AcDbArc
 50
180.0
 51
300.0000000000002274
  0
ARC
  5
89
100
AcDbEntity
  8
0
 62
256
370
-1
  6
BYLAYER
100
AcDbCircle
 10
-32.9999999999999716
 20
-9.814954576223613
 30
0.0
 40
3.0
100
AcDbArc
 50
300.0
 51
0.0
  0
ARC
  5
8A
100
AcDbEntity
  8
0
 62
256
370
-1
  6
BYLAYER
100
AcDbCircle
 10
-33.0
 20
9.8149545762236841
 30
0.0
 40
3.0
100
AcDbArc
 50
0.0
 51
59.999999999999865
  0
ARC
  5
8B
100
AcDbEntity
  8
0
 62
256
370
-1
  6
BYLAYER
100
AcDbCircle
 10
-35.3012701892219809
 20
11.1435935394490429
 30
0.0
 40
3.0
100
AcDbArc
 50
60.0000000000000071
 51
180.0
  0
LINE
  5
8C
100
AcDbEntity
100
AcDbLine
  8
0
 62
256
370
-1
  6
BYLAYER
 10
30.0000000000000995
 20
9.8149545762235846
 30
0.0
 11
30.0000000000000142
 21
-9.8149545762237267
 31
0.0
  0
LINE
  5
8D
100
AcDbEntity
100
AcDbLine
  8
0
 62
256
370
-1
  6
BYLAYER
 10
38.3012701892220377
 20
11.1435935394488865
 30
0.0
 11
38.3012701892220235
 21
-11.1435935394491992
 31
0.0
  0
LINE
  5
8E
100
AcDbEntity
100
AcDbLine
  8
0
 62
256
370
-1
  6
BYLAYER
 10
33.8012701892220946
 20
13.741669750802231
 30
0.0
 11
31.5000000000001279
 21
12.4130307875768722
 31
0.0
  0
LINE
  5
8F
100
AcDbEntity
100
AcDbLine
  8
0
 62
256
370
-1
  6
BYLAYER
 10
33.8012701892220093
 20
-13.7416697508024299
 30
0.0
 11
31.5000000000000142
 21
-12.4130307875770143
 31
0.0
  0
ARC
  5
90
100
AcDbEntity
  8
0
 62
256
370
-1
  6
BYLAYER
100
AcDbCircle
 10
35.3012701892220377
 20
-11.1435935394491423
 30
0.0
 40
3.0
100
AcDbArc
 50
239.9999999999995168
 51
360.0
  0
ARC
  5
91
100
AcDbEntity
  8
0
 62
256
370
-1
  6
BYLAYER
100
AcDbCircle
 10
33.0000000000000284
 20
-9.8149545762237267
 30
0.0
 40
3.0
100
AcDbArc
 50
180.0
 51
239.9999999999998295
  0
ARC
  5
92
100
AcDbEntity
  8
0
 62
256
370
-1
  6
BYLAYER
100
AcDbCircle
 10
33.0000000000000853
 20
9.8149545762235562
 30
0.0
 40
3.0
100
AcDbArc
 50
119.9999999999998295
 51
180.0
  0
ARC
  5
93
100
AcDbEntity
  8
0
 62
256
370
-1
  6
BYLAYER
100
AcDbCircle
 10
35.3012701892221088
 20
11.1435935394489292
 30
0.0
 40
3.0
100
AcDbArc
 50
360.0
 51
119.99999999999973
  0
CIRCLE
  5
94
100
AcDbEntity
100
AcDbCircle
  8
0
 62
256
370
-1
  6
BYLAYER
 10
0.0000000000000142
 20
34.9999999999999858
 30
0.0
 40
2.0
  0
CIRCLE
  5
95
100
AcDbEntity
100
AcDbCircle
  8
0
 62
256
370
-1
  6
BYLAYER
 10
0.0
 20
-34.9999999999999858
 30
0.0
 40
2.0
  0
ARC
  5
96
100
AcDbEntity
  8
0
 62
256
370
-1
  6
BYLAYER
100
AcDbCircle
 10
-7.7055398066734284
 20
-32.8494985961940102
 30
0.0
 40
3.0
100
AcDbArc
 50
240.0
 51
344.4063736581757098
  0
ARC
  5
97
100
AcDbEntity
  8
0
 62
256
370
-1
  6
BYLAYER
100
AcDbCircle
 10
7.7055398066734142
 20
-32.8494985961939676
 30
0.0
 40
3.0
100
AcDbArc
 50
195.5936263418245176
 51
300.0
  0
ARC
  5
98
100
AcDbEntity
  8
0
 62
256
370
-1
  6
BYLAYER
100
AcDbCircle
 10
-5.9422218066982424
 20
-26.0
 30
0.0
 40
3.0
100
AcDbArc
 50
31.9089827353176219
 51
90.0
  0
ARC
  5
99
100
AcDbEntity
  8
0
 62
256
370
-1
  6
BYLAYER
100
AcDbCircle
 10
5.9422218066981998
 20
-26.0
 30
0.0
 40
3.0
100
AcDbArc
 50
90.0
 51
148.0910172646822787
  0
ARC
  5
9A
100
AcDbEntity
  8
0
 62
256
370
-1
  6
BYLAYER
100
AcDbCircle
 10
-27.0333209967908914
 20
-24.0
 30
0.0
 40
1.0
100
AcDbArc
 50
90.0
 51
239.9999999999997442
  0
ARC
  5
9B
100
AcDbEntity
  8
0
 62
256
370
-1
  6
BYLAYER
100
AcDbCircle
 10
27.0333209967908914
 20
-23.9999999999999858
 30
0.0
 40
1.0
100
AcDbArc
 50
299.9999999999997726
 51
90.0
  0
LINE
  5
9C
100
AcDbEntity
100
AcDbLine
  8
0
 62
256
370
-1
  6
BYLAYER
 10
-27.5333209967908914
 20
-24.8660254037844339
 30
0.0
 11
-9.2055398066734284
 21
-35.4475748075473263
 31
0.0
  0
LINE
  5
9D
100
AcDbEntity
100
AcDbLine
  8
0
 62
256
370
-1
  6
BYLAYER
 10
27.5333209967908772
 20
-24.8660254037844126
 30
0.0
 11
9.2055398066734142
 21
-35.4475748075472836
 31
0.0
  0
LINE
  5
9E
100
AcDbEntity
100
AcDbLine
  8
0
 62
256
370
-1
  6
BYLAYER
 10
-27.0333209967908914
 20
-23.0
 30
0.0
 11
-5.9422218066982424
 21
-23.0
 31
0.0
  0
ARC
  5
9F
100
AcDbEntity
  8
0
 62
256
370
-1
  6
BYLAYER
100
AcDbCircle
 10
-0.0000000000000284
 20
-22.2999999999999972
 30
0.0
 40
4.0
100
AcDbArc
 50
211.9089827353177213
 51
328.0910172646824776
  0
LINE
  5
A0
100
AcDbEntity
100
AcDbLine
  8
0
 62
256
370
-1
  6
BYLAYER
 10
5.9422218066981998
 20
-23.0
 30
0.0
 11
27.0333209967908914
 21
-22.9999999999999858
 31
0.0
  0
ARC
  5
A1
100
AcDbEntity
  8
0
 62
256
370
-1
  6
BYLAYER
100
AcDbCircle
 10
0.0
 20
-34.9999999999999858
 30
0.0
 40
5.0
100
AcDbArc
 50
15.5936263418245549
 51
164.4063736581757951
  0
ARC
  5
A2
100
AcDbEntity
  8
0
 62
256
370
-1
  6
BYLAYER
100
AcDbCircle
 10
0.0000000000000213
 20
34.9999999999999716
 30
0.0
 40
5.0
100
AcDbArc
 50
195.5936263418241481
 51
344.4063736581754256
  0
ARC
  5
A3
100
AcDbEntity
  8
0
 62
256
370
-1
  6
BYLAYER
100
AcDbCircle
 10
-7.7055398066734213
 20
32.8494985961940316
 30
0.0
 40
3.0
100
AcDbArc
 50
15.5936263418242458
 51
120.0000000000000711
  0
ARC
  5
A4
100
AcDbEntity
  8
0
 62
256
370
-1
  6
BYLAYER
100
AcDbCircle
 10
7.7055398066734284
 20
32.8494985961939889
 30
0.0
 40
3.0
100
AcDbArc
 50
60.0000000000000142
 51
164.4063736581755109
  0
ARC
  5
A5
100
AcDbEntity
  8
0
 62
256
370
-1
  6
BYLAYER
100
AcDbCircle
 10
-5.9422218066982282
 20
26.0000000000000142
 30
0.0
 40
3.0
100
AcDbArc
 50
270.0
 51
328.0910172646823071
  0
ARC
  5
A6
100
AcDbEntity
  8
0
 62
256
370
-1
  6
BYLAYER
100
AcDbCircle
 10
5.9422218066982211
 20
26.0
 30
0.0
 40
3.0
100
AcDbArc
 50
211.9089827353176361
 51
270.0
  0
ARC
  5
A7
100
AcDbEntity
  8
0
 62
256
370
-1
  6
BYLAYER
100
AcDbCircle
 10
-27.0333209967908807
 20
24.0000000000000178
 30
0.0
 40
1.0
100
AcDbArc
 50
120.0000000000002558
 51
270.0
  0
ARC
  5
A8
100
AcDbEntity
  8
0
 62
256
370
-1
  6
BYLAYER
100
AcDbCircle
 10
27.0333209967909056
 20
23.9999999999999929
 30
0.0
 40
1.0
100
AcDbArc
 50
270.0
 51
60.0000000000002274
  0
LINE
  5
A9
100
AcDbEntity
100
AcDbLine
  8
0
 62
256
370
-1
  6
BYLAYER
 10
-27.5333209967908843
 20
24.8660254037844588
 30
0.0
 11
-9.2055398066734213
 21
35.4475748075473547
 31
0.0
  0
LINE
  5
AA
100
AcDbEntity
100
AcDbLine
  8
0
 62
256
370
-1
  6
BYLAYER
 10
27.5333209967908772
 20
24.8660254037844375
 30
0.0
 11
9.2055398066734284
 21
35.4475748075472836
 31
0.0
  0
LINE
  5
AB
100
AcDbEntity
100
AcDbLine
  8
0
 62
256
370
-1
  6
BYLAYER
 10
-27.0333209967908807
 20
23.0000000000000213
 30
0.0
 11
-5.9422218066982282
 21
23.0
 31
0.0
  0
ARC
  5
AC
100
AcDbEntity
  8
0
 62
256
370
-1
  6
BYLAYER
100
AcDbCircle
 10
-0.0000000000000284
 20
22.300000000000022
 30
0.0
 40
4.0
100
AcDbArc
 50
31.9089827353175011
 51
148.0910172646823355
  0
LINE
  5
AD
100
AcDbEntity
100
AcDbLine
  8
0
 62
256
370
-1
  6
BYLAYER
 10
5.942221806698214
 20
23.0
 30
0.0
 11
27.0333209967908914
 21
23.0000000000000355
 31
0.0
  0
ENDBLK
  5
AE
100
AcDbEntity
  8
0
100
AcDbBlockEnd
  0
BLOCK
  5
AF
100
AcDbEntity
  8
0
100
AcDbBlockBegin
  2
servo_top
 70
0
 10
0.0
 20
0.0
 30
0.0
  3
servo_top
  1

  0
LINE
  5
B0
100
AcDbEntity
100
AcDbLine
  8
0
 62
256
370
-1
  6
BYLAYER
 10
31.0
 20
5.0000000000000284
 30
0.0
 11
26.5
 21
5.0000000000000284
 31
0.0
  0
LINE
  5
B1
100
AcDbEntity
100
AcDbLine
  8
0
 62
256
370
-1
  6
BYLAYER
 10
26.5
 20
5.0000000000000284
 30
0.0
 11
26.5
 21
-4.9999999999999716
 31
0.0
  0
CIRCLE
  5
B2
100
AcDbEntity
100
AcDbCircle
  8
0
 62
256
370
-1
  6
BYLAYER
 10
0.0
 20
0.0
 30
0.0
 40
1.0
  0
CIRCLE
  5
B3
100
AcDbEntity
100
AcDbCircle
  8
0
 62
256
370
-1
  6
BYLAYER
 10
30.0
 20
0.0
 30
0.0
 40
1.0
  0
CIRCLE
  5
B4
100
AcDbEntity
100
AcDbCircle
  8
0
 62
256
370
-1
  6
BYLAYER
 10
10.5
 20
0.0000000000000284
 30
0.0
 40
10.0
  0
CIRCLE
  5
B5
100
AcDbEntity
100
AcDbCircle
  8
0
 62
256
370
-1
  6
BYLAYER
 10
15.0499999999999972
 20
7.0000000000000284
 30
0.0
 40
0.5
  0
CIRCLE
  5
B6
100
AcDbEntity
100
AcDbCircle
  8
0
 62
256
370
-1
  6
DOT
 10
10.5
 20
0.0000000000000284
 30
0.0
 40
5.0
  0
CIRCLE
  5
B7
100
AcDbEntity
100
AcDbCircle
  8
0
 62
256
370
-1
  6
BYLAYER
 10
10.5
 20
0.0000000000000284
 30
0.0
 40
2.0
  0
LINE
  5
B8
100
AcDbEntity
100
AcDbLine
  8
0
 62
256
370
-1
  6
BYLAYER
 10
3.5
 20
-5.9999999999999716
 30
0.0
 11
26.5
 21
-5.9999999999999716
 31
0.0
  0
LINE
  5
B9
100
AcDbEntity
100
AcDbLine
  8
0
 62
256
370
-1
  6
BYLAYER
 10
26.5
 20
-5.9999999999999716
 30
0.0
 11
26.5
 21
6.0000000000000284
 31
0.0
  0
LINE
  5
BA
100
AcDbEntity
100
AcDbLine
  8
0
 62
256
370
-1
  6
BYLAYER
 10
26.5
 20
6.0000000000000284
 30
0.0
 11
3.5
 21
6.0000000000000284
 31
0.0
  0
LINE
  5
BB
100
AcDbEntity
100
AcDbLine
  8
0
 62
256
370
-1
  6
BYLAYER
 10
3.5
 20
6.0000000000000284
 30
0.0
 11
3.5
 21
-5.9999999999999716
 31
0.0
  0
LINE
  5
BC
100
AcDbEntity
100
AcDbLine
  8
0
 62
256
370
-1
  6
BYLAYER
 10
-1.0
 20
-4.9999999999999716
 30
0.0
 11
3.5
 21
-4.9999999999999716
 31
0.0
  0
LINE
  5
BD
100
AcDbEntity
100
AcDbLine
  8
0
 62
256
370
-1
  6
BYLAYER
 10
3.5
 20
-4.9999999999999716
 30
0.0
 11
3.5
 21
5.0000000000000284
 31
0.0
  0
LINE
  5
BE
100
AcDbEntity
100
AcDbLine
  8
0
 62
256
370
-1
  6
BYLAYER
 10
3.5
 20
5.0000000000000284
 30
0.0
 11
-1.0
 21
5.0000000000000284
 31
0.0
  0
LINE
  5
BF
100
AcDbEntity
100
AcDbLine
  8
0
 62
256
370
-1
  6
BYLAYER
 10
-1.0
 20
5.0000000000000284
 30
0.0
 11
-1.0
 21
-4.9999999999999716
 31
0.0
  0
LINE
  5
C0
100
AcDbEntity
100
AcDbLine
  8
0
 62
256
370
-1
  6
BYLAYER
 10
26.5
 20
-4.9999999999999716
 30
0.0
 11
31.0
 21
-4.9999999999999716
 31
0.0
  0
LINE
  5
C1
100
AcDbEntity
100
AcDbLine
  8
0
 62
256
370
-1
  6
BYLAYER
 10
31.0
 20
-4.9999999999999716
 30
0.0
 11
31.0
 21
5.0000000000000284
 31
0.0
  0
ENDBLK
  5
C2
100
AcDbEntity
  8
0
100
AcDbBlockEnd
  0
BLOCK
  5
C3
100
AcDbEntity
  8
0
100
AcDbBlockBegin
  2
body_top
 70
0
 10
0.0
 20
0.0
 30
0.0
  3
body_top
  1

  0
INSERT
  5
C4
100
AcDbEntity
100
AcDbBlockReference
  8
0
 62
256
370
-1
  6
BYLAYER
  2
control_pcb
 10
0.0000000000000142
 20
35.3553390593273278
 30
0.0
 50
90.0
  0
LINE
  5
C5
100
AcDbEntity
100
AcDbLine
  8
0
 62
256
370
-1
  6
BYLAYER
 10
-2.4999999999999858
 20
48.5566243270259079
 30
0.0
 11
-40.8012701892218246
 21
26.4433756729741027
 31
0.0
  0
LINE
  5
C6
100
AcDbEntity
100
AcDbLine
  8
0
 62
256
370
-1
  6
BYLAYER
 10
-40.8012701892219383
 20
-26.4433756729740956
 30
0.0
 11
-2.5000000000000426
 21
-48.556624327025979
 31
0.0
  0
CIRCLE
  5
C7
100
AcDbEntity
100
AcDbCircle
  8
0
 62
256
370
-1
  6
BYLAYER
 10
-38.9711431702996691
 20
22.500000000000032
 30
0.0
 40
1.0
  0
CIRCLE
  5
C8
100
AcDbEntity
100
AcDbCircle
  8
0
 62
256
370
-1
  6
BYLAYER
 10
-38.9711431702997828
 20
-22.4999999999999396
 30
0.0
 40
1.0
  0
CIRCLE
  5
C9
100
AcDbEntity
100
AcDbCircle
  8
0
 62
256
370
-1
  6
BYLAYER
 10
-0.0000000000000995
 20
-45.0000000000000497
 30
0.0
 40
1.0
  0
CIRCLE
  5
CA
100
AcDbEntity
100
AcDbCircle
  8
0
 62
256
370
-1
  6
BYLAYER
 10
38.9711431702996975
 20
-22.5000000000001101
 30
0.0
 40
1.0
  0
CIRCLE
  5
CB
100
AcDbEntity
100
AcDbCircle
  8
0
 62
256
370
-1
  6
BYLAYER
 10
38.9711431702998112
 20
22.499999999999833
 30
0.0
 40
1.0
  0
CIRCLE
  5
CC
100
AcDbEntity
100
AcDbCircle
  8
0
 62
256
370
-1
  6
BYLAYER
 10
0.0000000000001279
 20
44.9999999999999503
 30
0.0
 40
1.0
  0
LINE
  5
CD
100
AcDbEntity
100
AcDbLine
  8
0
 62
256
370
-1
  6
BYLAYER
 10
43.3012701892219098
 20
22.113248654051862
 30
0.0
 11
43.3012701892219098
 21
-22.1132486540518833
 31
0.0
  0
LINE
  5
CE
100
AcDbEntity
100
AcDbLine
  8
0
 62
256
370
-1
  6
BYLAYER
 10
2.5000000000000142
 20
48.5566243270259079
 30
0.0
 11
40.8012701892219098
 21
26.4433756729740175
 31
0.0
  0
LINE
  5
CF
100
AcDbEntity
100
AcDbLine
  8
0
 62
256
370
-1
  6
BYLAYER
 10
40.8012701892219667
 20
-26.4433756729740956
 30
0.0
 11
2.4999999999999574
 21
-48.556624327025979
 31
0.0
  0
LINE
  5
D0
100
AcDbEntity
100
AcDbLine
  8
0
 62
256
370
-1
  6
BYLAYER
 10
-43.3012701892219383
 20
22.1132486540518478
 30
0.0
 11
-43.3012701892219951
 21
-22.1132486540518549
 31
0.0
  0
LINE
  5
D1
100
AcDbEntity
100
AcDbLine
  8
0
 62
256
370
-1
  6
BYLAYER
 10
32.1410161513777695
 20
21.4433756729741454
 30
0.0
 11
8.9968327960479471
 21
34.8056761633478189
 31
0.0
  0
LINE
  5
D2
100
AcDbEntity
100
AcDbLine
  8
0
 62
256
370
-1
  6
BYLAYER
 10
-8.9968327960478334
 20
34.8056761633477691
 30
0.0
 11
-32.1410161513775137
 21
21.4433756729740885
 31
0.0
  0
LINE
  5
D3
100
AcDbEntity
100
AcDbLine
  8
0
 62
256
370
-1
  6
BYLAYER
 10
-31.6410161513775137
 20
-5.0000000000000533
 30
0.0
 11
-29.6984848098349374
 21
-5.0000000000000533
 31
0.0
  0
LINE
  5
D4
100
AcDbEntity
100
AcDbLine
  8
0
 62
256
370
-1
  6
BYLAYER
 10
-24.6984848098349374
 20
-0.0000000000000533
 30
0.0
 11
-24.6984848098349374
 21
-0.0000000000000391
 31
0.0
  0
LINE
  5
D5
100
AcDbEntity
100
AcDbLine
  8
0
 62
256
370
-1
  6
BYLAYER
 10
-29.6984848098349374
 20
4.9999999999999609
 30
0.0
 11
-31.6410161513775137
 21
4.9999999999999609
 31
0.0
  0
LINE
  5
D6
100
AcDbEntity
100
AcDbLine
  8
0
 62
256
370
-1
  6
BYLAYER
 10
29.6984848098350227
 20
-5.0000000000000249
 30
0.0
 11
31.6410161513777126
 21
-5.0000000000000249
 31
0.0
  0
LINE
  5
D7
100
AcDbEntity
100
AcDbLine
  8
0
 62
256
370
-1
  6
BYLAYER
 10
31.6410161513777695
 20
4.9999999999999751
 30
0.0
 11
29.6984848098350227
 21
4.9999999999999751
 31
0.0
  0
LINE
  5
D8
100
AcDbEntity
100
AcDbLine
  8
0
 62
256
370
-1
  6
BYLAYER
 10
24.6984848098350227
 20
-0.0000000000000391
 30
0.0
 11
24.6984848098350227
 21
-0.0000000000000249
 31
0.0
  0
LINE
  5
D9
100
AcDbEntity
100
AcDbLine
  8
0
 62
256
370
-1
  6
BYLAYER
 10
34.6410161513777695
 20
7.9999999999999893
 30
0.0
 11
34.6410161513777695
 21
17.1132486540519757
 31
0.0
  0
LINE
  5
DA
100
AcDbEntity
100
AcDbLine
  8
0
 62
256
370
-1
  6
BYLAYER
 10
34.6410161513777126
 20
-8.0000000000000533
 30
0.0
 11
34.6410161513775989
 21
-17.1132486540519686
 31
0.0
  0
LINE
  5
DB
100
AcDbEntity
100
AcDbLine
  8
0
 62
256
370
-1
  6
BYLAYER
 10
-34.6410161513774568
 20
-8.0000000000000533
 30
0.0
 11
-34.6410161513775137
 21
-17.1132486540518265
 31
0.0
  0
LINE
  5
DC
100
AcDbEntity
100
AcDbLine
  8
0
 62
256
370
-1
  6
BYLAYER
 10
-34.6410161513775137
 20
7.9999999999999751
 30
0.0
 11
-34.6410161513775137
 21
17.1132486540519047
 31
0.0
  0
ARC
  5
DD
100
AcDbEntity
  8
0
 62
256
370
-1
  6
BYLAYER
100
AcDbCircle
 10
-34.6410161513774568
 20
4.9999999999999467
 30
0.0
 40
0.0
100
AcDbArc
 50
0.0
 51
0.0
  0
ARC
  5
DE
100
AcDbEntity
  8
0
 62
256
370
-1
  6
BYLAYER
100
AcDbCircle
 10
-31.6410161513775137
 20
7.9999999999999751
 30
0.0
 40
3.0
100
AcDbArc
 50
180.0
 51
270.0
  0
ARC
  5
DF
100
AcDbEntity
  8
0
 62
256
370
-1
  6
BYLAYER
100
AcDbCircle
 10
-31.6410161513775137
 20
-8.0000000000000533
 30
0.0
 40
3.0
100
AcDbArc
 50
90.0
 51
180.0
  0
ARC
  5
E0
100
AcDbEntity
  8
0
 62
256
370
-1
  6
BYLAYER
100
AcDbCircle
 10
31.6410161513777695
 20
7.9999999999999893
 30
0.0
 40
3.0
100
AcDbArc
 50
270.0
 51
0.0
  0
ARC
  5
E1
100
AcDbEntity
  8
0
 62
256
370
-1
  6
BYLAYER
100
AcDbCircle
 10
31.6410161513777126
 20
-8.0000000000000249
 30
0.0
 40
3.0
100
AcDbArc
 50
0.0
 51
90.0
  0
ARC
  5
E2
100
AcDbEntity
  8
0
 62
256
370
-1
  6
BYLAYER
100
AcDbCircle
 10
-29.6984848098349374
 20
-0.0000000000000391
 30
0.0
 40
5.0
100
AcDbArc
 50
0.0
 51
90.0
  0
ARC
  5
E3
100
AcDbEntity
  8
0
 62
256
370
-1
  6
BYLAYER
100
AcDbCircle
 10
-29.6984848098349374
 20
-0.0000000000000533
 30
0.0
 40
5.0
100
AcDbArc
 50
270.0
 51
0.0
  0
ARC
  5
E4
100
AcDbEntity
  8
0
 62
256
370
-1
  6
BYLAYER
100
AcDbCircle
 10
29.6984848098350227
 20
-0.0000000000000391
 30
0.0
 40
5.0
100
AcDbArc
 50
90.0
 51
180.0
  0
ARC
  5
E5
100
AcDbEntity
  8
0
 62
256
370
-1
  6
BYLAYER
100
AcDbCircle
 10
29.6984848098350227
 20
-0.0000000000000249
 30
0.0
 40
5.0
100
AcDbArc
 50
180.0
 51
270.0
  0
ARC
  5
E6
100
AcDbEntity
  8
0
 62
256
370
-1
  6
BYLAYER
100
AcDbCircle
 10
-29.6410161513775137
 20
17.1132486540519047
 30
0.0
 40
5.0
100
AcDbArc
 50
120.0000000000000711
 51
180.0
  0
ARC
  5
E7
100
AcDbEntity
  8
0
 62
256
370
-1
  6
BYLAYER
100
AcDbCircle
 10
29.6410161513777695
 20
17.1132486540519757
 30
0.0
 40
5.0
100
AcDbArc
 50
0.0
 51
59.9999999999999432
  0
ARC
  5
E8
100
AcDbEntity
  8
0
 62
256
370
-1
  6
BYLAYER
100
AcDbCircle
 10
29.6410161513775421
 20
-17.1132486540519118
 30
0.0
 40
5.0
100
AcDbArc
 50
299.9999999999998295
 51
0.0
  0
ARC
  5
E9
100
AcDbEntity
  8
0
 62
256
370
-1
  6
BYLAYER
100
AcDbCircle
 10
-29.6410161513774568
 20
-17.1132486540518549
 30
0.0
 40
5.0
100
AcDbArc
 50
180.0
 51
239.9999999999995168
  0
ARC
  5
EA
100
AcDbEntity
  8
0
 62
256
370
-1
  6
BYLAYER
100
AcDbCircle
 10
-38.3012701892218246
 20
22.1132486540518478
 30
0.0
 40
5.0
100
AcDbArc
 50
119.99999999999973
 51
180.0
  0
ARC
  5
EB
100
AcDbEntity
  8
0
 62
256
370
-1
  6
BYLAYER
100
AcDbCircle
 10
0.0000000000000142
 20
44.2264973081036956
 30
0.0
 40
5.0
100
AcDbArc
 50
60.0000000000001066
 51
119.9999999999998863
  0
ARC
  5
EC
100
AcDbEntity
  8
0
 62
256
370
-1
  6
BYLAYER
100
AcDbCircle
 10
38.3012701892219098
 20
22.113248654051862
 30
0.0
 40
5.0
100
AcDbArc
 50
0.0
 51
59.9999999999997797
  0
ARC
  5
ED
100
AcDbEntity
  8
0
 62
256
370
-1
  6
BYLAYER
100
AcDbCircle
 10
38.3012701892219667
 20
-22.1132486540518833
 30
0.0
 40
5.0
100
AcDbArc
 50
299.9999999999998295
 51
0.0
  0
ARC
  5
EE
100
AcDbEntity
  8
0
 62
256
370
-1
  6
BYLAYER
100
AcDbCircle
 10
-0.0000000000000426
 20
-44.2264973081038235
 30
0.0
 40
5.0
100
AcDbArc
 50
239.9999999999997726
 51
300.0000000000002274
  0
ARC
  5
EF
100
AcDbEntity
  8
0
 62
256
370
-1
  6
BYLAYER
100
AcDbCircle
 10
-38.3012701892218814
 20
-22.1132486540518549
 30
0.0
 40
5.0
100
AcDbArc
 50
180.0
 51
239.9999999999997442
  0
DIMENSION
  5
F0
100
AcDbEntity
  8
0
 62
256
370
-1
  6
BYLAYER
100
AcDbDimension
 10
-35.9999999999999503
 20
23.5000000000000533
 30
0.0
 11
-40.4845350242510946
 21
18.3118649877098001
 31
0.0
 70
129
 71
8
 72
2
 41
1.0
 42
0.0
  1
9/64"
  3
Standard
100
AcDbAlignedDimension
 13
-38.9711431702996691
 23
23.500000000000032
 33
0.0
 14
-38.9711431702996549
 24
21.5000000000000178
 34
0.0
1001
ACAD
1000
DSTYLE
1002
{
1070
144
1040
1
1002
}
  0
DIMENSION
  5
F1
100
AcDbEntity
  8
0
 62
256
370
-1
  6
BYLAYER
100
AcDbDimension
 10
-37.5507916878480899
 20
1.000000000000091
 30
0.0
 11
-40.6201570855190255
 21
0.0969529923255124
 31
0.0
 70
129
 71
8
 72
2
 41
1.0
 42
0.0
  1
7/64"
  3
Standard
100
AcDbAlignedDimension
 13
-29.6984848098349481
 23
0.9999999999999645
 33
0.0
 14
-29.6984848098349801
 24
-1.0000000000000355
 34
0.0
1001
ACAD
1000
DSTYLE
1002
{
1070
144
1040
1
1002
}
  0
ARC
  5
F2
100
AcDbEntity
  8
0
 62
256
370
-1
  6
BYLAYER
100
AcDbCircle
 10
0.0000000000000372
 20
34.9999999999999503
 30
0.0
 40
5.0
100
AcDbArc
 50
200.429220249390653
 51
339.570779750609745
  0
ARC
  5
F3
100
AcDbEntity
  8
0
 62
256
370
-1
  6
BYLAYER
100
AcDbCircle
 10
-7.4968327960478307
 20
32.2075999519944531
 30
0.0
 40
3.0
100
AcDbArc
 50
20.4292202493907311
 51
120.0000000000000284
  0
ARC
  5
F4
100
AcDbEntity
  8
0
 62
256
370
-1
  6
BYLAYER
100
AcDbCircle
 10
7.4968327960479542
 20
32.2075999519945029
 30
0.0
 40
3.0
100
AcDbArc
 50
60.0000000000001279
 51
159.570779750609745
  0
LINE
  5
F5
100
AcDbEntity
100
AcDbLine
  8
0
 62
256
370
-1
  6
BYLAYER
 10
32.1410161513777695
 20
-21.4433756729742555
 30
0.0
 11
8.9968327960479471
 21
-34.8056761633479113
 31
0.0
  0
LINE
  5
F6
100
AcDbEntity
100
AcDbLine
  8
0
 62
256
370
-1
  6
BYLAYER
 10
-8.9968327960478263
 20
-34.8056761633478828
 30
0.0
 11
-32.1410161513775137
 21
-21.4433756729741951
 31
0.0
  0
ARC
  5
F7
100
AcDbEntity
  8
0
 62
256
370
-1
  6
BYLAYER
100
AcDbCircle
 10
0.0000000000000355
 20
-35.0000000000000568
 30
0.0
 40
5.0
100
AcDbArc
 50
20.4292202493902266
 51
159.570779750609347
  0
ARC
  5
F8
100
AcDbEntity
  8
0
 62
256
370
-1
  6
BYLAYER
100
AcDbCircle
 10
-7.4968327960478298
 20
-32.2075999519945668
 30
0.0
 40
3.0
100
AcDbArc
 50
239.9999999999999432
 51
339.5707797506092902
  0
ARC
  5
F9
100
AcDbEntity
  8
0
 62
256
370
-1
  6
BYLAYER
100
AcDbCircle
 10
7.4968327960479542
 20
-32.2075999519945952
 30
0.0
 40
3.0
100
AcDbArc
 50
200.4292202493902266
 51
299.9999999999998295
  0
CIRCLE
  5
FA
100
AcDbEntity
100
AcDbCircle
  8
0
 62
256
370
-1
  6
BYLAYER
 10
0.0000000000000372
 20
34.9999999999999503
 30
0.0
 40
1.0
  0
CIRCLE
  5
FB
100
AcDbEntity
100
AcDbCircle
  8
0
 62
256
370
-1
  6
BYLAYER
 10
0.0000000000000355
 20
-35.0000000000000568
 30
0.0
 40
1.0
  0
DIMENSION
  5
FC
100
AcDbEntity
  8
0
 62
256
370
-1
  6
BYLAYER
100
AcDbDimension
 10
-0.9999999999999644
 20
-37.0
 30
0.0
 11
0.0
 21
-40.0
 31
0.0
 70
129
 71
8
 72
2
 41
1.0
 42
0.0
  1
9/64"
  3
Standard
100
AcDbAlignedDimension
 13
-0.9999999999999645
 23
-35.0000000000000568
 33
0.0
 14
1.0000000000000355
 24
-35.0000000000000568
 34
0.0
1001
ACAD
1000
DSTYLE
1002
{
1070
144
1040
1
1002
}
  0
ENDBLK
  5
FD
100
AcDbEntity
  8
0
100
AcDbBlockEnd
  0
BLOCK
  5
FE
100
AcDbEntity
  8
0
100
AcDbBlockBegin
  2
femur_tibia
 70
0
 10
0.0
 20
0.0
 30
0.0
  3
femur_tibia
  1

  0
CIRCLE
  5
FF
100
AcDbEntity
100
AcDbCircle
  8
0
 62
256
370
-1
  6
BYLAYER
 10
-20.0000000000000036
 20
0.0
 30
0.0
 40
1.0
  0
CIRCLE
  5
100
100
AcDbEntity
100
AcDbCircle
  8
0
 62
256
370
-1
  6
BYLAYER
 10
20.0000000000000036
 20
0.0
 30
0.0
 40
1.0
  0
DIMENSION
  5
101
100
AcDbEntity
  8
0
 62
256
370
-1
  6
BYLAYER
100
AcDbDimension
 10
-21.0000000000000036
 20
2.1550058548009448
 30
0.0
 11
-17.8783539381229453
 21
-2.683898991581513
 31
0.0
 70
129
 71
8
 72
2
 41
1.0
 42
0.0
  1
9/64"
  3
Standard
100
AcDbAlignedDimension
 13
-21.0000000000000036
 23
0.0000000000000001
 33
0.0
 14
-19.0000000000000036
 24
-0.0000000000000002
 34
0.0
1001
ACAD
1000
DSTYLE
1002
{
1070
144
1040
1
1002
}
  0
LINE
  5
102
100
AcDbEntity
100
AcDbLine
  8
0
 62
256
370
-1
  6
BYLAYER
 10
-25.0
 20
5.0
 30
0.0
 11
25.0
 21
5.0
 31
0.0
  0
LINE
  5
103
100
AcDbEntity
100
AcDbLine
  8
0
 62
256
370
-1
  6
BYLAYER
 10
25.0
 20
-5.0
 30
0.0
 11
-25.0
 21
-5.0
 31
0.0
  0
DIMENSION
  5
104
100
AcDbEntity
  8
0
 62
256
370
-1
  6
BYLAYER
100
AcDbDimension
 10
13.5000000000000036
 20
-2.0690704396689483
 30
0.0
 11
15.3561444646010781
 21
2.3340089716700891
 31
0.0
 70
129
 71
8
 72
2
 41
1.0
 42
0.0
  1
3/64"
  3
Standard
100
AcDbAlignedDimension
 13
13.5000000000000036
 23
0.0
 33
0.0
 14
14.5000000000000036
 24
0.0
 34
0.0
1001
ACAD
1000
DSTYLE
1002
{
1070
144
1040
1
1002
}
  0
CIRCLE
  5
105
100
AcDbEntity
100
AcDbCircle
  8
0
 62
256
370
-1
  6
BYLAYER
 10
14.0000000000000036
 20
0.0
 30
0.0
 40
0.5
  0
CIRCLE
  5
106
100
AcDbEntity
100
AcDbCircle
  8
0
 62
256
370
-1
  6
BYLAYER
 10
-14.0000000000000036
 20
0.0
 30
0.0
 40
0.5
  0
LINE
  5
107
100
AcDbEntity
100
AcDbLine
  8
0
 62
256
370
-1
  6
BYLAYER
 10
-25.0
 20
-5.0
 30
0.0
 11
-25.0
 21
5.0
 31
0.0
  0
LINE
  5
108
100
AcDbEntity
100
AcDbLine
  8
0
 62
256
370
-1
  6
BYLAYER
 10
25.0
 20
5.0
 30
0.0
 11
25.0
 21
-5.0
 31
0.0
  0
ENDBLK
  5
109
100
AcDbEntity
  8
0
100
AcDbBlockEnd
  0
BLOCK
  5
10A
100
AcDbEntity
  8
0
100
AcDbBlockBegin
  2
femur_vertical
 70
0
 10
0.0
 20
0.0
 30
0.0
  3
femur_vertical
  1

  0
LINE
  5
10B
100
AcDbEntity
100
AcDbLine
  8
0
 62
256
370
-1
  6
BYLAYER
 10
-9.0
 20
-7.5
 30
0.0
 11
6.0
 21
-7.5
 31
0.0
  0
LINE
  5
10C
100
AcDbEntity
100
AcDbLine
  8
0
 62
256
370
-1
  6
BYLAYER
 10
6.0
 20
7.5000000000000009
 30
0.0
 11
-8.9999999999999982
 21
7.5000000000000009
 31
0.0
  0
LINE
  5
10D
100
AcDbEntity
100
AcDbLine
  8
0
 62
256
370
-1
  6
BYLAYER
 10
-10.0
 20
3.1749999999999998
 30
0.0
 11
-10.0
 21
6.5000000000000009
 31
0.0
  0
LINE
  5
10E
100
AcDbEntity
100
AcDbLine
  8
0
 62
256
370
-1
  6
BYLAYER
 10
-10.0
 20
-3.1749999999999998
 30
0.0
 11
-10.0
 21
-6.4999999999999991
 31
0.0
  0
INSERT
  5
10F
100
AcDbEntity
100
AcDbBlockReference
  8
0
 62
256
370
-1
  6
BYLAYER
  2
servo_mount
 10
20.0
 20
-0.1749999999999998
 30
0.0
  0
LINE
  5
110
100
AcDbEntity
100
AcDbLine
  8
0
 62
256
370
-1
  6
BYLAYER
 10
15.9999999999999982
 20
-17.5
 30
0.0
 11
24.0
 21
-17.5
 31
0.0
  0
LINE
  5
111
100
AcDbEntity
100
AcDbLine
  8
0
 62
256
370
-1
  6
BYLAYER
 10
29.0
 20
22.8249999999999993
 30
0.0
 11
16.0
 21
22.8249999999999993
 31
0.0
  0
LINE
  5
112
100
AcDbEntity
100
AcDbLine
  8
0
 62
256
370
-1
  6
BYLAYER
 10
11.0
 20
17.8249999999999993
 30
0.0
 11
11.0
 21
12.5
 31
0.0
  0
LINE
  5
113
100
AcDbEntity
100
AcDbLine
  8
0
 62
256
370
-1
  6
BYLAYER
 10
32.0
 20
12.8249999999999993
 30
0.0
 11
34.0
 21
12.8249999999999993
 31
0.0
  0
LINE
  5
114
100
AcDbEntity
100
AcDbLine
  8
0
 62
256
370
-1
  6
BYLAYER
 10
39.0
 20
17.8249999999999993
 30
0.0
 11
39.0
 21
17.8249999999999993
 31
0.0
  0
LINE
  5
115
100
AcDbEntity
100
AcDbLine
  8
0
 62
256
370
-1
  6
BYLAYER
 10
34.0
 20
22.8249999999999993
 30
0.0
 11
29.0
 21
22.8249999999999993
 31
0.0
  0
LINE
  5
116
100
AcDbEntity
100
AcDbLine
  8
0
 62
256
370
-1
  6
BYLAYER
 10
29.0
 20
9.8249999999999993
 30
0.0
 11
29.0
 21
-12.5000000000000036
 31
0.0
  0
ARC
  5
117
100
AcDbEntity
  8
0
 62
256
370
-1
  6
BYLAYER
100
AcDbCircle
 10
32.0
 20
9.8249999999999993
 30
0.0
 40
3.0
100
AcDbArc
 50
90.0
 51
180.0
  0
ARC
  5
118
100
AcDbEntity
  8
0
 62
256
370
-1
  6
BYLAYER
100
AcDbCircle
 10
34.0
 20
17.8249999999999993
 30
0.0
 40
5.0
100
AcDbArc
 50
0.0
 51
90.0
  0
ARC
  5
119
100
AcDbEntity
  8
0
 62
256
370
-1
  6
BYLAYER
100
AcDbCircle
 10
34.0
 20
17.8249999999999993
 30
0.0
 40
5.0
100
AcDbArc
 50
270.0
 51
0.0
  0
ARC
  5
11A
100
AcDbEntity
  8
0
 62
256
370
-1
  6
BYLAYER
100
AcDbCircle
 10
16.0
 20
17.8249999999999993
 30
0.0
 40
5.0
100
AcDbArc
 50
90.0
 51
180.0
  0
ARC
  5
11B
100
AcDbEntity
  8
0
 62
256
370
-1
  6
BYLAYER
100
AcDbCircle
 10
15.9999999999999982
 20
-12.5
 30
0.0
 40
5.0
100
AcDbArc
 50
180.0
 51
270.0
  0
ARC
  5
11C
100
AcDbEntity
  8
0
 62
256
370
-1
  6
BYLAYER
100
AcDbCircle
 10
24.0
 20
-12.5
 30
0.0
 40
5.0
100
AcDbArc
 50
270.0
 51
0.0
  0
LINE
  5
11D
100
AcDbEntity
100
AcDbLine
  8
0
 62
256
370
-1
  6
BYLAYER
 10
0.0
 20
3.1749999999999998
 30
0.0
 11
0.0
 21
-3.1749999999999998
 31
0.0
  0
LINE
  5
11E
100
AcDbEntity
100
AcDbLine
  8
0
 62
256
370
-1
  6
BYLAYER
 10
0.0
 20
-3.1749999999999998
 30
0.0
 11
-10.0
 21
-3.1749999999999998
 31
0.0
  0
LINE
  5
11F
100
AcDbEntity
100
AcDbLine
  8
0
 62
256
370
-1
  6
BYLAYER
 10
-0.0
 20
3.1749999999999998
 30
0.0
 11
-10.0
 21
3.1750000000000007
 31
0.0
  0
DIMENSION
  5
120
100
AcDbEntity
  8
0
 62
256
370
-1
  6
BYLAYER
100
AcDbDimension
 10
35.5
 20
20.0729994958112634
 30
0.0
 11
24.0
 21
21.0
 31
0.0
 70
129
 71
8
 72
2
 41
1.0
 42
0.0
  1
9/64"
  3
Standard
100
AcDbAlignedDimension
 13
35.5
 23
17.8249999999999922
 33
0.0
 14
32.5
 24
17.8249999999999993
 34
0.0
1001
ACAD
1000
DSTYLE
1002
{
1070
144
1040
1
1002
}
  0
CIRCLE
  5
121
100
AcDbEntity
100
AcDbCircle
  8
0
 62
256
370
-1
  6
BYLAYER
 10
34.0
 20
17.8249999999999993
 30
0.0
 40
1.5
  0
ARC
  5
122
100
AcDbEntity
  8
0
 62
256
370
-1
  6
BYLAYER
100
AcDbCircle
 10
6.0
 20
-12.5
 30
0.0
 40
5.0
100
AcDbArc
 50
0.0
 51
90.0
  0
ARC
  5
123
100
AcDbEntity
  8
0
 62
256
370
-1
  6
BYLAYER
100
AcDbCircle
 10
6.0
 20
12.5
 30
0.0
 40
5.0
100
AcDbArc
 50
270.0
 51
0.0
  0
ARC
  5
124
100
AcDbEntity
  8
0
 62
256
370
-1
  6
BYLAYER
100
AcDbCircle
 10
-9.0
 20
6.5000000000000009
 30
0.0
 40
1.0
100
AcDbArc
 50
89.9999999999999005
 51
180.0
  0
ARC
  5
125
100
AcDbEntity
  8
0
 62
256
370
-1
  6
BYLAYER
100
AcDbCircle
 10
-9.0
 20
-6.4999999999999991
 30
0.0
 40
1.0
100
AcDbArc
 50
180.0
 51
270.0
  0
ENDBLK
  5
126
100
AcDbEntity
  8
0
100
AcDbBlockEnd
  0
BLOCK
  5
127
100
AcDbEntity
  8
0
100
AcDbBlockBegin
  2
femur_crossbrace
 70
0
 10
0.0
 20
0.0
 30
0.0
  3
femur_crossbrace
  1

  0
LINE
  5
128
100
AcDbEntity
100
AcDbLine
  8
0
 62
256
370
-1
  6
BYLAYER
 10
-8.0
 20
-0.0000000000000284
 30
0.0
 11
-8.0
 21
12.9999999999999716
 31
0.0
  0
LINE
  5
129
100
AcDbEntity
100
AcDbLine
  8
0
 62
256
370
-1
  6
BYLAYER
 10
-8.0
 20
0.0
 30
0.0
 11
0.0
 21
0.0
 31
0.0
  0
LINE
  5
12A
100
AcDbEntity
100
AcDbLine
  8
0
 62
256
370
-1
  6
BYLAYER
 10
0.0
 20
0.0
 30
0.0
 11
0.0
 21
13.0
 31
0.0
  0
LINE
  5
12B
100
AcDbEntity
100
AcDbLine
  8
0
 62
256
370
-1
  6
BYLAYER
 10
0.0
 20
13.0
 30
0.0
 11
-8.0
 21
13.0
 31
0.0
  0
ENDBLK
  5
12C
100
AcDbEntity
  8
0
100
AcDbBlockEnd
  0
BLOCK
  5
12D
100
AcDbEntity
  8
0
100
AcDbBlockBegin
  2
body_middle
 70
0
 10
0.0
 20
0.0
 30
0.0
  3
body_middle
  1

  0
INSERT
  5
12E
100
AcDbEntity
100
AcDbBlockReference
  8
0
 62
256
370
-1
  6
BYLAYER
  2
servo_mount
 10
-25.1987298107781044
 20
9.0000000000000284
 30
0.0
 50
-270.0
  0
INSERT
  5
12F
100
AcDbEntity
100
AcDbBlockReference
  8
0
 62
256
370
-1
  6
BYLAYER
  2
servo_mount
 10
-20.3935935394490002
 20
-17.3227401592340584
 30
0.0
 50
-210.0
  0
INSERT
  5
130
100
AcDbEntity
100
AcDbBlockReference
  8
0
 62
256
370
-1
  6
BYLAYER
  2
servo_mount
 10
4.8051362713291041
 20
-26.3227401592340584
 30
0.0
 50
-150.0
  0
INSERT
  5
131
100
AcDbEntity
100
AcDbBlockReference
  8
0
 62
256
370
-1
  6
BYLAYER
  2
servo_mount
 10
25.1987298107781044
 20
-8.9999999999999716
 30
0.0
 50
-90.0
  0
INSERT
  5
132
100
AcDbEntity
100
AcDbBlockReference
  8
0
 62
256
370
-1
  6
BYLAYER
  2
servo_mount
 10
20.3935935394490002
 20
17.322740159234101
 30
0.0
 50
-30.0000000000000178
  0
INSERT
  5
133
100
AcDbEntity
100
AcDbBlockReference
  8
0
 62
256
370
-1
  6
BYLAYER
  2
servo_mount
 10
-4.8051362713291041
 20
26.3227401592341153
 30
0.0
 50
29.999999999999968
  0
CIRCLE
  5
134
100
AcDbEntity
100
AcDbCircle
  8
0
 62
256
370
-1
  6
BYLAYER
 10
0.0000000000001137
 20
45.0
 30
0.0
 40
1.0
  0
LINE
  5
135
100
AcDbEntity
100
AcDbLine
  8
0
 62
256
370
-1
  6
BYLAYER
 10
19.1506350946110331
 20
33.169872981077873
 30
0.0
 11
14.7108180146395
 21
25.4798842222550945
 31
0.0
  0
ARC
  5
136
100
AcDbEntity
  8
0
 62
256
370
-1
  6
BYLAYER
100
AcDbCircle
 10
23.480762113533217
 20
30.669872981077873
 30
0.0
 40
5.0
100
AcDbArc
 50
59.9999999999999858
 51
150.0000000000000284
  0
ARC
  5
137
100
AcDbEntity
  8
0
 62
256
370
-1
  6
BYLAYER
100
AcDbCircle
 10
12.112741803286184
 20
26.9798842222550803
 30
0.0
 40
3.0
100
AcDbArc
 50
197.8665474670656579
 51
330.0
  0
LINE
  5
138
100
AcDbEntity
100
AcDbLine
  8
0
 62
256
370
-1
  6
BYLAYER
 10
-19.1506350946109478
 20
33.1698729810779014
 30
0.0
 11
-14.7108180146394716
 21
25.4798842222551087
 31
0.0
  0
ARC
  5
139
100
AcDbEntity
  8
0
 62
256
370
-1
  6
BYLAYER
100
AcDbCircle
 10
-14.8205080756887924
 20
35.6698729810778872
 30
0.0
 40
5.0
100
AcDbArc
 50
115.6345194428891716
 51
209.9999999999999716
  0
ARC
  5
13A
100
AcDbEntity
  8
0
 62
256
370
-1
  6
BYLAYER
100
AcDbCircle
 10
-17.3088942259927308
 20
23.9798842222551514
 30
0.0
 40
3.0
100
AcDbArc
 50
247.5685920288273678
 51
29.999999999999968
  0
CIRCLE
  5
13B
100
AcDbEntity
100
AcDbCircle
  8
0
 62
256
370
-1
  6
BYLAYER
 10
0.0
 20
0.0
 30
0.0
 40
10.0
  0
CIRCLE
  5
13C
100
AcDbEntity
100
AcDbCircle
  8
0
 62
256
370
-1
  6
BYLAYER
 10
-0.0000000000000036
 20
35.0
 30
0.0
 40
1.0
  0
CIRCLE
  5
13D
100
AcDbEntity
100
AcDbCircle
  8
0
 62
256
370
-1
  6
BYLAYER
 10
-0.0000000000000036
 20
-35.0
 30
0.0
 40
1.0
  0
DIMENSION
  5
13E
100
AcDbEntity
  8
0
 62
256
370
-1
  6
BYLAYER
100
AcDbDimension
 10
3.0
 20
36.0
 30
0.0
 11
6.0
 21
31.0
 31
0.0
 70
129
 71
8
 72
2
 41
1.0
 42
0.0
  1
9/64"
  3
Standard
100
AcDbAlignedDimension
 13
-0.0000000000000036
 23
36.0
 33
0.0
 14
-0.0000000000000036
 24
34.0
 34
0.0
1001
ACAD
1000
DSTYLE
1002
{
1070
144
1040
1
1002
}
  0
DIMENSION
  5
13F
100
AcDbEntity
  8
0
 62
256
370
-1
  6
BYLAYER
100
AcDbDimension
 10
-39.971143170299797
 20
-19.0
 30
0.0
 11
-33.0
 21
-15.0
 31
0.0
 70
129
 71
8
 72
2
 41
1.0
 42
0.0
  1
9/64"
  3
Standard
100
AcDbAlignedDimension
 13
-39.971143170299797
 23
-22.4999999999998863
 33
0.0
 14
-37.971143170299797
 24
-22.4999999999998863
 34
0.0
1001
ACAD
1000
DSTYLE
1002
{
1070
144
1040
1
1002
}
  0
LINE
  5
140
100
AcDbEntity
100
AcDbLine
  8
0
 62
256
370
-1
  6
BYLAYER
 10
-16.9836530984267995
 20
40.1777331841680194
 30
0.0
 11
-1.2978870136426905
 21
47.7047161218540765
 31
0.0
  0
LINE
  5
141
100
AcDbEntity
100
AcDbLine
  8
0
 62
256
370
-1
  6
BYLAYER
 10
2.8553210818195058
 20
45.9204029116195471
 30
0.0
 11
9.2574207214667918
 21
26.0594813106355367
 31
0.0
  0
ARC
  5
142
100
AcDbEntity
  8
0
 62
256
370
-1
  6
BYLAYER
100
AcDbCircle
 10
0.0000000000001137
 20
45.0
 30
0.0
 40
3.0
100
AcDbArc
 50
17.8665474670656579
 51
115.6345194428891432
  0
LINE
  5
143
100
AcDbEntity
100
AcDbLine
  8
0
 62
256
370
-1
  6
BYLAYER
 10
-19.1506350946109869
 20
33.1698729810778943
 30
0.0
 11
-14.7108180146394645
 21
25.4798842222551123
 31
0.0
  0
LINE
  5
144
100
AcDbEntity
100
AcDbLine
  8
0
 62
256
370
-1
  6
BYLAYER
 10
-43.2867641531759446
 20
5.380591559784099
 30
0.0
 11
-41.9624395486720303
 21
22.7283549358705628
 31
0.0
  0
ARC
  5
145
100
AcDbEntity
  8
0
 62
256
370
-1
  6
BYLAYER
100
AcDbCircle
 10
-14.8205080756887941
 20
35.6698729810778943
 30
0.0
 40
5.0
100
AcDbArc
 50
119.9999999999999716
 51
210.0
  0
LINE
  5
146
100
AcDbEntity
100
AcDbLine
  8
0
 62
256
370
-1
  6
BYLAYER
 10
-38.3405749325696732
 20
25.4329820486267373
 30
0.0
 11
-17.9394624637227729
 21
21.0469021736284851
 31
0.0
  0
ARC
  5
147
100
AcDbEntity
  8
0
 62
256
370
-1
  6
BYLAYER
100
AcDbCircle
 10
-17.3088942259927663
 20
23.9798842222551087
 30
0.0
 40
3.0
100
AcDbArc
 50
257.8665474670656863
 51
29.999999999999968
  0
ARC
  5
148
100
AcDbEntity
  8
0
 62
256
370
-1
  6
BYLAYER
100
AcDbCircle
 10
-38.9711431702996833
 20
22.5000000000000995
 30
0.0
 40
3.0
100
AcDbArc
 50
77.8665474670656579
 51
175.6345194428891432
  0
LINE
  5
149
100
AcDbEntity
100
AcDbLine
  8
0
 62
256
370
-1
  6
BYLAYER
 10
-38.3012701892220022
 20
0.0000000000000727
 30
0.0
 11
-29.4216360292789645
 21
0.0000000000000036
 31
0.0
  0
CIRCLE
  5
14A
100
AcDbEntity
100
AcDbCircle
  8
0
 62
256
370
-1
  6
BYLAYER
 10
-38.9711431702996833
 20
22.5000000000000995
 30
0.0
 40
1.0
  0
ARC
  5
14B
100
AcDbEntity
  8
0
 62
256
370
-1
  6
BYLAYER
100
AcDbCircle
 10
-38.3012701892220093
 20
5.0000000000000382
 30
0.0
 40
5.0
100
AcDbArc
 50
175.6345194428891716
 51
269.9999999999999432
  0
ARC
  5
14C
100
AcDbEntity
  8
0
 62
256
370
-1
  6
BYLAYER
100
AcDbCircle
 10
-29.4216360292789751
 20
-2.999999999999921
 30
0.0
 40
3.0
100
AcDbArc
 50
307.5685920288273678
 51
89.9999999999999574
  0
LINE
  5
14D
100
AcDbEntity
100
AcDbLine
  8
0
 62
256
370
-1
  6
BYLAYER
 10
-38.3012701892220235
 20
0.0000000000000387
 30
0.0
 11
-29.4216360292789645
 21
0.0000000000000297
 31
0.0
  0
LINE
  5
14E
100
AcDbEntity
100
AcDbLine
  8
0
 62
256
370
-1
  6
BYLAYER
 10
-26.3031110547491522
 20
-34.7971416243839045
 30
0.0
 11
-40.6645525350293582
 21
-24.9763611859835173
 31
0.0
  0
ARC
  5
14F
100
AcDbEntity
  8
0
 62
256
370
-1
  6
BYLAYER
100
AcDbCircle
 10
-38.3012701892220235
 20
5.0000000000000213
 30
0.0
 40
5.0
100
AcDbArc
 50
179.9999999999999716
 51
270.0
  0
LINE
  5
150
100
AcDbEntity
100
AcDbLine
  8
0
 62
256
370
-1
  6
BYLAYER
 10
-41.1958960143891915
 20
-20.4874208629927921
 30
0.0
 11
-27.1968831851895736
 21
-5.0125791370070543
 31
0.0
  0
ARC
  5
151
100
AcDbEntity
  8
0
 62
256
370
-1
  6
BYLAYER
100
AcDbCircle
 10
-29.4216360292789503
 20
-2.9999999999999716
 30
0.0
 40
3.0
100
AcDbArc
 50
317.8665474670656863
 51
90.0
  0
ARC
  5
152
100
AcDbEntity
  8
0
 62
256
370
-1
  6
BYLAYER
100
AcDbCircle
 10
-38.971143170299797
 20
-22.4999999999999041
 30
0.0
 40
3.0
100
AcDbArc
 50
137.8665474670656579
 51
235.6345194428891716
  0
LINE
  5
153
100
AcDbEntity
100
AcDbLine
  8
0
 62
256
370
-1
  6
BYLAYER
 10
-19.1506350946110473
 20
-33.1698729810778374
 30
0.0
 11
-14.7108180146394947
 21
-25.4798842222550945
 31
0.0
  0
CIRCLE
  5
154
100
AcDbEntity
100
AcDbCircle
  8
0
 62
256
370
-1
  6
BYLAYER
 10
-38.971143170299797
 20
-22.4999999999999041
 30
0.0
 40
1.0
  0
ARC
  5
155
100
AcDbEntity
  8
0
 62
256
370
-1
  6
BYLAYER
100
AcDbCircle
 10
-23.4807621135332134
 20
-30.6698729810778694
 30
0.0
 40
5.0
100
AcDbArc
 50
235.6345194428891716
 51
329.9999999999999432
  0
ARC
  5
156
100
AcDbEntity
  8
0
 62
256
370
-1
  6
BYLAYER
100
AcDbCircle
 10
-12.1127418032862497
 20
-26.9798842222550697
 30
0.0
 40
3.0
100
AcDbArc
 50
7.5685920288273438
 51
149.9999999999999716
  0
LINE
  5
157
100
AcDbEntity
100
AcDbLine
  8
0
 62
256
370
-1
  6
BYLAYER
 10
-19.1506350946110295
 20
-33.169872981077873
 30
0.0
 11
-14.7108180146394947
 21
-25.4798842222550945
 31
0.0
  0
LINE
  5
158
100
AcDbEntity
100
AcDbLine
  8
0
 62
256
370
-1
  6
BYLAYER
 10
16.9836530984267782
 20
-40.1777331841680265
 30
0.0
 11
1.2978870136426839
 21
-47.7047161218540765
 31
0.0
  0
ARC
  5
159
100
AcDbEntity
  8
0
 62
256
370
-1
  6
BYLAYER
100
AcDbCircle
 10
-23.480762113533217
 20
-30.6698729810778765
 30
0.0
 40
5.0
100
AcDbArc
 50
240.0
 51
330.0
  0
LINE
  5
15A
100
AcDbEntity
100
AcDbLine
  8
0
 62
256
370
-1
  6
BYLAYER
 10
-2.8553210818195032
 20
-45.92040291161954
 30
0.0
 11
-9.2574207214667972
 21
-26.0594813106355367
 31
0.0
  0
ARC
  5
15B
100
AcDbEntity
  8
0
 62
256
370
-1
  6
BYLAYER
100
AcDbCircle
 10
-12.1127418032861947
 20
-26.9798842222550732
 30
0.0
 40
3.0
100
AcDbArc
 50
17.8665474670656934
 51
150.0000000000000284
  0
ARC
  5
15C
100
AcDbEntity
  8
0
 62
256
370
-1
  6
BYLAYER
100
AcDbCircle
 10
-0.0000000000001282
 20
-45.0
 30
0.0
 40
3.0
100
AcDbArc
 50
197.8665474670656579
 51
295.6345194428891432
  0
LINE
  5
15D
100
AcDbEntity
100
AcDbLine
  8
0
 62
256
370
-1
  6
BYLAYER
 10
19.1506350946109443
 20
-33.1698729810779014
 30
0.0
 11
14.7108180146394627
 21
-25.4798842222551158
 31
0.0
  0
CIRCLE
  5
15E
100
AcDbEntity
100
AcDbCircle
  8
0
 62
256
370
-1
  6
BYLAYER
 10
-0.0000000000001282
 20
-45.0
 30
0.0
 40
1.0
  0
ARC
  5
15F
100
AcDbEntity
  8
0
 62
256
370
-1
  6
BYLAYER
100
AcDbCircle
 10
14.820508075688787
 20
-35.6698729810778872
 30
0.0
 40
5.0
100
AcDbArc
 50
295.6345194428892
 51
29.999999999999968
  0
ARC
  5
160
100
AcDbEntity
  8
0
 62
256
370
-1
  6
BYLAYER
100
AcDbCircle
 10
17.3088942259927379
 20
-23.9798842222551478
 30
0.0
 40
3.0
100
AcDbArc
 50
67.568592028827382
 51
209.9999999999999716
  0
LINE
  5
161
100
AcDbEntity
100
AcDbLine
  8
0
 62
256
370
-1
  6
BYLAYER
 10
19.1506350946109869
 20
-33.1698729810779014
 30
0.0
 11
14.7108180146394627
 21
-25.4798842222551158
 31
0.0
  0
LINE
  5
162
100
AcDbEntity
100
AcDbLine
  8
0
 62
256
370
-1
  6
BYLAYER
 10
43.2867641531759446
 20
-5.3805915597841043
 30
0.0
 11
41.9624395486720303
 21
-22.7283549358705663
 31
0.0
  0
ARC
  5
163
100
AcDbEntity
  8
0
 62
256
370
-1
  6
BYLAYER
100
AcDbCircle
 10
14.8205080756887888
 20
-35.6698729810778943
 30
0.0
 40
5.0
100
AcDbArc
 50
300.0
 51
30.0000000000000178
  0
LINE
  5
164
100
AcDbEntity
100
AcDbLine
  8
0
 62
256
370
-1
  6
BYLAYER
 10
38.3405749325696661
 20
-25.4329820486267408
 30
0.0
 11
17.9394624637227693
 21
-21.0469021736284887
 31
0.0
  0
ARC
  5
165
100
AcDbEntity
  8
0
 62
256
370
-1
  6
BYLAYER
100
AcDbCircle
 10
17.3088942259927521
 20
-23.9798842222551158
 30
0.0
 40
3.0
100
AcDbArc
 50
77.8665474670656295
 51
209.9999999999999716
  0
ARC
  5
166
100
AcDbEntity
  8
0
 62
256
370
-1
  6
BYLAYER
100
AcDbCircle
 10
38.9711431702996691
 20
-22.5000000000001243
 30
0.0
 40
3.0
100
AcDbArc
 50
257.8665474670656295
 51
355.6345194428891432
  0
LINE
  5
167
100
AcDbEntity
100
AcDbLine
  8
0
 62
256
370
-1
  6
BYLAYER
 10
38.3012701892220022
 20
-0.0000000000000774
 30
0.0
 11
29.4216360292789645
 21
-0.0000000000000072
 31
0.0
  0
CIRCLE
  5
168
100
AcDbEntity
100
AcDbCircle
  8
0
 62
256
370
-1
  6
BYLAYER
 10
38.9711431702996691
 20
-22.5000000000001243
 30
0.0
 40
1.0
  0
ARC
  5
169
100
AcDbEntity
  8
0
 62
256
370
-1
  6
BYLAYER
100
AcDbCircle
 10
38.3012701892220093
 20
-5.0000000000000417
 30
0.0
 40
5.0
100
AcDbArc
 50
355.6345194428891432
 51
89.9999999999999432
  0
ARC
  5
16A
100
AcDbEntity
  8
0
 62
256
370
-1
  6
BYLAYER
100
AcDbCircle
 10
29.4216360292789787
 20
2.9999999999998912
 30
0.0
 40
3.0
100
AcDbArc
 50
127.568592028827311
 51
269.9999999999999432
  0
LINE
  5
16B
100
AcDbEntity
100
AcDbLine
  8
0
 62
256
370
-1
  6
BYLAYER
 10
38.3012701892220235
 20
-0.0000000000000434
 30
0.0
 11
29.4216360292789645
 21
-0.0000000000000333
 31
0.0
  0
LINE
  5
16C
100
AcDbEntity
100
AcDbLine
  8
0
 62
256
370
-1
  6
BYLAYER
 10
26.3031110547491842
 20
34.7971416243838831
 30
0.0
 11
40.6645525350293653
 21
24.976361185983496
 31
0.0
  0
ARC
  5
16D
100
AcDbEntity
  8
0
 62
256
370
-1
  6
BYLAYER
100
AcDbCircle
 10
38.3012701892220164
 20
-5.0000000000000435
 30
0.0
 40
5.0
100
AcDbArc
 50
359.9999999999999432
 51
90.0
  0
LINE
  5
16E
100
AcDbEntity
100
AcDbLine
  8
0
 62
256
370
-1
  6
BYLAYER
 10
41.1958960143891915
 20
20.4874208629927885
 30
0.0
 11
27.1968831851895771
 21
5.0125791370070383
 31
0.0
  0
ARC
  5
16F
100
AcDbEntity
  8
0
 62
256
370
-1
  6
BYLAYER
100
AcDbCircle
 10
29.4216360292789538
 20
2.9999999999999414
 30
0.0
 40
3.0
100
AcDbArc
 50
137.8665474670656579
 51
269.9999999999998863
  0
ARC
  5
170
100
AcDbEntity
  8
0
 62
256
370
-1
  6
BYLAYER
100
AcDbCircle
 10
38.9711431702998183
 20
22.4999999999998614
 30
0.0
 40
3.0
100
AcDbArc
 50
317.8665474670655726
 51
55.6345194428891148
  0
LINE
  5
171
100
AcDbEntity
100
AcDbLine
  8
0
 62
256
370
-1
  6
BYLAYER
 10
19.1506350946110793
 20
33.1698729810778232
 30
0.0
 11
14.7108180146395178
 21
25.4798842222550839
 31
0.0
  0
CIRCLE
  5
172
100
AcDbEntity
100
AcDbCircle
  8
0
 62
256
370
-1
  6
BYLAYER
 10
38.9711431702998183
 20
22.4999999999998614
 30
0.0
 40
1.0
  0
ARC
  5
173
100
AcDbEntity
  8
0
 62
256
370
-1
  6
BYLAYER
100
AcDbCircle
 10
23.4807621135332454
 20
30.6698729810778445
 30
0.0
 40
5.0
100
AcDbArc
 50
55.6345194428891645
 51
149.9999999999999147
  0
ARC
  5
174
100
AcDbEntity
  8
0
 62
256
370
-1
  6
BYLAYER
100
AcDbCircle
 10
12.1127418032862533
 20
26.9798842222550661
 30
0.0
 40
3.0
100
AcDbArc
 50
187.5685920288273394
 51
329.9999999999999432
  0
ENDBLK
  5
175
100
AcDbEntity
  8
0
100
AcDbBlockEnd
  0
BLOCK
  5
176
100
AcDbEntity
  8
0
100
AcDbBlockBegin
  2
battery_holder
 70
0
 10
0.0
 20
0.0
 30
0.0
  3
battery_holder
  1

  0
LINE
  5
177
100
AcDbEntity
100
AcDbLine
  8
0
 62
256
370
-1
  6
DOT2
 10
-29.0
 20
-31.0
 30
0.0
 11
29.0
 21
-31.0
 31
0.0
  0
LINE
  5
178
100
AcDbEntity
100
AcDbLine
  8
0
 62
256
370
-1
  6
DOT2
 10
29.0
 20
-31.0
 30
0.0
 11
29.0
 21
31.0
 31
0.0
  0
LINE
  5
179
100
AcDbEntity
100
AcDbLine
  8
0
 62
256
370
-1
  6
DOT2
 10
29.0
 20
31.0
 30
0.0
 11
-29.0
 21
31.0
 31
0.0
  0
LINE
  5
17A
100
AcDbEntity
100
AcDbLine
  8
0
 62
256
370
-1
  6
DOT2
 10
-29.0
 20
31.0
 30
0.0
 11
-29.0
 21
-31.0
 31
0.0
  0
CIRCLE
  5
17B
100
AcDbEntity
100
AcDbCircle
  8
0
 62
256
370
-1
  6
DOT2
 10
-0.0000000000000284
 20
-22.2999999999999972
 30
0.0
 40
1.5
  0
CIRCLE
  5
17C
100
AcDbEntity
100
AcDbCircle
  8
0
 62
256
370
-1
  6
DOT2
 10
0.0
 20
22.2999999999999972
 30
0.0
 40
1.5
  0
DIMENSION
  5
17D
100
AcDbEntity
  8
0
 62
256
370
-1
  6
BYLAYER
100
AcDbDimension
 10
6.0
 20
23.7999999999999972
 30
0.0
 11
10.0
 21
22.0
 31
0.0
 70
129
 71
8
 72
2
 41
1.0
 42
0.0
  1
9/64"
  3
Standard
100
AcDbAlignedDimension
 13
0.0
 23
23.7999999999999972
 33
0.0
 14
0.0
 24
20.7999999999999972
 34
0.0
1001
ACAD
1000
DSTYLE
1002
{
1070
144
1040
1
1002
}
  0
ENDBLK
  5
17E
100
AcDbEntity
  8
0
100
AcDbBlockEnd
  0
BLOCK
  5
17F
100
AcDbEntity
  8
0
100
AcDbBlockBegin
  2
control_pcb
 70
0
 10
0.0
 20
0.0
 30
0.0
  3
control_pcb
  1

  0
LINE
  5
180
100
AcDbEntity
100
AcDbLine
  8
0
 62
256
370
-1
  6
DASHED
 10
-70.7106781186547266
 20
-0.0000000000000142
 30
0.0
 11
-35.3553390593273633
 21
-35.3553390593273917
 31
0.0
  0
LINE
  5
181
100
AcDbEntity
100
AcDbLine
  8
0
 62
256
370
-1
  6
DASHED
 10
-35.3553390593273633
 20
-35.3553390593273917
 30
0.0
 11
0.0000000000000142
 21
-0.0000000000000142
 31
0.0
  0
LINE
  5
182
100
AcDbEntity
100
AcDbLine
  8
0
 62
256
370
-1
  6
DASHED
 10
0.0000000000000142
 20
-0.0000000000000142
 30
0.0
 11
-35.3553390593273562
 21
35.3553390593273633
 31
0.0
  0
LINE
  5
183
100
AcDbEntity
100
AcDbLine
  8
0
 62
256
370
-1
  6
DASHED
 10
-35.3553390593273562
 20
35.3553390593273633
 30
0.0
 11
-70.7106781186547266
 21
-0.0000000000000142
 31
0.0
  0
LINE
  5
184
100
AcDbEntity
100
AcDbLine
  8
0
 62
256
370
-1
  6
DASHED
 10
-61.9999999999999858
 20
-7.0000000000000284
 30
0.0
 11
-9.9999999999999858
 21
-7.0000000000000284
 31
0.0
  0
LINE
  5
185
100
AcDbEntity
100
AcDbLine
  8
0
 62
256
370
-1
  6
DASHED
 10
-9.9999999999999858
 20
-7.0000000000000284
 30
0.0
 11
-9.9999999999999858
 21
6.9999999999999716
 31
0.0
  0
LINE
  5
186
100
AcDbEntity
100
AcDbLine
  8
0
 62
256
370
-1
  6
DASHED
 10
-9.9999999999999858
 20
6.9999999999999716
 30
0.0
 11
-61.9999999999999858
 21
6.9999999999999716
 31
0.0
  0
LINE
  5
187
100
AcDbEntity
100
AcDbLine
  8
0
 62
256
370
-1
  6
DASHED
 10
-61.9999999999999858
 20
6.9999999999999716
 30
0.0
 11
-61.9999999999999858
 21
-7.0000000000000284
 31
0.0
  0
LINE
  5
188
100
AcDbEntity
100
AcDbLine
  8
0
 62
256
370
-1
  6
DASHED
 10
-52.9999999999999858
 20
-14.5000000000000284
 30
0.0
 11
-17.9999999999999858
 21
-14.5000000000000284
 31
0.0
  0
LINE
  5
189
100
AcDbEntity
100
AcDbLine
  8
0
 62
256
370
-1
  6
DASHED
 10
-17.9999999999999858
 20
-14.5000000000000284
 30
0.0
 11
-17.9999999999999858
 21
10.4999999999999716
 31
0.0
  0
LINE
  5
18A
100
AcDbEntity
100
AcDbLine
  8
0
 62
256
370
-1
  6
DASHED
 10
-17.9999999999999858
 20
10.4999999999999716
 30
0.0
 11
-52.9999999999999858
 21
10.4999999999999716
 31
0.0
  0
LINE
  5
18B
100
AcDbEntity
100
AcDbLine
  8
0
 62
256
370
-1
  6
DASHED
 10
-52.9999999999999858
 20
10.4999999999999716
 30
0.0
 11
-52.9999999999999858
 21
-14.5000000000000284
 31
0.0
  0
CIRCLE
  5
18C
100
AcDbEntity
100
AcDbCircle
  8
0
 62
256
370
-1
  6
CONTINUOUS
 10
-35.3553390593273562
 20
-29.6984848098349943
 30
0.0
 40
1.0
  0
CIRCLE
  5
18D
100
AcDbEntity
100
AcDbCircle
  8
0
 62
256
370
-1
  6
CONTINUOUS
 10
-35.3553390593273562
 20
29.6984848098349801
 30
0.0
 40
1.0
  0
ENDBLK
  5
18E
100
AcDbEntity
  8
0
100
AcDbBlockEnd
  0
BLOCK
  5
18F
100
AcDbEntity
  8
0
100
AcDbBlockBegin
  2
servo_mount
 70
0
 10
0.0
 20
0.0
 30
0.0
  3
servo_mount
  1

  0
CIRCLE
  5
190
100
AcDbEntity
100
AcDbCircle
  8
0
 62
256
370
-1
  6
BYLAYER
 10
0.0
 20
13.9999999999999982
 30
0.0
 40
0.5
  0
CIRCLE
  5
191
100
AcDbEntity
100
AcDbCircle
  8
0
 62
256
370
-1
  6
BYLAYER
 10
0.0
 20
-13.9999999999999982
 30
0.0
 40
0.5
  0
LINE
  5
192
100
AcDbEntity
100
AcDbLine
  8
0
 62
256
370
-1
  6
BYLAYER
 10
6.0
 20
-11.5
 30
0.0
 11
6.0
 21
11.5
 31
0.0
  0
LINE
  5
193
100
AcDbEntity
100
AcDbLine
  8
0
 62
256
370
-1
  6
BYLAYER
 10
6.0
 20
11.5
 30
0.0
 11
-5.9999999999999893
 21
11.5
 31
0.0
  0
LINE
  5
194
100
AcDbEntity
100
AcDbLine
  8
0
 62
256
370
-1
  6
BYLAYER
 10
-5.9999999999999893
 20
11.5
 30
0.0
 11
-6.0
 21
-11.4999999999999982
 31
0.0
  0
LINE
  5
195
100
AcDbEntity
100
AcDbLine
  8
0
 62
256
370
-1
  6
BYLAYER
 10
-6.0
 20
-11.4999999999999982
 30
0.0
 11
6.0
 21
-11.5
 31
0.0
  0
DIMENSION
  5
196
100
AcDbEntity
  8
0
 62
256
370
-1
  6
BYLAYER
100
AcDbDimension
 10
3.5654529172320153
 20
14.4999999999999982
 30
0.0
 11
1.8056235137575527
 21
6.4065370865184263
 31
0.0
 70
129
 71
8
 72
2
 41
1.0
 42
0.0
  1
1/16"
  3
Standard
100
AcDbAlignedDimension
 13
0.0
 23
14.4999999999999982
 33
0.0
 14
0.0
 24
13.4999999999999982
 34
0.0
1001
ACAD
1000
DSTYLE
1002
{
1070
144
1040
1
1002
}
  0
ENDBLK
  5
197
100
AcDbEntity
  8
0
100
AcDbBlockEnd
  0
BLOCK
  5
198
100
AcDbEntity
  8
0
100
AcDbBlockBegin
  2
tibia
 70
0
 10
0.0
 20
0.0
 30
0.0
  3
tibia
  1

  0
INSERT
  5
199
100
AcDbEntity
100
AcDbBlockReference
  8
0
 62
256
370
-1
  6
BYLAYER
  2
servo_mount
 10
5.0
 20
-23.5
 30
0.0
  0
LINE
  5
19A
100
AcDbEntity
100
AcDbLine
  8
0
 62
256
370
-1
  6
BYLAYER
 10
15.0
 20
-37.0
 30
0.0
 11
15.0
 21
-10.0
 31
0.0
  0
LINE
  5
19B
100
AcDbEntity
100
AcDbLine
  8
0
 62
256
370
-1
  6
BYLAYER
 10
-5.0
 20
-5.0
 30
0.0
 11
-5.0
 21
-42.0
 31
0.0
  0
LINE
  5
19C
100
AcDbEntity
100
AcDbLine
  8
0
 62
256
370
-1
  6
BYLAYER
 10
0.0
 20
-57.0
 30
0.0
 11
0.0
 21
-57.0
 31
0.0
  0
LINE
  5
19D
100
AcDbEntity
100
AcDbLine
  8
0
 62
256
370
-1
  6
BYLAYER
 10
5.0
 20
-52.0
 30
0.0
 11
5.0
 21
-47.0
 31
0.0
  0
LINE
  5
19E
100
AcDbEntity
100
AcDbLine
  8
0
 62
256
370
-1
  6
BYLAYER
 10
-5.0
 20
-42.0
 30
0.0
 11
-5.0
 21
-52.0
 31
0.0
  0
LINE
  5
19F
100
AcDbEntity
100
AcDbLine
  8
0
 62
256
370
-1
  6
BYLAYER
 10
10.0
 20
-42.0
 30
0.0
 11
10.0
 21
-42.0
 31
0.0
  0
LINE
  5
1A0
100
AcDbEntity
100
AcDbLine
  8
0
 62
256
370
-1
  6
BYLAYER
 10
5.0
 20
0.0
 30
0.0
 11
5.0
 21
0.0
 31
0.0
  0
LINE
  5
1A1
100
AcDbEntity
100
AcDbLine
  8
0
 62
256
370
-1
  6
BYLAYER
 10
0.0
 20
5.0
 30
0.0
 11
0.0
 21
5.0
 31
0.0
  0
LINE
  5
1A2
100
AcDbEntity
100
AcDbLine
  8
0
 62
256
370
-1
  6
BYLAYER
 10
-5.0
 20
0.0
 30
0.0
 11
-5.0
 21
-5.0
 31
0.0
  0
LINE
  5
1A3
100
AcDbEntity
100
AcDbLine
  8
0
 62
256
370
-1
  6
BYLAYER
 10
10.0
 20
-5.0
 30
0.0
 11
10.0
 21
-5.0
 31
0.0
  0
ARC
  5
1A4
100
AcDbEntity
  8
0
 62
256
370
-1
  6
BYLAYER
100
AcDbCircle
 10
0.0
 20
0.0
 30
0.0
 40
5.0
100
AcDbArc
 50
90.0
 51
180.0
  0
ARC
  5
1A5
100
AcDbEntity
  8
0
 62
256
370
-1
  6
BYLAYER
100
AcDbCircle
 10
0.0
 20
0.0
 30
0.0
 40
5.0
100
AcDbArc
 50
0.0
 51
90.0
  0
ARC
  5
1A6
100
AcDbEntity
  8
0
 62
256
370
-1
  6
BYLAYER
100
AcDbCircle
 10
10.0
 20
-10.0000000000000018
 30
0.0
 40
5.0
100
AcDbArc
 50
0.0
 51
90.0
  0
ARC
  5
1A7
100
AcDbEntity
  8
0
 62
256
370
-1
  6
BYLAYER
100
AcDbCircle
 10
10.0
 20
-37.0
 30
0.0
 40
5.0
100
AcDbArc
 50
270.0
 51
0.0
  0
ARC
  5
1A8
100
AcDbEntity
  8
0
 62
256
370
-1
  6
BYLAYER
100
AcDbCircle
 10
0.0
 20
-52.0
 30
0.0
 40
5.0
100
AcDbArc
 50
180.0
 51
270.0
  0
ARC
  5
1A9
100
AcDbEntity
  8
0
 62
256
370
-1
  6
BYLAYER
100
AcDbCircle
 10
0.0
 20
-52.0
 30
0.0
 40
5.0
100
AcDbArc
 50
270.0
 51
0.0
  0
CIRCLE
  5
1AA
100
AcDbEntity
100
AcDbCircle
  8
0
 62
256
370
-1
  6
BYLAYER
 10
0.0
 20
0.0
 30
0.0
 40
1.5
  0
DIMENSION
  5
1AB
100
AcDbEntity
  8
0
 62
256
370
-1
  6
BYLAYER
100
AcDbDimension
 10
1.4999999999999996
 20
-3.0
 30
0.0
 11
1.0
 21
-6.0
 31
0.0
 70
129
 71
8
 72
2
 41
1.0
 42
0.0
  1
9/64"
  3
Standard
100
AcDbAlignedDimension
 13
1.5
 23
0.0
 33
0.0
 14
-1.5
 24
0.0
 34
0.0
1001
ACAD
1000
DSTYLE
1002
{
1070
144
1040
1
1002
}
  0
ARC
  5
1AC
100
AcDbEntity
  8
0
 62
256
370
-1
  6
BYLAYER
100
AcDbCircle
 10
10.0
 20
-47.0
 30
0.0
 40
5.0
100
AcDbArc
 50
90.0
 51
180.0
  0
ARC
  5
1AD
100
AcDbEntity
  8
0
 62
256
370
-1
  6
BYLAYER
100
AcDbCircle
 10
10.0
 20
-0.0
 30
0.0
 40
5.0
100
AcDbArc
 50
180.0
 51
270.0
  0
ENDBLK
  5
1AE
100
AcDbEntity
  8
0
100
AcDbBlockEnd
  0
ENDSEC
  0
SECTION
  2
ENTITIES
  0
INSERT
  5
1AF
100
AcDbEntity
100
AcDbBlockReference
  8
0
 62
256
370
-1
  6
BYLAYER
  2
femur_tibia
 10
15.0
 20
25.0
 30
0.0
 50
90.0
  0
INSERT
  5
1B0
100
AcDbEntity
100
AcDbBlockReference
  8
0
 62
256
370
-1
  6
BYLAYER
  2
femur_horizontal
 10
59.2688495083469604
 20
92.5201721978815783
 30
0.0
 50
180.0
  0
INSERT
  5
1B1
100
AcDbEntity
100
AcDbBlockReference
  8
0
 62
256
370
-1
  6
BYLAYER
  2
femur_vertical
 10
39.2688495083469604
 20
92.5201721978815499
 30
0.0
 50
180.0
  0
INSERT
  5
1B2
100
AcDbEntity
100
AcDbBlockReference
  8
0
 62
256
370
-1
  6
BYLAYER
  2
tibia
 10
70.2677489312592343
 20
115.0403443957631282
 30
0.0
 50
270.0
  0
INSERT
  5
1B3
100
AcDbEntity
100
AcDbBlockReference
  8
0
 62
256
370
-1
  6
BYLAYER
  2
body_top
 10
140.1557096655386658
 20
43.2628529343195254
 30
0.0
 50
30.0
  0
INSERT
  5
1B4
100
AcDbEntity
100
AcDbBlockReference
  8
0
 62
256
370
-1
  6
BYLAYER
  2
body_bottom
 10
146.863252525167411
 20
129.8653933127633877
 30
0.0
 50
30.0
  0
INSERT
  5
1B5
100
AcDbEntity
100
AcDbBlockReference
  8
0
 62
256
370
-1
  6
BYLAYER
  2
femur_tibia
 10
4.9999999999999716
 20
25.0
 30
0.0
 50
90.0
  0
INSERT
  5
1B6
100
AcDbEntity
100
AcDbBlockReference
  8
0
 62
256
370
-1
  6
BYLAYER
  2
femur_tibia
 10
25.0
 20
25.0
 30
0.0
 50
90.0
  0
INSERT
  5
1B7
100
AcDbEntity
100
AcDbBlockReference
  8
0
 62
256
370
-1
  6
BYLAYER
  2
femur_tibia
 10
34.9999999999999432
 20
24.9999999999999716
 30
0.0
 50
90.0
  0
INSERT
  5
1B8
100
AcDbEntity
100
AcDbBlockReference
  8
0
 62
256
370
-1
  6
BYLAYER
  2
femur_tibia
 10
55.0
 20
25.0000000000000284
 30
0.0
 50
90.0
  0
INSERT
  5
1B9
100
AcDbEntity
100
AcDbBlockReference
  8
0
 62
256
370
-1
  6
BYLAYER
  2
femur_tibia
 10
44.9999999999999432
 20
25.0
 30
0.0
 50
90.0
  0
INSERT
  5
1BA
100
AcDbEntity
100
AcDbBlockReference
  8
0
 62
256
370
-1
  6
BYLAYER
  2
femur_tibia
 10
74.9999999999999716
 20
25.0000000000000284
 30
0.0
 50
90.0
  0
INSERT
  5
1BB
100
AcDbEntity
100
AcDbBlockReference
  8
0
 62
256
370
-1
  6
BYLAYER
  2
femur_tibia
 10
190.0
 20
180.0
 30
0.0
 50
270.0
  0
INSERT
  5
1BC
100
AcDbEntity
100
AcDbBlockReference
  8
0
 62
256
370
-1
  6
BYLAYER
  2
femur_tibia
 10
84.9999999999999716
 20
25.0000000000000284
 30
0.0
 50
90.0
  0
INSERT
  5
1BD
100
AcDbEntity
100
AcDbBlockReference
  8
0
 62
256
370
-1
  6
BYLAYER
  2
femur_tibia
 10
190.0
 20
80.0
 30
0.0
 50
270.0
  0
INSERT
  5
1BE
100
AcDbEntity
100
AcDbBlockReference
  8
0
 62
256
370
-1
  6
BYLAYER
  2
femur_tibia
 10
99.0
 20
185.0
 30
0.0
 50
200.0
  0
INSERT
  5
1BF
100
AcDbEntity
100
AcDbBlockReference
  8
0
 62
256
370
-1
  6
BYLAYER
  2
femur_tibia
 10
64.9999999999999716
 20
25.0000000000000284
 30
0.0
 50
90.0
  0
INSERT
  5
1C0
100
AcDbEntity
100
AcDbBlockReference
  8
0
 62
256
370
-1
  6
BYLAYER
  2
body_middle
 10
147.4393103278132457
 20
216.4534276551612777
 30
0.0
 50
30.0
  0
INSERT
  5
1C1
100
AcDbEntity
100
AcDbBlockReference
  8
0
 62
256
370
-1
  6
BYLAYER
  2
femur_horizontal
 10
48.2688495083469604
 20
77.5201721978815499
 30
0.0
 50
360.0
  0
INSERT
  5
1C2
100
AcDbEntity
100
AcDbBlockReference
  8
0
 62
256
370
-1
  6
BYLAYER
  2
femur_vertical
 10
68.268849508346932
 20
77.5201721978815499
 30
0.0
 50
360.0
  0
INSERT
  5
1C3
100
AcDbEntity
100
AcDbBlockReference
  8
0
 62
256
370
-1
  6
BYLAYER
  2
tibia
 10
37.2699500854347434
 20
55.0
 30
0.0
 50
450.0
  0
INSERT
  5
1C4
100
AcDbEntity
100
AcDbBlockReference
  8
0
 62
256
370
-1
  6
BYLAYER
  2
femur_horizontal
 10
48.2688495083470457
 20
217.5201721978818341
 30
0.0
 50
360.0
  0
INSERT
  5
1C5
100
AcDbEntity
100
AcDbBlockReference
  8
0
 62
256
370
-1
  6
BYLAYER
  2
femur_vertical
 10
68.2688495083470457
 20
217.5201721978816067
 30
0.0
 50
360.0
  0
INSERT
  5
1C6
100
AcDbEntity
100
AcDbBlockReference
  8
0
 62
256
370
-1
  6
BYLAYER
  2
tibia
 10
37.2699500854347718
 20
195.0
 30
0.0
 50
450.0
  0
INSERT
  5
1C7
100
AcDbEntity
100
AcDbBlockReference
  8
0
 62
256
370
-1
  6
BYLAYER
  2
femur_horizontal
 10
59.2688495083468183
 20
232.5201721978817204
 30
0.0
 50
180.0
  0
INSERT
  5
1C8
100
AcDbEntity
100
AcDbBlockReference
  8
0
 62
256
370
-1
  6
BYLAYER
  2
femur_vertical
 10
39.2688495083469888
 20
232.5201721978821752
 30
0.0
 50
180.0
  0
INSERT
  5
1C9
100
AcDbEntity
100
AcDbBlockReference
  8
0
 62
256
370
-1
  6
BYLAYER
  2
tibia
 10
70.2677489312594332
 20
255.0403443957631566
 30
0.0
 50
270.0
  0
INSERT
  5
1CA
100
AcDbEntity
100
AcDbBlockReference
  8
0
 62
256
370
-1
  6
BYLAYER
  2
femur_horizontal
 10
48.2688495083469888
 20
147.5201721978815499
 30
0.0
 50
360.0
  0
INSERT
  5
1CB
100
AcDbEntity
100
AcDbBlockReference
  8
0
 62
256
370
-1
  6
BYLAYER
  2
femur_vertical
 10
68.2688495083469604
 20
147.5201721978815499
 30
0.0
 50
360.0
  0
INSERT
  5
1CC
100
AcDbEntity
100
AcDbBlockReference
  8
0
 62
256
370
-1
  6
BYLAYER
  2
tibia
 10
37.269950085434715
 20
125.0
 30
0.0
 50
450.0
  0
INSERT
  5
1CD
100
AcDbEntity
100
AcDbBlockReference
  8
0
 62
256
370
-1
  6
BYLAYER
  2
femur_horizontal
 10
59.268849508346932
 20
162.5201721978815499
 30
0.0
 50
180.0
  0
INSERT
  5
1CE
100
AcDbEntity
100
AcDbBlockReference
  8
0
 62
256
370
-1
  6
BYLAYER
  2
femur_vertical
 10
39.2688495083469888
 20
162.5201721978815499
 30
0.0
 50
180.0
  0
INSERT
  5
1CF
100
AcDbEntity
100
AcDbBlockReference
  8
0
 62
256
370
-1
  6
BYLAYER
  2
tibia
 10
70.2677489312592911
 20
185.0403443957631566
 30
0.0
 50
270.0
  0
INSERT
  5
1D0
100
AcDbEntity
100
AcDbBlockReference
  8
0
 62
256
370
-1
  6
BYLAYER
  2
femur_crossbrace
 10
28.268849508346932
 20
199.6951721978815613
 30
0.0
 50
90.0
  0
INSERT
  5
1D1
100
AcDbEntity
100
AcDbBlockReference
  8
0
 62
256
370
-1
  6
BYLAYER
  2
femur_crossbrace
 10
15.268849508346932
 20
207.6951721978815613
 30
0.0
 50
90.0
  0
INSERT
  5
1D2
100
AcDbEntity
100
AcDbBlockReference
  8
0
 62
256
370
-1
  6
BYLAYER
  2
femur_crossbrace
 10
15.268849508346932
 20
199.6951721978815613
 30
0.0
 50
90.0
  0
INSERT
  5
1D3
100
AcDbEntity
100
AcDbBlockReference
  8
0
 62
256
370
-1
  6
BYLAYER
  2
femur_crossbrace
 10
2.2688495083469888
 20
191.6951721978815613
 30
0.0
 50
180.0
  0
INSERT
  5
1D4
100
AcDbEntity
100
AcDbBlockReference
  8
0
 62
256
370
-1
  6
BYLAYER
  2
femur_crossbrace
 10
2.2688495083469888
 20
178.6951721978815613
 30
0.0
 50
180.0
  0
INSERT
  5
1D5
100
AcDbEntity
100
AcDbBlockReference
  8
0
 62
256
370
-1
  6
BYLAYER
  2
femur_crossbrace
 10
2.2688495083469888
 20
165.6951721978815613
 30
0.0
 50
180.0
  0
ENDSEC
  0
SECTION
  2
OBJECTS
  0
DICTIONARY
  5
C
100
AcDbDictionary
280
0
281
1
  3
ACAD_GROUP
350
D
  3
ACAD_LAYOUT
350
1A
  3
ACAD_MLINESTYLE
350
17
  3
ACAD_PLOTSETTINGS
350
19
  3
ACAD_PLOTSTYLENAME
350
E
  3
AcDbVariableDictionary
350
1D6
  3
QCAD_OBJECTS
350
1D7
  0
DICTIONARY
  5
D
100
AcDbDictionary
280
0
281
1
  0
ACDBDICTIONARYWDFLT
  5
E
100
AcDbDictionary
281
1
  3
Normal
350
F
100
AcDbDictionaryWithDefault
340
F
  0
ACDBPLACEHOLDER
  5
F
  0
DICTIONARY
  5
17
100
AcDbDictionary
280
0
281
1
  3
Standard
350
18
  0
MLINESTYLE
  5
18
100
AcDbMlineStyle
  2
STANDARD
 70
0
  3

 62
256
 51
90.0
 52
90.0
 71
2
 49
0.5
 62
256
  6
BYLAYER
 49
-0.5
 62
256
  6
BYLAYER
  0
DICTIONARY
  5
19
100
AcDbDictionary
280
0
281
1
  0
DICTIONARY
  5
1A
100
AcDbDictionary
281
1
  3
Layout1
350
1E
  3
Layout2
350
26
  3
Model
350
22
  0
LAYOUT
  5
1E
100
AcDbPlotSettings
  1

  2
none_device
  4

  6

 40
0.0
 41
0.0
 42
0.0
 43
0.0
 44
0.0
 45
0.0
 46
0.0
 47
0.0
 48
0.0
 49
0.0
140
0.0
141
0.0
142
1.0
143
1.0
 70
688
 72
0
 73
0
 74
5
  7

 75
16
147
1.0
148
0.0
149
0.0
100
AcDbLayout
  1
Layout1
 70
1
 71
1
 10
0.0
 20
0.0
 11
420.0
 21
297.0
 12
0.0
 22
0.0
 32
0.0
 14
100000000000000000000.0
 24
100000000000000000000.0
 34
100000000000000000000.0
 15
-100000000000000000000.0
 25
-100000000000000000000.0
 35
-100000000000000000000.0
146
0.0
 13
0.0
 23
0.0
 33
0.0
 16
1.0
 26
0.0
 36
0.0
 17
0.0
 27
1.0
 37
0.0
 76
0
330
1B
  0
LAYOUT
  5
22
100
AcDbPlotSettings
  1

  2
none_device
  4

  6

 40
0.0
 41
0.0
 42
0.0
 43
0.0
 44
0.0
 45
0.0
 46
0.0
 47
0.0
 48
0.0
 49
0.0
140
0.0
141
0.0
142
1.0
143
1.0
 70
1712
 72
0
 73
0
 74
0
  7

 75
0
147
1.0
148
0.0
149
0.0
100
AcDbLayout
  1
Model
 70
1
 71
0
 10
0.0
 20
0.0
 11
12.0
 21
9.0
 12
0.0
 22
0.0
 32
0.0
 14
0.0
 24
0.0
 34
0.0
 15
0.0
 25
0.0
 35
0.0
146
0.0
 13
0.0
 23
0.0
 33
0.0
 16
1.0
 26
0.0
 36
0.0
 17
0.0
 27
1.0
 37
0.0
 76
0
330
1F
  0
LAYOUT
  5
26
100
AcDbPlotSettings
  1

  2
none_device
  4

  6

 40
0.0
 41
0.0
 42
0.0
 43
0.0
 44
0.0
 45
0.0
 46
0.0
 47
0.0
 48
0.0
 49
0.0
140
0.0
141
0.0
142
1.0
143
1.0
 70
688
 72
0
 73
0
 74
5
  7

 75
16
147
1.0
148
0.0
149
0.0
100
AcDbLayout
  1
Layout2
 70
1
 71
2
 10
0.0
 20
0.0
 11
12.0
 21
9.0
 12
0.0
 22
0.0
 32
0.0
 14
0.0
 24
0.0
 34
0.0
 15
0.0
 25
0.0
 35
0.0
146
0.0
 13
0.0
 23
0.0
 33
0.0
 16
1.0
 26
0.0
 36
0.0
 17
0.0
 27
1.0
 37
0.0
 76
0
330
23
  0
DICTIONARY
  5
1D6
100
AcDbDictionary
281
1
  3
DIMASSOC
350
1D9
  3
HIDETEXT
350
1D8
  0
DICTIONARYVAR
  5
1D8
100
DictionaryVariables
280
0
  1
2
  0
DICTIONARYVAR
  5
1D9
100
DictionaryVariables
280
0
  1
1
  0
DICTIONARY
  5
1D7
100
AcDbDictionary
281
1
  3
Grid/DisplayGrid00
350
1DA
  3
Grid/DisplayGrid01
350
1DB
  3
Grid/DisplayGrid02
350
1DC
  3
Grid/DisplayGrid03
350
1DD
  3
Grid/GridSpacingX00
350
1DE
  3
Grid/GridSpacingX01
350
1DF
  3
Grid/GridSpacingX02
350
1E0
  3
Grid/GridSpacingX03
350
1E1
  3
Grid/GridSpacingY00
350
1E2
  3
Grid/GridSpacingY01
350
1E3
  3
Grid/GridSpacingY02
350
1E4
  3
Grid/GridSpacingY03
350
1E5
  3
Grid/IsometricGrid00
350
1E6
  3
Grid/IsometricGrid01
350
1E7
  3
Grid/IsometricGrid02
350
1E8
  3
Grid/IsometricGrid03
350
1E9
  3
Grid/IsometricProjection00
350
1EA
  3
Grid/IsometricProjection01
350
1EB
  3
Grid/IsometricProjection02
350
1EC
  3
Grid/IsometricProjection03
350
1ED
  3
Grid/MetaGridSpacingX00
350
1EE
  3
Grid/MetaGridSpacingX01
350
1EF
  3
Grid/MetaGridSpacingX02
350
1F0
  3
Grid/MetaGridSpacingX03
350
1F1
  3
Grid/MetaGridSpacingY00
350
1F2
  3
Grid/MetaGridSpacingY01
350
1F3
  3
Grid/MetaGridSpacingY02
350
1F4
  3
Grid/MetaGridSpacingY03
350
1F5
  3
MultiPageSettings/Columns
350
1F6
  3
MultiPageSettings/GlueMarginsBottom
350
1F7
  3
MultiPageSettings/GlueMarginsLeft
350
1F8
  3
MultiPageSettings/GlueMarginsRight
350
1F9
  3
MultiPageSettings/GlueMarginsTop
350
1FA
  3
MultiPageSettings/PrintCropMarks
350
1FB
  3
MultiPageSettings/Rows
350
1FC
  3
PageSettings/OffsetX
350
1FD
  3
PageSettings/OffsetY
350
1FE
  3
PageSettings/PageOrientation
350
1FF
  3
PageSettings/PaperHeight
350
200
  3
PageSettings/PaperWidth
350
201
  3
PageSettings/Scale
350
202
  3
PageSettings/ShowPaperBorders
350
203
  3
UnitSettings/PaperUnit
350
204
  0
XRECORD
  5
1DA
330
1D7
100
AcDbXrecord
280
1
290
1
  0
XRECORD
  5
1DB
330
1D7
100
AcDbXrecord
280
1
290
1
  0
XRECORD
  5
1DC
330
1D7
100
AcDbXrecord
280
1
290
1
  0
XRECORD
  5
1DD
330
1D7
100
AcDbXrecord
280
1
290
1
  0
XRECORD
  5
1DE
330
1D7
100
AcDbXrecord
280
1
1000
auto
  0
XRECORD
  5
1DF
330
1D7
100
AcDbXrecord
280
1
1000
auto
  0
XRECORD
  5
1E0
330
1D7
100
AcDbXrecord
280
1
1000
auto
  0
XRECORD
  5
1E1
330
1D7
100
AcDbXrecord
280
1
1000
auto
  0
XRECORD
  5
1E2
330
1D7
100
AcDbXrecord
280
1
1000
auto
  0
XRECORD
  5
1E3
330
1D7
100
AcDbXrecord
280
1
1000
auto
  0
XRECORD
  5
1E4
330
1D7
100
AcDbXrecord
280
1
1000
auto
  0
XRECORD
  5
1E5
330
1D7
100
AcDbXrecord
280
1
1000
auto
  0
XRECORD
  5
1E6
330
1D7
100
AcDbXrecord
280
1
290
0
  0
XRECORD
  5
1E7
330
1D7
100
AcDbXrecord
280
1
290
0
  0
XRECORD
  5
1E8
330
1D7
100
AcDbXrecord
280
1
290
0
  0
XRECORD
  5
1E9
330
1D7
100
AcDbXrecord
280
1
290
0
  0
XRECORD
  5
1EA
330
1D7
100
AcDbXrecord
280
1
 90
0
  0
XRECORD
  5
1EB
330
1D7
100
AcDbXrecord
280
1
 90
0
  0
XRECORD
  5
1EC
330
1D7
100
AcDbXrecord
280
1
 90
0
  0
XRECORD
  5
1ED
330
1D7
100
AcDbXrecord
280
1
 90
0
  0
XRECORD
  5
1EE
330
1D7
100
AcDbXrecord
280
1
1000
auto
  0
XRECORD
  5
1EF
330
1D7
100
AcDbXrecord
280
1
1000
auto
  0
XRECORD
  5
1F0
330
1D7
100
AcDbXrecord
280
1
1000
auto
  0
XRECORD
  5
1F1
330
1D7
100
AcDbXrecord
280
1
1000
auto
  0
XRECORD
  5
1F2
330
1D7
100
AcDbXrecord
280
1
1000
auto
  0
XRECORD
  5
1F3
330
1D7
100
AcDbXrecord
280
1
1000
auto
  0
XRECORD
  5
1F4
330
1D7
100
AcDbXrecord
280
1
1000
auto
  0
XRECORD
  5
1F5
330
1D7
100
AcDbXrecord
280
1
1000
auto
  0
XRECORD
  5
1F6
330
1D7
100
AcDbXrecord
280
1
 90
1
  0
XRECORD
  5
1F7
330
1D7
100
AcDbXrecord
280
1
 40
10.0
  0
XRECORD
  5
1F8
330
1D7
100
AcDbXrecord
280
1
 40
10.0
  0
XRECORD
  5
1F9
330
1D7
100
AcDbXrecord
280
1
 40
10.0
  0
XRECORD
  5
1FA
330
1D7
100
AcDbXrecord
280
1
 40
10.0
  0
XRECORD
  5
1FB
330
1D7
100
AcDbXrecord
280
1
290
0
  0
XRECORD
  5
1FC
330
1D7
100
AcDbXrecord
280
1
 90
1
  0
XRECORD
  5
1FD
330
1D7
100
AcDbXrecord
280
1
 40
-10.0639284062826029
  0
XRECORD
  5
1FE
330
1D7
100
AcDbXrecord
280
1
 40
-10.0775747396167059
  0
XRECORD
  5
1FF
330
1D7
100
AcDbXrecord
280
1
1000
Portrait
  0
XRECORD
  5
200
330
1D7
100
AcDbXrecord
280
1
 40
279.3999999999999773
  0
XRECORD
  5
201
330
1D7
100
AcDbXrecord
280
1
 40
215.9000000000000057
  0
XRECORD
  5
202
330
1D7
100
AcDbXrecord
280
1
1000
1:1
  0
XRECORD
  5
203
330
1D7
100
AcDbXrecord
280
1
290
1
  0
XRECORD
  5
204
330
1D7
100
AcDbXrecord
280
1
 90
4
  0
ENDSEC
  0
EOF
