999
dxflib 3.3.4.0
  0
SECTION
  2
HEADER
  9
$ACADVER
  1
AC1015
  9
$HANDSEED
  5
FFFF
  9
$DIMADEC
 70
0
  9
$DIMASZ
 40
2.5
  9
$DIMAUNIT
 70
0
  9
$DIMAZIN
 70
2
  9
$DIMDEC
 70
4
  9
$DIMEXE
 40
1.25
  9
$DIMEXO
 40
0.625
  9
$DIMGAP
 40
0.625
  9
$DIMLUNIT
 70
2
  9
$DIMTSZ
 40
0.0
  9
$DIMTXT
 40
2.5
  9
$DIMZIN
 70
8
  9
$DWGCODEPAGE
  3
ANSI_1252
  9
$INSUNITS
 70
4
  9
$LTSCALE
 40
1.0
  0
ENDSEC
  0
SECTION
  2
TABLES
  0
TABLE
  2
VPORT
  5
8
100
AcDbSymbolTable
 70
1
  0
VPORT
  5
30
100
AcDbSymbolTableRecord
100
AcDbViewportTableRecord
  2
*Active
 70
0
 10
0.0
 20
0.0
 11
1.0
 21
1.0
 12
286.3055555555554861
 22
148.5
 13
0.0
 23
0.0
 14
10.0
 24
10.0
 15
10.0
 25
10.0
 16
0.0
 26
0.0
 36
1.0
 17
0.0
 27
0.0
 37
0.0
 40
297.0
 41
1.92798353909465
 42
50.0
 43
0.0
 44
0.0
 50
0.0
 51
0.0
 71
0
 72
100
 73
1
 74
3
 75
1
 76
1
 77
0
 78
0
281
0
 65
1
110
0.0
120
0.0
130
0.0
111
1.0
121
0.0
131
0.0
112
0.0
122
1.0
132
0.0
 79
0
146
0.0
  0
ENDTAB
  0
TABLE
  2
LTYPE
  5
5
100
AcDbSymbolTable
 70
21
  0
LTYPE
  5
16
100
AcDbSymbolTableRecord
100
AcDbLinetypeTableRecord
  2
CONTINUOUS
 70
0
  3
Solid line
 72
65
 73
0
 40
0.0
  0
LTYPE
  5
31
100
AcDbSymbolTableRecord
100
AcDbLinetypeTableRecord
  2
CENTER2
 70
0
  3
Center (.5x) ___ _ ___ _ ___ _ ___ _ ___ _ ___
 72
65
 73
4
 40
28.5749999999999993
 49
19.0500000000000007
 74
0
 49
-3.1749999999999998
 74
0
 49
3.1749999999999998
 74
0
 49
-3.1749999999999998
 74
0
  0
LTYPE
  5
32
100
AcDbSymbolTableRecord
100
AcDbLinetypeTableRecord
  2
DIVIDEX2
 70
0
  3
Divide (2x) ________  .  .  ________  .  .  _
 72
65
 73
6
 40
63.5
 49
25.3999999999999986
 74
0
 49
-12.6999999999999993
 74
0
 49
0.0
 74
0
 49
-12.6999999999999993
 74
0
 49
0.0
 74
0
 49
-12.6999999999999993
 74
0
  0
LTYPE
  5
33
100
AcDbSymbolTableRecord
100
AcDbLinetypeTableRecord
  2
DOT2
 70
0
  3
Dot (.5x) .....................................
 72
65
 73
2
 40
3.1749999999999998
 49
0.0
 74
0
 49
-3.1749999999999998
 74
0
  0
LTYPE
  5
34
100
AcDbSymbolTableRecord
100
AcDbLinetypeTableRecord
  2
DASHDOT2
 70
0
  3
Dash dot (.5x) _._._._._._._._._._._._._._._.
 72
65
 73
4
 40
12.6999999999999993
 49
6.3499999999999996
 74
0
 49
-3.1749999999999998
 74
0
 49
0.0
 74
0
 49
-3.1749999999999998
 74
0
  0
LTYPE
  5
35
100
AcDbSymbolTableRecord
100
AcDbLinetypeTableRecord
  2
DIVIDE
 70
0
  3
Divide ____ . . ____ . . ____ . . ____ . . ____
 72
65
 73
6
 40
31.75
 49
12.6999999999999993
 74
0
 49
-6.3499999999999996
 74
0
 49
0.0
 74
0
 49
-6.3499999999999996
 74
0
 49
0.0
 74
0
 49
-6.3499999999999996
 74
0
  0
LTYPE
  5
36
100
AcDbSymbolTableRecord
100
AcDbLinetypeTableRecord
  2
DASHDOT
 70
0
  3
Dash dot __ . __ . __ . __ . __ . __ . __ . __
 72
65
 73
4
 40
25.3999999999999986
 49
12.6999999999999993
 74
0
 49
-6.3499999999999996
 74
0
 49
0.0
 74
0
 49
-6.3499999999999996
 74
0
  0
LTYPE
  5
37
100
AcDbSymbolTableRecord
100
AcDbLinetypeTableRecord
  2
BORDER
 70
0
  3
Border __ __ . __ __ . __ __ . __ __ . __ __ .
 72
65
 73
6
 40
44.4500000000000028
 49
12.6999999999999993
 74
0
 49
-6.3499999999999996
 74
0
 49
12.6999999999999993
 74
0
 49
-6.3499999999999996
 74
0
 49
0.0
 74
0
 49
-6.3499999999999996
 74
0
  0
LTYPE
  5
38
100
AcDbSymbolTableRecord
100
AcDbLinetypeTableRecord
  2
DASHDOTX2
 70
0
  3
Dash dot (2x) ____  .  ____  .  ____  .  ___
 72
65
 73
4
 40
50.7999999999999972
 49
25.3999999999999986
 74
0
 49
-12.6999999999999993
 74
0
 49
0.0
 74
0
 49
-12.6999999999999993
 74
0
  0
LTYPE
  5
39
100
AcDbSymbolTableRecord
100
AcDbLinetypeTableRecord
  2
CENTERX2
 70
0
  3
Center (2x) ________  __  ________  __  _____
 72
65
 73
4
 40
101.5999999999999943
 49
63.5
 74
0
 49
-12.6999999999999993
 74
0
 49
12.6999999999999993
 74
0
 49
-12.6999999999999993
 74
0
  0
LTYPE
  5
3A
100
AcDbSymbolTableRecord
100
AcDbLinetypeTableRecord
  2
BORDER2
 70
0
  3
Border (.5x) __.__.__.__.__.__.__.__.__.__.__.
 72
65
 73
6
 40
22.2250000000000014
 49
6.3499999999999996
 74
0
 49
-3.1749999999999998
 74
0
 49
6.3499999999999996
 74
0
 49
-3.1749999999999998
 74
0
 49
0.0
 74
0
 49
-3.1749999999999998
 74
0
  0
LTYPE
  5
3B
100
AcDbSymbolTableRecord
100
AcDbLinetypeTableRecord
  2
BORDERX2
 70
0
  3
Border (2x) ____  ____  .  ____  ____  .  ___
 72
65
 73
6
 40
88.9000000000000057
 49
25.3999999999999986
 74
0
 49
-12.6999999999999993
 74
0
 49
25.3999999999999986
 74
0
 49
-12.6999999999999993
 74
0
 49
0.0
 74
0
 49
-12.6999999999999993
 74
0
  0
LTYPE
  5
14
100
AcDbSymbolTableRecord
100
AcDbLinetypeTableRecord
  2
BYBLOCK
 70
0
  3

 72
65
 73
0
 40
0.0
  0
LTYPE
  5
15
100
AcDbSymbolTableRecord
100
AcDbLinetypeTableRecord
  2
BYLAYER
 70
0
  3

 72
65
 73
0
 40
0.0
  0
LTYPE
  5
3C
100
AcDbSymbolTableRecord
100
AcDbLinetypeTableRecord
  2
DASHED2
 70
0
  3
Dashed (.5x) _ _ _ _ _ _ _ _ _ _ _ _ _ _ _ _ _
 72
65
 73
2
 40
9.5250000000000004
 49
6.3499999999999996
 74
0
 49
-3.1749999999999998
 74
0
  0
LTYPE
  5
3D
100
AcDbSymbolTableRecord
100
AcDbLinetypeTableRecord
  2
CENTER
 70
0
  3
Center ____ _ ____ _ ____ _ ____ _ ____ _ ____
 72
65
 73
4
 40
50.7999999999999972
 49
31.75
 74
0
 49
-6.3499999999999996
 74
0
 49
6.3499999999999996
 74
0
 49
-6.3499999999999996
 74
0
  0
LTYPE
  5
3E
100
AcDbSymbolTableRecord
100
AcDbLinetypeTableRecord
  2
DIVIDE2
 70
0
  3
Divide (.5x) __..__..__..__..__..__..__..__.._
 72
65
 73
6
 40
15.875
 49
6.3499999999999996
 74
0
 49
-3.1749999999999998
 74
0
 49
0.0
 74
0
 49
-3.1749999999999998
 74
0
 49
0.0
 74
0
 49
-3.1749999999999998
 74
0
  0
LTYPE
  5
3F
100
AcDbSymbolTableRecord
100
AcDbLinetypeTableRecord
  2
DASHED
 70
0
  3
Dashed __ __ __ __ __ __ __ __ __ __ __ __ __ _
 72
65
 73
2
 40
19.0500000000000007
 49
12.6999999999999993
 74
0
 49
-6.3499999999999996
 74
0
  0
LTYPE
  5
40
100
AcDbSymbolTableRecord
100
AcDbLinetypeTableRecord
  2
DOTX2
 70
0
  3
Dot (2x) .  .  .  .  .  .  .  .  .  .  .  .  .
 72
65
 73
2
 40
12.6999999999999993
 49
0.0
 74
0
 49
-12.6999999999999993
 74
0
  0
LTYPE
  5
41
100
AcDbSymbolTableRecord
100
AcDbLinetypeTableRecord
  2
DASHEDX2
 70
0
  3
Dashed (2x) ____  ____  ____  ____  ____  ___
 72
65
 73
2
 40
38.1000000000000014
 49
25.3999999999999986
 74
0
 49
-12.6999999999999993
 74
0
  0
LTYPE
  5
42
100
AcDbSymbolTableRecord
100
AcDbLinetypeTableRecord
  2
DOT
 70
0
  3
Dot . . . . . . . . . . . . . . . . . . . . . .
 72
65
 73
2
 40
6.3499999999999996
 49
0.0
 74
0
 49
-6.3499999999999996
 74
0
  0
ENDTAB
  0
TABLE
  2
LAYER
  5
2
100
AcDbSymbolTable
 70
1
  0
LAYER
  5
10
100
AcDbSymbolTableRecord
100
AcDbLayerTableRecord
  2
0
 70
0
 62
7
420
0
  6
CONTINUOUS
370
25
390
F
  0
ENDTAB
  0
TABLE
  2
STYLE
  5
3
100
AcDbSymbolTable
 70
12
  0
STYLE
  5
43
100
AcDbSymbolTableRecord
100
AcDbTextStyleTableRecord
  2
Standard
 70
0
 40
0.0
 41
1.0
 50
0.0
 71
0
 42
2.5
  3

  4

1001
ACAD
1000
txt
1071
0
  0
STYLE
  5
44
100
AcDbSymbolTableRecord
100
AcDbTextStyleTableRecord
  2
textstyle0
 70
0
 40
0.0
 41
1.0
 50
0.0
 71
0
 42
10.0
  3

  4

1001
ACAD
1000
Arial
1071
0
  0
STYLE
  5
45
100
AcDbSymbolTableRecord
100
AcDbTextStyleTableRecord
  2
textstyle1
 70
0
 40
0.0
 41
1.0
 50
0.0
 71
0
 42
8.0
  3

  4

1001
ACAD
1000
Arial
1071
0
  0
STYLE
  5
46
100
AcDbSymbolTableRecord
100
AcDbTextStyleTableRecord
  2
textstyle2
 70
0
 40
0.0
 41
1.0
 50
0.0
 71
0
 42
8.0
  3

  4

1001
ACAD
1000
Arial
1071
0
  0
STYLE
  5
47
100
AcDbSymbolTableRecord
100
AcDbTextStyleTableRecord
  2
textstyle3
 70
0
 40
0.0
 41
1.0
 50
0.0
 71
0
 42
10.0
  3

  4

1001
ACAD
1000
Arial
1071
0
  0
STYLE
  5
48
100
AcDbSymbolTableRecord
100
AcDbTextStyleTableRecord
  2
textstyle4
 70
0
 40
0.0
 41
1.0
 50
0.0
 71
0
 42
8.0
  3

  4

1001
ACAD
1000
Arial
1071
0
  0
STYLE
  5
49
100
AcDbSymbolTableRecord
100
AcDbTextStyleTableRecord
  2
textstyle5
 70
0
 40
0.0
 41
1.0
 50
0.0
 71
0
 42
8.0
  3

  4

1001
ACAD
1000
Arial
1071
0
  0
STYLE
  5
4A
100
AcDbSymbolTableRecord
100
AcDbTextStyleTableRecord
  2
textstyle6
 70
0
 40
0.0
 41
1.0
 50
0.0
 71
0
 42
8.0
  3

  4

1001
ACAD
1000
Arial
1071
0
  0
STYLE
  5
4B
100
AcDbSymbolTableRecord
100
AcDbTextStyleTableRecord
  2
textstyle7
 70
0
 40
0.0
 41
1.0
 50
0.0
 71
0
 42
10.0
  3

  4

1001
ACAD
1000
Arial
1071
0
  0
STYLE
  5
4C
100
AcDbSymbolTableRecord
100
AcDbTextStyleTableRecord
  2
textstyle8
 70
0
 40
0.0
 41
1.0
 50
0.0
 71
0
 42
10.0
  3

  4

1001
ACAD
1000
Arial
1071
0
  0
STYLE
  5
4D
100
AcDbSymbolTableRecord
100
AcDbTextStyleTableRecord
  2
textstyle9
 70
0
 40
0.0
 41
1.0
 50
0.0
 71
0
 42
10.0
  3

  4

1001
ACAD
1000
Arial
1071
0
  0
STYLE
  5
4E
100
AcDbSymbolTableRecord
100
AcDbTextStyleTableRecord
  2
textstyle10
 70
0
 40
0.0
 41
1.0
 50
0.0
 71
0
 42
8.0
  3

  4

1001
ACAD
1000
Arial
1071
0
  0
ENDTAB
  0
TABLE
  2
VIEW
  5
6
100
AcDbSymbolTable
 70
0
  0
ENDTAB
  0
TABLE
  2
UCS
  5
7
100
AcDbSymbolTable
 70
0
  0
ENDTAB
  0
TABLE
  2
APPID
  5
9
100
AcDbSymbolTable
 70
1
  0
APPID
  5
12
100
AcDbSymbolTableRecord
100
AcDbRegAppTableRecord
  2
ACAD
 70
0
  0
APPID
  5
4F
100
AcDbSymbolTableRecord
100
AcDbRegAppTableRecord
  2
QCAD
 70
0
  0
ENDTAB
  0
TABLE
  2
DIMSTYLE
  5
A
100
AcDbSymbolTable
 70
1
100
AcDbDimStyleTable
 71
0
  0
DIMSTYLE
105
27
100
AcDbSymbolTableRecord
100
AcDbDimStyleTableRecord
  2
Standard
 41
2.5
 42
0.625
 43
3.75
 44
1.25
 70
0
 73
0
 74
0
 77
1
 78
8
140
2.5
141
2.5
143
0.03937007874016
147
0.625
171
3
172
1
271
2
272
2
274
3
278
44
283
0
284
8
340
43
  0
ENDTAB
  0
TABLE
  2
BLOCK_RECORD
  5
1
100
AcDbSymbolTable
 70
1
  0
BLOCK_RECORD
  5
1F
100
AcDbSymbolTableRecord
100
AcDbBlockTableRecord
  2
*Model_Space
340
22
  0
BLOCK_RECORD
  5
1B
100
AcDbSymbolTableRecord
100
AcDbBlockTableRecord
  2
*Paper_Space
340
1E
  0
BLOCK_RECORD
  5
23
100
AcDbSymbolTableRecord
100
AcDbBlockTableRecord
  2
*Paper_Space0
340
26
  0
BLOCK_RECORD
  5
50
100
AcDbSymbolTableRecord
100
AcDbBlockTableRecord
  2
leg_top
340
0
  0
BLOCK_RECORD
  5
51
100
AcDbSymbolTableRecord
100
AcDbBlockTableRecord
  2
chassis_bottom
340
0
  0
BLOCK_RECORD
  5
52
100
AcDbSymbolTableRecord
100
AcDbBlockTableRecord
  2
leg_side
340
0
  0
BLOCK_RECORD
  5
53
100
AcDbSymbolTableRecord
100
AcDbBlockTableRecord
  2
chassis_top
340
0
  0
BLOCK_RECORD
  5
54
100
AcDbSymbolTableRecord
100
AcDbBlockTableRecord
  2
pcb
340
0
  0
BLOCK_RECORD
  5
55
100
AcDbSymbolTableRecord
100
AcDbBlockTableRecord
  2
tibia
340
0
  0
ENDTAB
  0
ENDSEC
  0
SECTION
  2
BLOCKS
  0
BLOCK
  5
20
100
AcDbEntity
  8
0
100
AcDbBlockBegin
  2
*Model_Space
 70
0
 10
0.0
 20
0.0
 30
0.0
  3
*Model_Space
  1

  0
ENDBLK
  5
21
100
AcDbEntity
  8
0
100
AcDbBlockEnd
  0
BLOCK
  5
1C
100
AcDbEntity
 67
1
  8
0
100
AcDbBlockBegin
  2
*Paper_Space
 70
0
 10
0.0
 20
0.0
 30
0.0
  3
*Paper_Space
  1

  0
ENDBLK
  5
1D
100
AcDbEntity
 67
1
  8
0
100
AcDbBlockEnd
  0
BLOCK
  5
24
100
AcDbEntity
  8
0
100
AcDbBlockBegin
  2
*Paper_Space0
 70
0
 10
0.0
 20
0.0
 30
0.0
  3
*Paper_Space0
  1

  0
ENDBLK
  5
25
100
AcDbEntity
  8
0
100
AcDbBlockEnd
  0
BLOCK
  5
56
100
AcDbEntity
  8
0
100
AcDbBlockBegin
  2
leg_top
 70
0
 10
0.0
 20
0.0
 30
0.0
  3
leg_top
  1

  0
LINE
  5
57
100
AcDbEntity
100
AcDbLine
  8
0
 62
256
370
-1
  6
BYLAYER
 10
95.0
 20
-4.0
 30
0.0
 11
95.0
 21
9.0
 31
0.0
  0
LINE
  5
58
100
AcDbEntity
100
AcDbLine
  8
0
 62
256
370
-1
  6
BYLAYER
 10
-5.0
 20
-3.9999999999999996
 30
0.0
 11
-5.0
 21
9.0
 31
0.0
  0
LINE
  5
59
100
AcDbEntity
100
AcDbLine
  8
0
 62
256
370
-1
  6
BYLAYER
 10
18.0
 20
-3.0
 30
0.0
 11
41.0
 21
-3.0
 31
0.0
  0
LINE
  5
5A
100
AcDbEntity
100
AcDbLine
  8
0
 62
256
370
-1
  6
BYLAYER
 10
41.0
 20
-3.0
 30
0.0
 11
41.0
 21
9.0
 31
0.0
  0
LINE
  5
5B
100
AcDbEntity
100
AcDbLine
  8
0
 62
256
370
-1
  6
BYLAYER
 10
41.0
 20
9.0
 30
0.0
 11
18.0
 21
9.0
 31
0.0
  0
LINE
  5
5C
100
AcDbEntity
100
AcDbLine
  8
0
 62
256
370
-1
  6
BYLAYER
 10
18.0
 20
9.0
 30
0.0
 11
18.0
 21
-3.0
 31
0.0
  0
LINE
  5
5D
100
AcDbEntity
100
AcDbLine
  8
0
 62
256
370
-1
  6
BYLAYER
 10
13.5
 20
-2.0
 30
0.0
 11
18.0
 21
-2.0
 31
0.0
  0
LINE
  5
5E
100
AcDbEntity
100
AcDbLine
  8
0
 62
256
370
-1
  6
BYLAYER
 10
18.0
 20
-2.0
 30
0.0
 11
18.0
 21
8.0
 31
0.0
  0
LINE
  5
5F
100
AcDbEntity
100
AcDbLine
  8
0
 62
256
370
-1
  6
BYLAYER
 10
18.0
 20
8.0
 30
0.0
 11
13.5
 21
8.0
 31
0.0
  0
LINE
  5
60
100
AcDbEntity
100
AcDbLine
  8
0
 62
256
370
-1
  6
BYLAYER
 10
13.5
 20
8.0
 30
0.0
 11
13.5
 21
-2.0
 31
0.0
  0
LINE
  5
61
100
AcDbEntity
100
AcDbLine
  8
0
 62
256
370
-1
  6
BYLAYER
 10
41.0
 20
-2.0
 30
0.0
 11
45.5
 21
-2.0
 31
0.0
  0
LINE
  5
62
100
AcDbEntity
100
AcDbLine
  8
0
 62
256
370
-1
  6
BYLAYER
 10
45.5
 20
-2.0
 30
0.0
 11
45.5
 21
8.0
 31
0.0
  0
LINE
  5
63
100
AcDbEntity
100
AcDbLine
  8
0
 62
256
370
-1
  6
BYLAYER
 10
45.5
 20
8.0
 30
0.0
 11
41.0
 21
8.0
 31
0.0
  0
LINE
  5
64
100
AcDbEntity
100
AcDbLine
  8
0
 62
256
370
-1
  6
BYLAYER
 10
41.0
 20
8.0
 30
0.0
 11
41.0
 21
-2.0
 31
0.0
  0
CIRCLE
  5
65
100
AcDbEntity
100
AcDbCircle
  8
0
 62
256
370
-1
  6
BYLAYER
 10
14.5
 20
2.9999999999999716
 30
0.0
 40
1.0
  0
CIRCLE
  5
66
100
AcDbEntity
100
AcDbCircle
  8
0
 62
256
370
-1
  6
BYLAYER
 10
44.5
 20
2.9999999999999716
 30
0.0
 40
1.0
  0
CIRCLE
  5
67
100
AcDbEntity
100
AcDbCircle
  8
0
 62
256
370
-1
  6
DOT
 10
25.0
 20
3.0
 30
0.0
 40
5.0
  0
CIRCLE
  5
68
100
AcDbEntity
100
AcDbCircle
  8
0
 62
256
370
-1
  6
BYLAYER
 10
25.0
 20
3.0
 30
0.0
 40
2.0
  0
CIRCLE
  5
69
100
AcDbEntity
100
AcDbCircle
  8
0
 62
256
370
-1
  6
BYLAYER
 10
25.0
 20
3.0
 30
0.0
 40
10.0
  0
LINE
  5
6A
100
AcDbEntity
100
AcDbLine
  8
0
 62
256
370
-1
  6
BYLAYER
 10
52.0
 20
-8.0
 30
0.0
 11
60.0
 21
-8.0
 31
0.0
  0
LINE
  5
6B
100
AcDbEntity
100
AcDbLine
  8
0
 62
256
370
-1
  6
BYLAYER
 10
60.0
 20
-8.0
 30
0.0
 11
60.0
 21
-6.0
 31
0.0
  0
LINE
  5
6C
100
AcDbEntity
100
AcDbLine
  8
0
 62
256
370
-1
  6
BYLAYER
 10
55.0
 20
-8.0
 30
0.0
 11
55.0
 21
-11.0
 31
0.0
  0
LINE
  5
6D
100
AcDbEntity
100
AcDbLine
  8
0
 62
256
370
-1
  6
BYLAYER
 10
55.0
 20
-11.0
 30
0.0
 11
57.0
 21
-11.0
 31
0.0
  0
LINE
  5
6E
100
AcDbEntity
100
AcDbLine
  8
0
 62
256
370
-1
  6
BYLAYER
 10
57.0
 20
-11.0
 30
0.0
 11
57.0
 21
-8.0
 31
0.0
  0
LINE
  5
6F
100
AcDbEntity
100
AcDbLine
  8
0
 62
256
370
-1
  6
BYLAYER
 10
72.0
 20
15.0
 30
0.0
 11
49.0
 21
15.0
 31
0.0
  0
LINE
  5
70
100
AcDbEntity
100
AcDbLine
  8
0
 62
256
370
-1
  6
BYLAYER
 10
49.0
 20
-4.0
 30
0.0
 11
72.0
 21
-4.0
 31
0.0
  0
LINE
  5
71
100
AcDbEntity
100
AcDbLine
  8
0
 62
256
370
-1
  6
BYLAYER
 10
44.5
 20
-4.0
 30
0.0
 11
49.0
 21
-4.0
 31
0.0
  0
LINE
  5
72
100
AcDbEntity
100
AcDbLine
  8
0
 62
256
370
-1
  6
BYLAYER
 10
49.0
 20
-4.0
 30
0.0
 11
49.0
 21
-5.0
 31
0.0
  0
LINE
  5
73
100
AcDbEntity
100
AcDbLine
  8
0
 62
256
370
-1
  6
BYLAYER
 10
49.0
 20
-5.0
 30
0.0
 11
44.5
 21
-5.0
 31
0.0
  0
LINE
  5
74
100
AcDbEntity
100
AcDbLine
  8
0
 62
256
370
-1
  6
BYLAYER
 10
44.5
 20
-5.0
 30
0.0
 11
44.5
 21
-4.0
 31
0.0
  0
LINE
  5
75
100
AcDbEntity
100
AcDbLine
  8
0
 62
256
370
-1
  6
BYLAYER
 10
72.0
 20
-4.0
 30
0.0
 11
76.5
 21
-4.0
 31
0.0
  0
LINE
  5
76
100
AcDbEntity
100
AcDbLine
  8
0
 62
256
370
-1
  6
BYLAYER
 10
76.5
 20
-4.0
 30
0.0
 11
76.5
 21
-5.0
 31
0.0
  0
LINE
  5
77
100
AcDbEntity
100
AcDbLine
  8
0
 62
256
370
-1
  6
BYLAYER
 10
76.5
 20
-5.0
 30
0.0
 11
72.0
 21
-5.0
 31
0.0
  0
LINE
  5
78
100
AcDbEntity
100
AcDbLine
  8
0
 62
256
370
-1
  6
BYLAYER
 10
72.0
 20
-5.0
 30
0.0
 11
72.0
 21
-4.0
 31
0.0
  0
LINE
  5
79
100
AcDbEntity
100
AcDbLine
  8
0
 62
256
370
-1
  6
BYLAYER
 10
49.0
 20
-5.0
 30
0.0
 11
49.0
 21
-6.0
 31
0.0
  0
LINE
  5
7A
100
AcDbEntity
100
AcDbLine
  8
0
 62
256
370
-1
  6
BYLAYER
 10
49.0
 20
-6.0
 30
0.0
 11
72.0
 21
-6.0
 31
0.0
  0
LINE
  5
7B
100
AcDbEntity
100
AcDbLine
  8
0
 62
256
370
-1
  6
BYLAYER
 10
72.0
 20
-6.0
 30
0.0
 11
72.0
 21
-5.0
 31
0.0
  0
LINE
  5
7C
100
AcDbEntity
100
AcDbLine
  8
0
 62
256
370
-1
  6
BYLAYER
 10
52.0
 20
-6.0
 30
0.0
 11
52.0
 21
-8.0
 31
0.0
  0
LINE
  5
7D
100
AcDbEntity
100
AcDbLine
  8
0
 62
256
370
-1
  6
BYLAYER
 10
46.0
 20
-11.0
 30
0.0
 11
66.0
 21
-11.0
 31
0.0
  0
LINE
  5
7E
100
AcDbEntity
100
AcDbLine
  8
0
 62
256
370
-1
  6
DOT
 10
72.0
 20
9.0
 30
0.0
 11
72.0
 21
-4.0
 31
0.0
  0
LINE
  5
7F
100
AcDbEntity
100
AcDbLine
  8
0
 62
256
370
-1
  6
BYLAYER
 10
66.0
 20
-11.0
 30
0.0
 11
66.0
 21
-12.0
 31
0.0
  0
LINE
  5
80
100
AcDbEntity
100
AcDbLine
  8
0
 62
256
370
-1
  6
DOT
 10
49.0
 20
-4.0
 30
0.0
 11
49.0
 21
9.0
 31
0.0
  0
LINE
  5
81
100
AcDbEntity
100
AcDbLine
  8
0
 62
256
370
-1
  6
BYLAYER
 10
66.0
 20
-12.0
 30
0.0
 11
46.0
 21
-12.0
 31
0.0
  0
LINE
  5
82
100
AcDbEntity
100
AcDbLine
  8
0
 62
256
370
-1
  6
BYLAYER
 10
46.0
 20
-12.0
 30
0.0
 11
46.0
 21
-11.0
 31
0.0
  0
CIRCLE
  5
83
100
AcDbEntity
100
AcDbCircle
  8
0
 62
256
370
-1
  6
BYLAYER
 10
29.9999999999999929
 20
-4.0
 30
0.0
 40
0.5
  0
LINE
  5
84
100
AcDbEntity
100
AcDbLine
  8
0
 62
256
370
-1
  6
BYLAYER
 10
-5.0
 20
9.0
 30
0.0
 11
95.0
 21
9.0
 31
0.0
  0
LINE
  5
85
100
AcDbEntity
100
AcDbLine
  8
0
 62
256
370
-1
  6
BYLAYER
 10
95.0
 20
-4.0
 30
0.0
 11
-5.0
 21
-4.0
 31
0.0
  0
LINE
  5
86
100
AcDbEntity
100
AcDbLine
  8
0
 62
256
370
-1
  6
DASHED
 10
10.0
 20
-4.0
 30
0.0
 11
10.0
 21
9.0
 31
0.0
  0
CIRCLE
  5
87
100
AcDbEntity
100
AcDbCircle
  8
0
 62
256
370
-1
  6
BYLAYER
 10
0.0
 20
2.5
 30
0.0
 40
2.75
  0
LINE
  5
88
100
AcDbEntity
100
AcDbLine
  8
0
 62
256
370
-1
  6
BYLAYER
 10
49.0
 20
15.0
 30
0.0
 11
49.0
 21
9.0
 31
0.0
  0
LINE
  5
89
100
AcDbEntity
100
AcDbLine
  8
0
 62
256
370
-1
  6
BYLAYER
 10
72.0
 20
9.0
 30
0.0
 11
72.0
 21
15.0
 31
0.0
  0
LINE
  5
8A
100
AcDbEntity
100
AcDbLine
  8
0
 62
256
370
-1
  6
BYLAYER
 10
73.2999999999999972
 20
-10.5
 30
0.0
 11
97.2999999999999972
 21
-10.5
 31
0.0
  0
LINE
  5
8B
100
AcDbEntity
100
AcDbLine
  8
0
 62
256
370
-1
  6
BYLAYER
 10
97.2999999999999972
 20
-10.5
 30
0.0
 11
97.2999999999999972
 21
-7.5
 31
0.0
  0
LINE
  5
8C
100
AcDbEntity
100
AcDbLine
  8
0
 62
256
370
-1
  6
BYLAYER
 10
97.2999999999999972
 20
-7.5
 30
0.0
 11
73.2999999999999972
 21
-7.5
 31
0.0
  0
LINE
  5
8D
100
AcDbEntity
100
AcDbLine
  8
0
 62
256
370
-1
  6
BYLAYER
 10
73.2999999999999972
 20
-7.5
 30
0.0
 11
73.2999999999999972
 21
-10.5
 31
0.0
  0
LINE
  5
8E
100
AcDbEntity
100
AcDbLine
  8
0
 62
256
370
-1
  6
BYLAYER
 10
93.0
 20
-4.0
 30
0.0
 11
93.0
 21
-7.5
 31
0.0
  0
LINE
  5
8F
100
AcDbEntity
100
AcDbLine
  8
0
 62
256
370
-1
  6
BYLAYER
 10
89.0
 20
-4.0
 30
0.0
 11
89.0
 21
-7.5
 31
0.0
  0
LINE
  5
90
100
AcDbEntity
100
AcDbLine
  8
0
 62
256
370
-1
  6
DASHED
 10
93.0
 20
-4.0
 30
0.0
 11
93.0
 21
9.0
 31
0.0
  0
LINE
  5
91
100
AcDbEntity
100
AcDbLine
  8
0
 62
256
370
-1
  6
DASHED
 10
89.0
 20
-4.0
 30
0.0
 11
89.0
 21
9.0
 31
0.0
  0
LINE
  5
92
100
AcDbEntity
100
AcDbLine
  8
0
 62
256
370
-1
  6
BYLAYER
 10
64.0
 20
-12.0
 30
0.0
 11
64.0
 21
-13.0
 31
0.0
  0
LINE
  5
93
100
AcDbEntity
100
AcDbLine
  8
0
 62
256
370
-1
  6
BYLAYER
 10
64.0
 20
-13.0
 30
0.0
 11
76.0
 21
-13.0
 31
0.0
  0
LINE
  5
94
100
AcDbEntity
100
AcDbLine
  8
0
 62
256
370
-1
  6
BYLAYER
 10
76.0
 20
-13.0
 30
0.0
 11
76.0
 21
-10.5
 31
0.0
  0
ENDBLK
  5
95
100
AcDbEntity
  8
0
100
AcDbBlockEnd
  0
BLOCK
  5
96
100
AcDbEntity
  8
0
100
AcDbBlockBegin
  2
chassis_bottom
 70
0
 10
0.0
 20
0.0
 30
0.0
  3
chassis_bottom
  1

  0
LINE
  5
97
100
AcDbEntity
100
AcDbLine
  8
0
 62
256
370
-1
  6
BYLAYER
 10
-30.0
 20
-80.0
 30
0.0
 11
30.0
 21
-80.0
 31
0.0
  0
LINE
  5
98
100
AcDbEntity
100
AcDbLine
  8
0
 62
256
370
-1
  6
BYLAYER
 10
40.0
 20
20.0
 30
0.0
 11
40.0
 21
70.0
 31
0.0
  0
LINE
  5
99
100
AcDbEntity
100
AcDbLine
  8
0
 62
256
370
-1
  6
BYLAYER
 10
30.0
 20
80.0
 30
0.0
 11
-30.0
 21
80.0
 31
0.0
  0
LINE
  5
9A
100
AcDbEntity
100
AcDbLine
  8
0
 62
256
370
-1
  6
BYLAYER
 10
-40.0
 20
70.0
 30
0.0
 11
-40.0
 21
20.0
 31
0.0
  0
ARC
  5
9B
100
AcDbEntity
  8
0
 62
256
370
-1
  6
BYLAYER
100
AcDbCircle
 10
-30.0
 20
70.0
 30
0.0
 40
10.0
100
AcDbArc
 50
90.0
 51
180.0
  0
ARC
  5
9C
100
AcDbEntity
  8
0
 62
256
370
-1
  6
BYLAYER
100
AcDbCircle
 10
30.0
 20
70.0
 30
0.0
 40
10.0
100
AcDbArc
 50
0.0
 51
90.0
  0
ARC
  5
9D
100
AcDbEntity
  8
0
 62
256
370
-1
  6
BYLAYER
100
AcDbCircle
 10
30.0
 20
-70.0
 30
0.0
 40
10.0
100
AcDbArc
 50
270.0
 51
0.0
  0
ARC
  5
9E
100
AcDbEntity
  8
0
 62
256
370
-1
  6
BYLAYER
100
AcDbCircle
 10
-30.0
 20
-70.0
 30
0.0
 40
10.0
100
AcDbArc
 50
180.0
 51
270.0
  0
LINE
  5
9F
100
AcDbEntity
100
AcDbLine
  8
0
 62
256
370
-1
  6
BYLAYER
 10
-40.0
 20
-20.0
 30
0.0
 11
-40.0
 21
-70.0
 31
0.0
  0
LINE
  5
A0
100
AcDbEntity
100
AcDbLine
  8
0
 62
256
370
-1
  6
BYLAYER
 10
40.0
 20
-20.0
 30
0.0
 11
40.0
 21
-70.0
 31
0.0
  0
LINE
  5
A1
100
AcDbEntity
100
AcDbLine
  8
0
 62
256
370
-1
  6
BYLAYER
 10
-50.0
 20
-90.0
 30
0.0
 11
50.0
 21
-90.0
 31
0.0
  0
LINE
  5
A2
100
AcDbEntity
100
AcDbLine
  8
0
 62
256
370
-1
  6
BYLAYER
 10
-40.0
 20
20.0
 30
0.0
 11
-40.0
 21
-20.0
 31
0.0
  0
LINE
  5
A3
100
AcDbEntity
100
AcDbLine
  8
0
 62
256
370
-1
  6
BYLAYER
 10
60.0
 20
-80.0
 30
0.0
 11
60.0
 21
80.0
 31
0.0
  0
LINE
  5
A4
100
AcDbEntity
100
AcDbLine
  8
0
 62
256
370
-1
  6
BYLAYER
 10
40.0
 20
20.0
 30
0.0
 11
40.0
 21
-20.0
 31
0.0
  0
LINE
  5
A5
100
AcDbEntity
100
AcDbLine
  8
0
 62
256
370
-1
  6
BYLAYER
 10
50.0
 20
90.0
 30
0.0
 11
-50.0
 21
90.0
 31
0.0
  0
LINE
  5
A6
100
AcDbEntity
100
AcDbLine
  8
0
 62
256
370
-1
  6
BYLAYER
 10
-60.0
 20
80.0
 30
0.0
 11
-60.0
 21
-80.0
 31
0.0
  0
ARC
  5
A7
100
AcDbEntity
  8
0
 62
256
370
-1
  6
BYLAYER
100
AcDbCircle
 10
-50.0
 20
80.0
 30
0.0
 40
10.0
100
AcDbArc
 50
90.0
 51
180.0
  0
ARC
  5
A8
100
AcDbEntity
  8
0
 62
256
370
-1
  6
BYLAYER
100
AcDbCircle
 10
-50.0
 20
-80.0
 30
0.0
 40
10.0
100
AcDbArc
 50
180.0
 51
270.0
  0
ARC
  5
A9
100
AcDbEntity
  8
0
 62
256
370
-1
  6
BYLAYER
100
AcDbCircle
 10
50.0
 20
-80.0
 30
0.0
 40
10.0
100
AcDbArc
 50
270.0
 51
0.0
  0
ARC
  5
AA
100
AcDbEntity
  8
0
 62
256
370
-1
  6
BYLAYER
100
AcDbCircle
 10
50.0
 20
80.0
 30
0.0
 40
10.0
100
AcDbArc
 50
0.0
 51
90.0
  0
CIRCLE
  5
AB
100
AcDbEntity
100
AcDbCircle
  8
0
 62
256
370
-1
  6
BYLAYER
 10
54.0
 20
80.0
 30
0.0
 40
2.75
  0
CIRCLE
  5
AC
100
AcDbEntity
100
AcDbCircle
  8
0
 62
256
370
-1
  6
BYLAYER
 10
54.0
 20
0.0
 30
0.0
 40
2.75
  0
CIRCLE
  5
AD
100
AcDbEntity
100
AcDbCircle
  8
0
 62
256
370
-1
  6
BYLAYER
 10
54.0
 20
-80.0000000000000284
 30
0.0
 40
2.75
  0
CIRCLE
  5
AE
100
AcDbEntity
100
AcDbCircle
  8
0
 62
256
370
-1
  6
BYLAYER
 10
-54.0
 20
-80.0000000000000284
 30
0.0
 40
2.75
  0
CIRCLE
  5
AF
100
AcDbEntity
100
AcDbCircle
  8
0
 62
256
370
-1
  6
BYLAYER
 10
-54.0
 20
0.0
 30
0.0
 40
2.75
  0
CIRCLE
  5
B0
100
AcDbEntity
100
AcDbCircle
  8
0
 62
256
370
-1
  6
BYLAYER
 10
-54.0
 20
80.0
 30
0.0
 40
2.75
  0
ENDBLK
  5
B1
100
AcDbEntity
  8
0
100
AcDbBlockEnd
  0
BLOCK
  5
B2
100
AcDbEntity
  8
0
100
AcDbBlockBegin
  2
leg_side
 70
0
 10
0.0
 20
0.0
 30
0.0
  3
leg_side
  1

  0
LINE
  5
B3
100
AcDbEntity
100
AcDbLine
  8
0
 62
256
370
-1
  6
BYLAYER
 10
-7.0
 20
-16.0
 30
0.0
 11
-7.0
 21
3.0
 31
0.0
  0
LINE
  5
B4
100
AcDbEntity
100
AcDbLine
  8
0
 62
256
370
-1
  6
BYLAYER
 10
-107.0
 20
-16.0
 30
0.0
 11
-107.0
 21
3.0
 31
0.0
  0
LINE
  5
B5
100
AcDbEntity
100
AcDbLine
  8
0
 62
256
370
-1
  6
BYLAYER
 10
-84.0
 20
-15.9999999999999982
 30
0.0
 11
-61.0
 21
-16.0
 31
0.0
  0
LINE
  5
B6
100
AcDbEntity
100
AcDbLine
  8
0
 62
256
370
-1
  6
BYLAYER
 10
-61.0
 20
3.0
 30
0.0
 11
-84.0
 21
3.0000000000000036
 31
0.0
  0
LINE
  5
B7
100
AcDbEntity
100
AcDbLine
  8
0
 62
256
370
-1
  6
BYLAYER
 10
-56.4999999999999929
 20
2.9999999999999964
 30
0.0
 11
-61.0
 21
3.0
 31
0.0
  0
LINE
  5
B8
100
AcDbEntity
100
AcDbLine
  8
0
 62
256
370
-1
  6
BYLAYER
 10
-61.0
 20
3.0
 30
0.0
 11
-61.0
 21
3.9999999999999964
 31
0.0
  0
LINE
  5
B9
100
AcDbEntity
100
AcDbLine
  8
0
 62
256
370
-1
  6
BYLAYER
 10
-61.0
 20
3.9999999999999964
 30
0.0
 11
-56.4999999999999929
 21
3.9999999999999964
 31
0.0
  0
LINE
  5
BA
100
AcDbEntity
100
AcDbLine
  8
0
 62
256
370
-1
  6
BYLAYER
 10
-56.4999999999999929
 20
3.9999999999999964
 30
0.0
 11
-56.4999999999999929
 21
2.9999999999999964
 31
0.0
  0
LINE
  5
BB
100
AcDbEntity
100
AcDbLine
  8
0
 62
256
370
-1
  6
BYLAYER
 10
-84.0
 20
3.0000000000000036
 30
0.0
 11
-88.5
 21
3.0000000000000036
 31
0.0
  0
LINE
  5
BC
100
AcDbEntity
100
AcDbLine
  8
0
 62
256
370
-1
  6
BYLAYER
 10
-88.5
 20
3.0000000000000036
 30
0.0
 11
-88.5
 21
4.0000000000000036
 31
0.0
  0
LINE
  5
BD
100
AcDbEntity
100
AcDbLine
  8
0
 62
256
370
-1
  6
BYLAYER
 10
-88.5
 20
4.0000000000000036
 30
0.0
 11
-84.0
 21
4.0
 31
0.0
  0
LINE
  5
BE
100
AcDbEntity
100
AcDbLine
  8
0
 62
256
370
-1
  6
BYLAYER
 10
-84.0
 20
4.0
 30
0.0
 11
-84.0
 21
3.0000000000000036
 31
0.0
  0
LINE
  5
BF
100
AcDbEntity
100
AcDbLine
  8
0
 62
256
370
-1
  6
BYLAYER
 10
-61.0
 20
3.9999999999999964
 30
0.0
 11
-61.0
 21
5.0
 31
0.0
  0
LINE
  5
C0
100
AcDbEntity
100
AcDbLine
  8
0
 62
256
370
-1
  6
BYLAYER
 10
-61.0
 20
5.0
 30
0.0
 11
-84.0
 21
5.0
 31
0.0
  0
LINE
  5
C1
100
AcDbEntity
100
AcDbLine
  8
0
 62
256
370
-1
  6
BYLAYER
 10
-84.0
 20
5.0
 30
0.0
 11
-84.0
 21
4.0
 31
0.0
  0
LINE
  5
C2
100
AcDbEntity
100
AcDbLine
  8
0
 62
256
370
-1
  6
BYLAYER
 10
-64.0
 20
5.0
 30
0.0
 11
-64.0
 21
7.0
 31
0.0
  0
LINE
  5
C3
100
AcDbEntity
100
AcDbLine
  8
0
 62
256
370
-1
  6
BYLAYER
 10
-64.0
 20
7.0
 30
0.0
 11
-72.0
 21
7.0
 31
0.0
  0
LINE
  5
C4
100
AcDbEntity
100
AcDbLine
  8
0
 62
256
370
-1
  6
BYLAYER
 10
-72.0
 20
7.0
 30
0.0
 11
-72.0
 21
5.0
 31
0.0
  0
LINE
  5
C5
100
AcDbEntity
100
AcDbLine
  8
0
 62
256
370
-1
  6
BYLAYER
 10
-67.0
 20
7.0
 30
0.0
 11
-67.0
 21
10.0
 31
0.0
  0
LINE
  5
C6
100
AcDbEntity
100
AcDbLine
  8
0
 62
256
370
-1
  6
BYLAYER
 10
-67.0
 20
10.0
 30
0.0
 11
-69.0
 21
10.0
 31
0.0
  0
LINE
  5
C7
100
AcDbEntity
100
AcDbLine
  8
0
 62
256
370
-1
  6
BYLAYER
 10
-69.0
 20
10.0
 30
0.0
 11
-69.0
 21
7.0
 31
0.0
  0
LINE
  5
C8
100
AcDbEntity
100
AcDbLine
  8
0
 62
256
370
-1
  6
DOT
 10
-84.0
 20
3.0000000000000036
 30
0.0
 11
-84.0
 21
-15.9999999999999982
 31
0.0
  0
LINE
  5
C9
100
AcDbEntity
100
AcDbLine
  8
0
 62
256
370
-1
  6
DOT
 10
-61.0
 20
-16.0
 30
0.0
 11
-61.0
 21
3.0
 31
0.0
  0
CIRCLE
  5
CA
100
AcDbEntity
100
AcDbCircle
  8
0
 62
256
370
-1
  6
DOT
 10
-46.0
 20
-4.0
 30
0.0
 40
5.0
  0
CIRCLE
  5
CB
100
AcDbEntity
100
AcDbCircle
  8
0
 62
256
370
-1
  6
BYLAYER
 10
-46.0
 20
-4.0
 30
0.0
 40
2.0
  0
LINE
  5
CC
100
AcDbEntity
100
AcDbLine
  8
0
 62
256
370
-1
  6
BYLAYER
 10
-53.0
 20
-10.0
 30
0.0
 11
-30.0
 21
-10.0
 31
0.0
  0
LINE
  5
CD
100
AcDbEntity
100
AcDbLine
  8
0
 62
256
370
-1
  6
BYLAYER
 10
-30.0
 20
-10.0
 30
0.0
 11
-30.0
 21
1.9999999999999996
 31
0.0
  0
LINE
  5
CE
100
AcDbEntity
100
AcDbLine
  8
0
 62
256
370
-1
  6
BYLAYER
 10
-30.0
 20
1.9999999999999996
 30
0.0
 11
-53.0
 21
1.9999999999999996
 31
0.0
  0
LINE
  5
CF
100
AcDbEntity
100
AcDbLine
  8
0
 62
256
370
-1
  6
BYLAYER
 10
-53.0
 20
1.9999999999999996
 30
0.0
 11
-53.0
 21
-10.0
 31
0.0
  0
LINE
  5
D0
100
AcDbEntity
100
AcDbLine
  8
0
 62
256
370
-1
  6
BYLAYER
 10
-57.5
 20
-9.0
 30
0.0
 11
-53.0
 21
-9.0
 31
0.0
  0
LINE
  5
D1
100
AcDbEntity
100
AcDbLine
  8
0
 62
256
370
-1
  6
BYLAYER
 10
-53.0
 20
-9.0
 30
0.0
 11
-53.0
 21
0.9999999999999996
 31
0.0
  0
LINE
  5
D2
100
AcDbEntity
100
AcDbLine
  8
0
 62
256
370
-1
  6
BYLAYER
 10
-53.0
 20
0.9999999999999996
 30
0.0
 11
-57.5
 21
0.9999999999999996
 31
0.0
  0
LINE
  5
D3
100
AcDbEntity
100
AcDbLine
  8
0
 62
256
370
-1
  6
BYLAYER
 10
-57.5
 20
0.9999999999999996
 30
0.0
 11
-57.5
 21
-9.0
 31
0.0
  0
LINE
  5
D4
100
AcDbEntity
100
AcDbLine
  8
0
 62
256
370
-1
  6
BYLAYER
 10
-30.0
 20
-9.0
 30
0.0
 11
-25.5
 21
-9.0
 31
0.0
  0
LINE
  5
D5
100
AcDbEntity
100
AcDbLine
  8
0
 62
256
370
-1
  6
BYLAYER
 10
-25.5
 20
-9.0
 30
0.0
 11
-25.5
 21
0.9999999999999996
 31
0.0
  0
LINE
  5
D6
100
AcDbEntity
100
AcDbLine
  8
0
 62
256
370
-1
  6
BYLAYER
 10
-25.5
 20
0.9999999999999996
 30
0.0
 11
-30.0
 21
0.9999999999999996
 31
0.0
  0
LINE
  5
D7
100
AcDbEntity
100
AcDbLine
  8
0
 62
256
370
-1
  6
BYLAYER
 10
-30.0
 20
0.9999999999999996
 30
0.0
 11
-30.0
 21
-9.0
 31
0.0
  0
CIRCLE
  5
D8
100
AcDbEntity
100
AcDbCircle
  8
0
 62
256
370
-1
  6
BYLAYER
 10
-56.5
 20
-4.0000000000000284
 30
0.0
 40
1.0
  0
CIRCLE
  5
D9
100
AcDbEntity
100
AcDbCircle
  8
0
 62
256
370
-1
  6
BYLAYER
 10
-26.5
 20
-4.0000000000000284
 30
0.0
 40
1.0
  0
CIRCLE
  5
DA
100
AcDbEntity
100
AcDbCircle
  8
0
 62
256
370
-1
  6
BYLAYER
 10
-46.0
 20
-4.0
 30
0.0
 40
10.0
  0
LINE
  5
DB
100
AcDbEntity
100
AcDbLine
  8
0
 62
256
370
-1
  6
BYLAYER
 10
-78.0
 20
11.0
 30
0.0
 11
-58.0
 21
11.0
 31
0.0
  0
LINE
  5
DC
100
AcDbEntity
100
AcDbLine
  8
0
 62
256
370
-1
  6
BYLAYER
 10
-58.0
 20
11.0
 30
0.0
 11
-58.0
 21
10.0
 31
0.0
  0
LINE
  5
DD
100
AcDbEntity
100
AcDbLine
  8
0
 62
256
370
-1
  6
BYLAYER
 10
-67.0
 20
10.0
 30
0.0
 11
-69.0
 21
10.0
 31
0.0
  0
LINE
  5
DE
100
AcDbEntity
100
AcDbLine
  8
0
 62
256
370
-1
  6
BYLAYER
 10
-58.0
 20
10.0
 30
0.0
 11
-78.0
 21
10.0
 31
0.0
  0
LINE
  5
DF
100
AcDbEntity
100
AcDbLine
  8
0
 62
256
370
-1
  6
BYLAYER
 10
-78.0
 20
10.0
 30
0.0
 11
-78.0
 21
11.0
 31
0.0
  0
LINE
  5
E0
100
AcDbEntity
100
AcDbLine
  8
0
 62
256
370
-1
  6
BYLAYER
 10
-107.0
 20
3.0
 30
0.0
 11
-7.0
 21
3.0
 31
0.0
  0
LINE
  5
E1
100
AcDbEntity
100
AcDbLine
  8
0
 62
256
370
-1
  6
BYLAYER
 10
-7.0
 20
-16.0
 30
0.0
 11
-107.0
 21
-16.0
 31
0.0
  0
CIRCLE
  5
E2
100
AcDbEntity
100
AcDbCircle
  8
0
 62
256
370
-1
  6
BYLAYER
 10
-11.9999999999999982
 20
-6.4999999999999991
 30
0.0
 40
2.75
  0
LINE
  5
E3
100
AcDbEntity
100
AcDbLine
  8
0
 62
256
370
-1
  6
BYLAYER
 10
-23.9900221574082764
 20
36.2823529411764696
 30
0.0
 11
-23.9794785163234927
 21
35.5953387365712501
 31
0.0
  0
CIRCLE
  5
E4
100
AcDbEntity
100
AcDbCircle
  8
0
 62
256
370
-1
  6
BYLAYER
 10
-41.4500000000000028
 20
3.0
 30
0.0
 40
0.5
  0
LINE
  5
E5
100
AcDbEntity
100
AcDbLine
  8
0
 62
256
370
-1
  6
BYLAYER
 10
-41.4500000000000028
 20
3.0
 30
0.0
 11
-20.0
 21
36.0
 31
0.0
  0
CIRCLE
  5
E6
100
AcDbEntity
100
AcDbCircle
  8
0
 62
256
370
-1
  6
BYLAYER
 10
-11.9999999999999982
 20
-6.4999999999999982
 30
0.0
 40
2.75
  0
INSERT
  5
E7
100
AcDbEntity
100
AcDbBlockReference
  8
0
 62
256
370
-1
  6
BYLAYER
  2
tibia
 10
-12.0
 20
-6.4999999999999991
 30
0.0
  0
ENDBLK
  5
E8
100
AcDbEntity
  8
0
100
AcDbBlockEnd
  0
BLOCK
  5
E9
100
AcDbEntity
  8
0
100
AcDbBlockBegin
  2
chassis_top
 70
0
 10
0.0
 20
0.0
 30
0.0
  3
chassis_top
  1

  0
ARC
  5
EA
100
AcDbEntity
  8
0
 62
256
370
-1
  6
BYLAYER
100
AcDbCircle
 10
-30.0
 20
20.0
 30
0.0
 40
10.0
100
AcDbArc
 50
180.0
 51
270.0
  0
ARC
  5
EB
100
AcDbEntity
  8
0
 62
256
370
-1
  6
BYLAYER
100
AcDbCircle
 10
-30.0
 20
0.0
 30
0.0
 40
10.0
100
AcDbArc
 50
0.0
 51
90.0
  0
ARC
  5
EC
100
AcDbEntity
  8
0
 62
256
370
-1
  6
BYLAYER
100
AcDbCircle
 10
-30.0
 20
0.0
 30
0.0
 40
10.0
100
AcDbArc
 50
270.0
 51
0.0
  0
ARC
  5
ED
100
AcDbEntity
  8
0
 62
256
370
-1
  6
BYLAYER
100
AcDbCircle
 10
30.0
 20
20.0
 30
0.0
 40
10.0
100
AcDbArc
 50
270.0
 51
0.0
  0
ARC
  5
EE
100
AcDbEntity
  8
0
 62
256
370
-1
  6
BYLAYER
100
AcDbCircle
 10
30.0
 20
0.0
 30
0.0
 40
10.0
100
AcDbArc
 50
90.0
 51
180.0
  0
ARC
  5
EF
100
AcDbEntity
  8
0
 62
256
370
-1
  6
BYLAYER
100
AcDbCircle
 10
30.0
 20
0.0
 30
0.0
 40
10.0
100
AcDbArc
 50
180.0
 51
270.0
  0
LINE
  5
F0
100
AcDbEntity
100
AcDbLine
  8
0
 62
256
370
-1
  6
BYLAYER
 10
-40.0
 20
-20.0
 30
0.0
 11
-40.0
 21
-70.0
 31
0.0
  0
LINE
  5
F1
100
AcDbEntity
100
AcDbLine
  8
0
 62
256
370
-1
  6
BYLAYER
 10
40.0
 20
-20.0
 30
0.0
 11
40.0
 21
-70.0
 31
0.0
  0
ARC
  5
F2
100
AcDbEntity
  8
0
 62
256
370
-1
  6
BYLAYER
100
AcDbCircle
 10
30.0
 20
-20.0
 30
0.0
 40
10.0
100
AcDbArc
 50
0.0
 51
90.0
  0
ARC
  5
F3
100
AcDbEntity
  8
0
 62
256
370
-1
  6
BYLAYER
100
AcDbCircle
 10
-30.0
 20
-20.0
 30
0.0
 40
10.0
100
AcDbArc
 50
90.0
 51
180.0
  0
LINE
  5
F4
100
AcDbEntity
100
AcDbLine
  8
0
 62
256
370
-1
  6
BYLAYER
 10
-50.0
 20
-90.0
 30
0.0
 11
50.0
 21
-90.0
 31
0.0
  0
LINE
  5
F5
100
AcDbEntity
100
AcDbLine
  8
0
 62
256
370
-1
  6
BYLAYER
 10
60.0
 20
-80.0
 30
0.0
 11
60.0
 21
80.0
 31
0.0
  0
LINE
  5
F6
100
AcDbEntity
100
AcDbLine
  8
0
 62
256
370
-1
  6
BYLAYER
 10
50.0
 20
90.0
 30
0.0
 11
-50.0
 21
90.0
 31
0.0
  0
LINE
  5
F7
100
AcDbEntity
100
AcDbLine
  8
0
 62
256
370
-1
  6
BYLAYER
 10
-60.0
 20
80.0
 30
0.0
 11
-60.0
 21
-80.0
 31
0.0
  0
ARC
  5
F8
100
AcDbEntity
  8
0
 62
256
370
-1
  6
BYLAYER
100
AcDbCircle
 10
-50.0
 20
80.0
 30
0.0
 40
10.0
100
AcDbArc
 50
90.0
 51
180.0
  0
ARC
  5
F9
100
AcDbEntity
  8
0
 62
256
370
-1
  6
BYLAYER
100
AcDbCircle
 10
-50.0
 20
-80.0
 30
0.0
 40
10.0
100
AcDbArc
 50
180.0
 51
270.0
  0
ARC
  5
FA
100
AcDbEntity
  8
0
 62
256
370
-1
  6
BYLAYER
100
AcDbCircle
 10
50.0
 20
-80.0
 30
0.0
 40
10.0
100
AcDbArc
 50
270.0
 51
0.0
  0
ARC
  5
FB
100
AcDbEntity
  8
0
 62
256
370
-1
  6
BYLAYER
100
AcDbCircle
 10
50.0
 20
80.0
 30
0.0
 40
10.0
100
AcDbArc
 50
0.0
 51
90.0
  0
LINE
  5
FC
100
AcDbEntity
100
AcDbLine
  8
0
 62
256
370
-1
  6
BYLAYER
 10
-30.0
 20
-80.0
 30
0.0
 11
30.0
 21
-80.0
 31
0.0
  0
LINE
  5
FD
100
AcDbEntity
100
AcDbLine
  8
0
 62
256
370
-1
  6
BYLAYER
 10
40.0
 20
20.0
 30
0.0
 11
40.0
 21
70.0
 31
0.0
  0
LINE
  5
FE
100
AcDbEntity
100
AcDbLine
  8
0
 62
256
370
-1
  6
BYLAYER
 10
30.0
 20
80.0
 30
0.0
 11
-30.0
 21
80.0
 31
0.0
  0
LINE
  5
FF
100
AcDbEntity
100
AcDbLine
  8
0
 62
256
370
-1
  6
BYLAYER
 10
-40.0
 20
70.0
 30
0.0
 11
-40.0
 21
20.0
 31
0.0
  0
ARC
  5
100
100
AcDbEntity
  8
0
 62
256
370
-1
  6
BYLAYER
100
AcDbCircle
 10
-30.0
 20
70.0
 30
0.0
 40
10.0
100
AcDbArc
 50
90.0
 51
180.0
  0
ARC
  5
101
100
AcDbEntity
  8
0
 62
256
370
-1
  6
BYLAYER
100
AcDbCircle
 10
30.0
 20
70.0
 30
0.0
 40
10.0
100
AcDbArc
 50
0.0
 51
90.0
  0
ARC
  5
102
100
AcDbEntity
  8
0
 62
256
370
-1
  6
BYLAYER
100
AcDbCircle
 10
30.0
 20
-70.0
 30
0.0
 40
10.0
100
AcDbArc
 50
270.0
 51
0.0
  0
ARC
  5
103
100
AcDbEntity
  8
0
 62
256
370
-1
  6
BYLAYER
100
AcDbCircle
 10
-30.0
 20
-70.0
 30
0.0
 40
10.0
100
AcDbArc
 50
180.0
 51
270.0
  0
CIRCLE
  5
104
100
AcDbEntity
100
AcDbCircle
  8
0
 62
256
370
-1
  6
BYLAYER
 10
54.0000000000000568
 20
79.9999999999999432
 30
0.0
 40
2.75
  0
CIRCLE
  5
105
100
AcDbEntity
100
AcDbCircle
  8
0
 62
256
370
-1
  6
BYLAYER
 10
54.0000000000000568
 20
-0.0000000000000568
 30
0.0
 40
2.75
  0
CIRCLE
  5
106
100
AcDbEntity
100
AcDbCircle
  8
0
 62
256
370
-1
  6
BYLAYER
 10
54.0000000000000568
 20
-80.0000000000000568
 30
0.0
 40
2.75
  0
CIRCLE
  5
107
100
AcDbEntity
100
AcDbCircle
  8
0
 62
256
370
-1
  6
BYLAYER
 10
-54.0
 20
-80.0000000000000284
 30
0.0
 40
2.75
  0
CIRCLE
  5
108
100
AcDbEntity
100
AcDbCircle
  8
0
 62
256
370
-1
  6
BYLAYER
 10
-54.0
 20
0.0
 30
0.0
 40
2.75
  0
CIRCLE
  5
109
100
AcDbEntity
100
AcDbCircle
  8
0
 62
256
370
-1
  6
BYLAYER
 10
-54.0
 20
80.0
 30
0.0
 40
2.75
  0
CIRCLE
  5
10A
100
AcDbEntity
100
AcDbCircle
  8
0
 62
256
370
-1
  6
BYLAYER
 10
54.0
 20
-50.0
 30
0.0
 40
1.0
  0
CIRCLE
  5
10B
100
AcDbEntity
100
AcDbCircle
  8
0
 62
256
370
-1
  6
BYLAYER
 10
54.0
 20
-30.0
 30
0.0
 40
1.0
  0
CIRCLE
  5
10C
100
AcDbEntity
100
AcDbCircle
  8
0
 62
256
370
-1
  6
BYLAYER
 10
54.0
 20
50.0
 30
0.0
 40
1.0
  0
CIRCLE
  5
10D
100
AcDbEntity
100
AcDbCircle
  8
0
 62
256
370
-1
  6
BYLAYER
 10
-54.0
 20
-50.0
 30
0.0
 40
1.0
  0
CIRCLE
  5
10E
100
AcDbEntity
100
AcDbCircle
  8
0
 62
256
370
-1
  6
BYLAYER
 10
-54.0
 20
-30.0
 30
0.0
 40
1.0
  0
CIRCLE
  5
10F
100
AcDbEntity
100
AcDbCircle
  8
0
 62
256
370
-1
  6
BYLAYER
 10
-54.0
 20
50.0
 30
0.0
 40
1.0
  0
ENDBLK
  5
110
100
AcDbEntity
  8
0
100
AcDbBlockEnd
  0
BLOCK
  5
111
100
AcDbEntity
  8
0
100
AcDbBlockBegin
  2
pcb
 70
0
 10
0.0
 20
0.0
 30
0.0
  3
pcb
  1

  0
LINE
  5
112
100
AcDbEntity
100
AcDbLine
  8
0
 62
256
370
-1
  6
BYLAYER
 10
2.8284271247461561
 20
32.5269119345813351
 30
0.0
 11
32.526911934581193
 21
2.8284271247463266
 31
0.0
  0
LINE
  5
113
100
AcDbEntity
100
AcDbLine
  8
0
 62
256
370
-1
  6
BYLAYER
 10
32.526911934581193
 20
-2.8284271247461561
 30
0.0
 11
2.8284271247461561
 21
-32.5269119345811646
 31
0.0
  0
LINE
  5
114
100
AcDbEntity
100
AcDbLine
  8
0
 62
256
370
-1
  6
BYLAYER
 10
-2.8284271247462129
 20
-32.5269119345811077
 30
0.0
 11
-32.526911934581193
 21
-2.8284271247460993
 31
0.0
  0
LINE
  5
115
100
AcDbEntity
100
AcDbLine
  8
0
 62
256
370
-1
  6
BYLAYER
 10
-32.526911934581193
 20
2.8284271247462698
 30
0.0
 11
-2.8284271247462129
 21
32.5269119345812783
 31
0.0
  0
ARC
  5
116
100
AcDbEntity
  8
0
 62
256
370
-1
  6
BYLAYER
100
AcDbCircle
 10
-29.6984848098350085
 20
0.0000000000001137
 30
0.0
 40
4.0
100
AcDbArc
 50
135.0000000000000284
 51
225.0000000000000284
  0
ARC
  5
117
100
AcDbEntity
  8
0
 62
256
370
-1
  6
BYLAYER
100
AcDbCircle
 10
-0.0000000000000284
 20
-29.6984848098349232
 30
0.0
 40
4.0
100
AcDbArc
 50
225.0000000000000284
 51
314.9999999999999432
  0
ARC
  5
118
100
AcDbEntity
  8
0
 62
256
370
-1
  6
BYLAYER
100
AcDbCircle
 10
29.6984848098350085
 20
0.0000000000000568
 30
0.0
 40
4.0
100
AcDbArc
 50
314.9999999999999432
 51
44.9999999999999858
  0
ARC
  5
119
100
AcDbEntity
  8
0
 62
256
370
-1
  6
BYLAYER
100
AcDbCircle
 10
0.0
 20
29.6984848098351222
 30
0.0
 40
4.0
100
AcDbArc
 50
44.9999999999999858
 51
135.0000000000000284
  0
CIRCLE
  5
11A
100
AcDbEntity
100
AcDbCircle
  8
0
 62
256
370
-1
  6
BYLAYER
 10
-29.6984848098350085
 20
0.0000000000001137
 30
0.0
 40
2.0
  0
CIRCLE
  5
11B
100
AcDbEntity
100
AcDbCircle
  8
0
 62
256
370
-1
  6
BYLAYER
 10
29.6984848098350085
 20
0.0000000000001137
 30
0.0
 40
2.0
  0
ENDBLK
  5
11C
100
AcDbEntity
  8
0
100
AcDbBlockEnd
  0
BLOCK
  5
11D
100
AcDbEntity
  8
0
100
AcDbBlockBegin
  2
tibia
 70
0
 10
0.0
 20
0.0
 30
0.0
  3
tibia
  1

  0
CIRCLE
  5
11E
100
AcDbEntity
100
AcDbCircle
  8
0
 62
256
370
-1
  6
BYLAYER
 10
0.0
 20
0.0
 30
0.0
 40
2.75
  0
ARC
  5
11F
100
AcDbEntity
  8
0
 62
256
370
-1
  6
BYLAYER
100
AcDbCircle
 10
-8.0000000000000018
 20
42.5
 30
0.0
 40
4.0
100
AcDbArc
 50
14.6381487178781509
 51
175.9522258031871615
  0
ARC
  5
120
100
AcDbEntity
  8
0
 62
256
370
-1
  6
BYLAYER
100
AcDbCircle
 10
-0.0000000000000018
 20
-51.0
 30
0.0
 40
2.5
100
AcDbArc
 50
185.806278486096204
 51
347.8591058542621681
  0
CIRCLE
  5
121
100
AcDbEntity
100
AcDbCircle
  8
0
 62
256
370
-1
  6
BYLAYER
 10
-8.0000000000000018
 20
42.5
 30
0.0
 40
0.5
  0
LINE
  5
122
100
AcDbEntity
100
AcDbLine
  8
0
 62
256
370
-1
  6
BYLAYER
 10
-11.9900221574082781
 20
42.7823529411764696
 30
0.0
 11
-2.4871740727021869
 21
-51.2529132896429687
 31
0.0
  0
ARC
  5
123
100
AcDbEntity
  8
0
 62
256
370
-1
  6
BYLAYER
100
AcDbCircle
 10
-163.082874420961474
 20
-15.2300087033982265
 30
0.0
 40
169.4596045925466683
100
AcDbArc
 50
347.6322559460560342
 51
20.2817182810896632
  0
ENDBLK
  5
124
100
AcDbEntity
  8
0
100
AcDbBlockEnd
  0
ENDSEC
  0
SECTION
  2
ENTITIES
  0
LINE
  5
125
100
AcDbEntity
100
AcDbLine
  8
0
 62
256
370
-1
  6
BYLAYER
 10
-320.0
 20
423.0
 30
0.0
 11
-312.0
 21
423.0
 31
0.0
  0
LINE
  5
126
100
AcDbEntity
100
AcDbLine
  8
0
 62
256
370
-1
  6
BYLAYER
 10
-312.0
 20
423.0
 30
0.0
 11
-312.0
 21
421.0
 31
0.0
  0
LINE
  5
127
100
AcDbEntity
100
AcDbLine
  8
0
 62
256
370
-1
  6
BYLAYER
 10
-317.0
 20
423.0
 30
0.0
 11
-317.0
 21
426.0
 31
0.0
  0
LINE
  5
128
100
AcDbEntity
100
AcDbLine
  8
0
 62
256
370
-1
  6
BYLAYER
 10
-317.0
 20
426.0
 30
0.0
 11
-315.0
 21
426.0
 31
0.0
  0
LINE
  5
129
100
AcDbEntity
100
AcDbLine
  8
0
 62
256
370
-1
  6
BYLAYER
 10
-315.0
 20
426.0
 30
0.0
 11
-315.0
 21
423.0
 31
0.0
  0
LINE
  5
12A
100
AcDbEntity
100
AcDbLine
  8
0
 62
256
370
-1
  6
BYLAYER
 10
-300.0
 20
400.0
 30
0.0
 11
-323.0
 21
400.0
 31
0.0
  0
LINE
  5
12B
100
AcDbEntity
100
AcDbLine
  8
0
 62
256
370
-1
  6
BYLAYER
 10
-323.0
 20
419.0
 30
0.0
 11
-300.0
 21
419.0
 31
0.0
  0
LINE
  5
12C
100
AcDbEntity
100
AcDbLine
  8
0
 62
256
370
-1
  6
BYLAYER
 10
-327.5
 20
419.0
 30
0.0
 11
-323.0
 21
419.0
 31
0.0
  0
LINE
  5
12D
100
AcDbEntity
100
AcDbLine
  8
0
 62
256
370
-1
  6
BYLAYER
 10
-323.0
 20
419.0
 30
0.0
 11
-323.0
 21
420.0
 31
0.0
  0
LINE
  5
12E
100
AcDbEntity
100
AcDbLine
  8
0
 62
256
370
-1
  6
BYLAYER
 10
-323.0
 20
420.0
 30
0.0
 11
-327.5
 21
420.0
 31
0.0
  0
LINE
  5
12F
100
AcDbEntity
100
AcDbLine
  8
0
 62
256
370
-1
  6
BYLAYER
 10
-327.5
 20
420.0
 30
0.0
 11
-327.5
 21
419.0
 31
0.0
  0
LINE
  5
130
100
AcDbEntity
100
AcDbLine
  8
0
 62
256
370
-1
  6
BYLAYER
 10
-300.0
 20
419.0
 30
0.0
 11
-295.5
 21
419.0
 31
0.0
  0
LINE
  5
131
100
AcDbEntity
100
AcDbLine
  8
0
 62
256
370
-1
  6
BYLAYER
 10
-295.5
 20
419.0
 30
0.0
 11
-295.5
 21
420.0
 31
0.0
  0
LINE
  5
132
100
AcDbEntity
100
AcDbLine
  8
0
 62
256
370
-1
  6
BYLAYER
 10
-295.5
 20
420.0
 30
0.0
 11
-300.0
 21
420.0
 31
0.0
  0
LINE
  5
133
100
AcDbEntity
100
AcDbLine
  8
0
 62
256
370
-1
  6
BYLAYER
 10
-300.0
 20
420.0
 30
0.0
 11
-300.0
 21
419.0
 31
0.0
  0
LINE
  5
134
100
AcDbEntity
100
AcDbLine
  8
0
 62
256
370
-1
  6
BYLAYER
 10
-323.0
 20
420.0
 30
0.0
 11
-323.0
 21
421.0
 31
0.0
  0
LINE
  5
135
100
AcDbEntity
100
AcDbLine
  8
0
 62
256
370
-1
  6
BYLAYER
 10
-323.0
 20
421.0
 30
0.0
 11
-300.0
 21
421.0
 31
0.0
  0
LINE
  5
136
100
AcDbEntity
100
AcDbLine
  8
0
 62
256
370
-1
  6
BYLAYER
 10
-300.0
 20
421.0
 30
0.0
 11
-300.0
 21
420.0
 31
0.0
  0
LINE
  5
137
100
AcDbEntity
100
AcDbLine
  8
0
 62
256
370
-1
  6
BYLAYER
 10
-320.0
 20
421.0
 30
0.0
 11
-320.0
 21
423.0
 31
0.0
  0
LINE
  5
138
100
AcDbEntity
100
AcDbLine
  8
0
 62
256
370
-1
  6
BYLAYER
 10
-300.0
 20
400.0
 30
0.0
 11
-300.0
 21
419.0
 31
0.0
  0
LINE
  5
139
100
AcDbEntity
100
AcDbLine
  8
0
 62
256
370
-1
  6
BYLAYER
 10
-323.0
 20
419.0
 30
0.0
 11
-323.0
 21
400.0
 31
0.0
  0
CIRCLE
  5
13A
100
AcDbEntity
100
AcDbCircle
  8
0
 62
256
370
-1
  6
BYLAYER
 10
-283.5
 20
405.9999999999999432
 30
0.0
 40
1.0
  0
CIRCLE
  5
13B
100
AcDbEntity
100
AcDbCircle
  8
0
 62
256
370
-1
  6
BYLAYER
 10
-253.5
 20
405.9999999999999432
 30
0.0
 40
1.0
  0
CIRCLE
  5
13C
100
AcDbEntity
100
AcDbCircle
  8
0
 62
256
370
-1
  6
DOT
 10
-273.0
 20
406.0
 30
0.0
 40
5.0
  0
CIRCLE
  5
13D
100
AcDbEntity
100
AcDbCircle
  8
0
 62
256
370
-1
  6
BYLAYER
 10
-273.0
 20
406.0
 30
0.0
 40
2.0
  0
LINE
  5
13E
100
AcDbEntity
100
AcDbLine
  8
0
 62
256
370
-1
  6
BYLAYER
 10
-280.0
 20
400.0
 30
0.0
 11
-257.0
 21
400.0
 31
0.0
  0
LINE
  5
13F
100
AcDbEntity
100
AcDbLine
  8
0
 62
256
370
-1
  6
BYLAYER
 10
-257.0
 20
400.0
 30
0.0
 11
-257.0
 21
412.0
 31
0.0
  0
LINE
  5
140
100
AcDbEntity
100
AcDbLine
  8
0
 62
256
370
-1
  6
BYLAYER
 10
-257.0
 20
412.0
 30
0.0
 11
-280.0
 21
412.0
 31
0.0
  0
LINE
  5
141
100
AcDbEntity
100
AcDbLine
  8
0
 62
256
370
-1
  6
BYLAYER
 10
-280.0
 20
412.0
 30
0.0
 11
-280.0
 21
400.0
 31
0.0
  0
LINE
  5
142
100
AcDbEntity
100
AcDbLine
  8
0
 62
256
370
-1
  6
BYLAYER
 10
-284.5
 20
401.0
 30
0.0
 11
-280.0
 21
401.0
 31
0.0
  0
LINE
  5
143
100
AcDbEntity
100
AcDbLine
  8
0
 62
256
370
-1
  6
BYLAYER
 10
-280.0
 20
401.0
 30
0.0
 11
-280.0
 21
411.0
 31
0.0
  0
LINE
  5
144
100
AcDbEntity
100
AcDbLine
  8
0
 62
256
370
-1
  6
BYLAYER
 10
-280.0
 20
411.0
 30
0.0
 11
-284.5
 21
411.0
 31
0.0
  0
LINE
  5
145
100
AcDbEntity
100
AcDbLine
  8
0
 62
256
370
-1
  6
BYLAYER
 10
-284.5
 20
411.0
 30
0.0
 11
-284.5
 21
401.0
 31
0.0
  0
LINE
  5
146
100
AcDbEntity
100
AcDbLine
  8
0
 62
256
370
-1
  6
BYLAYER
 10
-257.0
 20
401.0
 30
0.0
 11
-252.5
 21
401.0
 31
0.0
  0
LINE
  5
147
100
AcDbEntity
100
AcDbLine
  8
0
 62
256
370
-1
  6
BYLAYER
 10
-252.5
 20
401.0
 30
0.0
 11
-252.5
 21
411.0
 31
0.0
  0
LINE
  5
148
100
AcDbEntity
100
AcDbLine
  8
0
 62
256
370
-1
  6
BYLAYER
 10
-252.5
 20
411.0
 30
0.0
 11
-257.0
 21
411.0
 31
0.0
  0
LINE
  5
149
100
AcDbEntity
100
AcDbLine
  8
0
 62
256
370
-1
  6
BYLAYER
 10
-257.0
 20
411.0
 30
0.0
 11
-257.0
 21
401.0
 31
0.0
  0
CIRCLE
  5
14A
100
AcDbEntity
100
AcDbCircle
  8
0
 62
256
370
-1
  6
BYLAYER
 10
-273.0
 20
406.0
 30
0.0
 40
10.0
  0
LINE
  5
14B
100
AcDbEntity
100
AcDbLine
  8
0
 62
256
370
-1
  6
BYLAYER
 10
-326.0
 20
426.0
 30
0.0
 11
-306.0
 21
426.0
 31
0.0
  0
LINE
  5
14C
100
AcDbEntity
100
AcDbLine
  8
0
 62
256
370
-1
  6
BYLAYER
 10
-306.0
 20
426.0
 30
0.0
 11
-306.0
 21
427.0
 31
0.0
  0
LINE
  5
14D
100
AcDbEntity
100
AcDbLine
  8
0
 62
256
370
-1
  6
BYLAYER
 10
-306.0
 20
427.0
 30
0.0
 11
-326.0
 21
427.0
 31
0.0
  0
LINE
  5
14E
100
AcDbEntity
100
AcDbLine
  8
0
 62
256
370
-1
  6
BYLAYER
 10
-326.0
 20
427.0
 30
0.0
 11
-326.0
 21
426.0
 31
0.0
  0
INSERT
  5
14F
100
AcDbEntity
100
AcDbBlockReference
  8
0
 62
256
370
-1
  6
BYLAYER
  2
leg_top
 10
-655.0
 20
92.5392187254795004
 30
0.0
  0
INSERT
  5
150
100
AcDbEntity
100
AcDbBlockReference
  8
0
 62
256
370
-1
  6
BYLAYER
  2
leg_top
 10
-146.0
 20
262.4999999999999432
 30
0.0
 41
1.0
 42
-1.0
 43
1.0
 50
360.0
  0
INSERT
  5
151
100
AcDbEntity
100
AcDbBlockReference
  8
0
 62
256
370
-1
  6
BYLAYER
  2
leg_side
 10
-393.0
 20
86.0
 30
0.0
  0
LINE
  5
152
100
AcDbEntity
100
AcDbLine
  8
0
 62
256
370
-1
  6
BYLAYER
 10
-260.0
 20
91.0
 30
0.0
 11
-140.0
 21
91.0
 31
0.0
  0
LINE
  5
153
100
AcDbEntity
100
AcDbLine
  8
0
 62
256
370
-1
  6
BYLAYER
 10
-140.0
 20
91.0
 30
0.0
 11
-140.0
 21
95.0
 31
0.0
  0
LINE
  5
154
100
AcDbEntity
100
AcDbLine
  8
0
 62
256
370
-1
  6
BYLAYER
 10
-140.0
 20
95.0
 30
0.0
 11
-260.0
 21
95.0
 31
0.0
  0
LINE
  5
155
100
AcDbEntity
100
AcDbLine
  8
0
 62
256
370
-1
  6
BYLAYER
 10
-260.0
 20
95.0
 30
0.0
 11
-260.0
 21
91.0
 31
0.0
  0
LINE
  5
156
100
AcDbEntity
100
AcDbLine
  8
0
 62
256
370
-1
  6
BYLAYER
 10
-260.0
 20
66.0
 30
0.0
 11
-140.0
 21
66.0
 31
0.0
  0
LINE
  5
157
100
AcDbEntity
100
AcDbLine
  8
0
 62
256
370
-1
  6
BYLAYER
 10
-140.0
 20
66.0
 30
0.0
 11
-140.0
 21
70.0
 31
0.0
  0
LINE
  5
158
100
AcDbEntity
100
AcDbLine
  8
0
 62
256
370
-1
  6
BYLAYER
 10
-140.0
 20
70.0
 30
0.0
 11
-260.0
 21
70.0
 31
0.0
  0
INSERT
  5
159
100
AcDbEntity
100
AcDbBlockReference
  8
0
 62
256
370
-1
  6
BYLAYER
  2
leg_side
 10
-44.9999999999999929
 20
87.0000000000000568
 30
0.0
  0
LINE
  5
15A
100
AcDbEntity
100
AcDbLine
  8
0
 62
256
370
-1
  6
BYLAYER
 10
-146.0
 20
90.0000000000000568
 30
0.0
 11
-146.0
 21
91.0000000000001137
 31
0.0
  0
LINE
  5
15B
100
AcDbEntity
100
AcDbLine
  8
0
 62
256
370
-1
  6
BYLAYER
 10
-144.0
 20
90.0000000000000568
 30
0.0
 11
-144.0
 21
91.0000000000001137
 31
0.0
  0
LINE
  5
15C
100
AcDbEntity
100
AcDbLine
  8
0
 62
256
370
-1
  6
BYLAYER
 10
-146.0
 20
70.9999999999999432
 30
0.0
 11
-146.0
 21
70.0
 31
0.0
  0
LINE
  5
15D
100
AcDbEntity
100
AcDbLine
  8
0
 62
256
370
-1
  6
BYLAYER
 10
-144.0
 20
70.9999999999999432
 30
0.0
 11
-144.0
 21
70.0
 31
0.0
  0
LINE
  5
15E
100
AcDbEntity
100
AcDbLine
  8
0
 62
256
370
-1
  6
DOT
 10
-145.9999999999999716
 20
91.0000000000001421
 30
0.0
 11
-145.9999999999999716
 21
95.0000000000001137
 31
0.0
  0
LINE
  5
15F
100
AcDbEntity
100
AcDbLine
  8
0
 62
256
370
-1
  6
DOT
 10
-144.0
 20
95.0000000000001137
 30
0.0
 11
-144.0
 21
91.0000000000001421
 31
0.0
  0
LINE
  5
160
100
AcDbEntity
100
AcDbLine
  8
0
 62
256
370
-1
  6
DOT
 10
-144.0
 20
70.0
 30
0.0
 11
-144.0
 21
66.0
 31
0.0
  0
LINE
  5
161
100
AcDbEntity
100
AcDbLine
  8
0
 62
256
370
-1
  6
DOT
 10
-145.9999999999999716
 20
70.0
 30
0.0
 11
-145.9999999999999716
 21
66.0
 31
0.0
  0
LINE
  5
162
100
AcDbEntity
100
AcDbLine
  8
0
 62
256
370
-1
  6
BYLAYER
 10
-255.9999999999999716
 20
89.9999999999999858
 30
0.0
 11
-255.9999999999999716
 21
91.0000000000000426
 31
0.0
  0
LINE
  5
163
100
AcDbEntity
100
AcDbLine
  8
0
 62
256
370
-1
  6
BYLAYER
 10
-253.9999999999999716
 20
70.9999999999998721
 30
0.0
 11
-253.9999999999999716
 21
69.9999999999999289
 31
0.0
  0
LINE
  5
164
100
AcDbEntity
100
AcDbLine
  8
0
 62
256
370
-1
  6
BYLAYER
 10
-260.0
 20
66.0
 30
0.0
 11
-260.0
 21
70.0
 31
0.0
  0
LINE
  5
165
100
AcDbEntity
100
AcDbLine
  8
0
 62
256
370
-1
  6
BYLAYER
 10
-255.9999999999999716
 20
70.9999999999998721
 30
0.0
 11
-255.9999999999999716
 21
69.9999999999999289
 31
0.0
  0
LINE
  5
166
100
AcDbEntity
100
AcDbLine
  8
0
 62
256
370
-1
  6
DOT
 10
-254.0
 20
91.0000000000000711
 30
0.0
 11
-254.0
 21
95.0000000000000426
 31
0.0
  0
LINE
  5
167
100
AcDbEntity
100
AcDbLine
  8
0
 62
256
370
-1
  6
DOT
 10
-255.9999999999999716
 20
95.0000000000000426
 30
0.0
 11
-255.9999999999999716
 21
91.0000000000000711
 31
0.0
  0
LINE
  5
168
100
AcDbEntity
100
AcDbLine
  8
0
 62
256
370
-1
  6
DOT
 10
-255.9999999999999716
 20
69.9999999999999289
 30
0.0
 11
-255.9999999999999716
 21
65.9999999999999289
 31
0.0
  0
LINE
  5
169
100
AcDbEntity
100
AcDbLine
  8
0
 62
256
370
-1
  6
DOT
 10
-254.0
 20
69.9999999999999289
 30
0.0
 11
-254.0
 21
65.9999999999999289
 31
0.0
  0
INSERT
  5
16A
100
AcDbEntity
100
AcDbBlockReference
  8
0
 62
256
370
-1
  6
BYLAYER
  2
leg_side
 10
-355.0
 20
86.9999999999999574
 30
0.0
 41
1.0
 42
-1.0
 43
1.0
 50
180.0
  0
LINE
  5
16B
100
AcDbEntity
100
AcDbLine
  8
0
 62
256
370
-1
  6
BYLAYER
 10
-253.9999999999999716
 20
89.9999999999999858
 30
0.0
 11
-253.9999999999999716
 21
91.0000000000000426
 31
0.0
  0
DIMENSION
  5
16C
100
AcDbEntity
  8
0
 62
256
370
-1
  6
BYLAYER
100
AcDbDimension
 10
-500.0
 20
102.9999999999999858
 30
0.0
 11
-488.5
 21
104.8749999999999858
 31
0.0
 70
1
 71
8
 72
2
 41
1.0
 42
0.0
  1

  3
Standard
100
AcDbAlignedDimension
 13
-500.0
 23
89.0
 33
0.0
 14
-477.0
 24
89.0
 34
0.0
1001
ACAD
1000
DSTYLE
1002
{
1070
144
1040
1
1002
}
  0
DIMENSION
  5
16D
100
AcDbEntity
  8
0
 62
256
370
-1
  6
BYLAYER
100
AcDbDimension
 10
-477.0
 20
103.0230105472050894
 30
0.0
 11
-465.5
 21
104.8980105472050894
 31
0.0
 70
1
 71
8
 72
2
 41
1.0
 42
0.0
  1

  3
Standard
100
AcDbAlignedDimension
 13
-477.0
 23
89.0
 33
0.0
 14
-454.0
 24
89.0
 34
0.0
1001
ACAD
1000
DSTYLE
1002
{
1070
144
1040
1
1002
}
  0
DIMENSION
  5
16E
100
AcDbEntity
  8
0
 62
256
370
-1
  6
BYLAYER
100
AcDbDimension
 10
-400.0
 20
64.0
 30
0.0
 11
-411.5
 21
65.875
 31
0.0
 70
1
 71
8
 72
2
 41
1.0
 42
0.0
  1

  3
Standard
100
AcDbAlignedDimension
 13
-400.0
 23
76.0
 33
0.0
 14
-423.0
 24
76.0
 34
0.0
1001
ACAD
1000
DSTYLE
1002
{
1070
144
1040
1
1002
}
  0
DIMENSION
  5
16F
100
AcDbEntity
  8
0
 62
256
370
-1
  6
BYLAYER
100
AcDbDimension
 10
-423.0
 20
63.9899158862351953
 30
0.0
 11
-434.5
 21
65.8649158862351953
 31
0.0
 70
1
 71
8
 72
2
 41
1.0
 42
0.0
  1

  3
Standard
100
AcDbAlignedDimension
 13
-423.0
 23
76.0
 33
0.0
 14
-446.0
 24
76.0
 34
0.0
1001
ACAD
1000
DSTYLE
1002
{
1070
144
1040
1
1002
}
  0
DIMENSION
  5
170
100
AcDbEntity
  8
0
 62
256
370
-1
  6
BYLAYER
100
AcDbDimension
 10
-500.0
 20
116.6182499080156134
 30
0.0
 11
-450.0
 21
118.4932499080156134
 31
0.0
 70
1
 71
8
 72
2
 41
1.0
 42
0.0
  1

  3
Standard
100
AcDbAlignedDimension
 13
-500.0
 23
89.0
 33
0.0
 14
-400.0
 24
89.0
 34
0.0
1001
ACAD
1000
DSTYLE
1002
{
1070
144
1040
1
1002
}
  0
DIMENSION
  5
171
100
AcDbEntity
  8
0
 62
256
370
-1
  6
BYLAYER
100
AcDbDimension
 10
-454.0
 20
64.0
 30
0.0
 11
-450.0
 21
65.875
 31
0.0
 70
1
 71
8
 72
2
 41
1.0
 42
0.0
  1

  3
Standard
100
AcDbAlignedDimension
 13
-454.0
 23
76.0
 33
0.0
 14
-446.0
 24
76.0
 34
0.0
1001
ACAD
1000
DSTYLE
1002
{
1070
144
1040
1
1002
}
  0
INSERT
  5
172
100
AcDbEntity
100
AcDbBlockReference
  8
0
 62
256
370
-1
  6
BYLAYER
  2
leg_top
 10
-145.9999999999999432
 20
342.5000000000002842
 30
0.0
 41
1.0
 42
-1.0
 43
1.0
 50
360.0
  0
INSERT
  5
173
100
AcDbEntity
100
AcDbBlockReference
  8
0
 62
256
370
-1
  6
BYLAYER
  2
leg_top
 10
-146.0
 20
182.5000000000003126
 30
0.0
 41
1.0
 42
-1.0
 43
1.0
 50
360.0
  0
LINE
  5
174
100
AcDbEntity
100
AcDbLine
  8
0
 62
256
370
-1
  6
BYLAYER
 10
-255.0000000000000284
 20
227.5000000000002274
 30
0.0
 11
-145.0000000000000284
 21
227.5000000000001705
 31
0.0
  0
LINE
  5
175
100
AcDbEntity
100
AcDbLine
  8
0
 62
256
370
-1
  6
BYLAYER
 10
-145.0000000000000284
 20
227.5000000000001705
 30
0.0
 11
-145.0
 21
212.5000000000002274
 31
0.0
  0
LINE
  5
176
100
AcDbEntity
100
AcDbLine
  8
0
 62
256
370
-1
  6
BYLAYER
 10
-145.0
 20
212.5000000000002274
 30
0.0
 11
-254.9999999999999716
 21
212.5000000000002274
 31
0.0
  0
LINE
  5
177
100
AcDbEntity
100
AcDbLine
  8
0
 62
256
370
-1
  6
BYLAYER
 10
-254.9999999999999716
 20
212.5000000000002274
 30
0.0
 11
-255.0000000000000284
 21
227.5000000000002274
 31
0.0
  0
LINE
  5
178
100
AcDbEntity
100
AcDbLine
  8
0
 62
256
370
-1
  6
BYLAYER
 10
-144.9999999999999716
 20
307.5000000000001705
 30
0.0
 11
-255.0
 21
307.5000000000002274
 31
0.0
  0
LINE
  5
179
100
AcDbEntity
100
AcDbLine
  8
0
 62
256
370
-1
  6
BYLAYER
 10
-255.0
 20
307.5000000000002274
 30
0.0
 11
-255.0
 21
292.5000000000002274
 31
0.0
  0
LINE
  5
17A
100
AcDbEntity
100
AcDbLine
  8
0
 62
256
370
-1
  6
BYLAYER
 10
-255.0
 20
292.5000000000002274
 30
0.0
 11
-145.0
 21
292.5000000000002274
 31
0.0
  0
LINE
  5
17B
100
AcDbEntity
100
AcDbLine
  8
0
 62
256
370
-1
  6
BYLAYER
 10
-145.0
 20
292.5000000000002274
 30
0.0
 11
-144.9999999999999716
 21
307.5000000000001705
 31
0.0
  0
DIMENSION
  5
17C
100
AcDbEntity
  8
0
 62
256
370
-1
  6
BYLAYER
100
AcDbDimension
 10
-655.0
 20
111.6636836489206104
 30
0.0
 11
-657.5
 21
113.5386836489206104
 31
0.0
 70
1
 71
8
 72
2
 41
1.0
 42
0.0
  1

  3
Standard
100
AcDbAlignedDimension
 13
-655.0
 23
92.5392187254795004
 33
0.0
 14
-660.0
 24
92.5392187254795004
 34
0.0
1001
ACAD
1000
DSTYLE
1002
{
1070
144
1040
1
1002
}
  0
DIMENSION
  5
17D
100
AcDbEntity
  8
0
 62
256
370
-1
  6
BYLAYER
100
AcDbDimension
 10
-405.0
 20
111.9999999999999858
 30
0.0
 11
-402.5
 21
113.8749999999999858
 31
0.0
 70
1
 71
8
 72
2
 41
1.0
 42
0.0
  1

  3
Standard
100
AcDbAlignedDimension
 13
-405.0
 23
82.5
 33
0.0
 14
-400.0
 24
82.5
 34
0.0
1001
ACAD
1000
DSTYLE
1002
{
1070
144
1040
1
1002
}
  0
LINE
  5
17E
100
AcDbEntity
100
AcDbLine
  8
0
 62
256
370
-1
  6
DASHED
 10
-415.0
 20
76.0
 30
0.0
 11
-415.0
 21
89.0
 31
0.0
  0
DIMENSION
  5
17F
100
AcDbEntity
  8
0
 62
256
370
-1
  6
BYLAYER
100
AcDbDimension
 10
-415.0
 20
120.9422310282614461
 30
0.0
 11
-407.5
 21
122.8172310282614461
 31
0.0
 70
1
 71
8
 72
2
 41
1.0
 42
0.0
  1

  3
Standard
100
AcDbAlignedDimension
 13
-415.0
 23
76.0
 33
0.0
 14
-400.0
 24
76.0
 34
0.0
1001
ACAD
1000
DSTYLE
1002
{
1070
144
1040
1
1002
}
  0
LINE
  5
180
100
AcDbEntity
100
AcDbLine
  8
0
 62
256
370
-1
  6
BYLAYER
 10
-230.0
 20
270.0000000000002274
 30
0.0
 11
-230.0
 21
270.0000000000002274
 31
0.0
  0
LINE
  5
181
100
AcDbEntity
100
AcDbLine
  8
0
 62
256
370
-1
  6
BYLAYER
 10
-220.0
 20
260.0
 30
0.0
 11
-220.0
 21
260.0
 31
0.0
  0
LINE
  5
182
100
AcDbEntity
100
AcDbLine
  8
0
 62
256
370
-1
  6
BYLAYER
 10
-230.0000000000000284
 20
250.000000000000199
 30
0.0
 11
-230.0000000000000284
 21
250.000000000000199
 31
0.0
  0
LINE
  5
183
100
AcDbEntity
100
AcDbLine
  8
0
 62
256
370
-1
  6
BYLAYER
 10
-170.0
 20
270.0000000000001705
 30
0.0
 11
-170.0
 21
270.0000000000001705
 31
0.0
  0
LINE
  5
184
100
AcDbEntity
100
AcDbLine
  8
0
 62
256
370
-1
  6
BYLAYER
 10
-170.0
 20
250.000000000000199
 30
0.0
 11
-170.0
 21
250.000000000000199
 31
0.0
  0
LINE
  5
185
100
AcDbEntity
100
AcDbLine
  8
0
 62
256
370
-1
  6
BYLAYER
 10
-180.0
 20
260.0
 30
0.0
 11
-180.0
 21
260.0
 31
0.0
  0
DIMENSION
  5
186
100
AcDbEntity
  8
0
 62
256
370
-1
  6
BYLAYER
100
AcDbDimension
 10
-660.0
 20
79.0392187254795004
 30
0.0
 11
-652.5
 21
80.9142187254795004
 31
0.0
 70
1
 71
8
 72
2
 41
1.0
 42
0.0
  1

  3
Standard
100
AcDbAlignedDimension
 13
-660.0
 23
88.5392187254795004
 33
0.0
 14
-645.0
 24
88.5392187254795004
 34
0.0
1001
ACAD
1000
DSTYLE
1002
{
1070
144
1040
1
1002
}
  0
DIMENSION
  5
187
100
AcDbEntity
  8
0
 62
256
370
-1
  6
BYLAYER
100
AcDbDimension
 10
-660.0
 20
70.0
 30
0.0
 11
-610.0
 21
71.875
 31
0.0
 70
1
 71
8
 72
2
 41
1.0
 42
0.0
  1

  3
Standard
100
AcDbAlignedDimension
 13
-660.0
 23
88.5392187254795004
 33
0.0
 14
-560.0
 24
88.5392187254795004
 34
0.0
1001
ACAD
1000
DSTYLE
1002
{
1070
144
1040
1
1002
}
  0
DIMENSION
  5
188
100
AcDbEntity
  8
0
 62
256
370
-1
  6
BYLAYER
100
AcDbDimension
 10
-583.0
 20
113.0392187254795004
 30
0.0
 11
-571.5
 21
114.9142187254795004
 31
0.0
 70
1
 71
8
 72
2
 41
1.0
 42
0.0
  1

  3
Standard
100
AcDbAlignedDimension
 13
-583.0
 23
101.5392187254795004
 33
0.0
 14
-560.0
 24
101.5392187254795004
 34
0.0
1001
ACAD
1000
DSTYLE
1002
{
1070
144
1040
1
1002
}
  0
INSERT
  5
189
100
AcDbEntity
100
AcDbBlockReference
  8
0
 62
256
370
-1
  6
BYLAYER
  2
leg_top
 10
-253.9999999999999432
 20
342.5000000000002274
 30
0.0
 50
180.0
  0
INSERT
  5
18A
100
AcDbEntity
100
AcDbBlockReference
  8
0
 62
256
370
-1
  6
BYLAYER
  2
leg_top
 10
-253.9999999999999716
 20
262.5000000000001137
 30
0.0
 50
180.0
  0
INSERT
  5
18B
100
AcDbEntity
100
AcDbBlockReference
  8
0
 62
256
370
-1
  6
BYLAYER
  2
leg_top
 10
-254.0
 20
182.5000000000002274
 30
0.0
 50
180.0
  0
MTEXT
  5
18C
100
AcDbEntity
100
AcDbMText
  8
0
 62
256
370
-1
  6
BYLAYER
 10
-552.5242540985403821
 20
199.7782301304947623
 30
0.0
 40
10.0
 41
0.0
 71
1
 72
1
  1
Chassis
  7
textstyle0
 50
0.0
 73
2
 44
1.0
  0
MTEXT
  5
18D
100
AcDbEntity
100
AcDbMText
  8
0
 62
256
370
-1
  6
BYLAYER
 10
-470.0
 20
180.0
 30
0.0
 40
8.0
 41
0.0
 71
1
 72
1
  1
Top
  7
textstyle1
 50
0.0
 73
2
 44
1.0
  0
MTEXT
  5
18E
100
AcDbEntity
100
AcDbMText
  8
0
 62
256
370
-1
  6
BYLAYER
 10
-610.0
 20
180.0
 30
0.0
 40
8.0
 41
0.0
 71
1
 72
1
  1
Bottom
  7
textstyle2
 50
0.0
 73
2
 44
1.0
  0
DIMENSION
  5
18F
100
AcDbEntity
  8
0
 62
256
370
-1
  6
BYLAYER
100
AcDbDimension
 10
-405.9999999999999432
 20
306.9999999999999432
 30
0.0
 11
-403.0
 21
308.875
 31
0.0
 70
1
 71
8
 72
2
 41
1.0
 42
0.0
  1

  3
Standard
100
AcDbAlignedDimension
 13
-405.9999999999999432
 23
299.9999999999999432
 33
0.0
 14
-400.0
 24
300.0
 34
0.0
1001
ACAD
1000
DSTYLE
1002
{
1070
144
1040
1
1002
}
  0
DIMENSION
  5
190
100
AcDbEntity
  8
0
 62
256
370
-1
  6
BYLAYER
100
AcDbDimension
 10
-520.0
 20
410.0
 30
0.0
 11
-460.0
 21
411.875
 31
0.0
 70
1
 71
8
 72
2
 41
1.0
 42
0.0
  1

  3
Standard
100
AcDbAlignedDimension
 13
-520.0
 23
370.0
 33
0.0
 14
-400.0
 24
370.0
 34
0.0
1001
ACAD
1000
DSTYLE
1002
{
1070
144
1040
1
1002
}
  0
DIMENSION
  5
191
100
AcDbEntity
  8
0
 62
256
370
-1
  6
BYLAYER
100
AcDbDimension
 10
-382.9050213253048014
 20
390.0
 30
0.0
 11
-384.7800213253048014
 21
300.0
 31
0.0
 70
1
 71
8
 72
2
 41
1.0
 42
0.0
  1

  3
Standard
100
AcDbAlignedDimension
 13
-420.0
 23
390.0
 33
0.0
 14
-420.0
 24
210.0
 34
0.0
1001
ACAD
1000
DSTYLE
1002
{
1070
144
1040
1
1002
}
  0
DIMENSION
  5
192
100
AcDbEntity
  8
0
 62
256
370
-1
  6
BYLAYER
100
AcDbDimension
 10
-480.0
 20
325.4070788519724147
 30
0.0
 11
-490.0
 21
327.2820788519724147
 31
0.0
 70
1
 71
8
 72
2
 41
1.0
 42
0.0
  1

  3
Standard
100
AcDbAlignedDimension
 13
-480.0
 23
300.0
 33
0.0
 14
-500.0
 24
300.0
 34
0.0
1001
ACAD
1000
DSTYLE
1002
{
1070
144
1040
1
1002
}
  0
DIMENSION
  5
193
100
AcDbEntity
  8
0
 62
256
370
-1
  6
BYLAYER
100
AcDbDimension
 10
-471.0110883102724415
 20
280.0
 30
0.0
 11
-472.8860883102724415
 21
300.0
 31
0.0
 70
1
 71
8
 72
2
 41
1.0
 42
0.0
  1

  3
Standard
100
AcDbAlignedDimension
 13
-500.0
 23
280.0
 33
0.0
 14
-500.0
 24
320.0
 34
0.0
1001
ACAD
1000
DSTYLE
1002
{
1070
144
1040
1
1002
}
  0
DIMENSION
  5
194
100
AcDbEntity
  8
0
 62
256
370
-1
  6
BYLAYER
100
AcDbDimension
 10
-450.0
 20
380.0
 30
0.0
 11
-451.875
 21
300.0
 31
0.0
 70
1
 71
8
 72
2
 41
1.0
 42
0.0
  1

  3
Standard
100
AcDbAlignedDimension
 13
-450.0
 23
380.0
 33
0.0
 14
-450.0
 24
220.0
 34
0.0
1001
ACAD
1000
DSTYLE
1002
{
1070
144
1040
1
1002
}
  0
DIMENSION
  5
195
100
AcDbEntity
  8
0
 62
256
370
-1
  6
BYLAYER
100
AcDbDimension
 10
-500.0
 20
256.3136344435811793
 30
0.0
 11
-460.0
 21
258.1886344435811793
 31
0.0
 70
1
 71
8
 72
2
 41
1.0
 42
0.0
  1

  3
Standard
100
AcDbAlignedDimension
 13
-500.0
 23
250.0
 33
0.0
 14
-420.0
 24
250.0
 34
0.0
1001
ACAD
1000
DSTYLE
1002
{
1070
144
1040
1
1002
}
  0
DIMENSION
  5
196
100
AcDbEntity
  8
0
 62
256
370
-1
  6
BYLAYER
100
AcDbDimension
 10
-583.1983322891495618
 20
380.0
 30
0.0
 11
-585.0733322891495618
 21
300.0
 31
0.0
 70
129
 71
8
 72
2
 41
1.0
 42
0.0
  1

  3
Standard
100
AcDbAlignedDimension
 13
-600.0
 23
380.0
 33
0.0
 14
-600.0
 24
220.0
 34
0.0
1001
ACAD
1000
DSTYLE
1002
{
1070
144
1040
1
1002
}
  0
DIMENSION
  5
197
100
AcDbEntity
  8
0
 62
256
370
-1
  6
BYLAYER
100
AcDbDimension
 10
-640.0
 20
266.4031480751718846
 30
0.0
 11
-600.0
 21
268.2781480751718846
 31
0.0
 70
129
 71
8
 72
2
 41
1.0
 42
0.0
  1

  3
Standard
100
AcDbAlignedDimension
 13
-640.0
 23
300.0
 33
0.0
 14
-560.0
 24
300.0
 34
0.0
1001
ACAD
1000
DSTYLE
1002
{
1070
144
1040
1
1002
}
  0
DIMENSION
  5
198
100
AcDbEntity
  8
0
 62
256
370
-1
  6
BYLAYER
100
AcDbDimension
 10
-260.0
 20
104.3913957790559124
 30
0.0
 11
-200.0
 21
106.2663957790559124
 31
0.0
 70
1
 71
8
 72
2
 41
1.0
 42
0.0
  1

  3
Standard
100
AcDbAlignedDimension
 13
-260.0
 23
95.0
 33
0.0
 14
-140.0
 24
95.0
 34
0.0
1001
ACAD
1000
DSTYLE
1002
{
1070
144
1040
1
1002
}
  0
DIMENSION
  5
199
100
AcDbEntity
  8
0
 62
256
370
-1
  6
BYLAYER
100
AcDbDimension
 10
-239.8840967407893743
 20
89.9999999999995168
 30
0.0
 11
-241.7590967407893743
 21
80.4999999999997442
 31
0.0
 70
1
 71
8
 72
2
 41
1.0
 42
0.0
  1

  3
Standard
100
AcDbAlignedDimension
 13
-248.0
 23
89.9999999999995168
 33
0.0
 14
-248.0
 24
70.9999999999999858
 34
0.0
1001
ACAD
1000
DSTYLE
1002
{
1070
144
1040
1
1002
}
  0
MTEXT
  5
19A
100
AcDbEntity
100
AcDbMText
  8
0
 62
256
370
-1
  6
BYLAYER
 10
-538.4838501358226495
 20
55.8462648341619428
 30
0.0
 40
10.0
 41
0.0
 71
1
 72
1
  1
Leg
  7
textstyle3
 50
0.0
 73
2
 44
1.0
  0
MTEXT
  5
19B
100
AcDbEntity
100
AcDbMText
  8
0
 62
256
370
-1
  6
BYLAYER
 10
-610.0
 20
29.9999999999999858
 30
0.0
 40
8.0
 41
0.0
 71
1
 72
1
  1
Top
  7
textstyle4
 50
0.0
 73
2
 44
1.0
  0
MTEXT
  5
19C
100
AcDbEntity
100
AcDbMText
  8
0
 62
256
370
-1
  6
BYLAYER
 10
-470.0
 20
29.9999999999999858
 30
0.0
 40
8.0
 41
0.0
 71
1
 72
1
  1
Front
  7
textstyle5
 50
0.0
 73
2
 44
1.0
  0
DIMENSION
  5
19D
100
AcDbEntity
  8
0
 62
256
370
-1
  6
BYLAYER
100
AcDbDimension
 10
-323.0
 20
394.119243234491023
 30
0.0
 11
-311.5
 21
395.994243234491023
 31
0.0
 70
1
 71
8
 72
2
 41
1.0
 42
0.0
  1

  3
Standard
100
AcDbAlignedDimension
 13
-323.0
 23
400.0
 33
0.0
 14
-300.0
 24
400.0
 34
0.0
1001
ACAD
1000
DSTYLE
1002
{
1070
144
1040
1
1002
}
  0
DIMENSION
  5
19E
100
AcDbEntity
  8
0
 62
256
370
-1
  6
BYLAYER
100
AcDbDimension
 10
-335.3446009383768001
 20
419.0
 30
0.0
 11
-337.2196009383768001
 21
409.5
 31
0.0
 70
1
 71
8
 72
2
 41
1.0
 42
0.0
  1

  3
Standard
100
AcDbAlignedDimension
 13
-323.0
 23
419.0
 33
0.0
 14
-323.0
 24
400.0
 34
0.0
1001
ACAD
1000
DSTYLE
1002
{
1070
144
1040
1
1002
}
  0
DIMENSION
  5
19F
100
AcDbEntity
  8
0
 62
256
370
-1
  6
BYLAYER
100
AcDbDimension
 10
-244.8549811949747834
 20
412.0
 30
0.0
 11
-246.7299811949747834
 21
406.0
 31
0.0
 70
1
 71
8
 72
2
 41
1.0
 42
0.0
  1

  3
Standard
100
AcDbAlignedDimension
 13
-257.0
 23
412.0
 33
0.0
 14
-257.0
 24
400.0
 34
0.0
1001
ACAD
1000
DSTYLE
1002
{
1070
144
1040
1
1002
}
  0
MTEXT
  5
1A0
100
AcDbEntity
100
AcDbMText
  8
0
 62
256
370
-1
  6
BYLAYER
 10
-317.3016595084458231
 20
387.1613559364386674
 30
0.0
 40
8.0
 41
0.0
 71
1
 72
1
  1
Micro Servos
  7
textstyle6
 50
0.0
 73
2
 44
1.0
  0
MTEXT
  5
1A1
100
AcDbEntity
100
AcDbMText
  8
0
 62
256
370
-1
  6
BYLAYER
 10
-220.0
 20
140.0
 30
0.0
 40
10.0
 41
0.0
 71
1
 72
1
  1
Frame
  7
textstyle7
 50
0.0
 73
2
 44
1.0
  0
MTEXT
  5
1A2
100
AcDbEntity
100
AcDbMText
  8
0
 62
256
370
-1
  6
BYLAYER
 10
-210.0
 20
60.0
 30
0.0
 40
10.0
 41
0.0
 71
1
 72
1
  1
\H7.85714;Front
  7
textstyle8
 50
0.0
 73
2
 44
1.0
  0
MTEXT
  5
1A3
100
AcDbEntity
100
AcDbMText
  8
0
 62
256
370
-1
  6
BYLAYER
 10
-210.0
 20
160.0
 30
0.0
 40
10.0
 41
0.0
 71
1
 72
1
  1
\H7.85714;Top
  7
textstyle9
 50
0.0
 73
2
 44
1.0
  0
INSERT
  5
1A4
100
AcDbEntity
100
AcDbBlockReference
  8
0
 62
256
370
-1
  6
BYLAYER
  2
tibia
 10
-148.7701626123750884
 20
402.4596747752497663
 30
0.0
 50
84.2000000000000028
  0
MTEXT
  5
1A5
100
AcDbEntity
100
AcDbMText
  8
0
 62
256
370
-1
  6
BYLAYER
 10
-158.7701626123750884
 20
382.4596747752497663
 30
0.0
 40
8.0
 41
0.0
 71
1
 72
1
  1
\H6.28571;Tibia
  7
textstyle10
 50
0.0
 73
2
 44
1.0
  0
DIMENSION
  5
1A6
100
AcDbEntity
  8
0
 62
256
370
-1
  6
BYLAYER
100
AcDbDimension
 10
-415.0
 20
219.9999999999999432
 30
0.0
 11
-416.875
 21
214.9999999999999716
 31
0.0
 70
1
 71
8
 72
2
 41
1.0
 42
0.0
  1

  3
Standard
100
AcDbAlignedDimension
 13
-405.9999999999999432
 23
219.9999999999999432
 33
0.0
 14
-405.9999999999999432
 24
210.0
 34
0.0
1001
ACAD
1000
DSTYLE
1002
{
1070
144
1040
1
1002
}
  0
DIMENSION
  5
1A7
100
AcDbEntity
  8
0
 62
256
370
-1
  6
BYLAYER
100
AcDbDimension
 10
-405.9999999999999432
 20
228.9999999999999432
 30
0.0
 11
-403.0
 21
230.8749999999999716
 31
0.0
 70
1
 71
8
 72
2
 41
1.0
 42
0.0
  1

  3
Standard
100
AcDbAlignedDimension
 13
-405.9999999999999432
 23
219.9999999999999432
 33
0.0
 14
-400.0
 24
220.0
 34
0.0
1001
ACAD
1000
DSTYLE
1002
{
1070
144
1040
1
1002
}
  0
DIMENSION
  5
1A8
100
AcDbEntity
  8
0
 62
256
370
-1
  6
BYLAYER
100
AcDbDimension
 10
-422.3207253709074962
 20
249.9999999999999716
 30
0.0
 11
-424.1957253709074394
 21
229.9999999999999716
 31
0.0
 70
1
 71
8
 72
2
 41
1.0
 42
0.0
  1

  3
Standard
100
AcDbAlignedDimension
 13
-406.0
 23
250.0
 33
0.0
 14
-405.9999999999999432
 24
210.0
 34
0.0
1001
ACAD
1000
DSTYLE
1002
{
1070
144
1040
1
1002
}
  0
DIMENSION
  5
1A9
100
AcDbEntity
  8
0
 62
256
370
-1
  6
BYLAYER
100
AcDbDimension
 10
-406.0
 20
255.5086647107744966
 30
0.0
 11
-403.0
 21
257.3836647107744966
 31
0.0
 70
1
 71
8
 72
2
 41
1.0
 42
0.0
  1

  3
Standard
100
AcDbAlignedDimension
 13
-406.0
 23
250.0
 33
0.0
 14
-400.0
 24
250.0
 34
0.0
1001
ACAD
1000
DSTYLE
1002
{
1070
144
1040
1
1002
}
  0
DIMENSION
  5
1AA
100
AcDbEntity
  8
0
 62
256
370
-1
  6
BYLAYER
100
AcDbDimension
 10
-430.0
 20
270.0
 30
0.0
 11
-431.875
 21
240.0
 31
0.0
 70
1
 71
8
 72
2
 41
1.0
 42
0.0
  1

  3
Standard
100
AcDbAlignedDimension
 13
-406.0
 23
270.0
 33
0.0
 14
-406.0
 24
210.0
 34
0.0
1001
ACAD
1000
DSTYLE
1002
{
1070
144
1040
1
1002
}
  0
DIMENSION
  5
1AB
100
AcDbEntity
  8
0
 62
256
370
-1
  6
BYLAYER
100
AcDbDimension
 10
-414.3740514038279343
 20
350.0
 30
0.0
 11
-416.2490514038279343
 21
370.0
 31
0.0
 70
1
 71
8
 72
2
 41
1.0
 42
0.0
  1

  3
Standard
100
AcDbAlignedDimension
 13
-406.0
 23
350.0
 33
0.0
 14
-406.0
 24
390.0
 34
0.0
1001
ACAD
1000
DSTYLE
1002
{
1070
144
1040
1
1002
}
  0
INSERT
  5
1AC
100
AcDbEntity
100
AcDbBlockReference
  8
0
 62
256
370
-1
  6
BYLAYER
  2
chassis_bottom
 10
-600.0
 20
300.0
 30
0.0
  0
INSERT
  5
1AD
100
AcDbEntity
100
AcDbBlockReference
  8
0
 62
256
370
-1
  6
BYLAYER
  2
chassis_top
 10
-460.0
 20
300.0
 30
0.0
  0
INSERT
  5
1AE
100
AcDbEntity
100
AcDbBlockReference
  8
0
 62
256
370
-1
  6
BYLAYER
  2
chassis_top
 10
-200.0
 20
260.0
 30
0.0
  0
INSERT
  5
1AF
100
AcDbEntity
100
AcDbBlockReference
  8
0
 62
256
370
-1
  6
BYLAYER
  2
chassis_bottom
 10
-200.0
 20
260.0
 30
0.0
  0
INSERT
  5
1B0
100
AcDbEntity
100
AcDbBlockReference
  8
0
 62
256
370
-1
  6
BYLAYER
  2
pcb
 10
-200.0
 20
260.0
 30
0.0
  0
DIMENSION
  5
1B1
100
AcDbEntity
  8
0
 62
256
370
-1
  6
BYLAYER
100
AcDbDimension
 10
-195.5275547261576889
 20
416.2925599383995063
 30
0.0
 11
-145.3422263451505501
 21
417.2098996892266314
 31
0.0
 70
1
 71
8
 72
2
 41
1.0
 42
0.0
  1
100
  3
Standard
100
AcDbAlignedDimension
 13
-195.8608878611566695
 23
398.8307638565700586
 33
0.0
 14
-95.5618028642884951
 24
396.9161264227766992
 34
0.0
1001
ACAD
1000
DSTYLE
1002
{
1070
144
1040
1
1002
}
  0
DIMENSION
  5
1B2
100
AcDbEntity
  8
0
 62
256
370
-1
  6
BYLAYER
100
AcDbDimension
 10
-140.3950150052811523
 20
402.455363279041876
 30
0.0
 11
-142.2719781258001319
 21
398.6424541396451104
 31
0.0
 70
1
 71
8
 72
2
 41
1.0
 42
0.0
  1
7.6
  3
Standard
100
AcDbAlignedDimension
 13
-148.7701626123750884
 23
402.4596747752497663
 33
0.0
 14
-148.774089350316757
 24
394.8319260100462316
 34
0.0
1001
ACAD
1000
DSTYLE
1002
{
1070
144
1040
1
1002
}
  0
DIMENSION
  5
1B3
100
AcDbEntity
  8
0
 62
256
370
-1
  6
BYLAYER
100
AcDbDimension
 10
-186.4827481899761779
 20
398.7927530077913616
 30
0.0
 11
-188.3587624543954746
 21
396.8230114161347615
 31
0.0
 70
1
 71
8
 72
2
 41
1.0
 42
0.0
  1
4
  3
Standard
100
AcDbAlignedDimension
 13
-191.8610431150621594
 23
398.7955217348946917
 33
0.0
 14
-191.8630721408044906
 24
394.8541080651715447
 34
0.0
1001
ACAD
1000
DSTYLE
1002
{
1070
144
1040
1
1002
}
  0
DIMENSION
  5
1B4
100
AcDbEntity
  8
0
 62
256
370
-1
  6
BYLAYER
100
AcDbDimension
 10
-148.6085102511193838
 20
410.927901519047964
 30
0.0
 11
-121.925343640934031
 21
412.2938806438324377
 31
0.0
 70
1
 71
8
 72
2
 41
1.0
 42
0.0
  1
53
  3
Standard
100
AcDbAlignedDimension
 13
-148.7701626123750884
 23
402.4596747752497663
 33
0.0
 14
-95.4754011571504861
 24
401.4423160893710474
 34
0.0
1001
ACAD
1000
DSTYLE
1002
{
1070
144
1040
1
1002
}
  0
INSERT
  5
1B5
100
AcDbEntity
100
AcDbBlockReference
  8
0
 62
256
370
-1
  6
BYLAYER
  2
tibia
 10
146.9259821762094305
 20
310.9906802680828264
 30
0.0
 50
84.2000000000000028
  0
INSERT
  5
1B6
100
AcDbEntity
100
AcDbBlockReference
  8
0
 62
256
370
-1
  6
BYLAYER
  2
tibia
 10
146.7582953100440477
 20
326.1419308378877417
 30
0.0
 50
84.2000000000000028
  0
INSERT
  5
1B7
100
AcDbEntity
100
AcDbBlockReference
  8
0
 62
256
370
-1
  6
BYLAYER
  2
tibia
 10
146.9259821762094305
 20
340.9906802680828264
 30
0.0
 50
84.2000000000000028
  0
INSERT
  5
1B8
100
AcDbEntity
100
AcDbBlockReference
  8
0
 62
256
370
-1
  6
BYLAYER
  2
tibia
 10
146.9259821762094305
 20
360.9906802680828264
 30
0.0
 50
84.2000000000000028
  0
INSERT
  5
1B9
100
AcDbEntity
100
AcDbBlockReference
  8
0
 62
256
370
-1
  6
BYLAYER
  2
tibia
 10
146.9259821762094305
 20
380.9906802680828264
 30
0.0
 50
84.2000000000000028
  0
INSERT
  5
1BA
100
AcDbEntity
100
AcDbBlockReference
  8
0
 62
256
370
-1
  6
BYLAYER
  2
tibia
 10
146.9259821762094305
 20
400.9906802680828264
 30
0.0
 50
84.2000000000000028
  0
ENDSEC
  0
SECTION
  2
OBJECTS
  0
DICTIONARY
  5
C
100
AcDbDictionary
280
0
281
1
  3
ACAD_GROUP
350
D
  3
ACAD_LAYOUT
350
1A
  3
ACAD_MLINESTYLE
350
17
  3
ACAD_PLOTSETTINGS
350
19
  3
ACAD_PLOTSTYLENAME
350
E
  3
AcDbVariableDictionary
350
1BB
  3
QCAD_OBJECTS
350
1BC
  0
DICTIONARY
  5
D
100
AcDbDictionary
280
0
281
1
  0
ACDBDICTIONARYWDFLT
  5
E
100
AcDbDictionary
281
1
  3
Normal
350
F
100
AcDbDictionaryWithDefault
340
F
  0
ACDBPLACEHOLDER
  5
F
  0
DICTIONARY
  5
17
100
AcDbDictionary
280
0
281
1
  3
Standard
350
18
  0
MLINESTYLE
  5
18
100
AcDbMlineStyle
  2
STANDARD
 70
0
  3

 62
256
 51
90.0
 52
90.0
 71
2
 49
0.5
 62
256
  6
BYLAYER
 49
-0.5
 62
256
  6
BYLAYER
  0
DICTIONARY
  5
19
100
AcDbDictionary
280
0
281
1
  0
DICTIONARY
  5
1A
100
AcDbDictionary
281
1
  3
Layout1
350
1E
  3
Layout2
350
26
  3
Model
350
22
  0
LAYOUT
  5
1E
100
AcDbPlotSettings
  1

  2
none_device
  4

  6

 40
0.0
 41
0.0
 42
0.0
 43
0.0
 44
0.0
 45
0.0
 46
0.0
 47
0.0
 48
0.0
 49
0.0
140
0.0
141
0.0
142
1.0
143
1.0
 70
688
 72
0
 73
0
 74
5
  7

 75
16
147
1.0
148
0.0
149
0.0
100
AcDbLayout
  1
Layout1
 70
1
 71
1
 10
0.0
 20
0.0
 11
420.0
 21
297.0
 12
0.0
 22
0.0
 32
0.0
 14
100000000000000000000.0
 24
100000000000000000000.0
 34
100000000000000000000.0
 15
-100000000000000000000.0
 25
-100000000000000000000.0
 35
-100000000000000000000.0
146
0.0
 13
0.0
 23
0.0
 33
0.0
 16
1.0
 26
0.0
 36
0.0
 17
0.0
 27
1.0
 37
0.0
 76
0
330
1B
  0
LAYOUT
  5
22
100
AcDbPlotSettings
  1

  2
none_device
  4

  6

 40
0.0
 41
0.0
 42
0.0
 43
0.0
 44
0.0
 45
0.0
 46
0.0
 47
0.0
 48
0.0
 49
0.0
140
0.0
141
0.0
142
1.0
143
1.0
 70
1712
 72
0
 73
0
 74
0
  7

 75
0
147
1.0
148
0.0
149
0.0
100
AcDbLayout
  1
Model
 70
1
 71
0
 10
0.0
 20
0.0
 11
12.0
 21
9.0
 12
0.0
 22
0.0
 32
0.0
 14
0.0
 24
0.0
 34
0.0
 15
0.0
 25
0.0
 35
0.0
146
0.0
 13
0.0
 23
0.0
 33
0.0
 16
1.0
 26
0.0
 36
0.0
 17
0.0
 27
1.0
 37
0.0
 76
0
330
1F
  0
LAYOUT
  5
26
100
AcDbPlotSettings
  1

  2
none_device
  4

  6

 40
0.0
 41
0.0
 42
0.0
 43
0.0
 44
0.0
 45
0.0
 46
0.0
 47
0.0
 48
0.0
 49
0.0
140
0.0
141
0.0
142
1.0
143
1.0
 70
688
 72
0
 73
0
 74
5
  7

 75
16
147
1.0
148
0.0
149
0.0
100
AcDbLayout
  1
Layout2
 70
1
 71
2
 10
0.0
 20
0.0
 11
12.0
 21
9.0
 12
0.0
 22
0.0
 32
0.0
 14
0.0
 24
0.0
 34
0.0
 15
0.0
 25
0.0
 35
0.0
146
0.0
 13
0.0
 23
0.0
 33
0.0
 16
1.0
 26
0.0
 36
0.0
 17
0.0
 27
1.0
 37
0.0
 76
0
330
23
  0
DICTIONARY
  5
1BB
100
AcDbDictionary
281
1
  3
DIMASSOC
350
1BE
  3
HIDETEXT
350
1BD
  0
DICTIONARYVAR
  5
1BD
100
DictionaryVariables
280
0
  1
2
  0
DICTIONARYVAR
  5
1BE
100
DictionaryVariables
280
0
  1
1
  0
DICTIONARY
  5
1BC
100
AcDbDictionary
281
1
  3
Grid/DisplayGrid00
350
1BF
  3
Grid/DisplayGrid01
350
1C0
  3
Grid/DisplayGrid02
350
1C1
  3
Grid/DisplayGrid03
350
1C2
  3
Grid/GridSpacingX00
350
1C3
  3
Grid/GridSpacingX01
350
1C4
  3
Grid/GridSpacingX02
350
1C5
  3
Grid/GridSpacingX03
350
1C6
  3
Grid/GridSpacingY00
350
1C7
  3
Grid/GridSpacingY01
350
1C8
  3
Grid/GridSpacingY02
350
1C9
  3
Grid/GridSpacingY03
350
1CA
  3
Grid/IsometricGrid00
350
1CB
  3
Grid/IsometricGrid01
350
1CC
  3
Grid/IsometricGrid02
350
1CD
  3
Grid/IsometricGrid03
350
1CE
  3
Grid/IsometricProjection00
350
1CF
  3
Grid/IsometricProjection01
350
1D0
  3
Grid/IsometricProjection02
350
1D1
  3
Grid/IsometricProjection03
350
1D2
  3
Grid/MetaGridSpacingX00
350
1D3
  3
Grid/MetaGridSpacingX01
350
1D4
  3
Grid/MetaGridSpacingX02
350
1D5
  3
Grid/MetaGridSpacingX03
350
1D6
  3
Grid/MetaGridSpacingY00
350
1D7
  3
Grid/MetaGridSpacingY01
350
1D8
  3
Grid/MetaGridSpacingY02
350
1D9
  3
Grid/MetaGridSpacingY03
350
1DA
  3
MultiPageSettings/Columns
350
1DB
  3
MultiPageSettings/GlueMarginsBottom
350
1DC
  3
MultiPageSettings/GlueMarginsLeft
350
1DD
  3
MultiPageSettings/GlueMarginsRight
350
1DE
  3
MultiPageSettings/GlueMarginsTop
350
1DF
  3
MultiPageSettings/PrintCropMarks
350
1E0
  3
MultiPageSettings/Rows
350
1E1
  3
PageSettings/OffsetX
350
1E2
  3
PageSettings/OffsetY
350
1E3
  3
PageSettings/PageOrientation
350
1E4
  3
PageSettings/PaperHeight
350
1E5
  3
PageSettings/PaperWidth
350
1E6
  3
PageSettings/Scale
350
1E7
  3
PageSettings/ShowPaperBorders
350
1E8
  3
UnitSettings/PaperUnit
350
1E9
  0
XRECORD
  5
1BF
330
1BC
100
AcDbXrecord
280
1
290
1
  0
XRECORD
  5
1C0
330
1BC
100
AcDbXrecord
280
1
290
1
  0
XRECORD
  5
1C1
330
1BC
100
AcDbXrecord
280
1
290
1
  0
XRECORD
  5
1C2
330
1BC
100
AcDbXrecord
280
1
290
1
  0
XRECORD
  5
1C3
330
1BC
100
AcDbXrecord
280
1
1000
auto
  0
XRECORD
  5
1C4
330
1BC
100
AcDbXrecord
280
1
1000
auto
  0
XRECORD
  5
1C5
330
1BC
100
AcDbXrecord
280
1
1000
auto
  0
XRECORD
  5
1C6
330
1BC
100
AcDbXrecord
280
1
1000
auto
  0
XRECORD
  5
1C7
330
1BC
100
AcDbXrecord
280
1
1000
auto
  0
XRECORD
  5
1C8
330
1BC
100
AcDbXrecord
280
1
1000
auto
  0
XRECORD
  5
1C9
330
1BC
100
AcDbXrecord
280
1
1000
auto
  0
XRECORD
  5
1CA
330
1BC
100
AcDbXrecord
280
1
1000
auto
  0
XRECORD
  5
1CB
330
1BC
100
AcDbXrecord
280
1
290
0
  0
XRECORD
  5
1CC
330
1BC
100
AcDbXrecord
280
1
290
0
  0
XRECORD
  5
1CD
330
1BC
100
AcDbXrecord
280
1
290
0
  0
XRECORD
  5
1CE
330
1BC
100
AcDbXrecord
280
1
290
0
  0
XRECORD
  5
1CF
330
1BC
100
AcDbXrecord
280
1
 90
0
  0
XRECORD
  5
1D0
330
1BC
100
AcDbXrecord
280
1
 90
0
  0
XRECORD
  5
1D1
330
1BC
100
AcDbXrecord
280
1
 90
0
  0
XRECORD
  5
1D2
330
1BC
100
AcDbXrecord
280
1
 90
0
  0
XRECORD
  5
1D3
330
1BC
100
AcDbXrecord
280
1
1000
auto
  0
XRECORD
  5
1D4
330
1BC
100
AcDbXrecord
280
1
1000
auto
  0
XRECORD
  5
1D5
330
1BC
100
AcDbXrecord
280
1
1000
auto
  0
XRECORD
  5
1D6
330
1BC
100
AcDbXrecord
280
1
1000
auto
  0
XRECORD
  5
1D7
330
1BC
100
AcDbXrecord
280
1
1000
auto
  0
XRECORD
  5
1D8
330
1BC
100
AcDbXrecord
280
1
1000
auto
  0
XRECORD
  5
1D9
330
1BC
100
AcDbXrecord
280
1
1000
auto
  0
XRECORD
  5
1DA
330
1BC
100
AcDbXrecord
280
1
1000
auto
  0
XRECORD
  5
1DB
330
1BC
100
AcDbXrecord
280
1
 90
1
  0
XRECORD
  5
1DC
330
1BC
100
AcDbXrecord
280
1
 40
10.0
  0
XRECORD
  5
1DD
330
1BC
100
AcDbXrecord
280
1
 40
10.0
  0
XRECORD
  5
1DE
330
1BC
100
AcDbXrecord
280
1
 40
10.0
  0
XRECORD
  5
1DF
330
1BC
100
AcDbXrecord
280
1
 40
10.0
  0
XRECORD
  5
1E0
330
1BC
100
AcDbXrecord
280
1
290
0
  0
XRECORD
  5
1E1
330
1BC
100
AcDbXrecord
280
1
 90
1
  0
XRECORD
  5
1E2
330
1BC
100
AcDbXrecord
280
1
 40
30.0330771179424545
  0
XRECORD
  5
1E3
330
1BC
100
AcDbXrecord
280
1
 40
203.0585414971224623
  0
XRECORD
  5
1E4
330
1BC
100
AcDbXrecord
280
1
1000
Portrait
  0
XRECORD
  5
1E5
330
1BC
100
AcDbXrecord
280
1
 40
279.3999999999999773
  0
XRECORD
  5
1E6
330
1BC
100
AcDbXrecord
280
1
 40
215.9000000000000057
  0
XRECORD
  5
1E7
330
1BC
100
AcDbXrecord
280
1
1000
1:1
  0
XRECORD
  5
1E8
330
1BC
100
AcDbXrecord
280
1
290
1
  0
XRECORD
  5
1E9
330
1BC
100
AcDbXrecord
280
1
 90
4
  0
ENDSEC
  0
EOF
