G04 #@! TF.FileFunction,Legend,Top*
%FSLAX46Y46*%
G04 Gerber Fmt 4.6, Leading zero omitted, Abs format (unit mm)*
G04 Created by KiCad (PCBNEW (2015-07-22 BZR 5980)-product) date Sun 06 Sep 2015 09:14:58 AM MDT*
%MOMM*%
G01*
G04 APERTURE LIST*
%ADD10C,0.100000*%
%ADD11C,0.250000*%
%ADD12C,0.200000*%
%ADD13C,0.150000*%
%ADD14C,0.738000*%
%ADD15C,0.152400*%
%ADD16C,0.300000*%
%ADD17C,0.114300*%
%ADD18C,0.190500*%
G04 APERTURE END LIST*
D10*
D11*
X66154762Y-150532381D02*
X66821429Y-151532381D01*
X66821429Y-150532381D02*
X66154762Y-151532381D01*
X67535715Y-151008571D02*
X67678572Y-151056190D01*
X67726191Y-151103810D01*
X67773810Y-151199048D01*
X67773810Y-151341905D01*
X67726191Y-151437143D01*
X67678572Y-151484762D01*
X67583334Y-151532381D01*
X67202381Y-151532381D01*
X67202381Y-150532381D01*
X67535715Y-150532381D01*
X67630953Y-150580000D01*
X67678572Y-150627619D01*
X67726191Y-150722857D01*
X67726191Y-150818095D01*
X67678572Y-150913333D01*
X67630953Y-150960952D01*
X67535715Y-151008571D01*
X67202381Y-151008571D01*
X68583334Y-151484762D02*
X68488096Y-151532381D01*
X68297619Y-151532381D01*
X68202381Y-151484762D01*
X68154762Y-151389524D01*
X68154762Y-151008571D01*
X68202381Y-150913333D01*
X68297619Y-150865714D01*
X68488096Y-150865714D01*
X68583334Y-150913333D01*
X68630953Y-151008571D01*
X68630953Y-151103810D01*
X68154762Y-151199048D01*
X69440477Y-151484762D02*
X69345239Y-151532381D01*
X69154762Y-151532381D01*
X69059524Y-151484762D01*
X69011905Y-151389524D01*
X69011905Y-151008571D01*
X69059524Y-150913333D01*
X69154762Y-150865714D01*
X69345239Y-150865714D01*
X69440477Y-150913333D01*
X69488096Y-151008571D01*
X69488096Y-151103810D01*
X69011905Y-151199048D01*
X71392858Y-150484762D02*
X70535715Y-151770476D01*
X67392858Y-152658571D02*
X67059524Y-152658571D01*
X67059524Y-153182381D02*
X67059524Y-152182381D01*
X67535715Y-152182381D01*
X67773810Y-152182381D02*
X68345239Y-152182381D01*
X68059524Y-153182381D02*
X68059524Y-152182381D01*
X68678572Y-153182381D02*
X68678572Y-152182381D01*
X68916667Y-152182381D01*
X69059525Y-152230000D01*
X69154763Y-152325238D01*
X69202382Y-152420476D01*
X69250001Y-152610952D01*
X69250001Y-152753810D01*
X69202382Y-152944286D01*
X69154763Y-153039524D01*
X69059525Y-153134762D01*
X68916667Y-153182381D01*
X68678572Y-153182381D01*
X69678572Y-153182381D02*
X69678572Y-152182381D01*
X66107142Y-154546667D02*
X66583333Y-154546667D01*
X66011904Y-154832381D02*
X66345237Y-153832381D01*
X66678571Y-154832381D01*
X67440476Y-154832381D02*
X67440476Y-153832381D01*
X67440476Y-154784762D02*
X67345238Y-154832381D01*
X67154761Y-154832381D01*
X67059523Y-154784762D01*
X67011904Y-154737143D01*
X66964285Y-154641905D01*
X66964285Y-154356190D01*
X67011904Y-154260952D01*
X67059523Y-154213333D01*
X67154761Y-154165714D01*
X67345238Y-154165714D01*
X67440476Y-154213333D01*
X68345238Y-154832381D02*
X68345238Y-154308571D01*
X68297619Y-154213333D01*
X68202381Y-154165714D01*
X68011904Y-154165714D01*
X67916666Y-154213333D01*
X68345238Y-154784762D02*
X68250000Y-154832381D01*
X68011904Y-154832381D01*
X67916666Y-154784762D01*
X67869047Y-154689524D01*
X67869047Y-154594286D01*
X67916666Y-154499048D01*
X68011904Y-154451429D01*
X68250000Y-154451429D01*
X68345238Y-154403810D01*
X68821428Y-154165714D02*
X68821428Y-155165714D01*
X68821428Y-154213333D02*
X68916666Y-154165714D01*
X69107143Y-154165714D01*
X69202381Y-154213333D01*
X69250000Y-154260952D01*
X69297619Y-154356190D01*
X69297619Y-154641905D01*
X69250000Y-154737143D01*
X69202381Y-154784762D01*
X69107143Y-154832381D01*
X68916666Y-154832381D01*
X68821428Y-154784762D01*
X69583333Y-154165714D02*
X69964285Y-154165714D01*
X69726190Y-153832381D02*
X69726190Y-154689524D01*
X69773809Y-154784762D01*
X69869047Y-154832381D01*
X69964285Y-154832381D01*
X70440476Y-154832381D02*
X70345238Y-154784762D01*
X70297619Y-154737143D01*
X70250000Y-154641905D01*
X70250000Y-154356190D01*
X70297619Y-154260952D01*
X70345238Y-154213333D01*
X70440476Y-154165714D01*
X70583334Y-154165714D01*
X70678572Y-154213333D01*
X70726191Y-154260952D01*
X70773810Y-154356190D01*
X70773810Y-154641905D01*
X70726191Y-154737143D01*
X70678572Y-154784762D01*
X70583334Y-154832381D01*
X70440476Y-154832381D01*
X71202381Y-154832381D02*
X71202381Y-154165714D01*
X71202381Y-154356190D02*
X71250000Y-154260952D01*
X71297619Y-154213333D01*
X71392857Y-154165714D01*
X71488096Y-154165714D01*
D12*
X66894559Y-118371294D02*
X87214559Y-118371294D01*
X66894559Y-118371294D02*
X66894559Y-133865294D01*
X87214559Y-133865294D02*
X87214559Y-118371294D01*
X66640559Y-133865294D02*
X87214559Y-133865294D01*
D13*
X68533500Y-150062500D02*
X68533500Y-148062500D01*
X68533500Y-148062500D02*
X86533500Y-148062500D01*
X86533500Y-148062500D02*
X86533500Y-150062500D01*
X86533500Y-150062500D02*
X68533500Y-150062500D01*
X65983500Y-147512500D02*
X67533500Y-147512500D01*
X67533500Y-150612500D02*
X65983500Y-150612500D01*
X65983500Y-150612500D02*
X65983500Y-147512500D01*
X74768559Y-113291294D02*
X77308559Y-113291294D01*
X71948559Y-113011294D02*
X73498559Y-113011294D01*
X74768559Y-113291294D02*
X74768559Y-115831294D01*
X73498559Y-116111294D02*
X71948559Y-116111294D01*
X71948559Y-116111294D02*
X71948559Y-113011294D01*
X74768559Y-115831294D02*
X77308559Y-115831294D01*
X77308559Y-115831294D02*
X77308559Y-113291294D01*
D14*
X65951134Y-124213294D02*
G75*
G03X65951134Y-124213294I-647575J0D01*
G01*
D15*
X90770559Y-131706294D02*
X91786559Y-131706294D01*
X91786559Y-131706294D02*
X91786559Y-129420294D01*
X91786559Y-129420294D02*
X90770559Y-129420294D01*
X90770559Y-129420294D02*
X90770559Y-131706294D01*
X87595559Y-135770294D02*
X87595559Y-136786294D01*
X87595559Y-136786294D02*
X89881559Y-136786294D01*
X89881559Y-136786294D02*
X89881559Y-135770294D01*
X89881559Y-135770294D02*
X87595559Y-135770294D01*
D13*
X90658799Y-135037454D02*
X90658799Y-134989194D01*
X89957759Y-132238474D02*
X90658799Y-132238474D01*
X90658799Y-132238474D02*
X90658799Y-132487394D01*
X90658799Y-135037454D02*
X90658799Y-135238114D01*
X90658799Y-135238114D02*
X89957759Y-135238114D01*
D15*
X107349184Y-124519768D02*
X106333184Y-124519768D01*
X106333184Y-124519768D02*
X106333184Y-126805768D01*
X106333184Y-126805768D02*
X107349184Y-126805768D01*
X107349184Y-126805768D02*
X107349184Y-124519768D01*
D13*
X97841184Y-135912768D02*
X97841184Y-128412768D01*
X97841184Y-128412768D02*
X101841184Y-128412768D01*
X101841184Y-128412768D02*
X101841184Y-135912768D01*
X101841184Y-135912768D02*
X97841184Y-135912768D01*
X103341184Y-135912768D02*
X103341184Y-128412768D01*
X103341184Y-128412768D02*
X107341184Y-128412768D01*
X107341184Y-128412768D02*
X107341184Y-135912768D01*
X107341184Y-135912768D02*
X103341184Y-135912768D01*
X72228559Y-135008294D02*
X84928559Y-135008294D01*
X84928559Y-135008294D02*
X84928559Y-137548294D01*
X84928559Y-137548294D02*
X72228559Y-137548294D01*
X69408559Y-134728294D02*
X70958559Y-134728294D01*
X72228559Y-135008294D02*
X72228559Y-137548294D01*
X70958559Y-137828294D02*
X69408559Y-137828294D01*
X69408559Y-137828294D02*
X69408559Y-134728294D01*
X69688559Y-133738294D02*
X77308559Y-133738294D01*
X69688559Y-131198294D02*
X77308559Y-131198294D01*
X66868559Y-130918294D02*
X68418559Y-130918294D01*
X77308559Y-133738294D02*
X77308559Y-131198294D01*
X69688559Y-131198294D02*
X69688559Y-133738294D01*
X68418559Y-134018294D02*
X66868559Y-134018294D01*
X66868559Y-134018294D02*
X66868559Y-130918294D01*
X72133559Y-117768294D02*
X72133559Y-118443294D01*
X82483559Y-117768294D02*
X82483559Y-118443294D01*
X82483559Y-128118294D02*
X82483559Y-127443294D01*
X72133559Y-128118294D02*
X72133559Y-127443294D01*
X72133559Y-117768294D02*
X72808559Y-117768294D01*
X72133559Y-128118294D02*
X72808559Y-128118294D01*
X82483559Y-128118294D02*
X81808559Y-128118294D01*
X82483559Y-117768294D02*
X81808559Y-117768294D01*
X72133559Y-118443294D02*
X70858559Y-118443294D01*
D15*
X91786559Y-123578294D02*
X90770559Y-123578294D01*
X90770559Y-123578294D02*
X90770559Y-125864294D01*
X90770559Y-125864294D02*
X91786559Y-125864294D01*
X91786559Y-125864294D02*
X91786559Y-123578294D01*
X87595559Y-129039294D02*
X87595559Y-130055294D01*
X87595559Y-130055294D02*
X89881559Y-130055294D01*
X89881559Y-130055294D02*
X89881559Y-129039294D01*
X89881559Y-129039294D02*
X87595559Y-129039294D01*
X71466559Y-115831294D02*
X71466559Y-114815294D01*
X71466559Y-114815294D02*
X69180559Y-114815294D01*
X69180559Y-114815294D02*
X69180559Y-115831294D01*
X69180559Y-115831294D02*
X71466559Y-115831294D01*
X67275559Y-119260294D02*
X67275559Y-120276294D01*
X67275559Y-120276294D02*
X69561559Y-120276294D01*
X69561559Y-120276294D02*
X69561559Y-119260294D01*
X69561559Y-119260294D02*
X67275559Y-119260294D01*
X67275559Y-129420294D02*
X67275559Y-130436294D01*
X67275559Y-130436294D02*
X69561559Y-130436294D01*
X69561559Y-130436294D02*
X69561559Y-129420294D01*
X69561559Y-129420294D02*
X67275559Y-129420294D01*
X83531559Y-115450294D02*
X82515559Y-115450294D01*
X82515559Y-115450294D02*
X82515559Y-117736294D01*
X82515559Y-117736294D02*
X83531559Y-117736294D01*
X83531559Y-117736294D02*
X83531559Y-115450294D01*
X83150559Y-128150294D02*
X83150559Y-129166294D01*
X83150559Y-129166294D02*
X85436559Y-129166294D01*
X85436559Y-129166294D02*
X85436559Y-128150294D01*
X85436559Y-128150294D02*
X83150559Y-128150294D01*
X69180559Y-116720294D02*
X69180559Y-117736294D01*
X69180559Y-117736294D02*
X71466559Y-117736294D01*
X71466559Y-117736294D02*
X71466559Y-116720294D01*
X71466559Y-116720294D02*
X69180559Y-116720294D01*
D16*
X61438559Y-117728294D02*
X61438559Y-116728294D01*
D13*
X61538559Y-117828294D02*
X61338559Y-117828294D01*
X61338559Y-117828294D02*
X61338559Y-116628294D01*
X61338559Y-116628294D02*
X61538559Y-116628294D01*
X65138559Y-117828294D02*
X61538559Y-117828294D01*
X61538559Y-116628294D02*
X65138559Y-116628294D01*
X65138559Y-116628294D02*
X65138559Y-117828294D01*
X63084559Y-117609294D02*
X63084559Y-116847294D01*
X63592559Y-117609294D02*
X63592559Y-116847294D01*
X63592559Y-116847294D02*
X63084559Y-117228294D01*
X63084559Y-117228294D02*
X63592559Y-117609294D01*
D16*
X86888559Y-111293294D02*
X87888559Y-111293294D01*
D13*
X86788559Y-111393294D02*
X86788559Y-111193294D01*
X86788559Y-111193294D02*
X87988559Y-111193294D01*
X87988559Y-111193294D02*
X87988559Y-111393294D01*
X86788559Y-114993294D02*
X86788559Y-111393294D01*
X87988559Y-111393294D02*
X87988559Y-114993294D01*
X87988559Y-114993294D02*
X86788559Y-114993294D01*
X87007559Y-112939294D02*
X87769559Y-112939294D01*
X87007559Y-113447294D02*
X87769559Y-113447294D01*
X87769559Y-113447294D02*
X87388559Y-112939294D01*
X87388559Y-112939294D02*
X87007559Y-113447294D01*
D16*
X90638559Y-137683294D02*
X90638559Y-138683294D01*
D13*
X90538559Y-137583294D02*
X90738559Y-137583294D01*
X90738559Y-137583294D02*
X90738559Y-138783294D01*
X90738559Y-138783294D02*
X90538559Y-138783294D01*
X86938559Y-137583294D02*
X90538559Y-137583294D01*
X90538559Y-138783294D02*
X86938559Y-138783294D01*
X86938559Y-138783294D02*
X86938559Y-137583294D01*
X88992559Y-137802294D02*
X88992559Y-138564294D01*
X88484559Y-137802294D02*
X88484559Y-138564294D01*
X88484559Y-138564294D02*
X88992559Y-138183294D01*
X88992559Y-138183294D02*
X88484559Y-137802294D01*
D16*
X67013559Y-141353294D02*
X66013559Y-141353294D01*
D13*
X67113559Y-141253294D02*
X67113559Y-141453294D01*
X67113559Y-141453294D02*
X65913559Y-141453294D01*
X65913559Y-141453294D02*
X65913559Y-141253294D01*
X67113559Y-137653294D02*
X67113559Y-141253294D01*
X65913559Y-141253294D02*
X65913559Y-137653294D01*
X65913559Y-137653294D02*
X67113559Y-137653294D01*
X66894559Y-139707294D02*
X66132559Y-139707294D01*
X66894559Y-139199294D02*
X66132559Y-139199294D01*
X66132559Y-139199294D02*
X66513559Y-139707294D01*
X66513559Y-139707294D02*
X66894559Y-139199294D01*
D15*
X89881559Y-124467294D02*
X89881559Y-123451294D01*
X89881559Y-123451294D02*
X87595559Y-123451294D01*
X87595559Y-123451294D02*
X87595559Y-124467294D01*
X87595559Y-124467294D02*
X89881559Y-124467294D01*
D13*
X70987719Y-112133054D02*
X70939459Y-112133054D01*
X68188739Y-112834094D02*
X68188739Y-112133054D01*
X68188739Y-112133054D02*
X68437659Y-112133054D01*
X70987719Y-112133054D02*
X71188379Y-112133054D01*
X71188379Y-112133054D02*
X71188379Y-112834094D01*
X92563799Y-119162454D02*
X92563799Y-119114194D01*
X91862759Y-116363474D02*
X92563799Y-116363474D01*
X92563799Y-116363474D02*
X92563799Y-116612394D01*
X92563799Y-119162454D02*
X92563799Y-119363114D01*
X92563799Y-119363114D02*
X91862759Y-119363114D01*
X85534399Y-142008534D02*
X85582659Y-142008534D01*
X88333379Y-141307494D02*
X88333379Y-142008534D01*
X88333379Y-142008534D02*
X88084459Y-142008534D01*
X85534399Y-142008534D02*
X85333739Y-142008534D01*
X85333739Y-142008534D02*
X85333739Y-141307494D01*
X62053319Y-134344134D02*
X62053319Y-134392394D01*
X62754359Y-137143114D02*
X62053319Y-137143114D01*
X62053319Y-137143114D02*
X62053319Y-136894194D01*
X62053319Y-134344134D02*
X62053319Y-134143474D01*
X62053319Y-134143474D02*
X62754359Y-134143474D01*
D15*
X67275559Y-117736294D02*
X68291559Y-117736294D01*
X68291559Y-117736294D02*
X68291559Y-115450294D01*
X68291559Y-115450294D02*
X67275559Y-115450294D01*
X67275559Y-115450294D02*
X67275559Y-117736294D01*
X87595559Y-119260294D02*
X87595559Y-120276294D01*
X87595559Y-120276294D02*
X89881559Y-120276294D01*
X89881559Y-120276294D02*
X89881559Y-119260294D01*
X89881559Y-119260294D02*
X87595559Y-119260294D01*
X66640559Y-114561294D02*
X67656559Y-114561294D01*
X67656559Y-114561294D02*
X67656559Y-112275294D01*
X67656559Y-112275294D02*
X66640559Y-112275294D01*
X66640559Y-112275294D02*
X66640559Y-114561294D01*
X87595559Y-117355294D02*
X87595559Y-118371294D01*
X87595559Y-118371294D02*
X89881559Y-118371294D01*
X89881559Y-118371294D02*
X89881559Y-117355294D01*
X89881559Y-117355294D02*
X87595559Y-117355294D01*
X86706559Y-134500294D02*
X85690559Y-134500294D01*
X85690559Y-134500294D02*
X85690559Y-136786294D01*
X85690559Y-136786294D02*
X86706559Y-136786294D01*
X86706559Y-136786294D02*
X86706559Y-134500294D01*
X67656559Y-134500294D02*
X66640559Y-134500294D01*
X66640559Y-134500294D02*
X66640559Y-136786294D01*
X66640559Y-136786294D02*
X67656559Y-136786294D01*
X67656559Y-136786294D02*
X67656559Y-134500294D01*
X83785559Y-140596294D02*
X84801559Y-140596294D01*
X84801559Y-140596294D02*
X84801559Y-138310294D01*
X84801559Y-138310294D02*
X83785559Y-138310294D01*
X83785559Y-138310294D02*
X83785559Y-140596294D01*
X65751559Y-134500294D02*
X64735559Y-134500294D01*
X64735559Y-134500294D02*
X64735559Y-136786294D01*
X64735559Y-136786294D02*
X65751559Y-136786294D01*
X65751559Y-136786294D02*
X65751559Y-134500294D01*
X108849184Y-124519768D02*
X107833184Y-124519768D01*
X107833184Y-124519768D02*
X107833184Y-126805768D01*
X107833184Y-126805768D02*
X108849184Y-126805768D01*
X108849184Y-126805768D02*
X108849184Y-124519768D01*
X69561559Y-128531294D02*
X69561559Y-127515294D01*
X69561559Y-127515294D02*
X67275559Y-127515294D01*
X67275559Y-127515294D02*
X67275559Y-128531294D01*
X67275559Y-128531294D02*
X69561559Y-128531294D01*
X86706559Y-124086294D02*
X86706559Y-123070294D01*
X86706559Y-123070294D02*
X84420559Y-123070294D01*
X84420559Y-123070294D02*
X84420559Y-124086294D01*
X84420559Y-124086294D02*
X86706559Y-124086294D01*
X84420559Y-119260294D02*
X84420559Y-120276294D01*
X84420559Y-120276294D02*
X86706559Y-120276294D01*
X86706559Y-120276294D02*
X86706559Y-119260294D01*
X86706559Y-119260294D02*
X84420559Y-119260294D01*
X84420559Y-121165294D02*
X84420559Y-122181294D01*
X84420559Y-122181294D02*
X86706559Y-122181294D01*
X86706559Y-122181294D02*
X86706559Y-121165294D01*
X86706559Y-121165294D02*
X84420559Y-121165294D01*
X85055559Y-132976294D02*
X86071559Y-132976294D01*
X86071559Y-132976294D02*
X86071559Y-130690294D01*
X86071559Y-130690294D02*
X85055559Y-130690294D01*
X85055559Y-130690294D02*
X85055559Y-132976294D01*
X69561559Y-138945294D02*
X68545559Y-138945294D01*
X68545559Y-138945294D02*
X68545559Y-141231294D01*
X68545559Y-141231294D02*
X69561559Y-141231294D01*
X69561559Y-141231294D02*
X69561559Y-138945294D01*
X85436559Y-115450294D02*
X84420559Y-115450294D01*
X84420559Y-115450294D02*
X84420559Y-117736294D01*
X84420559Y-117736294D02*
X85436559Y-117736294D01*
X85436559Y-117736294D02*
X85436559Y-115450294D01*
X87976559Y-130690294D02*
X86960559Y-130690294D01*
X86960559Y-130690294D02*
X86960559Y-132976294D01*
X86960559Y-132976294D02*
X87976559Y-132976294D01*
X87976559Y-132976294D02*
X87976559Y-130690294D01*
X71466559Y-138945294D02*
X70450559Y-138945294D01*
X70450559Y-138945294D02*
X70450559Y-141231294D01*
X70450559Y-141231294D02*
X71466559Y-141231294D01*
X71466559Y-141231294D02*
X71466559Y-138945294D01*
D13*
X90550000Y-126430000D02*
G75*
G03X90550000Y-126430000I-100000J0D01*
G01*
X90200000Y-126980000D02*
X90200000Y-126480000D01*
X87300000Y-126980000D02*
X90200000Y-126980000D01*
X87300000Y-126480000D02*
X87300000Y-126980000D01*
X90200000Y-126480000D02*
X87300000Y-126480000D01*
X82618559Y-129833294D02*
X82618559Y-133833294D01*
X82618559Y-133833294D02*
X79618559Y-133833294D01*
X79618559Y-133833294D02*
X79618559Y-129833294D01*
X79618559Y-129833294D02*
X82618559Y-129833294D01*
D15*
X70196559Y-122435294D02*
X69180559Y-122435294D01*
X69180559Y-122435294D02*
X69180559Y-124721294D01*
X69180559Y-124721294D02*
X70196559Y-124721294D01*
X70196559Y-124721294D02*
X70196559Y-122435294D01*
D14*
X111082985Y-123582661D02*
G75*
G03X111082985Y-123582661I-647575J0D01*
G01*
D15*
X79086559Y-130681468D02*
X78070559Y-130681468D01*
X78070559Y-130681468D02*
X78070559Y-132967468D01*
X78070559Y-132967468D02*
X79086559Y-132967468D01*
X79086559Y-132967468D02*
X79086559Y-130681468D01*
X83150559Y-132976294D02*
X84166559Y-132976294D01*
X84166559Y-132976294D02*
X84166559Y-130690294D01*
X84166559Y-130690294D02*
X83150559Y-130690294D01*
X83150559Y-130690294D02*
X83150559Y-132976294D01*
D13*
X95486624Y-119170380D02*
X95486624Y-126871660D01*
X94485864Y-119170380D02*
X94485864Y-126871660D01*
X94485864Y-126871660D02*
X103685744Y-126871660D01*
X103685744Y-126871660D02*
X103685744Y-119170380D01*
X103685744Y-119170380D02*
X94485864Y-119170380D01*
D15*
X87341559Y-115450294D02*
X86325559Y-115450294D01*
X86325559Y-115450294D02*
X86325559Y-117736294D01*
X86325559Y-117736294D02*
X87341559Y-117736294D01*
X87341559Y-117736294D02*
X87341559Y-115450294D01*
D13*
X83841259Y-114603294D02*
X85741259Y-114603294D01*
X83841259Y-113503294D02*
X85741259Y-113503294D01*
X84741259Y-114053294D02*
X85191259Y-114053294D01*
X84691259Y-113803294D02*
X84691259Y-114303294D01*
X84691259Y-114053294D02*
X84941259Y-113803294D01*
X84941259Y-113803294D02*
X84941259Y-114303294D01*
X84941259Y-114303294D02*
X84691259Y-114053294D01*
X66850000Y-91730000D02*
X66850000Y-89830000D01*
X65750000Y-91730000D02*
X65750000Y-89830000D01*
X66300000Y-90830000D02*
X66300000Y-90380000D01*
X66050000Y-90880000D02*
X66550000Y-90880000D01*
X66300000Y-90880000D02*
X66050000Y-90630000D01*
X66050000Y-90630000D02*
X66550000Y-90630000D01*
X66550000Y-90630000D02*
X66300000Y-90880000D01*
X86550000Y-91730000D02*
X86550000Y-89830000D01*
X85450000Y-91730000D02*
X85450000Y-89830000D01*
X86000000Y-90830000D02*
X86000000Y-90380000D01*
X85750000Y-90880000D02*
X86250000Y-90880000D01*
X86000000Y-90880000D02*
X85750000Y-90630000D01*
X85750000Y-90630000D02*
X86250000Y-90630000D01*
X86250000Y-90630000D02*
X86000000Y-90880000D01*
X106150000Y-91830000D02*
X106150000Y-89930000D01*
X105050000Y-91830000D02*
X105050000Y-89930000D01*
X105600000Y-90930000D02*
X105600000Y-90480000D01*
X105350000Y-90980000D02*
X105850000Y-90980000D01*
X105600000Y-90980000D02*
X105350000Y-90730000D01*
X105350000Y-90730000D02*
X105850000Y-90730000D01*
X105850000Y-90730000D02*
X105600000Y-90980000D01*
X125850000Y-91830000D02*
X125850000Y-89930000D01*
X124750000Y-91830000D02*
X124750000Y-89930000D01*
X125300000Y-90930000D02*
X125300000Y-90480000D01*
X125050000Y-90980000D02*
X125550000Y-90980000D01*
X125300000Y-90980000D02*
X125050000Y-90730000D01*
X125050000Y-90730000D02*
X125550000Y-90730000D01*
X125550000Y-90730000D02*
X125300000Y-90980000D01*
X145450000Y-91830000D02*
X145450000Y-89930000D01*
X144350000Y-91830000D02*
X144350000Y-89930000D01*
X144900000Y-90930000D02*
X144900000Y-90480000D01*
X144650000Y-90980000D02*
X145150000Y-90980000D01*
X144900000Y-90980000D02*
X144650000Y-90730000D01*
X144650000Y-90730000D02*
X145150000Y-90730000D01*
X145150000Y-90730000D02*
X144900000Y-90980000D01*
D15*
X60408000Y-89487000D02*
X59392000Y-89487000D01*
X59392000Y-89487000D02*
X59392000Y-91773000D01*
X59392000Y-91773000D02*
X60408000Y-91773000D01*
X60408000Y-91773000D02*
X60408000Y-89487000D01*
X80008000Y-89587000D02*
X78992000Y-89587000D01*
X78992000Y-89587000D02*
X78992000Y-91873000D01*
X78992000Y-91873000D02*
X80008000Y-91873000D01*
X80008000Y-91873000D02*
X80008000Y-89587000D01*
X99508000Y-89687000D02*
X98492000Y-89687000D01*
X98492000Y-89687000D02*
X98492000Y-91973000D01*
X98492000Y-91973000D02*
X99508000Y-91973000D01*
X99508000Y-91973000D02*
X99508000Y-89687000D01*
X119208000Y-89687000D02*
X118192000Y-89687000D01*
X118192000Y-89687000D02*
X118192000Y-91973000D01*
X118192000Y-91973000D02*
X119208000Y-91973000D01*
X119208000Y-91973000D02*
X119208000Y-89687000D01*
X138808000Y-89687000D02*
X137792000Y-89687000D01*
X137792000Y-89687000D02*
X137792000Y-91973000D01*
X137792000Y-91973000D02*
X138808000Y-91973000D01*
X138808000Y-91973000D02*
X138808000Y-89687000D01*
D13*
X75153500Y-152237500D02*
X87853500Y-152237500D01*
X87853500Y-152237500D02*
X87853500Y-154777500D01*
X87853500Y-154777500D02*
X75153500Y-154777500D01*
X72333500Y-151957500D02*
X73883500Y-151957500D01*
X75153500Y-152237500D02*
X75153500Y-154777500D01*
X73883500Y-155057500D02*
X72333500Y-155057500D01*
X72333500Y-155057500D02*
X72333500Y-151957500D01*
D11*
X76821429Y-113110952D02*
X76821429Y-112349047D01*
X77202381Y-112729999D02*
X76440476Y-112729999D01*
D17*
X90976178Y-130793104D02*
X90685892Y-130793104D01*
X90831035Y-130793104D02*
X90831035Y-130285104D01*
X90782654Y-130357675D01*
X90734273Y-130406056D01*
X90685892Y-130430246D01*
X91411607Y-130454437D02*
X91411607Y-130793104D01*
X91193892Y-130454437D02*
X91193892Y-130720532D01*
X91218083Y-130768913D01*
X91266464Y-130793104D01*
X91339035Y-130793104D01*
X91387416Y-130768913D01*
X91411607Y-130744723D01*
X91822845Y-130527008D02*
X91653511Y-130527008D01*
X91653511Y-130793104D02*
X91653511Y-130285104D01*
X91895416Y-130285104D01*
X88968369Y-136580675D02*
X88968369Y-136870961D01*
X88968369Y-136725818D02*
X88460369Y-136725818D01*
X88532940Y-136774199D01*
X88581321Y-136822580D01*
X88605511Y-136870961D01*
X88629702Y-136145246D02*
X88968369Y-136145246D01*
X88629702Y-136362961D02*
X88895797Y-136362961D01*
X88944178Y-136338770D01*
X88968369Y-136290389D01*
X88968369Y-136217818D01*
X88944178Y-136169437D01*
X88919988Y-136145246D01*
X88702273Y-135734008D02*
X88702273Y-135903342D01*
X88968369Y-135903342D02*
X88460369Y-135903342D01*
X88460369Y-135661437D01*
D13*
X90460940Y-136976389D02*
X89460940Y-136976389D01*
X90175226Y-136643055D01*
X89460940Y-136309722D01*
X90460940Y-136309722D01*
X90365702Y-135262103D02*
X90413321Y-135309722D01*
X90460940Y-135452579D01*
X90460940Y-135547817D01*
X90413321Y-135690675D01*
X90318083Y-135785913D01*
X90222845Y-135833532D01*
X90032369Y-135881151D01*
X89889511Y-135881151D01*
X89699035Y-135833532D01*
X89603797Y-135785913D01*
X89508559Y-135690675D01*
X89460940Y-135547817D01*
X89460940Y-135452579D01*
X89508559Y-135309722D01*
X89556178Y-135262103D01*
X90460940Y-134833532D02*
X89460940Y-134833532D01*
X89460940Y-134452579D01*
X89508559Y-134357341D01*
X89556178Y-134309722D01*
X89651416Y-134262103D01*
X89794273Y-134262103D01*
X89889511Y-134309722D01*
X89937130Y-134357341D01*
X89984749Y-134452579D01*
X89984749Y-134833532D01*
X90460940Y-133309722D02*
X90460940Y-133881151D01*
X90460940Y-133595437D02*
X89460940Y-133595437D01*
X89603797Y-133690675D01*
X89699035Y-133785913D01*
X89746654Y-133881151D01*
X89460940Y-132976389D02*
X89460940Y-132309722D01*
X90460940Y-132738294D01*
X89460940Y-131738294D02*
X89460940Y-131643055D01*
X89508559Y-131547817D01*
X89556178Y-131500198D01*
X89651416Y-131452579D01*
X89841892Y-131404960D01*
X90079988Y-131404960D01*
X90270464Y-131452579D01*
X90365702Y-131500198D01*
X90413321Y-131547817D01*
X90460940Y-131643055D01*
X90460940Y-131738294D01*
X90413321Y-131833532D01*
X90365702Y-131881151D01*
X90270464Y-131928770D01*
X90079988Y-131976389D01*
X89841892Y-131976389D01*
X89651416Y-131928770D01*
X89556178Y-131881151D01*
X89508559Y-131833532D01*
X89460940Y-131738294D01*
X89556178Y-131024008D02*
X89508559Y-130976389D01*
X89460940Y-130881151D01*
X89460940Y-130643055D01*
X89508559Y-130547817D01*
X89556178Y-130500198D01*
X89651416Y-130452579D01*
X89746654Y-130452579D01*
X89889511Y-130500198D01*
X90460940Y-131071627D01*
X90460940Y-130452579D01*
D17*
X106454136Y-125432958D02*
X106478326Y-125408768D01*
X106526707Y-125384578D01*
X106647660Y-125384578D01*
X106696041Y-125408768D01*
X106720231Y-125432958D01*
X106744422Y-125481339D01*
X106744422Y-125529720D01*
X106720231Y-125602292D01*
X106429945Y-125892578D01*
X106744422Y-125892578D01*
X106937946Y-125432958D02*
X106962136Y-125408768D01*
X107010517Y-125384578D01*
X107131470Y-125384578D01*
X107179851Y-125408768D01*
X107204041Y-125432958D01*
X107228232Y-125481339D01*
X107228232Y-125529720D01*
X107204041Y-125602292D01*
X106913755Y-125892578D01*
X107228232Y-125892578D01*
D13*
X97293565Y-133615149D02*
X96817374Y-133948483D01*
X97293565Y-134186578D02*
X96293565Y-134186578D01*
X96293565Y-133805625D01*
X96341184Y-133710387D01*
X96388803Y-133662768D01*
X96484041Y-133615149D01*
X96626898Y-133615149D01*
X96722136Y-133662768D01*
X96769755Y-133710387D01*
X96817374Y-133805625D01*
X96817374Y-134186578D01*
X96769755Y-133186578D02*
X96769755Y-132853244D01*
X97293565Y-132710387D02*
X97293565Y-133186578D01*
X96293565Y-133186578D01*
X96293565Y-132710387D01*
X97245946Y-132329435D02*
X97293565Y-132186578D01*
X97293565Y-131948482D01*
X97245946Y-131853244D01*
X97198327Y-131805625D01*
X97103089Y-131758006D01*
X97007851Y-131758006D01*
X96912613Y-131805625D01*
X96864994Y-131853244D01*
X96817374Y-131948482D01*
X96769755Y-132138959D01*
X96722136Y-132234197D01*
X96674517Y-132281816D01*
X96579279Y-132329435D01*
X96484041Y-132329435D01*
X96388803Y-132281816D01*
X96341184Y-132234197D01*
X96293565Y-132138959D01*
X96293565Y-131900863D01*
X96341184Y-131758006D01*
X96769755Y-131329435D02*
X96769755Y-130996101D01*
X97293565Y-130853244D02*
X97293565Y-131329435D01*
X96293565Y-131329435D01*
X96293565Y-130853244D01*
X96293565Y-130567530D02*
X96293565Y-129996101D01*
X97293565Y-130281816D02*
X96293565Y-130281816D01*
X108793565Y-133519911D02*
X107793565Y-133519911D01*
X108269755Y-133519911D02*
X108269755Y-132948482D01*
X108793565Y-132948482D02*
X107793565Y-132948482D01*
X107793565Y-132567530D02*
X108793565Y-132329435D01*
X108079279Y-132138958D01*
X108793565Y-131948482D01*
X107793565Y-131710387D01*
X108269755Y-130996101D02*
X108317374Y-130853244D01*
X108364994Y-130805625D01*
X108460232Y-130758006D01*
X108603089Y-130758006D01*
X108698327Y-130805625D01*
X108745946Y-130853244D01*
X108793565Y-130948482D01*
X108793565Y-131329435D01*
X107793565Y-131329435D01*
X107793565Y-130996101D01*
X107841184Y-130900863D01*
X107888803Y-130853244D01*
X107984041Y-130805625D01*
X108079279Y-130805625D01*
X108174517Y-130853244D01*
X108222136Y-130900863D01*
X108269755Y-130996101D01*
X108269755Y-131329435D01*
D18*
X68364130Y-137022150D02*
X68364130Y-137276150D01*
X68763273Y-137276150D02*
X68001273Y-137276150D01*
X68001273Y-136913293D01*
X68001273Y-136731865D02*
X68001273Y-136296436D01*
X68763273Y-136514150D02*
X68001273Y-136514150D01*
X68763273Y-136042436D02*
X68001273Y-136042436D01*
X68001273Y-135861008D01*
X68037559Y-135752151D01*
X68110130Y-135679579D01*
X68182702Y-135643294D01*
X68327845Y-135607008D01*
X68436702Y-135607008D01*
X68581845Y-135643294D01*
X68654416Y-135679579D01*
X68726988Y-135752151D01*
X68763273Y-135861008D01*
X68763273Y-136042436D01*
X68763273Y-135280436D02*
X68001273Y-135280436D01*
X66223273Y-133212150D02*
X65461273Y-133212150D01*
X65533845Y-132885579D02*
X65497559Y-132849293D01*
X65461273Y-132776722D01*
X65461273Y-132595293D01*
X65497559Y-132522722D01*
X65533845Y-132486436D01*
X65606416Y-132450151D01*
X65678988Y-132450151D01*
X65787845Y-132486436D01*
X66223273Y-132921865D01*
X66223273Y-132450151D01*
X66150702Y-131688151D02*
X66186988Y-131724437D01*
X66223273Y-131833294D01*
X66223273Y-131905865D01*
X66186988Y-132014722D01*
X66114416Y-132087294D01*
X66041845Y-132123579D01*
X65896702Y-132159865D01*
X65787845Y-132159865D01*
X65642702Y-132123579D01*
X65570130Y-132087294D01*
X65497559Y-132014722D01*
X65461273Y-131905865D01*
X65461273Y-131833294D01*
X65497559Y-131724437D01*
X65533845Y-131688151D01*
D13*
X76462654Y-120315675D02*
X76462654Y-121125199D01*
X76510273Y-121220437D01*
X76557892Y-121268056D01*
X76653130Y-121315675D01*
X76843607Y-121315675D01*
X76938845Y-121268056D01*
X76986464Y-121220437D01*
X77034083Y-121125199D01*
X77034083Y-120315675D01*
X78034083Y-121315675D02*
X77462654Y-121315675D01*
X77748368Y-121315675D02*
X77748368Y-120315675D01*
X77653130Y-120458532D01*
X77557892Y-120553770D01*
X77462654Y-120601389D01*
D17*
X90564940Y-124612437D02*
X90564940Y-124951104D01*
X90443987Y-124418913D02*
X90323035Y-124781770D01*
X90637511Y-124781770D01*
X90831035Y-124902723D02*
X90855226Y-124926913D01*
X90831035Y-124951104D01*
X90806845Y-124926913D01*
X90831035Y-124902723D01*
X90831035Y-124951104D01*
X91024559Y-124443104D02*
X91363226Y-124443104D01*
X91145512Y-124951104D01*
X91774465Y-124612437D02*
X91774465Y-124951104D01*
X91556750Y-124612437D02*
X91556750Y-124878532D01*
X91580941Y-124926913D01*
X91629322Y-124951104D01*
X91701893Y-124951104D01*
X91750274Y-124926913D01*
X91774465Y-124902723D01*
X92185703Y-124685008D02*
X92016369Y-124685008D01*
X92016369Y-124951104D02*
X92016369Y-124443104D01*
X92258274Y-124443104D01*
X88968369Y-130091580D02*
X88968369Y-130381866D01*
X88968369Y-130236723D02*
X88460369Y-130236723D01*
X88532940Y-130285104D01*
X88581321Y-130333485D01*
X88605511Y-130381866D01*
X88460369Y-129777104D02*
X88460369Y-129728723D01*
X88484559Y-129680342D01*
X88508749Y-129656151D01*
X88557130Y-129631961D01*
X88653892Y-129607770D01*
X88774845Y-129607770D01*
X88871607Y-129631961D01*
X88919988Y-129656151D01*
X88944178Y-129680342D01*
X88968369Y-129728723D01*
X88968369Y-129777104D01*
X88944178Y-129825485D01*
X88919988Y-129849675D01*
X88871607Y-129873866D01*
X88774845Y-129898056D01*
X88653892Y-129898056D01*
X88557130Y-129873866D01*
X88508749Y-129849675D01*
X88484559Y-129825485D01*
X88460369Y-129777104D01*
X88629702Y-129172341D02*
X88968369Y-129172341D01*
X88629702Y-129390056D02*
X88895797Y-129390056D01*
X88944178Y-129365865D01*
X88968369Y-129317484D01*
X88968369Y-129244913D01*
X88944178Y-129196532D01*
X88919988Y-129172341D01*
X88702273Y-128761103D02*
X88702273Y-128930437D01*
X88968369Y-128930437D02*
X88460369Y-128930437D01*
X88460369Y-128688532D01*
X70045369Y-115940152D02*
X70045369Y-115891771D01*
X70069559Y-115843390D01*
X70093749Y-115819199D01*
X70142130Y-115795009D01*
X70238892Y-115770818D01*
X70359845Y-115770818D01*
X70456607Y-115795009D01*
X70504988Y-115819199D01*
X70529178Y-115843390D01*
X70553369Y-115891771D01*
X70553369Y-115940152D01*
X70529178Y-115988533D01*
X70504988Y-116012723D01*
X70456607Y-116036914D01*
X70359845Y-116061104D01*
X70238892Y-116061104D01*
X70142130Y-116036914D01*
X70093749Y-116012723D01*
X70069559Y-115988533D01*
X70045369Y-115940152D01*
X70504988Y-115553104D02*
X70529178Y-115528913D01*
X70553369Y-115553104D01*
X70529178Y-115577294D01*
X70504988Y-115553104D01*
X70553369Y-115553104D01*
X70553369Y-115045103D02*
X70553369Y-115335389D01*
X70553369Y-115190246D02*
X70045369Y-115190246D01*
X70117940Y-115238627D01*
X70166321Y-115287008D01*
X70190511Y-115335389D01*
X70214702Y-114609674D02*
X70553369Y-114609674D01*
X70214702Y-114827389D02*
X70480797Y-114827389D01*
X70529178Y-114803198D01*
X70553369Y-114754817D01*
X70553369Y-114682246D01*
X70529178Y-114633865D01*
X70504988Y-114609674D01*
X68140369Y-120385152D02*
X68140369Y-120336771D01*
X68164559Y-120288390D01*
X68188749Y-120264199D01*
X68237130Y-120240009D01*
X68333892Y-120215818D01*
X68454845Y-120215818D01*
X68551607Y-120240009D01*
X68599988Y-120264199D01*
X68624178Y-120288390D01*
X68648369Y-120336771D01*
X68648369Y-120385152D01*
X68624178Y-120433533D01*
X68599988Y-120457723D01*
X68551607Y-120481914D01*
X68454845Y-120506104D01*
X68333892Y-120506104D01*
X68237130Y-120481914D01*
X68188749Y-120457723D01*
X68164559Y-120433533D01*
X68140369Y-120385152D01*
X68599988Y-119998104D02*
X68624178Y-119973913D01*
X68648369Y-119998104D01*
X68624178Y-120022294D01*
X68599988Y-119998104D01*
X68648369Y-119998104D01*
X68648369Y-119490103D02*
X68648369Y-119780389D01*
X68648369Y-119635246D02*
X68140369Y-119635246D01*
X68212940Y-119683627D01*
X68261321Y-119732008D01*
X68285511Y-119780389D01*
X68309702Y-119054674D02*
X68648369Y-119054674D01*
X68309702Y-119272389D02*
X68575797Y-119272389D01*
X68624178Y-119248198D01*
X68648369Y-119199817D01*
X68648369Y-119127246D01*
X68624178Y-119078865D01*
X68599988Y-119054674D01*
X68140369Y-130545152D02*
X68140369Y-130496771D01*
X68164559Y-130448390D01*
X68188749Y-130424199D01*
X68237130Y-130400009D01*
X68333892Y-130375818D01*
X68454845Y-130375818D01*
X68551607Y-130400009D01*
X68599988Y-130424199D01*
X68624178Y-130448390D01*
X68648369Y-130496771D01*
X68648369Y-130545152D01*
X68624178Y-130593533D01*
X68599988Y-130617723D01*
X68551607Y-130641914D01*
X68454845Y-130666104D01*
X68333892Y-130666104D01*
X68237130Y-130641914D01*
X68188749Y-130617723D01*
X68164559Y-130593533D01*
X68140369Y-130545152D01*
X68599988Y-130158104D02*
X68624178Y-130133913D01*
X68648369Y-130158104D01*
X68624178Y-130182294D01*
X68599988Y-130158104D01*
X68648369Y-130158104D01*
X68648369Y-129650103D02*
X68648369Y-129940389D01*
X68648369Y-129795246D02*
X68140369Y-129795246D01*
X68212940Y-129843627D01*
X68261321Y-129892008D01*
X68285511Y-129940389D01*
X68309702Y-129214674D02*
X68648369Y-129214674D01*
X68309702Y-129432389D02*
X68575797Y-129432389D01*
X68624178Y-129408198D01*
X68648369Y-129359817D01*
X68648369Y-129287246D01*
X68624178Y-129238865D01*
X68599988Y-129214674D01*
X82406701Y-116315104D02*
X82455082Y-116315104D01*
X82503463Y-116339294D01*
X82527654Y-116363484D01*
X82551844Y-116411865D01*
X82576035Y-116508627D01*
X82576035Y-116629580D01*
X82551844Y-116726342D01*
X82527654Y-116774723D01*
X82503463Y-116798913D01*
X82455082Y-116823104D01*
X82406701Y-116823104D01*
X82358320Y-116798913D01*
X82334130Y-116774723D01*
X82309939Y-116726342D01*
X82285749Y-116629580D01*
X82285749Y-116508627D01*
X82309939Y-116411865D01*
X82334130Y-116363484D01*
X82358320Y-116339294D01*
X82406701Y-116315104D01*
X82793749Y-116774723D02*
X82817940Y-116798913D01*
X82793749Y-116823104D01*
X82769559Y-116798913D01*
X82793749Y-116774723D01*
X82793749Y-116823104D01*
X83301750Y-116823104D02*
X83011464Y-116823104D01*
X83156607Y-116823104D02*
X83156607Y-116315104D01*
X83108226Y-116387675D01*
X83059845Y-116436056D01*
X83011464Y-116460246D01*
X83737179Y-116484437D02*
X83737179Y-116823104D01*
X83519464Y-116484437D02*
X83519464Y-116750532D01*
X83543655Y-116798913D01*
X83592036Y-116823104D01*
X83664607Y-116823104D01*
X83712988Y-116798913D01*
X83737179Y-116774723D01*
X84015369Y-129275152D02*
X84015369Y-129226771D01*
X84039559Y-129178390D01*
X84063749Y-129154199D01*
X84112130Y-129130009D01*
X84208892Y-129105818D01*
X84329845Y-129105818D01*
X84426607Y-129130009D01*
X84474988Y-129154199D01*
X84499178Y-129178390D01*
X84523369Y-129226771D01*
X84523369Y-129275152D01*
X84499178Y-129323533D01*
X84474988Y-129347723D01*
X84426607Y-129371914D01*
X84329845Y-129396104D01*
X84208892Y-129396104D01*
X84112130Y-129371914D01*
X84063749Y-129347723D01*
X84039559Y-129323533D01*
X84015369Y-129275152D01*
X84474988Y-128888104D02*
X84499178Y-128863913D01*
X84523369Y-128888104D01*
X84499178Y-128912294D01*
X84474988Y-128888104D01*
X84523369Y-128888104D01*
X84523369Y-128380103D02*
X84523369Y-128670389D01*
X84523369Y-128525246D02*
X84015369Y-128525246D01*
X84087940Y-128573627D01*
X84136321Y-128622008D01*
X84160511Y-128670389D01*
X84184702Y-127944674D02*
X84523369Y-127944674D01*
X84184702Y-128162389D02*
X84450797Y-128162389D01*
X84499178Y-128138198D01*
X84523369Y-128089817D01*
X84523369Y-128017246D01*
X84499178Y-127968865D01*
X84474988Y-127944674D01*
X70045369Y-117845152D02*
X70045369Y-117796771D01*
X70069559Y-117748390D01*
X70093749Y-117724199D01*
X70142130Y-117700009D01*
X70238892Y-117675818D01*
X70359845Y-117675818D01*
X70456607Y-117700009D01*
X70504988Y-117724199D01*
X70529178Y-117748390D01*
X70553369Y-117796771D01*
X70553369Y-117845152D01*
X70529178Y-117893533D01*
X70504988Y-117917723D01*
X70456607Y-117941914D01*
X70359845Y-117966104D01*
X70238892Y-117966104D01*
X70142130Y-117941914D01*
X70093749Y-117917723D01*
X70069559Y-117893533D01*
X70045369Y-117845152D01*
X70504988Y-117458104D02*
X70529178Y-117433913D01*
X70553369Y-117458104D01*
X70529178Y-117482294D01*
X70504988Y-117458104D01*
X70553369Y-117458104D01*
X70553369Y-116950103D02*
X70553369Y-117240389D01*
X70553369Y-117095246D02*
X70045369Y-117095246D01*
X70117940Y-117143627D01*
X70166321Y-117192008D01*
X70190511Y-117240389D01*
X70214702Y-116514674D02*
X70553369Y-116514674D01*
X70214702Y-116732389D02*
X70480797Y-116732389D01*
X70529178Y-116708198D01*
X70553369Y-116659817D01*
X70553369Y-116587246D01*
X70529178Y-116538865D01*
X70504988Y-116514674D01*
X88629702Y-124721294D02*
X88968369Y-124721294D01*
X88436178Y-124842247D02*
X88799035Y-124963199D01*
X88799035Y-124648723D01*
X88919988Y-124455199D02*
X88944178Y-124431008D01*
X88968369Y-124455199D01*
X88944178Y-124479389D01*
X88919988Y-124455199D01*
X88968369Y-124455199D01*
X88460369Y-124261675D02*
X88460369Y-123923008D01*
X88968369Y-124140722D01*
X88629702Y-123511769D02*
X88968369Y-123511769D01*
X88629702Y-123729484D02*
X88895797Y-123729484D01*
X88944178Y-123705293D01*
X88968369Y-123656912D01*
X88968369Y-123584341D01*
X88944178Y-123535960D01*
X88919988Y-123511769D01*
X88968369Y-123269865D02*
X88460369Y-123269865D01*
X88702273Y-123269865D02*
X88702273Y-122979579D01*
X88968369Y-122979579D02*
X88460369Y-122979579D01*
X67444892Y-116823104D02*
X67154606Y-116823104D01*
X67299749Y-116823104D02*
X67299749Y-116315104D01*
X67251368Y-116387675D01*
X67202987Y-116436056D01*
X67154606Y-116460246D01*
X67759368Y-116315104D02*
X67807749Y-116315104D01*
X67856130Y-116339294D01*
X67880321Y-116363484D01*
X67904511Y-116411865D01*
X67928702Y-116508627D01*
X67928702Y-116629580D01*
X67904511Y-116726342D01*
X67880321Y-116774723D01*
X67856130Y-116798913D01*
X67807749Y-116823104D01*
X67759368Y-116823104D01*
X67710987Y-116798913D01*
X67686797Y-116774723D01*
X67662606Y-116726342D01*
X67638416Y-116629580D01*
X67638416Y-116508627D01*
X67662606Y-116411865D01*
X67686797Y-116363484D01*
X67710987Y-116339294D01*
X67759368Y-116315104D01*
X68243178Y-116315104D02*
X68291559Y-116315104D01*
X68339940Y-116339294D01*
X68364131Y-116363484D01*
X68388321Y-116411865D01*
X68412512Y-116508627D01*
X68412512Y-116629580D01*
X68388321Y-116726342D01*
X68364131Y-116774723D01*
X68339940Y-116798913D01*
X68291559Y-116823104D01*
X68243178Y-116823104D01*
X68194797Y-116798913D01*
X68170607Y-116774723D01*
X68146416Y-116726342D01*
X68122226Y-116629580D01*
X68122226Y-116508627D01*
X68146416Y-116411865D01*
X68170607Y-116363484D01*
X68194797Y-116339294D01*
X68243178Y-116315104D01*
X88968369Y-120106961D02*
X88968369Y-120397247D01*
X88968369Y-120252104D02*
X88460369Y-120252104D01*
X88532940Y-120300485D01*
X88581321Y-120348866D01*
X88605511Y-120397247D01*
X88460369Y-119792485D02*
X88460369Y-119744104D01*
X88484559Y-119695723D01*
X88508749Y-119671532D01*
X88557130Y-119647342D01*
X88653892Y-119623151D01*
X88774845Y-119623151D01*
X88871607Y-119647342D01*
X88919988Y-119671532D01*
X88944178Y-119695723D01*
X88968369Y-119744104D01*
X88968369Y-119792485D01*
X88944178Y-119840866D01*
X88919988Y-119865056D01*
X88871607Y-119889247D01*
X88774845Y-119913437D01*
X88653892Y-119913437D01*
X88557130Y-119889247D01*
X88508749Y-119865056D01*
X88484559Y-119840866D01*
X88460369Y-119792485D01*
X88460369Y-119308675D02*
X88460369Y-119260294D01*
X88484559Y-119211913D01*
X88508749Y-119187722D01*
X88557130Y-119163532D01*
X88653892Y-119139341D01*
X88774845Y-119139341D01*
X88871607Y-119163532D01*
X88919988Y-119187722D01*
X88944178Y-119211913D01*
X88968369Y-119260294D01*
X88968369Y-119308675D01*
X88944178Y-119357056D01*
X88919988Y-119381246D01*
X88871607Y-119405437D01*
X88774845Y-119429627D01*
X88653892Y-119429627D01*
X88557130Y-119405437D01*
X88508749Y-119381246D01*
X88484559Y-119357056D01*
X88460369Y-119308675D01*
X66846178Y-113648104D02*
X66555892Y-113648104D01*
X66701035Y-113648104D02*
X66701035Y-113140104D01*
X66652654Y-113212675D01*
X66604273Y-113261056D01*
X66555892Y-113285246D01*
X67160654Y-113140104D02*
X67209035Y-113140104D01*
X67257416Y-113164294D01*
X67281607Y-113188484D01*
X67305797Y-113236865D01*
X67329988Y-113333627D01*
X67329988Y-113454580D01*
X67305797Y-113551342D01*
X67281607Y-113599723D01*
X67257416Y-113623913D01*
X67209035Y-113648104D01*
X67160654Y-113648104D01*
X67112273Y-113623913D01*
X67088083Y-113599723D01*
X67063892Y-113551342D01*
X67039702Y-113454580D01*
X67039702Y-113333627D01*
X67063892Y-113236865D01*
X67088083Y-113188484D01*
X67112273Y-113164294D01*
X67160654Y-113140104D01*
X67547702Y-113648104D02*
X67547702Y-113140104D01*
X67596083Y-113454580D02*
X67741226Y-113648104D01*
X67741226Y-113309437D02*
X67547702Y-113502961D01*
X88968369Y-118165675D02*
X88968369Y-118455961D01*
X88968369Y-118310818D02*
X88460369Y-118310818D01*
X88532940Y-118359199D01*
X88581321Y-118407580D01*
X88605511Y-118455961D01*
X88460369Y-117851199D02*
X88460369Y-117802818D01*
X88484559Y-117754437D01*
X88508749Y-117730246D01*
X88557130Y-117706056D01*
X88653892Y-117681865D01*
X88774845Y-117681865D01*
X88871607Y-117706056D01*
X88919988Y-117730246D01*
X88944178Y-117754437D01*
X88968369Y-117802818D01*
X88968369Y-117851199D01*
X88944178Y-117899580D01*
X88919988Y-117923770D01*
X88871607Y-117947961D01*
X88774845Y-117972151D01*
X88653892Y-117972151D01*
X88557130Y-117947961D01*
X88508749Y-117923770D01*
X88484559Y-117899580D01*
X88460369Y-117851199D01*
X88968369Y-117464151D02*
X88460369Y-117464151D01*
X88774845Y-117415770D02*
X88968369Y-117270627D01*
X88629702Y-117270627D02*
X88823226Y-117464151D01*
X85859892Y-135873104D02*
X85569606Y-135873104D01*
X85714749Y-135873104D02*
X85714749Y-135365104D01*
X85666368Y-135437675D01*
X85617987Y-135486056D01*
X85569606Y-135510246D01*
X86174368Y-135365104D02*
X86222749Y-135365104D01*
X86271130Y-135389294D01*
X86295321Y-135413484D01*
X86319511Y-135461865D01*
X86343702Y-135558627D01*
X86343702Y-135679580D01*
X86319511Y-135776342D01*
X86295321Y-135824723D01*
X86271130Y-135848913D01*
X86222749Y-135873104D01*
X86174368Y-135873104D01*
X86125987Y-135848913D01*
X86101797Y-135824723D01*
X86077606Y-135776342D01*
X86053416Y-135679580D01*
X86053416Y-135558627D01*
X86077606Y-135461865D01*
X86101797Y-135413484D01*
X86125987Y-135389294D01*
X86174368Y-135365104D01*
X86658178Y-135365104D02*
X86706559Y-135365104D01*
X86754940Y-135389294D01*
X86779131Y-135413484D01*
X86803321Y-135461865D01*
X86827512Y-135558627D01*
X86827512Y-135679580D01*
X86803321Y-135776342D01*
X86779131Y-135824723D01*
X86754940Y-135848913D01*
X86706559Y-135873104D01*
X86658178Y-135873104D01*
X86609797Y-135848913D01*
X86585607Y-135824723D01*
X86561416Y-135776342D01*
X86537226Y-135679580D01*
X86537226Y-135558627D01*
X86561416Y-135461865D01*
X86585607Y-135413484D01*
X86609797Y-135389294D01*
X86658178Y-135365104D01*
X66809892Y-135873104D02*
X66519606Y-135873104D01*
X66664749Y-135873104D02*
X66664749Y-135365104D01*
X66616368Y-135437675D01*
X66567987Y-135486056D01*
X66519606Y-135510246D01*
X67124368Y-135365104D02*
X67172749Y-135365104D01*
X67221130Y-135389294D01*
X67245321Y-135413484D01*
X67269511Y-135461865D01*
X67293702Y-135558627D01*
X67293702Y-135679580D01*
X67269511Y-135776342D01*
X67245321Y-135824723D01*
X67221130Y-135848913D01*
X67172749Y-135873104D01*
X67124368Y-135873104D01*
X67075987Y-135848913D01*
X67051797Y-135824723D01*
X67027606Y-135776342D01*
X67003416Y-135679580D01*
X67003416Y-135558627D01*
X67027606Y-135461865D01*
X67051797Y-135413484D01*
X67075987Y-135389294D01*
X67124368Y-135365104D01*
X67608178Y-135365104D02*
X67656559Y-135365104D01*
X67704940Y-135389294D01*
X67729131Y-135413484D01*
X67753321Y-135461865D01*
X67777512Y-135558627D01*
X67777512Y-135679580D01*
X67753321Y-135776342D01*
X67729131Y-135824723D01*
X67704940Y-135848913D01*
X67656559Y-135873104D01*
X67608178Y-135873104D01*
X67559797Y-135848913D01*
X67535607Y-135824723D01*
X67511416Y-135776342D01*
X67487226Y-135679580D01*
X67487226Y-135558627D01*
X67511416Y-135461865D01*
X67535607Y-135413484D01*
X67559797Y-135389294D01*
X67608178Y-135365104D01*
X83991178Y-139683104D02*
X83700892Y-139683104D01*
X83846035Y-139683104D02*
X83846035Y-139175104D01*
X83797654Y-139247675D01*
X83749273Y-139296056D01*
X83700892Y-139320246D01*
X84305654Y-139175104D02*
X84354035Y-139175104D01*
X84402416Y-139199294D01*
X84426607Y-139223484D01*
X84450797Y-139271865D01*
X84474988Y-139368627D01*
X84474988Y-139489580D01*
X84450797Y-139586342D01*
X84426607Y-139634723D01*
X84402416Y-139658913D01*
X84354035Y-139683104D01*
X84305654Y-139683104D01*
X84257273Y-139658913D01*
X84233083Y-139634723D01*
X84208892Y-139586342D01*
X84184702Y-139489580D01*
X84184702Y-139368627D01*
X84208892Y-139271865D01*
X84233083Y-139223484D01*
X84257273Y-139199294D01*
X84305654Y-139175104D01*
X84692702Y-139683104D02*
X84692702Y-139175104D01*
X84741083Y-139489580D02*
X84886226Y-139683104D01*
X84886226Y-139344437D02*
X84692702Y-139537961D01*
X64941178Y-135873104D02*
X64650892Y-135873104D01*
X64796035Y-135873104D02*
X64796035Y-135365104D01*
X64747654Y-135437675D01*
X64699273Y-135486056D01*
X64650892Y-135510246D01*
X65255654Y-135365104D02*
X65304035Y-135365104D01*
X65352416Y-135389294D01*
X65376607Y-135413484D01*
X65400797Y-135461865D01*
X65424988Y-135558627D01*
X65424988Y-135679580D01*
X65400797Y-135776342D01*
X65376607Y-135824723D01*
X65352416Y-135848913D01*
X65304035Y-135873104D01*
X65255654Y-135873104D01*
X65207273Y-135848913D01*
X65183083Y-135824723D01*
X65158892Y-135776342D01*
X65134702Y-135679580D01*
X65134702Y-135558627D01*
X65158892Y-135461865D01*
X65183083Y-135413484D01*
X65207273Y-135389294D01*
X65255654Y-135365104D01*
X65642702Y-135873104D02*
X65642702Y-135365104D01*
X65691083Y-135679580D02*
X65836226Y-135873104D01*
X65836226Y-135534437D02*
X65642702Y-135727961D01*
X107954136Y-125432958D02*
X107978326Y-125408768D01*
X108026707Y-125384578D01*
X108147660Y-125384578D01*
X108196041Y-125408768D01*
X108220231Y-125432958D01*
X108244422Y-125481339D01*
X108244422Y-125529720D01*
X108220231Y-125602292D01*
X107929945Y-125892578D01*
X108244422Y-125892578D01*
X108437946Y-125432958D02*
X108462136Y-125408768D01*
X108510517Y-125384578D01*
X108631470Y-125384578D01*
X108679851Y-125408768D01*
X108704041Y-125432958D01*
X108728232Y-125481339D01*
X108728232Y-125529720D01*
X108704041Y-125602292D01*
X108413755Y-125892578D01*
X108728232Y-125892578D01*
X68648369Y-128325675D02*
X68648369Y-128615961D01*
X68648369Y-128470818D02*
X68140369Y-128470818D01*
X68212940Y-128519199D01*
X68261321Y-128567580D01*
X68285511Y-128615961D01*
X68140369Y-128011199D02*
X68140369Y-127962818D01*
X68164559Y-127914437D01*
X68188749Y-127890246D01*
X68237130Y-127866056D01*
X68333892Y-127841865D01*
X68454845Y-127841865D01*
X68551607Y-127866056D01*
X68599988Y-127890246D01*
X68624178Y-127914437D01*
X68648369Y-127962818D01*
X68648369Y-128011199D01*
X68624178Y-128059580D01*
X68599988Y-128083770D01*
X68551607Y-128107961D01*
X68454845Y-128132151D01*
X68333892Y-128132151D01*
X68237130Y-128107961D01*
X68188749Y-128083770D01*
X68164559Y-128059580D01*
X68140369Y-128011199D01*
X68648369Y-127624151D02*
X68140369Y-127624151D01*
X68454845Y-127575770D02*
X68648369Y-127430627D01*
X68309702Y-127430627D02*
X68503226Y-127624151D01*
X85333749Y-123929056D02*
X85309559Y-123904866D01*
X85285369Y-123856485D01*
X85285369Y-123735532D01*
X85309559Y-123687151D01*
X85333749Y-123662961D01*
X85382130Y-123638770D01*
X85430511Y-123638770D01*
X85503083Y-123662961D01*
X85793369Y-123953247D01*
X85793369Y-123638770D01*
X85793369Y-123421056D02*
X85285369Y-123421056D01*
X85599845Y-123372675D02*
X85793369Y-123227532D01*
X85454702Y-123227532D02*
X85648226Y-123421056D01*
X85793369Y-120070675D02*
X85793369Y-120360961D01*
X85793369Y-120215818D02*
X85285369Y-120215818D01*
X85357940Y-120264199D01*
X85406321Y-120312580D01*
X85430511Y-120360961D01*
X85285369Y-119756199D02*
X85285369Y-119707818D01*
X85309559Y-119659437D01*
X85333749Y-119635246D01*
X85382130Y-119611056D01*
X85478892Y-119586865D01*
X85599845Y-119586865D01*
X85696607Y-119611056D01*
X85744988Y-119635246D01*
X85769178Y-119659437D01*
X85793369Y-119707818D01*
X85793369Y-119756199D01*
X85769178Y-119804580D01*
X85744988Y-119828770D01*
X85696607Y-119852961D01*
X85599845Y-119877151D01*
X85478892Y-119877151D01*
X85382130Y-119852961D01*
X85333749Y-119828770D01*
X85309559Y-119804580D01*
X85285369Y-119756199D01*
X85793369Y-119369151D02*
X85285369Y-119369151D01*
X85599845Y-119320770D02*
X85793369Y-119175627D01*
X85454702Y-119175627D02*
X85648226Y-119369151D01*
X85793369Y-121975675D02*
X85793369Y-122265961D01*
X85793369Y-122120818D02*
X85285369Y-122120818D01*
X85357940Y-122169199D01*
X85406321Y-122217580D01*
X85430511Y-122265961D01*
X85285369Y-121661199D02*
X85285369Y-121612818D01*
X85309559Y-121564437D01*
X85333749Y-121540246D01*
X85382130Y-121516056D01*
X85478892Y-121491865D01*
X85599845Y-121491865D01*
X85696607Y-121516056D01*
X85744988Y-121540246D01*
X85769178Y-121564437D01*
X85793369Y-121612818D01*
X85793369Y-121661199D01*
X85769178Y-121709580D01*
X85744988Y-121733770D01*
X85696607Y-121757961D01*
X85599845Y-121782151D01*
X85478892Y-121782151D01*
X85382130Y-121757961D01*
X85333749Y-121733770D01*
X85309559Y-121709580D01*
X85285369Y-121661199D01*
X85793369Y-121274151D02*
X85285369Y-121274151D01*
X85599845Y-121225770D02*
X85793369Y-121080627D01*
X85454702Y-121080627D02*
X85648226Y-121274151D01*
X85503083Y-132063104D02*
X85212797Y-132063104D01*
X85357940Y-132063104D02*
X85357940Y-131555104D01*
X85309559Y-131627675D01*
X85261178Y-131676056D01*
X85212797Y-131700246D01*
X85720797Y-132063104D02*
X85720797Y-131555104D01*
X85769178Y-131869580D02*
X85914321Y-132063104D01*
X85914321Y-131724437D02*
X85720797Y-131917961D01*
X68581845Y-139979437D02*
X68581845Y-140318104D01*
X68460892Y-139785913D02*
X68339940Y-140148770D01*
X68654416Y-140148770D01*
X68847940Y-140269723D02*
X68872131Y-140293913D01*
X68847940Y-140318104D01*
X68823750Y-140293913D01*
X68847940Y-140269723D01*
X68847940Y-140318104D01*
X69041464Y-139810104D02*
X69380131Y-139810104D01*
X69162417Y-140318104D01*
X69573655Y-140318104D02*
X69573655Y-139810104D01*
X69622036Y-140124580D02*
X69767179Y-140318104D01*
X69767179Y-139979437D02*
X69573655Y-140172961D01*
X84626178Y-116823104D02*
X84335892Y-116823104D01*
X84481035Y-116823104D02*
X84481035Y-116315104D01*
X84432654Y-116387675D01*
X84384273Y-116436056D01*
X84335892Y-116460246D01*
X84940654Y-116315104D02*
X84989035Y-116315104D01*
X85037416Y-116339294D01*
X85061607Y-116363484D01*
X85085797Y-116411865D01*
X85109988Y-116508627D01*
X85109988Y-116629580D01*
X85085797Y-116726342D01*
X85061607Y-116774723D01*
X85037416Y-116798913D01*
X84989035Y-116823104D01*
X84940654Y-116823104D01*
X84892273Y-116798913D01*
X84868083Y-116774723D01*
X84843892Y-116726342D01*
X84819702Y-116629580D01*
X84819702Y-116508627D01*
X84843892Y-116411865D01*
X84868083Y-116363484D01*
X84892273Y-116339294D01*
X84940654Y-116315104D01*
X85327702Y-116823104D02*
X85327702Y-116315104D01*
X85376083Y-116629580D02*
X85521226Y-116823104D01*
X85521226Y-116484437D02*
X85327702Y-116677961D01*
X87117797Y-131603484D02*
X87141987Y-131579294D01*
X87190368Y-131555104D01*
X87311321Y-131555104D01*
X87359702Y-131579294D01*
X87383892Y-131603484D01*
X87408083Y-131651865D01*
X87408083Y-131700246D01*
X87383892Y-131772818D01*
X87093606Y-132063104D01*
X87408083Y-132063104D01*
X87625797Y-132063104D02*
X87625797Y-131555104D01*
X87674178Y-131869580D02*
X87819321Y-132063104D01*
X87819321Y-131724437D02*
X87625797Y-131917961D01*
X70486845Y-139979437D02*
X70486845Y-140318104D01*
X70365892Y-139785913D02*
X70244940Y-140148770D01*
X70559416Y-140148770D01*
X70752940Y-140269723D02*
X70777131Y-140293913D01*
X70752940Y-140318104D01*
X70728750Y-140293913D01*
X70752940Y-140269723D01*
X70752940Y-140318104D01*
X70946464Y-139810104D02*
X71285131Y-139810104D01*
X71067417Y-140318104D01*
X71478655Y-140318104D02*
X71478655Y-139810104D01*
X71527036Y-140124580D02*
X71672179Y-140318104D01*
X71672179Y-139979437D02*
X71478655Y-140172961D01*
D18*
X86082714Y-128816428D02*
X86844714Y-128308428D01*
X86082714Y-128308428D02*
X86844714Y-128816428D01*
X86772143Y-127582714D02*
X86808429Y-127619000D01*
X86844714Y-127727857D01*
X86844714Y-127800428D01*
X86808429Y-127909285D01*
X86735857Y-127981857D01*
X86663286Y-128018142D01*
X86518143Y-128054428D01*
X86409286Y-128054428D01*
X86264143Y-128018142D01*
X86191571Y-127981857D01*
X86119000Y-127909285D01*
X86082714Y-127800428D01*
X86082714Y-127727857D01*
X86119000Y-127619000D01*
X86155286Y-127582714D01*
X86844714Y-127219857D02*
X86844714Y-127074714D01*
X86808429Y-127002142D01*
X86772143Y-126965857D01*
X86663286Y-126893285D01*
X86518143Y-126857000D01*
X86227857Y-126857000D01*
X86155286Y-126893285D01*
X86119000Y-126929571D01*
X86082714Y-127002142D01*
X86082714Y-127147285D01*
X86119000Y-127219857D01*
X86155286Y-127256142D01*
X86227857Y-127292428D01*
X86409286Y-127292428D01*
X86481857Y-127256142D01*
X86518143Y-127219857D01*
X86554429Y-127147285D01*
X86554429Y-127002142D01*
X86518143Y-126929571D01*
X86481857Y-126893285D01*
X86409286Y-126857000D01*
X86844714Y-126131286D02*
X86844714Y-126566714D01*
X86844714Y-126349000D02*
X86082714Y-126349000D01*
X86191571Y-126421571D01*
X86264143Y-126494143D01*
X86300429Y-126566714D01*
X86336714Y-125478143D02*
X86844714Y-125478143D01*
X86046429Y-125659572D02*
X86590714Y-125841000D01*
X86590714Y-125369286D01*
X86082714Y-124933858D02*
X86082714Y-124861286D01*
X86119000Y-124788715D01*
X86155286Y-124752429D01*
X86227857Y-124716143D01*
X86373000Y-124679858D01*
X86554429Y-124679858D01*
X86699571Y-124716143D01*
X86772143Y-124752429D01*
X86808429Y-124788715D01*
X86844714Y-124861286D01*
X86844714Y-124933858D01*
X86808429Y-125006429D01*
X86772143Y-125042715D01*
X86699571Y-125079000D01*
X86554429Y-125115286D01*
X86373000Y-125115286D01*
X86227857Y-125079000D01*
X86155286Y-125042715D01*
X86119000Y-125006429D01*
X86082714Y-124933858D01*
D17*
X69071701Y-123300104D02*
X69120082Y-123300104D01*
X69168463Y-123324294D01*
X69192654Y-123348484D01*
X69216844Y-123396865D01*
X69241035Y-123493627D01*
X69241035Y-123614580D01*
X69216844Y-123711342D01*
X69192654Y-123759723D01*
X69168463Y-123783913D01*
X69120082Y-123808104D01*
X69071701Y-123808104D01*
X69023320Y-123783913D01*
X68999130Y-123759723D01*
X68974939Y-123711342D01*
X68950749Y-123614580D01*
X68950749Y-123493627D01*
X68974939Y-123396865D01*
X68999130Y-123348484D01*
X69023320Y-123324294D01*
X69071701Y-123300104D01*
X69458749Y-123759723D02*
X69482940Y-123783913D01*
X69458749Y-123808104D01*
X69434559Y-123783913D01*
X69458749Y-123759723D01*
X69458749Y-123808104D01*
X69966750Y-123808104D02*
X69676464Y-123808104D01*
X69821607Y-123808104D02*
X69821607Y-123300104D01*
X69773226Y-123372675D01*
X69724845Y-123421056D01*
X69676464Y-123445246D01*
X70402179Y-123469437D02*
X70402179Y-123808104D01*
X70184464Y-123469437D02*
X70184464Y-123735532D01*
X70208655Y-123783913D01*
X70257036Y-123808104D01*
X70329607Y-123808104D01*
X70377988Y-123783913D01*
X70402179Y-123759723D01*
X78082654Y-131763992D02*
X78034273Y-131739801D01*
X78010082Y-131715611D01*
X77985892Y-131667230D01*
X77985892Y-131643039D01*
X78010082Y-131594658D01*
X78034273Y-131570468D01*
X78082654Y-131546278D01*
X78179416Y-131546278D01*
X78227797Y-131570468D01*
X78251987Y-131594658D01*
X78276178Y-131643039D01*
X78276178Y-131667230D01*
X78251987Y-131715611D01*
X78227797Y-131739801D01*
X78179416Y-131763992D01*
X78082654Y-131763992D01*
X78034273Y-131788182D01*
X78010082Y-131812373D01*
X77985892Y-131860754D01*
X77985892Y-131957516D01*
X78010082Y-132005897D01*
X78034273Y-132030087D01*
X78082654Y-132054278D01*
X78179416Y-132054278D01*
X78227797Y-132030087D01*
X78251987Y-132005897D01*
X78276178Y-131957516D01*
X78276178Y-131860754D01*
X78251987Y-131812373D01*
X78227797Y-131788182D01*
X78179416Y-131763992D01*
X78493892Y-131715611D02*
X78493892Y-132223611D01*
X78493892Y-131739801D02*
X78542273Y-131715611D01*
X78639035Y-131715611D01*
X78687416Y-131739801D01*
X78711607Y-131763992D01*
X78735797Y-131812373D01*
X78735797Y-131957516D01*
X78711607Y-132005897D01*
X78687416Y-132030087D01*
X78639035Y-132054278D01*
X78542273Y-132054278D01*
X78493892Y-132030087D01*
X79122845Y-131788182D02*
X78953511Y-131788182D01*
X78953511Y-132054278D02*
X78953511Y-131546278D01*
X79195416Y-131546278D01*
X83162654Y-131772818D02*
X83114273Y-131748627D01*
X83090082Y-131724437D01*
X83065892Y-131676056D01*
X83065892Y-131651865D01*
X83090082Y-131603484D01*
X83114273Y-131579294D01*
X83162654Y-131555104D01*
X83259416Y-131555104D01*
X83307797Y-131579294D01*
X83331987Y-131603484D01*
X83356178Y-131651865D01*
X83356178Y-131676056D01*
X83331987Y-131724437D01*
X83307797Y-131748627D01*
X83259416Y-131772818D01*
X83162654Y-131772818D01*
X83114273Y-131797008D01*
X83090082Y-131821199D01*
X83065892Y-131869580D01*
X83065892Y-131966342D01*
X83090082Y-132014723D01*
X83114273Y-132038913D01*
X83162654Y-132063104D01*
X83259416Y-132063104D01*
X83307797Y-132038913D01*
X83331987Y-132014723D01*
X83356178Y-131966342D01*
X83356178Y-131869580D01*
X83331987Y-131821199D01*
X83307797Y-131797008D01*
X83259416Y-131772818D01*
X83573892Y-131724437D02*
X83573892Y-132232437D01*
X83573892Y-131748627D02*
X83622273Y-131724437D01*
X83719035Y-131724437D01*
X83767416Y-131748627D01*
X83791607Y-131772818D01*
X83815797Y-131821199D01*
X83815797Y-131966342D01*
X83791607Y-132014723D01*
X83767416Y-132038913D01*
X83719035Y-132063104D01*
X83622273Y-132063104D01*
X83573892Y-132038913D01*
X84202845Y-131797008D02*
X84033511Y-131797008D01*
X84033511Y-132063104D02*
X84033511Y-131555104D01*
X84275416Y-131555104D01*
X86809369Y-116774723D02*
X86833559Y-116798913D01*
X86809369Y-116823104D01*
X86785178Y-116798913D01*
X86809369Y-116774723D01*
X86809369Y-116823104D01*
X86712607Y-116339294D02*
X86760988Y-116315104D01*
X86881940Y-116315104D01*
X86930321Y-116339294D01*
X86954512Y-116387675D01*
X86954512Y-116436056D01*
X86930321Y-116484437D01*
X86906131Y-116508627D01*
X86857750Y-116532818D01*
X86833559Y-116557008D01*
X86809369Y-116605389D01*
X86809369Y-116629580D01*
X59839524Y-90859810D02*
X59549238Y-90859810D01*
X59694381Y-90859810D02*
X59694381Y-90351810D01*
X59646000Y-90424381D01*
X59597619Y-90472762D01*
X59549238Y-90496952D01*
X60057238Y-90859810D02*
X60057238Y-90351810D01*
X60105619Y-90666286D02*
X60250762Y-90859810D01*
X60250762Y-90521143D02*
X60057238Y-90714667D01*
X79439524Y-90959810D02*
X79149238Y-90959810D01*
X79294381Y-90959810D02*
X79294381Y-90451810D01*
X79246000Y-90524381D01*
X79197619Y-90572762D01*
X79149238Y-90596952D01*
X79657238Y-90959810D02*
X79657238Y-90451810D01*
X79705619Y-90766286D02*
X79850762Y-90959810D01*
X79850762Y-90621143D02*
X79657238Y-90814667D01*
X98939524Y-91059810D02*
X98649238Y-91059810D01*
X98794381Y-91059810D02*
X98794381Y-90551810D01*
X98746000Y-90624381D01*
X98697619Y-90672762D01*
X98649238Y-90696952D01*
X99157238Y-91059810D02*
X99157238Y-90551810D01*
X99205619Y-90866286D02*
X99350762Y-91059810D01*
X99350762Y-90721143D02*
X99157238Y-90914667D01*
X118639524Y-91059810D02*
X118349238Y-91059810D01*
X118494381Y-91059810D02*
X118494381Y-90551810D01*
X118446000Y-90624381D01*
X118397619Y-90672762D01*
X118349238Y-90696952D01*
X118857238Y-91059810D02*
X118857238Y-90551810D01*
X118905619Y-90866286D02*
X119050762Y-91059810D01*
X119050762Y-90721143D02*
X118857238Y-90914667D01*
X138239524Y-91059810D02*
X137949238Y-91059810D01*
X138094381Y-91059810D02*
X138094381Y-90551810D01*
X138046000Y-90624381D01*
X137997619Y-90672762D01*
X137949238Y-90696952D01*
X138457238Y-91059810D02*
X138457238Y-90551810D01*
X138505619Y-90866286D02*
X138650762Y-91059810D01*
X138650762Y-90721143D02*
X138457238Y-90914667D01*
M02*
