G04 #@! TF.FileFunction,Soldermask,Bot*
%FSLAX46Y46*%
G04 Gerber Fmt 4.6, Leading zero omitted, Abs format (unit mm)*
G04 Created by KiCad (PCBNEW (2015-07-22 BZR 5980)-product) date Friday, October 16, 2015 'amt' 10:57:48 am*
%MOMM*%
G01*
G04 APERTURE LIST*
%ADD10C,0.100000*%
%ADD11R,0.889000X0.635000*%
%ADD12R,2.000000X2.000000*%
%ADD13C,2.000000*%
%ADD14C,2.500000*%
%ADD15C,1.500000*%
%ADD16R,3.000000X3.000000*%
%ADD17R,1.727200X2.032000*%
%ADD18O,1.524000X1.778000*%
%ADD19R,1.600200X3.599180*%
%ADD20R,2.032000X2.032000*%
%ADD21O,2.032000X2.032000*%
%ADD22R,1.778000X1.778000*%
%ADD23O,1.727200X2.032000*%
%ADD24C,0.899160*%
%ADD25R,2.000000X8.000000*%
%ADD26R,2.000000X5.000000*%
%ADD27C,12.500000*%
%ADD28C,1.501140*%
G04 APERTURE END LIST*
D10*
D11*
X144400000Y-59468000D03*
X144400000Y-60992000D03*
X124800000Y-59468000D03*
X124800000Y-60992000D03*
X105200000Y-59468000D03*
X105200000Y-60992000D03*
X85600000Y-59468000D03*
X85600000Y-60992000D03*
D12*
X141900000Y-61730000D03*
D13*
X141900000Y-59190000D03*
D12*
X122300000Y-61730000D03*
D13*
X122300000Y-59190000D03*
D12*
X102700000Y-61730000D03*
D13*
X102700000Y-59190000D03*
D12*
X83100000Y-61730000D03*
D13*
X83100000Y-59190000D03*
D12*
X139400000Y-61730000D03*
D13*
X139400000Y-59190000D03*
D12*
X119800000Y-61730000D03*
D13*
X119800000Y-59190000D03*
D12*
X100200000Y-61730000D03*
D13*
X100200000Y-59190000D03*
D12*
X80600000Y-61730000D03*
D13*
X80600000Y-59190000D03*
D12*
X61000000Y-61730000D03*
D13*
X61000000Y-59190000D03*
D12*
X63500000Y-61730000D03*
D13*
X63500000Y-59190000D03*
D14*
X141600000Y-79930000D03*
X122000000Y-79930000D03*
X102400000Y-79930000D03*
X82800000Y-79930000D03*
X63200000Y-79930000D03*
D15*
X123731448Y-150146544D03*
X123731448Y-151896544D03*
D16*
X138731448Y-147896544D03*
D17*
X69777275Y-153784192D03*
D18*
X71777275Y-153784192D03*
X73777275Y-153784192D03*
X75777275Y-153784192D03*
X77777275Y-153784192D03*
X79777275Y-153784192D03*
X81777275Y-153784192D03*
X83777275Y-153784192D03*
X85777275Y-153784192D03*
X87777275Y-153784192D03*
D19*
X79300000Y-113730000D03*
D20*
X73498559Y-114561294D03*
D21*
X76038559Y-114561294D03*
D19*
X77250000Y-140230000D03*
D22*
X63338559Y-129293294D03*
X63338559Y-126753294D03*
X63338559Y-124213294D03*
D17*
X70958559Y-136278294D03*
D23*
X73498559Y-136278294D03*
X76038559Y-136278294D03*
X78578559Y-136278294D03*
X81118559Y-136278294D03*
X83658559Y-136278294D03*
D17*
X68418559Y-132468294D03*
D23*
X70958559Y-132468294D03*
X73498559Y-132468294D03*
X76038559Y-132468294D03*
D22*
X112340410Y-128662661D03*
X112340410Y-126122661D03*
X112340410Y-123582661D03*
D24*
X99936704Y-120821380D03*
X99936704Y-125220660D03*
D25*
X70750000Y-61480000D03*
X90400000Y-61430000D03*
X110000000Y-61530000D03*
X129600000Y-61430000D03*
X70750000Y-78730000D03*
X90400000Y-78630000D03*
X109900000Y-78630000D03*
X129500000Y-78630000D03*
X149200000Y-61630000D03*
X149100000Y-78530000D03*
D26*
X143050000Y-88230000D03*
X140050000Y-88230000D03*
X123450000Y-88280000D03*
X120450000Y-88280000D03*
X103850000Y-88305000D03*
X100850000Y-88305000D03*
X84250000Y-88280000D03*
X81250000Y-88280000D03*
X64675000Y-88305000D03*
X61675000Y-88305000D03*
D25*
X56700000Y-61430000D03*
X76400000Y-61530000D03*
X95900000Y-61430000D03*
X115500000Y-61530000D03*
D10*
G36*
X110103806Y-109669340D02*
X111518020Y-108255126D01*
X117174874Y-113911980D01*
X115760660Y-115326194D01*
X110103806Y-109669340D01*
X110103806Y-109669340D01*
G37*
G36*
X112225126Y-107548020D02*
X113639340Y-106133806D01*
X119296194Y-111790660D01*
X117881980Y-113204874D01*
X112225126Y-107548020D01*
X112225126Y-107548020D01*
G37*
G36*
X148660660Y-106133806D02*
X150074874Y-107548020D01*
X144418020Y-113204874D01*
X143003806Y-111790660D01*
X148660660Y-106133806D01*
X148660660Y-106133806D01*
G37*
G36*
X150781980Y-108255126D02*
X152196194Y-109669340D01*
X146539340Y-115326194D01*
X145125126Y-113911980D01*
X150781980Y-108255126D01*
X150781980Y-108255126D01*
G37*
G36*
X152196194Y-144690660D02*
X150781980Y-146104874D01*
X145125126Y-140448020D01*
X146539340Y-139033806D01*
X152196194Y-144690660D01*
X152196194Y-144690660D01*
G37*
G36*
X150074874Y-146811980D02*
X148660660Y-148226194D01*
X143003806Y-142569340D01*
X144418020Y-141155126D01*
X150074874Y-146811980D01*
X150074874Y-146811980D01*
G37*
G36*
X113639340Y-148226194D02*
X112225126Y-146811980D01*
X117881980Y-141155126D01*
X119296194Y-142569340D01*
X113639340Y-148226194D01*
X113639340Y-148226194D01*
G37*
G36*
X111518020Y-146104874D02*
X110103806Y-144690660D01*
X115760660Y-139033806D01*
X117174874Y-140448020D01*
X111518020Y-146104874D01*
X111518020Y-146104874D01*
G37*
D25*
X135100000Y-61430000D03*
D27*
X122000000Y-97830000D03*
X102300000Y-97830000D03*
X82775000Y-97805000D03*
X63175000Y-97805000D03*
X141600000Y-97830000D03*
D25*
X56000000Y-82230000D03*
X75750000Y-82230000D03*
X95250000Y-82230000D03*
X114750000Y-82230000D03*
X134500000Y-82230000D03*
D17*
X73077275Y-151484192D03*
D23*
X75617275Y-151484192D03*
X78157275Y-151484192D03*
X80697275Y-151484192D03*
X83237275Y-151484192D03*
X85777275Y-151484192D03*
D17*
X126481448Y-150896544D03*
D23*
X129021448Y-150896544D03*
X131561448Y-150896544D03*
X134101448Y-150896544D03*
X136641448Y-150896544D03*
X139181448Y-150896544D03*
D28*
X75200000Y-139530000D03*
X79300000Y-139530000D03*
X81400000Y-139530000D03*
X73200000Y-139530000D03*
X63000000Y-120730000D03*
X67000000Y-142930000D03*
D11*
X66000000Y-59468000D03*
X66000000Y-60992000D03*
M02*
