G04 #@! TF.FileFunction,Copper,L1,Top,Signal*
%FSLAX46Y46*%
G04 Gerber Fmt 4.6, Leading zero omitted, Abs format (unit mm)*
G04 Created by KiCad (PCBNEW (2015-07-22 BZR 5980)-product) date Sun 06 Sep 2015 09:14:58 AM MDT*
%MOMM*%
G01*
G04 APERTURE LIST*
%ADD10C,0.100000*%
%ADD11R,1.727200X2.032000*%
%ADD12O,1.524000X1.778000*%
%ADD13R,1.600200X3.599180*%
%ADD14R,2.032000X2.032000*%
%ADD15O,2.032000X2.032000*%
%ADD16R,1.778000X1.778000*%
%ADD17R,0.889000X0.635000*%
%ADD18R,0.635000X0.889000*%
%ADD19R,0.800100X0.800100*%
%ADD20R,1.500000X2.000000*%
%ADD21O,1.727200X2.032000*%
%ADD22R,1.500000X0.550000*%
%ADD23R,0.550000X1.500000*%
%ADD24R,1.000000X1.000000*%
%ADD25R,0.650000X1.060000*%
%ADD26R,1.100000X1.200000*%
%ADD27R,2.301240X0.500380*%
%ADD28R,2.499360X1.998980*%
%ADD29R,0.797560X0.797560*%
%ADD30R,2.000000X8.000000*%
%ADD31R,2.000000X5.000000*%
%ADD32C,12.500000*%
%ADD33C,0.685800*%
%ADD34C,0.762000*%
%ADD35C,0.177800*%
%ADD36C,0.508000*%
%ADD37C,0.304800*%
%ADD38C,1.270000*%
%ADD39C,0.254000*%
G04 APERTURE END LIST*
D10*
D11*
X67533500Y-149062500D03*
D12*
X69533500Y-149062500D03*
X71533500Y-149062500D03*
X73533500Y-149062500D03*
X75533500Y-149062500D03*
X77533500Y-149062500D03*
X79533500Y-149062500D03*
X81533500Y-149062500D03*
X83533500Y-149062500D03*
X85533500Y-149062500D03*
D13*
X81000000Y-113730000D03*
D14*
X73498559Y-114561294D03*
D15*
X76038559Y-114561294D03*
D13*
X77250000Y-140230000D03*
D16*
X63338559Y-129293294D03*
X63338559Y-126753294D03*
X63338559Y-124213294D03*
D17*
X91278559Y-131325294D03*
X91278559Y-129801294D03*
D18*
X87976559Y-136278294D03*
X89500559Y-136278294D03*
D19*
X89007799Y-132788294D03*
X89007799Y-134688294D03*
X91006779Y-133738294D03*
D17*
X106841184Y-124900768D03*
X106841184Y-126424768D03*
D20*
X99841184Y-128662768D03*
X99841184Y-135662768D03*
X105341184Y-128662768D03*
X105341184Y-135662768D03*
D11*
X70958559Y-136278294D03*
D21*
X73498559Y-136278294D03*
X76038559Y-136278294D03*
X78578559Y-136278294D03*
X81118559Y-136278294D03*
X83658559Y-136278294D03*
D11*
X68418559Y-132468294D03*
D21*
X70958559Y-132468294D03*
X73498559Y-132468294D03*
X76038559Y-132468294D03*
D22*
X71608559Y-118943294D03*
X71608559Y-119743294D03*
X71608559Y-120543294D03*
X71608559Y-121343294D03*
X71608559Y-122143294D03*
X71608559Y-122943294D03*
X71608559Y-123743294D03*
X71608559Y-124543294D03*
X71608559Y-125343294D03*
X71608559Y-126143294D03*
X71608559Y-126943294D03*
D23*
X73308559Y-128643294D03*
X74108559Y-128643294D03*
X74908559Y-128643294D03*
X75708559Y-128643294D03*
X76508559Y-128643294D03*
X77308559Y-128643294D03*
X78108559Y-128643294D03*
X78908559Y-128643294D03*
X79708559Y-128643294D03*
X80508559Y-128643294D03*
X81308559Y-128643294D03*
D22*
X83008559Y-126943294D03*
X83008559Y-126143294D03*
X83008559Y-125343294D03*
X83008559Y-124543294D03*
X83008559Y-123743294D03*
X83008559Y-122943294D03*
X83008559Y-122143294D03*
X83008559Y-121343294D03*
X83008559Y-120543294D03*
X83008559Y-119743294D03*
X83008559Y-118943294D03*
D23*
X81308559Y-117243294D03*
X80508559Y-117243294D03*
X79708559Y-117243294D03*
X78908559Y-117243294D03*
X78108559Y-117243294D03*
X77308559Y-117243294D03*
X76508559Y-117243294D03*
X75708559Y-117243294D03*
X74908559Y-117243294D03*
X74108559Y-117243294D03*
X73308559Y-117243294D03*
D17*
X91278559Y-123959294D03*
X91278559Y-125483294D03*
D18*
X87976559Y-129547294D03*
X89500559Y-129547294D03*
X71085559Y-115323294D03*
X69561559Y-115323294D03*
X67656559Y-119768294D03*
X69180559Y-119768294D03*
X67656559Y-129928294D03*
X69180559Y-129928294D03*
D17*
X83023559Y-115831294D03*
X83023559Y-117355294D03*
D18*
X83531559Y-128658294D03*
X85055559Y-128658294D03*
X69561559Y-117228294D03*
X71085559Y-117228294D03*
D24*
X64588559Y-117228294D03*
X62088559Y-117228294D03*
X87388559Y-114443294D03*
X87388559Y-111943294D03*
X87488559Y-138183294D03*
X89988559Y-138183294D03*
X66513559Y-138203294D03*
X66513559Y-140703294D03*
D18*
X89500559Y-123959294D03*
X87976559Y-123959294D03*
D19*
X68738559Y-113784054D03*
X70638559Y-113784054D03*
X69688559Y-111785074D03*
X90912799Y-116913294D03*
X90912799Y-118813294D03*
X92911779Y-117863294D03*
X87783559Y-140357534D03*
X85883559Y-140357534D03*
X86833559Y-142356514D03*
X63704319Y-136593294D03*
X63704319Y-134693294D03*
X61705339Y-135643294D03*
D17*
X67783559Y-117355294D03*
X67783559Y-115831294D03*
D18*
X87976559Y-119768294D03*
X89500559Y-119768294D03*
D17*
X67148559Y-114180294D03*
X67148559Y-112656294D03*
D18*
X87976559Y-117863294D03*
X89500559Y-117863294D03*
D17*
X86198559Y-134881294D03*
X86198559Y-136405294D03*
X67148559Y-134881294D03*
X67148559Y-136405294D03*
X84293559Y-140215294D03*
X84293559Y-138691294D03*
X65243559Y-134881294D03*
X65243559Y-136405294D03*
X108341184Y-124900768D03*
X108341184Y-126424768D03*
D18*
X69180559Y-128023294D03*
X67656559Y-128023294D03*
X86325559Y-123578294D03*
X84801559Y-123578294D03*
X84801559Y-119768294D03*
X86325559Y-119768294D03*
X84801559Y-121673294D03*
X86325559Y-121673294D03*
D17*
X85563559Y-132595294D03*
X85563559Y-131071294D03*
X69053559Y-139326294D03*
X69053559Y-140850294D03*
X84928559Y-115831294D03*
X84928559Y-117355294D03*
X87468559Y-131071294D03*
X87468559Y-132595294D03*
X70958559Y-139326294D03*
X70958559Y-140850294D03*
D25*
X89700000Y-125630000D03*
X88750000Y-125630000D03*
X87800000Y-125630000D03*
X87800000Y-127830000D03*
X89700000Y-127830000D03*
D26*
X81818559Y-130983294D03*
X81818559Y-132683294D03*
X80418559Y-132683294D03*
X80418559Y-130983294D03*
D17*
X69688559Y-122816294D03*
X69688559Y-124340294D03*
D16*
X112340410Y-128662661D03*
X112340410Y-126122661D03*
X112340410Y-123582661D03*
D17*
X78578559Y-131062468D03*
X78578559Y-132586468D03*
X83658559Y-132595294D03*
X83658559Y-131071294D03*
D27*
X102535124Y-121420820D03*
X102535124Y-122220920D03*
X102535124Y-123021020D03*
X102535124Y-123821120D03*
X102535124Y-124621220D03*
D28*
X102436064Y-118570940D03*
X96936964Y-118570940D03*
X102436064Y-127471100D03*
X96936964Y-127471100D03*
D17*
X86833559Y-115831294D03*
X86833559Y-117355294D03*
D29*
X85690559Y-114053294D03*
X84191959Y-114053294D03*
D10*
G36*
X63174874Y-113886980D02*
X61760660Y-115301194D01*
X56103806Y-109644340D01*
X57518020Y-108230126D01*
X63174874Y-113886980D01*
X63174874Y-113886980D01*
G37*
G36*
X65296194Y-111765660D02*
X63881980Y-113179874D01*
X58225126Y-107523020D01*
X59639340Y-106108806D01*
X65296194Y-111765660D01*
X65296194Y-111765660D01*
G37*
G36*
X90468020Y-113154874D02*
X89053806Y-111740660D01*
X94710660Y-106083806D01*
X96124874Y-107498020D01*
X90468020Y-113154874D01*
X90468020Y-113154874D01*
G37*
G36*
X92589340Y-115276194D02*
X91175126Y-113861980D01*
X96831980Y-108205126D01*
X98246194Y-109619340D01*
X92589340Y-115276194D01*
X92589340Y-115276194D01*
G37*
G36*
X91150126Y-140423020D02*
X92564340Y-139008806D01*
X98221194Y-144665660D01*
X96806980Y-146079874D01*
X91150126Y-140423020D01*
X91150126Y-140423020D01*
G37*
G36*
X89028806Y-142544340D02*
X90443020Y-141130126D01*
X96099874Y-146786980D01*
X94685660Y-148201194D01*
X89028806Y-142544340D01*
X89028806Y-142544340D01*
G37*
G36*
X63806980Y-141180126D02*
X65221194Y-142594340D01*
X59564340Y-148251194D01*
X58150126Y-146836980D01*
X63806980Y-141180126D01*
X63806980Y-141180126D01*
G37*
G36*
X61685660Y-139058806D02*
X63099874Y-140473020D01*
X57443020Y-146129874D01*
X56028806Y-144715660D01*
X61685660Y-139058806D01*
X61685660Y-139058806D01*
G37*
D30*
X70750000Y-61480000D03*
X90400000Y-61430000D03*
X110000000Y-61530000D03*
X129600000Y-61430000D03*
X70750000Y-78730000D03*
X90400000Y-78630000D03*
X109900000Y-78630000D03*
X129500000Y-78630000D03*
X149200000Y-61630000D03*
X149100000Y-78530000D03*
D31*
X143050000Y-88230000D03*
X140050000Y-88230000D03*
X123450000Y-88280000D03*
X120450000Y-88280000D03*
X103850000Y-88305000D03*
X100850000Y-88305000D03*
X84250000Y-88280000D03*
X81250000Y-88280000D03*
X64675000Y-88305000D03*
X61675000Y-88305000D03*
D30*
X56700000Y-61430000D03*
X76400000Y-61530000D03*
X95900000Y-61430000D03*
X115500000Y-61530000D03*
X135100000Y-61430000D03*
D32*
X122000000Y-97830000D03*
X102300000Y-97830000D03*
X82775000Y-97805000D03*
X63175000Y-97805000D03*
X141600000Y-97830000D03*
D30*
X56000000Y-82230000D03*
X75750000Y-82230000D03*
X95250000Y-82230000D03*
X114750000Y-82230000D03*
X134500000Y-82230000D03*
D29*
X66300000Y-89880700D03*
X66300000Y-91379300D03*
X86000000Y-89880700D03*
X86000000Y-91379300D03*
X105600000Y-89980700D03*
X105600000Y-91479300D03*
X125300000Y-89980700D03*
X125300000Y-91479300D03*
X144900000Y-89980700D03*
X144900000Y-91479300D03*
D17*
X59900000Y-89868000D03*
X59900000Y-91392000D03*
X79500000Y-89968000D03*
X79500000Y-91492000D03*
X99000000Y-90068000D03*
X99000000Y-91592000D03*
X118700000Y-90068000D03*
X118700000Y-91592000D03*
X138300000Y-90068000D03*
X138300000Y-91592000D03*
D11*
X73883500Y-153507500D03*
D21*
X76423500Y-153507500D03*
X78963500Y-153507500D03*
X81503500Y-153507500D03*
X84043500Y-153507500D03*
X86583500Y-153507500D03*
D33*
X84928559Y-112783294D03*
X66660968Y-142434425D03*
X67783559Y-142628294D03*
X66513559Y-141358294D03*
X91160968Y-137548294D03*
X92548559Y-136278294D03*
X91278559Y-122943294D03*
X62068559Y-118498294D03*
X84293559Y-112148294D03*
X85563559Y-112148294D03*
X88750000Y-125630000D03*
X88738559Y-131833294D03*
X87468559Y-121038294D03*
X88738559Y-121038294D03*
X90008559Y-121038294D03*
X64608559Y-135008294D03*
X65878559Y-133738294D03*
X64608559Y-133738294D03*
X69688559Y-114053294D03*
X71593559Y-114053294D03*
X84928559Y-140088294D03*
X86198559Y-138183294D03*
X85563559Y-139453294D03*
X78578559Y-119133294D03*
X67148559Y-122308294D03*
X65243559Y-124213294D03*
X69053559Y-124848294D03*
X69053559Y-115958294D03*
X66513559Y-119768294D03*
X84928559Y-119133294D03*
X79848559Y-132468294D03*
X83023559Y-131198294D03*
X75403559Y-126753294D03*
X81118559Y-126753294D03*
X74133559Y-119133294D03*
X73498559Y-122308294D03*
X89373559Y-131198294D03*
X85563559Y-129928294D03*
X72228559Y-130563294D03*
X68418559Y-138183294D03*
X77308559Y-124848294D03*
X74768559Y-126118294D03*
X76038559Y-125483294D03*
X81372559Y-120657294D03*
X86198559Y-118498294D03*
X86198559Y-133738294D03*
X82388559Y-128658294D03*
X63973559Y-131198294D03*
X69942559Y-125483294D03*
X62703559Y-131198294D03*
X76038559Y-122308294D03*
X105341184Y-124662768D03*
X111341184Y-131162768D03*
X110341184Y-130162768D03*
X86833559Y-117228294D03*
X77943559Y-118513996D03*
D34*
X84928559Y-112783294D02*
X85563559Y-112148294D01*
X84293559Y-112148294D02*
X84928559Y-112783294D01*
D35*
X87800000Y-125630000D02*
X87800000Y-124930000D01*
X88000000Y-124730000D02*
X89700000Y-124730000D01*
X87800000Y-124930000D02*
X88000000Y-124730000D01*
D36*
X89700000Y-125630000D02*
X89700000Y-124730000D01*
X89700000Y-124730000D02*
X89700000Y-124158735D01*
X89700000Y-124158735D02*
X89500559Y-123959294D01*
X89500559Y-123959294D02*
X89520706Y-123959294D01*
X89520706Y-123959294D02*
X90536706Y-122943294D01*
X90536706Y-122943294D02*
X91278559Y-122943294D01*
D34*
X66513559Y-140703294D02*
X66513559Y-141358294D01*
X66660968Y-142434425D02*
X66410968Y-141460885D01*
X66410968Y-141460885D02*
X66513559Y-141358294D01*
X60171108Y-145694565D02*
X60400828Y-145694565D01*
X60400828Y-145694565D02*
X64737099Y-141358294D01*
X64737099Y-141358294D02*
X66513559Y-141358294D01*
X67783559Y-142628294D02*
X66717099Y-142378294D01*
X66717099Y-142378294D02*
X66660968Y-142434425D01*
X67783559Y-142628294D02*
X66513559Y-141358294D01*
X91160968Y-137548294D02*
X92548559Y-137548294D01*
X92548559Y-136278294D02*
X92548559Y-137548294D01*
X90910968Y-139184425D02*
X90912428Y-139184425D01*
X90912428Y-139184425D02*
X92548559Y-137548294D01*
X89988559Y-138183294D02*
X89988559Y-138262016D01*
X89988559Y-138262016D02*
X90910968Y-139184425D01*
X90910968Y-139184425D02*
X95671108Y-143944565D01*
X95671108Y-143944565D02*
X95671108Y-144174285D01*
X94150828Y-108674285D02*
X93671108Y-108674285D01*
X93671108Y-108674285D02*
X90402099Y-111943294D01*
X90402099Y-111943294D02*
X87388559Y-111943294D01*
X58650828Y-110194565D02*
X58650828Y-110424285D01*
X58650828Y-110424285D02*
X62088559Y-113862016D01*
X62088559Y-113862016D02*
X62088559Y-117228294D01*
X85563559Y-112148294D02*
X84293559Y-112148294D01*
X87388559Y-111943294D02*
X85768559Y-111943294D01*
X85768559Y-111943294D02*
X85563559Y-112148294D01*
X87466559Y-112021294D02*
X87388559Y-111943294D01*
D35*
X91278559Y-123959294D02*
X91278559Y-122943294D01*
X86325559Y-121673294D02*
X88738559Y-121673294D01*
X89500559Y-122435294D02*
X89500559Y-123959294D01*
X88738559Y-121673294D02*
X89500559Y-122435294D01*
D34*
X62088559Y-117228294D02*
X62088559Y-118478294D01*
X62088559Y-118478294D02*
X62068559Y-118498294D01*
X89988559Y-138183294D02*
X90008559Y-138183294D01*
D37*
X89858559Y-125483294D02*
X89688559Y-125653294D01*
D35*
X89688559Y-125653294D02*
X89543559Y-125653294D01*
D37*
X87638559Y-125503294D02*
X87788559Y-125653294D01*
D35*
X88738559Y-121038294D02*
X87468559Y-121038294D01*
X84166559Y-114053294D02*
X83658559Y-114053294D01*
X83658559Y-114053294D02*
X83023559Y-114688294D01*
X63704319Y-134693294D02*
X64293559Y-134693294D01*
X64293559Y-134693294D02*
X64608559Y-135008294D01*
X65243559Y-134373294D02*
X65878559Y-133738294D01*
X65243559Y-134373294D02*
X65243559Y-134881294D01*
X70638559Y-113784054D02*
X69957799Y-113784054D01*
X69957799Y-113784054D02*
X69688559Y-114053294D01*
X70638559Y-113784054D02*
X71324319Y-113784054D01*
X71324319Y-113784054D02*
X71593559Y-114053294D01*
X90912799Y-118813294D02*
X90912799Y-120134054D01*
X90912799Y-120134054D02*
X90008559Y-121038294D01*
X85883559Y-140357534D02*
X85197799Y-140357534D01*
X85197799Y-140357534D02*
X84928559Y-140088294D01*
X85883559Y-140357534D02*
X85883559Y-139773294D01*
X85883559Y-139773294D02*
X85563559Y-139453294D01*
X80508559Y-117243294D02*
X80508559Y-118473294D01*
X79848559Y-119133294D02*
X78578559Y-119133294D01*
X80508559Y-118473294D02*
X79848559Y-119133294D01*
X65243559Y-124213294D02*
X67148559Y-122308294D01*
X67656559Y-129928294D02*
X67656559Y-130563294D01*
X69180559Y-130817294D02*
X70831559Y-132468294D01*
X67910559Y-130817294D02*
X69180559Y-130817294D01*
X67656559Y-130563294D02*
X67910559Y-130817294D01*
X70831559Y-132468294D02*
X70958559Y-132468294D01*
X69688559Y-124340294D02*
X69561559Y-124340294D01*
X69561559Y-124340294D02*
X69053559Y-124848294D01*
D37*
X91278559Y-129801294D02*
X91278559Y-125483294D01*
X91278559Y-129801294D02*
X89754559Y-129801294D01*
X89754559Y-129801294D02*
X89500559Y-129547294D01*
D35*
X87976559Y-117863294D02*
X87976559Y-117736294D01*
X63704319Y-134693294D02*
X63704319Y-134642534D01*
X69561559Y-115958294D02*
X69053559Y-115958294D01*
X69561559Y-117228294D02*
X69561559Y-115958294D01*
X69561559Y-115958294D02*
X69561559Y-115323294D01*
X67656559Y-119768294D02*
X66513559Y-119768294D01*
X83023559Y-114688294D02*
X83023559Y-115831294D01*
X84293559Y-140215294D02*
X84166559Y-140215294D01*
X85883559Y-140357534D02*
X85832799Y-140357534D01*
D37*
X88738559Y-132519054D02*
X88738559Y-131833294D01*
X87976559Y-131071294D02*
X88738559Y-131833294D01*
X87976559Y-131071294D02*
X87468559Y-131071294D01*
X88738559Y-132519054D02*
X89007799Y-132788294D01*
X91108559Y-125653294D02*
X91278559Y-125483294D01*
D35*
X63704319Y-134693294D02*
X65055559Y-134693294D01*
X65055559Y-134693294D02*
X65243559Y-134881294D01*
X84801559Y-119768294D02*
X84801559Y-119260294D01*
X84801559Y-119260294D02*
X84928559Y-119133294D01*
X87976559Y-117863294D02*
X87976559Y-117736294D01*
X78578559Y-132586468D02*
X79730385Y-132586468D01*
X79730385Y-132586468D02*
X79848559Y-132468294D01*
X83658559Y-131071294D02*
X83150559Y-131071294D01*
X83150559Y-131071294D02*
X83023559Y-131198294D01*
X75708559Y-128643294D02*
X75708559Y-127058294D01*
X75708559Y-127058294D02*
X75403559Y-126753294D01*
X83008559Y-126943294D02*
X81308559Y-126943294D01*
X81308559Y-126943294D02*
X81118559Y-126753294D01*
X74108559Y-117243294D02*
X74108559Y-119108294D01*
X74108559Y-119108294D02*
X74133559Y-119133294D01*
X71608559Y-122143294D02*
X73333559Y-122143294D01*
X73333559Y-122143294D02*
X73498559Y-122308294D01*
X83008559Y-126943294D02*
X83008559Y-128135294D01*
X83008559Y-128135294D02*
X83531559Y-128658294D01*
X81818559Y-130983294D02*
X83570559Y-130983294D01*
X83570559Y-130983294D02*
X83658559Y-131071294D01*
X80418559Y-132683294D02*
X78675385Y-132683294D01*
X78675385Y-132683294D02*
X78578559Y-132586468D01*
X81818559Y-131133294D02*
X80418559Y-132533294D01*
X80418559Y-132533294D02*
X80418559Y-132683294D01*
X81818559Y-130983294D02*
X81818559Y-131133294D01*
D37*
X91108559Y-125653294D02*
X91278559Y-125483294D01*
D36*
X87976559Y-129547294D02*
X87932706Y-129547294D01*
X87932706Y-129547294D02*
X87551706Y-129928294D01*
X87551706Y-129928294D02*
X85563559Y-129928294D01*
X87976559Y-129547294D02*
X87976559Y-128006559D01*
X87976559Y-128006559D02*
X87800000Y-127830000D01*
D37*
X85563559Y-129928294D02*
X85055559Y-129420294D01*
D35*
X81308559Y-117243294D02*
X81308559Y-118943294D01*
X76038559Y-119768294D02*
X74768559Y-121038294D01*
X80483559Y-119768294D02*
X76038559Y-119768294D01*
X81308559Y-118943294D02*
X80483559Y-119768294D01*
X63338559Y-124213294D02*
X63338559Y-122308294D01*
X63973559Y-121673294D02*
X67148559Y-121673294D01*
X63338559Y-122308294D02*
X63973559Y-121673294D01*
X67148559Y-121673294D02*
X69053559Y-119768294D01*
X69053559Y-119768294D02*
X69180559Y-119768294D01*
X83023559Y-117355294D02*
X83404559Y-117355294D01*
X83404559Y-117355294D02*
X84928559Y-115831294D01*
D37*
X89373559Y-131198294D02*
X91151559Y-131198294D01*
X91151559Y-131198294D02*
X91278559Y-131325294D01*
X91006779Y-133738294D02*
X91006779Y-131597074D01*
X91006779Y-131597074D02*
X91278559Y-131325294D01*
X74768559Y-123578294D02*
X79213559Y-123578294D01*
X79213559Y-123578294D02*
X81778559Y-126143294D01*
X74133559Y-124213294D02*
X74768559Y-123578294D01*
X74908559Y-128643294D02*
X74908559Y-127528294D01*
X74908559Y-127528294D02*
X73498559Y-126118294D01*
X73498559Y-126118294D02*
X73498559Y-124213294D01*
X73308559Y-117243294D02*
X73308559Y-118053294D01*
X72863559Y-118498294D02*
X72863559Y-119743294D01*
X73308559Y-118053294D02*
X72863559Y-118498294D01*
X72863559Y-119743294D02*
X73473559Y-119743294D01*
X73473559Y-119743294D02*
X74768559Y-121038294D01*
X74768559Y-121038294D02*
X74768559Y-123578294D01*
X72863559Y-119743294D02*
X71608559Y-119743294D01*
X71608559Y-123743294D02*
X73028559Y-123743294D01*
X73028559Y-123743294D02*
X73498559Y-124213294D01*
X73498559Y-124213294D02*
X74133559Y-124213294D01*
X81778559Y-126143294D02*
X83008559Y-126143294D01*
D35*
X69180559Y-119768294D02*
X71583559Y-119768294D01*
X71583559Y-119768294D02*
X71608559Y-119743294D01*
X71085559Y-117228294D02*
X73293559Y-117228294D01*
X73293559Y-117228294D02*
X73308559Y-117243294D01*
X81308559Y-117243294D02*
X82911559Y-117243294D01*
X82911559Y-117243294D02*
X83023559Y-117355294D01*
D37*
X85055559Y-129420294D02*
X85055559Y-128658294D01*
X83008559Y-126143294D02*
X84318559Y-126143294D01*
X84318559Y-126143294D02*
X85055559Y-126880294D01*
X85055559Y-126880294D02*
X85055559Y-128658294D01*
D35*
X67656559Y-128023294D02*
X67656559Y-128404294D01*
X67656559Y-128404294D02*
X69180559Y-129928294D01*
X69180559Y-129928294D02*
X69180559Y-130055294D01*
X69180559Y-130055294D02*
X69688559Y-130563294D01*
X69688559Y-130563294D02*
X72228559Y-130563294D01*
X72228559Y-130563294D02*
X74133559Y-130563294D01*
X74133559Y-130563294D02*
X74908559Y-129788294D01*
X74908559Y-129788294D02*
X74908559Y-128643294D01*
X84166559Y-137675294D02*
X77435559Y-137675294D01*
X87468559Y-135643294D02*
X85563559Y-135643294D01*
X85563559Y-135643294D02*
X84928559Y-136278294D01*
X84928559Y-136278294D02*
X84928559Y-136913294D01*
X84928559Y-136913294D02*
X84166559Y-137675294D01*
X87976559Y-136151294D02*
X87468559Y-135643294D01*
X77435559Y-137675294D02*
X76038559Y-136278294D01*
X87976559Y-136278294D02*
X87976559Y-136151294D01*
D37*
X87976559Y-136278294D02*
X87976559Y-135719534D01*
X87976559Y-135719534D02*
X89007799Y-134688294D01*
D35*
X68418559Y-138183294D02*
X67783559Y-138818294D01*
X67783559Y-138818294D02*
X67783559Y-140088294D01*
X67783559Y-140088294D02*
X68418559Y-140723294D01*
X68418559Y-140723294D02*
X68926559Y-140723294D01*
X68926559Y-140723294D02*
X69053559Y-140850294D01*
X69053559Y-140850294D02*
X70958559Y-140850294D01*
X68418559Y-132468294D02*
X68418559Y-138183294D01*
D36*
X64588559Y-117228294D02*
X64617099Y-117228294D01*
X64617099Y-117228294D02*
X66160968Y-115684425D01*
X66160968Y-115684425D02*
X66160968Y-114434425D01*
X66160968Y-114434425D02*
X63239837Y-111513294D01*
D34*
X63239837Y-111513294D02*
X67783559Y-111513294D01*
X60171108Y-108674285D02*
X60400828Y-108674285D01*
X60400828Y-108674285D02*
X63239837Y-111513294D01*
X69688559Y-111785074D02*
X68055339Y-111785074D01*
X68055339Y-111785074D02*
X67783559Y-111513294D01*
X95671108Y-110194565D02*
X95671108Y-110458847D01*
X95671108Y-110458847D02*
X92312610Y-113817345D01*
X87388559Y-114443294D02*
X88083559Y-115138294D01*
X88083559Y-115138294D02*
X88083559Y-115938294D01*
X92911779Y-117863294D02*
X92911779Y-114416514D01*
X92911779Y-114416514D02*
X92312610Y-113817345D01*
X89373559Y-116593294D02*
X92149508Y-113817345D01*
X88738559Y-116593294D02*
X89373559Y-116593294D01*
X88083559Y-115938294D02*
X88738559Y-116593294D01*
X92149508Y-113817345D02*
X92312610Y-113817345D01*
X94150828Y-145694565D02*
X93921108Y-145694565D01*
X93921108Y-145694565D02*
X90583057Y-142356514D01*
X90583057Y-142356514D02*
X86833559Y-142356514D01*
D36*
X86833559Y-142356514D02*
X86833559Y-138838294D01*
X86833559Y-138838294D02*
X87488559Y-138183294D01*
D34*
X66513559Y-138203294D02*
X66179837Y-138203294D01*
X66179837Y-138203294D02*
X65910968Y-137934425D01*
X65910968Y-137934425D02*
X64410968Y-137934425D01*
X64410968Y-137934425D02*
X61705339Y-140640054D01*
X58650828Y-144174285D02*
X58650828Y-143694565D01*
X58650828Y-143694565D02*
X61705339Y-140640054D01*
X61705339Y-140640054D02*
X61705339Y-135643294D01*
D35*
X85824300Y-89805000D02*
X85900000Y-89880700D01*
X84275000Y-89805000D02*
X85824300Y-89805000D01*
X79708559Y-128643294D02*
X79708559Y-125343294D01*
X79708559Y-125343294D02*
X79213559Y-124848294D01*
X79213559Y-124848294D02*
X77308559Y-124848294D01*
X77308559Y-124848294D02*
X79213559Y-124848294D01*
X79848559Y-128503294D02*
X79708559Y-128643294D01*
X85563559Y-132595294D02*
X87468559Y-132595294D01*
X81118559Y-136278294D02*
X81118559Y-135643294D01*
X81118559Y-135643294D02*
X82388559Y-134373294D01*
X82388559Y-134373294D02*
X83785559Y-134373294D01*
X83785559Y-134373294D02*
X85563559Y-132595294D01*
X69053559Y-139326294D02*
X69053559Y-135008294D01*
X71593559Y-134373294D02*
X73498559Y-132468294D01*
X69688559Y-134373294D02*
X71593559Y-134373294D01*
X69053559Y-135008294D02*
X69688559Y-134373294D01*
X78108559Y-126918294D02*
X78108559Y-128643294D01*
X77308559Y-126118294D02*
X78108559Y-126918294D01*
X74768559Y-126118294D02*
X77308559Y-126118294D01*
X70958559Y-139326294D02*
X71085559Y-139326294D01*
X71085559Y-139326294D02*
X72228559Y-138183294D01*
X72228559Y-138183294D02*
X72228559Y-135008294D01*
X72228559Y-135008294D02*
X72863559Y-134373294D01*
X72863559Y-134373294D02*
X74133559Y-134373294D01*
X74133559Y-134373294D02*
X76038559Y-132468294D01*
X76038559Y-125483294D02*
X78578559Y-125483294D01*
X78908559Y-125813294D02*
X78908559Y-128643294D01*
X78578559Y-125483294D02*
X78908559Y-125813294D01*
X89500559Y-117863294D02*
X89962799Y-117863294D01*
X89962799Y-117863294D02*
X90912799Y-116913294D01*
X89500559Y-119768294D02*
X89500559Y-117863294D01*
X86198559Y-136405294D02*
X86325559Y-136405294D01*
X86325559Y-136405294D02*
X87087559Y-137167294D01*
X87783559Y-139392294D02*
X87783559Y-140357534D01*
X88484559Y-138691294D02*
X87783559Y-139392294D01*
X88484559Y-137548294D02*
X88484559Y-138691294D01*
X88103559Y-137167294D02*
X88484559Y-137548294D01*
X87087559Y-137167294D02*
X88103559Y-137167294D01*
X84293559Y-138691294D02*
X84420559Y-138691294D01*
X84420559Y-138691294D02*
X85563559Y-137548294D01*
X85563559Y-137548294D02*
X85563559Y-137040294D01*
X85563559Y-137040294D02*
X86198559Y-136405294D01*
X87783559Y-140357534D02*
X87783559Y-140403294D01*
X65243559Y-136405294D02*
X67148559Y-136405294D01*
X65243559Y-136405294D02*
X63892319Y-136405294D01*
X63892319Y-136405294D02*
X63704319Y-136593294D01*
X71608559Y-118943294D02*
X70768559Y-118943294D01*
X67783559Y-117863294D02*
X67783559Y-117355294D01*
X68418559Y-118498294D02*
X67783559Y-117863294D01*
X70323559Y-118498294D02*
X68418559Y-118498294D01*
X70768559Y-118943294D02*
X70323559Y-118498294D01*
X81372559Y-120149294D02*
X81372559Y-120657294D01*
X83008559Y-119743294D02*
X81778559Y-119743294D01*
X86833559Y-118498294D02*
X87976559Y-119641294D01*
X86198559Y-118498294D02*
X86833559Y-118498294D01*
X81778559Y-119743294D02*
X81372559Y-120149294D01*
X87976559Y-119641294D02*
X87976559Y-119768294D01*
X86198559Y-134881294D02*
X86198559Y-133738294D01*
X82388559Y-128658294D02*
X82373559Y-128643294D01*
X82373559Y-128643294D02*
X81308559Y-128643294D01*
X73308559Y-128643294D02*
X72243559Y-128643294D01*
X66894559Y-127134294D02*
X66894559Y-134627294D01*
X67275559Y-126753294D02*
X66894559Y-127134294D01*
X68037559Y-126753294D02*
X67275559Y-126753294D01*
X68418559Y-127134294D02*
X68037559Y-126753294D01*
X68418559Y-128658294D02*
X68418559Y-127134294D01*
X68672559Y-128912294D02*
X68418559Y-128658294D01*
X71974559Y-128912294D02*
X68672559Y-128912294D01*
X72243559Y-128643294D02*
X71974559Y-128912294D01*
X66894559Y-134627294D02*
X67148559Y-134881294D01*
X63973559Y-131198294D02*
X64608559Y-131198294D01*
X66513559Y-127388294D02*
X66513559Y-126753294D01*
X69688559Y-127515294D02*
X69180559Y-128023294D01*
X69688559Y-126753294D02*
X69688559Y-127515294D01*
X69053559Y-126118294D02*
X69688559Y-126753294D01*
X67148559Y-126118294D02*
X69053559Y-126118294D01*
X66513559Y-126753294D02*
X67148559Y-126118294D01*
X65243559Y-130563294D02*
X65243559Y-129928294D01*
X65243559Y-129928294D02*
X66513559Y-128658294D01*
X74108559Y-128643294D02*
X74108559Y-127998294D01*
X74108559Y-127998294D02*
X73498559Y-127388294D01*
X73498559Y-127388294D02*
X72863559Y-127388294D01*
X72863559Y-127388294D02*
X72228559Y-128023294D01*
X72228559Y-128023294D02*
X69180559Y-128023294D01*
X66513559Y-128658294D02*
X66513559Y-127388294D01*
X64608559Y-131198294D02*
X65243559Y-130563294D01*
X74108559Y-129318294D02*
X74108559Y-128643294D01*
X62703559Y-131198294D02*
X63338559Y-130563294D01*
X63338559Y-130563294D02*
X64608559Y-130563294D01*
X69942559Y-125483294D02*
X67148559Y-125483294D01*
X65878559Y-126753294D02*
X67148559Y-125483294D01*
X65878559Y-126753294D02*
X65878559Y-128658294D01*
X64608559Y-130563294D02*
X64608559Y-129928294D01*
X64608559Y-129928294D02*
X65878559Y-128658294D01*
X81943559Y-118943294D02*
X80483559Y-120403294D01*
X80483559Y-120403294D02*
X77943559Y-120403294D01*
X83008559Y-118943294D02*
X81943559Y-118943294D01*
X76038559Y-122308294D02*
X77943559Y-120403294D01*
X83008559Y-118943294D02*
X83213559Y-118943294D01*
X83213559Y-118943294D02*
X84801559Y-117355294D01*
X84801559Y-117355294D02*
X84928559Y-117355294D01*
D37*
X102535124Y-122220920D02*
X106899336Y-122220920D01*
X108341184Y-123662768D02*
X108341184Y-124900768D01*
X106899336Y-122220920D02*
X108341184Y-123662768D01*
X102535124Y-123021020D02*
X105199436Y-123021020D01*
X105199436Y-123021020D02*
X106841184Y-124662768D01*
X106841184Y-124662768D02*
X106841184Y-124900768D01*
X106841184Y-126424768D02*
X106841184Y-127162768D01*
X108381184Y-128702768D02*
X112341184Y-128702768D01*
X106841184Y-127162768D02*
X108381184Y-128702768D01*
X108341184Y-126424768D02*
X112079184Y-126424768D01*
X112079184Y-126424768D02*
X112341184Y-126162768D01*
D35*
X65243559Y-126753294D02*
X68418559Y-123578294D01*
X65243559Y-126753294D02*
X65243559Y-128658294D01*
X64608559Y-129293294D02*
X65243559Y-128658294D01*
X63338559Y-129293294D02*
X64608559Y-129293294D01*
X69053559Y-121673294D02*
X68418559Y-122308294D01*
X68418559Y-122308294D02*
X68418559Y-123578294D01*
X70018559Y-121343294D02*
X71608559Y-121343294D01*
X69688559Y-121673294D02*
X70018559Y-121343294D01*
X69053559Y-121673294D02*
X69688559Y-121673294D01*
X64608559Y-126753294D02*
X67783559Y-123578294D01*
X69053559Y-121038294D02*
X68418559Y-121673294D01*
X68418559Y-121673294D02*
X67783559Y-122308294D01*
X67783559Y-122308294D02*
X67783559Y-123578294D01*
X71608559Y-120543294D02*
X70183559Y-120543294D01*
X69688559Y-121038294D02*
X69053559Y-121038294D01*
X70183559Y-120543294D02*
X69688559Y-121038294D01*
X64608559Y-126753294D02*
X63338559Y-126753294D01*
X80418559Y-130983294D02*
X80063559Y-130983294D01*
X80063559Y-130983294D02*
X79213559Y-131833294D01*
X77308559Y-131198294D02*
X77308559Y-128643294D01*
X77943559Y-131833294D02*
X77308559Y-131198294D01*
X79213559Y-131833294D02*
X77943559Y-131833294D01*
X78578559Y-131062468D02*
X80339385Y-131062468D01*
X80339385Y-131062468D02*
X80418559Y-130983294D01*
X81818559Y-132683294D02*
X81818559Y-133038294D01*
X81818559Y-133038294D02*
X81118559Y-133738294D01*
X76508559Y-131033294D02*
X76508559Y-128643294D01*
X77308559Y-131833294D02*
X76508559Y-131033294D01*
X77308559Y-133103294D02*
X77308559Y-131833294D01*
X77943559Y-133738294D02*
X77308559Y-133103294D01*
X81118559Y-133738294D02*
X77943559Y-133738294D01*
X83658559Y-132595294D02*
X81906559Y-132595294D01*
X81906559Y-132595294D02*
X81818559Y-132683294D01*
X84801559Y-123578294D02*
X84801559Y-121673294D01*
X83008559Y-122943294D02*
X84166559Y-122943294D01*
X84166559Y-122943294D02*
X84801559Y-123578294D01*
D37*
X103799636Y-124621220D02*
X102535124Y-124621220D01*
X103841184Y-124662768D02*
X103799636Y-124621220D01*
X105341184Y-124662768D02*
X103841184Y-124662768D01*
D38*
X56000000Y-82230000D02*
X64250000Y-82230000D01*
X64250000Y-82230000D02*
X70750000Y-75730000D01*
X70750000Y-75730000D02*
X70750000Y-61480000D01*
X70750000Y-61480000D02*
X70750000Y-78730000D01*
X90400000Y-61480000D02*
X90400000Y-78730000D01*
X90400000Y-75730000D02*
X90400000Y-61480000D01*
X83900000Y-82230000D02*
X90400000Y-75730000D01*
X75650000Y-82230000D02*
X83900000Y-82230000D01*
X109950000Y-61580000D02*
X109950000Y-78830000D01*
X109950000Y-75830000D02*
X109950000Y-61580000D01*
X103450000Y-82330000D02*
X109950000Y-75830000D01*
X95200000Y-82330000D02*
X103450000Y-82330000D01*
X114850000Y-82330000D02*
X123100000Y-82330000D01*
X123100000Y-82330000D02*
X129600000Y-75830000D01*
X129600000Y-75830000D02*
X129600000Y-61580000D01*
X129600000Y-61580000D02*
X129600000Y-78830000D01*
D35*
X71608559Y-122943294D02*
X69815559Y-122943294D01*
X69815559Y-122943294D02*
X69688559Y-122816294D01*
D37*
X102535124Y-121420820D02*
X111599236Y-121420820D01*
X112341184Y-122162768D02*
X112341184Y-123622768D01*
X111599236Y-121420820D02*
X112341184Y-122162768D01*
D38*
X149200000Y-61580000D02*
X149200000Y-78830000D01*
X149200000Y-75830000D02*
X149200000Y-61580000D01*
X142700000Y-82330000D02*
X149200000Y-75830000D01*
X134450000Y-82330000D02*
X142700000Y-82330000D01*
D35*
X59900000Y-89868000D02*
X61612000Y-89868000D01*
X61612000Y-89868000D02*
X61675000Y-89805000D01*
X100812000Y-89868000D02*
X100875000Y-89805000D01*
X99100000Y-89868000D02*
X100812000Y-89868000D01*
X118700000Y-89868000D02*
X120412000Y-89868000D01*
X120412000Y-89868000D02*
X120475000Y-89805000D01*
X140012000Y-89768000D02*
X140075000Y-89705000D01*
X138300000Y-89768000D02*
X140012000Y-89768000D01*
X105424300Y-89805000D02*
X105500000Y-89880700D01*
X103875000Y-89805000D02*
X105424300Y-89805000D01*
X99938000Y-91392000D02*
X100100000Y-91230000D01*
X100100000Y-91230000D02*
X104500000Y-91230000D01*
X104500000Y-91230000D02*
X104649300Y-91379300D01*
X104649300Y-91379300D02*
X105500000Y-91379300D01*
X99100000Y-91392000D02*
X99938000Y-91392000D01*
X123475000Y-89805000D02*
X125024300Y-89805000D01*
X125024300Y-89805000D02*
X125100000Y-89880700D01*
X118700000Y-91392000D02*
X119538000Y-91392000D01*
X124249300Y-91379300D02*
X125100000Y-91379300D01*
X124100000Y-91230000D02*
X124249300Y-91379300D01*
X119700000Y-91230000D02*
X124100000Y-91230000D01*
X119538000Y-91392000D02*
X119700000Y-91230000D01*
X144624300Y-89705000D02*
X144700000Y-89780700D01*
X143075000Y-89705000D02*
X144624300Y-89705000D01*
X139138000Y-91292000D02*
X139300000Y-91130000D01*
X139300000Y-91130000D02*
X143700000Y-91130000D01*
X143700000Y-91130000D02*
X143849300Y-91279300D01*
X143849300Y-91279300D02*
X144700000Y-91279300D01*
X138300000Y-91292000D02*
X139138000Y-91292000D01*
X86833559Y-115831294D02*
X86706559Y-115831294D01*
X86706559Y-115831294D02*
X85690559Y-114815294D01*
X85690559Y-114815294D02*
X85690559Y-114802594D01*
X85690559Y-114802594D02*
X85690559Y-114053294D01*
D36*
X89700000Y-127830000D02*
X89700000Y-127680000D01*
X89700000Y-127680000D02*
X88750000Y-126730000D01*
X88750000Y-126730000D02*
X87000000Y-126730000D01*
X87000000Y-126730000D02*
X86750000Y-126480000D01*
X86750000Y-126480000D02*
X86750000Y-124730000D01*
X86750000Y-124730000D02*
X87520706Y-123959294D01*
X87520706Y-123959294D02*
X87976559Y-123959294D01*
D37*
X87788559Y-124147294D02*
X87976559Y-123959294D01*
D35*
X74908559Y-117243294D02*
X74908559Y-116098294D01*
X71720559Y-115958294D02*
X71085559Y-115323294D01*
X74768559Y-115958294D02*
X71720559Y-115958294D01*
X74908559Y-116098294D02*
X74768559Y-115958294D01*
X64675000Y-89805000D02*
X66224300Y-89805000D01*
X66224300Y-89805000D02*
X66300000Y-89880700D01*
X59900000Y-91392000D02*
X60738000Y-91392000D01*
X65449300Y-91379300D02*
X66300000Y-91379300D01*
X65300000Y-91230000D02*
X65449300Y-91379300D01*
X60900000Y-91230000D02*
X65300000Y-91230000D01*
X60738000Y-91392000D02*
X60900000Y-91230000D01*
X80338000Y-91392000D02*
X80500000Y-91230000D01*
X80500000Y-91230000D02*
X84900000Y-91230000D01*
X84900000Y-91230000D02*
X85049300Y-91379300D01*
X85049300Y-91379300D02*
X85900000Y-91379300D01*
X79500000Y-91392000D02*
X80338000Y-91392000D01*
D37*
X106841184Y-135662768D02*
X105341184Y-135662768D01*
X111341184Y-131162768D02*
X106841184Y-135662768D01*
X101841184Y-133662768D02*
X99841184Y-135662768D01*
X106841184Y-133662768D02*
X101841184Y-133662768D01*
X110341184Y-130162768D02*
X106841184Y-133662768D01*
D35*
X81212000Y-89868000D02*
X81275000Y-89805000D01*
X79500000Y-89868000D02*
X81212000Y-89868000D01*
X67783559Y-115831294D02*
X67783559Y-115323294D01*
X68738559Y-114368294D02*
X68738559Y-113784054D01*
X67783559Y-115323294D02*
X68738559Y-114368294D01*
X67148559Y-112656294D02*
X67610799Y-112656294D01*
X67610799Y-112656294D02*
X68738559Y-113784054D01*
X86325559Y-119768294D02*
X86325559Y-120276294D01*
X86325559Y-123070294D02*
X86325559Y-123578294D01*
X85563559Y-122308294D02*
X86325559Y-123070294D01*
X85563559Y-121038294D02*
X85563559Y-122308294D01*
X86325559Y-120276294D02*
X85563559Y-121038294D01*
X80508559Y-128643294D02*
X80508559Y-129318294D01*
X80508559Y-129318294D02*
X81118559Y-129928294D01*
X81118559Y-129928294D02*
X84293559Y-129928294D01*
X85563559Y-131071294D02*
X85436559Y-131071294D01*
X85436559Y-131071294D02*
X84293559Y-129928294D01*
X79221391Y-118506125D02*
X77951430Y-118506125D01*
X77951430Y-118506125D02*
X77943559Y-118513996D01*
X79708559Y-117243294D02*
X79708559Y-118018957D01*
X79708559Y-118018957D02*
X79221391Y-118506125D01*
X79221391Y-118506125D02*
X79214437Y-118513079D01*
X67533500Y-149062500D02*
X67533500Y-150967500D01*
X78963500Y-152237500D02*
X78963500Y-153507500D01*
X78328500Y-151602500D02*
X78963500Y-152237500D01*
X68168500Y-151602500D02*
X78328500Y-151602500D01*
X67533500Y-150967500D02*
X68168500Y-151602500D01*
X69533500Y-149062500D02*
X69533500Y-150427500D01*
X81503500Y-151602500D02*
X81503500Y-153507500D01*
X80868500Y-150967500D02*
X81503500Y-151602500D01*
X70073500Y-150967500D02*
X80868500Y-150967500D01*
X69533500Y-150427500D02*
X70073500Y-150967500D01*
X71533500Y-149062500D02*
X71533500Y-149887500D01*
X71533500Y-149887500D02*
X71978500Y-150332500D01*
X71978500Y-150332500D02*
X83408500Y-150332500D01*
X83408500Y-150332500D02*
X84043500Y-150967500D01*
X84043500Y-150967500D02*
X84043500Y-153507500D01*
D39*
G36*
X82937655Y-133185750D02*
X83064275Y-133271220D01*
X83214059Y-133301258D01*
X84103059Y-133301258D01*
X84214721Y-133279593D01*
X83590921Y-133903394D01*
X82388559Y-133903394D01*
X82208736Y-133939163D01*
X82056289Y-134041025D01*
X81222679Y-134874636D01*
X81118559Y-134853925D01*
X80642271Y-134948665D01*
X80238494Y-135218460D01*
X79968699Y-135622237D01*
X79873959Y-136098525D01*
X79873959Y-136458063D01*
X79968699Y-136934351D01*
X80149804Y-137205394D01*
X79547314Y-137205394D01*
X79728419Y-136934351D01*
X79823159Y-136458063D01*
X79823159Y-136098525D01*
X79728419Y-135622237D01*
X79458624Y-135218460D01*
X79054847Y-134948665D01*
X78578559Y-134853925D01*
X78102271Y-134948665D01*
X77698494Y-135218460D01*
X77428699Y-135622237D01*
X77333959Y-136098525D01*
X77333959Y-136458063D01*
X77428699Y-136934351D01*
X77568738Y-137143934D01*
X77216746Y-136791942D01*
X77283159Y-136458063D01*
X77283159Y-136098525D01*
X77188419Y-135622237D01*
X76918624Y-135218460D01*
X76514847Y-134948665D01*
X76038559Y-134853925D01*
X75562271Y-134948665D01*
X75158494Y-135218460D01*
X74888699Y-135622237D01*
X74793959Y-136098525D01*
X74793959Y-136458063D01*
X74888699Y-136934351D01*
X75158494Y-137338128D01*
X75562271Y-137607923D01*
X76038559Y-137702663D01*
X76514847Y-137607923D01*
X76628026Y-137532299D01*
X77103289Y-138007563D01*
X77255736Y-138109425D01*
X77435559Y-138145194D01*
X83543835Y-138145194D01*
X83490633Y-138224010D01*
X83460595Y-138373794D01*
X83460595Y-139008794D01*
X83488781Y-139154068D01*
X83572655Y-139281750D01*
X83699275Y-139367220D01*
X83849059Y-139397258D01*
X84738059Y-139397258D01*
X84883333Y-139369072D01*
X85011015Y-139285198D01*
X85096485Y-139158578D01*
X85126523Y-139008794D01*
X85126523Y-138649868D01*
X85895828Y-137880564D01*
X85997690Y-137728117D01*
X86000619Y-137713394D01*
X86033459Y-137548294D01*
X86033459Y-137234932D01*
X86157133Y-137111258D01*
X86366985Y-137111258D01*
X86694250Y-137438524D01*
X86630133Y-137533510D01*
X86600095Y-137683294D01*
X86600095Y-138173732D01*
X86384546Y-138389281D01*
X86246895Y-138595290D01*
X86198559Y-138838294D01*
X86198559Y-141655094D01*
X86160553Y-141680060D01*
X86075083Y-141806680D01*
X86063128Y-141866294D01*
X68099190Y-141866294D01*
X67402023Y-141169128D01*
X67402023Y-140346830D01*
X67451290Y-140420563D01*
X68086290Y-141055564D01*
X68220595Y-141145304D01*
X68220595Y-141167794D01*
X68248781Y-141313068D01*
X68332655Y-141440750D01*
X68459275Y-141526220D01*
X68609059Y-141556258D01*
X69498059Y-141556258D01*
X69643333Y-141528072D01*
X69771015Y-141444198D01*
X69854719Y-141320194D01*
X70158462Y-141320194D01*
X70237655Y-141440750D01*
X70364275Y-141526220D01*
X70514059Y-141556258D01*
X71403059Y-141556258D01*
X71548333Y-141528072D01*
X71676015Y-141444198D01*
X71761485Y-141317578D01*
X71791523Y-141167794D01*
X71791523Y-140532794D01*
X71763337Y-140387520D01*
X71679463Y-140259838D01*
X71552843Y-140174368D01*
X71403059Y-140144330D01*
X70514059Y-140144330D01*
X70368785Y-140172516D01*
X70241103Y-140256390D01*
X70157399Y-140380394D01*
X69853656Y-140380394D01*
X69774463Y-140259838D01*
X69647843Y-140174368D01*
X69498059Y-140144330D01*
X68609059Y-140144330D01*
X68521183Y-140161380D01*
X68253459Y-139893656D01*
X68253459Y-139796189D01*
X68332655Y-139916750D01*
X68459275Y-140002220D01*
X68609059Y-140032258D01*
X69498059Y-140032258D01*
X69643333Y-140004072D01*
X69771015Y-139920198D01*
X69856485Y-139793578D01*
X69886523Y-139643794D01*
X69886523Y-139008794D01*
X69858337Y-138863520D01*
X69774463Y-138735838D01*
X69647843Y-138650368D01*
X69523459Y-138625424D01*
X69523459Y-135202932D01*
X69883198Y-134843194D01*
X71593559Y-134843194D01*
X71773382Y-134807425D01*
X71836809Y-134765044D01*
X71794428Y-134828471D01*
X71758659Y-135008294D01*
X71758659Y-137988655D01*
X71126985Y-138620330D01*
X70514059Y-138620330D01*
X70368785Y-138648516D01*
X70241103Y-138732390D01*
X70155633Y-138859010D01*
X70125595Y-139008794D01*
X70125595Y-139643794D01*
X70153781Y-139789068D01*
X70237655Y-139916750D01*
X70364275Y-140002220D01*
X70514059Y-140032258D01*
X71403059Y-140032258D01*
X71548333Y-140004072D01*
X71676015Y-139920198D01*
X71761485Y-139793578D01*
X71791523Y-139643794D01*
X71791523Y-139284868D01*
X72560828Y-138515564D01*
X72662690Y-138363117D01*
X72669391Y-138329428D01*
X72698459Y-138183294D01*
X72698459Y-137391559D01*
X73022271Y-137607923D01*
X73498559Y-137702663D01*
X73974847Y-137607923D01*
X74378624Y-137338128D01*
X74648419Y-136934351D01*
X74743159Y-136458063D01*
X74743159Y-136098525D01*
X74648419Y-135622237D01*
X74378624Y-135218460D01*
X73974847Y-134948665D01*
X73498559Y-134853925D01*
X73022271Y-134948665D01*
X72812687Y-135088705D01*
X73058198Y-134843194D01*
X74133559Y-134843194D01*
X74313382Y-134807425D01*
X74465828Y-134705563D01*
X75449092Y-133722299D01*
X75562271Y-133797923D01*
X76038559Y-133892663D01*
X76514847Y-133797923D01*
X76918624Y-133528128D01*
X76978798Y-133438071D01*
X77611290Y-134070564D01*
X77741242Y-134157395D01*
X77763736Y-134172425D01*
X77943559Y-134208194D01*
X81118559Y-134208194D01*
X81298382Y-134172425D01*
X81450828Y-134070563D01*
X81849634Y-133671758D01*
X82368559Y-133671758D01*
X82513833Y-133643572D01*
X82641515Y-133559698D01*
X82726985Y-133433078D01*
X82757023Y-133283294D01*
X82757023Y-133065194D01*
X82858462Y-133065194D01*
X82937655Y-133185750D01*
X82937655Y-133185750D01*
G37*
X82937655Y-133185750D02*
X83064275Y-133271220D01*
X83214059Y-133301258D01*
X84103059Y-133301258D01*
X84214721Y-133279593D01*
X83590921Y-133903394D01*
X82388559Y-133903394D01*
X82208736Y-133939163D01*
X82056289Y-134041025D01*
X81222679Y-134874636D01*
X81118559Y-134853925D01*
X80642271Y-134948665D01*
X80238494Y-135218460D01*
X79968699Y-135622237D01*
X79873959Y-136098525D01*
X79873959Y-136458063D01*
X79968699Y-136934351D01*
X80149804Y-137205394D01*
X79547314Y-137205394D01*
X79728419Y-136934351D01*
X79823159Y-136458063D01*
X79823159Y-136098525D01*
X79728419Y-135622237D01*
X79458624Y-135218460D01*
X79054847Y-134948665D01*
X78578559Y-134853925D01*
X78102271Y-134948665D01*
X77698494Y-135218460D01*
X77428699Y-135622237D01*
X77333959Y-136098525D01*
X77333959Y-136458063D01*
X77428699Y-136934351D01*
X77568738Y-137143934D01*
X77216746Y-136791942D01*
X77283159Y-136458063D01*
X77283159Y-136098525D01*
X77188419Y-135622237D01*
X76918624Y-135218460D01*
X76514847Y-134948665D01*
X76038559Y-134853925D01*
X75562271Y-134948665D01*
X75158494Y-135218460D01*
X74888699Y-135622237D01*
X74793959Y-136098525D01*
X74793959Y-136458063D01*
X74888699Y-136934351D01*
X75158494Y-137338128D01*
X75562271Y-137607923D01*
X76038559Y-137702663D01*
X76514847Y-137607923D01*
X76628026Y-137532299D01*
X77103289Y-138007563D01*
X77255736Y-138109425D01*
X77435559Y-138145194D01*
X83543835Y-138145194D01*
X83490633Y-138224010D01*
X83460595Y-138373794D01*
X83460595Y-139008794D01*
X83488781Y-139154068D01*
X83572655Y-139281750D01*
X83699275Y-139367220D01*
X83849059Y-139397258D01*
X84738059Y-139397258D01*
X84883333Y-139369072D01*
X85011015Y-139285198D01*
X85096485Y-139158578D01*
X85126523Y-139008794D01*
X85126523Y-138649868D01*
X85895828Y-137880564D01*
X85997690Y-137728117D01*
X86000619Y-137713394D01*
X86033459Y-137548294D01*
X86033459Y-137234932D01*
X86157133Y-137111258D01*
X86366985Y-137111258D01*
X86694250Y-137438524D01*
X86630133Y-137533510D01*
X86600095Y-137683294D01*
X86600095Y-138173732D01*
X86384546Y-138389281D01*
X86246895Y-138595290D01*
X86198559Y-138838294D01*
X86198559Y-141655094D01*
X86160553Y-141680060D01*
X86075083Y-141806680D01*
X86063128Y-141866294D01*
X68099190Y-141866294D01*
X67402023Y-141169128D01*
X67402023Y-140346830D01*
X67451290Y-140420563D01*
X68086290Y-141055564D01*
X68220595Y-141145304D01*
X68220595Y-141167794D01*
X68248781Y-141313068D01*
X68332655Y-141440750D01*
X68459275Y-141526220D01*
X68609059Y-141556258D01*
X69498059Y-141556258D01*
X69643333Y-141528072D01*
X69771015Y-141444198D01*
X69854719Y-141320194D01*
X70158462Y-141320194D01*
X70237655Y-141440750D01*
X70364275Y-141526220D01*
X70514059Y-141556258D01*
X71403059Y-141556258D01*
X71548333Y-141528072D01*
X71676015Y-141444198D01*
X71761485Y-141317578D01*
X71791523Y-141167794D01*
X71791523Y-140532794D01*
X71763337Y-140387520D01*
X71679463Y-140259838D01*
X71552843Y-140174368D01*
X71403059Y-140144330D01*
X70514059Y-140144330D01*
X70368785Y-140172516D01*
X70241103Y-140256390D01*
X70157399Y-140380394D01*
X69853656Y-140380394D01*
X69774463Y-140259838D01*
X69647843Y-140174368D01*
X69498059Y-140144330D01*
X68609059Y-140144330D01*
X68521183Y-140161380D01*
X68253459Y-139893656D01*
X68253459Y-139796189D01*
X68332655Y-139916750D01*
X68459275Y-140002220D01*
X68609059Y-140032258D01*
X69498059Y-140032258D01*
X69643333Y-140004072D01*
X69771015Y-139920198D01*
X69856485Y-139793578D01*
X69886523Y-139643794D01*
X69886523Y-139008794D01*
X69858337Y-138863520D01*
X69774463Y-138735838D01*
X69647843Y-138650368D01*
X69523459Y-138625424D01*
X69523459Y-135202932D01*
X69883198Y-134843194D01*
X71593559Y-134843194D01*
X71773382Y-134807425D01*
X71836809Y-134765044D01*
X71794428Y-134828471D01*
X71758659Y-135008294D01*
X71758659Y-137988655D01*
X71126985Y-138620330D01*
X70514059Y-138620330D01*
X70368785Y-138648516D01*
X70241103Y-138732390D01*
X70155633Y-138859010D01*
X70125595Y-139008794D01*
X70125595Y-139643794D01*
X70153781Y-139789068D01*
X70237655Y-139916750D01*
X70364275Y-140002220D01*
X70514059Y-140032258D01*
X71403059Y-140032258D01*
X71548333Y-140004072D01*
X71676015Y-139920198D01*
X71761485Y-139793578D01*
X71791523Y-139643794D01*
X71791523Y-139284868D01*
X72560828Y-138515564D01*
X72662690Y-138363117D01*
X72669391Y-138329428D01*
X72698459Y-138183294D01*
X72698459Y-137391559D01*
X73022271Y-137607923D01*
X73498559Y-137702663D01*
X73974847Y-137607923D01*
X74378624Y-137338128D01*
X74648419Y-136934351D01*
X74743159Y-136458063D01*
X74743159Y-136098525D01*
X74648419Y-135622237D01*
X74378624Y-135218460D01*
X73974847Y-134948665D01*
X73498559Y-134853925D01*
X73022271Y-134948665D01*
X72812687Y-135088705D01*
X73058198Y-134843194D01*
X74133559Y-134843194D01*
X74313382Y-134807425D01*
X74465828Y-134705563D01*
X75449092Y-133722299D01*
X75562271Y-133797923D01*
X76038559Y-133892663D01*
X76514847Y-133797923D01*
X76918624Y-133528128D01*
X76978798Y-133438071D01*
X77611290Y-134070564D01*
X77741242Y-134157395D01*
X77763736Y-134172425D01*
X77943559Y-134208194D01*
X81118559Y-134208194D01*
X81298382Y-134172425D01*
X81450828Y-134070563D01*
X81849634Y-133671758D01*
X82368559Y-133671758D01*
X82513833Y-133643572D01*
X82641515Y-133559698D01*
X82726985Y-133433078D01*
X82757023Y-133283294D01*
X82757023Y-133065194D01*
X82858462Y-133065194D01*
X82937655Y-133185750D01*
G36*
X87996303Y-130380258D02*
X88294059Y-130380258D01*
X88439333Y-130352072D01*
X88567015Y-130268198D01*
X88652485Y-130141578D01*
X88682523Y-129991794D01*
X88682523Y-129102794D01*
X88654337Y-128957520D01*
X88611559Y-128892399D01*
X88611559Y-128006559D01*
X88563223Y-127763555D01*
X88513464Y-127689085D01*
X88513464Y-127391490D01*
X88986536Y-127864562D01*
X88986536Y-128360000D01*
X89014722Y-128505274D01*
X89098596Y-128632956D01*
X89225216Y-128718426D01*
X89375000Y-128748464D01*
X90025000Y-128748464D01*
X90170274Y-128720278D01*
X90297956Y-128636404D01*
X90383426Y-128509784D01*
X90413464Y-128360000D01*
X90413464Y-127300000D01*
X90385278Y-127154726D01*
X90301404Y-127027044D01*
X90174784Y-126941574D01*
X90025000Y-126911536D01*
X89829562Y-126911536D01*
X89466490Y-126548464D01*
X90025000Y-126548464D01*
X90170274Y-126520278D01*
X90297956Y-126436404D01*
X90383426Y-126309784D01*
X90413464Y-126160000D01*
X90413464Y-125100000D01*
X90385278Y-124954726D01*
X90335000Y-124878187D01*
X90335000Y-124158735D01*
X90315803Y-124062223D01*
X90445595Y-123932431D01*
X90445595Y-124276794D01*
X90473781Y-124422068D01*
X90557655Y-124549750D01*
X90684275Y-124635220D01*
X90834059Y-124665258D01*
X91723059Y-124665258D01*
X91786559Y-124652938D01*
X91786559Y-126154619D01*
X91720740Y-126438106D01*
X91720256Y-126453340D01*
X91717728Y-126459442D01*
X91717728Y-126491146D01*
X91709627Y-126528747D01*
X91709501Y-126536692D01*
X91716403Y-126574515D01*
X91715396Y-126606189D01*
X91717729Y-126612370D01*
X91717729Y-126627610D01*
X91736758Y-126723275D01*
X91736758Y-126723278D01*
X91786559Y-126843509D01*
X91786559Y-127738431D01*
X91731374Y-127884640D01*
X91731374Y-127884643D01*
X91715395Y-127980864D01*
X91717411Y-128044278D01*
X91713239Y-128107567D01*
X91786559Y-128666111D01*
X91786559Y-130632064D01*
X91723059Y-130619330D01*
X90834059Y-130619330D01*
X90688785Y-130647516D01*
X90662330Y-130664894D01*
X89863946Y-130664894D01*
X89784151Y-130584959D01*
X89518183Y-130474520D01*
X89230198Y-130474269D01*
X88964038Y-130584244D01*
X88760224Y-130787702D01*
X88649785Y-131053670D01*
X88649534Y-131341655D01*
X88759509Y-131607815D01*
X88962967Y-131811629D01*
X89228935Y-131922068D01*
X89516920Y-131922319D01*
X89783080Y-131812344D01*
X89863871Y-131731694D01*
X90462843Y-131731694D01*
X90473379Y-131785996D01*
X90473379Y-132975653D01*
X90461455Y-132977966D01*
X90333773Y-133061840D01*
X90248303Y-133188460D01*
X90218265Y-133338244D01*
X90218265Y-134138344D01*
X90246451Y-134283618D01*
X90330325Y-134411300D01*
X90456945Y-134496770D01*
X90606729Y-134526808D01*
X91406829Y-134526808D01*
X91552103Y-134498622D01*
X91679785Y-134414748D01*
X91765255Y-134288128D01*
X91786559Y-134181896D01*
X91786559Y-136786294D01*
X91160968Y-136786294D01*
X90869363Y-136844298D01*
X90622153Y-137009479D01*
X90456972Y-137256689D01*
X90449385Y-137294830D01*
X89488559Y-137294830D01*
X89343285Y-137323016D01*
X89215603Y-137406890D01*
X89130133Y-137533510D01*
X89100095Y-137683294D01*
X89100095Y-138683294D01*
X89128281Y-138828568D01*
X89212155Y-138956250D01*
X89338775Y-139041720D01*
X89488559Y-139071758D01*
X89720671Y-139071758D01*
X90372152Y-139723240D01*
X90372155Y-139723242D01*
X90843929Y-140195016D01*
X90792647Y-140270989D01*
X90761669Y-140420582D01*
X90790767Y-140570552D01*
X90875440Y-140697706D01*
X91786559Y-141608825D01*
X91786559Y-141866294D01*
X91728560Y-141866294D01*
X90717706Y-140855440D01*
X90595051Y-140772647D01*
X90445458Y-140741669D01*
X90295488Y-140770767D01*
X90168334Y-140855440D01*
X89429260Y-141594514D01*
X87468559Y-141594514D01*
X87468559Y-141146048D01*
X88183609Y-141146048D01*
X88328883Y-141117862D01*
X88456565Y-141033988D01*
X88542035Y-140907368D01*
X88572073Y-140757584D01*
X88572073Y-139957484D01*
X88543887Y-139812210D01*
X88460013Y-139684528D01*
X88333393Y-139599058D01*
X88256711Y-139583680D01*
X88816829Y-139023563D01*
X88918690Y-138871117D01*
X88954459Y-138691294D01*
X88954459Y-137548294D01*
X88918690Y-137368471D01*
X88882848Y-137314830D01*
X88816828Y-137216024D01*
X88580308Y-136979505D01*
X88652485Y-136872578D01*
X88682523Y-136722794D01*
X88682523Y-135833794D01*
X88671818Y-135778617D01*
X88973626Y-135476808D01*
X89407849Y-135476808D01*
X89553123Y-135448622D01*
X89680805Y-135364748D01*
X89766275Y-135238128D01*
X89796313Y-135088344D01*
X89796313Y-134288244D01*
X89768127Y-134142970D01*
X89684253Y-134015288D01*
X89557633Y-133929818D01*
X89407849Y-133899780D01*
X88607749Y-133899780D01*
X88462475Y-133927966D01*
X88334793Y-134011840D01*
X88249323Y-134138460D01*
X88219285Y-134288244D01*
X88219285Y-134722467D01*
X87698860Y-135242891D01*
X87648382Y-135209163D01*
X87468559Y-135173394D01*
X87031523Y-135173394D01*
X87031523Y-134563794D01*
X87003337Y-134418520D01*
X86919463Y-134290838D01*
X86792843Y-134205368D01*
X86761591Y-134199101D01*
X86811894Y-134148886D01*
X86922333Y-133882918D01*
X86922584Y-133594933D01*
X86812609Y-133328773D01*
X86609151Y-133124959D01*
X86465220Y-133065194D01*
X86668462Y-133065194D01*
X86747655Y-133185750D01*
X86874275Y-133271220D01*
X87024059Y-133301258D01*
X87913059Y-133301258D01*
X88058333Y-133273072D01*
X88186015Y-133189198D01*
X88271485Y-133062578D01*
X88301523Y-132912794D01*
X88301523Y-132277794D01*
X88273337Y-132132520D01*
X88189463Y-132004838D01*
X88062843Y-131919368D01*
X87913059Y-131889330D01*
X87024059Y-131889330D01*
X86878785Y-131917516D01*
X86751103Y-132001390D01*
X86667399Y-132125394D01*
X86363656Y-132125394D01*
X86284463Y-132004838D01*
X86157843Y-131919368D01*
X86008059Y-131889330D01*
X85119059Y-131889330D01*
X84973785Y-131917516D01*
X84846103Y-132001390D01*
X84760633Y-132128010D01*
X84730595Y-132277794D01*
X84730595Y-132763719D01*
X84468947Y-133025367D01*
X84491523Y-132912794D01*
X84491523Y-132277794D01*
X84463337Y-132132520D01*
X84379463Y-132004838D01*
X84252843Y-131919368D01*
X84103059Y-131889330D01*
X83214059Y-131889330D01*
X83068785Y-131917516D01*
X82941103Y-132001390D01*
X82857399Y-132125394D01*
X82757023Y-132125394D01*
X82757023Y-132083294D01*
X82728837Y-131938020D01*
X82644963Y-131810338D01*
X82518343Y-131724868D01*
X82368559Y-131694830D01*
X81334655Y-131694830D01*
X81357023Y-131583294D01*
X81357023Y-130398194D01*
X84098921Y-130398194D01*
X84730595Y-131029869D01*
X84730595Y-131388794D01*
X84758781Y-131534068D01*
X84842655Y-131661750D01*
X84969275Y-131747220D01*
X85119059Y-131777258D01*
X86008059Y-131777258D01*
X86153333Y-131749072D01*
X86281015Y-131665198D01*
X86366485Y-131538578D01*
X86396523Y-131388794D01*
X86396523Y-130753794D01*
X86368337Y-130608520D01*
X86338628Y-130563294D01*
X87551706Y-130563294D01*
X87794710Y-130514958D01*
X87996303Y-130380258D01*
X87996303Y-130380258D01*
G37*
X87996303Y-130380258D02*
X88294059Y-130380258D01*
X88439333Y-130352072D01*
X88567015Y-130268198D01*
X88652485Y-130141578D01*
X88682523Y-129991794D01*
X88682523Y-129102794D01*
X88654337Y-128957520D01*
X88611559Y-128892399D01*
X88611559Y-128006559D01*
X88563223Y-127763555D01*
X88513464Y-127689085D01*
X88513464Y-127391490D01*
X88986536Y-127864562D01*
X88986536Y-128360000D01*
X89014722Y-128505274D01*
X89098596Y-128632956D01*
X89225216Y-128718426D01*
X89375000Y-128748464D01*
X90025000Y-128748464D01*
X90170274Y-128720278D01*
X90297956Y-128636404D01*
X90383426Y-128509784D01*
X90413464Y-128360000D01*
X90413464Y-127300000D01*
X90385278Y-127154726D01*
X90301404Y-127027044D01*
X90174784Y-126941574D01*
X90025000Y-126911536D01*
X89829562Y-126911536D01*
X89466490Y-126548464D01*
X90025000Y-126548464D01*
X90170274Y-126520278D01*
X90297956Y-126436404D01*
X90383426Y-126309784D01*
X90413464Y-126160000D01*
X90413464Y-125100000D01*
X90385278Y-124954726D01*
X90335000Y-124878187D01*
X90335000Y-124158735D01*
X90315803Y-124062223D01*
X90445595Y-123932431D01*
X90445595Y-124276794D01*
X90473781Y-124422068D01*
X90557655Y-124549750D01*
X90684275Y-124635220D01*
X90834059Y-124665258D01*
X91723059Y-124665258D01*
X91786559Y-124652938D01*
X91786559Y-126154619D01*
X91720740Y-126438106D01*
X91720256Y-126453340D01*
X91717728Y-126459442D01*
X91717728Y-126491146D01*
X91709627Y-126528747D01*
X91709501Y-126536692D01*
X91716403Y-126574515D01*
X91715396Y-126606189D01*
X91717729Y-126612370D01*
X91717729Y-126627610D01*
X91736758Y-126723275D01*
X91736758Y-126723278D01*
X91786559Y-126843509D01*
X91786559Y-127738431D01*
X91731374Y-127884640D01*
X91731374Y-127884643D01*
X91715395Y-127980864D01*
X91717411Y-128044278D01*
X91713239Y-128107567D01*
X91786559Y-128666111D01*
X91786559Y-130632064D01*
X91723059Y-130619330D01*
X90834059Y-130619330D01*
X90688785Y-130647516D01*
X90662330Y-130664894D01*
X89863946Y-130664894D01*
X89784151Y-130584959D01*
X89518183Y-130474520D01*
X89230198Y-130474269D01*
X88964038Y-130584244D01*
X88760224Y-130787702D01*
X88649785Y-131053670D01*
X88649534Y-131341655D01*
X88759509Y-131607815D01*
X88962967Y-131811629D01*
X89228935Y-131922068D01*
X89516920Y-131922319D01*
X89783080Y-131812344D01*
X89863871Y-131731694D01*
X90462843Y-131731694D01*
X90473379Y-131785996D01*
X90473379Y-132975653D01*
X90461455Y-132977966D01*
X90333773Y-133061840D01*
X90248303Y-133188460D01*
X90218265Y-133338244D01*
X90218265Y-134138344D01*
X90246451Y-134283618D01*
X90330325Y-134411300D01*
X90456945Y-134496770D01*
X90606729Y-134526808D01*
X91406829Y-134526808D01*
X91552103Y-134498622D01*
X91679785Y-134414748D01*
X91765255Y-134288128D01*
X91786559Y-134181896D01*
X91786559Y-136786294D01*
X91160968Y-136786294D01*
X90869363Y-136844298D01*
X90622153Y-137009479D01*
X90456972Y-137256689D01*
X90449385Y-137294830D01*
X89488559Y-137294830D01*
X89343285Y-137323016D01*
X89215603Y-137406890D01*
X89130133Y-137533510D01*
X89100095Y-137683294D01*
X89100095Y-138683294D01*
X89128281Y-138828568D01*
X89212155Y-138956250D01*
X89338775Y-139041720D01*
X89488559Y-139071758D01*
X89720671Y-139071758D01*
X90372152Y-139723240D01*
X90372155Y-139723242D01*
X90843929Y-140195016D01*
X90792647Y-140270989D01*
X90761669Y-140420582D01*
X90790767Y-140570552D01*
X90875440Y-140697706D01*
X91786559Y-141608825D01*
X91786559Y-141866294D01*
X91728560Y-141866294D01*
X90717706Y-140855440D01*
X90595051Y-140772647D01*
X90445458Y-140741669D01*
X90295488Y-140770767D01*
X90168334Y-140855440D01*
X89429260Y-141594514D01*
X87468559Y-141594514D01*
X87468559Y-141146048D01*
X88183609Y-141146048D01*
X88328883Y-141117862D01*
X88456565Y-141033988D01*
X88542035Y-140907368D01*
X88572073Y-140757584D01*
X88572073Y-139957484D01*
X88543887Y-139812210D01*
X88460013Y-139684528D01*
X88333393Y-139599058D01*
X88256711Y-139583680D01*
X88816829Y-139023563D01*
X88918690Y-138871117D01*
X88954459Y-138691294D01*
X88954459Y-137548294D01*
X88918690Y-137368471D01*
X88882848Y-137314830D01*
X88816828Y-137216024D01*
X88580308Y-136979505D01*
X88652485Y-136872578D01*
X88682523Y-136722794D01*
X88682523Y-135833794D01*
X88671818Y-135778617D01*
X88973626Y-135476808D01*
X89407849Y-135476808D01*
X89553123Y-135448622D01*
X89680805Y-135364748D01*
X89766275Y-135238128D01*
X89796313Y-135088344D01*
X89796313Y-134288244D01*
X89768127Y-134142970D01*
X89684253Y-134015288D01*
X89557633Y-133929818D01*
X89407849Y-133899780D01*
X88607749Y-133899780D01*
X88462475Y-133927966D01*
X88334793Y-134011840D01*
X88249323Y-134138460D01*
X88219285Y-134288244D01*
X88219285Y-134722467D01*
X87698860Y-135242891D01*
X87648382Y-135209163D01*
X87468559Y-135173394D01*
X87031523Y-135173394D01*
X87031523Y-134563794D01*
X87003337Y-134418520D01*
X86919463Y-134290838D01*
X86792843Y-134205368D01*
X86761591Y-134199101D01*
X86811894Y-134148886D01*
X86922333Y-133882918D01*
X86922584Y-133594933D01*
X86812609Y-133328773D01*
X86609151Y-133124959D01*
X86465220Y-133065194D01*
X86668462Y-133065194D01*
X86747655Y-133185750D01*
X86874275Y-133271220D01*
X87024059Y-133301258D01*
X87913059Y-133301258D01*
X88058333Y-133273072D01*
X88186015Y-133189198D01*
X88271485Y-133062578D01*
X88301523Y-132912794D01*
X88301523Y-132277794D01*
X88273337Y-132132520D01*
X88189463Y-132004838D01*
X88062843Y-131919368D01*
X87913059Y-131889330D01*
X87024059Y-131889330D01*
X86878785Y-131917516D01*
X86751103Y-132001390D01*
X86667399Y-132125394D01*
X86363656Y-132125394D01*
X86284463Y-132004838D01*
X86157843Y-131919368D01*
X86008059Y-131889330D01*
X85119059Y-131889330D01*
X84973785Y-131917516D01*
X84846103Y-132001390D01*
X84760633Y-132128010D01*
X84730595Y-132277794D01*
X84730595Y-132763719D01*
X84468947Y-133025367D01*
X84491523Y-132912794D01*
X84491523Y-132277794D01*
X84463337Y-132132520D01*
X84379463Y-132004838D01*
X84252843Y-131919368D01*
X84103059Y-131889330D01*
X83214059Y-131889330D01*
X83068785Y-131917516D01*
X82941103Y-132001390D01*
X82857399Y-132125394D01*
X82757023Y-132125394D01*
X82757023Y-132083294D01*
X82728837Y-131938020D01*
X82644963Y-131810338D01*
X82518343Y-131724868D01*
X82368559Y-131694830D01*
X81334655Y-131694830D01*
X81357023Y-131583294D01*
X81357023Y-130398194D01*
X84098921Y-130398194D01*
X84730595Y-131029869D01*
X84730595Y-131388794D01*
X84758781Y-131534068D01*
X84842655Y-131661750D01*
X84969275Y-131747220D01*
X85119059Y-131777258D01*
X86008059Y-131777258D01*
X86153333Y-131749072D01*
X86281015Y-131665198D01*
X86366485Y-131538578D01*
X86396523Y-131388794D01*
X86396523Y-130753794D01*
X86368337Y-130608520D01*
X86338628Y-130563294D01*
X87551706Y-130563294D01*
X87794710Y-130514958D01*
X87996303Y-130380258D01*
G36*
X66424659Y-134296936D02*
X66345633Y-134414010D01*
X66315595Y-134563794D01*
X66315595Y-135198794D01*
X66343781Y-135344068D01*
X66427655Y-135471750D01*
X66554275Y-135557220D01*
X66704059Y-135587258D01*
X67593059Y-135587258D01*
X67738333Y-135559072D01*
X67866015Y-135475198D01*
X67948659Y-135352765D01*
X67948659Y-135935399D01*
X67869463Y-135814838D01*
X67742843Y-135729368D01*
X67593059Y-135699330D01*
X66704059Y-135699330D01*
X66558785Y-135727516D01*
X66431103Y-135811390D01*
X66347399Y-135935394D01*
X66043656Y-135935394D01*
X65964463Y-135814838D01*
X65837843Y-135729368D01*
X65688059Y-135699330D01*
X64799059Y-135699330D01*
X64653785Y-135727516D01*
X64526103Y-135811390D01*
X64442399Y-135935394D01*
X64390696Y-135935394D01*
X64380773Y-135920288D01*
X64254153Y-135834818D01*
X64104369Y-135804780D01*
X63304269Y-135804780D01*
X63158995Y-135832966D01*
X63031313Y-135916840D01*
X62945843Y-136043460D01*
X62915805Y-136193244D01*
X62915805Y-136993344D01*
X62943991Y-137138618D01*
X63027865Y-137266300D01*
X63154485Y-137351770D01*
X63304269Y-137381808D01*
X63892808Y-137381808D01*
X63872152Y-137395610D01*
X62467339Y-138800424D01*
X62467339Y-136175556D01*
X62493853Y-136043344D01*
X62493853Y-135243244D01*
X62465667Y-135097970D01*
X62381793Y-134970288D01*
X62255173Y-134884818D01*
X62195559Y-134872863D01*
X62195559Y-131714051D01*
X62292967Y-131811629D01*
X62558935Y-131922068D01*
X62846920Y-131922319D01*
X63113080Y-131812344D01*
X63316894Y-131608886D01*
X63338476Y-131556911D01*
X63359509Y-131607815D01*
X63562967Y-131811629D01*
X63828935Y-131922068D01*
X64116920Y-131922319D01*
X64383080Y-131812344D01*
X64527482Y-131668194D01*
X64608559Y-131668194D01*
X64788382Y-131632425D01*
X64940828Y-131530563D01*
X65575829Y-130895563D01*
X65677690Y-130743117D01*
X65713459Y-130563294D01*
X65713459Y-130122932D01*
X66424659Y-129411733D01*
X66424659Y-134296936D01*
X66424659Y-134296936D01*
G37*
X66424659Y-134296936D02*
X66345633Y-134414010D01*
X66315595Y-134563794D01*
X66315595Y-135198794D01*
X66343781Y-135344068D01*
X66427655Y-135471750D01*
X66554275Y-135557220D01*
X66704059Y-135587258D01*
X67593059Y-135587258D01*
X67738333Y-135559072D01*
X67866015Y-135475198D01*
X67948659Y-135352765D01*
X67948659Y-135935399D01*
X67869463Y-135814838D01*
X67742843Y-135729368D01*
X67593059Y-135699330D01*
X66704059Y-135699330D01*
X66558785Y-135727516D01*
X66431103Y-135811390D01*
X66347399Y-135935394D01*
X66043656Y-135935394D01*
X65964463Y-135814838D01*
X65837843Y-135729368D01*
X65688059Y-135699330D01*
X64799059Y-135699330D01*
X64653785Y-135727516D01*
X64526103Y-135811390D01*
X64442399Y-135935394D01*
X64390696Y-135935394D01*
X64380773Y-135920288D01*
X64254153Y-135834818D01*
X64104369Y-135804780D01*
X63304269Y-135804780D01*
X63158995Y-135832966D01*
X63031313Y-135916840D01*
X62945843Y-136043460D01*
X62915805Y-136193244D01*
X62915805Y-136993344D01*
X62943991Y-137138618D01*
X63027865Y-137266300D01*
X63154485Y-137351770D01*
X63304269Y-137381808D01*
X63892808Y-137381808D01*
X63872152Y-137395610D01*
X62467339Y-138800424D01*
X62467339Y-136175556D01*
X62493853Y-136043344D01*
X62493853Y-135243244D01*
X62465667Y-135097970D01*
X62381793Y-134970288D01*
X62255173Y-134884818D01*
X62195559Y-134872863D01*
X62195559Y-131714051D01*
X62292967Y-131811629D01*
X62558935Y-131922068D01*
X62846920Y-131922319D01*
X63113080Y-131812344D01*
X63316894Y-131608886D01*
X63338476Y-131556911D01*
X63359509Y-131607815D01*
X63562967Y-131811629D01*
X63828935Y-131922068D01*
X64116920Y-131922319D01*
X64383080Y-131812344D01*
X64527482Y-131668194D01*
X64608559Y-131668194D01*
X64788382Y-131632425D01*
X64940828Y-131530563D01*
X65575829Y-130895563D01*
X65677690Y-130743117D01*
X65713459Y-130563294D01*
X65713459Y-130122932D01*
X66424659Y-129411733D01*
X66424659Y-134296936D01*
G36*
X77638659Y-127112933D02*
X77638659Y-127515880D01*
X77583559Y-127504830D01*
X77033559Y-127504830D01*
X76906493Y-127529483D01*
X76783559Y-127504830D01*
X76233559Y-127504830D01*
X76088285Y-127533016D01*
X75960603Y-127616890D01*
X75875133Y-127743510D01*
X75845095Y-127893294D01*
X75845095Y-129393294D01*
X75873281Y-129538568D01*
X75957155Y-129666250D01*
X76038659Y-129721266D01*
X76038659Y-131033294D01*
X76040865Y-131044384D01*
X76038559Y-131043925D01*
X75562271Y-131138665D01*
X75158494Y-131408460D01*
X74888699Y-131812237D01*
X74793959Y-132288525D01*
X74793959Y-132648063D01*
X74860372Y-132981942D01*
X74508379Y-133333935D01*
X74648419Y-133124351D01*
X74743159Y-132648063D01*
X74743159Y-132288525D01*
X74648419Y-131812237D01*
X74378624Y-131408460D01*
X73974847Y-131138665D01*
X73498559Y-131043925D01*
X73022271Y-131138665D01*
X72618494Y-131408460D01*
X72348699Y-131812237D01*
X72253959Y-132288525D01*
X72253959Y-132648063D01*
X72320372Y-132981942D01*
X71398921Y-133903394D01*
X69688559Y-133903394D01*
X69508736Y-133939163D01*
X69356290Y-134041024D01*
X68888459Y-134508856D01*
X68888459Y-133872758D01*
X69282159Y-133872758D01*
X69427433Y-133844572D01*
X69555115Y-133760698D01*
X69640585Y-133634078D01*
X69670623Y-133484294D01*
X69670623Y-131452294D01*
X69642437Y-131307020D01*
X69558563Y-131179338D01*
X69431943Y-131093868D01*
X69282159Y-131063830D01*
X67554959Y-131063830D01*
X67409685Y-131092016D01*
X67364459Y-131121725D01*
X67364459Y-128856258D01*
X67443985Y-128856258D01*
X68474595Y-129886869D01*
X68474595Y-130372794D01*
X68502781Y-130518068D01*
X68586655Y-130645750D01*
X68713275Y-130731220D01*
X68863059Y-130761258D01*
X69221984Y-130761258D01*
X69356289Y-130895563D01*
X69503866Y-130994171D01*
X69508736Y-130997425D01*
X69688559Y-131033194D01*
X71674783Y-131033194D01*
X71817967Y-131176629D01*
X72083935Y-131287068D01*
X72371920Y-131287319D01*
X72638080Y-131177344D01*
X72782482Y-131033194D01*
X74133559Y-131033194D01*
X74313382Y-130997425D01*
X74465828Y-130895563D01*
X75240829Y-130120563D01*
X75342690Y-129968117D01*
X75378459Y-129788294D01*
X75378459Y-129720973D01*
X75456515Y-129669698D01*
X75541985Y-129543078D01*
X75572023Y-129393294D01*
X75572023Y-127893294D01*
X75543837Y-127748020D01*
X75459963Y-127620338D01*
X75441959Y-127608185D01*
X75441959Y-127528294D01*
X75401356Y-127324171D01*
X75285730Y-127151123D01*
X74957919Y-126823312D01*
X75178080Y-126732344D01*
X75322482Y-126588194D01*
X77113921Y-126588194D01*
X77638659Y-127112933D01*
X77638659Y-127112933D01*
G37*
X77638659Y-127112933D02*
X77638659Y-127515880D01*
X77583559Y-127504830D01*
X77033559Y-127504830D01*
X76906493Y-127529483D01*
X76783559Y-127504830D01*
X76233559Y-127504830D01*
X76088285Y-127533016D01*
X75960603Y-127616890D01*
X75875133Y-127743510D01*
X75845095Y-127893294D01*
X75845095Y-129393294D01*
X75873281Y-129538568D01*
X75957155Y-129666250D01*
X76038659Y-129721266D01*
X76038659Y-131033294D01*
X76040865Y-131044384D01*
X76038559Y-131043925D01*
X75562271Y-131138665D01*
X75158494Y-131408460D01*
X74888699Y-131812237D01*
X74793959Y-132288525D01*
X74793959Y-132648063D01*
X74860372Y-132981942D01*
X74508379Y-133333935D01*
X74648419Y-133124351D01*
X74743159Y-132648063D01*
X74743159Y-132288525D01*
X74648419Y-131812237D01*
X74378624Y-131408460D01*
X73974847Y-131138665D01*
X73498559Y-131043925D01*
X73022271Y-131138665D01*
X72618494Y-131408460D01*
X72348699Y-131812237D01*
X72253959Y-132288525D01*
X72253959Y-132648063D01*
X72320372Y-132981942D01*
X71398921Y-133903394D01*
X69688559Y-133903394D01*
X69508736Y-133939163D01*
X69356290Y-134041024D01*
X68888459Y-134508856D01*
X68888459Y-133872758D01*
X69282159Y-133872758D01*
X69427433Y-133844572D01*
X69555115Y-133760698D01*
X69640585Y-133634078D01*
X69670623Y-133484294D01*
X69670623Y-131452294D01*
X69642437Y-131307020D01*
X69558563Y-131179338D01*
X69431943Y-131093868D01*
X69282159Y-131063830D01*
X67554959Y-131063830D01*
X67409685Y-131092016D01*
X67364459Y-131121725D01*
X67364459Y-128856258D01*
X67443985Y-128856258D01*
X68474595Y-129886869D01*
X68474595Y-130372794D01*
X68502781Y-130518068D01*
X68586655Y-130645750D01*
X68713275Y-130731220D01*
X68863059Y-130761258D01*
X69221984Y-130761258D01*
X69356289Y-130895563D01*
X69503866Y-130994171D01*
X69508736Y-130997425D01*
X69688559Y-131033194D01*
X71674783Y-131033194D01*
X71817967Y-131176629D01*
X72083935Y-131287068D01*
X72371920Y-131287319D01*
X72638080Y-131177344D01*
X72782482Y-131033194D01*
X74133559Y-131033194D01*
X74313382Y-130997425D01*
X74465828Y-130895563D01*
X75240829Y-130120563D01*
X75342690Y-129968117D01*
X75378459Y-129788294D01*
X75378459Y-129720973D01*
X75456515Y-129669698D01*
X75541985Y-129543078D01*
X75572023Y-129393294D01*
X75572023Y-127893294D01*
X75543837Y-127748020D01*
X75459963Y-127620338D01*
X75441959Y-127608185D01*
X75441959Y-127528294D01*
X75401356Y-127324171D01*
X75285730Y-127151123D01*
X74957919Y-126823312D01*
X75178080Y-126732344D01*
X75322482Y-126588194D01*
X77113921Y-126588194D01*
X77638659Y-127112933D01*
G36*
X79868559Y-131971758D02*
X80902463Y-131971758D01*
X80880095Y-132083294D01*
X80880095Y-133268394D01*
X78138198Y-133268394D01*
X77778459Y-132908656D01*
X77778459Y-132270354D01*
X77943559Y-132303194D01*
X79213559Y-132303194D01*
X79393382Y-132267425D01*
X79545828Y-132165563D01*
X79761169Y-131950222D01*
X79868559Y-131971758D01*
X79868559Y-131971758D01*
G37*
X79868559Y-131971758D02*
X80902463Y-131971758D01*
X80880095Y-132083294D01*
X80880095Y-133268394D01*
X78138198Y-133268394D01*
X77778459Y-132908656D01*
X77778459Y-132270354D01*
X77943559Y-132303194D01*
X79213559Y-132303194D01*
X79393382Y-132267425D01*
X79545828Y-132165563D01*
X79761169Y-131950222D01*
X79868559Y-131971758D01*
G36*
X81401388Y-126520465D02*
X81574436Y-126636091D01*
X81778559Y-126676694D01*
X81972593Y-126676694D01*
X81982155Y-126691250D01*
X82108775Y-126776720D01*
X82258559Y-126806758D01*
X83758559Y-126806758D01*
X83903833Y-126778572D01*
X84031515Y-126694698D01*
X84043668Y-126676694D01*
X84097617Y-126676694D01*
X84522159Y-127101235D01*
X84522159Y-127899910D01*
X84465103Y-127937390D01*
X84379633Y-128064010D01*
X84349595Y-128213794D01*
X84349595Y-129102794D01*
X84377781Y-129248068D01*
X84461655Y-129375750D01*
X84522159Y-129416591D01*
X84522159Y-129420294D01*
X84546582Y-129543074D01*
X84473382Y-129494163D01*
X84293559Y-129458394D01*
X81958968Y-129458394D01*
X81972023Y-129393294D01*
X81972023Y-129265675D01*
X81977967Y-129271629D01*
X82243935Y-129382068D01*
X82531920Y-129382319D01*
X82798080Y-129272344D01*
X83001894Y-129068886D01*
X83112333Y-128802918D01*
X83112584Y-128514933D01*
X83002609Y-128248773D01*
X82799151Y-128044959D01*
X82533183Y-127934520D01*
X82245198Y-127934269D01*
X81979038Y-128044244D01*
X81972023Y-128051247D01*
X81972023Y-127893294D01*
X81943837Y-127748020D01*
X81859963Y-127620338D01*
X81733343Y-127534868D01*
X81583559Y-127504830D01*
X81033559Y-127504830D01*
X80906493Y-127529483D01*
X80783559Y-127504830D01*
X80233559Y-127504830D01*
X80178459Y-127515520D01*
X80178459Y-125343294D01*
X80167097Y-125286174D01*
X81401388Y-126520465D01*
X81401388Y-126520465D01*
G37*
X81401388Y-126520465D02*
X81574436Y-126636091D01*
X81778559Y-126676694D01*
X81972593Y-126676694D01*
X81982155Y-126691250D01*
X82108775Y-126776720D01*
X82258559Y-126806758D01*
X83758559Y-126806758D01*
X83903833Y-126778572D01*
X84031515Y-126694698D01*
X84043668Y-126676694D01*
X84097617Y-126676694D01*
X84522159Y-127101235D01*
X84522159Y-127899910D01*
X84465103Y-127937390D01*
X84379633Y-128064010D01*
X84349595Y-128213794D01*
X84349595Y-129102794D01*
X84377781Y-129248068D01*
X84461655Y-129375750D01*
X84522159Y-129416591D01*
X84522159Y-129420294D01*
X84546582Y-129543074D01*
X84473382Y-129494163D01*
X84293559Y-129458394D01*
X81958968Y-129458394D01*
X81972023Y-129393294D01*
X81972023Y-129265675D01*
X81977967Y-129271629D01*
X82243935Y-129382068D01*
X82531920Y-129382319D01*
X82798080Y-129272344D01*
X83001894Y-129068886D01*
X83112333Y-128802918D01*
X83112584Y-128514933D01*
X83002609Y-128248773D01*
X82799151Y-128044959D01*
X82533183Y-127934520D01*
X82245198Y-127934269D01*
X81979038Y-128044244D01*
X81972023Y-128051247D01*
X81972023Y-127893294D01*
X81943837Y-127748020D01*
X81859963Y-127620338D01*
X81733343Y-127534868D01*
X81583559Y-127504830D01*
X81033559Y-127504830D01*
X80906493Y-127529483D01*
X80783559Y-127504830D01*
X80233559Y-127504830D01*
X80178459Y-127515520D01*
X80178459Y-125343294D01*
X80167097Y-125286174D01*
X81401388Y-126520465D01*
G36*
X88513464Y-125199900D02*
X88986536Y-125199900D01*
X88986536Y-126142049D01*
X88750000Y-126095000D01*
X88513464Y-126095000D01*
X88513464Y-125199900D01*
X88513464Y-125199900D01*
G37*
X88513464Y-125199900D02*
X88986536Y-125199900D01*
X88986536Y-126142049D01*
X88750000Y-126095000D01*
X88513464Y-126095000D01*
X88513464Y-125199900D01*
G36*
X67349428Y-122128471D02*
X67313659Y-122308294D01*
X67313659Y-123383655D01*
X64616023Y-126081292D01*
X64616023Y-125864294D01*
X64587837Y-125719020D01*
X64503963Y-125591338D01*
X64377343Y-125505868D01*
X64265393Y-125483417D01*
X64372833Y-125462572D01*
X64500515Y-125378698D01*
X64585985Y-125252078D01*
X64616023Y-125102294D01*
X64616023Y-123324294D01*
X64587837Y-123179020D01*
X64503963Y-123051338D01*
X64377343Y-122965868D01*
X64227559Y-122935830D01*
X63808459Y-122935830D01*
X63808459Y-122502932D01*
X64168198Y-122143194D01*
X67148559Y-122143194D01*
X67328382Y-122107425D01*
X67391809Y-122065044D01*
X67349428Y-122128471D01*
X67349428Y-122128471D01*
G37*
X67349428Y-122128471D02*
X67313659Y-122308294D01*
X67313659Y-123383655D01*
X64616023Y-126081292D01*
X64616023Y-125864294D01*
X64587837Y-125719020D01*
X64503963Y-125591338D01*
X64377343Y-125505868D01*
X64265393Y-125483417D01*
X64372833Y-125462572D01*
X64500515Y-125378698D01*
X64585985Y-125252078D01*
X64616023Y-125102294D01*
X64616023Y-123324294D01*
X64587837Y-123179020D01*
X64503963Y-123051338D01*
X64377343Y-122965868D01*
X64227559Y-122935830D01*
X63808459Y-122935830D01*
X63808459Y-122502932D01*
X64168198Y-122143194D01*
X67148559Y-122143194D01*
X67328382Y-122107425D01*
X67391809Y-122065044D01*
X67349428Y-122128471D01*
G36*
X68967655Y-123406750D02*
X69094275Y-123492220D01*
X69244059Y-123522258D01*
X70133059Y-123522258D01*
X70278333Y-123494072D01*
X70401454Y-123413194D01*
X70481145Y-123413194D01*
X70470095Y-123468294D01*
X70470095Y-124018294D01*
X70494748Y-124145360D01*
X70470095Y-124268294D01*
X70470095Y-124818294D01*
X70494748Y-124945360D01*
X70483653Y-125000689D01*
X70353151Y-124869959D01*
X70087183Y-124759520D01*
X69799198Y-124759269D01*
X69533038Y-124869244D01*
X69388636Y-125013394D01*
X67647998Y-125013394D01*
X68750828Y-123910564D01*
X68852690Y-123758117D01*
X68865631Y-123693056D01*
X68888459Y-123578294D01*
X68888459Y-123286189D01*
X68967655Y-123406750D01*
X68967655Y-123406750D01*
G37*
X68967655Y-123406750D02*
X69094275Y-123492220D01*
X69244059Y-123522258D01*
X70133059Y-123522258D01*
X70278333Y-123494072D01*
X70401454Y-123413194D01*
X70481145Y-123413194D01*
X70470095Y-123468294D01*
X70470095Y-124018294D01*
X70494748Y-124145360D01*
X70470095Y-124268294D01*
X70470095Y-124818294D01*
X70494748Y-124945360D01*
X70483653Y-125000689D01*
X70353151Y-124869959D01*
X70087183Y-124759520D01*
X69799198Y-124759269D01*
X69533038Y-124869244D01*
X69388636Y-125013394D01*
X67647998Y-125013394D01*
X68750828Y-123910564D01*
X68852690Y-123758117D01*
X68865631Y-123693056D01*
X68888459Y-123578294D01*
X68888459Y-123286189D01*
X68967655Y-123406750D01*
G36*
X72747023Y-122668294D02*
X72718837Y-122523020D01*
X72634963Y-122395338D01*
X72508343Y-122309868D01*
X72358559Y-122279830D01*
X70858559Y-122279830D01*
X70713285Y-122308016D01*
X70585603Y-122391890D01*
X70530587Y-122473394D01*
X70516595Y-122473394D01*
X70493337Y-122353520D01*
X70409463Y-122225838D01*
X70282843Y-122140368D01*
X70133059Y-122110330D01*
X69853778Y-122110330D01*
X69868382Y-122107425D01*
X70020828Y-122005563D01*
X70213198Y-121813194D01*
X70530880Y-121813194D01*
X70582155Y-121891250D01*
X70708775Y-121976720D01*
X70858559Y-122006758D01*
X72358559Y-122006758D01*
X72503833Y-121978572D01*
X72631515Y-121894698D01*
X72716985Y-121768078D01*
X72747023Y-121618294D01*
X72747023Y-121068294D01*
X72722370Y-120941228D01*
X72747023Y-120818294D01*
X72747023Y-120276694D01*
X73252617Y-120276694D01*
X74235159Y-121259235D01*
X74235159Y-123357353D01*
X73912617Y-123679894D01*
X73719500Y-123679894D01*
X73405730Y-123366123D01*
X73232682Y-123250497D01*
X73028559Y-123209894D01*
X72747023Y-123209894D01*
X72747023Y-122668294D01*
X72747023Y-122668294D01*
G37*
X72747023Y-122668294D02*
X72718837Y-122523020D01*
X72634963Y-122395338D01*
X72508343Y-122309868D01*
X72358559Y-122279830D01*
X70858559Y-122279830D01*
X70713285Y-122308016D01*
X70585603Y-122391890D01*
X70530587Y-122473394D01*
X70516595Y-122473394D01*
X70493337Y-122353520D01*
X70409463Y-122225838D01*
X70282843Y-122140368D01*
X70133059Y-122110330D01*
X69853778Y-122110330D01*
X69868382Y-122107425D01*
X70020828Y-122005563D01*
X70213198Y-121813194D01*
X70530880Y-121813194D01*
X70582155Y-121891250D01*
X70708775Y-121976720D01*
X70858559Y-122006758D01*
X72358559Y-122006758D01*
X72503833Y-121978572D01*
X72631515Y-121894698D01*
X72716985Y-121768078D01*
X72747023Y-121618294D01*
X72747023Y-121068294D01*
X72722370Y-120941228D01*
X72747023Y-120818294D01*
X72747023Y-120276694D01*
X73252617Y-120276694D01*
X74235159Y-121259235D01*
X74235159Y-123357353D01*
X73912617Y-123679894D01*
X73719500Y-123679894D01*
X73405730Y-123366123D01*
X73232682Y-123250497D01*
X73028559Y-123209894D01*
X72747023Y-123209894D01*
X72747023Y-122668294D01*
G36*
X73396959Y-118719236D02*
X73685730Y-118430465D01*
X73743581Y-118343884D01*
X73856515Y-118269698D01*
X73941985Y-118143078D01*
X73972023Y-117993294D01*
X73972023Y-116493294D01*
X73959392Y-116428194D01*
X74258150Y-116428194D01*
X74245095Y-116493294D01*
X74245095Y-117993294D01*
X74273281Y-118138568D01*
X74357155Y-118266250D01*
X74483775Y-118351720D01*
X74633559Y-118381758D01*
X75183559Y-118381758D01*
X75310625Y-118357105D01*
X75433559Y-118381758D01*
X75983559Y-118381758D01*
X76110625Y-118357105D01*
X76233559Y-118381758D01*
X76783559Y-118381758D01*
X76910625Y-118357105D01*
X77033559Y-118381758D01*
X77219774Y-118381758D01*
X77219534Y-118657357D01*
X77329509Y-118923517D01*
X77532967Y-119127331D01*
X77798935Y-119237770D01*
X78086920Y-119238021D01*
X78353080Y-119128046D01*
X78505367Y-118976025D01*
X79179481Y-118976025D01*
X79214437Y-118982978D01*
X79394260Y-118947210D01*
X79546706Y-118845348D01*
X79553660Y-118838395D01*
X79553662Y-118838392D01*
X80016733Y-118375322D01*
X80128833Y-118353572D01*
X80256515Y-118269698D01*
X80341985Y-118143078D01*
X80372023Y-117993294D01*
X80372023Y-116493294D01*
X80343837Y-116348020D01*
X80259963Y-116220338D01*
X80133343Y-116134868D01*
X79983559Y-116104830D01*
X79433559Y-116104830D01*
X79306493Y-116129483D01*
X79183559Y-116104830D01*
X78633559Y-116104830D01*
X78506493Y-116129483D01*
X78383559Y-116104830D01*
X77833559Y-116104830D01*
X77706493Y-116129483D01*
X77583559Y-116104830D01*
X77033559Y-116104830D01*
X76906493Y-116129483D01*
X76783559Y-116104830D01*
X76233559Y-116104830D01*
X76106493Y-116129483D01*
X75983559Y-116104830D01*
X75433559Y-116104830D01*
X75378459Y-116115520D01*
X75378459Y-116098294D01*
X75342690Y-115918471D01*
X75307067Y-115865158D01*
X75240829Y-115766025D01*
X75100828Y-115626025D01*
X74948382Y-115524163D01*
X74768559Y-115488394D01*
X71915198Y-115488394D01*
X71791523Y-115364719D01*
X71791523Y-114878794D01*
X71763337Y-114733520D01*
X71679463Y-114605838D01*
X71572928Y-114533925D01*
X74641559Y-114533925D01*
X74641559Y-114588663D01*
X74747899Y-115123272D01*
X75050731Y-115576491D01*
X75503950Y-115879323D01*
X76038559Y-115985663D01*
X76573168Y-115879323D01*
X77026387Y-115576491D01*
X77329219Y-115123272D01*
X77435559Y-114588663D01*
X77435559Y-114533925D01*
X77329219Y-113999316D01*
X77026387Y-113546097D01*
X76573168Y-113243265D01*
X76038559Y-113136925D01*
X75503950Y-113243265D01*
X75050731Y-113546097D01*
X74747899Y-113999316D01*
X74641559Y-114533925D01*
X71572928Y-114533925D01*
X71552843Y-114520368D01*
X71403059Y-114490330D01*
X70768059Y-114490330D01*
X70622785Y-114518516D01*
X70495103Y-114602390D01*
X70409633Y-114729010D01*
X70379595Y-114878794D01*
X70379595Y-115767794D01*
X70407781Y-115913068D01*
X70491655Y-116040750D01*
X70618275Y-116126220D01*
X70768059Y-116156258D01*
X71253984Y-116156258D01*
X71388290Y-116290564D01*
X71540736Y-116392425D01*
X71720559Y-116428194D01*
X72658150Y-116428194D01*
X72645095Y-116493294D01*
X72645095Y-116758394D01*
X71786595Y-116758394D01*
X71763337Y-116638520D01*
X71679463Y-116510838D01*
X71552843Y-116425368D01*
X71403059Y-116395330D01*
X70768059Y-116395330D01*
X70622785Y-116423516D01*
X70495103Y-116507390D01*
X70409633Y-116634010D01*
X70379595Y-116783794D01*
X70379595Y-117672794D01*
X70407781Y-117818068D01*
X70491655Y-117945750D01*
X70618275Y-118031220D01*
X70768059Y-118061258D01*
X71403059Y-118061258D01*
X71548333Y-118033072D01*
X71676015Y-117949198D01*
X71761485Y-117822578D01*
X71786429Y-117698194D01*
X72645095Y-117698194D01*
X72645095Y-117962416D01*
X72486388Y-118121123D01*
X72377770Y-118283683D01*
X72358559Y-118279830D01*
X70858559Y-118279830D01*
X70784083Y-118294280D01*
X70655828Y-118166025D01*
X70503382Y-118064163D01*
X70323559Y-118028394D01*
X68613198Y-118028394D01*
X68514308Y-117929505D01*
X68586485Y-117822578D01*
X68616523Y-117672794D01*
X68616523Y-117037794D01*
X68588337Y-116892520D01*
X68504463Y-116764838D01*
X68377843Y-116679368D01*
X68228059Y-116649330D01*
X67339059Y-116649330D01*
X67193785Y-116677516D01*
X67066103Y-116761390D01*
X66980633Y-116888010D01*
X66950595Y-117037794D01*
X66950595Y-117672794D01*
X66978781Y-117818068D01*
X67062655Y-117945750D01*
X67189275Y-118031220D01*
X67339059Y-118061258D01*
X67361550Y-118061258D01*
X67451290Y-118195563D01*
X68086290Y-118830564D01*
X68225404Y-118923517D01*
X68238736Y-118932425D01*
X68418559Y-118968194D01*
X68710664Y-118968194D01*
X68590103Y-119047390D01*
X68504633Y-119174010D01*
X68474595Y-119323794D01*
X68474595Y-119682719D01*
X66953921Y-121203394D01*
X63973559Y-121203394D01*
X63793736Y-121239163D01*
X63641290Y-121341024D01*
X63006290Y-121976025D01*
X62904428Y-122128471D01*
X62868659Y-122308294D01*
X62868659Y-122935830D01*
X62449559Y-122935830D01*
X62304285Y-122964016D01*
X62195559Y-123035438D01*
X62195559Y-119235031D01*
X62360163Y-119202290D01*
X62607374Y-119037109D01*
X62627374Y-119017110D01*
X62792555Y-118769899D01*
X62793834Y-118763471D01*
X62850559Y-118478294D01*
X62850559Y-118011895D01*
X62861515Y-118004698D01*
X62946985Y-117878078D01*
X62977023Y-117728294D01*
X62977023Y-116728294D01*
X62948837Y-116583020D01*
X62864963Y-116455338D01*
X62850559Y-116445615D01*
X62850559Y-114760667D01*
X63449560Y-114161666D01*
X63532353Y-114039011D01*
X63563331Y-113889418D01*
X63534233Y-113739448D01*
X63449560Y-113612294D01*
X62195559Y-112358293D01*
X62195559Y-112275294D01*
X62428028Y-112275294D01*
X63607294Y-113454560D01*
X63729949Y-113537353D01*
X63879542Y-113568331D01*
X64029512Y-113539233D01*
X64156666Y-113454560D01*
X64219872Y-113391355D01*
X65525968Y-114697451D01*
X65525968Y-115421400D01*
X64607537Y-116339830D01*
X64088559Y-116339830D01*
X63943285Y-116368016D01*
X63815603Y-116451890D01*
X63730133Y-116578510D01*
X63700095Y-116728294D01*
X63700095Y-117728294D01*
X63728281Y-117873568D01*
X63812155Y-118001250D01*
X63938775Y-118086720D01*
X64088559Y-118116758D01*
X65088559Y-118116758D01*
X65233833Y-118088572D01*
X65361515Y-118004698D01*
X65446985Y-117878078D01*
X65477023Y-117728294D01*
X65477023Y-117266396D01*
X66609978Y-116133440D01*
X66609981Y-116133438D01*
X66708721Y-115985663D01*
X66747632Y-115927430D01*
X66795968Y-115684425D01*
X66795968Y-114434425D01*
X66747632Y-114191421D01*
X66609981Y-113985412D01*
X65117898Y-112493329D01*
X65335932Y-112275294D01*
X66328329Y-112275294D01*
X66315595Y-112338794D01*
X66315595Y-112973794D01*
X66343781Y-113119068D01*
X66427655Y-113246750D01*
X66554275Y-113332220D01*
X66704059Y-113362258D01*
X67593059Y-113362258D01*
X67642611Y-113352644D01*
X67950045Y-113660079D01*
X67950045Y-114184104D01*
X67978231Y-114329378D01*
X68031637Y-114410678D01*
X67451290Y-114991025D01*
X67361550Y-115125330D01*
X67339059Y-115125330D01*
X67193785Y-115153516D01*
X67066103Y-115237390D01*
X66980633Y-115364010D01*
X66950595Y-115513794D01*
X66950595Y-116148794D01*
X66978781Y-116294068D01*
X67062655Y-116421750D01*
X67189275Y-116507220D01*
X67339059Y-116537258D01*
X68228059Y-116537258D01*
X68373333Y-116509072D01*
X68501015Y-116425198D01*
X68586485Y-116298578D01*
X68616523Y-116148794D01*
X68616523Y-115513794D01*
X68588337Y-115368520D01*
X68514807Y-115256585D01*
X69070829Y-114700563D01*
X69158995Y-114568613D01*
X69283883Y-114544382D01*
X69411565Y-114460508D01*
X69497035Y-114333888D01*
X69527073Y-114184104D01*
X69527073Y-113384004D01*
X69498887Y-113238730D01*
X69415013Y-113111048D01*
X69288393Y-113025578D01*
X69138609Y-112995540D01*
X68614584Y-112995540D01*
X68166117Y-112547074D01*
X69156297Y-112547074D01*
X69288509Y-112573588D01*
X70088609Y-112573588D01*
X70233883Y-112545402D01*
X70361565Y-112461528D01*
X70447035Y-112334908D01*
X70458990Y-112275294D01*
X74438219Y-112275294D01*
X76273106Y-112701312D01*
X76288340Y-112701796D01*
X76294442Y-112704324D01*
X76326146Y-112704324D01*
X76363747Y-112712425D01*
X76371692Y-112712551D01*
X76409515Y-112705649D01*
X76441189Y-112706656D01*
X76447370Y-112704323D01*
X76462610Y-112704323D01*
X76558275Y-112685294D01*
X76558278Y-112685294D01*
X76713646Y-112620939D01*
X76794752Y-112566746D01*
X76913666Y-112447832D01*
X76967859Y-112366726D01*
X77005731Y-112275294D01*
X77250427Y-112275294D01*
X77282681Y-112346659D01*
X77300139Y-112385286D01*
X77356882Y-112464629D01*
X77356884Y-112464631D01*
X77356885Y-112464633D01*
X77407395Y-112512029D01*
X77479513Y-112579703D01*
X77479516Y-112579704D01*
X77479518Y-112579706D01*
X77562306Y-112631294D01*
X77719640Y-112690678D01*
X77719643Y-112690678D01*
X77815864Y-112706657D01*
X77897389Y-112704065D01*
X77978795Y-112702475D01*
X79926727Y-112275294D01*
X83556821Y-112275294D01*
X83589563Y-112439899D01*
X83717957Y-112632053D01*
X83754744Y-112687109D01*
X84389744Y-113322110D01*
X84636955Y-113487290D01*
X84925346Y-113544655D01*
X84903315Y-113654514D01*
X84903315Y-114452074D01*
X84931501Y-114597348D01*
X85015375Y-114725030D01*
X85141995Y-114810500D01*
X85222934Y-114826732D01*
X85243429Y-114929766D01*
X85256428Y-114995117D01*
X85343434Y-115125330D01*
X84484059Y-115125330D01*
X84338785Y-115153516D01*
X84211103Y-115237390D01*
X84125633Y-115364010D01*
X84095595Y-115513794D01*
X84095595Y-115999719D01*
X83445985Y-116649330D01*
X82579059Y-116649330D01*
X82433785Y-116677516D01*
X82306103Y-116761390D01*
X82298000Y-116773394D01*
X81972023Y-116773394D01*
X81972023Y-116493294D01*
X81943837Y-116348020D01*
X81859963Y-116220338D01*
X81733343Y-116134868D01*
X81583559Y-116104830D01*
X81033559Y-116104830D01*
X80888285Y-116133016D01*
X80760603Y-116216890D01*
X80675133Y-116343510D01*
X80645095Y-116493294D01*
X80645095Y-117993294D01*
X80673281Y-118138568D01*
X80757155Y-118266250D01*
X80838659Y-118321266D01*
X80838659Y-118748655D01*
X80288921Y-119298394D01*
X76038559Y-119298394D01*
X75858736Y-119334163D01*
X75706289Y-119436025D01*
X74813460Y-120328854D01*
X73850730Y-119366123D01*
X73677682Y-119250497D01*
X73473559Y-119209894D01*
X73396959Y-119209894D01*
X73396959Y-118719236D01*
X73396959Y-118719236D01*
G37*
X73396959Y-118719236D02*
X73685730Y-118430465D01*
X73743581Y-118343884D01*
X73856515Y-118269698D01*
X73941985Y-118143078D01*
X73972023Y-117993294D01*
X73972023Y-116493294D01*
X73959392Y-116428194D01*
X74258150Y-116428194D01*
X74245095Y-116493294D01*
X74245095Y-117993294D01*
X74273281Y-118138568D01*
X74357155Y-118266250D01*
X74483775Y-118351720D01*
X74633559Y-118381758D01*
X75183559Y-118381758D01*
X75310625Y-118357105D01*
X75433559Y-118381758D01*
X75983559Y-118381758D01*
X76110625Y-118357105D01*
X76233559Y-118381758D01*
X76783559Y-118381758D01*
X76910625Y-118357105D01*
X77033559Y-118381758D01*
X77219774Y-118381758D01*
X77219534Y-118657357D01*
X77329509Y-118923517D01*
X77532967Y-119127331D01*
X77798935Y-119237770D01*
X78086920Y-119238021D01*
X78353080Y-119128046D01*
X78505367Y-118976025D01*
X79179481Y-118976025D01*
X79214437Y-118982978D01*
X79394260Y-118947210D01*
X79546706Y-118845348D01*
X79553660Y-118838395D01*
X79553662Y-118838392D01*
X80016733Y-118375322D01*
X80128833Y-118353572D01*
X80256515Y-118269698D01*
X80341985Y-118143078D01*
X80372023Y-117993294D01*
X80372023Y-116493294D01*
X80343837Y-116348020D01*
X80259963Y-116220338D01*
X80133343Y-116134868D01*
X79983559Y-116104830D01*
X79433559Y-116104830D01*
X79306493Y-116129483D01*
X79183559Y-116104830D01*
X78633559Y-116104830D01*
X78506493Y-116129483D01*
X78383559Y-116104830D01*
X77833559Y-116104830D01*
X77706493Y-116129483D01*
X77583559Y-116104830D01*
X77033559Y-116104830D01*
X76906493Y-116129483D01*
X76783559Y-116104830D01*
X76233559Y-116104830D01*
X76106493Y-116129483D01*
X75983559Y-116104830D01*
X75433559Y-116104830D01*
X75378459Y-116115520D01*
X75378459Y-116098294D01*
X75342690Y-115918471D01*
X75307067Y-115865158D01*
X75240829Y-115766025D01*
X75100828Y-115626025D01*
X74948382Y-115524163D01*
X74768559Y-115488394D01*
X71915198Y-115488394D01*
X71791523Y-115364719D01*
X71791523Y-114878794D01*
X71763337Y-114733520D01*
X71679463Y-114605838D01*
X71572928Y-114533925D01*
X74641559Y-114533925D01*
X74641559Y-114588663D01*
X74747899Y-115123272D01*
X75050731Y-115576491D01*
X75503950Y-115879323D01*
X76038559Y-115985663D01*
X76573168Y-115879323D01*
X77026387Y-115576491D01*
X77329219Y-115123272D01*
X77435559Y-114588663D01*
X77435559Y-114533925D01*
X77329219Y-113999316D01*
X77026387Y-113546097D01*
X76573168Y-113243265D01*
X76038559Y-113136925D01*
X75503950Y-113243265D01*
X75050731Y-113546097D01*
X74747899Y-113999316D01*
X74641559Y-114533925D01*
X71572928Y-114533925D01*
X71552843Y-114520368D01*
X71403059Y-114490330D01*
X70768059Y-114490330D01*
X70622785Y-114518516D01*
X70495103Y-114602390D01*
X70409633Y-114729010D01*
X70379595Y-114878794D01*
X70379595Y-115767794D01*
X70407781Y-115913068D01*
X70491655Y-116040750D01*
X70618275Y-116126220D01*
X70768059Y-116156258D01*
X71253984Y-116156258D01*
X71388290Y-116290564D01*
X71540736Y-116392425D01*
X71720559Y-116428194D01*
X72658150Y-116428194D01*
X72645095Y-116493294D01*
X72645095Y-116758394D01*
X71786595Y-116758394D01*
X71763337Y-116638520D01*
X71679463Y-116510838D01*
X71552843Y-116425368D01*
X71403059Y-116395330D01*
X70768059Y-116395330D01*
X70622785Y-116423516D01*
X70495103Y-116507390D01*
X70409633Y-116634010D01*
X70379595Y-116783794D01*
X70379595Y-117672794D01*
X70407781Y-117818068D01*
X70491655Y-117945750D01*
X70618275Y-118031220D01*
X70768059Y-118061258D01*
X71403059Y-118061258D01*
X71548333Y-118033072D01*
X71676015Y-117949198D01*
X71761485Y-117822578D01*
X71786429Y-117698194D01*
X72645095Y-117698194D01*
X72645095Y-117962416D01*
X72486388Y-118121123D01*
X72377770Y-118283683D01*
X72358559Y-118279830D01*
X70858559Y-118279830D01*
X70784083Y-118294280D01*
X70655828Y-118166025D01*
X70503382Y-118064163D01*
X70323559Y-118028394D01*
X68613198Y-118028394D01*
X68514308Y-117929505D01*
X68586485Y-117822578D01*
X68616523Y-117672794D01*
X68616523Y-117037794D01*
X68588337Y-116892520D01*
X68504463Y-116764838D01*
X68377843Y-116679368D01*
X68228059Y-116649330D01*
X67339059Y-116649330D01*
X67193785Y-116677516D01*
X67066103Y-116761390D01*
X66980633Y-116888010D01*
X66950595Y-117037794D01*
X66950595Y-117672794D01*
X66978781Y-117818068D01*
X67062655Y-117945750D01*
X67189275Y-118031220D01*
X67339059Y-118061258D01*
X67361550Y-118061258D01*
X67451290Y-118195563D01*
X68086290Y-118830564D01*
X68225404Y-118923517D01*
X68238736Y-118932425D01*
X68418559Y-118968194D01*
X68710664Y-118968194D01*
X68590103Y-119047390D01*
X68504633Y-119174010D01*
X68474595Y-119323794D01*
X68474595Y-119682719D01*
X66953921Y-121203394D01*
X63973559Y-121203394D01*
X63793736Y-121239163D01*
X63641290Y-121341024D01*
X63006290Y-121976025D01*
X62904428Y-122128471D01*
X62868659Y-122308294D01*
X62868659Y-122935830D01*
X62449559Y-122935830D01*
X62304285Y-122964016D01*
X62195559Y-123035438D01*
X62195559Y-119235031D01*
X62360163Y-119202290D01*
X62607374Y-119037109D01*
X62627374Y-119017110D01*
X62792555Y-118769899D01*
X62793834Y-118763471D01*
X62850559Y-118478294D01*
X62850559Y-118011895D01*
X62861515Y-118004698D01*
X62946985Y-117878078D01*
X62977023Y-117728294D01*
X62977023Y-116728294D01*
X62948837Y-116583020D01*
X62864963Y-116455338D01*
X62850559Y-116445615D01*
X62850559Y-114760667D01*
X63449560Y-114161666D01*
X63532353Y-114039011D01*
X63563331Y-113889418D01*
X63534233Y-113739448D01*
X63449560Y-113612294D01*
X62195559Y-112358293D01*
X62195559Y-112275294D01*
X62428028Y-112275294D01*
X63607294Y-113454560D01*
X63729949Y-113537353D01*
X63879542Y-113568331D01*
X64029512Y-113539233D01*
X64156666Y-113454560D01*
X64219872Y-113391355D01*
X65525968Y-114697451D01*
X65525968Y-115421400D01*
X64607537Y-116339830D01*
X64088559Y-116339830D01*
X63943285Y-116368016D01*
X63815603Y-116451890D01*
X63730133Y-116578510D01*
X63700095Y-116728294D01*
X63700095Y-117728294D01*
X63728281Y-117873568D01*
X63812155Y-118001250D01*
X63938775Y-118086720D01*
X64088559Y-118116758D01*
X65088559Y-118116758D01*
X65233833Y-118088572D01*
X65361515Y-118004698D01*
X65446985Y-117878078D01*
X65477023Y-117728294D01*
X65477023Y-117266396D01*
X66609978Y-116133440D01*
X66609981Y-116133438D01*
X66708721Y-115985663D01*
X66747632Y-115927430D01*
X66795968Y-115684425D01*
X66795968Y-114434425D01*
X66747632Y-114191421D01*
X66609981Y-113985412D01*
X65117898Y-112493329D01*
X65335932Y-112275294D01*
X66328329Y-112275294D01*
X66315595Y-112338794D01*
X66315595Y-112973794D01*
X66343781Y-113119068D01*
X66427655Y-113246750D01*
X66554275Y-113332220D01*
X66704059Y-113362258D01*
X67593059Y-113362258D01*
X67642611Y-113352644D01*
X67950045Y-113660079D01*
X67950045Y-114184104D01*
X67978231Y-114329378D01*
X68031637Y-114410678D01*
X67451290Y-114991025D01*
X67361550Y-115125330D01*
X67339059Y-115125330D01*
X67193785Y-115153516D01*
X67066103Y-115237390D01*
X66980633Y-115364010D01*
X66950595Y-115513794D01*
X66950595Y-116148794D01*
X66978781Y-116294068D01*
X67062655Y-116421750D01*
X67189275Y-116507220D01*
X67339059Y-116537258D01*
X68228059Y-116537258D01*
X68373333Y-116509072D01*
X68501015Y-116425198D01*
X68586485Y-116298578D01*
X68616523Y-116148794D01*
X68616523Y-115513794D01*
X68588337Y-115368520D01*
X68514807Y-115256585D01*
X69070829Y-114700563D01*
X69158995Y-114568613D01*
X69283883Y-114544382D01*
X69411565Y-114460508D01*
X69497035Y-114333888D01*
X69527073Y-114184104D01*
X69527073Y-113384004D01*
X69498887Y-113238730D01*
X69415013Y-113111048D01*
X69288393Y-113025578D01*
X69138609Y-112995540D01*
X68614584Y-112995540D01*
X68166117Y-112547074D01*
X69156297Y-112547074D01*
X69288509Y-112573588D01*
X70088609Y-112573588D01*
X70233883Y-112545402D01*
X70361565Y-112461528D01*
X70447035Y-112334908D01*
X70458990Y-112275294D01*
X74438219Y-112275294D01*
X76273106Y-112701312D01*
X76288340Y-112701796D01*
X76294442Y-112704324D01*
X76326146Y-112704324D01*
X76363747Y-112712425D01*
X76371692Y-112712551D01*
X76409515Y-112705649D01*
X76441189Y-112706656D01*
X76447370Y-112704323D01*
X76462610Y-112704323D01*
X76558275Y-112685294D01*
X76558278Y-112685294D01*
X76713646Y-112620939D01*
X76794752Y-112566746D01*
X76913666Y-112447832D01*
X76967859Y-112366726D01*
X77005731Y-112275294D01*
X77250427Y-112275294D01*
X77282681Y-112346659D01*
X77300139Y-112385286D01*
X77356882Y-112464629D01*
X77356884Y-112464631D01*
X77356885Y-112464633D01*
X77407395Y-112512029D01*
X77479513Y-112579703D01*
X77479516Y-112579704D01*
X77479518Y-112579706D01*
X77562306Y-112631294D01*
X77719640Y-112690678D01*
X77719643Y-112690678D01*
X77815864Y-112706657D01*
X77897389Y-112704065D01*
X77978795Y-112702475D01*
X79926727Y-112275294D01*
X83556821Y-112275294D01*
X83589563Y-112439899D01*
X83717957Y-112632053D01*
X83754744Y-112687109D01*
X84389744Y-113322110D01*
X84636955Y-113487290D01*
X84925346Y-113544655D01*
X84903315Y-113654514D01*
X84903315Y-114452074D01*
X84931501Y-114597348D01*
X85015375Y-114725030D01*
X85141995Y-114810500D01*
X85222934Y-114826732D01*
X85243429Y-114929766D01*
X85256428Y-114995117D01*
X85343434Y-115125330D01*
X84484059Y-115125330D01*
X84338785Y-115153516D01*
X84211103Y-115237390D01*
X84125633Y-115364010D01*
X84095595Y-115513794D01*
X84095595Y-115999719D01*
X83445985Y-116649330D01*
X82579059Y-116649330D01*
X82433785Y-116677516D01*
X82306103Y-116761390D01*
X82298000Y-116773394D01*
X81972023Y-116773394D01*
X81972023Y-116493294D01*
X81943837Y-116348020D01*
X81859963Y-116220338D01*
X81733343Y-116134868D01*
X81583559Y-116104830D01*
X81033559Y-116104830D01*
X80888285Y-116133016D01*
X80760603Y-116216890D01*
X80675133Y-116343510D01*
X80645095Y-116493294D01*
X80645095Y-117993294D01*
X80673281Y-118138568D01*
X80757155Y-118266250D01*
X80838659Y-118321266D01*
X80838659Y-118748655D01*
X80288921Y-119298394D01*
X76038559Y-119298394D01*
X75858736Y-119334163D01*
X75706289Y-119436025D01*
X74813460Y-120328854D01*
X73850730Y-119366123D01*
X73677682Y-119250497D01*
X73473559Y-119209894D01*
X73396959Y-119209894D01*
X73396959Y-118719236D01*
G36*
X91786559Y-122427537D02*
X91689151Y-122329959D01*
X91423183Y-122219520D01*
X91135198Y-122219269D01*
X90919741Y-122308294D01*
X90536706Y-122308294D01*
X90293702Y-122356630D01*
X90087693Y-122494281D01*
X89970459Y-122611515D01*
X89970459Y-122435294D01*
X89934690Y-122255471D01*
X89910668Y-122219520D01*
X89832829Y-122103025D01*
X89070828Y-121341025D01*
X88918382Y-121239163D01*
X88738559Y-121203394D01*
X87026595Y-121203394D01*
X87003337Y-121083520D01*
X86919463Y-120955838D01*
X86792843Y-120870368D01*
X86643059Y-120840330D01*
X86426062Y-120840330D01*
X86657829Y-120608563D01*
X86665637Y-120596877D01*
X86788333Y-120573072D01*
X86916015Y-120489198D01*
X87001485Y-120362578D01*
X87031523Y-120212794D01*
X87031523Y-119360796D01*
X87270595Y-119599869D01*
X87270595Y-120212794D01*
X87298781Y-120358068D01*
X87382655Y-120485750D01*
X87509275Y-120571220D01*
X87659059Y-120601258D01*
X88294059Y-120601258D01*
X88439333Y-120573072D01*
X88567015Y-120489198D01*
X88652485Y-120362578D01*
X88682523Y-120212794D01*
X88682523Y-119323794D01*
X88654337Y-119178520D01*
X88570463Y-119050838D01*
X88443843Y-118965368D01*
X88294059Y-118935330D01*
X87935134Y-118935330D01*
X87165828Y-118166025D01*
X87013382Y-118064163D01*
X86998778Y-118061258D01*
X87278059Y-118061258D01*
X87423333Y-118033072D01*
X87551015Y-117949198D01*
X87636485Y-117822578D01*
X87666523Y-117672794D01*
X87666523Y-117037794D01*
X87638337Y-116892520D01*
X87554463Y-116764838D01*
X87427843Y-116679368D01*
X87278563Y-116649431D01*
X87244151Y-116614959D01*
X87057025Y-116537258D01*
X87278059Y-116537258D01*
X87423333Y-116509072D01*
X87522552Y-116443896D01*
X87544744Y-116477109D01*
X88199744Y-117132109D01*
X88446954Y-117297290D01*
X88738559Y-117355294D01*
X88807329Y-117355294D01*
X88794595Y-117418794D01*
X88794595Y-118307794D01*
X88822781Y-118453068D01*
X88906655Y-118580750D01*
X89030659Y-118664454D01*
X89030659Y-118968197D01*
X88910103Y-119047390D01*
X88824633Y-119174010D01*
X88794595Y-119323794D01*
X88794595Y-120212794D01*
X88822781Y-120358068D01*
X88906655Y-120485750D01*
X89033275Y-120571220D01*
X89183059Y-120601258D01*
X89818059Y-120601258D01*
X89963333Y-120573072D01*
X90091015Y-120489198D01*
X90176485Y-120362578D01*
X90206523Y-120212794D01*
X90206523Y-119323794D01*
X90178337Y-119178520D01*
X90094463Y-119050838D01*
X89970459Y-118967134D01*
X89970459Y-118663391D01*
X90091015Y-118584198D01*
X90176485Y-118457578D01*
X90206523Y-118307794D01*
X90206523Y-118254727D01*
X90295068Y-118195563D01*
X90788824Y-117701808D01*
X91312849Y-117701808D01*
X91458123Y-117673622D01*
X91585805Y-117589748D01*
X91671275Y-117463128D01*
X91701313Y-117313344D01*
X91701313Y-116513244D01*
X91673127Y-116367970D01*
X91589253Y-116240288D01*
X91462633Y-116154818D01*
X91312849Y-116124780D01*
X90919703Y-116124780D01*
X91786559Y-115257925D01*
X91786559Y-122427537D01*
X91786559Y-122427537D01*
G37*
X91786559Y-122427537D02*
X91689151Y-122329959D01*
X91423183Y-122219520D01*
X91135198Y-122219269D01*
X90919741Y-122308294D01*
X90536706Y-122308294D01*
X90293702Y-122356630D01*
X90087693Y-122494281D01*
X89970459Y-122611515D01*
X89970459Y-122435294D01*
X89934690Y-122255471D01*
X89910668Y-122219520D01*
X89832829Y-122103025D01*
X89070828Y-121341025D01*
X88918382Y-121239163D01*
X88738559Y-121203394D01*
X87026595Y-121203394D01*
X87003337Y-121083520D01*
X86919463Y-120955838D01*
X86792843Y-120870368D01*
X86643059Y-120840330D01*
X86426062Y-120840330D01*
X86657829Y-120608563D01*
X86665637Y-120596877D01*
X86788333Y-120573072D01*
X86916015Y-120489198D01*
X87001485Y-120362578D01*
X87031523Y-120212794D01*
X87031523Y-119360796D01*
X87270595Y-119599869D01*
X87270595Y-120212794D01*
X87298781Y-120358068D01*
X87382655Y-120485750D01*
X87509275Y-120571220D01*
X87659059Y-120601258D01*
X88294059Y-120601258D01*
X88439333Y-120573072D01*
X88567015Y-120489198D01*
X88652485Y-120362578D01*
X88682523Y-120212794D01*
X88682523Y-119323794D01*
X88654337Y-119178520D01*
X88570463Y-119050838D01*
X88443843Y-118965368D01*
X88294059Y-118935330D01*
X87935134Y-118935330D01*
X87165828Y-118166025D01*
X87013382Y-118064163D01*
X86998778Y-118061258D01*
X87278059Y-118061258D01*
X87423333Y-118033072D01*
X87551015Y-117949198D01*
X87636485Y-117822578D01*
X87666523Y-117672794D01*
X87666523Y-117037794D01*
X87638337Y-116892520D01*
X87554463Y-116764838D01*
X87427843Y-116679368D01*
X87278563Y-116649431D01*
X87244151Y-116614959D01*
X87057025Y-116537258D01*
X87278059Y-116537258D01*
X87423333Y-116509072D01*
X87522552Y-116443896D01*
X87544744Y-116477109D01*
X88199744Y-117132109D01*
X88446954Y-117297290D01*
X88738559Y-117355294D01*
X88807329Y-117355294D01*
X88794595Y-117418794D01*
X88794595Y-118307794D01*
X88822781Y-118453068D01*
X88906655Y-118580750D01*
X89030659Y-118664454D01*
X89030659Y-118968197D01*
X88910103Y-119047390D01*
X88824633Y-119174010D01*
X88794595Y-119323794D01*
X88794595Y-120212794D01*
X88822781Y-120358068D01*
X88906655Y-120485750D01*
X89033275Y-120571220D01*
X89183059Y-120601258D01*
X89818059Y-120601258D01*
X89963333Y-120573072D01*
X90091015Y-120489198D01*
X90176485Y-120362578D01*
X90206523Y-120212794D01*
X90206523Y-119323794D01*
X90178337Y-119178520D01*
X90094463Y-119050838D01*
X89970459Y-118967134D01*
X89970459Y-118663391D01*
X90091015Y-118584198D01*
X90176485Y-118457578D01*
X90206523Y-118307794D01*
X90206523Y-118254727D01*
X90295068Y-118195563D01*
X90788824Y-117701808D01*
X91312849Y-117701808D01*
X91458123Y-117673622D01*
X91585805Y-117589748D01*
X91671275Y-117463128D01*
X91701313Y-117313344D01*
X91701313Y-116513244D01*
X91673127Y-116367970D01*
X91589253Y-116240288D01*
X91462633Y-116154818D01*
X91312849Y-116124780D01*
X90919703Y-116124780D01*
X91786559Y-115257925D01*
X91786559Y-122427537D01*
G36*
X85138892Y-120844307D02*
X85119059Y-120840330D01*
X84484059Y-120840330D01*
X84338785Y-120868516D01*
X84211103Y-120952390D01*
X84143862Y-121052004D01*
X84122370Y-120941228D01*
X84147023Y-120818294D01*
X84147023Y-120268294D01*
X84122370Y-120141228D01*
X84147023Y-120018294D01*
X84147023Y-119468294D01*
X84122370Y-119341228D01*
X84147023Y-119218294D01*
X84147023Y-118674368D01*
X84760134Y-118061258D01*
X85373059Y-118061258D01*
X85518333Y-118033072D01*
X85646015Y-117949198D01*
X85731485Y-117822578D01*
X85761523Y-117672794D01*
X85761523Y-117037794D01*
X85733337Y-116892520D01*
X85649463Y-116764838D01*
X85522843Y-116679368D01*
X85373059Y-116649330D01*
X84775062Y-116649330D01*
X84887134Y-116537258D01*
X85373059Y-116537258D01*
X85518333Y-116509072D01*
X85646015Y-116425198D01*
X85731485Y-116298578D01*
X85761523Y-116148794D01*
X85761523Y-115550796D01*
X86000595Y-115789868D01*
X86000595Y-116148794D01*
X86028781Y-116294068D01*
X86112655Y-116421750D01*
X86239275Y-116507220D01*
X86389059Y-116537258D01*
X86610358Y-116537258D01*
X86424038Y-116614244D01*
X86388850Y-116649371D01*
X86243785Y-116677516D01*
X86116103Y-116761390D01*
X86030633Y-116888010D01*
X86000595Y-117037794D01*
X86000595Y-117672794D01*
X86022874Y-117787625D01*
X85789038Y-117884244D01*
X85585224Y-118087702D01*
X85474785Y-118353670D01*
X85474534Y-118641655D01*
X85584509Y-118907815D01*
X85730559Y-119054121D01*
X85649633Y-119174010D01*
X85619595Y-119323794D01*
X85619595Y-120212794D01*
X85636645Y-120300670D01*
X85231290Y-120706025D01*
X85138892Y-120844307D01*
X85138892Y-120844307D01*
G37*
X85138892Y-120844307D02*
X85119059Y-120840330D01*
X84484059Y-120840330D01*
X84338785Y-120868516D01*
X84211103Y-120952390D01*
X84143862Y-121052004D01*
X84122370Y-120941228D01*
X84147023Y-120818294D01*
X84147023Y-120268294D01*
X84122370Y-120141228D01*
X84147023Y-120018294D01*
X84147023Y-119468294D01*
X84122370Y-119341228D01*
X84147023Y-119218294D01*
X84147023Y-118674368D01*
X84760134Y-118061258D01*
X85373059Y-118061258D01*
X85518333Y-118033072D01*
X85646015Y-117949198D01*
X85731485Y-117822578D01*
X85761523Y-117672794D01*
X85761523Y-117037794D01*
X85733337Y-116892520D01*
X85649463Y-116764838D01*
X85522843Y-116679368D01*
X85373059Y-116649330D01*
X84775062Y-116649330D01*
X84887134Y-116537258D01*
X85373059Y-116537258D01*
X85518333Y-116509072D01*
X85646015Y-116425198D01*
X85731485Y-116298578D01*
X85761523Y-116148794D01*
X85761523Y-115550796D01*
X86000595Y-115789868D01*
X86000595Y-116148794D01*
X86028781Y-116294068D01*
X86112655Y-116421750D01*
X86239275Y-116507220D01*
X86389059Y-116537258D01*
X86610358Y-116537258D01*
X86424038Y-116614244D01*
X86388850Y-116649371D01*
X86243785Y-116677516D01*
X86116103Y-116761390D01*
X86030633Y-116888010D01*
X86000595Y-117037794D01*
X86000595Y-117672794D01*
X86022874Y-117787625D01*
X85789038Y-117884244D01*
X85585224Y-118087702D01*
X85474785Y-118353670D01*
X85474534Y-118641655D01*
X85584509Y-118907815D01*
X85730559Y-119054121D01*
X85649633Y-119174010D01*
X85619595Y-119323794D01*
X85619595Y-120212794D01*
X85636645Y-120300670D01*
X85231290Y-120706025D01*
X85138892Y-120844307D01*
G36*
X100551384Y-118285190D02*
X100710134Y-118443940D01*
X102309064Y-118443940D01*
X102309064Y-118423940D01*
X102563064Y-118423940D01*
X102563064Y-118443940D01*
X104161994Y-118443940D01*
X104320744Y-118285190D01*
X104320744Y-118148326D01*
X111644524Y-118148326D01*
X111784037Y-118176077D01*
X111873527Y-118235872D01*
X111931628Y-118321801D01*
X112732947Y-121941958D01*
X112664473Y-121839479D01*
X111922525Y-121097531D01*
X111774199Y-120998422D01*
X111599236Y-120963620D01*
X103914326Y-120963620D01*
X103906867Y-120952265D01*
X103805571Y-120883889D01*
X103685744Y-120859859D01*
X101384504Y-120859859D01*
X101268285Y-120882408D01*
X101166139Y-120949507D01*
X101097763Y-121050803D01*
X101073733Y-121170630D01*
X101073733Y-121671010D01*
X101096282Y-121787229D01*
X101118210Y-121820611D01*
X101097763Y-121850903D01*
X101073733Y-121970730D01*
X101073733Y-122471110D01*
X101096282Y-122587329D01*
X101118210Y-122620711D01*
X101097763Y-122651003D01*
X101073733Y-122770830D01*
X101073733Y-123271210D01*
X101096282Y-123387429D01*
X101118210Y-123420811D01*
X101097763Y-123451103D01*
X101073733Y-123570930D01*
X101073733Y-123812437D01*
X101024806Y-123832703D01*
X100846177Y-124011331D01*
X100749504Y-124244720D01*
X100749504Y-124337375D01*
X100908254Y-124496125D01*
X102408124Y-124496125D01*
X102408124Y-124474220D01*
X102662124Y-124474220D01*
X102662124Y-124496125D01*
X104161994Y-124496125D01*
X104320744Y-124337375D01*
X104320744Y-124244720D01*
X104224071Y-124011331D01*
X104045442Y-123832703D01*
X103996515Y-123812437D01*
X103996515Y-123570930D01*
X103978527Y-123478220D01*
X105010058Y-123478220D01*
X106090789Y-124558951D01*
X106085913Y-124583268D01*
X106085913Y-125218268D01*
X106108462Y-125334487D01*
X106175561Y-125436633D01*
X106276857Y-125505009D01*
X106396684Y-125529039D01*
X107285684Y-125529039D01*
X107401903Y-125506490D01*
X107504049Y-125439391D01*
X107572425Y-125338095D01*
X107591097Y-125244986D01*
X107608462Y-125334487D01*
X107675561Y-125436633D01*
X107776857Y-125505009D01*
X107896684Y-125529039D01*
X108785684Y-125529039D01*
X108901903Y-125506490D01*
X109004049Y-125439391D01*
X109072425Y-125338095D01*
X109096455Y-125218268D01*
X109096455Y-124583268D01*
X109073906Y-124467049D01*
X109006807Y-124364903D01*
X108905511Y-124296527D01*
X108798384Y-124275044D01*
X108798384Y-123662768D01*
X108763582Y-123487805D01*
X108664473Y-123339479D01*
X107222625Y-121897631D01*
X107193275Y-121878020D01*
X111409858Y-121878020D01*
X111883984Y-122352146D01*
X111883984Y-122382890D01*
X111451410Y-122382890D01*
X111335191Y-122405439D01*
X111233045Y-122472538D01*
X111164669Y-122573834D01*
X111140639Y-122693661D01*
X111140639Y-124471661D01*
X111163188Y-124587880D01*
X111230287Y-124690026D01*
X111331583Y-124758402D01*
X111451410Y-124782432D01*
X113229410Y-124782432D01*
X113345629Y-124759883D01*
X113355289Y-124753538D01*
X113406676Y-124985692D01*
X113349237Y-124946920D01*
X113229410Y-124922890D01*
X111451410Y-124922890D01*
X111335191Y-124945439D01*
X111233045Y-125012538D01*
X111164669Y-125113834D01*
X111140639Y-125233661D01*
X111140639Y-125967568D01*
X109058481Y-125967568D01*
X109006807Y-125888903D01*
X108905511Y-125820527D01*
X108785684Y-125796497D01*
X107896684Y-125796497D01*
X107780465Y-125819046D01*
X107678319Y-125886145D01*
X107609943Y-125987441D01*
X107591271Y-126080550D01*
X107573906Y-125991049D01*
X107506807Y-125888903D01*
X107405511Y-125820527D01*
X107285684Y-125796497D01*
X106396684Y-125796497D01*
X106280465Y-125819046D01*
X106178319Y-125886145D01*
X106109943Y-125987441D01*
X106085913Y-126107268D01*
X106085913Y-126742268D01*
X106108462Y-126858487D01*
X106175561Y-126960633D01*
X106276857Y-127029009D01*
X106383984Y-127050492D01*
X106383984Y-127096730D01*
X106217494Y-127027768D01*
X105626934Y-127027768D01*
X105468184Y-127186518D01*
X105468184Y-128535768D01*
X106567434Y-128535768D01*
X106726184Y-128377018D01*
X106726184Y-127694346D01*
X108057895Y-129026057D01*
X108206221Y-129125166D01*
X108381184Y-129159968D01*
X111140639Y-129159968D01*
X111140639Y-129551661D01*
X111163188Y-129667880D01*
X111230287Y-129770026D01*
X111331583Y-129838402D01*
X111451410Y-129862432D01*
X113229410Y-129862432D01*
X113345629Y-129839883D01*
X113355283Y-129833542D01*
X111958378Y-136144400D01*
X111845470Y-136370216D01*
X111780408Y-136412662D01*
X111645507Y-136438726D01*
X106401955Y-136438726D01*
X106401955Y-136119968D01*
X106841184Y-136119968D01*
X107016147Y-136085166D01*
X107164473Y-135986057D01*
X111340063Y-131810467D01*
X111469454Y-131810580D01*
X111707597Y-131712181D01*
X111889957Y-131530140D01*
X111988771Y-131292169D01*
X111988996Y-131034498D01*
X111890597Y-130796355D01*
X111708556Y-130613995D01*
X111470585Y-130515181D01*
X111212914Y-130514956D01*
X110974771Y-130613355D01*
X110792411Y-130795396D01*
X110693597Y-131033367D01*
X110693483Y-131163891D01*
X106651806Y-135205568D01*
X106401955Y-135205568D01*
X106401955Y-134662768D01*
X106379406Y-134546549D01*
X106312307Y-134444403D01*
X106211011Y-134376027D01*
X106091184Y-134351997D01*
X104591184Y-134351997D01*
X104474965Y-134374546D01*
X104372819Y-134441645D01*
X104304443Y-134542941D01*
X104280413Y-134662768D01*
X104280413Y-136438726D01*
X100901955Y-136438726D01*
X100901955Y-135248575D01*
X102030562Y-134119968D01*
X106841184Y-134119968D01*
X107016147Y-134085166D01*
X107164473Y-133986057D01*
X110340064Y-130810467D01*
X110469454Y-130810580D01*
X110707597Y-130712181D01*
X110889957Y-130530140D01*
X110988771Y-130292169D01*
X110988996Y-130034498D01*
X110890597Y-129796355D01*
X110708556Y-129613995D01*
X110470585Y-129515181D01*
X110212914Y-129514956D01*
X109974771Y-129613355D01*
X109792411Y-129795396D01*
X109693597Y-130033367D01*
X109693483Y-130163890D01*
X106651806Y-133205568D01*
X101841184Y-133205568D01*
X101666221Y-133240370D01*
X101517895Y-133339479D01*
X100505377Y-134351997D01*
X99091184Y-134351997D01*
X98974965Y-134374546D01*
X98872819Y-134441645D01*
X98804443Y-134542941D01*
X98780413Y-134662768D01*
X98780413Y-136438726D01*
X95764528Y-136438726D01*
X95625012Y-136410975D01*
X95536366Y-136351743D01*
X95477133Y-136263094D01*
X95468184Y-136218106D01*
X95468184Y-129067155D01*
X95560975Y-129105590D01*
X96651214Y-129105590D01*
X96809964Y-128946840D01*
X96809964Y-127598100D01*
X96789964Y-127598100D01*
X96789964Y-127344100D01*
X96809964Y-127344100D01*
X96809964Y-125995360D01*
X97063964Y-125995360D01*
X97063964Y-127344100D01*
X97083964Y-127344100D01*
X97083964Y-127598100D01*
X97063964Y-127598100D01*
X97063964Y-128946840D01*
X97222714Y-129105590D01*
X98312953Y-129105590D01*
X98456184Y-129046262D01*
X98456184Y-129789077D01*
X98552857Y-130022466D01*
X98731485Y-130201095D01*
X98964874Y-130297768D01*
X99555434Y-130297768D01*
X99714184Y-130139018D01*
X99714184Y-128789768D01*
X99694184Y-128789768D01*
X99694184Y-128535768D01*
X99714184Y-128535768D01*
X99714184Y-127186518D01*
X99968184Y-127186518D01*
X99968184Y-128535768D01*
X99988184Y-128535768D01*
X99988184Y-128789768D01*
X99968184Y-128789768D01*
X99968184Y-130139018D01*
X100126934Y-130297768D01*
X100717494Y-130297768D01*
X100950883Y-130201095D01*
X101129511Y-130022466D01*
X101226184Y-129789077D01*
X101226184Y-129105590D01*
X102150314Y-129105590D01*
X102309064Y-128946840D01*
X102309064Y-127598100D01*
X102289064Y-127598100D01*
X102289064Y-127344100D01*
X102309064Y-127344100D01*
X102309064Y-125995360D01*
X102563064Y-125995360D01*
X102563064Y-127344100D01*
X102583064Y-127344100D01*
X102583064Y-127598100D01*
X102563064Y-127598100D01*
X102563064Y-128946840D01*
X102721814Y-129105590D01*
X103812053Y-129105590D01*
X103956184Y-129045889D01*
X103956184Y-129789077D01*
X104052857Y-130022466D01*
X104231485Y-130201095D01*
X104464874Y-130297768D01*
X105055434Y-130297768D01*
X105214184Y-130139018D01*
X105214184Y-128789768D01*
X105468184Y-128789768D01*
X105468184Y-130139018D01*
X105626934Y-130297768D01*
X106217494Y-130297768D01*
X106450883Y-130201095D01*
X106629511Y-130022466D01*
X106726184Y-129789077D01*
X106726184Y-128948518D01*
X106567434Y-128789768D01*
X105468184Y-128789768D01*
X105214184Y-128789768D01*
X105214184Y-128789768D01*
X105194184Y-128789768D01*
X105194184Y-128535768D01*
X105214184Y-128535768D01*
X105214184Y-127186518D01*
X105055434Y-127027768D01*
X104464874Y-127027768D01*
X104320744Y-127087469D01*
X104320744Y-126345300D01*
X104224071Y-126111911D01*
X104045442Y-125933283D01*
X103812053Y-125836610D01*
X102721814Y-125836610D01*
X102563064Y-125995360D01*
X102309064Y-125995360D01*
X102309064Y-125995360D01*
X102150314Y-125836610D01*
X101060075Y-125836610D01*
X100826686Y-125933283D01*
X100648057Y-126111911D01*
X100551384Y-126345300D01*
X100551384Y-127027768D01*
X100126934Y-127027768D01*
X99968184Y-127186518D01*
X99714184Y-127186518D01*
X99714184Y-127186518D01*
X99555434Y-127027768D01*
X98964874Y-127027768D01*
X98821644Y-127087096D01*
X98821644Y-126345300D01*
X98724971Y-126111911D01*
X98546342Y-125933283D01*
X98312953Y-125836610D01*
X97222714Y-125836610D01*
X97063964Y-125995360D01*
X96809964Y-125995360D01*
X96809964Y-125995360D01*
X96651214Y-125836610D01*
X95560975Y-125836610D01*
X95468184Y-125875045D01*
X95468184Y-125370057D01*
X99182194Y-125370057D01*
X99296799Y-125647424D01*
X99508824Y-125859819D01*
X99785990Y-125974909D01*
X100086101Y-125975170D01*
X100363468Y-125860565D01*
X100575863Y-125648540D01*
X100690953Y-125371374D01*
X100691214Y-125071263D01*
X100622543Y-124905065D01*
X100749504Y-124905065D01*
X100749504Y-124997720D01*
X100846177Y-125231109D01*
X101024806Y-125409737D01*
X101258195Y-125506410D01*
X102249374Y-125506410D01*
X102408124Y-125347660D01*
X102408124Y-124746315D01*
X102662124Y-124746315D01*
X102662124Y-125347660D01*
X102820874Y-125506410D01*
X103812053Y-125506410D01*
X104045442Y-125409737D01*
X104224071Y-125231109D01*
X104320744Y-124997720D01*
X104320744Y-124905065D01*
X104161994Y-124746315D01*
X102662124Y-124746315D01*
X102408124Y-124746315D01*
X102408124Y-124746315D01*
X100908254Y-124746315D01*
X100749504Y-124905065D01*
X100622543Y-124905065D01*
X100576609Y-124793896D01*
X100364584Y-124581501D01*
X100087418Y-124466411D01*
X99787307Y-124466150D01*
X99509940Y-124580755D01*
X99297545Y-124792780D01*
X99182455Y-125069946D01*
X99182194Y-125370057D01*
X95468184Y-125370057D01*
X95468184Y-120970777D01*
X99182194Y-120970777D01*
X99296799Y-121248144D01*
X99508824Y-121460539D01*
X99785990Y-121575629D01*
X100086101Y-121575890D01*
X100363468Y-121461285D01*
X100575863Y-121249260D01*
X100690953Y-120972094D01*
X100691214Y-120671983D01*
X100576609Y-120394616D01*
X100364584Y-120182221D01*
X100087418Y-120067131D01*
X99787307Y-120066870D01*
X99509940Y-120181475D01*
X99297545Y-120393500D01*
X99182455Y-120670666D01*
X99182194Y-120970777D01*
X95468184Y-120970777D01*
X95468184Y-120166995D01*
X95560975Y-120205430D01*
X96651214Y-120205430D01*
X96809964Y-120046680D01*
X96809964Y-118697940D01*
X97063964Y-118697940D01*
X97063964Y-120046680D01*
X97222714Y-120205430D01*
X98312953Y-120205430D01*
X98546342Y-120108757D01*
X98724971Y-119930129D01*
X98821644Y-119696740D01*
X98821644Y-118856690D01*
X100551384Y-118856690D01*
X100551384Y-119696740D01*
X100648057Y-119930129D01*
X100826686Y-120108757D01*
X101060075Y-120205430D01*
X102150314Y-120205430D01*
X102309064Y-120046680D01*
X102309064Y-118697940D01*
X102563064Y-118697940D01*
X102563064Y-120046680D01*
X102721814Y-120205430D01*
X103812053Y-120205430D01*
X104045442Y-120108757D01*
X104224071Y-119930129D01*
X104320744Y-119696740D01*
X104320744Y-118856690D01*
X104161994Y-118697940D01*
X102563064Y-118697940D01*
X102309064Y-118697940D01*
X102309064Y-118697940D01*
X100710134Y-118697940D01*
X100551384Y-118856690D01*
X98821644Y-118856690D01*
X98821644Y-118856690D01*
X98662894Y-118697940D01*
X97063964Y-118697940D01*
X96809964Y-118697940D01*
X96809964Y-118697940D01*
X96789964Y-118697940D01*
X96789964Y-118443940D01*
X96809964Y-118443940D01*
X96809964Y-118423940D01*
X97063964Y-118423940D01*
X97063964Y-118443940D01*
X98662894Y-118443940D01*
X98821644Y-118285190D01*
X98821644Y-118148326D01*
X100551384Y-118148326D01*
X100551384Y-118285190D01*
X100551384Y-118285190D01*
G37*
X100551384Y-118285190D02*
X100710134Y-118443940D01*
X102309064Y-118443940D01*
X102309064Y-118423940D01*
X102563064Y-118423940D01*
X102563064Y-118443940D01*
X104161994Y-118443940D01*
X104320744Y-118285190D01*
X104320744Y-118148326D01*
X111644524Y-118148326D01*
X111784037Y-118176077D01*
X111873527Y-118235872D01*
X111931628Y-118321801D01*
X112732947Y-121941958D01*
X112664473Y-121839479D01*
X111922525Y-121097531D01*
X111774199Y-120998422D01*
X111599236Y-120963620D01*
X103914326Y-120963620D01*
X103906867Y-120952265D01*
X103805571Y-120883889D01*
X103685744Y-120859859D01*
X101384504Y-120859859D01*
X101268285Y-120882408D01*
X101166139Y-120949507D01*
X101097763Y-121050803D01*
X101073733Y-121170630D01*
X101073733Y-121671010D01*
X101096282Y-121787229D01*
X101118210Y-121820611D01*
X101097763Y-121850903D01*
X101073733Y-121970730D01*
X101073733Y-122471110D01*
X101096282Y-122587329D01*
X101118210Y-122620711D01*
X101097763Y-122651003D01*
X101073733Y-122770830D01*
X101073733Y-123271210D01*
X101096282Y-123387429D01*
X101118210Y-123420811D01*
X101097763Y-123451103D01*
X101073733Y-123570930D01*
X101073733Y-123812437D01*
X101024806Y-123832703D01*
X100846177Y-124011331D01*
X100749504Y-124244720D01*
X100749504Y-124337375D01*
X100908254Y-124496125D01*
X102408124Y-124496125D01*
X102408124Y-124474220D01*
X102662124Y-124474220D01*
X102662124Y-124496125D01*
X104161994Y-124496125D01*
X104320744Y-124337375D01*
X104320744Y-124244720D01*
X104224071Y-124011331D01*
X104045442Y-123832703D01*
X103996515Y-123812437D01*
X103996515Y-123570930D01*
X103978527Y-123478220D01*
X105010058Y-123478220D01*
X106090789Y-124558951D01*
X106085913Y-124583268D01*
X106085913Y-125218268D01*
X106108462Y-125334487D01*
X106175561Y-125436633D01*
X106276857Y-125505009D01*
X106396684Y-125529039D01*
X107285684Y-125529039D01*
X107401903Y-125506490D01*
X107504049Y-125439391D01*
X107572425Y-125338095D01*
X107591097Y-125244986D01*
X107608462Y-125334487D01*
X107675561Y-125436633D01*
X107776857Y-125505009D01*
X107896684Y-125529039D01*
X108785684Y-125529039D01*
X108901903Y-125506490D01*
X109004049Y-125439391D01*
X109072425Y-125338095D01*
X109096455Y-125218268D01*
X109096455Y-124583268D01*
X109073906Y-124467049D01*
X109006807Y-124364903D01*
X108905511Y-124296527D01*
X108798384Y-124275044D01*
X108798384Y-123662768D01*
X108763582Y-123487805D01*
X108664473Y-123339479D01*
X107222625Y-121897631D01*
X107193275Y-121878020D01*
X111409858Y-121878020D01*
X111883984Y-122352146D01*
X111883984Y-122382890D01*
X111451410Y-122382890D01*
X111335191Y-122405439D01*
X111233045Y-122472538D01*
X111164669Y-122573834D01*
X111140639Y-122693661D01*
X111140639Y-124471661D01*
X111163188Y-124587880D01*
X111230287Y-124690026D01*
X111331583Y-124758402D01*
X111451410Y-124782432D01*
X113229410Y-124782432D01*
X113345629Y-124759883D01*
X113355289Y-124753538D01*
X113406676Y-124985692D01*
X113349237Y-124946920D01*
X113229410Y-124922890D01*
X111451410Y-124922890D01*
X111335191Y-124945439D01*
X111233045Y-125012538D01*
X111164669Y-125113834D01*
X111140639Y-125233661D01*
X111140639Y-125967568D01*
X109058481Y-125967568D01*
X109006807Y-125888903D01*
X108905511Y-125820527D01*
X108785684Y-125796497D01*
X107896684Y-125796497D01*
X107780465Y-125819046D01*
X107678319Y-125886145D01*
X107609943Y-125987441D01*
X107591271Y-126080550D01*
X107573906Y-125991049D01*
X107506807Y-125888903D01*
X107405511Y-125820527D01*
X107285684Y-125796497D01*
X106396684Y-125796497D01*
X106280465Y-125819046D01*
X106178319Y-125886145D01*
X106109943Y-125987441D01*
X106085913Y-126107268D01*
X106085913Y-126742268D01*
X106108462Y-126858487D01*
X106175561Y-126960633D01*
X106276857Y-127029009D01*
X106383984Y-127050492D01*
X106383984Y-127096730D01*
X106217494Y-127027768D01*
X105626934Y-127027768D01*
X105468184Y-127186518D01*
X105468184Y-128535768D01*
X106567434Y-128535768D01*
X106726184Y-128377018D01*
X106726184Y-127694346D01*
X108057895Y-129026057D01*
X108206221Y-129125166D01*
X108381184Y-129159968D01*
X111140639Y-129159968D01*
X111140639Y-129551661D01*
X111163188Y-129667880D01*
X111230287Y-129770026D01*
X111331583Y-129838402D01*
X111451410Y-129862432D01*
X113229410Y-129862432D01*
X113345629Y-129839883D01*
X113355283Y-129833542D01*
X111958378Y-136144400D01*
X111845470Y-136370216D01*
X111780408Y-136412662D01*
X111645507Y-136438726D01*
X106401955Y-136438726D01*
X106401955Y-136119968D01*
X106841184Y-136119968D01*
X107016147Y-136085166D01*
X107164473Y-135986057D01*
X111340063Y-131810467D01*
X111469454Y-131810580D01*
X111707597Y-131712181D01*
X111889957Y-131530140D01*
X111988771Y-131292169D01*
X111988996Y-131034498D01*
X111890597Y-130796355D01*
X111708556Y-130613995D01*
X111470585Y-130515181D01*
X111212914Y-130514956D01*
X110974771Y-130613355D01*
X110792411Y-130795396D01*
X110693597Y-131033367D01*
X110693483Y-131163891D01*
X106651806Y-135205568D01*
X106401955Y-135205568D01*
X106401955Y-134662768D01*
X106379406Y-134546549D01*
X106312307Y-134444403D01*
X106211011Y-134376027D01*
X106091184Y-134351997D01*
X104591184Y-134351997D01*
X104474965Y-134374546D01*
X104372819Y-134441645D01*
X104304443Y-134542941D01*
X104280413Y-134662768D01*
X104280413Y-136438726D01*
X100901955Y-136438726D01*
X100901955Y-135248575D01*
X102030562Y-134119968D01*
X106841184Y-134119968D01*
X107016147Y-134085166D01*
X107164473Y-133986057D01*
X110340064Y-130810467D01*
X110469454Y-130810580D01*
X110707597Y-130712181D01*
X110889957Y-130530140D01*
X110988771Y-130292169D01*
X110988996Y-130034498D01*
X110890597Y-129796355D01*
X110708556Y-129613995D01*
X110470585Y-129515181D01*
X110212914Y-129514956D01*
X109974771Y-129613355D01*
X109792411Y-129795396D01*
X109693597Y-130033367D01*
X109693483Y-130163890D01*
X106651806Y-133205568D01*
X101841184Y-133205568D01*
X101666221Y-133240370D01*
X101517895Y-133339479D01*
X100505377Y-134351997D01*
X99091184Y-134351997D01*
X98974965Y-134374546D01*
X98872819Y-134441645D01*
X98804443Y-134542941D01*
X98780413Y-134662768D01*
X98780413Y-136438726D01*
X95764528Y-136438726D01*
X95625012Y-136410975D01*
X95536366Y-136351743D01*
X95477133Y-136263094D01*
X95468184Y-136218106D01*
X95468184Y-129067155D01*
X95560975Y-129105590D01*
X96651214Y-129105590D01*
X96809964Y-128946840D01*
X96809964Y-127598100D01*
X96789964Y-127598100D01*
X96789964Y-127344100D01*
X96809964Y-127344100D01*
X96809964Y-125995360D01*
X97063964Y-125995360D01*
X97063964Y-127344100D01*
X97083964Y-127344100D01*
X97083964Y-127598100D01*
X97063964Y-127598100D01*
X97063964Y-128946840D01*
X97222714Y-129105590D01*
X98312953Y-129105590D01*
X98456184Y-129046262D01*
X98456184Y-129789077D01*
X98552857Y-130022466D01*
X98731485Y-130201095D01*
X98964874Y-130297768D01*
X99555434Y-130297768D01*
X99714184Y-130139018D01*
X99714184Y-128789768D01*
X99694184Y-128789768D01*
X99694184Y-128535768D01*
X99714184Y-128535768D01*
X99714184Y-127186518D01*
X99968184Y-127186518D01*
X99968184Y-128535768D01*
X99988184Y-128535768D01*
X99988184Y-128789768D01*
X99968184Y-128789768D01*
X99968184Y-130139018D01*
X100126934Y-130297768D01*
X100717494Y-130297768D01*
X100950883Y-130201095D01*
X101129511Y-130022466D01*
X101226184Y-129789077D01*
X101226184Y-129105590D01*
X102150314Y-129105590D01*
X102309064Y-128946840D01*
X102309064Y-127598100D01*
X102289064Y-127598100D01*
X102289064Y-127344100D01*
X102309064Y-127344100D01*
X102309064Y-125995360D01*
X102563064Y-125995360D01*
X102563064Y-127344100D01*
X102583064Y-127344100D01*
X102583064Y-127598100D01*
X102563064Y-127598100D01*
X102563064Y-128946840D01*
X102721814Y-129105590D01*
X103812053Y-129105590D01*
X103956184Y-129045889D01*
X103956184Y-129789077D01*
X104052857Y-130022466D01*
X104231485Y-130201095D01*
X104464874Y-130297768D01*
X105055434Y-130297768D01*
X105214184Y-130139018D01*
X105214184Y-128789768D01*
X105468184Y-128789768D01*
X105468184Y-130139018D01*
X105626934Y-130297768D01*
X106217494Y-130297768D01*
X106450883Y-130201095D01*
X106629511Y-130022466D01*
X106726184Y-129789077D01*
X106726184Y-128948518D01*
X106567434Y-128789768D01*
X105468184Y-128789768D01*
X105214184Y-128789768D01*
X105214184Y-128789768D01*
X105194184Y-128789768D01*
X105194184Y-128535768D01*
X105214184Y-128535768D01*
X105214184Y-127186518D01*
X105055434Y-127027768D01*
X104464874Y-127027768D01*
X104320744Y-127087469D01*
X104320744Y-126345300D01*
X104224071Y-126111911D01*
X104045442Y-125933283D01*
X103812053Y-125836610D01*
X102721814Y-125836610D01*
X102563064Y-125995360D01*
X102309064Y-125995360D01*
X102309064Y-125995360D01*
X102150314Y-125836610D01*
X101060075Y-125836610D01*
X100826686Y-125933283D01*
X100648057Y-126111911D01*
X100551384Y-126345300D01*
X100551384Y-127027768D01*
X100126934Y-127027768D01*
X99968184Y-127186518D01*
X99714184Y-127186518D01*
X99714184Y-127186518D01*
X99555434Y-127027768D01*
X98964874Y-127027768D01*
X98821644Y-127087096D01*
X98821644Y-126345300D01*
X98724971Y-126111911D01*
X98546342Y-125933283D01*
X98312953Y-125836610D01*
X97222714Y-125836610D01*
X97063964Y-125995360D01*
X96809964Y-125995360D01*
X96809964Y-125995360D01*
X96651214Y-125836610D01*
X95560975Y-125836610D01*
X95468184Y-125875045D01*
X95468184Y-125370057D01*
X99182194Y-125370057D01*
X99296799Y-125647424D01*
X99508824Y-125859819D01*
X99785990Y-125974909D01*
X100086101Y-125975170D01*
X100363468Y-125860565D01*
X100575863Y-125648540D01*
X100690953Y-125371374D01*
X100691214Y-125071263D01*
X100622543Y-124905065D01*
X100749504Y-124905065D01*
X100749504Y-124997720D01*
X100846177Y-125231109D01*
X101024806Y-125409737D01*
X101258195Y-125506410D01*
X102249374Y-125506410D01*
X102408124Y-125347660D01*
X102408124Y-124746315D01*
X102662124Y-124746315D01*
X102662124Y-125347660D01*
X102820874Y-125506410D01*
X103812053Y-125506410D01*
X104045442Y-125409737D01*
X104224071Y-125231109D01*
X104320744Y-124997720D01*
X104320744Y-124905065D01*
X104161994Y-124746315D01*
X102662124Y-124746315D01*
X102408124Y-124746315D01*
X102408124Y-124746315D01*
X100908254Y-124746315D01*
X100749504Y-124905065D01*
X100622543Y-124905065D01*
X100576609Y-124793896D01*
X100364584Y-124581501D01*
X100087418Y-124466411D01*
X99787307Y-124466150D01*
X99509940Y-124580755D01*
X99297545Y-124792780D01*
X99182455Y-125069946D01*
X99182194Y-125370057D01*
X95468184Y-125370057D01*
X95468184Y-120970777D01*
X99182194Y-120970777D01*
X99296799Y-121248144D01*
X99508824Y-121460539D01*
X99785990Y-121575629D01*
X100086101Y-121575890D01*
X100363468Y-121461285D01*
X100575863Y-121249260D01*
X100690953Y-120972094D01*
X100691214Y-120671983D01*
X100576609Y-120394616D01*
X100364584Y-120182221D01*
X100087418Y-120067131D01*
X99787307Y-120066870D01*
X99509940Y-120181475D01*
X99297545Y-120393500D01*
X99182455Y-120670666D01*
X99182194Y-120970777D01*
X95468184Y-120970777D01*
X95468184Y-120166995D01*
X95560975Y-120205430D01*
X96651214Y-120205430D01*
X96809964Y-120046680D01*
X96809964Y-118697940D01*
X97063964Y-118697940D01*
X97063964Y-120046680D01*
X97222714Y-120205430D01*
X98312953Y-120205430D01*
X98546342Y-120108757D01*
X98724971Y-119930129D01*
X98821644Y-119696740D01*
X98821644Y-118856690D01*
X100551384Y-118856690D01*
X100551384Y-119696740D01*
X100648057Y-119930129D01*
X100826686Y-120108757D01*
X101060075Y-120205430D01*
X102150314Y-120205430D01*
X102309064Y-120046680D01*
X102309064Y-118697940D01*
X102563064Y-118697940D01*
X102563064Y-120046680D01*
X102721814Y-120205430D01*
X103812053Y-120205430D01*
X104045442Y-120108757D01*
X104224071Y-119930129D01*
X104320744Y-119696740D01*
X104320744Y-118856690D01*
X104161994Y-118697940D01*
X102563064Y-118697940D01*
X102309064Y-118697940D01*
X102309064Y-118697940D01*
X100710134Y-118697940D01*
X100551384Y-118856690D01*
X98821644Y-118856690D01*
X98821644Y-118856690D01*
X98662894Y-118697940D01*
X97063964Y-118697940D01*
X96809964Y-118697940D01*
X96809964Y-118697940D01*
X96789964Y-118697940D01*
X96789964Y-118443940D01*
X96809964Y-118443940D01*
X96809964Y-118423940D01*
X97063964Y-118423940D01*
X97063964Y-118443940D01*
X98662894Y-118443940D01*
X98821644Y-118285190D01*
X98821644Y-118148326D01*
X100551384Y-118148326D01*
X100551384Y-118285190D01*
M02*
