G04 #@! TF.FileFunction,Soldermask,Bot*
%FSLAX46Y46*%
G04 Gerber Fmt 4.6, Leading zero omitted, Abs format (unit mm)*
G04 Created by KiCad (PCBNEW (2015-07-22 BZR 5980)-product) date Tuesday, September 08, 2015 'amt' 09:17:54 am*
%MOMM*%
G01*
G04 APERTURE LIST*
%ADD10C,0.100000*%
%ADD11C,1.500000*%
%ADD12R,3.000000X3.000000*%
%ADD13R,1.727200X2.032000*%
%ADD14O,1.524000X1.778000*%
%ADD15R,1.600200X3.599180*%
%ADD16R,2.032000X2.032000*%
%ADD17O,2.032000X2.032000*%
%ADD18R,1.778000X1.778000*%
%ADD19O,1.727200X2.032000*%
%ADD20C,0.899160*%
%ADD21R,2.000000X8.000000*%
%ADD22R,2.000000X5.000000*%
%ADD23C,12.500000*%
G04 APERTURE END LIST*
D10*
D11*
X123731448Y-150146544D03*
X123731448Y-151896544D03*
D12*
X138731448Y-147896544D03*
D13*
X67533500Y-149062500D03*
D14*
X69533500Y-149062500D03*
X71533500Y-149062500D03*
X73533500Y-149062500D03*
X75533500Y-149062500D03*
X77533500Y-149062500D03*
X79533500Y-149062500D03*
X81533500Y-149062500D03*
X83533500Y-149062500D03*
X85533500Y-149062500D03*
D15*
X81000000Y-113730000D03*
D16*
X73498559Y-114561294D03*
D17*
X76038559Y-114561294D03*
D15*
X77250000Y-140230000D03*
D18*
X63338559Y-129293294D03*
X63338559Y-126753294D03*
X63338559Y-124213294D03*
D13*
X70958559Y-136278294D03*
D19*
X73498559Y-136278294D03*
X76038559Y-136278294D03*
X78578559Y-136278294D03*
X81118559Y-136278294D03*
X83658559Y-136278294D03*
D13*
X68418559Y-132468294D03*
D19*
X70958559Y-132468294D03*
X73498559Y-132468294D03*
X76038559Y-132468294D03*
D18*
X112340410Y-128662661D03*
X112340410Y-126122661D03*
X112340410Y-123582661D03*
D20*
X99936704Y-120821380D03*
X99936704Y-125220660D03*
D21*
X70750000Y-61480000D03*
X90400000Y-61430000D03*
X110000000Y-61530000D03*
X129600000Y-61430000D03*
X70750000Y-78730000D03*
X90400000Y-78630000D03*
X109900000Y-78630000D03*
X129500000Y-78630000D03*
X149200000Y-61630000D03*
X149100000Y-78530000D03*
D22*
X143050000Y-88230000D03*
X140050000Y-88230000D03*
X123450000Y-88280000D03*
X120450000Y-88280000D03*
X103850000Y-88305000D03*
X100850000Y-88305000D03*
X84250000Y-88280000D03*
X81250000Y-88280000D03*
X64675000Y-88305000D03*
X61675000Y-88305000D03*
D21*
X56700000Y-61430000D03*
X76400000Y-61530000D03*
X95900000Y-61430000D03*
X115500000Y-61530000D03*
D10*
G36*
X110103806Y-109669340D02*
X111518020Y-108255126D01*
X117174874Y-113911980D01*
X115760660Y-115326194D01*
X110103806Y-109669340D01*
X110103806Y-109669340D01*
G37*
G36*
X112225126Y-107548020D02*
X113639340Y-106133806D01*
X119296194Y-111790660D01*
X117881980Y-113204874D01*
X112225126Y-107548020D01*
X112225126Y-107548020D01*
G37*
G36*
X148660660Y-106133806D02*
X150074874Y-107548020D01*
X144418020Y-113204874D01*
X143003806Y-111790660D01*
X148660660Y-106133806D01*
X148660660Y-106133806D01*
G37*
G36*
X150781980Y-108255126D02*
X152196194Y-109669340D01*
X146539340Y-115326194D01*
X145125126Y-113911980D01*
X150781980Y-108255126D01*
X150781980Y-108255126D01*
G37*
G36*
X152196194Y-144690660D02*
X150781980Y-146104874D01*
X145125126Y-140448020D01*
X146539340Y-139033806D01*
X152196194Y-144690660D01*
X152196194Y-144690660D01*
G37*
G36*
X150074874Y-146811980D02*
X148660660Y-148226194D01*
X143003806Y-142569340D01*
X144418020Y-141155126D01*
X150074874Y-146811980D01*
X150074874Y-146811980D01*
G37*
G36*
X113639340Y-148226194D02*
X112225126Y-146811980D01*
X117881980Y-141155126D01*
X119296194Y-142569340D01*
X113639340Y-148226194D01*
X113639340Y-148226194D01*
G37*
G36*
X111518020Y-146104874D02*
X110103806Y-144690660D01*
X115760660Y-139033806D01*
X117174874Y-140448020D01*
X111518020Y-146104874D01*
X111518020Y-146104874D01*
G37*
D21*
X135100000Y-61430000D03*
D23*
X122000000Y-97830000D03*
X102300000Y-97830000D03*
X82775000Y-97805000D03*
X63175000Y-97805000D03*
X141600000Y-97830000D03*
D21*
X56000000Y-82230000D03*
X75750000Y-82230000D03*
X95250000Y-82230000D03*
X114750000Y-82230000D03*
X134500000Y-82230000D03*
D13*
X73883500Y-153507500D03*
D19*
X76423500Y-153507500D03*
X78963500Y-153507500D03*
X81503500Y-153507500D03*
X84043500Y-153507500D03*
X86583500Y-153507500D03*
D13*
X126481448Y-150896544D03*
D19*
X129021448Y-150896544D03*
X131561448Y-150896544D03*
X134101448Y-150896544D03*
X136641448Y-150896544D03*
X139181448Y-150896544D03*
M02*
