G04 #@! TF.FileFunction,Profile,NP*
%FSLAX46Y46*%
G04 Gerber Fmt 4.6, Leading zero omitted, Abs format (unit mm)*
G04 Created by KiCad (PCBNEW (2015-07-22 BZR 5980)-product) date Tuesday, September 08, 2015 'amt' 09:17:54 am*
%MOMM*%
G01*
G04 APERTURE LIST*
%ADD10C,0.100000*%
G04 APERTURE END LIST*
D10*
X124848026Y-83593026D02*
X126998026Y-83593026D01*
X124598026Y-84343026D02*
X124598026Y-83843026D01*
X123598026Y-84343026D02*
X123598026Y-83843026D01*
X131268026Y-56593026D02*
G75*
G02X131903026Y-57228026I0J-635000D01*
G01*
X128903026Y-57228026D02*
G75*
G02X129538026Y-56593026I635000J0D01*
G01*
X126998026Y-56593026D02*
G75*
G02X127633026Y-57228026I0J-635000D01*
G01*
X128903026Y-60958026D02*
G75*
G02X128268026Y-61593026I-635000J0D01*
G01*
X128268026Y-61593026D02*
G75*
G02X127633026Y-60958026I0J635000D01*
G01*
X116363026Y-84228026D02*
X116363026Y-85958026D01*
X113998026Y-86593026D02*
X115728026Y-86593026D01*
X113363026Y-57228026D02*
X113363026Y-57728026D01*
X113998026Y-56593026D02*
X115728026Y-56593026D01*
X117633026Y-60958026D02*
X117633026Y-57228026D01*
X116998026Y-61593026D02*
X116998026Y-61593026D01*
X116363026Y-57228026D02*
X116363026Y-60958026D01*
X118268026Y-56593026D02*
X126998026Y-56593026D01*
X129538026Y-83593026D02*
X131268026Y-83593026D01*
X128903026Y-82958026D02*
X128903026Y-79228026D01*
X108033026Y-79228026D02*
X108033026Y-82958026D01*
X109938026Y-56593026D02*
X111668026Y-56593026D01*
X98033026Y-57228026D02*
G75*
G02X98668026Y-56593026I635000J0D01*
G01*
X109303026Y-60958026D02*
X109303026Y-57228026D01*
X98033026Y-60958026D02*
G75*
G02X97398026Y-61593026I-635000J0D01*
G01*
X108668026Y-61593026D02*
X108668026Y-61593026D01*
X97398026Y-61593026D02*
G75*
G02X96763026Y-60958026I0J635000D01*
G01*
X108033026Y-57228026D02*
X108033026Y-60958026D01*
X96128026Y-56593026D02*
G75*
G02X96763026Y-57228026I0J-635000D01*
G01*
X93763026Y-57228026D02*
G75*
G02X94398026Y-56593026I635000J0D01*
G01*
X93263026Y-77228026D02*
G75*
G02X93763026Y-77728026I0J-500000D01*
G01*
X94398026Y-86593026D02*
G75*
G02X93763026Y-85958026I0J635000D01*
G01*
X92703026Y-77728026D02*
G75*
G02X93203026Y-77228026I500000J0D01*
G01*
X96763026Y-85958026D02*
G75*
G02X96128026Y-86593026I-635000J0D01*
G01*
X93203026Y-76228026D02*
G75*
G02X92703026Y-75728026I0J500000D01*
G01*
X96763026Y-84228026D02*
G75*
G02X97398026Y-83593026I635000J0D01*
G01*
X93763026Y-75728026D02*
G75*
G02X93263026Y-76228026I-500000J0D01*
G01*
X108033026Y-82958026D02*
G75*
G02X107398026Y-83593026I-635000J0D01*
G01*
X93763026Y-77728026D02*
X93763026Y-85958026D01*
X108033026Y-79228026D02*
G75*
G02X108668026Y-78593026I635000J0D01*
G01*
X92703026Y-77728026D02*
X92703026Y-82958026D01*
X108668026Y-78593026D02*
G75*
G02X109303026Y-79228026I0J-635000D01*
G01*
X93263026Y-59228026D02*
G75*
G02X93763026Y-59728026I0J-500000D01*
G01*
X109938026Y-83593026D02*
G75*
G02X109303026Y-82958026I0J635000D01*
G01*
X92703026Y-59728026D02*
G75*
G02X93203026Y-59228026I500000J0D01*
G01*
X93763026Y-57728026D02*
G75*
G02X93263026Y-58228026I-500000J0D01*
G01*
X112303026Y-82958026D02*
G75*
G02X111668026Y-83593026I-635000J0D01*
G01*
X93203026Y-58228026D02*
G75*
G02X92703026Y-57728026I0J500000D01*
G01*
X93763026Y-59728026D02*
X93763026Y-75728026D01*
X92703026Y-59728026D02*
X92703026Y-75728026D01*
X93203026Y-77228026D02*
X93263026Y-77228026D01*
X93203026Y-76228026D02*
X93263026Y-76228026D01*
X93203026Y-59228026D02*
X93263026Y-59228026D01*
X93203026Y-58228026D02*
X93263026Y-58228026D01*
X105248026Y-84593026D02*
G75*
G02X104998026Y-84343026I0J250000D01*
G01*
X104998026Y-83843026D02*
G75*
G02X105248026Y-83593026I250000J0D01*
G01*
X103748026Y-83593026D02*
G75*
G02X103998026Y-83843026I0J-250000D01*
G01*
X103998026Y-84343026D02*
G75*
G02X103748026Y-84593026I-250000J0D01*
G01*
X101048026Y-84593026D02*
G75*
G02X100798026Y-84343026I0J250000D01*
G01*
X100798026Y-83843026D02*
G75*
G02X101048026Y-83593026I250000J0D01*
G01*
X99548026Y-83593026D02*
G75*
G02X99798026Y-83843026I0J-250000D01*
G01*
X101128026Y-84593026D02*
G75*
G02X101763026Y-85228026I0J-635000D01*
G01*
X99798026Y-84343026D02*
G75*
G02X99548026Y-84593026I-250000J0D01*
G01*
X103033026Y-85228026D02*
G75*
G02X103668026Y-84593026I635000J0D01*
G01*
X99548026Y-84593026D02*
X99398026Y-84593026D01*
X105398026Y-84593026D02*
G75*
G02X106033026Y-85228026I0J-635000D01*
G01*
X101048026Y-83593026D02*
X103748026Y-83593026D01*
X102398026Y-89593026D02*
G75*
G02X101763026Y-88958026I0J635000D01*
G01*
X100798026Y-84343026D02*
X100798026Y-83843026D01*
X103033026Y-88958026D02*
G75*
G02X102398026Y-89593026I-635000J0D01*
G01*
X99798026Y-84343026D02*
X99798026Y-83843026D01*
X98763026Y-89924264D02*
G75*
G02X97539390Y-92803814I-4000000J-1D01*
G01*
X107256662Y-92803814D02*
G75*
G02X106033026Y-89924265I2776364J2879549D01*
G01*
X98763026Y-85228026D02*
X98763026Y-89924265D01*
X106033026Y-85228026D02*
X106033026Y-89924265D01*
X92703026Y-57228026D02*
X92703026Y-57728026D01*
X101128026Y-84593026D02*
X101048026Y-84593026D01*
X105398026Y-84593026D02*
X105248026Y-84593026D01*
X103033026Y-88958026D02*
X103033026Y-85228026D01*
X103748026Y-84593026D02*
X103668026Y-84593026D01*
X102398026Y-89593026D02*
X102398026Y-89593026D01*
X101763026Y-85228026D02*
X101763026Y-88958026D01*
X98763026Y-85228026D02*
G75*
G02X99398026Y-84593026I635000J0D01*
G01*
X97398026Y-83593026D02*
X99548026Y-83593026D01*
X105248026Y-83593026D02*
X107398026Y-83593026D01*
X104998026Y-84343026D02*
X104998026Y-83843026D01*
X103998026Y-84343026D02*
X103998026Y-83843026D01*
X111668026Y-56593026D02*
G75*
G02X112303026Y-57228026I0J-635000D01*
G01*
X109303026Y-57228026D02*
G75*
G02X109938026Y-56593026I635000J0D01*
G01*
X107398026Y-56593026D02*
G75*
G02X108033026Y-57228026I0J-635000D01*
G01*
X109303026Y-60958026D02*
G75*
G02X108668026Y-61593026I-635000J0D01*
G01*
X108668026Y-61593026D02*
G75*
G02X108033026Y-60958026I0J635000D01*
G01*
X96763026Y-84228026D02*
X96763026Y-85958026D01*
X94398026Y-86593026D02*
X96128026Y-86593026D01*
X93763026Y-57228026D02*
X93763026Y-57728026D01*
X94398026Y-56593026D02*
X96128026Y-56593026D01*
X98033026Y-60958026D02*
X98033026Y-57228026D01*
X97398026Y-61593026D02*
X97398026Y-61593026D01*
X96763026Y-57228026D02*
X96763026Y-60958026D01*
X98668026Y-56593026D02*
X107398026Y-56593026D01*
X109938026Y-83593026D02*
X111668026Y-83593026D01*
X109303026Y-82958026D02*
X109303026Y-79228026D01*
X85648026Y-84593026D02*
G75*
G02X85398026Y-84343026I0J250000D01*
G01*
X94560518Y-110763560D02*
G75*
G02X93662492Y-110763560I-449013J449013D01*
G01*
X93662492Y-110763560D02*
G75*
G02X93662492Y-109865534I449013J449013D01*
G01*
X96300001Y-106330001D02*
G75*
G02X96300000Y-107228026I-449013J-449012D01*
G01*
X94184771Y-105119335D02*
G75*
G02X95086054Y-105116054I452270J-445732D01*
G01*
X59309998Y-105116054D02*
G75*
G02X60211281Y-105119335I449013J-449013D01*
G01*
X58096051Y-107228025D02*
G75*
G02X58096052Y-106330000I449013J449012D01*
G01*
X60733560Y-109865534D02*
G75*
G02X60733560Y-110763560I-449013J-449013D01*
G01*
X60733560Y-110763560D02*
G75*
G02X59835534Y-110763560I-449013J449013D01*
G01*
X56300001Y-108126051D02*
G75*
G02X57198026Y-108126052I449012J-449013D01*
G01*
X55089335Y-110241281D02*
G75*
G02X55086054Y-109339998I445732J452270D01*
G01*
X99306717Y-144214771D02*
G75*
G02X97846227Y-142639573I16741199J16986745D01*
G01*
X87922866Y-144775450D02*
G75*
G02X94184771Y-149336717I-10724840J-21302466D01*
G01*
X55089335Y-110241281D02*
G75*
G02X55089335Y-144214771I-16741199J-16986745D01*
G01*
X94184771Y-105119335D02*
G75*
G02X77955971Y-112215979I-16986745J16741199D01*
G01*
X98096052Y-108126052D02*
X99309998Y-109339998D01*
X95086054Y-105116054D02*
X96300000Y-106330000D01*
X146456662Y-92803814D02*
G75*
G02X145233026Y-89924265I2776364J2879549D01*
G01*
X137963026Y-85228026D02*
X137963026Y-89924265D01*
X145233026Y-85228026D02*
X145233026Y-89924265D01*
X131903026Y-57228026D02*
X131903026Y-57728026D01*
X140328026Y-84593026D02*
X140248026Y-84593026D01*
X144598026Y-84593026D02*
X144448026Y-84593026D01*
X142233026Y-88958026D02*
X142233026Y-85228026D01*
X142948026Y-84593026D02*
X142868026Y-84593026D01*
X141598026Y-89593026D02*
X141598026Y-89593026D01*
X140963026Y-85228026D02*
X140963026Y-88958026D01*
X137963026Y-85228026D02*
G75*
G02X138598026Y-84593026I635000J0D01*
G01*
X136598026Y-83593026D02*
X138748026Y-83593026D01*
X144448026Y-83593026D02*
X146598026Y-83593026D01*
X144198026Y-84343026D02*
X144198026Y-83843026D01*
X143198026Y-84343026D02*
X143198026Y-83843026D01*
X150868026Y-56593026D02*
G75*
G02X151503026Y-57228026I0J-635000D01*
G01*
X148503026Y-57228026D02*
G75*
G02X149138026Y-56593026I635000J0D01*
G01*
X146598026Y-56593026D02*
G75*
G02X147233026Y-57228026I0J-635000D01*
G01*
X148503026Y-60958026D02*
G75*
G02X147868026Y-61593026I-635000J0D01*
G01*
X147868026Y-61593026D02*
G75*
G02X147233026Y-60958026I0J635000D01*
G01*
X135963026Y-84228026D02*
X135963026Y-85958026D01*
X133598026Y-86593026D02*
X135328026Y-86593026D01*
X132963026Y-57228026D02*
X132963026Y-57728026D01*
X133598026Y-56593026D02*
X135328026Y-56593026D01*
X137233026Y-60958026D02*
X137233026Y-57228026D01*
X136598026Y-61593026D02*
X136598026Y-61593026D01*
X135963026Y-57228026D02*
X135963026Y-60958026D01*
X137868026Y-56593026D02*
X146598026Y-56593026D01*
X149138026Y-83593026D02*
X150868026Y-83593026D01*
X148503026Y-82958026D02*
X148503026Y-79228026D01*
X127633026Y-79228026D02*
X127633026Y-82958026D01*
X129538026Y-56593026D02*
X131268026Y-56593026D01*
X117633026Y-57228026D02*
G75*
G02X118268026Y-56593026I635000J0D01*
G01*
X128903026Y-60958026D02*
X128903026Y-57228026D01*
X117633026Y-60958026D02*
G75*
G02X116998026Y-61593026I-635000J0D01*
G01*
X128268026Y-61593026D02*
X128268026Y-61593026D01*
X116998026Y-61593026D02*
G75*
G02X116363026Y-60958026I0J635000D01*
G01*
X127633026Y-57228026D02*
X127633026Y-60958026D01*
X115728026Y-56593026D02*
G75*
G02X116363026Y-57228026I0J-635000D01*
G01*
X113363026Y-57228026D02*
G75*
G02X113998026Y-56593026I635000J0D01*
G01*
X112863026Y-77228026D02*
G75*
G02X113363026Y-77728026I0J-500000D01*
G01*
X113998026Y-86593026D02*
G75*
G02X113363026Y-85958026I0J635000D01*
G01*
X112303026Y-77728026D02*
G75*
G02X112803026Y-77228026I500000J0D01*
G01*
X116363026Y-85958026D02*
G75*
G02X115728026Y-86593026I-635000J0D01*
G01*
X112803026Y-76228026D02*
G75*
G02X112303026Y-75728026I0J500000D01*
G01*
X116363026Y-84228026D02*
G75*
G02X116998026Y-83593026I635000J0D01*
G01*
X113363026Y-75728026D02*
G75*
G02X112863026Y-76228026I-500000J0D01*
G01*
X127633026Y-82958026D02*
G75*
G02X126998026Y-83593026I-635000J0D01*
G01*
X113363026Y-77728026D02*
X113363026Y-85958026D01*
X127633026Y-79228026D02*
G75*
G02X128268026Y-78593026I635000J0D01*
G01*
X112303026Y-77728026D02*
X112303026Y-82958026D01*
X128268026Y-78593026D02*
G75*
G02X128903026Y-79228026I0J-635000D01*
G01*
X112863026Y-59228026D02*
G75*
G02X113363026Y-59728026I0J-500000D01*
G01*
X129538026Y-83593026D02*
G75*
G02X128903026Y-82958026I0J635000D01*
G01*
X112303026Y-59728026D02*
G75*
G02X112803026Y-59228026I500000J0D01*
G01*
X113363026Y-57728026D02*
G75*
G02X112863026Y-58228026I-500000J0D01*
G01*
X131903026Y-82958026D02*
G75*
G02X131268026Y-83593026I-635000J0D01*
G01*
X112803026Y-58228026D02*
G75*
G02X112303026Y-57728026I0J500000D01*
G01*
X113363026Y-59728026D02*
X113363026Y-75728026D01*
X112303026Y-59728026D02*
X112303026Y-75728026D01*
X112803026Y-77228026D02*
X112863026Y-77228026D01*
X112803026Y-76228026D02*
X112863026Y-76228026D01*
X112803026Y-59228026D02*
X112863026Y-59228026D01*
X112803026Y-58228026D02*
X112863026Y-58228026D01*
X124848026Y-84593026D02*
G75*
G02X124598026Y-84343026I0J250000D01*
G01*
X124598026Y-83843026D02*
G75*
G02X124848026Y-83593026I250000J0D01*
G01*
X123348026Y-83593026D02*
G75*
G02X123598026Y-83843026I0J-250000D01*
G01*
X123598026Y-84343026D02*
G75*
G02X123348026Y-84593026I-250000J0D01*
G01*
X120648026Y-84593026D02*
G75*
G02X120398026Y-84343026I0J250000D01*
G01*
X120398026Y-83843026D02*
G75*
G02X120648026Y-83593026I250000J0D01*
G01*
X119148026Y-83593026D02*
G75*
G02X119398026Y-83843026I0J-250000D01*
G01*
X120728026Y-84593026D02*
G75*
G02X121363026Y-85228026I0J-635000D01*
G01*
X119398026Y-84343026D02*
G75*
G02X119148026Y-84593026I-250000J0D01*
G01*
X122633026Y-85228026D02*
G75*
G02X123268026Y-84593026I635000J0D01*
G01*
X119148026Y-84593026D02*
X118998026Y-84593026D01*
X124998026Y-84593026D02*
G75*
G02X125633026Y-85228026I0J-635000D01*
G01*
X120648026Y-83593026D02*
X123348026Y-83593026D01*
X121998026Y-89593026D02*
G75*
G02X121363026Y-88958026I0J635000D01*
G01*
X120398026Y-84343026D02*
X120398026Y-83843026D01*
X122633026Y-88958026D02*
G75*
G02X121998026Y-89593026I-635000J0D01*
G01*
X119398026Y-84343026D02*
X119398026Y-83843026D01*
X118363026Y-89924264D02*
G75*
G02X117139390Y-92803814I-4000000J-1D01*
G01*
X126856662Y-92803814D02*
G75*
G02X125633026Y-89924265I2776364J2879549D01*
G01*
X118363026Y-85228026D02*
X118363026Y-89924265D01*
X125633026Y-85228026D02*
X125633026Y-89924265D01*
X112303026Y-57228026D02*
X112303026Y-57728026D01*
X120728026Y-84593026D02*
X120648026Y-84593026D01*
X124998026Y-84593026D02*
X124848026Y-84593026D01*
X122633026Y-88958026D02*
X122633026Y-85228026D01*
X123348026Y-84593026D02*
X123268026Y-84593026D01*
X121998026Y-89593026D02*
X121998026Y-89593026D01*
X121363026Y-85228026D02*
X121363026Y-88958026D01*
X118363026Y-85228026D02*
G75*
G02X118998026Y-84593026I635000J0D01*
G01*
X116998026Y-83593026D02*
X119148026Y-83593026D01*
X58096052Y-106330000D02*
X59309998Y-105116054D01*
X55086054Y-109339998D02*
X56300000Y-108126052D01*
X57198026Y-108126052D02*
X59835534Y-110763560D01*
X60733560Y-109865534D02*
X58096052Y-107228026D01*
X60733560Y-110763560D02*
X60733560Y-110763560D01*
X55086054Y-145116054D02*
G75*
G02X55089335Y-144214771I449013J449013D01*
G01*
X57198025Y-146330001D02*
G75*
G02X56300000Y-146330000I-449012J449013D01*
G01*
X59835534Y-143692492D02*
G75*
G02X60733560Y-143692492I449013J-449013D01*
G01*
X60733560Y-143692492D02*
G75*
G02X60733560Y-144590518I-449013J-449013D01*
G01*
X58096051Y-148126051D02*
G75*
G02X58096052Y-147228026I449013J449012D01*
G01*
X60211281Y-149336717D02*
G75*
G02X59309998Y-149339998I-452270J445732D01*
G01*
X95086054Y-149339998D02*
G75*
G02X94184771Y-149336717I-449013J449013D01*
G01*
X96300001Y-147228027D02*
G75*
G02X96300000Y-148126052I-449013J-449012D01*
G01*
X93662492Y-144590518D02*
G75*
G02X93662492Y-143692492I449013J449013D01*
G01*
X93662492Y-143692492D02*
G75*
G02X94560518Y-143692492I449013J-449013D01*
G01*
X98096051Y-146330001D02*
G75*
G02X97198026Y-146330000I-449012J449013D01*
G01*
X99306717Y-144214771D02*
G75*
G02X99309998Y-145116054I-445732J-452270D01*
G01*
X99309998Y-109339998D02*
G75*
G02X99306717Y-110241281I-449013J-449013D01*
G01*
X97198027Y-108126051D02*
G75*
G02X98096052Y-108126052I449012J-449013D01*
G01*
X121059945Y-141215971D02*
G75*
G02X118890425Y-140778290I-755306J1851895D01*
G01*
X143505627Y-140778290D02*
G75*
G02X141336107Y-141215971I-1414214J1414214D01*
G01*
X145185971Y-137366107D02*
G75*
G02X144748290Y-139535627I-1851895J-755306D01*
G01*
X144748290Y-114920425D02*
G75*
G02X145185971Y-117089945I-1414214J-1414214D01*
G01*
X141336107Y-113240081D02*
G75*
G02X143505627Y-113677762I755306J-1851895D01*
G01*
X118890425Y-113677762D02*
G75*
G02X121059945Y-113240081I1414214J-1414214D01*
G01*
X117210081Y-117089945D02*
G75*
G02X117647762Y-114920425I1851895J755306D01*
G01*
X118890425Y-113677762D02*
X117647762Y-114920425D01*
X144748290Y-114920425D02*
X143505627Y-113677762D01*
X143505627Y-140778290D02*
X144748290Y-139535627D01*
X117647762Y-139535627D02*
X118890425Y-140778290D01*
X144539116Y-118849212D02*
G75*
G02X145185971Y-117089945I25503876J-8378814D01*
G01*
X122819212Y-113886936D02*
G75*
G02X121059945Y-113240081I8378814J25503876D01*
G01*
X117856936Y-135606840D02*
G75*
G02X117210081Y-137366107I-25503876J8378814D01*
G01*
X139576840Y-140569116D02*
G75*
G02X141336107Y-141215971I-8378814J-25503876D01*
G01*
X109086054Y-109339998D02*
X109086054Y-109339998D01*
X110300000Y-108126052D02*
X109086054Y-109339998D01*
X153306717Y-144214771D02*
G75*
G02X153309998Y-145116054I-445732J-452270D01*
G01*
X153309998Y-109339998D02*
G75*
G02X153306717Y-110241281I-449013J-449013D01*
G01*
X151198027Y-108126051D02*
G75*
G02X152096052Y-108126052I449012J-449013D01*
G01*
X148560518Y-110763560D02*
G75*
G02X147662492Y-110763560I-449013J449013D01*
G01*
X147662492Y-110763560D02*
G75*
G02X147662492Y-109865534I449013J449013D01*
G01*
X150300001Y-106330001D02*
G75*
G02X150300000Y-107228026I-449013J-449012D01*
G01*
X148184771Y-105119335D02*
G75*
G02X149086054Y-105116054I452270J-445732D01*
G01*
X113309998Y-105116054D02*
G75*
G02X114211281Y-105119335I449013J-449013D01*
G01*
X112096051Y-107228025D02*
G75*
G02X112096052Y-106330000I449013J449012D01*
G01*
X114733560Y-109865534D02*
G75*
G02X114733560Y-110763560I-449013J-449013D01*
G01*
X114733560Y-110763560D02*
G75*
G02X113835534Y-110763560I-449013J449013D01*
G01*
X110300001Y-108126051D02*
G75*
G02X111198026Y-108126052I449012J-449013D01*
G01*
X109089335Y-110241281D02*
G75*
G02X109086054Y-109339998I445732J452270D01*
G01*
X153306717Y-144214771D02*
G75*
G02X153306717Y-110241281I16741199J16986745D01*
G01*
X140546013Y-144136348D02*
G75*
G02X148184771Y-149336717I-9347987J-21941568D01*
G01*
X109089335Y-110241281D02*
G75*
G02X111359443Y-112827072I-16741199J-16986745D01*
G01*
X148184771Y-105119335D02*
G75*
G02X131955971Y-112215979I-16986745J16741199D01*
G01*
X152096052Y-108126052D02*
X153309998Y-109339998D01*
X149086054Y-105116054D02*
X150300000Y-106330000D01*
X150300000Y-107228026D02*
X147662492Y-109865534D01*
X148560518Y-110763560D02*
X151198026Y-108126052D01*
X147662492Y-110763560D02*
X147662492Y-110763560D01*
X150300000Y-148126052D02*
X149086054Y-149339998D01*
X153309998Y-145116054D02*
X152096052Y-146330000D01*
X151198026Y-146330000D02*
X148560518Y-143692492D01*
X147662492Y-144590518D02*
X150300000Y-147228026D01*
X147662492Y-143692492D02*
X147662492Y-143692492D01*
X110300000Y-146330000D02*
X109086054Y-145116054D01*
X85398026Y-83843026D02*
G75*
G02X85648026Y-83593026I250000J0D01*
G01*
X84148026Y-83593026D02*
G75*
G02X84398026Y-83843026I0J-250000D01*
G01*
X84398026Y-84343026D02*
G75*
G02X84148026Y-84593026I-250000J0D01*
G01*
X81448026Y-84593026D02*
G75*
G02X81198026Y-84343026I0J250000D01*
G01*
X81198026Y-83843026D02*
G75*
G02X81448026Y-83593026I250000J0D01*
G01*
X79948026Y-83593026D02*
G75*
G02X80198026Y-83843026I0J-250000D01*
G01*
X81528026Y-84593026D02*
G75*
G02X82163026Y-85228026I0J-635000D01*
G01*
X80198026Y-84343026D02*
G75*
G02X79948026Y-84593026I-250000J0D01*
G01*
X83433026Y-85228026D02*
G75*
G02X84068026Y-84593026I635000J0D01*
G01*
X79948026Y-84593026D02*
X79798026Y-84593026D01*
X85798026Y-84593026D02*
G75*
G02X86433026Y-85228026I0J-635000D01*
G01*
X81448026Y-83593026D02*
X84148026Y-83593026D01*
X82798026Y-89593026D02*
G75*
G02X82163026Y-88958026I0J635000D01*
G01*
X81198026Y-84343026D02*
X81198026Y-83843026D01*
X83433026Y-88958026D02*
G75*
G02X82798026Y-89593026I-635000J0D01*
G01*
X80198026Y-84343026D02*
X80198026Y-83843026D01*
X79163026Y-89924264D02*
G75*
G02X77939390Y-92803814I-4000000J-1D01*
G01*
X87656662Y-92803814D02*
G75*
G02X86433026Y-89924265I2776364J2879549D01*
G01*
X79163026Y-85228026D02*
X79163026Y-89924265D01*
X86433026Y-85228026D02*
X86433026Y-89924265D01*
X81528026Y-84593026D02*
X81448026Y-84593026D01*
X85798026Y-84593026D02*
X85648026Y-84593026D01*
X75837104Y-97104405D02*
G75*
G02X77939390Y-92803814I6960922J-738621D01*
G01*
X83433026Y-88958026D02*
X83433026Y-85228026D01*
X84148026Y-84593026D02*
X84068026Y-84593026D01*
X82798026Y-89593026D02*
X82798026Y-89593026D01*
X82163026Y-85228026D02*
X82163026Y-88958026D01*
X79163026Y-85228026D02*
G75*
G02X79798026Y-84593026I635000J0D01*
G01*
X77798026Y-83593026D02*
X79948026Y-83593026D01*
X85648026Y-83593026D02*
X87798026Y-83593026D01*
X85398026Y-84343026D02*
X85398026Y-83843026D01*
X84398026Y-84343026D02*
X84398026Y-83843026D01*
X66048026Y-84593026D02*
G75*
G02X65798026Y-84343026I0J250000D01*
G01*
X65798026Y-83843026D02*
G75*
G02X66048026Y-83593026I250000J0D01*
G01*
X64548026Y-83593026D02*
G75*
G02X64798026Y-83843026I0J-250000D01*
G01*
X64798026Y-84343026D02*
G75*
G02X64548026Y-84593026I-250000J0D01*
G01*
X61848026Y-84593026D02*
G75*
G02X61598026Y-84343026I0J250000D01*
G01*
X61598026Y-83843026D02*
G75*
G02X61848026Y-83593026I250000J0D01*
G01*
X60348026Y-83593026D02*
G75*
G02X60598026Y-83843026I0J-250000D01*
G01*
X60598026Y-84343026D02*
G75*
G02X60348026Y-84593026I-250000J0D01*
G01*
X60348026Y-84593026D02*
X60198026Y-84593026D01*
X61848026Y-83593026D02*
X64548026Y-83593026D01*
X61598026Y-84343026D02*
X61598026Y-83843026D01*
X60598026Y-84343026D02*
X60598026Y-83843026D01*
X64548026Y-84593026D02*
X64468026Y-84593026D01*
X66048026Y-83593026D02*
X68198026Y-83593026D01*
X65798026Y-84343026D02*
X65798026Y-83843026D01*
X64798026Y-84343026D02*
X64798026Y-83843026D01*
X73663026Y-77228026D02*
G75*
G02X74163026Y-77728026I0J-500000D01*
G01*
X73103026Y-77728026D02*
G75*
G02X73603026Y-77228026I500000J0D01*
G01*
X73603026Y-76228026D02*
G75*
G02X73103026Y-75728026I0J500000D01*
G01*
X74163026Y-75728026D02*
G75*
G02X73663026Y-76228026I-500000J0D01*
G01*
X74163026Y-77728026D02*
X74163026Y-85958026D01*
X73103026Y-77728026D02*
X73103026Y-82958026D01*
X73663026Y-59228026D02*
G75*
G02X74163026Y-59728026I0J-500000D01*
G01*
X73103026Y-59728026D02*
G75*
G02X73603026Y-59228026I500000J0D01*
G01*
X74163026Y-57728026D02*
G75*
G02X73663026Y-58228026I-500000J0D01*
G01*
X73603026Y-58228026D02*
G75*
G02X73103026Y-57728026I0J500000D01*
G01*
X74163026Y-59728026D02*
X74163026Y-75728026D01*
X73103026Y-59728026D02*
X73103026Y-75728026D01*
X73603026Y-77228026D02*
X73663026Y-77228026D01*
X73603026Y-76228026D02*
X73663026Y-76228026D01*
X73603026Y-59228026D02*
X73663026Y-59228026D01*
X73603026Y-58228026D02*
X73663026Y-58228026D01*
X54563026Y-57228026D02*
G75*
G02X55198026Y-56593026I635000J0D01*
G01*
X55198026Y-86593026D02*
G75*
G02X54563026Y-85958026I0J635000D01*
G01*
X57563026Y-85958026D02*
G75*
G02X56928026Y-86593026I-635000J0D01*
G01*
X57563026Y-84228026D02*
G75*
G02X58198026Y-83593026I635000J0D01*
G01*
X68833026Y-82958026D02*
G75*
G02X68198026Y-83593026I-635000J0D01*
G01*
X68833026Y-79228026D02*
G75*
G02X69468026Y-78593026I635000J0D01*
G01*
X69468026Y-78593026D02*
G75*
G02X70103026Y-79228026I0J-635000D01*
G01*
X70738026Y-83593026D02*
G75*
G02X70103026Y-82958026I0J635000D01*
G01*
X73103026Y-82958026D02*
G75*
G02X72468026Y-83593026I-635000J0D01*
G01*
X72468026Y-56593026D02*
G75*
G02X73103026Y-57228026I0J-635000D01*
G01*
X70103026Y-57228026D02*
G75*
G02X70738026Y-56593026I635000J0D01*
G01*
X68198026Y-56593026D02*
G75*
G02X68833026Y-57228026I0J-635000D01*
G01*
X70103026Y-60958026D02*
G75*
G02X69468026Y-61593026I-635000J0D01*
G01*
X69468026Y-61593026D02*
G75*
G02X68833026Y-60958026I0J635000D01*
G01*
X57563026Y-84228026D02*
X57563026Y-85958026D01*
X55198026Y-86593026D02*
X56928026Y-86593026D01*
X54563026Y-57228026D02*
X54563026Y-85958026D01*
X58198026Y-83593026D02*
X60348026Y-83593026D01*
X73103026Y-57228026D02*
X73103026Y-57728026D01*
X55198026Y-56593026D02*
X56928026Y-56593026D01*
X58833026Y-60958026D02*
X58833026Y-57228026D01*
X58198026Y-61593026D02*
X58198026Y-61593026D01*
X57563026Y-57228026D02*
X57563026Y-60958026D01*
X59468026Y-56593026D02*
X68198026Y-56593026D01*
X70738026Y-83593026D02*
X72468026Y-83593026D01*
X69468026Y-78593026D02*
X69468026Y-78593026D01*
X70103026Y-82958026D02*
X70103026Y-79228026D01*
X68833026Y-79228026D02*
X68833026Y-82958026D01*
X70738026Y-56593026D02*
X72468026Y-56593026D01*
X58833026Y-57228026D02*
G75*
G02X59468026Y-56593026I635000J0D01*
G01*
X70103026Y-60958026D02*
X70103026Y-57228026D01*
X58833026Y-60958026D02*
G75*
G02X58198026Y-61593026I-635000J0D01*
G01*
X69468026Y-61593026D02*
X69468026Y-61593026D01*
X58198026Y-61593026D02*
G75*
G02X57563026Y-60958026I0J635000D01*
G01*
X96300000Y-107228026D02*
X93662492Y-109865534D01*
X94560518Y-110763560D02*
X97198026Y-108126052D01*
X93662492Y-110763560D02*
X93662492Y-110763560D01*
X96300000Y-148126052D02*
X95086054Y-149339998D01*
X99309998Y-145116054D02*
X98096052Y-146330000D01*
X97198026Y-146330000D02*
X94560518Y-143692492D01*
X93662492Y-143692492D02*
X93662492Y-143692492D01*
X93662492Y-144590518D02*
X96300000Y-147228026D01*
X109361961Y-98552681D02*
G75*
G02X95434091Y-98552681I-6963935J709655D01*
G01*
X90010673Y-98328026D02*
X90448026Y-98328026D01*
X107256662Y-92803814D02*
G75*
G02X109358948Y-97104405I-4858636J-5039212D01*
G01*
X89761961Y-98552681D02*
G75*
G02X90010673Y-98328026I248712J-25345D01*
G01*
X90007553Y-97328027D02*
G75*
G02X89758948Y-97104405I0J250001D01*
G01*
X95437104Y-97104405D02*
G75*
G02X97539390Y-92803814I6960922J-738621D01*
G01*
X114785379Y-98328026D02*
G75*
G02X115034091Y-98552681I0J-250000D01*
G01*
X115037103Y-97104405D02*
G75*
G02X114788499Y-97328026I-248604J26379D01*
G01*
X128961961Y-98552681D02*
G75*
G02X115034091Y-98552681I-6963935J709655D01*
G01*
X109361961Y-98552681D02*
G75*
G02X109610673Y-98328026I248712J-25345D01*
G01*
X109607553Y-97328027D02*
G75*
G02X109358948Y-97104405I0J250001D01*
G01*
X128961961Y-98552681D02*
G75*
G02X129210673Y-98328026I248712J-25345D01*
G01*
X134385379Y-98328026D02*
G75*
G02X134634091Y-98552681I0J-250000D01*
G01*
X134637103Y-97104405D02*
G75*
G02X134388499Y-97328026I-248604J26379D01*
G01*
X129207553Y-97328027D02*
G75*
G02X128958948Y-97104405I0J250001D01*
G01*
X134637104Y-97104405D02*
G75*
G02X136739390Y-92803814I6960922J-738621D01*
G01*
X146456662Y-92803815D02*
G75*
G02X134634091Y-98552681I-4858636J-5039211D01*
G01*
X126856662Y-92803814D02*
G75*
G02X128958948Y-97104405I-4858636J-5039212D01*
G01*
X115037104Y-97104405D02*
G75*
G02X117139390Y-92803814I6960922J-738621D01*
G01*
X70161961Y-98552681D02*
G75*
G02X70410673Y-98328026I248712J-25345D01*
G01*
X75585379Y-98328026D02*
G75*
G02X75834091Y-98552681I0J-250000D01*
G01*
X75837103Y-97104405D02*
G75*
G02X75588499Y-97328026I-248604J26379D01*
G01*
X70407553Y-97328027D02*
G75*
G02X70158948Y-97104405I0J250001D01*
G01*
X68056662Y-92803814D02*
G75*
G02X70158948Y-97104405I-4858636J-5039212D01*
G01*
X70407553Y-97328026D02*
X70948026Y-97328026D01*
X70410673Y-98328026D02*
X70948026Y-98328026D01*
X130698026Y-111966106D02*
X130698026Y-111478026D01*
X131698026Y-111966106D02*
X131698026Y-111478026D01*
X92459946Y-126728025D02*
G75*
G02X92210073Y-126470081I0J249999D01*
G01*
X92210072Y-127985971D02*
G75*
G02X92459946Y-127728026I249874J7945D01*
G01*
X94914082Y-127728026D02*
G75*
G02X95164082Y-127978026I0J-250000D01*
G01*
X95164082Y-126478026D02*
G75*
G02X94914082Y-126728026I-250000J0D01*
G01*
X95164082Y-127978026D02*
X95164082Y-136093026D01*
X92210073Y-126470081D02*
G75*
G02X95978228Y-114342962I23837843J-757945D01*
G01*
X94914082Y-127728026D02*
X92459946Y-127728026D01*
X92459946Y-126728026D02*
X94914082Y-126728026D01*
X114186159Y-127970031D02*
G75*
G02X114436031Y-127728026I249872J-7995D01*
G01*
X115936106Y-127728027D02*
G75*
G02X116185979Y-127985971I0J-249999D01*
G01*
X116185980Y-126470081D02*
G75*
G02X115936106Y-126728026I-249874J-7945D01*
G01*
X114436031Y-126728026D02*
G75*
G02X114186159Y-126486021I0J250000D01*
G01*
X116185978Y-127985971D02*
G75*
G02X111731839Y-141123683I-23837842J757945D01*
G01*
X112332926Y-118113589D02*
G75*
G02X114186159Y-126486021I-21337829J-9114437D01*
G01*
X114436031Y-127728026D02*
X115936106Y-127728026D01*
X114436031Y-126728026D02*
X115936106Y-126728026D01*
X151503026Y-82958026D02*
X151503026Y-57228026D01*
X147233026Y-79228026D02*
X147233026Y-82958026D01*
X149138026Y-56593026D02*
X150868026Y-56593026D01*
X137233026Y-57228026D02*
G75*
G02X137868026Y-56593026I635000J0D01*
G01*
X148503026Y-60958026D02*
X148503026Y-57228026D01*
X137233026Y-60958026D02*
G75*
G02X136598026Y-61593026I-635000J0D01*
G01*
X147868026Y-61593026D02*
X147868026Y-61593026D01*
X136598026Y-61593026D02*
G75*
G02X135963026Y-60958026I0J635000D01*
G01*
X147233026Y-57228026D02*
X147233026Y-60958026D01*
X135328026Y-56593026D02*
G75*
G02X135963026Y-57228026I0J-635000D01*
G01*
X132963026Y-57228026D02*
G75*
G02X133598026Y-56593026I635000J0D01*
G01*
X132463026Y-77228026D02*
G75*
G02X132963026Y-77728026I0J-500000D01*
G01*
X133598026Y-86593026D02*
G75*
G02X132963026Y-85958026I0J635000D01*
G01*
X131903026Y-77728026D02*
G75*
G02X132403026Y-77228026I500000J0D01*
G01*
X135963026Y-85958026D02*
G75*
G02X135328026Y-86593026I-635000J0D01*
G01*
X132403026Y-76228026D02*
G75*
G02X131903026Y-75728026I0J500000D01*
G01*
X135963026Y-84228026D02*
G75*
G02X136598026Y-83593026I635000J0D01*
G01*
X132963026Y-75728026D02*
G75*
G02X132463026Y-76228026I-500000J0D01*
G01*
X147233026Y-82958026D02*
G75*
G02X146598026Y-83593026I-635000J0D01*
G01*
X132963026Y-77728026D02*
X132963026Y-85958026D01*
X147233026Y-79228026D02*
G75*
G02X147868026Y-78593026I635000J0D01*
G01*
X131903026Y-77728026D02*
X131903026Y-82958026D01*
X147868026Y-78593026D02*
G75*
G02X148503026Y-79228026I0J-635000D01*
G01*
X132463026Y-59228026D02*
G75*
G02X132963026Y-59728026I0J-500000D01*
G01*
X149138026Y-83593026D02*
G75*
G02X148503026Y-82958026I0J635000D01*
G01*
X131903026Y-59728026D02*
G75*
G02X132403026Y-59228026I500000J0D01*
G01*
X132963026Y-57728026D02*
G75*
G02X132463026Y-58228026I-500000J0D01*
G01*
X151503026Y-82958026D02*
G75*
G02X150868026Y-83593026I-635000J0D01*
G01*
X132403026Y-58228026D02*
G75*
G02X131903026Y-57728026I0J500000D01*
G01*
X132963026Y-59728026D02*
X132963026Y-75728026D01*
X131903026Y-59728026D02*
X131903026Y-75728026D01*
X132403026Y-77228026D02*
X132463026Y-77228026D01*
X132403026Y-76228026D02*
X132463026Y-76228026D01*
X132403026Y-59228026D02*
X132463026Y-59228026D01*
X132403026Y-58228026D02*
X132463026Y-58228026D01*
X144448026Y-84593026D02*
G75*
G02X144198026Y-84343026I0J250000D01*
G01*
X144198026Y-83843026D02*
G75*
G02X144448026Y-83593026I250000J0D01*
G01*
X142948026Y-83593026D02*
G75*
G02X143198026Y-83843026I0J-250000D01*
G01*
X143198026Y-84343026D02*
G75*
G02X142948026Y-84593026I-250000J0D01*
G01*
X140248026Y-84593026D02*
G75*
G02X139998026Y-84343026I0J250000D01*
G01*
X139998026Y-83843026D02*
G75*
G02X140248026Y-83593026I250000J0D01*
G01*
X138748026Y-83593026D02*
G75*
G02X138998026Y-83843026I0J-250000D01*
G01*
X140328026Y-84593026D02*
G75*
G02X140963026Y-85228026I0J-635000D01*
G01*
X138998026Y-84343026D02*
G75*
G02X138748026Y-84593026I-250000J0D01*
G01*
X142233026Y-85228026D02*
G75*
G02X142868026Y-84593026I635000J0D01*
G01*
X138748026Y-84593026D02*
X138598026Y-84593026D01*
X144598026Y-84593026D02*
G75*
G02X145233026Y-85228026I0J-635000D01*
G01*
X140248026Y-83593026D02*
X142948026Y-83593026D01*
X141598026Y-89593026D02*
G75*
G02X140963026Y-88958026I0J635000D01*
G01*
X139998026Y-84343026D02*
X139998026Y-83843026D01*
X142233026Y-88958026D02*
G75*
G02X141598026Y-89593026I-635000J0D01*
G01*
X138998026Y-84343026D02*
X138998026Y-83843026D01*
X137963026Y-89924264D02*
G75*
G02X136739390Y-92803814I-4000000J-1D01*
G01*
X140448026Y-153228026D02*
X121198026Y-153228026D01*
X141448026Y-147228026D02*
X141448026Y-152228026D01*
X120198026Y-150728026D02*
X120198026Y-147228026D01*
X119198026Y-154728026D02*
X119198026Y-152228026D01*
X130148026Y-111228026D02*
G75*
G02X129898026Y-110978026I0J250000D01*
G01*
X133398026Y-110978026D02*
G75*
G02X133148026Y-111228026I-250000J0D01*
G01*
X131698026Y-111478026D02*
G75*
G02X131948026Y-111228026I250000J0D01*
G01*
X130448026Y-111228026D02*
G75*
G02X130698026Y-111478026I0J-250000D01*
G01*
X130448026Y-111228026D02*
X130148026Y-111228026D01*
X133148026Y-111228026D02*
X131948026Y-111228026D01*
X129898026Y-98578026D02*
X129898026Y-110978026D01*
X129210673Y-98328026D02*
X129648026Y-98328026D01*
X133398026Y-93478026D02*
X133398026Y-97078026D01*
X130148026Y-93228026D02*
X133148026Y-93228026D01*
X129898026Y-97078026D02*
X129898026Y-93478026D01*
X133398026Y-98578026D02*
G75*
G02X133648026Y-98328026I250000J0D01*
G01*
X129648026Y-98328026D02*
G75*
G02X129898026Y-98578026I0J-250000D01*
G01*
X133648026Y-97328026D02*
G75*
G02X133398026Y-97078026I0J250000D01*
G01*
X133148026Y-93228026D02*
G75*
G02X133398026Y-93478026I0J-250000D01*
G01*
X129898026Y-93478026D02*
G75*
G02X130148026Y-93228026I250000J0D01*
G01*
X129898026Y-97078026D02*
G75*
G02X129648026Y-97328026I-250000J0D01*
G01*
X133648026Y-98328026D02*
X134385379Y-98328026D01*
X133648026Y-97328026D02*
X134388499Y-97328026D01*
X129207553Y-97328026D02*
X129648026Y-97328026D01*
X133398026Y-110978026D02*
X133398026Y-98578026D01*
X110548026Y-103228026D02*
G75*
G02X110298026Y-102978026I0J250000D01*
G01*
X113798026Y-102978026D02*
G75*
G02X113548026Y-103228026I-250000J0D01*
G01*
X113798026Y-98578026D02*
G75*
G02X114048026Y-98328026I250000J0D01*
G01*
X110048026Y-98328026D02*
G75*
G02X110298026Y-98578026I0J-250000D01*
G01*
X114048026Y-97328026D02*
G75*
G02X113798026Y-97078026I0J250000D01*
G01*
X113548026Y-93228026D02*
G75*
G02X113798026Y-93478026I0J-250000D01*
G01*
X110298026Y-93478026D02*
G75*
G02X110548026Y-93228026I250000J0D01*
G01*
X110298026Y-97078026D02*
G75*
G02X110048026Y-97328026I-250000J0D01*
G01*
X114048026Y-98328026D02*
X114785379Y-98328026D01*
X114048026Y-97328026D02*
X114788499Y-97328026D01*
X109607553Y-97328026D02*
X110048026Y-97328026D01*
X113798026Y-102978026D02*
X113798026Y-98578026D01*
X110548026Y-103228026D02*
X113548026Y-103228026D01*
X110298026Y-98578026D02*
X110298026Y-102978026D01*
X109610673Y-98328026D02*
X110048026Y-98328026D01*
X113798026Y-93478026D02*
X113798026Y-97078026D01*
X110548026Y-93228026D02*
X113548026Y-93228026D01*
X110298026Y-97078026D02*
X110298026Y-93478026D01*
X90948026Y-103228026D02*
G75*
G02X90698026Y-102978026I0J250000D01*
G01*
X94198026Y-102978026D02*
G75*
G02X93948026Y-103228026I-250000J0D01*
G01*
X94198026Y-98578026D02*
G75*
G02X94448026Y-98328026I250000J0D01*
G01*
X90448026Y-98328026D02*
G75*
G02X90698026Y-98578026I0J-250000D01*
G01*
X94448026Y-97328026D02*
G75*
G02X94198026Y-97078026I0J250000D01*
G01*
X93948026Y-93228026D02*
G75*
G02X94198026Y-93478026I0J-250000D01*
G01*
X90698026Y-93478026D02*
G75*
G02X90948026Y-93228026I250000J0D01*
G01*
X90698026Y-97078026D02*
G75*
G02X90448026Y-97328026I-250000J0D01*
G01*
X94448026Y-98328026D02*
X95185379Y-98328026D01*
X94448026Y-97328026D02*
X95188499Y-97328026D01*
X94198026Y-102978026D02*
X94198026Y-98578026D01*
X90948026Y-103228026D02*
X93948026Y-103228026D01*
X90698026Y-98578026D02*
X90698026Y-102978026D01*
X94198026Y-93478026D02*
X94198026Y-97078026D01*
X90948026Y-93228026D02*
X93948026Y-93228026D01*
X90698026Y-97078026D02*
X90698026Y-93478026D01*
X74771249Y-101801250D02*
G75*
G02X74698026Y-101624473I176777J176777D01*
G01*
X74698026Y-98578026D02*
G75*
G02X74948026Y-98328026I250000J0D01*
G01*
X74698026Y-98578026D02*
X74698026Y-101624473D01*
X74948026Y-97328026D02*
G75*
G02X74698026Y-97078026I0J250000D01*
G01*
X74448026Y-95228026D02*
G75*
G02X74698026Y-95478026I0J-250000D01*
G01*
X71198026Y-95478026D02*
G75*
G02X71448026Y-95228026I250000J0D01*
G01*
X71198026Y-97078026D02*
G75*
G02X70948026Y-97328026I-250000J0D01*
G01*
X74948026Y-97328026D02*
X75588499Y-97328026D01*
X74698026Y-95478026D02*
X74698026Y-97078026D01*
X71448026Y-95228026D02*
X74448026Y-95228026D01*
X71198026Y-97078026D02*
X71198026Y-95478026D01*
X71198026Y-101124472D02*
G75*
G02X71124803Y-101301249I-250000J-1D01*
G01*
X67198026Y-105331580D02*
G75*
G02X67271249Y-105154803I250000J1D01*
G01*
X67271249Y-106301250D02*
G75*
G02X67198026Y-106124473I176777J176777D01*
G01*
X71301580Y-110228026D02*
G75*
G02X71124803Y-110154803I-1J250000D01*
G01*
X71198026Y-101124473D02*
X71198026Y-98578026D01*
X67271249Y-105154803D02*
X71124803Y-101301249D01*
X67198026Y-106124473D02*
X67198026Y-105331579D01*
X71124803Y-110154803D02*
X67271249Y-106301249D01*
X119198026Y-152228026D02*
G75*
G02X119448026Y-151978026I250000J0D01*
G01*
X119948026Y-151978026D02*
G75*
G02X120198026Y-152228026I0J-250000D01*
G01*
X120198026Y-150728026D02*
G75*
G02X119948026Y-150978026I-250000J0D01*
G01*
X119448026Y-150978026D02*
G75*
G02X119198026Y-150728026I0J250000D01*
G01*
X119448026Y-150978026D02*
X119948026Y-150978026D01*
X119948026Y-151978026D02*
X119448026Y-151978026D01*
X89198026Y-153478026D02*
G75*
G02X89448026Y-153228026I250000J0D01*
G01*
X89948026Y-153228026D02*
G75*
G02X90198026Y-153478026I0J-250000D01*
G01*
X90198026Y-151978026D02*
G75*
G02X89948026Y-152228026I-250000J0D01*
G01*
X89448026Y-152228026D02*
G75*
G02X89198026Y-151978026I0J250000D01*
G01*
X90198026Y-153478026D02*
X90198026Y-154728026D01*
X89198026Y-151978026D02*
X89198026Y-148228026D01*
X89948026Y-152228026D02*
X89448026Y-152228026D01*
X89448026Y-153228026D02*
X89948026Y-153228026D01*
X109051580Y-142374473D02*
G75*
G02X109405133Y-142228026I353553J-353553D01*
G01*
X107198026Y-144435132D02*
G75*
G02X107344473Y-144081579I500000J-1D01*
G01*
X107344473Y-147374472D02*
G75*
G02X107198026Y-147020919I353553J353553D01*
G01*
X110405132Y-150228026D02*
G75*
G02X110051579Y-150081579I1J500000D01*
G01*
X118698026Y-150228026D02*
G75*
G02X119198026Y-150728026I0J-500000D01*
G01*
X119198026Y-154728026D02*
G75*
G02X118698026Y-155228026I-500000J0D01*
G01*
X90698026Y-155228026D02*
G75*
G02X90198026Y-154728026I0J500000D01*
G01*
X90198026Y-150728026D02*
G75*
G02X90698026Y-150228026I500000J0D01*
G01*
X98344472Y-150081579D02*
G75*
G02X97990919Y-150228026I-353553J353553D01*
G01*
X101198026Y-147020920D02*
G75*
G02X101051579Y-147374473I-500000J1D01*
G01*
X101051579Y-144081580D02*
G75*
G02X101198026Y-144435133I-353553J-353553D01*
G01*
X98990920Y-142228026D02*
G75*
G02X99344473Y-142374473I-1J-500000D01*
G01*
X109405133Y-142228026D02*
X110359030Y-142228026D01*
X97990919Y-150228026D02*
X90698026Y-150228026D01*
X107344473Y-147374473D02*
X110051579Y-150081579D01*
X107198026Y-144435133D02*
X107198026Y-147020919D01*
X109051579Y-142374473D02*
X107344473Y-144081579D01*
X101051579Y-147374473D02*
X98344473Y-150081579D01*
X101198026Y-144435133D02*
X101198026Y-147020919D01*
X99344473Y-142374473D02*
X101051579Y-144081579D01*
X90198026Y-150728026D02*
X90198026Y-151978026D01*
X118698026Y-150228026D02*
X110405133Y-150228026D01*
X90698026Y-155228026D02*
X118698026Y-155228026D01*
X122198026Y-145978026D02*
G75*
G02X121948026Y-146228026I-250000J0D01*
G01*
X121850038Y-144136348D02*
G75*
G02X122198026Y-144366345I97988J-229997D01*
G01*
X123198025Y-143786835D02*
G75*
G02X123365928Y-143550699I250001J0D01*
G01*
X123448026Y-146228026D02*
G75*
G02X123198026Y-145978026I0J250000D01*
G01*
X139198026Y-145978026D02*
G75*
G02X138948026Y-146228026I-250000J0D01*
G01*
X140448026Y-146228026D02*
G75*
G02X140198026Y-145978026I0J250000D01*
G01*
X140198026Y-144366345D02*
G75*
G02X140546014Y-144136349I250000J0D01*
G01*
X139030124Y-143550700D02*
G75*
G02X139198026Y-143786835I-82098J-236135D01*
G01*
X123365928Y-143550699D02*
G75*
G02X139030124Y-143550699I7832098J-22527217D01*
G01*
X138948026Y-146228026D02*
X123448026Y-146228026D01*
X114211280Y-149336718D02*
G75*
G02X121850038Y-144136349I16986746J-16741198D01*
G01*
X120198026Y-147228026D02*
G75*
G02X121198026Y-146228026I1000000J0D01*
G01*
X121198026Y-153228026D02*
G75*
G02X120198026Y-152228026I0J1000000D01*
G01*
X141448026Y-152228026D02*
G75*
G02X140448026Y-153228026I-1000000J0D01*
G01*
X140448026Y-146228026D02*
G75*
G02X141448026Y-147228026I0J-1000000D01*
G01*
X123198026Y-145978026D02*
X123198026Y-143786835D01*
X121948026Y-146228026D02*
X121198026Y-146228026D01*
X140198026Y-144366345D02*
X140198026Y-145978026D01*
X139198026Y-145978026D02*
X139198026Y-143786835D01*
X122198026Y-145978026D02*
X122198026Y-144366345D01*
X78301580Y-105228026D02*
G75*
G02X78124803Y-105154803I-1J250000D01*
G01*
X78124803Y-105154803D02*
X74771249Y-101801249D01*
X111198026Y-114478026D02*
G75*
G02X111448026Y-114228026I250000J0D01*
G01*
X96948026Y-114228026D02*
G75*
G02X97198026Y-114478026I0J-250000D01*
G01*
X111448026Y-114228026D02*
X112207449Y-114228026D01*
X110301580Y-113228026D02*
G75*
G02X110124803Y-113154803I-1J250000D01*
G01*
X107094472Y-110228026D02*
G75*
G02X107271249Y-110301249I1J-250000D01*
G01*
X101124802Y-110301249D02*
G75*
G02X101301579Y-110228026I176777J-176777D01*
G01*
X98271250Y-113154803D02*
G75*
G02X98094473Y-113228026I-176777J176777D01*
G01*
X98094473Y-113228026D02*
X97235890Y-113228026D01*
X107271249Y-110301249D02*
X110124803Y-113154803D01*
X101301579Y-110228026D02*
X107094473Y-110228026D01*
X98271249Y-113154803D02*
X101124803Y-110301249D01*
X111198026Y-116228026D02*
X111198026Y-114478026D01*
X97198026Y-116228026D02*
X111198026Y-116228026D01*
X97198026Y-114478026D02*
X97198026Y-116228026D01*
X97198026Y-138478026D02*
G75*
G02X97448026Y-138228026I250000J0D01*
G01*
X110948026Y-138228026D02*
G75*
G02X111198026Y-138478026I0J-250000D01*
G01*
X111448026Y-141228026D02*
G75*
G02X111198026Y-140978026I0J250000D01*
G01*
X97198026Y-140978026D02*
G75*
G02X96948026Y-141228026I-250000J0D01*
G01*
X96948026Y-141228026D02*
X96867397Y-141228026D01*
X111198026Y-138478026D02*
X111198026Y-140978026D01*
X97448026Y-138228026D02*
X110948026Y-138228026D01*
X97198026Y-140978026D02*
X97198026Y-138478026D01*
X121698026Y-127228026D02*
G75*
G03X121698026Y-127228026I-1500000J0D01*
G01*
X132698026Y-138228026D02*
G75*
G03X132698026Y-138228026I-1500000J0D01*
G01*
X143698026Y-127228026D02*
G75*
G03X143698026Y-127228026I-1500000J0D01*
G01*
X132698026Y-116228026D02*
G75*
G03X132698026Y-116228026I-1500000J0D01*
G01*
X122819212Y-113886936D02*
G75*
G02X129698026Y-123387367I-3121186J-9500431D01*
G01*
X132698026Y-123387367D02*
G75*
G02X139576840Y-113886936I10000000J0D01*
G01*
X144539116Y-118849212D02*
G75*
G02X135038685Y-125728026I-9500431J3121186D01*
G01*
X135038685Y-128728026D02*
G75*
G02X144539116Y-135606840I0J-10000000D01*
G01*
X139576840Y-140569116D02*
G75*
G02X132698026Y-131068685I3121186J9500431D01*
G01*
X129698026Y-131068685D02*
G75*
G02X122819212Y-140569116I-10000000J0D01*
G01*
X117856936Y-135606840D02*
G75*
G02X127357367Y-128728026I9500431J-3121186D01*
G01*
X127357367Y-125728026D02*
G75*
G02X117856936Y-118849212I0J10000000D01*
G01*
X85880040Y-143864409D02*
G75*
G02X86198026Y-144330103I-182014J-465694D01*
G01*
X87198026Y-145222046D02*
G75*
G02X87922866Y-144775450I500000J1D01*
G01*
X87698026Y-147228026D02*
G75*
G02X87198026Y-146728026I0J500000D01*
G01*
X86198026Y-146728026D02*
G75*
G02X85698026Y-147228026I-500000J0D01*
G01*
X68698026Y-147228026D02*
G75*
G02X68198026Y-146728026I0J500000D01*
G01*
X67198026Y-146728026D02*
G75*
G02X66698026Y-147228026I-500000J0D01*
G01*
X68198026Y-144330103D02*
G75*
G02X68516012Y-143864409I500000J0D01*
G01*
X66473186Y-144775450D02*
G75*
G02X67198026Y-145222045I224840J-446595D01*
G01*
X60211281Y-149336717D02*
G75*
G02X66473186Y-144775450I16986745J-16741199D01*
G01*
X68516013Y-143864409D02*
G75*
G02X85880040Y-143864409I8682013J-22213507D01*
G01*
X85698026Y-147228026D02*
X68698026Y-147228026D01*
X66698026Y-147228026D02*
X66198026Y-147228026D01*
X68198026Y-146728026D02*
X68198026Y-144330103D01*
X67198026Y-146728026D02*
X67198026Y-145222045D01*
X86198026Y-146728026D02*
X86198026Y-144330103D01*
X87198026Y-146728026D02*
X87198026Y-145222045D01*
X66198026Y-155228026D02*
G75*
G02X65198026Y-154228026I0J1000000D01*
G01*
X89198026Y-154228026D02*
G75*
G02X88198026Y-155228026I-1000000J0D01*
G01*
X88198026Y-147228026D02*
G75*
G02X89198026Y-148228026I0J-1000000D01*
G01*
X65198026Y-148228026D02*
G75*
G02X66198026Y-147228026I1000000J0D01*
G01*
X65198026Y-148228026D02*
X65198026Y-154228026D01*
X88198026Y-147228026D02*
X87698026Y-147228026D01*
X89198026Y-154228026D02*
X89198026Y-153478026D01*
X66198026Y-155228026D02*
X88198026Y-155228026D01*
X97235890Y-113228026D02*
G75*
G02X97036609Y-112827072I0J250000D01*
G01*
X111359443Y-112827072D02*
G75*
G02X111160162Y-113228026I-199281J-150954D01*
G01*
X112207449Y-114228026D02*
G75*
G02X112417824Y-114342962I0J-250000D01*
G01*
X95978228Y-114342962D02*
G75*
G02X96188603Y-114228026I210375J-135064D01*
G01*
X96867397Y-141228025D02*
G75*
G02X96664213Y-141123683I0J249999D01*
G01*
X97846228Y-142639573D02*
G75*
G02X98037022Y-142228026I190794J161547D01*
G01*
X110359029Y-142228026D02*
G75*
G02X110549825Y-142639573I1J-250000D01*
G01*
X111731839Y-141123683D02*
G75*
G02X111528655Y-141228026I-203184J145657D01*
G01*
X110549825Y-142639573D02*
G75*
G02X109089335Y-144214771I-18201689J15411547D01*
G01*
X96664213Y-141123683D02*
G75*
G02X92210073Y-127985971I19383703J13895657D01*
G01*
X112417824Y-114342962D02*
G75*
G02X116185979Y-126470081I-20069688J-12885064D01*
G01*
X97036609Y-112827072D02*
G75*
G02X99306717Y-110241281I19011307J-14400954D01*
G01*
X111528655Y-141228026D02*
X111448026Y-141228026D01*
X98037022Y-142228026D02*
X98990919Y-142228026D01*
X111160162Y-113228026D02*
X110301579Y-113228026D01*
X96188603Y-114228026D02*
X96948026Y-114228026D01*
X77955971Y-112215980D02*
G75*
G02X77698026Y-111966106I-7945J249874D01*
G01*
X76698025Y-111966106D02*
G75*
G02X76440081Y-112215979I-249999J0D01*
G01*
X77698026Y-110478026D02*
G75*
G02X77948026Y-110228026I250000J0D01*
G01*
X76448026Y-110228026D02*
G75*
G02X76698026Y-110478026I0J-250000D01*
G01*
X76440081Y-112215979D02*
G75*
G02X60211281Y-105119335I757945J23837843D01*
G01*
X77948026Y-110228026D02*
X78948026Y-110228026D01*
X78948026Y-105228026D02*
G75*
G02X79198026Y-105478026I0J-250000D01*
G01*
X79198026Y-109978026D02*
G75*
G02X78948026Y-110228026I-250000J0D01*
G01*
X78948026Y-105228026D02*
X78301579Y-105228026D01*
X79198026Y-109978026D02*
X79198026Y-105478026D01*
X71301579Y-110228026D02*
X76448026Y-110228026D01*
X70948026Y-98328026D02*
G75*
G02X71198026Y-98578026I0J-250000D01*
G01*
X74948026Y-98328026D02*
X75585379Y-98328026D01*
X76698026Y-111228026D02*
X76698026Y-111228026D01*
X76698026Y-111966106D02*
X76698026Y-110478026D01*
X77698026Y-111228026D02*
X77698026Y-111228026D01*
X77698026Y-111966106D02*
X77698026Y-110478026D01*
X131955971Y-112215980D02*
G75*
G02X131698026Y-111966106I-7945J249874D01*
G01*
X130698025Y-111966106D02*
G75*
G02X130440081Y-112215979I-249999J0D01*
G01*
X130440081Y-112215979D02*
G75*
G02X114211281Y-105119335I757945J23837843D01*
G01*
X89761961Y-98552681D02*
G75*
G02X75834091Y-98552681I-6963935J709655D01*
G01*
X87656662Y-92803814D02*
G75*
G02X89758948Y-97104405I-4858636J-5039212D01*
G01*
X90007553Y-97328026D02*
X90448026Y-97328026D01*
X95185379Y-98328026D02*
G75*
G02X95434091Y-98552681I0J-250000D01*
G01*
X95437103Y-97104405D02*
G75*
G02X95188499Y-97328026I-248604J26379D01*
G01*
X68833026Y-57228026D02*
X68833026Y-60958026D01*
X56928026Y-56593026D02*
G75*
G02X57563026Y-57228026I0J-635000D01*
G01*
X92068026Y-56593026D02*
G75*
G02X92703026Y-57228026I0J-635000D01*
G01*
X89703026Y-57228026D02*
G75*
G02X90338026Y-56593026I635000J0D01*
G01*
X87798026Y-56593026D02*
G75*
G02X88433026Y-57228026I0J-635000D01*
G01*
X89703026Y-60958026D02*
G75*
G02X89068026Y-61593026I-635000J0D01*
G01*
X89068026Y-61593026D02*
G75*
G02X88433026Y-60958026I0J635000D01*
G01*
X77163026Y-84228026D02*
X77163026Y-85958026D01*
X74798026Y-86593026D02*
X76528026Y-86593026D01*
X74163026Y-57228026D02*
X74163026Y-57728026D01*
X74798026Y-56593026D02*
X76528026Y-56593026D01*
X78433026Y-60958026D02*
X78433026Y-57228026D01*
X77798026Y-61593026D02*
X77798026Y-61593026D01*
X77163026Y-57228026D02*
X77163026Y-60958026D01*
X79068026Y-56593026D02*
X87798026Y-56593026D01*
X90338026Y-83593026D02*
X92068026Y-83593026D01*
X89703026Y-82958026D02*
X89703026Y-79228026D01*
X88433026Y-79228026D02*
X88433026Y-82958026D01*
X90338026Y-56593026D02*
X92068026Y-56593026D01*
X78433026Y-57228026D02*
G75*
G02X79068026Y-56593026I635000J0D01*
G01*
X89703026Y-60958026D02*
X89703026Y-57228026D01*
X78433026Y-60958026D02*
G75*
G02X77798026Y-61593026I-635000J0D01*
G01*
X89068026Y-61593026D02*
X89068026Y-61593026D01*
X77798026Y-61593026D02*
G75*
G02X77163026Y-60958026I0J635000D01*
G01*
X88433026Y-57228026D02*
X88433026Y-60958026D01*
X76528026Y-56593026D02*
G75*
G02X77163026Y-57228026I0J-635000D01*
G01*
X74163026Y-57228026D02*
G75*
G02X74798026Y-56593026I635000J0D01*
G01*
X74798026Y-86593026D02*
G75*
G02X74163026Y-85958026I0J635000D01*
G01*
X77163026Y-85958026D02*
G75*
G02X76528026Y-86593026I-635000J0D01*
G01*
X77163026Y-84228026D02*
G75*
G02X77798026Y-83593026I635000J0D01*
G01*
X88433026Y-82958026D02*
G75*
G02X87798026Y-83593026I-635000J0D01*
G01*
X88433026Y-79228026D02*
G75*
G02X89068026Y-78593026I635000J0D01*
G01*
X89068026Y-78593026D02*
G75*
G02X89703026Y-79228026I0J-635000D01*
G01*
X90338026Y-83593026D02*
G75*
G02X89703026Y-82958026I0J635000D01*
G01*
X92703026Y-82958026D02*
G75*
G02X92068026Y-83593026I-635000J0D01*
G01*
X61928026Y-84593026D02*
G75*
G02X62563026Y-85228026I0J-635000D01*
G01*
X63833026Y-85228026D02*
G75*
G02X64468026Y-84593026I635000J0D01*
G01*
X66198026Y-84593026D02*
G75*
G02X66833026Y-85228026I0J-635000D01*
G01*
X63198026Y-89593026D02*
G75*
G02X62563026Y-88958026I0J635000D01*
G01*
X63833026Y-88958026D02*
G75*
G02X63198026Y-89593026I-635000J0D01*
G01*
X59563026Y-89924264D02*
G75*
G02X58339390Y-92803814I-4000000J-1D01*
G01*
X68056662Y-92803814D02*
G75*
G02X66833026Y-89924265I2776364J2879549D01*
G01*
X59563026Y-85228026D02*
X59563026Y-89924265D01*
X66833026Y-85228026D02*
X66833026Y-89924265D01*
X61928026Y-84593026D02*
X61848026Y-84593026D01*
X66198026Y-84593026D02*
X66048026Y-84593026D01*
X70161961Y-98552682D02*
G75*
G02X58339390Y-92803814I-6963935J709656D01*
G01*
X63833026Y-88958026D02*
X63833026Y-85228026D01*
X63198026Y-89593026D02*
X63198026Y-89593026D01*
X62563026Y-85228026D02*
X62563026Y-88958026D01*
X59563026Y-85228026D02*
G75*
G02X60198026Y-84593026I635000J0D01*
G01*
X95799082Y-136728026D02*
G75*
G02X95164082Y-136093026I0J635000D01*
G01*
X95164082Y-118363026D02*
G75*
G02X95799082Y-117728026I635000J0D01*
G01*
X111748969Y-117728026D02*
G75*
G02X112332926Y-118113589I0J-635000D01*
G01*
X112332926Y-136342463D02*
G75*
G02X111748969Y-136728026I-583957J249437D01*
G01*
X114186159Y-127970031D02*
G75*
G02X112332926Y-136342463I-23191062J742005D01*
G01*
X95799082Y-136728026D02*
X111748969Y-136728026D01*
X95164082Y-118363026D02*
X95164082Y-126478026D01*
X111748969Y-117728026D02*
X95799082Y-117728026D01*
X129698026Y-123728026D02*
G75*
G02X127698026Y-125728026I-2000000J0D01*
G01*
X134698026Y-125728026D02*
G75*
G02X132698026Y-123728026I0J2000000D01*
G01*
X132698026Y-130728026D02*
G75*
G02X134698026Y-128728026I2000000J0D01*
G01*
X127698026Y-128728026D02*
G75*
G02X129698026Y-130728026I0J-2000000D01*
G01*
X134698026Y-128728026D02*
X135038685Y-128728026D01*
X132698026Y-123728026D02*
X132698026Y-123387367D01*
X127698026Y-125728026D02*
X127357367Y-125728026D01*
X129698026Y-130728026D02*
X129698026Y-131068685D01*
X121059945Y-141215971D02*
G75*
G02X122819212Y-140569116I10138081J-24857021D01*
G01*
X145185971Y-137366107D02*
G75*
G02X144539116Y-135606840I24857021J10138081D01*
G01*
X141336107Y-113240081D02*
G75*
G02X139576840Y-113886936I-10138081J24857021D01*
G01*
X117210081Y-117089945D02*
G75*
G02X117856936Y-118849212I-24857021J-10138081D01*
G01*
X129698026Y-123387367D02*
X129698026Y-123728026D01*
X132698026Y-131068685D02*
X132698026Y-130728026D01*
X135038685Y-125728026D02*
X134698026Y-125728026D01*
X127357367Y-128728026D02*
X127698026Y-128728026D01*
X117647762Y-139535627D02*
G75*
G02X117210081Y-137366107I1414214J1414214D01*
G01*
X113309998Y-149339998D02*
X112096052Y-148126052D01*
X112096052Y-147228026D02*
X114733560Y-144590518D01*
X113835534Y-143692492D02*
X111198026Y-146330000D01*
X114733560Y-143692492D02*
X114733560Y-143692492D01*
X112096052Y-106330000D02*
X113309998Y-105116054D01*
X111198026Y-108126052D02*
X113835534Y-110763560D01*
X114733560Y-109865534D02*
X112096052Y-107228026D01*
X114733560Y-110763560D02*
X114733560Y-110763560D01*
X109086054Y-145116054D02*
G75*
G02X109089335Y-144214771I449013J449013D01*
G01*
X111198025Y-146330001D02*
G75*
G02X110300000Y-146330000I-449012J449013D01*
G01*
X113835534Y-143692492D02*
G75*
G02X114733560Y-143692492I449013J-449013D01*
G01*
X114733560Y-143692492D02*
G75*
G02X114733560Y-144590518I-449013J-449013D01*
G01*
X112096051Y-148126051D02*
G75*
G02X112096052Y-147228026I449013J449012D01*
G01*
X114211281Y-149336717D02*
G75*
G02X113309998Y-149339998I-452270J445732D01*
G01*
X149086054Y-149339998D02*
G75*
G02X148184771Y-149336717I-449013J449013D01*
G01*
X150300001Y-147228027D02*
G75*
G02X150300000Y-148126052I-449013J-449012D01*
G01*
X147662492Y-144590518D02*
G75*
G02X147662492Y-143692492I449013J449013D01*
G01*
X147662492Y-143692492D02*
G75*
G02X148560518Y-143692492I449013J-449013D01*
G01*
X152096051Y-146330001D02*
G75*
G02X151198026Y-146330000I-449012J449013D01*
G01*
X59309998Y-149339998D02*
X58096052Y-148126052D01*
X58096052Y-147228026D02*
X60733560Y-144590518D01*
X59835534Y-143692492D02*
X57198026Y-146330000D01*
X60733560Y-143692492D02*
X60733560Y-143692492D01*
X56300000Y-146330000D02*
X55086054Y-145116054D01*
M02*
