G04 #@! TF.FileFunction,Soldermask,Top*
%FSLAX46Y46*%
G04 Gerber Fmt 4.6, Leading zero omitted, Abs format (unit mm)*
G04 Created by KiCad (PCBNEW (2015-07-22 BZR 5980)-product) date Tuesday, September 08, 2015 'amt' 09:17:54 am*
%MOMM*%
G01*
G04 APERTURE LIST*
%ADD10C,0.100000*%
%ADD11C,1.500000*%
%ADD12R,1.100000X2.500000*%
%ADD13R,1.727200X2.032000*%
%ADD14O,1.524000X1.778000*%
%ADD15R,1.600200X3.599180*%
%ADD16R,2.032000X2.032000*%
%ADD17O,2.032000X2.032000*%
%ADD18R,1.778000X1.778000*%
%ADD19R,0.889000X0.635000*%
%ADD20R,0.635000X0.889000*%
%ADD21R,0.800100X0.800100*%
%ADD22R,1.500000X2.000000*%
%ADD23O,1.727200X2.032000*%
%ADD24R,1.500000X0.550000*%
%ADD25R,0.550000X1.500000*%
%ADD26R,1.000000X1.000000*%
%ADD27R,0.650000X1.060000*%
%ADD28R,1.100000X1.200000*%
%ADD29R,2.301240X0.500380*%
%ADD30R,2.499360X1.998980*%
%ADD31C,0.899160*%
%ADD32R,0.797560X0.797560*%
%ADD33R,2.000000X8.000000*%
%ADD34R,2.000000X5.000000*%
%ADD35C,12.500000*%
G04 APERTURE END LIST*
D10*
D11*
X123731448Y-150146544D03*
X123731448Y-151896544D03*
D12*
X121731448Y-147646544D03*
X123231448Y-147646544D03*
X124731448Y-147646544D03*
X126231448Y-147646544D03*
X127731448Y-147646544D03*
X129231448Y-147646544D03*
X130731448Y-147646544D03*
X132231448Y-147646544D03*
X133731448Y-147646544D03*
X135231448Y-147646544D03*
X136731448Y-147646544D03*
X138231448Y-147646544D03*
X139731448Y-147646544D03*
D13*
X67533500Y-149062500D03*
D14*
X69533500Y-149062500D03*
X71533500Y-149062500D03*
X73533500Y-149062500D03*
X75533500Y-149062500D03*
X77533500Y-149062500D03*
X79533500Y-149062500D03*
X81533500Y-149062500D03*
X83533500Y-149062500D03*
X85533500Y-149062500D03*
D15*
X81000000Y-113730000D03*
D16*
X73498559Y-114561294D03*
D17*
X76038559Y-114561294D03*
D15*
X77250000Y-140230000D03*
D18*
X63338559Y-129293294D03*
X63338559Y-126753294D03*
X63338559Y-124213294D03*
D19*
X91278559Y-131325294D03*
X91278559Y-129801294D03*
D20*
X87976559Y-136278294D03*
X89500559Y-136278294D03*
D21*
X89007799Y-132788294D03*
X89007799Y-134688294D03*
X91006779Y-133738294D03*
D19*
X106841184Y-124900768D03*
X106841184Y-126424768D03*
D22*
X99841184Y-128662768D03*
X99841184Y-135662768D03*
X105341184Y-128662768D03*
X105341184Y-135662768D03*
D13*
X70958559Y-136278294D03*
D23*
X73498559Y-136278294D03*
X76038559Y-136278294D03*
X78578559Y-136278294D03*
X81118559Y-136278294D03*
X83658559Y-136278294D03*
D13*
X68418559Y-132468294D03*
D23*
X70958559Y-132468294D03*
X73498559Y-132468294D03*
X76038559Y-132468294D03*
D24*
X71608559Y-118943294D03*
X71608559Y-119743294D03*
X71608559Y-120543294D03*
X71608559Y-121343294D03*
X71608559Y-122143294D03*
X71608559Y-122943294D03*
X71608559Y-123743294D03*
X71608559Y-124543294D03*
X71608559Y-125343294D03*
X71608559Y-126143294D03*
X71608559Y-126943294D03*
D25*
X73308559Y-128643294D03*
X74108559Y-128643294D03*
X74908559Y-128643294D03*
X75708559Y-128643294D03*
X76508559Y-128643294D03*
X77308559Y-128643294D03*
X78108559Y-128643294D03*
X78908559Y-128643294D03*
X79708559Y-128643294D03*
X80508559Y-128643294D03*
X81308559Y-128643294D03*
D24*
X83008559Y-126943294D03*
X83008559Y-126143294D03*
X83008559Y-125343294D03*
X83008559Y-124543294D03*
X83008559Y-123743294D03*
X83008559Y-122943294D03*
X83008559Y-122143294D03*
X83008559Y-121343294D03*
X83008559Y-120543294D03*
X83008559Y-119743294D03*
X83008559Y-118943294D03*
D25*
X81308559Y-117243294D03*
X80508559Y-117243294D03*
X79708559Y-117243294D03*
X78908559Y-117243294D03*
X78108559Y-117243294D03*
X77308559Y-117243294D03*
X76508559Y-117243294D03*
X75708559Y-117243294D03*
X74908559Y-117243294D03*
X74108559Y-117243294D03*
X73308559Y-117243294D03*
D19*
X91278559Y-123959294D03*
X91278559Y-125483294D03*
D20*
X87976559Y-129547294D03*
X89500559Y-129547294D03*
X71085559Y-115323294D03*
X69561559Y-115323294D03*
X67656559Y-119768294D03*
X69180559Y-119768294D03*
X67656559Y-129928294D03*
X69180559Y-129928294D03*
D19*
X83023559Y-115831294D03*
X83023559Y-117355294D03*
D20*
X83531559Y-128658294D03*
X85055559Y-128658294D03*
X69561559Y-117228294D03*
X71085559Y-117228294D03*
D26*
X64588559Y-117228294D03*
X62088559Y-117228294D03*
X87388559Y-114443294D03*
X87388559Y-111943294D03*
X87488559Y-138183294D03*
X89988559Y-138183294D03*
X66513559Y-138203294D03*
X66513559Y-140703294D03*
D20*
X89500559Y-123959294D03*
X87976559Y-123959294D03*
D21*
X68738559Y-113784054D03*
X70638559Y-113784054D03*
X69688559Y-111785074D03*
X90912799Y-116913294D03*
X90912799Y-118813294D03*
X92911779Y-117863294D03*
X87783559Y-140357534D03*
X85883559Y-140357534D03*
X86833559Y-142356514D03*
X63704319Y-136593294D03*
X63704319Y-134693294D03*
X61705339Y-135643294D03*
D19*
X67783559Y-117355294D03*
X67783559Y-115831294D03*
D20*
X87976559Y-119768294D03*
X89500559Y-119768294D03*
D19*
X67148559Y-114180294D03*
X67148559Y-112656294D03*
D20*
X87976559Y-117863294D03*
X89500559Y-117863294D03*
D19*
X86198559Y-134881294D03*
X86198559Y-136405294D03*
X67148559Y-134881294D03*
X67148559Y-136405294D03*
X84293559Y-140215294D03*
X84293559Y-138691294D03*
X65243559Y-134881294D03*
X65243559Y-136405294D03*
X108341184Y-124900768D03*
X108341184Y-126424768D03*
D20*
X69180559Y-128023294D03*
X67656559Y-128023294D03*
X86325559Y-123578294D03*
X84801559Y-123578294D03*
X84801559Y-119768294D03*
X86325559Y-119768294D03*
X84801559Y-121673294D03*
X86325559Y-121673294D03*
D19*
X85563559Y-132595294D03*
X85563559Y-131071294D03*
X69053559Y-139326294D03*
X69053559Y-140850294D03*
X84928559Y-115831294D03*
X84928559Y-117355294D03*
X87468559Y-131071294D03*
X87468559Y-132595294D03*
X70958559Y-139326294D03*
X70958559Y-140850294D03*
D27*
X89700000Y-125630000D03*
X88750000Y-125630000D03*
X87800000Y-125630000D03*
X87800000Y-127830000D03*
X89700000Y-127830000D03*
D28*
X81818559Y-130983294D03*
X81818559Y-132683294D03*
X80418559Y-132683294D03*
X80418559Y-130983294D03*
D19*
X69688559Y-122816294D03*
X69688559Y-124340294D03*
D18*
X112340410Y-128662661D03*
X112340410Y-126122661D03*
X112340410Y-123582661D03*
D19*
X78578559Y-131062468D03*
X78578559Y-132586468D03*
X83658559Y-132595294D03*
X83658559Y-131071294D03*
D29*
X102535124Y-121420820D03*
X102535124Y-122220920D03*
X102535124Y-123021020D03*
X102535124Y-123821120D03*
X102535124Y-124621220D03*
D30*
X102436064Y-118570940D03*
X96936964Y-118570940D03*
X102436064Y-127471100D03*
X96936964Y-127471100D03*
D31*
X99936704Y-120821380D03*
X99936704Y-125220660D03*
D19*
X86833559Y-115831294D03*
X86833559Y-117355294D03*
D32*
X85690559Y-114053294D03*
X84191959Y-114053294D03*
D10*
G36*
X63174874Y-113886980D02*
X61760660Y-115301194D01*
X56103806Y-109644340D01*
X57518020Y-108230126D01*
X63174874Y-113886980D01*
X63174874Y-113886980D01*
G37*
G36*
X65296194Y-111765660D02*
X63881980Y-113179874D01*
X58225126Y-107523020D01*
X59639340Y-106108806D01*
X65296194Y-111765660D01*
X65296194Y-111765660D01*
G37*
G36*
X90468020Y-113154874D02*
X89053806Y-111740660D01*
X94710660Y-106083806D01*
X96124874Y-107498020D01*
X90468020Y-113154874D01*
X90468020Y-113154874D01*
G37*
G36*
X92589340Y-115276194D02*
X91175126Y-113861980D01*
X96831980Y-108205126D01*
X98246194Y-109619340D01*
X92589340Y-115276194D01*
X92589340Y-115276194D01*
G37*
G36*
X91150126Y-140423020D02*
X92564340Y-139008806D01*
X98221194Y-144665660D01*
X96806980Y-146079874D01*
X91150126Y-140423020D01*
X91150126Y-140423020D01*
G37*
G36*
X89028806Y-142544340D02*
X90443020Y-141130126D01*
X96099874Y-146786980D01*
X94685660Y-148201194D01*
X89028806Y-142544340D01*
X89028806Y-142544340D01*
G37*
G36*
X63806980Y-141180126D02*
X65221194Y-142594340D01*
X59564340Y-148251194D01*
X58150126Y-146836980D01*
X63806980Y-141180126D01*
X63806980Y-141180126D01*
G37*
G36*
X61685660Y-139058806D02*
X63099874Y-140473020D01*
X57443020Y-146129874D01*
X56028806Y-144715660D01*
X61685660Y-139058806D01*
X61685660Y-139058806D01*
G37*
D33*
X70750000Y-61480000D03*
X90400000Y-61430000D03*
X110000000Y-61530000D03*
X129600000Y-61430000D03*
X70750000Y-78730000D03*
X90400000Y-78630000D03*
X109900000Y-78630000D03*
X129500000Y-78630000D03*
X149200000Y-61630000D03*
X149100000Y-78530000D03*
D34*
X143050000Y-88230000D03*
X140050000Y-88230000D03*
X123450000Y-88280000D03*
X120450000Y-88280000D03*
X103850000Y-88305000D03*
X100850000Y-88305000D03*
X84250000Y-88280000D03*
X81250000Y-88280000D03*
X64675000Y-88305000D03*
X61675000Y-88305000D03*
D33*
X56700000Y-61430000D03*
X76400000Y-61530000D03*
X95900000Y-61430000D03*
X115500000Y-61530000D03*
X135100000Y-61430000D03*
D35*
X122000000Y-97830000D03*
X102300000Y-97830000D03*
X82775000Y-97805000D03*
X63175000Y-97805000D03*
X141600000Y-97830000D03*
D33*
X56000000Y-82230000D03*
X75750000Y-82230000D03*
X95250000Y-82230000D03*
X114750000Y-82230000D03*
X134500000Y-82230000D03*
D32*
X66300000Y-89880700D03*
X66300000Y-91379300D03*
X86000000Y-89880700D03*
X86000000Y-91379300D03*
X105600000Y-89980700D03*
X105600000Y-91479300D03*
X125300000Y-89980700D03*
X125300000Y-91479300D03*
X144900000Y-89980700D03*
X144900000Y-91479300D03*
D19*
X59900000Y-89868000D03*
X59900000Y-91392000D03*
X79500000Y-89968000D03*
X79500000Y-91492000D03*
X99000000Y-90068000D03*
X99000000Y-91592000D03*
X118700000Y-90068000D03*
X118700000Y-91592000D03*
X138300000Y-90068000D03*
X138300000Y-91592000D03*
D13*
X73883500Y-153507500D03*
D23*
X76423500Y-153507500D03*
X78963500Y-153507500D03*
X81503500Y-153507500D03*
X84043500Y-153507500D03*
X86583500Y-153507500D03*
D13*
X126481448Y-150896544D03*
D23*
X129021448Y-150896544D03*
X131561448Y-150896544D03*
X134101448Y-150896544D03*
X136641448Y-150896544D03*
X139181448Y-150896544D03*
M02*
