G04 #@! TF.FileFunction,Legend,Bot*
%FSLAX46Y46*%
G04 Gerber Fmt 4.6, Leading zero omitted, Abs format (unit mm)*
G04 Created by KiCad (PCBNEW (2015-07-22 BZR 5980)-product) date Tuesday, September 08, 2015 'amt' 09:17:54 am*
%MOMM*%
G01*
G04 APERTURE LIST*
%ADD10C,0.100000*%
%ADD11C,0.300000*%
%ADD12C,0.250000*%
%ADD13C,0.450000*%
%ADD14C,0.150000*%
G04 APERTURE END LIST*
D10*
D11*
X138992857Y-127944286D02*
X139064286Y-128039524D01*
X139278572Y-128134762D01*
X139421429Y-128134762D01*
X139635714Y-128039524D01*
X139778572Y-127849048D01*
X139850000Y-127658571D01*
X139921429Y-127277619D01*
X139921429Y-126991905D01*
X139850000Y-126610952D01*
X139778572Y-126420476D01*
X139635714Y-126230000D01*
X139421429Y-126134762D01*
X139278572Y-126134762D01*
X139064286Y-126230000D01*
X138992857Y-126325238D01*
X138350000Y-128134762D02*
X138350000Y-126134762D01*
X137707143Y-128134762D02*
X137707143Y-127087143D01*
X137778572Y-126896667D01*
X137921429Y-126801429D01*
X138135714Y-126801429D01*
X138278572Y-126896667D01*
X138350000Y-126991905D01*
X136992857Y-128134762D02*
X136992857Y-126801429D01*
X136992857Y-126134762D02*
X137064286Y-126230000D01*
X136992857Y-126325238D01*
X136921429Y-126230000D01*
X136992857Y-126134762D01*
X136992857Y-126325238D01*
X136278571Y-128134762D02*
X136278571Y-126801429D01*
X136278571Y-126134762D02*
X136350000Y-126230000D01*
X136278571Y-126325238D01*
X136207143Y-126230000D01*
X136278571Y-126134762D01*
X136278571Y-126325238D01*
X135564285Y-126801429D02*
X135564285Y-128134762D01*
X135564285Y-126991905D02*
X135492857Y-126896667D01*
X135349999Y-126801429D01*
X135135714Y-126801429D01*
X134992857Y-126896667D01*
X134921428Y-127087143D01*
X134921428Y-128134762D01*
X133564285Y-128134762D02*
X133564285Y-126134762D01*
X133564285Y-128039524D02*
X133707142Y-128134762D01*
X133992856Y-128134762D01*
X134135714Y-128039524D01*
X134207142Y-127944286D01*
X134278571Y-127753810D01*
X134278571Y-127182381D01*
X134207142Y-126991905D01*
X134135714Y-126896667D01*
X133992856Y-126801429D01*
X133707142Y-126801429D01*
X133564285Y-126896667D01*
X132849999Y-128134762D02*
X132849999Y-126801429D01*
X132849999Y-126134762D02*
X132921428Y-126230000D01*
X132849999Y-126325238D01*
X132778571Y-126230000D01*
X132849999Y-126134762D01*
X132849999Y-126325238D01*
X132135713Y-128134762D02*
X132135713Y-126801429D01*
X132135713Y-126134762D02*
X132207142Y-126230000D01*
X132135713Y-126325238D01*
X132064285Y-126230000D01*
X132135713Y-126134762D01*
X132135713Y-126325238D01*
X129421427Y-128134762D02*
X129921427Y-127182381D01*
X130278570Y-128134762D02*
X130278570Y-126134762D01*
X129707142Y-126134762D01*
X129564284Y-126230000D01*
X129492856Y-126325238D01*
X129421427Y-126515714D01*
X129421427Y-126801429D01*
X129492856Y-126991905D01*
X129564284Y-127087143D01*
X129707142Y-127182381D01*
X130278570Y-127182381D01*
X128207142Y-128039524D02*
X128349999Y-128134762D01*
X128635713Y-128134762D01*
X128778570Y-128039524D01*
X128849999Y-127849048D01*
X128849999Y-127087143D01*
X128778570Y-126896667D01*
X128635713Y-126801429D01*
X128349999Y-126801429D01*
X128207142Y-126896667D01*
X128135713Y-127087143D01*
X128135713Y-127277619D01*
X128849999Y-127468095D01*
X127635713Y-126801429D02*
X127278570Y-128134762D01*
X126921428Y-126801429D01*
X125278571Y-126325238D02*
X125207142Y-126230000D01*
X125064285Y-126134762D01*
X124707142Y-126134762D01*
X124564285Y-126230000D01*
X124492856Y-126325238D01*
X124421428Y-126515714D01*
X124421428Y-126706190D01*
X124492856Y-126991905D01*
X125349999Y-128134762D01*
X124421428Y-128134762D01*
X123778571Y-127944286D02*
X123707143Y-128039524D01*
X123778571Y-128134762D01*
X123850000Y-128039524D01*
X123778571Y-127944286D01*
X123778571Y-128134762D01*
X122778571Y-126134762D02*
X122635714Y-126134762D01*
X122492857Y-126230000D01*
X122421428Y-126325238D01*
X122349999Y-126515714D01*
X122278571Y-126896667D01*
X122278571Y-127372857D01*
X122349999Y-127753810D01*
X122421428Y-127944286D01*
X122492857Y-128039524D01*
X122635714Y-128134762D01*
X122778571Y-128134762D01*
X122921428Y-128039524D01*
X122992857Y-127944286D01*
X123064285Y-127753810D01*
X123135714Y-127372857D01*
X123135714Y-126896667D01*
X123064285Y-126515714D01*
X122992857Y-126325238D01*
X122921428Y-126230000D01*
X122778571Y-126134762D01*
D12*
X135433334Y-147133571D02*
X135290477Y-147181190D01*
X135242858Y-147228810D01*
X135195239Y-147324048D01*
X135195239Y-147466905D01*
X135242858Y-147562143D01*
X135290477Y-147609762D01*
X135385715Y-147657381D01*
X135766668Y-147657381D01*
X135766668Y-146657381D01*
X135433334Y-146657381D01*
X135338096Y-146705000D01*
X135290477Y-146752619D01*
X135242858Y-146847857D01*
X135242858Y-146943095D01*
X135290477Y-147038333D01*
X135338096Y-147085952D01*
X135433334Y-147133571D01*
X135766668Y-147133571D01*
X134623811Y-147657381D02*
X134719049Y-147609762D01*
X134766668Y-147514524D01*
X134766668Y-146657381D01*
X133814286Y-146990714D02*
X133814286Y-147657381D01*
X134242858Y-146990714D02*
X134242858Y-147514524D01*
X134195239Y-147609762D01*
X134100001Y-147657381D01*
X133957143Y-147657381D01*
X133861905Y-147609762D01*
X133814286Y-147562143D01*
X132957143Y-147609762D02*
X133052381Y-147657381D01*
X133242858Y-147657381D01*
X133338096Y-147609762D01*
X133385715Y-147514524D01*
X133385715Y-147133571D01*
X133338096Y-147038333D01*
X133242858Y-146990714D01*
X133052381Y-146990714D01*
X132957143Y-147038333D01*
X132909524Y-147133571D01*
X132909524Y-147228810D01*
X133385715Y-147324048D01*
X132623810Y-146990714D02*
X132242858Y-146990714D01*
X132480953Y-146657381D02*
X132480953Y-147514524D01*
X132433334Y-147609762D01*
X132338096Y-147657381D01*
X132242858Y-147657381D01*
X131766667Y-147657381D02*
X131861905Y-147609762D01*
X131909524Y-147562143D01*
X131957143Y-147466905D01*
X131957143Y-147181190D01*
X131909524Y-147085952D01*
X131861905Y-147038333D01*
X131766667Y-146990714D01*
X131623809Y-146990714D01*
X131528571Y-147038333D01*
X131480952Y-147085952D01*
X131433333Y-147181190D01*
X131433333Y-147466905D01*
X131480952Y-147562143D01*
X131528571Y-147609762D01*
X131623809Y-147657381D01*
X131766667Y-147657381D01*
X130861905Y-147657381D02*
X130957143Y-147609762D01*
X131004762Y-147562143D01*
X131052381Y-147466905D01*
X131052381Y-147181190D01*
X131004762Y-147085952D01*
X130957143Y-147038333D01*
X130861905Y-146990714D01*
X130719047Y-146990714D01*
X130623809Y-147038333D01*
X130576190Y-147085952D01*
X130528571Y-147181190D01*
X130528571Y-147466905D01*
X130576190Y-147562143D01*
X130623809Y-147609762D01*
X130719047Y-147657381D01*
X130861905Y-147657381D01*
X130242857Y-146990714D02*
X129861905Y-146990714D01*
X130100000Y-146657381D02*
X130100000Y-147514524D01*
X130052381Y-147609762D01*
X129957143Y-147657381D01*
X129861905Y-147657381D01*
X129528571Y-147657381D02*
X129528571Y-146657381D01*
X129099999Y-147657381D02*
X129099999Y-147133571D01*
X129147618Y-147038333D01*
X129242856Y-146990714D01*
X129385714Y-146990714D01*
X129480952Y-147038333D01*
X129528571Y-147085952D01*
X127147618Y-146609762D02*
X128004761Y-147895476D01*
X125719046Y-147133571D02*
X126052380Y-147133571D01*
X126052380Y-147657381D02*
X126052380Y-146657381D01*
X125576189Y-146657381D01*
X125338094Y-146657381D02*
X124766665Y-146657381D01*
X125052380Y-147657381D02*
X125052380Y-146657381D01*
X124433332Y-147657381D02*
X124433332Y-146657381D01*
X124195237Y-146657381D01*
X124052379Y-146705000D01*
X123957141Y-146800238D01*
X123909522Y-146895476D01*
X123861903Y-147085952D01*
X123861903Y-147228810D01*
X123909522Y-147419286D01*
X123957141Y-147514524D01*
X124052379Y-147609762D01*
X124195237Y-147657381D01*
X124433332Y-147657381D01*
X123433332Y-147657381D02*
X123433332Y-146657381D01*
X132242858Y-149021667D02*
X131766667Y-149021667D01*
X132338096Y-149307381D02*
X132004763Y-148307381D01*
X131671429Y-149307381D01*
X130909524Y-149307381D02*
X130909524Y-148307381D01*
X130909524Y-149259762D02*
X131004762Y-149307381D01*
X131195239Y-149307381D01*
X131290477Y-149259762D01*
X131338096Y-149212143D01*
X131385715Y-149116905D01*
X131385715Y-148831190D01*
X131338096Y-148735952D01*
X131290477Y-148688333D01*
X131195239Y-148640714D01*
X131004762Y-148640714D01*
X130909524Y-148688333D01*
X130004762Y-149307381D02*
X130004762Y-148783571D01*
X130052381Y-148688333D01*
X130147619Y-148640714D01*
X130338096Y-148640714D01*
X130433334Y-148688333D01*
X130004762Y-149259762D02*
X130100000Y-149307381D01*
X130338096Y-149307381D01*
X130433334Y-149259762D01*
X130480953Y-149164524D01*
X130480953Y-149069286D01*
X130433334Y-148974048D01*
X130338096Y-148926429D01*
X130100000Y-148926429D01*
X130004762Y-148878810D01*
X129528572Y-148640714D02*
X129528572Y-149640714D01*
X129528572Y-148688333D02*
X129433334Y-148640714D01*
X129242857Y-148640714D01*
X129147619Y-148688333D01*
X129100000Y-148735952D01*
X129052381Y-148831190D01*
X129052381Y-149116905D01*
X129100000Y-149212143D01*
X129147619Y-149259762D01*
X129242857Y-149307381D01*
X129433334Y-149307381D01*
X129528572Y-149259762D01*
X128766667Y-148640714D02*
X128385715Y-148640714D01*
X128623810Y-148307381D02*
X128623810Y-149164524D01*
X128576191Y-149259762D01*
X128480953Y-149307381D01*
X128385715Y-149307381D01*
X127909524Y-149307381D02*
X128004762Y-149259762D01*
X128052381Y-149212143D01*
X128100000Y-149116905D01*
X128100000Y-148831190D01*
X128052381Y-148735952D01*
X128004762Y-148688333D01*
X127909524Y-148640714D01*
X127766666Y-148640714D01*
X127671428Y-148688333D01*
X127623809Y-148735952D01*
X127576190Y-148831190D01*
X127576190Y-149116905D01*
X127623809Y-149212143D01*
X127671428Y-149259762D01*
X127766666Y-149307381D01*
X127909524Y-149307381D01*
X127147619Y-149307381D02*
X127147619Y-148640714D01*
X127147619Y-148831190D02*
X127100000Y-148735952D01*
X127052381Y-148688333D01*
X126957143Y-148640714D01*
X126861904Y-148640714D01*
D13*
X102369696Y-124891232D02*
X103826839Y-124891232D01*
X103998267Y-124976947D01*
X104083981Y-125062661D01*
X104169696Y-125234090D01*
X104169696Y-125576947D01*
X104083981Y-125748375D01*
X103998267Y-125834090D01*
X103826839Y-125919804D01*
X102369696Y-125919804D01*
X104083981Y-126691232D02*
X104169696Y-126948375D01*
X104169696Y-127376946D01*
X104083981Y-127548375D01*
X103998267Y-127634089D01*
X103826839Y-127719804D01*
X103655410Y-127719804D01*
X103483981Y-127634089D01*
X103398267Y-127548375D01*
X103312553Y-127376946D01*
X103226839Y-127034089D01*
X103141124Y-126862661D01*
X103055410Y-126776946D01*
X102883981Y-126691232D01*
X102712553Y-126691232D01*
X102541124Y-126776946D01*
X102455410Y-126862661D01*
X102369696Y-127034089D01*
X102369696Y-127462661D01*
X102455410Y-127719804D01*
X103226839Y-129091232D02*
X103312553Y-129348375D01*
X103398267Y-129434090D01*
X103569696Y-129519804D01*
X103826839Y-129519804D01*
X103998267Y-129434090D01*
X104083981Y-129348375D01*
X104169696Y-129176947D01*
X104169696Y-128491232D01*
X102369696Y-128491232D01*
X102369696Y-129091232D01*
X102455410Y-129262661D01*
X102541124Y-129348375D01*
X102712553Y-129434090D01*
X102883981Y-129434090D01*
X103055410Y-129348375D01*
X103141124Y-129262661D01*
X103226839Y-129091232D01*
X103226839Y-128491232D01*
X107139696Y-118505518D02*
X105339696Y-118505518D01*
X105339696Y-119191233D01*
X105425410Y-119362661D01*
X105511124Y-119448376D01*
X105682553Y-119534090D01*
X105939696Y-119534090D01*
X106111124Y-119448376D01*
X106196839Y-119362661D01*
X106282553Y-119191233D01*
X106282553Y-118505518D01*
X107139696Y-121334090D02*
X106282553Y-120734090D01*
X107139696Y-120305518D02*
X105339696Y-120305518D01*
X105339696Y-120991233D01*
X105425410Y-121162661D01*
X105511124Y-121248376D01*
X105682553Y-121334090D01*
X105939696Y-121334090D01*
X106111124Y-121248376D01*
X106196839Y-121162661D01*
X106282553Y-120991233D01*
X106282553Y-120305518D01*
X105339696Y-122448376D02*
X105339696Y-122791233D01*
X105425410Y-122962661D01*
X105596839Y-123134090D01*
X105939696Y-123219804D01*
X106539696Y-123219804D01*
X106882553Y-123134090D01*
X107053981Y-122962661D01*
X107139696Y-122791233D01*
X107139696Y-122448376D01*
X107053981Y-122276947D01*
X106882553Y-122105518D01*
X106539696Y-122019804D01*
X105939696Y-122019804D01*
X105596839Y-122105518D01*
X105425410Y-122276947D01*
X105339696Y-122448376D01*
X105425410Y-124934090D02*
X105339696Y-124762661D01*
X105339696Y-124505518D01*
X105425410Y-124248375D01*
X105596839Y-124076947D01*
X105768267Y-123991232D01*
X106111124Y-123905518D01*
X106368267Y-123905518D01*
X106711124Y-123991232D01*
X106882553Y-124076947D01*
X107053981Y-124248375D01*
X107139696Y-124505518D01*
X107139696Y-124676947D01*
X107053981Y-124934090D01*
X106968267Y-125019804D01*
X106368267Y-125019804D01*
X106368267Y-124676947D01*
X107139696Y-126819804D02*
X106282553Y-126219804D01*
X107139696Y-125791232D02*
X105339696Y-125791232D01*
X105339696Y-126476947D01*
X105425410Y-126648375D01*
X105511124Y-126734090D01*
X105682553Y-126819804D01*
X105939696Y-126819804D01*
X106111124Y-126734090D01*
X106196839Y-126648375D01*
X106282553Y-126476947D01*
X106282553Y-125791232D01*
X106625410Y-127505518D02*
X106625410Y-128362661D01*
X107139696Y-127334090D02*
X105339696Y-127934090D01*
X107139696Y-128534090D01*
X107139696Y-129134089D02*
X105339696Y-129134089D01*
X106625410Y-129734089D01*
X105339696Y-130334089D01*
X107139696Y-130334089D01*
X107139696Y-131191232D02*
X105339696Y-131191232D01*
X106625410Y-131791232D01*
X105339696Y-132391232D01*
X107139696Y-132391232D01*
X106196839Y-133248375D02*
X106196839Y-133848375D01*
X107139696Y-134105518D02*
X107139696Y-133248375D01*
X105339696Y-133248375D01*
X105339696Y-134105518D01*
X107139696Y-135905518D02*
X106282553Y-135305518D01*
X107139696Y-134876946D02*
X105339696Y-134876946D01*
X105339696Y-135562661D01*
X105425410Y-135734089D01*
X105511124Y-135819804D01*
X105682553Y-135905518D01*
X105939696Y-135905518D01*
X106111124Y-135819804D01*
X106196839Y-135734089D01*
X106282553Y-135562661D01*
X106282553Y-134876946D01*
D14*
X64495000Y-69260000D02*
X64495000Y-68752000D01*
X64495000Y-68752000D02*
X63987000Y-68752000D01*
X63987000Y-68752000D02*
X63987000Y-69260000D01*
X63987000Y-69260000D02*
X64495000Y-69260000D01*
X64495000Y-70022000D02*
X64495000Y-69514000D01*
X64495000Y-69514000D02*
X63987000Y-69514000D01*
X63987000Y-69514000D02*
X63987000Y-70022000D01*
X63987000Y-70022000D02*
X64495000Y-70022000D01*
X64495000Y-70784000D02*
X64495000Y-70276000D01*
X64495000Y-70276000D02*
X63987000Y-70276000D01*
X63987000Y-70276000D02*
X63987000Y-70784000D01*
X63987000Y-70784000D02*
X64495000Y-70784000D01*
X64495000Y-71546000D02*
X64495000Y-71038000D01*
X64495000Y-71038000D02*
X63987000Y-71038000D01*
X63987000Y-71038000D02*
X63987000Y-71546000D01*
X63987000Y-71546000D02*
X64495000Y-71546000D01*
X64495000Y-72308000D02*
X64495000Y-71800000D01*
X64495000Y-71800000D02*
X63987000Y-71800000D01*
X63987000Y-71800000D02*
X63987000Y-72308000D01*
X63987000Y-72308000D02*
X64495000Y-72308000D01*
X65130000Y-72943000D02*
X65130000Y-72435000D01*
X65130000Y-72435000D02*
X64622000Y-72435000D01*
X64622000Y-72435000D02*
X64622000Y-72943000D01*
X64622000Y-72943000D02*
X65130000Y-72943000D01*
X65892000Y-72435000D02*
X65384000Y-72435000D01*
X65384000Y-72435000D02*
X65384000Y-72943000D01*
X65384000Y-72943000D02*
X65892000Y-72943000D01*
X65892000Y-72943000D02*
X65892000Y-72435000D01*
X66654000Y-72435000D02*
X66146000Y-72435000D01*
X66146000Y-72435000D02*
X66146000Y-72943000D01*
X66146000Y-72943000D02*
X66654000Y-72943000D01*
X66654000Y-72943000D02*
X66654000Y-72435000D01*
X67289000Y-71800000D02*
X66781000Y-71800000D01*
X66781000Y-71800000D02*
X66781000Y-72308000D01*
X66781000Y-72308000D02*
X67289000Y-72308000D01*
X67289000Y-72308000D02*
X67289000Y-71800000D01*
X66781000Y-71038000D02*
X67289000Y-71038000D01*
X67289000Y-71038000D02*
X67289000Y-71546000D01*
X67289000Y-71546000D02*
X66781000Y-71546000D01*
X66781000Y-71546000D02*
X66781000Y-71038000D01*
X67289000Y-70276000D02*
X66781000Y-70276000D01*
X66781000Y-70276000D02*
X66781000Y-70784000D01*
X66781000Y-70784000D02*
X67289000Y-70784000D01*
X67289000Y-70784000D02*
X67289000Y-70276000D01*
X66781000Y-69514000D02*
X67289000Y-69514000D01*
X67289000Y-69514000D02*
X67289000Y-70022000D01*
X67289000Y-70022000D02*
X66781000Y-70022000D01*
X66781000Y-70022000D02*
X66781000Y-69514000D01*
X65384000Y-71038000D02*
X65892000Y-71038000D01*
X65892000Y-71038000D02*
X65892000Y-71546000D01*
X65892000Y-71546000D02*
X65384000Y-71546000D01*
X65384000Y-71546000D02*
X65384000Y-71038000D01*
X65384000Y-70276000D02*
X65384000Y-70784000D01*
X65384000Y-70784000D02*
X65892000Y-70784000D01*
X65384000Y-70276000D02*
X65892000Y-70276000D01*
X65892000Y-70276000D02*
X65892000Y-70784000D01*
X65892000Y-69514000D02*
X65384000Y-69514000D01*
X65384000Y-69514000D02*
X65384000Y-70022000D01*
X65384000Y-70022000D02*
X65892000Y-70022000D01*
X65892000Y-70022000D02*
X65892000Y-69514000D01*
X65892000Y-68752000D02*
X65384000Y-68752000D01*
X65384000Y-68752000D02*
X65384000Y-69260000D01*
X65384000Y-69260000D02*
X65892000Y-69260000D01*
X65892000Y-69260000D02*
X65892000Y-68752000D01*
X66527000Y-68625000D02*
X66527000Y-68117000D01*
X66527000Y-68117000D02*
X66019000Y-68117000D01*
X66019000Y-68117000D02*
X66019000Y-68625000D01*
X66019000Y-68625000D02*
X66527000Y-68625000D01*
X67289000Y-68625000D02*
X67289000Y-68117000D01*
X67289000Y-68117000D02*
X66781000Y-68117000D01*
X66781000Y-68117000D02*
X66781000Y-68625000D01*
X66781000Y-68625000D02*
X67289000Y-68625000D01*
X68051000Y-68625000D02*
X68051000Y-68117000D01*
X68051000Y-68117000D02*
X67543000Y-68117000D01*
X67543000Y-68117000D02*
X67543000Y-68625000D01*
X67543000Y-68625000D02*
X68051000Y-68625000D01*
X68686000Y-69260000D02*
X68178000Y-69260000D01*
X68178000Y-69260000D02*
X68178000Y-68752000D01*
X68178000Y-68752000D02*
X68686000Y-68752000D01*
X68686000Y-68752000D02*
X68686000Y-69260000D01*
X68686000Y-70022000D02*
X68178000Y-70022000D01*
X68178000Y-70022000D02*
X68178000Y-69514000D01*
X68178000Y-69514000D02*
X68686000Y-69514000D01*
X68686000Y-69514000D02*
X68686000Y-70022000D01*
X68686000Y-70784000D02*
X68178000Y-70784000D01*
X68178000Y-70784000D02*
X68178000Y-70276000D01*
X68178000Y-70276000D02*
X68686000Y-70276000D01*
X68686000Y-70276000D02*
X68686000Y-70784000D01*
X68686000Y-71546000D02*
X68178000Y-71546000D01*
X68178000Y-71546000D02*
X68178000Y-71038000D01*
X68178000Y-71038000D02*
X68686000Y-71038000D01*
X68686000Y-71038000D02*
X68686000Y-71546000D01*
X68686000Y-72308000D02*
X68178000Y-72308000D01*
X68178000Y-72308000D02*
X68178000Y-71800000D01*
X68178000Y-71800000D02*
X68686000Y-71800000D01*
X68686000Y-71800000D02*
X68686000Y-72308000D01*
X83995000Y-69060000D02*
X83995000Y-68552000D01*
X83995000Y-68552000D02*
X83487000Y-68552000D01*
X83487000Y-68552000D02*
X83487000Y-69060000D01*
X83487000Y-69060000D02*
X83995000Y-69060000D01*
X83995000Y-69822000D02*
X83995000Y-69314000D01*
X83995000Y-69314000D02*
X83487000Y-69314000D01*
X83487000Y-69314000D02*
X83487000Y-69822000D01*
X83487000Y-69822000D02*
X83995000Y-69822000D01*
X83995000Y-70584000D02*
X83995000Y-70076000D01*
X83995000Y-70076000D02*
X83487000Y-70076000D01*
X83487000Y-70076000D02*
X83487000Y-70584000D01*
X83487000Y-70584000D02*
X83995000Y-70584000D01*
X83995000Y-71346000D02*
X83995000Y-70838000D01*
X83995000Y-70838000D02*
X83487000Y-70838000D01*
X83487000Y-70838000D02*
X83487000Y-71346000D01*
X83487000Y-71346000D02*
X83995000Y-71346000D01*
X83995000Y-72108000D02*
X83995000Y-71600000D01*
X83995000Y-71600000D02*
X83487000Y-71600000D01*
X83487000Y-71600000D02*
X83487000Y-72108000D01*
X83487000Y-72108000D02*
X83995000Y-72108000D01*
X84630000Y-72743000D02*
X84630000Y-72235000D01*
X84630000Y-72235000D02*
X84122000Y-72235000D01*
X84122000Y-72235000D02*
X84122000Y-72743000D01*
X84122000Y-72743000D02*
X84630000Y-72743000D01*
X85392000Y-72235000D02*
X84884000Y-72235000D01*
X84884000Y-72235000D02*
X84884000Y-72743000D01*
X84884000Y-72743000D02*
X85392000Y-72743000D01*
X85392000Y-72743000D02*
X85392000Y-72235000D01*
X86154000Y-72235000D02*
X85646000Y-72235000D01*
X85646000Y-72235000D02*
X85646000Y-72743000D01*
X85646000Y-72743000D02*
X86154000Y-72743000D01*
X86154000Y-72743000D02*
X86154000Y-72235000D01*
X86789000Y-71600000D02*
X86281000Y-71600000D01*
X86281000Y-71600000D02*
X86281000Y-72108000D01*
X86281000Y-72108000D02*
X86789000Y-72108000D01*
X86789000Y-72108000D02*
X86789000Y-71600000D01*
X86281000Y-70838000D02*
X86789000Y-70838000D01*
X86789000Y-70838000D02*
X86789000Y-71346000D01*
X86789000Y-71346000D02*
X86281000Y-71346000D01*
X86281000Y-71346000D02*
X86281000Y-70838000D01*
X86789000Y-70076000D02*
X86281000Y-70076000D01*
X86281000Y-70076000D02*
X86281000Y-70584000D01*
X86281000Y-70584000D02*
X86789000Y-70584000D01*
X86789000Y-70584000D02*
X86789000Y-70076000D01*
X86281000Y-69314000D02*
X86789000Y-69314000D01*
X86789000Y-69314000D02*
X86789000Y-69822000D01*
X86789000Y-69822000D02*
X86281000Y-69822000D01*
X86281000Y-69822000D02*
X86281000Y-69314000D01*
X84884000Y-70838000D02*
X85392000Y-70838000D01*
X85392000Y-70838000D02*
X85392000Y-71346000D01*
X85392000Y-71346000D02*
X84884000Y-71346000D01*
X84884000Y-71346000D02*
X84884000Y-70838000D01*
X84884000Y-70076000D02*
X84884000Y-70584000D01*
X84884000Y-70584000D02*
X85392000Y-70584000D01*
X84884000Y-70076000D02*
X85392000Y-70076000D01*
X85392000Y-70076000D02*
X85392000Y-70584000D01*
X85392000Y-69314000D02*
X84884000Y-69314000D01*
X84884000Y-69314000D02*
X84884000Y-69822000D01*
X84884000Y-69822000D02*
X85392000Y-69822000D01*
X85392000Y-69822000D02*
X85392000Y-69314000D01*
X85392000Y-68552000D02*
X84884000Y-68552000D01*
X84884000Y-68552000D02*
X84884000Y-69060000D01*
X84884000Y-69060000D02*
X85392000Y-69060000D01*
X85392000Y-69060000D02*
X85392000Y-68552000D01*
X86027000Y-68425000D02*
X86027000Y-67917000D01*
X86027000Y-67917000D02*
X85519000Y-67917000D01*
X85519000Y-67917000D02*
X85519000Y-68425000D01*
X85519000Y-68425000D02*
X86027000Y-68425000D01*
X86789000Y-68425000D02*
X86789000Y-67917000D01*
X86789000Y-67917000D02*
X86281000Y-67917000D01*
X86281000Y-67917000D02*
X86281000Y-68425000D01*
X86281000Y-68425000D02*
X86789000Y-68425000D01*
X87551000Y-68425000D02*
X87551000Y-67917000D01*
X87551000Y-67917000D02*
X87043000Y-67917000D01*
X87043000Y-67917000D02*
X87043000Y-68425000D01*
X87043000Y-68425000D02*
X87551000Y-68425000D01*
X88186000Y-69060000D02*
X87678000Y-69060000D01*
X87678000Y-69060000D02*
X87678000Y-68552000D01*
X87678000Y-68552000D02*
X88186000Y-68552000D01*
X88186000Y-68552000D02*
X88186000Y-69060000D01*
X88186000Y-69822000D02*
X87678000Y-69822000D01*
X87678000Y-69822000D02*
X87678000Y-69314000D01*
X87678000Y-69314000D02*
X88186000Y-69314000D01*
X88186000Y-69314000D02*
X88186000Y-69822000D01*
X88186000Y-70584000D02*
X87678000Y-70584000D01*
X87678000Y-70584000D02*
X87678000Y-70076000D01*
X87678000Y-70076000D02*
X88186000Y-70076000D01*
X88186000Y-70076000D02*
X88186000Y-70584000D01*
X88186000Y-71346000D02*
X87678000Y-71346000D01*
X87678000Y-71346000D02*
X87678000Y-70838000D01*
X87678000Y-70838000D02*
X88186000Y-70838000D01*
X88186000Y-70838000D02*
X88186000Y-71346000D01*
X88186000Y-72108000D02*
X87678000Y-72108000D01*
X87678000Y-72108000D02*
X87678000Y-71600000D01*
X87678000Y-71600000D02*
X88186000Y-71600000D01*
X88186000Y-71600000D02*
X88186000Y-72108000D01*
X103595000Y-68760000D02*
X103595000Y-68252000D01*
X103595000Y-68252000D02*
X103087000Y-68252000D01*
X103087000Y-68252000D02*
X103087000Y-68760000D01*
X103087000Y-68760000D02*
X103595000Y-68760000D01*
X103595000Y-69522000D02*
X103595000Y-69014000D01*
X103595000Y-69014000D02*
X103087000Y-69014000D01*
X103087000Y-69014000D02*
X103087000Y-69522000D01*
X103087000Y-69522000D02*
X103595000Y-69522000D01*
X103595000Y-70284000D02*
X103595000Y-69776000D01*
X103595000Y-69776000D02*
X103087000Y-69776000D01*
X103087000Y-69776000D02*
X103087000Y-70284000D01*
X103087000Y-70284000D02*
X103595000Y-70284000D01*
X103595000Y-71046000D02*
X103595000Y-70538000D01*
X103595000Y-70538000D02*
X103087000Y-70538000D01*
X103087000Y-70538000D02*
X103087000Y-71046000D01*
X103087000Y-71046000D02*
X103595000Y-71046000D01*
X103595000Y-71808000D02*
X103595000Y-71300000D01*
X103595000Y-71300000D02*
X103087000Y-71300000D01*
X103087000Y-71300000D02*
X103087000Y-71808000D01*
X103087000Y-71808000D02*
X103595000Y-71808000D01*
X104230000Y-72443000D02*
X104230000Y-71935000D01*
X104230000Y-71935000D02*
X103722000Y-71935000D01*
X103722000Y-71935000D02*
X103722000Y-72443000D01*
X103722000Y-72443000D02*
X104230000Y-72443000D01*
X104992000Y-71935000D02*
X104484000Y-71935000D01*
X104484000Y-71935000D02*
X104484000Y-72443000D01*
X104484000Y-72443000D02*
X104992000Y-72443000D01*
X104992000Y-72443000D02*
X104992000Y-71935000D01*
X105754000Y-71935000D02*
X105246000Y-71935000D01*
X105246000Y-71935000D02*
X105246000Y-72443000D01*
X105246000Y-72443000D02*
X105754000Y-72443000D01*
X105754000Y-72443000D02*
X105754000Y-71935000D01*
X106389000Y-71300000D02*
X105881000Y-71300000D01*
X105881000Y-71300000D02*
X105881000Y-71808000D01*
X105881000Y-71808000D02*
X106389000Y-71808000D01*
X106389000Y-71808000D02*
X106389000Y-71300000D01*
X105881000Y-70538000D02*
X106389000Y-70538000D01*
X106389000Y-70538000D02*
X106389000Y-71046000D01*
X106389000Y-71046000D02*
X105881000Y-71046000D01*
X105881000Y-71046000D02*
X105881000Y-70538000D01*
X106389000Y-69776000D02*
X105881000Y-69776000D01*
X105881000Y-69776000D02*
X105881000Y-70284000D01*
X105881000Y-70284000D02*
X106389000Y-70284000D01*
X106389000Y-70284000D02*
X106389000Y-69776000D01*
X105881000Y-69014000D02*
X106389000Y-69014000D01*
X106389000Y-69014000D02*
X106389000Y-69522000D01*
X106389000Y-69522000D02*
X105881000Y-69522000D01*
X105881000Y-69522000D02*
X105881000Y-69014000D01*
X104484000Y-70538000D02*
X104992000Y-70538000D01*
X104992000Y-70538000D02*
X104992000Y-71046000D01*
X104992000Y-71046000D02*
X104484000Y-71046000D01*
X104484000Y-71046000D02*
X104484000Y-70538000D01*
X104484000Y-69776000D02*
X104484000Y-70284000D01*
X104484000Y-70284000D02*
X104992000Y-70284000D01*
X104484000Y-69776000D02*
X104992000Y-69776000D01*
X104992000Y-69776000D02*
X104992000Y-70284000D01*
X104992000Y-69014000D02*
X104484000Y-69014000D01*
X104484000Y-69014000D02*
X104484000Y-69522000D01*
X104484000Y-69522000D02*
X104992000Y-69522000D01*
X104992000Y-69522000D02*
X104992000Y-69014000D01*
X104992000Y-68252000D02*
X104484000Y-68252000D01*
X104484000Y-68252000D02*
X104484000Y-68760000D01*
X104484000Y-68760000D02*
X104992000Y-68760000D01*
X104992000Y-68760000D02*
X104992000Y-68252000D01*
X105627000Y-68125000D02*
X105627000Y-67617000D01*
X105627000Y-67617000D02*
X105119000Y-67617000D01*
X105119000Y-67617000D02*
X105119000Y-68125000D01*
X105119000Y-68125000D02*
X105627000Y-68125000D01*
X106389000Y-68125000D02*
X106389000Y-67617000D01*
X106389000Y-67617000D02*
X105881000Y-67617000D01*
X105881000Y-67617000D02*
X105881000Y-68125000D01*
X105881000Y-68125000D02*
X106389000Y-68125000D01*
X107151000Y-68125000D02*
X107151000Y-67617000D01*
X107151000Y-67617000D02*
X106643000Y-67617000D01*
X106643000Y-67617000D02*
X106643000Y-68125000D01*
X106643000Y-68125000D02*
X107151000Y-68125000D01*
X107786000Y-68760000D02*
X107278000Y-68760000D01*
X107278000Y-68760000D02*
X107278000Y-68252000D01*
X107278000Y-68252000D02*
X107786000Y-68252000D01*
X107786000Y-68252000D02*
X107786000Y-68760000D01*
X107786000Y-69522000D02*
X107278000Y-69522000D01*
X107278000Y-69522000D02*
X107278000Y-69014000D01*
X107278000Y-69014000D02*
X107786000Y-69014000D01*
X107786000Y-69014000D02*
X107786000Y-69522000D01*
X107786000Y-70284000D02*
X107278000Y-70284000D01*
X107278000Y-70284000D02*
X107278000Y-69776000D01*
X107278000Y-69776000D02*
X107786000Y-69776000D01*
X107786000Y-69776000D02*
X107786000Y-70284000D01*
X107786000Y-71046000D02*
X107278000Y-71046000D01*
X107278000Y-71046000D02*
X107278000Y-70538000D01*
X107278000Y-70538000D02*
X107786000Y-70538000D01*
X107786000Y-70538000D02*
X107786000Y-71046000D01*
X107786000Y-71808000D02*
X107278000Y-71808000D01*
X107278000Y-71808000D02*
X107278000Y-71300000D01*
X107278000Y-71300000D02*
X107786000Y-71300000D01*
X107786000Y-71300000D02*
X107786000Y-71808000D01*
X123095000Y-68760000D02*
X123095000Y-68252000D01*
X123095000Y-68252000D02*
X122587000Y-68252000D01*
X122587000Y-68252000D02*
X122587000Y-68760000D01*
X122587000Y-68760000D02*
X123095000Y-68760000D01*
X123095000Y-69522000D02*
X123095000Y-69014000D01*
X123095000Y-69014000D02*
X122587000Y-69014000D01*
X122587000Y-69014000D02*
X122587000Y-69522000D01*
X122587000Y-69522000D02*
X123095000Y-69522000D01*
X123095000Y-70284000D02*
X123095000Y-69776000D01*
X123095000Y-69776000D02*
X122587000Y-69776000D01*
X122587000Y-69776000D02*
X122587000Y-70284000D01*
X122587000Y-70284000D02*
X123095000Y-70284000D01*
X123095000Y-71046000D02*
X123095000Y-70538000D01*
X123095000Y-70538000D02*
X122587000Y-70538000D01*
X122587000Y-70538000D02*
X122587000Y-71046000D01*
X122587000Y-71046000D02*
X123095000Y-71046000D01*
X123095000Y-71808000D02*
X123095000Y-71300000D01*
X123095000Y-71300000D02*
X122587000Y-71300000D01*
X122587000Y-71300000D02*
X122587000Y-71808000D01*
X122587000Y-71808000D02*
X123095000Y-71808000D01*
X123730000Y-72443000D02*
X123730000Y-71935000D01*
X123730000Y-71935000D02*
X123222000Y-71935000D01*
X123222000Y-71935000D02*
X123222000Y-72443000D01*
X123222000Y-72443000D02*
X123730000Y-72443000D01*
X124492000Y-71935000D02*
X123984000Y-71935000D01*
X123984000Y-71935000D02*
X123984000Y-72443000D01*
X123984000Y-72443000D02*
X124492000Y-72443000D01*
X124492000Y-72443000D02*
X124492000Y-71935000D01*
X125254000Y-71935000D02*
X124746000Y-71935000D01*
X124746000Y-71935000D02*
X124746000Y-72443000D01*
X124746000Y-72443000D02*
X125254000Y-72443000D01*
X125254000Y-72443000D02*
X125254000Y-71935000D01*
X125889000Y-71300000D02*
X125381000Y-71300000D01*
X125381000Y-71300000D02*
X125381000Y-71808000D01*
X125381000Y-71808000D02*
X125889000Y-71808000D01*
X125889000Y-71808000D02*
X125889000Y-71300000D01*
X125381000Y-70538000D02*
X125889000Y-70538000D01*
X125889000Y-70538000D02*
X125889000Y-71046000D01*
X125889000Y-71046000D02*
X125381000Y-71046000D01*
X125381000Y-71046000D02*
X125381000Y-70538000D01*
X125889000Y-69776000D02*
X125381000Y-69776000D01*
X125381000Y-69776000D02*
X125381000Y-70284000D01*
X125381000Y-70284000D02*
X125889000Y-70284000D01*
X125889000Y-70284000D02*
X125889000Y-69776000D01*
X125381000Y-69014000D02*
X125889000Y-69014000D01*
X125889000Y-69014000D02*
X125889000Y-69522000D01*
X125889000Y-69522000D02*
X125381000Y-69522000D01*
X125381000Y-69522000D02*
X125381000Y-69014000D01*
X123984000Y-70538000D02*
X124492000Y-70538000D01*
X124492000Y-70538000D02*
X124492000Y-71046000D01*
X124492000Y-71046000D02*
X123984000Y-71046000D01*
X123984000Y-71046000D02*
X123984000Y-70538000D01*
X123984000Y-69776000D02*
X123984000Y-70284000D01*
X123984000Y-70284000D02*
X124492000Y-70284000D01*
X123984000Y-69776000D02*
X124492000Y-69776000D01*
X124492000Y-69776000D02*
X124492000Y-70284000D01*
X124492000Y-69014000D02*
X123984000Y-69014000D01*
X123984000Y-69014000D02*
X123984000Y-69522000D01*
X123984000Y-69522000D02*
X124492000Y-69522000D01*
X124492000Y-69522000D02*
X124492000Y-69014000D01*
X124492000Y-68252000D02*
X123984000Y-68252000D01*
X123984000Y-68252000D02*
X123984000Y-68760000D01*
X123984000Y-68760000D02*
X124492000Y-68760000D01*
X124492000Y-68760000D02*
X124492000Y-68252000D01*
X125127000Y-68125000D02*
X125127000Y-67617000D01*
X125127000Y-67617000D02*
X124619000Y-67617000D01*
X124619000Y-67617000D02*
X124619000Y-68125000D01*
X124619000Y-68125000D02*
X125127000Y-68125000D01*
X125889000Y-68125000D02*
X125889000Y-67617000D01*
X125889000Y-67617000D02*
X125381000Y-67617000D01*
X125381000Y-67617000D02*
X125381000Y-68125000D01*
X125381000Y-68125000D02*
X125889000Y-68125000D01*
X126651000Y-68125000D02*
X126651000Y-67617000D01*
X126651000Y-67617000D02*
X126143000Y-67617000D01*
X126143000Y-67617000D02*
X126143000Y-68125000D01*
X126143000Y-68125000D02*
X126651000Y-68125000D01*
X127286000Y-68760000D02*
X126778000Y-68760000D01*
X126778000Y-68760000D02*
X126778000Y-68252000D01*
X126778000Y-68252000D02*
X127286000Y-68252000D01*
X127286000Y-68252000D02*
X127286000Y-68760000D01*
X127286000Y-69522000D02*
X126778000Y-69522000D01*
X126778000Y-69522000D02*
X126778000Y-69014000D01*
X126778000Y-69014000D02*
X127286000Y-69014000D01*
X127286000Y-69014000D02*
X127286000Y-69522000D01*
X127286000Y-70284000D02*
X126778000Y-70284000D01*
X126778000Y-70284000D02*
X126778000Y-69776000D01*
X126778000Y-69776000D02*
X127286000Y-69776000D01*
X127286000Y-69776000D02*
X127286000Y-70284000D01*
X127286000Y-71046000D02*
X126778000Y-71046000D01*
X126778000Y-71046000D02*
X126778000Y-70538000D01*
X126778000Y-70538000D02*
X127286000Y-70538000D01*
X127286000Y-70538000D02*
X127286000Y-71046000D01*
X127286000Y-71808000D02*
X126778000Y-71808000D01*
X126778000Y-71808000D02*
X126778000Y-71300000D01*
X126778000Y-71300000D02*
X127286000Y-71300000D01*
X127286000Y-71300000D02*
X127286000Y-71808000D01*
X143095000Y-68960000D02*
X143095000Y-68452000D01*
X143095000Y-68452000D02*
X142587000Y-68452000D01*
X142587000Y-68452000D02*
X142587000Y-68960000D01*
X142587000Y-68960000D02*
X143095000Y-68960000D01*
X143095000Y-69722000D02*
X143095000Y-69214000D01*
X143095000Y-69214000D02*
X142587000Y-69214000D01*
X142587000Y-69214000D02*
X142587000Y-69722000D01*
X142587000Y-69722000D02*
X143095000Y-69722000D01*
X143095000Y-70484000D02*
X143095000Y-69976000D01*
X143095000Y-69976000D02*
X142587000Y-69976000D01*
X142587000Y-69976000D02*
X142587000Y-70484000D01*
X142587000Y-70484000D02*
X143095000Y-70484000D01*
X143095000Y-71246000D02*
X143095000Y-70738000D01*
X143095000Y-70738000D02*
X142587000Y-70738000D01*
X142587000Y-70738000D02*
X142587000Y-71246000D01*
X142587000Y-71246000D02*
X143095000Y-71246000D01*
X143095000Y-72008000D02*
X143095000Y-71500000D01*
X143095000Y-71500000D02*
X142587000Y-71500000D01*
X142587000Y-71500000D02*
X142587000Y-72008000D01*
X142587000Y-72008000D02*
X143095000Y-72008000D01*
X143730000Y-72643000D02*
X143730000Y-72135000D01*
X143730000Y-72135000D02*
X143222000Y-72135000D01*
X143222000Y-72135000D02*
X143222000Y-72643000D01*
X143222000Y-72643000D02*
X143730000Y-72643000D01*
X144492000Y-72135000D02*
X143984000Y-72135000D01*
X143984000Y-72135000D02*
X143984000Y-72643000D01*
X143984000Y-72643000D02*
X144492000Y-72643000D01*
X144492000Y-72643000D02*
X144492000Y-72135000D01*
X145254000Y-72135000D02*
X144746000Y-72135000D01*
X144746000Y-72135000D02*
X144746000Y-72643000D01*
X144746000Y-72643000D02*
X145254000Y-72643000D01*
X145254000Y-72643000D02*
X145254000Y-72135000D01*
X145889000Y-71500000D02*
X145381000Y-71500000D01*
X145381000Y-71500000D02*
X145381000Y-72008000D01*
X145381000Y-72008000D02*
X145889000Y-72008000D01*
X145889000Y-72008000D02*
X145889000Y-71500000D01*
X145381000Y-70738000D02*
X145889000Y-70738000D01*
X145889000Y-70738000D02*
X145889000Y-71246000D01*
X145889000Y-71246000D02*
X145381000Y-71246000D01*
X145381000Y-71246000D02*
X145381000Y-70738000D01*
X145889000Y-69976000D02*
X145381000Y-69976000D01*
X145381000Y-69976000D02*
X145381000Y-70484000D01*
X145381000Y-70484000D02*
X145889000Y-70484000D01*
X145889000Y-70484000D02*
X145889000Y-69976000D01*
X145381000Y-69214000D02*
X145889000Y-69214000D01*
X145889000Y-69214000D02*
X145889000Y-69722000D01*
X145889000Y-69722000D02*
X145381000Y-69722000D01*
X145381000Y-69722000D02*
X145381000Y-69214000D01*
X143984000Y-70738000D02*
X144492000Y-70738000D01*
X144492000Y-70738000D02*
X144492000Y-71246000D01*
X144492000Y-71246000D02*
X143984000Y-71246000D01*
X143984000Y-71246000D02*
X143984000Y-70738000D01*
X143984000Y-69976000D02*
X143984000Y-70484000D01*
X143984000Y-70484000D02*
X144492000Y-70484000D01*
X143984000Y-69976000D02*
X144492000Y-69976000D01*
X144492000Y-69976000D02*
X144492000Y-70484000D01*
X144492000Y-69214000D02*
X143984000Y-69214000D01*
X143984000Y-69214000D02*
X143984000Y-69722000D01*
X143984000Y-69722000D02*
X144492000Y-69722000D01*
X144492000Y-69722000D02*
X144492000Y-69214000D01*
X144492000Y-68452000D02*
X143984000Y-68452000D01*
X143984000Y-68452000D02*
X143984000Y-68960000D01*
X143984000Y-68960000D02*
X144492000Y-68960000D01*
X144492000Y-68960000D02*
X144492000Y-68452000D01*
X145127000Y-68325000D02*
X145127000Y-67817000D01*
X145127000Y-67817000D02*
X144619000Y-67817000D01*
X144619000Y-67817000D02*
X144619000Y-68325000D01*
X144619000Y-68325000D02*
X145127000Y-68325000D01*
X145889000Y-68325000D02*
X145889000Y-67817000D01*
X145889000Y-67817000D02*
X145381000Y-67817000D01*
X145381000Y-67817000D02*
X145381000Y-68325000D01*
X145381000Y-68325000D02*
X145889000Y-68325000D01*
X146651000Y-68325000D02*
X146651000Y-67817000D01*
X146651000Y-67817000D02*
X146143000Y-67817000D01*
X146143000Y-67817000D02*
X146143000Y-68325000D01*
X146143000Y-68325000D02*
X146651000Y-68325000D01*
X147286000Y-68960000D02*
X146778000Y-68960000D01*
X146778000Y-68960000D02*
X146778000Y-68452000D01*
X146778000Y-68452000D02*
X147286000Y-68452000D01*
X147286000Y-68452000D02*
X147286000Y-68960000D01*
X147286000Y-69722000D02*
X146778000Y-69722000D01*
X146778000Y-69722000D02*
X146778000Y-69214000D01*
X146778000Y-69214000D02*
X147286000Y-69214000D01*
X147286000Y-69214000D02*
X147286000Y-69722000D01*
X147286000Y-70484000D02*
X146778000Y-70484000D01*
X146778000Y-70484000D02*
X146778000Y-69976000D01*
X146778000Y-69976000D02*
X147286000Y-69976000D01*
X147286000Y-69976000D02*
X147286000Y-70484000D01*
X147286000Y-71246000D02*
X146778000Y-71246000D01*
X146778000Y-71246000D02*
X146778000Y-70738000D01*
X146778000Y-70738000D02*
X147286000Y-70738000D01*
X147286000Y-70738000D02*
X147286000Y-71246000D01*
X147286000Y-72008000D02*
X146778000Y-72008000D01*
X146778000Y-72008000D02*
X146778000Y-71500000D01*
X146778000Y-71500000D02*
X147286000Y-71500000D01*
X147286000Y-71500000D02*
X147286000Y-72008000D01*
X62423800Y-66897800D02*
X62525400Y-66466000D01*
X62525400Y-66466000D02*
X62601600Y-66466000D01*
X62601600Y-66466000D02*
X62728600Y-66491400D01*
X62728600Y-66491400D02*
X62779400Y-66567600D01*
X62779400Y-66567600D02*
X62779400Y-66694600D01*
X62779400Y-66694600D02*
X62728600Y-66796200D01*
X62728600Y-66796200D02*
X62627000Y-66847000D01*
X62627000Y-66847000D02*
X62246000Y-66897800D01*
X62246000Y-66897800D02*
X62144400Y-66872400D01*
X62144400Y-66872400D02*
X62093600Y-66770800D01*
X62093600Y-66770800D02*
X62093600Y-66643800D01*
X62093600Y-66643800D02*
X62169800Y-66567600D01*
X62754000Y-67507400D02*
X62093600Y-67380400D01*
X62093600Y-67380400D02*
X62779400Y-67101000D01*
X62144400Y-64764200D02*
X62093600Y-64840400D01*
X62093600Y-64840400D02*
X62093600Y-65043600D01*
X62093600Y-65043600D02*
X62144400Y-65094400D01*
X62144400Y-65094400D02*
X62220600Y-65119800D01*
X62220600Y-65119800D02*
X62322200Y-65119800D01*
X62322200Y-65119800D02*
X62398400Y-65119800D01*
X62398400Y-65119800D02*
X62449200Y-65043600D01*
X62449200Y-65043600D02*
X62474600Y-64967400D01*
X62474600Y-64967400D02*
X62474600Y-64789600D01*
X62474600Y-64789600D02*
X62525400Y-64738800D01*
X62703200Y-65043600D02*
X62779400Y-64942000D01*
X62779400Y-64942000D02*
X62779400Y-64789600D01*
X62779400Y-64789600D02*
X62728600Y-64713400D01*
X62728600Y-64713400D02*
X62627000Y-64688000D01*
X62627000Y-64688000D02*
X62093600Y-64764200D01*
X62627000Y-67812200D02*
X62093600Y-67888400D01*
X62728600Y-67837600D02*
X62627000Y-67812200D01*
X62779400Y-67913800D02*
X62728600Y-67837600D01*
X62779400Y-68066200D02*
X62779400Y-67913800D01*
X62703200Y-68167800D02*
X62779400Y-68066200D01*
X62474600Y-67913800D02*
X62525400Y-67863000D01*
X62474600Y-68091600D02*
X62474600Y-67913800D01*
X62449200Y-68167800D02*
X62474600Y-68091600D01*
X62398400Y-68244000D02*
X62449200Y-68167800D01*
X62322200Y-68244000D02*
X62398400Y-68244000D01*
X62220600Y-68244000D02*
X62322200Y-68244000D01*
X62144400Y-68218600D02*
X62220600Y-68244000D01*
X62093600Y-68167800D02*
X62144400Y-68218600D01*
X62093600Y-67964600D02*
X62093600Y-68167800D01*
X62144400Y-67888400D02*
X62093600Y-67964600D01*
X62093600Y-65526200D02*
X62144400Y-65450000D01*
X62093600Y-65627800D02*
X62093600Y-65526200D01*
X62119000Y-65704000D02*
X62093600Y-65627800D01*
X62195200Y-65805600D02*
X62119000Y-65704000D01*
X62449200Y-65805600D02*
X62195200Y-65805600D01*
X62576200Y-65805600D02*
X62449200Y-65805600D01*
X62652400Y-65754800D02*
X62576200Y-65805600D01*
X62728600Y-65704000D02*
X62652400Y-65754800D01*
X62779400Y-65602400D02*
X62728600Y-65704000D01*
X62779400Y-65450000D02*
X62779400Y-65602400D01*
X62703200Y-65373800D02*
X62779400Y-65450000D01*
X62703200Y-68498000D02*
X62779400Y-68574200D01*
X62779400Y-68574200D02*
X62779400Y-68726600D01*
X62779400Y-68726600D02*
X62728600Y-68828200D01*
X62728600Y-68828200D02*
X62652400Y-68879000D01*
X62652400Y-68879000D02*
X62576200Y-68929800D01*
X62576200Y-68929800D02*
X62449200Y-68929800D01*
X62449200Y-68929800D02*
X62195200Y-68929800D01*
X62195200Y-68929800D02*
X62119000Y-68828200D01*
X62119000Y-68828200D02*
X62093600Y-68752000D01*
X62093600Y-68752000D02*
X62093600Y-68650400D01*
X62093600Y-68650400D02*
X62144400Y-68574200D01*
X63084200Y-69234600D02*
X62220600Y-69361600D01*
X62220600Y-69361600D02*
X62144400Y-69336200D01*
X62144400Y-69336200D02*
X62068200Y-69234600D01*
X62144400Y-69742600D02*
X62093600Y-69818800D01*
X62093600Y-69818800D02*
X62093600Y-70022000D01*
X62093600Y-70022000D02*
X62144400Y-70072800D01*
X62144400Y-70072800D02*
X62220600Y-70098200D01*
X62220600Y-70098200D02*
X62322200Y-70098200D01*
X62322200Y-70098200D02*
X62398400Y-70098200D01*
X62398400Y-70098200D02*
X62449200Y-70022000D01*
X62449200Y-70022000D02*
X62474600Y-69945800D01*
X62474600Y-69945800D02*
X62474600Y-69768000D01*
X62474600Y-69768000D02*
X62525400Y-69717200D01*
X62703200Y-70022000D02*
X62779400Y-69920400D01*
X62779400Y-69920400D02*
X62779400Y-69768000D01*
X62779400Y-69768000D02*
X62728600Y-69691800D01*
X62728600Y-69691800D02*
X62627000Y-69666400D01*
X62627000Y-69666400D02*
X62093600Y-69742600D01*
X62093600Y-70453800D02*
X62068200Y-70352200D01*
X62144400Y-70504600D02*
X62093600Y-70453800D01*
X62246000Y-70530000D02*
X62144400Y-70504600D01*
X63109600Y-70428400D02*
X62246000Y-70530000D01*
X62779400Y-70631600D02*
X62779400Y-70301400D01*
X62728600Y-71266600D02*
X62779400Y-71342800D01*
X62779400Y-71342800D02*
X62779400Y-71444400D01*
X62779400Y-71444400D02*
X62728600Y-71571400D01*
X62728600Y-71571400D02*
X62652400Y-71622200D01*
X62652400Y-71622200D02*
X62576200Y-71647600D01*
X62576200Y-71647600D02*
X62296800Y-71698400D01*
X62296800Y-71698400D02*
X62144400Y-71647600D01*
X62144400Y-71647600D02*
X62093600Y-71546000D01*
X62093600Y-71546000D02*
X62093600Y-71419000D01*
X62093600Y-71419000D02*
X62169800Y-71342800D01*
X62754000Y-71241200D02*
X61941200Y-71342800D01*
X61941200Y-71342800D02*
X61839600Y-71419000D01*
X61839600Y-71419000D02*
X61814200Y-71444400D01*
X61814200Y-71444400D02*
X61788800Y-71469800D01*
X61788800Y-71469800D02*
X61763400Y-71520600D01*
X61763400Y-71520600D02*
X61763400Y-71622200D01*
X61763400Y-71622200D02*
X61763400Y-71673000D01*
X61763400Y-71673000D02*
X61814200Y-71723800D01*
X62144400Y-72460400D02*
X62093600Y-72511200D01*
X62093600Y-72511200D02*
X62093600Y-72663600D01*
X62093600Y-72663600D02*
X62144400Y-72765200D01*
X62144400Y-72765200D02*
X62195200Y-72790600D01*
X62195200Y-72790600D02*
X62271400Y-72816000D01*
X62271400Y-72816000D02*
X62576200Y-72765200D01*
X62576200Y-72765200D02*
X62677800Y-72739800D01*
X62677800Y-72739800D02*
X62728600Y-72663600D01*
X62728600Y-72663600D02*
X62779400Y-72587400D01*
X62779400Y-72587400D02*
X62779400Y-72485800D01*
X62779400Y-72485800D02*
X62728600Y-72384200D01*
X63109600Y-72333400D02*
X62068200Y-72460400D01*
X62144400Y-66161200D02*
X62119000Y-66186600D01*
X62119000Y-66161200D02*
X62144400Y-66161200D01*
X62144400Y-66186600D02*
X62119000Y-66161200D01*
X62804800Y-70860200D02*
X62093600Y-70961800D01*
X63084200Y-70834800D02*
X63058800Y-70809400D01*
X63058800Y-70809400D02*
X63084200Y-70809400D01*
X63084200Y-70809400D02*
X63058800Y-70834800D01*
X63084200Y-71927000D02*
X63058800Y-71952400D01*
X63058800Y-71927000D02*
X63084200Y-71927000D01*
X63084200Y-71952400D02*
X63058800Y-71927000D01*
X62144400Y-73882800D02*
X62119000Y-73908200D01*
X62119000Y-73882800D02*
X62144400Y-73882800D01*
X62144400Y-73908200D02*
X62119000Y-73882800D01*
X62677800Y-73857400D02*
X62652400Y-73832000D01*
X62652400Y-73832000D02*
X62677800Y-73832000D01*
X62677800Y-73832000D02*
X62652400Y-73857400D01*
X62804800Y-71977800D02*
X62093600Y-72079400D01*
X62093600Y-74644800D02*
X62093600Y-74416200D01*
X62093600Y-74416200D02*
X62195200Y-74238400D01*
X62195200Y-74238400D02*
X62550800Y-74187600D01*
X62550800Y-74187600D02*
X62652400Y-74213000D01*
X62652400Y-74213000D02*
X62754000Y-74289200D01*
X62754000Y-74289200D02*
X62779400Y-74390800D01*
X62779400Y-74390800D02*
X62779400Y-74441600D01*
X62779400Y-74441600D02*
X62703200Y-74543200D01*
X62754000Y-74543200D02*
X61738000Y-74695600D01*
X62093600Y-75000400D02*
X62068200Y-74898800D01*
X62144400Y-75051200D02*
X62093600Y-75000400D01*
X62246000Y-75076600D02*
X62144400Y-75051200D01*
X63109600Y-74975000D02*
X62246000Y-75076600D01*
X62779400Y-75178200D02*
X62779400Y-74848000D01*
X62779400Y-75635400D02*
X62779400Y-75305200D01*
X63109600Y-75432200D02*
X62246000Y-75533800D01*
X62246000Y-75533800D02*
X62144400Y-75508400D01*
X62144400Y-75508400D02*
X62093600Y-75457600D01*
X62093600Y-75457600D02*
X62068200Y-75356000D01*
X62677800Y-76219600D02*
X62779400Y-76143400D01*
X62779400Y-76143400D02*
X62754000Y-75991000D01*
X62754000Y-75991000D02*
X62703200Y-75914800D01*
X62703200Y-75914800D02*
X62627000Y-75889400D01*
X62627000Y-75889400D02*
X62068200Y-75965600D01*
X63109600Y-76168800D02*
X62068200Y-76295800D01*
X63135000Y-72943000D02*
X61992000Y-73324000D01*
X63135000Y-73324000D02*
X61992000Y-73705000D01*
X61738000Y-71063400D02*
X61738000Y-64713400D01*
X61738000Y-71952400D02*
X61738000Y-74238400D01*
X61738000Y-76372000D02*
X61738000Y-74975000D01*
X82023800Y-66797800D02*
X82125400Y-66366000D01*
X82125400Y-66366000D02*
X82201600Y-66366000D01*
X82201600Y-66366000D02*
X82328600Y-66391400D01*
X82328600Y-66391400D02*
X82379400Y-66467600D01*
X82379400Y-66467600D02*
X82379400Y-66594600D01*
X82379400Y-66594600D02*
X82328600Y-66696200D01*
X82328600Y-66696200D02*
X82227000Y-66747000D01*
X82227000Y-66747000D02*
X81846000Y-66797800D01*
X81846000Y-66797800D02*
X81744400Y-66772400D01*
X81744400Y-66772400D02*
X81693600Y-66670800D01*
X81693600Y-66670800D02*
X81693600Y-66543800D01*
X81693600Y-66543800D02*
X81769800Y-66467600D01*
X82354000Y-67407400D02*
X81693600Y-67280400D01*
X81693600Y-67280400D02*
X82379400Y-67001000D01*
X81744400Y-64664200D02*
X81693600Y-64740400D01*
X81693600Y-64740400D02*
X81693600Y-64943600D01*
X81693600Y-64943600D02*
X81744400Y-64994400D01*
X81744400Y-64994400D02*
X81820600Y-65019800D01*
X81820600Y-65019800D02*
X81922200Y-65019800D01*
X81922200Y-65019800D02*
X81998400Y-65019800D01*
X81998400Y-65019800D02*
X82049200Y-64943600D01*
X82049200Y-64943600D02*
X82074600Y-64867400D01*
X82074600Y-64867400D02*
X82074600Y-64689600D01*
X82074600Y-64689600D02*
X82125400Y-64638800D01*
X82303200Y-64943600D02*
X82379400Y-64842000D01*
X82379400Y-64842000D02*
X82379400Y-64689600D01*
X82379400Y-64689600D02*
X82328600Y-64613400D01*
X82328600Y-64613400D02*
X82227000Y-64588000D01*
X82227000Y-64588000D02*
X81693600Y-64664200D01*
X82227000Y-67712200D02*
X81693600Y-67788400D01*
X82328600Y-67737600D02*
X82227000Y-67712200D01*
X82379400Y-67813800D02*
X82328600Y-67737600D01*
X82379400Y-67966200D02*
X82379400Y-67813800D01*
X82303200Y-68067800D02*
X82379400Y-67966200D01*
X82074600Y-67813800D02*
X82125400Y-67763000D01*
X82074600Y-67991600D02*
X82074600Y-67813800D01*
X82049200Y-68067800D02*
X82074600Y-67991600D01*
X81998400Y-68144000D02*
X82049200Y-68067800D01*
X81922200Y-68144000D02*
X81998400Y-68144000D01*
X81820600Y-68144000D02*
X81922200Y-68144000D01*
X81744400Y-68118600D02*
X81820600Y-68144000D01*
X81693600Y-68067800D02*
X81744400Y-68118600D01*
X81693600Y-67864600D02*
X81693600Y-68067800D01*
X81744400Y-67788400D02*
X81693600Y-67864600D01*
X81693600Y-65426200D02*
X81744400Y-65350000D01*
X81693600Y-65527800D02*
X81693600Y-65426200D01*
X81719000Y-65604000D02*
X81693600Y-65527800D01*
X81795200Y-65705600D02*
X81719000Y-65604000D01*
X82049200Y-65705600D02*
X81795200Y-65705600D01*
X82176200Y-65705600D02*
X82049200Y-65705600D01*
X82252400Y-65654800D02*
X82176200Y-65705600D01*
X82328600Y-65604000D02*
X82252400Y-65654800D01*
X82379400Y-65502400D02*
X82328600Y-65604000D01*
X82379400Y-65350000D02*
X82379400Y-65502400D01*
X82303200Y-65273800D02*
X82379400Y-65350000D01*
X82303200Y-68398000D02*
X82379400Y-68474200D01*
X82379400Y-68474200D02*
X82379400Y-68626600D01*
X82379400Y-68626600D02*
X82328600Y-68728200D01*
X82328600Y-68728200D02*
X82252400Y-68779000D01*
X82252400Y-68779000D02*
X82176200Y-68829800D01*
X82176200Y-68829800D02*
X82049200Y-68829800D01*
X82049200Y-68829800D02*
X81795200Y-68829800D01*
X81795200Y-68829800D02*
X81719000Y-68728200D01*
X81719000Y-68728200D02*
X81693600Y-68652000D01*
X81693600Y-68652000D02*
X81693600Y-68550400D01*
X81693600Y-68550400D02*
X81744400Y-68474200D01*
X82684200Y-69134600D02*
X81820600Y-69261600D01*
X81820600Y-69261600D02*
X81744400Y-69236200D01*
X81744400Y-69236200D02*
X81668200Y-69134600D01*
X81744400Y-69642600D02*
X81693600Y-69718800D01*
X81693600Y-69718800D02*
X81693600Y-69922000D01*
X81693600Y-69922000D02*
X81744400Y-69972800D01*
X81744400Y-69972800D02*
X81820600Y-69998200D01*
X81820600Y-69998200D02*
X81922200Y-69998200D01*
X81922200Y-69998200D02*
X81998400Y-69998200D01*
X81998400Y-69998200D02*
X82049200Y-69922000D01*
X82049200Y-69922000D02*
X82074600Y-69845800D01*
X82074600Y-69845800D02*
X82074600Y-69668000D01*
X82074600Y-69668000D02*
X82125400Y-69617200D01*
X82303200Y-69922000D02*
X82379400Y-69820400D01*
X82379400Y-69820400D02*
X82379400Y-69668000D01*
X82379400Y-69668000D02*
X82328600Y-69591800D01*
X82328600Y-69591800D02*
X82227000Y-69566400D01*
X82227000Y-69566400D02*
X81693600Y-69642600D01*
X81693600Y-70353800D02*
X81668200Y-70252200D01*
X81744400Y-70404600D02*
X81693600Y-70353800D01*
X81846000Y-70430000D02*
X81744400Y-70404600D01*
X82709600Y-70328400D02*
X81846000Y-70430000D01*
X82379400Y-70531600D02*
X82379400Y-70201400D01*
X82328600Y-71166600D02*
X82379400Y-71242800D01*
X82379400Y-71242800D02*
X82379400Y-71344400D01*
X82379400Y-71344400D02*
X82328600Y-71471400D01*
X82328600Y-71471400D02*
X82252400Y-71522200D01*
X82252400Y-71522200D02*
X82176200Y-71547600D01*
X82176200Y-71547600D02*
X81896800Y-71598400D01*
X81896800Y-71598400D02*
X81744400Y-71547600D01*
X81744400Y-71547600D02*
X81693600Y-71446000D01*
X81693600Y-71446000D02*
X81693600Y-71319000D01*
X81693600Y-71319000D02*
X81769800Y-71242800D01*
X82354000Y-71141200D02*
X81541200Y-71242800D01*
X81541200Y-71242800D02*
X81439600Y-71319000D01*
X81439600Y-71319000D02*
X81414200Y-71344400D01*
X81414200Y-71344400D02*
X81388800Y-71369800D01*
X81388800Y-71369800D02*
X81363400Y-71420600D01*
X81363400Y-71420600D02*
X81363400Y-71522200D01*
X81363400Y-71522200D02*
X81363400Y-71573000D01*
X81363400Y-71573000D02*
X81414200Y-71623800D01*
X81744400Y-72360400D02*
X81693600Y-72411200D01*
X81693600Y-72411200D02*
X81693600Y-72563600D01*
X81693600Y-72563600D02*
X81744400Y-72665200D01*
X81744400Y-72665200D02*
X81795200Y-72690600D01*
X81795200Y-72690600D02*
X81871400Y-72716000D01*
X81871400Y-72716000D02*
X82176200Y-72665200D01*
X82176200Y-72665200D02*
X82277800Y-72639800D01*
X82277800Y-72639800D02*
X82328600Y-72563600D01*
X82328600Y-72563600D02*
X82379400Y-72487400D01*
X82379400Y-72487400D02*
X82379400Y-72385800D01*
X82379400Y-72385800D02*
X82328600Y-72284200D01*
X82709600Y-72233400D02*
X81668200Y-72360400D01*
X81744400Y-66061200D02*
X81719000Y-66086600D01*
X81719000Y-66061200D02*
X81744400Y-66061200D01*
X81744400Y-66086600D02*
X81719000Y-66061200D01*
X82404800Y-70760200D02*
X81693600Y-70861800D01*
X82684200Y-70734800D02*
X82658800Y-70709400D01*
X82658800Y-70709400D02*
X82684200Y-70709400D01*
X82684200Y-70709400D02*
X82658800Y-70734800D01*
X82684200Y-71827000D02*
X82658800Y-71852400D01*
X82658800Y-71827000D02*
X82684200Y-71827000D01*
X82684200Y-71852400D02*
X82658800Y-71827000D01*
X81744400Y-73782800D02*
X81719000Y-73808200D01*
X81719000Y-73782800D02*
X81744400Y-73782800D01*
X81744400Y-73808200D02*
X81719000Y-73782800D01*
X82277800Y-73757400D02*
X82252400Y-73732000D01*
X82252400Y-73732000D02*
X82277800Y-73732000D01*
X82277800Y-73732000D02*
X82252400Y-73757400D01*
X82404800Y-71877800D02*
X81693600Y-71979400D01*
X81693600Y-74544800D02*
X81693600Y-74316200D01*
X81693600Y-74316200D02*
X81795200Y-74138400D01*
X81795200Y-74138400D02*
X82150800Y-74087600D01*
X82150800Y-74087600D02*
X82252400Y-74113000D01*
X82252400Y-74113000D02*
X82354000Y-74189200D01*
X82354000Y-74189200D02*
X82379400Y-74290800D01*
X82379400Y-74290800D02*
X82379400Y-74341600D01*
X82379400Y-74341600D02*
X82303200Y-74443200D01*
X82354000Y-74443200D02*
X81338000Y-74595600D01*
X81693600Y-74900400D02*
X81668200Y-74798800D01*
X81744400Y-74951200D02*
X81693600Y-74900400D01*
X81846000Y-74976600D02*
X81744400Y-74951200D01*
X82709600Y-74875000D02*
X81846000Y-74976600D01*
X82379400Y-75078200D02*
X82379400Y-74748000D01*
X82379400Y-75535400D02*
X82379400Y-75205200D01*
X82709600Y-75332200D02*
X81846000Y-75433800D01*
X81846000Y-75433800D02*
X81744400Y-75408400D01*
X81744400Y-75408400D02*
X81693600Y-75357600D01*
X81693600Y-75357600D02*
X81668200Y-75256000D01*
X82277800Y-76119600D02*
X82379400Y-76043400D01*
X82379400Y-76043400D02*
X82354000Y-75891000D01*
X82354000Y-75891000D02*
X82303200Y-75814800D01*
X82303200Y-75814800D02*
X82227000Y-75789400D01*
X82227000Y-75789400D02*
X81668200Y-75865600D01*
X82709600Y-76068800D02*
X81668200Y-76195800D01*
X82735000Y-72843000D02*
X81592000Y-73224000D01*
X82735000Y-73224000D02*
X81592000Y-73605000D01*
X81338000Y-70963400D02*
X81338000Y-64613400D01*
X81338000Y-71852400D02*
X81338000Y-74138400D01*
X81338000Y-76272000D02*
X81338000Y-74875000D01*
X101323800Y-66397800D02*
X101425400Y-65966000D01*
X101425400Y-65966000D02*
X101501600Y-65966000D01*
X101501600Y-65966000D02*
X101628600Y-65991400D01*
X101628600Y-65991400D02*
X101679400Y-66067600D01*
X101679400Y-66067600D02*
X101679400Y-66194600D01*
X101679400Y-66194600D02*
X101628600Y-66296200D01*
X101628600Y-66296200D02*
X101527000Y-66347000D01*
X101527000Y-66347000D02*
X101146000Y-66397800D01*
X101146000Y-66397800D02*
X101044400Y-66372400D01*
X101044400Y-66372400D02*
X100993600Y-66270800D01*
X100993600Y-66270800D02*
X100993600Y-66143800D01*
X100993600Y-66143800D02*
X101069800Y-66067600D01*
X101654000Y-67007400D02*
X100993600Y-66880400D01*
X100993600Y-66880400D02*
X101679400Y-66601000D01*
X101044400Y-64264200D02*
X100993600Y-64340400D01*
X100993600Y-64340400D02*
X100993600Y-64543600D01*
X100993600Y-64543600D02*
X101044400Y-64594400D01*
X101044400Y-64594400D02*
X101120600Y-64619800D01*
X101120600Y-64619800D02*
X101222200Y-64619800D01*
X101222200Y-64619800D02*
X101298400Y-64619800D01*
X101298400Y-64619800D02*
X101349200Y-64543600D01*
X101349200Y-64543600D02*
X101374600Y-64467400D01*
X101374600Y-64467400D02*
X101374600Y-64289600D01*
X101374600Y-64289600D02*
X101425400Y-64238800D01*
X101603200Y-64543600D02*
X101679400Y-64442000D01*
X101679400Y-64442000D02*
X101679400Y-64289600D01*
X101679400Y-64289600D02*
X101628600Y-64213400D01*
X101628600Y-64213400D02*
X101527000Y-64188000D01*
X101527000Y-64188000D02*
X100993600Y-64264200D01*
X101527000Y-67312200D02*
X100993600Y-67388400D01*
X101628600Y-67337600D02*
X101527000Y-67312200D01*
X101679400Y-67413800D02*
X101628600Y-67337600D01*
X101679400Y-67566200D02*
X101679400Y-67413800D01*
X101603200Y-67667800D02*
X101679400Y-67566200D01*
X101374600Y-67413800D02*
X101425400Y-67363000D01*
X101374600Y-67591600D02*
X101374600Y-67413800D01*
X101349200Y-67667800D02*
X101374600Y-67591600D01*
X101298400Y-67744000D02*
X101349200Y-67667800D01*
X101222200Y-67744000D02*
X101298400Y-67744000D01*
X101120600Y-67744000D02*
X101222200Y-67744000D01*
X101044400Y-67718600D02*
X101120600Y-67744000D01*
X100993600Y-67667800D02*
X101044400Y-67718600D01*
X100993600Y-67464600D02*
X100993600Y-67667800D01*
X101044400Y-67388400D02*
X100993600Y-67464600D01*
X100993600Y-65026200D02*
X101044400Y-64950000D01*
X100993600Y-65127800D02*
X100993600Y-65026200D01*
X101019000Y-65204000D02*
X100993600Y-65127800D01*
X101095200Y-65305600D02*
X101019000Y-65204000D01*
X101349200Y-65305600D02*
X101095200Y-65305600D01*
X101476200Y-65305600D02*
X101349200Y-65305600D01*
X101552400Y-65254800D02*
X101476200Y-65305600D01*
X101628600Y-65204000D02*
X101552400Y-65254800D01*
X101679400Y-65102400D02*
X101628600Y-65204000D01*
X101679400Y-64950000D02*
X101679400Y-65102400D01*
X101603200Y-64873800D02*
X101679400Y-64950000D01*
X101603200Y-67998000D02*
X101679400Y-68074200D01*
X101679400Y-68074200D02*
X101679400Y-68226600D01*
X101679400Y-68226600D02*
X101628600Y-68328200D01*
X101628600Y-68328200D02*
X101552400Y-68379000D01*
X101552400Y-68379000D02*
X101476200Y-68429800D01*
X101476200Y-68429800D02*
X101349200Y-68429800D01*
X101349200Y-68429800D02*
X101095200Y-68429800D01*
X101095200Y-68429800D02*
X101019000Y-68328200D01*
X101019000Y-68328200D02*
X100993600Y-68252000D01*
X100993600Y-68252000D02*
X100993600Y-68150400D01*
X100993600Y-68150400D02*
X101044400Y-68074200D01*
X101984200Y-68734600D02*
X101120600Y-68861600D01*
X101120600Y-68861600D02*
X101044400Y-68836200D01*
X101044400Y-68836200D02*
X100968200Y-68734600D01*
X101044400Y-69242600D02*
X100993600Y-69318800D01*
X100993600Y-69318800D02*
X100993600Y-69522000D01*
X100993600Y-69522000D02*
X101044400Y-69572800D01*
X101044400Y-69572800D02*
X101120600Y-69598200D01*
X101120600Y-69598200D02*
X101222200Y-69598200D01*
X101222200Y-69598200D02*
X101298400Y-69598200D01*
X101298400Y-69598200D02*
X101349200Y-69522000D01*
X101349200Y-69522000D02*
X101374600Y-69445800D01*
X101374600Y-69445800D02*
X101374600Y-69268000D01*
X101374600Y-69268000D02*
X101425400Y-69217200D01*
X101603200Y-69522000D02*
X101679400Y-69420400D01*
X101679400Y-69420400D02*
X101679400Y-69268000D01*
X101679400Y-69268000D02*
X101628600Y-69191800D01*
X101628600Y-69191800D02*
X101527000Y-69166400D01*
X101527000Y-69166400D02*
X100993600Y-69242600D01*
X100993600Y-69953800D02*
X100968200Y-69852200D01*
X101044400Y-70004600D02*
X100993600Y-69953800D01*
X101146000Y-70030000D02*
X101044400Y-70004600D01*
X102009600Y-69928400D02*
X101146000Y-70030000D01*
X101679400Y-70131600D02*
X101679400Y-69801400D01*
X101628600Y-70766600D02*
X101679400Y-70842800D01*
X101679400Y-70842800D02*
X101679400Y-70944400D01*
X101679400Y-70944400D02*
X101628600Y-71071400D01*
X101628600Y-71071400D02*
X101552400Y-71122200D01*
X101552400Y-71122200D02*
X101476200Y-71147600D01*
X101476200Y-71147600D02*
X101196800Y-71198400D01*
X101196800Y-71198400D02*
X101044400Y-71147600D01*
X101044400Y-71147600D02*
X100993600Y-71046000D01*
X100993600Y-71046000D02*
X100993600Y-70919000D01*
X100993600Y-70919000D02*
X101069800Y-70842800D01*
X101654000Y-70741200D02*
X100841200Y-70842800D01*
X100841200Y-70842800D02*
X100739600Y-70919000D01*
X100739600Y-70919000D02*
X100714200Y-70944400D01*
X100714200Y-70944400D02*
X100688800Y-70969800D01*
X100688800Y-70969800D02*
X100663400Y-71020600D01*
X100663400Y-71020600D02*
X100663400Y-71122200D01*
X100663400Y-71122200D02*
X100663400Y-71173000D01*
X100663400Y-71173000D02*
X100714200Y-71223800D01*
X101044400Y-71960400D02*
X100993600Y-72011200D01*
X100993600Y-72011200D02*
X100993600Y-72163600D01*
X100993600Y-72163600D02*
X101044400Y-72265200D01*
X101044400Y-72265200D02*
X101095200Y-72290600D01*
X101095200Y-72290600D02*
X101171400Y-72316000D01*
X101171400Y-72316000D02*
X101476200Y-72265200D01*
X101476200Y-72265200D02*
X101577800Y-72239800D01*
X101577800Y-72239800D02*
X101628600Y-72163600D01*
X101628600Y-72163600D02*
X101679400Y-72087400D01*
X101679400Y-72087400D02*
X101679400Y-71985800D01*
X101679400Y-71985800D02*
X101628600Y-71884200D01*
X102009600Y-71833400D02*
X100968200Y-71960400D01*
X101044400Y-65661200D02*
X101019000Y-65686600D01*
X101019000Y-65661200D02*
X101044400Y-65661200D01*
X101044400Y-65686600D02*
X101019000Y-65661200D01*
X101704800Y-70360200D02*
X100993600Y-70461800D01*
X101984200Y-70334800D02*
X101958800Y-70309400D01*
X101958800Y-70309400D02*
X101984200Y-70309400D01*
X101984200Y-70309400D02*
X101958800Y-70334800D01*
X101984200Y-71427000D02*
X101958800Y-71452400D01*
X101958800Y-71427000D02*
X101984200Y-71427000D01*
X101984200Y-71452400D02*
X101958800Y-71427000D01*
X101044400Y-73382800D02*
X101019000Y-73408200D01*
X101019000Y-73382800D02*
X101044400Y-73382800D01*
X101044400Y-73408200D02*
X101019000Y-73382800D01*
X101577800Y-73357400D02*
X101552400Y-73332000D01*
X101552400Y-73332000D02*
X101577800Y-73332000D01*
X101577800Y-73332000D02*
X101552400Y-73357400D01*
X101704800Y-71477800D02*
X100993600Y-71579400D01*
X100993600Y-74144800D02*
X100993600Y-73916200D01*
X100993600Y-73916200D02*
X101095200Y-73738400D01*
X101095200Y-73738400D02*
X101450800Y-73687600D01*
X101450800Y-73687600D02*
X101552400Y-73713000D01*
X101552400Y-73713000D02*
X101654000Y-73789200D01*
X101654000Y-73789200D02*
X101679400Y-73890800D01*
X101679400Y-73890800D02*
X101679400Y-73941600D01*
X101679400Y-73941600D02*
X101603200Y-74043200D01*
X101654000Y-74043200D02*
X100638000Y-74195600D01*
X100993600Y-74500400D02*
X100968200Y-74398800D01*
X101044400Y-74551200D02*
X100993600Y-74500400D01*
X101146000Y-74576600D02*
X101044400Y-74551200D01*
X102009600Y-74475000D02*
X101146000Y-74576600D01*
X101679400Y-74678200D02*
X101679400Y-74348000D01*
X101679400Y-75135400D02*
X101679400Y-74805200D01*
X102009600Y-74932200D02*
X101146000Y-75033800D01*
X101146000Y-75033800D02*
X101044400Y-75008400D01*
X101044400Y-75008400D02*
X100993600Y-74957600D01*
X100993600Y-74957600D02*
X100968200Y-74856000D01*
X101577800Y-75719600D02*
X101679400Y-75643400D01*
X101679400Y-75643400D02*
X101654000Y-75491000D01*
X101654000Y-75491000D02*
X101603200Y-75414800D01*
X101603200Y-75414800D02*
X101527000Y-75389400D01*
X101527000Y-75389400D02*
X100968200Y-75465600D01*
X102009600Y-75668800D02*
X100968200Y-75795800D01*
X102035000Y-72443000D02*
X100892000Y-72824000D01*
X102035000Y-72824000D02*
X100892000Y-73205000D01*
X100638000Y-70563400D02*
X100638000Y-64213400D01*
X100638000Y-71452400D02*
X100638000Y-73738400D01*
X100638000Y-75872000D02*
X100638000Y-74475000D01*
X120823800Y-66397800D02*
X120925400Y-65966000D01*
X120925400Y-65966000D02*
X121001600Y-65966000D01*
X121001600Y-65966000D02*
X121128600Y-65991400D01*
X121128600Y-65991400D02*
X121179400Y-66067600D01*
X121179400Y-66067600D02*
X121179400Y-66194600D01*
X121179400Y-66194600D02*
X121128600Y-66296200D01*
X121128600Y-66296200D02*
X121027000Y-66347000D01*
X121027000Y-66347000D02*
X120646000Y-66397800D01*
X120646000Y-66397800D02*
X120544400Y-66372400D01*
X120544400Y-66372400D02*
X120493600Y-66270800D01*
X120493600Y-66270800D02*
X120493600Y-66143800D01*
X120493600Y-66143800D02*
X120569800Y-66067600D01*
X121154000Y-67007400D02*
X120493600Y-66880400D01*
X120493600Y-66880400D02*
X121179400Y-66601000D01*
X120544400Y-64264200D02*
X120493600Y-64340400D01*
X120493600Y-64340400D02*
X120493600Y-64543600D01*
X120493600Y-64543600D02*
X120544400Y-64594400D01*
X120544400Y-64594400D02*
X120620600Y-64619800D01*
X120620600Y-64619800D02*
X120722200Y-64619800D01*
X120722200Y-64619800D02*
X120798400Y-64619800D01*
X120798400Y-64619800D02*
X120849200Y-64543600D01*
X120849200Y-64543600D02*
X120874600Y-64467400D01*
X120874600Y-64467400D02*
X120874600Y-64289600D01*
X120874600Y-64289600D02*
X120925400Y-64238800D01*
X121103200Y-64543600D02*
X121179400Y-64442000D01*
X121179400Y-64442000D02*
X121179400Y-64289600D01*
X121179400Y-64289600D02*
X121128600Y-64213400D01*
X121128600Y-64213400D02*
X121027000Y-64188000D01*
X121027000Y-64188000D02*
X120493600Y-64264200D01*
X121027000Y-67312200D02*
X120493600Y-67388400D01*
X121128600Y-67337600D02*
X121027000Y-67312200D01*
X121179400Y-67413800D02*
X121128600Y-67337600D01*
X121179400Y-67566200D02*
X121179400Y-67413800D01*
X121103200Y-67667800D02*
X121179400Y-67566200D01*
X120874600Y-67413800D02*
X120925400Y-67363000D01*
X120874600Y-67591600D02*
X120874600Y-67413800D01*
X120849200Y-67667800D02*
X120874600Y-67591600D01*
X120798400Y-67744000D02*
X120849200Y-67667800D01*
X120722200Y-67744000D02*
X120798400Y-67744000D01*
X120620600Y-67744000D02*
X120722200Y-67744000D01*
X120544400Y-67718600D02*
X120620600Y-67744000D01*
X120493600Y-67667800D02*
X120544400Y-67718600D01*
X120493600Y-67464600D02*
X120493600Y-67667800D01*
X120544400Y-67388400D02*
X120493600Y-67464600D01*
X120493600Y-65026200D02*
X120544400Y-64950000D01*
X120493600Y-65127800D02*
X120493600Y-65026200D01*
X120519000Y-65204000D02*
X120493600Y-65127800D01*
X120595200Y-65305600D02*
X120519000Y-65204000D01*
X120849200Y-65305600D02*
X120595200Y-65305600D01*
X120976200Y-65305600D02*
X120849200Y-65305600D01*
X121052400Y-65254800D02*
X120976200Y-65305600D01*
X121128600Y-65204000D02*
X121052400Y-65254800D01*
X121179400Y-65102400D02*
X121128600Y-65204000D01*
X121179400Y-64950000D02*
X121179400Y-65102400D01*
X121103200Y-64873800D02*
X121179400Y-64950000D01*
X121103200Y-67998000D02*
X121179400Y-68074200D01*
X121179400Y-68074200D02*
X121179400Y-68226600D01*
X121179400Y-68226600D02*
X121128600Y-68328200D01*
X121128600Y-68328200D02*
X121052400Y-68379000D01*
X121052400Y-68379000D02*
X120976200Y-68429800D01*
X120976200Y-68429800D02*
X120849200Y-68429800D01*
X120849200Y-68429800D02*
X120595200Y-68429800D01*
X120595200Y-68429800D02*
X120519000Y-68328200D01*
X120519000Y-68328200D02*
X120493600Y-68252000D01*
X120493600Y-68252000D02*
X120493600Y-68150400D01*
X120493600Y-68150400D02*
X120544400Y-68074200D01*
X121484200Y-68734600D02*
X120620600Y-68861600D01*
X120620600Y-68861600D02*
X120544400Y-68836200D01*
X120544400Y-68836200D02*
X120468200Y-68734600D01*
X120544400Y-69242600D02*
X120493600Y-69318800D01*
X120493600Y-69318800D02*
X120493600Y-69522000D01*
X120493600Y-69522000D02*
X120544400Y-69572800D01*
X120544400Y-69572800D02*
X120620600Y-69598200D01*
X120620600Y-69598200D02*
X120722200Y-69598200D01*
X120722200Y-69598200D02*
X120798400Y-69598200D01*
X120798400Y-69598200D02*
X120849200Y-69522000D01*
X120849200Y-69522000D02*
X120874600Y-69445800D01*
X120874600Y-69445800D02*
X120874600Y-69268000D01*
X120874600Y-69268000D02*
X120925400Y-69217200D01*
X121103200Y-69522000D02*
X121179400Y-69420400D01*
X121179400Y-69420400D02*
X121179400Y-69268000D01*
X121179400Y-69268000D02*
X121128600Y-69191800D01*
X121128600Y-69191800D02*
X121027000Y-69166400D01*
X121027000Y-69166400D02*
X120493600Y-69242600D01*
X120493600Y-69953800D02*
X120468200Y-69852200D01*
X120544400Y-70004600D02*
X120493600Y-69953800D01*
X120646000Y-70030000D02*
X120544400Y-70004600D01*
X121509600Y-69928400D02*
X120646000Y-70030000D01*
X121179400Y-70131600D02*
X121179400Y-69801400D01*
X121128600Y-70766600D02*
X121179400Y-70842800D01*
X121179400Y-70842800D02*
X121179400Y-70944400D01*
X121179400Y-70944400D02*
X121128600Y-71071400D01*
X121128600Y-71071400D02*
X121052400Y-71122200D01*
X121052400Y-71122200D02*
X120976200Y-71147600D01*
X120976200Y-71147600D02*
X120696800Y-71198400D01*
X120696800Y-71198400D02*
X120544400Y-71147600D01*
X120544400Y-71147600D02*
X120493600Y-71046000D01*
X120493600Y-71046000D02*
X120493600Y-70919000D01*
X120493600Y-70919000D02*
X120569800Y-70842800D01*
X121154000Y-70741200D02*
X120341200Y-70842800D01*
X120341200Y-70842800D02*
X120239600Y-70919000D01*
X120239600Y-70919000D02*
X120214200Y-70944400D01*
X120214200Y-70944400D02*
X120188800Y-70969800D01*
X120188800Y-70969800D02*
X120163400Y-71020600D01*
X120163400Y-71020600D02*
X120163400Y-71122200D01*
X120163400Y-71122200D02*
X120163400Y-71173000D01*
X120163400Y-71173000D02*
X120214200Y-71223800D01*
X120544400Y-71960400D02*
X120493600Y-72011200D01*
X120493600Y-72011200D02*
X120493600Y-72163600D01*
X120493600Y-72163600D02*
X120544400Y-72265200D01*
X120544400Y-72265200D02*
X120595200Y-72290600D01*
X120595200Y-72290600D02*
X120671400Y-72316000D01*
X120671400Y-72316000D02*
X120976200Y-72265200D01*
X120976200Y-72265200D02*
X121077800Y-72239800D01*
X121077800Y-72239800D02*
X121128600Y-72163600D01*
X121128600Y-72163600D02*
X121179400Y-72087400D01*
X121179400Y-72087400D02*
X121179400Y-71985800D01*
X121179400Y-71985800D02*
X121128600Y-71884200D01*
X121509600Y-71833400D02*
X120468200Y-71960400D01*
X120544400Y-65661200D02*
X120519000Y-65686600D01*
X120519000Y-65661200D02*
X120544400Y-65661200D01*
X120544400Y-65686600D02*
X120519000Y-65661200D01*
X121204800Y-70360200D02*
X120493600Y-70461800D01*
X121484200Y-70334800D02*
X121458800Y-70309400D01*
X121458800Y-70309400D02*
X121484200Y-70309400D01*
X121484200Y-70309400D02*
X121458800Y-70334800D01*
X121484200Y-71427000D02*
X121458800Y-71452400D01*
X121458800Y-71427000D02*
X121484200Y-71427000D01*
X121484200Y-71452400D02*
X121458800Y-71427000D01*
X120544400Y-73382800D02*
X120519000Y-73408200D01*
X120519000Y-73382800D02*
X120544400Y-73382800D01*
X120544400Y-73408200D02*
X120519000Y-73382800D01*
X121077800Y-73357400D02*
X121052400Y-73332000D01*
X121052400Y-73332000D02*
X121077800Y-73332000D01*
X121077800Y-73332000D02*
X121052400Y-73357400D01*
X121204800Y-71477800D02*
X120493600Y-71579400D01*
X120493600Y-74144800D02*
X120493600Y-73916200D01*
X120493600Y-73916200D02*
X120595200Y-73738400D01*
X120595200Y-73738400D02*
X120950800Y-73687600D01*
X120950800Y-73687600D02*
X121052400Y-73713000D01*
X121052400Y-73713000D02*
X121154000Y-73789200D01*
X121154000Y-73789200D02*
X121179400Y-73890800D01*
X121179400Y-73890800D02*
X121179400Y-73941600D01*
X121179400Y-73941600D02*
X121103200Y-74043200D01*
X121154000Y-74043200D02*
X120138000Y-74195600D01*
X120493600Y-74500400D02*
X120468200Y-74398800D01*
X120544400Y-74551200D02*
X120493600Y-74500400D01*
X120646000Y-74576600D02*
X120544400Y-74551200D01*
X121509600Y-74475000D02*
X120646000Y-74576600D01*
X121179400Y-74678200D02*
X121179400Y-74348000D01*
X121179400Y-75135400D02*
X121179400Y-74805200D01*
X121509600Y-74932200D02*
X120646000Y-75033800D01*
X120646000Y-75033800D02*
X120544400Y-75008400D01*
X120544400Y-75008400D02*
X120493600Y-74957600D01*
X120493600Y-74957600D02*
X120468200Y-74856000D01*
X121077800Y-75719600D02*
X121179400Y-75643400D01*
X121179400Y-75643400D02*
X121154000Y-75491000D01*
X121154000Y-75491000D02*
X121103200Y-75414800D01*
X121103200Y-75414800D02*
X121027000Y-75389400D01*
X121027000Y-75389400D02*
X120468200Y-75465600D01*
X121509600Y-75668800D02*
X120468200Y-75795800D01*
X121535000Y-72443000D02*
X120392000Y-72824000D01*
X121535000Y-72824000D02*
X120392000Y-73205000D01*
X120138000Y-70563400D02*
X120138000Y-64213400D01*
X120138000Y-71452400D02*
X120138000Y-73738400D01*
X120138000Y-75872000D02*
X120138000Y-74475000D01*
X140923800Y-66697800D02*
X141025400Y-66266000D01*
X141025400Y-66266000D02*
X141101600Y-66266000D01*
X141101600Y-66266000D02*
X141228600Y-66291400D01*
X141228600Y-66291400D02*
X141279400Y-66367600D01*
X141279400Y-66367600D02*
X141279400Y-66494600D01*
X141279400Y-66494600D02*
X141228600Y-66596200D01*
X141228600Y-66596200D02*
X141127000Y-66647000D01*
X141127000Y-66647000D02*
X140746000Y-66697800D01*
X140746000Y-66697800D02*
X140644400Y-66672400D01*
X140644400Y-66672400D02*
X140593600Y-66570800D01*
X140593600Y-66570800D02*
X140593600Y-66443800D01*
X140593600Y-66443800D02*
X140669800Y-66367600D01*
X141254000Y-67307400D02*
X140593600Y-67180400D01*
X140593600Y-67180400D02*
X141279400Y-66901000D01*
X140644400Y-64564200D02*
X140593600Y-64640400D01*
X140593600Y-64640400D02*
X140593600Y-64843600D01*
X140593600Y-64843600D02*
X140644400Y-64894400D01*
X140644400Y-64894400D02*
X140720600Y-64919800D01*
X140720600Y-64919800D02*
X140822200Y-64919800D01*
X140822200Y-64919800D02*
X140898400Y-64919800D01*
X140898400Y-64919800D02*
X140949200Y-64843600D01*
X140949200Y-64843600D02*
X140974600Y-64767400D01*
X140974600Y-64767400D02*
X140974600Y-64589600D01*
X140974600Y-64589600D02*
X141025400Y-64538800D01*
X141203200Y-64843600D02*
X141279400Y-64742000D01*
X141279400Y-64742000D02*
X141279400Y-64589600D01*
X141279400Y-64589600D02*
X141228600Y-64513400D01*
X141228600Y-64513400D02*
X141127000Y-64488000D01*
X141127000Y-64488000D02*
X140593600Y-64564200D01*
X141127000Y-67612200D02*
X140593600Y-67688400D01*
X141228600Y-67637600D02*
X141127000Y-67612200D01*
X141279400Y-67713800D02*
X141228600Y-67637600D01*
X141279400Y-67866200D02*
X141279400Y-67713800D01*
X141203200Y-67967800D02*
X141279400Y-67866200D01*
X140974600Y-67713800D02*
X141025400Y-67663000D01*
X140974600Y-67891600D02*
X140974600Y-67713800D01*
X140949200Y-67967800D02*
X140974600Y-67891600D01*
X140898400Y-68044000D02*
X140949200Y-67967800D01*
X140822200Y-68044000D02*
X140898400Y-68044000D01*
X140720600Y-68044000D02*
X140822200Y-68044000D01*
X140644400Y-68018600D02*
X140720600Y-68044000D01*
X140593600Y-67967800D02*
X140644400Y-68018600D01*
X140593600Y-67764600D02*
X140593600Y-67967800D01*
X140644400Y-67688400D02*
X140593600Y-67764600D01*
X140593600Y-65326200D02*
X140644400Y-65250000D01*
X140593600Y-65427800D02*
X140593600Y-65326200D01*
X140619000Y-65504000D02*
X140593600Y-65427800D01*
X140695200Y-65605600D02*
X140619000Y-65504000D01*
X140949200Y-65605600D02*
X140695200Y-65605600D01*
X141076200Y-65605600D02*
X140949200Y-65605600D01*
X141152400Y-65554800D02*
X141076200Y-65605600D01*
X141228600Y-65504000D02*
X141152400Y-65554800D01*
X141279400Y-65402400D02*
X141228600Y-65504000D01*
X141279400Y-65250000D02*
X141279400Y-65402400D01*
X141203200Y-65173800D02*
X141279400Y-65250000D01*
X141203200Y-68298000D02*
X141279400Y-68374200D01*
X141279400Y-68374200D02*
X141279400Y-68526600D01*
X141279400Y-68526600D02*
X141228600Y-68628200D01*
X141228600Y-68628200D02*
X141152400Y-68679000D01*
X141152400Y-68679000D02*
X141076200Y-68729800D01*
X141076200Y-68729800D02*
X140949200Y-68729800D01*
X140949200Y-68729800D02*
X140695200Y-68729800D01*
X140695200Y-68729800D02*
X140619000Y-68628200D01*
X140619000Y-68628200D02*
X140593600Y-68552000D01*
X140593600Y-68552000D02*
X140593600Y-68450400D01*
X140593600Y-68450400D02*
X140644400Y-68374200D01*
X141584200Y-69034600D02*
X140720600Y-69161600D01*
X140720600Y-69161600D02*
X140644400Y-69136200D01*
X140644400Y-69136200D02*
X140568200Y-69034600D01*
X140644400Y-69542600D02*
X140593600Y-69618800D01*
X140593600Y-69618800D02*
X140593600Y-69822000D01*
X140593600Y-69822000D02*
X140644400Y-69872800D01*
X140644400Y-69872800D02*
X140720600Y-69898200D01*
X140720600Y-69898200D02*
X140822200Y-69898200D01*
X140822200Y-69898200D02*
X140898400Y-69898200D01*
X140898400Y-69898200D02*
X140949200Y-69822000D01*
X140949200Y-69822000D02*
X140974600Y-69745800D01*
X140974600Y-69745800D02*
X140974600Y-69568000D01*
X140974600Y-69568000D02*
X141025400Y-69517200D01*
X141203200Y-69822000D02*
X141279400Y-69720400D01*
X141279400Y-69720400D02*
X141279400Y-69568000D01*
X141279400Y-69568000D02*
X141228600Y-69491800D01*
X141228600Y-69491800D02*
X141127000Y-69466400D01*
X141127000Y-69466400D02*
X140593600Y-69542600D01*
X140593600Y-70253800D02*
X140568200Y-70152200D01*
X140644400Y-70304600D02*
X140593600Y-70253800D01*
X140746000Y-70330000D02*
X140644400Y-70304600D01*
X141609600Y-70228400D02*
X140746000Y-70330000D01*
X141279400Y-70431600D02*
X141279400Y-70101400D01*
X141228600Y-71066600D02*
X141279400Y-71142800D01*
X141279400Y-71142800D02*
X141279400Y-71244400D01*
X141279400Y-71244400D02*
X141228600Y-71371400D01*
X141228600Y-71371400D02*
X141152400Y-71422200D01*
X141152400Y-71422200D02*
X141076200Y-71447600D01*
X141076200Y-71447600D02*
X140796800Y-71498400D01*
X140796800Y-71498400D02*
X140644400Y-71447600D01*
X140644400Y-71447600D02*
X140593600Y-71346000D01*
X140593600Y-71346000D02*
X140593600Y-71219000D01*
X140593600Y-71219000D02*
X140669800Y-71142800D01*
X141254000Y-71041200D02*
X140441200Y-71142800D01*
X140441200Y-71142800D02*
X140339600Y-71219000D01*
X140339600Y-71219000D02*
X140314200Y-71244400D01*
X140314200Y-71244400D02*
X140288800Y-71269800D01*
X140288800Y-71269800D02*
X140263400Y-71320600D01*
X140263400Y-71320600D02*
X140263400Y-71422200D01*
X140263400Y-71422200D02*
X140263400Y-71473000D01*
X140263400Y-71473000D02*
X140314200Y-71523800D01*
X140644400Y-72260400D02*
X140593600Y-72311200D01*
X140593600Y-72311200D02*
X140593600Y-72463600D01*
X140593600Y-72463600D02*
X140644400Y-72565200D01*
X140644400Y-72565200D02*
X140695200Y-72590600D01*
X140695200Y-72590600D02*
X140771400Y-72616000D01*
X140771400Y-72616000D02*
X141076200Y-72565200D01*
X141076200Y-72565200D02*
X141177800Y-72539800D01*
X141177800Y-72539800D02*
X141228600Y-72463600D01*
X141228600Y-72463600D02*
X141279400Y-72387400D01*
X141279400Y-72387400D02*
X141279400Y-72285800D01*
X141279400Y-72285800D02*
X141228600Y-72184200D01*
X141609600Y-72133400D02*
X140568200Y-72260400D01*
X140644400Y-65961200D02*
X140619000Y-65986600D01*
X140619000Y-65961200D02*
X140644400Y-65961200D01*
X140644400Y-65986600D02*
X140619000Y-65961200D01*
X141304800Y-70660200D02*
X140593600Y-70761800D01*
X141584200Y-70634800D02*
X141558800Y-70609400D01*
X141558800Y-70609400D02*
X141584200Y-70609400D01*
X141584200Y-70609400D02*
X141558800Y-70634800D01*
X141584200Y-71727000D02*
X141558800Y-71752400D01*
X141558800Y-71727000D02*
X141584200Y-71727000D01*
X141584200Y-71752400D02*
X141558800Y-71727000D01*
X140644400Y-73682800D02*
X140619000Y-73708200D01*
X140619000Y-73682800D02*
X140644400Y-73682800D01*
X140644400Y-73708200D02*
X140619000Y-73682800D01*
X141177800Y-73657400D02*
X141152400Y-73632000D01*
X141152400Y-73632000D02*
X141177800Y-73632000D01*
X141177800Y-73632000D02*
X141152400Y-73657400D01*
X141304800Y-71777800D02*
X140593600Y-71879400D01*
X140593600Y-74444800D02*
X140593600Y-74216200D01*
X140593600Y-74216200D02*
X140695200Y-74038400D01*
X140695200Y-74038400D02*
X141050800Y-73987600D01*
X141050800Y-73987600D02*
X141152400Y-74013000D01*
X141152400Y-74013000D02*
X141254000Y-74089200D01*
X141254000Y-74089200D02*
X141279400Y-74190800D01*
X141279400Y-74190800D02*
X141279400Y-74241600D01*
X141279400Y-74241600D02*
X141203200Y-74343200D01*
X141254000Y-74343200D02*
X140238000Y-74495600D01*
X140593600Y-74800400D02*
X140568200Y-74698800D01*
X140644400Y-74851200D02*
X140593600Y-74800400D01*
X140746000Y-74876600D02*
X140644400Y-74851200D01*
X141609600Y-74775000D02*
X140746000Y-74876600D01*
X141279400Y-74978200D02*
X141279400Y-74648000D01*
X141279400Y-75435400D02*
X141279400Y-75105200D01*
X141609600Y-75232200D02*
X140746000Y-75333800D01*
X140746000Y-75333800D02*
X140644400Y-75308400D01*
X140644400Y-75308400D02*
X140593600Y-75257600D01*
X140593600Y-75257600D02*
X140568200Y-75156000D01*
X141177800Y-76019600D02*
X141279400Y-75943400D01*
X141279400Y-75943400D02*
X141254000Y-75791000D01*
X141254000Y-75791000D02*
X141203200Y-75714800D01*
X141203200Y-75714800D02*
X141127000Y-75689400D01*
X141127000Y-75689400D02*
X140568200Y-75765600D01*
X141609600Y-75968800D02*
X140568200Y-76095800D01*
X141635000Y-72743000D02*
X140492000Y-73124000D01*
X141635000Y-73124000D02*
X140492000Y-73505000D01*
X140238000Y-70863400D02*
X140238000Y-64513400D01*
X140238000Y-71752400D02*
X140238000Y-74038400D01*
X140238000Y-76172000D02*
X140238000Y-74775000D01*
X122702381Y-149144286D02*
X121702381Y-149144286D01*
X121702381Y-149525239D01*
X121750000Y-149620477D01*
X121797619Y-149668096D01*
X121892857Y-149715715D01*
X122035714Y-149715715D01*
X122130952Y-149668096D01*
X122178571Y-149620477D01*
X122226190Y-149525239D01*
X122226190Y-149144286D01*
X122702381Y-150715715D02*
X122226190Y-150382381D01*
X122702381Y-150144286D02*
X121702381Y-150144286D01*
X121702381Y-150525239D01*
X121750000Y-150620477D01*
X121797619Y-150668096D01*
X121892857Y-150715715D01*
X122035714Y-150715715D01*
X122130952Y-150668096D01*
X122178571Y-150620477D01*
X122226190Y-150525239D01*
X122226190Y-150144286D01*
X121702381Y-151334762D02*
X121702381Y-151525239D01*
X121750000Y-151620477D01*
X121845238Y-151715715D01*
X122035714Y-151763334D01*
X122369048Y-151763334D01*
X122559524Y-151715715D01*
X122654762Y-151620477D01*
X122702381Y-151525239D01*
X122702381Y-151334762D01*
X122654762Y-151239524D01*
X122559524Y-151144286D01*
X122369048Y-151096667D01*
X122035714Y-151096667D01*
X121845238Y-151144286D01*
X121750000Y-151239524D01*
X121702381Y-151334762D01*
X121750000Y-152715715D02*
X121702381Y-152620477D01*
X121702381Y-152477620D01*
X121750000Y-152334762D01*
X121845238Y-152239524D01*
X121940476Y-152191905D01*
X122130952Y-152144286D01*
X122273810Y-152144286D01*
X122464286Y-152191905D01*
X122559524Y-152239524D01*
X122654762Y-152334762D01*
X122702381Y-152477620D01*
X122702381Y-152572858D01*
X122654762Y-152715715D01*
X122607143Y-152763334D01*
X122273810Y-152763334D01*
X122273810Y-152572858D01*
X139874305Y-151448925D02*
X139874305Y-150448925D01*
X139302876Y-151448925D02*
X139731448Y-150877496D01*
X139302876Y-150448925D02*
X139874305Y-151020354D01*
X138874305Y-150925115D02*
X138540971Y-150925115D01*
X138398114Y-151448925D02*
X138874305Y-151448925D01*
X138874305Y-150448925D01*
X138398114Y-150448925D01*
X137779067Y-150972734D02*
X137779067Y-151448925D01*
X138112400Y-150448925D02*
X137779067Y-150972734D01*
X137445733Y-150448925D01*
D12*
X82571429Y-114599048D02*
X82571429Y-115360953D01*
X82952381Y-114980001D02*
X82190476Y-114980001D01*
X78821429Y-141099048D02*
X78821429Y-141860953D01*
X79202381Y-141480001D02*
X78440476Y-141480001D01*
M02*
