G04 #@! TF.FileFunction,Copper,L2,Bot,Signal*
%FSLAX46Y46*%
G04 Gerber Fmt 4.6, Leading zero omitted, Abs format (unit mm)*
G04 Created by KiCad (PCBNEW (2015-07-22 BZR 5980)-product) date Tuesday, September 08, 2015 'amt' 09:17:54 am*
%MOMM*%
G01*
G04 APERTURE LIST*
%ADD10C,0.100000*%
%ADD11C,1.500000*%
%ADD12R,3.000000X3.000000*%
%ADD13R,1.727200X2.032000*%
%ADD14O,1.524000X1.778000*%
%ADD15R,1.600200X3.599180*%
%ADD16R,2.032000X2.032000*%
%ADD17O,2.032000X2.032000*%
%ADD18R,1.778000X1.778000*%
%ADD19O,1.727200X2.032000*%
%ADD20R,2.000000X8.000000*%
%ADD21R,2.000000X5.000000*%
%ADD22C,12.500000*%
%ADD23C,0.685800*%
%ADD24C,0.762000*%
%ADD25C,0.177800*%
%ADD26C,0.304800*%
%ADD27C,1.270000*%
%ADD28C,0.254000*%
G04 APERTURE END LIST*
D10*
D11*
X123731448Y-150146544D03*
X123731448Y-151896544D03*
D12*
X138731448Y-147896544D03*
D13*
X67533500Y-149062500D03*
D14*
X69533500Y-149062500D03*
X71533500Y-149062500D03*
X73533500Y-149062500D03*
X75533500Y-149062500D03*
X77533500Y-149062500D03*
X79533500Y-149062500D03*
X81533500Y-149062500D03*
X83533500Y-149062500D03*
X85533500Y-149062500D03*
D15*
X81000000Y-113730000D03*
D16*
X73498559Y-114561294D03*
D17*
X76038559Y-114561294D03*
D15*
X77250000Y-140230000D03*
D18*
X63338559Y-129293294D03*
X63338559Y-126753294D03*
X63338559Y-124213294D03*
D13*
X70958559Y-136278294D03*
D19*
X73498559Y-136278294D03*
X76038559Y-136278294D03*
X78578559Y-136278294D03*
X81118559Y-136278294D03*
X83658559Y-136278294D03*
D13*
X68418559Y-132468294D03*
D19*
X70958559Y-132468294D03*
X73498559Y-132468294D03*
X76038559Y-132468294D03*
D18*
X112340410Y-128662661D03*
X112340410Y-126122661D03*
X112340410Y-123582661D03*
D20*
X70750000Y-61480000D03*
X90400000Y-61430000D03*
X110000000Y-61530000D03*
X129600000Y-61430000D03*
X70750000Y-78730000D03*
X90400000Y-78630000D03*
X109900000Y-78630000D03*
X129500000Y-78630000D03*
X149200000Y-61630000D03*
X149100000Y-78530000D03*
D21*
X143050000Y-88230000D03*
X140050000Y-88230000D03*
X123450000Y-88280000D03*
X120450000Y-88280000D03*
X103850000Y-88305000D03*
X100850000Y-88305000D03*
X84250000Y-88280000D03*
X81250000Y-88280000D03*
X64675000Y-88305000D03*
X61675000Y-88305000D03*
D20*
X56700000Y-61430000D03*
X76400000Y-61530000D03*
X95900000Y-61430000D03*
X115500000Y-61530000D03*
D10*
G36*
X110103806Y-109669340D02*
X111518020Y-108255126D01*
X117174874Y-113911980D01*
X115760660Y-115326194D01*
X110103806Y-109669340D01*
X110103806Y-109669340D01*
G37*
G36*
X112225126Y-107548020D02*
X113639340Y-106133806D01*
X119296194Y-111790660D01*
X117881980Y-113204874D01*
X112225126Y-107548020D01*
X112225126Y-107548020D01*
G37*
G36*
X148660660Y-106133806D02*
X150074874Y-107548020D01*
X144418020Y-113204874D01*
X143003806Y-111790660D01*
X148660660Y-106133806D01*
X148660660Y-106133806D01*
G37*
G36*
X150781980Y-108255126D02*
X152196194Y-109669340D01*
X146539340Y-115326194D01*
X145125126Y-113911980D01*
X150781980Y-108255126D01*
X150781980Y-108255126D01*
G37*
G36*
X152196194Y-144690660D02*
X150781980Y-146104874D01*
X145125126Y-140448020D01*
X146539340Y-139033806D01*
X152196194Y-144690660D01*
X152196194Y-144690660D01*
G37*
G36*
X150074874Y-146811980D02*
X148660660Y-148226194D01*
X143003806Y-142569340D01*
X144418020Y-141155126D01*
X150074874Y-146811980D01*
X150074874Y-146811980D01*
G37*
G36*
X113639340Y-148226194D02*
X112225126Y-146811980D01*
X117881980Y-141155126D01*
X119296194Y-142569340D01*
X113639340Y-148226194D01*
X113639340Y-148226194D01*
G37*
G36*
X111518020Y-146104874D02*
X110103806Y-144690660D01*
X115760660Y-139033806D01*
X117174874Y-140448020D01*
X111518020Y-146104874D01*
X111518020Y-146104874D01*
G37*
D20*
X135100000Y-61430000D03*
D22*
X122000000Y-97830000D03*
X102300000Y-97830000D03*
X82775000Y-97805000D03*
X63175000Y-97805000D03*
X141600000Y-97830000D03*
D20*
X56000000Y-82230000D03*
X75750000Y-82230000D03*
X95250000Y-82230000D03*
X114750000Y-82230000D03*
X134500000Y-82230000D03*
D13*
X73883500Y-153507500D03*
D19*
X76423500Y-153507500D03*
X78963500Y-153507500D03*
X81503500Y-153507500D03*
X84043500Y-153507500D03*
X86583500Y-153507500D03*
D13*
X126481448Y-150896544D03*
D19*
X129021448Y-150896544D03*
X131561448Y-150896544D03*
X134101448Y-150896544D03*
X136641448Y-150896544D03*
X139181448Y-150896544D03*
D23*
X84928559Y-112783294D03*
X66660968Y-142434425D03*
X67783559Y-142628294D03*
X66513559Y-141358294D03*
X91160968Y-137548294D03*
X92548559Y-136278294D03*
X91278559Y-122943294D03*
X62068559Y-118498294D03*
X84293559Y-112148294D03*
X85563559Y-112148294D03*
X88750000Y-125630000D03*
X88738559Y-131833294D03*
X87468559Y-121038294D03*
X88738559Y-121038294D03*
X90008559Y-121038294D03*
X64608559Y-135008294D03*
X65878559Y-133738294D03*
X64608559Y-133738294D03*
X69688559Y-114053294D03*
X71593559Y-114053294D03*
X84928559Y-140088294D03*
X86198559Y-138183294D03*
X85563559Y-139453294D03*
X78578559Y-119133294D03*
X67148559Y-122308294D03*
X65243559Y-124213294D03*
X69053559Y-124848294D03*
X69053559Y-115958294D03*
X66513559Y-119768294D03*
X84928559Y-119133294D03*
X79848559Y-132468294D03*
X83023559Y-131198294D03*
X75403559Y-126753294D03*
X81118559Y-126753294D03*
X74133559Y-119133294D03*
X73498559Y-122308294D03*
X89373559Y-131198294D03*
X85563559Y-129928294D03*
X72228559Y-130563294D03*
X68418559Y-138183294D03*
X77308559Y-124848294D03*
X74768559Y-126118294D03*
X76038559Y-125483294D03*
X81372559Y-120657294D03*
X86198559Y-118498294D03*
X86198559Y-133738294D03*
X82388559Y-128658294D03*
X63973559Y-131198294D03*
X69942559Y-125483294D03*
X62703559Y-131198294D03*
X76038559Y-122308294D03*
X105341184Y-124662768D03*
X111341184Y-131162768D03*
X110341184Y-130162768D03*
X86833559Y-117228294D03*
X77943559Y-118513996D03*
X121731448Y-148146544D03*
X123231448Y-146896544D03*
D24*
X81000000Y-113980000D02*
X79750000Y-112730000D01*
X76038559Y-114561294D02*
X76038559Y-112730000D01*
X76038559Y-112730000D02*
X76000000Y-112768559D01*
X76000000Y-112768559D02*
X76000000Y-112980000D01*
X76000000Y-112980000D02*
X76000000Y-112730000D01*
X84293559Y-112148294D02*
X83581706Y-112148294D01*
X83581706Y-112148294D02*
X83000000Y-112730000D01*
X83000000Y-112730000D02*
X79750000Y-112730000D01*
X79750000Y-112730000D02*
X76000000Y-112730000D01*
X76000000Y-112730000D02*
X67201853Y-112730000D01*
X67201853Y-112730000D02*
X67148559Y-112783294D01*
X84928559Y-112783294D02*
X84293559Y-112148294D01*
X84293559Y-112148294D02*
X84293559Y-112273559D01*
X84293559Y-112273559D02*
X84500000Y-112480000D01*
X84500000Y-112480000D02*
X84500000Y-112148294D01*
X84928559Y-112783294D02*
X85563559Y-112148294D01*
X85563559Y-112148294D02*
X84500000Y-112148294D01*
X84500000Y-112148294D02*
X84293559Y-112148294D01*
X77250000Y-140230000D02*
X77250000Y-140480000D01*
X77250000Y-140480000D02*
X78128294Y-141358294D01*
X87468559Y-141358294D02*
X78128294Y-141358294D01*
X78128294Y-141358294D02*
X70323559Y-141358294D01*
X66660968Y-142434425D02*
X66410968Y-141460885D01*
X66410968Y-141460885D02*
X66513559Y-141358294D01*
X67783559Y-142628294D02*
X66513559Y-141358294D01*
X67783559Y-142628294D02*
X66717099Y-142378294D01*
X66717099Y-142378294D02*
X66660968Y-142434425D01*
X91160968Y-137548294D02*
X91278559Y-137548294D01*
X91278559Y-137548294D02*
X92548559Y-136278294D01*
X92548559Y-135643294D02*
X91278559Y-134373294D01*
X91278559Y-134373294D02*
X91278559Y-128620518D01*
X92548559Y-136278294D02*
X92548559Y-135643294D01*
X87468559Y-141358294D02*
X88103559Y-140723294D01*
X89373559Y-137548294D02*
X91160968Y-137548294D01*
X88103559Y-138818294D02*
X89373559Y-137548294D01*
X88103559Y-140723294D02*
X88103559Y-138818294D01*
X66513559Y-131198294D02*
X66513559Y-123578294D01*
X62068559Y-119133294D02*
X62703559Y-119768294D01*
X62068559Y-118498294D02*
X62068559Y-119133294D01*
X65878559Y-138183294D02*
X66513559Y-138818294D01*
X62703559Y-138183294D02*
X65878559Y-138183294D01*
X62068559Y-137548294D02*
X62703559Y-138183294D01*
X62068559Y-134373294D02*
X62068559Y-137548294D01*
X66513559Y-141358294D02*
X66513559Y-138818294D01*
X62703559Y-119768294D02*
X66513559Y-123578294D01*
X66513559Y-131198294D02*
X65243559Y-132468294D01*
X63973559Y-132468294D02*
X65243559Y-132468294D01*
X62068559Y-134373294D02*
X63973559Y-132468294D01*
X91278559Y-128620518D02*
X91278559Y-122943294D01*
X91240783Y-128658294D02*
X91278559Y-128620518D01*
X66513559Y-113418294D02*
X66513559Y-115323294D01*
X66513559Y-115323294D02*
X63338559Y-118498294D01*
X63338559Y-118498294D02*
X62068559Y-118498294D01*
X91278559Y-122943294D02*
X91278559Y-117863294D01*
X87468559Y-114053294D02*
X86198559Y-112783294D01*
X87468559Y-115323294D02*
X87468559Y-114053294D01*
X88738559Y-116593294D02*
X87468559Y-115323294D01*
X90008559Y-116593294D02*
X88738559Y-116593294D01*
X91278559Y-117863294D02*
X90008559Y-116593294D01*
X86198559Y-112783294D02*
X85563559Y-112148294D01*
X69053559Y-142628294D02*
X70323559Y-141358294D01*
X67783559Y-142628294D02*
X69053559Y-142628294D01*
X67148559Y-112783294D02*
X66513559Y-113418294D01*
D25*
X88750000Y-125630000D02*
X88750000Y-125730000D01*
X90008559Y-123156654D02*
X90008559Y-121038294D01*
X90008559Y-121038294D02*
X88738559Y-121038294D01*
X64608559Y-133738294D02*
X65878559Y-133738294D01*
X86198559Y-138818294D02*
X86198559Y-138183294D01*
X85563559Y-139453294D02*
X86198559Y-138818294D01*
X63338559Y-124213294D02*
X65243559Y-124213294D01*
D26*
X89373559Y-131198294D02*
X89119559Y-131198294D01*
X88738559Y-131071294D02*
X87595559Y-129928294D01*
X88992559Y-131071294D02*
X88738559Y-131071294D01*
X89119559Y-131198294D02*
X88992559Y-131071294D01*
X87595559Y-129928294D02*
X85563559Y-129928294D01*
D25*
X74514559Y-137802294D02*
X71466559Y-137802294D01*
X71466559Y-137802294D02*
X71085559Y-138183294D01*
X68418559Y-138183294D02*
X71085559Y-138183294D01*
X74514559Y-137802294D02*
X76038559Y-136278294D01*
X78578559Y-136278294D02*
X77308559Y-135008294D01*
X77308559Y-135008294D02*
X77308559Y-124848294D01*
X73498559Y-132468294D02*
X74768559Y-131198294D01*
X74768559Y-131198294D02*
X74768559Y-126118294D01*
X76038559Y-132468294D02*
X76038559Y-125483294D01*
D27*
X56000000Y-82230000D02*
X64250000Y-82230000D01*
X64250000Y-82230000D02*
X70750000Y-75730000D01*
X70750000Y-75730000D02*
X70750000Y-61480000D01*
X70750000Y-61480000D02*
X70750000Y-78730000D01*
X90400000Y-61480000D02*
X90400000Y-78730000D01*
X90400000Y-75730000D02*
X90400000Y-61480000D01*
X83900000Y-82230000D02*
X90400000Y-75730000D01*
X75650000Y-82230000D02*
X83900000Y-82230000D01*
X109950000Y-61580000D02*
X109950000Y-78830000D01*
X109950000Y-75830000D02*
X109950000Y-61580000D01*
X103450000Y-82330000D02*
X109950000Y-75830000D01*
X95200000Y-82330000D02*
X103450000Y-82330000D01*
X114850000Y-82330000D02*
X123100000Y-82330000D01*
X123100000Y-82330000D02*
X129600000Y-75830000D01*
X129600000Y-75830000D02*
X129600000Y-61580000D01*
X129600000Y-61580000D02*
X129600000Y-78830000D01*
D25*
X81372559Y-120657294D02*
X81372559Y-120149294D01*
X83023559Y-118498294D02*
X86198559Y-118498294D01*
X81372559Y-120149294D02*
X83023559Y-118498294D01*
X86198559Y-133738294D02*
X84293559Y-131833294D01*
X84293559Y-131833294D02*
X84293559Y-130563294D01*
X84293559Y-130563294D02*
X82388559Y-128658294D01*
D27*
X149200000Y-61580000D02*
X149200000Y-78830000D01*
X149200000Y-75830000D02*
X149200000Y-61580000D01*
X142700000Y-82330000D02*
X149200000Y-75830000D01*
X134450000Y-82330000D02*
X142700000Y-82330000D01*
D25*
X65243559Y-129928294D02*
X63973559Y-131198294D01*
X64608559Y-126753294D02*
X65243559Y-127388294D01*
X65243559Y-127388294D02*
X65243559Y-129928294D01*
X63338559Y-126753294D02*
X64608559Y-126753294D01*
X63338559Y-129293294D02*
X63338559Y-130563294D01*
X63338559Y-130563294D02*
X62703559Y-131198294D01*
X74768559Y-124848294D02*
X76038559Y-123578294D01*
X70958559Y-124848294D02*
X70323559Y-125483294D01*
X74768559Y-124848294D02*
X70958559Y-124848294D01*
X70323559Y-125483294D02*
X69942559Y-125483294D01*
X76038559Y-123578294D02*
X76038559Y-122308294D01*
D26*
X112341184Y-123622768D02*
X106381184Y-123622768D01*
X106381184Y-123622768D02*
X105341184Y-124662768D01*
X112341184Y-128702768D02*
X112341184Y-130162768D01*
X112341184Y-130162768D02*
X111341184Y-131162768D01*
X112341184Y-126162768D02*
X110841184Y-126162768D01*
X110341184Y-126662768D02*
X110341184Y-130162768D01*
X110841184Y-126162768D02*
X110341184Y-126662768D01*
D25*
X86833559Y-117228294D02*
X80499222Y-117228294D01*
X77943559Y-118513996D02*
X77943559Y-117863294D01*
X78578559Y-117228294D02*
X86833559Y-117228294D01*
X77943559Y-117863294D02*
X78578559Y-117228294D01*
X73883500Y-153507500D02*
X73883500Y-151602500D01*
X85533500Y-150112500D02*
X85533500Y-149062500D01*
X84678500Y-150967500D02*
X85533500Y-150112500D01*
X74518500Y-150967500D02*
X84678500Y-150967500D01*
X73883500Y-151602500D02*
X74518500Y-150967500D01*
X123731448Y-150146544D02*
X124731448Y-149146544D01*
X131561448Y-149476544D02*
X131561448Y-150896544D01*
X131231448Y-149146544D02*
X131561448Y-149476544D01*
X124731448Y-149146544D02*
X131231448Y-149146544D01*
X134101448Y-150896544D02*
X134101448Y-148766544D01*
X133481448Y-148146544D02*
X121731448Y-148146544D01*
X134101448Y-148766544D02*
X133481448Y-148146544D01*
X136641448Y-150896544D02*
X136641448Y-147556544D01*
X135981448Y-146896544D02*
X123231448Y-146896544D01*
X136641448Y-147556544D02*
X135981448Y-146896544D01*
X123731448Y-151896544D02*
X124481448Y-151896544D01*
X124481448Y-151896544D02*
X125231448Y-152646544D01*
X125231448Y-152646544D02*
X139731448Y-152646544D01*
X139731448Y-152646544D02*
X140731448Y-151646544D01*
X140731448Y-151646544D02*
X140731448Y-149896544D01*
X140731448Y-149896544D02*
X138731448Y-147896544D01*
D28*
G36*
X90478784Y-128658294D02*
X90516559Y-128848204D01*
X90516559Y-134373294D01*
X90574563Y-134664899D01*
X90683859Y-134828471D01*
X90739744Y-134912109D01*
X91786559Y-135958925D01*
X91786559Y-135962663D01*
X90962929Y-136786294D01*
X89373559Y-136786294D01*
X89081954Y-136844298D01*
X88834743Y-137009479D01*
X87564744Y-138279479D01*
X87399563Y-138526689D01*
X87341559Y-138818294D01*
X87341559Y-140407663D01*
X87152929Y-140596294D01*
X78443925Y-140596294D01*
X78438564Y-140590933D01*
X78438564Y-138430410D01*
X78410378Y-138285136D01*
X78326504Y-138157454D01*
X78199884Y-138071984D01*
X78050100Y-138041946D01*
X76449900Y-138041946D01*
X76304626Y-138070132D01*
X76176944Y-138154006D01*
X76091474Y-138280626D01*
X76061436Y-138430410D01*
X76061436Y-140596294D01*
X70323559Y-140596294D01*
X70031959Y-140654297D01*
X70031954Y-140654298D01*
X69784743Y-140819479D01*
X68737929Y-141866294D01*
X68099190Y-141866294D01*
X67275559Y-141042664D01*
X67275559Y-138818294D01*
X67217555Y-138526689D01*
X67123088Y-138385309D01*
X67083897Y-138326655D01*
X67694534Y-138326655D01*
X67804509Y-138592815D01*
X68007967Y-138796629D01*
X68273935Y-138907068D01*
X68561920Y-138907319D01*
X68828080Y-138797344D01*
X68972482Y-138653194D01*
X71085559Y-138653194D01*
X71265382Y-138617425D01*
X71417828Y-138515563D01*
X71661198Y-138272194D01*
X74514559Y-138272194D01*
X74694382Y-138236425D01*
X74846828Y-138134563D01*
X75449092Y-137532299D01*
X75562271Y-137607923D01*
X76038559Y-137702663D01*
X76514847Y-137607923D01*
X76918624Y-137338128D01*
X77188419Y-136934351D01*
X77283159Y-136458063D01*
X77283159Y-136098525D01*
X77188419Y-135622237D01*
X77048379Y-135412652D01*
X77400372Y-135764645D01*
X77333959Y-136098525D01*
X77333959Y-136458063D01*
X77428699Y-136934351D01*
X77698494Y-137338128D01*
X78102271Y-137607923D01*
X78578559Y-137702663D01*
X79054847Y-137607923D01*
X79458624Y-137338128D01*
X79728419Y-136934351D01*
X79823159Y-136458063D01*
X79823159Y-136098525D01*
X79873959Y-136098525D01*
X79873959Y-136458063D01*
X79968699Y-136934351D01*
X80238494Y-137338128D01*
X80642271Y-137607923D01*
X81118559Y-137702663D01*
X81594847Y-137607923D01*
X81998624Y-137338128D01*
X82268419Y-136934351D01*
X82363159Y-136458063D01*
X82363159Y-136098525D01*
X82413959Y-136098525D01*
X82413959Y-136458063D01*
X82508699Y-136934351D01*
X82778494Y-137338128D01*
X83182271Y-137607923D01*
X83658559Y-137702663D01*
X84134847Y-137607923D01*
X84538624Y-137338128D01*
X84808419Y-136934351D01*
X84903159Y-136458063D01*
X84903159Y-136098525D01*
X84808419Y-135622237D01*
X84538624Y-135218460D01*
X84134847Y-134948665D01*
X83658559Y-134853925D01*
X83182271Y-134948665D01*
X82778494Y-135218460D01*
X82508699Y-135622237D01*
X82413959Y-136098525D01*
X82363159Y-136098525D01*
X82363159Y-136098525D01*
X82268419Y-135622237D01*
X81998624Y-135218460D01*
X81594847Y-134948665D01*
X81118559Y-134853925D01*
X80642271Y-134948665D01*
X80238494Y-135218460D01*
X79968699Y-135622237D01*
X79873959Y-136098525D01*
X79823159Y-136098525D01*
X79823159Y-136098525D01*
X79728419Y-135622237D01*
X79458624Y-135218460D01*
X79054847Y-134948665D01*
X78578559Y-134853925D01*
X78102271Y-134948665D01*
X77989092Y-135024289D01*
X77778459Y-134813656D01*
X77778459Y-128801655D01*
X81664534Y-128801655D01*
X81774509Y-129067815D01*
X81977967Y-129271629D01*
X82243935Y-129382068D01*
X82447973Y-129382246D01*
X83823659Y-130757933D01*
X83823659Y-131833294D01*
X83848921Y-131960294D01*
X83859428Y-132013117D01*
X83961290Y-132165563D01*
X85474711Y-133678984D01*
X85474534Y-133881655D01*
X85584509Y-134147815D01*
X85787967Y-134351629D01*
X86053935Y-134462068D01*
X86341920Y-134462319D01*
X86608080Y-134352344D01*
X86811894Y-134148886D01*
X86922333Y-133882918D01*
X86922584Y-133594933D01*
X86812609Y-133328773D01*
X86609151Y-133124959D01*
X86343183Y-133014520D01*
X86139146Y-133014342D01*
X84763459Y-131638656D01*
X84763459Y-130563294D01*
X84727690Y-130383471D01*
X84713695Y-130362526D01*
X84625829Y-130231025D01*
X84466459Y-130071655D01*
X84839534Y-130071655D01*
X84949509Y-130337815D01*
X85152967Y-130541629D01*
X85418935Y-130652068D01*
X85706920Y-130652319D01*
X85973080Y-130542344D01*
X86053871Y-130461694D01*
X87374617Y-130461694D01*
X88361388Y-131448465D01*
X88534436Y-131564091D01*
X88738559Y-131604694D01*
X88758219Y-131604694D01*
X88759509Y-131607815D01*
X88962967Y-131811629D01*
X89228935Y-131922068D01*
X89516920Y-131922319D01*
X89783080Y-131812344D01*
X89986894Y-131608886D01*
X90097333Y-131342918D01*
X90097584Y-131054933D01*
X89987609Y-130788773D01*
X89784151Y-130584959D01*
X89518183Y-130474520D01*
X89230198Y-130474269D01*
X89049029Y-130549127D01*
X88992559Y-130537894D01*
X88959501Y-130537894D01*
X87972730Y-129551123D01*
X87799682Y-129435497D01*
X87595559Y-129394894D01*
X86053946Y-129394894D01*
X85974151Y-129314959D01*
X85708183Y-129204520D01*
X85420198Y-129204269D01*
X85154038Y-129314244D01*
X84950224Y-129517702D01*
X84839785Y-129783670D01*
X84839534Y-130071655D01*
X84466459Y-130071655D01*
X83112407Y-128717604D01*
X83112584Y-128514933D01*
X83002609Y-128248773D01*
X82799151Y-128044959D01*
X82533183Y-127934520D01*
X82245198Y-127934269D01*
X81979038Y-128044244D01*
X81775224Y-128247702D01*
X81664785Y-128513670D01*
X81664534Y-128801655D01*
X77778459Y-128801655D01*
X77778459Y-125402070D01*
X77921894Y-125258886D01*
X78032333Y-124992918D01*
X78032584Y-124704933D01*
X77922609Y-124438773D01*
X77719151Y-124234959D01*
X77453183Y-124124520D01*
X77165198Y-124124269D01*
X76899038Y-124234244D01*
X76695224Y-124437702D01*
X76584785Y-124703670D01*
X76584534Y-124991655D01*
X76594350Y-125015412D01*
X76449151Y-124869959D01*
X76183183Y-124759520D01*
X75895198Y-124759269D01*
X75629038Y-124869244D01*
X75425224Y-125072702D01*
X75314785Y-125338670D01*
X75314534Y-125626655D01*
X75324350Y-125650412D01*
X75179151Y-125504959D01*
X74913183Y-125394520D01*
X74625198Y-125394269D01*
X74359038Y-125504244D01*
X74155224Y-125707702D01*
X74044785Y-125973670D01*
X74044534Y-126261655D01*
X74154509Y-126527815D01*
X74298659Y-126672217D01*
X74298659Y-131003655D01*
X74088026Y-131214289D01*
X73974847Y-131138665D01*
X73498559Y-131043925D01*
X73022271Y-131138665D01*
X72618494Y-131408460D01*
X72348699Y-131812237D01*
X72253959Y-132288525D01*
X72253959Y-132648063D01*
X72348699Y-133124351D01*
X72618494Y-133528128D01*
X73022271Y-133797923D01*
X73498559Y-133892663D01*
X73974847Y-133797923D01*
X74378624Y-133528128D01*
X74648419Y-133124351D01*
X74743159Y-132648063D01*
X74743159Y-132288525D01*
X74676746Y-131954646D01*
X75028738Y-131602654D01*
X74888699Y-131812237D01*
X74793959Y-132288525D01*
X74793959Y-132648063D01*
X74888699Y-133124351D01*
X75158494Y-133528128D01*
X75562271Y-133797923D01*
X76038559Y-133892663D01*
X76514847Y-133797923D01*
X76838659Y-133581559D01*
X76838659Y-135008294D01*
X76863921Y-135135293D01*
X76874428Y-135188117D01*
X76875408Y-135189584D01*
X76514847Y-134948665D01*
X76038559Y-134853925D01*
X75562271Y-134948665D01*
X75158494Y-135218460D01*
X74888699Y-135622237D01*
X74793959Y-136098525D01*
X74793959Y-136458063D01*
X74860372Y-136791942D01*
X74508379Y-137143936D01*
X74648419Y-136934351D01*
X74743159Y-136458063D01*
X74743159Y-136098525D01*
X74648419Y-135622237D01*
X74378624Y-135218460D01*
X73974847Y-134948665D01*
X73498559Y-134853925D01*
X73022271Y-134948665D01*
X72618494Y-135218460D01*
X72348699Y-135622237D01*
X72253959Y-136098525D01*
X72253959Y-136458063D01*
X72348699Y-136934351D01*
X72614663Y-137332394D01*
X71466559Y-137332394D01*
X71293377Y-137366842D01*
X71286736Y-137368163D01*
X71134289Y-137470025D01*
X70890921Y-137713394D01*
X68972335Y-137713394D01*
X68829151Y-137569959D01*
X68563183Y-137459520D01*
X68275198Y-137459269D01*
X68009038Y-137569244D01*
X67805224Y-137772702D01*
X67694785Y-138038670D01*
X67694534Y-138326655D01*
X67083897Y-138326655D01*
X67052375Y-138279479D01*
X66417374Y-137644479D01*
X66384437Y-137622471D01*
X66170164Y-137479298D01*
X65878559Y-137421294D01*
X63019190Y-137421294D01*
X62830559Y-137232664D01*
X62830559Y-134688924D01*
X64289189Y-133230294D01*
X65243559Y-133230294D01*
X65535164Y-133172290D01*
X65782374Y-133007109D01*
X67052374Y-131737110D01*
X67166495Y-131566316D01*
X67166495Y-133484294D01*
X67194681Y-133629568D01*
X67278555Y-133757250D01*
X67405175Y-133842720D01*
X67554959Y-133872758D01*
X69282159Y-133872758D01*
X69427433Y-133844572D01*
X69555115Y-133760698D01*
X69640585Y-133634078D01*
X69670623Y-133484294D01*
X69670623Y-131452294D01*
X69642437Y-131307020D01*
X69558563Y-131179338D01*
X69431943Y-131093868D01*
X69282159Y-131063830D01*
X67554959Y-131063830D01*
X67409685Y-131092016D01*
X67282003Y-131175890D01*
X67275559Y-131185436D01*
X67275559Y-130706655D01*
X71504534Y-130706655D01*
X71614509Y-130972815D01*
X71817967Y-131176629D01*
X72083935Y-131287068D01*
X72371920Y-131287319D01*
X72638080Y-131177344D01*
X72841894Y-130973886D01*
X72952333Y-130707918D01*
X72952584Y-130419933D01*
X72842609Y-130153773D01*
X72639151Y-129949959D01*
X72373183Y-129839520D01*
X72085198Y-129839269D01*
X71819038Y-129949244D01*
X71615224Y-130152702D01*
X71504785Y-130418670D01*
X71504534Y-130706655D01*
X67275559Y-130706655D01*
X67275559Y-125626655D01*
X69218534Y-125626655D01*
X69328509Y-125892815D01*
X69531967Y-126096629D01*
X69797935Y-126207068D01*
X70085920Y-126207319D01*
X70352080Y-126097344D01*
X70555894Y-125893886D01*
X70562531Y-125877903D01*
X70655828Y-125815563D01*
X71153198Y-125318194D01*
X74768559Y-125318194D01*
X74948382Y-125282425D01*
X75100828Y-125180563D01*
X76370828Y-123910564D01*
X76472690Y-123758117D01*
X76485631Y-123693056D01*
X76508459Y-123578294D01*
X76508459Y-122862070D01*
X76651894Y-122718886D01*
X76762333Y-122452918D01*
X76762584Y-122164933D01*
X76652609Y-121898773D01*
X76449151Y-121694959D01*
X76183183Y-121584520D01*
X75895198Y-121584269D01*
X75629038Y-121694244D01*
X75425224Y-121897702D01*
X75314785Y-122163670D01*
X75314534Y-122451655D01*
X75424509Y-122717815D01*
X75568659Y-122862217D01*
X75568659Y-123383655D01*
X74573921Y-124378394D01*
X70958559Y-124378394D01*
X70778736Y-124414163D01*
X70626290Y-124516024D01*
X70296061Y-124846253D01*
X70087183Y-124759520D01*
X69799198Y-124759269D01*
X69533038Y-124869244D01*
X69329224Y-125072702D01*
X69218785Y-125338670D01*
X69218534Y-125626655D01*
X67275559Y-125626655D01*
X67275559Y-123578294D01*
X67217555Y-123286689D01*
X67122322Y-123144163D01*
X67052375Y-123039479D01*
X63273189Y-119260294D01*
X63338559Y-119260294D01*
X63630164Y-119202290D01*
X63877374Y-119037109D01*
X64257126Y-118657357D01*
X77219534Y-118657357D01*
X77329509Y-118923517D01*
X77532967Y-119127331D01*
X77798935Y-119237770D01*
X78086920Y-119238021D01*
X78353080Y-119128046D01*
X78556894Y-118924588D01*
X78667333Y-118658620D01*
X78667584Y-118370635D01*
X78557609Y-118104475D01*
X78462346Y-118009045D01*
X78773198Y-117698194D01*
X86279783Y-117698194D01*
X86365032Y-117783592D01*
X86343183Y-117774520D01*
X86055198Y-117774269D01*
X85789038Y-117884244D01*
X85644636Y-118028394D01*
X83023559Y-118028394D01*
X82843736Y-118064163D01*
X82691290Y-118166024D01*
X81040290Y-119817025D01*
X80938428Y-119969471D01*
X80914020Y-120092176D01*
X80759224Y-120246702D01*
X80648785Y-120512670D01*
X80648534Y-120800655D01*
X80758509Y-121066815D01*
X80961967Y-121270629D01*
X81227935Y-121381068D01*
X81515920Y-121381319D01*
X81782080Y-121271344D01*
X81985894Y-121067886D01*
X82096333Y-120801918D01*
X82096584Y-120513933D01*
X81986609Y-120247773D01*
X81962635Y-120223757D01*
X83218198Y-118968194D01*
X85644783Y-118968194D01*
X85787967Y-119111629D01*
X86053935Y-119222068D01*
X86341920Y-119222319D01*
X86608080Y-119112344D01*
X86811894Y-118908886D01*
X86922333Y-118642918D01*
X86922584Y-118354933D01*
X86812609Y-118088773D01*
X86667086Y-117942996D01*
X86688935Y-117952068D01*
X86976920Y-117952319D01*
X87243080Y-117842344D01*
X87446894Y-117638886D01*
X87557333Y-117372918D01*
X87557584Y-117084933D01*
X87447609Y-116818773D01*
X87244151Y-116614959D01*
X86978183Y-116504520D01*
X86690198Y-116504269D01*
X86424038Y-116614244D01*
X86279636Y-116758394D01*
X78578559Y-116758394D01*
X78398736Y-116794163D01*
X78246290Y-116896024D01*
X77611290Y-117531025D01*
X77509428Y-117683471D01*
X77473659Y-117863294D01*
X77473659Y-117960220D01*
X77330224Y-118103404D01*
X77219785Y-118369372D01*
X77219534Y-118657357D01*
X64257126Y-118657357D01*
X67052374Y-115862109D01*
X67217555Y-115614899D01*
X67217555Y-115614898D01*
X67275559Y-115323294D01*
X67275559Y-113733924D01*
X67517484Y-113492000D01*
X75131693Y-113492000D01*
X75050731Y-113546097D01*
X74747899Y-113999316D01*
X74641559Y-114533925D01*
X74641559Y-114588663D01*
X74747899Y-115123272D01*
X75050731Y-115576491D01*
X75503950Y-115879323D01*
X76038559Y-115985663D01*
X76573168Y-115879323D01*
X77026387Y-115576491D01*
X77329219Y-115123272D01*
X77435559Y-114588663D01*
X77435559Y-114533925D01*
X77329219Y-113999316D01*
X77026387Y-113546097D01*
X76945425Y-113492000D01*
X79434370Y-113492000D01*
X79811436Y-113869066D01*
X79811436Y-115529590D01*
X79839622Y-115674864D01*
X79923496Y-115802546D01*
X80050116Y-115888016D01*
X80199900Y-115918054D01*
X81800100Y-115918054D01*
X81945374Y-115889868D01*
X82073056Y-115805994D01*
X82158526Y-115679374D01*
X82188564Y-115529590D01*
X82188564Y-113492000D01*
X83000000Y-113492000D01*
X83291605Y-113433996D01*
X83538815Y-113268815D01*
X83875000Y-112932631D01*
X83961185Y-113018816D01*
X84109377Y-113117834D01*
X84208395Y-113183996D01*
X84262366Y-113194731D01*
X84389744Y-113322110D01*
X84636955Y-113487290D01*
X84928559Y-113545294D01*
X85220164Y-113487290D01*
X85467375Y-113322110D01*
X85467379Y-113322104D01*
X85563559Y-113225924D01*
X85659744Y-113322110D01*
X85659747Y-113322112D01*
X86706559Y-114368925D01*
X86706559Y-115323294D01*
X86764563Y-115614899D01*
X86867502Y-115768957D01*
X86929744Y-115862109D01*
X88199743Y-117132109D01*
X88397032Y-117263933D01*
X88446954Y-117297290D01*
X88738559Y-117355294D01*
X89692929Y-117355294D01*
X90516559Y-118178925D01*
X90516559Y-128468384D01*
X90478784Y-128658294D01*
X90478784Y-128658294D01*
G37*
X90478784Y-128658294D02*
X90516559Y-128848204D01*
X90516559Y-134373294D01*
X90574563Y-134664899D01*
X90683859Y-134828471D01*
X90739744Y-134912109D01*
X91786559Y-135958925D01*
X91786559Y-135962663D01*
X90962929Y-136786294D01*
X89373559Y-136786294D01*
X89081954Y-136844298D01*
X88834743Y-137009479D01*
X87564744Y-138279479D01*
X87399563Y-138526689D01*
X87341559Y-138818294D01*
X87341559Y-140407663D01*
X87152929Y-140596294D01*
X78443925Y-140596294D01*
X78438564Y-140590933D01*
X78438564Y-138430410D01*
X78410378Y-138285136D01*
X78326504Y-138157454D01*
X78199884Y-138071984D01*
X78050100Y-138041946D01*
X76449900Y-138041946D01*
X76304626Y-138070132D01*
X76176944Y-138154006D01*
X76091474Y-138280626D01*
X76061436Y-138430410D01*
X76061436Y-140596294D01*
X70323559Y-140596294D01*
X70031959Y-140654297D01*
X70031954Y-140654298D01*
X69784743Y-140819479D01*
X68737929Y-141866294D01*
X68099190Y-141866294D01*
X67275559Y-141042664D01*
X67275559Y-138818294D01*
X67217555Y-138526689D01*
X67123088Y-138385309D01*
X67083897Y-138326655D01*
X67694534Y-138326655D01*
X67804509Y-138592815D01*
X68007967Y-138796629D01*
X68273935Y-138907068D01*
X68561920Y-138907319D01*
X68828080Y-138797344D01*
X68972482Y-138653194D01*
X71085559Y-138653194D01*
X71265382Y-138617425D01*
X71417828Y-138515563D01*
X71661198Y-138272194D01*
X74514559Y-138272194D01*
X74694382Y-138236425D01*
X74846828Y-138134563D01*
X75449092Y-137532299D01*
X75562271Y-137607923D01*
X76038559Y-137702663D01*
X76514847Y-137607923D01*
X76918624Y-137338128D01*
X77188419Y-136934351D01*
X77283159Y-136458063D01*
X77283159Y-136098525D01*
X77188419Y-135622237D01*
X77048379Y-135412652D01*
X77400372Y-135764645D01*
X77333959Y-136098525D01*
X77333959Y-136458063D01*
X77428699Y-136934351D01*
X77698494Y-137338128D01*
X78102271Y-137607923D01*
X78578559Y-137702663D01*
X79054847Y-137607923D01*
X79458624Y-137338128D01*
X79728419Y-136934351D01*
X79823159Y-136458063D01*
X79823159Y-136098525D01*
X79873959Y-136098525D01*
X79873959Y-136458063D01*
X79968699Y-136934351D01*
X80238494Y-137338128D01*
X80642271Y-137607923D01*
X81118559Y-137702663D01*
X81594847Y-137607923D01*
X81998624Y-137338128D01*
X82268419Y-136934351D01*
X82363159Y-136458063D01*
X82363159Y-136098525D01*
X82413959Y-136098525D01*
X82413959Y-136458063D01*
X82508699Y-136934351D01*
X82778494Y-137338128D01*
X83182271Y-137607923D01*
X83658559Y-137702663D01*
X84134847Y-137607923D01*
X84538624Y-137338128D01*
X84808419Y-136934351D01*
X84903159Y-136458063D01*
X84903159Y-136098525D01*
X84808419Y-135622237D01*
X84538624Y-135218460D01*
X84134847Y-134948665D01*
X83658559Y-134853925D01*
X83182271Y-134948665D01*
X82778494Y-135218460D01*
X82508699Y-135622237D01*
X82413959Y-136098525D01*
X82363159Y-136098525D01*
X82363159Y-136098525D01*
X82268419Y-135622237D01*
X81998624Y-135218460D01*
X81594847Y-134948665D01*
X81118559Y-134853925D01*
X80642271Y-134948665D01*
X80238494Y-135218460D01*
X79968699Y-135622237D01*
X79873959Y-136098525D01*
X79823159Y-136098525D01*
X79823159Y-136098525D01*
X79728419Y-135622237D01*
X79458624Y-135218460D01*
X79054847Y-134948665D01*
X78578559Y-134853925D01*
X78102271Y-134948665D01*
X77989092Y-135024289D01*
X77778459Y-134813656D01*
X77778459Y-128801655D01*
X81664534Y-128801655D01*
X81774509Y-129067815D01*
X81977967Y-129271629D01*
X82243935Y-129382068D01*
X82447973Y-129382246D01*
X83823659Y-130757933D01*
X83823659Y-131833294D01*
X83848921Y-131960294D01*
X83859428Y-132013117D01*
X83961290Y-132165563D01*
X85474711Y-133678984D01*
X85474534Y-133881655D01*
X85584509Y-134147815D01*
X85787967Y-134351629D01*
X86053935Y-134462068D01*
X86341920Y-134462319D01*
X86608080Y-134352344D01*
X86811894Y-134148886D01*
X86922333Y-133882918D01*
X86922584Y-133594933D01*
X86812609Y-133328773D01*
X86609151Y-133124959D01*
X86343183Y-133014520D01*
X86139146Y-133014342D01*
X84763459Y-131638656D01*
X84763459Y-130563294D01*
X84727690Y-130383471D01*
X84713695Y-130362526D01*
X84625829Y-130231025D01*
X84466459Y-130071655D01*
X84839534Y-130071655D01*
X84949509Y-130337815D01*
X85152967Y-130541629D01*
X85418935Y-130652068D01*
X85706920Y-130652319D01*
X85973080Y-130542344D01*
X86053871Y-130461694D01*
X87374617Y-130461694D01*
X88361388Y-131448465D01*
X88534436Y-131564091D01*
X88738559Y-131604694D01*
X88758219Y-131604694D01*
X88759509Y-131607815D01*
X88962967Y-131811629D01*
X89228935Y-131922068D01*
X89516920Y-131922319D01*
X89783080Y-131812344D01*
X89986894Y-131608886D01*
X90097333Y-131342918D01*
X90097584Y-131054933D01*
X89987609Y-130788773D01*
X89784151Y-130584959D01*
X89518183Y-130474520D01*
X89230198Y-130474269D01*
X89049029Y-130549127D01*
X88992559Y-130537894D01*
X88959501Y-130537894D01*
X87972730Y-129551123D01*
X87799682Y-129435497D01*
X87595559Y-129394894D01*
X86053946Y-129394894D01*
X85974151Y-129314959D01*
X85708183Y-129204520D01*
X85420198Y-129204269D01*
X85154038Y-129314244D01*
X84950224Y-129517702D01*
X84839785Y-129783670D01*
X84839534Y-130071655D01*
X84466459Y-130071655D01*
X83112407Y-128717604D01*
X83112584Y-128514933D01*
X83002609Y-128248773D01*
X82799151Y-128044959D01*
X82533183Y-127934520D01*
X82245198Y-127934269D01*
X81979038Y-128044244D01*
X81775224Y-128247702D01*
X81664785Y-128513670D01*
X81664534Y-128801655D01*
X77778459Y-128801655D01*
X77778459Y-125402070D01*
X77921894Y-125258886D01*
X78032333Y-124992918D01*
X78032584Y-124704933D01*
X77922609Y-124438773D01*
X77719151Y-124234959D01*
X77453183Y-124124520D01*
X77165198Y-124124269D01*
X76899038Y-124234244D01*
X76695224Y-124437702D01*
X76584785Y-124703670D01*
X76584534Y-124991655D01*
X76594350Y-125015412D01*
X76449151Y-124869959D01*
X76183183Y-124759520D01*
X75895198Y-124759269D01*
X75629038Y-124869244D01*
X75425224Y-125072702D01*
X75314785Y-125338670D01*
X75314534Y-125626655D01*
X75324350Y-125650412D01*
X75179151Y-125504959D01*
X74913183Y-125394520D01*
X74625198Y-125394269D01*
X74359038Y-125504244D01*
X74155224Y-125707702D01*
X74044785Y-125973670D01*
X74044534Y-126261655D01*
X74154509Y-126527815D01*
X74298659Y-126672217D01*
X74298659Y-131003655D01*
X74088026Y-131214289D01*
X73974847Y-131138665D01*
X73498559Y-131043925D01*
X73022271Y-131138665D01*
X72618494Y-131408460D01*
X72348699Y-131812237D01*
X72253959Y-132288525D01*
X72253959Y-132648063D01*
X72348699Y-133124351D01*
X72618494Y-133528128D01*
X73022271Y-133797923D01*
X73498559Y-133892663D01*
X73974847Y-133797923D01*
X74378624Y-133528128D01*
X74648419Y-133124351D01*
X74743159Y-132648063D01*
X74743159Y-132288525D01*
X74676746Y-131954646D01*
X75028738Y-131602654D01*
X74888699Y-131812237D01*
X74793959Y-132288525D01*
X74793959Y-132648063D01*
X74888699Y-133124351D01*
X75158494Y-133528128D01*
X75562271Y-133797923D01*
X76038559Y-133892663D01*
X76514847Y-133797923D01*
X76838659Y-133581559D01*
X76838659Y-135008294D01*
X76863921Y-135135293D01*
X76874428Y-135188117D01*
X76875408Y-135189584D01*
X76514847Y-134948665D01*
X76038559Y-134853925D01*
X75562271Y-134948665D01*
X75158494Y-135218460D01*
X74888699Y-135622237D01*
X74793959Y-136098525D01*
X74793959Y-136458063D01*
X74860372Y-136791942D01*
X74508379Y-137143936D01*
X74648419Y-136934351D01*
X74743159Y-136458063D01*
X74743159Y-136098525D01*
X74648419Y-135622237D01*
X74378624Y-135218460D01*
X73974847Y-134948665D01*
X73498559Y-134853925D01*
X73022271Y-134948665D01*
X72618494Y-135218460D01*
X72348699Y-135622237D01*
X72253959Y-136098525D01*
X72253959Y-136458063D01*
X72348699Y-136934351D01*
X72614663Y-137332394D01*
X71466559Y-137332394D01*
X71293377Y-137366842D01*
X71286736Y-137368163D01*
X71134289Y-137470025D01*
X70890921Y-137713394D01*
X68972335Y-137713394D01*
X68829151Y-137569959D01*
X68563183Y-137459520D01*
X68275198Y-137459269D01*
X68009038Y-137569244D01*
X67805224Y-137772702D01*
X67694785Y-138038670D01*
X67694534Y-138326655D01*
X67083897Y-138326655D01*
X67052375Y-138279479D01*
X66417374Y-137644479D01*
X66384437Y-137622471D01*
X66170164Y-137479298D01*
X65878559Y-137421294D01*
X63019190Y-137421294D01*
X62830559Y-137232664D01*
X62830559Y-134688924D01*
X64289189Y-133230294D01*
X65243559Y-133230294D01*
X65535164Y-133172290D01*
X65782374Y-133007109D01*
X67052374Y-131737110D01*
X67166495Y-131566316D01*
X67166495Y-133484294D01*
X67194681Y-133629568D01*
X67278555Y-133757250D01*
X67405175Y-133842720D01*
X67554959Y-133872758D01*
X69282159Y-133872758D01*
X69427433Y-133844572D01*
X69555115Y-133760698D01*
X69640585Y-133634078D01*
X69670623Y-133484294D01*
X69670623Y-131452294D01*
X69642437Y-131307020D01*
X69558563Y-131179338D01*
X69431943Y-131093868D01*
X69282159Y-131063830D01*
X67554959Y-131063830D01*
X67409685Y-131092016D01*
X67282003Y-131175890D01*
X67275559Y-131185436D01*
X67275559Y-130706655D01*
X71504534Y-130706655D01*
X71614509Y-130972815D01*
X71817967Y-131176629D01*
X72083935Y-131287068D01*
X72371920Y-131287319D01*
X72638080Y-131177344D01*
X72841894Y-130973886D01*
X72952333Y-130707918D01*
X72952584Y-130419933D01*
X72842609Y-130153773D01*
X72639151Y-129949959D01*
X72373183Y-129839520D01*
X72085198Y-129839269D01*
X71819038Y-129949244D01*
X71615224Y-130152702D01*
X71504785Y-130418670D01*
X71504534Y-130706655D01*
X67275559Y-130706655D01*
X67275559Y-125626655D01*
X69218534Y-125626655D01*
X69328509Y-125892815D01*
X69531967Y-126096629D01*
X69797935Y-126207068D01*
X70085920Y-126207319D01*
X70352080Y-126097344D01*
X70555894Y-125893886D01*
X70562531Y-125877903D01*
X70655828Y-125815563D01*
X71153198Y-125318194D01*
X74768559Y-125318194D01*
X74948382Y-125282425D01*
X75100828Y-125180563D01*
X76370828Y-123910564D01*
X76472690Y-123758117D01*
X76485631Y-123693056D01*
X76508459Y-123578294D01*
X76508459Y-122862070D01*
X76651894Y-122718886D01*
X76762333Y-122452918D01*
X76762584Y-122164933D01*
X76652609Y-121898773D01*
X76449151Y-121694959D01*
X76183183Y-121584520D01*
X75895198Y-121584269D01*
X75629038Y-121694244D01*
X75425224Y-121897702D01*
X75314785Y-122163670D01*
X75314534Y-122451655D01*
X75424509Y-122717815D01*
X75568659Y-122862217D01*
X75568659Y-123383655D01*
X74573921Y-124378394D01*
X70958559Y-124378394D01*
X70778736Y-124414163D01*
X70626290Y-124516024D01*
X70296061Y-124846253D01*
X70087183Y-124759520D01*
X69799198Y-124759269D01*
X69533038Y-124869244D01*
X69329224Y-125072702D01*
X69218785Y-125338670D01*
X69218534Y-125626655D01*
X67275559Y-125626655D01*
X67275559Y-123578294D01*
X67217555Y-123286689D01*
X67122322Y-123144163D01*
X67052375Y-123039479D01*
X63273189Y-119260294D01*
X63338559Y-119260294D01*
X63630164Y-119202290D01*
X63877374Y-119037109D01*
X64257126Y-118657357D01*
X77219534Y-118657357D01*
X77329509Y-118923517D01*
X77532967Y-119127331D01*
X77798935Y-119237770D01*
X78086920Y-119238021D01*
X78353080Y-119128046D01*
X78556894Y-118924588D01*
X78667333Y-118658620D01*
X78667584Y-118370635D01*
X78557609Y-118104475D01*
X78462346Y-118009045D01*
X78773198Y-117698194D01*
X86279783Y-117698194D01*
X86365032Y-117783592D01*
X86343183Y-117774520D01*
X86055198Y-117774269D01*
X85789038Y-117884244D01*
X85644636Y-118028394D01*
X83023559Y-118028394D01*
X82843736Y-118064163D01*
X82691290Y-118166024D01*
X81040290Y-119817025D01*
X80938428Y-119969471D01*
X80914020Y-120092176D01*
X80759224Y-120246702D01*
X80648785Y-120512670D01*
X80648534Y-120800655D01*
X80758509Y-121066815D01*
X80961967Y-121270629D01*
X81227935Y-121381068D01*
X81515920Y-121381319D01*
X81782080Y-121271344D01*
X81985894Y-121067886D01*
X82096333Y-120801918D01*
X82096584Y-120513933D01*
X81986609Y-120247773D01*
X81962635Y-120223757D01*
X83218198Y-118968194D01*
X85644783Y-118968194D01*
X85787967Y-119111629D01*
X86053935Y-119222068D01*
X86341920Y-119222319D01*
X86608080Y-119112344D01*
X86811894Y-118908886D01*
X86922333Y-118642918D01*
X86922584Y-118354933D01*
X86812609Y-118088773D01*
X86667086Y-117942996D01*
X86688935Y-117952068D01*
X86976920Y-117952319D01*
X87243080Y-117842344D01*
X87446894Y-117638886D01*
X87557333Y-117372918D01*
X87557584Y-117084933D01*
X87447609Y-116818773D01*
X87244151Y-116614959D01*
X86978183Y-116504520D01*
X86690198Y-116504269D01*
X86424038Y-116614244D01*
X86279636Y-116758394D01*
X78578559Y-116758394D01*
X78398736Y-116794163D01*
X78246290Y-116896024D01*
X77611290Y-117531025D01*
X77509428Y-117683471D01*
X77473659Y-117863294D01*
X77473659Y-117960220D01*
X77330224Y-118103404D01*
X77219785Y-118369372D01*
X77219534Y-118657357D01*
X64257126Y-118657357D01*
X67052374Y-115862109D01*
X67217555Y-115614899D01*
X67217555Y-115614898D01*
X67275559Y-115323294D01*
X67275559Y-113733924D01*
X67517484Y-113492000D01*
X75131693Y-113492000D01*
X75050731Y-113546097D01*
X74747899Y-113999316D01*
X74641559Y-114533925D01*
X74641559Y-114588663D01*
X74747899Y-115123272D01*
X75050731Y-115576491D01*
X75503950Y-115879323D01*
X76038559Y-115985663D01*
X76573168Y-115879323D01*
X77026387Y-115576491D01*
X77329219Y-115123272D01*
X77435559Y-114588663D01*
X77435559Y-114533925D01*
X77329219Y-113999316D01*
X77026387Y-113546097D01*
X76945425Y-113492000D01*
X79434370Y-113492000D01*
X79811436Y-113869066D01*
X79811436Y-115529590D01*
X79839622Y-115674864D01*
X79923496Y-115802546D01*
X80050116Y-115888016D01*
X80199900Y-115918054D01*
X81800100Y-115918054D01*
X81945374Y-115889868D01*
X82073056Y-115805994D01*
X82158526Y-115679374D01*
X82188564Y-115529590D01*
X82188564Y-113492000D01*
X83000000Y-113492000D01*
X83291605Y-113433996D01*
X83538815Y-113268815D01*
X83875000Y-112932631D01*
X83961185Y-113018816D01*
X84109377Y-113117834D01*
X84208395Y-113183996D01*
X84262366Y-113194731D01*
X84389744Y-113322110D01*
X84636955Y-113487290D01*
X84928559Y-113545294D01*
X85220164Y-113487290D01*
X85467375Y-113322110D01*
X85467379Y-113322104D01*
X85563559Y-113225924D01*
X85659744Y-113322110D01*
X85659747Y-113322112D01*
X86706559Y-114368925D01*
X86706559Y-115323294D01*
X86764563Y-115614899D01*
X86867502Y-115768957D01*
X86929744Y-115862109D01*
X88199743Y-117132109D01*
X88397032Y-117263933D01*
X88446954Y-117297290D01*
X88738559Y-117355294D01*
X89692929Y-117355294D01*
X90516559Y-118178925D01*
X90516559Y-128468384D01*
X90478784Y-128658294D01*
G36*
X75568659Y-126037217D02*
X75568659Y-131137394D01*
X75562271Y-131138665D01*
X75201710Y-131379584D01*
X75202690Y-131378117D01*
X75205618Y-131363395D01*
X75238459Y-131198294D01*
X75238459Y-126672070D01*
X75381894Y-126528886D01*
X75492333Y-126262918D01*
X75492584Y-125974933D01*
X75482768Y-125951176D01*
X75568659Y-126037217D01*
X75568659Y-126037217D01*
G37*
X75568659Y-126037217D02*
X75568659Y-131137394D01*
X75562271Y-131138665D01*
X75201710Y-131379584D01*
X75202690Y-131378117D01*
X75205618Y-131363395D01*
X75238459Y-131198294D01*
X75238459Y-126672070D01*
X75381894Y-126528886D01*
X75492333Y-126262918D01*
X75492584Y-125974933D01*
X75482768Y-125951176D01*
X75568659Y-126037217D01*
G36*
X65751559Y-123893925D02*
X65751559Y-130882663D01*
X64927929Y-131706294D01*
X64489316Y-131706294D01*
X64586894Y-131608886D01*
X64697333Y-131342918D01*
X64697511Y-131138880D01*
X65575828Y-130260564D01*
X65677690Y-130108117D01*
X65680619Y-130093394D01*
X65713459Y-129928294D01*
X65713459Y-127388294D01*
X65677690Y-127208471D01*
X65664631Y-127188927D01*
X65575829Y-127056025D01*
X64940828Y-126421025D01*
X64788382Y-126319163D01*
X64616023Y-126284879D01*
X64616023Y-125864294D01*
X64587837Y-125719020D01*
X64503963Y-125591338D01*
X64377343Y-125505868D01*
X64227559Y-125475830D01*
X62449559Y-125475830D01*
X62304285Y-125504016D01*
X62242677Y-125544486D01*
X62195559Y-125316302D01*
X62195559Y-120337924D01*
X65751559Y-123893925D01*
X65751559Y-123893925D01*
G37*
X65751559Y-123893925D02*
X65751559Y-130882663D01*
X64927929Y-131706294D01*
X64489316Y-131706294D01*
X64586894Y-131608886D01*
X64697333Y-131342918D01*
X64697511Y-131138880D01*
X65575828Y-130260564D01*
X65677690Y-130108117D01*
X65680619Y-130093394D01*
X65713459Y-129928294D01*
X65713459Y-127388294D01*
X65677690Y-127208471D01*
X65664631Y-127188927D01*
X65575829Y-127056025D01*
X64940828Y-126421025D01*
X64788382Y-126319163D01*
X64616023Y-126284879D01*
X64616023Y-125864294D01*
X64587837Y-125719020D01*
X64503963Y-125591338D01*
X64377343Y-125505868D01*
X64227559Y-125475830D01*
X62449559Y-125475830D01*
X62304285Y-125504016D01*
X62242677Y-125544486D01*
X62195559Y-125316302D01*
X62195559Y-120337924D01*
X65751559Y-123893925D01*
G36*
X111784037Y-118176077D02*
X111873527Y-118235872D01*
X111931628Y-118321801D01*
X112758780Y-122058661D01*
X112626160Y-122058661D01*
X112467410Y-122217411D01*
X112467410Y-123455661D01*
X112487410Y-123455661D01*
X112487410Y-123709661D01*
X112467410Y-123709661D01*
X112467410Y-123729661D01*
X112213410Y-123729661D01*
X112213410Y-123709661D01*
X110975160Y-123709661D01*
X110816410Y-123868411D01*
X110816410Y-124597970D01*
X110913083Y-124831359D01*
X111091711Y-125009988D01*
X111203508Y-125056296D01*
X111164669Y-125113834D01*
X111140639Y-125233661D01*
X111140639Y-125705568D01*
X110841184Y-125705568D01*
X110666221Y-125740370D01*
X110517895Y-125839479D01*
X110017895Y-126339479D01*
X109918786Y-126487805D01*
X109883984Y-126662768D01*
X109883984Y-129703983D01*
X109792411Y-129795396D01*
X109693597Y-130033367D01*
X109693372Y-130291038D01*
X109791771Y-130529181D01*
X109973812Y-130711541D01*
X110211783Y-130810355D01*
X110469454Y-130810580D01*
X110707597Y-130712181D01*
X110889957Y-130530140D01*
X110988771Y-130292169D01*
X110988996Y-130034498D01*
X110890597Y-129796355D01*
X110798384Y-129703980D01*
X110798384Y-126852146D01*
X111030562Y-126619968D01*
X111140639Y-126619968D01*
X111140639Y-127011661D01*
X111163188Y-127127880D01*
X111230287Y-127230026D01*
X111331583Y-127298402D01*
X111451410Y-127322432D01*
X113229410Y-127322432D01*
X113345629Y-127299883D01*
X113447775Y-127232784D01*
X113516151Y-127131488D01*
X113540181Y-127011661D01*
X113540181Y-125588834D01*
X113569322Y-125720484D01*
X113714184Y-127169105D01*
X113714184Y-128212118D01*
X113540181Y-128998219D01*
X113540181Y-127773661D01*
X113517632Y-127657442D01*
X113450533Y-127555296D01*
X113349237Y-127486920D01*
X113229410Y-127462890D01*
X111451410Y-127462890D01*
X111335191Y-127485439D01*
X111233045Y-127552538D01*
X111164669Y-127653834D01*
X111140639Y-127773661D01*
X111140639Y-129551661D01*
X111163188Y-129667880D01*
X111230287Y-129770026D01*
X111331583Y-129838402D01*
X111451410Y-129862432D01*
X111883984Y-129862432D01*
X111883984Y-129973389D01*
X111342305Y-130515069D01*
X111212914Y-130514956D01*
X110974771Y-130613355D01*
X110792411Y-130795396D01*
X110693597Y-131033367D01*
X110693372Y-131291038D01*
X110791771Y-131529181D01*
X110973812Y-131711541D01*
X111211783Y-131810355D01*
X111469454Y-131810580D01*
X111707597Y-131712181D01*
X111889957Y-131530140D01*
X111988771Y-131292169D01*
X111988885Y-131161645D01*
X112664474Y-130486057D01*
X112763582Y-130337731D01*
X112798384Y-130162768D01*
X112798384Y-129862432D01*
X113229410Y-129862432D01*
X113345629Y-129839883D01*
X113355283Y-129833542D01*
X111958378Y-136144400D01*
X111845470Y-136370216D01*
X111780408Y-136412662D01*
X111645507Y-136438726D01*
X95764528Y-136438726D01*
X95625012Y-136410975D01*
X95536366Y-136351743D01*
X95477133Y-136263094D01*
X95468184Y-136218106D01*
X95468184Y-125370057D01*
X99182194Y-125370057D01*
X99296799Y-125647424D01*
X99508824Y-125859819D01*
X99785990Y-125974909D01*
X100086101Y-125975170D01*
X100363468Y-125860565D01*
X100575863Y-125648540D01*
X100690953Y-125371374D01*
X100691214Y-125071263D01*
X100576609Y-124793896D01*
X100364584Y-124581501D01*
X100087418Y-124466411D01*
X99787307Y-124466150D01*
X99509940Y-124580755D01*
X99297545Y-124792780D01*
X99182455Y-125069946D01*
X99182194Y-125370057D01*
X95468184Y-125370057D01*
X95468184Y-122567352D01*
X110816410Y-122567352D01*
X110816410Y-123296911D01*
X110975160Y-123455661D01*
X112213410Y-123455661D01*
X112213410Y-122217411D01*
X112054660Y-122058661D01*
X111325100Y-122058661D01*
X111091711Y-122155334D01*
X110913083Y-122333963D01*
X110816410Y-122567352D01*
X95468184Y-122567352D01*
X95468184Y-120970777D01*
X99182194Y-120970777D01*
X99296799Y-121248144D01*
X99508824Y-121460539D01*
X99785990Y-121575629D01*
X100086101Y-121575890D01*
X100363468Y-121461285D01*
X100575863Y-121249260D01*
X100690953Y-120972094D01*
X100691214Y-120671983D01*
X100576609Y-120394616D01*
X100364584Y-120182221D01*
X100087418Y-120067131D01*
X99787307Y-120066870D01*
X99509940Y-120181475D01*
X99297545Y-120393500D01*
X99182455Y-120670666D01*
X99182194Y-120970777D01*
X95468184Y-120970777D01*
X95468184Y-118368946D01*
X95477133Y-118323958D01*
X95536366Y-118235309D01*
X95625012Y-118176077D01*
X95764528Y-118148326D01*
X111644524Y-118148326D01*
X111784037Y-118176077D01*
X111784037Y-118176077D01*
G37*
X111784037Y-118176077D02*
X111873527Y-118235872D01*
X111931628Y-118321801D01*
X112758780Y-122058661D01*
X112626160Y-122058661D01*
X112467410Y-122217411D01*
X112467410Y-123455661D01*
X112487410Y-123455661D01*
X112487410Y-123709661D01*
X112467410Y-123709661D01*
X112467410Y-123729661D01*
X112213410Y-123729661D01*
X112213410Y-123709661D01*
X110975160Y-123709661D01*
X110816410Y-123868411D01*
X110816410Y-124597970D01*
X110913083Y-124831359D01*
X111091711Y-125009988D01*
X111203508Y-125056296D01*
X111164669Y-125113834D01*
X111140639Y-125233661D01*
X111140639Y-125705568D01*
X110841184Y-125705568D01*
X110666221Y-125740370D01*
X110517895Y-125839479D01*
X110017895Y-126339479D01*
X109918786Y-126487805D01*
X109883984Y-126662768D01*
X109883984Y-129703983D01*
X109792411Y-129795396D01*
X109693597Y-130033367D01*
X109693372Y-130291038D01*
X109791771Y-130529181D01*
X109973812Y-130711541D01*
X110211783Y-130810355D01*
X110469454Y-130810580D01*
X110707597Y-130712181D01*
X110889957Y-130530140D01*
X110988771Y-130292169D01*
X110988996Y-130034498D01*
X110890597Y-129796355D01*
X110798384Y-129703980D01*
X110798384Y-126852146D01*
X111030562Y-126619968D01*
X111140639Y-126619968D01*
X111140639Y-127011661D01*
X111163188Y-127127880D01*
X111230287Y-127230026D01*
X111331583Y-127298402D01*
X111451410Y-127322432D01*
X113229410Y-127322432D01*
X113345629Y-127299883D01*
X113447775Y-127232784D01*
X113516151Y-127131488D01*
X113540181Y-127011661D01*
X113540181Y-125588834D01*
X113569322Y-125720484D01*
X113714184Y-127169105D01*
X113714184Y-128212118D01*
X113540181Y-128998219D01*
X113540181Y-127773661D01*
X113517632Y-127657442D01*
X113450533Y-127555296D01*
X113349237Y-127486920D01*
X113229410Y-127462890D01*
X111451410Y-127462890D01*
X111335191Y-127485439D01*
X111233045Y-127552538D01*
X111164669Y-127653834D01*
X111140639Y-127773661D01*
X111140639Y-129551661D01*
X111163188Y-129667880D01*
X111230287Y-129770026D01*
X111331583Y-129838402D01*
X111451410Y-129862432D01*
X111883984Y-129862432D01*
X111883984Y-129973389D01*
X111342305Y-130515069D01*
X111212914Y-130514956D01*
X110974771Y-130613355D01*
X110792411Y-130795396D01*
X110693597Y-131033367D01*
X110693372Y-131291038D01*
X110791771Y-131529181D01*
X110973812Y-131711541D01*
X111211783Y-131810355D01*
X111469454Y-131810580D01*
X111707597Y-131712181D01*
X111889957Y-131530140D01*
X111988771Y-131292169D01*
X111988885Y-131161645D01*
X112664474Y-130486057D01*
X112763582Y-130337731D01*
X112798384Y-130162768D01*
X112798384Y-129862432D01*
X113229410Y-129862432D01*
X113345629Y-129839883D01*
X113355283Y-129833542D01*
X111958378Y-136144400D01*
X111845470Y-136370216D01*
X111780408Y-136412662D01*
X111645507Y-136438726D01*
X95764528Y-136438726D01*
X95625012Y-136410975D01*
X95536366Y-136351743D01*
X95477133Y-136263094D01*
X95468184Y-136218106D01*
X95468184Y-125370057D01*
X99182194Y-125370057D01*
X99296799Y-125647424D01*
X99508824Y-125859819D01*
X99785990Y-125974909D01*
X100086101Y-125975170D01*
X100363468Y-125860565D01*
X100575863Y-125648540D01*
X100690953Y-125371374D01*
X100691214Y-125071263D01*
X100576609Y-124793896D01*
X100364584Y-124581501D01*
X100087418Y-124466411D01*
X99787307Y-124466150D01*
X99509940Y-124580755D01*
X99297545Y-124792780D01*
X99182455Y-125069946D01*
X99182194Y-125370057D01*
X95468184Y-125370057D01*
X95468184Y-122567352D01*
X110816410Y-122567352D01*
X110816410Y-123296911D01*
X110975160Y-123455661D01*
X112213410Y-123455661D01*
X112213410Y-122217411D01*
X112054660Y-122058661D01*
X111325100Y-122058661D01*
X111091711Y-122155334D01*
X110913083Y-122333963D01*
X110816410Y-122567352D01*
X95468184Y-122567352D01*
X95468184Y-120970777D01*
X99182194Y-120970777D01*
X99296799Y-121248144D01*
X99508824Y-121460539D01*
X99785990Y-121575629D01*
X100086101Y-121575890D01*
X100363468Y-121461285D01*
X100575863Y-121249260D01*
X100690953Y-120972094D01*
X100691214Y-120671983D01*
X100576609Y-120394616D01*
X100364584Y-120182221D01*
X100087418Y-120067131D01*
X99787307Y-120066870D01*
X99509940Y-120181475D01*
X99297545Y-120393500D01*
X99182455Y-120670666D01*
X99182194Y-120970777D01*
X95468184Y-120970777D01*
X95468184Y-118368946D01*
X95477133Y-118323958D01*
X95536366Y-118235309D01*
X95625012Y-118176077D01*
X95764528Y-118148326D01*
X111644524Y-118148326D01*
X111784037Y-118176077D01*
M02*
