G04 #@! TF.FileFunction,Legend,Top*
%FSLAX46Y46*%
G04 Gerber Fmt 4.6, Leading zero omitted, Abs format (unit mm)*
G04 Created by KiCad (PCBNEW (2015-07-22 BZR 5980)-product) date Tuesday, September 08, 2015 'amt' 09:17:54 am*
%MOMM*%
G01*
G04 APERTURE LIST*
%ADD10C,0.100000*%
%ADD11C,0.250000*%
%ADD12C,0.200000*%
%ADD13C,0.350000*%
%ADD14C,0.150000*%
%ADD15C,0.738000*%
%ADD16C,0.152400*%
%ADD17C,0.300000*%
%ADD18C,0.114300*%
%ADD19C,0.190500*%
G04 APERTURE END LIST*
D10*
X142612033Y-67531809D02*
G75*
G02X143950363Y-67434557I737967J-898191D01*
G01*
X136378963Y-72297638D02*
G75*
G02X136924706Y-71685795I942287J-291174D01*
G01*
X136484264Y-72588288D02*
G75*
G02X136378963Y-72297640I118703J207405D01*
G01*
X137241377Y-72805970D02*
G75*
G02X136484262Y-72588289I740666J4001617D01*
G01*
X141618920Y-72470375D02*
G75*
G02X141881731Y-71971228I757232J-79937D01*
G01*
X141881730Y-71971227D02*
G75*
G02X142502827Y-71754674I862751J-1475503D01*
G01*
X141325963Y-64543808D02*
G75*
G02X141093167Y-65325725I-1965580J159588D01*
G01*
X142314466Y-65023303D02*
G75*
G02X142007952Y-65133646I-181646J23688D01*
G01*
X142881731Y-65071227D02*
G75*
G02X142314465Y-65023303I-267180J218715D01*
G01*
X147432370Y-72851264D02*
G75*
G02X148210005Y-73455775I-805340J-1838403D01*
G01*
X148210006Y-73455775D02*
G75*
G02X147892140Y-73824726I-168897J-175891D01*
G01*
X147081729Y-73571227D02*
G75*
G02X147892140Y-73824726I-159509J-1932087D01*
G01*
X147081731Y-73571227D02*
G75*
G02X147255538Y-74611029I-854531J-677265D01*
G01*
X136924706Y-71685795D02*
X136924706Y-71685795D01*
X137394255Y-69060071D02*
G75*
G02X137402015Y-71535689I-859100J-1240514D01*
G01*
X139566169Y-71656098D02*
G75*
G02X139835658Y-72087589I-166537J-403911D01*
G01*
X139835658Y-72087589D02*
G75*
G02X139481730Y-72171227I-253928J283866D01*
G01*
X143950363Y-67434557D02*
X143950363Y-67434557D01*
X144328630Y-67082131D02*
X144328630Y-67082131D01*
X145181731Y-65371228D02*
G75*
G02X144481730Y-65771228I-950001J850001D01*
G01*
X145345534Y-66347908D02*
G75*
G02X145170484Y-65383633I1396502J751541D01*
G01*
X145693617Y-66259102D02*
G75*
G02X145345533Y-66347909I-231697J181576D01*
G01*
X145693615Y-66259103D02*
G75*
G02X145939492Y-66437349I111682J-104651D01*
G01*
X149381730Y-64771227D02*
G75*
G02X149733271Y-65262417I-602846J-802845D01*
G01*
X145781731Y-64371227D02*
G75*
G02X149381730Y-64771228I1449999J-3350000D01*
G01*
X145114354Y-64954001D02*
G75*
G02X145781731Y-64371228I2032446J-1653986D01*
G01*
X149373705Y-75306530D02*
G75*
G02X147255538Y-74611029I-302715J2651292D01*
G01*
X149373701Y-75306529D02*
G75*
G02X149781730Y-75471226I77876J-394852D01*
G01*
X149781732Y-75471227D02*
G75*
G02X149481731Y-75871228I-750002J250000D01*
G01*
X137576727Y-67101006D02*
G75*
G02X137356848Y-66307228I951932J691030D01*
G01*
X136645042Y-66911214D02*
G75*
G02X137576727Y-67101008I154207J-1624689D01*
G01*
X136481730Y-67271225D02*
G75*
G02X136645041Y-66911212I165344J142043D01*
G01*
X137241588Y-67767492D02*
G75*
G02X136481730Y-67271227I302863J1293593D01*
G01*
X142739191Y-68670868D02*
G75*
G02X141729452Y-67710793I283251J1308927D01*
G01*
X143854848Y-64911668D02*
G75*
G02X144210655Y-64357324I733763J-79608D01*
G01*
X143591339Y-64042158D02*
G75*
G02X143854848Y-64911666I-925788J-755247D01*
G01*
X143181730Y-64171227D02*
G75*
G02X143591340Y-64042158I236706J-36706D01*
G01*
X141961050Y-64584732D02*
G75*
G02X142156472Y-63725519I1815024J39016D01*
G01*
X141381732Y-64071227D02*
G75*
G02X141961051Y-64584730I-2895051J-3849644D01*
G01*
X141031616Y-64211274D02*
G75*
G02X141381730Y-64071227I225919J-57129D01*
G01*
X142889826Y-71504115D02*
X142262674Y-71504113D01*
X142262674Y-71504113D02*
X142502827Y-71754674D01*
X136381731Y-68071228D02*
G75*
G02X137241588Y-67767493I951810J-1325550D01*
G01*
X136340474Y-68413652D02*
G75*
G02X136381730Y-68071227I134054J157547D01*
G01*
X136940317Y-68918957D02*
G75*
G02X136340475Y-68413653I865230J1635791D01*
G01*
X142557464Y-76841565D02*
G75*
G02X142152930Y-76827576I-199518J86491D01*
G01*
X142705495Y-75957139D02*
G75*
G02X142557462Y-76841565I-2848087J22106D01*
G01*
X143381730Y-76571228D02*
G75*
G02X142705497Y-75957140I1131727J1925635D01*
G01*
X143781730Y-76471229D02*
G75*
G02X143381730Y-76571227I-243465J123864D01*
G01*
X136936458Y-68360374D02*
G75*
G02X137394255Y-69060069I-77267J-550166D01*
G01*
X137781729Y-67971227D02*
G75*
G02X136936458Y-68360375I-1207767J1510816D01*
G01*
X137618196Y-67578101D02*
G75*
G02X137781730Y-67971227I-446649J-416376D01*
G01*
X138033555Y-67391612D02*
G75*
G02X137618195Y-67578101I-311193J137307D01*
G01*
X139503776Y-65360401D02*
G75*
G02X139381729Y-66271227I-1611598J-247642D01*
G01*
X140272487Y-65741977D02*
G75*
G02X139503777Y-65360401I648718J2271982D01*
G01*
X140572850Y-65422692D02*
G75*
G02X140272488Y-65741977I-241293J-73930D01*
G01*
X141093169Y-65325725D02*
G75*
G02X140572853Y-65422694I-372635J555043D01*
G01*
X142260117Y-69156026D02*
X142739188Y-68670867D01*
X147265943Y-66120726D02*
G75*
G02X149384021Y-65425224I1838597J-2026311D01*
G01*
X149733270Y-65262418D02*
G75*
G02X149384021Y-65425224I-255674J92463D01*
G01*
X144902378Y-74200131D02*
X144102498Y-73351257D01*
X144102498Y-73351257D02*
X144102498Y-73351257D01*
X141821534Y-67445134D02*
G75*
G02X144328630Y-67082131I1588853J-2134294D01*
G01*
X144942549Y-66472886D02*
X144328630Y-67082131D01*
X144102498Y-73351259D02*
G75*
G02X141781730Y-72971227I-813739J2306901D01*
G01*
X141781732Y-72971228D02*
G75*
G02X141618920Y-72470375I345020J389045D01*
G01*
X134463112Y-70371257D02*
X136624193Y-71550055D01*
X136624193Y-71550055D02*
X136924706Y-71685795D01*
X142881729Y-65071227D02*
G75*
G02X143323914Y-64680007I1116938J-816937D01*
G01*
X144153300Y-65334029D02*
G75*
G02X143676901Y-65441395I-314613J285375D01*
G01*
X144481731Y-65771227D02*
G75*
G02X144153299Y-65334030I-70279J289166D01*
G01*
X138924251Y-68391556D02*
G75*
G02X139205679Y-68690447I-1112621J-1329553D01*
G01*
X136940315Y-68918958D02*
X134463112Y-70371257D01*
X138132020Y-75043716D02*
G75*
G02X138381730Y-74371226I1280212J-92763D01*
G01*
X138461444Y-75331046D02*
G75*
G02X138132024Y-75043716I-99552J218368D01*
G01*
X139081501Y-74721449D02*
G75*
G02X138461446Y-75331049I-1978469J1392255D01*
G01*
X141481731Y-76571230D02*
G75*
G02X141044578Y-76404447I-177919J189958D01*
G01*
X141964840Y-75965342D02*
G75*
G02X141481730Y-76571227I-1759172J907149D01*
G01*
X142152930Y-76827574D02*
G75*
G02X141964840Y-75965341I5260702J1599216D01*
G01*
X145261992Y-66782537D02*
X144942549Y-66472886D01*
X145261992Y-66782537D02*
X142889825Y-69156025D01*
X144330360Y-74828115D02*
G75*
G02X145170356Y-75231564I-27970J-1134411D01*
G01*
X144081730Y-75071227D02*
G75*
G02X144330359Y-74828114I346159J-105322D01*
G01*
X143481731Y-75571227D02*
G75*
G02X144081731Y-75071227I500000J10000D01*
G01*
X143481731Y-75571228D02*
G75*
G02X143351082Y-76044806I-1004804J22391D01*
G01*
X142452504Y-75567463D02*
G75*
G02X143351082Y-76044806I98529J-898964D01*
G01*
X142452502Y-75567464D02*
G75*
G02X142281730Y-75771226I-290803J70278D01*
G01*
X142281730Y-75771228D02*
G75*
G02X142081730Y-75471228I349999J450000D01*
G01*
X141328783Y-76053536D02*
G75*
G02X142081730Y-75471228I683782J-106208D01*
G01*
X140962174Y-75116324D02*
G75*
G02X141328783Y-76053536I-1296636J-1047515D01*
G01*
X140594358Y-75222581D02*
G75*
G02X140962174Y-75116325I223997J-85643D01*
G01*
X140817961Y-64911667D02*
G75*
G02X141032164Y-64209154I4562946J-1007369D01*
G01*
X140385746Y-64329009D02*
G75*
G02X140817960Y-64911668I-3731855J-3219912D01*
G01*
X139933076Y-64505528D02*
G75*
G02X140385745Y-64329009I250290J26827D01*
G01*
X137333617Y-72355355D02*
G75*
G02X137692793Y-72526847I-13760J-490697D01*
G01*
X137333615Y-72355355D02*
G75*
G02X136973567Y-72161339I10493J450564D01*
G01*
X136973567Y-72161338D02*
G75*
G02X137381731Y-71871226I715341J-574244D01*
G01*
X137402014Y-71535686D02*
G75*
G02X137381731Y-71871226I-93067J-162757D01*
G01*
X139391343Y-64908661D02*
G75*
G02X140062972Y-65172791I-1836345J-5655422D01*
G01*
X139085204Y-65202402D02*
G75*
G02X139391343Y-64908660I273206J21664D01*
G01*
X139081731Y-65871227D02*
G75*
G02X139085205Y-65202402I4058114J313341D01*
G01*
X138370565Y-65261358D02*
G75*
G02X139081731Y-65871228I-291671J-1059694D01*
G01*
X143371896Y-68038603D02*
X143950363Y-67434557D01*
X147256410Y-66434359D02*
G75*
G02X147097404Y-67102330I-1948968J111027D01*
G01*
X147796926Y-66858896D02*
G75*
G02X148124863Y-67038871I43184J-310071D01*
G01*
X148124863Y-67038871D02*
G75*
G02X147433689Y-67766258I-952887J213372D01*
G01*
X146999900Y-68010580D02*
G75*
G02X146981729Y-67671227I63417J173559D01*
G01*
X147800230Y-68277873D02*
G75*
G02X146999900Y-68010580I-39300J1214148D01*
G01*
X147181731Y-68971227D02*
G75*
G02X147800229Y-68277873I1072093J-333809D01*
G01*
X147349451Y-69306309D02*
G75*
G02X147181731Y-68971228I167513J293362D01*
G01*
X147581729Y-69371228D02*
G75*
G02X147349451Y-69306309I-49998J269109D01*
G01*
X139481730Y-72171227D02*
G75*
G02X138681730Y-70871227I1136275J1595399D01*
G01*
X138681729Y-70871229D02*
G75*
G02X138924248Y-68391556I2922247J965892D01*
G01*
X145114353Y-64954002D02*
X144595240Y-65183660D01*
X144749100Y-64255484D02*
G75*
G02X144595240Y-65183660I-1179013J-281400D01*
G01*
X144210653Y-64357325D02*
G75*
G02X144749100Y-64255482I307103J-149349D01*
G01*
X142889825Y-69156025D02*
X142260117Y-69156026D01*
X147862051Y-69700099D02*
G75*
G02X148414348Y-69539222I709979J-1408927D01*
G01*
X147862051Y-69700096D02*
G75*
G02X148522716Y-70276447I-1351551J-2216102D01*
G01*
X148522715Y-70276448D02*
G75*
G02X147781731Y-70871228I-822453J265669D01*
G01*
X147822803Y-70880227D02*
G75*
G02X148881730Y-71371227I-615979J-2715844D01*
G01*
X140081729Y-76471228D02*
G75*
G02X139981730Y-76071227I588740J359684D01*
G01*
X140581730Y-76071227D02*
G75*
G02X140081730Y-76471227I-986084J720106D01*
G01*
X140581730Y-76071228D02*
G75*
G02X140824221Y-75700318I908616J-329307D01*
G01*
X147433690Y-67766259D02*
G75*
G02X148343395Y-68154238I-53278J-1385417D01*
G01*
X148343394Y-68154237D02*
G75*
G02X147736461Y-68896381I-1041300J232336D01*
G01*
X147736463Y-68896381D02*
G75*
G02X148737890Y-69181624I131717J-1438089D01*
G01*
X148737889Y-69181624D02*
G75*
G02X148414348Y-69539222I-366996J6881D01*
G01*
X147281731Y-69671227D02*
G75*
G02X147543764Y-69375569I359710J-54856D01*
G01*
X147553793Y-70135937D02*
G75*
G02X147281730Y-69671227I247402J456835D01*
G01*
X147553798Y-70135939D02*
G75*
G02X147454565Y-70639078I-116567J-238365D01*
G01*
X147303515Y-71039269D02*
G75*
G02X147510209Y-70629410I265294J123259D01*
G01*
X147642185Y-71267049D02*
G75*
G02X147303516Y-71039266I-49773J291657D01*
G01*
X140440773Y-74879148D02*
G75*
G02X140594357Y-75222583I-203386J-297013D01*
G01*
X140152979Y-74809813D02*
G75*
G02X140440772Y-74879147I57114J-394884D01*
G01*
X139491605Y-75237739D02*
G75*
G02X140152979Y-74809813I1166752J-1078204D01*
G01*
X139281732Y-74271227D02*
G75*
G02X139491605Y-75237737I-905211J-702605D01*
G01*
X138781730Y-74371227D02*
G75*
G02X139285402Y-74275984I298135J-197221D01*
G01*
X138824756Y-73886188D02*
G75*
G02X138781730Y-74371227I-199499J-226731D01*
G01*
X137840694Y-74055579D02*
G75*
G02X138824757Y-73886186I624672J-685858D01*
G01*
X138034193Y-73189632D02*
G75*
G02X137840693Y-74055579I-1841995J-42990D01*
G01*
X137620252Y-73014636D02*
G75*
G02X138034194Y-73189633I136927J-253182D01*
G01*
X137692793Y-72526844D02*
G75*
G02X137620252Y-73014633I-278115J-207929D01*
G01*
X138081731Y-65471228D02*
G75*
G02X138370565Y-65261358I204541J22189D01*
G01*
X137597971Y-66131494D02*
G75*
G02X138407871Y-66278857I-102376J-2861912D01*
G01*
X137381730Y-66271228D02*
G75*
G02X137615671Y-66132182I186441J-47359D01*
G01*
X141729452Y-67710791D02*
G75*
G02X141821535Y-67445136I241368J65122D01*
G01*
X149481731Y-75871227D02*
G75*
G02X145581730Y-76471228I-2518751J3396875D01*
G01*
X145581730Y-76471227D02*
G75*
G02X144881730Y-75771227I850059J1550059D01*
G01*
X143476228Y-72733544D02*
G75*
G02X142581730Y-72571227I-240557J1220200D01*
G01*
X146681729Y-74071228D02*
G75*
G02X146650788Y-73157142I1189083J497816D01*
G01*
X145818980Y-73966197D02*
G75*
G02X146681731Y-74071228I269004J-1386269D01*
G01*
X145638150Y-74268217D02*
G75*
G02X145818979Y-73966197I269749J43636D01*
G01*
X145281732Y-74371228D02*
G75*
G02X145638148Y-74268219I214353J-73558D01*
G01*
X145170355Y-75231564D02*
G75*
G02X145281729Y-74371227I1976858J181465D01*
G01*
X137829229Y-66526155D02*
G75*
G02X138033556Y-67391613I-998350J-692550D01*
G01*
X138806146Y-66718753D02*
G75*
G02X137829228Y-66526156I-270258J1203083D01*
G01*
X138914939Y-66401829D02*
G75*
G02X138806147Y-66718750I-292613J-76686D01*
G01*
X139381730Y-66271226D02*
G75*
G02X138914939Y-66401831I-339594J314258D01*
G01*
X142722167Y-67875796D02*
G75*
G02X142612033Y-67531810I82013J215882D01*
G01*
X142581730Y-72571228D02*
G75*
G02X142817505Y-72091136I333661J134079D01*
G01*
X142817505Y-72091136D02*
X143476230Y-72733545D01*
X143476230Y-72733545D02*
X143476230Y-72733545D01*
X143371896Y-68038602D02*
G75*
G02X142722167Y-67875795I119130J1853296D01*
G01*
X142889826Y-71504115D02*
X145261992Y-73877516D01*
X145261992Y-73877516D02*
X144902378Y-74200131D01*
X147258361Y-71698486D02*
G75*
G02X147642182Y-71267047I307194J113160D01*
G01*
X147681730Y-72271227D02*
G75*
G02X147258361Y-71698484I931155J1131154D01*
G01*
X146892108Y-72741566D02*
G75*
G02X147681730Y-72271227I668579J-224442D01*
G01*
X146929747Y-73028114D02*
G75*
G02X146892106Y-72741566I343176J190826D01*
G01*
X146650789Y-73157143D02*
G75*
G02X146929748Y-73028115I260165J-196409D01*
G01*
X143181730Y-64171227D02*
G75*
G02X142707173Y-64589228I-957572J608749D01*
G01*
X142533098Y-63677458D02*
G75*
G02X142707173Y-64589228I-1327168J-725885D01*
G01*
X142155064Y-63731948D02*
G75*
G02X142533099Y-63677457I198719J-40059D01*
G01*
X138988280Y-70282356D02*
G75*
G02X139205679Y-68690447I2470995J473349D01*
G01*
X139581730Y-71671228D02*
G75*
G02X138988279Y-70282356I1340218J1393886D01*
G01*
X139139576Y-75527403D02*
G75*
G02X139081500Y-74721448I2460291J582354D01*
G01*
X139481730Y-75671228D02*
G75*
G02X139139575Y-75527402I-99999J241004D01*
G01*
X139481731Y-75671228D02*
G75*
G02X140068660Y-75396312I2384689J-4327191D01*
G01*
X137763190Y-74503633D02*
G75*
G02X137392702Y-74241323I-116279J228561D01*
G01*
X137763191Y-74503635D02*
G75*
G02X138393496Y-74308169I1706026J-4387330D01*
G01*
X143852025Y-75692293D02*
G75*
G02X143781730Y-76471227I-1154238J-288474D01*
G01*
X144581730Y-76471227D02*
G75*
G02X143852025Y-75692292I793358J1474477D01*
G01*
X144881730Y-75771228D02*
G75*
G02X144581730Y-76471228I-1084014J50292D01*
G01*
X147256410Y-66434357D02*
G75*
G02X147265945Y-66120725I604373J138587D01*
G01*
X148881729Y-71371228D02*
G75*
G02X147747044Y-71684825I-1028243J1510873D01*
G01*
X147747043Y-71684825D02*
G75*
G02X148307958Y-72428020I-2199889J-2243598D01*
G01*
X148307960Y-72428019D02*
G75*
G02X147755072Y-72732486I-563950J369854D01*
G01*
X147432372Y-72851263D02*
G75*
G02X147755072Y-72732486I374241J-519005D01*
G01*
X146195802Y-66726438D02*
G75*
G02X145939492Y-66437349I-61675J203487D01*
G01*
X146842261Y-66526420D02*
G75*
G02X146195800Y-66726438I-561750J670889D01*
G01*
X146658773Y-67528535D02*
G75*
G02X146842260Y-66526419I1040720J327301D01*
G01*
X146981731Y-67671225D02*
G75*
G02X146658776Y-67528535I-94249J223505D01*
G01*
X136561830Y-73479697D02*
G75*
G02X137241378Y-72805970I1344867J-676914D01*
G01*
X136814125Y-73766182D02*
G75*
G02X136561829Y-73479697I-49479J210762D01*
G01*
X103012033Y-67181809D02*
G75*
G02X104350363Y-67084557I737967J-898191D01*
G01*
X96778963Y-71947638D02*
G75*
G02X97324706Y-71335795I942287J-291174D01*
G01*
X96884264Y-72238288D02*
G75*
G02X96778963Y-71947640I118703J207405D01*
G01*
X97641377Y-72455970D02*
G75*
G02X96884262Y-72238289I740666J4001617D01*
G01*
X102018920Y-72120375D02*
G75*
G02X102281731Y-71621228I757232J-79937D01*
G01*
X102281730Y-71621227D02*
G75*
G02X102902827Y-71404674I862751J-1475503D01*
G01*
X101725963Y-64193808D02*
G75*
G02X101493167Y-64975725I-1965580J159588D01*
G01*
X102714466Y-64673303D02*
G75*
G02X102407952Y-64783646I-181646J23688D01*
G01*
X103281731Y-64721227D02*
G75*
G02X102714465Y-64673303I-267180J218715D01*
G01*
X107832370Y-72501264D02*
G75*
G02X108610005Y-73105775I-805340J-1838403D01*
G01*
X108610006Y-73105775D02*
G75*
G02X108292140Y-73474726I-168897J-175891D01*
G01*
X107481729Y-73221227D02*
G75*
G02X108292140Y-73474726I-159509J-1932087D01*
G01*
X107481731Y-73221227D02*
G75*
G02X107655538Y-74261029I-854531J-677265D01*
G01*
X97324706Y-71335795D02*
X97324706Y-71335795D01*
X97794255Y-68710071D02*
G75*
G02X97802015Y-71185689I-859100J-1240514D01*
G01*
X99966169Y-71306098D02*
G75*
G02X100235658Y-71737589I-166537J-403911D01*
G01*
X100235658Y-71737589D02*
G75*
G02X99881730Y-71821227I-253928J283866D01*
G01*
X104350363Y-67084557D02*
X104350363Y-67084557D01*
X104728630Y-66732131D02*
X104728630Y-66732131D01*
X105581731Y-65021228D02*
G75*
G02X104881730Y-65421228I-950001J850001D01*
G01*
X105745534Y-65997908D02*
G75*
G02X105570484Y-65033633I1396502J751541D01*
G01*
X106093617Y-65909102D02*
G75*
G02X105745533Y-65997909I-231697J181576D01*
G01*
X106093615Y-65909103D02*
G75*
G02X106339492Y-66087349I111682J-104651D01*
G01*
X109781730Y-64421227D02*
G75*
G02X110133271Y-64912417I-602846J-802845D01*
G01*
X106181731Y-64021227D02*
G75*
G02X109781730Y-64421228I1449999J-3350000D01*
G01*
X105514354Y-64604001D02*
G75*
G02X106181731Y-64021228I2032446J-1653986D01*
G01*
X109773705Y-74956530D02*
G75*
G02X107655538Y-74261029I-302715J2651292D01*
G01*
X109773701Y-74956529D02*
G75*
G02X110181730Y-75121226I77876J-394852D01*
G01*
X110181732Y-75121227D02*
G75*
G02X109881731Y-75521228I-750002J250000D01*
G01*
X97976727Y-66751006D02*
G75*
G02X97756848Y-65957228I951932J691030D01*
G01*
X97045042Y-66561214D02*
G75*
G02X97976727Y-66751008I154207J-1624689D01*
G01*
X96881730Y-66921225D02*
G75*
G02X97045041Y-66561212I165344J142043D01*
G01*
X97641588Y-67417492D02*
G75*
G02X96881730Y-66921227I302863J1293593D01*
G01*
X103139191Y-68320868D02*
G75*
G02X102129452Y-67360793I283251J1308927D01*
G01*
X104254848Y-64561668D02*
G75*
G02X104610655Y-64007324I733763J-79608D01*
G01*
X103991339Y-63692158D02*
G75*
G02X104254848Y-64561666I-925788J-755247D01*
G01*
X103581730Y-63821227D02*
G75*
G02X103991340Y-63692158I236706J-36706D01*
G01*
X102361050Y-64234732D02*
G75*
G02X102556472Y-63375519I1815024J39016D01*
G01*
X101781732Y-63721227D02*
G75*
G02X102361051Y-64234730I-2895051J-3849644D01*
G01*
X101431616Y-63861274D02*
G75*
G02X101781730Y-63721227I225919J-57129D01*
G01*
X103289826Y-71154115D02*
X102662674Y-71154113D01*
X102662674Y-71154113D02*
X102902827Y-71404674D01*
X96781731Y-67721228D02*
G75*
G02X97641588Y-67417493I951810J-1325550D01*
G01*
X96740474Y-68063652D02*
G75*
G02X96781730Y-67721227I134054J157547D01*
G01*
X97340317Y-68568957D02*
G75*
G02X96740475Y-68063653I865230J1635791D01*
G01*
X102957464Y-76491565D02*
G75*
G02X102552930Y-76477576I-199518J86491D01*
G01*
X103105495Y-75607139D02*
G75*
G02X102957462Y-76491565I-2848087J22106D01*
G01*
X103781730Y-76221228D02*
G75*
G02X103105497Y-75607140I1131727J1925635D01*
G01*
X104181730Y-76121229D02*
G75*
G02X103781730Y-76221227I-243465J123864D01*
G01*
X97336458Y-68010374D02*
G75*
G02X97794255Y-68710069I-77267J-550166D01*
G01*
X98181729Y-67621227D02*
G75*
G02X97336458Y-68010375I-1207767J1510816D01*
G01*
X98018196Y-67228101D02*
G75*
G02X98181730Y-67621227I-446649J-416376D01*
G01*
X98433555Y-67041612D02*
G75*
G02X98018195Y-67228101I-311193J137307D01*
G01*
X99903776Y-65010401D02*
G75*
G02X99781729Y-65921227I-1611598J-247642D01*
G01*
X100672487Y-65391977D02*
G75*
G02X99903777Y-65010401I648718J2271982D01*
G01*
X100972850Y-65072692D02*
G75*
G02X100672488Y-65391977I-241293J-73930D01*
G01*
X101493169Y-64975725D02*
G75*
G02X100972853Y-65072694I-372635J555043D01*
G01*
X102660117Y-68806026D02*
X103139188Y-68320867D01*
X107665943Y-65770726D02*
G75*
G02X109784021Y-65075224I1838597J-2026311D01*
G01*
X110133270Y-64912418D02*
G75*
G02X109784021Y-65075224I-255674J92463D01*
G01*
X105302378Y-73850131D02*
X104502498Y-73001257D01*
X104502498Y-73001257D02*
X104502498Y-73001257D01*
X102221534Y-67095134D02*
G75*
G02X104728630Y-66732131I1588853J-2134294D01*
G01*
X105342549Y-66122886D02*
X104728630Y-66732131D01*
X104502498Y-73001259D02*
G75*
G02X102181730Y-72621227I-813739J2306901D01*
G01*
X102181732Y-72621228D02*
G75*
G02X102018920Y-72120375I345020J389045D01*
G01*
X94863112Y-70021257D02*
X97024193Y-71200055D01*
X97024193Y-71200055D02*
X97324706Y-71335795D01*
X103281729Y-64721227D02*
G75*
G02X103723914Y-64330007I1116938J-816937D01*
G01*
X104553300Y-64984029D02*
G75*
G02X104076901Y-65091395I-314613J285375D01*
G01*
X104881731Y-65421227D02*
G75*
G02X104553299Y-64984030I-70279J289166D01*
G01*
X99324251Y-68041556D02*
G75*
G02X99605679Y-68340447I-1112621J-1329553D01*
G01*
X97340315Y-68568958D02*
X94863112Y-70021257D01*
X98532020Y-74693716D02*
G75*
G02X98781730Y-74021226I1280212J-92763D01*
G01*
X98861444Y-74981046D02*
G75*
G02X98532024Y-74693716I-99552J218368D01*
G01*
X99481501Y-74371449D02*
G75*
G02X98861446Y-74981049I-1978469J1392255D01*
G01*
X101881731Y-76221230D02*
G75*
G02X101444578Y-76054447I-177919J189958D01*
G01*
X102364840Y-75615342D02*
G75*
G02X101881730Y-76221227I-1759172J907149D01*
G01*
X102552930Y-76477574D02*
G75*
G02X102364840Y-75615341I5260702J1599216D01*
G01*
X105661992Y-66432537D02*
X105342549Y-66122886D01*
X105661992Y-66432537D02*
X103289825Y-68806025D01*
X104730360Y-74478115D02*
G75*
G02X105570356Y-74881564I-27970J-1134411D01*
G01*
X104481730Y-74721227D02*
G75*
G02X104730359Y-74478114I346159J-105322D01*
G01*
X103881731Y-75221227D02*
G75*
G02X104481731Y-74721227I500000J10000D01*
G01*
X103881731Y-75221228D02*
G75*
G02X103751082Y-75694806I-1004804J22391D01*
G01*
X102852504Y-75217463D02*
G75*
G02X103751082Y-75694806I98529J-898964D01*
G01*
X102852502Y-75217464D02*
G75*
G02X102681730Y-75421226I-290803J70278D01*
G01*
X102681730Y-75421228D02*
G75*
G02X102481730Y-75121228I349999J450000D01*
G01*
X101728783Y-75703536D02*
G75*
G02X102481730Y-75121228I683782J-106208D01*
G01*
X101362174Y-74766324D02*
G75*
G02X101728783Y-75703536I-1296636J-1047515D01*
G01*
X100994358Y-74872581D02*
G75*
G02X101362174Y-74766325I223997J-85643D01*
G01*
X101217961Y-64561667D02*
G75*
G02X101432164Y-63859154I4562946J-1007369D01*
G01*
X100785746Y-63979009D02*
G75*
G02X101217960Y-64561668I-3731855J-3219912D01*
G01*
X100333076Y-64155528D02*
G75*
G02X100785745Y-63979009I250290J26827D01*
G01*
X97733617Y-72005355D02*
G75*
G02X98092793Y-72176847I-13760J-490697D01*
G01*
X97733615Y-72005355D02*
G75*
G02X97373567Y-71811339I10493J450564D01*
G01*
X97373567Y-71811338D02*
G75*
G02X97781731Y-71521226I715341J-574244D01*
G01*
X97802014Y-71185686D02*
G75*
G02X97781731Y-71521226I-93067J-162757D01*
G01*
X99791343Y-64558661D02*
G75*
G02X100462972Y-64822791I-1836345J-5655422D01*
G01*
X99485204Y-64852402D02*
G75*
G02X99791343Y-64558660I273206J21664D01*
G01*
X99481731Y-65521227D02*
G75*
G02X99485205Y-64852402I4058114J313341D01*
G01*
X98770565Y-64911358D02*
G75*
G02X99481731Y-65521228I-291671J-1059694D01*
G01*
X103771896Y-67688603D02*
X104350363Y-67084557D01*
X107656410Y-66084359D02*
G75*
G02X107497404Y-66752330I-1948968J111027D01*
G01*
X108196926Y-66508896D02*
G75*
G02X108524863Y-66688871I43184J-310071D01*
G01*
X108524863Y-66688871D02*
G75*
G02X107833689Y-67416258I-952887J213372D01*
G01*
X107399900Y-67660580D02*
G75*
G02X107381729Y-67321227I63417J173559D01*
G01*
X108200230Y-67927873D02*
G75*
G02X107399900Y-67660580I-39300J1214148D01*
G01*
X107581731Y-68621227D02*
G75*
G02X108200229Y-67927873I1072093J-333809D01*
G01*
X107749451Y-68956309D02*
G75*
G02X107581731Y-68621228I167513J293362D01*
G01*
X107981729Y-69021228D02*
G75*
G02X107749451Y-68956309I-49998J269109D01*
G01*
X99881730Y-71821227D02*
G75*
G02X99081730Y-70521227I1136275J1595399D01*
G01*
X99081729Y-70521229D02*
G75*
G02X99324248Y-68041556I2922247J965892D01*
G01*
X105514353Y-64604002D02*
X104995240Y-64833660D01*
X105149100Y-63905484D02*
G75*
G02X104995240Y-64833660I-1179013J-281400D01*
G01*
X104610653Y-64007325D02*
G75*
G02X105149100Y-63905482I307103J-149349D01*
G01*
X103289825Y-68806025D02*
X102660117Y-68806026D01*
X108262051Y-69350099D02*
G75*
G02X108814348Y-69189222I709979J-1408927D01*
G01*
X108262051Y-69350096D02*
G75*
G02X108922716Y-69926447I-1351551J-2216102D01*
G01*
X108922715Y-69926448D02*
G75*
G02X108181731Y-70521228I-822453J265669D01*
G01*
X108222803Y-70530227D02*
G75*
G02X109281730Y-71021227I-615979J-2715844D01*
G01*
X100381730Y-75721228D02*
G75*
G02X100468660Y-75046312I12575875J-1276724D01*
G01*
X100481729Y-76121228D02*
G75*
G02X100381730Y-75721227I588740J359684D01*
G01*
X100981730Y-75721227D02*
G75*
G02X100481730Y-76121227I-986084J720106D01*
G01*
X100981730Y-75721228D02*
G75*
G02X101224221Y-75350318I908616J-329307D01*
G01*
X107833690Y-67416259D02*
G75*
G02X108743395Y-67804238I-53278J-1385417D01*
G01*
X108743394Y-67804237D02*
G75*
G02X108136461Y-68546381I-1041300J232336D01*
G01*
X108136463Y-68546381D02*
G75*
G02X109137890Y-68831624I131717J-1438089D01*
G01*
X109137889Y-68831624D02*
G75*
G02X108814348Y-69189222I-366996J6881D01*
G01*
X107681731Y-69321227D02*
G75*
G02X107943764Y-69025569I359710J-54856D01*
G01*
X107953793Y-69785937D02*
G75*
G02X107681730Y-69321227I247402J456835D01*
G01*
X107953798Y-69785939D02*
G75*
G02X107854565Y-70289078I-116567J-238365D01*
G01*
X107703515Y-70689269D02*
G75*
G02X107910209Y-70279410I265294J123259D01*
G01*
X108042185Y-70917049D02*
G75*
G02X107703516Y-70689266I-49773J291657D01*
G01*
X100840773Y-74529148D02*
G75*
G02X100994357Y-74872583I-203386J-297013D01*
G01*
X100552979Y-74459813D02*
G75*
G02X100840772Y-74529147I57114J-394884D01*
G01*
X99891605Y-74887739D02*
G75*
G02X100552979Y-74459813I1166752J-1078204D01*
G01*
X99681732Y-73921227D02*
G75*
G02X99891605Y-74887737I-905211J-702605D01*
G01*
X99181730Y-74021227D02*
G75*
G02X99685402Y-73925984I298135J-197221D01*
G01*
X99224756Y-73536188D02*
G75*
G02X99181730Y-74021227I-199499J-226731D01*
G01*
X98240694Y-73705579D02*
G75*
G02X99224757Y-73536186I624672J-685858D01*
G01*
X98434193Y-72839632D02*
G75*
G02X98240693Y-73705579I-1841995J-42990D01*
G01*
X98020252Y-72664636D02*
G75*
G02X98434194Y-72839633I136927J-253182D01*
G01*
X98092793Y-72176844D02*
G75*
G02X98020252Y-72664633I-278115J-207929D01*
G01*
X98481731Y-65121228D02*
G75*
G02X98770565Y-64911358I204541J22189D01*
G01*
X98807871Y-65928858D02*
G75*
G02X98481730Y-65121227I3049959J1701315D01*
G01*
X97997971Y-65781494D02*
G75*
G02X98807871Y-65928857I-102376J-2861912D01*
G01*
X97781730Y-65921228D02*
G75*
G02X98015671Y-65782182I186441J-47359D01*
G01*
X102129452Y-67360791D02*
G75*
G02X102221535Y-67095136I241368J65122D01*
G01*
X109881731Y-75521227D02*
G75*
G02X105981730Y-76121228I-2518751J3396875D01*
G01*
X105981730Y-76121227D02*
G75*
G02X105281730Y-75421227I850059J1550059D01*
G01*
X103876228Y-72383544D02*
G75*
G02X102981730Y-72221227I-240557J1220200D01*
G01*
X107081729Y-73721228D02*
G75*
G02X107050788Y-72807142I1189083J497816D01*
G01*
X106218980Y-73616197D02*
G75*
G02X107081731Y-73721228I269004J-1386269D01*
G01*
X106038150Y-73918217D02*
G75*
G02X106218979Y-73616197I269749J43636D01*
G01*
X105681732Y-74021228D02*
G75*
G02X106038148Y-73918219I214353J-73558D01*
G01*
X105570355Y-74881564D02*
G75*
G02X105681729Y-74021227I1976858J181465D01*
G01*
X98229229Y-66176155D02*
G75*
G02X98433556Y-67041613I-998350J-692550D01*
G01*
X99206146Y-66368753D02*
G75*
G02X98229228Y-66176156I-270258J1203083D01*
G01*
X99314939Y-66051829D02*
G75*
G02X99206147Y-66368750I-292613J-76686D01*
G01*
X99781730Y-65921226D02*
G75*
G02X99314939Y-66051831I-339594J314258D01*
G01*
X103122167Y-67525796D02*
G75*
G02X103012033Y-67181810I82013J215882D01*
G01*
X102981730Y-72221228D02*
G75*
G02X103217505Y-71741136I333661J134079D01*
G01*
X103217505Y-71741136D02*
X103876230Y-72383545D01*
X103876230Y-72383545D02*
X103876230Y-72383545D01*
X103771896Y-67688602D02*
G75*
G02X103122167Y-67525795I119130J1853296D01*
G01*
X103289826Y-71154115D02*
X105661992Y-73527516D01*
X105661992Y-73527516D02*
X105302378Y-73850131D01*
X107658361Y-71348486D02*
G75*
G02X108042182Y-70917047I307194J113160D01*
G01*
X108081730Y-71921227D02*
G75*
G02X107658361Y-71348484I931155J1131154D01*
G01*
X107292108Y-72391566D02*
G75*
G02X108081730Y-71921227I668579J-224442D01*
G01*
X107329747Y-72678114D02*
G75*
G02X107292106Y-72391566I343176J190826D01*
G01*
X107050789Y-72807143D02*
G75*
G02X107329748Y-72678115I260165J-196409D01*
G01*
X103581730Y-63821227D02*
G75*
G02X103107173Y-64239228I-957572J608749D01*
G01*
X102933098Y-63327458D02*
G75*
G02X103107173Y-64239228I-1327168J-725885D01*
G01*
X102555064Y-63381948D02*
G75*
G02X102933099Y-63327457I198719J-40059D01*
G01*
X99388280Y-69932356D02*
G75*
G02X99605679Y-68340447I2470995J473349D01*
G01*
X99981730Y-71321228D02*
G75*
G02X99388279Y-69932356I1340218J1393886D01*
G01*
X99539576Y-75177403D02*
G75*
G02X99481500Y-74371448I2460291J582354D01*
G01*
X99881730Y-75321228D02*
G75*
G02X99539575Y-75177402I-99999J241004D01*
G01*
X99881731Y-75321228D02*
G75*
G02X100468660Y-75046312I2384689J-4327191D01*
G01*
X98163190Y-74153633D02*
G75*
G02X97792702Y-73891323I-116279J228561D01*
G01*
X98163191Y-74153635D02*
G75*
G02X98793496Y-73958169I1706026J-4387330D01*
G01*
X104252025Y-75342293D02*
G75*
G02X104181730Y-76121227I-1154238J-288474D01*
G01*
X104981730Y-76121227D02*
G75*
G02X104252025Y-75342292I793358J1474477D01*
G01*
X105281730Y-75421228D02*
G75*
G02X104981730Y-76121228I-1084014J50292D01*
G01*
X107656410Y-66084357D02*
G75*
G02X107665945Y-65770725I604373J138587D01*
G01*
X109281729Y-71021228D02*
G75*
G02X108147044Y-71334825I-1028243J1510873D01*
G01*
X108147043Y-71334825D02*
G75*
G02X108707958Y-72078020I-2199889J-2243598D01*
G01*
X108707960Y-72078019D02*
G75*
G02X108155072Y-72382486I-563950J369854D01*
G01*
X107832372Y-72501263D02*
G75*
G02X108155072Y-72382486I374241J-519005D01*
G01*
X106595802Y-66376438D02*
G75*
G02X106339492Y-66087349I-61675J203487D01*
G01*
X107242261Y-66176420D02*
G75*
G02X106595800Y-66376438I-561750J670889D01*
G01*
X107058773Y-67178535D02*
G75*
G02X107242260Y-66176419I1040720J327301D01*
G01*
X107381731Y-67321225D02*
G75*
G02X107058776Y-67178535I-94249J223505D01*
G01*
X96961830Y-73129697D02*
G75*
G02X97641378Y-72455970I1344867J-676914D01*
G01*
X97214125Y-73416182D02*
G75*
G02X96961829Y-73129697I-49479J210762D01*
G01*
X97214123Y-73416183D02*
G75*
G02X97973640Y-73138313I3916750J-9528894D01*
G01*
X116764125Y-73416182D02*
G75*
G02X116511829Y-73129697I-49479J210762D01*
G01*
X116511830Y-73129697D02*
G75*
G02X117191378Y-72455970I1344867J-676914D01*
G01*
X126931731Y-67321225D02*
G75*
G02X126608776Y-67178535I-94249J223505D01*
G01*
X126608773Y-67178535D02*
G75*
G02X126792260Y-66176419I1040720J327301D01*
G01*
X126792261Y-66176420D02*
G75*
G02X126145800Y-66376438I-561750J670889D01*
G01*
X126145802Y-66376438D02*
G75*
G02X125889492Y-66087349I-61675J203487D01*
G01*
X127382372Y-72501263D02*
G75*
G02X127705072Y-72382486I374241J-519005D01*
G01*
X128257960Y-72078019D02*
G75*
G02X127705072Y-72382486I-563950J369854D01*
G01*
X127697043Y-71334825D02*
G75*
G02X128257958Y-72078020I-2199889J-2243598D01*
G01*
X128831729Y-71021228D02*
G75*
G02X127697044Y-71334825I-1028243J1510873D01*
G01*
X127206410Y-66084357D02*
G75*
G02X127215945Y-65770725I604373J138587D01*
G01*
X124831730Y-75421228D02*
G75*
G02X124531730Y-76121228I-1084014J50292D01*
G01*
X124531730Y-76121227D02*
G75*
G02X123802025Y-75342292I793358J1474477D01*
G01*
X123802025Y-75342293D02*
G75*
G02X123731730Y-76121227I-1154238J-288474D01*
G01*
X117713191Y-74153635D02*
G75*
G02X118343496Y-73958169I1706026J-4387330D01*
G01*
X117713190Y-74153633D02*
G75*
G02X117342702Y-73891323I-116279J228561D01*
G01*
X119431731Y-75321228D02*
G75*
G02X120018660Y-75046312I2384689J-4327191D01*
G01*
X119431730Y-75321228D02*
G75*
G02X119089575Y-75177402I-99999J241004D01*
G01*
X119089576Y-75177403D02*
G75*
G02X119031500Y-74371448I2460291J582354D01*
G01*
X119531730Y-71321228D02*
G75*
G02X118938279Y-69932356I1340218J1393886D01*
G01*
X118938280Y-69932356D02*
G75*
G02X119155679Y-68340447I2470995J473349D01*
G01*
X122105064Y-63381948D02*
G75*
G02X122483099Y-63327457I198719J-40059D01*
G01*
X122483098Y-63327458D02*
G75*
G02X122657173Y-64239228I-1327168J-725885D01*
G01*
X123131730Y-63821227D02*
G75*
G02X122657173Y-64239228I-957572J608749D01*
G01*
X126600789Y-72807143D02*
G75*
G02X126879748Y-72678115I260165J-196409D01*
G01*
X126879747Y-72678114D02*
G75*
G02X126842106Y-72391566I343176J190826D01*
G01*
X126842108Y-72391566D02*
G75*
G02X127631730Y-71921227I668579J-224442D01*
G01*
X127631730Y-71921227D02*
G75*
G02X127208361Y-71348484I931155J1131154D01*
G01*
X127208361Y-71348486D02*
G75*
G02X127592182Y-70917047I307194J113160D01*
G01*
X125211992Y-73527516D02*
X124852378Y-73850131D01*
X122839826Y-71154115D02*
X125211992Y-73527516D01*
X123321896Y-67688602D02*
G75*
G02X122672167Y-67525795I119130J1853296D01*
G01*
X123426230Y-72383545D02*
X123426230Y-72383545D01*
X122767505Y-71741136D02*
X123426230Y-72383545D01*
X122531730Y-72221228D02*
G75*
G02X122767505Y-71741136I333661J134079D01*
G01*
X122672167Y-67525796D02*
G75*
G02X122562033Y-67181810I82013J215882D01*
G01*
X119331730Y-65921226D02*
G75*
G02X118864939Y-66051831I-339594J314258D01*
G01*
X118864939Y-66051829D02*
G75*
G02X118756147Y-66368750I-292613J-76686D01*
G01*
X118756146Y-66368753D02*
G75*
G02X117779228Y-66176156I-270258J1203083D01*
G01*
X117779229Y-66176155D02*
G75*
G02X117983556Y-67041613I-998350J-692550D01*
G01*
X125120355Y-74881564D02*
G75*
G02X125231729Y-74021227I1976858J181465D01*
G01*
X125231732Y-74021228D02*
G75*
G02X125588148Y-73918219I214353J-73558D01*
G01*
X125588150Y-73918217D02*
G75*
G02X125768979Y-73616197I269749J43636D01*
G01*
X125768980Y-73616197D02*
G75*
G02X126631731Y-73721228I269004J-1386269D01*
G01*
X126631729Y-73721228D02*
G75*
G02X126600788Y-72807142I1189083J497816D01*
G01*
X123426228Y-72383544D02*
G75*
G02X122531730Y-72221227I-240557J1220200D01*
G01*
X125531730Y-76121227D02*
G75*
G02X124831730Y-75421227I850059J1550059D01*
G01*
X129431731Y-75521227D02*
G75*
G02X125531730Y-76121228I-2518751J3396875D01*
G01*
X121679452Y-67360791D02*
G75*
G02X121771535Y-67095136I241368J65122D01*
G01*
X117331730Y-65921228D02*
G75*
G02X117565671Y-65782182I186441J-47359D01*
G01*
X117547971Y-65781494D02*
G75*
G02X118357871Y-65928857I-102376J-2861912D01*
G01*
X118031731Y-65121228D02*
G75*
G02X118320565Y-64911358I204541J22189D01*
G01*
X117642793Y-72176844D02*
G75*
G02X117570252Y-72664633I-278115J-207929D01*
G01*
X117570252Y-72664636D02*
G75*
G02X117984194Y-72839633I136927J-253182D01*
G01*
X117984193Y-72839632D02*
G75*
G02X117790693Y-73705579I-1841995J-42990D01*
G01*
X117790694Y-73705579D02*
G75*
G02X118774757Y-73536186I624672J-685858D01*
G01*
X118774756Y-73536188D02*
G75*
G02X118731730Y-74021227I-199499J-226731D01*
G01*
X118731730Y-74021227D02*
G75*
G02X119235402Y-73925984I298135J-197221D01*
G01*
X119231732Y-73921227D02*
G75*
G02X119441605Y-74887737I-905211J-702605D01*
G01*
X119441605Y-74887739D02*
G75*
G02X120102979Y-74459813I1166752J-1078204D01*
G01*
X120102979Y-74459813D02*
G75*
G02X120390772Y-74529147I57114J-394884D01*
G01*
X120390773Y-74529148D02*
G75*
G02X120544357Y-74872583I-203386J-297013D01*
G01*
X127592185Y-70917049D02*
G75*
G02X127253516Y-70689266I-49773J291657D01*
G01*
X127253515Y-70689269D02*
G75*
G02X127460209Y-70279410I265294J123259D01*
G01*
X127503798Y-69785939D02*
G75*
G02X127404565Y-70289078I-116567J-238365D01*
G01*
X127503793Y-69785937D02*
G75*
G02X127231730Y-69321227I247402J456835D01*
G01*
X127231731Y-69321227D02*
G75*
G02X127493764Y-69025569I359710J-54856D01*
G01*
X128687889Y-68831624D02*
G75*
G02X128364348Y-69189222I-366996J6881D01*
G01*
X127686463Y-68546381D02*
G75*
G02X128687890Y-68831624I131717J-1438089D01*
G01*
X128293394Y-67804237D02*
G75*
G02X127686461Y-68546381I-1041300J232336D01*
G01*
X127383690Y-67416259D02*
G75*
G02X128293395Y-67804238I-53278J-1385417D01*
G01*
X120531730Y-75721228D02*
G75*
G02X120774221Y-75350318I908616J-329307D01*
G01*
X120531730Y-75721227D02*
G75*
G02X120031730Y-76121227I-986084J720106D01*
G01*
X120031729Y-76121228D02*
G75*
G02X119931730Y-75721227I588740J359684D01*
G01*
X127772803Y-70530227D02*
G75*
G02X128831730Y-71021227I-615979J-2715844D01*
G01*
X128472715Y-69926448D02*
G75*
G02X127731731Y-70521228I-822453J265669D01*
G01*
X127812051Y-69350096D02*
G75*
G02X128472716Y-69926447I-1351551J-2216102D01*
G01*
X127812051Y-69350099D02*
G75*
G02X128364348Y-69189222I709979J-1408927D01*
G01*
X122839825Y-68806025D02*
X122210117Y-68806026D01*
X124160653Y-64007325D02*
G75*
G02X124699100Y-63905482I307103J-149349D01*
G01*
X124699100Y-63905484D02*
G75*
G02X124545240Y-64833660I-1179013J-281400D01*
G01*
X125064353Y-64604002D02*
X124545240Y-64833660D01*
X118631729Y-70521229D02*
G75*
G02X118874248Y-68041556I2922247J965892D01*
G01*
X119431730Y-71821227D02*
G75*
G02X118631730Y-70521227I1136275J1595399D01*
G01*
X127531729Y-69021228D02*
G75*
G02X127299451Y-68956309I-49998J269109D01*
G01*
X127299451Y-68956309D02*
G75*
G02X127131731Y-68621228I167513J293362D01*
G01*
X127131731Y-68621227D02*
G75*
G02X127750229Y-67927873I1072093J-333809D01*
G01*
X127750230Y-67927873D02*
G75*
G02X126949900Y-67660580I-39300J1214148D01*
G01*
X126949900Y-67660580D02*
G75*
G02X126931729Y-67321227I63417J173559D01*
G01*
X128074863Y-66688871D02*
G75*
G02X127383689Y-67416258I-952887J213372D01*
G01*
X127746926Y-66508896D02*
G75*
G02X128074863Y-66688871I43184J-310071D01*
G01*
X127206410Y-66084359D02*
G75*
G02X127047404Y-66752330I-1948968J111027D01*
G01*
X123321896Y-67688603D02*
X123900363Y-67084557D01*
X118320565Y-64911358D02*
G75*
G02X119031731Y-65521228I-291671J-1059694D01*
G01*
X119031731Y-65521227D02*
G75*
G02X119035205Y-64852402I4058114J313341D01*
G01*
X119035204Y-64852402D02*
G75*
G02X119341343Y-64558660I273206J21664D01*
G01*
X119341343Y-64558661D02*
G75*
G02X120012972Y-64822791I-1836345J-5655422D01*
G01*
X117352014Y-71185686D02*
G75*
G02X117331731Y-71521226I-93067J-162757D01*
G01*
X116923567Y-71811338D02*
G75*
G02X117331731Y-71521226I715341J-574244D01*
G01*
X117283615Y-72005355D02*
G75*
G02X116923567Y-71811339I10493J450564D01*
G01*
X117283617Y-72005355D02*
G75*
G02X117642793Y-72176847I-13760J-490697D01*
G01*
X119883076Y-64155528D02*
G75*
G02X120335745Y-63979009I250290J26827D01*
G01*
X120335746Y-63979009D02*
G75*
G02X120767960Y-64561668I-3731855J-3219912D01*
G01*
X120767961Y-64561667D02*
G75*
G02X120982164Y-63859154I4562946J-1007369D01*
G01*
X120544358Y-74872581D02*
G75*
G02X120912174Y-74766325I223997J-85643D01*
G01*
X120912174Y-74766324D02*
G75*
G02X121278783Y-75703536I-1296636J-1047515D01*
G01*
X121278783Y-75703536D02*
G75*
G02X122031730Y-75121228I683782J-106208D01*
G01*
X122231730Y-75421228D02*
G75*
G02X122031730Y-75121228I349999J450000D01*
G01*
X122402502Y-75217464D02*
G75*
G02X122231730Y-75421226I-290803J70278D01*
G01*
X122402504Y-75217463D02*
G75*
G02X123301082Y-75694806I98529J-898964D01*
G01*
X123431731Y-75221228D02*
G75*
G02X123301082Y-75694806I-1004804J22391D01*
G01*
X123431731Y-75221227D02*
G75*
G02X124031731Y-74721227I500000J10000D01*
G01*
X124031730Y-74721227D02*
G75*
G02X124280359Y-74478114I346159J-105322D01*
G01*
X124280360Y-74478115D02*
G75*
G02X125120356Y-74881564I-27970J-1134411D01*
G01*
X125211992Y-66432537D02*
X122839825Y-68806025D01*
X125211992Y-66432537D02*
X124892549Y-66122886D01*
X122102930Y-76477574D02*
G75*
G02X121914840Y-75615341I5260702J1599216D01*
G01*
X121914840Y-75615342D02*
G75*
G02X121431730Y-76221227I-1759172J907149D01*
G01*
X121431731Y-76221230D02*
G75*
G02X120994578Y-76054447I-177919J189958D01*
G01*
X119031501Y-74371449D02*
G75*
G02X118411446Y-74981049I-1978469J1392255D01*
G01*
X118411444Y-74981046D02*
G75*
G02X118082024Y-74693716I-99552J218368D01*
G01*
X118082020Y-74693716D02*
G75*
G02X118331730Y-74021226I1280212J-92763D01*
G01*
X116890315Y-68568958D02*
X114413112Y-70021257D01*
X118874251Y-68041556D02*
G75*
G02X119155679Y-68340447I-1112621J-1329553D01*
G01*
X124431731Y-65421227D02*
G75*
G02X124103299Y-64984030I-70279J289166D01*
G01*
X124103300Y-64984029D02*
G75*
G02X123626901Y-65091395I-314613J285375D01*
G01*
X122831729Y-64721227D02*
G75*
G02X123273914Y-64330007I1116938J-816937D01*
G01*
X116574193Y-71200055D02*
X116874706Y-71335795D01*
X114413112Y-70021257D02*
X116574193Y-71200055D01*
X121731732Y-72621228D02*
G75*
G02X121568920Y-72120375I345020J389045D01*
G01*
X124052498Y-73001259D02*
G75*
G02X121731730Y-72621227I-813739J2306901D01*
G01*
X124892549Y-66122886D02*
X124278630Y-66732131D01*
X121771534Y-67095134D02*
G75*
G02X124278630Y-66732131I1588853J-2134294D01*
G01*
X124052498Y-73001257D02*
X124052498Y-73001257D01*
X124852378Y-73850131D02*
X124052498Y-73001257D01*
X129683270Y-64912418D02*
G75*
G02X129334021Y-65075224I-255674J92463D01*
G01*
X127215943Y-65770726D02*
G75*
G02X129334021Y-65075224I1838597J-2026311D01*
G01*
X122210117Y-68806026D02*
X122689188Y-68320867D01*
X121043169Y-64975725D02*
G75*
G02X120522853Y-65072694I-372635J555043D01*
G01*
X120522850Y-65072692D02*
G75*
G02X120222488Y-65391977I-241293J-73930D01*
G01*
X120222487Y-65391977D02*
G75*
G02X119453777Y-65010401I648718J2271982D01*
G01*
X119453776Y-65010401D02*
G75*
G02X119331729Y-65921227I-1611598J-247642D01*
G01*
X117983555Y-67041612D02*
G75*
G02X117568195Y-67228101I-311193J137307D01*
G01*
X117568196Y-67228101D02*
G75*
G02X117731730Y-67621227I-446649J-416376D01*
G01*
X117731729Y-67621227D02*
G75*
G02X116886458Y-68010375I-1207767J1510816D01*
G01*
X116886458Y-68010374D02*
G75*
G02X117344255Y-68710069I-77267J-550166D01*
G01*
X123731730Y-76121229D02*
G75*
G02X123331730Y-76221227I-243465J123864D01*
G01*
X123331730Y-76221228D02*
G75*
G02X122655497Y-75607140I1131727J1925635D01*
G01*
X122655495Y-75607139D02*
G75*
G02X122507462Y-76491565I-2848087J22106D01*
G01*
X122507464Y-76491565D02*
G75*
G02X122102930Y-76477576I-199518J86491D01*
G01*
X116890317Y-68568957D02*
G75*
G02X116290475Y-68063653I865230J1635791D01*
G01*
X116290474Y-68063652D02*
G75*
G02X116331730Y-67721227I134054J157547D01*
G01*
X116331731Y-67721228D02*
G75*
G02X117191588Y-67417493I951810J-1325550D01*
G01*
X122212674Y-71154113D02*
X122452827Y-71404674D01*
X122839826Y-71154115D02*
X122212674Y-71154113D01*
X120981616Y-63861274D02*
G75*
G02X121331730Y-63721227I225919J-57129D01*
G01*
X121331732Y-63721227D02*
G75*
G02X121911051Y-64234730I-2895051J-3849644D01*
G01*
X121911050Y-64234732D02*
G75*
G02X122106472Y-63375519I1815024J39016D01*
G01*
X123131730Y-63821227D02*
G75*
G02X123541340Y-63692158I236706J-36706D01*
G01*
X123541339Y-63692158D02*
G75*
G02X123804848Y-64561666I-925788J-755247D01*
G01*
X123804848Y-64561668D02*
G75*
G02X124160655Y-64007324I733763J-79608D01*
G01*
X122689191Y-68320868D02*
G75*
G02X121679452Y-67360793I283251J1308927D01*
G01*
X117191588Y-67417492D02*
G75*
G02X116431730Y-66921227I302863J1293593D01*
G01*
X116431730Y-66921225D02*
G75*
G02X116595041Y-66561212I165344J142043D01*
G01*
X116595042Y-66561214D02*
G75*
G02X117526727Y-66751008I154207J-1624689D01*
G01*
X117526727Y-66751006D02*
G75*
G02X117306848Y-65957228I951932J691030D01*
G01*
X129731732Y-75121227D02*
G75*
G02X129431731Y-75521228I-750002J250000D01*
G01*
X129323701Y-74956529D02*
G75*
G02X129731730Y-75121226I77876J-394852D01*
G01*
X129323705Y-74956530D02*
G75*
G02X127205538Y-74261029I-302715J2651292D01*
G01*
X125064354Y-64604001D02*
G75*
G02X125731731Y-64021228I2032446J-1653986D01*
G01*
X125731731Y-64021227D02*
G75*
G02X129331730Y-64421228I1449999J-3350000D01*
G01*
X129331730Y-64421227D02*
G75*
G02X129683271Y-64912417I-602846J-802845D01*
G01*
X125643615Y-65909103D02*
G75*
G02X125889492Y-66087349I111682J-104651D01*
G01*
X125643617Y-65909102D02*
G75*
G02X125295533Y-65997909I-231697J181576D01*
G01*
X125295534Y-65997908D02*
G75*
G02X125120484Y-65033633I1396502J751541D01*
G01*
X125131731Y-65021228D02*
G75*
G02X124431730Y-65421228I-950001J850001D01*
G01*
X124278630Y-66732131D02*
X124278630Y-66732131D01*
X123900363Y-67084557D02*
X123900363Y-67084557D01*
X119785658Y-71737589D02*
G75*
G02X119431730Y-71821227I-253928J283866D01*
G01*
X119516169Y-71306098D02*
G75*
G02X119785658Y-71737589I-166537J-403911D01*
G01*
X117344255Y-68710071D02*
G75*
G02X117352015Y-71185689I-859100J-1240514D01*
G01*
X116874706Y-71335795D02*
X116874706Y-71335795D01*
X127031731Y-73221227D02*
G75*
G02X127205538Y-74261029I-854531J-677265D01*
G01*
X127031729Y-73221227D02*
G75*
G02X127842140Y-73474726I-159509J-1932087D01*
G01*
X128160006Y-73105775D02*
G75*
G02X127842140Y-73474726I-168897J-175891D01*
G01*
X127382370Y-72501264D02*
G75*
G02X128160005Y-73105775I-805340J-1838403D01*
G01*
X122831731Y-64721227D02*
G75*
G02X122264465Y-64673303I-267180J218715D01*
G01*
X122264466Y-64673303D02*
G75*
G02X121957952Y-64783646I-181646J23688D01*
G01*
X121275963Y-64193808D02*
G75*
G02X121043167Y-64975725I-1965580J159588D01*
G01*
X121831730Y-71621227D02*
G75*
G02X122452827Y-71404674I862751J-1475503D01*
G01*
X121568920Y-72120375D02*
G75*
G02X121831731Y-71621228I757232J-79937D01*
G01*
X117191377Y-72455970D02*
G75*
G02X116434262Y-72238289I740666J4001617D01*
G01*
X116434264Y-72238288D02*
G75*
G02X116328963Y-71947640I118703J207405D01*
G01*
X116328963Y-71947638D02*
G75*
G02X116874706Y-71335795I942287J-291174D01*
G01*
X122562033Y-67181809D02*
G75*
G02X123900363Y-67084557I737967J-898191D01*
G01*
X83562033Y-67531809D02*
G75*
G02X84900363Y-67434557I737967J-898191D01*
G01*
X77328963Y-72297638D02*
G75*
G02X77874706Y-71685795I942287J-291174D01*
G01*
X77434264Y-72588288D02*
G75*
G02X77328963Y-72297640I118703J207405D01*
G01*
X78191377Y-72805970D02*
G75*
G02X77434262Y-72588289I740666J4001617D01*
G01*
X82568920Y-72470375D02*
G75*
G02X82831731Y-71971228I757232J-79937D01*
G01*
X82831730Y-71971227D02*
G75*
G02X83452827Y-71754674I862751J-1475503D01*
G01*
X82275963Y-64543808D02*
G75*
G02X82043167Y-65325725I-1965580J159588D01*
G01*
X83264466Y-65023303D02*
G75*
G02X82957952Y-65133646I-181646J23688D01*
G01*
X83831731Y-65071227D02*
G75*
G02X83264465Y-65023303I-267180J218715D01*
G01*
X88382370Y-72851264D02*
G75*
G02X89160005Y-73455775I-805340J-1838403D01*
G01*
X89160006Y-73455775D02*
G75*
G02X88842140Y-73824726I-168897J-175891D01*
G01*
X88031729Y-73571227D02*
G75*
G02X88842140Y-73824726I-159509J-1932087D01*
G01*
X88031731Y-73571227D02*
G75*
G02X88205538Y-74611029I-854531J-677265D01*
G01*
X77874706Y-71685795D02*
X77874706Y-71685795D01*
X78344255Y-69060071D02*
G75*
G02X78352015Y-71535689I-859100J-1240514D01*
G01*
X80516169Y-71656098D02*
G75*
G02X80785658Y-72087589I-166537J-403911D01*
G01*
X80785658Y-72087589D02*
G75*
G02X80431730Y-72171227I-253928J283866D01*
G01*
X84900363Y-67434557D02*
X84900363Y-67434557D01*
X85278630Y-67082131D02*
X85278630Y-67082131D01*
X86131731Y-65371228D02*
G75*
G02X85431730Y-65771228I-950001J850001D01*
G01*
X86295534Y-66347908D02*
G75*
G02X86120484Y-65383633I1396502J751541D01*
G01*
X86643617Y-66259102D02*
G75*
G02X86295533Y-66347909I-231697J181576D01*
G01*
X86643615Y-66259103D02*
G75*
G02X86889492Y-66437349I111682J-104651D01*
G01*
X90331730Y-64771227D02*
G75*
G02X90683271Y-65262417I-602846J-802845D01*
G01*
X86731731Y-64371227D02*
G75*
G02X90331730Y-64771228I1449999J-3350000D01*
G01*
X86064354Y-64954001D02*
G75*
G02X86731731Y-64371228I2032446J-1653986D01*
G01*
X90323705Y-75306530D02*
G75*
G02X88205538Y-74611029I-302715J2651292D01*
G01*
X90323701Y-75306529D02*
G75*
G02X90731730Y-75471226I77876J-394852D01*
G01*
X90731732Y-75471227D02*
G75*
G02X90431731Y-75871228I-750002J250000D01*
G01*
X78526727Y-67101006D02*
G75*
G02X78306848Y-66307228I951932J691030D01*
G01*
X77595042Y-66911214D02*
G75*
G02X78526727Y-67101008I154207J-1624689D01*
G01*
X77431730Y-67271225D02*
G75*
G02X77595041Y-66911212I165344J142043D01*
G01*
X78191588Y-67767492D02*
G75*
G02X77431730Y-67271227I302863J1293593D01*
G01*
X83689191Y-68670868D02*
G75*
G02X82679452Y-67710793I283251J1308927D01*
G01*
X84804848Y-64911668D02*
G75*
G02X85160655Y-64357324I733763J-79608D01*
G01*
X84541339Y-64042158D02*
G75*
G02X84804848Y-64911666I-925788J-755247D01*
G01*
X84131730Y-64171227D02*
G75*
G02X84541340Y-64042158I236706J-36706D01*
G01*
X82911050Y-64584732D02*
G75*
G02X83106472Y-63725519I1815024J39016D01*
G01*
X82331732Y-64071227D02*
G75*
G02X82911051Y-64584730I-2895051J-3849644D01*
G01*
X81981616Y-64211274D02*
G75*
G02X82331730Y-64071227I225919J-57129D01*
G01*
X83839826Y-71504115D02*
X83212674Y-71504113D01*
X83212674Y-71504113D02*
X83452827Y-71754674D01*
X77331731Y-68071228D02*
G75*
G02X78191588Y-67767493I951810J-1325550D01*
G01*
X77290474Y-68413652D02*
G75*
G02X77331730Y-68071227I134054J157547D01*
G01*
X77890317Y-68918957D02*
G75*
G02X77290475Y-68413653I865230J1635791D01*
G01*
X83507464Y-76841565D02*
G75*
G02X83102930Y-76827576I-199518J86491D01*
G01*
X83655495Y-75957139D02*
G75*
G02X83507462Y-76841565I-2848087J22106D01*
G01*
X84331730Y-76571228D02*
G75*
G02X83655497Y-75957140I1131727J1925635D01*
G01*
X84731730Y-76471229D02*
G75*
G02X84331730Y-76571227I-243465J123864D01*
G01*
X77886458Y-68360374D02*
G75*
G02X78344255Y-69060069I-77267J-550166D01*
G01*
X78731729Y-67971227D02*
G75*
G02X77886458Y-68360375I-1207767J1510816D01*
G01*
X78568196Y-67578101D02*
G75*
G02X78731730Y-67971227I-446649J-416376D01*
G01*
X78983555Y-67391612D02*
G75*
G02X78568195Y-67578101I-311193J137307D01*
G01*
X80453776Y-65360401D02*
G75*
G02X80331729Y-66271227I-1611598J-247642D01*
G01*
X81222487Y-65741977D02*
G75*
G02X80453777Y-65360401I648718J2271982D01*
G01*
X81522850Y-65422692D02*
G75*
G02X81222488Y-65741977I-241293J-73930D01*
G01*
X82043169Y-65325725D02*
G75*
G02X81522853Y-65422694I-372635J555043D01*
G01*
X83210117Y-69156026D02*
X83689188Y-68670867D01*
X88215943Y-66120726D02*
G75*
G02X90334021Y-65425224I1838597J-2026311D01*
G01*
X90683270Y-65262418D02*
G75*
G02X90334021Y-65425224I-255674J92463D01*
G01*
X85852378Y-74200131D02*
X85052498Y-73351257D01*
X85052498Y-73351257D02*
X85052498Y-73351257D01*
X82771534Y-67445134D02*
G75*
G02X85278630Y-67082131I1588853J-2134294D01*
G01*
X85892549Y-66472886D02*
X85278630Y-67082131D01*
X85052498Y-73351259D02*
G75*
G02X82731730Y-72971227I-813739J2306901D01*
G01*
X82731732Y-72971228D02*
G75*
G02X82568920Y-72470375I345020J389045D01*
G01*
X75413112Y-70371257D02*
X77574193Y-71550055D01*
X77574193Y-71550055D02*
X77874706Y-71685795D01*
X83831729Y-65071227D02*
G75*
G02X84273914Y-64680007I1116938J-816937D01*
G01*
X85103300Y-65334029D02*
G75*
G02X84626901Y-65441395I-314613J285375D01*
G01*
X85431731Y-65771227D02*
G75*
G02X85103299Y-65334030I-70279J289166D01*
G01*
X79874251Y-68391556D02*
G75*
G02X80155679Y-68690447I-1112621J-1329553D01*
G01*
X77890315Y-68918958D02*
X75413112Y-70371257D01*
X79082020Y-75043716D02*
G75*
G02X79331730Y-74371226I1280212J-92763D01*
G01*
X79411444Y-75331046D02*
G75*
G02X79082024Y-75043716I-99552J218368D01*
G01*
X80031501Y-74721449D02*
G75*
G02X79411446Y-75331049I-1978469J1392255D01*
G01*
X82431731Y-76571230D02*
G75*
G02X81994578Y-76404447I-177919J189958D01*
G01*
X82914840Y-75965342D02*
G75*
G02X82431730Y-76571227I-1759172J907149D01*
G01*
X83102930Y-76827574D02*
G75*
G02X82914840Y-75965341I5260702J1599216D01*
G01*
X86211992Y-66782537D02*
X85892549Y-66472886D01*
X86211992Y-66782537D02*
X83839825Y-69156025D01*
X85280360Y-74828115D02*
G75*
G02X86120356Y-75231564I-27970J-1134411D01*
G01*
X85031730Y-75071227D02*
G75*
G02X85280359Y-74828114I346159J-105322D01*
G01*
X84431731Y-75571227D02*
G75*
G02X85031731Y-75071227I500000J10000D01*
G01*
X84431731Y-75571228D02*
G75*
G02X84301082Y-76044806I-1004804J22391D01*
G01*
X83402504Y-75567463D02*
G75*
G02X84301082Y-76044806I98529J-898964D01*
G01*
X83402502Y-75567464D02*
G75*
G02X83231730Y-75771226I-290803J70278D01*
G01*
X83231730Y-75771228D02*
G75*
G02X83031730Y-75471228I349999J450000D01*
G01*
X82278783Y-76053536D02*
G75*
G02X83031730Y-75471228I683782J-106208D01*
G01*
X81912174Y-75116324D02*
G75*
G02X82278783Y-76053536I-1296636J-1047515D01*
G01*
X81544358Y-75222581D02*
G75*
G02X81912174Y-75116325I223997J-85643D01*
G01*
X81767961Y-64911667D02*
G75*
G02X81982164Y-64209154I4562946J-1007369D01*
G01*
X81335746Y-64329009D02*
G75*
G02X81767960Y-64911668I-3731855J-3219912D01*
G01*
X80883076Y-64505528D02*
G75*
G02X81335745Y-64329009I250290J26827D01*
G01*
X78283617Y-72355355D02*
G75*
G02X78642793Y-72526847I-13760J-490697D01*
G01*
X78283615Y-72355355D02*
G75*
G02X77923567Y-72161339I10493J450564D01*
G01*
X77923567Y-72161338D02*
G75*
G02X78331731Y-71871226I715341J-574244D01*
G01*
X78352014Y-71535686D02*
G75*
G02X78331731Y-71871226I-93067J-162757D01*
G01*
X80341343Y-64908661D02*
G75*
G02X81012972Y-65172791I-1836345J-5655422D01*
G01*
X80035204Y-65202402D02*
G75*
G02X80341343Y-64908660I273206J21664D01*
G01*
X80031731Y-65871227D02*
G75*
G02X80035205Y-65202402I4058114J313341D01*
G01*
X79320565Y-65261358D02*
G75*
G02X80031731Y-65871228I-291671J-1059694D01*
G01*
X84321896Y-68038603D02*
X84900363Y-67434557D01*
X88206410Y-66434359D02*
G75*
G02X88047404Y-67102330I-1948968J111027D01*
G01*
X88746926Y-66858896D02*
G75*
G02X89074863Y-67038871I43184J-310071D01*
G01*
X89074863Y-67038871D02*
G75*
G02X88383689Y-67766258I-952887J213372D01*
G01*
X87949900Y-68010580D02*
G75*
G02X87931729Y-67671227I63417J173559D01*
G01*
X88750230Y-68277873D02*
G75*
G02X87949900Y-68010580I-39300J1214148D01*
G01*
X88131731Y-68971227D02*
G75*
G02X88750229Y-68277873I1072093J-333809D01*
G01*
X88299451Y-69306309D02*
G75*
G02X88131731Y-68971228I167513J293362D01*
G01*
X88531729Y-69371228D02*
G75*
G02X88299451Y-69306309I-49998J269109D01*
G01*
X80431730Y-72171227D02*
G75*
G02X79631730Y-70871227I1136275J1595399D01*
G01*
X79631729Y-70871229D02*
G75*
G02X79874248Y-68391556I2922247J965892D01*
G01*
X86064353Y-64954002D02*
X85545240Y-65183660D01*
X85699100Y-64255484D02*
G75*
G02X85545240Y-65183660I-1179013J-281400D01*
G01*
X85160653Y-64357325D02*
G75*
G02X85699100Y-64255482I307103J-149349D01*
G01*
X83839825Y-69156025D02*
X83210117Y-69156026D01*
X88812051Y-69700099D02*
G75*
G02X89364348Y-69539222I709979J-1408927D01*
G01*
X88812051Y-69700096D02*
G75*
G02X89472716Y-70276447I-1351551J-2216102D01*
G01*
X89472715Y-70276448D02*
G75*
G02X88731731Y-70871228I-822453J265669D01*
G01*
X88772803Y-70880227D02*
G75*
G02X89831730Y-71371227I-615979J-2715844D01*
G01*
X81031729Y-76471228D02*
G75*
G02X80931730Y-76071227I588740J359684D01*
G01*
X81531730Y-76071227D02*
G75*
G02X81031730Y-76471227I-986084J720106D01*
G01*
X81531730Y-76071228D02*
G75*
G02X81774221Y-75700318I908616J-329307D01*
G01*
X88383690Y-67766259D02*
G75*
G02X89293395Y-68154238I-53278J-1385417D01*
G01*
X89293394Y-68154237D02*
G75*
G02X88686461Y-68896381I-1041300J232336D01*
G01*
X88686463Y-68896381D02*
G75*
G02X89687890Y-69181624I131717J-1438089D01*
G01*
X89687889Y-69181624D02*
G75*
G02X89364348Y-69539222I-366996J6881D01*
G01*
X88231731Y-69671227D02*
G75*
G02X88493764Y-69375569I359710J-54856D01*
G01*
X88503793Y-70135937D02*
G75*
G02X88231730Y-69671227I247402J456835D01*
G01*
X88503798Y-70135939D02*
G75*
G02X88404565Y-70639078I-116567J-238365D01*
G01*
X88253515Y-71039269D02*
G75*
G02X88460209Y-70629410I265294J123259D01*
G01*
X88592185Y-71267049D02*
G75*
G02X88253516Y-71039266I-49773J291657D01*
G01*
X81390773Y-74879148D02*
G75*
G02X81544357Y-75222583I-203386J-297013D01*
G01*
X81102979Y-74809813D02*
G75*
G02X81390772Y-74879147I57114J-394884D01*
G01*
X80441605Y-75237739D02*
G75*
G02X81102979Y-74809813I1166752J-1078204D01*
G01*
X80231732Y-74271227D02*
G75*
G02X80441605Y-75237737I-905211J-702605D01*
G01*
X79731730Y-74371227D02*
G75*
G02X80235402Y-74275984I298135J-197221D01*
G01*
X79774756Y-73886188D02*
G75*
G02X79731730Y-74371227I-199499J-226731D01*
G01*
X78790694Y-74055579D02*
G75*
G02X79774757Y-73886186I624672J-685858D01*
G01*
X78984193Y-73189632D02*
G75*
G02X78790693Y-74055579I-1841995J-42990D01*
G01*
X78570252Y-73014636D02*
G75*
G02X78984194Y-73189633I136927J-253182D01*
G01*
X78642793Y-72526844D02*
G75*
G02X78570252Y-73014633I-278115J-207929D01*
G01*
X79031731Y-65471228D02*
G75*
G02X79320565Y-65261358I204541J22189D01*
G01*
X78547971Y-66131494D02*
G75*
G02X79357871Y-66278857I-102376J-2861912D01*
G01*
X78331730Y-66271228D02*
G75*
G02X78565671Y-66132182I186441J-47359D01*
G01*
X82679452Y-67710791D02*
G75*
G02X82771535Y-67445136I241368J65122D01*
G01*
X90431731Y-75871227D02*
G75*
G02X86531730Y-76471228I-2518751J3396875D01*
G01*
X86531730Y-76471227D02*
G75*
G02X85831730Y-75771227I850059J1550059D01*
G01*
X84426228Y-72733544D02*
G75*
G02X83531730Y-72571227I-240557J1220200D01*
G01*
X87631729Y-74071228D02*
G75*
G02X87600788Y-73157142I1189083J497816D01*
G01*
X86768980Y-73966197D02*
G75*
G02X87631731Y-74071228I269004J-1386269D01*
G01*
X86588150Y-74268217D02*
G75*
G02X86768979Y-73966197I269749J43636D01*
G01*
X86231732Y-74371228D02*
G75*
G02X86588148Y-74268219I214353J-73558D01*
G01*
X86120355Y-75231564D02*
G75*
G02X86231729Y-74371227I1976858J181465D01*
G01*
X78779229Y-66526155D02*
G75*
G02X78983556Y-67391613I-998350J-692550D01*
G01*
X79756146Y-66718753D02*
G75*
G02X78779228Y-66526156I-270258J1203083D01*
G01*
X79864939Y-66401829D02*
G75*
G02X79756147Y-66718750I-292613J-76686D01*
G01*
X80331730Y-66271226D02*
G75*
G02X79864939Y-66401831I-339594J314258D01*
G01*
X83672167Y-67875796D02*
G75*
G02X83562033Y-67531810I82013J215882D01*
G01*
X83531730Y-72571228D02*
G75*
G02X83767505Y-72091136I333661J134079D01*
G01*
X83767505Y-72091136D02*
X84426230Y-72733545D01*
X84426230Y-72733545D02*
X84426230Y-72733545D01*
X84321896Y-68038602D02*
G75*
G02X83672167Y-67875795I119130J1853296D01*
G01*
X83839826Y-71504115D02*
X86211992Y-73877516D01*
X86211992Y-73877516D02*
X85852378Y-74200131D01*
X88208361Y-71698486D02*
G75*
G02X88592182Y-71267047I307194J113160D01*
G01*
X88631730Y-72271227D02*
G75*
G02X88208361Y-71698484I931155J1131154D01*
G01*
X87842108Y-72741566D02*
G75*
G02X88631730Y-72271227I668579J-224442D01*
G01*
X87879747Y-73028114D02*
G75*
G02X87842106Y-72741566I343176J190826D01*
G01*
X87600789Y-73157143D02*
G75*
G02X87879748Y-73028115I260165J-196409D01*
G01*
X84131730Y-64171227D02*
G75*
G02X83657173Y-64589228I-957572J608749D01*
G01*
X83483098Y-63677458D02*
G75*
G02X83657173Y-64589228I-1327168J-725885D01*
G01*
X83105064Y-63731948D02*
G75*
G02X83483099Y-63677457I198719J-40059D01*
G01*
X79938280Y-70282356D02*
G75*
G02X80155679Y-68690447I2470995J473349D01*
G01*
X80531730Y-71671228D02*
G75*
G02X79938279Y-70282356I1340218J1393886D01*
G01*
X80089576Y-75527403D02*
G75*
G02X80031500Y-74721448I2460291J582354D01*
G01*
X80431730Y-75671228D02*
G75*
G02X80089575Y-75527402I-99999J241004D01*
G01*
X80431731Y-75671228D02*
G75*
G02X81018660Y-75396312I2384689J-4327191D01*
G01*
X78713190Y-74503633D02*
G75*
G02X78342702Y-74241323I-116279J228561D01*
G01*
X78713191Y-74503635D02*
G75*
G02X79343496Y-74308169I1706026J-4387330D01*
G01*
X84802025Y-75692293D02*
G75*
G02X84731730Y-76471227I-1154238J-288474D01*
G01*
X85531730Y-76471227D02*
G75*
G02X84802025Y-75692292I793358J1474477D01*
G01*
X85831730Y-75771228D02*
G75*
G02X85531730Y-76471228I-1084014J50292D01*
G01*
X88206410Y-66434357D02*
G75*
G02X88215945Y-66120725I604373J138587D01*
G01*
X89831729Y-71371228D02*
G75*
G02X88697044Y-71684825I-1028243J1510873D01*
G01*
X88697043Y-71684825D02*
G75*
G02X89257958Y-72428020I-2199889J-2243598D01*
G01*
X89257960Y-72428019D02*
G75*
G02X88705072Y-72732486I-563950J369854D01*
G01*
X88382372Y-72851263D02*
G75*
G02X88705072Y-72732486I374241J-519005D01*
G01*
X87145802Y-66726438D02*
G75*
G02X86889492Y-66437349I-61675J203487D01*
G01*
X87792261Y-66526420D02*
G75*
G02X87145800Y-66726438I-561750J670889D01*
G01*
X87608773Y-67528535D02*
G75*
G02X87792260Y-66526419I1040720J327301D01*
G01*
X87931731Y-67671225D02*
G75*
G02X87608776Y-67528535I-94249J223505D01*
G01*
X77511830Y-73479697D02*
G75*
G02X78191378Y-72805970I1344867J-676914D01*
G01*
X77764125Y-73766182D02*
G75*
G02X77511829Y-73479697I-49479J210762D01*
G01*
X58214123Y-73766183D02*
G75*
G02X58973640Y-73488313I3916750J-9528894D01*
G01*
X58214125Y-73766182D02*
G75*
G02X57961829Y-73479697I-49479J210762D01*
G01*
X57961830Y-73479697D02*
G75*
G02X58641378Y-72805970I1344867J-676914D01*
G01*
X68381731Y-67671225D02*
G75*
G02X68058776Y-67528535I-94249J223505D01*
G01*
X68058773Y-67528535D02*
G75*
G02X68242260Y-66526419I1040720J327301D01*
G01*
X68242261Y-66526420D02*
G75*
G02X67595800Y-66726438I-561750J670889D01*
G01*
X67595802Y-66726438D02*
G75*
G02X67339492Y-66437349I-61675J203487D01*
G01*
X68832372Y-72851263D02*
G75*
G02X69155072Y-72732486I374241J-519005D01*
G01*
X69707960Y-72428019D02*
G75*
G02X69155072Y-72732486I-563950J369854D01*
G01*
X69147043Y-71684825D02*
G75*
G02X69707958Y-72428020I-2199889J-2243598D01*
G01*
X70281729Y-71371228D02*
G75*
G02X69147044Y-71684825I-1028243J1510873D01*
G01*
X68656410Y-66434357D02*
G75*
G02X68665945Y-66120725I604373J138587D01*
G01*
X66281730Y-75771228D02*
G75*
G02X65981730Y-76471228I-1084014J50292D01*
G01*
X65981730Y-76471227D02*
G75*
G02X65252025Y-75692292I793358J1474477D01*
G01*
X65252025Y-75692293D02*
G75*
G02X65181730Y-76471227I-1154238J-288474D01*
G01*
X59163191Y-74503635D02*
G75*
G02X59793496Y-74308169I1706026J-4387330D01*
G01*
X59163190Y-74503633D02*
G75*
G02X58792702Y-74241323I-116279J228561D01*
G01*
X58973641Y-73488313D02*
G75*
G02X58792702Y-74241323I-755255116J181079544D01*
G01*
X60881731Y-75671228D02*
G75*
G02X61468660Y-75396312I2384689J-4327191D01*
G01*
X60881730Y-75671228D02*
G75*
G02X60539575Y-75527402I-99999J241004D01*
G01*
X60539576Y-75527403D02*
G75*
G02X60481500Y-74721448I2460291J582354D01*
G01*
X60981730Y-71671228D02*
G75*
G02X60388279Y-70282356I1340218J1393886D01*
G01*
X60388280Y-70282356D02*
G75*
G02X60605679Y-68690447I2470995J473349D01*
G01*
X63555064Y-63731948D02*
G75*
G02X63933099Y-63677457I198719J-40059D01*
G01*
X63933098Y-63677458D02*
G75*
G02X64107173Y-64589228I-1327168J-725885D01*
G01*
X64581730Y-64171227D02*
G75*
G02X64107173Y-64589228I-957572J608749D01*
G01*
X68050789Y-73157143D02*
G75*
G02X68329748Y-73028115I260165J-196409D01*
G01*
X68329747Y-73028114D02*
G75*
G02X68292106Y-72741566I343176J190826D01*
G01*
X68292108Y-72741566D02*
G75*
G02X69081730Y-72271227I668579J-224442D01*
G01*
X69081730Y-72271227D02*
G75*
G02X68658361Y-71698484I931155J1131154D01*
G01*
X68658361Y-71698486D02*
G75*
G02X69042182Y-71267047I307194J113160D01*
G01*
X66661992Y-73877516D02*
X66302378Y-74200131D01*
X64289826Y-71504115D02*
X66661992Y-73877516D01*
X64771896Y-68038602D02*
G75*
G02X64122167Y-67875795I119130J1853296D01*
G01*
X64876230Y-72733545D02*
X64876230Y-72733545D01*
X64217505Y-72091136D02*
X64876230Y-72733545D01*
X63981730Y-72571228D02*
G75*
G02X64217505Y-72091136I333661J134079D01*
G01*
X64122167Y-67875796D02*
G75*
G02X64012033Y-67531810I82013J215882D01*
G01*
X60781730Y-66271226D02*
G75*
G02X60314939Y-66401831I-339594J314258D01*
G01*
X60314939Y-66401829D02*
G75*
G02X60206147Y-66718750I-292613J-76686D01*
G01*
X60206146Y-66718753D02*
G75*
G02X59229228Y-66526156I-270258J1203083D01*
G01*
X59229229Y-66526155D02*
G75*
G02X59433556Y-67391613I-998350J-692550D01*
G01*
X66570355Y-75231564D02*
G75*
G02X66681729Y-74371227I1976858J181465D01*
G01*
X66681732Y-74371228D02*
G75*
G02X67038148Y-74268219I214353J-73558D01*
G01*
X67038150Y-74268217D02*
G75*
G02X67218979Y-73966197I269749J43636D01*
G01*
X67218980Y-73966197D02*
G75*
G02X68081731Y-74071228I269004J-1386269D01*
G01*
X68081729Y-74071228D02*
G75*
G02X68050788Y-73157142I1189083J497816D01*
G01*
X64876228Y-72733544D02*
G75*
G02X63981730Y-72571227I-240557J1220200D01*
G01*
X66981730Y-76471227D02*
G75*
G02X66281730Y-75771227I850059J1550059D01*
G01*
X70881731Y-75871227D02*
G75*
G02X66981730Y-76471228I-2518751J3396875D01*
G01*
X63129452Y-67710791D02*
G75*
G02X63221535Y-67445136I241368J65122D01*
G01*
X58781730Y-66271228D02*
G75*
G02X59015671Y-66132182I186441J-47359D01*
G01*
X58997971Y-66131494D02*
G75*
G02X59807871Y-66278857I-102376J-2861912D01*
G01*
X59807871Y-66278858D02*
G75*
G02X59481730Y-65471227I3049959J1701315D01*
G01*
X59481731Y-65471228D02*
G75*
G02X59770565Y-65261358I204541J22189D01*
G01*
X59092793Y-72526844D02*
G75*
G02X59020252Y-73014633I-278115J-207929D01*
G01*
X59020252Y-73014636D02*
G75*
G02X59434194Y-73189633I136927J-253182D01*
G01*
X59434193Y-73189632D02*
G75*
G02X59240693Y-74055579I-1841995J-42990D01*
G01*
X59240694Y-74055579D02*
G75*
G02X60224757Y-73886186I624672J-685858D01*
G01*
X60224756Y-73886188D02*
G75*
G02X60181730Y-74371227I-199499J-226731D01*
G01*
X60181730Y-74371227D02*
G75*
G02X60685402Y-74275984I298135J-197221D01*
G01*
X60681732Y-74271227D02*
G75*
G02X60891605Y-75237737I-905211J-702605D01*
G01*
X60891605Y-75237739D02*
G75*
G02X61552979Y-74809813I1166752J-1078204D01*
G01*
X61552979Y-74809813D02*
G75*
G02X61840772Y-74879147I57114J-394884D01*
G01*
X61840773Y-74879148D02*
G75*
G02X61994357Y-75222583I-203386J-297013D01*
G01*
X69042185Y-71267049D02*
G75*
G02X68703516Y-71039266I-49773J291657D01*
G01*
X68703515Y-71039269D02*
G75*
G02X68910209Y-70629410I265294J123259D01*
G01*
X68953798Y-70135939D02*
G75*
G02X68854565Y-70639078I-116567J-238365D01*
G01*
X68953793Y-70135937D02*
G75*
G02X68681730Y-69671227I247402J456835D01*
G01*
X68681731Y-69671227D02*
G75*
G02X68943764Y-69375569I359710J-54856D01*
G01*
X70137889Y-69181624D02*
G75*
G02X69814348Y-69539222I-366996J6881D01*
G01*
X69136463Y-68896381D02*
G75*
G02X70137890Y-69181624I131717J-1438089D01*
G01*
X69743394Y-68154237D02*
G75*
G02X69136461Y-68896381I-1041300J232336D01*
G01*
X68833690Y-67766259D02*
G75*
G02X69743395Y-68154238I-53278J-1385417D01*
G01*
X61981730Y-76071228D02*
G75*
G02X62224221Y-75700318I908616J-329307D01*
G01*
X61981730Y-76071227D02*
G75*
G02X61481730Y-76471227I-986084J720106D01*
G01*
X61481729Y-76471228D02*
G75*
G02X61381730Y-76071227I588740J359684D01*
G01*
X61381730Y-76071228D02*
G75*
G02X61468660Y-75396312I12575875J-1276724D01*
G01*
X69222803Y-70880227D02*
G75*
G02X70281730Y-71371227I-615979J-2715844D01*
G01*
X69922715Y-70276448D02*
G75*
G02X69181731Y-70871228I-822453J265669D01*
G01*
X69262051Y-69700096D02*
G75*
G02X69922716Y-70276447I-1351551J-2216102D01*
G01*
X69262051Y-69700099D02*
G75*
G02X69814348Y-69539222I709979J-1408927D01*
G01*
X64289825Y-69156025D02*
X63660117Y-69156026D01*
X65610653Y-64357325D02*
G75*
G02X66149100Y-64255482I307103J-149349D01*
G01*
X66149100Y-64255484D02*
G75*
G02X65995240Y-65183660I-1179013J-281400D01*
G01*
X66514353Y-64954002D02*
X65995240Y-65183660D01*
X60081729Y-70871229D02*
G75*
G02X60324248Y-68391556I2922247J965892D01*
G01*
X60881730Y-72171227D02*
G75*
G02X60081730Y-70871227I1136275J1595399D01*
G01*
X68981729Y-69371228D02*
G75*
G02X68749451Y-69306309I-49998J269109D01*
G01*
X68749451Y-69306309D02*
G75*
G02X68581731Y-68971228I167513J293362D01*
G01*
X68581731Y-68971227D02*
G75*
G02X69200229Y-68277873I1072093J-333809D01*
G01*
X69200230Y-68277873D02*
G75*
G02X68399900Y-68010580I-39300J1214148D01*
G01*
X68399900Y-68010580D02*
G75*
G02X68381729Y-67671227I63417J173559D01*
G01*
X69524863Y-67038871D02*
G75*
G02X68833689Y-67766258I-952887J213372D01*
G01*
X69196926Y-66858896D02*
G75*
G02X69524863Y-67038871I43184J-310071D01*
G01*
X69196925Y-66858895D02*
G75*
G02X68497404Y-67102330I-9292254J25574975D01*
G01*
X68656410Y-66434359D02*
G75*
G02X68497404Y-67102330I-1948968J111027D01*
G01*
X64771896Y-68038603D02*
X65350363Y-67434557D01*
X59770565Y-65261358D02*
G75*
G02X60481731Y-65871228I-291671J-1059694D01*
G01*
X60481731Y-65871227D02*
G75*
G02X60485205Y-65202402I4058114J313341D01*
G01*
X60485204Y-65202402D02*
G75*
G02X60791343Y-64908660I273206J21664D01*
G01*
X60791343Y-64908661D02*
G75*
G02X61462972Y-65172791I-1836345J-5655422D01*
G01*
X58802014Y-71535686D02*
G75*
G02X58781731Y-71871226I-93067J-162757D01*
G01*
X58373567Y-72161338D02*
G75*
G02X58781731Y-71871226I715341J-574244D01*
G01*
X58733615Y-72355355D02*
G75*
G02X58373567Y-72161339I10493J450564D01*
G01*
X58733617Y-72355355D02*
G75*
G02X59092793Y-72526847I-13760J-490697D01*
G01*
X61462973Y-65172791D02*
G75*
G02X61333074Y-64505527I17966191J3843813D01*
G01*
X61333076Y-64505528D02*
G75*
G02X61785745Y-64329009I250290J26827D01*
G01*
X61785746Y-64329009D02*
G75*
G02X62217960Y-64911668I-3731855J-3219912D01*
G01*
X62217961Y-64911667D02*
G75*
G02X62432164Y-64209154I4562946J-1007369D01*
G01*
X61994358Y-75222581D02*
G75*
G02X62362174Y-75116325I223997J-85643D01*
G01*
X62362174Y-75116324D02*
G75*
G02X62728783Y-76053536I-1296636J-1047515D01*
G01*
X62728783Y-76053536D02*
G75*
G02X63481730Y-75471228I683782J-106208D01*
G01*
X63681730Y-75771228D02*
G75*
G02X63481730Y-75471228I349999J450000D01*
G01*
X63852502Y-75567464D02*
G75*
G02X63681730Y-75771226I-290803J70278D01*
G01*
X63852504Y-75567463D02*
G75*
G02X64751082Y-76044806I98529J-898964D01*
G01*
X64881731Y-75571228D02*
G75*
G02X64751082Y-76044806I-1004804J22391D01*
G01*
X64881731Y-75571227D02*
G75*
G02X65481731Y-75071227I500000J10000D01*
G01*
X65481730Y-75071227D02*
G75*
G02X65730359Y-74828114I346159J-105322D01*
G01*
X65730360Y-74828115D02*
G75*
G02X66570356Y-75231564I-27970J-1134411D01*
G01*
X66661992Y-66782537D02*
X64289825Y-69156025D01*
X66661992Y-66782537D02*
X66342549Y-66472886D01*
X63552930Y-76827574D02*
G75*
G02X63364840Y-75965341I5260702J1599216D01*
G01*
X63364840Y-75965342D02*
G75*
G02X62881730Y-76571227I-1759172J907149D01*
G01*
X62881731Y-76571230D02*
G75*
G02X62444578Y-76404447I-177919J189958D01*
G01*
X62224221Y-75700317D02*
G75*
G02X62450581Y-76428795I-5794737J-2200008D01*
G01*
X60481501Y-74721449D02*
G75*
G02X59861446Y-75331049I-1978469J1392255D01*
G01*
X59861444Y-75331046D02*
G75*
G02X59532024Y-75043716I-99552J218368D01*
G01*
X59532020Y-75043716D02*
G75*
G02X59781730Y-74371226I1280212J-92763D01*
G01*
X58340315Y-68918958D02*
X55863112Y-70371257D01*
X60324251Y-68391556D02*
G75*
G02X60605679Y-68690447I-1112621J-1329553D01*
G01*
X65881731Y-65771227D02*
G75*
G02X65553299Y-65334030I-70279J289166D01*
G01*
X65553300Y-65334029D02*
G75*
G02X65076901Y-65441395I-314613J285375D01*
G01*
X65076901Y-65441395D02*
G75*
G02X64723914Y-64680007I5415148J2973030D01*
G01*
X64281729Y-65071227D02*
G75*
G02X64723914Y-64680007I1116938J-816937D01*
G01*
X58024193Y-71550055D02*
X58324706Y-71685795D01*
X55863112Y-70371257D02*
X58024193Y-71550055D01*
X63181732Y-72971228D02*
G75*
G02X63018920Y-72470375I345020J389045D01*
G01*
X65502498Y-73351259D02*
G75*
G02X63181730Y-72971227I-813739J2306901D01*
G01*
X66342549Y-66472886D02*
X65728630Y-67082131D01*
X63221534Y-67445134D02*
G75*
G02X65728630Y-67082131I1588853J-2134294D01*
G01*
X65502498Y-73351257D02*
X65502498Y-73351257D01*
X66302378Y-74200131D02*
X65502498Y-73351257D01*
X71133270Y-65262418D02*
G75*
G02X70784021Y-65425224I-255674J92463D01*
G01*
X68665943Y-66120726D02*
G75*
G02X70784021Y-65425224I1838597J-2026311D01*
G01*
X63660117Y-69156026D02*
X64139188Y-68670867D01*
X62493169Y-65325725D02*
G75*
G02X61972853Y-65422694I-372635J555043D01*
G01*
X61972850Y-65422692D02*
G75*
G02X61672488Y-65741977I-241293J-73930D01*
G01*
X61672487Y-65741977D02*
G75*
G02X60903777Y-65360401I648718J2271982D01*
G01*
X60903776Y-65360401D02*
G75*
G02X60781729Y-66271227I-1611598J-247642D01*
G01*
X59433555Y-67391612D02*
G75*
G02X59018195Y-67578101I-311193J137307D01*
G01*
X59018196Y-67578101D02*
G75*
G02X59181730Y-67971227I-446649J-416376D01*
G01*
X59181729Y-67971227D02*
G75*
G02X58336458Y-68360375I-1207767J1510816D01*
G01*
X58336458Y-68360374D02*
G75*
G02X58794255Y-69060069I-77267J-550166D01*
G01*
X65181730Y-76471229D02*
G75*
G02X64781730Y-76571227I-243465J123864D01*
G01*
X64781730Y-76571228D02*
G75*
G02X64105497Y-75957140I1131727J1925635D01*
G01*
X64105495Y-75957139D02*
G75*
G02X63957462Y-76841565I-2848087J22106D01*
G01*
X63957464Y-76841565D02*
G75*
G02X63552930Y-76827576I-199518J86491D01*
G01*
X58340317Y-68918957D02*
G75*
G02X57740475Y-68413653I865230J1635791D01*
G01*
X57740474Y-68413652D02*
G75*
G02X57781730Y-68071227I134054J157547D01*
G01*
X57781731Y-68071228D02*
G75*
G02X58641588Y-67767493I951810J-1325550D01*
G01*
X63662674Y-71504113D02*
X63902827Y-71754674D01*
X64289826Y-71504115D02*
X63662674Y-71504113D01*
X62431616Y-64211274D02*
G75*
G02X62781730Y-64071227I225919J-57129D01*
G01*
X62781732Y-64071227D02*
G75*
G02X63361051Y-64584730I-2895051J-3849644D01*
G01*
X63361050Y-64584732D02*
G75*
G02X63556472Y-63725519I1815024J39016D01*
G01*
X64581730Y-64171227D02*
G75*
G02X64991340Y-64042158I236706J-36706D01*
G01*
X64991339Y-64042158D02*
G75*
G02X65254848Y-64911666I-925788J-755247D01*
G01*
X65254848Y-64911668D02*
G75*
G02X65610655Y-64357324I733763J-79608D01*
G01*
X64139191Y-68670868D02*
G75*
G02X63129452Y-67710793I283251J1308927D01*
G01*
X58641588Y-67767492D02*
G75*
G02X57881730Y-67271227I302863J1293593D01*
G01*
X57881730Y-67271225D02*
G75*
G02X58045041Y-66911212I165344J142043D01*
G01*
X58045042Y-66911214D02*
G75*
G02X58976727Y-67101008I154207J-1624689D01*
G01*
X58976727Y-67101006D02*
G75*
G02X58756848Y-66307228I951932J691030D01*
G01*
X71181732Y-75471227D02*
G75*
G02X70881731Y-75871228I-750002J250000D01*
G01*
X70773701Y-75306529D02*
G75*
G02X71181730Y-75471226I77876J-394852D01*
G01*
X70773705Y-75306530D02*
G75*
G02X68655538Y-74611029I-302715J2651292D01*
G01*
X66514354Y-64954001D02*
G75*
G02X67181731Y-64371228I2032446J-1653986D01*
G01*
X67181731Y-64371227D02*
G75*
G02X70781730Y-64771228I1449999J-3350000D01*
G01*
X70781730Y-64771227D02*
G75*
G02X71133271Y-65262417I-602846J-802845D01*
G01*
X67093615Y-66259103D02*
G75*
G02X67339492Y-66437349I111682J-104651D01*
G01*
X67093617Y-66259102D02*
G75*
G02X66745533Y-66347909I-231697J181576D01*
G01*
X66745534Y-66347908D02*
G75*
G02X66570484Y-65383633I1396502J751541D01*
G01*
X66581731Y-65371228D02*
G75*
G02X65881730Y-65771228I-950001J850001D01*
G01*
X65728630Y-67082131D02*
X65728630Y-67082131D01*
X65350363Y-67434557D02*
X65350363Y-67434557D01*
X61235658Y-72087589D02*
G75*
G02X60881730Y-72171227I-253928J283866D01*
G01*
X60966169Y-71656098D02*
G75*
G02X61235658Y-72087589I-166537J-403911D01*
G01*
X58794255Y-69060071D02*
G75*
G02X58802015Y-71535689I-859100J-1240514D01*
G01*
X58324706Y-71685795D02*
X58324706Y-71685795D01*
X68481731Y-73571227D02*
G75*
G02X68655538Y-74611029I-854531J-677265D01*
G01*
X68481729Y-73571227D02*
G75*
G02X69292140Y-73824726I-159509J-1932087D01*
G01*
X69610006Y-73455775D02*
G75*
G02X69292140Y-73824726I-168897J-175891D01*
G01*
X68832370Y-72851264D02*
G75*
G02X69610005Y-73455775I-805340J-1838403D01*
G01*
X64281731Y-65071227D02*
G75*
G02X63714465Y-65023303I-267180J218715D01*
G01*
X63714466Y-65023303D02*
G75*
G02X63407952Y-65133646I-181646J23688D01*
G01*
X63407952Y-65133646D02*
G75*
G02X62725962Y-64543808I1903814J2890439D01*
G01*
X62725963Y-64543808D02*
G75*
G02X62493167Y-65325725I-1965580J159588D01*
G01*
X63281730Y-71971227D02*
G75*
G02X63902827Y-71754674I862751J-1475503D01*
G01*
X63018920Y-72470375D02*
G75*
G02X63281731Y-71971228I757232J-79937D01*
G01*
X58641377Y-72805970D02*
G75*
G02X57884262Y-72588289I740666J4001617D01*
G01*
X57884264Y-72588288D02*
G75*
G02X57778963Y-72297640I118703J207405D01*
G01*
X57778963Y-72297638D02*
G75*
G02X58324706Y-71685795I942287J-291174D01*
G01*
X64012033Y-67531809D02*
G75*
G02X65350363Y-67434557I737967J-898191D01*
G01*
D11*
X66154762Y-150532381D02*
X66821429Y-151532381D01*
X66821429Y-150532381D02*
X66154762Y-151532381D01*
X67535715Y-151008571D02*
X67678572Y-151056190D01*
X67726191Y-151103810D01*
X67773810Y-151199048D01*
X67773810Y-151341905D01*
X67726191Y-151437143D01*
X67678572Y-151484762D01*
X67583334Y-151532381D01*
X67202381Y-151532381D01*
X67202381Y-150532381D01*
X67535715Y-150532381D01*
X67630953Y-150580000D01*
X67678572Y-150627619D01*
X67726191Y-150722857D01*
X67726191Y-150818095D01*
X67678572Y-150913333D01*
X67630953Y-150960952D01*
X67535715Y-151008571D01*
X67202381Y-151008571D01*
X68583334Y-151484762D02*
X68488096Y-151532381D01*
X68297619Y-151532381D01*
X68202381Y-151484762D01*
X68154762Y-151389524D01*
X68154762Y-151008571D01*
X68202381Y-150913333D01*
X68297619Y-150865714D01*
X68488096Y-150865714D01*
X68583334Y-150913333D01*
X68630953Y-151008571D01*
X68630953Y-151103810D01*
X68154762Y-151199048D01*
X69440477Y-151484762D02*
X69345239Y-151532381D01*
X69154762Y-151532381D01*
X69059524Y-151484762D01*
X69011905Y-151389524D01*
X69011905Y-151008571D01*
X69059524Y-150913333D01*
X69154762Y-150865714D01*
X69345239Y-150865714D01*
X69440477Y-150913333D01*
X69488096Y-151008571D01*
X69488096Y-151103810D01*
X69011905Y-151199048D01*
X71392858Y-150484762D02*
X70535715Y-151770476D01*
X67392858Y-152658571D02*
X67059524Y-152658571D01*
X67059524Y-153182381D02*
X67059524Y-152182381D01*
X67535715Y-152182381D01*
X67773810Y-152182381D02*
X68345239Y-152182381D01*
X68059524Y-153182381D02*
X68059524Y-152182381D01*
X68678572Y-153182381D02*
X68678572Y-152182381D01*
X68916667Y-152182381D01*
X69059525Y-152230000D01*
X69154763Y-152325238D01*
X69202382Y-152420476D01*
X69250001Y-152610952D01*
X69250001Y-152753810D01*
X69202382Y-152944286D01*
X69154763Y-153039524D01*
X69059525Y-153134762D01*
X68916667Y-153182381D01*
X68678572Y-153182381D01*
X69678572Y-153182381D02*
X69678572Y-152182381D01*
X66107142Y-154546667D02*
X66583333Y-154546667D01*
X66011904Y-154832381D02*
X66345237Y-153832381D01*
X66678571Y-154832381D01*
X67440476Y-154832381D02*
X67440476Y-153832381D01*
X67440476Y-154784762D02*
X67345238Y-154832381D01*
X67154761Y-154832381D01*
X67059523Y-154784762D01*
X67011904Y-154737143D01*
X66964285Y-154641905D01*
X66964285Y-154356190D01*
X67011904Y-154260952D01*
X67059523Y-154213333D01*
X67154761Y-154165714D01*
X67345238Y-154165714D01*
X67440476Y-154213333D01*
X68345238Y-154832381D02*
X68345238Y-154308571D01*
X68297619Y-154213333D01*
X68202381Y-154165714D01*
X68011904Y-154165714D01*
X67916666Y-154213333D01*
X68345238Y-154784762D02*
X68250000Y-154832381D01*
X68011904Y-154832381D01*
X67916666Y-154784762D01*
X67869047Y-154689524D01*
X67869047Y-154594286D01*
X67916666Y-154499048D01*
X68011904Y-154451429D01*
X68250000Y-154451429D01*
X68345238Y-154403810D01*
X68821428Y-154165714D02*
X68821428Y-155165714D01*
X68821428Y-154213333D02*
X68916666Y-154165714D01*
X69107143Y-154165714D01*
X69202381Y-154213333D01*
X69250000Y-154260952D01*
X69297619Y-154356190D01*
X69297619Y-154641905D01*
X69250000Y-154737143D01*
X69202381Y-154784762D01*
X69107143Y-154832381D01*
X68916666Y-154832381D01*
X68821428Y-154784762D01*
X69583333Y-154165714D02*
X69964285Y-154165714D01*
X69726190Y-153832381D02*
X69726190Y-154689524D01*
X69773809Y-154784762D01*
X69869047Y-154832381D01*
X69964285Y-154832381D01*
X70440476Y-154832381D02*
X70345238Y-154784762D01*
X70297619Y-154737143D01*
X70250000Y-154641905D01*
X70250000Y-154356190D01*
X70297619Y-154260952D01*
X70345238Y-154213333D01*
X70440476Y-154165714D01*
X70583334Y-154165714D01*
X70678572Y-154213333D01*
X70726191Y-154260952D01*
X70773810Y-154356190D01*
X70773810Y-154641905D01*
X70726191Y-154737143D01*
X70678572Y-154784762D01*
X70583334Y-154832381D01*
X70440476Y-154832381D01*
X71202381Y-154832381D02*
X71202381Y-154165714D01*
X71202381Y-154356190D02*
X71250000Y-154260952D01*
X71297619Y-154213333D01*
X71392857Y-154165714D01*
X71488096Y-154165714D01*
D12*
X66894559Y-118371294D02*
X87214559Y-118371294D01*
X66894559Y-118371294D02*
X66894559Y-133865294D01*
X87214559Y-133865294D02*
X87214559Y-118371294D01*
X66640559Y-133865294D02*
X87214559Y-133865294D01*
D13*
X122231448Y-150146544D02*
G75*
G03X122231448Y-150146544I-500000J0D01*
G01*
D14*
X68533500Y-150062500D02*
X68533500Y-148062500D01*
X68533500Y-148062500D02*
X86533500Y-148062500D01*
X86533500Y-148062500D02*
X86533500Y-150062500D01*
X86533500Y-150062500D02*
X68533500Y-150062500D01*
X65983500Y-147512500D02*
X67533500Y-147512500D01*
X67533500Y-150612500D02*
X65983500Y-150612500D01*
X65983500Y-150612500D02*
X65983500Y-147512500D01*
X74768559Y-113291294D02*
X77308559Y-113291294D01*
X71948559Y-113011294D02*
X73498559Y-113011294D01*
X74768559Y-113291294D02*
X74768559Y-115831294D01*
X73498559Y-116111294D02*
X71948559Y-116111294D01*
X71948559Y-116111294D02*
X71948559Y-113011294D01*
X74768559Y-115831294D02*
X77308559Y-115831294D01*
X77308559Y-115831294D02*
X77308559Y-113291294D01*
D15*
X65951134Y-124213294D02*
G75*
G03X65951134Y-124213294I-647575J0D01*
G01*
D16*
X90770559Y-131706294D02*
X91786559Y-131706294D01*
X91786559Y-131706294D02*
X91786559Y-129420294D01*
X91786559Y-129420294D02*
X90770559Y-129420294D01*
X90770559Y-129420294D02*
X90770559Y-131706294D01*
X87595559Y-135770294D02*
X87595559Y-136786294D01*
X87595559Y-136786294D02*
X89881559Y-136786294D01*
X89881559Y-136786294D02*
X89881559Y-135770294D01*
X89881559Y-135770294D02*
X87595559Y-135770294D01*
D14*
X90658799Y-135037454D02*
X90658799Y-134989194D01*
X89957759Y-132238474D02*
X90658799Y-132238474D01*
X90658799Y-132238474D02*
X90658799Y-132487394D01*
X90658799Y-135037454D02*
X90658799Y-135238114D01*
X90658799Y-135238114D02*
X89957759Y-135238114D01*
D16*
X107349184Y-124519768D02*
X106333184Y-124519768D01*
X106333184Y-124519768D02*
X106333184Y-126805768D01*
X106333184Y-126805768D02*
X107349184Y-126805768D01*
X107349184Y-126805768D02*
X107349184Y-124519768D01*
D14*
X97841184Y-135912768D02*
X97841184Y-128412768D01*
X97841184Y-128412768D02*
X101841184Y-128412768D01*
X101841184Y-128412768D02*
X101841184Y-135912768D01*
X101841184Y-135912768D02*
X97841184Y-135912768D01*
X103341184Y-135912768D02*
X103341184Y-128412768D01*
X103341184Y-128412768D02*
X107341184Y-128412768D01*
X107341184Y-128412768D02*
X107341184Y-135912768D01*
X107341184Y-135912768D02*
X103341184Y-135912768D01*
X72228559Y-135008294D02*
X84928559Y-135008294D01*
X84928559Y-135008294D02*
X84928559Y-137548294D01*
X84928559Y-137548294D02*
X72228559Y-137548294D01*
X69408559Y-134728294D02*
X70958559Y-134728294D01*
X72228559Y-135008294D02*
X72228559Y-137548294D01*
X70958559Y-137828294D02*
X69408559Y-137828294D01*
X69408559Y-137828294D02*
X69408559Y-134728294D01*
X69688559Y-133738294D02*
X77308559Y-133738294D01*
X69688559Y-131198294D02*
X77308559Y-131198294D01*
X66868559Y-130918294D02*
X68418559Y-130918294D01*
X77308559Y-133738294D02*
X77308559Y-131198294D01*
X69688559Y-131198294D02*
X69688559Y-133738294D01*
X68418559Y-134018294D02*
X66868559Y-134018294D01*
X66868559Y-134018294D02*
X66868559Y-130918294D01*
X72133559Y-117768294D02*
X72133559Y-118443294D01*
X82483559Y-117768294D02*
X82483559Y-118443294D01*
X82483559Y-128118294D02*
X82483559Y-127443294D01*
X72133559Y-128118294D02*
X72133559Y-127443294D01*
X72133559Y-117768294D02*
X72808559Y-117768294D01*
X72133559Y-128118294D02*
X72808559Y-128118294D01*
X82483559Y-128118294D02*
X81808559Y-128118294D01*
X82483559Y-117768294D02*
X81808559Y-117768294D01*
X72133559Y-118443294D02*
X70858559Y-118443294D01*
D16*
X91786559Y-123578294D02*
X90770559Y-123578294D01*
X90770559Y-123578294D02*
X90770559Y-125864294D01*
X90770559Y-125864294D02*
X91786559Y-125864294D01*
X91786559Y-125864294D02*
X91786559Y-123578294D01*
X87595559Y-129039294D02*
X87595559Y-130055294D01*
X87595559Y-130055294D02*
X89881559Y-130055294D01*
X89881559Y-130055294D02*
X89881559Y-129039294D01*
X89881559Y-129039294D02*
X87595559Y-129039294D01*
X71466559Y-115831294D02*
X71466559Y-114815294D01*
X71466559Y-114815294D02*
X69180559Y-114815294D01*
X69180559Y-114815294D02*
X69180559Y-115831294D01*
X69180559Y-115831294D02*
X71466559Y-115831294D01*
X67275559Y-119260294D02*
X67275559Y-120276294D01*
X67275559Y-120276294D02*
X69561559Y-120276294D01*
X69561559Y-120276294D02*
X69561559Y-119260294D01*
X69561559Y-119260294D02*
X67275559Y-119260294D01*
X67275559Y-129420294D02*
X67275559Y-130436294D01*
X67275559Y-130436294D02*
X69561559Y-130436294D01*
X69561559Y-130436294D02*
X69561559Y-129420294D01*
X69561559Y-129420294D02*
X67275559Y-129420294D01*
X83531559Y-115450294D02*
X82515559Y-115450294D01*
X82515559Y-115450294D02*
X82515559Y-117736294D01*
X82515559Y-117736294D02*
X83531559Y-117736294D01*
X83531559Y-117736294D02*
X83531559Y-115450294D01*
X83150559Y-128150294D02*
X83150559Y-129166294D01*
X83150559Y-129166294D02*
X85436559Y-129166294D01*
X85436559Y-129166294D02*
X85436559Y-128150294D01*
X85436559Y-128150294D02*
X83150559Y-128150294D01*
X69180559Y-116720294D02*
X69180559Y-117736294D01*
X69180559Y-117736294D02*
X71466559Y-117736294D01*
X71466559Y-117736294D02*
X71466559Y-116720294D01*
X71466559Y-116720294D02*
X69180559Y-116720294D01*
D17*
X61438559Y-117728294D02*
X61438559Y-116728294D01*
D14*
X61538559Y-117828294D02*
X61338559Y-117828294D01*
X61338559Y-117828294D02*
X61338559Y-116628294D01*
X61338559Y-116628294D02*
X61538559Y-116628294D01*
X65138559Y-117828294D02*
X61538559Y-117828294D01*
X61538559Y-116628294D02*
X65138559Y-116628294D01*
X65138559Y-116628294D02*
X65138559Y-117828294D01*
X63084559Y-117609294D02*
X63084559Y-116847294D01*
X63592559Y-117609294D02*
X63592559Y-116847294D01*
X63592559Y-116847294D02*
X63084559Y-117228294D01*
X63084559Y-117228294D02*
X63592559Y-117609294D01*
D17*
X86888559Y-111293294D02*
X87888559Y-111293294D01*
D14*
X86788559Y-111393294D02*
X86788559Y-111193294D01*
X86788559Y-111193294D02*
X87988559Y-111193294D01*
X87988559Y-111193294D02*
X87988559Y-111393294D01*
X86788559Y-114993294D02*
X86788559Y-111393294D01*
X87988559Y-111393294D02*
X87988559Y-114993294D01*
X87988559Y-114993294D02*
X86788559Y-114993294D01*
X87007559Y-112939294D02*
X87769559Y-112939294D01*
X87007559Y-113447294D02*
X87769559Y-113447294D01*
X87769559Y-113447294D02*
X87388559Y-112939294D01*
X87388559Y-112939294D02*
X87007559Y-113447294D01*
D17*
X90638559Y-137683294D02*
X90638559Y-138683294D01*
D14*
X90538559Y-137583294D02*
X90738559Y-137583294D01*
X90738559Y-137583294D02*
X90738559Y-138783294D01*
X90738559Y-138783294D02*
X90538559Y-138783294D01*
X86938559Y-137583294D02*
X90538559Y-137583294D01*
X90538559Y-138783294D02*
X86938559Y-138783294D01*
X86938559Y-138783294D02*
X86938559Y-137583294D01*
X88992559Y-137802294D02*
X88992559Y-138564294D01*
X88484559Y-137802294D02*
X88484559Y-138564294D01*
X88484559Y-138564294D02*
X88992559Y-138183294D01*
X88992559Y-138183294D02*
X88484559Y-137802294D01*
D17*
X67013559Y-141353294D02*
X66013559Y-141353294D01*
D14*
X67113559Y-141253294D02*
X67113559Y-141453294D01*
X67113559Y-141453294D02*
X65913559Y-141453294D01*
X65913559Y-141453294D02*
X65913559Y-141253294D01*
X67113559Y-137653294D02*
X67113559Y-141253294D01*
X65913559Y-141253294D02*
X65913559Y-137653294D01*
X65913559Y-137653294D02*
X67113559Y-137653294D01*
X66894559Y-139707294D02*
X66132559Y-139707294D01*
X66894559Y-139199294D02*
X66132559Y-139199294D01*
X66132559Y-139199294D02*
X66513559Y-139707294D01*
X66513559Y-139707294D02*
X66894559Y-139199294D01*
D16*
X89881559Y-124467294D02*
X89881559Y-123451294D01*
X89881559Y-123451294D02*
X87595559Y-123451294D01*
X87595559Y-123451294D02*
X87595559Y-124467294D01*
X87595559Y-124467294D02*
X89881559Y-124467294D01*
D14*
X70987719Y-112133054D02*
X70939459Y-112133054D01*
X68188739Y-112834094D02*
X68188739Y-112133054D01*
X68188739Y-112133054D02*
X68437659Y-112133054D01*
X70987719Y-112133054D02*
X71188379Y-112133054D01*
X71188379Y-112133054D02*
X71188379Y-112834094D01*
X92563799Y-119162454D02*
X92563799Y-119114194D01*
X91862759Y-116363474D02*
X92563799Y-116363474D01*
X92563799Y-116363474D02*
X92563799Y-116612394D01*
X92563799Y-119162454D02*
X92563799Y-119363114D01*
X92563799Y-119363114D02*
X91862759Y-119363114D01*
X85534399Y-142008534D02*
X85582659Y-142008534D01*
X88333379Y-141307494D02*
X88333379Y-142008534D01*
X88333379Y-142008534D02*
X88084459Y-142008534D01*
X85534399Y-142008534D02*
X85333739Y-142008534D01*
X85333739Y-142008534D02*
X85333739Y-141307494D01*
X62053319Y-134344134D02*
X62053319Y-134392394D01*
X62754359Y-137143114D02*
X62053319Y-137143114D01*
X62053319Y-137143114D02*
X62053319Y-136894194D01*
X62053319Y-134344134D02*
X62053319Y-134143474D01*
X62053319Y-134143474D02*
X62754359Y-134143474D01*
D16*
X67275559Y-117736294D02*
X68291559Y-117736294D01*
X68291559Y-117736294D02*
X68291559Y-115450294D01*
X68291559Y-115450294D02*
X67275559Y-115450294D01*
X67275559Y-115450294D02*
X67275559Y-117736294D01*
X87595559Y-119260294D02*
X87595559Y-120276294D01*
X87595559Y-120276294D02*
X89881559Y-120276294D01*
X89881559Y-120276294D02*
X89881559Y-119260294D01*
X89881559Y-119260294D02*
X87595559Y-119260294D01*
X66640559Y-114561294D02*
X67656559Y-114561294D01*
X67656559Y-114561294D02*
X67656559Y-112275294D01*
X67656559Y-112275294D02*
X66640559Y-112275294D01*
X66640559Y-112275294D02*
X66640559Y-114561294D01*
X87595559Y-117355294D02*
X87595559Y-118371294D01*
X87595559Y-118371294D02*
X89881559Y-118371294D01*
X89881559Y-118371294D02*
X89881559Y-117355294D01*
X89881559Y-117355294D02*
X87595559Y-117355294D01*
X86706559Y-134500294D02*
X85690559Y-134500294D01*
X85690559Y-134500294D02*
X85690559Y-136786294D01*
X85690559Y-136786294D02*
X86706559Y-136786294D01*
X86706559Y-136786294D02*
X86706559Y-134500294D01*
X67656559Y-134500294D02*
X66640559Y-134500294D01*
X66640559Y-134500294D02*
X66640559Y-136786294D01*
X66640559Y-136786294D02*
X67656559Y-136786294D01*
X67656559Y-136786294D02*
X67656559Y-134500294D01*
X83785559Y-140596294D02*
X84801559Y-140596294D01*
X84801559Y-140596294D02*
X84801559Y-138310294D01*
X84801559Y-138310294D02*
X83785559Y-138310294D01*
X83785559Y-138310294D02*
X83785559Y-140596294D01*
X65751559Y-134500294D02*
X64735559Y-134500294D01*
X64735559Y-134500294D02*
X64735559Y-136786294D01*
X64735559Y-136786294D02*
X65751559Y-136786294D01*
X65751559Y-136786294D02*
X65751559Y-134500294D01*
X108849184Y-124519768D02*
X107833184Y-124519768D01*
X107833184Y-124519768D02*
X107833184Y-126805768D01*
X107833184Y-126805768D02*
X108849184Y-126805768D01*
X108849184Y-126805768D02*
X108849184Y-124519768D01*
X69561559Y-128531294D02*
X69561559Y-127515294D01*
X69561559Y-127515294D02*
X67275559Y-127515294D01*
X67275559Y-127515294D02*
X67275559Y-128531294D01*
X67275559Y-128531294D02*
X69561559Y-128531294D01*
X86706559Y-124086294D02*
X86706559Y-123070294D01*
X86706559Y-123070294D02*
X84420559Y-123070294D01*
X84420559Y-123070294D02*
X84420559Y-124086294D01*
X84420559Y-124086294D02*
X86706559Y-124086294D01*
X84420559Y-119260294D02*
X84420559Y-120276294D01*
X84420559Y-120276294D02*
X86706559Y-120276294D01*
X86706559Y-120276294D02*
X86706559Y-119260294D01*
X86706559Y-119260294D02*
X84420559Y-119260294D01*
X84420559Y-121165294D02*
X84420559Y-122181294D01*
X84420559Y-122181294D02*
X86706559Y-122181294D01*
X86706559Y-122181294D02*
X86706559Y-121165294D01*
X86706559Y-121165294D02*
X84420559Y-121165294D01*
X85055559Y-132976294D02*
X86071559Y-132976294D01*
X86071559Y-132976294D02*
X86071559Y-130690294D01*
X86071559Y-130690294D02*
X85055559Y-130690294D01*
X85055559Y-130690294D02*
X85055559Y-132976294D01*
X69561559Y-138945294D02*
X68545559Y-138945294D01*
X68545559Y-138945294D02*
X68545559Y-141231294D01*
X68545559Y-141231294D02*
X69561559Y-141231294D01*
X69561559Y-141231294D02*
X69561559Y-138945294D01*
X85436559Y-115450294D02*
X84420559Y-115450294D01*
X84420559Y-115450294D02*
X84420559Y-117736294D01*
X84420559Y-117736294D02*
X85436559Y-117736294D01*
X85436559Y-117736294D02*
X85436559Y-115450294D01*
X87976559Y-130690294D02*
X86960559Y-130690294D01*
X86960559Y-130690294D02*
X86960559Y-132976294D01*
X86960559Y-132976294D02*
X87976559Y-132976294D01*
X87976559Y-132976294D02*
X87976559Y-130690294D01*
X71466559Y-138945294D02*
X70450559Y-138945294D01*
X70450559Y-138945294D02*
X70450559Y-141231294D01*
X70450559Y-141231294D02*
X71466559Y-141231294D01*
X71466559Y-141231294D02*
X71466559Y-138945294D01*
D14*
X90550000Y-126430000D02*
G75*
G03X90550000Y-126430000I-100000J0D01*
G01*
X90200000Y-126980000D02*
X90200000Y-126480000D01*
X87300000Y-126980000D02*
X90200000Y-126980000D01*
X87300000Y-126480000D02*
X87300000Y-126980000D01*
X90200000Y-126480000D02*
X87300000Y-126480000D01*
X82618559Y-129833294D02*
X82618559Y-133833294D01*
X82618559Y-133833294D02*
X79618559Y-133833294D01*
X79618559Y-133833294D02*
X79618559Y-129833294D01*
X79618559Y-129833294D02*
X82618559Y-129833294D01*
D16*
X70196559Y-122435294D02*
X69180559Y-122435294D01*
X69180559Y-122435294D02*
X69180559Y-124721294D01*
X69180559Y-124721294D02*
X70196559Y-124721294D01*
X70196559Y-124721294D02*
X70196559Y-122435294D01*
D15*
X111082985Y-123582661D02*
G75*
G03X111082985Y-123582661I-647575J0D01*
G01*
D16*
X79086559Y-130681468D02*
X78070559Y-130681468D01*
X78070559Y-130681468D02*
X78070559Y-132967468D01*
X78070559Y-132967468D02*
X79086559Y-132967468D01*
X79086559Y-132967468D02*
X79086559Y-130681468D01*
X83150559Y-132976294D02*
X84166559Y-132976294D01*
X84166559Y-132976294D02*
X84166559Y-130690294D01*
X84166559Y-130690294D02*
X83150559Y-130690294D01*
X83150559Y-130690294D02*
X83150559Y-132976294D01*
D14*
X95486624Y-119170380D02*
X95486624Y-126871660D01*
X94485864Y-119170380D02*
X94485864Y-126871660D01*
X94485864Y-126871660D02*
X103685744Y-126871660D01*
X103685744Y-126871660D02*
X103685744Y-119170380D01*
X103685744Y-119170380D02*
X94485864Y-119170380D01*
D16*
X87341559Y-115450294D02*
X86325559Y-115450294D01*
X86325559Y-115450294D02*
X86325559Y-117736294D01*
X86325559Y-117736294D02*
X87341559Y-117736294D01*
X87341559Y-117736294D02*
X87341559Y-115450294D01*
D14*
X83841259Y-114603294D02*
X85741259Y-114603294D01*
X83841259Y-113503294D02*
X85741259Y-113503294D01*
X84741259Y-114053294D02*
X85191259Y-114053294D01*
X84691259Y-113803294D02*
X84691259Y-114303294D01*
X84691259Y-114053294D02*
X84941259Y-113803294D01*
X84941259Y-113803294D02*
X84941259Y-114303294D01*
X84941259Y-114303294D02*
X84691259Y-114053294D01*
X66850000Y-91730000D02*
X66850000Y-89830000D01*
X65750000Y-91730000D02*
X65750000Y-89830000D01*
X66300000Y-90830000D02*
X66300000Y-90380000D01*
X66050000Y-90880000D02*
X66550000Y-90880000D01*
X66300000Y-90880000D02*
X66050000Y-90630000D01*
X66050000Y-90630000D02*
X66550000Y-90630000D01*
X66550000Y-90630000D02*
X66300000Y-90880000D01*
X86550000Y-91730000D02*
X86550000Y-89830000D01*
X85450000Y-91730000D02*
X85450000Y-89830000D01*
X86000000Y-90830000D02*
X86000000Y-90380000D01*
X85750000Y-90880000D02*
X86250000Y-90880000D01*
X86000000Y-90880000D02*
X85750000Y-90630000D01*
X85750000Y-90630000D02*
X86250000Y-90630000D01*
X86250000Y-90630000D02*
X86000000Y-90880000D01*
X106150000Y-91830000D02*
X106150000Y-89930000D01*
X105050000Y-91830000D02*
X105050000Y-89930000D01*
X105600000Y-90930000D02*
X105600000Y-90480000D01*
X105350000Y-90980000D02*
X105850000Y-90980000D01*
X105600000Y-90980000D02*
X105350000Y-90730000D01*
X105350000Y-90730000D02*
X105850000Y-90730000D01*
X105850000Y-90730000D02*
X105600000Y-90980000D01*
X125850000Y-91830000D02*
X125850000Y-89930000D01*
X124750000Y-91830000D02*
X124750000Y-89930000D01*
X125300000Y-90930000D02*
X125300000Y-90480000D01*
X125050000Y-90980000D02*
X125550000Y-90980000D01*
X125300000Y-90980000D02*
X125050000Y-90730000D01*
X125050000Y-90730000D02*
X125550000Y-90730000D01*
X125550000Y-90730000D02*
X125300000Y-90980000D01*
X145450000Y-91830000D02*
X145450000Y-89930000D01*
X144350000Y-91830000D02*
X144350000Y-89930000D01*
X144900000Y-90930000D02*
X144900000Y-90480000D01*
X144650000Y-90980000D02*
X145150000Y-90980000D01*
X144900000Y-90980000D02*
X144650000Y-90730000D01*
X144650000Y-90730000D02*
X145150000Y-90730000D01*
X145150000Y-90730000D02*
X144900000Y-90980000D01*
D16*
X60408000Y-89487000D02*
X59392000Y-89487000D01*
X59392000Y-89487000D02*
X59392000Y-91773000D01*
X59392000Y-91773000D02*
X60408000Y-91773000D01*
X60408000Y-91773000D02*
X60408000Y-89487000D01*
X80008000Y-89587000D02*
X78992000Y-89587000D01*
X78992000Y-89587000D02*
X78992000Y-91873000D01*
X78992000Y-91873000D02*
X80008000Y-91873000D01*
X80008000Y-91873000D02*
X80008000Y-89587000D01*
X99508000Y-89687000D02*
X98492000Y-89687000D01*
X98492000Y-89687000D02*
X98492000Y-91973000D01*
X98492000Y-91973000D02*
X99508000Y-91973000D01*
X99508000Y-91973000D02*
X99508000Y-89687000D01*
X119208000Y-89687000D02*
X118192000Y-89687000D01*
X118192000Y-89687000D02*
X118192000Y-91973000D01*
X118192000Y-91973000D02*
X119208000Y-91973000D01*
X119208000Y-91973000D02*
X119208000Y-89687000D01*
X138808000Y-89687000D02*
X137792000Y-89687000D01*
X137792000Y-89687000D02*
X137792000Y-91973000D01*
X137792000Y-91973000D02*
X138808000Y-91973000D01*
X138808000Y-91973000D02*
X138808000Y-89687000D01*
D14*
X75153500Y-152237500D02*
X87853500Y-152237500D01*
X87853500Y-152237500D02*
X87853500Y-154777500D01*
X87853500Y-154777500D02*
X75153500Y-154777500D01*
X72333500Y-151957500D02*
X73883500Y-151957500D01*
X75153500Y-152237500D02*
X75153500Y-154777500D01*
X73883500Y-155057500D02*
X72333500Y-155057500D01*
X72333500Y-155057500D02*
X72333500Y-151957500D01*
X127751448Y-149626544D02*
X140451448Y-149626544D01*
X140451448Y-149626544D02*
X140451448Y-152166544D01*
X140451448Y-152166544D02*
X127751448Y-152166544D01*
X124931448Y-149346544D02*
X126481448Y-149346544D01*
X127751448Y-149626544D02*
X127751448Y-152166544D01*
X126481448Y-152446544D02*
X124931448Y-152446544D01*
X124931448Y-152446544D02*
X124931448Y-149346544D01*
D11*
X76821429Y-113110952D02*
X76821429Y-112349047D01*
X77202381Y-112729999D02*
X76440476Y-112729999D01*
D18*
X90976178Y-130793104D02*
X90685892Y-130793104D01*
X90831035Y-130793104D02*
X90831035Y-130285104D01*
X90782654Y-130357675D01*
X90734273Y-130406056D01*
X90685892Y-130430246D01*
X91411607Y-130454437D02*
X91411607Y-130793104D01*
X91193892Y-130454437D02*
X91193892Y-130720532D01*
X91218083Y-130768913D01*
X91266464Y-130793104D01*
X91339035Y-130793104D01*
X91387416Y-130768913D01*
X91411607Y-130744723D01*
X91822845Y-130527008D02*
X91653511Y-130527008D01*
X91653511Y-130793104D02*
X91653511Y-130285104D01*
X91895416Y-130285104D01*
X88968369Y-136580675D02*
X88968369Y-136870961D01*
X88968369Y-136725818D02*
X88460369Y-136725818D01*
X88532940Y-136774199D01*
X88581321Y-136822580D01*
X88605511Y-136870961D01*
X88629702Y-136145246D02*
X88968369Y-136145246D01*
X88629702Y-136362961D02*
X88895797Y-136362961D01*
X88944178Y-136338770D01*
X88968369Y-136290389D01*
X88968369Y-136217818D01*
X88944178Y-136169437D01*
X88919988Y-136145246D01*
X88702273Y-135734008D02*
X88702273Y-135903342D01*
X88968369Y-135903342D02*
X88460369Y-135903342D01*
X88460369Y-135661437D01*
D14*
X90460940Y-136976389D02*
X89460940Y-136976389D01*
X90175226Y-136643055D01*
X89460940Y-136309722D01*
X90460940Y-136309722D01*
X90365702Y-135262103D02*
X90413321Y-135309722D01*
X90460940Y-135452579D01*
X90460940Y-135547817D01*
X90413321Y-135690675D01*
X90318083Y-135785913D01*
X90222845Y-135833532D01*
X90032369Y-135881151D01*
X89889511Y-135881151D01*
X89699035Y-135833532D01*
X89603797Y-135785913D01*
X89508559Y-135690675D01*
X89460940Y-135547817D01*
X89460940Y-135452579D01*
X89508559Y-135309722D01*
X89556178Y-135262103D01*
X90460940Y-134833532D02*
X89460940Y-134833532D01*
X89460940Y-134452579D01*
X89508559Y-134357341D01*
X89556178Y-134309722D01*
X89651416Y-134262103D01*
X89794273Y-134262103D01*
X89889511Y-134309722D01*
X89937130Y-134357341D01*
X89984749Y-134452579D01*
X89984749Y-134833532D01*
X90460940Y-133309722D02*
X90460940Y-133881151D01*
X90460940Y-133595437D02*
X89460940Y-133595437D01*
X89603797Y-133690675D01*
X89699035Y-133785913D01*
X89746654Y-133881151D01*
X89460940Y-132976389D02*
X89460940Y-132309722D01*
X90460940Y-132738294D01*
X89460940Y-131738294D02*
X89460940Y-131643055D01*
X89508559Y-131547817D01*
X89556178Y-131500198D01*
X89651416Y-131452579D01*
X89841892Y-131404960D01*
X90079988Y-131404960D01*
X90270464Y-131452579D01*
X90365702Y-131500198D01*
X90413321Y-131547817D01*
X90460940Y-131643055D01*
X90460940Y-131738294D01*
X90413321Y-131833532D01*
X90365702Y-131881151D01*
X90270464Y-131928770D01*
X90079988Y-131976389D01*
X89841892Y-131976389D01*
X89651416Y-131928770D01*
X89556178Y-131881151D01*
X89508559Y-131833532D01*
X89460940Y-131738294D01*
X89556178Y-131024008D02*
X89508559Y-130976389D01*
X89460940Y-130881151D01*
X89460940Y-130643055D01*
X89508559Y-130547817D01*
X89556178Y-130500198D01*
X89651416Y-130452579D01*
X89746654Y-130452579D01*
X89889511Y-130500198D01*
X90460940Y-131071627D01*
X90460940Y-130452579D01*
D18*
X106454136Y-125432958D02*
X106478326Y-125408768D01*
X106526707Y-125384578D01*
X106647660Y-125384578D01*
X106696041Y-125408768D01*
X106720231Y-125432958D01*
X106744422Y-125481339D01*
X106744422Y-125529720D01*
X106720231Y-125602292D01*
X106429945Y-125892578D01*
X106744422Y-125892578D01*
X106937946Y-125432958D02*
X106962136Y-125408768D01*
X107010517Y-125384578D01*
X107131470Y-125384578D01*
X107179851Y-125408768D01*
X107204041Y-125432958D01*
X107228232Y-125481339D01*
X107228232Y-125529720D01*
X107204041Y-125602292D01*
X106913755Y-125892578D01*
X107228232Y-125892578D01*
D14*
X97293565Y-133615149D02*
X96817374Y-133948483D01*
X97293565Y-134186578D02*
X96293565Y-134186578D01*
X96293565Y-133805625D01*
X96341184Y-133710387D01*
X96388803Y-133662768D01*
X96484041Y-133615149D01*
X96626898Y-133615149D01*
X96722136Y-133662768D01*
X96769755Y-133710387D01*
X96817374Y-133805625D01*
X96817374Y-134186578D01*
X96769755Y-133186578D02*
X96769755Y-132853244D01*
X97293565Y-132710387D02*
X97293565Y-133186578D01*
X96293565Y-133186578D01*
X96293565Y-132710387D01*
X97245946Y-132329435D02*
X97293565Y-132186578D01*
X97293565Y-131948482D01*
X97245946Y-131853244D01*
X97198327Y-131805625D01*
X97103089Y-131758006D01*
X97007851Y-131758006D01*
X96912613Y-131805625D01*
X96864994Y-131853244D01*
X96817374Y-131948482D01*
X96769755Y-132138959D01*
X96722136Y-132234197D01*
X96674517Y-132281816D01*
X96579279Y-132329435D01*
X96484041Y-132329435D01*
X96388803Y-132281816D01*
X96341184Y-132234197D01*
X96293565Y-132138959D01*
X96293565Y-131900863D01*
X96341184Y-131758006D01*
X96769755Y-131329435D02*
X96769755Y-130996101D01*
X97293565Y-130853244D02*
X97293565Y-131329435D01*
X96293565Y-131329435D01*
X96293565Y-130853244D01*
X96293565Y-130567530D02*
X96293565Y-129996101D01*
X97293565Y-130281816D02*
X96293565Y-130281816D01*
X108793565Y-133519911D02*
X107793565Y-133519911D01*
X108269755Y-133519911D02*
X108269755Y-132948482D01*
X108793565Y-132948482D02*
X107793565Y-132948482D01*
X107793565Y-132567530D02*
X108793565Y-132329435D01*
X108079279Y-132138958D01*
X108793565Y-131948482D01*
X107793565Y-131710387D01*
X108269755Y-130996101D02*
X108317374Y-130853244D01*
X108364994Y-130805625D01*
X108460232Y-130758006D01*
X108603089Y-130758006D01*
X108698327Y-130805625D01*
X108745946Y-130853244D01*
X108793565Y-130948482D01*
X108793565Y-131329435D01*
X107793565Y-131329435D01*
X107793565Y-130996101D01*
X107841184Y-130900863D01*
X107888803Y-130853244D01*
X107984041Y-130805625D01*
X108079279Y-130805625D01*
X108174517Y-130853244D01*
X108222136Y-130900863D01*
X108269755Y-130996101D01*
X108269755Y-131329435D01*
D19*
X68364130Y-137022150D02*
X68364130Y-137276150D01*
X68763273Y-137276150D02*
X68001273Y-137276150D01*
X68001273Y-136913293D01*
X68001273Y-136731865D02*
X68001273Y-136296436D01*
X68763273Y-136514150D02*
X68001273Y-136514150D01*
X68763273Y-136042436D02*
X68001273Y-136042436D01*
X68001273Y-135861008D01*
X68037559Y-135752151D01*
X68110130Y-135679579D01*
X68182702Y-135643294D01*
X68327845Y-135607008D01*
X68436702Y-135607008D01*
X68581845Y-135643294D01*
X68654416Y-135679579D01*
X68726988Y-135752151D01*
X68763273Y-135861008D01*
X68763273Y-136042436D01*
X68763273Y-135280436D02*
X68001273Y-135280436D01*
X66223273Y-133212150D02*
X65461273Y-133212150D01*
X65533845Y-132885579D02*
X65497559Y-132849293D01*
X65461273Y-132776722D01*
X65461273Y-132595293D01*
X65497559Y-132522722D01*
X65533845Y-132486436D01*
X65606416Y-132450151D01*
X65678988Y-132450151D01*
X65787845Y-132486436D01*
X66223273Y-132921865D01*
X66223273Y-132450151D01*
X66150702Y-131688151D02*
X66186988Y-131724437D01*
X66223273Y-131833294D01*
X66223273Y-131905865D01*
X66186988Y-132014722D01*
X66114416Y-132087294D01*
X66041845Y-132123579D01*
X65896702Y-132159865D01*
X65787845Y-132159865D01*
X65642702Y-132123579D01*
X65570130Y-132087294D01*
X65497559Y-132014722D01*
X65461273Y-131905865D01*
X65461273Y-131833294D01*
X65497559Y-131724437D01*
X65533845Y-131688151D01*
D14*
X76462654Y-120315675D02*
X76462654Y-121125199D01*
X76510273Y-121220437D01*
X76557892Y-121268056D01*
X76653130Y-121315675D01*
X76843607Y-121315675D01*
X76938845Y-121268056D01*
X76986464Y-121220437D01*
X77034083Y-121125199D01*
X77034083Y-120315675D01*
X78034083Y-121315675D02*
X77462654Y-121315675D01*
X77748368Y-121315675D02*
X77748368Y-120315675D01*
X77653130Y-120458532D01*
X77557892Y-120553770D01*
X77462654Y-120601389D01*
D18*
X90564940Y-124612437D02*
X90564940Y-124951104D01*
X90443987Y-124418913D02*
X90323035Y-124781770D01*
X90637511Y-124781770D01*
X90831035Y-124902723D02*
X90855226Y-124926913D01*
X90831035Y-124951104D01*
X90806845Y-124926913D01*
X90831035Y-124902723D01*
X90831035Y-124951104D01*
X91024559Y-124443104D02*
X91363226Y-124443104D01*
X91145512Y-124951104D01*
X91774465Y-124612437D02*
X91774465Y-124951104D01*
X91556750Y-124612437D02*
X91556750Y-124878532D01*
X91580941Y-124926913D01*
X91629322Y-124951104D01*
X91701893Y-124951104D01*
X91750274Y-124926913D01*
X91774465Y-124902723D01*
X92185703Y-124685008D02*
X92016369Y-124685008D01*
X92016369Y-124951104D02*
X92016369Y-124443104D01*
X92258274Y-124443104D01*
X88968369Y-130091580D02*
X88968369Y-130381866D01*
X88968369Y-130236723D02*
X88460369Y-130236723D01*
X88532940Y-130285104D01*
X88581321Y-130333485D01*
X88605511Y-130381866D01*
X88460369Y-129777104D02*
X88460369Y-129728723D01*
X88484559Y-129680342D01*
X88508749Y-129656151D01*
X88557130Y-129631961D01*
X88653892Y-129607770D01*
X88774845Y-129607770D01*
X88871607Y-129631961D01*
X88919988Y-129656151D01*
X88944178Y-129680342D01*
X88968369Y-129728723D01*
X88968369Y-129777104D01*
X88944178Y-129825485D01*
X88919988Y-129849675D01*
X88871607Y-129873866D01*
X88774845Y-129898056D01*
X88653892Y-129898056D01*
X88557130Y-129873866D01*
X88508749Y-129849675D01*
X88484559Y-129825485D01*
X88460369Y-129777104D01*
X88629702Y-129172341D02*
X88968369Y-129172341D01*
X88629702Y-129390056D02*
X88895797Y-129390056D01*
X88944178Y-129365865D01*
X88968369Y-129317484D01*
X88968369Y-129244913D01*
X88944178Y-129196532D01*
X88919988Y-129172341D01*
X88702273Y-128761103D02*
X88702273Y-128930437D01*
X88968369Y-128930437D02*
X88460369Y-128930437D01*
X88460369Y-128688532D01*
X70045369Y-115940152D02*
X70045369Y-115891771D01*
X70069559Y-115843390D01*
X70093749Y-115819199D01*
X70142130Y-115795009D01*
X70238892Y-115770818D01*
X70359845Y-115770818D01*
X70456607Y-115795009D01*
X70504988Y-115819199D01*
X70529178Y-115843390D01*
X70553369Y-115891771D01*
X70553369Y-115940152D01*
X70529178Y-115988533D01*
X70504988Y-116012723D01*
X70456607Y-116036914D01*
X70359845Y-116061104D01*
X70238892Y-116061104D01*
X70142130Y-116036914D01*
X70093749Y-116012723D01*
X70069559Y-115988533D01*
X70045369Y-115940152D01*
X70504988Y-115553104D02*
X70529178Y-115528913D01*
X70553369Y-115553104D01*
X70529178Y-115577294D01*
X70504988Y-115553104D01*
X70553369Y-115553104D01*
X70553369Y-115045103D02*
X70553369Y-115335389D01*
X70553369Y-115190246D02*
X70045369Y-115190246D01*
X70117940Y-115238627D01*
X70166321Y-115287008D01*
X70190511Y-115335389D01*
X70214702Y-114609674D02*
X70553369Y-114609674D01*
X70214702Y-114827389D02*
X70480797Y-114827389D01*
X70529178Y-114803198D01*
X70553369Y-114754817D01*
X70553369Y-114682246D01*
X70529178Y-114633865D01*
X70504988Y-114609674D01*
X68140369Y-120385152D02*
X68140369Y-120336771D01*
X68164559Y-120288390D01*
X68188749Y-120264199D01*
X68237130Y-120240009D01*
X68333892Y-120215818D01*
X68454845Y-120215818D01*
X68551607Y-120240009D01*
X68599988Y-120264199D01*
X68624178Y-120288390D01*
X68648369Y-120336771D01*
X68648369Y-120385152D01*
X68624178Y-120433533D01*
X68599988Y-120457723D01*
X68551607Y-120481914D01*
X68454845Y-120506104D01*
X68333892Y-120506104D01*
X68237130Y-120481914D01*
X68188749Y-120457723D01*
X68164559Y-120433533D01*
X68140369Y-120385152D01*
X68599988Y-119998104D02*
X68624178Y-119973913D01*
X68648369Y-119998104D01*
X68624178Y-120022294D01*
X68599988Y-119998104D01*
X68648369Y-119998104D01*
X68648369Y-119490103D02*
X68648369Y-119780389D01*
X68648369Y-119635246D02*
X68140369Y-119635246D01*
X68212940Y-119683627D01*
X68261321Y-119732008D01*
X68285511Y-119780389D01*
X68309702Y-119054674D02*
X68648369Y-119054674D01*
X68309702Y-119272389D02*
X68575797Y-119272389D01*
X68624178Y-119248198D01*
X68648369Y-119199817D01*
X68648369Y-119127246D01*
X68624178Y-119078865D01*
X68599988Y-119054674D01*
X68140369Y-130545152D02*
X68140369Y-130496771D01*
X68164559Y-130448390D01*
X68188749Y-130424199D01*
X68237130Y-130400009D01*
X68333892Y-130375818D01*
X68454845Y-130375818D01*
X68551607Y-130400009D01*
X68599988Y-130424199D01*
X68624178Y-130448390D01*
X68648369Y-130496771D01*
X68648369Y-130545152D01*
X68624178Y-130593533D01*
X68599988Y-130617723D01*
X68551607Y-130641914D01*
X68454845Y-130666104D01*
X68333892Y-130666104D01*
X68237130Y-130641914D01*
X68188749Y-130617723D01*
X68164559Y-130593533D01*
X68140369Y-130545152D01*
X68599988Y-130158104D02*
X68624178Y-130133913D01*
X68648369Y-130158104D01*
X68624178Y-130182294D01*
X68599988Y-130158104D01*
X68648369Y-130158104D01*
X68648369Y-129650103D02*
X68648369Y-129940389D01*
X68648369Y-129795246D02*
X68140369Y-129795246D01*
X68212940Y-129843627D01*
X68261321Y-129892008D01*
X68285511Y-129940389D01*
X68309702Y-129214674D02*
X68648369Y-129214674D01*
X68309702Y-129432389D02*
X68575797Y-129432389D01*
X68624178Y-129408198D01*
X68648369Y-129359817D01*
X68648369Y-129287246D01*
X68624178Y-129238865D01*
X68599988Y-129214674D01*
X82406701Y-116315104D02*
X82455082Y-116315104D01*
X82503463Y-116339294D01*
X82527654Y-116363484D01*
X82551844Y-116411865D01*
X82576035Y-116508627D01*
X82576035Y-116629580D01*
X82551844Y-116726342D01*
X82527654Y-116774723D01*
X82503463Y-116798913D01*
X82455082Y-116823104D01*
X82406701Y-116823104D01*
X82358320Y-116798913D01*
X82334130Y-116774723D01*
X82309939Y-116726342D01*
X82285749Y-116629580D01*
X82285749Y-116508627D01*
X82309939Y-116411865D01*
X82334130Y-116363484D01*
X82358320Y-116339294D01*
X82406701Y-116315104D01*
X82793749Y-116774723D02*
X82817940Y-116798913D01*
X82793749Y-116823104D01*
X82769559Y-116798913D01*
X82793749Y-116774723D01*
X82793749Y-116823104D01*
X83301750Y-116823104D02*
X83011464Y-116823104D01*
X83156607Y-116823104D02*
X83156607Y-116315104D01*
X83108226Y-116387675D01*
X83059845Y-116436056D01*
X83011464Y-116460246D01*
X83737179Y-116484437D02*
X83737179Y-116823104D01*
X83519464Y-116484437D02*
X83519464Y-116750532D01*
X83543655Y-116798913D01*
X83592036Y-116823104D01*
X83664607Y-116823104D01*
X83712988Y-116798913D01*
X83737179Y-116774723D01*
X84015369Y-129275152D02*
X84015369Y-129226771D01*
X84039559Y-129178390D01*
X84063749Y-129154199D01*
X84112130Y-129130009D01*
X84208892Y-129105818D01*
X84329845Y-129105818D01*
X84426607Y-129130009D01*
X84474988Y-129154199D01*
X84499178Y-129178390D01*
X84523369Y-129226771D01*
X84523369Y-129275152D01*
X84499178Y-129323533D01*
X84474988Y-129347723D01*
X84426607Y-129371914D01*
X84329845Y-129396104D01*
X84208892Y-129396104D01*
X84112130Y-129371914D01*
X84063749Y-129347723D01*
X84039559Y-129323533D01*
X84015369Y-129275152D01*
X84474988Y-128888104D02*
X84499178Y-128863913D01*
X84523369Y-128888104D01*
X84499178Y-128912294D01*
X84474988Y-128888104D01*
X84523369Y-128888104D01*
X84523369Y-128380103D02*
X84523369Y-128670389D01*
X84523369Y-128525246D02*
X84015369Y-128525246D01*
X84087940Y-128573627D01*
X84136321Y-128622008D01*
X84160511Y-128670389D01*
X84184702Y-127944674D02*
X84523369Y-127944674D01*
X84184702Y-128162389D02*
X84450797Y-128162389D01*
X84499178Y-128138198D01*
X84523369Y-128089817D01*
X84523369Y-128017246D01*
X84499178Y-127968865D01*
X84474988Y-127944674D01*
X70045369Y-117845152D02*
X70045369Y-117796771D01*
X70069559Y-117748390D01*
X70093749Y-117724199D01*
X70142130Y-117700009D01*
X70238892Y-117675818D01*
X70359845Y-117675818D01*
X70456607Y-117700009D01*
X70504988Y-117724199D01*
X70529178Y-117748390D01*
X70553369Y-117796771D01*
X70553369Y-117845152D01*
X70529178Y-117893533D01*
X70504988Y-117917723D01*
X70456607Y-117941914D01*
X70359845Y-117966104D01*
X70238892Y-117966104D01*
X70142130Y-117941914D01*
X70093749Y-117917723D01*
X70069559Y-117893533D01*
X70045369Y-117845152D01*
X70504988Y-117458104D02*
X70529178Y-117433913D01*
X70553369Y-117458104D01*
X70529178Y-117482294D01*
X70504988Y-117458104D01*
X70553369Y-117458104D01*
X70553369Y-116950103D02*
X70553369Y-117240389D01*
X70553369Y-117095246D02*
X70045369Y-117095246D01*
X70117940Y-117143627D01*
X70166321Y-117192008D01*
X70190511Y-117240389D01*
X70214702Y-116514674D02*
X70553369Y-116514674D01*
X70214702Y-116732389D02*
X70480797Y-116732389D01*
X70529178Y-116708198D01*
X70553369Y-116659817D01*
X70553369Y-116587246D01*
X70529178Y-116538865D01*
X70504988Y-116514674D01*
X88629702Y-124721294D02*
X88968369Y-124721294D01*
X88436178Y-124842247D02*
X88799035Y-124963199D01*
X88799035Y-124648723D01*
X88919988Y-124455199D02*
X88944178Y-124431008D01*
X88968369Y-124455199D01*
X88944178Y-124479389D01*
X88919988Y-124455199D01*
X88968369Y-124455199D01*
X88460369Y-124261675D02*
X88460369Y-123923008D01*
X88968369Y-124140722D01*
X88629702Y-123511769D02*
X88968369Y-123511769D01*
X88629702Y-123729484D02*
X88895797Y-123729484D01*
X88944178Y-123705293D01*
X88968369Y-123656912D01*
X88968369Y-123584341D01*
X88944178Y-123535960D01*
X88919988Y-123511769D01*
X88968369Y-123269865D02*
X88460369Y-123269865D01*
X88702273Y-123269865D02*
X88702273Y-122979579D01*
X88968369Y-122979579D02*
X88460369Y-122979579D01*
X67444892Y-116823104D02*
X67154606Y-116823104D01*
X67299749Y-116823104D02*
X67299749Y-116315104D01*
X67251368Y-116387675D01*
X67202987Y-116436056D01*
X67154606Y-116460246D01*
X67759368Y-116315104D02*
X67807749Y-116315104D01*
X67856130Y-116339294D01*
X67880321Y-116363484D01*
X67904511Y-116411865D01*
X67928702Y-116508627D01*
X67928702Y-116629580D01*
X67904511Y-116726342D01*
X67880321Y-116774723D01*
X67856130Y-116798913D01*
X67807749Y-116823104D01*
X67759368Y-116823104D01*
X67710987Y-116798913D01*
X67686797Y-116774723D01*
X67662606Y-116726342D01*
X67638416Y-116629580D01*
X67638416Y-116508627D01*
X67662606Y-116411865D01*
X67686797Y-116363484D01*
X67710987Y-116339294D01*
X67759368Y-116315104D01*
X68243178Y-116315104D02*
X68291559Y-116315104D01*
X68339940Y-116339294D01*
X68364131Y-116363484D01*
X68388321Y-116411865D01*
X68412512Y-116508627D01*
X68412512Y-116629580D01*
X68388321Y-116726342D01*
X68364131Y-116774723D01*
X68339940Y-116798913D01*
X68291559Y-116823104D01*
X68243178Y-116823104D01*
X68194797Y-116798913D01*
X68170607Y-116774723D01*
X68146416Y-116726342D01*
X68122226Y-116629580D01*
X68122226Y-116508627D01*
X68146416Y-116411865D01*
X68170607Y-116363484D01*
X68194797Y-116339294D01*
X68243178Y-116315104D01*
X88968369Y-120106961D02*
X88968369Y-120397247D01*
X88968369Y-120252104D02*
X88460369Y-120252104D01*
X88532940Y-120300485D01*
X88581321Y-120348866D01*
X88605511Y-120397247D01*
X88460369Y-119792485D02*
X88460369Y-119744104D01*
X88484559Y-119695723D01*
X88508749Y-119671532D01*
X88557130Y-119647342D01*
X88653892Y-119623151D01*
X88774845Y-119623151D01*
X88871607Y-119647342D01*
X88919988Y-119671532D01*
X88944178Y-119695723D01*
X88968369Y-119744104D01*
X88968369Y-119792485D01*
X88944178Y-119840866D01*
X88919988Y-119865056D01*
X88871607Y-119889247D01*
X88774845Y-119913437D01*
X88653892Y-119913437D01*
X88557130Y-119889247D01*
X88508749Y-119865056D01*
X88484559Y-119840866D01*
X88460369Y-119792485D01*
X88460369Y-119308675D02*
X88460369Y-119260294D01*
X88484559Y-119211913D01*
X88508749Y-119187722D01*
X88557130Y-119163532D01*
X88653892Y-119139341D01*
X88774845Y-119139341D01*
X88871607Y-119163532D01*
X88919988Y-119187722D01*
X88944178Y-119211913D01*
X88968369Y-119260294D01*
X88968369Y-119308675D01*
X88944178Y-119357056D01*
X88919988Y-119381246D01*
X88871607Y-119405437D01*
X88774845Y-119429627D01*
X88653892Y-119429627D01*
X88557130Y-119405437D01*
X88508749Y-119381246D01*
X88484559Y-119357056D01*
X88460369Y-119308675D01*
X66846178Y-113648104D02*
X66555892Y-113648104D01*
X66701035Y-113648104D02*
X66701035Y-113140104D01*
X66652654Y-113212675D01*
X66604273Y-113261056D01*
X66555892Y-113285246D01*
X67160654Y-113140104D02*
X67209035Y-113140104D01*
X67257416Y-113164294D01*
X67281607Y-113188484D01*
X67305797Y-113236865D01*
X67329988Y-113333627D01*
X67329988Y-113454580D01*
X67305797Y-113551342D01*
X67281607Y-113599723D01*
X67257416Y-113623913D01*
X67209035Y-113648104D01*
X67160654Y-113648104D01*
X67112273Y-113623913D01*
X67088083Y-113599723D01*
X67063892Y-113551342D01*
X67039702Y-113454580D01*
X67039702Y-113333627D01*
X67063892Y-113236865D01*
X67088083Y-113188484D01*
X67112273Y-113164294D01*
X67160654Y-113140104D01*
X67547702Y-113648104D02*
X67547702Y-113140104D01*
X67596083Y-113454580D02*
X67741226Y-113648104D01*
X67741226Y-113309437D02*
X67547702Y-113502961D01*
X88968369Y-118165675D02*
X88968369Y-118455961D01*
X88968369Y-118310818D02*
X88460369Y-118310818D01*
X88532940Y-118359199D01*
X88581321Y-118407580D01*
X88605511Y-118455961D01*
X88460369Y-117851199D02*
X88460369Y-117802818D01*
X88484559Y-117754437D01*
X88508749Y-117730246D01*
X88557130Y-117706056D01*
X88653892Y-117681865D01*
X88774845Y-117681865D01*
X88871607Y-117706056D01*
X88919988Y-117730246D01*
X88944178Y-117754437D01*
X88968369Y-117802818D01*
X88968369Y-117851199D01*
X88944178Y-117899580D01*
X88919988Y-117923770D01*
X88871607Y-117947961D01*
X88774845Y-117972151D01*
X88653892Y-117972151D01*
X88557130Y-117947961D01*
X88508749Y-117923770D01*
X88484559Y-117899580D01*
X88460369Y-117851199D01*
X88968369Y-117464151D02*
X88460369Y-117464151D01*
X88774845Y-117415770D02*
X88968369Y-117270627D01*
X88629702Y-117270627D02*
X88823226Y-117464151D01*
X85859892Y-135873104D02*
X85569606Y-135873104D01*
X85714749Y-135873104D02*
X85714749Y-135365104D01*
X85666368Y-135437675D01*
X85617987Y-135486056D01*
X85569606Y-135510246D01*
X86174368Y-135365104D02*
X86222749Y-135365104D01*
X86271130Y-135389294D01*
X86295321Y-135413484D01*
X86319511Y-135461865D01*
X86343702Y-135558627D01*
X86343702Y-135679580D01*
X86319511Y-135776342D01*
X86295321Y-135824723D01*
X86271130Y-135848913D01*
X86222749Y-135873104D01*
X86174368Y-135873104D01*
X86125987Y-135848913D01*
X86101797Y-135824723D01*
X86077606Y-135776342D01*
X86053416Y-135679580D01*
X86053416Y-135558627D01*
X86077606Y-135461865D01*
X86101797Y-135413484D01*
X86125987Y-135389294D01*
X86174368Y-135365104D01*
X86658178Y-135365104D02*
X86706559Y-135365104D01*
X86754940Y-135389294D01*
X86779131Y-135413484D01*
X86803321Y-135461865D01*
X86827512Y-135558627D01*
X86827512Y-135679580D01*
X86803321Y-135776342D01*
X86779131Y-135824723D01*
X86754940Y-135848913D01*
X86706559Y-135873104D01*
X86658178Y-135873104D01*
X86609797Y-135848913D01*
X86585607Y-135824723D01*
X86561416Y-135776342D01*
X86537226Y-135679580D01*
X86537226Y-135558627D01*
X86561416Y-135461865D01*
X86585607Y-135413484D01*
X86609797Y-135389294D01*
X86658178Y-135365104D01*
X66809892Y-135873104D02*
X66519606Y-135873104D01*
X66664749Y-135873104D02*
X66664749Y-135365104D01*
X66616368Y-135437675D01*
X66567987Y-135486056D01*
X66519606Y-135510246D01*
X67124368Y-135365104D02*
X67172749Y-135365104D01*
X67221130Y-135389294D01*
X67245321Y-135413484D01*
X67269511Y-135461865D01*
X67293702Y-135558627D01*
X67293702Y-135679580D01*
X67269511Y-135776342D01*
X67245321Y-135824723D01*
X67221130Y-135848913D01*
X67172749Y-135873104D01*
X67124368Y-135873104D01*
X67075987Y-135848913D01*
X67051797Y-135824723D01*
X67027606Y-135776342D01*
X67003416Y-135679580D01*
X67003416Y-135558627D01*
X67027606Y-135461865D01*
X67051797Y-135413484D01*
X67075987Y-135389294D01*
X67124368Y-135365104D01*
X67608178Y-135365104D02*
X67656559Y-135365104D01*
X67704940Y-135389294D01*
X67729131Y-135413484D01*
X67753321Y-135461865D01*
X67777512Y-135558627D01*
X67777512Y-135679580D01*
X67753321Y-135776342D01*
X67729131Y-135824723D01*
X67704940Y-135848913D01*
X67656559Y-135873104D01*
X67608178Y-135873104D01*
X67559797Y-135848913D01*
X67535607Y-135824723D01*
X67511416Y-135776342D01*
X67487226Y-135679580D01*
X67487226Y-135558627D01*
X67511416Y-135461865D01*
X67535607Y-135413484D01*
X67559797Y-135389294D01*
X67608178Y-135365104D01*
X83991178Y-139683104D02*
X83700892Y-139683104D01*
X83846035Y-139683104D02*
X83846035Y-139175104D01*
X83797654Y-139247675D01*
X83749273Y-139296056D01*
X83700892Y-139320246D01*
X84305654Y-139175104D02*
X84354035Y-139175104D01*
X84402416Y-139199294D01*
X84426607Y-139223484D01*
X84450797Y-139271865D01*
X84474988Y-139368627D01*
X84474988Y-139489580D01*
X84450797Y-139586342D01*
X84426607Y-139634723D01*
X84402416Y-139658913D01*
X84354035Y-139683104D01*
X84305654Y-139683104D01*
X84257273Y-139658913D01*
X84233083Y-139634723D01*
X84208892Y-139586342D01*
X84184702Y-139489580D01*
X84184702Y-139368627D01*
X84208892Y-139271865D01*
X84233083Y-139223484D01*
X84257273Y-139199294D01*
X84305654Y-139175104D01*
X84692702Y-139683104D02*
X84692702Y-139175104D01*
X84741083Y-139489580D02*
X84886226Y-139683104D01*
X84886226Y-139344437D02*
X84692702Y-139537961D01*
X64941178Y-135873104D02*
X64650892Y-135873104D01*
X64796035Y-135873104D02*
X64796035Y-135365104D01*
X64747654Y-135437675D01*
X64699273Y-135486056D01*
X64650892Y-135510246D01*
X65255654Y-135365104D02*
X65304035Y-135365104D01*
X65352416Y-135389294D01*
X65376607Y-135413484D01*
X65400797Y-135461865D01*
X65424988Y-135558627D01*
X65424988Y-135679580D01*
X65400797Y-135776342D01*
X65376607Y-135824723D01*
X65352416Y-135848913D01*
X65304035Y-135873104D01*
X65255654Y-135873104D01*
X65207273Y-135848913D01*
X65183083Y-135824723D01*
X65158892Y-135776342D01*
X65134702Y-135679580D01*
X65134702Y-135558627D01*
X65158892Y-135461865D01*
X65183083Y-135413484D01*
X65207273Y-135389294D01*
X65255654Y-135365104D01*
X65642702Y-135873104D02*
X65642702Y-135365104D01*
X65691083Y-135679580D02*
X65836226Y-135873104D01*
X65836226Y-135534437D02*
X65642702Y-135727961D01*
X107954136Y-125432958D02*
X107978326Y-125408768D01*
X108026707Y-125384578D01*
X108147660Y-125384578D01*
X108196041Y-125408768D01*
X108220231Y-125432958D01*
X108244422Y-125481339D01*
X108244422Y-125529720D01*
X108220231Y-125602292D01*
X107929945Y-125892578D01*
X108244422Y-125892578D01*
X108437946Y-125432958D02*
X108462136Y-125408768D01*
X108510517Y-125384578D01*
X108631470Y-125384578D01*
X108679851Y-125408768D01*
X108704041Y-125432958D01*
X108728232Y-125481339D01*
X108728232Y-125529720D01*
X108704041Y-125602292D01*
X108413755Y-125892578D01*
X108728232Y-125892578D01*
X68648369Y-128325675D02*
X68648369Y-128615961D01*
X68648369Y-128470818D02*
X68140369Y-128470818D01*
X68212940Y-128519199D01*
X68261321Y-128567580D01*
X68285511Y-128615961D01*
X68140369Y-128011199D02*
X68140369Y-127962818D01*
X68164559Y-127914437D01*
X68188749Y-127890246D01*
X68237130Y-127866056D01*
X68333892Y-127841865D01*
X68454845Y-127841865D01*
X68551607Y-127866056D01*
X68599988Y-127890246D01*
X68624178Y-127914437D01*
X68648369Y-127962818D01*
X68648369Y-128011199D01*
X68624178Y-128059580D01*
X68599988Y-128083770D01*
X68551607Y-128107961D01*
X68454845Y-128132151D01*
X68333892Y-128132151D01*
X68237130Y-128107961D01*
X68188749Y-128083770D01*
X68164559Y-128059580D01*
X68140369Y-128011199D01*
X68648369Y-127624151D02*
X68140369Y-127624151D01*
X68454845Y-127575770D02*
X68648369Y-127430627D01*
X68309702Y-127430627D02*
X68503226Y-127624151D01*
X85333749Y-123929056D02*
X85309559Y-123904866D01*
X85285369Y-123856485D01*
X85285369Y-123735532D01*
X85309559Y-123687151D01*
X85333749Y-123662961D01*
X85382130Y-123638770D01*
X85430511Y-123638770D01*
X85503083Y-123662961D01*
X85793369Y-123953247D01*
X85793369Y-123638770D01*
X85793369Y-123421056D02*
X85285369Y-123421056D01*
X85599845Y-123372675D02*
X85793369Y-123227532D01*
X85454702Y-123227532D02*
X85648226Y-123421056D01*
X85793369Y-120070675D02*
X85793369Y-120360961D01*
X85793369Y-120215818D02*
X85285369Y-120215818D01*
X85357940Y-120264199D01*
X85406321Y-120312580D01*
X85430511Y-120360961D01*
X85285369Y-119756199D02*
X85285369Y-119707818D01*
X85309559Y-119659437D01*
X85333749Y-119635246D01*
X85382130Y-119611056D01*
X85478892Y-119586865D01*
X85599845Y-119586865D01*
X85696607Y-119611056D01*
X85744988Y-119635246D01*
X85769178Y-119659437D01*
X85793369Y-119707818D01*
X85793369Y-119756199D01*
X85769178Y-119804580D01*
X85744988Y-119828770D01*
X85696607Y-119852961D01*
X85599845Y-119877151D01*
X85478892Y-119877151D01*
X85382130Y-119852961D01*
X85333749Y-119828770D01*
X85309559Y-119804580D01*
X85285369Y-119756199D01*
X85793369Y-119369151D02*
X85285369Y-119369151D01*
X85599845Y-119320770D02*
X85793369Y-119175627D01*
X85454702Y-119175627D02*
X85648226Y-119369151D01*
X85793369Y-121975675D02*
X85793369Y-122265961D01*
X85793369Y-122120818D02*
X85285369Y-122120818D01*
X85357940Y-122169199D01*
X85406321Y-122217580D01*
X85430511Y-122265961D01*
X85285369Y-121661199D02*
X85285369Y-121612818D01*
X85309559Y-121564437D01*
X85333749Y-121540246D01*
X85382130Y-121516056D01*
X85478892Y-121491865D01*
X85599845Y-121491865D01*
X85696607Y-121516056D01*
X85744988Y-121540246D01*
X85769178Y-121564437D01*
X85793369Y-121612818D01*
X85793369Y-121661199D01*
X85769178Y-121709580D01*
X85744988Y-121733770D01*
X85696607Y-121757961D01*
X85599845Y-121782151D01*
X85478892Y-121782151D01*
X85382130Y-121757961D01*
X85333749Y-121733770D01*
X85309559Y-121709580D01*
X85285369Y-121661199D01*
X85793369Y-121274151D02*
X85285369Y-121274151D01*
X85599845Y-121225770D02*
X85793369Y-121080627D01*
X85454702Y-121080627D02*
X85648226Y-121274151D01*
X85503083Y-132063104D02*
X85212797Y-132063104D01*
X85357940Y-132063104D02*
X85357940Y-131555104D01*
X85309559Y-131627675D01*
X85261178Y-131676056D01*
X85212797Y-131700246D01*
X85720797Y-132063104D02*
X85720797Y-131555104D01*
X85769178Y-131869580D02*
X85914321Y-132063104D01*
X85914321Y-131724437D02*
X85720797Y-131917961D01*
X68581845Y-139979437D02*
X68581845Y-140318104D01*
X68460892Y-139785913D02*
X68339940Y-140148770D01*
X68654416Y-140148770D01*
X68847940Y-140269723D02*
X68872131Y-140293913D01*
X68847940Y-140318104D01*
X68823750Y-140293913D01*
X68847940Y-140269723D01*
X68847940Y-140318104D01*
X69041464Y-139810104D02*
X69380131Y-139810104D01*
X69162417Y-140318104D01*
X69573655Y-140318104D02*
X69573655Y-139810104D01*
X69622036Y-140124580D02*
X69767179Y-140318104D01*
X69767179Y-139979437D02*
X69573655Y-140172961D01*
X84626178Y-116823104D02*
X84335892Y-116823104D01*
X84481035Y-116823104D02*
X84481035Y-116315104D01*
X84432654Y-116387675D01*
X84384273Y-116436056D01*
X84335892Y-116460246D01*
X84940654Y-116315104D02*
X84989035Y-116315104D01*
X85037416Y-116339294D01*
X85061607Y-116363484D01*
X85085797Y-116411865D01*
X85109988Y-116508627D01*
X85109988Y-116629580D01*
X85085797Y-116726342D01*
X85061607Y-116774723D01*
X85037416Y-116798913D01*
X84989035Y-116823104D01*
X84940654Y-116823104D01*
X84892273Y-116798913D01*
X84868083Y-116774723D01*
X84843892Y-116726342D01*
X84819702Y-116629580D01*
X84819702Y-116508627D01*
X84843892Y-116411865D01*
X84868083Y-116363484D01*
X84892273Y-116339294D01*
X84940654Y-116315104D01*
X85327702Y-116823104D02*
X85327702Y-116315104D01*
X85376083Y-116629580D02*
X85521226Y-116823104D01*
X85521226Y-116484437D02*
X85327702Y-116677961D01*
X87117797Y-131603484D02*
X87141987Y-131579294D01*
X87190368Y-131555104D01*
X87311321Y-131555104D01*
X87359702Y-131579294D01*
X87383892Y-131603484D01*
X87408083Y-131651865D01*
X87408083Y-131700246D01*
X87383892Y-131772818D01*
X87093606Y-132063104D01*
X87408083Y-132063104D01*
X87625797Y-132063104D02*
X87625797Y-131555104D01*
X87674178Y-131869580D02*
X87819321Y-132063104D01*
X87819321Y-131724437D02*
X87625797Y-131917961D01*
X70486845Y-139979437D02*
X70486845Y-140318104D01*
X70365892Y-139785913D02*
X70244940Y-140148770D01*
X70559416Y-140148770D01*
X70752940Y-140269723D02*
X70777131Y-140293913D01*
X70752940Y-140318104D01*
X70728750Y-140293913D01*
X70752940Y-140269723D01*
X70752940Y-140318104D01*
X70946464Y-139810104D02*
X71285131Y-139810104D01*
X71067417Y-140318104D01*
X71478655Y-140318104D02*
X71478655Y-139810104D01*
X71527036Y-140124580D02*
X71672179Y-140318104D01*
X71672179Y-139979437D02*
X71478655Y-140172961D01*
D19*
X86082714Y-128816428D02*
X86844714Y-128308428D01*
X86082714Y-128308428D02*
X86844714Y-128816428D01*
X86772143Y-127582714D02*
X86808429Y-127619000D01*
X86844714Y-127727857D01*
X86844714Y-127800428D01*
X86808429Y-127909285D01*
X86735857Y-127981857D01*
X86663286Y-128018142D01*
X86518143Y-128054428D01*
X86409286Y-128054428D01*
X86264143Y-128018142D01*
X86191571Y-127981857D01*
X86119000Y-127909285D01*
X86082714Y-127800428D01*
X86082714Y-127727857D01*
X86119000Y-127619000D01*
X86155286Y-127582714D01*
X86844714Y-127219857D02*
X86844714Y-127074714D01*
X86808429Y-127002142D01*
X86772143Y-126965857D01*
X86663286Y-126893285D01*
X86518143Y-126857000D01*
X86227857Y-126857000D01*
X86155286Y-126893285D01*
X86119000Y-126929571D01*
X86082714Y-127002142D01*
X86082714Y-127147285D01*
X86119000Y-127219857D01*
X86155286Y-127256142D01*
X86227857Y-127292428D01*
X86409286Y-127292428D01*
X86481857Y-127256142D01*
X86518143Y-127219857D01*
X86554429Y-127147285D01*
X86554429Y-127002142D01*
X86518143Y-126929571D01*
X86481857Y-126893285D01*
X86409286Y-126857000D01*
X86844714Y-126131286D02*
X86844714Y-126566714D01*
X86844714Y-126349000D02*
X86082714Y-126349000D01*
X86191571Y-126421571D01*
X86264143Y-126494143D01*
X86300429Y-126566714D01*
X86336714Y-125478143D02*
X86844714Y-125478143D01*
X86046429Y-125659572D02*
X86590714Y-125841000D01*
X86590714Y-125369286D01*
X86082714Y-124933858D02*
X86082714Y-124861286D01*
X86119000Y-124788715D01*
X86155286Y-124752429D01*
X86227857Y-124716143D01*
X86373000Y-124679858D01*
X86554429Y-124679858D01*
X86699571Y-124716143D01*
X86772143Y-124752429D01*
X86808429Y-124788715D01*
X86844714Y-124861286D01*
X86844714Y-124933858D01*
X86808429Y-125006429D01*
X86772143Y-125042715D01*
X86699571Y-125079000D01*
X86554429Y-125115286D01*
X86373000Y-125115286D01*
X86227857Y-125079000D01*
X86155286Y-125042715D01*
X86119000Y-125006429D01*
X86082714Y-124933858D01*
D18*
X69071701Y-123300104D02*
X69120082Y-123300104D01*
X69168463Y-123324294D01*
X69192654Y-123348484D01*
X69216844Y-123396865D01*
X69241035Y-123493627D01*
X69241035Y-123614580D01*
X69216844Y-123711342D01*
X69192654Y-123759723D01*
X69168463Y-123783913D01*
X69120082Y-123808104D01*
X69071701Y-123808104D01*
X69023320Y-123783913D01*
X68999130Y-123759723D01*
X68974939Y-123711342D01*
X68950749Y-123614580D01*
X68950749Y-123493627D01*
X68974939Y-123396865D01*
X68999130Y-123348484D01*
X69023320Y-123324294D01*
X69071701Y-123300104D01*
X69458749Y-123759723D02*
X69482940Y-123783913D01*
X69458749Y-123808104D01*
X69434559Y-123783913D01*
X69458749Y-123759723D01*
X69458749Y-123808104D01*
X69966750Y-123808104D02*
X69676464Y-123808104D01*
X69821607Y-123808104D02*
X69821607Y-123300104D01*
X69773226Y-123372675D01*
X69724845Y-123421056D01*
X69676464Y-123445246D01*
X70402179Y-123469437D02*
X70402179Y-123808104D01*
X70184464Y-123469437D02*
X70184464Y-123735532D01*
X70208655Y-123783913D01*
X70257036Y-123808104D01*
X70329607Y-123808104D01*
X70377988Y-123783913D01*
X70402179Y-123759723D01*
X78082654Y-131763992D02*
X78034273Y-131739801D01*
X78010082Y-131715611D01*
X77985892Y-131667230D01*
X77985892Y-131643039D01*
X78010082Y-131594658D01*
X78034273Y-131570468D01*
X78082654Y-131546278D01*
X78179416Y-131546278D01*
X78227797Y-131570468D01*
X78251987Y-131594658D01*
X78276178Y-131643039D01*
X78276178Y-131667230D01*
X78251987Y-131715611D01*
X78227797Y-131739801D01*
X78179416Y-131763992D01*
X78082654Y-131763992D01*
X78034273Y-131788182D01*
X78010082Y-131812373D01*
X77985892Y-131860754D01*
X77985892Y-131957516D01*
X78010082Y-132005897D01*
X78034273Y-132030087D01*
X78082654Y-132054278D01*
X78179416Y-132054278D01*
X78227797Y-132030087D01*
X78251987Y-132005897D01*
X78276178Y-131957516D01*
X78276178Y-131860754D01*
X78251987Y-131812373D01*
X78227797Y-131788182D01*
X78179416Y-131763992D01*
X78493892Y-131715611D02*
X78493892Y-132223611D01*
X78493892Y-131739801D02*
X78542273Y-131715611D01*
X78639035Y-131715611D01*
X78687416Y-131739801D01*
X78711607Y-131763992D01*
X78735797Y-131812373D01*
X78735797Y-131957516D01*
X78711607Y-132005897D01*
X78687416Y-132030087D01*
X78639035Y-132054278D01*
X78542273Y-132054278D01*
X78493892Y-132030087D01*
X79122845Y-131788182D02*
X78953511Y-131788182D01*
X78953511Y-132054278D02*
X78953511Y-131546278D01*
X79195416Y-131546278D01*
X83162654Y-131772818D02*
X83114273Y-131748627D01*
X83090082Y-131724437D01*
X83065892Y-131676056D01*
X83065892Y-131651865D01*
X83090082Y-131603484D01*
X83114273Y-131579294D01*
X83162654Y-131555104D01*
X83259416Y-131555104D01*
X83307797Y-131579294D01*
X83331987Y-131603484D01*
X83356178Y-131651865D01*
X83356178Y-131676056D01*
X83331987Y-131724437D01*
X83307797Y-131748627D01*
X83259416Y-131772818D01*
X83162654Y-131772818D01*
X83114273Y-131797008D01*
X83090082Y-131821199D01*
X83065892Y-131869580D01*
X83065892Y-131966342D01*
X83090082Y-132014723D01*
X83114273Y-132038913D01*
X83162654Y-132063104D01*
X83259416Y-132063104D01*
X83307797Y-132038913D01*
X83331987Y-132014723D01*
X83356178Y-131966342D01*
X83356178Y-131869580D01*
X83331987Y-131821199D01*
X83307797Y-131797008D01*
X83259416Y-131772818D01*
X83573892Y-131724437D02*
X83573892Y-132232437D01*
X83573892Y-131748627D02*
X83622273Y-131724437D01*
X83719035Y-131724437D01*
X83767416Y-131748627D01*
X83791607Y-131772818D01*
X83815797Y-131821199D01*
X83815797Y-131966342D01*
X83791607Y-132014723D01*
X83767416Y-132038913D01*
X83719035Y-132063104D01*
X83622273Y-132063104D01*
X83573892Y-132038913D01*
X84202845Y-131797008D02*
X84033511Y-131797008D01*
X84033511Y-132063104D02*
X84033511Y-131555104D01*
X84275416Y-131555104D01*
X86809369Y-116774723D02*
X86833559Y-116798913D01*
X86809369Y-116823104D01*
X86785178Y-116798913D01*
X86809369Y-116774723D01*
X86809369Y-116823104D01*
X86712607Y-116339294D02*
X86760988Y-116315104D01*
X86881940Y-116315104D01*
X86930321Y-116339294D01*
X86954512Y-116387675D01*
X86954512Y-116436056D01*
X86930321Y-116484437D01*
X86906131Y-116508627D01*
X86857750Y-116532818D01*
X86833559Y-116557008D01*
X86809369Y-116605389D01*
X86809369Y-116629580D01*
X59839524Y-90859810D02*
X59549238Y-90859810D01*
X59694381Y-90859810D02*
X59694381Y-90351810D01*
X59646000Y-90424381D01*
X59597619Y-90472762D01*
X59549238Y-90496952D01*
X60057238Y-90859810D02*
X60057238Y-90351810D01*
X60105619Y-90666286D02*
X60250762Y-90859810D01*
X60250762Y-90521143D02*
X60057238Y-90714667D01*
X79439524Y-90959810D02*
X79149238Y-90959810D01*
X79294381Y-90959810D02*
X79294381Y-90451810D01*
X79246000Y-90524381D01*
X79197619Y-90572762D01*
X79149238Y-90596952D01*
X79657238Y-90959810D02*
X79657238Y-90451810D01*
X79705619Y-90766286D02*
X79850762Y-90959810D01*
X79850762Y-90621143D02*
X79657238Y-90814667D01*
X98939524Y-91059810D02*
X98649238Y-91059810D01*
X98794381Y-91059810D02*
X98794381Y-90551810D01*
X98746000Y-90624381D01*
X98697619Y-90672762D01*
X98649238Y-90696952D01*
X99157238Y-91059810D02*
X99157238Y-90551810D01*
X99205619Y-90866286D02*
X99350762Y-91059810D01*
X99350762Y-90721143D02*
X99157238Y-90914667D01*
X118639524Y-91059810D02*
X118349238Y-91059810D01*
X118494381Y-91059810D02*
X118494381Y-90551810D01*
X118446000Y-90624381D01*
X118397619Y-90672762D01*
X118349238Y-90696952D01*
X118857238Y-91059810D02*
X118857238Y-90551810D01*
X118905619Y-90866286D02*
X119050762Y-91059810D01*
X119050762Y-90721143D02*
X118857238Y-90914667D01*
X138239524Y-91059810D02*
X137949238Y-91059810D01*
X138094381Y-91059810D02*
X138094381Y-90551810D01*
X138046000Y-90624381D01*
X137997619Y-90672762D01*
X137949238Y-90696952D01*
X138457238Y-91059810D02*
X138457238Y-90551810D01*
X138505619Y-90866286D02*
X138650762Y-91059810D01*
X138650762Y-90721143D02*
X138457238Y-90914667D01*
M02*
