G04 #@! TF.FileFunction,Legend,Bot*
%FSLAX46Y46*%
G04 Gerber Fmt 4.6, Leading zero omitted, Abs format (unit mm)*
G04 Created by KiCad (PCBNEW (2015-07-22 BZR 5980)-product) date Friday, October 16, 2015 'amt' 10:57:48 am*
%MOMM*%
G01*
G04 APERTURE LIST*
%ADD10C,0.100000*%
%ADD11C,0.300000*%
%ADD12C,0.250000*%
%ADD13C,0.450000*%
%ADD14C,0.152400*%
%ADD15C,0.150000*%
%ADD16C,0.114300*%
G04 APERTURE END LIST*
D10*
D11*
X137564286Y-73830000D02*
X137492857Y-73901429D01*
X137421429Y-74115715D01*
X137421429Y-74258572D01*
X137492857Y-74472857D01*
X137635714Y-74615715D01*
X137778571Y-74687143D01*
X138064286Y-74758572D01*
X138278571Y-74758572D01*
X138564286Y-74687143D01*
X138707143Y-74615715D01*
X138850000Y-74472857D01*
X138921429Y-74258572D01*
X138921429Y-74115715D01*
X138850000Y-73901429D01*
X138778571Y-73830000D01*
X137421429Y-73187143D02*
X138921429Y-73187143D01*
X137421429Y-72544286D02*
X138207143Y-72544286D01*
X138350000Y-72615715D01*
X138421429Y-72758572D01*
X138421429Y-72972857D01*
X138350000Y-73115715D01*
X138278571Y-73187143D01*
X137421429Y-71830000D02*
X138421429Y-71830000D01*
X138921429Y-71830000D02*
X138850000Y-71901429D01*
X138778571Y-71830000D01*
X138850000Y-71758572D01*
X138921429Y-71830000D01*
X138778571Y-71830000D01*
X137421429Y-71115714D02*
X138421429Y-71115714D01*
X138921429Y-71115714D02*
X138850000Y-71187143D01*
X138778571Y-71115714D01*
X138850000Y-71044286D01*
X138921429Y-71115714D01*
X138778571Y-71115714D01*
X138421429Y-70401428D02*
X137421429Y-70401428D01*
X138278571Y-70401428D02*
X138350000Y-70330000D01*
X138421429Y-70187142D01*
X138421429Y-69972857D01*
X138350000Y-69830000D01*
X138207143Y-69758571D01*
X137421429Y-69758571D01*
X137421429Y-68401428D02*
X138921429Y-68401428D01*
X137492857Y-68401428D02*
X137421429Y-68544285D01*
X137421429Y-68829999D01*
X137492857Y-68972857D01*
X137564286Y-69044285D01*
X137707143Y-69115714D01*
X138135714Y-69115714D01*
X138278571Y-69044285D01*
X138350000Y-68972857D01*
X138421429Y-68829999D01*
X138421429Y-68544285D01*
X138350000Y-68401428D01*
X137421429Y-67687142D02*
X138421429Y-67687142D01*
X138921429Y-67687142D02*
X138850000Y-67758571D01*
X138778571Y-67687142D01*
X138850000Y-67615714D01*
X138921429Y-67687142D01*
X138778571Y-67687142D01*
X137421429Y-66972856D02*
X138421429Y-66972856D01*
X138921429Y-66972856D02*
X138850000Y-67044285D01*
X138778571Y-66972856D01*
X138850000Y-66901428D01*
X138921429Y-66972856D01*
X138778571Y-66972856D01*
X117964286Y-73830000D02*
X117892857Y-73901429D01*
X117821429Y-74115715D01*
X117821429Y-74258572D01*
X117892857Y-74472857D01*
X118035714Y-74615715D01*
X118178571Y-74687143D01*
X118464286Y-74758572D01*
X118678571Y-74758572D01*
X118964286Y-74687143D01*
X119107143Y-74615715D01*
X119250000Y-74472857D01*
X119321429Y-74258572D01*
X119321429Y-74115715D01*
X119250000Y-73901429D01*
X119178571Y-73830000D01*
X117821429Y-73187143D02*
X119321429Y-73187143D01*
X117821429Y-72544286D02*
X118607143Y-72544286D01*
X118750000Y-72615715D01*
X118821429Y-72758572D01*
X118821429Y-72972857D01*
X118750000Y-73115715D01*
X118678571Y-73187143D01*
X117821429Y-71830000D02*
X118821429Y-71830000D01*
X119321429Y-71830000D02*
X119250000Y-71901429D01*
X119178571Y-71830000D01*
X119250000Y-71758572D01*
X119321429Y-71830000D01*
X119178571Y-71830000D01*
X117821429Y-71115714D02*
X118821429Y-71115714D01*
X119321429Y-71115714D02*
X119250000Y-71187143D01*
X119178571Y-71115714D01*
X119250000Y-71044286D01*
X119321429Y-71115714D01*
X119178571Y-71115714D01*
X118821429Y-70401428D02*
X117821429Y-70401428D01*
X118678571Y-70401428D02*
X118750000Y-70330000D01*
X118821429Y-70187142D01*
X118821429Y-69972857D01*
X118750000Y-69830000D01*
X118607143Y-69758571D01*
X117821429Y-69758571D01*
X117821429Y-68401428D02*
X119321429Y-68401428D01*
X117892857Y-68401428D02*
X117821429Y-68544285D01*
X117821429Y-68829999D01*
X117892857Y-68972857D01*
X117964286Y-69044285D01*
X118107143Y-69115714D01*
X118535714Y-69115714D01*
X118678571Y-69044285D01*
X118750000Y-68972857D01*
X118821429Y-68829999D01*
X118821429Y-68544285D01*
X118750000Y-68401428D01*
X117821429Y-67687142D02*
X118821429Y-67687142D01*
X119321429Y-67687142D02*
X119250000Y-67758571D01*
X119178571Y-67687142D01*
X119250000Y-67615714D01*
X119321429Y-67687142D01*
X119178571Y-67687142D01*
X117821429Y-66972856D02*
X118821429Y-66972856D01*
X119321429Y-66972856D02*
X119250000Y-67044285D01*
X119178571Y-66972856D01*
X119250000Y-66901428D01*
X119321429Y-66972856D01*
X119178571Y-66972856D01*
X98364286Y-73830000D02*
X98292857Y-73901429D01*
X98221429Y-74115715D01*
X98221429Y-74258572D01*
X98292857Y-74472857D01*
X98435714Y-74615715D01*
X98578571Y-74687143D01*
X98864286Y-74758572D01*
X99078571Y-74758572D01*
X99364286Y-74687143D01*
X99507143Y-74615715D01*
X99650000Y-74472857D01*
X99721429Y-74258572D01*
X99721429Y-74115715D01*
X99650000Y-73901429D01*
X99578571Y-73830000D01*
X98221429Y-73187143D02*
X99721429Y-73187143D01*
X98221429Y-72544286D02*
X99007143Y-72544286D01*
X99150000Y-72615715D01*
X99221429Y-72758572D01*
X99221429Y-72972857D01*
X99150000Y-73115715D01*
X99078571Y-73187143D01*
X98221429Y-71830000D02*
X99221429Y-71830000D01*
X99721429Y-71830000D02*
X99650000Y-71901429D01*
X99578571Y-71830000D01*
X99650000Y-71758572D01*
X99721429Y-71830000D01*
X99578571Y-71830000D01*
X98221429Y-71115714D02*
X99221429Y-71115714D01*
X99721429Y-71115714D02*
X99650000Y-71187143D01*
X99578571Y-71115714D01*
X99650000Y-71044286D01*
X99721429Y-71115714D01*
X99578571Y-71115714D01*
X99221429Y-70401428D02*
X98221429Y-70401428D01*
X99078571Y-70401428D02*
X99150000Y-70330000D01*
X99221429Y-70187142D01*
X99221429Y-69972857D01*
X99150000Y-69830000D01*
X99007143Y-69758571D01*
X98221429Y-69758571D01*
X98221429Y-68401428D02*
X99721429Y-68401428D01*
X98292857Y-68401428D02*
X98221429Y-68544285D01*
X98221429Y-68829999D01*
X98292857Y-68972857D01*
X98364286Y-69044285D01*
X98507143Y-69115714D01*
X98935714Y-69115714D01*
X99078571Y-69044285D01*
X99150000Y-68972857D01*
X99221429Y-68829999D01*
X99221429Y-68544285D01*
X99150000Y-68401428D01*
X98221429Y-67687142D02*
X99221429Y-67687142D01*
X99721429Y-67687142D02*
X99650000Y-67758571D01*
X99578571Y-67687142D01*
X99650000Y-67615714D01*
X99721429Y-67687142D01*
X99578571Y-67687142D01*
X98221429Y-66972856D02*
X99221429Y-66972856D01*
X99721429Y-66972856D02*
X99650000Y-67044285D01*
X99578571Y-66972856D01*
X99650000Y-66901428D01*
X99721429Y-66972856D01*
X99578571Y-66972856D01*
X78764286Y-73830000D02*
X78692857Y-73901429D01*
X78621429Y-74115715D01*
X78621429Y-74258572D01*
X78692857Y-74472857D01*
X78835714Y-74615715D01*
X78978571Y-74687143D01*
X79264286Y-74758572D01*
X79478571Y-74758572D01*
X79764286Y-74687143D01*
X79907143Y-74615715D01*
X80050000Y-74472857D01*
X80121429Y-74258572D01*
X80121429Y-74115715D01*
X80050000Y-73901429D01*
X79978571Y-73830000D01*
X78621429Y-73187143D02*
X80121429Y-73187143D01*
X78621429Y-72544286D02*
X79407143Y-72544286D01*
X79550000Y-72615715D01*
X79621429Y-72758572D01*
X79621429Y-72972857D01*
X79550000Y-73115715D01*
X79478571Y-73187143D01*
X78621429Y-71830000D02*
X79621429Y-71830000D01*
X80121429Y-71830000D02*
X80050000Y-71901429D01*
X79978571Y-71830000D01*
X80050000Y-71758572D01*
X80121429Y-71830000D01*
X79978571Y-71830000D01*
X78621429Y-71115714D02*
X79621429Y-71115714D01*
X80121429Y-71115714D02*
X80050000Y-71187143D01*
X79978571Y-71115714D01*
X80050000Y-71044286D01*
X80121429Y-71115714D01*
X79978571Y-71115714D01*
X79621429Y-70401428D02*
X78621429Y-70401428D01*
X79478571Y-70401428D02*
X79550000Y-70330000D01*
X79621429Y-70187142D01*
X79621429Y-69972857D01*
X79550000Y-69830000D01*
X79407143Y-69758571D01*
X78621429Y-69758571D01*
X78621429Y-68401428D02*
X80121429Y-68401428D01*
X78692857Y-68401428D02*
X78621429Y-68544285D01*
X78621429Y-68829999D01*
X78692857Y-68972857D01*
X78764286Y-69044285D01*
X78907143Y-69115714D01*
X79335714Y-69115714D01*
X79478571Y-69044285D01*
X79550000Y-68972857D01*
X79621429Y-68829999D01*
X79621429Y-68544285D01*
X79550000Y-68401428D01*
X78621429Y-67687142D02*
X79621429Y-67687142D01*
X80121429Y-67687142D02*
X80050000Y-67758571D01*
X79978571Y-67687142D01*
X80050000Y-67615714D01*
X80121429Y-67687142D01*
X79978571Y-67687142D01*
X78621429Y-66972856D02*
X79621429Y-66972856D01*
X80121429Y-66972856D02*
X80050000Y-67044285D01*
X79978571Y-66972856D01*
X80050000Y-66901428D01*
X80121429Y-66972856D01*
X79978571Y-66972856D01*
X59164286Y-73830000D02*
X59092857Y-73901429D01*
X59021429Y-74115715D01*
X59021429Y-74258572D01*
X59092857Y-74472857D01*
X59235714Y-74615715D01*
X59378571Y-74687143D01*
X59664286Y-74758572D01*
X59878571Y-74758572D01*
X60164286Y-74687143D01*
X60307143Y-74615715D01*
X60450000Y-74472857D01*
X60521429Y-74258572D01*
X60521429Y-74115715D01*
X60450000Y-73901429D01*
X60378571Y-73830000D01*
X59021429Y-73187143D02*
X60521429Y-73187143D01*
X59021429Y-72544286D02*
X59807143Y-72544286D01*
X59950000Y-72615715D01*
X60021429Y-72758572D01*
X60021429Y-72972857D01*
X59950000Y-73115715D01*
X59878571Y-73187143D01*
X59021429Y-71830000D02*
X60021429Y-71830000D01*
X60521429Y-71830000D02*
X60450000Y-71901429D01*
X60378571Y-71830000D01*
X60450000Y-71758572D01*
X60521429Y-71830000D01*
X60378571Y-71830000D01*
X59021429Y-71115714D02*
X60021429Y-71115714D01*
X60521429Y-71115714D02*
X60450000Y-71187143D01*
X60378571Y-71115714D01*
X60450000Y-71044286D01*
X60521429Y-71115714D01*
X60378571Y-71115714D01*
X60021429Y-70401428D02*
X59021429Y-70401428D01*
X59878571Y-70401428D02*
X59950000Y-70330000D01*
X60021429Y-70187142D01*
X60021429Y-69972857D01*
X59950000Y-69830000D01*
X59807143Y-69758571D01*
X59021429Y-69758571D01*
X59021429Y-68401428D02*
X60521429Y-68401428D01*
X59092857Y-68401428D02*
X59021429Y-68544285D01*
X59021429Y-68829999D01*
X59092857Y-68972857D01*
X59164286Y-69044285D01*
X59307143Y-69115714D01*
X59735714Y-69115714D01*
X59878571Y-69044285D01*
X59950000Y-68972857D01*
X60021429Y-68829999D01*
X60021429Y-68544285D01*
X59950000Y-68401428D01*
X59021429Y-67687142D02*
X60021429Y-67687142D01*
X60521429Y-67687142D02*
X60450000Y-67758571D01*
X60378571Y-67687142D01*
X60450000Y-67615714D01*
X60521429Y-67687142D01*
X60378571Y-67687142D01*
X59021429Y-66972856D02*
X60021429Y-66972856D01*
X60521429Y-66972856D02*
X60450000Y-67044285D01*
X60378571Y-66972856D01*
X60450000Y-66901428D01*
X60521429Y-66972856D01*
X60378571Y-66972856D01*
X138992857Y-127944286D02*
X139064286Y-128039524D01*
X139278572Y-128134762D01*
X139421429Y-128134762D01*
X139635714Y-128039524D01*
X139778572Y-127849048D01*
X139850000Y-127658571D01*
X139921429Y-127277619D01*
X139921429Y-126991905D01*
X139850000Y-126610952D01*
X139778572Y-126420476D01*
X139635714Y-126230000D01*
X139421429Y-126134762D01*
X139278572Y-126134762D01*
X139064286Y-126230000D01*
X138992857Y-126325238D01*
X138350000Y-128134762D02*
X138350000Y-126134762D01*
X137707143Y-128134762D02*
X137707143Y-127087143D01*
X137778572Y-126896667D01*
X137921429Y-126801429D01*
X138135714Y-126801429D01*
X138278572Y-126896667D01*
X138350000Y-126991905D01*
X136992857Y-128134762D02*
X136992857Y-126801429D01*
X136992857Y-126134762D02*
X137064286Y-126230000D01*
X136992857Y-126325238D01*
X136921429Y-126230000D01*
X136992857Y-126134762D01*
X136992857Y-126325238D01*
X136278571Y-128134762D02*
X136278571Y-126801429D01*
X136278571Y-126134762D02*
X136350000Y-126230000D01*
X136278571Y-126325238D01*
X136207143Y-126230000D01*
X136278571Y-126134762D01*
X136278571Y-126325238D01*
X135564285Y-126801429D02*
X135564285Y-128134762D01*
X135564285Y-126991905D02*
X135492857Y-126896667D01*
X135349999Y-126801429D01*
X135135714Y-126801429D01*
X134992857Y-126896667D01*
X134921428Y-127087143D01*
X134921428Y-128134762D01*
X133564285Y-128134762D02*
X133564285Y-126134762D01*
X133564285Y-128039524D02*
X133707142Y-128134762D01*
X133992856Y-128134762D01*
X134135714Y-128039524D01*
X134207142Y-127944286D01*
X134278571Y-127753810D01*
X134278571Y-127182381D01*
X134207142Y-126991905D01*
X134135714Y-126896667D01*
X133992856Y-126801429D01*
X133707142Y-126801429D01*
X133564285Y-126896667D01*
X132849999Y-128134762D02*
X132849999Y-126801429D01*
X132849999Y-126134762D02*
X132921428Y-126230000D01*
X132849999Y-126325238D01*
X132778571Y-126230000D01*
X132849999Y-126134762D01*
X132849999Y-126325238D01*
X132135713Y-128134762D02*
X132135713Y-126801429D01*
X132135713Y-126134762D02*
X132207142Y-126230000D01*
X132135713Y-126325238D01*
X132064285Y-126230000D01*
X132135713Y-126134762D01*
X132135713Y-126325238D01*
X129421427Y-128134762D02*
X129921427Y-127182381D01*
X130278570Y-128134762D02*
X130278570Y-126134762D01*
X129707142Y-126134762D01*
X129564284Y-126230000D01*
X129492856Y-126325238D01*
X129421427Y-126515714D01*
X129421427Y-126801429D01*
X129492856Y-126991905D01*
X129564284Y-127087143D01*
X129707142Y-127182381D01*
X130278570Y-127182381D01*
X128207142Y-128039524D02*
X128349999Y-128134762D01*
X128635713Y-128134762D01*
X128778570Y-128039524D01*
X128849999Y-127849048D01*
X128849999Y-127087143D01*
X128778570Y-126896667D01*
X128635713Y-126801429D01*
X128349999Y-126801429D01*
X128207142Y-126896667D01*
X128135713Y-127087143D01*
X128135713Y-127277619D01*
X128849999Y-127468095D01*
X127635713Y-126801429D02*
X127278570Y-128134762D01*
X126921428Y-126801429D01*
X125278571Y-126325238D02*
X125207142Y-126230000D01*
X125064285Y-126134762D01*
X124707142Y-126134762D01*
X124564285Y-126230000D01*
X124492856Y-126325238D01*
X124421428Y-126515714D01*
X124421428Y-126706190D01*
X124492856Y-126991905D01*
X125349999Y-128134762D01*
X124421428Y-128134762D01*
X123778571Y-127944286D02*
X123707143Y-128039524D01*
X123778571Y-128134762D01*
X123850000Y-128039524D01*
X123778571Y-127944286D01*
X123778571Y-128134762D01*
X122778571Y-126134762D02*
X122635714Y-126134762D01*
X122492857Y-126230000D01*
X122421428Y-126325238D01*
X122349999Y-126515714D01*
X122278571Y-126896667D01*
X122278571Y-127372857D01*
X122349999Y-127753810D01*
X122421428Y-127944286D01*
X122492857Y-128039524D01*
X122635714Y-128134762D01*
X122778571Y-128134762D01*
X122921428Y-128039524D01*
X122992857Y-127944286D01*
X123064285Y-127753810D01*
X123135714Y-127372857D01*
X123135714Y-126896667D01*
X123064285Y-126515714D01*
X122992857Y-126325238D01*
X122921428Y-126230000D01*
X122778571Y-126134762D01*
D12*
X135433334Y-147133571D02*
X135290477Y-147181190D01*
X135242858Y-147228810D01*
X135195239Y-147324048D01*
X135195239Y-147466905D01*
X135242858Y-147562143D01*
X135290477Y-147609762D01*
X135385715Y-147657381D01*
X135766668Y-147657381D01*
X135766668Y-146657381D01*
X135433334Y-146657381D01*
X135338096Y-146705000D01*
X135290477Y-146752619D01*
X135242858Y-146847857D01*
X135242858Y-146943095D01*
X135290477Y-147038333D01*
X135338096Y-147085952D01*
X135433334Y-147133571D01*
X135766668Y-147133571D01*
X134623811Y-147657381D02*
X134719049Y-147609762D01*
X134766668Y-147514524D01*
X134766668Y-146657381D01*
X133814286Y-146990714D02*
X133814286Y-147657381D01*
X134242858Y-146990714D02*
X134242858Y-147514524D01*
X134195239Y-147609762D01*
X134100001Y-147657381D01*
X133957143Y-147657381D01*
X133861905Y-147609762D01*
X133814286Y-147562143D01*
X132957143Y-147609762D02*
X133052381Y-147657381D01*
X133242858Y-147657381D01*
X133338096Y-147609762D01*
X133385715Y-147514524D01*
X133385715Y-147133571D01*
X133338096Y-147038333D01*
X133242858Y-146990714D01*
X133052381Y-146990714D01*
X132957143Y-147038333D01*
X132909524Y-147133571D01*
X132909524Y-147228810D01*
X133385715Y-147324048D01*
X132623810Y-146990714D02*
X132242858Y-146990714D01*
X132480953Y-146657381D02*
X132480953Y-147514524D01*
X132433334Y-147609762D01*
X132338096Y-147657381D01*
X132242858Y-147657381D01*
X131766667Y-147657381D02*
X131861905Y-147609762D01*
X131909524Y-147562143D01*
X131957143Y-147466905D01*
X131957143Y-147181190D01*
X131909524Y-147085952D01*
X131861905Y-147038333D01*
X131766667Y-146990714D01*
X131623809Y-146990714D01*
X131528571Y-147038333D01*
X131480952Y-147085952D01*
X131433333Y-147181190D01*
X131433333Y-147466905D01*
X131480952Y-147562143D01*
X131528571Y-147609762D01*
X131623809Y-147657381D01*
X131766667Y-147657381D01*
X130861905Y-147657381D02*
X130957143Y-147609762D01*
X131004762Y-147562143D01*
X131052381Y-147466905D01*
X131052381Y-147181190D01*
X131004762Y-147085952D01*
X130957143Y-147038333D01*
X130861905Y-146990714D01*
X130719047Y-146990714D01*
X130623809Y-147038333D01*
X130576190Y-147085952D01*
X130528571Y-147181190D01*
X130528571Y-147466905D01*
X130576190Y-147562143D01*
X130623809Y-147609762D01*
X130719047Y-147657381D01*
X130861905Y-147657381D01*
X130242857Y-146990714D02*
X129861905Y-146990714D01*
X130100000Y-146657381D02*
X130100000Y-147514524D01*
X130052381Y-147609762D01*
X129957143Y-147657381D01*
X129861905Y-147657381D01*
X129528571Y-147657381D02*
X129528571Y-146657381D01*
X129099999Y-147657381D02*
X129099999Y-147133571D01*
X129147618Y-147038333D01*
X129242856Y-146990714D01*
X129385714Y-146990714D01*
X129480952Y-147038333D01*
X129528571Y-147085952D01*
X127147618Y-146609762D02*
X128004761Y-147895476D01*
X125719046Y-147133571D02*
X126052380Y-147133571D01*
X126052380Y-147657381D02*
X126052380Y-146657381D01*
X125576189Y-146657381D01*
X125338094Y-146657381D02*
X124766665Y-146657381D01*
X125052380Y-147657381D02*
X125052380Y-146657381D01*
X124433332Y-147657381D02*
X124433332Y-146657381D01*
X124195237Y-146657381D01*
X124052379Y-146705000D01*
X123957141Y-146800238D01*
X123909522Y-146895476D01*
X123861903Y-147085952D01*
X123861903Y-147228810D01*
X123909522Y-147419286D01*
X123957141Y-147514524D01*
X124052379Y-147609762D01*
X124195237Y-147657381D01*
X124433332Y-147657381D01*
X123433332Y-147657381D02*
X123433332Y-146657381D01*
X132242858Y-149021667D02*
X131766667Y-149021667D01*
X132338096Y-149307381D02*
X132004763Y-148307381D01*
X131671429Y-149307381D01*
X130909524Y-149307381D02*
X130909524Y-148307381D01*
X130909524Y-149259762D02*
X131004762Y-149307381D01*
X131195239Y-149307381D01*
X131290477Y-149259762D01*
X131338096Y-149212143D01*
X131385715Y-149116905D01*
X131385715Y-148831190D01*
X131338096Y-148735952D01*
X131290477Y-148688333D01*
X131195239Y-148640714D01*
X131004762Y-148640714D01*
X130909524Y-148688333D01*
X130004762Y-149307381D02*
X130004762Y-148783571D01*
X130052381Y-148688333D01*
X130147619Y-148640714D01*
X130338096Y-148640714D01*
X130433334Y-148688333D01*
X130004762Y-149259762D02*
X130100000Y-149307381D01*
X130338096Y-149307381D01*
X130433334Y-149259762D01*
X130480953Y-149164524D01*
X130480953Y-149069286D01*
X130433334Y-148974048D01*
X130338096Y-148926429D01*
X130100000Y-148926429D01*
X130004762Y-148878810D01*
X129528572Y-148640714D02*
X129528572Y-149640714D01*
X129528572Y-148688333D02*
X129433334Y-148640714D01*
X129242857Y-148640714D01*
X129147619Y-148688333D01*
X129100000Y-148735952D01*
X129052381Y-148831190D01*
X129052381Y-149116905D01*
X129100000Y-149212143D01*
X129147619Y-149259762D01*
X129242857Y-149307381D01*
X129433334Y-149307381D01*
X129528572Y-149259762D01*
X128766667Y-148640714D02*
X128385715Y-148640714D01*
X128623810Y-148307381D02*
X128623810Y-149164524D01*
X128576191Y-149259762D01*
X128480953Y-149307381D01*
X128385715Y-149307381D01*
X127909524Y-149307381D02*
X128004762Y-149259762D01*
X128052381Y-149212143D01*
X128100000Y-149116905D01*
X128100000Y-148831190D01*
X128052381Y-148735952D01*
X128004762Y-148688333D01*
X127909524Y-148640714D01*
X127766666Y-148640714D01*
X127671428Y-148688333D01*
X127623809Y-148735952D01*
X127576190Y-148831190D01*
X127576190Y-149116905D01*
X127623809Y-149212143D01*
X127671428Y-149259762D01*
X127766666Y-149307381D01*
X127909524Y-149307381D01*
X127147619Y-149307381D02*
X127147619Y-148640714D01*
X127147619Y-148831190D02*
X127100000Y-148735952D01*
X127052381Y-148688333D01*
X126957143Y-148640714D01*
X126861904Y-148640714D01*
D13*
X102369696Y-124891232D02*
X103826839Y-124891232D01*
X103998267Y-124976947D01*
X104083981Y-125062661D01*
X104169696Y-125234090D01*
X104169696Y-125576947D01*
X104083981Y-125748375D01*
X103998267Y-125834090D01*
X103826839Y-125919804D01*
X102369696Y-125919804D01*
X104083981Y-126691232D02*
X104169696Y-126948375D01*
X104169696Y-127376946D01*
X104083981Y-127548375D01*
X103998267Y-127634089D01*
X103826839Y-127719804D01*
X103655410Y-127719804D01*
X103483981Y-127634089D01*
X103398267Y-127548375D01*
X103312553Y-127376946D01*
X103226839Y-127034089D01*
X103141124Y-126862661D01*
X103055410Y-126776946D01*
X102883981Y-126691232D01*
X102712553Y-126691232D01*
X102541124Y-126776946D01*
X102455410Y-126862661D01*
X102369696Y-127034089D01*
X102369696Y-127462661D01*
X102455410Y-127719804D01*
X103226839Y-129091232D02*
X103312553Y-129348375D01*
X103398267Y-129434090D01*
X103569696Y-129519804D01*
X103826839Y-129519804D01*
X103998267Y-129434090D01*
X104083981Y-129348375D01*
X104169696Y-129176947D01*
X104169696Y-128491232D01*
X102369696Y-128491232D01*
X102369696Y-129091232D01*
X102455410Y-129262661D01*
X102541124Y-129348375D01*
X102712553Y-129434090D01*
X102883981Y-129434090D01*
X103055410Y-129348375D01*
X103141124Y-129262661D01*
X103226839Y-129091232D01*
X103226839Y-128491232D01*
X107139696Y-118505518D02*
X105339696Y-118505518D01*
X105339696Y-119191233D01*
X105425410Y-119362661D01*
X105511124Y-119448376D01*
X105682553Y-119534090D01*
X105939696Y-119534090D01*
X106111124Y-119448376D01*
X106196839Y-119362661D01*
X106282553Y-119191233D01*
X106282553Y-118505518D01*
X107139696Y-121334090D02*
X106282553Y-120734090D01*
X107139696Y-120305518D02*
X105339696Y-120305518D01*
X105339696Y-120991233D01*
X105425410Y-121162661D01*
X105511124Y-121248376D01*
X105682553Y-121334090D01*
X105939696Y-121334090D01*
X106111124Y-121248376D01*
X106196839Y-121162661D01*
X106282553Y-120991233D01*
X106282553Y-120305518D01*
X105339696Y-122448376D02*
X105339696Y-122791233D01*
X105425410Y-122962661D01*
X105596839Y-123134090D01*
X105939696Y-123219804D01*
X106539696Y-123219804D01*
X106882553Y-123134090D01*
X107053981Y-122962661D01*
X107139696Y-122791233D01*
X107139696Y-122448376D01*
X107053981Y-122276947D01*
X106882553Y-122105518D01*
X106539696Y-122019804D01*
X105939696Y-122019804D01*
X105596839Y-122105518D01*
X105425410Y-122276947D01*
X105339696Y-122448376D01*
X105425410Y-124934090D02*
X105339696Y-124762661D01*
X105339696Y-124505518D01*
X105425410Y-124248375D01*
X105596839Y-124076947D01*
X105768267Y-123991232D01*
X106111124Y-123905518D01*
X106368267Y-123905518D01*
X106711124Y-123991232D01*
X106882553Y-124076947D01*
X107053981Y-124248375D01*
X107139696Y-124505518D01*
X107139696Y-124676947D01*
X107053981Y-124934090D01*
X106968267Y-125019804D01*
X106368267Y-125019804D01*
X106368267Y-124676947D01*
X107139696Y-126819804D02*
X106282553Y-126219804D01*
X107139696Y-125791232D02*
X105339696Y-125791232D01*
X105339696Y-126476947D01*
X105425410Y-126648375D01*
X105511124Y-126734090D01*
X105682553Y-126819804D01*
X105939696Y-126819804D01*
X106111124Y-126734090D01*
X106196839Y-126648375D01*
X106282553Y-126476947D01*
X106282553Y-125791232D01*
X106625410Y-127505518D02*
X106625410Y-128362661D01*
X107139696Y-127334090D02*
X105339696Y-127934090D01*
X107139696Y-128534090D01*
X107139696Y-129134089D02*
X105339696Y-129134089D01*
X106625410Y-129734089D01*
X105339696Y-130334089D01*
X107139696Y-130334089D01*
X107139696Y-131191232D02*
X105339696Y-131191232D01*
X106625410Y-131791232D01*
X105339696Y-132391232D01*
X107139696Y-132391232D01*
X106196839Y-133248375D02*
X106196839Y-133848375D01*
X107139696Y-134105518D02*
X107139696Y-133248375D01*
X105339696Y-133248375D01*
X105339696Y-134105518D01*
X107139696Y-135905518D02*
X106282553Y-135305518D01*
X107139696Y-134876946D02*
X105339696Y-134876946D01*
X105339696Y-135562661D01*
X105425410Y-135734089D01*
X105511124Y-135819804D01*
X105682553Y-135905518D01*
X105939696Y-135905518D01*
X106111124Y-135819804D01*
X106196839Y-135734089D01*
X106282553Y-135562661D01*
X106282553Y-134876946D01*
D14*
X143892000Y-59087000D02*
X144908000Y-59087000D01*
X144908000Y-59087000D02*
X144908000Y-61373000D01*
X144908000Y-61373000D02*
X143892000Y-61373000D01*
X143892000Y-61373000D02*
X143892000Y-59087000D01*
X124292000Y-59087000D02*
X125308000Y-59087000D01*
X125308000Y-59087000D02*
X125308000Y-61373000D01*
X125308000Y-61373000D02*
X124292000Y-61373000D01*
X124292000Y-61373000D02*
X124292000Y-59087000D01*
X104692000Y-59087000D02*
X105708000Y-59087000D01*
X105708000Y-59087000D02*
X105708000Y-61373000D01*
X105708000Y-61373000D02*
X104692000Y-61373000D01*
X104692000Y-61373000D02*
X104692000Y-59087000D01*
X85092000Y-59087000D02*
X86108000Y-59087000D01*
X86108000Y-59087000D02*
X86108000Y-61373000D01*
X86108000Y-61373000D02*
X85092000Y-61373000D01*
X85092000Y-61373000D02*
X85092000Y-59087000D01*
D15*
X140823800Y-66897800D02*
X140925400Y-66466000D01*
X140925400Y-66466000D02*
X141001600Y-66466000D01*
X141001600Y-66466000D02*
X141128600Y-66491400D01*
X141128600Y-66491400D02*
X141179400Y-66567600D01*
X141179400Y-66567600D02*
X141179400Y-66694600D01*
X141179400Y-66694600D02*
X141128600Y-66796200D01*
X141128600Y-66796200D02*
X141027000Y-66847000D01*
X141027000Y-66847000D02*
X140646000Y-66897800D01*
X140646000Y-66897800D02*
X140544400Y-66872400D01*
X140544400Y-66872400D02*
X140493600Y-66770800D01*
X140493600Y-66770800D02*
X140493600Y-66643800D01*
X140493600Y-66643800D02*
X140569800Y-66567600D01*
X141154000Y-67507400D02*
X140493600Y-67380400D01*
X140493600Y-67380400D02*
X141179400Y-67101000D01*
X140544400Y-64764200D02*
X140493600Y-64840400D01*
X140493600Y-64840400D02*
X140493600Y-65043600D01*
X140493600Y-65043600D02*
X140544400Y-65094400D01*
X140544400Y-65094400D02*
X140620600Y-65119800D01*
X140620600Y-65119800D02*
X140722200Y-65119800D01*
X140722200Y-65119800D02*
X140798400Y-65119800D01*
X140798400Y-65119800D02*
X140849200Y-65043600D01*
X140849200Y-65043600D02*
X140874600Y-64967400D01*
X140874600Y-64967400D02*
X140874600Y-64789600D01*
X140874600Y-64789600D02*
X140925400Y-64738800D01*
X141103200Y-65043600D02*
X141179400Y-64942000D01*
X141179400Y-64942000D02*
X141179400Y-64789600D01*
X141179400Y-64789600D02*
X141128600Y-64713400D01*
X141128600Y-64713400D02*
X141027000Y-64688000D01*
X141027000Y-64688000D02*
X140493600Y-64764200D01*
X141027000Y-67812200D02*
X140493600Y-67888400D01*
X141128600Y-67837600D02*
X141027000Y-67812200D01*
X141179400Y-67913800D02*
X141128600Y-67837600D01*
X141179400Y-68066200D02*
X141179400Y-67913800D01*
X141103200Y-68167800D02*
X141179400Y-68066200D01*
X140874600Y-67913800D02*
X140925400Y-67863000D01*
X140874600Y-68091600D02*
X140874600Y-67913800D01*
X140849200Y-68167800D02*
X140874600Y-68091600D01*
X140798400Y-68244000D02*
X140849200Y-68167800D01*
X140722200Y-68244000D02*
X140798400Y-68244000D01*
X140620600Y-68244000D02*
X140722200Y-68244000D01*
X140544400Y-68218600D02*
X140620600Y-68244000D01*
X140493600Y-68167800D02*
X140544400Y-68218600D01*
X140493600Y-67964600D02*
X140493600Y-68167800D01*
X140544400Y-67888400D02*
X140493600Y-67964600D01*
X140493600Y-65526200D02*
X140544400Y-65450000D01*
X140493600Y-65627800D02*
X140493600Y-65526200D01*
X140519000Y-65704000D02*
X140493600Y-65627800D01*
X140595200Y-65805600D02*
X140519000Y-65704000D01*
X140849200Y-65805600D02*
X140595200Y-65805600D01*
X140976200Y-65805600D02*
X140849200Y-65805600D01*
X141052400Y-65754800D02*
X140976200Y-65805600D01*
X141128600Y-65704000D02*
X141052400Y-65754800D01*
X141179400Y-65602400D02*
X141128600Y-65704000D01*
X141179400Y-65450000D02*
X141179400Y-65602400D01*
X141103200Y-65373800D02*
X141179400Y-65450000D01*
X141103200Y-68498000D02*
X141179400Y-68574200D01*
X141179400Y-68574200D02*
X141179400Y-68726600D01*
X141179400Y-68726600D02*
X141128600Y-68828200D01*
X141128600Y-68828200D02*
X141052400Y-68879000D01*
X141052400Y-68879000D02*
X140976200Y-68929800D01*
X140976200Y-68929800D02*
X140849200Y-68929800D01*
X140849200Y-68929800D02*
X140595200Y-68929800D01*
X140595200Y-68929800D02*
X140519000Y-68828200D01*
X140519000Y-68828200D02*
X140493600Y-68752000D01*
X140493600Y-68752000D02*
X140493600Y-68650400D01*
X140493600Y-68650400D02*
X140544400Y-68574200D01*
X141484200Y-69234600D02*
X140620600Y-69361600D01*
X140620600Y-69361600D02*
X140544400Y-69336200D01*
X140544400Y-69336200D02*
X140468200Y-69234600D01*
X140544400Y-69742600D02*
X140493600Y-69818800D01*
X140493600Y-69818800D02*
X140493600Y-70022000D01*
X140493600Y-70022000D02*
X140544400Y-70072800D01*
X140544400Y-70072800D02*
X140620600Y-70098200D01*
X140620600Y-70098200D02*
X140722200Y-70098200D01*
X140722200Y-70098200D02*
X140798400Y-70098200D01*
X140798400Y-70098200D02*
X140849200Y-70022000D01*
X140849200Y-70022000D02*
X140874600Y-69945800D01*
X140874600Y-69945800D02*
X140874600Y-69768000D01*
X140874600Y-69768000D02*
X140925400Y-69717200D01*
X141103200Y-70022000D02*
X141179400Y-69920400D01*
X141179400Y-69920400D02*
X141179400Y-69768000D01*
X141179400Y-69768000D02*
X141128600Y-69691800D01*
X141128600Y-69691800D02*
X141027000Y-69666400D01*
X141027000Y-69666400D02*
X140493600Y-69742600D01*
X140493600Y-70453800D02*
X140468200Y-70352200D01*
X140544400Y-70504600D02*
X140493600Y-70453800D01*
X140646000Y-70530000D02*
X140544400Y-70504600D01*
X141509600Y-70428400D02*
X140646000Y-70530000D01*
X141179400Y-70631600D02*
X141179400Y-70301400D01*
X141128600Y-71266600D02*
X141179400Y-71342800D01*
X141179400Y-71342800D02*
X141179400Y-71444400D01*
X141179400Y-71444400D02*
X141128600Y-71571400D01*
X141128600Y-71571400D02*
X141052400Y-71622200D01*
X141052400Y-71622200D02*
X140976200Y-71647600D01*
X140976200Y-71647600D02*
X140696800Y-71698400D01*
X140696800Y-71698400D02*
X140544400Y-71647600D01*
X140544400Y-71647600D02*
X140493600Y-71546000D01*
X140493600Y-71546000D02*
X140493600Y-71419000D01*
X140493600Y-71419000D02*
X140569800Y-71342800D01*
X141154000Y-71241200D02*
X140341200Y-71342800D01*
X140341200Y-71342800D02*
X140239600Y-71419000D01*
X140239600Y-71419000D02*
X140214200Y-71444400D01*
X140214200Y-71444400D02*
X140188800Y-71469800D01*
X140188800Y-71469800D02*
X140163400Y-71520600D01*
X140163400Y-71520600D02*
X140163400Y-71622200D01*
X140163400Y-71622200D02*
X140163400Y-71673000D01*
X140163400Y-71673000D02*
X140214200Y-71723800D01*
X140544400Y-72460400D02*
X140493600Y-72511200D01*
X140493600Y-72511200D02*
X140493600Y-72663600D01*
X140493600Y-72663600D02*
X140544400Y-72765200D01*
X140544400Y-72765200D02*
X140595200Y-72790600D01*
X140595200Y-72790600D02*
X140671400Y-72816000D01*
X140671400Y-72816000D02*
X140976200Y-72765200D01*
X140976200Y-72765200D02*
X141077800Y-72739800D01*
X141077800Y-72739800D02*
X141128600Y-72663600D01*
X141128600Y-72663600D02*
X141179400Y-72587400D01*
X141179400Y-72587400D02*
X141179400Y-72485800D01*
X141179400Y-72485800D02*
X141128600Y-72384200D01*
X141509600Y-72333400D02*
X140468200Y-72460400D01*
X140544400Y-66161200D02*
X140519000Y-66186600D01*
X140519000Y-66161200D02*
X140544400Y-66161200D01*
X140544400Y-66186600D02*
X140519000Y-66161200D01*
X141204800Y-70860200D02*
X140493600Y-70961800D01*
X141484200Y-70834800D02*
X141458800Y-70809400D01*
X141458800Y-70809400D02*
X141484200Y-70809400D01*
X141484200Y-70809400D02*
X141458800Y-70834800D01*
X141484200Y-71927000D02*
X141458800Y-71952400D01*
X141458800Y-71927000D02*
X141484200Y-71927000D01*
X141484200Y-71952400D02*
X141458800Y-71927000D01*
X140544400Y-73882800D02*
X140519000Y-73908200D01*
X140519000Y-73882800D02*
X140544400Y-73882800D01*
X140544400Y-73908200D02*
X140519000Y-73882800D01*
X141077800Y-73857400D02*
X141052400Y-73832000D01*
X141052400Y-73832000D02*
X141077800Y-73832000D01*
X141077800Y-73832000D02*
X141052400Y-73857400D01*
X141204800Y-71977800D02*
X140493600Y-72079400D01*
X140493600Y-74644800D02*
X140493600Y-74416200D01*
X140493600Y-74416200D02*
X140595200Y-74238400D01*
X140595200Y-74238400D02*
X140950800Y-74187600D01*
X140950800Y-74187600D02*
X141052400Y-74213000D01*
X141052400Y-74213000D02*
X141154000Y-74289200D01*
X141154000Y-74289200D02*
X141179400Y-74390800D01*
X141179400Y-74390800D02*
X141179400Y-74441600D01*
X141179400Y-74441600D02*
X141103200Y-74543200D01*
X141154000Y-74543200D02*
X140138000Y-74695600D01*
X140493600Y-75000400D02*
X140468200Y-74898800D01*
X140544400Y-75051200D02*
X140493600Y-75000400D01*
X140646000Y-75076600D02*
X140544400Y-75051200D01*
X141509600Y-74975000D02*
X140646000Y-75076600D01*
X141179400Y-75178200D02*
X141179400Y-74848000D01*
X141179400Y-75635400D02*
X141179400Y-75305200D01*
X141509600Y-75432200D02*
X140646000Y-75533800D01*
X140646000Y-75533800D02*
X140544400Y-75508400D01*
X140544400Y-75508400D02*
X140493600Y-75457600D01*
X140493600Y-75457600D02*
X140468200Y-75356000D01*
X141077800Y-76219600D02*
X141179400Y-76143400D01*
X141179400Y-76143400D02*
X141154000Y-75991000D01*
X141154000Y-75991000D02*
X141103200Y-75914800D01*
X141103200Y-75914800D02*
X141027000Y-75889400D01*
X141027000Y-75889400D02*
X140468200Y-75965600D01*
X141509600Y-76168800D02*
X140468200Y-76295800D01*
X141535000Y-72943000D02*
X140392000Y-73324000D01*
X141535000Y-73324000D02*
X140392000Y-73705000D01*
X140138000Y-71063400D02*
X140138000Y-64713400D01*
X140138000Y-71952400D02*
X140138000Y-74238400D01*
X140138000Y-76372000D02*
X140138000Y-74975000D01*
X121223800Y-66897800D02*
X121325400Y-66466000D01*
X121325400Y-66466000D02*
X121401600Y-66466000D01*
X121401600Y-66466000D02*
X121528600Y-66491400D01*
X121528600Y-66491400D02*
X121579400Y-66567600D01*
X121579400Y-66567600D02*
X121579400Y-66694600D01*
X121579400Y-66694600D02*
X121528600Y-66796200D01*
X121528600Y-66796200D02*
X121427000Y-66847000D01*
X121427000Y-66847000D02*
X121046000Y-66897800D01*
X121046000Y-66897800D02*
X120944400Y-66872400D01*
X120944400Y-66872400D02*
X120893600Y-66770800D01*
X120893600Y-66770800D02*
X120893600Y-66643800D01*
X120893600Y-66643800D02*
X120969800Y-66567600D01*
X121554000Y-67507400D02*
X120893600Y-67380400D01*
X120893600Y-67380400D02*
X121579400Y-67101000D01*
X120944400Y-64764200D02*
X120893600Y-64840400D01*
X120893600Y-64840400D02*
X120893600Y-65043600D01*
X120893600Y-65043600D02*
X120944400Y-65094400D01*
X120944400Y-65094400D02*
X121020600Y-65119800D01*
X121020600Y-65119800D02*
X121122200Y-65119800D01*
X121122200Y-65119800D02*
X121198400Y-65119800D01*
X121198400Y-65119800D02*
X121249200Y-65043600D01*
X121249200Y-65043600D02*
X121274600Y-64967400D01*
X121274600Y-64967400D02*
X121274600Y-64789600D01*
X121274600Y-64789600D02*
X121325400Y-64738800D01*
X121503200Y-65043600D02*
X121579400Y-64942000D01*
X121579400Y-64942000D02*
X121579400Y-64789600D01*
X121579400Y-64789600D02*
X121528600Y-64713400D01*
X121528600Y-64713400D02*
X121427000Y-64688000D01*
X121427000Y-64688000D02*
X120893600Y-64764200D01*
X121427000Y-67812200D02*
X120893600Y-67888400D01*
X121528600Y-67837600D02*
X121427000Y-67812200D01*
X121579400Y-67913800D02*
X121528600Y-67837600D01*
X121579400Y-68066200D02*
X121579400Y-67913800D01*
X121503200Y-68167800D02*
X121579400Y-68066200D01*
X121274600Y-67913800D02*
X121325400Y-67863000D01*
X121274600Y-68091600D02*
X121274600Y-67913800D01*
X121249200Y-68167800D02*
X121274600Y-68091600D01*
X121198400Y-68244000D02*
X121249200Y-68167800D01*
X121122200Y-68244000D02*
X121198400Y-68244000D01*
X121020600Y-68244000D02*
X121122200Y-68244000D01*
X120944400Y-68218600D02*
X121020600Y-68244000D01*
X120893600Y-68167800D02*
X120944400Y-68218600D01*
X120893600Y-67964600D02*
X120893600Y-68167800D01*
X120944400Y-67888400D02*
X120893600Y-67964600D01*
X120893600Y-65526200D02*
X120944400Y-65450000D01*
X120893600Y-65627800D02*
X120893600Y-65526200D01*
X120919000Y-65704000D02*
X120893600Y-65627800D01*
X120995200Y-65805600D02*
X120919000Y-65704000D01*
X121249200Y-65805600D02*
X120995200Y-65805600D01*
X121376200Y-65805600D02*
X121249200Y-65805600D01*
X121452400Y-65754800D02*
X121376200Y-65805600D01*
X121528600Y-65704000D02*
X121452400Y-65754800D01*
X121579400Y-65602400D02*
X121528600Y-65704000D01*
X121579400Y-65450000D02*
X121579400Y-65602400D01*
X121503200Y-65373800D02*
X121579400Y-65450000D01*
X121503200Y-68498000D02*
X121579400Y-68574200D01*
X121579400Y-68574200D02*
X121579400Y-68726600D01*
X121579400Y-68726600D02*
X121528600Y-68828200D01*
X121528600Y-68828200D02*
X121452400Y-68879000D01*
X121452400Y-68879000D02*
X121376200Y-68929800D01*
X121376200Y-68929800D02*
X121249200Y-68929800D01*
X121249200Y-68929800D02*
X120995200Y-68929800D01*
X120995200Y-68929800D02*
X120919000Y-68828200D01*
X120919000Y-68828200D02*
X120893600Y-68752000D01*
X120893600Y-68752000D02*
X120893600Y-68650400D01*
X120893600Y-68650400D02*
X120944400Y-68574200D01*
X121884200Y-69234600D02*
X121020600Y-69361600D01*
X121020600Y-69361600D02*
X120944400Y-69336200D01*
X120944400Y-69336200D02*
X120868200Y-69234600D01*
X120944400Y-69742600D02*
X120893600Y-69818800D01*
X120893600Y-69818800D02*
X120893600Y-70022000D01*
X120893600Y-70022000D02*
X120944400Y-70072800D01*
X120944400Y-70072800D02*
X121020600Y-70098200D01*
X121020600Y-70098200D02*
X121122200Y-70098200D01*
X121122200Y-70098200D02*
X121198400Y-70098200D01*
X121198400Y-70098200D02*
X121249200Y-70022000D01*
X121249200Y-70022000D02*
X121274600Y-69945800D01*
X121274600Y-69945800D02*
X121274600Y-69768000D01*
X121274600Y-69768000D02*
X121325400Y-69717200D01*
X121503200Y-70022000D02*
X121579400Y-69920400D01*
X121579400Y-69920400D02*
X121579400Y-69768000D01*
X121579400Y-69768000D02*
X121528600Y-69691800D01*
X121528600Y-69691800D02*
X121427000Y-69666400D01*
X121427000Y-69666400D02*
X120893600Y-69742600D01*
X120893600Y-70453800D02*
X120868200Y-70352200D01*
X120944400Y-70504600D02*
X120893600Y-70453800D01*
X121046000Y-70530000D02*
X120944400Y-70504600D01*
X121909600Y-70428400D02*
X121046000Y-70530000D01*
X121579400Y-70631600D02*
X121579400Y-70301400D01*
X121528600Y-71266600D02*
X121579400Y-71342800D01*
X121579400Y-71342800D02*
X121579400Y-71444400D01*
X121579400Y-71444400D02*
X121528600Y-71571400D01*
X121528600Y-71571400D02*
X121452400Y-71622200D01*
X121452400Y-71622200D02*
X121376200Y-71647600D01*
X121376200Y-71647600D02*
X121096800Y-71698400D01*
X121096800Y-71698400D02*
X120944400Y-71647600D01*
X120944400Y-71647600D02*
X120893600Y-71546000D01*
X120893600Y-71546000D02*
X120893600Y-71419000D01*
X120893600Y-71419000D02*
X120969800Y-71342800D01*
X121554000Y-71241200D02*
X120741200Y-71342800D01*
X120741200Y-71342800D02*
X120639600Y-71419000D01*
X120639600Y-71419000D02*
X120614200Y-71444400D01*
X120614200Y-71444400D02*
X120588800Y-71469800D01*
X120588800Y-71469800D02*
X120563400Y-71520600D01*
X120563400Y-71520600D02*
X120563400Y-71622200D01*
X120563400Y-71622200D02*
X120563400Y-71673000D01*
X120563400Y-71673000D02*
X120614200Y-71723800D01*
X120944400Y-72460400D02*
X120893600Y-72511200D01*
X120893600Y-72511200D02*
X120893600Y-72663600D01*
X120893600Y-72663600D02*
X120944400Y-72765200D01*
X120944400Y-72765200D02*
X120995200Y-72790600D01*
X120995200Y-72790600D02*
X121071400Y-72816000D01*
X121071400Y-72816000D02*
X121376200Y-72765200D01*
X121376200Y-72765200D02*
X121477800Y-72739800D01*
X121477800Y-72739800D02*
X121528600Y-72663600D01*
X121528600Y-72663600D02*
X121579400Y-72587400D01*
X121579400Y-72587400D02*
X121579400Y-72485800D01*
X121579400Y-72485800D02*
X121528600Y-72384200D01*
X121909600Y-72333400D02*
X120868200Y-72460400D01*
X120944400Y-66161200D02*
X120919000Y-66186600D01*
X120919000Y-66161200D02*
X120944400Y-66161200D01*
X120944400Y-66186600D02*
X120919000Y-66161200D01*
X121604800Y-70860200D02*
X120893600Y-70961800D01*
X121884200Y-70834800D02*
X121858800Y-70809400D01*
X121858800Y-70809400D02*
X121884200Y-70809400D01*
X121884200Y-70809400D02*
X121858800Y-70834800D01*
X121884200Y-71927000D02*
X121858800Y-71952400D01*
X121858800Y-71927000D02*
X121884200Y-71927000D01*
X121884200Y-71952400D02*
X121858800Y-71927000D01*
X120944400Y-73882800D02*
X120919000Y-73908200D01*
X120919000Y-73882800D02*
X120944400Y-73882800D01*
X120944400Y-73908200D02*
X120919000Y-73882800D01*
X121477800Y-73857400D02*
X121452400Y-73832000D01*
X121452400Y-73832000D02*
X121477800Y-73832000D01*
X121477800Y-73832000D02*
X121452400Y-73857400D01*
X121604800Y-71977800D02*
X120893600Y-72079400D01*
X120893600Y-74644800D02*
X120893600Y-74416200D01*
X120893600Y-74416200D02*
X120995200Y-74238400D01*
X120995200Y-74238400D02*
X121350800Y-74187600D01*
X121350800Y-74187600D02*
X121452400Y-74213000D01*
X121452400Y-74213000D02*
X121554000Y-74289200D01*
X121554000Y-74289200D02*
X121579400Y-74390800D01*
X121579400Y-74390800D02*
X121579400Y-74441600D01*
X121579400Y-74441600D02*
X121503200Y-74543200D01*
X121554000Y-74543200D02*
X120538000Y-74695600D01*
X120893600Y-75000400D02*
X120868200Y-74898800D01*
X120944400Y-75051200D02*
X120893600Y-75000400D01*
X121046000Y-75076600D02*
X120944400Y-75051200D01*
X121909600Y-74975000D02*
X121046000Y-75076600D01*
X121579400Y-75178200D02*
X121579400Y-74848000D01*
X121579400Y-75635400D02*
X121579400Y-75305200D01*
X121909600Y-75432200D02*
X121046000Y-75533800D01*
X121046000Y-75533800D02*
X120944400Y-75508400D01*
X120944400Y-75508400D02*
X120893600Y-75457600D01*
X120893600Y-75457600D02*
X120868200Y-75356000D01*
X121477800Y-76219600D02*
X121579400Y-76143400D01*
X121579400Y-76143400D02*
X121554000Y-75991000D01*
X121554000Y-75991000D02*
X121503200Y-75914800D01*
X121503200Y-75914800D02*
X121427000Y-75889400D01*
X121427000Y-75889400D02*
X120868200Y-75965600D01*
X121909600Y-76168800D02*
X120868200Y-76295800D01*
X121935000Y-72943000D02*
X120792000Y-73324000D01*
X121935000Y-73324000D02*
X120792000Y-73705000D01*
X120538000Y-71063400D02*
X120538000Y-64713400D01*
X120538000Y-71952400D02*
X120538000Y-74238400D01*
X120538000Y-76372000D02*
X120538000Y-74975000D01*
X101623800Y-66897800D02*
X101725400Y-66466000D01*
X101725400Y-66466000D02*
X101801600Y-66466000D01*
X101801600Y-66466000D02*
X101928600Y-66491400D01*
X101928600Y-66491400D02*
X101979400Y-66567600D01*
X101979400Y-66567600D02*
X101979400Y-66694600D01*
X101979400Y-66694600D02*
X101928600Y-66796200D01*
X101928600Y-66796200D02*
X101827000Y-66847000D01*
X101827000Y-66847000D02*
X101446000Y-66897800D01*
X101446000Y-66897800D02*
X101344400Y-66872400D01*
X101344400Y-66872400D02*
X101293600Y-66770800D01*
X101293600Y-66770800D02*
X101293600Y-66643800D01*
X101293600Y-66643800D02*
X101369800Y-66567600D01*
X101954000Y-67507400D02*
X101293600Y-67380400D01*
X101293600Y-67380400D02*
X101979400Y-67101000D01*
X101344400Y-64764200D02*
X101293600Y-64840400D01*
X101293600Y-64840400D02*
X101293600Y-65043600D01*
X101293600Y-65043600D02*
X101344400Y-65094400D01*
X101344400Y-65094400D02*
X101420600Y-65119800D01*
X101420600Y-65119800D02*
X101522200Y-65119800D01*
X101522200Y-65119800D02*
X101598400Y-65119800D01*
X101598400Y-65119800D02*
X101649200Y-65043600D01*
X101649200Y-65043600D02*
X101674600Y-64967400D01*
X101674600Y-64967400D02*
X101674600Y-64789600D01*
X101674600Y-64789600D02*
X101725400Y-64738800D01*
X101903200Y-65043600D02*
X101979400Y-64942000D01*
X101979400Y-64942000D02*
X101979400Y-64789600D01*
X101979400Y-64789600D02*
X101928600Y-64713400D01*
X101928600Y-64713400D02*
X101827000Y-64688000D01*
X101827000Y-64688000D02*
X101293600Y-64764200D01*
X101827000Y-67812200D02*
X101293600Y-67888400D01*
X101928600Y-67837600D02*
X101827000Y-67812200D01*
X101979400Y-67913800D02*
X101928600Y-67837600D01*
X101979400Y-68066200D02*
X101979400Y-67913800D01*
X101903200Y-68167800D02*
X101979400Y-68066200D01*
X101674600Y-67913800D02*
X101725400Y-67863000D01*
X101674600Y-68091600D02*
X101674600Y-67913800D01*
X101649200Y-68167800D02*
X101674600Y-68091600D01*
X101598400Y-68244000D02*
X101649200Y-68167800D01*
X101522200Y-68244000D02*
X101598400Y-68244000D01*
X101420600Y-68244000D02*
X101522200Y-68244000D01*
X101344400Y-68218600D02*
X101420600Y-68244000D01*
X101293600Y-68167800D02*
X101344400Y-68218600D01*
X101293600Y-67964600D02*
X101293600Y-68167800D01*
X101344400Y-67888400D02*
X101293600Y-67964600D01*
X101293600Y-65526200D02*
X101344400Y-65450000D01*
X101293600Y-65627800D02*
X101293600Y-65526200D01*
X101319000Y-65704000D02*
X101293600Y-65627800D01*
X101395200Y-65805600D02*
X101319000Y-65704000D01*
X101649200Y-65805600D02*
X101395200Y-65805600D01*
X101776200Y-65805600D02*
X101649200Y-65805600D01*
X101852400Y-65754800D02*
X101776200Y-65805600D01*
X101928600Y-65704000D02*
X101852400Y-65754800D01*
X101979400Y-65602400D02*
X101928600Y-65704000D01*
X101979400Y-65450000D02*
X101979400Y-65602400D01*
X101903200Y-65373800D02*
X101979400Y-65450000D01*
X101903200Y-68498000D02*
X101979400Y-68574200D01*
X101979400Y-68574200D02*
X101979400Y-68726600D01*
X101979400Y-68726600D02*
X101928600Y-68828200D01*
X101928600Y-68828200D02*
X101852400Y-68879000D01*
X101852400Y-68879000D02*
X101776200Y-68929800D01*
X101776200Y-68929800D02*
X101649200Y-68929800D01*
X101649200Y-68929800D02*
X101395200Y-68929800D01*
X101395200Y-68929800D02*
X101319000Y-68828200D01*
X101319000Y-68828200D02*
X101293600Y-68752000D01*
X101293600Y-68752000D02*
X101293600Y-68650400D01*
X101293600Y-68650400D02*
X101344400Y-68574200D01*
X102284200Y-69234600D02*
X101420600Y-69361600D01*
X101420600Y-69361600D02*
X101344400Y-69336200D01*
X101344400Y-69336200D02*
X101268200Y-69234600D01*
X101344400Y-69742600D02*
X101293600Y-69818800D01*
X101293600Y-69818800D02*
X101293600Y-70022000D01*
X101293600Y-70022000D02*
X101344400Y-70072800D01*
X101344400Y-70072800D02*
X101420600Y-70098200D01*
X101420600Y-70098200D02*
X101522200Y-70098200D01*
X101522200Y-70098200D02*
X101598400Y-70098200D01*
X101598400Y-70098200D02*
X101649200Y-70022000D01*
X101649200Y-70022000D02*
X101674600Y-69945800D01*
X101674600Y-69945800D02*
X101674600Y-69768000D01*
X101674600Y-69768000D02*
X101725400Y-69717200D01*
X101903200Y-70022000D02*
X101979400Y-69920400D01*
X101979400Y-69920400D02*
X101979400Y-69768000D01*
X101979400Y-69768000D02*
X101928600Y-69691800D01*
X101928600Y-69691800D02*
X101827000Y-69666400D01*
X101827000Y-69666400D02*
X101293600Y-69742600D01*
X101293600Y-70453800D02*
X101268200Y-70352200D01*
X101344400Y-70504600D02*
X101293600Y-70453800D01*
X101446000Y-70530000D02*
X101344400Y-70504600D01*
X102309600Y-70428400D02*
X101446000Y-70530000D01*
X101979400Y-70631600D02*
X101979400Y-70301400D01*
X101928600Y-71266600D02*
X101979400Y-71342800D01*
X101979400Y-71342800D02*
X101979400Y-71444400D01*
X101979400Y-71444400D02*
X101928600Y-71571400D01*
X101928600Y-71571400D02*
X101852400Y-71622200D01*
X101852400Y-71622200D02*
X101776200Y-71647600D01*
X101776200Y-71647600D02*
X101496800Y-71698400D01*
X101496800Y-71698400D02*
X101344400Y-71647600D01*
X101344400Y-71647600D02*
X101293600Y-71546000D01*
X101293600Y-71546000D02*
X101293600Y-71419000D01*
X101293600Y-71419000D02*
X101369800Y-71342800D01*
X101954000Y-71241200D02*
X101141200Y-71342800D01*
X101141200Y-71342800D02*
X101039600Y-71419000D01*
X101039600Y-71419000D02*
X101014200Y-71444400D01*
X101014200Y-71444400D02*
X100988800Y-71469800D01*
X100988800Y-71469800D02*
X100963400Y-71520600D01*
X100963400Y-71520600D02*
X100963400Y-71622200D01*
X100963400Y-71622200D02*
X100963400Y-71673000D01*
X100963400Y-71673000D02*
X101014200Y-71723800D01*
X101344400Y-72460400D02*
X101293600Y-72511200D01*
X101293600Y-72511200D02*
X101293600Y-72663600D01*
X101293600Y-72663600D02*
X101344400Y-72765200D01*
X101344400Y-72765200D02*
X101395200Y-72790600D01*
X101395200Y-72790600D02*
X101471400Y-72816000D01*
X101471400Y-72816000D02*
X101776200Y-72765200D01*
X101776200Y-72765200D02*
X101877800Y-72739800D01*
X101877800Y-72739800D02*
X101928600Y-72663600D01*
X101928600Y-72663600D02*
X101979400Y-72587400D01*
X101979400Y-72587400D02*
X101979400Y-72485800D01*
X101979400Y-72485800D02*
X101928600Y-72384200D01*
X102309600Y-72333400D02*
X101268200Y-72460400D01*
X101344400Y-66161200D02*
X101319000Y-66186600D01*
X101319000Y-66161200D02*
X101344400Y-66161200D01*
X101344400Y-66186600D02*
X101319000Y-66161200D01*
X102004800Y-70860200D02*
X101293600Y-70961800D01*
X102284200Y-70834800D02*
X102258800Y-70809400D01*
X102258800Y-70809400D02*
X102284200Y-70809400D01*
X102284200Y-70809400D02*
X102258800Y-70834800D01*
X102284200Y-71927000D02*
X102258800Y-71952400D01*
X102258800Y-71927000D02*
X102284200Y-71927000D01*
X102284200Y-71952400D02*
X102258800Y-71927000D01*
X101344400Y-73882800D02*
X101319000Y-73908200D01*
X101319000Y-73882800D02*
X101344400Y-73882800D01*
X101344400Y-73908200D02*
X101319000Y-73882800D01*
X101877800Y-73857400D02*
X101852400Y-73832000D01*
X101852400Y-73832000D02*
X101877800Y-73832000D01*
X101877800Y-73832000D02*
X101852400Y-73857400D01*
X102004800Y-71977800D02*
X101293600Y-72079400D01*
X101293600Y-74644800D02*
X101293600Y-74416200D01*
X101293600Y-74416200D02*
X101395200Y-74238400D01*
X101395200Y-74238400D02*
X101750800Y-74187600D01*
X101750800Y-74187600D02*
X101852400Y-74213000D01*
X101852400Y-74213000D02*
X101954000Y-74289200D01*
X101954000Y-74289200D02*
X101979400Y-74390800D01*
X101979400Y-74390800D02*
X101979400Y-74441600D01*
X101979400Y-74441600D02*
X101903200Y-74543200D01*
X101954000Y-74543200D02*
X100938000Y-74695600D01*
X101293600Y-75000400D02*
X101268200Y-74898800D01*
X101344400Y-75051200D02*
X101293600Y-75000400D01*
X101446000Y-75076600D02*
X101344400Y-75051200D01*
X102309600Y-74975000D02*
X101446000Y-75076600D01*
X101979400Y-75178200D02*
X101979400Y-74848000D01*
X101979400Y-75635400D02*
X101979400Y-75305200D01*
X102309600Y-75432200D02*
X101446000Y-75533800D01*
X101446000Y-75533800D02*
X101344400Y-75508400D01*
X101344400Y-75508400D02*
X101293600Y-75457600D01*
X101293600Y-75457600D02*
X101268200Y-75356000D01*
X101877800Y-76219600D02*
X101979400Y-76143400D01*
X101979400Y-76143400D02*
X101954000Y-75991000D01*
X101954000Y-75991000D02*
X101903200Y-75914800D01*
X101903200Y-75914800D02*
X101827000Y-75889400D01*
X101827000Y-75889400D02*
X101268200Y-75965600D01*
X102309600Y-76168800D02*
X101268200Y-76295800D01*
X102335000Y-72943000D02*
X101192000Y-73324000D01*
X102335000Y-73324000D02*
X101192000Y-73705000D01*
X100938000Y-71063400D02*
X100938000Y-64713400D01*
X100938000Y-71952400D02*
X100938000Y-74238400D01*
X100938000Y-76372000D02*
X100938000Y-74975000D01*
X82023800Y-66897800D02*
X82125400Y-66466000D01*
X82125400Y-66466000D02*
X82201600Y-66466000D01*
X82201600Y-66466000D02*
X82328600Y-66491400D01*
X82328600Y-66491400D02*
X82379400Y-66567600D01*
X82379400Y-66567600D02*
X82379400Y-66694600D01*
X82379400Y-66694600D02*
X82328600Y-66796200D01*
X82328600Y-66796200D02*
X82227000Y-66847000D01*
X82227000Y-66847000D02*
X81846000Y-66897800D01*
X81846000Y-66897800D02*
X81744400Y-66872400D01*
X81744400Y-66872400D02*
X81693600Y-66770800D01*
X81693600Y-66770800D02*
X81693600Y-66643800D01*
X81693600Y-66643800D02*
X81769800Y-66567600D01*
X82354000Y-67507400D02*
X81693600Y-67380400D01*
X81693600Y-67380400D02*
X82379400Y-67101000D01*
X81744400Y-64764200D02*
X81693600Y-64840400D01*
X81693600Y-64840400D02*
X81693600Y-65043600D01*
X81693600Y-65043600D02*
X81744400Y-65094400D01*
X81744400Y-65094400D02*
X81820600Y-65119800D01*
X81820600Y-65119800D02*
X81922200Y-65119800D01*
X81922200Y-65119800D02*
X81998400Y-65119800D01*
X81998400Y-65119800D02*
X82049200Y-65043600D01*
X82049200Y-65043600D02*
X82074600Y-64967400D01*
X82074600Y-64967400D02*
X82074600Y-64789600D01*
X82074600Y-64789600D02*
X82125400Y-64738800D01*
X82303200Y-65043600D02*
X82379400Y-64942000D01*
X82379400Y-64942000D02*
X82379400Y-64789600D01*
X82379400Y-64789600D02*
X82328600Y-64713400D01*
X82328600Y-64713400D02*
X82227000Y-64688000D01*
X82227000Y-64688000D02*
X81693600Y-64764200D01*
X82227000Y-67812200D02*
X81693600Y-67888400D01*
X82328600Y-67837600D02*
X82227000Y-67812200D01*
X82379400Y-67913800D02*
X82328600Y-67837600D01*
X82379400Y-68066200D02*
X82379400Y-67913800D01*
X82303200Y-68167800D02*
X82379400Y-68066200D01*
X82074600Y-67913800D02*
X82125400Y-67863000D01*
X82074600Y-68091600D02*
X82074600Y-67913800D01*
X82049200Y-68167800D02*
X82074600Y-68091600D01*
X81998400Y-68244000D02*
X82049200Y-68167800D01*
X81922200Y-68244000D02*
X81998400Y-68244000D01*
X81820600Y-68244000D02*
X81922200Y-68244000D01*
X81744400Y-68218600D02*
X81820600Y-68244000D01*
X81693600Y-68167800D02*
X81744400Y-68218600D01*
X81693600Y-67964600D02*
X81693600Y-68167800D01*
X81744400Y-67888400D02*
X81693600Y-67964600D01*
X81693600Y-65526200D02*
X81744400Y-65450000D01*
X81693600Y-65627800D02*
X81693600Y-65526200D01*
X81719000Y-65704000D02*
X81693600Y-65627800D01*
X81795200Y-65805600D02*
X81719000Y-65704000D01*
X82049200Y-65805600D02*
X81795200Y-65805600D01*
X82176200Y-65805600D02*
X82049200Y-65805600D01*
X82252400Y-65754800D02*
X82176200Y-65805600D01*
X82328600Y-65704000D02*
X82252400Y-65754800D01*
X82379400Y-65602400D02*
X82328600Y-65704000D01*
X82379400Y-65450000D02*
X82379400Y-65602400D01*
X82303200Y-65373800D02*
X82379400Y-65450000D01*
X82303200Y-68498000D02*
X82379400Y-68574200D01*
X82379400Y-68574200D02*
X82379400Y-68726600D01*
X82379400Y-68726600D02*
X82328600Y-68828200D01*
X82328600Y-68828200D02*
X82252400Y-68879000D01*
X82252400Y-68879000D02*
X82176200Y-68929800D01*
X82176200Y-68929800D02*
X82049200Y-68929800D01*
X82049200Y-68929800D02*
X81795200Y-68929800D01*
X81795200Y-68929800D02*
X81719000Y-68828200D01*
X81719000Y-68828200D02*
X81693600Y-68752000D01*
X81693600Y-68752000D02*
X81693600Y-68650400D01*
X81693600Y-68650400D02*
X81744400Y-68574200D01*
X82684200Y-69234600D02*
X81820600Y-69361600D01*
X81820600Y-69361600D02*
X81744400Y-69336200D01*
X81744400Y-69336200D02*
X81668200Y-69234600D01*
X81744400Y-69742600D02*
X81693600Y-69818800D01*
X81693600Y-69818800D02*
X81693600Y-70022000D01*
X81693600Y-70022000D02*
X81744400Y-70072800D01*
X81744400Y-70072800D02*
X81820600Y-70098200D01*
X81820600Y-70098200D02*
X81922200Y-70098200D01*
X81922200Y-70098200D02*
X81998400Y-70098200D01*
X81998400Y-70098200D02*
X82049200Y-70022000D01*
X82049200Y-70022000D02*
X82074600Y-69945800D01*
X82074600Y-69945800D02*
X82074600Y-69768000D01*
X82074600Y-69768000D02*
X82125400Y-69717200D01*
X82303200Y-70022000D02*
X82379400Y-69920400D01*
X82379400Y-69920400D02*
X82379400Y-69768000D01*
X82379400Y-69768000D02*
X82328600Y-69691800D01*
X82328600Y-69691800D02*
X82227000Y-69666400D01*
X82227000Y-69666400D02*
X81693600Y-69742600D01*
X81693600Y-70453800D02*
X81668200Y-70352200D01*
X81744400Y-70504600D02*
X81693600Y-70453800D01*
X81846000Y-70530000D02*
X81744400Y-70504600D01*
X82709600Y-70428400D02*
X81846000Y-70530000D01*
X82379400Y-70631600D02*
X82379400Y-70301400D01*
X82328600Y-71266600D02*
X82379400Y-71342800D01*
X82379400Y-71342800D02*
X82379400Y-71444400D01*
X82379400Y-71444400D02*
X82328600Y-71571400D01*
X82328600Y-71571400D02*
X82252400Y-71622200D01*
X82252400Y-71622200D02*
X82176200Y-71647600D01*
X82176200Y-71647600D02*
X81896800Y-71698400D01*
X81896800Y-71698400D02*
X81744400Y-71647600D01*
X81744400Y-71647600D02*
X81693600Y-71546000D01*
X81693600Y-71546000D02*
X81693600Y-71419000D01*
X81693600Y-71419000D02*
X81769800Y-71342800D01*
X82354000Y-71241200D02*
X81541200Y-71342800D01*
X81541200Y-71342800D02*
X81439600Y-71419000D01*
X81439600Y-71419000D02*
X81414200Y-71444400D01*
X81414200Y-71444400D02*
X81388800Y-71469800D01*
X81388800Y-71469800D02*
X81363400Y-71520600D01*
X81363400Y-71520600D02*
X81363400Y-71622200D01*
X81363400Y-71622200D02*
X81363400Y-71673000D01*
X81363400Y-71673000D02*
X81414200Y-71723800D01*
X81744400Y-72460400D02*
X81693600Y-72511200D01*
X81693600Y-72511200D02*
X81693600Y-72663600D01*
X81693600Y-72663600D02*
X81744400Y-72765200D01*
X81744400Y-72765200D02*
X81795200Y-72790600D01*
X81795200Y-72790600D02*
X81871400Y-72816000D01*
X81871400Y-72816000D02*
X82176200Y-72765200D01*
X82176200Y-72765200D02*
X82277800Y-72739800D01*
X82277800Y-72739800D02*
X82328600Y-72663600D01*
X82328600Y-72663600D02*
X82379400Y-72587400D01*
X82379400Y-72587400D02*
X82379400Y-72485800D01*
X82379400Y-72485800D02*
X82328600Y-72384200D01*
X82709600Y-72333400D02*
X81668200Y-72460400D01*
X81744400Y-66161200D02*
X81719000Y-66186600D01*
X81719000Y-66161200D02*
X81744400Y-66161200D01*
X81744400Y-66186600D02*
X81719000Y-66161200D01*
X82404800Y-70860200D02*
X81693600Y-70961800D01*
X82684200Y-70834800D02*
X82658800Y-70809400D01*
X82658800Y-70809400D02*
X82684200Y-70809400D01*
X82684200Y-70809400D02*
X82658800Y-70834800D01*
X82684200Y-71927000D02*
X82658800Y-71952400D01*
X82658800Y-71927000D02*
X82684200Y-71927000D01*
X82684200Y-71952400D02*
X82658800Y-71927000D01*
X81744400Y-73882800D02*
X81719000Y-73908200D01*
X81719000Y-73882800D02*
X81744400Y-73882800D01*
X81744400Y-73908200D02*
X81719000Y-73882800D01*
X82277800Y-73857400D02*
X82252400Y-73832000D01*
X82252400Y-73832000D02*
X82277800Y-73832000D01*
X82277800Y-73832000D02*
X82252400Y-73857400D01*
X82404800Y-71977800D02*
X81693600Y-72079400D01*
X81693600Y-74644800D02*
X81693600Y-74416200D01*
X81693600Y-74416200D02*
X81795200Y-74238400D01*
X81795200Y-74238400D02*
X82150800Y-74187600D01*
X82150800Y-74187600D02*
X82252400Y-74213000D01*
X82252400Y-74213000D02*
X82354000Y-74289200D01*
X82354000Y-74289200D02*
X82379400Y-74390800D01*
X82379400Y-74390800D02*
X82379400Y-74441600D01*
X82379400Y-74441600D02*
X82303200Y-74543200D01*
X82354000Y-74543200D02*
X81338000Y-74695600D01*
X81693600Y-75000400D02*
X81668200Y-74898800D01*
X81744400Y-75051200D02*
X81693600Y-75000400D01*
X81846000Y-75076600D02*
X81744400Y-75051200D01*
X82709600Y-74975000D02*
X81846000Y-75076600D01*
X82379400Y-75178200D02*
X82379400Y-74848000D01*
X82379400Y-75635400D02*
X82379400Y-75305200D01*
X82709600Y-75432200D02*
X81846000Y-75533800D01*
X81846000Y-75533800D02*
X81744400Y-75508400D01*
X81744400Y-75508400D02*
X81693600Y-75457600D01*
X81693600Y-75457600D02*
X81668200Y-75356000D01*
X82277800Y-76219600D02*
X82379400Y-76143400D01*
X82379400Y-76143400D02*
X82354000Y-75991000D01*
X82354000Y-75991000D02*
X82303200Y-75914800D01*
X82303200Y-75914800D02*
X82227000Y-75889400D01*
X82227000Y-75889400D02*
X81668200Y-75965600D01*
X82709600Y-76168800D02*
X81668200Y-76295800D01*
X82735000Y-72943000D02*
X81592000Y-73324000D01*
X82735000Y-73324000D02*
X81592000Y-73705000D01*
X81338000Y-71063400D02*
X81338000Y-64713400D01*
X81338000Y-71952400D02*
X81338000Y-74238400D01*
X81338000Y-76372000D02*
X81338000Y-74975000D01*
X142895000Y-69260000D02*
X142895000Y-68752000D01*
X142895000Y-68752000D02*
X142387000Y-68752000D01*
X142387000Y-68752000D02*
X142387000Y-69260000D01*
X142387000Y-69260000D02*
X142895000Y-69260000D01*
X142895000Y-70022000D02*
X142895000Y-69514000D01*
X142895000Y-69514000D02*
X142387000Y-69514000D01*
X142387000Y-69514000D02*
X142387000Y-70022000D01*
X142387000Y-70022000D02*
X142895000Y-70022000D01*
X142895000Y-70784000D02*
X142895000Y-70276000D01*
X142895000Y-70276000D02*
X142387000Y-70276000D01*
X142387000Y-70276000D02*
X142387000Y-70784000D01*
X142387000Y-70784000D02*
X142895000Y-70784000D01*
X142895000Y-71546000D02*
X142895000Y-71038000D01*
X142895000Y-71038000D02*
X142387000Y-71038000D01*
X142387000Y-71038000D02*
X142387000Y-71546000D01*
X142387000Y-71546000D02*
X142895000Y-71546000D01*
X142895000Y-72308000D02*
X142895000Y-71800000D01*
X142895000Y-71800000D02*
X142387000Y-71800000D01*
X142387000Y-71800000D02*
X142387000Y-72308000D01*
X142387000Y-72308000D02*
X142895000Y-72308000D01*
X143530000Y-72943000D02*
X143530000Y-72435000D01*
X143530000Y-72435000D02*
X143022000Y-72435000D01*
X143022000Y-72435000D02*
X143022000Y-72943000D01*
X143022000Y-72943000D02*
X143530000Y-72943000D01*
X144292000Y-72435000D02*
X143784000Y-72435000D01*
X143784000Y-72435000D02*
X143784000Y-72943000D01*
X143784000Y-72943000D02*
X144292000Y-72943000D01*
X144292000Y-72943000D02*
X144292000Y-72435000D01*
X145054000Y-72435000D02*
X144546000Y-72435000D01*
X144546000Y-72435000D02*
X144546000Y-72943000D01*
X144546000Y-72943000D02*
X145054000Y-72943000D01*
X145054000Y-72943000D02*
X145054000Y-72435000D01*
X145689000Y-71800000D02*
X145181000Y-71800000D01*
X145181000Y-71800000D02*
X145181000Y-72308000D01*
X145181000Y-72308000D02*
X145689000Y-72308000D01*
X145689000Y-72308000D02*
X145689000Y-71800000D01*
X145181000Y-71038000D02*
X145689000Y-71038000D01*
X145689000Y-71038000D02*
X145689000Y-71546000D01*
X145689000Y-71546000D02*
X145181000Y-71546000D01*
X145181000Y-71546000D02*
X145181000Y-71038000D01*
X145689000Y-70276000D02*
X145181000Y-70276000D01*
X145181000Y-70276000D02*
X145181000Y-70784000D01*
X145181000Y-70784000D02*
X145689000Y-70784000D01*
X145689000Y-70784000D02*
X145689000Y-70276000D01*
X145181000Y-69514000D02*
X145689000Y-69514000D01*
X145689000Y-69514000D02*
X145689000Y-70022000D01*
X145689000Y-70022000D02*
X145181000Y-70022000D01*
X145181000Y-70022000D02*
X145181000Y-69514000D01*
X143784000Y-71038000D02*
X144292000Y-71038000D01*
X144292000Y-71038000D02*
X144292000Y-71546000D01*
X144292000Y-71546000D02*
X143784000Y-71546000D01*
X143784000Y-71546000D02*
X143784000Y-71038000D01*
X143784000Y-70276000D02*
X143784000Y-70784000D01*
X143784000Y-70784000D02*
X144292000Y-70784000D01*
X143784000Y-70276000D02*
X144292000Y-70276000D01*
X144292000Y-70276000D02*
X144292000Y-70784000D01*
X144292000Y-69514000D02*
X143784000Y-69514000D01*
X143784000Y-69514000D02*
X143784000Y-70022000D01*
X143784000Y-70022000D02*
X144292000Y-70022000D01*
X144292000Y-70022000D02*
X144292000Y-69514000D01*
X144292000Y-68752000D02*
X143784000Y-68752000D01*
X143784000Y-68752000D02*
X143784000Y-69260000D01*
X143784000Y-69260000D02*
X144292000Y-69260000D01*
X144292000Y-69260000D02*
X144292000Y-68752000D01*
X144927000Y-68625000D02*
X144927000Y-68117000D01*
X144927000Y-68117000D02*
X144419000Y-68117000D01*
X144419000Y-68117000D02*
X144419000Y-68625000D01*
X144419000Y-68625000D02*
X144927000Y-68625000D01*
X145689000Y-68625000D02*
X145689000Y-68117000D01*
X145689000Y-68117000D02*
X145181000Y-68117000D01*
X145181000Y-68117000D02*
X145181000Y-68625000D01*
X145181000Y-68625000D02*
X145689000Y-68625000D01*
X146451000Y-68625000D02*
X146451000Y-68117000D01*
X146451000Y-68117000D02*
X145943000Y-68117000D01*
X145943000Y-68117000D02*
X145943000Y-68625000D01*
X145943000Y-68625000D02*
X146451000Y-68625000D01*
X147086000Y-69260000D02*
X146578000Y-69260000D01*
X146578000Y-69260000D02*
X146578000Y-68752000D01*
X146578000Y-68752000D02*
X147086000Y-68752000D01*
X147086000Y-68752000D02*
X147086000Y-69260000D01*
X147086000Y-70022000D02*
X146578000Y-70022000D01*
X146578000Y-70022000D02*
X146578000Y-69514000D01*
X146578000Y-69514000D02*
X147086000Y-69514000D01*
X147086000Y-69514000D02*
X147086000Y-70022000D01*
X147086000Y-70784000D02*
X146578000Y-70784000D01*
X146578000Y-70784000D02*
X146578000Y-70276000D01*
X146578000Y-70276000D02*
X147086000Y-70276000D01*
X147086000Y-70276000D02*
X147086000Y-70784000D01*
X147086000Y-71546000D02*
X146578000Y-71546000D01*
X146578000Y-71546000D02*
X146578000Y-71038000D01*
X146578000Y-71038000D02*
X147086000Y-71038000D01*
X147086000Y-71038000D02*
X147086000Y-71546000D01*
X147086000Y-72308000D02*
X146578000Y-72308000D01*
X146578000Y-72308000D02*
X146578000Y-71800000D01*
X146578000Y-71800000D02*
X147086000Y-71800000D01*
X147086000Y-71800000D02*
X147086000Y-72308000D01*
X123295000Y-69260000D02*
X123295000Y-68752000D01*
X123295000Y-68752000D02*
X122787000Y-68752000D01*
X122787000Y-68752000D02*
X122787000Y-69260000D01*
X122787000Y-69260000D02*
X123295000Y-69260000D01*
X123295000Y-70022000D02*
X123295000Y-69514000D01*
X123295000Y-69514000D02*
X122787000Y-69514000D01*
X122787000Y-69514000D02*
X122787000Y-70022000D01*
X122787000Y-70022000D02*
X123295000Y-70022000D01*
X123295000Y-70784000D02*
X123295000Y-70276000D01*
X123295000Y-70276000D02*
X122787000Y-70276000D01*
X122787000Y-70276000D02*
X122787000Y-70784000D01*
X122787000Y-70784000D02*
X123295000Y-70784000D01*
X123295000Y-71546000D02*
X123295000Y-71038000D01*
X123295000Y-71038000D02*
X122787000Y-71038000D01*
X122787000Y-71038000D02*
X122787000Y-71546000D01*
X122787000Y-71546000D02*
X123295000Y-71546000D01*
X123295000Y-72308000D02*
X123295000Y-71800000D01*
X123295000Y-71800000D02*
X122787000Y-71800000D01*
X122787000Y-71800000D02*
X122787000Y-72308000D01*
X122787000Y-72308000D02*
X123295000Y-72308000D01*
X123930000Y-72943000D02*
X123930000Y-72435000D01*
X123930000Y-72435000D02*
X123422000Y-72435000D01*
X123422000Y-72435000D02*
X123422000Y-72943000D01*
X123422000Y-72943000D02*
X123930000Y-72943000D01*
X124692000Y-72435000D02*
X124184000Y-72435000D01*
X124184000Y-72435000D02*
X124184000Y-72943000D01*
X124184000Y-72943000D02*
X124692000Y-72943000D01*
X124692000Y-72943000D02*
X124692000Y-72435000D01*
X125454000Y-72435000D02*
X124946000Y-72435000D01*
X124946000Y-72435000D02*
X124946000Y-72943000D01*
X124946000Y-72943000D02*
X125454000Y-72943000D01*
X125454000Y-72943000D02*
X125454000Y-72435000D01*
X126089000Y-71800000D02*
X125581000Y-71800000D01*
X125581000Y-71800000D02*
X125581000Y-72308000D01*
X125581000Y-72308000D02*
X126089000Y-72308000D01*
X126089000Y-72308000D02*
X126089000Y-71800000D01*
X125581000Y-71038000D02*
X126089000Y-71038000D01*
X126089000Y-71038000D02*
X126089000Y-71546000D01*
X126089000Y-71546000D02*
X125581000Y-71546000D01*
X125581000Y-71546000D02*
X125581000Y-71038000D01*
X126089000Y-70276000D02*
X125581000Y-70276000D01*
X125581000Y-70276000D02*
X125581000Y-70784000D01*
X125581000Y-70784000D02*
X126089000Y-70784000D01*
X126089000Y-70784000D02*
X126089000Y-70276000D01*
X125581000Y-69514000D02*
X126089000Y-69514000D01*
X126089000Y-69514000D02*
X126089000Y-70022000D01*
X126089000Y-70022000D02*
X125581000Y-70022000D01*
X125581000Y-70022000D02*
X125581000Y-69514000D01*
X124184000Y-71038000D02*
X124692000Y-71038000D01*
X124692000Y-71038000D02*
X124692000Y-71546000D01*
X124692000Y-71546000D02*
X124184000Y-71546000D01*
X124184000Y-71546000D02*
X124184000Y-71038000D01*
X124184000Y-70276000D02*
X124184000Y-70784000D01*
X124184000Y-70784000D02*
X124692000Y-70784000D01*
X124184000Y-70276000D02*
X124692000Y-70276000D01*
X124692000Y-70276000D02*
X124692000Y-70784000D01*
X124692000Y-69514000D02*
X124184000Y-69514000D01*
X124184000Y-69514000D02*
X124184000Y-70022000D01*
X124184000Y-70022000D02*
X124692000Y-70022000D01*
X124692000Y-70022000D02*
X124692000Y-69514000D01*
X124692000Y-68752000D02*
X124184000Y-68752000D01*
X124184000Y-68752000D02*
X124184000Y-69260000D01*
X124184000Y-69260000D02*
X124692000Y-69260000D01*
X124692000Y-69260000D02*
X124692000Y-68752000D01*
X125327000Y-68625000D02*
X125327000Y-68117000D01*
X125327000Y-68117000D02*
X124819000Y-68117000D01*
X124819000Y-68117000D02*
X124819000Y-68625000D01*
X124819000Y-68625000D02*
X125327000Y-68625000D01*
X126089000Y-68625000D02*
X126089000Y-68117000D01*
X126089000Y-68117000D02*
X125581000Y-68117000D01*
X125581000Y-68117000D02*
X125581000Y-68625000D01*
X125581000Y-68625000D02*
X126089000Y-68625000D01*
X126851000Y-68625000D02*
X126851000Y-68117000D01*
X126851000Y-68117000D02*
X126343000Y-68117000D01*
X126343000Y-68117000D02*
X126343000Y-68625000D01*
X126343000Y-68625000D02*
X126851000Y-68625000D01*
X127486000Y-69260000D02*
X126978000Y-69260000D01*
X126978000Y-69260000D02*
X126978000Y-68752000D01*
X126978000Y-68752000D02*
X127486000Y-68752000D01*
X127486000Y-68752000D02*
X127486000Y-69260000D01*
X127486000Y-70022000D02*
X126978000Y-70022000D01*
X126978000Y-70022000D02*
X126978000Y-69514000D01*
X126978000Y-69514000D02*
X127486000Y-69514000D01*
X127486000Y-69514000D02*
X127486000Y-70022000D01*
X127486000Y-70784000D02*
X126978000Y-70784000D01*
X126978000Y-70784000D02*
X126978000Y-70276000D01*
X126978000Y-70276000D02*
X127486000Y-70276000D01*
X127486000Y-70276000D02*
X127486000Y-70784000D01*
X127486000Y-71546000D02*
X126978000Y-71546000D01*
X126978000Y-71546000D02*
X126978000Y-71038000D01*
X126978000Y-71038000D02*
X127486000Y-71038000D01*
X127486000Y-71038000D02*
X127486000Y-71546000D01*
X127486000Y-72308000D02*
X126978000Y-72308000D01*
X126978000Y-72308000D02*
X126978000Y-71800000D01*
X126978000Y-71800000D02*
X127486000Y-71800000D01*
X127486000Y-71800000D02*
X127486000Y-72308000D01*
X103695000Y-69260000D02*
X103695000Y-68752000D01*
X103695000Y-68752000D02*
X103187000Y-68752000D01*
X103187000Y-68752000D02*
X103187000Y-69260000D01*
X103187000Y-69260000D02*
X103695000Y-69260000D01*
X103695000Y-70022000D02*
X103695000Y-69514000D01*
X103695000Y-69514000D02*
X103187000Y-69514000D01*
X103187000Y-69514000D02*
X103187000Y-70022000D01*
X103187000Y-70022000D02*
X103695000Y-70022000D01*
X103695000Y-70784000D02*
X103695000Y-70276000D01*
X103695000Y-70276000D02*
X103187000Y-70276000D01*
X103187000Y-70276000D02*
X103187000Y-70784000D01*
X103187000Y-70784000D02*
X103695000Y-70784000D01*
X103695000Y-71546000D02*
X103695000Y-71038000D01*
X103695000Y-71038000D02*
X103187000Y-71038000D01*
X103187000Y-71038000D02*
X103187000Y-71546000D01*
X103187000Y-71546000D02*
X103695000Y-71546000D01*
X103695000Y-72308000D02*
X103695000Y-71800000D01*
X103695000Y-71800000D02*
X103187000Y-71800000D01*
X103187000Y-71800000D02*
X103187000Y-72308000D01*
X103187000Y-72308000D02*
X103695000Y-72308000D01*
X104330000Y-72943000D02*
X104330000Y-72435000D01*
X104330000Y-72435000D02*
X103822000Y-72435000D01*
X103822000Y-72435000D02*
X103822000Y-72943000D01*
X103822000Y-72943000D02*
X104330000Y-72943000D01*
X105092000Y-72435000D02*
X104584000Y-72435000D01*
X104584000Y-72435000D02*
X104584000Y-72943000D01*
X104584000Y-72943000D02*
X105092000Y-72943000D01*
X105092000Y-72943000D02*
X105092000Y-72435000D01*
X105854000Y-72435000D02*
X105346000Y-72435000D01*
X105346000Y-72435000D02*
X105346000Y-72943000D01*
X105346000Y-72943000D02*
X105854000Y-72943000D01*
X105854000Y-72943000D02*
X105854000Y-72435000D01*
X106489000Y-71800000D02*
X105981000Y-71800000D01*
X105981000Y-71800000D02*
X105981000Y-72308000D01*
X105981000Y-72308000D02*
X106489000Y-72308000D01*
X106489000Y-72308000D02*
X106489000Y-71800000D01*
X105981000Y-71038000D02*
X106489000Y-71038000D01*
X106489000Y-71038000D02*
X106489000Y-71546000D01*
X106489000Y-71546000D02*
X105981000Y-71546000D01*
X105981000Y-71546000D02*
X105981000Y-71038000D01*
X106489000Y-70276000D02*
X105981000Y-70276000D01*
X105981000Y-70276000D02*
X105981000Y-70784000D01*
X105981000Y-70784000D02*
X106489000Y-70784000D01*
X106489000Y-70784000D02*
X106489000Y-70276000D01*
X105981000Y-69514000D02*
X106489000Y-69514000D01*
X106489000Y-69514000D02*
X106489000Y-70022000D01*
X106489000Y-70022000D02*
X105981000Y-70022000D01*
X105981000Y-70022000D02*
X105981000Y-69514000D01*
X104584000Y-71038000D02*
X105092000Y-71038000D01*
X105092000Y-71038000D02*
X105092000Y-71546000D01*
X105092000Y-71546000D02*
X104584000Y-71546000D01*
X104584000Y-71546000D02*
X104584000Y-71038000D01*
X104584000Y-70276000D02*
X104584000Y-70784000D01*
X104584000Y-70784000D02*
X105092000Y-70784000D01*
X104584000Y-70276000D02*
X105092000Y-70276000D01*
X105092000Y-70276000D02*
X105092000Y-70784000D01*
X105092000Y-69514000D02*
X104584000Y-69514000D01*
X104584000Y-69514000D02*
X104584000Y-70022000D01*
X104584000Y-70022000D02*
X105092000Y-70022000D01*
X105092000Y-70022000D02*
X105092000Y-69514000D01*
X105092000Y-68752000D02*
X104584000Y-68752000D01*
X104584000Y-68752000D02*
X104584000Y-69260000D01*
X104584000Y-69260000D02*
X105092000Y-69260000D01*
X105092000Y-69260000D02*
X105092000Y-68752000D01*
X105727000Y-68625000D02*
X105727000Y-68117000D01*
X105727000Y-68117000D02*
X105219000Y-68117000D01*
X105219000Y-68117000D02*
X105219000Y-68625000D01*
X105219000Y-68625000D02*
X105727000Y-68625000D01*
X106489000Y-68625000D02*
X106489000Y-68117000D01*
X106489000Y-68117000D02*
X105981000Y-68117000D01*
X105981000Y-68117000D02*
X105981000Y-68625000D01*
X105981000Y-68625000D02*
X106489000Y-68625000D01*
X107251000Y-68625000D02*
X107251000Y-68117000D01*
X107251000Y-68117000D02*
X106743000Y-68117000D01*
X106743000Y-68117000D02*
X106743000Y-68625000D01*
X106743000Y-68625000D02*
X107251000Y-68625000D01*
X107886000Y-69260000D02*
X107378000Y-69260000D01*
X107378000Y-69260000D02*
X107378000Y-68752000D01*
X107378000Y-68752000D02*
X107886000Y-68752000D01*
X107886000Y-68752000D02*
X107886000Y-69260000D01*
X107886000Y-70022000D02*
X107378000Y-70022000D01*
X107378000Y-70022000D02*
X107378000Y-69514000D01*
X107378000Y-69514000D02*
X107886000Y-69514000D01*
X107886000Y-69514000D02*
X107886000Y-70022000D01*
X107886000Y-70784000D02*
X107378000Y-70784000D01*
X107378000Y-70784000D02*
X107378000Y-70276000D01*
X107378000Y-70276000D02*
X107886000Y-70276000D01*
X107886000Y-70276000D02*
X107886000Y-70784000D01*
X107886000Y-71546000D02*
X107378000Y-71546000D01*
X107378000Y-71546000D02*
X107378000Y-71038000D01*
X107378000Y-71038000D02*
X107886000Y-71038000D01*
X107886000Y-71038000D02*
X107886000Y-71546000D01*
X107886000Y-72308000D02*
X107378000Y-72308000D01*
X107378000Y-72308000D02*
X107378000Y-71800000D01*
X107378000Y-71800000D02*
X107886000Y-71800000D01*
X107886000Y-71800000D02*
X107886000Y-72308000D01*
X84095000Y-69260000D02*
X84095000Y-68752000D01*
X84095000Y-68752000D02*
X83587000Y-68752000D01*
X83587000Y-68752000D02*
X83587000Y-69260000D01*
X83587000Y-69260000D02*
X84095000Y-69260000D01*
X84095000Y-70022000D02*
X84095000Y-69514000D01*
X84095000Y-69514000D02*
X83587000Y-69514000D01*
X83587000Y-69514000D02*
X83587000Y-70022000D01*
X83587000Y-70022000D02*
X84095000Y-70022000D01*
X84095000Y-70784000D02*
X84095000Y-70276000D01*
X84095000Y-70276000D02*
X83587000Y-70276000D01*
X83587000Y-70276000D02*
X83587000Y-70784000D01*
X83587000Y-70784000D02*
X84095000Y-70784000D01*
X84095000Y-71546000D02*
X84095000Y-71038000D01*
X84095000Y-71038000D02*
X83587000Y-71038000D01*
X83587000Y-71038000D02*
X83587000Y-71546000D01*
X83587000Y-71546000D02*
X84095000Y-71546000D01*
X84095000Y-72308000D02*
X84095000Y-71800000D01*
X84095000Y-71800000D02*
X83587000Y-71800000D01*
X83587000Y-71800000D02*
X83587000Y-72308000D01*
X83587000Y-72308000D02*
X84095000Y-72308000D01*
X84730000Y-72943000D02*
X84730000Y-72435000D01*
X84730000Y-72435000D02*
X84222000Y-72435000D01*
X84222000Y-72435000D02*
X84222000Y-72943000D01*
X84222000Y-72943000D02*
X84730000Y-72943000D01*
X85492000Y-72435000D02*
X84984000Y-72435000D01*
X84984000Y-72435000D02*
X84984000Y-72943000D01*
X84984000Y-72943000D02*
X85492000Y-72943000D01*
X85492000Y-72943000D02*
X85492000Y-72435000D01*
X86254000Y-72435000D02*
X85746000Y-72435000D01*
X85746000Y-72435000D02*
X85746000Y-72943000D01*
X85746000Y-72943000D02*
X86254000Y-72943000D01*
X86254000Y-72943000D02*
X86254000Y-72435000D01*
X86889000Y-71800000D02*
X86381000Y-71800000D01*
X86381000Y-71800000D02*
X86381000Y-72308000D01*
X86381000Y-72308000D02*
X86889000Y-72308000D01*
X86889000Y-72308000D02*
X86889000Y-71800000D01*
X86381000Y-71038000D02*
X86889000Y-71038000D01*
X86889000Y-71038000D02*
X86889000Y-71546000D01*
X86889000Y-71546000D02*
X86381000Y-71546000D01*
X86381000Y-71546000D02*
X86381000Y-71038000D01*
X86889000Y-70276000D02*
X86381000Y-70276000D01*
X86381000Y-70276000D02*
X86381000Y-70784000D01*
X86381000Y-70784000D02*
X86889000Y-70784000D01*
X86889000Y-70784000D02*
X86889000Y-70276000D01*
X86381000Y-69514000D02*
X86889000Y-69514000D01*
X86889000Y-69514000D02*
X86889000Y-70022000D01*
X86889000Y-70022000D02*
X86381000Y-70022000D01*
X86381000Y-70022000D02*
X86381000Y-69514000D01*
X84984000Y-71038000D02*
X85492000Y-71038000D01*
X85492000Y-71038000D02*
X85492000Y-71546000D01*
X85492000Y-71546000D02*
X84984000Y-71546000D01*
X84984000Y-71546000D02*
X84984000Y-71038000D01*
X84984000Y-70276000D02*
X84984000Y-70784000D01*
X84984000Y-70784000D02*
X85492000Y-70784000D01*
X84984000Y-70276000D02*
X85492000Y-70276000D01*
X85492000Y-70276000D02*
X85492000Y-70784000D01*
X85492000Y-69514000D02*
X84984000Y-69514000D01*
X84984000Y-69514000D02*
X84984000Y-70022000D01*
X84984000Y-70022000D02*
X85492000Y-70022000D01*
X85492000Y-70022000D02*
X85492000Y-69514000D01*
X85492000Y-68752000D02*
X84984000Y-68752000D01*
X84984000Y-68752000D02*
X84984000Y-69260000D01*
X84984000Y-69260000D02*
X85492000Y-69260000D01*
X85492000Y-69260000D02*
X85492000Y-68752000D01*
X86127000Y-68625000D02*
X86127000Y-68117000D01*
X86127000Y-68117000D02*
X85619000Y-68117000D01*
X85619000Y-68117000D02*
X85619000Y-68625000D01*
X85619000Y-68625000D02*
X86127000Y-68625000D01*
X86889000Y-68625000D02*
X86889000Y-68117000D01*
X86889000Y-68117000D02*
X86381000Y-68117000D01*
X86381000Y-68117000D02*
X86381000Y-68625000D01*
X86381000Y-68625000D02*
X86889000Y-68625000D01*
X87651000Y-68625000D02*
X87651000Y-68117000D01*
X87651000Y-68117000D02*
X87143000Y-68117000D01*
X87143000Y-68117000D02*
X87143000Y-68625000D01*
X87143000Y-68625000D02*
X87651000Y-68625000D01*
X88286000Y-69260000D02*
X87778000Y-69260000D01*
X87778000Y-69260000D02*
X87778000Y-68752000D01*
X87778000Y-68752000D02*
X88286000Y-68752000D01*
X88286000Y-68752000D02*
X88286000Y-69260000D01*
X88286000Y-70022000D02*
X87778000Y-70022000D01*
X87778000Y-70022000D02*
X87778000Y-69514000D01*
X87778000Y-69514000D02*
X88286000Y-69514000D01*
X88286000Y-69514000D02*
X88286000Y-70022000D01*
X88286000Y-70784000D02*
X87778000Y-70784000D01*
X87778000Y-70784000D02*
X87778000Y-70276000D01*
X87778000Y-70276000D02*
X88286000Y-70276000D01*
X88286000Y-70276000D02*
X88286000Y-70784000D01*
X88286000Y-71546000D02*
X87778000Y-71546000D01*
X87778000Y-71546000D02*
X87778000Y-71038000D01*
X87778000Y-71038000D02*
X88286000Y-71038000D01*
X88286000Y-71038000D02*
X88286000Y-71546000D01*
X88286000Y-72308000D02*
X87778000Y-72308000D01*
X87778000Y-72308000D02*
X87778000Y-71800000D01*
X87778000Y-71800000D02*
X88286000Y-71800000D01*
X88286000Y-71800000D02*
X88286000Y-72308000D01*
X64495000Y-69260000D02*
X64495000Y-68752000D01*
X64495000Y-68752000D02*
X63987000Y-68752000D01*
X63987000Y-68752000D02*
X63987000Y-69260000D01*
X63987000Y-69260000D02*
X64495000Y-69260000D01*
X64495000Y-70022000D02*
X64495000Y-69514000D01*
X64495000Y-69514000D02*
X63987000Y-69514000D01*
X63987000Y-69514000D02*
X63987000Y-70022000D01*
X63987000Y-70022000D02*
X64495000Y-70022000D01*
X64495000Y-70784000D02*
X64495000Y-70276000D01*
X64495000Y-70276000D02*
X63987000Y-70276000D01*
X63987000Y-70276000D02*
X63987000Y-70784000D01*
X63987000Y-70784000D02*
X64495000Y-70784000D01*
X64495000Y-71546000D02*
X64495000Y-71038000D01*
X64495000Y-71038000D02*
X63987000Y-71038000D01*
X63987000Y-71038000D02*
X63987000Y-71546000D01*
X63987000Y-71546000D02*
X64495000Y-71546000D01*
X64495000Y-72308000D02*
X64495000Y-71800000D01*
X64495000Y-71800000D02*
X63987000Y-71800000D01*
X63987000Y-71800000D02*
X63987000Y-72308000D01*
X63987000Y-72308000D02*
X64495000Y-72308000D01*
X65130000Y-72943000D02*
X65130000Y-72435000D01*
X65130000Y-72435000D02*
X64622000Y-72435000D01*
X64622000Y-72435000D02*
X64622000Y-72943000D01*
X64622000Y-72943000D02*
X65130000Y-72943000D01*
X65892000Y-72435000D02*
X65384000Y-72435000D01*
X65384000Y-72435000D02*
X65384000Y-72943000D01*
X65384000Y-72943000D02*
X65892000Y-72943000D01*
X65892000Y-72943000D02*
X65892000Y-72435000D01*
X66654000Y-72435000D02*
X66146000Y-72435000D01*
X66146000Y-72435000D02*
X66146000Y-72943000D01*
X66146000Y-72943000D02*
X66654000Y-72943000D01*
X66654000Y-72943000D02*
X66654000Y-72435000D01*
X67289000Y-71800000D02*
X66781000Y-71800000D01*
X66781000Y-71800000D02*
X66781000Y-72308000D01*
X66781000Y-72308000D02*
X67289000Y-72308000D01*
X67289000Y-72308000D02*
X67289000Y-71800000D01*
X66781000Y-71038000D02*
X67289000Y-71038000D01*
X67289000Y-71038000D02*
X67289000Y-71546000D01*
X67289000Y-71546000D02*
X66781000Y-71546000D01*
X66781000Y-71546000D02*
X66781000Y-71038000D01*
X67289000Y-70276000D02*
X66781000Y-70276000D01*
X66781000Y-70276000D02*
X66781000Y-70784000D01*
X66781000Y-70784000D02*
X67289000Y-70784000D01*
X67289000Y-70784000D02*
X67289000Y-70276000D01*
X66781000Y-69514000D02*
X67289000Y-69514000D01*
X67289000Y-69514000D02*
X67289000Y-70022000D01*
X67289000Y-70022000D02*
X66781000Y-70022000D01*
X66781000Y-70022000D02*
X66781000Y-69514000D01*
X65384000Y-71038000D02*
X65892000Y-71038000D01*
X65892000Y-71038000D02*
X65892000Y-71546000D01*
X65892000Y-71546000D02*
X65384000Y-71546000D01*
X65384000Y-71546000D02*
X65384000Y-71038000D01*
X65384000Y-70276000D02*
X65384000Y-70784000D01*
X65384000Y-70784000D02*
X65892000Y-70784000D01*
X65384000Y-70276000D02*
X65892000Y-70276000D01*
X65892000Y-70276000D02*
X65892000Y-70784000D01*
X65892000Y-69514000D02*
X65384000Y-69514000D01*
X65384000Y-69514000D02*
X65384000Y-70022000D01*
X65384000Y-70022000D02*
X65892000Y-70022000D01*
X65892000Y-70022000D02*
X65892000Y-69514000D01*
X65892000Y-68752000D02*
X65384000Y-68752000D01*
X65384000Y-68752000D02*
X65384000Y-69260000D01*
X65384000Y-69260000D02*
X65892000Y-69260000D01*
X65892000Y-69260000D02*
X65892000Y-68752000D01*
X66527000Y-68625000D02*
X66527000Y-68117000D01*
X66527000Y-68117000D02*
X66019000Y-68117000D01*
X66019000Y-68117000D02*
X66019000Y-68625000D01*
X66019000Y-68625000D02*
X66527000Y-68625000D01*
X67289000Y-68625000D02*
X67289000Y-68117000D01*
X67289000Y-68117000D02*
X66781000Y-68117000D01*
X66781000Y-68117000D02*
X66781000Y-68625000D01*
X66781000Y-68625000D02*
X67289000Y-68625000D01*
X68051000Y-68625000D02*
X68051000Y-68117000D01*
X68051000Y-68117000D02*
X67543000Y-68117000D01*
X67543000Y-68117000D02*
X67543000Y-68625000D01*
X67543000Y-68625000D02*
X68051000Y-68625000D01*
X68686000Y-69260000D02*
X68178000Y-69260000D01*
X68178000Y-69260000D02*
X68178000Y-68752000D01*
X68178000Y-68752000D02*
X68686000Y-68752000D01*
X68686000Y-68752000D02*
X68686000Y-69260000D01*
X68686000Y-70022000D02*
X68178000Y-70022000D01*
X68178000Y-70022000D02*
X68178000Y-69514000D01*
X68178000Y-69514000D02*
X68686000Y-69514000D01*
X68686000Y-69514000D02*
X68686000Y-70022000D01*
X68686000Y-70784000D02*
X68178000Y-70784000D01*
X68178000Y-70784000D02*
X68178000Y-70276000D01*
X68178000Y-70276000D02*
X68686000Y-70276000D01*
X68686000Y-70276000D02*
X68686000Y-70784000D01*
X68686000Y-71546000D02*
X68178000Y-71546000D01*
X68178000Y-71546000D02*
X68178000Y-71038000D01*
X68178000Y-71038000D02*
X68686000Y-71038000D01*
X68686000Y-71038000D02*
X68686000Y-71546000D01*
X68686000Y-72308000D02*
X68178000Y-72308000D01*
X68178000Y-72308000D02*
X68178000Y-71800000D01*
X68178000Y-71800000D02*
X68686000Y-71800000D01*
X68686000Y-71800000D02*
X68686000Y-72308000D01*
X62423800Y-66897800D02*
X62525400Y-66466000D01*
X62525400Y-66466000D02*
X62601600Y-66466000D01*
X62601600Y-66466000D02*
X62728600Y-66491400D01*
X62728600Y-66491400D02*
X62779400Y-66567600D01*
X62779400Y-66567600D02*
X62779400Y-66694600D01*
X62779400Y-66694600D02*
X62728600Y-66796200D01*
X62728600Y-66796200D02*
X62627000Y-66847000D01*
X62627000Y-66847000D02*
X62246000Y-66897800D01*
X62246000Y-66897800D02*
X62144400Y-66872400D01*
X62144400Y-66872400D02*
X62093600Y-66770800D01*
X62093600Y-66770800D02*
X62093600Y-66643800D01*
X62093600Y-66643800D02*
X62169800Y-66567600D01*
X62754000Y-67507400D02*
X62093600Y-67380400D01*
X62093600Y-67380400D02*
X62779400Y-67101000D01*
X62144400Y-64764200D02*
X62093600Y-64840400D01*
X62093600Y-64840400D02*
X62093600Y-65043600D01*
X62093600Y-65043600D02*
X62144400Y-65094400D01*
X62144400Y-65094400D02*
X62220600Y-65119800D01*
X62220600Y-65119800D02*
X62322200Y-65119800D01*
X62322200Y-65119800D02*
X62398400Y-65119800D01*
X62398400Y-65119800D02*
X62449200Y-65043600D01*
X62449200Y-65043600D02*
X62474600Y-64967400D01*
X62474600Y-64967400D02*
X62474600Y-64789600D01*
X62474600Y-64789600D02*
X62525400Y-64738800D01*
X62703200Y-65043600D02*
X62779400Y-64942000D01*
X62779400Y-64942000D02*
X62779400Y-64789600D01*
X62779400Y-64789600D02*
X62728600Y-64713400D01*
X62728600Y-64713400D02*
X62627000Y-64688000D01*
X62627000Y-64688000D02*
X62093600Y-64764200D01*
X62627000Y-67812200D02*
X62093600Y-67888400D01*
X62728600Y-67837600D02*
X62627000Y-67812200D01*
X62779400Y-67913800D02*
X62728600Y-67837600D01*
X62779400Y-68066200D02*
X62779400Y-67913800D01*
X62703200Y-68167800D02*
X62779400Y-68066200D01*
X62474600Y-67913800D02*
X62525400Y-67863000D01*
X62474600Y-68091600D02*
X62474600Y-67913800D01*
X62449200Y-68167800D02*
X62474600Y-68091600D01*
X62398400Y-68244000D02*
X62449200Y-68167800D01*
X62322200Y-68244000D02*
X62398400Y-68244000D01*
X62220600Y-68244000D02*
X62322200Y-68244000D01*
X62144400Y-68218600D02*
X62220600Y-68244000D01*
X62093600Y-68167800D02*
X62144400Y-68218600D01*
X62093600Y-67964600D02*
X62093600Y-68167800D01*
X62144400Y-67888400D02*
X62093600Y-67964600D01*
X62093600Y-65526200D02*
X62144400Y-65450000D01*
X62093600Y-65627800D02*
X62093600Y-65526200D01*
X62119000Y-65704000D02*
X62093600Y-65627800D01*
X62195200Y-65805600D02*
X62119000Y-65704000D01*
X62449200Y-65805600D02*
X62195200Y-65805600D01*
X62576200Y-65805600D02*
X62449200Y-65805600D01*
X62652400Y-65754800D02*
X62576200Y-65805600D01*
X62728600Y-65704000D02*
X62652400Y-65754800D01*
X62779400Y-65602400D02*
X62728600Y-65704000D01*
X62779400Y-65450000D02*
X62779400Y-65602400D01*
X62703200Y-65373800D02*
X62779400Y-65450000D01*
X62703200Y-68498000D02*
X62779400Y-68574200D01*
X62779400Y-68574200D02*
X62779400Y-68726600D01*
X62779400Y-68726600D02*
X62728600Y-68828200D01*
X62728600Y-68828200D02*
X62652400Y-68879000D01*
X62652400Y-68879000D02*
X62576200Y-68929800D01*
X62576200Y-68929800D02*
X62449200Y-68929800D01*
X62449200Y-68929800D02*
X62195200Y-68929800D01*
X62195200Y-68929800D02*
X62119000Y-68828200D01*
X62119000Y-68828200D02*
X62093600Y-68752000D01*
X62093600Y-68752000D02*
X62093600Y-68650400D01*
X62093600Y-68650400D02*
X62144400Y-68574200D01*
X63084200Y-69234600D02*
X62220600Y-69361600D01*
X62220600Y-69361600D02*
X62144400Y-69336200D01*
X62144400Y-69336200D02*
X62068200Y-69234600D01*
X62144400Y-69742600D02*
X62093600Y-69818800D01*
X62093600Y-69818800D02*
X62093600Y-70022000D01*
X62093600Y-70022000D02*
X62144400Y-70072800D01*
X62144400Y-70072800D02*
X62220600Y-70098200D01*
X62220600Y-70098200D02*
X62322200Y-70098200D01*
X62322200Y-70098200D02*
X62398400Y-70098200D01*
X62398400Y-70098200D02*
X62449200Y-70022000D01*
X62449200Y-70022000D02*
X62474600Y-69945800D01*
X62474600Y-69945800D02*
X62474600Y-69768000D01*
X62474600Y-69768000D02*
X62525400Y-69717200D01*
X62703200Y-70022000D02*
X62779400Y-69920400D01*
X62779400Y-69920400D02*
X62779400Y-69768000D01*
X62779400Y-69768000D02*
X62728600Y-69691800D01*
X62728600Y-69691800D02*
X62627000Y-69666400D01*
X62627000Y-69666400D02*
X62093600Y-69742600D01*
X62093600Y-70453800D02*
X62068200Y-70352200D01*
X62144400Y-70504600D02*
X62093600Y-70453800D01*
X62246000Y-70530000D02*
X62144400Y-70504600D01*
X63109600Y-70428400D02*
X62246000Y-70530000D01*
X62779400Y-70631600D02*
X62779400Y-70301400D01*
X62728600Y-71266600D02*
X62779400Y-71342800D01*
X62779400Y-71342800D02*
X62779400Y-71444400D01*
X62779400Y-71444400D02*
X62728600Y-71571400D01*
X62728600Y-71571400D02*
X62652400Y-71622200D01*
X62652400Y-71622200D02*
X62576200Y-71647600D01*
X62576200Y-71647600D02*
X62296800Y-71698400D01*
X62296800Y-71698400D02*
X62144400Y-71647600D01*
X62144400Y-71647600D02*
X62093600Y-71546000D01*
X62093600Y-71546000D02*
X62093600Y-71419000D01*
X62093600Y-71419000D02*
X62169800Y-71342800D01*
X62754000Y-71241200D02*
X61941200Y-71342800D01*
X61941200Y-71342800D02*
X61839600Y-71419000D01*
X61839600Y-71419000D02*
X61814200Y-71444400D01*
X61814200Y-71444400D02*
X61788800Y-71469800D01*
X61788800Y-71469800D02*
X61763400Y-71520600D01*
X61763400Y-71520600D02*
X61763400Y-71622200D01*
X61763400Y-71622200D02*
X61763400Y-71673000D01*
X61763400Y-71673000D02*
X61814200Y-71723800D01*
X62144400Y-72460400D02*
X62093600Y-72511200D01*
X62093600Y-72511200D02*
X62093600Y-72663600D01*
X62093600Y-72663600D02*
X62144400Y-72765200D01*
X62144400Y-72765200D02*
X62195200Y-72790600D01*
X62195200Y-72790600D02*
X62271400Y-72816000D01*
X62271400Y-72816000D02*
X62576200Y-72765200D01*
X62576200Y-72765200D02*
X62677800Y-72739800D01*
X62677800Y-72739800D02*
X62728600Y-72663600D01*
X62728600Y-72663600D02*
X62779400Y-72587400D01*
X62779400Y-72587400D02*
X62779400Y-72485800D01*
X62779400Y-72485800D02*
X62728600Y-72384200D01*
X63109600Y-72333400D02*
X62068200Y-72460400D01*
X62144400Y-66161200D02*
X62119000Y-66186600D01*
X62119000Y-66161200D02*
X62144400Y-66161200D01*
X62144400Y-66186600D02*
X62119000Y-66161200D01*
X62804800Y-70860200D02*
X62093600Y-70961800D01*
X63084200Y-70834800D02*
X63058800Y-70809400D01*
X63058800Y-70809400D02*
X63084200Y-70809400D01*
X63084200Y-70809400D02*
X63058800Y-70834800D01*
X63084200Y-71927000D02*
X63058800Y-71952400D01*
X63058800Y-71927000D02*
X63084200Y-71927000D01*
X63084200Y-71952400D02*
X63058800Y-71927000D01*
X62144400Y-73882800D02*
X62119000Y-73908200D01*
X62119000Y-73882800D02*
X62144400Y-73882800D01*
X62144400Y-73908200D02*
X62119000Y-73882800D01*
X62677800Y-73857400D02*
X62652400Y-73832000D01*
X62652400Y-73832000D02*
X62677800Y-73832000D01*
X62677800Y-73832000D02*
X62652400Y-73857400D01*
X62804800Y-71977800D02*
X62093600Y-72079400D01*
X62093600Y-74644800D02*
X62093600Y-74416200D01*
X62093600Y-74416200D02*
X62195200Y-74238400D01*
X62195200Y-74238400D02*
X62550800Y-74187600D01*
X62550800Y-74187600D02*
X62652400Y-74213000D01*
X62652400Y-74213000D02*
X62754000Y-74289200D01*
X62754000Y-74289200D02*
X62779400Y-74390800D01*
X62779400Y-74390800D02*
X62779400Y-74441600D01*
X62779400Y-74441600D02*
X62703200Y-74543200D01*
X62754000Y-74543200D02*
X61738000Y-74695600D01*
X62093600Y-75000400D02*
X62068200Y-74898800D01*
X62144400Y-75051200D02*
X62093600Y-75000400D01*
X62246000Y-75076600D02*
X62144400Y-75051200D01*
X63109600Y-74975000D02*
X62246000Y-75076600D01*
X62779400Y-75178200D02*
X62779400Y-74848000D01*
X62779400Y-75635400D02*
X62779400Y-75305200D01*
X63109600Y-75432200D02*
X62246000Y-75533800D01*
X62246000Y-75533800D02*
X62144400Y-75508400D01*
X62144400Y-75508400D02*
X62093600Y-75457600D01*
X62093600Y-75457600D02*
X62068200Y-75356000D01*
X62677800Y-76219600D02*
X62779400Y-76143400D01*
X62779400Y-76143400D02*
X62754000Y-75991000D01*
X62754000Y-75991000D02*
X62703200Y-75914800D01*
X62703200Y-75914800D02*
X62627000Y-75889400D01*
X62627000Y-75889400D02*
X62068200Y-75965600D01*
X63109600Y-76168800D02*
X62068200Y-76295800D01*
X63135000Y-72943000D02*
X61992000Y-73324000D01*
X63135000Y-73324000D02*
X61992000Y-73705000D01*
X61738000Y-71063400D02*
X61738000Y-64713400D01*
X61738000Y-71952400D02*
X61738000Y-74238400D01*
X61738000Y-76372000D02*
X61738000Y-74975000D01*
D14*
X65492000Y-59087000D02*
X66508000Y-59087000D01*
X66508000Y-59087000D02*
X66508000Y-61373000D01*
X66508000Y-61373000D02*
X65492000Y-61373000D01*
X65492000Y-61373000D02*
X65492000Y-59087000D01*
D16*
X144460476Y-60459810D02*
X144750762Y-60459810D01*
X144605619Y-60459810D02*
X144605619Y-59951810D01*
X144654000Y-60024381D01*
X144702381Y-60072762D01*
X144750762Y-60096952D01*
X144242762Y-60459810D02*
X144242762Y-59951810D01*
X144194381Y-60266286D02*
X144049238Y-60459810D01*
X144049238Y-60121143D02*
X144242762Y-60314667D01*
X124860476Y-60459810D02*
X125150762Y-60459810D01*
X125005619Y-60459810D02*
X125005619Y-59951810D01*
X125054000Y-60024381D01*
X125102381Y-60072762D01*
X125150762Y-60096952D01*
X124642762Y-60459810D02*
X124642762Y-59951810D01*
X124594381Y-60266286D02*
X124449238Y-60459810D01*
X124449238Y-60121143D02*
X124642762Y-60314667D01*
X105260476Y-60459810D02*
X105550762Y-60459810D01*
X105405619Y-60459810D02*
X105405619Y-59951810D01*
X105454000Y-60024381D01*
X105502381Y-60072762D01*
X105550762Y-60096952D01*
X105042762Y-60459810D02*
X105042762Y-59951810D01*
X104994381Y-60266286D02*
X104849238Y-60459810D01*
X104849238Y-60121143D02*
X105042762Y-60314667D01*
X85660476Y-60459810D02*
X85950762Y-60459810D01*
X85805619Y-60459810D02*
X85805619Y-59951810D01*
X85854000Y-60024381D01*
X85902381Y-60072762D01*
X85950762Y-60096952D01*
X85442762Y-60459810D02*
X85442762Y-59951810D01*
X85394381Y-60266286D02*
X85249238Y-60459810D01*
X85249238Y-60121143D02*
X85442762Y-60314667D01*
D15*
X122702381Y-149144286D02*
X121702381Y-149144286D01*
X121702381Y-149525239D01*
X121750000Y-149620477D01*
X121797619Y-149668096D01*
X121892857Y-149715715D01*
X122035714Y-149715715D01*
X122130952Y-149668096D01*
X122178571Y-149620477D01*
X122226190Y-149525239D01*
X122226190Y-149144286D01*
X122702381Y-150715715D02*
X122226190Y-150382381D01*
X122702381Y-150144286D02*
X121702381Y-150144286D01*
X121702381Y-150525239D01*
X121750000Y-150620477D01*
X121797619Y-150668096D01*
X121892857Y-150715715D01*
X122035714Y-150715715D01*
X122130952Y-150668096D01*
X122178571Y-150620477D01*
X122226190Y-150525239D01*
X122226190Y-150144286D01*
X121702381Y-151334762D02*
X121702381Y-151525239D01*
X121750000Y-151620477D01*
X121845238Y-151715715D01*
X122035714Y-151763334D01*
X122369048Y-151763334D01*
X122559524Y-151715715D01*
X122654762Y-151620477D01*
X122702381Y-151525239D01*
X122702381Y-151334762D01*
X122654762Y-151239524D01*
X122559524Y-151144286D01*
X122369048Y-151096667D01*
X122035714Y-151096667D01*
X121845238Y-151144286D01*
X121750000Y-151239524D01*
X121702381Y-151334762D01*
X121750000Y-152715715D02*
X121702381Y-152620477D01*
X121702381Y-152477620D01*
X121750000Y-152334762D01*
X121845238Y-152239524D01*
X121940476Y-152191905D01*
X122130952Y-152144286D01*
X122273810Y-152144286D01*
X122464286Y-152191905D01*
X122559524Y-152239524D01*
X122654762Y-152334762D01*
X122702381Y-152477620D01*
X122702381Y-152572858D01*
X122654762Y-152715715D01*
X122607143Y-152763334D01*
X122273810Y-152763334D01*
X122273810Y-152572858D01*
X139874305Y-151448925D02*
X139874305Y-150448925D01*
X139302876Y-151448925D02*
X139731448Y-150877496D01*
X139302876Y-150448925D02*
X139874305Y-151020354D01*
X138874305Y-150925115D02*
X138540971Y-150925115D01*
X138398114Y-151448925D02*
X138874305Y-151448925D01*
X138874305Y-150448925D01*
X138398114Y-150448925D01*
X137779067Y-150972734D02*
X137779067Y-151448925D01*
X138112400Y-150448925D02*
X137779067Y-150972734D01*
X137445733Y-150448925D01*
D12*
X80871429Y-114599048D02*
X80871429Y-115360953D01*
X81252381Y-114980001D02*
X80490476Y-114980001D01*
X78821429Y-141099048D02*
X78821429Y-141860953D01*
X79202381Y-141480001D02*
X78440476Y-141480001D01*
D16*
X66060476Y-60459810D02*
X66350762Y-60459810D01*
X66205619Y-60459810D02*
X66205619Y-59951810D01*
X66254000Y-60024381D01*
X66302381Y-60072762D01*
X66350762Y-60096952D01*
X65842762Y-60459810D02*
X65842762Y-59951810D01*
X65794381Y-60266286D02*
X65649238Y-60459810D01*
X65649238Y-60121143D02*
X65842762Y-60314667D01*
M02*
