M48
;DRILL file {KiCad (2015-07-22 BZR 5980)-product} date Tuesday, September 08, 2015 'amt' 09:18:11 am
;FORMAT={-:-/ absolute / inch / decimal}
FMAT,2
INCH,TZ
T1C0.014
T2C0.031
T3C0.035
T4C0.039
T5C0.040
T6C0.335
%
G90
G05
M72
T1
X2.4436Y-4.6653
X2.4686Y-5.1653
X2.5186Y-5.1653
X2.5436Y-5.2653
X2.5436Y-5.3153
X2.5686Y-4.8903
X2.5936Y-5.2653
X2.6186Y-4.7153
X2.6186Y-5.5653
X2.6244Y-5.6077
X2.6436Y-4.8153
X2.6686Y-5.6153
X2.6936Y-5.4403
X2.7186Y-4.5653
X2.7186Y-4.9153
X2.7436Y-4.4903
X2.7536Y-4.9403
X2.8186Y-4.4903
X2.8436Y-5.1403
X2.8936Y-4.8153
X2.9186Y-4.6903
X2.9436Y-4.9653
X2.9686Y-4.9903
X2.9936Y-4.8153
X2.9936Y-4.9403
X3.0436Y-4.9153
X3.0686Y-4.6659
X3.0936Y-4.6903
X3.1436Y-5.2153
X3.1936Y-4.9903
X3.2036Y-4.7503
X3.2436Y-5.0653
X3.2686Y-5.1653
X3.3186Y-4.4153
X3.3436Y-4.4403
X3.3436Y-4.6903
X3.3436Y-5.5153
X3.3686Y-4.4153
X3.3686Y-5.1153
X3.3686Y-5.4903
X3.3936Y-4.6653
X3.3936Y-5.2653
X3.3936Y-5.4403
X3.4186Y-4.6153
X3.4436Y-4.7653
X3.4936Y-4.7653
X3.4936Y-5.1903
X3.4941Y-4.9461
X3.5186Y-5.1653
X3.5436Y-4.7653
X3.589Y-5.4153
X3.5936Y-4.8403
X3.6436Y-5.3653
X4.1473Y-4.908
X4.3441Y-5.1245
X4.3835Y-5.1639
X4.7926Y-5.8325
X4.8516Y-5.7833
T2
X4.8713Y-5.9113
X4.8713Y-5.9802
T3
X2.7375Y-5.8686
X2.8163Y-5.8686
X2.895Y-5.8686
X2.9738Y-5.8686
X3.0525Y-5.8686
X3.1312Y-5.8686
X3.21Y-5.8686
X3.2887Y-5.8686
X3.3675Y-5.8686
T4
X2.4281Y-3.5356
X2.5463Y-3.5356
X3.1988Y-3.5346
X3.3169Y-3.5346
X3.9705Y-3.5356
X4.0886Y-3.5356
X4.7421Y-3.5346
X4.8602Y-3.5346
X5.5138Y-3.5327
X5.6319Y-3.5327
T5
X2.6588Y-5.8686
X2.6936Y-5.2153
X2.7936Y-5.2153
X2.7936Y-5.3653
X2.8936Y-4.5103
X2.8936Y-5.2153
X2.8936Y-5.3653
X2.9088Y-6.0436
X2.9936Y-4.5103
X2.9936Y-5.2153
X2.9936Y-5.3653
X3.0088Y-6.0436
X3.0936Y-5.3653
X3.1088Y-6.0436
X3.1936Y-5.3653
X3.2088Y-6.0436
X3.2936Y-5.3653
X3.3088Y-6.0436
X3.4088Y-6.0436
X4.9796Y-5.9408
X5.0796Y-5.9408
X5.1796Y-5.9408
X5.2796Y-5.9408
X5.3796Y-5.9408
X5.4796Y-5.9408
T6
X2.4872Y-3.8506
X3.2589Y-3.8506
X4.0276Y-3.8516
X4.8031Y-3.8516
X5.5748Y-3.8516
T0
M30
