<?xml version="1.0" standalone="no"?>
 <!DOCTYPE svg PUBLIC "-//W3C//DTD SVG 1.1//EN" 
 "http://www.w3.org/Graphics/SVG/1.1/DTD/svg11.dtd"> 
<svg xmlns="http://www.w3.org/2000/svg" version="1.1" 
    width="6.70306cm" height="6.11632cm" viewBox="0 0 26390 24080 ">
<title>SVG Picture created as hex-B_Cu.svg date 2014/04/17 12:38:22 </title>
  <desc>Picture generated by PCBNEW </desc>
<g style="fill:#000000; fill-opacity:1;stroke:#000000; stroke-opacity:1;
stroke-linecap:round; stroke-linejoin:round; "
 transform="translate(0 0) scale(1 1)">
</g>
<g style="fill:#FFFF00; fill-opacity:0.0; 
stroke:#FFFF00; stroke-width:39.3701; stroke-opacity:1; 
stroke-linecap:round; stroke-linejoin:round;">
<path d="M2574 3137
L2574 21248
" />
<path d="M21471 2350
L3361 2350
" />
<path d="M22259 21248
L22259 3137
" />
<path d="M3361 22035
L21471 22035
" />
<path d="M22259.2 3137.81 A787.402 787.402 0.0 0 0 21471.8 2350.41 " />
<path d="M21471.8 22035.4 A787.402 787.402 0.0 0 0 22259.2 21248 " />
<path d="M2574.17 21248 A787.402 787.402 0.0 0 0 3361.57 22035.4 " />
<path d="M3361.57 2350.41 A787.402 787.402 0.0 0 0 2574.17 3137.81 " />
</g>
<g style="fill:#808000; fill-opacity:0.0; 
stroke:#808000; stroke-width:39.3701; stroke-opacity:1; 
stroke-linecap:round; stroke-linejoin:round;">
</g>
<g style="fill:#808000; fill-opacity:1.0; 
stroke:#808000; stroke-width:39.3701; stroke-opacity:1; 
stroke-linecap:round; stroke-linejoin:round;">
<circle cx="21661.6" cy="12183.9" r="255.315" /> 
<circle cx="20661.6" cy="12183.9" r="255.315" /> 
<circle cx="20661.6" cy="11183.9" r="255.315" /> 
<circle cx="12911.6" cy="20363.9" r="310.315" /> 
<circle cx="11911.6" cy="20363.9" r="310.315" /> 
<circle cx="16957.8" cy="3295.04" r="255.315" /> 
<circle cx="16250.7" cy="4002.14" r="255.315" /> 
<circle cx="15543.5" cy="4709.25" r="255.315" /> 
<circle cx="14836.4" cy="5416.36" r="255.315" /> 
<circle cx="14129.3" cy="6123.46" r="255.315" /> 
<circle cx="13422.2" cy="6830.57" r="255.315" /> 
<circle cx="12715.1" cy="7537.68" r="255.315" /> 
<circle cx="12008" cy="8244.78" r="255.315" /> 
<circle cx="11300.9" cy="8951.89" r="255.315" /> 
<circle cx="10593.8" cy="9659" r="255.315" /> 
<circle cx="9886.69" cy="10366.1" r="255.315" /> 
<circle cx="9179.59" cy="11073.2" r="255.315" /> 
<circle cx="8472.48" cy="11780.3" r="255.315" /> 
<circle cx="7765.37" cy="12487.4" r="255.315" /> 
<circle cx="7058.27" cy="13194.5" r="255.315" /> 
<circle cx="6351.16" cy="13901.6" r="255.315" /> 
<circle cx="5644.05" cy="14608.7" r="255.315" /> 
<circle cx="4936.95" cy="15315.9" r="255.315" /> 
<circle cx="4229.84" cy="16023" r="255.315" /> 
<circle cx="3522.73" cy="16730.1" r="255.315" /> 
<circle cx="7765.37" cy="20972.7" r="255.315" /> 
<circle cx="8472.48" cy="20265.6" r="255.315" /> 
<circle cx="9179.59" cy="19558.5" r="255.315" /> 
<circle cx="9886.69" cy="18851.4" r="255.315" /> 
<circle cx="10593.8" cy="18144.3" r="255.315" /> 
<circle cx="11300.9" cy="17437.2" r="255.315" /> 
<circle cx="12008" cy="16730.1" r="255.315" /> 
<circle cx="12715.1" cy="16023" r="255.315" /> 
<circle cx="13422.2" cy="15315.9" r="255.315" /> 
<circle cx="14129.3" cy="14608.7" r="255.315" /> 
<circle cx="14836.4" cy="13901.6" r="255.315" /> 
<circle cx="15543.5" cy="13194.5" r="255.315" /> 
<circle cx="16250.7" cy="12487.4" r="255.315" /> 
<circle cx="16957.8" cy="11780.3" r="255.315" /> 
<circle cx="17664.9" cy="11073.2" r="255.315" /> 
<circle cx="18372" cy="10366.1" r="255.315" /> 
<circle cx="19079.1" cy="9659" r="255.315" /> 
<circle cx="19786.2" cy="8951.89" r="255.315" /> 
<circle cx="20493.3" cy="8244.78" r="255.315" /> 
<circle cx="21200.4" cy="7537.68" r="255.315" /> 
<circle cx="13011.6" cy="2983.87" r="330.315" /> 
<circle cx="12011.6" cy="2983.87" r="330.315" /> 
<circle cx="7454.46" cy="10741" r="280.315" /> 
<circle cx="8161.57" cy="10033.9" r="280.315" /> 
<circle cx="8868.67" cy="9326.76" r="280.315" /> 
<circle cx="16793.1" cy="21512.3" r="280.315" /> 
<circle cx="17500.2" cy="20805.2" r="280.315" /> 
<circle cx="18207.4" cy="20098.1" r="280.315" /> 
<circle cx="18914.5" cy="19391" r="280.315" /> 
<circle cx="19621.6" cy="18683.9" r="280.315" /> 
<circle cx="20328.7" cy="17976.8" r="280.315" /> 
<circle cx="21035.8" cy="17269.7" r="280.315" /> 
<circle cx="21742.9" cy="16562.6" r="280.315" /> 
<circle cx="20684.4" cy="20460.6" r="780.315" /> 
<circle cx="4148.97" cy="3925.21" r="780.315" /> 
<circle cx="19500.9" cy="3530.32" r="280.315" /> 
<circle cx="20208" cy="2823.21" r="280.315" /> 
<circle cx="20208" cy="4237.43" r="280.315" /> 
<circle cx="20915.1" cy="3530.32" r="280.315" /> 
<circle cx="20915.1" cy="4944.53" r="280.315" /> 
<circle cx="21622.2" cy="4237.43" r="280.315" /> 
<circle cx="5122.23" cy="20887.4" r="280.315" /> 
<circle cx="4415.12" cy="21594.5" r="280.315" /> 
<circle cx="4415.12" cy="20180.3" r="280.315" /> 
<circle cx="3708.01" cy="20887.4" r="280.315" /> 
<circle cx="3708.01" cy="19473.2" r="280.315" /> 
<circle cx="3000.91" cy="20180.3" r="280.315" /> 
<polyline style="fill-rule:evenodd;"
points="4666,11828
4666,12239
4356,12239
4356,11828
4666,11828
" /> 
<polyline style="fill-rule:evenodd;"
points="4166,11828
4166,12239
3856,12239
3856,11828
4166,11828
" /> 
<polyline style="fill-rule:evenodd;"
points="3666,11828
3666,12239
3356,12239
3356,11828
3666,11828
" /> 
<polyline style="fill-rule:evenodd;"
points="3166,11828
3166,12239
2856,12239
2856,11828
3166,11828
" /> 
<circle cx="8661.82" cy="14798.1" r="280.315" /> 
<circle cx="9368.93" cy="14091" r="280.315" /> 
<circle cx="10076" cy="13383.9" r="280.315" /> 
<circle cx="10783.1" cy="12676.8" r="280.315" /> 
<circle cx="11490.2" cy="11969.7" r="280.315" /> 
<circle cx="12197.4" cy="11262.6" r="280.315" /> 
<circle cx="12904.5" cy="10555.4" r="280.315" /> 
<circle cx="13611.6" cy="9848.34" r="280.315" /> 
<circle cx="14318.7" cy="9141.23" r="280.315" /> 
<circle cx="15025.8" cy="8434.12" r="280.315" /> 
<circle cx="18561.3" cy="11969.7" r="280.315" /> 
<circle cx="17854.2" cy="12676.8" r="280.315" /> 
<circle cx="17147.1" cy="13383.9" r="280.315" /> 
<circle cx="16440" cy="14091" r="280.315" /> 
<circle cx="15732.9" cy="14798.1" r="280.315" /> 
<circle cx="15025.8" cy="15505.2" r="280.315" /> 
<circle cx="14318.7" cy="16212.3" r="280.315" /> 
<circle cx="13611.6" cy="16919.4" r="280.315" /> 
<circle cx="12904.5" cy="17626.5" r="280.315" /> 
<circle cx="12197.4" cy="18333.6" r="280.315" /> 
</g>
<g style="fill:#00A000; fill-opacity:1.0; 
stroke:#00A000; stroke-width:39.3701; stroke-opacity:1; 
stroke-linecap:round; stroke-linejoin:round;">
<polyline style="fill-rule:evenodd;"
points="8227,10702
8518,10992
8369,11141
8079,10851
8227,10702
" /> 
<polyline style="fill-rule:evenodd;"
points="7803,11126
8094,11416
7945,11565
7654,11275
7803,11126
" /> 
<polyline style="fill-rule:evenodd;"
points="8995,10515
8704,10225
8853,10076
9144,10366
8995,10515
" /> 
<polyline style="fill-rule:evenodd;"
points="9419,10091
9129,9801
9277,9652
9568,9942
9419,10091
" /> 
</g>
<g style="fill:#808000; fill-opacity:1.0; 
stroke:#808000; stroke-width:39.3701; stroke-opacity:1; 
stroke-linecap:round; stroke-linejoin:round;">
<circle cx="7374.46" cy="8381.64" r="355.315" /> 
<circle cx="8081.57" cy="7674.53" r="355.315" /> 
<circle cx="8788.67" cy="6967.43" r="355.315" /> 
<circle cx="6667.35" cy="7674.53" r="355.315" /> 
<circle cx="7374.46" cy="6967.43" r="355.315" /> 
<circle cx="8081.57" cy="6260.32" r="355.315" /> 
<circle cx="5960.25" cy="6967.43" r="355.315" /> 
<circle cx="6667.35" cy="6260.32" r="355.315" /> 
<circle cx="7374.46" cy="5553.21" r="355.315" /> 
<circle cx="9494.46" cy="6261.64" r="355.315" /> 
<circle cx="10201.6" cy="5554.53" r="355.315" /> 
<circle cx="10908.7" cy="4847.43" r="355.315" /> 
<circle cx="8787.35" cy="5554.53" r="355.315" /> 
<circle cx="9494.46" cy="4847.43" r="355.315" /> 
<circle cx="10201.6" cy="4140.32" r="355.315" /> 
<circle cx="8080.25" cy="4847.43" r="355.315" /> 
<circle cx="8787.35" cy="4140.32" r="355.315" /> 
<circle cx="9494.46" cy="3433.21" r="355.315" /> 
<circle cx="5254.46" cy="10501.6" r="355.315" /> 
<circle cx="5961.57" cy="9794.53" r="355.315" /> 
<circle cx="6668.67" cy="9087.43" r="355.315" /> 
<circle cx="4547.35" cy="9794.53" r="355.315" /> 
<circle cx="5254.46" cy="9087.43" r="355.315" /> 
<circle cx="5961.57" cy="8380.32" r="355.315" /> 
<circle cx="3840.25" cy="9087.43" r="355.315" /> 
<circle cx="4547.35" cy="8380.32" r="355.315" /> 
<circle cx="5254.46" cy="7673.21" r="355.315" /> 
<circle cx="19598.7" cy="13276.1" r="355.315" /> 
<circle cx="18891.6" cy="13983.2" r="355.315" /> 
<circle cx="18184.5" cy="14690.3" r="355.315" /> 
<circle cx="20305.8" cy="13983.2" r="355.315" /> 
<circle cx="19598.7" cy="14690.3" r="355.315" /> 
<circle cx="18891.6" cy="15397.4" r="355.315" /> 
<circle cx="21012.9" cy="14690.3" r="355.315" /> 
<circle cx="20305.8" cy="15397.4" r="355.315" /> 
<circle cx="19598.7" cy="16104.5" r="355.315" /> 
<circle cx="17478.7" cy="15396.1" r="355.315" /> 
<circle cx="16771.6" cy="16103.2" r="355.315" /> 
<circle cx="16064.5" cy="16810.3" r="355.315" /> 
<circle cx="18185.8" cy="16103.2" r="355.315" /> 
<circle cx="17478.7" cy="16810.3" r="355.315" /> 
<circle cx="16771.6" cy="17517.4" r="355.315" /> 
<circle cx="18892.9" cy="16810.3" r="355.315" /> 
<circle cx="18185.8" cy="17517.4" r="355.315" /> 
<circle cx="17478.7" cy="18224.5" r="355.315" /> 
<circle cx="15358.7" cy="17516.1" r="355.315" /> 
<circle cx="14651.6" cy="18223.2" r="355.315" /> 
<circle cx="13944.5" cy="18930.3" r="355.315" /> 
<circle cx="16065.8" cy="18223.2" r="355.315" /> 
<circle cx="15358.7" cy="18930.3" r="355.315" /> 
<circle cx="14651.6" cy="19637.4" r="355.315" /> 
<circle cx="16772.9" cy="18930.3" r="355.315" /> 
<circle cx="16065.8" cy="19637.4" r="355.315" /> 
<circle cx="15358.7" cy="20344.5" r="355.315" /> 
</g>
<g style="fill:#C0C0C0; fill-opacity:1.0; 
stroke:#C0C0C0; stroke-width:39.3701; stroke-opacity:1; 
stroke-linecap:round; stroke-linejoin:round;">
<circle cx="10636.6" cy="11833.9" r="130.315" /> 
<circle cx="19886.6" cy="6958.87" r="130.315" /> 
<circle cx="17686.6" cy="4758.87" r="130.315" /> 
<circle cx="9111.57" cy="20183.9" r="130.315" /> 
<circle cx="20361.6" cy="9833.87" r="130.315" /> 
<circle cx="15586.6" cy="9708.87" r="130.315" /> 
<circle cx="15761.6" cy="8483.87" r="130.315" /> 
<circle cx="5649.07" cy="15321.4" r="130.315" /> 
<circle cx="13011.6" cy="12758.9" r="130.315" /> 
<circle cx="13911.6" cy="10858.9" r="130.315" /> 
<circle cx="13444.6" cy="5624.9" r="130.315" /> 
<circle cx="13781.6" cy="19753.9" r="130.315" /> 
<circle cx="11871.6" cy="15903.9" r="130.315" /> 
<circle cx="18601.6" cy="7063.87" r="130.315" /> 
<circle cx="13711.6" cy="12058.9" r="130.315" /> 
<circle cx="15861.6" cy="5883.87" r="130.315" /> 
<circle cx="16486.6" cy="6508.87" r="130.315" /> 
<circle cx="3711.57" cy="18033.9" r="130.315" /> 
</g>
<g style="fill:#00A000; fill-opacity:1.0; 
stroke:#00A000; stroke-width:150; stroke-opacity:1; 
stroke-linecap:round; stroke-linejoin:round;">
<path d="M14371 21763
L16541 21763
" />
<path d="M18727 7537
L6151 20113
" />
<path d="M6151 20113
L6151 21383
" />
<path d="M6151 21383
L6531 21763
" />
<path d="M6531 21763
L14371 21763
" />
<path d="M21200 7537
L18727 7537
" />
<path d="M16541 21763
L16793 21512
" />
<path d="M20493 8244
L18374 8244
" />
<path d="M16540 20805
L17500 20805
" />
<path d="M15831 21513
L16540 20805
" />
<path d="M6681 21513
L15831 21513
" />
<path d="M6411 21243
L6681 21513
" />
<path d="M6411 20207
L6411 21243
" />
<path d="M18374 8244
L6411 20207
" />
<path d="M7551 20063
L7551 20073
" />
<path d="M7551 20073
L8741 21263
" />
<path d="M7551 20063
L7551 19420
" />
<path d="M16557 20098
L18207 20098
" />
<path d="M15391 21263
L16557 20098
" />
<path d="M8741 21263
L15391 21263
" />
<path d="M19786 8951
L18020 8951
" />
<path d="M18020 8951
L7551 19420
" />
</g>
<g style="fill:#00A000; fill-opacity:1.0; 
stroke:#00A000; stroke-width:500; stroke-opacity:1; 
stroke-linecap:round; stroke-linejoin:round;">
<path d="M20208 2805
L20208 2805
" />
<path d="M20208 2805
L20915 3530
" />
<path d="M13011 2983
L14611 2983
" />
<path d="M20068 2665
L20208 2805
" />
<path d="M14911 2665
L20068 2665
" />
<path d="M14611 2983
L14911 2665
" />
</g>
<g style="fill:#00A000; fill-opacity:1.0; 
stroke:#00A000; stroke-width:150; stroke-opacity:1; 
stroke-linecap:round; stroke-linejoin:round;">
<path d="M10636 11833
L10636 11858
" />
</g>
<g style="fill:#00A000; fill-opacity:1.0; 
stroke:#00A000; stroke-width:200; stroke-opacity:1; 
stroke-linecap:round; stroke-linejoin:round;">
<path d="M15636 3583
L15661 3583
" />
<path d="M15661 3583
L15811 3433
" />
<path d="M15811 3433
L16386 3433
" />
<path d="M16386 3433
L17686 4733
" />
<path d="M17686 4733
L17686 4758
" />
</g>
<g style="fill:#00A000; fill-opacity:1.0; 
stroke:#00A000; stroke-width:150; stroke-opacity:1; 
stroke-linecap:round; stroke-linejoin:round;">
<path d="M17686 4758
L17686 4808
" />
<path d="M8662 10033
L8924 10296
" />
<path d="M8161 10033
L8662 10033
" />
<path d="M8161 10784
L8298 10921
" />
<path d="M8161 10033
L8161 10784
" />
<path d="M4011 12033
L4011 11683
" />
<path d="M3840 11512
L3840 9087
" />
<path d="M4011 11683
L3840 11512
" />
<path d="M14789 20913
L15358 20344
" />
<path d="M9841 20913
L14789 20913
" />
<path d="M9111 20183
L9841 20913
" />
</g>
<g style="fill:#00A000; fill-opacity:1.0; 
stroke:#00A000; stroke-width:500; stroke-opacity:1; 
stroke-linecap:round; stroke-linejoin:round;">
<path d="M21742 16562
L21470 16562
" />
<path d="M21470 16562
L20305 15397
" />
</g>
<g style="fill:#00A000; fill-opacity:1.0; 
stroke:#00A000; stroke-width:150; stroke-opacity:1; 
stroke-linecap:round; stroke-linejoin:round;">
<path d="M4148 3925
L4332 3925
" />
<path d="M4332 3925
L6667 6260
" />
<path d="M17478 18224
L18448 18224
" />
<path d="M18448 18224
L20684 20460
" />
</g>
<g style="fill:#00A000; fill-opacity:1.0; 
stroke:#00A000; stroke-width:200; stroke-opacity:1; 
stroke-linecap:round; stroke-linejoin:round;">
<path d="M21661 12183
L21661 11133
" />
<path d="M21661 11133
L20361 9833
" />
<path d="M15025 8434
L15023 8434
" />
<path d="M15023 8434
L14542 7952
" />
<path d="M17686 4808
L14542 7952
" />
<path d="M14542 7952
L14186 8308
" />
<path d="M10967 11527
L10636 11858
" />
<path d="M14186 8308
L11704 10790
" />
<path d="M11704 10790
L10967 11527
" />
<path d="M10636 11858
L9961 12533
" />
<path d="M9961 12533
L3736 18758
" />
<path d="M3736 18783
L3736 18758
" />
<path d="M3000 19294
L3511 18783
" />
<path d="M3511 18783
L3736 18783
" />
<path d="M3000 20180
L3000 19294
" />
<path d="M12611 3583
L12011 2983
" />
<path d="M15636 3583
L12611 3583
" />
<path d="M15811 3433
L15661 3583
" />
</g>
<g style="fill:#00A000; fill-opacity:1.0; 
stroke:#00A000; stroke-width:500; stroke-opacity:1; 
stroke-linecap:round; stroke-linejoin:round;">
<path d="M4547 8380
L3840 9087
" />
<path d="M5254 7673
L4547 8380
" />
<path d="M5960 6967
L5254 7673
" />
<path d="M6667 6260
L5960 6967
" />
<path d="M7374 5553
L6667 6260
" />
<path d="M8080 4847
L7374 5553
" />
<path d="M8787 4140
L8080 4847
" />
<path d="M9494 3433
L8787 4140
" />
<path d="M12011 2983
L9943 2983
" />
<path d="M9943 2983
L9494 3433
" />
<path d="M21661 12183
L21661 14041
" />
<path d="M21661 14041
L21012 14690
" />
<path d="M20305 15397
L21012 14690
" />
<path d="M19598 16104
L20305 15397
" />
<path d="M18892 16810
L19598 16104
" />
<path d="M18185 17517
L18892 16810
" />
<path d="M17478 18224
L18185 17517
" />
<path d="M16772 18930
L17478 18224
" />
<path d="M16065 19637
L16772 18930
" />
<path d="M15358 20344
L16065 19637
" />
</g>
<g style="fill:#00A000; fill-opacity:1.0; 
stroke:#00A000; stroke-width:150; stroke-opacity:1; 
stroke-linecap:round; stroke-linejoin:round;">
<path d="M14901 10393
L15586 9708
" />
<path d="M5122 20887
L5122 20173
" />
<path d="M14901 10393
L5122 20173
" />
<path d="M15761 8483
L15761 8508
" />
<path d="M4818 19451
L4429 19451
" />
<path d="M15761 8508
L4818 19451
" />
<path d="M3929 19951
L3929 20665
" />
<path d="M3929 20665
L3708 20887
" />
<path d="M4429 19451
L3929 19951
" />
<path d="M7374 8381
L10913 8381
" />
<path d="M10913 8381
L13171 6123
" />
<path d="M13171 6123
L14129 6123
" />
<path d="M5254 10501
L5014 10741
" />
<path d="M5014 14686
L5014 10741
" />
<path d="M5014 14686
L5649 15321
" />
<path d="M5644 14608
L5638 14608
" />
<path d="M5961 10777
L5961 9794
" />
<path d="M5354 11384
L5961 10777
" />
<path d="M5354 14324
L5354 11384
" />
<path d="M5638 14608
L5354 14324
" />
<path d="M6351 13901
L6351 10548
" />
<path d="M6668 10230
L6668 9087
" />
<path d="M6351 10548
L6668 10230
" />
<path d="M3611 20283
L3611 19569
" />
<path d="M3611 19569
L3708 19473
" />
<path d="M3111 20783
L3461 20433
" />
<path d="M3111 21183
L3111 20783
" />
<path d="M3361 21433
L3111 21183
" />
<path d="M3461 20433
L3611 20283
" />
<path d="M3861 21433
L3361 21433
" />
<path d="M4261 21033
L3861 21433
" />
<path d="M5811 21133
L5461 21483
" />
<path d="M4561 21033
L4261 21033
" />
<path d="M5011 21483
L4561 21033
" />
<path d="M5461 21483
L5011 21483
" />
<path d="M12961 12758
L5811 19908
" />
<path d="M5811 19908
L5811 21133
" />
<path d="M13011 12758
L12961 12758
" />
<path d="M4590 20180
L4415 20180
" />
<path d="M13911 10858
L4590 20180
" />
<path d="M4415 20180
L4515 20180
" />
<path d="M10646 3694
L10201 4140
" />
<path d="M11514 3694
L10646 3694
" />
<path d="M13444 5624
L11514 3694
" />
<path d="M12911 20363
L13925 20363
" />
<path d="M13925 20363
L14651 19637
" />
<path d="M13246 19218
L13246 18718
" />
<path d="M13781 19753
L13246 19218
" />
<path d="M13976 17988
L13956 17988
" />
<path d="M13956 17988
L11871 15903
" />
<path d="M20740 4944
L18601 7083
" />
<path d="M20740 4944
L20915 4944
" />
<path d="M18601 7063
L18601 7083
" />
<path d="M20661 11303
L20661 11183
" />
<path d="M13246 18718
L13976 17988
" />
<path d="M13976 17988
L20661 11303
" />
<path d="M17961 6483
L20208 4237
" />
<path d="M13736 12058
L17961 7833
" />
<path d="M17961 7833
L17961 6483
" />
<path d="M19500 3530
L19465 3530
" />
<path d="M16486 6508
L19465 3530
" />
<path d="M3711 18033
L15861 5883
" />
<path d="M8308 11780
L7874 11346
" />
<path d="M8472 11780
L8308 11780
" />
<path d="M7454 10926
L7874 11346
" />
<path d="M7454 10740
L7454 10926
" />
<path d="M9179 11065
L9411 10833
" />
<path d="M9179 11073
L9179 11065
" />
<path d="M9411 9934
L9348 9871
" />
<path d="M9411 10833
L9411 9934
" />
<path d="M8868 9391
L9348 9871
" />
<path d="M8868 9326
L8868 9391
" />
</g>
<g style="fill:#00A000; fill-opacity:1.0; 
stroke:#00A000; stroke-width:39.3701; stroke-opacity:1; 
stroke-linecap:round; stroke-linejoin:round;">
<polyline style="fill-rule:evenodd;"
points="22044,5587
21410,4952
21410,4846
21335,4664
21195,4525
21014,4449
20906,4449
20703,4245
20703,4139
20627,3957
20488,3818
20306,3742
20199,3742
19995,3538
19995,3432
19920,3250
19781,3110
19599,3035
19492,3035
19022,2565
21450,2565
21689,2612
21873,2735
21997,2920
22044,3157
22044,3963
22042,3957
21902,3818
21721,3742
21524,3742
21342,3817
21202,3956
21127,4138
21127,4335
21202,4517
21341,4656
21523,4732
21720,4732
21902,4657
22041,4518
22044,4511
22044,5587
" /> 
</g>
<g style="fill:#00A000; fill-opacity:0.0; 
stroke:#00A000; stroke-width:130; stroke-opacity:1; 
stroke-linecap:round; stroke-linejoin:round;">
<polyline fill="none;"
points="22044,5587
21410,4952
21410,4846
21335,4664
21195,4525
21014,4449
20906,4449
20703,4245
20703,4139
20627,3957
20488,3818
20306,3742
20199,3742
19995,3538
19995,3432
19920,3250
19781,3110
19599,3035
19492,3035
19022,2565
21450,2565
21689,2612
21873,2735
21997,2920
22044,3157
22044,3963
22042,3957
21902,3818
21721,3742
21524,3742
21342,3817
21202,3956
21127,4138
21127,4335
21202,4517
21341,4656
21523,4732
21720,4732
21902,4657
22041,4518
22044,4511
22044,5587
" /> 
</g>
<g style="fill:#00A000; fill-opacity:1.0; 
stroke:#00A000; stroke-width:39.3701; stroke-opacity:1; 
stroke-linecap:round; stroke-linejoin:round;">
<polyline style="fill-rule:evenodd;"
points="19812,3932
19788,3956
19713,4138
19712,4335
19717,4346
17770,6292
17712,6380
17691,6483
17691,7722
15885,9528
15879,9513
15782,9416
15655,9363
15518,9363
15391,9416
15294,9513
15241,9639
15241,9672
14710,10202
14217,10696
14204,10663
14107,10566
14092,10560
15823,8828
15829,8828
15956,8776
16053,8679
16106,8552
16106,8415
16054,8288
15957,8191
15830,8138
15693,8138
15566,8191
15545,8212
15497,8103
15335,7948
15150,7871
15060,7925
15060,8399
15423,8399
15416,8414
15416,8469
15110,8469
15080,8439
15031,8489
15060,8518
15060,8827
14990,8897
14990,8518
15020,8489
14990,8459
14990,8399
14990,7925
14901,7871
14695,7962
14540,8124
14463,8309
14517,8399
14990,8399
14990,8459
14970,8439
14941,8469
14517,8469
14463,8558
14520,8689
14417,8646
14220,8646
14038,8721
13899,8860
13823,9042
13823,9239
13898,9421
14037,9560
14219,9636
14252,9636
14106,9781
14106,9750
14031,9568
13892,9428
13710,9353
13513,9353
13331,9428
13192,9567
13116,9749
13116,9946
13191,10128
13330,10267
13512,10343
13545,10343
13399,10489
13399,10457
13324,10275
13185,10136
13003,10060
12806,10060
12624,10135
12485,10274
12409,10456
12409,10653
12484,10835
12623,10974
12805,11050
12838,11050
12692,11196
12692,11164
12617,10982
12478,10843
12296,10767
12099,10767
11917,10842
11777,10981
11702,11163
11702,11360
11777,11542
11916,11681
12098,11757
12131,11757
11985,11903
11985,11871
11910,11689
11771,11550
11589,11474
11392,11474
11210,11549
11070,11688
10995,11870
10995,12067
11070,12249
11209,12389
11391,12464
11424,12464
11278,12610
11278,12578
11203,12396
11063,12257
10882,12181
10685,12181
10503,12256
10363,12396
10288,12577
10288,12774
10363,12956
10502,13096
10684,13171
10716,13171
10571,13317
10571,13285
10495,13103
10356,12964
10174,12888
9978,12888
9796,12963
9656,13103
9581,13284
9580,13481
9656,13663
9795,13803
9977,13878
10009,13878
9863,14024
9864,13992
9788,13810
9649,13671
9467,13596
9270,13595
9088,13671
8949,13810
8874,13992
8873,14189
8949,14371
9088,14510
9270,14585
9302,14585
9156,14731
9156,14700
9081,14518
8942,14378
8760,14303
8563,14302
8381,14378
8242,14517
8166,14699
8166,14896
8241,15078
8381,15217
8562,15292
8595,15293
4706,19181
4429,19181
4326,19202
4238,19260
4180,19319
4127,19193
3988,19053
3806,18978
3609,18978
3427,19053
3288,19192
3213,19374
3212,19571
3254,19671
3125,19617
3035,19671
3035,20095
3006,20125
3055,20174
3085,20145
3341,20145
3341,20172
3298,20215
3085,20215
3055,20185
3006,20235
3035,20264
3035,20477
2965,20547
2965,20264
2995,20235
2945,20185
2916,20215
2788,20215
2788,20145
2916,20145
2945,20174
2995,20125
2965,20095
2965,19671
2876,19617
2788,19656
2788,12450
2797,12453
2875,12453
3225,12453
3261,12438
3297,12453
3375,12453
3656,12453
3686,12483
3784,12523
3910,12523
3976,12457
3976,12068
3968,12068
3968,11998
3976,11998
3976,11610
3910,11543
3805,11543
3805,9672
3805,9122
3805,9052
3805,8502
3703,8449
3469,8550
3292,8732
3202,8950
3255,9052
3805,9052
3805,9122
3255,9122
3202,9223
3302,9457
3485,9635
3703,9725
3805,9672
3805,11543
3784,11543
3686,11584
3656,11613
3647,11613
3297,11613
3261,11628
3225,11613
3147,11613
2797,11613
2788,11617
2788,3159
2836,2919
2959,2736
3144,2612
3381,2565
12659,2565
12549,2674
12466,2874
12466,3091
12549,3292
12702,3445
12902,3528
13119,3528
13319,3446
13337,3428
14611,3428
14618,3427
14624,3428
14703,3410
14781,3394
14787,3391
14793,3389
14859,3343
14926,3298
14929,3292
14935,3289
15103,3110
16525,3110
16487,3201
16487,3388
16559,3560
16691,3693
16863,3764
17050,3765
17223,3693
17355,3561
17427,3388
17427,3201
17390,3110
18990,3110
19105,3225
19081,3249
19005,3431
19005,3607
16720,5892
16720,3909
16649,3736
16517,3603
16344,3532
16157,3532
15984,3603
15852,3735
15780,3908
15780,4095
15851,4268
15984,4400
16156,4472
16343,4472
16516,4400
16648,4268
16720,4096
16720,3909
16720,5892
16449,6163
16418,6163
16291,6216
16206,6300
16206,5815
16154,5688
16057,5591
16013,5573
16013,4616
15942,4443
15810,4311
15637,4239
15450,4239
15277,4310
15145,4442
15073,4615
15073,4802
15144,4975
15276,5107
15449,5179
15636,5179
15809,5107
15941,4975
16013,4803
16013,4616
16013,5573
15930,5538
15793,5538
15666,5591
15569,5688
15516,5814
15516,5847
15306,6057
15306,5323
15235,5150
15103,5018
14930,4946
14743,4946
14570,5017
14438,5149
14366,5322
14366,5509
14437,5682
14569,5814
14742,5886
14929,5886
15102,5815
15234,5682
15306,5510
15306,5323
15306,6057
11063,10299
11063,9565
10992,9393
10860,9260
10687,9189
10500,9188
10327,9260
10195,9392
10123,9565
10123,9752
10187,9907
10181,9901
10007,9828
9921,9883
9921,10281
9892,10311
9941,10360
9971,10331
10369,10331
10423,10245
10343,10063
10499,10128
10686,10129
10859,10057
10992,9925
11063,9752
11063,9565
11063,10299
10423,10939
10423,10486
10369,10401
9921,10401
9921,10849
10007,10903
10203,10816
10351,10660
10423,10486
10423,10939
9881,11482
9881,10421
9831,10371
9802,10401
9681,10401
9681,10331
9802,10331
9831,10360
9881,10311
9851,10281
9851,9883
9766,9828
9760,9831
9706,9777
9388,9459
9355,9445
9363,9425
9363,9228
9288,9046
9149,8907
8967,8831
8770,8831
8588,8906
8449,9046
8373,9227
8373,9424
8414,9524
8286,9471
8196,9525
8196,9949
8167,9978
8216,10028
8246,9998
8577,9998
8600,10021
8506,10021
8458,10068
8246,10068
8216,10039
8167,10088
8196,10118
8196,10409
8175,10409
8126,10429
8126,10118
8156,10088
8126,10059
8126,9998
8126,9525
8037,9471
7831,9561
7675,9724
7599,9909
7652,9998
8126,9998
8126,10059
8106,10039
8077,10068
7652,10068
7599,10158
7656,10288
7553,10246
7356,10245
7174,10321
7035,10460
6959,10642
6959,10839
7034,11021
7173,11160
7355,11235
7382,11235
7431,11285
7431,11313
7461,11385
7516,11440
7834,11758
7906,11788
7935,11788
8002,11855
8002,11873
8073,12046
8205,12178
8378,12250
8565,12250
8738,12178
8870,12046
8942,11874
8942,11687
8871,11514
8739,11382
8573,11313
8573,11246
8298,10971
8293,10976
8243,10927
8249,10921
7974,10646
7949,10646
7949,10642
7908,10542
8023,10590
8023,10597
8298,10872
8502,10668
8502,10574
8452,10523
8451,10523
8491,10505
8536,10459
8577,10500
8670,10500
8874,10296
8869,10290
8918,10240
8924,10246
8930,10240
8979,10290
8973,10296
8979,10301
8930,10351
8924,10345
8720,10549
8720,10643
8770,10693
8832,10755
8781,10806
8767,10839
8696,10767
8646,10717
8552,10717
8348,10921
8623,11196
8716,11196
8720,11192
8780,11339
8913,11471
9085,11543
9272,11543
9445,11471
9577,11339
9649,11167
9649,10980
9643,10964
9661,10937
9661,10937
9675,10865
9766,10903
9851,10849
9851,10450
9881,10421
9881,11482
9851,11511
8942,12421
8235,13128
8235,12394
8164,12221
8031,12089
7859,12017
7672,12017
7499,12088
7367,12220
7295,12393
7295,12580
7366,12753
7498,12885
7671,12957
7858,12957
8031,12886
8163,12754
8235,12581
8235,12394
8235,13128
5994,15369
5994,15253
5941,15126
5848,15032
5909,15007
6042,14875
6113,14702
6114,14515
6042,14342
5910,14210
5737,14138
5624,14138
5624,11496
6081,11040
6081,13507
5952,13635
5881,13807
5881,13994
5952,14167
6084,14299
6257,14371
6444,14371
6617,14300
6749,14168
6821,13995
6821,13808
6749,13635
6621,13506
6621,13367
6659,13460
6791,13592
6964,13664
7151,13664
7324,13593
7456,13461
7528,13288
7528,13101
7456,12928
7324,12796
7152,12724
6965,12724
6792,12795
6660,12927
6621,13021
6621,10660
6859,10421
6918,10334
6918,10334
6938,10230
6938,9592
6991,9570
7151,9410
7238,9201
7238,8974
7222,8935
7260,8951
7487,8951
7696,8865
7857,8704
7879,8651
10913,8651
10942,8646
10902,8685
10830,8857
10830,9044
10902,9217
11034,9350
11207,9421
11393,9421
11566,9350
11699,9218
11770,9045
11770,8858
11699,8686
11567,8553
11394,8481
11207,8481
11186,8490
11546,8130
11538,8150
11537,8337
11609,8510
11741,8642
11914,8714
12101,8714
12273,8643
12406,8511
12477,8338
12478,8151
12406,7978
12274,7846
12101,7774
11914,7774
11893,7783
12253,7423
12245,7443
12245,7630
12316,7803
12448,7935
12621,8007
12808,8007
12981,7936
13113,7804
13185,7631
13185,7444
13113,7271
12981,7139
12809,7067
12622,7067
12600,7076
12960,6716
12952,6736
12952,6923
13023,7096
13155,7228
13328,7300
13515,7300
13688,7229
13820,7097
13892,6924
13892,6737
13820,6564
13688,6432
13595,6393
13734,6393
13862,6521
14035,6593
14222,6593
14395,6522
14527,6390
14599,6217
14599,6030
14528,5857
14395,5725
14223,5653
14036,5653
13863,5724
13734,5853
13704,5853
13736,5820
13789,5693
13789,5556
13737,5429
13640,5332
13513,5279
13481,5279
11705,3503
11617,3445
11514,3424
10646,3424
10543,3445
10456,3503
10367,3592
10315,3570
10132,3570
10132,3569
10132,3296
10031,3062
9849,2885
9630,2795
9529,2847
9529,3398
10079,3398
10132,3296
10132,3569
10079,3468
9578,3468
9549,3438
9500,3488
9529,3517
9529,4018
9630,4071
9631,4071
9631,4253
9648,4294
9608,4277
9488,4277
9488,3488
9459,3458
9459,3398
9459,2847
9357,2795
9124,2895
8946,3078
8856,3296
8909,3398
9459,3398
9459,3458
9439,3438
9409,3468
8909,3468
8879,3525
8822,3555
8822,4055
8792,4085
8842,4134
8871,4105
9372,4105
9402,4048
9459,4018
9459,3517
9488,3488
9488,4277
9459,4277
9425,4277
9425,4276
9372,4175
8871,4175
8842,4145
8792,4195
8822,4224
8822,4725
8923,4778
8924,4778
8924,4960
8941,5001
8901,4984
8781,4984
8781,4195
8752,4165
8752,4105
8752,3555
8650,3502
8417,3603
8239,3785
8149,4003
8202,4105
8752,4105
8752,4165
8732,4145
8702,4175
8202,4175
8172,4232
8115,4262
8115,4762
8085,4792
8135,4841
8164,4812
8665,4812
8695,4755
8752,4725
8752,4224
8781,4195
8781,4984
8752,4984
8718,4984
8718,4983
8665,4882
8164,4882
8135,4852
8085,4902
8115,4931
8115,5432
8216,5485
8217,5485
8217,5667
8233,5706
8195,5690
8074,5690
8074,4902
8045,4873
8045,4812
8045,4262
7943,4209
7709,4310
7532,4492
7442,4710
7495,4812
8045,4812
8045,4873
8025,4852
7995,4882
7495,4882
7465,4938
7409,4967
7409,5468
7380,5498
7429,5547
7458,5518
7959,5518
7988,5461
8045,5432
8045,4931
8074,4902
8074,5690
8045,5690
8012,5690
8012,5689
7959,5588
7458,5588
7429,5558
7380,5608
7409,5637
7409,6138
7510,6191
7511,6191
7511,6373
7528,6414
7488,6397
7368,6397
7368,5608
7339,5578
7339,5518
7339,4967
7237,4915
7004,5015
6826,5198
6736,5416
6789,5518
7339,5518
7339,5578
7319,5558
7289,5588
6789,5588
6759,5645
6702,5675
6702,6175
6672,6205
6722,6254
6751,6225
7252,6225
7282,6168
7339,6138
7339,5637
7368,5608
7368,6397
7339,6397
7305,6397
7305,6396
7252,6295
6751,6295
6722,6265
6672,6315
6702,6344
6702,6845
6803,6898
6804,6898
6804,7080
6821,7121
6781,7104
6661,7104
6661,6315
6632,6285
6632,6225
6632,5675
6530,5622
6297,5723
6119,5905
6029,6123
6082,6225
6632,6225
6632,6285
6612,6265
6582,6295
6082,6295
6052,6352
5995,6382
5995,6882
5965,6912
6015,6961
6044,6932
6545,6932
6575,6875
6632,6845
6632,6344
6661,6315
6661,7104
6632,7104
6598,7104
6598,7103
6545,7002
6044,7002
6015,6972
5965,7022
5995,7051
5995,7552
6096,7605
6097,7605
6097,7787
6113,7826
6075,7810
5954,7810
5954,7022
5925,6993
5925,6932
5925,6382
5823,6329
5589,6430
5412,6612
5322,6830
5375,6932
5925,6932
5925,6993
5905,6972
5875,7002
5375,7002
5345,7058
5289,7087
5289,7588
5260,7618
5309,7667
5338,7638
5839,7638
5868,7581
5925,7552
5925,7051
5954,7022
5954,7810
5925,7810
5892,7810
5892,7809
5839,7708
5338,7708
5309,7678
5260,7728
5289,7757
5289,8258
5390,8311
5391,8311
5391,8493
5408,8534
5368,8517
5248,8517
5248,7728
5219,7698
5219,7638
5219,7087
5117,7035
4884,7135
4706,7318
4616,7536
4669,7638
5219,7638
5219,7698
5199,7678
5169,7708
4669,7708
4639,7765
4582,7795
4582,8295
4552,8325
4602,8374
4631,8345
5132,8345
5162,8288
5219,8258
5219,7757
5248,7728
5248,8517
5219,8517
5185,8517
5185,8516
5132,8415
4631,8415
4602,8385
4552,8435
4582,8464
4582,8965
4683,9018
4684,9018
4684,9200
4701,9241
4661,9224
4541,9224
4541,8435
4512,8405
4512,8345
4512,7795
4410,7742
4177,7843
3999,8025
3909,8243
3962,8345
4512,8345
4512,8405
4492,8385
4462,8415
3962,8415
3932,8472
3875,8502
3875,9002
3845,9032
3895,9081
3924,9052
4425,9052
4455,8995
4512,8965
4512,8464
4541,8435
4541,9224
4512,9224
4478,9224
4478,9223
4425,9122
3924,9122
3895,9092
3845,9142
3875,9171
3875,9672
3976,9725
3977,9725
3977,9907
4063,10116
4224,10277
4433,10364
4660,10364
4701,10347
4684,10387
4684,10614
4744,10760
4744,11621
4725,11613
4647,11613
4366,11613
4336,11584
4239,11543
4112,11543
4046,11610
4046,11998
4054,11998
4054,12068
4046,12068
4046,12457
4112,12523
4239,12523
4336,12483
4366,12453
4375,12453
4725,12453
4744,12445
4744,14686
4765,14790
4811,14859
4671,14917
4538,15049
4467,15221
4466,15408
4538,15581
4670,15714
4843,15785
5030,15785
5202,15714
5335,15582
5360,15520
5453,15613
5580,15666
5697,15666
4699,16663
4699,15929
4628,15757
4496,15624
4323,15553
4136,15552
3963,15624
3831,15756
3759,15929
3759,16116
3831,16288
3963,16421
4135,16492
4322,16493
4495,16421
4628,16289
4699,16116
4699,15929
4699,16663
3992,17370
3992,16636
3921,16464
3789,16331
3616,16260
3429,16259
3256,16331
3124,16463
3052,16636
3052,16823
3124,16995
3256,17128
3428,17199
3615,17200
3788,17128
3920,16996
3992,16823
3992,16636
3992,17370
3674,17688
3643,17688
3516,17741
3419,17838
3366,17964
3366,18102
3418,18229
3515,18326
3642,18378
3779,18378
3906,18326
4003,18229
4056,18102
4056,18070
15898,6228
15929,6228
16056,6176
16153,6079
16206,5952
16206,5815
16206,6300
16194,6313
16141,6439
16141,6577
16193,6704
16290,6801
16417,6853
16554,6853
16681,6801
16778,6704
16831,6577
16831,6545
19366,4010
19402,4025
19598,4025
19780,3950
19805,3925
19812,3932
" /> 
</g>
<g style="fill:#00A000; fill-opacity:0.0; 
stroke:#00A000; stroke-width:130; stroke-opacity:1; 
stroke-linecap:round; stroke-linejoin:round;">
<polyline fill="none;"
points="19812,3932
19788,3956
19713,4138
19712,4335
19717,4346
17770,6292
17712,6380
17691,6483
17691,7722
15885,9528
15879,9513
15782,9416
15655,9363
15518,9363
15391,9416
15294,9513
15241,9639
15241,9672
14710,10202
14217,10696
14204,10663
14107,10566
14092,10560
15823,8828
15829,8828
15956,8776
16053,8679
16106,8552
16106,8415
16054,8288
15957,8191
15830,8138
15693,8138
15566,8191
15545,8212
15497,8103
15335,7948
15150,7871
15060,7925
15060,8399
15423,8399
15416,8414
15416,8469
15110,8469
15080,8439
15031,8489
15060,8518
15060,8827
14990,8897
14990,8518
15020,8489
14990,8459
14990,8399
14990,7925
14901,7871
14695,7962
14540,8124
14463,8309
14517,8399
14990,8399
14990,8459
14970,8439
14941,8469
14517,8469
14463,8558
14520,8689
14417,8646
14220,8646
14038,8721
13899,8860
13823,9042
13823,9239
13898,9421
14037,9560
14219,9636
14252,9636
14106,9781
14106,9750
14031,9568
13892,9428
13710,9353
13513,9353
13331,9428
13192,9567
13116,9749
13116,9946
13191,10128
13330,10267
13512,10343
13545,10343
13399,10489
13399,10457
13324,10275
13185,10136
13003,10060
12806,10060
12624,10135
12485,10274
12409,10456
12409,10653
12484,10835
12623,10974
12805,11050
12838,11050
12692,11196
12692,11164
12617,10982
12478,10843
12296,10767
12099,10767
11917,10842
11777,10981
11702,11163
11702,11360
11777,11542
11916,11681
12098,11757
12131,11757
11985,11903
11985,11871
11910,11689
11771,11550
11589,11474
11392,11474
11210,11549
11070,11688
10995,11870
10995,12067
11070,12249
11209,12389
11391,12464
11424,12464
11278,12610
11278,12578
11203,12396
11063,12257
10882,12181
10685,12181
10503,12256
10363,12396
10288,12577
10288,12774
10363,12956
10502,13096
10684,13171
10716,13171
10571,13317
10571,13285
10495,13103
10356,12964
10174,12888
9978,12888
9796,12963
9656,13103
9581,13284
9580,13481
9656,13663
9795,13803
9977,13878
10009,13878
9863,14024
9864,13992
9788,13810
9649,13671
9467,13596
9270,13595
9088,13671
8949,13810
8874,13992
8873,14189
8949,14371
9088,14510
9270,14585
9302,14585
9156,14731
9156,14700
9081,14518
8942,14378
8760,14303
8563,14302
8381,14378
8242,14517
8166,14699
8166,14896
8241,15078
8381,15217
8562,15292
8595,15293
4706,19181
4429,19181
4326,19202
4238,19260
4180,19319
4127,19193
3988,19053
3806,18978
3609,18978
3427,19053
3288,19192
3213,19374
3212,19571
3254,19671
3125,19617
3035,19671
3035,20095
3006,20125
3055,20174
3085,20145
3341,20145
3341,20172
3298,20215
3085,20215
3055,20185
3006,20235
3035,20264
3035,20477
2965,20547
2965,20264
2995,20235
2945,20185
2916,20215
2788,20215
2788,20145
2916,20145
2945,20174
2995,20125
2965,20095
2965,19671
2876,19617
2788,19656
2788,12450
2797,12453
2875,12453
3225,12453
3261,12438
3297,12453
3375,12453
3656,12453
3686,12483
3784,12523
3910,12523
3976,12457
3976,12068
3968,12068
3968,11998
3976,11998
3976,11610
3910,11543
3805,11543
3805,9672
3805,9122
3805,9052
3805,8502
3703,8449
3469,8550
3292,8732
3202,8950
3255,9052
3805,9052
3805,9122
3255,9122
3202,9223
3302,9457
3485,9635
3703,9725
3805,9672
3805,11543
3784,11543
3686,11584
3656,11613
3647,11613
3297,11613
3261,11628
3225,11613
3147,11613
2797,11613
2788,11617
2788,3159
2836,2919
2959,2736
3144,2612
3381,2565
12659,2565
12549,2674
12466,2874
12466,3091
12549,3292
12702,3445
12902,3528
13119,3528
13319,3446
13337,3428
14611,3428
14618,3427
14624,3428
14703,3410
14781,3394
14787,3391
14793,3389
14859,3343
14926,3298
14929,3292
14935,3289
15103,3110
16525,3110
16487,3201
16487,3388
16559,3560
16691,3693
16863,3764
17050,3765
17223,3693
17355,3561
17427,3388
17427,3201
17390,3110
18990,3110
19105,3225
19081,3249
19005,3431
19005,3607
16720,5892
16720,3909
16649,3736
16517,3603
16344,3532
16157,3532
15984,3603
15852,3735
15780,3908
15780,4095
15851,4268
15984,4400
16156,4472
16343,4472
16516,4400
16648,4268
16720,4096
16720,3909
16720,5892
16449,6163
16418,6163
16291,6216
16206,6300
16206,5815
16154,5688
16057,5591
16013,5573
16013,4616
15942,4443
15810,4311
15637,4239
15450,4239
15277,4310
15145,4442
15073,4615
15073,4802
15144,4975
15276,5107
15449,5179
15636,5179
15809,5107
15941,4975
16013,4803
16013,4616
16013,5573
15930,5538
15793,5538
15666,5591
15569,5688
15516,5814
15516,5847
15306,6057
15306,5323
15235,5150
15103,5018
14930,4946
14743,4946
14570,5017
14438,5149
14366,5322
14366,5509
14437,5682
14569,5814
14742,5886
14929,5886
15102,5815
15234,5682
15306,5510
15306,5323
15306,6057
11063,10299
11063,9565
10992,9393
10860,9260
10687,9189
10500,9188
10327,9260
10195,9392
10123,9565
10123,9752
10187,9907
10181,9901
10007,9828
9921,9883
9921,10281
9892,10311
9941,10360
9971,10331
10369,10331
10423,10245
10343,10063
10499,10128
10686,10129
10859,10057
10992,9925
11063,9752
11063,9565
11063,10299
10423,10939
10423,10486
10369,10401
9921,10401
9921,10849
10007,10903
10203,10816
10351,10660
10423,10486
10423,10939
9881,11482
9881,10421
9831,10371
9802,10401
9681,10401
9681,10331
9802,10331
9831,10360
9881,10311
9851,10281
9851,9883
9766,9828
9760,9831
9706,9777
9388,9459
9355,9445
9363,9425
9363,9228
9288,9046
9149,8907
8967,8831
8770,8831
8588,8906
8449,9046
8373,9227
8373,9424
8414,9524
8286,9471
8196,9525
8196,9949
8167,9978
8216,10028
8246,9998
8577,9998
8600,10021
8506,10021
8458,10068
8246,10068
8216,10039
8167,10088
8196,10118
8196,10409
8175,10409
8126,10429
8126,10118
8156,10088
8126,10059
8126,9998
8126,9525
8037,9471
7831,9561
7675,9724
7599,9909
7652,9998
8126,9998
8126,10059
8106,10039
8077,10068
7652,10068
7599,10158
7656,10288
7553,10246
7356,10245
7174,10321
7035,10460
6959,10642
6959,10839
7034,11021
7173,11160
7355,11235
7382,11235
7431,11285
7431,11313
7461,11385
7516,11440
7834,11758
7906,11788
7935,11788
8002,11855
8002,11873
8073,12046
8205,12178
8378,12250
8565,12250
8738,12178
8870,12046
8942,11874
8942,11687
8871,11514
8739,11382
8573,11313
8573,11246
8298,10971
8293,10976
8243,10927
8249,10921
7974,10646
7949,10646
7949,10642
7908,10542
8023,10590
8023,10597
8298,10872
8502,10668
8502,10574
8452,10523
8451,10523
8491,10505
8536,10459
8577,10500
8670,10500
8874,10296
8869,10290
8918,10240
8924,10246
8930,10240
8979,10290
8973,10296
8979,10301
8930,10351
8924,10345
8720,10549
8720,10643
8770,10693
8832,10755
8781,10806
8767,10839
8696,10767
8646,10717
8552,10717
8348,10921
8623,11196
8716,11196
8720,11192
8780,11339
8913,11471
9085,11543
9272,11543
9445,11471
9577,11339
9649,11167
9649,10980
9643,10964
9661,10937
9661,10937
9675,10865
9766,10903
9851,10849
9851,10450
9881,10421
9881,11482
9851,11511
8942,12421
8235,13128
8235,12394
8164,12221
8031,12089
7859,12017
7672,12017
7499,12088
7367,12220
7295,12393
7295,12580
7366,12753
7498,12885
7671,12957
7858,12957
8031,12886
8163,12754
8235,12581
8235,12394
8235,13128
5994,15369
5994,15253
5941,15126
5848,15032
5909,15007
6042,14875
6113,14702
6114,14515
6042,14342
5910,14210
5737,14138
5624,14138
5624,11496
6081,11040
6081,13507
5952,13635
5881,13807
5881,13994
5952,14167
6084,14299
6257,14371
6444,14371
6617,14300
6749,14168
6821,13995
6821,13808
6749,13635
6621,13506
6621,13367
6659,13460
6791,13592
6964,13664
7151,13664
7324,13593
7456,13461
7528,13288
7528,13101
7456,12928
7324,12796
7152,12724
6965,12724
6792,12795
6660,12927
6621,13021
6621,10660
6859,10421
6918,10334
6918,10334
6938,10230
6938,9592
6991,9570
7151,9410
7238,9201
7238,8974
7222,8935
7260,8951
7487,8951
7696,8865
7857,8704
7879,8651
10913,8651
10942,8646
10902,8685
10830,8857
10830,9044
10902,9217
11034,9350
11207,9421
11393,9421
11566,9350
11699,9218
11770,9045
11770,8858
11699,8686
11567,8553
11394,8481
11207,8481
11186,8490
11546,8130
11538,8150
11537,8337
11609,8510
11741,8642
11914,8714
12101,8714
12273,8643
12406,8511
12477,8338
12478,8151
12406,7978
12274,7846
12101,7774
11914,7774
11893,7783
12253,7423
12245,7443
12245,7630
12316,7803
12448,7935
12621,8007
12808,8007
12981,7936
13113,7804
13185,7631
13185,7444
13113,7271
12981,7139
12809,7067
12622,7067
12600,7076
12960,6716
12952,6736
12952,6923
13023,7096
13155,7228
13328,7300
13515,7300
13688,7229
13820,7097
13892,6924
13892,6737
13820,6564
13688,6432
13595,6393
13734,6393
13862,6521
14035,6593
14222,6593
14395,6522
14527,6390
14599,6217
14599,6030
14528,5857
14395,5725
14223,5653
14036,5653
13863,5724
13734,5853
13704,5853
13736,5820
13789,5693
13789,5556
13737,5429
13640,5332
13513,5279
13481,5279
11705,3503
11617,3445
11514,3424
10646,3424
10543,3445
10456,3503
10367,3592
10315,3570
10132,3570
10132,3569
10132,3296
10031,3062
9849,2885
9630,2795
9529,2847
9529,3398
10079,3398
10132,3296
10132,3569
10079,3468
9578,3468
9549,3438
9500,3488
9529,3517
9529,4018
9630,4071
9631,4071
9631,4253
9648,4294
9608,4277
9488,4277
9488,3488
9459,3458
9459,3398
9459,2847
9357,2795
9124,2895
8946,3078
8856,3296
8909,3398
9459,3398
9459,3458
9439,3438
9409,3468
8909,3468
8879,3525
8822,3555
8822,4055
8792,4085
8842,4134
8871,4105
9372,4105
9402,4048
9459,4018
9459,3517
9488,3488
9488,4277
9459,4277
9425,4277
9425,4276
9372,4175
8871,4175
8842,4145
8792,4195
8822,4224
8822,4725
8923,4778
8924,4778
8924,4960
8941,5001
8901,4984
8781,4984
8781,4195
8752,4165
8752,4105
8752,3555
8650,3502
8417,3603
8239,3785
8149,4003
8202,4105
8752,4105
8752,4165
8732,4145
8702,4175
8202,4175
8172,4232
8115,4262
8115,4762
8085,4792
8135,4841
8164,4812
8665,4812
8695,4755
8752,4725
8752,4224
8781,4195
8781,4984
8752,4984
8718,4984
8718,4983
8665,4882
8164,4882
8135,4852
8085,4902
8115,4931
8115,5432
8216,5485
8217,5485
8217,5667
8233,5706
8195,5690
8074,5690
8074,4902
8045,4873
8045,4812
8045,4262
7943,4209
7709,4310
7532,4492
7442,4710
7495,4812
8045,4812
8045,4873
8025,4852
7995,4882
7495,4882
7465,4938
7409,4967
7409,5468
7380,5498
7429,5547
7458,5518
7959,5518
7988,5461
8045,5432
8045,4931
8074,4902
8074,5690
8045,5690
8012,5690
8012,5689
7959,5588
7458,5588
7429,5558
7380,5608
7409,5637
7409,6138
7510,6191
7511,6191
7511,6373
7528,6414
7488,6397
7368,6397
7368,5608
7339,5578
7339,5518
7339,4967
7237,4915
7004,5015
6826,5198
6736,5416
6789,5518
7339,5518
7339,5578
7319,5558
7289,5588
6789,5588
6759,5645
6702,5675
6702,6175
6672,6205
6722,6254
6751,6225
7252,6225
7282,6168
7339,6138
7339,5637
7368,5608
7368,6397
7339,6397
7305,6397
7305,6396
7252,6295
6751,6295
6722,6265
6672,6315
6702,6344
6702,6845
6803,6898
6804,6898
6804,7080
6821,7121
6781,7104
6661,7104
6661,6315
6632,6285
6632,6225
6632,5675
6530,5622
6297,5723
6119,5905
6029,6123
6082,6225
6632,6225
6632,6285
6612,6265
6582,6295
6082,6295
6052,6352
5995,6382
5995,6882
5965,6912
6015,6961
6044,6932
6545,6932
6575,6875
6632,6845
6632,6344
6661,6315
6661,7104
6632,7104
6598,7104
6598,7103
6545,7002
6044,7002
6015,6972
5965,7022
5995,7051
5995,7552
6096,7605
6097,7605
6097,7787
6113,7826
6075,7810
5954,7810
5954,7022
5925,6993
5925,6932
5925,6382
5823,6329
5589,6430
5412,6612
5322,6830
5375,6932
5925,6932
5925,6993
5905,6972
5875,7002
5375,7002
5345,7058
5289,7087
5289,7588
5260,7618
5309,7667
5338,7638
5839,7638
5868,7581
5925,7552
5925,7051
5954,7022
5954,7810
5925,7810
5892,7810
5892,7809
5839,7708
5338,7708
5309,7678
5260,7728
5289,7757
5289,8258
5390,8311
5391,8311
5391,8493
5408,8534
5368,8517
5248,8517
5248,7728
5219,7698
5219,7638
5219,7087
5117,7035
4884,7135
4706,7318
4616,7536
4669,7638
5219,7638
5219,7698
5199,7678
5169,7708
4669,7708
4639,7765
4582,7795
4582,8295
4552,8325
4602,8374
4631,8345
5132,8345
5162,8288
5219,8258
5219,7757
5248,7728
5248,8517
5219,8517
5185,8517
5185,8516
5132,8415
4631,8415
4602,8385
4552,8435
4582,8464
4582,8965
4683,9018
4684,9018
4684,9200
4701,9241
4661,9224
4541,9224
4541,8435
4512,8405
4512,8345
4512,7795
4410,7742
4177,7843
3999,8025
3909,8243
3962,8345
4512,8345
4512,8405
4492,8385
4462,8415
3962,8415
3932,8472
3875,8502
3875,9002
3845,9032
3895,9081
3924,9052
4425,9052
4455,8995
4512,8965
4512,8464
4541,8435
4541,9224
4512,9224
4478,9224
4478,9223
4425,9122
3924,9122
3895,9092
3845,9142
3875,9171
3875,9672
3976,9725
3977,9725
3977,9907
4063,10116
4224,10277
4433,10364
4660,10364
4701,10347
4684,10387
4684,10614
4744,10760
4744,11621
4725,11613
4647,11613
4366,11613
4336,11584
4239,11543
4112,11543
4046,11610
4046,11998
4054,11998
4054,12068
4046,12068
4046,12457
4112,12523
4239,12523
4336,12483
4366,12453
4375,12453
4725,12453
4744,12445
4744,14686
4765,14790
4811,14859
4671,14917
4538,15049
4467,15221
4466,15408
4538,15581
4670,15714
4843,15785
5030,15785
5202,15714
5335,15582
5360,15520
5453,15613
5580,15666
5697,15666
4699,16663
4699,15929
4628,15757
4496,15624
4323,15553
4136,15552
3963,15624
3831,15756
3759,15929
3759,16116
3831,16288
3963,16421
4135,16492
4322,16493
4495,16421
4628,16289
4699,16116
4699,15929
4699,16663
3992,17370
3992,16636
3921,16464
3789,16331
3616,16260
3429,16259
3256,16331
3124,16463
3052,16636
3052,16823
3124,16995
3256,17128
3428,17199
3615,17200
3788,17128
3920,16996
3992,16823
3992,16636
3992,17370
3674,17688
3643,17688
3516,17741
3419,17838
3366,17964
3366,18102
3418,18229
3515,18326
3642,18378
3779,18378
3906,18326
4003,18229
4056,18102
4056,18070
15898,6228
15929,6228
16056,6176
16153,6079
16206,5952
16206,5815
16206,6300
16194,6313
16141,6439
16141,6577
16193,6704
16290,6801
16417,6853
16554,6853
16681,6801
16778,6704
16831,6577
16831,6545
19366,4010
19402,4025
19598,4025
19780,3950
19805,3925
19812,3932
" /> 
</g>
<g style="fill:#00A000; fill-opacity:1.0; 
stroke:#00A000; stroke-width:39.3701; stroke-opacity:1; 
stroke-linecap:round; stroke-linejoin:round;">
<polyline style="fill-rule:evenodd;"
points="22044,21228
21997,21464
21873,21650
21737,21741
21737,16617
21707,16588
21707,16527
21707,16053
21650,16019
21650,14826
21650,14553
21550,14320
21367,14142
21149,14052
21047,14105
21047,14655
21598,14655
21650,14553
21650,14826
21598,14725
21047,14725
21047,15275
21149,15328
21383,15227
21560,15045
21650,14826
21650,16019
21618,16000
21412,16090
21257,16252
21180,16438
21234,16527
21707,16527
21707,16588
21687,16568
21658,16597
21234,16597
21180,16687
21237,16817
21134,16774
21007,16774
21007,14745
20957,14695
20928,14725
20427,14725
20397,14782
20340,14812
20340,15312
20311,15342
20360,15391
20390,15362
20891,15362
20920,15305
20977,15275
20977,14774
21007,14745
21007,16774
20977,16774
20943,16774
20943,15533
20891,15432
20340,15432
20340,15982
20442,16035
20676,15934
20853,15752
20943,15533
20943,16774
20937,16774
20755,16849
20616,16988
20540,17170
20540,17367
20615,17549
20755,17689
20936,17764
21133,17764
21315,17689
21455,17550
21530,17368
21530,17171
21489,17071
21618,17125
21707,17071
21707,16647
21737,16617
21737,21741
21707,21760
21689,21772
21450,21820
20823,21820
20823,17878
20748,17696
20609,17557
20427,17481
20300,17481
20300,15452
20250,15402
20221,15432
19720,15432
19690,15489
19633,15519
19633,16020
19604,16049
19653,16098
19683,16069
20183,16069
20213,16012
20270,15982
20270,15481
20300,15452
20300,17481
20270,17481
20236,17481
20236,16241
20183,16139
19633,16139
19633,16689
19735,16742
19968,16641
20146,16459
20236,16241
20236,17481
20230,17481
20048,17556
19909,17696
19833,17877
19833,18074
19908,18256
20047,18396
20229,18471
20426,18471
20608,18396
20748,18257
20823,18075
20823,17878
20823,21820
20116,21820
20116,18585
20041,18403
19902,18264
19720,18188
19593,18188
19593,16159
19543,16110
19514,16139
19013,16139
18984,16195
18927,16225
18927,16725
18898,16755
18947,16804
18977,16775
19478,16775
19507,16719
19563,16689
19563,16189
19593,16159
19593,18188
19563,18188
19530,18188
19530,16946
19478,16845
18927,16845
18927,17395
19029,17448
19263,17347
19440,17165
19530,16946
19530,18188
19523,18188
19341,18263
19202,18403
19126,18584
19126,18781
19201,18963
19340,19103
19522,19178
19719,19178
19901,19103
20040,18964
20116,18782
20116,18585
20116,21820
19409,21820
19409,19292
19334,19110
19195,18971
19013,18896
18887,18895
18887,16865
18837,16815
18808,16845
18307,16845
18277,16902
18220,16932
18220,17432
18191,17462
18240,17511
18270,17482
18771,17482
18800,17425
18857,17395
18857,16894
18887,16865
18887,18895
18857,18895
18823,18895
18823,17653
18771,17552
18220,17552
18220,18102
18322,18155
18556,18054
18733,17872
18823,17653
18823,18895
18816,18895
18634,18971
18495,19110
18419,19292
18419,19489
18494,19671
18633,19810
18815,19885
19012,19886
19194,19810
19333,19671
19409,19489
19409,19292
19409,21820
17184,21820
17212,21793
17288,21611
17288,21414
17213,21232
17073,21092
17031,21075
17076,21075
17080,21085
17219,21224
17401,21300
17598,21300
17780,21225
17919,21085
17995,20904
17995,20707
17920,20525
17781,20385
17738,20368
17783,20368
17787,20378
17926,20517
18108,20592
18305,20593
18487,20517
18626,20378
18702,20196
18702,20000
18627,19818
18488,19678
18306,19603
18180,19603
18180,17572
18130,17522
18101,17552
17600,17552
17570,17609
17513,17639
17513,18140
17484,18169
17533,18218
17563,18189
18063,18189
18093,18132
18150,18102
18150,17601
18180,17572
18180,19603
18150,19603
18116,19603
18116,18361
18063,18259
17513,18259
17513,18809
17615,18862
17848,18761
18026,18579
18116,18361
18116,19603
18109,19602
17927,19678
17787,19817
17783,19828
17473,19828
17473,18279
17423,18230
17394,18259
16893,18259
16864,18315
16807,18345
16807,18845
16778,18875
16827,18924
16857,18895
17358,18895
17387,18839
17443,18809
17443,18309
17473,18279
17473,19828
17443,19828
17410,19828
17410,19066
17358,18965
16807,18965
16807,19515
16909,19568
17143,19467
17320,19285
17410,19066
17410,19828
16767,19828
16767,18985
16717,18935
16688,18965
16187,18965
16157,19022
16100,19052
16100,19552
16071,19582
16120,19631
16150,19602
16651,19602
16680,19545
16737,19515
16737,19014
16767,18985
16767,19828
16737,19828
16681,19828
16703,19773
16651,19672
16150,19672
16120,19642
16071,19692
16100,19721
16100,20172
16060,20213
16060,19692
16010,19642
15981,19672
15480,19672
15450,19729
15393,19759
15393,20260
15364,20289
15413,20338
15443,20309
15943,20309
15973,20252
16030,20222
16030,19721
16060,19692
16060,20213
16030,20242
15894,20379
15443,20379
15413,20350
15364,20399
15393,20429
15393,20879
15323,20949
15323,20929
15323,20379
14773,20379
14720,20481
14821,20714
15003,20892
15222,20982
15323,20929
15323,20949
15279,20993
11063,20993
11063,18051
10992,17878
10860,17746
10687,17674
10500,17674
10327,17745
10195,17877
10123,18050
10123,18237
10195,18410
10327,18542
10499,18614
10686,18614
10859,18542
10992,18410
11063,18238
11063,18051
11063,20993
10356,20993
10356,18758
10285,18585
10153,18453
9980,18381
9793,18381
9620,18452
9488,18584
9416,18757
9416,18944
9488,19117
9620,19249
9792,19321
9979,19321
10152,19250
10284,19117
10356,18945
10356,18758
10356,20993
9649,20993
9649,19465
9578,19292
9446,19160
9273,19088
9086,19088
8913,19159
8781,19291
8709,19464
8709,19651
8780,19824
8913,19956
9085,20028
9272,20028
9445,19957
9577,19825
9649,19652
9649,19465
9649,20993
8853,20993
8586,20727
8738,20664
8870,20532
8942,20359
8942,20172
8871,19999
8739,19867
8566,19795
8379,19795
8206,19866
8074,19999
8010,20151
7821,19962
7821,19532
11531,15822
11526,15834
11526,15972
11578,16099
11675,16196
11802,16248
11834,16248
11866,16280
11742,16331
11609,16463
11538,16636
11537,16823
11609,16995
11741,17128
11914,17199
12101,17200
12273,17128
12406,16996
12457,16872
12743,17157
12624,17206
12485,17345
12409,17527
12409,17724
12484,17906
12623,18045
12805,18121
13002,18121
13184,18046
13323,17907
13373,17787
13584,17998
13055,18527
12997,18615
12976,18718
12976,19218
12997,19322
13055,19409
13436,19790
13436,19822
13488,19949
13585,20046
13700,20093
13368,20093
13356,20066
13209,19919
13016,19838
12807,19838
12692,19886
12692,18235
12617,18053
12478,17914
12296,17838
12099,17838
11917,17913
11777,18052
11770,18069
11770,17344
11699,17171
11567,17038
11394,16967
11207,16967
11035,17038
10902,17170
10830,17343
10830,17530
10902,17703
11034,17835
11207,17907
11393,17907
11566,17835
11699,17703
11770,17531
11770,17344
11770,18069
11702,18234
11702,18431
11777,18613
11916,18753
12098,18828
12295,18828
12477,18753
12616,18614
12692,18432
12692,18235
12692,19886
12614,19918
12466,20066
12411,20199
12356,20066
12209,19919
12016,19838
11807,19838
11614,19918
11466,20066
11386,20258
11386,20467
11466,20660
11613,20808
11806,20888
12015,20888
12208,20809
12356,20661
12411,20528
12466,20660
12613,20808
12806,20888
13015,20888
13208,20809
13356,20661
13367,20633
13925,20633
14028,20613
14028,20613
14116,20554
14485,20185
14537,20207
14720,20207
14720,20208
14773,20309
15274,20309
15303,20338
15353,20289
15323,20260
15323,19759
15222,19706
15221,19706
15221,19524
15204,19483
15244,19500
15427,19500
15427,19500
15480,19602
15981,19602
16010,19631
16060,19582
16030,19552
16030,19052
15929,18999
15928,18999
15928,18817
15911,18776
15951,18793
16135,18793
16134,18793
16187,18895
16688,18895
16717,18924
16767,18875
16737,18845
16737,18345
16636,18292
16635,18292
16635,18110
16619,18071
16657,18087
16840,18087
16840,18088
16893,18189
17394,18189
17423,18218
17473,18169
17443,18140
17443,17639
17342,17586
17341,17586
17341,17404
17324,17363
17364,17380
17547,17380
17547,17380
17600,17482
18101,17482
18130,17511
18180,17462
18150,17432
18150,16932
18049,16879
18048,16879
18048,16697
18031,16656
18071,16673
18255,16673
18254,16673
18307,16775
18808,16775
18837,16804
18887,16755
18857,16725
18857,16225
18756,16172
18755,16172
18755,15990
18739,15951
18777,15967
18960,15967
18960,15968
19013,16069
19514,16069
19543,16098
19593,16049
19563,16020
19563,15519
19462,15466
19461,15466
19461,15284
19444,15243
19484,15260
19667,15260
19667,15260
19720,15362
20221,15362
20250,15391
20300,15342
20270,15312
20270,14812
20169,14759
20168,14759
20168,14577
20151,14536
20191,14553
20375,14553
20374,14553
20427,14655
20928,14655
20957,14684
21007,14635
20977,14605
20977,14105
20876,14052
20875,14052
20875,13870
20789,13660
20629,13500
20419,13413
20192,13413
20151,13430
20168,13389
20168,13163
20082,12953
19921,12793
19712,12706
19641,12706
20191,12155
20191,12276
20262,12449
20394,12582
20567,12653
20754,12653
20927,12582
21059,12450
21124,12295
21124,12304
21196,12478
21295,12500
21612,12183
21295,11867
21196,11889
21124,12074
21060,11917
20928,11785
20755,11713
20633,11713
20693,11653
20754,11653
20927,11582
21059,11450
21131,11277
21131,11090
21060,10917
20928,10785
20755,10713
20568,10713
20395,10785
20263,10917
20191,11089
20191,11276
20225,11358
19056,12527
19056,11871
18981,11689
18842,11550
18842,11550
18842,10273
18770,10100
18638,9967
18465,9896
18278,9896
18106,9967
17973,10099
17902,10272
17901,10459
17973,10631
18105,10764
18278,10836
18465,10836
18637,10764
18770,10632
18841,10460
18842,10273
18842,11550
18660,11474
18463,11474
18281,11549
18141,11688
18134,11705
18134,10980
18063,10807
17931,10674
17758,10603
17571,10603
17398,10674
17266,10806
17194,10979
17194,11166
17266,11339
17398,11471
17570,11543
17757,11543
17930,11471
18063,11339
18134,11167
18134,10980
18134,11705
18066,11870
18066,12067
18141,12249
18280,12389
18462,12464
18659,12464
18841,12389
18980,12250
19056,12068
19056,11871
19056,12527
18349,13234
18349,12578
18274,12396
18134,12257
17953,12181
17756,12181
17574,12256
17434,12396
17427,12412
17427,11687
17356,11514
17224,11382
17051,11310
16864,11310
16691,11381
16559,11513
16487,11686
16487,11873
16559,12046
16691,12178
16863,12250
17050,12250
17223,12178
17355,12046
17427,11874
17427,11687
17427,12412
17359,12577
17359,12774
17434,12956
17573,13096
17755,13171
17952,13171
18134,13096
18273,12957
18349,12775
18349,12578
18349,13234
17642,13941
17642,13285
17566,13103
17427,12964
17245,12888
17049,12888
16867,12963
16727,13103
16720,13119
16720,12394
16649,12221
16517,12089
16344,12017
16157,12017
15984,12088
15852,12220
15780,12393
15780,12580
15851,12753
15984,12885
16156,12957
16343,12957
16516,12886
16648,12754
16720,12581
16720,12394
16720,13119
16652,13284
16652,13481
16727,13663
16866,13803
17048,13878
17245,13878
17427,13803
17566,13664
17642,13482
17642,13285
17642,13941
16935,14648
16935,13992
16859,13810
16720,13671
16538,13596
16341,13595
16159,13671
16020,13810
16013,13827
16013,13101
15942,12928
15810,12796
15637,12724
15450,12724
15277,12795
15145,12927
15073,13100
15073,13287
15137,13442
15131,13436
14956,13364
14871,13418
14871,13817
14842,13846
14891,13896
14920,13866
15319,13866
15373,13781
15293,13599
15449,13664
15636,13664
15809,13593
15941,13461
16013,13288
16013,13101
16013,13827
15945,13992
15944,14189
16020,14371
16159,14510
16341,14585
16538,14586
16720,14510
16859,14371
16934,14189
16935,13992
16935,14648
16227,15355
16227,14700
16152,14518
16013,14378
15831,14303
15634,14302
15452,14378
15373,14457
15373,14022
15319,13936
14871,13936
14871,14384
14956,14438
15153,14351
15301,14196
15373,14022
15373,14457
15313,14517
15237,14699
15237,14896
15313,15078
15452,15217
15633,15292
15830,15293
16012,15217
16152,15078
16227,14896
16227,14700
16227,15355
15520,16062
15520,15407
15445,15225
15306,15085
15124,15010
14927,15010
14830,15050
14830,13956
14801,13927
14801,13866
14801,13418
14715,13364
14519,13451
14371,13606
14299,13781
14353,13866
14801,13866
14801,13927
14781,13907
14751,13936
14353,13936
14299,14022
14379,14203
14223,14138
14036,14138
13863,14210
13731,14342
13659,14514
13659,14701
13730,14874
13862,15006
14035,15078
14222,15078
14395,15007
14527,14875
14599,14702
14599,14515
14535,14360
14541,14366
14715,14438
14801,14384
14801,13986
14830,13956
14830,15050
14801,15062
14745,15085
14606,15224
14530,15406
14530,15603
14605,15785
14745,15924
14926,16000
15123,16000
15305,15925
15445,15785
15520,15604
15520,15407
15520,16062
14813,16769
14813,16114
14738,15932
14599,15792
14417,15717
14220,15717
14038,15792
13899,15931
13892,15948
13892,15222
13820,15049
13688,14917
13516,14845
13329,14845
13156,14917
13024,15049
12952,15221
12952,15408
13023,15581
13155,15714
13328,15785
13515,15785
13688,15714
13820,15582
13892,15409
13892,15222
13892,15948
13823,16113
13823,16310
13898,16492
14037,16631
14219,16707
14416,16707
14598,16632
14738,16493
14813,16311
14813,16114
14813,16769
13966,17617
13748,17398
13891,17339
14030,17200
14106,17018
14106,16821
14031,16639
13892,16500
13710,16424
13513,16424
13331,16499
13192,16638
13132,16782
12832,16482
12981,16421
13113,16289
13185,16116
13185,15929
13113,15757
12981,15624
12809,15553
12622,15552
12449,15624
12316,15756
12255,15905
12216,15867
12216,15835
12164,15708
12067,15611
11940,15558
11803,15558
11790,15564
18132,9221
18906,9221
18813,9260
18680,9392
18609,9565
18609,9752
18680,9924
18812,10057
18985,10128
19172,10129
19344,10057
19477,9925
19548,9752
19549,9565
19477,9393
19345,9260
19251,9221
19391,9221
19519,9350
19692,9421
19879,9421
20052,9350
20184,9218
20256,9045
20256,8858
20184,8686
20052,8553
19959,8514
20098,8514
20226,8642
20399,8714
20586,8714
20759,8643
20891,8511
20963,8338
20963,8151
20891,7978
20759,7846
20666,7807
20805,7807
20933,7935
21106,8007
21293,8007
21466,7936
21598,7804
21670,7631
21670,7444
21599,7271
21466,7139
21294,7067
21107,7067
20934,7138
20805,7267
18885,7267
18893,7259
18946,7132
18946,7120
20683,5384
20816,5439
21013,5439
21195,5364
21219,5339
22044,6164
22044,11789
22025,11770
21978,11817
21956,11718
21755,11641
21541,11646
21366,11718
21344,11817
21661,12134
21667,12128
21716,12178
21711,12183
21716,12189
21667,12238
21661,12233
21344,12550
21366,12648
21567,12726
21782,12721
21956,12648
21978,12550
21978,12550
22025,12597
22044,12577
22044,16073
21978,16046
21867,16000
21777,16053
21777,16478
21748,16507
21797,16556
21827,16527
22044,16527
22044,16597
21827,16597
21797,16568
21748,16617
21777,16647
21777,17071
21867,17125
22044,17047
22044,21228
" /> 
</g>
<g style="fill:#00A000; fill-opacity:0.0; 
stroke:#00A000; stroke-width:130; stroke-opacity:1; 
stroke-linecap:round; stroke-linejoin:round;">
<polyline fill="none;"
points="22044,21228
21997,21464
21873,21650
21737,21741
21737,16617
21707,16588
21707,16527
21707,16053
21650,16019
21650,14826
21650,14553
21550,14320
21367,14142
21149,14052
21047,14105
21047,14655
21598,14655
21650,14553
21650,14826
21598,14725
21047,14725
21047,15275
21149,15328
21383,15227
21560,15045
21650,14826
21650,16019
21618,16000
21412,16090
21257,16252
21180,16438
21234,16527
21707,16527
21707,16588
21687,16568
21658,16597
21234,16597
21180,16687
21237,16817
21134,16774
21007,16774
21007,14745
20957,14695
20928,14725
20427,14725
20397,14782
20340,14812
20340,15312
20311,15342
20360,15391
20390,15362
20891,15362
20920,15305
20977,15275
20977,14774
21007,14745
21007,16774
20977,16774
20943,16774
20943,15533
20891,15432
20340,15432
20340,15982
20442,16035
20676,15934
20853,15752
20943,15533
20943,16774
20937,16774
20755,16849
20616,16988
20540,17170
20540,17367
20615,17549
20755,17689
20936,17764
21133,17764
21315,17689
21455,17550
21530,17368
21530,17171
21489,17071
21618,17125
21707,17071
21707,16647
21737,16617
21737,21741
21707,21760
21689,21772
21450,21820
20823,21820
20823,17878
20748,17696
20609,17557
20427,17481
20300,17481
20300,15452
20250,15402
20221,15432
19720,15432
19690,15489
19633,15519
19633,16020
19604,16049
19653,16098
19683,16069
20183,16069
20213,16012
20270,15982
20270,15481
20300,15452
20300,17481
20270,17481
20236,17481
20236,16241
20183,16139
19633,16139
19633,16689
19735,16742
19968,16641
20146,16459
20236,16241
20236,17481
20230,17481
20048,17556
19909,17696
19833,17877
19833,18074
19908,18256
20047,18396
20229,18471
20426,18471
20608,18396
20748,18257
20823,18075
20823,17878
20823,21820
20116,21820
20116,18585
20041,18403
19902,18264
19720,18188
19593,18188
19593,16159
19543,16110
19514,16139
19013,16139
18984,16195
18927,16225
18927,16725
18898,16755
18947,16804
18977,16775
19478,16775
19507,16719
19563,16689
19563,16189
19593,16159
19593,18188
19563,18188
19530,18188
19530,16946
19478,16845
18927,16845
18927,17395
19029,17448
19263,17347
19440,17165
19530,16946
19530,18188
19523,18188
19341,18263
19202,18403
19126,18584
19126,18781
19201,18963
19340,19103
19522,19178
19719,19178
19901,19103
20040,18964
20116,18782
20116,18585
20116,21820
19409,21820
19409,19292
19334,19110
19195,18971
19013,18896
18887,18895
18887,16865
18837,16815
18808,16845
18307,16845
18277,16902
18220,16932
18220,17432
18191,17462
18240,17511
18270,17482
18771,17482
18800,17425
18857,17395
18857,16894
18887,16865
18887,18895
18857,18895
18823,18895
18823,17653
18771,17552
18220,17552
18220,18102
18322,18155
18556,18054
18733,17872
18823,17653
18823,18895
18816,18895
18634,18971
18495,19110
18419,19292
18419,19489
18494,19671
18633,19810
18815,19885
19012,19886
19194,19810
19333,19671
19409,19489
19409,19292
19409,21820
17184,21820
17212,21793
17288,21611
17288,21414
17213,21232
17073,21092
17031,21075
17076,21075
17080,21085
17219,21224
17401,21300
17598,21300
17780,21225
17919,21085
17995,20904
17995,20707
17920,20525
17781,20385
17738,20368
17783,20368
17787,20378
17926,20517
18108,20592
18305,20593
18487,20517
18626,20378
18702,20196
18702,20000
18627,19818
18488,19678
18306,19603
18180,19603
18180,17572
18130,17522
18101,17552
17600,17552
17570,17609
17513,17639
17513,18140
17484,18169
17533,18218
17563,18189
18063,18189
18093,18132
18150,18102
18150,17601
18180,17572
18180,19603
18150,19603
18116,19603
18116,18361
18063,18259
17513,18259
17513,18809
17615,18862
17848,18761
18026,18579
18116,18361
18116,19603
18109,19602
17927,19678
17787,19817
17783,19828
17473,19828
17473,18279
17423,18230
17394,18259
16893,18259
16864,18315
16807,18345
16807,18845
16778,18875
16827,18924
16857,18895
17358,18895
17387,18839
17443,18809
17443,18309
17473,18279
17473,19828
17443,19828
17410,19828
17410,19066
17358,18965
16807,18965
16807,19515
16909,19568
17143,19467
17320,19285
17410,19066
17410,19828
16767,19828
16767,18985
16717,18935
16688,18965
16187,18965
16157,19022
16100,19052
16100,19552
16071,19582
16120,19631
16150,19602
16651,19602
16680,19545
16737,19515
16737,19014
16767,18985
16767,19828
16737,19828
16681,19828
16703,19773
16651,19672
16150,19672
16120,19642
16071,19692
16100,19721
16100,20172
16060,20213
16060,19692
16010,19642
15981,19672
15480,19672
15450,19729
15393,19759
15393,20260
15364,20289
15413,20338
15443,20309
15943,20309
15973,20252
16030,20222
16030,19721
16060,19692
16060,20213
16030,20242
15894,20379
15443,20379
15413,20350
15364,20399
15393,20429
15393,20879
15323,20949
15323,20929
15323,20379
14773,20379
14720,20481
14821,20714
15003,20892
15222,20982
15323,20929
15323,20949
15279,20993
11063,20993
11063,18051
10992,17878
10860,17746
10687,17674
10500,17674
10327,17745
10195,17877
10123,18050
10123,18237
10195,18410
10327,18542
10499,18614
10686,18614
10859,18542
10992,18410
11063,18238
11063,18051
11063,20993
10356,20993
10356,18758
10285,18585
10153,18453
9980,18381
9793,18381
9620,18452
9488,18584
9416,18757
9416,18944
9488,19117
9620,19249
9792,19321
9979,19321
10152,19250
10284,19117
10356,18945
10356,18758
10356,20993
9649,20993
9649,19465
9578,19292
9446,19160
9273,19088
9086,19088
8913,19159
8781,19291
8709,19464
8709,19651
8780,19824
8913,19956
9085,20028
9272,20028
9445,19957
9577,19825
9649,19652
9649,19465
9649,20993
8853,20993
8586,20727
8738,20664
8870,20532
8942,20359
8942,20172
8871,19999
8739,19867
8566,19795
8379,19795
8206,19866
8074,19999
8010,20151
7821,19962
7821,19532
11531,15822
11526,15834
11526,15972
11578,16099
11675,16196
11802,16248
11834,16248
11866,16280
11742,16331
11609,16463
11538,16636
11537,16823
11609,16995
11741,17128
11914,17199
12101,17200
12273,17128
12406,16996
12457,16872
12743,17157
12624,17206
12485,17345
12409,17527
12409,17724
12484,17906
12623,18045
12805,18121
13002,18121
13184,18046
13323,17907
13373,17787
13584,17998
13055,18527
12997,18615
12976,18718
12976,19218
12997,19322
13055,19409
13436,19790
13436,19822
13488,19949
13585,20046
13700,20093
13368,20093
13356,20066
13209,19919
13016,19838
12807,19838
12692,19886
12692,18235
12617,18053
12478,17914
12296,17838
12099,17838
11917,17913
11777,18052
11770,18069
11770,17344
11699,17171
11567,17038
11394,16967
11207,16967
11035,17038
10902,17170
10830,17343
10830,17530
10902,17703
11034,17835
11207,17907
11393,17907
11566,17835
11699,17703
11770,17531
11770,17344
11770,18069
11702,18234
11702,18431
11777,18613
11916,18753
12098,18828
12295,18828
12477,18753
12616,18614
12692,18432
12692,18235
12692,19886
12614,19918
12466,20066
12411,20199
12356,20066
12209,19919
12016,19838
11807,19838
11614,19918
11466,20066
11386,20258
11386,20467
11466,20660
11613,20808
11806,20888
12015,20888
12208,20809
12356,20661
12411,20528
12466,20660
12613,20808
12806,20888
13015,20888
13208,20809
13356,20661
13367,20633
13925,20633
14028,20613
14028,20613
14116,20554
14485,20185
14537,20207
14720,20207
14720,20208
14773,20309
15274,20309
15303,20338
15353,20289
15323,20260
15323,19759
15222,19706
15221,19706
15221,19524
15204,19483
15244,19500
15427,19500
15427,19500
15480,19602
15981,19602
16010,19631
16060,19582
16030,19552
16030,19052
15929,18999
15928,18999
15928,18817
15911,18776
15951,18793
16135,18793
16134,18793
16187,18895
16688,18895
16717,18924
16767,18875
16737,18845
16737,18345
16636,18292
16635,18292
16635,18110
16619,18071
16657,18087
16840,18087
16840,18088
16893,18189
17394,18189
17423,18218
17473,18169
17443,18140
17443,17639
17342,17586
17341,17586
17341,17404
17324,17363
17364,17380
17547,17380
17547,17380
17600,17482
18101,17482
18130,17511
18180,17462
18150,17432
18150,16932
18049,16879
18048,16879
18048,16697
18031,16656
18071,16673
18255,16673
18254,16673
18307,16775
18808,16775
18837,16804
18887,16755
18857,16725
18857,16225
18756,16172
18755,16172
18755,15990
18739,15951
18777,15967
18960,15967
18960,15968
19013,16069
19514,16069
19543,16098
19593,16049
19563,16020
19563,15519
19462,15466
19461,15466
19461,15284
19444,15243
19484,15260
19667,15260
19667,15260
19720,15362
20221,15362
20250,15391
20300,15342
20270,15312
20270,14812
20169,14759
20168,14759
20168,14577
20151,14536
20191,14553
20375,14553
20374,14553
20427,14655
20928,14655
20957,14684
21007,14635
20977,14605
20977,14105
20876,14052
20875,14052
20875,13870
20789,13660
20629,13500
20419,13413
20192,13413
20151,13430
20168,13389
20168,13163
20082,12953
19921,12793
19712,12706
19641,12706
20191,12155
20191,12276
20262,12449
20394,12582
20567,12653
20754,12653
20927,12582
21059,12450
21124,12295
21124,12304
21196,12478
21295,12500
21612,12183
21295,11867
21196,11889
21124,12074
21060,11917
20928,11785
20755,11713
20633,11713
20693,11653
20754,11653
20927,11582
21059,11450
21131,11277
21131,11090
21060,10917
20928,10785
20755,10713
20568,10713
20395,10785
20263,10917
20191,11089
20191,11276
20225,11358
19056,12527
19056,11871
18981,11689
18842,11550
18842,11550
18842,10273
18770,10100
18638,9967
18465,9896
18278,9896
18106,9967
17973,10099
17902,10272
17901,10459
17973,10631
18105,10764
18278,10836
18465,10836
18637,10764
18770,10632
18841,10460
18842,10273
18842,11550
18660,11474
18463,11474
18281,11549
18141,11688
18134,11705
18134,10980
18063,10807
17931,10674
17758,10603
17571,10603
17398,10674
17266,10806
17194,10979
17194,11166
17266,11339
17398,11471
17570,11543
17757,11543
17930,11471
18063,11339
18134,11167
18134,10980
18134,11705
18066,11870
18066,12067
18141,12249
18280,12389
18462,12464
18659,12464
18841,12389
18980,12250
19056,12068
19056,11871
19056,12527
18349,13234
18349,12578
18274,12396
18134,12257
17953,12181
17756,12181
17574,12256
17434,12396
17427,12412
17427,11687
17356,11514
17224,11382
17051,11310
16864,11310
16691,11381
16559,11513
16487,11686
16487,11873
16559,12046
16691,12178
16863,12250
17050,12250
17223,12178
17355,12046
17427,11874
17427,11687
17427,12412
17359,12577
17359,12774
17434,12956
17573,13096
17755,13171
17952,13171
18134,13096
18273,12957
18349,12775
18349,12578
18349,13234
17642,13941
17642,13285
17566,13103
17427,12964
17245,12888
17049,12888
16867,12963
16727,13103
16720,13119
16720,12394
16649,12221
16517,12089
16344,12017
16157,12017
15984,12088
15852,12220
15780,12393
15780,12580
15851,12753
15984,12885
16156,12957
16343,12957
16516,12886
16648,12754
16720,12581
16720,12394
16720,13119
16652,13284
16652,13481
16727,13663
16866,13803
17048,13878
17245,13878
17427,13803
17566,13664
17642,13482
17642,13285
17642,13941
16935,14648
16935,13992
16859,13810
16720,13671
16538,13596
16341,13595
16159,13671
16020,13810
16013,13827
16013,13101
15942,12928
15810,12796
15637,12724
15450,12724
15277,12795
15145,12927
15073,13100
15073,13287
15137,13442
15131,13436
14956,13364
14871,13418
14871,13817
14842,13846
14891,13896
14920,13866
15319,13866
15373,13781
15293,13599
15449,13664
15636,13664
15809,13593
15941,13461
16013,13288
16013,13101
16013,13827
15945,13992
15944,14189
16020,14371
16159,14510
16341,14585
16538,14586
16720,14510
16859,14371
16934,14189
16935,13992
16935,14648
16227,15355
16227,14700
16152,14518
16013,14378
15831,14303
15634,14302
15452,14378
15373,14457
15373,14022
15319,13936
14871,13936
14871,14384
14956,14438
15153,14351
15301,14196
15373,14022
15373,14457
15313,14517
15237,14699
15237,14896
15313,15078
15452,15217
15633,15292
15830,15293
16012,15217
16152,15078
16227,14896
16227,14700
16227,15355
15520,16062
15520,15407
15445,15225
15306,15085
15124,15010
14927,15010
14830,15050
14830,13956
14801,13927
14801,13866
14801,13418
14715,13364
14519,13451
14371,13606
14299,13781
14353,13866
14801,13866
14801,13927
14781,13907
14751,13936
14353,13936
14299,14022
14379,14203
14223,14138
14036,14138
13863,14210
13731,14342
13659,14514
13659,14701
13730,14874
13862,15006
14035,15078
14222,15078
14395,15007
14527,14875
14599,14702
14599,14515
14535,14360
14541,14366
14715,14438
14801,14384
14801,13986
14830,13956
14830,15050
14801,15062
14745,15085
14606,15224
14530,15406
14530,15603
14605,15785
14745,15924
14926,16000
15123,16000
15305,15925
15445,15785
15520,15604
15520,15407
15520,16062
14813,16769
14813,16114
14738,15932
14599,15792
14417,15717
14220,15717
14038,15792
13899,15931
13892,15948
13892,15222
13820,15049
13688,14917
13516,14845
13329,14845
13156,14917
13024,15049
12952,15221
12952,15408
13023,15581
13155,15714
13328,15785
13515,15785
13688,15714
13820,15582
13892,15409
13892,15222
13892,15948
13823,16113
13823,16310
13898,16492
14037,16631
14219,16707
14416,16707
14598,16632
14738,16493
14813,16311
14813,16114
14813,16769
13966,17617
13748,17398
13891,17339
14030,17200
14106,17018
14106,16821
14031,16639
13892,16500
13710,16424
13513,16424
13331,16499
13192,16638
13132,16782
12832,16482
12981,16421
13113,16289
13185,16116
13185,15929
13113,15757
12981,15624
12809,15553
12622,15552
12449,15624
12316,15756
12255,15905
12216,15867
12216,15835
12164,15708
12067,15611
11940,15558
11803,15558
11790,15564
18132,9221
18906,9221
18813,9260
18680,9392
18609,9565
18609,9752
18680,9924
18812,10057
18985,10128
19172,10129
19344,10057
19477,9925
19548,9752
19549,9565
19477,9393
19345,9260
19251,9221
19391,9221
19519,9350
19692,9421
19879,9421
20052,9350
20184,9218
20256,9045
20256,8858
20184,8686
20052,8553
19959,8514
20098,8514
20226,8642
20399,8714
20586,8714
20759,8643
20891,8511
20963,8338
20963,8151
20891,7978
20759,7846
20666,7807
20805,7807
20933,7935
21106,8007
21293,8007
21466,7936
21598,7804
21670,7631
21670,7444
21599,7271
21466,7139
21294,7067
21107,7067
20934,7138
20805,7267
18885,7267
18893,7259
18946,7132
18946,7120
20683,5384
20816,5439
21013,5439
21195,5364
21219,5339
22044,6164
22044,11789
22025,11770
21978,11817
21956,11718
21755,11641
21541,11646
21366,11718
21344,11817
21661,12134
21667,12128
21716,12178
21711,12183
21716,12189
21667,12238
21661,12233
21344,12550
21366,12648
21567,12726
21782,12721
21956,12648
21978,12550
21978,12550
22025,12597
22044,12577
22044,16073
21978,16046
21867,16000
21777,16053
21777,16478
21748,16507
21797,16556
21827,16527
22044,16527
22044,16597
21827,16597
21797,16568
21748,16617
21777,16647
21777,17071
21867,17125
22044,17047
22044,21228
" /> 
</g>
<g style="fill:#FFFFFF; fill-opacity:0.0; 
stroke:#FFFFFF; stroke-width:39.3701; stroke-opacity:1; 
stroke-linecap:round; stroke-linejoin:round;">
</g>
<g style="fill:#FFFFFF; fill-opacity:1.0; 
stroke:#FFFFFF; stroke-width:39.3701; stroke-opacity:1; 
stroke-linecap:round; stroke-linejoin:round;">
<circle cx="10636.6" cy="11833.9" r="80.315" /> 
<circle cx="19886.6" cy="6958.87" r="80.315" /> 
<circle cx="17686.6" cy="4758.87" r="80.315" /> 
<circle cx="9111.57" cy="20183.9" r="80.315" /> 
<circle cx="20361.6" cy="9833.87" r="80.315" /> 
<circle cx="15586.6" cy="9708.87" r="80.315" /> 
<circle cx="15761.6" cy="8483.87" r="80.315" /> 
<circle cx="5649.07" cy="15321.4" r="80.315" /> 
<circle cx="13011.6" cy="12758.9" r="80.315" /> 
<circle cx="13911.6" cy="10858.9" r="80.315" /> 
<circle cx="13444.6" cy="5624.9" r="80.315" /> 
<circle cx="13781.6" cy="19753.9" r="80.315" /> 
<circle cx="11871.6" cy="15903.9" r="80.315" /> 
<circle cx="18601.6" cy="7063.87" r="80.315" /> 
<circle cx="13711.6" cy="12058.9" r="80.315" /> 
<circle cx="15861.6" cy="5883.87" r="80.315" /> 
<circle cx="16486.6" cy="6508.87" r="80.315" /> 
<circle cx="3711.57" cy="18033.9" r="80.315" /> 
<circle cx="21661.6" cy="12183.9" r="140.315" /> 
<circle cx="20661.6" cy="12183.9" r="140.315" /> 
<circle cx="20661.6" cy="11183.9" r="140.315" /> 
<circle cx="12911.6" cy="20363.9" r="140.315" /> 
<circle cx="11911.6" cy="20363.9" r="140.315" /> 
<circle cx="16957.8" cy="3295.04" r="140.315" /> 
<circle cx="16250.7" cy="4002.14" r="140.315" /> 
<circle cx="15543.5" cy="4709.25" r="140.315" /> 
<circle cx="14836.4" cy="5416.36" r="140.315" /> 
<circle cx="14129.3" cy="6123.46" r="140.315" /> 
<circle cx="13422.2" cy="6830.57" r="140.315" /> 
<circle cx="12715.1" cy="7537.68" r="140.315" /> 
<circle cx="12008" cy="8244.78" r="140.315" /> 
<circle cx="11300.9" cy="8951.89" r="140.315" /> 
<circle cx="10593.8" cy="9659" r="140.315" /> 
<circle cx="9886.69" cy="10366.1" r="140.315" /> 
<circle cx="9179.59" cy="11073.2" r="140.315" /> 
<circle cx="8472.48" cy="11780.3" r="140.315" /> 
<circle cx="7765.37" cy="12487.4" r="140.315" /> 
<circle cx="7058.27" cy="13194.5" r="140.315" /> 
<circle cx="6351.16" cy="13901.6" r="140.315" /> 
<circle cx="5644.05" cy="14608.7" r="140.315" /> 
<circle cx="4936.95" cy="15315.9" r="140.315" /> 
<circle cx="4229.84" cy="16023" r="140.315" /> 
<circle cx="3522.73" cy="16730.1" r="140.315" /> 
<circle cx="7765.37" cy="20972.7" r="140.315" /> 
<circle cx="8472.48" cy="20265.6" r="140.315" /> 
<circle cx="9179.59" cy="19558.5" r="140.315" /> 
<circle cx="9886.69" cy="18851.4" r="140.315" /> 
<circle cx="10593.8" cy="18144.3" r="140.315" /> 
<circle cx="11300.9" cy="17437.2" r="140.315" /> 
<circle cx="12008" cy="16730.1" r="140.315" /> 
<circle cx="12715.1" cy="16023" r="140.315" /> 
<circle cx="13422.2" cy="15315.9" r="140.315" /> 
<circle cx="14129.3" cy="14608.7" r="140.315" /> 
<circle cx="14836.4" cy="13901.6" r="140.315" /> 
<circle cx="15543.5" cy="13194.5" r="140.315" /> 
<circle cx="16250.7" cy="12487.4" r="140.315" /> 
<circle cx="16957.8" cy="11780.3" r="140.315" /> 
<circle cx="17664.9" cy="11073.2" r="140.315" /> 
<circle cx="18372" cy="10366.1" r="140.315" /> 
<circle cx="19079.1" cy="9659" r="140.315" /> 
<circle cx="19786.2" cy="8951.89" r="140.315" /> 
<circle cx="20493.3" cy="8244.78" r="140.315" /> 
<circle cx="21200.4" cy="7537.68" r="140.315" /> 
<circle cx="13011.6" cy="2983.87" r="180.315" /> 
<circle cx="12011.6" cy="2983.87" r="180.315" /> 
<circle cx="7454.46" cy="10741" r="180.315" /> 
<circle cx="8161.57" cy="10033.9" r="180.315" /> 
<circle cx="8868.67" cy="9326.76" r="180.315" /> 
<circle cx="16793.1" cy="21512.3" r="180.315" /> 
<circle cx="17500.2" cy="20805.2" r="180.315" /> 
<circle cx="18207.4" cy="20098.1" r="180.315" /> 
<circle cx="18914.5" cy="19391" r="180.315" /> 
<circle cx="19621.6" cy="18683.9" r="180.315" /> 
<circle cx="20328.7" cy="17976.8" r="180.315" /> 
<circle cx="21035.8" cy="17269.7" r="180.315" /> 
<circle cx="21742.9" cy="16562.6" r="180.315" /> 
<circle cx="20684.4" cy="20460.6" r="580.315" /> 
<circle cx="4148.97" cy="3925.21" r="580.315" /> 
<circle cx="19500.9" cy="3530.32" r="180.315" /> 
<circle cx="20208" cy="2823.21" r="180.315" /> 
<circle cx="20208" cy="4237.43" r="180.315" /> 
<circle cx="20915.1" cy="3530.32" r="180.315" /> 
<circle cx="20915.1" cy="4944.53" r="180.315" /> 
<circle cx="21622.2" cy="4237.43" r="180.315" /> 
<circle cx="5122.23" cy="20887.4" r="180.315" /> 
<circle cx="4415.12" cy="21594.5" r="180.315" /> 
<circle cx="4415.12" cy="20180.3" r="180.315" /> 
<circle cx="3708.01" cy="20887.4" r="180.315" /> 
<circle cx="3708.01" cy="19473.2" r="180.315" /> 
<circle cx="3000.91" cy="20180.3" r="180.315" /> 
<circle cx="4511.57" cy="12033.9" r="120.315" /> 
<circle cx="4011.57" cy="12033.9" r="120.315" /> 
<circle cx="3511.57" cy="12033.9" r="120.315" /> 
<circle cx="3011.57" cy="12033.9" r="120.315" /> 
<circle cx="8661.82" cy="14798.1" r="180.315" /> 
<circle cx="9368.93" cy="14091" r="180.315" /> 
<circle cx="10076" cy="13383.9" r="180.315" /> 
<circle cx="10783.1" cy="12676.8" r="180.315" /> 
<circle cx="11490.2" cy="11969.7" r="180.315" /> 
<circle cx="12197.4" cy="11262.6" r="180.315" /> 
<circle cx="12904.5" cy="10555.4" r="180.315" /> 
<circle cx="13611.6" cy="9848.34" r="180.315" /> 
<circle cx="14318.7" cy="9141.23" r="180.315" /> 
<circle cx="15025.8" cy="8434.12" r="180.315" /> 
<circle cx="18561.3" cy="11969.7" r="180.315" /> 
<circle cx="17854.2" cy="12676.8" r="180.315" /> 
<circle cx="17147.1" cy="13383.9" r="180.315" /> 
<circle cx="16440" cy="14091" r="180.315" /> 
<circle cx="15732.9" cy="14798.1" r="180.315" /> 
<circle cx="15025.8" cy="15505.2" r="180.315" /> 
<circle cx="14318.7" cy="16212.3" r="180.315" /> 
<circle cx="13611.6" cy="16919.4" r="180.315" /> 
<circle cx="12904.5" cy="17626.5" r="180.315" /> 
<circle cx="12197.4" cy="18333.6" r="180.315" /> 
<circle cx="7374.46" cy="8381.64" r="230.315" /> 
<circle cx="8081.57" cy="7674.53" r="230.315" /> 
<circle cx="8788.67" cy="6967.43" r="230.315" /> 
<circle cx="6667.35" cy="7674.53" r="230.315" /> 
<circle cx="7374.46" cy="6967.43" r="230.315" /> 
<circle cx="8081.57" cy="6260.32" r="230.315" /> 
<circle cx="5960.25" cy="6967.43" r="230.315" /> 
<circle cx="6667.35" cy="6260.32" r="230.315" /> 
<circle cx="7374.46" cy="5553.21" r="230.315" /> 
<circle cx="9494.46" cy="6261.64" r="230.315" /> 
<circle cx="10201.6" cy="5554.53" r="230.315" /> 
<circle cx="10908.7" cy="4847.43" r="230.315" /> 
<circle cx="8787.35" cy="5554.53" r="230.315" /> 
<circle cx="9494.46" cy="4847.43" r="230.315" /> 
<circle cx="10201.6" cy="4140.32" r="230.315" /> 
<circle cx="8080.25" cy="4847.43" r="230.315" /> 
<circle cx="8787.35" cy="4140.32" r="230.315" /> 
<circle cx="9494.46" cy="3433.21" r="230.315" /> 
<circle cx="5254.46" cy="10501.6" r="230.315" /> 
<circle cx="5961.57" cy="9794.53" r="230.315" /> 
<circle cx="6668.67" cy="9087.43" r="230.315" /> 
<circle cx="4547.35" cy="9794.53" r="230.315" /> 
<circle cx="5254.46" cy="9087.43" r="230.315" /> 
<circle cx="5961.57" cy="8380.32" r="230.315" /> 
<circle cx="3840.25" cy="9087.43" r="230.315" /> 
<circle cx="4547.35" cy="8380.32" r="230.315" /> 
<circle cx="5254.46" cy="7673.21" r="230.315" /> 
<circle cx="19598.7" cy="13276.1" r="230.315" /> 
<circle cx="18891.6" cy="13983.2" r="230.315" /> 
<circle cx="18184.5" cy="14690.3" r="230.315" /> 
<circle cx="20305.8" cy="13983.2" r="230.315" /> 
<circle cx="19598.7" cy="14690.3" r="230.315" /> 
<circle cx="18891.6" cy="15397.4" r="230.315" /> 
<circle cx="21012.9" cy="14690.3" r="230.315" /> 
<circle cx="20305.8" cy="15397.4" r="230.315" /> 
<circle cx="19598.7" cy="16104.5" r="230.315" /> 
<circle cx="17478.7" cy="15396.1" r="230.315" /> 
<circle cx="16771.6" cy="16103.2" r="230.315" /> 
<circle cx="16064.5" cy="16810.3" r="230.315" /> 
<circle cx="18185.8" cy="16103.2" r="230.315" /> 
<circle cx="17478.7" cy="16810.3" r="230.315" /> 
<circle cx="16771.6" cy="17517.4" r="230.315" /> 
<circle cx="18892.9" cy="16810.3" r="230.315" /> 
<circle cx="18185.8" cy="17517.4" r="230.315" /> 
<circle cx="17478.7" cy="18224.5" r="230.315" /> 
<circle cx="15358.7" cy="17516.1" r="230.315" /> 
<circle cx="14651.6" cy="18223.2" r="230.315" /> 
<circle cx="13944.5" cy="18930.3" r="230.315" /> 
<circle cx="16065.8" cy="18223.2" r="230.315" /> 
<circle cx="15358.7" cy="18930.3" r="230.315" /> 
<circle cx="14651.6" cy="19637.4" r="230.315" /> 
<circle cx="16772.9" cy="18930.3" r="230.315" /> 
<circle cx="16065.8" cy="19637.4" r="230.315" /> 
<circle cx="15358.7" cy="20344.5" r="230.315" /> 
</g> 
</svg>
