<?xml version="1.0" standalone="no"?>
 <!DOCTYPE svg PUBLIC "-//W3C//DTD SVG 1.1//EN" 
 "http://www.w3.org/Graphics/SVG/1.1/DTD/svg11.dtd"> 
<svg xmlns="http://www.w3.org/2000/svg" version="1.1" 
    width="6.70306cm" height="6.11632cm" viewBox="0 0 26390 24080 ">
<title>SVG Picture created as hex-B_SilkS.svg date 2014/04/17 12:38:22 </title>
  <desc>Picture generated by PCBNEW </desc>
<g style="fill:#000000; fill-opacity:1;stroke:#000000; stroke-opacity:1;
stroke-linecap:round; stroke-linejoin:round; "
 transform="translate(0 0) scale(1 1)">
</g>
<g style="fill:#FFFF00; fill-opacity:0.0; 
stroke:#FFFF00; stroke-width:39.3701; stroke-opacity:1; 
stroke-linecap:round; stroke-linejoin:round;">
<path d="M2574 3137
L2574 21248
" />
<path d="M21471 2350
L3361 2350
" />
<path d="M22259 21248
L22259 3137
" />
<path d="M3361 22035
L21471 22035
" />
<path d="M22259.2 3137.81 A787.402 787.402 0.0 0 0 21471.8 2350.41 " />
<path d="M21471.8 22035.4 A787.402 787.402 0.0 0 0 22259.2 21248 " />
<path d="M2574.17 21248 A787.402 787.402 0.0 0 0 3361.57 22035.4 " />
<path d="M3361.57 2350.41 A787.402 787.402 0.0 0 0 2574.17 3137.81 " />
</g>
<g style="fill:#A000A0; fill-opacity:0.0; 
stroke:#A000A0; stroke-width:59.0551; stroke-opacity:1; 
stroke-linecap:round; stroke-linejoin:round;">
<path d="M16143 9770
L16236 10234
" />
<path d="M15957 9956
L16421 10048
" />
<path d="M15891 10287
L15865 10340
L15865 10366
L15878 10406
L15918 10446
L15957 10459
L15984 10459
L16024 10446
L16130 10340
L15851 10062
L15759 10154
L15745 10194
L15745 10221
L15759 10260
L15785 10287
L15825 10300
L15851 10300
L15891 10287
L15984 10194
" />
<path d="M15732 10711
L15772 10698
L15825 10645
L15838 10605
L15825 10565
L15719 10459
L15679 10446
L15639 10459
L15586 10512
L15573 10552
L15586 10592
L15613 10618
L15772 10512
" />
<path d="M15494 10950
L15533 10937
L15586 10884
L15600 10844
L15586 10804
L15480 10698
L15440 10685
L15401 10698
L15348 10751
L15334 10791
L15348 10830
L15374 10857
L15533 10751
" />
<path d="M15189 11493
L15189 11467
L15175 11401
L15162 11361
L15136 11308
L15083 11228
L15030 11175
L14950 11122
L14897 11096
L14857 11082
L14791 11069
L14764 11069
" />
<path d="M14976 11467
L14950 11520
L14884 11586
L14844 11599
L14817 11599
L14778 11586
L14751 11560
L14738 11520
L14738 11493
L14751 11454
L14791 11387
L14804 11347
L14804 11321
L14791 11281
L14764 11255
L14725 11241
L14698 11241
L14658 11255
L14592 11321
L14566 11374
" />
<path d="M14526 11573
L14804 11851
" />
<path d="M14539 11586
L14499 11599
L14446 11652
L14433 11692
L14433 11719
L14446 11758
L14526 11838
L14566 11851
L14592 11851
L14632 11838
L14685 11785
L14698 11745
" />
<path d="M14340 12130
L14194 11984
L14181 11944
L14194 11904
L14247 11851
L14287 11838
" />
<path d="M14327 12116
L14367 12103
L14433 12037
L14446 11997
L14433 11957
L14406 11931
L14367 11918
L14327 11931
L14261 11997
L14221 12010
" />
<path d="M14208 12262
L14022 12077
" />
<path d="M14075 12130
L14035 12116
L14009 12116
L13969 12130
L13942 12156
" />
<path d="M14035 12435
L13757 12156
" />
<path d="M13903 12355
L13929 12541
" />
<path d="M13744 12355
L13956 12355
" />
<path d="M13664 12435
L13558 12541
" />
<path d="M13810 12660
L13571 12421
L13532 12408
L13492 12421
L13465 12448
" />
<path d="M13346 12753
L13532 12938
" />
<path d="M13465 12633
L13611 12779
L13624 12819
L13611 12859
L13571 12899
L13532 12912
L13505 12912
" />
<path d="M13213 12885
L13399 13071
" />
<path d="M13240 12912
L13213 12912
L13174 12925
L13134 12965
L13121 13005
L13134 13044
L13280 13190
" />
<path d="M12696 13482
L12670 13535
L12670 13561
L12683 13601
L12723 13641
L12763 13654
L12789 13654
L12829 13641
L12935 13535
L12657 13256
L12564 13349
L12551 13389
L12551 13416
L12564 13455
L12590 13482
L12630 13495
L12657 13495
L12696 13482
L12789 13389
" />
<path d="M12657 13813
L12471 13628
" />
<path d="M12524 13681
L12484 13667
L12458 13667
L12418 13681
L12391 13707
" />
<path d="M12365 14078
L12405 14065
L12458 14012
L12471 13972
L12458 13933
L12352 13826
L12312 13813
L12272 13826
L12219 13879
L12206 13919
L12219 13959
L12246 13986
L12405 13879
" />
<path d="M12126 14343
L11981 14198
L11967 14158
L11981 14118
L12034 14065
L12073 14052
" />
<path d="M12113 14330
L12153 14317
L12219 14251
L12232 14211
L12219 14171
L12193 14145
L12153 14131
L12113 14145
L12047 14211
L12007 14224
" />
<path d="M11994 14476
L11715 14198
" />
<path d="M11861 14396
L11888 14582
" />
<path d="M11702 14396
L11914 14396
" />
<path d="M11729 14741
L11742 14701
L11742 14675
L11729 14635
L11649 14556
L11609 14542
L11583 14542
L11543 14556
L11503 14595
L11490 14635
L11490 14662
L11503 14701
L11583 14781
L11623 14794
L11649 14794
L11689 14781
L11729 14741
" />
<path d="M11212 14887
L11397 15073
" />
<path d="M11331 14768
L11477 14914
L11490 14953
L11477 14993
L11437 15033
L11397 15046
L11371 15046
" />
<path d="M11119 14980
L11013 15086
" />
<path d="M10986 14927
L11225 15165
L11238 15205
L11225 15245
L11198 15271
" />
<path d="M11238 15444
L11212 15444
L11145 15431
L11106 15417
L11053 15391
L10973 15338
L10920 15285
L10867 15205
L10840 15152
L10827 15112
L10814 15046
L10814 15020
" />
</g>
<g style="fill:#A000A0; fill-opacity:0.0; 
stroke:#A000A0; stroke-width:45; stroke-opacity:1; 
stroke-linecap:round; stroke-linejoin:round;">
<path d="M8364 11295
L8364 11282
L8357 11261
L8324 11228
L8304 11221
L8290 11221
L8270 11228
L8256 11241
L8243 11268
L8243 11430
L8155 11342
" />
<path d="M8209 11113
L8196 11100
L8176 11093
L8162 11093
L8142 11100
L8108 11120
L8075 11154
L8054 11187
L8048 11207
L8048 11221
L8054 11241
L8068 11255
L8088 11261
L8101 11261
L8122 11255
L8155 11234
L8189 11201
L8209 11167
L8216 11147
L8216 11133
L8209 11113
" />
<path d="M8054 11053
L7913 11194
" />
<path d="M8048 11059
L8041 11039
L8014 11012
L7994 11005
L7980 11005
L7960 11012
L7920 11053
L7913 11073
L7913 11086
L7920 11106
L7947 11133
L7967 11140
" />
<path d="M7859 10898
L7906 10945
" />
<path d="M7832 11019
L7974 10877
L7906 10810
" />
<path d="M9414 10245
L9414 10232
L9407 10211
L9374 10178
L9354 10171
L9340 10171
L9320 10178
L9306 10191
L9293 10218
L9293 10380
L9205 10292
" />
<path d="M9259 10063
L9246 10050
L9226 10043
L9212 10043
L9192 10050
L9158 10070
L9125 10104
L9104 10137
L9098 10157
L9098 10171
L9104 10191
L9118 10205
L9138 10211
L9151 10211
L9172 10205
L9205 10184
L9239 10151
L9259 10117
L9266 10097
L9266 10083
L9259 10063
" />
<path d="M9104 10003
L8963 10144
" />
<path d="M9098 10009
L9091 9989
L9064 9962
L9044 9955
L9030 9955
L9010 9962
L8970 10003
L8963 10023
L8963 10036
L8970 10056
L8997 10083
L9017 10090
" />
<path d="M8909 9848
L8956 9895
" />
<path d="M8882 9969
L9024 9827
L8956 9760
" />
</g>
<g style="fill:#A000A0; fill-opacity:0.0; 
stroke:#A000A0; stroke-width:59.0551; stroke-opacity:1; 
stroke-linecap:round; stroke-linejoin:round;">
<path d="M7954 15505
L7601 13030
" />
<path d="M7601 13030
L14672 5959
" />
<path d="M14672 5959
L20682 11969
" />
<path d="M20682 11969
L13611 19040
" />
<path d="M13611 19040
L11136 18687
" />
<path d="M11136 18687
L7954 15505
" />
</g>
<g style="fill:#A000A0; fill-opacity:0.0; 
stroke:#A000A0; stroke-width:47; stroke-opacity:1; 
stroke-linecap:round; stroke-linejoin:round;">
<path d="M8128 11454
L7933 11648
" />
<path d="M8406 11175
L8601 10981
" />
<path d="M7766 11092
L7571 11286
" />
<path d="M8239 10619
L8044 10813
" />
<path d="M7576 11290
L7929 11644
" />
<path d="M8597 10976
L8243 10623
" />
<path d="M9094 9763
L9289 9569
" />
<path d="M8816 10042
L8621 10236
" />
<path d="M9456 10125
L9651 9931
" />
<path d="M8983 10598
L9178 10404
" />
<path d="M9647 9926
L9293 9573
" />
<path d="M8626 10240
L8979 10594
" />
</g>
<g style="fill:#808000; fill-opacity:0.0; 
stroke:#808000; stroke-width:39.3701; stroke-opacity:1; 
stroke-linecap:round; stroke-linejoin:round;">
</g>
<g style="fill:#808000; fill-opacity:1.0; 
stroke:#808000; stroke-width:39.3701; stroke-opacity:1; 
stroke-linecap:round; stroke-linejoin:round;">
<circle cx="8661.82" cy="14798.1" r="280.315" /> 
<circle cx="9368.93" cy="14091" r="280.315" /> 
<circle cx="10076" cy="13383.9" r="280.315" /> 
<circle cx="10783.1" cy="12676.8" r="280.315" /> 
<circle cx="11490.2" cy="11969.7" r="280.315" /> 
<circle cx="12197.4" cy="11262.6" r="280.315" /> 
<circle cx="12904.5" cy="10555.4" r="280.315" /> 
<circle cx="13611.6" cy="9848.34" r="280.315" /> 
<circle cx="14318.7" cy="9141.23" r="280.315" /> 
<circle cx="15025.8" cy="8434.12" r="280.315" /> 
<circle cx="18561.3" cy="11969.7" r="280.315" /> 
<circle cx="17854.2" cy="12676.8" r="280.315" /> 
<circle cx="17147.1" cy="13383.9" r="280.315" /> 
<circle cx="16440" cy="14091" r="280.315" /> 
<circle cx="15732.9" cy="14798.1" r="280.315" /> 
<circle cx="15025.8" cy="15505.2" r="280.315" /> 
<circle cx="14318.7" cy="16212.3" r="280.315" /> 
<circle cx="13611.6" cy="16919.4" r="280.315" /> 
<circle cx="12904.5" cy="17626.5" r="280.315" /> 
<circle cx="12197.4" cy="18333.6" r="280.315" /> 
</g> 
</svg>
