M48
;DRILL file {Pcbnew (2014-01-10 BZR 4027)-stable} date Thursday, April 17, 2014 'amt' 11:38:17 am
;FORMAT={-:-/ absolute / inch / decimal}
FMAT,2
INCH,TZ
T1C0.020
T2C0.028
T3C0.032
T4C0.040
T5C0.050
T6C0.120
%
G90
G05
M72
T1
X1.4917Y-2.1589
X1.6854Y-1.8876
X2.0317Y-2.3739
X2.1842Y-1.5389
X2.3077Y-1.9459
X2.4217Y-1.6314
X2.465Y-0.918
X2.4917Y-1.5614
X2.4987Y-2.3309
X2.5117Y-1.4414
X2.6792Y-1.3264
X2.6967Y-1.2039
X2.7067Y-0.9439
X2.7692Y-1.0064
X2.8892Y-0.8314
X2.9807Y-1.0619
X3.1092Y-1.0514
X3.1567Y-1.3389
T2
X1.4217Y-1.5589
X1.4717Y-1.5589
X1.5217Y-1.5589
X1.5717Y-1.5589
T3
X1.4728Y-2.0285
X1.5435Y-1.9578
X1.6142Y-1.8871
X1.6849Y-1.8164
X1.7557Y-1.7457
X1.8264Y-1.675
X1.8971Y-1.6043
X1.8971Y-2.4528
X1.9678Y-1.5335
X1.9678Y-2.3821
X2.0385Y-1.4628
X2.0385Y-2.3114
X2.1092Y-1.3921
X2.1092Y-2.2406
X2.1799Y-1.3214
X2.1799Y-2.1699
X2.2506Y-1.2507
X2.2506Y-2.0992
X2.3117Y-2.3919
X2.3213Y-1.18
X2.3213Y-2.0285
X2.392Y-1.1093
X2.392Y-1.9578
X2.4117Y-2.3919
X2.4628Y-1.0386
X2.4628Y-1.8871
X2.5335Y-0.9679
X2.5335Y-1.8164
X2.6042Y-0.8971
X2.6042Y-1.7457
X2.6749Y-0.8264
X2.6749Y-1.675
X2.7456Y-0.7557
X2.7456Y-1.6043
X2.8163Y-0.685
X2.8163Y-1.5335
X2.887Y-1.4628
X2.9577Y-1.3921
X3.0284Y-1.3214
X3.0992Y-1.2507
X3.1699Y-1.18
X3.1867Y-1.4739
X3.1867Y-1.5739
X3.2406Y-1.1093
X3.2867Y-1.5739
T4
X1.4206Y-2.3735
X1.4913Y-2.3028
X1.4913Y-2.4443
X1.562Y-2.3735
X1.562Y-2.515
X1.6328Y-2.4443
X1.866Y-1.4296
X1.9367Y-1.3589
X1.9867Y-1.8353
X2.0074Y-1.2882
X2.0574Y-1.7646
X2.1281Y-1.6939
X2.1989Y-1.6232
X2.2696Y-1.5525
X2.3217Y-0.6539
X2.3403Y-1.4818
X2.3403Y-2.1889
X2.411Y-1.4111
X2.411Y-2.1182
X2.4217Y-0.6539
X2.4817Y-1.3403
X2.4817Y-2.0475
X2.5524Y-1.2696
X2.5524Y-1.9767
X2.6231Y-1.1989
X2.6231Y-1.906
X2.6938Y-1.8353
X2.7645Y-1.7646
X2.7999Y-2.5067
X2.8352Y-1.6939
X2.8706Y-2.436
X2.906Y-1.6232
X2.9413Y-2.3653
X2.9767Y-1.5525
X3.012Y-2.2946
X3.0706Y-0.7085
X3.0827Y-2.2239
X3.1413Y-0.6378
X3.1413Y-0.7793
X3.1534Y-2.1532
X3.212Y-0.7085
X3.212Y-0.85
X3.2241Y-2.0825
X3.2828Y-0.7793
X3.2948Y-2.0118
T5
X1.5046Y-1.2643
X1.5753Y-1.1935
X1.5753Y-1.335
X1.646Y-1.1228
X1.646Y-1.2643
X1.646Y-1.4057
X1.7166Y-1.0523
X1.7167Y-1.1935
X1.7167Y-1.335
X1.7873Y-0.9815
X1.7873Y-1.123
X1.7874Y-1.2643
X1.858Y-0.9108
X1.858Y-1.0523
X1.858Y-1.1937
X1.9286Y-0.8403
X1.9287Y-0.9815
X1.9287Y-1.123
X1.9993Y-0.7695
X1.9993Y-0.911
X1.9994Y-1.0523
X2.07Y-0.6988
X2.07Y-0.8403
X2.07Y-0.9817
X2.1407Y-0.7695
X2.1407Y-0.911
X2.2114Y-0.8403
X2.515Y-2.2485
X2.5857Y-2.1778
X2.5857Y-2.3193
X2.6564Y-2.1071
X2.6564Y-2.2485
X2.6564Y-2.39
X2.727Y-2.0365
X2.7271Y-2.1778
X2.7271Y-2.3193
X2.7977Y-1.9658
X2.7977Y-2.1073
X2.7978Y-2.2485
X2.8684Y-1.8951
X2.8684Y-2.0365
X2.8684Y-2.178
X2.939Y-1.8245
X2.9391Y-1.9658
X2.9391Y-2.1073
X3.0097Y-1.7538
X3.0097Y-1.8953
X3.0098Y-2.0365
X3.0804Y-1.6831
X3.0804Y-1.8245
X3.0804Y-1.966
X3.1511Y-1.7538
X3.1511Y-1.8953
X3.2218Y-1.8245
T6
X1.5354Y-0.748
X3.189Y-2.4016
T0
M30
