M48
;DRILL file {Pcbnew (2014-02-26 BZR 4721)-product} date Thursday, June 12, 2014 'amt' 08:53:36 am
;FORMAT={-:-/ absolute / inch / decimal}
FMAT,2
INCH,TZ
T1C0.025
T2C0.032
T3C0.032
T4C0.040
T5C0.050
T6C0.120
%
G90
G05
M72
T1
X6.35Y-3.385
X6.35Y-3.55
X6.4Y-3.485
X6.475Y-2.755
X6.575Y-2.79
X6.575Y-2.875
X6.63Y-2.685
X6.645Y-2.535
X6.665Y-2.89
X6.705Y-2.65
X6.77Y-2.56
X6.795Y-2.605
X6.825Y-2.915
X6.835Y-2.645
X6.835Y-2.97
X6.95Y-3.525
X6.965Y-2.485
X7.02Y-3.435
X7.025Y-4.17
X7.045Y-3.605
X7.05Y-2.42
X7.09Y-3.365
X7.14Y-3.435
X7.175Y-2.775
X7.195Y-2.565
X7.405Y-3.32
X7.46Y-2.415
X7.575Y-3.65
X7.66Y-3.445
X7.7Y-3.6
T2
X6.34Y-2.605
X6.34Y-2.705
T3
X6.325Y-3.2
X6.325Y-3.8
X6.375Y-4.225
X6.425Y-3.2
X6.425Y-3.8
X6.475Y-4.225
X6.525Y-3.2
X6.525Y-3.8
X6.575Y-4.225
X6.625Y-3.2
X6.625Y-3.8
X6.675Y-4.225
X6.725Y-3.2
X6.725Y-3.8
X6.775Y-4.225
X6.825Y-3.2
X6.825Y-3.8
X6.875Y-4.225
X6.925Y-3.2
X6.925Y-3.8
X6.95Y-2.95
X6.975Y-4.225
X7.025Y-3.2
X7.025Y-3.8
X7.05Y-2.95
X7.075Y-4.225
X7.125Y-3.2
X7.125Y-3.8
X7.15Y-2.95
X7.175Y-4.075
X7.175Y-4.225
X7.225Y-3.2
X7.225Y-3.8
X7.275Y-4.075
X7.275Y-4.225
X7.325Y-3.2
X7.325Y-3.8
X7.425Y-3.2
X7.425Y-3.8
X7.525Y-3.2
X7.525Y-3.8
X7.625Y-3.2
X7.625Y-3.8
X7.725Y-3.2
X7.725Y-3.8
X7.825Y-3.2
X7.825Y-3.8
T4
X6.745Y-3.365
X6.745Y-3.465
X6.745Y-3.565
X7.59Y-2.44
X7.59Y-2.96
X7.71Y-2.44
X7.71Y-2.96
X8.035Y-2.5257
X8.035Y-2.6044
X8.035Y-2.6831
X8.035Y-2.7619
X8.035Y-2.8406
X8.035Y-2.9194
X8.035Y-2.9981
X8.035Y-3.0769
X8.035Y-3.1556
X8.035Y-3.2343
X8.135Y-2.43
X8.135Y-2.53
X8.135Y-2.63
X8.135Y-2.73
X8.135Y-2.83
X8.135Y-2.93
X8.135Y-3.03
X8.135Y-3.13
X8.135Y-3.23
X8.135Y-3.33
T5
X6.375Y-2.45
X6.375Y-2.825
X6.45Y-2.575
X6.45Y-2.675
X6.5Y-2.45
T6
X7.325Y-2.925
T0
M30
