G04 (created by PCBNEW (2013-dec-23)-stable) date Mon 09 Jun 2014 08:04:37 PM MDT*
%MOIN*%
G04 Gerber Fmt 3.4, Leading zero omitted, Abs format*
%FSLAX34Y34*%
G01*
G70*
G90*
G04 APERTURE LIST*
%ADD10C,0.00590551*%
%ADD11C,0.00393701*%
G04 APERTURE END LIST*
G54D10*
G54D11*
X17000Y-24500D02*
G75*
G03X16500Y-25000I0J-500D01*
G74*
G01*
X16500Y-25000D02*
G75*
G03X17000Y-25500I500J0D01*
G74*
G01*
X21000Y-25500D02*
X17000Y-25500D01*
X21000Y-25500D02*
G75*
G03X21500Y-25000I0J500D01*
G74*
G01*
X21500Y-25000D02*
G75*
G03X21000Y-24500I-500J0D01*
G74*
G01*
X31500Y-28000D02*
X32000Y-28000D01*
X31500Y-17500D02*
X32000Y-17500D01*
X29500Y-10500D02*
X29500Y-15500D01*
X14000Y-17500D02*
X14500Y-17500D01*
X14000Y-24500D02*
X14500Y-24500D01*
X29000Y-17500D02*
X28500Y-17500D01*
X29500Y-18000D02*
X29500Y-18500D01*
X29000Y-24500D02*
X23500Y-24500D01*
X30500Y-27000D02*
X30500Y-24000D01*
X29500Y-18500D02*
G75*
G03X30000Y-19000I500J0D01*
G74*
G01*
X30000Y-19000D02*
G75*
G03X30500Y-18500I0J500D01*
G74*
G01*
X30500Y-24000D02*
G75*
G03X30000Y-23500I-500J0D01*
G74*
G01*
X30000Y-23500D02*
G75*
G03X29500Y-24000I0J-500D01*
G74*
G01*
X28000Y-17000D02*
G75*
G03X28500Y-17500I500J0D01*
G74*
G01*
X28500Y-16500D02*
G75*
G03X28000Y-17000I0J-500D01*
G74*
G01*
X28500Y-16500D02*
G75*
G03X29500Y-15500I0J1000D01*
G74*
G01*
X29500Y-18000D02*
G75*
G03X29000Y-17500I-500J0D01*
G74*
G01*
X23500Y-24500D02*
G75*
G03X23000Y-25000I0J-500D01*
G74*
G01*
X23000Y-25000D02*
G75*
G03X23500Y-25500I500J0D01*
G74*
G01*
X13500Y-26500D02*
X13500Y-28000D01*
X24500Y-28000D02*
X24500Y-26500D01*
X14500Y-29000D02*
X23500Y-29000D01*
X24500Y-26500D02*
G75*
G03X23500Y-25500I-1000J0D01*
G74*
G01*
X23500Y-29000D02*
G75*
G03X24500Y-28000I0J1000D01*
G74*
G01*
X14500Y-25500D02*
G75*
G03X15000Y-25000I0J500D01*
G74*
G01*
X15000Y-25000D02*
G75*
G03X14500Y-24500I-500J0D01*
G74*
G01*
X13500Y-28000D02*
G75*
G03X14500Y-29000I1000J0D01*
G74*
G01*
X14500Y-25500D02*
G75*
G03X13500Y-26500I0J-1000D01*
G74*
G01*
X33000Y-27000D02*
X33000Y-18500D01*
X14500Y-17500D02*
G75*
G03X15000Y-17000I0J500D01*
G74*
G01*
X15000Y-17000D02*
G75*
G03X14500Y-16500I-500J0D01*
G74*
G01*
X30500Y-27000D02*
G75*
G03X31500Y-28000I1000J0D01*
G74*
G01*
X32000Y-28000D02*
G75*
G03X33000Y-27000I0J1000D01*
G74*
G01*
X33000Y-18500D02*
G75*
G03X32000Y-17500I-1000J0D01*
G74*
G01*
X31500Y-17500D02*
G75*
G03X30500Y-18500I0J-1000D01*
G74*
G01*
X14500Y-9500D02*
X28500Y-9500D01*
X13500Y-10500D02*
X13500Y-15500D01*
X13500Y-15500D02*
G75*
G03X14500Y-16500I1000J0D01*
G74*
G01*
X29500Y-10500D02*
G75*
G03X28500Y-9500I-1000J0D01*
G74*
G01*
X14500Y-9500D02*
G75*
G03X13500Y-10500I0J-1000D01*
G74*
G01*
X13500Y-18000D02*
X13500Y-24000D01*
X13500Y-24000D02*
G75*
G03X14000Y-24500I500J0D01*
G74*
G01*
X14000Y-17500D02*
G75*
G03X13500Y-18000I0J-500D01*
G74*
G01*
X29000Y-24500D02*
G75*
G03X29500Y-24000I0J500D01*
G74*
G01*
M02*
