%FSLAX34Y34*%
G04 Gerber Fmt 3.4, Leading zero omitted, Abs format*
G04 (created by PCBNEW (2014-02-26 BZR 4721)-product) date Thursday, June 12, 2014 'amt' 08:53:31 am*
%MOIN*%
G01*
G70*
G90*
G04 APERTURE LIST*
%ADD10C,0.005906*%
%ADD11R,0.055000X0.055000*%
%ADD12C,0.055000*%
%ADD13C,0.060000*%
%ADD14R,0.043307X0.098425*%
%ADD15R,0.070000X0.070000*%
%ADD16R,0.059100X0.059100*%
%ADD17C,0.059100*%
%ADD18C,0.080000*%
%ADD19R,0.080000X0.080000*%
%ADD20C,0.070000*%
%ADD21R,0.098425X0.078740*%
%ADD22C,0.160000*%
%ADD23C,0.400000*%
%ADD24C,0.090000*%
%ADD25R,0.035000X0.055000*%
%ADD26R,0.055000X0.035000*%
%ADD27R,0.017700X0.078700*%
%ADD28R,0.078700X0.017700*%
%ADD29R,0.023600X0.055100*%
%ADD30R,0.090600X0.019700*%
%ADD31R,0.098400X0.078700*%
%ADD32R,0.041339X0.033465*%
%ADD33R,0.045000X0.025000*%
%ADD34R,0.025000X0.045000*%
%ADD35R,0.047200X0.047200*%
%ADD36C,0.035000*%
%ADD37C,0.020000*%
%ADD38C,0.015000*%
%ADD39C,0.010000*%
%ADD40C,0.060000*%
%ADD41C,0.013000*%
G04 APERTURE END LIST*
G54D10*
G54D11*
X63750Y-42250D03*
G54D12*
X64750Y-42250D03*
X65750Y-42250D03*
X66750Y-42250D03*
X67750Y-42250D03*
X68750Y-42250D03*
X69750Y-42250D03*
X70750Y-42250D03*
X71750Y-42250D03*
X72750Y-42250D03*
G54D13*
X81350Y-33300D03*
X81350Y-32300D03*
X81350Y-31300D03*
X81350Y-30300D03*
X81350Y-29300D03*
X81350Y-28300D03*
X81350Y-27300D03*
X81350Y-26300D03*
X81350Y-25300D03*
X81350Y-24300D03*
X80350Y-32343D03*
X80350Y-31555D03*
X80350Y-30768D03*
X80350Y-29981D03*
X80350Y-29193D03*
X80350Y-28406D03*
X80350Y-27618D03*
X80350Y-26831D03*
X80350Y-26044D03*
X80350Y-25256D03*
G54D14*
X63541Y-40750D03*
X64131Y-40750D03*
X64722Y-40750D03*
X65312Y-40750D03*
X65903Y-40750D03*
X66494Y-40750D03*
X67084Y-40750D03*
X67675Y-40750D03*
X68265Y-40750D03*
X68856Y-40750D03*
X69446Y-40750D03*
X70037Y-40750D03*
X70627Y-40750D03*
G54D11*
X71750Y-40750D03*
G54D12*
X72750Y-40750D03*
G54D15*
X67550Y-29500D03*
G54D16*
X63400Y-26050D03*
G54D17*
X63400Y-27050D03*
G54D18*
X65000Y-24500D03*
G54D19*
X63750Y-24500D03*
G54D15*
X63750Y-28250D03*
G54D20*
X64500Y-26750D03*
X64500Y-25750D03*
G54D21*
X70667Y-27500D03*
X72832Y-27500D03*
G54D11*
X71500Y-29500D03*
G54D12*
X70500Y-29500D03*
X69500Y-29500D03*
G54D22*
X73250Y-29250D03*
G54D23*
X76500Y-27000D03*
G54D24*
X75900Y-24400D03*
X77100Y-24400D03*
X75900Y-29600D03*
X77100Y-29600D03*
G54D25*
X70025Y-24250D03*
X69275Y-24250D03*
G54D26*
X74000Y-24175D03*
X74000Y-24925D03*
X70900Y-24225D03*
X70900Y-24975D03*
X66650Y-29875D03*
X66650Y-29125D03*
G54D27*
X66357Y-24504D03*
X66672Y-24504D03*
X66987Y-24504D03*
X67302Y-24504D03*
X67617Y-24504D03*
X67932Y-24504D03*
X68247Y-24504D03*
X68562Y-24504D03*
X68560Y-28270D03*
X66350Y-28270D03*
X66670Y-28270D03*
X66990Y-28270D03*
X67300Y-28270D03*
X67620Y-28270D03*
X67930Y-28270D03*
X68250Y-28270D03*
G54D28*
X69350Y-25288D03*
X69350Y-25602D03*
X69350Y-25918D03*
X69350Y-26232D03*
X69350Y-26548D03*
X69350Y-26862D03*
X69350Y-27178D03*
X69350Y-27492D03*
X65570Y-25290D03*
X65570Y-25600D03*
X65570Y-25920D03*
X65570Y-26230D03*
X65570Y-26540D03*
X65570Y-26860D03*
X65570Y-27180D03*
X65570Y-27500D03*
G54D29*
X71700Y-24150D03*
X71700Y-26250D03*
X72200Y-24150D03*
X72700Y-24150D03*
X73200Y-24150D03*
X72200Y-26250D03*
X72700Y-26250D03*
X73200Y-26250D03*
G54D15*
X63750Y-29500D03*
X64750Y-29500D03*
X65750Y-29500D03*
G54D12*
X71250Y-32000D03*
X72250Y-32000D03*
X73250Y-32000D03*
X74250Y-32000D03*
X75250Y-32000D03*
X76250Y-32000D03*
X77250Y-32000D03*
X78250Y-32000D03*
G54D11*
X63250Y-32000D03*
G54D12*
X64250Y-32000D03*
X65250Y-32000D03*
X66250Y-32000D03*
X67250Y-32000D03*
X68250Y-32000D03*
X69250Y-32000D03*
X70250Y-32000D03*
X70250Y-38000D03*
X69250Y-38000D03*
X68250Y-38000D03*
X67250Y-38000D03*
X66250Y-38000D03*
X65250Y-38000D03*
X64250Y-38000D03*
X63250Y-38000D03*
X78250Y-38000D03*
X77250Y-38000D03*
X76250Y-38000D03*
X75250Y-38000D03*
X74250Y-38000D03*
X73250Y-38000D03*
X72250Y-38000D03*
X71250Y-38000D03*
G54D30*
X65608Y-34370D03*
X65608Y-34685D03*
X65608Y-35000D03*
X65608Y-35315D03*
X65608Y-35630D03*
G54D31*
X65569Y-33248D03*
X63404Y-33248D03*
X65569Y-36752D03*
X63404Y-36752D03*
G54D13*
X67450Y-33650D03*
X67450Y-35650D03*
X67450Y-34650D03*
G54D15*
X78000Y-36000D03*
X78000Y-35000D03*
X78000Y-34000D03*
G54D32*
X71962Y-32856D03*
X73537Y-32856D03*
X71962Y-33643D03*
X73537Y-33643D03*
X68712Y-32856D03*
X70287Y-32856D03*
X68712Y-33643D03*
X70287Y-33643D03*
G54D33*
X71000Y-35550D03*
X71000Y-34950D03*
X69000Y-34950D03*
X69000Y-35550D03*
X69000Y-37050D03*
X69000Y-36450D03*
G54D34*
X67800Y-37000D03*
X67200Y-37000D03*
G54D33*
X70000Y-36450D03*
X70000Y-37050D03*
X70000Y-34950D03*
X70000Y-35550D03*
X72000Y-34950D03*
X72000Y-35550D03*
X71000Y-37050D03*
X71000Y-36450D03*
X72000Y-37050D03*
X72000Y-36450D03*
X73000Y-36450D03*
X73000Y-37050D03*
G54D35*
X73250Y-34837D03*
X73250Y-35663D03*
X74500Y-34837D03*
X74500Y-35663D03*
G54D36*
X69650Y-24850D03*
X65750Y-27900D03*
X65750Y-28750D03*
X64750Y-27550D03*
X68350Y-29700D03*
X68350Y-26450D03*
X67950Y-26050D03*
X68250Y-29150D03*
X67700Y-25600D03*
X70250Y-41700D03*
X74050Y-33200D03*
X75750Y-36500D03*
X71400Y-34350D03*
X63500Y-35500D03*
X70450Y-36050D03*
X69500Y-35250D03*
X76600Y-34450D03*
X70200Y-34350D03*
X64000Y-34850D03*
X71950Y-25650D03*
X67050Y-26500D03*
X71750Y-27750D03*
X77000Y-36000D03*
X70900Y-33650D03*
X63500Y-33850D03*
X66300Y-26850D03*
X66450Y-25350D03*
X70500Y-24200D03*
X74600Y-24150D03*
X66650Y-28900D03*
G54D37*
X70627Y-40750D02*
X70627Y-41277D01*
X72750Y-41800D02*
X72750Y-42250D01*
X72500Y-41550D02*
X72750Y-41800D01*
X70900Y-41550D02*
X72500Y-41550D01*
X70627Y-41277D02*
X70900Y-41550D01*
G54D38*
X68562Y-24612D02*
X68562Y-24504D01*
X69650Y-24850D02*
X69150Y-24850D01*
X69150Y-24850D02*
X68800Y-24850D01*
X68800Y-24850D02*
X68562Y-24612D01*
X65570Y-27720D02*
X65570Y-27500D01*
X65750Y-27900D02*
X65570Y-27720D01*
X65750Y-29500D02*
X65750Y-28750D01*
X65570Y-27180D02*
X65120Y-27180D01*
X65120Y-27180D02*
X64750Y-27550D01*
X67950Y-30100D02*
X67900Y-30100D01*
X68350Y-29700D02*
X67950Y-30100D01*
X68350Y-26450D02*
X68568Y-26232D01*
X69350Y-26232D02*
X68568Y-26232D01*
X66650Y-30100D02*
X67900Y-30100D01*
G54D37*
X66650Y-29875D02*
X66650Y-30100D01*
G54D38*
X63750Y-29500D02*
X63750Y-29900D01*
X63750Y-29900D02*
X63950Y-30100D01*
X63950Y-30100D02*
X66650Y-30100D01*
X70667Y-27500D02*
X71000Y-27500D01*
X71700Y-26800D02*
X71700Y-26250D01*
X71000Y-27500D02*
X71700Y-26800D01*
X72200Y-26250D02*
X72200Y-26867D01*
X72200Y-26867D02*
X72832Y-27500D01*
G54D37*
X64131Y-40750D02*
X64131Y-41231D01*
X65150Y-41650D02*
X65750Y-42250D01*
X64550Y-41650D02*
X65150Y-41650D01*
X64131Y-41231D02*
X64550Y-41650D01*
G54D38*
X68082Y-25918D02*
X67950Y-26050D01*
X69350Y-25918D02*
X68082Y-25918D01*
X67900Y-29500D02*
X67550Y-29500D01*
X68250Y-29150D02*
X67900Y-29500D01*
X64750Y-29500D02*
X64750Y-29300D01*
X65250Y-28650D02*
X65630Y-28270D01*
X65250Y-28800D02*
X65250Y-28650D01*
X64750Y-29300D02*
X65250Y-28800D01*
X65630Y-28270D02*
X66350Y-28270D01*
X70900Y-24975D02*
X70900Y-25100D01*
X70900Y-25100D02*
X70450Y-25550D01*
X70450Y-25550D02*
X70250Y-25550D01*
X69350Y-26548D02*
X69852Y-26548D01*
X70000Y-25800D02*
X70250Y-25550D01*
X70000Y-26400D02*
X70000Y-25800D01*
X69852Y-26548D02*
X70000Y-26400D01*
X72700Y-24150D02*
X72700Y-24800D01*
X72525Y-24975D02*
X70900Y-24975D01*
X72700Y-24800D02*
X72525Y-24975D01*
X69350Y-26862D02*
X69938Y-26862D01*
X70350Y-25850D02*
X70600Y-25850D01*
X70250Y-25949D02*
X70350Y-25850D01*
X70250Y-26549D02*
X70250Y-25949D01*
X69938Y-26862D02*
X70250Y-26549D01*
X72650Y-25250D02*
X73200Y-24700D01*
X71550Y-25250D02*
X72650Y-25250D01*
X71450Y-25350D02*
X71550Y-25250D01*
X71100Y-25350D02*
X71450Y-25350D01*
X70600Y-25850D02*
X71100Y-25350D01*
X73200Y-24150D02*
X73200Y-24700D01*
X73200Y-24700D02*
X73200Y-24800D01*
X73325Y-24925D02*
X74000Y-24925D01*
X73200Y-24800D02*
X73325Y-24925D01*
X68247Y-24504D02*
X68247Y-25047D01*
X68488Y-25288D02*
X69350Y-25288D01*
X68247Y-25047D02*
X68488Y-25288D01*
X70200Y-25200D02*
X70250Y-25200D01*
X72200Y-24550D02*
X72100Y-24650D01*
X72100Y-24650D02*
X71450Y-24650D01*
X71450Y-24650D02*
X71400Y-24600D01*
X71400Y-24600D02*
X70500Y-24600D01*
X72200Y-24150D02*
X72200Y-24550D01*
X70400Y-24700D02*
X70400Y-25050D01*
X70500Y-24600D02*
X70400Y-24700D01*
X70250Y-25200D02*
X70400Y-25050D01*
X70112Y-25288D02*
X69350Y-25288D01*
X70200Y-25200D02*
X70112Y-25288D01*
G54D37*
X63541Y-40750D02*
X63541Y-41391D01*
X64700Y-42250D02*
X64750Y-42250D01*
X64150Y-41700D02*
X64700Y-42250D01*
X63850Y-41700D02*
X64150Y-41700D01*
X63541Y-41391D02*
X63850Y-41700D01*
G54D38*
X69350Y-25602D02*
X67702Y-25602D01*
X67702Y-25602D02*
X67700Y-25600D01*
X72700Y-26250D02*
X72700Y-25650D01*
X74600Y-25400D02*
X74650Y-25350D01*
X72950Y-25400D02*
X74600Y-25400D01*
X72700Y-25650D02*
X72950Y-25400D01*
X75350Y-24400D02*
X77100Y-24400D01*
X75000Y-24750D02*
X75350Y-24400D01*
X75000Y-25000D02*
X75000Y-24750D01*
X74650Y-25350D02*
X75000Y-25000D01*
G54D37*
X70037Y-41487D02*
X70250Y-41700D01*
X70037Y-40750D02*
X70037Y-41487D01*
G54D38*
X67450Y-33650D02*
X67450Y-33950D01*
X67450Y-33950D02*
X68450Y-34950D01*
X69000Y-34950D02*
X68450Y-34950D01*
X72000Y-34950D02*
X72000Y-33681D01*
X72000Y-33681D02*
X71962Y-33643D01*
X74050Y-33200D02*
X73606Y-33643D01*
X73606Y-33643D02*
X73537Y-33643D01*
X73537Y-33643D02*
X73606Y-33643D01*
X71962Y-33643D02*
X73537Y-33643D01*
X78000Y-35000D02*
X77650Y-35000D01*
X77350Y-32100D02*
X77250Y-32000D01*
X77350Y-34700D02*
X77350Y-32100D01*
X77650Y-35000D02*
X77350Y-34700D01*
X78000Y-34000D02*
X78300Y-34000D01*
X78250Y-37150D02*
X78250Y-38000D01*
X78550Y-36850D02*
X78250Y-37150D01*
X78550Y-34250D02*
X78550Y-36850D01*
X78300Y-34000D02*
X78550Y-34250D01*
X74500Y-34837D02*
X74887Y-34837D01*
X75150Y-35100D02*
X74887Y-34837D01*
X75150Y-35900D02*
X75150Y-35100D01*
X75150Y-35900D02*
X75750Y-36500D01*
X69000Y-37050D02*
X68800Y-37050D01*
X68050Y-35650D02*
X67450Y-35650D01*
X68450Y-36050D02*
X68050Y-35650D01*
X68450Y-36700D02*
X68450Y-36050D01*
X68800Y-37050D02*
X68450Y-36700D01*
X71250Y-38000D02*
X71800Y-37450D01*
X78000Y-37100D02*
X78000Y-36000D01*
X77650Y-37450D02*
X78000Y-37100D01*
X71800Y-37450D02*
X77650Y-37450D01*
X71000Y-34950D02*
X71000Y-34356D01*
X71000Y-34356D02*
X70287Y-33643D01*
X71000Y-34750D02*
X71000Y-34950D01*
X71400Y-34350D02*
X71000Y-34750D01*
X68712Y-33643D02*
X70287Y-33643D01*
X68250Y-38000D02*
X68250Y-37450D01*
X68250Y-37450D02*
X67800Y-37000D01*
X67200Y-37000D02*
X67200Y-36750D01*
X66430Y-35630D02*
X65608Y-35630D01*
X66600Y-35800D02*
X66430Y-35630D01*
X66600Y-36150D02*
X66600Y-35800D01*
X67200Y-36750D02*
X66600Y-36150D01*
X67250Y-38000D02*
X67250Y-37050D01*
X67250Y-37050D02*
X67200Y-37000D01*
X64880Y-35630D02*
X64750Y-35500D01*
X64750Y-35500D02*
X63500Y-35500D01*
X64880Y-35630D02*
X65608Y-35630D01*
X70050Y-36450D02*
X70000Y-36450D01*
X70450Y-36050D02*
X70050Y-36450D01*
X69500Y-35250D02*
X69800Y-35550D01*
G54D39*
X69800Y-35550D02*
X70000Y-35550D01*
G54D38*
X69800Y-35550D02*
X70000Y-35550D01*
X76600Y-34450D02*
X75200Y-34450D01*
X73250Y-34500D02*
X73250Y-34837D01*
X73500Y-34250D02*
X73250Y-34500D01*
X75000Y-34250D02*
X73500Y-34250D01*
X75200Y-34450D02*
X75000Y-34250D01*
X72000Y-35550D02*
X72200Y-35550D01*
X72200Y-35550D02*
X72913Y-34837D01*
X72913Y-34837D02*
X73250Y-34837D01*
X73250Y-34837D02*
X72913Y-34837D01*
X70700Y-35550D02*
X71000Y-35550D01*
X70500Y-35350D02*
X70700Y-35550D01*
X70500Y-34650D02*
X70500Y-35350D01*
X70200Y-34350D02*
X70500Y-34650D01*
X71000Y-36450D02*
X71000Y-35550D01*
X71000Y-35550D02*
X72000Y-35550D01*
X65608Y-34370D02*
X66130Y-34370D01*
X66250Y-34250D02*
X66250Y-32000D01*
X66130Y-34370D02*
X66250Y-34250D01*
X65608Y-34370D02*
X65030Y-34370D01*
X64550Y-34850D02*
X64000Y-34850D01*
X65030Y-34370D02*
X64550Y-34850D01*
X67250Y-26700D02*
X67302Y-26700D01*
X67050Y-26500D02*
X67250Y-26700D01*
X71750Y-27750D02*
X71750Y-28500D01*
X69500Y-29500D02*
X69500Y-29000D01*
X69500Y-29000D02*
X69500Y-28500D01*
X69500Y-28500D02*
X71750Y-28500D01*
X71750Y-28500D02*
X72250Y-28500D01*
X72500Y-28500D02*
X73250Y-29250D01*
X72250Y-28500D02*
X72500Y-28500D01*
X67620Y-27530D02*
X68580Y-27530D01*
X68580Y-27530D02*
X69500Y-28450D01*
X69500Y-28450D02*
X69500Y-28500D01*
X67302Y-27212D02*
X67620Y-27530D01*
X67302Y-26700D02*
X67302Y-27212D01*
X67302Y-26350D02*
X67250Y-26350D01*
X67250Y-26350D02*
X67302Y-26350D01*
X67302Y-26000D02*
X67302Y-26350D01*
X67302Y-26350D02*
X67302Y-26700D01*
X76500Y-27000D02*
X75500Y-27000D01*
X75500Y-27000D02*
X73250Y-29250D01*
X67932Y-24504D02*
X67932Y-24968D01*
X67750Y-25150D02*
X67302Y-25150D01*
X67932Y-24968D02*
X67750Y-25150D01*
G54D40*
X63750Y-27050D02*
X63400Y-27050D01*
X63750Y-27050D02*
X64200Y-27050D01*
X64200Y-27050D02*
X64500Y-26750D01*
G54D38*
X76500Y-27000D02*
X74500Y-27000D01*
X67932Y-24504D02*
X67932Y-24018D01*
X68925Y-23900D02*
X69275Y-24250D01*
X68050Y-23900D02*
X68925Y-23900D01*
X67932Y-24018D02*
X68050Y-23900D01*
X67302Y-24504D02*
X67302Y-25150D01*
X67302Y-25150D02*
X67302Y-25350D01*
X67302Y-25350D02*
X67302Y-26000D01*
X67620Y-27530D02*
X67620Y-28270D01*
X73200Y-26250D02*
X75750Y-26250D01*
X75750Y-26250D02*
X76500Y-27000D01*
X73000Y-37050D02*
X76750Y-37050D01*
X77000Y-36800D02*
X77000Y-36000D01*
X76750Y-37050D02*
X77000Y-36800D01*
X72000Y-37050D02*
X73000Y-37050D01*
X71000Y-37050D02*
X72000Y-37050D01*
X73537Y-32856D02*
X73743Y-32856D01*
X77000Y-33050D02*
X77000Y-36000D01*
X76750Y-32800D02*
X77000Y-33050D01*
X73743Y-32856D02*
X73800Y-32800D01*
X74750Y-32800D02*
X76750Y-32800D01*
X73800Y-32800D02*
X74750Y-32800D01*
X73593Y-32800D02*
X73537Y-32856D01*
X73593Y-32800D02*
X73537Y-32856D01*
X70750Y-33500D02*
X70750Y-32856D01*
X70900Y-33650D02*
X70750Y-33500D01*
X73593Y-32800D02*
X73537Y-32856D01*
X69000Y-35550D02*
X68350Y-35550D01*
X68350Y-35550D02*
X67450Y-34650D01*
X69000Y-36450D02*
X69000Y-35550D01*
X70287Y-32856D02*
X68712Y-32856D01*
X70287Y-32856D02*
X70750Y-32856D01*
X70750Y-32856D02*
X71962Y-32856D01*
X73537Y-32856D02*
X71962Y-32856D01*
X65250Y-32000D02*
X65100Y-32000D01*
X63852Y-33248D02*
X63404Y-33248D01*
X65100Y-32000D02*
X63852Y-33248D01*
X63404Y-36752D02*
X63404Y-36704D01*
X63050Y-34300D02*
X63500Y-33850D01*
X63050Y-36350D02*
X63050Y-34300D01*
X63404Y-36704D02*
X63050Y-36350D01*
X63404Y-33754D02*
X63404Y-33248D01*
X63500Y-33850D02*
X63404Y-33754D01*
X65569Y-36752D02*
X63404Y-36752D01*
X65569Y-33248D02*
X63404Y-33248D01*
G54D37*
X80350Y-25256D02*
X80393Y-25256D01*
X80393Y-25256D02*
X81350Y-24300D01*
G54D38*
X70000Y-34950D02*
X69900Y-34950D01*
X66615Y-34685D02*
X65608Y-34685D01*
X66850Y-34450D02*
X66615Y-34685D01*
X66850Y-33350D02*
X66850Y-34450D01*
X67100Y-33100D02*
X66850Y-33350D01*
X67750Y-33100D02*
X67100Y-33100D01*
X68050Y-33400D02*
X67750Y-33100D01*
X68050Y-33950D02*
X68050Y-33400D01*
X68650Y-34550D02*
X68050Y-33950D01*
X69500Y-34550D02*
X68650Y-34550D01*
X69900Y-34950D02*
X69500Y-34550D01*
G54D37*
X80350Y-32343D02*
X80393Y-32343D01*
X80393Y-32343D02*
X81350Y-33300D01*
X80350Y-26044D02*
X80605Y-26044D01*
X80605Y-26044D02*
X81350Y-25300D01*
G54D38*
X69500Y-37400D02*
X69850Y-37400D01*
X70000Y-37250D02*
X70000Y-37050D01*
X69850Y-37400D02*
X70000Y-37250D01*
X68650Y-37400D02*
X69500Y-37400D01*
X68650Y-37400D02*
X68150Y-36900D01*
X68000Y-36250D02*
X67150Y-36250D01*
X68150Y-36400D02*
X68000Y-36250D01*
X68150Y-36900D02*
X68150Y-36400D01*
X66800Y-35000D02*
X65608Y-35000D01*
X66950Y-35150D02*
X66800Y-35000D01*
X66950Y-36050D02*
X66950Y-35150D01*
X67150Y-36250D02*
X66950Y-36050D01*
G54D37*
X80350Y-26831D02*
X80818Y-26831D01*
X80818Y-26831D02*
X81350Y-26300D01*
G54D38*
X74500Y-35663D02*
X74087Y-35663D01*
X73300Y-36450D02*
X73000Y-36450D01*
X74087Y-35663D02*
X73300Y-36450D01*
G54D37*
X80350Y-27618D02*
X81031Y-27618D01*
X81031Y-27618D02*
X81350Y-27300D01*
X80350Y-28406D02*
X81243Y-28406D01*
X81243Y-28406D02*
X81350Y-28300D01*
G54D38*
X73250Y-35663D02*
X72787Y-35663D01*
X72787Y-35663D02*
X72000Y-36450D01*
G54D37*
X80350Y-29193D02*
X81243Y-29193D01*
X81243Y-29193D02*
X81350Y-29300D01*
X80350Y-29981D02*
X81031Y-29981D01*
X81031Y-29981D02*
X81350Y-30300D01*
X80350Y-30768D02*
X80818Y-30768D01*
X80818Y-30768D02*
X81350Y-31300D01*
X80350Y-31555D02*
X80605Y-31555D01*
X80605Y-31555D02*
X81350Y-32300D01*
G54D38*
X66290Y-26860D02*
X65570Y-26860D01*
X66300Y-26850D02*
X66290Y-26860D01*
X66950Y-26950D02*
X66450Y-26450D01*
X66450Y-26450D02*
X66450Y-26400D01*
X66950Y-26950D02*
X66987Y-26987D01*
X66987Y-24504D02*
X66987Y-25113D01*
X66750Y-25350D02*
X66450Y-25350D01*
X66987Y-25113D02*
X66750Y-25350D01*
X66450Y-25350D02*
X66450Y-26400D01*
X66987Y-27387D02*
X66987Y-26987D01*
X70400Y-24250D02*
X70400Y-24225D01*
X70425Y-24225D02*
X70400Y-24250D01*
X70475Y-24225D02*
X70425Y-24225D01*
X70500Y-24200D02*
X70475Y-24225D01*
X74575Y-24175D02*
X74600Y-24150D01*
X74000Y-24175D02*
X74575Y-24175D01*
X66650Y-28900D02*
X66650Y-29125D01*
X66670Y-28880D02*
X66670Y-28270D01*
X66650Y-28900D02*
X66670Y-28880D01*
X63750Y-24500D02*
X64350Y-23900D01*
X64350Y-23900D02*
X64500Y-23900D01*
G54D40*
X64500Y-25750D02*
X63700Y-25750D01*
X63700Y-25750D02*
X63400Y-26050D01*
X63400Y-26050D02*
X63400Y-24850D01*
G54D38*
X63400Y-24850D02*
X63750Y-24500D01*
X64500Y-23900D02*
X67050Y-23900D01*
X67050Y-23900D02*
X66987Y-23963D01*
X66670Y-28270D02*
X66670Y-27704D01*
X66670Y-27704D02*
X66987Y-27387D01*
X67300Y-28270D02*
X67300Y-27700D01*
X67300Y-27700D02*
X66987Y-27387D01*
X67617Y-24504D02*
X67617Y-23967D01*
X67550Y-23900D02*
X67050Y-23900D01*
X67617Y-23967D02*
X67550Y-23900D01*
X67050Y-23900D02*
X66987Y-23963D01*
X66987Y-23963D02*
X66987Y-24504D01*
X70900Y-24225D02*
X70400Y-24225D01*
X70400Y-24225D02*
X70050Y-24225D01*
X70050Y-24225D02*
X70025Y-24250D01*
X71700Y-24150D02*
X70975Y-24150D01*
X70975Y-24150D02*
X70900Y-24225D01*
G54D10*
G36*
X65363Y-28077D02*
X65020Y-28420D01*
X64949Y-28525D01*
X64925Y-28650D01*
X64925Y-28665D01*
X64690Y-28900D01*
X64350Y-28900D01*
X64350Y-28900D01*
X64350Y-28649D01*
X64350Y-28550D01*
X64350Y-27850D01*
X64311Y-27758D01*
X64241Y-27688D01*
X64149Y-27650D01*
X64050Y-27650D01*
X63350Y-27650D01*
X63258Y-27688D01*
X63188Y-27758D01*
X63150Y-27850D01*
X63150Y-27949D01*
X63150Y-28649D01*
X63188Y-28741D01*
X63258Y-28811D01*
X63350Y-28850D01*
X63449Y-28850D01*
X64149Y-28850D01*
X64241Y-28811D01*
X64311Y-28741D01*
X64350Y-28649D01*
X64350Y-28900D01*
X64258Y-28938D01*
X64250Y-28946D01*
X64241Y-28938D01*
X64149Y-28900D01*
X64050Y-28900D01*
X63350Y-28900D01*
X63258Y-28938D01*
X63188Y-29008D01*
X63150Y-29100D01*
X63150Y-29199D01*
X63150Y-29881D01*
X63080Y-29777D01*
X63019Y-29473D01*
X63019Y-26800D01*
X64300Y-26800D01*
X64300Y-26316D01*
X64380Y-26349D01*
X64618Y-26350D01*
X64740Y-26300D01*
X64926Y-26300D01*
X64926Y-26368D01*
X64933Y-26384D01*
X64926Y-26401D01*
X64926Y-26501D01*
X64926Y-26678D01*
X64935Y-26699D01*
X64926Y-26721D01*
X64926Y-26821D01*
X64926Y-26925D01*
X64890Y-26950D01*
X64715Y-27124D01*
X64665Y-27124D01*
X64509Y-27189D01*
X64389Y-27308D01*
X64325Y-27465D01*
X64324Y-27634D01*
X64389Y-27790D01*
X64508Y-27910D01*
X64665Y-27974D01*
X64834Y-27975D01*
X64990Y-27910D01*
X65081Y-27819D01*
X65126Y-27838D01*
X65226Y-27838D01*
X65268Y-27838D01*
X65269Y-27844D01*
X65324Y-27927D01*
X65324Y-27984D01*
X65363Y-28077D01*
X65363Y-28077D01*
G37*
G54D39*
X65363Y-28077D02*
X65020Y-28420D01*
X64949Y-28525D01*
X64925Y-28650D01*
X64925Y-28665D01*
X64690Y-28900D01*
X64350Y-28900D01*
X64350Y-28900D01*
X64350Y-28649D01*
X64350Y-28550D01*
X64350Y-27850D01*
X64311Y-27758D01*
X64241Y-27688D01*
X64149Y-27650D01*
X64050Y-27650D01*
X63350Y-27650D01*
X63258Y-27688D01*
X63188Y-27758D01*
X63150Y-27850D01*
X63150Y-27949D01*
X63150Y-28649D01*
X63188Y-28741D01*
X63258Y-28811D01*
X63350Y-28850D01*
X63449Y-28850D01*
X64149Y-28850D01*
X64241Y-28811D01*
X64311Y-28741D01*
X64350Y-28649D01*
X64350Y-28900D01*
X64258Y-28938D01*
X64250Y-28946D01*
X64241Y-28938D01*
X64149Y-28900D01*
X64050Y-28900D01*
X63350Y-28900D01*
X63258Y-28938D01*
X63188Y-29008D01*
X63150Y-29100D01*
X63150Y-29199D01*
X63150Y-29881D01*
X63080Y-29777D01*
X63019Y-29473D01*
X63019Y-26800D01*
X64300Y-26800D01*
X64300Y-26316D01*
X64380Y-26349D01*
X64618Y-26350D01*
X64740Y-26300D01*
X64926Y-26300D01*
X64926Y-26368D01*
X64933Y-26384D01*
X64926Y-26401D01*
X64926Y-26501D01*
X64926Y-26678D01*
X64935Y-26699D01*
X64926Y-26721D01*
X64926Y-26821D01*
X64926Y-26925D01*
X64890Y-26950D01*
X64715Y-27124D01*
X64665Y-27124D01*
X64509Y-27189D01*
X64389Y-27308D01*
X64325Y-27465D01*
X64324Y-27634D01*
X64389Y-27790D01*
X64508Y-27910D01*
X64665Y-27974D01*
X64834Y-27975D01*
X64990Y-27910D01*
X65081Y-27819D01*
X65126Y-27838D01*
X65226Y-27838D01*
X65268Y-27838D01*
X65269Y-27844D01*
X65324Y-27927D01*
X65324Y-27984D01*
X65363Y-28077D01*
G54D10*
G36*
X66021Y-24955D02*
X66013Y-24951D01*
X65913Y-24951D01*
X65300Y-24951D01*
X65300Y-24950D01*
X64399Y-24950D01*
X64400Y-24949D01*
X64400Y-24850D01*
X64400Y-24309D01*
X64484Y-24225D01*
X64500Y-24225D01*
X66018Y-24225D01*
X66018Y-24947D01*
X66021Y-24955D01*
X66021Y-24955D01*
G37*
G54D39*
X66021Y-24955D02*
X66013Y-24951D01*
X65913Y-24951D01*
X65300Y-24951D01*
X65300Y-24950D01*
X64399Y-24950D01*
X64400Y-24949D01*
X64400Y-24850D01*
X64400Y-24309D01*
X64484Y-24225D01*
X64500Y-24225D01*
X66018Y-24225D01*
X66018Y-24947D01*
X66021Y-24955D01*
G54D10*
G36*
X68714Y-27019D02*
X68706Y-27039D01*
X68706Y-27139D01*
X68706Y-27316D01*
X68714Y-27334D01*
X68706Y-27353D01*
X68706Y-27453D01*
X68706Y-27629D01*
X68698Y-27626D01*
X68598Y-27626D01*
X68421Y-27626D01*
X68405Y-27633D01*
X68388Y-27626D01*
X68288Y-27626D01*
X68111Y-27626D01*
X68090Y-27635D01*
X68068Y-27626D01*
X67968Y-27626D01*
X67791Y-27626D01*
X67775Y-27633D01*
X67758Y-27626D01*
X67726Y-27626D01*
X67664Y-27689D01*
X67664Y-27700D01*
X67629Y-27734D01*
X67625Y-27745D01*
X67625Y-27700D01*
X67600Y-27575D01*
X67600Y-27575D01*
X67529Y-27470D01*
X67312Y-27252D01*
X67312Y-26987D01*
X67312Y-26987D01*
X67312Y-26987D01*
X67287Y-26862D01*
X67216Y-26757D01*
X67216Y-26757D01*
X67216Y-26757D01*
X67179Y-26720D01*
X67179Y-26720D01*
X66775Y-26315D01*
X66775Y-25670D01*
X66874Y-25650D01*
X66874Y-25650D01*
X66979Y-25579D01*
X67216Y-25342D01*
X67216Y-25342D01*
X67216Y-25342D01*
X67259Y-25279D01*
X67287Y-25237D01*
X67287Y-25237D01*
X67305Y-25147D01*
X67352Y-25147D01*
X67352Y-25090D01*
X67408Y-25147D01*
X67440Y-25147D01*
X67459Y-25139D01*
X67478Y-25147D01*
X67578Y-25147D01*
X67755Y-25147D01*
X67774Y-25139D01*
X67793Y-25147D01*
X67825Y-25147D01*
X67887Y-25085D01*
X67887Y-25068D01*
X67917Y-25039D01*
X67922Y-25028D01*
X67922Y-25047D01*
X67946Y-25171D01*
X68017Y-25276D01*
X68017Y-25277D01*
X67978Y-25277D01*
X67941Y-25239D01*
X67784Y-25175D01*
X67615Y-25174D01*
X67459Y-25239D01*
X67339Y-25358D01*
X67275Y-25515D01*
X67274Y-25684D01*
X67339Y-25840D01*
X67458Y-25960D01*
X67525Y-25987D01*
X67524Y-26134D01*
X67589Y-26290D01*
X67708Y-26410D01*
X67865Y-26474D01*
X67924Y-26474D01*
X67924Y-26534D01*
X67989Y-26690D01*
X68108Y-26810D01*
X68265Y-26874D01*
X68434Y-26875D01*
X68590Y-26810D01*
X68708Y-26692D01*
X68714Y-26704D01*
X68706Y-26723D01*
X68706Y-26823D01*
X68706Y-27000D01*
X68714Y-27019D01*
X68714Y-27019D01*
G37*
G54D39*
X68714Y-27019D02*
X68706Y-27039D01*
X68706Y-27139D01*
X68706Y-27316D01*
X68714Y-27334D01*
X68706Y-27353D01*
X68706Y-27453D01*
X68706Y-27629D01*
X68698Y-27626D01*
X68598Y-27626D01*
X68421Y-27626D01*
X68405Y-27633D01*
X68388Y-27626D01*
X68288Y-27626D01*
X68111Y-27626D01*
X68090Y-27635D01*
X68068Y-27626D01*
X67968Y-27626D01*
X67791Y-27626D01*
X67775Y-27633D01*
X67758Y-27626D01*
X67726Y-27626D01*
X67664Y-27689D01*
X67664Y-27700D01*
X67629Y-27734D01*
X67625Y-27745D01*
X67625Y-27700D01*
X67600Y-27575D01*
X67600Y-27575D01*
X67529Y-27470D01*
X67312Y-27252D01*
X67312Y-26987D01*
X67312Y-26987D01*
X67312Y-26987D01*
X67287Y-26862D01*
X67216Y-26757D01*
X67216Y-26757D01*
X67216Y-26757D01*
X67179Y-26720D01*
X67179Y-26720D01*
X66775Y-26315D01*
X66775Y-25670D01*
X66874Y-25650D01*
X66874Y-25650D01*
X66979Y-25579D01*
X67216Y-25342D01*
X67216Y-25342D01*
X67216Y-25342D01*
X67259Y-25279D01*
X67287Y-25237D01*
X67287Y-25237D01*
X67305Y-25147D01*
X67352Y-25147D01*
X67352Y-25090D01*
X67408Y-25147D01*
X67440Y-25147D01*
X67459Y-25139D01*
X67478Y-25147D01*
X67578Y-25147D01*
X67755Y-25147D01*
X67774Y-25139D01*
X67793Y-25147D01*
X67825Y-25147D01*
X67887Y-25085D01*
X67887Y-25068D01*
X67917Y-25039D01*
X67922Y-25028D01*
X67922Y-25047D01*
X67946Y-25171D01*
X68017Y-25276D01*
X68017Y-25277D01*
X67978Y-25277D01*
X67941Y-25239D01*
X67784Y-25175D01*
X67615Y-25174D01*
X67459Y-25239D01*
X67339Y-25358D01*
X67275Y-25515D01*
X67274Y-25684D01*
X67339Y-25840D01*
X67458Y-25960D01*
X67525Y-25987D01*
X67524Y-26134D01*
X67589Y-26290D01*
X67708Y-26410D01*
X67865Y-26474D01*
X67924Y-26474D01*
X67924Y-26534D01*
X67989Y-26690D01*
X68108Y-26810D01*
X68265Y-26874D01*
X68434Y-26875D01*
X68590Y-26810D01*
X68708Y-26692D01*
X68714Y-26704D01*
X68706Y-26723D01*
X68706Y-26823D01*
X68706Y-27000D01*
X68714Y-27019D01*
G54D10*
G36*
X69332Y-24300D02*
X69325Y-24300D01*
X69325Y-24307D01*
X69225Y-24307D01*
X69225Y-24300D01*
X69217Y-24300D01*
X69217Y-24200D01*
X69225Y-24200D01*
X69225Y-24192D01*
X69325Y-24192D01*
X69325Y-24200D01*
X69332Y-24200D01*
X69332Y-24300D01*
X69332Y-24300D01*
G37*
G54D39*
X69332Y-24300D02*
X69325Y-24300D01*
X69325Y-24307D01*
X69225Y-24307D01*
X69225Y-24300D01*
X69217Y-24300D01*
X69217Y-24200D01*
X69225Y-24200D01*
X69225Y-24192D01*
X69325Y-24192D01*
X69325Y-24200D01*
X69332Y-24200D01*
X69332Y-24300D01*
G54D10*
G36*
X78480Y-29473D02*
X78419Y-29777D01*
X78262Y-30012D01*
X78027Y-30169D01*
X77723Y-30230D01*
X77407Y-30230D01*
X77496Y-30193D01*
X77693Y-29997D01*
X77799Y-29739D01*
X77800Y-29461D01*
X77693Y-29204D01*
X77497Y-29006D01*
X77239Y-28900D01*
X76961Y-28899D01*
X76704Y-29006D01*
X76506Y-29202D01*
X76500Y-29219D01*
X76493Y-29204D01*
X76297Y-29006D01*
X76039Y-28900D01*
X75761Y-28899D01*
X75504Y-29006D01*
X75306Y-29202D01*
X75200Y-29460D01*
X75199Y-29738D01*
X75306Y-29996D01*
X75502Y-30193D01*
X75592Y-30230D01*
X73800Y-30230D01*
X72025Y-30230D01*
X72025Y-29824D01*
X72025Y-29725D01*
X72025Y-29175D01*
X71986Y-29083D01*
X71916Y-29013D01*
X71824Y-28975D01*
X71725Y-28975D01*
X71175Y-28975D01*
X71083Y-29013D01*
X71013Y-29083D01*
X70975Y-29175D01*
X70975Y-29274D01*
X70975Y-29274D01*
X70945Y-29203D01*
X70797Y-29055D01*
X70604Y-28975D01*
X70396Y-28974D01*
X70203Y-29054D01*
X70055Y-29202D01*
X70002Y-29328D01*
X69960Y-29227D01*
X69867Y-29202D01*
X69797Y-29273D01*
X69797Y-29132D01*
X69772Y-29039D01*
X69575Y-28970D01*
X69367Y-28981D01*
X69227Y-29039D01*
X69202Y-29132D01*
X69500Y-29429D01*
X69797Y-29132D01*
X69797Y-29273D01*
X69570Y-29500D01*
X69867Y-29797D01*
X69960Y-29772D01*
X69999Y-29662D01*
X70054Y-29797D01*
X70202Y-29944D01*
X70395Y-30024D01*
X70603Y-30025D01*
X70797Y-29945D01*
X70944Y-29797D01*
X70975Y-29725D01*
X70975Y-29824D01*
X71013Y-29916D01*
X71083Y-29986D01*
X71175Y-30025D01*
X71274Y-30025D01*
X71824Y-30025D01*
X71916Y-29986D01*
X71986Y-29916D01*
X72025Y-29824D01*
X72025Y-30230D01*
X69797Y-30230D01*
X69797Y-29867D01*
X69500Y-29570D01*
X69429Y-29641D01*
X69429Y-29500D01*
X69132Y-29202D01*
X69039Y-29227D01*
X68970Y-29424D01*
X68981Y-29632D01*
X69039Y-29772D01*
X69132Y-29797D01*
X69429Y-29500D01*
X69429Y-29641D01*
X69202Y-29867D01*
X69227Y-29960D01*
X69424Y-30029D01*
X69632Y-30018D01*
X69772Y-29960D01*
X69797Y-29867D01*
X69797Y-30230D01*
X68279Y-30230D01*
X68384Y-30125D01*
X68434Y-30125D01*
X68590Y-30060D01*
X68710Y-29941D01*
X68774Y-29784D01*
X68775Y-29615D01*
X68710Y-29459D01*
X68619Y-29368D01*
X68674Y-29234D01*
X68675Y-29065D01*
X68612Y-28913D01*
X68698Y-28913D01*
X68790Y-28875D01*
X68860Y-28805D01*
X68898Y-28713D01*
X68898Y-28613D01*
X68898Y-27827D01*
X68906Y-27830D01*
X69006Y-27830D01*
X69700Y-27830D01*
X69700Y-28300D01*
X73800Y-28300D01*
X73800Y-25725D01*
X74600Y-25725D01*
X74724Y-25700D01*
X74724Y-25700D01*
X74829Y-25629D01*
X74879Y-25579D01*
X75229Y-25229D01*
X75300Y-25124D01*
X75300Y-25124D01*
X75325Y-25000D01*
X75325Y-25000D01*
X75325Y-24999D01*
X75325Y-24884D01*
X75359Y-24849D01*
X75502Y-24993D01*
X75760Y-25099D01*
X76038Y-25100D01*
X76296Y-24993D01*
X76493Y-24797D01*
X76499Y-24780D01*
X76506Y-24796D01*
X76702Y-24993D01*
X76960Y-25099D01*
X77238Y-25100D01*
X77496Y-24993D01*
X77693Y-24797D01*
X77799Y-24539D01*
X77800Y-24261D01*
X77693Y-24004D01*
X77497Y-23806D01*
X77407Y-23769D01*
X77723Y-23769D01*
X78027Y-23830D01*
X78262Y-23987D01*
X78419Y-24222D01*
X78480Y-24526D01*
X78480Y-29473D01*
X78480Y-29473D01*
G37*
G54D39*
X78480Y-29473D02*
X78419Y-29777D01*
X78262Y-30012D01*
X78027Y-30169D01*
X77723Y-30230D01*
X77407Y-30230D01*
X77496Y-30193D01*
X77693Y-29997D01*
X77799Y-29739D01*
X77800Y-29461D01*
X77693Y-29204D01*
X77497Y-29006D01*
X77239Y-28900D01*
X76961Y-28899D01*
X76704Y-29006D01*
X76506Y-29202D01*
X76500Y-29219D01*
X76493Y-29204D01*
X76297Y-29006D01*
X76039Y-28900D01*
X75761Y-28899D01*
X75504Y-29006D01*
X75306Y-29202D01*
X75200Y-29460D01*
X75199Y-29738D01*
X75306Y-29996D01*
X75502Y-30193D01*
X75592Y-30230D01*
X73800Y-30230D01*
X72025Y-30230D01*
X72025Y-29824D01*
X72025Y-29725D01*
X72025Y-29175D01*
X71986Y-29083D01*
X71916Y-29013D01*
X71824Y-28975D01*
X71725Y-28975D01*
X71175Y-28975D01*
X71083Y-29013D01*
X71013Y-29083D01*
X70975Y-29175D01*
X70975Y-29274D01*
X70975Y-29274D01*
X70945Y-29203D01*
X70797Y-29055D01*
X70604Y-28975D01*
X70396Y-28974D01*
X70203Y-29054D01*
X70055Y-29202D01*
X70002Y-29328D01*
X69960Y-29227D01*
X69867Y-29202D01*
X69797Y-29273D01*
X69797Y-29132D01*
X69772Y-29039D01*
X69575Y-28970D01*
X69367Y-28981D01*
X69227Y-29039D01*
X69202Y-29132D01*
X69500Y-29429D01*
X69797Y-29132D01*
X69797Y-29273D01*
X69570Y-29500D01*
X69867Y-29797D01*
X69960Y-29772D01*
X69999Y-29662D01*
X70054Y-29797D01*
X70202Y-29944D01*
X70395Y-30024D01*
X70603Y-30025D01*
X70797Y-29945D01*
X70944Y-29797D01*
X70975Y-29725D01*
X70975Y-29824D01*
X71013Y-29916D01*
X71083Y-29986D01*
X71175Y-30025D01*
X71274Y-30025D01*
X71824Y-30025D01*
X71916Y-29986D01*
X71986Y-29916D01*
X72025Y-29824D01*
X72025Y-30230D01*
X69797Y-30230D01*
X69797Y-29867D01*
X69500Y-29570D01*
X69429Y-29641D01*
X69429Y-29500D01*
X69132Y-29202D01*
X69039Y-29227D01*
X68970Y-29424D01*
X68981Y-29632D01*
X69039Y-29772D01*
X69132Y-29797D01*
X69429Y-29500D01*
X69429Y-29641D01*
X69202Y-29867D01*
X69227Y-29960D01*
X69424Y-30029D01*
X69632Y-30018D01*
X69772Y-29960D01*
X69797Y-29867D01*
X69797Y-30230D01*
X68279Y-30230D01*
X68384Y-30125D01*
X68434Y-30125D01*
X68590Y-30060D01*
X68710Y-29941D01*
X68774Y-29784D01*
X68775Y-29615D01*
X68710Y-29459D01*
X68619Y-29368D01*
X68674Y-29234D01*
X68675Y-29065D01*
X68612Y-28913D01*
X68698Y-28913D01*
X68790Y-28875D01*
X68860Y-28805D01*
X68898Y-28713D01*
X68898Y-28613D01*
X68898Y-27827D01*
X68906Y-27830D01*
X69006Y-27830D01*
X69700Y-27830D01*
X69700Y-28300D01*
X73800Y-28300D01*
X73800Y-25725D01*
X74600Y-25725D01*
X74724Y-25700D01*
X74724Y-25700D01*
X74829Y-25629D01*
X74879Y-25579D01*
X75229Y-25229D01*
X75300Y-25124D01*
X75300Y-25124D01*
X75325Y-25000D01*
X75325Y-25000D01*
X75325Y-24999D01*
X75325Y-24884D01*
X75359Y-24849D01*
X75502Y-24993D01*
X75760Y-25099D01*
X76038Y-25100D01*
X76296Y-24993D01*
X76493Y-24797D01*
X76499Y-24780D01*
X76506Y-24796D01*
X76702Y-24993D01*
X76960Y-25099D01*
X77238Y-25100D01*
X77496Y-24993D01*
X77693Y-24797D01*
X77799Y-24539D01*
X77800Y-24261D01*
X77693Y-24004D01*
X77497Y-23806D01*
X77407Y-23769D01*
X77723Y-23769D01*
X78027Y-23830D01*
X78262Y-23987D01*
X78419Y-24222D01*
X78480Y-24526D01*
X78480Y-29473D01*
G54D10*
G36*
X64700Y-25950D02*
X63950Y-25950D01*
X63950Y-26450D01*
X63019Y-26450D01*
X63019Y-24526D01*
X63080Y-24222D01*
X63237Y-23987D01*
X63472Y-23830D01*
X63776Y-23769D01*
X63950Y-23769D01*
X63950Y-25300D01*
X64700Y-25300D01*
X64700Y-25950D01*
X64700Y-25950D01*
G37*
G54D39*
X64700Y-25950D02*
X63950Y-25950D01*
X63950Y-26450D01*
X63019Y-26450D01*
X63019Y-24526D01*
X63080Y-24222D01*
X63237Y-23987D01*
X63472Y-23830D01*
X63776Y-23769D01*
X63950Y-23769D01*
X63950Y-25300D01*
X64700Y-25300D01*
X64700Y-25950D01*
G54D10*
G36*
X72093Y-27950D02*
X71406Y-27950D01*
X71409Y-27943D01*
X71409Y-27843D01*
X71409Y-27550D01*
X71927Y-27032D01*
X71970Y-27097D01*
X72090Y-27217D01*
X72090Y-27943D01*
X72093Y-27950D01*
X72093Y-27950D01*
G37*
G54D39*
X72093Y-27950D02*
X71406Y-27950D01*
X71409Y-27943D01*
X71409Y-27843D01*
X71409Y-27550D01*
X71927Y-27032D01*
X71970Y-27097D01*
X72090Y-27217D01*
X72090Y-27943D01*
X72093Y-27950D01*
G54D10*
G36*
X72389Y-25575D02*
X72375Y-25650D01*
X72375Y-25727D01*
X72367Y-25724D01*
X72268Y-25724D01*
X72032Y-25724D01*
X71950Y-25758D01*
X71867Y-25724D01*
X71768Y-25724D01*
X71532Y-25724D01*
X71440Y-25762D01*
X71370Y-25832D01*
X71332Y-25924D01*
X71332Y-26024D01*
X71332Y-26575D01*
X71370Y-26667D01*
X71371Y-26668D01*
X71300Y-26740D01*
X71300Y-25675D01*
X71450Y-25675D01*
X71574Y-25650D01*
X71574Y-25650D01*
X71679Y-25579D01*
X71684Y-25575D01*
X72389Y-25575D01*
X72389Y-25575D01*
G37*
G54D39*
X72389Y-25575D02*
X72375Y-25650D01*
X72375Y-25727D01*
X72367Y-25724D01*
X72268Y-25724D01*
X72032Y-25724D01*
X71950Y-25758D01*
X71867Y-25724D01*
X71768Y-25724D01*
X71532Y-25724D01*
X71440Y-25762D01*
X71370Y-25832D01*
X71332Y-25924D01*
X71332Y-26024D01*
X71332Y-26575D01*
X71370Y-26667D01*
X71371Y-26668D01*
X71300Y-26740D01*
X71300Y-25675D01*
X71450Y-25675D01*
X71574Y-25650D01*
X71574Y-25650D01*
X71679Y-25579D01*
X71684Y-25575D01*
X72389Y-25575D01*
G54D10*
G36*
X73450Y-26887D02*
X73374Y-26856D01*
X73275Y-26856D01*
X72648Y-26856D01*
X72567Y-26775D01*
X72631Y-26775D01*
X72867Y-26775D01*
X72959Y-26737D01*
X73029Y-26667D01*
X73068Y-26575D01*
X73068Y-26475D01*
X73068Y-25924D01*
X73029Y-25832D01*
X73025Y-25827D01*
X73025Y-25784D01*
X73084Y-25725D01*
X73450Y-25725D01*
X73450Y-26887D01*
X73450Y-26887D01*
G37*
G54D39*
X73450Y-26887D02*
X73374Y-26856D01*
X73275Y-26856D01*
X72648Y-26856D01*
X72567Y-26775D01*
X72631Y-26775D01*
X72867Y-26775D01*
X72959Y-26737D01*
X73029Y-26667D01*
X73068Y-26575D01*
X73068Y-26475D01*
X73068Y-25924D01*
X73029Y-25832D01*
X73025Y-25827D01*
X73025Y-25784D01*
X73084Y-25725D01*
X73450Y-25725D01*
X73450Y-26887D01*
G54D10*
G36*
X66980Y-37605D02*
X66851Y-37733D01*
X66780Y-37906D01*
X66779Y-38093D01*
X66851Y-38265D01*
X66870Y-38285D01*
X66629Y-38285D01*
X66648Y-38266D01*
X66719Y-38093D01*
X66720Y-37906D01*
X66648Y-37734D01*
X66516Y-37601D01*
X66343Y-37530D01*
X66326Y-37530D01*
X66326Y-37093D01*
X66326Y-36410D01*
X66325Y-36305D01*
X66285Y-36208D01*
X66210Y-36133D01*
X66113Y-36093D01*
X65670Y-36093D01*
X65604Y-36159D01*
X65604Y-36717D01*
X66259Y-36717D01*
X66326Y-36650D01*
X66326Y-36410D01*
X66326Y-37093D01*
X66326Y-36853D01*
X66259Y-36787D01*
X65604Y-36787D01*
X65604Y-37344D01*
X65670Y-37410D01*
X66113Y-37410D01*
X66210Y-37370D01*
X66285Y-37295D01*
X66325Y-37198D01*
X66326Y-37093D01*
X66326Y-37530D01*
X66156Y-37529D01*
X65984Y-37601D01*
X65851Y-37733D01*
X65780Y-37906D01*
X65779Y-38093D01*
X65851Y-38265D01*
X65870Y-38285D01*
X65629Y-38285D01*
X65648Y-38266D01*
X65719Y-38093D01*
X65720Y-37906D01*
X65648Y-37734D01*
X65534Y-37619D01*
X65534Y-37344D01*
X65534Y-36787D01*
X65534Y-36717D01*
X65534Y-36159D01*
X65467Y-36093D01*
X65024Y-36093D01*
X64927Y-36133D01*
X64852Y-36208D01*
X64812Y-36305D01*
X64811Y-36410D01*
X64812Y-36650D01*
X64878Y-36717D01*
X65534Y-36717D01*
X65534Y-36787D01*
X64878Y-36787D01*
X64812Y-36853D01*
X64811Y-37093D01*
X64812Y-37198D01*
X64852Y-37295D01*
X64927Y-37370D01*
X65024Y-37410D01*
X65467Y-37410D01*
X65534Y-37344D01*
X65534Y-37619D01*
X65516Y-37601D01*
X65343Y-37530D01*
X65156Y-37529D01*
X64984Y-37601D01*
X64851Y-37733D01*
X64780Y-37906D01*
X64779Y-38093D01*
X64851Y-38265D01*
X64870Y-38285D01*
X64629Y-38285D01*
X64648Y-38266D01*
X64719Y-38093D01*
X64720Y-37906D01*
X64648Y-37734D01*
X64516Y-37601D01*
X64343Y-37530D01*
X64161Y-37529D01*
X64161Y-37093D01*
X64161Y-36410D01*
X64160Y-36305D01*
X64120Y-36208D01*
X64045Y-36133D01*
X63948Y-36093D01*
X63505Y-36093D01*
X63439Y-36159D01*
X63439Y-36717D01*
X64094Y-36717D01*
X64161Y-36650D01*
X64161Y-36410D01*
X64161Y-37093D01*
X64161Y-36853D01*
X64094Y-36787D01*
X63439Y-36787D01*
X63439Y-37344D01*
X63505Y-37410D01*
X63948Y-37410D01*
X64045Y-37370D01*
X64120Y-37295D01*
X64160Y-37198D01*
X64161Y-37093D01*
X64161Y-37529D01*
X64156Y-37529D01*
X63984Y-37601D01*
X63851Y-37733D01*
X63780Y-37906D01*
X63779Y-38093D01*
X63851Y-38265D01*
X63870Y-38285D01*
X63629Y-38285D01*
X63648Y-38266D01*
X63719Y-38093D01*
X63720Y-37906D01*
X63648Y-37734D01*
X63516Y-37601D01*
X63343Y-37530D01*
X63156Y-37529D01*
X62984Y-37601D01*
X62964Y-37620D01*
X62964Y-37410D01*
X63302Y-37410D01*
X63369Y-37344D01*
X63369Y-36787D01*
X63361Y-36787D01*
X63361Y-36717D01*
X63369Y-36717D01*
X63369Y-36159D01*
X63302Y-36093D01*
X62964Y-36093D01*
X62964Y-33906D01*
X63302Y-33906D01*
X63369Y-33840D01*
X63369Y-33283D01*
X63361Y-33283D01*
X63361Y-33213D01*
X63369Y-33213D01*
X63369Y-32655D01*
X63302Y-32589D01*
X62964Y-32589D01*
X62964Y-32469D01*
X63013Y-32470D01*
X63563Y-32470D01*
X63635Y-32440D01*
X63690Y-32385D01*
X63719Y-32313D01*
X63720Y-32236D01*
X63720Y-31714D01*
X63870Y-31714D01*
X63851Y-31733D01*
X63780Y-31906D01*
X63779Y-32093D01*
X63851Y-32265D01*
X63983Y-32398D01*
X64156Y-32469D01*
X64343Y-32470D01*
X64515Y-32398D01*
X64648Y-32266D01*
X64712Y-32111D01*
X64712Y-32120D01*
X64784Y-32294D01*
X64883Y-32316D01*
X65200Y-32000D01*
X65194Y-31994D01*
X65244Y-31944D01*
X65250Y-31950D01*
X65255Y-31944D01*
X65305Y-31994D01*
X65299Y-32000D01*
X65616Y-32316D01*
X65715Y-32294D01*
X65786Y-32109D01*
X65851Y-32265D01*
X65980Y-32394D01*
X65980Y-32589D01*
X65670Y-32589D01*
X65604Y-32655D01*
X65604Y-33213D01*
X65611Y-33213D01*
X65611Y-33283D01*
X65604Y-33283D01*
X65604Y-33840D01*
X65670Y-33906D01*
X65980Y-33906D01*
X65980Y-34076D01*
X65566Y-34076D01*
X65566Y-32366D01*
X65250Y-32049D01*
X64933Y-32366D01*
X64955Y-32465D01*
X65155Y-32542D01*
X65370Y-32537D01*
X65544Y-32465D01*
X65566Y-32366D01*
X65566Y-34076D01*
X65534Y-34076D01*
X65534Y-33840D01*
X65534Y-33283D01*
X65534Y-33213D01*
X65534Y-32655D01*
X65467Y-32589D01*
X65024Y-32589D01*
X64927Y-32629D01*
X64852Y-32704D01*
X64812Y-32801D01*
X64811Y-32906D01*
X64812Y-33146D01*
X64878Y-33213D01*
X65534Y-33213D01*
X65534Y-33283D01*
X64878Y-33283D01*
X64812Y-33349D01*
X64811Y-33589D01*
X64812Y-33694D01*
X64852Y-33791D01*
X64927Y-33866D01*
X65024Y-33906D01*
X65467Y-33906D01*
X65534Y-33840D01*
X65534Y-34076D01*
X65116Y-34076D01*
X65059Y-34100D01*
X65030Y-34100D01*
X64957Y-34114D01*
X64957Y-34060D01*
X64900Y-33923D01*
X64795Y-33818D01*
X64659Y-33762D01*
X64511Y-33761D01*
X64374Y-33818D01*
X64269Y-33923D01*
X64213Y-34059D01*
X64212Y-34207D01*
X64269Y-34344D01*
X64374Y-34449D01*
X64510Y-34505D01*
X64512Y-34505D01*
X64438Y-34580D01*
X64253Y-34580D01*
X64209Y-34536D01*
X64161Y-34516D01*
X64161Y-33589D01*
X64161Y-32906D01*
X64160Y-32801D01*
X64120Y-32704D01*
X64045Y-32629D01*
X63948Y-32589D01*
X63505Y-32589D01*
X63439Y-32655D01*
X63439Y-33213D01*
X64094Y-33213D01*
X64161Y-33146D01*
X64161Y-32906D01*
X64161Y-33589D01*
X64161Y-33349D01*
X64094Y-33283D01*
X63439Y-33283D01*
X63439Y-33840D01*
X63505Y-33906D01*
X63948Y-33906D01*
X64045Y-33866D01*
X64120Y-33791D01*
X64160Y-33694D01*
X64161Y-33589D01*
X64161Y-34516D01*
X64073Y-34480D01*
X63926Y-34479D01*
X63790Y-34536D01*
X63686Y-34640D01*
X63630Y-34776D01*
X63629Y-34923D01*
X63686Y-35059D01*
X63790Y-35163D01*
X63926Y-35219D01*
X64073Y-35220D01*
X64209Y-35163D01*
X64253Y-35120D01*
X64550Y-35120D01*
X64653Y-35099D01*
X64653Y-35099D01*
X64740Y-35040D01*
X64959Y-34821D01*
X64959Y-34822D01*
X64968Y-34842D01*
X64960Y-34862D01*
X64959Y-34940D01*
X64959Y-35137D01*
X64968Y-35157D01*
X64960Y-35177D01*
X64959Y-35255D01*
X64959Y-35328D01*
X64940Y-35309D01*
X64853Y-35250D01*
X64750Y-35230D01*
X63753Y-35230D01*
X63709Y-35186D01*
X63573Y-35130D01*
X63426Y-35129D01*
X63290Y-35186D01*
X63186Y-35290D01*
X63130Y-35426D01*
X63129Y-35573D01*
X63186Y-35709D01*
X63290Y-35813D01*
X63426Y-35869D01*
X63573Y-35870D01*
X63709Y-35813D01*
X63753Y-35770D01*
X64222Y-35770D01*
X64213Y-35791D01*
X64212Y-35939D01*
X64269Y-36076D01*
X64374Y-36181D01*
X64510Y-36237D01*
X64658Y-36238D01*
X64795Y-36181D01*
X64900Y-36076D01*
X64956Y-35940D01*
X64956Y-35900D01*
X65059Y-35900D01*
X65116Y-35923D01*
X65193Y-35923D01*
X66099Y-35923D01*
X66156Y-35900D01*
X66318Y-35900D01*
X66330Y-35911D01*
X66330Y-36150D01*
X66350Y-36253D01*
X66409Y-36340D01*
X66879Y-36811D01*
X66879Y-36813D01*
X66879Y-37263D01*
X66909Y-37335D01*
X66964Y-37390D01*
X66980Y-37396D01*
X66980Y-37605D01*
X66980Y-37605D01*
G37*
G54D41*
X66980Y-37605D02*
X66851Y-37733D01*
X66780Y-37906D01*
X66779Y-38093D01*
X66851Y-38265D01*
X66870Y-38285D01*
X66629Y-38285D01*
X66648Y-38266D01*
X66719Y-38093D01*
X66720Y-37906D01*
X66648Y-37734D01*
X66516Y-37601D01*
X66343Y-37530D01*
X66326Y-37530D01*
X66326Y-37093D01*
X66326Y-36410D01*
X66325Y-36305D01*
X66285Y-36208D01*
X66210Y-36133D01*
X66113Y-36093D01*
X65670Y-36093D01*
X65604Y-36159D01*
X65604Y-36717D01*
X66259Y-36717D01*
X66326Y-36650D01*
X66326Y-36410D01*
X66326Y-37093D01*
X66326Y-36853D01*
X66259Y-36787D01*
X65604Y-36787D01*
X65604Y-37344D01*
X65670Y-37410D01*
X66113Y-37410D01*
X66210Y-37370D01*
X66285Y-37295D01*
X66325Y-37198D01*
X66326Y-37093D01*
X66326Y-37530D01*
X66156Y-37529D01*
X65984Y-37601D01*
X65851Y-37733D01*
X65780Y-37906D01*
X65779Y-38093D01*
X65851Y-38265D01*
X65870Y-38285D01*
X65629Y-38285D01*
X65648Y-38266D01*
X65719Y-38093D01*
X65720Y-37906D01*
X65648Y-37734D01*
X65534Y-37619D01*
X65534Y-37344D01*
X65534Y-36787D01*
X65534Y-36717D01*
X65534Y-36159D01*
X65467Y-36093D01*
X65024Y-36093D01*
X64927Y-36133D01*
X64852Y-36208D01*
X64812Y-36305D01*
X64811Y-36410D01*
X64812Y-36650D01*
X64878Y-36717D01*
X65534Y-36717D01*
X65534Y-36787D01*
X64878Y-36787D01*
X64812Y-36853D01*
X64811Y-37093D01*
X64812Y-37198D01*
X64852Y-37295D01*
X64927Y-37370D01*
X65024Y-37410D01*
X65467Y-37410D01*
X65534Y-37344D01*
X65534Y-37619D01*
X65516Y-37601D01*
X65343Y-37530D01*
X65156Y-37529D01*
X64984Y-37601D01*
X64851Y-37733D01*
X64780Y-37906D01*
X64779Y-38093D01*
X64851Y-38265D01*
X64870Y-38285D01*
X64629Y-38285D01*
X64648Y-38266D01*
X64719Y-38093D01*
X64720Y-37906D01*
X64648Y-37734D01*
X64516Y-37601D01*
X64343Y-37530D01*
X64161Y-37529D01*
X64161Y-37093D01*
X64161Y-36410D01*
X64160Y-36305D01*
X64120Y-36208D01*
X64045Y-36133D01*
X63948Y-36093D01*
X63505Y-36093D01*
X63439Y-36159D01*
X63439Y-36717D01*
X64094Y-36717D01*
X64161Y-36650D01*
X64161Y-36410D01*
X64161Y-37093D01*
X64161Y-36853D01*
X64094Y-36787D01*
X63439Y-36787D01*
X63439Y-37344D01*
X63505Y-37410D01*
X63948Y-37410D01*
X64045Y-37370D01*
X64120Y-37295D01*
X64160Y-37198D01*
X64161Y-37093D01*
X64161Y-37529D01*
X64156Y-37529D01*
X63984Y-37601D01*
X63851Y-37733D01*
X63780Y-37906D01*
X63779Y-38093D01*
X63851Y-38265D01*
X63870Y-38285D01*
X63629Y-38285D01*
X63648Y-38266D01*
X63719Y-38093D01*
X63720Y-37906D01*
X63648Y-37734D01*
X63516Y-37601D01*
X63343Y-37530D01*
X63156Y-37529D01*
X62984Y-37601D01*
X62964Y-37620D01*
X62964Y-37410D01*
X63302Y-37410D01*
X63369Y-37344D01*
X63369Y-36787D01*
X63361Y-36787D01*
X63361Y-36717D01*
X63369Y-36717D01*
X63369Y-36159D01*
X63302Y-36093D01*
X62964Y-36093D01*
X62964Y-33906D01*
X63302Y-33906D01*
X63369Y-33840D01*
X63369Y-33283D01*
X63361Y-33283D01*
X63361Y-33213D01*
X63369Y-33213D01*
X63369Y-32655D01*
X63302Y-32589D01*
X62964Y-32589D01*
X62964Y-32469D01*
X63013Y-32470D01*
X63563Y-32470D01*
X63635Y-32440D01*
X63690Y-32385D01*
X63719Y-32313D01*
X63720Y-32236D01*
X63720Y-31714D01*
X63870Y-31714D01*
X63851Y-31733D01*
X63780Y-31906D01*
X63779Y-32093D01*
X63851Y-32265D01*
X63983Y-32398D01*
X64156Y-32469D01*
X64343Y-32470D01*
X64515Y-32398D01*
X64648Y-32266D01*
X64712Y-32111D01*
X64712Y-32120D01*
X64784Y-32294D01*
X64883Y-32316D01*
X65200Y-32000D01*
X65194Y-31994D01*
X65244Y-31944D01*
X65250Y-31950D01*
X65255Y-31944D01*
X65305Y-31994D01*
X65299Y-32000D01*
X65616Y-32316D01*
X65715Y-32294D01*
X65786Y-32109D01*
X65851Y-32265D01*
X65980Y-32394D01*
X65980Y-32589D01*
X65670Y-32589D01*
X65604Y-32655D01*
X65604Y-33213D01*
X65611Y-33213D01*
X65611Y-33283D01*
X65604Y-33283D01*
X65604Y-33840D01*
X65670Y-33906D01*
X65980Y-33906D01*
X65980Y-34076D01*
X65566Y-34076D01*
X65566Y-32366D01*
X65250Y-32049D01*
X64933Y-32366D01*
X64955Y-32465D01*
X65155Y-32542D01*
X65370Y-32537D01*
X65544Y-32465D01*
X65566Y-32366D01*
X65566Y-34076D01*
X65534Y-34076D01*
X65534Y-33840D01*
X65534Y-33283D01*
X65534Y-33213D01*
X65534Y-32655D01*
X65467Y-32589D01*
X65024Y-32589D01*
X64927Y-32629D01*
X64852Y-32704D01*
X64812Y-32801D01*
X64811Y-32906D01*
X64812Y-33146D01*
X64878Y-33213D01*
X65534Y-33213D01*
X65534Y-33283D01*
X64878Y-33283D01*
X64812Y-33349D01*
X64811Y-33589D01*
X64812Y-33694D01*
X64852Y-33791D01*
X64927Y-33866D01*
X65024Y-33906D01*
X65467Y-33906D01*
X65534Y-33840D01*
X65534Y-34076D01*
X65116Y-34076D01*
X65059Y-34100D01*
X65030Y-34100D01*
X64957Y-34114D01*
X64957Y-34060D01*
X64900Y-33923D01*
X64795Y-33818D01*
X64659Y-33762D01*
X64511Y-33761D01*
X64374Y-33818D01*
X64269Y-33923D01*
X64213Y-34059D01*
X64212Y-34207D01*
X64269Y-34344D01*
X64374Y-34449D01*
X64510Y-34505D01*
X64512Y-34505D01*
X64438Y-34580D01*
X64253Y-34580D01*
X64209Y-34536D01*
X64161Y-34516D01*
X64161Y-33589D01*
X64161Y-32906D01*
X64160Y-32801D01*
X64120Y-32704D01*
X64045Y-32629D01*
X63948Y-32589D01*
X63505Y-32589D01*
X63439Y-32655D01*
X63439Y-33213D01*
X64094Y-33213D01*
X64161Y-33146D01*
X64161Y-32906D01*
X64161Y-33589D01*
X64161Y-33349D01*
X64094Y-33283D01*
X63439Y-33283D01*
X63439Y-33840D01*
X63505Y-33906D01*
X63948Y-33906D01*
X64045Y-33866D01*
X64120Y-33791D01*
X64160Y-33694D01*
X64161Y-33589D01*
X64161Y-34516D01*
X64073Y-34480D01*
X63926Y-34479D01*
X63790Y-34536D01*
X63686Y-34640D01*
X63630Y-34776D01*
X63629Y-34923D01*
X63686Y-35059D01*
X63790Y-35163D01*
X63926Y-35219D01*
X64073Y-35220D01*
X64209Y-35163D01*
X64253Y-35120D01*
X64550Y-35120D01*
X64653Y-35099D01*
X64653Y-35099D01*
X64740Y-35040D01*
X64959Y-34821D01*
X64959Y-34822D01*
X64968Y-34842D01*
X64960Y-34862D01*
X64959Y-34940D01*
X64959Y-35137D01*
X64968Y-35157D01*
X64960Y-35177D01*
X64959Y-35255D01*
X64959Y-35328D01*
X64940Y-35309D01*
X64853Y-35250D01*
X64750Y-35230D01*
X63753Y-35230D01*
X63709Y-35186D01*
X63573Y-35130D01*
X63426Y-35129D01*
X63290Y-35186D01*
X63186Y-35290D01*
X63130Y-35426D01*
X63129Y-35573D01*
X63186Y-35709D01*
X63290Y-35813D01*
X63426Y-35869D01*
X63573Y-35870D01*
X63709Y-35813D01*
X63753Y-35770D01*
X64222Y-35770D01*
X64213Y-35791D01*
X64212Y-35939D01*
X64269Y-36076D01*
X64374Y-36181D01*
X64510Y-36237D01*
X64658Y-36238D01*
X64795Y-36181D01*
X64900Y-36076D01*
X64956Y-35940D01*
X64956Y-35900D01*
X65059Y-35900D01*
X65116Y-35923D01*
X65193Y-35923D01*
X66099Y-35923D01*
X66156Y-35900D01*
X66318Y-35900D01*
X66330Y-35911D01*
X66330Y-36150D01*
X66350Y-36253D01*
X66409Y-36340D01*
X66879Y-36811D01*
X66879Y-36813D01*
X66879Y-37263D01*
X66909Y-37335D01*
X66964Y-37390D01*
X66980Y-37396D01*
X66980Y-37605D01*
G54D10*
G36*
X70124Y-35870D02*
X70080Y-35976D01*
X70080Y-36038D01*
X69988Y-36129D01*
X69736Y-36129D01*
X69664Y-36159D01*
X69609Y-36214D01*
X69580Y-36286D01*
X69579Y-36363D01*
X69579Y-36613D01*
X69609Y-36685D01*
X69664Y-36740D01*
X69687Y-36749D01*
X69664Y-36759D01*
X69609Y-36814D01*
X69580Y-36886D01*
X69579Y-36963D01*
X69579Y-37130D01*
X69500Y-37130D01*
X69420Y-37130D01*
X69420Y-36886D01*
X69390Y-36814D01*
X69375Y-36799D01*
X69375Y-36799D01*
X69449Y-36724D01*
X69490Y-36627D01*
X69490Y-36272D01*
X69449Y-36175D01*
X69375Y-36100D01*
X69277Y-36060D01*
X69172Y-36059D01*
X69101Y-36060D01*
X69035Y-36126D01*
X69035Y-36415D01*
X69423Y-36415D01*
X69490Y-36348D01*
X69490Y-36272D01*
X69490Y-36627D01*
X69490Y-36551D01*
X69423Y-36485D01*
X69035Y-36485D01*
X69035Y-36492D01*
X68965Y-36492D01*
X68965Y-36485D01*
X68957Y-36485D01*
X68957Y-36415D01*
X68965Y-36415D01*
X68965Y-36126D01*
X68898Y-36060D01*
X68827Y-36059D01*
X68722Y-36060D01*
X68720Y-36060D01*
X68720Y-36050D01*
X68719Y-36049D01*
X68720Y-36049D01*
X68715Y-36029D01*
X68699Y-35946D01*
X68699Y-35946D01*
X68684Y-35924D01*
X68722Y-35939D01*
X68827Y-35940D01*
X68898Y-35940D01*
X68965Y-35873D01*
X68965Y-35585D01*
X68576Y-35585D01*
X68510Y-35651D01*
X68509Y-35727D01*
X68510Y-35728D01*
X68240Y-35459D01*
X68153Y-35400D01*
X68050Y-35380D01*
X67874Y-35380D01*
X67869Y-35369D01*
X67730Y-35230D01*
X67630Y-35189D01*
X67759Y-35135D01*
X67784Y-35034D01*
X67450Y-34699D01*
X67444Y-34705D01*
X67394Y-34655D01*
X67400Y-34650D01*
X67394Y-34644D01*
X67444Y-34594D01*
X67450Y-34600D01*
X67455Y-34594D01*
X67505Y-34644D01*
X67499Y-34650D01*
X67834Y-34984D01*
X67935Y-34959D01*
X67975Y-34857D01*
X68259Y-35140D01*
X68346Y-35199D01*
X68346Y-35199D01*
X68450Y-35220D01*
X68605Y-35220D01*
X68550Y-35275D01*
X68509Y-35372D01*
X68510Y-35448D01*
X68576Y-35515D01*
X68965Y-35515D01*
X68965Y-35507D01*
X69035Y-35507D01*
X69035Y-35515D01*
X69042Y-35515D01*
X69042Y-35585D01*
X69035Y-35585D01*
X69035Y-35873D01*
X69101Y-35940D01*
X69172Y-35940D01*
X69277Y-35939D01*
X69375Y-35899D01*
X69449Y-35824D01*
X69490Y-35727D01*
X69490Y-35651D01*
X69458Y-35619D01*
X69488Y-35619D01*
X69579Y-35711D01*
X69579Y-35713D01*
X69609Y-35785D01*
X69664Y-35840D01*
X69736Y-35869D01*
X69813Y-35870D01*
X70124Y-35870D01*
X70124Y-35870D01*
G37*
G54D41*
X70124Y-35870D02*
X70080Y-35976D01*
X70080Y-36038D01*
X69988Y-36129D01*
X69736Y-36129D01*
X69664Y-36159D01*
X69609Y-36214D01*
X69580Y-36286D01*
X69579Y-36363D01*
X69579Y-36613D01*
X69609Y-36685D01*
X69664Y-36740D01*
X69687Y-36749D01*
X69664Y-36759D01*
X69609Y-36814D01*
X69580Y-36886D01*
X69579Y-36963D01*
X69579Y-37130D01*
X69500Y-37130D01*
X69420Y-37130D01*
X69420Y-36886D01*
X69390Y-36814D01*
X69375Y-36799D01*
X69375Y-36799D01*
X69449Y-36724D01*
X69490Y-36627D01*
X69490Y-36272D01*
X69449Y-36175D01*
X69375Y-36100D01*
X69277Y-36060D01*
X69172Y-36059D01*
X69101Y-36060D01*
X69035Y-36126D01*
X69035Y-36415D01*
X69423Y-36415D01*
X69490Y-36348D01*
X69490Y-36272D01*
X69490Y-36627D01*
X69490Y-36551D01*
X69423Y-36485D01*
X69035Y-36485D01*
X69035Y-36492D01*
X68965Y-36492D01*
X68965Y-36485D01*
X68957Y-36485D01*
X68957Y-36415D01*
X68965Y-36415D01*
X68965Y-36126D01*
X68898Y-36060D01*
X68827Y-36059D01*
X68722Y-36060D01*
X68720Y-36060D01*
X68720Y-36050D01*
X68719Y-36049D01*
X68720Y-36049D01*
X68715Y-36029D01*
X68699Y-35946D01*
X68699Y-35946D01*
X68684Y-35924D01*
X68722Y-35939D01*
X68827Y-35940D01*
X68898Y-35940D01*
X68965Y-35873D01*
X68965Y-35585D01*
X68576Y-35585D01*
X68510Y-35651D01*
X68509Y-35727D01*
X68510Y-35728D01*
X68240Y-35459D01*
X68153Y-35400D01*
X68050Y-35380D01*
X67874Y-35380D01*
X67869Y-35369D01*
X67730Y-35230D01*
X67630Y-35189D01*
X67759Y-35135D01*
X67784Y-35034D01*
X67450Y-34699D01*
X67444Y-34705D01*
X67394Y-34655D01*
X67400Y-34650D01*
X67394Y-34644D01*
X67444Y-34594D01*
X67450Y-34600D01*
X67455Y-34594D01*
X67505Y-34644D01*
X67499Y-34650D01*
X67834Y-34984D01*
X67935Y-34959D01*
X67975Y-34857D01*
X68259Y-35140D01*
X68346Y-35199D01*
X68346Y-35199D01*
X68450Y-35220D01*
X68605Y-35220D01*
X68550Y-35275D01*
X68509Y-35372D01*
X68510Y-35448D01*
X68576Y-35515D01*
X68965Y-35515D01*
X68965Y-35507D01*
X69035Y-35507D01*
X69035Y-35515D01*
X69042Y-35515D01*
X69042Y-35585D01*
X69035Y-35585D01*
X69035Y-35873D01*
X69101Y-35940D01*
X69172Y-35940D01*
X69277Y-35939D01*
X69375Y-35899D01*
X69449Y-35824D01*
X69490Y-35727D01*
X69490Y-35651D01*
X69458Y-35619D01*
X69488Y-35619D01*
X69579Y-35711D01*
X69579Y-35713D01*
X69609Y-35785D01*
X69664Y-35840D01*
X69736Y-35869D01*
X69813Y-35870D01*
X70124Y-35870D01*
G54D10*
G36*
X77730Y-36988D02*
X77538Y-37180D01*
X73490Y-37180D01*
X73490Y-37151D01*
X73423Y-37085D01*
X73035Y-37085D01*
X73035Y-37092D01*
X72965Y-37092D01*
X72965Y-37085D01*
X72576Y-37085D01*
X72510Y-37151D01*
X72509Y-37180D01*
X72490Y-37180D01*
X72490Y-37151D01*
X72423Y-37085D01*
X72035Y-37085D01*
X72035Y-37092D01*
X71965Y-37092D01*
X71965Y-37085D01*
X71576Y-37085D01*
X71510Y-37151D01*
X71509Y-37227D01*
X71548Y-37319D01*
X71490Y-37378D01*
X71490Y-37227D01*
X71490Y-37151D01*
X71423Y-37085D01*
X71035Y-37085D01*
X71035Y-37373D01*
X71101Y-37440D01*
X71172Y-37440D01*
X71277Y-37439D01*
X71375Y-37399D01*
X71449Y-37324D01*
X71490Y-37227D01*
X71490Y-37378D01*
X71338Y-37530D01*
X71156Y-37529D01*
X70984Y-37601D01*
X70965Y-37620D01*
X70965Y-37373D01*
X70965Y-37085D01*
X70576Y-37085D01*
X70510Y-37151D01*
X70509Y-37227D01*
X70550Y-37324D01*
X70624Y-37399D01*
X70722Y-37439D01*
X70827Y-37440D01*
X70898Y-37440D01*
X70965Y-37373D01*
X70965Y-37620D01*
X70851Y-37733D01*
X70780Y-37906D01*
X70779Y-38093D01*
X70851Y-38265D01*
X70870Y-38285D01*
X70629Y-38285D01*
X70648Y-38266D01*
X70719Y-38093D01*
X70720Y-37906D01*
X70648Y-37734D01*
X70516Y-37601D01*
X70343Y-37530D01*
X70156Y-37529D01*
X70063Y-37568D01*
X70190Y-37440D01*
X70238Y-37370D01*
X70263Y-37370D01*
X70335Y-37340D01*
X70390Y-37285D01*
X70419Y-37213D01*
X70420Y-37136D01*
X70420Y-36886D01*
X70390Y-36814D01*
X70335Y-36759D01*
X70312Y-36750D01*
X70335Y-36740D01*
X70390Y-36685D01*
X70419Y-36613D01*
X70420Y-36536D01*
X70420Y-36461D01*
X70461Y-36420D01*
X70523Y-36420D01*
X70579Y-36396D01*
X70579Y-36613D01*
X70609Y-36685D01*
X70624Y-36700D01*
X70624Y-36700D01*
X70550Y-36775D01*
X70509Y-36872D01*
X70510Y-36948D01*
X70576Y-37015D01*
X70965Y-37015D01*
X70965Y-37007D01*
X71035Y-37007D01*
X71035Y-37015D01*
X71423Y-37015D01*
X71490Y-36948D01*
X71490Y-36872D01*
X71449Y-36775D01*
X71375Y-36700D01*
X71390Y-36685D01*
X71419Y-36613D01*
X71420Y-36536D01*
X71420Y-36286D01*
X71390Y-36214D01*
X71335Y-36159D01*
X71270Y-36132D01*
X71270Y-35867D01*
X71335Y-35840D01*
X71355Y-35820D01*
X71644Y-35820D01*
X71664Y-35840D01*
X71736Y-35869D01*
X71813Y-35870D01*
X72198Y-35870D01*
X71938Y-36129D01*
X71736Y-36129D01*
X71664Y-36159D01*
X71609Y-36214D01*
X71580Y-36286D01*
X71579Y-36363D01*
X71579Y-36613D01*
X71609Y-36685D01*
X71624Y-36700D01*
X71624Y-36700D01*
X71550Y-36775D01*
X71509Y-36872D01*
X71510Y-36948D01*
X71576Y-37015D01*
X71965Y-37015D01*
X71965Y-37007D01*
X72035Y-37007D01*
X72035Y-37015D01*
X72423Y-37015D01*
X72490Y-36948D01*
X72490Y-36872D01*
X72449Y-36775D01*
X72375Y-36700D01*
X72390Y-36685D01*
X72419Y-36613D01*
X72420Y-36536D01*
X72420Y-36411D01*
X72604Y-36227D01*
X72580Y-36286D01*
X72579Y-36363D01*
X72579Y-36613D01*
X72609Y-36685D01*
X72624Y-36700D01*
X72624Y-36700D01*
X72550Y-36775D01*
X72509Y-36872D01*
X72510Y-36948D01*
X72576Y-37015D01*
X72965Y-37015D01*
X72965Y-37007D01*
X73035Y-37007D01*
X73035Y-37015D01*
X73423Y-37015D01*
X73490Y-36948D01*
X73490Y-36872D01*
X73449Y-36775D01*
X73379Y-36704D01*
X73379Y-36704D01*
X73403Y-36699D01*
X73403Y-36699D01*
X73490Y-36640D01*
X74110Y-36021D01*
X74153Y-36064D01*
X74225Y-36093D01*
X74302Y-36094D01*
X74774Y-36094D01*
X74846Y-36064D01*
X74901Y-36009D01*
X74902Y-36006D01*
X74959Y-36090D01*
X75379Y-36511D01*
X75379Y-36573D01*
X75436Y-36709D01*
X75540Y-36813D01*
X75676Y-36869D01*
X75823Y-36870D01*
X75959Y-36813D01*
X76063Y-36709D01*
X76119Y-36573D01*
X76120Y-36426D01*
X76063Y-36290D01*
X75959Y-36186D01*
X75823Y-36130D01*
X75761Y-36130D01*
X75420Y-35788D01*
X75420Y-35100D01*
X75419Y-35099D01*
X75420Y-35099D01*
X75415Y-35079D01*
X75399Y-34996D01*
X75399Y-34996D01*
X75340Y-34909D01*
X75340Y-34909D01*
X75139Y-34708D01*
X75200Y-34720D01*
X76346Y-34720D01*
X76390Y-34763D01*
X76526Y-34819D01*
X76673Y-34820D01*
X76809Y-34763D01*
X76913Y-34659D01*
X76969Y-34523D01*
X76970Y-34376D01*
X76913Y-34240D01*
X76809Y-34136D01*
X76673Y-34080D01*
X76526Y-34079D01*
X76390Y-34136D01*
X76346Y-34180D01*
X75311Y-34180D01*
X75190Y-34059D01*
X75103Y-34000D01*
X75000Y-33980D01*
X73845Y-33980D01*
X73854Y-33976D01*
X73909Y-33921D01*
X73939Y-33849D01*
X73939Y-33772D01*
X73939Y-33692D01*
X74061Y-33570D01*
X74123Y-33570D01*
X74259Y-33513D01*
X74363Y-33409D01*
X74419Y-33273D01*
X74420Y-33126D01*
X74363Y-32990D01*
X74259Y-32886D01*
X74123Y-32830D01*
X74009Y-32829D01*
X74009Y-32829D01*
X74009Y-32821D01*
X73942Y-32821D01*
X74009Y-32755D01*
X74009Y-32741D01*
X74009Y-32636D01*
X73968Y-32538D01*
X73894Y-32464D01*
X73796Y-32423D01*
X73638Y-32423D01*
X73572Y-32490D01*
X73572Y-32821D01*
X73580Y-32821D01*
X73580Y-32891D01*
X73572Y-32891D01*
X73572Y-32899D01*
X73502Y-32899D01*
X73502Y-32891D01*
X73131Y-32891D01*
X73065Y-32957D01*
X73065Y-32971D01*
X73065Y-33076D01*
X73106Y-33173D01*
X73180Y-33248D01*
X73276Y-33287D01*
X73220Y-33310D01*
X73165Y-33365D01*
X73162Y-33373D01*
X72337Y-33373D01*
X72334Y-33366D01*
X72279Y-33311D01*
X72223Y-33287D01*
X72319Y-33248D01*
X72393Y-33173D01*
X72434Y-33076D01*
X72434Y-32971D01*
X72434Y-32957D01*
X72368Y-32891D01*
X71997Y-32891D01*
X71997Y-32899D01*
X71927Y-32899D01*
X71927Y-32891D01*
X71927Y-32821D01*
X71927Y-32490D01*
X71861Y-32423D01*
X71703Y-32423D01*
X71605Y-32464D01*
X71531Y-32538D01*
X71490Y-32636D01*
X71490Y-32741D01*
X71490Y-32755D01*
X71557Y-32821D01*
X71927Y-32821D01*
X71927Y-32891D01*
X71557Y-32891D01*
X71490Y-32957D01*
X71490Y-32971D01*
X71490Y-33076D01*
X71531Y-33173D01*
X71605Y-33248D01*
X71701Y-33287D01*
X71645Y-33310D01*
X71590Y-33365D01*
X71560Y-33437D01*
X71560Y-33514D01*
X71560Y-33849D01*
X71590Y-33921D01*
X71645Y-33976D01*
X71716Y-34005D01*
X71730Y-34006D01*
X71730Y-34179D01*
X71713Y-34140D01*
X71609Y-34036D01*
X71473Y-33980D01*
X71326Y-33979D01*
X71190Y-34036D01*
X71126Y-34100D01*
X70689Y-33663D01*
X70689Y-33437D01*
X70659Y-33366D01*
X70604Y-33311D01*
X70548Y-33287D01*
X70644Y-33248D01*
X70718Y-33173D01*
X70759Y-33076D01*
X70759Y-32971D01*
X70759Y-32957D01*
X70692Y-32891D01*
X70322Y-32891D01*
X70322Y-32899D01*
X70252Y-32899D01*
X70252Y-32891D01*
X69881Y-32891D01*
X69815Y-32957D01*
X69815Y-32971D01*
X69815Y-33076D01*
X69856Y-33173D01*
X69930Y-33248D01*
X70026Y-33287D01*
X69970Y-33310D01*
X69915Y-33365D01*
X69912Y-33373D01*
X69087Y-33373D01*
X69084Y-33366D01*
X69029Y-33311D01*
X68973Y-33287D01*
X69069Y-33248D01*
X69143Y-33173D01*
X69184Y-33076D01*
X69184Y-32971D01*
X69184Y-32741D01*
X69184Y-32636D01*
X69143Y-32538D01*
X69069Y-32464D01*
X68971Y-32423D01*
X68813Y-32423D01*
X68747Y-32490D01*
X68747Y-32821D01*
X69118Y-32821D01*
X69184Y-32755D01*
X69184Y-32741D01*
X69184Y-32971D01*
X69184Y-32957D01*
X69118Y-32891D01*
X68747Y-32891D01*
X68747Y-32899D01*
X68677Y-32899D01*
X68677Y-32891D01*
X68307Y-32891D01*
X68240Y-32957D01*
X68240Y-32971D01*
X68240Y-33076D01*
X68281Y-33173D01*
X68355Y-33248D01*
X68451Y-33287D01*
X68395Y-33310D01*
X68340Y-33365D01*
X68320Y-33415D01*
X68320Y-33400D01*
X68319Y-33399D01*
X68320Y-33399D01*
X68315Y-33379D01*
X68299Y-33296D01*
X68299Y-33296D01*
X68240Y-33209D01*
X68240Y-33209D01*
X67940Y-32909D01*
X67853Y-32850D01*
X67750Y-32830D01*
X67100Y-32830D01*
X66996Y-32850D01*
X66909Y-32909D01*
X66909Y-32909D01*
X66659Y-33159D01*
X66600Y-33246D01*
X66580Y-33350D01*
X66580Y-34338D01*
X66503Y-34415D01*
X66458Y-34415D01*
X66499Y-34353D01*
X66499Y-34353D01*
X66520Y-34250D01*
X66520Y-32394D01*
X66648Y-32266D01*
X66719Y-32093D01*
X66720Y-31906D01*
X66648Y-31734D01*
X66629Y-31714D01*
X66870Y-31714D01*
X66851Y-31733D01*
X66780Y-31906D01*
X66779Y-32093D01*
X66851Y-32265D01*
X66983Y-32398D01*
X67156Y-32469D01*
X67343Y-32470D01*
X67515Y-32398D01*
X67648Y-32266D01*
X67719Y-32093D01*
X67720Y-31906D01*
X67648Y-31734D01*
X67629Y-31714D01*
X67870Y-31714D01*
X67851Y-31733D01*
X67780Y-31906D01*
X67779Y-32093D01*
X67851Y-32265D01*
X67983Y-32398D01*
X68156Y-32469D01*
X68343Y-32470D01*
X68355Y-32465D01*
X68281Y-32538D01*
X68240Y-32636D01*
X68240Y-32741D01*
X68240Y-32755D01*
X68307Y-32821D01*
X68677Y-32821D01*
X68677Y-32490D01*
X68611Y-32423D01*
X68454Y-32423D01*
X68515Y-32398D01*
X68648Y-32266D01*
X68719Y-32093D01*
X68720Y-31906D01*
X68648Y-31734D01*
X68629Y-31714D01*
X68870Y-31714D01*
X68851Y-31733D01*
X68780Y-31906D01*
X68779Y-32093D01*
X68851Y-32265D01*
X68983Y-32398D01*
X69156Y-32469D01*
X69343Y-32470D01*
X69515Y-32398D01*
X69648Y-32266D01*
X69719Y-32093D01*
X69720Y-31906D01*
X69648Y-31734D01*
X69629Y-31714D01*
X69870Y-31714D01*
X69851Y-31733D01*
X69780Y-31906D01*
X69779Y-32093D01*
X69851Y-32265D01*
X69983Y-32398D01*
X70045Y-32423D01*
X70028Y-32423D01*
X69930Y-32464D01*
X69856Y-32538D01*
X69815Y-32636D01*
X69815Y-32741D01*
X69815Y-32755D01*
X69881Y-32821D01*
X70252Y-32821D01*
X70252Y-32813D01*
X70322Y-32813D01*
X70322Y-32821D01*
X70692Y-32821D01*
X70759Y-32755D01*
X70759Y-32741D01*
X70759Y-32636D01*
X70718Y-32538D01*
X70644Y-32464D01*
X70546Y-32423D01*
X70454Y-32423D01*
X70515Y-32398D01*
X70648Y-32266D01*
X70719Y-32093D01*
X70720Y-31906D01*
X70648Y-31734D01*
X70629Y-31714D01*
X70870Y-31714D01*
X70851Y-31733D01*
X70780Y-31906D01*
X70779Y-32093D01*
X70851Y-32265D01*
X70983Y-32398D01*
X71156Y-32469D01*
X71343Y-32470D01*
X71515Y-32398D01*
X71648Y-32266D01*
X71719Y-32093D01*
X71720Y-31906D01*
X71648Y-31734D01*
X71629Y-31714D01*
X71870Y-31714D01*
X71851Y-31733D01*
X71780Y-31906D01*
X71779Y-32093D01*
X71851Y-32265D01*
X71983Y-32398D01*
X72058Y-32429D01*
X71997Y-32490D01*
X71997Y-32821D01*
X72368Y-32821D01*
X72434Y-32755D01*
X72434Y-32741D01*
X72434Y-32636D01*
X72393Y-32538D01*
X72325Y-32470D01*
X72343Y-32470D01*
X72515Y-32398D01*
X72648Y-32266D01*
X72719Y-32093D01*
X72720Y-31906D01*
X72648Y-31734D01*
X72629Y-31714D01*
X72870Y-31714D01*
X72851Y-31733D01*
X72780Y-31906D01*
X72779Y-32093D01*
X72851Y-32265D01*
X72983Y-32398D01*
X73156Y-32469D01*
X73175Y-32469D01*
X73106Y-32538D01*
X73065Y-32636D01*
X73065Y-32741D01*
X73065Y-32755D01*
X73131Y-32821D01*
X73502Y-32821D01*
X73502Y-32490D01*
X73441Y-32429D01*
X73515Y-32398D01*
X73648Y-32266D01*
X73719Y-32093D01*
X73720Y-31906D01*
X73648Y-31734D01*
X73629Y-31714D01*
X73870Y-31714D01*
X73851Y-31733D01*
X73780Y-31906D01*
X73779Y-32093D01*
X73851Y-32265D01*
X73983Y-32398D01*
X74156Y-32469D01*
X74343Y-32470D01*
X74515Y-32398D01*
X74648Y-32266D01*
X74719Y-32093D01*
X74720Y-31906D01*
X74648Y-31734D01*
X74629Y-31714D01*
X74870Y-31714D01*
X74851Y-31733D01*
X74780Y-31906D01*
X74779Y-32093D01*
X74851Y-32265D01*
X74983Y-32398D01*
X75156Y-32469D01*
X75343Y-32470D01*
X75515Y-32398D01*
X75648Y-32266D01*
X75719Y-32093D01*
X75720Y-31906D01*
X75648Y-31734D01*
X75629Y-31714D01*
X75870Y-31714D01*
X75851Y-31733D01*
X75780Y-31906D01*
X75779Y-32093D01*
X75851Y-32265D01*
X75983Y-32398D01*
X76156Y-32469D01*
X76343Y-32470D01*
X76515Y-32398D01*
X76648Y-32266D01*
X76719Y-32093D01*
X76720Y-31906D01*
X76648Y-31734D01*
X76629Y-31714D01*
X76870Y-31714D01*
X76851Y-31733D01*
X76780Y-31906D01*
X76779Y-32093D01*
X76851Y-32265D01*
X76983Y-32398D01*
X77080Y-32438D01*
X77080Y-34700D01*
X77100Y-34803D01*
X77159Y-34890D01*
X77454Y-35186D01*
X77454Y-35388D01*
X77484Y-35460D01*
X77524Y-35500D01*
X77484Y-35539D01*
X77455Y-35611D01*
X77454Y-35688D01*
X77454Y-36388D01*
X77484Y-36460D01*
X77539Y-36515D01*
X77611Y-36544D01*
X77688Y-36545D01*
X77730Y-36545D01*
X77730Y-36988D01*
X77730Y-36988D01*
G37*
G54D41*
X77730Y-36988D02*
X77538Y-37180D01*
X73490Y-37180D01*
X73490Y-37151D01*
X73423Y-37085D01*
X73035Y-37085D01*
X73035Y-37092D01*
X72965Y-37092D01*
X72965Y-37085D01*
X72576Y-37085D01*
X72510Y-37151D01*
X72509Y-37180D01*
X72490Y-37180D01*
X72490Y-37151D01*
X72423Y-37085D01*
X72035Y-37085D01*
X72035Y-37092D01*
X71965Y-37092D01*
X71965Y-37085D01*
X71576Y-37085D01*
X71510Y-37151D01*
X71509Y-37227D01*
X71548Y-37319D01*
X71490Y-37378D01*
X71490Y-37227D01*
X71490Y-37151D01*
X71423Y-37085D01*
X71035Y-37085D01*
X71035Y-37373D01*
X71101Y-37440D01*
X71172Y-37440D01*
X71277Y-37439D01*
X71375Y-37399D01*
X71449Y-37324D01*
X71490Y-37227D01*
X71490Y-37378D01*
X71338Y-37530D01*
X71156Y-37529D01*
X70984Y-37601D01*
X70965Y-37620D01*
X70965Y-37373D01*
X70965Y-37085D01*
X70576Y-37085D01*
X70510Y-37151D01*
X70509Y-37227D01*
X70550Y-37324D01*
X70624Y-37399D01*
X70722Y-37439D01*
X70827Y-37440D01*
X70898Y-37440D01*
X70965Y-37373D01*
X70965Y-37620D01*
X70851Y-37733D01*
X70780Y-37906D01*
X70779Y-38093D01*
X70851Y-38265D01*
X70870Y-38285D01*
X70629Y-38285D01*
X70648Y-38266D01*
X70719Y-38093D01*
X70720Y-37906D01*
X70648Y-37734D01*
X70516Y-37601D01*
X70343Y-37530D01*
X70156Y-37529D01*
X70063Y-37568D01*
X70190Y-37440D01*
X70238Y-37370D01*
X70263Y-37370D01*
X70335Y-37340D01*
X70390Y-37285D01*
X70419Y-37213D01*
X70420Y-37136D01*
X70420Y-36886D01*
X70390Y-36814D01*
X70335Y-36759D01*
X70312Y-36750D01*
X70335Y-36740D01*
X70390Y-36685D01*
X70419Y-36613D01*
X70420Y-36536D01*
X70420Y-36461D01*
X70461Y-36420D01*
X70523Y-36420D01*
X70579Y-36396D01*
X70579Y-36613D01*
X70609Y-36685D01*
X70624Y-36700D01*
X70624Y-36700D01*
X70550Y-36775D01*
X70509Y-36872D01*
X70510Y-36948D01*
X70576Y-37015D01*
X70965Y-37015D01*
X70965Y-37007D01*
X71035Y-37007D01*
X71035Y-37015D01*
X71423Y-37015D01*
X71490Y-36948D01*
X71490Y-36872D01*
X71449Y-36775D01*
X71375Y-36700D01*
X71390Y-36685D01*
X71419Y-36613D01*
X71420Y-36536D01*
X71420Y-36286D01*
X71390Y-36214D01*
X71335Y-36159D01*
X71270Y-36132D01*
X71270Y-35867D01*
X71335Y-35840D01*
X71355Y-35820D01*
X71644Y-35820D01*
X71664Y-35840D01*
X71736Y-35869D01*
X71813Y-35870D01*
X72198Y-35870D01*
X71938Y-36129D01*
X71736Y-36129D01*
X71664Y-36159D01*
X71609Y-36214D01*
X71580Y-36286D01*
X71579Y-36363D01*
X71579Y-36613D01*
X71609Y-36685D01*
X71624Y-36700D01*
X71624Y-36700D01*
X71550Y-36775D01*
X71509Y-36872D01*
X71510Y-36948D01*
X71576Y-37015D01*
X71965Y-37015D01*
X71965Y-37007D01*
X72035Y-37007D01*
X72035Y-37015D01*
X72423Y-37015D01*
X72490Y-36948D01*
X72490Y-36872D01*
X72449Y-36775D01*
X72375Y-36700D01*
X72390Y-36685D01*
X72419Y-36613D01*
X72420Y-36536D01*
X72420Y-36411D01*
X72604Y-36227D01*
X72580Y-36286D01*
X72579Y-36363D01*
X72579Y-36613D01*
X72609Y-36685D01*
X72624Y-36700D01*
X72624Y-36700D01*
X72550Y-36775D01*
X72509Y-36872D01*
X72510Y-36948D01*
X72576Y-37015D01*
X72965Y-37015D01*
X72965Y-37007D01*
X73035Y-37007D01*
X73035Y-37015D01*
X73423Y-37015D01*
X73490Y-36948D01*
X73490Y-36872D01*
X73449Y-36775D01*
X73379Y-36704D01*
X73379Y-36704D01*
X73403Y-36699D01*
X73403Y-36699D01*
X73490Y-36640D01*
X74110Y-36021D01*
X74153Y-36064D01*
X74225Y-36093D01*
X74302Y-36094D01*
X74774Y-36094D01*
X74846Y-36064D01*
X74901Y-36009D01*
X74902Y-36006D01*
X74959Y-36090D01*
X75379Y-36511D01*
X75379Y-36573D01*
X75436Y-36709D01*
X75540Y-36813D01*
X75676Y-36869D01*
X75823Y-36870D01*
X75959Y-36813D01*
X76063Y-36709D01*
X76119Y-36573D01*
X76120Y-36426D01*
X76063Y-36290D01*
X75959Y-36186D01*
X75823Y-36130D01*
X75761Y-36130D01*
X75420Y-35788D01*
X75420Y-35100D01*
X75419Y-35099D01*
X75420Y-35099D01*
X75415Y-35079D01*
X75399Y-34996D01*
X75399Y-34996D01*
X75340Y-34909D01*
X75340Y-34909D01*
X75139Y-34708D01*
X75200Y-34720D01*
X76346Y-34720D01*
X76390Y-34763D01*
X76526Y-34819D01*
X76673Y-34820D01*
X76809Y-34763D01*
X76913Y-34659D01*
X76969Y-34523D01*
X76970Y-34376D01*
X76913Y-34240D01*
X76809Y-34136D01*
X76673Y-34080D01*
X76526Y-34079D01*
X76390Y-34136D01*
X76346Y-34180D01*
X75311Y-34180D01*
X75190Y-34059D01*
X75103Y-34000D01*
X75000Y-33980D01*
X73845Y-33980D01*
X73854Y-33976D01*
X73909Y-33921D01*
X73939Y-33849D01*
X73939Y-33772D01*
X73939Y-33692D01*
X74061Y-33570D01*
X74123Y-33570D01*
X74259Y-33513D01*
X74363Y-33409D01*
X74419Y-33273D01*
X74420Y-33126D01*
X74363Y-32990D01*
X74259Y-32886D01*
X74123Y-32830D01*
X74009Y-32829D01*
X74009Y-32829D01*
X74009Y-32821D01*
X73942Y-32821D01*
X74009Y-32755D01*
X74009Y-32741D01*
X74009Y-32636D01*
X73968Y-32538D01*
X73894Y-32464D01*
X73796Y-32423D01*
X73638Y-32423D01*
X73572Y-32490D01*
X73572Y-32821D01*
X73580Y-32821D01*
X73580Y-32891D01*
X73572Y-32891D01*
X73572Y-32899D01*
X73502Y-32899D01*
X73502Y-32891D01*
X73131Y-32891D01*
X73065Y-32957D01*
X73065Y-32971D01*
X73065Y-33076D01*
X73106Y-33173D01*
X73180Y-33248D01*
X73276Y-33287D01*
X73220Y-33310D01*
X73165Y-33365D01*
X73162Y-33373D01*
X72337Y-33373D01*
X72334Y-33366D01*
X72279Y-33311D01*
X72223Y-33287D01*
X72319Y-33248D01*
X72393Y-33173D01*
X72434Y-33076D01*
X72434Y-32971D01*
X72434Y-32957D01*
X72368Y-32891D01*
X71997Y-32891D01*
X71997Y-32899D01*
X71927Y-32899D01*
X71927Y-32891D01*
X71927Y-32821D01*
X71927Y-32490D01*
X71861Y-32423D01*
X71703Y-32423D01*
X71605Y-32464D01*
X71531Y-32538D01*
X71490Y-32636D01*
X71490Y-32741D01*
X71490Y-32755D01*
X71557Y-32821D01*
X71927Y-32821D01*
X71927Y-32891D01*
X71557Y-32891D01*
X71490Y-32957D01*
X71490Y-32971D01*
X71490Y-33076D01*
X71531Y-33173D01*
X71605Y-33248D01*
X71701Y-33287D01*
X71645Y-33310D01*
X71590Y-33365D01*
X71560Y-33437D01*
X71560Y-33514D01*
X71560Y-33849D01*
X71590Y-33921D01*
X71645Y-33976D01*
X71716Y-34005D01*
X71730Y-34006D01*
X71730Y-34179D01*
X71713Y-34140D01*
X71609Y-34036D01*
X71473Y-33980D01*
X71326Y-33979D01*
X71190Y-34036D01*
X71126Y-34100D01*
X70689Y-33663D01*
X70689Y-33437D01*
X70659Y-33366D01*
X70604Y-33311D01*
X70548Y-33287D01*
X70644Y-33248D01*
X70718Y-33173D01*
X70759Y-33076D01*
X70759Y-32971D01*
X70759Y-32957D01*
X70692Y-32891D01*
X70322Y-32891D01*
X70322Y-32899D01*
X70252Y-32899D01*
X70252Y-32891D01*
X69881Y-32891D01*
X69815Y-32957D01*
X69815Y-32971D01*
X69815Y-33076D01*
X69856Y-33173D01*
X69930Y-33248D01*
X70026Y-33287D01*
X69970Y-33310D01*
X69915Y-33365D01*
X69912Y-33373D01*
X69087Y-33373D01*
X69084Y-33366D01*
X69029Y-33311D01*
X68973Y-33287D01*
X69069Y-33248D01*
X69143Y-33173D01*
X69184Y-33076D01*
X69184Y-32971D01*
X69184Y-32741D01*
X69184Y-32636D01*
X69143Y-32538D01*
X69069Y-32464D01*
X68971Y-32423D01*
X68813Y-32423D01*
X68747Y-32490D01*
X68747Y-32821D01*
X69118Y-32821D01*
X69184Y-32755D01*
X69184Y-32741D01*
X69184Y-32971D01*
X69184Y-32957D01*
X69118Y-32891D01*
X68747Y-32891D01*
X68747Y-32899D01*
X68677Y-32899D01*
X68677Y-32891D01*
X68307Y-32891D01*
X68240Y-32957D01*
X68240Y-32971D01*
X68240Y-33076D01*
X68281Y-33173D01*
X68355Y-33248D01*
X68451Y-33287D01*
X68395Y-33310D01*
X68340Y-33365D01*
X68320Y-33415D01*
X68320Y-33400D01*
X68319Y-33399D01*
X68320Y-33399D01*
X68315Y-33379D01*
X68299Y-33296D01*
X68299Y-33296D01*
X68240Y-33209D01*
X68240Y-33209D01*
X67940Y-32909D01*
X67853Y-32850D01*
X67750Y-32830D01*
X67100Y-32830D01*
X66996Y-32850D01*
X66909Y-32909D01*
X66909Y-32909D01*
X66659Y-33159D01*
X66600Y-33246D01*
X66580Y-33350D01*
X66580Y-34338D01*
X66503Y-34415D01*
X66458Y-34415D01*
X66499Y-34353D01*
X66499Y-34353D01*
X66520Y-34250D01*
X66520Y-32394D01*
X66648Y-32266D01*
X66719Y-32093D01*
X66720Y-31906D01*
X66648Y-31734D01*
X66629Y-31714D01*
X66870Y-31714D01*
X66851Y-31733D01*
X66780Y-31906D01*
X66779Y-32093D01*
X66851Y-32265D01*
X66983Y-32398D01*
X67156Y-32469D01*
X67343Y-32470D01*
X67515Y-32398D01*
X67648Y-32266D01*
X67719Y-32093D01*
X67720Y-31906D01*
X67648Y-31734D01*
X67629Y-31714D01*
X67870Y-31714D01*
X67851Y-31733D01*
X67780Y-31906D01*
X67779Y-32093D01*
X67851Y-32265D01*
X67983Y-32398D01*
X68156Y-32469D01*
X68343Y-32470D01*
X68355Y-32465D01*
X68281Y-32538D01*
X68240Y-32636D01*
X68240Y-32741D01*
X68240Y-32755D01*
X68307Y-32821D01*
X68677Y-32821D01*
X68677Y-32490D01*
X68611Y-32423D01*
X68454Y-32423D01*
X68515Y-32398D01*
X68648Y-32266D01*
X68719Y-32093D01*
X68720Y-31906D01*
X68648Y-31734D01*
X68629Y-31714D01*
X68870Y-31714D01*
X68851Y-31733D01*
X68780Y-31906D01*
X68779Y-32093D01*
X68851Y-32265D01*
X68983Y-32398D01*
X69156Y-32469D01*
X69343Y-32470D01*
X69515Y-32398D01*
X69648Y-32266D01*
X69719Y-32093D01*
X69720Y-31906D01*
X69648Y-31734D01*
X69629Y-31714D01*
X69870Y-31714D01*
X69851Y-31733D01*
X69780Y-31906D01*
X69779Y-32093D01*
X69851Y-32265D01*
X69983Y-32398D01*
X70045Y-32423D01*
X70028Y-32423D01*
X69930Y-32464D01*
X69856Y-32538D01*
X69815Y-32636D01*
X69815Y-32741D01*
X69815Y-32755D01*
X69881Y-32821D01*
X70252Y-32821D01*
X70252Y-32813D01*
X70322Y-32813D01*
X70322Y-32821D01*
X70692Y-32821D01*
X70759Y-32755D01*
X70759Y-32741D01*
X70759Y-32636D01*
X70718Y-32538D01*
X70644Y-32464D01*
X70546Y-32423D01*
X70454Y-32423D01*
X70515Y-32398D01*
X70648Y-32266D01*
X70719Y-32093D01*
X70720Y-31906D01*
X70648Y-31734D01*
X70629Y-31714D01*
X70870Y-31714D01*
X70851Y-31733D01*
X70780Y-31906D01*
X70779Y-32093D01*
X70851Y-32265D01*
X70983Y-32398D01*
X71156Y-32469D01*
X71343Y-32470D01*
X71515Y-32398D01*
X71648Y-32266D01*
X71719Y-32093D01*
X71720Y-31906D01*
X71648Y-31734D01*
X71629Y-31714D01*
X71870Y-31714D01*
X71851Y-31733D01*
X71780Y-31906D01*
X71779Y-32093D01*
X71851Y-32265D01*
X71983Y-32398D01*
X72058Y-32429D01*
X71997Y-32490D01*
X71997Y-32821D01*
X72368Y-32821D01*
X72434Y-32755D01*
X72434Y-32741D01*
X72434Y-32636D01*
X72393Y-32538D01*
X72325Y-32470D01*
X72343Y-32470D01*
X72515Y-32398D01*
X72648Y-32266D01*
X72719Y-32093D01*
X72720Y-31906D01*
X72648Y-31734D01*
X72629Y-31714D01*
X72870Y-31714D01*
X72851Y-31733D01*
X72780Y-31906D01*
X72779Y-32093D01*
X72851Y-32265D01*
X72983Y-32398D01*
X73156Y-32469D01*
X73175Y-32469D01*
X73106Y-32538D01*
X73065Y-32636D01*
X73065Y-32741D01*
X73065Y-32755D01*
X73131Y-32821D01*
X73502Y-32821D01*
X73502Y-32490D01*
X73441Y-32429D01*
X73515Y-32398D01*
X73648Y-32266D01*
X73719Y-32093D01*
X73720Y-31906D01*
X73648Y-31734D01*
X73629Y-31714D01*
X73870Y-31714D01*
X73851Y-31733D01*
X73780Y-31906D01*
X73779Y-32093D01*
X73851Y-32265D01*
X73983Y-32398D01*
X74156Y-32469D01*
X74343Y-32470D01*
X74515Y-32398D01*
X74648Y-32266D01*
X74719Y-32093D01*
X74720Y-31906D01*
X74648Y-31734D01*
X74629Y-31714D01*
X74870Y-31714D01*
X74851Y-31733D01*
X74780Y-31906D01*
X74779Y-32093D01*
X74851Y-32265D01*
X74983Y-32398D01*
X75156Y-32469D01*
X75343Y-32470D01*
X75515Y-32398D01*
X75648Y-32266D01*
X75719Y-32093D01*
X75720Y-31906D01*
X75648Y-31734D01*
X75629Y-31714D01*
X75870Y-31714D01*
X75851Y-31733D01*
X75780Y-31906D01*
X75779Y-32093D01*
X75851Y-32265D01*
X75983Y-32398D01*
X76156Y-32469D01*
X76343Y-32470D01*
X76515Y-32398D01*
X76648Y-32266D01*
X76719Y-32093D01*
X76720Y-31906D01*
X76648Y-31734D01*
X76629Y-31714D01*
X76870Y-31714D01*
X76851Y-31733D01*
X76780Y-31906D01*
X76779Y-32093D01*
X76851Y-32265D01*
X76983Y-32398D01*
X77080Y-32438D01*
X77080Y-34700D01*
X77100Y-34803D01*
X77159Y-34890D01*
X77454Y-35186D01*
X77454Y-35388D01*
X77484Y-35460D01*
X77524Y-35500D01*
X77484Y-35539D01*
X77455Y-35611D01*
X77454Y-35688D01*
X77454Y-36388D01*
X77484Y-36460D01*
X77539Y-36515D01*
X77611Y-36544D01*
X77688Y-36545D01*
X77730Y-36545D01*
X77730Y-36988D01*
M02*
