%FSLAX34Y34*%
G04 Gerber Fmt 3.4, Leading zero omitted, Abs format*
G04 (created by PCBNEW (2014-02-26 BZR 4721)-product) date Thursday, June 12, 2014 'amt' 08:53:31 am*
%MOIN*%
G01*
G70*
G90*
G04 APERTURE LIST*
%ADD10C,0.005906*%
%ADD11O,0.400000X0.090000*%
%ADD12O,0.900000X0.090000*%
%ADD13R,0.055000X0.055000*%
%ADD14C,0.055000*%
%ADD15C,0.060000*%
%ADD16R,0.043307X0.098425*%
%ADD17C,0.020000*%
%ADD18R,0.070000X0.070000*%
%ADD19R,0.059100X0.059100*%
%ADD20C,0.059100*%
%ADD21C,0.080000*%
%ADD22R,0.080000X0.080000*%
%ADD23C,0.070000*%
%ADD24R,0.098425X0.078740*%
%ADD25C,0.160000*%
%ADD26C,0.400000*%
%ADD27C,0.090000*%
%ADD28R,0.035000X0.055000*%
%ADD29R,0.055000X0.035000*%
%ADD30R,0.017700X0.078700*%
%ADD31R,0.078700X0.017700*%
%ADD32R,0.023600X0.055100*%
%ADD33R,0.090600X0.019700*%
%ADD34R,0.098400X0.078700*%
%ADD35C,0.035400*%
%ADD36R,0.041339X0.033465*%
%ADD37R,0.045000X0.025000*%
%ADD38R,0.025000X0.045000*%
%ADD39R,0.047200X0.047200*%
G04 APERTURE END LIST*
G54D10*
G54D11*
X68250Y-39000D03*
G54D12*
X70750Y-31000D03*
G54D13*
X63750Y-42250D03*
G54D14*
X64750Y-42250D03*
X65750Y-42250D03*
X66750Y-42250D03*
X67750Y-42250D03*
X68750Y-42250D03*
X69750Y-42250D03*
X70750Y-42250D03*
X71750Y-42250D03*
X72750Y-42250D03*
G54D15*
X81350Y-33300D03*
X81350Y-32300D03*
X81350Y-31300D03*
X81350Y-30300D03*
X81350Y-29300D03*
X81350Y-28300D03*
X81350Y-27300D03*
X81350Y-26300D03*
X81350Y-25300D03*
X81350Y-24300D03*
X80350Y-32343D03*
X80350Y-31555D03*
X80350Y-30768D03*
X80350Y-29981D03*
X80350Y-29193D03*
X80350Y-28406D03*
X80350Y-27618D03*
X80350Y-26831D03*
X80350Y-26044D03*
X80350Y-25256D03*
G54D16*
X63541Y-40750D03*
X64131Y-40750D03*
X64722Y-40750D03*
X65312Y-40750D03*
X65903Y-40750D03*
X66494Y-40750D03*
X67084Y-40750D03*
X67675Y-40750D03*
X68265Y-40750D03*
X68856Y-40750D03*
X69446Y-40750D03*
X70037Y-40750D03*
X70627Y-40750D03*
G54D13*
X71750Y-40750D03*
G54D14*
X72750Y-40750D03*
G54D17*
X64500Y-30750D03*
X65000Y-30750D03*
X65500Y-30750D03*
X64500Y-31250D03*
X65000Y-31250D03*
X65500Y-31250D03*
X76000Y-30750D03*
X76500Y-30750D03*
X77000Y-30750D03*
X76000Y-31250D03*
X76500Y-31250D03*
X77000Y-31250D03*
X79500Y-26250D03*
X79500Y-25750D03*
X79500Y-25250D03*
X79000Y-26250D03*
X79000Y-25750D03*
X79000Y-25250D03*
X79500Y-29250D03*
X79500Y-28750D03*
X79500Y-28250D03*
X79000Y-29250D03*
X79000Y-28750D03*
X79000Y-28250D03*
X64500Y-39250D03*
X65000Y-39250D03*
X65500Y-39250D03*
X64500Y-38750D03*
X65000Y-38750D03*
X65500Y-38750D03*
X71000Y-38750D03*
X71500Y-38750D03*
X72000Y-38750D03*
X71000Y-39250D03*
X71500Y-39250D03*
X72000Y-39250D03*
X79000Y-27750D03*
X79000Y-27250D03*
X79000Y-26750D03*
X79500Y-27750D03*
X79500Y-27250D03*
X79500Y-26750D03*
G54D18*
X67550Y-29500D03*
X67550Y-29500D03*
G54D19*
X63400Y-26050D03*
G54D20*
X63400Y-27050D03*
G54D21*
X65000Y-24500D03*
G54D22*
X63750Y-24500D03*
G54D18*
X63750Y-28250D03*
G54D23*
X64500Y-26750D03*
X64500Y-25750D03*
G54D24*
X70667Y-27500D03*
X72832Y-27500D03*
G54D13*
X71500Y-29500D03*
G54D14*
X70500Y-29500D03*
X69500Y-29500D03*
G54D25*
X73250Y-29250D03*
G54D26*
X76500Y-27000D03*
G54D27*
X75900Y-24400D03*
X77100Y-24400D03*
X75900Y-29600D03*
X77100Y-29600D03*
G54D28*
X70025Y-24250D03*
X69275Y-24250D03*
G54D29*
X74000Y-24175D03*
X74000Y-24925D03*
X70900Y-24225D03*
X70900Y-24975D03*
X66650Y-29875D03*
X66650Y-29125D03*
G54D30*
X66357Y-24504D03*
X66672Y-24504D03*
X66987Y-24504D03*
X67302Y-24504D03*
X67617Y-24504D03*
X67932Y-24504D03*
X68247Y-24504D03*
X68562Y-24504D03*
X68560Y-28270D03*
X66350Y-28270D03*
X66670Y-28270D03*
X66990Y-28270D03*
X67300Y-28270D03*
X67620Y-28270D03*
X67930Y-28270D03*
X68250Y-28270D03*
G54D31*
X69350Y-25288D03*
X69350Y-25602D03*
X69350Y-25918D03*
X69350Y-26232D03*
X69350Y-26548D03*
X69350Y-26862D03*
X69350Y-27178D03*
X69350Y-27492D03*
X65570Y-25290D03*
X65570Y-25600D03*
X65570Y-25920D03*
X65570Y-26230D03*
X65570Y-26540D03*
X65570Y-26860D03*
X65570Y-27180D03*
X65570Y-27500D03*
G54D32*
X71700Y-24150D03*
X71700Y-26250D03*
X72200Y-24150D03*
X72700Y-24150D03*
X73200Y-24150D03*
X72200Y-26250D03*
X72700Y-26250D03*
X73200Y-26250D03*
G54D18*
X63750Y-29500D03*
X64750Y-29500D03*
X65750Y-29500D03*
X63750Y-29500D03*
X64750Y-29500D03*
X65750Y-29500D03*
G54D14*
X71250Y-32000D03*
X72250Y-32000D03*
X73250Y-32000D03*
X74250Y-32000D03*
X75250Y-32000D03*
X76250Y-32000D03*
X77250Y-32000D03*
X78250Y-32000D03*
G54D13*
X63250Y-32000D03*
G54D14*
X64250Y-32000D03*
X65250Y-32000D03*
X66250Y-32000D03*
X67250Y-32000D03*
X68250Y-32000D03*
X69250Y-32000D03*
X70250Y-32000D03*
X70250Y-38000D03*
X69250Y-38000D03*
X68250Y-38000D03*
X67250Y-38000D03*
X66250Y-38000D03*
X65250Y-38000D03*
X64250Y-38000D03*
X63250Y-38000D03*
X78250Y-38000D03*
X77250Y-38000D03*
X76250Y-38000D03*
X75250Y-38000D03*
X74250Y-38000D03*
X73250Y-38000D03*
X72250Y-38000D03*
X71250Y-38000D03*
G54D33*
X65608Y-34370D03*
X65608Y-34685D03*
X65608Y-35000D03*
X65608Y-35315D03*
X65608Y-35630D03*
G54D34*
X65569Y-33248D03*
X63404Y-33248D03*
X65569Y-36752D03*
X63404Y-36752D03*
G54D35*
X64585Y-34134D03*
X64585Y-35866D03*
G54D15*
X67450Y-33650D03*
X67450Y-35650D03*
X67450Y-34650D03*
G54D18*
X78000Y-36000D03*
X78000Y-35000D03*
X78000Y-34000D03*
X78000Y-36000D03*
X78000Y-35000D03*
X78000Y-34000D03*
G54D36*
X71962Y-32856D03*
X73537Y-32856D03*
X71962Y-33643D03*
X73537Y-33643D03*
X68712Y-32856D03*
X70287Y-32856D03*
X68712Y-33643D03*
X70287Y-33643D03*
G54D37*
X71000Y-35550D03*
X71000Y-34950D03*
X69000Y-34950D03*
X69000Y-35550D03*
X69000Y-37050D03*
X69000Y-36450D03*
G54D38*
X67800Y-37000D03*
X67200Y-37000D03*
G54D37*
X70000Y-36450D03*
X70000Y-37050D03*
X70000Y-34950D03*
X70000Y-35550D03*
X72000Y-34950D03*
X72000Y-35550D03*
X71000Y-37050D03*
X71000Y-36450D03*
X72000Y-37050D03*
X72000Y-36450D03*
X73000Y-36450D03*
X73000Y-37050D03*
G54D39*
X73250Y-34837D03*
X73250Y-35663D03*
X74500Y-34837D03*
X74500Y-35663D03*
M02*
