M48
;DRILL file {Pcbnew (2014-02-26 BZR 4721)-product} date Wednesday, June 11, 2014 'pmt' 02:16:01 pm
;FORMAT={-:-/ absolute / inch / decimal}
FMAT,2
INCH,TZ
T1C0.020
T2C0.035
T3C0.090
%
G90
G05
M72
T1
X6.45Y-3.075
X6.45Y-3.125
X6.45Y-3.875
X6.45Y-3.925
X6.5Y-3.075
X6.5Y-3.125
X6.5Y-3.875
X6.5Y-3.925
X6.55Y-3.075
X6.55Y-3.125
X6.55Y-3.875
X6.55Y-3.925
X7.1Y-3.875
X7.1Y-3.925
X7.15Y-3.875
X7.15Y-3.925
X7.2Y-3.875
X7.2Y-3.925
X7.6Y-3.075
X7.6Y-3.125
X7.65Y-3.075
X7.65Y-3.125
X7.7Y-3.075
X7.7Y-3.125
X7.9Y-2.525
X7.9Y-2.575
X7.9Y-2.625
X7.9Y-2.675
X7.9Y-2.725
X7.9Y-2.775
X7.9Y-2.825
X7.9Y-2.875
X7.9Y-2.925
X7.95Y-2.525
X7.95Y-2.575
X7.95Y-2.625
X7.95Y-2.675
X7.95Y-2.725
X7.95Y-2.775
X7.95Y-2.825
X7.95Y-2.875
X7.95Y-2.925
T2
X6.4585Y-3.4134
X6.4585Y-3.5866
T3
X6.67Y-3.9G85X6.98Y-3.9
G05
X6.67Y-3.1G85X7.48Y-3.1
G05
T0
M30
