M48
;DRILL file {Pcbnew (2013-dec-23)-stable} date Mon 09 Jun 2014 08:04:40 PM MDT
;FORMAT={-:-/ absolute / inch / decimal}
FMAT,2
INCH,TZ
T1C0.020
T2C0.035
T3C0.090
%
G90
G05
M72
T1
X1.525Y-1.675
X1.525Y-1.725
X1.525Y-2.475
X1.525Y-2.525
X1.575Y-1.675
X1.575Y-1.725
X1.575Y-2.475
X1.575Y-2.525
X1.625Y-1.675
X1.625Y-1.725
X1.625Y-2.475
X1.625Y-2.525
X2.175Y-2.475
X2.175Y-2.525
X2.225Y-2.475
X2.225Y-2.525
X2.275Y-2.475
X2.275Y-2.525
X2.675Y-1.675
X2.675Y-1.725
X2.725Y-1.675
X2.725Y-1.725
X2.775Y-1.675
X2.775Y-1.725
X2.975Y-1.925
X2.975Y-1.975
X2.975Y-2.025
X2.975Y-2.075
X2.975Y-2.125
X2.975Y-2.175
X2.975Y-2.225
X2.975Y-2.275
X2.975Y-2.325
X3.025Y-1.925
X3.025Y-1.975
X3.025Y-2.025
X3.025Y-2.075
X3.025Y-2.125
X3.025Y-2.175
X3.025Y-2.225
X3.025Y-2.275
X3.025Y-2.325
T2
X1.5335Y-2.0134
X1.5335Y-2.1866
T3
X1.695Y-1.7G85X2.605Y-1.7
G05
T0
M30
