%FSLAX34Y34*%
G04 Gerber Fmt 3.4, Leading zero omitted, Abs format*
G04 (created by PCBNEW (2014-02-26 BZR 4721)-product) date Thursday, June 12, 2014 'amt' 08:53:31 am*
%MOIN*%
G01*
G70*
G90*
G04 APERTURE LIST*
%ADD10C,0.005906*%
%ADD11R,0.055000X0.055000*%
%ADD12C,0.055000*%
%ADD13C,0.060000*%
%ADD14R,0.100000X0.100000*%
%ADD15R,0.070000X0.070000*%
%ADD16R,0.059100X0.059100*%
%ADD17C,0.059100*%
%ADD18C,0.080000*%
%ADD19R,0.080000X0.080000*%
%ADD20C,0.070000*%
%ADD21C,0.160000*%
%ADD22C,0.090000*%
%ADD23R,0.055000X0.035000*%
%ADD24R,0.035000X0.055000*%
%ADD25R,0.023600X0.015700*%
%ADD26C,0.035000*%
%ADD27C,0.015000*%
%ADD28C,0.020000*%
%ADD29C,0.060000*%
%ADD30C,0.010000*%
%ADD31C,0.013000*%
G04 APERTURE END LIST*
G54D10*
G54D11*
X63750Y-42250D03*
G54D12*
X64750Y-42250D03*
X65750Y-42250D03*
X66750Y-42250D03*
X67750Y-42250D03*
X68750Y-42250D03*
X69750Y-42250D03*
X70750Y-42250D03*
X71750Y-42250D03*
X72750Y-42250D03*
G54D13*
X81350Y-33300D03*
X81350Y-32300D03*
X81350Y-31300D03*
X81350Y-30300D03*
X81350Y-29300D03*
X81350Y-28300D03*
X81350Y-27300D03*
X81350Y-26300D03*
X81350Y-25300D03*
X81350Y-24300D03*
X80350Y-32343D03*
X80350Y-31555D03*
X80350Y-30768D03*
X80350Y-29981D03*
X80350Y-29193D03*
X80350Y-28406D03*
X80350Y-27618D03*
X80350Y-26831D03*
X80350Y-26044D03*
X80350Y-25256D03*
G54D14*
X70250Y-40750D03*
G54D11*
X71750Y-40750D03*
G54D12*
X72750Y-40750D03*
G54D15*
X67550Y-29500D03*
G54D16*
X63400Y-26050D03*
G54D17*
X63400Y-27050D03*
G54D18*
X65000Y-24500D03*
G54D19*
X63750Y-24500D03*
G54D15*
X63750Y-28250D03*
G54D20*
X64500Y-26750D03*
X64500Y-25750D03*
G54D11*
X71500Y-29500D03*
G54D12*
X70500Y-29500D03*
X69500Y-29500D03*
G54D21*
X73250Y-29250D03*
G54D22*
X75900Y-24400D03*
X77100Y-24400D03*
X75900Y-29600D03*
X77100Y-29600D03*
G54D15*
X63750Y-29500D03*
X64750Y-29500D03*
X65750Y-29500D03*
G54D23*
X67050Y-25325D03*
X67050Y-26075D03*
G54D24*
X64525Y-28250D03*
X65275Y-28250D03*
G54D23*
X71000Y-28625D03*
X71000Y-27875D03*
X70000Y-28625D03*
X70000Y-27875D03*
G54D12*
X71250Y-32000D03*
X72250Y-32000D03*
X73250Y-32000D03*
X74250Y-32000D03*
X75250Y-32000D03*
X76250Y-32000D03*
X77250Y-32000D03*
X78250Y-32000D03*
G54D11*
X63250Y-32000D03*
G54D12*
X64250Y-32000D03*
X65250Y-32000D03*
X66250Y-32000D03*
X67250Y-32000D03*
X68250Y-32000D03*
X69250Y-32000D03*
X70250Y-32000D03*
X70250Y-38000D03*
X69250Y-38000D03*
X68250Y-38000D03*
X67250Y-38000D03*
X66250Y-38000D03*
X65250Y-38000D03*
X64250Y-38000D03*
X63250Y-38000D03*
X78250Y-38000D03*
X77250Y-38000D03*
X76250Y-38000D03*
X75250Y-38000D03*
X74250Y-38000D03*
X73250Y-38000D03*
X72250Y-38000D03*
X71250Y-38000D03*
G54D10*
G36*
X69841Y-32670D02*
X69966Y-32545D01*
X70523Y-33102D01*
X70397Y-33227D01*
X69841Y-32670D01*
X69841Y-32670D01*
G37*
G36*
X69618Y-32893D02*
X69743Y-32768D01*
X70300Y-33324D01*
X70175Y-33450D01*
X69618Y-32893D01*
X69618Y-32893D01*
G37*
G36*
X69395Y-33116D02*
X69521Y-32991D01*
X70077Y-33547D01*
X69952Y-33672D01*
X69395Y-33116D01*
X69395Y-33116D01*
G37*
G36*
X69173Y-33339D02*
X69298Y-33213D01*
X69854Y-33770D01*
X69729Y-33895D01*
X69173Y-33339D01*
X69173Y-33339D01*
G37*
G36*
X68950Y-33561D02*
X69075Y-33436D01*
X69632Y-33993D01*
X69506Y-34118D01*
X68950Y-33561D01*
X68950Y-33561D01*
G37*
G36*
X68727Y-33784D02*
X68852Y-33659D01*
X69409Y-34215D01*
X69284Y-34340D01*
X68727Y-33784D01*
X68727Y-33784D01*
G37*
G36*
X68504Y-34007D02*
X68630Y-33882D01*
X69186Y-34438D01*
X69061Y-34563D01*
X68504Y-34007D01*
X68504Y-34007D01*
G37*
G36*
X68282Y-34229D02*
X68407Y-34104D01*
X68963Y-34661D01*
X68838Y-34786D01*
X68282Y-34229D01*
X68282Y-34229D01*
G37*
G36*
X70946Y-36891D02*
X71071Y-36766D01*
X71628Y-37322D01*
X71503Y-37448D01*
X70946Y-36891D01*
X70946Y-36891D01*
G37*
G36*
X72509Y-35328D02*
X72634Y-35203D01*
X73190Y-35760D01*
X73065Y-35885D01*
X72509Y-35328D01*
X72509Y-35328D01*
G37*
G36*
X72283Y-35555D02*
X72408Y-35429D01*
X72964Y-35986D01*
X72839Y-36111D01*
X72283Y-35555D01*
X72283Y-35555D01*
G37*
G36*
X72056Y-35781D02*
X72181Y-35656D01*
X72738Y-36212D01*
X72613Y-36337D01*
X72056Y-35781D01*
X72056Y-35781D01*
G37*
G36*
X71837Y-36000D02*
X71962Y-35875D01*
X72519Y-36431D01*
X72394Y-36557D01*
X71837Y-36000D01*
X71837Y-36000D01*
G37*
G36*
X71611Y-36226D02*
X71736Y-36101D01*
X72292Y-36658D01*
X72167Y-36783D01*
X71611Y-36226D01*
X71611Y-36226D01*
G37*
G36*
X71392Y-36446D02*
X71517Y-36320D01*
X72073Y-36877D01*
X71948Y-37002D01*
X71392Y-36446D01*
X71392Y-36446D01*
G37*
G36*
X71165Y-36672D02*
X71290Y-36547D01*
X71847Y-37103D01*
X71722Y-37228D01*
X71165Y-36672D01*
X71165Y-36672D01*
G37*
G36*
X68279Y-35772D02*
X68835Y-35216D01*
X68961Y-35341D01*
X68404Y-35898D01*
X68279Y-35772D01*
X68279Y-35772D01*
G37*
G36*
X68501Y-35994D02*
X69057Y-35438D01*
X69183Y-35563D01*
X68626Y-36120D01*
X68501Y-35994D01*
X68501Y-35994D01*
G37*
G36*
X68724Y-36218D02*
X69281Y-35661D01*
X69406Y-35787D01*
X68850Y-36343D01*
X68724Y-36218D01*
X68724Y-36218D01*
G37*
G36*
X68946Y-36440D02*
X69503Y-35883D01*
X69628Y-36009D01*
X69072Y-36565D01*
X68946Y-36440D01*
X68946Y-36440D01*
G37*
G36*
X69170Y-36663D02*
X69726Y-36107D01*
X69851Y-36232D01*
X69295Y-36788D01*
X69170Y-36663D01*
X69170Y-36663D01*
G37*
G36*
X69392Y-36885D02*
X69948Y-36329D01*
X70074Y-36454D01*
X69517Y-37011D01*
X69392Y-36885D01*
X69392Y-36885D01*
G37*
G36*
X69615Y-37109D02*
X70172Y-36552D01*
X70297Y-36677D01*
X69740Y-37234D01*
X69615Y-37109D01*
X69615Y-37109D01*
G37*
G36*
X69837Y-37331D02*
X70394Y-36774D01*
X70519Y-36899D01*
X69962Y-37456D01*
X69837Y-37331D01*
X69837Y-37331D01*
G37*
G36*
X70953Y-33101D02*
X71510Y-32544D01*
X71635Y-32670D01*
X71078Y-33226D01*
X70953Y-33101D01*
X70953Y-33101D01*
G37*
G36*
X71172Y-33320D02*
X71729Y-32764D01*
X71854Y-32889D01*
X71298Y-33445D01*
X71172Y-33320D01*
X71172Y-33320D01*
G37*
G36*
X71399Y-33546D02*
X71955Y-32990D01*
X72080Y-33115D01*
X71524Y-33672D01*
X71399Y-33546D01*
X71399Y-33546D01*
G37*
G36*
X71618Y-33766D02*
X72174Y-33209D01*
X72299Y-33334D01*
X71743Y-33891D01*
X71618Y-33766D01*
X71618Y-33766D01*
G37*
G36*
X71837Y-33985D02*
X72394Y-33428D01*
X72519Y-33553D01*
X71962Y-34110D01*
X71837Y-33985D01*
X71837Y-33985D01*
G37*
G36*
X72063Y-34211D02*
X72620Y-33655D01*
X72745Y-33780D01*
X72188Y-34336D01*
X72063Y-34211D01*
X72063Y-34211D01*
G37*
G36*
X72290Y-34437D02*
X72846Y-33881D01*
X72971Y-34006D01*
X72415Y-34563D01*
X72290Y-34437D01*
X72290Y-34437D01*
G37*
G36*
X72516Y-34664D02*
X73072Y-34107D01*
X73198Y-34232D01*
X72641Y-34789D01*
X72516Y-34664D01*
X72516Y-34664D01*
G37*
G36*
X64235Y-36402D02*
X64402Y-36235D01*
X64513Y-36346D01*
X64346Y-36513D01*
X64235Y-36402D01*
X64235Y-36402D01*
G37*
G36*
X64486Y-36653D02*
X64653Y-36486D01*
X64764Y-36597D01*
X64597Y-36764D01*
X64486Y-36653D01*
X64486Y-36653D01*
G37*
G36*
X64764Y-37097D02*
X64597Y-37264D01*
X64486Y-37153D01*
X64653Y-36986D01*
X64764Y-37097D01*
X64764Y-37097D01*
G37*
G36*
X64513Y-36846D02*
X64346Y-37013D01*
X64235Y-36902D01*
X64402Y-36735D01*
X64513Y-36846D01*
X64513Y-36846D01*
G37*
G54D25*
X63500Y-34823D03*
X63500Y-35177D03*
G54D13*
X67450Y-33650D03*
X67450Y-35650D03*
X67450Y-34650D03*
G54D15*
X78000Y-36000D03*
X78000Y-35000D03*
X78000Y-34000D03*
G54D26*
X69650Y-24850D03*
X65750Y-27900D03*
X65750Y-28750D03*
X64750Y-27550D03*
X68350Y-29700D03*
X68350Y-26450D03*
X67950Y-26050D03*
X68250Y-29150D03*
X67700Y-25600D03*
X70250Y-41700D03*
X74050Y-33200D03*
X75750Y-36500D03*
X71400Y-34350D03*
X63500Y-35500D03*
X70450Y-36050D03*
X69500Y-35250D03*
X76600Y-34450D03*
X70200Y-34350D03*
X64000Y-34850D03*
X71950Y-25650D03*
X67050Y-26500D03*
X71750Y-27750D03*
X77000Y-36000D03*
X70900Y-33650D03*
X63500Y-33850D03*
X66300Y-26850D03*
X66450Y-25350D03*
X70500Y-24200D03*
X74600Y-24150D03*
X66650Y-28900D03*
G54D27*
X69000Y-28500D02*
X69000Y-25500D01*
X69000Y-25500D02*
X69650Y-24850D01*
X69000Y-29750D02*
X69250Y-30000D01*
X71500Y-29500D02*
X71000Y-30000D01*
X71000Y-30000D02*
X69250Y-30000D01*
X69000Y-29750D02*
X69000Y-28500D01*
X69475Y-25025D02*
X69650Y-24850D01*
X69475Y-25025D02*
X69500Y-25000D01*
X64525Y-28250D02*
X63750Y-28250D01*
X65750Y-28750D02*
X65750Y-27900D01*
X64900Y-27850D02*
X64900Y-27700D01*
X64900Y-27700D02*
X64750Y-27550D01*
X64750Y-29500D02*
X64750Y-29050D01*
X64900Y-28900D02*
X64900Y-27850D01*
X64750Y-29050D02*
X64900Y-28900D01*
X68650Y-29350D02*
X68650Y-29400D01*
X68650Y-29400D02*
X68350Y-29700D01*
X68650Y-29350D02*
X68650Y-28950D01*
X68350Y-28650D02*
X68650Y-28950D01*
X68350Y-28650D02*
X68350Y-26450D01*
X67950Y-28850D02*
X68250Y-29150D01*
X67950Y-26050D02*
X67950Y-28850D01*
X67550Y-25750D02*
X67550Y-29500D01*
X67700Y-25600D02*
X67550Y-25750D01*
X75900Y-24400D02*
X77100Y-24400D01*
X77100Y-24400D02*
X77100Y-29600D01*
X77100Y-29600D02*
X75900Y-29600D01*
G54D28*
X72750Y-40750D02*
X72750Y-41500D01*
X72550Y-41700D02*
X70250Y-41700D01*
X72750Y-41500D02*
X72550Y-41700D01*
X69250Y-41700D02*
X70000Y-41700D01*
X70000Y-41700D02*
X70250Y-41700D01*
X63750Y-41900D02*
X63750Y-42250D01*
X63950Y-41700D02*
X63750Y-41900D01*
X69250Y-41700D02*
X63950Y-41700D01*
G54D27*
X68623Y-34445D02*
X68595Y-34445D01*
X67800Y-33650D02*
X67450Y-33650D01*
X68595Y-34445D02*
X67800Y-33650D01*
X66500Y-33001D02*
X66501Y-33001D01*
X65801Y-33001D02*
X66500Y-33001D01*
X65550Y-32750D02*
X65801Y-33001D01*
X63250Y-32000D02*
X63500Y-32000D01*
X63500Y-32000D02*
X64000Y-32500D01*
X64000Y-32500D02*
X64500Y-32500D01*
X64500Y-32500D02*
X64750Y-32750D01*
X64750Y-32750D02*
X65450Y-32750D01*
X65450Y-32750D02*
X65550Y-32750D01*
X66750Y-33250D02*
X67050Y-33250D01*
X67050Y-33250D02*
X67450Y-33650D01*
X66501Y-33001D02*
X66750Y-33250D01*
X71513Y-33104D02*
X71513Y-33086D01*
X72250Y-32350D02*
X72250Y-32000D01*
X71513Y-33086D02*
X72250Y-32350D01*
X71739Y-33331D02*
X71739Y-33310D01*
X72800Y-32450D02*
X73250Y-32000D01*
X72600Y-32450D02*
X72800Y-32450D01*
X71739Y-33310D02*
X72600Y-32450D01*
X71959Y-33550D02*
X71959Y-33540D01*
X73500Y-32750D02*
X74250Y-32000D01*
X72750Y-32750D02*
X73500Y-32750D01*
X71959Y-33540D02*
X72750Y-32750D01*
X74200Y-33050D02*
X74050Y-33200D01*
X75250Y-32000D02*
X74200Y-33050D01*
X72178Y-33769D02*
X72180Y-33769D01*
X72180Y-33769D02*
X72900Y-33050D01*
X72900Y-33050D02*
X74200Y-33050D01*
X74250Y-33600D02*
X74650Y-33600D01*
X74650Y-33600D02*
X76250Y-32000D01*
X72404Y-33995D02*
X72404Y-33995D01*
X72404Y-33995D02*
X72800Y-33600D01*
X72800Y-33600D02*
X74250Y-33600D01*
X72630Y-34222D02*
X72630Y-34219D01*
X72630Y-34219D02*
X72950Y-33900D01*
X72950Y-33900D02*
X75350Y-33900D01*
X75350Y-33900D02*
X77250Y-32000D01*
X72630Y-34219D02*
X72950Y-33900D01*
X78000Y-35000D02*
X76500Y-35000D01*
X76500Y-35000D02*
X76000Y-34500D01*
X78250Y-32000D02*
X78250Y-32250D01*
X78250Y-32250D02*
X76000Y-34500D01*
X72857Y-34448D02*
X72948Y-34448D01*
X72948Y-34448D02*
X73000Y-34500D01*
X73000Y-34500D02*
X76000Y-34500D01*
X72850Y-35544D02*
X72850Y-35550D01*
X76300Y-36050D02*
X76750Y-36500D01*
X76750Y-36500D02*
X78250Y-38000D01*
X73350Y-36050D02*
X76300Y-36050D01*
X72850Y-35550D02*
X73350Y-36050D01*
X75600Y-36350D02*
X75750Y-36500D01*
X75750Y-36500D02*
X77250Y-38000D01*
X72623Y-35770D02*
X72623Y-35773D01*
X73200Y-36350D02*
X75600Y-36350D01*
X72623Y-35773D02*
X73200Y-36350D01*
X72397Y-35997D02*
X72397Y-35997D01*
X74900Y-36650D02*
X76250Y-38000D01*
X73050Y-36650D02*
X74900Y-36650D01*
X72397Y-35997D02*
X73050Y-36650D01*
X67450Y-35650D02*
X68050Y-35650D01*
X68050Y-35650D02*
X68700Y-35000D01*
X68845Y-34222D02*
X68872Y-34222D01*
X69150Y-35000D02*
X68700Y-35000D01*
X69300Y-34850D02*
X69150Y-35000D01*
X69300Y-34650D02*
X69300Y-34850D01*
X68872Y-34222D02*
X69300Y-34650D01*
X64250Y-32000D02*
X64550Y-32000D01*
X67872Y-33250D02*
X68845Y-34222D01*
X67742Y-33250D02*
X67872Y-33250D01*
X67469Y-32976D02*
X67742Y-33250D01*
X66869Y-32976D02*
X67469Y-32976D01*
X66644Y-32751D02*
X66869Y-32976D01*
X65948Y-32751D02*
X66644Y-32751D01*
X65648Y-32451D02*
X65948Y-32751D01*
X65001Y-32451D02*
X65648Y-32451D01*
X64550Y-32000D02*
X65001Y-32451D01*
X72178Y-36216D02*
X72216Y-36216D01*
X74200Y-36950D02*
X75250Y-38000D01*
X72950Y-36950D02*
X74200Y-36950D01*
X72216Y-36216D02*
X72950Y-36950D01*
X71952Y-36442D02*
X71992Y-36442D01*
X73500Y-37250D02*
X74250Y-38000D01*
X72800Y-37250D02*
X73500Y-37250D01*
X71992Y-36442D02*
X72800Y-37250D01*
X71732Y-36661D02*
X71761Y-36661D01*
X72750Y-37500D02*
X73250Y-38000D01*
X72600Y-37500D02*
X72750Y-37500D01*
X71761Y-36661D02*
X72600Y-37500D01*
X71506Y-36887D02*
X71537Y-36887D01*
X72250Y-37600D02*
X72250Y-38000D01*
X71537Y-36887D02*
X72250Y-37600D01*
X71287Y-37107D02*
X71287Y-37087D01*
X70950Y-34800D02*
X71400Y-34350D01*
X70950Y-36750D02*
X70950Y-34800D01*
X71287Y-37087D02*
X70950Y-36750D01*
X71250Y-38000D02*
X71250Y-37144D01*
X71250Y-37144D02*
X71287Y-37107D01*
X70250Y-38000D02*
X70250Y-37187D01*
X70250Y-37187D02*
X70178Y-37115D01*
X69250Y-38000D02*
X69500Y-37750D01*
X69500Y-37350D02*
X69956Y-36893D01*
X69500Y-37750D02*
X69500Y-37350D01*
X68250Y-38000D02*
X68403Y-38000D01*
X68403Y-38000D02*
X69733Y-36670D01*
X63500Y-35177D02*
X63500Y-35500D01*
X69511Y-36448D02*
X69511Y-36488D01*
X68000Y-37250D02*
X67250Y-38000D01*
X68750Y-37250D02*
X68000Y-37250D01*
X69511Y-36488D02*
X68750Y-37250D01*
X69287Y-36224D02*
X69287Y-36212D01*
X69287Y-36212D02*
X69700Y-35800D01*
X70200Y-35800D02*
X70450Y-36050D01*
X69700Y-35800D02*
X70200Y-35800D01*
X66250Y-38000D02*
X66550Y-38000D01*
X66550Y-38000D02*
X67026Y-37523D01*
X67026Y-37523D02*
X67373Y-37523D01*
X67373Y-37523D02*
X67896Y-36999D01*
X67896Y-36999D02*
X68512Y-36999D01*
X68512Y-36999D02*
X69287Y-36224D01*
X69287Y-36212D02*
X69287Y-36224D01*
X69450Y-35600D02*
X69450Y-35300D01*
X69065Y-35984D02*
X69450Y-35600D01*
X69065Y-36002D02*
X69065Y-35984D01*
X69450Y-35300D02*
X69500Y-35250D01*
X65250Y-38000D02*
X65500Y-38000D01*
X68318Y-36749D02*
X69065Y-36002D01*
X67792Y-36749D02*
X68318Y-36749D01*
X67269Y-37273D02*
X67792Y-36749D01*
X66923Y-37273D02*
X67269Y-37273D01*
X66696Y-37500D02*
X66923Y-37273D01*
X66000Y-37500D02*
X66696Y-37500D01*
X65500Y-38000D02*
X66000Y-37500D01*
X69097Y-36002D02*
X69065Y-36002D01*
X64950Y-37500D02*
X64700Y-37250D01*
X64700Y-37200D02*
X64625Y-37125D01*
X64700Y-37250D02*
X64700Y-37200D01*
X64250Y-38000D02*
X64450Y-38000D01*
X68121Y-36499D02*
X68842Y-35779D01*
X67689Y-36499D02*
X68121Y-36499D01*
X67166Y-37023D02*
X67689Y-36499D01*
X66819Y-37023D02*
X67166Y-37023D01*
X66592Y-37249D02*
X66819Y-37023D01*
X65896Y-37249D02*
X66592Y-37249D01*
X65646Y-37500D02*
X65896Y-37249D01*
X64950Y-37500D02*
X65646Y-37500D01*
X64450Y-38000D02*
X64950Y-37500D01*
X68870Y-35750D02*
X68842Y-35779D01*
X68870Y-35729D02*
X68870Y-35750D01*
X64374Y-36874D02*
X64375Y-36874D01*
X64375Y-36874D02*
X64625Y-36625D01*
X68620Y-35557D02*
X68592Y-35557D01*
X68592Y-35557D02*
X67950Y-36200D01*
X67950Y-36200D02*
X67600Y-36200D01*
X67600Y-36200D02*
X67050Y-36750D01*
X67050Y-36750D02*
X66700Y-36750D01*
X66700Y-36750D02*
X66500Y-36950D01*
X66500Y-36950D02*
X64950Y-36950D01*
X64950Y-36950D02*
X64625Y-36625D01*
X64374Y-36874D02*
X64374Y-36875D01*
X64374Y-36875D02*
X64000Y-37250D01*
X64000Y-37250D02*
X63250Y-38000D01*
X77050Y-34000D02*
X76600Y-34450D01*
X78000Y-34000D02*
X77050Y-34000D01*
X69291Y-33777D02*
X69327Y-33777D01*
X69900Y-34350D02*
X70200Y-34350D01*
X69327Y-33777D02*
X69900Y-34350D01*
X66250Y-32000D02*
X66600Y-32000D01*
X66600Y-32000D02*
X67076Y-32476D01*
X67076Y-32476D02*
X67676Y-32476D01*
X67676Y-32476D02*
X67950Y-32750D01*
X67950Y-32750D02*
X68263Y-32750D01*
X68263Y-32750D02*
X69291Y-33777D01*
X64000Y-36000D02*
X64000Y-35250D01*
X64000Y-34850D02*
X64000Y-35250D01*
X64374Y-36374D02*
X64000Y-36000D01*
X67250Y-32000D02*
X67600Y-32000D01*
X68459Y-32500D02*
X69513Y-33554D01*
X68100Y-32500D02*
X68459Y-32500D01*
X67600Y-32000D02*
X68100Y-32500D01*
X68250Y-32000D02*
X68404Y-32000D01*
X68404Y-32000D02*
X69736Y-33331D01*
X69250Y-32000D02*
X69600Y-32350D01*
X69600Y-32749D02*
X69959Y-33109D01*
X69600Y-32350D02*
X69600Y-32749D01*
X70250Y-32000D02*
X70250Y-32818D01*
X70250Y-32818D02*
X70182Y-32886D01*
X71250Y-32000D02*
X71250Y-32841D01*
X71250Y-32841D02*
X71294Y-32885D01*
X71750Y-27750D02*
X71750Y-25850D01*
X71750Y-25850D02*
X71950Y-25650D01*
X67050Y-26075D02*
X67050Y-26500D01*
X71000Y-27875D02*
X71625Y-27875D01*
X71625Y-27875D02*
X71750Y-27750D01*
X67050Y-26075D02*
X66075Y-26075D01*
X66075Y-26075D02*
X65600Y-25600D01*
X63750Y-29500D02*
X63650Y-29500D01*
X63100Y-27350D02*
X63400Y-27050D01*
X63100Y-28950D02*
X63100Y-27350D01*
X63650Y-29500D02*
X63100Y-28950D01*
G54D29*
X65000Y-24500D02*
X65600Y-25100D01*
X65350Y-26750D02*
X64500Y-26750D01*
X65600Y-26500D02*
X65350Y-26750D01*
X65600Y-25100D02*
X65600Y-25600D01*
X65600Y-25600D02*
X65600Y-26500D01*
G54D27*
X69068Y-34000D02*
X69068Y-34018D01*
X69068Y-34018D02*
X70050Y-35000D01*
X70900Y-34450D02*
X70900Y-33650D01*
X70350Y-35000D02*
X70900Y-34450D01*
X70050Y-35000D02*
X70350Y-35000D01*
X77000Y-36000D02*
X78000Y-36000D01*
X65250Y-32000D02*
X65550Y-32000D01*
X68068Y-33000D02*
X69068Y-34000D01*
X67846Y-33000D02*
X68068Y-33000D01*
X67573Y-32726D02*
X67846Y-33000D01*
X66973Y-32726D02*
X67573Y-32726D01*
X66748Y-32501D02*
X66973Y-32726D01*
X66051Y-32501D02*
X66748Y-32501D01*
X65550Y-32000D02*
X66051Y-32501D01*
X69068Y-34000D02*
X69068Y-34018D01*
X63500Y-34823D02*
X63500Y-33850D01*
G54D28*
X70250Y-40750D02*
X71750Y-40750D01*
G54D27*
X70000Y-28625D02*
X70000Y-29000D01*
X70000Y-29000D02*
X70500Y-29500D01*
X70000Y-28625D02*
X71000Y-28625D01*
X65275Y-28250D02*
X65275Y-27575D01*
X66000Y-26850D02*
X66300Y-26850D01*
X65275Y-27575D02*
X66000Y-26850D01*
X67050Y-25325D02*
X66475Y-25325D01*
X66475Y-25325D02*
X66450Y-25350D01*
X69900Y-27250D02*
X69900Y-27775D01*
X69900Y-27775D02*
X70000Y-27875D01*
X69900Y-27275D02*
X69900Y-27250D01*
X69900Y-27250D02*
X69900Y-25600D01*
X70500Y-25000D02*
X70500Y-24200D01*
X69900Y-25600D02*
X70500Y-25000D01*
X67050Y-25325D02*
X67050Y-24450D01*
X67300Y-24200D02*
X70500Y-24200D01*
X67050Y-24450D02*
X67300Y-24200D01*
X74550Y-24200D02*
X70500Y-24200D01*
X74600Y-24150D02*
X74550Y-24200D01*
X65750Y-29500D02*
X66050Y-29500D01*
X66050Y-29500D02*
X66650Y-28900D01*
G54D10*
G36*
X69576Y-29505D02*
X69505Y-29576D01*
X69500Y-29570D01*
X69494Y-29576D01*
X69423Y-29505D01*
X69429Y-29500D01*
X69423Y-29494D01*
X69494Y-29423D01*
X69500Y-29429D01*
X69505Y-29423D01*
X69576Y-29494D01*
X69570Y-29500D01*
X69576Y-29505D01*
X69576Y-29505D01*
G37*
G54D30*
X69576Y-29505D02*
X69505Y-29576D01*
X69500Y-29570D01*
X69494Y-29576D01*
X69423Y-29505D01*
X69429Y-29500D01*
X69423Y-29494D01*
X69494Y-29423D01*
X69500Y-29429D01*
X69505Y-29423D01*
X69576Y-29494D01*
X69570Y-29500D01*
X69576Y-29505D01*
G54D10*
G36*
X74407Y-23769D02*
X74359Y-23789D01*
X74273Y-23875D01*
X70776Y-23875D01*
X70741Y-23839D01*
X70584Y-23775D01*
X70415Y-23774D01*
X70259Y-23839D01*
X70224Y-23875D01*
X67300Y-23875D01*
X67300Y-23874D01*
X67175Y-23899D01*
X67070Y-23970D01*
X67070Y-23970D01*
X66820Y-24220D01*
X66749Y-24325D01*
X66725Y-24450D01*
X66725Y-24900D01*
X66633Y-24938D01*
X66613Y-24957D01*
X66534Y-24925D01*
X66365Y-24924D01*
X66209Y-24989D01*
X66089Y-25108D01*
X66025Y-25265D01*
X66024Y-25434D01*
X66089Y-25590D01*
X66208Y-25710D01*
X66365Y-25774D01*
X66534Y-25775D01*
X66560Y-25764D01*
X66525Y-25850D01*
X66525Y-25962D01*
X66587Y-26025D01*
X67000Y-26025D01*
X67000Y-26017D01*
X67100Y-26017D01*
X67100Y-26025D01*
X67107Y-26025D01*
X67107Y-26125D01*
X67100Y-26125D01*
X67100Y-26437D01*
X67162Y-26500D01*
X67225Y-26500D01*
X67225Y-28900D01*
X67150Y-28900D01*
X67074Y-28931D01*
X67075Y-28815D01*
X67010Y-28659D01*
X67000Y-28649D01*
X67000Y-26437D01*
X67000Y-26125D01*
X66587Y-26125D01*
X66525Y-26187D01*
X66525Y-26299D01*
X66563Y-26391D01*
X66633Y-26461D01*
X66725Y-26500D01*
X66824Y-26500D01*
X66937Y-26500D01*
X67000Y-26437D01*
X67000Y-28649D01*
X66891Y-28539D01*
X66734Y-28475D01*
X66565Y-28474D01*
X66409Y-28539D01*
X66289Y-28658D01*
X66225Y-28815D01*
X66225Y-28865D01*
X66178Y-28911D01*
X66149Y-28900D01*
X66147Y-28900D01*
X66174Y-28834D01*
X66175Y-28665D01*
X66110Y-28509D01*
X66075Y-28474D01*
X66075Y-28176D01*
X66110Y-28141D01*
X66174Y-27984D01*
X66175Y-27815D01*
X66110Y-27659D01*
X65991Y-27539D01*
X65834Y-27475D01*
X65834Y-27475D01*
X66087Y-27221D01*
X66215Y-27274D01*
X66384Y-27275D01*
X66540Y-27210D01*
X66660Y-27091D01*
X66724Y-26934D01*
X66725Y-26765D01*
X66660Y-26609D01*
X66541Y-26489D01*
X66384Y-26425D01*
X66215Y-26424D01*
X66059Y-26489D01*
X66024Y-26525D01*
X66000Y-26525D01*
X65875Y-26549D01*
X65833Y-26577D01*
X65770Y-26620D01*
X65770Y-26620D01*
X65095Y-27294D01*
X64991Y-27189D01*
X64834Y-27125D01*
X64665Y-27124D01*
X64509Y-27189D01*
X64389Y-27308D01*
X64325Y-27465D01*
X64324Y-27634D01*
X64362Y-27725D01*
X64300Y-27725D01*
X64284Y-27731D01*
X64241Y-27688D01*
X64149Y-27650D01*
X64050Y-27650D01*
X63350Y-27650D01*
X63258Y-27688D01*
X63188Y-27758D01*
X63150Y-27850D01*
X63150Y-27949D01*
X63150Y-28649D01*
X63188Y-28741D01*
X63258Y-28811D01*
X63350Y-28850D01*
X63449Y-28850D01*
X64149Y-28850D01*
X64241Y-28811D01*
X64284Y-28768D01*
X64300Y-28775D01*
X64399Y-28775D01*
X64565Y-28775D01*
X64520Y-28820D01*
X64466Y-28900D01*
X64350Y-28900D01*
X64258Y-28938D01*
X64250Y-28946D01*
X64241Y-28938D01*
X64149Y-28900D01*
X63862Y-28900D01*
X63800Y-28962D01*
X63800Y-29450D01*
X63807Y-29450D01*
X63807Y-29550D01*
X63800Y-29550D01*
X63800Y-30037D01*
X63862Y-30100D01*
X64149Y-30100D01*
X64241Y-30061D01*
X64249Y-30053D01*
X64258Y-30061D01*
X64350Y-30100D01*
X64449Y-30100D01*
X65149Y-30100D01*
X65241Y-30061D01*
X65249Y-30053D01*
X65258Y-30061D01*
X65350Y-30100D01*
X65449Y-30100D01*
X66149Y-30100D01*
X66241Y-30061D01*
X66311Y-29991D01*
X66350Y-29899D01*
X66350Y-29800D01*
X66350Y-29659D01*
X66684Y-29325D01*
X66734Y-29325D01*
X66890Y-29260D01*
X66950Y-29201D01*
X66950Y-29899D01*
X66988Y-29991D01*
X67058Y-30061D01*
X67150Y-30100D01*
X67249Y-30100D01*
X67949Y-30100D01*
X68041Y-30061D01*
X68076Y-30027D01*
X68108Y-30060D01*
X68265Y-30124D01*
X68434Y-30125D01*
X68590Y-30060D01*
X68710Y-29941D01*
X68723Y-29909D01*
X68770Y-29979D01*
X69020Y-30229D01*
X69020Y-30229D01*
X69020Y-30229D01*
X69020Y-30230D01*
X63776Y-30230D01*
X63472Y-30169D01*
X63368Y-30100D01*
X63637Y-30100D01*
X63700Y-30037D01*
X63700Y-29550D01*
X63700Y-29450D01*
X63700Y-28962D01*
X63637Y-28900D01*
X63350Y-28900D01*
X63258Y-28938D01*
X63188Y-29008D01*
X63150Y-29100D01*
X63150Y-29199D01*
X63150Y-29387D01*
X63212Y-29450D01*
X63700Y-29450D01*
X63700Y-29550D01*
X63212Y-29550D01*
X63150Y-29612D01*
X63150Y-29800D01*
X63150Y-29881D01*
X63080Y-29777D01*
X63019Y-29473D01*
X63019Y-26800D01*
X64300Y-26800D01*
X64300Y-26316D01*
X64380Y-26349D01*
X64618Y-26350D01*
X64740Y-26300D01*
X65300Y-26300D01*
X65300Y-24950D01*
X64399Y-24950D01*
X64400Y-24949D01*
X64400Y-24850D01*
X64400Y-24050D01*
X64361Y-23958D01*
X64300Y-23896D01*
X64300Y-23769D01*
X74407Y-23769D01*
X74407Y-23769D01*
G37*
G54D30*
X74407Y-23769D02*
X74359Y-23789D01*
X74273Y-23875D01*
X70776Y-23875D01*
X70741Y-23839D01*
X70584Y-23775D01*
X70415Y-23774D01*
X70259Y-23839D01*
X70224Y-23875D01*
X67300Y-23875D01*
X67300Y-23874D01*
X67175Y-23899D01*
X67070Y-23970D01*
X67070Y-23970D01*
X66820Y-24220D01*
X66749Y-24325D01*
X66725Y-24450D01*
X66725Y-24900D01*
X66633Y-24938D01*
X66613Y-24957D01*
X66534Y-24925D01*
X66365Y-24924D01*
X66209Y-24989D01*
X66089Y-25108D01*
X66025Y-25265D01*
X66024Y-25434D01*
X66089Y-25590D01*
X66208Y-25710D01*
X66365Y-25774D01*
X66534Y-25775D01*
X66560Y-25764D01*
X66525Y-25850D01*
X66525Y-25962D01*
X66587Y-26025D01*
X67000Y-26025D01*
X67000Y-26017D01*
X67100Y-26017D01*
X67100Y-26025D01*
X67107Y-26025D01*
X67107Y-26125D01*
X67100Y-26125D01*
X67100Y-26437D01*
X67162Y-26500D01*
X67225Y-26500D01*
X67225Y-28900D01*
X67150Y-28900D01*
X67074Y-28931D01*
X67075Y-28815D01*
X67010Y-28659D01*
X67000Y-28649D01*
X67000Y-26437D01*
X67000Y-26125D01*
X66587Y-26125D01*
X66525Y-26187D01*
X66525Y-26299D01*
X66563Y-26391D01*
X66633Y-26461D01*
X66725Y-26500D01*
X66824Y-26500D01*
X66937Y-26500D01*
X67000Y-26437D01*
X67000Y-28649D01*
X66891Y-28539D01*
X66734Y-28475D01*
X66565Y-28474D01*
X66409Y-28539D01*
X66289Y-28658D01*
X66225Y-28815D01*
X66225Y-28865D01*
X66178Y-28911D01*
X66149Y-28900D01*
X66147Y-28900D01*
X66174Y-28834D01*
X66175Y-28665D01*
X66110Y-28509D01*
X66075Y-28474D01*
X66075Y-28176D01*
X66110Y-28141D01*
X66174Y-27984D01*
X66175Y-27815D01*
X66110Y-27659D01*
X65991Y-27539D01*
X65834Y-27475D01*
X65834Y-27475D01*
X66087Y-27221D01*
X66215Y-27274D01*
X66384Y-27275D01*
X66540Y-27210D01*
X66660Y-27091D01*
X66724Y-26934D01*
X66725Y-26765D01*
X66660Y-26609D01*
X66541Y-26489D01*
X66384Y-26425D01*
X66215Y-26424D01*
X66059Y-26489D01*
X66024Y-26525D01*
X66000Y-26525D01*
X65875Y-26549D01*
X65833Y-26577D01*
X65770Y-26620D01*
X65770Y-26620D01*
X65095Y-27294D01*
X64991Y-27189D01*
X64834Y-27125D01*
X64665Y-27124D01*
X64509Y-27189D01*
X64389Y-27308D01*
X64325Y-27465D01*
X64324Y-27634D01*
X64362Y-27725D01*
X64300Y-27725D01*
X64284Y-27731D01*
X64241Y-27688D01*
X64149Y-27650D01*
X64050Y-27650D01*
X63350Y-27650D01*
X63258Y-27688D01*
X63188Y-27758D01*
X63150Y-27850D01*
X63150Y-27949D01*
X63150Y-28649D01*
X63188Y-28741D01*
X63258Y-28811D01*
X63350Y-28850D01*
X63449Y-28850D01*
X64149Y-28850D01*
X64241Y-28811D01*
X64284Y-28768D01*
X64300Y-28775D01*
X64399Y-28775D01*
X64565Y-28775D01*
X64520Y-28820D01*
X64466Y-28900D01*
X64350Y-28900D01*
X64258Y-28938D01*
X64250Y-28946D01*
X64241Y-28938D01*
X64149Y-28900D01*
X63862Y-28900D01*
X63800Y-28962D01*
X63800Y-29450D01*
X63807Y-29450D01*
X63807Y-29550D01*
X63800Y-29550D01*
X63800Y-30037D01*
X63862Y-30100D01*
X64149Y-30100D01*
X64241Y-30061D01*
X64249Y-30053D01*
X64258Y-30061D01*
X64350Y-30100D01*
X64449Y-30100D01*
X65149Y-30100D01*
X65241Y-30061D01*
X65249Y-30053D01*
X65258Y-30061D01*
X65350Y-30100D01*
X65449Y-30100D01*
X66149Y-30100D01*
X66241Y-30061D01*
X66311Y-29991D01*
X66350Y-29899D01*
X66350Y-29800D01*
X66350Y-29659D01*
X66684Y-29325D01*
X66734Y-29325D01*
X66890Y-29260D01*
X66950Y-29201D01*
X66950Y-29899D01*
X66988Y-29991D01*
X67058Y-30061D01*
X67150Y-30100D01*
X67249Y-30100D01*
X67949Y-30100D01*
X68041Y-30061D01*
X68076Y-30027D01*
X68108Y-30060D01*
X68265Y-30124D01*
X68434Y-30125D01*
X68590Y-30060D01*
X68710Y-29941D01*
X68723Y-29909D01*
X68770Y-29979D01*
X69020Y-30229D01*
X69020Y-30229D01*
X69020Y-30229D01*
X69020Y-30230D01*
X63776Y-30230D01*
X63472Y-30169D01*
X63368Y-30100D01*
X63637Y-30100D01*
X63700Y-30037D01*
X63700Y-29550D01*
X63700Y-29450D01*
X63700Y-28962D01*
X63637Y-28900D01*
X63350Y-28900D01*
X63258Y-28938D01*
X63188Y-29008D01*
X63150Y-29100D01*
X63150Y-29199D01*
X63150Y-29387D01*
X63212Y-29450D01*
X63700Y-29450D01*
X63700Y-29550D01*
X63212Y-29550D01*
X63150Y-29612D01*
X63150Y-29800D01*
X63150Y-29881D01*
X63080Y-29777D01*
X63019Y-29473D01*
X63019Y-26800D01*
X64300Y-26800D01*
X64300Y-26316D01*
X64380Y-26349D01*
X64618Y-26350D01*
X64740Y-26300D01*
X65300Y-26300D01*
X65300Y-24950D01*
X64399Y-24950D01*
X64400Y-24949D01*
X64400Y-24850D01*
X64400Y-24050D01*
X64361Y-23958D01*
X64300Y-23896D01*
X64300Y-23769D01*
X74407Y-23769D01*
G54D10*
G36*
X76775Y-28976D02*
X76704Y-29006D01*
X76506Y-29202D01*
X76500Y-29219D01*
X76493Y-29204D01*
X76297Y-29006D01*
X76039Y-28900D01*
X75761Y-28899D01*
X75504Y-29006D01*
X75306Y-29202D01*
X75200Y-29460D01*
X75199Y-29738D01*
X75306Y-29996D01*
X75502Y-30193D01*
X75592Y-30230D01*
X73800Y-30230D01*
X71229Y-30230D01*
X71229Y-30229D01*
X71434Y-30025D01*
X71824Y-30025D01*
X71916Y-29986D01*
X71986Y-29916D01*
X72025Y-29824D01*
X72025Y-29725D01*
X72025Y-29175D01*
X71986Y-29083D01*
X71916Y-29013D01*
X71824Y-28975D01*
X71725Y-28975D01*
X71453Y-28975D01*
X71486Y-28941D01*
X71525Y-28849D01*
X71525Y-28750D01*
X71525Y-28400D01*
X71486Y-28308D01*
X71478Y-28300D01*
X73800Y-28300D01*
X73800Y-24950D01*
X70950Y-24950D01*
X70950Y-26450D01*
X70225Y-26450D01*
X70225Y-25734D01*
X70729Y-25229D01*
X70729Y-25229D01*
X70729Y-25229D01*
X70800Y-25124D01*
X70800Y-25124D01*
X70825Y-25000D01*
X70825Y-24525D01*
X74394Y-24525D01*
X74515Y-24574D01*
X74684Y-24575D01*
X74840Y-24510D01*
X74960Y-24391D01*
X75024Y-24234D01*
X75025Y-24065D01*
X74960Y-23909D01*
X74841Y-23789D01*
X74792Y-23769D01*
X75592Y-23769D01*
X75504Y-23806D01*
X75306Y-24002D01*
X75200Y-24260D01*
X75199Y-24538D01*
X75306Y-24796D01*
X75502Y-24993D01*
X75760Y-25099D01*
X76038Y-25100D01*
X76296Y-24993D01*
X76493Y-24797D01*
X76499Y-24780D01*
X76506Y-24796D01*
X76702Y-24993D01*
X76775Y-25022D01*
X76775Y-28976D01*
X76775Y-28976D01*
G37*
G54D30*
X76775Y-28976D02*
X76704Y-29006D01*
X76506Y-29202D01*
X76500Y-29219D01*
X76493Y-29204D01*
X76297Y-29006D01*
X76039Y-28900D01*
X75761Y-28899D01*
X75504Y-29006D01*
X75306Y-29202D01*
X75200Y-29460D01*
X75199Y-29738D01*
X75306Y-29996D01*
X75502Y-30193D01*
X75592Y-30230D01*
X73800Y-30230D01*
X71229Y-30230D01*
X71229Y-30229D01*
X71434Y-30025D01*
X71824Y-30025D01*
X71916Y-29986D01*
X71986Y-29916D01*
X72025Y-29824D01*
X72025Y-29725D01*
X72025Y-29175D01*
X71986Y-29083D01*
X71916Y-29013D01*
X71824Y-28975D01*
X71725Y-28975D01*
X71453Y-28975D01*
X71486Y-28941D01*
X71525Y-28849D01*
X71525Y-28750D01*
X71525Y-28400D01*
X71486Y-28308D01*
X71478Y-28300D01*
X73800Y-28300D01*
X73800Y-24950D01*
X70950Y-24950D01*
X70950Y-26450D01*
X70225Y-26450D01*
X70225Y-25734D01*
X70729Y-25229D01*
X70729Y-25229D01*
X70729Y-25229D01*
X70800Y-25124D01*
X70800Y-25124D01*
X70825Y-25000D01*
X70825Y-24525D01*
X74394Y-24525D01*
X74515Y-24574D01*
X74684Y-24575D01*
X74840Y-24510D01*
X74960Y-24391D01*
X75024Y-24234D01*
X75025Y-24065D01*
X74960Y-23909D01*
X74841Y-23789D01*
X74792Y-23769D01*
X75592Y-23769D01*
X75504Y-23806D01*
X75306Y-24002D01*
X75200Y-24260D01*
X75199Y-24538D01*
X75306Y-24796D01*
X75502Y-24993D01*
X75760Y-25099D01*
X76038Y-25100D01*
X76296Y-24993D01*
X76493Y-24797D01*
X76499Y-24780D01*
X76506Y-24796D01*
X76702Y-24993D01*
X76775Y-25022D01*
X76775Y-28976D01*
G54D10*
G36*
X73450Y-27950D02*
X70525Y-27950D01*
X70525Y-27650D01*
X70486Y-27558D01*
X70416Y-27488D01*
X70324Y-27450D01*
X70225Y-27450D01*
X70225Y-27450D01*
X70225Y-27275D01*
X70225Y-27250D01*
X70225Y-26800D01*
X71300Y-26800D01*
X71300Y-25300D01*
X73450Y-25300D01*
X73450Y-27950D01*
X73450Y-27950D01*
G37*
G54D30*
X73450Y-27950D02*
X70525Y-27950D01*
X70525Y-27650D01*
X70486Y-27558D01*
X70416Y-27488D01*
X70324Y-27450D01*
X70225Y-27450D01*
X70225Y-27450D01*
X70225Y-27275D01*
X70225Y-27250D01*
X70225Y-26800D01*
X71300Y-26800D01*
X71300Y-25300D01*
X73450Y-25300D01*
X73450Y-27950D01*
G54D10*
G36*
X64700Y-25950D02*
X63950Y-25950D01*
X63950Y-26450D01*
X63019Y-26450D01*
X63019Y-24526D01*
X63080Y-24222D01*
X63237Y-23987D01*
X63472Y-23830D01*
X63776Y-23769D01*
X63950Y-23769D01*
X63950Y-25300D01*
X64700Y-25300D01*
X64700Y-25950D01*
X64700Y-25950D01*
G37*
G54D30*
X64700Y-25950D02*
X63950Y-25950D01*
X63950Y-26450D01*
X63019Y-26450D01*
X63019Y-24526D01*
X63080Y-24222D01*
X63237Y-23987D01*
X63472Y-23830D01*
X63776Y-23769D01*
X63950Y-23769D01*
X63950Y-25300D01*
X64700Y-25300D01*
X64700Y-25950D01*
G54D10*
G36*
X65305Y-32005D02*
X65255Y-32055D01*
X65250Y-32049D01*
X65244Y-32055D01*
X65194Y-32005D01*
X65200Y-32000D01*
X65194Y-31994D01*
X65244Y-31944D01*
X65250Y-31950D01*
X65255Y-31944D01*
X65305Y-31994D01*
X65299Y-32000D01*
X65305Y-32005D01*
X65305Y-32005D01*
G37*
G54D31*
X65305Y-32005D02*
X65255Y-32055D01*
X65250Y-32049D01*
X65244Y-32055D01*
X65194Y-32005D01*
X65200Y-32000D01*
X65194Y-31994D01*
X65244Y-31944D01*
X65250Y-31950D01*
X65255Y-31944D01*
X65305Y-31994D01*
X65299Y-32000D01*
X65305Y-32005D01*
G54D10*
G36*
X68554Y-34778D02*
X68509Y-34809D01*
X68509Y-34809D01*
X68017Y-35300D01*
X68017Y-34750D01*
X68012Y-34525D01*
X67935Y-34340D01*
X67834Y-34315D01*
X67499Y-34650D01*
X67834Y-34984D01*
X67935Y-34959D01*
X68017Y-34750D01*
X68017Y-35300D01*
X67938Y-35380D01*
X67874Y-35380D01*
X67869Y-35369D01*
X67730Y-35230D01*
X67630Y-35189D01*
X67759Y-35135D01*
X67784Y-35034D01*
X67450Y-34699D01*
X67400Y-34748D01*
X67400Y-34650D01*
X67065Y-34315D01*
X66964Y-34340D01*
X66882Y-34549D01*
X66887Y-34774D01*
X66964Y-34959D01*
X67065Y-34984D01*
X67400Y-34650D01*
X67400Y-34748D01*
X67115Y-35034D01*
X67140Y-35135D01*
X67273Y-35187D01*
X67169Y-35230D01*
X67030Y-35369D01*
X66955Y-35551D01*
X66954Y-35748D01*
X67030Y-35930D01*
X67169Y-36069D01*
X67296Y-36122D01*
X66938Y-36480D01*
X66700Y-36480D01*
X66596Y-36500D01*
X66509Y-36559D01*
X66509Y-36559D01*
X66388Y-36680D01*
X65061Y-36680D01*
X64959Y-36577D01*
X64959Y-36558D01*
X64929Y-36486D01*
X64874Y-36432D01*
X64763Y-36320D01*
X64703Y-36296D01*
X64679Y-36236D01*
X64674Y-36231D01*
X64795Y-36181D01*
X64900Y-36076D01*
X64956Y-35940D01*
X64957Y-35792D01*
X64957Y-34060D01*
X64900Y-33923D01*
X64795Y-33818D01*
X64659Y-33762D01*
X64511Y-33761D01*
X64374Y-33818D01*
X64269Y-33923D01*
X64213Y-34059D01*
X64212Y-34207D01*
X64269Y-34344D01*
X64374Y-34449D01*
X64510Y-34505D01*
X64658Y-34506D01*
X64795Y-34449D01*
X64900Y-34344D01*
X64956Y-34208D01*
X64957Y-34060D01*
X64957Y-35792D01*
X64900Y-35655D01*
X64795Y-35550D01*
X64659Y-35494D01*
X64511Y-35493D01*
X64374Y-35550D01*
X64270Y-35654D01*
X64270Y-35250D01*
X64270Y-35103D01*
X64313Y-35059D01*
X64369Y-34923D01*
X64370Y-34776D01*
X64313Y-34640D01*
X64209Y-34536D01*
X64073Y-34480D01*
X63926Y-34479D01*
X63790Y-34536D01*
X63787Y-34539D01*
X63768Y-34519D01*
X63670Y-34479D01*
X63565Y-34479D01*
X63601Y-34479D01*
X63535Y-34545D01*
X63535Y-34788D01*
X63542Y-34788D01*
X63542Y-34858D01*
X63535Y-34858D01*
X63535Y-34865D01*
X63465Y-34865D01*
X63465Y-34858D01*
X63465Y-34788D01*
X63465Y-34545D01*
X63398Y-34479D01*
X63434Y-34479D01*
X63329Y-34479D01*
X63231Y-34519D01*
X63157Y-34594D01*
X63116Y-34692D01*
X63117Y-34721D01*
X63183Y-34788D01*
X63465Y-34788D01*
X63465Y-34858D01*
X63183Y-34858D01*
X63117Y-34924D01*
X63116Y-34953D01*
X63157Y-35051D01*
X63187Y-35081D01*
X63186Y-35137D01*
X63186Y-35289D01*
X63186Y-35290D01*
X63130Y-35426D01*
X63129Y-35573D01*
X63186Y-35709D01*
X63290Y-35813D01*
X63426Y-35869D01*
X63573Y-35870D01*
X63709Y-35813D01*
X63730Y-35793D01*
X63730Y-36000D01*
X63750Y-36103D01*
X63809Y-36190D01*
X64040Y-36422D01*
X64040Y-36441D01*
X64070Y-36513D01*
X64125Y-36567D01*
X64210Y-36652D01*
X64070Y-36792D01*
X64066Y-36801D01*
X63809Y-37059D01*
X63809Y-37059D01*
X63338Y-37530D01*
X63156Y-37529D01*
X62984Y-37601D01*
X62964Y-37620D01*
X62964Y-32469D01*
X63013Y-32470D01*
X63563Y-32470D01*
X63581Y-32462D01*
X63809Y-32690D01*
X63896Y-32749D01*
X63896Y-32749D01*
X64000Y-32770D01*
X64388Y-32770D01*
X64559Y-32940D01*
X64559Y-32940D01*
X64646Y-32999D01*
X64646Y-32999D01*
X64750Y-33020D01*
X65438Y-33020D01*
X65610Y-33192D01*
X65698Y-33251D01*
X65698Y-33251D01*
X65801Y-33271D01*
X66389Y-33271D01*
X66559Y-33440D01*
X66646Y-33499D01*
X66646Y-33499D01*
X66750Y-33520D01*
X66938Y-33520D01*
X66959Y-33541D01*
X66955Y-33551D01*
X66954Y-33748D01*
X67030Y-33930D01*
X67169Y-34069D01*
X67269Y-34110D01*
X67140Y-34164D01*
X67115Y-34265D01*
X67450Y-34600D01*
X67784Y-34265D01*
X67759Y-34164D01*
X67626Y-34112D01*
X67730Y-34069D01*
X67784Y-34015D01*
X68404Y-34636D01*
X68404Y-34636D01*
X68429Y-34653D01*
X68429Y-34653D01*
X68554Y-34778D01*
X68554Y-34778D01*
G37*
G54D31*
X68554Y-34778D02*
X68509Y-34809D01*
X68509Y-34809D01*
X68017Y-35300D01*
X68017Y-34750D01*
X68012Y-34525D01*
X67935Y-34340D01*
X67834Y-34315D01*
X67499Y-34650D01*
X67834Y-34984D01*
X67935Y-34959D01*
X68017Y-34750D01*
X68017Y-35300D01*
X67938Y-35380D01*
X67874Y-35380D01*
X67869Y-35369D01*
X67730Y-35230D01*
X67630Y-35189D01*
X67759Y-35135D01*
X67784Y-35034D01*
X67450Y-34699D01*
X67400Y-34748D01*
X67400Y-34650D01*
X67065Y-34315D01*
X66964Y-34340D01*
X66882Y-34549D01*
X66887Y-34774D01*
X66964Y-34959D01*
X67065Y-34984D01*
X67400Y-34650D01*
X67400Y-34748D01*
X67115Y-35034D01*
X67140Y-35135D01*
X67273Y-35187D01*
X67169Y-35230D01*
X67030Y-35369D01*
X66955Y-35551D01*
X66954Y-35748D01*
X67030Y-35930D01*
X67169Y-36069D01*
X67296Y-36122D01*
X66938Y-36480D01*
X66700Y-36480D01*
X66596Y-36500D01*
X66509Y-36559D01*
X66509Y-36559D01*
X66388Y-36680D01*
X65061Y-36680D01*
X64959Y-36577D01*
X64959Y-36558D01*
X64929Y-36486D01*
X64874Y-36432D01*
X64763Y-36320D01*
X64703Y-36296D01*
X64679Y-36236D01*
X64674Y-36231D01*
X64795Y-36181D01*
X64900Y-36076D01*
X64956Y-35940D01*
X64957Y-35792D01*
X64957Y-34060D01*
X64900Y-33923D01*
X64795Y-33818D01*
X64659Y-33762D01*
X64511Y-33761D01*
X64374Y-33818D01*
X64269Y-33923D01*
X64213Y-34059D01*
X64212Y-34207D01*
X64269Y-34344D01*
X64374Y-34449D01*
X64510Y-34505D01*
X64658Y-34506D01*
X64795Y-34449D01*
X64900Y-34344D01*
X64956Y-34208D01*
X64957Y-34060D01*
X64957Y-35792D01*
X64900Y-35655D01*
X64795Y-35550D01*
X64659Y-35494D01*
X64511Y-35493D01*
X64374Y-35550D01*
X64270Y-35654D01*
X64270Y-35250D01*
X64270Y-35103D01*
X64313Y-35059D01*
X64369Y-34923D01*
X64370Y-34776D01*
X64313Y-34640D01*
X64209Y-34536D01*
X64073Y-34480D01*
X63926Y-34479D01*
X63790Y-34536D01*
X63787Y-34539D01*
X63768Y-34519D01*
X63670Y-34479D01*
X63565Y-34479D01*
X63601Y-34479D01*
X63535Y-34545D01*
X63535Y-34788D01*
X63542Y-34788D01*
X63542Y-34858D01*
X63535Y-34858D01*
X63535Y-34865D01*
X63465Y-34865D01*
X63465Y-34858D01*
X63465Y-34788D01*
X63465Y-34545D01*
X63398Y-34479D01*
X63434Y-34479D01*
X63329Y-34479D01*
X63231Y-34519D01*
X63157Y-34594D01*
X63116Y-34692D01*
X63117Y-34721D01*
X63183Y-34788D01*
X63465Y-34788D01*
X63465Y-34858D01*
X63183Y-34858D01*
X63117Y-34924D01*
X63116Y-34953D01*
X63157Y-35051D01*
X63187Y-35081D01*
X63186Y-35137D01*
X63186Y-35289D01*
X63186Y-35290D01*
X63130Y-35426D01*
X63129Y-35573D01*
X63186Y-35709D01*
X63290Y-35813D01*
X63426Y-35869D01*
X63573Y-35870D01*
X63709Y-35813D01*
X63730Y-35793D01*
X63730Y-36000D01*
X63750Y-36103D01*
X63809Y-36190D01*
X64040Y-36422D01*
X64040Y-36441D01*
X64070Y-36513D01*
X64125Y-36567D01*
X64210Y-36652D01*
X64070Y-36792D01*
X64066Y-36801D01*
X63809Y-37059D01*
X63809Y-37059D01*
X63338Y-37530D01*
X63156Y-37529D01*
X62984Y-37601D01*
X62964Y-37620D01*
X62964Y-32469D01*
X63013Y-32470D01*
X63563Y-32470D01*
X63581Y-32462D01*
X63809Y-32690D01*
X63896Y-32749D01*
X63896Y-32749D01*
X64000Y-32770D01*
X64388Y-32770D01*
X64559Y-32940D01*
X64559Y-32940D01*
X64646Y-32999D01*
X64646Y-32999D01*
X64750Y-33020D01*
X65438Y-33020D01*
X65610Y-33192D01*
X65698Y-33251D01*
X65698Y-33251D01*
X65801Y-33271D01*
X66389Y-33271D01*
X66559Y-33440D01*
X66646Y-33499D01*
X66646Y-33499D01*
X66750Y-33520D01*
X66938Y-33520D01*
X66959Y-33541D01*
X66955Y-33551D01*
X66954Y-33748D01*
X67030Y-33930D01*
X67169Y-34069D01*
X67269Y-34110D01*
X67140Y-34164D01*
X67115Y-34265D01*
X67450Y-34600D01*
X67784Y-34265D01*
X67759Y-34164D01*
X67626Y-34112D01*
X67730Y-34069D01*
X67784Y-34015D01*
X68404Y-34636D01*
X68404Y-34636D01*
X68429Y-34653D01*
X68429Y-34653D01*
X68554Y-34778D01*
G54D10*
G36*
X78535Y-37620D02*
X78516Y-37601D01*
X78343Y-37530D01*
X78161Y-37529D01*
X77965Y-37333D01*
X77965Y-36548D01*
X77965Y-36035D01*
X77451Y-36035D01*
X77385Y-36101D01*
X77384Y-36402D01*
X77425Y-36499D01*
X77499Y-36574D01*
X77597Y-36614D01*
X77702Y-36615D01*
X77898Y-36615D01*
X77965Y-36548D01*
X77965Y-37333D01*
X76940Y-36309D01*
X76490Y-35859D01*
X76403Y-35800D01*
X76300Y-35780D01*
X73461Y-35780D01*
X73373Y-35691D01*
X73356Y-35649D01*
X73301Y-35594D01*
X72745Y-35038D01*
X72673Y-35008D01*
X72595Y-35008D01*
X72524Y-35038D01*
X72469Y-35093D01*
X72344Y-35218D01*
X72330Y-35251D01*
X72297Y-35264D01*
X72242Y-35319D01*
X72117Y-35444D01*
X72104Y-35477D01*
X72071Y-35490D01*
X72016Y-35545D01*
X71891Y-35670D01*
X71879Y-35698D01*
X71852Y-35709D01*
X71797Y-35764D01*
X71672Y-35889D01*
X71658Y-35922D01*
X71626Y-35936D01*
X71571Y-35991D01*
X71446Y-36116D01*
X71434Y-36144D01*
X71406Y-36155D01*
X71351Y-36210D01*
X71226Y-36335D01*
X71220Y-36351D01*
X71220Y-34911D01*
X71411Y-34720D01*
X71473Y-34720D01*
X71609Y-34663D01*
X71713Y-34559D01*
X71769Y-34423D01*
X71770Y-34276D01*
X71713Y-34140D01*
X71609Y-34036D01*
X71473Y-33980D01*
X71326Y-33979D01*
X71190Y-34036D01*
X71086Y-34140D01*
X71030Y-34276D01*
X71030Y-34338D01*
X70759Y-34609D01*
X70700Y-34696D01*
X70680Y-34800D01*
X70680Y-35756D01*
X70659Y-35736D01*
X70523Y-35680D01*
X70461Y-35680D01*
X70390Y-35609D01*
X70303Y-35550D01*
X70200Y-35530D01*
X69743Y-35530D01*
X69813Y-35459D01*
X69869Y-35323D01*
X69870Y-35176D01*
X69813Y-35040D01*
X69709Y-34936D01*
X69573Y-34880D01*
X69564Y-34880D01*
X69570Y-34850D01*
X69570Y-34650D01*
X69569Y-34649D01*
X69570Y-34649D01*
X69565Y-34629D01*
X69549Y-34546D01*
X69549Y-34546D01*
X69490Y-34459D01*
X69490Y-34459D01*
X69063Y-34031D01*
X69039Y-34015D01*
X68740Y-33716D01*
X68732Y-33713D01*
X68624Y-33606D01*
X68610Y-33606D01*
X68571Y-33566D01*
X68531Y-33606D01*
X68531Y-33606D01*
X68571Y-33566D01*
X68063Y-33059D01*
X68005Y-33020D01*
X68151Y-33020D01*
X68634Y-33502D01*
X68674Y-33462D01*
X68674Y-33462D01*
X68634Y-33502D01*
X68674Y-33542D01*
X68674Y-33556D01*
X68781Y-33663D01*
X68785Y-33672D01*
X68839Y-33726D01*
X69396Y-34283D01*
X69404Y-34287D01*
X69512Y-34394D01*
X69562Y-34394D01*
X69584Y-34415D01*
X69605Y-34394D01*
X69605Y-34394D01*
X69584Y-34415D01*
X69709Y-34540D01*
X69796Y-34599D01*
X69796Y-34599D01*
X69900Y-34620D01*
X69946Y-34620D01*
X69990Y-34663D01*
X70126Y-34719D01*
X70273Y-34720D01*
X70409Y-34663D01*
X70513Y-34559D01*
X70569Y-34423D01*
X70570Y-34276D01*
X70513Y-34140D01*
X70409Y-34036D01*
X70273Y-33980D01*
X70126Y-33979D01*
X69990Y-34036D01*
X69979Y-34047D01*
X69916Y-33984D01*
X70020Y-33880D01*
X70032Y-33850D01*
X70062Y-33838D01*
X70117Y-33783D01*
X70242Y-33658D01*
X70255Y-33627D01*
X70285Y-33615D01*
X70340Y-33560D01*
X70465Y-33435D01*
X70478Y-33405D01*
X70508Y-33392D01*
X70563Y-33337D01*
X70688Y-33212D01*
X70717Y-33141D01*
X70718Y-33063D01*
X70688Y-32991D01*
X70633Y-32936D01*
X70519Y-32822D01*
X70520Y-32818D01*
X70520Y-32394D01*
X70648Y-32266D01*
X70719Y-32093D01*
X70720Y-31906D01*
X70648Y-31734D01*
X70629Y-31714D01*
X70870Y-31714D01*
X70851Y-31733D01*
X70780Y-31906D01*
X70779Y-32093D01*
X70851Y-32265D01*
X70980Y-32394D01*
X70980Y-32799D01*
X70788Y-32990D01*
X70758Y-33062D01*
X70758Y-33140D01*
X70788Y-33211D01*
X70843Y-33266D01*
X70968Y-33391D01*
X70996Y-33403D01*
X71007Y-33430D01*
X71062Y-33485D01*
X71187Y-33610D01*
X71220Y-33624D01*
X71233Y-33657D01*
X71288Y-33712D01*
X71413Y-33837D01*
X71441Y-33848D01*
X71452Y-33876D01*
X71507Y-33931D01*
X71632Y-34056D01*
X71660Y-34068D01*
X71672Y-34095D01*
X71726Y-34150D01*
X71852Y-34275D01*
X71884Y-34289D01*
X71898Y-34321D01*
X71953Y-34376D01*
X72078Y-34501D01*
X72111Y-34515D01*
X72124Y-34548D01*
X72179Y-34603D01*
X72304Y-34728D01*
X72337Y-34741D01*
X72350Y-34774D01*
X72405Y-34829D01*
X72530Y-34954D01*
X72602Y-34984D01*
X72680Y-34984D01*
X72751Y-34954D01*
X72806Y-34899D01*
X72947Y-34759D01*
X72979Y-34765D01*
X72999Y-34770D01*
X72999Y-34769D01*
X73000Y-34770D01*
X75888Y-34770D01*
X76309Y-35190D01*
X76396Y-35249D01*
X76396Y-35249D01*
X76500Y-35270D01*
X77454Y-35270D01*
X77454Y-35388D01*
X77478Y-35446D01*
X77425Y-35500D01*
X77384Y-35597D01*
X77385Y-35898D01*
X77451Y-35965D01*
X77965Y-35965D01*
X77965Y-35957D01*
X78035Y-35957D01*
X78035Y-35965D01*
X78042Y-35965D01*
X78042Y-36035D01*
X78035Y-36035D01*
X78035Y-36548D01*
X78101Y-36615D01*
X78297Y-36615D01*
X78402Y-36614D01*
X78500Y-36574D01*
X78535Y-36539D01*
X78535Y-37620D01*
X78535Y-37620D01*
G37*
G54D31*
X78535Y-37620D02*
X78516Y-37601D01*
X78343Y-37530D01*
X78161Y-37529D01*
X77965Y-37333D01*
X77965Y-36548D01*
X77965Y-36035D01*
X77451Y-36035D01*
X77385Y-36101D01*
X77384Y-36402D01*
X77425Y-36499D01*
X77499Y-36574D01*
X77597Y-36614D01*
X77702Y-36615D01*
X77898Y-36615D01*
X77965Y-36548D01*
X77965Y-37333D01*
X76940Y-36309D01*
X76490Y-35859D01*
X76403Y-35800D01*
X76300Y-35780D01*
X73461Y-35780D01*
X73373Y-35691D01*
X73356Y-35649D01*
X73301Y-35594D01*
X72745Y-35038D01*
X72673Y-35008D01*
X72595Y-35008D01*
X72524Y-35038D01*
X72469Y-35093D01*
X72344Y-35218D01*
X72330Y-35251D01*
X72297Y-35264D01*
X72242Y-35319D01*
X72117Y-35444D01*
X72104Y-35477D01*
X72071Y-35490D01*
X72016Y-35545D01*
X71891Y-35670D01*
X71879Y-35698D01*
X71852Y-35709D01*
X71797Y-35764D01*
X71672Y-35889D01*
X71658Y-35922D01*
X71626Y-35936D01*
X71571Y-35991D01*
X71446Y-36116D01*
X71434Y-36144D01*
X71406Y-36155D01*
X71351Y-36210D01*
X71226Y-36335D01*
X71220Y-36351D01*
X71220Y-34911D01*
X71411Y-34720D01*
X71473Y-34720D01*
X71609Y-34663D01*
X71713Y-34559D01*
X71769Y-34423D01*
X71770Y-34276D01*
X71713Y-34140D01*
X71609Y-34036D01*
X71473Y-33980D01*
X71326Y-33979D01*
X71190Y-34036D01*
X71086Y-34140D01*
X71030Y-34276D01*
X71030Y-34338D01*
X70759Y-34609D01*
X70700Y-34696D01*
X70680Y-34800D01*
X70680Y-35756D01*
X70659Y-35736D01*
X70523Y-35680D01*
X70461Y-35680D01*
X70390Y-35609D01*
X70303Y-35550D01*
X70200Y-35530D01*
X69743Y-35530D01*
X69813Y-35459D01*
X69869Y-35323D01*
X69870Y-35176D01*
X69813Y-35040D01*
X69709Y-34936D01*
X69573Y-34880D01*
X69564Y-34880D01*
X69570Y-34850D01*
X69570Y-34650D01*
X69569Y-34649D01*
X69570Y-34649D01*
X69565Y-34629D01*
X69549Y-34546D01*
X69549Y-34546D01*
X69490Y-34459D01*
X69490Y-34459D01*
X69063Y-34031D01*
X69039Y-34015D01*
X68740Y-33716D01*
X68732Y-33713D01*
X68624Y-33606D01*
X68610Y-33606D01*
X68571Y-33566D01*
X68531Y-33606D01*
X68531Y-33606D01*
X68571Y-33566D01*
X68063Y-33059D01*
X68005Y-33020D01*
X68151Y-33020D01*
X68634Y-33502D01*
X68674Y-33462D01*
X68674Y-33462D01*
X68634Y-33502D01*
X68674Y-33542D01*
X68674Y-33556D01*
X68781Y-33663D01*
X68785Y-33672D01*
X68839Y-33726D01*
X69396Y-34283D01*
X69404Y-34287D01*
X69512Y-34394D01*
X69562Y-34394D01*
X69584Y-34415D01*
X69605Y-34394D01*
X69605Y-34394D01*
X69584Y-34415D01*
X69709Y-34540D01*
X69796Y-34599D01*
X69796Y-34599D01*
X69900Y-34620D01*
X69946Y-34620D01*
X69990Y-34663D01*
X70126Y-34719D01*
X70273Y-34720D01*
X70409Y-34663D01*
X70513Y-34559D01*
X70569Y-34423D01*
X70570Y-34276D01*
X70513Y-34140D01*
X70409Y-34036D01*
X70273Y-33980D01*
X70126Y-33979D01*
X69990Y-34036D01*
X69979Y-34047D01*
X69916Y-33984D01*
X70020Y-33880D01*
X70032Y-33850D01*
X70062Y-33838D01*
X70117Y-33783D01*
X70242Y-33658D01*
X70255Y-33627D01*
X70285Y-33615D01*
X70340Y-33560D01*
X70465Y-33435D01*
X70478Y-33405D01*
X70508Y-33392D01*
X70563Y-33337D01*
X70688Y-33212D01*
X70717Y-33141D01*
X70718Y-33063D01*
X70688Y-32991D01*
X70633Y-32936D01*
X70519Y-32822D01*
X70520Y-32818D01*
X70520Y-32394D01*
X70648Y-32266D01*
X70719Y-32093D01*
X70720Y-31906D01*
X70648Y-31734D01*
X70629Y-31714D01*
X70870Y-31714D01*
X70851Y-31733D01*
X70780Y-31906D01*
X70779Y-32093D01*
X70851Y-32265D01*
X70980Y-32394D01*
X70980Y-32799D01*
X70788Y-32990D01*
X70758Y-33062D01*
X70758Y-33140D01*
X70788Y-33211D01*
X70843Y-33266D01*
X70968Y-33391D01*
X70996Y-33403D01*
X71007Y-33430D01*
X71062Y-33485D01*
X71187Y-33610D01*
X71220Y-33624D01*
X71233Y-33657D01*
X71288Y-33712D01*
X71413Y-33837D01*
X71441Y-33848D01*
X71452Y-33876D01*
X71507Y-33931D01*
X71632Y-34056D01*
X71660Y-34068D01*
X71672Y-34095D01*
X71726Y-34150D01*
X71852Y-34275D01*
X71884Y-34289D01*
X71898Y-34321D01*
X71953Y-34376D01*
X72078Y-34501D01*
X72111Y-34515D01*
X72124Y-34548D01*
X72179Y-34603D01*
X72304Y-34728D01*
X72337Y-34741D01*
X72350Y-34774D01*
X72405Y-34829D01*
X72530Y-34954D01*
X72602Y-34984D01*
X72680Y-34984D01*
X72751Y-34954D01*
X72806Y-34899D01*
X72947Y-34759D01*
X72979Y-34765D01*
X72999Y-34770D01*
X72999Y-34769D01*
X73000Y-34770D01*
X75888Y-34770D01*
X76309Y-35190D01*
X76396Y-35249D01*
X76396Y-35249D01*
X76500Y-35270D01*
X77454Y-35270D01*
X77454Y-35388D01*
X77478Y-35446D01*
X77425Y-35500D01*
X77384Y-35597D01*
X77385Y-35898D01*
X77451Y-35965D01*
X77965Y-35965D01*
X77965Y-35957D01*
X78035Y-35957D01*
X78035Y-35965D01*
X78042Y-35965D01*
X78042Y-36035D01*
X78035Y-36035D01*
X78035Y-36548D01*
X78101Y-36615D01*
X78297Y-36615D01*
X78402Y-36614D01*
X78500Y-36574D01*
X78535Y-36539D01*
X78535Y-37620D01*
M02*
