%FSLAX34Y34*%
G04 Gerber Fmt 3.4, Leading zero omitted, Abs format*
G04 (created by PCBNEW (2014-02-26 BZR 4721)-product) date Wednesday, June 11, 2014 'pmt' 02:15:52 pm*
%MOIN*%
G01*
G70*
G90*
G04 APERTURE LIST*
%ADD10C,0.005906*%
%ADD11C,0.003937*%
G04 APERTURE END LIST*
G54D10*
G54D11*
X78750Y-24000D02*
X78750Y-24500D01*
X78000Y-23500D02*
X78250Y-23500D01*
X78000Y-30500D02*
X78250Y-30500D01*
X78250Y-30500D02*
G75*
G03X78750Y-30000I0J500D01*
G74*
G01*
X78750Y-24000D02*
G75*
G03X78250Y-23500I-500J0D01*
G74*
G01*
X78750Y-32500D02*
X78750Y-38000D01*
X78000Y-30500D02*
X77750Y-30500D01*
X78000Y-23500D02*
X77750Y-23500D01*
X62750Y-29500D02*
G75*
G03X63750Y-30500I1000J0D01*
G74*
G01*
X63750Y-23500D02*
G75*
G03X62750Y-24500I0J-1000D01*
G74*
G01*
X80750Y-34000D02*
X81250Y-34000D01*
X80750Y-23500D02*
X81250Y-23500D01*
X63250Y-31500D02*
X63750Y-31500D01*
X63250Y-38500D02*
X63750Y-38500D01*
X78250Y-31500D02*
X77750Y-31500D01*
X78750Y-32000D02*
X78750Y-32500D01*
X78250Y-38500D02*
X72750Y-38500D01*
X79750Y-33000D02*
X79750Y-30000D01*
X78750Y-24500D02*
G75*
G03X79250Y-25000I500J0D01*
G74*
G01*
X79250Y-25000D02*
G75*
G03X79750Y-24500I0J500D01*
G74*
G01*
X79750Y-30000D02*
G75*
G03X79250Y-29500I-500J0D01*
G74*
G01*
X79250Y-29500D02*
G75*
G03X78750Y-30000I0J-500D01*
G74*
G01*
X77250Y-31000D02*
G75*
G03X77750Y-31500I500J0D01*
G74*
G01*
X77750Y-30500D02*
G75*
G03X77250Y-31000I0J-500D01*
G74*
G01*
X78750Y-32000D02*
G75*
G03X78250Y-31500I-500J0D01*
G74*
G01*
X72750Y-38500D02*
G75*
G03X72250Y-39000I0J-500D01*
G74*
G01*
X72250Y-39000D02*
G75*
G03X72750Y-39500I500J0D01*
G74*
G01*
X62750Y-40500D02*
X62750Y-42000D01*
X73750Y-42000D02*
X73750Y-40500D01*
X63750Y-43000D02*
X72750Y-43000D01*
X73750Y-40500D02*
G75*
G03X72750Y-39500I-1000J0D01*
G74*
G01*
X72750Y-43000D02*
G75*
G03X73750Y-42000I0J1000D01*
G74*
G01*
X63750Y-39500D02*
G75*
G03X64250Y-39000I0J500D01*
G74*
G01*
X64250Y-39000D02*
G75*
G03X63750Y-38500I-500J0D01*
G74*
G01*
X62750Y-42000D02*
G75*
G03X63750Y-43000I1000J0D01*
G74*
G01*
X63750Y-39500D02*
G75*
G03X62750Y-40500I0J-1000D01*
G74*
G01*
X82250Y-33000D02*
X82250Y-24500D01*
X63750Y-31500D02*
G75*
G03X64250Y-31000I0J500D01*
G74*
G01*
X64250Y-31000D02*
G75*
G03X63750Y-30500I-500J0D01*
G74*
G01*
X79750Y-33000D02*
G75*
G03X80750Y-34000I1000J0D01*
G74*
G01*
X81250Y-34000D02*
G75*
G03X82250Y-33000I0J1000D01*
G74*
G01*
X82250Y-24500D02*
G75*
G03X81250Y-23500I-1000J0D01*
G74*
G01*
X80750Y-23500D02*
G75*
G03X79750Y-24500I0J-1000D01*
G74*
G01*
X63750Y-23500D02*
X77750Y-23500D01*
X62750Y-24500D02*
X62750Y-29500D01*
X62750Y-32000D02*
X62750Y-38000D01*
X62750Y-38000D02*
G75*
G03X63250Y-38500I500J0D01*
G74*
G01*
X63250Y-31500D02*
G75*
G03X62750Y-32000I0J-500D01*
G74*
G01*
X78250Y-38500D02*
G75*
G03X78750Y-38000I0J500D01*
G74*
G01*
M02*
