M48
;DRILL file {Pcbnew (2014-01-10 BZR 4027)-stable} date Thursday, June 18, 2015 'amt' 10:00:07 am
;FORMAT={-:-/ absolute / inch / decimal}
FMAT,2
INCH,TZ
T1C0.030
T2C0.035
%
G90
G05
M72
T1
X1.725Y-2.825
X1.775Y-2.825
X1.825Y-2.825
X2.225Y-4.1
X2.225Y-4.15
X2.225Y-4.2
X2.5Y-2.825
X2.55Y-2.825
X2.6Y-2.825
X2.875Y-4.9
X2.875Y-4.95
X2.875Y-5.
X4.1Y-2.825
X4.15Y-2.825
X4.2Y-2.825
X4.9Y-2.325
X4.95Y-2.325
X5.Y-2.325
T2
X1.7134Y-4.3415
X1.8866Y-4.3415
X5.1415Y-2.4884
X5.1415Y-2.6616
T0
M30
