G04 (created by PCBNEW (22-Jun-2014 BZR 4027)-stable) date Fri 03 Apr 2015 12:50:18 PM MDT*
%MOIN*%
G04 Gerber Fmt 3.4, Leading zero omitted, Abs format*
%FSLAX34Y34*%
G01*
G70*
G90*
G04 APERTURE LIST*
%ADD10C,0.00590551*%
%ADD11C,0.00393701*%
G04 APERTURE END LIST*
G54D10*
G54D11*
X61750Y-33500D02*
X58250Y-33500D01*
X63750Y-33500D02*
X65750Y-33500D01*
X61750Y-33000D02*
X58500Y-33000D01*
X63750Y-33000D02*
X68500Y-33000D01*
X66500Y-34000D02*
X66500Y-47250D01*
X66000Y-47250D02*
X66000Y-33750D01*
X66500Y-52750D02*
X66500Y-49250D01*
X66000Y-51500D02*
X66000Y-52750D01*
X66500Y-54750D02*
X66500Y-55500D01*
X66000Y-54750D02*
X66000Y-55500D01*
X66000Y-47250D02*
G75*
G03X66250Y-47500I250J0D01*
G74*
G01*
X66250Y-47500D02*
G75*
G03X66500Y-47250I0J250D01*
G74*
G01*
X66500Y-49250D02*
G75*
G03X66250Y-49000I-250J0D01*
G74*
G01*
X66250Y-49000D02*
G75*
G03X66000Y-49250I0J-250D01*
G74*
G01*
X66250Y-54500D02*
G75*
G03X66000Y-54750I0J-250D01*
G74*
G01*
X66500Y-54750D02*
G75*
G03X66250Y-54500I-250J0D01*
G74*
G01*
X66000Y-52750D02*
G75*
G03X66250Y-53000I250J0D01*
G74*
G01*
X66250Y-53000D02*
G75*
G03X66500Y-52750I0J250D01*
G74*
G01*
X63750Y-33000D02*
G75*
G03X63500Y-33250I0J-250D01*
G74*
G01*
X63500Y-33250D02*
G75*
G03X63750Y-33500I250J0D01*
G74*
G01*
X61750Y-33500D02*
G75*
G03X62000Y-33250I0J250D01*
G74*
G01*
X62000Y-33250D02*
G75*
G03X61750Y-33000I-250J0D01*
G74*
G01*
X73500Y-56000D02*
X96500Y-56000D01*
X70500Y-33000D02*
X84500Y-33000D01*
X84500Y-33500D02*
X73500Y-33500D01*
X96500Y-17000D02*
X58500Y-17000D01*
X94500Y-28000D02*
X96500Y-28000D01*
X89000Y-28000D02*
X92500Y-28000D01*
X92500Y-28500D02*
X89500Y-28500D01*
X96500Y-28500D02*
X94500Y-28500D01*
X92750Y-28250D02*
G75*
G03X92500Y-28000I-250J0D01*
G74*
G01*
X92500Y-28500D02*
G75*
G03X92750Y-28250I0J250D01*
G74*
G01*
X94500Y-28000D02*
G75*
G03X94250Y-28250I0J-250D01*
G74*
G01*
X94250Y-28250D02*
G75*
G03X94500Y-28500I250J0D01*
G74*
G01*
X88500Y-32500D02*
X88500Y-28500D01*
X86500Y-33000D02*
X88000Y-33000D01*
X96500Y-33500D02*
X86500Y-33500D01*
X97000Y-27500D02*
X97000Y-17500D01*
X84500Y-33500D02*
G75*
G03X84750Y-33250I0J250D01*
G74*
G01*
X84750Y-33250D02*
G75*
G03X84500Y-33000I-250J0D01*
G74*
G01*
X86500Y-33000D02*
G75*
G03X86250Y-33250I0J-250D01*
G74*
G01*
X86250Y-33250D02*
G75*
G03X86500Y-33500I250J0D01*
G74*
G01*
X88000Y-33000D02*
G75*
G03X88500Y-32500I0J500D01*
G74*
G01*
X89000Y-28000D02*
G75*
G03X88500Y-28500I0J-500D01*
G74*
G01*
X89000Y-32500D02*
X89000Y-29000D01*
X96500Y-33000D02*
X89500Y-33000D01*
X97000Y-29000D02*
X97000Y-32500D01*
X89000Y-32500D02*
G75*
G03X89500Y-33000I500J0D01*
G74*
G01*
X89500Y-28500D02*
G75*
G03X89000Y-29000I0J-500D01*
G74*
G01*
X96500Y-28000D02*
G75*
G03X97000Y-27500I0J500D01*
G74*
G01*
X97000Y-29000D02*
G75*
G03X96500Y-28500I-500J0D01*
G74*
G01*
X96500Y-33000D02*
G75*
G03X97000Y-32500I0J500D01*
G74*
G01*
X97000Y-17500D02*
G75*
G03X96500Y-17000I-500J0D01*
G74*
G01*
X68500Y-33500D02*
X67000Y-33500D01*
X70500Y-33500D02*
X72000Y-33500D01*
X68500Y-33500D02*
G75*
G03X68750Y-33250I0J250D01*
G74*
G01*
X68750Y-33250D02*
G75*
G03X68500Y-33000I-250J0D01*
G74*
G01*
X70250Y-33250D02*
G75*
G03X70500Y-33500I250J0D01*
G74*
G01*
X70500Y-33000D02*
G75*
G03X70250Y-33250I0J-250D01*
G74*
G01*
X58500Y-17000D02*
G75*
G03X58000Y-17500I0J-500D01*
G74*
G01*
X58000Y-32500D02*
X58000Y-17500D01*
X58000Y-32500D02*
G75*
G03X58500Y-33000I500J0D01*
G74*
G01*
X97000Y-55500D02*
X97000Y-34000D01*
X73000Y-34000D02*
X73000Y-53500D01*
X72500Y-53500D02*
X72500Y-34000D01*
X67000Y-56000D02*
X72000Y-56000D01*
X72500Y-34000D02*
G75*
G03X72000Y-33500I-500J0D01*
G74*
G01*
X67000Y-33500D02*
G75*
G03X66500Y-34000I0J-500D01*
G74*
G01*
X66500Y-55500D02*
G75*
G03X67000Y-56000I500J0D01*
G74*
G01*
X72500Y-53500D02*
G75*
G03X72750Y-53750I250J0D01*
G74*
G01*
X72750Y-53750D02*
G75*
G03X73000Y-53500I0J250D01*
G74*
G01*
X72000Y-56000D02*
G75*
G03X72500Y-55500I0J500D01*
G74*
G01*
X72750Y-55250D02*
G75*
G03X72500Y-55500I0J-250D01*
G74*
G01*
X73000Y-55500D02*
G75*
G03X72750Y-55250I-250J0D01*
G74*
G01*
X96500Y-56000D02*
G75*
G03X97000Y-55500I0J500D01*
G74*
G01*
X73000Y-55500D02*
G75*
G03X73500Y-56000I500J0D01*
G74*
G01*
X73500Y-33500D02*
G75*
G03X73000Y-34000I0J-500D01*
G74*
G01*
X97000Y-34000D02*
G75*
G03X96500Y-33500I-500J0D01*
G74*
G01*
X58250Y-33500D02*
G75*
G03X58000Y-33750I0J-250D01*
G74*
G01*
X66000Y-33750D02*
G75*
G03X65750Y-33500I-250J0D01*
G74*
G01*
X58000Y-33750D02*
X58000Y-49250D01*
X59500Y-49500D02*
X58250Y-49500D01*
X64000Y-50000D02*
X60000Y-50000D01*
X65750Y-49500D02*
X64500Y-49500D01*
X65750Y-49500D02*
G75*
G03X66000Y-49250I0J250D01*
G74*
G01*
X58000Y-49250D02*
G75*
G03X58250Y-49500I250J0D01*
G74*
G01*
X64500Y-49500D02*
G75*
G03X64250Y-49750I0J-250D01*
G74*
G01*
X64000Y-50000D02*
G75*
G03X64250Y-49750I0J250D01*
G74*
G01*
X59750Y-49750D02*
G75*
G03X59500Y-49500I-250J0D01*
G74*
G01*
X59750Y-49750D02*
G75*
G03X60000Y-50000I250J0D01*
G74*
G01*
X59500Y-51000D02*
X65500Y-51000D01*
X59000Y-55500D02*
X59000Y-51500D01*
X65500Y-56000D02*
X59500Y-56000D01*
X59000Y-55500D02*
G75*
G03X59500Y-56000I500J0D01*
G74*
G01*
X65500Y-56000D02*
G75*
G03X66000Y-55500I0J500D01*
G74*
G01*
X66000Y-51500D02*
G75*
G03X65500Y-51000I-500J0D01*
G74*
G01*
X59500Y-51000D02*
G75*
G03X59000Y-51500I0J-500D01*
G74*
G01*
M02*
