M48
;DRILL file {KiCad (2015-07-22 BZR 5980)-product} date Tue 28 Jul 2015 08:05:43 PM MDT
;FORMAT={-:-/ absolute / inch / decimal}
FMAT,2
INCH,TZ
T1C0.025
T2C0.031
T3C0.032
T4C0.040
T5C0.100
T6C0.120
%
G90
G05
M72
T1
X1.5199Y-3.4548
X1.5299Y-2.9998
X1.5349Y-4.1898
X1.5499Y-4.0198
X1.5499Y-4.4248
X1.5749Y-3.0871
X1.5749Y-3.1948
X1.5749Y-3.3626
X1.5999Y-2.9748
X1.6Y-1.55
X1.6399Y-3.6948
X1.6399Y-3.8348
X1.6499Y-4.3598
X1.65Y-1.425
X1.6624Y-4.1645
X1.6749Y-2.9748
X1.6749Y-4.2498
X1.6899Y-3.3148
X1.7149Y-3.7948
X1.7199Y-4.2898
X1.7249Y-2.9748
X1.7299Y-3.0871
X1.7299Y-3.2248
X1.7349Y-3.5848
X1.7499Y-3.8798
X1.7499Y-4.3848
X1.75Y-1.4
X1.75Y-1.675
X1.75Y-1.775
X1.75Y-2.3
X1.7699Y-3.6198
X1.775Y-2.2
X1.7799Y-3.2248
X1.7949Y-3.0048
X1.7999Y-3.5848
X1.8Y-1.7
X1.8Y-1.85
X1.8Y-2.3
X1.8099Y-3.3048
X1.8099Y-3.3598
X1.8299Y-3.6198
X1.8349Y-3.7348
X1.8349Y-3.7798
X1.8349Y-3.8248
X1.8349Y-3.8698
X1.8399Y-3.9998
X1.8499Y-4.3848
X1.85Y-1.375
X1.85Y-1.925
X1.85Y-2.125
X1.85Y-2.3
X1.8749Y-3.6198
X1.875Y-2.225
X1.8999Y-3.1798
X1.9199Y-3.6198
X1.9199Y-3.7448
X1.9223Y-3.3833
X1.925Y-2.
X1.925Y-2.15
X1.925Y-2.3
X1.9499Y-4.3748
X1.95Y-1.45
X1.9599Y-4.1748
X1.9649Y-3.8498
X1.9699Y-3.4898
X1.9749Y-3.0248
X1.9749Y-3.1798
X1.975Y-1.625
X2.0049Y-3.9848
X2.0249Y-4.2248
X2.0399Y-3.1798
X2.05Y-1.725
X2.05Y-2.3
X2.0599Y-4.0498
X2.0649Y-4.1548
X2.125Y-1.625
X2.175Y-2.25
X2.2Y-2.125
X2.2Y-2.35
X2.225Y-2.15
X2.225Y-2.375
X2.25Y-1.95
X2.25Y-2.175
X2.25Y-2.325
X2.275Y-2.275
X2.425Y-1.6
X2.425Y-1.8
X2.45Y-1.5
X2.525Y-2.125
X2.55Y-1.95
X2.575Y-2.175
X2.6Y-1.325
X2.6Y-1.475
X2.65Y-1.475
X2.675Y-2.2
X2.725Y-1.6
X2.725Y-1.8
X2.725Y-2.225
X2.725Y-2.475
X2.75Y-2.2
X2.75Y-2.45
X2.825Y-2.125
X2.85Y-1.95
X2.95Y-2.175
X2.95Y-2.425
X2.975Y-2.2
X2.975Y-2.4
X2.975Y-2.475
X3.Y-2.225
X3.Y-2.65
X3.025Y-1.6
X3.025Y-1.8
X3.025Y-2.25
X3.025Y-2.675
X3.075Y-1.325
X3.075Y-1.675
X3.075Y-2.45
X3.125Y-1.35
X3.125Y-1.575
X3.125Y-2.125
X3.175Y-2.45
X3.275Y-1.5
X3.275Y-1.575
X3.275Y-1.65
X3.275Y-2.475
X3.3Y-1.425
X3.3Y-2.05
X3.325Y-1.4
X3.325Y-2.025
X3.35Y-1.375
X3.35Y-1.65
X3.35Y-1.875
X3.35Y-2.475
X3.375Y-1.675
X3.375Y-2.325
X3.375Y-2.425
X3.4Y-1.825
X3.4Y-2.45
X3.425Y-1.25
X3.425Y-1.95
X3.425Y-2.475
X3.45Y-1.975
X3.45Y-2.45
X3.475Y-2.2
X3.475Y-2.4
X3.475Y-4.2
X3.5Y-1.775
X3.5Y-1.9
X3.525Y-1.925
X3.525Y-2.4
X3.625Y-1.275
X3.675Y-2.225
X3.675Y-2.4
X3.7Y-1.3
X3.7Y-1.65
X3.7Y-2.05
X3.7Y-2.25
X3.7Y-2.625
X3.725Y-1.425
X3.725Y-1.775
X3.725Y-2.225
X3.725Y-2.6
X3.75Y-2.25
X3.75Y-2.575
X3.775Y-2.225
X3.775Y-2.55
X3.775Y-2.65
X3.775Y-3.6
X3.775Y-3.65
X3.775Y-3.7
X3.775Y-3.75
X3.775Y-3.85
X3.775Y-3.9
X3.775Y-3.95
X3.775Y-4.
X3.8Y-1.45
X3.8Y-2.25
X3.8Y-2.525
X3.8Y-3.625
X3.8Y-3.675
X3.8Y-3.725
X3.8Y-3.875
X3.8Y-3.925
X3.8Y-3.975
X3.825Y-2.275
X3.825Y-2.5
X3.825Y-3.6
X3.825Y-3.75
X3.825Y-3.85
X3.825Y-4.
X3.85Y-1.3
X3.85Y-1.6
X3.85Y-1.775
X3.85Y-3.625
X3.85Y-3.725
X3.85Y-3.875
X3.85Y-3.975
X3.875Y-2.25
X3.875Y-2.4
X3.875Y-3.6
X3.875Y-3.75
X3.875Y-3.85
X3.875Y-4.
X3.9Y-2.075
X3.9Y-3.625
X3.9Y-3.725
X3.9Y-3.875
X3.9Y-3.975
X3.925Y-1.9
X3.925Y-2.2
X3.925Y-3.75
X3.925Y-3.85
X3.925Y-4.
X3.95Y-2.475
X3.95Y-3.625
X3.95Y-3.675
X3.95Y-3.725
X3.95Y-3.875
X3.95Y-3.925
X3.95Y-3.975
X3.975Y-1.325
X3.975Y-1.65
X3.975Y-2.275
X4.Y-1.35
X4.025Y-1.25
X4.025Y-1.45
X4.025Y-1.625
X4.025Y-2.125
X4.05Y-3.175
X4.05Y-3.575
X4.075Y-1.5
X4.1Y-1.95
X4.1Y-2.875
X4.15Y-1.675
X4.175Y-1.375
X4.175Y-1.85
X4.175Y-2.35
X4.2Y-1.275
X4.2Y-1.35
X4.2Y-2.375
X4.2Y-2.875
X4.25Y-1.325
X4.25Y-1.425
X4.275Y-1.925
X4.3Y-1.475
X4.425Y-4.175
X4.425Y-4.325
X4.475Y-4.125
X4.475Y-4.25
X4.525Y-3.375
X4.575Y-3.55
X4.575Y-4.95
X4.59Y-3.1
X4.65Y-1.4
X4.675Y-3.475
X4.675Y-3.7
X4.68Y-3.06
X4.7Y-4.175
X4.7Y-4.35
X4.725Y-3.15
X4.725Y-3.575
X4.725Y-4.1
X4.725Y-4.6
X4.75Y-3.425
X4.75Y-4.325
X4.775Y-3.975
X4.775Y-4.9
X4.8Y-3.3
X4.85Y-3.65
X4.85Y-3.95
X4.85Y-4.125
X4.85Y-4.45
X4.875Y-3.025
X4.875Y-3.425
X4.875Y-4.475
X4.9Y-3.1
X4.9Y-3.3
X4.9Y-4.35
X4.925Y-3.425
X4.925Y-4.475
X4.95Y-2.475
X4.95Y-2.65
X4.95Y-3.3
X4.95Y-4.35
X4.95Y-4.75
X4.975Y-3.375
X4.975Y-3.575
X4.975Y-3.85
X4.975Y-4.125
X4.975Y-4.275
X4.975Y-4.4
X5.Y-3.325
X5.Y-3.775
X5.Y-4.
X5.Y-4.55
X5.025Y-2.225
X5.05Y-4.025
X5.05Y-4.25
X5.05Y-4.45
X5.1Y-4.3
X5.1Y-4.375
X5.15Y-3.375
X5.15Y-3.6
X5.15Y-3.75
X5.15Y-4.625
X5.175Y-2.1
X5.2Y-3.65
X5.2Y-4.425
X5.225Y-3.375
X5.225Y-3.875
X5.25Y-4.1
X5.25Y-4.55
T2
X2.325Y-1.8
X2.625Y-1.8
X2.925Y-1.8
T3
X1.45Y-1.25
X1.45Y-1.625
X1.45Y-1.725
X1.45Y-1.825
X1.45Y-1.925
X1.45Y-2.025
X1.45Y-2.125
X1.45Y-2.225
X1.45Y-2.325
X1.55Y-1.25
X1.65Y-1.25
X1.75Y-1.25
X1.775Y-2.75
X1.85Y-1.25
X1.875Y-2.75
X1.95Y-1.25
X1.975Y-2.75
X2.05Y-1.25
X2.075Y-2.75
X2.15Y-1.25
X2.175Y-2.75
X2.25Y-1.25
X2.275Y-2.75
X2.35Y-1.25
X2.375Y-2.75
X2.45Y-1.25
X2.475Y-2.75
X2.55Y-1.25
X2.575Y-2.75
X2.65Y-1.25
X2.675Y-2.75
X2.75Y-1.25
X2.775Y-2.75
X2.85Y-1.25
X2.875Y-2.75
X2.95Y-1.25
X2.975Y-2.75
X3.075Y-2.75
X3.175Y-1.275
X3.175Y-2.75
X3.275Y-1.275
X3.275Y-2.75
X3.375Y-2.75
X3.475Y-2.75
X3.55Y-3.75
X3.55Y-4.7
X3.575Y-2.75
X3.65Y-3.75
X3.65Y-4.7
X3.675Y-2.75
X3.775Y-2.75
X3.875Y-2.75
X3.975Y-2.75
X4.075Y-2.75
X4.2Y-5.05
X4.3Y-5.05
X4.4Y-5.05
X4.5Y-5.05
X4.6Y-5.05
X4.7Y-5.05
X4.8Y-5.05
X4.85Y-2.425
X4.85Y-2.525
X4.85Y-2.625
X4.85Y-2.725
X4.9Y-5.05
X5.125Y-1.55
X5.15Y-1.25
X5.225Y-1.55
X5.25Y-1.25
X5.25Y-1.75
X5.25Y-1.85
X5.25Y-1.95
X5.25Y-2.05
T4
X1.4499Y-2.9998
X1.4499Y-3.0998
X1.4499Y-3.1998
X1.4499Y-3.2998
X1.4499Y-3.3998
X1.4499Y-3.4998
X1.4499Y-3.5998
X1.4499Y-3.6998
X1.4499Y-3.7998
X1.4499Y-3.8998
X1.4499Y-3.9998
X1.4499Y-4.0998
X1.4499Y-4.1998
X1.4499Y-4.2998
X1.4499Y-4.3998
X2.1499Y-2.9998
X2.1499Y-3.0998
X2.1499Y-3.1998
X2.1499Y-3.2998
X2.1499Y-3.3998
X2.1499Y-3.4998
X2.1499Y-3.5998
X2.1499Y-3.6998
X2.1499Y-3.7998
X2.1499Y-3.8998
X2.1499Y-3.9998
X2.1499Y-4.0998
X2.1499Y-4.1998
X2.1499Y-4.2998
X2.1499Y-4.3998
X3.5872Y-3.45
X3.675Y-4.1
X3.675Y-4.275
X3.725Y-3.45
X3.8628Y-3.45
X3.8628Y-4.275
X4.25Y-1.575
X4.25Y-1.675
X4.25Y-1.775
X4.35Y-1.575
X4.35Y-1.675
X4.35Y-1.775
X4.825Y-1.3
X4.825Y-1.4
X4.825Y-1.5
X4.825Y-2.
X4.825Y-2.1
X4.825Y-2.2
T5
X2.35Y-3.225
X2.35Y-3.475
X2.35Y-3.725
X2.35Y-3.975
X2.35Y-4.225
X2.35Y-4.475
X2.35Y-4.725
X2.55Y-3.225
X2.55Y-3.475
X2.55Y-3.725
X2.55Y-3.975
X2.55Y-4.225
X2.55Y-4.475
X2.55Y-4.725
X2.75Y-3.225
X2.75Y-3.475
X2.75Y-3.725
X2.75Y-3.975
X2.75Y-4.225
X2.75Y-4.475
X2.75Y-4.725
X3.225Y-3.325
X3.225Y-4.4
X3.525Y-2.975
X3.625Y-4.975
X3.725Y-2.975
X3.825Y-4.975
X3.925Y-2.975
X4.225Y-3.325
X4.225Y-4.4
X4.275Y-2.5
X4.275Y-2.7
T6
X1.525Y-2.675
X2.03Y-2.94
X2.55Y-2.95
X2.55Y-5.
X3.Y-3.325
X3.Y-4.4
X4.375Y-1.35
X4.375Y-2.175
X4.65Y-2.45
X4.65Y-2.7
X5.175Y-2.975
X5.175Y-4.975
T0
M30
