G04 (created by PCBNEW (22-Jun-2014 BZR 4027)-stable) date Fri 03 Apr 2015 12:50:18 PM MDT*
%MOIN*%
G04 Gerber Fmt 3.4, Leading zero omitted, Abs format*
%FSLAX34Y34*%
G01*
G70*
G90*
G04 APERTURE LIST*
%ADD10C,0.00590551*%
%ADD11C,0.07*%
%ADD12R,0.07X0.07*%
%ADD13R,0.055X0.055*%
%ADD14C,0.055*%
%ADD15C,0.14*%
%ADD16R,0.0590551X0.0590551*%
%ADD17C,0.03*%
%ADD18C,0.0354*%
%ADD19R,0.06X0.06*%
%ADD20C,0.06*%
%ADD21R,0.06X0.1*%
%ADD22R,0.08X0.06*%
%ADD23R,0.0106X0.0394*%
G04 APERTURE END LIST*
G54D10*
G54D11*
X80750Y-47750D03*
X80750Y-46000D03*
G54D12*
X82627Y-47750D03*
G54D13*
X88000Y-55500D03*
G54D14*
X89000Y-55500D03*
G54D13*
X86000Y-55500D03*
G54D14*
X87000Y-55500D03*
G54D13*
X90000Y-55500D03*
G54D14*
X91000Y-55500D03*
X92000Y-55500D03*
X93000Y-55500D03*
G54D11*
X79872Y-39500D03*
X81250Y-39500D03*
G54D12*
X82627Y-39500D03*
G54D15*
X80250Y-54750D03*
X82250Y-54750D03*
X79250Y-34750D03*
X81250Y-34750D03*
X83250Y-34750D03*
G54D13*
X58500Y-21250D03*
G54D14*
X58500Y-22250D03*
X58500Y-23250D03*
X58500Y-24250D03*
G54D13*
X58500Y-25250D03*
G54D14*
X58500Y-26250D03*
X58500Y-27250D03*
X58500Y-28250D03*
G54D15*
X86750Y-32000D03*
X86750Y-30000D03*
X67500Y-52250D03*
X69500Y-52250D03*
X71500Y-52250D03*
X67500Y-49750D03*
X69500Y-49750D03*
X71500Y-49750D03*
X67500Y-47250D03*
X69500Y-47250D03*
X71500Y-47250D03*
X67500Y-44750D03*
X69500Y-44750D03*
X71500Y-44750D03*
X67500Y-42250D03*
X69500Y-42250D03*
X71500Y-42250D03*
X67500Y-37250D03*
X69500Y-37250D03*
X71500Y-37250D03*
X67500Y-39750D03*
X69500Y-39750D03*
X71500Y-39750D03*
G54D13*
X61750Y-32500D03*
G54D14*
X62750Y-32500D03*
X63750Y-32500D03*
X64750Y-32500D03*
G54D13*
X65750Y-32500D03*
G54D14*
X66750Y-32500D03*
X67750Y-32500D03*
X68750Y-32500D03*
G54D13*
X69750Y-32500D03*
G54D14*
X70750Y-32500D03*
X71750Y-32500D03*
X72750Y-32500D03*
G54D13*
X73750Y-32500D03*
G54D14*
X74750Y-32500D03*
X75750Y-32500D03*
X76750Y-32500D03*
G54D13*
X77750Y-32500D03*
G54D14*
X78750Y-32500D03*
X79750Y-32500D03*
X80750Y-32500D03*
G54D13*
X81750Y-32500D03*
G54D14*
X82750Y-32500D03*
X83750Y-32500D03*
X84750Y-32500D03*
G54D16*
X67250Y-23000D03*
G54D13*
X95500Y-17500D03*
G54D14*
X96500Y-17500D03*
G54D17*
X85000Y-33250D03*
X85500Y-33250D03*
X86000Y-33250D03*
X72750Y-55000D03*
X72750Y-54500D03*
X72750Y-54000D03*
X69000Y-33250D03*
X69500Y-33250D03*
X70000Y-33250D03*
G54D15*
X95750Y-34750D03*
G54D11*
X92250Y-20000D03*
X92250Y-19000D03*
G54D12*
X92250Y-18000D03*
G54D11*
X92250Y-27000D03*
X92250Y-26000D03*
G54D12*
X92250Y-25000D03*
G54D15*
X69500Y-34500D03*
X69500Y-55000D03*
G54D18*
X95415Y-31616D03*
X95415Y-29884D03*
G54D13*
X73500Y-17500D03*
G54D14*
X72500Y-17500D03*
X71500Y-17500D03*
X70500Y-17500D03*
X69500Y-17500D03*
X68500Y-17500D03*
X67500Y-17500D03*
X66500Y-17500D03*
X65500Y-17500D03*
X64500Y-17500D03*
X63500Y-17500D03*
X62500Y-17500D03*
X61500Y-17500D03*
X60500Y-17500D03*
X59500Y-17500D03*
X58500Y-17500D03*
G54D16*
X70250Y-23000D03*
X73250Y-23000D03*
G54D15*
X87750Y-26750D03*
X59250Y-31750D03*
X87750Y-18500D03*
G54D13*
X96500Y-22500D03*
G54D14*
X96500Y-23500D03*
X96500Y-24500D03*
X96500Y-25500D03*
G54D13*
X92500Y-29250D03*
G54D14*
X92500Y-30250D03*
X92500Y-31250D03*
X92500Y-32250D03*
G54D15*
X90500Y-29500D03*
X90500Y-32000D03*
G54D17*
X93000Y-28250D03*
X93500Y-28250D03*
X94000Y-28250D03*
G54D15*
X95750Y-54750D03*
X76250Y-49000D03*
X86250Y-49000D03*
X76250Y-38250D03*
X86250Y-38250D03*
X74000Y-38250D03*
X74000Y-49000D03*
G54D19*
X75750Y-17750D03*
G54D20*
X76750Y-17750D03*
G54D19*
X95250Y-20500D03*
G54D20*
X96250Y-20500D03*
G54D19*
X80500Y-42500D03*
G54D20*
X79500Y-42500D03*
G54D12*
X83000Y-17250D03*
X82000Y-17250D03*
X81000Y-17250D03*
G54D19*
X80500Y-52000D03*
G54D20*
X79500Y-52000D03*
G54D21*
X63500Y-49500D03*
X62500Y-49500D03*
X61500Y-49500D03*
X60500Y-49500D03*
G54D12*
X61000Y-34000D03*
X60000Y-34000D03*
X59000Y-34000D03*
G54D22*
X65600Y-45000D03*
X65600Y-46000D03*
X65600Y-47000D03*
X65600Y-48000D03*
X65600Y-49000D03*
X65600Y-40000D03*
X65600Y-41000D03*
X65600Y-42000D03*
X65600Y-43000D03*
X65600Y-44000D03*
X65600Y-35000D03*
X65600Y-36000D03*
X65600Y-37000D03*
X65600Y-38000D03*
X65600Y-39000D03*
X58400Y-39000D03*
X58400Y-38000D03*
X58400Y-37000D03*
X58400Y-36000D03*
X58400Y-35000D03*
X58400Y-44000D03*
X58400Y-43000D03*
X58400Y-42000D03*
X58400Y-41000D03*
X58400Y-40000D03*
X58400Y-49000D03*
X58400Y-48000D03*
X58400Y-47000D03*
X58400Y-46000D03*
X58400Y-45000D03*
G54D18*
X61134Y-48415D03*
X62866Y-48415D03*
G54D15*
X64250Y-34400D03*
G54D13*
X59500Y-55500D03*
G54D14*
X60500Y-55500D03*
X61500Y-55500D03*
X62500Y-55500D03*
X63500Y-55500D03*
X64500Y-55500D03*
X65500Y-55500D03*
G54D13*
X65500Y-51500D03*
G54D14*
X64500Y-51500D03*
X63500Y-51500D03*
X62500Y-51500D03*
X61500Y-51500D03*
X60500Y-51500D03*
X59500Y-51500D03*
G54D23*
X61100Y-52625D03*
X61300Y-52625D03*
X61500Y-52625D03*
X61700Y-52625D03*
X61900Y-52625D03*
X61900Y-54375D03*
X61700Y-54375D03*
X61500Y-54375D03*
X61300Y-54375D03*
X61100Y-54375D03*
G54D17*
X66250Y-54250D03*
X66250Y-53750D03*
X66250Y-53250D03*
X62250Y-33250D03*
X62750Y-33250D03*
X63250Y-33250D03*
X66250Y-48750D03*
X66250Y-48250D03*
X66250Y-47750D03*
M02*
