G04 (created by PCBNEW (2014-01-10 BZR 4027)-stable) date Thursday, June 18, 2015 'amt' 10:00:05 am*
%MOIN*%
G04 Gerber Fmt 3.4, Leading zero omitted, Abs format*
%FSLAX34Y34*%
G01*
G70*
G90*
G04 APERTURE LIST*
%ADD10C,0.00590551*%
%ADD11R,0.06X0.06*%
%ADD12C,0.06*%
%ADD13C,0.07*%
%ADD14R,0.07X0.07*%
%ADD15R,0.055X0.055*%
%ADD16C,0.055*%
%ADD17R,0.0106X0.0394*%
%ADD18R,0.1181X0.0787*%
%ADD19C,0.14*%
%ADD20R,0.0590551X0.0590551*%
%ADD21R,0.025X0.045*%
%ADD22C,0.03*%
%ADD23R,0.045X0.025*%
%ADD24R,0.0906X0.0197*%
%ADD25R,0.0984X0.0787*%
%ADD26C,0.0354*%
%ADD27R,0.016X0.06*%
%ADD28R,0.06X0.016*%
%ADD29R,0.0590551X0.0787402*%
%ADD30R,0.0354331X0.0393701*%
%ADD31R,0.0315X0.0394*%
%ADD32R,0.0512X0.0118*%
%ADD33R,0.0394X0.0315*%
%ADD34R,0.06X0.08*%
%ADD35R,0.08X0.06*%
%ADD36R,0.0472441X0.0433071*%
%ADD37R,0.0197X0.0906*%
%ADD38R,0.0787X0.0984*%
%ADD39R,0.0472441X0.0590551*%
%ADD40R,0.0433071X0.0472441*%
G04 APERTURE END LIST*
G54D10*
G54D11*
X43500Y-17750D03*
G54D12*
X42500Y-17750D03*
X43500Y-16750D03*
X42500Y-16750D03*
X43500Y-15750D03*
X42500Y-15750D03*
G54D13*
X36750Y-42750D03*
X36750Y-41000D03*
G54D14*
X38627Y-42750D03*
G54D15*
X44000Y-50500D03*
G54D16*
X45000Y-50500D03*
G54D15*
X42000Y-50500D03*
G54D16*
X43000Y-50500D03*
G54D15*
X46000Y-50500D03*
G54D16*
X47000Y-50500D03*
X48000Y-50500D03*
X49000Y-50500D03*
G54D17*
X30650Y-19625D03*
X30450Y-19625D03*
X30250Y-19625D03*
X30050Y-19625D03*
X29850Y-19625D03*
X29850Y-21375D03*
X30050Y-21375D03*
X30250Y-21375D03*
X30450Y-21375D03*
X30650Y-21375D03*
X27650Y-19625D03*
X27450Y-19625D03*
X27250Y-19625D03*
X27050Y-19625D03*
X26850Y-19625D03*
X26850Y-21375D03*
X27050Y-21375D03*
X27250Y-21375D03*
X27450Y-21375D03*
X27650Y-21375D03*
X24650Y-19625D03*
X24450Y-19625D03*
X24250Y-19625D03*
X24050Y-19625D03*
X23850Y-19625D03*
X23850Y-21375D03*
X24050Y-21375D03*
X24250Y-21375D03*
X24450Y-21375D03*
X24650Y-21375D03*
G54D13*
X35872Y-34500D03*
X37250Y-34500D03*
G54D14*
X38627Y-34500D03*
G54D18*
X38750Y-36819D03*
X38750Y-39181D03*
G54D19*
X36250Y-49750D03*
X38250Y-49750D03*
X35250Y-29750D03*
X37250Y-29750D03*
X39250Y-29750D03*
G54D15*
X14500Y-16250D03*
G54D16*
X14500Y-17250D03*
X14500Y-18250D03*
X14500Y-19250D03*
G54D15*
X14500Y-20250D03*
G54D16*
X14500Y-21250D03*
X14500Y-22250D03*
X14500Y-23250D03*
G54D19*
X42750Y-27000D03*
X42750Y-25000D03*
X23500Y-47250D03*
X25500Y-47250D03*
X27500Y-47250D03*
X23500Y-44750D03*
X25500Y-44750D03*
X27500Y-44750D03*
X23500Y-42250D03*
X25500Y-42250D03*
X27500Y-42250D03*
X23500Y-39750D03*
X25500Y-39750D03*
X27500Y-39750D03*
X23500Y-37250D03*
X25500Y-37250D03*
X27500Y-37250D03*
X23500Y-32250D03*
X25500Y-32250D03*
X27500Y-32250D03*
X23500Y-34750D03*
X25500Y-34750D03*
X27500Y-34750D03*
G54D15*
X17750Y-27500D03*
G54D16*
X18750Y-27500D03*
X19750Y-27500D03*
X20750Y-27500D03*
G54D15*
X21750Y-27500D03*
G54D16*
X22750Y-27500D03*
X23750Y-27500D03*
X24750Y-27500D03*
G54D15*
X25750Y-27500D03*
G54D16*
X26750Y-27500D03*
X27750Y-27500D03*
X28750Y-27500D03*
G54D15*
X29750Y-27500D03*
G54D16*
X30750Y-27500D03*
X31750Y-27500D03*
X32750Y-27500D03*
G54D15*
X33750Y-27500D03*
G54D16*
X34750Y-27500D03*
X35750Y-27500D03*
X36750Y-27500D03*
G54D15*
X37750Y-27500D03*
G54D16*
X38750Y-27500D03*
X39750Y-27500D03*
X40750Y-27500D03*
G54D20*
X23250Y-18000D03*
G54D21*
X22950Y-19000D03*
X23550Y-19000D03*
X22050Y-16250D03*
X21450Y-16250D03*
X22050Y-17000D03*
X21450Y-17000D03*
G54D15*
X51500Y-12500D03*
G54D16*
X52500Y-12500D03*
G54D22*
X41000Y-28250D03*
X41500Y-28250D03*
X42000Y-28250D03*
X28750Y-50000D03*
X28750Y-49500D03*
X28750Y-49000D03*
X25000Y-28250D03*
X25500Y-28250D03*
X26000Y-28250D03*
G54D19*
X51750Y-29750D03*
G54D13*
X48250Y-15000D03*
X48250Y-14000D03*
G54D14*
X48250Y-13000D03*
G54D13*
X48250Y-22000D03*
X48250Y-21000D03*
G54D14*
X48250Y-20000D03*
G54D23*
X46500Y-12950D03*
X46500Y-13550D03*
X46500Y-22300D03*
X46500Y-21700D03*
X46500Y-19950D03*
X46500Y-20550D03*
X46500Y-15050D03*
X46500Y-14450D03*
X25250Y-20800D03*
X25250Y-20200D03*
G54D19*
X25500Y-29500D03*
X25500Y-50000D03*
G54D24*
X50392Y-26380D03*
X50392Y-26065D03*
X50392Y-25750D03*
X50392Y-25435D03*
X50392Y-25120D03*
G54D25*
X50431Y-27502D03*
X52596Y-27502D03*
X50431Y-23998D03*
X52596Y-23998D03*
G54D26*
X51415Y-26616D03*
X51415Y-24884D03*
G54D27*
X38000Y-21500D03*
X38315Y-21500D03*
X38630Y-21500D03*
X38945Y-21500D03*
X39260Y-21500D03*
X39575Y-21500D03*
X37685Y-21500D03*
X37370Y-21500D03*
X37055Y-21500D03*
X36740Y-21500D03*
X36425Y-21500D03*
X38000Y-17000D03*
X38315Y-17000D03*
X38630Y-17000D03*
X38945Y-17000D03*
X39260Y-17000D03*
X39575Y-17000D03*
X37685Y-17000D03*
X37370Y-17000D03*
X37055Y-17000D03*
X36740Y-17000D03*
X36425Y-17000D03*
G54D28*
X40250Y-19250D03*
X35750Y-19250D03*
X40250Y-18935D03*
X35750Y-18935D03*
X35750Y-18620D03*
X40250Y-18620D03*
X40250Y-18305D03*
X35750Y-18305D03*
X35750Y-17990D03*
X40250Y-17990D03*
X40250Y-17675D03*
X35750Y-17675D03*
X35750Y-19565D03*
X40250Y-19565D03*
X40250Y-19880D03*
X35750Y-19880D03*
X35750Y-20195D03*
X40250Y-20195D03*
X40250Y-20510D03*
X35750Y-20510D03*
X35750Y-20825D03*
X40250Y-20825D03*
G54D29*
X41000Y-12622D03*
X41000Y-15377D03*
G54D21*
X50800Y-19500D03*
X50200Y-19500D03*
X39550Y-22500D03*
X38950Y-22500D03*
X42050Y-20500D03*
X41450Y-20500D03*
X41050Y-17000D03*
X40450Y-17000D03*
G54D23*
X28250Y-20800D03*
X28250Y-20200D03*
G54D21*
X34700Y-21500D03*
X35300Y-21500D03*
G54D23*
X34500Y-17200D03*
X34500Y-17800D03*
G54D21*
X40450Y-16250D03*
X41050Y-16250D03*
G54D23*
X39500Y-14700D03*
X39500Y-15300D03*
X37000Y-14700D03*
X37000Y-15300D03*
G54D21*
X50800Y-18500D03*
X50200Y-18500D03*
X42050Y-19250D03*
X41450Y-19250D03*
X25950Y-19000D03*
X26550Y-19000D03*
G54D23*
X31250Y-20800D03*
X31250Y-20200D03*
G54D21*
X28950Y-19000D03*
X29550Y-19000D03*
G54D23*
X40250Y-22800D03*
X40250Y-22200D03*
X15500Y-13450D03*
X15500Y-14050D03*
G54D15*
X29500Y-12500D03*
G54D16*
X28500Y-12500D03*
X27500Y-12500D03*
X26500Y-12500D03*
X25500Y-12500D03*
X24500Y-12500D03*
X23500Y-12500D03*
X22500Y-12500D03*
X21500Y-12500D03*
X20500Y-12500D03*
X19500Y-12500D03*
X18500Y-12500D03*
X17500Y-12500D03*
X16500Y-12500D03*
X15500Y-12500D03*
X14500Y-12500D03*
G54D20*
X26250Y-18000D03*
X29250Y-18000D03*
G54D19*
X43750Y-21750D03*
G54D30*
X17679Y-15584D03*
X17679Y-14915D03*
X18820Y-15250D03*
G54D19*
X15250Y-26750D03*
X43750Y-13500D03*
G54D29*
X35250Y-15377D03*
X35250Y-12622D03*
G54D21*
X32050Y-16750D03*
X31450Y-16750D03*
G54D31*
X17500Y-24433D03*
X17125Y-23567D03*
X17875Y-23567D03*
X19250Y-24433D03*
X18875Y-23567D03*
X19625Y-23567D03*
X21000Y-24433D03*
X20625Y-23567D03*
X21375Y-23567D03*
G54D21*
X16700Y-17750D03*
X17300Y-17750D03*
X16700Y-18500D03*
X17300Y-18500D03*
X16700Y-19250D03*
X17300Y-19250D03*
X16700Y-20000D03*
X17300Y-20000D03*
G54D15*
X52500Y-17500D03*
G54D16*
X52500Y-18500D03*
X52500Y-19500D03*
X52500Y-20500D03*
G54D15*
X48500Y-24250D03*
G54D16*
X48500Y-25250D03*
X48500Y-26250D03*
X48500Y-27250D03*
G54D19*
X46500Y-24500D03*
X46500Y-27000D03*
G54D22*
X49000Y-23250D03*
X49500Y-23250D03*
X50000Y-23250D03*
G54D31*
X51250Y-22433D03*
X50875Y-21567D03*
X51625Y-21567D03*
G54D23*
X22250Y-18450D03*
X22250Y-19050D03*
X25250Y-18450D03*
X25250Y-19050D03*
X28250Y-18450D03*
X28250Y-19050D03*
X30500Y-12700D03*
X30500Y-13300D03*
G54D21*
X19700Y-18500D03*
X20300Y-18500D03*
X19700Y-17750D03*
X20300Y-17750D03*
X19700Y-20000D03*
X20300Y-20000D03*
X19700Y-19250D03*
X20300Y-19250D03*
G54D31*
X47000Y-48433D03*
X46625Y-47567D03*
X47375Y-47567D03*
X48500Y-48433D03*
X48125Y-47567D03*
X48875Y-47567D03*
G54D23*
X46250Y-43300D03*
X46250Y-42700D03*
X47000Y-42700D03*
X47000Y-43300D03*
X48000Y-39300D03*
X48000Y-38700D03*
X48750Y-38700D03*
X48750Y-39300D03*
X47000Y-43950D03*
X47000Y-44550D03*
X51750Y-44050D03*
X51750Y-43450D03*
G54D21*
X38550Y-41750D03*
X37950Y-41750D03*
G54D23*
X46250Y-44550D03*
X46250Y-43950D03*
X49750Y-39300D03*
X49750Y-38700D03*
X50500Y-38700D03*
X50500Y-39300D03*
X51750Y-42800D03*
X51750Y-42200D03*
X48000Y-41050D03*
X48000Y-40450D03*
X47250Y-46800D03*
X47250Y-46200D03*
X52500Y-45300D03*
X52500Y-44700D03*
X48750Y-40450D03*
X48750Y-41050D03*
X44750Y-42700D03*
X44750Y-43300D03*
X49500Y-32200D03*
X49500Y-32800D03*
X49250Y-29950D03*
X49250Y-30550D03*
X47250Y-29950D03*
X47250Y-30550D03*
X48250Y-29950D03*
X48250Y-30550D03*
X46250Y-29950D03*
X46250Y-30550D03*
X52250Y-33950D03*
X52250Y-34550D03*
X45500Y-42700D03*
X45500Y-43300D03*
X48750Y-32200D03*
X48750Y-32800D03*
G54D19*
X51750Y-49750D03*
G54D32*
X48150Y-33490D03*
X48150Y-33740D03*
X48150Y-34000D03*
X48150Y-34250D03*
X48150Y-34510D03*
X48150Y-34765D03*
X48150Y-35020D03*
X50350Y-35020D03*
X50350Y-34765D03*
X50350Y-34510D03*
X50350Y-34250D03*
X50350Y-33995D03*
X50350Y-33740D03*
X50350Y-33485D03*
G54D23*
X49500Y-45550D03*
X49500Y-44950D03*
X48750Y-45550D03*
X48750Y-44950D03*
X50500Y-41050D03*
X50500Y-40450D03*
X34500Y-33950D03*
X34500Y-34550D03*
G54D19*
X32250Y-44000D03*
X42250Y-44000D03*
X32250Y-33250D03*
X42250Y-33250D03*
X30000Y-33250D03*
X30000Y-44000D03*
G54D21*
X39450Y-31750D03*
X40050Y-31750D03*
G54D23*
X34500Y-41200D03*
X34500Y-41800D03*
G54D21*
X40050Y-35750D03*
X39450Y-35750D03*
G54D32*
X48150Y-42740D03*
X48150Y-42990D03*
X48150Y-43250D03*
X48150Y-43500D03*
X48150Y-43760D03*
X48150Y-44015D03*
X48150Y-44270D03*
X50350Y-44270D03*
X50350Y-44015D03*
X50350Y-43760D03*
X50350Y-43500D03*
X50350Y-43245D03*
X50350Y-42990D03*
X50350Y-42735D03*
G54D23*
X51500Y-34550D03*
X51500Y-33950D03*
X52500Y-43450D03*
X52500Y-44050D03*
X34500Y-42700D03*
X34500Y-43300D03*
X48000Y-46800D03*
X48000Y-46200D03*
G54D33*
X45433Y-44250D03*
X44567Y-44625D03*
X44567Y-43875D03*
G54D23*
X49750Y-41050D03*
X49750Y-40450D03*
X51750Y-45300D03*
X51750Y-44700D03*
G54D11*
X31750Y-12750D03*
G54D12*
X32750Y-12750D03*
G54D11*
X51250Y-15500D03*
G54D12*
X52250Y-15500D03*
G54D11*
X36500Y-37500D03*
G54D12*
X35500Y-37500D03*
G54D23*
X46750Y-34550D03*
X46750Y-33950D03*
X46000Y-34550D03*
X46000Y-33950D03*
X34500Y-35200D03*
X34500Y-35800D03*
G54D14*
X39000Y-12250D03*
X38000Y-12250D03*
X37000Y-12250D03*
G54D21*
X40200Y-49750D03*
X40800Y-49750D03*
G54D23*
X50500Y-36950D03*
X50500Y-37550D03*
X49750Y-36950D03*
X49750Y-37550D03*
X48000Y-37550D03*
X48000Y-36950D03*
X48750Y-37550D03*
X48750Y-36950D03*
X40000Y-24200D03*
X40000Y-24800D03*
X40750Y-24200D03*
X40750Y-24800D03*
G54D21*
X16200Y-14750D03*
X16800Y-14750D03*
X16800Y-15500D03*
X16200Y-15500D03*
X40800Y-50500D03*
X40200Y-50500D03*
G54D23*
X46500Y-46800D03*
X46500Y-46200D03*
G54D11*
X36500Y-47000D03*
G54D12*
X35500Y-47000D03*
G54D23*
X52250Y-35800D03*
X52250Y-35200D03*
X51500Y-35800D03*
X51500Y-35200D03*
X48750Y-46200D03*
X48750Y-46800D03*
G54D31*
X44750Y-32317D03*
X45125Y-33183D03*
X44375Y-33183D03*
G54D21*
X35200Y-35750D03*
X35800Y-35750D03*
G54D23*
X48000Y-32800D03*
X48000Y-32200D03*
X47250Y-32200D03*
X47250Y-32800D03*
X46500Y-32200D03*
X46500Y-32800D03*
X45750Y-32200D03*
X45750Y-32800D03*
G54D34*
X34850Y-45000D03*
X36150Y-45000D03*
X38350Y-45000D03*
X39650Y-45000D03*
G54D35*
X40000Y-41350D03*
X40000Y-42650D03*
G54D36*
X37915Y-14974D03*
X38584Y-14974D03*
X38584Y-15525D03*
X37915Y-15525D03*
G54D23*
X45250Y-33950D03*
X45250Y-34550D03*
X44500Y-34550D03*
X44500Y-33950D03*
X50250Y-29950D03*
X50250Y-30550D03*
G54D21*
X46800Y-31500D03*
X46200Y-31500D03*
G54D14*
X16000Y-29500D03*
X15000Y-29500D03*
X14000Y-29500D03*
G54D35*
X21600Y-40000D03*
X21600Y-41000D03*
X21600Y-42000D03*
X21600Y-43000D03*
X21600Y-44000D03*
X21600Y-35000D03*
X21600Y-36000D03*
X21600Y-37000D03*
X21600Y-38000D03*
X21600Y-39000D03*
X21600Y-30000D03*
X21600Y-31000D03*
X21600Y-32000D03*
X21600Y-33000D03*
X21600Y-34000D03*
X14400Y-34000D03*
X14400Y-33000D03*
X14400Y-32000D03*
X14400Y-31000D03*
X14400Y-30000D03*
X14400Y-39000D03*
X14400Y-38000D03*
X14400Y-37000D03*
X14400Y-36000D03*
X14400Y-35000D03*
X14400Y-44000D03*
X14400Y-43000D03*
X14400Y-42000D03*
X14400Y-41000D03*
X14400Y-40000D03*
G54D37*
X17370Y-42392D03*
X17685Y-42392D03*
X18000Y-42392D03*
X18315Y-42392D03*
X18630Y-42392D03*
G54D38*
X16248Y-42431D03*
X16248Y-44596D03*
X19752Y-42431D03*
X19752Y-44596D03*
G54D26*
X17134Y-43415D03*
X18866Y-43415D03*
G54D28*
X15750Y-37250D03*
X15750Y-37565D03*
X15750Y-37880D03*
X15750Y-38195D03*
X15750Y-38510D03*
X15750Y-38825D03*
X15750Y-36935D03*
X15750Y-36620D03*
X15750Y-36305D03*
X15750Y-35990D03*
X15750Y-35675D03*
X20250Y-37250D03*
X20250Y-37565D03*
X20250Y-37880D03*
X20250Y-38195D03*
X20250Y-38510D03*
X20250Y-38825D03*
X20250Y-36935D03*
X20250Y-36620D03*
X20250Y-36305D03*
X20250Y-35990D03*
X20250Y-35675D03*
G54D27*
X18000Y-39500D03*
X18000Y-35000D03*
X18315Y-39500D03*
X18315Y-35000D03*
X18630Y-35000D03*
X18630Y-39500D03*
X18945Y-39500D03*
X18945Y-35000D03*
X19260Y-35000D03*
X19260Y-39500D03*
X19575Y-39500D03*
X19575Y-35000D03*
X17685Y-35000D03*
X17685Y-39500D03*
X17370Y-39500D03*
X17370Y-35000D03*
X17055Y-35000D03*
X17055Y-39500D03*
X16740Y-39500D03*
X16740Y-35000D03*
X16425Y-35000D03*
X16425Y-39500D03*
G54D23*
X18400Y-30950D03*
X18400Y-31550D03*
X20500Y-30950D03*
X20500Y-31550D03*
X18400Y-32450D03*
X18400Y-33050D03*
X17750Y-41050D03*
X17750Y-40450D03*
X17025Y-41050D03*
X17025Y-40450D03*
X18500Y-40450D03*
X18500Y-41050D03*
X15500Y-41050D03*
X15500Y-40450D03*
X16225Y-41050D03*
X16225Y-40450D03*
X19800Y-30950D03*
X19800Y-31550D03*
X19100Y-30950D03*
X19100Y-31550D03*
G54D21*
X19800Y-32300D03*
X19200Y-32300D03*
G54D23*
X20600Y-32700D03*
X20600Y-33300D03*
X20500Y-39950D03*
X20500Y-39350D03*
X15500Y-34700D03*
X15500Y-35300D03*
X18400Y-33600D03*
X18400Y-34200D03*
X15500Y-39950D03*
X15500Y-39350D03*
G54D39*
X17856Y-30090D03*
X18643Y-30090D03*
X18643Y-28909D03*
X17856Y-28909D03*
G54D33*
X19167Y-40900D03*
X20033Y-40525D03*
X20033Y-41275D03*
G54D29*
X15750Y-33627D03*
X15750Y-30872D03*
X17300Y-30872D03*
X17300Y-33627D03*
G54D21*
X15900Y-43500D03*
X15300Y-43500D03*
G54D19*
X20250Y-29400D03*
G54D40*
X19775Y-33165D03*
X19775Y-33834D03*
X19224Y-33834D03*
X19224Y-33165D03*
G54D22*
X17250Y-28250D03*
X17750Y-28250D03*
X18250Y-28250D03*
X22250Y-42000D03*
X22250Y-41500D03*
X22250Y-41000D03*
M02*
