G04 (created by PCBNEW (22-Jun-2014 BZR 4027)-stable) date Fri 03 Apr 2015 12:50:18 PM MDT*
%MOIN*%
G04 Gerber Fmt 3.4, Leading zero omitted, Abs format*
%FSLAX34Y34*%
G01*
G70*
G90*
G04 APERTURE LIST*
%ADD10C,0.00590551*%
%ADD11C,0.07*%
%ADD12R,0.07X0.07*%
%ADD13R,0.055X0.055*%
%ADD14C,0.055*%
%ADD15R,0.0106X0.0394*%
%ADD16R,0.1181X0.0787*%
%ADD17C,0.14*%
%ADD18R,0.0590551X0.0590551*%
%ADD19R,0.025X0.045*%
%ADD20C,0.03*%
%ADD21R,0.045X0.025*%
%ADD22R,0.0906X0.0197*%
%ADD23R,0.0984X0.0787*%
%ADD24C,0.0354*%
%ADD25R,0.016X0.06*%
%ADD26R,0.06X0.016*%
%ADD27R,0.0590551X0.0787402*%
%ADD28R,0.0433071X0.0472441*%
%ADD29R,0.0354331X0.0393701*%
%ADD30R,0.0315X0.0394*%
%ADD31R,0.0512X0.0118*%
%ADD32R,0.06X0.08*%
%ADD33R,0.0394X0.0315*%
%ADD34R,0.06X0.06*%
%ADD35C,0.06*%
%ADD36R,0.08X0.06*%
%ADD37R,0.0197X0.0906*%
%ADD38R,0.0787X0.0984*%
%ADD39R,0.0472441X0.0590551*%
%ADD40R,0.0118X0.0512*%
G04 APERTURE END LIST*
G54D10*
G54D11*
X80750Y-47750D03*
X80750Y-46000D03*
G54D12*
X82627Y-47750D03*
G54D13*
X88000Y-55500D03*
G54D14*
X89000Y-55500D03*
G54D13*
X86000Y-55500D03*
G54D14*
X87000Y-55500D03*
G54D13*
X90000Y-55500D03*
G54D14*
X91000Y-55500D03*
X92000Y-55500D03*
X93000Y-55500D03*
G54D15*
X74650Y-24625D03*
X74450Y-24625D03*
X74250Y-24625D03*
X74050Y-24625D03*
X73850Y-24625D03*
X73850Y-26375D03*
X74050Y-26375D03*
X74250Y-26375D03*
X74450Y-26375D03*
X74650Y-26375D03*
X71650Y-24625D03*
X71450Y-24625D03*
X71250Y-24625D03*
X71050Y-24625D03*
X70850Y-24625D03*
X70850Y-26375D03*
X71050Y-26375D03*
X71250Y-26375D03*
X71450Y-26375D03*
X71650Y-26375D03*
X68650Y-24625D03*
X68450Y-24625D03*
X68250Y-24625D03*
X68050Y-24625D03*
X67850Y-24625D03*
X67850Y-26375D03*
X68050Y-26375D03*
X68250Y-26375D03*
X68450Y-26375D03*
X68650Y-26375D03*
G54D11*
X79872Y-39500D03*
X81250Y-39500D03*
G54D12*
X82627Y-39500D03*
G54D16*
X82750Y-41819D03*
X82750Y-44181D03*
G54D17*
X80250Y-54750D03*
X82250Y-54750D03*
X79250Y-34750D03*
X81250Y-34750D03*
X83250Y-34750D03*
G54D13*
X58500Y-21250D03*
G54D14*
X58500Y-22250D03*
X58500Y-23250D03*
X58500Y-24250D03*
G54D13*
X58500Y-25250D03*
G54D14*
X58500Y-26250D03*
X58500Y-27250D03*
X58500Y-28250D03*
G54D17*
X86750Y-32000D03*
X86750Y-30000D03*
X67500Y-52250D03*
X69500Y-52250D03*
X71500Y-52250D03*
X67500Y-49750D03*
X69500Y-49750D03*
X71500Y-49750D03*
X67500Y-47250D03*
X69500Y-47250D03*
X71500Y-47250D03*
X67500Y-44750D03*
X69500Y-44750D03*
X71500Y-44750D03*
X67500Y-42250D03*
X69500Y-42250D03*
X71500Y-42250D03*
X67500Y-37250D03*
X69500Y-37250D03*
X71500Y-37250D03*
X67500Y-39750D03*
X69500Y-39750D03*
X71500Y-39750D03*
G54D13*
X61750Y-32500D03*
G54D14*
X62750Y-32500D03*
X63750Y-32500D03*
X64750Y-32500D03*
G54D13*
X65750Y-32500D03*
G54D14*
X66750Y-32500D03*
X67750Y-32500D03*
X68750Y-32500D03*
G54D13*
X69750Y-32500D03*
G54D14*
X70750Y-32500D03*
X71750Y-32500D03*
X72750Y-32500D03*
G54D13*
X73750Y-32500D03*
G54D14*
X74750Y-32500D03*
X75750Y-32500D03*
X76750Y-32500D03*
G54D13*
X77750Y-32500D03*
G54D14*
X78750Y-32500D03*
X79750Y-32500D03*
X80750Y-32500D03*
G54D13*
X81750Y-32500D03*
G54D14*
X82750Y-32500D03*
X83750Y-32500D03*
X84750Y-32500D03*
G54D18*
X67250Y-23000D03*
G54D19*
X66950Y-24000D03*
X67550Y-24000D03*
X66050Y-21250D03*
X65450Y-21250D03*
X66050Y-22000D03*
X65450Y-22000D03*
G54D13*
X95500Y-17500D03*
G54D14*
X96500Y-17500D03*
G54D20*
X85000Y-33250D03*
X85500Y-33250D03*
X86000Y-33250D03*
X72750Y-55000D03*
X72750Y-54500D03*
X72750Y-54000D03*
X69000Y-33250D03*
X69500Y-33250D03*
X70000Y-33250D03*
G54D17*
X95750Y-34750D03*
G54D11*
X92250Y-20000D03*
X92250Y-19000D03*
G54D12*
X92250Y-18000D03*
G54D11*
X92250Y-27000D03*
X92250Y-26000D03*
G54D12*
X92250Y-25000D03*
G54D21*
X90500Y-17950D03*
X90500Y-18550D03*
X90500Y-27300D03*
X90500Y-26700D03*
X90500Y-24950D03*
X90500Y-25550D03*
X90500Y-20050D03*
X90500Y-19450D03*
X69250Y-25800D03*
X69250Y-25200D03*
G54D17*
X69500Y-34500D03*
X69500Y-55000D03*
G54D22*
X94392Y-31380D03*
X94392Y-31065D03*
X94392Y-30750D03*
X94392Y-30435D03*
X94392Y-30120D03*
G54D23*
X94431Y-32502D03*
X96596Y-32502D03*
X94431Y-28998D03*
X96596Y-28998D03*
G54D24*
X95415Y-31616D03*
X95415Y-29884D03*
G54D25*
X82000Y-26500D03*
X82315Y-26500D03*
X82630Y-26500D03*
X82945Y-26500D03*
X83260Y-26500D03*
X83575Y-26500D03*
X81685Y-26500D03*
X81370Y-26500D03*
X81055Y-26500D03*
X80740Y-26500D03*
X80425Y-26500D03*
X82000Y-22000D03*
X82315Y-22000D03*
X82630Y-22000D03*
X82945Y-22000D03*
X83260Y-22000D03*
X83575Y-22000D03*
X81685Y-22000D03*
X81370Y-22000D03*
X81055Y-22000D03*
X80740Y-22000D03*
X80425Y-22000D03*
G54D26*
X84250Y-24250D03*
X79750Y-24250D03*
X84250Y-23935D03*
X79750Y-23935D03*
X79750Y-23620D03*
X84250Y-23620D03*
X84250Y-23305D03*
X79750Y-23305D03*
X79750Y-22990D03*
X84250Y-22990D03*
X84250Y-22675D03*
X79750Y-22675D03*
X79750Y-24565D03*
X84250Y-24565D03*
X84250Y-24880D03*
X79750Y-24880D03*
X79750Y-25195D03*
X84250Y-25195D03*
X84250Y-25510D03*
X79750Y-25510D03*
X79750Y-25825D03*
X84250Y-25825D03*
G54D27*
X85000Y-17622D03*
X85000Y-20377D03*
G54D19*
X94800Y-24500D03*
X94200Y-24500D03*
X83550Y-27500D03*
X82950Y-27500D03*
X86050Y-25500D03*
X85450Y-25500D03*
X85050Y-22000D03*
X84450Y-22000D03*
G54D21*
X72250Y-25800D03*
X72250Y-25200D03*
G54D19*
X78700Y-26500D03*
X79300Y-26500D03*
G54D21*
X78500Y-22200D03*
X78500Y-22800D03*
G54D19*
X84450Y-21250D03*
X85050Y-21250D03*
G54D21*
X83500Y-19700D03*
X83500Y-20300D03*
X81000Y-19700D03*
X81000Y-20300D03*
G54D19*
X94800Y-23500D03*
X94200Y-23500D03*
X86050Y-24250D03*
X85450Y-24250D03*
X69950Y-24000D03*
X70550Y-24000D03*
G54D21*
X75250Y-25800D03*
X75250Y-25200D03*
G54D19*
X72950Y-24000D03*
X73550Y-24000D03*
G54D21*
X84250Y-27800D03*
X84250Y-27200D03*
X59500Y-18450D03*
X59500Y-19050D03*
G54D13*
X73500Y-17500D03*
G54D14*
X72500Y-17500D03*
X71500Y-17500D03*
X70500Y-17500D03*
X69500Y-17500D03*
X68500Y-17500D03*
X67500Y-17500D03*
X66500Y-17500D03*
X65500Y-17500D03*
X64500Y-17500D03*
X63500Y-17500D03*
X62500Y-17500D03*
X61500Y-17500D03*
X60500Y-17500D03*
X59500Y-17500D03*
X58500Y-17500D03*
G54D18*
X70250Y-23000D03*
X73250Y-23000D03*
G54D28*
X81974Y-20584D03*
X81974Y-19915D03*
X82525Y-19915D03*
X82525Y-20584D03*
G54D17*
X87750Y-26750D03*
G54D29*
X61679Y-20584D03*
X61679Y-19915D03*
X62820Y-20250D03*
G54D17*
X59250Y-31750D03*
X87750Y-18500D03*
G54D27*
X79250Y-20377D03*
X79250Y-17622D03*
G54D19*
X76050Y-21750D03*
X75450Y-21750D03*
G54D30*
X61500Y-29433D03*
X61125Y-28567D03*
X61875Y-28567D03*
X63250Y-29433D03*
X62875Y-28567D03*
X63625Y-28567D03*
X65000Y-29433D03*
X64625Y-28567D03*
X65375Y-28567D03*
G54D19*
X60700Y-22750D03*
X61300Y-22750D03*
X60700Y-23500D03*
X61300Y-23500D03*
X60700Y-24250D03*
X61300Y-24250D03*
X60700Y-25000D03*
X61300Y-25000D03*
G54D13*
X96500Y-22500D03*
G54D14*
X96500Y-23500D03*
X96500Y-24500D03*
X96500Y-25500D03*
G54D13*
X92500Y-29250D03*
G54D14*
X92500Y-30250D03*
X92500Y-31250D03*
X92500Y-32250D03*
G54D17*
X90500Y-29500D03*
X90500Y-32000D03*
G54D20*
X93000Y-28250D03*
X93500Y-28250D03*
X94000Y-28250D03*
G54D30*
X95250Y-27433D03*
X94875Y-26567D03*
X95625Y-26567D03*
G54D21*
X66250Y-23450D03*
X66250Y-24050D03*
X69250Y-23450D03*
X69250Y-24050D03*
X72250Y-23450D03*
X72250Y-24050D03*
X74500Y-17700D03*
X74500Y-18300D03*
G54D19*
X63700Y-23500D03*
X64300Y-23500D03*
X63700Y-22750D03*
X64300Y-22750D03*
X63700Y-25000D03*
X64300Y-25000D03*
X63700Y-24250D03*
X64300Y-24250D03*
G54D30*
X91000Y-53433D03*
X90625Y-52567D03*
X91375Y-52567D03*
X92500Y-53433D03*
X92125Y-52567D03*
X92875Y-52567D03*
G54D21*
X90250Y-48300D03*
X90250Y-47700D03*
X91000Y-47700D03*
X91000Y-48300D03*
X92000Y-44300D03*
X92000Y-43700D03*
X92750Y-43700D03*
X92750Y-44300D03*
X91000Y-48950D03*
X91000Y-49550D03*
X95750Y-49050D03*
X95750Y-48450D03*
G54D19*
X82550Y-46750D03*
X81950Y-46750D03*
G54D21*
X90250Y-49550D03*
X90250Y-48950D03*
X93750Y-44300D03*
X93750Y-43700D03*
X94500Y-43700D03*
X94500Y-44300D03*
X95750Y-47800D03*
X95750Y-47200D03*
X92000Y-46050D03*
X92000Y-45450D03*
X91250Y-51800D03*
X91250Y-51200D03*
X96500Y-50300D03*
X96500Y-49700D03*
X92750Y-45450D03*
X92750Y-46050D03*
X88750Y-47700D03*
X88750Y-48300D03*
X93500Y-37200D03*
X93500Y-37800D03*
X93250Y-34950D03*
X93250Y-35550D03*
X91250Y-34950D03*
X91250Y-35550D03*
X92250Y-34950D03*
X92250Y-35550D03*
X90250Y-34950D03*
X90250Y-35550D03*
X96250Y-38950D03*
X96250Y-39550D03*
X89500Y-47700D03*
X89500Y-48300D03*
X92750Y-37200D03*
X92750Y-37800D03*
G54D17*
X95750Y-54750D03*
G54D31*
X92150Y-38490D03*
X92150Y-38740D03*
X92150Y-39000D03*
X92150Y-39250D03*
X92150Y-39510D03*
X92150Y-39765D03*
X92150Y-40020D03*
X94350Y-40020D03*
X94350Y-39765D03*
X94350Y-39510D03*
X94350Y-39250D03*
X94350Y-38995D03*
X94350Y-38740D03*
X94350Y-38485D03*
G54D21*
X93500Y-50550D03*
X93500Y-49950D03*
X92750Y-50550D03*
X92750Y-49950D03*
X94500Y-46050D03*
X94500Y-45450D03*
X78500Y-38950D03*
X78500Y-39550D03*
G54D32*
X82350Y-50000D03*
X83650Y-50000D03*
X78850Y-50000D03*
X80150Y-50000D03*
G54D17*
X76250Y-49000D03*
X86250Y-49000D03*
X76250Y-38250D03*
X86250Y-38250D03*
X74000Y-38250D03*
X74000Y-49000D03*
G54D19*
X83450Y-36750D03*
X84050Y-36750D03*
G54D21*
X78500Y-46200D03*
X78500Y-46800D03*
G54D19*
X84050Y-40750D03*
X83450Y-40750D03*
G54D31*
X92150Y-47740D03*
X92150Y-47990D03*
X92150Y-48250D03*
X92150Y-48500D03*
X92150Y-48760D03*
X92150Y-49015D03*
X92150Y-49270D03*
X94350Y-49270D03*
X94350Y-49015D03*
X94350Y-48760D03*
X94350Y-48500D03*
X94350Y-48245D03*
X94350Y-47990D03*
X94350Y-47735D03*
G54D21*
X95500Y-39550D03*
X95500Y-38950D03*
X96500Y-48450D03*
X96500Y-49050D03*
X78500Y-47700D03*
X78500Y-48300D03*
X92000Y-51800D03*
X92000Y-51200D03*
G54D33*
X89433Y-49250D03*
X88567Y-49625D03*
X88567Y-48875D03*
G54D21*
X93750Y-46050D03*
X93750Y-45450D03*
X95750Y-50300D03*
X95750Y-49700D03*
G54D34*
X75750Y-17750D03*
G54D35*
X76750Y-17750D03*
G54D34*
X95250Y-20500D03*
G54D35*
X96250Y-20500D03*
G54D34*
X80500Y-42500D03*
G54D35*
X79500Y-42500D03*
G54D21*
X90750Y-39550D03*
X90750Y-38950D03*
X90000Y-39550D03*
X90000Y-38950D03*
X78500Y-40200D03*
X78500Y-40800D03*
G54D12*
X83000Y-17250D03*
X82000Y-17250D03*
X81000Y-17250D03*
G54D19*
X84200Y-54750D03*
X84800Y-54750D03*
G54D21*
X94500Y-41950D03*
X94500Y-42550D03*
X93750Y-41950D03*
X93750Y-42550D03*
X92000Y-42550D03*
X92000Y-41950D03*
X92750Y-42550D03*
X92750Y-41950D03*
X84000Y-29200D03*
X84000Y-29800D03*
X84750Y-29200D03*
X84750Y-29800D03*
G54D19*
X60200Y-19750D03*
X60800Y-19750D03*
X60800Y-20500D03*
X60200Y-20500D03*
X84800Y-55500D03*
X84200Y-55500D03*
G54D21*
X90500Y-51800D03*
X90500Y-51200D03*
G54D34*
X80500Y-52000D03*
G54D35*
X79500Y-52000D03*
G54D21*
X96250Y-40800D03*
X96250Y-40200D03*
X95500Y-40800D03*
X95500Y-40200D03*
X92750Y-51200D03*
X92750Y-51800D03*
G54D30*
X88750Y-37317D03*
X89125Y-38183D03*
X88375Y-38183D03*
G54D36*
X84000Y-47650D03*
X84000Y-46350D03*
G54D19*
X79200Y-40750D03*
X79800Y-40750D03*
G54D21*
X92000Y-37800D03*
X92000Y-37200D03*
X91250Y-37200D03*
X91250Y-37800D03*
X90500Y-37200D03*
X90500Y-37800D03*
X89750Y-37200D03*
X89750Y-37800D03*
G54D12*
X61000Y-34000D03*
X60000Y-34000D03*
X59000Y-34000D03*
G54D36*
X65600Y-45000D03*
X65600Y-46000D03*
X65600Y-47000D03*
X65600Y-48000D03*
X65600Y-49000D03*
X65600Y-40000D03*
X65600Y-41000D03*
X65600Y-42000D03*
X65600Y-43000D03*
X65600Y-44000D03*
X65600Y-35000D03*
X65600Y-36000D03*
X65600Y-37000D03*
X65600Y-38000D03*
X65600Y-39000D03*
X58400Y-39000D03*
X58400Y-38000D03*
X58400Y-37000D03*
X58400Y-36000D03*
X58400Y-35000D03*
X58400Y-44000D03*
X58400Y-43000D03*
X58400Y-42000D03*
X58400Y-41000D03*
X58400Y-40000D03*
X58400Y-49000D03*
X58400Y-48000D03*
X58400Y-47000D03*
X58400Y-46000D03*
X58400Y-45000D03*
G54D37*
X61370Y-47392D03*
X61685Y-47392D03*
X62000Y-47392D03*
X62315Y-47392D03*
X62630Y-47392D03*
G54D38*
X60248Y-47431D03*
X60248Y-49596D03*
X63752Y-47431D03*
X63752Y-49596D03*
G54D24*
X61134Y-48415D03*
X62866Y-48415D03*
G54D26*
X59750Y-42250D03*
X59750Y-42565D03*
X59750Y-42880D03*
X59750Y-43195D03*
X59750Y-43510D03*
X59750Y-43825D03*
X59750Y-41935D03*
X59750Y-41620D03*
X59750Y-41305D03*
X59750Y-40990D03*
X59750Y-40675D03*
X64250Y-42250D03*
X64250Y-42565D03*
X64250Y-42880D03*
X64250Y-43195D03*
X64250Y-43510D03*
X64250Y-43825D03*
X64250Y-41935D03*
X64250Y-41620D03*
X64250Y-41305D03*
X64250Y-40990D03*
X64250Y-40675D03*
G54D25*
X62000Y-44500D03*
X62000Y-40000D03*
X62315Y-44500D03*
X62315Y-40000D03*
X62630Y-40000D03*
X62630Y-44500D03*
X62945Y-44500D03*
X62945Y-40000D03*
X63260Y-40000D03*
X63260Y-44500D03*
X63575Y-44500D03*
X63575Y-40000D03*
X61685Y-40000D03*
X61685Y-44500D03*
X61370Y-44500D03*
X61370Y-40000D03*
X61055Y-40000D03*
X61055Y-44500D03*
X60740Y-44500D03*
X60740Y-40000D03*
X60425Y-40000D03*
X60425Y-44500D03*
G54D21*
X62400Y-35950D03*
X62400Y-36550D03*
X64500Y-35950D03*
X64500Y-36550D03*
X62400Y-37450D03*
X62400Y-38050D03*
X61750Y-46050D03*
X61750Y-45450D03*
X61025Y-46050D03*
X61025Y-45450D03*
X62500Y-46050D03*
X62500Y-45450D03*
X59500Y-45450D03*
X59500Y-46050D03*
X60225Y-46050D03*
X60225Y-45450D03*
X63800Y-35950D03*
X63800Y-36550D03*
X63100Y-35950D03*
X63100Y-36550D03*
G54D19*
X63800Y-37300D03*
X63200Y-37300D03*
G54D21*
X64600Y-37700D03*
X64600Y-38300D03*
G54D28*
X63224Y-38984D03*
X63224Y-38315D03*
X63775Y-38315D03*
X63775Y-38984D03*
G54D21*
X64500Y-44950D03*
X64500Y-44350D03*
X59500Y-39700D03*
X59500Y-40300D03*
X62400Y-38600D03*
X62400Y-39200D03*
X59500Y-44950D03*
X59500Y-44350D03*
G54D39*
X61856Y-35090D03*
X62643Y-35090D03*
X62643Y-33909D03*
X61856Y-33909D03*
G54D33*
X63167Y-45900D03*
X64033Y-45525D03*
X64033Y-46275D03*
G54D27*
X59750Y-38627D03*
X59750Y-35872D03*
X61300Y-35872D03*
X61300Y-38627D03*
G54D19*
X59900Y-48500D03*
X59300Y-48500D03*
G54D17*
X64250Y-34400D03*
G54D40*
X61740Y-54600D03*
X61990Y-54600D03*
X62250Y-54600D03*
X62500Y-54600D03*
X62760Y-54600D03*
X63015Y-54600D03*
X63270Y-54600D03*
X63270Y-52400D03*
X63015Y-52400D03*
X62760Y-52400D03*
X62500Y-52400D03*
X62245Y-52400D03*
X61990Y-52400D03*
X61735Y-52400D03*
G54D13*
X59500Y-55500D03*
G54D14*
X60500Y-55500D03*
X61500Y-55500D03*
X62500Y-55500D03*
X63500Y-55500D03*
X64500Y-55500D03*
X65500Y-55500D03*
G54D13*
X65500Y-51500D03*
G54D14*
X64500Y-51500D03*
X63500Y-51500D03*
X62500Y-51500D03*
X61500Y-51500D03*
X60500Y-51500D03*
X59500Y-51500D03*
G54D20*
X66250Y-54250D03*
X66250Y-53750D03*
X66250Y-53250D03*
X62250Y-33250D03*
X62750Y-33250D03*
X63250Y-33250D03*
X66250Y-48750D03*
X66250Y-48250D03*
X66250Y-47750D03*
M02*
