M48
;DRILL file {Pcbnew (22-Jun-2014 BZR 4027)-stable} date Fri 03 Apr 2015 12:50:21 PM MDT
;FORMAT={-:-/ absolute / inch / decimal}
FMAT,2
INCH,TZ
T1C0.030
T2C0.035
%
G90
G05
M72
T1
X6.225Y-3.325
X6.275Y-3.325
X6.325Y-3.325
X6.625Y-4.775
X6.625Y-4.825
X6.625Y-4.875
X6.625Y-5.325
X6.625Y-5.375
X6.625Y-5.425
X6.9Y-3.325
X6.95Y-3.325
X7.Y-3.325
X7.275Y-5.4
X7.275Y-5.45
X7.275Y-5.5
X8.5Y-3.325
X8.55Y-3.325
X8.6Y-3.325
X9.3Y-2.825
X9.35Y-2.825
X9.4Y-2.825
T2
X6.1134Y-4.8415
X6.2866Y-4.8415
X9.5415Y-2.9884
X9.5415Y-3.1616
T0
M30
