M48
;DRILL file {Pcbnew (22-Jun-2014 BZR 4027)-stable} date Fri 03 Apr 2015 12:50:21 PM MDT
;FORMAT={-:-/ absolute / inch / decimal}
FMAT,2
INCH,TZ
T1C0.025
T2C0.031
T3C0.032
T4C0.040
T5C0.100
T6C0.120
%
G90
G05
M72
T1
X5.92Y-3.955
X5.93Y-3.5
X5.935Y-4.69
X5.95Y-4.52
X5.95Y-4.925
X5.975Y-3.5872
X5.975Y-3.695
X5.975Y-3.8628
X6.Y-2.05
X6.Y-3.475
X6.04Y-4.195
X6.04Y-4.335
X6.05Y-1.925
X6.05Y-4.86
X6.0625Y-4.6647
X6.075Y-3.475
X6.075Y-4.75
X6.09Y-3.815
X6.115Y-4.295
X6.12Y-4.79
X6.125Y-3.475
X6.13Y-3.5872
X6.13Y-3.725
X6.135Y-4.085
X6.15Y-1.9
X6.15Y-2.175
X6.15Y-2.275
X6.15Y-2.8
X6.15Y-4.38
X6.15Y-4.885
X6.17Y-4.12
X6.175Y-2.7
X6.18Y-3.725
X6.195Y-3.505
X6.2Y-2.2
X6.2Y-2.35
X6.2Y-2.8
X6.2Y-4.085
X6.21Y-3.805
X6.21Y-3.86
X6.23Y-4.12
X6.235Y-4.235
X6.235Y-4.28
X6.235Y-4.325
X6.235Y-4.37
X6.24Y-4.5
X6.25Y-1.875
X6.25Y-2.425
X6.25Y-2.625
X6.25Y-2.8
X6.25Y-4.885
X6.275Y-2.725
X6.275Y-4.12
X6.3Y-3.68
X6.32Y-4.12
X6.32Y-4.245
X6.3224Y-3.7926
X6.325Y-2.5
X6.325Y-2.65
X6.325Y-2.8
X6.35Y-1.95
X6.35Y-4.875
X6.36Y-4.675
X6.365Y-4.35
X6.37Y-3.99
X6.375Y-2.125
X6.375Y-3.525
X6.375Y-3.68
X6.405Y-4.485
X6.425Y-4.725
X6.44Y-3.68
X6.45Y-2.225
X6.45Y-2.8
X6.46Y-4.55
X6.465Y-4.655
X6.525Y-2.125
X6.575Y-2.75
X6.6Y-2.625
X6.6Y-2.85
X6.625Y-2.65
X6.625Y-2.875
X6.65Y-2.45
X6.65Y-2.675
X6.65Y-2.825
X6.675Y-2.775
X6.825Y-2.1
X6.825Y-2.3
X6.85Y-2.
X6.925Y-2.625
X6.95Y-2.45
X6.975Y-2.675
X7.Y-1.825
X7.Y-1.975
X7.05Y-1.975
X7.075Y-2.7
X7.125Y-2.1
X7.125Y-2.3
X7.125Y-2.725
X7.125Y-2.975
X7.15Y-2.7
X7.15Y-2.95
X7.225Y-2.625
X7.25Y-2.45
X7.35Y-2.675
X7.35Y-2.925
X7.375Y-2.7
X7.375Y-2.9
X7.375Y-2.975
X7.4Y-2.725
X7.4Y-3.15
X7.425Y-2.1
X7.425Y-2.3
X7.425Y-2.75
X7.425Y-3.175
X7.475Y-1.825
X7.475Y-2.175
X7.475Y-2.95
X7.525Y-1.85
X7.525Y-2.075
X7.525Y-2.625
X7.575Y-2.95
X7.675Y-2.
X7.675Y-2.075
X7.675Y-2.15
X7.675Y-2.975
X7.7Y-1.925
X7.7Y-2.55
X7.725Y-1.9
X7.725Y-2.525
X7.75Y-1.875
X7.75Y-2.15
X7.75Y-2.375
X7.75Y-2.975
X7.775Y-2.175
X7.775Y-2.825
X7.775Y-2.925
X7.8Y-2.325
X7.8Y-2.95
X7.825Y-1.75
X7.825Y-2.45
X7.825Y-2.975
X7.85Y-2.475
X7.85Y-2.95
X7.875Y-2.7
X7.875Y-2.9
X7.875Y-4.7
X7.9Y-2.275
X7.9Y-2.4
X7.925Y-2.425
X7.925Y-2.9
X8.025Y-1.775
X8.075Y-2.725
X8.075Y-2.9
X8.1Y-1.8
X8.1Y-2.15
X8.1Y-2.55
X8.1Y-2.75
X8.1Y-3.125
X8.125Y-1.925
X8.125Y-2.275
X8.125Y-2.725
X8.125Y-3.1
X8.15Y-2.75
X8.15Y-3.075
X8.175Y-2.725
X8.175Y-3.05
X8.175Y-3.15
X8.175Y-4.1
X8.175Y-4.15
X8.175Y-4.2
X8.175Y-4.25
X8.175Y-4.35
X8.175Y-4.4
X8.175Y-4.45
X8.175Y-4.5
X8.2Y-1.8
X8.2Y-1.9
X8.2Y-2.75
X8.2Y-3.025
X8.2Y-4.125
X8.2Y-4.175
X8.2Y-4.225
X8.2Y-4.375
X8.2Y-4.425
X8.2Y-4.475
X8.225Y-2.775
X8.225Y-3.
X8.225Y-4.1
X8.225Y-4.25
X8.225Y-4.35
X8.225Y-4.5
X8.25Y-1.8
X8.25Y-2.1
X8.25Y-2.275
X8.25Y-4.125
X8.25Y-4.225
X8.25Y-4.375
X8.25Y-4.475
X8.275Y-2.75
X8.275Y-2.9
X8.275Y-4.1
X8.275Y-4.25
X8.275Y-4.35
X8.275Y-4.5
X8.3Y-1.925
X8.3Y-2.575
X8.3Y-4.125
X8.3Y-4.225
X8.3Y-4.375
X8.3Y-4.475
X8.325Y-2.4
X8.325Y-2.7
X8.325Y-4.25
X8.325Y-4.35
X8.325Y-4.5
X8.35Y-2.3
X8.35Y-2.975
X8.35Y-4.125
X8.35Y-4.175
X8.35Y-4.225
X8.35Y-4.375
X8.35Y-4.425
X8.35Y-4.475
X8.375Y-1.825
X8.375Y-2.15
X8.375Y-2.775
X8.425Y-1.75
X8.425Y-1.95
X8.425Y-2.125
X8.45Y-3.675
X8.45Y-4.075
X8.475Y-2.
X8.5Y-2.45
X8.5Y-3.375
X8.55Y-2.2
X8.575Y-1.825
X8.575Y-2.3
X8.575Y-2.85
X8.6Y-1.775
X8.6Y-2.275
X8.6Y-2.875
X8.6Y-3.375
X8.625Y-1.85
X8.625Y-2.6
X8.65Y-1.875
X8.65Y-2.35
X8.675Y-1.9
X8.675Y-2.325
X8.675Y-2.8
X8.725Y-1.95
X8.775Y-2.425
X8.825Y-4.675
X8.825Y-4.825
X8.875Y-4.625
X8.875Y-4.75
X8.975Y-4.
X8.975Y-5.45
X9.05Y-1.9
X9.075Y-3.975
X9.075Y-4.2
X9.1Y-4.675
X9.1Y-4.85
X9.125Y-4.075
X9.125Y-4.6
X9.125Y-5.1
X9.15Y-3.925
X9.15Y-4.825
X9.175Y-4.475
X9.175Y-5.4
X9.2Y-3.8
X9.25Y-4.15
X9.25Y-4.45
X9.25Y-4.625
X9.25Y-4.95
X9.275Y-3.525
X9.275Y-3.925
X9.275Y-4.975
X9.3Y-3.6
X9.3Y-3.8
X9.3Y-4.85
X9.325Y-3.925
X9.325Y-4.975
X9.35Y-2.975
X9.35Y-3.15
X9.35Y-3.8
X9.35Y-4.85
X9.35Y-5.25
X9.375Y-3.875
X9.375Y-4.075
X9.375Y-4.35
X9.375Y-4.625
X9.375Y-4.775
X9.375Y-4.9
X9.4Y-3.825
X9.4Y-4.275
X9.4Y-4.5
X9.4Y-5.05
X9.425Y-2.725
X9.45Y-4.525
X9.45Y-4.75
X9.45Y-4.95
X9.5Y-4.8
X9.5Y-4.875
X9.55Y-3.875
X9.55Y-4.1
X9.55Y-4.25
X9.55Y-5.125
X9.575Y-2.6
X9.6Y-4.15
X9.6Y-4.925
X9.625Y-3.875
X9.625Y-4.375
X9.65Y-4.6
X9.65Y-5.05
T2
X6.725Y-2.3
X7.025Y-2.3
X7.325Y-2.3
T3
X5.85Y-1.75
X5.85Y-2.125
X5.85Y-2.225
X5.85Y-2.325
X5.85Y-2.425
X5.85Y-2.525
X5.85Y-2.625
X5.85Y-2.725
X5.85Y-2.825
X5.95Y-1.75
X5.95Y-5.15
X5.95Y-5.55
X6.05Y-1.75
X6.05Y-5.15
X6.05Y-5.55
X6.15Y-1.75
X6.15Y-5.15
X6.15Y-5.55
X6.175Y-3.25
X6.25Y-1.75
X6.25Y-5.15
X6.25Y-5.55
X6.275Y-3.25
X6.35Y-1.75
X6.35Y-5.15
X6.35Y-5.55
X6.375Y-3.25
X6.45Y-1.75
X6.45Y-5.15
X6.45Y-5.55
X6.475Y-3.25
X6.55Y-1.75
X6.55Y-5.15
X6.55Y-5.55
X6.575Y-3.25
X6.65Y-1.75
X6.675Y-3.25
X6.75Y-1.75
X6.775Y-3.25
X6.85Y-1.75
X6.875Y-3.25
X6.95Y-1.75
X6.975Y-3.25
X7.05Y-1.75
X7.075Y-3.25
X7.15Y-1.75
X7.175Y-3.25
X7.25Y-1.75
X7.275Y-3.25
X7.35Y-1.75
X7.375Y-3.25
X7.475Y-3.25
X7.575Y-1.775
X7.575Y-3.25
X7.675Y-1.775
X7.675Y-3.25
X7.775Y-3.25
X7.875Y-3.25
X7.95Y-4.25
X7.95Y-5.2
X7.975Y-3.25
X8.05Y-4.25
X8.05Y-5.2
X8.075Y-3.25
X8.175Y-3.25
X8.275Y-3.25
X8.375Y-3.25
X8.475Y-3.25
X8.6Y-5.55
X8.7Y-5.55
X8.8Y-5.55
X8.9Y-5.55
X9.Y-5.55
X9.1Y-5.55
X9.2Y-5.55
X9.25Y-2.925
X9.25Y-3.025
X9.25Y-3.125
X9.25Y-3.225
X9.3Y-5.55
X9.525Y-2.05
X9.55Y-1.75
X9.625Y-2.05
X9.65Y-1.75
X9.65Y-2.25
X9.65Y-2.35
X9.65Y-2.45
X9.65Y-2.55
T4
X5.85Y-3.5
X5.85Y-3.6
X5.85Y-3.7
X5.85Y-3.8
X5.85Y-3.9
X5.85Y-4.
X5.85Y-4.1
X5.85Y-4.2
X5.85Y-4.3
X5.85Y-4.4
X5.85Y-4.5
X5.85Y-4.6
X5.85Y-4.7
X5.85Y-4.8
X5.85Y-4.9
X6.55Y-3.5
X6.55Y-3.6
X6.55Y-3.7
X6.55Y-3.8
X6.55Y-3.9
X6.55Y-4.
X6.55Y-4.1
X6.55Y-4.2
X6.55Y-4.3
X6.55Y-4.4
X6.55Y-4.5
X6.55Y-4.6
X6.55Y-4.7
X6.55Y-4.8
X6.55Y-4.9
X7.9872Y-3.95
X8.075Y-4.6
X8.075Y-4.775
X8.125Y-3.95
X8.2628Y-3.95
X8.2628Y-4.775
X9.225Y-1.8
X9.225Y-1.9
X9.225Y-2.
X9.225Y-2.5
X9.225Y-2.6
X9.225Y-2.7
T5
X6.75Y-3.725
X6.75Y-3.975
X6.75Y-4.225
X6.75Y-4.475
X6.75Y-4.725
X6.75Y-4.975
X6.75Y-5.225
X6.95Y-3.725
X6.95Y-3.975
X6.95Y-4.225
X6.95Y-4.475
X6.95Y-4.725
X6.95Y-4.975
X6.95Y-5.225
X7.15Y-3.725
X7.15Y-3.975
X7.15Y-4.225
X7.15Y-4.475
X7.15Y-4.725
X7.15Y-4.975
X7.15Y-5.225
X7.625Y-3.825
X7.625Y-4.9
X7.925Y-3.475
X8.025Y-5.475
X8.125Y-3.475
X8.225Y-5.475
X8.325Y-3.475
X8.625Y-3.825
X8.625Y-4.9
X8.675Y-3.
X8.675Y-3.2
T6
X5.925Y-3.175
X6.425Y-3.44
X6.95Y-3.45
X6.95Y-5.5
X7.4Y-3.825
X7.4Y-4.9
X8.775Y-1.85
X8.775Y-2.675
X9.05Y-2.95
X9.05Y-3.2
X9.575Y-3.475
X9.575Y-5.475
T0
M30
