M48
;DRILL file {Pcbnew (2014-01-10 BZR 4027)-stable} date Thursday, June 18, 2015 'amt' 10:00:07 am
;FORMAT={-:-/ absolute / inch / decimal}
FMAT,2
INCH,TZ
T1C0.025
T2C0.031
T3C0.032
T4C0.040
T5C0.100
T6C0.120
%
G90
G05
M72
T1
X1.52Y-3.455
X1.53Y-3.
X1.535Y-4.19
X1.55Y-4.02
X1.55Y-4.425
X1.575Y-3.0872
X1.575Y-3.195
X1.575Y-3.3628
X1.6Y-1.55
X1.6Y-2.975
X1.64Y-3.695
X1.64Y-3.835
X1.65Y-1.425
X1.65Y-4.36
X1.6625Y-4.1647
X1.675Y-2.975
X1.675Y-4.25
X1.69Y-3.315
X1.715Y-3.795
X1.72Y-4.29
X1.725Y-2.975
X1.73Y-3.0872
X1.73Y-3.225
X1.735Y-3.585
X1.75Y-1.4
X1.75Y-1.675
X1.75Y-1.775
X1.75Y-2.3
X1.75Y-3.88
X1.75Y-4.385
X1.77Y-3.62
X1.775Y-2.2
X1.78Y-3.225
X1.795Y-3.005
X1.8Y-1.7
X1.8Y-1.85
X1.8Y-2.3
X1.8Y-3.585
X1.81Y-3.305
X1.81Y-3.36
X1.83Y-3.62
X1.835Y-3.735
X1.835Y-3.78
X1.835Y-3.825
X1.835Y-3.87
X1.84Y-4.
X1.85Y-1.375
X1.85Y-1.925
X1.85Y-2.125
X1.85Y-2.3
X1.85Y-4.385
X1.875Y-2.225
X1.875Y-3.62
X1.9Y-3.18
X1.92Y-3.62
X1.92Y-3.745
X1.9224Y-3.3835
X1.925Y-2.
X1.925Y-2.15
X1.925Y-2.3
X1.95Y-1.45
X1.95Y-4.375
X1.96Y-4.175
X1.965Y-3.85
X1.97Y-3.49
X1.975Y-1.625
X1.975Y-3.025
X1.975Y-3.18
X2.005Y-3.985
X2.025Y-4.225
X2.04Y-3.18
X2.05Y-1.725
X2.05Y-2.3
X2.06Y-4.05
X2.065Y-4.155
X2.125Y-1.625
X2.175Y-2.25
X2.2Y-2.125
X2.2Y-2.35
X2.225Y-2.15
X2.225Y-2.375
X2.25Y-1.95
X2.25Y-2.175
X2.25Y-2.325
X2.275Y-2.275
X2.425Y-1.6
X2.425Y-1.8
X2.45Y-1.5
X2.525Y-2.125
X2.55Y-1.95
X2.575Y-2.175
X2.6Y-1.325
X2.6Y-1.475
X2.65Y-1.475
X2.675Y-2.2
X2.725Y-1.6
X2.725Y-1.8
X2.725Y-2.225
X2.725Y-2.475
X2.75Y-2.2
X2.75Y-2.45
X2.825Y-2.125
X2.85Y-1.95
X2.95Y-2.175
X2.95Y-2.425
X2.975Y-2.2
X2.975Y-2.4
X2.975Y-2.475
X3.Y-2.225
X3.Y-2.65
X3.025Y-1.6
X3.025Y-1.8
X3.025Y-2.25
X3.025Y-2.675
X3.075Y-1.325
X3.075Y-1.675
X3.075Y-2.45
X3.125Y-1.35
X3.125Y-1.575
X3.125Y-2.125
X3.175Y-2.45
X3.275Y-1.5
X3.275Y-1.575
X3.275Y-1.65
X3.275Y-2.475
X3.3Y-1.425
X3.3Y-2.05
X3.325Y-1.4
X3.325Y-2.025
X3.35Y-1.375
X3.35Y-1.65
X3.35Y-1.875
X3.35Y-2.475
X3.375Y-1.675
X3.375Y-2.325
X3.375Y-2.425
X3.4Y-1.825
X3.4Y-2.45
X3.425Y-1.25
X3.425Y-1.95
X3.425Y-2.475
X3.45Y-1.975
X3.45Y-2.45
X3.475Y-2.2
X3.475Y-2.4
X3.475Y-4.2
X3.5Y-1.775
X3.5Y-1.9
X3.525Y-1.925
X3.525Y-2.4
X3.625Y-1.275
X3.675Y-2.225
X3.675Y-2.4
X3.7Y-1.3
X3.7Y-1.65
X3.7Y-2.05
X3.7Y-2.25
X3.7Y-2.625
X3.725Y-1.425
X3.725Y-1.775
X3.725Y-2.225
X3.725Y-2.6
X3.75Y-2.25
X3.75Y-2.575
X3.775Y-2.225
X3.775Y-2.55
X3.775Y-2.65
X3.775Y-3.6
X3.775Y-3.65
X3.775Y-3.7
X3.775Y-3.75
X3.775Y-3.85
X3.775Y-3.9
X3.775Y-3.95
X3.775Y-4.
X3.8Y-1.45
X3.8Y-2.25
X3.8Y-2.525
X3.8Y-3.625
X3.8Y-3.675
X3.8Y-3.725
X3.8Y-3.875
X3.8Y-3.925
X3.8Y-3.975
X3.825Y-2.275
X3.825Y-2.5
X3.825Y-3.6
X3.825Y-3.75
X3.825Y-3.85
X3.825Y-4.
X3.85Y-1.3
X3.85Y-1.6
X3.85Y-1.775
X3.85Y-3.625
X3.85Y-3.725
X3.85Y-3.875
X3.85Y-3.975
X3.875Y-2.25
X3.875Y-2.4
X3.875Y-3.6
X3.875Y-3.75
X3.875Y-3.85
X3.875Y-4.
X3.9Y-2.075
X3.9Y-3.625
X3.9Y-3.725
X3.9Y-3.875
X3.9Y-3.975
X3.925Y-1.9
X3.925Y-2.2
X3.925Y-3.75
X3.925Y-3.85
X3.925Y-4.
X3.95Y-2.475
X3.95Y-3.625
X3.95Y-3.675
X3.95Y-3.725
X3.95Y-3.875
X3.95Y-3.925
X3.95Y-3.975
X3.975Y-1.325
X3.975Y-1.65
X3.975Y-2.275
X4.Y-1.35
X4.025Y-1.25
X4.025Y-1.45
X4.025Y-1.625
X4.025Y-2.125
X4.05Y-3.175
X4.05Y-3.575
X4.075Y-1.5
X4.1Y-1.95
X4.1Y-2.875
X4.15Y-1.675
X4.175Y-1.375
X4.175Y-1.85
X4.175Y-2.35
X4.2Y-1.275
X4.2Y-1.35
X4.2Y-2.375
X4.2Y-2.875
X4.25Y-1.325
X4.25Y-1.425
X4.275Y-1.925
X4.3Y-1.475
X4.425Y-4.175
X4.425Y-4.325
X4.475Y-4.125
X4.475Y-4.25
X4.525Y-3.375
X4.575Y-3.55
X4.575Y-4.95
X4.59Y-3.1
X4.65Y-1.4
X4.675Y-3.475
X4.675Y-3.7
X4.68Y-3.06
X4.7Y-4.175
X4.7Y-4.35
X4.725Y-3.15
X4.725Y-3.575
X4.725Y-4.1
X4.725Y-4.6
X4.75Y-3.425
X4.75Y-4.325
X4.775Y-3.975
X4.775Y-4.9
X4.8Y-3.3
X4.85Y-3.65
X4.85Y-3.95
X4.85Y-4.125
X4.85Y-4.45
X4.875Y-3.025
X4.875Y-3.425
X4.875Y-4.475
X4.9Y-3.1
X4.9Y-3.3
X4.9Y-4.35
X4.925Y-3.425
X4.925Y-4.475
X4.95Y-2.475
X4.95Y-2.65
X4.95Y-3.3
X4.95Y-4.35
X4.95Y-4.75
X4.975Y-3.375
X4.975Y-3.575
X4.975Y-3.85
X4.975Y-4.125
X4.975Y-4.275
X4.975Y-4.4
X5.Y-3.325
X5.Y-3.775
X5.Y-4.
X5.Y-4.55
X5.025Y-2.225
X5.05Y-4.025
X5.05Y-4.25
X5.05Y-4.45
X5.1Y-4.3
X5.1Y-4.375
X5.15Y-3.375
X5.15Y-3.6
X5.15Y-3.75
X5.15Y-4.625
X5.175Y-2.1
X5.2Y-3.65
X5.2Y-4.425
X5.225Y-3.375
X5.225Y-3.875
X5.25Y-4.1
X5.25Y-4.55
T2
X2.325Y-1.8
X2.625Y-1.8
X2.925Y-1.8
T3
X1.45Y-1.25
X1.45Y-1.625
X1.45Y-1.725
X1.45Y-1.825
X1.45Y-1.925
X1.45Y-2.025
X1.45Y-2.125
X1.45Y-2.225
X1.45Y-2.325
X1.55Y-1.25
X1.65Y-1.25
X1.75Y-1.25
X1.775Y-2.75
X1.85Y-1.25
X1.875Y-2.75
X1.95Y-1.25
X1.975Y-2.75
X2.05Y-1.25
X2.075Y-2.75
X2.15Y-1.25
X2.175Y-2.75
X2.25Y-1.25
X2.275Y-2.75
X2.35Y-1.25
X2.375Y-2.75
X2.45Y-1.25
X2.475Y-2.75
X2.55Y-1.25
X2.575Y-2.75
X2.65Y-1.25
X2.675Y-2.75
X2.75Y-1.25
X2.775Y-2.75
X2.85Y-1.25
X2.875Y-2.75
X2.95Y-1.25
X2.975Y-2.75
X3.075Y-2.75
X3.175Y-1.275
X3.175Y-2.75
X3.275Y-1.275
X3.275Y-2.75
X3.375Y-2.75
X3.475Y-2.75
X3.55Y-3.75
X3.55Y-4.7
X3.575Y-2.75
X3.65Y-3.75
X3.65Y-4.7
X3.675Y-2.75
X3.775Y-2.75
X3.875Y-2.75
X3.975Y-2.75
X4.075Y-2.75
X4.2Y-5.05
X4.3Y-5.05
X4.4Y-5.05
X4.5Y-5.05
X4.6Y-5.05
X4.7Y-5.05
X4.8Y-5.05
X4.85Y-2.425
X4.85Y-2.525
X4.85Y-2.625
X4.85Y-2.725
X4.9Y-5.05
X5.125Y-1.55
X5.15Y-1.25
X5.225Y-1.55
X5.25Y-1.25
X5.25Y-1.75
X5.25Y-1.85
X5.25Y-1.95
X5.25Y-2.05
T4
X1.45Y-3.
X1.45Y-3.1
X1.45Y-3.2
X1.45Y-3.3
X1.45Y-3.4
X1.45Y-3.5
X1.45Y-3.6
X1.45Y-3.7
X1.45Y-3.8
X1.45Y-3.9
X1.45Y-4.
X1.45Y-4.1
X1.45Y-4.2
X1.45Y-4.3
X1.45Y-4.4
X2.15Y-3.
X2.15Y-3.1
X2.15Y-3.2
X2.15Y-3.3
X2.15Y-3.4
X2.15Y-3.5
X2.15Y-3.6
X2.15Y-3.7
X2.15Y-3.8
X2.15Y-3.9
X2.15Y-4.
X2.15Y-4.1
X2.15Y-4.2
X2.15Y-4.3
X2.15Y-4.4
X3.5872Y-3.45
X3.675Y-4.1
X3.675Y-4.275
X3.725Y-3.45
X3.8628Y-3.45
X3.8628Y-4.275
X4.25Y-1.575
X4.25Y-1.675
X4.25Y-1.775
X4.35Y-1.575
X4.35Y-1.675
X4.35Y-1.775
X4.825Y-1.3
X4.825Y-1.4
X4.825Y-1.5
X4.825Y-2.
X4.825Y-2.1
X4.825Y-2.2
T5
X2.35Y-3.225
X2.35Y-3.475
X2.35Y-3.725
X2.35Y-3.975
X2.35Y-4.225
X2.35Y-4.475
X2.35Y-4.725
X2.55Y-3.225
X2.55Y-3.475
X2.55Y-3.725
X2.55Y-3.975
X2.55Y-4.225
X2.55Y-4.475
X2.55Y-4.725
X2.75Y-3.225
X2.75Y-3.475
X2.75Y-3.725
X2.75Y-3.975
X2.75Y-4.225
X2.75Y-4.475
X2.75Y-4.725
X3.225Y-3.325
X3.225Y-4.4
X3.525Y-2.975
X3.625Y-4.975
X3.725Y-2.975
X3.825Y-4.975
X3.925Y-2.975
X4.225Y-3.325
X4.225Y-4.4
X4.275Y-2.5
X4.275Y-2.7
T6
X1.525Y-2.675
X2.025Y-2.94
X2.55Y-2.95
X2.55Y-5.
X3.Y-3.325
X3.Y-4.4
X4.375Y-1.35
X4.375Y-2.175
X4.65Y-2.45
X4.65Y-2.7
X5.175Y-2.975
X5.175Y-4.975
T0
M30
