G04 (created by PCBNEW (2014-01-10 BZR 4027)-stable) date Thursday, June 18, 2015 'amt' 10:00:05 am*
%MOIN*%
G04 Gerber Fmt 3.4, Leading zero omitted, Abs format*
%FSLAX34Y34*%
G01*
G70*
G90*
G04 APERTURE LIST*
%ADD10C,0.00590551*%
%ADD11R,0.06X0.06*%
%ADD12C,0.06*%
%ADD13C,0.07*%
%ADD14R,0.07X0.07*%
%ADD15R,0.055X0.055*%
%ADD16C,0.055*%
%ADD17C,0.14*%
%ADD18R,0.0590551X0.0590551*%
%ADD19R,0.06X0.1*%
%ADD20R,0.08X0.06*%
%ADD21C,0.027*%
%ADD22C,0.035*%
%ADD23C,0.03*%
%ADD24C,0.012*%
%ADD25C,0.02*%
%ADD26C,0.008*%
%ADD27C,0.007*%
%ADD28C,0.01*%
G04 APERTURE END LIST*
G54D10*
G54D11*
X43500Y-17750D03*
G54D12*
X42500Y-17750D03*
X43500Y-16750D03*
X42500Y-16750D03*
X43500Y-15750D03*
X42500Y-15750D03*
G54D13*
X36750Y-42750D03*
X36750Y-41000D03*
G54D14*
X38627Y-42750D03*
G54D15*
X44000Y-50500D03*
G54D16*
X45000Y-50500D03*
G54D15*
X42000Y-50500D03*
G54D16*
X43000Y-50500D03*
G54D15*
X46000Y-50500D03*
G54D16*
X47000Y-50500D03*
X48000Y-50500D03*
X49000Y-50500D03*
G54D13*
X35872Y-34500D03*
X37250Y-34500D03*
G54D14*
X38627Y-34500D03*
G54D17*
X36250Y-49750D03*
X38250Y-49750D03*
X35250Y-29750D03*
X37250Y-29750D03*
X39250Y-29750D03*
G54D15*
X14500Y-16250D03*
G54D16*
X14500Y-17250D03*
X14500Y-18250D03*
X14500Y-19250D03*
G54D15*
X14500Y-20250D03*
G54D16*
X14500Y-21250D03*
X14500Y-22250D03*
X14500Y-23250D03*
G54D17*
X42750Y-27000D03*
X42750Y-25000D03*
X23500Y-47250D03*
X25500Y-47250D03*
X27500Y-47250D03*
X23500Y-44750D03*
X25500Y-44750D03*
X27500Y-44750D03*
X23500Y-42250D03*
X25500Y-42250D03*
X27500Y-42250D03*
X23500Y-39750D03*
X25500Y-39750D03*
X27500Y-39750D03*
X23500Y-37250D03*
X25500Y-37250D03*
X27500Y-37250D03*
X23500Y-32250D03*
X25500Y-32250D03*
X27500Y-32250D03*
X23500Y-34750D03*
X25500Y-34750D03*
X27500Y-34750D03*
G54D15*
X17750Y-27500D03*
G54D16*
X18750Y-27500D03*
X19750Y-27500D03*
X20750Y-27500D03*
G54D15*
X21750Y-27500D03*
G54D16*
X22750Y-27500D03*
X23750Y-27500D03*
X24750Y-27500D03*
G54D15*
X25750Y-27500D03*
G54D16*
X26750Y-27500D03*
X27750Y-27500D03*
X28750Y-27500D03*
G54D15*
X29750Y-27500D03*
G54D16*
X30750Y-27500D03*
X31750Y-27500D03*
X32750Y-27500D03*
G54D15*
X33750Y-27500D03*
G54D16*
X34750Y-27500D03*
X35750Y-27500D03*
X36750Y-27500D03*
G54D15*
X37750Y-27500D03*
G54D16*
X38750Y-27500D03*
X39750Y-27500D03*
X40750Y-27500D03*
G54D18*
X23250Y-18000D03*
G54D15*
X51500Y-12500D03*
G54D16*
X52500Y-12500D03*
G54D17*
X51750Y-29750D03*
G54D13*
X48250Y-15000D03*
X48250Y-14000D03*
G54D14*
X48250Y-13000D03*
G54D13*
X48250Y-22000D03*
X48250Y-21000D03*
G54D14*
X48250Y-20000D03*
G54D17*
X25500Y-29500D03*
X25500Y-50000D03*
G54D15*
X29500Y-12500D03*
G54D16*
X28500Y-12500D03*
X27500Y-12500D03*
X26500Y-12500D03*
X25500Y-12500D03*
X24500Y-12500D03*
X23500Y-12500D03*
X22500Y-12500D03*
X21500Y-12500D03*
X20500Y-12500D03*
X19500Y-12500D03*
X18500Y-12500D03*
X17500Y-12500D03*
X16500Y-12500D03*
X15500Y-12500D03*
X14500Y-12500D03*
G54D18*
X26250Y-18000D03*
X29250Y-18000D03*
G54D17*
X43750Y-21750D03*
X15250Y-26750D03*
X43750Y-13500D03*
G54D15*
X52500Y-17500D03*
G54D16*
X52500Y-18500D03*
X52500Y-19500D03*
X52500Y-20500D03*
G54D15*
X48500Y-24250D03*
G54D16*
X48500Y-25250D03*
X48500Y-26250D03*
X48500Y-27250D03*
G54D17*
X46500Y-24500D03*
X46500Y-27000D03*
X51750Y-49750D03*
X32250Y-44000D03*
X42250Y-44000D03*
X32250Y-33250D03*
X42250Y-33250D03*
X30000Y-33250D03*
X30000Y-44000D03*
G54D11*
X31750Y-12750D03*
G54D12*
X32750Y-12750D03*
G54D11*
X51250Y-15500D03*
G54D12*
X52250Y-15500D03*
G54D11*
X36500Y-37500D03*
G54D12*
X35500Y-37500D03*
G54D14*
X39000Y-12250D03*
X38000Y-12250D03*
X37000Y-12250D03*
G54D11*
X36500Y-47000D03*
G54D12*
X35500Y-47000D03*
G54D19*
X19500Y-44500D03*
X18500Y-44500D03*
X17500Y-44500D03*
X16500Y-44500D03*
G54D14*
X16000Y-29500D03*
X15000Y-29500D03*
X14000Y-29500D03*
G54D20*
X21600Y-40000D03*
X21600Y-41000D03*
X21600Y-42000D03*
X21600Y-43000D03*
X21600Y-44000D03*
X21600Y-35000D03*
X21600Y-36000D03*
X21600Y-37000D03*
X21600Y-38000D03*
X21600Y-39000D03*
X21600Y-30000D03*
X21600Y-31000D03*
X21600Y-32000D03*
X21600Y-33000D03*
X21600Y-34000D03*
X14400Y-34000D03*
X14400Y-33000D03*
X14400Y-32000D03*
X14400Y-31000D03*
X14400Y-30000D03*
X14400Y-39000D03*
X14400Y-38000D03*
X14400Y-37000D03*
X14400Y-36000D03*
X14400Y-35000D03*
X14400Y-44000D03*
X14400Y-43000D03*
X14400Y-42000D03*
X14400Y-41000D03*
X14400Y-40000D03*
G54D17*
X20250Y-29400D03*
G54D21*
X43000Y-14750D03*
X19750Y-16250D03*
X21250Y-16250D03*
X35000Y-17750D03*
X40250Y-14500D03*
X40250Y-16250D03*
X30750Y-16750D03*
X30750Y-13250D03*
G54D22*
X16625Y-41647D03*
G54D21*
X38750Y-24000D03*
X38750Y-22500D03*
G54D22*
X18350Y-38700D03*
X16750Y-29750D03*
X18350Y-37350D03*
X18350Y-38250D03*
X15300Y-30000D03*
X18350Y-37800D03*
X18000Y-35850D03*
X20400Y-31800D03*
X17300Y-32250D03*
X19750Y-31800D03*
X17700Y-36200D03*
X17800Y-32250D03*
X19000Y-31800D03*
X17350Y-35850D03*
X18500Y-43850D03*
X17500Y-43850D03*
X20650Y-41550D03*
X20600Y-40500D03*
G54D21*
X39750Y-16500D03*
X39750Y-13250D03*
X19500Y-14500D03*
G54D22*
X19200Y-36200D03*
G54D21*
X18500Y-13750D03*
X33500Y-13750D03*
X33500Y-16500D03*
X33250Y-14000D03*
X33250Y-20250D03*
X17500Y-14000D03*
G54D22*
X18750Y-36200D03*
G54D21*
X33000Y-20500D03*
X33000Y-14250D03*
X16500Y-14250D03*
G54D22*
X18300Y-36200D03*
G54D21*
X32750Y-16500D03*
X32750Y-15750D03*
X32750Y-15000D03*
X24500Y-15000D03*
G54D22*
X15750Y-33627D03*
X15750Y-31950D03*
X15350Y-41900D03*
G54D21*
X41750Y-18500D03*
X41750Y-13750D03*
X17500Y-16750D03*
X17500Y-17750D03*
X17500Y-23000D03*
X18000Y-17000D03*
X18000Y-18500D03*
X18000Y-23000D03*
X20500Y-17250D03*
X20500Y-23000D03*
X37000Y-16500D03*
X37000Y-13000D03*
X31250Y-13500D03*
X31250Y-15750D03*
X41750Y-23500D03*
X22000Y-23500D03*
X22000Y-21250D03*
X18500Y-19250D03*
X18500Y-21250D03*
X18500Y-23000D03*
X42000Y-23750D03*
X22250Y-23750D03*
X22250Y-21500D03*
X19250Y-23000D03*
X19250Y-21500D03*
X19250Y-20000D03*
X22500Y-21750D03*
X33750Y-23250D03*
X33750Y-16750D03*
X22500Y-23250D03*
X51500Y-36000D03*
X51500Y-37500D03*
X51500Y-46250D03*
X38000Y-25250D03*
X38000Y-22500D03*
X37500Y-25750D03*
X37500Y-22500D03*
X37000Y-26250D03*
X37000Y-22500D03*
X33500Y-24750D03*
X33500Y-18750D03*
X32750Y-24750D03*
X35250Y-19250D03*
X35250Y-24000D03*
X36750Y-24000D03*
X34500Y-19750D03*
X34500Y-24500D03*
X47250Y-35750D03*
X49750Y-35750D03*
X49750Y-33750D03*
X18750Y-22250D03*
X22750Y-22750D03*
X26750Y-22000D03*
X27500Y-22000D03*
X27500Y-24500D03*
X30750Y-24500D03*
X29750Y-22000D03*
X29750Y-24000D03*
X34750Y-24000D03*
X39500Y-24750D03*
X30250Y-22500D03*
X30250Y-26750D03*
X50000Y-37750D03*
X50000Y-33250D03*
G54D22*
X17950Y-30050D03*
X19750Y-30250D03*
G54D21*
X42500Y-14250D03*
X37250Y-14250D03*
X36250Y-12750D03*
X42000Y-13500D03*
X38500Y-13000D03*
X47750Y-39750D03*
X48500Y-39500D03*
X39500Y-39250D03*
X39500Y-39750D03*
X39250Y-38500D03*
X38750Y-38500D03*
X38250Y-38500D03*
X37750Y-38500D03*
X37750Y-39000D03*
X37750Y-39500D03*
X37750Y-40000D03*
X38250Y-40000D03*
X38750Y-40000D03*
X39250Y-40000D03*
X39000Y-39750D03*
X38500Y-39750D03*
X39500Y-38750D03*
X39000Y-38750D03*
X38500Y-38750D03*
X38000Y-38750D03*
X38000Y-39250D03*
X38000Y-39750D03*
X39500Y-37250D03*
X39500Y-36250D03*
X39000Y-36250D03*
X38500Y-36250D03*
X38000Y-36250D03*
X38000Y-36750D03*
X38000Y-37250D03*
X38500Y-37250D03*
X39000Y-37250D03*
X39500Y-36750D03*
X39250Y-37500D03*
X38750Y-37500D03*
X38250Y-37500D03*
X37750Y-37500D03*
X37750Y-37000D03*
X37750Y-36500D03*
X37750Y-36000D03*
X38250Y-36000D03*
X38750Y-36000D03*
X40750Y-15000D03*
X40250Y-12500D03*
G54D22*
X17250Y-29750D03*
X16900Y-33150D03*
X18100Y-33050D03*
X19650Y-38500D03*
G54D21*
X40000Y-13500D03*
X40250Y-21250D03*
X26500Y-14750D03*
X42500Y-13250D03*
X30250Y-16000D03*
X30250Y-18000D03*
X27250Y-16000D03*
X27250Y-18000D03*
X24250Y-16000D03*
X24250Y-18000D03*
X48750Y-34250D03*
X49000Y-33000D03*
X49000Y-31000D03*
X49000Y-43500D03*
X48750Y-44750D03*
X45900Y-31000D03*
X46800Y-30600D03*
X49250Y-44750D03*
X49500Y-33000D03*
X49250Y-34250D03*
X48750Y-30250D03*
X49500Y-43500D03*
X44750Y-41250D03*
X44750Y-42500D03*
G54D22*
X17200Y-42900D03*
X18400Y-40000D03*
X16500Y-43600D03*
G54D21*
X38250Y-25000D03*
X38250Y-22750D03*
X37750Y-25500D03*
X37750Y-22250D03*
X37250Y-26000D03*
X37250Y-22250D03*
X34000Y-24500D03*
X34000Y-18250D03*
X31750Y-24500D03*
X35000Y-19000D03*
X34250Y-24750D03*
X34250Y-19500D03*
X47500Y-43250D03*
X17750Y-22000D03*
X21750Y-22500D03*
X25750Y-21750D03*
X27250Y-22250D03*
X27250Y-24750D03*
X29750Y-24750D03*
X29500Y-21750D03*
X29500Y-24250D03*
X33750Y-24250D03*
X30000Y-22250D03*
X30000Y-26500D03*
X37750Y-26500D03*
G54D22*
X16000Y-29750D03*
G54D21*
X41500Y-16750D03*
X38500Y-16000D03*
X38000Y-14500D03*
X40500Y-31750D03*
X40500Y-35750D03*
X48000Y-33000D03*
X52000Y-36500D03*
X49750Y-44000D03*
X52000Y-44250D03*
X50000Y-45500D03*
X49500Y-47500D03*
X47750Y-49000D03*
X34750Y-42000D03*
X16000Y-15500D03*
X39750Y-22750D03*
X42000Y-12750D03*
X42000Y-28750D03*
X41000Y-28750D03*
X50250Y-22250D03*
X46500Y-14000D03*
X34250Y-12500D03*
X41000Y-19500D03*
X37000Y-20500D03*
X31250Y-21250D03*
X28250Y-21250D03*
X25250Y-21250D03*
X28500Y-19500D03*
X25500Y-19500D03*
X22500Y-19500D03*
X39000Y-20750D03*
X37250Y-17750D03*
X36750Y-22250D03*
X39250Y-22000D03*
X42750Y-19250D03*
X38500Y-17750D03*
X39250Y-19000D03*
X34750Y-22000D03*
G54D22*
X19224Y-33834D03*
X15500Y-44250D03*
X19600Y-41750D03*
X16750Y-42500D03*
X19500Y-43750D03*
X20250Y-42250D03*
X15750Y-30872D03*
X17300Y-30872D03*
X18100Y-33600D03*
X20050Y-39850D03*
X19200Y-37450D03*
X15500Y-40200D03*
X16400Y-38350D03*
X17150Y-37950D03*
X15200Y-34550D03*
X16400Y-36950D03*
X17500Y-38800D03*
X19700Y-34900D03*
G54D21*
X47500Y-34250D03*
X48500Y-36500D03*
X49750Y-42750D03*
X49750Y-41250D03*
X48500Y-44500D03*
X48500Y-41250D03*
X50500Y-44500D03*
X50000Y-40000D03*
X52500Y-41000D03*
X52500Y-45500D03*
X47250Y-41000D03*
X47250Y-46000D03*
X46750Y-34750D03*
X46750Y-37000D03*
X45750Y-35500D03*
X45750Y-49500D03*
X49500Y-26500D03*
X49500Y-24750D03*
X26000Y-13250D03*
X26000Y-14750D03*
X51500Y-33750D03*
X49750Y-38500D03*
X52250Y-33750D03*
X52250Y-38750D03*
X47250Y-31500D03*
X45250Y-33750D03*
X51750Y-21000D03*
X51000Y-43750D03*
X51000Y-43000D03*
X50500Y-40250D03*
X50500Y-42500D03*
X44250Y-43250D03*
X44250Y-41750D03*
X47000Y-41750D03*
X47000Y-43500D03*
G54D23*
X48250Y-15000D02*
X49750Y-15000D01*
X50750Y-12500D02*
X51500Y-12500D01*
X50250Y-13000D02*
X50750Y-12500D01*
X50250Y-14500D02*
X50250Y-13000D01*
X49750Y-15000D02*
X50250Y-14500D01*
X48250Y-20000D02*
X48250Y-15000D01*
G54D24*
X45250Y-13250D02*
X45250Y-14500D01*
X45000Y-14750D02*
X45250Y-14500D01*
X45000Y-14750D02*
X43000Y-14750D01*
X21250Y-16250D02*
X19750Y-16250D01*
X37000Y-12250D02*
X35250Y-12250D01*
X35000Y-12500D02*
X35000Y-17750D01*
X35250Y-12250D02*
X35000Y-12500D01*
X45500Y-13000D02*
X48250Y-13000D01*
X45250Y-13250D02*
X45500Y-13000D01*
X40250Y-16250D02*
X40250Y-14500D01*
X30750Y-13250D02*
X30750Y-16750D01*
G54D25*
X15272Y-43000D02*
X14500Y-43000D01*
X16625Y-41647D02*
X15272Y-43000D01*
G54D26*
X38750Y-22500D02*
X38750Y-24000D01*
G54D27*
X18850Y-42350D02*
X18850Y-39800D01*
X20500Y-44000D02*
X18850Y-42350D01*
X21500Y-44000D02*
X20500Y-44000D01*
X18850Y-39800D02*
X18859Y-39800D01*
X18500Y-39440D02*
X18859Y-39800D01*
X18500Y-38850D02*
X18500Y-39440D01*
X18350Y-38700D02*
X18500Y-38850D01*
X21500Y-43000D02*
X21500Y-43350D01*
X19000Y-42300D02*
X19000Y-39700D01*
X20200Y-43500D02*
X19000Y-42300D01*
X21350Y-43500D02*
X20200Y-43500D01*
X21500Y-43350D02*
X21350Y-43500D01*
X18650Y-39350D02*
X18650Y-38600D01*
X19000Y-39700D02*
X18650Y-39350D01*
X18000Y-37350D02*
X16550Y-35900D01*
X16550Y-30300D02*
X16550Y-35900D01*
X18350Y-37350D02*
X18000Y-37350D01*
X16550Y-29950D02*
X16750Y-29750D01*
X16550Y-30300D02*
X16550Y-29950D01*
X19300Y-42204D02*
X19300Y-39500D01*
X20245Y-43150D02*
X19300Y-42204D01*
X20650Y-43150D02*
X20245Y-43150D01*
X19000Y-39200D02*
X19000Y-38000D01*
X19000Y-38000D02*
X18350Y-37350D01*
X19300Y-39500D02*
X19000Y-39200D01*
X18650Y-38600D02*
X18300Y-38250D01*
X16150Y-36100D02*
X18300Y-38250D01*
X18350Y-38250D02*
X18300Y-38250D01*
X16150Y-30750D02*
X16150Y-29900D01*
X16150Y-30750D02*
X16150Y-36100D01*
X15000Y-29700D02*
X15000Y-29000D01*
X15300Y-30000D02*
X15000Y-29700D01*
X21500Y-42000D02*
X21500Y-42050D01*
X20247Y-43350D02*
X19150Y-42252D01*
X20800Y-43350D02*
X20247Y-43350D01*
X21000Y-43150D02*
X20800Y-43350D01*
X21000Y-42550D02*
X21000Y-43150D01*
X21500Y-42050D02*
X21000Y-42550D01*
X19150Y-42252D02*
X19150Y-39600D01*
X18800Y-39250D02*
X18800Y-38250D01*
X19150Y-39600D02*
X18800Y-39250D01*
X18800Y-38250D02*
X18350Y-37800D01*
X21500Y-41000D02*
X21500Y-41100D01*
X20800Y-43000D02*
X20650Y-43150D01*
X20800Y-42500D02*
X20800Y-43000D01*
X21000Y-42300D02*
X20800Y-42500D01*
X21000Y-41600D02*
X21000Y-42300D01*
X21500Y-41100D02*
X21000Y-41600D01*
X20250Y-32250D02*
X20250Y-31950D01*
X20500Y-33500D02*
X20500Y-32500D01*
X20500Y-32500D02*
X20250Y-32250D01*
X18250Y-35600D02*
X20300Y-35600D01*
X20500Y-35400D02*
X20500Y-33500D01*
X20300Y-35600D02*
X20500Y-35400D01*
X18000Y-35850D02*
X18250Y-35600D01*
X20250Y-31950D02*
X20400Y-31800D01*
X18400Y-31600D02*
X18250Y-31750D01*
X19500Y-31500D02*
X18500Y-31500D01*
X19750Y-31750D02*
X19500Y-31500D01*
X19750Y-31800D02*
X19750Y-31750D01*
X18500Y-31500D02*
X18400Y-31600D01*
X17800Y-31750D02*
X17300Y-32250D01*
X18250Y-31750D02*
X17800Y-31750D01*
X20250Y-32750D02*
X19750Y-32250D01*
X19750Y-32250D02*
X19750Y-31800D01*
X17950Y-35450D02*
X20100Y-35450D01*
X20300Y-32800D02*
X20250Y-32750D01*
X20300Y-35250D02*
X20300Y-32800D01*
X20100Y-35450D02*
X20300Y-35250D01*
X17700Y-35700D02*
X17950Y-35450D01*
X17700Y-35800D02*
X17700Y-35700D01*
X17700Y-36200D02*
X17700Y-35800D01*
X18150Y-32000D02*
X18050Y-32000D01*
X18050Y-32000D02*
X17800Y-32250D01*
X19000Y-32000D02*
X18150Y-32000D01*
X19000Y-32000D02*
X19000Y-31800D01*
X20100Y-33250D02*
X20100Y-32850D01*
X19250Y-32000D02*
X19000Y-32000D01*
X20100Y-32850D02*
X19250Y-32000D01*
X17800Y-35300D02*
X19900Y-35300D01*
X20100Y-35100D02*
X20100Y-33250D01*
X19900Y-35300D02*
X20100Y-35100D01*
X17350Y-35850D02*
X17350Y-35750D01*
X17350Y-35750D02*
X17800Y-35300D01*
X18500Y-43850D02*
X18500Y-44500D01*
X17500Y-43850D02*
X17500Y-44500D01*
X20950Y-38650D02*
X20950Y-41250D01*
X21500Y-38100D02*
X20950Y-38650D01*
X21500Y-38000D02*
X21500Y-38100D01*
X20950Y-41250D02*
X20650Y-41550D01*
X21500Y-37000D02*
X21150Y-37000D01*
X20750Y-40350D02*
X20600Y-40500D01*
X20750Y-37400D02*
X20750Y-40350D01*
X21150Y-37000D02*
X20750Y-37400D01*
G54D26*
X39750Y-13250D02*
X39750Y-16500D01*
X19500Y-14500D02*
X19500Y-12500D01*
G54D27*
X19200Y-36200D02*
X20650Y-36200D01*
X21050Y-35800D02*
X21050Y-34450D01*
X20650Y-36200D02*
X21050Y-35800D01*
X21050Y-34450D02*
X21500Y-34000D01*
G54D26*
X18500Y-12500D02*
X18500Y-13750D01*
X33500Y-13750D02*
X33500Y-16500D01*
X33250Y-20250D02*
X33250Y-14000D01*
X17500Y-14000D02*
X17500Y-12500D01*
G54D27*
X19050Y-35900D02*
X19340Y-35900D01*
X20900Y-32150D02*
X21050Y-32000D01*
X20900Y-35700D02*
X20900Y-32150D01*
X20600Y-36000D02*
X20900Y-35700D01*
X19440Y-36000D02*
X20600Y-36000D01*
X19340Y-35900D02*
X19440Y-36000D01*
X21050Y-32000D02*
X21500Y-32000D01*
X18750Y-36200D02*
X19050Y-35900D01*
G54D26*
X16500Y-12500D02*
X16500Y-14250D01*
X33000Y-20500D02*
X33000Y-14250D01*
G54D27*
X18750Y-35750D02*
X20600Y-35750D01*
X20700Y-31250D02*
X20950Y-31000D01*
X20700Y-35650D02*
X20700Y-31250D01*
X20600Y-35750D02*
X20700Y-35650D01*
X20950Y-31000D02*
X21500Y-31000D01*
X18300Y-36200D02*
X18750Y-35750D01*
G54D26*
X32750Y-16500D02*
X32750Y-15750D01*
X32750Y-15750D02*
X32750Y-15000D01*
X24500Y-12500D02*
X24500Y-15000D01*
G54D27*
X15750Y-33627D02*
X15750Y-31950D01*
X14500Y-41000D02*
X14500Y-41050D01*
X14500Y-41050D02*
X15350Y-41900D01*
G54D26*
X41750Y-13750D02*
X41750Y-18500D01*
X17500Y-17750D02*
X17500Y-16750D01*
X17500Y-23000D02*
X17500Y-17750D01*
X18000Y-18500D02*
X18000Y-17000D01*
X18000Y-23000D02*
X18000Y-18500D01*
X37000Y-13000D02*
X37500Y-13500D01*
X37500Y-16000D02*
X37000Y-16500D01*
X37500Y-13500D02*
X37500Y-16000D01*
X20500Y-23000D02*
X20500Y-17250D01*
X31250Y-13500D02*
X31250Y-15750D01*
X41750Y-23500D02*
X41750Y-21500D01*
X22000Y-21250D02*
X22000Y-23500D01*
X44250Y-17500D02*
X43500Y-16750D01*
X44250Y-19000D02*
X44250Y-17500D01*
X41750Y-21500D02*
X44250Y-19000D01*
X18500Y-21250D02*
X18500Y-19250D01*
X18500Y-23000D02*
X18500Y-21250D01*
X43500Y-15750D02*
X44500Y-16750D01*
X22250Y-21500D02*
X22250Y-23750D01*
X42000Y-21750D02*
X42000Y-23750D01*
X44500Y-19250D02*
X42000Y-21750D01*
X44500Y-16750D02*
X44500Y-19250D01*
X19250Y-23000D02*
X19250Y-21500D01*
X19250Y-20000D02*
X19250Y-21500D01*
X22500Y-21750D02*
X22500Y-23250D01*
X33750Y-16750D02*
X33750Y-23250D01*
X51500Y-36000D02*
X51500Y-37500D01*
X51500Y-37500D02*
X51500Y-46250D01*
X38000Y-22500D02*
X38000Y-25250D01*
X37500Y-22500D02*
X37500Y-25750D01*
X37000Y-22500D02*
X37000Y-26250D01*
X33500Y-18750D02*
X33500Y-24750D01*
X32750Y-27500D02*
X32750Y-24750D01*
X36750Y-27500D02*
X36750Y-24000D01*
X35250Y-24000D02*
X35250Y-19250D01*
X34500Y-24500D02*
X34500Y-19750D01*
X47750Y-42500D02*
X47750Y-48500D01*
X47750Y-48500D02*
X47000Y-49250D01*
X47000Y-50500D02*
X47000Y-49250D01*
X47500Y-38750D02*
X47250Y-38500D01*
X47250Y-38500D02*
X47250Y-35750D01*
X49750Y-35750D02*
X49750Y-33750D01*
X47500Y-38750D02*
X47500Y-42250D01*
X47500Y-42250D02*
X47750Y-42500D01*
X18750Y-22250D02*
X18750Y-27500D01*
X22750Y-27500D02*
X22750Y-22750D01*
X26750Y-27500D02*
X26750Y-22000D01*
X30750Y-27500D02*
X30750Y-24500D01*
X27500Y-24500D02*
X27500Y-22000D01*
X34750Y-27500D02*
X34750Y-24000D01*
X29750Y-24000D02*
X29750Y-22000D01*
X38750Y-27500D02*
X38750Y-25500D01*
X38750Y-25500D02*
X39500Y-24750D01*
X30250Y-26750D02*
X30250Y-22500D01*
X50000Y-37750D02*
X50000Y-33250D01*
G54D27*
X19550Y-30050D02*
X17950Y-30050D01*
X19750Y-30250D02*
X19550Y-30050D01*
G54D26*
X36250Y-12750D02*
X37250Y-13750D01*
X37250Y-13750D02*
X37250Y-14250D01*
X42500Y-14250D02*
X42500Y-15750D01*
X42500Y-16750D02*
X42000Y-16250D01*
X42000Y-16250D02*
X42000Y-13500D01*
X38000Y-12500D02*
X38500Y-13000D01*
X38000Y-12250D02*
X38000Y-12500D01*
X48500Y-39500D02*
X48250Y-39750D01*
X47750Y-39750D02*
X48250Y-39750D01*
X39500Y-39750D02*
X39500Y-39250D01*
X39250Y-38500D02*
X38750Y-38500D01*
X38250Y-38500D02*
X37750Y-38500D01*
X37750Y-39000D02*
X37750Y-39500D01*
X37750Y-40000D02*
X38250Y-40000D01*
X38750Y-40000D02*
X39250Y-40000D01*
X38500Y-39750D02*
X39000Y-39750D01*
X39500Y-38750D02*
X39000Y-38750D01*
X38500Y-38750D02*
X38000Y-38750D01*
X38000Y-39250D02*
X38000Y-39750D01*
X38750Y-36750D02*
X39000Y-36750D01*
X39000Y-36750D02*
X39500Y-37250D01*
X39000Y-36250D02*
X39500Y-36250D01*
X38000Y-36250D02*
X38500Y-36250D01*
X38000Y-37250D02*
X38000Y-36750D01*
X39000Y-37250D02*
X38500Y-37250D01*
X39500Y-36750D02*
X39250Y-37000D01*
X39250Y-37000D02*
X39250Y-37500D01*
X38750Y-37500D02*
X38250Y-37500D01*
X37750Y-37500D02*
X37750Y-37000D01*
X37750Y-36500D02*
X37750Y-36000D01*
X38250Y-36000D02*
X38750Y-36000D01*
X40500Y-14750D02*
X40750Y-15000D01*
X40500Y-12750D02*
X40500Y-14750D01*
X40250Y-12500D02*
X40500Y-12750D01*
G54D27*
X16750Y-30750D02*
X16750Y-30500D01*
X17250Y-30000D02*
X17250Y-29750D01*
X16750Y-30500D02*
X17250Y-30000D01*
X18000Y-33150D02*
X16900Y-33150D01*
X18100Y-33050D02*
X18000Y-33150D01*
X19650Y-38500D02*
X19350Y-38500D01*
X18650Y-37100D02*
X18150Y-36600D01*
X18650Y-37400D02*
X18650Y-37100D01*
X19150Y-37900D02*
X18650Y-37400D01*
X19150Y-38300D02*
X19150Y-37900D01*
X19350Y-38500D02*
X19150Y-38300D01*
X16750Y-33150D02*
X16900Y-33150D01*
X16750Y-33500D02*
X16750Y-33150D01*
X16750Y-33150D02*
X16750Y-32600D01*
X17550Y-36600D02*
X16750Y-35800D01*
X16750Y-32600D02*
X16750Y-30750D01*
X16750Y-30750D02*
X16750Y-30650D01*
X18150Y-36600D02*
X17550Y-36600D01*
X16750Y-35800D02*
X16750Y-33500D01*
G54D26*
X40000Y-21000D02*
X40000Y-13500D01*
X40250Y-21250D02*
X40000Y-21000D01*
X26500Y-12500D02*
X26500Y-14750D01*
X42750Y-13500D02*
X42750Y-14000D01*
X42500Y-13250D02*
X42750Y-13500D01*
X42500Y-17750D02*
X43000Y-17250D01*
X42750Y-15000D02*
X42750Y-14000D01*
X43000Y-15250D02*
X42750Y-15000D01*
X43000Y-17250D02*
X43000Y-15250D01*
X30250Y-18000D02*
X30250Y-16000D01*
X27250Y-18000D02*
X27250Y-16000D01*
X24250Y-18000D02*
X24250Y-16000D01*
G54D24*
X48750Y-34250D02*
X49000Y-34500D01*
X48750Y-34250D02*
X49000Y-34000D01*
X49000Y-43500D02*
X49000Y-35500D01*
X49000Y-35500D02*
X49000Y-34500D01*
X49000Y-34000D02*
X49000Y-33000D01*
X49000Y-33000D02*
X49000Y-31000D01*
X49000Y-44500D02*
X49000Y-43500D01*
X48750Y-44750D02*
X49000Y-44500D01*
X46400Y-31000D02*
X45900Y-31000D01*
X46800Y-30600D02*
X46400Y-31000D01*
X49250Y-34250D02*
X49250Y-34000D01*
X49250Y-33250D02*
X49500Y-33000D01*
X49250Y-34000D02*
X49250Y-33250D01*
X49250Y-43750D02*
X49250Y-44750D01*
X49250Y-43750D02*
X49500Y-43500D01*
X49500Y-43500D02*
X49250Y-43250D01*
X49250Y-43250D02*
X49250Y-34500D01*
X49250Y-34500D02*
X49250Y-34250D01*
X49500Y-33000D02*
X49500Y-31000D01*
X49500Y-31000D02*
X48750Y-30250D01*
G54D26*
X44750Y-42500D02*
X44750Y-41250D01*
G54D27*
X17500Y-43200D02*
X17200Y-42900D01*
X18500Y-43200D02*
X17500Y-43200D01*
X18700Y-43000D02*
X18500Y-43200D01*
X18700Y-40300D02*
X18700Y-43000D01*
X18400Y-40000D02*
X18700Y-40300D01*
X16500Y-43600D02*
X16500Y-44500D01*
G54D26*
X38250Y-22750D02*
X38250Y-25000D01*
X37750Y-22250D02*
X37750Y-25500D01*
X37250Y-22250D02*
X37250Y-26000D01*
X34000Y-18250D02*
X34000Y-24500D01*
X31750Y-27500D02*
X31750Y-24500D01*
X35750Y-27500D02*
X35000Y-26750D01*
X35000Y-26750D02*
X35000Y-19000D01*
X34250Y-24250D02*
X34250Y-24750D01*
X34250Y-24250D02*
X34250Y-19500D01*
X47500Y-43250D02*
X47500Y-48250D01*
X47500Y-48250D02*
X46000Y-49750D01*
X46000Y-49750D02*
X46000Y-50500D01*
X17750Y-27500D02*
X17750Y-22000D01*
X21750Y-22500D02*
X21750Y-27500D01*
X25750Y-27500D02*
X25750Y-21750D01*
X29750Y-27500D02*
X29750Y-24750D01*
X27250Y-24750D02*
X27250Y-22250D01*
X33750Y-27500D02*
X33750Y-24250D01*
X29500Y-24250D02*
X29500Y-21750D01*
X37750Y-27500D02*
X37750Y-26500D01*
X30000Y-26500D02*
X30000Y-22250D01*
G54D27*
X16150Y-29900D02*
X16000Y-29750D01*
X16350Y-30050D02*
X16350Y-29350D01*
X16350Y-29350D02*
X16000Y-29000D01*
X18350Y-37800D02*
X18150Y-37800D01*
X18150Y-37800D02*
X16350Y-36000D01*
X16350Y-36000D02*
X16350Y-30050D01*
G54D25*
X35250Y-29750D02*
X35250Y-29500D01*
X36000Y-28750D02*
X42000Y-28750D01*
X35250Y-29500D02*
X36000Y-28750D01*
G54D27*
X19239Y-33850D02*
X19250Y-33850D01*
X19224Y-33834D02*
X19239Y-33850D01*
X20050Y-39850D02*
X19950Y-39750D01*
X19200Y-37450D02*
X19950Y-38200D01*
X19950Y-38200D02*
X19950Y-39750D01*
X16400Y-38350D02*
X16750Y-38350D01*
X16750Y-38350D02*
X17150Y-37950D01*
G54D26*
X47500Y-35500D02*
X47500Y-34250D01*
X48500Y-36500D02*
X47500Y-35500D01*
X49750Y-42750D02*
X49750Y-41250D01*
X48500Y-41250D02*
X48500Y-44500D01*
X50000Y-44000D02*
X50500Y-44500D01*
X50000Y-44000D02*
X50000Y-40000D01*
X52500Y-45500D02*
X52500Y-41000D01*
X47250Y-46000D02*
X47250Y-41000D01*
X46750Y-37000D02*
X46750Y-34750D01*
X45750Y-49500D02*
X45750Y-35500D01*
X49500Y-24750D02*
X49500Y-26500D01*
X26000Y-14750D02*
X26000Y-13250D01*
X49750Y-38500D02*
X51250Y-37000D01*
X51250Y-34000D02*
X51500Y-33750D01*
X51250Y-37000D02*
X51250Y-34000D01*
X52250Y-38750D02*
X52250Y-33750D01*
X45500Y-31500D02*
X47250Y-31500D01*
X45250Y-31750D02*
X45500Y-31500D01*
X45250Y-33750D02*
X45250Y-31750D01*
X52250Y-18500D02*
X52500Y-18500D01*
X51750Y-19000D02*
X52250Y-18500D01*
X51750Y-21000D02*
X51750Y-19000D01*
X51000Y-43000D02*
X51000Y-43750D01*
X50500Y-42500D02*
X50500Y-40250D01*
X47000Y-43500D02*
X47000Y-41750D01*
X44250Y-41750D02*
X44250Y-43250D01*
G54D10*
G36*
X52830Y-27482D02*
X52802Y-27624D01*
X52730Y-27731D01*
X52624Y-27802D01*
X52483Y-27830D01*
X51742Y-27830D01*
X51742Y-26551D01*
X51742Y-24819D01*
X51692Y-24699D01*
X51600Y-24606D01*
X51480Y-24557D01*
X51350Y-24556D01*
X51230Y-24606D01*
X51137Y-24698D01*
X51088Y-24818D01*
X51087Y-24948D01*
X51137Y-25068D01*
X51229Y-25161D01*
X51349Y-25210D01*
X51479Y-25211D01*
X51599Y-25161D01*
X51692Y-25069D01*
X51741Y-24949D01*
X51742Y-24819D01*
X51742Y-26551D01*
X51692Y-26431D01*
X51600Y-26338D01*
X51480Y-26289D01*
X51350Y-26288D01*
X51230Y-26338D01*
X51137Y-26430D01*
X51088Y-26550D01*
X51087Y-26680D01*
X51137Y-26800D01*
X51229Y-26893D01*
X51349Y-26942D01*
X51479Y-26943D01*
X51599Y-26893D01*
X51692Y-26801D01*
X51741Y-26681D01*
X51742Y-26551D01*
X51742Y-27830D01*
X49785Y-27830D01*
X49785Y-26443D01*
X49741Y-26338D01*
X49690Y-26286D01*
X49690Y-24963D01*
X49741Y-24911D01*
X49784Y-24806D01*
X49785Y-24693D01*
X49741Y-24588D01*
X49661Y-24508D01*
X49556Y-24465D01*
X49443Y-24464D01*
X49338Y-24508D01*
X49258Y-24588D01*
X49215Y-24693D01*
X49214Y-24806D01*
X49258Y-24911D01*
X49310Y-24963D01*
X49310Y-26286D01*
X49258Y-26338D01*
X49215Y-26443D01*
X49214Y-26556D01*
X49258Y-26661D01*
X49338Y-26741D01*
X49443Y-26784D01*
X49556Y-26785D01*
X49661Y-26741D01*
X49741Y-26661D01*
X49784Y-26556D01*
X49785Y-26443D01*
X49785Y-27830D01*
X48925Y-27830D01*
X48925Y-26165D01*
X48925Y-25165D01*
X48925Y-25165D01*
X48925Y-24495D01*
X48925Y-23945D01*
X48902Y-23890D01*
X48860Y-23847D01*
X48804Y-23825D01*
X48745Y-23824D01*
X48195Y-23824D01*
X48140Y-23847D01*
X48097Y-23889D01*
X48075Y-23945D01*
X48074Y-24004D01*
X48074Y-24554D01*
X48097Y-24609D01*
X48139Y-24652D01*
X48195Y-24674D01*
X48254Y-24675D01*
X48804Y-24675D01*
X48859Y-24652D01*
X48902Y-24610D01*
X48924Y-24554D01*
X48925Y-24495D01*
X48925Y-25165D01*
X48860Y-25009D01*
X48741Y-24889D01*
X48584Y-24825D01*
X48415Y-24824D01*
X48259Y-24889D01*
X48139Y-25008D01*
X48075Y-25165D01*
X48074Y-25334D01*
X48139Y-25490D01*
X48258Y-25610D01*
X48415Y-25674D01*
X48584Y-25675D01*
X48740Y-25610D01*
X48860Y-25491D01*
X48924Y-25334D01*
X48925Y-25165D01*
X48925Y-26165D01*
X48860Y-26009D01*
X48741Y-25889D01*
X48584Y-25825D01*
X48415Y-25824D01*
X48259Y-25889D01*
X48139Y-26008D01*
X48075Y-26165D01*
X48074Y-26334D01*
X48139Y-26490D01*
X48258Y-26610D01*
X48415Y-26674D01*
X48584Y-26675D01*
X48740Y-26610D01*
X48860Y-26491D01*
X48924Y-26334D01*
X48925Y-26165D01*
X48925Y-27830D01*
X45517Y-27830D01*
X45375Y-27802D01*
X45268Y-27730D01*
X45197Y-27624D01*
X45169Y-27483D01*
X45169Y-24016D01*
X45197Y-23875D01*
X45268Y-23769D01*
X45375Y-23697D01*
X45517Y-23669D01*
X48500Y-23669D01*
X48516Y-23666D01*
X48532Y-23666D01*
X48628Y-23647D01*
X48689Y-23622D01*
X48690Y-23621D01*
X48770Y-23568D01*
X48770Y-23567D01*
X48788Y-23550D01*
X48999Y-23550D01*
X49059Y-23550D01*
X49059Y-23550D01*
X49499Y-23550D01*
X49559Y-23550D01*
X49559Y-23550D01*
X49999Y-23550D01*
X50059Y-23550D01*
X50059Y-23550D01*
X50211Y-23550D01*
X50228Y-23567D01*
X50309Y-23622D01*
X50371Y-23647D01*
X50371Y-23647D01*
X50467Y-23666D01*
X50483Y-23666D01*
X50500Y-23669D01*
X52483Y-23669D01*
X52624Y-23697D01*
X52730Y-23768D01*
X52802Y-23875D01*
X52830Y-24017D01*
X52830Y-27482D01*
X52830Y-27482D01*
G37*
G54D28*
X52830Y-27482D02*
X52802Y-27624D01*
X52730Y-27731D01*
X52624Y-27802D01*
X52483Y-27830D01*
X51742Y-27830D01*
X51742Y-26551D01*
X51742Y-24819D01*
X51692Y-24699D01*
X51600Y-24606D01*
X51480Y-24557D01*
X51350Y-24556D01*
X51230Y-24606D01*
X51137Y-24698D01*
X51088Y-24818D01*
X51087Y-24948D01*
X51137Y-25068D01*
X51229Y-25161D01*
X51349Y-25210D01*
X51479Y-25211D01*
X51599Y-25161D01*
X51692Y-25069D01*
X51741Y-24949D01*
X51742Y-24819D01*
X51742Y-26551D01*
X51692Y-26431D01*
X51600Y-26338D01*
X51480Y-26289D01*
X51350Y-26288D01*
X51230Y-26338D01*
X51137Y-26430D01*
X51088Y-26550D01*
X51087Y-26680D01*
X51137Y-26800D01*
X51229Y-26893D01*
X51349Y-26942D01*
X51479Y-26943D01*
X51599Y-26893D01*
X51692Y-26801D01*
X51741Y-26681D01*
X51742Y-26551D01*
X51742Y-27830D01*
X49785Y-27830D01*
X49785Y-26443D01*
X49741Y-26338D01*
X49690Y-26286D01*
X49690Y-24963D01*
X49741Y-24911D01*
X49784Y-24806D01*
X49785Y-24693D01*
X49741Y-24588D01*
X49661Y-24508D01*
X49556Y-24465D01*
X49443Y-24464D01*
X49338Y-24508D01*
X49258Y-24588D01*
X49215Y-24693D01*
X49214Y-24806D01*
X49258Y-24911D01*
X49310Y-24963D01*
X49310Y-26286D01*
X49258Y-26338D01*
X49215Y-26443D01*
X49214Y-26556D01*
X49258Y-26661D01*
X49338Y-26741D01*
X49443Y-26784D01*
X49556Y-26785D01*
X49661Y-26741D01*
X49741Y-26661D01*
X49784Y-26556D01*
X49785Y-26443D01*
X49785Y-27830D01*
X48925Y-27830D01*
X48925Y-26165D01*
X48925Y-25165D01*
X48925Y-25165D01*
X48925Y-24495D01*
X48925Y-23945D01*
X48902Y-23890D01*
X48860Y-23847D01*
X48804Y-23825D01*
X48745Y-23824D01*
X48195Y-23824D01*
X48140Y-23847D01*
X48097Y-23889D01*
X48075Y-23945D01*
X48074Y-24004D01*
X48074Y-24554D01*
X48097Y-24609D01*
X48139Y-24652D01*
X48195Y-24674D01*
X48254Y-24675D01*
X48804Y-24675D01*
X48859Y-24652D01*
X48902Y-24610D01*
X48924Y-24554D01*
X48925Y-24495D01*
X48925Y-25165D01*
X48860Y-25009D01*
X48741Y-24889D01*
X48584Y-24825D01*
X48415Y-24824D01*
X48259Y-24889D01*
X48139Y-25008D01*
X48075Y-25165D01*
X48074Y-25334D01*
X48139Y-25490D01*
X48258Y-25610D01*
X48415Y-25674D01*
X48584Y-25675D01*
X48740Y-25610D01*
X48860Y-25491D01*
X48924Y-25334D01*
X48925Y-25165D01*
X48925Y-26165D01*
X48860Y-26009D01*
X48741Y-25889D01*
X48584Y-25825D01*
X48415Y-25824D01*
X48259Y-25889D01*
X48139Y-26008D01*
X48075Y-26165D01*
X48074Y-26334D01*
X48139Y-26490D01*
X48258Y-26610D01*
X48415Y-26674D01*
X48584Y-26675D01*
X48740Y-26610D01*
X48860Y-26491D01*
X48924Y-26334D01*
X48925Y-26165D01*
X48925Y-27830D01*
X45517Y-27830D01*
X45375Y-27802D01*
X45268Y-27730D01*
X45197Y-27624D01*
X45169Y-27483D01*
X45169Y-24016D01*
X45197Y-23875D01*
X45268Y-23769D01*
X45375Y-23697D01*
X45517Y-23669D01*
X48500Y-23669D01*
X48516Y-23666D01*
X48532Y-23666D01*
X48628Y-23647D01*
X48689Y-23622D01*
X48690Y-23621D01*
X48770Y-23568D01*
X48770Y-23567D01*
X48788Y-23550D01*
X48999Y-23550D01*
X49059Y-23550D01*
X49059Y-23550D01*
X49499Y-23550D01*
X49559Y-23550D01*
X49559Y-23550D01*
X49999Y-23550D01*
X50059Y-23550D01*
X50059Y-23550D01*
X50211Y-23550D01*
X50228Y-23567D01*
X50309Y-23622D01*
X50371Y-23647D01*
X50371Y-23647D01*
X50467Y-23666D01*
X50483Y-23666D01*
X50500Y-23669D01*
X52483Y-23669D01*
X52624Y-23697D01*
X52730Y-23768D01*
X52802Y-23875D01*
X52830Y-24017D01*
X52830Y-27482D01*
G54D10*
G36*
X52830Y-22482D02*
X52802Y-22624D01*
X52730Y-22731D01*
X52624Y-22802D01*
X52483Y-22830D01*
X50500Y-22830D01*
X50483Y-22833D01*
X50467Y-22833D01*
X50371Y-22852D01*
X50371Y-22852D01*
X50309Y-22877D01*
X50228Y-22932D01*
X50211Y-22950D01*
X50000Y-22950D01*
X49940Y-22949D01*
X49940Y-22950D01*
X49500Y-22950D01*
X49440Y-22949D01*
X49440Y-22950D01*
X49000Y-22950D01*
X48940Y-22949D01*
X48940Y-22950D01*
X48788Y-22950D01*
X48770Y-22932D01*
X48770Y-22931D01*
X48750Y-22918D01*
X48750Y-21900D01*
X48674Y-21717D01*
X48533Y-21576D01*
X48349Y-21500D01*
X48150Y-21499D01*
X47967Y-21575D01*
X47826Y-21716D01*
X47750Y-21900D01*
X47749Y-22099D01*
X47825Y-22282D01*
X47966Y-22423D01*
X48150Y-22499D01*
X48349Y-22500D01*
X48532Y-22424D01*
X48673Y-22283D01*
X48749Y-22099D01*
X48750Y-21900D01*
X48750Y-22918D01*
X48690Y-22878D01*
X48689Y-22877D01*
X48628Y-22852D01*
X48532Y-22833D01*
X48516Y-22833D01*
X48500Y-22830D01*
X45000Y-22830D01*
X44982Y-22833D01*
X44967Y-22833D01*
X44775Y-22871D01*
X44714Y-22896D01*
X44713Y-22897D01*
X44635Y-22950D01*
X44450Y-22950D01*
X44450Y-23134D01*
X44397Y-23213D01*
X44396Y-23214D01*
X44371Y-23275D01*
X44333Y-23467D01*
X44333Y-23483D01*
X44330Y-23500D01*
X44330Y-27482D01*
X44302Y-27624D01*
X44230Y-27731D01*
X44124Y-27802D01*
X43983Y-27830D01*
X43600Y-27830D01*
X43600Y-24831D01*
X43471Y-24519D01*
X43232Y-24279D01*
X42919Y-24150D01*
X42581Y-24149D01*
X42269Y-24278D01*
X42029Y-24517D01*
X41900Y-24830D01*
X41899Y-25168D01*
X42028Y-25480D01*
X42267Y-25720D01*
X42580Y-25849D01*
X42918Y-25850D01*
X43230Y-25721D01*
X43470Y-25482D01*
X43599Y-25169D01*
X43600Y-24831D01*
X43600Y-27830D01*
X42500Y-27830D01*
X42483Y-27833D01*
X42467Y-27833D01*
X42371Y-27852D01*
X42371Y-27852D01*
X42309Y-27877D01*
X42228Y-27932D01*
X42211Y-27950D01*
X42000Y-27950D01*
X41940Y-27949D01*
X41940Y-27950D01*
X41500Y-27950D01*
X41440Y-27949D01*
X41440Y-27950D01*
X41000Y-27950D01*
X40940Y-27949D01*
X40940Y-27950D01*
X40788Y-27950D01*
X40770Y-27932D01*
X40770Y-27931D01*
X40760Y-27925D01*
X40834Y-27925D01*
X40990Y-27860D01*
X41110Y-27741D01*
X41174Y-27584D01*
X41175Y-27415D01*
X41110Y-27259D01*
X41035Y-27183D01*
X41035Y-14943D01*
X40991Y-14838D01*
X40911Y-14758D01*
X40806Y-14715D01*
X40733Y-14714D01*
X40690Y-14671D01*
X40690Y-12750D01*
X40675Y-12677D01*
X40634Y-12615D01*
X40634Y-12615D01*
X40534Y-12516D01*
X40535Y-12443D01*
X40491Y-12338D01*
X40411Y-12258D01*
X40306Y-12215D01*
X40193Y-12214D01*
X40088Y-12258D01*
X40008Y-12338D01*
X39965Y-12443D01*
X39964Y-12556D01*
X40008Y-12661D01*
X40088Y-12741D01*
X40193Y-12784D01*
X40266Y-12785D01*
X40310Y-12828D01*
X40310Y-14216D01*
X40306Y-14215D01*
X40193Y-14214D01*
X40190Y-14216D01*
X40190Y-13713D01*
X40241Y-13661D01*
X40284Y-13556D01*
X40285Y-13443D01*
X40241Y-13338D01*
X40161Y-13258D01*
X40056Y-13215D01*
X40035Y-13215D01*
X40035Y-13193D01*
X39991Y-13088D01*
X39911Y-13008D01*
X39806Y-12965D01*
X39693Y-12964D01*
X39588Y-13008D01*
X39508Y-13088D01*
X39465Y-13193D01*
X39464Y-13306D01*
X39508Y-13411D01*
X39560Y-13463D01*
X39560Y-16286D01*
X39508Y-16338D01*
X39465Y-16443D01*
X39464Y-16556D01*
X39508Y-16661D01*
X39588Y-16741D01*
X39693Y-16784D01*
X39806Y-16785D01*
X39810Y-16783D01*
X39810Y-21000D01*
X39824Y-21072D01*
X39865Y-21134D01*
X39965Y-21233D01*
X39964Y-21306D01*
X40008Y-21411D01*
X40088Y-21491D01*
X40193Y-21534D01*
X40306Y-21535D01*
X40411Y-21491D01*
X40491Y-21411D01*
X40534Y-21306D01*
X40535Y-21193D01*
X40491Y-21088D01*
X40411Y-21008D01*
X40306Y-20965D01*
X40233Y-20964D01*
X40190Y-20921D01*
X40190Y-16533D01*
X40193Y-16534D01*
X40306Y-16535D01*
X40411Y-16491D01*
X40491Y-16411D01*
X40534Y-16306D01*
X40535Y-16193D01*
X40491Y-16088D01*
X40460Y-16056D01*
X40460Y-14978D01*
X40465Y-14983D01*
X40464Y-15056D01*
X40508Y-15161D01*
X40588Y-15241D01*
X40693Y-15284D01*
X40806Y-15285D01*
X40911Y-15241D01*
X40991Y-15161D01*
X41034Y-15056D01*
X41035Y-14943D01*
X41035Y-27183D01*
X40991Y-27139D01*
X40834Y-27075D01*
X40665Y-27074D01*
X40509Y-27139D01*
X40389Y-27258D01*
X40325Y-27415D01*
X40324Y-27584D01*
X40389Y-27740D01*
X40479Y-27830D01*
X40020Y-27830D01*
X40110Y-27741D01*
X40174Y-27584D01*
X40175Y-27415D01*
X40110Y-27259D01*
X39991Y-27139D01*
X39834Y-27075D01*
X39665Y-27074D01*
X39509Y-27139D01*
X39389Y-27258D01*
X39325Y-27415D01*
X39324Y-27584D01*
X39389Y-27740D01*
X39479Y-27830D01*
X39020Y-27830D01*
X39110Y-27741D01*
X39174Y-27584D01*
X39175Y-27415D01*
X39110Y-27259D01*
X38991Y-27139D01*
X38940Y-27118D01*
X38940Y-25578D01*
X39483Y-25034D01*
X39556Y-25035D01*
X39661Y-24991D01*
X39741Y-24911D01*
X39784Y-24806D01*
X39785Y-24693D01*
X39741Y-24588D01*
X39661Y-24508D01*
X39556Y-24465D01*
X39443Y-24464D01*
X39338Y-24508D01*
X39258Y-24588D01*
X39215Y-24693D01*
X39214Y-24766D01*
X38615Y-25365D01*
X38574Y-25427D01*
X38560Y-25500D01*
X38560Y-27118D01*
X38509Y-27139D01*
X38389Y-27258D01*
X38325Y-27415D01*
X38324Y-27584D01*
X38389Y-27740D01*
X38479Y-27830D01*
X38164Y-27830D01*
X38174Y-27804D01*
X38175Y-27745D01*
X38175Y-27195D01*
X38152Y-27140D01*
X38110Y-27097D01*
X38054Y-27075D01*
X37995Y-27074D01*
X37940Y-27074D01*
X37940Y-26713D01*
X37991Y-26661D01*
X38034Y-26556D01*
X38035Y-26443D01*
X37991Y-26338D01*
X37911Y-26258D01*
X37806Y-26215D01*
X37693Y-26214D01*
X37588Y-26258D01*
X37508Y-26338D01*
X37465Y-26443D01*
X37464Y-26556D01*
X37508Y-26661D01*
X37560Y-26713D01*
X37560Y-27074D01*
X37445Y-27074D01*
X37390Y-27097D01*
X37347Y-27139D01*
X37325Y-27195D01*
X37324Y-27254D01*
X37324Y-27804D01*
X37335Y-27830D01*
X37020Y-27830D01*
X37110Y-27741D01*
X37174Y-27584D01*
X37175Y-27415D01*
X37110Y-27259D01*
X36991Y-27139D01*
X36940Y-27118D01*
X36940Y-26533D01*
X36943Y-26534D01*
X37056Y-26535D01*
X37161Y-26491D01*
X37241Y-26411D01*
X37284Y-26306D01*
X37284Y-26285D01*
X37306Y-26285D01*
X37411Y-26241D01*
X37491Y-26161D01*
X37534Y-26056D01*
X37534Y-26035D01*
X37556Y-26035D01*
X37661Y-25991D01*
X37741Y-25911D01*
X37784Y-25806D01*
X37784Y-25785D01*
X37806Y-25785D01*
X37911Y-25741D01*
X37991Y-25661D01*
X38034Y-25556D01*
X38034Y-25535D01*
X38056Y-25535D01*
X38161Y-25491D01*
X38241Y-25411D01*
X38284Y-25306D01*
X38284Y-25285D01*
X38306Y-25285D01*
X38411Y-25241D01*
X38491Y-25161D01*
X38534Y-25056D01*
X38535Y-24943D01*
X38491Y-24838D01*
X38440Y-24786D01*
X38440Y-22963D01*
X38491Y-22911D01*
X38534Y-22806D01*
X38535Y-22693D01*
X38531Y-22684D01*
X38560Y-22713D01*
X38560Y-23786D01*
X38508Y-23838D01*
X38465Y-23943D01*
X38464Y-24056D01*
X38508Y-24161D01*
X38588Y-24241D01*
X38693Y-24284D01*
X38806Y-24285D01*
X38911Y-24241D01*
X38991Y-24161D01*
X39034Y-24056D01*
X39035Y-23943D01*
X38991Y-23838D01*
X38940Y-23786D01*
X38940Y-22713D01*
X38991Y-22661D01*
X39034Y-22556D01*
X39035Y-22443D01*
X38991Y-22338D01*
X38911Y-22258D01*
X38806Y-22215D01*
X38693Y-22214D01*
X38588Y-22258D01*
X38508Y-22338D01*
X38465Y-22443D01*
X38464Y-22556D01*
X38468Y-22565D01*
X38411Y-22508D01*
X38306Y-22465D01*
X38285Y-22465D01*
X38285Y-22443D01*
X38241Y-22338D01*
X38161Y-22258D01*
X38056Y-22215D01*
X38035Y-22215D01*
X38035Y-22193D01*
X37991Y-22088D01*
X37911Y-22008D01*
X37806Y-21965D01*
X37693Y-21964D01*
X37588Y-22008D01*
X37508Y-22088D01*
X37500Y-22108D01*
X37491Y-22088D01*
X37411Y-22008D01*
X37306Y-21965D01*
X37193Y-21964D01*
X37088Y-22008D01*
X37008Y-22088D01*
X36965Y-22193D01*
X36965Y-22214D01*
X36943Y-22214D01*
X36838Y-22258D01*
X36758Y-22338D01*
X36715Y-22443D01*
X36714Y-22556D01*
X36758Y-22661D01*
X36810Y-22713D01*
X36810Y-23716D01*
X36806Y-23715D01*
X36693Y-23714D01*
X36588Y-23758D01*
X36508Y-23838D01*
X36465Y-23943D01*
X36464Y-24056D01*
X36508Y-24161D01*
X36560Y-24213D01*
X36560Y-27118D01*
X36509Y-27139D01*
X36389Y-27258D01*
X36325Y-27415D01*
X36324Y-27584D01*
X36389Y-27740D01*
X36479Y-27830D01*
X36020Y-27830D01*
X36110Y-27741D01*
X36174Y-27584D01*
X36175Y-27415D01*
X36110Y-27259D01*
X35991Y-27139D01*
X35834Y-27075D01*
X35665Y-27074D01*
X35614Y-27096D01*
X35190Y-26671D01*
X35190Y-24283D01*
X35193Y-24284D01*
X35306Y-24285D01*
X35411Y-24241D01*
X35491Y-24161D01*
X35534Y-24056D01*
X35535Y-23943D01*
X35491Y-23838D01*
X35440Y-23786D01*
X35440Y-19463D01*
X35491Y-19411D01*
X35534Y-19306D01*
X35535Y-19193D01*
X35491Y-19088D01*
X35411Y-19008D01*
X35306Y-18965D01*
X35285Y-18965D01*
X35285Y-18943D01*
X35241Y-18838D01*
X35161Y-18758D01*
X35056Y-18715D01*
X34943Y-18714D01*
X34838Y-18758D01*
X34758Y-18838D01*
X34715Y-18943D01*
X34714Y-19056D01*
X34758Y-19161D01*
X34810Y-19213D01*
X34810Y-23716D01*
X34806Y-23715D01*
X34693Y-23714D01*
X34690Y-23716D01*
X34690Y-19963D01*
X34741Y-19911D01*
X34784Y-19806D01*
X34785Y-19693D01*
X34741Y-19588D01*
X34661Y-19508D01*
X34556Y-19465D01*
X34535Y-19465D01*
X34535Y-19443D01*
X34491Y-19338D01*
X34411Y-19258D01*
X34306Y-19215D01*
X34193Y-19214D01*
X34190Y-19216D01*
X34190Y-18463D01*
X34241Y-18411D01*
X34284Y-18306D01*
X34285Y-18193D01*
X34241Y-18088D01*
X34161Y-18008D01*
X34056Y-17965D01*
X33943Y-17964D01*
X33940Y-17966D01*
X33940Y-16963D01*
X33991Y-16911D01*
X34034Y-16806D01*
X34035Y-16693D01*
X33991Y-16588D01*
X33911Y-16508D01*
X33806Y-16465D01*
X33785Y-16465D01*
X33785Y-16443D01*
X33741Y-16338D01*
X33690Y-16286D01*
X33690Y-13963D01*
X33741Y-13911D01*
X33784Y-13806D01*
X33785Y-13693D01*
X33741Y-13588D01*
X33661Y-13508D01*
X33556Y-13465D01*
X33443Y-13464D01*
X33338Y-13508D01*
X33258Y-13588D01*
X33215Y-13693D01*
X33215Y-13714D01*
X33193Y-13714D01*
X33088Y-13758D01*
X33008Y-13838D01*
X32965Y-13943D01*
X32965Y-13964D01*
X32943Y-13964D01*
X32838Y-14008D01*
X32758Y-14088D01*
X32715Y-14193D01*
X32714Y-14306D01*
X32758Y-14411D01*
X32810Y-14463D01*
X32810Y-14716D01*
X32806Y-14715D01*
X32693Y-14714D01*
X32588Y-14758D01*
X32508Y-14838D01*
X32465Y-14943D01*
X32464Y-15056D01*
X32508Y-15161D01*
X32560Y-15213D01*
X32560Y-15536D01*
X32508Y-15588D01*
X32465Y-15693D01*
X32464Y-15806D01*
X32508Y-15911D01*
X32560Y-15963D01*
X32560Y-16286D01*
X32508Y-16338D01*
X32465Y-16443D01*
X32464Y-16556D01*
X32508Y-16661D01*
X32588Y-16741D01*
X32693Y-16784D01*
X32806Y-16785D01*
X32810Y-16783D01*
X32810Y-20286D01*
X32758Y-20338D01*
X32715Y-20443D01*
X32714Y-20556D01*
X32758Y-20661D01*
X32838Y-20741D01*
X32943Y-20784D01*
X33056Y-20785D01*
X33161Y-20741D01*
X33241Y-20661D01*
X33284Y-20556D01*
X33284Y-20535D01*
X33306Y-20535D01*
X33310Y-20533D01*
X33310Y-24536D01*
X33258Y-24588D01*
X33215Y-24693D01*
X33214Y-24806D01*
X33258Y-24911D01*
X33338Y-24991D01*
X33443Y-25034D01*
X33556Y-25035D01*
X33560Y-25033D01*
X33560Y-27074D01*
X33445Y-27074D01*
X33390Y-27097D01*
X33347Y-27139D01*
X33325Y-27195D01*
X33324Y-27254D01*
X33324Y-27804D01*
X33335Y-27830D01*
X33020Y-27830D01*
X33110Y-27741D01*
X33174Y-27584D01*
X33175Y-27415D01*
X33110Y-27259D01*
X32991Y-27139D01*
X32940Y-27118D01*
X32940Y-24963D01*
X32991Y-24911D01*
X33034Y-24806D01*
X33035Y-24693D01*
X32991Y-24588D01*
X32911Y-24508D01*
X32806Y-24465D01*
X32693Y-24464D01*
X32588Y-24508D01*
X32508Y-24588D01*
X32465Y-24693D01*
X32464Y-24806D01*
X32508Y-24911D01*
X32560Y-24963D01*
X32560Y-27118D01*
X32509Y-27139D01*
X32389Y-27258D01*
X32325Y-27415D01*
X32324Y-27584D01*
X32389Y-27740D01*
X32479Y-27830D01*
X32200Y-27830D01*
X32200Y-13020D01*
X32200Y-12420D01*
X32177Y-12365D01*
X32135Y-12322D01*
X32079Y-12300D01*
X32020Y-12299D01*
X31420Y-12299D01*
X31365Y-12322D01*
X31322Y-12364D01*
X31300Y-12420D01*
X31299Y-12479D01*
X31299Y-13079D01*
X31322Y-13134D01*
X31364Y-13177D01*
X31420Y-13199D01*
X31479Y-13200D01*
X32079Y-13200D01*
X32134Y-13177D01*
X32177Y-13135D01*
X32199Y-13079D01*
X32200Y-13020D01*
X32200Y-27830D01*
X32020Y-27830D01*
X32110Y-27741D01*
X32174Y-27584D01*
X32175Y-27415D01*
X32110Y-27259D01*
X31991Y-27139D01*
X31940Y-27118D01*
X31940Y-24713D01*
X31991Y-24661D01*
X32034Y-24556D01*
X32035Y-24443D01*
X31991Y-24338D01*
X31911Y-24258D01*
X31806Y-24215D01*
X31693Y-24214D01*
X31588Y-24258D01*
X31535Y-24311D01*
X31535Y-15693D01*
X31491Y-15588D01*
X31440Y-15536D01*
X31440Y-13713D01*
X31491Y-13661D01*
X31534Y-13556D01*
X31535Y-13443D01*
X31491Y-13338D01*
X31411Y-13258D01*
X31306Y-13215D01*
X31193Y-13214D01*
X31088Y-13258D01*
X31031Y-13315D01*
X31034Y-13306D01*
X31035Y-13193D01*
X30991Y-13088D01*
X30911Y-13008D01*
X30806Y-12965D01*
X30693Y-12964D01*
X30588Y-13008D01*
X30508Y-13088D01*
X30465Y-13193D01*
X30464Y-13306D01*
X30508Y-13411D01*
X30540Y-13443D01*
X30540Y-16556D01*
X30508Y-16588D01*
X30465Y-16693D01*
X30464Y-16806D01*
X30508Y-16911D01*
X30588Y-16991D01*
X30693Y-17034D01*
X30806Y-17035D01*
X30911Y-16991D01*
X30991Y-16911D01*
X31034Y-16806D01*
X31035Y-16693D01*
X30991Y-16588D01*
X30960Y-16556D01*
X30960Y-13443D01*
X30968Y-13434D01*
X30965Y-13443D01*
X30964Y-13556D01*
X31008Y-13661D01*
X31060Y-13713D01*
X31060Y-15536D01*
X31008Y-15588D01*
X30965Y-15693D01*
X30964Y-15806D01*
X31008Y-15911D01*
X31088Y-15991D01*
X31193Y-16034D01*
X31306Y-16035D01*
X31411Y-15991D01*
X31491Y-15911D01*
X31534Y-15806D01*
X31535Y-15693D01*
X31535Y-24311D01*
X31508Y-24338D01*
X31465Y-24443D01*
X31464Y-24556D01*
X31508Y-24661D01*
X31560Y-24713D01*
X31560Y-27118D01*
X31509Y-27139D01*
X31389Y-27258D01*
X31325Y-27415D01*
X31324Y-27584D01*
X31389Y-27740D01*
X31479Y-27830D01*
X31020Y-27830D01*
X31110Y-27741D01*
X31174Y-27584D01*
X31175Y-27415D01*
X31110Y-27259D01*
X30991Y-27139D01*
X30940Y-27118D01*
X30940Y-24713D01*
X30991Y-24661D01*
X31034Y-24556D01*
X31035Y-24443D01*
X30991Y-24338D01*
X30911Y-24258D01*
X30806Y-24215D01*
X30693Y-24214D01*
X30588Y-24258D01*
X30508Y-24338D01*
X30465Y-24443D01*
X30464Y-24556D01*
X30508Y-24661D01*
X30560Y-24713D01*
X30560Y-27118D01*
X30509Y-27139D01*
X30389Y-27258D01*
X30325Y-27415D01*
X30324Y-27584D01*
X30389Y-27740D01*
X30479Y-27830D01*
X30164Y-27830D01*
X30174Y-27804D01*
X30175Y-27745D01*
X30175Y-27195D01*
X30152Y-27140D01*
X30110Y-27097D01*
X30054Y-27075D01*
X29995Y-27074D01*
X29940Y-27074D01*
X29940Y-26783D01*
X29943Y-26784D01*
X29964Y-26784D01*
X29964Y-26806D01*
X30008Y-26911D01*
X30088Y-26991D01*
X30193Y-27034D01*
X30306Y-27035D01*
X30411Y-26991D01*
X30491Y-26911D01*
X30534Y-26806D01*
X30535Y-26693D01*
X30491Y-26588D01*
X30440Y-26536D01*
X30440Y-22713D01*
X30491Y-22661D01*
X30534Y-22556D01*
X30535Y-22443D01*
X30535Y-17943D01*
X30491Y-17838D01*
X30440Y-17786D01*
X30440Y-16213D01*
X30491Y-16161D01*
X30534Y-16056D01*
X30535Y-15943D01*
X30491Y-15838D01*
X30411Y-15758D01*
X30306Y-15715D01*
X30193Y-15714D01*
X30088Y-15758D01*
X30008Y-15838D01*
X29965Y-15943D01*
X29964Y-16056D01*
X30008Y-16161D01*
X30060Y-16213D01*
X30060Y-17786D01*
X30008Y-17838D01*
X29965Y-17943D01*
X29964Y-18056D01*
X30008Y-18161D01*
X30088Y-18241D01*
X30193Y-18284D01*
X30306Y-18285D01*
X30411Y-18241D01*
X30491Y-18161D01*
X30534Y-18056D01*
X30535Y-17943D01*
X30535Y-22443D01*
X30491Y-22338D01*
X30411Y-22258D01*
X30306Y-22215D01*
X30285Y-22215D01*
X30285Y-22193D01*
X30241Y-22088D01*
X30161Y-22008D01*
X30056Y-21965D01*
X30035Y-21965D01*
X30035Y-21943D01*
X29991Y-21838D01*
X29911Y-21758D01*
X29806Y-21715D01*
X29785Y-21715D01*
X29785Y-21693D01*
X29741Y-21588D01*
X29695Y-21542D01*
X29695Y-18265D01*
X29695Y-17675D01*
X29672Y-17619D01*
X29630Y-17577D01*
X29575Y-17554D01*
X29515Y-17554D01*
X28925Y-17554D01*
X28869Y-17577D01*
X28827Y-17619D01*
X28804Y-17674D01*
X28804Y-17734D01*
X28804Y-18324D01*
X28827Y-18380D01*
X28869Y-18422D01*
X28924Y-18445D01*
X28984Y-18445D01*
X29574Y-18445D01*
X29630Y-18422D01*
X29672Y-18380D01*
X29695Y-18325D01*
X29695Y-18265D01*
X29695Y-21542D01*
X29661Y-21508D01*
X29556Y-21465D01*
X29443Y-21464D01*
X29338Y-21508D01*
X29258Y-21588D01*
X29215Y-21693D01*
X29214Y-21806D01*
X29258Y-21911D01*
X29310Y-21963D01*
X29310Y-24036D01*
X29258Y-24088D01*
X29215Y-24193D01*
X29214Y-24306D01*
X29258Y-24411D01*
X29338Y-24491D01*
X29443Y-24534D01*
X29556Y-24535D01*
X29565Y-24531D01*
X29508Y-24588D01*
X29465Y-24693D01*
X29464Y-24806D01*
X29508Y-24911D01*
X29560Y-24963D01*
X29560Y-27074D01*
X29445Y-27074D01*
X29390Y-27097D01*
X29347Y-27139D01*
X29325Y-27195D01*
X29324Y-27254D01*
X29324Y-27804D01*
X29335Y-27830D01*
X29020Y-27830D01*
X29110Y-27741D01*
X29174Y-27584D01*
X29175Y-27415D01*
X29110Y-27259D01*
X28991Y-27139D01*
X28834Y-27075D01*
X28665Y-27074D01*
X28509Y-27139D01*
X28389Y-27258D01*
X28325Y-27415D01*
X28324Y-27584D01*
X28389Y-27740D01*
X28479Y-27830D01*
X28020Y-27830D01*
X28110Y-27741D01*
X28174Y-27584D01*
X28175Y-27415D01*
X28110Y-27259D01*
X27991Y-27139D01*
X27834Y-27075D01*
X27665Y-27074D01*
X27509Y-27139D01*
X27389Y-27258D01*
X27325Y-27415D01*
X27324Y-27584D01*
X27389Y-27740D01*
X27479Y-27830D01*
X27020Y-27830D01*
X27110Y-27741D01*
X27174Y-27584D01*
X27175Y-27415D01*
X27110Y-27259D01*
X26991Y-27139D01*
X26940Y-27118D01*
X26940Y-22213D01*
X26968Y-22184D01*
X26965Y-22193D01*
X26964Y-22306D01*
X27008Y-22411D01*
X27060Y-22463D01*
X27060Y-24536D01*
X27008Y-24588D01*
X26965Y-24693D01*
X26964Y-24806D01*
X27008Y-24911D01*
X27088Y-24991D01*
X27193Y-25034D01*
X27306Y-25035D01*
X27411Y-24991D01*
X27491Y-24911D01*
X27534Y-24806D01*
X27534Y-24785D01*
X27556Y-24785D01*
X27661Y-24741D01*
X27741Y-24661D01*
X27784Y-24556D01*
X27785Y-24443D01*
X27741Y-24338D01*
X27690Y-24286D01*
X27690Y-22213D01*
X27741Y-22161D01*
X27784Y-22056D01*
X27785Y-21943D01*
X27741Y-21838D01*
X27661Y-21758D01*
X27556Y-21715D01*
X27535Y-21715D01*
X27535Y-17943D01*
X27491Y-17838D01*
X27440Y-17786D01*
X27440Y-16213D01*
X27491Y-16161D01*
X27534Y-16056D01*
X27535Y-15943D01*
X27491Y-15838D01*
X27411Y-15758D01*
X27306Y-15715D01*
X27193Y-15714D01*
X27088Y-15758D01*
X27008Y-15838D01*
X26965Y-15943D01*
X26964Y-16056D01*
X27008Y-16161D01*
X27060Y-16213D01*
X27060Y-17786D01*
X27008Y-17838D01*
X26965Y-17943D01*
X26964Y-18056D01*
X27008Y-18161D01*
X27088Y-18241D01*
X27193Y-18284D01*
X27306Y-18285D01*
X27411Y-18241D01*
X27491Y-18161D01*
X27534Y-18056D01*
X27535Y-17943D01*
X27535Y-21715D01*
X27443Y-21714D01*
X27338Y-21758D01*
X27258Y-21838D01*
X27215Y-21943D01*
X27215Y-21964D01*
X27193Y-21964D01*
X27088Y-22008D01*
X27031Y-22065D01*
X27034Y-22056D01*
X27035Y-21943D01*
X26991Y-21838D01*
X26911Y-21758D01*
X26806Y-21715D01*
X26695Y-21714D01*
X26695Y-18265D01*
X26695Y-17675D01*
X26672Y-17619D01*
X26630Y-17577D01*
X26575Y-17554D01*
X26515Y-17554D01*
X25925Y-17554D01*
X25869Y-17577D01*
X25827Y-17619D01*
X25804Y-17674D01*
X25804Y-17734D01*
X25804Y-18324D01*
X25827Y-18380D01*
X25869Y-18422D01*
X25924Y-18445D01*
X25984Y-18445D01*
X26574Y-18445D01*
X26630Y-18422D01*
X26672Y-18380D01*
X26695Y-18325D01*
X26695Y-18265D01*
X26695Y-21714D01*
X26693Y-21714D01*
X26588Y-21758D01*
X26508Y-21838D01*
X26465Y-21943D01*
X26464Y-22056D01*
X26508Y-22161D01*
X26560Y-22213D01*
X26560Y-27118D01*
X26509Y-27139D01*
X26389Y-27258D01*
X26325Y-27415D01*
X26324Y-27584D01*
X26389Y-27740D01*
X26482Y-27833D01*
X26467Y-27833D01*
X26371Y-27852D01*
X26371Y-27852D01*
X26309Y-27877D01*
X26228Y-27932D01*
X26211Y-27950D01*
X26175Y-27950D01*
X26175Y-27745D01*
X26175Y-27195D01*
X26152Y-27140D01*
X26110Y-27097D01*
X26054Y-27075D01*
X25995Y-27074D01*
X25940Y-27074D01*
X25940Y-21963D01*
X25991Y-21911D01*
X26034Y-21806D01*
X26035Y-21693D01*
X25991Y-21588D01*
X25911Y-21508D01*
X25806Y-21465D01*
X25693Y-21464D01*
X25588Y-21508D01*
X25508Y-21588D01*
X25465Y-21693D01*
X25464Y-21806D01*
X25508Y-21911D01*
X25560Y-21963D01*
X25560Y-27074D01*
X25445Y-27074D01*
X25390Y-27097D01*
X25347Y-27139D01*
X25325Y-27195D01*
X25324Y-27254D01*
X25324Y-27804D01*
X25347Y-27859D01*
X25389Y-27902D01*
X25445Y-27924D01*
X25504Y-27925D01*
X26054Y-27925D01*
X26109Y-27902D01*
X26152Y-27860D01*
X26174Y-27804D01*
X26175Y-27745D01*
X26175Y-27950D01*
X26000Y-27950D01*
X25940Y-27949D01*
X25940Y-27950D01*
X25500Y-27950D01*
X25440Y-27949D01*
X25440Y-27950D01*
X25000Y-27950D01*
X24940Y-27949D01*
X24940Y-27950D01*
X24788Y-27950D01*
X24770Y-27932D01*
X24770Y-27931D01*
X24760Y-27925D01*
X24834Y-27925D01*
X24990Y-27860D01*
X25110Y-27741D01*
X25174Y-27584D01*
X25175Y-27415D01*
X25110Y-27259D01*
X24991Y-27139D01*
X24834Y-27075D01*
X24665Y-27074D01*
X24535Y-27128D01*
X24535Y-17943D01*
X24491Y-17838D01*
X24440Y-17786D01*
X24440Y-16213D01*
X24491Y-16161D01*
X24534Y-16056D01*
X24535Y-15943D01*
X24491Y-15838D01*
X24411Y-15758D01*
X24306Y-15715D01*
X24193Y-15714D01*
X24088Y-15758D01*
X24008Y-15838D01*
X23965Y-15943D01*
X23964Y-16056D01*
X24008Y-16161D01*
X24060Y-16213D01*
X24060Y-17786D01*
X24008Y-17838D01*
X23965Y-17943D01*
X23964Y-18056D01*
X24008Y-18161D01*
X24088Y-18241D01*
X24193Y-18284D01*
X24306Y-18285D01*
X24411Y-18241D01*
X24491Y-18161D01*
X24534Y-18056D01*
X24535Y-17943D01*
X24535Y-27128D01*
X24509Y-27139D01*
X24389Y-27258D01*
X24325Y-27415D01*
X24324Y-27584D01*
X24389Y-27740D01*
X24482Y-27833D01*
X24466Y-27833D01*
X24405Y-27858D01*
X24358Y-27905D01*
X24340Y-27950D01*
X24175Y-27950D01*
X24175Y-27415D01*
X24110Y-27259D01*
X23991Y-27139D01*
X23834Y-27075D01*
X23695Y-27074D01*
X23695Y-18265D01*
X23695Y-17675D01*
X23672Y-17619D01*
X23630Y-17577D01*
X23575Y-17554D01*
X23515Y-17554D01*
X22925Y-17554D01*
X22869Y-17577D01*
X22827Y-17619D01*
X22804Y-17674D01*
X22804Y-17734D01*
X22804Y-18324D01*
X22827Y-18380D01*
X22869Y-18422D01*
X22924Y-18445D01*
X22984Y-18445D01*
X23574Y-18445D01*
X23630Y-18422D01*
X23672Y-18380D01*
X23695Y-18325D01*
X23695Y-18265D01*
X23695Y-27074D01*
X23665Y-27074D01*
X23509Y-27139D01*
X23389Y-27258D01*
X23325Y-27415D01*
X23324Y-27584D01*
X23389Y-27740D01*
X23508Y-27860D01*
X23665Y-27924D01*
X23834Y-27925D01*
X23990Y-27860D01*
X24110Y-27741D01*
X24174Y-27584D01*
X24175Y-27415D01*
X24175Y-27950D01*
X23175Y-27950D01*
X23175Y-27415D01*
X23110Y-27259D01*
X22991Y-27139D01*
X22940Y-27118D01*
X22940Y-22963D01*
X22991Y-22911D01*
X23034Y-22806D01*
X23035Y-22693D01*
X22991Y-22588D01*
X22911Y-22508D01*
X22806Y-22465D01*
X22693Y-22464D01*
X22690Y-22466D01*
X22690Y-21963D01*
X22741Y-21911D01*
X22784Y-21806D01*
X22785Y-21693D01*
X22741Y-21588D01*
X22661Y-21508D01*
X22556Y-21465D01*
X22535Y-21465D01*
X22535Y-21443D01*
X22491Y-21338D01*
X22411Y-21258D01*
X22306Y-21215D01*
X22285Y-21215D01*
X22285Y-21193D01*
X22241Y-21088D01*
X22161Y-21008D01*
X22056Y-20965D01*
X21943Y-20964D01*
X21838Y-21008D01*
X21758Y-21088D01*
X21715Y-21193D01*
X21714Y-21306D01*
X21758Y-21411D01*
X21810Y-21463D01*
X21810Y-22216D01*
X21806Y-22215D01*
X21693Y-22214D01*
X21588Y-22258D01*
X21535Y-22311D01*
X21535Y-16193D01*
X21491Y-16088D01*
X21411Y-16008D01*
X21306Y-15965D01*
X21193Y-15964D01*
X21088Y-16008D01*
X21056Y-16040D01*
X19943Y-16040D01*
X19911Y-16008D01*
X19806Y-15965D01*
X19693Y-15964D01*
X19588Y-16008D01*
X19508Y-16088D01*
X19465Y-16193D01*
X19464Y-16306D01*
X19508Y-16411D01*
X19588Y-16491D01*
X19693Y-16534D01*
X19806Y-16535D01*
X19911Y-16491D01*
X19943Y-16460D01*
X21056Y-16460D01*
X21088Y-16491D01*
X21193Y-16534D01*
X21306Y-16535D01*
X21411Y-16491D01*
X21491Y-16411D01*
X21534Y-16306D01*
X21535Y-16193D01*
X21535Y-22311D01*
X21508Y-22338D01*
X21465Y-22443D01*
X21464Y-22556D01*
X21508Y-22661D01*
X21560Y-22713D01*
X21560Y-27074D01*
X21445Y-27074D01*
X21390Y-27097D01*
X21347Y-27139D01*
X21325Y-27195D01*
X21324Y-27254D01*
X21324Y-27804D01*
X21347Y-27859D01*
X21389Y-27902D01*
X21445Y-27924D01*
X21504Y-27925D01*
X22054Y-27925D01*
X22109Y-27902D01*
X22152Y-27860D01*
X22174Y-27804D01*
X22175Y-27745D01*
X22175Y-27195D01*
X22152Y-27140D01*
X22110Y-27097D01*
X22054Y-27075D01*
X21995Y-27074D01*
X21940Y-27074D01*
X21940Y-23783D01*
X21943Y-23784D01*
X21964Y-23784D01*
X21964Y-23806D01*
X22008Y-23911D01*
X22088Y-23991D01*
X22193Y-24034D01*
X22306Y-24035D01*
X22411Y-23991D01*
X22491Y-23911D01*
X22534Y-23806D01*
X22535Y-23693D01*
X22491Y-23588D01*
X22440Y-23536D01*
X22440Y-23533D01*
X22443Y-23534D01*
X22556Y-23535D01*
X22560Y-23533D01*
X22560Y-27118D01*
X22509Y-27139D01*
X22389Y-27258D01*
X22325Y-27415D01*
X22324Y-27584D01*
X22389Y-27740D01*
X22508Y-27860D01*
X22665Y-27924D01*
X22834Y-27925D01*
X22990Y-27860D01*
X23110Y-27741D01*
X23174Y-27584D01*
X23175Y-27415D01*
X23175Y-27950D01*
X21175Y-27950D01*
X21175Y-27415D01*
X21110Y-27259D01*
X20991Y-27139D01*
X20834Y-27075D01*
X20785Y-27075D01*
X20785Y-22943D01*
X20741Y-22838D01*
X20690Y-22786D01*
X20690Y-17463D01*
X20741Y-17411D01*
X20784Y-17306D01*
X20785Y-17193D01*
X20741Y-17088D01*
X20661Y-17008D01*
X20556Y-16965D01*
X20443Y-16964D01*
X20338Y-17008D01*
X20258Y-17088D01*
X20215Y-17193D01*
X20214Y-17306D01*
X20258Y-17411D01*
X20310Y-17463D01*
X20310Y-22786D01*
X20258Y-22838D01*
X20215Y-22943D01*
X20214Y-23056D01*
X20258Y-23161D01*
X20338Y-23241D01*
X20443Y-23284D01*
X20556Y-23285D01*
X20661Y-23241D01*
X20741Y-23161D01*
X20784Y-23056D01*
X20785Y-22943D01*
X20785Y-27075D01*
X20665Y-27074D01*
X20509Y-27139D01*
X20389Y-27258D01*
X20325Y-27415D01*
X20324Y-27584D01*
X20389Y-27740D01*
X20508Y-27860D01*
X20665Y-27924D01*
X20834Y-27925D01*
X20990Y-27860D01*
X21110Y-27741D01*
X21174Y-27584D01*
X21175Y-27415D01*
X21175Y-27950D01*
X20175Y-27950D01*
X20175Y-27415D01*
X20110Y-27259D01*
X19991Y-27139D01*
X19834Y-27075D01*
X19665Y-27074D01*
X19535Y-27128D01*
X19535Y-22943D01*
X19491Y-22838D01*
X19440Y-22786D01*
X19440Y-21713D01*
X19491Y-21661D01*
X19534Y-21556D01*
X19535Y-21443D01*
X19491Y-21338D01*
X19440Y-21286D01*
X19440Y-20213D01*
X19491Y-20161D01*
X19534Y-20056D01*
X19535Y-19943D01*
X19491Y-19838D01*
X19411Y-19758D01*
X19306Y-19715D01*
X19193Y-19714D01*
X19088Y-19758D01*
X19008Y-19838D01*
X18965Y-19943D01*
X18964Y-20056D01*
X19008Y-20161D01*
X19060Y-20213D01*
X19060Y-21286D01*
X19008Y-21338D01*
X18965Y-21443D01*
X18964Y-21556D01*
X19008Y-21661D01*
X19060Y-21713D01*
X19060Y-22786D01*
X19008Y-22838D01*
X18965Y-22943D01*
X18964Y-23056D01*
X19008Y-23161D01*
X19088Y-23241D01*
X19193Y-23284D01*
X19306Y-23285D01*
X19411Y-23241D01*
X19491Y-23161D01*
X19534Y-23056D01*
X19535Y-22943D01*
X19535Y-27128D01*
X19509Y-27139D01*
X19389Y-27258D01*
X19325Y-27415D01*
X19324Y-27584D01*
X19389Y-27740D01*
X19508Y-27860D01*
X19665Y-27924D01*
X19834Y-27925D01*
X19990Y-27860D01*
X20110Y-27741D01*
X20174Y-27584D01*
X20175Y-27415D01*
X20175Y-27950D01*
X19175Y-27950D01*
X19175Y-27415D01*
X19110Y-27259D01*
X18991Y-27139D01*
X18940Y-27118D01*
X18940Y-22463D01*
X18991Y-22411D01*
X19034Y-22306D01*
X19035Y-22193D01*
X18991Y-22088D01*
X18911Y-22008D01*
X18806Y-21965D01*
X18693Y-21964D01*
X18690Y-21966D01*
X18690Y-21463D01*
X18741Y-21411D01*
X18784Y-21306D01*
X18785Y-21193D01*
X18741Y-21088D01*
X18690Y-21036D01*
X18690Y-19463D01*
X18741Y-19411D01*
X18784Y-19306D01*
X18785Y-19193D01*
X18741Y-19088D01*
X18661Y-19008D01*
X18556Y-18965D01*
X18443Y-18964D01*
X18338Y-19008D01*
X18258Y-19088D01*
X18215Y-19193D01*
X18214Y-19306D01*
X18258Y-19411D01*
X18310Y-19463D01*
X18310Y-21036D01*
X18258Y-21088D01*
X18215Y-21193D01*
X18214Y-21306D01*
X18258Y-21411D01*
X18310Y-21463D01*
X18310Y-22786D01*
X18258Y-22838D01*
X18250Y-22858D01*
X18241Y-22838D01*
X18190Y-22786D01*
X18190Y-18713D01*
X18241Y-18661D01*
X18284Y-18556D01*
X18285Y-18443D01*
X18241Y-18338D01*
X18190Y-18286D01*
X18190Y-17213D01*
X18241Y-17161D01*
X18284Y-17056D01*
X18285Y-16943D01*
X18241Y-16838D01*
X18161Y-16758D01*
X18056Y-16715D01*
X17943Y-16714D01*
X17838Y-16758D01*
X17781Y-16815D01*
X17784Y-16806D01*
X17785Y-16693D01*
X17741Y-16588D01*
X17661Y-16508D01*
X17556Y-16465D01*
X17443Y-16464D01*
X17338Y-16508D01*
X17258Y-16588D01*
X17215Y-16693D01*
X17214Y-16806D01*
X17258Y-16911D01*
X17310Y-16963D01*
X17310Y-17536D01*
X17258Y-17588D01*
X17215Y-17693D01*
X17214Y-17806D01*
X17258Y-17911D01*
X17310Y-17963D01*
X17310Y-22786D01*
X17258Y-22838D01*
X17215Y-22943D01*
X17214Y-23056D01*
X17258Y-23161D01*
X17338Y-23241D01*
X17443Y-23284D01*
X17556Y-23285D01*
X17560Y-23283D01*
X17560Y-27074D01*
X17445Y-27074D01*
X17390Y-27097D01*
X17347Y-27139D01*
X17325Y-27195D01*
X17324Y-27254D01*
X17324Y-27804D01*
X17347Y-27859D01*
X17389Y-27902D01*
X17445Y-27924D01*
X17504Y-27925D01*
X18054Y-27925D01*
X18109Y-27902D01*
X18152Y-27860D01*
X18174Y-27804D01*
X18175Y-27745D01*
X18175Y-27195D01*
X18152Y-27140D01*
X18110Y-27097D01*
X18054Y-27075D01*
X17995Y-27074D01*
X17940Y-27074D01*
X17940Y-23283D01*
X17943Y-23284D01*
X18056Y-23285D01*
X18161Y-23241D01*
X18241Y-23161D01*
X18249Y-23141D01*
X18258Y-23161D01*
X18338Y-23241D01*
X18443Y-23284D01*
X18556Y-23285D01*
X18560Y-23283D01*
X18560Y-27118D01*
X18509Y-27139D01*
X18389Y-27258D01*
X18325Y-27415D01*
X18324Y-27584D01*
X18389Y-27740D01*
X18508Y-27860D01*
X18665Y-27924D01*
X18834Y-27925D01*
X18990Y-27860D01*
X19110Y-27741D01*
X19174Y-27584D01*
X19175Y-27415D01*
X19175Y-27950D01*
X14659Y-27950D01*
X14641Y-27905D01*
X14594Y-27858D01*
X14532Y-27833D01*
X14375Y-27802D01*
X14268Y-27730D01*
X14197Y-27624D01*
X14169Y-27483D01*
X14169Y-22520D01*
X14258Y-22610D01*
X14415Y-22674D01*
X14584Y-22675D01*
X14740Y-22610D01*
X14860Y-22491D01*
X14924Y-22334D01*
X14925Y-22165D01*
X14860Y-22009D01*
X14741Y-21889D01*
X14584Y-21825D01*
X14415Y-21824D01*
X14259Y-21889D01*
X14169Y-21979D01*
X14169Y-21520D01*
X14258Y-21610D01*
X14415Y-21674D01*
X14584Y-21675D01*
X14740Y-21610D01*
X14860Y-21491D01*
X14924Y-21334D01*
X14925Y-21165D01*
X14860Y-21009D01*
X14741Y-20889D01*
X14584Y-20825D01*
X14415Y-20824D01*
X14259Y-20889D01*
X14169Y-20979D01*
X14169Y-20664D01*
X14195Y-20674D01*
X14254Y-20675D01*
X14804Y-20675D01*
X14859Y-20652D01*
X14902Y-20610D01*
X14924Y-20554D01*
X14925Y-20495D01*
X14925Y-19945D01*
X14902Y-19890D01*
X14860Y-19847D01*
X14804Y-19825D01*
X14745Y-19824D01*
X14195Y-19824D01*
X14169Y-19835D01*
X14169Y-18520D01*
X14258Y-18610D01*
X14415Y-18674D01*
X14584Y-18675D01*
X14740Y-18610D01*
X14860Y-18491D01*
X14924Y-18334D01*
X14925Y-18165D01*
X14860Y-18009D01*
X14741Y-17889D01*
X14584Y-17825D01*
X14415Y-17824D01*
X14259Y-17889D01*
X14169Y-17979D01*
X14169Y-17520D01*
X14258Y-17610D01*
X14415Y-17674D01*
X14584Y-17675D01*
X14740Y-17610D01*
X14860Y-17491D01*
X14924Y-17334D01*
X14925Y-17165D01*
X14860Y-17009D01*
X14741Y-16889D01*
X14584Y-16825D01*
X14415Y-16824D01*
X14259Y-16889D01*
X14169Y-16979D01*
X14169Y-16664D01*
X14195Y-16674D01*
X14254Y-16675D01*
X14804Y-16675D01*
X14859Y-16652D01*
X14902Y-16610D01*
X14924Y-16554D01*
X14925Y-16495D01*
X14925Y-15945D01*
X14902Y-15890D01*
X14860Y-15847D01*
X14804Y-15825D01*
X14745Y-15824D01*
X14195Y-15824D01*
X14169Y-15835D01*
X14169Y-12516D01*
X14197Y-12375D01*
X14268Y-12269D01*
X14375Y-12197D01*
X14517Y-12169D01*
X15229Y-12169D01*
X15139Y-12258D01*
X15075Y-12415D01*
X15074Y-12584D01*
X15139Y-12740D01*
X15258Y-12860D01*
X15415Y-12924D01*
X15584Y-12925D01*
X15740Y-12860D01*
X15860Y-12741D01*
X15924Y-12584D01*
X15925Y-12415D01*
X15860Y-12259D01*
X15770Y-12169D01*
X16229Y-12169D01*
X16139Y-12258D01*
X16075Y-12415D01*
X16074Y-12584D01*
X16139Y-12740D01*
X16258Y-12860D01*
X16310Y-12881D01*
X16310Y-14036D01*
X16258Y-14088D01*
X16215Y-14193D01*
X16214Y-14306D01*
X16258Y-14411D01*
X16338Y-14491D01*
X16443Y-14534D01*
X16556Y-14535D01*
X16661Y-14491D01*
X16741Y-14411D01*
X16784Y-14306D01*
X16785Y-14193D01*
X16741Y-14088D01*
X16690Y-14036D01*
X16690Y-12881D01*
X16740Y-12860D01*
X16860Y-12741D01*
X16924Y-12584D01*
X16925Y-12415D01*
X16860Y-12259D01*
X16770Y-12169D01*
X17229Y-12169D01*
X17139Y-12258D01*
X17075Y-12415D01*
X17074Y-12584D01*
X17139Y-12740D01*
X17258Y-12860D01*
X17310Y-12881D01*
X17310Y-13786D01*
X17258Y-13838D01*
X17215Y-13943D01*
X17214Y-14056D01*
X17258Y-14161D01*
X17338Y-14241D01*
X17443Y-14284D01*
X17556Y-14285D01*
X17661Y-14241D01*
X17741Y-14161D01*
X17784Y-14056D01*
X17785Y-13943D01*
X17741Y-13838D01*
X17690Y-13786D01*
X17690Y-12881D01*
X17740Y-12860D01*
X17860Y-12741D01*
X17924Y-12584D01*
X17925Y-12415D01*
X17860Y-12259D01*
X17770Y-12169D01*
X18229Y-12169D01*
X18139Y-12258D01*
X18075Y-12415D01*
X18074Y-12584D01*
X18139Y-12740D01*
X18258Y-12860D01*
X18310Y-12881D01*
X18310Y-13536D01*
X18258Y-13588D01*
X18215Y-13693D01*
X18214Y-13806D01*
X18258Y-13911D01*
X18338Y-13991D01*
X18443Y-14034D01*
X18556Y-14035D01*
X18661Y-13991D01*
X18741Y-13911D01*
X18784Y-13806D01*
X18785Y-13693D01*
X18741Y-13588D01*
X18690Y-13536D01*
X18690Y-12881D01*
X18740Y-12860D01*
X18860Y-12741D01*
X18924Y-12584D01*
X18925Y-12415D01*
X18860Y-12259D01*
X18770Y-12169D01*
X19229Y-12169D01*
X19139Y-12258D01*
X19075Y-12415D01*
X19074Y-12584D01*
X19139Y-12740D01*
X19258Y-12860D01*
X19310Y-12881D01*
X19310Y-14286D01*
X19258Y-14338D01*
X19215Y-14443D01*
X19214Y-14556D01*
X19258Y-14661D01*
X19338Y-14741D01*
X19443Y-14784D01*
X19556Y-14785D01*
X19661Y-14741D01*
X19741Y-14661D01*
X19784Y-14556D01*
X19785Y-14443D01*
X19741Y-14338D01*
X19690Y-14286D01*
X19690Y-12881D01*
X19740Y-12860D01*
X19860Y-12741D01*
X19924Y-12584D01*
X19925Y-12415D01*
X19860Y-12259D01*
X19770Y-12169D01*
X20229Y-12169D01*
X20139Y-12258D01*
X20075Y-12415D01*
X20074Y-12584D01*
X20139Y-12740D01*
X20258Y-12860D01*
X20415Y-12924D01*
X20584Y-12925D01*
X20740Y-12860D01*
X20860Y-12741D01*
X20924Y-12584D01*
X20925Y-12415D01*
X20860Y-12259D01*
X20770Y-12169D01*
X21229Y-12169D01*
X21139Y-12258D01*
X21075Y-12415D01*
X21074Y-12584D01*
X21139Y-12740D01*
X21258Y-12860D01*
X21415Y-12924D01*
X21584Y-12925D01*
X21740Y-12860D01*
X21860Y-12741D01*
X21924Y-12584D01*
X21925Y-12415D01*
X21860Y-12259D01*
X21770Y-12169D01*
X22229Y-12169D01*
X22139Y-12258D01*
X22075Y-12415D01*
X22074Y-12584D01*
X22139Y-12740D01*
X22258Y-12860D01*
X22415Y-12924D01*
X22584Y-12925D01*
X22740Y-12860D01*
X22860Y-12741D01*
X22924Y-12584D01*
X22925Y-12415D01*
X22860Y-12259D01*
X22770Y-12169D01*
X23229Y-12169D01*
X23139Y-12258D01*
X23075Y-12415D01*
X23074Y-12584D01*
X23139Y-12740D01*
X23258Y-12860D01*
X23415Y-12924D01*
X23584Y-12925D01*
X23740Y-12860D01*
X23860Y-12741D01*
X23924Y-12584D01*
X23925Y-12415D01*
X23860Y-12259D01*
X23770Y-12169D01*
X24229Y-12169D01*
X24139Y-12258D01*
X24075Y-12415D01*
X24074Y-12584D01*
X24139Y-12740D01*
X24258Y-12860D01*
X24310Y-12881D01*
X24310Y-14786D01*
X24258Y-14838D01*
X24215Y-14943D01*
X24214Y-15056D01*
X24258Y-15161D01*
X24338Y-15241D01*
X24443Y-15284D01*
X24556Y-15285D01*
X24661Y-15241D01*
X24741Y-15161D01*
X24784Y-15056D01*
X24785Y-14943D01*
X24741Y-14838D01*
X24690Y-14786D01*
X24690Y-12881D01*
X24740Y-12860D01*
X24860Y-12741D01*
X24924Y-12584D01*
X24925Y-12415D01*
X24860Y-12259D01*
X24770Y-12169D01*
X26229Y-12169D01*
X26139Y-12258D01*
X26075Y-12415D01*
X26074Y-12584D01*
X26139Y-12740D01*
X26258Y-12860D01*
X26310Y-12881D01*
X26310Y-14536D01*
X26258Y-14588D01*
X26250Y-14608D01*
X26241Y-14588D01*
X26190Y-14536D01*
X26190Y-13463D01*
X26241Y-13411D01*
X26284Y-13306D01*
X26285Y-13193D01*
X26241Y-13088D01*
X26161Y-13008D01*
X26056Y-12965D01*
X25943Y-12964D01*
X25838Y-13008D01*
X25758Y-13088D01*
X25715Y-13193D01*
X25714Y-13306D01*
X25758Y-13411D01*
X25810Y-13463D01*
X25810Y-14536D01*
X25758Y-14588D01*
X25715Y-14693D01*
X25714Y-14806D01*
X25758Y-14911D01*
X25838Y-14991D01*
X25943Y-15034D01*
X26056Y-15035D01*
X26161Y-14991D01*
X26241Y-14911D01*
X26249Y-14891D01*
X26258Y-14911D01*
X26338Y-14991D01*
X26443Y-15034D01*
X26556Y-15035D01*
X26661Y-14991D01*
X26741Y-14911D01*
X26784Y-14806D01*
X26785Y-14693D01*
X26741Y-14588D01*
X26690Y-14536D01*
X26690Y-12881D01*
X26740Y-12860D01*
X26860Y-12741D01*
X26924Y-12584D01*
X26925Y-12415D01*
X26860Y-12259D01*
X26770Y-12169D01*
X27229Y-12169D01*
X27139Y-12258D01*
X27075Y-12415D01*
X27074Y-12584D01*
X27139Y-12740D01*
X27258Y-12860D01*
X27415Y-12924D01*
X27584Y-12925D01*
X27740Y-12860D01*
X27860Y-12741D01*
X27924Y-12584D01*
X27925Y-12415D01*
X27860Y-12259D01*
X27770Y-12169D01*
X28229Y-12169D01*
X28139Y-12258D01*
X28075Y-12415D01*
X28074Y-12584D01*
X28139Y-12740D01*
X28258Y-12860D01*
X28415Y-12924D01*
X28584Y-12925D01*
X28740Y-12860D01*
X28860Y-12741D01*
X28924Y-12584D01*
X28925Y-12415D01*
X28860Y-12259D01*
X28770Y-12169D01*
X35033Y-12169D01*
X34851Y-12351D01*
X34805Y-12419D01*
X34790Y-12500D01*
X34790Y-17556D01*
X34758Y-17588D01*
X34715Y-17693D01*
X34714Y-17806D01*
X34758Y-17911D01*
X34838Y-17991D01*
X34943Y-18034D01*
X35056Y-18035D01*
X35161Y-17991D01*
X35241Y-17911D01*
X35284Y-17806D01*
X35285Y-17693D01*
X35241Y-17588D01*
X35210Y-17556D01*
X35210Y-12586D01*
X35336Y-12460D01*
X36499Y-12460D01*
X36499Y-12608D01*
X36491Y-12588D01*
X36411Y-12508D01*
X36306Y-12465D01*
X36193Y-12464D01*
X36088Y-12508D01*
X36008Y-12588D01*
X35965Y-12693D01*
X35964Y-12806D01*
X36008Y-12911D01*
X36088Y-12991D01*
X36193Y-13034D01*
X36266Y-13035D01*
X37060Y-13828D01*
X37060Y-14036D01*
X37008Y-14088D01*
X36965Y-14193D01*
X36964Y-14306D01*
X37008Y-14411D01*
X37088Y-14491D01*
X37193Y-14534D01*
X37306Y-14535D01*
X37310Y-14533D01*
X37310Y-15921D01*
X37016Y-16215D01*
X36943Y-16214D01*
X36838Y-16258D01*
X36758Y-16338D01*
X36715Y-16443D01*
X36714Y-16556D01*
X36758Y-16661D01*
X36838Y-16741D01*
X36943Y-16784D01*
X37056Y-16785D01*
X37161Y-16741D01*
X37241Y-16661D01*
X37284Y-16556D01*
X37285Y-16483D01*
X37634Y-16134D01*
X37675Y-16072D01*
X37690Y-16000D01*
X37690Y-13500D01*
X37675Y-13427D01*
X37634Y-13365D01*
X37284Y-13016D01*
X37285Y-12943D01*
X37241Y-12838D01*
X37161Y-12758D01*
X37141Y-12750D01*
X37379Y-12750D01*
X37434Y-12727D01*
X37477Y-12685D01*
X37499Y-12629D01*
X37499Y-12629D01*
X37522Y-12684D01*
X37564Y-12727D01*
X37620Y-12749D01*
X37679Y-12750D01*
X37981Y-12750D01*
X38215Y-12983D01*
X38214Y-13056D01*
X38258Y-13161D01*
X38338Y-13241D01*
X38443Y-13284D01*
X38556Y-13285D01*
X38661Y-13241D01*
X38741Y-13161D01*
X38784Y-13056D01*
X38785Y-12943D01*
X38741Y-12838D01*
X38661Y-12758D01*
X38556Y-12715D01*
X38483Y-12714D01*
X38465Y-12696D01*
X38477Y-12685D01*
X38499Y-12629D01*
X38500Y-12570D01*
X38500Y-12169D01*
X51085Y-12169D01*
X51075Y-12195D01*
X51075Y-12200D01*
X50750Y-12200D01*
X50635Y-12222D01*
X50537Y-12287D01*
X50037Y-12787D01*
X49972Y-12885D01*
X49950Y-13000D01*
X49950Y-14375D01*
X49625Y-14700D01*
X48750Y-14700D01*
X48750Y-13320D01*
X48750Y-12620D01*
X48727Y-12565D01*
X48685Y-12522D01*
X48629Y-12500D01*
X48570Y-12499D01*
X47870Y-12499D01*
X47815Y-12522D01*
X47772Y-12564D01*
X47750Y-12620D01*
X47749Y-12679D01*
X47749Y-12790D01*
X45500Y-12790D01*
X45419Y-12805D01*
X45351Y-12851D01*
X45351Y-12851D01*
X45101Y-13101D01*
X45055Y-13169D01*
X45040Y-13250D01*
X45040Y-14413D01*
X44913Y-14540D01*
X43193Y-14540D01*
X43161Y-14508D01*
X43056Y-14465D01*
X42943Y-14464D01*
X42940Y-14466D01*
X42940Y-14000D01*
X42940Y-13500D01*
X42925Y-13427D01*
X42884Y-13365D01*
X42884Y-13365D01*
X42784Y-13266D01*
X42785Y-13193D01*
X42741Y-13088D01*
X42661Y-13008D01*
X42556Y-12965D01*
X42443Y-12964D01*
X42338Y-13008D01*
X42258Y-13088D01*
X42215Y-13193D01*
X42214Y-13306D01*
X42218Y-13315D01*
X42161Y-13258D01*
X42056Y-13215D01*
X41943Y-13214D01*
X41838Y-13258D01*
X41758Y-13338D01*
X41715Y-13443D01*
X41715Y-13464D01*
X41693Y-13464D01*
X41588Y-13508D01*
X41508Y-13588D01*
X41465Y-13693D01*
X41464Y-13806D01*
X41508Y-13911D01*
X41560Y-13963D01*
X41560Y-18286D01*
X41508Y-18338D01*
X41465Y-18443D01*
X41464Y-18556D01*
X41508Y-18661D01*
X41588Y-18741D01*
X41693Y-18784D01*
X41806Y-18785D01*
X41911Y-18741D01*
X41991Y-18661D01*
X42034Y-18556D01*
X42035Y-18443D01*
X41991Y-18338D01*
X41940Y-18286D01*
X41940Y-16458D01*
X42076Y-16595D01*
X42050Y-16660D01*
X42049Y-16839D01*
X42118Y-17004D01*
X42244Y-17131D01*
X42410Y-17199D01*
X42589Y-17200D01*
X42754Y-17131D01*
X42810Y-17076D01*
X42810Y-17171D01*
X42654Y-17326D01*
X42589Y-17300D01*
X42410Y-17299D01*
X42245Y-17368D01*
X42118Y-17494D01*
X42050Y-17660D01*
X42049Y-17839D01*
X42118Y-18004D01*
X42244Y-18131D01*
X42410Y-18199D01*
X42589Y-18200D01*
X42754Y-18131D01*
X42881Y-18005D01*
X42949Y-17839D01*
X42950Y-17660D01*
X42923Y-17595D01*
X43049Y-17468D01*
X43049Y-17479D01*
X43049Y-18079D01*
X43072Y-18134D01*
X43114Y-18177D01*
X43170Y-18199D01*
X43229Y-18200D01*
X43829Y-18200D01*
X43884Y-18177D01*
X43927Y-18135D01*
X43949Y-18079D01*
X43950Y-18020D01*
X43950Y-17468D01*
X44060Y-17578D01*
X44060Y-18921D01*
X41615Y-21365D01*
X41574Y-21427D01*
X41560Y-21500D01*
X41560Y-23286D01*
X41508Y-23338D01*
X41465Y-23443D01*
X41464Y-23556D01*
X41508Y-23661D01*
X41588Y-23741D01*
X41693Y-23784D01*
X41714Y-23784D01*
X41714Y-23806D01*
X41758Y-23911D01*
X41838Y-23991D01*
X41943Y-24034D01*
X42056Y-24035D01*
X42161Y-23991D01*
X42241Y-23911D01*
X42284Y-23806D01*
X42285Y-23693D01*
X42241Y-23588D01*
X42190Y-23536D01*
X42190Y-21828D01*
X44634Y-19384D01*
X44675Y-19322D01*
X44690Y-19250D01*
X44690Y-16750D01*
X44675Y-16677D01*
X44634Y-16615D01*
X44634Y-16615D01*
X43923Y-15904D01*
X43949Y-15839D01*
X43950Y-15660D01*
X43881Y-15495D01*
X43755Y-15368D01*
X43589Y-15300D01*
X43410Y-15299D01*
X43245Y-15368D01*
X43190Y-15423D01*
X43190Y-15250D01*
X43175Y-15177D01*
X43134Y-15115D01*
X43134Y-15115D01*
X43053Y-15035D01*
X43056Y-15035D01*
X43161Y-14991D01*
X43193Y-14960D01*
X45000Y-14960D01*
X45080Y-14944D01*
X45148Y-14898D01*
X45398Y-14648D01*
X45398Y-14648D01*
X45398Y-14648D01*
X45444Y-14580D01*
X45444Y-14580D01*
X45460Y-14500D01*
X45460Y-13336D01*
X45586Y-13210D01*
X47749Y-13210D01*
X47749Y-13379D01*
X47772Y-13434D01*
X47814Y-13477D01*
X47870Y-13499D01*
X47929Y-13500D01*
X48629Y-13500D01*
X48684Y-13477D01*
X48727Y-13435D01*
X48749Y-13379D01*
X48750Y-13320D01*
X48750Y-14700D01*
X48657Y-14700D01*
X48533Y-14576D01*
X48349Y-14500D01*
X48150Y-14499D01*
X47967Y-14575D01*
X47826Y-14716D01*
X47750Y-14900D01*
X47749Y-15099D01*
X47825Y-15282D01*
X47950Y-15407D01*
X47950Y-19499D01*
X47870Y-19499D01*
X47815Y-19522D01*
X47772Y-19564D01*
X47750Y-19620D01*
X47749Y-19679D01*
X47749Y-20379D01*
X47772Y-20434D01*
X47814Y-20477D01*
X47870Y-20499D01*
X47929Y-20500D01*
X48629Y-20500D01*
X48684Y-20477D01*
X48727Y-20435D01*
X48749Y-20379D01*
X48750Y-20320D01*
X48750Y-19620D01*
X48727Y-19565D01*
X48685Y-19522D01*
X48629Y-19500D01*
X48570Y-19499D01*
X48550Y-19499D01*
X48550Y-15407D01*
X48657Y-15300D01*
X49750Y-15300D01*
X49750Y-15299D01*
X49864Y-15277D01*
X49864Y-15277D01*
X49962Y-15212D01*
X50462Y-14712D01*
X50462Y-14712D01*
X50527Y-14614D01*
X50549Y-14500D01*
X50550Y-14500D01*
X50550Y-13124D01*
X50874Y-12800D01*
X51074Y-12800D01*
X51074Y-12804D01*
X51097Y-12859D01*
X51139Y-12902D01*
X51195Y-12924D01*
X51254Y-12925D01*
X51804Y-12925D01*
X51859Y-12902D01*
X51902Y-12860D01*
X51924Y-12804D01*
X51925Y-12745D01*
X51925Y-12195D01*
X51914Y-12169D01*
X52483Y-12169D01*
X52624Y-12197D01*
X52730Y-12268D01*
X52802Y-12375D01*
X52830Y-12517D01*
X52830Y-17085D01*
X52804Y-17075D01*
X52745Y-17074D01*
X52195Y-17074D01*
X52140Y-17097D01*
X52097Y-17139D01*
X52075Y-17195D01*
X52074Y-17254D01*
X52074Y-17804D01*
X52097Y-17859D01*
X52139Y-17902D01*
X52195Y-17924D01*
X52254Y-17925D01*
X52804Y-17925D01*
X52830Y-17914D01*
X52830Y-18229D01*
X52741Y-18139D01*
X52584Y-18075D01*
X52415Y-18074D01*
X52259Y-18139D01*
X52139Y-18258D01*
X52081Y-18399D01*
X51700Y-18781D01*
X51700Y-15770D01*
X51700Y-15170D01*
X51677Y-15115D01*
X51635Y-15072D01*
X51579Y-15050D01*
X51520Y-15049D01*
X50920Y-15049D01*
X50865Y-15072D01*
X50822Y-15114D01*
X50800Y-15170D01*
X50799Y-15229D01*
X50799Y-15829D01*
X50822Y-15884D01*
X50864Y-15927D01*
X50920Y-15949D01*
X50979Y-15950D01*
X51579Y-15950D01*
X51634Y-15927D01*
X51677Y-15885D01*
X51699Y-15829D01*
X51700Y-15770D01*
X51700Y-18781D01*
X51615Y-18865D01*
X51574Y-18927D01*
X51560Y-19000D01*
X51560Y-20786D01*
X51508Y-20838D01*
X51465Y-20943D01*
X51464Y-21056D01*
X51508Y-21161D01*
X51588Y-21241D01*
X51693Y-21284D01*
X51806Y-21285D01*
X51911Y-21241D01*
X51991Y-21161D01*
X52034Y-21056D01*
X52035Y-20943D01*
X51991Y-20838D01*
X51940Y-20786D01*
X51940Y-19078D01*
X52208Y-18809D01*
X52258Y-18860D01*
X52415Y-18924D01*
X52584Y-18925D01*
X52740Y-18860D01*
X52830Y-18770D01*
X52830Y-19229D01*
X52741Y-19139D01*
X52584Y-19075D01*
X52415Y-19074D01*
X52259Y-19139D01*
X52139Y-19258D01*
X52075Y-19415D01*
X52074Y-19584D01*
X52139Y-19740D01*
X52258Y-19860D01*
X52415Y-19924D01*
X52584Y-19925D01*
X52740Y-19860D01*
X52830Y-19770D01*
X52830Y-22482D01*
X52830Y-22482D01*
G37*
G54D28*
X52830Y-22482D02*
X52802Y-22624D01*
X52730Y-22731D01*
X52624Y-22802D01*
X52483Y-22830D01*
X50500Y-22830D01*
X50483Y-22833D01*
X50467Y-22833D01*
X50371Y-22852D01*
X50371Y-22852D01*
X50309Y-22877D01*
X50228Y-22932D01*
X50211Y-22950D01*
X50000Y-22950D01*
X49940Y-22949D01*
X49940Y-22950D01*
X49500Y-22950D01*
X49440Y-22949D01*
X49440Y-22950D01*
X49000Y-22950D01*
X48940Y-22949D01*
X48940Y-22950D01*
X48788Y-22950D01*
X48770Y-22932D01*
X48770Y-22931D01*
X48750Y-22918D01*
X48750Y-21900D01*
X48674Y-21717D01*
X48533Y-21576D01*
X48349Y-21500D01*
X48150Y-21499D01*
X47967Y-21575D01*
X47826Y-21716D01*
X47750Y-21900D01*
X47749Y-22099D01*
X47825Y-22282D01*
X47966Y-22423D01*
X48150Y-22499D01*
X48349Y-22500D01*
X48532Y-22424D01*
X48673Y-22283D01*
X48749Y-22099D01*
X48750Y-21900D01*
X48750Y-22918D01*
X48690Y-22878D01*
X48689Y-22877D01*
X48628Y-22852D01*
X48532Y-22833D01*
X48516Y-22833D01*
X48500Y-22830D01*
X45000Y-22830D01*
X44982Y-22833D01*
X44967Y-22833D01*
X44775Y-22871D01*
X44714Y-22896D01*
X44713Y-22897D01*
X44635Y-22950D01*
X44450Y-22950D01*
X44450Y-23134D01*
X44397Y-23213D01*
X44396Y-23214D01*
X44371Y-23275D01*
X44333Y-23467D01*
X44333Y-23483D01*
X44330Y-23500D01*
X44330Y-27482D01*
X44302Y-27624D01*
X44230Y-27731D01*
X44124Y-27802D01*
X43983Y-27830D01*
X43600Y-27830D01*
X43600Y-24831D01*
X43471Y-24519D01*
X43232Y-24279D01*
X42919Y-24150D01*
X42581Y-24149D01*
X42269Y-24278D01*
X42029Y-24517D01*
X41900Y-24830D01*
X41899Y-25168D01*
X42028Y-25480D01*
X42267Y-25720D01*
X42580Y-25849D01*
X42918Y-25850D01*
X43230Y-25721D01*
X43470Y-25482D01*
X43599Y-25169D01*
X43600Y-24831D01*
X43600Y-27830D01*
X42500Y-27830D01*
X42483Y-27833D01*
X42467Y-27833D01*
X42371Y-27852D01*
X42371Y-27852D01*
X42309Y-27877D01*
X42228Y-27932D01*
X42211Y-27950D01*
X42000Y-27950D01*
X41940Y-27949D01*
X41940Y-27950D01*
X41500Y-27950D01*
X41440Y-27949D01*
X41440Y-27950D01*
X41000Y-27950D01*
X40940Y-27949D01*
X40940Y-27950D01*
X40788Y-27950D01*
X40770Y-27932D01*
X40770Y-27931D01*
X40760Y-27925D01*
X40834Y-27925D01*
X40990Y-27860D01*
X41110Y-27741D01*
X41174Y-27584D01*
X41175Y-27415D01*
X41110Y-27259D01*
X41035Y-27183D01*
X41035Y-14943D01*
X40991Y-14838D01*
X40911Y-14758D01*
X40806Y-14715D01*
X40733Y-14714D01*
X40690Y-14671D01*
X40690Y-12750D01*
X40675Y-12677D01*
X40634Y-12615D01*
X40634Y-12615D01*
X40534Y-12516D01*
X40535Y-12443D01*
X40491Y-12338D01*
X40411Y-12258D01*
X40306Y-12215D01*
X40193Y-12214D01*
X40088Y-12258D01*
X40008Y-12338D01*
X39965Y-12443D01*
X39964Y-12556D01*
X40008Y-12661D01*
X40088Y-12741D01*
X40193Y-12784D01*
X40266Y-12785D01*
X40310Y-12828D01*
X40310Y-14216D01*
X40306Y-14215D01*
X40193Y-14214D01*
X40190Y-14216D01*
X40190Y-13713D01*
X40241Y-13661D01*
X40284Y-13556D01*
X40285Y-13443D01*
X40241Y-13338D01*
X40161Y-13258D01*
X40056Y-13215D01*
X40035Y-13215D01*
X40035Y-13193D01*
X39991Y-13088D01*
X39911Y-13008D01*
X39806Y-12965D01*
X39693Y-12964D01*
X39588Y-13008D01*
X39508Y-13088D01*
X39465Y-13193D01*
X39464Y-13306D01*
X39508Y-13411D01*
X39560Y-13463D01*
X39560Y-16286D01*
X39508Y-16338D01*
X39465Y-16443D01*
X39464Y-16556D01*
X39508Y-16661D01*
X39588Y-16741D01*
X39693Y-16784D01*
X39806Y-16785D01*
X39810Y-16783D01*
X39810Y-21000D01*
X39824Y-21072D01*
X39865Y-21134D01*
X39965Y-21233D01*
X39964Y-21306D01*
X40008Y-21411D01*
X40088Y-21491D01*
X40193Y-21534D01*
X40306Y-21535D01*
X40411Y-21491D01*
X40491Y-21411D01*
X40534Y-21306D01*
X40535Y-21193D01*
X40491Y-21088D01*
X40411Y-21008D01*
X40306Y-20965D01*
X40233Y-20964D01*
X40190Y-20921D01*
X40190Y-16533D01*
X40193Y-16534D01*
X40306Y-16535D01*
X40411Y-16491D01*
X40491Y-16411D01*
X40534Y-16306D01*
X40535Y-16193D01*
X40491Y-16088D01*
X40460Y-16056D01*
X40460Y-14978D01*
X40465Y-14983D01*
X40464Y-15056D01*
X40508Y-15161D01*
X40588Y-15241D01*
X40693Y-15284D01*
X40806Y-15285D01*
X40911Y-15241D01*
X40991Y-15161D01*
X41034Y-15056D01*
X41035Y-14943D01*
X41035Y-27183D01*
X40991Y-27139D01*
X40834Y-27075D01*
X40665Y-27074D01*
X40509Y-27139D01*
X40389Y-27258D01*
X40325Y-27415D01*
X40324Y-27584D01*
X40389Y-27740D01*
X40479Y-27830D01*
X40020Y-27830D01*
X40110Y-27741D01*
X40174Y-27584D01*
X40175Y-27415D01*
X40110Y-27259D01*
X39991Y-27139D01*
X39834Y-27075D01*
X39665Y-27074D01*
X39509Y-27139D01*
X39389Y-27258D01*
X39325Y-27415D01*
X39324Y-27584D01*
X39389Y-27740D01*
X39479Y-27830D01*
X39020Y-27830D01*
X39110Y-27741D01*
X39174Y-27584D01*
X39175Y-27415D01*
X39110Y-27259D01*
X38991Y-27139D01*
X38940Y-27118D01*
X38940Y-25578D01*
X39483Y-25034D01*
X39556Y-25035D01*
X39661Y-24991D01*
X39741Y-24911D01*
X39784Y-24806D01*
X39785Y-24693D01*
X39741Y-24588D01*
X39661Y-24508D01*
X39556Y-24465D01*
X39443Y-24464D01*
X39338Y-24508D01*
X39258Y-24588D01*
X39215Y-24693D01*
X39214Y-24766D01*
X38615Y-25365D01*
X38574Y-25427D01*
X38560Y-25500D01*
X38560Y-27118D01*
X38509Y-27139D01*
X38389Y-27258D01*
X38325Y-27415D01*
X38324Y-27584D01*
X38389Y-27740D01*
X38479Y-27830D01*
X38164Y-27830D01*
X38174Y-27804D01*
X38175Y-27745D01*
X38175Y-27195D01*
X38152Y-27140D01*
X38110Y-27097D01*
X38054Y-27075D01*
X37995Y-27074D01*
X37940Y-27074D01*
X37940Y-26713D01*
X37991Y-26661D01*
X38034Y-26556D01*
X38035Y-26443D01*
X37991Y-26338D01*
X37911Y-26258D01*
X37806Y-26215D01*
X37693Y-26214D01*
X37588Y-26258D01*
X37508Y-26338D01*
X37465Y-26443D01*
X37464Y-26556D01*
X37508Y-26661D01*
X37560Y-26713D01*
X37560Y-27074D01*
X37445Y-27074D01*
X37390Y-27097D01*
X37347Y-27139D01*
X37325Y-27195D01*
X37324Y-27254D01*
X37324Y-27804D01*
X37335Y-27830D01*
X37020Y-27830D01*
X37110Y-27741D01*
X37174Y-27584D01*
X37175Y-27415D01*
X37110Y-27259D01*
X36991Y-27139D01*
X36940Y-27118D01*
X36940Y-26533D01*
X36943Y-26534D01*
X37056Y-26535D01*
X37161Y-26491D01*
X37241Y-26411D01*
X37284Y-26306D01*
X37284Y-26285D01*
X37306Y-26285D01*
X37411Y-26241D01*
X37491Y-26161D01*
X37534Y-26056D01*
X37534Y-26035D01*
X37556Y-26035D01*
X37661Y-25991D01*
X37741Y-25911D01*
X37784Y-25806D01*
X37784Y-25785D01*
X37806Y-25785D01*
X37911Y-25741D01*
X37991Y-25661D01*
X38034Y-25556D01*
X38034Y-25535D01*
X38056Y-25535D01*
X38161Y-25491D01*
X38241Y-25411D01*
X38284Y-25306D01*
X38284Y-25285D01*
X38306Y-25285D01*
X38411Y-25241D01*
X38491Y-25161D01*
X38534Y-25056D01*
X38535Y-24943D01*
X38491Y-24838D01*
X38440Y-24786D01*
X38440Y-22963D01*
X38491Y-22911D01*
X38534Y-22806D01*
X38535Y-22693D01*
X38531Y-22684D01*
X38560Y-22713D01*
X38560Y-23786D01*
X38508Y-23838D01*
X38465Y-23943D01*
X38464Y-24056D01*
X38508Y-24161D01*
X38588Y-24241D01*
X38693Y-24284D01*
X38806Y-24285D01*
X38911Y-24241D01*
X38991Y-24161D01*
X39034Y-24056D01*
X39035Y-23943D01*
X38991Y-23838D01*
X38940Y-23786D01*
X38940Y-22713D01*
X38991Y-22661D01*
X39034Y-22556D01*
X39035Y-22443D01*
X38991Y-22338D01*
X38911Y-22258D01*
X38806Y-22215D01*
X38693Y-22214D01*
X38588Y-22258D01*
X38508Y-22338D01*
X38465Y-22443D01*
X38464Y-22556D01*
X38468Y-22565D01*
X38411Y-22508D01*
X38306Y-22465D01*
X38285Y-22465D01*
X38285Y-22443D01*
X38241Y-22338D01*
X38161Y-22258D01*
X38056Y-22215D01*
X38035Y-22215D01*
X38035Y-22193D01*
X37991Y-22088D01*
X37911Y-22008D01*
X37806Y-21965D01*
X37693Y-21964D01*
X37588Y-22008D01*
X37508Y-22088D01*
X37500Y-22108D01*
X37491Y-22088D01*
X37411Y-22008D01*
X37306Y-21965D01*
X37193Y-21964D01*
X37088Y-22008D01*
X37008Y-22088D01*
X36965Y-22193D01*
X36965Y-22214D01*
X36943Y-22214D01*
X36838Y-22258D01*
X36758Y-22338D01*
X36715Y-22443D01*
X36714Y-22556D01*
X36758Y-22661D01*
X36810Y-22713D01*
X36810Y-23716D01*
X36806Y-23715D01*
X36693Y-23714D01*
X36588Y-23758D01*
X36508Y-23838D01*
X36465Y-23943D01*
X36464Y-24056D01*
X36508Y-24161D01*
X36560Y-24213D01*
X36560Y-27118D01*
X36509Y-27139D01*
X36389Y-27258D01*
X36325Y-27415D01*
X36324Y-27584D01*
X36389Y-27740D01*
X36479Y-27830D01*
X36020Y-27830D01*
X36110Y-27741D01*
X36174Y-27584D01*
X36175Y-27415D01*
X36110Y-27259D01*
X35991Y-27139D01*
X35834Y-27075D01*
X35665Y-27074D01*
X35614Y-27096D01*
X35190Y-26671D01*
X35190Y-24283D01*
X35193Y-24284D01*
X35306Y-24285D01*
X35411Y-24241D01*
X35491Y-24161D01*
X35534Y-24056D01*
X35535Y-23943D01*
X35491Y-23838D01*
X35440Y-23786D01*
X35440Y-19463D01*
X35491Y-19411D01*
X35534Y-19306D01*
X35535Y-19193D01*
X35491Y-19088D01*
X35411Y-19008D01*
X35306Y-18965D01*
X35285Y-18965D01*
X35285Y-18943D01*
X35241Y-18838D01*
X35161Y-18758D01*
X35056Y-18715D01*
X34943Y-18714D01*
X34838Y-18758D01*
X34758Y-18838D01*
X34715Y-18943D01*
X34714Y-19056D01*
X34758Y-19161D01*
X34810Y-19213D01*
X34810Y-23716D01*
X34806Y-23715D01*
X34693Y-23714D01*
X34690Y-23716D01*
X34690Y-19963D01*
X34741Y-19911D01*
X34784Y-19806D01*
X34785Y-19693D01*
X34741Y-19588D01*
X34661Y-19508D01*
X34556Y-19465D01*
X34535Y-19465D01*
X34535Y-19443D01*
X34491Y-19338D01*
X34411Y-19258D01*
X34306Y-19215D01*
X34193Y-19214D01*
X34190Y-19216D01*
X34190Y-18463D01*
X34241Y-18411D01*
X34284Y-18306D01*
X34285Y-18193D01*
X34241Y-18088D01*
X34161Y-18008D01*
X34056Y-17965D01*
X33943Y-17964D01*
X33940Y-17966D01*
X33940Y-16963D01*
X33991Y-16911D01*
X34034Y-16806D01*
X34035Y-16693D01*
X33991Y-16588D01*
X33911Y-16508D01*
X33806Y-16465D01*
X33785Y-16465D01*
X33785Y-16443D01*
X33741Y-16338D01*
X33690Y-16286D01*
X33690Y-13963D01*
X33741Y-13911D01*
X33784Y-13806D01*
X33785Y-13693D01*
X33741Y-13588D01*
X33661Y-13508D01*
X33556Y-13465D01*
X33443Y-13464D01*
X33338Y-13508D01*
X33258Y-13588D01*
X33215Y-13693D01*
X33215Y-13714D01*
X33193Y-13714D01*
X33088Y-13758D01*
X33008Y-13838D01*
X32965Y-13943D01*
X32965Y-13964D01*
X32943Y-13964D01*
X32838Y-14008D01*
X32758Y-14088D01*
X32715Y-14193D01*
X32714Y-14306D01*
X32758Y-14411D01*
X32810Y-14463D01*
X32810Y-14716D01*
X32806Y-14715D01*
X32693Y-14714D01*
X32588Y-14758D01*
X32508Y-14838D01*
X32465Y-14943D01*
X32464Y-15056D01*
X32508Y-15161D01*
X32560Y-15213D01*
X32560Y-15536D01*
X32508Y-15588D01*
X32465Y-15693D01*
X32464Y-15806D01*
X32508Y-15911D01*
X32560Y-15963D01*
X32560Y-16286D01*
X32508Y-16338D01*
X32465Y-16443D01*
X32464Y-16556D01*
X32508Y-16661D01*
X32588Y-16741D01*
X32693Y-16784D01*
X32806Y-16785D01*
X32810Y-16783D01*
X32810Y-20286D01*
X32758Y-20338D01*
X32715Y-20443D01*
X32714Y-20556D01*
X32758Y-20661D01*
X32838Y-20741D01*
X32943Y-20784D01*
X33056Y-20785D01*
X33161Y-20741D01*
X33241Y-20661D01*
X33284Y-20556D01*
X33284Y-20535D01*
X33306Y-20535D01*
X33310Y-20533D01*
X33310Y-24536D01*
X33258Y-24588D01*
X33215Y-24693D01*
X33214Y-24806D01*
X33258Y-24911D01*
X33338Y-24991D01*
X33443Y-25034D01*
X33556Y-25035D01*
X33560Y-25033D01*
X33560Y-27074D01*
X33445Y-27074D01*
X33390Y-27097D01*
X33347Y-27139D01*
X33325Y-27195D01*
X33324Y-27254D01*
X33324Y-27804D01*
X33335Y-27830D01*
X33020Y-27830D01*
X33110Y-27741D01*
X33174Y-27584D01*
X33175Y-27415D01*
X33110Y-27259D01*
X32991Y-27139D01*
X32940Y-27118D01*
X32940Y-24963D01*
X32991Y-24911D01*
X33034Y-24806D01*
X33035Y-24693D01*
X32991Y-24588D01*
X32911Y-24508D01*
X32806Y-24465D01*
X32693Y-24464D01*
X32588Y-24508D01*
X32508Y-24588D01*
X32465Y-24693D01*
X32464Y-24806D01*
X32508Y-24911D01*
X32560Y-24963D01*
X32560Y-27118D01*
X32509Y-27139D01*
X32389Y-27258D01*
X32325Y-27415D01*
X32324Y-27584D01*
X32389Y-27740D01*
X32479Y-27830D01*
X32200Y-27830D01*
X32200Y-13020D01*
X32200Y-12420D01*
X32177Y-12365D01*
X32135Y-12322D01*
X32079Y-12300D01*
X32020Y-12299D01*
X31420Y-12299D01*
X31365Y-12322D01*
X31322Y-12364D01*
X31300Y-12420D01*
X31299Y-12479D01*
X31299Y-13079D01*
X31322Y-13134D01*
X31364Y-13177D01*
X31420Y-13199D01*
X31479Y-13200D01*
X32079Y-13200D01*
X32134Y-13177D01*
X32177Y-13135D01*
X32199Y-13079D01*
X32200Y-13020D01*
X32200Y-27830D01*
X32020Y-27830D01*
X32110Y-27741D01*
X32174Y-27584D01*
X32175Y-27415D01*
X32110Y-27259D01*
X31991Y-27139D01*
X31940Y-27118D01*
X31940Y-24713D01*
X31991Y-24661D01*
X32034Y-24556D01*
X32035Y-24443D01*
X31991Y-24338D01*
X31911Y-24258D01*
X31806Y-24215D01*
X31693Y-24214D01*
X31588Y-24258D01*
X31535Y-24311D01*
X31535Y-15693D01*
X31491Y-15588D01*
X31440Y-15536D01*
X31440Y-13713D01*
X31491Y-13661D01*
X31534Y-13556D01*
X31535Y-13443D01*
X31491Y-13338D01*
X31411Y-13258D01*
X31306Y-13215D01*
X31193Y-13214D01*
X31088Y-13258D01*
X31031Y-13315D01*
X31034Y-13306D01*
X31035Y-13193D01*
X30991Y-13088D01*
X30911Y-13008D01*
X30806Y-12965D01*
X30693Y-12964D01*
X30588Y-13008D01*
X30508Y-13088D01*
X30465Y-13193D01*
X30464Y-13306D01*
X30508Y-13411D01*
X30540Y-13443D01*
X30540Y-16556D01*
X30508Y-16588D01*
X30465Y-16693D01*
X30464Y-16806D01*
X30508Y-16911D01*
X30588Y-16991D01*
X30693Y-17034D01*
X30806Y-17035D01*
X30911Y-16991D01*
X30991Y-16911D01*
X31034Y-16806D01*
X31035Y-16693D01*
X30991Y-16588D01*
X30960Y-16556D01*
X30960Y-13443D01*
X30968Y-13434D01*
X30965Y-13443D01*
X30964Y-13556D01*
X31008Y-13661D01*
X31060Y-13713D01*
X31060Y-15536D01*
X31008Y-15588D01*
X30965Y-15693D01*
X30964Y-15806D01*
X31008Y-15911D01*
X31088Y-15991D01*
X31193Y-16034D01*
X31306Y-16035D01*
X31411Y-15991D01*
X31491Y-15911D01*
X31534Y-15806D01*
X31535Y-15693D01*
X31535Y-24311D01*
X31508Y-24338D01*
X31465Y-24443D01*
X31464Y-24556D01*
X31508Y-24661D01*
X31560Y-24713D01*
X31560Y-27118D01*
X31509Y-27139D01*
X31389Y-27258D01*
X31325Y-27415D01*
X31324Y-27584D01*
X31389Y-27740D01*
X31479Y-27830D01*
X31020Y-27830D01*
X31110Y-27741D01*
X31174Y-27584D01*
X31175Y-27415D01*
X31110Y-27259D01*
X30991Y-27139D01*
X30940Y-27118D01*
X30940Y-24713D01*
X30991Y-24661D01*
X31034Y-24556D01*
X31035Y-24443D01*
X30991Y-24338D01*
X30911Y-24258D01*
X30806Y-24215D01*
X30693Y-24214D01*
X30588Y-24258D01*
X30508Y-24338D01*
X30465Y-24443D01*
X30464Y-24556D01*
X30508Y-24661D01*
X30560Y-24713D01*
X30560Y-27118D01*
X30509Y-27139D01*
X30389Y-27258D01*
X30325Y-27415D01*
X30324Y-27584D01*
X30389Y-27740D01*
X30479Y-27830D01*
X30164Y-27830D01*
X30174Y-27804D01*
X30175Y-27745D01*
X30175Y-27195D01*
X30152Y-27140D01*
X30110Y-27097D01*
X30054Y-27075D01*
X29995Y-27074D01*
X29940Y-27074D01*
X29940Y-26783D01*
X29943Y-26784D01*
X29964Y-26784D01*
X29964Y-26806D01*
X30008Y-26911D01*
X30088Y-26991D01*
X30193Y-27034D01*
X30306Y-27035D01*
X30411Y-26991D01*
X30491Y-26911D01*
X30534Y-26806D01*
X30535Y-26693D01*
X30491Y-26588D01*
X30440Y-26536D01*
X30440Y-22713D01*
X30491Y-22661D01*
X30534Y-22556D01*
X30535Y-22443D01*
X30535Y-17943D01*
X30491Y-17838D01*
X30440Y-17786D01*
X30440Y-16213D01*
X30491Y-16161D01*
X30534Y-16056D01*
X30535Y-15943D01*
X30491Y-15838D01*
X30411Y-15758D01*
X30306Y-15715D01*
X30193Y-15714D01*
X30088Y-15758D01*
X30008Y-15838D01*
X29965Y-15943D01*
X29964Y-16056D01*
X30008Y-16161D01*
X30060Y-16213D01*
X30060Y-17786D01*
X30008Y-17838D01*
X29965Y-17943D01*
X29964Y-18056D01*
X30008Y-18161D01*
X30088Y-18241D01*
X30193Y-18284D01*
X30306Y-18285D01*
X30411Y-18241D01*
X30491Y-18161D01*
X30534Y-18056D01*
X30535Y-17943D01*
X30535Y-22443D01*
X30491Y-22338D01*
X30411Y-22258D01*
X30306Y-22215D01*
X30285Y-22215D01*
X30285Y-22193D01*
X30241Y-22088D01*
X30161Y-22008D01*
X30056Y-21965D01*
X30035Y-21965D01*
X30035Y-21943D01*
X29991Y-21838D01*
X29911Y-21758D01*
X29806Y-21715D01*
X29785Y-21715D01*
X29785Y-21693D01*
X29741Y-21588D01*
X29695Y-21542D01*
X29695Y-18265D01*
X29695Y-17675D01*
X29672Y-17619D01*
X29630Y-17577D01*
X29575Y-17554D01*
X29515Y-17554D01*
X28925Y-17554D01*
X28869Y-17577D01*
X28827Y-17619D01*
X28804Y-17674D01*
X28804Y-17734D01*
X28804Y-18324D01*
X28827Y-18380D01*
X28869Y-18422D01*
X28924Y-18445D01*
X28984Y-18445D01*
X29574Y-18445D01*
X29630Y-18422D01*
X29672Y-18380D01*
X29695Y-18325D01*
X29695Y-18265D01*
X29695Y-21542D01*
X29661Y-21508D01*
X29556Y-21465D01*
X29443Y-21464D01*
X29338Y-21508D01*
X29258Y-21588D01*
X29215Y-21693D01*
X29214Y-21806D01*
X29258Y-21911D01*
X29310Y-21963D01*
X29310Y-24036D01*
X29258Y-24088D01*
X29215Y-24193D01*
X29214Y-24306D01*
X29258Y-24411D01*
X29338Y-24491D01*
X29443Y-24534D01*
X29556Y-24535D01*
X29565Y-24531D01*
X29508Y-24588D01*
X29465Y-24693D01*
X29464Y-24806D01*
X29508Y-24911D01*
X29560Y-24963D01*
X29560Y-27074D01*
X29445Y-27074D01*
X29390Y-27097D01*
X29347Y-27139D01*
X29325Y-27195D01*
X29324Y-27254D01*
X29324Y-27804D01*
X29335Y-27830D01*
X29020Y-27830D01*
X29110Y-27741D01*
X29174Y-27584D01*
X29175Y-27415D01*
X29110Y-27259D01*
X28991Y-27139D01*
X28834Y-27075D01*
X28665Y-27074D01*
X28509Y-27139D01*
X28389Y-27258D01*
X28325Y-27415D01*
X28324Y-27584D01*
X28389Y-27740D01*
X28479Y-27830D01*
X28020Y-27830D01*
X28110Y-27741D01*
X28174Y-27584D01*
X28175Y-27415D01*
X28110Y-27259D01*
X27991Y-27139D01*
X27834Y-27075D01*
X27665Y-27074D01*
X27509Y-27139D01*
X27389Y-27258D01*
X27325Y-27415D01*
X27324Y-27584D01*
X27389Y-27740D01*
X27479Y-27830D01*
X27020Y-27830D01*
X27110Y-27741D01*
X27174Y-27584D01*
X27175Y-27415D01*
X27110Y-27259D01*
X26991Y-27139D01*
X26940Y-27118D01*
X26940Y-22213D01*
X26968Y-22184D01*
X26965Y-22193D01*
X26964Y-22306D01*
X27008Y-22411D01*
X27060Y-22463D01*
X27060Y-24536D01*
X27008Y-24588D01*
X26965Y-24693D01*
X26964Y-24806D01*
X27008Y-24911D01*
X27088Y-24991D01*
X27193Y-25034D01*
X27306Y-25035D01*
X27411Y-24991D01*
X27491Y-24911D01*
X27534Y-24806D01*
X27534Y-24785D01*
X27556Y-24785D01*
X27661Y-24741D01*
X27741Y-24661D01*
X27784Y-24556D01*
X27785Y-24443D01*
X27741Y-24338D01*
X27690Y-24286D01*
X27690Y-22213D01*
X27741Y-22161D01*
X27784Y-22056D01*
X27785Y-21943D01*
X27741Y-21838D01*
X27661Y-21758D01*
X27556Y-21715D01*
X27535Y-21715D01*
X27535Y-17943D01*
X27491Y-17838D01*
X27440Y-17786D01*
X27440Y-16213D01*
X27491Y-16161D01*
X27534Y-16056D01*
X27535Y-15943D01*
X27491Y-15838D01*
X27411Y-15758D01*
X27306Y-15715D01*
X27193Y-15714D01*
X27088Y-15758D01*
X27008Y-15838D01*
X26965Y-15943D01*
X26964Y-16056D01*
X27008Y-16161D01*
X27060Y-16213D01*
X27060Y-17786D01*
X27008Y-17838D01*
X26965Y-17943D01*
X26964Y-18056D01*
X27008Y-18161D01*
X27088Y-18241D01*
X27193Y-18284D01*
X27306Y-18285D01*
X27411Y-18241D01*
X27491Y-18161D01*
X27534Y-18056D01*
X27535Y-17943D01*
X27535Y-21715D01*
X27443Y-21714D01*
X27338Y-21758D01*
X27258Y-21838D01*
X27215Y-21943D01*
X27215Y-21964D01*
X27193Y-21964D01*
X27088Y-22008D01*
X27031Y-22065D01*
X27034Y-22056D01*
X27035Y-21943D01*
X26991Y-21838D01*
X26911Y-21758D01*
X26806Y-21715D01*
X26695Y-21714D01*
X26695Y-18265D01*
X26695Y-17675D01*
X26672Y-17619D01*
X26630Y-17577D01*
X26575Y-17554D01*
X26515Y-17554D01*
X25925Y-17554D01*
X25869Y-17577D01*
X25827Y-17619D01*
X25804Y-17674D01*
X25804Y-17734D01*
X25804Y-18324D01*
X25827Y-18380D01*
X25869Y-18422D01*
X25924Y-18445D01*
X25984Y-18445D01*
X26574Y-18445D01*
X26630Y-18422D01*
X26672Y-18380D01*
X26695Y-18325D01*
X26695Y-18265D01*
X26695Y-21714D01*
X26693Y-21714D01*
X26588Y-21758D01*
X26508Y-21838D01*
X26465Y-21943D01*
X26464Y-22056D01*
X26508Y-22161D01*
X26560Y-22213D01*
X26560Y-27118D01*
X26509Y-27139D01*
X26389Y-27258D01*
X26325Y-27415D01*
X26324Y-27584D01*
X26389Y-27740D01*
X26482Y-27833D01*
X26467Y-27833D01*
X26371Y-27852D01*
X26371Y-27852D01*
X26309Y-27877D01*
X26228Y-27932D01*
X26211Y-27950D01*
X26175Y-27950D01*
X26175Y-27745D01*
X26175Y-27195D01*
X26152Y-27140D01*
X26110Y-27097D01*
X26054Y-27075D01*
X25995Y-27074D01*
X25940Y-27074D01*
X25940Y-21963D01*
X25991Y-21911D01*
X26034Y-21806D01*
X26035Y-21693D01*
X25991Y-21588D01*
X25911Y-21508D01*
X25806Y-21465D01*
X25693Y-21464D01*
X25588Y-21508D01*
X25508Y-21588D01*
X25465Y-21693D01*
X25464Y-21806D01*
X25508Y-21911D01*
X25560Y-21963D01*
X25560Y-27074D01*
X25445Y-27074D01*
X25390Y-27097D01*
X25347Y-27139D01*
X25325Y-27195D01*
X25324Y-27254D01*
X25324Y-27804D01*
X25347Y-27859D01*
X25389Y-27902D01*
X25445Y-27924D01*
X25504Y-27925D01*
X26054Y-27925D01*
X26109Y-27902D01*
X26152Y-27860D01*
X26174Y-27804D01*
X26175Y-27745D01*
X26175Y-27950D01*
X26000Y-27950D01*
X25940Y-27949D01*
X25940Y-27950D01*
X25500Y-27950D01*
X25440Y-27949D01*
X25440Y-27950D01*
X25000Y-27950D01*
X24940Y-27949D01*
X24940Y-27950D01*
X24788Y-27950D01*
X24770Y-27932D01*
X24770Y-27931D01*
X24760Y-27925D01*
X24834Y-27925D01*
X24990Y-27860D01*
X25110Y-27741D01*
X25174Y-27584D01*
X25175Y-27415D01*
X25110Y-27259D01*
X24991Y-27139D01*
X24834Y-27075D01*
X24665Y-27074D01*
X24535Y-27128D01*
X24535Y-17943D01*
X24491Y-17838D01*
X24440Y-17786D01*
X24440Y-16213D01*
X24491Y-16161D01*
X24534Y-16056D01*
X24535Y-15943D01*
X24491Y-15838D01*
X24411Y-15758D01*
X24306Y-15715D01*
X24193Y-15714D01*
X24088Y-15758D01*
X24008Y-15838D01*
X23965Y-15943D01*
X23964Y-16056D01*
X24008Y-16161D01*
X24060Y-16213D01*
X24060Y-17786D01*
X24008Y-17838D01*
X23965Y-17943D01*
X23964Y-18056D01*
X24008Y-18161D01*
X24088Y-18241D01*
X24193Y-18284D01*
X24306Y-18285D01*
X24411Y-18241D01*
X24491Y-18161D01*
X24534Y-18056D01*
X24535Y-17943D01*
X24535Y-27128D01*
X24509Y-27139D01*
X24389Y-27258D01*
X24325Y-27415D01*
X24324Y-27584D01*
X24389Y-27740D01*
X24482Y-27833D01*
X24466Y-27833D01*
X24405Y-27858D01*
X24358Y-27905D01*
X24340Y-27950D01*
X24175Y-27950D01*
X24175Y-27415D01*
X24110Y-27259D01*
X23991Y-27139D01*
X23834Y-27075D01*
X23695Y-27074D01*
X23695Y-18265D01*
X23695Y-17675D01*
X23672Y-17619D01*
X23630Y-17577D01*
X23575Y-17554D01*
X23515Y-17554D01*
X22925Y-17554D01*
X22869Y-17577D01*
X22827Y-17619D01*
X22804Y-17674D01*
X22804Y-17734D01*
X22804Y-18324D01*
X22827Y-18380D01*
X22869Y-18422D01*
X22924Y-18445D01*
X22984Y-18445D01*
X23574Y-18445D01*
X23630Y-18422D01*
X23672Y-18380D01*
X23695Y-18325D01*
X23695Y-18265D01*
X23695Y-27074D01*
X23665Y-27074D01*
X23509Y-27139D01*
X23389Y-27258D01*
X23325Y-27415D01*
X23324Y-27584D01*
X23389Y-27740D01*
X23508Y-27860D01*
X23665Y-27924D01*
X23834Y-27925D01*
X23990Y-27860D01*
X24110Y-27741D01*
X24174Y-27584D01*
X24175Y-27415D01*
X24175Y-27950D01*
X23175Y-27950D01*
X23175Y-27415D01*
X23110Y-27259D01*
X22991Y-27139D01*
X22940Y-27118D01*
X22940Y-22963D01*
X22991Y-22911D01*
X23034Y-22806D01*
X23035Y-22693D01*
X22991Y-22588D01*
X22911Y-22508D01*
X22806Y-22465D01*
X22693Y-22464D01*
X22690Y-22466D01*
X22690Y-21963D01*
X22741Y-21911D01*
X22784Y-21806D01*
X22785Y-21693D01*
X22741Y-21588D01*
X22661Y-21508D01*
X22556Y-21465D01*
X22535Y-21465D01*
X22535Y-21443D01*
X22491Y-21338D01*
X22411Y-21258D01*
X22306Y-21215D01*
X22285Y-21215D01*
X22285Y-21193D01*
X22241Y-21088D01*
X22161Y-21008D01*
X22056Y-20965D01*
X21943Y-20964D01*
X21838Y-21008D01*
X21758Y-21088D01*
X21715Y-21193D01*
X21714Y-21306D01*
X21758Y-21411D01*
X21810Y-21463D01*
X21810Y-22216D01*
X21806Y-22215D01*
X21693Y-22214D01*
X21588Y-22258D01*
X21535Y-22311D01*
X21535Y-16193D01*
X21491Y-16088D01*
X21411Y-16008D01*
X21306Y-15965D01*
X21193Y-15964D01*
X21088Y-16008D01*
X21056Y-16040D01*
X19943Y-16040D01*
X19911Y-16008D01*
X19806Y-15965D01*
X19693Y-15964D01*
X19588Y-16008D01*
X19508Y-16088D01*
X19465Y-16193D01*
X19464Y-16306D01*
X19508Y-16411D01*
X19588Y-16491D01*
X19693Y-16534D01*
X19806Y-16535D01*
X19911Y-16491D01*
X19943Y-16460D01*
X21056Y-16460D01*
X21088Y-16491D01*
X21193Y-16534D01*
X21306Y-16535D01*
X21411Y-16491D01*
X21491Y-16411D01*
X21534Y-16306D01*
X21535Y-16193D01*
X21535Y-22311D01*
X21508Y-22338D01*
X21465Y-22443D01*
X21464Y-22556D01*
X21508Y-22661D01*
X21560Y-22713D01*
X21560Y-27074D01*
X21445Y-27074D01*
X21390Y-27097D01*
X21347Y-27139D01*
X21325Y-27195D01*
X21324Y-27254D01*
X21324Y-27804D01*
X21347Y-27859D01*
X21389Y-27902D01*
X21445Y-27924D01*
X21504Y-27925D01*
X22054Y-27925D01*
X22109Y-27902D01*
X22152Y-27860D01*
X22174Y-27804D01*
X22175Y-27745D01*
X22175Y-27195D01*
X22152Y-27140D01*
X22110Y-27097D01*
X22054Y-27075D01*
X21995Y-27074D01*
X21940Y-27074D01*
X21940Y-23783D01*
X21943Y-23784D01*
X21964Y-23784D01*
X21964Y-23806D01*
X22008Y-23911D01*
X22088Y-23991D01*
X22193Y-24034D01*
X22306Y-24035D01*
X22411Y-23991D01*
X22491Y-23911D01*
X22534Y-23806D01*
X22535Y-23693D01*
X22491Y-23588D01*
X22440Y-23536D01*
X22440Y-23533D01*
X22443Y-23534D01*
X22556Y-23535D01*
X22560Y-23533D01*
X22560Y-27118D01*
X22509Y-27139D01*
X22389Y-27258D01*
X22325Y-27415D01*
X22324Y-27584D01*
X22389Y-27740D01*
X22508Y-27860D01*
X22665Y-27924D01*
X22834Y-27925D01*
X22990Y-27860D01*
X23110Y-27741D01*
X23174Y-27584D01*
X23175Y-27415D01*
X23175Y-27950D01*
X21175Y-27950D01*
X21175Y-27415D01*
X21110Y-27259D01*
X20991Y-27139D01*
X20834Y-27075D01*
X20785Y-27075D01*
X20785Y-22943D01*
X20741Y-22838D01*
X20690Y-22786D01*
X20690Y-17463D01*
X20741Y-17411D01*
X20784Y-17306D01*
X20785Y-17193D01*
X20741Y-17088D01*
X20661Y-17008D01*
X20556Y-16965D01*
X20443Y-16964D01*
X20338Y-17008D01*
X20258Y-17088D01*
X20215Y-17193D01*
X20214Y-17306D01*
X20258Y-17411D01*
X20310Y-17463D01*
X20310Y-22786D01*
X20258Y-22838D01*
X20215Y-22943D01*
X20214Y-23056D01*
X20258Y-23161D01*
X20338Y-23241D01*
X20443Y-23284D01*
X20556Y-23285D01*
X20661Y-23241D01*
X20741Y-23161D01*
X20784Y-23056D01*
X20785Y-22943D01*
X20785Y-27075D01*
X20665Y-27074D01*
X20509Y-27139D01*
X20389Y-27258D01*
X20325Y-27415D01*
X20324Y-27584D01*
X20389Y-27740D01*
X20508Y-27860D01*
X20665Y-27924D01*
X20834Y-27925D01*
X20990Y-27860D01*
X21110Y-27741D01*
X21174Y-27584D01*
X21175Y-27415D01*
X21175Y-27950D01*
X20175Y-27950D01*
X20175Y-27415D01*
X20110Y-27259D01*
X19991Y-27139D01*
X19834Y-27075D01*
X19665Y-27074D01*
X19535Y-27128D01*
X19535Y-22943D01*
X19491Y-22838D01*
X19440Y-22786D01*
X19440Y-21713D01*
X19491Y-21661D01*
X19534Y-21556D01*
X19535Y-21443D01*
X19491Y-21338D01*
X19440Y-21286D01*
X19440Y-20213D01*
X19491Y-20161D01*
X19534Y-20056D01*
X19535Y-19943D01*
X19491Y-19838D01*
X19411Y-19758D01*
X19306Y-19715D01*
X19193Y-19714D01*
X19088Y-19758D01*
X19008Y-19838D01*
X18965Y-19943D01*
X18964Y-20056D01*
X19008Y-20161D01*
X19060Y-20213D01*
X19060Y-21286D01*
X19008Y-21338D01*
X18965Y-21443D01*
X18964Y-21556D01*
X19008Y-21661D01*
X19060Y-21713D01*
X19060Y-22786D01*
X19008Y-22838D01*
X18965Y-22943D01*
X18964Y-23056D01*
X19008Y-23161D01*
X19088Y-23241D01*
X19193Y-23284D01*
X19306Y-23285D01*
X19411Y-23241D01*
X19491Y-23161D01*
X19534Y-23056D01*
X19535Y-22943D01*
X19535Y-27128D01*
X19509Y-27139D01*
X19389Y-27258D01*
X19325Y-27415D01*
X19324Y-27584D01*
X19389Y-27740D01*
X19508Y-27860D01*
X19665Y-27924D01*
X19834Y-27925D01*
X19990Y-27860D01*
X20110Y-27741D01*
X20174Y-27584D01*
X20175Y-27415D01*
X20175Y-27950D01*
X19175Y-27950D01*
X19175Y-27415D01*
X19110Y-27259D01*
X18991Y-27139D01*
X18940Y-27118D01*
X18940Y-22463D01*
X18991Y-22411D01*
X19034Y-22306D01*
X19035Y-22193D01*
X18991Y-22088D01*
X18911Y-22008D01*
X18806Y-21965D01*
X18693Y-21964D01*
X18690Y-21966D01*
X18690Y-21463D01*
X18741Y-21411D01*
X18784Y-21306D01*
X18785Y-21193D01*
X18741Y-21088D01*
X18690Y-21036D01*
X18690Y-19463D01*
X18741Y-19411D01*
X18784Y-19306D01*
X18785Y-19193D01*
X18741Y-19088D01*
X18661Y-19008D01*
X18556Y-18965D01*
X18443Y-18964D01*
X18338Y-19008D01*
X18258Y-19088D01*
X18215Y-19193D01*
X18214Y-19306D01*
X18258Y-19411D01*
X18310Y-19463D01*
X18310Y-21036D01*
X18258Y-21088D01*
X18215Y-21193D01*
X18214Y-21306D01*
X18258Y-21411D01*
X18310Y-21463D01*
X18310Y-22786D01*
X18258Y-22838D01*
X18250Y-22858D01*
X18241Y-22838D01*
X18190Y-22786D01*
X18190Y-18713D01*
X18241Y-18661D01*
X18284Y-18556D01*
X18285Y-18443D01*
X18241Y-18338D01*
X18190Y-18286D01*
X18190Y-17213D01*
X18241Y-17161D01*
X18284Y-17056D01*
X18285Y-16943D01*
X18241Y-16838D01*
X18161Y-16758D01*
X18056Y-16715D01*
X17943Y-16714D01*
X17838Y-16758D01*
X17781Y-16815D01*
X17784Y-16806D01*
X17785Y-16693D01*
X17741Y-16588D01*
X17661Y-16508D01*
X17556Y-16465D01*
X17443Y-16464D01*
X17338Y-16508D01*
X17258Y-16588D01*
X17215Y-16693D01*
X17214Y-16806D01*
X17258Y-16911D01*
X17310Y-16963D01*
X17310Y-17536D01*
X17258Y-17588D01*
X17215Y-17693D01*
X17214Y-17806D01*
X17258Y-17911D01*
X17310Y-17963D01*
X17310Y-22786D01*
X17258Y-22838D01*
X17215Y-22943D01*
X17214Y-23056D01*
X17258Y-23161D01*
X17338Y-23241D01*
X17443Y-23284D01*
X17556Y-23285D01*
X17560Y-23283D01*
X17560Y-27074D01*
X17445Y-27074D01*
X17390Y-27097D01*
X17347Y-27139D01*
X17325Y-27195D01*
X17324Y-27254D01*
X17324Y-27804D01*
X17347Y-27859D01*
X17389Y-27902D01*
X17445Y-27924D01*
X17504Y-27925D01*
X18054Y-27925D01*
X18109Y-27902D01*
X18152Y-27860D01*
X18174Y-27804D01*
X18175Y-27745D01*
X18175Y-27195D01*
X18152Y-27140D01*
X18110Y-27097D01*
X18054Y-27075D01*
X17995Y-27074D01*
X17940Y-27074D01*
X17940Y-23283D01*
X17943Y-23284D01*
X18056Y-23285D01*
X18161Y-23241D01*
X18241Y-23161D01*
X18249Y-23141D01*
X18258Y-23161D01*
X18338Y-23241D01*
X18443Y-23284D01*
X18556Y-23285D01*
X18560Y-23283D01*
X18560Y-27118D01*
X18509Y-27139D01*
X18389Y-27258D01*
X18325Y-27415D01*
X18324Y-27584D01*
X18389Y-27740D01*
X18508Y-27860D01*
X18665Y-27924D01*
X18834Y-27925D01*
X18990Y-27860D01*
X19110Y-27741D01*
X19174Y-27584D01*
X19175Y-27415D01*
X19175Y-27950D01*
X14659Y-27950D01*
X14641Y-27905D01*
X14594Y-27858D01*
X14532Y-27833D01*
X14375Y-27802D01*
X14268Y-27730D01*
X14197Y-27624D01*
X14169Y-27483D01*
X14169Y-22520D01*
X14258Y-22610D01*
X14415Y-22674D01*
X14584Y-22675D01*
X14740Y-22610D01*
X14860Y-22491D01*
X14924Y-22334D01*
X14925Y-22165D01*
X14860Y-22009D01*
X14741Y-21889D01*
X14584Y-21825D01*
X14415Y-21824D01*
X14259Y-21889D01*
X14169Y-21979D01*
X14169Y-21520D01*
X14258Y-21610D01*
X14415Y-21674D01*
X14584Y-21675D01*
X14740Y-21610D01*
X14860Y-21491D01*
X14924Y-21334D01*
X14925Y-21165D01*
X14860Y-21009D01*
X14741Y-20889D01*
X14584Y-20825D01*
X14415Y-20824D01*
X14259Y-20889D01*
X14169Y-20979D01*
X14169Y-20664D01*
X14195Y-20674D01*
X14254Y-20675D01*
X14804Y-20675D01*
X14859Y-20652D01*
X14902Y-20610D01*
X14924Y-20554D01*
X14925Y-20495D01*
X14925Y-19945D01*
X14902Y-19890D01*
X14860Y-19847D01*
X14804Y-19825D01*
X14745Y-19824D01*
X14195Y-19824D01*
X14169Y-19835D01*
X14169Y-18520D01*
X14258Y-18610D01*
X14415Y-18674D01*
X14584Y-18675D01*
X14740Y-18610D01*
X14860Y-18491D01*
X14924Y-18334D01*
X14925Y-18165D01*
X14860Y-18009D01*
X14741Y-17889D01*
X14584Y-17825D01*
X14415Y-17824D01*
X14259Y-17889D01*
X14169Y-17979D01*
X14169Y-17520D01*
X14258Y-17610D01*
X14415Y-17674D01*
X14584Y-17675D01*
X14740Y-17610D01*
X14860Y-17491D01*
X14924Y-17334D01*
X14925Y-17165D01*
X14860Y-17009D01*
X14741Y-16889D01*
X14584Y-16825D01*
X14415Y-16824D01*
X14259Y-16889D01*
X14169Y-16979D01*
X14169Y-16664D01*
X14195Y-16674D01*
X14254Y-16675D01*
X14804Y-16675D01*
X14859Y-16652D01*
X14902Y-16610D01*
X14924Y-16554D01*
X14925Y-16495D01*
X14925Y-15945D01*
X14902Y-15890D01*
X14860Y-15847D01*
X14804Y-15825D01*
X14745Y-15824D01*
X14195Y-15824D01*
X14169Y-15835D01*
X14169Y-12516D01*
X14197Y-12375D01*
X14268Y-12269D01*
X14375Y-12197D01*
X14517Y-12169D01*
X15229Y-12169D01*
X15139Y-12258D01*
X15075Y-12415D01*
X15074Y-12584D01*
X15139Y-12740D01*
X15258Y-12860D01*
X15415Y-12924D01*
X15584Y-12925D01*
X15740Y-12860D01*
X15860Y-12741D01*
X15924Y-12584D01*
X15925Y-12415D01*
X15860Y-12259D01*
X15770Y-12169D01*
X16229Y-12169D01*
X16139Y-12258D01*
X16075Y-12415D01*
X16074Y-12584D01*
X16139Y-12740D01*
X16258Y-12860D01*
X16310Y-12881D01*
X16310Y-14036D01*
X16258Y-14088D01*
X16215Y-14193D01*
X16214Y-14306D01*
X16258Y-14411D01*
X16338Y-14491D01*
X16443Y-14534D01*
X16556Y-14535D01*
X16661Y-14491D01*
X16741Y-14411D01*
X16784Y-14306D01*
X16785Y-14193D01*
X16741Y-14088D01*
X16690Y-14036D01*
X16690Y-12881D01*
X16740Y-12860D01*
X16860Y-12741D01*
X16924Y-12584D01*
X16925Y-12415D01*
X16860Y-12259D01*
X16770Y-12169D01*
X17229Y-12169D01*
X17139Y-12258D01*
X17075Y-12415D01*
X17074Y-12584D01*
X17139Y-12740D01*
X17258Y-12860D01*
X17310Y-12881D01*
X17310Y-13786D01*
X17258Y-13838D01*
X17215Y-13943D01*
X17214Y-14056D01*
X17258Y-14161D01*
X17338Y-14241D01*
X17443Y-14284D01*
X17556Y-14285D01*
X17661Y-14241D01*
X17741Y-14161D01*
X17784Y-14056D01*
X17785Y-13943D01*
X17741Y-13838D01*
X17690Y-13786D01*
X17690Y-12881D01*
X17740Y-12860D01*
X17860Y-12741D01*
X17924Y-12584D01*
X17925Y-12415D01*
X17860Y-12259D01*
X17770Y-12169D01*
X18229Y-12169D01*
X18139Y-12258D01*
X18075Y-12415D01*
X18074Y-12584D01*
X18139Y-12740D01*
X18258Y-12860D01*
X18310Y-12881D01*
X18310Y-13536D01*
X18258Y-13588D01*
X18215Y-13693D01*
X18214Y-13806D01*
X18258Y-13911D01*
X18338Y-13991D01*
X18443Y-14034D01*
X18556Y-14035D01*
X18661Y-13991D01*
X18741Y-13911D01*
X18784Y-13806D01*
X18785Y-13693D01*
X18741Y-13588D01*
X18690Y-13536D01*
X18690Y-12881D01*
X18740Y-12860D01*
X18860Y-12741D01*
X18924Y-12584D01*
X18925Y-12415D01*
X18860Y-12259D01*
X18770Y-12169D01*
X19229Y-12169D01*
X19139Y-12258D01*
X19075Y-12415D01*
X19074Y-12584D01*
X19139Y-12740D01*
X19258Y-12860D01*
X19310Y-12881D01*
X19310Y-14286D01*
X19258Y-14338D01*
X19215Y-14443D01*
X19214Y-14556D01*
X19258Y-14661D01*
X19338Y-14741D01*
X19443Y-14784D01*
X19556Y-14785D01*
X19661Y-14741D01*
X19741Y-14661D01*
X19784Y-14556D01*
X19785Y-14443D01*
X19741Y-14338D01*
X19690Y-14286D01*
X19690Y-12881D01*
X19740Y-12860D01*
X19860Y-12741D01*
X19924Y-12584D01*
X19925Y-12415D01*
X19860Y-12259D01*
X19770Y-12169D01*
X20229Y-12169D01*
X20139Y-12258D01*
X20075Y-12415D01*
X20074Y-12584D01*
X20139Y-12740D01*
X20258Y-12860D01*
X20415Y-12924D01*
X20584Y-12925D01*
X20740Y-12860D01*
X20860Y-12741D01*
X20924Y-12584D01*
X20925Y-12415D01*
X20860Y-12259D01*
X20770Y-12169D01*
X21229Y-12169D01*
X21139Y-12258D01*
X21075Y-12415D01*
X21074Y-12584D01*
X21139Y-12740D01*
X21258Y-12860D01*
X21415Y-12924D01*
X21584Y-12925D01*
X21740Y-12860D01*
X21860Y-12741D01*
X21924Y-12584D01*
X21925Y-12415D01*
X21860Y-12259D01*
X21770Y-12169D01*
X22229Y-12169D01*
X22139Y-12258D01*
X22075Y-12415D01*
X22074Y-12584D01*
X22139Y-12740D01*
X22258Y-12860D01*
X22415Y-12924D01*
X22584Y-12925D01*
X22740Y-12860D01*
X22860Y-12741D01*
X22924Y-12584D01*
X22925Y-12415D01*
X22860Y-12259D01*
X22770Y-12169D01*
X23229Y-12169D01*
X23139Y-12258D01*
X23075Y-12415D01*
X23074Y-12584D01*
X23139Y-12740D01*
X23258Y-12860D01*
X23415Y-12924D01*
X23584Y-12925D01*
X23740Y-12860D01*
X23860Y-12741D01*
X23924Y-12584D01*
X23925Y-12415D01*
X23860Y-12259D01*
X23770Y-12169D01*
X24229Y-12169D01*
X24139Y-12258D01*
X24075Y-12415D01*
X24074Y-12584D01*
X24139Y-12740D01*
X24258Y-12860D01*
X24310Y-12881D01*
X24310Y-14786D01*
X24258Y-14838D01*
X24215Y-14943D01*
X24214Y-15056D01*
X24258Y-15161D01*
X24338Y-15241D01*
X24443Y-15284D01*
X24556Y-15285D01*
X24661Y-15241D01*
X24741Y-15161D01*
X24784Y-15056D01*
X24785Y-14943D01*
X24741Y-14838D01*
X24690Y-14786D01*
X24690Y-12881D01*
X24740Y-12860D01*
X24860Y-12741D01*
X24924Y-12584D01*
X24925Y-12415D01*
X24860Y-12259D01*
X24770Y-12169D01*
X26229Y-12169D01*
X26139Y-12258D01*
X26075Y-12415D01*
X26074Y-12584D01*
X26139Y-12740D01*
X26258Y-12860D01*
X26310Y-12881D01*
X26310Y-14536D01*
X26258Y-14588D01*
X26250Y-14608D01*
X26241Y-14588D01*
X26190Y-14536D01*
X26190Y-13463D01*
X26241Y-13411D01*
X26284Y-13306D01*
X26285Y-13193D01*
X26241Y-13088D01*
X26161Y-13008D01*
X26056Y-12965D01*
X25943Y-12964D01*
X25838Y-13008D01*
X25758Y-13088D01*
X25715Y-13193D01*
X25714Y-13306D01*
X25758Y-13411D01*
X25810Y-13463D01*
X25810Y-14536D01*
X25758Y-14588D01*
X25715Y-14693D01*
X25714Y-14806D01*
X25758Y-14911D01*
X25838Y-14991D01*
X25943Y-15034D01*
X26056Y-15035D01*
X26161Y-14991D01*
X26241Y-14911D01*
X26249Y-14891D01*
X26258Y-14911D01*
X26338Y-14991D01*
X26443Y-15034D01*
X26556Y-15035D01*
X26661Y-14991D01*
X26741Y-14911D01*
X26784Y-14806D01*
X26785Y-14693D01*
X26741Y-14588D01*
X26690Y-14536D01*
X26690Y-12881D01*
X26740Y-12860D01*
X26860Y-12741D01*
X26924Y-12584D01*
X26925Y-12415D01*
X26860Y-12259D01*
X26770Y-12169D01*
X27229Y-12169D01*
X27139Y-12258D01*
X27075Y-12415D01*
X27074Y-12584D01*
X27139Y-12740D01*
X27258Y-12860D01*
X27415Y-12924D01*
X27584Y-12925D01*
X27740Y-12860D01*
X27860Y-12741D01*
X27924Y-12584D01*
X27925Y-12415D01*
X27860Y-12259D01*
X27770Y-12169D01*
X28229Y-12169D01*
X28139Y-12258D01*
X28075Y-12415D01*
X28074Y-12584D01*
X28139Y-12740D01*
X28258Y-12860D01*
X28415Y-12924D01*
X28584Y-12925D01*
X28740Y-12860D01*
X28860Y-12741D01*
X28924Y-12584D01*
X28925Y-12415D01*
X28860Y-12259D01*
X28770Y-12169D01*
X35033Y-12169D01*
X34851Y-12351D01*
X34805Y-12419D01*
X34790Y-12500D01*
X34790Y-17556D01*
X34758Y-17588D01*
X34715Y-17693D01*
X34714Y-17806D01*
X34758Y-17911D01*
X34838Y-17991D01*
X34943Y-18034D01*
X35056Y-18035D01*
X35161Y-17991D01*
X35241Y-17911D01*
X35284Y-17806D01*
X35285Y-17693D01*
X35241Y-17588D01*
X35210Y-17556D01*
X35210Y-12586D01*
X35336Y-12460D01*
X36499Y-12460D01*
X36499Y-12608D01*
X36491Y-12588D01*
X36411Y-12508D01*
X36306Y-12465D01*
X36193Y-12464D01*
X36088Y-12508D01*
X36008Y-12588D01*
X35965Y-12693D01*
X35964Y-12806D01*
X36008Y-12911D01*
X36088Y-12991D01*
X36193Y-13034D01*
X36266Y-13035D01*
X37060Y-13828D01*
X37060Y-14036D01*
X37008Y-14088D01*
X36965Y-14193D01*
X36964Y-14306D01*
X37008Y-14411D01*
X37088Y-14491D01*
X37193Y-14534D01*
X37306Y-14535D01*
X37310Y-14533D01*
X37310Y-15921D01*
X37016Y-16215D01*
X36943Y-16214D01*
X36838Y-16258D01*
X36758Y-16338D01*
X36715Y-16443D01*
X36714Y-16556D01*
X36758Y-16661D01*
X36838Y-16741D01*
X36943Y-16784D01*
X37056Y-16785D01*
X37161Y-16741D01*
X37241Y-16661D01*
X37284Y-16556D01*
X37285Y-16483D01*
X37634Y-16134D01*
X37675Y-16072D01*
X37690Y-16000D01*
X37690Y-13500D01*
X37675Y-13427D01*
X37634Y-13365D01*
X37284Y-13016D01*
X37285Y-12943D01*
X37241Y-12838D01*
X37161Y-12758D01*
X37141Y-12750D01*
X37379Y-12750D01*
X37434Y-12727D01*
X37477Y-12685D01*
X37499Y-12629D01*
X37499Y-12629D01*
X37522Y-12684D01*
X37564Y-12727D01*
X37620Y-12749D01*
X37679Y-12750D01*
X37981Y-12750D01*
X38215Y-12983D01*
X38214Y-13056D01*
X38258Y-13161D01*
X38338Y-13241D01*
X38443Y-13284D01*
X38556Y-13285D01*
X38661Y-13241D01*
X38741Y-13161D01*
X38784Y-13056D01*
X38785Y-12943D01*
X38741Y-12838D01*
X38661Y-12758D01*
X38556Y-12715D01*
X38483Y-12714D01*
X38465Y-12696D01*
X38477Y-12685D01*
X38499Y-12629D01*
X38500Y-12570D01*
X38500Y-12169D01*
X51085Y-12169D01*
X51075Y-12195D01*
X51075Y-12200D01*
X50750Y-12200D01*
X50635Y-12222D01*
X50537Y-12287D01*
X50037Y-12787D01*
X49972Y-12885D01*
X49950Y-13000D01*
X49950Y-14375D01*
X49625Y-14700D01*
X48750Y-14700D01*
X48750Y-13320D01*
X48750Y-12620D01*
X48727Y-12565D01*
X48685Y-12522D01*
X48629Y-12500D01*
X48570Y-12499D01*
X47870Y-12499D01*
X47815Y-12522D01*
X47772Y-12564D01*
X47750Y-12620D01*
X47749Y-12679D01*
X47749Y-12790D01*
X45500Y-12790D01*
X45419Y-12805D01*
X45351Y-12851D01*
X45351Y-12851D01*
X45101Y-13101D01*
X45055Y-13169D01*
X45040Y-13250D01*
X45040Y-14413D01*
X44913Y-14540D01*
X43193Y-14540D01*
X43161Y-14508D01*
X43056Y-14465D01*
X42943Y-14464D01*
X42940Y-14466D01*
X42940Y-14000D01*
X42940Y-13500D01*
X42925Y-13427D01*
X42884Y-13365D01*
X42884Y-13365D01*
X42784Y-13266D01*
X42785Y-13193D01*
X42741Y-13088D01*
X42661Y-13008D01*
X42556Y-12965D01*
X42443Y-12964D01*
X42338Y-13008D01*
X42258Y-13088D01*
X42215Y-13193D01*
X42214Y-13306D01*
X42218Y-13315D01*
X42161Y-13258D01*
X42056Y-13215D01*
X41943Y-13214D01*
X41838Y-13258D01*
X41758Y-13338D01*
X41715Y-13443D01*
X41715Y-13464D01*
X41693Y-13464D01*
X41588Y-13508D01*
X41508Y-13588D01*
X41465Y-13693D01*
X41464Y-13806D01*
X41508Y-13911D01*
X41560Y-13963D01*
X41560Y-18286D01*
X41508Y-18338D01*
X41465Y-18443D01*
X41464Y-18556D01*
X41508Y-18661D01*
X41588Y-18741D01*
X41693Y-18784D01*
X41806Y-18785D01*
X41911Y-18741D01*
X41991Y-18661D01*
X42034Y-18556D01*
X42035Y-18443D01*
X41991Y-18338D01*
X41940Y-18286D01*
X41940Y-16458D01*
X42076Y-16595D01*
X42050Y-16660D01*
X42049Y-16839D01*
X42118Y-17004D01*
X42244Y-17131D01*
X42410Y-17199D01*
X42589Y-17200D01*
X42754Y-17131D01*
X42810Y-17076D01*
X42810Y-17171D01*
X42654Y-17326D01*
X42589Y-17300D01*
X42410Y-17299D01*
X42245Y-17368D01*
X42118Y-17494D01*
X42050Y-17660D01*
X42049Y-17839D01*
X42118Y-18004D01*
X42244Y-18131D01*
X42410Y-18199D01*
X42589Y-18200D01*
X42754Y-18131D01*
X42881Y-18005D01*
X42949Y-17839D01*
X42950Y-17660D01*
X42923Y-17595D01*
X43049Y-17468D01*
X43049Y-17479D01*
X43049Y-18079D01*
X43072Y-18134D01*
X43114Y-18177D01*
X43170Y-18199D01*
X43229Y-18200D01*
X43829Y-18200D01*
X43884Y-18177D01*
X43927Y-18135D01*
X43949Y-18079D01*
X43950Y-18020D01*
X43950Y-17468D01*
X44060Y-17578D01*
X44060Y-18921D01*
X41615Y-21365D01*
X41574Y-21427D01*
X41560Y-21500D01*
X41560Y-23286D01*
X41508Y-23338D01*
X41465Y-23443D01*
X41464Y-23556D01*
X41508Y-23661D01*
X41588Y-23741D01*
X41693Y-23784D01*
X41714Y-23784D01*
X41714Y-23806D01*
X41758Y-23911D01*
X41838Y-23991D01*
X41943Y-24034D01*
X42056Y-24035D01*
X42161Y-23991D01*
X42241Y-23911D01*
X42284Y-23806D01*
X42285Y-23693D01*
X42241Y-23588D01*
X42190Y-23536D01*
X42190Y-21828D01*
X44634Y-19384D01*
X44675Y-19322D01*
X44690Y-19250D01*
X44690Y-16750D01*
X44675Y-16677D01*
X44634Y-16615D01*
X44634Y-16615D01*
X43923Y-15904D01*
X43949Y-15839D01*
X43950Y-15660D01*
X43881Y-15495D01*
X43755Y-15368D01*
X43589Y-15300D01*
X43410Y-15299D01*
X43245Y-15368D01*
X43190Y-15423D01*
X43190Y-15250D01*
X43175Y-15177D01*
X43134Y-15115D01*
X43134Y-15115D01*
X43053Y-15035D01*
X43056Y-15035D01*
X43161Y-14991D01*
X43193Y-14960D01*
X45000Y-14960D01*
X45080Y-14944D01*
X45148Y-14898D01*
X45398Y-14648D01*
X45398Y-14648D01*
X45398Y-14648D01*
X45444Y-14580D01*
X45444Y-14580D01*
X45460Y-14500D01*
X45460Y-13336D01*
X45586Y-13210D01*
X47749Y-13210D01*
X47749Y-13379D01*
X47772Y-13434D01*
X47814Y-13477D01*
X47870Y-13499D01*
X47929Y-13500D01*
X48629Y-13500D01*
X48684Y-13477D01*
X48727Y-13435D01*
X48749Y-13379D01*
X48750Y-13320D01*
X48750Y-14700D01*
X48657Y-14700D01*
X48533Y-14576D01*
X48349Y-14500D01*
X48150Y-14499D01*
X47967Y-14575D01*
X47826Y-14716D01*
X47750Y-14900D01*
X47749Y-15099D01*
X47825Y-15282D01*
X47950Y-15407D01*
X47950Y-19499D01*
X47870Y-19499D01*
X47815Y-19522D01*
X47772Y-19564D01*
X47750Y-19620D01*
X47749Y-19679D01*
X47749Y-20379D01*
X47772Y-20434D01*
X47814Y-20477D01*
X47870Y-20499D01*
X47929Y-20500D01*
X48629Y-20500D01*
X48684Y-20477D01*
X48727Y-20435D01*
X48749Y-20379D01*
X48750Y-20320D01*
X48750Y-19620D01*
X48727Y-19565D01*
X48685Y-19522D01*
X48629Y-19500D01*
X48570Y-19499D01*
X48550Y-19499D01*
X48550Y-15407D01*
X48657Y-15300D01*
X49750Y-15300D01*
X49750Y-15299D01*
X49864Y-15277D01*
X49864Y-15277D01*
X49962Y-15212D01*
X50462Y-14712D01*
X50462Y-14712D01*
X50527Y-14614D01*
X50549Y-14500D01*
X50550Y-14500D01*
X50550Y-13124D01*
X50874Y-12800D01*
X51074Y-12800D01*
X51074Y-12804D01*
X51097Y-12859D01*
X51139Y-12902D01*
X51195Y-12924D01*
X51254Y-12925D01*
X51804Y-12925D01*
X51859Y-12902D01*
X51902Y-12860D01*
X51924Y-12804D01*
X51925Y-12745D01*
X51925Y-12195D01*
X51914Y-12169D01*
X52483Y-12169D01*
X52624Y-12197D01*
X52730Y-12268D01*
X52802Y-12375D01*
X52830Y-12517D01*
X52830Y-17085D01*
X52804Y-17075D01*
X52745Y-17074D01*
X52195Y-17074D01*
X52140Y-17097D01*
X52097Y-17139D01*
X52075Y-17195D01*
X52074Y-17254D01*
X52074Y-17804D01*
X52097Y-17859D01*
X52139Y-17902D01*
X52195Y-17924D01*
X52254Y-17925D01*
X52804Y-17925D01*
X52830Y-17914D01*
X52830Y-18229D01*
X52741Y-18139D01*
X52584Y-18075D01*
X52415Y-18074D01*
X52259Y-18139D01*
X52139Y-18258D01*
X52081Y-18399D01*
X51700Y-18781D01*
X51700Y-15770D01*
X51700Y-15170D01*
X51677Y-15115D01*
X51635Y-15072D01*
X51579Y-15050D01*
X51520Y-15049D01*
X50920Y-15049D01*
X50865Y-15072D01*
X50822Y-15114D01*
X50800Y-15170D01*
X50799Y-15229D01*
X50799Y-15829D01*
X50822Y-15884D01*
X50864Y-15927D01*
X50920Y-15949D01*
X50979Y-15950D01*
X51579Y-15950D01*
X51634Y-15927D01*
X51677Y-15885D01*
X51699Y-15829D01*
X51700Y-15770D01*
X51700Y-18781D01*
X51615Y-18865D01*
X51574Y-18927D01*
X51560Y-19000D01*
X51560Y-20786D01*
X51508Y-20838D01*
X51465Y-20943D01*
X51464Y-21056D01*
X51508Y-21161D01*
X51588Y-21241D01*
X51693Y-21284D01*
X51806Y-21285D01*
X51911Y-21241D01*
X51991Y-21161D01*
X52034Y-21056D01*
X52035Y-20943D01*
X51991Y-20838D01*
X51940Y-20786D01*
X51940Y-19078D01*
X52208Y-18809D01*
X52258Y-18860D01*
X52415Y-18924D01*
X52584Y-18925D01*
X52740Y-18860D01*
X52830Y-18770D01*
X52830Y-19229D01*
X52741Y-19139D01*
X52584Y-19075D01*
X52415Y-19074D01*
X52259Y-19139D01*
X52139Y-19258D01*
X52075Y-19415D01*
X52074Y-19584D01*
X52139Y-19740D01*
X52258Y-19860D01*
X52415Y-19924D01*
X52584Y-19925D01*
X52740Y-19860D01*
X52830Y-19770D01*
X52830Y-22482D01*
G54D10*
G36*
X24200Y-50830D02*
X23017Y-50830D01*
X22875Y-50802D01*
X22768Y-50730D01*
X22697Y-50624D01*
X22669Y-50483D01*
X22669Y-29016D01*
X22697Y-28875D01*
X22768Y-28769D01*
X22875Y-28697D01*
X23017Y-28669D01*
X24200Y-28669D01*
X24200Y-50830D01*
X24200Y-50830D01*
G37*
G54D28*
X24200Y-50830D02*
X23017Y-50830D01*
X22875Y-50802D01*
X22768Y-50730D01*
X22697Y-50624D01*
X22669Y-50483D01*
X22669Y-29016D01*
X22697Y-28875D01*
X22768Y-28769D01*
X22875Y-28697D01*
X23017Y-28669D01*
X24200Y-28669D01*
X24200Y-50830D01*
G54D10*
G36*
X26450Y-50830D02*
X24550Y-50830D01*
X24550Y-28663D01*
X24628Y-28647D01*
X24689Y-28622D01*
X24690Y-28621D01*
X24770Y-28568D01*
X24770Y-28567D01*
X24788Y-28550D01*
X24999Y-28550D01*
X25059Y-28550D01*
X25059Y-28550D01*
X25499Y-28550D01*
X25559Y-28550D01*
X25559Y-28550D01*
X25999Y-28550D01*
X26059Y-28550D01*
X26059Y-28550D01*
X26211Y-28550D01*
X26228Y-28567D01*
X26309Y-28622D01*
X26371Y-28647D01*
X26371Y-28647D01*
X26450Y-28662D01*
X26450Y-50830D01*
X26450Y-50830D01*
G37*
G54D28*
X26450Y-50830D02*
X24550Y-50830D01*
X24550Y-28663D01*
X24628Y-28647D01*
X24689Y-28622D01*
X24690Y-28621D01*
X24770Y-28568D01*
X24770Y-28567D01*
X24788Y-28550D01*
X24999Y-28550D01*
X25059Y-28550D01*
X25059Y-28550D01*
X25499Y-28550D01*
X25559Y-28550D01*
X25559Y-28550D01*
X25999Y-28550D01*
X26059Y-28550D01*
X26059Y-28550D01*
X26211Y-28550D01*
X26228Y-28567D01*
X26309Y-28622D01*
X26371Y-28647D01*
X26371Y-28647D01*
X26450Y-28662D01*
X26450Y-50830D01*
G54D10*
G36*
X28450Y-50211D02*
X28432Y-50229D01*
X28431Y-50229D01*
X28378Y-50309D01*
X28377Y-50310D01*
X28352Y-50371D01*
X28333Y-50466D01*
X28333Y-50467D01*
X28302Y-50624D01*
X28230Y-50731D01*
X28124Y-50802D01*
X27983Y-50830D01*
X26800Y-50830D01*
X26800Y-28669D01*
X27983Y-28669D01*
X28124Y-28697D01*
X28230Y-28768D01*
X28302Y-28875D01*
X28330Y-29017D01*
X28330Y-48500D01*
X28333Y-48516D01*
X28333Y-48532D01*
X28352Y-48628D01*
X28377Y-48689D01*
X28378Y-48690D01*
X28431Y-48770D01*
X28432Y-48770D01*
X28450Y-48788D01*
X28450Y-48999D01*
X28449Y-49059D01*
X28450Y-49059D01*
X28450Y-49499D01*
X28449Y-49559D01*
X28450Y-49559D01*
X28450Y-49999D01*
X28449Y-50059D01*
X28450Y-50059D01*
X28450Y-50211D01*
X28450Y-50211D01*
G37*
G54D28*
X28450Y-50211D02*
X28432Y-50229D01*
X28431Y-50229D01*
X28378Y-50309D01*
X28377Y-50310D01*
X28352Y-50371D01*
X28333Y-50466D01*
X28333Y-50467D01*
X28302Y-50624D01*
X28230Y-50731D01*
X28124Y-50802D01*
X27983Y-50830D01*
X26800Y-50830D01*
X26800Y-28669D01*
X27983Y-28669D01*
X28124Y-28697D01*
X28230Y-28768D01*
X28302Y-28875D01*
X28330Y-29017D01*
X28330Y-48500D01*
X28333Y-48516D01*
X28333Y-48532D01*
X28352Y-48628D01*
X28377Y-48689D01*
X28378Y-48690D01*
X28431Y-48770D01*
X28432Y-48770D01*
X28450Y-48788D01*
X28450Y-48999D01*
X28449Y-49059D01*
X28450Y-49059D01*
X28450Y-49499D01*
X28449Y-49559D01*
X28450Y-49559D01*
X28450Y-49999D01*
X28449Y-50059D01*
X28450Y-50059D01*
X28450Y-50211D01*
G54D10*
G36*
X39200Y-50830D02*
X37050Y-50830D01*
X37050Y-50039D01*
X37099Y-49919D01*
X37100Y-49581D01*
X37050Y-49460D01*
X37050Y-48479D01*
X36535Y-47964D01*
X36050Y-47479D01*
X36050Y-46229D01*
X35785Y-45964D01*
X35300Y-45479D01*
X35300Y-42270D01*
X35770Y-41800D01*
X37979Y-41800D01*
X38200Y-42020D01*
X38200Y-42269D01*
X38193Y-42272D01*
X38150Y-42314D01*
X38127Y-42370D01*
X38127Y-42429D01*
X38127Y-43129D01*
X38150Y-43184D01*
X38192Y-43227D01*
X38200Y-43230D01*
X38200Y-43270D01*
X39200Y-44270D01*
X39200Y-50830D01*
X39200Y-50830D01*
G37*
G54D28*
X39200Y-50830D02*
X37050Y-50830D01*
X37050Y-50039D01*
X37099Y-49919D01*
X37100Y-49581D01*
X37050Y-49460D01*
X37050Y-48479D01*
X36535Y-47964D01*
X36050Y-47479D01*
X36050Y-46229D01*
X35785Y-45964D01*
X35300Y-45479D01*
X35300Y-42270D01*
X35770Y-41800D01*
X37979Y-41800D01*
X38200Y-42020D01*
X38200Y-42269D01*
X38193Y-42272D01*
X38150Y-42314D01*
X38127Y-42370D01*
X38127Y-42429D01*
X38127Y-43129D01*
X38150Y-43184D01*
X38192Y-43227D01*
X38200Y-43230D01*
X38200Y-43270D01*
X39200Y-44270D01*
X39200Y-50830D01*
G54D10*
G36*
X52830Y-50482D02*
X52802Y-50624D01*
X52785Y-50650D01*
X52785Y-45443D01*
X52741Y-45338D01*
X52690Y-45286D01*
X52690Y-41213D01*
X52741Y-41161D01*
X52784Y-41056D01*
X52785Y-40943D01*
X52741Y-40838D01*
X52661Y-40758D01*
X52556Y-40715D01*
X52535Y-40715D01*
X52535Y-38693D01*
X52491Y-38588D01*
X52440Y-38536D01*
X52440Y-33963D01*
X52491Y-33911D01*
X52534Y-33806D01*
X52535Y-33693D01*
X52491Y-33588D01*
X52411Y-33508D01*
X52306Y-33465D01*
X52193Y-33464D01*
X52088Y-33508D01*
X52008Y-33588D01*
X51965Y-33693D01*
X51964Y-33806D01*
X52008Y-33911D01*
X52060Y-33963D01*
X52060Y-38536D01*
X52008Y-38588D01*
X51965Y-38693D01*
X51964Y-38806D01*
X52008Y-38911D01*
X52088Y-38991D01*
X52193Y-39034D01*
X52306Y-39035D01*
X52411Y-38991D01*
X52491Y-38911D01*
X52534Y-38806D01*
X52535Y-38693D01*
X52535Y-40715D01*
X52443Y-40714D01*
X52338Y-40758D01*
X52258Y-40838D01*
X52215Y-40943D01*
X52214Y-41056D01*
X52258Y-41161D01*
X52310Y-41213D01*
X52310Y-45286D01*
X52258Y-45338D01*
X52215Y-45443D01*
X52214Y-45556D01*
X52258Y-45661D01*
X52338Y-45741D01*
X52443Y-45784D01*
X52556Y-45785D01*
X52661Y-45741D01*
X52741Y-45661D01*
X52784Y-45556D01*
X52785Y-45443D01*
X52785Y-50650D01*
X52730Y-50731D01*
X52624Y-50802D01*
X52483Y-50830D01*
X51785Y-50830D01*
X51785Y-46193D01*
X51741Y-46088D01*
X51690Y-46036D01*
X51690Y-37713D01*
X51741Y-37661D01*
X51784Y-37556D01*
X51785Y-37443D01*
X51741Y-37338D01*
X51690Y-37286D01*
X51690Y-36213D01*
X51741Y-36161D01*
X51784Y-36056D01*
X51785Y-35943D01*
X51741Y-35838D01*
X51661Y-35758D01*
X51556Y-35715D01*
X51443Y-35714D01*
X51440Y-35716D01*
X51440Y-34078D01*
X51483Y-34034D01*
X51556Y-34035D01*
X51661Y-33991D01*
X51741Y-33911D01*
X51784Y-33806D01*
X51785Y-33693D01*
X51741Y-33588D01*
X51661Y-33508D01*
X51556Y-33465D01*
X51443Y-33464D01*
X51338Y-33508D01*
X51258Y-33588D01*
X51215Y-33693D01*
X51214Y-33766D01*
X51115Y-33865D01*
X51074Y-33927D01*
X51060Y-34000D01*
X51060Y-36921D01*
X50285Y-37696D01*
X50285Y-37693D01*
X50241Y-37588D01*
X50190Y-37536D01*
X50190Y-33463D01*
X50241Y-33411D01*
X50284Y-33306D01*
X50285Y-33193D01*
X50241Y-33088D01*
X50161Y-33008D01*
X50056Y-32965D01*
X49943Y-32964D01*
X49838Y-33008D01*
X49781Y-33065D01*
X49784Y-33056D01*
X49785Y-32943D01*
X49741Y-32838D01*
X49710Y-32806D01*
X49710Y-31000D01*
X49709Y-30999D01*
X49710Y-30999D01*
X49706Y-30984D01*
X49694Y-30919D01*
X49694Y-30919D01*
X49648Y-30851D01*
X49648Y-30851D01*
X49035Y-30238D01*
X49035Y-30193D01*
X48991Y-30088D01*
X48911Y-30008D01*
X48806Y-29965D01*
X48693Y-29964D01*
X48588Y-30008D01*
X48508Y-30088D01*
X48465Y-30193D01*
X48464Y-30306D01*
X48508Y-30411D01*
X48588Y-30491D01*
X48693Y-30534D01*
X48738Y-30534D01*
X48925Y-30722D01*
X48838Y-30758D01*
X48758Y-30838D01*
X48715Y-30943D01*
X48714Y-31056D01*
X48758Y-31161D01*
X48790Y-31193D01*
X48790Y-32806D01*
X48758Y-32838D01*
X48715Y-32943D01*
X48714Y-33056D01*
X48758Y-33161D01*
X48790Y-33193D01*
X48790Y-33913D01*
X48738Y-33964D01*
X48693Y-33964D01*
X48588Y-34008D01*
X48508Y-34088D01*
X48465Y-34193D01*
X48464Y-34306D01*
X48508Y-34411D01*
X48588Y-34491D01*
X48693Y-34534D01*
X48738Y-34534D01*
X48790Y-34586D01*
X48790Y-35500D01*
X48790Y-43306D01*
X48758Y-43338D01*
X48715Y-43443D01*
X48714Y-43556D01*
X48758Y-43661D01*
X48790Y-43693D01*
X48790Y-44413D01*
X48777Y-44425D01*
X48741Y-44338D01*
X48690Y-44286D01*
X48690Y-41463D01*
X48741Y-41411D01*
X48784Y-41306D01*
X48785Y-41193D01*
X48741Y-41088D01*
X48661Y-41008D01*
X48556Y-40965D01*
X48443Y-40964D01*
X48338Y-41008D01*
X48258Y-41088D01*
X48215Y-41193D01*
X48214Y-41306D01*
X48258Y-41411D01*
X48310Y-41463D01*
X48310Y-44286D01*
X48258Y-44338D01*
X48215Y-44443D01*
X48214Y-44556D01*
X48258Y-44661D01*
X48338Y-44741D01*
X48443Y-44784D01*
X48464Y-44784D01*
X48464Y-44806D01*
X48508Y-44911D01*
X48588Y-44991D01*
X48693Y-45034D01*
X48806Y-45035D01*
X48911Y-44991D01*
X48991Y-44911D01*
X48999Y-44891D01*
X49008Y-44911D01*
X49088Y-44991D01*
X49193Y-45034D01*
X49306Y-45035D01*
X49411Y-44991D01*
X49491Y-44911D01*
X49534Y-44806D01*
X49535Y-44693D01*
X49491Y-44588D01*
X49460Y-44556D01*
X49460Y-43836D01*
X49511Y-43785D01*
X49556Y-43785D01*
X49661Y-43741D01*
X49741Y-43661D01*
X49784Y-43556D01*
X49785Y-43443D01*
X49741Y-43338D01*
X49661Y-43258D01*
X49556Y-43215D01*
X49511Y-43215D01*
X49460Y-43163D01*
X49460Y-34500D01*
X49460Y-34443D01*
X49491Y-34411D01*
X49534Y-34306D01*
X49535Y-34193D01*
X49491Y-34088D01*
X49460Y-34056D01*
X49460Y-34000D01*
X49460Y-33336D01*
X49511Y-33285D01*
X49556Y-33285D01*
X49661Y-33241D01*
X49718Y-33184D01*
X49715Y-33193D01*
X49714Y-33306D01*
X49758Y-33411D01*
X49810Y-33463D01*
X49810Y-33466D01*
X49806Y-33465D01*
X49693Y-33464D01*
X49588Y-33508D01*
X49508Y-33588D01*
X49465Y-33693D01*
X49464Y-33806D01*
X49508Y-33911D01*
X49560Y-33963D01*
X49560Y-35536D01*
X49508Y-35588D01*
X49465Y-35693D01*
X49464Y-35806D01*
X49508Y-35911D01*
X49588Y-35991D01*
X49693Y-36034D01*
X49806Y-36035D01*
X49810Y-36033D01*
X49810Y-37536D01*
X49758Y-37588D01*
X49715Y-37693D01*
X49714Y-37806D01*
X49758Y-37911D01*
X49838Y-37991D01*
X49943Y-38034D01*
X49946Y-38034D01*
X49766Y-38215D01*
X49693Y-38214D01*
X49588Y-38258D01*
X49508Y-38338D01*
X49465Y-38443D01*
X49464Y-38556D01*
X49508Y-38661D01*
X49588Y-38741D01*
X49693Y-38784D01*
X49806Y-38785D01*
X49911Y-38741D01*
X49991Y-38661D01*
X50034Y-38556D01*
X50035Y-38483D01*
X51310Y-37208D01*
X51310Y-37286D01*
X51258Y-37338D01*
X51215Y-37443D01*
X51214Y-37556D01*
X51258Y-37661D01*
X51310Y-37713D01*
X51310Y-46036D01*
X51285Y-46061D01*
X51285Y-43693D01*
X51241Y-43588D01*
X51190Y-43536D01*
X51190Y-43213D01*
X51241Y-43161D01*
X51284Y-43056D01*
X51285Y-42943D01*
X51241Y-42838D01*
X51161Y-42758D01*
X51056Y-42715D01*
X50943Y-42714D01*
X50838Y-42758D01*
X50758Y-42838D01*
X50715Y-42943D01*
X50714Y-43056D01*
X50758Y-43161D01*
X50810Y-43213D01*
X50810Y-43536D01*
X50758Y-43588D01*
X50715Y-43693D01*
X50714Y-43806D01*
X50758Y-43911D01*
X50838Y-43991D01*
X50943Y-44034D01*
X51056Y-44035D01*
X51161Y-43991D01*
X51241Y-43911D01*
X51284Y-43806D01*
X51285Y-43693D01*
X51285Y-46061D01*
X51258Y-46088D01*
X51215Y-46193D01*
X51214Y-46306D01*
X51258Y-46411D01*
X51338Y-46491D01*
X51443Y-46534D01*
X51556Y-46535D01*
X51661Y-46491D01*
X51741Y-46411D01*
X51784Y-46306D01*
X51785Y-46193D01*
X51785Y-50830D01*
X50785Y-50830D01*
X50785Y-44443D01*
X50741Y-44338D01*
X50661Y-44258D01*
X50556Y-44215D01*
X50483Y-44214D01*
X50190Y-43921D01*
X50190Y-40213D01*
X50218Y-40184D01*
X50215Y-40193D01*
X50214Y-40306D01*
X50258Y-40411D01*
X50310Y-40463D01*
X50310Y-42286D01*
X50258Y-42338D01*
X50215Y-42443D01*
X50214Y-42556D01*
X50258Y-42661D01*
X50338Y-42741D01*
X50443Y-42784D01*
X50556Y-42785D01*
X50661Y-42741D01*
X50741Y-42661D01*
X50784Y-42556D01*
X50785Y-42443D01*
X50741Y-42338D01*
X50690Y-42286D01*
X50690Y-40463D01*
X50741Y-40411D01*
X50784Y-40306D01*
X50785Y-40193D01*
X50741Y-40088D01*
X50661Y-40008D01*
X50556Y-39965D01*
X50443Y-39964D01*
X50338Y-40008D01*
X50281Y-40065D01*
X50284Y-40056D01*
X50285Y-39943D01*
X50241Y-39838D01*
X50161Y-39758D01*
X50056Y-39715D01*
X49943Y-39714D01*
X49838Y-39758D01*
X49758Y-39838D01*
X49715Y-39943D01*
X49714Y-40056D01*
X49758Y-40161D01*
X49810Y-40213D01*
X49810Y-40966D01*
X49806Y-40965D01*
X49693Y-40964D01*
X49588Y-41008D01*
X49508Y-41088D01*
X49465Y-41193D01*
X49464Y-41306D01*
X49508Y-41411D01*
X49560Y-41463D01*
X49560Y-42536D01*
X49508Y-42588D01*
X49465Y-42693D01*
X49464Y-42806D01*
X49508Y-42911D01*
X49588Y-42991D01*
X49693Y-43034D01*
X49806Y-43035D01*
X49810Y-43033D01*
X49810Y-44000D01*
X49824Y-44072D01*
X49865Y-44134D01*
X50215Y-44483D01*
X50214Y-44556D01*
X50258Y-44661D01*
X50338Y-44741D01*
X50443Y-44784D01*
X50556Y-44785D01*
X50661Y-44741D01*
X50741Y-44661D01*
X50784Y-44556D01*
X50785Y-44443D01*
X50785Y-50830D01*
X49270Y-50830D01*
X49360Y-50741D01*
X49424Y-50584D01*
X49425Y-50415D01*
X49360Y-50259D01*
X49241Y-50139D01*
X49084Y-50075D01*
X48915Y-50074D01*
X48759Y-50139D01*
X48639Y-50258D01*
X48575Y-50415D01*
X48574Y-50584D01*
X48639Y-50740D01*
X48729Y-50830D01*
X48270Y-50830D01*
X48360Y-50741D01*
X48424Y-50584D01*
X48425Y-50415D01*
X48360Y-50259D01*
X48241Y-50139D01*
X48084Y-50075D01*
X47915Y-50074D01*
X47759Y-50139D01*
X47639Y-50258D01*
X47575Y-50415D01*
X47574Y-50584D01*
X47639Y-50740D01*
X47729Y-50830D01*
X47270Y-50830D01*
X47360Y-50741D01*
X47424Y-50584D01*
X47425Y-50415D01*
X47360Y-50259D01*
X47241Y-50139D01*
X47190Y-50118D01*
X47190Y-49328D01*
X47884Y-48634D01*
X47884Y-48634D01*
X47884Y-48634D01*
X47925Y-48572D01*
X47925Y-48572D01*
X47937Y-48512D01*
X47940Y-48500D01*
X47939Y-48500D01*
X47940Y-48500D01*
X47940Y-42500D01*
X47925Y-42427D01*
X47884Y-42365D01*
X47884Y-42365D01*
X47690Y-42171D01*
X47690Y-40033D01*
X47693Y-40034D01*
X47806Y-40035D01*
X47911Y-39991D01*
X47963Y-39940D01*
X48250Y-39940D01*
X48322Y-39925D01*
X48384Y-39884D01*
X48483Y-39784D01*
X48556Y-39785D01*
X48661Y-39741D01*
X48741Y-39661D01*
X48784Y-39556D01*
X48785Y-39443D01*
X48741Y-39338D01*
X48661Y-39258D01*
X48556Y-39215D01*
X48443Y-39214D01*
X48338Y-39258D01*
X48258Y-39338D01*
X48215Y-39443D01*
X48214Y-39516D01*
X48171Y-39560D01*
X47963Y-39560D01*
X47911Y-39508D01*
X47806Y-39465D01*
X47693Y-39464D01*
X47690Y-39466D01*
X47690Y-38750D01*
X47675Y-38677D01*
X47634Y-38615D01*
X47634Y-38615D01*
X47440Y-38421D01*
X47440Y-35963D01*
X47491Y-35911D01*
X47534Y-35806D01*
X47534Y-35803D01*
X48215Y-36483D01*
X48214Y-36556D01*
X48258Y-36661D01*
X48338Y-36741D01*
X48443Y-36784D01*
X48556Y-36785D01*
X48661Y-36741D01*
X48741Y-36661D01*
X48784Y-36556D01*
X48785Y-36443D01*
X48741Y-36338D01*
X48661Y-36258D01*
X48556Y-36215D01*
X48483Y-36214D01*
X47690Y-35421D01*
X47690Y-34463D01*
X47741Y-34411D01*
X47784Y-34306D01*
X47785Y-34193D01*
X47741Y-34088D01*
X47661Y-34008D01*
X47556Y-33965D01*
X47535Y-33965D01*
X47535Y-31443D01*
X47491Y-31338D01*
X47411Y-31258D01*
X47306Y-31215D01*
X47193Y-31214D01*
X47088Y-31258D01*
X47085Y-31261D01*
X47085Y-30543D01*
X47041Y-30438D01*
X46961Y-30358D01*
X46856Y-30315D01*
X46743Y-30314D01*
X46638Y-30358D01*
X46558Y-30438D01*
X46515Y-30543D01*
X46515Y-30588D01*
X46313Y-30790D01*
X46093Y-30790D01*
X46061Y-30758D01*
X45956Y-30715D01*
X45843Y-30714D01*
X45738Y-30758D01*
X45658Y-30838D01*
X45615Y-30943D01*
X45614Y-31056D01*
X45658Y-31161D01*
X45738Y-31241D01*
X45843Y-31284D01*
X45956Y-31285D01*
X46061Y-31241D01*
X46093Y-31210D01*
X46400Y-31210D01*
X46480Y-31194D01*
X46548Y-31148D01*
X46811Y-30885D01*
X46856Y-30885D01*
X46961Y-30841D01*
X47041Y-30761D01*
X47084Y-30656D01*
X47085Y-30543D01*
X47085Y-31261D01*
X47036Y-31310D01*
X45500Y-31310D01*
X45427Y-31324D01*
X45365Y-31365D01*
X45365Y-31365D01*
X45115Y-31615D01*
X45074Y-31677D01*
X45060Y-31750D01*
X45060Y-33536D01*
X45008Y-33588D01*
X44965Y-33693D01*
X44964Y-33806D01*
X45008Y-33911D01*
X45088Y-33991D01*
X45193Y-34034D01*
X45306Y-34035D01*
X45411Y-33991D01*
X45491Y-33911D01*
X45534Y-33806D01*
X45535Y-33693D01*
X45491Y-33588D01*
X45440Y-33536D01*
X45440Y-31828D01*
X45578Y-31690D01*
X47036Y-31690D01*
X47088Y-31741D01*
X47193Y-31784D01*
X47306Y-31785D01*
X47411Y-31741D01*
X47491Y-31661D01*
X47534Y-31556D01*
X47535Y-31443D01*
X47535Y-33965D01*
X47443Y-33964D01*
X47338Y-34008D01*
X47258Y-34088D01*
X47215Y-34193D01*
X47214Y-34306D01*
X47258Y-34411D01*
X47310Y-34463D01*
X47310Y-35466D01*
X47306Y-35465D01*
X47193Y-35464D01*
X47088Y-35508D01*
X47008Y-35588D01*
X46965Y-35693D01*
X46964Y-35806D01*
X47008Y-35911D01*
X47060Y-35963D01*
X47060Y-38500D01*
X47074Y-38572D01*
X47115Y-38634D01*
X47310Y-38828D01*
X47310Y-40716D01*
X47306Y-40715D01*
X47193Y-40714D01*
X47088Y-40758D01*
X47035Y-40811D01*
X47035Y-36943D01*
X46991Y-36838D01*
X46940Y-36786D01*
X46940Y-34963D01*
X46991Y-34911D01*
X47034Y-34806D01*
X47035Y-34693D01*
X46991Y-34588D01*
X46911Y-34508D01*
X46806Y-34465D01*
X46693Y-34464D01*
X46588Y-34508D01*
X46508Y-34588D01*
X46465Y-34693D01*
X46464Y-34806D01*
X46508Y-34911D01*
X46560Y-34963D01*
X46560Y-36786D01*
X46508Y-36838D01*
X46465Y-36943D01*
X46464Y-37056D01*
X46508Y-37161D01*
X46588Y-37241D01*
X46693Y-37284D01*
X46806Y-37285D01*
X46911Y-37241D01*
X46991Y-37161D01*
X47034Y-37056D01*
X47035Y-36943D01*
X47035Y-40811D01*
X47008Y-40838D01*
X46965Y-40943D01*
X46964Y-41056D01*
X47008Y-41161D01*
X47060Y-41213D01*
X47060Y-41466D01*
X47056Y-41465D01*
X46943Y-41464D01*
X46838Y-41508D01*
X46758Y-41588D01*
X46715Y-41693D01*
X46714Y-41806D01*
X46758Y-41911D01*
X46810Y-41963D01*
X46810Y-43286D01*
X46758Y-43338D01*
X46715Y-43443D01*
X46714Y-43556D01*
X46758Y-43661D01*
X46838Y-43741D01*
X46943Y-43784D01*
X47056Y-43785D01*
X47060Y-43783D01*
X47060Y-45786D01*
X47008Y-45838D01*
X46965Y-45943D01*
X46964Y-46056D01*
X47008Y-46161D01*
X47088Y-46241D01*
X47193Y-46284D01*
X47306Y-46285D01*
X47310Y-46283D01*
X47310Y-48171D01*
X46035Y-49446D01*
X46035Y-49443D01*
X45991Y-49338D01*
X45940Y-49286D01*
X45940Y-35713D01*
X45991Y-35661D01*
X46034Y-35556D01*
X46035Y-35443D01*
X45991Y-35338D01*
X45911Y-35258D01*
X45806Y-35215D01*
X45693Y-35214D01*
X45588Y-35258D01*
X45508Y-35338D01*
X45465Y-35443D01*
X45464Y-35556D01*
X45508Y-35661D01*
X45560Y-35713D01*
X45560Y-49286D01*
X45508Y-49338D01*
X45465Y-49443D01*
X45464Y-49556D01*
X45508Y-49661D01*
X45588Y-49741D01*
X45693Y-49784D01*
X45806Y-49785D01*
X45810Y-49783D01*
X45810Y-50074D01*
X45695Y-50074D01*
X45640Y-50097D01*
X45597Y-50139D01*
X45575Y-50195D01*
X45574Y-50254D01*
X45574Y-50804D01*
X45585Y-50830D01*
X45035Y-50830D01*
X45035Y-42443D01*
X44991Y-42338D01*
X44940Y-42286D01*
X44940Y-41463D01*
X44991Y-41411D01*
X45034Y-41306D01*
X45035Y-41193D01*
X44991Y-41088D01*
X44911Y-41008D01*
X44806Y-40965D01*
X44693Y-40964D01*
X44588Y-41008D01*
X44508Y-41088D01*
X44465Y-41193D01*
X44464Y-41306D01*
X44508Y-41411D01*
X44560Y-41463D01*
X44560Y-42286D01*
X44508Y-42338D01*
X44465Y-42443D01*
X44464Y-42556D01*
X44508Y-42661D01*
X44588Y-42741D01*
X44693Y-42784D01*
X44806Y-42785D01*
X44911Y-42741D01*
X44991Y-42661D01*
X45034Y-42556D01*
X45035Y-42443D01*
X45035Y-50830D01*
X44535Y-50830D01*
X44535Y-43193D01*
X44491Y-43088D01*
X44440Y-43036D01*
X44440Y-41963D01*
X44491Y-41911D01*
X44534Y-41806D01*
X44535Y-41693D01*
X44491Y-41588D01*
X44411Y-41508D01*
X44306Y-41465D01*
X44193Y-41464D01*
X44088Y-41508D01*
X44008Y-41588D01*
X43965Y-41693D01*
X43964Y-41806D01*
X44008Y-41911D01*
X44060Y-41963D01*
X44060Y-43036D01*
X44008Y-43088D01*
X43965Y-43193D01*
X43964Y-43306D01*
X44008Y-43411D01*
X44088Y-43491D01*
X44193Y-43534D01*
X44306Y-43535D01*
X44411Y-43491D01*
X44491Y-43411D01*
X44534Y-43306D01*
X44535Y-43193D01*
X44535Y-50830D01*
X44414Y-50830D01*
X44424Y-50804D01*
X44425Y-50745D01*
X44425Y-50195D01*
X44402Y-50140D01*
X44360Y-50097D01*
X44304Y-50075D01*
X44245Y-50074D01*
X43695Y-50074D01*
X43640Y-50097D01*
X43597Y-50139D01*
X43575Y-50195D01*
X43574Y-50254D01*
X43574Y-50804D01*
X43585Y-50830D01*
X43100Y-50830D01*
X43100Y-43831D01*
X43100Y-33081D01*
X42971Y-32769D01*
X42732Y-32529D01*
X42419Y-32400D01*
X42081Y-32399D01*
X41769Y-32528D01*
X41529Y-32767D01*
X41400Y-33080D01*
X41399Y-33418D01*
X41528Y-33730D01*
X41767Y-33970D01*
X42080Y-34099D01*
X42418Y-34100D01*
X42730Y-33971D01*
X42970Y-33732D01*
X43099Y-33419D01*
X43100Y-33081D01*
X43100Y-43831D01*
X42971Y-43519D01*
X42732Y-43279D01*
X42419Y-43150D01*
X42081Y-43149D01*
X41769Y-43278D01*
X41529Y-43517D01*
X41400Y-43830D01*
X41399Y-44168D01*
X41528Y-44480D01*
X41767Y-44720D01*
X42080Y-44849D01*
X42418Y-44850D01*
X42730Y-44721D01*
X42970Y-44482D01*
X43099Y-44169D01*
X43100Y-43831D01*
X43100Y-50830D01*
X42414Y-50830D01*
X42424Y-50804D01*
X42425Y-50745D01*
X42425Y-50195D01*
X42402Y-50140D01*
X42360Y-50097D01*
X42304Y-50075D01*
X42245Y-50074D01*
X41695Y-50074D01*
X41640Y-50097D01*
X41597Y-50139D01*
X41575Y-50195D01*
X41574Y-50254D01*
X41574Y-50804D01*
X41585Y-50830D01*
X39550Y-50830D01*
X39550Y-47750D01*
X39550Y-44229D01*
X38570Y-43250D01*
X39007Y-43250D01*
X39062Y-43227D01*
X39105Y-43185D01*
X39127Y-43129D01*
X39127Y-43070D01*
X39127Y-42370D01*
X39105Y-42315D01*
X39063Y-42272D01*
X39007Y-42250D01*
X38948Y-42249D01*
X38550Y-42249D01*
X38550Y-42020D01*
X40050Y-40520D01*
X40050Y-30229D01*
X39994Y-30173D01*
X40099Y-29919D01*
X40100Y-29581D01*
X39971Y-29269D01*
X39732Y-29029D01*
X39419Y-28900D01*
X39081Y-28899D01*
X38826Y-29005D01*
X38520Y-28700D01*
X36479Y-28700D01*
X35950Y-29229D01*
X35950Y-34000D01*
X35773Y-33999D01*
X35589Y-34075D01*
X35448Y-34216D01*
X35372Y-34400D01*
X35371Y-34599D01*
X35447Y-34782D01*
X35588Y-34923D01*
X35772Y-34999D01*
X35950Y-35000D01*
X35950Y-39229D01*
X34950Y-40229D01*
X34950Y-45520D01*
X35464Y-46035D01*
X35700Y-46270D01*
X35700Y-47520D01*
X36464Y-48285D01*
X36700Y-48520D01*
X36700Y-49250D01*
X36700Y-50000D01*
X36700Y-50830D01*
X33100Y-50830D01*
X33100Y-43831D01*
X33100Y-33081D01*
X32971Y-32769D01*
X32732Y-32529D01*
X32419Y-32400D01*
X32081Y-32399D01*
X31769Y-32528D01*
X31529Y-32767D01*
X31400Y-33080D01*
X31399Y-33418D01*
X31528Y-33730D01*
X31767Y-33970D01*
X32080Y-34099D01*
X32418Y-34100D01*
X32730Y-33971D01*
X32970Y-33732D01*
X33099Y-33419D01*
X33100Y-33081D01*
X33100Y-43831D01*
X32971Y-43519D01*
X32732Y-43279D01*
X32419Y-43150D01*
X32081Y-43149D01*
X31769Y-43278D01*
X31529Y-43517D01*
X31400Y-43830D01*
X31399Y-44168D01*
X31528Y-44480D01*
X31767Y-44720D01*
X32080Y-44849D01*
X32418Y-44850D01*
X32730Y-44721D01*
X32970Y-44482D01*
X33099Y-44169D01*
X33100Y-43831D01*
X33100Y-50830D01*
X29517Y-50830D01*
X29375Y-50802D01*
X29268Y-50730D01*
X29197Y-50624D01*
X29166Y-50467D01*
X29166Y-50466D01*
X29147Y-50371D01*
X29147Y-50371D01*
X29122Y-50309D01*
X29067Y-50228D01*
X29050Y-50211D01*
X29050Y-50000D01*
X29050Y-49940D01*
X29050Y-49940D01*
X29050Y-49500D01*
X29050Y-49440D01*
X29050Y-49440D01*
X29050Y-49000D01*
X29050Y-48940D01*
X29050Y-48940D01*
X29050Y-48788D01*
X29067Y-48771D01*
X29122Y-48690D01*
X29147Y-48628D01*
X29147Y-48628D01*
X29166Y-48532D01*
X29166Y-48516D01*
X29169Y-48500D01*
X29169Y-29016D01*
X29197Y-28875D01*
X29268Y-28769D01*
X29375Y-28697D01*
X29517Y-28669D01*
X40500Y-28669D01*
X40516Y-28666D01*
X40532Y-28666D01*
X40628Y-28647D01*
X40689Y-28622D01*
X40690Y-28621D01*
X40770Y-28568D01*
X40770Y-28567D01*
X40788Y-28550D01*
X40999Y-28550D01*
X41059Y-28550D01*
X41059Y-28550D01*
X41499Y-28550D01*
X41559Y-28550D01*
X41559Y-28550D01*
X41999Y-28550D01*
X42059Y-28550D01*
X42059Y-28550D01*
X42211Y-28550D01*
X42228Y-28567D01*
X42309Y-28622D01*
X42371Y-28647D01*
X42371Y-28647D01*
X42467Y-28666D01*
X42483Y-28666D01*
X42500Y-28669D01*
X52483Y-28669D01*
X52624Y-28697D01*
X52730Y-28768D01*
X52802Y-28875D01*
X52830Y-29017D01*
X52830Y-50482D01*
X52830Y-50482D01*
G37*
G54D28*
X52830Y-50482D02*
X52802Y-50624D01*
X52785Y-50650D01*
X52785Y-45443D01*
X52741Y-45338D01*
X52690Y-45286D01*
X52690Y-41213D01*
X52741Y-41161D01*
X52784Y-41056D01*
X52785Y-40943D01*
X52741Y-40838D01*
X52661Y-40758D01*
X52556Y-40715D01*
X52535Y-40715D01*
X52535Y-38693D01*
X52491Y-38588D01*
X52440Y-38536D01*
X52440Y-33963D01*
X52491Y-33911D01*
X52534Y-33806D01*
X52535Y-33693D01*
X52491Y-33588D01*
X52411Y-33508D01*
X52306Y-33465D01*
X52193Y-33464D01*
X52088Y-33508D01*
X52008Y-33588D01*
X51965Y-33693D01*
X51964Y-33806D01*
X52008Y-33911D01*
X52060Y-33963D01*
X52060Y-38536D01*
X52008Y-38588D01*
X51965Y-38693D01*
X51964Y-38806D01*
X52008Y-38911D01*
X52088Y-38991D01*
X52193Y-39034D01*
X52306Y-39035D01*
X52411Y-38991D01*
X52491Y-38911D01*
X52534Y-38806D01*
X52535Y-38693D01*
X52535Y-40715D01*
X52443Y-40714D01*
X52338Y-40758D01*
X52258Y-40838D01*
X52215Y-40943D01*
X52214Y-41056D01*
X52258Y-41161D01*
X52310Y-41213D01*
X52310Y-45286D01*
X52258Y-45338D01*
X52215Y-45443D01*
X52214Y-45556D01*
X52258Y-45661D01*
X52338Y-45741D01*
X52443Y-45784D01*
X52556Y-45785D01*
X52661Y-45741D01*
X52741Y-45661D01*
X52784Y-45556D01*
X52785Y-45443D01*
X52785Y-50650D01*
X52730Y-50731D01*
X52624Y-50802D01*
X52483Y-50830D01*
X51785Y-50830D01*
X51785Y-46193D01*
X51741Y-46088D01*
X51690Y-46036D01*
X51690Y-37713D01*
X51741Y-37661D01*
X51784Y-37556D01*
X51785Y-37443D01*
X51741Y-37338D01*
X51690Y-37286D01*
X51690Y-36213D01*
X51741Y-36161D01*
X51784Y-36056D01*
X51785Y-35943D01*
X51741Y-35838D01*
X51661Y-35758D01*
X51556Y-35715D01*
X51443Y-35714D01*
X51440Y-35716D01*
X51440Y-34078D01*
X51483Y-34034D01*
X51556Y-34035D01*
X51661Y-33991D01*
X51741Y-33911D01*
X51784Y-33806D01*
X51785Y-33693D01*
X51741Y-33588D01*
X51661Y-33508D01*
X51556Y-33465D01*
X51443Y-33464D01*
X51338Y-33508D01*
X51258Y-33588D01*
X51215Y-33693D01*
X51214Y-33766D01*
X51115Y-33865D01*
X51074Y-33927D01*
X51060Y-34000D01*
X51060Y-36921D01*
X50285Y-37696D01*
X50285Y-37693D01*
X50241Y-37588D01*
X50190Y-37536D01*
X50190Y-33463D01*
X50241Y-33411D01*
X50284Y-33306D01*
X50285Y-33193D01*
X50241Y-33088D01*
X50161Y-33008D01*
X50056Y-32965D01*
X49943Y-32964D01*
X49838Y-33008D01*
X49781Y-33065D01*
X49784Y-33056D01*
X49785Y-32943D01*
X49741Y-32838D01*
X49710Y-32806D01*
X49710Y-31000D01*
X49709Y-30999D01*
X49710Y-30999D01*
X49706Y-30984D01*
X49694Y-30919D01*
X49694Y-30919D01*
X49648Y-30851D01*
X49648Y-30851D01*
X49035Y-30238D01*
X49035Y-30193D01*
X48991Y-30088D01*
X48911Y-30008D01*
X48806Y-29965D01*
X48693Y-29964D01*
X48588Y-30008D01*
X48508Y-30088D01*
X48465Y-30193D01*
X48464Y-30306D01*
X48508Y-30411D01*
X48588Y-30491D01*
X48693Y-30534D01*
X48738Y-30534D01*
X48925Y-30722D01*
X48838Y-30758D01*
X48758Y-30838D01*
X48715Y-30943D01*
X48714Y-31056D01*
X48758Y-31161D01*
X48790Y-31193D01*
X48790Y-32806D01*
X48758Y-32838D01*
X48715Y-32943D01*
X48714Y-33056D01*
X48758Y-33161D01*
X48790Y-33193D01*
X48790Y-33913D01*
X48738Y-33964D01*
X48693Y-33964D01*
X48588Y-34008D01*
X48508Y-34088D01*
X48465Y-34193D01*
X48464Y-34306D01*
X48508Y-34411D01*
X48588Y-34491D01*
X48693Y-34534D01*
X48738Y-34534D01*
X48790Y-34586D01*
X48790Y-35500D01*
X48790Y-43306D01*
X48758Y-43338D01*
X48715Y-43443D01*
X48714Y-43556D01*
X48758Y-43661D01*
X48790Y-43693D01*
X48790Y-44413D01*
X48777Y-44425D01*
X48741Y-44338D01*
X48690Y-44286D01*
X48690Y-41463D01*
X48741Y-41411D01*
X48784Y-41306D01*
X48785Y-41193D01*
X48741Y-41088D01*
X48661Y-41008D01*
X48556Y-40965D01*
X48443Y-40964D01*
X48338Y-41008D01*
X48258Y-41088D01*
X48215Y-41193D01*
X48214Y-41306D01*
X48258Y-41411D01*
X48310Y-41463D01*
X48310Y-44286D01*
X48258Y-44338D01*
X48215Y-44443D01*
X48214Y-44556D01*
X48258Y-44661D01*
X48338Y-44741D01*
X48443Y-44784D01*
X48464Y-44784D01*
X48464Y-44806D01*
X48508Y-44911D01*
X48588Y-44991D01*
X48693Y-45034D01*
X48806Y-45035D01*
X48911Y-44991D01*
X48991Y-44911D01*
X48999Y-44891D01*
X49008Y-44911D01*
X49088Y-44991D01*
X49193Y-45034D01*
X49306Y-45035D01*
X49411Y-44991D01*
X49491Y-44911D01*
X49534Y-44806D01*
X49535Y-44693D01*
X49491Y-44588D01*
X49460Y-44556D01*
X49460Y-43836D01*
X49511Y-43785D01*
X49556Y-43785D01*
X49661Y-43741D01*
X49741Y-43661D01*
X49784Y-43556D01*
X49785Y-43443D01*
X49741Y-43338D01*
X49661Y-43258D01*
X49556Y-43215D01*
X49511Y-43215D01*
X49460Y-43163D01*
X49460Y-34500D01*
X49460Y-34443D01*
X49491Y-34411D01*
X49534Y-34306D01*
X49535Y-34193D01*
X49491Y-34088D01*
X49460Y-34056D01*
X49460Y-34000D01*
X49460Y-33336D01*
X49511Y-33285D01*
X49556Y-33285D01*
X49661Y-33241D01*
X49718Y-33184D01*
X49715Y-33193D01*
X49714Y-33306D01*
X49758Y-33411D01*
X49810Y-33463D01*
X49810Y-33466D01*
X49806Y-33465D01*
X49693Y-33464D01*
X49588Y-33508D01*
X49508Y-33588D01*
X49465Y-33693D01*
X49464Y-33806D01*
X49508Y-33911D01*
X49560Y-33963D01*
X49560Y-35536D01*
X49508Y-35588D01*
X49465Y-35693D01*
X49464Y-35806D01*
X49508Y-35911D01*
X49588Y-35991D01*
X49693Y-36034D01*
X49806Y-36035D01*
X49810Y-36033D01*
X49810Y-37536D01*
X49758Y-37588D01*
X49715Y-37693D01*
X49714Y-37806D01*
X49758Y-37911D01*
X49838Y-37991D01*
X49943Y-38034D01*
X49946Y-38034D01*
X49766Y-38215D01*
X49693Y-38214D01*
X49588Y-38258D01*
X49508Y-38338D01*
X49465Y-38443D01*
X49464Y-38556D01*
X49508Y-38661D01*
X49588Y-38741D01*
X49693Y-38784D01*
X49806Y-38785D01*
X49911Y-38741D01*
X49991Y-38661D01*
X50034Y-38556D01*
X50035Y-38483D01*
X51310Y-37208D01*
X51310Y-37286D01*
X51258Y-37338D01*
X51215Y-37443D01*
X51214Y-37556D01*
X51258Y-37661D01*
X51310Y-37713D01*
X51310Y-46036D01*
X51285Y-46061D01*
X51285Y-43693D01*
X51241Y-43588D01*
X51190Y-43536D01*
X51190Y-43213D01*
X51241Y-43161D01*
X51284Y-43056D01*
X51285Y-42943D01*
X51241Y-42838D01*
X51161Y-42758D01*
X51056Y-42715D01*
X50943Y-42714D01*
X50838Y-42758D01*
X50758Y-42838D01*
X50715Y-42943D01*
X50714Y-43056D01*
X50758Y-43161D01*
X50810Y-43213D01*
X50810Y-43536D01*
X50758Y-43588D01*
X50715Y-43693D01*
X50714Y-43806D01*
X50758Y-43911D01*
X50838Y-43991D01*
X50943Y-44034D01*
X51056Y-44035D01*
X51161Y-43991D01*
X51241Y-43911D01*
X51284Y-43806D01*
X51285Y-43693D01*
X51285Y-46061D01*
X51258Y-46088D01*
X51215Y-46193D01*
X51214Y-46306D01*
X51258Y-46411D01*
X51338Y-46491D01*
X51443Y-46534D01*
X51556Y-46535D01*
X51661Y-46491D01*
X51741Y-46411D01*
X51784Y-46306D01*
X51785Y-46193D01*
X51785Y-50830D01*
X50785Y-50830D01*
X50785Y-44443D01*
X50741Y-44338D01*
X50661Y-44258D01*
X50556Y-44215D01*
X50483Y-44214D01*
X50190Y-43921D01*
X50190Y-40213D01*
X50218Y-40184D01*
X50215Y-40193D01*
X50214Y-40306D01*
X50258Y-40411D01*
X50310Y-40463D01*
X50310Y-42286D01*
X50258Y-42338D01*
X50215Y-42443D01*
X50214Y-42556D01*
X50258Y-42661D01*
X50338Y-42741D01*
X50443Y-42784D01*
X50556Y-42785D01*
X50661Y-42741D01*
X50741Y-42661D01*
X50784Y-42556D01*
X50785Y-42443D01*
X50741Y-42338D01*
X50690Y-42286D01*
X50690Y-40463D01*
X50741Y-40411D01*
X50784Y-40306D01*
X50785Y-40193D01*
X50741Y-40088D01*
X50661Y-40008D01*
X50556Y-39965D01*
X50443Y-39964D01*
X50338Y-40008D01*
X50281Y-40065D01*
X50284Y-40056D01*
X50285Y-39943D01*
X50241Y-39838D01*
X50161Y-39758D01*
X50056Y-39715D01*
X49943Y-39714D01*
X49838Y-39758D01*
X49758Y-39838D01*
X49715Y-39943D01*
X49714Y-40056D01*
X49758Y-40161D01*
X49810Y-40213D01*
X49810Y-40966D01*
X49806Y-40965D01*
X49693Y-40964D01*
X49588Y-41008D01*
X49508Y-41088D01*
X49465Y-41193D01*
X49464Y-41306D01*
X49508Y-41411D01*
X49560Y-41463D01*
X49560Y-42536D01*
X49508Y-42588D01*
X49465Y-42693D01*
X49464Y-42806D01*
X49508Y-42911D01*
X49588Y-42991D01*
X49693Y-43034D01*
X49806Y-43035D01*
X49810Y-43033D01*
X49810Y-44000D01*
X49824Y-44072D01*
X49865Y-44134D01*
X50215Y-44483D01*
X50214Y-44556D01*
X50258Y-44661D01*
X50338Y-44741D01*
X50443Y-44784D01*
X50556Y-44785D01*
X50661Y-44741D01*
X50741Y-44661D01*
X50784Y-44556D01*
X50785Y-44443D01*
X50785Y-50830D01*
X49270Y-50830D01*
X49360Y-50741D01*
X49424Y-50584D01*
X49425Y-50415D01*
X49360Y-50259D01*
X49241Y-50139D01*
X49084Y-50075D01*
X48915Y-50074D01*
X48759Y-50139D01*
X48639Y-50258D01*
X48575Y-50415D01*
X48574Y-50584D01*
X48639Y-50740D01*
X48729Y-50830D01*
X48270Y-50830D01*
X48360Y-50741D01*
X48424Y-50584D01*
X48425Y-50415D01*
X48360Y-50259D01*
X48241Y-50139D01*
X48084Y-50075D01*
X47915Y-50074D01*
X47759Y-50139D01*
X47639Y-50258D01*
X47575Y-50415D01*
X47574Y-50584D01*
X47639Y-50740D01*
X47729Y-50830D01*
X47270Y-50830D01*
X47360Y-50741D01*
X47424Y-50584D01*
X47425Y-50415D01*
X47360Y-50259D01*
X47241Y-50139D01*
X47190Y-50118D01*
X47190Y-49328D01*
X47884Y-48634D01*
X47884Y-48634D01*
X47884Y-48634D01*
X47925Y-48572D01*
X47925Y-48572D01*
X47937Y-48512D01*
X47940Y-48500D01*
X47939Y-48500D01*
X47940Y-48500D01*
X47940Y-42500D01*
X47925Y-42427D01*
X47884Y-42365D01*
X47884Y-42365D01*
X47690Y-42171D01*
X47690Y-40033D01*
X47693Y-40034D01*
X47806Y-40035D01*
X47911Y-39991D01*
X47963Y-39940D01*
X48250Y-39940D01*
X48322Y-39925D01*
X48384Y-39884D01*
X48483Y-39784D01*
X48556Y-39785D01*
X48661Y-39741D01*
X48741Y-39661D01*
X48784Y-39556D01*
X48785Y-39443D01*
X48741Y-39338D01*
X48661Y-39258D01*
X48556Y-39215D01*
X48443Y-39214D01*
X48338Y-39258D01*
X48258Y-39338D01*
X48215Y-39443D01*
X48214Y-39516D01*
X48171Y-39560D01*
X47963Y-39560D01*
X47911Y-39508D01*
X47806Y-39465D01*
X47693Y-39464D01*
X47690Y-39466D01*
X47690Y-38750D01*
X47675Y-38677D01*
X47634Y-38615D01*
X47634Y-38615D01*
X47440Y-38421D01*
X47440Y-35963D01*
X47491Y-35911D01*
X47534Y-35806D01*
X47534Y-35803D01*
X48215Y-36483D01*
X48214Y-36556D01*
X48258Y-36661D01*
X48338Y-36741D01*
X48443Y-36784D01*
X48556Y-36785D01*
X48661Y-36741D01*
X48741Y-36661D01*
X48784Y-36556D01*
X48785Y-36443D01*
X48741Y-36338D01*
X48661Y-36258D01*
X48556Y-36215D01*
X48483Y-36214D01*
X47690Y-35421D01*
X47690Y-34463D01*
X47741Y-34411D01*
X47784Y-34306D01*
X47785Y-34193D01*
X47741Y-34088D01*
X47661Y-34008D01*
X47556Y-33965D01*
X47535Y-33965D01*
X47535Y-31443D01*
X47491Y-31338D01*
X47411Y-31258D01*
X47306Y-31215D01*
X47193Y-31214D01*
X47088Y-31258D01*
X47085Y-31261D01*
X47085Y-30543D01*
X47041Y-30438D01*
X46961Y-30358D01*
X46856Y-30315D01*
X46743Y-30314D01*
X46638Y-30358D01*
X46558Y-30438D01*
X46515Y-30543D01*
X46515Y-30588D01*
X46313Y-30790D01*
X46093Y-30790D01*
X46061Y-30758D01*
X45956Y-30715D01*
X45843Y-30714D01*
X45738Y-30758D01*
X45658Y-30838D01*
X45615Y-30943D01*
X45614Y-31056D01*
X45658Y-31161D01*
X45738Y-31241D01*
X45843Y-31284D01*
X45956Y-31285D01*
X46061Y-31241D01*
X46093Y-31210D01*
X46400Y-31210D01*
X46480Y-31194D01*
X46548Y-31148D01*
X46811Y-30885D01*
X46856Y-30885D01*
X46961Y-30841D01*
X47041Y-30761D01*
X47084Y-30656D01*
X47085Y-30543D01*
X47085Y-31261D01*
X47036Y-31310D01*
X45500Y-31310D01*
X45427Y-31324D01*
X45365Y-31365D01*
X45365Y-31365D01*
X45115Y-31615D01*
X45074Y-31677D01*
X45060Y-31750D01*
X45060Y-33536D01*
X45008Y-33588D01*
X44965Y-33693D01*
X44964Y-33806D01*
X45008Y-33911D01*
X45088Y-33991D01*
X45193Y-34034D01*
X45306Y-34035D01*
X45411Y-33991D01*
X45491Y-33911D01*
X45534Y-33806D01*
X45535Y-33693D01*
X45491Y-33588D01*
X45440Y-33536D01*
X45440Y-31828D01*
X45578Y-31690D01*
X47036Y-31690D01*
X47088Y-31741D01*
X47193Y-31784D01*
X47306Y-31785D01*
X47411Y-31741D01*
X47491Y-31661D01*
X47534Y-31556D01*
X47535Y-31443D01*
X47535Y-33965D01*
X47443Y-33964D01*
X47338Y-34008D01*
X47258Y-34088D01*
X47215Y-34193D01*
X47214Y-34306D01*
X47258Y-34411D01*
X47310Y-34463D01*
X47310Y-35466D01*
X47306Y-35465D01*
X47193Y-35464D01*
X47088Y-35508D01*
X47008Y-35588D01*
X46965Y-35693D01*
X46964Y-35806D01*
X47008Y-35911D01*
X47060Y-35963D01*
X47060Y-38500D01*
X47074Y-38572D01*
X47115Y-38634D01*
X47310Y-38828D01*
X47310Y-40716D01*
X47306Y-40715D01*
X47193Y-40714D01*
X47088Y-40758D01*
X47035Y-40811D01*
X47035Y-36943D01*
X46991Y-36838D01*
X46940Y-36786D01*
X46940Y-34963D01*
X46991Y-34911D01*
X47034Y-34806D01*
X47035Y-34693D01*
X46991Y-34588D01*
X46911Y-34508D01*
X46806Y-34465D01*
X46693Y-34464D01*
X46588Y-34508D01*
X46508Y-34588D01*
X46465Y-34693D01*
X46464Y-34806D01*
X46508Y-34911D01*
X46560Y-34963D01*
X46560Y-36786D01*
X46508Y-36838D01*
X46465Y-36943D01*
X46464Y-37056D01*
X46508Y-37161D01*
X46588Y-37241D01*
X46693Y-37284D01*
X46806Y-37285D01*
X46911Y-37241D01*
X46991Y-37161D01*
X47034Y-37056D01*
X47035Y-36943D01*
X47035Y-40811D01*
X47008Y-40838D01*
X46965Y-40943D01*
X46964Y-41056D01*
X47008Y-41161D01*
X47060Y-41213D01*
X47060Y-41466D01*
X47056Y-41465D01*
X46943Y-41464D01*
X46838Y-41508D01*
X46758Y-41588D01*
X46715Y-41693D01*
X46714Y-41806D01*
X46758Y-41911D01*
X46810Y-41963D01*
X46810Y-43286D01*
X46758Y-43338D01*
X46715Y-43443D01*
X46714Y-43556D01*
X46758Y-43661D01*
X46838Y-43741D01*
X46943Y-43784D01*
X47056Y-43785D01*
X47060Y-43783D01*
X47060Y-45786D01*
X47008Y-45838D01*
X46965Y-45943D01*
X46964Y-46056D01*
X47008Y-46161D01*
X47088Y-46241D01*
X47193Y-46284D01*
X47306Y-46285D01*
X47310Y-46283D01*
X47310Y-48171D01*
X46035Y-49446D01*
X46035Y-49443D01*
X45991Y-49338D01*
X45940Y-49286D01*
X45940Y-35713D01*
X45991Y-35661D01*
X46034Y-35556D01*
X46035Y-35443D01*
X45991Y-35338D01*
X45911Y-35258D01*
X45806Y-35215D01*
X45693Y-35214D01*
X45588Y-35258D01*
X45508Y-35338D01*
X45465Y-35443D01*
X45464Y-35556D01*
X45508Y-35661D01*
X45560Y-35713D01*
X45560Y-49286D01*
X45508Y-49338D01*
X45465Y-49443D01*
X45464Y-49556D01*
X45508Y-49661D01*
X45588Y-49741D01*
X45693Y-49784D01*
X45806Y-49785D01*
X45810Y-49783D01*
X45810Y-50074D01*
X45695Y-50074D01*
X45640Y-50097D01*
X45597Y-50139D01*
X45575Y-50195D01*
X45574Y-50254D01*
X45574Y-50804D01*
X45585Y-50830D01*
X45035Y-50830D01*
X45035Y-42443D01*
X44991Y-42338D01*
X44940Y-42286D01*
X44940Y-41463D01*
X44991Y-41411D01*
X45034Y-41306D01*
X45035Y-41193D01*
X44991Y-41088D01*
X44911Y-41008D01*
X44806Y-40965D01*
X44693Y-40964D01*
X44588Y-41008D01*
X44508Y-41088D01*
X44465Y-41193D01*
X44464Y-41306D01*
X44508Y-41411D01*
X44560Y-41463D01*
X44560Y-42286D01*
X44508Y-42338D01*
X44465Y-42443D01*
X44464Y-42556D01*
X44508Y-42661D01*
X44588Y-42741D01*
X44693Y-42784D01*
X44806Y-42785D01*
X44911Y-42741D01*
X44991Y-42661D01*
X45034Y-42556D01*
X45035Y-42443D01*
X45035Y-50830D01*
X44535Y-50830D01*
X44535Y-43193D01*
X44491Y-43088D01*
X44440Y-43036D01*
X44440Y-41963D01*
X44491Y-41911D01*
X44534Y-41806D01*
X44535Y-41693D01*
X44491Y-41588D01*
X44411Y-41508D01*
X44306Y-41465D01*
X44193Y-41464D01*
X44088Y-41508D01*
X44008Y-41588D01*
X43965Y-41693D01*
X43964Y-41806D01*
X44008Y-41911D01*
X44060Y-41963D01*
X44060Y-43036D01*
X44008Y-43088D01*
X43965Y-43193D01*
X43964Y-43306D01*
X44008Y-43411D01*
X44088Y-43491D01*
X44193Y-43534D01*
X44306Y-43535D01*
X44411Y-43491D01*
X44491Y-43411D01*
X44534Y-43306D01*
X44535Y-43193D01*
X44535Y-50830D01*
X44414Y-50830D01*
X44424Y-50804D01*
X44425Y-50745D01*
X44425Y-50195D01*
X44402Y-50140D01*
X44360Y-50097D01*
X44304Y-50075D01*
X44245Y-50074D01*
X43695Y-50074D01*
X43640Y-50097D01*
X43597Y-50139D01*
X43575Y-50195D01*
X43574Y-50254D01*
X43574Y-50804D01*
X43585Y-50830D01*
X43100Y-50830D01*
X43100Y-43831D01*
X43100Y-33081D01*
X42971Y-32769D01*
X42732Y-32529D01*
X42419Y-32400D01*
X42081Y-32399D01*
X41769Y-32528D01*
X41529Y-32767D01*
X41400Y-33080D01*
X41399Y-33418D01*
X41528Y-33730D01*
X41767Y-33970D01*
X42080Y-34099D01*
X42418Y-34100D01*
X42730Y-33971D01*
X42970Y-33732D01*
X43099Y-33419D01*
X43100Y-33081D01*
X43100Y-43831D01*
X42971Y-43519D01*
X42732Y-43279D01*
X42419Y-43150D01*
X42081Y-43149D01*
X41769Y-43278D01*
X41529Y-43517D01*
X41400Y-43830D01*
X41399Y-44168D01*
X41528Y-44480D01*
X41767Y-44720D01*
X42080Y-44849D01*
X42418Y-44850D01*
X42730Y-44721D01*
X42970Y-44482D01*
X43099Y-44169D01*
X43100Y-43831D01*
X43100Y-50830D01*
X42414Y-50830D01*
X42424Y-50804D01*
X42425Y-50745D01*
X42425Y-50195D01*
X42402Y-50140D01*
X42360Y-50097D01*
X42304Y-50075D01*
X42245Y-50074D01*
X41695Y-50074D01*
X41640Y-50097D01*
X41597Y-50139D01*
X41575Y-50195D01*
X41574Y-50254D01*
X41574Y-50804D01*
X41585Y-50830D01*
X39550Y-50830D01*
X39550Y-47750D01*
X39550Y-44229D01*
X38570Y-43250D01*
X39007Y-43250D01*
X39062Y-43227D01*
X39105Y-43185D01*
X39127Y-43129D01*
X39127Y-43070D01*
X39127Y-42370D01*
X39105Y-42315D01*
X39063Y-42272D01*
X39007Y-42250D01*
X38948Y-42249D01*
X38550Y-42249D01*
X38550Y-42020D01*
X40050Y-40520D01*
X40050Y-30229D01*
X39994Y-30173D01*
X40099Y-29919D01*
X40100Y-29581D01*
X39971Y-29269D01*
X39732Y-29029D01*
X39419Y-28900D01*
X39081Y-28899D01*
X38826Y-29005D01*
X38520Y-28700D01*
X36479Y-28700D01*
X35950Y-29229D01*
X35950Y-34000D01*
X35773Y-33999D01*
X35589Y-34075D01*
X35448Y-34216D01*
X35372Y-34400D01*
X35371Y-34599D01*
X35447Y-34782D01*
X35588Y-34923D01*
X35772Y-34999D01*
X35950Y-35000D01*
X35950Y-39229D01*
X34950Y-40229D01*
X34950Y-45520D01*
X35464Y-46035D01*
X35700Y-46270D01*
X35700Y-47520D01*
X36464Y-48285D01*
X36700Y-48520D01*
X36700Y-49250D01*
X36700Y-50000D01*
X36700Y-50830D01*
X33100Y-50830D01*
X33100Y-43831D01*
X33100Y-33081D01*
X32971Y-32769D01*
X32732Y-32529D01*
X32419Y-32400D01*
X32081Y-32399D01*
X31769Y-32528D01*
X31529Y-32767D01*
X31400Y-33080D01*
X31399Y-33418D01*
X31528Y-33730D01*
X31767Y-33970D01*
X32080Y-34099D01*
X32418Y-34100D01*
X32730Y-33971D01*
X32970Y-33732D01*
X33099Y-33419D01*
X33100Y-33081D01*
X33100Y-43831D01*
X32971Y-43519D01*
X32732Y-43279D01*
X32419Y-43150D01*
X32081Y-43149D01*
X31769Y-43278D01*
X31529Y-43517D01*
X31400Y-43830D01*
X31399Y-44168D01*
X31528Y-44480D01*
X31767Y-44720D01*
X32080Y-44849D01*
X32418Y-44850D01*
X32730Y-44721D01*
X32970Y-44482D01*
X33099Y-44169D01*
X33100Y-43831D01*
X33100Y-50830D01*
X29517Y-50830D01*
X29375Y-50802D01*
X29268Y-50730D01*
X29197Y-50624D01*
X29166Y-50467D01*
X29166Y-50466D01*
X29147Y-50371D01*
X29147Y-50371D01*
X29122Y-50309D01*
X29067Y-50228D01*
X29050Y-50211D01*
X29050Y-50000D01*
X29050Y-49940D01*
X29050Y-49940D01*
X29050Y-49500D01*
X29050Y-49440D01*
X29050Y-49440D01*
X29050Y-49000D01*
X29050Y-48940D01*
X29050Y-48940D01*
X29050Y-48788D01*
X29067Y-48771D01*
X29122Y-48690D01*
X29147Y-48628D01*
X29147Y-48628D01*
X29166Y-48532D01*
X29166Y-48516D01*
X29169Y-48500D01*
X29169Y-29016D01*
X29197Y-28875D01*
X29268Y-28769D01*
X29375Y-28697D01*
X29517Y-28669D01*
X40500Y-28669D01*
X40516Y-28666D01*
X40532Y-28666D01*
X40628Y-28647D01*
X40689Y-28622D01*
X40690Y-28621D01*
X40770Y-28568D01*
X40770Y-28567D01*
X40788Y-28550D01*
X40999Y-28550D01*
X41059Y-28550D01*
X41059Y-28550D01*
X41499Y-28550D01*
X41559Y-28550D01*
X41559Y-28550D01*
X41999Y-28550D01*
X42059Y-28550D01*
X42059Y-28550D01*
X42211Y-28550D01*
X42228Y-28567D01*
X42309Y-28622D01*
X42371Y-28647D01*
X42371Y-28647D01*
X42467Y-28666D01*
X42483Y-28666D01*
X42500Y-28669D01*
X52483Y-28669D01*
X52624Y-28697D01*
X52730Y-28768D01*
X52802Y-28875D01*
X52830Y-29017D01*
X52830Y-50482D01*
G54D10*
G36*
X39700Y-34729D02*
X39479Y-34950D01*
X38300Y-34950D01*
X38300Y-34229D01*
X37770Y-33700D01*
X36520Y-33700D01*
X36300Y-33479D01*
X36300Y-29270D01*
X36520Y-29050D01*
X38479Y-29050D01*
X38613Y-29184D01*
X38529Y-29267D01*
X38400Y-29580D01*
X38399Y-29918D01*
X38528Y-30230D01*
X38767Y-30470D01*
X39080Y-30599D01*
X39418Y-30600D01*
X39700Y-30483D01*
X39700Y-34729D01*
X39700Y-34729D01*
G37*
G54D28*
X39700Y-34729D02*
X39479Y-34950D01*
X38300Y-34950D01*
X38300Y-34229D01*
X37770Y-33700D01*
X36520Y-33700D01*
X36300Y-33479D01*
X36300Y-29270D01*
X36520Y-29050D01*
X38479Y-29050D01*
X38613Y-29184D01*
X38529Y-29267D01*
X38400Y-29580D01*
X38399Y-29918D01*
X38528Y-30230D01*
X38767Y-30470D01*
X39080Y-30599D01*
X39418Y-30600D01*
X39700Y-30483D01*
X39700Y-34729D01*
G54D10*
G36*
X39700Y-37479D02*
X39479Y-37700D01*
X37250Y-37700D01*
X36520Y-37700D01*
X36300Y-37479D01*
X36300Y-34773D01*
X36371Y-34599D01*
X36372Y-34400D01*
X36312Y-34257D01*
X36520Y-34050D01*
X37729Y-34050D01*
X37950Y-34270D01*
X37950Y-35020D01*
X38229Y-35300D01*
X39479Y-35300D01*
X39700Y-35520D01*
X39700Y-37479D01*
X39700Y-37479D01*
G37*
G54D28*
X39700Y-37479D02*
X39479Y-37700D01*
X37250Y-37700D01*
X36520Y-37700D01*
X36300Y-37479D01*
X36300Y-34773D01*
X36371Y-34599D01*
X36372Y-34400D01*
X36312Y-34257D01*
X36520Y-34050D01*
X37729Y-34050D01*
X37950Y-34270D01*
X37950Y-35020D01*
X38229Y-35300D01*
X39479Y-35300D01*
X39700Y-35520D01*
X39700Y-37479D01*
G54D10*
G36*
X39700Y-40479D02*
X38729Y-41450D01*
X35770Y-41450D01*
X35300Y-40979D01*
X35300Y-40270D01*
X36300Y-39270D01*
X36300Y-38270D01*
X36520Y-38050D01*
X37250Y-38050D01*
X39479Y-38050D01*
X39700Y-38270D01*
X39700Y-40479D01*
X39700Y-40479D01*
G37*
G54D28*
X39700Y-40479D02*
X38729Y-41450D01*
X35770Y-41450D01*
X35300Y-40979D01*
X35300Y-40270D01*
X36300Y-39270D01*
X36300Y-38270D01*
X36520Y-38050D01*
X37250Y-38050D01*
X39479Y-38050D01*
X39700Y-38270D01*
X39700Y-40479D01*
G54D10*
G36*
X18885Y-42646D02*
X20369Y-44130D01*
X20429Y-44170D01*
X20500Y-44185D01*
X21049Y-44185D01*
X21049Y-44329D01*
X21050Y-44330D01*
X20500Y-44330D01*
X20483Y-44333D01*
X20467Y-44333D01*
X20371Y-44352D01*
X20371Y-44352D01*
X20309Y-44377D01*
X20228Y-44432D01*
X20182Y-44479D01*
X20181Y-44479D01*
X20128Y-44559D01*
X20127Y-44560D01*
X20102Y-44621D01*
X20083Y-44716D01*
X20083Y-44717D01*
X20071Y-44779D01*
X20054Y-44804D01*
X20029Y-44821D01*
X19983Y-44830D01*
X18950Y-44830D01*
X18950Y-43970D01*
X18927Y-43915D01*
X18885Y-43872D01*
X18829Y-43850D01*
X18825Y-43850D01*
X18825Y-43785D01*
X18807Y-43741D01*
X18930Y-43742D01*
X19050Y-43692D01*
X19143Y-43600D01*
X19192Y-43480D01*
X19193Y-43350D01*
X19143Y-43230D01*
X19051Y-43137D01*
X18931Y-43088D01*
X18859Y-43087D01*
X18870Y-43070D01*
X18885Y-43000D01*
X18885Y-42646D01*
X18885Y-42646D01*
G37*
G54D28*
X18885Y-42646D02*
X20369Y-44130D01*
X20429Y-44170D01*
X20500Y-44185D01*
X21049Y-44185D01*
X21049Y-44329D01*
X21050Y-44330D01*
X20500Y-44330D01*
X20483Y-44333D01*
X20467Y-44333D01*
X20371Y-44352D01*
X20371Y-44352D01*
X20309Y-44377D01*
X20228Y-44432D01*
X20182Y-44479D01*
X20181Y-44479D01*
X20128Y-44559D01*
X20127Y-44560D01*
X20102Y-44621D01*
X20083Y-44716D01*
X20083Y-44717D01*
X20071Y-44779D01*
X20054Y-44804D01*
X20029Y-44821D01*
X19983Y-44830D01*
X18950Y-44830D01*
X18950Y-43970D01*
X18927Y-43915D01*
X18885Y-43872D01*
X18829Y-43850D01*
X18825Y-43850D01*
X18825Y-43785D01*
X18807Y-43741D01*
X18930Y-43742D01*
X19050Y-43692D01*
X19143Y-43600D01*
X19192Y-43480D01*
X19193Y-43350D01*
X19143Y-43230D01*
X19051Y-43137D01*
X18931Y-43088D01*
X18859Y-43087D01*
X18870Y-43070D01*
X18885Y-43000D01*
X18885Y-42646D01*
G54D10*
G36*
X21049Y-36061D02*
X21049Y-36329D01*
X21072Y-36384D01*
X21114Y-36427D01*
X21170Y-36449D01*
X21229Y-36450D01*
X21830Y-36450D01*
X21830Y-36549D01*
X21170Y-36549D01*
X21115Y-36572D01*
X21072Y-36614D01*
X21050Y-36670D01*
X21049Y-36729D01*
X21049Y-36848D01*
X21019Y-36869D01*
X21019Y-36869D01*
X20619Y-37269D01*
X20579Y-37329D01*
X20565Y-37400D01*
X20565Y-40174D01*
X20535Y-40174D01*
X20416Y-40224D01*
X20324Y-40315D01*
X20275Y-40435D01*
X20274Y-40564D01*
X20324Y-40683D01*
X20415Y-40775D01*
X20535Y-40824D01*
X20664Y-40825D01*
X20765Y-40783D01*
X20765Y-41173D01*
X20713Y-41225D01*
X20585Y-41224D01*
X20466Y-41274D01*
X20374Y-41365D01*
X20325Y-41485D01*
X20324Y-41614D01*
X20374Y-41733D01*
X20465Y-41825D01*
X20585Y-41874D01*
X20714Y-41875D01*
X20815Y-41833D01*
X20815Y-42223D01*
X20669Y-42369D01*
X20629Y-42429D01*
X20615Y-42500D01*
X20615Y-42923D01*
X20573Y-42965D01*
X20322Y-42965D01*
X19485Y-42127D01*
X19485Y-39500D01*
X19484Y-39500D01*
X19470Y-39429D01*
X19430Y-39369D01*
X19185Y-39123D01*
X19185Y-38596D01*
X19219Y-38630D01*
X19279Y-38670D01*
X19350Y-38685D01*
X19375Y-38685D01*
X19465Y-38775D01*
X19585Y-38824D01*
X19714Y-38825D01*
X19833Y-38775D01*
X19925Y-38684D01*
X19974Y-38564D01*
X19975Y-38435D01*
X19925Y-38316D01*
X19834Y-38224D01*
X19714Y-38175D01*
X19585Y-38174D01*
X19466Y-38224D01*
X19400Y-38289D01*
X19335Y-38223D01*
X19335Y-37900D01*
X19334Y-37900D01*
X19320Y-37829D01*
X19280Y-37769D01*
X18835Y-37323D01*
X18835Y-37100D01*
X18834Y-37100D01*
X18820Y-37029D01*
X18780Y-36969D01*
X18336Y-36525D01*
X18364Y-36525D01*
X18483Y-36475D01*
X18524Y-36434D01*
X18565Y-36475D01*
X18685Y-36524D01*
X18814Y-36525D01*
X18933Y-36475D01*
X18974Y-36434D01*
X19015Y-36475D01*
X19135Y-36524D01*
X19264Y-36525D01*
X19383Y-36475D01*
X19474Y-36385D01*
X20650Y-36385D01*
X20720Y-36370D01*
X20780Y-36330D01*
X21049Y-36061D01*
X21049Y-36061D01*
G37*
G54D28*
X21049Y-36061D02*
X21049Y-36329D01*
X21072Y-36384D01*
X21114Y-36427D01*
X21170Y-36449D01*
X21229Y-36450D01*
X21830Y-36450D01*
X21830Y-36549D01*
X21170Y-36549D01*
X21115Y-36572D01*
X21072Y-36614D01*
X21050Y-36670D01*
X21049Y-36729D01*
X21049Y-36848D01*
X21019Y-36869D01*
X21019Y-36869D01*
X20619Y-37269D01*
X20579Y-37329D01*
X20565Y-37400D01*
X20565Y-40174D01*
X20535Y-40174D01*
X20416Y-40224D01*
X20324Y-40315D01*
X20275Y-40435D01*
X20274Y-40564D01*
X20324Y-40683D01*
X20415Y-40775D01*
X20535Y-40824D01*
X20664Y-40825D01*
X20765Y-40783D01*
X20765Y-41173D01*
X20713Y-41225D01*
X20585Y-41224D01*
X20466Y-41274D01*
X20374Y-41365D01*
X20325Y-41485D01*
X20324Y-41614D01*
X20374Y-41733D01*
X20465Y-41825D01*
X20585Y-41874D01*
X20714Y-41875D01*
X20815Y-41833D01*
X20815Y-42223D01*
X20669Y-42369D01*
X20629Y-42429D01*
X20615Y-42500D01*
X20615Y-42923D01*
X20573Y-42965D01*
X20322Y-42965D01*
X19485Y-42127D01*
X19485Y-39500D01*
X19484Y-39500D01*
X19470Y-39429D01*
X19430Y-39369D01*
X19185Y-39123D01*
X19185Y-38596D01*
X19219Y-38630D01*
X19279Y-38670D01*
X19350Y-38685D01*
X19375Y-38685D01*
X19465Y-38775D01*
X19585Y-38824D01*
X19714Y-38825D01*
X19833Y-38775D01*
X19925Y-38684D01*
X19974Y-38564D01*
X19975Y-38435D01*
X19925Y-38316D01*
X19834Y-38224D01*
X19714Y-38175D01*
X19585Y-38174D01*
X19466Y-38224D01*
X19400Y-38289D01*
X19335Y-38223D01*
X19335Y-37900D01*
X19334Y-37900D01*
X19320Y-37829D01*
X19280Y-37769D01*
X18835Y-37323D01*
X18835Y-37100D01*
X18834Y-37100D01*
X18820Y-37029D01*
X18780Y-36969D01*
X18336Y-36525D01*
X18364Y-36525D01*
X18483Y-36475D01*
X18524Y-36434D01*
X18565Y-36475D01*
X18685Y-36524D01*
X18814Y-36525D01*
X18933Y-36475D01*
X18974Y-36434D01*
X19015Y-36475D01*
X19135Y-36524D01*
X19264Y-36525D01*
X19383Y-36475D01*
X19474Y-36385D01*
X20650Y-36385D01*
X20720Y-36370D01*
X20780Y-36330D01*
X21049Y-36061D01*
G54D10*
G36*
X15499Y-29379D02*
X15522Y-29434D01*
X15564Y-29477D01*
X15620Y-29499D01*
X15679Y-29500D01*
X15790Y-29500D01*
X15724Y-29565D01*
X15675Y-29685D01*
X15674Y-29814D01*
X15724Y-29933D01*
X15815Y-30025D01*
X15935Y-30074D01*
X15965Y-30074D01*
X15965Y-30750D01*
X15965Y-31705D01*
X15934Y-31674D01*
X15814Y-31625D01*
X15685Y-31624D01*
X15566Y-31674D01*
X15474Y-31765D01*
X15425Y-31885D01*
X15424Y-32014D01*
X15474Y-32133D01*
X15565Y-32224D01*
X15565Y-33353D01*
X15474Y-33443D01*
X15425Y-33563D01*
X15424Y-33692D01*
X15474Y-33811D01*
X15565Y-33903D01*
X15685Y-33952D01*
X15814Y-33953D01*
X15933Y-33903D01*
X15965Y-33872D01*
X15965Y-36100D01*
X15979Y-36170D01*
X16019Y-36230D01*
X18025Y-38236D01*
X18024Y-38314D01*
X18074Y-38433D01*
X18115Y-38474D01*
X18074Y-38515D01*
X18025Y-38635D01*
X18024Y-38764D01*
X18074Y-38883D01*
X18165Y-38975D01*
X18285Y-39024D01*
X18315Y-39024D01*
X18315Y-39440D01*
X18329Y-39510D01*
X18369Y-39570D01*
X18479Y-39681D01*
X18464Y-39675D01*
X18335Y-39674D01*
X18216Y-39724D01*
X18124Y-39815D01*
X18075Y-39935D01*
X18074Y-40064D01*
X18124Y-40183D01*
X18215Y-40275D01*
X18335Y-40324D01*
X18463Y-40325D01*
X18515Y-40376D01*
X18515Y-42923D01*
X18423Y-43015D01*
X17576Y-43015D01*
X17524Y-42963D01*
X17525Y-42835D01*
X17475Y-42716D01*
X17384Y-42624D01*
X17264Y-42575D01*
X17135Y-42574D01*
X17016Y-42624D01*
X16924Y-42715D01*
X16875Y-42835D01*
X16874Y-42964D01*
X16924Y-43083D01*
X16969Y-43129D01*
X16949Y-43137D01*
X16856Y-43229D01*
X16807Y-43349D01*
X16806Y-43479D01*
X16856Y-43599D01*
X16948Y-43692D01*
X17068Y-43741D01*
X17192Y-43742D01*
X17175Y-43785D01*
X17174Y-43849D01*
X17170Y-43849D01*
X17115Y-43872D01*
X17072Y-43914D01*
X17050Y-43970D01*
X17049Y-44029D01*
X17049Y-44830D01*
X16950Y-44830D01*
X16950Y-43970D01*
X16927Y-43915D01*
X16885Y-43872D01*
X16829Y-43850D01*
X16770Y-43849D01*
X16709Y-43849D01*
X16775Y-43784D01*
X16824Y-43664D01*
X16825Y-43535D01*
X16775Y-43416D01*
X16684Y-43324D01*
X16564Y-43275D01*
X16435Y-43274D01*
X16316Y-43324D01*
X16224Y-43415D01*
X16175Y-43535D01*
X16174Y-43664D01*
X16224Y-43783D01*
X16290Y-43849D01*
X16170Y-43849D01*
X16115Y-43872D01*
X16072Y-43914D01*
X16050Y-43970D01*
X16049Y-44029D01*
X16049Y-44830D01*
X16016Y-44830D01*
X15970Y-44821D01*
X15945Y-44804D01*
X15928Y-44779D01*
X15916Y-44717D01*
X15916Y-44716D01*
X15897Y-44621D01*
X15872Y-44560D01*
X15871Y-44559D01*
X15818Y-44479D01*
X15817Y-44479D01*
X15771Y-44432D01*
X15690Y-44377D01*
X15628Y-44352D01*
X15628Y-44352D01*
X15532Y-44333D01*
X15516Y-44333D01*
X15500Y-44330D01*
X14266Y-44330D01*
X14220Y-44321D01*
X14195Y-44304D01*
X14178Y-44279D01*
X14169Y-44232D01*
X14169Y-43450D01*
X14829Y-43450D01*
X14884Y-43427D01*
X14927Y-43385D01*
X14949Y-43329D01*
X14950Y-43270D01*
X14950Y-43250D01*
X15272Y-43250D01*
X15367Y-43230D01*
X15448Y-43176D01*
X16653Y-41972D01*
X16689Y-41972D01*
X16808Y-41922D01*
X16900Y-41831D01*
X16949Y-41711D01*
X16950Y-41582D01*
X16900Y-41463D01*
X16809Y-41371D01*
X16689Y-41322D01*
X16560Y-41321D01*
X16441Y-41371D01*
X16349Y-41462D01*
X16300Y-41582D01*
X16300Y-41618D01*
X15168Y-42750D01*
X14950Y-42750D01*
X14950Y-42670D01*
X14927Y-42615D01*
X14885Y-42572D01*
X14829Y-42550D01*
X14770Y-42549D01*
X14169Y-42549D01*
X14169Y-42450D01*
X14829Y-42450D01*
X14884Y-42427D01*
X14927Y-42385D01*
X14949Y-42329D01*
X14950Y-42270D01*
X14950Y-41761D01*
X15025Y-41836D01*
X15024Y-41964D01*
X15074Y-42083D01*
X15165Y-42175D01*
X15285Y-42224D01*
X15414Y-42225D01*
X15533Y-42175D01*
X15625Y-42084D01*
X15674Y-41964D01*
X15675Y-41835D01*
X15625Y-41716D01*
X15534Y-41624D01*
X15414Y-41575D01*
X15286Y-41574D01*
X14950Y-41238D01*
X14950Y-40670D01*
X14927Y-40615D01*
X14885Y-40572D01*
X14829Y-40550D01*
X14770Y-40549D01*
X14169Y-40549D01*
X14169Y-40450D01*
X14829Y-40450D01*
X14884Y-40427D01*
X14927Y-40385D01*
X14949Y-40329D01*
X14950Y-40270D01*
X14950Y-39670D01*
X14927Y-39615D01*
X14885Y-39572D01*
X14829Y-39550D01*
X14770Y-39549D01*
X14169Y-39549D01*
X14169Y-39450D01*
X14829Y-39450D01*
X14884Y-39427D01*
X14927Y-39385D01*
X14949Y-39329D01*
X14950Y-39270D01*
X14950Y-38670D01*
X14927Y-38615D01*
X14885Y-38572D01*
X14829Y-38550D01*
X14770Y-38549D01*
X14169Y-38549D01*
X14169Y-38450D01*
X14829Y-38450D01*
X14884Y-38427D01*
X14927Y-38385D01*
X14949Y-38329D01*
X14950Y-38270D01*
X14950Y-37670D01*
X14927Y-37615D01*
X14885Y-37572D01*
X14829Y-37550D01*
X14770Y-37549D01*
X14169Y-37549D01*
X14169Y-37450D01*
X14829Y-37450D01*
X14884Y-37427D01*
X14927Y-37385D01*
X14949Y-37329D01*
X14950Y-37270D01*
X14950Y-36670D01*
X14927Y-36615D01*
X14885Y-36572D01*
X14829Y-36550D01*
X14770Y-36549D01*
X14169Y-36549D01*
X14169Y-36450D01*
X14829Y-36450D01*
X14884Y-36427D01*
X14927Y-36385D01*
X14949Y-36329D01*
X14950Y-36270D01*
X14950Y-35670D01*
X14927Y-35615D01*
X14885Y-35572D01*
X14829Y-35550D01*
X14770Y-35549D01*
X14169Y-35549D01*
X14169Y-35450D01*
X14829Y-35450D01*
X14884Y-35427D01*
X14927Y-35385D01*
X14949Y-35329D01*
X14950Y-35270D01*
X14950Y-34670D01*
X14927Y-34615D01*
X14885Y-34572D01*
X14829Y-34550D01*
X14770Y-34549D01*
X14169Y-34549D01*
X14169Y-34450D01*
X14829Y-34450D01*
X14884Y-34427D01*
X14927Y-34385D01*
X14949Y-34329D01*
X14950Y-34270D01*
X14950Y-33670D01*
X14927Y-33615D01*
X14885Y-33572D01*
X14829Y-33550D01*
X14770Y-33549D01*
X14169Y-33549D01*
X14169Y-33450D01*
X14829Y-33450D01*
X14884Y-33427D01*
X14927Y-33385D01*
X14949Y-33329D01*
X14950Y-33270D01*
X14950Y-32670D01*
X14927Y-32615D01*
X14885Y-32572D01*
X14829Y-32550D01*
X14770Y-32549D01*
X14169Y-32549D01*
X14169Y-32450D01*
X14829Y-32450D01*
X14884Y-32427D01*
X14927Y-32385D01*
X14949Y-32329D01*
X14950Y-32270D01*
X14950Y-31670D01*
X14927Y-31615D01*
X14885Y-31572D01*
X14829Y-31550D01*
X14770Y-31549D01*
X14169Y-31549D01*
X14169Y-31450D01*
X14829Y-31450D01*
X14884Y-31427D01*
X14927Y-31385D01*
X14949Y-31329D01*
X14950Y-31270D01*
X14950Y-30670D01*
X14927Y-30615D01*
X14885Y-30572D01*
X14829Y-30550D01*
X14770Y-30549D01*
X14169Y-30549D01*
X14169Y-30450D01*
X14829Y-30450D01*
X14884Y-30427D01*
X14927Y-30385D01*
X14949Y-30329D01*
X14950Y-30270D01*
X14950Y-29911D01*
X14975Y-29936D01*
X14974Y-30064D01*
X15024Y-30183D01*
X15115Y-30275D01*
X15235Y-30324D01*
X15364Y-30325D01*
X15483Y-30275D01*
X15575Y-30184D01*
X15624Y-30064D01*
X15625Y-29935D01*
X15575Y-29816D01*
X15484Y-29724D01*
X15364Y-29675D01*
X15236Y-29674D01*
X15185Y-29623D01*
X15185Y-29500D01*
X15379Y-29500D01*
X15434Y-29477D01*
X15477Y-29435D01*
X15499Y-29379D01*
X15499Y-29379D01*
X15499Y-29379D01*
G37*
G54D28*
X15499Y-29379D02*
X15522Y-29434D01*
X15564Y-29477D01*
X15620Y-29499D01*
X15679Y-29500D01*
X15790Y-29500D01*
X15724Y-29565D01*
X15675Y-29685D01*
X15674Y-29814D01*
X15724Y-29933D01*
X15815Y-30025D01*
X15935Y-30074D01*
X15965Y-30074D01*
X15965Y-30750D01*
X15965Y-31705D01*
X15934Y-31674D01*
X15814Y-31625D01*
X15685Y-31624D01*
X15566Y-31674D01*
X15474Y-31765D01*
X15425Y-31885D01*
X15424Y-32014D01*
X15474Y-32133D01*
X15565Y-32224D01*
X15565Y-33353D01*
X15474Y-33443D01*
X15425Y-33563D01*
X15424Y-33692D01*
X15474Y-33811D01*
X15565Y-33903D01*
X15685Y-33952D01*
X15814Y-33953D01*
X15933Y-33903D01*
X15965Y-33872D01*
X15965Y-36100D01*
X15979Y-36170D01*
X16019Y-36230D01*
X18025Y-38236D01*
X18024Y-38314D01*
X18074Y-38433D01*
X18115Y-38474D01*
X18074Y-38515D01*
X18025Y-38635D01*
X18024Y-38764D01*
X18074Y-38883D01*
X18165Y-38975D01*
X18285Y-39024D01*
X18315Y-39024D01*
X18315Y-39440D01*
X18329Y-39510D01*
X18369Y-39570D01*
X18479Y-39681D01*
X18464Y-39675D01*
X18335Y-39674D01*
X18216Y-39724D01*
X18124Y-39815D01*
X18075Y-39935D01*
X18074Y-40064D01*
X18124Y-40183D01*
X18215Y-40275D01*
X18335Y-40324D01*
X18463Y-40325D01*
X18515Y-40376D01*
X18515Y-42923D01*
X18423Y-43015D01*
X17576Y-43015D01*
X17524Y-42963D01*
X17525Y-42835D01*
X17475Y-42716D01*
X17384Y-42624D01*
X17264Y-42575D01*
X17135Y-42574D01*
X17016Y-42624D01*
X16924Y-42715D01*
X16875Y-42835D01*
X16874Y-42964D01*
X16924Y-43083D01*
X16969Y-43129D01*
X16949Y-43137D01*
X16856Y-43229D01*
X16807Y-43349D01*
X16806Y-43479D01*
X16856Y-43599D01*
X16948Y-43692D01*
X17068Y-43741D01*
X17192Y-43742D01*
X17175Y-43785D01*
X17174Y-43849D01*
X17170Y-43849D01*
X17115Y-43872D01*
X17072Y-43914D01*
X17050Y-43970D01*
X17049Y-44029D01*
X17049Y-44830D01*
X16950Y-44830D01*
X16950Y-43970D01*
X16927Y-43915D01*
X16885Y-43872D01*
X16829Y-43850D01*
X16770Y-43849D01*
X16709Y-43849D01*
X16775Y-43784D01*
X16824Y-43664D01*
X16825Y-43535D01*
X16775Y-43416D01*
X16684Y-43324D01*
X16564Y-43275D01*
X16435Y-43274D01*
X16316Y-43324D01*
X16224Y-43415D01*
X16175Y-43535D01*
X16174Y-43664D01*
X16224Y-43783D01*
X16290Y-43849D01*
X16170Y-43849D01*
X16115Y-43872D01*
X16072Y-43914D01*
X16050Y-43970D01*
X16049Y-44029D01*
X16049Y-44830D01*
X16016Y-44830D01*
X15970Y-44821D01*
X15945Y-44804D01*
X15928Y-44779D01*
X15916Y-44717D01*
X15916Y-44716D01*
X15897Y-44621D01*
X15872Y-44560D01*
X15871Y-44559D01*
X15818Y-44479D01*
X15817Y-44479D01*
X15771Y-44432D01*
X15690Y-44377D01*
X15628Y-44352D01*
X15628Y-44352D01*
X15532Y-44333D01*
X15516Y-44333D01*
X15500Y-44330D01*
X14266Y-44330D01*
X14220Y-44321D01*
X14195Y-44304D01*
X14178Y-44279D01*
X14169Y-44232D01*
X14169Y-43450D01*
X14829Y-43450D01*
X14884Y-43427D01*
X14927Y-43385D01*
X14949Y-43329D01*
X14950Y-43270D01*
X14950Y-43250D01*
X15272Y-43250D01*
X15367Y-43230D01*
X15448Y-43176D01*
X16653Y-41972D01*
X16689Y-41972D01*
X16808Y-41922D01*
X16900Y-41831D01*
X16949Y-41711D01*
X16950Y-41582D01*
X16900Y-41463D01*
X16809Y-41371D01*
X16689Y-41322D01*
X16560Y-41321D01*
X16441Y-41371D01*
X16349Y-41462D01*
X16300Y-41582D01*
X16300Y-41618D01*
X15168Y-42750D01*
X14950Y-42750D01*
X14950Y-42670D01*
X14927Y-42615D01*
X14885Y-42572D01*
X14829Y-42550D01*
X14770Y-42549D01*
X14169Y-42549D01*
X14169Y-42450D01*
X14829Y-42450D01*
X14884Y-42427D01*
X14927Y-42385D01*
X14949Y-42329D01*
X14950Y-42270D01*
X14950Y-41761D01*
X15025Y-41836D01*
X15024Y-41964D01*
X15074Y-42083D01*
X15165Y-42175D01*
X15285Y-42224D01*
X15414Y-42225D01*
X15533Y-42175D01*
X15625Y-42084D01*
X15674Y-41964D01*
X15675Y-41835D01*
X15625Y-41716D01*
X15534Y-41624D01*
X15414Y-41575D01*
X15286Y-41574D01*
X14950Y-41238D01*
X14950Y-40670D01*
X14927Y-40615D01*
X14885Y-40572D01*
X14829Y-40550D01*
X14770Y-40549D01*
X14169Y-40549D01*
X14169Y-40450D01*
X14829Y-40450D01*
X14884Y-40427D01*
X14927Y-40385D01*
X14949Y-40329D01*
X14950Y-40270D01*
X14950Y-39670D01*
X14927Y-39615D01*
X14885Y-39572D01*
X14829Y-39550D01*
X14770Y-39549D01*
X14169Y-39549D01*
X14169Y-39450D01*
X14829Y-39450D01*
X14884Y-39427D01*
X14927Y-39385D01*
X14949Y-39329D01*
X14950Y-39270D01*
X14950Y-38670D01*
X14927Y-38615D01*
X14885Y-38572D01*
X14829Y-38550D01*
X14770Y-38549D01*
X14169Y-38549D01*
X14169Y-38450D01*
X14829Y-38450D01*
X14884Y-38427D01*
X14927Y-38385D01*
X14949Y-38329D01*
X14950Y-38270D01*
X14950Y-37670D01*
X14927Y-37615D01*
X14885Y-37572D01*
X14829Y-37550D01*
X14770Y-37549D01*
X14169Y-37549D01*
X14169Y-37450D01*
X14829Y-37450D01*
X14884Y-37427D01*
X14927Y-37385D01*
X14949Y-37329D01*
X14950Y-37270D01*
X14950Y-36670D01*
X14927Y-36615D01*
X14885Y-36572D01*
X14829Y-36550D01*
X14770Y-36549D01*
X14169Y-36549D01*
X14169Y-36450D01*
X14829Y-36450D01*
X14884Y-36427D01*
X14927Y-36385D01*
X14949Y-36329D01*
X14950Y-36270D01*
X14950Y-35670D01*
X14927Y-35615D01*
X14885Y-35572D01*
X14829Y-35550D01*
X14770Y-35549D01*
X14169Y-35549D01*
X14169Y-35450D01*
X14829Y-35450D01*
X14884Y-35427D01*
X14927Y-35385D01*
X14949Y-35329D01*
X14950Y-35270D01*
X14950Y-34670D01*
X14927Y-34615D01*
X14885Y-34572D01*
X14829Y-34550D01*
X14770Y-34549D01*
X14169Y-34549D01*
X14169Y-34450D01*
X14829Y-34450D01*
X14884Y-34427D01*
X14927Y-34385D01*
X14949Y-34329D01*
X14950Y-34270D01*
X14950Y-33670D01*
X14927Y-33615D01*
X14885Y-33572D01*
X14829Y-33550D01*
X14770Y-33549D01*
X14169Y-33549D01*
X14169Y-33450D01*
X14829Y-33450D01*
X14884Y-33427D01*
X14927Y-33385D01*
X14949Y-33329D01*
X14950Y-33270D01*
X14950Y-32670D01*
X14927Y-32615D01*
X14885Y-32572D01*
X14829Y-32550D01*
X14770Y-32549D01*
X14169Y-32549D01*
X14169Y-32450D01*
X14829Y-32450D01*
X14884Y-32427D01*
X14927Y-32385D01*
X14949Y-32329D01*
X14950Y-32270D01*
X14950Y-31670D01*
X14927Y-31615D01*
X14885Y-31572D01*
X14829Y-31550D01*
X14770Y-31549D01*
X14169Y-31549D01*
X14169Y-31450D01*
X14829Y-31450D01*
X14884Y-31427D01*
X14927Y-31385D01*
X14949Y-31329D01*
X14950Y-31270D01*
X14950Y-30670D01*
X14927Y-30615D01*
X14885Y-30572D01*
X14829Y-30550D01*
X14770Y-30549D01*
X14169Y-30549D01*
X14169Y-30450D01*
X14829Y-30450D01*
X14884Y-30427D01*
X14927Y-30385D01*
X14949Y-30329D01*
X14950Y-30270D01*
X14950Y-29911D01*
X14975Y-29936D01*
X14974Y-30064D01*
X15024Y-30183D01*
X15115Y-30275D01*
X15235Y-30324D01*
X15364Y-30325D01*
X15483Y-30275D01*
X15575Y-30184D01*
X15624Y-30064D01*
X15625Y-29935D01*
X15575Y-29816D01*
X15484Y-29724D01*
X15364Y-29675D01*
X15236Y-29674D01*
X15185Y-29623D01*
X15185Y-29500D01*
X15379Y-29500D01*
X15434Y-29477D01*
X15477Y-29435D01*
X15499Y-29379D01*
X15499Y-29379D01*
G54D10*
G36*
X21732Y-28669D02*
X21779Y-28678D01*
X21804Y-28695D01*
X21821Y-28720D01*
X21830Y-28766D01*
X21830Y-29549D01*
X21170Y-29549D01*
X21115Y-29572D01*
X21072Y-29614D01*
X21050Y-29670D01*
X21049Y-29724D01*
X17885Y-29724D01*
X17766Y-29774D01*
X17674Y-29865D01*
X17625Y-29985D01*
X17624Y-30114D01*
X17674Y-30233D01*
X17765Y-30325D01*
X17885Y-30374D01*
X18014Y-30375D01*
X18133Y-30325D01*
X18224Y-30235D01*
X19425Y-30235D01*
X19424Y-30314D01*
X19474Y-30433D01*
X19565Y-30525D01*
X19685Y-30574D01*
X19814Y-30575D01*
X19933Y-30525D01*
X20025Y-30434D01*
X20074Y-30314D01*
X20075Y-30185D01*
X20025Y-30066D01*
X19934Y-29974D01*
X19814Y-29925D01*
X19686Y-29924D01*
X19680Y-29919D01*
X19680Y-29919D01*
X19620Y-29879D01*
X19550Y-29865D01*
X19550Y-29865D01*
X18224Y-29865D01*
X18134Y-29774D01*
X18014Y-29725D01*
X17885Y-29724D01*
X21049Y-29724D01*
X21049Y-29729D01*
X21049Y-30329D01*
X21072Y-30384D01*
X21114Y-30427D01*
X21170Y-30449D01*
X21229Y-30450D01*
X21830Y-30450D01*
X21830Y-30549D01*
X21170Y-30549D01*
X21115Y-30572D01*
X21072Y-30614D01*
X21050Y-30670D01*
X21049Y-30729D01*
X21049Y-30815D01*
X20950Y-30815D01*
X20879Y-30829D01*
X20819Y-30869D01*
X20819Y-30869D01*
X20569Y-31119D01*
X20529Y-31179D01*
X20515Y-31250D01*
X20515Y-31495D01*
X20464Y-31475D01*
X20335Y-31474D01*
X20216Y-31524D01*
X20124Y-31615D01*
X20075Y-31735D01*
X20075Y-31735D01*
X20025Y-31616D01*
X19934Y-31524D01*
X19814Y-31475D01*
X19736Y-31474D01*
X19630Y-31369D01*
X19630Y-31369D01*
X19570Y-31329D01*
X19500Y-31315D01*
X19500Y-31315D01*
X18500Y-31315D01*
X18429Y-31329D01*
X18369Y-31369D01*
X18369Y-31369D01*
X18269Y-31469D01*
X18269Y-31469D01*
X18269Y-31469D01*
X18173Y-31565D01*
X17800Y-31565D01*
X17729Y-31579D01*
X17669Y-31619D01*
X17669Y-31619D01*
X17363Y-31925D01*
X17235Y-31924D01*
X17116Y-31974D01*
X17024Y-32065D01*
X16975Y-32185D01*
X16974Y-32314D01*
X17024Y-32433D01*
X17115Y-32525D01*
X17235Y-32574D01*
X17364Y-32575D01*
X17483Y-32525D01*
X17550Y-32459D01*
X17615Y-32525D01*
X17735Y-32574D01*
X17864Y-32575D01*
X17983Y-32525D01*
X18075Y-32434D01*
X18124Y-32314D01*
X18125Y-32186D01*
X18126Y-32185D01*
X18150Y-32185D01*
X19000Y-32185D01*
X19173Y-32185D01*
X19915Y-32926D01*
X19915Y-33250D01*
X19915Y-35023D01*
X19823Y-35115D01*
X17800Y-35115D01*
X17729Y-35129D01*
X17669Y-35169D01*
X17669Y-35169D01*
X17313Y-35524D01*
X17285Y-35524D01*
X17166Y-35574D01*
X17074Y-35665D01*
X17025Y-35785D01*
X17025Y-35813D01*
X16935Y-35723D01*
X16935Y-33500D01*
X16935Y-33475D01*
X16964Y-33475D01*
X17083Y-33425D01*
X17174Y-33335D01*
X17938Y-33335D01*
X18035Y-33374D01*
X18164Y-33375D01*
X18283Y-33325D01*
X18375Y-33234D01*
X18424Y-33114D01*
X18425Y-32985D01*
X18375Y-32866D01*
X18284Y-32774D01*
X18164Y-32725D01*
X18035Y-32724D01*
X17916Y-32774D01*
X17824Y-32865D01*
X17783Y-32965D01*
X17174Y-32965D01*
X17084Y-32874D01*
X16964Y-32825D01*
X16935Y-32825D01*
X16935Y-32600D01*
X16935Y-30750D01*
X16935Y-30650D01*
X16935Y-30576D01*
X17380Y-30130D01*
X17380Y-30130D01*
X17420Y-30070D01*
X17429Y-30027D01*
X17433Y-30025D01*
X17525Y-29934D01*
X17574Y-29814D01*
X17575Y-29685D01*
X17525Y-29566D01*
X17434Y-29474D01*
X17314Y-29425D01*
X17185Y-29424D01*
X17066Y-29474D01*
X16999Y-29540D01*
X16934Y-29474D01*
X16814Y-29425D01*
X16685Y-29424D01*
X16566Y-29474D01*
X16535Y-29505D01*
X16535Y-29350D01*
X16534Y-29350D01*
X16520Y-29279D01*
X16500Y-29247D01*
X16500Y-28669D01*
X21732Y-28669D01*
X21732Y-28669D01*
G37*
G54D28*
X21732Y-28669D02*
X21779Y-28678D01*
X21804Y-28695D01*
X21821Y-28720D01*
X21830Y-28766D01*
X21830Y-29549D01*
X21170Y-29549D01*
X21115Y-29572D01*
X21072Y-29614D01*
X21050Y-29670D01*
X21049Y-29724D01*
X17885Y-29724D01*
X17766Y-29774D01*
X17674Y-29865D01*
X17625Y-29985D01*
X17624Y-30114D01*
X17674Y-30233D01*
X17765Y-30325D01*
X17885Y-30374D01*
X18014Y-30375D01*
X18133Y-30325D01*
X18224Y-30235D01*
X19425Y-30235D01*
X19424Y-30314D01*
X19474Y-30433D01*
X19565Y-30525D01*
X19685Y-30574D01*
X19814Y-30575D01*
X19933Y-30525D01*
X20025Y-30434D01*
X20074Y-30314D01*
X20075Y-30185D01*
X20025Y-30066D01*
X19934Y-29974D01*
X19814Y-29925D01*
X19686Y-29924D01*
X19680Y-29919D01*
X19680Y-29919D01*
X19620Y-29879D01*
X19550Y-29865D01*
X19550Y-29865D01*
X18224Y-29865D01*
X18134Y-29774D01*
X18014Y-29725D01*
X17885Y-29724D01*
X21049Y-29724D01*
X21049Y-29729D01*
X21049Y-30329D01*
X21072Y-30384D01*
X21114Y-30427D01*
X21170Y-30449D01*
X21229Y-30450D01*
X21830Y-30450D01*
X21830Y-30549D01*
X21170Y-30549D01*
X21115Y-30572D01*
X21072Y-30614D01*
X21050Y-30670D01*
X21049Y-30729D01*
X21049Y-30815D01*
X20950Y-30815D01*
X20879Y-30829D01*
X20819Y-30869D01*
X20819Y-30869D01*
X20569Y-31119D01*
X20529Y-31179D01*
X20515Y-31250D01*
X20515Y-31495D01*
X20464Y-31475D01*
X20335Y-31474D01*
X20216Y-31524D01*
X20124Y-31615D01*
X20075Y-31735D01*
X20075Y-31735D01*
X20025Y-31616D01*
X19934Y-31524D01*
X19814Y-31475D01*
X19736Y-31474D01*
X19630Y-31369D01*
X19630Y-31369D01*
X19570Y-31329D01*
X19500Y-31315D01*
X19500Y-31315D01*
X18500Y-31315D01*
X18429Y-31329D01*
X18369Y-31369D01*
X18369Y-31369D01*
X18269Y-31469D01*
X18269Y-31469D01*
X18269Y-31469D01*
X18173Y-31565D01*
X17800Y-31565D01*
X17729Y-31579D01*
X17669Y-31619D01*
X17669Y-31619D01*
X17363Y-31925D01*
X17235Y-31924D01*
X17116Y-31974D01*
X17024Y-32065D01*
X16975Y-32185D01*
X16974Y-32314D01*
X17024Y-32433D01*
X17115Y-32525D01*
X17235Y-32574D01*
X17364Y-32575D01*
X17483Y-32525D01*
X17550Y-32459D01*
X17615Y-32525D01*
X17735Y-32574D01*
X17864Y-32575D01*
X17983Y-32525D01*
X18075Y-32434D01*
X18124Y-32314D01*
X18125Y-32186D01*
X18126Y-32185D01*
X18150Y-32185D01*
X19000Y-32185D01*
X19173Y-32185D01*
X19915Y-32926D01*
X19915Y-33250D01*
X19915Y-35023D01*
X19823Y-35115D01*
X17800Y-35115D01*
X17729Y-35129D01*
X17669Y-35169D01*
X17669Y-35169D01*
X17313Y-35524D01*
X17285Y-35524D01*
X17166Y-35574D01*
X17074Y-35665D01*
X17025Y-35785D01*
X17025Y-35813D01*
X16935Y-35723D01*
X16935Y-33500D01*
X16935Y-33475D01*
X16964Y-33475D01*
X17083Y-33425D01*
X17174Y-33335D01*
X17938Y-33335D01*
X18035Y-33374D01*
X18164Y-33375D01*
X18283Y-33325D01*
X18375Y-33234D01*
X18424Y-33114D01*
X18425Y-32985D01*
X18375Y-32866D01*
X18284Y-32774D01*
X18164Y-32725D01*
X18035Y-32724D01*
X17916Y-32774D01*
X17824Y-32865D01*
X17783Y-32965D01*
X17174Y-32965D01*
X17084Y-32874D01*
X16964Y-32825D01*
X16935Y-32825D01*
X16935Y-32600D01*
X16935Y-30750D01*
X16935Y-30650D01*
X16935Y-30576D01*
X17380Y-30130D01*
X17380Y-30130D01*
X17420Y-30070D01*
X17429Y-30027D01*
X17433Y-30025D01*
X17525Y-29934D01*
X17574Y-29814D01*
X17575Y-29685D01*
X17525Y-29566D01*
X17434Y-29474D01*
X17314Y-29425D01*
X17185Y-29424D01*
X17066Y-29474D01*
X16999Y-29540D01*
X16934Y-29474D01*
X16814Y-29425D01*
X16685Y-29424D01*
X16566Y-29474D01*
X16535Y-29505D01*
X16535Y-29350D01*
X16534Y-29350D01*
X16520Y-29279D01*
X16500Y-29247D01*
X16500Y-28669D01*
X21732Y-28669D01*
M02*
