G04 (created by PCBNEW (2014-01-10 BZR 4027)-stable) date Thursday, June 18, 2015 'amt' 10:00:05 am*
%MOIN*%
G04 Gerber Fmt 3.4, Leading zero omitted, Abs format*
%FSLAX34Y34*%
G01*
G70*
G90*
G04 APERTURE LIST*
%ADD10C,0.00590551*%
%ADD11C,0.00393701*%
G04 APERTURE END LIST*
G54D10*
G54D11*
X22500Y-42500D02*
X22500Y-50500D01*
X22000Y-42500D02*
X22000Y-44250D01*
X22000Y-28750D02*
X22000Y-40500D01*
X22500Y-40500D02*
X22500Y-29000D01*
X22500Y-42500D02*
G75*
G03X22250Y-42250I-250J0D01*
G74*
G01*
X22250Y-42250D02*
G75*
G03X22000Y-42500I0J-250D01*
G74*
G01*
X22000Y-40500D02*
G75*
G03X22250Y-40750I250J0D01*
G74*
G01*
X22250Y-40750D02*
G75*
G03X22500Y-40500I0J250D01*
G74*
G01*
X14250Y-28500D02*
X16750Y-28500D01*
X16750Y-28000D02*
X14500Y-28000D01*
X18750Y-28500D02*
X21750Y-28500D01*
X24500Y-28000D02*
X18750Y-28000D01*
X17000Y-28250D02*
G75*
G03X16750Y-28000I-250J0D01*
G74*
G01*
X16750Y-28500D02*
G75*
G03X17000Y-28250I0J250D01*
G74*
G01*
X18750Y-28000D02*
G75*
G03X18500Y-28250I0J-250D01*
G74*
G01*
X18500Y-28250D02*
G75*
G03X18750Y-28500I250J0D01*
G74*
G01*
X29500Y-51000D02*
X52500Y-51000D01*
X26500Y-28000D02*
X40500Y-28000D01*
X40500Y-28500D02*
X29500Y-28500D01*
X52500Y-12000D02*
X14500Y-12000D01*
X50500Y-23000D02*
X52500Y-23000D01*
X45000Y-23000D02*
X48500Y-23000D01*
X48500Y-23500D02*
X45500Y-23500D01*
X52500Y-23500D02*
X50500Y-23500D01*
X48750Y-23250D02*
G75*
G03X48500Y-23000I-250J0D01*
G74*
G01*
X48500Y-23500D02*
G75*
G03X48750Y-23250I0J250D01*
G74*
G01*
X50500Y-23000D02*
G75*
G03X50250Y-23250I0J-250D01*
G74*
G01*
X50250Y-23250D02*
G75*
G03X50500Y-23500I250J0D01*
G74*
G01*
X44500Y-27500D02*
X44500Y-23500D01*
X42500Y-28000D02*
X44000Y-28000D01*
X52500Y-28500D02*
X42500Y-28500D01*
X53000Y-22500D02*
X53000Y-12500D01*
X40500Y-28500D02*
G75*
G03X40750Y-28250I0J250D01*
G74*
G01*
X40750Y-28250D02*
G75*
G03X40500Y-28000I-250J0D01*
G74*
G01*
X42500Y-28000D02*
G75*
G03X42250Y-28250I0J-250D01*
G74*
G01*
X42250Y-28250D02*
G75*
G03X42500Y-28500I250J0D01*
G74*
G01*
X44000Y-28000D02*
G75*
G03X44500Y-27500I0J500D01*
G74*
G01*
X45000Y-23000D02*
G75*
G03X44500Y-23500I0J-500D01*
G74*
G01*
X45000Y-27500D02*
X45000Y-24000D01*
X52500Y-28000D02*
X45500Y-28000D01*
X53000Y-24000D02*
X53000Y-27500D01*
X45000Y-27500D02*
G75*
G03X45500Y-28000I500J0D01*
G74*
G01*
X45500Y-23500D02*
G75*
G03X45000Y-24000I0J-500D01*
G74*
G01*
X52500Y-23000D02*
G75*
G03X53000Y-22500I0J500D01*
G74*
G01*
X53000Y-24000D02*
G75*
G03X52500Y-23500I-500J0D01*
G74*
G01*
X52500Y-28000D02*
G75*
G03X53000Y-27500I0J500D01*
G74*
G01*
X53000Y-12500D02*
G75*
G03X52500Y-12000I-500J0D01*
G74*
G01*
X24500Y-28500D02*
X23000Y-28500D01*
X26500Y-28500D02*
X28000Y-28500D01*
X24500Y-28500D02*
G75*
G03X24750Y-28250I0J250D01*
G74*
G01*
X24750Y-28250D02*
G75*
G03X24500Y-28000I-250J0D01*
G74*
G01*
X26250Y-28250D02*
G75*
G03X26500Y-28500I250J0D01*
G74*
G01*
X26500Y-28000D02*
G75*
G03X26250Y-28250I0J-250D01*
G74*
G01*
X14500Y-12000D02*
G75*
G03X14000Y-12500I0J-500D01*
G74*
G01*
X14000Y-27500D02*
X14000Y-12500D01*
X14000Y-27500D02*
G75*
G03X14500Y-28000I500J0D01*
G74*
G01*
X53000Y-50500D02*
X53000Y-29000D01*
X29000Y-29000D02*
X29000Y-48500D01*
X28500Y-48500D02*
X28500Y-29000D01*
X23000Y-51000D02*
X28000Y-51000D01*
X28500Y-29000D02*
G75*
G03X28000Y-28500I-500J0D01*
G74*
G01*
X23000Y-28500D02*
G75*
G03X22500Y-29000I0J-500D01*
G74*
G01*
X22500Y-50500D02*
G75*
G03X23000Y-51000I500J0D01*
G74*
G01*
X28500Y-48500D02*
G75*
G03X28750Y-48750I250J0D01*
G74*
G01*
X28750Y-48750D02*
G75*
G03X29000Y-48500I0J250D01*
G74*
G01*
X28000Y-51000D02*
G75*
G03X28500Y-50500I0J500D01*
G74*
G01*
X28750Y-50250D02*
G75*
G03X28500Y-50500I0J-250D01*
G74*
G01*
X29000Y-50500D02*
G75*
G03X28750Y-50250I-250J0D01*
G74*
G01*
X52500Y-51000D02*
G75*
G03X53000Y-50500I0J500D01*
G74*
G01*
X29000Y-50500D02*
G75*
G03X29500Y-51000I500J0D01*
G74*
G01*
X29500Y-28500D02*
G75*
G03X29000Y-29000I0J-500D01*
G74*
G01*
X53000Y-29000D02*
G75*
G03X52500Y-28500I-500J0D01*
G74*
G01*
X14250Y-28500D02*
G75*
G03X14000Y-28750I0J-250D01*
G74*
G01*
X22000Y-28750D02*
G75*
G03X21750Y-28500I-250J0D01*
G74*
G01*
X14000Y-28750D02*
X14000Y-44250D01*
X15500Y-44500D02*
X14250Y-44500D01*
X20000Y-45000D02*
X16000Y-45000D01*
X21750Y-44500D02*
X20500Y-44500D01*
X21750Y-44500D02*
G75*
G03X22000Y-44250I0J250D01*
G74*
G01*
X14000Y-44250D02*
G75*
G03X14250Y-44500I250J0D01*
G74*
G01*
X20500Y-44500D02*
G75*
G03X20250Y-44750I0J-250D01*
G74*
G01*
X20000Y-45000D02*
G75*
G03X20250Y-44750I0J250D01*
G74*
G01*
X15750Y-44750D02*
G75*
G03X15500Y-44500I-250J0D01*
G74*
G01*
X15750Y-44750D02*
G75*
G03X16000Y-45000I250J0D01*
G74*
G01*
M02*
