G04 (created by PCBNEW (2014-01-10 BZR 4027)-stable) date Thursday, June 18, 2015 'amt' 10:00:05 am*
%MOIN*%
G04 Gerber Fmt 3.4, Leading zero omitted, Abs format*
%FSLAX34Y34*%
G01*
G70*
G90*
G04 APERTURE LIST*
%ADD10C,0.00590551*%
%ADD11R,0.06X0.06*%
%ADD12C,0.06*%
%ADD13C,0.07*%
%ADD14R,0.07X0.07*%
%ADD15R,0.055X0.055*%
%ADD16C,0.055*%
%ADD17C,0.14*%
%ADD18R,0.0590551X0.0590551*%
%ADD19C,0.03*%
%ADD20C,0.0354*%
%ADD21R,0.06X0.1*%
%ADD22R,0.08X0.06*%
G04 APERTURE END LIST*
G54D10*
G54D11*
X43500Y-17750D03*
G54D12*
X42500Y-17750D03*
X43500Y-16750D03*
X42500Y-16750D03*
X43500Y-15750D03*
X42500Y-15750D03*
G54D13*
X36750Y-42750D03*
X36750Y-41000D03*
G54D14*
X38627Y-42750D03*
G54D15*
X44000Y-50500D03*
G54D16*
X45000Y-50500D03*
G54D15*
X42000Y-50500D03*
G54D16*
X43000Y-50500D03*
G54D15*
X46000Y-50500D03*
G54D16*
X47000Y-50500D03*
X48000Y-50500D03*
X49000Y-50500D03*
G54D13*
X35872Y-34500D03*
X37250Y-34500D03*
G54D14*
X38627Y-34500D03*
G54D17*
X36250Y-49750D03*
X38250Y-49750D03*
X35250Y-29750D03*
X37250Y-29750D03*
X39250Y-29750D03*
G54D15*
X14500Y-16250D03*
G54D16*
X14500Y-17250D03*
X14500Y-18250D03*
X14500Y-19250D03*
G54D15*
X14500Y-20250D03*
G54D16*
X14500Y-21250D03*
X14500Y-22250D03*
X14500Y-23250D03*
G54D17*
X42750Y-27000D03*
X42750Y-25000D03*
X23500Y-47250D03*
X25500Y-47250D03*
X27500Y-47250D03*
X23500Y-44750D03*
X25500Y-44750D03*
X27500Y-44750D03*
X23500Y-42250D03*
X25500Y-42250D03*
X27500Y-42250D03*
X23500Y-39750D03*
X25500Y-39750D03*
X27500Y-39750D03*
X23500Y-37250D03*
X25500Y-37250D03*
X27500Y-37250D03*
X23500Y-32250D03*
X25500Y-32250D03*
X27500Y-32250D03*
X23500Y-34750D03*
X25500Y-34750D03*
X27500Y-34750D03*
G54D15*
X17750Y-27500D03*
G54D16*
X18750Y-27500D03*
X19750Y-27500D03*
X20750Y-27500D03*
G54D15*
X21750Y-27500D03*
G54D16*
X22750Y-27500D03*
X23750Y-27500D03*
X24750Y-27500D03*
G54D15*
X25750Y-27500D03*
G54D16*
X26750Y-27500D03*
X27750Y-27500D03*
X28750Y-27500D03*
G54D15*
X29750Y-27500D03*
G54D16*
X30750Y-27500D03*
X31750Y-27500D03*
X32750Y-27500D03*
G54D15*
X33750Y-27500D03*
G54D16*
X34750Y-27500D03*
X35750Y-27500D03*
X36750Y-27500D03*
G54D15*
X37750Y-27500D03*
G54D16*
X38750Y-27500D03*
X39750Y-27500D03*
X40750Y-27500D03*
G54D18*
X23250Y-18000D03*
G54D15*
X51500Y-12500D03*
G54D16*
X52500Y-12500D03*
G54D19*
X41000Y-28250D03*
X41500Y-28250D03*
X42000Y-28250D03*
X28750Y-50000D03*
X28750Y-49500D03*
X28750Y-49000D03*
X25000Y-28250D03*
X25500Y-28250D03*
X26000Y-28250D03*
G54D17*
X51750Y-29750D03*
G54D13*
X48250Y-15000D03*
X48250Y-14000D03*
G54D14*
X48250Y-13000D03*
G54D13*
X48250Y-22000D03*
X48250Y-21000D03*
G54D14*
X48250Y-20000D03*
G54D17*
X25500Y-29500D03*
X25500Y-50000D03*
G54D20*
X51415Y-26616D03*
X51415Y-24884D03*
G54D15*
X29500Y-12500D03*
G54D16*
X28500Y-12500D03*
X27500Y-12500D03*
X26500Y-12500D03*
X25500Y-12500D03*
X24500Y-12500D03*
X23500Y-12500D03*
X22500Y-12500D03*
X21500Y-12500D03*
X20500Y-12500D03*
X19500Y-12500D03*
X18500Y-12500D03*
X17500Y-12500D03*
X16500Y-12500D03*
X15500Y-12500D03*
X14500Y-12500D03*
G54D18*
X26250Y-18000D03*
X29250Y-18000D03*
G54D17*
X43750Y-21750D03*
X15250Y-26750D03*
X43750Y-13500D03*
G54D15*
X52500Y-17500D03*
G54D16*
X52500Y-18500D03*
X52500Y-19500D03*
X52500Y-20500D03*
G54D15*
X48500Y-24250D03*
G54D16*
X48500Y-25250D03*
X48500Y-26250D03*
X48500Y-27250D03*
G54D17*
X46500Y-24500D03*
X46500Y-27000D03*
G54D19*
X49000Y-23250D03*
X49500Y-23250D03*
X50000Y-23250D03*
G54D17*
X51750Y-49750D03*
X32250Y-44000D03*
X42250Y-44000D03*
X32250Y-33250D03*
X42250Y-33250D03*
X30000Y-33250D03*
X30000Y-44000D03*
G54D11*
X31750Y-12750D03*
G54D12*
X32750Y-12750D03*
G54D11*
X51250Y-15500D03*
G54D12*
X52250Y-15500D03*
G54D11*
X36500Y-37500D03*
G54D12*
X35500Y-37500D03*
G54D14*
X39000Y-12250D03*
X38000Y-12250D03*
X37000Y-12250D03*
G54D11*
X36500Y-47000D03*
G54D12*
X35500Y-47000D03*
G54D21*
X19500Y-44500D03*
X18500Y-44500D03*
X17500Y-44500D03*
X16500Y-44500D03*
G54D14*
X16000Y-29500D03*
X15000Y-29500D03*
X14000Y-29500D03*
G54D22*
X21600Y-40000D03*
X21600Y-41000D03*
X21600Y-42000D03*
X21600Y-43000D03*
X21600Y-44000D03*
X21600Y-35000D03*
X21600Y-36000D03*
X21600Y-37000D03*
X21600Y-38000D03*
X21600Y-39000D03*
X21600Y-30000D03*
X21600Y-31000D03*
X21600Y-32000D03*
X21600Y-33000D03*
X21600Y-34000D03*
X14400Y-34000D03*
X14400Y-33000D03*
X14400Y-32000D03*
X14400Y-31000D03*
X14400Y-30000D03*
X14400Y-39000D03*
X14400Y-38000D03*
X14400Y-37000D03*
X14400Y-36000D03*
X14400Y-35000D03*
X14400Y-44000D03*
X14400Y-43000D03*
X14400Y-42000D03*
X14400Y-41000D03*
X14400Y-40000D03*
G54D20*
X17134Y-43415D03*
X18866Y-43415D03*
G54D17*
X20250Y-29400D03*
G54D19*
X17250Y-28250D03*
X17750Y-28250D03*
X18250Y-28250D03*
X22250Y-42000D03*
X22250Y-41500D03*
X22250Y-41000D03*
M02*
