G04 (created by PCBNEW (22-Jun-2014 BZR 4027)-stable) date Fri 03 Apr 2015 12:50:18 PM MDT*
%MOIN*%
G04 Gerber Fmt 3.4, Leading zero omitted, Abs format*
%FSLAX34Y34*%
G01*
G70*
G90*
G04 APERTURE LIST*
%ADD10C,0.00590551*%
%ADD11C,0.0075*%
%ADD12C,0.005*%
%ADD13C,0.00787402*%
%ADD14C,0.012*%
%ADD15C,0.008*%
%ADD16C,0.01*%
G04 APERTURE END LIST*
G54D10*
G54D11*
X58621Y-18321D02*
X58321Y-18321D01*
X58621Y-18492D02*
X58450Y-18364D01*
X58321Y-18492D02*
X58492Y-18321D01*
X59535Y-18307D02*
X59535Y-18450D01*
X59621Y-18278D02*
X59321Y-18378D01*
X59621Y-18478D01*
X60621Y-18321D02*
X60321Y-18321D01*
X60321Y-18392D01*
X60335Y-18435D01*
X60364Y-18464D01*
X60392Y-18478D01*
X60450Y-18492D01*
X60492Y-18492D01*
X60550Y-18478D01*
X60578Y-18464D01*
X60607Y-18435D01*
X60621Y-18392D01*
X60621Y-18321D01*
X60321Y-18592D02*
X60321Y-18792D01*
X60621Y-18664D01*
X61621Y-18321D02*
X61321Y-18321D01*
X61321Y-18392D01*
X61335Y-18435D01*
X61364Y-18464D01*
X61392Y-18478D01*
X61450Y-18492D01*
X61492Y-18492D01*
X61550Y-18478D01*
X61578Y-18464D01*
X61607Y-18435D01*
X61621Y-18392D01*
X61621Y-18321D01*
X61321Y-18750D02*
X61321Y-18692D01*
X61335Y-18664D01*
X61350Y-18650D01*
X61392Y-18621D01*
X61450Y-18607D01*
X61564Y-18607D01*
X61592Y-18621D01*
X61607Y-18635D01*
X61621Y-18664D01*
X61621Y-18721D01*
X61607Y-18750D01*
X61592Y-18764D01*
X61564Y-18778D01*
X61492Y-18778D01*
X61464Y-18764D01*
X61450Y-18750D01*
X61435Y-18721D01*
X61435Y-18664D01*
X61450Y-18635D01*
X61464Y-18621D01*
X61492Y-18607D01*
X62621Y-18321D02*
X62321Y-18321D01*
X62321Y-18392D01*
X62335Y-18435D01*
X62364Y-18464D01*
X62392Y-18478D01*
X62450Y-18492D01*
X62492Y-18492D01*
X62550Y-18478D01*
X62578Y-18464D01*
X62607Y-18435D01*
X62621Y-18392D01*
X62621Y-18321D01*
X62321Y-18764D02*
X62321Y-18621D01*
X62464Y-18607D01*
X62450Y-18621D01*
X62435Y-18650D01*
X62435Y-18721D01*
X62450Y-18750D01*
X62464Y-18764D01*
X62492Y-18778D01*
X62564Y-18778D01*
X62592Y-18764D01*
X62607Y-18750D01*
X62621Y-18721D01*
X62621Y-18650D01*
X62607Y-18621D01*
X62592Y-18607D01*
X63621Y-18321D02*
X63321Y-18321D01*
X63321Y-18392D01*
X63335Y-18435D01*
X63364Y-18464D01*
X63392Y-18478D01*
X63450Y-18492D01*
X63492Y-18492D01*
X63550Y-18478D01*
X63578Y-18464D01*
X63607Y-18435D01*
X63621Y-18392D01*
X63621Y-18321D01*
X63421Y-18750D02*
X63621Y-18750D01*
X63307Y-18678D02*
X63521Y-18607D01*
X63521Y-18792D01*
X68464Y-18321D02*
X68464Y-18421D01*
X68621Y-18464D02*
X68621Y-18321D01*
X68321Y-18321D01*
X68321Y-18464D01*
X70621Y-18492D02*
X70478Y-18392D01*
X70621Y-18321D02*
X70321Y-18321D01*
X70321Y-18435D01*
X70335Y-18464D01*
X70350Y-18478D01*
X70378Y-18492D01*
X70421Y-18492D01*
X70450Y-18478D01*
X70464Y-18464D01*
X70478Y-18435D01*
X70478Y-18321D01*
X70607Y-18607D02*
X70621Y-18650D01*
X70621Y-18721D01*
X70607Y-18750D01*
X70592Y-18764D01*
X70564Y-18778D01*
X70535Y-18778D01*
X70507Y-18764D01*
X70492Y-18750D01*
X70478Y-18721D01*
X70464Y-18664D01*
X70450Y-18635D01*
X70435Y-18621D01*
X70407Y-18607D01*
X70378Y-18607D01*
X70350Y-18621D01*
X70335Y-18635D01*
X70321Y-18664D01*
X70321Y-18735D01*
X70335Y-18778D01*
X71321Y-18278D02*
X71621Y-18378D01*
X71321Y-18478D01*
X71321Y-18635D02*
X71321Y-18692D01*
X71335Y-18721D01*
X71364Y-18750D01*
X71421Y-18764D01*
X71521Y-18764D01*
X71578Y-18750D01*
X71607Y-18721D01*
X71621Y-18692D01*
X71621Y-18635D01*
X71607Y-18607D01*
X71578Y-18578D01*
X71521Y-18564D01*
X71421Y-18564D01*
X71364Y-18578D01*
X71335Y-18607D01*
X71321Y-18635D01*
X72321Y-18278D02*
X72621Y-18378D01*
X72321Y-18478D01*
X72592Y-18750D02*
X72607Y-18735D01*
X72621Y-18692D01*
X72621Y-18664D01*
X72607Y-18621D01*
X72578Y-18592D01*
X72550Y-18578D01*
X72492Y-18564D01*
X72450Y-18564D01*
X72392Y-18578D01*
X72364Y-18592D01*
X72335Y-18621D01*
X72321Y-18664D01*
X72321Y-18692D01*
X72335Y-18735D01*
X72350Y-18750D01*
X72592Y-19050D02*
X72607Y-19035D01*
X72621Y-18992D01*
X72621Y-18964D01*
X72607Y-18921D01*
X72578Y-18892D01*
X72550Y-18878D01*
X72492Y-18864D01*
X72450Y-18864D01*
X72392Y-18878D01*
X72364Y-18892D01*
X72335Y-18921D01*
X72321Y-18964D01*
X72321Y-18992D01*
X72335Y-19035D01*
X72350Y-19050D01*
X73335Y-18478D02*
X73321Y-18450D01*
X73321Y-18407D01*
X73335Y-18364D01*
X73364Y-18335D01*
X73392Y-18321D01*
X73450Y-18307D01*
X73492Y-18307D01*
X73550Y-18321D01*
X73578Y-18335D01*
X73607Y-18364D01*
X73621Y-18407D01*
X73621Y-18435D01*
X73607Y-18478D01*
X73592Y-18492D01*
X73492Y-18492D01*
X73492Y-18435D01*
X73621Y-18621D02*
X73321Y-18621D01*
X73621Y-18792D01*
X73321Y-18792D01*
X73621Y-18935D02*
X73321Y-18935D01*
X73321Y-19007D01*
X73335Y-19050D01*
X73364Y-19078D01*
X73392Y-19092D01*
X73450Y-19107D01*
X73492Y-19107D01*
X73550Y-19092D01*
X73578Y-19078D01*
X73607Y-19050D01*
X73621Y-19007D01*
X73621Y-18935D01*
G54D12*
X63335Y-47135D02*
X63321Y-47107D01*
X63321Y-47064D01*
X63335Y-47021D01*
X63364Y-46992D01*
X63392Y-46978D01*
X63450Y-46964D01*
X63492Y-46964D01*
X63550Y-46978D01*
X63578Y-46992D01*
X63607Y-47021D01*
X63621Y-47064D01*
X63621Y-47092D01*
X63607Y-47135D01*
X63592Y-47150D01*
X63492Y-47150D01*
X63492Y-47092D01*
X63621Y-47278D02*
X63321Y-47278D01*
X63621Y-47450D01*
X63321Y-47450D01*
X63621Y-47592D02*
X63321Y-47592D01*
X63321Y-47664D01*
X63335Y-47707D01*
X63364Y-47735D01*
X63392Y-47750D01*
X63450Y-47764D01*
X63492Y-47764D01*
X63550Y-47750D01*
X63578Y-47735D01*
X63607Y-47707D01*
X63621Y-47664D01*
X63621Y-47592D01*
X63735Y-48207D02*
X63721Y-48192D01*
X63678Y-48164D01*
X63650Y-48150D01*
X63607Y-48135D01*
X63535Y-48121D01*
X63478Y-48121D01*
X63407Y-48135D01*
X63364Y-48150D01*
X63335Y-48164D01*
X63292Y-48192D01*
X63278Y-48207D01*
X63621Y-48321D02*
X63321Y-48321D01*
X63621Y-48492D02*
X63450Y-48364D01*
X63321Y-48492D02*
X63492Y-48321D01*
X63735Y-48592D02*
X63721Y-48607D01*
X63678Y-48635D01*
X63650Y-48650D01*
X63607Y-48664D01*
X63535Y-48678D01*
X63478Y-48678D01*
X63407Y-48664D01*
X63364Y-48650D01*
X63335Y-48635D01*
X63292Y-48607D01*
X63278Y-48592D01*
X62621Y-47221D02*
X62321Y-47221D01*
X62321Y-47292D01*
X62335Y-47335D01*
X62364Y-47364D01*
X62392Y-47378D01*
X62450Y-47392D01*
X62492Y-47392D01*
X62550Y-47378D01*
X62578Y-47364D01*
X62607Y-47335D01*
X62621Y-47292D01*
X62621Y-47221D01*
X62507Y-47521D02*
X62507Y-47750D01*
X62621Y-47635D02*
X62392Y-47635D01*
X62735Y-48207D02*
X62721Y-48192D01*
X62678Y-48164D01*
X62650Y-48150D01*
X62607Y-48135D01*
X62535Y-48121D01*
X62478Y-48121D01*
X62407Y-48135D01*
X62364Y-48150D01*
X62335Y-48164D01*
X62292Y-48192D01*
X62278Y-48207D01*
X62335Y-48478D02*
X62321Y-48450D01*
X62321Y-48407D01*
X62335Y-48364D01*
X62364Y-48335D01*
X62392Y-48321D01*
X62450Y-48307D01*
X62492Y-48307D01*
X62550Y-48321D01*
X62578Y-48335D01*
X62607Y-48364D01*
X62621Y-48407D01*
X62621Y-48435D01*
X62607Y-48478D01*
X62592Y-48492D01*
X62492Y-48492D01*
X62492Y-48435D01*
X62735Y-48592D02*
X62721Y-48607D01*
X62678Y-48635D01*
X62650Y-48650D01*
X62607Y-48664D01*
X62535Y-48678D01*
X62478Y-48678D01*
X62407Y-48664D01*
X62364Y-48650D01*
X62335Y-48635D01*
X62292Y-48607D01*
X62278Y-48592D01*
X61621Y-47178D02*
X61321Y-47178D01*
X61321Y-47250D01*
X61335Y-47292D01*
X61364Y-47321D01*
X61392Y-47335D01*
X61450Y-47350D01*
X61492Y-47350D01*
X61550Y-47335D01*
X61578Y-47321D01*
X61607Y-47292D01*
X61621Y-47250D01*
X61621Y-47178D01*
X61507Y-47478D02*
X61507Y-47707D01*
X61735Y-48164D02*
X61721Y-48150D01*
X61678Y-48121D01*
X61650Y-48107D01*
X61607Y-48092D01*
X61535Y-48078D01*
X61478Y-48078D01*
X61407Y-48092D01*
X61364Y-48107D01*
X61335Y-48121D01*
X61292Y-48150D01*
X61278Y-48164D01*
X61321Y-48250D02*
X61621Y-48321D01*
X61407Y-48378D01*
X61621Y-48435D01*
X61321Y-48507D01*
X61735Y-48592D02*
X61721Y-48607D01*
X61678Y-48635D01*
X61650Y-48650D01*
X61607Y-48664D01*
X61535Y-48678D01*
X61478Y-48678D01*
X61407Y-48664D01*
X61364Y-48650D01*
X61335Y-48635D01*
X61292Y-48607D01*
X61278Y-48592D01*
X60507Y-46978D02*
X60507Y-47207D01*
X60621Y-47092D02*
X60392Y-47092D01*
X60321Y-47492D02*
X60321Y-47350D01*
X60464Y-47335D01*
X60450Y-47350D01*
X60435Y-47378D01*
X60435Y-47450D01*
X60450Y-47478D01*
X60464Y-47492D01*
X60492Y-47507D01*
X60564Y-47507D01*
X60592Y-47492D01*
X60607Y-47478D01*
X60621Y-47450D01*
X60621Y-47378D01*
X60607Y-47350D01*
X60592Y-47335D01*
X60321Y-47592D02*
X60621Y-47692D01*
X60321Y-47792D01*
X60735Y-48207D02*
X60721Y-48192D01*
X60678Y-48164D01*
X60650Y-48150D01*
X60607Y-48135D01*
X60535Y-48121D01*
X60478Y-48121D01*
X60407Y-48135D01*
X60364Y-48150D01*
X60335Y-48164D01*
X60292Y-48192D01*
X60278Y-48207D01*
X60621Y-48492D02*
X60478Y-48392D01*
X60621Y-48321D02*
X60321Y-48321D01*
X60321Y-48435D01*
X60335Y-48464D01*
X60350Y-48478D01*
X60378Y-48492D01*
X60421Y-48492D01*
X60450Y-48478D01*
X60464Y-48464D01*
X60478Y-48435D01*
X60478Y-48321D01*
X60735Y-48592D02*
X60721Y-48607D01*
X60678Y-48635D01*
X60650Y-48650D01*
X60607Y-48664D01*
X60535Y-48678D01*
X60478Y-48678D01*
X60407Y-48664D01*
X60364Y-48650D01*
X60335Y-48635D01*
X60292Y-48607D01*
X60278Y-48592D01*
X59571Y-34785D02*
X59814Y-34785D01*
X59842Y-34800D01*
X59857Y-34814D01*
X59871Y-34842D01*
X59871Y-34900D01*
X59857Y-34928D01*
X59842Y-34942D01*
X59814Y-34957D01*
X59571Y-34957D01*
X59714Y-35200D02*
X59728Y-35242D01*
X59742Y-35257D01*
X59771Y-35271D01*
X59814Y-35271D01*
X59842Y-35257D01*
X59857Y-35242D01*
X59871Y-35214D01*
X59871Y-35100D01*
X59571Y-35100D01*
X59571Y-35200D01*
X59585Y-35228D01*
X59600Y-35242D01*
X59628Y-35257D01*
X59657Y-35257D01*
X59685Y-35242D01*
X59700Y-35228D01*
X59714Y-35200D01*
X59714Y-35100D01*
X59714Y-35500D02*
X59728Y-35542D01*
X59742Y-35557D01*
X59771Y-35571D01*
X59814Y-35571D01*
X59842Y-35557D01*
X59857Y-35542D01*
X59871Y-35514D01*
X59871Y-35400D01*
X59571Y-35400D01*
X59571Y-35500D01*
X59585Y-35528D01*
X59600Y-35542D01*
X59628Y-35557D01*
X59657Y-35557D01*
X59685Y-35542D01*
X59700Y-35528D01*
X59714Y-35500D01*
X59714Y-35400D01*
X59714Y-35800D02*
X59728Y-35842D01*
X59742Y-35857D01*
X59771Y-35871D01*
X59814Y-35871D01*
X59842Y-35857D01*
X59857Y-35842D01*
X59871Y-35814D01*
X59871Y-35700D01*
X59571Y-35700D01*
X59571Y-35800D01*
X59585Y-35828D01*
X59600Y-35842D01*
X59628Y-35857D01*
X59657Y-35857D01*
X59685Y-35842D01*
X59700Y-35828D01*
X59714Y-35800D01*
X59714Y-35700D01*
X59571Y-36200D02*
X59571Y-36385D01*
X59685Y-36285D01*
X59685Y-36328D01*
X59700Y-36357D01*
X59714Y-36371D01*
X59742Y-36385D01*
X59814Y-36385D01*
X59842Y-36371D01*
X59857Y-36357D01*
X59871Y-36328D01*
X59871Y-36242D01*
X59857Y-36214D01*
X59842Y-36200D01*
X59600Y-36500D02*
X59585Y-36514D01*
X59571Y-36542D01*
X59571Y-36614D01*
X59585Y-36642D01*
X59600Y-36657D01*
X59628Y-36671D01*
X59657Y-36671D01*
X59700Y-36657D01*
X59871Y-36485D01*
X59871Y-36671D01*
X59571Y-36800D02*
X59814Y-36800D01*
X59842Y-36814D01*
X59857Y-36828D01*
X59871Y-36857D01*
X59871Y-36914D01*
X59857Y-36942D01*
X59842Y-36957D01*
X59814Y-36971D01*
X59571Y-36971D01*
X59671Y-37242D02*
X59871Y-37242D01*
X59557Y-37171D02*
X59771Y-37100D01*
X59771Y-37285D01*
X59871Y-37800D02*
X59728Y-37700D01*
X59871Y-37628D02*
X59571Y-37628D01*
X59571Y-37742D01*
X59585Y-37771D01*
X59600Y-37785D01*
X59628Y-37800D01*
X59671Y-37800D01*
X59700Y-37785D01*
X59714Y-37771D01*
X59728Y-37742D01*
X59728Y-37628D01*
X59857Y-38042D02*
X59871Y-38014D01*
X59871Y-37957D01*
X59857Y-37928D01*
X59828Y-37914D01*
X59714Y-37914D01*
X59685Y-37928D01*
X59671Y-37957D01*
X59671Y-38014D01*
X59685Y-38042D01*
X59714Y-38057D01*
X59742Y-38057D01*
X59771Y-37914D01*
X59671Y-38157D02*
X59871Y-38228D01*
X59671Y-38300D01*
X59871Y-38799D02*
X59871Y-38628D01*
X59871Y-38714D02*
X59571Y-38714D01*
X59614Y-38685D01*
X59642Y-38657D01*
X59657Y-38628D01*
X59842Y-38928D02*
X59857Y-38942D01*
X59871Y-38928D01*
X59857Y-38914D01*
X59842Y-38928D01*
X59871Y-38928D01*
X59871Y-39228D02*
X59871Y-39057D01*
X59871Y-39142D02*
X59571Y-39142D01*
X59614Y-39114D01*
X59642Y-39085D01*
X59657Y-39057D01*
G54D13*
X64000Y-52000D02*
X64000Y-51000D01*
X63500Y-52500D02*
X64000Y-52000D01*
X63500Y-54500D02*
X63500Y-52500D01*
X64000Y-55000D02*
X63500Y-54500D01*
X64000Y-56000D02*
X64000Y-55000D01*
X59750Y-52500D02*
G75*
G03X59750Y-52500I-250J0D01*
G74*
G01*
G54D14*
X74000Y-17000D02*
X58000Y-17000D01*
X58000Y-17000D02*
X58000Y-18000D01*
X58000Y-18000D02*
X74000Y-18000D01*
X74000Y-18000D02*
X74000Y-17000D01*
G54D10*
X61950Y-42100D02*
X61450Y-42100D01*
X61950Y-41900D02*
X61750Y-41900D01*
X61950Y-42100D02*
X61950Y-41900D01*
X61950Y-44200D02*
X61950Y-44000D01*
X61850Y-44200D02*
X61950Y-44200D01*
X61850Y-44000D02*
X61850Y-44200D01*
X61750Y-44000D02*
X61850Y-44000D01*
X61750Y-44200D02*
X61750Y-44000D01*
X61750Y-43900D02*
X62150Y-43900D01*
X61750Y-43700D02*
X61750Y-43900D01*
X61950Y-43700D02*
X61750Y-43700D01*
X61950Y-42700D02*
X62150Y-42700D01*
X61950Y-43400D02*
X61950Y-43600D01*
X61850Y-43400D02*
X61850Y-43600D01*
X61750Y-43400D02*
X61750Y-43600D01*
X61950Y-43300D02*
X61950Y-43100D01*
X61850Y-43300D02*
X61950Y-43300D01*
X61850Y-43100D02*
X61850Y-43300D01*
X61750Y-43100D02*
X61850Y-43100D01*
X61750Y-43300D02*
X61750Y-43100D01*
X61950Y-43000D02*
X61950Y-42800D01*
X61850Y-43000D02*
X61950Y-43000D01*
X61850Y-42800D02*
X61850Y-43000D01*
X61750Y-42800D02*
X61850Y-42800D01*
X61750Y-43000D02*
X61750Y-42800D01*
X61950Y-42700D02*
X61750Y-42700D01*
X61750Y-42500D02*
X61750Y-42700D01*
X61950Y-42500D02*
X61750Y-42500D01*
X61950Y-42200D02*
X61950Y-42400D01*
X61850Y-42200D02*
X61950Y-42200D01*
X61850Y-42200D02*
X61850Y-42400D01*
X61750Y-42400D02*
X61950Y-42400D01*
X61750Y-42200D02*
X61750Y-42400D01*
X61150Y-42400D02*
X61650Y-42400D01*
X61450Y-42300D02*
X61650Y-42300D01*
X61150Y-42200D02*
X61650Y-42200D01*
X61450Y-43900D02*
X61650Y-43900D01*
X61450Y-43700D02*
X61450Y-43900D01*
X61650Y-43700D02*
X61450Y-43700D01*
X61650Y-43400D02*
X61650Y-43600D01*
X61550Y-43400D02*
X61550Y-43600D01*
X61450Y-43400D02*
X61450Y-43600D01*
X61450Y-43100D02*
X61450Y-43300D01*
X61650Y-43100D02*
X61450Y-43100D01*
X61450Y-42800D02*
X61450Y-43000D01*
X61450Y-42800D02*
X61650Y-42800D01*
X61550Y-42500D02*
X61550Y-42700D01*
X61650Y-42500D02*
X61550Y-42500D01*
X61650Y-42700D02*
X61650Y-42500D01*
X61450Y-42700D02*
X61650Y-42700D01*
X61450Y-42500D02*
X61450Y-42700D01*
X60750Y-35250D02*
X60750Y-35050D01*
X60750Y-35050D02*
X60550Y-35050D01*
X60550Y-35050D02*
X60550Y-35250D01*
X60550Y-35250D02*
X60750Y-35250D01*
X60750Y-35550D02*
X60750Y-35350D01*
X60750Y-35350D02*
X60550Y-35350D01*
X60550Y-35350D02*
X60550Y-35550D01*
X60550Y-35550D02*
X60750Y-35550D01*
X60750Y-35850D02*
X60750Y-35650D01*
X60750Y-35650D02*
X60550Y-35650D01*
X60550Y-35650D02*
X60550Y-35850D01*
X60550Y-35850D02*
X60750Y-35850D01*
X60750Y-36150D02*
X60750Y-35950D01*
X60750Y-35950D02*
X60550Y-35950D01*
X60550Y-35950D02*
X60550Y-36150D01*
X60550Y-36150D02*
X60750Y-36150D01*
X60750Y-36450D02*
X60750Y-36250D01*
X60750Y-36250D02*
X60550Y-36250D01*
X60550Y-36250D02*
X60550Y-36450D01*
X60550Y-36450D02*
X60750Y-36450D01*
X61000Y-36700D02*
X61000Y-36500D01*
X61000Y-36500D02*
X60800Y-36500D01*
X60800Y-36500D02*
X60800Y-36700D01*
X60800Y-36700D02*
X61000Y-36700D01*
X61300Y-36500D02*
X61100Y-36500D01*
X61100Y-36500D02*
X61100Y-36700D01*
X61100Y-36700D02*
X61300Y-36700D01*
X61300Y-36700D02*
X61300Y-36500D01*
X61600Y-36500D02*
X61400Y-36500D01*
X61400Y-36500D02*
X61400Y-36700D01*
X61400Y-36700D02*
X61600Y-36700D01*
X61600Y-36700D02*
X61600Y-36500D01*
X61850Y-36250D02*
X61650Y-36250D01*
X61650Y-36250D02*
X61650Y-36450D01*
X61650Y-36450D02*
X61850Y-36450D01*
X61850Y-36450D02*
X61850Y-36250D01*
X61650Y-35950D02*
X61850Y-35950D01*
X61850Y-35950D02*
X61850Y-36150D01*
X61850Y-36150D02*
X61650Y-36150D01*
X61650Y-36150D02*
X61650Y-35950D01*
X61850Y-35650D02*
X61650Y-35650D01*
X61650Y-35650D02*
X61650Y-35850D01*
X61650Y-35850D02*
X61850Y-35850D01*
X61850Y-35850D02*
X61850Y-35650D01*
X61650Y-35350D02*
X61850Y-35350D01*
X61850Y-35350D02*
X61850Y-35550D01*
X61850Y-35550D02*
X61650Y-35550D01*
X61650Y-35550D02*
X61650Y-35350D01*
X61100Y-35950D02*
X61300Y-35950D01*
X61300Y-35950D02*
X61300Y-36150D01*
X61300Y-36150D02*
X61100Y-36150D01*
X61100Y-36150D02*
X61100Y-35950D01*
X61100Y-35650D02*
X61100Y-35850D01*
X61100Y-35850D02*
X61300Y-35850D01*
X61100Y-35650D02*
X61300Y-35650D01*
X61300Y-35650D02*
X61300Y-35850D01*
X61300Y-35350D02*
X61100Y-35350D01*
X61100Y-35350D02*
X61100Y-35550D01*
X61100Y-35550D02*
X61300Y-35550D01*
X61300Y-35550D02*
X61300Y-35350D01*
X61300Y-35050D02*
X61100Y-35050D01*
X61100Y-35050D02*
X61100Y-35250D01*
X61100Y-35250D02*
X61300Y-35250D01*
X61300Y-35250D02*
X61300Y-35050D01*
X61550Y-35000D02*
X61550Y-34800D01*
X61550Y-34800D02*
X61350Y-34800D01*
X61350Y-34800D02*
X61350Y-35000D01*
X61350Y-35000D02*
X61550Y-35000D01*
X61850Y-35000D02*
X61850Y-34800D01*
X61850Y-34800D02*
X61650Y-34800D01*
X61650Y-34800D02*
X61650Y-35000D01*
X61650Y-35000D02*
X61850Y-35000D01*
X62150Y-35000D02*
X62150Y-34800D01*
X62150Y-34800D02*
X61950Y-34800D01*
X61950Y-34800D02*
X61950Y-35000D01*
X61950Y-35000D02*
X62150Y-35000D01*
X62400Y-35250D02*
X62200Y-35250D01*
X62200Y-35250D02*
X62200Y-35050D01*
X62200Y-35050D02*
X62400Y-35050D01*
X62400Y-35050D02*
X62400Y-35250D01*
X62400Y-35550D02*
X62200Y-35550D01*
X62200Y-35550D02*
X62200Y-35350D01*
X62200Y-35350D02*
X62400Y-35350D01*
X62400Y-35350D02*
X62400Y-35550D01*
X62400Y-35850D02*
X62200Y-35850D01*
X62200Y-35850D02*
X62200Y-35650D01*
X62200Y-35650D02*
X62400Y-35650D01*
X62400Y-35650D02*
X62400Y-35850D01*
X62400Y-36150D02*
X62200Y-36150D01*
X62200Y-36150D02*
X62200Y-35950D01*
X62200Y-35950D02*
X62400Y-35950D01*
X62400Y-35950D02*
X62400Y-36150D01*
X62400Y-36450D02*
X62200Y-36450D01*
X62200Y-36450D02*
X62200Y-36250D01*
X62200Y-36250D02*
X62400Y-36250D01*
X62400Y-36250D02*
X62400Y-36450D01*
G54D12*
X61440Y-39410D02*
X61640Y-39410D01*
X61380Y-39330D02*
X61380Y-39350D01*
X61380Y-39350D02*
X61400Y-39390D01*
X61400Y-39390D02*
X61440Y-39410D01*
X61400Y-39290D02*
X61380Y-39330D01*
X61400Y-39290D02*
X61440Y-39230D01*
X61380Y-39230D02*
X61640Y-39230D01*
X61440Y-38990D02*
X61580Y-38990D01*
X61580Y-38990D02*
X61620Y-39010D01*
X61620Y-39010D02*
X61640Y-39050D01*
X61640Y-39050D02*
X61640Y-39090D01*
X61640Y-39090D02*
X61620Y-39130D01*
X61620Y-39130D02*
X61580Y-39150D01*
X61580Y-39150D02*
X61440Y-39150D01*
X61440Y-39150D02*
X61400Y-39130D01*
X61400Y-39130D02*
X61380Y-39090D01*
X61380Y-39090D02*
X61380Y-39070D01*
X61380Y-39050D02*
X61400Y-39010D01*
X61400Y-39010D02*
X61440Y-38990D01*
X61380Y-38790D02*
X61380Y-38890D01*
X61500Y-38790D02*
X61500Y-38850D01*
X61500Y-38790D02*
X61480Y-38750D01*
X61480Y-38750D02*
X61440Y-38730D01*
X61440Y-38730D02*
X61400Y-38750D01*
X61400Y-38750D02*
X61380Y-38790D01*
X61640Y-38750D02*
X61640Y-38850D01*
X61640Y-38850D02*
X61620Y-38890D01*
X61620Y-38890D02*
X61580Y-38910D01*
X61580Y-38910D02*
X61560Y-38910D01*
X61560Y-38910D02*
X61520Y-38890D01*
X61520Y-38890D02*
X61500Y-38850D01*
X61620Y-38650D02*
X61640Y-38690D01*
X61220Y-38630D02*
X61580Y-38630D01*
X61580Y-38630D02*
X61620Y-38650D01*
X61280Y-38350D02*
X61580Y-38350D01*
X61580Y-38350D02*
X61620Y-38370D01*
X61620Y-38370D02*
X61640Y-38410D01*
X61640Y-38410D02*
X61640Y-38490D01*
X61640Y-38490D02*
X61620Y-38530D01*
X61620Y-38530D02*
X61580Y-38550D01*
X61580Y-38550D02*
X61280Y-38550D01*
X61280Y-38550D02*
X61240Y-38530D01*
X61240Y-38530D02*
X61220Y-38490D01*
X61220Y-38490D02*
X61220Y-38410D01*
X61220Y-38410D02*
X61240Y-38370D01*
X61240Y-38370D02*
X61280Y-38350D01*
X61600Y-38050D02*
X61640Y-38070D01*
X61220Y-38050D02*
X61600Y-38050D01*
X61380Y-37970D02*
X61380Y-38130D01*
X61380Y-38010D02*
X61340Y-38050D01*
X61640Y-38090D02*
X61640Y-38070D01*
X61640Y-37870D02*
X61640Y-37850D01*
X61380Y-37790D02*
X61340Y-37830D01*
X61380Y-37750D02*
X61380Y-37910D01*
X61220Y-37830D02*
X61600Y-37830D01*
X61600Y-37830D02*
X61640Y-37850D01*
X61520Y-37550D02*
X61600Y-37550D01*
X61600Y-37550D02*
X61640Y-37590D01*
X61520Y-37690D02*
X61480Y-37630D01*
X61480Y-37630D02*
X61480Y-37590D01*
X61480Y-37590D02*
X61520Y-37550D01*
X61640Y-37590D02*
X61640Y-37630D01*
X61640Y-37630D02*
X61600Y-37690D01*
X61380Y-37590D02*
X61380Y-37670D01*
X61380Y-37670D02*
X61400Y-37690D01*
X61400Y-37690D02*
X61640Y-37690D01*
X61400Y-37570D02*
X61380Y-37590D01*
X61380Y-37510D02*
X61700Y-37410D01*
X61700Y-37410D02*
X61740Y-37370D01*
X61380Y-37370D02*
X61640Y-37430D01*
X61300Y-37150D02*
X61640Y-37230D01*
X61640Y-37230D02*
X61220Y-37330D01*
X61220Y-36970D02*
X61640Y-37070D01*
X61640Y-37070D02*
X61220Y-37170D01*
G54D10*
X62030Y-40430D02*
X61990Y-40600D01*
X61990Y-40600D02*
X61960Y-40600D01*
X61960Y-40600D02*
X61910Y-40590D01*
X61910Y-40590D02*
X61890Y-40560D01*
X61890Y-40560D02*
X61890Y-40510D01*
X61890Y-40510D02*
X61910Y-40470D01*
X61910Y-40470D02*
X61950Y-40450D01*
X61950Y-40450D02*
X62100Y-40430D01*
X62100Y-40430D02*
X62140Y-40440D01*
X62140Y-40440D02*
X62160Y-40480D01*
X62160Y-40480D02*
X62160Y-40530D01*
X62160Y-40530D02*
X62130Y-40560D01*
X61900Y-40190D02*
X62160Y-40240D01*
X62160Y-40240D02*
X61890Y-40350D01*
X62140Y-41270D02*
X62160Y-41240D01*
X62160Y-41240D02*
X62160Y-41160D01*
X62160Y-41160D02*
X62140Y-41140D01*
X62140Y-41140D02*
X62110Y-41130D01*
X62110Y-41130D02*
X62070Y-41130D01*
X62070Y-41130D02*
X62040Y-41130D01*
X62040Y-41130D02*
X62020Y-41160D01*
X62020Y-41160D02*
X62010Y-41190D01*
X62010Y-41190D02*
X62010Y-41260D01*
X62010Y-41260D02*
X61990Y-41280D01*
X61920Y-41160D02*
X61890Y-41200D01*
X61890Y-41200D02*
X61890Y-41260D01*
X61890Y-41260D02*
X61910Y-41290D01*
X61910Y-41290D02*
X61950Y-41300D01*
X61950Y-41300D02*
X62160Y-41270D01*
X61950Y-40070D02*
X62160Y-40040D01*
X61910Y-40060D02*
X61950Y-40070D01*
X61890Y-40030D02*
X61910Y-40060D01*
X61890Y-39970D02*
X61890Y-40030D01*
X61920Y-39930D02*
X61890Y-39970D01*
X62010Y-40030D02*
X61990Y-40050D01*
X62010Y-39960D02*
X62010Y-40030D01*
X62020Y-39930D02*
X62010Y-39960D01*
X62040Y-39900D02*
X62020Y-39930D01*
X62070Y-39900D02*
X62040Y-39900D01*
X62110Y-39900D02*
X62070Y-39900D01*
X62140Y-39910D02*
X62110Y-39900D01*
X62160Y-39930D02*
X62140Y-39910D01*
X62160Y-40010D02*
X62160Y-39930D01*
X62140Y-40040D02*
X62160Y-40010D01*
X62160Y-40970D02*
X62140Y-41000D01*
X62160Y-40930D02*
X62160Y-40970D01*
X62150Y-40900D02*
X62160Y-40930D01*
X62120Y-40860D02*
X62150Y-40900D01*
X62020Y-40860D02*
X62120Y-40860D01*
X61970Y-40860D02*
X62020Y-40860D01*
X61940Y-40880D02*
X61970Y-40860D01*
X61910Y-40900D02*
X61940Y-40880D01*
X61890Y-40940D02*
X61910Y-40900D01*
X61890Y-41000D02*
X61890Y-40940D01*
X61920Y-41030D02*
X61890Y-41000D01*
X61920Y-39800D02*
X61890Y-39770D01*
X61890Y-39770D02*
X61890Y-39710D01*
X61890Y-39710D02*
X61910Y-39670D01*
X61910Y-39670D02*
X61940Y-39650D01*
X61940Y-39650D02*
X61970Y-39630D01*
X61970Y-39630D02*
X62020Y-39630D01*
X62020Y-39630D02*
X62120Y-39630D01*
X62120Y-39630D02*
X62150Y-39670D01*
X62150Y-39670D02*
X62160Y-39700D01*
X62160Y-39700D02*
X62160Y-39740D01*
X62160Y-39740D02*
X62140Y-39770D01*
X61770Y-39510D02*
X62110Y-39460D01*
X62110Y-39460D02*
X62140Y-39470D01*
X62140Y-39470D02*
X62170Y-39510D01*
X62140Y-39310D02*
X62160Y-39280D01*
X62160Y-39280D02*
X62160Y-39200D01*
X62160Y-39200D02*
X62140Y-39180D01*
X62140Y-39180D02*
X62110Y-39170D01*
X62110Y-39170D02*
X62070Y-39170D01*
X62070Y-39170D02*
X62040Y-39170D01*
X62040Y-39170D02*
X62020Y-39200D01*
X62020Y-39200D02*
X62010Y-39230D01*
X62010Y-39230D02*
X62010Y-39300D01*
X62010Y-39300D02*
X61990Y-39320D01*
X61920Y-39200D02*
X61890Y-39240D01*
X61890Y-39240D02*
X61890Y-39300D01*
X61890Y-39300D02*
X61910Y-39330D01*
X61910Y-39330D02*
X61950Y-39340D01*
X61950Y-39340D02*
X62160Y-39310D01*
X62160Y-39030D02*
X62170Y-39070D01*
X62140Y-39010D02*
X62160Y-39030D01*
X62100Y-39000D02*
X62140Y-39010D01*
X61760Y-39040D02*
X62100Y-39000D01*
X61890Y-38960D02*
X61890Y-39090D01*
X61910Y-38710D02*
X61890Y-38680D01*
X61890Y-38680D02*
X61890Y-38640D01*
X61890Y-38640D02*
X61910Y-38590D01*
X61910Y-38590D02*
X61940Y-38570D01*
X61940Y-38570D02*
X61970Y-38560D01*
X61970Y-38560D02*
X62080Y-38540D01*
X62080Y-38540D02*
X62140Y-38560D01*
X62140Y-38560D02*
X62160Y-38600D01*
X62160Y-38600D02*
X62160Y-38650D01*
X62160Y-38650D02*
X62130Y-38680D01*
X61900Y-38720D02*
X62220Y-38680D01*
X62220Y-38680D02*
X62260Y-38650D01*
X62260Y-38650D02*
X62270Y-38640D01*
X62270Y-38640D02*
X62280Y-38630D01*
X62280Y-38630D02*
X62290Y-38610D01*
X62290Y-38610D02*
X62290Y-38570D01*
X62290Y-38570D02*
X62290Y-38550D01*
X62290Y-38550D02*
X62270Y-38530D01*
X62140Y-38240D02*
X62160Y-38220D01*
X62160Y-38220D02*
X62160Y-38160D01*
X62160Y-38160D02*
X62140Y-38120D01*
X62140Y-38120D02*
X62120Y-38110D01*
X62120Y-38110D02*
X62090Y-38100D01*
X62090Y-38100D02*
X61970Y-38120D01*
X61970Y-38120D02*
X61930Y-38130D01*
X61930Y-38130D02*
X61910Y-38160D01*
X61910Y-38160D02*
X61890Y-38190D01*
X61890Y-38190D02*
X61890Y-38230D01*
X61890Y-38230D02*
X61910Y-38270D01*
X61760Y-38290D02*
X62170Y-38240D01*
X62140Y-40720D02*
X62150Y-40710D01*
X62150Y-40720D02*
X62140Y-40720D01*
X62140Y-40710D02*
X62150Y-40720D01*
X61880Y-38870D02*
X62160Y-38830D01*
X61770Y-38880D02*
X61780Y-38890D01*
X61780Y-38890D02*
X61770Y-38890D01*
X61770Y-38890D02*
X61780Y-38880D01*
X61770Y-38450D02*
X61780Y-38440D01*
X61780Y-38450D02*
X61770Y-38450D01*
X61770Y-38440D02*
X61780Y-38450D01*
X62140Y-37680D02*
X62150Y-37670D01*
X62150Y-37680D02*
X62140Y-37680D01*
X62140Y-37670D02*
X62150Y-37680D01*
X61930Y-37690D02*
X61940Y-37700D01*
X61940Y-37700D02*
X61930Y-37700D01*
X61930Y-37700D02*
X61940Y-37690D01*
X61880Y-38430D02*
X62160Y-38390D01*
X62160Y-37380D02*
X62160Y-37470D01*
X62160Y-37470D02*
X62120Y-37540D01*
X62120Y-37540D02*
X61980Y-37560D01*
X61980Y-37560D02*
X61940Y-37550D01*
X61940Y-37550D02*
X61900Y-37520D01*
X61900Y-37520D02*
X61890Y-37480D01*
X61890Y-37480D02*
X61890Y-37460D01*
X61890Y-37460D02*
X61920Y-37420D01*
X61900Y-37420D02*
X62300Y-37360D01*
X62160Y-37240D02*
X62170Y-37280D01*
X62140Y-37220D02*
X62160Y-37240D01*
X62100Y-37210D02*
X62140Y-37220D01*
X61760Y-37250D02*
X62100Y-37210D01*
X61890Y-37170D02*
X61890Y-37300D01*
X61890Y-36990D02*
X61890Y-37120D01*
X61760Y-37070D02*
X62100Y-37030D01*
X62100Y-37030D02*
X62140Y-37040D01*
X62140Y-37040D02*
X62160Y-37060D01*
X62160Y-37060D02*
X62170Y-37100D01*
X61930Y-36760D02*
X61890Y-36790D01*
X61890Y-36790D02*
X61900Y-36850D01*
X61900Y-36850D02*
X61920Y-36880D01*
X61920Y-36880D02*
X61950Y-36890D01*
X61950Y-36890D02*
X62170Y-36860D01*
X61760Y-36780D02*
X62170Y-36730D01*
X61750Y-38050D02*
X62200Y-37900D01*
X61750Y-37900D02*
X62200Y-37750D01*
X62300Y-38790D02*
X62300Y-41290D01*
X62300Y-38440D02*
X62300Y-37540D01*
X62300Y-36700D02*
X62300Y-37250D01*
G54D15*
X61200Y-53100D02*
G75*
G03X61200Y-53100I-100J0D01*
G74*
G01*
X62100Y-52900D02*
X60900Y-52900D01*
X60900Y-52900D02*
X60900Y-54100D01*
X60900Y-54100D02*
X62100Y-54100D01*
X62100Y-54100D02*
X62100Y-52900D01*
G54D10*
X64000Y-53000D02*
X64000Y-52800D01*
X64000Y-52800D02*
X63800Y-52800D01*
X63800Y-52800D02*
X63800Y-53000D01*
X63800Y-53000D02*
X64000Y-53000D01*
X64000Y-53300D02*
X64000Y-53100D01*
X64000Y-53100D02*
X63800Y-53100D01*
X63800Y-53100D02*
X63800Y-53300D01*
X63800Y-53300D02*
X64000Y-53300D01*
X64000Y-53600D02*
X64000Y-53400D01*
X64000Y-53400D02*
X63800Y-53400D01*
X63800Y-53400D02*
X63800Y-53600D01*
X63800Y-53600D02*
X64000Y-53600D01*
X64000Y-53900D02*
X64000Y-53700D01*
X64000Y-53700D02*
X63800Y-53700D01*
X63800Y-53700D02*
X63800Y-53900D01*
X63800Y-53900D02*
X64000Y-53900D01*
X64000Y-54200D02*
X64000Y-54000D01*
X64000Y-54000D02*
X63800Y-54000D01*
X63800Y-54000D02*
X63800Y-54200D01*
X63800Y-54200D02*
X64000Y-54200D01*
X64250Y-54450D02*
X64250Y-54250D01*
X64250Y-54250D02*
X64050Y-54250D01*
X64050Y-54250D02*
X64050Y-54450D01*
X64050Y-54450D02*
X64250Y-54450D01*
X64550Y-54250D02*
X64350Y-54250D01*
X64350Y-54250D02*
X64350Y-54450D01*
X64350Y-54450D02*
X64550Y-54450D01*
X64550Y-54450D02*
X64550Y-54250D01*
X64850Y-54250D02*
X64650Y-54250D01*
X64650Y-54250D02*
X64650Y-54450D01*
X64650Y-54450D02*
X64850Y-54450D01*
X64850Y-54450D02*
X64850Y-54250D01*
X65100Y-54000D02*
X64900Y-54000D01*
X64900Y-54000D02*
X64900Y-54200D01*
X64900Y-54200D02*
X65100Y-54200D01*
X65100Y-54200D02*
X65100Y-54000D01*
X64900Y-53700D02*
X65100Y-53700D01*
X65100Y-53700D02*
X65100Y-53900D01*
X65100Y-53900D02*
X64900Y-53900D01*
X64900Y-53900D02*
X64900Y-53700D01*
X65100Y-53400D02*
X64900Y-53400D01*
X64900Y-53400D02*
X64900Y-53600D01*
X64900Y-53600D02*
X65100Y-53600D01*
X65100Y-53600D02*
X65100Y-53400D01*
X64900Y-53100D02*
X65100Y-53100D01*
X65100Y-53100D02*
X65100Y-53300D01*
X65100Y-53300D02*
X64900Y-53300D01*
X64900Y-53300D02*
X64900Y-53100D01*
X64350Y-53700D02*
X64550Y-53700D01*
X64550Y-53700D02*
X64550Y-53900D01*
X64550Y-53900D02*
X64350Y-53900D01*
X64350Y-53900D02*
X64350Y-53700D01*
X64350Y-53400D02*
X64350Y-53600D01*
X64350Y-53600D02*
X64550Y-53600D01*
X64350Y-53400D02*
X64550Y-53400D01*
X64550Y-53400D02*
X64550Y-53600D01*
X64550Y-53100D02*
X64350Y-53100D01*
X64350Y-53100D02*
X64350Y-53300D01*
X64350Y-53300D02*
X64550Y-53300D01*
X64550Y-53300D02*
X64550Y-53100D01*
X64550Y-52800D02*
X64350Y-52800D01*
X64350Y-52800D02*
X64350Y-53000D01*
X64350Y-53000D02*
X64550Y-53000D01*
X64550Y-53000D02*
X64550Y-52800D01*
X64800Y-52750D02*
X64800Y-52550D01*
X64800Y-52550D02*
X64600Y-52550D01*
X64600Y-52550D02*
X64600Y-52750D01*
X64600Y-52750D02*
X64800Y-52750D01*
X65100Y-52750D02*
X65100Y-52550D01*
X65100Y-52550D02*
X64900Y-52550D01*
X64900Y-52550D02*
X64900Y-52750D01*
X64900Y-52750D02*
X65100Y-52750D01*
X65400Y-52750D02*
X65400Y-52550D01*
X65400Y-52550D02*
X65200Y-52550D01*
X65200Y-52550D02*
X65200Y-52750D01*
X65200Y-52750D02*
X65400Y-52750D01*
X65650Y-53000D02*
X65450Y-53000D01*
X65450Y-53000D02*
X65450Y-52800D01*
X65450Y-52800D02*
X65650Y-52800D01*
X65650Y-52800D02*
X65650Y-53000D01*
X65650Y-53300D02*
X65450Y-53300D01*
X65450Y-53300D02*
X65450Y-53100D01*
X65450Y-53100D02*
X65650Y-53100D01*
X65650Y-53100D02*
X65650Y-53300D01*
X65650Y-53600D02*
X65450Y-53600D01*
X65450Y-53600D02*
X65450Y-53400D01*
X65450Y-53400D02*
X65650Y-53400D01*
X65650Y-53400D02*
X65650Y-53600D01*
X65650Y-53900D02*
X65450Y-53900D01*
X65450Y-53900D02*
X65450Y-53700D01*
X65450Y-53700D02*
X65650Y-53700D01*
X65650Y-53700D02*
X65650Y-53900D01*
X65650Y-54200D02*
X65450Y-54200D01*
X65450Y-54200D02*
X65450Y-54000D01*
X65450Y-54000D02*
X65650Y-54000D01*
X65650Y-54000D02*
X65650Y-54200D01*
G54D16*
X67266Y-18661D02*
X67266Y-18261D01*
X67266Y-18452D02*
X67038Y-18452D01*
X67038Y-18661D02*
X67038Y-18261D01*
X66847Y-18661D02*
X66847Y-18261D01*
X66752Y-18261D01*
X66695Y-18280D01*
X66657Y-18319D01*
X66638Y-18357D01*
X66619Y-18433D01*
X66619Y-18490D01*
X66638Y-18566D01*
X66657Y-18604D01*
X66695Y-18642D01*
X66752Y-18661D01*
X66847Y-18661D01*
X66276Y-18395D02*
X66276Y-18661D01*
X66371Y-18242D02*
X66466Y-18528D01*
X66219Y-18528D01*
X65895Y-18395D02*
X65895Y-18661D01*
X65990Y-18242D02*
X66085Y-18528D01*
X65838Y-18528D01*
X65723Y-18261D02*
X65457Y-18261D01*
X65628Y-18661D01*
X65247Y-18433D02*
X65285Y-18414D01*
X65304Y-18395D01*
X65323Y-18357D01*
X65323Y-18338D01*
X65304Y-18300D01*
X65285Y-18280D01*
X65247Y-18261D01*
X65171Y-18261D01*
X65133Y-18280D01*
X65114Y-18300D01*
X65095Y-18338D01*
X65095Y-18357D01*
X65114Y-18395D01*
X65133Y-18414D01*
X65171Y-18433D01*
X65247Y-18433D01*
X65285Y-18452D01*
X65304Y-18471D01*
X65323Y-18509D01*
X65323Y-18585D01*
X65304Y-18623D01*
X65285Y-18642D01*
X65247Y-18661D01*
X65171Y-18661D01*
X65133Y-18642D01*
X65114Y-18623D01*
X65095Y-18585D01*
X65095Y-18509D01*
X65114Y-18471D01*
X65133Y-18452D01*
X65171Y-18433D01*
X64847Y-18261D02*
X64809Y-18261D01*
X64771Y-18280D01*
X64752Y-18300D01*
X64733Y-18338D01*
X64714Y-18414D01*
X64714Y-18509D01*
X64733Y-18585D01*
X64752Y-18623D01*
X64771Y-18642D01*
X64809Y-18661D01*
X64847Y-18661D01*
X64885Y-18642D01*
X64904Y-18623D01*
X64923Y-18585D01*
X64942Y-18509D01*
X64942Y-18414D01*
X64923Y-18338D01*
X64904Y-18300D01*
X64885Y-18280D01*
X64847Y-18261D01*
G54D11*
X60621Y-52407D02*
X60321Y-52407D01*
X60535Y-52507D01*
X60321Y-52607D01*
X60621Y-52607D01*
X60607Y-52735D02*
X60621Y-52778D01*
X60621Y-52850D01*
X60607Y-52878D01*
X60592Y-52892D01*
X60564Y-52907D01*
X60535Y-52907D01*
X60507Y-52892D01*
X60492Y-52878D01*
X60478Y-52850D01*
X60464Y-52792D01*
X60450Y-52764D01*
X60435Y-52750D01*
X60407Y-52735D01*
X60378Y-52735D01*
X60350Y-52750D01*
X60335Y-52764D01*
X60321Y-52792D01*
X60321Y-52864D01*
X60335Y-52907D01*
X60607Y-53021D02*
X60621Y-53064D01*
X60621Y-53135D01*
X60607Y-53164D01*
X60592Y-53178D01*
X60564Y-53192D01*
X60535Y-53192D01*
X60507Y-53178D01*
X60492Y-53164D01*
X60478Y-53135D01*
X60464Y-53078D01*
X60450Y-53050D01*
X60435Y-53035D01*
X60407Y-53021D01*
X60378Y-53021D01*
X60350Y-53035D01*
X60335Y-53050D01*
X60321Y-53078D01*
X60321Y-53150D01*
X60335Y-53192D01*
X60321Y-53378D02*
X60321Y-53435D01*
X60335Y-53464D01*
X60364Y-53492D01*
X60421Y-53507D01*
X60521Y-53507D01*
X60578Y-53492D01*
X60607Y-53464D01*
X60621Y-53435D01*
X60621Y-53378D01*
X60607Y-53350D01*
X60578Y-53321D01*
X60521Y-53307D01*
X60421Y-53307D01*
X60364Y-53321D01*
X60335Y-53350D01*
X60321Y-53378D01*
X60621Y-53635D02*
X60321Y-53635D01*
X60321Y-53750D01*
X60335Y-53778D01*
X60350Y-53792D01*
X60378Y-53807D01*
X60421Y-53807D01*
X60450Y-53792D01*
X60464Y-53778D01*
X60478Y-53750D01*
X60478Y-53635D01*
X60650Y-53864D02*
X60650Y-54092D01*
X60621Y-54321D02*
X60621Y-54150D01*
X60621Y-54235D02*
X60321Y-54235D01*
X60364Y-54207D01*
X60392Y-54178D01*
X60407Y-54150D01*
X60321Y-54507D02*
X60321Y-54535D01*
X60335Y-54564D01*
X60350Y-54578D01*
X60378Y-54592D01*
X60435Y-54607D01*
X60507Y-54607D01*
X60564Y-54592D01*
X60592Y-54578D01*
X60607Y-54564D01*
X60621Y-54535D01*
X60621Y-54507D01*
X60607Y-54478D01*
X60592Y-54464D01*
X60564Y-54450D01*
X60507Y-54435D01*
X60435Y-54435D01*
X60378Y-54450D01*
X60350Y-54464D01*
X60335Y-54478D01*
X60321Y-54507D01*
M02*
