G04 (created by PCBNEW (2013-dec-23)-stable) date Thu 04 Sep 2014 08:14:04 PM MDT*
%MOIN*%
G04 Gerber Fmt 3.4, Leading zero omitted, Abs format*
%FSLAX34Y34*%
G01*
G70*
G90*
G04 APERTURE LIST*
%ADD10C,0.00590551*%
%ADD11C,0.08*%
%ADD12C,0.06*%
%ADD13R,0.065X0.065*%
%ADD14C,0.065*%
%ADD15R,0.06X0.06*%
%ADD16R,0.0394X0.0315*%
%ADD17C,0.16*%
%ADD18C,0.075*%
%ADD19R,0.055X0.055*%
%ADD20C,0.055*%
%ADD21R,0.0433071X0.0984252*%
%ADD22R,0.045X0.025*%
%ADD23R,0.025X0.045*%
%ADD24R,0.0472X0.0472*%
%ADD25R,0.02X0.03*%
%ADD26R,0.08X0.06*%
%ADD27R,0.055X0.035*%
%ADD28R,0.0354331X0.0551181*%
%ADD29R,0.0866142X0.0551181*%
%ADD30R,0.07X0.07*%
%ADD31R,0.0433071X0.0551181*%
%ADD32R,0.06X0.08*%
%ADD33C,0.03*%
%ADD34C,0.01*%
%ADD35C,0.05*%
%ADD36C,0.025*%
%ADD37C,0.02*%
%ADD38C,0.04*%
%ADD39C,0.03*%
%ADD40C,0.013*%
G04 APERTURE END LIST*
G54D10*
G54D11*
X19500Y-6500D03*
X19500Y-7500D03*
G54D12*
X22000Y-20750D03*
X23000Y-20750D03*
X24000Y-20750D03*
X25000Y-20750D03*
X21000Y-20750D03*
X20000Y-20750D03*
X19000Y-20750D03*
X18000Y-20750D03*
X15000Y-20750D03*
X16000Y-20750D03*
X17000Y-20750D03*
G54D13*
X16787Y-6250D03*
G54D14*
X15212Y-6250D03*
G54D12*
X18500Y-13000D03*
X18500Y-14000D03*
X18500Y-15000D03*
X18500Y-16000D03*
X18500Y-17000D03*
X18500Y-18000D03*
X22500Y-13000D03*
X21500Y-13000D03*
X20500Y-13000D03*
G54D13*
X30712Y-6250D03*
G54D14*
X32287Y-6250D03*
G54D15*
X27750Y-24000D03*
G54D12*
X28750Y-24000D03*
X29750Y-24000D03*
X30750Y-24000D03*
X31750Y-24000D03*
X32750Y-24000D03*
G54D15*
X24956Y-22750D03*
G54D12*
X25744Y-22750D03*
X26531Y-22750D03*
X27318Y-22750D03*
X28106Y-22750D03*
X28893Y-22750D03*
X29681Y-22750D03*
X30468Y-22750D03*
X31255Y-22750D03*
X32043Y-22750D03*
X14750Y-24500D03*
X15750Y-24500D03*
G54D15*
X17250Y-24500D03*
G54D12*
X18250Y-24500D03*
X19250Y-24500D03*
X20250Y-24500D03*
X21250Y-24500D03*
X22250Y-24500D03*
G54D16*
X27433Y-13000D03*
X26567Y-13375D03*
X26567Y-12625D03*
G54D17*
X32250Y-19000D03*
G54D16*
X27433Y-11000D03*
X26567Y-11375D03*
X26567Y-10625D03*
G54D17*
X15250Y-19000D03*
G54D12*
X21000Y-7750D03*
X21000Y-6750D03*
X22000Y-7750D03*
X22000Y-6750D03*
X23000Y-7750D03*
X23000Y-6750D03*
G54D18*
X17250Y-13750D03*
X17250Y-12750D03*
X17250Y-11750D03*
X16250Y-13750D03*
X16250Y-12750D03*
X16250Y-11750D03*
X15250Y-13750D03*
X15250Y-12750D03*
X15250Y-11750D03*
X17250Y-10250D03*
X17250Y-9250D03*
X17250Y-8250D03*
X16250Y-10250D03*
X16250Y-9250D03*
X16250Y-8250D03*
X15250Y-10250D03*
X15250Y-9250D03*
X15250Y-8250D03*
X17250Y-17250D03*
X17250Y-16250D03*
X17250Y-15250D03*
X16250Y-17250D03*
X16250Y-16250D03*
X16250Y-15250D03*
X15250Y-17250D03*
X15250Y-16250D03*
X15250Y-15250D03*
X30250Y-8250D03*
X30250Y-9250D03*
X30250Y-10250D03*
X31250Y-8250D03*
X31250Y-9250D03*
X31250Y-10250D03*
X32250Y-8250D03*
X32250Y-9250D03*
X32250Y-10250D03*
X30250Y-11750D03*
X30250Y-12750D03*
X30250Y-13750D03*
X31250Y-11750D03*
X31250Y-12750D03*
X31250Y-13750D03*
X32250Y-11750D03*
X32250Y-12750D03*
X32250Y-13750D03*
X30250Y-15250D03*
X30250Y-16250D03*
X30250Y-17250D03*
X31250Y-15250D03*
X31250Y-16250D03*
X31250Y-17250D03*
X32250Y-15250D03*
X32250Y-16250D03*
X32250Y-17250D03*
G54D10*
G36*
X23177Y-18435D02*
X22753Y-18859D01*
X22640Y-18746D01*
X23064Y-18322D01*
X23177Y-18435D01*
X23177Y-18435D01*
G37*
G36*
X23400Y-18658D02*
X22976Y-19082D01*
X22863Y-18969D01*
X23287Y-18545D01*
X23400Y-18658D01*
X23400Y-18658D01*
G37*
G36*
X23623Y-18880D02*
X23198Y-19305D01*
X23085Y-19192D01*
X23510Y-18767D01*
X23623Y-18880D01*
X23623Y-18880D01*
G37*
G36*
X23845Y-19103D02*
X23421Y-19527D01*
X23308Y-19414D01*
X23732Y-18990D01*
X23845Y-19103D01*
X23845Y-19103D01*
G37*
G36*
X24068Y-19326D02*
X23644Y-19750D01*
X23531Y-19637D01*
X23955Y-19213D01*
X24068Y-19326D01*
X24068Y-19326D01*
G37*
G36*
X24291Y-19549D02*
X23867Y-19973D01*
X23754Y-19860D01*
X24178Y-19435D01*
X24291Y-19549D01*
X24291Y-19549D01*
G37*
G36*
X22954Y-18212D02*
X22530Y-18636D01*
X22417Y-18523D01*
X22841Y-18099D01*
X22954Y-18212D01*
X22954Y-18212D01*
G37*
G36*
X22732Y-17989D02*
X22307Y-18414D01*
X22194Y-18301D01*
X22619Y-17876D01*
X22732Y-17989D01*
X22732Y-17989D01*
G37*
G36*
X22509Y-17767D02*
X22085Y-18191D01*
X21972Y-18078D01*
X22396Y-17654D01*
X22509Y-17767D01*
X22509Y-17767D01*
G37*
G36*
X22286Y-17544D02*
X21862Y-17968D01*
X21749Y-17855D01*
X22173Y-17431D01*
X22286Y-17544D01*
X22286Y-17544D01*
G37*
G36*
X22064Y-17321D02*
X21639Y-17745D01*
X21526Y-17632D01*
X21950Y-17208D01*
X22064Y-17321D01*
X22064Y-17321D01*
G37*
G36*
X26359Y-15253D02*
X25935Y-15677D01*
X25822Y-15564D01*
X26246Y-15140D01*
X26359Y-15253D01*
X26359Y-15253D01*
G37*
G36*
X26582Y-15476D02*
X26158Y-15900D01*
X26045Y-15787D01*
X26469Y-15363D01*
X26582Y-15476D01*
X26582Y-15476D01*
G37*
G36*
X26805Y-15698D02*
X26380Y-16123D01*
X26267Y-16010D01*
X26692Y-15585D01*
X26805Y-15698D01*
X26805Y-15698D01*
G37*
G36*
X27027Y-15921D02*
X26603Y-16345D01*
X26490Y-16232D01*
X26914Y-15808D01*
X27027Y-15921D01*
X27027Y-15921D01*
G37*
G36*
X27250Y-16144D02*
X26826Y-16568D01*
X26713Y-16455D01*
X27137Y-16031D01*
X27250Y-16144D01*
X27250Y-16144D01*
G37*
G36*
X27473Y-16367D02*
X27049Y-16791D01*
X26935Y-16678D01*
X27360Y-16254D01*
X27473Y-16367D01*
X27473Y-16367D01*
G37*
G36*
X26136Y-15030D02*
X25712Y-15454D01*
X25599Y-15341D01*
X26023Y-14917D01*
X26136Y-15030D01*
X26136Y-15030D01*
G37*
G36*
X25914Y-14807D02*
X25489Y-15232D01*
X25376Y-15119D01*
X25801Y-14694D01*
X25914Y-14807D01*
X25914Y-14807D01*
G37*
G36*
X25691Y-14585D02*
X25267Y-15009D01*
X25154Y-14896D01*
X25578Y-14472D01*
X25691Y-14585D01*
X25691Y-14585D01*
G37*
G36*
X25468Y-14362D02*
X25044Y-14786D01*
X24931Y-14673D01*
X25355Y-14249D01*
X25468Y-14362D01*
X25468Y-14362D01*
G37*
G36*
X25245Y-14139D02*
X24821Y-14564D01*
X24708Y-14450D01*
X25132Y-14026D01*
X25245Y-14139D01*
X25245Y-14139D01*
G37*
G36*
X26359Y-18746D02*
X26246Y-18859D01*
X25822Y-18435D01*
X25935Y-18322D01*
X26359Y-18746D01*
X26359Y-18746D01*
G37*
G36*
X23177Y-15564D02*
X23064Y-15677D01*
X22640Y-15253D01*
X22753Y-15140D01*
X23177Y-15564D01*
X23177Y-15564D01*
G37*
G36*
X26582Y-18523D02*
X26469Y-18636D01*
X26045Y-18212D01*
X26158Y-18099D01*
X26582Y-18523D01*
X26582Y-18523D01*
G37*
G36*
X23400Y-15341D02*
X23287Y-15454D01*
X22863Y-15030D01*
X22976Y-14917D01*
X23400Y-15341D01*
X23400Y-15341D01*
G37*
G36*
X23623Y-15119D02*
X23510Y-15232D01*
X23085Y-14807D01*
X23198Y-14694D01*
X23623Y-15119D01*
X23623Y-15119D01*
G37*
G36*
X26805Y-18301D02*
X26692Y-18414D01*
X26267Y-17989D01*
X26380Y-17876D01*
X26805Y-18301D01*
X26805Y-18301D01*
G37*
G36*
X27027Y-18078D02*
X26914Y-18191D01*
X26490Y-17767D01*
X26603Y-17654D01*
X27027Y-18078D01*
X27027Y-18078D01*
G37*
G36*
X23845Y-14896D02*
X23732Y-15009D01*
X23308Y-14585D01*
X23421Y-14472D01*
X23845Y-14896D01*
X23845Y-14896D01*
G37*
G36*
X24068Y-14673D02*
X23955Y-14786D01*
X23531Y-14362D01*
X23644Y-14249D01*
X24068Y-14673D01*
X24068Y-14673D01*
G37*
G36*
X27250Y-17855D02*
X27137Y-17968D01*
X26713Y-17544D01*
X26826Y-17431D01*
X27250Y-17855D01*
X27250Y-17855D01*
G37*
G36*
X27473Y-17632D02*
X27360Y-17745D01*
X26935Y-17321D01*
X27049Y-17208D01*
X27473Y-17632D01*
X27473Y-17632D01*
G37*
G36*
X24291Y-14450D02*
X24178Y-14564D01*
X23754Y-14139D01*
X23867Y-14026D01*
X24291Y-14450D01*
X24291Y-14450D01*
G37*
G36*
X22954Y-15787D02*
X22841Y-15900D01*
X22417Y-15476D01*
X22530Y-15363D01*
X22954Y-15787D01*
X22954Y-15787D01*
G37*
G36*
X26136Y-18969D02*
X26023Y-19082D01*
X25599Y-18658D01*
X25712Y-18545D01*
X26136Y-18969D01*
X26136Y-18969D01*
G37*
G36*
X25914Y-19192D02*
X25801Y-19305D01*
X25376Y-18880D01*
X25489Y-18767D01*
X25914Y-19192D01*
X25914Y-19192D01*
G37*
G36*
X22732Y-16010D02*
X22619Y-16123D01*
X22194Y-15698D01*
X22307Y-15585D01*
X22732Y-16010D01*
X22732Y-16010D01*
G37*
G36*
X22509Y-16232D02*
X22396Y-16345D01*
X21972Y-15921D01*
X22085Y-15808D01*
X22509Y-16232D01*
X22509Y-16232D01*
G37*
G36*
X25691Y-19414D02*
X25578Y-19527D01*
X25154Y-19103D01*
X25267Y-18990D01*
X25691Y-19414D01*
X25691Y-19414D01*
G37*
G36*
X25468Y-19637D02*
X25355Y-19750D01*
X24931Y-19326D01*
X25044Y-19213D01*
X25468Y-19637D01*
X25468Y-19637D01*
G37*
G36*
X22286Y-16455D02*
X22173Y-16568D01*
X21749Y-16144D01*
X21862Y-16031D01*
X22286Y-16455D01*
X22286Y-16455D01*
G37*
G36*
X22064Y-16678D02*
X21950Y-16791D01*
X21526Y-16367D01*
X21639Y-16254D01*
X22064Y-16678D01*
X22064Y-16678D01*
G37*
G36*
X25245Y-19860D02*
X25132Y-19973D01*
X24708Y-19549D01*
X24821Y-19435D01*
X25245Y-19860D01*
X25245Y-19860D01*
G37*
G54D12*
X30750Y-19750D03*
X30750Y-20750D03*
X29750Y-19750D03*
X29750Y-20750D03*
X28750Y-19750D03*
X28750Y-20750D03*
G54D19*
X20500Y-9750D03*
G54D20*
X19500Y-9750D03*
X19500Y-10750D03*
G54D12*
X27957Y-18542D03*
X26542Y-19957D03*
X27250Y-19250D03*
G54D21*
X15791Y-22750D03*
X16381Y-22750D03*
X16972Y-22750D03*
X17562Y-22750D03*
X18153Y-22750D03*
X18744Y-22750D03*
X19334Y-22750D03*
X19925Y-22750D03*
X20515Y-22750D03*
X21106Y-22750D03*
X21696Y-22750D03*
X22287Y-22750D03*
X22877Y-22750D03*
G54D22*
X28250Y-10450D03*
X28250Y-11050D03*
X27000Y-7050D03*
X27000Y-6450D03*
X28750Y-16950D03*
X28750Y-17550D03*
X28000Y-16950D03*
X28000Y-17550D03*
G54D23*
X26950Y-14250D03*
X27550Y-14250D03*
G54D22*
X29250Y-18200D03*
X29250Y-18800D03*
X20750Y-13950D03*
X20750Y-14550D03*
G54D23*
X20200Y-11250D03*
X20800Y-11250D03*
X20200Y-12000D03*
X20800Y-12000D03*
X20200Y-16500D03*
X20800Y-16500D03*
X20200Y-17250D03*
X20800Y-17250D03*
X26450Y-8250D03*
X27050Y-8250D03*
X26450Y-9750D03*
X27050Y-9750D03*
X26450Y-9000D03*
X27050Y-9000D03*
G54D24*
X28663Y-7000D03*
X27837Y-7000D03*
G54D25*
X24625Y-9250D03*
X25375Y-9250D03*
X24625Y-8250D03*
X25000Y-9250D03*
X25375Y-8250D03*
G54D26*
X22750Y-10600D03*
X22750Y-11900D03*
G54D12*
X24500Y-12000D03*
X25500Y-12000D03*
G54D27*
X21650Y-10825D03*
X21650Y-11575D03*
G54D28*
X23797Y-10250D03*
G54D29*
X24801Y-10250D03*
G54D30*
X21650Y-9500D03*
X22850Y-9500D03*
G54D15*
X24750Y-7000D03*
G54D12*
X25750Y-7000D03*
G54D31*
X27954Y-9340D03*
X28545Y-9340D03*
X28545Y-8159D03*
X27954Y-8159D03*
G54D22*
X30000Y-18800D03*
X30000Y-18200D03*
X21500Y-13950D03*
X21500Y-14550D03*
G54D32*
X18400Y-19250D03*
X17100Y-19250D03*
G54D33*
X22250Y-14750D03*
X30750Y-18250D03*
X24300Y-17250D03*
X23800Y-16750D03*
X25150Y-18100D03*
X20250Y-16500D03*
X18500Y-19000D03*
X20250Y-18000D03*
X26250Y-17250D03*
X28750Y-10250D03*
X26750Y-14250D03*
X26750Y-17000D03*
X22750Y-23500D03*
X21500Y-18500D03*
X21000Y-18250D03*
X22000Y-18750D03*
X24500Y-15500D03*
X24500Y-15000D03*
X29250Y-18750D03*
X26100Y-19550D03*
X20250Y-17250D03*
X17000Y-19000D03*
X26750Y-12000D03*
X20750Y-13750D03*
X23750Y-17750D03*
X23750Y-16000D03*
X24500Y-16500D03*
X25750Y-17750D03*
X26420Y-19250D03*
X27500Y-11750D03*
X25750Y-13500D03*
G54D34*
X19500Y-10750D02*
X19500Y-11750D01*
X19750Y-12000D02*
X20200Y-12000D01*
X19500Y-11750D02*
X19750Y-12000D01*
G54D35*
X21650Y-10825D02*
X21650Y-9500D01*
G54D34*
X22250Y-14750D02*
X22250Y-13500D01*
X20500Y-13000D02*
X20500Y-12750D01*
X22000Y-12750D02*
X22000Y-13250D01*
X21750Y-12500D02*
X22000Y-12750D01*
X20750Y-12500D02*
X21750Y-12500D01*
X20500Y-12750D02*
X20750Y-12500D01*
X22000Y-13250D02*
X22250Y-13500D01*
X20200Y-12000D02*
X20200Y-12700D01*
X20200Y-12700D02*
X20500Y-13000D01*
G54D36*
X21650Y-9500D02*
X21650Y-9400D01*
X21650Y-9400D02*
X21250Y-9000D01*
X21250Y-9000D02*
X19250Y-9000D01*
X19250Y-9000D02*
X18750Y-9500D01*
X18750Y-9500D02*
X18750Y-10250D01*
X18750Y-10250D02*
X19250Y-10750D01*
X19250Y-10750D02*
X19500Y-10750D01*
G54D37*
X25000Y-8000D02*
X25000Y-9250D01*
X24750Y-7750D02*
X25000Y-8000D01*
X24750Y-7750D02*
X24750Y-7000D01*
X30700Y-18200D02*
X30000Y-18200D01*
X30750Y-18250D02*
X30700Y-18200D01*
X29250Y-18200D02*
X30000Y-18200D01*
G54D34*
X23250Y-17250D02*
X23250Y-17804D01*
X23250Y-17804D02*
X22686Y-18368D01*
X28250Y-7500D02*
X26500Y-7500D01*
X26500Y-7500D02*
X25750Y-8250D01*
X25750Y-8500D02*
X25500Y-8750D01*
X25250Y-8750D02*
X25500Y-8750D01*
X25000Y-9000D02*
X25250Y-8750D01*
X25000Y-9250D02*
X25000Y-9000D01*
X25750Y-8250D02*
X25750Y-8500D01*
G54D38*
X22500Y-13000D02*
X23000Y-13000D01*
X23500Y-12500D02*
X23500Y-11000D01*
X23000Y-13000D02*
X23500Y-12500D01*
G54D37*
X22500Y-13000D02*
X22500Y-13300D01*
X22600Y-14654D02*
X23131Y-15186D01*
X22600Y-13400D02*
X22600Y-14654D01*
X22500Y-13300D02*
X22600Y-13400D01*
G54D38*
X24801Y-10250D02*
X24801Y-9301D01*
G54D36*
X24801Y-9301D02*
X24750Y-9250D01*
X24625Y-9250D02*
X24750Y-9250D01*
X24750Y-9250D02*
X25000Y-9250D01*
G54D34*
X28663Y-7000D02*
X28663Y-7087D01*
X28663Y-7087D02*
X28250Y-7500D01*
G54D38*
X24801Y-10250D02*
X24801Y-10698D01*
X24500Y-11000D02*
X23500Y-11000D01*
X24801Y-10698D02*
X24500Y-11000D01*
G54D36*
X23500Y-11000D02*
X23600Y-11000D01*
G54D38*
X23600Y-11000D02*
X23150Y-11000D01*
X23150Y-11000D02*
X22750Y-10600D01*
G54D34*
X28545Y-9340D02*
X28659Y-9340D01*
X28659Y-9340D02*
X29000Y-9000D01*
X29000Y-9000D02*
X29000Y-7337D01*
X29000Y-7337D02*
X28663Y-7000D01*
X21000Y-20750D02*
X21500Y-21250D01*
X21500Y-21250D02*
X24250Y-21250D01*
X24250Y-21250D02*
X24500Y-21000D01*
X24500Y-21000D02*
X24500Y-18750D01*
X24500Y-18750D02*
X25150Y-18100D01*
X23800Y-16750D02*
X23750Y-16750D01*
X23750Y-16750D02*
X23250Y-17250D01*
X23800Y-16750D02*
X23800Y-16700D01*
G54D37*
X23800Y-16700D02*
X24250Y-16250D01*
X24250Y-16250D02*
X24250Y-16000D01*
X24250Y-16000D02*
X23750Y-15500D01*
X23750Y-15500D02*
X23445Y-15500D01*
X23445Y-15500D02*
X23131Y-15186D01*
G54D34*
X25154Y-18100D02*
X25868Y-18813D01*
X25150Y-18100D02*
X25154Y-18100D01*
X24300Y-17250D02*
X24300Y-17200D01*
X24300Y-17200D02*
X26090Y-15409D01*
X26090Y-15459D02*
X26090Y-15409D01*
X20250Y-16500D02*
X20200Y-16500D01*
X20200Y-11250D02*
X20200Y-10450D01*
X20200Y-10450D02*
X19500Y-9750D01*
G54D39*
X16250Y-17250D02*
X16250Y-18250D01*
X16000Y-20250D02*
X16000Y-20750D01*
X16500Y-19750D02*
X16000Y-20250D01*
X16500Y-18500D02*
X16500Y-19750D01*
X16250Y-18250D02*
X16500Y-18500D01*
G54D35*
X16250Y-17250D02*
X16250Y-16250D01*
X16250Y-16250D02*
X16250Y-15250D01*
X16250Y-15250D02*
X16250Y-13750D01*
X16250Y-13750D02*
X16250Y-12750D01*
X16250Y-12750D02*
X16250Y-11750D01*
X16250Y-11750D02*
X16250Y-10250D01*
X16250Y-10250D02*
X16250Y-9250D01*
X16250Y-9250D02*
X16250Y-8250D01*
X31250Y-9250D02*
X31250Y-10250D01*
X31250Y-10250D02*
X31250Y-11750D01*
X31250Y-11750D02*
X31250Y-12750D01*
X31250Y-12750D02*
X31250Y-13750D01*
X31250Y-13750D02*
X31250Y-15250D01*
X31250Y-15250D02*
X31250Y-16250D01*
X31250Y-16250D02*
X31250Y-17250D01*
X31250Y-8250D02*
X31250Y-9250D01*
G54D34*
X18500Y-19000D02*
X18400Y-19000D01*
X20800Y-16500D02*
X20800Y-17250D01*
X20800Y-17250D02*
X21250Y-17250D01*
X22750Y-16140D02*
X22463Y-15854D01*
X22750Y-16500D02*
X22750Y-16140D01*
X22250Y-17000D02*
X22750Y-16500D01*
X21500Y-17000D02*
X22250Y-17000D01*
X21250Y-17250D02*
X21500Y-17000D01*
X20800Y-17450D02*
X20800Y-17250D01*
X20250Y-18000D02*
X20800Y-17450D01*
X21500Y-15000D02*
X21000Y-15000D01*
X20750Y-14750D02*
X20750Y-14550D01*
X21000Y-15000D02*
X20750Y-14750D01*
X22304Y-15250D02*
X22686Y-15631D01*
X21750Y-15250D02*
X22304Y-15250D01*
X21500Y-15000D02*
X21750Y-15250D01*
X28750Y-10250D02*
X28500Y-10500D01*
X26759Y-17922D02*
X26250Y-17413D01*
X26250Y-17250D02*
X26250Y-17413D01*
X28300Y-10500D02*
X28250Y-10450D01*
X28500Y-10500D02*
X28300Y-10500D01*
X27433Y-11000D02*
X27433Y-10817D01*
X27800Y-10450D02*
X28250Y-10450D01*
X27433Y-10817D02*
X27800Y-10450D01*
X26950Y-14250D02*
X26750Y-14250D01*
X26750Y-17000D02*
X26750Y-17468D01*
X26750Y-17468D02*
X26981Y-17700D01*
X22877Y-23372D02*
X22877Y-22750D01*
X22750Y-23500D02*
X22877Y-23372D01*
X21500Y-18500D02*
X21663Y-18500D01*
X21663Y-18500D02*
X22240Y-17922D01*
X21250Y-18000D02*
X21718Y-18000D01*
X21718Y-18000D02*
X22018Y-17700D01*
X21000Y-18250D02*
X21250Y-18000D01*
X22000Y-18750D02*
X22000Y-18609D01*
X22000Y-18609D02*
X22463Y-18145D01*
X24500Y-15500D02*
X25109Y-15500D01*
X25109Y-15500D02*
X25645Y-14963D01*
X25409Y-14740D02*
X25422Y-14740D01*
X25150Y-15000D02*
X25409Y-14740D01*
X24500Y-15000D02*
X25150Y-15000D01*
X26000Y-9750D02*
X26000Y-9250D01*
X26250Y-9000D02*
X26450Y-9000D01*
X26000Y-9250D02*
X26250Y-9000D01*
X23250Y-13750D02*
X24500Y-12500D01*
X25750Y-10000D02*
X26000Y-9750D01*
X25750Y-11000D02*
X25750Y-10000D01*
X25000Y-11750D02*
X25750Y-11000D01*
X25000Y-12250D02*
X25000Y-11750D01*
X24750Y-12500D02*
X25000Y-12250D01*
X24500Y-12500D02*
X24750Y-12500D01*
X23250Y-14413D02*
X23577Y-14740D01*
X23250Y-13750D02*
X23250Y-14413D01*
X27050Y-9000D02*
X27250Y-9000D01*
X28545Y-8454D02*
X28545Y-8159D01*
X28250Y-8750D02*
X28545Y-8454D01*
X27500Y-8750D02*
X28250Y-8750D01*
X27250Y-9000D02*
X27500Y-8750D01*
X25750Y-9000D02*
X26000Y-8750D01*
X26250Y-8250D02*
X26450Y-8250D01*
X26000Y-8500D02*
X26250Y-8250D01*
X26000Y-8750D02*
X26000Y-8500D01*
X24000Y-11750D02*
X24250Y-11500D01*
X23000Y-13500D02*
X24000Y-12500D01*
X24750Y-11500D02*
X25500Y-10750D01*
X24250Y-11500D02*
X24750Y-11500D01*
X24000Y-12500D02*
X24000Y-11750D01*
X25500Y-10750D02*
X25500Y-9750D01*
X25500Y-9750D02*
X25750Y-9500D01*
X25750Y-9500D02*
X25750Y-9000D01*
X23000Y-14609D02*
X23354Y-14963D01*
X23000Y-13500D02*
X23000Y-14609D01*
X27050Y-8250D02*
X27864Y-8250D01*
X27864Y-8250D02*
X27954Y-8159D01*
X25000Y-12750D02*
X25250Y-12500D01*
X24750Y-12750D02*
X23500Y-14000D01*
X23500Y-14000D02*
X23500Y-14218D01*
X23799Y-14518D02*
X23500Y-14218D01*
X24750Y-12750D02*
X25000Y-12750D01*
X26450Y-9800D02*
X26450Y-9750D01*
X26000Y-10250D02*
X26450Y-9800D01*
X26000Y-12250D02*
X26000Y-10250D01*
X25750Y-12500D02*
X26000Y-12250D01*
X25250Y-12500D02*
X25750Y-12500D01*
X27050Y-9750D02*
X27250Y-9750D01*
X27659Y-9340D02*
X27954Y-9340D01*
X27250Y-9750D02*
X27659Y-9340D01*
X26000Y-20750D02*
X27500Y-20750D01*
X28000Y-20250D02*
X30500Y-20250D01*
X27500Y-20750D02*
X28000Y-20250D01*
X25500Y-20000D02*
X25750Y-20250D01*
X25750Y-20250D02*
X25750Y-20500D01*
X25750Y-20500D02*
X26000Y-20750D01*
X25500Y-19781D02*
X25500Y-20000D01*
X30750Y-20000D02*
X30750Y-19750D01*
X30500Y-20250D02*
X30750Y-20000D01*
X25500Y-19781D02*
X25200Y-19481D01*
X25500Y-20750D02*
X25500Y-20500D01*
X25500Y-20500D02*
X25250Y-20250D01*
X25250Y-20250D02*
X25250Y-19977D01*
X25250Y-19977D02*
X24977Y-19704D01*
X28500Y-21250D02*
X28250Y-21000D01*
X25750Y-21000D02*
X25500Y-20750D01*
X28250Y-21000D02*
X25750Y-21000D01*
X28500Y-21250D02*
X29500Y-21250D01*
X29750Y-21000D02*
X29750Y-20750D01*
X29500Y-21250D02*
X29750Y-21000D01*
X17250Y-10250D02*
X18000Y-11000D01*
X21022Y-15750D02*
X21795Y-16522D01*
X20000Y-15750D02*
X21022Y-15750D01*
X19750Y-15500D02*
X20000Y-15750D01*
X19750Y-15000D02*
X19750Y-15500D01*
X19500Y-14750D02*
X19750Y-15000D01*
X19500Y-14250D02*
X19500Y-14750D01*
X19250Y-14000D02*
X19500Y-14250D01*
X19250Y-13500D02*
X19250Y-14000D01*
X19000Y-13250D02*
X19250Y-13500D01*
X19000Y-12750D02*
X19000Y-13250D01*
X18750Y-12500D02*
X19000Y-12750D01*
X18500Y-12500D02*
X18750Y-12500D01*
X18000Y-12000D02*
X18500Y-12500D01*
X18000Y-11000D02*
X18000Y-12000D01*
X18250Y-11750D02*
X18750Y-12250D01*
X17250Y-9250D02*
X18000Y-10000D01*
X21218Y-15500D02*
X22018Y-16299D01*
X20250Y-15500D02*
X21218Y-15500D01*
X20000Y-15250D02*
X20250Y-15500D01*
X20000Y-14750D02*
X20000Y-15250D01*
X19750Y-14500D02*
X20000Y-14750D01*
X19750Y-14000D02*
X19750Y-14500D01*
X19500Y-13750D02*
X19750Y-14000D01*
X19500Y-13250D02*
X19500Y-13750D01*
X19250Y-13000D02*
X19500Y-13250D01*
X19250Y-12500D02*
X19250Y-13000D01*
X19000Y-12250D02*
X19250Y-12500D01*
X18750Y-12250D02*
X19000Y-12250D01*
X18250Y-10750D02*
X18250Y-11750D01*
X18000Y-10500D02*
X18250Y-10750D01*
X18000Y-10000D02*
X18000Y-10500D01*
X17250Y-8250D02*
X18250Y-9250D01*
X21413Y-15250D02*
X22240Y-16077D01*
X20500Y-15250D02*
X21413Y-15250D01*
X20250Y-15000D02*
X20500Y-15250D01*
X20250Y-14500D02*
X20250Y-15000D01*
X20000Y-14250D02*
X20250Y-14500D01*
X20000Y-13750D02*
X20000Y-14250D01*
X19750Y-13500D02*
X20000Y-13750D01*
X19750Y-13000D02*
X19750Y-13500D01*
X19500Y-12750D02*
X19750Y-13000D01*
X19500Y-12250D02*
X19500Y-12750D01*
X19250Y-12000D02*
X19500Y-12250D01*
X19000Y-12000D02*
X19250Y-12000D01*
X18500Y-11500D02*
X19000Y-12000D01*
X18500Y-10500D02*
X18500Y-11500D01*
X18250Y-10250D02*
X18500Y-10500D01*
X18250Y-9250D02*
X18250Y-10250D01*
X26850Y-13000D02*
X27000Y-12850D01*
X27500Y-12250D02*
X27250Y-12250D01*
X27000Y-12500D02*
X27000Y-12850D01*
X27250Y-12250D02*
X27000Y-12500D01*
X29000Y-11500D02*
X28500Y-12000D01*
X30000Y-8250D02*
X29500Y-8750D01*
X29500Y-8750D02*
X29500Y-9500D01*
X29500Y-9500D02*
X29250Y-9750D01*
X29250Y-9750D02*
X29250Y-10750D01*
X29250Y-10750D02*
X29000Y-11000D01*
X30250Y-8250D02*
X30000Y-8250D01*
X29000Y-11500D02*
X29000Y-11000D01*
X27750Y-12000D02*
X27500Y-12250D01*
X28500Y-12000D02*
X27750Y-12000D01*
X26850Y-13000D02*
X25000Y-13000D01*
X24022Y-13977D02*
X24022Y-14295D01*
X25000Y-13000D02*
X24022Y-13977D01*
X28750Y-12750D02*
X28750Y-13750D01*
X25272Y-14000D02*
X24977Y-14295D01*
X26000Y-14000D02*
X25272Y-14000D01*
X26750Y-14750D02*
X26000Y-14000D01*
X28250Y-14750D02*
X26750Y-14750D01*
X28500Y-14500D02*
X28250Y-14750D01*
X28500Y-14000D02*
X28500Y-14500D01*
X28750Y-13750D02*
X28500Y-14000D01*
X29000Y-12000D02*
X29000Y-12500D01*
X29000Y-12500D02*
X28750Y-12750D01*
X29500Y-10000D02*
X29500Y-11000D01*
X29250Y-11250D02*
X29250Y-11750D01*
X29250Y-11750D02*
X29000Y-12000D01*
X29500Y-11000D02*
X29250Y-11250D01*
X30250Y-9250D02*
X29500Y-10000D01*
X28500Y-15000D02*
X26500Y-15000D01*
X26500Y-15000D02*
X25750Y-14250D01*
X29000Y-13000D02*
X29000Y-14000D01*
X25468Y-14250D02*
X25200Y-14518D01*
X25750Y-14250D02*
X25468Y-14250D01*
X28750Y-14750D02*
X28500Y-15000D01*
X28750Y-14250D02*
X28750Y-14750D01*
X29000Y-14000D02*
X28750Y-14250D01*
X29000Y-13000D02*
X29250Y-12750D01*
X29500Y-12000D02*
X29500Y-11500D01*
X29250Y-12250D02*
X29500Y-12000D01*
X29250Y-12750D02*
X29250Y-12250D01*
X30250Y-10250D02*
X30250Y-10750D01*
X30250Y-10750D02*
X29500Y-11500D01*
X17250Y-13750D02*
X17250Y-14250D01*
X18000Y-15000D02*
X18000Y-15250D01*
X17250Y-14250D02*
X18000Y-15000D01*
X18000Y-15250D02*
X18250Y-15500D01*
X22890Y-19500D02*
X23354Y-19036D01*
X18250Y-15500D02*
X18750Y-15500D01*
X18750Y-15500D02*
X19000Y-15750D01*
X19000Y-15750D02*
X19000Y-16250D01*
X19000Y-16250D02*
X19250Y-16500D01*
X19250Y-16500D02*
X19250Y-19250D01*
X19250Y-19250D02*
X19500Y-19500D01*
X19500Y-19500D02*
X22890Y-19500D01*
X17750Y-13250D02*
X17750Y-13500D01*
X17750Y-13500D02*
X18000Y-13750D01*
X19250Y-16000D02*
X19500Y-16250D01*
X18000Y-13750D02*
X18000Y-14250D01*
X18000Y-14250D02*
X18250Y-14500D01*
X18250Y-14500D02*
X18750Y-14500D01*
X18750Y-14500D02*
X19000Y-14750D01*
X19000Y-14750D02*
X19000Y-15250D01*
X19000Y-15250D02*
X19250Y-15500D01*
X19250Y-15500D02*
X19250Y-16000D01*
X17250Y-12750D02*
X17750Y-13250D01*
X22695Y-19250D02*
X23131Y-18813D01*
X19750Y-19250D02*
X22695Y-19250D01*
X19500Y-19000D02*
X19750Y-19250D01*
X19500Y-16250D02*
X19500Y-19000D01*
X19750Y-16000D02*
X19750Y-18250D01*
X21472Y-17799D02*
X21795Y-17477D01*
X20950Y-17799D02*
X21472Y-17799D01*
X20250Y-18500D02*
X20950Y-17799D01*
X20000Y-18500D02*
X20250Y-18500D01*
X19750Y-18250D02*
X20000Y-18500D01*
X17250Y-11750D02*
X18000Y-12500D01*
X19500Y-15750D02*
X19750Y-16000D01*
X19500Y-15250D02*
X19500Y-15750D01*
X19250Y-15000D02*
X19500Y-15250D01*
X19250Y-14500D02*
X19250Y-15000D01*
X19000Y-14250D02*
X19250Y-14500D01*
X19000Y-13750D02*
X19000Y-14250D01*
X18750Y-13500D02*
X19000Y-13750D01*
X18250Y-13500D02*
X18750Y-13500D01*
X18000Y-13250D02*
X18250Y-13500D01*
X18000Y-12500D02*
X18000Y-13250D01*
X21750Y-17431D02*
X21795Y-17477D01*
X28750Y-15250D02*
X26695Y-15250D01*
X26695Y-15250D02*
X26313Y-15631D01*
X29250Y-13250D02*
X29250Y-14250D01*
X30250Y-11750D02*
X29500Y-12500D01*
X29500Y-12500D02*
X29500Y-13000D01*
X29500Y-13000D02*
X29250Y-13250D01*
X29250Y-14250D02*
X29000Y-14500D01*
X29000Y-14500D02*
X29000Y-15000D01*
X29000Y-15000D02*
X28750Y-15250D01*
X29500Y-13500D02*
X30250Y-12750D01*
X26890Y-15500D02*
X26536Y-15854D01*
X29000Y-15500D02*
X26890Y-15500D01*
X29250Y-15250D02*
X29000Y-15500D01*
X29250Y-14750D02*
X29250Y-15250D01*
X29500Y-14500D02*
X29250Y-14750D01*
X29500Y-13500D02*
X29500Y-14500D01*
X30250Y-13750D02*
X30250Y-14250D01*
X27086Y-15750D02*
X26759Y-16077D01*
X29250Y-15750D02*
X27086Y-15750D01*
X29500Y-15500D02*
X29250Y-15750D01*
X29500Y-15000D02*
X29500Y-15500D01*
X30250Y-14250D02*
X29500Y-15000D01*
X17600Y-18100D02*
X17600Y-20100D01*
X17750Y-20250D02*
X23477Y-20250D01*
X17600Y-20100D02*
X17750Y-20250D01*
X23477Y-20250D02*
X24022Y-19704D01*
X17250Y-17750D02*
X17600Y-18100D01*
X17250Y-17250D02*
X17250Y-17750D01*
X18000Y-17500D02*
X17850Y-17650D01*
X18050Y-20000D02*
X23281Y-20000D01*
X17850Y-19800D02*
X18050Y-20000D01*
X17850Y-17650D02*
X17850Y-19800D01*
X18000Y-17000D02*
X18000Y-17500D01*
X23281Y-20000D02*
X23799Y-19481D01*
X17250Y-16250D02*
X18000Y-17000D01*
X17250Y-15250D02*
X18000Y-16000D01*
X23086Y-19750D02*
X23577Y-19259D01*
X19250Y-19750D02*
X23086Y-19750D01*
X19000Y-19500D02*
X19250Y-19750D01*
X19000Y-16750D02*
X19000Y-19500D01*
X18750Y-16500D02*
X19000Y-16750D01*
X18250Y-16500D02*
X18750Y-16500D01*
X18000Y-16250D02*
X18250Y-16500D01*
X18000Y-16000D02*
X18000Y-16250D01*
X30250Y-15250D02*
X29500Y-16000D01*
X27281Y-16000D02*
X26981Y-16299D01*
X29500Y-16000D02*
X27281Y-16000D01*
X30250Y-16250D02*
X27477Y-16250D01*
X27477Y-16250D02*
X27204Y-16522D01*
X30250Y-17250D02*
X29500Y-16500D01*
X27204Y-17045D02*
X27204Y-17477D01*
X27750Y-16500D02*
X27204Y-17045D01*
X29500Y-16500D02*
X27750Y-16500D01*
X29250Y-18750D02*
X29200Y-18750D01*
X26100Y-19550D02*
X26100Y-19490D01*
X26100Y-19490D02*
X25645Y-19036D01*
X25645Y-19045D02*
X25645Y-19036D01*
X28500Y-19250D02*
X27250Y-20500D01*
X27250Y-20500D02*
X26250Y-20500D01*
X29750Y-19500D02*
X29750Y-19750D01*
X29500Y-19250D02*
X29750Y-19500D01*
X28500Y-19250D02*
X29500Y-19250D01*
X25750Y-19750D02*
X26000Y-20000D01*
X26000Y-20000D02*
X26000Y-20250D01*
X26000Y-20250D02*
X26250Y-20500D01*
X25750Y-19750D02*
X25750Y-19586D01*
X25750Y-19586D02*
X25422Y-19259D01*
X28000Y-17550D02*
X28000Y-18500D01*
X28000Y-18500D02*
X27957Y-18542D01*
X27957Y-18542D02*
X26933Y-18542D01*
X26933Y-18542D02*
X26536Y-18145D01*
X26542Y-19957D02*
X26542Y-19707D01*
X26542Y-19707D02*
X26750Y-19500D01*
X26542Y-19957D02*
X27292Y-19957D01*
X27292Y-19957D02*
X28750Y-18500D01*
X26750Y-19500D02*
X26750Y-18804D01*
X26750Y-18804D02*
X26313Y-18368D01*
X28750Y-18500D02*
X28750Y-17550D01*
G54D37*
X25750Y-7000D02*
X25750Y-7875D01*
X25750Y-7875D02*
X25375Y-8250D01*
G54D34*
X30000Y-18800D02*
X32050Y-18800D01*
X32050Y-18800D02*
X32250Y-19000D01*
X29800Y-17800D02*
X32250Y-17800D01*
X24500Y-16500D02*
X24554Y-16500D01*
X24554Y-16500D02*
X25868Y-15186D01*
X21650Y-11575D02*
X21125Y-11575D01*
X21125Y-11575D02*
X20800Y-11250D01*
X22750Y-11900D02*
X21975Y-11900D01*
X21975Y-11900D02*
X21650Y-11575D01*
X20250Y-17250D02*
X20200Y-17250D01*
X17000Y-19000D02*
X17100Y-19000D01*
X26567Y-10625D02*
X26625Y-10625D01*
X26567Y-12183D02*
X26567Y-12625D01*
X27000Y-11750D02*
X26750Y-12000D01*
X26750Y-12000D02*
X26567Y-12183D01*
X27000Y-11000D02*
X27000Y-11750D01*
X26625Y-10625D02*
X27000Y-11000D01*
X27000Y-6450D02*
X27000Y-6250D01*
X28750Y-16950D02*
X29200Y-16950D01*
X29500Y-17500D02*
X29800Y-17800D01*
X29500Y-17250D02*
X29500Y-17500D01*
X29200Y-16950D02*
X29500Y-17250D01*
X28750Y-16950D02*
X28000Y-16950D01*
X20800Y-11250D02*
X20800Y-12000D01*
G54D35*
X19500Y-7500D02*
X18250Y-7500D01*
X18000Y-7250D02*
X15250Y-7250D01*
X18250Y-7500D02*
X18000Y-7250D01*
X15250Y-8250D02*
X15250Y-7250D01*
X15250Y-7250D02*
X15250Y-6287D01*
X15250Y-6287D02*
X15212Y-6250D01*
X27000Y-6250D02*
X29500Y-6250D01*
X30000Y-7250D02*
X32250Y-7250D01*
X29750Y-7000D02*
X30000Y-7250D01*
X29750Y-6500D02*
X29750Y-7000D01*
X29500Y-6250D02*
X29750Y-6500D01*
X32250Y-8250D02*
X32250Y-7250D01*
X32250Y-7250D02*
X32250Y-6287D01*
X32250Y-6287D02*
X32287Y-6250D01*
G54D34*
X20750Y-13750D02*
X20750Y-13950D01*
X20750Y-13950D02*
X21500Y-13950D01*
X25750Y-7500D02*
X25750Y-7875D01*
X20800Y-11250D02*
X20800Y-10050D01*
X20800Y-10050D02*
X20500Y-9750D01*
G54D35*
X19500Y-7500D02*
X19500Y-8250D01*
X19500Y-8250D02*
X19750Y-8500D01*
X19750Y-8500D02*
X23500Y-8500D01*
X23500Y-8500D02*
X23750Y-8250D01*
X23750Y-8250D02*
X23750Y-6500D01*
X23750Y-6500D02*
X24000Y-6250D01*
X24000Y-6250D02*
X27000Y-6250D01*
G54D34*
X15000Y-20750D02*
X15000Y-21000D01*
X18000Y-21000D02*
X18000Y-20750D01*
X17750Y-21250D02*
X18000Y-21000D01*
X15250Y-21250D02*
X17750Y-21250D01*
X15000Y-21000D02*
X15250Y-21250D01*
G54D37*
X15000Y-20750D02*
X15000Y-19250D01*
X15000Y-19250D02*
X15250Y-19000D01*
G54D34*
X23750Y-17250D02*
X23750Y-17750D01*
X23750Y-17750D02*
X22909Y-18590D01*
X23500Y-16000D02*
X22909Y-15409D01*
X23750Y-16000D02*
X23500Y-16000D01*
X24500Y-16500D02*
X23750Y-17250D01*
X25750Y-18250D02*
X26090Y-18590D01*
X25750Y-17750D02*
X25750Y-18250D01*
X26090Y-18590D02*
X26420Y-18920D01*
X26420Y-18920D02*
X26420Y-19250D01*
G54D37*
X32250Y-17250D02*
X32250Y-17800D01*
X32250Y-17800D02*
X32250Y-19000D01*
G54D35*
X15250Y-17250D02*
X15250Y-19000D01*
X32250Y-9250D02*
X32250Y-8250D01*
X32250Y-9250D02*
X32250Y-10250D01*
X32250Y-10250D02*
X32250Y-11750D01*
X32250Y-11750D02*
X32250Y-12750D01*
X32250Y-12750D02*
X32250Y-13750D01*
X32250Y-13750D02*
X32250Y-15250D01*
X32250Y-15250D02*
X32250Y-16250D01*
X32250Y-16250D02*
X32250Y-17250D01*
X15250Y-17250D02*
X15250Y-16250D01*
X15250Y-16250D02*
X15250Y-15250D01*
X15250Y-15250D02*
X15250Y-13750D01*
X15250Y-13750D02*
X15250Y-12750D01*
X15250Y-12750D02*
X15250Y-11750D01*
X15250Y-11750D02*
X15250Y-10250D01*
X15250Y-10250D02*
X15250Y-9250D01*
X15250Y-9250D02*
X15250Y-8250D01*
G54D34*
X29750Y-24000D02*
X29750Y-23750D01*
X24956Y-23206D02*
X24956Y-22750D01*
X25250Y-23500D02*
X24956Y-23206D01*
X29500Y-23500D02*
X25250Y-23500D01*
X29750Y-23750D02*
X29500Y-23500D01*
X28250Y-11050D02*
X28250Y-11500D01*
X28000Y-11750D02*
X27500Y-11750D01*
X28250Y-11500D02*
X28000Y-11750D01*
X27250Y-13750D02*
X27500Y-14000D01*
X27500Y-14200D02*
X27550Y-14250D01*
X27500Y-14000D02*
X27500Y-14200D01*
X25750Y-13500D02*
X26000Y-13500D01*
X27433Y-13567D02*
X27433Y-13000D01*
X27250Y-13750D02*
X27433Y-13567D01*
X26250Y-13750D02*
X27250Y-13750D01*
X26000Y-13500D02*
X26250Y-13750D01*
X21500Y-14550D02*
X21700Y-14550D01*
X21500Y-13250D02*
X21500Y-13000D01*
X22000Y-13750D02*
X21500Y-13250D01*
X22000Y-14250D02*
X22000Y-13750D01*
X21700Y-14550D02*
X22000Y-14250D01*
X21250Y-24500D02*
X21250Y-24000D01*
X16381Y-23631D02*
X16381Y-22750D01*
X16500Y-23750D02*
X16381Y-23631D01*
X21000Y-23750D02*
X16500Y-23750D01*
X21250Y-24000D02*
X21000Y-23750D01*
X20250Y-24500D02*
X20250Y-24250D01*
X15791Y-23791D02*
X15791Y-22750D01*
X16000Y-24000D02*
X15791Y-23791D01*
X20000Y-24000D02*
X16000Y-24000D01*
X20250Y-24250D02*
X20000Y-24000D01*
X27000Y-7050D02*
X27787Y-7050D01*
X27787Y-7050D02*
X27837Y-7000D01*
G54D39*
X22850Y-9500D02*
X23797Y-9500D01*
X23797Y-10250D02*
X23797Y-9500D01*
X23797Y-9500D02*
X23797Y-9077D01*
X23797Y-9077D02*
X24625Y-8250D01*
G54D34*
X19250Y-24500D02*
X19250Y-24750D01*
X19250Y-24750D02*
X19500Y-25000D01*
X22287Y-23712D02*
X22287Y-22750D01*
X21750Y-24250D02*
X22287Y-23712D01*
X21750Y-24750D02*
X21750Y-24250D01*
X21500Y-25000D02*
X21750Y-24750D01*
X19500Y-25000D02*
X21500Y-25000D01*
X15750Y-24750D02*
X15750Y-24500D01*
X16000Y-25000D02*
X15750Y-24750D01*
X19000Y-25000D02*
X16000Y-25000D01*
X19250Y-24750D02*
X19000Y-25000D01*
X30750Y-24000D02*
X30750Y-23500D01*
X25744Y-22994D02*
X25744Y-22750D01*
X26000Y-23250D02*
X25744Y-22994D01*
X30500Y-23250D02*
X26000Y-23250D01*
X30750Y-23500D02*
X30500Y-23250D01*
G54D10*
G36*
X27792Y-24035D02*
X27785Y-24035D01*
X27785Y-24042D01*
X27715Y-24042D01*
X27715Y-24035D01*
X27251Y-24035D01*
X27185Y-24101D01*
X27184Y-24247D01*
X27185Y-24352D01*
X27225Y-24450D01*
X27300Y-24524D01*
X27325Y-24535D01*
X24771Y-24535D01*
X24642Y-24509D01*
X24550Y-24448D01*
X24490Y-24357D01*
X24464Y-24228D01*
X24464Y-23095D01*
X24491Y-23160D01*
X24546Y-23215D01*
X24617Y-23244D01*
X24695Y-23245D01*
X24719Y-23245D01*
X24730Y-23300D01*
X24783Y-23379D01*
X25076Y-23673D01*
X25076Y-23673D01*
X25156Y-23726D01*
X25250Y-23745D01*
X25250Y-23745D01*
X25250Y-23745D01*
X27184Y-23745D01*
X27184Y-23752D01*
X27185Y-23898D01*
X27251Y-23965D01*
X27715Y-23965D01*
X27715Y-23957D01*
X27785Y-23957D01*
X27785Y-23965D01*
X27792Y-23965D01*
X27792Y-24035D01*
X27792Y-24035D01*
G37*
G54D40*
X27792Y-24035D02*
X27785Y-24035D01*
X27785Y-24042D01*
X27715Y-24042D01*
X27715Y-24035D01*
X27251Y-24035D01*
X27185Y-24101D01*
X27184Y-24247D01*
X27185Y-24352D01*
X27225Y-24450D01*
X27300Y-24524D01*
X27325Y-24535D01*
X24771Y-24535D01*
X24642Y-24509D01*
X24550Y-24448D01*
X24490Y-24357D01*
X24464Y-24228D01*
X24464Y-23095D01*
X24491Y-23160D01*
X24546Y-23215D01*
X24617Y-23244D01*
X24695Y-23245D01*
X24719Y-23245D01*
X24730Y-23300D01*
X24783Y-23379D01*
X25076Y-23673D01*
X25076Y-23673D01*
X25156Y-23726D01*
X25250Y-23745D01*
X25250Y-23745D01*
X25250Y-23745D01*
X27184Y-23745D01*
X27184Y-23752D01*
X27185Y-23898D01*
X27251Y-23965D01*
X27715Y-23965D01*
X27715Y-23957D01*
X27785Y-23957D01*
X27785Y-23965D01*
X27792Y-23965D01*
X27792Y-24035D01*
G54D10*
G36*
X33285Y-24228D02*
X33259Y-24357D01*
X33245Y-24379D01*
X33245Y-23901D01*
X33169Y-23719D01*
X33030Y-23580D01*
X32848Y-23505D01*
X32651Y-23504D01*
X32610Y-23522D01*
X32610Y-22850D01*
X32605Y-22625D01*
X32529Y-22440D01*
X32427Y-22415D01*
X32378Y-22464D01*
X32378Y-22365D01*
X32352Y-22264D01*
X32143Y-22182D01*
X31918Y-22187D01*
X31733Y-22264D01*
X31708Y-22365D01*
X32043Y-22700D01*
X32378Y-22365D01*
X32378Y-22464D01*
X32092Y-22750D01*
X32427Y-23084D01*
X32529Y-23059D01*
X32610Y-22850D01*
X32610Y-23522D01*
X32469Y-23580D01*
X32378Y-23671D01*
X32378Y-23134D01*
X32043Y-22799D01*
X31708Y-23134D01*
X31733Y-23235D01*
X31943Y-23317D01*
X32167Y-23312D01*
X32352Y-23235D01*
X32378Y-23134D01*
X32378Y-23671D01*
X32330Y-23719D01*
X32255Y-23901D01*
X32254Y-24098D01*
X32330Y-24280D01*
X32469Y-24419D01*
X32651Y-24494D01*
X32848Y-24495D01*
X33030Y-24419D01*
X33169Y-24280D01*
X33244Y-24098D01*
X33245Y-23901D01*
X33245Y-24379D01*
X33198Y-24449D01*
X33107Y-24509D01*
X32978Y-24535D01*
X32245Y-24535D01*
X32245Y-23901D01*
X32169Y-23719D01*
X32030Y-23580D01*
X31848Y-23505D01*
X31651Y-23504D01*
X31469Y-23580D01*
X31330Y-23719D01*
X31255Y-23901D01*
X31254Y-24098D01*
X31330Y-24280D01*
X31469Y-24419D01*
X31651Y-24494D01*
X31848Y-24495D01*
X32030Y-24419D01*
X32169Y-24280D01*
X32244Y-24098D01*
X32245Y-23901D01*
X32245Y-24535D01*
X28174Y-24535D01*
X28199Y-24524D01*
X28274Y-24450D01*
X28314Y-24352D01*
X28315Y-24247D01*
X28315Y-24243D01*
X28330Y-24280D01*
X28469Y-24419D01*
X28651Y-24494D01*
X28848Y-24495D01*
X29030Y-24419D01*
X29169Y-24280D01*
X29244Y-24098D01*
X29245Y-23901D01*
X29180Y-23745D01*
X29319Y-23745D01*
X29255Y-23901D01*
X29254Y-24098D01*
X29330Y-24280D01*
X29469Y-24419D01*
X29651Y-24494D01*
X29848Y-24495D01*
X30030Y-24419D01*
X30169Y-24280D01*
X30244Y-24098D01*
X30245Y-23901D01*
X30169Y-23719D01*
X30030Y-23580D01*
X29853Y-23506D01*
X29841Y-23495D01*
X30398Y-23495D01*
X30479Y-23576D01*
X30469Y-23580D01*
X30330Y-23719D01*
X30255Y-23901D01*
X30254Y-24098D01*
X30330Y-24280D01*
X30469Y-24419D01*
X30651Y-24494D01*
X30848Y-24495D01*
X31030Y-24419D01*
X31169Y-24280D01*
X31244Y-24098D01*
X31245Y-23901D01*
X31169Y-23719D01*
X31030Y-23580D01*
X30995Y-23565D01*
X30995Y-23500D01*
X30976Y-23406D01*
X30923Y-23326D01*
X30923Y-23326D01*
X30757Y-23160D01*
X30862Y-23056D01*
X30975Y-23169D01*
X31157Y-23244D01*
X31353Y-23245D01*
X31535Y-23169D01*
X31628Y-23077D01*
X31658Y-23084D01*
X31993Y-22750D01*
X31658Y-22415D01*
X31628Y-22422D01*
X31536Y-22330D01*
X31354Y-22255D01*
X31157Y-22254D01*
X30975Y-22330D01*
X30862Y-22443D01*
X30749Y-22330D01*
X30567Y-22255D01*
X30370Y-22254D01*
X30188Y-22330D01*
X30074Y-22443D01*
X29961Y-22330D01*
X29779Y-22255D01*
X29583Y-22254D01*
X29401Y-22330D01*
X29287Y-22443D01*
X29174Y-22330D01*
X28992Y-22255D01*
X28795Y-22254D01*
X28613Y-22330D01*
X28499Y-22443D01*
X28387Y-22330D01*
X28205Y-22255D01*
X28008Y-22254D01*
X27826Y-22330D01*
X27712Y-22443D01*
X27599Y-22330D01*
X27417Y-22255D01*
X27220Y-22254D01*
X27038Y-22330D01*
X26925Y-22443D01*
X26812Y-22330D01*
X26630Y-22255D01*
X26433Y-22254D01*
X26251Y-22330D01*
X26137Y-22443D01*
X26024Y-22330D01*
X25842Y-22255D01*
X25646Y-22254D01*
X25464Y-22330D01*
X25431Y-22362D01*
X25422Y-22339D01*
X25367Y-22284D01*
X25295Y-22255D01*
X25218Y-22254D01*
X24620Y-22254D01*
X24642Y-22240D01*
X24771Y-22214D01*
X25000Y-22214D01*
X25020Y-22210D01*
X25041Y-22210D01*
X25137Y-22191D01*
X25214Y-22159D01*
X25215Y-22159D01*
X25215Y-22159D01*
X25295Y-22105D01*
X25295Y-22105D01*
X25336Y-22065D01*
X25358Y-22065D01*
X25431Y-22094D01*
X25568Y-22095D01*
X25641Y-22065D01*
X25858Y-22065D01*
X25931Y-22094D01*
X26068Y-22095D01*
X26141Y-22065D01*
X26358Y-22065D01*
X26431Y-22094D01*
X26568Y-22095D01*
X26641Y-22065D01*
X26663Y-22065D01*
X26703Y-22105D01*
X26784Y-22159D01*
X26862Y-22191D01*
X26862Y-22191D01*
X26862Y-22191D01*
X26958Y-22210D01*
X26978Y-22210D01*
X27000Y-22214D01*
X30500Y-22214D01*
X30520Y-22210D01*
X30541Y-22210D01*
X30637Y-22191D01*
X30714Y-22159D01*
X30715Y-22159D01*
X30715Y-22159D01*
X30795Y-22105D01*
X30795Y-22105D01*
X30836Y-22065D01*
X30858Y-22065D01*
X30931Y-22094D01*
X31068Y-22095D01*
X31141Y-22065D01*
X31358Y-22065D01*
X31431Y-22094D01*
X31568Y-22095D01*
X31641Y-22065D01*
X31858Y-22065D01*
X31931Y-22094D01*
X32068Y-22095D01*
X32141Y-22065D01*
X32163Y-22065D01*
X32203Y-22105D01*
X32284Y-22159D01*
X32362Y-22191D01*
X32362Y-22191D01*
X32362Y-22191D01*
X32458Y-22210D01*
X32478Y-22210D01*
X32500Y-22214D01*
X32978Y-22214D01*
X33107Y-22240D01*
X33198Y-22300D01*
X33259Y-22392D01*
X33285Y-22521D01*
X33285Y-24228D01*
X33285Y-24228D01*
G37*
G54D40*
X33285Y-24228D02*
X33259Y-24357D01*
X33245Y-24379D01*
X33245Y-23901D01*
X33169Y-23719D01*
X33030Y-23580D01*
X32848Y-23505D01*
X32651Y-23504D01*
X32610Y-23522D01*
X32610Y-22850D01*
X32605Y-22625D01*
X32529Y-22440D01*
X32427Y-22415D01*
X32378Y-22464D01*
X32378Y-22365D01*
X32352Y-22264D01*
X32143Y-22182D01*
X31918Y-22187D01*
X31733Y-22264D01*
X31708Y-22365D01*
X32043Y-22700D01*
X32378Y-22365D01*
X32378Y-22464D01*
X32092Y-22750D01*
X32427Y-23084D01*
X32529Y-23059D01*
X32610Y-22850D01*
X32610Y-23522D01*
X32469Y-23580D01*
X32378Y-23671D01*
X32378Y-23134D01*
X32043Y-22799D01*
X31708Y-23134D01*
X31733Y-23235D01*
X31943Y-23317D01*
X32167Y-23312D01*
X32352Y-23235D01*
X32378Y-23134D01*
X32378Y-23671D01*
X32330Y-23719D01*
X32255Y-23901D01*
X32254Y-24098D01*
X32330Y-24280D01*
X32469Y-24419D01*
X32651Y-24494D01*
X32848Y-24495D01*
X33030Y-24419D01*
X33169Y-24280D01*
X33244Y-24098D01*
X33245Y-23901D01*
X33245Y-24379D01*
X33198Y-24449D01*
X33107Y-24509D01*
X32978Y-24535D01*
X32245Y-24535D01*
X32245Y-23901D01*
X32169Y-23719D01*
X32030Y-23580D01*
X31848Y-23505D01*
X31651Y-23504D01*
X31469Y-23580D01*
X31330Y-23719D01*
X31255Y-23901D01*
X31254Y-24098D01*
X31330Y-24280D01*
X31469Y-24419D01*
X31651Y-24494D01*
X31848Y-24495D01*
X32030Y-24419D01*
X32169Y-24280D01*
X32244Y-24098D01*
X32245Y-23901D01*
X32245Y-24535D01*
X28174Y-24535D01*
X28199Y-24524D01*
X28274Y-24450D01*
X28314Y-24352D01*
X28315Y-24247D01*
X28315Y-24243D01*
X28330Y-24280D01*
X28469Y-24419D01*
X28651Y-24494D01*
X28848Y-24495D01*
X29030Y-24419D01*
X29169Y-24280D01*
X29244Y-24098D01*
X29245Y-23901D01*
X29180Y-23745D01*
X29319Y-23745D01*
X29255Y-23901D01*
X29254Y-24098D01*
X29330Y-24280D01*
X29469Y-24419D01*
X29651Y-24494D01*
X29848Y-24495D01*
X30030Y-24419D01*
X30169Y-24280D01*
X30244Y-24098D01*
X30245Y-23901D01*
X30169Y-23719D01*
X30030Y-23580D01*
X29853Y-23506D01*
X29841Y-23495D01*
X30398Y-23495D01*
X30479Y-23576D01*
X30469Y-23580D01*
X30330Y-23719D01*
X30255Y-23901D01*
X30254Y-24098D01*
X30330Y-24280D01*
X30469Y-24419D01*
X30651Y-24494D01*
X30848Y-24495D01*
X31030Y-24419D01*
X31169Y-24280D01*
X31244Y-24098D01*
X31245Y-23901D01*
X31169Y-23719D01*
X31030Y-23580D01*
X30995Y-23565D01*
X30995Y-23500D01*
X30976Y-23406D01*
X30923Y-23326D01*
X30923Y-23326D01*
X30757Y-23160D01*
X30862Y-23056D01*
X30975Y-23169D01*
X31157Y-23244D01*
X31353Y-23245D01*
X31535Y-23169D01*
X31628Y-23077D01*
X31658Y-23084D01*
X31993Y-22750D01*
X31658Y-22415D01*
X31628Y-22422D01*
X31536Y-22330D01*
X31354Y-22255D01*
X31157Y-22254D01*
X30975Y-22330D01*
X30862Y-22443D01*
X30749Y-22330D01*
X30567Y-22255D01*
X30370Y-22254D01*
X30188Y-22330D01*
X30074Y-22443D01*
X29961Y-22330D01*
X29779Y-22255D01*
X29583Y-22254D01*
X29401Y-22330D01*
X29287Y-22443D01*
X29174Y-22330D01*
X28992Y-22255D01*
X28795Y-22254D01*
X28613Y-22330D01*
X28499Y-22443D01*
X28387Y-22330D01*
X28205Y-22255D01*
X28008Y-22254D01*
X27826Y-22330D01*
X27712Y-22443D01*
X27599Y-22330D01*
X27417Y-22255D01*
X27220Y-22254D01*
X27038Y-22330D01*
X26925Y-22443D01*
X26812Y-22330D01*
X26630Y-22255D01*
X26433Y-22254D01*
X26251Y-22330D01*
X26137Y-22443D01*
X26024Y-22330D01*
X25842Y-22255D01*
X25646Y-22254D01*
X25464Y-22330D01*
X25431Y-22362D01*
X25422Y-22339D01*
X25367Y-22284D01*
X25295Y-22255D01*
X25218Y-22254D01*
X24620Y-22254D01*
X24642Y-22240D01*
X24771Y-22214D01*
X25000Y-22214D01*
X25020Y-22210D01*
X25041Y-22210D01*
X25137Y-22191D01*
X25214Y-22159D01*
X25215Y-22159D01*
X25215Y-22159D01*
X25295Y-22105D01*
X25295Y-22105D01*
X25336Y-22065D01*
X25358Y-22065D01*
X25431Y-22094D01*
X25568Y-22095D01*
X25641Y-22065D01*
X25858Y-22065D01*
X25931Y-22094D01*
X26068Y-22095D01*
X26141Y-22065D01*
X26358Y-22065D01*
X26431Y-22094D01*
X26568Y-22095D01*
X26641Y-22065D01*
X26663Y-22065D01*
X26703Y-22105D01*
X26784Y-22159D01*
X26862Y-22191D01*
X26862Y-22191D01*
X26862Y-22191D01*
X26958Y-22210D01*
X26978Y-22210D01*
X27000Y-22214D01*
X30500Y-22214D01*
X30520Y-22210D01*
X30541Y-22210D01*
X30637Y-22191D01*
X30714Y-22159D01*
X30715Y-22159D01*
X30715Y-22159D01*
X30795Y-22105D01*
X30795Y-22105D01*
X30836Y-22065D01*
X30858Y-22065D01*
X30931Y-22094D01*
X31068Y-22095D01*
X31141Y-22065D01*
X31358Y-22065D01*
X31431Y-22094D01*
X31568Y-22095D01*
X31641Y-22065D01*
X31858Y-22065D01*
X31931Y-22094D01*
X32068Y-22095D01*
X32141Y-22065D01*
X32163Y-22065D01*
X32203Y-22105D01*
X32284Y-22159D01*
X32362Y-22191D01*
X32362Y-22191D01*
X32362Y-22191D01*
X32458Y-22210D01*
X32478Y-22210D01*
X32500Y-22214D01*
X32978Y-22214D01*
X33107Y-22240D01*
X33198Y-22300D01*
X33259Y-22392D01*
X33285Y-22521D01*
X33285Y-24228D01*
G54D10*
G36*
X18555Y-13005D02*
X18505Y-13055D01*
X18500Y-13049D01*
X18494Y-13055D01*
X18444Y-13005D01*
X18450Y-13000D01*
X18444Y-12994D01*
X18494Y-12944D01*
X18500Y-12950D01*
X18505Y-12944D01*
X18555Y-12994D01*
X18549Y-13000D01*
X18555Y-13005D01*
X18555Y-13005D01*
G37*
G54D40*
X18555Y-13005D02*
X18505Y-13055D01*
X18500Y-13049D01*
X18494Y-13055D01*
X18444Y-13005D01*
X18450Y-13000D01*
X18444Y-12994D01*
X18494Y-12944D01*
X18500Y-12950D01*
X18505Y-12944D01*
X18555Y-12994D01*
X18549Y-13000D01*
X18555Y-13005D01*
G54D10*
G36*
X20242Y-17285D02*
X20235Y-17285D01*
X20235Y-17292D01*
X20165Y-17292D01*
X20165Y-17285D01*
X20157Y-17285D01*
X20157Y-17215D01*
X20165Y-17215D01*
X20165Y-17207D01*
X20235Y-17207D01*
X20235Y-17215D01*
X20242Y-17215D01*
X20242Y-17285D01*
X20242Y-17285D01*
G37*
G54D40*
X20242Y-17285D02*
X20235Y-17285D01*
X20235Y-17292D01*
X20165Y-17292D01*
X20165Y-17285D01*
X20157Y-17285D01*
X20157Y-17215D01*
X20165Y-17215D01*
X20165Y-17207D01*
X20235Y-17207D01*
X20235Y-17215D01*
X20242Y-17215D01*
X20242Y-17285D01*
G54D10*
G36*
X21542Y-13985D02*
X21535Y-13985D01*
X21535Y-13992D01*
X21465Y-13992D01*
X21465Y-13985D01*
X21173Y-13985D01*
X21076Y-13985D01*
X20785Y-13985D01*
X20785Y-13992D01*
X20715Y-13992D01*
X20715Y-13985D01*
X20715Y-13915D01*
X20715Y-13626D01*
X20648Y-13560D01*
X20577Y-13559D01*
X20472Y-13560D01*
X20374Y-13600D01*
X20300Y-13675D01*
X20259Y-13772D01*
X20260Y-13848D01*
X20326Y-13915D01*
X20715Y-13915D01*
X20715Y-13985D01*
X20326Y-13985D01*
X20260Y-14051D01*
X20259Y-14127D01*
X20285Y-14188D01*
X20245Y-14148D01*
X20245Y-13750D01*
X20226Y-13656D01*
X20173Y-13576D01*
X20173Y-13576D01*
X19995Y-13398D01*
X19995Y-13000D01*
X19976Y-12906D01*
X19923Y-12826D01*
X19923Y-12826D01*
X19745Y-12648D01*
X19745Y-12250D01*
X19743Y-12243D01*
X19750Y-12245D01*
X19879Y-12245D01*
X19879Y-12263D01*
X19909Y-12335D01*
X19955Y-12380D01*
X19955Y-12699D01*
X19954Y-12700D01*
X19973Y-12793D01*
X20020Y-12863D01*
X20005Y-12901D01*
X20004Y-13098D01*
X20080Y-13280D01*
X20219Y-13419D01*
X20401Y-13494D01*
X20598Y-13495D01*
X20780Y-13419D01*
X20919Y-13280D01*
X20994Y-13098D01*
X20995Y-12901D01*
X20930Y-12745D01*
X21069Y-12745D01*
X21005Y-12901D01*
X21004Y-13098D01*
X21080Y-13280D01*
X21219Y-13419D01*
X21396Y-13493D01*
X21464Y-13561D01*
X21464Y-13626D01*
X21398Y-13560D01*
X21327Y-13559D01*
X21222Y-13560D01*
X21125Y-13600D01*
X21027Y-13560D01*
X20922Y-13559D01*
X20851Y-13560D01*
X20785Y-13626D01*
X20785Y-13915D01*
X21076Y-13915D01*
X21173Y-13915D01*
X21465Y-13915D01*
X21465Y-13907D01*
X21535Y-13907D01*
X21535Y-13915D01*
X21542Y-13915D01*
X21542Y-13985D01*
X21542Y-13985D01*
G37*
G54D40*
X21542Y-13985D02*
X21535Y-13985D01*
X21535Y-13992D01*
X21465Y-13992D01*
X21465Y-13985D01*
X21173Y-13985D01*
X21076Y-13985D01*
X20785Y-13985D01*
X20785Y-13992D01*
X20715Y-13992D01*
X20715Y-13985D01*
X20715Y-13915D01*
X20715Y-13626D01*
X20648Y-13560D01*
X20577Y-13559D01*
X20472Y-13560D01*
X20374Y-13600D01*
X20300Y-13675D01*
X20259Y-13772D01*
X20260Y-13848D01*
X20326Y-13915D01*
X20715Y-13915D01*
X20715Y-13985D01*
X20326Y-13985D01*
X20260Y-14051D01*
X20259Y-14127D01*
X20285Y-14188D01*
X20245Y-14148D01*
X20245Y-13750D01*
X20226Y-13656D01*
X20173Y-13576D01*
X20173Y-13576D01*
X19995Y-13398D01*
X19995Y-13000D01*
X19976Y-12906D01*
X19923Y-12826D01*
X19923Y-12826D01*
X19745Y-12648D01*
X19745Y-12250D01*
X19743Y-12243D01*
X19750Y-12245D01*
X19879Y-12245D01*
X19879Y-12263D01*
X19909Y-12335D01*
X19955Y-12380D01*
X19955Y-12699D01*
X19954Y-12700D01*
X19973Y-12793D01*
X20020Y-12863D01*
X20005Y-12901D01*
X20004Y-13098D01*
X20080Y-13280D01*
X20219Y-13419D01*
X20401Y-13494D01*
X20598Y-13495D01*
X20780Y-13419D01*
X20919Y-13280D01*
X20994Y-13098D01*
X20995Y-12901D01*
X20930Y-12745D01*
X21069Y-12745D01*
X21005Y-12901D01*
X21004Y-13098D01*
X21080Y-13280D01*
X21219Y-13419D01*
X21396Y-13493D01*
X21464Y-13561D01*
X21464Y-13626D01*
X21398Y-13560D01*
X21327Y-13559D01*
X21222Y-13560D01*
X21125Y-13600D01*
X21027Y-13560D01*
X20922Y-13559D01*
X20851Y-13560D01*
X20785Y-13626D01*
X20785Y-13915D01*
X21076Y-13915D01*
X21173Y-13915D01*
X21465Y-13915D01*
X21465Y-13907D01*
X21535Y-13907D01*
X21535Y-13915D01*
X21542Y-13915D01*
X21542Y-13985D01*
G54D10*
G36*
X23955Y-16127D02*
X23639Y-16442D01*
X23604Y-16457D01*
X23507Y-16554D01*
X23455Y-16681D01*
X23455Y-16698D01*
X23076Y-17076D01*
X23023Y-17156D01*
X23004Y-17250D01*
X23005Y-17250D01*
X23005Y-17703D01*
X22863Y-17844D01*
X22842Y-17824D01*
X22729Y-17711D01*
X22690Y-17695D01*
X22674Y-17656D01*
X22620Y-17601D01*
X22506Y-17488D01*
X22468Y-17472D01*
X22452Y-17434D01*
X22397Y-17379D01*
X22284Y-17266D01*
X22245Y-17249D01*
X22243Y-17245D01*
X22249Y-17245D01*
X22250Y-17245D01*
X22250Y-17245D01*
X22343Y-17226D01*
X22423Y-17173D01*
X22923Y-16673D01*
X22923Y-16673D01*
X22923Y-16673D01*
X22976Y-16593D01*
X22995Y-16500D01*
X22995Y-16140D01*
X22976Y-16047D01*
X22974Y-16043D01*
X23007Y-16011D01*
X23075Y-15942D01*
X23117Y-15942D01*
X23214Y-15902D01*
X23236Y-15880D01*
X23236Y-15786D01*
X22909Y-15458D01*
X22905Y-15462D01*
X22856Y-15412D01*
X22859Y-15409D01*
X22531Y-15081D01*
X22482Y-15081D01*
X22477Y-15076D01*
X22456Y-15062D01*
X22456Y-15062D01*
X22433Y-15047D01*
X22445Y-15042D01*
X22508Y-14979D01*
X22923Y-15394D01*
X22923Y-15394D01*
X22923Y-15394D01*
X23236Y-15708D01*
X23236Y-15708D01*
X23332Y-15772D01*
X23342Y-15774D01*
X23342Y-15774D01*
X23342Y-15774D01*
X23445Y-15794D01*
X23445Y-15795D01*
X23627Y-15795D01*
X23955Y-16122D01*
X23955Y-16127D01*
X23955Y-16127D01*
G37*
G54D40*
X23955Y-16127D02*
X23639Y-16442D01*
X23604Y-16457D01*
X23507Y-16554D01*
X23455Y-16681D01*
X23455Y-16698D01*
X23076Y-17076D01*
X23023Y-17156D01*
X23004Y-17250D01*
X23005Y-17250D01*
X23005Y-17703D01*
X22863Y-17844D01*
X22842Y-17824D01*
X22729Y-17711D01*
X22690Y-17695D01*
X22674Y-17656D01*
X22620Y-17601D01*
X22506Y-17488D01*
X22468Y-17472D01*
X22452Y-17434D01*
X22397Y-17379D01*
X22284Y-17266D01*
X22245Y-17249D01*
X22243Y-17245D01*
X22249Y-17245D01*
X22250Y-17245D01*
X22250Y-17245D01*
X22343Y-17226D01*
X22423Y-17173D01*
X22923Y-16673D01*
X22923Y-16673D01*
X22923Y-16673D01*
X22976Y-16593D01*
X22995Y-16500D01*
X22995Y-16140D01*
X22976Y-16047D01*
X22974Y-16043D01*
X23007Y-16011D01*
X23075Y-15942D01*
X23117Y-15942D01*
X23214Y-15902D01*
X23236Y-15880D01*
X23236Y-15786D01*
X22909Y-15458D01*
X22905Y-15462D01*
X22856Y-15412D01*
X22859Y-15409D01*
X22531Y-15081D01*
X22482Y-15081D01*
X22477Y-15076D01*
X22456Y-15062D01*
X22456Y-15062D01*
X22433Y-15047D01*
X22445Y-15042D01*
X22508Y-14979D01*
X22923Y-15394D01*
X22923Y-15394D01*
X22923Y-15394D01*
X23236Y-15708D01*
X23236Y-15708D01*
X23332Y-15772D01*
X23342Y-15774D01*
X23342Y-15774D01*
X23342Y-15774D01*
X23445Y-15794D01*
X23445Y-15795D01*
X23627Y-15795D01*
X23955Y-16122D01*
X23955Y-16127D01*
G54D10*
G36*
X25555Y-12005D02*
X25505Y-12055D01*
X25500Y-12049D01*
X25494Y-12055D01*
X25444Y-12005D01*
X25450Y-12000D01*
X25444Y-11994D01*
X25494Y-11944D01*
X25500Y-11950D01*
X25505Y-11944D01*
X25555Y-11994D01*
X25549Y-12000D01*
X25555Y-12005D01*
X25555Y-12005D01*
G37*
G54D40*
X25555Y-12005D02*
X25505Y-12055D01*
X25500Y-12049D01*
X25494Y-12055D01*
X25444Y-12005D01*
X25450Y-12000D01*
X25444Y-11994D01*
X25494Y-11944D01*
X25500Y-11950D01*
X25505Y-11944D01*
X25555Y-11994D01*
X25549Y-12000D01*
X25555Y-12005D01*
G54D10*
G36*
X26649Y-16668D02*
X26554Y-16707D01*
X26457Y-16804D01*
X26405Y-16931D01*
X26405Y-16940D01*
X26318Y-16905D01*
X26181Y-16904D01*
X26054Y-16957D01*
X25957Y-17054D01*
X25905Y-17181D01*
X25904Y-17318D01*
X25957Y-17445D01*
X26032Y-17520D01*
X26076Y-17586D01*
X26235Y-17745D01*
X26215Y-17766D01*
X26102Y-17879D01*
X26086Y-17918D01*
X26047Y-17934D01*
X25992Y-17988D01*
X25924Y-18057D01*
X25882Y-18057D01*
X25785Y-18097D01*
X25763Y-18119D01*
X25763Y-18213D01*
X26090Y-18541D01*
X26094Y-18537D01*
X26143Y-18587D01*
X26140Y-18590D01*
X26468Y-18918D01*
X26505Y-18918D01*
X26505Y-19398D01*
X26439Y-19464D01*
X26438Y-19464D01*
X26392Y-19354D01*
X26295Y-19257D01*
X26174Y-19207D01*
X26189Y-19193D01*
X26257Y-19124D01*
X26299Y-19124D01*
X26396Y-19084D01*
X26418Y-19062D01*
X26418Y-18968D01*
X26090Y-18640D01*
X26087Y-18643D01*
X26037Y-18594D01*
X26041Y-18590D01*
X25713Y-18263D01*
X25664Y-18263D01*
X25641Y-18240D01*
X25619Y-18263D01*
X25619Y-18263D01*
X25641Y-18240D01*
X25495Y-18094D01*
X25495Y-18031D01*
X25442Y-17904D01*
X25345Y-17807D01*
X25218Y-17755D01*
X25081Y-17754D01*
X24954Y-17807D01*
X24857Y-17904D01*
X24805Y-18031D01*
X24805Y-18098D01*
X24326Y-18576D01*
X24273Y-18656D01*
X24254Y-18750D01*
X24255Y-18750D01*
X24255Y-19256D01*
X24250Y-19254D01*
X24234Y-19216D01*
X24179Y-19161D01*
X24066Y-19048D01*
X24027Y-19031D01*
X24011Y-18993D01*
X23956Y-18938D01*
X23843Y-18825D01*
X23804Y-18809D01*
X23788Y-18770D01*
X23733Y-18715D01*
X23620Y-18602D01*
X23581Y-18586D01*
X23565Y-18547D01*
X23511Y-18492D01*
X23442Y-18424D01*
X23442Y-18382D01*
X23402Y-18285D01*
X23380Y-18263D01*
X23286Y-18263D01*
X22958Y-18590D01*
X22962Y-18594D01*
X22912Y-18643D01*
X22909Y-18640D01*
X22581Y-18968D01*
X22581Y-19005D01*
X22232Y-19005D01*
X22292Y-18945D01*
X22344Y-18818D01*
X22345Y-18727D01*
X22375Y-18757D01*
X22375Y-18799D01*
X22415Y-18896D01*
X22437Y-18918D01*
X22531Y-18918D01*
X22859Y-18590D01*
X22856Y-18587D01*
X22905Y-18537D01*
X22909Y-18541D01*
X23236Y-18213D01*
X23236Y-18164D01*
X23423Y-17977D01*
X23423Y-17977D01*
X23423Y-17977D01*
X23476Y-17898D01*
X23495Y-17804D01*
X23495Y-17351D01*
X23751Y-17094D01*
X23868Y-17095D01*
X23995Y-17042D01*
X24092Y-16945D01*
X24144Y-16818D01*
X24144Y-16772D01*
X24458Y-16458D01*
X24522Y-16362D01*
X24545Y-16250D01*
X24545Y-16000D01*
X24522Y-15887D01*
X24494Y-15844D01*
X24568Y-15845D01*
X24695Y-15792D01*
X24742Y-15745D01*
X25109Y-15745D01*
X25109Y-15745D01*
X25109Y-15745D01*
X25202Y-15726D01*
X25282Y-15673D01*
X25441Y-15514D01*
X25490Y-15514D01*
X25818Y-15186D01*
X25815Y-15182D01*
X25864Y-15133D01*
X25868Y-15136D01*
X25873Y-15131D01*
X25923Y-15180D01*
X25917Y-15186D01*
X25921Y-15189D01*
X25871Y-15239D01*
X25868Y-15235D01*
X25540Y-15563D01*
X25540Y-15613D01*
X24248Y-16904D01*
X24231Y-16904D01*
X24104Y-16957D01*
X24007Y-17054D01*
X23955Y-17181D01*
X23954Y-17318D01*
X24007Y-17445D01*
X24104Y-17542D01*
X24231Y-17594D01*
X24368Y-17595D01*
X24495Y-17542D01*
X24592Y-17445D01*
X24644Y-17318D01*
X24645Y-17201D01*
X25914Y-15932D01*
X25934Y-15952D01*
X26047Y-16065D01*
X26086Y-16081D01*
X26102Y-16120D01*
X26157Y-16175D01*
X26270Y-16288D01*
X26309Y-16304D01*
X26325Y-16343D01*
X26379Y-16398D01*
X26493Y-16511D01*
X26531Y-16527D01*
X26547Y-16565D01*
X26602Y-16620D01*
X26649Y-16668D01*
X26649Y-16668D01*
G37*
G54D40*
X26649Y-16668D02*
X26554Y-16707D01*
X26457Y-16804D01*
X26405Y-16931D01*
X26405Y-16940D01*
X26318Y-16905D01*
X26181Y-16904D01*
X26054Y-16957D01*
X25957Y-17054D01*
X25905Y-17181D01*
X25904Y-17318D01*
X25957Y-17445D01*
X26032Y-17520D01*
X26076Y-17586D01*
X26235Y-17745D01*
X26215Y-17766D01*
X26102Y-17879D01*
X26086Y-17918D01*
X26047Y-17934D01*
X25992Y-17988D01*
X25924Y-18057D01*
X25882Y-18057D01*
X25785Y-18097D01*
X25763Y-18119D01*
X25763Y-18213D01*
X26090Y-18541D01*
X26094Y-18537D01*
X26143Y-18587D01*
X26140Y-18590D01*
X26468Y-18918D01*
X26505Y-18918D01*
X26505Y-19398D01*
X26439Y-19464D01*
X26438Y-19464D01*
X26392Y-19354D01*
X26295Y-19257D01*
X26174Y-19207D01*
X26189Y-19193D01*
X26257Y-19124D01*
X26299Y-19124D01*
X26396Y-19084D01*
X26418Y-19062D01*
X26418Y-18968D01*
X26090Y-18640D01*
X26087Y-18643D01*
X26037Y-18594D01*
X26041Y-18590D01*
X25713Y-18263D01*
X25664Y-18263D01*
X25641Y-18240D01*
X25619Y-18263D01*
X25619Y-18263D01*
X25641Y-18240D01*
X25495Y-18094D01*
X25495Y-18031D01*
X25442Y-17904D01*
X25345Y-17807D01*
X25218Y-17755D01*
X25081Y-17754D01*
X24954Y-17807D01*
X24857Y-17904D01*
X24805Y-18031D01*
X24805Y-18098D01*
X24326Y-18576D01*
X24273Y-18656D01*
X24254Y-18750D01*
X24255Y-18750D01*
X24255Y-19256D01*
X24250Y-19254D01*
X24234Y-19216D01*
X24179Y-19161D01*
X24066Y-19048D01*
X24027Y-19031D01*
X24011Y-18993D01*
X23956Y-18938D01*
X23843Y-18825D01*
X23804Y-18809D01*
X23788Y-18770D01*
X23733Y-18715D01*
X23620Y-18602D01*
X23581Y-18586D01*
X23565Y-18547D01*
X23511Y-18492D01*
X23442Y-18424D01*
X23442Y-18382D01*
X23402Y-18285D01*
X23380Y-18263D01*
X23286Y-18263D01*
X22958Y-18590D01*
X22962Y-18594D01*
X22912Y-18643D01*
X22909Y-18640D01*
X22581Y-18968D01*
X22581Y-19005D01*
X22232Y-19005D01*
X22292Y-18945D01*
X22344Y-18818D01*
X22345Y-18727D01*
X22375Y-18757D01*
X22375Y-18799D01*
X22415Y-18896D01*
X22437Y-18918D01*
X22531Y-18918D01*
X22859Y-18590D01*
X22856Y-18587D01*
X22905Y-18537D01*
X22909Y-18541D01*
X23236Y-18213D01*
X23236Y-18164D01*
X23423Y-17977D01*
X23423Y-17977D01*
X23423Y-17977D01*
X23476Y-17898D01*
X23495Y-17804D01*
X23495Y-17351D01*
X23751Y-17094D01*
X23868Y-17095D01*
X23995Y-17042D01*
X24092Y-16945D01*
X24144Y-16818D01*
X24144Y-16772D01*
X24458Y-16458D01*
X24522Y-16362D01*
X24545Y-16250D01*
X24545Y-16000D01*
X24522Y-15887D01*
X24494Y-15844D01*
X24568Y-15845D01*
X24695Y-15792D01*
X24742Y-15745D01*
X25109Y-15745D01*
X25109Y-15745D01*
X25109Y-15745D01*
X25202Y-15726D01*
X25282Y-15673D01*
X25441Y-15514D01*
X25490Y-15514D01*
X25818Y-15186D01*
X25815Y-15182D01*
X25864Y-15133D01*
X25868Y-15136D01*
X25873Y-15131D01*
X25923Y-15180D01*
X25917Y-15186D01*
X25921Y-15189D01*
X25871Y-15239D01*
X25868Y-15235D01*
X25540Y-15563D01*
X25540Y-15613D01*
X24248Y-16904D01*
X24231Y-16904D01*
X24104Y-16957D01*
X24007Y-17054D01*
X23955Y-17181D01*
X23954Y-17318D01*
X24007Y-17445D01*
X24104Y-17542D01*
X24231Y-17594D01*
X24368Y-17595D01*
X24495Y-17542D01*
X24592Y-17445D01*
X24644Y-17318D01*
X24645Y-17201D01*
X25914Y-15932D01*
X25934Y-15952D01*
X26047Y-16065D01*
X26086Y-16081D01*
X26102Y-16120D01*
X26157Y-16175D01*
X26270Y-16288D01*
X26309Y-16304D01*
X26325Y-16343D01*
X26379Y-16398D01*
X26493Y-16511D01*
X26531Y-16527D01*
X26547Y-16565D01*
X26602Y-16620D01*
X26649Y-16668D01*
G54D10*
G36*
X27688Y-19215D02*
X27618Y-19285D01*
X27334Y-19285D01*
X27305Y-19255D01*
X27255Y-19305D01*
X27285Y-19334D01*
X27285Y-19618D01*
X27215Y-19688D01*
X27215Y-19334D01*
X27244Y-19305D01*
X27194Y-19255D01*
X27165Y-19285D01*
X26995Y-19285D01*
X26995Y-19215D01*
X27165Y-19215D01*
X27194Y-19244D01*
X27244Y-19194D01*
X27215Y-19165D01*
X27215Y-18787D01*
X27285Y-18787D01*
X27285Y-19165D01*
X27255Y-19194D01*
X27305Y-19244D01*
X27334Y-19215D01*
X27688Y-19215D01*
X27688Y-19215D01*
G37*
G54D40*
X27688Y-19215D02*
X27618Y-19285D01*
X27334Y-19285D01*
X27305Y-19255D01*
X27255Y-19305D01*
X27285Y-19334D01*
X27285Y-19618D01*
X27215Y-19688D01*
X27215Y-19334D01*
X27244Y-19305D01*
X27194Y-19255D01*
X27165Y-19285D01*
X26995Y-19285D01*
X26995Y-19215D01*
X27165Y-19215D01*
X27194Y-19244D01*
X27244Y-19194D01*
X27215Y-19165D01*
X27215Y-18787D01*
X27285Y-18787D01*
X27285Y-19165D01*
X27255Y-19194D01*
X27305Y-19244D01*
X27334Y-19215D01*
X27688Y-19215D01*
G54D10*
G36*
X28188Y-21285D02*
X27000Y-21285D01*
X26978Y-21289D01*
X26958Y-21289D01*
X26862Y-21308D01*
X26862Y-21308D01*
X26862Y-21308D01*
X26784Y-21340D01*
X26703Y-21394D01*
X26663Y-21435D01*
X26641Y-21435D01*
X26568Y-21405D01*
X26431Y-21404D01*
X26358Y-21435D01*
X26141Y-21435D01*
X26068Y-21405D01*
X25931Y-21404D01*
X25858Y-21435D01*
X25641Y-21435D01*
X25568Y-21405D01*
X25431Y-21404D01*
X25358Y-21435D01*
X25336Y-21435D01*
X25295Y-21394D01*
X25295Y-21394D01*
X25215Y-21340D01*
X25215Y-21340D01*
X25214Y-21340D01*
X25137Y-21308D01*
X25135Y-21307D01*
X25309Y-21235D01*
X25334Y-21134D01*
X25000Y-20799D01*
X24994Y-20805D01*
X24944Y-20755D01*
X24950Y-20750D01*
X24944Y-20744D01*
X24994Y-20694D01*
X25000Y-20700D01*
X25005Y-20694D01*
X25055Y-20744D01*
X25049Y-20750D01*
X25384Y-21084D01*
X25467Y-21064D01*
X25576Y-21173D01*
X25576Y-21173D01*
X25656Y-21226D01*
X25750Y-21245D01*
X28148Y-21245D01*
X28188Y-21285D01*
X28188Y-21285D01*
G37*
G54D40*
X28188Y-21285D02*
X27000Y-21285D01*
X26978Y-21289D01*
X26958Y-21289D01*
X26862Y-21308D01*
X26862Y-21308D01*
X26862Y-21308D01*
X26784Y-21340D01*
X26703Y-21394D01*
X26663Y-21435D01*
X26641Y-21435D01*
X26568Y-21405D01*
X26431Y-21404D01*
X26358Y-21435D01*
X26141Y-21435D01*
X26068Y-21405D01*
X25931Y-21404D01*
X25858Y-21435D01*
X25641Y-21435D01*
X25568Y-21405D01*
X25431Y-21404D01*
X25358Y-21435D01*
X25336Y-21435D01*
X25295Y-21394D01*
X25295Y-21394D01*
X25215Y-21340D01*
X25215Y-21340D01*
X25214Y-21340D01*
X25137Y-21308D01*
X25135Y-21307D01*
X25309Y-21235D01*
X25334Y-21134D01*
X25000Y-20799D01*
X24994Y-20805D01*
X24944Y-20755D01*
X24950Y-20750D01*
X24944Y-20744D01*
X24994Y-20694D01*
X25000Y-20700D01*
X25005Y-20694D01*
X25055Y-20744D01*
X25049Y-20750D01*
X25384Y-21084D01*
X25467Y-21064D01*
X25576Y-21173D01*
X25576Y-21173D01*
X25656Y-21226D01*
X25750Y-21245D01*
X28148Y-21245D01*
X28188Y-21285D01*
G54D10*
G36*
X28805Y-20755D02*
X28755Y-20805D01*
X28750Y-20799D01*
X28744Y-20805D01*
X28694Y-20755D01*
X28700Y-20750D01*
X28694Y-20744D01*
X28744Y-20694D01*
X28750Y-20700D01*
X28755Y-20694D01*
X28805Y-20744D01*
X28799Y-20750D01*
X28805Y-20755D01*
X28805Y-20755D01*
G37*
G54D40*
X28805Y-20755D02*
X28755Y-20805D01*
X28750Y-20799D01*
X28744Y-20805D01*
X28694Y-20755D01*
X28700Y-20750D01*
X28694Y-20744D01*
X28744Y-20694D01*
X28750Y-20700D01*
X28755Y-20694D01*
X28805Y-20744D01*
X28799Y-20750D01*
X28805Y-20755D01*
G54D10*
G36*
X33285Y-20477D02*
X33221Y-20799D01*
X33052Y-21051D01*
X32891Y-21159D01*
X32891Y-17368D01*
X32891Y-16368D01*
X32891Y-15368D01*
X32891Y-13868D01*
X32891Y-12868D01*
X32891Y-11868D01*
X32891Y-10368D01*
X32891Y-9368D01*
X32891Y-8368D01*
X32888Y-8113D01*
X32797Y-7895D01*
X32688Y-7860D01*
X32640Y-7909D01*
X32640Y-6652D01*
X32287Y-6299D01*
X31934Y-6652D01*
X31962Y-6756D01*
X32181Y-6842D01*
X32415Y-6837D01*
X32612Y-6756D01*
X32640Y-6652D01*
X32640Y-7909D01*
X32639Y-7910D01*
X32639Y-7811D01*
X32604Y-7702D01*
X32368Y-7608D01*
X32113Y-7611D01*
X31895Y-7702D01*
X31860Y-7811D01*
X32250Y-8200D01*
X32639Y-7811D01*
X32639Y-7910D01*
X32299Y-8250D01*
X32688Y-8639D01*
X32797Y-8604D01*
X32891Y-8368D01*
X32891Y-9368D01*
X32888Y-9113D01*
X32797Y-8895D01*
X32688Y-8860D01*
X32639Y-8910D01*
X32639Y-8811D01*
X32619Y-8750D01*
X32639Y-8688D01*
X32250Y-8299D01*
X31860Y-8688D01*
X31880Y-8750D01*
X31860Y-8811D01*
X32250Y-9200D01*
X32639Y-8811D01*
X32639Y-8910D01*
X32299Y-9250D01*
X32688Y-9639D01*
X32797Y-9604D01*
X32891Y-9368D01*
X32891Y-10368D01*
X32888Y-10113D01*
X32797Y-9895D01*
X32688Y-9860D01*
X32639Y-9910D01*
X32639Y-9811D01*
X32619Y-9750D01*
X32639Y-9688D01*
X32250Y-9299D01*
X31860Y-9688D01*
X31880Y-9750D01*
X31860Y-9811D01*
X32250Y-10200D01*
X32639Y-9811D01*
X32639Y-9910D01*
X32299Y-10250D01*
X32688Y-10639D01*
X32797Y-10604D01*
X32891Y-10368D01*
X32891Y-11868D01*
X32888Y-11613D01*
X32797Y-11395D01*
X32688Y-11360D01*
X32639Y-11410D01*
X32639Y-11311D01*
X32639Y-10688D01*
X32250Y-10299D01*
X31860Y-10688D01*
X31895Y-10797D01*
X32131Y-10891D01*
X32386Y-10888D01*
X32604Y-10797D01*
X32639Y-10688D01*
X32639Y-11311D01*
X32604Y-11202D01*
X32368Y-11108D01*
X32113Y-11111D01*
X31895Y-11202D01*
X31860Y-11311D01*
X32250Y-11700D01*
X32639Y-11311D01*
X32639Y-11410D01*
X32299Y-11750D01*
X32688Y-12139D01*
X32797Y-12104D01*
X32891Y-11868D01*
X32891Y-12868D01*
X32888Y-12613D01*
X32797Y-12395D01*
X32688Y-12360D01*
X32639Y-12410D01*
X32639Y-12311D01*
X32619Y-12250D01*
X32639Y-12188D01*
X32250Y-11799D01*
X31860Y-12188D01*
X31880Y-12250D01*
X31860Y-12311D01*
X32250Y-12700D01*
X32639Y-12311D01*
X32639Y-12410D01*
X32299Y-12750D01*
X32688Y-13139D01*
X32797Y-13104D01*
X32891Y-12868D01*
X32891Y-13868D01*
X32888Y-13613D01*
X32797Y-13395D01*
X32688Y-13360D01*
X32639Y-13410D01*
X32639Y-13311D01*
X32619Y-13250D01*
X32639Y-13188D01*
X32250Y-12799D01*
X31860Y-13188D01*
X31880Y-13250D01*
X31860Y-13311D01*
X32250Y-13700D01*
X32639Y-13311D01*
X32639Y-13410D01*
X32299Y-13750D01*
X32688Y-14139D01*
X32797Y-14104D01*
X32891Y-13868D01*
X32891Y-15368D01*
X32888Y-15113D01*
X32797Y-14895D01*
X32688Y-14860D01*
X32639Y-14910D01*
X32639Y-14811D01*
X32639Y-14188D01*
X32250Y-13799D01*
X31860Y-14188D01*
X31895Y-14297D01*
X32131Y-14391D01*
X32386Y-14388D01*
X32604Y-14297D01*
X32639Y-14188D01*
X32639Y-14811D01*
X32604Y-14702D01*
X32368Y-14608D01*
X32113Y-14611D01*
X31895Y-14702D01*
X31860Y-14811D01*
X32250Y-15200D01*
X32639Y-14811D01*
X32639Y-14910D01*
X32299Y-15250D01*
X32688Y-15639D01*
X32797Y-15604D01*
X32891Y-15368D01*
X32891Y-16368D01*
X32888Y-16113D01*
X32797Y-15895D01*
X32688Y-15860D01*
X32639Y-15910D01*
X32639Y-15811D01*
X32619Y-15750D01*
X32639Y-15688D01*
X32250Y-15299D01*
X31860Y-15688D01*
X31880Y-15750D01*
X31860Y-15811D01*
X32250Y-16200D01*
X32639Y-15811D01*
X32639Y-15910D01*
X32299Y-16250D01*
X32688Y-16639D01*
X32797Y-16604D01*
X32891Y-16368D01*
X32891Y-17368D01*
X32888Y-17113D01*
X32797Y-16895D01*
X32688Y-16860D01*
X32639Y-16910D01*
X32639Y-16811D01*
X32619Y-16750D01*
X32639Y-16688D01*
X32250Y-16299D01*
X31860Y-16688D01*
X31880Y-16750D01*
X31860Y-16811D01*
X32250Y-17200D01*
X32639Y-16811D01*
X32639Y-16910D01*
X32299Y-17250D01*
X32688Y-17639D01*
X32797Y-17604D01*
X32891Y-17368D01*
X32891Y-21159D01*
X32798Y-21222D01*
X32639Y-21253D01*
X32639Y-17688D01*
X32250Y-17299D01*
X31860Y-17688D01*
X31895Y-17797D01*
X32131Y-17891D01*
X32386Y-17888D01*
X32604Y-17797D01*
X32639Y-17688D01*
X32639Y-21253D01*
X32458Y-21289D01*
X32457Y-21289D01*
X32362Y-21308D01*
X32362Y-21308D01*
X32362Y-21308D01*
X32284Y-21340D01*
X32203Y-21394D01*
X32163Y-21435D01*
X32141Y-21435D01*
X32068Y-21405D01*
X31931Y-21404D01*
X31858Y-21435D01*
X31641Y-21435D01*
X31568Y-21405D01*
X31431Y-21404D01*
X31358Y-21435D01*
X31141Y-21435D01*
X31068Y-21405D01*
X30931Y-21404D01*
X30858Y-21435D01*
X30836Y-21435D01*
X30795Y-21394D01*
X30795Y-21394D01*
X30715Y-21340D01*
X30715Y-21340D01*
X30714Y-21340D01*
X30637Y-21308D01*
X30541Y-21289D01*
X30520Y-21289D01*
X30500Y-21285D01*
X29811Y-21285D01*
X29853Y-21242D01*
X30030Y-21169D01*
X30169Y-21030D01*
X30244Y-20848D01*
X30245Y-20651D01*
X30180Y-20495D01*
X30319Y-20495D01*
X30255Y-20651D01*
X30254Y-20848D01*
X30330Y-21030D01*
X30469Y-21169D01*
X30651Y-21244D01*
X30848Y-21245D01*
X31030Y-21169D01*
X31169Y-21030D01*
X31244Y-20848D01*
X31245Y-20651D01*
X31169Y-20469D01*
X31030Y-20330D01*
X30848Y-20255D01*
X30841Y-20255D01*
X30853Y-20242D01*
X31030Y-20169D01*
X31169Y-20030D01*
X31244Y-19848D01*
X31245Y-19651D01*
X31169Y-19469D01*
X31030Y-19330D01*
X30848Y-19255D01*
X30651Y-19254D01*
X30490Y-19321D01*
X30490Y-18977D01*
X30490Y-18901D01*
X30423Y-18835D01*
X30035Y-18835D01*
X30035Y-19123D01*
X30101Y-19190D01*
X30172Y-19190D01*
X30277Y-19189D01*
X30375Y-19149D01*
X30449Y-19074D01*
X30490Y-18977D01*
X30490Y-19321D01*
X30469Y-19330D01*
X30330Y-19469D01*
X30255Y-19651D01*
X30254Y-19848D01*
X30319Y-20005D01*
X30180Y-20005D01*
X30244Y-19848D01*
X30245Y-19651D01*
X30169Y-19469D01*
X30030Y-19330D01*
X29853Y-19256D01*
X29786Y-19190D01*
X29827Y-19190D01*
X29898Y-19190D01*
X29965Y-19123D01*
X29965Y-18835D01*
X29957Y-18835D01*
X29957Y-18765D01*
X29965Y-18765D01*
X29965Y-18757D01*
X30035Y-18757D01*
X30035Y-18765D01*
X30423Y-18765D01*
X30490Y-18698D01*
X30490Y-18622D01*
X30449Y-18525D01*
X30419Y-18495D01*
X30507Y-18495D01*
X30554Y-18542D01*
X30681Y-18594D01*
X30818Y-18595D01*
X30945Y-18542D01*
X31042Y-18445D01*
X31094Y-18318D01*
X31095Y-18181D01*
X31042Y-18054D01*
X30945Y-17957D01*
X30818Y-17905D01*
X30681Y-17904D01*
X30681Y-17905D01*
X30324Y-17905D01*
X30263Y-17880D01*
X30186Y-17879D01*
X29736Y-17879D01*
X29675Y-17905D01*
X29574Y-17905D01*
X29513Y-17880D01*
X29436Y-17879D01*
X28995Y-17879D01*
X28995Y-17870D01*
X29013Y-17870D01*
X29085Y-17840D01*
X29140Y-17785D01*
X29169Y-17713D01*
X29170Y-17636D01*
X29170Y-17386D01*
X29140Y-17314D01*
X29125Y-17299D01*
X29125Y-17299D01*
X29199Y-17224D01*
X29240Y-17127D01*
X29240Y-17051D01*
X29173Y-16985D01*
X28785Y-16985D01*
X28785Y-16992D01*
X28715Y-16992D01*
X28715Y-16985D01*
X28423Y-16985D01*
X28326Y-16985D01*
X28035Y-16985D01*
X28035Y-16992D01*
X27965Y-16992D01*
X27965Y-16985D01*
X27957Y-16985D01*
X27957Y-16915D01*
X27965Y-16915D01*
X27965Y-16907D01*
X28035Y-16907D01*
X28035Y-16915D01*
X28326Y-16915D01*
X28423Y-16915D01*
X28715Y-16915D01*
X28715Y-16907D01*
X28785Y-16907D01*
X28785Y-16915D01*
X29173Y-16915D01*
X29240Y-16848D01*
X29240Y-16772D01*
X29228Y-16745D01*
X29398Y-16745D01*
X29712Y-17058D01*
X29680Y-17136D01*
X29679Y-17362D01*
X29766Y-17572D01*
X29926Y-17732D01*
X30136Y-17819D01*
X30362Y-17820D01*
X30572Y-17733D01*
X30732Y-17573D01*
X30749Y-17532D01*
X30766Y-17572D01*
X30926Y-17732D01*
X31136Y-17819D01*
X31362Y-17820D01*
X31572Y-17733D01*
X31702Y-17604D01*
X31702Y-17604D01*
X31811Y-17639D01*
X32200Y-17250D01*
X31811Y-16860D01*
X31702Y-16895D01*
X31702Y-16895D01*
X31695Y-16888D01*
X31695Y-16611D01*
X31702Y-16604D01*
X31702Y-16604D01*
X31811Y-16639D01*
X32200Y-16250D01*
X31811Y-15860D01*
X31702Y-15895D01*
X31702Y-15895D01*
X31695Y-15888D01*
X31695Y-15611D01*
X31702Y-15604D01*
X31702Y-15604D01*
X31811Y-15639D01*
X32200Y-15250D01*
X31811Y-14860D01*
X31702Y-14895D01*
X31702Y-14895D01*
X31695Y-14888D01*
X31695Y-14111D01*
X31702Y-14104D01*
X31702Y-14104D01*
X31811Y-14139D01*
X32200Y-13750D01*
X31811Y-13360D01*
X31702Y-13395D01*
X31702Y-13395D01*
X31695Y-13388D01*
X31695Y-13111D01*
X31702Y-13104D01*
X31702Y-13104D01*
X31811Y-13139D01*
X32200Y-12750D01*
X31811Y-12360D01*
X31702Y-12395D01*
X31702Y-12395D01*
X31695Y-12388D01*
X31695Y-12111D01*
X31702Y-12104D01*
X31702Y-12104D01*
X31811Y-12139D01*
X32200Y-11750D01*
X31811Y-11360D01*
X31702Y-11395D01*
X31702Y-11395D01*
X31695Y-11388D01*
X31695Y-10611D01*
X31702Y-10604D01*
X31702Y-10604D01*
X31811Y-10639D01*
X32200Y-10250D01*
X31811Y-9860D01*
X31702Y-9895D01*
X31702Y-9895D01*
X31695Y-9888D01*
X31695Y-9611D01*
X31702Y-9604D01*
X31702Y-9604D01*
X31811Y-9639D01*
X32200Y-9250D01*
X31811Y-8860D01*
X31702Y-8895D01*
X31702Y-8895D01*
X31695Y-8888D01*
X31695Y-8611D01*
X31702Y-8604D01*
X31702Y-8604D01*
X31811Y-8639D01*
X32200Y-8250D01*
X31811Y-7860D01*
X31702Y-7895D01*
X31702Y-7895D01*
X31573Y-7767D01*
X31363Y-7680D01*
X31137Y-7679D01*
X30927Y-7766D01*
X30767Y-7926D01*
X30750Y-7967D01*
X30733Y-7927D01*
X30573Y-7767D01*
X30363Y-7680D01*
X30137Y-7679D01*
X29927Y-7766D01*
X29767Y-7926D01*
X29680Y-8136D01*
X29680Y-8223D01*
X29326Y-8576D01*
X29273Y-8656D01*
X29254Y-8750D01*
X29255Y-8750D01*
X29255Y-9398D01*
X29076Y-9576D01*
X29023Y-9656D01*
X29004Y-9750D01*
X29005Y-9750D01*
X29005Y-10017D01*
X28945Y-9957D01*
X28818Y-9905D01*
X28681Y-9904D01*
X28554Y-9957D01*
X28457Y-10054D01*
X28426Y-10129D01*
X27986Y-10129D01*
X27914Y-10159D01*
X27869Y-10205D01*
X27800Y-10205D01*
X27706Y-10223D01*
X27626Y-10276D01*
X27626Y-10276D01*
X27259Y-10643D01*
X27257Y-10647D01*
X27197Y-10647D01*
X27125Y-10677D01*
X27070Y-10731D01*
X27041Y-10803D01*
X27040Y-10881D01*
X27040Y-11196D01*
X27070Y-11267D01*
X27125Y-11322D01*
X27197Y-11352D01*
X27274Y-11352D01*
X27668Y-11352D01*
X27740Y-11322D01*
X27795Y-11268D01*
X27824Y-11196D01*
X27825Y-11118D01*
X27825Y-10803D01*
X27815Y-10780D01*
X27885Y-10711D01*
X27914Y-10740D01*
X27937Y-10749D01*
X27914Y-10759D01*
X27859Y-10814D01*
X27830Y-10886D01*
X27829Y-10963D01*
X27829Y-11213D01*
X27859Y-11285D01*
X27914Y-11340D01*
X27986Y-11369D01*
X28005Y-11369D01*
X28005Y-11398D01*
X27898Y-11505D01*
X27742Y-11505D01*
X27695Y-11457D01*
X27568Y-11405D01*
X27431Y-11404D01*
X27304Y-11457D01*
X27207Y-11554D01*
X27155Y-11681D01*
X27154Y-11818D01*
X27207Y-11945D01*
X27267Y-12005D01*
X27250Y-12005D01*
X27156Y-12023D01*
X27076Y-12076D01*
X27076Y-12076D01*
X26911Y-12241D01*
X26816Y-12202D01*
X26711Y-12202D01*
X26668Y-12202D01*
X26602Y-12268D01*
X26602Y-12590D01*
X26609Y-12590D01*
X26609Y-12660D01*
X26602Y-12660D01*
X26602Y-12667D01*
X26532Y-12667D01*
X26532Y-12660D01*
X26171Y-12660D01*
X26105Y-12726D01*
X26104Y-12755D01*
X25341Y-12755D01*
X25351Y-12745D01*
X25749Y-12745D01*
X25750Y-12745D01*
X25750Y-12745D01*
X25843Y-12726D01*
X25923Y-12673D01*
X26104Y-12491D01*
X26105Y-12523D01*
X26171Y-12590D01*
X26532Y-12590D01*
X26532Y-12268D01*
X26465Y-12202D01*
X26422Y-12202D01*
X26317Y-12202D01*
X26245Y-12232D01*
X26245Y-11683D01*
X26259Y-11697D01*
X26331Y-11727D01*
X26408Y-11727D01*
X26802Y-11727D01*
X26874Y-11697D01*
X26929Y-11643D01*
X26958Y-11571D01*
X26959Y-11493D01*
X26959Y-11178D01*
X26929Y-11107D01*
X26874Y-11052D01*
X26839Y-11037D01*
X26914Y-11007D01*
X26988Y-10932D01*
X27029Y-10834D01*
X27029Y-10415D01*
X26988Y-10317D01*
X26914Y-10242D01*
X26816Y-10202D01*
X26711Y-10202D01*
X26668Y-10202D01*
X26602Y-10268D01*
X26602Y-10590D01*
X26962Y-10590D01*
X27029Y-10523D01*
X27029Y-10415D01*
X27029Y-10834D01*
X27029Y-10726D01*
X26962Y-10660D01*
X26602Y-10660D01*
X26602Y-10667D01*
X26532Y-10667D01*
X26532Y-10660D01*
X26524Y-10660D01*
X26524Y-10590D01*
X26532Y-10590D01*
X26532Y-10268D01*
X26465Y-10202D01*
X26422Y-10202D01*
X26394Y-10202D01*
X26426Y-10170D01*
X26613Y-10170D01*
X26685Y-10140D01*
X26740Y-10085D01*
X26749Y-10062D01*
X26759Y-10085D01*
X26814Y-10140D01*
X26886Y-10169D01*
X26963Y-10170D01*
X27213Y-10170D01*
X27285Y-10140D01*
X27340Y-10085D01*
X27369Y-10013D01*
X27370Y-9958D01*
X27423Y-9923D01*
X27596Y-9750D01*
X27627Y-9781D01*
X27699Y-9811D01*
X27776Y-9811D01*
X28209Y-9811D01*
X28250Y-9794D01*
X28289Y-9811D01*
X28367Y-9811D01*
X28800Y-9811D01*
X28872Y-9781D01*
X28927Y-9726D01*
X28956Y-9655D01*
X28956Y-9577D01*
X28956Y-9389D01*
X29173Y-9173D01*
X29173Y-9173D01*
X29173Y-9173D01*
X29226Y-9093D01*
X29245Y-9000D01*
X29244Y-9000D01*
X29245Y-9000D01*
X29245Y-7337D01*
X29226Y-7243D01*
X29173Y-7163D01*
X29173Y-7163D01*
X29094Y-7084D01*
X29094Y-6725D01*
X29064Y-6653D01*
X29009Y-6598D01*
X28937Y-6569D01*
X28860Y-6568D01*
X28388Y-6568D01*
X28316Y-6598D01*
X28261Y-6653D01*
X28250Y-6681D01*
X28238Y-6653D01*
X28183Y-6598D01*
X28111Y-6569D01*
X28034Y-6568D01*
X27562Y-6568D01*
X27490Y-6598D01*
X27490Y-6599D01*
X27490Y-6272D01*
X27449Y-6175D01*
X27375Y-6100D01*
X27277Y-6060D01*
X27172Y-6059D01*
X27101Y-6060D01*
X27035Y-6126D01*
X27035Y-6415D01*
X27423Y-6415D01*
X27490Y-6348D01*
X27490Y-6272D01*
X27490Y-6599D01*
X27490Y-6599D01*
X27490Y-6551D01*
X27423Y-6485D01*
X27035Y-6485D01*
X27035Y-6492D01*
X26965Y-6492D01*
X26965Y-6485D01*
X26965Y-6415D01*
X26965Y-6126D01*
X26898Y-6060D01*
X26827Y-6059D01*
X26722Y-6060D01*
X26624Y-6100D01*
X26550Y-6175D01*
X26509Y-6272D01*
X26510Y-6348D01*
X26576Y-6415D01*
X26965Y-6415D01*
X26965Y-6485D01*
X26576Y-6485D01*
X26510Y-6551D01*
X26509Y-6627D01*
X26550Y-6724D01*
X26624Y-6799D01*
X26609Y-6814D01*
X26580Y-6886D01*
X26579Y-6963D01*
X26579Y-7213D01*
X26597Y-7255D01*
X26500Y-7255D01*
X26499Y-7255D01*
X26406Y-7273D01*
X26326Y-7326D01*
X26326Y-7326D01*
X26317Y-7336D01*
X26317Y-7100D01*
X26312Y-6875D01*
X26235Y-6690D01*
X26134Y-6665D01*
X26084Y-6714D01*
X26084Y-6615D01*
X26059Y-6514D01*
X25850Y-6432D01*
X25625Y-6437D01*
X25440Y-6514D01*
X25415Y-6615D01*
X25750Y-6950D01*
X26084Y-6615D01*
X26084Y-6714D01*
X25799Y-7000D01*
X26134Y-7334D01*
X26235Y-7309D01*
X26317Y-7100D01*
X26317Y-7336D01*
X26084Y-7568D01*
X26084Y-7384D01*
X25750Y-7049D01*
X25415Y-7384D01*
X25440Y-7485D01*
X25649Y-7567D01*
X25874Y-7562D01*
X26059Y-7485D01*
X26084Y-7384D01*
X26084Y-7568D01*
X25700Y-7952D01*
X25699Y-7949D01*
X25624Y-7875D01*
X25527Y-7834D01*
X25476Y-7835D01*
X25410Y-7901D01*
X25410Y-8215D01*
X25417Y-8215D01*
X25417Y-8285D01*
X25410Y-8285D01*
X25410Y-8292D01*
X25340Y-8292D01*
X25340Y-8285D01*
X25332Y-8285D01*
X25332Y-8215D01*
X25340Y-8215D01*
X25340Y-7901D01*
X25273Y-7835D01*
X25237Y-7834D01*
X25208Y-7791D01*
X25208Y-7791D01*
X25045Y-7627D01*
X25045Y-7495D01*
X25088Y-7495D01*
X25160Y-7465D01*
X25215Y-7410D01*
X25244Y-7338D01*
X25245Y-7263D01*
X25264Y-7309D01*
X25365Y-7334D01*
X25700Y-7000D01*
X25365Y-6665D01*
X25264Y-6690D01*
X25245Y-6739D01*
X25245Y-6661D01*
X25215Y-6589D01*
X25160Y-6534D01*
X25088Y-6505D01*
X25011Y-6504D01*
X24411Y-6504D01*
X24339Y-6534D01*
X24284Y-6589D01*
X24255Y-6661D01*
X24254Y-6738D01*
X24254Y-7338D01*
X24284Y-7410D01*
X24339Y-7465D01*
X24411Y-7494D01*
X24455Y-7495D01*
X24455Y-7750D01*
X24477Y-7862D01*
X24505Y-7904D01*
X24486Y-7904D01*
X24414Y-7934D01*
X24359Y-7989D01*
X24332Y-8054D01*
X23553Y-8833D01*
X23495Y-8920D01*
X23495Y-7651D01*
X23495Y-6651D01*
X23419Y-6469D01*
X23280Y-6330D01*
X23098Y-6255D01*
X22901Y-6254D01*
X22719Y-6330D01*
X22580Y-6469D01*
X22505Y-6651D01*
X22504Y-6848D01*
X22580Y-7030D01*
X22719Y-7169D01*
X22901Y-7244D01*
X23098Y-7245D01*
X23280Y-7169D01*
X23419Y-7030D01*
X23494Y-6848D01*
X23495Y-6651D01*
X23495Y-7651D01*
X23419Y-7469D01*
X23280Y-7330D01*
X23098Y-7255D01*
X22901Y-7254D01*
X22719Y-7330D01*
X22580Y-7469D01*
X22505Y-7651D01*
X22504Y-7848D01*
X22580Y-8030D01*
X22719Y-8169D01*
X22901Y-8244D01*
X23098Y-8245D01*
X23280Y-8169D01*
X23419Y-8030D01*
X23494Y-7848D01*
X23495Y-7651D01*
X23495Y-8920D01*
X23478Y-8945D01*
X23452Y-9077D01*
X23452Y-9155D01*
X23395Y-9155D01*
X23395Y-9111D01*
X23365Y-9039D01*
X23310Y-8984D01*
X23238Y-8955D01*
X23161Y-8954D01*
X22495Y-8954D01*
X22495Y-7651D01*
X22495Y-6651D01*
X22419Y-6469D01*
X22280Y-6330D01*
X22098Y-6255D01*
X21901Y-6254D01*
X21719Y-6330D01*
X21580Y-6469D01*
X21505Y-6651D01*
X21504Y-6848D01*
X21580Y-7030D01*
X21719Y-7169D01*
X21901Y-7244D01*
X22098Y-7245D01*
X22280Y-7169D01*
X22419Y-7030D01*
X22494Y-6848D01*
X22495Y-6651D01*
X22495Y-7651D01*
X22419Y-7469D01*
X22280Y-7330D01*
X22098Y-7255D01*
X21901Y-7254D01*
X21719Y-7330D01*
X21580Y-7469D01*
X21505Y-7651D01*
X21504Y-7848D01*
X21580Y-8030D01*
X21719Y-8169D01*
X21901Y-8244D01*
X22098Y-8245D01*
X22280Y-8169D01*
X22419Y-8030D01*
X22494Y-7848D01*
X22495Y-7651D01*
X22495Y-8954D01*
X22461Y-8954D01*
X22389Y-8984D01*
X22334Y-9039D01*
X22305Y-9111D01*
X22304Y-9188D01*
X22304Y-9888D01*
X22334Y-9960D01*
X22389Y-10015D01*
X22461Y-10044D01*
X22538Y-10045D01*
X23238Y-10045D01*
X23310Y-10015D01*
X23365Y-9960D01*
X23394Y-9888D01*
X23395Y-9845D01*
X23452Y-9845D01*
X23452Y-9870D01*
X23425Y-9935D01*
X23425Y-10013D01*
X23425Y-10564D01*
X23441Y-10605D01*
X23345Y-10605D01*
X23345Y-10261D01*
X23315Y-10189D01*
X23260Y-10134D01*
X23188Y-10105D01*
X23111Y-10104D01*
X22311Y-10104D01*
X22239Y-10134D01*
X22184Y-10189D01*
X22155Y-10261D01*
X22154Y-10338D01*
X22154Y-10938D01*
X22184Y-11010D01*
X22239Y-11065D01*
X22311Y-11094D01*
X22388Y-11095D01*
X22686Y-11095D01*
X22870Y-11279D01*
X22870Y-11279D01*
X22954Y-11334D01*
X22851Y-11335D01*
X22785Y-11401D01*
X22785Y-11865D01*
X22792Y-11865D01*
X22792Y-11935D01*
X22785Y-11935D01*
X22785Y-12398D01*
X22851Y-12465D01*
X22976Y-12465D01*
X22836Y-12605D01*
X22805Y-12605D01*
X22780Y-12580D01*
X22715Y-12553D01*
X22598Y-12505D01*
X22401Y-12504D01*
X22219Y-12580D01*
X22193Y-12606D01*
X22173Y-12576D01*
X22173Y-12576D01*
X21923Y-12326D01*
X21843Y-12273D01*
X21750Y-12254D01*
X21749Y-12255D01*
X21189Y-12255D01*
X21190Y-12172D01*
X21190Y-12101D01*
X21123Y-12035D01*
X20835Y-12035D01*
X20835Y-12042D01*
X20765Y-12042D01*
X20765Y-12035D01*
X20757Y-12035D01*
X20757Y-11965D01*
X20765Y-11965D01*
X20765Y-11673D01*
X20765Y-11576D01*
X20765Y-11285D01*
X20757Y-11285D01*
X20757Y-11215D01*
X20765Y-11215D01*
X20765Y-10826D01*
X20698Y-10760D01*
X20622Y-10759D01*
X20525Y-10800D01*
X20450Y-10874D01*
X20445Y-10869D01*
X20445Y-10450D01*
X20444Y-10449D01*
X20445Y-10449D01*
X20426Y-10356D01*
X20382Y-10290D01*
X20398Y-10290D01*
X20465Y-10223D01*
X20465Y-9785D01*
X20457Y-9785D01*
X20457Y-9715D01*
X20465Y-9715D01*
X20465Y-9707D01*
X20535Y-9707D01*
X20535Y-9715D01*
X20973Y-9715D01*
X21040Y-9648D01*
X21040Y-9527D01*
X21039Y-9422D01*
X20999Y-9324D01*
X20994Y-9320D01*
X21104Y-9320D01*
X21104Y-9888D01*
X21134Y-9960D01*
X21189Y-10015D01*
X21205Y-10021D01*
X21205Y-10550D01*
X21180Y-10611D01*
X21179Y-10688D01*
X21179Y-10948D01*
X21149Y-10874D01*
X21074Y-10800D01*
X21040Y-10785D01*
X21040Y-9972D01*
X21040Y-9851D01*
X20973Y-9785D01*
X20535Y-9785D01*
X20535Y-10223D01*
X20601Y-10290D01*
X20827Y-10290D01*
X20924Y-10249D01*
X20999Y-10175D01*
X21039Y-10077D01*
X21040Y-9972D01*
X21040Y-10785D01*
X20977Y-10759D01*
X20901Y-10760D01*
X20835Y-10826D01*
X20835Y-11215D01*
X20842Y-11215D01*
X20842Y-11285D01*
X20835Y-11285D01*
X20835Y-11576D01*
X20835Y-11673D01*
X20835Y-11965D01*
X21123Y-11965D01*
X21169Y-11919D01*
X21224Y-11974D01*
X21322Y-12014D01*
X21427Y-12015D01*
X21548Y-12015D01*
X21615Y-11948D01*
X21615Y-11610D01*
X21607Y-11610D01*
X21607Y-11540D01*
X21615Y-11540D01*
X21615Y-11532D01*
X21685Y-11532D01*
X21685Y-11540D01*
X21692Y-11540D01*
X21692Y-11610D01*
X21685Y-11610D01*
X21685Y-11948D01*
X21751Y-12015D01*
X21872Y-12015D01*
X21977Y-12014D01*
X22075Y-11974D01*
X22114Y-11935D01*
X22151Y-11935D01*
X22085Y-12001D01*
X22084Y-12252D01*
X22125Y-12349D01*
X22199Y-12424D01*
X22297Y-12464D01*
X22402Y-12465D01*
X22648Y-12465D01*
X22715Y-12398D01*
X22715Y-11935D01*
X22707Y-11935D01*
X22707Y-11865D01*
X22715Y-11865D01*
X22715Y-11401D01*
X22648Y-11335D01*
X22402Y-11334D01*
X22297Y-11335D01*
X22199Y-11375D01*
X22190Y-11385D01*
X22190Y-11347D01*
X22149Y-11250D01*
X22075Y-11175D01*
X22039Y-11160D01*
X22090Y-11110D01*
X22119Y-11038D01*
X22120Y-10961D01*
X22120Y-10611D01*
X22095Y-10550D01*
X22095Y-10021D01*
X22110Y-10015D01*
X22165Y-9960D01*
X22194Y-9888D01*
X22195Y-9811D01*
X22195Y-9111D01*
X22165Y-9039D01*
X22110Y-8984D01*
X22038Y-8955D01*
X21961Y-8954D01*
X21657Y-8954D01*
X21495Y-8792D01*
X21495Y-7651D01*
X21495Y-6651D01*
X21419Y-6469D01*
X21280Y-6330D01*
X21098Y-6255D01*
X20901Y-6254D01*
X20719Y-6330D01*
X20580Y-6469D01*
X20505Y-6651D01*
X20504Y-6848D01*
X20580Y-7030D01*
X20719Y-7169D01*
X20901Y-7244D01*
X21098Y-7245D01*
X21280Y-7169D01*
X21419Y-7030D01*
X21494Y-6848D01*
X21495Y-6651D01*
X21495Y-7651D01*
X21419Y-7469D01*
X21280Y-7330D01*
X21098Y-7255D01*
X20901Y-7254D01*
X20719Y-7330D01*
X20580Y-7469D01*
X20505Y-7651D01*
X20504Y-7848D01*
X20580Y-8030D01*
X20719Y-8169D01*
X20901Y-8244D01*
X21098Y-8245D01*
X21280Y-8169D01*
X21419Y-8030D01*
X21494Y-7848D01*
X21495Y-7651D01*
X21495Y-8792D01*
X21476Y-8773D01*
X21372Y-8704D01*
X21250Y-8680D01*
X19250Y-8680D01*
X19127Y-8704D01*
X19023Y-8773D01*
X18523Y-9273D01*
X18495Y-9316D01*
X18495Y-9250D01*
X18476Y-9156D01*
X18423Y-9076D01*
X18423Y-9076D01*
X17787Y-8441D01*
X17819Y-8363D01*
X17820Y-8137D01*
X17733Y-7927D01*
X17573Y-7767D01*
X17363Y-7680D01*
X17137Y-7679D01*
X16927Y-7766D01*
X16767Y-7926D01*
X16750Y-7967D01*
X16733Y-7927D01*
X16573Y-7767D01*
X16363Y-7680D01*
X16137Y-7679D01*
X15927Y-7766D01*
X15797Y-7895D01*
X15797Y-7895D01*
X15688Y-7860D01*
X15639Y-7910D01*
X15639Y-7811D01*
X15604Y-7702D01*
X15565Y-7686D01*
X15565Y-6652D01*
X15212Y-6299D01*
X14859Y-6652D01*
X14887Y-6756D01*
X15106Y-6842D01*
X15341Y-6837D01*
X15537Y-6756D01*
X15565Y-6652D01*
X15565Y-7686D01*
X15368Y-7608D01*
X15113Y-7611D01*
X14895Y-7702D01*
X14860Y-7811D01*
X15250Y-8200D01*
X15639Y-7811D01*
X15639Y-7910D01*
X15299Y-8250D01*
X15688Y-8639D01*
X15797Y-8604D01*
X15797Y-8604D01*
X15805Y-8611D01*
X15805Y-8888D01*
X15797Y-8895D01*
X15797Y-8895D01*
X15688Y-8860D01*
X15639Y-8910D01*
X15639Y-8811D01*
X15619Y-8750D01*
X15639Y-8688D01*
X15250Y-8299D01*
X15200Y-8348D01*
X15200Y-8250D01*
X14811Y-7860D01*
X14702Y-7895D01*
X14608Y-8131D01*
X14611Y-8386D01*
X14702Y-8604D01*
X14811Y-8639D01*
X15200Y-8250D01*
X15200Y-8348D01*
X14860Y-8688D01*
X14880Y-8750D01*
X14860Y-8811D01*
X15250Y-9200D01*
X15639Y-8811D01*
X15639Y-8910D01*
X15299Y-9250D01*
X15688Y-9639D01*
X15797Y-9604D01*
X15797Y-9604D01*
X15805Y-9611D01*
X15805Y-9888D01*
X15797Y-9895D01*
X15797Y-9895D01*
X15688Y-9860D01*
X15639Y-9910D01*
X15639Y-9811D01*
X15619Y-9750D01*
X15639Y-9688D01*
X15250Y-9299D01*
X15200Y-9348D01*
X15200Y-9250D01*
X14811Y-8860D01*
X14702Y-8895D01*
X14608Y-9131D01*
X14611Y-9386D01*
X14702Y-9604D01*
X14811Y-9639D01*
X15200Y-9250D01*
X15200Y-9348D01*
X14860Y-9688D01*
X14880Y-9750D01*
X14860Y-9811D01*
X15250Y-10200D01*
X15639Y-9811D01*
X15639Y-9910D01*
X15299Y-10250D01*
X15688Y-10639D01*
X15797Y-10604D01*
X15797Y-10604D01*
X15805Y-10611D01*
X15805Y-11388D01*
X15797Y-11395D01*
X15797Y-11395D01*
X15688Y-11360D01*
X15639Y-11410D01*
X15639Y-11311D01*
X15639Y-10688D01*
X15250Y-10299D01*
X15200Y-10348D01*
X15200Y-10250D01*
X14811Y-9860D01*
X14702Y-9895D01*
X14608Y-10131D01*
X14611Y-10386D01*
X14702Y-10604D01*
X14811Y-10639D01*
X15200Y-10250D01*
X15200Y-10348D01*
X14860Y-10688D01*
X14895Y-10797D01*
X15131Y-10891D01*
X15386Y-10888D01*
X15604Y-10797D01*
X15639Y-10688D01*
X15639Y-11311D01*
X15604Y-11202D01*
X15368Y-11108D01*
X15113Y-11111D01*
X14895Y-11202D01*
X14860Y-11311D01*
X15250Y-11700D01*
X15639Y-11311D01*
X15639Y-11410D01*
X15299Y-11750D01*
X15688Y-12139D01*
X15797Y-12104D01*
X15797Y-12104D01*
X15805Y-12111D01*
X15805Y-12388D01*
X15797Y-12395D01*
X15797Y-12395D01*
X15688Y-12360D01*
X15639Y-12410D01*
X15639Y-12311D01*
X15619Y-12250D01*
X15639Y-12188D01*
X15250Y-11799D01*
X15200Y-11848D01*
X15200Y-11750D01*
X14811Y-11360D01*
X14702Y-11395D01*
X14608Y-11631D01*
X14611Y-11886D01*
X14702Y-12104D01*
X14811Y-12139D01*
X15200Y-11750D01*
X15200Y-11848D01*
X14860Y-12188D01*
X14880Y-12250D01*
X14860Y-12311D01*
X15250Y-12700D01*
X15639Y-12311D01*
X15639Y-12410D01*
X15299Y-12750D01*
X15688Y-13139D01*
X15797Y-13104D01*
X15797Y-13104D01*
X15805Y-13111D01*
X15805Y-13388D01*
X15797Y-13395D01*
X15797Y-13395D01*
X15688Y-13360D01*
X15639Y-13410D01*
X15639Y-13311D01*
X15619Y-13250D01*
X15639Y-13188D01*
X15250Y-12799D01*
X15200Y-12848D01*
X15200Y-12750D01*
X14811Y-12360D01*
X14702Y-12395D01*
X14608Y-12631D01*
X14611Y-12886D01*
X14702Y-13104D01*
X14811Y-13139D01*
X15200Y-12750D01*
X15200Y-12848D01*
X14860Y-13188D01*
X14880Y-13250D01*
X14860Y-13311D01*
X15250Y-13700D01*
X15639Y-13311D01*
X15639Y-13410D01*
X15299Y-13750D01*
X15688Y-14139D01*
X15797Y-14104D01*
X15797Y-14104D01*
X15805Y-14111D01*
X15805Y-14888D01*
X15797Y-14895D01*
X15797Y-14895D01*
X15688Y-14860D01*
X15639Y-14910D01*
X15639Y-14811D01*
X15639Y-14188D01*
X15250Y-13799D01*
X15200Y-13848D01*
X15200Y-13750D01*
X14811Y-13360D01*
X14702Y-13395D01*
X14608Y-13631D01*
X14611Y-13886D01*
X14702Y-14104D01*
X14811Y-14139D01*
X15200Y-13750D01*
X15200Y-13848D01*
X14860Y-14188D01*
X14895Y-14297D01*
X15131Y-14391D01*
X15386Y-14388D01*
X15604Y-14297D01*
X15639Y-14188D01*
X15639Y-14811D01*
X15604Y-14702D01*
X15368Y-14608D01*
X15113Y-14611D01*
X14895Y-14702D01*
X14860Y-14811D01*
X15250Y-15200D01*
X15639Y-14811D01*
X15639Y-14910D01*
X15299Y-15250D01*
X15688Y-15639D01*
X15797Y-15604D01*
X15797Y-15604D01*
X15805Y-15611D01*
X15805Y-15888D01*
X15797Y-15895D01*
X15797Y-15895D01*
X15688Y-15860D01*
X15639Y-15910D01*
X15639Y-15811D01*
X15619Y-15750D01*
X15639Y-15688D01*
X15250Y-15299D01*
X15200Y-15348D01*
X15200Y-15250D01*
X14811Y-14860D01*
X14702Y-14895D01*
X14608Y-15131D01*
X14611Y-15386D01*
X14702Y-15604D01*
X14811Y-15639D01*
X15200Y-15250D01*
X15200Y-15348D01*
X14860Y-15688D01*
X14880Y-15750D01*
X14860Y-15811D01*
X15250Y-16200D01*
X15639Y-15811D01*
X15639Y-15910D01*
X15299Y-16250D01*
X15688Y-16639D01*
X15797Y-16604D01*
X15797Y-16604D01*
X15805Y-16611D01*
X15805Y-16888D01*
X15797Y-16895D01*
X15797Y-16895D01*
X15688Y-16860D01*
X15639Y-16910D01*
X15639Y-16811D01*
X15619Y-16750D01*
X15639Y-16688D01*
X15250Y-16299D01*
X15200Y-16348D01*
X15200Y-16250D01*
X14811Y-15860D01*
X14702Y-15895D01*
X14608Y-16131D01*
X14611Y-16386D01*
X14702Y-16604D01*
X14811Y-16639D01*
X15200Y-16250D01*
X15200Y-16348D01*
X14860Y-16688D01*
X14880Y-16750D01*
X14860Y-16811D01*
X15250Y-17200D01*
X15639Y-16811D01*
X15639Y-16910D01*
X15299Y-17250D01*
X15688Y-17639D01*
X15797Y-17604D01*
X15797Y-17604D01*
X15905Y-17711D01*
X15905Y-18250D01*
X15931Y-18382D01*
X16006Y-18493D01*
X16155Y-18642D01*
X16155Y-19607D01*
X15756Y-20006D01*
X15681Y-20117D01*
X15655Y-20250D01*
X15655Y-20394D01*
X15639Y-20410D01*
X15639Y-17688D01*
X15250Y-17299D01*
X15200Y-17348D01*
X15200Y-17250D01*
X14811Y-16860D01*
X14702Y-16895D01*
X14608Y-17131D01*
X14611Y-17386D01*
X14702Y-17604D01*
X14811Y-17639D01*
X15200Y-17250D01*
X15200Y-17348D01*
X14860Y-17688D01*
X14895Y-17797D01*
X15131Y-17891D01*
X15386Y-17888D01*
X15604Y-17797D01*
X15639Y-17688D01*
X15639Y-20410D01*
X15580Y-20469D01*
X15539Y-20569D01*
X15485Y-20440D01*
X15384Y-20415D01*
X15334Y-20464D01*
X15334Y-20365D01*
X15309Y-20264D01*
X15100Y-20182D01*
X14875Y-20187D01*
X14690Y-20264D01*
X14665Y-20365D01*
X15000Y-20700D01*
X15334Y-20365D01*
X15334Y-20464D01*
X15049Y-20750D01*
X15384Y-21084D01*
X15485Y-21059D01*
X15537Y-20926D01*
X15580Y-21030D01*
X15719Y-21169D01*
X15901Y-21244D01*
X16098Y-21245D01*
X16280Y-21169D01*
X16419Y-21030D01*
X16494Y-20848D01*
X16495Y-20651D01*
X16419Y-20469D01*
X16345Y-20394D01*
X16345Y-20392D01*
X16743Y-19993D01*
X16796Y-19915D01*
X16998Y-19915D01*
X17065Y-19848D01*
X17065Y-19285D01*
X17057Y-19285D01*
X17057Y-19215D01*
X17065Y-19215D01*
X17065Y-18651D01*
X16998Y-18585D01*
X16845Y-18584D01*
X16845Y-18500D01*
X16818Y-18367D01*
X16818Y-18367D01*
X16799Y-18339D01*
X16743Y-18256D01*
X16743Y-18256D01*
X16595Y-18107D01*
X16595Y-17711D01*
X16732Y-17573D01*
X16749Y-17532D01*
X16766Y-17572D01*
X16926Y-17732D01*
X17008Y-17766D01*
X17008Y-17766D01*
X17023Y-17843D01*
X17076Y-17923D01*
X17355Y-18201D01*
X17355Y-18584D01*
X17201Y-18585D01*
X17135Y-18651D01*
X17135Y-19215D01*
X17142Y-19215D01*
X17142Y-19285D01*
X17135Y-19285D01*
X17135Y-19848D01*
X17201Y-19915D01*
X17355Y-19915D01*
X17355Y-20099D01*
X17354Y-20100D01*
X17373Y-20193D01*
X17426Y-20273D01*
X17576Y-20423D01*
X17576Y-20423D01*
X17578Y-20424D01*
X17514Y-20440D01*
X17462Y-20573D01*
X17419Y-20469D01*
X17280Y-20330D01*
X17098Y-20255D01*
X16901Y-20254D01*
X16719Y-20330D01*
X16580Y-20469D01*
X16505Y-20651D01*
X16504Y-20848D01*
X16580Y-21030D01*
X16719Y-21169D01*
X16901Y-21244D01*
X17098Y-21245D01*
X17280Y-21169D01*
X17419Y-21030D01*
X17460Y-20930D01*
X17514Y-21059D01*
X17615Y-21084D01*
X17950Y-20750D01*
X17944Y-20744D01*
X17994Y-20694D01*
X18000Y-20700D01*
X18005Y-20694D01*
X18055Y-20744D01*
X18049Y-20750D01*
X18384Y-21084D01*
X18485Y-21059D01*
X18537Y-20926D01*
X18580Y-21030D01*
X18719Y-21169D01*
X18901Y-21244D01*
X19098Y-21245D01*
X19280Y-21169D01*
X19419Y-21030D01*
X19494Y-20848D01*
X19495Y-20651D01*
X19430Y-20495D01*
X19569Y-20495D01*
X19505Y-20651D01*
X19504Y-20848D01*
X19580Y-21030D01*
X19719Y-21169D01*
X19901Y-21244D01*
X20098Y-21245D01*
X20280Y-21169D01*
X20419Y-21030D01*
X20494Y-20848D01*
X20495Y-20651D01*
X20430Y-20495D01*
X20569Y-20495D01*
X20505Y-20651D01*
X20504Y-20848D01*
X20580Y-21030D01*
X20719Y-21169D01*
X20901Y-21244D01*
X21098Y-21245D01*
X21133Y-21230D01*
X21308Y-21405D01*
X21181Y-21404D01*
X21108Y-21435D01*
X21086Y-21435D01*
X21045Y-21394D01*
X21045Y-21394D01*
X20965Y-21340D01*
X20965Y-21340D01*
X20964Y-21340D01*
X20887Y-21308D01*
X20791Y-21289D01*
X20770Y-21289D01*
X20750Y-21285D01*
X18190Y-21285D01*
X18309Y-21235D01*
X18334Y-21134D01*
X18000Y-20799D01*
X17665Y-21134D01*
X17690Y-21235D01*
X17817Y-21285D01*
X17000Y-21285D01*
X16978Y-21289D01*
X16958Y-21289D01*
X16862Y-21308D01*
X16862Y-21308D01*
X16862Y-21308D01*
X16784Y-21340D01*
X16703Y-21394D01*
X16663Y-21435D01*
X16641Y-21435D01*
X16568Y-21405D01*
X16431Y-21404D01*
X16358Y-21435D01*
X16141Y-21435D01*
X16068Y-21405D01*
X15931Y-21404D01*
X15858Y-21435D01*
X15641Y-21435D01*
X15568Y-21405D01*
X15431Y-21404D01*
X15358Y-21435D01*
X15336Y-21435D01*
X15295Y-21394D01*
X15295Y-21394D01*
X15215Y-21340D01*
X15215Y-21340D01*
X15214Y-21340D01*
X15137Y-21308D01*
X15135Y-21307D01*
X15309Y-21235D01*
X15334Y-21134D01*
X15000Y-20799D01*
X14994Y-20805D01*
X14950Y-20761D01*
X14944Y-20755D01*
X14950Y-20750D01*
X14615Y-20415D01*
X14514Y-20440D01*
X14432Y-20649D01*
X14437Y-20874D01*
X14514Y-21059D01*
X14615Y-21084D01*
X14568Y-21131D01*
X14574Y-21137D01*
X14448Y-21052D01*
X14277Y-20798D01*
X14214Y-20478D01*
X14214Y-6771D01*
X14277Y-6451D01*
X14448Y-6197D01*
X14653Y-6059D01*
X14620Y-6143D01*
X14624Y-6378D01*
X14706Y-6574D01*
X14810Y-6602D01*
X15163Y-6250D01*
X15157Y-6244D01*
X15207Y-6194D01*
X15212Y-6200D01*
X15218Y-6194D01*
X15267Y-6244D01*
X15262Y-6250D01*
X15615Y-6602D01*
X15719Y-6574D01*
X15804Y-6356D01*
X15800Y-6121D01*
X15735Y-5964D01*
X16267Y-5964D01*
X16267Y-6613D01*
X16296Y-6685D01*
X16351Y-6740D01*
X16423Y-6769D01*
X16501Y-6770D01*
X17151Y-6770D01*
X17222Y-6740D01*
X17277Y-6685D01*
X17307Y-6613D01*
X17307Y-6536D01*
X17307Y-5964D01*
X19237Y-5964D01*
X19163Y-5995D01*
X18995Y-6162D01*
X18905Y-6381D01*
X18904Y-6617D01*
X18995Y-6836D01*
X19162Y-7004D01*
X19381Y-7094D01*
X19617Y-7095D01*
X19836Y-7004D01*
X20004Y-6837D01*
X20094Y-6618D01*
X20095Y-6382D01*
X20004Y-6163D01*
X19837Y-5995D01*
X19762Y-5964D01*
X30192Y-5964D01*
X30192Y-6613D01*
X30222Y-6685D01*
X30276Y-6740D01*
X30348Y-6769D01*
X30426Y-6770D01*
X31076Y-6770D01*
X31147Y-6740D01*
X31202Y-6685D01*
X31232Y-6613D01*
X31232Y-6536D01*
X31232Y-5964D01*
X31765Y-5964D01*
X31695Y-6143D01*
X31699Y-6378D01*
X31780Y-6574D01*
X31884Y-6602D01*
X32237Y-6250D01*
X32232Y-6244D01*
X32281Y-6194D01*
X32287Y-6200D01*
X32292Y-6194D01*
X32342Y-6244D01*
X32336Y-6250D01*
X32689Y-6602D01*
X32793Y-6574D01*
X32879Y-6356D01*
X32875Y-6121D01*
X32850Y-6063D01*
X33052Y-6198D01*
X33221Y-6450D01*
X33285Y-6772D01*
X33285Y-20477D01*
X33285Y-20477D01*
G37*
G54D40*
X33285Y-20477D02*
X33221Y-20799D01*
X33052Y-21051D01*
X32891Y-21159D01*
X32891Y-17368D01*
X32891Y-16368D01*
X32891Y-15368D01*
X32891Y-13868D01*
X32891Y-12868D01*
X32891Y-11868D01*
X32891Y-10368D01*
X32891Y-9368D01*
X32891Y-8368D01*
X32888Y-8113D01*
X32797Y-7895D01*
X32688Y-7860D01*
X32640Y-7909D01*
X32640Y-6652D01*
X32287Y-6299D01*
X31934Y-6652D01*
X31962Y-6756D01*
X32181Y-6842D01*
X32415Y-6837D01*
X32612Y-6756D01*
X32640Y-6652D01*
X32640Y-7909D01*
X32639Y-7910D01*
X32639Y-7811D01*
X32604Y-7702D01*
X32368Y-7608D01*
X32113Y-7611D01*
X31895Y-7702D01*
X31860Y-7811D01*
X32250Y-8200D01*
X32639Y-7811D01*
X32639Y-7910D01*
X32299Y-8250D01*
X32688Y-8639D01*
X32797Y-8604D01*
X32891Y-8368D01*
X32891Y-9368D01*
X32888Y-9113D01*
X32797Y-8895D01*
X32688Y-8860D01*
X32639Y-8910D01*
X32639Y-8811D01*
X32619Y-8750D01*
X32639Y-8688D01*
X32250Y-8299D01*
X31860Y-8688D01*
X31880Y-8750D01*
X31860Y-8811D01*
X32250Y-9200D01*
X32639Y-8811D01*
X32639Y-8910D01*
X32299Y-9250D01*
X32688Y-9639D01*
X32797Y-9604D01*
X32891Y-9368D01*
X32891Y-10368D01*
X32888Y-10113D01*
X32797Y-9895D01*
X32688Y-9860D01*
X32639Y-9910D01*
X32639Y-9811D01*
X32619Y-9750D01*
X32639Y-9688D01*
X32250Y-9299D01*
X31860Y-9688D01*
X31880Y-9750D01*
X31860Y-9811D01*
X32250Y-10200D01*
X32639Y-9811D01*
X32639Y-9910D01*
X32299Y-10250D01*
X32688Y-10639D01*
X32797Y-10604D01*
X32891Y-10368D01*
X32891Y-11868D01*
X32888Y-11613D01*
X32797Y-11395D01*
X32688Y-11360D01*
X32639Y-11410D01*
X32639Y-11311D01*
X32639Y-10688D01*
X32250Y-10299D01*
X31860Y-10688D01*
X31895Y-10797D01*
X32131Y-10891D01*
X32386Y-10888D01*
X32604Y-10797D01*
X32639Y-10688D01*
X32639Y-11311D01*
X32604Y-11202D01*
X32368Y-11108D01*
X32113Y-11111D01*
X31895Y-11202D01*
X31860Y-11311D01*
X32250Y-11700D01*
X32639Y-11311D01*
X32639Y-11410D01*
X32299Y-11750D01*
X32688Y-12139D01*
X32797Y-12104D01*
X32891Y-11868D01*
X32891Y-12868D01*
X32888Y-12613D01*
X32797Y-12395D01*
X32688Y-12360D01*
X32639Y-12410D01*
X32639Y-12311D01*
X32619Y-12250D01*
X32639Y-12188D01*
X32250Y-11799D01*
X31860Y-12188D01*
X31880Y-12250D01*
X31860Y-12311D01*
X32250Y-12700D01*
X32639Y-12311D01*
X32639Y-12410D01*
X32299Y-12750D01*
X32688Y-13139D01*
X32797Y-13104D01*
X32891Y-12868D01*
X32891Y-13868D01*
X32888Y-13613D01*
X32797Y-13395D01*
X32688Y-13360D01*
X32639Y-13410D01*
X32639Y-13311D01*
X32619Y-13250D01*
X32639Y-13188D01*
X32250Y-12799D01*
X31860Y-13188D01*
X31880Y-13250D01*
X31860Y-13311D01*
X32250Y-13700D01*
X32639Y-13311D01*
X32639Y-13410D01*
X32299Y-13750D01*
X32688Y-14139D01*
X32797Y-14104D01*
X32891Y-13868D01*
X32891Y-15368D01*
X32888Y-15113D01*
X32797Y-14895D01*
X32688Y-14860D01*
X32639Y-14910D01*
X32639Y-14811D01*
X32639Y-14188D01*
X32250Y-13799D01*
X31860Y-14188D01*
X31895Y-14297D01*
X32131Y-14391D01*
X32386Y-14388D01*
X32604Y-14297D01*
X32639Y-14188D01*
X32639Y-14811D01*
X32604Y-14702D01*
X32368Y-14608D01*
X32113Y-14611D01*
X31895Y-14702D01*
X31860Y-14811D01*
X32250Y-15200D01*
X32639Y-14811D01*
X32639Y-14910D01*
X32299Y-15250D01*
X32688Y-15639D01*
X32797Y-15604D01*
X32891Y-15368D01*
X32891Y-16368D01*
X32888Y-16113D01*
X32797Y-15895D01*
X32688Y-15860D01*
X32639Y-15910D01*
X32639Y-15811D01*
X32619Y-15750D01*
X32639Y-15688D01*
X32250Y-15299D01*
X31860Y-15688D01*
X31880Y-15750D01*
X31860Y-15811D01*
X32250Y-16200D01*
X32639Y-15811D01*
X32639Y-15910D01*
X32299Y-16250D01*
X32688Y-16639D01*
X32797Y-16604D01*
X32891Y-16368D01*
X32891Y-17368D01*
X32888Y-17113D01*
X32797Y-16895D01*
X32688Y-16860D01*
X32639Y-16910D01*
X32639Y-16811D01*
X32619Y-16750D01*
X32639Y-16688D01*
X32250Y-16299D01*
X31860Y-16688D01*
X31880Y-16750D01*
X31860Y-16811D01*
X32250Y-17200D01*
X32639Y-16811D01*
X32639Y-16910D01*
X32299Y-17250D01*
X32688Y-17639D01*
X32797Y-17604D01*
X32891Y-17368D01*
X32891Y-21159D01*
X32798Y-21222D01*
X32639Y-21253D01*
X32639Y-17688D01*
X32250Y-17299D01*
X31860Y-17688D01*
X31895Y-17797D01*
X32131Y-17891D01*
X32386Y-17888D01*
X32604Y-17797D01*
X32639Y-17688D01*
X32639Y-21253D01*
X32458Y-21289D01*
X32457Y-21289D01*
X32362Y-21308D01*
X32362Y-21308D01*
X32362Y-21308D01*
X32284Y-21340D01*
X32203Y-21394D01*
X32163Y-21435D01*
X32141Y-21435D01*
X32068Y-21405D01*
X31931Y-21404D01*
X31858Y-21435D01*
X31641Y-21435D01*
X31568Y-21405D01*
X31431Y-21404D01*
X31358Y-21435D01*
X31141Y-21435D01*
X31068Y-21405D01*
X30931Y-21404D01*
X30858Y-21435D01*
X30836Y-21435D01*
X30795Y-21394D01*
X30795Y-21394D01*
X30715Y-21340D01*
X30715Y-21340D01*
X30714Y-21340D01*
X30637Y-21308D01*
X30541Y-21289D01*
X30520Y-21289D01*
X30500Y-21285D01*
X29811Y-21285D01*
X29853Y-21242D01*
X30030Y-21169D01*
X30169Y-21030D01*
X30244Y-20848D01*
X30245Y-20651D01*
X30180Y-20495D01*
X30319Y-20495D01*
X30255Y-20651D01*
X30254Y-20848D01*
X30330Y-21030D01*
X30469Y-21169D01*
X30651Y-21244D01*
X30848Y-21245D01*
X31030Y-21169D01*
X31169Y-21030D01*
X31244Y-20848D01*
X31245Y-20651D01*
X31169Y-20469D01*
X31030Y-20330D01*
X30848Y-20255D01*
X30841Y-20255D01*
X30853Y-20242D01*
X31030Y-20169D01*
X31169Y-20030D01*
X31244Y-19848D01*
X31245Y-19651D01*
X31169Y-19469D01*
X31030Y-19330D01*
X30848Y-19255D01*
X30651Y-19254D01*
X30490Y-19321D01*
X30490Y-18977D01*
X30490Y-18901D01*
X30423Y-18835D01*
X30035Y-18835D01*
X30035Y-19123D01*
X30101Y-19190D01*
X30172Y-19190D01*
X30277Y-19189D01*
X30375Y-19149D01*
X30449Y-19074D01*
X30490Y-18977D01*
X30490Y-19321D01*
X30469Y-19330D01*
X30330Y-19469D01*
X30255Y-19651D01*
X30254Y-19848D01*
X30319Y-20005D01*
X30180Y-20005D01*
X30244Y-19848D01*
X30245Y-19651D01*
X30169Y-19469D01*
X30030Y-19330D01*
X29853Y-19256D01*
X29786Y-19190D01*
X29827Y-19190D01*
X29898Y-19190D01*
X29965Y-19123D01*
X29965Y-18835D01*
X29957Y-18835D01*
X29957Y-18765D01*
X29965Y-18765D01*
X29965Y-18757D01*
X30035Y-18757D01*
X30035Y-18765D01*
X30423Y-18765D01*
X30490Y-18698D01*
X30490Y-18622D01*
X30449Y-18525D01*
X30419Y-18495D01*
X30507Y-18495D01*
X30554Y-18542D01*
X30681Y-18594D01*
X30818Y-18595D01*
X30945Y-18542D01*
X31042Y-18445D01*
X31094Y-18318D01*
X31095Y-18181D01*
X31042Y-18054D01*
X30945Y-17957D01*
X30818Y-17905D01*
X30681Y-17904D01*
X30681Y-17905D01*
X30324Y-17905D01*
X30263Y-17880D01*
X30186Y-17879D01*
X29736Y-17879D01*
X29675Y-17905D01*
X29574Y-17905D01*
X29513Y-17880D01*
X29436Y-17879D01*
X28995Y-17879D01*
X28995Y-17870D01*
X29013Y-17870D01*
X29085Y-17840D01*
X29140Y-17785D01*
X29169Y-17713D01*
X29170Y-17636D01*
X29170Y-17386D01*
X29140Y-17314D01*
X29125Y-17299D01*
X29125Y-17299D01*
X29199Y-17224D01*
X29240Y-17127D01*
X29240Y-17051D01*
X29173Y-16985D01*
X28785Y-16985D01*
X28785Y-16992D01*
X28715Y-16992D01*
X28715Y-16985D01*
X28423Y-16985D01*
X28326Y-16985D01*
X28035Y-16985D01*
X28035Y-16992D01*
X27965Y-16992D01*
X27965Y-16985D01*
X27957Y-16985D01*
X27957Y-16915D01*
X27965Y-16915D01*
X27965Y-16907D01*
X28035Y-16907D01*
X28035Y-16915D01*
X28326Y-16915D01*
X28423Y-16915D01*
X28715Y-16915D01*
X28715Y-16907D01*
X28785Y-16907D01*
X28785Y-16915D01*
X29173Y-16915D01*
X29240Y-16848D01*
X29240Y-16772D01*
X29228Y-16745D01*
X29398Y-16745D01*
X29712Y-17058D01*
X29680Y-17136D01*
X29679Y-17362D01*
X29766Y-17572D01*
X29926Y-17732D01*
X30136Y-17819D01*
X30362Y-17820D01*
X30572Y-17733D01*
X30732Y-17573D01*
X30749Y-17532D01*
X30766Y-17572D01*
X30926Y-17732D01*
X31136Y-17819D01*
X31362Y-17820D01*
X31572Y-17733D01*
X31702Y-17604D01*
X31702Y-17604D01*
X31811Y-17639D01*
X32200Y-17250D01*
X31811Y-16860D01*
X31702Y-16895D01*
X31702Y-16895D01*
X31695Y-16888D01*
X31695Y-16611D01*
X31702Y-16604D01*
X31702Y-16604D01*
X31811Y-16639D01*
X32200Y-16250D01*
X31811Y-15860D01*
X31702Y-15895D01*
X31702Y-15895D01*
X31695Y-15888D01*
X31695Y-15611D01*
X31702Y-15604D01*
X31702Y-15604D01*
X31811Y-15639D01*
X32200Y-15250D01*
X31811Y-14860D01*
X31702Y-14895D01*
X31702Y-14895D01*
X31695Y-14888D01*
X31695Y-14111D01*
X31702Y-14104D01*
X31702Y-14104D01*
X31811Y-14139D01*
X32200Y-13750D01*
X31811Y-13360D01*
X31702Y-13395D01*
X31702Y-13395D01*
X31695Y-13388D01*
X31695Y-13111D01*
X31702Y-13104D01*
X31702Y-13104D01*
X31811Y-13139D01*
X32200Y-12750D01*
X31811Y-12360D01*
X31702Y-12395D01*
X31702Y-12395D01*
X31695Y-12388D01*
X31695Y-12111D01*
X31702Y-12104D01*
X31702Y-12104D01*
X31811Y-12139D01*
X32200Y-11750D01*
X31811Y-11360D01*
X31702Y-11395D01*
X31702Y-11395D01*
X31695Y-11388D01*
X31695Y-10611D01*
X31702Y-10604D01*
X31702Y-10604D01*
X31811Y-10639D01*
X32200Y-10250D01*
X31811Y-9860D01*
X31702Y-9895D01*
X31702Y-9895D01*
X31695Y-9888D01*
X31695Y-9611D01*
X31702Y-9604D01*
X31702Y-9604D01*
X31811Y-9639D01*
X32200Y-9250D01*
X31811Y-8860D01*
X31702Y-8895D01*
X31702Y-8895D01*
X31695Y-8888D01*
X31695Y-8611D01*
X31702Y-8604D01*
X31702Y-8604D01*
X31811Y-8639D01*
X32200Y-8250D01*
X31811Y-7860D01*
X31702Y-7895D01*
X31702Y-7895D01*
X31573Y-7767D01*
X31363Y-7680D01*
X31137Y-7679D01*
X30927Y-7766D01*
X30767Y-7926D01*
X30750Y-7967D01*
X30733Y-7927D01*
X30573Y-7767D01*
X30363Y-7680D01*
X30137Y-7679D01*
X29927Y-7766D01*
X29767Y-7926D01*
X29680Y-8136D01*
X29680Y-8223D01*
X29326Y-8576D01*
X29273Y-8656D01*
X29254Y-8750D01*
X29255Y-8750D01*
X29255Y-9398D01*
X29076Y-9576D01*
X29023Y-9656D01*
X29004Y-9750D01*
X29005Y-9750D01*
X29005Y-10017D01*
X28945Y-9957D01*
X28818Y-9905D01*
X28681Y-9904D01*
X28554Y-9957D01*
X28457Y-10054D01*
X28426Y-10129D01*
X27986Y-10129D01*
X27914Y-10159D01*
X27869Y-10205D01*
X27800Y-10205D01*
X27706Y-10223D01*
X27626Y-10276D01*
X27626Y-10276D01*
X27259Y-10643D01*
X27257Y-10647D01*
X27197Y-10647D01*
X27125Y-10677D01*
X27070Y-10731D01*
X27041Y-10803D01*
X27040Y-10881D01*
X27040Y-11196D01*
X27070Y-11267D01*
X27125Y-11322D01*
X27197Y-11352D01*
X27274Y-11352D01*
X27668Y-11352D01*
X27740Y-11322D01*
X27795Y-11268D01*
X27824Y-11196D01*
X27825Y-11118D01*
X27825Y-10803D01*
X27815Y-10780D01*
X27885Y-10711D01*
X27914Y-10740D01*
X27937Y-10749D01*
X27914Y-10759D01*
X27859Y-10814D01*
X27830Y-10886D01*
X27829Y-10963D01*
X27829Y-11213D01*
X27859Y-11285D01*
X27914Y-11340D01*
X27986Y-11369D01*
X28005Y-11369D01*
X28005Y-11398D01*
X27898Y-11505D01*
X27742Y-11505D01*
X27695Y-11457D01*
X27568Y-11405D01*
X27431Y-11404D01*
X27304Y-11457D01*
X27207Y-11554D01*
X27155Y-11681D01*
X27154Y-11818D01*
X27207Y-11945D01*
X27267Y-12005D01*
X27250Y-12005D01*
X27156Y-12023D01*
X27076Y-12076D01*
X27076Y-12076D01*
X26911Y-12241D01*
X26816Y-12202D01*
X26711Y-12202D01*
X26668Y-12202D01*
X26602Y-12268D01*
X26602Y-12590D01*
X26609Y-12590D01*
X26609Y-12660D01*
X26602Y-12660D01*
X26602Y-12667D01*
X26532Y-12667D01*
X26532Y-12660D01*
X26171Y-12660D01*
X26105Y-12726D01*
X26104Y-12755D01*
X25341Y-12755D01*
X25351Y-12745D01*
X25749Y-12745D01*
X25750Y-12745D01*
X25750Y-12745D01*
X25843Y-12726D01*
X25923Y-12673D01*
X26104Y-12491D01*
X26105Y-12523D01*
X26171Y-12590D01*
X26532Y-12590D01*
X26532Y-12268D01*
X26465Y-12202D01*
X26422Y-12202D01*
X26317Y-12202D01*
X26245Y-12232D01*
X26245Y-11683D01*
X26259Y-11697D01*
X26331Y-11727D01*
X26408Y-11727D01*
X26802Y-11727D01*
X26874Y-11697D01*
X26929Y-11643D01*
X26958Y-11571D01*
X26959Y-11493D01*
X26959Y-11178D01*
X26929Y-11107D01*
X26874Y-11052D01*
X26839Y-11037D01*
X26914Y-11007D01*
X26988Y-10932D01*
X27029Y-10834D01*
X27029Y-10415D01*
X26988Y-10317D01*
X26914Y-10242D01*
X26816Y-10202D01*
X26711Y-10202D01*
X26668Y-10202D01*
X26602Y-10268D01*
X26602Y-10590D01*
X26962Y-10590D01*
X27029Y-10523D01*
X27029Y-10415D01*
X27029Y-10834D01*
X27029Y-10726D01*
X26962Y-10660D01*
X26602Y-10660D01*
X26602Y-10667D01*
X26532Y-10667D01*
X26532Y-10660D01*
X26524Y-10660D01*
X26524Y-10590D01*
X26532Y-10590D01*
X26532Y-10268D01*
X26465Y-10202D01*
X26422Y-10202D01*
X26394Y-10202D01*
X26426Y-10170D01*
X26613Y-10170D01*
X26685Y-10140D01*
X26740Y-10085D01*
X26749Y-10062D01*
X26759Y-10085D01*
X26814Y-10140D01*
X26886Y-10169D01*
X26963Y-10170D01*
X27213Y-10170D01*
X27285Y-10140D01*
X27340Y-10085D01*
X27369Y-10013D01*
X27370Y-9958D01*
X27423Y-9923D01*
X27596Y-9750D01*
X27627Y-9781D01*
X27699Y-9811D01*
X27776Y-9811D01*
X28209Y-9811D01*
X28250Y-9794D01*
X28289Y-9811D01*
X28367Y-9811D01*
X28800Y-9811D01*
X28872Y-9781D01*
X28927Y-9726D01*
X28956Y-9655D01*
X28956Y-9577D01*
X28956Y-9389D01*
X29173Y-9173D01*
X29173Y-9173D01*
X29173Y-9173D01*
X29226Y-9093D01*
X29245Y-9000D01*
X29244Y-9000D01*
X29245Y-9000D01*
X29245Y-7337D01*
X29226Y-7243D01*
X29173Y-7163D01*
X29173Y-7163D01*
X29094Y-7084D01*
X29094Y-6725D01*
X29064Y-6653D01*
X29009Y-6598D01*
X28937Y-6569D01*
X28860Y-6568D01*
X28388Y-6568D01*
X28316Y-6598D01*
X28261Y-6653D01*
X28250Y-6681D01*
X28238Y-6653D01*
X28183Y-6598D01*
X28111Y-6569D01*
X28034Y-6568D01*
X27562Y-6568D01*
X27490Y-6598D01*
X27490Y-6599D01*
X27490Y-6272D01*
X27449Y-6175D01*
X27375Y-6100D01*
X27277Y-6060D01*
X27172Y-6059D01*
X27101Y-6060D01*
X27035Y-6126D01*
X27035Y-6415D01*
X27423Y-6415D01*
X27490Y-6348D01*
X27490Y-6272D01*
X27490Y-6599D01*
X27490Y-6599D01*
X27490Y-6551D01*
X27423Y-6485D01*
X27035Y-6485D01*
X27035Y-6492D01*
X26965Y-6492D01*
X26965Y-6485D01*
X26965Y-6415D01*
X26965Y-6126D01*
X26898Y-6060D01*
X26827Y-6059D01*
X26722Y-6060D01*
X26624Y-6100D01*
X26550Y-6175D01*
X26509Y-6272D01*
X26510Y-6348D01*
X26576Y-6415D01*
X26965Y-6415D01*
X26965Y-6485D01*
X26576Y-6485D01*
X26510Y-6551D01*
X26509Y-6627D01*
X26550Y-6724D01*
X26624Y-6799D01*
X26609Y-6814D01*
X26580Y-6886D01*
X26579Y-6963D01*
X26579Y-7213D01*
X26597Y-7255D01*
X26500Y-7255D01*
X26499Y-7255D01*
X26406Y-7273D01*
X26326Y-7326D01*
X26326Y-7326D01*
X26317Y-7336D01*
X26317Y-7100D01*
X26312Y-6875D01*
X26235Y-6690D01*
X26134Y-6665D01*
X26084Y-6714D01*
X26084Y-6615D01*
X26059Y-6514D01*
X25850Y-6432D01*
X25625Y-6437D01*
X25440Y-6514D01*
X25415Y-6615D01*
X25750Y-6950D01*
X26084Y-6615D01*
X26084Y-6714D01*
X25799Y-7000D01*
X26134Y-7334D01*
X26235Y-7309D01*
X26317Y-7100D01*
X26317Y-7336D01*
X26084Y-7568D01*
X26084Y-7384D01*
X25750Y-7049D01*
X25415Y-7384D01*
X25440Y-7485D01*
X25649Y-7567D01*
X25874Y-7562D01*
X26059Y-7485D01*
X26084Y-7384D01*
X26084Y-7568D01*
X25700Y-7952D01*
X25699Y-7949D01*
X25624Y-7875D01*
X25527Y-7834D01*
X25476Y-7835D01*
X25410Y-7901D01*
X25410Y-8215D01*
X25417Y-8215D01*
X25417Y-8285D01*
X25410Y-8285D01*
X25410Y-8292D01*
X25340Y-8292D01*
X25340Y-8285D01*
X25332Y-8285D01*
X25332Y-8215D01*
X25340Y-8215D01*
X25340Y-7901D01*
X25273Y-7835D01*
X25237Y-7834D01*
X25208Y-7791D01*
X25208Y-7791D01*
X25045Y-7627D01*
X25045Y-7495D01*
X25088Y-7495D01*
X25160Y-7465D01*
X25215Y-7410D01*
X25244Y-7338D01*
X25245Y-7263D01*
X25264Y-7309D01*
X25365Y-7334D01*
X25700Y-7000D01*
X25365Y-6665D01*
X25264Y-6690D01*
X25245Y-6739D01*
X25245Y-6661D01*
X25215Y-6589D01*
X25160Y-6534D01*
X25088Y-6505D01*
X25011Y-6504D01*
X24411Y-6504D01*
X24339Y-6534D01*
X24284Y-6589D01*
X24255Y-6661D01*
X24254Y-6738D01*
X24254Y-7338D01*
X24284Y-7410D01*
X24339Y-7465D01*
X24411Y-7494D01*
X24455Y-7495D01*
X24455Y-7750D01*
X24477Y-7862D01*
X24505Y-7904D01*
X24486Y-7904D01*
X24414Y-7934D01*
X24359Y-7989D01*
X24332Y-8054D01*
X23553Y-8833D01*
X23495Y-8920D01*
X23495Y-7651D01*
X23495Y-6651D01*
X23419Y-6469D01*
X23280Y-6330D01*
X23098Y-6255D01*
X22901Y-6254D01*
X22719Y-6330D01*
X22580Y-6469D01*
X22505Y-6651D01*
X22504Y-6848D01*
X22580Y-7030D01*
X22719Y-7169D01*
X22901Y-7244D01*
X23098Y-7245D01*
X23280Y-7169D01*
X23419Y-7030D01*
X23494Y-6848D01*
X23495Y-6651D01*
X23495Y-7651D01*
X23419Y-7469D01*
X23280Y-7330D01*
X23098Y-7255D01*
X22901Y-7254D01*
X22719Y-7330D01*
X22580Y-7469D01*
X22505Y-7651D01*
X22504Y-7848D01*
X22580Y-8030D01*
X22719Y-8169D01*
X22901Y-8244D01*
X23098Y-8245D01*
X23280Y-8169D01*
X23419Y-8030D01*
X23494Y-7848D01*
X23495Y-7651D01*
X23495Y-8920D01*
X23478Y-8945D01*
X23452Y-9077D01*
X23452Y-9155D01*
X23395Y-9155D01*
X23395Y-9111D01*
X23365Y-9039D01*
X23310Y-8984D01*
X23238Y-8955D01*
X23161Y-8954D01*
X22495Y-8954D01*
X22495Y-7651D01*
X22495Y-6651D01*
X22419Y-6469D01*
X22280Y-6330D01*
X22098Y-6255D01*
X21901Y-6254D01*
X21719Y-6330D01*
X21580Y-6469D01*
X21505Y-6651D01*
X21504Y-6848D01*
X21580Y-7030D01*
X21719Y-7169D01*
X21901Y-7244D01*
X22098Y-7245D01*
X22280Y-7169D01*
X22419Y-7030D01*
X22494Y-6848D01*
X22495Y-6651D01*
X22495Y-7651D01*
X22419Y-7469D01*
X22280Y-7330D01*
X22098Y-7255D01*
X21901Y-7254D01*
X21719Y-7330D01*
X21580Y-7469D01*
X21505Y-7651D01*
X21504Y-7848D01*
X21580Y-8030D01*
X21719Y-8169D01*
X21901Y-8244D01*
X22098Y-8245D01*
X22280Y-8169D01*
X22419Y-8030D01*
X22494Y-7848D01*
X22495Y-7651D01*
X22495Y-8954D01*
X22461Y-8954D01*
X22389Y-8984D01*
X22334Y-9039D01*
X22305Y-9111D01*
X22304Y-9188D01*
X22304Y-9888D01*
X22334Y-9960D01*
X22389Y-10015D01*
X22461Y-10044D01*
X22538Y-10045D01*
X23238Y-10045D01*
X23310Y-10015D01*
X23365Y-9960D01*
X23394Y-9888D01*
X23395Y-9845D01*
X23452Y-9845D01*
X23452Y-9870D01*
X23425Y-9935D01*
X23425Y-10013D01*
X23425Y-10564D01*
X23441Y-10605D01*
X23345Y-10605D01*
X23345Y-10261D01*
X23315Y-10189D01*
X23260Y-10134D01*
X23188Y-10105D01*
X23111Y-10104D01*
X22311Y-10104D01*
X22239Y-10134D01*
X22184Y-10189D01*
X22155Y-10261D01*
X22154Y-10338D01*
X22154Y-10938D01*
X22184Y-11010D01*
X22239Y-11065D01*
X22311Y-11094D01*
X22388Y-11095D01*
X22686Y-11095D01*
X22870Y-11279D01*
X22870Y-11279D01*
X22954Y-11334D01*
X22851Y-11335D01*
X22785Y-11401D01*
X22785Y-11865D01*
X22792Y-11865D01*
X22792Y-11935D01*
X22785Y-11935D01*
X22785Y-12398D01*
X22851Y-12465D01*
X22976Y-12465D01*
X22836Y-12605D01*
X22805Y-12605D01*
X22780Y-12580D01*
X22715Y-12553D01*
X22598Y-12505D01*
X22401Y-12504D01*
X22219Y-12580D01*
X22193Y-12606D01*
X22173Y-12576D01*
X22173Y-12576D01*
X21923Y-12326D01*
X21843Y-12273D01*
X21750Y-12254D01*
X21749Y-12255D01*
X21189Y-12255D01*
X21190Y-12172D01*
X21190Y-12101D01*
X21123Y-12035D01*
X20835Y-12035D01*
X20835Y-12042D01*
X20765Y-12042D01*
X20765Y-12035D01*
X20757Y-12035D01*
X20757Y-11965D01*
X20765Y-11965D01*
X20765Y-11673D01*
X20765Y-11576D01*
X20765Y-11285D01*
X20757Y-11285D01*
X20757Y-11215D01*
X20765Y-11215D01*
X20765Y-10826D01*
X20698Y-10760D01*
X20622Y-10759D01*
X20525Y-10800D01*
X20450Y-10874D01*
X20445Y-10869D01*
X20445Y-10450D01*
X20444Y-10449D01*
X20445Y-10449D01*
X20426Y-10356D01*
X20382Y-10290D01*
X20398Y-10290D01*
X20465Y-10223D01*
X20465Y-9785D01*
X20457Y-9785D01*
X20457Y-9715D01*
X20465Y-9715D01*
X20465Y-9707D01*
X20535Y-9707D01*
X20535Y-9715D01*
X20973Y-9715D01*
X21040Y-9648D01*
X21040Y-9527D01*
X21039Y-9422D01*
X20999Y-9324D01*
X20994Y-9320D01*
X21104Y-9320D01*
X21104Y-9888D01*
X21134Y-9960D01*
X21189Y-10015D01*
X21205Y-10021D01*
X21205Y-10550D01*
X21180Y-10611D01*
X21179Y-10688D01*
X21179Y-10948D01*
X21149Y-10874D01*
X21074Y-10800D01*
X21040Y-10785D01*
X21040Y-9972D01*
X21040Y-9851D01*
X20973Y-9785D01*
X20535Y-9785D01*
X20535Y-10223D01*
X20601Y-10290D01*
X20827Y-10290D01*
X20924Y-10249D01*
X20999Y-10175D01*
X21039Y-10077D01*
X21040Y-9972D01*
X21040Y-10785D01*
X20977Y-10759D01*
X20901Y-10760D01*
X20835Y-10826D01*
X20835Y-11215D01*
X20842Y-11215D01*
X20842Y-11285D01*
X20835Y-11285D01*
X20835Y-11576D01*
X20835Y-11673D01*
X20835Y-11965D01*
X21123Y-11965D01*
X21169Y-11919D01*
X21224Y-11974D01*
X21322Y-12014D01*
X21427Y-12015D01*
X21548Y-12015D01*
X21615Y-11948D01*
X21615Y-11610D01*
X21607Y-11610D01*
X21607Y-11540D01*
X21615Y-11540D01*
X21615Y-11532D01*
X21685Y-11532D01*
X21685Y-11540D01*
X21692Y-11540D01*
X21692Y-11610D01*
X21685Y-11610D01*
X21685Y-11948D01*
X21751Y-12015D01*
X21872Y-12015D01*
X21977Y-12014D01*
X22075Y-11974D01*
X22114Y-11935D01*
X22151Y-11935D01*
X22085Y-12001D01*
X22084Y-12252D01*
X22125Y-12349D01*
X22199Y-12424D01*
X22297Y-12464D01*
X22402Y-12465D01*
X22648Y-12465D01*
X22715Y-12398D01*
X22715Y-11935D01*
X22707Y-11935D01*
X22707Y-11865D01*
X22715Y-11865D01*
X22715Y-11401D01*
X22648Y-11335D01*
X22402Y-11334D01*
X22297Y-11335D01*
X22199Y-11375D01*
X22190Y-11385D01*
X22190Y-11347D01*
X22149Y-11250D01*
X22075Y-11175D01*
X22039Y-11160D01*
X22090Y-11110D01*
X22119Y-11038D01*
X22120Y-10961D01*
X22120Y-10611D01*
X22095Y-10550D01*
X22095Y-10021D01*
X22110Y-10015D01*
X22165Y-9960D01*
X22194Y-9888D01*
X22195Y-9811D01*
X22195Y-9111D01*
X22165Y-9039D01*
X22110Y-8984D01*
X22038Y-8955D01*
X21961Y-8954D01*
X21657Y-8954D01*
X21495Y-8792D01*
X21495Y-7651D01*
X21495Y-6651D01*
X21419Y-6469D01*
X21280Y-6330D01*
X21098Y-6255D01*
X20901Y-6254D01*
X20719Y-6330D01*
X20580Y-6469D01*
X20505Y-6651D01*
X20504Y-6848D01*
X20580Y-7030D01*
X20719Y-7169D01*
X20901Y-7244D01*
X21098Y-7245D01*
X21280Y-7169D01*
X21419Y-7030D01*
X21494Y-6848D01*
X21495Y-6651D01*
X21495Y-7651D01*
X21419Y-7469D01*
X21280Y-7330D01*
X21098Y-7255D01*
X20901Y-7254D01*
X20719Y-7330D01*
X20580Y-7469D01*
X20505Y-7651D01*
X20504Y-7848D01*
X20580Y-8030D01*
X20719Y-8169D01*
X20901Y-8244D01*
X21098Y-8245D01*
X21280Y-8169D01*
X21419Y-8030D01*
X21494Y-7848D01*
X21495Y-7651D01*
X21495Y-8792D01*
X21476Y-8773D01*
X21372Y-8704D01*
X21250Y-8680D01*
X19250Y-8680D01*
X19127Y-8704D01*
X19023Y-8773D01*
X18523Y-9273D01*
X18495Y-9316D01*
X18495Y-9250D01*
X18476Y-9156D01*
X18423Y-9076D01*
X18423Y-9076D01*
X17787Y-8441D01*
X17819Y-8363D01*
X17820Y-8137D01*
X17733Y-7927D01*
X17573Y-7767D01*
X17363Y-7680D01*
X17137Y-7679D01*
X16927Y-7766D01*
X16767Y-7926D01*
X16750Y-7967D01*
X16733Y-7927D01*
X16573Y-7767D01*
X16363Y-7680D01*
X16137Y-7679D01*
X15927Y-7766D01*
X15797Y-7895D01*
X15797Y-7895D01*
X15688Y-7860D01*
X15639Y-7910D01*
X15639Y-7811D01*
X15604Y-7702D01*
X15565Y-7686D01*
X15565Y-6652D01*
X15212Y-6299D01*
X14859Y-6652D01*
X14887Y-6756D01*
X15106Y-6842D01*
X15341Y-6837D01*
X15537Y-6756D01*
X15565Y-6652D01*
X15565Y-7686D01*
X15368Y-7608D01*
X15113Y-7611D01*
X14895Y-7702D01*
X14860Y-7811D01*
X15250Y-8200D01*
X15639Y-7811D01*
X15639Y-7910D01*
X15299Y-8250D01*
X15688Y-8639D01*
X15797Y-8604D01*
X15797Y-8604D01*
X15805Y-8611D01*
X15805Y-8888D01*
X15797Y-8895D01*
X15797Y-8895D01*
X15688Y-8860D01*
X15639Y-8910D01*
X15639Y-8811D01*
X15619Y-8750D01*
X15639Y-8688D01*
X15250Y-8299D01*
X15200Y-8348D01*
X15200Y-8250D01*
X14811Y-7860D01*
X14702Y-7895D01*
X14608Y-8131D01*
X14611Y-8386D01*
X14702Y-8604D01*
X14811Y-8639D01*
X15200Y-8250D01*
X15200Y-8348D01*
X14860Y-8688D01*
X14880Y-8750D01*
X14860Y-8811D01*
X15250Y-9200D01*
X15639Y-8811D01*
X15639Y-8910D01*
X15299Y-9250D01*
X15688Y-9639D01*
X15797Y-9604D01*
X15797Y-9604D01*
X15805Y-9611D01*
X15805Y-9888D01*
X15797Y-9895D01*
X15797Y-9895D01*
X15688Y-9860D01*
X15639Y-9910D01*
X15639Y-9811D01*
X15619Y-9750D01*
X15639Y-9688D01*
X15250Y-9299D01*
X15200Y-9348D01*
X15200Y-9250D01*
X14811Y-8860D01*
X14702Y-8895D01*
X14608Y-9131D01*
X14611Y-9386D01*
X14702Y-9604D01*
X14811Y-9639D01*
X15200Y-9250D01*
X15200Y-9348D01*
X14860Y-9688D01*
X14880Y-9750D01*
X14860Y-9811D01*
X15250Y-10200D01*
X15639Y-9811D01*
X15639Y-9910D01*
X15299Y-10250D01*
X15688Y-10639D01*
X15797Y-10604D01*
X15797Y-10604D01*
X15805Y-10611D01*
X15805Y-11388D01*
X15797Y-11395D01*
X15797Y-11395D01*
X15688Y-11360D01*
X15639Y-11410D01*
X15639Y-11311D01*
X15639Y-10688D01*
X15250Y-10299D01*
X15200Y-10348D01*
X15200Y-10250D01*
X14811Y-9860D01*
X14702Y-9895D01*
X14608Y-10131D01*
X14611Y-10386D01*
X14702Y-10604D01*
X14811Y-10639D01*
X15200Y-10250D01*
X15200Y-10348D01*
X14860Y-10688D01*
X14895Y-10797D01*
X15131Y-10891D01*
X15386Y-10888D01*
X15604Y-10797D01*
X15639Y-10688D01*
X15639Y-11311D01*
X15604Y-11202D01*
X15368Y-11108D01*
X15113Y-11111D01*
X14895Y-11202D01*
X14860Y-11311D01*
X15250Y-11700D01*
X15639Y-11311D01*
X15639Y-11410D01*
X15299Y-11750D01*
X15688Y-12139D01*
X15797Y-12104D01*
X15797Y-12104D01*
X15805Y-12111D01*
X15805Y-12388D01*
X15797Y-12395D01*
X15797Y-12395D01*
X15688Y-12360D01*
X15639Y-12410D01*
X15639Y-12311D01*
X15619Y-12250D01*
X15639Y-12188D01*
X15250Y-11799D01*
X15200Y-11848D01*
X15200Y-11750D01*
X14811Y-11360D01*
X14702Y-11395D01*
X14608Y-11631D01*
X14611Y-11886D01*
X14702Y-12104D01*
X14811Y-12139D01*
X15200Y-11750D01*
X15200Y-11848D01*
X14860Y-12188D01*
X14880Y-12250D01*
X14860Y-12311D01*
X15250Y-12700D01*
X15639Y-12311D01*
X15639Y-12410D01*
X15299Y-12750D01*
X15688Y-13139D01*
X15797Y-13104D01*
X15797Y-13104D01*
X15805Y-13111D01*
X15805Y-13388D01*
X15797Y-13395D01*
X15797Y-13395D01*
X15688Y-13360D01*
X15639Y-13410D01*
X15639Y-13311D01*
X15619Y-13250D01*
X15639Y-13188D01*
X15250Y-12799D01*
X15200Y-12848D01*
X15200Y-12750D01*
X14811Y-12360D01*
X14702Y-12395D01*
X14608Y-12631D01*
X14611Y-12886D01*
X14702Y-13104D01*
X14811Y-13139D01*
X15200Y-12750D01*
X15200Y-12848D01*
X14860Y-13188D01*
X14880Y-13250D01*
X14860Y-13311D01*
X15250Y-13700D01*
X15639Y-13311D01*
X15639Y-13410D01*
X15299Y-13750D01*
X15688Y-14139D01*
X15797Y-14104D01*
X15797Y-14104D01*
X15805Y-14111D01*
X15805Y-14888D01*
X15797Y-14895D01*
X15797Y-14895D01*
X15688Y-14860D01*
X15639Y-14910D01*
X15639Y-14811D01*
X15639Y-14188D01*
X15250Y-13799D01*
X15200Y-13848D01*
X15200Y-13750D01*
X14811Y-13360D01*
X14702Y-13395D01*
X14608Y-13631D01*
X14611Y-13886D01*
X14702Y-14104D01*
X14811Y-14139D01*
X15200Y-13750D01*
X15200Y-13848D01*
X14860Y-14188D01*
X14895Y-14297D01*
X15131Y-14391D01*
X15386Y-14388D01*
X15604Y-14297D01*
X15639Y-14188D01*
X15639Y-14811D01*
X15604Y-14702D01*
X15368Y-14608D01*
X15113Y-14611D01*
X14895Y-14702D01*
X14860Y-14811D01*
X15250Y-15200D01*
X15639Y-14811D01*
X15639Y-14910D01*
X15299Y-15250D01*
X15688Y-15639D01*
X15797Y-15604D01*
X15797Y-15604D01*
X15805Y-15611D01*
X15805Y-15888D01*
X15797Y-15895D01*
X15797Y-15895D01*
X15688Y-15860D01*
X15639Y-15910D01*
X15639Y-15811D01*
X15619Y-15750D01*
X15639Y-15688D01*
X15250Y-15299D01*
X15200Y-15348D01*
X15200Y-15250D01*
X14811Y-14860D01*
X14702Y-14895D01*
X14608Y-15131D01*
X14611Y-15386D01*
X14702Y-15604D01*
X14811Y-15639D01*
X15200Y-15250D01*
X15200Y-15348D01*
X14860Y-15688D01*
X14880Y-15750D01*
X14860Y-15811D01*
X15250Y-16200D01*
X15639Y-15811D01*
X15639Y-15910D01*
X15299Y-16250D01*
X15688Y-16639D01*
X15797Y-16604D01*
X15797Y-16604D01*
X15805Y-16611D01*
X15805Y-16888D01*
X15797Y-16895D01*
X15797Y-16895D01*
X15688Y-16860D01*
X15639Y-16910D01*
X15639Y-16811D01*
X15619Y-16750D01*
X15639Y-16688D01*
X15250Y-16299D01*
X15200Y-16348D01*
X15200Y-16250D01*
X14811Y-15860D01*
X14702Y-15895D01*
X14608Y-16131D01*
X14611Y-16386D01*
X14702Y-16604D01*
X14811Y-16639D01*
X15200Y-16250D01*
X15200Y-16348D01*
X14860Y-16688D01*
X14880Y-16750D01*
X14860Y-16811D01*
X15250Y-17200D01*
X15639Y-16811D01*
X15639Y-16910D01*
X15299Y-17250D01*
X15688Y-17639D01*
X15797Y-17604D01*
X15797Y-17604D01*
X15905Y-17711D01*
X15905Y-18250D01*
X15931Y-18382D01*
X16006Y-18493D01*
X16155Y-18642D01*
X16155Y-19607D01*
X15756Y-20006D01*
X15681Y-20117D01*
X15655Y-20250D01*
X15655Y-20394D01*
X15639Y-20410D01*
X15639Y-17688D01*
X15250Y-17299D01*
X15200Y-17348D01*
X15200Y-17250D01*
X14811Y-16860D01*
X14702Y-16895D01*
X14608Y-17131D01*
X14611Y-17386D01*
X14702Y-17604D01*
X14811Y-17639D01*
X15200Y-17250D01*
X15200Y-17348D01*
X14860Y-17688D01*
X14895Y-17797D01*
X15131Y-17891D01*
X15386Y-17888D01*
X15604Y-17797D01*
X15639Y-17688D01*
X15639Y-20410D01*
X15580Y-20469D01*
X15539Y-20569D01*
X15485Y-20440D01*
X15384Y-20415D01*
X15334Y-20464D01*
X15334Y-20365D01*
X15309Y-20264D01*
X15100Y-20182D01*
X14875Y-20187D01*
X14690Y-20264D01*
X14665Y-20365D01*
X15000Y-20700D01*
X15334Y-20365D01*
X15334Y-20464D01*
X15049Y-20750D01*
X15384Y-21084D01*
X15485Y-21059D01*
X15537Y-20926D01*
X15580Y-21030D01*
X15719Y-21169D01*
X15901Y-21244D01*
X16098Y-21245D01*
X16280Y-21169D01*
X16419Y-21030D01*
X16494Y-20848D01*
X16495Y-20651D01*
X16419Y-20469D01*
X16345Y-20394D01*
X16345Y-20392D01*
X16743Y-19993D01*
X16796Y-19915D01*
X16998Y-19915D01*
X17065Y-19848D01*
X17065Y-19285D01*
X17057Y-19285D01*
X17057Y-19215D01*
X17065Y-19215D01*
X17065Y-18651D01*
X16998Y-18585D01*
X16845Y-18584D01*
X16845Y-18500D01*
X16818Y-18367D01*
X16818Y-18367D01*
X16799Y-18339D01*
X16743Y-18256D01*
X16743Y-18256D01*
X16595Y-18107D01*
X16595Y-17711D01*
X16732Y-17573D01*
X16749Y-17532D01*
X16766Y-17572D01*
X16926Y-17732D01*
X17008Y-17766D01*
X17008Y-17766D01*
X17023Y-17843D01*
X17076Y-17923D01*
X17355Y-18201D01*
X17355Y-18584D01*
X17201Y-18585D01*
X17135Y-18651D01*
X17135Y-19215D01*
X17142Y-19215D01*
X17142Y-19285D01*
X17135Y-19285D01*
X17135Y-19848D01*
X17201Y-19915D01*
X17355Y-19915D01*
X17355Y-20099D01*
X17354Y-20100D01*
X17373Y-20193D01*
X17426Y-20273D01*
X17576Y-20423D01*
X17576Y-20423D01*
X17578Y-20424D01*
X17514Y-20440D01*
X17462Y-20573D01*
X17419Y-20469D01*
X17280Y-20330D01*
X17098Y-20255D01*
X16901Y-20254D01*
X16719Y-20330D01*
X16580Y-20469D01*
X16505Y-20651D01*
X16504Y-20848D01*
X16580Y-21030D01*
X16719Y-21169D01*
X16901Y-21244D01*
X17098Y-21245D01*
X17280Y-21169D01*
X17419Y-21030D01*
X17460Y-20930D01*
X17514Y-21059D01*
X17615Y-21084D01*
X17950Y-20750D01*
X17944Y-20744D01*
X17994Y-20694D01*
X18000Y-20700D01*
X18005Y-20694D01*
X18055Y-20744D01*
X18049Y-20750D01*
X18384Y-21084D01*
X18485Y-21059D01*
X18537Y-20926D01*
X18580Y-21030D01*
X18719Y-21169D01*
X18901Y-21244D01*
X19098Y-21245D01*
X19280Y-21169D01*
X19419Y-21030D01*
X19494Y-20848D01*
X19495Y-20651D01*
X19430Y-20495D01*
X19569Y-20495D01*
X19505Y-20651D01*
X19504Y-20848D01*
X19580Y-21030D01*
X19719Y-21169D01*
X19901Y-21244D01*
X20098Y-21245D01*
X20280Y-21169D01*
X20419Y-21030D01*
X20494Y-20848D01*
X20495Y-20651D01*
X20430Y-20495D01*
X20569Y-20495D01*
X20505Y-20651D01*
X20504Y-20848D01*
X20580Y-21030D01*
X20719Y-21169D01*
X20901Y-21244D01*
X21098Y-21245D01*
X21133Y-21230D01*
X21308Y-21405D01*
X21181Y-21404D01*
X21108Y-21435D01*
X21086Y-21435D01*
X21045Y-21394D01*
X21045Y-21394D01*
X20965Y-21340D01*
X20965Y-21340D01*
X20964Y-21340D01*
X20887Y-21308D01*
X20791Y-21289D01*
X20770Y-21289D01*
X20750Y-21285D01*
X18190Y-21285D01*
X18309Y-21235D01*
X18334Y-21134D01*
X18000Y-20799D01*
X17665Y-21134D01*
X17690Y-21235D01*
X17817Y-21285D01*
X17000Y-21285D01*
X16978Y-21289D01*
X16958Y-21289D01*
X16862Y-21308D01*
X16862Y-21308D01*
X16862Y-21308D01*
X16784Y-21340D01*
X16703Y-21394D01*
X16663Y-21435D01*
X16641Y-21435D01*
X16568Y-21405D01*
X16431Y-21404D01*
X16358Y-21435D01*
X16141Y-21435D01*
X16068Y-21405D01*
X15931Y-21404D01*
X15858Y-21435D01*
X15641Y-21435D01*
X15568Y-21405D01*
X15431Y-21404D01*
X15358Y-21435D01*
X15336Y-21435D01*
X15295Y-21394D01*
X15295Y-21394D01*
X15215Y-21340D01*
X15215Y-21340D01*
X15214Y-21340D01*
X15137Y-21308D01*
X15135Y-21307D01*
X15309Y-21235D01*
X15334Y-21134D01*
X15000Y-20799D01*
X14994Y-20805D01*
X14950Y-20761D01*
X14944Y-20755D01*
X14950Y-20750D01*
X14615Y-20415D01*
X14514Y-20440D01*
X14432Y-20649D01*
X14437Y-20874D01*
X14514Y-21059D01*
X14615Y-21084D01*
X14568Y-21131D01*
X14574Y-21137D01*
X14448Y-21052D01*
X14277Y-20798D01*
X14214Y-20478D01*
X14214Y-6771D01*
X14277Y-6451D01*
X14448Y-6197D01*
X14653Y-6059D01*
X14620Y-6143D01*
X14624Y-6378D01*
X14706Y-6574D01*
X14810Y-6602D01*
X15163Y-6250D01*
X15157Y-6244D01*
X15207Y-6194D01*
X15212Y-6200D01*
X15218Y-6194D01*
X15267Y-6244D01*
X15262Y-6250D01*
X15615Y-6602D01*
X15719Y-6574D01*
X15804Y-6356D01*
X15800Y-6121D01*
X15735Y-5964D01*
X16267Y-5964D01*
X16267Y-6613D01*
X16296Y-6685D01*
X16351Y-6740D01*
X16423Y-6769D01*
X16501Y-6770D01*
X17151Y-6770D01*
X17222Y-6740D01*
X17277Y-6685D01*
X17307Y-6613D01*
X17307Y-6536D01*
X17307Y-5964D01*
X19237Y-5964D01*
X19163Y-5995D01*
X18995Y-6162D01*
X18905Y-6381D01*
X18904Y-6617D01*
X18995Y-6836D01*
X19162Y-7004D01*
X19381Y-7094D01*
X19617Y-7095D01*
X19836Y-7004D01*
X20004Y-6837D01*
X20094Y-6618D01*
X20095Y-6382D01*
X20004Y-6163D01*
X19837Y-5995D01*
X19762Y-5964D01*
X30192Y-5964D01*
X30192Y-6613D01*
X30222Y-6685D01*
X30276Y-6740D01*
X30348Y-6769D01*
X30426Y-6770D01*
X31076Y-6770D01*
X31147Y-6740D01*
X31202Y-6685D01*
X31232Y-6613D01*
X31232Y-6536D01*
X31232Y-5964D01*
X31765Y-5964D01*
X31695Y-6143D01*
X31699Y-6378D01*
X31780Y-6574D01*
X31884Y-6602D01*
X32237Y-6250D01*
X32232Y-6244D01*
X32281Y-6194D01*
X32287Y-6200D01*
X32292Y-6194D01*
X32342Y-6244D01*
X32336Y-6250D01*
X32689Y-6602D01*
X32793Y-6574D01*
X32879Y-6356D01*
X32875Y-6121D01*
X32850Y-6063D01*
X33052Y-6198D01*
X33221Y-6450D01*
X33285Y-6772D01*
X33285Y-20477D01*
G54D10*
G36*
X17292Y-24535D02*
X17285Y-24535D01*
X17285Y-24542D01*
X17215Y-24542D01*
X17215Y-24535D01*
X16751Y-24535D01*
X16685Y-24601D01*
X16684Y-24747D01*
X16684Y-24755D01*
X16180Y-24755D01*
X16244Y-24598D01*
X16245Y-24401D01*
X16180Y-24245D01*
X16684Y-24245D01*
X16684Y-24252D01*
X16685Y-24398D01*
X16751Y-24465D01*
X17215Y-24465D01*
X17215Y-24457D01*
X17285Y-24457D01*
X17285Y-24465D01*
X17292Y-24465D01*
X17292Y-24535D01*
X17292Y-24535D01*
G37*
G54D40*
X17292Y-24535D02*
X17285Y-24535D01*
X17285Y-24542D01*
X17215Y-24542D01*
X17215Y-24535D01*
X16751Y-24535D01*
X16685Y-24601D01*
X16684Y-24747D01*
X16684Y-24755D01*
X16180Y-24755D01*
X16244Y-24598D01*
X16245Y-24401D01*
X16180Y-24245D01*
X16684Y-24245D01*
X16684Y-24252D01*
X16685Y-24398D01*
X16751Y-24465D01*
X17215Y-24465D01*
X17215Y-24457D01*
X17285Y-24457D01*
X17285Y-24465D01*
X17292Y-24465D01*
X17292Y-24535D01*
G54D10*
G36*
X23285Y-24728D02*
X23259Y-24857D01*
X23198Y-24949D01*
X23107Y-25009D01*
X22978Y-25035D01*
X21811Y-25035D01*
X21923Y-24923D01*
X21923Y-24923D01*
X21923Y-24923D01*
X21943Y-24893D01*
X21969Y-24919D01*
X22151Y-24994D01*
X22348Y-24995D01*
X22530Y-24919D01*
X22669Y-24780D01*
X22744Y-24598D01*
X22745Y-24401D01*
X22669Y-24219D01*
X22530Y-24080D01*
X22348Y-24005D01*
X22341Y-24005D01*
X22460Y-23885D01*
X22460Y-23885D01*
X22460Y-23885D01*
X22513Y-23806D01*
X22532Y-23712D01*
X22532Y-23475D01*
X22608Y-23507D01*
X22776Y-23507D01*
X22842Y-23440D01*
X22842Y-22785D01*
X22835Y-22785D01*
X22835Y-22715D01*
X22842Y-22715D01*
X22842Y-22707D01*
X22912Y-22707D01*
X22912Y-22715D01*
X22920Y-22715D01*
X22920Y-22785D01*
X22912Y-22785D01*
X22912Y-23440D01*
X22979Y-23507D01*
X23146Y-23507D01*
X23244Y-23466D01*
X23285Y-23426D01*
X23285Y-24728D01*
X23285Y-24728D01*
G37*
G54D40*
X23285Y-24728D02*
X23259Y-24857D01*
X23198Y-24949D01*
X23107Y-25009D01*
X22978Y-25035D01*
X21811Y-25035D01*
X21923Y-24923D01*
X21923Y-24923D01*
X21923Y-24923D01*
X21943Y-24893D01*
X21969Y-24919D01*
X22151Y-24994D01*
X22348Y-24995D01*
X22530Y-24919D01*
X22669Y-24780D01*
X22744Y-24598D01*
X22745Y-24401D01*
X22669Y-24219D01*
X22530Y-24080D01*
X22348Y-24005D01*
X22341Y-24005D01*
X22460Y-23885D01*
X22460Y-23885D01*
X22460Y-23885D01*
X22513Y-23806D01*
X22532Y-23712D01*
X22532Y-23475D01*
X22608Y-23507D01*
X22776Y-23507D01*
X22842Y-23440D01*
X22842Y-22785D01*
X22835Y-22785D01*
X22835Y-22715D01*
X22842Y-22715D01*
X22842Y-22707D01*
X22912Y-22707D01*
X22912Y-22715D01*
X22920Y-22715D01*
X22920Y-22785D01*
X22912Y-22785D01*
X22912Y-23440D01*
X22979Y-23507D01*
X23146Y-23507D01*
X23244Y-23466D01*
X23285Y-23426D01*
X23285Y-24728D01*
M02*
