G04 (created by PCBNEW (2013-dec-23)-stable) date Thu 04 Sep 2014 08:14:04 PM MDT*
%MOIN*%
G04 Gerber Fmt 3.4, Leading zero omitted, Abs format*
%FSLAX34Y34*%
G01*
G70*
G90*
G04 APERTURE LIST*
%ADD10C,0.00590551*%
%ADD11C,0.00393701*%
G04 APERTURE END LIST*
G54D10*
G54D11*
X24250Y-24250D02*
X24250Y-22500D01*
X33000Y-24750D02*
X24750Y-24750D01*
X33500Y-22500D02*
X33500Y-24250D01*
X33500Y-6750D02*
X33500Y-20500D01*
X14000Y-20500D02*
X14000Y-6750D01*
X32500Y-22000D02*
X33000Y-22000D01*
X24750Y-22000D02*
X25000Y-22000D01*
X23000Y-22000D02*
X22750Y-22000D01*
X14500Y-25250D02*
X23000Y-25250D01*
X15000Y-22000D02*
X14500Y-22000D01*
X30500Y-22000D02*
X27000Y-22000D01*
X27000Y-21500D02*
X30500Y-21500D01*
X26750Y-21750D02*
G75*
G03X27000Y-22000I250J0D01*
G74*
G01*
X27000Y-21500D02*
G75*
G03X26750Y-21750I0J-250D01*
G74*
G01*
X30500Y-22000D02*
G75*
G03X30750Y-21750I0J250D01*
G74*
G01*
X30750Y-21750D02*
G75*
G03X30500Y-21500I-250J0D01*
G74*
G01*
X25000Y-21500D02*
X22750Y-21500D01*
X33000Y-24750D02*
G75*
G03X33500Y-24250I0J500D01*
G74*
G01*
X33500Y-22500D02*
G75*
G03X33000Y-22000I-500J0D01*
G74*
G01*
X32250Y-21750D02*
G75*
G03X32500Y-22000I250J0D01*
G74*
G01*
X32500Y-21500D02*
G75*
G03X32250Y-21750I0J-250D01*
G74*
G01*
X25250Y-21750D02*
G75*
G03X25000Y-21500I-250J0D01*
G74*
G01*
X25000Y-22000D02*
G75*
G03X25250Y-21750I0J250D01*
G74*
G01*
X24250Y-24250D02*
G75*
G03X24750Y-24750I500J0D01*
G74*
G01*
X24750Y-22000D02*
G75*
G03X24250Y-22500I0J-500D01*
G74*
G01*
X20750Y-21500D02*
X17000Y-21500D01*
X17000Y-22000D02*
X20750Y-22000D01*
X14000Y-24750D02*
X14000Y-22500D01*
X23500Y-22500D02*
X23500Y-24750D01*
X23500Y-22500D02*
G75*
G03X23000Y-22000I-500J0D01*
G74*
G01*
X23000Y-25250D02*
G75*
G03X23500Y-24750I0J500D01*
G74*
G01*
X14000Y-24750D02*
G75*
G03X14500Y-25250I500J0D01*
G74*
G01*
X14500Y-22000D02*
G75*
G03X14000Y-22500I0J-500D01*
G74*
G01*
X22500Y-21750D02*
G75*
G03X22750Y-22000I250J0D01*
G74*
G01*
X22750Y-21500D02*
G75*
G03X22500Y-21750I0J-250D01*
G74*
G01*
X20750Y-22000D02*
G75*
G03X21000Y-21750I0J250D01*
G74*
G01*
X21000Y-21750D02*
G75*
G03X20750Y-21500I-250J0D01*
G74*
G01*
X17000Y-21500D02*
G75*
G03X16750Y-21750I0J-250D01*
G74*
G01*
X16750Y-21750D02*
G75*
G03X17000Y-22000I250J0D01*
G74*
G01*
X15000Y-22000D02*
G75*
G03X15250Y-21750I0J250D01*
G74*
G01*
X15250Y-21750D02*
G75*
G03X15000Y-21500I-250J0D01*
G74*
G01*
X32500Y-21500D02*
G75*
G03X33500Y-20500I0J1000D01*
G74*
G01*
X14000Y-20500D02*
G75*
G03X15000Y-21500I1000J0D01*
G74*
G01*
X15000Y-5750D02*
G75*
G03X14000Y-6750I0J-1000D01*
G74*
G01*
X33500Y-6750D02*
G75*
G03X32500Y-5750I-1000J0D01*
G74*
G01*
X15000Y-5750D02*
X32500Y-5750D01*
M02*
