M48
;DRILL file {Pcbnew (2013-dec-23)-stable} date Thu 04 Sep 2014 08:14:07 PM MDT
;FORMAT={-:-/ absolute / inch / decimal}
FMAT,2
INCH,TZ
T1C0.020
T2C0.032
T3C0.040
T4C0.045
T5C0.050
T6C0.120
%
G90
G05
M72
T1
X1.7Y-1.9
X1.85Y-1.9
X2.025Y-1.65
X2.025Y-1.725
X2.025Y-1.8
X2.075Y-1.375
X2.1Y-1.825
X2.15Y-1.85
X2.2Y-1.875
X2.225Y-1.475
X2.275Y-2.35
X2.375Y-1.6
X2.375Y-1.775
X2.38Y-1.675
X2.43Y-1.725
X2.45Y-1.5
X2.45Y-1.55
X2.45Y-1.65
X2.515Y-1.81
X2.575Y-1.35
X2.575Y-1.775
X2.61Y-1.955
X2.625Y-1.725
X2.642Y-1.925
X2.675Y-1.2
X2.675Y-1.425
X2.675Y-1.7
X2.75Y-1.175
X2.875Y-1.025
X2.925Y-1.875
X3.075Y-1.825
T2
X1.5213Y-0.625
X1.6787Y-0.625
X1.95Y-0.975
X1.95Y-1.075
X2.05Y-0.975
X2.45Y-1.2
X2.475Y-0.7
X2.55Y-1.2
X2.575Y-0.7
X3.0713Y-0.625
X3.2287Y-0.625
T3
X1.475Y-2.45
X1.5Y-2.075
X1.575Y-2.45
X1.6Y-2.075
X1.7Y-2.075
X1.725Y-2.45
X1.8Y-2.075
X1.825Y-2.45
X1.85Y-1.3
X1.85Y-1.4
X1.85Y-1.5
X1.85Y-1.6
X1.85Y-1.7
X1.85Y-1.8
X1.9Y-2.075
X1.925Y-2.45
X2.Y-2.075
X2.025Y-2.45
X2.05Y-1.3
X2.1Y-0.675
X2.1Y-0.775
X2.1Y-2.075
X2.125Y-2.45
X2.15Y-1.3
X2.2Y-0.675
X2.2Y-0.775
X2.2Y-2.075
X2.225Y-2.45
X2.25Y-1.3
X2.3Y-0.675
X2.3Y-0.775
X2.3Y-2.075
X2.4Y-2.075
X2.4957Y-2.275
X2.5Y-2.075
X2.5744Y-2.275
X2.6531Y-2.275
X2.6543Y-1.9957
X2.725Y-1.925
X2.7319Y-2.275
X2.775Y-2.4
X2.7957Y-1.8543
X2.8106Y-2.275
X2.875Y-1.975
X2.875Y-2.075
X2.875Y-2.4
X2.8894Y-2.275
X2.9681Y-2.275
X2.975Y-1.975
X2.975Y-2.075
X2.975Y-2.4
X3.0469Y-2.275
X3.075Y-1.975
X3.075Y-2.075
X3.075Y-2.4
X3.1256Y-2.275
X3.175Y-2.4
X3.2043Y-2.275
X3.275Y-2.4
T4
X1.95Y-0.65
X1.95Y-0.75
T5
X1.525Y-0.825
X1.525Y-0.925
X1.525Y-1.025
X1.525Y-1.175
X1.525Y-1.275
X1.525Y-1.375
X1.525Y-1.525
X1.525Y-1.625
X1.525Y-1.725
X1.625Y-0.825
X1.625Y-0.925
X1.625Y-1.025
X1.625Y-1.175
X1.625Y-1.275
X1.625Y-1.375
X1.625Y-1.525
X1.625Y-1.625
X1.625Y-1.725
X1.725Y-0.825
X1.725Y-0.925
X1.725Y-1.025
X1.725Y-1.175
X1.725Y-1.275
X1.725Y-1.375
X1.725Y-1.525
X1.725Y-1.625
X1.725Y-1.725
X3.025Y-0.825
X3.025Y-0.925
X3.025Y-1.025
X3.025Y-1.175
X3.025Y-1.275
X3.025Y-1.375
X3.025Y-1.525
X3.025Y-1.625
X3.025Y-1.725
X3.125Y-0.825
X3.125Y-0.925
X3.125Y-1.025
X3.125Y-1.175
X3.125Y-1.275
X3.125Y-1.375
X3.125Y-1.525
X3.125Y-1.625
X3.125Y-1.725
X3.225Y-0.825
X3.225Y-0.925
X3.225Y-1.025
X3.225Y-1.175
X3.225Y-1.275
X3.225Y-1.375
X3.225Y-1.525
X3.225Y-1.625
X3.225Y-1.725
T6
X1.525Y-1.9
X3.225Y-1.9
T0
M30
