G04 #@! TF.FileFunction,Copper,L1,Top,Signal*
%FSLAX46Y46*%
G04 Gerber Fmt 4.6, Leading zero omitted, Abs format (unit mm)*
G04 Created by KiCad (PCBNEW 4.0.5) date Wednesday, September 13, 2017 'PMt' 01:05:14 PM*
%MOMM*%
%LPD*%
G01*
G04 APERTURE LIST*
%ADD10C,0.100000*%
%ADD11R,1.300000X0.800000*%
%ADD12R,3.000000X2.100000*%
%ADD13R,0.558800X1.500000*%
%ADD14O,1.270000X1.270000*%
%ADD15C,5.080000*%
%ADD16R,0.254000X1.600000*%
%ADD17R,0.889000X0.635000*%
%ADD18C,6.350000*%
%ADD19C,0.685800*%
%ADD20C,0.177800*%
%ADD21C,0.254000*%
G04 APERTURE END LIST*
D10*
D11*
X81020000Y-129540000D03*
X81020000Y-128290000D03*
X81020000Y-127040000D03*
X81020000Y-125790000D03*
D12*
X78270000Y-132090000D03*
X78270000Y-123240000D03*
D13*
X97316400Y-122466000D03*
X96529000Y-122466000D03*
X95741600Y-122466000D03*
X94954200Y-122466000D03*
X94166800Y-122466000D03*
X93379400Y-122466000D03*
X92592000Y-122466000D03*
X91804600Y-122466000D03*
X91017200Y-122466000D03*
X90229800Y-122466000D03*
X89442400Y-122466000D03*
X88655000Y-122466000D03*
X86292800Y-122466000D03*
X85505400Y-122466000D03*
X84718000Y-122466000D03*
X83930600Y-122466000D03*
X83143200Y-122466000D03*
X82355800Y-122466000D03*
D14*
X84210000Y-129432000D03*
X93354000Y-129432000D03*
D15*
X86496000Y-79066000D03*
D13*
X121316400Y-122466000D03*
X120529000Y-122466000D03*
X119741600Y-122466000D03*
X118954200Y-122466000D03*
X118166800Y-122466000D03*
X117379400Y-122466000D03*
X116592000Y-122466000D03*
X115804600Y-122466000D03*
X115017200Y-122466000D03*
X114229800Y-122466000D03*
X113442400Y-122466000D03*
X112655000Y-122466000D03*
X110292800Y-122466000D03*
X109505400Y-122466000D03*
X108718000Y-122466000D03*
X107930600Y-122466000D03*
X107143200Y-122466000D03*
X106355800Y-122466000D03*
D14*
X108210000Y-129432000D03*
X117354000Y-129432000D03*
D15*
X110496000Y-79066000D03*
D11*
X105020000Y-129540000D03*
X105020000Y-128290000D03*
X105020000Y-127040000D03*
X105020000Y-125790000D03*
D12*
X102270000Y-132090000D03*
X102270000Y-123240000D03*
D16*
X102960000Y-143780000D03*
X103460000Y-143780000D03*
X103960000Y-143780000D03*
X104460000Y-143780000D03*
X104960000Y-143780000D03*
X105460000Y-143780000D03*
X105960000Y-143780000D03*
X106460000Y-143780000D03*
X106960000Y-143780000D03*
X107460000Y-143780000D03*
X107960000Y-143780000D03*
X108460000Y-143780000D03*
X108960000Y-143780000D03*
X109460000Y-143780000D03*
X109960000Y-143780000D03*
X110460000Y-143780000D03*
X110960000Y-143780000D03*
X111460000Y-143780000D03*
X111960000Y-143780000D03*
X112460000Y-143780000D03*
X112960000Y-143780000D03*
X113460000Y-143780000D03*
X113960000Y-143780000D03*
X114460000Y-143780000D03*
X114960000Y-143780000D03*
X115460000Y-143780000D03*
X115960000Y-143780000D03*
X116460000Y-143780000D03*
X116960000Y-143780000D03*
X119460000Y-143780000D03*
X119960000Y-143780000D03*
X120460000Y-143780000D03*
X120960000Y-143780000D03*
X121460000Y-143780000D03*
D17*
X120260000Y-134112000D03*
X120260000Y-132588000D03*
X96260000Y-134112000D03*
X96260000Y-132588000D03*
D16*
X78960000Y-143780000D03*
X79460000Y-143780000D03*
X79960000Y-143780000D03*
X80460000Y-143780000D03*
X80960000Y-143780000D03*
X81460000Y-143780000D03*
X81960000Y-143780000D03*
X82460000Y-143780000D03*
X82960000Y-143780000D03*
X83460000Y-143780000D03*
X83960000Y-143780000D03*
X84460000Y-143780000D03*
X84960000Y-143780000D03*
X85460000Y-143780000D03*
X85960000Y-143780000D03*
X86460000Y-143780000D03*
X86960000Y-143780000D03*
X87460000Y-143780000D03*
X87960000Y-143780000D03*
X88460000Y-143780000D03*
X88960000Y-143780000D03*
X89460000Y-143780000D03*
X89960000Y-143780000D03*
X90460000Y-143780000D03*
X90960000Y-143780000D03*
X91460000Y-143780000D03*
X91960000Y-143780000D03*
X92460000Y-143780000D03*
X92960000Y-143780000D03*
X95460000Y-143780000D03*
X95960000Y-143780000D03*
X96460000Y-143780000D03*
X96960000Y-143780000D03*
X97460000Y-143780000D03*
D18*
X88210000Y-64780000D03*
X112210000Y-64780000D03*
X64210000Y-64780000D03*
D16*
X54960000Y-143780000D03*
X55460000Y-143780000D03*
X55960000Y-143780000D03*
X56460000Y-143780000D03*
X56960000Y-143780000D03*
X57460000Y-143780000D03*
X57960000Y-143780000D03*
X58460000Y-143780000D03*
X58960000Y-143780000D03*
X59460000Y-143780000D03*
X59960000Y-143780000D03*
X60460000Y-143780000D03*
X60960000Y-143780000D03*
X61460000Y-143780000D03*
X61960000Y-143780000D03*
X62460000Y-143780000D03*
X62960000Y-143780000D03*
X63460000Y-143780000D03*
X63960000Y-143780000D03*
X64460000Y-143780000D03*
X64960000Y-143780000D03*
X65460000Y-143780000D03*
X65960000Y-143780000D03*
X66460000Y-143780000D03*
X66960000Y-143780000D03*
X67460000Y-143780000D03*
X67960000Y-143780000D03*
X68460000Y-143780000D03*
X68960000Y-143780000D03*
X71460000Y-143780000D03*
X71960000Y-143780000D03*
X72460000Y-143780000D03*
X72960000Y-143780000D03*
X73460000Y-143780000D03*
D17*
X72260000Y-134112000D03*
X72260000Y-132588000D03*
D13*
X73316400Y-122466000D03*
X72529000Y-122466000D03*
X71741600Y-122466000D03*
X70954200Y-122466000D03*
X70166800Y-122466000D03*
X69379400Y-122466000D03*
X68592000Y-122466000D03*
X67804600Y-122466000D03*
X67017200Y-122466000D03*
X66229800Y-122466000D03*
X65442400Y-122466000D03*
X64655000Y-122466000D03*
X62292800Y-122466000D03*
X61505400Y-122466000D03*
X60718000Y-122466000D03*
X59930600Y-122466000D03*
X59143200Y-122466000D03*
X58355800Y-122466000D03*
D14*
X60210000Y-129432000D03*
X69354000Y-129432000D03*
D15*
X62496000Y-79066000D03*
D11*
X57020000Y-129540000D03*
X57020000Y-128290000D03*
X57020000Y-127040000D03*
X57020000Y-125790000D03*
D12*
X54270000Y-132090000D03*
X54270000Y-123240000D03*
D11*
X33020000Y-129540000D03*
X33020000Y-128290000D03*
X33020000Y-127040000D03*
X33020000Y-125790000D03*
D12*
X30270000Y-132090000D03*
X30270000Y-123240000D03*
D13*
X49316400Y-122466000D03*
X48529000Y-122466000D03*
X47741600Y-122466000D03*
X46954200Y-122466000D03*
X46166800Y-122466000D03*
X45379400Y-122466000D03*
X44592000Y-122466000D03*
X43804600Y-122466000D03*
X43017200Y-122466000D03*
X42229800Y-122466000D03*
X41442400Y-122466000D03*
X40655000Y-122466000D03*
X38292800Y-122466000D03*
X37505400Y-122466000D03*
X36718000Y-122466000D03*
X35930600Y-122466000D03*
X35143200Y-122466000D03*
X34355800Y-122466000D03*
D14*
X36210000Y-129432000D03*
X45354000Y-129432000D03*
D15*
X38496000Y-79066000D03*
D17*
X48260000Y-134112000D03*
X48260000Y-132588000D03*
D16*
X30960000Y-143780000D03*
X31460000Y-143780000D03*
X31960000Y-143780000D03*
X32460000Y-143780000D03*
X32960000Y-143780000D03*
X33460000Y-143780000D03*
X33960000Y-143780000D03*
X34460000Y-143780000D03*
X34960000Y-143780000D03*
X35460000Y-143780000D03*
X35960000Y-143780000D03*
X36460000Y-143780000D03*
X36960000Y-143780000D03*
X37460000Y-143780000D03*
X37960000Y-143780000D03*
X38460000Y-143780000D03*
X38960000Y-143780000D03*
X39460000Y-143780000D03*
X39960000Y-143780000D03*
X40460000Y-143780000D03*
X40960000Y-143780000D03*
X41460000Y-143780000D03*
X41960000Y-143780000D03*
X42460000Y-143780000D03*
X42960000Y-143780000D03*
X43460000Y-143780000D03*
X43960000Y-143780000D03*
X44460000Y-143780000D03*
X44960000Y-143780000D03*
X47460000Y-143780000D03*
X47960000Y-143780000D03*
X48460000Y-143780000D03*
X48960000Y-143780000D03*
X49460000Y-143780000D03*
D18*
X40210000Y-64780000D03*
D19*
X106290000Y-125095000D03*
X121530000Y-125095000D03*
X106290000Y-140335000D03*
X106290000Y-141605000D03*
X82290000Y-125095000D03*
X97530000Y-125095000D03*
X82290000Y-140335000D03*
X82290000Y-141605000D03*
X58290000Y-125095000D03*
X73530000Y-125095000D03*
X58290000Y-141605000D03*
X58290000Y-140335000D03*
X34290000Y-140335000D03*
X34290000Y-141605000D03*
X49530000Y-125095000D03*
X34290000Y-125095000D03*
X115180000Y-126365000D03*
X119625000Y-129540000D03*
X111370000Y-123190000D03*
X107560000Y-139700000D03*
X103115000Y-140335000D03*
X115180000Y-139065000D03*
X112640000Y-138430000D03*
X87370000Y-123190000D03*
X95625000Y-129540000D03*
X91180000Y-126365000D03*
X88640000Y-138430000D03*
X91180000Y-139065000D03*
X83560000Y-139700000D03*
X79115000Y-140335000D03*
X67180000Y-139065000D03*
X63370000Y-123190000D03*
X64640000Y-138430000D03*
X71625000Y-129540000D03*
X67180000Y-126365000D03*
X55115000Y-140335000D03*
X59560000Y-139700000D03*
X43180000Y-126365000D03*
X39370000Y-123190000D03*
X47625000Y-129540000D03*
X40640000Y-138430000D03*
X43180000Y-139065000D03*
X35560000Y-139700000D03*
X31115000Y-140335000D03*
X114545000Y-135255000D03*
X118990000Y-135255000D03*
X94990000Y-135255000D03*
X90545000Y-135255000D03*
X66545000Y-135255000D03*
X70990000Y-135255000D03*
X46990000Y-135255000D03*
X42545000Y-135255000D03*
X113910000Y-136525000D03*
X118355000Y-136525000D03*
X94355000Y-136525000D03*
X89910000Y-136525000D03*
X65910000Y-136525000D03*
X70355000Y-136525000D03*
X46355000Y-136525000D03*
X41910000Y-136525000D03*
X112005000Y-125730000D03*
X113910000Y-125730000D03*
X88005000Y-125730000D03*
X89910000Y-125730000D03*
X64005000Y-125730000D03*
X65910000Y-125730000D03*
X41910000Y-125730000D03*
X40005000Y-125730000D03*
X113275000Y-124460000D03*
X111370000Y-124460000D03*
X87370000Y-124460000D03*
X89275000Y-124460000D03*
X63370000Y-124460000D03*
X65275000Y-124460000D03*
X41275000Y-124460000D03*
X39370000Y-124460000D03*
X117085000Y-141605000D03*
X117085000Y-137795000D03*
X110735000Y-137795000D03*
X93085000Y-137795000D03*
X93085000Y-141605000D03*
X86735000Y-137795000D03*
X69085000Y-141605000D03*
X69085000Y-137795000D03*
X62735000Y-137795000D03*
X45085000Y-141605000D03*
X45085000Y-137795000D03*
X38735000Y-137795000D03*
X110100000Y-138430000D03*
X86100000Y-138430000D03*
X62100000Y-138430000D03*
X38100000Y-138430000D03*
X117720000Y-139700000D03*
X109465000Y-133985000D03*
X117720000Y-133985000D03*
X93720000Y-133985000D03*
X93720000Y-139700000D03*
X85465000Y-133985000D03*
X69720000Y-139700000D03*
X61465000Y-133985000D03*
X69720000Y-133985000D03*
X37465000Y-133985000D03*
X45720000Y-133985000D03*
X45720000Y-139700000D03*
X103750000Y-127000000D03*
X108195000Y-127000000D03*
X79750000Y-127000000D03*
X84195000Y-127000000D03*
X60195000Y-127000000D03*
X55750000Y-127000000D03*
X31750000Y-127000000D03*
X36195000Y-127000000D03*
X103710000Y-128230000D03*
X107560000Y-128270000D03*
X83560000Y-128270000D03*
X79710000Y-128230000D03*
X59560000Y-128270000D03*
X55710000Y-128230000D03*
X31710000Y-128230000D03*
X35560000Y-128270000D03*
X105020000Y-135890000D03*
X105020000Y-141605000D03*
X120260000Y-135890000D03*
X96260000Y-135890000D03*
X81020000Y-135890000D03*
X81020000Y-141605000D03*
X72260000Y-135890000D03*
X57020000Y-135890000D03*
X57020000Y-141605000D03*
X33020000Y-141605000D03*
X33020000Y-135890000D03*
X48260000Y-135890000D03*
D20*
X121316400Y-122066000D02*
X121316400Y-123611400D01*
X121530000Y-125095000D02*
X121530000Y-123825000D01*
X121316400Y-123611400D02*
X121530000Y-123825000D01*
X106290000Y-140335000D02*
X106290000Y-141605000D01*
X106290000Y-125095000D02*
X106290000Y-140335000D01*
X97316400Y-122066000D02*
X97316400Y-123611400D01*
X97316400Y-123611400D02*
X97530000Y-123825000D01*
X82290000Y-125095000D02*
X82290000Y-123825000D01*
X82290000Y-140335000D02*
X82290000Y-141605000D01*
X106290000Y-125095000D02*
X106290000Y-123825000D01*
X106290000Y-123825000D02*
X106355800Y-123759200D01*
X106355800Y-123759200D02*
X106355800Y-122066000D01*
X82355800Y-123759200D02*
X82355800Y-122066000D01*
X97530000Y-125095000D02*
X97530000Y-123825000D01*
X82290000Y-125095000D02*
X82290000Y-140335000D01*
X82290000Y-123825000D02*
X82355800Y-123759200D01*
X58290000Y-123825000D02*
X58355800Y-123759200D01*
X58290000Y-125095000D02*
X58290000Y-123825000D01*
X58355800Y-123759200D02*
X58355800Y-122066000D01*
X58290000Y-125095000D02*
X58290000Y-140335000D01*
X58290000Y-140335000D02*
X58290000Y-141605000D01*
X73530000Y-125095000D02*
X73530000Y-123825000D01*
X73316400Y-123611400D02*
X73530000Y-123825000D01*
X73316400Y-122066000D02*
X73316400Y-123611400D01*
X49316400Y-122066000D02*
X49316400Y-123611400D01*
X49316400Y-123611400D02*
X49530000Y-123825000D01*
X34290000Y-125095000D02*
X34290000Y-123825000D01*
X34355800Y-123759200D02*
X34355800Y-122066000D01*
X34290000Y-123825000D02*
X34355800Y-123759200D01*
X34290000Y-125095000D02*
X34290000Y-140335000D01*
X34290000Y-140335000D02*
X34290000Y-141605000D01*
X49530000Y-125095000D02*
X49530000Y-123825000D01*
X120529000Y-123556000D02*
X120260000Y-123825000D01*
X120260000Y-123825000D02*
X120260000Y-132588000D01*
X96529000Y-123556000D02*
X96260000Y-123825000D01*
X96529000Y-122066000D02*
X96529000Y-123556000D01*
X120529000Y-122066000D02*
X120529000Y-123556000D01*
X96260000Y-123825000D02*
X96260000Y-132588000D01*
X72260000Y-123825000D02*
X72260000Y-132588000D01*
X72529000Y-123556000D02*
X72260000Y-123825000D01*
X72529000Y-122066000D02*
X72529000Y-123556000D01*
X48529000Y-122066000D02*
X48529000Y-123556000D01*
X48529000Y-123556000D02*
X48260000Y-123825000D01*
X48260000Y-123825000D02*
X48260000Y-132588000D01*
X88460000Y-143780000D02*
X88460000Y-142695000D01*
X86960000Y-143780000D02*
X86960000Y-141830000D01*
X87595000Y-141830000D02*
X86960000Y-141830000D01*
X88460000Y-142695000D02*
X87595000Y-141830000D01*
X78960000Y-140490000D02*
X79115000Y-140335000D01*
X79115000Y-140970000D02*
X79115000Y-140335000D01*
X80960000Y-143780000D02*
X80960000Y-142815000D01*
X80960000Y-142815000D02*
X79115000Y-140970000D01*
X79460000Y-140680000D02*
X79115000Y-140335000D01*
X78960000Y-140490000D02*
X78960000Y-143780000D01*
X79460000Y-143780000D02*
X79460000Y-140680000D01*
X82460000Y-143780000D02*
X82460000Y-142705000D01*
X83960000Y-142005000D02*
X83560000Y-141605000D01*
X83960000Y-143780000D02*
X83960000Y-142005000D01*
X82460000Y-142705000D02*
X83560000Y-141605000D01*
X85460000Y-143780000D02*
X85460000Y-141600000D01*
X115180000Y-123825000D02*
X115180000Y-126365000D01*
X119640000Y-123810000D02*
X119640000Y-129525000D01*
X117354000Y-122066000D02*
X117354000Y-129432000D01*
X115017200Y-122066000D02*
X115017200Y-123662200D01*
X115017200Y-123662200D02*
X115180000Y-123825000D01*
X119741600Y-122066000D02*
X119741600Y-123708400D01*
X119741600Y-123708400D02*
X119640000Y-123810000D01*
X111595000Y-141830000D02*
X110960000Y-141830000D01*
X110960000Y-143780000D02*
X110960000Y-141830000D01*
X112460000Y-143780000D02*
X112460000Y-142695000D01*
X112460000Y-142695000D02*
X111595000Y-141830000D01*
X113960000Y-141655000D02*
X112640000Y-140335000D01*
X113960000Y-143780000D02*
X113960000Y-141655000D01*
X110960000Y-141830000D02*
X108830000Y-139700000D01*
X107560000Y-139700000D02*
X107560000Y-141605000D01*
X109460000Y-141600000D02*
X107560000Y-139700000D01*
X108830000Y-139700000D02*
X107560000Y-139700000D01*
X102960000Y-140490000D02*
X103115000Y-140335000D01*
X103460000Y-140680000D02*
X103115000Y-140335000D01*
X103115000Y-140970000D02*
X103115000Y-140335000D01*
X102960000Y-140490000D02*
X102960000Y-143780000D01*
X103460000Y-143780000D02*
X103460000Y-140680000D01*
X104960000Y-143780000D02*
X104960000Y-142815000D01*
X104960000Y-142815000D02*
X103115000Y-140970000D01*
X109460000Y-143780000D02*
X109460000Y-141600000D01*
X106460000Y-143780000D02*
X106460000Y-142705000D01*
X107960000Y-143780000D02*
X107960000Y-142005000D01*
X106460000Y-142705000D02*
X107560000Y-141605000D01*
X107960000Y-142005000D02*
X107560000Y-141605000D01*
X115460000Y-143780000D02*
X115460000Y-139345000D01*
X115460000Y-139345000D02*
X115180000Y-139065000D01*
X112640000Y-140335000D02*
X112640000Y-138430000D01*
X119640000Y-129525000D02*
X119625000Y-129540000D01*
X84830000Y-139700000D02*
X83560000Y-139700000D01*
X83560000Y-139700000D02*
X83560000Y-141605000D01*
X85460000Y-141600000D02*
X83560000Y-139700000D01*
X91460000Y-139345000D02*
X91180000Y-139065000D01*
X88640000Y-140335000D02*
X88640000Y-138430000D01*
X95640000Y-129525000D02*
X95625000Y-129540000D01*
X112655000Y-122066000D02*
X112494000Y-122066000D01*
X112494000Y-122066000D02*
X111370000Y-123190000D01*
X88494000Y-122066000D02*
X87370000Y-123190000D01*
X88655000Y-122066000D02*
X88494000Y-122066000D01*
X91180000Y-123825000D02*
X91180000Y-126365000D01*
X93354000Y-122066000D02*
X93354000Y-129432000D01*
X91017200Y-123662200D02*
X91180000Y-123825000D01*
X95741600Y-122066000D02*
X95741600Y-123708400D01*
X95741600Y-123708400D02*
X95640000Y-123810000D01*
X91017200Y-122066000D02*
X91017200Y-123662200D01*
X89960000Y-143780000D02*
X89960000Y-141655000D01*
X89960000Y-141655000D02*
X88640000Y-140335000D01*
X91460000Y-143780000D02*
X91460000Y-139345000D01*
X86960000Y-141830000D02*
X84830000Y-139700000D01*
X95640000Y-123810000D02*
X95640000Y-129525000D01*
X64494000Y-122066000D02*
X63370000Y-123190000D01*
X64655000Y-122066000D02*
X64494000Y-122066000D01*
X71640000Y-129525000D02*
X71625000Y-129540000D01*
X71640000Y-123810000D02*
X71640000Y-129525000D01*
X69354000Y-122066000D02*
X69354000Y-129432000D01*
X67460000Y-139345000D02*
X67180000Y-139065000D01*
X64640000Y-140335000D02*
X64640000Y-138430000D01*
X67460000Y-143780000D02*
X67460000Y-139345000D01*
X64460000Y-142695000D02*
X63595000Y-141830000D01*
X62960000Y-143780000D02*
X62960000Y-141830000D01*
X64460000Y-143780000D02*
X64460000Y-142695000D01*
X63595000Y-141830000D02*
X62960000Y-141830000D01*
X55460000Y-140680000D02*
X55115000Y-140335000D01*
X54960000Y-140490000D02*
X55115000Y-140335000D01*
X55460000Y-143780000D02*
X55460000Y-140680000D01*
X56960000Y-142815000D02*
X55115000Y-140970000D01*
X55115000Y-140970000D02*
X55115000Y-140335000D01*
X56960000Y-143780000D02*
X56960000Y-142815000D01*
X54960000Y-140490000D02*
X54960000Y-143780000D01*
X59560000Y-139700000D02*
X59560000Y-141605000D01*
X62960000Y-141830000D02*
X60830000Y-139700000D01*
X60830000Y-139700000D02*
X59560000Y-139700000D01*
X61460000Y-141600000D02*
X59560000Y-139700000D01*
X65960000Y-143780000D02*
X65960000Y-141655000D01*
X65960000Y-141655000D02*
X64640000Y-140335000D01*
X58460000Y-142705000D02*
X59560000Y-141605000D01*
X59960000Y-143780000D02*
X59960000Y-142005000D01*
X61460000Y-143780000D02*
X61460000Y-141600000D01*
X59960000Y-142005000D02*
X59560000Y-141605000D01*
X58460000Y-143780000D02*
X58460000Y-142705000D01*
X67180000Y-123825000D02*
X67180000Y-126365000D01*
X71741600Y-123708400D02*
X71640000Y-123810000D01*
X71741600Y-122066000D02*
X71741600Y-123708400D01*
X67017200Y-123662200D02*
X67180000Y-123825000D01*
X67017200Y-122066000D02*
X67017200Y-123662200D01*
X43017200Y-122066000D02*
X43017200Y-123662200D01*
X43180000Y-123825000D02*
X43180000Y-126365000D01*
X43017200Y-123662200D02*
X43180000Y-123825000D01*
X47741600Y-122066000D02*
X47741600Y-123708400D01*
X47741600Y-123708400D02*
X47640000Y-123810000D01*
X40655000Y-122066000D02*
X40494000Y-122066000D01*
X40494000Y-122066000D02*
X39370000Y-123190000D01*
X47640000Y-123810000D02*
X47640000Y-129525000D01*
X47640000Y-129525000D02*
X47625000Y-129540000D01*
X45354000Y-122066000D02*
X45354000Y-129432000D01*
X41960000Y-143780000D02*
X41960000Y-141655000D01*
X40640000Y-140335000D02*
X40640000Y-138430000D01*
X41960000Y-141655000D02*
X40640000Y-140335000D01*
X43460000Y-143780000D02*
X43460000Y-139345000D01*
X43460000Y-139345000D02*
X43180000Y-139065000D01*
X40460000Y-143780000D02*
X40460000Y-142695000D01*
X39595000Y-141830000D02*
X38960000Y-141830000D01*
X40460000Y-142695000D02*
X39595000Y-141830000D01*
X38960000Y-143780000D02*
X38960000Y-141830000D01*
X36830000Y-139700000D02*
X35560000Y-139700000D01*
X38960000Y-141830000D02*
X36830000Y-139700000D01*
X37460000Y-143780000D02*
X37460000Y-141600000D01*
X35560000Y-139700000D02*
X35560000Y-141605000D01*
X37460000Y-141600000D02*
X35560000Y-139700000D01*
X35960000Y-143780000D02*
X35960000Y-142005000D01*
X35960000Y-142005000D02*
X35560000Y-141605000D01*
X34460000Y-143780000D02*
X34460000Y-142705000D01*
X34460000Y-142705000D02*
X35560000Y-141605000D01*
X32960000Y-143780000D02*
X32960000Y-142815000D01*
X31115000Y-140970000D02*
X31115000Y-140335000D01*
X32960000Y-142815000D02*
X31115000Y-140970000D01*
X31460000Y-143780000D02*
X31460000Y-140680000D01*
X30960000Y-140490000D02*
X31115000Y-140335000D01*
X30960000Y-140490000D02*
X30960000Y-143780000D01*
X31460000Y-140680000D02*
X31115000Y-140335000D01*
X118954200Y-123789200D02*
X118990000Y-123825000D01*
X118954200Y-122066000D02*
X118954200Y-123789200D01*
X114960000Y-140115000D02*
X114545000Y-139700000D01*
X114960000Y-143780000D02*
X114960000Y-140115000D01*
X114545000Y-139700000D02*
X114545000Y-135255000D01*
X118990000Y-123825000D02*
X118990000Y-135255000D01*
X90545000Y-139700000D02*
X90545000Y-135255000D01*
X94954200Y-122066000D02*
X94954200Y-123789200D01*
X94954200Y-123789200D02*
X94990000Y-123825000D01*
X90960000Y-140115000D02*
X90545000Y-139700000D01*
X90960000Y-143780000D02*
X90960000Y-140115000D01*
X94990000Y-123825000D02*
X94990000Y-135255000D01*
X70990000Y-123825000D02*
X70990000Y-135255000D01*
X66545000Y-139700000D02*
X66545000Y-135255000D01*
X66960000Y-143780000D02*
X66960000Y-140115000D01*
X66960000Y-140115000D02*
X66545000Y-139700000D01*
X70954200Y-122066000D02*
X70954200Y-123789200D01*
X70954200Y-123789200D02*
X70990000Y-123825000D01*
X46954200Y-122066000D02*
X46954200Y-123789200D01*
X46954200Y-123789200D02*
X46990000Y-123825000D01*
X42960000Y-143780000D02*
X42960000Y-140115000D01*
X42960000Y-140115000D02*
X42545000Y-139700000D01*
X42545000Y-139700000D02*
X42545000Y-135255000D01*
X46990000Y-123825000D02*
X46990000Y-135255000D01*
X118166800Y-122066000D02*
X118166800Y-123636800D01*
X118166800Y-123636800D02*
X118355000Y-123825000D01*
X114460000Y-140250000D02*
X113910000Y-139700000D01*
X114460000Y-140250000D02*
X114460000Y-143780000D01*
X113910000Y-139700000D02*
X113910000Y-136525000D01*
X118355000Y-123825000D02*
X118355000Y-136525000D01*
X89910000Y-139700000D02*
X89910000Y-136525000D01*
X94166800Y-123636800D02*
X94355000Y-123825000D01*
X94166800Y-122066000D02*
X94166800Y-123636800D01*
X90460000Y-140250000D02*
X89910000Y-139700000D01*
X90460000Y-140250000D02*
X90460000Y-143780000D01*
X94355000Y-123825000D02*
X94355000Y-136525000D01*
X70355000Y-123825000D02*
X70355000Y-136525000D01*
X65910000Y-139700000D02*
X65910000Y-136525000D01*
X66460000Y-140250000D02*
X65910000Y-139700000D01*
X66460000Y-140250000D02*
X66460000Y-143780000D01*
X70166800Y-123636800D02*
X70355000Y-123825000D01*
X70166800Y-122066000D02*
X70166800Y-123636800D01*
X46166800Y-122066000D02*
X46166800Y-123636800D01*
X46355000Y-123825000D02*
X46355000Y-136525000D01*
X41910000Y-139700000D02*
X41910000Y-136525000D01*
X42460000Y-140250000D02*
X41910000Y-139700000D01*
X42460000Y-140250000D02*
X42460000Y-143780000D01*
X46166800Y-123636800D02*
X46355000Y-123825000D01*
X116592000Y-123683000D02*
X116450000Y-123825000D01*
X116592000Y-123683000D02*
X116450000Y-123825000D01*
X116592000Y-122066000D02*
X116592000Y-123683000D01*
X116450000Y-142240000D02*
X116460000Y-142250000D01*
X116460000Y-142250000D02*
X116460000Y-143780000D01*
X116450000Y-123825000D02*
X116450000Y-142240000D01*
X92592000Y-123683000D02*
X92450000Y-123825000D01*
X92592000Y-123683000D02*
X92450000Y-123825000D01*
X92592000Y-122066000D02*
X92592000Y-123683000D01*
X92460000Y-142250000D02*
X92460000Y-143780000D01*
X92450000Y-142240000D02*
X92460000Y-142250000D01*
X92450000Y-123825000D02*
X92450000Y-142240000D01*
X68450000Y-123825000D02*
X68450000Y-142240000D01*
X68450000Y-142240000D02*
X68460000Y-142250000D01*
X68460000Y-142250000D02*
X68460000Y-143780000D01*
X68592000Y-123683000D02*
X68450000Y-123825000D01*
X68592000Y-122066000D02*
X68592000Y-123683000D01*
X68592000Y-123683000D02*
X68450000Y-123825000D01*
X44592000Y-122066000D02*
X44592000Y-123683000D01*
X44592000Y-123683000D02*
X44450000Y-123825000D01*
X44460000Y-142250000D02*
X44460000Y-143780000D01*
X44450000Y-142240000D02*
X44460000Y-142250000D01*
X44450000Y-123825000D02*
X44450000Y-142240000D01*
X44592000Y-123683000D02*
X44450000Y-123825000D01*
X115804600Y-123814600D02*
X115830000Y-123840000D01*
X115804600Y-122066000D02*
X115804600Y-123814600D01*
X115830000Y-142225000D02*
X115960000Y-142355000D01*
X115960000Y-142355000D02*
X115960000Y-143780000D01*
X115830000Y-123840000D02*
X115830000Y-142225000D01*
X91804600Y-123814600D02*
X91830000Y-123840000D01*
X91804600Y-122066000D02*
X91804600Y-123814600D01*
X91830000Y-142225000D02*
X91960000Y-142355000D01*
X91960000Y-142355000D02*
X91960000Y-143780000D01*
X91830000Y-123840000D02*
X91830000Y-142225000D01*
X67830000Y-123840000D02*
X67830000Y-142225000D01*
X67830000Y-142225000D02*
X67960000Y-142355000D01*
X67960000Y-142355000D02*
X67960000Y-143780000D01*
X67804600Y-123814600D02*
X67830000Y-123840000D01*
X67804600Y-122066000D02*
X67804600Y-123814600D01*
X43804600Y-122066000D02*
X43804600Y-123814600D01*
X43804600Y-123814600D02*
X43830000Y-123840000D01*
X43830000Y-123840000D02*
X43830000Y-142225000D01*
X43960000Y-142355000D02*
X43960000Y-143780000D01*
X43830000Y-142225000D02*
X43960000Y-142355000D01*
X89460000Y-142425000D02*
X88005000Y-140970000D01*
X89460000Y-143780000D02*
X89460000Y-142425000D01*
X113460000Y-142425000D02*
X112005000Y-140970000D01*
X113460000Y-143780000D02*
X113460000Y-142425000D01*
X114229800Y-125410200D02*
X113910000Y-125730000D01*
X112005000Y-140970000D02*
X112005000Y-125730000D01*
X90229800Y-125410200D02*
X89910000Y-125730000D01*
X90229800Y-122066000D02*
X90229800Y-125410200D01*
X114229800Y-122066000D02*
X114229800Y-125410200D01*
X88005000Y-140970000D02*
X88005000Y-125730000D01*
X64005000Y-140970000D02*
X64005000Y-125730000D01*
X65460000Y-142425000D02*
X64005000Y-140970000D01*
X65460000Y-143780000D02*
X65460000Y-142425000D01*
X66229800Y-125410200D02*
X65910000Y-125730000D01*
X66229800Y-122066000D02*
X66229800Y-125410200D01*
X42229800Y-122066000D02*
X42229800Y-125410200D01*
X42229800Y-125410200D02*
X41910000Y-125730000D01*
X41460000Y-143780000D02*
X41460000Y-142425000D01*
X40005000Y-140970000D02*
X40005000Y-125730000D01*
X41460000Y-142425000D02*
X40005000Y-140970000D01*
X88960000Y-143780000D02*
X88960000Y-142560000D01*
X88960000Y-142560000D02*
X87370000Y-140970000D01*
X112960000Y-143780000D02*
X112960000Y-142560000D01*
X112960000Y-142560000D02*
X111370000Y-140970000D01*
X111370000Y-140970000D02*
X111370000Y-124460000D01*
X113442400Y-124292600D02*
X113275000Y-124460000D01*
X113442400Y-122066000D02*
X113442400Y-124292600D01*
X89442400Y-122066000D02*
X89442400Y-124292600D01*
X89442400Y-124292600D02*
X89275000Y-124460000D01*
X87370000Y-140970000D02*
X87370000Y-124460000D01*
X65442400Y-124292600D02*
X65275000Y-124460000D01*
X63370000Y-140970000D02*
X63370000Y-124460000D01*
X64960000Y-143780000D02*
X64960000Y-142560000D01*
X64960000Y-142560000D02*
X63370000Y-140970000D01*
X65442400Y-122066000D02*
X65442400Y-124292600D01*
X41442400Y-122066000D02*
X41442400Y-124292600D01*
X41442400Y-124292600D02*
X41275000Y-124460000D01*
X39370000Y-140970000D02*
X39370000Y-124460000D01*
X40960000Y-142560000D02*
X39370000Y-140970000D01*
X40960000Y-143780000D02*
X40960000Y-142560000D01*
X117085000Y-137795000D02*
X117085000Y-141605000D01*
X110735000Y-124460000D02*
X110735000Y-137795000D01*
X93085000Y-137795000D02*
X93085000Y-141605000D01*
X110292800Y-124017800D02*
X110735000Y-124460000D01*
X110292800Y-122066000D02*
X110292800Y-124017800D01*
X86292800Y-122066000D02*
X86292800Y-124017800D01*
X86292800Y-124017800D02*
X86735000Y-124460000D01*
X86735000Y-124460000D02*
X86735000Y-137795000D01*
X62292800Y-122066000D02*
X62292800Y-124017800D01*
X62735000Y-124460000D02*
X62735000Y-137795000D01*
X62292800Y-124017800D02*
X62735000Y-124460000D01*
X69085000Y-137795000D02*
X69085000Y-141605000D01*
X38292800Y-122066000D02*
X38292800Y-124017800D01*
X38292800Y-124017800D02*
X38735000Y-124460000D01*
X45085000Y-137795000D02*
X45085000Y-141605000D01*
X38735000Y-124460000D02*
X38735000Y-137795000D01*
X110100000Y-124460000D02*
X110100000Y-138430000D01*
X109505400Y-123865400D02*
X110100000Y-124460000D01*
X109505400Y-122066000D02*
X109505400Y-123865400D01*
X85505400Y-123865400D02*
X86100000Y-124460000D01*
X85505400Y-122066000D02*
X85505400Y-123865400D01*
X86100000Y-124460000D02*
X86100000Y-138430000D01*
X61505400Y-122066000D02*
X61505400Y-123865400D01*
X62100000Y-124460000D02*
X62100000Y-138430000D01*
X61505400Y-123865400D02*
X62100000Y-124460000D01*
X37505400Y-122066000D02*
X37505400Y-123865400D01*
X37505400Y-123865400D02*
X38100000Y-124460000D01*
X38100000Y-124460000D02*
X38100000Y-138430000D01*
X109465000Y-124460000D02*
X109465000Y-133985000D01*
X117720000Y-139700000D02*
X117720000Y-133985000D01*
X93720000Y-139700000D02*
X93720000Y-133985000D01*
X108718000Y-122066000D02*
X108718000Y-123713000D01*
X108718000Y-123713000D02*
X109465000Y-124460000D01*
X84718000Y-122066000D02*
X84718000Y-123713000D01*
X84718000Y-123713000D02*
X85465000Y-124460000D01*
X85465000Y-124460000D02*
X85465000Y-133985000D01*
X60718000Y-122066000D02*
X60718000Y-123713000D01*
X61465000Y-124460000D02*
X61465000Y-133985000D01*
X60718000Y-123713000D02*
X61465000Y-124460000D01*
X69720000Y-139700000D02*
X69720000Y-133985000D01*
X36718000Y-122066000D02*
X36718000Y-123713000D01*
X36718000Y-123713000D02*
X37465000Y-124460000D01*
X45720000Y-139700000D02*
X45720000Y-133985000D01*
X37465000Y-124460000D02*
X37465000Y-133985000D01*
X103790000Y-127040000D02*
X105020000Y-127040000D01*
X103750000Y-127000000D02*
X103790000Y-127040000D01*
X79750000Y-127000000D02*
X79790000Y-127040000D01*
X84195000Y-127000000D02*
X84195000Y-123825000D01*
X79790000Y-127040000D02*
X81020000Y-127040000D01*
X108195000Y-127000000D02*
X108195000Y-123825000D01*
X107930600Y-123530600D02*
X108210000Y-123810000D01*
X107930600Y-122066000D02*
X107930600Y-123530600D01*
X108195000Y-123825000D02*
X108210000Y-123810000D01*
X84195000Y-123825000D02*
X84210000Y-123810000D01*
X83930600Y-123530600D02*
X84210000Y-123810000D01*
X83930600Y-122066000D02*
X83930600Y-123530600D01*
X60195000Y-123825000D02*
X60210000Y-123810000D01*
X59930600Y-123530600D02*
X60210000Y-123810000D01*
X59930600Y-122066000D02*
X59930600Y-123530600D01*
X60195000Y-127000000D02*
X60195000Y-123825000D01*
X55750000Y-127000000D02*
X55790000Y-127040000D01*
X55790000Y-127040000D02*
X57020000Y-127040000D01*
X31790000Y-127040000D02*
X33020000Y-127040000D01*
X31750000Y-127000000D02*
X31790000Y-127040000D01*
X35930600Y-122066000D02*
X35930600Y-123530600D01*
X35930600Y-123530600D02*
X36210000Y-123810000D01*
X36195000Y-123825000D02*
X36210000Y-123810000D01*
X36195000Y-127000000D02*
X36195000Y-123825000D01*
X107560000Y-128270000D02*
X107560000Y-124460000D01*
X105020000Y-128290000D02*
X103770000Y-128290000D01*
X103770000Y-128290000D02*
X103710000Y-128230000D01*
X79770000Y-128290000D02*
X79710000Y-128230000D01*
X83560000Y-128270000D02*
X83560000Y-124460000D01*
X81020000Y-128290000D02*
X79770000Y-128290000D01*
X107143200Y-124043200D02*
X107560000Y-124460000D01*
X107143200Y-122066000D02*
X107143200Y-124043200D01*
X83143200Y-122066000D02*
X83143200Y-124043200D01*
X83143200Y-124043200D02*
X83560000Y-124460000D01*
X59143200Y-124043200D02*
X59560000Y-124460000D01*
X59143200Y-122066000D02*
X59143200Y-124043200D01*
X59560000Y-128270000D02*
X59560000Y-124460000D01*
X57020000Y-128290000D02*
X55770000Y-128290000D01*
X55770000Y-128290000D02*
X55710000Y-128230000D01*
X33020000Y-128290000D02*
X31770000Y-128290000D01*
X31770000Y-128290000D02*
X31710000Y-128230000D01*
X35143200Y-122066000D02*
X35143200Y-124043200D01*
X35143200Y-124043200D02*
X35560000Y-124460000D01*
X35560000Y-128270000D02*
X35560000Y-124460000D01*
X120260000Y-134112000D02*
X120260000Y-135890000D01*
X96260000Y-134112000D02*
X96260000Y-135890000D01*
X105020000Y-135890000D02*
X105020000Y-141605000D01*
X81020000Y-135890000D02*
X81020000Y-141605000D01*
X57020000Y-135890000D02*
X57020000Y-141605000D01*
X72260000Y-134112000D02*
X72260000Y-135890000D01*
X48260000Y-134112000D02*
X48260000Y-135890000D01*
X33020000Y-135890000D02*
X33020000Y-141605000D01*
D21*
G36*
X50569089Y-65266632D02*
X50661571Y-65328427D01*
X50723368Y-65420911D01*
X50754000Y-65574911D01*
X50754000Y-81985089D01*
X50723368Y-82139089D01*
X50661571Y-82231573D01*
X50569089Y-82293368D01*
X50415089Y-82324000D01*
X34460000Y-82324000D01*
X34415950Y-82332762D01*
X34371040Y-82332762D01*
X34084026Y-82389852D01*
X34084025Y-82389852D01*
X34015937Y-82418055D01*
X33919647Y-82457940D01*
X33919646Y-82457941D01*
X33676329Y-82620520D01*
X33613425Y-82683425D01*
X33550520Y-82746329D01*
X33387940Y-82989646D01*
X33341219Y-83102441D01*
X33319852Y-83154026D01*
X33262762Y-83441039D01*
X33262762Y-83485950D01*
X33254000Y-83530000D01*
X33254000Y-121280000D01*
X33262762Y-121324050D01*
X33262762Y-121368961D01*
X33319852Y-121655974D01*
X33319852Y-121655975D01*
X33387940Y-121820354D01*
X33550520Y-122063671D01*
X33613425Y-122126575D01*
X33676329Y-122189480D01*
X33687936Y-122197236D01*
X33687936Y-123216000D01*
X33714503Y-123357190D01*
X33797946Y-123486865D01*
X33885900Y-123546961D01*
X33885900Y-123600233D01*
X33855869Y-123645177D01*
X33820100Y-123825000D01*
X33820100Y-124541224D01*
X33676665Y-124684408D01*
X33566226Y-124950376D01*
X33566181Y-125001536D01*
X32370000Y-125001536D01*
X32228810Y-125028103D01*
X32099135Y-125111546D01*
X32012141Y-125238866D01*
X31981536Y-125390000D01*
X31981536Y-126190000D01*
X32006502Y-126322682D01*
X31894624Y-126276226D01*
X31606639Y-126275975D01*
X31340479Y-126385950D01*
X31136665Y-126589408D01*
X31026226Y-126855376D01*
X31025975Y-127143361D01*
X31135950Y-127409521D01*
X31329888Y-127603798D01*
X31300479Y-127615950D01*
X31096665Y-127819408D01*
X30986226Y-128085376D01*
X30985975Y-128373361D01*
X31095950Y-128639521D01*
X31299408Y-128843335D01*
X31565376Y-128953774D01*
X31759748Y-128953943D01*
X31735000Y-129013690D01*
X31735000Y-129254250D01*
X31893750Y-129413000D01*
X32893000Y-129413000D01*
X32893000Y-129393000D01*
X33147000Y-129393000D01*
X33147000Y-129413000D01*
X33167000Y-129413000D01*
X33167000Y-129667000D01*
X33147000Y-129667000D01*
X33147000Y-130416250D01*
X33305750Y-130575000D01*
X33796309Y-130575000D01*
X33820100Y-130565145D01*
X33820100Y-139781224D01*
X33676665Y-139924408D01*
X33566226Y-140190376D01*
X33565975Y-140478361D01*
X33675950Y-140744521D01*
X33820100Y-140888923D01*
X33820100Y-141051224D01*
X33676665Y-141194408D01*
X33655083Y-141246383D01*
X33634050Y-141195479D01*
X33489900Y-141051077D01*
X33489900Y-136443776D01*
X33633335Y-136300592D01*
X33743774Y-136034624D01*
X33744025Y-135746639D01*
X33634050Y-135480479D01*
X33430592Y-135276665D01*
X33164624Y-135166226D01*
X32876639Y-135165975D01*
X32610479Y-135275950D01*
X32406665Y-135479408D01*
X32296226Y-135745376D01*
X32295975Y-136033361D01*
X32405950Y-136299521D01*
X32550100Y-136443923D01*
X32550100Y-141051224D01*
X32406665Y-141194408D01*
X32296226Y-141460376D01*
X32295975Y-141748361D01*
X32405950Y-142014521D01*
X32609408Y-142218335D01*
X32875376Y-142328774D01*
X33163361Y-142329025D01*
X33429521Y-142219050D01*
X33633335Y-142015592D01*
X33654917Y-141963617D01*
X33675950Y-142014521D01*
X33879408Y-142218335D01*
X34145376Y-142328774D01*
X34433361Y-142329025D01*
X34699521Y-142219050D01*
X34903335Y-142015592D01*
X35013774Y-141749624D01*
X35014025Y-141461639D01*
X34904050Y-141195479D01*
X34759900Y-141051077D01*
X34759900Y-140888776D01*
X34903335Y-140745592D01*
X35013774Y-140479624D01*
X35014025Y-140191639D01*
X34904050Y-139925479D01*
X34759900Y-139781077D01*
X34759900Y-129755112D01*
X34981791Y-129755112D01*
X35113041Y-130072007D01*
X35441462Y-130443077D01*
X35886886Y-130660220D01*
X36083000Y-130536895D01*
X36083000Y-129559000D01*
X35106031Y-129559000D01*
X34981791Y-129755112D01*
X34759900Y-129755112D01*
X34759900Y-125648776D01*
X34903335Y-125505592D01*
X35013774Y-125239624D01*
X35014025Y-124951639D01*
X34904050Y-124685479D01*
X34759900Y-124541077D01*
X34759900Y-124299096D01*
X34810931Y-124375469D01*
X35090100Y-124654639D01*
X35090100Y-127716224D01*
X34946665Y-127859408D01*
X34836226Y-128125376D01*
X34835975Y-128413361D01*
X34945950Y-128679521D01*
X35096967Y-128830802D01*
X34981791Y-129108888D01*
X35106031Y-129305000D01*
X36083000Y-129305000D01*
X36083000Y-129285000D01*
X36337000Y-129285000D01*
X36337000Y-129305000D01*
X36357000Y-129305000D01*
X36357000Y-129559000D01*
X36337000Y-129559000D01*
X36337000Y-130536895D01*
X36533114Y-130660220D01*
X36978538Y-130443077D01*
X36995100Y-130424364D01*
X36995100Y-133431224D01*
X36851665Y-133574408D01*
X36741226Y-133840376D01*
X36740975Y-134128361D01*
X36850950Y-134394521D01*
X37054408Y-134598335D01*
X37320376Y-134708774D01*
X37608361Y-134709025D01*
X37630100Y-134700043D01*
X37630100Y-137876224D01*
X37486665Y-138019408D01*
X37376226Y-138285376D01*
X37375975Y-138573361D01*
X37485950Y-138839521D01*
X37689408Y-139043335D01*
X37955376Y-139153774D01*
X38243361Y-139154025D01*
X38509521Y-139044050D01*
X38713335Y-138840592D01*
X38823774Y-138574624D01*
X38823823Y-138518977D01*
X38878361Y-138519025D01*
X38900100Y-138510043D01*
X38900100Y-140970000D01*
X38922530Y-141082762D01*
X38935869Y-141149823D01*
X39037731Y-141302269D01*
X40117433Y-142381972D01*
X39973302Y-142441673D01*
X39821222Y-142593752D01*
X39705486Y-142615530D01*
X39598990Y-142593964D01*
X39446698Y-142441673D01*
X39213309Y-142345000D01*
X39182250Y-142345000D01*
X39023500Y-142503750D01*
X39023500Y-142758090D01*
X38975141Y-142828866D01*
X38960568Y-142900833D01*
X38948897Y-142838810D01*
X38896500Y-142757382D01*
X38896500Y-142503750D01*
X38737750Y-142345000D01*
X38706691Y-142345000D01*
X38473302Y-142441673D01*
X38321222Y-142593752D01*
X38205486Y-142615530D01*
X38098990Y-142593964D01*
X37946698Y-142441673D01*
X37713309Y-142345000D01*
X37682250Y-142345000D01*
X37523500Y-142503750D01*
X37523500Y-142758090D01*
X37475141Y-142828866D01*
X37460568Y-142900833D01*
X37448897Y-142838810D01*
X37396500Y-142757382D01*
X37396500Y-142503750D01*
X37237750Y-142345000D01*
X37206691Y-142345000D01*
X36973302Y-142441673D01*
X36821222Y-142593752D01*
X36705486Y-142615530D01*
X36598990Y-142593964D01*
X36446698Y-142441673D01*
X36213309Y-142345000D01*
X36182250Y-142345000D01*
X36023500Y-142503750D01*
X36023500Y-142758090D01*
X35975141Y-142828866D01*
X35960568Y-142900833D01*
X35948897Y-142838810D01*
X35896500Y-142757382D01*
X35896500Y-142503750D01*
X35737750Y-142345000D01*
X35706691Y-142345000D01*
X35473302Y-142441673D01*
X35321222Y-142593752D01*
X35205486Y-142615530D01*
X35098990Y-142593964D01*
X34946698Y-142441673D01*
X34713309Y-142345000D01*
X34682250Y-142345000D01*
X34523500Y-142503750D01*
X34523500Y-142758090D01*
X34475141Y-142828866D01*
X34460568Y-142900833D01*
X34448897Y-142838810D01*
X34396500Y-142757382D01*
X34396500Y-142503750D01*
X34237750Y-142345000D01*
X34206691Y-142345000D01*
X33973302Y-142441673D01*
X33821222Y-142593752D01*
X33705486Y-142615530D01*
X33598990Y-142593964D01*
X33446698Y-142441673D01*
X33213309Y-142345000D01*
X33182250Y-142345000D01*
X33023500Y-142503750D01*
X33023500Y-142758090D01*
X32975141Y-142828866D01*
X32960568Y-142900833D01*
X32948897Y-142838810D01*
X32896500Y-142757382D01*
X32896500Y-142503750D01*
X32737750Y-142345000D01*
X32706691Y-142345000D01*
X32473302Y-142441673D01*
X32321222Y-142593752D01*
X32205486Y-142615530D01*
X32098990Y-142593964D01*
X31946698Y-142441673D01*
X31713309Y-142345000D01*
X31682250Y-142345000D01*
X31523500Y-142503750D01*
X31523500Y-142518475D01*
X31446698Y-142441673D01*
X31255032Y-142362282D01*
X31237750Y-142345000D01*
X31182250Y-142345000D01*
X31164968Y-142362282D01*
X30973302Y-142441673D01*
X30896500Y-142518475D01*
X30896500Y-142503750D01*
X30852725Y-142459975D01*
X30810780Y-142358711D01*
X30801090Y-142335318D01*
X30801089Y-142335317D01*
X30801089Y-142335316D01*
X30692702Y-142173105D01*
X30608830Y-142089234D01*
X30566895Y-142047298D01*
X30404684Y-141938911D01*
X30240305Y-141870822D01*
X30240303Y-141870822D01*
X30048961Y-141832762D01*
X29850911Y-141793368D01*
X29758427Y-141731571D01*
X29696632Y-141639089D01*
X29666000Y-141485089D01*
X29666000Y-133528464D01*
X31770000Y-133528464D01*
X31911190Y-133501897D01*
X32040865Y-133418454D01*
X32127859Y-133291134D01*
X32158464Y-133140000D01*
X32158464Y-131040000D01*
X32131897Y-130898810D01*
X32048454Y-130769135D01*
X31921134Y-130682141D01*
X31770000Y-130651536D01*
X29666000Y-130651536D01*
X29666000Y-129825750D01*
X31735000Y-129825750D01*
X31735000Y-130066310D01*
X31831673Y-130299699D01*
X32010302Y-130478327D01*
X32243691Y-130575000D01*
X32734250Y-130575000D01*
X32893000Y-130416250D01*
X32893000Y-129667000D01*
X31893750Y-129667000D01*
X31735000Y-129825750D01*
X29666000Y-129825750D01*
X29666000Y-124678464D01*
X31770000Y-124678464D01*
X31911190Y-124651897D01*
X32040865Y-124568454D01*
X32127859Y-124441134D01*
X32158464Y-124290000D01*
X32158464Y-122190000D01*
X32131897Y-122048810D01*
X32048454Y-121919135D01*
X31921134Y-121832141D01*
X31770000Y-121801536D01*
X29666000Y-121801536D01*
X29666000Y-65574911D01*
X29696632Y-65420911D01*
X29758427Y-65328429D01*
X29850911Y-65266632D01*
X30004911Y-65236000D01*
X50415089Y-65236000D01*
X50569089Y-65266632D01*
X50569089Y-65266632D01*
G37*
X50569089Y-65266632D02*
X50661571Y-65328427D01*
X50723368Y-65420911D01*
X50754000Y-65574911D01*
X50754000Y-81985089D01*
X50723368Y-82139089D01*
X50661571Y-82231573D01*
X50569089Y-82293368D01*
X50415089Y-82324000D01*
X34460000Y-82324000D01*
X34415950Y-82332762D01*
X34371040Y-82332762D01*
X34084026Y-82389852D01*
X34084025Y-82389852D01*
X34015937Y-82418055D01*
X33919647Y-82457940D01*
X33919646Y-82457941D01*
X33676329Y-82620520D01*
X33613425Y-82683425D01*
X33550520Y-82746329D01*
X33387940Y-82989646D01*
X33341219Y-83102441D01*
X33319852Y-83154026D01*
X33262762Y-83441039D01*
X33262762Y-83485950D01*
X33254000Y-83530000D01*
X33254000Y-121280000D01*
X33262762Y-121324050D01*
X33262762Y-121368961D01*
X33319852Y-121655974D01*
X33319852Y-121655975D01*
X33387940Y-121820354D01*
X33550520Y-122063671D01*
X33613425Y-122126575D01*
X33676329Y-122189480D01*
X33687936Y-122197236D01*
X33687936Y-123216000D01*
X33714503Y-123357190D01*
X33797946Y-123486865D01*
X33885900Y-123546961D01*
X33885900Y-123600233D01*
X33855869Y-123645177D01*
X33820100Y-123825000D01*
X33820100Y-124541224D01*
X33676665Y-124684408D01*
X33566226Y-124950376D01*
X33566181Y-125001536D01*
X32370000Y-125001536D01*
X32228810Y-125028103D01*
X32099135Y-125111546D01*
X32012141Y-125238866D01*
X31981536Y-125390000D01*
X31981536Y-126190000D01*
X32006502Y-126322682D01*
X31894624Y-126276226D01*
X31606639Y-126275975D01*
X31340479Y-126385950D01*
X31136665Y-126589408D01*
X31026226Y-126855376D01*
X31025975Y-127143361D01*
X31135950Y-127409521D01*
X31329888Y-127603798D01*
X31300479Y-127615950D01*
X31096665Y-127819408D01*
X30986226Y-128085376D01*
X30985975Y-128373361D01*
X31095950Y-128639521D01*
X31299408Y-128843335D01*
X31565376Y-128953774D01*
X31759748Y-128953943D01*
X31735000Y-129013690D01*
X31735000Y-129254250D01*
X31893750Y-129413000D01*
X32893000Y-129413000D01*
X32893000Y-129393000D01*
X33147000Y-129393000D01*
X33147000Y-129413000D01*
X33167000Y-129413000D01*
X33167000Y-129667000D01*
X33147000Y-129667000D01*
X33147000Y-130416250D01*
X33305750Y-130575000D01*
X33796309Y-130575000D01*
X33820100Y-130565145D01*
X33820100Y-139781224D01*
X33676665Y-139924408D01*
X33566226Y-140190376D01*
X33565975Y-140478361D01*
X33675950Y-140744521D01*
X33820100Y-140888923D01*
X33820100Y-141051224D01*
X33676665Y-141194408D01*
X33655083Y-141246383D01*
X33634050Y-141195479D01*
X33489900Y-141051077D01*
X33489900Y-136443776D01*
X33633335Y-136300592D01*
X33743774Y-136034624D01*
X33744025Y-135746639D01*
X33634050Y-135480479D01*
X33430592Y-135276665D01*
X33164624Y-135166226D01*
X32876639Y-135165975D01*
X32610479Y-135275950D01*
X32406665Y-135479408D01*
X32296226Y-135745376D01*
X32295975Y-136033361D01*
X32405950Y-136299521D01*
X32550100Y-136443923D01*
X32550100Y-141051224D01*
X32406665Y-141194408D01*
X32296226Y-141460376D01*
X32295975Y-141748361D01*
X32405950Y-142014521D01*
X32609408Y-142218335D01*
X32875376Y-142328774D01*
X33163361Y-142329025D01*
X33429521Y-142219050D01*
X33633335Y-142015592D01*
X33654917Y-141963617D01*
X33675950Y-142014521D01*
X33879408Y-142218335D01*
X34145376Y-142328774D01*
X34433361Y-142329025D01*
X34699521Y-142219050D01*
X34903335Y-142015592D01*
X35013774Y-141749624D01*
X35014025Y-141461639D01*
X34904050Y-141195479D01*
X34759900Y-141051077D01*
X34759900Y-140888776D01*
X34903335Y-140745592D01*
X35013774Y-140479624D01*
X35014025Y-140191639D01*
X34904050Y-139925479D01*
X34759900Y-139781077D01*
X34759900Y-129755112D01*
X34981791Y-129755112D01*
X35113041Y-130072007D01*
X35441462Y-130443077D01*
X35886886Y-130660220D01*
X36083000Y-130536895D01*
X36083000Y-129559000D01*
X35106031Y-129559000D01*
X34981791Y-129755112D01*
X34759900Y-129755112D01*
X34759900Y-125648776D01*
X34903335Y-125505592D01*
X35013774Y-125239624D01*
X35014025Y-124951639D01*
X34904050Y-124685479D01*
X34759900Y-124541077D01*
X34759900Y-124299096D01*
X34810931Y-124375469D01*
X35090100Y-124654639D01*
X35090100Y-127716224D01*
X34946665Y-127859408D01*
X34836226Y-128125376D01*
X34835975Y-128413361D01*
X34945950Y-128679521D01*
X35096967Y-128830802D01*
X34981791Y-129108888D01*
X35106031Y-129305000D01*
X36083000Y-129305000D01*
X36083000Y-129285000D01*
X36337000Y-129285000D01*
X36337000Y-129305000D01*
X36357000Y-129305000D01*
X36357000Y-129559000D01*
X36337000Y-129559000D01*
X36337000Y-130536895D01*
X36533114Y-130660220D01*
X36978538Y-130443077D01*
X36995100Y-130424364D01*
X36995100Y-133431224D01*
X36851665Y-133574408D01*
X36741226Y-133840376D01*
X36740975Y-134128361D01*
X36850950Y-134394521D01*
X37054408Y-134598335D01*
X37320376Y-134708774D01*
X37608361Y-134709025D01*
X37630100Y-134700043D01*
X37630100Y-137876224D01*
X37486665Y-138019408D01*
X37376226Y-138285376D01*
X37375975Y-138573361D01*
X37485950Y-138839521D01*
X37689408Y-139043335D01*
X37955376Y-139153774D01*
X38243361Y-139154025D01*
X38509521Y-139044050D01*
X38713335Y-138840592D01*
X38823774Y-138574624D01*
X38823823Y-138518977D01*
X38878361Y-138519025D01*
X38900100Y-138510043D01*
X38900100Y-140970000D01*
X38922530Y-141082762D01*
X38935869Y-141149823D01*
X39037731Y-141302269D01*
X40117433Y-142381972D01*
X39973302Y-142441673D01*
X39821222Y-142593752D01*
X39705486Y-142615530D01*
X39598990Y-142593964D01*
X39446698Y-142441673D01*
X39213309Y-142345000D01*
X39182250Y-142345000D01*
X39023500Y-142503750D01*
X39023500Y-142758090D01*
X38975141Y-142828866D01*
X38960568Y-142900833D01*
X38948897Y-142838810D01*
X38896500Y-142757382D01*
X38896500Y-142503750D01*
X38737750Y-142345000D01*
X38706691Y-142345000D01*
X38473302Y-142441673D01*
X38321222Y-142593752D01*
X38205486Y-142615530D01*
X38098990Y-142593964D01*
X37946698Y-142441673D01*
X37713309Y-142345000D01*
X37682250Y-142345000D01*
X37523500Y-142503750D01*
X37523500Y-142758090D01*
X37475141Y-142828866D01*
X37460568Y-142900833D01*
X37448897Y-142838810D01*
X37396500Y-142757382D01*
X37396500Y-142503750D01*
X37237750Y-142345000D01*
X37206691Y-142345000D01*
X36973302Y-142441673D01*
X36821222Y-142593752D01*
X36705486Y-142615530D01*
X36598990Y-142593964D01*
X36446698Y-142441673D01*
X36213309Y-142345000D01*
X36182250Y-142345000D01*
X36023500Y-142503750D01*
X36023500Y-142758090D01*
X35975141Y-142828866D01*
X35960568Y-142900833D01*
X35948897Y-142838810D01*
X35896500Y-142757382D01*
X35896500Y-142503750D01*
X35737750Y-142345000D01*
X35706691Y-142345000D01*
X35473302Y-142441673D01*
X35321222Y-142593752D01*
X35205486Y-142615530D01*
X35098990Y-142593964D01*
X34946698Y-142441673D01*
X34713309Y-142345000D01*
X34682250Y-142345000D01*
X34523500Y-142503750D01*
X34523500Y-142758090D01*
X34475141Y-142828866D01*
X34460568Y-142900833D01*
X34448897Y-142838810D01*
X34396500Y-142757382D01*
X34396500Y-142503750D01*
X34237750Y-142345000D01*
X34206691Y-142345000D01*
X33973302Y-142441673D01*
X33821222Y-142593752D01*
X33705486Y-142615530D01*
X33598990Y-142593964D01*
X33446698Y-142441673D01*
X33213309Y-142345000D01*
X33182250Y-142345000D01*
X33023500Y-142503750D01*
X33023500Y-142758090D01*
X32975141Y-142828866D01*
X32960568Y-142900833D01*
X32948897Y-142838810D01*
X32896500Y-142757382D01*
X32896500Y-142503750D01*
X32737750Y-142345000D01*
X32706691Y-142345000D01*
X32473302Y-142441673D01*
X32321222Y-142593752D01*
X32205486Y-142615530D01*
X32098990Y-142593964D01*
X31946698Y-142441673D01*
X31713309Y-142345000D01*
X31682250Y-142345000D01*
X31523500Y-142503750D01*
X31523500Y-142518475D01*
X31446698Y-142441673D01*
X31255032Y-142362282D01*
X31237750Y-142345000D01*
X31182250Y-142345000D01*
X31164968Y-142362282D01*
X30973302Y-142441673D01*
X30896500Y-142518475D01*
X30896500Y-142503750D01*
X30852725Y-142459975D01*
X30810780Y-142358711D01*
X30801090Y-142335318D01*
X30801089Y-142335317D01*
X30801089Y-142335316D01*
X30692702Y-142173105D01*
X30608830Y-142089234D01*
X30566895Y-142047298D01*
X30404684Y-141938911D01*
X30240305Y-141870822D01*
X30240303Y-141870822D01*
X30048961Y-141832762D01*
X29850911Y-141793368D01*
X29758427Y-141731571D01*
X29696632Y-141639089D01*
X29666000Y-141485089D01*
X29666000Y-133528464D01*
X31770000Y-133528464D01*
X31911190Y-133501897D01*
X32040865Y-133418454D01*
X32127859Y-133291134D01*
X32158464Y-133140000D01*
X32158464Y-131040000D01*
X32131897Y-130898810D01*
X32048454Y-130769135D01*
X31921134Y-130682141D01*
X31770000Y-130651536D01*
X29666000Y-130651536D01*
X29666000Y-129825750D01*
X31735000Y-129825750D01*
X31735000Y-130066310D01*
X31831673Y-130299699D01*
X32010302Y-130478327D01*
X32243691Y-130575000D01*
X32734250Y-130575000D01*
X32893000Y-130416250D01*
X32893000Y-129667000D01*
X31893750Y-129667000D01*
X31735000Y-129825750D01*
X29666000Y-129825750D01*
X29666000Y-124678464D01*
X31770000Y-124678464D01*
X31911190Y-124651897D01*
X32040865Y-124568454D01*
X32127859Y-124441134D01*
X32158464Y-124290000D01*
X32158464Y-122190000D01*
X32131897Y-122048810D01*
X32048454Y-121919135D01*
X31921134Y-121832141D01*
X31770000Y-121801536D01*
X29666000Y-121801536D01*
X29666000Y-65574911D01*
X29696632Y-65420911D01*
X29758427Y-65328429D01*
X29850911Y-65266632D01*
X30004911Y-65236000D01*
X50415089Y-65236000D01*
X50569089Y-65266632D01*
G36*
X39740600Y-122593002D02*
X39899348Y-122593002D01*
X39740600Y-122751750D01*
X39740600Y-123342310D01*
X39837273Y-123575699D01*
X40015902Y-123754327D01*
X40249291Y-123851000D01*
X40369250Y-123851000D01*
X40528000Y-123692250D01*
X40528000Y-122593000D01*
X40508000Y-122593000D01*
X40508000Y-122486000D01*
X40774536Y-122486000D01*
X40774536Y-123216000D01*
X40782000Y-123255667D01*
X40782000Y-123692250D01*
X40915169Y-123825419D01*
X40865479Y-123845950D01*
X40661665Y-124049408D01*
X40551226Y-124315376D01*
X40550975Y-124603361D01*
X40660950Y-124869521D01*
X40864408Y-125073335D01*
X41130376Y-125183774D01*
X41418361Y-125184025D01*
X41442118Y-125174209D01*
X41296665Y-125319408D01*
X41186226Y-125585376D01*
X41185975Y-125873361D01*
X41295950Y-126139521D01*
X41499408Y-126343335D01*
X41765376Y-126453774D01*
X42053361Y-126454025D01*
X42319521Y-126344050D01*
X42523335Y-126140592D01*
X42633774Y-125874624D01*
X42633983Y-125634843D01*
X42663931Y-125590023D01*
X42680938Y-125504521D01*
X42699700Y-125410200D01*
X42699700Y-123851000D01*
X42731450Y-123851000D01*
X42890200Y-123692250D01*
X42890200Y-123252859D01*
X42897664Y-123216000D01*
X42897664Y-122486000D01*
X43136736Y-122486000D01*
X43136736Y-123216000D01*
X43144200Y-123255667D01*
X43144200Y-123692250D01*
X43302950Y-123851000D01*
X43341940Y-123851000D01*
X43360100Y-123942294D01*
X43360100Y-139884246D01*
X43292270Y-139782731D01*
X43014900Y-139505362D01*
X43014900Y-135808776D01*
X43158335Y-135665592D01*
X43268774Y-135399624D01*
X43269025Y-135111639D01*
X43159050Y-134845479D01*
X42955592Y-134641665D01*
X42689624Y-134531226D01*
X42401639Y-134530975D01*
X42135479Y-134640950D01*
X41931665Y-134844408D01*
X41821226Y-135110376D01*
X41820975Y-135398361D01*
X41930950Y-135664521D01*
X42075100Y-135808923D01*
X42075100Y-135809728D01*
X42054624Y-135801226D01*
X41766639Y-135800975D01*
X41500479Y-135910950D01*
X41296665Y-136114408D01*
X41186226Y-136380376D01*
X41185975Y-136668361D01*
X41295950Y-136934521D01*
X41440100Y-137078923D01*
X41440100Y-139700000D01*
X41472940Y-139865100D01*
X41475869Y-139879823D01*
X41577731Y-140032269D01*
X41990100Y-140444639D01*
X41990100Y-142806973D01*
X41975141Y-142828866D01*
X41960568Y-142900833D01*
X41948897Y-142838810D01*
X41929900Y-142809288D01*
X41929900Y-142425000D01*
X41894131Y-142245177D01*
X41880649Y-142225000D01*
X41792270Y-142092731D01*
X40474900Y-140775362D01*
X40474900Y-126283776D01*
X40618335Y-126140592D01*
X40728774Y-125874624D01*
X40729025Y-125586639D01*
X40619050Y-125320479D01*
X40415592Y-125116665D01*
X40149624Y-125006226D01*
X39861639Y-125005975D01*
X39839900Y-125014957D01*
X39839900Y-125013776D01*
X39983335Y-124870592D01*
X40093774Y-124604624D01*
X40094025Y-124316639D01*
X39984050Y-124050479D01*
X39780592Y-123846665D01*
X39514624Y-123736226D01*
X39226639Y-123735975D01*
X38960479Y-123845950D01*
X38872907Y-123933369D01*
X38762700Y-123823162D01*
X38762700Y-123546167D01*
X38843065Y-123494454D01*
X38930059Y-123367134D01*
X38960664Y-123216000D01*
X38960664Y-122486000D01*
X39740600Y-122486000D01*
X39740600Y-122593002D01*
X39740600Y-122593002D01*
G37*
X39740600Y-122593002D02*
X39899348Y-122593002D01*
X39740600Y-122751750D01*
X39740600Y-123342310D01*
X39837273Y-123575699D01*
X40015902Y-123754327D01*
X40249291Y-123851000D01*
X40369250Y-123851000D01*
X40528000Y-123692250D01*
X40528000Y-122593000D01*
X40508000Y-122593000D01*
X40508000Y-122486000D01*
X40774536Y-122486000D01*
X40774536Y-123216000D01*
X40782000Y-123255667D01*
X40782000Y-123692250D01*
X40915169Y-123825419D01*
X40865479Y-123845950D01*
X40661665Y-124049408D01*
X40551226Y-124315376D01*
X40550975Y-124603361D01*
X40660950Y-124869521D01*
X40864408Y-125073335D01*
X41130376Y-125183774D01*
X41418361Y-125184025D01*
X41442118Y-125174209D01*
X41296665Y-125319408D01*
X41186226Y-125585376D01*
X41185975Y-125873361D01*
X41295950Y-126139521D01*
X41499408Y-126343335D01*
X41765376Y-126453774D01*
X42053361Y-126454025D01*
X42319521Y-126344050D01*
X42523335Y-126140592D01*
X42633774Y-125874624D01*
X42633983Y-125634843D01*
X42663931Y-125590023D01*
X42680938Y-125504521D01*
X42699700Y-125410200D01*
X42699700Y-123851000D01*
X42731450Y-123851000D01*
X42890200Y-123692250D01*
X42890200Y-123252859D01*
X42897664Y-123216000D01*
X42897664Y-122486000D01*
X43136736Y-122486000D01*
X43136736Y-123216000D01*
X43144200Y-123255667D01*
X43144200Y-123692250D01*
X43302950Y-123851000D01*
X43341940Y-123851000D01*
X43360100Y-123942294D01*
X43360100Y-139884246D01*
X43292270Y-139782731D01*
X43014900Y-139505362D01*
X43014900Y-135808776D01*
X43158335Y-135665592D01*
X43268774Y-135399624D01*
X43269025Y-135111639D01*
X43159050Y-134845479D01*
X42955592Y-134641665D01*
X42689624Y-134531226D01*
X42401639Y-134530975D01*
X42135479Y-134640950D01*
X41931665Y-134844408D01*
X41821226Y-135110376D01*
X41820975Y-135398361D01*
X41930950Y-135664521D01*
X42075100Y-135808923D01*
X42075100Y-135809728D01*
X42054624Y-135801226D01*
X41766639Y-135800975D01*
X41500479Y-135910950D01*
X41296665Y-136114408D01*
X41186226Y-136380376D01*
X41185975Y-136668361D01*
X41295950Y-136934521D01*
X41440100Y-137078923D01*
X41440100Y-139700000D01*
X41472940Y-139865100D01*
X41475869Y-139879823D01*
X41577731Y-140032269D01*
X41990100Y-140444639D01*
X41990100Y-142806973D01*
X41975141Y-142828866D01*
X41960568Y-142900833D01*
X41948897Y-142838810D01*
X41929900Y-142809288D01*
X41929900Y-142425000D01*
X41894131Y-142245177D01*
X41880649Y-142225000D01*
X41792270Y-142092731D01*
X40474900Y-140775362D01*
X40474900Y-126283776D01*
X40618335Y-126140592D01*
X40728774Y-125874624D01*
X40729025Y-125586639D01*
X40619050Y-125320479D01*
X40415592Y-125116665D01*
X40149624Y-125006226D01*
X39861639Y-125005975D01*
X39839900Y-125014957D01*
X39839900Y-125013776D01*
X39983335Y-124870592D01*
X40093774Y-124604624D01*
X40094025Y-124316639D01*
X39984050Y-124050479D01*
X39780592Y-123846665D01*
X39514624Y-123736226D01*
X39226639Y-123735975D01*
X38960479Y-123845950D01*
X38872907Y-123933369D01*
X38762700Y-123823162D01*
X38762700Y-123546167D01*
X38843065Y-123494454D01*
X38930059Y-123367134D01*
X38960664Y-123216000D01*
X38960664Y-122486000D01*
X39740600Y-122486000D01*
X39740600Y-122593002D01*
G36*
X45498936Y-123216000D02*
X45506400Y-123255667D01*
X45506400Y-123692250D01*
X45665150Y-123851000D01*
X45755639Y-123851000D01*
X45834531Y-123969069D01*
X45885100Y-124019638D01*
X45885100Y-128305173D01*
X45677114Y-128203780D01*
X45481000Y-128327105D01*
X45481000Y-129305000D01*
X45501000Y-129305000D01*
X45501000Y-129559000D01*
X45481000Y-129559000D01*
X45481000Y-130536895D01*
X45677114Y-130660220D01*
X45885100Y-130558827D01*
X45885100Y-133269728D01*
X45864624Y-133261226D01*
X45576639Y-133260975D01*
X45310479Y-133370950D01*
X45106665Y-133574408D01*
X44996226Y-133840376D01*
X44995975Y-134128361D01*
X45105950Y-134394521D01*
X45250100Y-134538923D01*
X45250100Y-137079728D01*
X45229624Y-137071226D01*
X44941639Y-137070975D01*
X44919900Y-137079957D01*
X44919900Y-130606115D01*
X45030886Y-130660220D01*
X45227000Y-130536895D01*
X45227000Y-129559000D01*
X45207000Y-129559000D01*
X45207000Y-129305000D01*
X45227000Y-129305000D01*
X45227000Y-128327105D01*
X45030886Y-128203780D01*
X44919900Y-128257885D01*
X44919900Y-124019639D01*
X44924269Y-124015270D01*
X45026131Y-123862823D01*
X45028483Y-123851000D01*
X45093650Y-123851000D01*
X45252400Y-123692250D01*
X45252400Y-123252859D01*
X45259864Y-123216000D01*
X45259864Y-122486000D01*
X45498936Y-122486000D01*
X45498936Y-123216000D01*
X45498936Y-123216000D01*
G37*
X45498936Y-123216000D02*
X45506400Y-123255667D01*
X45506400Y-123692250D01*
X45665150Y-123851000D01*
X45755639Y-123851000D01*
X45834531Y-123969069D01*
X45885100Y-124019638D01*
X45885100Y-128305173D01*
X45677114Y-128203780D01*
X45481000Y-128327105D01*
X45481000Y-129305000D01*
X45501000Y-129305000D01*
X45501000Y-129559000D01*
X45481000Y-129559000D01*
X45481000Y-130536895D01*
X45677114Y-130660220D01*
X45885100Y-130558827D01*
X45885100Y-133269728D01*
X45864624Y-133261226D01*
X45576639Y-133260975D01*
X45310479Y-133370950D01*
X45106665Y-133574408D01*
X44996226Y-133840376D01*
X44995975Y-134128361D01*
X45105950Y-134394521D01*
X45250100Y-134538923D01*
X45250100Y-137079728D01*
X45229624Y-137071226D01*
X44941639Y-137070975D01*
X44919900Y-137079957D01*
X44919900Y-130606115D01*
X45030886Y-130660220D01*
X45227000Y-130536895D01*
X45227000Y-129559000D01*
X45207000Y-129559000D01*
X45207000Y-129305000D01*
X45227000Y-129305000D01*
X45227000Y-128327105D01*
X45030886Y-128203780D01*
X44919900Y-128257885D01*
X44919900Y-124019639D01*
X44924269Y-124015270D01*
X45026131Y-123862823D01*
X45028483Y-123851000D01*
X45093650Y-123851000D01*
X45252400Y-123692250D01*
X45252400Y-123252859D01*
X45259864Y-123216000D01*
X45259864Y-122486000D01*
X45498936Y-122486000D01*
X45498936Y-123216000D01*
G36*
X47861136Y-123216000D02*
X47868600Y-123255667D01*
X47868600Y-123581226D01*
X47825869Y-123645177D01*
X47790100Y-123825000D01*
X47790100Y-131886815D01*
X47674310Y-131908603D01*
X47544635Y-131992046D01*
X47459900Y-132116060D01*
X47459900Y-123846950D01*
X47614600Y-123692250D01*
X47614600Y-123252859D01*
X47622064Y-123216000D01*
X47622064Y-122486000D01*
X47861136Y-122486000D01*
X47861136Y-123216000D01*
X47861136Y-123216000D01*
G37*
X47861136Y-123216000D02*
X47868600Y-123255667D01*
X47868600Y-123581226D01*
X47825869Y-123645177D01*
X47790100Y-123825000D01*
X47790100Y-131886815D01*
X47674310Y-131908603D01*
X47544635Y-131992046D01*
X47459900Y-132116060D01*
X47459900Y-123846950D01*
X47614600Y-123692250D01*
X47614600Y-123252859D01*
X47622064Y-123216000D01*
X47622064Y-122486000D01*
X47861136Y-122486000D01*
X47861136Y-123216000D01*
G36*
X74569089Y-65266632D02*
X74661571Y-65328427D01*
X74723368Y-65420911D01*
X74754000Y-65574911D01*
X74754000Y-81985089D01*
X74723368Y-82139089D01*
X74661571Y-82231573D01*
X74569089Y-82293368D01*
X74415089Y-82324000D01*
X58460000Y-82324000D01*
X58415950Y-82332762D01*
X58371040Y-82332762D01*
X58084026Y-82389852D01*
X58084025Y-82389852D01*
X58015937Y-82418055D01*
X57919647Y-82457940D01*
X57919646Y-82457941D01*
X57676329Y-82620520D01*
X57613425Y-82683425D01*
X57550520Y-82746329D01*
X57387940Y-82989646D01*
X57341219Y-83102441D01*
X57319852Y-83154026D01*
X57262762Y-83441039D01*
X57262762Y-83485950D01*
X57254000Y-83530000D01*
X57254000Y-121280000D01*
X57262762Y-121324050D01*
X57262762Y-121368961D01*
X57319852Y-121655974D01*
X57319852Y-121655975D01*
X57387940Y-121820354D01*
X57550520Y-122063671D01*
X57613425Y-122126575D01*
X57676329Y-122189480D01*
X57687936Y-122197236D01*
X57687936Y-123216000D01*
X57714503Y-123357190D01*
X57797946Y-123486865D01*
X57885900Y-123546961D01*
X57885900Y-123600233D01*
X57855869Y-123645177D01*
X57820100Y-123825000D01*
X57820100Y-124541224D01*
X57676665Y-124684408D01*
X57566226Y-124950376D01*
X57566181Y-125001536D01*
X56370000Y-125001536D01*
X56228810Y-125028103D01*
X56099135Y-125111546D01*
X56012141Y-125238866D01*
X55981536Y-125390000D01*
X55981536Y-126190000D01*
X56006502Y-126322682D01*
X55894624Y-126276226D01*
X55606639Y-126275975D01*
X55340479Y-126385950D01*
X55136665Y-126589408D01*
X55026226Y-126855376D01*
X55025975Y-127143361D01*
X55135950Y-127409521D01*
X55329888Y-127603798D01*
X55300479Y-127615950D01*
X55096665Y-127819408D01*
X54986226Y-128085376D01*
X54985975Y-128373361D01*
X55095950Y-128639521D01*
X55299408Y-128843335D01*
X55565376Y-128953774D01*
X55759748Y-128953943D01*
X55735000Y-129013690D01*
X55735000Y-129254250D01*
X55893750Y-129413000D01*
X56893000Y-129413000D01*
X56893000Y-129393000D01*
X57147000Y-129393000D01*
X57147000Y-129413000D01*
X57167000Y-129413000D01*
X57167000Y-129667000D01*
X57147000Y-129667000D01*
X57147000Y-130416250D01*
X57305750Y-130575000D01*
X57796309Y-130575000D01*
X57820100Y-130565145D01*
X57820100Y-139781224D01*
X57676665Y-139924408D01*
X57566226Y-140190376D01*
X57565975Y-140478361D01*
X57675950Y-140744521D01*
X57820100Y-140888923D01*
X57820100Y-141051224D01*
X57676665Y-141194408D01*
X57655083Y-141246383D01*
X57634050Y-141195479D01*
X57489900Y-141051077D01*
X57489900Y-136443776D01*
X57633335Y-136300592D01*
X57743774Y-136034624D01*
X57744025Y-135746639D01*
X57634050Y-135480479D01*
X57430592Y-135276665D01*
X57164624Y-135166226D01*
X56876639Y-135165975D01*
X56610479Y-135275950D01*
X56406665Y-135479408D01*
X56296226Y-135745376D01*
X56295975Y-136033361D01*
X56405950Y-136299521D01*
X56550100Y-136443923D01*
X56550100Y-141051224D01*
X56406665Y-141194408D01*
X56296226Y-141460376D01*
X56295975Y-141748361D01*
X56405950Y-142014521D01*
X56609408Y-142218335D01*
X56875376Y-142328774D01*
X57163361Y-142329025D01*
X57429521Y-142219050D01*
X57633335Y-142015592D01*
X57654917Y-141963617D01*
X57675950Y-142014521D01*
X57879408Y-142218335D01*
X58145376Y-142328774D01*
X58433361Y-142329025D01*
X58699521Y-142219050D01*
X58903335Y-142015592D01*
X59013774Y-141749624D01*
X59014025Y-141461639D01*
X58904050Y-141195479D01*
X58759900Y-141051077D01*
X58759900Y-140888776D01*
X58903335Y-140745592D01*
X59013774Y-140479624D01*
X59014025Y-140191639D01*
X58904050Y-139925479D01*
X58759900Y-139781077D01*
X58759900Y-129755112D01*
X58981791Y-129755112D01*
X59113041Y-130072007D01*
X59441462Y-130443077D01*
X59886886Y-130660220D01*
X60083000Y-130536895D01*
X60083000Y-129559000D01*
X59106031Y-129559000D01*
X58981791Y-129755112D01*
X58759900Y-129755112D01*
X58759900Y-125648776D01*
X58903335Y-125505592D01*
X59013774Y-125239624D01*
X59014025Y-124951639D01*
X58904050Y-124685479D01*
X58759900Y-124541077D01*
X58759900Y-124299096D01*
X58810931Y-124375469D01*
X59090100Y-124654639D01*
X59090100Y-127716224D01*
X58946665Y-127859408D01*
X58836226Y-128125376D01*
X58835975Y-128413361D01*
X58945950Y-128679521D01*
X59096967Y-128830802D01*
X58981791Y-129108888D01*
X59106031Y-129305000D01*
X60083000Y-129305000D01*
X60083000Y-129285000D01*
X60337000Y-129285000D01*
X60337000Y-129305000D01*
X60357000Y-129305000D01*
X60357000Y-129559000D01*
X60337000Y-129559000D01*
X60337000Y-130536895D01*
X60533114Y-130660220D01*
X60978538Y-130443077D01*
X60995100Y-130424364D01*
X60995100Y-133431224D01*
X60851665Y-133574408D01*
X60741226Y-133840376D01*
X60740975Y-134128361D01*
X60850950Y-134394521D01*
X61054408Y-134598335D01*
X61320376Y-134708774D01*
X61608361Y-134709025D01*
X61630100Y-134700043D01*
X61630100Y-137876224D01*
X61486665Y-138019408D01*
X61376226Y-138285376D01*
X61375975Y-138573361D01*
X61485950Y-138839521D01*
X61689408Y-139043335D01*
X61955376Y-139153774D01*
X62243361Y-139154025D01*
X62509521Y-139044050D01*
X62713335Y-138840592D01*
X62823774Y-138574624D01*
X62823823Y-138518977D01*
X62878361Y-138519025D01*
X62900100Y-138510043D01*
X62900100Y-140970000D01*
X62922530Y-141082762D01*
X62935869Y-141149823D01*
X63037731Y-141302269D01*
X64117433Y-142381972D01*
X63973302Y-142441673D01*
X63821222Y-142593752D01*
X63705486Y-142615530D01*
X63598990Y-142593964D01*
X63446698Y-142441673D01*
X63213309Y-142345000D01*
X63182250Y-142345000D01*
X63023500Y-142503750D01*
X63023500Y-142758090D01*
X62975141Y-142828866D01*
X62960568Y-142900833D01*
X62948897Y-142838810D01*
X62896500Y-142757382D01*
X62896500Y-142503750D01*
X62737750Y-142345000D01*
X62706691Y-142345000D01*
X62473302Y-142441673D01*
X62321222Y-142593752D01*
X62205486Y-142615530D01*
X62098990Y-142593964D01*
X61946698Y-142441673D01*
X61713309Y-142345000D01*
X61682250Y-142345000D01*
X61523500Y-142503750D01*
X61523500Y-142758090D01*
X61475141Y-142828866D01*
X61460568Y-142900833D01*
X61448897Y-142838810D01*
X61396500Y-142757382D01*
X61396500Y-142503750D01*
X61237750Y-142345000D01*
X61206691Y-142345000D01*
X60973302Y-142441673D01*
X60821222Y-142593752D01*
X60705486Y-142615530D01*
X60598990Y-142593964D01*
X60446698Y-142441673D01*
X60213309Y-142345000D01*
X60182250Y-142345000D01*
X60023500Y-142503750D01*
X60023500Y-142758090D01*
X59975141Y-142828866D01*
X59960568Y-142900833D01*
X59948897Y-142838810D01*
X59896500Y-142757382D01*
X59896500Y-142503750D01*
X59737750Y-142345000D01*
X59706691Y-142345000D01*
X59473302Y-142441673D01*
X59321222Y-142593752D01*
X59205486Y-142615530D01*
X59098990Y-142593964D01*
X58946698Y-142441673D01*
X58713309Y-142345000D01*
X58682250Y-142345000D01*
X58523500Y-142503750D01*
X58523500Y-142758090D01*
X58475141Y-142828866D01*
X58460568Y-142900833D01*
X58448897Y-142838810D01*
X58396500Y-142757382D01*
X58396500Y-142503750D01*
X58237750Y-142345000D01*
X58206691Y-142345000D01*
X57973302Y-142441673D01*
X57821222Y-142593752D01*
X57705486Y-142615530D01*
X57598990Y-142593964D01*
X57446698Y-142441673D01*
X57213309Y-142345000D01*
X57182250Y-142345000D01*
X57023500Y-142503750D01*
X57023500Y-142758090D01*
X56975141Y-142828866D01*
X56960568Y-142900833D01*
X56948897Y-142838810D01*
X56896500Y-142757382D01*
X56896500Y-142503750D01*
X56737750Y-142345000D01*
X56706691Y-142345000D01*
X56473302Y-142441673D01*
X56321222Y-142593752D01*
X56205486Y-142615530D01*
X56098990Y-142593964D01*
X55946698Y-142441673D01*
X55713309Y-142345000D01*
X55682250Y-142345000D01*
X55523500Y-142503750D01*
X55523500Y-142518475D01*
X55446698Y-142441673D01*
X55255032Y-142362282D01*
X55237750Y-142345000D01*
X55182250Y-142345000D01*
X55164968Y-142362282D01*
X54973302Y-142441673D01*
X54896500Y-142518475D01*
X54896500Y-142503750D01*
X54852725Y-142459975D01*
X54810780Y-142358711D01*
X54801090Y-142335318D01*
X54801089Y-142335317D01*
X54801089Y-142335316D01*
X54692702Y-142173105D01*
X54608830Y-142089234D01*
X54566895Y-142047298D01*
X54404684Y-141938911D01*
X54240305Y-141870822D01*
X54240303Y-141870822D01*
X54048961Y-141832762D01*
X53850911Y-141793368D01*
X53758427Y-141731571D01*
X53696632Y-141639089D01*
X53666000Y-141485089D01*
X53666000Y-133528464D01*
X55770000Y-133528464D01*
X55911190Y-133501897D01*
X56040865Y-133418454D01*
X56127859Y-133291134D01*
X56158464Y-133140000D01*
X56158464Y-131040000D01*
X56131897Y-130898810D01*
X56048454Y-130769135D01*
X55921134Y-130682141D01*
X55770000Y-130651536D01*
X53666000Y-130651536D01*
X53666000Y-129825750D01*
X55735000Y-129825750D01*
X55735000Y-130066310D01*
X55831673Y-130299699D01*
X56010302Y-130478327D01*
X56243691Y-130575000D01*
X56734250Y-130575000D01*
X56893000Y-130416250D01*
X56893000Y-129667000D01*
X55893750Y-129667000D01*
X55735000Y-129825750D01*
X53666000Y-129825750D01*
X53666000Y-124678464D01*
X55770000Y-124678464D01*
X55911190Y-124651897D01*
X56040865Y-124568454D01*
X56127859Y-124441134D01*
X56158464Y-124290000D01*
X56158464Y-122190000D01*
X56131897Y-122048810D01*
X56048454Y-121919135D01*
X55921134Y-121832141D01*
X55770000Y-121801536D01*
X53666000Y-121801536D01*
X53666000Y-65574911D01*
X53696632Y-65420911D01*
X53758427Y-65328429D01*
X53850911Y-65266632D01*
X54004911Y-65236000D01*
X74415089Y-65236000D01*
X74569089Y-65266632D01*
X74569089Y-65266632D01*
G37*
X74569089Y-65266632D02*
X74661571Y-65328427D01*
X74723368Y-65420911D01*
X74754000Y-65574911D01*
X74754000Y-81985089D01*
X74723368Y-82139089D01*
X74661571Y-82231573D01*
X74569089Y-82293368D01*
X74415089Y-82324000D01*
X58460000Y-82324000D01*
X58415950Y-82332762D01*
X58371040Y-82332762D01*
X58084026Y-82389852D01*
X58084025Y-82389852D01*
X58015937Y-82418055D01*
X57919647Y-82457940D01*
X57919646Y-82457941D01*
X57676329Y-82620520D01*
X57613425Y-82683425D01*
X57550520Y-82746329D01*
X57387940Y-82989646D01*
X57341219Y-83102441D01*
X57319852Y-83154026D01*
X57262762Y-83441039D01*
X57262762Y-83485950D01*
X57254000Y-83530000D01*
X57254000Y-121280000D01*
X57262762Y-121324050D01*
X57262762Y-121368961D01*
X57319852Y-121655974D01*
X57319852Y-121655975D01*
X57387940Y-121820354D01*
X57550520Y-122063671D01*
X57613425Y-122126575D01*
X57676329Y-122189480D01*
X57687936Y-122197236D01*
X57687936Y-123216000D01*
X57714503Y-123357190D01*
X57797946Y-123486865D01*
X57885900Y-123546961D01*
X57885900Y-123600233D01*
X57855869Y-123645177D01*
X57820100Y-123825000D01*
X57820100Y-124541224D01*
X57676665Y-124684408D01*
X57566226Y-124950376D01*
X57566181Y-125001536D01*
X56370000Y-125001536D01*
X56228810Y-125028103D01*
X56099135Y-125111546D01*
X56012141Y-125238866D01*
X55981536Y-125390000D01*
X55981536Y-126190000D01*
X56006502Y-126322682D01*
X55894624Y-126276226D01*
X55606639Y-126275975D01*
X55340479Y-126385950D01*
X55136665Y-126589408D01*
X55026226Y-126855376D01*
X55025975Y-127143361D01*
X55135950Y-127409521D01*
X55329888Y-127603798D01*
X55300479Y-127615950D01*
X55096665Y-127819408D01*
X54986226Y-128085376D01*
X54985975Y-128373361D01*
X55095950Y-128639521D01*
X55299408Y-128843335D01*
X55565376Y-128953774D01*
X55759748Y-128953943D01*
X55735000Y-129013690D01*
X55735000Y-129254250D01*
X55893750Y-129413000D01*
X56893000Y-129413000D01*
X56893000Y-129393000D01*
X57147000Y-129393000D01*
X57147000Y-129413000D01*
X57167000Y-129413000D01*
X57167000Y-129667000D01*
X57147000Y-129667000D01*
X57147000Y-130416250D01*
X57305750Y-130575000D01*
X57796309Y-130575000D01*
X57820100Y-130565145D01*
X57820100Y-139781224D01*
X57676665Y-139924408D01*
X57566226Y-140190376D01*
X57565975Y-140478361D01*
X57675950Y-140744521D01*
X57820100Y-140888923D01*
X57820100Y-141051224D01*
X57676665Y-141194408D01*
X57655083Y-141246383D01*
X57634050Y-141195479D01*
X57489900Y-141051077D01*
X57489900Y-136443776D01*
X57633335Y-136300592D01*
X57743774Y-136034624D01*
X57744025Y-135746639D01*
X57634050Y-135480479D01*
X57430592Y-135276665D01*
X57164624Y-135166226D01*
X56876639Y-135165975D01*
X56610479Y-135275950D01*
X56406665Y-135479408D01*
X56296226Y-135745376D01*
X56295975Y-136033361D01*
X56405950Y-136299521D01*
X56550100Y-136443923D01*
X56550100Y-141051224D01*
X56406665Y-141194408D01*
X56296226Y-141460376D01*
X56295975Y-141748361D01*
X56405950Y-142014521D01*
X56609408Y-142218335D01*
X56875376Y-142328774D01*
X57163361Y-142329025D01*
X57429521Y-142219050D01*
X57633335Y-142015592D01*
X57654917Y-141963617D01*
X57675950Y-142014521D01*
X57879408Y-142218335D01*
X58145376Y-142328774D01*
X58433361Y-142329025D01*
X58699521Y-142219050D01*
X58903335Y-142015592D01*
X59013774Y-141749624D01*
X59014025Y-141461639D01*
X58904050Y-141195479D01*
X58759900Y-141051077D01*
X58759900Y-140888776D01*
X58903335Y-140745592D01*
X59013774Y-140479624D01*
X59014025Y-140191639D01*
X58904050Y-139925479D01*
X58759900Y-139781077D01*
X58759900Y-129755112D01*
X58981791Y-129755112D01*
X59113041Y-130072007D01*
X59441462Y-130443077D01*
X59886886Y-130660220D01*
X60083000Y-130536895D01*
X60083000Y-129559000D01*
X59106031Y-129559000D01*
X58981791Y-129755112D01*
X58759900Y-129755112D01*
X58759900Y-125648776D01*
X58903335Y-125505592D01*
X59013774Y-125239624D01*
X59014025Y-124951639D01*
X58904050Y-124685479D01*
X58759900Y-124541077D01*
X58759900Y-124299096D01*
X58810931Y-124375469D01*
X59090100Y-124654639D01*
X59090100Y-127716224D01*
X58946665Y-127859408D01*
X58836226Y-128125376D01*
X58835975Y-128413361D01*
X58945950Y-128679521D01*
X59096967Y-128830802D01*
X58981791Y-129108888D01*
X59106031Y-129305000D01*
X60083000Y-129305000D01*
X60083000Y-129285000D01*
X60337000Y-129285000D01*
X60337000Y-129305000D01*
X60357000Y-129305000D01*
X60357000Y-129559000D01*
X60337000Y-129559000D01*
X60337000Y-130536895D01*
X60533114Y-130660220D01*
X60978538Y-130443077D01*
X60995100Y-130424364D01*
X60995100Y-133431224D01*
X60851665Y-133574408D01*
X60741226Y-133840376D01*
X60740975Y-134128361D01*
X60850950Y-134394521D01*
X61054408Y-134598335D01*
X61320376Y-134708774D01*
X61608361Y-134709025D01*
X61630100Y-134700043D01*
X61630100Y-137876224D01*
X61486665Y-138019408D01*
X61376226Y-138285376D01*
X61375975Y-138573361D01*
X61485950Y-138839521D01*
X61689408Y-139043335D01*
X61955376Y-139153774D01*
X62243361Y-139154025D01*
X62509521Y-139044050D01*
X62713335Y-138840592D01*
X62823774Y-138574624D01*
X62823823Y-138518977D01*
X62878361Y-138519025D01*
X62900100Y-138510043D01*
X62900100Y-140970000D01*
X62922530Y-141082762D01*
X62935869Y-141149823D01*
X63037731Y-141302269D01*
X64117433Y-142381972D01*
X63973302Y-142441673D01*
X63821222Y-142593752D01*
X63705486Y-142615530D01*
X63598990Y-142593964D01*
X63446698Y-142441673D01*
X63213309Y-142345000D01*
X63182250Y-142345000D01*
X63023500Y-142503750D01*
X63023500Y-142758090D01*
X62975141Y-142828866D01*
X62960568Y-142900833D01*
X62948897Y-142838810D01*
X62896500Y-142757382D01*
X62896500Y-142503750D01*
X62737750Y-142345000D01*
X62706691Y-142345000D01*
X62473302Y-142441673D01*
X62321222Y-142593752D01*
X62205486Y-142615530D01*
X62098990Y-142593964D01*
X61946698Y-142441673D01*
X61713309Y-142345000D01*
X61682250Y-142345000D01*
X61523500Y-142503750D01*
X61523500Y-142758090D01*
X61475141Y-142828866D01*
X61460568Y-142900833D01*
X61448897Y-142838810D01*
X61396500Y-142757382D01*
X61396500Y-142503750D01*
X61237750Y-142345000D01*
X61206691Y-142345000D01*
X60973302Y-142441673D01*
X60821222Y-142593752D01*
X60705486Y-142615530D01*
X60598990Y-142593964D01*
X60446698Y-142441673D01*
X60213309Y-142345000D01*
X60182250Y-142345000D01*
X60023500Y-142503750D01*
X60023500Y-142758090D01*
X59975141Y-142828866D01*
X59960568Y-142900833D01*
X59948897Y-142838810D01*
X59896500Y-142757382D01*
X59896500Y-142503750D01*
X59737750Y-142345000D01*
X59706691Y-142345000D01*
X59473302Y-142441673D01*
X59321222Y-142593752D01*
X59205486Y-142615530D01*
X59098990Y-142593964D01*
X58946698Y-142441673D01*
X58713309Y-142345000D01*
X58682250Y-142345000D01*
X58523500Y-142503750D01*
X58523500Y-142758090D01*
X58475141Y-142828866D01*
X58460568Y-142900833D01*
X58448897Y-142838810D01*
X58396500Y-142757382D01*
X58396500Y-142503750D01*
X58237750Y-142345000D01*
X58206691Y-142345000D01*
X57973302Y-142441673D01*
X57821222Y-142593752D01*
X57705486Y-142615530D01*
X57598990Y-142593964D01*
X57446698Y-142441673D01*
X57213309Y-142345000D01*
X57182250Y-142345000D01*
X57023500Y-142503750D01*
X57023500Y-142758090D01*
X56975141Y-142828866D01*
X56960568Y-142900833D01*
X56948897Y-142838810D01*
X56896500Y-142757382D01*
X56896500Y-142503750D01*
X56737750Y-142345000D01*
X56706691Y-142345000D01*
X56473302Y-142441673D01*
X56321222Y-142593752D01*
X56205486Y-142615530D01*
X56098990Y-142593964D01*
X55946698Y-142441673D01*
X55713309Y-142345000D01*
X55682250Y-142345000D01*
X55523500Y-142503750D01*
X55523500Y-142518475D01*
X55446698Y-142441673D01*
X55255032Y-142362282D01*
X55237750Y-142345000D01*
X55182250Y-142345000D01*
X55164968Y-142362282D01*
X54973302Y-142441673D01*
X54896500Y-142518475D01*
X54896500Y-142503750D01*
X54852725Y-142459975D01*
X54810780Y-142358711D01*
X54801090Y-142335318D01*
X54801089Y-142335317D01*
X54801089Y-142335316D01*
X54692702Y-142173105D01*
X54608830Y-142089234D01*
X54566895Y-142047298D01*
X54404684Y-141938911D01*
X54240305Y-141870822D01*
X54240303Y-141870822D01*
X54048961Y-141832762D01*
X53850911Y-141793368D01*
X53758427Y-141731571D01*
X53696632Y-141639089D01*
X53666000Y-141485089D01*
X53666000Y-133528464D01*
X55770000Y-133528464D01*
X55911190Y-133501897D01*
X56040865Y-133418454D01*
X56127859Y-133291134D01*
X56158464Y-133140000D01*
X56158464Y-131040000D01*
X56131897Y-130898810D01*
X56048454Y-130769135D01*
X55921134Y-130682141D01*
X55770000Y-130651536D01*
X53666000Y-130651536D01*
X53666000Y-129825750D01*
X55735000Y-129825750D01*
X55735000Y-130066310D01*
X55831673Y-130299699D01*
X56010302Y-130478327D01*
X56243691Y-130575000D01*
X56734250Y-130575000D01*
X56893000Y-130416250D01*
X56893000Y-129667000D01*
X55893750Y-129667000D01*
X55735000Y-129825750D01*
X53666000Y-129825750D01*
X53666000Y-124678464D01*
X55770000Y-124678464D01*
X55911190Y-124651897D01*
X56040865Y-124568454D01*
X56127859Y-124441134D01*
X56158464Y-124290000D01*
X56158464Y-122190000D01*
X56131897Y-122048810D01*
X56048454Y-121919135D01*
X55921134Y-121832141D01*
X55770000Y-121801536D01*
X53666000Y-121801536D01*
X53666000Y-65574911D01*
X53696632Y-65420911D01*
X53758427Y-65328429D01*
X53850911Y-65266632D01*
X54004911Y-65236000D01*
X74415089Y-65236000D01*
X74569089Y-65266632D01*
G36*
X63740600Y-122593002D02*
X63899348Y-122593002D01*
X63740600Y-122751750D01*
X63740600Y-123342310D01*
X63837273Y-123575699D01*
X64015902Y-123754327D01*
X64249291Y-123851000D01*
X64369250Y-123851000D01*
X64528000Y-123692250D01*
X64528000Y-122593000D01*
X64508000Y-122593000D01*
X64508000Y-122486000D01*
X64774536Y-122486000D01*
X64774536Y-123216000D01*
X64782000Y-123255667D01*
X64782000Y-123692250D01*
X64915169Y-123825419D01*
X64865479Y-123845950D01*
X64661665Y-124049408D01*
X64551226Y-124315376D01*
X64550975Y-124603361D01*
X64660950Y-124869521D01*
X64864408Y-125073335D01*
X65130376Y-125183774D01*
X65418361Y-125184025D01*
X65442118Y-125174209D01*
X65296665Y-125319408D01*
X65186226Y-125585376D01*
X65185975Y-125873361D01*
X65295950Y-126139521D01*
X65499408Y-126343335D01*
X65765376Y-126453774D01*
X66053361Y-126454025D01*
X66319521Y-126344050D01*
X66523335Y-126140592D01*
X66633774Y-125874624D01*
X66633983Y-125634843D01*
X66663931Y-125590023D01*
X66680938Y-125504521D01*
X66699700Y-125410200D01*
X66699700Y-123851000D01*
X66731450Y-123851000D01*
X66890200Y-123692250D01*
X66890200Y-123252859D01*
X66897664Y-123216000D01*
X66897664Y-122486000D01*
X67136736Y-122486000D01*
X67136736Y-123216000D01*
X67144200Y-123255667D01*
X67144200Y-123692250D01*
X67302950Y-123851000D01*
X67341940Y-123851000D01*
X67360100Y-123942294D01*
X67360100Y-139884246D01*
X67292270Y-139782731D01*
X67014900Y-139505362D01*
X67014900Y-135808776D01*
X67158335Y-135665592D01*
X67268774Y-135399624D01*
X67269025Y-135111639D01*
X67159050Y-134845479D01*
X66955592Y-134641665D01*
X66689624Y-134531226D01*
X66401639Y-134530975D01*
X66135479Y-134640950D01*
X65931665Y-134844408D01*
X65821226Y-135110376D01*
X65820975Y-135398361D01*
X65930950Y-135664521D01*
X66075100Y-135808923D01*
X66075100Y-135809728D01*
X66054624Y-135801226D01*
X65766639Y-135800975D01*
X65500479Y-135910950D01*
X65296665Y-136114408D01*
X65186226Y-136380376D01*
X65185975Y-136668361D01*
X65295950Y-136934521D01*
X65440100Y-137078923D01*
X65440100Y-139700000D01*
X65472940Y-139865100D01*
X65475869Y-139879823D01*
X65577731Y-140032269D01*
X65990100Y-140444639D01*
X65990100Y-142806973D01*
X65975141Y-142828866D01*
X65960568Y-142900833D01*
X65948897Y-142838810D01*
X65929900Y-142809288D01*
X65929900Y-142425000D01*
X65894131Y-142245177D01*
X65880649Y-142225000D01*
X65792270Y-142092731D01*
X64474900Y-140775362D01*
X64474900Y-126283776D01*
X64618335Y-126140592D01*
X64728774Y-125874624D01*
X64729025Y-125586639D01*
X64619050Y-125320479D01*
X64415592Y-125116665D01*
X64149624Y-125006226D01*
X63861639Y-125005975D01*
X63839900Y-125014957D01*
X63839900Y-125013776D01*
X63983335Y-124870592D01*
X64093774Y-124604624D01*
X64094025Y-124316639D01*
X63984050Y-124050479D01*
X63780592Y-123846665D01*
X63514624Y-123736226D01*
X63226639Y-123735975D01*
X62960479Y-123845950D01*
X62872907Y-123933369D01*
X62762700Y-123823162D01*
X62762700Y-123546167D01*
X62843065Y-123494454D01*
X62930059Y-123367134D01*
X62960664Y-123216000D01*
X62960664Y-122486000D01*
X63740600Y-122486000D01*
X63740600Y-122593002D01*
X63740600Y-122593002D01*
G37*
X63740600Y-122593002D02*
X63899348Y-122593002D01*
X63740600Y-122751750D01*
X63740600Y-123342310D01*
X63837273Y-123575699D01*
X64015902Y-123754327D01*
X64249291Y-123851000D01*
X64369250Y-123851000D01*
X64528000Y-123692250D01*
X64528000Y-122593000D01*
X64508000Y-122593000D01*
X64508000Y-122486000D01*
X64774536Y-122486000D01*
X64774536Y-123216000D01*
X64782000Y-123255667D01*
X64782000Y-123692250D01*
X64915169Y-123825419D01*
X64865479Y-123845950D01*
X64661665Y-124049408D01*
X64551226Y-124315376D01*
X64550975Y-124603361D01*
X64660950Y-124869521D01*
X64864408Y-125073335D01*
X65130376Y-125183774D01*
X65418361Y-125184025D01*
X65442118Y-125174209D01*
X65296665Y-125319408D01*
X65186226Y-125585376D01*
X65185975Y-125873361D01*
X65295950Y-126139521D01*
X65499408Y-126343335D01*
X65765376Y-126453774D01*
X66053361Y-126454025D01*
X66319521Y-126344050D01*
X66523335Y-126140592D01*
X66633774Y-125874624D01*
X66633983Y-125634843D01*
X66663931Y-125590023D01*
X66680938Y-125504521D01*
X66699700Y-125410200D01*
X66699700Y-123851000D01*
X66731450Y-123851000D01*
X66890200Y-123692250D01*
X66890200Y-123252859D01*
X66897664Y-123216000D01*
X66897664Y-122486000D01*
X67136736Y-122486000D01*
X67136736Y-123216000D01*
X67144200Y-123255667D01*
X67144200Y-123692250D01*
X67302950Y-123851000D01*
X67341940Y-123851000D01*
X67360100Y-123942294D01*
X67360100Y-139884246D01*
X67292270Y-139782731D01*
X67014900Y-139505362D01*
X67014900Y-135808776D01*
X67158335Y-135665592D01*
X67268774Y-135399624D01*
X67269025Y-135111639D01*
X67159050Y-134845479D01*
X66955592Y-134641665D01*
X66689624Y-134531226D01*
X66401639Y-134530975D01*
X66135479Y-134640950D01*
X65931665Y-134844408D01*
X65821226Y-135110376D01*
X65820975Y-135398361D01*
X65930950Y-135664521D01*
X66075100Y-135808923D01*
X66075100Y-135809728D01*
X66054624Y-135801226D01*
X65766639Y-135800975D01*
X65500479Y-135910950D01*
X65296665Y-136114408D01*
X65186226Y-136380376D01*
X65185975Y-136668361D01*
X65295950Y-136934521D01*
X65440100Y-137078923D01*
X65440100Y-139700000D01*
X65472940Y-139865100D01*
X65475869Y-139879823D01*
X65577731Y-140032269D01*
X65990100Y-140444639D01*
X65990100Y-142806973D01*
X65975141Y-142828866D01*
X65960568Y-142900833D01*
X65948897Y-142838810D01*
X65929900Y-142809288D01*
X65929900Y-142425000D01*
X65894131Y-142245177D01*
X65880649Y-142225000D01*
X65792270Y-142092731D01*
X64474900Y-140775362D01*
X64474900Y-126283776D01*
X64618335Y-126140592D01*
X64728774Y-125874624D01*
X64729025Y-125586639D01*
X64619050Y-125320479D01*
X64415592Y-125116665D01*
X64149624Y-125006226D01*
X63861639Y-125005975D01*
X63839900Y-125014957D01*
X63839900Y-125013776D01*
X63983335Y-124870592D01*
X64093774Y-124604624D01*
X64094025Y-124316639D01*
X63984050Y-124050479D01*
X63780592Y-123846665D01*
X63514624Y-123736226D01*
X63226639Y-123735975D01*
X62960479Y-123845950D01*
X62872907Y-123933369D01*
X62762700Y-123823162D01*
X62762700Y-123546167D01*
X62843065Y-123494454D01*
X62930059Y-123367134D01*
X62960664Y-123216000D01*
X62960664Y-122486000D01*
X63740600Y-122486000D01*
X63740600Y-122593002D01*
G36*
X69498936Y-123216000D02*
X69506400Y-123255667D01*
X69506400Y-123692250D01*
X69665150Y-123851000D01*
X69755639Y-123851000D01*
X69834531Y-123969069D01*
X69885100Y-124019638D01*
X69885100Y-128305173D01*
X69677114Y-128203780D01*
X69481000Y-128327105D01*
X69481000Y-129305000D01*
X69501000Y-129305000D01*
X69501000Y-129559000D01*
X69481000Y-129559000D01*
X69481000Y-130536895D01*
X69677114Y-130660220D01*
X69885100Y-130558827D01*
X69885100Y-133269728D01*
X69864624Y-133261226D01*
X69576639Y-133260975D01*
X69310479Y-133370950D01*
X69106665Y-133574408D01*
X68996226Y-133840376D01*
X68995975Y-134128361D01*
X69105950Y-134394521D01*
X69250100Y-134538923D01*
X69250100Y-137079728D01*
X69229624Y-137071226D01*
X68941639Y-137070975D01*
X68919900Y-137079957D01*
X68919900Y-130606115D01*
X69030886Y-130660220D01*
X69227000Y-130536895D01*
X69227000Y-129559000D01*
X69207000Y-129559000D01*
X69207000Y-129305000D01*
X69227000Y-129305000D01*
X69227000Y-128327105D01*
X69030886Y-128203780D01*
X68919900Y-128257885D01*
X68919900Y-124019639D01*
X68924269Y-124015270D01*
X69026131Y-123862823D01*
X69028483Y-123851000D01*
X69093650Y-123851000D01*
X69252400Y-123692250D01*
X69252400Y-123252859D01*
X69259864Y-123216000D01*
X69259864Y-122486000D01*
X69498936Y-122486000D01*
X69498936Y-123216000D01*
X69498936Y-123216000D01*
G37*
X69498936Y-123216000D02*
X69506400Y-123255667D01*
X69506400Y-123692250D01*
X69665150Y-123851000D01*
X69755639Y-123851000D01*
X69834531Y-123969069D01*
X69885100Y-124019638D01*
X69885100Y-128305173D01*
X69677114Y-128203780D01*
X69481000Y-128327105D01*
X69481000Y-129305000D01*
X69501000Y-129305000D01*
X69501000Y-129559000D01*
X69481000Y-129559000D01*
X69481000Y-130536895D01*
X69677114Y-130660220D01*
X69885100Y-130558827D01*
X69885100Y-133269728D01*
X69864624Y-133261226D01*
X69576639Y-133260975D01*
X69310479Y-133370950D01*
X69106665Y-133574408D01*
X68996226Y-133840376D01*
X68995975Y-134128361D01*
X69105950Y-134394521D01*
X69250100Y-134538923D01*
X69250100Y-137079728D01*
X69229624Y-137071226D01*
X68941639Y-137070975D01*
X68919900Y-137079957D01*
X68919900Y-130606115D01*
X69030886Y-130660220D01*
X69227000Y-130536895D01*
X69227000Y-129559000D01*
X69207000Y-129559000D01*
X69207000Y-129305000D01*
X69227000Y-129305000D01*
X69227000Y-128327105D01*
X69030886Y-128203780D01*
X68919900Y-128257885D01*
X68919900Y-124019639D01*
X68924269Y-124015270D01*
X69026131Y-123862823D01*
X69028483Y-123851000D01*
X69093650Y-123851000D01*
X69252400Y-123692250D01*
X69252400Y-123252859D01*
X69259864Y-123216000D01*
X69259864Y-122486000D01*
X69498936Y-122486000D01*
X69498936Y-123216000D01*
G36*
X71861136Y-123216000D02*
X71868600Y-123255667D01*
X71868600Y-123581226D01*
X71825869Y-123645177D01*
X71790100Y-123825000D01*
X71790100Y-131886815D01*
X71674310Y-131908603D01*
X71544635Y-131992046D01*
X71459900Y-132116060D01*
X71459900Y-123846950D01*
X71614600Y-123692250D01*
X71614600Y-123252859D01*
X71622064Y-123216000D01*
X71622064Y-122486000D01*
X71861136Y-122486000D01*
X71861136Y-123216000D01*
X71861136Y-123216000D01*
G37*
X71861136Y-123216000D02*
X71868600Y-123255667D01*
X71868600Y-123581226D01*
X71825869Y-123645177D01*
X71790100Y-123825000D01*
X71790100Y-131886815D01*
X71674310Y-131908603D01*
X71544635Y-131992046D01*
X71459900Y-132116060D01*
X71459900Y-123846950D01*
X71614600Y-123692250D01*
X71614600Y-123252859D01*
X71622064Y-123216000D01*
X71622064Y-122486000D01*
X71861136Y-122486000D01*
X71861136Y-123216000D01*
G36*
X122569089Y-65266632D02*
X122661571Y-65328427D01*
X122723368Y-65420911D01*
X122754000Y-65574911D01*
X122754000Y-81985089D01*
X122723368Y-82139089D01*
X122661571Y-82231573D01*
X122569089Y-82293368D01*
X122415089Y-82324000D01*
X106460000Y-82324000D01*
X106415950Y-82332762D01*
X106371040Y-82332762D01*
X106084026Y-82389852D01*
X106084025Y-82389852D01*
X106015937Y-82418055D01*
X105919647Y-82457940D01*
X105919646Y-82457941D01*
X105676329Y-82620520D01*
X105613425Y-82683425D01*
X105550520Y-82746329D01*
X105387940Y-82989646D01*
X105341219Y-83102441D01*
X105319852Y-83154026D01*
X105262762Y-83441039D01*
X105262762Y-83485950D01*
X105254000Y-83530000D01*
X105254000Y-121280000D01*
X105262762Y-121324050D01*
X105262762Y-121368961D01*
X105319852Y-121655974D01*
X105319852Y-121655975D01*
X105387940Y-121820354D01*
X105550520Y-122063671D01*
X105613425Y-122126575D01*
X105676329Y-122189480D01*
X105687936Y-122197236D01*
X105687936Y-123216000D01*
X105714503Y-123357190D01*
X105797946Y-123486865D01*
X105885900Y-123546961D01*
X105885900Y-123600233D01*
X105855869Y-123645177D01*
X105820100Y-123825000D01*
X105820100Y-124541224D01*
X105676665Y-124684408D01*
X105566226Y-124950376D01*
X105566181Y-125001536D01*
X104370000Y-125001536D01*
X104228810Y-125028103D01*
X104099135Y-125111546D01*
X104012141Y-125238866D01*
X103981536Y-125390000D01*
X103981536Y-126190000D01*
X104006502Y-126322682D01*
X103894624Y-126276226D01*
X103606639Y-126275975D01*
X103340479Y-126385950D01*
X103136665Y-126589408D01*
X103026226Y-126855376D01*
X103025975Y-127143361D01*
X103135950Y-127409521D01*
X103329888Y-127603798D01*
X103300479Y-127615950D01*
X103096665Y-127819408D01*
X102986226Y-128085376D01*
X102985975Y-128373361D01*
X103095950Y-128639521D01*
X103299408Y-128843335D01*
X103565376Y-128953774D01*
X103759748Y-128953943D01*
X103735000Y-129013690D01*
X103735000Y-129254250D01*
X103893750Y-129413000D01*
X104893000Y-129413000D01*
X104893000Y-129393000D01*
X105147000Y-129393000D01*
X105147000Y-129413000D01*
X105167000Y-129413000D01*
X105167000Y-129667000D01*
X105147000Y-129667000D01*
X105147000Y-130416250D01*
X105305750Y-130575000D01*
X105796309Y-130575000D01*
X105820100Y-130565145D01*
X105820100Y-139781224D01*
X105676665Y-139924408D01*
X105566226Y-140190376D01*
X105565975Y-140478361D01*
X105675950Y-140744521D01*
X105820100Y-140888923D01*
X105820100Y-141051224D01*
X105676665Y-141194408D01*
X105655083Y-141246383D01*
X105634050Y-141195479D01*
X105489900Y-141051077D01*
X105489900Y-136443776D01*
X105633335Y-136300592D01*
X105743774Y-136034624D01*
X105744025Y-135746639D01*
X105634050Y-135480479D01*
X105430592Y-135276665D01*
X105164624Y-135166226D01*
X104876639Y-135165975D01*
X104610479Y-135275950D01*
X104406665Y-135479408D01*
X104296226Y-135745376D01*
X104295975Y-136033361D01*
X104405950Y-136299521D01*
X104550100Y-136443923D01*
X104550100Y-141051224D01*
X104406665Y-141194408D01*
X104296226Y-141460376D01*
X104295975Y-141748361D01*
X104405950Y-142014521D01*
X104609408Y-142218335D01*
X104875376Y-142328774D01*
X105163361Y-142329025D01*
X105429521Y-142219050D01*
X105633335Y-142015592D01*
X105654917Y-141963617D01*
X105675950Y-142014521D01*
X105879408Y-142218335D01*
X106145376Y-142328774D01*
X106433361Y-142329025D01*
X106699521Y-142219050D01*
X106903335Y-142015592D01*
X107013774Y-141749624D01*
X107014025Y-141461639D01*
X106904050Y-141195479D01*
X106759900Y-141051077D01*
X106759900Y-140888776D01*
X106903335Y-140745592D01*
X107013774Y-140479624D01*
X107014025Y-140191639D01*
X106904050Y-139925479D01*
X106759900Y-139781077D01*
X106759900Y-129755112D01*
X106981791Y-129755112D01*
X107113041Y-130072007D01*
X107441462Y-130443077D01*
X107886886Y-130660220D01*
X108083000Y-130536895D01*
X108083000Y-129559000D01*
X107106031Y-129559000D01*
X106981791Y-129755112D01*
X106759900Y-129755112D01*
X106759900Y-125648776D01*
X106903335Y-125505592D01*
X107013774Y-125239624D01*
X107014025Y-124951639D01*
X106904050Y-124685479D01*
X106759900Y-124541077D01*
X106759900Y-124299096D01*
X106810931Y-124375469D01*
X107090100Y-124654639D01*
X107090100Y-127716224D01*
X106946665Y-127859408D01*
X106836226Y-128125376D01*
X106835975Y-128413361D01*
X106945950Y-128679521D01*
X107096967Y-128830802D01*
X106981791Y-129108888D01*
X107106031Y-129305000D01*
X108083000Y-129305000D01*
X108083000Y-129285000D01*
X108337000Y-129285000D01*
X108337000Y-129305000D01*
X108357000Y-129305000D01*
X108357000Y-129559000D01*
X108337000Y-129559000D01*
X108337000Y-130536895D01*
X108533114Y-130660220D01*
X108978538Y-130443077D01*
X108995100Y-130424364D01*
X108995100Y-133431224D01*
X108851665Y-133574408D01*
X108741226Y-133840376D01*
X108740975Y-134128361D01*
X108850950Y-134394521D01*
X109054408Y-134598335D01*
X109320376Y-134708774D01*
X109608361Y-134709025D01*
X109630100Y-134700043D01*
X109630100Y-137876224D01*
X109486665Y-138019408D01*
X109376226Y-138285376D01*
X109375975Y-138573361D01*
X109485950Y-138839521D01*
X109689408Y-139043335D01*
X109955376Y-139153774D01*
X110243361Y-139154025D01*
X110509521Y-139044050D01*
X110713335Y-138840592D01*
X110823774Y-138574624D01*
X110823823Y-138518977D01*
X110878361Y-138519025D01*
X110900100Y-138510043D01*
X110900100Y-140970000D01*
X110922530Y-141082762D01*
X110935869Y-141149823D01*
X111037731Y-141302269D01*
X112117433Y-142381972D01*
X111973302Y-142441673D01*
X111821222Y-142593752D01*
X111705486Y-142615530D01*
X111598990Y-142593964D01*
X111446698Y-142441673D01*
X111213309Y-142345000D01*
X111182250Y-142345000D01*
X111023500Y-142503750D01*
X111023500Y-142758090D01*
X110975141Y-142828866D01*
X110960568Y-142900833D01*
X110948897Y-142838810D01*
X110896500Y-142757382D01*
X110896500Y-142503750D01*
X110737750Y-142345000D01*
X110706691Y-142345000D01*
X110473302Y-142441673D01*
X110321222Y-142593752D01*
X110205486Y-142615530D01*
X110098990Y-142593964D01*
X109946698Y-142441673D01*
X109713309Y-142345000D01*
X109682250Y-142345000D01*
X109523500Y-142503750D01*
X109523500Y-142758090D01*
X109475141Y-142828866D01*
X109460568Y-142900833D01*
X109448897Y-142838810D01*
X109396500Y-142757382D01*
X109396500Y-142503750D01*
X109237750Y-142345000D01*
X109206691Y-142345000D01*
X108973302Y-142441673D01*
X108821222Y-142593752D01*
X108705486Y-142615530D01*
X108598990Y-142593964D01*
X108446698Y-142441673D01*
X108213309Y-142345000D01*
X108182250Y-142345000D01*
X108023500Y-142503750D01*
X108023500Y-142758090D01*
X107975141Y-142828866D01*
X107960568Y-142900833D01*
X107948897Y-142838810D01*
X107896500Y-142757382D01*
X107896500Y-142503750D01*
X107737750Y-142345000D01*
X107706691Y-142345000D01*
X107473302Y-142441673D01*
X107321222Y-142593752D01*
X107205486Y-142615530D01*
X107098990Y-142593964D01*
X106946698Y-142441673D01*
X106713309Y-142345000D01*
X106682250Y-142345000D01*
X106523500Y-142503750D01*
X106523500Y-142758090D01*
X106475141Y-142828866D01*
X106460568Y-142900833D01*
X106448897Y-142838810D01*
X106396500Y-142757382D01*
X106396500Y-142503750D01*
X106237750Y-142345000D01*
X106206691Y-142345000D01*
X105973302Y-142441673D01*
X105821222Y-142593752D01*
X105705486Y-142615530D01*
X105598990Y-142593964D01*
X105446698Y-142441673D01*
X105213309Y-142345000D01*
X105182250Y-142345000D01*
X105023500Y-142503750D01*
X105023500Y-142758090D01*
X104975141Y-142828866D01*
X104960568Y-142900833D01*
X104948897Y-142838810D01*
X104896500Y-142757382D01*
X104896500Y-142503750D01*
X104737750Y-142345000D01*
X104706691Y-142345000D01*
X104473302Y-142441673D01*
X104321222Y-142593752D01*
X104205486Y-142615530D01*
X104098990Y-142593964D01*
X103946698Y-142441673D01*
X103713309Y-142345000D01*
X103682250Y-142345000D01*
X103523500Y-142503750D01*
X103523500Y-142518475D01*
X103446698Y-142441673D01*
X103255032Y-142362282D01*
X103237750Y-142345000D01*
X103182250Y-142345000D01*
X103164968Y-142362282D01*
X102973302Y-142441673D01*
X102896500Y-142518475D01*
X102896500Y-142503750D01*
X102852725Y-142459975D01*
X102810780Y-142358711D01*
X102801090Y-142335318D01*
X102801089Y-142335317D01*
X102801089Y-142335316D01*
X102692702Y-142173105D01*
X102608830Y-142089234D01*
X102566895Y-142047298D01*
X102404684Y-141938911D01*
X102240305Y-141870822D01*
X102240303Y-141870822D01*
X102048961Y-141832762D01*
X101850911Y-141793368D01*
X101758427Y-141731571D01*
X101696632Y-141639089D01*
X101666000Y-141485089D01*
X101666000Y-133528464D01*
X103770000Y-133528464D01*
X103911190Y-133501897D01*
X104040865Y-133418454D01*
X104127859Y-133291134D01*
X104158464Y-133140000D01*
X104158464Y-131040000D01*
X104131897Y-130898810D01*
X104048454Y-130769135D01*
X103921134Y-130682141D01*
X103770000Y-130651536D01*
X101666000Y-130651536D01*
X101666000Y-129825750D01*
X103735000Y-129825750D01*
X103735000Y-130066310D01*
X103831673Y-130299699D01*
X104010302Y-130478327D01*
X104243691Y-130575000D01*
X104734250Y-130575000D01*
X104893000Y-130416250D01*
X104893000Y-129667000D01*
X103893750Y-129667000D01*
X103735000Y-129825750D01*
X101666000Y-129825750D01*
X101666000Y-124678464D01*
X103770000Y-124678464D01*
X103911190Y-124651897D01*
X104040865Y-124568454D01*
X104127859Y-124441134D01*
X104158464Y-124290000D01*
X104158464Y-122190000D01*
X104131897Y-122048810D01*
X104048454Y-121919135D01*
X103921134Y-121832141D01*
X103770000Y-121801536D01*
X101666000Y-121801536D01*
X101666000Y-65574911D01*
X101696632Y-65420911D01*
X101758427Y-65328429D01*
X101850911Y-65266632D01*
X102004911Y-65236000D01*
X122415089Y-65236000D01*
X122569089Y-65266632D01*
X122569089Y-65266632D01*
G37*
X122569089Y-65266632D02*
X122661571Y-65328427D01*
X122723368Y-65420911D01*
X122754000Y-65574911D01*
X122754000Y-81985089D01*
X122723368Y-82139089D01*
X122661571Y-82231573D01*
X122569089Y-82293368D01*
X122415089Y-82324000D01*
X106460000Y-82324000D01*
X106415950Y-82332762D01*
X106371040Y-82332762D01*
X106084026Y-82389852D01*
X106084025Y-82389852D01*
X106015937Y-82418055D01*
X105919647Y-82457940D01*
X105919646Y-82457941D01*
X105676329Y-82620520D01*
X105613425Y-82683425D01*
X105550520Y-82746329D01*
X105387940Y-82989646D01*
X105341219Y-83102441D01*
X105319852Y-83154026D01*
X105262762Y-83441039D01*
X105262762Y-83485950D01*
X105254000Y-83530000D01*
X105254000Y-121280000D01*
X105262762Y-121324050D01*
X105262762Y-121368961D01*
X105319852Y-121655974D01*
X105319852Y-121655975D01*
X105387940Y-121820354D01*
X105550520Y-122063671D01*
X105613425Y-122126575D01*
X105676329Y-122189480D01*
X105687936Y-122197236D01*
X105687936Y-123216000D01*
X105714503Y-123357190D01*
X105797946Y-123486865D01*
X105885900Y-123546961D01*
X105885900Y-123600233D01*
X105855869Y-123645177D01*
X105820100Y-123825000D01*
X105820100Y-124541224D01*
X105676665Y-124684408D01*
X105566226Y-124950376D01*
X105566181Y-125001536D01*
X104370000Y-125001536D01*
X104228810Y-125028103D01*
X104099135Y-125111546D01*
X104012141Y-125238866D01*
X103981536Y-125390000D01*
X103981536Y-126190000D01*
X104006502Y-126322682D01*
X103894624Y-126276226D01*
X103606639Y-126275975D01*
X103340479Y-126385950D01*
X103136665Y-126589408D01*
X103026226Y-126855376D01*
X103025975Y-127143361D01*
X103135950Y-127409521D01*
X103329888Y-127603798D01*
X103300479Y-127615950D01*
X103096665Y-127819408D01*
X102986226Y-128085376D01*
X102985975Y-128373361D01*
X103095950Y-128639521D01*
X103299408Y-128843335D01*
X103565376Y-128953774D01*
X103759748Y-128953943D01*
X103735000Y-129013690D01*
X103735000Y-129254250D01*
X103893750Y-129413000D01*
X104893000Y-129413000D01*
X104893000Y-129393000D01*
X105147000Y-129393000D01*
X105147000Y-129413000D01*
X105167000Y-129413000D01*
X105167000Y-129667000D01*
X105147000Y-129667000D01*
X105147000Y-130416250D01*
X105305750Y-130575000D01*
X105796309Y-130575000D01*
X105820100Y-130565145D01*
X105820100Y-139781224D01*
X105676665Y-139924408D01*
X105566226Y-140190376D01*
X105565975Y-140478361D01*
X105675950Y-140744521D01*
X105820100Y-140888923D01*
X105820100Y-141051224D01*
X105676665Y-141194408D01*
X105655083Y-141246383D01*
X105634050Y-141195479D01*
X105489900Y-141051077D01*
X105489900Y-136443776D01*
X105633335Y-136300592D01*
X105743774Y-136034624D01*
X105744025Y-135746639D01*
X105634050Y-135480479D01*
X105430592Y-135276665D01*
X105164624Y-135166226D01*
X104876639Y-135165975D01*
X104610479Y-135275950D01*
X104406665Y-135479408D01*
X104296226Y-135745376D01*
X104295975Y-136033361D01*
X104405950Y-136299521D01*
X104550100Y-136443923D01*
X104550100Y-141051224D01*
X104406665Y-141194408D01*
X104296226Y-141460376D01*
X104295975Y-141748361D01*
X104405950Y-142014521D01*
X104609408Y-142218335D01*
X104875376Y-142328774D01*
X105163361Y-142329025D01*
X105429521Y-142219050D01*
X105633335Y-142015592D01*
X105654917Y-141963617D01*
X105675950Y-142014521D01*
X105879408Y-142218335D01*
X106145376Y-142328774D01*
X106433361Y-142329025D01*
X106699521Y-142219050D01*
X106903335Y-142015592D01*
X107013774Y-141749624D01*
X107014025Y-141461639D01*
X106904050Y-141195479D01*
X106759900Y-141051077D01*
X106759900Y-140888776D01*
X106903335Y-140745592D01*
X107013774Y-140479624D01*
X107014025Y-140191639D01*
X106904050Y-139925479D01*
X106759900Y-139781077D01*
X106759900Y-129755112D01*
X106981791Y-129755112D01*
X107113041Y-130072007D01*
X107441462Y-130443077D01*
X107886886Y-130660220D01*
X108083000Y-130536895D01*
X108083000Y-129559000D01*
X107106031Y-129559000D01*
X106981791Y-129755112D01*
X106759900Y-129755112D01*
X106759900Y-125648776D01*
X106903335Y-125505592D01*
X107013774Y-125239624D01*
X107014025Y-124951639D01*
X106904050Y-124685479D01*
X106759900Y-124541077D01*
X106759900Y-124299096D01*
X106810931Y-124375469D01*
X107090100Y-124654639D01*
X107090100Y-127716224D01*
X106946665Y-127859408D01*
X106836226Y-128125376D01*
X106835975Y-128413361D01*
X106945950Y-128679521D01*
X107096967Y-128830802D01*
X106981791Y-129108888D01*
X107106031Y-129305000D01*
X108083000Y-129305000D01*
X108083000Y-129285000D01*
X108337000Y-129285000D01*
X108337000Y-129305000D01*
X108357000Y-129305000D01*
X108357000Y-129559000D01*
X108337000Y-129559000D01*
X108337000Y-130536895D01*
X108533114Y-130660220D01*
X108978538Y-130443077D01*
X108995100Y-130424364D01*
X108995100Y-133431224D01*
X108851665Y-133574408D01*
X108741226Y-133840376D01*
X108740975Y-134128361D01*
X108850950Y-134394521D01*
X109054408Y-134598335D01*
X109320376Y-134708774D01*
X109608361Y-134709025D01*
X109630100Y-134700043D01*
X109630100Y-137876224D01*
X109486665Y-138019408D01*
X109376226Y-138285376D01*
X109375975Y-138573361D01*
X109485950Y-138839521D01*
X109689408Y-139043335D01*
X109955376Y-139153774D01*
X110243361Y-139154025D01*
X110509521Y-139044050D01*
X110713335Y-138840592D01*
X110823774Y-138574624D01*
X110823823Y-138518977D01*
X110878361Y-138519025D01*
X110900100Y-138510043D01*
X110900100Y-140970000D01*
X110922530Y-141082762D01*
X110935869Y-141149823D01*
X111037731Y-141302269D01*
X112117433Y-142381972D01*
X111973302Y-142441673D01*
X111821222Y-142593752D01*
X111705486Y-142615530D01*
X111598990Y-142593964D01*
X111446698Y-142441673D01*
X111213309Y-142345000D01*
X111182250Y-142345000D01*
X111023500Y-142503750D01*
X111023500Y-142758090D01*
X110975141Y-142828866D01*
X110960568Y-142900833D01*
X110948897Y-142838810D01*
X110896500Y-142757382D01*
X110896500Y-142503750D01*
X110737750Y-142345000D01*
X110706691Y-142345000D01*
X110473302Y-142441673D01*
X110321222Y-142593752D01*
X110205486Y-142615530D01*
X110098990Y-142593964D01*
X109946698Y-142441673D01*
X109713309Y-142345000D01*
X109682250Y-142345000D01*
X109523500Y-142503750D01*
X109523500Y-142758090D01*
X109475141Y-142828866D01*
X109460568Y-142900833D01*
X109448897Y-142838810D01*
X109396500Y-142757382D01*
X109396500Y-142503750D01*
X109237750Y-142345000D01*
X109206691Y-142345000D01*
X108973302Y-142441673D01*
X108821222Y-142593752D01*
X108705486Y-142615530D01*
X108598990Y-142593964D01*
X108446698Y-142441673D01*
X108213309Y-142345000D01*
X108182250Y-142345000D01*
X108023500Y-142503750D01*
X108023500Y-142758090D01*
X107975141Y-142828866D01*
X107960568Y-142900833D01*
X107948897Y-142838810D01*
X107896500Y-142757382D01*
X107896500Y-142503750D01*
X107737750Y-142345000D01*
X107706691Y-142345000D01*
X107473302Y-142441673D01*
X107321222Y-142593752D01*
X107205486Y-142615530D01*
X107098990Y-142593964D01*
X106946698Y-142441673D01*
X106713309Y-142345000D01*
X106682250Y-142345000D01*
X106523500Y-142503750D01*
X106523500Y-142758090D01*
X106475141Y-142828866D01*
X106460568Y-142900833D01*
X106448897Y-142838810D01*
X106396500Y-142757382D01*
X106396500Y-142503750D01*
X106237750Y-142345000D01*
X106206691Y-142345000D01*
X105973302Y-142441673D01*
X105821222Y-142593752D01*
X105705486Y-142615530D01*
X105598990Y-142593964D01*
X105446698Y-142441673D01*
X105213309Y-142345000D01*
X105182250Y-142345000D01*
X105023500Y-142503750D01*
X105023500Y-142758090D01*
X104975141Y-142828866D01*
X104960568Y-142900833D01*
X104948897Y-142838810D01*
X104896500Y-142757382D01*
X104896500Y-142503750D01*
X104737750Y-142345000D01*
X104706691Y-142345000D01*
X104473302Y-142441673D01*
X104321222Y-142593752D01*
X104205486Y-142615530D01*
X104098990Y-142593964D01*
X103946698Y-142441673D01*
X103713309Y-142345000D01*
X103682250Y-142345000D01*
X103523500Y-142503750D01*
X103523500Y-142518475D01*
X103446698Y-142441673D01*
X103255032Y-142362282D01*
X103237750Y-142345000D01*
X103182250Y-142345000D01*
X103164968Y-142362282D01*
X102973302Y-142441673D01*
X102896500Y-142518475D01*
X102896500Y-142503750D01*
X102852725Y-142459975D01*
X102810780Y-142358711D01*
X102801090Y-142335318D01*
X102801089Y-142335317D01*
X102801089Y-142335316D01*
X102692702Y-142173105D01*
X102608830Y-142089234D01*
X102566895Y-142047298D01*
X102404684Y-141938911D01*
X102240305Y-141870822D01*
X102240303Y-141870822D01*
X102048961Y-141832762D01*
X101850911Y-141793368D01*
X101758427Y-141731571D01*
X101696632Y-141639089D01*
X101666000Y-141485089D01*
X101666000Y-133528464D01*
X103770000Y-133528464D01*
X103911190Y-133501897D01*
X104040865Y-133418454D01*
X104127859Y-133291134D01*
X104158464Y-133140000D01*
X104158464Y-131040000D01*
X104131897Y-130898810D01*
X104048454Y-130769135D01*
X103921134Y-130682141D01*
X103770000Y-130651536D01*
X101666000Y-130651536D01*
X101666000Y-129825750D01*
X103735000Y-129825750D01*
X103735000Y-130066310D01*
X103831673Y-130299699D01*
X104010302Y-130478327D01*
X104243691Y-130575000D01*
X104734250Y-130575000D01*
X104893000Y-130416250D01*
X104893000Y-129667000D01*
X103893750Y-129667000D01*
X103735000Y-129825750D01*
X101666000Y-129825750D01*
X101666000Y-124678464D01*
X103770000Y-124678464D01*
X103911190Y-124651897D01*
X104040865Y-124568454D01*
X104127859Y-124441134D01*
X104158464Y-124290000D01*
X104158464Y-122190000D01*
X104131897Y-122048810D01*
X104048454Y-121919135D01*
X103921134Y-121832141D01*
X103770000Y-121801536D01*
X101666000Y-121801536D01*
X101666000Y-65574911D01*
X101696632Y-65420911D01*
X101758427Y-65328429D01*
X101850911Y-65266632D01*
X102004911Y-65236000D01*
X122415089Y-65236000D01*
X122569089Y-65266632D01*
G36*
X111740600Y-122593002D02*
X111899348Y-122593002D01*
X111740600Y-122751750D01*
X111740600Y-123342310D01*
X111837273Y-123575699D01*
X112015902Y-123754327D01*
X112249291Y-123851000D01*
X112369250Y-123851000D01*
X112528000Y-123692250D01*
X112528000Y-122593000D01*
X112508000Y-122593000D01*
X112508000Y-122486000D01*
X112774536Y-122486000D01*
X112774536Y-123216000D01*
X112782000Y-123255667D01*
X112782000Y-123692250D01*
X112915169Y-123825419D01*
X112865479Y-123845950D01*
X112661665Y-124049408D01*
X112551226Y-124315376D01*
X112550975Y-124603361D01*
X112660950Y-124869521D01*
X112864408Y-125073335D01*
X113130376Y-125183774D01*
X113418361Y-125184025D01*
X113442118Y-125174209D01*
X113296665Y-125319408D01*
X113186226Y-125585376D01*
X113185975Y-125873361D01*
X113295950Y-126139521D01*
X113499408Y-126343335D01*
X113765376Y-126453774D01*
X114053361Y-126454025D01*
X114319521Y-126344050D01*
X114523335Y-126140592D01*
X114633774Y-125874624D01*
X114633983Y-125634843D01*
X114663931Y-125590023D01*
X114680938Y-125504521D01*
X114699700Y-125410200D01*
X114699700Y-123851000D01*
X114731450Y-123851000D01*
X114890200Y-123692250D01*
X114890200Y-123252859D01*
X114897664Y-123216000D01*
X114897664Y-122486000D01*
X115136736Y-122486000D01*
X115136736Y-123216000D01*
X115144200Y-123255667D01*
X115144200Y-123692250D01*
X115302950Y-123851000D01*
X115341940Y-123851000D01*
X115360100Y-123942294D01*
X115360100Y-139884246D01*
X115292270Y-139782731D01*
X115014900Y-139505362D01*
X115014900Y-135808776D01*
X115158335Y-135665592D01*
X115268774Y-135399624D01*
X115269025Y-135111639D01*
X115159050Y-134845479D01*
X114955592Y-134641665D01*
X114689624Y-134531226D01*
X114401639Y-134530975D01*
X114135479Y-134640950D01*
X113931665Y-134844408D01*
X113821226Y-135110376D01*
X113820975Y-135398361D01*
X113930950Y-135664521D01*
X114075100Y-135808923D01*
X114075100Y-135809728D01*
X114054624Y-135801226D01*
X113766639Y-135800975D01*
X113500479Y-135910950D01*
X113296665Y-136114408D01*
X113186226Y-136380376D01*
X113185975Y-136668361D01*
X113295950Y-136934521D01*
X113440100Y-137078923D01*
X113440100Y-139700000D01*
X113472940Y-139865100D01*
X113475869Y-139879823D01*
X113577731Y-140032269D01*
X113990100Y-140444639D01*
X113990100Y-142806973D01*
X113975141Y-142828866D01*
X113960568Y-142900833D01*
X113948897Y-142838810D01*
X113929900Y-142809288D01*
X113929900Y-142425000D01*
X113894131Y-142245177D01*
X113880649Y-142225000D01*
X113792270Y-142092731D01*
X112474900Y-140775362D01*
X112474900Y-126283776D01*
X112618335Y-126140592D01*
X112728774Y-125874624D01*
X112729025Y-125586639D01*
X112619050Y-125320479D01*
X112415592Y-125116665D01*
X112149624Y-125006226D01*
X111861639Y-125005975D01*
X111839900Y-125014957D01*
X111839900Y-125013776D01*
X111983335Y-124870592D01*
X112093774Y-124604624D01*
X112094025Y-124316639D01*
X111984050Y-124050479D01*
X111780592Y-123846665D01*
X111514624Y-123736226D01*
X111226639Y-123735975D01*
X110960479Y-123845950D01*
X110872907Y-123933369D01*
X110762700Y-123823162D01*
X110762700Y-123546167D01*
X110843065Y-123494454D01*
X110930059Y-123367134D01*
X110960664Y-123216000D01*
X110960664Y-122486000D01*
X111740600Y-122486000D01*
X111740600Y-122593002D01*
X111740600Y-122593002D01*
G37*
X111740600Y-122593002D02*
X111899348Y-122593002D01*
X111740600Y-122751750D01*
X111740600Y-123342310D01*
X111837273Y-123575699D01*
X112015902Y-123754327D01*
X112249291Y-123851000D01*
X112369250Y-123851000D01*
X112528000Y-123692250D01*
X112528000Y-122593000D01*
X112508000Y-122593000D01*
X112508000Y-122486000D01*
X112774536Y-122486000D01*
X112774536Y-123216000D01*
X112782000Y-123255667D01*
X112782000Y-123692250D01*
X112915169Y-123825419D01*
X112865479Y-123845950D01*
X112661665Y-124049408D01*
X112551226Y-124315376D01*
X112550975Y-124603361D01*
X112660950Y-124869521D01*
X112864408Y-125073335D01*
X113130376Y-125183774D01*
X113418361Y-125184025D01*
X113442118Y-125174209D01*
X113296665Y-125319408D01*
X113186226Y-125585376D01*
X113185975Y-125873361D01*
X113295950Y-126139521D01*
X113499408Y-126343335D01*
X113765376Y-126453774D01*
X114053361Y-126454025D01*
X114319521Y-126344050D01*
X114523335Y-126140592D01*
X114633774Y-125874624D01*
X114633983Y-125634843D01*
X114663931Y-125590023D01*
X114680938Y-125504521D01*
X114699700Y-125410200D01*
X114699700Y-123851000D01*
X114731450Y-123851000D01*
X114890200Y-123692250D01*
X114890200Y-123252859D01*
X114897664Y-123216000D01*
X114897664Y-122486000D01*
X115136736Y-122486000D01*
X115136736Y-123216000D01*
X115144200Y-123255667D01*
X115144200Y-123692250D01*
X115302950Y-123851000D01*
X115341940Y-123851000D01*
X115360100Y-123942294D01*
X115360100Y-139884246D01*
X115292270Y-139782731D01*
X115014900Y-139505362D01*
X115014900Y-135808776D01*
X115158335Y-135665592D01*
X115268774Y-135399624D01*
X115269025Y-135111639D01*
X115159050Y-134845479D01*
X114955592Y-134641665D01*
X114689624Y-134531226D01*
X114401639Y-134530975D01*
X114135479Y-134640950D01*
X113931665Y-134844408D01*
X113821226Y-135110376D01*
X113820975Y-135398361D01*
X113930950Y-135664521D01*
X114075100Y-135808923D01*
X114075100Y-135809728D01*
X114054624Y-135801226D01*
X113766639Y-135800975D01*
X113500479Y-135910950D01*
X113296665Y-136114408D01*
X113186226Y-136380376D01*
X113185975Y-136668361D01*
X113295950Y-136934521D01*
X113440100Y-137078923D01*
X113440100Y-139700000D01*
X113472940Y-139865100D01*
X113475869Y-139879823D01*
X113577731Y-140032269D01*
X113990100Y-140444639D01*
X113990100Y-142806973D01*
X113975141Y-142828866D01*
X113960568Y-142900833D01*
X113948897Y-142838810D01*
X113929900Y-142809288D01*
X113929900Y-142425000D01*
X113894131Y-142245177D01*
X113880649Y-142225000D01*
X113792270Y-142092731D01*
X112474900Y-140775362D01*
X112474900Y-126283776D01*
X112618335Y-126140592D01*
X112728774Y-125874624D01*
X112729025Y-125586639D01*
X112619050Y-125320479D01*
X112415592Y-125116665D01*
X112149624Y-125006226D01*
X111861639Y-125005975D01*
X111839900Y-125014957D01*
X111839900Y-125013776D01*
X111983335Y-124870592D01*
X112093774Y-124604624D01*
X112094025Y-124316639D01*
X111984050Y-124050479D01*
X111780592Y-123846665D01*
X111514624Y-123736226D01*
X111226639Y-123735975D01*
X110960479Y-123845950D01*
X110872907Y-123933369D01*
X110762700Y-123823162D01*
X110762700Y-123546167D01*
X110843065Y-123494454D01*
X110930059Y-123367134D01*
X110960664Y-123216000D01*
X110960664Y-122486000D01*
X111740600Y-122486000D01*
X111740600Y-122593002D01*
G36*
X117498936Y-123216000D02*
X117506400Y-123255667D01*
X117506400Y-123692250D01*
X117665150Y-123851000D01*
X117755639Y-123851000D01*
X117834531Y-123969069D01*
X117885100Y-124019638D01*
X117885100Y-128305173D01*
X117677114Y-128203780D01*
X117481000Y-128327105D01*
X117481000Y-129305000D01*
X117501000Y-129305000D01*
X117501000Y-129559000D01*
X117481000Y-129559000D01*
X117481000Y-130536895D01*
X117677114Y-130660220D01*
X117885100Y-130558827D01*
X117885100Y-133269728D01*
X117864624Y-133261226D01*
X117576639Y-133260975D01*
X117310479Y-133370950D01*
X117106665Y-133574408D01*
X116996226Y-133840376D01*
X116995975Y-134128361D01*
X117105950Y-134394521D01*
X117250100Y-134538923D01*
X117250100Y-137079728D01*
X117229624Y-137071226D01*
X116941639Y-137070975D01*
X116919900Y-137079957D01*
X116919900Y-130606115D01*
X117030886Y-130660220D01*
X117227000Y-130536895D01*
X117227000Y-129559000D01*
X117207000Y-129559000D01*
X117207000Y-129305000D01*
X117227000Y-129305000D01*
X117227000Y-128327105D01*
X117030886Y-128203780D01*
X116919900Y-128257885D01*
X116919900Y-124019639D01*
X116924269Y-124015270D01*
X117026131Y-123862823D01*
X117028483Y-123851000D01*
X117093650Y-123851000D01*
X117252400Y-123692250D01*
X117252400Y-123252859D01*
X117259864Y-123216000D01*
X117259864Y-122486000D01*
X117498936Y-122486000D01*
X117498936Y-123216000D01*
X117498936Y-123216000D01*
G37*
X117498936Y-123216000D02*
X117506400Y-123255667D01*
X117506400Y-123692250D01*
X117665150Y-123851000D01*
X117755639Y-123851000D01*
X117834531Y-123969069D01*
X117885100Y-124019638D01*
X117885100Y-128305173D01*
X117677114Y-128203780D01*
X117481000Y-128327105D01*
X117481000Y-129305000D01*
X117501000Y-129305000D01*
X117501000Y-129559000D01*
X117481000Y-129559000D01*
X117481000Y-130536895D01*
X117677114Y-130660220D01*
X117885100Y-130558827D01*
X117885100Y-133269728D01*
X117864624Y-133261226D01*
X117576639Y-133260975D01*
X117310479Y-133370950D01*
X117106665Y-133574408D01*
X116996226Y-133840376D01*
X116995975Y-134128361D01*
X117105950Y-134394521D01*
X117250100Y-134538923D01*
X117250100Y-137079728D01*
X117229624Y-137071226D01*
X116941639Y-137070975D01*
X116919900Y-137079957D01*
X116919900Y-130606115D01*
X117030886Y-130660220D01*
X117227000Y-130536895D01*
X117227000Y-129559000D01*
X117207000Y-129559000D01*
X117207000Y-129305000D01*
X117227000Y-129305000D01*
X117227000Y-128327105D01*
X117030886Y-128203780D01*
X116919900Y-128257885D01*
X116919900Y-124019639D01*
X116924269Y-124015270D01*
X117026131Y-123862823D01*
X117028483Y-123851000D01*
X117093650Y-123851000D01*
X117252400Y-123692250D01*
X117252400Y-123252859D01*
X117259864Y-123216000D01*
X117259864Y-122486000D01*
X117498936Y-122486000D01*
X117498936Y-123216000D01*
G36*
X119861136Y-123216000D02*
X119868600Y-123255667D01*
X119868600Y-123581226D01*
X119825869Y-123645177D01*
X119790100Y-123825000D01*
X119790100Y-131886815D01*
X119674310Y-131908603D01*
X119544635Y-131992046D01*
X119459900Y-132116060D01*
X119459900Y-123846950D01*
X119614600Y-123692250D01*
X119614600Y-123252859D01*
X119622064Y-123216000D01*
X119622064Y-122486000D01*
X119861136Y-122486000D01*
X119861136Y-123216000D01*
X119861136Y-123216000D01*
G37*
X119861136Y-123216000D02*
X119868600Y-123255667D01*
X119868600Y-123581226D01*
X119825869Y-123645177D01*
X119790100Y-123825000D01*
X119790100Y-131886815D01*
X119674310Y-131908603D01*
X119544635Y-131992046D01*
X119459900Y-132116060D01*
X119459900Y-123846950D01*
X119614600Y-123692250D01*
X119614600Y-123252859D01*
X119622064Y-123216000D01*
X119622064Y-122486000D01*
X119861136Y-122486000D01*
X119861136Y-123216000D01*
G36*
X98569089Y-65266632D02*
X98661571Y-65328427D01*
X98723368Y-65420911D01*
X98754000Y-65574911D01*
X98754000Y-81985089D01*
X98723368Y-82139089D01*
X98661571Y-82231573D01*
X98569089Y-82293368D01*
X98415089Y-82324000D01*
X82460000Y-82324000D01*
X82415950Y-82332762D01*
X82371040Y-82332762D01*
X82084026Y-82389852D01*
X82084025Y-82389852D01*
X82015937Y-82418055D01*
X81919647Y-82457940D01*
X81919646Y-82457941D01*
X81676329Y-82620520D01*
X81613425Y-82683425D01*
X81550520Y-82746329D01*
X81387940Y-82989646D01*
X81341219Y-83102441D01*
X81319852Y-83154026D01*
X81262762Y-83441039D01*
X81262762Y-83485950D01*
X81254000Y-83530000D01*
X81254000Y-121280000D01*
X81262762Y-121324050D01*
X81262762Y-121368961D01*
X81319852Y-121655974D01*
X81319852Y-121655975D01*
X81387940Y-121820354D01*
X81550520Y-122063671D01*
X81613425Y-122126575D01*
X81676329Y-122189480D01*
X81687936Y-122197236D01*
X81687936Y-123216000D01*
X81714503Y-123357190D01*
X81797946Y-123486865D01*
X81885900Y-123546961D01*
X81885900Y-123600233D01*
X81855869Y-123645177D01*
X81820100Y-123825000D01*
X81820100Y-124541224D01*
X81676665Y-124684408D01*
X81566226Y-124950376D01*
X81566181Y-125001536D01*
X80370000Y-125001536D01*
X80228810Y-125028103D01*
X80099135Y-125111546D01*
X80012141Y-125238866D01*
X79981536Y-125390000D01*
X79981536Y-126190000D01*
X80006502Y-126322682D01*
X79894624Y-126276226D01*
X79606639Y-126275975D01*
X79340479Y-126385950D01*
X79136665Y-126589408D01*
X79026226Y-126855376D01*
X79025975Y-127143361D01*
X79135950Y-127409521D01*
X79329888Y-127603798D01*
X79300479Y-127615950D01*
X79096665Y-127819408D01*
X78986226Y-128085376D01*
X78985975Y-128373361D01*
X79095950Y-128639521D01*
X79299408Y-128843335D01*
X79565376Y-128953774D01*
X79759748Y-128953943D01*
X79735000Y-129013690D01*
X79735000Y-129254250D01*
X79893750Y-129413000D01*
X80893000Y-129413000D01*
X80893000Y-129393000D01*
X81147000Y-129393000D01*
X81147000Y-129413000D01*
X81167000Y-129413000D01*
X81167000Y-129667000D01*
X81147000Y-129667000D01*
X81147000Y-130416250D01*
X81305750Y-130575000D01*
X81796309Y-130575000D01*
X81820100Y-130565145D01*
X81820100Y-139781224D01*
X81676665Y-139924408D01*
X81566226Y-140190376D01*
X81565975Y-140478361D01*
X81675950Y-140744521D01*
X81820100Y-140888923D01*
X81820100Y-141051224D01*
X81676665Y-141194408D01*
X81655083Y-141246383D01*
X81634050Y-141195479D01*
X81489900Y-141051077D01*
X81489900Y-136443776D01*
X81633335Y-136300592D01*
X81743774Y-136034624D01*
X81744025Y-135746639D01*
X81634050Y-135480479D01*
X81430592Y-135276665D01*
X81164624Y-135166226D01*
X80876639Y-135165975D01*
X80610479Y-135275950D01*
X80406665Y-135479408D01*
X80296226Y-135745376D01*
X80295975Y-136033361D01*
X80405950Y-136299521D01*
X80550100Y-136443923D01*
X80550100Y-141051224D01*
X80406665Y-141194408D01*
X80296226Y-141460376D01*
X80295975Y-141748361D01*
X80405950Y-142014521D01*
X80609408Y-142218335D01*
X80875376Y-142328774D01*
X81163361Y-142329025D01*
X81429521Y-142219050D01*
X81633335Y-142015592D01*
X81654917Y-141963617D01*
X81675950Y-142014521D01*
X81879408Y-142218335D01*
X82145376Y-142328774D01*
X82433361Y-142329025D01*
X82699521Y-142219050D01*
X82903335Y-142015592D01*
X83013774Y-141749624D01*
X83014025Y-141461639D01*
X82904050Y-141195479D01*
X82759900Y-141051077D01*
X82759900Y-140888776D01*
X82903335Y-140745592D01*
X83013774Y-140479624D01*
X83014025Y-140191639D01*
X82904050Y-139925479D01*
X82759900Y-139781077D01*
X82759900Y-129755112D01*
X82981791Y-129755112D01*
X83113041Y-130072007D01*
X83441462Y-130443077D01*
X83886886Y-130660220D01*
X84083000Y-130536895D01*
X84083000Y-129559000D01*
X83106031Y-129559000D01*
X82981791Y-129755112D01*
X82759900Y-129755112D01*
X82759900Y-125648776D01*
X82903335Y-125505592D01*
X83013774Y-125239624D01*
X83014025Y-124951639D01*
X82904050Y-124685479D01*
X82759900Y-124541077D01*
X82759900Y-124299096D01*
X82810931Y-124375469D01*
X83090100Y-124654639D01*
X83090100Y-127716224D01*
X82946665Y-127859408D01*
X82836226Y-128125376D01*
X82835975Y-128413361D01*
X82945950Y-128679521D01*
X83096967Y-128830802D01*
X82981791Y-129108888D01*
X83106031Y-129305000D01*
X84083000Y-129305000D01*
X84083000Y-129285000D01*
X84337000Y-129285000D01*
X84337000Y-129305000D01*
X84357000Y-129305000D01*
X84357000Y-129559000D01*
X84337000Y-129559000D01*
X84337000Y-130536895D01*
X84533114Y-130660220D01*
X84978538Y-130443077D01*
X84995100Y-130424364D01*
X84995100Y-133431224D01*
X84851665Y-133574408D01*
X84741226Y-133840376D01*
X84740975Y-134128361D01*
X84850950Y-134394521D01*
X85054408Y-134598335D01*
X85320376Y-134708774D01*
X85608361Y-134709025D01*
X85630100Y-134700043D01*
X85630100Y-137876224D01*
X85486665Y-138019408D01*
X85376226Y-138285376D01*
X85375975Y-138573361D01*
X85485950Y-138839521D01*
X85689408Y-139043335D01*
X85955376Y-139153774D01*
X86243361Y-139154025D01*
X86509521Y-139044050D01*
X86713335Y-138840592D01*
X86823774Y-138574624D01*
X86823823Y-138518977D01*
X86878361Y-138519025D01*
X86900100Y-138510043D01*
X86900100Y-140970000D01*
X86922530Y-141082762D01*
X86935869Y-141149823D01*
X87037731Y-141302269D01*
X88117433Y-142381972D01*
X87973302Y-142441673D01*
X87821222Y-142593752D01*
X87705486Y-142615530D01*
X87598990Y-142593964D01*
X87446698Y-142441673D01*
X87213309Y-142345000D01*
X87182250Y-142345000D01*
X87023500Y-142503750D01*
X87023500Y-142758090D01*
X86975141Y-142828866D01*
X86960568Y-142900833D01*
X86948897Y-142838810D01*
X86896500Y-142757382D01*
X86896500Y-142503750D01*
X86737750Y-142345000D01*
X86706691Y-142345000D01*
X86473302Y-142441673D01*
X86321222Y-142593752D01*
X86205486Y-142615530D01*
X86098990Y-142593964D01*
X85946698Y-142441673D01*
X85713309Y-142345000D01*
X85682250Y-142345000D01*
X85523500Y-142503750D01*
X85523500Y-142758090D01*
X85475141Y-142828866D01*
X85460568Y-142900833D01*
X85448897Y-142838810D01*
X85396500Y-142757382D01*
X85396500Y-142503750D01*
X85237750Y-142345000D01*
X85206691Y-142345000D01*
X84973302Y-142441673D01*
X84821222Y-142593752D01*
X84705486Y-142615530D01*
X84598990Y-142593964D01*
X84446698Y-142441673D01*
X84213309Y-142345000D01*
X84182250Y-142345000D01*
X84023500Y-142503750D01*
X84023500Y-142758090D01*
X83975141Y-142828866D01*
X83960568Y-142900833D01*
X83948897Y-142838810D01*
X83896500Y-142757382D01*
X83896500Y-142503750D01*
X83737750Y-142345000D01*
X83706691Y-142345000D01*
X83473302Y-142441673D01*
X83321222Y-142593752D01*
X83205486Y-142615530D01*
X83098990Y-142593964D01*
X82946698Y-142441673D01*
X82713309Y-142345000D01*
X82682250Y-142345000D01*
X82523500Y-142503750D01*
X82523500Y-142758090D01*
X82475141Y-142828866D01*
X82460568Y-142900833D01*
X82448897Y-142838810D01*
X82396500Y-142757382D01*
X82396500Y-142503750D01*
X82237750Y-142345000D01*
X82206691Y-142345000D01*
X81973302Y-142441673D01*
X81821222Y-142593752D01*
X81705486Y-142615530D01*
X81598990Y-142593964D01*
X81446698Y-142441673D01*
X81213309Y-142345000D01*
X81182250Y-142345000D01*
X81023500Y-142503750D01*
X81023500Y-142758090D01*
X80975141Y-142828866D01*
X80960568Y-142900833D01*
X80948897Y-142838810D01*
X80896500Y-142757382D01*
X80896500Y-142503750D01*
X80737750Y-142345000D01*
X80706691Y-142345000D01*
X80473302Y-142441673D01*
X80321222Y-142593752D01*
X80205486Y-142615530D01*
X80098990Y-142593964D01*
X79946698Y-142441673D01*
X79713309Y-142345000D01*
X79682250Y-142345000D01*
X79523500Y-142503750D01*
X79523500Y-142518475D01*
X79446698Y-142441673D01*
X79255032Y-142362282D01*
X79237750Y-142345000D01*
X79182250Y-142345000D01*
X79164968Y-142362282D01*
X78973302Y-142441673D01*
X78896500Y-142518475D01*
X78896500Y-142503750D01*
X78852725Y-142459975D01*
X78810780Y-142358711D01*
X78801090Y-142335318D01*
X78801089Y-142335317D01*
X78801089Y-142335316D01*
X78692702Y-142173105D01*
X78608830Y-142089234D01*
X78566895Y-142047298D01*
X78404684Y-141938911D01*
X78240305Y-141870822D01*
X78240303Y-141870822D01*
X78048961Y-141832762D01*
X77850911Y-141793368D01*
X77758427Y-141731571D01*
X77696632Y-141639089D01*
X77666000Y-141485089D01*
X77666000Y-133528464D01*
X79770000Y-133528464D01*
X79911190Y-133501897D01*
X80040865Y-133418454D01*
X80127859Y-133291134D01*
X80158464Y-133140000D01*
X80158464Y-131040000D01*
X80131897Y-130898810D01*
X80048454Y-130769135D01*
X79921134Y-130682141D01*
X79770000Y-130651536D01*
X77666000Y-130651536D01*
X77666000Y-129825750D01*
X79735000Y-129825750D01*
X79735000Y-130066310D01*
X79831673Y-130299699D01*
X80010302Y-130478327D01*
X80243691Y-130575000D01*
X80734250Y-130575000D01*
X80893000Y-130416250D01*
X80893000Y-129667000D01*
X79893750Y-129667000D01*
X79735000Y-129825750D01*
X77666000Y-129825750D01*
X77666000Y-124678464D01*
X79770000Y-124678464D01*
X79911190Y-124651897D01*
X80040865Y-124568454D01*
X80127859Y-124441134D01*
X80158464Y-124290000D01*
X80158464Y-122190000D01*
X80131897Y-122048810D01*
X80048454Y-121919135D01*
X79921134Y-121832141D01*
X79770000Y-121801536D01*
X77666000Y-121801536D01*
X77666000Y-65574911D01*
X77696632Y-65420911D01*
X77758427Y-65328429D01*
X77850911Y-65266632D01*
X78004911Y-65236000D01*
X98415089Y-65236000D01*
X98569089Y-65266632D01*
X98569089Y-65266632D01*
G37*
X98569089Y-65266632D02*
X98661571Y-65328427D01*
X98723368Y-65420911D01*
X98754000Y-65574911D01*
X98754000Y-81985089D01*
X98723368Y-82139089D01*
X98661571Y-82231573D01*
X98569089Y-82293368D01*
X98415089Y-82324000D01*
X82460000Y-82324000D01*
X82415950Y-82332762D01*
X82371040Y-82332762D01*
X82084026Y-82389852D01*
X82084025Y-82389852D01*
X82015937Y-82418055D01*
X81919647Y-82457940D01*
X81919646Y-82457941D01*
X81676329Y-82620520D01*
X81613425Y-82683425D01*
X81550520Y-82746329D01*
X81387940Y-82989646D01*
X81341219Y-83102441D01*
X81319852Y-83154026D01*
X81262762Y-83441039D01*
X81262762Y-83485950D01*
X81254000Y-83530000D01*
X81254000Y-121280000D01*
X81262762Y-121324050D01*
X81262762Y-121368961D01*
X81319852Y-121655974D01*
X81319852Y-121655975D01*
X81387940Y-121820354D01*
X81550520Y-122063671D01*
X81613425Y-122126575D01*
X81676329Y-122189480D01*
X81687936Y-122197236D01*
X81687936Y-123216000D01*
X81714503Y-123357190D01*
X81797946Y-123486865D01*
X81885900Y-123546961D01*
X81885900Y-123600233D01*
X81855869Y-123645177D01*
X81820100Y-123825000D01*
X81820100Y-124541224D01*
X81676665Y-124684408D01*
X81566226Y-124950376D01*
X81566181Y-125001536D01*
X80370000Y-125001536D01*
X80228810Y-125028103D01*
X80099135Y-125111546D01*
X80012141Y-125238866D01*
X79981536Y-125390000D01*
X79981536Y-126190000D01*
X80006502Y-126322682D01*
X79894624Y-126276226D01*
X79606639Y-126275975D01*
X79340479Y-126385950D01*
X79136665Y-126589408D01*
X79026226Y-126855376D01*
X79025975Y-127143361D01*
X79135950Y-127409521D01*
X79329888Y-127603798D01*
X79300479Y-127615950D01*
X79096665Y-127819408D01*
X78986226Y-128085376D01*
X78985975Y-128373361D01*
X79095950Y-128639521D01*
X79299408Y-128843335D01*
X79565376Y-128953774D01*
X79759748Y-128953943D01*
X79735000Y-129013690D01*
X79735000Y-129254250D01*
X79893750Y-129413000D01*
X80893000Y-129413000D01*
X80893000Y-129393000D01*
X81147000Y-129393000D01*
X81147000Y-129413000D01*
X81167000Y-129413000D01*
X81167000Y-129667000D01*
X81147000Y-129667000D01*
X81147000Y-130416250D01*
X81305750Y-130575000D01*
X81796309Y-130575000D01*
X81820100Y-130565145D01*
X81820100Y-139781224D01*
X81676665Y-139924408D01*
X81566226Y-140190376D01*
X81565975Y-140478361D01*
X81675950Y-140744521D01*
X81820100Y-140888923D01*
X81820100Y-141051224D01*
X81676665Y-141194408D01*
X81655083Y-141246383D01*
X81634050Y-141195479D01*
X81489900Y-141051077D01*
X81489900Y-136443776D01*
X81633335Y-136300592D01*
X81743774Y-136034624D01*
X81744025Y-135746639D01*
X81634050Y-135480479D01*
X81430592Y-135276665D01*
X81164624Y-135166226D01*
X80876639Y-135165975D01*
X80610479Y-135275950D01*
X80406665Y-135479408D01*
X80296226Y-135745376D01*
X80295975Y-136033361D01*
X80405950Y-136299521D01*
X80550100Y-136443923D01*
X80550100Y-141051224D01*
X80406665Y-141194408D01*
X80296226Y-141460376D01*
X80295975Y-141748361D01*
X80405950Y-142014521D01*
X80609408Y-142218335D01*
X80875376Y-142328774D01*
X81163361Y-142329025D01*
X81429521Y-142219050D01*
X81633335Y-142015592D01*
X81654917Y-141963617D01*
X81675950Y-142014521D01*
X81879408Y-142218335D01*
X82145376Y-142328774D01*
X82433361Y-142329025D01*
X82699521Y-142219050D01*
X82903335Y-142015592D01*
X83013774Y-141749624D01*
X83014025Y-141461639D01*
X82904050Y-141195479D01*
X82759900Y-141051077D01*
X82759900Y-140888776D01*
X82903335Y-140745592D01*
X83013774Y-140479624D01*
X83014025Y-140191639D01*
X82904050Y-139925479D01*
X82759900Y-139781077D01*
X82759900Y-129755112D01*
X82981791Y-129755112D01*
X83113041Y-130072007D01*
X83441462Y-130443077D01*
X83886886Y-130660220D01*
X84083000Y-130536895D01*
X84083000Y-129559000D01*
X83106031Y-129559000D01*
X82981791Y-129755112D01*
X82759900Y-129755112D01*
X82759900Y-125648776D01*
X82903335Y-125505592D01*
X83013774Y-125239624D01*
X83014025Y-124951639D01*
X82904050Y-124685479D01*
X82759900Y-124541077D01*
X82759900Y-124299096D01*
X82810931Y-124375469D01*
X83090100Y-124654639D01*
X83090100Y-127716224D01*
X82946665Y-127859408D01*
X82836226Y-128125376D01*
X82835975Y-128413361D01*
X82945950Y-128679521D01*
X83096967Y-128830802D01*
X82981791Y-129108888D01*
X83106031Y-129305000D01*
X84083000Y-129305000D01*
X84083000Y-129285000D01*
X84337000Y-129285000D01*
X84337000Y-129305000D01*
X84357000Y-129305000D01*
X84357000Y-129559000D01*
X84337000Y-129559000D01*
X84337000Y-130536895D01*
X84533114Y-130660220D01*
X84978538Y-130443077D01*
X84995100Y-130424364D01*
X84995100Y-133431224D01*
X84851665Y-133574408D01*
X84741226Y-133840376D01*
X84740975Y-134128361D01*
X84850950Y-134394521D01*
X85054408Y-134598335D01*
X85320376Y-134708774D01*
X85608361Y-134709025D01*
X85630100Y-134700043D01*
X85630100Y-137876224D01*
X85486665Y-138019408D01*
X85376226Y-138285376D01*
X85375975Y-138573361D01*
X85485950Y-138839521D01*
X85689408Y-139043335D01*
X85955376Y-139153774D01*
X86243361Y-139154025D01*
X86509521Y-139044050D01*
X86713335Y-138840592D01*
X86823774Y-138574624D01*
X86823823Y-138518977D01*
X86878361Y-138519025D01*
X86900100Y-138510043D01*
X86900100Y-140970000D01*
X86922530Y-141082762D01*
X86935869Y-141149823D01*
X87037731Y-141302269D01*
X88117433Y-142381972D01*
X87973302Y-142441673D01*
X87821222Y-142593752D01*
X87705486Y-142615530D01*
X87598990Y-142593964D01*
X87446698Y-142441673D01*
X87213309Y-142345000D01*
X87182250Y-142345000D01*
X87023500Y-142503750D01*
X87023500Y-142758090D01*
X86975141Y-142828866D01*
X86960568Y-142900833D01*
X86948897Y-142838810D01*
X86896500Y-142757382D01*
X86896500Y-142503750D01*
X86737750Y-142345000D01*
X86706691Y-142345000D01*
X86473302Y-142441673D01*
X86321222Y-142593752D01*
X86205486Y-142615530D01*
X86098990Y-142593964D01*
X85946698Y-142441673D01*
X85713309Y-142345000D01*
X85682250Y-142345000D01*
X85523500Y-142503750D01*
X85523500Y-142758090D01*
X85475141Y-142828866D01*
X85460568Y-142900833D01*
X85448897Y-142838810D01*
X85396500Y-142757382D01*
X85396500Y-142503750D01*
X85237750Y-142345000D01*
X85206691Y-142345000D01*
X84973302Y-142441673D01*
X84821222Y-142593752D01*
X84705486Y-142615530D01*
X84598990Y-142593964D01*
X84446698Y-142441673D01*
X84213309Y-142345000D01*
X84182250Y-142345000D01*
X84023500Y-142503750D01*
X84023500Y-142758090D01*
X83975141Y-142828866D01*
X83960568Y-142900833D01*
X83948897Y-142838810D01*
X83896500Y-142757382D01*
X83896500Y-142503750D01*
X83737750Y-142345000D01*
X83706691Y-142345000D01*
X83473302Y-142441673D01*
X83321222Y-142593752D01*
X83205486Y-142615530D01*
X83098990Y-142593964D01*
X82946698Y-142441673D01*
X82713309Y-142345000D01*
X82682250Y-142345000D01*
X82523500Y-142503750D01*
X82523500Y-142758090D01*
X82475141Y-142828866D01*
X82460568Y-142900833D01*
X82448897Y-142838810D01*
X82396500Y-142757382D01*
X82396500Y-142503750D01*
X82237750Y-142345000D01*
X82206691Y-142345000D01*
X81973302Y-142441673D01*
X81821222Y-142593752D01*
X81705486Y-142615530D01*
X81598990Y-142593964D01*
X81446698Y-142441673D01*
X81213309Y-142345000D01*
X81182250Y-142345000D01*
X81023500Y-142503750D01*
X81023500Y-142758090D01*
X80975141Y-142828866D01*
X80960568Y-142900833D01*
X80948897Y-142838810D01*
X80896500Y-142757382D01*
X80896500Y-142503750D01*
X80737750Y-142345000D01*
X80706691Y-142345000D01*
X80473302Y-142441673D01*
X80321222Y-142593752D01*
X80205486Y-142615530D01*
X80098990Y-142593964D01*
X79946698Y-142441673D01*
X79713309Y-142345000D01*
X79682250Y-142345000D01*
X79523500Y-142503750D01*
X79523500Y-142518475D01*
X79446698Y-142441673D01*
X79255032Y-142362282D01*
X79237750Y-142345000D01*
X79182250Y-142345000D01*
X79164968Y-142362282D01*
X78973302Y-142441673D01*
X78896500Y-142518475D01*
X78896500Y-142503750D01*
X78852725Y-142459975D01*
X78810780Y-142358711D01*
X78801090Y-142335318D01*
X78801089Y-142335317D01*
X78801089Y-142335316D01*
X78692702Y-142173105D01*
X78608830Y-142089234D01*
X78566895Y-142047298D01*
X78404684Y-141938911D01*
X78240305Y-141870822D01*
X78240303Y-141870822D01*
X78048961Y-141832762D01*
X77850911Y-141793368D01*
X77758427Y-141731571D01*
X77696632Y-141639089D01*
X77666000Y-141485089D01*
X77666000Y-133528464D01*
X79770000Y-133528464D01*
X79911190Y-133501897D01*
X80040865Y-133418454D01*
X80127859Y-133291134D01*
X80158464Y-133140000D01*
X80158464Y-131040000D01*
X80131897Y-130898810D01*
X80048454Y-130769135D01*
X79921134Y-130682141D01*
X79770000Y-130651536D01*
X77666000Y-130651536D01*
X77666000Y-129825750D01*
X79735000Y-129825750D01*
X79735000Y-130066310D01*
X79831673Y-130299699D01*
X80010302Y-130478327D01*
X80243691Y-130575000D01*
X80734250Y-130575000D01*
X80893000Y-130416250D01*
X80893000Y-129667000D01*
X79893750Y-129667000D01*
X79735000Y-129825750D01*
X77666000Y-129825750D01*
X77666000Y-124678464D01*
X79770000Y-124678464D01*
X79911190Y-124651897D01*
X80040865Y-124568454D01*
X80127859Y-124441134D01*
X80158464Y-124290000D01*
X80158464Y-122190000D01*
X80131897Y-122048810D01*
X80048454Y-121919135D01*
X79921134Y-121832141D01*
X79770000Y-121801536D01*
X77666000Y-121801536D01*
X77666000Y-65574911D01*
X77696632Y-65420911D01*
X77758427Y-65328429D01*
X77850911Y-65266632D01*
X78004911Y-65236000D01*
X98415089Y-65236000D01*
X98569089Y-65266632D01*
G36*
X87740600Y-122593002D02*
X87899348Y-122593002D01*
X87740600Y-122751750D01*
X87740600Y-123342310D01*
X87837273Y-123575699D01*
X88015902Y-123754327D01*
X88249291Y-123851000D01*
X88369250Y-123851000D01*
X88528000Y-123692250D01*
X88528000Y-122593000D01*
X88508000Y-122593000D01*
X88508000Y-122486000D01*
X88774536Y-122486000D01*
X88774536Y-123216000D01*
X88782000Y-123255667D01*
X88782000Y-123692250D01*
X88915169Y-123825419D01*
X88865479Y-123845950D01*
X88661665Y-124049408D01*
X88551226Y-124315376D01*
X88550975Y-124603361D01*
X88660950Y-124869521D01*
X88864408Y-125073335D01*
X89130376Y-125183774D01*
X89418361Y-125184025D01*
X89442118Y-125174209D01*
X89296665Y-125319408D01*
X89186226Y-125585376D01*
X89185975Y-125873361D01*
X89295950Y-126139521D01*
X89499408Y-126343335D01*
X89765376Y-126453774D01*
X90053361Y-126454025D01*
X90319521Y-126344050D01*
X90523335Y-126140592D01*
X90633774Y-125874624D01*
X90633983Y-125634843D01*
X90663931Y-125590023D01*
X90680938Y-125504521D01*
X90699700Y-125410200D01*
X90699700Y-123851000D01*
X90731450Y-123851000D01*
X90890200Y-123692250D01*
X90890200Y-123252859D01*
X90897664Y-123216000D01*
X90897664Y-122486000D01*
X91136736Y-122486000D01*
X91136736Y-123216000D01*
X91144200Y-123255667D01*
X91144200Y-123692250D01*
X91302950Y-123851000D01*
X91341940Y-123851000D01*
X91360100Y-123942294D01*
X91360100Y-139884246D01*
X91292270Y-139782731D01*
X91014900Y-139505362D01*
X91014900Y-135808776D01*
X91158335Y-135665592D01*
X91268774Y-135399624D01*
X91269025Y-135111639D01*
X91159050Y-134845479D01*
X90955592Y-134641665D01*
X90689624Y-134531226D01*
X90401639Y-134530975D01*
X90135479Y-134640950D01*
X89931665Y-134844408D01*
X89821226Y-135110376D01*
X89820975Y-135398361D01*
X89930950Y-135664521D01*
X90075100Y-135808923D01*
X90075100Y-135809728D01*
X90054624Y-135801226D01*
X89766639Y-135800975D01*
X89500479Y-135910950D01*
X89296665Y-136114408D01*
X89186226Y-136380376D01*
X89185975Y-136668361D01*
X89295950Y-136934521D01*
X89440100Y-137078923D01*
X89440100Y-139700000D01*
X89472940Y-139865100D01*
X89475869Y-139879823D01*
X89577731Y-140032269D01*
X89990100Y-140444639D01*
X89990100Y-142806973D01*
X89975141Y-142828866D01*
X89960568Y-142900833D01*
X89948897Y-142838810D01*
X89929900Y-142809288D01*
X89929900Y-142425000D01*
X89894131Y-142245177D01*
X89880649Y-142225000D01*
X89792270Y-142092731D01*
X88474900Y-140775362D01*
X88474900Y-126283776D01*
X88618335Y-126140592D01*
X88728774Y-125874624D01*
X88729025Y-125586639D01*
X88619050Y-125320479D01*
X88415592Y-125116665D01*
X88149624Y-125006226D01*
X87861639Y-125005975D01*
X87839900Y-125014957D01*
X87839900Y-125013776D01*
X87983335Y-124870592D01*
X88093774Y-124604624D01*
X88094025Y-124316639D01*
X87984050Y-124050479D01*
X87780592Y-123846665D01*
X87514624Y-123736226D01*
X87226639Y-123735975D01*
X86960479Y-123845950D01*
X86872907Y-123933369D01*
X86762700Y-123823162D01*
X86762700Y-123546167D01*
X86843065Y-123494454D01*
X86930059Y-123367134D01*
X86960664Y-123216000D01*
X86960664Y-122486000D01*
X87740600Y-122486000D01*
X87740600Y-122593002D01*
X87740600Y-122593002D01*
G37*
X87740600Y-122593002D02*
X87899348Y-122593002D01*
X87740600Y-122751750D01*
X87740600Y-123342310D01*
X87837273Y-123575699D01*
X88015902Y-123754327D01*
X88249291Y-123851000D01*
X88369250Y-123851000D01*
X88528000Y-123692250D01*
X88528000Y-122593000D01*
X88508000Y-122593000D01*
X88508000Y-122486000D01*
X88774536Y-122486000D01*
X88774536Y-123216000D01*
X88782000Y-123255667D01*
X88782000Y-123692250D01*
X88915169Y-123825419D01*
X88865479Y-123845950D01*
X88661665Y-124049408D01*
X88551226Y-124315376D01*
X88550975Y-124603361D01*
X88660950Y-124869521D01*
X88864408Y-125073335D01*
X89130376Y-125183774D01*
X89418361Y-125184025D01*
X89442118Y-125174209D01*
X89296665Y-125319408D01*
X89186226Y-125585376D01*
X89185975Y-125873361D01*
X89295950Y-126139521D01*
X89499408Y-126343335D01*
X89765376Y-126453774D01*
X90053361Y-126454025D01*
X90319521Y-126344050D01*
X90523335Y-126140592D01*
X90633774Y-125874624D01*
X90633983Y-125634843D01*
X90663931Y-125590023D01*
X90680938Y-125504521D01*
X90699700Y-125410200D01*
X90699700Y-123851000D01*
X90731450Y-123851000D01*
X90890200Y-123692250D01*
X90890200Y-123252859D01*
X90897664Y-123216000D01*
X90897664Y-122486000D01*
X91136736Y-122486000D01*
X91136736Y-123216000D01*
X91144200Y-123255667D01*
X91144200Y-123692250D01*
X91302950Y-123851000D01*
X91341940Y-123851000D01*
X91360100Y-123942294D01*
X91360100Y-139884246D01*
X91292270Y-139782731D01*
X91014900Y-139505362D01*
X91014900Y-135808776D01*
X91158335Y-135665592D01*
X91268774Y-135399624D01*
X91269025Y-135111639D01*
X91159050Y-134845479D01*
X90955592Y-134641665D01*
X90689624Y-134531226D01*
X90401639Y-134530975D01*
X90135479Y-134640950D01*
X89931665Y-134844408D01*
X89821226Y-135110376D01*
X89820975Y-135398361D01*
X89930950Y-135664521D01*
X90075100Y-135808923D01*
X90075100Y-135809728D01*
X90054624Y-135801226D01*
X89766639Y-135800975D01*
X89500479Y-135910950D01*
X89296665Y-136114408D01*
X89186226Y-136380376D01*
X89185975Y-136668361D01*
X89295950Y-136934521D01*
X89440100Y-137078923D01*
X89440100Y-139700000D01*
X89472940Y-139865100D01*
X89475869Y-139879823D01*
X89577731Y-140032269D01*
X89990100Y-140444639D01*
X89990100Y-142806973D01*
X89975141Y-142828866D01*
X89960568Y-142900833D01*
X89948897Y-142838810D01*
X89929900Y-142809288D01*
X89929900Y-142425000D01*
X89894131Y-142245177D01*
X89880649Y-142225000D01*
X89792270Y-142092731D01*
X88474900Y-140775362D01*
X88474900Y-126283776D01*
X88618335Y-126140592D01*
X88728774Y-125874624D01*
X88729025Y-125586639D01*
X88619050Y-125320479D01*
X88415592Y-125116665D01*
X88149624Y-125006226D01*
X87861639Y-125005975D01*
X87839900Y-125014957D01*
X87839900Y-125013776D01*
X87983335Y-124870592D01*
X88093774Y-124604624D01*
X88094025Y-124316639D01*
X87984050Y-124050479D01*
X87780592Y-123846665D01*
X87514624Y-123736226D01*
X87226639Y-123735975D01*
X86960479Y-123845950D01*
X86872907Y-123933369D01*
X86762700Y-123823162D01*
X86762700Y-123546167D01*
X86843065Y-123494454D01*
X86930059Y-123367134D01*
X86960664Y-123216000D01*
X86960664Y-122486000D01*
X87740600Y-122486000D01*
X87740600Y-122593002D01*
G36*
X93498936Y-123216000D02*
X93506400Y-123255667D01*
X93506400Y-123692250D01*
X93665150Y-123851000D01*
X93755639Y-123851000D01*
X93834531Y-123969069D01*
X93885100Y-124019638D01*
X93885100Y-128305173D01*
X93677114Y-128203780D01*
X93481000Y-128327105D01*
X93481000Y-129305000D01*
X93501000Y-129305000D01*
X93501000Y-129559000D01*
X93481000Y-129559000D01*
X93481000Y-130536895D01*
X93677114Y-130660220D01*
X93885100Y-130558827D01*
X93885100Y-133269728D01*
X93864624Y-133261226D01*
X93576639Y-133260975D01*
X93310479Y-133370950D01*
X93106665Y-133574408D01*
X92996226Y-133840376D01*
X92995975Y-134128361D01*
X93105950Y-134394521D01*
X93250100Y-134538923D01*
X93250100Y-137079728D01*
X93229624Y-137071226D01*
X92941639Y-137070975D01*
X92919900Y-137079957D01*
X92919900Y-130606115D01*
X93030886Y-130660220D01*
X93227000Y-130536895D01*
X93227000Y-129559000D01*
X93207000Y-129559000D01*
X93207000Y-129305000D01*
X93227000Y-129305000D01*
X93227000Y-128327105D01*
X93030886Y-128203780D01*
X92919900Y-128257885D01*
X92919900Y-124019639D01*
X92924269Y-124015270D01*
X93026131Y-123862823D01*
X93028483Y-123851000D01*
X93093650Y-123851000D01*
X93252400Y-123692250D01*
X93252400Y-123252859D01*
X93259864Y-123216000D01*
X93259864Y-122486000D01*
X93498936Y-122486000D01*
X93498936Y-123216000D01*
X93498936Y-123216000D01*
G37*
X93498936Y-123216000D02*
X93506400Y-123255667D01*
X93506400Y-123692250D01*
X93665150Y-123851000D01*
X93755639Y-123851000D01*
X93834531Y-123969069D01*
X93885100Y-124019638D01*
X93885100Y-128305173D01*
X93677114Y-128203780D01*
X93481000Y-128327105D01*
X93481000Y-129305000D01*
X93501000Y-129305000D01*
X93501000Y-129559000D01*
X93481000Y-129559000D01*
X93481000Y-130536895D01*
X93677114Y-130660220D01*
X93885100Y-130558827D01*
X93885100Y-133269728D01*
X93864624Y-133261226D01*
X93576639Y-133260975D01*
X93310479Y-133370950D01*
X93106665Y-133574408D01*
X92996226Y-133840376D01*
X92995975Y-134128361D01*
X93105950Y-134394521D01*
X93250100Y-134538923D01*
X93250100Y-137079728D01*
X93229624Y-137071226D01*
X92941639Y-137070975D01*
X92919900Y-137079957D01*
X92919900Y-130606115D01*
X93030886Y-130660220D01*
X93227000Y-130536895D01*
X93227000Y-129559000D01*
X93207000Y-129559000D01*
X93207000Y-129305000D01*
X93227000Y-129305000D01*
X93227000Y-128327105D01*
X93030886Y-128203780D01*
X92919900Y-128257885D01*
X92919900Y-124019639D01*
X92924269Y-124015270D01*
X93026131Y-123862823D01*
X93028483Y-123851000D01*
X93093650Y-123851000D01*
X93252400Y-123692250D01*
X93252400Y-123252859D01*
X93259864Y-123216000D01*
X93259864Y-122486000D01*
X93498936Y-122486000D01*
X93498936Y-123216000D01*
G36*
X95861136Y-123216000D02*
X95868600Y-123255667D01*
X95868600Y-123581226D01*
X95825869Y-123645177D01*
X95790100Y-123825000D01*
X95790100Y-131886815D01*
X95674310Y-131908603D01*
X95544635Y-131992046D01*
X95459900Y-132116060D01*
X95459900Y-123846950D01*
X95614600Y-123692250D01*
X95614600Y-123252859D01*
X95622064Y-123216000D01*
X95622064Y-122486000D01*
X95861136Y-122486000D01*
X95861136Y-123216000D01*
X95861136Y-123216000D01*
G37*
X95861136Y-123216000D02*
X95868600Y-123255667D01*
X95868600Y-123581226D01*
X95825869Y-123645177D01*
X95790100Y-123825000D01*
X95790100Y-131886815D01*
X95674310Y-131908603D01*
X95544635Y-131992046D01*
X95459900Y-132116060D01*
X95459900Y-123846950D01*
X95614600Y-123692250D01*
X95614600Y-123252859D01*
X95622064Y-123216000D01*
X95622064Y-122486000D01*
X95861136Y-122486000D01*
X95861136Y-123216000D01*
M02*
