G04 #@! TF.FileFunction,Profile,NP*
%FSLAX46Y46*%
G04 Gerber Fmt 4.6, Leading zero omitted, Abs format (unit mm)*
G04 Created by KiCad (PCBNEW 4.0.5) date Wednesday, September 13, 2017 'PMt' 01:05:14 PM*
%MOMM*%
%LPD*%
G01*
G04 APERTURE LIST*
%ADD10C,0.100000*%
%ADD11C,0.150000*%
G04 APERTURE END LIST*
D10*
D11*
X75210000Y-141530000D02*
X75210000Y-135780000D01*
X77210000Y-135780000D02*
X77210000Y-141530000D01*
X75210000Y-74780000D02*
X75210000Y-82030000D01*
X77210000Y-65530000D02*
X77210000Y-68780000D01*
X75210000Y-68780000D02*
G75*
G03X77210000Y-68780000I1000000J0D01*
G01*
X77210000Y-74780000D02*
G75*
G03X75210000Y-74780000I-1000000J0D01*
G01*
X75210000Y-129780000D02*
G75*
G03X77210000Y-129780000I1000000J0D01*
G01*
X77210000Y-135780000D02*
G75*
G03X75210000Y-135780000I-1000000J0D01*
G01*
X77960000Y-64780000D02*
G75*
G03X77210000Y-65530000I0J-750000D01*
G01*
X77960000Y-64780000D02*
X98460000Y-64780000D01*
X77210000Y-129780000D02*
X77210000Y-74780000D01*
X101210000Y-129780000D02*
X101210000Y-74780000D01*
X78460000Y-144780000D02*
X93560000Y-144780000D01*
X93560000Y-142780000D02*
X93560000Y-144780000D01*
X77210000Y-141530000D02*
G75*
G03X77960000Y-142280000I750000J0D01*
G01*
X78460000Y-142780000D02*
G75*
G03X77960000Y-142280000I-500000J0D01*
G01*
X78460000Y-142780000D02*
X78460000Y-144780000D01*
X99210000Y-74780000D02*
X99210000Y-82030000D01*
X99210000Y-65530000D02*
X99210000Y-68780000D01*
X101210000Y-74780000D02*
G75*
G03X99210000Y-74780000I-1000000J0D01*
G01*
X123210000Y-65530000D02*
X123210000Y-82030000D01*
X99210000Y-68780000D02*
G75*
G03X101210000Y-68780000I1000000J0D01*
G01*
X101210000Y-68780000D02*
X101210000Y-65530000D01*
X81710000Y-121280000D02*
G75*
G03X82460000Y-122030000I750000J0D01*
G01*
X82460000Y-122030000D02*
X98460000Y-122030000D01*
X105710000Y-121280000D02*
G75*
G03X106460000Y-122030000I750000J0D01*
G01*
X106460000Y-122030000D02*
X122460000Y-122030000D01*
X123210000Y-141530000D02*
X123210000Y-122780000D01*
X99210000Y-65530000D02*
G75*
G03X98460000Y-64780000I-750000J0D01*
G01*
X101960000Y-64780000D02*
X122460000Y-64780000D01*
X123210000Y-65530000D02*
G75*
G03X122460000Y-64780000I-750000J0D01*
G01*
X101960000Y-64780000D02*
G75*
G03X101210000Y-65530000I0J-750000D01*
G01*
X122460000Y-82780000D02*
X106460000Y-82780000D01*
X105710000Y-83530000D02*
X105710000Y-121280000D01*
X122460000Y-82780000D02*
G75*
G03X123210000Y-82030000I0J750000D01*
G01*
X106460000Y-82780000D02*
G75*
G03X105710000Y-83530000I0J-750000D01*
G01*
X98460000Y-82780000D02*
X82460000Y-82780000D01*
X81710000Y-83530000D02*
X81710000Y-121280000D01*
X82460000Y-82780000D02*
G75*
G03X81710000Y-83530000I0J-750000D01*
G01*
X98460000Y-82780000D02*
G75*
G03X99210000Y-82030000I0J750000D01*
G01*
X95060000Y-142780000D02*
G75*
G03X93560000Y-142780000I-750000J0D01*
G01*
X98460000Y-142280000D02*
G75*
G03X97960000Y-142780000I0J-500000D01*
G01*
X97960000Y-142780000D02*
X97960000Y-144780000D01*
X98460000Y-142280000D02*
G75*
G03X99210000Y-141530000I0J750000D01*
G01*
X95060000Y-142780000D02*
X95060000Y-144780000D01*
X97960000Y-144780000D02*
X95060000Y-144780000D01*
X123210000Y-122780000D02*
G75*
G03X122460000Y-122030000I-750000J0D01*
G01*
X122460000Y-142280000D02*
G75*
G03X123210000Y-141530000I0J750000D01*
G01*
X121960000Y-142780000D02*
X121960000Y-144780000D01*
X121960000Y-144780000D02*
X119060000Y-144780000D01*
X122460000Y-142280000D02*
G75*
G03X121960000Y-142780000I0J-500000D01*
G01*
X119060000Y-142780000D02*
G75*
G03X117560000Y-142780000I-750000J0D01*
G01*
X119060000Y-142780000D02*
X119060000Y-144780000D01*
X102460000Y-144780000D02*
X117560000Y-144780000D01*
X102460000Y-142780000D02*
X102460000Y-144780000D01*
X102460000Y-142780000D02*
G75*
G03X101960000Y-142280000I-500000J0D01*
G01*
X117560000Y-142780000D02*
X117560000Y-144780000D01*
X99210000Y-122780000D02*
G75*
G03X98460000Y-122030000I-750000J0D01*
G01*
X99210000Y-129780000D02*
G75*
G03X101210000Y-129780000I1000000J0D01*
G01*
X99210000Y-129780000D02*
X99210000Y-122780000D01*
X101210000Y-141530000D02*
G75*
G03X101960000Y-142280000I750000J0D01*
G01*
X101210000Y-135780000D02*
G75*
G03X99210000Y-135780000I-1000000J0D01*
G01*
X99210000Y-135780000D02*
X99210000Y-141530000D01*
X101210000Y-141530000D02*
X101210000Y-135780000D01*
X51210000Y-65530000D02*
X51210000Y-68780000D01*
X53210000Y-68780000D02*
X53210000Y-65530000D01*
X53210000Y-141530000D02*
X53210000Y-135780000D01*
X51210000Y-135780000D02*
X51210000Y-141530000D01*
X51210000Y-129780000D02*
G75*
G03X53210000Y-129780000I1000000J0D01*
G01*
X53210000Y-135780000D02*
G75*
G03X51210000Y-135780000I-1000000J0D01*
G01*
X51210000Y-68780000D02*
G75*
G03X53210000Y-68780000I1000000J0D01*
G01*
X53210000Y-74780000D02*
G75*
G03X51210000Y-74780000I-1000000J0D01*
G01*
X53960000Y-64780000D02*
X74460000Y-64780000D01*
X74460000Y-82780000D02*
G75*
G03X75210000Y-82030000I0J750000D01*
G01*
X75210000Y-65530000D02*
G75*
G03X74460000Y-64780000I-750000J0D01*
G01*
X75210000Y-65530000D02*
X75210000Y-68780000D01*
X53960000Y-64780000D02*
G75*
G03X53210000Y-65530000I0J-750000D01*
G01*
X53210000Y-129780000D02*
X53210000Y-74780000D01*
X58460000Y-82780000D02*
G75*
G03X57710000Y-83530000I0J-750000D01*
G01*
X57710000Y-83530000D02*
X57710000Y-121280000D01*
X74460000Y-82780000D02*
X58460000Y-82780000D01*
X75210000Y-122780000D02*
G75*
G03X74460000Y-122030000I-750000J0D01*
G01*
X75210000Y-129780000D02*
X75210000Y-122780000D01*
X58460000Y-122030000D02*
X74460000Y-122030000D01*
X57710000Y-121280000D02*
G75*
G03X58460000Y-122030000I750000J0D01*
G01*
X53210000Y-141530000D02*
G75*
G03X53960000Y-142280000I750000J0D01*
G01*
X54460000Y-142780000D02*
X54460000Y-144780000D01*
X54460000Y-144780000D02*
X69560000Y-144780000D01*
X69560000Y-142780000D02*
X69560000Y-144780000D01*
X54460000Y-142780000D02*
G75*
G03X53960000Y-142280000I-500000J0D01*
G01*
X74460000Y-142280000D02*
G75*
G03X75210000Y-141530000I0J750000D01*
G01*
X74460000Y-142280000D02*
G75*
G03X73960000Y-142780000I0J-500000D01*
G01*
X73960000Y-142780000D02*
X73960000Y-144780000D01*
X73960000Y-144780000D02*
X71060000Y-144780000D01*
X71060000Y-142780000D02*
X71060000Y-144780000D01*
X71060000Y-142780000D02*
G75*
G03X69560000Y-142780000I-750000J0D01*
G01*
X45560000Y-142780000D02*
X45560000Y-144780000D01*
X47060000Y-142780000D02*
X47060000Y-144780000D01*
X49960000Y-144780000D02*
X47060000Y-144780000D01*
X49960000Y-142780000D02*
X49960000Y-144780000D01*
X30460000Y-144780000D02*
X45560000Y-144780000D01*
X30460000Y-142780000D02*
X30460000Y-144780000D01*
X50460000Y-142280000D02*
G75*
G03X49960000Y-142780000I0J-500000D01*
G01*
X30460000Y-142780000D02*
G75*
G03X29960000Y-142280000I-500000J0D01*
G01*
X47060000Y-142780000D02*
G75*
G03X45560000Y-142780000I-750000J0D01*
G01*
X51210000Y-122780000D02*
G75*
G03X50460000Y-122030000I-750000J0D01*
G01*
X50460000Y-142280000D02*
G75*
G03X51210000Y-141530000I0J750000D01*
G01*
X29210000Y-141530000D02*
G75*
G03X29960000Y-142280000I750000J0D01*
G01*
X29960000Y-64780000D02*
G75*
G03X29210000Y-65530000I0J-750000D01*
G01*
X51210000Y-65530000D02*
G75*
G03X50460000Y-64780000I-750000J0D01*
G01*
X50460000Y-82780000D02*
G75*
G03X51210000Y-82030000I0J750000D01*
G01*
X33710000Y-121280000D02*
G75*
G03X34460000Y-122030000I750000J0D01*
G01*
X34460000Y-82780000D02*
G75*
G03X33710000Y-83530000I0J-750000D01*
G01*
X51210000Y-129780000D02*
X51210000Y-122780000D01*
X34460000Y-122030000D02*
X50460000Y-122030000D01*
X33710000Y-83530000D02*
X33710000Y-121280000D01*
X50460000Y-82780000D02*
X34460000Y-82780000D01*
X29210000Y-141530000D02*
X29210000Y-65530000D01*
X51210000Y-74780000D02*
X51210000Y-82030000D01*
X29960000Y-64780000D02*
X50460000Y-64780000D01*
M02*
