M48
;DRILL file {KiCad 4.0.5} date Wednesday, September 13, 2017 'PMt' 01:05:22 PM
;FORMAT={-:-/ absolute / inch / decimal}
FMAT,2
INCH,TZ
T1C0.014
T2C0.017
T3C0.030
T4C0.145
T5C0.150
T6C0.030
%
G90
G05
M72
T1
X1.225Y-5.525
X1.2484Y-5.0484
X1.25Y-5.
X1.3Y-5.35
X1.3Y-5.575
X1.35Y-4.925
X1.35Y-5.525
X1.35Y-5.575
X1.4Y-5.05
X1.4Y-5.5
X1.425Y-5.
X1.475Y-5.275
X1.5Y-5.45
X1.525Y-5.425
X1.55Y-4.85
X1.55Y-4.9
X1.575Y-4.95
X1.6Y-5.45
X1.625Y-4.9
X1.65Y-4.95
X1.65Y-5.375
X1.675Y-5.325
X1.7Y-4.975
X1.7Y-5.475
X1.775Y-5.425
X1.775Y-5.575
X1.8Y-5.275
X1.8Y-5.5
X1.825Y-5.375
X1.85Y-5.325
X1.875Y-5.1
X1.9Y-5.35
X1.95Y-4.925
X2.1699Y-5.525
X2.1933Y-5.0484
X2.1949Y-5.
X2.2449Y-5.35
X2.2449Y-5.575
X2.2949Y-4.925
X2.2949Y-5.525
X2.2949Y-5.575
X2.3449Y-5.05
X2.3449Y-5.5
X2.3699Y-5.
X2.4199Y-5.275
X2.4449Y-5.45
X2.4699Y-5.425
X2.4949Y-4.85
X2.4949Y-4.9
X2.5199Y-4.95
X2.5449Y-5.45
X2.5699Y-4.9
X2.5949Y-4.95
X2.5949Y-5.375
X2.6199Y-5.325
X2.6449Y-4.975
X2.6449Y-5.475
X2.7199Y-5.425
X2.7199Y-5.575
X2.7449Y-5.275
X2.7449Y-5.5
X2.7699Y-5.375
X2.7949Y-5.325
X2.8199Y-5.1
X2.8449Y-5.35
X2.8949Y-4.925
X3.1148Y-5.525
X3.1382Y-5.0484
X3.1398Y-5.
X3.1898Y-5.35
X3.1898Y-5.575
X3.2398Y-4.925
X3.2398Y-5.525
X3.2398Y-5.575
X3.2898Y-5.05
X3.2898Y-5.5
X3.3148Y-5.
X3.3648Y-5.275
X3.3898Y-5.45
X3.4148Y-5.425
X3.4398Y-4.85
X3.4398Y-4.9
X3.4648Y-4.95
X3.4898Y-5.45
X3.5148Y-4.9
X3.5398Y-4.95
X3.5398Y-5.375
X3.5648Y-5.325
X3.5898Y-4.975
X3.5898Y-5.475
X3.6648Y-5.425
X3.6648Y-5.575
X3.6898Y-5.275
X3.6898Y-5.5
X3.7148Y-5.375
X3.7398Y-5.325
X3.7648Y-5.1
X3.7898Y-5.35
X3.8398Y-4.925
X4.0596Y-5.525
X4.0831Y-5.0484
X4.0846Y-5.
X4.1346Y-5.35
X4.1346Y-5.575
X4.1846Y-4.925
X4.1846Y-5.525
X4.1846Y-5.575
X4.2346Y-5.05
X4.2346Y-5.5
X4.2596Y-5.
X4.3096Y-5.275
X4.3346Y-5.45
X4.3596Y-5.425
X4.3846Y-4.85
X4.3846Y-4.9
X4.4096Y-4.95
X4.4346Y-5.45
X4.4596Y-4.9
X4.4846Y-4.95
X4.4846Y-5.375
X4.5096Y-5.325
X4.5346Y-4.975
X4.5346Y-5.475
X4.6096Y-5.425
X4.6096Y-5.575
X4.6346Y-5.275
X4.6346Y-5.5
X4.6596Y-5.375
X4.6846Y-5.325
X4.7096Y-5.1
X4.7346Y-5.35
X4.7846Y-4.925
T2
X1.3526Y-4.8057
X1.3836Y-4.8057
X1.4146Y-4.8057
X1.4456Y-4.8057
X1.4766Y-4.8057
X1.5076Y-4.8057
X1.6006Y-4.8057
X1.6316Y-4.8057
X1.6626Y-4.8057
X1.6936Y-4.8057
X1.7246Y-4.8057
X1.7556Y-4.8057
X1.7866Y-4.8057
X1.8176Y-4.8057
X1.8486Y-4.8057
X1.8796Y-4.8057
X1.9106Y-4.8057
X1.9416Y-4.8057
X2.2975Y-4.8057
X2.3285Y-4.8057
X2.3595Y-4.8057
X2.3905Y-4.8057
X2.4215Y-4.8057
X2.4525Y-4.8057
X2.5455Y-4.8057
X2.5765Y-4.8057
X2.6075Y-4.8057
X2.6385Y-4.8057
X2.6695Y-4.8057
X2.7005Y-4.8057
X2.7315Y-4.8057
X2.7625Y-4.8057
X2.7935Y-4.8057
X2.8245Y-4.8057
X2.8555Y-4.8057
X2.8865Y-4.8057
X3.2424Y-4.8057
X3.2734Y-4.8057
X3.3044Y-4.8057
X3.3354Y-4.8057
X3.3664Y-4.8057
X3.3974Y-4.8057
X3.4904Y-4.8057
X3.5214Y-4.8057
X3.5524Y-4.8057
X3.5834Y-4.8057
X3.6144Y-4.8057
X3.6454Y-4.8057
X3.6764Y-4.8057
X3.7074Y-4.8057
X3.7384Y-4.8057
X3.7694Y-4.8057
X3.8004Y-4.8057
X3.8314Y-4.8057
X4.1872Y-4.8057
X4.2182Y-4.8057
X4.2492Y-4.8057
X4.2802Y-4.8057
X4.3112Y-4.8057
X4.3422Y-4.8057
X4.4352Y-4.8057
X4.4662Y-4.8057
X4.4972Y-4.8057
X4.5282Y-4.8057
X4.5592Y-4.8057
X4.5902Y-4.8057
X4.6212Y-4.8057
X4.6522Y-4.8057
X4.6832Y-4.8057
X4.7142Y-4.8057
X4.7452Y-4.8057
X4.7762Y-4.8057
T3
X1.4256Y-5.0957
X1.7856Y-5.0957
X2.3705Y-5.0957
X2.7305Y-5.0957
X3.3154Y-5.0957
X3.6754Y-5.0957
X4.2602Y-5.0957
X4.6202Y-5.0957
T4
X1.5831Y-2.5504
X2.528Y-2.5504
X3.4728Y-2.5504
X4.4177Y-2.5504
T5
X1.5156Y-3.1128
X2.4605Y-3.1128
X3.4054Y-3.1128
X4.3502Y-3.1128
T6
X2.0555Y-2.776
X2.0555Y-2.826
X2.0555Y-2.876
X2.0555Y-5.1776
X2.0555Y-5.2276
X2.0555Y-5.2776
X3.0004Y-2.776
X3.0004Y-2.826
X3.0004Y-2.876
X3.0004Y-5.1776
X3.0004Y-5.2276
X3.0004Y-5.2776
X3.9453Y-2.776
X3.9453Y-2.826
X3.9453Y-2.876
X3.9453Y-5.1776
X3.9453Y-5.2276
X3.9453Y-5.2776
T0
M30
