G04 #@! TF.FileFunction,Soldermask,Bot*
%FSLAX46Y46*%
G04 Gerber Fmt 4.6, Leading zero omitted, Abs format (unit mm)*
G04 Created by KiCad (PCBNEW 4.0.5) date Wednesday, September 13, 2017 'PMt' 01:05:14 PM*
%MOMM*%
%LPD*%
G01*
G04 APERTURE LIST*
%ADD10C,0.100000*%
%ADD11R,0.958800X1.900000*%
%ADD12O,1.670000X1.670000*%
%ADD13C,5.480000*%
%ADD14C,1.162000*%
%ADD15C,6.750000*%
G04 APERTURE END LIST*
D10*
D11*
X97316400Y-122466000D03*
X96529000Y-122466000D03*
X95741600Y-122466000D03*
X94954200Y-122466000D03*
X94166800Y-122466000D03*
X93379400Y-122466000D03*
X92592000Y-122466000D03*
X91804600Y-122466000D03*
X91017200Y-122466000D03*
X90229800Y-122466000D03*
X89442400Y-122466000D03*
X88655000Y-122466000D03*
X86292800Y-122466000D03*
X85505400Y-122466000D03*
X84718000Y-122466000D03*
X83930600Y-122466000D03*
X83143200Y-122466000D03*
X82355800Y-122466000D03*
D12*
X84210000Y-129432000D03*
X93354000Y-129432000D03*
D13*
X86496000Y-79066000D03*
D11*
X121316400Y-122466000D03*
X120529000Y-122466000D03*
X119741600Y-122466000D03*
X118954200Y-122466000D03*
X118166800Y-122466000D03*
X117379400Y-122466000D03*
X116592000Y-122466000D03*
X115804600Y-122466000D03*
X115017200Y-122466000D03*
X114229800Y-122466000D03*
X113442400Y-122466000D03*
X112655000Y-122466000D03*
X110292800Y-122466000D03*
X109505400Y-122466000D03*
X108718000Y-122466000D03*
X107930600Y-122466000D03*
X107143200Y-122466000D03*
X106355800Y-122466000D03*
D12*
X108210000Y-129432000D03*
X117354000Y-129432000D03*
D13*
X110496000Y-79066000D03*
D14*
X100210000Y-134050000D03*
X100210000Y-132780000D03*
X100210000Y-131510000D03*
D15*
X88210000Y-64780000D03*
X112210000Y-64780000D03*
D14*
X100210000Y-73050000D03*
X100210000Y-71780000D03*
X100210000Y-70510000D03*
X76210000Y-134050000D03*
X76210000Y-132780000D03*
X76210000Y-131510000D03*
D15*
X64210000Y-64780000D03*
D11*
X73316400Y-122466000D03*
X72529000Y-122466000D03*
X71741600Y-122466000D03*
X70954200Y-122466000D03*
X70166800Y-122466000D03*
X69379400Y-122466000D03*
X68592000Y-122466000D03*
X67804600Y-122466000D03*
X67017200Y-122466000D03*
X66229800Y-122466000D03*
X65442400Y-122466000D03*
X64655000Y-122466000D03*
X62292800Y-122466000D03*
X61505400Y-122466000D03*
X60718000Y-122466000D03*
X59930600Y-122466000D03*
X59143200Y-122466000D03*
X58355800Y-122466000D03*
D12*
X60210000Y-129432000D03*
X69354000Y-129432000D03*
D13*
X62496000Y-79066000D03*
D14*
X76210000Y-73050000D03*
X76210000Y-71780000D03*
X76210000Y-70510000D03*
D11*
X49316400Y-122466000D03*
X48529000Y-122466000D03*
X47741600Y-122466000D03*
X46954200Y-122466000D03*
X46166800Y-122466000D03*
X45379400Y-122466000D03*
X44592000Y-122466000D03*
X43804600Y-122466000D03*
X43017200Y-122466000D03*
X42229800Y-122466000D03*
X41442400Y-122466000D03*
X40655000Y-122466000D03*
X38292800Y-122466000D03*
X37505400Y-122466000D03*
X36718000Y-122466000D03*
X35930600Y-122466000D03*
X35143200Y-122466000D03*
X34355800Y-122466000D03*
D12*
X36210000Y-129432000D03*
X45354000Y-129432000D03*
D13*
X38496000Y-79066000D03*
D15*
X40210000Y-64780000D03*
D14*
X52210000Y-73050000D03*
X52210000Y-71780000D03*
X52210000Y-70510000D03*
X52210000Y-134050000D03*
X52210000Y-132780000D03*
X52210000Y-131510000D03*
M02*
