G04 #@! TF.FileFunction,Legend,Top*
%FSLAX46Y46*%
G04 Gerber Fmt 4.6, Leading zero omitted, Abs format (unit mm)*
G04 Created by KiCad (PCBNEW 4.0.5) date Monday, October 16, 2017 'PMt' 01:44:04 PM*
%MOMM*%
%LPD*%
G01*
G04 APERTURE LIST*
%ADD10C,0.100000*%
%ADD11C,0.317500*%
%ADD12C,0.254000*%
%ADD13C,0.190500*%
%ADD14C,0.150000*%
%ADD15C,0.152400*%
%ADD16C,0.050800*%
%ADD17C,0.114300*%
G04 APERTURE END LIST*
D10*
D11*
X44268571Y-76774524D02*
X43845238Y-76169762D01*
X43542857Y-76774524D02*
X43542857Y-75504524D01*
X44026666Y-75504524D01*
X44147619Y-75565000D01*
X44208095Y-75625476D01*
X44268571Y-75746429D01*
X44268571Y-75927857D01*
X44208095Y-76048810D01*
X44147619Y-76109286D01*
X44026666Y-76169762D01*
X43542857Y-76169762D01*
X44812857Y-76109286D02*
X45236190Y-76109286D01*
X45417619Y-76774524D02*
X44812857Y-76774524D01*
X44812857Y-75504524D01*
X45417619Y-75504524D01*
X45780476Y-75504524D02*
X46203810Y-76774524D01*
X46627143Y-75504524D01*
X48683333Y-76774524D02*
X47957619Y-76774524D01*
X48320476Y-76774524D02*
X48320476Y-75504524D01*
X48199524Y-75685952D01*
X48078571Y-75806905D01*
X47957619Y-75867381D01*
X49227619Y-76653571D02*
X49288095Y-76714048D01*
X49227619Y-76774524D01*
X49167143Y-76714048D01*
X49227619Y-76653571D01*
X49227619Y-76774524D01*
X50497619Y-76774524D02*
X49771905Y-76774524D01*
X50134762Y-76774524D02*
X50134762Y-75504524D01*
X50013810Y-75685952D01*
X49892857Y-75806905D01*
X49771905Y-75867381D01*
D12*
X30310667Y-74464333D02*
X30794476Y-74464333D01*
X30213905Y-74754619D02*
X30552572Y-73738619D01*
X30891238Y-74754619D01*
X31229905Y-74754619D02*
X31229905Y-73738619D01*
X31616952Y-73738619D01*
X31713714Y-73787000D01*
X31762095Y-73835381D01*
X31810476Y-73932143D01*
X31810476Y-74077286D01*
X31762095Y-74174048D01*
X31713714Y-74222429D01*
X31616952Y-74270810D01*
X31229905Y-74270810D01*
X32245905Y-74754619D02*
X32245905Y-73738619D01*
X32632952Y-73738619D01*
X32729714Y-73787000D01*
X32778095Y-73835381D01*
X32826476Y-73932143D01*
X32826476Y-74077286D01*
X32778095Y-74174048D01*
X32729714Y-74222429D01*
X32632952Y-74270810D01*
X32245905Y-74270810D01*
X33745714Y-74754619D02*
X33261905Y-74754619D01*
X33261905Y-73738619D01*
X34084381Y-74222429D02*
X34423047Y-74222429D01*
X34568190Y-74754619D02*
X34084381Y-74754619D01*
X34084381Y-73738619D01*
X34568190Y-73738619D01*
X35680952Y-73738619D02*
X35922857Y-74754619D01*
X36116380Y-74028905D01*
X36309904Y-74754619D01*
X36551809Y-73738619D01*
X36938857Y-74754619D02*
X36938857Y-73738619D01*
X37761333Y-74222429D02*
X37422667Y-74222429D01*
X37422667Y-74754619D02*
X37422667Y-73738619D01*
X37906476Y-73738619D01*
X38293524Y-74754619D02*
X38293524Y-73738619D01*
X40277143Y-73690238D02*
X39406286Y-74996524D01*
X41389905Y-74754619D02*
X41389905Y-73738619D01*
X41728571Y-74464333D01*
X42067238Y-73738619D01*
X42067238Y-74754619D01*
X42551048Y-74657857D02*
X42599429Y-74706238D01*
X42551048Y-74754619D01*
X42502667Y-74706238D01*
X42551048Y-74657857D01*
X42551048Y-74754619D01*
X42986477Y-73835381D02*
X43034858Y-73787000D01*
X43131620Y-73738619D01*
X43373524Y-73738619D01*
X43470286Y-73787000D01*
X43518667Y-73835381D01*
X43567048Y-73932143D01*
X43567048Y-74028905D01*
X43518667Y-74174048D01*
X42938096Y-74754619D01*
X43567048Y-74754619D01*
X44728191Y-74464333D02*
X45212000Y-74464333D01*
X44631429Y-74754619D02*
X44970096Y-73738619D01*
X45308762Y-74754619D01*
X45647429Y-74754619D02*
X45647429Y-73738619D01*
X45889334Y-73738619D01*
X46034476Y-73787000D01*
X46131238Y-73883762D01*
X46179619Y-73980524D01*
X46228000Y-74174048D01*
X46228000Y-74319190D01*
X46179619Y-74512714D01*
X46131238Y-74609476D01*
X46034476Y-74706238D01*
X45889334Y-74754619D01*
X45647429Y-74754619D01*
X46615048Y-74464333D02*
X47098857Y-74464333D01*
X46518286Y-74754619D02*
X46856953Y-73738619D01*
X47195619Y-74754619D01*
X47534286Y-74754619D02*
X47534286Y-73738619D01*
X47921333Y-73738619D01*
X48018095Y-73787000D01*
X48066476Y-73835381D01*
X48114857Y-73932143D01*
X48114857Y-74077286D01*
X48066476Y-74174048D01*
X48018095Y-74222429D01*
X47921333Y-74270810D01*
X47534286Y-74270810D01*
X48405143Y-73738619D02*
X48985714Y-73738619D01*
X48695429Y-74754619D02*
X48695429Y-73738619D01*
X49517905Y-73738619D02*
X49711428Y-73738619D01*
X49808190Y-73787000D01*
X49904952Y-73883762D01*
X49953333Y-74077286D01*
X49953333Y-74415952D01*
X49904952Y-74609476D01*
X49808190Y-74706238D01*
X49711428Y-74754619D01*
X49517905Y-74754619D01*
X49421143Y-74706238D01*
X49324381Y-74609476D01*
X49276000Y-74415952D01*
X49276000Y-74077286D01*
X49324381Y-73883762D01*
X49421143Y-73787000D01*
X49517905Y-73738619D01*
X50969333Y-74754619D02*
X50630667Y-74270810D01*
X50388762Y-74754619D02*
X50388762Y-73738619D01*
X50775809Y-73738619D01*
X50872571Y-73787000D01*
X50920952Y-73835381D01*
X50969333Y-73932143D01*
X50969333Y-74077286D01*
X50920952Y-74174048D01*
X50872571Y-74222429D01*
X50775809Y-74270810D01*
X50388762Y-74270810D01*
D13*
X34906858Y-141949714D02*
X34906858Y-141187714D01*
X35160858Y-141732000D01*
X35414858Y-141187714D01*
X35414858Y-141949714D01*
X35777715Y-141877143D02*
X35814000Y-141913429D01*
X35777715Y-141949714D01*
X35741429Y-141913429D01*
X35777715Y-141877143D01*
X35777715Y-141949714D01*
X36104286Y-141260286D02*
X36140572Y-141224000D01*
X36213143Y-141187714D01*
X36394572Y-141187714D01*
X36467143Y-141224000D01*
X36503429Y-141260286D01*
X36539714Y-141332857D01*
X36539714Y-141405429D01*
X36503429Y-141514286D01*
X36068000Y-141949714D01*
X36539714Y-141949714D01*
X36684857Y-142022286D02*
X37265428Y-142022286D01*
X37882285Y-141877143D02*
X37845999Y-141913429D01*
X37737142Y-141949714D01*
X37664571Y-141949714D01*
X37555714Y-141913429D01*
X37483142Y-141840857D01*
X37446857Y-141768286D01*
X37410571Y-141623143D01*
X37410571Y-141514286D01*
X37446857Y-141369143D01*
X37483142Y-141296571D01*
X37555714Y-141224000D01*
X37664571Y-141187714D01*
X37737142Y-141187714D01*
X37845999Y-141224000D01*
X37882285Y-141260286D01*
X38353999Y-141187714D02*
X38499142Y-141187714D01*
X38571714Y-141224000D01*
X38644285Y-141296571D01*
X38680571Y-141441714D01*
X38680571Y-141695714D01*
X38644285Y-141840857D01*
X38571714Y-141913429D01*
X38499142Y-141949714D01*
X38353999Y-141949714D01*
X38281428Y-141913429D01*
X38208857Y-141840857D01*
X38172571Y-141695714D01*
X38172571Y-141441714D01*
X38208857Y-141296571D01*
X38281428Y-141224000D01*
X38353999Y-141187714D01*
X39007143Y-141949714D02*
X39007143Y-141187714D01*
X39442571Y-141949714D01*
X39442571Y-141187714D01*
X39805429Y-141949714D02*
X39805429Y-141187714D01*
X40240857Y-141949714D01*
X40240857Y-141187714D01*
X40603715Y-141550571D02*
X40857715Y-141550571D01*
X40966572Y-141949714D02*
X40603715Y-141949714D01*
X40603715Y-141187714D01*
X40966572Y-141187714D01*
X41728572Y-141877143D02*
X41692286Y-141913429D01*
X41583429Y-141949714D01*
X41510858Y-141949714D01*
X41402001Y-141913429D01*
X41329429Y-141840857D01*
X41293144Y-141768286D01*
X41256858Y-141623143D01*
X41256858Y-141514286D01*
X41293144Y-141369143D01*
X41329429Y-141296571D01*
X41402001Y-141224000D01*
X41510858Y-141187714D01*
X41583429Y-141187714D01*
X41692286Y-141224000D01*
X41728572Y-141260286D01*
X41946286Y-141187714D02*
X42381715Y-141187714D01*
X42164001Y-141949714D02*
X42164001Y-141187714D01*
X42780857Y-141187714D02*
X42926000Y-141187714D01*
X42998572Y-141224000D01*
X43071143Y-141296571D01*
X43107429Y-141441714D01*
X43107429Y-141695714D01*
X43071143Y-141840857D01*
X42998572Y-141913429D01*
X42926000Y-141949714D01*
X42780857Y-141949714D01*
X42708286Y-141913429D01*
X42635715Y-141840857D01*
X42599429Y-141695714D01*
X42599429Y-141441714D01*
X42635715Y-141296571D01*
X42708286Y-141224000D01*
X42780857Y-141187714D01*
X43869429Y-141949714D02*
X43615429Y-141586857D01*
X43434001Y-141949714D02*
X43434001Y-141187714D01*
X43724286Y-141187714D01*
X43796858Y-141224000D01*
X43833143Y-141260286D01*
X43869429Y-141332857D01*
X43869429Y-141441714D01*
X43833143Y-141514286D01*
X43796858Y-141550571D01*
X43724286Y-141586857D01*
X43434001Y-141586857D01*
X42599428Y-129159000D02*
X42526857Y-129122714D01*
X42418000Y-129122714D01*
X42309143Y-129159000D01*
X42236571Y-129231571D01*
X42200286Y-129304143D01*
X42164000Y-129449286D01*
X42164000Y-129558143D01*
X42200286Y-129703286D01*
X42236571Y-129775857D01*
X42309143Y-129848429D01*
X42418000Y-129884714D01*
X42490571Y-129884714D01*
X42599428Y-129848429D01*
X42635714Y-129812143D01*
X42635714Y-129558143D01*
X42490571Y-129558143D01*
X42962286Y-129884714D02*
X42962286Y-129122714D01*
X43397714Y-129884714D01*
X43397714Y-129122714D01*
X43760572Y-129884714D02*
X43760572Y-129122714D01*
X43942000Y-129122714D01*
X44050857Y-129159000D01*
X44123429Y-129231571D01*
X44159714Y-129304143D01*
X44196000Y-129449286D01*
X44196000Y-129558143D01*
X44159714Y-129703286D01*
X44123429Y-129775857D01*
X44050857Y-129848429D01*
X43942000Y-129884714D01*
X43760572Y-129884714D01*
X37519428Y-129159000D02*
X37446857Y-129122714D01*
X37338000Y-129122714D01*
X37229143Y-129159000D01*
X37156571Y-129231571D01*
X37120286Y-129304143D01*
X37084000Y-129449286D01*
X37084000Y-129558143D01*
X37120286Y-129703286D01*
X37156571Y-129775857D01*
X37229143Y-129848429D01*
X37338000Y-129884714D01*
X37410571Y-129884714D01*
X37519428Y-129848429D01*
X37555714Y-129812143D01*
X37555714Y-129558143D01*
X37410571Y-129558143D01*
X37882286Y-129884714D02*
X37882286Y-129122714D01*
X38317714Y-129884714D01*
X38317714Y-129122714D01*
X38680572Y-129884714D02*
X38680572Y-129122714D01*
X38862000Y-129122714D01*
X38970857Y-129159000D01*
X39043429Y-129231571D01*
X39079714Y-129304143D01*
X39116000Y-129449286D01*
X39116000Y-129558143D01*
X39079714Y-129703286D01*
X39043429Y-129775857D01*
X38970857Y-129848429D01*
X38862000Y-129884714D01*
X38680572Y-129884714D01*
X49874714Y-136180285D02*
X49874714Y-136543142D01*
X49112714Y-136543142D01*
X49475571Y-135926285D02*
X49475571Y-135672285D01*
X49874714Y-135563428D02*
X49874714Y-135926285D01*
X49112714Y-135926285D01*
X49112714Y-135563428D01*
X49874714Y-135236856D02*
X49112714Y-135236856D01*
X49112714Y-135055428D01*
X49149000Y-134946571D01*
X49221571Y-134873999D01*
X49294143Y-134837714D01*
X49439286Y-134801428D01*
X49548143Y-134801428D01*
X49693286Y-134837714D01*
X49765857Y-134873999D01*
X49838429Y-134946571D01*
X49874714Y-135055428D01*
X49874714Y-135236856D01*
X49947286Y-134656285D02*
X49947286Y-134075714D01*
X49475571Y-133640285D02*
X49511857Y-133531428D01*
X49548143Y-133495143D01*
X49620714Y-133458857D01*
X49729571Y-133458857D01*
X49802143Y-133495143D01*
X49838429Y-133531428D01*
X49874714Y-133604000D01*
X49874714Y-133894285D01*
X49112714Y-133894285D01*
X49112714Y-133640285D01*
X49149000Y-133567714D01*
X49185286Y-133531428D01*
X49257857Y-133495143D01*
X49330429Y-133495143D01*
X49403000Y-133531428D01*
X49439286Y-133567714D01*
X49475571Y-133640285D01*
X49475571Y-133894285D01*
X49874714Y-132696857D02*
X49511857Y-132950857D01*
X49874714Y-133132285D02*
X49112714Y-133132285D01*
X49112714Y-132842000D01*
X49149000Y-132769428D01*
X49185286Y-132733143D01*
X49257857Y-132696857D01*
X49366714Y-132696857D01*
X49439286Y-132733143D01*
X49475571Y-132769428D01*
X49511857Y-132842000D01*
X49511857Y-133132285D01*
X49874714Y-132370285D02*
X49112714Y-132370285D01*
X49874714Y-132007428D02*
X49112714Y-132007428D01*
X49112714Y-131826000D01*
X49149000Y-131717143D01*
X49221571Y-131644571D01*
X49294143Y-131608286D01*
X49439286Y-131572000D01*
X49548143Y-131572000D01*
X49693286Y-131608286D01*
X49765857Y-131644571D01*
X49838429Y-131717143D01*
X49874714Y-131826000D01*
X49874714Y-132007428D01*
X49149000Y-130846286D02*
X49112714Y-130918857D01*
X49112714Y-131027714D01*
X49149000Y-131136571D01*
X49221571Y-131209143D01*
X49294143Y-131245428D01*
X49439286Y-131281714D01*
X49548143Y-131281714D01*
X49693286Y-131245428D01*
X49765857Y-131209143D01*
X49838429Y-131136571D01*
X49874714Y-131027714D01*
X49874714Y-130955143D01*
X49838429Y-130846286D01*
X49802143Y-130810000D01*
X49548143Y-130810000D01*
X49548143Y-130955143D01*
X49475571Y-130483428D02*
X49475571Y-130229428D01*
X49874714Y-130120571D02*
X49874714Y-130483428D01*
X49112714Y-130483428D01*
X49112714Y-130120571D01*
X34888715Y-127344714D02*
X34888715Y-126582714D01*
X35070143Y-126582714D01*
X35179000Y-126619000D01*
X35251572Y-126691571D01*
X35287857Y-126764143D01*
X35324143Y-126909286D01*
X35324143Y-127018143D01*
X35287857Y-127163286D01*
X35251572Y-127235857D01*
X35179000Y-127308429D01*
X35070143Y-127344714D01*
X34888715Y-127344714D01*
X35650715Y-127054429D02*
X36231286Y-127054429D01*
X34888715Y-128614714D02*
X34888715Y-127852714D01*
X35070143Y-127852714D01*
X35179000Y-127889000D01*
X35251572Y-127961571D01*
X35287857Y-128034143D01*
X35324143Y-128179286D01*
X35324143Y-128288143D01*
X35287857Y-128433286D01*
X35251572Y-128505857D01*
X35179000Y-128578429D01*
X35070143Y-128614714D01*
X34888715Y-128614714D01*
X35650715Y-128324429D02*
X36231286Y-128324429D01*
X35941000Y-128614714D02*
X35941000Y-128034143D01*
X34979428Y-130429000D02*
X34906857Y-130392714D01*
X34798000Y-130392714D01*
X34689143Y-130429000D01*
X34616571Y-130501571D01*
X34580286Y-130574143D01*
X34544000Y-130719286D01*
X34544000Y-130828143D01*
X34580286Y-130973286D01*
X34616571Y-131045857D01*
X34689143Y-131118429D01*
X34798000Y-131154714D01*
X34870571Y-131154714D01*
X34979428Y-131118429D01*
X35015714Y-131082143D01*
X35015714Y-130828143D01*
X34870571Y-130828143D01*
X35342286Y-131154714D02*
X35342286Y-130392714D01*
X35777714Y-131154714D01*
X35777714Y-130392714D01*
X36140572Y-131154714D02*
X36140572Y-130392714D01*
X36322000Y-130392714D01*
X36430857Y-130429000D01*
X36503429Y-130501571D01*
X36539714Y-130574143D01*
X36576000Y-130719286D01*
X36576000Y-130828143D01*
X36539714Y-130973286D01*
X36503429Y-131045857D01*
X36430857Y-131118429D01*
X36322000Y-131154714D01*
X36140572Y-131154714D01*
D14*
X32592000Y-117066000D02*
X37592000Y-122066000D01*
X42592000Y-82066000D02*
X51592000Y-90066000D01*
X37592000Y-82066000D02*
X51592000Y-96066000D01*
X32592000Y-82066000D02*
X51592000Y-101066000D01*
X32592000Y-87066000D02*
X51592000Y-106066000D01*
X32592000Y-92066000D02*
X51592000Y-111066000D01*
X32592000Y-97066000D02*
X51592000Y-116066000D01*
X32592000Y-102066000D02*
X51592000Y-121066000D01*
X32592000Y-107066000D02*
X47592000Y-122066000D01*
X32592000Y-112066000D02*
X42592000Y-122066000D01*
X51592000Y-82066000D02*
X51592000Y-122066000D01*
X32592000Y-82066000D02*
X32592000Y-122066000D01*
X32592000Y-82066000D02*
X51592000Y-82066000D01*
X32592000Y-122066000D02*
X51592000Y-122066000D01*
D15*
X47752000Y-134493000D02*
X48768000Y-134493000D01*
X48768000Y-134493000D02*
X48768000Y-132207000D01*
X48768000Y-132207000D02*
X47752000Y-132207000D01*
X47752000Y-132207000D02*
X47752000Y-134493000D01*
D16*
X43385000Y-64780000D02*
G75*
G03X43385000Y-64780000I-3175000J0D01*
G01*
D14*
X34925000Y-71755000D02*
X35433000Y-71755000D01*
X35433000Y-71755000D02*
X35433000Y-72263000D01*
X35433000Y-72263000D02*
X34925000Y-72263000D01*
X34925000Y-72263000D02*
X34925000Y-71755000D01*
X34163000Y-71755000D02*
X34671000Y-71755000D01*
X34671000Y-71755000D02*
X34671000Y-72263000D01*
X34671000Y-72263000D02*
X34163000Y-72263000D01*
X34163000Y-72263000D02*
X34163000Y-71755000D01*
X33401000Y-71755000D02*
X33909000Y-71755000D01*
X33909000Y-71755000D02*
X33909000Y-72263000D01*
X33909000Y-72263000D02*
X33401000Y-72263000D01*
X33401000Y-72263000D02*
X33401000Y-71755000D01*
X32639000Y-71755000D02*
X33147000Y-71755000D01*
X33147000Y-71755000D02*
X33147000Y-72263000D01*
X33147000Y-72263000D02*
X32639000Y-72263000D01*
X32639000Y-72263000D02*
X32639000Y-71755000D01*
X31877000Y-71755000D02*
X32385000Y-71755000D01*
X32385000Y-71755000D02*
X32385000Y-72263000D01*
X32385000Y-72263000D02*
X31877000Y-72263000D01*
X31877000Y-72263000D02*
X31877000Y-71755000D01*
X31242000Y-71120000D02*
X31750000Y-71120000D01*
X31750000Y-71120000D02*
X31750000Y-71628000D01*
X31750000Y-71628000D02*
X31242000Y-71628000D01*
X31242000Y-71628000D02*
X31242000Y-71120000D01*
X31750000Y-70358000D02*
X31750000Y-70866000D01*
X31750000Y-70866000D02*
X31242000Y-70866000D01*
X31242000Y-70866000D02*
X31242000Y-70358000D01*
X31242000Y-70358000D02*
X31750000Y-70358000D01*
X31750000Y-69596000D02*
X31750000Y-70104000D01*
X31750000Y-70104000D02*
X31242000Y-70104000D01*
X31242000Y-70104000D02*
X31242000Y-69596000D01*
X31242000Y-69596000D02*
X31750000Y-69596000D01*
X32385000Y-68961000D02*
X32385000Y-69469000D01*
X32385000Y-69469000D02*
X31877000Y-69469000D01*
X31877000Y-69469000D02*
X31877000Y-68961000D01*
X31877000Y-68961000D02*
X32385000Y-68961000D01*
X33147000Y-69469000D02*
X33147000Y-68961000D01*
X33147000Y-68961000D02*
X32639000Y-68961000D01*
X32639000Y-68961000D02*
X32639000Y-69469000D01*
X32639000Y-69469000D02*
X33147000Y-69469000D01*
X33909000Y-68961000D02*
X33909000Y-69469000D01*
X33909000Y-69469000D02*
X33401000Y-69469000D01*
X33401000Y-69469000D02*
X33401000Y-68961000D01*
X33401000Y-68961000D02*
X33909000Y-68961000D01*
X34671000Y-69469000D02*
X34671000Y-68961000D01*
X34671000Y-68961000D02*
X34163000Y-68961000D01*
X34163000Y-68961000D02*
X34163000Y-69469000D01*
X34163000Y-69469000D02*
X34671000Y-69469000D01*
X33147000Y-70866000D02*
X33147000Y-70358000D01*
X33147000Y-70358000D02*
X32639000Y-70358000D01*
X32639000Y-70358000D02*
X32639000Y-70866000D01*
X32639000Y-70866000D02*
X33147000Y-70866000D01*
X33909000Y-70866000D02*
X33401000Y-70866000D01*
X33401000Y-70866000D02*
X33401000Y-70358000D01*
X33909000Y-70866000D02*
X33909000Y-70358000D01*
X33909000Y-70358000D02*
X33401000Y-70358000D01*
X34671000Y-70358000D02*
X34671000Y-70866000D01*
X34671000Y-70866000D02*
X34163000Y-70866000D01*
X34163000Y-70866000D02*
X34163000Y-70358000D01*
X34163000Y-70358000D02*
X34671000Y-70358000D01*
X35433000Y-70358000D02*
X35433000Y-70866000D01*
X35433000Y-70866000D02*
X34925000Y-70866000D01*
X34925000Y-70866000D02*
X34925000Y-70358000D01*
X34925000Y-70358000D02*
X35433000Y-70358000D01*
X35560000Y-69723000D02*
X36068000Y-69723000D01*
X36068000Y-69723000D02*
X36068000Y-70231000D01*
X36068000Y-70231000D02*
X35560000Y-70231000D01*
X35560000Y-70231000D02*
X35560000Y-69723000D01*
X35560000Y-68961000D02*
X36068000Y-68961000D01*
X36068000Y-68961000D02*
X36068000Y-69469000D01*
X36068000Y-69469000D02*
X35560000Y-69469000D01*
X35560000Y-69469000D02*
X35560000Y-68961000D01*
X35560000Y-68199000D02*
X36068000Y-68199000D01*
X36068000Y-68199000D02*
X36068000Y-68707000D01*
X36068000Y-68707000D02*
X35560000Y-68707000D01*
X35560000Y-68707000D02*
X35560000Y-68199000D01*
X34925000Y-67564000D02*
X34925000Y-68072000D01*
X34925000Y-68072000D02*
X35433000Y-68072000D01*
X35433000Y-68072000D02*
X35433000Y-67564000D01*
X35433000Y-67564000D02*
X34925000Y-67564000D01*
X34163000Y-67564000D02*
X34163000Y-68072000D01*
X34163000Y-68072000D02*
X34671000Y-68072000D01*
X34671000Y-68072000D02*
X34671000Y-67564000D01*
X34671000Y-67564000D02*
X34163000Y-67564000D01*
X33401000Y-67564000D02*
X33401000Y-68072000D01*
X33401000Y-68072000D02*
X33909000Y-68072000D01*
X33909000Y-68072000D02*
X33909000Y-67564000D01*
X33909000Y-67564000D02*
X33401000Y-67564000D01*
X32639000Y-67564000D02*
X32639000Y-68072000D01*
X32639000Y-68072000D02*
X33147000Y-68072000D01*
X33147000Y-68072000D02*
X33147000Y-67564000D01*
X33147000Y-67564000D02*
X32639000Y-67564000D01*
X31877000Y-67564000D02*
X31877000Y-68072000D01*
X31877000Y-68072000D02*
X32385000Y-68072000D01*
X32385000Y-68072000D02*
X32385000Y-67564000D01*
X32385000Y-67564000D02*
X31877000Y-67564000D01*
D13*
X36503429Y-124587000D02*
X36866286Y-124587000D01*
X36430857Y-124804714D02*
X36684857Y-124042714D01*
X36938857Y-124804714D01*
X37192858Y-124804714D02*
X37192858Y-124042714D01*
X37483143Y-124042714D01*
X37555715Y-124079000D01*
X37592000Y-124115286D01*
X37628286Y-124187857D01*
X37628286Y-124296714D01*
X37592000Y-124369286D01*
X37555715Y-124405571D01*
X37483143Y-124441857D01*
X37192858Y-124441857D01*
X37954858Y-124804714D02*
X37954858Y-124042714D01*
X38245143Y-124042714D01*
X38317715Y-124079000D01*
X38354000Y-124115286D01*
X38390286Y-124187857D01*
X38390286Y-124296714D01*
X38354000Y-124369286D01*
X38317715Y-124405571D01*
X38245143Y-124441857D01*
X37954858Y-124441857D01*
X39079715Y-124804714D02*
X38716858Y-124804714D01*
X38716858Y-124042714D01*
X39333715Y-124405571D02*
X39587715Y-124405571D01*
X39696572Y-124804714D02*
X39333715Y-124804714D01*
X39333715Y-124042714D01*
X39696572Y-124042714D01*
X39841715Y-124877286D02*
X40422286Y-124877286D01*
X40531143Y-124042714D02*
X40712572Y-124804714D01*
X40857715Y-124260429D01*
X41002857Y-124804714D01*
X41184286Y-124042714D01*
X41474572Y-124804714D02*
X41474572Y-124042714D01*
X42091429Y-124405571D02*
X41837429Y-124405571D01*
X41837429Y-124804714D02*
X41837429Y-124042714D01*
X42200286Y-124042714D01*
X42490572Y-124804714D02*
X42490572Y-124042714D01*
X42672000Y-124877286D02*
X43252571Y-124877286D01*
X43869428Y-124732143D02*
X43833142Y-124768429D01*
X43724285Y-124804714D01*
X43651714Y-124804714D01*
X43542857Y-124768429D01*
X43470285Y-124695857D01*
X43434000Y-124623286D01*
X43397714Y-124478143D01*
X43397714Y-124369286D01*
X43434000Y-124224143D01*
X43470285Y-124151571D01*
X43542857Y-124079000D01*
X43651714Y-124042714D01*
X43724285Y-124042714D01*
X43833142Y-124079000D01*
X43869428Y-124115286D01*
X44159714Y-124587000D02*
X44522571Y-124587000D01*
X44087142Y-124804714D02*
X44341142Y-124042714D01*
X44595142Y-124804714D01*
X45284571Y-124804714D02*
X45030571Y-124441857D01*
X44849143Y-124804714D02*
X44849143Y-124042714D01*
X45139428Y-124042714D01*
X45212000Y-124079000D01*
X45248285Y-124115286D01*
X45284571Y-124187857D01*
X45284571Y-124296714D01*
X45248285Y-124369286D01*
X45212000Y-124405571D01*
X45139428Y-124441857D01*
X44849143Y-124441857D01*
X45611143Y-124804714D02*
X45611143Y-124042714D01*
X45792571Y-124042714D01*
X45901428Y-124079000D01*
X45974000Y-124151571D01*
X46010285Y-124224143D01*
X46046571Y-124369286D01*
X46046571Y-124478143D01*
X46010285Y-124623286D01*
X45974000Y-124695857D01*
X45901428Y-124768429D01*
X45792571Y-124804714D01*
X45611143Y-124804714D01*
D14*
X42949143Y-104470762D02*
X42996762Y-104518381D01*
X43044381Y-104661238D01*
X43044381Y-104756476D01*
X42996762Y-104899334D01*
X42901524Y-104994572D01*
X42806286Y-105042191D01*
X42615810Y-105089810D01*
X42472952Y-105089810D01*
X42282476Y-105042191D01*
X42187238Y-104994572D01*
X42092000Y-104899334D01*
X42044381Y-104756476D01*
X42044381Y-104661238D01*
X42092000Y-104518381D01*
X42139619Y-104470762D01*
X42044381Y-104042191D02*
X42853905Y-104042191D01*
X42949143Y-103994572D01*
X42996762Y-103946953D01*
X43044381Y-103851715D01*
X43044381Y-103661238D01*
X42996762Y-103566000D01*
X42949143Y-103518381D01*
X42853905Y-103470762D01*
X42044381Y-103470762D01*
X42044381Y-103137429D02*
X42044381Y-102566000D01*
X43044381Y-102851715D02*
X42044381Y-102851715D01*
X42044381Y-101280286D02*
X42044381Y-101089809D01*
X42092000Y-100994571D01*
X42187238Y-100899333D01*
X42377714Y-100851714D01*
X42711048Y-100851714D01*
X42901524Y-100899333D01*
X42996762Y-100994571D01*
X43044381Y-101089809D01*
X43044381Y-101280286D01*
X42996762Y-101375524D01*
X42901524Y-101470762D01*
X42711048Y-101518381D01*
X42377714Y-101518381D01*
X42187238Y-101470762D01*
X42092000Y-101375524D01*
X42044381Y-101280286D01*
X42044381Y-100423143D02*
X42853905Y-100423143D01*
X42949143Y-100375524D01*
X42996762Y-100327905D01*
X43044381Y-100232667D01*
X43044381Y-100042190D01*
X42996762Y-99946952D01*
X42949143Y-99899333D01*
X42853905Y-99851714D01*
X42044381Y-99851714D01*
X42044381Y-99518381D02*
X42044381Y-98946952D01*
X43044381Y-99232667D02*
X42044381Y-99232667D01*
D13*
X30788429Y-134202714D02*
X30788429Y-134819571D01*
X30824714Y-134892143D01*
X30861000Y-134928429D01*
X30933571Y-134964714D01*
X31078714Y-134964714D01*
X31151286Y-134928429D01*
X31187571Y-134892143D01*
X31223857Y-134819571D01*
X31223857Y-134202714D01*
X31550429Y-134928429D02*
X31659286Y-134964714D01*
X31840715Y-134964714D01*
X31913286Y-134928429D01*
X31949572Y-134892143D01*
X31985857Y-134819571D01*
X31985857Y-134747000D01*
X31949572Y-134674429D01*
X31913286Y-134638143D01*
X31840715Y-134601857D01*
X31695572Y-134565571D01*
X31623000Y-134529286D01*
X31586715Y-134493000D01*
X31550429Y-134420429D01*
X31550429Y-134347857D01*
X31586715Y-134275286D01*
X31623000Y-134239000D01*
X31695572Y-134202714D01*
X31877000Y-134202714D01*
X31985857Y-134239000D01*
X32566429Y-134565571D02*
X32675286Y-134601857D01*
X32711571Y-134638143D01*
X32747857Y-134710714D01*
X32747857Y-134819571D01*
X32711571Y-134892143D01*
X32675286Y-134928429D01*
X32602714Y-134964714D01*
X32312429Y-134964714D01*
X32312429Y-134202714D01*
X32566429Y-134202714D01*
X32639000Y-134239000D01*
X32675286Y-134275286D01*
X32711571Y-134347857D01*
X32711571Y-134420429D01*
X32675286Y-134493000D01*
X32639000Y-134529286D01*
X32566429Y-134565571D01*
X32312429Y-134565571D01*
D17*
X48235809Y-133071810D02*
X48284190Y-133071810D01*
X48332571Y-133096000D01*
X48356762Y-133120190D01*
X48380952Y-133168571D01*
X48405143Y-133265333D01*
X48405143Y-133386286D01*
X48380952Y-133483048D01*
X48356762Y-133531429D01*
X48332571Y-133555619D01*
X48284190Y-133579810D01*
X48235809Y-133579810D01*
X48187428Y-133555619D01*
X48163238Y-133531429D01*
X48139047Y-133483048D01*
X48114857Y-133386286D01*
X48114857Y-133265333D01*
X48139047Y-133168571D01*
X48163238Y-133120190D01*
X48187428Y-133096000D01*
X48235809Y-133071810D01*
M02*
