G04 #@! TF.FileFunction,Profile,NP*
%FSLAX46Y46*%
G04 Gerber Fmt 4.6, Leading zero omitted, Abs format (unit mm)*
G04 Created by KiCad (PCBNEW 4.0.5) date Monday, October 16, 2017 'PMt' 01:44:04 PM*
%MOMM*%
%LPD*%
G01*
G04 APERTURE LIST*
%ADD10C,0.100000*%
%ADD11C,0.150000*%
G04 APERTURE END LIST*
D10*
D11*
X33210000Y-142780000D02*
X33210000Y-144780000D01*
X34710000Y-142780000D02*
X34710000Y-144780000D01*
X33210000Y-144780000D02*
X30460000Y-144780000D01*
X49960000Y-142780000D02*
X49960000Y-144780000D01*
X34710000Y-144780000D02*
X49960000Y-144780000D01*
X30460000Y-142780000D02*
X30460000Y-144780000D01*
X50460000Y-142280000D02*
G75*
G03X49960000Y-142780000I0J-500000D01*
G01*
X30460000Y-142780000D02*
G75*
G03X29960000Y-142280000I-500000J0D01*
G01*
X34710000Y-142780000D02*
G75*
G03X33210000Y-142780000I-750000J0D01*
G01*
X51210000Y-122780000D02*
G75*
G03X50460000Y-122030000I-750000J0D01*
G01*
X50460000Y-142280000D02*
G75*
G03X51210000Y-141530000I0J750000D01*
G01*
X29210000Y-141530000D02*
G75*
G03X29960000Y-142280000I750000J0D01*
G01*
X29960000Y-64780000D02*
G75*
G03X29210000Y-65530000I0J-750000D01*
G01*
X51210000Y-65530000D02*
G75*
G03X50460000Y-64780000I-750000J0D01*
G01*
X50460000Y-82780000D02*
G75*
G03X51210000Y-82030000I0J750000D01*
G01*
X33710000Y-121280000D02*
G75*
G03X34460000Y-122030000I750000J0D01*
G01*
X34460000Y-82780000D02*
G75*
G03X33710000Y-83530000I0J-750000D01*
G01*
X51210000Y-141530000D02*
X51210000Y-122780000D01*
X34460000Y-122030000D02*
X50460000Y-122030000D01*
X33710000Y-83530000D02*
X33710000Y-121280000D01*
X50460000Y-82780000D02*
X34460000Y-82780000D01*
X29210000Y-141530000D02*
X29210000Y-65530000D01*
X51210000Y-65530000D02*
X51210000Y-82030000D01*
X29960000Y-64780000D02*
X50460000Y-64780000D01*
M02*
