G04 #@! TF.FileFunction,Legend,Top*
%FSLAX46Y46*%
G04 Gerber Fmt 4.6, Leading zero omitted, Abs format (unit mm)*
G04 Created by KiCad (PCBNEW 4.0.5) date Wednesday, September 13, 2017 'PMt' 01:05:14 PM*
%MOMM*%
%LPD*%
G01*
G04 APERTURE LIST*
%ADD10C,0.100000*%
%ADD11C,0.190500*%
%ADD12C,0.150000*%
%ADD13C,0.152400*%
%ADD14C,0.050800*%
%ADD15C,0.114300*%
G04 APERTURE END LIST*
D10*
D11*
X121874714Y-136180285D02*
X121874714Y-136543142D01*
X121112714Y-136543142D01*
X121475571Y-135926285D02*
X121475571Y-135672285D01*
X121874714Y-135563428D02*
X121874714Y-135926285D01*
X121112714Y-135926285D01*
X121112714Y-135563428D01*
X121874714Y-135236856D02*
X121112714Y-135236856D01*
X121112714Y-135055428D01*
X121149000Y-134946571D01*
X121221571Y-134873999D01*
X121294143Y-134837714D01*
X121439286Y-134801428D01*
X121548143Y-134801428D01*
X121693286Y-134837714D01*
X121765857Y-134873999D01*
X121838429Y-134946571D01*
X121874714Y-135055428D01*
X121874714Y-135236856D01*
X121947286Y-134656285D02*
X121947286Y-134075714D01*
X121475571Y-133640285D02*
X121511857Y-133531428D01*
X121548143Y-133495143D01*
X121620714Y-133458857D01*
X121729571Y-133458857D01*
X121802143Y-133495143D01*
X121838429Y-133531428D01*
X121874714Y-133604000D01*
X121874714Y-133894285D01*
X121112714Y-133894285D01*
X121112714Y-133640285D01*
X121149000Y-133567714D01*
X121185286Y-133531428D01*
X121257857Y-133495143D01*
X121330429Y-133495143D01*
X121403000Y-133531428D01*
X121439286Y-133567714D01*
X121475571Y-133640285D01*
X121475571Y-133894285D01*
X121874714Y-132696857D02*
X121511857Y-132950857D01*
X121874714Y-133132285D02*
X121112714Y-133132285D01*
X121112714Y-132842000D01*
X121149000Y-132769428D01*
X121185286Y-132733143D01*
X121257857Y-132696857D01*
X121366714Y-132696857D01*
X121439286Y-132733143D01*
X121475571Y-132769428D01*
X121511857Y-132842000D01*
X121511857Y-133132285D01*
X121874714Y-132370285D02*
X121112714Y-132370285D01*
X121874714Y-132007428D02*
X121112714Y-132007428D01*
X121112714Y-131826000D01*
X121149000Y-131717143D01*
X121221571Y-131644571D01*
X121294143Y-131608286D01*
X121439286Y-131572000D01*
X121548143Y-131572000D01*
X121693286Y-131608286D01*
X121765857Y-131644571D01*
X121838429Y-131717143D01*
X121874714Y-131826000D01*
X121874714Y-132007428D01*
X121149000Y-130846286D02*
X121112714Y-130918857D01*
X121112714Y-131027714D01*
X121149000Y-131136571D01*
X121221571Y-131209143D01*
X121294143Y-131245428D01*
X121439286Y-131281714D01*
X121548143Y-131281714D01*
X121693286Y-131245428D01*
X121765857Y-131209143D01*
X121838429Y-131136571D01*
X121874714Y-131027714D01*
X121874714Y-130955143D01*
X121838429Y-130846286D01*
X121802143Y-130810000D01*
X121548143Y-130810000D01*
X121548143Y-130955143D01*
X121475571Y-130483428D02*
X121475571Y-130229428D01*
X121874714Y-130120571D02*
X121874714Y-130483428D01*
X121112714Y-130483428D01*
X121112714Y-130120571D01*
X106979428Y-130429000D02*
X106906857Y-130392714D01*
X106798000Y-130392714D01*
X106689143Y-130429000D01*
X106616571Y-130501571D01*
X106580286Y-130574143D01*
X106544000Y-130719286D01*
X106544000Y-130828143D01*
X106580286Y-130973286D01*
X106616571Y-131045857D01*
X106689143Y-131118429D01*
X106798000Y-131154714D01*
X106870571Y-131154714D01*
X106979428Y-131118429D01*
X107015714Y-131082143D01*
X107015714Y-130828143D01*
X106870571Y-130828143D01*
X107342286Y-131154714D02*
X107342286Y-130392714D01*
X107777714Y-131154714D01*
X107777714Y-130392714D01*
X108140572Y-131154714D02*
X108140572Y-130392714D01*
X108322000Y-130392714D01*
X108430857Y-130429000D01*
X108503429Y-130501571D01*
X108539714Y-130574143D01*
X108576000Y-130719286D01*
X108576000Y-130828143D01*
X108539714Y-130973286D01*
X108503429Y-131045857D01*
X108430857Y-131118429D01*
X108322000Y-131154714D01*
X108140572Y-131154714D01*
X106888715Y-127344714D02*
X106888715Y-126582714D01*
X107070143Y-126582714D01*
X107179000Y-126619000D01*
X107251572Y-126691571D01*
X107287857Y-126764143D01*
X107324143Y-126909286D01*
X107324143Y-127018143D01*
X107287857Y-127163286D01*
X107251572Y-127235857D01*
X107179000Y-127308429D01*
X107070143Y-127344714D01*
X106888715Y-127344714D01*
X107650715Y-127054429D02*
X108231286Y-127054429D01*
X109519428Y-129159000D02*
X109446857Y-129122714D01*
X109338000Y-129122714D01*
X109229143Y-129159000D01*
X109156571Y-129231571D01*
X109120286Y-129304143D01*
X109084000Y-129449286D01*
X109084000Y-129558143D01*
X109120286Y-129703286D01*
X109156571Y-129775857D01*
X109229143Y-129848429D01*
X109338000Y-129884714D01*
X109410571Y-129884714D01*
X109519428Y-129848429D01*
X109555714Y-129812143D01*
X109555714Y-129558143D01*
X109410571Y-129558143D01*
X109882286Y-129884714D02*
X109882286Y-129122714D01*
X110317714Y-129884714D01*
X110317714Y-129122714D01*
X110680572Y-129884714D02*
X110680572Y-129122714D01*
X110862000Y-129122714D01*
X110970857Y-129159000D01*
X111043429Y-129231571D01*
X111079714Y-129304143D01*
X111116000Y-129449286D01*
X111116000Y-129558143D01*
X111079714Y-129703286D01*
X111043429Y-129775857D01*
X110970857Y-129848429D01*
X110862000Y-129884714D01*
X110680572Y-129884714D01*
X114599428Y-129159000D02*
X114526857Y-129122714D01*
X114418000Y-129122714D01*
X114309143Y-129159000D01*
X114236571Y-129231571D01*
X114200286Y-129304143D01*
X114164000Y-129449286D01*
X114164000Y-129558143D01*
X114200286Y-129703286D01*
X114236571Y-129775857D01*
X114309143Y-129848429D01*
X114418000Y-129884714D01*
X114490571Y-129884714D01*
X114599428Y-129848429D01*
X114635714Y-129812143D01*
X114635714Y-129558143D01*
X114490571Y-129558143D01*
X114962286Y-129884714D02*
X114962286Y-129122714D01*
X115397714Y-129884714D01*
X115397714Y-129122714D01*
X115760572Y-129884714D02*
X115760572Y-129122714D01*
X115942000Y-129122714D01*
X116050857Y-129159000D01*
X116123429Y-129231571D01*
X116159714Y-129304143D01*
X116196000Y-129449286D01*
X116196000Y-129558143D01*
X116159714Y-129703286D01*
X116123429Y-129775857D01*
X116050857Y-129848429D01*
X115942000Y-129884714D01*
X115760572Y-129884714D01*
X106888715Y-128614714D02*
X106888715Y-127852714D01*
X107070143Y-127852714D01*
X107179000Y-127889000D01*
X107251572Y-127961571D01*
X107287857Y-128034143D01*
X107324143Y-128179286D01*
X107324143Y-128288143D01*
X107287857Y-128433286D01*
X107251572Y-128505857D01*
X107179000Y-128578429D01*
X107070143Y-128614714D01*
X106888715Y-128614714D01*
X107650715Y-128324429D02*
X108231286Y-128324429D01*
X107941000Y-128614714D02*
X107941000Y-128034143D01*
X97874714Y-136180285D02*
X97874714Y-136543142D01*
X97112714Y-136543142D01*
X97475571Y-135926285D02*
X97475571Y-135672285D01*
X97874714Y-135563428D02*
X97874714Y-135926285D01*
X97112714Y-135926285D01*
X97112714Y-135563428D01*
X97874714Y-135236856D02*
X97112714Y-135236856D01*
X97112714Y-135055428D01*
X97149000Y-134946571D01*
X97221571Y-134873999D01*
X97294143Y-134837714D01*
X97439286Y-134801428D01*
X97548143Y-134801428D01*
X97693286Y-134837714D01*
X97765857Y-134873999D01*
X97838429Y-134946571D01*
X97874714Y-135055428D01*
X97874714Y-135236856D01*
X97947286Y-134656285D02*
X97947286Y-134075714D01*
X97475571Y-133640285D02*
X97511857Y-133531428D01*
X97548143Y-133495143D01*
X97620714Y-133458857D01*
X97729571Y-133458857D01*
X97802143Y-133495143D01*
X97838429Y-133531428D01*
X97874714Y-133604000D01*
X97874714Y-133894285D01*
X97112714Y-133894285D01*
X97112714Y-133640285D01*
X97149000Y-133567714D01*
X97185286Y-133531428D01*
X97257857Y-133495143D01*
X97330429Y-133495143D01*
X97403000Y-133531428D01*
X97439286Y-133567714D01*
X97475571Y-133640285D01*
X97475571Y-133894285D01*
X97874714Y-132696857D02*
X97511857Y-132950857D01*
X97874714Y-133132285D02*
X97112714Y-133132285D01*
X97112714Y-132842000D01*
X97149000Y-132769428D01*
X97185286Y-132733143D01*
X97257857Y-132696857D01*
X97366714Y-132696857D01*
X97439286Y-132733143D01*
X97475571Y-132769428D01*
X97511857Y-132842000D01*
X97511857Y-133132285D01*
X97874714Y-132370285D02*
X97112714Y-132370285D01*
X97874714Y-132007428D02*
X97112714Y-132007428D01*
X97112714Y-131826000D01*
X97149000Y-131717143D01*
X97221571Y-131644571D01*
X97294143Y-131608286D01*
X97439286Y-131572000D01*
X97548143Y-131572000D01*
X97693286Y-131608286D01*
X97765857Y-131644571D01*
X97838429Y-131717143D01*
X97874714Y-131826000D01*
X97874714Y-132007428D01*
X97149000Y-130846286D02*
X97112714Y-130918857D01*
X97112714Y-131027714D01*
X97149000Y-131136571D01*
X97221571Y-131209143D01*
X97294143Y-131245428D01*
X97439286Y-131281714D01*
X97548143Y-131281714D01*
X97693286Y-131245428D01*
X97765857Y-131209143D01*
X97838429Y-131136571D01*
X97874714Y-131027714D01*
X97874714Y-130955143D01*
X97838429Y-130846286D01*
X97802143Y-130810000D01*
X97548143Y-130810000D01*
X97548143Y-130955143D01*
X97475571Y-130483428D02*
X97475571Y-130229428D01*
X97874714Y-130120571D02*
X97874714Y-130483428D01*
X97112714Y-130483428D01*
X97112714Y-130120571D01*
X82906858Y-141949714D02*
X82906858Y-141187714D01*
X83160858Y-141732000D01*
X83414858Y-141187714D01*
X83414858Y-141949714D01*
X83777715Y-141877143D02*
X83814000Y-141913429D01*
X83777715Y-141949714D01*
X83741429Y-141913429D01*
X83777715Y-141877143D01*
X83777715Y-141949714D01*
X84104286Y-141260286D02*
X84140572Y-141224000D01*
X84213143Y-141187714D01*
X84394572Y-141187714D01*
X84467143Y-141224000D01*
X84503429Y-141260286D01*
X84539714Y-141332857D01*
X84539714Y-141405429D01*
X84503429Y-141514286D01*
X84068000Y-141949714D01*
X84539714Y-141949714D01*
X84684857Y-142022286D02*
X85265428Y-142022286D01*
X85882285Y-141877143D02*
X85845999Y-141913429D01*
X85737142Y-141949714D01*
X85664571Y-141949714D01*
X85555714Y-141913429D01*
X85483142Y-141840857D01*
X85446857Y-141768286D01*
X85410571Y-141623143D01*
X85410571Y-141514286D01*
X85446857Y-141369143D01*
X85483142Y-141296571D01*
X85555714Y-141224000D01*
X85664571Y-141187714D01*
X85737142Y-141187714D01*
X85845999Y-141224000D01*
X85882285Y-141260286D01*
X86353999Y-141187714D02*
X86499142Y-141187714D01*
X86571714Y-141224000D01*
X86644285Y-141296571D01*
X86680571Y-141441714D01*
X86680571Y-141695714D01*
X86644285Y-141840857D01*
X86571714Y-141913429D01*
X86499142Y-141949714D01*
X86353999Y-141949714D01*
X86281428Y-141913429D01*
X86208857Y-141840857D01*
X86172571Y-141695714D01*
X86172571Y-141441714D01*
X86208857Y-141296571D01*
X86281428Y-141224000D01*
X86353999Y-141187714D01*
X87007143Y-141949714D02*
X87007143Y-141187714D01*
X87442571Y-141949714D01*
X87442571Y-141187714D01*
X87805429Y-141949714D02*
X87805429Y-141187714D01*
X88240857Y-141949714D01*
X88240857Y-141187714D01*
X88603715Y-141550571D02*
X88857715Y-141550571D01*
X88966572Y-141949714D02*
X88603715Y-141949714D01*
X88603715Y-141187714D01*
X88966572Y-141187714D01*
X89728572Y-141877143D02*
X89692286Y-141913429D01*
X89583429Y-141949714D01*
X89510858Y-141949714D01*
X89402001Y-141913429D01*
X89329429Y-141840857D01*
X89293144Y-141768286D01*
X89256858Y-141623143D01*
X89256858Y-141514286D01*
X89293144Y-141369143D01*
X89329429Y-141296571D01*
X89402001Y-141224000D01*
X89510858Y-141187714D01*
X89583429Y-141187714D01*
X89692286Y-141224000D01*
X89728572Y-141260286D01*
X89946286Y-141187714D02*
X90381715Y-141187714D01*
X90164001Y-141949714D02*
X90164001Y-141187714D01*
X90780857Y-141187714D02*
X90926000Y-141187714D01*
X90998572Y-141224000D01*
X91071143Y-141296571D01*
X91107429Y-141441714D01*
X91107429Y-141695714D01*
X91071143Y-141840857D01*
X90998572Y-141913429D01*
X90926000Y-141949714D01*
X90780857Y-141949714D01*
X90708286Y-141913429D01*
X90635715Y-141840857D01*
X90599429Y-141695714D01*
X90599429Y-141441714D01*
X90635715Y-141296571D01*
X90708286Y-141224000D01*
X90780857Y-141187714D01*
X91869429Y-141949714D02*
X91615429Y-141586857D01*
X91434001Y-141949714D02*
X91434001Y-141187714D01*
X91724286Y-141187714D01*
X91796858Y-141224000D01*
X91833143Y-141260286D01*
X91869429Y-141332857D01*
X91869429Y-141441714D01*
X91833143Y-141514286D01*
X91796858Y-141550571D01*
X91724286Y-141586857D01*
X91434001Y-141586857D01*
X85519428Y-129159000D02*
X85446857Y-129122714D01*
X85338000Y-129122714D01*
X85229143Y-129159000D01*
X85156571Y-129231571D01*
X85120286Y-129304143D01*
X85084000Y-129449286D01*
X85084000Y-129558143D01*
X85120286Y-129703286D01*
X85156571Y-129775857D01*
X85229143Y-129848429D01*
X85338000Y-129884714D01*
X85410571Y-129884714D01*
X85519428Y-129848429D01*
X85555714Y-129812143D01*
X85555714Y-129558143D01*
X85410571Y-129558143D01*
X85882286Y-129884714D02*
X85882286Y-129122714D01*
X86317714Y-129884714D01*
X86317714Y-129122714D01*
X86680572Y-129884714D02*
X86680572Y-129122714D01*
X86862000Y-129122714D01*
X86970857Y-129159000D01*
X87043429Y-129231571D01*
X87079714Y-129304143D01*
X87116000Y-129449286D01*
X87116000Y-129558143D01*
X87079714Y-129703286D01*
X87043429Y-129775857D01*
X86970857Y-129848429D01*
X86862000Y-129884714D01*
X86680572Y-129884714D01*
X82979428Y-130429000D02*
X82906857Y-130392714D01*
X82798000Y-130392714D01*
X82689143Y-130429000D01*
X82616571Y-130501571D01*
X82580286Y-130574143D01*
X82544000Y-130719286D01*
X82544000Y-130828143D01*
X82580286Y-130973286D01*
X82616571Y-131045857D01*
X82689143Y-131118429D01*
X82798000Y-131154714D01*
X82870571Y-131154714D01*
X82979428Y-131118429D01*
X83015714Y-131082143D01*
X83015714Y-130828143D01*
X82870571Y-130828143D01*
X83342286Y-131154714D02*
X83342286Y-130392714D01*
X83777714Y-131154714D01*
X83777714Y-130392714D01*
X84140572Y-131154714D02*
X84140572Y-130392714D01*
X84322000Y-130392714D01*
X84430857Y-130429000D01*
X84503429Y-130501571D01*
X84539714Y-130574143D01*
X84576000Y-130719286D01*
X84576000Y-130828143D01*
X84539714Y-130973286D01*
X84503429Y-131045857D01*
X84430857Y-131118429D01*
X84322000Y-131154714D01*
X84140572Y-131154714D01*
X82888715Y-127344714D02*
X82888715Y-126582714D01*
X83070143Y-126582714D01*
X83179000Y-126619000D01*
X83251572Y-126691571D01*
X83287857Y-126764143D01*
X83324143Y-126909286D01*
X83324143Y-127018143D01*
X83287857Y-127163286D01*
X83251572Y-127235857D01*
X83179000Y-127308429D01*
X83070143Y-127344714D01*
X82888715Y-127344714D01*
X83650715Y-127054429D02*
X84231286Y-127054429D01*
X82888715Y-128614714D02*
X82888715Y-127852714D01*
X83070143Y-127852714D01*
X83179000Y-127889000D01*
X83251572Y-127961571D01*
X83287857Y-128034143D01*
X83324143Y-128179286D01*
X83324143Y-128288143D01*
X83287857Y-128433286D01*
X83251572Y-128505857D01*
X83179000Y-128578429D01*
X83070143Y-128614714D01*
X82888715Y-128614714D01*
X83650715Y-128324429D02*
X84231286Y-128324429D01*
X83941000Y-128614714D02*
X83941000Y-128034143D01*
X90599428Y-129159000D02*
X90526857Y-129122714D01*
X90418000Y-129122714D01*
X90309143Y-129159000D01*
X90236571Y-129231571D01*
X90200286Y-129304143D01*
X90164000Y-129449286D01*
X90164000Y-129558143D01*
X90200286Y-129703286D01*
X90236571Y-129775857D01*
X90309143Y-129848429D01*
X90418000Y-129884714D01*
X90490571Y-129884714D01*
X90599428Y-129848429D01*
X90635714Y-129812143D01*
X90635714Y-129558143D01*
X90490571Y-129558143D01*
X90962286Y-129884714D02*
X90962286Y-129122714D01*
X91397714Y-129884714D01*
X91397714Y-129122714D01*
X91760572Y-129884714D02*
X91760572Y-129122714D01*
X91942000Y-129122714D01*
X92050857Y-129159000D01*
X92123429Y-129231571D01*
X92159714Y-129304143D01*
X92196000Y-129449286D01*
X92196000Y-129558143D01*
X92159714Y-129703286D01*
X92123429Y-129775857D01*
X92050857Y-129848429D01*
X91942000Y-129884714D01*
X91760572Y-129884714D01*
X106906858Y-141949714D02*
X106906858Y-141187714D01*
X107160858Y-141732000D01*
X107414858Y-141187714D01*
X107414858Y-141949714D01*
X107777715Y-141877143D02*
X107814000Y-141913429D01*
X107777715Y-141949714D01*
X107741429Y-141913429D01*
X107777715Y-141877143D01*
X107777715Y-141949714D01*
X108104286Y-141260286D02*
X108140572Y-141224000D01*
X108213143Y-141187714D01*
X108394572Y-141187714D01*
X108467143Y-141224000D01*
X108503429Y-141260286D01*
X108539714Y-141332857D01*
X108539714Y-141405429D01*
X108503429Y-141514286D01*
X108068000Y-141949714D01*
X108539714Y-141949714D01*
X108684857Y-142022286D02*
X109265428Y-142022286D01*
X109882285Y-141877143D02*
X109845999Y-141913429D01*
X109737142Y-141949714D01*
X109664571Y-141949714D01*
X109555714Y-141913429D01*
X109483142Y-141840857D01*
X109446857Y-141768286D01*
X109410571Y-141623143D01*
X109410571Y-141514286D01*
X109446857Y-141369143D01*
X109483142Y-141296571D01*
X109555714Y-141224000D01*
X109664571Y-141187714D01*
X109737142Y-141187714D01*
X109845999Y-141224000D01*
X109882285Y-141260286D01*
X110353999Y-141187714D02*
X110499142Y-141187714D01*
X110571714Y-141224000D01*
X110644285Y-141296571D01*
X110680571Y-141441714D01*
X110680571Y-141695714D01*
X110644285Y-141840857D01*
X110571714Y-141913429D01*
X110499142Y-141949714D01*
X110353999Y-141949714D01*
X110281428Y-141913429D01*
X110208857Y-141840857D01*
X110172571Y-141695714D01*
X110172571Y-141441714D01*
X110208857Y-141296571D01*
X110281428Y-141224000D01*
X110353999Y-141187714D01*
X111007143Y-141949714D02*
X111007143Y-141187714D01*
X111442571Y-141949714D01*
X111442571Y-141187714D01*
X111805429Y-141949714D02*
X111805429Y-141187714D01*
X112240857Y-141949714D01*
X112240857Y-141187714D01*
X112603715Y-141550571D02*
X112857715Y-141550571D01*
X112966572Y-141949714D02*
X112603715Y-141949714D01*
X112603715Y-141187714D01*
X112966572Y-141187714D01*
X113728572Y-141877143D02*
X113692286Y-141913429D01*
X113583429Y-141949714D01*
X113510858Y-141949714D01*
X113402001Y-141913429D01*
X113329429Y-141840857D01*
X113293144Y-141768286D01*
X113256858Y-141623143D01*
X113256858Y-141514286D01*
X113293144Y-141369143D01*
X113329429Y-141296571D01*
X113402001Y-141224000D01*
X113510858Y-141187714D01*
X113583429Y-141187714D01*
X113692286Y-141224000D01*
X113728572Y-141260286D01*
X113946286Y-141187714D02*
X114381715Y-141187714D01*
X114164001Y-141949714D02*
X114164001Y-141187714D01*
X114780857Y-141187714D02*
X114926000Y-141187714D01*
X114998572Y-141224000D01*
X115071143Y-141296571D01*
X115107429Y-141441714D01*
X115107429Y-141695714D01*
X115071143Y-141840857D01*
X114998572Y-141913429D01*
X114926000Y-141949714D01*
X114780857Y-141949714D01*
X114708286Y-141913429D01*
X114635715Y-141840857D01*
X114599429Y-141695714D01*
X114599429Y-141441714D01*
X114635715Y-141296571D01*
X114708286Y-141224000D01*
X114780857Y-141187714D01*
X115869429Y-141949714D02*
X115615429Y-141586857D01*
X115434001Y-141949714D02*
X115434001Y-141187714D01*
X115724286Y-141187714D01*
X115796858Y-141224000D01*
X115833143Y-141260286D01*
X115869429Y-141332857D01*
X115869429Y-141441714D01*
X115833143Y-141514286D01*
X115796858Y-141550571D01*
X115724286Y-141586857D01*
X115434001Y-141586857D01*
X73874714Y-136180285D02*
X73874714Y-136543142D01*
X73112714Y-136543142D01*
X73475571Y-135926285D02*
X73475571Y-135672285D01*
X73874714Y-135563428D02*
X73874714Y-135926285D01*
X73112714Y-135926285D01*
X73112714Y-135563428D01*
X73874714Y-135236856D02*
X73112714Y-135236856D01*
X73112714Y-135055428D01*
X73149000Y-134946571D01*
X73221571Y-134873999D01*
X73294143Y-134837714D01*
X73439286Y-134801428D01*
X73548143Y-134801428D01*
X73693286Y-134837714D01*
X73765857Y-134873999D01*
X73838429Y-134946571D01*
X73874714Y-135055428D01*
X73874714Y-135236856D01*
X73947286Y-134656285D02*
X73947286Y-134075714D01*
X73475571Y-133640285D02*
X73511857Y-133531428D01*
X73548143Y-133495143D01*
X73620714Y-133458857D01*
X73729571Y-133458857D01*
X73802143Y-133495143D01*
X73838429Y-133531428D01*
X73874714Y-133604000D01*
X73874714Y-133894285D01*
X73112714Y-133894285D01*
X73112714Y-133640285D01*
X73149000Y-133567714D01*
X73185286Y-133531428D01*
X73257857Y-133495143D01*
X73330429Y-133495143D01*
X73403000Y-133531428D01*
X73439286Y-133567714D01*
X73475571Y-133640285D01*
X73475571Y-133894285D01*
X73874714Y-132696857D02*
X73511857Y-132950857D01*
X73874714Y-133132285D02*
X73112714Y-133132285D01*
X73112714Y-132842000D01*
X73149000Y-132769428D01*
X73185286Y-132733143D01*
X73257857Y-132696857D01*
X73366714Y-132696857D01*
X73439286Y-132733143D01*
X73475571Y-132769428D01*
X73511857Y-132842000D01*
X73511857Y-133132285D01*
X73874714Y-132370285D02*
X73112714Y-132370285D01*
X73874714Y-132007428D02*
X73112714Y-132007428D01*
X73112714Y-131826000D01*
X73149000Y-131717143D01*
X73221571Y-131644571D01*
X73294143Y-131608286D01*
X73439286Y-131572000D01*
X73548143Y-131572000D01*
X73693286Y-131608286D01*
X73765857Y-131644571D01*
X73838429Y-131717143D01*
X73874714Y-131826000D01*
X73874714Y-132007428D01*
X73149000Y-130846286D02*
X73112714Y-130918857D01*
X73112714Y-131027714D01*
X73149000Y-131136571D01*
X73221571Y-131209143D01*
X73294143Y-131245428D01*
X73439286Y-131281714D01*
X73548143Y-131281714D01*
X73693286Y-131245428D01*
X73765857Y-131209143D01*
X73838429Y-131136571D01*
X73874714Y-131027714D01*
X73874714Y-130955143D01*
X73838429Y-130846286D01*
X73802143Y-130810000D01*
X73548143Y-130810000D01*
X73548143Y-130955143D01*
X73475571Y-130483428D02*
X73475571Y-130229428D01*
X73874714Y-130120571D02*
X73874714Y-130483428D01*
X73112714Y-130483428D01*
X73112714Y-130120571D01*
X58888715Y-128614714D02*
X58888715Y-127852714D01*
X59070143Y-127852714D01*
X59179000Y-127889000D01*
X59251572Y-127961571D01*
X59287857Y-128034143D01*
X59324143Y-128179286D01*
X59324143Y-128288143D01*
X59287857Y-128433286D01*
X59251572Y-128505857D01*
X59179000Y-128578429D01*
X59070143Y-128614714D01*
X58888715Y-128614714D01*
X59650715Y-128324429D02*
X60231286Y-128324429D01*
X59941000Y-128614714D02*
X59941000Y-128034143D01*
X58888715Y-127344714D02*
X58888715Y-126582714D01*
X59070143Y-126582714D01*
X59179000Y-126619000D01*
X59251572Y-126691571D01*
X59287857Y-126764143D01*
X59324143Y-126909286D01*
X59324143Y-127018143D01*
X59287857Y-127163286D01*
X59251572Y-127235857D01*
X59179000Y-127308429D01*
X59070143Y-127344714D01*
X58888715Y-127344714D01*
X59650715Y-127054429D02*
X60231286Y-127054429D01*
X61519428Y-129159000D02*
X61446857Y-129122714D01*
X61338000Y-129122714D01*
X61229143Y-129159000D01*
X61156571Y-129231571D01*
X61120286Y-129304143D01*
X61084000Y-129449286D01*
X61084000Y-129558143D01*
X61120286Y-129703286D01*
X61156571Y-129775857D01*
X61229143Y-129848429D01*
X61338000Y-129884714D01*
X61410571Y-129884714D01*
X61519428Y-129848429D01*
X61555714Y-129812143D01*
X61555714Y-129558143D01*
X61410571Y-129558143D01*
X61882286Y-129884714D02*
X61882286Y-129122714D01*
X62317714Y-129884714D01*
X62317714Y-129122714D01*
X62680572Y-129884714D02*
X62680572Y-129122714D01*
X62862000Y-129122714D01*
X62970857Y-129159000D01*
X63043429Y-129231571D01*
X63079714Y-129304143D01*
X63116000Y-129449286D01*
X63116000Y-129558143D01*
X63079714Y-129703286D01*
X63043429Y-129775857D01*
X62970857Y-129848429D01*
X62862000Y-129884714D01*
X62680572Y-129884714D01*
X58979428Y-130429000D02*
X58906857Y-130392714D01*
X58798000Y-130392714D01*
X58689143Y-130429000D01*
X58616571Y-130501571D01*
X58580286Y-130574143D01*
X58544000Y-130719286D01*
X58544000Y-130828143D01*
X58580286Y-130973286D01*
X58616571Y-131045857D01*
X58689143Y-131118429D01*
X58798000Y-131154714D01*
X58870571Y-131154714D01*
X58979428Y-131118429D01*
X59015714Y-131082143D01*
X59015714Y-130828143D01*
X58870571Y-130828143D01*
X59342286Y-131154714D02*
X59342286Y-130392714D01*
X59777714Y-131154714D01*
X59777714Y-130392714D01*
X60140572Y-131154714D02*
X60140572Y-130392714D01*
X60322000Y-130392714D01*
X60430857Y-130429000D01*
X60503429Y-130501571D01*
X60539714Y-130574143D01*
X60576000Y-130719286D01*
X60576000Y-130828143D01*
X60539714Y-130973286D01*
X60503429Y-131045857D01*
X60430857Y-131118429D01*
X60322000Y-131154714D01*
X60140572Y-131154714D01*
X66599428Y-129159000D02*
X66526857Y-129122714D01*
X66418000Y-129122714D01*
X66309143Y-129159000D01*
X66236571Y-129231571D01*
X66200286Y-129304143D01*
X66164000Y-129449286D01*
X66164000Y-129558143D01*
X66200286Y-129703286D01*
X66236571Y-129775857D01*
X66309143Y-129848429D01*
X66418000Y-129884714D01*
X66490571Y-129884714D01*
X66599428Y-129848429D01*
X66635714Y-129812143D01*
X66635714Y-129558143D01*
X66490571Y-129558143D01*
X66962286Y-129884714D02*
X66962286Y-129122714D01*
X67397714Y-129884714D01*
X67397714Y-129122714D01*
X67760572Y-129884714D02*
X67760572Y-129122714D01*
X67942000Y-129122714D01*
X68050857Y-129159000D01*
X68123429Y-129231571D01*
X68159714Y-129304143D01*
X68196000Y-129449286D01*
X68196000Y-129558143D01*
X68159714Y-129703286D01*
X68123429Y-129775857D01*
X68050857Y-129848429D01*
X67942000Y-129884714D01*
X67760572Y-129884714D01*
X58906858Y-141949714D02*
X58906858Y-141187714D01*
X59160858Y-141732000D01*
X59414858Y-141187714D01*
X59414858Y-141949714D01*
X59777715Y-141877143D02*
X59814000Y-141913429D01*
X59777715Y-141949714D01*
X59741429Y-141913429D01*
X59777715Y-141877143D01*
X59777715Y-141949714D01*
X60104286Y-141260286D02*
X60140572Y-141224000D01*
X60213143Y-141187714D01*
X60394572Y-141187714D01*
X60467143Y-141224000D01*
X60503429Y-141260286D01*
X60539714Y-141332857D01*
X60539714Y-141405429D01*
X60503429Y-141514286D01*
X60068000Y-141949714D01*
X60539714Y-141949714D01*
X60684857Y-142022286D02*
X61265428Y-142022286D01*
X61882285Y-141877143D02*
X61845999Y-141913429D01*
X61737142Y-141949714D01*
X61664571Y-141949714D01*
X61555714Y-141913429D01*
X61483142Y-141840857D01*
X61446857Y-141768286D01*
X61410571Y-141623143D01*
X61410571Y-141514286D01*
X61446857Y-141369143D01*
X61483142Y-141296571D01*
X61555714Y-141224000D01*
X61664571Y-141187714D01*
X61737142Y-141187714D01*
X61845999Y-141224000D01*
X61882285Y-141260286D01*
X62353999Y-141187714D02*
X62499142Y-141187714D01*
X62571714Y-141224000D01*
X62644285Y-141296571D01*
X62680571Y-141441714D01*
X62680571Y-141695714D01*
X62644285Y-141840857D01*
X62571714Y-141913429D01*
X62499142Y-141949714D01*
X62353999Y-141949714D01*
X62281428Y-141913429D01*
X62208857Y-141840857D01*
X62172571Y-141695714D01*
X62172571Y-141441714D01*
X62208857Y-141296571D01*
X62281428Y-141224000D01*
X62353999Y-141187714D01*
X63007143Y-141949714D02*
X63007143Y-141187714D01*
X63442571Y-141949714D01*
X63442571Y-141187714D01*
X63805429Y-141949714D02*
X63805429Y-141187714D01*
X64240857Y-141949714D01*
X64240857Y-141187714D01*
X64603715Y-141550571D02*
X64857715Y-141550571D01*
X64966572Y-141949714D02*
X64603715Y-141949714D01*
X64603715Y-141187714D01*
X64966572Y-141187714D01*
X65728572Y-141877143D02*
X65692286Y-141913429D01*
X65583429Y-141949714D01*
X65510858Y-141949714D01*
X65402001Y-141913429D01*
X65329429Y-141840857D01*
X65293144Y-141768286D01*
X65256858Y-141623143D01*
X65256858Y-141514286D01*
X65293144Y-141369143D01*
X65329429Y-141296571D01*
X65402001Y-141224000D01*
X65510858Y-141187714D01*
X65583429Y-141187714D01*
X65692286Y-141224000D01*
X65728572Y-141260286D01*
X65946286Y-141187714D02*
X66381715Y-141187714D01*
X66164001Y-141949714D02*
X66164001Y-141187714D01*
X66780857Y-141187714D02*
X66926000Y-141187714D01*
X66998572Y-141224000D01*
X67071143Y-141296571D01*
X67107429Y-141441714D01*
X67107429Y-141695714D01*
X67071143Y-141840857D01*
X66998572Y-141913429D01*
X66926000Y-141949714D01*
X66780857Y-141949714D01*
X66708286Y-141913429D01*
X66635715Y-141840857D01*
X66599429Y-141695714D01*
X66599429Y-141441714D01*
X66635715Y-141296571D01*
X66708286Y-141224000D01*
X66780857Y-141187714D01*
X67869429Y-141949714D02*
X67615429Y-141586857D01*
X67434001Y-141949714D02*
X67434001Y-141187714D01*
X67724286Y-141187714D01*
X67796858Y-141224000D01*
X67833143Y-141260286D01*
X67869429Y-141332857D01*
X67869429Y-141441714D01*
X67833143Y-141514286D01*
X67796858Y-141550571D01*
X67724286Y-141586857D01*
X67434001Y-141586857D01*
X34906858Y-141949714D02*
X34906858Y-141187714D01*
X35160858Y-141732000D01*
X35414858Y-141187714D01*
X35414858Y-141949714D01*
X35777715Y-141877143D02*
X35814000Y-141913429D01*
X35777715Y-141949714D01*
X35741429Y-141913429D01*
X35777715Y-141877143D01*
X35777715Y-141949714D01*
X36104286Y-141260286D02*
X36140572Y-141224000D01*
X36213143Y-141187714D01*
X36394572Y-141187714D01*
X36467143Y-141224000D01*
X36503429Y-141260286D01*
X36539714Y-141332857D01*
X36539714Y-141405429D01*
X36503429Y-141514286D01*
X36068000Y-141949714D01*
X36539714Y-141949714D01*
X36684857Y-142022286D02*
X37265428Y-142022286D01*
X37882285Y-141877143D02*
X37845999Y-141913429D01*
X37737142Y-141949714D01*
X37664571Y-141949714D01*
X37555714Y-141913429D01*
X37483142Y-141840857D01*
X37446857Y-141768286D01*
X37410571Y-141623143D01*
X37410571Y-141514286D01*
X37446857Y-141369143D01*
X37483142Y-141296571D01*
X37555714Y-141224000D01*
X37664571Y-141187714D01*
X37737142Y-141187714D01*
X37845999Y-141224000D01*
X37882285Y-141260286D01*
X38353999Y-141187714D02*
X38499142Y-141187714D01*
X38571714Y-141224000D01*
X38644285Y-141296571D01*
X38680571Y-141441714D01*
X38680571Y-141695714D01*
X38644285Y-141840857D01*
X38571714Y-141913429D01*
X38499142Y-141949714D01*
X38353999Y-141949714D01*
X38281428Y-141913429D01*
X38208857Y-141840857D01*
X38172571Y-141695714D01*
X38172571Y-141441714D01*
X38208857Y-141296571D01*
X38281428Y-141224000D01*
X38353999Y-141187714D01*
X39007143Y-141949714D02*
X39007143Y-141187714D01*
X39442571Y-141949714D01*
X39442571Y-141187714D01*
X39805429Y-141949714D02*
X39805429Y-141187714D01*
X40240857Y-141949714D01*
X40240857Y-141187714D01*
X40603715Y-141550571D02*
X40857715Y-141550571D01*
X40966572Y-141949714D02*
X40603715Y-141949714D01*
X40603715Y-141187714D01*
X40966572Y-141187714D01*
X41728572Y-141877143D02*
X41692286Y-141913429D01*
X41583429Y-141949714D01*
X41510858Y-141949714D01*
X41402001Y-141913429D01*
X41329429Y-141840857D01*
X41293144Y-141768286D01*
X41256858Y-141623143D01*
X41256858Y-141514286D01*
X41293144Y-141369143D01*
X41329429Y-141296571D01*
X41402001Y-141224000D01*
X41510858Y-141187714D01*
X41583429Y-141187714D01*
X41692286Y-141224000D01*
X41728572Y-141260286D01*
X41946286Y-141187714D02*
X42381715Y-141187714D01*
X42164001Y-141949714D02*
X42164001Y-141187714D01*
X42780857Y-141187714D02*
X42926000Y-141187714D01*
X42998572Y-141224000D01*
X43071143Y-141296571D01*
X43107429Y-141441714D01*
X43107429Y-141695714D01*
X43071143Y-141840857D01*
X42998572Y-141913429D01*
X42926000Y-141949714D01*
X42780857Y-141949714D01*
X42708286Y-141913429D01*
X42635715Y-141840857D01*
X42599429Y-141695714D01*
X42599429Y-141441714D01*
X42635715Y-141296571D01*
X42708286Y-141224000D01*
X42780857Y-141187714D01*
X43869429Y-141949714D02*
X43615429Y-141586857D01*
X43434001Y-141949714D02*
X43434001Y-141187714D01*
X43724286Y-141187714D01*
X43796858Y-141224000D01*
X43833143Y-141260286D01*
X43869429Y-141332857D01*
X43869429Y-141441714D01*
X43833143Y-141514286D01*
X43796858Y-141550571D01*
X43724286Y-141586857D01*
X43434001Y-141586857D01*
X42599428Y-129159000D02*
X42526857Y-129122714D01*
X42418000Y-129122714D01*
X42309143Y-129159000D01*
X42236571Y-129231571D01*
X42200286Y-129304143D01*
X42164000Y-129449286D01*
X42164000Y-129558143D01*
X42200286Y-129703286D01*
X42236571Y-129775857D01*
X42309143Y-129848429D01*
X42418000Y-129884714D01*
X42490571Y-129884714D01*
X42599428Y-129848429D01*
X42635714Y-129812143D01*
X42635714Y-129558143D01*
X42490571Y-129558143D01*
X42962286Y-129884714D02*
X42962286Y-129122714D01*
X43397714Y-129884714D01*
X43397714Y-129122714D01*
X43760572Y-129884714D02*
X43760572Y-129122714D01*
X43942000Y-129122714D01*
X44050857Y-129159000D01*
X44123429Y-129231571D01*
X44159714Y-129304143D01*
X44196000Y-129449286D01*
X44196000Y-129558143D01*
X44159714Y-129703286D01*
X44123429Y-129775857D01*
X44050857Y-129848429D01*
X43942000Y-129884714D01*
X43760572Y-129884714D01*
X37519428Y-129159000D02*
X37446857Y-129122714D01*
X37338000Y-129122714D01*
X37229143Y-129159000D01*
X37156571Y-129231571D01*
X37120286Y-129304143D01*
X37084000Y-129449286D01*
X37084000Y-129558143D01*
X37120286Y-129703286D01*
X37156571Y-129775857D01*
X37229143Y-129848429D01*
X37338000Y-129884714D01*
X37410571Y-129884714D01*
X37519428Y-129848429D01*
X37555714Y-129812143D01*
X37555714Y-129558143D01*
X37410571Y-129558143D01*
X37882286Y-129884714D02*
X37882286Y-129122714D01*
X38317714Y-129884714D01*
X38317714Y-129122714D01*
X38680572Y-129884714D02*
X38680572Y-129122714D01*
X38862000Y-129122714D01*
X38970857Y-129159000D01*
X39043429Y-129231571D01*
X39079714Y-129304143D01*
X39116000Y-129449286D01*
X39116000Y-129558143D01*
X39079714Y-129703286D01*
X39043429Y-129775857D01*
X38970857Y-129848429D01*
X38862000Y-129884714D01*
X38680572Y-129884714D01*
X49874714Y-136180285D02*
X49874714Y-136543142D01*
X49112714Y-136543142D01*
X49475571Y-135926285D02*
X49475571Y-135672285D01*
X49874714Y-135563428D02*
X49874714Y-135926285D01*
X49112714Y-135926285D01*
X49112714Y-135563428D01*
X49874714Y-135236856D02*
X49112714Y-135236856D01*
X49112714Y-135055428D01*
X49149000Y-134946571D01*
X49221571Y-134873999D01*
X49294143Y-134837714D01*
X49439286Y-134801428D01*
X49548143Y-134801428D01*
X49693286Y-134837714D01*
X49765857Y-134873999D01*
X49838429Y-134946571D01*
X49874714Y-135055428D01*
X49874714Y-135236856D01*
X49947286Y-134656285D02*
X49947286Y-134075714D01*
X49475571Y-133640285D02*
X49511857Y-133531428D01*
X49548143Y-133495143D01*
X49620714Y-133458857D01*
X49729571Y-133458857D01*
X49802143Y-133495143D01*
X49838429Y-133531428D01*
X49874714Y-133604000D01*
X49874714Y-133894285D01*
X49112714Y-133894285D01*
X49112714Y-133640285D01*
X49149000Y-133567714D01*
X49185286Y-133531428D01*
X49257857Y-133495143D01*
X49330429Y-133495143D01*
X49403000Y-133531428D01*
X49439286Y-133567714D01*
X49475571Y-133640285D01*
X49475571Y-133894285D01*
X49874714Y-132696857D02*
X49511857Y-132950857D01*
X49874714Y-133132285D02*
X49112714Y-133132285D01*
X49112714Y-132842000D01*
X49149000Y-132769428D01*
X49185286Y-132733143D01*
X49257857Y-132696857D01*
X49366714Y-132696857D01*
X49439286Y-132733143D01*
X49475571Y-132769428D01*
X49511857Y-132842000D01*
X49511857Y-133132285D01*
X49874714Y-132370285D02*
X49112714Y-132370285D01*
X49874714Y-132007428D02*
X49112714Y-132007428D01*
X49112714Y-131826000D01*
X49149000Y-131717143D01*
X49221571Y-131644571D01*
X49294143Y-131608286D01*
X49439286Y-131572000D01*
X49548143Y-131572000D01*
X49693286Y-131608286D01*
X49765857Y-131644571D01*
X49838429Y-131717143D01*
X49874714Y-131826000D01*
X49874714Y-132007428D01*
X49149000Y-130846286D02*
X49112714Y-130918857D01*
X49112714Y-131027714D01*
X49149000Y-131136571D01*
X49221571Y-131209143D01*
X49294143Y-131245428D01*
X49439286Y-131281714D01*
X49548143Y-131281714D01*
X49693286Y-131245428D01*
X49765857Y-131209143D01*
X49838429Y-131136571D01*
X49874714Y-131027714D01*
X49874714Y-130955143D01*
X49838429Y-130846286D01*
X49802143Y-130810000D01*
X49548143Y-130810000D01*
X49548143Y-130955143D01*
X49475571Y-130483428D02*
X49475571Y-130229428D01*
X49874714Y-130120571D02*
X49874714Y-130483428D01*
X49112714Y-130483428D01*
X49112714Y-130120571D01*
X34888715Y-127344714D02*
X34888715Y-126582714D01*
X35070143Y-126582714D01*
X35179000Y-126619000D01*
X35251572Y-126691571D01*
X35287857Y-126764143D01*
X35324143Y-126909286D01*
X35324143Y-127018143D01*
X35287857Y-127163286D01*
X35251572Y-127235857D01*
X35179000Y-127308429D01*
X35070143Y-127344714D01*
X34888715Y-127344714D01*
X35650715Y-127054429D02*
X36231286Y-127054429D01*
X34888715Y-128614714D02*
X34888715Y-127852714D01*
X35070143Y-127852714D01*
X35179000Y-127889000D01*
X35251572Y-127961571D01*
X35287857Y-128034143D01*
X35324143Y-128179286D01*
X35324143Y-128288143D01*
X35287857Y-128433286D01*
X35251572Y-128505857D01*
X35179000Y-128578429D01*
X35070143Y-128614714D01*
X34888715Y-128614714D01*
X35650715Y-128324429D02*
X36231286Y-128324429D01*
X35941000Y-128614714D02*
X35941000Y-128034143D01*
X34979428Y-130429000D02*
X34906857Y-130392714D01*
X34798000Y-130392714D01*
X34689143Y-130429000D01*
X34616571Y-130501571D01*
X34580286Y-130574143D01*
X34544000Y-130719286D01*
X34544000Y-130828143D01*
X34580286Y-130973286D01*
X34616571Y-131045857D01*
X34689143Y-131118429D01*
X34798000Y-131154714D01*
X34870571Y-131154714D01*
X34979428Y-131118429D01*
X35015714Y-131082143D01*
X35015714Y-130828143D01*
X34870571Y-130828143D01*
X35342286Y-131154714D02*
X35342286Y-130392714D01*
X35777714Y-131154714D01*
X35777714Y-130392714D01*
X36140572Y-131154714D02*
X36140572Y-130392714D01*
X36322000Y-130392714D01*
X36430857Y-130429000D01*
X36503429Y-130501571D01*
X36539714Y-130574143D01*
X36576000Y-130719286D01*
X36576000Y-130828143D01*
X36539714Y-130973286D01*
X36503429Y-131045857D01*
X36430857Y-131118429D01*
X36322000Y-131154714D01*
X36140572Y-131154714D01*
D12*
X80592000Y-117066000D02*
X85592000Y-122066000D01*
X90592000Y-82066000D02*
X99592000Y-90066000D01*
X85592000Y-82066000D02*
X99592000Y-96066000D01*
X80592000Y-82066000D02*
X99592000Y-101066000D01*
X80592000Y-87066000D02*
X99592000Y-106066000D01*
X80592000Y-92066000D02*
X99592000Y-111066000D01*
X80592000Y-97066000D02*
X99592000Y-116066000D01*
X80592000Y-102066000D02*
X99592000Y-121066000D01*
X80592000Y-107066000D02*
X95592000Y-122066000D01*
X80592000Y-112066000D02*
X90592000Y-122066000D01*
X99592000Y-82066000D02*
X99592000Y-122066000D01*
X80592000Y-82066000D02*
X80592000Y-122066000D01*
X80592000Y-82066000D02*
X99592000Y-82066000D01*
X80592000Y-122066000D02*
X99592000Y-122066000D01*
X104592000Y-117066000D02*
X109592000Y-122066000D01*
X114592000Y-82066000D02*
X123592000Y-90066000D01*
X109592000Y-82066000D02*
X123592000Y-96066000D01*
X104592000Y-82066000D02*
X123592000Y-101066000D01*
X104592000Y-87066000D02*
X123592000Y-106066000D01*
X104592000Y-92066000D02*
X123592000Y-111066000D01*
X104592000Y-97066000D02*
X123592000Y-116066000D01*
X104592000Y-102066000D02*
X123592000Y-121066000D01*
X104592000Y-107066000D02*
X119592000Y-122066000D01*
X104592000Y-112066000D02*
X114592000Y-122066000D01*
X123592000Y-82066000D02*
X123592000Y-122066000D01*
X104592000Y-82066000D02*
X104592000Y-122066000D01*
X104592000Y-82066000D02*
X123592000Y-82066000D01*
X104592000Y-122066000D02*
X123592000Y-122066000D01*
X111370000Y-137795000D02*
X111878000Y-137795000D01*
X111878000Y-137795000D02*
X111878000Y-138303000D01*
X111878000Y-138303000D02*
X111370000Y-138303000D01*
X111370000Y-138303000D02*
X111370000Y-137795000D01*
X110608000Y-137795000D02*
X111116000Y-137795000D01*
X111116000Y-137795000D02*
X111116000Y-138303000D01*
X111116000Y-138303000D02*
X110608000Y-138303000D01*
X110608000Y-138303000D02*
X110608000Y-137795000D01*
X109846000Y-137795000D02*
X110354000Y-137795000D01*
X110354000Y-137795000D02*
X110354000Y-138303000D01*
X110354000Y-138303000D02*
X109846000Y-138303000D01*
X109846000Y-138303000D02*
X109846000Y-137795000D01*
X109084000Y-137795000D02*
X109592000Y-137795000D01*
X109592000Y-137795000D02*
X109592000Y-138303000D01*
X109592000Y-138303000D02*
X109084000Y-138303000D01*
X109084000Y-138303000D02*
X109084000Y-137795000D01*
X108322000Y-137795000D02*
X108830000Y-137795000D01*
X108830000Y-137795000D02*
X108830000Y-138303000D01*
X108830000Y-138303000D02*
X108322000Y-138303000D01*
X108322000Y-138303000D02*
X108322000Y-137795000D01*
X107687000Y-137160000D02*
X108195000Y-137160000D01*
X108195000Y-137160000D02*
X108195000Y-137668000D01*
X108195000Y-137668000D02*
X107687000Y-137668000D01*
X107687000Y-137668000D02*
X107687000Y-137160000D01*
X108195000Y-136398000D02*
X108195000Y-136906000D01*
X108195000Y-136906000D02*
X107687000Y-136906000D01*
X107687000Y-136906000D02*
X107687000Y-136398000D01*
X107687000Y-136398000D02*
X108195000Y-136398000D01*
X108195000Y-135636000D02*
X108195000Y-136144000D01*
X108195000Y-136144000D02*
X107687000Y-136144000D01*
X107687000Y-136144000D02*
X107687000Y-135636000D01*
X107687000Y-135636000D02*
X108195000Y-135636000D01*
X108830000Y-135001000D02*
X108830000Y-135509000D01*
X108830000Y-135509000D02*
X108322000Y-135509000D01*
X108322000Y-135509000D02*
X108322000Y-135001000D01*
X108322000Y-135001000D02*
X108830000Y-135001000D01*
X109592000Y-135509000D02*
X109592000Y-135001000D01*
X109592000Y-135001000D02*
X109084000Y-135001000D01*
X109084000Y-135001000D02*
X109084000Y-135509000D01*
X109084000Y-135509000D02*
X109592000Y-135509000D01*
X110354000Y-135001000D02*
X110354000Y-135509000D01*
X110354000Y-135509000D02*
X109846000Y-135509000D01*
X109846000Y-135509000D02*
X109846000Y-135001000D01*
X109846000Y-135001000D02*
X110354000Y-135001000D01*
X111116000Y-135509000D02*
X111116000Y-135001000D01*
X111116000Y-135001000D02*
X110608000Y-135001000D01*
X110608000Y-135001000D02*
X110608000Y-135509000D01*
X110608000Y-135509000D02*
X111116000Y-135509000D01*
X109592000Y-136906000D02*
X109592000Y-136398000D01*
X109592000Y-136398000D02*
X109084000Y-136398000D01*
X109084000Y-136398000D02*
X109084000Y-136906000D01*
X109084000Y-136906000D02*
X109592000Y-136906000D01*
X110354000Y-136906000D02*
X109846000Y-136906000D01*
X109846000Y-136906000D02*
X109846000Y-136398000D01*
X110354000Y-136906000D02*
X110354000Y-136398000D01*
X110354000Y-136398000D02*
X109846000Y-136398000D01*
X111116000Y-136398000D02*
X111116000Y-136906000D01*
X111116000Y-136906000D02*
X110608000Y-136906000D01*
X110608000Y-136906000D02*
X110608000Y-136398000D01*
X110608000Y-136398000D02*
X111116000Y-136398000D01*
X111878000Y-136398000D02*
X111878000Y-136906000D01*
X111878000Y-136906000D02*
X111370000Y-136906000D01*
X111370000Y-136906000D02*
X111370000Y-136398000D01*
X111370000Y-136398000D02*
X111878000Y-136398000D01*
X112005000Y-135763000D02*
X112513000Y-135763000D01*
X112513000Y-135763000D02*
X112513000Y-136271000D01*
X112513000Y-136271000D02*
X112005000Y-136271000D01*
X112005000Y-136271000D02*
X112005000Y-135763000D01*
X112005000Y-135001000D02*
X112513000Y-135001000D01*
X112513000Y-135001000D02*
X112513000Y-135509000D01*
X112513000Y-135509000D02*
X112005000Y-135509000D01*
X112005000Y-135509000D02*
X112005000Y-135001000D01*
X112005000Y-134239000D02*
X112513000Y-134239000D01*
X112513000Y-134239000D02*
X112513000Y-134747000D01*
X112513000Y-134747000D02*
X112005000Y-134747000D01*
X112005000Y-134747000D02*
X112005000Y-134239000D01*
X111370000Y-133604000D02*
X111370000Y-134112000D01*
X111370000Y-134112000D02*
X111878000Y-134112000D01*
X111878000Y-134112000D02*
X111878000Y-133604000D01*
X111878000Y-133604000D02*
X111370000Y-133604000D01*
X110608000Y-133604000D02*
X110608000Y-134112000D01*
X110608000Y-134112000D02*
X111116000Y-134112000D01*
X111116000Y-134112000D02*
X111116000Y-133604000D01*
X111116000Y-133604000D02*
X110608000Y-133604000D01*
X109846000Y-133604000D02*
X109846000Y-134112000D01*
X109846000Y-134112000D02*
X110354000Y-134112000D01*
X110354000Y-134112000D02*
X110354000Y-133604000D01*
X110354000Y-133604000D02*
X109846000Y-133604000D01*
X109084000Y-133604000D02*
X109084000Y-134112000D01*
X109084000Y-134112000D02*
X109592000Y-134112000D01*
X109592000Y-134112000D02*
X109592000Y-133604000D01*
X109592000Y-133604000D02*
X109084000Y-133604000D01*
X108322000Y-133604000D02*
X108322000Y-134112000D01*
X108322000Y-134112000D02*
X108830000Y-134112000D01*
X108830000Y-134112000D02*
X108830000Y-133604000D01*
X108830000Y-133604000D02*
X108322000Y-133604000D01*
D13*
X119752000Y-134493000D02*
X120768000Y-134493000D01*
X120768000Y-134493000D02*
X120768000Y-132207000D01*
X120768000Y-132207000D02*
X119752000Y-132207000D01*
X119752000Y-132207000D02*
X119752000Y-134493000D01*
X95752000Y-134493000D02*
X96768000Y-134493000D01*
X96768000Y-134493000D02*
X96768000Y-132207000D01*
X96768000Y-132207000D02*
X95752000Y-132207000D01*
X95752000Y-132207000D02*
X95752000Y-134493000D01*
D12*
X87370000Y-137795000D02*
X87878000Y-137795000D01*
X87878000Y-137795000D02*
X87878000Y-138303000D01*
X87878000Y-138303000D02*
X87370000Y-138303000D01*
X87370000Y-138303000D02*
X87370000Y-137795000D01*
X86608000Y-137795000D02*
X87116000Y-137795000D01*
X87116000Y-137795000D02*
X87116000Y-138303000D01*
X87116000Y-138303000D02*
X86608000Y-138303000D01*
X86608000Y-138303000D02*
X86608000Y-137795000D01*
X85846000Y-137795000D02*
X86354000Y-137795000D01*
X86354000Y-137795000D02*
X86354000Y-138303000D01*
X86354000Y-138303000D02*
X85846000Y-138303000D01*
X85846000Y-138303000D02*
X85846000Y-137795000D01*
X85084000Y-137795000D02*
X85592000Y-137795000D01*
X85592000Y-137795000D02*
X85592000Y-138303000D01*
X85592000Y-138303000D02*
X85084000Y-138303000D01*
X85084000Y-138303000D02*
X85084000Y-137795000D01*
X84322000Y-137795000D02*
X84830000Y-137795000D01*
X84830000Y-137795000D02*
X84830000Y-138303000D01*
X84830000Y-138303000D02*
X84322000Y-138303000D01*
X84322000Y-138303000D02*
X84322000Y-137795000D01*
X83687000Y-137160000D02*
X84195000Y-137160000D01*
X84195000Y-137160000D02*
X84195000Y-137668000D01*
X84195000Y-137668000D02*
X83687000Y-137668000D01*
X83687000Y-137668000D02*
X83687000Y-137160000D01*
X84195000Y-136398000D02*
X84195000Y-136906000D01*
X84195000Y-136906000D02*
X83687000Y-136906000D01*
X83687000Y-136906000D02*
X83687000Y-136398000D01*
X83687000Y-136398000D02*
X84195000Y-136398000D01*
X84195000Y-135636000D02*
X84195000Y-136144000D01*
X84195000Y-136144000D02*
X83687000Y-136144000D01*
X83687000Y-136144000D02*
X83687000Y-135636000D01*
X83687000Y-135636000D02*
X84195000Y-135636000D01*
X84830000Y-135001000D02*
X84830000Y-135509000D01*
X84830000Y-135509000D02*
X84322000Y-135509000D01*
X84322000Y-135509000D02*
X84322000Y-135001000D01*
X84322000Y-135001000D02*
X84830000Y-135001000D01*
X85592000Y-135509000D02*
X85592000Y-135001000D01*
X85592000Y-135001000D02*
X85084000Y-135001000D01*
X85084000Y-135001000D02*
X85084000Y-135509000D01*
X85084000Y-135509000D02*
X85592000Y-135509000D01*
X86354000Y-135001000D02*
X86354000Y-135509000D01*
X86354000Y-135509000D02*
X85846000Y-135509000D01*
X85846000Y-135509000D02*
X85846000Y-135001000D01*
X85846000Y-135001000D02*
X86354000Y-135001000D01*
X87116000Y-135509000D02*
X87116000Y-135001000D01*
X87116000Y-135001000D02*
X86608000Y-135001000D01*
X86608000Y-135001000D02*
X86608000Y-135509000D01*
X86608000Y-135509000D02*
X87116000Y-135509000D01*
X85592000Y-136906000D02*
X85592000Y-136398000D01*
X85592000Y-136398000D02*
X85084000Y-136398000D01*
X85084000Y-136398000D02*
X85084000Y-136906000D01*
X85084000Y-136906000D02*
X85592000Y-136906000D01*
X86354000Y-136906000D02*
X85846000Y-136906000D01*
X85846000Y-136906000D02*
X85846000Y-136398000D01*
X86354000Y-136906000D02*
X86354000Y-136398000D01*
X86354000Y-136398000D02*
X85846000Y-136398000D01*
X87116000Y-136398000D02*
X87116000Y-136906000D01*
X87116000Y-136906000D02*
X86608000Y-136906000D01*
X86608000Y-136906000D02*
X86608000Y-136398000D01*
X86608000Y-136398000D02*
X87116000Y-136398000D01*
X87878000Y-136398000D02*
X87878000Y-136906000D01*
X87878000Y-136906000D02*
X87370000Y-136906000D01*
X87370000Y-136906000D02*
X87370000Y-136398000D01*
X87370000Y-136398000D02*
X87878000Y-136398000D01*
X88005000Y-135763000D02*
X88513000Y-135763000D01*
X88513000Y-135763000D02*
X88513000Y-136271000D01*
X88513000Y-136271000D02*
X88005000Y-136271000D01*
X88005000Y-136271000D02*
X88005000Y-135763000D01*
X88005000Y-135001000D02*
X88513000Y-135001000D01*
X88513000Y-135001000D02*
X88513000Y-135509000D01*
X88513000Y-135509000D02*
X88005000Y-135509000D01*
X88005000Y-135509000D02*
X88005000Y-135001000D01*
X88005000Y-134239000D02*
X88513000Y-134239000D01*
X88513000Y-134239000D02*
X88513000Y-134747000D01*
X88513000Y-134747000D02*
X88005000Y-134747000D01*
X88005000Y-134747000D02*
X88005000Y-134239000D01*
X87370000Y-133604000D02*
X87370000Y-134112000D01*
X87370000Y-134112000D02*
X87878000Y-134112000D01*
X87878000Y-134112000D02*
X87878000Y-133604000D01*
X87878000Y-133604000D02*
X87370000Y-133604000D01*
X86608000Y-133604000D02*
X86608000Y-134112000D01*
X86608000Y-134112000D02*
X87116000Y-134112000D01*
X87116000Y-134112000D02*
X87116000Y-133604000D01*
X87116000Y-133604000D02*
X86608000Y-133604000D01*
X85846000Y-133604000D02*
X85846000Y-134112000D01*
X85846000Y-134112000D02*
X86354000Y-134112000D01*
X86354000Y-134112000D02*
X86354000Y-133604000D01*
X86354000Y-133604000D02*
X85846000Y-133604000D01*
X85084000Y-133604000D02*
X85084000Y-134112000D01*
X85084000Y-134112000D02*
X85592000Y-134112000D01*
X85592000Y-134112000D02*
X85592000Y-133604000D01*
X85592000Y-133604000D02*
X85084000Y-133604000D01*
X84322000Y-133604000D02*
X84322000Y-134112000D01*
X84322000Y-134112000D02*
X84830000Y-134112000D01*
X84830000Y-134112000D02*
X84830000Y-133604000D01*
X84830000Y-133604000D02*
X84322000Y-133604000D01*
D14*
X91385000Y-64780000D02*
G75*
G03X91385000Y-64780000I-3175000J0D01*
G01*
X115385000Y-64780000D02*
G75*
G03X115385000Y-64780000I-3175000J0D01*
G01*
D12*
X63370000Y-137795000D02*
X63878000Y-137795000D01*
X63878000Y-137795000D02*
X63878000Y-138303000D01*
X63878000Y-138303000D02*
X63370000Y-138303000D01*
X63370000Y-138303000D02*
X63370000Y-137795000D01*
X62608000Y-137795000D02*
X63116000Y-137795000D01*
X63116000Y-137795000D02*
X63116000Y-138303000D01*
X63116000Y-138303000D02*
X62608000Y-138303000D01*
X62608000Y-138303000D02*
X62608000Y-137795000D01*
X61846000Y-137795000D02*
X62354000Y-137795000D01*
X62354000Y-137795000D02*
X62354000Y-138303000D01*
X62354000Y-138303000D02*
X61846000Y-138303000D01*
X61846000Y-138303000D02*
X61846000Y-137795000D01*
X61084000Y-137795000D02*
X61592000Y-137795000D01*
X61592000Y-137795000D02*
X61592000Y-138303000D01*
X61592000Y-138303000D02*
X61084000Y-138303000D01*
X61084000Y-138303000D02*
X61084000Y-137795000D01*
X60322000Y-137795000D02*
X60830000Y-137795000D01*
X60830000Y-137795000D02*
X60830000Y-138303000D01*
X60830000Y-138303000D02*
X60322000Y-138303000D01*
X60322000Y-138303000D02*
X60322000Y-137795000D01*
X59687000Y-137160000D02*
X60195000Y-137160000D01*
X60195000Y-137160000D02*
X60195000Y-137668000D01*
X60195000Y-137668000D02*
X59687000Y-137668000D01*
X59687000Y-137668000D02*
X59687000Y-137160000D01*
X60195000Y-136398000D02*
X60195000Y-136906000D01*
X60195000Y-136906000D02*
X59687000Y-136906000D01*
X59687000Y-136906000D02*
X59687000Y-136398000D01*
X59687000Y-136398000D02*
X60195000Y-136398000D01*
X60195000Y-135636000D02*
X60195000Y-136144000D01*
X60195000Y-136144000D02*
X59687000Y-136144000D01*
X59687000Y-136144000D02*
X59687000Y-135636000D01*
X59687000Y-135636000D02*
X60195000Y-135636000D01*
X60830000Y-135001000D02*
X60830000Y-135509000D01*
X60830000Y-135509000D02*
X60322000Y-135509000D01*
X60322000Y-135509000D02*
X60322000Y-135001000D01*
X60322000Y-135001000D02*
X60830000Y-135001000D01*
X61592000Y-135509000D02*
X61592000Y-135001000D01*
X61592000Y-135001000D02*
X61084000Y-135001000D01*
X61084000Y-135001000D02*
X61084000Y-135509000D01*
X61084000Y-135509000D02*
X61592000Y-135509000D01*
X62354000Y-135001000D02*
X62354000Y-135509000D01*
X62354000Y-135509000D02*
X61846000Y-135509000D01*
X61846000Y-135509000D02*
X61846000Y-135001000D01*
X61846000Y-135001000D02*
X62354000Y-135001000D01*
X63116000Y-135509000D02*
X63116000Y-135001000D01*
X63116000Y-135001000D02*
X62608000Y-135001000D01*
X62608000Y-135001000D02*
X62608000Y-135509000D01*
X62608000Y-135509000D02*
X63116000Y-135509000D01*
X61592000Y-136906000D02*
X61592000Y-136398000D01*
X61592000Y-136398000D02*
X61084000Y-136398000D01*
X61084000Y-136398000D02*
X61084000Y-136906000D01*
X61084000Y-136906000D02*
X61592000Y-136906000D01*
X62354000Y-136906000D02*
X61846000Y-136906000D01*
X61846000Y-136906000D02*
X61846000Y-136398000D01*
X62354000Y-136906000D02*
X62354000Y-136398000D01*
X62354000Y-136398000D02*
X61846000Y-136398000D01*
X63116000Y-136398000D02*
X63116000Y-136906000D01*
X63116000Y-136906000D02*
X62608000Y-136906000D01*
X62608000Y-136906000D02*
X62608000Y-136398000D01*
X62608000Y-136398000D02*
X63116000Y-136398000D01*
X63878000Y-136398000D02*
X63878000Y-136906000D01*
X63878000Y-136906000D02*
X63370000Y-136906000D01*
X63370000Y-136906000D02*
X63370000Y-136398000D01*
X63370000Y-136398000D02*
X63878000Y-136398000D01*
X64005000Y-135763000D02*
X64513000Y-135763000D01*
X64513000Y-135763000D02*
X64513000Y-136271000D01*
X64513000Y-136271000D02*
X64005000Y-136271000D01*
X64005000Y-136271000D02*
X64005000Y-135763000D01*
X64005000Y-135001000D02*
X64513000Y-135001000D01*
X64513000Y-135001000D02*
X64513000Y-135509000D01*
X64513000Y-135509000D02*
X64005000Y-135509000D01*
X64005000Y-135509000D02*
X64005000Y-135001000D01*
X64005000Y-134239000D02*
X64513000Y-134239000D01*
X64513000Y-134239000D02*
X64513000Y-134747000D01*
X64513000Y-134747000D02*
X64005000Y-134747000D01*
X64005000Y-134747000D02*
X64005000Y-134239000D01*
X63370000Y-133604000D02*
X63370000Y-134112000D01*
X63370000Y-134112000D02*
X63878000Y-134112000D01*
X63878000Y-134112000D02*
X63878000Y-133604000D01*
X63878000Y-133604000D02*
X63370000Y-133604000D01*
X62608000Y-133604000D02*
X62608000Y-134112000D01*
X62608000Y-134112000D02*
X63116000Y-134112000D01*
X63116000Y-134112000D02*
X63116000Y-133604000D01*
X63116000Y-133604000D02*
X62608000Y-133604000D01*
X61846000Y-133604000D02*
X61846000Y-134112000D01*
X61846000Y-134112000D02*
X62354000Y-134112000D01*
X62354000Y-134112000D02*
X62354000Y-133604000D01*
X62354000Y-133604000D02*
X61846000Y-133604000D01*
X61084000Y-133604000D02*
X61084000Y-134112000D01*
X61084000Y-134112000D02*
X61592000Y-134112000D01*
X61592000Y-134112000D02*
X61592000Y-133604000D01*
X61592000Y-133604000D02*
X61084000Y-133604000D01*
X60322000Y-133604000D02*
X60322000Y-134112000D01*
X60322000Y-134112000D02*
X60830000Y-134112000D01*
X60830000Y-134112000D02*
X60830000Y-133604000D01*
X60830000Y-133604000D02*
X60322000Y-133604000D01*
D14*
X67385000Y-64780000D02*
G75*
G03X67385000Y-64780000I-3175000J0D01*
G01*
D13*
X71752000Y-134493000D02*
X72768000Y-134493000D01*
X72768000Y-134493000D02*
X72768000Y-132207000D01*
X72768000Y-132207000D02*
X71752000Y-132207000D01*
X71752000Y-132207000D02*
X71752000Y-134493000D01*
D12*
X56592000Y-117066000D02*
X61592000Y-122066000D01*
X66592000Y-82066000D02*
X75592000Y-90066000D01*
X61592000Y-82066000D02*
X75592000Y-96066000D01*
X56592000Y-82066000D02*
X75592000Y-101066000D01*
X56592000Y-87066000D02*
X75592000Y-106066000D01*
X56592000Y-92066000D02*
X75592000Y-111066000D01*
X56592000Y-97066000D02*
X75592000Y-116066000D01*
X56592000Y-102066000D02*
X75592000Y-121066000D01*
X56592000Y-107066000D02*
X71592000Y-122066000D01*
X56592000Y-112066000D02*
X66592000Y-122066000D01*
X75592000Y-82066000D02*
X75592000Y-122066000D01*
X56592000Y-82066000D02*
X56592000Y-122066000D01*
X56592000Y-82066000D02*
X75592000Y-82066000D01*
X56592000Y-122066000D02*
X75592000Y-122066000D01*
X32592000Y-117066000D02*
X37592000Y-122066000D01*
X42592000Y-82066000D02*
X51592000Y-90066000D01*
X37592000Y-82066000D02*
X51592000Y-96066000D01*
X32592000Y-82066000D02*
X51592000Y-101066000D01*
X32592000Y-87066000D02*
X51592000Y-106066000D01*
X32592000Y-92066000D02*
X51592000Y-111066000D01*
X32592000Y-97066000D02*
X51592000Y-116066000D01*
X32592000Y-102066000D02*
X51592000Y-121066000D01*
X32592000Y-107066000D02*
X47592000Y-122066000D01*
X32592000Y-112066000D02*
X42592000Y-122066000D01*
X51592000Y-82066000D02*
X51592000Y-122066000D01*
X32592000Y-82066000D02*
X32592000Y-122066000D01*
X32592000Y-82066000D02*
X51592000Y-82066000D01*
X32592000Y-122066000D02*
X51592000Y-122066000D01*
D13*
X47752000Y-134493000D02*
X48768000Y-134493000D01*
X48768000Y-134493000D02*
X48768000Y-132207000D01*
X48768000Y-132207000D02*
X47752000Y-132207000D01*
X47752000Y-132207000D02*
X47752000Y-134493000D01*
D14*
X43385000Y-64780000D02*
G75*
G03X43385000Y-64780000I-3175000J0D01*
G01*
D12*
X39370000Y-137795000D02*
X39878000Y-137795000D01*
X39878000Y-137795000D02*
X39878000Y-138303000D01*
X39878000Y-138303000D02*
X39370000Y-138303000D01*
X39370000Y-138303000D02*
X39370000Y-137795000D01*
X38608000Y-137795000D02*
X39116000Y-137795000D01*
X39116000Y-137795000D02*
X39116000Y-138303000D01*
X39116000Y-138303000D02*
X38608000Y-138303000D01*
X38608000Y-138303000D02*
X38608000Y-137795000D01*
X37846000Y-137795000D02*
X38354000Y-137795000D01*
X38354000Y-137795000D02*
X38354000Y-138303000D01*
X38354000Y-138303000D02*
X37846000Y-138303000D01*
X37846000Y-138303000D02*
X37846000Y-137795000D01*
X37084000Y-137795000D02*
X37592000Y-137795000D01*
X37592000Y-137795000D02*
X37592000Y-138303000D01*
X37592000Y-138303000D02*
X37084000Y-138303000D01*
X37084000Y-138303000D02*
X37084000Y-137795000D01*
X36322000Y-137795000D02*
X36830000Y-137795000D01*
X36830000Y-137795000D02*
X36830000Y-138303000D01*
X36830000Y-138303000D02*
X36322000Y-138303000D01*
X36322000Y-138303000D02*
X36322000Y-137795000D01*
X35687000Y-137160000D02*
X36195000Y-137160000D01*
X36195000Y-137160000D02*
X36195000Y-137668000D01*
X36195000Y-137668000D02*
X35687000Y-137668000D01*
X35687000Y-137668000D02*
X35687000Y-137160000D01*
X36195000Y-136398000D02*
X36195000Y-136906000D01*
X36195000Y-136906000D02*
X35687000Y-136906000D01*
X35687000Y-136906000D02*
X35687000Y-136398000D01*
X35687000Y-136398000D02*
X36195000Y-136398000D01*
X36195000Y-135636000D02*
X36195000Y-136144000D01*
X36195000Y-136144000D02*
X35687000Y-136144000D01*
X35687000Y-136144000D02*
X35687000Y-135636000D01*
X35687000Y-135636000D02*
X36195000Y-135636000D01*
X36830000Y-135001000D02*
X36830000Y-135509000D01*
X36830000Y-135509000D02*
X36322000Y-135509000D01*
X36322000Y-135509000D02*
X36322000Y-135001000D01*
X36322000Y-135001000D02*
X36830000Y-135001000D01*
X37592000Y-135509000D02*
X37592000Y-135001000D01*
X37592000Y-135001000D02*
X37084000Y-135001000D01*
X37084000Y-135001000D02*
X37084000Y-135509000D01*
X37084000Y-135509000D02*
X37592000Y-135509000D01*
X38354000Y-135001000D02*
X38354000Y-135509000D01*
X38354000Y-135509000D02*
X37846000Y-135509000D01*
X37846000Y-135509000D02*
X37846000Y-135001000D01*
X37846000Y-135001000D02*
X38354000Y-135001000D01*
X39116000Y-135509000D02*
X39116000Y-135001000D01*
X39116000Y-135001000D02*
X38608000Y-135001000D01*
X38608000Y-135001000D02*
X38608000Y-135509000D01*
X38608000Y-135509000D02*
X39116000Y-135509000D01*
X37592000Y-136906000D02*
X37592000Y-136398000D01*
X37592000Y-136398000D02*
X37084000Y-136398000D01*
X37084000Y-136398000D02*
X37084000Y-136906000D01*
X37084000Y-136906000D02*
X37592000Y-136906000D01*
X38354000Y-136906000D02*
X37846000Y-136906000D01*
X37846000Y-136906000D02*
X37846000Y-136398000D01*
X38354000Y-136906000D02*
X38354000Y-136398000D01*
X38354000Y-136398000D02*
X37846000Y-136398000D01*
X39116000Y-136398000D02*
X39116000Y-136906000D01*
X39116000Y-136906000D02*
X38608000Y-136906000D01*
X38608000Y-136906000D02*
X38608000Y-136398000D01*
X38608000Y-136398000D02*
X39116000Y-136398000D01*
X39878000Y-136398000D02*
X39878000Y-136906000D01*
X39878000Y-136906000D02*
X39370000Y-136906000D01*
X39370000Y-136906000D02*
X39370000Y-136398000D01*
X39370000Y-136398000D02*
X39878000Y-136398000D01*
X40005000Y-135763000D02*
X40513000Y-135763000D01*
X40513000Y-135763000D02*
X40513000Y-136271000D01*
X40513000Y-136271000D02*
X40005000Y-136271000D01*
X40005000Y-136271000D02*
X40005000Y-135763000D01*
X40005000Y-135001000D02*
X40513000Y-135001000D01*
X40513000Y-135001000D02*
X40513000Y-135509000D01*
X40513000Y-135509000D02*
X40005000Y-135509000D01*
X40005000Y-135509000D02*
X40005000Y-135001000D01*
X40005000Y-134239000D02*
X40513000Y-134239000D01*
X40513000Y-134239000D02*
X40513000Y-134747000D01*
X40513000Y-134747000D02*
X40005000Y-134747000D01*
X40005000Y-134747000D02*
X40005000Y-134239000D01*
X39370000Y-133604000D02*
X39370000Y-134112000D01*
X39370000Y-134112000D02*
X39878000Y-134112000D01*
X39878000Y-134112000D02*
X39878000Y-133604000D01*
X39878000Y-133604000D02*
X39370000Y-133604000D01*
X38608000Y-133604000D02*
X38608000Y-134112000D01*
X38608000Y-134112000D02*
X39116000Y-134112000D01*
X39116000Y-134112000D02*
X39116000Y-133604000D01*
X39116000Y-133604000D02*
X38608000Y-133604000D01*
X37846000Y-133604000D02*
X37846000Y-134112000D01*
X37846000Y-134112000D02*
X38354000Y-134112000D01*
X38354000Y-134112000D02*
X38354000Y-133604000D01*
X38354000Y-133604000D02*
X37846000Y-133604000D01*
X37084000Y-133604000D02*
X37084000Y-134112000D01*
X37084000Y-134112000D02*
X37592000Y-134112000D01*
X37592000Y-134112000D02*
X37592000Y-133604000D01*
X37592000Y-133604000D02*
X37084000Y-133604000D01*
X36322000Y-133604000D02*
X36322000Y-134112000D01*
X36322000Y-134112000D02*
X36830000Y-134112000D01*
X36830000Y-134112000D02*
X36830000Y-133604000D01*
X36830000Y-133604000D02*
X36322000Y-133604000D01*
D11*
X78788429Y-134202714D02*
X78788429Y-134819571D01*
X78824714Y-134892143D01*
X78861000Y-134928429D01*
X78933571Y-134964714D01*
X79078714Y-134964714D01*
X79151286Y-134928429D01*
X79187571Y-134892143D01*
X79223857Y-134819571D01*
X79223857Y-134202714D01*
X79550429Y-134928429D02*
X79659286Y-134964714D01*
X79840715Y-134964714D01*
X79913286Y-134928429D01*
X79949572Y-134892143D01*
X79985857Y-134819571D01*
X79985857Y-134747000D01*
X79949572Y-134674429D01*
X79913286Y-134638143D01*
X79840715Y-134601857D01*
X79695572Y-134565571D01*
X79623000Y-134529286D01*
X79586715Y-134493000D01*
X79550429Y-134420429D01*
X79550429Y-134347857D01*
X79586715Y-134275286D01*
X79623000Y-134239000D01*
X79695572Y-134202714D01*
X79877000Y-134202714D01*
X79985857Y-134239000D01*
X80566429Y-134565571D02*
X80675286Y-134601857D01*
X80711571Y-134638143D01*
X80747857Y-134710714D01*
X80747857Y-134819571D01*
X80711571Y-134892143D01*
X80675286Y-134928429D01*
X80602714Y-134964714D01*
X80312429Y-134964714D01*
X80312429Y-134202714D01*
X80566429Y-134202714D01*
X80639000Y-134239000D01*
X80675286Y-134275286D01*
X80711571Y-134347857D01*
X80711571Y-134420429D01*
X80675286Y-134493000D01*
X80639000Y-134529286D01*
X80566429Y-134565571D01*
X80312429Y-134565571D01*
X84503429Y-124587000D02*
X84866286Y-124587000D01*
X84430857Y-124804714D02*
X84684857Y-124042714D01*
X84938857Y-124804714D01*
X85192858Y-124804714D02*
X85192858Y-124042714D01*
X85483143Y-124042714D01*
X85555715Y-124079000D01*
X85592000Y-124115286D01*
X85628286Y-124187857D01*
X85628286Y-124296714D01*
X85592000Y-124369286D01*
X85555715Y-124405571D01*
X85483143Y-124441857D01*
X85192858Y-124441857D01*
X85954858Y-124804714D02*
X85954858Y-124042714D01*
X86245143Y-124042714D01*
X86317715Y-124079000D01*
X86354000Y-124115286D01*
X86390286Y-124187857D01*
X86390286Y-124296714D01*
X86354000Y-124369286D01*
X86317715Y-124405571D01*
X86245143Y-124441857D01*
X85954858Y-124441857D01*
X87079715Y-124804714D02*
X86716858Y-124804714D01*
X86716858Y-124042714D01*
X87333715Y-124405571D02*
X87587715Y-124405571D01*
X87696572Y-124804714D02*
X87333715Y-124804714D01*
X87333715Y-124042714D01*
X87696572Y-124042714D01*
X87841715Y-124877286D02*
X88422286Y-124877286D01*
X88531143Y-124042714D02*
X88712572Y-124804714D01*
X88857715Y-124260429D01*
X89002857Y-124804714D01*
X89184286Y-124042714D01*
X89474572Y-124804714D02*
X89474572Y-124042714D01*
X90091429Y-124405571D02*
X89837429Y-124405571D01*
X89837429Y-124804714D02*
X89837429Y-124042714D01*
X90200286Y-124042714D01*
X90490572Y-124804714D02*
X90490572Y-124042714D01*
X90672000Y-124877286D02*
X91252571Y-124877286D01*
X91869428Y-124732143D02*
X91833142Y-124768429D01*
X91724285Y-124804714D01*
X91651714Y-124804714D01*
X91542857Y-124768429D01*
X91470285Y-124695857D01*
X91434000Y-124623286D01*
X91397714Y-124478143D01*
X91397714Y-124369286D01*
X91434000Y-124224143D01*
X91470285Y-124151571D01*
X91542857Y-124079000D01*
X91651714Y-124042714D01*
X91724285Y-124042714D01*
X91833142Y-124079000D01*
X91869428Y-124115286D01*
X92159714Y-124587000D02*
X92522571Y-124587000D01*
X92087142Y-124804714D02*
X92341142Y-124042714D01*
X92595142Y-124804714D01*
X93284571Y-124804714D02*
X93030571Y-124441857D01*
X92849143Y-124804714D02*
X92849143Y-124042714D01*
X93139428Y-124042714D01*
X93212000Y-124079000D01*
X93248285Y-124115286D01*
X93284571Y-124187857D01*
X93284571Y-124296714D01*
X93248285Y-124369286D01*
X93212000Y-124405571D01*
X93139428Y-124441857D01*
X92849143Y-124441857D01*
X93611143Y-124804714D02*
X93611143Y-124042714D01*
X93792571Y-124042714D01*
X93901428Y-124079000D01*
X93974000Y-124151571D01*
X94010285Y-124224143D01*
X94046571Y-124369286D01*
X94046571Y-124478143D01*
X94010285Y-124623286D01*
X93974000Y-124695857D01*
X93901428Y-124768429D01*
X93792571Y-124804714D01*
X93611143Y-124804714D01*
D12*
X90949143Y-104470762D02*
X90996762Y-104518381D01*
X91044381Y-104661238D01*
X91044381Y-104756476D01*
X90996762Y-104899334D01*
X90901524Y-104994572D01*
X90806286Y-105042191D01*
X90615810Y-105089810D01*
X90472952Y-105089810D01*
X90282476Y-105042191D01*
X90187238Y-104994572D01*
X90092000Y-104899334D01*
X90044381Y-104756476D01*
X90044381Y-104661238D01*
X90092000Y-104518381D01*
X90139619Y-104470762D01*
X90044381Y-104042191D02*
X90853905Y-104042191D01*
X90949143Y-103994572D01*
X90996762Y-103946953D01*
X91044381Y-103851715D01*
X91044381Y-103661238D01*
X90996762Y-103566000D01*
X90949143Y-103518381D01*
X90853905Y-103470762D01*
X90044381Y-103470762D01*
X90044381Y-103137429D02*
X90044381Y-102566000D01*
X91044381Y-102851715D02*
X90044381Y-102851715D01*
X90044381Y-101280286D02*
X90044381Y-101089809D01*
X90092000Y-100994571D01*
X90187238Y-100899333D01*
X90377714Y-100851714D01*
X90711048Y-100851714D01*
X90901524Y-100899333D01*
X90996762Y-100994571D01*
X91044381Y-101089809D01*
X91044381Y-101280286D01*
X90996762Y-101375524D01*
X90901524Y-101470762D01*
X90711048Y-101518381D01*
X90377714Y-101518381D01*
X90187238Y-101470762D01*
X90092000Y-101375524D01*
X90044381Y-101280286D01*
X90044381Y-100423143D02*
X90853905Y-100423143D01*
X90949143Y-100375524D01*
X90996762Y-100327905D01*
X91044381Y-100232667D01*
X91044381Y-100042190D01*
X90996762Y-99946952D01*
X90949143Y-99899333D01*
X90853905Y-99851714D01*
X90044381Y-99851714D01*
X90044381Y-99518381D02*
X90044381Y-98946952D01*
X91044381Y-99232667D02*
X90044381Y-99232667D01*
D11*
X108503429Y-124587000D02*
X108866286Y-124587000D01*
X108430857Y-124804714D02*
X108684857Y-124042714D01*
X108938857Y-124804714D01*
X109192858Y-124804714D02*
X109192858Y-124042714D01*
X109483143Y-124042714D01*
X109555715Y-124079000D01*
X109592000Y-124115286D01*
X109628286Y-124187857D01*
X109628286Y-124296714D01*
X109592000Y-124369286D01*
X109555715Y-124405571D01*
X109483143Y-124441857D01*
X109192858Y-124441857D01*
X109954858Y-124804714D02*
X109954858Y-124042714D01*
X110245143Y-124042714D01*
X110317715Y-124079000D01*
X110354000Y-124115286D01*
X110390286Y-124187857D01*
X110390286Y-124296714D01*
X110354000Y-124369286D01*
X110317715Y-124405571D01*
X110245143Y-124441857D01*
X109954858Y-124441857D01*
X111079715Y-124804714D02*
X110716858Y-124804714D01*
X110716858Y-124042714D01*
X111333715Y-124405571D02*
X111587715Y-124405571D01*
X111696572Y-124804714D02*
X111333715Y-124804714D01*
X111333715Y-124042714D01*
X111696572Y-124042714D01*
X111841715Y-124877286D02*
X112422286Y-124877286D01*
X112531143Y-124042714D02*
X112712572Y-124804714D01*
X112857715Y-124260429D01*
X113002857Y-124804714D01*
X113184286Y-124042714D01*
X113474572Y-124804714D02*
X113474572Y-124042714D01*
X114091429Y-124405571D02*
X113837429Y-124405571D01*
X113837429Y-124804714D02*
X113837429Y-124042714D01*
X114200286Y-124042714D01*
X114490572Y-124804714D02*
X114490572Y-124042714D01*
X114672000Y-124877286D02*
X115252571Y-124877286D01*
X115869428Y-124732143D02*
X115833142Y-124768429D01*
X115724285Y-124804714D01*
X115651714Y-124804714D01*
X115542857Y-124768429D01*
X115470285Y-124695857D01*
X115434000Y-124623286D01*
X115397714Y-124478143D01*
X115397714Y-124369286D01*
X115434000Y-124224143D01*
X115470285Y-124151571D01*
X115542857Y-124079000D01*
X115651714Y-124042714D01*
X115724285Y-124042714D01*
X115833142Y-124079000D01*
X115869428Y-124115286D01*
X116159714Y-124587000D02*
X116522571Y-124587000D01*
X116087142Y-124804714D02*
X116341142Y-124042714D01*
X116595142Y-124804714D01*
X117284571Y-124804714D02*
X117030571Y-124441857D01*
X116849143Y-124804714D02*
X116849143Y-124042714D01*
X117139428Y-124042714D01*
X117212000Y-124079000D01*
X117248285Y-124115286D01*
X117284571Y-124187857D01*
X117284571Y-124296714D01*
X117248285Y-124369286D01*
X117212000Y-124405571D01*
X117139428Y-124441857D01*
X116849143Y-124441857D01*
X117611143Y-124804714D02*
X117611143Y-124042714D01*
X117792571Y-124042714D01*
X117901428Y-124079000D01*
X117974000Y-124151571D01*
X118010285Y-124224143D01*
X118046571Y-124369286D01*
X118046571Y-124478143D01*
X118010285Y-124623286D01*
X117974000Y-124695857D01*
X117901428Y-124768429D01*
X117792571Y-124804714D01*
X117611143Y-124804714D01*
D12*
X114949143Y-104470762D02*
X114996762Y-104518381D01*
X115044381Y-104661238D01*
X115044381Y-104756476D01*
X114996762Y-104899334D01*
X114901524Y-104994572D01*
X114806286Y-105042191D01*
X114615810Y-105089810D01*
X114472952Y-105089810D01*
X114282476Y-105042191D01*
X114187238Y-104994572D01*
X114092000Y-104899334D01*
X114044381Y-104756476D01*
X114044381Y-104661238D01*
X114092000Y-104518381D01*
X114139619Y-104470762D01*
X114044381Y-104042191D02*
X114853905Y-104042191D01*
X114949143Y-103994572D01*
X114996762Y-103946953D01*
X115044381Y-103851715D01*
X115044381Y-103661238D01*
X114996762Y-103566000D01*
X114949143Y-103518381D01*
X114853905Y-103470762D01*
X114044381Y-103470762D01*
X114044381Y-103137429D02*
X114044381Y-102566000D01*
X115044381Y-102851715D02*
X114044381Y-102851715D01*
X114044381Y-101280286D02*
X114044381Y-101089809D01*
X114092000Y-100994571D01*
X114187238Y-100899333D01*
X114377714Y-100851714D01*
X114711048Y-100851714D01*
X114901524Y-100899333D01*
X114996762Y-100994571D01*
X115044381Y-101089809D01*
X115044381Y-101280286D01*
X114996762Y-101375524D01*
X114901524Y-101470762D01*
X114711048Y-101518381D01*
X114377714Y-101518381D01*
X114187238Y-101470762D01*
X114092000Y-101375524D01*
X114044381Y-101280286D01*
X114044381Y-100423143D02*
X114853905Y-100423143D01*
X114949143Y-100375524D01*
X114996762Y-100327905D01*
X115044381Y-100232667D01*
X115044381Y-100042190D01*
X114996762Y-99946952D01*
X114949143Y-99899333D01*
X114853905Y-99851714D01*
X114044381Y-99851714D01*
X114044381Y-99518381D02*
X114044381Y-98946952D01*
X115044381Y-99232667D02*
X114044381Y-99232667D01*
D11*
X102788429Y-134202714D02*
X102788429Y-134819571D01*
X102824714Y-134892143D01*
X102861000Y-134928429D01*
X102933571Y-134964714D01*
X103078714Y-134964714D01*
X103151286Y-134928429D01*
X103187571Y-134892143D01*
X103223857Y-134819571D01*
X103223857Y-134202714D01*
X103550429Y-134928429D02*
X103659286Y-134964714D01*
X103840715Y-134964714D01*
X103913286Y-134928429D01*
X103949572Y-134892143D01*
X103985857Y-134819571D01*
X103985857Y-134747000D01*
X103949572Y-134674429D01*
X103913286Y-134638143D01*
X103840715Y-134601857D01*
X103695572Y-134565571D01*
X103623000Y-134529286D01*
X103586715Y-134493000D01*
X103550429Y-134420429D01*
X103550429Y-134347857D01*
X103586715Y-134275286D01*
X103623000Y-134239000D01*
X103695572Y-134202714D01*
X103877000Y-134202714D01*
X103985857Y-134239000D01*
X104566429Y-134565571D02*
X104675286Y-134601857D01*
X104711571Y-134638143D01*
X104747857Y-134710714D01*
X104747857Y-134819571D01*
X104711571Y-134892143D01*
X104675286Y-134928429D01*
X104602714Y-134964714D01*
X104312429Y-134964714D01*
X104312429Y-134202714D01*
X104566429Y-134202714D01*
X104639000Y-134239000D01*
X104675286Y-134275286D01*
X104711571Y-134347857D01*
X104711571Y-134420429D01*
X104675286Y-134493000D01*
X104639000Y-134529286D01*
X104566429Y-134565571D01*
X104312429Y-134565571D01*
D15*
X120235809Y-133071810D02*
X120284190Y-133071810D01*
X120332571Y-133096000D01*
X120356762Y-133120190D01*
X120380952Y-133168571D01*
X120405143Y-133265333D01*
X120405143Y-133386286D01*
X120380952Y-133483048D01*
X120356762Y-133531429D01*
X120332571Y-133555619D01*
X120284190Y-133579810D01*
X120235809Y-133579810D01*
X120187428Y-133555619D01*
X120163238Y-133531429D01*
X120139047Y-133483048D01*
X120114857Y-133386286D01*
X120114857Y-133265333D01*
X120139047Y-133168571D01*
X120163238Y-133120190D01*
X120187428Y-133096000D01*
X120235809Y-133071810D01*
X96235809Y-133071810D02*
X96284190Y-133071810D01*
X96332571Y-133096000D01*
X96356762Y-133120190D01*
X96380952Y-133168571D01*
X96405143Y-133265333D01*
X96405143Y-133386286D01*
X96380952Y-133483048D01*
X96356762Y-133531429D01*
X96332571Y-133555619D01*
X96284190Y-133579810D01*
X96235809Y-133579810D01*
X96187428Y-133555619D01*
X96163238Y-133531429D01*
X96139047Y-133483048D01*
X96114857Y-133386286D01*
X96114857Y-133265333D01*
X96139047Y-133168571D01*
X96163238Y-133120190D01*
X96187428Y-133096000D01*
X96235809Y-133071810D01*
X72235809Y-133071810D02*
X72284190Y-133071810D01*
X72332571Y-133096000D01*
X72356762Y-133120190D01*
X72380952Y-133168571D01*
X72405143Y-133265333D01*
X72405143Y-133386286D01*
X72380952Y-133483048D01*
X72356762Y-133531429D01*
X72332571Y-133555619D01*
X72284190Y-133579810D01*
X72235809Y-133579810D01*
X72187428Y-133555619D01*
X72163238Y-133531429D01*
X72139047Y-133483048D01*
X72114857Y-133386286D01*
X72114857Y-133265333D01*
X72139047Y-133168571D01*
X72163238Y-133120190D01*
X72187428Y-133096000D01*
X72235809Y-133071810D01*
D11*
X60503429Y-124587000D02*
X60866286Y-124587000D01*
X60430857Y-124804714D02*
X60684857Y-124042714D01*
X60938857Y-124804714D01*
X61192858Y-124804714D02*
X61192858Y-124042714D01*
X61483143Y-124042714D01*
X61555715Y-124079000D01*
X61592000Y-124115286D01*
X61628286Y-124187857D01*
X61628286Y-124296714D01*
X61592000Y-124369286D01*
X61555715Y-124405571D01*
X61483143Y-124441857D01*
X61192858Y-124441857D01*
X61954858Y-124804714D02*
X61954858Y-124042714D01*
X62245143Y-124042714D01*
X62317715Y-124079000D01*
X62354000Y-124115286D01*
X62390286Y-124187857D01*
X62390286Y-124296714D01*
X62354000Y-124369286D01*
X62317715Y-124405571D01*
X62245143Y-124441857D01*
X61954858Y-124441857D01*
X63079715Y-124804714D02*
X62716858Y-124804714D01*
X62716858Y-124042714D01*
X63333715Y-124405571D02*
X63587715Y-124405571D01*
X63696572Y-124804714D02*
X63333715Y-124804714D01*
X63333715Y-124042714D01*
X63696572Y-124042714D01*
X63841715Y-124877286D02*
X64422286Y-124877286D01*
X64531143Y-124042714D02*
X64712572Y-124804714D01*
X64857715Y-124260429D01*
X65002857Y-124804714D01*
X65184286Y-124042714D01*
X65474572Y-124804714D02*
X65474572Y-124042714D01*
X66091429Y-124405571D02*
X65837429Y-124405571D01*
X65837429Y-124804714D02*
X65837429Y-124042714D01*
X66200286Y-124042714D01*
X66490572Y-124804714D02*
X66490572Y-124042714D01*
X66672000Y-124877286D02*
X67252571Y-124877286D01*
X67869428Y-124732143D02*
X67833142Y-124768429D01*
X67724285Y-124804714D01*
X67651714Y-124804714D01*
X67542857Y-124768429D01*
X67470285Y-124695857D01*
X67434000Y-124623286D01*
X67397714Y-124478143D01*
X67397714Y-124369286D01*
X67434000Y-124224143D01*
X67470285Y-124151571D01*
X67542857Y-124079000D01*
X67651714Y-124042714D01*
X67724285Y-124042714D01*
X67833142Y-124079000D01*
X67869428Y-124115286D01*
X68159714Y-124587000D02*
X68522571Y-124587000D01*
X68087142Y-124804714D02*
X68341142Y-124042714D01*
X68595142Y-124804714D01*
X69284571Y-124804714D02*
X69030571Y-124441857D01*
X68849143Y-124804714D02*
X68849143Y-124042714D01*
X69139428Y-124042714D01*
X69212000Y-124079000D01*
X69248285Y-124115286D01*
X69284571Y-124187857D01*
X69284571Y-124296714D01*
X69248285Y-124369286D01*
X69212000Y-124405571D01*
X69139428Y-124441857D01*
X68849143Y-124441857D01*
X69611143Y-124804714D02*
X69611143Y-124042714D01*
X69792571Y-124042714D01*
X69901428Y-124079000D01*
X69974000Y-124151571D01*
X70010285Y-124224143D01*
X70046571Y-124369286D01*
X70046571Y-124478143D01*
X70010285Y-124623286D01*
X69974000Y-124695857D01*
X69901428Y-124768429D01*
X69792571Y-124804714D01*
X69611143Y-124804714D01*
D12*
X66949143Y-104470762D02*
X66996762Y-104518381D01*
X67044381Y-104661238D01*
X67044381Y-104756476D01*
X66996762Y-104899334D01*
X66901524Y-104994572D01*
X66806286Y-105042191D01*
X66615810Y-105089810D01*
X66472952Y-105089810D01*
X66282476Y-105042191D01*
X66187238Y-104994572D01*
X66092000Y-104899334D01*
X66044381Y-104756476D01*
X66044381Y-104661238D01*
X66092000Y-104518381D01*
X66139619Y-104470762D01*
X66044381Y-104042191D02*
X66853905Y-104042191D01*
X66949143Y-103994572D01*
X66996762Y-103946953D01*
X67044381Y-103851715D01*
X67044381Y-103661238D01*
X66996762Y-103566000D01*
X66949143Y-103518381D01*
X66853905Y-103470762D01*
X66044381Y-103470762D01*
X66044381Y-103137429D02*
X66044381Y-102566000D01*
X67044381Y-102851715D02*
X66044381Y-102851715D01*
X66044381Y-101280286D02*
X66044381Y-101089809D01*
X66092000Y-100994571D01*
X66187238Y-100899333D01*
X66377714Y-100851714D01*
X66711048Y-100851714D01*
X66901524Y-100899333D01*
X66996762Y-100994571D01*
X67044381Y-101089809D01*
X67044381Y-101280286D01*
X66996762Y-101375524D01*
X66901524Y-101470762D01*
X66711048Y-101518381D01*
X66377714Y-101518381D01*
X66187238Y-101470762D01*
X66092000Y-101375524D01*
X66044381Y-101280286D01*
X66044381Y-100423143D02*
X66853905Y-100423143D01*
X66949143Y-100375524D01*
X66996762Y-100327905D01*
X67044381Y-100232667D01*
X67044381Y-100042190D01*
X66996762Y-99946952D01*
X66949143Y-99899333D01*
X66853905Y-99851714D01*
X66044381Y-99851714D01*
X66044381Y-99518381D02*
X66044381Y-98946952D01*
X67044381Y-99232667D02*
X66044381Y-99232667D01*
D11*
X54788429Y-134202714D02*
X54788429Y-134819571D01*
X54824714Y-134892143D01*
X54861000Y-134928429D01*
X54933571Y-134964714D01*
X55078714Y-134964714D01*
X55151286Y-134928429D01*
X55187571Y-134892143D01*
X55223857Y-134819571D01*
X55223857Y-134202714D01*
X55550429Y-134928429D02*
X55659286Y-134964714D01*
X55840715Y-134964714D01*
X55913286Y-134928429D01*
X55949572Y-134892143D01*
X55985857Y-134819571D01*
X55985857Y-134747000D01*
X55949572Y-134674429D01*
X55913286Y-134638143D01*
X55840715Y-134601857D01*
X55695572Y-134565571D01*
X55623000Y-134529286D01*
X55586715Y-134493000D01*
X55550429Y-134420429D01*
X55550429Y-134347857D01*
X55586715Y-134275286D01*
X55623000Y-134239000D01*
X55695572Y-134202714D01*
X55877000Y-134202714D01*
X55985857Y-134239000D01*
X56566429Y-134565571D02*
X56675286Y-134601857D01*
X56711571Y-134638143D01*
X56747857Y-134710714D01*
X56747857Y-134819571D01*
X56711571Y-134892143D01*
X56675286Y-134928429D01*
X56602714Y-134964714D01*
X56312429Y-134964714D01*
X56312429Y-134202714D01*
X56566429Y-134202714D01*
X56639000Y-134239000D01*
X56675286Y-134275286D01*
X56711571Y-134347857D01*
X56711571Y-134420429D01*
X56675286Y-134493000D01*
X56639000Y-134529286D01*
X56566429Y-134565571D01*
X56312429Y-134565571D01*
X30788429Y-134202714D02*
X30788429Y-134819571D01*
X30824714Y-134892143D01*
X30861000Y-134928429D01*
X30933571Y-134964714D01*
X31078714Y-134964714D01*
X31151286Y-134928429D01*
X31187571Y-134892143D01*
X31223857Y-134819571D01*
X31223857Y-134202714D01*
X31550429Y-134928429D02*
X31659286Y-134964714D01*
X31840715Y-134964714D01*
X31913286Y-134928429D01*
X31949572Y-134892143D01*
X31985857Y-134819571D01*
X31985857Y-134747000D01*
X31949572Y-134674429D01*
X31913286Y-134638143D01*
X31840715Y-134601857D01*
X31695572Y-134565571D01*
X31623000Y-134529286D01*
X31586715Y-134493000D01*
X31550429Y-134420429D01*
X31550429Y-134347857D01*
X31586715Y-134275286D01*
X31623000Y-134239000D01*
X31695572Y-134202714D01*
X31877000Y-134202714D01*
X31985857Y-134239000D01*
X32566429Y-134565571D02*
X32675286Y-134601857D01*
X32711571Y-134638143D01*
X32747857Y-134710714D01*
X32747857Y-134819571D01*
X32711571Y-134892143D01*
X32675286Y-134928429D01*
X32602714Y-134964714D01*
X32312429Y-134964714D01*
X32312429Y-134202714D01*
X32566429Y-134202714D01*
X32639000Y-134239000D01*
X32675286Y-134275286D01*
X32711571Y-134347857D01*
X32711571Y-134420429D01*
X32675286Y-134493000D01*
X32639000Y-134529286D01*
X32566429Y-134565571D01*
X32312429Y-134565571D01*
X36503429Y-124587000D02*
X36866286Y-124587000D01*
X36430857Y-124804714D02*
X36684857Y-124042714D01*
X36938857Y-124804714D01*
X37192858Y-124804714D02*
X37192858Y-124042714D01*
X37483143Y-124042714D01*
X37555715Y-124079000D01*
X37592000Y-124115286D01*
X37628286Y-124187857D01*
X37628286Y-124296714D01*
X37592000Y-124369286D01*
X37555715Y-124405571D01*
X37483143Y-124441857D01*
X37192858Y-124441857D01*
X37954858Y-124804714D02*
X37954858Y-124042714D01*
X38245143Y-124042714D01*
X38317715Y-124079000D01*
X38354000Y-124115286D01*
X38390286Y-124187857D01*
X38390286Y-124296714D01*
X38354000Y-124369286D01*
X38317715Y-124405571D01*
X38245143Y-124441857D01*
X37954858Y-124441857D01*
X39079715Y-124804714D02*
X38716858Y-124804714D01*
X38716858Y-124042714D01*
X39333715Y-124405571D02*
X39587715Y-124405571D01*
X39696572Y-124804714D02*
X39333715Y-124804714D01*
X39333715Y-124042714D01*
X39696572Y-124042714D01*
X39841715Y-124877286D02*
X40422286Y-124877286D01*
X40531143Y-124042714D02*
X40712572Y-124804714D01*
X40857715Y-124260429D01*
X41002857Y-124804714D01*
X41184286Y-124042714D01*
X41474572Y-124804714D02*
X41474572Y-124042714D01*
X42091429Y-124405571D02*
X41837429Y-124405571D01*
X41837429Y-124804714D02*
X41837429Y-124042714D01*
X42200286Y-124042714D01*
X42490572Y-124804714D02*
X42490572Y-124042714D01*
X42672000Y-124877286D02*
X43252571Y-124877286D01*
X43869428Y-124732143D02*
X43833142Y-124768429D01*
X43724285Y-124804714D01*
X43651714Y-124804714D01*
X43542857Y-124768429D01*
X43470285Y-124695857D01*
X43434000Y-124623286D01*
X43397714Y-124478143D01*
X43397714Y-124369286D01*
X43434000Y-124224143D01*
X43470285Y-124151571D01*
X43542857Y-124079000D01*
X43651714Y-124042714D01*
X43724285Y-124042714D01*
X43833142Y-124079000D01*
X43869428Y-124115286D01*
X44159714Y-124587000D02*
X44522571Y-124587000D01*
X44087142Y-124804714D02*
X44341142Y-124042714D01*
X44595142Y-124804714D01*
X45284571Y-124804714D02*
X45030571Y-124441857D01*
X44849143Y-124804714D02*
X44849143Y-124042714D01*
X45139428Y-124042714D01*
X45212000Y-124079000D01*
X45248285Y-124115286D01*
X45284571Y-124187857D01*
X45284571Y-124296714D01*
X45248285Y-124369286D01*
X45212000Y-124405571D01*
X45139428Y-124441857D01*
X44849143Y-124441857D01*
X45611143Y-124804714D02*
X45611143Y-124042714D01*
X45792571Y-124042714D01*
X45901428Y-124079000D01*
X45974000Y-124151571D01*
X46010285Y-124224143D01*
X46046571Y-124369286D01*
X46046571Y-124478143D01*
X46010285Y-124623286D01*
X45974000Y-124695857D01*
X45901428Y-124768429D01*
X45792571Y-124804714D01*
X45611143Y-124804714D01*
D12*
X42949143Y-104470762D02*
X42996762Y-104518381D01*
X43044381Y-104661238D01*
X43044381Y-104756476D01*
X42996762Y-104899334D01*
X42901524Y-104994572D01*
X42806286Y-105042191D01*
X42615810Y-105089810D01*
X42472952Y-105089810D01*
X42282476Y-105042191D01*
X42187238Y-104994572D01*
X42092000Y-104899334D01*
X42044381Y-104756476D01*
X42044381Y-104661238D01*
X42092000Y-104518381D01*
X42139619Y-104470762D01*
X42044381Y-104042191D02*
X42853905Y-104042191D01*
X42949143Y-103994572D01*
X42996762Y-103946953D01*
X43044381Y-103851715D01*
X43044381Y-103661238D01*
X42996762Y-103566000D01*
X42949143Y-103518381D01*
X42853905Y-103470762D01*
X42044381Y-103470762D01*
X42044381Y-103137429D02*
X42044381Y-102566000D01*
X43044381Y-102851715D02*
X42044381Y-102851715D01*
X42044381Y-101280286D02*
X42044381Y-101089809D01*
X42092000Y-100994571D01*
X42187238Y-100899333D01*
X42377714Y-100851714D01*
X42711048Y-100851714D01*
X42901524Y-100899333D01*
X42996762Y-100994571D01*
X43044381Y-101089809D01*
X43044381Y-101280286D01*
X42996762Y-101375524D01*
X42901524Y-101470762D01*
X42711048Y-101518381D01*
X42377714Y-101518381D01*
X42187238Y-101470762D01*
X42092000Y-101375524D01*
X42044381Y-101280286D01*
X42044381Y-100423143D02*
X42853905Y-100423143D01*
X42949143Y-100375524D01*
X42996762Y-100327905D01*
X43044381Y-100232667D01*
X43044381Y-100042190D01*
X42996762Y-99946952D01*
X42949143Y-99899333D01*
X42853905Y-99851714D01*
X42044381Y-99851714D01*
X42044381Y-99518381D02*
X42044381Y-98946952D01*
X43044381Y-99232667D02*
X42044381Y-99232667D01*
D15*
X48235809Y-133071810D02*
X48284190Y-133071810D01*
X48332571Y-133096000D01*
X48356762Y-133120190D01*
X48380952Y-133168571D01*
X48405143Y-133265333D01*
X48405143Y-133386286D01*
X48380952Y-133483048D01*
X48356762Y-133531429D01*
X48332571Y-133555619D01*
X48284190Y-133579810D01*
X48235809Y-133579810D01*
X48187428Y-133555619D01*
X48163238Y-133531429D01*
X48139047Y-133483048D01*
X48114857Y-133386286D01*
X48114857Y-133265333D01*
X48139047Y-133168571D01*
X48163238Y-133120190D01*
X48187428Y-133096000D01*
X48235809Y-133071810D01*
M02*
