M48
;DRILL file {KiCad 4.0.5} date Monday, October 16, 2017 'PMt' 01:44:09 PM
;FORMAT={-:-/ absolute / inch / decimal}
FMAT,2
INCH,TZ
T1C0.014
T2C0.017
T3C0.030
T4C0.145
T5C0.150
%
G90
G05
M72
T1
X1.2484Y-5.0484
X1.25Y-5.
X1.35Y-4.925
X1.35Y-5.15
X1.35Y-5.55
X1.375Y-5.175
X1.375Y-5.525
X1.4Y-5.05
X1.4Y-5.2
X1.4Y-5.425
X1.4Y-5.475
X1.425Y-5.
X1.425Y-5.225
X1.475Y-4.975
X1.475Y-5.25
X1.5Y-5.225
X1.525Y-4.975
X1.525Y-5.25
X1.525Y-5.5
X1.55Y-4.85
X1.55Y-5.3
X1.55Y-5.55
X1.575Y-5.125
X1.575Y-5.575
X1.625Y-5.125
X1.625Y-5.5
X1.675Y-5.3
X1.7Y-4.975
X1.725Y-5.175
X1.75Y-5.15
X1.825Y-5.475
X1.825Y-5.55
X1.85Y-5.2
X1.85Y-5.3
X1.875Y-5.1
X1.9Y-5.3
X1.95Y-4.925
X1.95Y-5.55
T2
X1.3526Y-4.8057
X1.3836Y-4.8057
X1.4146Y-4.8057
X1.4456Y-4.8057
X1.4766Y-4.8057
X1.5076Y-4.8057
X1.6006Y-4.8057
X1.6316Y-4.8057
X1.6626Y-4.8057
X1.6936Y-4.8057
X1.7246Y-4.8057
X1.7556Y-4.8057
X1.7866Y-4.8057
X1.8176Y-4.8057
X1.8486Y-4.8057
X1.8796Y-4.8057
X1.9106Y-4.8057
X1.9416Y-4.8057
T3
X1.4256Y-5.0957
X1.7856Y-5.0957
T4
X1.5831Y-2.5504
T5
X1.5156Y-3.1128
T0
M30
