G04 #@! TF.FileFunction,Copper,L2,Bot,Signal*
%FSLAX46Y46*%
G04 Gerber Fmt 4.6, Leading zero omitted, Abs format (unit mm)*
G04 Created by KiCad (PCBNEW 4.0.5) date Wednesday, September 13, 2017 'PMt' 01:05:14 PM*
%MOMM*%
%LPD*%
G01*
G04 APERTURE LIST*
%ADD10C,0.100000*%
%ADD11R,0.558800X1.500000*%
%ADD12O,1.270000X1.270000*%
%ADD13C,5.080000*%
%ADD14R,0.254000X1.600000*%
%ADD15C,6.350000*%
%ADD16C,0.685800*%
%ADD17C,0.177800*%
%ADD18C,0.254000*%
G04 APERTURE END LIST*
D10*
D11*
X97316400Y-122466000D03*
X96529000Y-122466000D03*
X95741600Y-122466000D03*
X94954200Y-122466000D03*
X94166800Y-122466000D03*
X93379400Y-122466000D03*
X92592000Y-122466000D03*
X91804600Y-122466000D03*
X91017200Y-122466000D03*
X90229800Y-122466000D03*
X89442400Y-122466000D03*
X88655000Y-122466000D03*
X86292800Y-122466000D03*
X85505400Y-122466000D03*
X84718000Y-122466000D03*
X83930600Y-122466000D03*
X83143200Y-122466000D03*
X82355800Y-122466000D03*
D12*
X84210000Y-129432000D03*
X93354000Y-129432000D03*
D13*
X86496000Y-79066000D03*
D11*
X121316400Y-122466000D03*
X120529000Y-122466000D03*
X119741600Y-122466000D03*
X118954200Y-122466000D03*
X118166800Y-122466000D03*
X117379400Y-122466000D03*
X116592000Y-122466000D03*
X115804600Y-122466000D03*
X115017200Y-122466000D03*
X114229800Y-122466000D03*
X113442400Y-122466000D03*
X112655000Y-122466000D03*
X110292800Y-122466000D03*
X109505400Y-122466000D03*
X108718000Y-122466000D03*
X107930600Y-122466000D03*
X107143200Y-122466000D03*
X106355800Y-122466000D03*
D12*
X108210000Y-129432000D03*
X117354000Y-129432000D03*
D13*
X110496000Y-79066000D03*
D14*
X103210000Y-143780000D03*
X103710000Y-143780000D03*
X104210000Y-143780000D03*
X104710000Y-143780000D03*
X105210000Y-143780000D03*
X105710000Y-143780000D03*
X106210000Y-143780000D03*
X106710000Y-143780000D03*
X107210000Y-143780000D03*
X107710000Y-143780000D03*
X108210000Y-143780000D03*
X108710000Y-143780000D03*
X109210000Y-143780000D03*
X109710000Y-143780000D03*
X110210000Y-143780000D03*
X110710000Y-143780000D03*
X111210000Y-143780000D03*
X111710000Y-143780000D03*
X112210000Y-143780000D03*
X112710000Y-143780000D03*
X113210000Y-143780000D03*
X113710000Y-143780000D03*
X114210000Y-143780000D03*
X114710000Y-143780000D03*
X115210000Y-143780000D03*
X115710000Y-143780000D03*
X116210000Y-143780000D03*
X116710000Y-143780000D03*
X117210000Y-143780000D03*
X119710000Y-143780000D03*
X120210000Y-143780000D03*
X120710000Y-143780000D03*
X121210000Y-143780000D03*
X79210000Y-143780000D03*
X79710000Y-143780000D03*
X80210000Y-143780000D03*
X80710000Y-143780000D03*
X81210000Y-143780000D03*
X81710000Y-143780000D03*
X82210000Y-143780000D03*
X82710000Y-143780000D03*
X83210000Y-143780000D03*
X83710000Y-143780000D03*
X84210000Y-143780000D03*
X84710000Y-143780000D03*
X85210000Y-143780000D03*
X85710000Y-143780000D03*
X86210000Y-143780000D03*
X86710000Y-143780000D03*
X87210000Y-143780000D03*
X87710000Y-143780000D03*
X88210000Y-143780000D03*
X88710000Y-143780000D03*
X89210000Y-143780000D03*
X89710000Y-143780000D03*
X90210000Y-143780000D03*
X90710000Y-143780000D03*
X91210000Y-143780000D03*
X91710000Y-143780000D03*
X92210000Y-143780000D03*
X92710000Y-143780000D03*
X93210000Y-143780000D03*
X95710000Y-143780000D03*
X96210000Y-143780000D03*
X96710000Y-143780000D03*
X97210000Y-143780000D03*
D15*
X88210000Y-64780000D03*
X112210000Y-64780000D03*
X64210000Y-64780000D03*
D14*
X55210000Y-143780000D03*
X55710000Y-143780000D03*
X56210000Y-143780000D03*
X56710000Y-143780000D03*
X57210000Y-143780000D03*
X57710000Y-143780000D03*
X58210000Y-143780000D03*
X58710000Y-143780000D03*
X59210000Y-143780000D03*
X59710000Y-143780000D03*
X60210000Y-143780000D03*
X60710000Y-143780000D03*
X61210000Y-143780000D03*
X61710000Y-143780000D03*
X62210000Y-143780000D03*
X62710000Y-143780000D03*
X63210000Y-143780000D03*
X63710000Y-143780000D03*
X64210000Y-143780000D03*
X64710000Y-143780000D03*
X65210000Y-143780000D03*
X65710000Y-143780000D03*
X66210000Y-143780000D03*
X66710000Y-143780000D03*
X67210000Y-143780000D03*
X67710000Y-143780000D03*
X68210000Y-143780000D03*
X68710000Y-143780000D03*
X69210000Y-143780000D03*
X71710000Y-143780000D03*
X72210000Y-143780000D03*
X72710000Y-143780000D03*
X73210000Y-143780000D03*
D11*
X73316400Y-122466000D03*
X72529000Y-122466000D03*
X71741600Y-122466000D03*
X70954200Y-122466000D03*
X70166800Y-122466000D03*
X69379400Y-122466000D03*
X68592000Y-122466000D03*
X67804600Y-122466000D03*
X67017200Y-122466000D03*
X66229800Y-122466000D03*
X65442400Y-122466000D03*
X64655000Y-122466000D03*
X62292800Y-122466000D03*
X61505400Y-122466000D03*
X60718000Y-122466000D03*
X59930600Y-122466000D03*
X59143200Y-122466000D03*
X58355800Y-122466000D03*
D12*
X60210000Y-129432000D03*
X69354000Y-129432000D03*
D13*
X62496000Y-79066000D03*
D11*
X49316400Y-122466000D03*
X48529000Y-122466000D03*
X47741600Y-122466000D03*
X46954200Y-122466000D03*
X46166800Y-122466000D03*
X45379400Y-122466000D03*
X44592000Y-122466000D03*
X43804600Y-122466000D03*
X43017200Y-122466000D03*
X42229800Y-122466000D03*
X41442400Y-122466000D03*
X40655000Y-122466000D03*
X38292800Y-122466000D03*
X37505400Y-122466000D03*
X36718000Y-122466000D03*
X35930600Y-122466000D03*
X35143200Y-122466000D03*
X34355800Y-122466000D03*
D12*
X36210000Y-129432000D03*
X45354000Y-129432000D03*
D13*
X38496000Y-79066000D03*
D14*
X31210000Y-143780000D03*
X31710000Y-143780000D03*
X32210000Y-143780000D03*
X32710000Y-143780000D03*
X33210000Y-143780000D03*
X33710000Y-143780000D03*
X34210000Y-143780000D03*
X34710000Y-143780000D03*
X35210000Y-143780000D03*
X35710000Y-143780000D03*
X36210000Y-143780000D03*
X36710000Y-143780000D03*
X37210000Y-143780000D03*
X37710000Y-143780000D03*
X38210000Y-143780000D03*
X38710000Y-143780000D03*
X39210000Y-143780000D03*
X39710000Y-143780000D03*
X40210000Y-143780000D03*
X40710000Y-143780000D03*
X41210000Y-143780000D03*
X41710000Y-143780000D03*
X42210000Y-143780000D03*
X42710000Y-143780000D03*
X43210000Y-143780000D03*
X43710000Y-143780000D03*
X44210000Y-143780000D03*
X44710000Y-143780000D03*
X45210000Y-143780000D03*
X47710000Y-143780000D03*
X48210000Y-143780000D03*
X48710000Y-143780000D03*
X49210000Y-143780000D03*
D15*
X40210000Y-64780000D03*
D16*
X106290000Y-125095000D03*
X121530000Y-125095000D03*
X106290000Y-140335000D03*
X106290000Y-141605000D03*
X82290000Y-125095000D03*
X97530000Y-125095000D03*
X82290000Y-140335000D03*
X82290000Y-141605000D03*
X58290000Y-125095000D03*
X73530000Y-125095000D03*
X58290000Y-141605000D03*
X58290000Y-140335000D03*
X34290000Y-140335000D03*
X34290000Y-141605000D03*
X49530000Y-125095000D03*
X34290000Y-125095000D03*
X115180000Y-126365000D03*
X119625000Y-129540000D03*
X111370000Y-123190000D03*
X107560000Y-139700000D03*
X103115000Y-140335000D03*
X115180000Y-139065000D03*
X112640000Y-138430000D03*
X87370000Y-123190000D03*
X95625000Y-129540000D03*
X91180000Y-126365000D03*
X88640000Y-138430000D03*
X91180000Y-139065000D03*
X83560000Y-139700000D03*
X79115000Y-140335000D03*
X67180000Y-139065000D03*
X63370000Y-123190000D03*
X64640000Y-138430000D03*
X71625000Y-129540000D03*
X67180000Y-126365000D03*
X55115000Y-140335000D03*
X59560000Y-139700000D03*
X43180000Y-126365000D03*
X39370000Y-123190000D03*
X47625000Y-129540000D03*
X40640000Y-138430000D03*
X43180000Y-139065000D03*
X35560000Y-139700000D03*
X31115000Y-140335000D03*
X114545000Y-135255000D03*
X118990000Y-135255000D03*
X94990000Y-135255000D03*
X90545000Y-135255000D03*
X66545000Y-135255000D03*
X70990000Y-135255000D03*
X46990000Y-135255000D03*
X42545000Y-135255000D03*
X113910000Y-136525000D03*
X118355000Y-136525000D03*
X94355000Y-136525000D03*
X89910000Y-136525000D03*
X65910000Y-136525000D03*
X70355000Y-136525000D03*
X46355000Y-136525000D03*
X41910000Y-136525000D03*
X112005000Y-125730000D03*
X113910000Y-125730000D03*
X88005000Y-125730000D03*
X89910000Y-125730000D03*
X64005000Y-125730000D03*
X65910000Y-125730000D03*
X41910000Y-125730000D03*
X40005000Y-125730000D03*
X113275000Y-124460000D03*
X111370000Y-124460000D03*
X87370000Y-124460000D03*
X89275000Y-124460000D03*
X63370000Y-124460000D03*
X65275000Y-124460000D03*
X41275000Y-124460000D03*
X39370000Y-124460000D03*
X117085000Y-141605000D03*
X117085000Y-137795000D03*
X110735000Y-137795000D03*
X93085000Y-137795000D03*
X93085000Y-141605000D03*
X86735000Y-137795000D03*
X69085000Y-141605000D03*
X69085000Y-137795000D03*
X62735000Y-137795000D03*
X45085000Y-141605000D03*
X45085000Y-137795000D03*
X38735000Y-137795000D03*
X110100000Y-138430000D03*
X86100000Y-138430000D03*
X62100000Y-138430000D03*
X38100000Y-138430000D03*
X117720000Y-139700000D03*
X109465000Y-133985000D03*
X117720000Y-133985000D03*
X93720000Y-133985000D03*
X93720000Y-139700000D03*
X85465000Y-133985000D03*
X69720000Y-139700000D03*
X61465000Y-133985000D03*
X69720000Y-133985000D03*
X37465000Y-133985000D03*
X45720000Y-133985000D03*
X45720000Y-139700000D03*
X103750000Y-127000000D03*
X108195000Y-127000000D03*
X79750000Y-127000000D03*
X84195000Y-127000000D03*
X60195000Y-127000000D03*
X55750000Y-127000000D03*
X31750000Y-127000000D03*
X36195000Y-127000000D03*
X103710000Y-128230000D03*
X107560000Y-128270000D03*
X83560000Y-128270000D03*
X79710000Y-128230000D03*
X59560000Y-128270000D03*
X55710000Y-128230000D03*
X31710000Y-128230000D03*
X35560000Y-128270000D03*
X105020000Y-135890000D03*
X105020000Y-141605000D03*
X120260000Y-135890000D03*
X96260000Y-135890000D03*
X81020000Y-135890000D03*
X81020000Y-141605000D03*
X72260000Y-135890000D03*
X57020000Y-135890000D03*
X57020000Y-141605000D03*
X33020000Y-141605000D03*
X33020000Y-135890000D03*
X48260000Y-135890000D03*
D17*
X80385000Y-140335000D02*
X82290000Y-140335000D01*
X79750000Y-142240000D02*
X79750000Y-140970000D01*
X79750000Y-140970000D02*
X80385000Y-140335000D01*
X82290000Y-125095000D02*
X97530000Y-125095000D01*
X79210000Y-143780000D02*
X79210000Y-142780000D01*
X79210000Y-142780000D02*
X79750000Y-142240000D01*
X79710000Y-142280000D02*
X79750000Y-142240000D01*
X79710000Y-143780000D02*
X79710000Y-142280000D01*
X106710000Y-142025000D02*
X106290000Y-141605000D01*
X105710000Y-143780000D02*
X105710000Y-142185000D01*
X107210000Y-142525000D02*
X106290000Y-141605000D01*
X107210000Y-143780000D02*
X107210000Y-142525000D01*
X106710000Y-143780000D02*
X106710000Y-142025000D01*
X103750000Y-140970000D02*
X104385000Y-140335000D01*
X103750000Y-142240000D02*
X103750000Y-140970000D01*
X104385000Y-140335000D02*
X106290000Y-140335000D01*
X103210000Y-143780000D02*
X103210000Y-142780000D01*
X103210000Y-142780000D02*
X103750000Y-142240000D01*
X103710000Y-143780000D02*
X103710000Y-142280000D01*
X103710000Y-142280000D02*
X103750000Y-142240000D01*
X105710000Y-142185000D02*
X106290000Y-141605000D01*
X106290000Y-141605000D02*
X106210000Y-141685000D01*
X106210000Y-141685000D02*
X106210000Y-143780000D01*
X106290000Y-125095000D02*
X121530000Y-125095000D01*
X82710000Y-142025000D02*
X82290000Y-141605000D01*
X83210000Y-142525000D02*
X82290000Y-141605000D01*
X82710000Y-143780000D02*
X82710000Y-142025000D01*
X83210000Y-143780000D02*
X83210000Y-142525000D01*
X81710000Y-143780000D02*
X81710000Y-142185000D01*
X82210000Y-141685000D02*
X82210000Y-143780000D01*
X81710000Y-142185000D02*
X82290000Y-141605000D01*
X82290000Y-141605000D02*
X82210000Y-141685000D01*
X56385000Y-140335000D02*
X58290000Y-140335000D01*
X58290000Y-141605000D02*
X58210000Y-141685000D01*
X58210000Y-141685000D02*
X58210000Y-143780000D01*
X57710000Y-142185000D02*
X58290000Y-141605000D01*
X57710000Y-143780000D02*
X57710000Y-142185000D01*
X59210000Y-142525000D02*
X58290000Y-141605000D01*
X59210000Y-143780000D02*
X59210000Y-142525000D01*
X58710000Y-143780000D02*
X58710000Y-142025000D01*
X58710000Y-142025000D02*
X58290000Y-141605000D01*
X55210000Y-143780000D02*
X55210000Y-142780000D01*
X55710000Y-142280000D02*
X55750000Y-142240000D01*
X55710000Y-143780000D02*
X55710000Y-142280000D01*
X55210000Y-142780000D02*
X55750000Y-142240000D01*
X58290000Y-125095000D02*
X73530000Y-125095000D01*
X55750000Y-142240000D02*
X55750000Y-140970000D01*
X55750000Y-140970000D02*
X56385000Y-140335000D01*
X31710000Y-143780000D02*
X31710000Y-142280000D01*
X31710000Y-142280000D02*
X31750000Y-142240000D01*
X31210000Y-143780000D02*
X31210000Y-142780000D01*
X32385000Y-140335000D02*
X34290000Y-140335000D01*
X31750000Y-140970000D02*
X32385000Y-140335000D01*
X31750000Y-142240000D02*
X31750000Y-140970000D01*
X31210000Y-142780000D02*
X31750000Y-142240000D01*
X33710000Y-143780000D02*
X33710000Y-142185000D01*
X33710000Y-142185000D02*
X34290000Y-141605000D01*
X35210000Y-143780000D02*
X35210000Y-142525000D01*
X35210000Y-142525000D02*
X34290000Y-141605000D01*
X34710000Y-143780000D02*
X34710000Y-142025000D01*
X34710000Y-142025000D02*
X34290000Y-141605000D01*
X34210000Y-141685000D02*
X34210000Y-143780000D01*
X34290000Y-141605000D02*
X34210000Y-141685000D01*
X34290000Y-125095000D02*
X49530000Y-125095000D01*
X84210000Y-129432000D02*
X93354000Y-129432000D01*
X88210000Y-64780000D02*
X88210000Y-69010000D01*
X112210000Y-69010000D02*
X112005000Y-69215000D01*
X88210000Y-69010000D02*
X88005000Y-69215000D01*
X112210000Y-64780000D02*
X112210000Y-69010000D01*
X108210000Y-129432000D02*
X117354000Y-129432000D01*
X60210000Y-129432000D02*
X69354000Y-129432000D01*
X64210000Y-69010000D02*
X64005000Y-69215000D01*
X64210000Y-64780000D02*
X64210000Y-69010000D01*
X40210000Y-64780000D02*
X40210000Y-69010000D01*
X40210000Y-69010000D02*
X40005000Y-69215000D01*
X36210000Y-129432000D02*
X45354000Y-129432000D01*
X114545000Y-135255000D02*
X118990000Y-135255000D01*
X90545000Y-135255000D02*
X94990000Y-135255000D01*
X66545000Y-135255000D02*
X70990000Y-135255000D01*
X42545000Y-135255000D02*
X46990000Y-135255000D01*
X113910000Y-136525000D02*
X118355000Y-136525000D01*
X89910000Y-136525000D02*
X94355000Y-136525000D01*
X65910000Y-136525000D02*
X70355000Y-136525000D01*
X41910000Y-136525000D02*
X46355000Y-136525000D01*
X88005000Y-125730000D02*
X89910000Y-125730000D01*
X112005000Y-125730000D02*
X113910000Y-125730000D01*
X64005000Y-125730000D02*
X65910000Y-125730000D01*
X40005000Y-125730000D02*
X41910000Y-125730000D01*
X87370000Y-124460000D02*
X89275000Y-124460000D01*
X111370000Y-124460000D02*
X113275000Y-124460000D01*
X63370000Y-124460000D02*
X65275000Y-124460000D01*
X39370000Y-124460000D02*
X41275000Y-124460000D01*
X110735000Y-137795000D02*
X117085000Y-137795000D01*
X117085000Y-141605000D02*
X116210000Y-142480000D01*
X116210000Y-142480000D02*
X116210000Y-143780000D01*
X86735000Y-137795000D02*
X93085000Y-137795000D01*
X93085000Y-141605000D02*
X92210000Y-142480000D01*
X92210000Y-142480000D02*
X92210000Y-143780000D01*
X62735000Y-137795000D02*
X69085000Y-137795000D01*
X69085000Y-141605000D02*
X68210000Y-142480000D01*
X68210000Y-142480000D02*
X68210000Y-143780000D01*
X44210000Y-142480000D02*
X44210000Y-143780000D01*
X45085000Y-141605000D02*
X44210000Y-142480000D01*
X38735000Y-137795000D02*
X45085000Y-137795000D01*
X111430000Y-138430000D02*
X115210000Y-142210000D01*
X110100000Y-138430000D02*
X111430000Y-138430000D01*
X115210000Y-142210000D02*
X115210000Y-143780000D01*
X87430000Y-138430000D02*
X91210000Y-142210000D01*
X86100000Y-138430000D02*
X87430000Y-138430000D01*
X91210000Y-142210000D02*
X91210000Y-143780000D01*
X63430000Y-138430000D02*
X67210000Y-142210000D01*
X62100000Y-138430000D02*
X63430000Y-138430000D01*
X67210000Y-142210000D02*
X67210000Y-143780000D01*
X38100000Y-138430000D02*
X39430000Y-138430000D01*
X39430000Y-138430000D02*
X43210000Y-142210000D01*
X43210000Y-142210000D02*
X43210000Y-143780000D01*
X117720000Y-133985000D02*
X109465000Y-133985000D01*
X115815000Y-141605000D02*
X117720000Y-139700000D01*
X115710000Y-142980000D02*
X115710000Y-143780000D01*
X115815000Y-141605000D02*
X115815000Y-142875000D01*
X115815000Y-142875000D02*
X115710000Y-142980000D01*
X91815000Y-141605000D02*
X93720000Y-139700000D01*
X93720000Y-133985000D02*
X85465000Y-133985000D01*
X91710000Y-142980000D02*
X91710000Y-143780000D01*
X91815000Y-141605000D02*
X91815000Y-142875000D01*
X91815000Y-142875000D02*
X91710000Y-142980000D01*
X67815000Y-141605000D02*
X69720000Y-139700000D01*
X67710000Y-142980000D02*
X67710000Y-143780000D01*
X67815000Y-142875000D02*
X67710000Y-142980000D01*
X67815000Y-141605000D02*
X67815000Y-142875000D01*
X69720000Y-133985000D02*
X61465000Y-133985000D01*
X43815000Y-141605000D02*
X45720000Y-139700000D01*
X45720000Y-133985000D02*
X37465000Y-133985000D01*
X43815000Y-142875000D02*
X43710000Y-142980000D01*
X43815000Y-141605000D02*
X43815000Y-142875000D01*
X43710000Y-142980000D02*
X43710000Y-143780000D01*
X79770000Y-126980000D02*
X79750000Y-127000000D01*
X82925000Y-126980000D02*
X79770000Y-126980000D01*
X82925000Y-126980000D02*
X84175000Y-126980000D01*
X84175000Y-126980000D02*
X84195000Y-127000000D01*
X103770000Y-126980000D02*
X103750000Y-127000000D01*
X106925000Y-126980000D02*
X103770000Y-126980000D01*
X106925000Y-126980000D02*
X108175000Y-126980000D01*
X108175000Y-126980000D02*
X108195000Y-127000000D01*
X58925000Y-126980000D02*
X55770000Y-126980000D01*
X55770000Y-126980000D02*
X55750000Y-127000000D01*
X60175000Y-126980000D02*
X60195000Y-127000000D01*
X58925000Y-126980000D02*
X60175000Y-126980000D01*
X34925000Y-126980000D02*
X31770000Y-126980000D01*
X31770000Y-126980000D02*
X31750000Y-127000000D01*
X34925000Y-126980000D02*
X36175000Y-126980000D01*
X36175000Y-126980000D02*
X36195000Y-127000000D01*
X79710000Y-128230000D02*
X79750000Y-128270000D01*
X79750000Y-128270000D02*
X83560000Y-128270000D01*
X103710000Y-128230000D02*
X103750000Y-128270000D01*
X103750000Y-128270000D02*
X107560000Y-128270000D01*
X55710000Y-128230000D02*
X55750000Y-128270000D01*
X55750000Y-128270000D02*
X59560000Y-128270000D01*
X31750000Y-128270000D02*
X35560000Y-128270000D01*
X31710000Y-128230000D02*
X31750000Y-128270000D01*
X105020000Y-141605000D02*
X105210000Y-141795000D01*
X105210000Y-141795000D02*
X105210000Y-143780000D01*
X120260000Y-135890000D02*
X105020000Y-135890000D01*
X96260000Y-135890000D02*
X81020000Y-135890000D01*
X81020000Y-141605000D02*
X81210000Y-141795000D01*
X81210000Y-141795000D02*
X81210000Y-143780000D01*
X57210000Y-141795000D02*
X57210000Y-143780000D01*
X57020000Y-141605000D02*
X57210000Y-141795000D01*
X72260000Y-135890000D02*
X57020000Y-135890000D01*
X33210000Y-141795000D02*
X33210000Y-143780000D01*
X33020000Y-141605000D02*
X33210000Y-141795000D01*
X48260000Y-135890000D02*
X33020000Y-135890000D01*
D18*
G36*
X50569089Y-65266632D02*
X50661571Y-65328427D01*
X50723368Y-65420911D01*
X50754000Y-65574911D01*
X50754000Y-81985089D01*
X50723368Y-82139089D01*
X50661571Y-82231573D01*
X50569089Y-82293368D01*
X50415089Y-82324000D01*
X34460000Y-82324000D01*
X34415950Y-82332762D01*
X34371040Y-82332762D01*
X34084026Y-82389852D01*
X34084025Y-82389852D01*
X34015937Y-82418055D01*
X33919647Y-82457940D01*
X33919646Y-82457941D01*
X33676329Y-82620520D01*
X33613425Y-82683425D01*
X33550520Y-82746329D01*
X33387940Y-82989646D01*
X33341219Y-83102441D01*
X33319852Y-83154026D01*
X33262762Y-83441039D01*
X33262762Y-83485950D01*
X33254000Y-83530000D01*
X33254000Y-121280000D01*
X33262762Y-121324050D01*
X33262762Y-121368961D01*
X33319852Y-121655974D01*
X33319852Y-121655975D01*
X33387940Y-121820354D01*
X33550520Y-122063671D01*
X33613425Y-122126575D01*
X33676329Y-122189480D01*
X33687936Y-122197236D01*
X33687936Y-123216000D01*
X33714503Y-123357190D01*
X33797946Y-123486865D01*
X33925266Y-123573859D01*
X34076400Y-123604464D01*
X34635200Y-123604464D01*
X34753695Y-123582167D01*
X34863800Y-123604464D01*
X35422600Y-123604464D01*
X35541095Y-123582167D01*
X35651200Y-123604464D01*
X36210000Y-123604464D01*
X36328495Y-123582167D01*
X36438600Y-123604464D01*
X36997400Y-123604464D01*
X37115895Y-123582167D01*
X37226000Y-123604464D01*
X37784800Y-123604464D01*
X37903295Y-123582167D01*
X38013400Y-123604464D01*
X38572200Y-123604464D01*
X38713390Y-123577897D01*
X38843065Y-123494454D01*
X38930059Y-123367134D01*
X38960664Y-123216000D01*
X38960664Y-122486000D01*
X39740600Y-122486000D01*
X39740600Y-122593002D01*
X39899348Y-122593002D01*
X39740600Y-122751750D01*
X39740600Y-123342310D01*
X39837273Y-123575699D01*
X40015902Y-123754327D01*
X40249291Y-123851000D01*
X40369250Y-123851000D01*
X40528000Y-123692250D01*
X40528000Y-122593000D01*
X40508000Y-122593000D01*
X40508000Y-122486000D01*
X40774536Y-122486000D01*
X40774536Y-123216000D01*
X40782000Y-123255667D01*
X40782000Y-123692250D01*
X40915169Y-123825419D01*
X40865479Y-123845950D01*
X40721077Y-123990100D01*
X39923776Y-123990100D01*
X39780592Y-123846665D01*
X39514624Y-123736226D01*
X39226639Y-123735975D01*
X38960479Y-123845950D01*
X38756665Y-124049408D01*
X38646226Y-124315376D01*
X38645975Y-124603361D01*
X38654957Y-124625100D01*
X34843776Y-124625100D01*
X34700592Y-124481665D01*
X34434624Y-124371226D01*
X34146639Y-124370975D01*
X33880479Y-124480950D01*
X33676665Y-124684408D01*
X33566226Y-124950376D01*
X33565975Y-125238361D01*
X33675950Y-125504521D01*
X33879408Y-125708335D01*
X34145376Y-125818774D01*
X34433361Y-125819025D01*
X34699521Y-125709050D01*
X34843923Y-125564900D01*
X39289728Y-125564900D01*
X39281226Y-125585376D01*
X39280975Y-125873361D01*
X39390950Y-126139521D01*
X39594408Y-126343335D01*
X39860376Y-126453774D01*
X40148361Y-126454025D01*
X40414521Y-126344050D01*
X40558923Y-126199900D01*
X41356224Y-126199900D01*
X41499408Y-126343335D01*
X41765376Y-126453774D01*
X42053361Y-126454025D01*
X42319521Y-126344050D01*
X42523335Y-126140592D01*
X42633774Y-125874624D01*
X42634025Y-125586639D01*
X42625043Y-125564900D01*
X48976224Y-125564900D01*
X49119408Y-125708335D01*
X49385376Y-125818774D01*
X49673361Y-125819025D01*
X49939521Y-125709050D01*
X50143335Y-125505592D01*
X50253774Y-125239624D01*
X50254025Y-124951639D01*
X50144050Y-124685479D01*
X49940592Y-124481665D01*
X49674624Y-124371226D01*
X49386639Y-124370975D01*
X49120479Y-124480950D01*
X48976077Y-124625100D01*
X41990272Y-124625100D01*
X41998774Y-124604624D01*
X41999025Y-124316639D01*
X41889050Y-124050479D01*
X41685592Y-123846665D01*
X41419624Y-123736226D01*
X41312293Y-123736132D01*
X41443962Y-123604464D01*
X41721800Y-123604464D01*
X41840295Y-123582167D01*
X41950400Y-123604464D01*
X42228238Y-123604464D01*
X42378102Y-123754327D01*
X42611491Y-123851000D01*
X42731450Y-123851000D01*
X42890200Y-123692250D01*
X42890200Y-123252859D01*
X42897664Y-123216000D01*
X42897664Y-122486000D01*
X43136736Y-122486000D01*
X43136736Y-123216000D01*
X43144200Y-123255667D01*
X43144200Y-123692250D01*
X43302950Y-123851000D01*
X43422909Y-123851000D01*
X43656298Y-123754327D01*
X43806162Y-123604464D01*
X44084000Y-123604464D01*
X44202495Y-123582167D01*
X44312600Y-123604464D01*
X44590438Y-123604464D01*
X44740302Y-123754327D01*
X44973691Y-123851000D01*
X45093650Y-123851000D01*
X45252400Y-123692250D01*
X45252400Y-123252859D01*
X45259864Y-123216000D01*
X45259864Y-122486000D01*
X45498936Y-122486000D01*
X45498936Y-123216000D01*
X45506400Y-123255667D01*
X45506400Y-123692250D01*
X45665150Y-123851000D01*
X45785109Y-123851000D01*
X46018498Y-123754327D01*
X46168362Y-123604464D01*
X46446200Y-123604464D01*
X46564695Y-123582167D01*
X46674800Y-123604464D01*
X46952638Y-123604464D01*
X47102502Y-123754327D01*
X47335891Y-123851000D01*
X47455850Y-123851000D01*
X47614600Y-123692250D01*
X47614600Y-123252859D01*
X47622064Y-123216000D01*
X47622064Y-122486000D01*
X47861136Y-122486000D01*
X47861136Y-123216000D01*
X47868600Y-123255667D01*
X47868600Y-123692250D01*
X48027350Y-123851000D01*
X48147309Y-123851000D01*
X48380698Y-123754327D01*
X48530562Y-123604464D01*
X48808400Y-123604464D01*
X48926895Y-123582167D01*
X49037000Y-123604464D01*
X49595800Y-123604464D01*
X49736990Y-123577897D01*
X49866665Y-123494454D01*
X49953659Y-123367134D01*
X49984264Y-123216000D01*
X49984264Y-122486000D01*
X50415089Y-122486000D01*
X50569089Y-122516632D01*
X50661571Y-122578427D01*
X50723368Y-122670911D01*
X50754000Y-122824911D01*
X50754000Y-141485089D01*
X50723368Y-141639089D01*
X50661571Y-141731573D01*
X50569089Y-141793368D01*
X50371039Y-141832762D01*
X50371038Y-141832762D01*
X50179697Y-141870822D01*
X50179695Y-141870822D01*
X50043519Y-141927229D01*
X50019278Y-141937270D01*
X50015316Y-141938911D01*
X49853105Y-142047298D01*
X49786568Y-142113836D01*
X49727298Y-142173105D01*
X49618911Y-142335316D01*
X49550822Y-142499695D01*
X49550822Y-142499697D01*
X49521880Y-142645199D01*
X49488134Y-142622141D01*
X49337000Y-142591536D01*
X49083000Y-142591536D01*
X48955486Y-142615530D01*
X48837000Y-142591536D01*
X48583000Y-142591536D01*
X48455486Y-142615530D01*
X48337000Y-142591536D01*
X48083000Y-142591536D01*
X47955486Y-142615530D01*
X47837000Y-142591536D01*
X47583000Y-142591536D01*
X47490893Y-142608867D01*
X47450148Y-142404026D01*
X47382060Y-142239647D01*
X47382059Y-142239646D01*
X47219480Y-141996329D01*
X47156575Y-141933425D01*
X47093671Y-141870520D01*
X46850354Y-141707940D01*
X46685975Y-141639852D01*
X46685974Y-141639852D01*
X46398963Y-141582762D01*
X46221038Y-141582762D01*
X46221036Y-141582763D01*
X45934026Y-141639852D01*
X45934025Y-141639852D01*
X45907474Y-141650850D01*
X45808824Y-141691712D01*
X45809025Y-141461639D01*
X45699050Y-141195479D01*
X45495592Y-140991665D01*
X45229624Y-140881226D01*
X45203335Y-140881203D01*
X45660690Y-140423848D01*
X45863361Y-140424025D01*
X46129521Y-140314050D01*
X46333335Y-140110592D01*
X46443774Y-139844624D01*
X46444025Y-139556639D01*
X46334050Y-139290479D01*
X46130592Y-139086665D01*
X45864624Y-138976226D01*
X45576639Y-138975975D01*
X45310479Y-139085950D01*
X45106665Y-139289408D01*
X44996226Y-139555376D01*
X44996048Y-139759413D01*
X43482732Y-141272730D01*
X43482731Y-141272731D01*
X43380869Y-141425177D01*
X43345100Y-141605000D01*
X43345100Y-141680561D01*
X39929438Y-138264900D01*
X44531224Y-138264900D01*
X44674408Y-138408335D01*
X44940376Y-138518774D01*
X45228361Y-138519025D01*
X45494521Y-138409050D01*
X45698335Y-138205592D01*
X45808774Y-137939624D01*
X45809025Y-137651639D01*
X45699050Y-137385479D01*
X45495592Y-137181665D01*
X45229624Y-137071226D01*
X44941639Y-137070975D01*
X44675479Y-137180950D01*
X44531077Y-137325100D01*
X39288776Y-137325100D01*
X39145592Y-137181665D01*
X38879624Y-137071226D01*
X38591639Y-137070975D01*
X38325479Y-137180950D01*
X38121665Y-137384408D01*
X38011226Y-137650376D01*
X38011177Y-137706023D01*
X37956639Y-137705975D01*
X37690479Y-137815950D01*
X37486665Y-138019408D01*
X37376226Y-138285376D01*
X37375975Y-138573361D01*
X37485950Y-138839521D01*
X37689408Y-139043335D01*
X37955376Y-139153774D01*
X38243361Y-139154025D01*
X38509521Y-139044050D01*
X38653923Y-138899900D01*
X39235362Y-138899900D01*
X42740100Y-142404639D01*
X42740100Y-142591536D01*
X42583000Y-142591536D01*
X42455486Y-142615530D01*
X42337000Y-142591536D01*
X42083000Y-142591536D01*
X41955486Y-142615530D01*
X41837000Y-142591536D01*
X41583000Y-142591536D01*
X41455486Y-142615530D01*
X41337000Y-142591536D01*
X41083000Y-142591536D01*
X40955486Y-142615530D01*
X40837000Y-142591536D01*
X40583000Y-142591536D01*
X40455486Y-142615530D01*
X40337000Y-142591536D01*
X40083000Y-142591536D01*
X39955486Y-142615530D01*
X39837000Y-142591536D01*
X39583000Y-142591536D01*
X39455486Y-142615530D01*
X39337000Y-142591536D01*
X39083000Y-142591536D01*
X38955486Y-142615530D01*
X38837000Y-142591536D01*
X38583000Y-142591536D01*
X38455486Y-142615530D01*
X38337000Y-142591536D01*
X38083000Y-142591536D01*
X37955486Y-142615530D01*
X37837000Y-142591536D01*
X37583000Y-142591536D01*
X37455486Y-142615530D01*
X37337000Y-142591536D01*
X37083000Y-142591536D01*
X36955486Y-142615530D01*
X36837000Y-142591536D01*
X36583000Y-142591536D01*
X36455486Y-142615530D01*
X36337000Y-142591536D01*
X36083000Y-142591536D01*
X35955486Y-142615530D01*
X35837000Y-142591536D01*
X35679900Y-142591536D01*
X35679900Y-142525000D01*
X35644131Y-142345177D01*
X35637542Y-142335316D01*
X35542269Y-142192730D01*
X35042271Y-141692733D01*
X35042270Y-141692731D01*
X35013848Y-141664309D01*
X35014025Y-141461639D01*
X34904050Y-141195479D01*
X34700592Y-140991665D01*
X34648617Y-140970083D01*
X34699521Y-140949050D01*
X34903335Y-140745592D01*
X35013774Y-140479624D01*
X35014025Y-140191639D01*
X34904050Y-139925479D01*
X34700592Y-139721665D01*
X34434624Y-139611226D01*
X34146639Y-139610975D01*
X33880479Y-139720950D01*
X33736077Y-139865100D01*
X32385000Y-139865100D01*
X32205177Y-139900869D01*
X32052731Y-140002730D01*
X31417731Y-140637731D01*
X31315869Y-140790177D01*
X31280100Y-140970000D01*
X31280100Y-142045361D01*
X30877731Y-142447731D01*
X30859164Y-142475519D01*
X30801089Y-142335316D01*
X30692702Y-142173105D01*
X30608830Y-142089234D01*
X30566895Y-142047298D01*
X30404684Y-141938911D01*
X30400723Y-141937270D01*
X30376481Y-141927229D01*
X30240305Y-141870822D01*
X30240303Y-141870822D01*
X30048961Y-141832762D01*
X29850911Y-141793368D01*
X29758427Y-141731571D01*
X29696632Y-141639089D01*
X29666000Y-141485089D01*
X29666000Y-136033361D01*
X32295975Y-136033361D01*
X32405950Y-136299521D01*
X32609408Y-136503335D01*
X32875376Y-136613774D01*
X33163361Y-136614025D01*
X33429521Y-136504050D01*
X33573923Y-136359900D01*
X41194728Y-136359900D01*
X41186226Y-136380376D01*
X41185975Y-136668361D01*
X41295950Y-136934521D01*
X41499408Y-137138335D01*
X41765376Y-137248774D01*
X42053361Y-137249025D01*
X42319521Y-137139050D01*
X42463923Y-136994900D01*
X45801224Y-136994900D01*
X45944408Y-137138335D01*
X46210376Y-137248774D01*
X46498361Y-137249025D01*
X46764521Y-137139050D01*
X46968335Y-136935592D01*
X47078774Y-136669624D01*
X47079025Y-136381639D01*
X47070043Y-136359900D01*
X47706224Y-136359900D01*
X47849408Y-136503335D01*
X48115376Y-136613774D01*
X48403361Y-136614025D01*
X48669521Y-136504050D01*
X48873335Y-136300592D01*
X48983774Y-136034624D01*
X48984025Y-135746639D01*
X48874050Y-135480479D01*
X48670592Y-135276665D01*
X48404624Y-135166226D01*
X48116639Y-135165975D01*
X47850479Y-135275950D01*
X47706077Y-135420100D01*
X47705272Y-135420100D01*
X47713774Y-135399624D01*
X47714025Y-135111639D01*
X47604050Y-134845479D01*
X47400592Y-134641665D01*
X47134624Y-134531226D01*
X46846639Y-134530975D01*
X46580479Y-134640950D01*
X46436077Y-134785100D01*
X43098776Y-134785100D01*
X42955592Y-134641665D01*
X42689624Y-134531226D01*
X42401639Y-134530975D01*
X42135479Y-134640950D01*
X41931665Y-134844408D01*
X41821226Y-135110376D01*
X41820975Y-135398361D01*
X41829957Y-135420100D01*
X33573776Y-135420100D01*
X33430592Y-135276665D01*
X33164624Y-135166226D01*
X32876639Y-135165975D01*
X32610479Y-135275950D01*
X32406665Y-135479408D01*
X32296226Y-135745376D01*
X32295975Y-136033361D01*
X29666000Y-136033361D01*
X29666000Y-134128361D01*
X36740975Y-134128361D01*
X36850950Y-134394521D01*
X37054408Y-134598335D01*
X37320376Y-134708774D01*
X37608361Y-134709025D01*
X37874521Y-134599050D01*
X38018923Y-134454900D01*
X45166224Y-134454900D01*
X45309408Y-134598335D01*
X45575376Y-134708774D01*
X45863361Y-134709025D01*
X46129521Y-134599050D01*
X46333335Y-134395592D01*
X46443774Y-134129624D01*
X46444025Y-133841639D01*
X46334050Y-133575479D01*
X46130592Y-133371665D01*
X45864624Y-133261226D01*
X45576639Y-133260975D01*
X45310479Y-133370950D01*
X45166077Y-133515100D01*
X38018776Y-133515100D01*
X37875592Y-133371665D01*
X37609624Y-133261226D01*
X37321639Y-133260975D01*
X37055479Y-133370950D01*
X36851665Y-133574408D01*
X36741226Y-133840376D01*
X36740975Y-134128361D01*
X29666000Y-134128361D01*
X29666000Y-129755112D01*
X34981791Y-129755112D01*
X35113041Y-130072007D01*
X35441462Y-130443077D01*
X35886886Y-130660220D01*
X36083000Y-130536895D01*
X36083000Y-129559000D01*
X36337000Y-129559000D01*
X36337000Y-130536895D01*
X36533114Y-130660220D01*
X36978538Y-130443077D01*
X37306959Y-130072007D01*
X37438209Y-129755112D01*
X44125791Y-129755112D01*
X44257041Y-130072007D01*
X44585462Y-130443077D01*
X45030886Y-130660220D01*
X45227000Y-130536895D01*
X45227000Y-129559000D01*
X45481000Y-129559000D01*
X45481000Y-130536895D01*
X45677114Y-130660220D01*
X46122538Y-130443077D01*
X46450959Y-130072007D01*
X46582209Y-129755112D01*
X46457969Y-129559000D01*
X45481000Y-129559000D01*
X45227000Y-129559000D01*
X44250031Y-129559000D01*
X44125791Y-129755112D01*
X37438209Y-129755112D01*
X37313969Y-129559000D01*
X36337000Y-129559000D01*
X36083000Y-129559000D01*
X35106031Y-129559000D01*
X34981791Y-129755112D01*
X29666000Y-129755112D01*
X29666000Y-128373361D01*
X30985975Y-128373361D01*
X31095950Y-128639521D01*
X31299408Y-128843335D01*
X31565376Y-128953774D01*
X31853361Y-128954025D01*
X32119521Y-128844050D01*
X32223853Y-128739900D01*
X35006224Y-128739900D01*
X35096967Y-128830802D01*
X34981791Y-129108888D01*
X35106031Y-129305000D01*
X36083000Y-129305000D01*
X36083000Y-129285000D01*
X36337000Y-129285000D01*
X36337000Y-129305000D01*
X37313969Y-129305000D01*
X37438209Y-129108888D01*
X44125791Y-129108888D01*
X44250031Y-129305000D01*
X45227000Y-129305000D01*
X45227000Y-128327105D01*
X45481000Y-128327105D01*
X45481000Y-129305000D01*
X46457969Y-129305000D01*
X46582209Y-129108888D01*
X46450959Y-128791993D01*
X46122538Y-128420923D01*
X45677114Y-128203780D01*
X45481000Y-128327105D01*
X45227000Y-128327105D01*
X45030886Y-128203780D01*
X44585462Y-128420923D01*
X44257041Y-128791993D01*
X44125791Y-129108888D01*
X37438209Y-129108888D01*
X37306959Y-128791993D01*
X36978538Y-128420923D01*
X36533114Y-128203780D01*
X36337002Y-128327104D01*
X36337002Y-128162000D01*
X36283994Y-128162000D01*
X36284025Y-128126639D01*
X36174050Y-127860479D01*
X36028527Y-127714702D01*
X36050376Y-127723774D01*
X36338361Y-127724025D01*
X36604521Y-127614050D01*
X36808335Y-127410592D01*
X36918774Y-127144624D01*
X36919025Y-126856639D01*
X36809050Y-126590479D01*
X36605592Y-126386665D01*
X36339624Y-126276226D01*
X36051639Y-126275975D01*
X35785479Y-126385950D01*
X35661112Y-126510100D01*
X32283811Y-126510100D01*
X32160592Y-126386665D01*
X31894624Y-126276226D01*
X31606639Y-126275975D01*
X31340479Y-126385950D01*
X31136665Y-126589408D01*
X31026226Y-126855376D01*
X31025975Y-127143361D01*
X31135950Y-127409521D01*
X31329888Y-127603798D01*
X31300479Y-127615950D01*
X31096665Y-127819408D01*
X30986226Y-128085376D01*
X30985975Y-128373361D01*
X29666000Y-128373361D01*
X29666000Y-65574911D01*
X29696632Y-65420911D01*
X29758427Y-65328429D01*
X29850911Y-65266632D01*
X30004911Y-65236000D01*
X50415089Y-65236000D01*
X50569089Y-65266632D01*
X50569089Y-65266632D01*
G37*
X50569089Y-65266632D02*
X50661571Y-65328427D01*
X50723368Y-65420911D01*
X50754000Y-65574911D01*
X50754000Y-81985089D01*
X50723368Y-82139089D01*
X50661571Y-82231573D01*
X50569089Y-82293368D01*
X50415089Y-82324000D01*
X34460000Y-82324000D01*
X34415950Y-82332762D01*
X34371040Y-82332762D01*
X34084026Y-82389852D01*
X34084025Y-82389852D01*
X34015937Y-82418055D01*
X33919647Y-82457940D01*
X33919646Y-82457941D01*
X33676329Y-82620520D01*
X33613425Y-82683425D01*
X33550520Y-82746329D01*
X33387940Y-82989646D01*
X33341219Y-83102441D01*
X33319852Y-83154026D01*
X33262762Y-83441039D01*
X33262762Y-83485950D01*
X33254000Y-83530000D01*
X33254000Y-121280000D01*
X33262762Y-121324050D01*
X33262762Y-121368961D01*
X33319852Y-121655974D01*
X33319852Y-121655975D01*
X33387940Y-121820354D01*
X33550520Y-122063671D01*
X33613425Y-122126575D01*
X33676329Y-122189480D01*
X33687936Y-122197236D01*
X33687936Y-123216000D01*
X33714503Y-123357190D01*
X33797946Y-123486865D01*
X33925266Y-123573859D01*
X34076400Y-123604464D01*
X34635200Y-123604464D01*
X34753695Y-123582167D01*
X34863800Y-123604464D01*
X35422600Y-123604464D01*
X35541095Y-123582167D01*
X35651200Y-123604464D01*
X36210000Y-123604464D01*
X36328495Y-123582167D01*
X36438600Y-123604464D01*
X36997400Y-123604464D01*
X37115895Y-123582167D01*
X37226000Y-123604464D01*
X37784800Y-123604464D01*
X37903295Y-123582167D01*
X38013400Y-123604464D01*
X38572200Y-123604464D01*
X38713390Y-123577897D01*
X38843065Y-123494454D01*
X38930059Y-123367134D01*
X38960664Y-123216000D01*
X38960664Y-122486000D01*
X39740600Y-122486000D01*
X39740600Y-122593002D01*
X39899348Y-122593002D01*
X39740600Y-122751750D01*
X39740600Y-123342310D01*
X39837273Y-123575699D01*
X40015902Y-123754327D01*
X40249291Y-123851000D01*
X40369250Y-123851000D01*
X40528000Y-123692250D01*
X40528000Y-122593000D01*
X40508000Y-122593000D01*
X40508000Y-122486000D01*
X40774536Y-122486000D01*
X40774536Y-123216000D01*
X40782000Y-123255667D01*
X40782000Y-123692250D01*
X40915169Y-123825419D01*
X40865479Y-123845950D01*
X40721077Y-123990100D01*
X39923776Y-123990100D01*
X39780592Y-123846665D01*
X39514624Y-123736226D01*
X39226639Y-123735975D01*
X38960479Y-123845950D01*
X38756665Y-124049408D01*
X38646226Y-124315376D01*
X38645975Y-124603361D01*
X38654957Y-124625100D01*
X34843776Y-124625100D01*
X34700592Y-124481665D01*
X34434624Y-124371226D01*
X34146639Y-124370975D01*
X33880479Y-124480950D01*
X33676665Y-124684408D01*
X33566226Y-124950376D01*
X33565975Y-125238361D01*
X33675950Y-125504521D01*
X33879408Y-125708335D01*
X34145376Y-125818774D01*
X34433361Y-125819025D01*
X34699521Y-125709050D01*
X34843923Y-125564900D01*
X39289728Y-125564900D01*
X39281226Y-125585376D01*
X39280975Y-125873361D01*
X39390950Y-126139521D01*
X39594408Y-126343335D01*
X39860376Y-126453774D01*
X40148361Y-126454025D01*
X40414521Y-126344050D01*
X40558923Y-126199900D01*
X41356224Y-126199900D01*
X41499408Y-126343335D01*
X41765376Y-126453774D01*
X42053361Y-126454025D01*
X42319521Y-126344050D01*
X42523335Y-126140592D01*
X42633774Y-125874624D01*
X42634025Y-125586639D01*
X42625043Y-125564900D01*
X48976224Y-125564900D01*
X49119408Y-125708335D01*
X49385376Y-125818774D01*
X49673361Y-125819025D01*
X49939521Y-125709050D01*
X50143335Y-125505592D01*
X50253774Y-125239624D01*
X50254025Y-124951639D01*
X50144050Y-124685479D01*
X49940592Y-124481665D01*
X49674624Y-124371226D01*
X49386639Y-124370975D01*
X49120479Y-124480950D01*
X48976077Y-124625100D01*
X41990272Y-124625100D01*
X41998774Y-124604624D01*
X41999025Y-124316639D01*
X41889050Y-124050479D01*
X41685592Y-123846665D01*
X41419624Y-123736226D01*
X41312293Y-123736132D01*
X41443962Y-123604464D01*
X41721800Y-123604464D01*
X41840295Y-123582167D01*
X41950400Y-123604464D01*
X42228238Y-123604464D01*
X42378102Y-123754327D01*
X42611491Y-123851000D01*
X42731450Y-123851000D01*
X42890200Y-123692250D01*
X42890200Y-123252859D01*
X42897664Y-123216000D01*
X42897664Y-122486000D01*
X43136736Y-122486000D01*
X43136736Y-123216000D01*
X43144200Y-123255667D01*
X43144200Y-123692250D01*
X43302950Y-123851000D01*
X43422909Y-123851000D01*
X43656298Y-123754327D01*
X43806162Y-123604464D01*
X44084000Y-123604464D01*
X44202495Y-123582167D01*
X44312600Y-123604464D01*
X44590438Y-123604464D01*
X44740302Y-123754327D01*
X44973691Y-123851000D01*
X45093650Y-123851000D01*
X45252400Y-123692250D01*
X45252400Y-123252859D01*
X45259864Y-123216000D01*
X45259864Y-122486000D01*
X45498936Y-122486000D01*
X45498936Y-123216000D01*
X45506400Y-123255667D01*
X45506400Y-123692250D01*
X45665150Y-123851000D01*
X45785109Y-123851000D01*
X46018498Y-123754327D01*
X46168362Y-123604464D01*
X46446200Y-123604464D01*
X46564695Y-123582167D01*
X46674800Y-123604464D01*
X46952638Y-123604464D01*
X47102502Y-123754327D01*
X47335891Y-123851000D01*
X47455850Y-123851000D01*
X47614600Y-123692250D01*
X47614600Y-123252859D01*
X47622064Y-123216000D01*
X47622064Y-122486000D01*
X47861136Y-122486000D01*
X47861136Y-123216000D01*
X47868600Y-123255667D01*
X47868600Y-123692250D01*
X48027350Y-123851000D01*
X48147309Y-123851000D01*
X48380698Y-123754327D01*
X48530562Y-123604464D01*
X48808400Y-123604464D01*
X48926895Y-123582167D01*
X49037000Y-123604464D01*
X49595800Y-123604464D01*
X49736990Y-123577897D01*
X49866665Y-123494454D01*
X49953659Y-123367134D01*
X49984264Y-123216000D01*
X49984264Y-122486000D01*
X50415089Y-122486000D01*
X50569089Y-122516632D01*
X50661571Y-122578427D01*
X50723368Y-122670911D01*
X50754000Y-122824911D01*
X50754000Y-141485089D01*
X50723368Y-141639089D01*
X50661571Y-141731573D01*
X50569089Y-141793368D01*
X50371039Y-141832762D01*
X50371038Y-141832762D01*
X50179697Y-141870822D01*
X50179695Y-141870822D01*
X50043519Y-141927229D01*
X50019278Y-141937270D01*
X50015316Y-141938911D01*
X49853105Y-142047298D01*
X49786568Y-142113836D01*
X49727298Y-142173105D01*
X49618911Y-142335316D01*
X49550822Y-142499695D01*
X49550822Y-142499697D01*
X49521880Y-142645199D01*
X49488134Y-142622141D01*
X49337000Y-142591536D01*
X49083000Y-142591536D01*
X48955486Y-142615530D01*
X48837000Y-142591536D01*
X48583000Y-142591536D01*
X48455486Y-142615530D01*
X48337000Y-142591536D01*
X48083000Y-142591536D01*
X47955486Y-142615530D01*
X47837000Y-142591536D01*
X47583000Y-142591536D01*
X47490893Y-142608867D01*
X47450148Y-142404026D01*
X47382060Y-142239647D01*
X47382059Y-142239646D01*
X47219480Y-141996329D01*
X47156575Y-141933425D01*
X47093671Y-141870520D01*
X46850354Y-141707940D01*
X46685975Y-141639852D01*
X46685974Y-141639852D01*
X46398963Y-141582762D01*
X46221038Y-141582762D01*
X46221036Y-141582763D01*
X45934026Y-141639852D01*
X45934025Y-141639852D01*
X45907474Y-141650850D01*
X45808824Y-141691712D01*
X45809025Y-141461639D01*
X45699050Y-141195479D01*
X45495592Y-140991665D01*
X45229624Y-140881226D01*
X45203335Y-140881203D01*
X45660690Y-140423848D01*
X45863361Y-140424025D01*
X46129521Y-140314050D01*
X46333335Y-140110592D01*
X46443774Y-139844624D01*
X46444025Y-139556639D01*
X46334050Y-139290479D01*
X46130592Y-139086665D01*
X45864624Y-138976226D01*
X45576639Y-138975975D01*
X45310479Y-139085950D01*
X45106665Y-139289408D01*
X44996226Y-139555376D01*
X44996048Y-139759413D01*
X43482732Y-141272730D01*
X43482731Y-141272731D01*
X43380869Y-141425177D01*
X43345100Y-141605000D01*
X43345100Y-141680561D01*
X39929438Y-138264900D01*
X44531224Y-138264900D01*
X44674408Y-138408335D01*
X44940376Y-138518774D01*
X45228361Y-138519025D01*
X45494521Y-138409050D01*
X45698335Y-138205592D01*
X45808774Y-137939624D01*
X45809025Y-137651639D01*
X45699050Y-137385479D01*
X45495592Y-137181665D01*
X45229624Y-137071226D01*
X44941639Y-137070975D01*
X44675479Y-137180950D01*
X44531077Y-137325100D01*
X39288776Y-137325100D01*
X39145592Y-137181665D01*
X38879624Y-137071226D01*
X38591639Y-137070975D01*
X38325479Y-137180950D01*
X38121665Y-137384408D01*
X38011226Y-137650376D01*
X38011177Y-137706023D01*
X37956639Y-137705975D01*
X37690479Y-137815950D01*
X37486665Y-138019408D01*
X37376226Y-138285376D01*
X37375975Y-138573361D01*
X37485950Y-138839521D01*
X37689408Y-139043335D01*
X37955376Y-139153774D01*
X38243361Y-139154025D01*
X38509521Y-139044050D01*
X38653923Y-138899900D01*
X39235362Y-138899900D01*
X42740100Y-142404639D01*
X42740100Y-142591536D01*
X42583000Y-142591536D01*
X42455486Y-142615530D01*
X42337000Y-142591536D01*
X42083000Y-142591536D01*
X41955486Y-142615530D01*
X41837000Y-142591536D01*
X41583000Y-142591536D01*
X41455486Y-142615530D01*
X41337000Y-142591536D01*
X41083000Y-142591536D01*
X40955486Y-142615530D01*
X40837000Y-142591536D01*
X40583000Y-142591536D01*
X40455486Y-142615530D01*
X40337000Y-142591536D01*
X40083000Y-142591536D01*
X39955486Y-142615530D01*
X39837000Y-142591536D01*
X39583000Y-142591536D01*
X39455486Y-142615530D01*
X39337000Y-142591536D01*
X39083000Y-142591536D01*
X38955486Y-142615530D01*
X38837000Y-142591536D01*
X38583000Y-142591536D01*
X38455486Y-142615530D01*
X38337000Y-142591536D01*
X38083000Y-142591536D01*
X37955486Y-142615530D01*
X37837000Y-142591536D01*
X37583000Y-142591536D01*
X37455486Y-142615530D01*
X37337000Y-142591536D01*
X37083000Y-142591536D01*
X36955486Y-142615530D01*
X36837000Y-142591536D01*
X36583000Y-142591536D01*
X36455486Y-142615530D01*
X36337000Y-142591536D01*
X36083000Y-142591536D01*
X35955486Y-142615530D01*
X35837000Y-142591536D01*
X35679900Y-142591536D01*
X35679900Y-142525000D01*
X35644131Y-142345177D01*
X35637542Y-142335316D01*
X35542269Y-142192730D01*
X35042271Y-141692733D01*
X35042270Y-141692731D01*
X35013848Y-141664309D01*
X35014025Y-141461639D01*
X34904050Y-141195479D01*
X34700592Y-140991665D01*
X34648617Y-140970083D01*
X34699521Y-140949050D01*
X34903335Y-140745592D01*
X35013774Y-140479624D01*
X35014025Y-140191639D01*
X34904050Y-139925479D01*
X34700592Y-139721665D01*
X34434624Y-139611226D01*
X34146639Y-139610975D01*
X33880479Y-139720950D01*
X33736077Y-139865100D01*
X32385000Y-139865100D01*
X32205177Y-139900869D01*
X32052731Y-140002730D01*
X31417731Y-140637731D01*
X31315869Y-140790177D01*
X31280100Y-140970000D01*
X31280100Y-142045361D01*
X30877731Y-142447731D01*
X30859164Y-142475519D01*
X30801089Y-142335316D01*
X30692702Y-142173105D01*
X30608830Y-142089234D01*
X30566895Y-142047298D01*
X30404684Y-141938911D01*
X30400723Y-141937270D01*
X30376481Y-141927229D01*
X30240305Y-141870822D01*
X30240303Y-141870822D01*
X30048961Y-141832762D01*
X29850911Y-141793368D01*
X29758427Y-141731571D01*
X29696632Y-141639089D01*
X29666000Y-141485089D01*
X29666000Y-136033361D01*
X32295975Y-136033361D01*
X32405950Y-136299521D01*
X32609408Y-136503335D01*
X32875376Y-136613774D01*
X33163361Y-136614025D01*
X33429521Y-136504050D01*
X33573923Y-136359900D01*
X41194728Y-136359900D01*
X41186226Y-136380376D01*
X41185975Y-136668361D01*
X41295950Y-136934521D01*
X41499408Y-137138335D01*
X41765376Y-137248774D01*
X42053361Y-137249025D01*
X42319521Y-137139050D01*
X42463923Y-136994900D01*
X45801224Y-136994900D01*
X45944408Y-137138335D01*
X46210376Y-137248774D01*
X46498361Y-137249025D01*
X46764521Y-137139050D01*
X46968335Y-136935592D01*
X47078774Y-136669624D01*
X47079025Y-136381639D01*
X47070043Y-136359900D01*
X47706224Y-136359900D01*
X47849408Y-136503335D01*
X48115376Y-136613774D01*
X48403361Y-136614025D01*
X48669521Y-136504050D01*
X48873335Y-136300592D01*
X48983774Y-136034624D01*
X48984025Y-135746639D01*
X48874050Y-135480479D01*
X48670592Y-135276665D01*
X48404624Y-135166226D01*
X48116639Y-135165975D01*
X47850479Y-135275950D01*
X47706077Y-135420100D01*
X47705272Y-135420100D01*
X47713774Y-135399624D01*
X47714025Y-135111639D01*
X47604050Y-134845479D01*
X47400592Y-134641665D01*
X47134624Y-134531226D01*
X46846639Y-134530975D01*
X46580479Y-134640950D01*
X46436077Y-134785100D01*
X43098776Y-134785100D01*
X42955592Y-134641665D01*
X42689624Y-134531226D01*
X42401639Y-134530975D01*
X42135479Y-134640950D01*
X41931665Y-134844408D01*
X41821226Y-135110376D01*
X41820975Y-135398361D01*
X41829957Y-135420100D01*
X33573776Y-135420100D01*
X33430592Y-135276665D01*
X33164624Y-135166226D01*
X32876639Y-135165975D01*
X32610479Y-135275950D01*
X32406665Y-135479408D01*
X32296226Y-135745376D01*
X32295975Y-136033361D01*
X29666000Y-136033361D01*
X29666000Y-134128361D01*
X36740975Y-134128361D01*
X36850950Y-134394521D01*
X37054408Y-134598335D01*
X37320376Y-134708774D01*
X37608361Y-134709025D01*
X37874521Y-134599050D01*
X38018923Y-134454900D01*
X45166224Y-134454900D01*
X45309408Y-134598335D01*
X45575376Y-134708774D01*
X45863361Y-134709025D01*
X46129521Y-134599050D01*
X46333335Y-134395592D01*
X46443774Y-134129624D01*
X46444025Y-133841639D01*
X46334050Y-133575479D01*
X46130592Y-133371665D01*
X45864624Y-133261226D01*
X45576639Y-133260975D01*
X45310479Y-133370950D01*
X45166077Y-133515100D01*
X38018776Y-133515100D01*
X37875592Y-133371665D01*
X37609624Y-133261226D01*
X37321639Y-133260975D01*
X37055479Y-133370950D01*
X36851665Y-133574408D01*
X36741226Y-133840376D01*
X36740975Y-134128361D01*
X29666000Y-134128361D01*
X29666000Y-129755112D01*
X34981791Y-129755112D01*
X35113041Y-130072007D01*
X35441462Y-130443077D01*
X35886886Y-130660220D01*
X36083000Y-130536895D01*
X36083000Y-129559000D01*
X36337000Y-129559000D01*
X36337000Y-130536895D01*
X36533114Y-130660220D01*
X36978538Y-130443077D01*
X37306959Y-130072007D01*
X37438209Y-129755112D01*
X44125791Y-129755112D01*
X44257041Y-130072007D01*
X44585462Y-130443077D01*
X45030886Y-130660220D01*
X45227000Y-130536895D01*
X45227000Y-129559000D01*
X45481000Y-129559000D01*
X45481000Y-130536895D01*
X45677114Y-130660220D01*
X46122538Y-130443077D01*
X46450959Y-130072007D01*
X46582209Y-129755112D01*
X46457969Y-129559000D01*
X45481000Y-129559000D01*
X45227000Y-129559000D01*
X44250031Y-129559000D01*
X44125791Y-129755112D01*
X37438209Y-129755112D01*
X37313969Y-129559000D01*
X36337000Y-129559000D01*
X36083000Y-129559000D01*
X35106031Y-129559000D01*
X34981791Y-129755112D01*
X29666000Y-129755112D01*
X29666000Y-128373361D01*
X30985975Y-128373361D01*
X31095950Y-128639521D01*
X31299408Y-128843335D01*
X31565376Y-128953774D01*
X31853361Y-128954025D01*
X32119521Y-128844050D01*
X32223853Y-128739900D01*
X35006224Y-128739900D01*
X35096967Y-128830802D01*
X34981791Y-129108888D01*
X35106031Y-129305000D01*
X36083000Y-129305000D01*
X36083000Y-129285000D01*
X36337000Y-129285000D01*
X36337000Y-129305000D01*
X37313969Y-129305000D01*
X37438209Y-129108888D01*
X44125791Y-129108888D01*
X44250031Y-129305000D01*
X45227000Y-129305000D01*
X45227000Y-128327105D01*
X45481000Y-128327105D01*
X45481000Y-129305000D01*
X46457969Y-129305000D01*
X46582209Y-129108888D01*
X46450959Y-128791993D01*
X46122538Y-128420923D01*
X45677114Y-128203780D01*
X45481000Y-128327105D01*
X45227000Y-128327105D01*
X45030886Y-128203780D01*
X44585462Y-128420923D01*
X44257041Y-128791993D01*
X44125791Y-129108888D01*
X37438209Y-129108888D01*
X37306959Y-128791993D01*
X36978538Y-128420923D01*
X36533114Y-128203780D01*
X36337002Y-128327104D01*
X36337002Y-128162000D01*
X36283994Y-128162000D01*
X36284025Y-128126639D01*
X36174050Y-127860479D01*
X36028527Y-127714702D01*
X36050376Y-127723774D01*
X36338361Y-127724025D01*
X36604521Y-127614050D01*
X36808335Y-127410592D01*
X36918774Y-127144624D01*
X36919025Y-126856639D01*
X36809050Y-126590479D01*
X36605592Y-126386665D01*
X36339624Y-126276226D01*
X36051639Y-126275975D01*
X35785479Y-126385950D01*
X35661112Y-126510100D01*
X32283811Y-126510100D01*
X32160592Y-126386665D01*
X31894624Y-126276226D01*
X31606639Y-126275975D01*
X31340479Y-126385950D01*
X31136665Y-126589408D01*
X31026226Y-126855376D01*
X31025975Y-127143361D01*
X31135950Y-127409521D01*
X31329888Y-127603798D01*
X31300479Y-127615950D01*
X31096665Y-127819408D01*
X30986226Y-128085376D01*
X30985975Y-128373361D01*
X29666000Y-128373361D01*
X29666000Y-65574911D01*
X29696632Y-65420911D01*
X29758427Y-65328429D01*
X29850911Y-65266632D01*
X30004911Y-65236000D01*
X50415089Y-65236000D01*
X50569089Y-65266632D01*
G36*
X74569089Y-65266632D02*
X74661571Y-65328427D01*
X74723368Y-65420911D01*
X74754000Y-65574911D01*
X74754000Y-81985089D01*
X74723368Y-82139089D01*
X74661571Y-82231573D01*
X74569089Y-82293368D01*
X74415089Y-82324000D01*
X58460000Y-82324000D01*
X58415950Y-82332762D01*
X58371040Y-82332762D01*
X58084026Y-82389852D01*
X58084025Y-82389852D01*
X58015937Y-82418055D01*
X57919647Y-82457940D01*
X57919646Y-82457941D01*
X57676329Y-82620520D01*
X57613425Y-82683425D01*
X57550520Y-82746329D01*
X57387940Y-82989646D01*
X57341219Y-83102441D01*
X57319852Y-83154026D01*
X57262762Y-83441039D01*
X57262762Y-83485950D01*
X57254000Y-83530000D01*
X57254000Y-121280000D01*
X57262762Y-121324050D01*
X57262762Y-121368961D01*
X57319852Y-121655974D01*
X57319852Y-121655975D01*
X57387940Y-121820354D01*
X57550520Y-122063671D01*
X57613425Y-122126575D01*
X57676329Y-122189480D01*
X57687936Y-122197236D01*
X57687936Y-123216000D01*
X57714503Y-123357190D01*
X57797946Y-123486865D01*
X57925266Y-123573859D01*
X58076400Y-123604464D01*
X58635200Y-123604464D01*
X58753695Y-123582167D01*
X58863800Y-123604464D01*
X59422600Y-123604464D01*
X59541095Y-123582167D01*
X59651200Y-123604464D01*
X60210000Y-123604464D01*
X60328495Y-123582167D01*
X60438600Y-123604464D01*
X60997400Y-123604464D01*
X61115895Y-123582167D01*
X61226000Y-123604464D01*
X61784800Y-123604464D01*
X61903295Y-123582167D01*
X62013400Y-123604464D01*
X62572200Y-123604464D01*
X62713390Y-123577897D01*
X62843065Y-123494454D01*
X62930059Y-123367134D01*
X62960664Y-123216000D01*
X62960664Y-122486000D01*
X63740600Y-122486000D01*
X63740600Y-122593002D01*
X63899348Y-122593002D01*
X63740600Y-122751750D01*
X63740600Y-123342310D01*
X63837273Y-123575699D01*
X64015902Y-123754327D01*
X64249291Y-123851000D01*
X64369250Y-123851000D01*
X64528000Y-123692250D01*
X64528000Y-122593000D01*
X64508000Y-122593000D01*
X64508000Y-122486000D01*
X64774536Y-122486000D01*
X64774536Y-123216000D01*
X64782000Y-123255667D01*
X64782000Y-123692250D01*
X64915169Y-123825419D01*
X64865479Y-123845950D01*
X64721077Y-123990100D01*
X63923776Y-123990100D01*
X63780592Y-123846665D01*
X63514624Y-123736226D01*
X63226639Y-123735975D01*
X62960479Y-123845950D01*
X62756665Y-124049408D01*
X62646226Y-124315376D01*
X62645975Y-124603361D01*
X62654957Y-124625100D01*
X58843776Y-124625100D01*
X58700592Y-124481665D01*
X58434624Y-124371226D01*
X58146639Y-124370975D01*
X57880479Y-124480950D01*
X57676665Y-124684408D01*
X57566226Y-124950376D01*
X57565975Y-125238361D01*
X57675950Y-125504521D01*
X57879408Y-125708335D01*
X58145376Y-125818774D01*
X58433361Y-125819025D01*
X58699521Y-125709050D01*
X58843923Y-125564900D01*
X63289728Y-125564900D01*
X63281226Y-125585376D01*
X63280975Y-125873361D01*
X63390950Y-126139521D01*
X63594408Y-126343335D01*
X63860376Y-126453774D01*
X64148361Y-126454025D01*
X64414521Y-126344050D01*
X64558923Y-126199900D01*
X65356224Y-126199900D01*
X65499408Y-126343335D01*
X65765376Y-126453774D01*
X66053361Y-126454025D01*
X66319521Y-126344050D01*
X66523335Y-126140592D01*
X66633774Y-125874624D01*
X66634025Y-125586639D01*
X66625043Y-125564900D01*
X72976224Y-125564900D01*
X73119408Y-125708335D01*
X73385376Y-125818774D01*
X73673361Y-125819025D01*
X73939521Y-125709050D01*
X74143335Y-125505592D01*
X74253774Y-125239624D01*
X74254025Y-124951639D01*
X74144050Y-124685479D01*
X73940592Y-124481665D01*
X73674624Y-124371226D01*
X73386639Y-124370975D01*
X73120479Y-124480950D01*
X72976077Y-124625100D01*
X65990272Y-124625100D01*
X65998774Y-124604624D01*
X65999025Y-124316639D01*
X65889050Y-124050479D01*
X65685592Y-123846665D01*
X65419624Y-123736226D01*
X65312293Y-123736132D01*
X65443962Y-123604464D01*
X65721800Y-123604464D01*
X65840295Y-123582167D01*
X65950400Y-123604464D01*
X66228238Y-123604464D01*
X66378102Y-123754327D01*
X66611491Y-123851000D01*
X66731450Y-123851000D01*
X66890200Y-123692250D01*
X66890200Y-123252859D01*
X66897664Y-123216000D01*
X66897664Y-122486000D01*
X67136736Y-122486000D01*
X67136736Y-123216000D01*
X67144200Y-123255667D01*
X67144200Y-123692250D01*
X67302950Y-123851000D01*
X67422909Y-123851000D01*
X67656298Y-123754327D01*
X67806162Y-123604464D01*
X68084000Y-123604464D01*
X68202495Y-123582167D01*
X68312600Y-123604464D01*
X68590438Y-123604464D01*
X68740302Y-123754327D01*
X68973691Y-123851000D01*
X69093650Y-123851000D01*
X69252400Y-123692250D01*
X69252400Y-123252859D01*
X69259864Y-123216000D01*
X69259864Y-122486000D01*
X69498936Y-122486000D01*
X69498936Y-123216000D01*
X69506400Y-123255667D01*
X69506400Y-123692250D01*
X69665150Y-123851000D01*
X69785109Y-123851000D01*
X70018498Y-123754327D01*
X70168362Y-123604464D01*
X70446200Y-123604464D01*
X70564695Y-123582167D01*
X70674800Y-123604464D01*
X70952638Y-123604464D01*
X71102502Y-123754327D01*
X71335891Y-123851000D01*
X71455850Y-123851000D01*
X71614600Y-123692250D01*
X71614600Y-123252859D01*
X71622064Y-123216000D01*
X71622064Y-122486000D01*
X71861136Y-122486000D01*
X71861136Y-123216000D01*
X71868600Y-123255667D01*
X71868600Y-123692250D01*
X72027350Y-123851000D01*
X72147309Y-123851000D01*
X72380698Y-123754327D01*
X72530562Y-123604464D01*
X72808400Y-123604464D01*
X72926895Y-123582167D01*
X73037000Y-123604464D01*
X73595800Y-123604464D01*
X73736990Y-123577897D01*
X73866665Y-123494454D01*
X73953659Y-123367134D01*
X73984264Y-123216000D01*
X73984264Y-122486000D01*
X74415089Y-122486000D01*
X74569089Y-122516632D01*
X74661571Y-122578427D01*
X74723368Y-122670911D01*
X74754000Y-122824911D01*
X74754000Y-141485089D01*
X74723368Y-141639089D01*
X74661571Y-141731573D01*
X74569089Y-141793368D01*
X74371039Y-141832762D01*
X74371038Y-141832762D01*
X74179697Y-141870822D01*
X74179695Y-141870822D01*
X74043519Y-141927229D01*
X74019278Y-141937270D01*
X74015316Y-141938911D01*
X73853105Y-142047298D01*
X73786568Y-142113836D01*
X73727298Y-142173105D01*
X73618911Y-142335316D01*
X73550822Y-142499695D01*
X73550822Y-142499697D01*
X73521880Y-142645199D01*
X73488134Y-142622141D01*
X73337000Y-142591536D01*
X73083000Y-142591536D01*
X72955486Y-142615530D01*
X72837000Y-142591536D01*
X72583000Y-142591536D01*
X72455486Y-142615530D01*
X72337000Y-142591536D01*
X72083000Y-142591536D01*
X71955486Y-142615530D01*
X71837000Y-142591536D01*
X71583000Y-142591536D01*
X71490893Y-142608867D01*
X71450148Y-142404026D01*
X71382060Y-142239647D01*
X71382059Y-142239646D01*
X71219480Y-141996329D01*
X71156575Y-141933425D01*
X71093671Y-141870520D01*
X70850354Y-141707940D01*
X70685975Y-141639852D01*
X70685974Y-141639852D01*
X70398963Y-141582762D01*
X70221038Y-141582762D01*
X70221036Y-141582763D01*
X69934026Y-141639852D01*
X69934025Y-141639852D01*
X69907474Y-141650850D01*
X69808824Y-141691712D01*
X69809025Y-141461639D01*
X69699050Y-141195479D01*
X69495592Y-140991665D01*
X69229624Y-140881226D01*
X69203335Y-140881203D01*
X69660690Y-140423848D01*
X69863361Y-140424025D01*
X70129521Y-140314050D01*
X70333335Y-140110592D01*
X70443774Y-139844624D01*
X70444025Y-139556639D01*
X70334050Y-139290479D01*
X70130592Y-139086665D01*
X69864624Y-138976226D01*
X69576639Y-138975975D01*
X69310479Y-139085950D01*
X69106665Y-139289408D01*
X68996226Y-139555376D01*
X68996048Y-139759413D01*
X67482732Y-141272730D01*
X67482731Y-141272731D01*
X67380869Y-141425177D01*
X67345100Y-141605000D01*
X67345100Y-141680561D01*
X63929438Y-138264900D01*
X68531224Y-138264900D01*
X68674408Y-138408335D01*
X68940376Y-138518774D01*
X69228361Y-138519025D01*
X69494521Y-138409050D01*
X69698335Y-138205592D01*
X69808774Y-137939624D01*
X69809025Y-137651639D01*
X69699050Y-137385479D01*
X69495592Y-137181665D01*
X69229624Y-137071226D01*
X68941639Y-137070975D01*
X68675479Y-137180950D01*
X68531077Y-137325100D01*
X63288776Y-137325100D01*
X63145592Y-137181665D01*
X62879624Y-137071226D01*
X62591639Y-137070975D01*
X62325479Y-137180950D01*
X62121665Y-137384408D01*
X62011226Y-137650376D01*
X62011177Y-137706023D01*
X61956639Y-137705975D01*
X61690479Y-137815950D01*
X61486665Y-138019408D01*
X61376226Y-138285376D01*
X61375975Y-138573361D01*
X61485950Y-138839521D01*
X61689408Y-139043335D01*
X61955376Y-139153774D01*
X62243361Y-139154025D01*
X62509521Y-139044050D01*
X62653923Y-138899900D01*
X63235362Y-138899900D01*
X66740100Y-142404639D01*
X66740100Y-142591536D01*
X66583000Y-142591536D01*
X66455486Y-142615530D01*
X66337000Y-142591536D01*
X66083000Y-142591536D01*
X65955486Y-142615530D01*
X65837000Y-142591536D01*
X65583000Y-142591536D01*
X65455486Y-142615530D01*
X65337000Y-142591536D01*
X65083000Y-142591536D01*
X64955486Y-142615530D01*
X64837000Y-142591536D01*
X64583000Y-142591536D01*
X64455486Y-142615530D01*
X64337000Y-142591536D01*
X64083000Y-142591536D01*
X63955486Y-142615530D01*
X63837000Y-142591536D01*
X63583000Y-142591536D01*
X63455486Y-142615530D01*
X63337000Y-142591536D01*
X63083000Y-142591536D01*
X62955486Y-142615530D01*
X62837000Y-142591536D01*
X62583000Y-142591536D01*
X62455486Y-142615530D01*
X62337000Y-142591536D01*
X62083000Y-142591536D01*
X61955486Y-142615530D01*
X61837000Y-142591536D01*
X61583000Y-142591536D01*
X61455486Y-142615530D01*
X61337000Y-142591536D01*
X61083000Y-142591536D01*
X60955486Y-142615530D01*
X60837000Y-142591536D01*
X60583000Y-142591536D01*
X60455486Y-142615530D01*
X60337000Y-142591536D01*
X60083000Y-142591536D01*
X59955486Y-142615530D01*
X59837000Y-142591536D01*
X59679900Y-142591536D01*
X59679900Y-142525000D01*
X59644131Y-142345177D01*
X59637542Y-142335316D01*
X59542269Y-142192730D01*
X59042271Y-141692733D01*
X59042270Y-141692731D01*
X59013848Y-141664309D01*
X59014025Y-141461639D01*
X58904050Y-141195479D01*
X58700592Y-140991665D01*
X58648617Y-140970083D01*
X58699521Y-140949050D01*
X58903335Y-140745592D01*
X59013774Y-140479624D01*
X59014025Y-140191639D01*
X58904050Y-139925479D01*
X58700592Y-139721665D01*
X58434624Y-139611226D01*
X58146639Y-139610975D01*
X57880479Y-139720950D01*
X57736077Y-139865100D01*
X56385000Y-139865100D01*
X56205177Y-139900869D01*
X56052731Y-140002730D01*
X55417731Y-140637731D01*
X55315869Y-140790177D01*
X55280100Y-140970000D01*
X55280100Y-142045361D01*
X54877731Y-142447731D01*
X54859164Y-142475519D01*
X54801089Y-142335316D01*
X54692702Y-142173105D01*
X54608830Y-142089234D01*
X54566895Y-142047298D01*
X54404684Y-141938911D01*
X54400723Y-141937270D01*
X54376481Y-141927229D01*
X54240305Y-141870822D01*
X54240303Y-141870822D01*
X54048961Y-141832762D01*
X53850911Y-141793368D01*
X53758427Y-141731571D01*
X53696632Y-141639089D01*
X53666000Y-141485089D01*
X53666000Y-136033361D01*
X56295975Y-136033361D01*
X56405950Y-136299521D01*
X56609408Y-136503335D01*
X56875376Y-136613774D01*
X57163361Y-136614025D01*
X57429521Y-136504050D01*
X57573923Y-136359900D01*
X65194728Y-136359900D01*
X65186226Y-136380376D01*
X65185975Y-136668361D01*
X65295950Y-136934521D01*
X65499408Y-137138335D01*
X65765376Y-137248774D01*
X66053361Y-137249025D01*
X66319521Y-137139050D01*
X66463923Y-136994900D01*
X69801224Y-136994900D01*
X69944408Y-137138335D01*
X70210376Y-137248774D01*
X70498361Y-137249025D01*
X70764521Y-137139050D01*
X70968335Y-136935592D01*
X71078774Y-136669624D01*
X71079025Y-136381639D01*
X71070043Y-136359900D01*
X71706224Y-136359900D01*
X71849408Y-136503335D01*
X72115376Y-136613774D01*
X72403361Y-136614025D01*
X72669521Y-136504050D01*
X72873335Y-136300592D01*
X72983774Y-136034624D01*
X72984025Y-135746639D01*
X72874050Y-135480479D01*
X72670592Y-135276665D01*
X72404624Y-135166226D01*
X72116639Y-135165975D01*
X71850479Y-135275950D01*
X71706077Y-135420100D01*
X71705272Y-135420100D01*
X71713774Y-135399624D01*
X71714025Y-135111639D01*
X71604050Y-134845479D01*
X71400592Y-134641665D01*
X71134624Y-134531226D01*
X70846639Y-134530975D01*
X70580479Y-134640950D01*
X70436077Y-134785100D01*
X67098776Y-134785100D01*
X66955592Y-134641665D01*
X66689624Y-134531226D01*
X66401639Y-134530975D01*
X66135479Y-134640950D01*
X65931665Y-134844408D01*
X65821226Y-135110376D01*
X65820975Y-135398361D01*
X65829957Y-135420100D01*
X57573776Y-135420100D01*
X57430592Y-135276665D01*
X57164624Y-135166226D01*
X56876639Y-135165975D01*
X56610479Y-135275950D01*
X56406665Y-135479408D01*
X56296226Y-135745376D01*
X56295975Y-136033361D01*
X53666000Y-136033361D01*
X53666000Y-134128361D01*
X60740975Y-134128361D01*
X60850950Y-134394521D01*
X61054408Y-134598335D01*
X61320376Y-134708774D01*
X61608361Y-134709025D01*
X61874521Y-134599050D01*
X62018923Y-134454900D01*
X69166224Y-134454900D01*
X69309408Y-134598335D01*
X69575376Y-134708774D01*
X69863361Y-134709025D01*
X70129521Y-134599050D01*
X70333335Y-134395592D01*
X70443774Y-134129624D01*
X70444025Y-133841639D01*
X70334050Y-133575479D01*
X70130592Y-133371665D01*
X69864624Y-133261226D01*
X69576639Y-133260975D01*
X69310479Y-133370950D01*
X69166077Y-133515100D01*
X62018776Y-133515100D01*
X61875592Y-133371665D01*
X61609624Y-133261226D01*
X61321639Y-133260975D01*
X61055479Y-133370950D01*
X60851665Y-133574408D01*
X60741226Y-133840376D01*
X60740975Y-134128361D01*
X53666000Y-134128361D01*
X53666000Y-129755112D01*
X58981791Y-129755112D01*
X59113041Y-130072007D01*
X59441462Y-130443077D01*
X59886886Y-130660220D01*
X60083000Y-130536895D01*
X60083000Y-129559000D01*
X60337000Y-129559000D01*
X60337000Y-130536895D01*
X60533114Y-130660220D01*
X60978538Y-130443077D01*
X61306959Y-130072007D01*
X61438209Y-129755112D01*
X68125791Y-129755112D01*
X68257041Y-130072007D01*
X68585462Y-130443077D01*
X69030886Y-130660220D01*
X69227000Y-130536895D01*
X69227000Y-129559000D01*
X69481000Y-129559000D01*
X69481000Y-130536895D01*
X69677114Y-130660220D01*
X70122538Y-130443077D01*
X70450959Y-130072007D01*
X70582209Y-129755112D01*
X70457969Y-129559000D01*
X69481000Y-129559000D01*
X69227000Y-129559000D01*
X68250031Y-129559000D01*
X68125791Y-129755112D01*
X61438209Y-129755112D01*
X61313969Y-129559000D01*
X60337000Y-129559000D01*
X60083000Y-129559000D01*
X59106031Y-129559000D01*
X58981791Y-129755112D01*
X53666000Y-129755112D01*
X53666000Y-128373361D01*
X54985975Y-128373361D01*
X55095950Y-128639521D01*
X55299408Y-128843335D01*
X55565376Y-128953774D01*
X55853361Y-128954025D01*
X56119521Y-128844050D01*
X56223853Y-128739900D01*
X59006224Y-128739900D01*
X59096967Y-128830802D01*
X58981791Y-129108888D01*
X59106031Y-129305000D01*
X60083000Y-129305000D01*
X60083000Y-129285000D01*
X60337000Y-129285000D01*
X60337000Y-129305000D01*
X61313969Y-129305000D01*
X61438209Y-129108888D01*
X68125791Y-129108888D01*
X68250031Y-129305000D01*
X69227000Y-129305000D01*
X69227000Y-128327105D01*
X69481000Y-128327105D01*
X69481000Y-129305000D01*
X70457969Y-129305000D01*
X70582209Y-129108888D01*
X70450959Y-128791993D01*
X70122538Y-128420923D01*
X69677114Y-128203780D01*
X69481000Y-128327105D01*
X69227000Y-128327105D01*
X69030886Y-128203780D01*
X68585462Y-128420923D01*
X68257041Y-128791993D01*
X68125791Y-129108888D01*
X61438209Y-129108888D01*
X61306959Y-128791993D01*
X60978538Y-128420923D01*
X60533114Y-128203780D01*
X60337002Y-128327104D01*
X60337002Y-128162000D01*
X60283994Y-128162000D01*
X60284025Y-128126639D01*
X60174050Y-127860479D01*
X60028527Y-127714702D01*
X60050376Y-127723774D01*
X60338361Y-127724025D01*
X60604521Y-127614050D01*
X60808335Y-127410592D01*
X60918774Y-127144624D01*
X60919025Y-126856639D01*
X60809050Y-126590479D01*
X60605592Y-126386665D01*
X60339624Y-126276226D01*
X60051639Y-126275975D01*
X59785479Y-126385950D01*
X59661112Y-126510100D01*
X56283811Y-126510100D01*
X56160592Y-126386665D01*
X55894624Y-126276226D01*
X55606639Y-126275975D01*
X55340479Y-126385950D01*
X55136665Y-126589408D01*
X55026226Y-126855376D01*
X55025975Y-127143361D01*
X55135950Y-127409521D01*
X55329888Y-127603798D01*
X55300479Y-127615950D01*
X55096665Y-127819408D01*
X54986226Y-128085376D01*
X54985975Y-128373361D01*
X53666000Y-128373361D01*
X53666000Y-65574911D01*
X53696632Y-65420911D01*
X53758427Y-65328429D01*
X53850911Y-65266632D01*
X54004911Y-65236000D01*
X74415089Y-65236000D01*
X74569089Y-65266632D01*
X74569089Y-65266632D01*
G37*
X74569089Y-65266632D02*
X74661571Y-65328427D01*
X74723368Y-65420911D01*
X74754000Y-65574911D01*
X74754000Y-81985089D01*
X74723368Y-82139089D01*
X74661571Y-82231573D01*
X74569089Y-82293368D01*
X74415089Y-82324000D01*
X58460000Y-82324000D01*
X58415950Y-82332762D01*
X58371040Y-82332762D01*
X58084026Y-82389852D01*
X58084025Y-82389852D01*
X58015937Y-82418055D01*
X57919647Y-82457940D01*
X57919646Y-82457941D01*
X57676329Y-82620520D01*
X57613425Y-82683425D01*
X57550520Y-82746329D01*
X57387940Y-82989646D01*
X57341219Y-83102441D01*
X57319852Y-83154026D01*
X57262762Y-83441039D01*
X57262762Y-83485950D01*
X57254000Y-83530000D01*
X57254000Y-121280000D01*
X57262762Y-121324050D01*
X57262762Y-121368961D01*
X57319852Y-121655974D01*
X57319852Y-121655975D01*
X57387940Y-121820354D01*
X57550520Y-122063671D01*
X57613425Y-122126575D01*
X57676329Y-122189480D01*
X57687936Y-122197236D01*
X57687936Y-123216000D01*
X57714503Y-123357190D01*
X57797946Y-123486865D01*
X57925266Y-123573859D01*
X58076400Y-123604464D01*
X58635200Y-123604464D01*
X58753695Y-123582167D01*
X58863800Y-123604464D01*
X59422600Y-123604464D01*
X59541095Y-123582167D01*
X59651200Y-123604464D01*
X60210000Y-123604464D01*
X60328495Y-123582167D01*
X60438600Y-123604464D01*
X60997400Y-123604464D01*
X61115895Y-123582167D01*
X61226000Y-123604464D01*
X61784800Y-123604464D01*
X61903295Y-123582167D01*
X62013400Y-123604464D01*
X62572200Y-123604464D01*
X62713390Y-123577897D01*
X62843065Y-123494454D01*
X62930059Y-123367134D01*
X62960664Y-123216000D01*
X62960664Y-122486000D01*
X63740600Y-122486000D01*
X63740600Y-122593002D01*
X63899348Y-122593002D01*
X63740600Y-122751750D01*
X63740600Y-123342310D01*
X63837273Y-123575699D01*
X64015902Y-123754327D01*
X64249291Y-123851000D01*
X64369250Y-123851000D01*
X64528000Y-123692250D01*
X64528000Y-122593000D01*
X64508000Y-122593000D01*
X64508000Y-122486000D01*
X64774536Y-122486000D01*
X64774536Y-123216000D01*
X64782000Y-123255667D01*
X64782000Y-123692250D01*
X64915169Y-123825419D01*
X64865479Y-123845950D01*
X64721077Y-123990100D01*
X63923776Y-123990100D01*
X63780592Y-123846665D01*
X63514624Y-123736226D01*
X63226639Y-123735975D01*
X62960479Y-123845950D01*
X62756665Y-124049408D01*
X62646226Y-124315376D01*
X62645975Y-124603361D01*
X62654957Y-124625100D01*
X58843776Y-124625100D01*
X58700592Y-124481665D01*
X58434624Y-124371226D01*
X58146639Y-124370975D01*
X57880479Y-124480950D01*
X57676665Y-124684408D01*
X57566226Y-124950376D01*
X57565975Y-125238361D01*
X57675950Y-125504521D01*
X57879408Y-125708335D01*
X58145376Y-125818774D01*
X58433361Y-125819025D01*
X58699521Y-125709050D01*
X58843923Y-125564900D01*
X63289728Y-125564900D01*
X63281226Y-125585376D01*
X63280975Y-125873361D01*
X63390950Y-126139521D01*
X63594408Y-126343335D01*
X63860376Y-126453774D01*
X64148361Y-126454025D01*
X64414521Y-126344050D01*
X64558923Y-126199900D01*
X65356224Y-126199900D01*
X65499408Y-126343335D01*
X65765376Y-126453774D01*
X66053361Y-126454025D01*
X66319521Y-126344050D01*
X66523335Y-126140592D01*
X66633774Y-125874624D01*
X66634025Y-125586639D01*
X66625043Y-125564900D01*
X72976224Y-125564900D01*
X73119408Y-125708335D01*
X73385376Y-125818774D01*
X73673361Y-125819025D01*
X73939521Y-125709050D01*
X74143335Y-125505592D01*
X74253774Y-125239624D01*
X74254025Y-124951639D01*
X74144050Y-124685479D01*
X73940592Y-124481665D01*
X73674624Y-124371226D01*
X73386639Y-124370975D01*
X73120479Y-124480950D01*
X72976077Y-124625100D01*
X65990272Y-124625100D01*
X65998774Y-124604624D01*
X65999025Y-124316639D01*
X65889050Y-124050479D01*
X65685592Y-123846665D01*
X65419624Y-123736226D01*
X65312293Y-123736132D01*
X65443962Y-123604464D01*
X65721800Y-123604464D01*
X65840295Y-123582167D01*
X65950400Y-123604464D01*
X66228238Y-123604464D01*
X66378102Y-123754327D01*
X66611491Y-123851000D01*
X66731450Y-123851000D01*
X66890200Y-123692250D01*
X66890200Y-123252859D01*
X66897664Y-123216000D01*
X66897664Y-122486000D01*
X67136736Y-122486000D01*
X67136736Y-123216000D01*
X67144200Y-123255667D01*
X67144200Y-123692250D01*
X67302950Y-123851000D01*
X67422909Y-123851000D01*
X67656298Y-123754327D01*
X67806162Y-123604464D01*
X68084000Y-123604464D01*
X68202495Y-123582167D01*
X68312600Y-123604464D01*
X68590438Y-123604464D01*
X68740302Y-123754327D01*
X68973691Y-123851000D01*
X69093650Y-123851000D01*
X69252400Y-123692250D01*
X69252400Y-123252859D01*
X69259864Y-123216000D01*
X69259864Y-122486000D01*
X69498936Y-122486000D01*
X69498936Y-123216000D01*
X69506400Y-123255667D01*
X69506400Y-123692250D01*
X69665150Y-123851000D01*
X69785109Y-123851000D01*
X70018498Y-123754327D01*
X70168362Y-123604464D01*
X70446200Y-123604464D01*
X70564695Y-123582167D01*
X70674800Y-123604464D01*
X70952638Y-123604464D01*
X71102502Y-123754327D01*
X71335891Y-123851000D01*
X71455850Y-123851000D01*
X71614600Y-123692250D01*
X71614600Y-123252859D01*
X71622064Y-123216000D01*
X71622064Y-122486000D01*
X71861136Y-122486000D01*
X71861136Y-123216000D01*
X71868600Y-123255667D01*
X71868600Y-123692250D01*
X72027350Y-123851000D01*
X72147309Y-123851000D01*
X72380698Y-123754327D01*
X72530562Y-123604464D01*
X72808400Y-123604464D01*
X72926895Y-123582167D01*
X73037000Y-123604464D01*
X73595800Y-123604464D01*
X73736990Y-123577897D01*
X73866665Y-123494454D01*
X73953659Y-123367134D01*
X73984264Y-123216000D01*
X73984264Y-122486000D01*
X74415089Y-122486000D01*
X74569089Y-122516632D01*
X74661571Y-122578427D01*
X74723368Y-122670911D01*
X74754000Y-122824911D01*
X74754000Y-141485089D01*
X74723368Y-141639089D01*
X74661571Y-141731573D01*
X74569089Y-141793368D01*
X74371039Y-141832762D01*
X74371038Y-141832762D01*
X74179697Y-141870822D01*
X74179695Y-141870822D01*
X74043519Y-141927229D01*
X74019278Y-141937270D01*
X74015316Y-141938911D01*
X73853105Y-142047298D01*
X73786568Y-142113836D01*
X73727298Y-142173105D01*
X73618911Y-142335316D01*
X73550822Y-142499695D01*
X73550822Y-142499697D01*
X73521880Y-142645199D01*
X73488134Y-142622141D01*
X73337000Y-142591536D01*
X73083000Y-142591536D01*
X72955486Y-142615530D01*
X72837000Y-142591536D01*
X72583000Y-142591536D01*
X72455486Y-142615530D01*
X72337000Y-142591536D01*
X72083000Y-142591536D01*
X71955486Y-142615530D01*
X71837000Y-142591536D01*
X71583000Y-142591536D01*
X71490893Y-142608867D01*
X71450148Y-142404026D01*
X71382060Y-142239647D01*
X71382059Y-142239646D01*
X71219480Y-141996329D01*
X71156575Y-141933425D01*
X71093671Y-141870520D01*
X70850354Y-141707940D01*
X70685975Y-141639852D01*
X70685974Y-141639852D01*
X70398963Y-141582762D01*
X70221038Y-141582762D01*
X70221036Y-141582763D01*
X69934026Y-141639852D01*
X69934025Y-141639852D01*
X69907474Y-141650850D01*
X69808824Y-141691712D01*
X69809025Y-141461639D01*
X69699050Y-141195479D01*
X69495592Y-140991665D01*
X69229624Y-140881226D01*
X69203335Y-140881203D01*
X69660690Y-140423848D01*
X69863361Y-140424025D01*
X70129521Y-140314050D01*
X70333335Y-140110592D01*
X70443774Y-139844624D01*
X70444025Y-139556639D01*
X70334050Y-139290479D01*
X70130592Y-139086665D01*
X69864624Y-138976226D01*
X69576639Y-138975975D01*
X69310479Y-139085950D01*
X69106665Y-139289408D01*
X68996226Y-139555376D01*
X68996048Y-139759413D01*
X67482732Y-141272730D01*
X67482731Y-141272731D01*
X67380869Y-141425177D01*
X67345100Y-141605000D01*
X67345100Y-141680561D01*
X63929438Y-138264900D01*
X68531224Y-138264900D01*
X68674408Y-138408335D01*
X68940376Y-138518774D01*
X69228361Y-138519025D01*
X69494521Y-138409050D01*
X69698335Y-138205592D01*
X69808774Y-137939624D01*
X69809025Y-137651639D01*
X69699050Y-137385479D01*
X69495592Y-137181665D01*
X69229624Y-137071226D01*
X68941639Y-137070975D01*
X68675479Y-137180950D01*
X68531077Y-137325100D01*
X63288776Y-137325100D01*
X63145592Y-137181665D01*
X62879624Y-137071226D01*
X62591639Y-137070975D01*
X62325479Y-137180950D01*
X62121665Y-137384408D01*
X62011226Y-137650376D01*
X62011177Y-137706023D01*
X61956639Y-137705975D01*
X61690479Y-137815950D01*
X61486665Y-138019408D01*
X61376226Y-138285376D01*
X61375975Y-138573361D01*
X61485950Y-138839521D01*
X61689408Y-139043335D01*
X61955376Y-139153774D01*
X62243361Y-139154025D01*
X62509521Y-139044050D01*
X62653923Y-138899900D01*
X63235362Y-138899900D01*
X66740100Y-142404639D01*
X66740100Y-142591536D01*
X66583000Y-142591536D01*
X66455486Y-142615530D01*
X66337000Y-142591536D01*
X66083000Y-142591536D01*
X65955486Y-142615530D01*
X65837000Y-142591536D01*
X65583000Y-142591536D01*
X65455486Y-142615530D01*
X65337000Y-142591536D01*
X65083000Y-142591536D01*
X64955486Y-142615530D01*
X64837000Y-142591536D01*
X64583000Y-142591536D01*
X64455486Y-142615530D01*
X64337000Y-142591536D01*
X64083000Y-142591536D01*
X63955486Y-142615530D01*
X63837000Y-142591536D01*
X63583000Y-142591536D01*
X63455486Y-142615530D01*
X63337000Y-142591536D01*
X63083000Y-142591536D01*
X62955486Y-142615530D01*
X62837000Y-142591536D01*
X62583000Y-142591536D01*
X62455486Y-142615530D01*
X62337000Y-142591536D01*
X62083000Y-142591536D01*
X61955486Y-142615530D01*
X61837000Y-142591536D01*
X61583000Y-142591536D01*
X61455486Y-142615530D01*
X61337000Y-142591536D01*
X61083000Y-142591536D01*
X60955486Y-142615530D01*
X60837000Y-142591536D01*
X60583000Y-142591536D01*
X60455486Y-142615530D01*
X60337000Y-142591536D01*
X60083000Y-142591536D01*
X59955486Y-142615530D01*
X59837000Y-142591536D01*
X59679900Y-142591536D01*
X59679900Y-142525000D01*
X59644131Y-142345177D01*
X59637542Y-142335316D01*
X59542269Y-142192730D01*
X59042271Y-141692733D01*
X59042270Y-141692731D01*
X59013848Y-141664309D01*
X59014025Y-141461639D01*
X58904050Y-141195479D01*
X58700592Y-140991665D01*
X58648617Y-140970083D01*
X58699521Y-140949050D01*
X58903335Y-140745592D01*
X59013774Y-140479624D01*
X59014025Y-140191639D01*
X58904050Y-139925479D01*
X58700592Y-139721665D01*
X58434624Y-139611226D01*
X58146639Y-139610975D01*
X57880479Y-139720950D01*
X57736077Y-139865100D01*
X56385000Y-139865100D01*
X56205177Y-139900869D01*
X56052731Y-140002730D01*
X55417731Y-140637731D01*
X55315869Y-140790177D01*
X55280100Y-140970000D01*
X55280100Y-142045361D01*
X54877731Y-142447731D01*
X54859164Y-142475519D01*
X54801089Y-142335316D01*
X54692702Y-142173105D01*
X54608830Y-142089234D01*
X54566895Y-142047298D01*
X54404684Y-141938911D01*
X54400723Y-141937270D01*
X54376481Y-141927229D01*
X54240305Y-141870822D01*
X54240303Y-141870822D01*
X54048961Y-141832762D01*
X53850911Y-141793368D01*
X53758427Y-141731571D01*
X53696632Y-141639089D01*
X53666000Y-141485089D01*
X53666000Y-136033361D01*
X56295975Y-136033361D01*
X56405950Y-136299521D01*
X56609408Y-136503335D01*
X56875376Y-136613774D01*
X57163361Y-136614025D01*
X57429521Y-136504050D01*
X57573923Y-136359900D01*
X65194728Y-136359900D01*
X65186226Y-136380376D01*
X65185975Y-136668361D01*
X65295950Y-136934521D01*
X65499408Y-137138335D01*
X65765376Y-137248774D01*
X66053361Y-137249025D01*
X66319521Y-137139050D01*
X66463923Y-136994900D01*
X69801224Y-136994900D01*
X69944408Y-137138335D01*
X70210376Y-137248774D01*
X70498361Y-137249025D01*
X70764521Y-137139050D01*
X70968335Y-136935592D01*
X71078774Y-136669624D01*
X71079025Y-136381639D01*
X71070043Y-136359900D01*
X71706224Y-136359900D01*
X71849408Y-136503335D01*
X72115376Y-136613774D01*
X72403361Y-136614025D01*
X72669521Y-136504050D01*
X72873335Y-136300592D01*
X72983774Y-136034624D01*
X72984025Y-135746639D01*
X72874050Y-135480479D01*
X72670592Y-135276665D01*
X72404624Y-135166226D01*
X72116639Y-135165975D01*
X71850479Y-135275950D01*
X71706077Y-135420100D01*
X71705272Y-135420100D01*
X71713774Y-135399624D01*
X71714025Y-135111639D01*
X71604050Y-134845479D01*
X71400592Y-134641665D01*
X71134624Y-134531226D01*
X70846639Y-134530975D01*
X70580479Y-134640950D01*
X70436077Y-134785100D01*
X67098776Y-134785100D01*
X66955592Y-134641665D01*
X66689624Y-134531226D01*
X66401639Y-134530975D01*
X66135479Y-134640950D01*
X65931665Y-134844408D01*
X65821226Y-135110376D01*
X65820975Y-135398361D01*
X65829957Y-135420100D01*
X57573776Y-135420100D01*
X57430592Y-135276665D01*
X57164624Y-135166226D01*
X56876639Y-135165975D01*
X56610479Y-135275950D01*
X56406665Y-135479408D01*
X56296226Y-135745376D01*
X56295975Y-136033361D01*
X53666000Y-136033361D01*
X53666000Y-134128361D01*
X60740975Y-134128361D01*
X60850950Y-134394521D01*
X61054408Y-134598335D01*
X61320376Y-134708774D01*
X61608361Y-134709025D01*
X61874521Y-134599050D01*
X62018923Y-134454900D01*
X69166224Y-134454900D01*
X69309408Y-134598335D01*
X69575376Y-134708774D01*
X69863361Y-134709025D01*
X70129521Y-134599050D01*
X70333335Y-134395592D01*
X70443774Y-134129624D01*
X70444025Y-133841639D01*
X70334050Y-133575479D01*
X70130592Y-133371665D01*
X69864624Y-133261226D01*
X69576639Y-133260975D01*
X69310479Y-133370950D01*
X69166077Y-133515100D01*
X62018776Y-133515100D01*
X61875592Y-133371665D01*
X61609624Y-133261226D01*
X61321639Y-133260975D01*
X61055479Y-133370950D01*
X60851665Y-133574408D01*
X60741226Y-133840376D01*
X60740975Y-134128361D01*
X53666000Y-134128361D01*
X53666000Y-129755112D01*
X58981791Y-129755112D01*
X59113041Y-130072007D01*
X59441462Y-130443077D01*
X59886886Y-130660220D01*
X60083000Y-130536895D01*
X60083000Y-129559000D01*
X60337000Y-129559000D01*
X60337000Y-130536895D01*
X60533114Y-130660220D01*
X60978538Y-130443077D01*
X61306959Y-130072007D01*
X61438209Y-129755112D01*
X68125791Y-129755112D01*
X68257041Y-130072007D01*
X68585462Y-130443077D01*
X69030886Y-130660220D01*
X69227000Y-130536895D01*
X69227000Y-129559000D01*
X69481000Y-129559000D01*
X69481000Y-130536895D01*
X69677114Y-130660220D01*
X70122538Y-130443077D01*
X70450959Y-130072007D01*
X70582209Y-129755112D01*
X70457969Y-129559000D01*
X69481000Y-129559000D01*
X69227000Y-129559000D01*
X68250031Y-129559000D01*
X68125791Y-129755112D01*
X61438209Y-129755112D01*
X61313969Y-129559000D01*
X60337000Y-129559000D01*
X60083000Y-129559000D01*
X59106031Y-129559000D01*
X58981791Y-129755112D01*
X53666000Y-129755112D01*
X53666000Y-128373361D01*
X54985975Y-128373361D01*
X55095950Y-128639521D01*
X55299408Y-128843335D01*
X55565376Y-128953774D01*
X55853361Y-128954025D01*
X56119521Y-128844050D01*
X56223853Y-128739900D01*
X59006224Y-128739900D01*
X59096967Y-128830802D01*
X58981791Y-129108888D01*
X59106031Y-129305000D01*
X60083000Y-129305000D01*
X60083000Y-129285000D01*
X60337000Y-129285000D01*
X60337000Y-129305000D01*
X61313969Y-129305000D01*
X61438209Y-129108888D01*
X68125791Y-129108888D01*
X68250031Y-129305000D01*
X69227000Y-129305000D01*
X69227000Y-128327105D01*
X69481000Y-128327105D01*
X69481000Y-129305000D01*
X70457969Y-129305000D01*
X70582209Y-129108888D01*
X70450959Y-128791993D01*
X70122538Y-128420923D01*
X69677114Y-128203780D01*
X69481000Y-128327105D01*
X69227000Y-128327105D01*
X69030886Y-128203780D01*
X68585462Y-128420923D01*
X68257041Y-128791993D01*
X68125791Y-129108888D01*
X61438209Y-129108888D01*
X61306959Y-128791993D01*
X60978538Y-128420923D01*
X60533114Y-128203780D01*
X60337002Y-128327104D01*
X60337002Y-128162000D01*
X60283994Y-128162000D01*
X60284025Y-128126639D01*
X60174050Y-127860479D01*
X60028527Y-127714702D01*
X60050376Y-127723774D01*
X60338361Y-127724025D01*
X60604521Y-127614050D01*
X60808335Y-127410592D01*
X60918774Y-127144624D01*
X60919025Y-126856639D01*
X60809050Y-126590479D01*
X60605592Y-126386665D01*
X60339624Y-126276226D01*
X60051639Y-126275975D01*
X59785479Y-126385950D01*
X59661112Y-126510100D01*
X56283811Y-126510100D01*
X56160592Y-126386665D01*
X55894624Y-126276226D01*
X55606639Y-126275975D01*
X55340479Y-126385950D01*
X55136665Y-126589408D01*
X55026226Y-126855376D01*
X55025975Y-127143361D01*
X55135950Y-127409521D01*
X55329888Y-127603798D01*
X55300479Y-127615950D01*
X55096665Y-127819408D01*
X54986226Y-128085376D01*
X54985975Y-128373361D01*
X53666000Y-128373361D01*
X53666000Y-65574911D01*
X53696632Y-65420911D01*
X53758427Y-65328429D01*
X53850911Y-65266632D01*
X54004911Y-65236000D01*
X74415089Y-65236000D01*
X74569089Y-65266632D01*
G36*
X122569089Y-65266632D02*
X122661571Y-65328427D01*
X122723368Y-65420911D01*
X122754000Y-65574911D01*
X122754000Y-81985089D01*
X122723368Y-82139089D01*
X122661571Y-82231573D01*
X122569089Y-82293368D01*
X122415089Y-82324000D01*
X106460000Y-82324000D01*
X106415950Y-82332762D01*
X106371040Y-82332762D01*
X106084026Y-82389852D01*
X106084025Y-82389852D01*
X106015937Y-82418055D01*
X105919647Y-82457940D01*
X105919646Y-82457941D01*
X105676329Y-82620520D01*
X105613425Y-82683425D01*
X105550520Y-82746329D01*
X105387940Y-82989646D01*
X105341219Y-83102441D01*
X105319852Y-83154026D01*
X105262762Y-83441039D01*
X105262762Y-83485950D01*
X105254000Y-83530000D01*
X105254000Y-121280000D01*
X105262762Y-121324050D01*
X105262762Y-121368961D01*
X105319852Y-121655974D01*
X105319852Y-121655975D01*
X105387940Y-121820354D01*
X105550520Y-122063671D01*
X105613425Y-122126575D01*
X105676329Y-122189480D01*
X105687936Y-122197236D01*
X105687936Y-123216000D01*
X105714503Y-123357190D01*
X105797946Y-123486865D01*
X105925266Y-123573859D01*
X106076400Y-123604464D01*
X106635200Y-123604464D01*
X106753695Y-123582167D01*
X106863800Y-123604464D01*
X107422600Y-123604464D01*
X107541095Y-123582167D01*
X107651200Y-123604464D01*
X108210000Y-123604464D01*
X108328495Y-123582167D01*
X108438600Y-123604464D01*
X108997400Y-123604464D01*
X109115895Y-123582167D01*
X109226000Y-123604464D01*
X109784800Y-123604464D01*
X109903295Y-123582167D01*
X110013400Y-123604464D01*
X110572200Y-123604464D01*
X110713390Y-123577897D01*
X110843065Y-123494454D01*
X110930059Y-123367134D01*
X110960664Y-123216000D01*
X110960664Y-122486000D01*
X111740600Y-122486000D01*
X111740600Y-122593002D01*
X111899348Y-122593002D01*
X111740600Y-122751750D01*
X111740600Y-123342310D01*
X111837273Y-123575699D01*
X112015902Y-123754327D01*
X112249291Y-123851000D01*
X112369250Y-123851000D01*
X112528000Y-123692250D01*
X112528000Y-122593000D01*
X112508000Y-122593000D01*
X112508000Y-122486000D01*
X112774536Y-122486000D01*
X112774536Y-123216000D01*
X112782000Y-123255667D01*
X112782000Y-123692250D01*
X112915169Y-123825419D01*
X112865479Y-123845950D01*
X112721077Y-123990100D01*
X111923776Y-123990100D01*
X111780592Y-123846665D01*
X111514624Y-123736226D01*
X111226639Y-123735975D01*
X110960479Y-123845950D01*
X110756665Y-124049408D01*
X110646226Y-124315376D01*
X110645975Y-124603361D01*
X110654957Y-124625100D01*
X106843776Y-124625100D01*
X106700592Y-124481665D01*
X106434624Y-124371226D01*
X106146639Y-124370975D01*
X105880479Y-124480950D01*
X105676665Y-124684408D01*
X105566226Y-124950376D01*
X105565975Y-125238361D01*
X105675950Y-125504521D01*
X105879408Y-125708335D01*
X106145376Y-125818774D01*
X106433361Y-125819025D01*
X106699521Y-125709050D01*
X106843923Y-125564900D01*
X111289728Y-125564900D01*
X111281226Y-125585376D01*
X111280975Y-125873361D01*
X111390950Y-126139521D01*
X111594408Y-126343335D01*
X111860376Y-126453774D01*
X112148361Y-126454025D01*
X112414521Y-126344050D01*
X112558923Y-126199900D01*
X113356224Y-126199900D01*
X113499408Y-126343335D01*
X113765376Y-126453774D01*
X114053361Y-126454025D01*
X114319521Y-126344050D01*
X114523335Y-126140592D01*
X114633774Y-125874624D01*
X114634025Y-125586639D01*
X114625043Y-125564900D01*
X120976224Y-125564900D01*
X121119408Y-125708335D01*
X121385376Y-125818774D01*
X121673361Y-125819025D01*
X121939521Y-125709050D01*
X122143335Y-125505592D01*
X122253774Y-125239624D01*
X122254025Y-124951639D01*
X122144050Y-124685479D01*
X121940592Y-124481665D01*
X121674624Y-124371226D01*
X121386639Y-124370975D01*
X121120479Y-124480950D01*
X120976077Y-124625100D01*
X113990272Y-124625100D01*
X113998774Y-124604624D01*
X113999025Y-124316639D01*
X113889050Y-124050479D01*
X113685592Y-123846665D01*
X113419624Y-123736226D01*
X113312293Y-123736132D01*
X113443962Y-123604464D01*
X113721800Y-123604464D01*
X113840295Y-123582167D01*
X113950400Y-123604464D01*
X114228238Y-123604464D01*
X114378102Y-123754327D01*
X114611491Y-123851000D01*
X114731450Y-123851000D01*
X114890200Y-123692250D01*
X114890200Y-123252859D01*
X114897664Y-123216000D01*
X114897664Y-122486000D01*
X115136736Y-122486000D01*
X115136736Y-123216000D01*
X115144200Y-123255667D01*
X115144200Y-123692250D01*
X115302950Y-123851000D01*
X115422909Y-123851000D01*
X115656298Y-123754327D01*
X115806162Y-123604464D01*
X116084000Y-123604464D01*
X116202495Y-123582167D01*
X116312600Y-123604464D01*
X116590438Y-123604464D01*
X116740302Y-123754327D01*
X116973691Y-123851000D01*
X117093650Y-123851000D01*
X117252400Y-123692250D01*
X117252400Y-123252859D01*
X117259864Y-123216000D01*
X117259864Y-122486000D01*
X117498936Y-122486000D01*
X117498936Y-123216000D01*
X117506400Y-123255667D01*
X117506400Y-123692250D01*
X117665150Y-123851000D01*
X117785109Y-123851000D01*
X118018498Y-123754327D01*
X118168362Y-123604464D01*
X118446200Y-123604464D01*
X118564695Y-123582167D01*
X118674800Y-123604464D01*
X118952638Y-123604464D01*
X119102502Y-123754327D01*
X119335891Y-123851000D01*
X119455850Y-123851000D01*
X119614600Y-123692250D01*
X119614600Y-123252859D01*
X119622064Y-123216000D01*
X119622064Y-122486000D01*
X119861136Y-122486000D01*
X119861136Y-123216000D01*
X119868600Y-123255667D01*
X119868600Y-123692250D01*
X120027350Y-123851000D01*
X120147309Y-123851000D01*
X120380698Y-123754327D01*
X120530562Y-123604464D01*
X120808400Y-123604464D01*
X120926895Y-123582167D01*
X121037000Y-123604464D01*
X121595800Y-123604464D01*
X121736990Y-123577897D01*
X121866665Y-123494454D01*
X121953659Y-123367134D01*
X121984264Y-123216000D01*
X121984264Y-122486000D01*
X122415089Y-122486000D01*
X122569089Y-122516632D01*
X122661571Y-122578427D01*
X122723368Y-122670911D01*
X122754000Y-122824911D01*
X122754000Y-141485089D01*
X122723368Y-141639089D01*
X122661571Y-141731573D01*
X122569089Y-141793368D01*
X122371039Y-141832762D01*
X122371038Y-141832762D01*
X122179697Y-141870822D01*
X122179695Y-141870822D01*
X122043519Y-141927229D01*
X122019278Y-141937270D01*
X122015316Y-141938911D01*
X121853105Y-142047298D01*
X121786568Y-142113836D01*
X121727298Y-142173105D01*
X121618911Y-142335316D01*
X121550822Y-142499695D01*
X121550822Y-142499697D01*
X121521880Y-142645199D01*
X121488134Y-142622141D01*
X121337000Y-142591536D01*
X121083000Y-142591536D01*
X120955486Y-142615530D01*
X120837000Y-142591536D01*
X120583000Y-142591536D01*
X120455486Y-142615530D01*
X120337000Y-142591536D01*
X120083000Y-142591536D01*
X119955486Y-142615530D01*
X119837000Y-142591536D01*
X119583000Y-142591536D01*
X119490893Y-142608867D01*
X119450148Y-142404026D01*
X119382060Y-142239647D01*
X119382059Y-142239646D01*
X119219480Y-141996329D01*
X119156575Y-141933425D01*
X119093671Y-141870520D01*
X118850354Y-141707940D01*
X118685975Y-141639852D01*
X118685974Y-141639852D01*
X118398963Y-141582762D01*
X118221038Y-141582762D01*
X118221036Y-141582763D01*
X117934026Y-141639852D01*
X117934025Y-141639852D01*
X117907474Y-141650850D01*
X117808824Y-141691712D01*
X117809025Y-141461639D01*
X117699050Y-141195479D01*
X117495592Y-140991665D01*
X117229624Y-140881226D01*
X117203335Y-140881203D01*
X117660690Y-140423848D01*
X117863361Y-140424025D01*
X118129521Y-140314050D01*
X118333335Y-140110592D01*
X118443774Y-139844624D01*
X118444025Y-139556639D01*
X118334050Y-139290479D01*
X118130592Y-139086665D01*
X117864624Y-138976226D01*
X117576639Y-138975975D01*
X117310479Y-139085950D01*
X117106665Y-139289408D01*
X116996226Y-139555376D01*
X116996048Y-139759413D01*
X115482732Y-141272730D01*
X115482731Y-141272731D01*
X115380869Y-141425177D01*
X115345100Y-141605000D01*
X115345100Y-141680561D01*
X111929438Y-138264900D01*
X116531224Y-138264900D01*
X116674408Y-138408335D01*
X116940376Y-138518774D01*
X117228361Y-138519025D01*
X117494521Y-138409050D01*
X117698335Y-138205592D01*
X117808774Y-137939624D01*
X117809025Y-137651639D01*
X117699050Y-137385479D01*
X117495592Y-137181665D01*
X117229624Y-137071226D01*
X116941639Y-137070975D01*
X116675479Y-137180950D01*
X116531077Y-137325100D01*
X111288776Y-137325100D01*
X111145592Y-137181665D01*
X110879624Y-137071226D01*
X110591639Y-137070975D01*
X110325479Y-137180950D01*
X110121665Y-137384408D01*
X110011226Y-137650376D01*
X110011177Y-137706023D01*
X109956639Y-137705975D01*
X109690479Y-137815950D01*
X109486665Y-138019408D01*
X109376226Y-138285376D01*
X109375975Y-138573361D01*
X109485950Y-138839521D01*
X109689408Y-139043335D01*
X109955376Y-139153774D01*
X110243361Y-139154025D01*
X110509521Y-139044050D01*
X110653923Y-138899900D01*
X111235362Y-138899900D01*
X114740100Y-142404639D01*
X114740100Y-142591536D01*
X114583000Y-142591536D01*
X114455486Y-142615530D01*
X114337000Y-142591536D01*
X114083000Y-142591536D01*
X113955486Y-142615530D01*
X113837000Y-142591536D01*
X113583000Y-142591536D01*
X113455486Y-142615530D01*
X113337000Y-142591536D01*
X113083000Y-142591536D01*
X112955486Y-142615530D01*
X112837000Y-142591536D01*
X112583000Y-142591536D01*
X112455486Y-142615530D01*
X112337000Y-142591536D01*
X112083000Y-142591536D01*
X111955486Y-142615530D01*
X111837000Y-142591536D01*
X111583000Y-142591536D01*
X111455486Y-142615530D01*
X111337000Y-142591536D01*
X111083000Y-142591536D01*
X110955486Y-142615530D01*
X110837000Y-142591536D01*
X110583000Y-142591536D01*
X110455486Y-142615530D01*
X110337000Y-142591536D01*
X110083000Y-142591536D01*
X109955486Y-142615530D01*
X109837000Y-142591536D01*
X109583000Y-142591536D01*
X109455486Y-142615530D01*
X109337000Y-142591536D01*
X109083000Y-142591536D01*
X108955486Y-142615530D01*
X108837000Y-142591536D01*
X108583000Y-142591536D01*
X108455486Y-142615530D01*
X108337000Y-142591536D01*
X108083000Y-142591536D01*
X107955486Y-142615530D01*
X107837000Y-142591536D01*
X107679900Y-142591536D01*
X107679900Y-142525000D01*
X107644131Y-142345177D01*
X107637542Y-142335316D01*
X107542269Y-142192730D01*
X107042271Y-141692733D01*
X107042270Y-141692731D01*
X107013848Y-141664309D01*
X107014025Y-141461639D01*
X106904050Y-141195479D01*
X106700592Y-140991665D01*
X106648617Y-140970083D01*
X106699521Y-140949050D01*
X106903335Y-140745592D01*
X107013774Y-140479624D01*
X107014025Y-140191639D01*
X106904050Y-139925479D01*
X106700592Y-139721665D01*
X106434624Y-139611226D01*
X106146639Y-139610975D01*
X105880479Y-139720950D01*
X105736077Y-139865100D01*
X104385000Y-139865100D01*
X104205177Y-139900869D01*
X104052731Y-140002730D01*
X103417731Y-140637731D01*
X103315869Y-140790177D01*
X103280100Y-140970000D01*
X103280100Y-142045361D01*
X102877731Y-142447731D01*
X102859164Y-142475519D01*
X102801089Y-142335316D01*
X102692702Y-142173105D01*
X102608830Y-142089234D01*
X102566895Y-142047298D01*
X102404684Y-141938911D01*
X102400723Y-141937270D01*
X102376481Y-141927229D01*
X102240305Y-141870822D01*
X102240303Y-141870822D01*
X102048961Y-141832762D01*
X101850911Y-141793368D01*
X101758427Y-141731571D01*
X101696632Y-141639089D01*
X101666000Y-141485089D01*
X101666000Y-136033361D01*
X104295975Y-136033361D01*
X104405950Y-136299521D01*
X104609408Y-136503335D01*
X104875376Y-136613774D01*
X105163361Y-136614025D01*
X105429521Y-136504050D01*
X105573923Y-136359900D01*
X113194728Y-136359900D01*
X113186226Y-136380376D01*
X113185975Y-136668361D01*
X113295950Y-136934521D01*
X113499408Y-137138335D01*
X113765376Y-137248774D01*
X114053361Y-137249025D01*
X114319521Y-137139050D01*
X114463923Y-136994900D01*
X117801224Y-136994900D01*
X117944408Y-137138335D01*
X118210376Y-137248774D01*
X118498361Y-137249025D01*
X118764521Y-137139050D01*
X118968335Y-136935592D01*
X119078774Y-136669624D01*
X119079025Y-136381639D01*
X119070043Y-136359900D01*
X119706224Y-136359900D01*
X119849408Y-136503335D01*
X120115376Y-136613774D01*
X120403361Y-136614025D01*
X120669521Y-136504050D01*
X120873335Y-136300592D01*
X120983774Y-136034624D01*
X120984025Y-135746639D01*
X120874050Y-135480479D01*
X120670592Y-135276665D01*
X120404624Y-135166226D01*
X120116639Y-135165975D01*
X119850479Y-135275950D01*
X119706077Y-135420100D01*
X119705272Y-135420100D01*
X119713774Y-135399624D01*
X119714025Y-135111639D01*
X119604050Y-134845479D01*
X119400592Y-134641665D01*
X119134624Y-134531226D01*
X118846639Y-134530975D01*
X118580479Y-134640950D01*
X118436077Y-134785100D01*
X115098776Y-134785100D01*
X114955592Y-134641665D01*
X114689624Y-134531226D01*
X114401639Y-134530975D01*
X114135479Y-134640950D01*
X113931665Y-134844408D01*
X113821226Y-135110376D01*
X113820975Y-135398361D01*
X113829957Y-135420100D01*
X105573776Y-135420100D01*
X105430592Y-135276665D01*
X105164624Y-135166226D01*
X104876639Y-135165975D01*
X104610479Y-135275950D01*
X104406665Y-135479408D01*
X104296226Y-135745376D01*
X104295975Y-136033361D01*
X101666000Y-136033361D01*
X101666000Y-134128361D01*
X108740975Y-134128361D01*
X108850950Y-134394521D01*
X109054408Y-134598335D01*
X109320376Y-134708774D01*
X109608361Y-134709025D01*
X109874521Y-134599050D01*
X110018923Y-134454900D01*
X117166224Y-134454900D01*
X117309408Y-134598335D01*
X117575376Y-134708774D01*
X117863361Y-134709025D01*
X118129521Y-134599050D01*
X118333335Y-134395592D01*
X118443774Y-134129624D01*
X118444025Y-133841639D01*
X118334050Y-133575479D01*
X118130592Y-133371665D01*
X117864624Y-133261226D01*
X117576639Y-133260975D01*
X117310479Y-133370950D01*
X117166077Y-133515100D01*
X110018776Y-133515100D01*
X109875592Y-133371665D01*
X109609624Y-133261226D01*
X109321639Y-133260975D01*
X109055479Y-133370950D01*
X108851665Y-133574408D01*
X108741226Y-133840376D01*
X108740975Y-134128361D01*
X101666000Y-134128361D01*
X101666000Y-129755112D01*
X106981791Y-129755112D01*
X107113041Y-130072007D01*
X107441462Y-130443077D01*
X107886886Y-130660220D01*
X108083000Y-130536895D01*
X108083000Y-129559000D01*
X108337000Y-129559000D01*
X108337000Y-130536895D01*
X108533114Y-130660220D01*
X108978538Y-130443077D01*
X109306959Y-130072007D01*
X109438209Y-129755112D01*
X116125791Y-129755112D01*
X116257041Y-130072007D01*
X116585462Y-130443077D01*
X117030886Y-130660220D01*
X117227000Y-130536895D01*
X117227000Y-129559000D01*
X117481000Y-129559000D01*
X117481000Y-130536895D01*
X117677114Y-130660220D01*
X118122538Y-130443077D01*
X118450959Y-130072007D01*
X118582209Y-129755112D01*
X118457969Y-129559000D01*
X117481000Y-129559000D01*
X117227000Y-129559000D01*
X116250031Y-129559000D01*
X116125791Y-129755112D01*
X109438209Y-129755112D01*
X109313969Y-129559000D01*
X108337000Y-129559000D01*
X108083000Y-129559000D01*
X107106031Y-129559000D01*
X106981791Y-129755112D01*
X101666000Y-129755112D01*
X101666000Y-128373361D01*
X102985975Y-128373361D01*
X103095950Y-128639521D01*
X103299408Y-128843335D01*
X103565376Y-128953774D01*
X103853361Y-128954025D01*
X104119521Y-128844050D01*
X104223853Y-128739900D01*
X107006224Y-128739900D01*
X107096967Y-128830802D01*
X106981791Y-129108888D01*
X107106031Y-129305000D01*
X108083000Y-129305000D01*
X108083000Y-129285000D01*
X108337000Y-129285000D01*
X108337000Y-129305000D01*
X109313969Y-129305000D01*
X109438209Y-129108888D01*
X116125791Y-129108888D01*
X116250031Y-129305000D01*
X117227000Y-129305000D01*
X117227000Y-128327105D01*
X117481000Y-128327105D01*
X117481000Y-129305000D01*
X118457969Y-129305000D01*
X118582209Y-129108888D01*
X118450959Y-128791993D01*
X118122538Y-128420923D01*
X117677114Y-128203780D01*
X117481000Y-128327105D01*
X117227000Y-128327105D01*
X117030886Y-128203780D01*
X116585462Y-128420923D01*
X116257041Y-128791993D01*
X116125791Y-129108888D01*
X109438209Y-129108888D01*
X109306959Y-128791993D01*
X108978538Y-128420923D01*
X108533114Y-128203780D01*
X108337002Y-128327104D01*
X108337002Y-128162000D01*
X108283994Y-128162000D01*
X108284025Y-128126639D01*
X108174050Y-127860479D01*
X108028527Y-127714702D01*
X108050376Y-127723774D01*
X108338361Y-127724025D01*
X108604521Y-127614050D01*
X108808335Y-127410592D01*
X108918774Y-127144624D01*
X108919025Y-126856639D01*
X108809050Y-126590479D01*
X108605592Y-126386665D01*
X108339624Y-126276226D01*
X108051639Y-126275975D01*
X107785479Y-126385950D01*
X107661112Y-126510100D01*
X104283811Y-126510100D01*
X104160592Y-126386665D01*
X103894624Y-126276226D01*
X103606639Y-126275975D01*
X103340479Y-126385950D01*
X103136665Y-126589408D01*
X103026226Y-126855376D01*
X103025975Y-127143361D01*
X103135950Y-127409521D01*
X103329888Y-127603798D01*
X103300479Y-127615950D01*
X103096665Y-127819408D01*
X102986226Y-128085376D01*
X102985975Y-128373361D01*
X101666000Y-128373361D01*
X101666000Y-65574911D01*
X101696632Y-65420911D01*
X101758427Y-65328429D01*
X101850911Y-65266632D01*
X102004911Y-65236000D01*
X122415089Y-65236000D01*
X122569089Y-65266632D01*
X122569089Y-65266632D01*
G37*
X122569089Y-65266632D02*
X122661571Y-65328427D01*
X122723368Y-65420911D01*
X122754000Y-65574911D01*
X122754000Y-81985089D01*
X122723368Y-82139089D01*
X122661571Y-82231573D01*
X122569089Y-82293368D01*
X122415089Y-82324000D01*
X106460000Y-82324000D01*
X106415950Y-82332762D01*
X106371040Y-82332762D01*
X106084026Y-82389852D01*
X106084025Y-82389852D01*
X106015937Y-82418055D01*
X105919647Y-82457940D01*
X105919646Y-82457941D01*
X105676329Y-82620520D01*
X105613425Y-82683425D01*
X105550520Y-82746329D01*
X105387940Y-82989646D01*
X105341219Y-83102441D01*
X105319852Y-83154026D01*
X105262762Y-83441039D01*
X105262762Y-83485950D01*
X105254000Y-83530000D01*
X105254000Y-121280000D01*
X105262762Y-121324050D01*
X105262762Y-121368961D01*
X105319852Y-121655974D01*
X105319852Y-121655975D01*
X105387940Y-121820354D01*
X105550520Y-122063671D01*
X105613425Y-122126575D01*
X105676329Y-122189480D01*
X105687936Y-122197236D01*
X105687936Y-123216000D01*
X105714503Y-123357190D01*
X105797946Y-123486865D01*
X105925266Y-123573859D01*
X106076400Y-123604464D01*
X106635200Y-123604464D01*
X106753695Y-123582167D01*
X106863800Y-123604464D01*
X107422600Y-123604464D01*
X107541095Y-123582167D01*
X107651200Y-123604464D01*
X108210000Y-123604464D01*
X108328495Y-123582167D01*
X108438600Y-123604464D01*
X108997400Y-123604464D01*
X109115895Y-123582167D01*
X109226000Y-123604464D01*
X109784800Y-123604464D01*
X109903295Y-123582167D01*
X110013400Y-123604464D01*
X110572200Y-123604464D01*
X110713390Y-123577897D01*
X110843065Y-123494454D01*
X110930059Y-123367134D01*
X110960664Y-123216000D01*
X110960664Y-122486000D01*
X111740600Y-122486000D01*
X111740600Y-122593002D01*
X111899348Y-122593002D01*
X111740600Y-122751750D01*
X111740600Y-123342310D01*
X111837273Y-123575699D01*
X112015902Y-123754327D01*
X112249291Y-123851000D01*
X112369250Y-123851000D01*
X112528000Y-123692250D01*
X112528000Y-122593000D01*
X112508000Y-122593000D01*
X112508000Y-122486000D01*
X112774536Y-122486000D01*
X112774536Y-123216000D01*
X112782000Y-123255667D01*
X112782000Y-123692250D01*
X112915169Y-123825419D01*
X112865479Y-123845950D01*
X112721077Y-123990100D01*
X111923776Y-123990100D01*
X111780592Y-123846665D01*
X111514624Y-123736226D01*
X111226639Y-123735975D01*
X110960479Y-123845950D01*
X110756665Y-124049408D01*
X110646226Y-124315376D01*
X110645975Y-124603361D01*
X110654957Y-124625100D01*
X106843776Y-124625100D01*
X106700592Y-124481665D01*
X106434624Y-124371226D01*
X106146639Y-124370975D01*
X105880479Y-124480950D01*
X105676665Y-124684408D01*
X105566226Y-124950376D01*
X105565975Y-125238361D01*
X105675950Y-125504521D01*
X105879408Y-125708335D01*
X106145376Y-125818774D01*
X106433361Y-125819025D01*
X106699521Y-125709050D01*
X106843923Y-125564900D01*
X111289728Y-125564900D01*
X111281226Y-125585376D01*
X111280975Y-125873361D01*
X111390950Y-126139521D01*
X111594408Y-126343335D01*
X111860376Y-126453774D01*
X112148361Y-126454025D01*
X112414521Y-126344050D01*
X112558923Y-126199900D01*
X113356224Y-126199900D01*
X113499408Y-126343335D01*
X113765376Y-126453774D01*
X114053361Y-126454025D01*
X114319521Y-126344050D01*
X114523335Y-126140592D01*
X114633774Y-125874624D01*
X114634025Y-125586639D01*
X114625043Y-125564900D01*
X120976224Y-125564900D01*
X121119408Y-125708335D01*
X121385376Y-125818774D01*
X121673361Y-125819025D01*
X121939521Y-125709050D01*
X122143335Y-125505592D01*
X122253774Y-125239624D01*
X122254025Y-124951639D01*
X122144050Y-124685479D01*
X121940592Y-124481665D01*
X121674624Y-124371226D01*
X121386639Y-124370975D01*
X121120479Y-124480950D01*
X120976077Y-124625100D01*
X113990272Y-124625100D01*
X113998774Y-124604624D01*
X113999025Y-124316639D01*
X113889050Y-124050479D01*
X113685592Y-123846665D01*
X113419624Y-123736226D01*
X113312293Y-123736132D01*
X113443962Y-123604464D01*
X113721800Y-123604464D01*
X113840295Y-123582167D01*
X113950400Y-123604464D01*
X114228238Y-123604464D01*
X114378102Y-123754327D01*
X114611491Y-123851000D01*
X114731450Y-123851000D01*
X114890200Y-123692250D01*
X114890200Y-123252859D01*
X114897664Y-123216000D01*
X114897664Y-122486000D01*
X115136736Y-122486000D01*
X115136736Y-123216000D01*
X115144200Y-123255667D01*
X115144200Y-123692250D01*
X115302950Y-123851000D01*
X115422909Y-123851000D01*
X115656298Y-123754327D01*
X115806162Y-123604464D01*
X116084000Y-123604464D01*
X116202495Y-123582167D01*
X116312600Y-123604464D01*
X116590438Y-123604464D01*
X116740302Y-123754327D01*
X116973691Y-123851000D01*
X117093650Y-123851000D01*
X117252400Y-123692250D01*
X117252400Y-123252859D01*
X117259864Y-123216000D01*
X117259864Y-122486000D01*
X117498936Y-122486000D01*
X117498936Y-123216000D01*
X117506400Y-123255667D01*
X117506400Y-123692250D01*
X117665150Y-123851000D01*
X117785109Y-123851000D01*
X118018498Y-123754327D01*
X118168362Y-123604464D01*
X118446200Y-123604464D01*
X118564695Y-123582167D01*
X118674800Y-123604464D01*
X118952638Y-123604464D01*
X119102502Y-123754327D01*
X119335891Y-123851000D01*
X119455850Y-123851000D01*
X119614600Y-123692250D01*
X119614600Y-123252859D01*
X119622064Y-123216000D01*
X119622064Y-122486000D01*
X119861136Y-122486000D01*
X119861136Y-123216000D01*
X119868600Y-123255667D01*
X119868600Y-123692250D01*
X120027350Y-123851000D01*
X120147309Y-123851000D01*
X120380698Y-123754327D01*
X120530562Y-123604464D01*
X120808400Y-123604464D01*
X120926895Y-123582167D01*
X121037000Y-123604464D01*
X121595800Y-123604464D01*
X121736990Y-123577897D01*
X121866665Y-123494454D01*
X121953659Y-123367134D01*
X121984264Y-123216000D01*
X121984264Y-122486000D01*
X122415089Y-122486000D01*
X122569089Y-122516632D01*
X122661571Y-122578427D01*
X122723368Y-122670911D01*
X122754000Y-122824911D01*
X122754000Y-141485089D01*
X122723368Y-141639089D01*
X122661571Y-141731573D01*
X122569089Y-141793368D01*
X122371039Y-141832762D01*
X122371038Y-141832762D01*
X122179697Y-141870822D01*
X122179695Y-141870822D01*
X122043519Y-141927229D01*
X122019278Y-141937270D01*
X122015316Y-141938911D01*
X121853105Y-142047298D01*
X121786568Y-142113836D01*
X121727298Y-142173105D01*
X121618911Y-142335316D01*
X121550822Y-142499695D01*
X121550822Y-142499697D01*
X121521880Y-142645199D01*
X121488134Y-142622141D01*
X121337000Y-142591536D01*
X121083000Y-142591536D01*
X120955486Y-142615530D01*
X120837000Y-142591536D01*
X120583000Y-142591536D01*
X120455486Y-142615530D01*
X120337000Y-142591536D01*
X120083000Y-142591536D01*
X119955486Y-142615530D01*
X119837000Y-142591536D01*
X119583000Y-142591536D01*
X119490893Y-142608867D01*
X119450148Y-142404026D01*
X119382060Y-142239647D01*
X119382059Y-142239646D01*
X119219480Y-141996329D01*
X119156575Y-141933425D01*
X119093671Y-141870520D01*
X118850354Y-141707940D01*
X118685975Y-141639852D01*
X118685974Y-141639852D01*
X118398963Y-141582762D01*
X118221038Y-141582762D01*
X118221036Y-141582763D01*
X117934026Y-141639852D01*
X117934025Y-141639852D01*
X117907474Y-141650850D01*
X117808824Y-141691712D01*
X117809025Y-141461639D01*
X117699050Y-141195479D01*
X117495592Y-140991665D01*
X117229624Y-140881226D01*
X117203335Y-140881203D01*
X117660690Y-140423848D01*
X117863361Y-140424025D01*
X118129521Y-140314050D01*
X118333335Y-140110592D01*
X118443774Y-139844624D01*
X118444025Y-139556639D01*
X118334050Y-139290479D01*
X118130592Y-139086665D01*
X117864624Y-138976226D01*
X117576639Y-138975975D01*
X117310479Y-139085950D01*
X117106665Y-139289408D01*
X116996226Y-139555376D01*
X116996048Y-139759413D01*
X115482732Y-141272730D01*
X115482731Y-141272731D01*
X115380869Y-141425177D01*
X115345100Y-141605000D01*
X115345100Y-141680561D01*
X111929438Y-138264900D01*
X116531224Y-138264900D01*
X116674408Y-138408335D01*
X116940376Y-138518774D01*
X117228361Y-138519025D01*
X117494521Y-138409050D01*
X117698335Y-138205592D01*
X117808774Y-137939624D01*
X117809025Y-137651639D01*
X117699050Y-137385479D01*
X117495592Y-137181665D01*
X117229624Y-137071226D01*
X116941639Y-137070975D01*
X116675479Y-137180950D01*
X116531077Y-137325100D01*
X111288776Y-137325100D01*
X111145592Y-137181665D01*
X110879624Y-137071226D01*
X110591639Y-137070975D01*
X110325479Y-137180950D01*
X110121665Y-137384408D01*
X110011226Y-137650376D01*
X110011177Y-137706023D01*
X109956639Y-137705975D01*
X109690479Y-137815950D01*
X109486665Y-138019408D01*
X109376226Y-138285376D01*
X109375975Y-138573361D01*
X109485950Y-138839521D01*
X109689408Y-139043335D01*
X109955376Y-139153774D01*
X110243361Y-139154025D01*
X110509521Y-139044050D01*
X110653923Y-138899900D01*
X111235362Y-138899900D01*
X114740100Y-142404639D01*
X114740100Y-142591536D01*
X114583000Y-142591536D01*
X114455486Y-142615530D01*
X114337000Y-142591536D01*
X114083000Y-142591536D01*
X113955486Y-142615530D01*
X113837000Y-142591536D01*
X113583000Y-142591536D01*
X113455486Y-142615530D01*
X113337000Y-142591536D01*
X113083000Y-142591536D01*
X112955486Y-142615530D01*
X112837000Y-142591536D01*
X112583000Y-142591536D01*
X112455486Y-142615530D01*
X112337000Y-142591536D01*
X112083000Y-142591536D01*
X111955486Y-142615530D01*
X111837000Y-142591536D01*
X111583000Y-142591536D01*
X111455486Y-142615530D01*
X111337000Y-142591536D01*
X111083000Y-142591536D01*
X110955486Y-142615530D01*
X110837000Y-142591536D01*
X110583000Y-142591536D01*
X110455486Y-142615530D01*
X110337000Y-142591536D01*
X110083000Y-142591536D01*
X109955486Y-142615530D01*
X109837000Y-142591536D01*
X109583000Y-142591536D01*
X109455486Y-142615530D01*
X109337000Y-142591536D01*
X109083000Y-142591536D01*
X108955486Y-142615530D01*
X108837000Y-142591536D01*
X108583000Y-142591536D01*
X108455486Y-142615530D01*
X108337000Y-142591536D01*
X108083000Y-142591536D01*
X107955486Y-142615530D01*
X107837000Y-142591536D01*
X107679900Y-142591536D01*
X107679900Y-142525000D01*
X107644131Y-142345177D01*
X107637542Y-142335316D01*
X107542269Y-142192730D01*
X107042271Y-141692733D01*
X107042270Y-141692731D01*
X107013848Y-141664309D01*
X107014025Y-141461639D01*
X106904050Y-141195479D01*
X106700592Y-140991665D01*
X106648617Y-140970083D01*
X106699521Y-140949050D01*
X106903335Y-140745592D01*
X107013774Y-140479624D01*
X107014025Y-140191639D01*
X106904050Y-139925479D01*
X106700592Y-139721665D01*
X106434624Y-139611226D01*
X106146639Y-139610975D01*
X105880479Y-139720950D01*
X105736077Y-139865100D01*
X104385000Y-139865100D01*
X104205177Y-139900869D01*
X104052731Y-140002730D01*
X103417731Y-140637731D01*
X103315869Y-140790177D01*
X103280100Y-140970000D01*
X103280100Y-142045361D01*
X102877731Y-142447731D01*
X102859164Y-142475519D01*
X102801089Y-142335316D01*
X102692702Y-142173105D01*
X102608830Y-142089234D01*
X102566895Y-142047298D01*
X102404684Y-141938911D01*
X102400723Y-141937270D01*
X102376481Y-141927229D01*
X102240305Y-141870822D01*
X102240303Y-141870822D01*
X102048961Y-141832762D01*
X101850911Y-141793368D01*
X101758427Y-141731571D01*
X101696632Y-141639089D01*
X101666000Y-141485089D01*
X101666000Y-136033361D01*
X104295975Y-136033361D01*
X104405950Y-136299521D01*
X104609408Y-136503335D01*
X104875376Y-136613774D01*
X105163361Y-136614025D01*
X105429521Y-136504050D01*
X105573923Y-136359900D01*
X113194728Y-136359900D01*
X113186226Y-136380376D01*
X113185975Y-136668361D01*
X113295950Y-136934521D01*
X113499408Y-137138335D01*
X113765376Y-137248774D01*
X114053361Y-137249025D01*
X114319521Y-137139050D01*
X114463923Y-136994900D01*
X117801224Y-136994900D01*
X117944408Y-137138335D01*
X118210376Y-137248774D01*
X118498361Y-137249025D01*
X118764521Y-137139050D01*
X118968335Y-136935592D01*
X119078774Y-136669624D01*
X119079025Y-136381639D01*
X119070043Y-136359900D01*
X119706224Y-136359900D01*
X119849408Y-136503335D01*
X120115376Y-136613774D01*
X120403361Y-136614025D01*
X120669521Y-136504050D01*
X120873335Y-136300592D01*
X120983774Y-136034624D01*
X120984025Y-135746639D01*
X120874050Y-135480479D01*
X120670592Y-135276665D01*
X120404624Y-135166226D01*
X120116639Y-135165975D01*
X119850479Y-135275950D01*
X119706077Y-135420100D01*
X119705272Y-135420100D01*
X119713774Y-135399624D01*
X119714025Y-135111639D01*
X119604050Y-134845479D01*
X119400592Y-134641665D01*
X119134624Y-134531226D01*
X118846639Y-134530975D01*
X118580479Y-134640950D01*
X118436077Y-134785100D01*
X115098776Y-134785100D01*
X114955592Y-134641665D01*
X114689624Y-134531226D01*
X114401639Y-134530975D01*
X114135479Y-134640950D01*
X113931665Y-134844408D01*
X113821226Y-135110376D01*
X113820975Y-135398361D01*
X113829957Y-135420100D01*
X105573776Y-135420100D01*
X105430592Y-135276665D01*
X105164624Y-135166226D01*
X104876639Y-135165975D01*
X104610479Y-135275950D01*
X104406665Y-135479408D01*
X104296226Y-135745376D01*
X104295975Y-136033361D01*
X101666000Y-136033361D01*
X101666000Y-134128361D01*
X108740975Y-134128361D01*
X108850950Y-134394521D01*
X109054408Y-134598335D01*
X109320376Y-134708774D01*
X109608361Y-134709025D01*
X109874521Y-134599050D01*
X110018923Y-134454900D01*
X117166224Y-134454900D01*
X117309408Y-134598335D01*
X117575376Y-134708774D01*
X117863361Y-134709025D01*
X118129521Y-134599050D01*
X118333335Y-134395592D01*
X118443774Y-134129624D01*
X118444025Y-133841639D01*
X118334050Y-133575479D01*
X118130592Y-133371665D01*
X117864624Y-133261226D01*
X117576639Y-133260975D01*
X117310479Y-133370950D01*
X117166077Y-133515100D01*
X110018776Y-133515100D01*
X109875592Y-133371665D01*
X109609624Y-133261226D01*
X109321639Y-133260975D01*
X109055479Y-133370950D01*
X108851665Y-133574408D01*
X108741226Y-133840376D01*
X108740975Y-134128361D01*
X101666000Y-134128361D01*
X101666000Y-129755112D01*
X106981791Y-129755112D01*
X107113041Y-130072007D01*
X107441462Y-130443077D01*
X107886886Y-130660220D01*
X108083000Y-130536895D01*
X108083000Y-129559000D01*
X108337000Y-129559000D01*
X108337000Y-130536895D01*
X108533114Y-130660220D01*
X108978538Y-130443077D01*
X109306959Y-130072007D01*
X109438209Y-129755112D01*
X116125791Y-129755112D01*
X116257041Y-130072007D01*
X116585462Y-130443077D01*
X117030886Y-130660220D01*
X117227000Y-130536895D01*
X117227000Y-129559000D01*
X117481000Y-129559000D01*
X117481000Y-130536895D01*
X117677114Y-130660220D01*
X118122538Y-130443077D01*
X118450959Y-130072007D01*
X118582209Y-129755112D01*
X118457969Y-129559000D01*
X117481000Y-129559000D01*
X117227000Y-129559000D01*
X116250031Y-129559000D01*
X116125791Y-129755112D01*
X109438209Y-129755112D01*
X109313969Y-129559000D01*
X108337000Y-129559000D01*
X108083000Y-129559000D01*
X107106031Y-129559000D01*
X106981791Y-129755112D01*
X101666000Y-129755112D01*
X101666000Y-128373361D01*
X102985975Y-128373361D01*
X103095950Y-128639521D01*
X103299408Y-128843335D01*
X103565376Y-128953774D01*
X103853361Y-128954025D01*
X104119521Y-128844050D01*
X104223853Y-128739900D01*
X107006224Y-128739900D01*
X107096967Y-128830802D01*
X106981791Y-129108888D01*
X107106031Y-129305000D01*
X108083000Y-129305000D01*
X108083000Y-129285000D01*
X108337000Y-129285000D01*
X108337000Y-129305000D01*
X109313969Y-129305000D01*
X109438209Y-129108888D01*
X116125791Y-129108888D01*
X116250031Y-129305000D01*
X117227000Y-129305000D01*
X117227000Y-128327105D01*
X117481000Y-128327105D01*
X117481000Y-129305000D01*
X118457969Y-129305000D01*
X118582209Y-129108888D01*
X118450959Y-128791993D01*
X118122538Y-128420923D01*
X117677114Y-128203780D01*
X117481000Y-128327105D01*
X117227000Y-128327105D01*
X117030886Y-128203780D01*
X116585462Y-128420923D01*
X116257041Y-128791993D01*
X116125791Y-129108888D01*
X109438209Y-129108888D01*
X109306959Y-128791993D01*
X108978538Y-128420923D01*
X108533114Y-128203780D01*
X108337002Y-128327104D01*
X108337002Y-128162000D01*
X108283994Y-128162000D01*
X108284025Y-128126639D01*
X108174050Y-127860479D01*
X108028527Y-127714702D01*
X108050376Y-127723774D01*
X108338361Y-127724025D01*
X108604521Y-127614050D01*
X108808335Y-127410592D01*
X108918774Y-127144624D01*
X108919025Y-126856639D01*
X108809050Y-126590479D01*
X108605592Y-126386665D01*
X108339624Y-126276226D01*
X108051639Y-126275975D01*
X107785479Y-126385950D01*
X107661112Y-126510100D01*
X104283811Y-126510100D01*
X104160592Y-126386665D01*
X103894624Y-126276226D01*
X103606639Y-126275975D01*
X103340479Y-126385950D01*
X103136665Y-126589408D01*
X103026226Y-126855376D01*
X103025975Y-127143361D01*
X103135950Y-127409521D01*
X103329888Y-127603798D01*
X103300479Y-127615950D01*
X103096665Y-127819408D01*
X102986226Y-128085376D01*
X102985975Y-128373361D01*
X101666000Y-128373361D01*
X101666000Y-65574911D01*
X101696632Y-65420911D01*
X101758427Y-65328429D01*
X101850911Y-65266632D01*
X102004911Y-65236000D01*
X122415089Y-65236000D01*
X122569089Y-65266632D01*
G36*
X98569089Y-65266632D02*
X98661571Y-65328427D01*
X98723368Y-65420911D01*
X98754000Y-65574911D01*
X98754000Y-81985089D01*
X98723368Y-82139089D01*
X98661571Y-82231573D01*
X98569089Y-82293368D01*
X98415089Y-82324000D01*
X82460000Y-82324000D01*
X82415950Y-82332762D01*
X82371040Y-82332762D01*
X82084026Y-82389852D01*
X82084025Y-82389852D01*
X82015937Y-82418055D01*
X81919647Y-82457940D01*
X81919646Y-82457941D01*
X81676329Y-82620520D01*
X81613425Y-82683425D01*
X81550520Y-82746329D01*
X81387940Y-82989646D01*
X81341219Y-83102441D01*
X81319852Y-83154026D01*
X81262762Y-83441039D01*
X81262762Y-83485950D01*
X81254000Y-83530000D01*
X81254000Y-121280000D01*
X81262762Y-121324050D01*
X81262762Y-121368961D01*
X81319852Y-121655974D01*
X81319852Y-121655975D01*
X81387940Y-121820354D01*
X81550520Y-122063671D01*
X81613425Y-122126575D01*
X81676329Y-122189480D01*
X81687936Y-122197236D01*
X81687936Y-123216000D01*
X81714503Y-123357190D01*
X81797946Y-123486865D01*
X81925266Y-123573859D01*
X82076400Y-123604464D01*
X82635200Y-123604464D01*
X82753695Y-123582167D01*
X82863800Y-123604464D01*
X83422600Y-123604464D01*
X83541095Y-123582167D01*
X83651200Y-123604464D01*
X84210000Y-123604464D01*
X84328495Y-123582167D01*
X84438600Y-123604464D01*
X84997400Y-123604464D01*
X85115895Y-123582167D01*
X85226000Y-123604464D01*
X85784800Y-123604464D01*
X85903295Y-123582167D01*
X86013400Y-123604464D01*
X86572200Y-123604464D01*
X86713390Y-123577897D01*
X86843065Y-123494454D01*
X86930059Y-123367134D01*
X86960664Y-123216000D01*
X86960664Y-122486000D01*
X87740600Y-122486000D01*
X87740600Y-122593002D01*
X87899348Y-122593002D01*
X87740600Y-122751750D01*
X87740600Y-123342310D01*
X87837273Y-123575699D01*
X88015902Y-123754327D01*
X88249291Y-123851000D01*
X88369250Y-123851000D01*
X88528000Y-123692250D01*
X88528000Y-122593000D01*
X88508000Y-122593000D01*
X88508000Y-122486000D01*
X88774536Y-122486000D01*
X88774536Y-123216000D01*
X88782000Y-123255667D01*
X88782000Y-123692250D01*
X88915169Y-123825419D01*
X88865479Y-123845950D01*
X88721077Y-123990100D01*
X87923776Y-123990100D01*
X87780592Y-123846665D01*
X87514624Y-123736226D01*
X87226639Y-123735975D01*
X86960479Y-123845950D01*
X86756665Y-124049408D01*
X86646226Y-124315376D01*
X86645975Y-124603361D01*
X86654957Y-124625100D01*
X82843776Y-124625100D01*
X82700592Y-124481665D01*
X82434624Y-124371226D01*
X82146639Y-124370975D01*
X81880479Y-124480950D01*
X81676665Y-124684408D01*
X81566226Y-124950376D01*
X81565975Y-125238361D01*
X81675950Y-125504521D01*
X81879408Y-125708335D01*
X82145376Y-125818774D01*
X82433361Y-125819025D01*
X82699521Y-125709050D01*
X82843923Y-125564900D01*
X87289728Y-125564900D01*
X87281226Y-125585376D01*
X87280975Y-125873361D01*
X87390950Y-126139521D01*
X87594408Y-126343335D01*
X87860376Y-126453774D01*
X88148361Y-126454025D01*
X88414521Y-126344050D01*
X88558923Y-126199900D01*
X89356224Y-126199900D01*
X89499408Y-126343335D01*
X89765376Y-126453774D01*
X90053361Y-126454025D01*
X90319521Y-126344050D01*
X90523335Y-126140592D01*
X90633774Y-125874624D01*
X90634025Y-125586639D01*
X90625043Y-125564900D01*
X96976224Y-125564900D01*
X97119408Y-125708335D01*
X97385376Y-125818774D01*
X97673361Y-125819025D01*
X97939521Y-125709050D01*
X98143335Y-125505592D01*
X98253774Y-125239624D01*
X98254025Y-124951639D01*
X98144050Y-124685479D01*
X97940592Y-124481665D01*
X97674624Y-124371226D01*
X97386639Y-124370975D01*
X97120479Y-124480950D01*
X96976077Y-124625100D01*
X89990272Y-124625100D01*
X89998774Y-124604624D01*
X89999025Y-124316639D01*
X89889050Y-124050479D01*
X89685592Y-123846665D01*
X89419624Y-123736226D01*
X89312293Y-123736132D01*
X89443962Y-123604464D01*
X89721800Y-123604464D01*
X89840295Y-123582167D01*
X89950400Y-123604464D01*
X90228238Y-123604464D01*
X90378102Y-123754327D01*
X90611491Y-123851000D01*
X90731450Y-123851000D01*
X90890200Y-123692250D01*
X90890200Y-123252859D01*
X90897664Y-123216000D01*
X90897664Y-122486000D01*
X91136736Y-122486000D01*
X91136736Y-123216000D01*
X91144200Y-123255667D01*
X91144200Y-123692250D01*
X91302950Y-123851000D01*
X91422909Y-123851000D01*
X91656298Y-123754327D01*
X91806162Y-123604464D01*
X92084000Y-123604464D01*
X92202495Y-123582167D01*
X92312600Y-123604464D01*
X92590438Y-123604464D01*
X92740302Y-123754327D01*
X92973691Y-123851000D01*
X93093650Y-123851000D01*
X93252400Y-123692250D01*
X93252400Y-123252859D01*
X93259864Y-123216000D01*
X93259864Y-122486000D01*
X93498936Y-122486000D01*
X93498936Y-123216000D01*
X93506400Y-123255667D01*
X93506400Y-123692250D01*
X93665150Y-123851000D01*
X93785109Y-123851000D01*
X94018498Y-123754327D01*
X94168362Y-123604464D01*
X94446200Y-123604464D01*
X94564695Y-123582167D01*
X94674800Y-123604464D01*
X94952638Y-123604464D01*
X95102502Y-123754327D01*
X95335891Y-123851000D01*
X95455850Y-123851000D01*
X95614600Y-123692250D01*
X95614600Y-123252859D01*
X95622064Y-123216000D01*
X95622064Y-122486000D01*
X95861136Y-122486000D01*
X95861136Y-123216000D01*
X95868600Y-123255667D01*
X95868600Y-123692250D01*
X96027350Y-123851000D01*
X96147309Y-123851000D01*
X96380698Y-123754327D01*
X96530562Y-123604464D01*
X96808400Y-123604464D01*
X96926895Y-123582167D01*
X97037000Y-123604464D01*
X97595800Y-123604464D01*
X97736990Y-123577897D01*
X97866665Y-123494454D01*
X97953659Y-123367134D01*
X97984264Y-123216000D01*
X97984264Y-122486000D01*
X98415089Y-122486000D01*
X98569089Y-122516632D01*
X98661571Y-122578427D01*
X98723368Y-122670911D01*
X98754000Y-122824911D01*
X98754000Y-141485089D01*
X98723368Y-141639089D01*
X98661571Y-141731573D01*
X98569089Y-141793368D01*
X98371039Y-141832762D01*
X98371038Y-141832762D01*
X98179697Y-141870822D01*
X98179695Y-141870822D01*
X98043519Y-141927229D01*
X98019278Y-141937270D01*
X98015316Y-141938911D01*
X97853105Y-142047298D01*
X97786568Y-142113836D01*
X97727298Y-142173105D01*
X97618911Y-142335316D01*
X97550822Y-142499695D01*
X97550822Y-142499697D01*
X97521880Y-142645199D01*
X97488134Y-142622141D01*
X97337000Y-142591536D01*
X97083000Y-142591536D01*
X96955486Y-142615530D01*
X96837000Y-142591536D01*
X96583000Y-142591536D01*
X96455486Y-142615530D01*
X96337000Y-142591536D01*
X96083000Y-142591536D01*
X95955486Y-142615530D01*
X95837000Y-142591536D01*
X95583000Y-142591536D01*
X95490893Y-142608867D01*
X95450148Y-142404026D01*
X95382060Y-142239647D01*
X95382059Y-142239646D01*
X95219480Y-141996329D01*
X95156575Y-141933425D01*
X95093671Y-141870520D01*
X94850354Y-141707940D01*
X94685975Y-141639852D01*
X94685974Y-141639852D01*
X94398963Y-141582762D01*
X94221038Y-141582762D01*
X94221036Y-141582763D01*
X93934026Y-141639852D01*
X93934025Y-141639852D01*
X93907474Y-141650850D01*
X93808824Y-141691712D01*
X93809025Y-141461639D01*
X93699050Y-141195479D01*
X93495592Y-140991665D01*
X93229624Y-140881226D01*
X93203335Y-140881203D01*
X93660690Y-140423848D01*
X93863361Y-140424025D01*
X94129521Y-140314050D01*
X94333335Y-140110592D01*
X94443774Y-139844624D01*
X94444025Y-139556639D01*
X94334050Y-139290479D01*
X94130592Y-139086665D01*
X93864624Y-138976226D01*
X93576639Y-138975975D01*
X93310479Y-139085950D01*
X93106665Y-139289408D01*
X92996226Y-139555376D01*
X92996048Y-139759413D01*
X91482732Y-141272730D01*
X91482731Y-141272731D01*
X91380869Y-141425177D01*
X91345100Y-141605000D01*
X91345100Y-141680561D01*
X87929438Y-138264900D01*
X92531224Y-138264900D01*
X92674408Y-138408335D01*
X92940376Y-138518774D01*
X93228361Y-138519025D01*
X93494521Y-138409050D01*
X93698335Y-138205592D01*
X93808774Y-137939624D01*
X93809025Y-137651639D01*
X93699050Y-137385479D01*
X93495592Y-137181665D01*
X93229624Y-137071226D01*
X92941639Y-137070975D01*
X92675479Y-137180950D01*
X92531077Y-137325100D01*
X87288776Y-137325100D01*
X87145592Y-137181665D01*
X86879624Y-137071226D01*
X86591639Y-137070975D01*
X86325479Y-137180950D01*
X86121665Y-137384408D01*
X86011226Y-137650376D01*
X86011177Y-137706023D01*
X85956639Y-137705975D01*
X85690479Y-137815950D01*
X85486665Y-138019408D01*
X85376226Y-138285376D01*
X85375975Y-138573361D01*
X85485950Y-138839521D01*
X85689408Y-139043335D01*
X85955376Y-139153774D01*
X86243361Y-139154025D01*
X86509521Y-139044050D01*
X86653923Y-138899900D01*
X87235362Y-138899900D01*
X90740100Y-142404639D01*
X90740100Y-142591536D01*
X90583000Y-142591536D01*
X90455486Y-142615530D01*
X90337000Y-142591536D01*
X90083000Y-142591536D01*
X89955486Y-142615530D01*
X89837000Y-142591536D01*
X89583000Y-142591536D01*
X89455486Y-142615530D01*
X89337000Y-142591536D01*
X89083000Y-142591536D01*
X88955486Y-142615530D01*
X88837000Y-142591536D01*
X88583000Y-142591536D01*
X88455486Y-142615530D01*
X88337000Y-142591536D01*
X88083000Y-142591536D01*
X87955486Y-142615530D01*
X87837000Y-142591536D01*
X87583000Y-142591536D01*
X87455486Y-142615530D01*
X87337000Y-142591536D01*
X87083000Y-142591536D01*
X86955486Y-142615530D01*
X86837000Y-142591536D01*
X86583000Y-142591536D01*
X86455486Y-142615530D01*
X86337000Y-142591536D01*
X86083000Y-142591536D01*
X85955486Y-142615530D01*
X85837000Y-142591536D01*
X85583000Y-142591536D01*
X85455486Y-142615530D01*
X85337000Y-142591536D01*
X85083000Y-142591536D01*
X84955486Y-142615530D01*
X84837000Y-142591536D01*
X84583000Y-142591536D01*
X84455486Y-142615530D01*
X84337000Y-142591536D01*
X84083000Y-142591536D01*
X83955486Y-142615530D01*
X83837000Y-142591536D01*
X83679900Y-142591536D01*
X83679900Y-142525000D01*
X83644131Y-142345177D01*
X83637542Y-142335316D01*
X83542269Y-142192730D01*
X83042271Y-141692733D01*
X83042270Y-141692731D01*
X83013848Y-141664309D01*
X83014025Y-141461639D01*
X82904050Y-141195479D01*
X82700592Y-140991665D01*
X82648617Y-140970083D01*
X82699521Y-140949050D01*
X82903335Y-140745592D01*
X83013774Y-140479624D01*
X83014025Y-140191639D01*
X82904050Y-139925479D01*
X82700592Y-139721665D01*
X82434624Y-139611226D01*
X82146639Y-139610975D01*
X81880479Y-139720950D01*
X81736077Y-139865100D01*
X80385000Y-139865100D01*
X80205177Y-139900869D01*
X80052731Y-140002730D01*
X79417731Y-140637731D01*
X79315869Y-140790177D01*
X79280100Y-140970000D01*
X79280100Y-142045361D01*
X78877731Y-142447731D01*
X78859164Y-142475519D01*
X78801089Y-142335316D01*
X78692702Y-142173105D01*
X78608830Y-142089234D01*
X78566895Y-142047298D01*
X78404684Y-141938911D01*
X78400723Y-141937270D01*
X78376481Y-141927229D01*
X78240305Y-141870822D01*
X78240303Y-141870822D01*
X78048961Y-141832762D01*
X77850911Y-141793368D01*
X77758427Y-141731571D01*
X77696632Y-141639089D01*
X77666000Y-141485089D01*
X77666000Y-136033361D01*
X80295975Y-136033361D01*
X80405950Y-136299521D01*
X80609408Y-136503335D01*
X80875376Y-136613774D01*
X81163361Y-136614025D01*
X81429521Y-136504050D01*
X81573923Y-136359900D01*
X89194728Y-136359900D01*
X89186226Y-136380376D01*
X89185975Y-136668361D01*
X89295950Y-136934521D01*
X89499408Y-137138335D01*
X89765376Y-137248774D01*
X90053361Y-137249025D01*
X90319521Y-137139050D01*
X90463923Y-136994900D01*
X93801224Y-136994900D01*
X93944408Y-137138335D01*
X94210376Y-137248774D01*
X94498361Y-137249025D01*
X94764521Y-137139050D01*
X94968335Y-136935592D01*
X95078774Y-136669624D01*
X95079025Y-136381639D01*
X95070043Y-136359900D01*
X95706224Y-136359900D01*
X95849408Y-136503335D01*
X96115376Y-136613774D01*
X96403361Y-136614025D01*
X96669521Y-136504050D01*
X96873335Y-136300592D01*
X96983774Y-136034624D01*
X96984025Y-135746639D01*
X96874050Y-135480479D01*
X96670592Y-135276665D01*
X96404624Y-135166226D01*
X96116639Y-135165975D01*
X95850479Y-135275950D01*
X95706077Y-135420100D01*
X95705272Y-135420100D01*
X95713774Y-135399624D01*
X95714025Y-135111639D01*
X95604050Y-134845479D01*
X95400592Y-134641665D01*
X95134624Y-134531226D01*
X94846639Y-134530975D01*
X94580479Y-134640950D01*
X94436077Y-134785100D01*
X91098776Y-134785100D01*
X90955592Y-134641665D01*
X90689624Y-134531226D01*
X90401639Y-134530975D01*
X90135479Y-134640950D01*
X89931665Y-134844408D01*
X89821226Y-135110376D01*
X89820975Y-135398361D01*
X89829957Y-135420100D01*
X81573776Y-135420100D01*
X81430592Y-135276665D01*
X81164624Y-135166226D01*
X80876639Y-135165975D01*
X80610479Y-135275950D01*
X80406665Y-135479408D01*
X80296226Y-135745376D01*
X80295975Y-136033361D01*
X77666000Y-136033361D01*
X77666000Y-134128361D01*
X84740975Y-134128361D01*
X84850950Y-134394521D01*
X85054408Y-134598335D01*
X85320376Y-134708774D01*
X85608361Y-134709025D01*
X85874521Y-134599050D01*
X86018923Y-134454900D01*
X93166224Y-134454900D01*
X93309408Y-134598335D01*
X93575376Y-134708774D01*
X93863361Y-134709025D01*
X94129521Y-134599050D01*
X94333335Y-134395592D01*
X94443774Y-134129624D01*
X94444025Y-133841639D01*
X94334050Y-133575479D01*
X94130592Y-133371665D01*
X93864624Y-133261226D01*
X93576639Y-133260975D01*
X93310479Y-133370950D01*
X93166077Y-133515100D01*
X86018776Y-133515100D01*
X85875592Y-133371665D01*
X85609624Y-133261226D01*
X85321639Y-133260975D01*
X85055479Y-133370950D01*
X84851665Y-133574408D01*
X84741226Y-133840376D01*
X84740975Y-134128361D01*
X77666000Y-134128361D01*
X77666000Y-129755112D01*
X82981791Y-129755112D01*
X83113041Y-130072007D01*
X83441462Y-130443077D01*
X83886886Y-130660220D01*
X84083000Y-130536895D01*
X84083000Y-129559000D01*
X84337000Y-129559000D01*
X84337000Y-130536895D01*
X84533114Y-130660220D01*
X84978538Y-130443077D01*
X85306959Y-130072007D01*
X85438209Y-129755112D01*
X92125791Y-129755112D01*
X92257041Y-130072007D01*
X92585462Y-130443077D01*
X93030886Y-130660220D01*
X93227000Y-130536895D01*
X93227000Y-129559000D01*
X93481000Y-129559000D01*
X93481000Y-130536895D01*
X93677114Y-130660220D01*
X94122538Y-130443077D01*
X94450959Y-130072007D01*
X94582209Y-129755112D01*
X94457969Y-129559000D01*
X93481000Y-129559000D01*
X93227000Y-129559000D01*
X92250031Y-129559000D01*
X92125791Y-129755112D01*
X85438209Y-129755112D01*
X85313969Y-129559000D01*
X84337000Y-129559000D01*
X84083000Y-129559000D01*
X83106031Y-129559000D01*
X82981791Y-129755112D01*
X77666000Y-129755112D01*
X77666000Y-128373361D01*
X78985975Y-128373361D01*
X79095950Y-128639521D01*
X79299408Y-128843335D01*
X79565376Y-128953774D01*
X79853361Y-128954025D01*
X80119521Y-128844050D01*
X80223853Y-128739900D01*
X83006224Y-128739900D01*
X83096967Y-128830802D01*
X82981791Y-129108888D01*
X83106031Y-129305000D01*
X84083000Y-129305000D01*
X84083000Y-129285000D01*
X84337000Y-129285000D01*
X84337000Y-129305000D01*
X85313969Y-129305000D01*
X85438209Y-129108888D01*
X92125791Y-129108888D01*
X92250031Y-129305000D01*
X93227000Y-129305000D01*
X93227000Y-128327105D01*
X93481000Y-128327105D01*
X93481000Y-129305000D01*
X94457969Y-129305000D01*
X94582209Y-129108888D01*
X94450959Y-128791993D01*
X94122538Y-128420923D01*
X93677114Y-128203780D01*
X93481000Y-128327105D01*
X93227000Y-128327105D01*
X93030886Y-128203780D01*
X92585462Y-128420923D01*
X92257041Y-128791993D01*
X92125791Y-129108888D01*
X85438209Y-129108888D01*
X85306959Y-128791993D01*
X84978538Y-128420923D01*
X84533114Y-128203780D01*
X84337002Y-128327104D01*
X84337002Y-128162000D01*
X84283994Y-128162000D01*
X84284025Y-128126639D01*
X84174050Y-127860479D01*
X84028527Y-127714702D01*
X84050376Y-127723774D01*
X84338361Y-127724025D01*
X84604521Y-127614050D01*
X84808335Y-127410592D01*
X84918774Y-127144624D01*
X84919025Y-126856639D01*
X84809050Y-126590479D01*
X84605592Y-126386665D01*
X84339624Y-126276226D01*
X84051639Y-126275975D01*
X83785479Y-126385950D01*
X83661112Y-126510100D01*
X80283811Y-126510100D01*
X80160592Y-126386665D01*
X79894624Y-126276226D01*
X79606639Y-126275975D01*
X79340479Y-126385950D01*
X79136665Y-126589408D01*
X79026226Y-126855376D01*
X79025975Y-127143361D01*
X79135950Y-127409521D01*
X79329888Y-127603798D01*
X79300479Y-127615950D01*
X79096665Y-127819408D01*
X78986226Y-128085376D01*
X78985975Y-128373361D01*
X77666000Y-128373361D01*
X77666000Y-65574911D01*
X77696632Y-65420911D01*
X77758427Y-65328429D01*
X77850911Y-65266632D01*
X78004911Y-65236000D01*
X98415089Y-65236000D01*
X98569089Y-65266632D01*
X98569089Y-65266632D01*
G37*
X98569089Y-65266632D02*
X98661571Y-65328427D01*
X98723368Y-65420911D01*
X98754000Y-65574911D01*
X98754000Y-81985089D01*
X98723368Y-82139089D01*
X98661571Y-82231573D01*
X98569089Y-82293368D01*
X98415089Y-82324000D01*
X82460000Y-82324000D01*
X82415950Y-82332762D01*
X82371040Y-82332762D01*
X82084026Y-82389852D01*
X82084025Y-82389852D01*
X82015937Y-82418055D01*
X81919647Y-82457940D01*
X81919646Y-82457941D01*
X81676329Y-82620520D01*
X81613425Y-82683425D01*
X81550520Y-82746329D01*
X81387940Y-82989646D01*
X81341219Y-83102441D01*
X81319852Y-83154026D01*
X81262762Y-83441039D01*
X81262762Y-83485950D01*
X81254000Y-83530000D01*
X81254000Y-121280000D01*
X81262762Y-121324050D01*
X81262762Y-121368961D01*
X81319852Y-121655974D01*
X81319852Y-121655975D01*
X81387940Y-121820354D01*
X81550520Y-122063671D01*
X81613425Y-122126575D01*
X81676329Y-122189480D01*
X81687936Y-122197236D01*
X81687936Y-123216000D01*
X81714503Y-123357190D01*
X81797946Y-123486865D01*
X81925266Y-123573859D01*
X82076400Y-123604464D01*
X82635200Y-123604464D01*
X82753695Y-123582167D01*
X82863800Y-123604464D01*
X83422600Y-123604464D01*
X83541095Y-123582167D01*
X83651200Y-123604464D01*
X84210000Y-123604464D01*
X84328495Y-123582167D01*
X84438600Y-123604464D01*
X84997400Y-123604464D01*
X85115895Y-123582167D01*
X85226000Y-123604464D01*
X85784800Y-123604464D01*
X85903295Y-123582167D01*
X86013400Y-123604464D01*
X86572200Y-123604464D01*
X86713390Y-123577897D01*
X86843065Y-123494454D01*
X86930059Y-123367134D01*
X86960664Y-123216000D01*
X86960664Y-122486000D01*
X87740600Y-122486000D01*
X87740600Y-122593002D01*
X87899348Y-122593002D01*
X87740600Y-122751750D01*
X87740600Y-123342310D01*
X87837273Y-123575699D01*
X88015902Y-123754327D01*
X88249291Y-123851000D01*
X88369250Y-123851000D01*
X88528000Y-123692250D01*
X88528000Y-122593000D01*
X88508000Y-122593000D01*
X88508000Y-122486000D01*
X88774536Y-122486000D01*
X88774536Y-123216000D01*
X88782000Y-123255667D01*
X88782000Y-123692250D01*
X88915169Y-123825419D01*
X88865479Y-123845950D01*
X88721077Y-123990100D01*
X87923776Y-123990100D01*
X87780592Y-123846665D01*
X87514624Y-123736226D01*
X87226639Y-123735975D01*
X86960479Y-123845950D01*
X86756665Y-124049408D01*
X86646226Y-124315376D01*
X86645975Y-124603361D01*
X86654957Y-124625100D01*
X82843776Y-124625100D01*
X82700592Y-124481665D01*
X82434624Y-124371226D01*
X82146639Y-124370975D01*
X81880479Y-124480950D01*
X81676665Y-124684408D01*
X81566226Y-124950376D01*
X81565975Y-125238361D01*
X81675950Y-125504521D01*
X81879408Y-125708335D01*
X82145376Y-125818774D01*
X82433361Y-125819025D01*
X82699521Y-125709050D01*
X82843923Y-125564900D01*
X87289728Y-125564900D01*
X87281226Y-125585376D01*
X87280975Y-125873361D01*
X87390950Y-126139521D01*
X87594408Y-126343335D01*
X87860376Y-126453774D01*
X88148361Y-126454025D01*
X88414521Y-126344050D01*
X88558923Y-126199900D01*
X89356224Y-126199900D01*
X89499408Y-126343335D01*
X89765376Y-126453774D01*
X90053361Y-126454025D01*
X90319521Y-126344050D01*
X90523335Y-126140592D01*
X90633774Y-125874624D01*
X90634025Y-125586639D01*
X90625043Y-125564900D01*
X96976224Y-125564900D01*
X97119408Y-125708335D01*
X97385376Y-125818774D01*
X97673361Y-125819025D01*
X97939521Y-125709050D01*
X98143335Y-125505592D01*
X98253774Y-125239624D01*
X98254025Y-124951639D01*
X98144050Y-124685479D01*
X97940592Y-124481665D01*
X97674624Y-124371226D01*
X97386639Y-124370975D01*
X97120479Y-124480950D01*
X96976077Y-124625100D01*
X89990272Y-124625100D01*
X89998774Y-124604624D01*
X89999025Y-124316639D01*
X89889050Y-124050479D01*
X89685592Y-123846665D01*
X89419624Y-123736226D01*
X89312293Y-123736132D01*
X89443962Y-123604464D01*
X89721800Y-123604464D01*
X89840295Y-123582167D01*
X89950400Y-123604464D01*
X90228238Y-123604464D01*
X90378102Y-123754327D01*
X90611491Y-123851000D01*
X90731450Y-123851000D01*
X90890200Y-123692250D01*
X90890200Y-123252859D01*
X90897664Y-123216000D01*
X90897664Y-122486000D01*
X91136736Y-122486000D01*
X91136736Y-123216000D01*
X91144200Y-123255667D01*
X91144200Y-123692250D01*
X91302950Y-123851000D01*
X91422909Y-123851000D01*
X91656298Y-123754327D01*
X91806162Y-123604464D01*
X92084000Y-123604464D01*
X92202495Y-123582167D01*
X92312600Y-123604464D01*
X92590438Y-123604464D01*
X92740302Y-123754327D01*
X92973691Y-123851000D01*
X93093650Y-123851000D01*
X93252400Y-123692250D01*
X93252400Y-123252859D01*
X93259864Y-123216000D01*
X93259864Y-122486000D01*
X93498936Y-122486000D01*
X93498936Y-123216000D01*
X93506400Y-123255667D01*
X93506400Y-123692250D01*
X93665150Y-123851000D01*
X93785109Y-123851000D01*
X94018498Y-123754327D01*
X94168362Y-123604464D01*
X94446200Y-123604464D01*
X94564695Y-123582167D01*
X94674800Y-123604464D01*
X94952638Y-123604464D01*
X95102502Y-123754327D01*
X95335891Y-123851000D01*
X95455850Y-123851000D01*
X95614600Y-123692250D01*
X95614600Y-123252859D01*
X95622064Y-123216000D01*
X95622064Y-122486000D01*
X95861136Y-122486000D01*
X95861136Y-123216000D01*
X95868600Y-123255667D01*
X95868600Y-123692250D01*
X96027350Y-123851000D01*
X96147309Y-123851000D01*
X96380698Y-123754327D01*
X96530562Y-123604464D01*
X96808400Y-123604464D01*
X96926895Y-123582167D01*
X97037000Y-123604464D01*
X97595800Y-123604464D01*
X97736990Y-123577897D01*
X97866665Y-123494454D01*
X97953659Y-123367134D01*
X97984264Y-123216000D01*
X97984264Y-122486000D01*
X98415089Y-122486000D01*
X98569089Y-122516632D01*
X98661571Y-122578427D01*
X98723368Y-122670911D01*
X98754000Y-122824911D01*
X98754000Y-141485089D01*
X98723368Y-141639089D01*
X98661571Y-141731573D01*
X98569089Y-141793368D01*
X98371039Y-141832762D01*
X98371038Y-141832762D01*
X98179697Y-141870822D01*
X98179695Y-141870822D01*
X98043519Y-141927229D01*
X98019278Y-141937270D01*
X98015316Y-141938911D01*
X97853105Y-142047298D01*
X97786568Y-142113836D01*
X97727298Y-142173105D01*
X97618911Y-142335316D01*
X97550822Y-142499695D01*
X97550822Y-142499697D01*
X97521880Y-142645199D01*
X97488134Y-142622141D01*
X97337000Y-142591536D01*
X97083000Y-142591536D01*
X96955486Y-142615530D01*
X96837000Y-142591536D01*
X96583000Y-142591536D01*
X96455486Y-142615530D01*
X96337000Y-142591536D01*
X96083000Y-142591536D01*
X95955486Y-142615530D01*
X95837000Y-142591536D01*
X95583000Y-142591536D01*
X95490893Y-142608867D01*
X95450148Y-142404026D01*
X95382060Y-142239647D01*
X95382059Y-142239646D01*
X95219480Y-141996329D01*
X95156575Y-141933425D01*
X95093671Y-141870520D01*
X94850354Y-141707940D01*
X94685975Y-141639852D01*
X94685974Y-141639852D01*
X94398963Y-141582762D01*
X94221038Y-141582762D01*
X94221036Y-141582763D01*
X93934026Y-141639852D01*
X93934025Y-141639852D01*
X93907474Y-141650850D01*
X93808824Y-141691712D01*
X93809025Y-141461639D01*
X93699050Y-141195479D01*
X93495592Y-140991665D01*
X93229624Y-140881226D01*
X93203335Y-140881203D01*
X93660690Y-140423848D01*
X93863361Y-140424025D01*
X94129521Y-140314050D01*
X94333335Y-140110592D01*
X94443774Y-139844624D01*
X94444025Y-139556639D01*
X94334050Y-139290479D01*
X94130592Y-139086665D01*
X93864624Y-138976226D01*
X93576639Y-138975975D01*
X93310479Y-139085950D01*
X93106665Y-139289408D01*
X92996226Y-139555376D01*
X92996048Y-139759413D01*
X91482732Y-141272730D01*
X91482731Y-141272731D01*
X91380869Y-141425177D01*
X91345100Y-141605000D01*
X91345100Y-141680561D01*
X87929438Y-138264900D01*
X92531224Y-138264900D01*
X92674408Y-138408335D01*
X92940376Y-138518774D01*
X93228361Y-138519025D01*
X93494521Y-138409050D01*
X93698335Y-138205592D01*
X93808774Y-137939624D01*
X93809025Y-137651639D01*
X93699050Y-137385479D01*
X93495592Y-137181665D01*
X93229624Y-137071226D01*
X92941639Y-137070975D01*
X92675479Y-137180950D01*
X92531077Y-137325100D01*
X87288776Y-137325100D01*
X87145592Y-137181665D01*
X86879624Y-137071226D01*
X86591639Y-137070975D01*
X86325479Y-137180950D01*
X86121665Y-137384408D01*
X86011226Y-137650376D01*
X86011177Y-137706023D01*
X85956639Y-137705975D01*
X85690479Y-137815950D01*
X85486665Y-138019408D01*
X85376226Y-138285376D01*
X85375975Y-138573361D01*
X85485950Y-138839521D01*
X85689408Y-139043335D01*
X85955376Y-139153774D01*
X86243361Y-139154025D01*
X86509521Y-139044050D01*
X86653923Y-138899900D01*
X87235362Y-138899900D01*
X90740100Y-142404639D01*
X90740100Y-142591536D01*
X90583000Y-142591536D01*
X90455486Y-142615530D01*
X90337000Y-142591536D01*
X90083000Y-142591536D01*
X89955486Y-142615530D01*
X89837000Y-142591536D01*
X89583000Y-142591536D01*
X89455486Y-142615530D01*
X89337000Y-142591536D01*
X89083000Y-142591536D01*
X88955486Y-142615530D01*
X88837000Y-142591536D01*
X88583000Y-142591536D01*
X88455486Y-142615530D01*
X88337000Y-142591536D01*
X88083000Y-142591536D01*
X87955486Y-142615530D01*
X87837000Y-142591536D01*
X87583000Y-142591536D01*
X87455486Y-142615530D01*
X87337000Y-142591536D01*
X87083000Y-142591536D01*
X86955486Y-142615530D01*
X86837000Y-142591536D01*
X86583000Y-142591536D01*
X86455486Y-142615530D01*
X86337000Y-142591536D01*
X86083000Y-142591536D01*
X85955486Y-142615530D01*
X85837000Y-142591536D01*
X85583000Y-142591536D01*
X85455486Y-142615530D01*
X85337000Y-142591536D01*
X85083000Y-142591536D01*
X84955486Y-142615530D01*
X84837000Y-142591536D01*
X84583000Y-142591536D01*
X84455486Y-142615530D01*
X84337000Y-142591536D01*
X84083000Y-142591536D01*
X83955486Y-142615530D01*
X83837000Y-142591536D01*
X83679900Y-142591536D01*
X83679900Y-142525000D01*
X83644131Y-142345177D01*
X83637542Y-142335316D01*
X83542269Y-142192730D01*
X83042271Y-141692733D01*
X83042270Y-141692731D01*
X83013848Y-141664309D01*
X83014025Y-141461639D01*
X82904050Y-141195479D01*
X82700592Y-140991665D01*
X82648617Y-140970083D01*
X82699521Y-140949050D01*
X82903335Y-140745592D01*
X83013774Y-140479624D01*
X83014025Y-140191639D01*
X82904050Y-139925479D01*
X82700592Y-139721665D01*
X82434624Y-139611226D01*
X82146639Y-139610975D01*
X81880479Y-139720950D01*
X81736077Y-139865100D01*
X80385000Y-139865100D01*
X80205177Y-139900869D01*
X80052731Y-140002730D01*
X79417731Y-140637731D01*
X79315869Y-140790177D01*
X79280100Y-140970000D01*
X79280100Y-142045361D01*
X78877731Y-142447731D01*
X78859164Y-142475519D01*
X78801089Y-142335316D01*
X78692702Y-142173105D01*
X78608830Y-142089234D01*
X78566895Y-142047298D01*
X78404684Y-141938911D01*
X78400723Y-141937270D01*
X78376481Y-141927229D01*
X78240305Y-141870822D01*
X78240303Y-141870822D01*
X78048961Y-141832762D01*
X77850911Y-141793368D01*
X77758427Y-141731571D01*
X77696632Y-141639089D01*
X77666000Y-141485089D01*
X77666000Y-136033361D01*
X80295975Y-136033361D01*
X80405950Y-136299521D01*
X80609408Y-136503335D01*
X80875376Y-136613774D01*
X81163361Y-136614025D01*
X81429521Y-136504050D01*
X81573923Y-136359900D01*
X89194728Y-136359900D01*
X89186226Y-136380376D01*
X89185975Y-136668361D01*
X89295950Y-136934521D01*
X89499408Y-137138335D01*
X89765376Y-137248774D01*
X90053361Y-137249025D01*
X90319521Y-137139050D01*
X90463923Y-136994900D01*
X93801224Y-136994900D01*
X93944408Y-137138335D01*
X94210376Y-137248774D01*
X94498361Y-137249025D01*
X94764521Y-137139050D01*
X94968335Y-136935592D01*
X95078774Y-136669624D01*
X95079025Y-136381639D01*
X95070043Y-136359900D01*
X95706224Y-136359900D01*
X95849408Y-136503335D01*
X96115376Y-136613774D01*
X96403361Y-136614025D01*
X96669521Y-136504050D01*
X96873335Y-136300592D01*
X96983774Y-136034624D01*
X96984025Y-135746639D01*
X96874050Y-135480479D01*
X96670592Y-135276665D01*
X96404624Y-135166226D01*
X96116639Y-135165975D01*
X95850479Y-135275950D01*
X95706077Y-135420100D01*
X95705272Y-135420100D01*
X95713774Y-135399624D01*
X95714025Y-135111639D01*
X95604050Y-134845479D01*
X95400592Y-134641665D01*
X95134624Y-134531226D01*
X94846639Y-134530975D01*
X94580479Y-134640950D01*
X94436077Y-134785100D01*
X91098776Y-134785100D01*
X90955592Y-134641665D01*
X90689624Y-134531226D01*
X90401639Y-134530975D01*
X90135479Y-134640950D01*
X89931665Y-134844408D01*
X89821226Y-135110376D01*
X89820975Y-135398361D01*
X89829957Y-135420100D01*
X81573776Y-135420100D01*
X81430592Y-135276665D01*
X81164624Y-135166226D01*
X80876639Y-135165975D01*
X80610479Y-135275950D01*
X80406665Y-135479408D01*
X80296226Y-135745376D01*
X80295975Y-136033361D01*
X77666000Y-136033361D01*
X77666000Y-134128361D01*
X84740975Y-134128361D01*
X84850950Y-134394521D01*
X85054408Y-134598335D01*
X85320376Y-134708774D01*
X85608361Y-134709025D01*
X85874521Y-134599050D01*
X86018923Y-134454900D01*
X93166224Y-134454900D01*
X93309408Y-134598335D01*
X93575376Y-134708774D01*
X93863361Y-134709025D01*
X94129521Y-134599050D01*
X94333335Y-134395592D01*
X94443774Y-134129624D01*
X94444025Y-133841639D01*
X94334050Y-133575479D01*
X94130592Y-133371665D01*
X93864624Y-133261226D01*
X93576639Y-133260975D01*
X93310479Y-133370950D01*
X93166077Y-133515100D01*
X86018776Y-133515100D01*
X85875592Y-133371665D01*
X85609624Y-133261226D01*
X85321639Y-133260975D01*
X85055479Y-133370950D01*
X84851665Y-133574408D01*
X84741226Y-133840376D01*
X84740975Y-134128361D01*
X77666000Y-134128361D01*
X77666000Y-129755112D01*
X82981791Y-129755112D01*
X83113041Y-130072007D01*
X83441462Y-130443077D01*
X83886886Y-130660220D01*
X84083000Y-130536895D01*
X84083000Y-129559000D01*
X84337000Y-129559000D01*
X84337000Y-130536895D01*
X84533114Y-130660220D01*
X84978538Y-130443077D01*
X85306959Y-130072007D01*
X85438209Y-129755112D01*
X92125791Y-129755112D01*
X92257041Y-130072007D01*
X92585462Y-130443077D01*
X93030886Y-130660220D01*
X93227000Y-130536895D01*
X93227000Y-129559000D01*
X93481000Y-129559000D01*
X93481000Y-130536895D01*
X93677114Y-130660220D01*
X94122538Y-130443077D01*
X94450959Y-130072007D01*
X94582209Y-129755112D01*
X94457969Y-129559000D01*
X93481000Y-129559000D01*
X93227000Y-129559000D01*
X92250031Y-129559000D01*
X92125791Y-129755112D01*
X85438209Y-129755112D01*
X85313969Y-129559000D01*
X84337000Y-129559000D01*
X84083000Y-129559000D01*
X83106031Y-129559000D01*
X82981791Y-129755112D01*
X77666000Y-129755112D01*
X77666000Y-128373361D01*
X78985975Y-128373361D01*
X79095950Y-128639521D01*
X79299408Y-128843335D01*
X79565376Y-128953774D01*
X79853361Y-128954025D01*
X80119521Y-128844050D01*
X80223853Y-128739900D01*
X83006224Y-128739900D01*
X83096967Y-128830802D01*
X82981791Y-129108888D01*
X83106031Y-129305000D01*
X84083000Y-129305000D01*
X84083000Y-129285000D01*
X84337000Y-129285000D01*
X84337000Y-129305000D01*
X85313969Y-129305000D01*
X85438209Y-129108888D01*
X92125791Y-129108888D01*
X92250031Y-129305000D01*
X93227000Y-129305000D01*
X93227000Y-128327105D01*
X93481000Y-128327105D01*
X93481000Y-129305000D01*
X94457969Y-129305000D01*
X94582209Y-129108888D01*
X94450959Y-128791993D01*
X94122538Y-128420923D01*
X93677114Y-128203780D01*
X93481000Y-128327105D01*
X93227000Y-128327105D01*
X93030886Y-128203780D01*
X92585462Y-128420923D01*
X92257041Y-128791993D01*
X92125791Y-129108888D01*
X85438209Y-129108888D01*
X85306959Y-128791993D01*
X84978538Y-128420923D01*
X84533114Y-128203780D01*
X84337002Y-128327104D01*
X84337002Y-128162000D01*
X84283994Y-128162000D01*
X84284025Y-128126639D01*
X84174050Y-127860479D01*
X84028527Y-127714702D01*
X84050376Y-127723774D01*
X84338361Y-127724025D01*
X84604521Y-127614050D01*
X84808335Y-127410592D01*
X84918774Y-127144624D01*
X84919025Y-126856639D01*
X84809050Y-126590479D01*
X84605592Y-126386665D01*
X84339624Y-126276226D01*
X84051639Y-126275975D01*
X83785479Y-126385950D01*
X83661112Y-126510100D01*
X80283811Y-126510100D01*
X80160592Y-126386665D01*
X79894624Y-126276226D01*
X79606639Y-126275975D01*
X79340479Y-126385950D01*
X79136665Y-126589408D01*
X79026226Y-126855376D01*
X79025975Y-127143361D01*
X79135950Y-127409521D01*
X79329888Y-127603798D01*
X79300479Y-127615950D01*
X79096665Y-127819408D01*
X78986226Y-128085376D01*
X78985975Y-128373361D01*
X77666000Y-128373361D01*
X77666000Y-65574911D01*
X77696632Y-65420911D01*
X77758427Y-65328429D01*
X77850911Y-65266632D01*
X78004911Y-65236000D01*
X98415089Y-65236000D01*
X98569089Y-65266632D01*
M02*
