<?xml version="1.0" encoding="UTF-8" standalone="no"?>
<!-- Created with Inkscape (http://www.inkscape.org/) -->

<svg
   xmlns:dc="http://purl.org/dc/elements/1.1/"
   xmlns:cc="http://creativecommons.org/ns#"
   xmlns:rdf="http://www.w3.org/1999/02/22-rdf-syntax-ns#"
   xmlns:svg="http://www.w3.org/2000/svg"
   xmlns="http://www.w3.org/2000/svg"
   xmlns:sodipodi="http://sodipodi.sourceforge.net/DTD/sodipodi-0.dtd"
   xmlns:inkscape="http://www.inkscape.org/namespaces/inkscape"
   width="765"
   height="990"
   id="svg7199"
   version="1.1"
   inkscape:version="0.48.2 r9819"
   sodipodi:docname="crosssections.svg">
  <defs
     id="defs7201" />
  <sodipodi:namedview
     id="base"
     pagecolor="#ffffff"
     bordercolor="#666666"
     borderopacity="1.0"
     inkscape:pageopacity="0.0"
     inkscape:pageshadow="2"
     inkscape:zoom="1.6235768"
     inkscape:cx="111.08939"
     inkscape:cy="893.28403"
     inkscape:document-units="in"
     inkscape:current-layer="layer1"
     showgrid="true"
     units="in"
     inkscape:window-width="1404"
     inkscape:window-height="890"
     inkscape:window-x="437"
     inkscape:window-y="114"
     inkscape:window-maximized="0">
    <inkscape:grid
       type="xygrid"
       id="grid7209"
       empspacing="5"
       visible="true"
       enabled="true"
       snapvisiblegridlinesonly="true"
       dotted="false"
       units="in"
       spacingx="0.0625in"
       spacingy="0.0625in" />
  </sodipodi:namedview>
  <metadata
     id="metadata7204">
    <rdf:RDF>
      <cc:Work
         rdf:about="">
        <dc:format>image/svg+xml</dc:format>
        <dc:type
           rdf:resource="http://purl.org/dc/dcmitype/StillImage" />
        <dc:title></dc:title>
      </cc:Work>
    </rdf:RDF>
  </metadata>
  <g
     inkscape:label="Layer 1"
     inkscape:groupmode="layer"
     id="layer1"
     transform="translate(0,-62.362)">
    <path
       style="fill:none;stroke:#000000;stroke-width:1px;stroke-linecap:butt;stroke-linejoin:miter;stroke-opacity:1"
       d="m 28.125,112.5 c -5.625,0 -11.25,-5.625 -11.25,-11.25 l 0,-11.25 303.75,0 0,11.25 c 0,5.625 -5.625,11.25 -11.25,11.25 z"
       id="path7211"
       inkscape:connector-curvature="0"
       transform="translate(0,62.362)"
       sodipodi:nodetypes="ccccccc" />
    <path
       style="fill:none;stroke:#000000;stroke-width:1px;stroke-linecap:butt;stroke-linejoin:miter;stroke-opacity:1"
       d="m 16.875,90 0,-33.75 C 16.875,50.625 22.5,45 28.125,45 l 281.25,0 c 5.625,0 11.25,5.625 11.25,11.25 l 0,33.75 z"
       id="path7213"
       inkscape:connector-curvature="0"
       transform="translate(0,62.362)"
       sodipodi:nodetypes="ccccccc" />
    <path
       style="fill:#ffffff;fill-opacity:1;stroke:#000000;stroke-width:1px;stroke-linecap:butt;stroke-linejoin:miter;stroke-opacity:1"
       d="m 101.25,95.625 0,5.625 67.5,0 0,-5.625 z"
       id="path7215"
       inkscape:connector-curvature="0"
       transform="translate(0,62.362)"
       sodipodi:nodetypes="ccccc" />
    <path
       style="fill:none;stroke:#000000;stroke-width:1px;stroke-linecap:butt;stroke-linejoin:miter;stroke-opacity:1"
       d="m 67.5,90 0,5.625 112.5,0 0,-5.625 z"
       id="path7217"
       inkscape:connector-curvature="0"
       transform="translate(0,62.362)"
       sodipodi:nodetypes="ccccc" />
    <path
       style="fill:none;stroke:#000000;stroke-width:1px;stroke-linecap:butt;stroke-linejoin:miter;stroke-opacity:1"
       d="m 191.25,90 0,5.625 118.125,0 0,-5.625 z"
       id="path7987"
       inkscape:connector-curvature="0"
       transform="translate(0,62.362)"
       sodipodi:nodetypes="ccccc" />
    <path
       style="fill:none;stroke:#000000;stroke-width:1px;stroke-linecap:butt;stroke-linejoin:miter;stroke-opacity:1"
       d="m 225,95.625 0,5.625 73.125,0 0,-5.625 z"
       id="path7989"
       inkscape:connector-curvature="0"
       transform="translate(0,62.362)"
       sodipodi:nodetypes="ccccc" />
    <path
       style="fill:none;stroke:#000000;stroke-width:1px;stroke-linecap:butt;stroke-linejoin:miter;stroke-opacity:1"
       d="m 191.25,90 0,-33.75 118.125,0 0,33.75 z"
       id="path7991"
       inkscape:connector-curvature="0"
       transform="translate(0,62.362)"
       sodipodi:nodetypes="ccccc" />
    <path
       style="fill:none;stroke:#000000;stroke-width:1px;stroke-linecap:butt;stroke-linejoin:miter;stroke-opacity:1"
       d="m 67.5,90 0,-11.25 22.5,0 0,-33.75 90,0 0,45 z"
       id="path7993"
       inkscape:connector-curvature="0"
       transform="translate(0,62.362)"
       sodipodi:nodetypes="ccccccc" />
    <path
       style="fill:none;stroke:#000000;stroke-width:1px;stroke-linecap:butt;stroke-linejoin:miter;stroke-opacity:1"
       d="m 108.07087,152.362 53.1496,0 3.54331,-17.71654 0,-1.77165 c 0,0 -3.49812,-21.2498 -3.54331,-21.25984 l -53.1496,0 -3.54331,21.25984 0,1.77165 z"
       id="path7997"
       inkscape:connector-curvature="0"
       sodipodi:nodetypes="ccccccccc" />
    <path
       style="fill:none;stroke:#000000;stroke-width:1px;stroke-linecap:butt;stroke-linejoin:miter;stroke-opacity:1"
       d="m 125.7874,111.61397 0,-12.401576 17.71653,0 0,12.401576 z"
       id="path7999"
       inkscape:connector-curvature="0" />
    <path
       style="fill:none;stroke:#000000;stroke-width:1px;stroke-linecap:butt;stroke-linejoin:miter;stroke-opacity:1"
       d="m 102.75591,72.283465 0,-1.771654 63.77952,0 0,1.771654 z"
       id="path8001"
       inkscape:connector-curvature="0"
       transform="translate(0,62.362)" />
    <path
       style="fill:none;stroke:#000000;stroke-width:1px;stroke-linecap:butt;stroke-linejoin:miter;stroke-opacity:1"
       d="m 100.98425,43.937008 7.08662,-24.80315 53.1496,0 7.08662,24.80315 z"
       id="path8003"
       inkscape:connector-curvature="0"
       transform="translate(0,62.362)"
       sodipodi:nodetypes="ccccc" />
    <path
       style="fill:none;stroke:#000000;stroke-width:1px;stroke-linecap:butt;stroke-linejoin:miter;stroke-opacity:1"
       d="m 230.625,152.362 0,-28.125 61.875,0 0,28.34646 z"
       id="path8005"
       inkscape:connector-curvature="0"
       sodipodi:nodetypes="ccccc" />
    <path
       style="fill:none;stroke:#000000;stroke-width:1px;stroke-linecap:butt;stroke-linejoin:miter;stroke-opacity:1"
       d="m 45,118.612 0,45 -5.625,0 0,11.25 22.5,0 0,-11.25 -5.625,0 0,-45 5.625,0 0,-11.25 -22.5,0 0,11.25 z"
       id="path14347"
       inkscape:connector-curvature="0"
       sodipodi:nodetypes="ccccccccccccc" />
    <path
       style="fill:none;stroke:#000000;stroke-width:1px;stroke-linecap:butt;stroke-linejoin:miter;stroke-opacity:1"
       d="M 73.125,90 78.75,84.375 90,84.375 95.625,90 90,90 l 0,16.875 5.625,0 0,5.625 -22.5,0 0,-5.625 5.625,0 0,-16.875 z"
       id="path14351"
       inkscape:connector-curvature="0"
       transform="translate(0,62.362)"
       sodipodi:nodetypes="ccccccccccccc" />
    <path
       style="fill:none;stroke:#000000;stroke-width:1px;stroke-linecap:butt;stroke-linejoin:miter;stroke-opacity:1"
       d="m 219.375,90 -5.625,-5.625 -11.25,0 -5.625,5.625 5.625,0 0,16.875 -5.625,0 0,5.625 22.5,0 0,-5.625 -5.625,0 0,-16.875 5.625,0 z"
       id="path14355"
       inkscape:connector-curvature="0"
       transform="translate(0,62.362)" />
    <text
       xml:space="preserve"
       style="font-size:12px;font-style:normal;font-variant:normal;font-weight:normal;font-stretch:normal;text-align:start;line-height:125%;letter-spacing:0px;word-spacing:0px;writing-mode:lr-tb;text-anchor:start;fill:#000000;fill-opacity:1;stroke:none;font-family:Bank Gothic;-inkscape-font-specification:Bank Gothic"
       x="22.5"
       y="186.112"
       id="text14359"
       sodipodi:linespacing="125%"><tspan
         sodipodi:role="line"
         id="tspan14361"
         x="22.5"
         y="186.112"
         style="font-size:10px;font-style:normal;font-variant:normal;font-weight:normal;font-stretch:normal;font-family:Sans;-inkscape-font-specification:Sans">#4 5/8&quot;</tspan></text>
    <text
       xml:space="preserve"
       style="font-size:10px;font-style:normal;font-variant:normal;font-weight:normal;font-stretch:normal;text-align:start;line-height:125%;letter-spacing:0px;word-spacing:0px;writing-mode:lr;text-anchor:start;fill:#000000;fill-opacity:1;stroke:none;font-family:Sans;-inkscape-font-specification:Sans"
       x="77.781746"
       y="117.18428"
       id="text14363"
       sodipodi:linespacing="125%"
       transform="translate(0,62.362)"><tspan
         sodipodi:role="line"
         id="tspan14365"
         x="77.781746"
         y="117.18428" /></text>
    <text
       xml:space="preserve"
       style="font-size:10px;font-style:normal;font-variant:normal;font-weight:normal;font-stretch:normal;text-align:start;line-height:125%;letter-spacing:0px;word-spacing:0px;writing-mode:lr-tb;text-anchor:start;fill:#000000;fill-opacity:1;stroke:none;font-family:Sans;-inkscape-font-specification:Sans"
       x="67.5"
       y="186.112"
       id="text14367"
       sodipodi:linespacing="125%"><tspan
         sodipodi:role="line"
         id="tspan14369"
         x="67.5"
         y="186.112">#4 1/4&quot;</tspan></text>
  </g>
</svg>
