999
dxflib 3.3.4.0
  0
SECTION
  2
HEADER
  9
$ACADVER
  1
AC1015
  9
$HANDSEED
  5
FFFF
  9
$DIMADEC
 70
0
  9
$DIMASZ
 40
2.5
  9
$DIMAUNIT
 70
0
  9
$DIMAZIN
 70
2
  9
$DIMDEC
 70
4
  9
$DIMEXE
 40
1.25
  9
$DIMEXO
 40
0.625
  9
$DIMGAP
 40
0.625
  9
$DIMLUNIT
 70
2
  9
$DIMTSZ
 40
0.0
  9
$DIMTXT
 40
2.5
  9
$DIMZIN
 70
8
  9
$DWGCODEPAGE
  3
ANSI_1252
  9
$INSUNITS
 70
4
  9
$LTSCALE
 40
1.0
  0
ENDSEC
  0
SECTION
  2
TABLES
  0
TABLE
  2
VPORT
  5
8
100
AcDbSymbolTable
 70
1
  0
VPORT
  5
30
100
AcDbSymbolTableRecord
100
AcDbViewportTableRecord
  2
*Active
 70
0
 10
0.0
 20
0.0
 11
1.0
 21
1.0
 12
286.3055555555554861
 22
148.5
 13
0.0
 23
0.0
 14
10.0
 24
10.0
 15
10.0
 25
10.0
 16
0.0
 26
0.0
 36
1.0
 17
0.0
 27
0.0
 37
0.0
 40
297.0
 41
1.92798353909465
 42
50.0
 43
0.0
 44
0.0
 50
0.0
 51
0.0
 71
0
 72
100
 73
1
 74
3
 75
1
 76
1
 77
0
 78
0
281
0
 65
1
110
0.0
120
0.0
130
0.0
111
1.0
121
0.0
131
0.0
112
0.0
122
1.0
132
0.0
 79
0
146
0.0
  0
ENDTAB
  0
TABLE
  2
LTYPE
  5
5
100
AcDbSymbolTable
 70
21
  0
LTYPE
  5
16
100
AcDbSymbolTableRecord
100
AcDbLinetypeTableRecord
  2
CONTINUOUS
 70
0
  3
Solid line
 72
65
 73
0
 40
0.0
  0
LTYPE
  5
31
100
AcDbSymbolTableRecord
100
AcDbLinetypeTableRecord
  2
CENTER2
 70
0
  3
Center (.5x) ___ _ ___ _ ___ _ ___ _ ___ _ ___
 72
65
 73
4
 40
28.5749999999999993
 49
19.0500000000000007
 74
0
 49
-3.1749999999999998
 74
0
 49
3.1749999999999998
 74
0
 49
-3.1749999999999998
 74
0
  0
LTYPE
  5
32
100
AcDbSymbolTableRecord
100
AcDbLinetypeTableRecord
  2
DIVIDEX2
 70
0
  3
Divide (2x) ________  .  .  ________  .  .  _
 72
65
 73
6
 40
63.5
 49
25.3999999999999986
 74
0
 49
-12.6999999999999993
 74
0
 49
0.0
 74
0
 49
-12.6999999999999993
 74
0
 49
0.0
 74
0
 49
-12.6999999999999993
 74
0
  0
LTYPE
  5
33
100
AcDbSymbolTableRecord
100
AcDbLinetypeTableRecord
  2
DOT2
 70
0
  3
Dot (.5x) .....................................
 72
65
 73
2
 40
3.1749999999999998
 49
0.0
 74
0
 49
-3.1749999999999998
 74
0
  0
LTYPE
  5
34
100
AcDbSymbolTableRecord
100
AcDbLinetypeTableRecord
  2
DASHDOT2
 70
0
  3
Dash dot (.5x) _._._._._._._._._._._._._._._.
 72
65
 73
4
 40
12.6999999999999993
 49
6.3499999999999996
 74
0
 49
-3.1749999999999998
 74
0
 49
0.0
 74
0
 49
-3.1749999999999998
 74
0
  0
LTYPE
  5
35
100
AcDbSymbolTableRecord
100
AcDbLinetypeTableRecord
  2
DIVIDE
 70
0
  3
Divide ____ . . ____ . . ____ . . ____ . . ____
 72
65
 73
6
 40
31.75
 49
12.6999999999999993
 74
0
 49
-6.3499999999999996
 74
0
 49
0.0
 74
0
 49
-6.3499999999999996
 74
0
 49
0.0
 74
0
 49
-6.3499999999999996
 74
0
  0
LTYPE
  5
36
100
AcDbSymbolTableRecord
100
AcDbLinetypeTableRecord
  2
DASHDOT
 70
0
  3
Dash dot __ . __ . __ . __ . __ . __ . __ . __
 72
65
 73
4
 40
25.3999999999999986
 49
12.6999999999999993
 74
0
 49
-6.3499999999999996
 74
0
 49
0.0
 74
0
 49
-6.3499999999999996
 74
0
  0
LTYPE
  5
37
100
AcDbSymbolTableRecord
100
AcDbLinetypeTableRecord
  2
BORDER
 70
0
  3
Border __ __ . __ __ . __ __ . __ __ . __ __ .
 72
65
 73
6
 40
44.4500000000000028
 49
12.6999999999999993
 74
0
 49
-6.3499999999999996
 74
0
 49
12.6999999999999993
 74
0
 49
-6.3499999999999996
 74
0
 49
0.0
 74
0
 49
-6.3499999999999996
 74
0
  0
LTYPE
  5
38
100
AcDbSymbolTableRecord
100
AcDbLinetypeTableRecord
  2
DASHDOTX2
 70
0
  3
Dash dot (2x) ____  .  ____  .  ____  .  ___
 72
65
 73
4
 40
50.7999999999999972
 49
25.3999999999999986
 74
0
 49
-12.6999999999999993
 74
0
 49
0.0
 74
0
 49
-12.6999999999999993
 74
0
  0
LTYPE
  5
39
100
AcDbSymbolTableRecord
100
AcDbLinetypeTableRecord
  2
CENTERX2
 70
0
  3
Center (2x) ________  __  ________  __  _____
 72
65
 73
4
 40
101.5999999999999943
 49
63.5
 74
0
 49
-12.6999999999999993
 74
0
 49
12.6999999999999993
 74
0
 49
-12.6999999999999993
 74
0
  0
LTYPE
  5
3A
100
AcDbSymbolTableRecord
100
AcDbLinetypeTableRecord
  2
BORDER2
 70
0
  3
Border (.5x) __.__.__.__.__.__.__.__.__.__.__.
 72
65
 73
6
 40
22.2250000000000014
 49
6.3499999999999996
 74
0
 49
-3.1749999999999998
 74
0
 49
6.3499999999999996
 74
0
 49
-3.1749999999999998
 74
0
 49
0.0
 74
0
 49
-3.1749999999999998
 74
0
  0
LTYPE
  5
3B
100
AcDbSymbolTableRecord
100
AcDbLinetypeTableRecord
  2
BORDERX2
 70
0
  3
Border (2x) ____  ____  .  ____  ____  .  ___
 72
65
 73
6
 40
88.9000000000000057
 49
25.3999999999999986
 74
0
 49
-12.6999999999999993
 74
0
 49
25.3999999999999986
 74
0
 49
-12.6999999999999993
 74
0
 49
0.0
 74
0
 49
-12.6999999999999993
 74
0
  0
LTYPE
  5
14
100
AcDbSymbolTableRecord
100
AcDbLinetypeTableRecord
  2
BYBLOCK
 70
0
  3

 72
65
 73
0
 40
0.0
  0
LTYPE
  5
15
100
AcDbSymbolTableRecord
100
AcDbLinetypeTableRecord
  2
BYLAYER
 70
0
  3

 72
65
 73
0
 40
0.0
  0
LTYPE
  5
3C
100
AcDbSymbolTableRecord
100
AcDbLinetypeTableRecord
  2
DASHED2
 70
0
  3
Dashed (.5x) _ _ _ _ _ _ _ _ _ _ _ _ _ _ _ _ _
 72
65
 73
2
 40
9.5250000000000004
 49
6.3499999999999996
 74
0
 49
-3.1749999999999998
 74
0
  0
LTYPE
  5
3D
100
AcDbSymbolTableRecord
100
AcDbLinetypeTableRecord
  2
CENTER
 70
0
  3
Center ____ _ ____ _ ____ _ ____ _ ____ _ ____
 72
65
 73
4
 40
50.7999999999999972
 49
31.75
 74
0
 49
-6.3499999999999996
 74
0
 49
6.3499999999999996
 74
0
 49
-6.3499999999999996
 74
0
  0
LTYPE
  5
3E
100
AcDbSymbolTableRecord
100
AcDbLinetypeTableRecord
  2
DIVIDE2
 70
0
  3
Divide (.5x) __..__..__..__..__..__..__..__.._
 72
65
 73
6
 40
15.875
 49
6.3499999999999996
 74
0
 49
-3.1749999999999998
 74
0
 49
0.0
 74
0
 49
-3.1749999999999998
 74
0
 49
0.0
 74
0
 49
-3.1749999999999998
 74
0
  0
LTYPE
  5
3F
100
AcDbSymbolTableRecord
100
AcDbLinetypeTableRecord
  2
DASHED
 70
0
  3
Dashed __ __ __ __ __ __ __ __ __ __ __ __ __ _
 72
65
 73
2
 40
19.0500000000000007
 49
12.6999999999999993
 74
0
 49
-6.3499999999999996
 74
0
  0
LTYPE
  5
40
100
AcDbSymbolTableRecord
100
AcDbLinetypeTableRecord
  2
DOTX2
 70
0
  3
Dot (2x) .  .  .  .  .  .  .  .  .  .  .  .  .
 72
65
 73
2
 40
12.6999999999999993
 49
0.0
 74
0
 49
-12.6999999999999993
 74
0
  0
LTYPE
  5
41
100
AcDbSymbolTableRecord
100
AcDbLinetypeTableRecord
  2
DASHEDX2
 70
0
  3
Dashed (2x) ____  ____  ____  ____  ____  ___
 72
65
 73
2
 40
38.1000000000000014
 49
25.3999999999999986
 74
0
 49
-12.6999999999999993
 74
0
  0
LTYPE
  5
42
100
AcDbSymbolTableRecord
100
AcDbLinetypeTableRecord
  2
DOT
 70
0
  3
Dot . . . . . . . . . . . . . . . . . . . . . .
 72
65
 73
2
 40
6.3499999999999996
 49
0.0
 74
0
 49
-6.3499999999999996
 74
0
  0
ENDTAB
  0
TABLE
  2
LAYER
  5
2
100
AcDbSymbolTable
 70
1
  0
LAYER
  5
10
100
AcDbSymbolTableRecord
100
AcDbLayerTableRecord
  2
0
 70
0
 62
7
420
0
  6
CONTINUOUS
370
25
390
F
  0
ENDTAB
  0
TABLE
  2
STYLE
  5
3
100
AcDbSymbolTable
 70
5
  0
STYLE
  5
43
100
AcDbSymbolTableRecord
100
AcDbTextStyleTableRecord
  2
Standard
 70
0
 40
0.0
 41
1.0
 50
0.0
 71
0
 42
2.5
  3

  4

1001
ACAD
1000
txt
1071
0
  0
STYLE
  5
44
100
AcDbSymbolTableRecord
100
AcDbTextStyleTableRecord
  2
textstyle0
 70
0
 40
0.0
 41
1.0
 50
0.0
 71
0
 42
20.0
  3

  4

1001
ACAD
1000
Arial
1071
0
  0
STYLE
  5
45
100
AcDbSymbolTableRecord
100
AcDbTextStyleTableRecord
  2
textstyle1
 70
0
 40
0.0
 41
1.0
 50
0.0
 71
0
 42
20.0
  3

  4

1001
ACAD
1000
Arial
1071
0
  0
STYLE
  5
46
100
AcDbSymbolTableRecord
100
AcDbTextStyleTableRecord
  2
textstyle2
 70
0
 40
0.0
 41
1.0
 50
0.0
 71
0
 42
20.0
  3

  4

1001
ACAD
1000
Arial
1071
0
  0
STYLE
  5
47
100
AcDbSymbolTableRecord
100
AcDbTextStyleTableRecord
  2
textstyle3
 70
0
 40
0.0
 41
1.0
 50
0.0
 71
0
 42
20.0
  3

  4

1001
ACAD
1000
Arial
1071
0
  0
ENDTAB
  0
TABLE
  2
VIEW
  5
6
100
AcDbSymbolTable
 70
0
  0
ENDTAB
  0
TABLE
  2
UCS
  5
7
100
AcDbSymbolTable
 70
0
  0
ENDTAB
  0
TABLE
  2
APPID
  5
9
100
AcDbSymbolTable
 70
1
  0
APPID
  5
12
100
AcDbSymbolTableRecord
100
AcDbRegAppTableRecord
  2
ACAD
 70
0
  0
APPID
  5
48
100
AcDbSymbolTableRecord
100
AcDbRegAppTableRecord
  2
QCAD
 70
0
  0
ENDTAB
  0
TABLE
  2
DIMSTYLE
  5
A
100
AcDbSymbolTable
 70
1
100
AcDbDimStyleTable
 71
0
  0
DIMSTYLE
105
27
100
AcDbSymbolTableRecord
100
AcDbDimStyleTableRecord
  2
Standard
 41
2.5
 42
0.625
 43
3.75
 44
1.25
 70
0
 73
0
 74
0
 77
1
 78
8
140
2.5
141
2.5
143
0.03937007874016
147
0.625
171
3
172
1
271
2
272
2
274
3
278
44
283
0
284
8
340
43
  0
ENDTAB
  0
TABLE
  2
BLOCK_RECORD
  5
1
100
AcDbSymbolTable
 70
1
  0
BLOCK_RECORD
  5
1F
100
AcDbSymbolTableRecord
100
AcDbBlockTableRecord
  2
*Model_Space
340
22
  0
BLOCK_RECORD
  5
1B
100
AcDbSymbolTableRecord
100
AcDbBlockTableRecord
  2
*Paper_Space
340
1E
  0
BLOCK_RECORD
  5
23
100
AcDbSymbolTableRecord
100
AcDbBlockTableRecord
  2
*Paper_Space0
340
26
  0
ENDTAB
  0
ENDSEC
  0
SECTION
  2
BLOCKS
  0
BLOCK
  5
20
100
AcDbEntity
  8
0
100
AcDbBlockBegin
  2
*Model_Space
 70
0
 10
0.0
 20
0.0
 30
0.0
  3
*Model_Space
  1

  0
ENDBLK
  5
21
100
AcDbEntity
  8
0
100
AcDbBlockEnd
  0
BLOCK
  5
1C
100
AcDbEntity
 67
1
  8
0
100
AcDbBlockBegin
  2
*Paper_Space
 70
0
 10
0.0
 20
0.0
 30
0.0
  3
*Paper_Space
  1

  0
ENDBLK
  5
1D
100
AcDbEntity
 67
1
  8
0
100
AcDbBlockEnd
  0
BLOCK
  5
24
100
AcDbEntity
  8
0
100
AcDbBlockBegin
  2
*Paper_Space0
 70
0
 10
0.0
 20
0.0
 30
0.0
  3
*Paper_Space0
  1

  0
ENDBLK
  5
25
100
AcDbEntity
  8
0
100
AcDbBlockEnd
  0
ENDSEC
  0
SECTION
  2
ENTITIES
  0
LINE
  5
49
100
AcDbEntity
100
AcDbLine
  8
0
 62
256
370
-1
  6
BYLAYER
 10
0.0
 20
0.0
 30
0.0
 11
10.0
 21
0.0
 31
0.0
  0
LINE
  5
4A
100
AcDbEntity
100
AcDbLine
  8
0
 62
256
370
-1
  6
BYLAYER
 10
10.0
 20
0.0
 30
0.0
 11
10.0
 21
440.0
 31
0.0
  0
LINE
  5
4B
100
AcDbEntity
100
AcDbLine
  8
0
 62
256
370
-1
  6
BYLAYER
 10
10.0
 20
440.0
 30
0.0
 11
0.0
 21
440.0
 31
0.0
  0
LINE
  5
4C
100
AcDbEntity
100
AcDbLine
  8
0
 62
256
370
-1
  6
BYLAYER
 10
0.0
 20
440.0
 30
0.0
 11
0.0
 21
0.0
 31
0.0
  0
LINE
  5
4D
100
AcDbEntity
100
AcDbLine
  8
0
 62
256
370
-1
  6
BYLAYER
 10
190.0
 20
0.0
 30
0.0
 11
200.0
 21
0.0
 31
0.0
  0
LINE
  5
4E
100
AcDbEntity
100
AcDbLine
  8
0
 62
256
370
-1
  6
BYLAYER
 10
200.0
 20
0.0
 30
0.0
 11
200.0
 21
440.0
 31
0.0
  0
LINE
  5
4F
100
AcDbEntity
100
AcDbLine
  8
0
 62
256
370
-1
  6
BYLAYER
 10
200.0
 20
440.0
 30
0.0
 11
190.0
 21
440.0
 31
0.0
  0
LINE
  5
50
100
AcDbEntity
100
AcDbLine
  8
0
 62
256
370
-1
  6
BYLAYER
 10
190.0
 20
440.0
 30
0.0
 11
190.0
 21
0.0
 31
0.0
  0
LINE
  5
51
100
AcDbEntity
100
AcDbLine
  8
0
 62
256
370
-1
  6
BYLAYER
 10
35.0
 20
44.0
 30
0.0
 11
165.0
 21
44.0
 31
0.0
  0
LINE
  5
52
100
AcDbEntity
100
AcDbLine
  8
0
 62
256
370
-1
  6
BYLAYER
 10
165.0
 20
44.0
 30
0.0
 11
165.0
 21
76.0
 31
0.0
  0
LINE
  5
53
100
AcDbEntity
100
AcDbLine
  8
0
 62
256
370
-1
  6
BYLAYER
 10
165.0
 20
76.0
 30
0.0
 11
35.0
 21
76.0
 31
0.0
  0
LINE
  5
54
100
AcDbEntity
100
AcDbLine
  8
0
 62
256
370
-1
  6
BYLAYER
 10
35.0
 20
76.0
 30
0.0
 11
35.0
 21
44.0
 31
0.0
  0
LINE
  5
55
100
AcDbEntity
100
AcDbLine
  8
0
 62
256
370
-1
  6
BYLAYER
 10
10.0
 20
20.0
 30
0.0
 11
190.0
 21
20.0
 31
0.0
  0
LINE
  5
56
100
AcDbEntity
100
AcDbLine
  8
0
 62
256
370
-1
  6
BYLAYER
 10
190.0
 20
20.0
 30
0.0
 11
190.0
 21
30.0
 31
0.0
  0
LINE
  5
57
100
AcDbEntity
100
AcDbLine
  8
0
 62
256
370
-1
  6
BYLAYER
 10
190.0
 20
25.0
 30
0.0
 11
10.0
 21
25.0
 31
0.0
  0
LINE
  5
58
100
AcDbEntity
100
AcDbLine
  8
0
 62
256
370
-1
  6
BYLAYER
 10
10.0
 20
95.0
 30
0.0
 11
190.0
 21
95.0
 31
0.0
  0
LINE
  5
59
100
AcDbEntity
100
AcDbLine
  8
0
 62
256
370
-1
  6
BYLAYER
 10
190.0
 20
95.0
 30
0.0
 11
190.0
 21
105.0
 31
0.0
  0
LINE
  5
5A
100
AcDbEntity
100
AcDbLine
  8
0
 62
256
370
-1
  6
BYLAYER
 10
190.0
 20
100.0
 30
0.0
 11
10.0
 21
100.0
 31
0.0
  0
LINE
  5
5B
100
AcDbEntity
100
AcDbLine
  8
0
 62
256
370
-1
  6
BYLAYER
 10
10.0000000000000568
 20
420.0000000000000568
 30
0.0
 11
190.0
 21
420.0
 31
0.0
  0
LINE
  5
5C
100
AcDbEntity
100
AcDbLine
  8
0
 62
256
370
-1
  6
BYLAYER
 10
190.0
 20
420.0
 30
0.0
 11
190.0
 21
410.0
 31
0.0
  0
LINE
  5
5D
100
AcDbEntity
100
AcDbLine
  8
0
 62
256
370
-1
  6
BYLAYER
 10
190.0
 20
415.0
 30
0.0
 11
10.0
 21
415.0
 31
0.0
  0
LINE
  5
5E
100
AcDbEntity
100
AcDbLine
  8
0
 62
256
370
-1
  6
BYLAYER
 10
40.0
 20
415.0
 30
0.0
 11
40.0
 21
100.0
 31
0.0
  0
LINE
  5
5F
100
AcDbEntity
100
AcDbLine
  8
0
 62
256
370
-1
  6
BYLAYER
 10
45.0
 20
415.0
 30
0.0
 11
45.0
 21
99.9999999999999432
 31
0.0
  0
LINE
  5
60
100
AcDbEntity
100
AcDbLine
  8
0
 62
256
370
-1
  6
BYLAYER
 10
65.0
 20
415.0
 30
0.0
 11
65.0
 21
100.0
 31
0.0
  0
LINE
  5
61
100
AcDbEntity
100
AcDbLine
  8
0
 62
256
370
-1
  6
BYLAYER
 10
70.0
 20
415.0
 30
0.0
 11
70.0
 21
100.0000000000000568
 31
0.0
  0
LINE
  5
62
100
AcDbEntity
100
AcDbLine
  8
0
 62
256
370
-1
  6
BYLAYER
 10
190.0000000000000284
 20
130.0
 30
0.0
 11
70.0000000000000284
 21
130.0
 31
0.0
  0
LINE
  5
63
100
AcDbEntity
100
AcDbLine
  8
0
 62
256
370
-1
  6
BYLAYER
 10
190.0000000000000284
 20
135.0
 30
0.0
 11
70.0000000000000284
 21
135.0
 31
0.0
  0
LINE
  5
64
100
AcDbEntity
100
AcDbLine
  8
0
 62
256
370
-1
  6
BYLAYER
 10
190.0000000000000284
 20
155.0
 30
0.0
 11
70.0000000000000284
 21
155.0
 31
0.0
  0
LINE
  5
65
100
AcDbEntity
100
AcDbLine
  8
0
 62
256
370
-1
  6
BYLAYER
 10
190.0
 20
160.0
 30
0.0
 11
70.0
 21
160.0
 31
0.0
  0
LINE
  5
66
100
AcDbEntity
100
AcDbLine
  8
0
 62
256
370
-1
  6
BYLAYER
 10
40.0
 20
160.0
 30
0.0
 11
10.0
 21
160.0
 31
0.0
  0
LINE
  5
67
100
AcDbEntity
100
AcDbLine
  8
0
 62
256
370
-1
  6
BYLAYER
 10
40.0
 20
155.0
 30
0.0
 11
10.0
 21
155.0
 31
0.0
  0
LINE
  5
68
100
AcDbEntity
100
AcDbLine
  8
0
 62
256
370
-1
  6
BYLAYER
 10
65.0
 20
160.0
 30
0.0
 11
45.0
 21
160.0
 31
0.0
  0
LINE
  5
69
100
AcDbEntity
100
AcDbLine
  8
0
 62
256
370
-1
  6
BYLAYER
 10
65.0
 20
155.0
 30
0.0
 11
45.0
 21
155.0
 31
0.0
  0
LINE
  5
6A
100
AcDbEntity
100
AcDbLine
  8
0
 62
256
370
-1
  6
BYLAYER
 10
65.0
 20
135.0
 30
0.0
 11
45.0
 21
135.0
 31
0.0
  0
LINE
  5
6B
100
AcDbEntity
100
AcDbLine
  8
0
 62
256
370
-1
  6
BYLAYER
 10
65.0
 20
130.0
 30
0.0
 11
45.0000000000000071
 21
130.0
 31
0.0
  0
LINE
  5
6C
100
AcDbEntity
100
AcDbLine
  8
0
 62
256
370
-1
  6
BYLAYER
 10
40.0
 20
130.0
 30
0.0
 11
10.0
 21
130.0
 31
0.0
  0
LINE
  5
6D
100
AcDbEntity
100
AcDbLine
  8
0
 62
256
370
-1
  6
BYLAYER
 10
40.0
 20
135.0
 30
0.0
 11
10.0
 21
135.0
 31
0.0
  0
LINE
  5
6E
100
AcDbEntity
100
AcDbLine
  8
0
 62
256
370
-1
  6
BYLAYER
 10
490.0
 20
160.0
 30
0.0
 11
370.0
 21
160.0
 31
0.0
  0
LINE
  5
6F
100
AcDbEntity
100
AcDbLine
  8
0
 62
256
370
-1
  6
BYLAYER
 10
340.0
 20
160.0
 30
0.0
 11
310.0
 21
160.0
 31
0.0
  0
LINE
  5
70
100
AcDbEntity
100
AcDbLine
  8
0
 62
256
370
-1
  6
BYLAYER
 10
340.0
 20
155.0
 30
0.0
 11
310.0
 21
155.0
 31
0.0
  0
LINE
  5
71
100
AcDbEntity
100
AcDbLine
  8
0
 62
256
370
-1
  6
BYLAYER
 10
365.0
 20
160.0
 30
0.0
 11
345.0
 21
160.0
 31
0.0
  0
LINE
  5
72
100
AcDbEntity
100
AcDbLine
  8
0
 62
256
370
-1
  6
BYLAYER
 10
365.0
 20
155.0
 30
0.0
 11
345.0
 21
155.0
 31
0.0
  0
LINE
  5
73
100
AcDbEntity
100
AcDbLine
  8
0
 62
256
370
-1
  6
BYLAYER
 10
365.0
 20
135.0
 30
0.0
 11
345.0
 21
135.0
 31
0.0
  0
LINE
  5
74
100
AcDbEntity
100
AcDbLine
  8
0
 62
256
370
-1
  6
BYLAYER
 10
365.0
 20
130.0
 30
0.0
 11
345.0
 21
130.0
 31
0.0
  0
LINE
  5
75
100
AcDbEntity
100
AcDbLine
  8
0
 62
256
370
-1
  6
BYLAYER
 10
300.0
 20
0.0
 30
0.0
 11
310.0
 21
0.0
 31
0.0
  0
LINE
  5
76
100
AcDbEntity
100
AcDbLine
  8
0
 62
256
370
-1
  6
BYLAYER
 10
310.0
 20
0.0
 30
0.0
 11
310.0
 21
440.0
 31
0.0
  0
LINE
  5
77
100
AcDbEntity
100
AcDbLine
  8
0
 62
256
370
-1
  6
BYLAYER
 10
310.0
 20
440.0
 30
0.0
 11
300.0
 21
440.0
 31
0.0
  0
LINE
  5
78
100
AcDbEntity
100
AcDbLine
  8
0
 62
256
370
-1
  6
BYLAYER
 10
300.0
 20
440.0
 30
0.0
 11
300.0
 21
0.0
 31
0.0
  0
LINE
  5
79
100
AcDbEntity
100
AcDbLine
  8
0
 62
256
370
-1
  6
BYLAYER
 10
340.0
 20
130.0
 30
0.0
 11
310.0
 21
130.0
 31
0.0
  0
LINE
  5
7A
100
AcDbEntity
100
AcDbLine
  8
0
 62
256
370
-1
  6
BYLAYER
 10
490.0
 20
0.0
 30
0.0
 11
500.0
 21
0.0
 31
0.0
  0
LINE
  5
7B
100
AcDbEntity
100
AcDbLine
  8
0
 62
256
370
-1
  6
BYLAYER
 10
500.0
 20
0.0
 30
0.0
 11
500.0
 21
440.0
 31
0.0
  0
LINE
  5
7C
100
AcDbEntity
100
AcDbLine
  8
0
 62
256
370
-1
  6
BYLAYER
 10
340.0
 20
135.0
 30
0.0
 11
310.0
 21
135.0
 31
0.0
  0
LINE
  5
7D
100
AcDbEntity
100
AcDbLine
  8
0
 62
256
370
-1
  6
BYLAYER
 10
500.0
 20
440.0
 30
0.0
 11
490.0
 21
440.0
 31
0.0
  0
LINE
  5
7E
100
AcDbEntity
100
AcDbLine
  8
0
 62
256
370
-1
  6
BYLAYER
 10
490.0
 20
440.0
 30
0.0
 11
490.0
 21
0.0
 31
0.0
  0
LINE
  5
7F
100
AcDbEntity
100
AcDbLine
  8
0
 62
256
370
-1
  6
BYLAYER
 10
310.0
 20
20.0
 30
0.0
 11
490.0
 21
20.0
 31
0.0
  0
LINE
  5
80
100
AcDbEntity
100
AcDbLine
  8
0
 62
256
370
-1
  6
BYLAYER
 10
490.0
 20
20.0
 30
0.0
 11
490.0
 21
30.0
 31
0.0
  0
LINE
  5
81
100
AcDbEntity
100
AcDbLine
  8
0
 62
256
370
-1
  6
BYLAYER
 10
490.0
 20
25.0
 30
0.0
 11
310.0
 21
25.0
 31
0.0
  0
LINE
  5
82
100
AcDbEntity
100
AcDbLine
  8
0
 62
256
370
-1
  6
BYLAYER
 10
310.0
 20
95.0
 30
0.0
 11
490.0
 21
95.0
 31
0.0
  0
LINE
  5
83
100
AcDbEntity
100
AcDbLine
  8
0
 62
256
370
-1
  6
BYLAYER
 10
490.0
 20
95.0
 30
0.0
 11
490.0
 21
105.0
 31
0.0
  0
LINE
  5
84
100
AcDbEntity
100
AcDbLine
  8
0
 62
256
370
-1
  6
BYLAYER
 10
490.0
 20
100.0
 30
0.0
 11
310.0
 21
100.0
 31
0.0
  0
LINE
  5
85
100
AcDbEntity
100
AcDbLine
  8
0
 62
256
370
-1
  6
BYLAYER
 10
310.0000000000000568
 20
420.0000000000000568
 30
0.0
 11
490.0
 21
420.0
 31
0.0
  0
LINE
  5
86
100
AcDbEntity
100
AcDbLine
  8
0
 62
256
370
-1
  6
BYLAYER
 10
490.0
 20
420.0
 30
0.0
 11
490.0
 21
410.0
 31
0.0
  0
LINE
  5
87
100
AcDbEntity
100
AcDbLine
  8
0
 62
256
370
-1
  6
BYLAYER
 10
490.0
 20
415.0
 30
0.0
 11
310.0
 21
415.0
 31
0.0
  0
LINE
  5
88
100
AcDbEntity
100
AcDbLine
  8
0
 62
256
370
-1
  6
BYLAYER
 10
340.0
 20
415.0
 30
0.0
 11
340.0
 21
100.0
 31
0.0
  0
LINE
  5
89
100
AcDbEntity
100
AcDbLine
  8
0
 62
256
370
-1
  6
BYLAYER
 10
345.0
 20
415.0
 30
0.0
 11
345.0
 21
99.9999999999999432
 31
0.0
  0
LINE
  5
8A
100
AcDbEntity
100
AcDbLine
  8
0
 62
256
370
-1
  6
BYLAYER
 10
365.0
 20
415.0
 30
0.0
 11
365.0
 21
100.0
 31
0.0
  0
LINE
  5
8B
100
AcDbEntity
100
AcDbLine
  8
0
 62
256
370
-1
  6
BYLAYER
 10
370.0
 20
415.0
 30
0.0
 11
370.0
 21
100.0000000000000568
 31
0.0
  0
LINE
  5
8C
100
AcDbEntity
100
AcDbLine
  8
0
 62
256
370
-1
  6
BYLAYER
 10
490.0
 20
130.0
 30
0.0
 11
370.0
 21
130.0
 31
0.0
  0
LINE
  5
8D
100
AcDbEntity
100
AcDbLine
  8
0
 62
256
370
-1
  6
BYLAYER
 10
490.0
 20
135.0
 30
0.0
 11
370.0
 21
135.0
 31
0.0
  0
LINE
  5
8E
100
AcDbEntity
100
AcDbLine
  8
0
 62
256
370
-1
  6
BYLAYER
 10
490.0
 20
155.0
 30
0.0
 11
370.0
 21
155.0
 31
0.0
  0
CIRCLE
  5
8F
100
AcDbEntity
100
AcDbCircle
  8
0
 62
256
370
-1
  6
BYLAYER
 10
340.0
 20
50.0
 30
0.0
 40
7.0
  0
MTEXT
  5
90
100
AcDbEntity
100
AcDbMText
  8
0
 62
256
370
-1
  6
BYLAYER
 10
70.0
 20
470.0
 30
0.0
 40
20.0
 41
0.0
 71
1
 72
1
  1
Front
  7
textstyle0
 50
0.0
 73
2
 44
1.0
  0
MTEXT
  5
91
100
AcDbEntity
100
AcDbMText
  8
0
 62
256
370
-1
  6
BYLAYER
 10
340.0
 20
470.0
 30
0.0
 40
20.0
 41
0.0
 71
1
 72
1
  1
Right Side
  7
textstyle1
 50
0.0
 73
2
 44
1.0
  0
LINE
  5
92
100
AcDbEntity
100
AcDbLine
  8
0
 62
256
370
-1
  6
BYLAYER
 10
610.0
 20
0.0
 30
0.0
 11
610.0
 21
440.0
 31
0.0
  0
LINE
  5
93
100
AcDbEntity
100
AcDbLine
  8
0
 62
256
370
-1
  6
BYLAYER
 10
610.0
 20
440.0
 30
0.0
 11
600.0
 21
440.0
 31
0.0
  0
LINE
  5
94
100
AcDbEntity
100
AcDbLine
  8
0
 62
256
370
-1
  6
BYLAYER
 10
600.0
 20
440.0
 30
0.0
 11
600.0
 21
0.0
 31
0.0
  0
LINE
  5
95
100
AcDbEntity
100
AcDbLine
  8
0
 62
256
370
-1
  6
BYLAYER
 10
760.0
 20
130.0
 30
0.0
 11
790.0
 21
130.0
 31
0.0
  0
LINE
  5
96
100
AcDbEntity
100
AcDbLine
  8
0
 62
256
370
-1
  6
BYLAYER
 10
790.0
 20
0.0
 30
0.0
 11
800.0
 21
0.0
 31
0.0
  0
LINE
  5
97
100
AcDbEntity
100
AcDbLine
  8
0
 62
256
370
-1
  6
BYLAYER
 10
800.0
 20
0.0
 30
0.0
 11
800.0
 21
440.0
 31
0.0
  0
LINE
  5
98
100
AcDbEntity
100
AcDbLine
  8
0
 62
256
370
-1
  6
BYLAYER
 10
760.0000000000001137
 20
135.0000000000000568
 30
0.0
 11
790.0
 21
135.0
 31
0.0
  0
LINE
  5
99
100
AcDbEntity
100
AcDbLine
  8
0
 62
256
370
-1
  6
BYLAYER
 10
800.0
 20
440.0
 30
0.0
 11
790.0
 21
440.0
 31
0.0
  0
LINE
  5
9A
100
AcDbEntity
100
AcDbLine
  8
0
 62
256
370
-1
  6
BYLAYER
 10
790.0
 20
440.0
 30
0.0
 11
790.0
 21
0.0
 31
0.0
  0
LINE
  5
9B
100
AcDbEntity
100
AcDbLine
  8
0
 62
256
370
-1
  6
BYLAYER
 10
610.0
 20
20.0
 30
0.0
 11
790.0
 21
20.0
 31
0.0
  0
LINE
  5
9C
100
AcDbEntity
100
AcDbLine
  8
0
 62
256
370
-1
  6
BYLAYER
 10
790.0
 20
20.0
 30
0.0
 11
790.0
 21
30.0
 31
0.0
  0
LINE
  5
9D
100
AcDbEntity
100
AcDbLine
  8
0
 62
256
370
-1
  6
BYLAYER
 10
790.0
 20
25.0
 30
0.0
 11
610.0
 21
25.0
 31
0.0
  0
LINE
  5
9E
100
AcDbEntity
100
AcDbLine
  8
0
 62
256
370
-1
  6
BYLAYER
 10
790.0000000000001137
 20
95.0
 30
0.0
 11
609.9999999999997726
 21
95.0000000000000568
 31
0.0
  0
LINE
  5
9F
100
AcDbEntity
100
AcDbLine
  8
0
 62
256
370
-1
  6
BYLAYER
 10
609.9999999999997726
 20
95.0000000000000568
 30
0.0
 11
610.0000000000001137
 21
104.9999999999999432
 31
0.0
  0
LINE
  5
A0
100
AcDbEntity
100
AcDbLine
  8
0
 62
256
370
-1
  6
BYLAYER
 10
609.9999999999998863
 20
100.0000000000000568
 30
0.0
 11
790.0
 21
100.0
 31
0.0
  0
LINE
  5
A1
100
AcDbEntity
100
AcDbLine
  8
0
 62
256
370
-1
  6
BYLAYER
 10
790.0
 20
419.9999999999998863
 30
0.0
 11
610.0
 21
419.9999999999999432
 31
0.0
  0
LINE
  5
A2
100
AcDbEntity
100
AcDbLine
  8
0
 62
256
370
-1
  6
BYLAYER
 10
610.0
 20
419.9999999999999432
 30
0.0
 11
610.0
 21
410.0000000000001137
 31
0.0
  0
LINE
  5
A3
100
AcDbEntity
100
AcDbLine
  8
0
 62
256
370
-1
  6
BYLAYER
 10
610.0
 20
415.0000000000000568
 30
0.0
 11
790.0
 21
415.0
 31
0.0
  0
LINE
  5
A4
100
AcDbEntity
100
AcDbLine
  8
0
 62
256
370
-1
  6
BYLAYER
 10
760.0
 20
415.0
 30
0.0
 11
760.0
 21
100.0
 31
0.0
  0
LINE
  5
A5
100
AcDbEntity
100
AcDbLine
  8
0
 62
256
370
-1
  6
BYLAYER
 10
755.0
 20
415.0
 30
0.0
 11
755.0
 21
99.9999999999999432
 31
0.0
  0
LINE
  5
A6
100
AcDbEntity
100
AcDbLine
  8
0
 62
256
370
-1
  6
BYLAYER
 10
735.0
 20
415.0
 30
0.0
 11
735.0
 21
100.0
 31
0.0
  0
LINE
  5
A7
100
AcDbEntity
100
AcDbLine
  8
0
 62
256
370
-1
  6
BYLAYER
 10
730.0
 20
415.0
 30
0.0
 11
730.0000000000001137
 21
100.0000000000001137
 31
0.0
  0
LINE
  5
A8
100
AcDbEntity
100
AcDbLine
  8
0
 62
256
370
-1
  6
BYLAYER
 10
610.0
 20
130.0
 30
0.0
 11
730.0
 21
130.0000000000000568
 31
0.0
  0
LINE
  5
A9
100
AcDbEntity
100
AcDbLine
  8
0
 62
256
370
-1
  6
BYLAYER
 10
609.9999999999998863
 20
135.0000000000000568
 30
0.0
 11
730.0
 21
135.0000000000000568
 31
0.0
  0
LINE
  5
AA
100
AcDbEntity
100
AcDbLine
  8
0
 62
256
370
-1
  6
BYLAYER
 10
609.9999999999998863
 20
155.0000000000000568
 30
0.0
 11
730.0
 21
155.0
 31
0.0
  0
LINE
  5
AB
100
AcDbEntity
100
AcDbLine
  8
0
 62
256
370
-1
  6
BYLAYER
 10
610.0
 20
159.9999999999999716
 30
0.0
 11
729.9999999999998863
 21
159.9999999999999432
 31
0.0
  0
LINE
  5
AC
100
AcDbEntity
100
AcDbLine
  8
0
 62
256
370
-1
  6
BYLAYER
 10
759.9999999999998863
 20
159.9999999999999716
 30
0.0
 11
789.9999999999998863
 21
159.9999999999999432
 31
0.0
  0
LINE
  5
AD
100
AcDbEntity
100
AcDbLine
  8
0
 62
256
370
-1
  6
BYLAYER
 10
759.9999999999997726
 20
154.9999999999999432
 30
0.0
 11
790.0
 21
155.0000000000000568
 31
0.0
  0
LINE
  5
AE
100
AcDbEntity
100
AcDbLine
  8
0
 62
256
370
-1
  6
BYLAYER
 10
735.0
 20
160.0
 30
0.0
 11
754.9999999999998863
 21
159.9999999999999716
 31
0.0
  0
MTEXT
  5
AF
100
AcDbEntity
100
AcDbMText
  8
0
 62
256
370
-1
  6
BYLAYER
 10
670.0
 20
470.0
 30
0.0
 40
20.0
 41
0.0
 71
1
 72
1
  1
Back
  7
textstyle2
 50
0.0
 73
2
 44
1.0
  0
LINE
  5
B0
100
AcDbEntity
100
AcDbLine
  8
0
 62
256
370
-1
  6
BYLAYER
 10
734.9999999999998863
 20
154.9999999999999432
 30
0.0
 11
755.0000000000001137
 21
155.0
 31
0.0
  0
LINE
  5
B1
100
AcDbEntity
100
AcDbLine
  8
0
 62
256
370
-1
  6
BYLAYER
 10
735.0
 20
135.0
 30
0.0
 11
754.9999999999998863
 21
134.9999999999999432
 31
0.0
  0
LINE
  5
B2
100
AcDbEntity
100
AcDbLine
  8
0
 62
256
370
-1
  6
BYLAYER
 10
734.9999999999998863
 20
130.0
 30
0.0
 11
755.0
 21
130.0
 31
0.0
  0
LINE
  5
B3
100
AcDbEntity
100
AcDbLine
  8
0
 62
256
370
-1
  6
BYLAYER
 10
600.0
 20
0.0
 30
0.0
 11
610.0
 21
0.0
 31
0.0
  0
LINE
  5
B4
100
AcDbEntity
100
AcDbLine
  8
0
 62
256
370
-1
  6
BYLAYER
 10
464.0
 20
48.0
 30
0.0
 11
464.0
 21
43.5
 31
0.0
  0
LINE
  5
B5
100
AcDbEntity
100
AcDbLine
  8
0
 62
256
370
-1
  6
BYLAYER
 10
464.0
 20
52.0
 30
0.0
 11
476.0
 21
52.0
 31
0.0
  0
LINE
  5
B6
100
AcDbEntity
100
AcDbLine
  8
0
 62
256
370
-1
  6
BYLAYER
 10
476.0
 20
52.0
 30
0.0
 11
476.0
 21
56.5
 31
0.0
  0
LINE
  5
B7
100
AcDbEntity
100
AcDbLine
  8
0
 62
256
370
-1
  6
BYLAYER
 10
477.0
 20
58.0
 30
0.0
 11
477.0
 21
42.0
 31
0.0
  0
LINE
  5
B8
100
AcDbEntity
100
AcDbLine
  8
0
 62
256
370
-1
  6
BYLAYER
 10
476.0
 20
56.5
 30
0.0
 11
464.0
 21
56.5
 31
0.0
  0
LINE
  5
B9
100
AcDbEntity
100
AcDbLine
  8
0
 62
256
370
-1
  6
BYLAYER
 10
477.0
 20
42.0
 30
0.0
 11
463.0
 21
42.0
 31
0.0
  0
LINE
  5
BA
100
AcDbEntity
100
AcDbLine
  8
0
 62
256
370
-1
  6
BYLAYER
 10
464.0
 20
56.5
 30
0.0
 11
464.0
 21
52.0
 31
0.0
  0
LINE
  5
BB
100
AcDbEntity
100
AcDbLine
  8
0
 62
256
370
-1
  6
BYLAYER
 10
463.0
 20
42.0
 30
0.0
 11
463.0
 21
58.0
 31
0.0
  0
LINE
  5
BC
100
AcDbEntity
100
AcDbLine
  8
0
 62
256
370
-1
  6
BYLAYER
 10
464.0
 20
43.5
 30
0.0
 11
476.0
 21
43.5
 31
0.0
  0
LINE
  5
BD
100
AcDbEntity
100
AcDbLine
  8
0
 62
256
370
-1
  6
BYLAYER
 10
463.0
 20
58.0
 30
0.0
 11
477.0
 21
58.0
 31
0.0
  0
LINE
  5
BE
100
AcDbEntity
100
AcDbLine
  8
0
 62
256
370
-1
  6
BYLAYER
 10
476.0
 20
43.5
 30
0.0
 11
476.0
 21
48.0
 31
0.0
  0
LINE
  5
BF
100
AcDbEntity
100
AcDbLine
  8
0
 62
256
370
-1
  6
BYLAYER
 10
476.0
 20
48.0
 30
0.0
 11
464.0
 21
48.0
 31
0.0
  0
CIRCLE
  5
C0
100
AcDbEntity
100
AcDbCircle
  8
0
 62
256
370
-1
  6
BYLAYER
 10
710.0
 20
40.0
 30
0.0
 40
3.0
  0
LINE
  5
C1
100
AcDbEntity
100
AcDbLine
  8
0
 62
256
370
-1
  6
BYLAYER
 10
707.0
 20
40.0
 30
0.0
 11
720.0
 21
0.0
 31
0.0
  0
LINE
  5
C2
100
AcDbEntity
100
AcDbLine
  8
0
 62
256
370
-1
  6
BYLAYER
 10
713.0
 20
40.0
 30
0.0
 11
726.4311739521103846
 21
0.5707309712265953
 31
0.0
  0
LINE
  5
C3
100
AcDbEntity
100
AcDbLine
  8
0
 62
256
370
-1
  6
BYLAYER
 10
0.0
 20
600.0
 30
0.0
 11
10.0
 21
600.0
 31
0.0
  0
LINE
  5
C4
100
AcDbEntity
100
AcDbLine
  8
0
 62
256
370
-1
  6
BYLAYER
 10
10.0
 20
600.0
 30
0.0
 11
10.0
 21
610.0
 31
0.0
  0
LINE
  5
C5
100
AcDbEntity
100
AcDbLine
  8
0
 62
256
370
-1
  6
BYLAYER
 10
10.0
 20
610.0
 30
0.0
 11
0.0
 21
610.0
 31
0.0
  0
LINE
  5
C6
100
AcDbEntity
100
AcDbLine
  8
0
 62
256
370
-1
  6
BYLAYER
 10
0.0
 20
610.0
 30
0.0
 11
0.0
 21
600.0
 31
0.0
  0
LINE
  5
C7
100
AcDbEntity
100
AcDbLine
  8
0
 62
256
370
-1
  6
BYLAYER
 10
0.0
 20
790.0
 30
0.0
 11
10.0
 21
790.0
 31
0.0
  0
LINE
  5
C8
100
AcDbEntity
100
AcDbLine
  8
0
 62
256
370
-1
  6
BYLAYER
 10
10.0
 20
790.0
 30
0.0
 11
10.0
 21
800.0
 31
0.0
  0
LINE
  5
C9
100
AcDbEntity
100
AcDbLine
  8
0
 62
256
370
-1
  6
BYLAYER
 10
10.0
 20
800.0
 30
0.0
 11
0.0
 21
800.0
 31
0.0
  0
LINE
  5
CA
100
AcDbEntity
100
AcDbLine
  8
0
 62
256
370
-1
  6
BYLAYER
 10
0.0
 20
800.0
 30
0.0
 11
0.0
 21
790.0
 31
0.0
  0
LINE
  5
CB
100
AcDbEntity
100
AcDbLine
  8
0
 62
256
370
-1
  6
BYLAYER
 10
190.0
 20
790.0
 30
0.0
 11
200.0
 21
790.0
 31
0.0
  0
LINE
  5
CC
100
AcDbEntity
100
AcDbLine
  8
0
 62
256
370
-1
  6
BYLAYER
 10
200.0
 20
790.0
 30
0.0
 11
200.0
 21
800.0
 31
0.0
  0
LINE
  5
CD
100
AcDbEntity
100
AcDbLine
  8
0
 62
256
370
-1
  6
BYLAYER
 10
200.0
 20
800.0
 30
0.0
 11
190.0
 21
800.0
 31
0.0
  0
LINE
  5
CE
100
AcDbEntity
100
AcDbLine
  8
0
 62
256
370
-1
  6
BYLAYER
 10
190.0
 20
800.0
 30
0.0
 11
190.0
 21
790.0
 31
0.0
  0
LINE
  5
CF
100
AcDbEntity
100
AcDbLine
  8
0
 62
256
370
-1
  6
BYLAYER
 10
190.0
 20
600.0
 30
0.0
 11
200.0
 21
600.0
 31
0.0
  0
LINE
  5
D0
100
AcDbEntity
100
AcDbLine
  8
0
 62
256
370
-1
  6
BYLAYER
 10
200.0
 20
600.0
 30
0.0
 11
200.0
 21
610.0
 31
0.0
  0
LINE
  5
D1
100
AcDbEntity
100
AcDbLine
  8
0
 62
256
370
-1
  6
BYLAYER
 10
200.0
 20
610.0
 30
0.0
 11
190.0
 21
610.0
 31
0.0
  0
LINE
  5
D2
100
AcDbEntity
100
AcDbLine
  8
0
 62
256
370
-1
  6
BYLAYER
 10
190.0
 20
610.0
 30
0.0
 11
190.0
 21
600.0
 31
0.0
  0
LINE
  5
D3
100
AcDbEntity
100
AcDbLine
  8
0
 62
256
370
-1
  6
BYLAYER
 10
10.0
 20
602.0
 30
0.0
 11
190.0
 21
602.0
 31
0.0
  0
LINE
  5
D4
100
AcDbEntity
100
AcDbLine
  8
0
 62
256
370
-1
  6
BYLAYER
 10
10.0
 20
608.0
 30
0.0
 11
190.0
 21
608.0
 31
0.0
  0
LINE
  5
D5
100
AcDbEntity
100
AcDbLine
  8
0
 62
256
370
-1
  6
BYLAYER
 10
2.0
 20
610.0
 30
0.0
 11
2.0
 21
790.0
 31
0.0
  0
LINE
  5
D6
100
AcDbEntity
100
AcDbLine
  8
0
 62
256
370
-1
  6
BYLAYER
 10
8.0
 20
790.0
 30
0.0
 11
8.0
 21
610.25
 31
0.0
  0
LINE
  5
D7
100
AcDbEntity
100
AcDbLine
  8
0
 62
256
370
-1
  6
BYLAYER
 10
198.0
 20
790.0
 30
0.0
 11
198.0
 21
610.0
 31
0.0
  0
LINE
  5
D8
100
AcDbEntity
100
AcDbLine
  8
0
 62
256
370
-1
  6
BYLAYER
 10
192.0
 20
790.0
 30
0.0
 11
192.0
 21
610.0
 31
0.0
  0
LINE
  5
D9
100
AcDbEntity
100
AcDbLine
  8
0
 62
256
370
-1
  6
BYLAYER
 10
190.0
 20
797.9999999999998863
 30
0.0
 11
10.0
 21
798.0
 31
0.0
  0
LINE
  5
DA
100
AcDbEntity
100
AcDbLine
  8
0
 62
256
370
-1
  6
BYLAYER
 10
10.0
 20
792.0
 30
0.0
 11
190.0
 21
792.0
 31
0.0
  0
LINE
  5
DB
100
AcDbEntity
100
AcDbLine
  8
0
 62
256
370
-1
  6
BYLAYER
 10
40.0
 20
608.0
 30
0.0
 11
40.0
 21
792.0
 31
0.0
  0
LINE
  5
DC
100
AcDbEntity
100
AcDbLine
  8
0
 62
256
370
-1
  6
BYLAYER
 10
45.0
 20
608.0
 30
0.0
 11
45.0
 21
792.0
 31
0.0
  0
LINE
  5
DD
100
AcDbEntity
100
AcDbLine
  8
0
 62
256
370
-1
  6
BYLAYER
 10
65.0
 20
608.0
 30
0.0
 11
65.0
 21
792.0
 31
0.0
  0
LINE
  5
DE
100
AcDbEntity
100
AcDbLine
  8
0
 62
256
370
-1
  6
BYLAYER
 10
70.0
 20
608.0
 30
0.0
 11
70.0
 21
792.0
 31
0.0
  0
LINE
  5
DF
100
AcDbEntity
100
AcDbLine
  8
0
 62
256
370
-1
  6
BYLAYER
 10
8.0
 20
638.0
 30
0.0
 11
40.0
 21
638.0
 31
0.0
  0
LINE
  5
E0
100
AcDbEntity
100
AcDbLine
  8
0
 62
256
370
-1
  6
BYLAYER
 10
8.0
 20
643.0
 30
0.0
 11
40.0
 21
643.0
 31
0.0
  0
LINE
  5
E1
100
AcDbEntity
100
AcDbLine
  8
0
 62
256
370
-1
  6
BYLAYER
 10
8.0
 20
663.0
 30
0.0
 11
40.0
 21
663.0
 31
0.0
  0
LINE
  5
E2
100
AcDbEntity
100
AcDbLine
  8
0
 62
256
370
-1
  6
BYLAYER
 10
8.0
 20
668.0
 30
0.0
 11
40.0
 21
668.0
 31
0.0
  0
LINE
  5
E3
100
AcDbEntity
100
AcDbLine
  8
0
 62
256
370
-1
  6
BYLAYER
 10
45.0
 20
638.0
 30
0.0
 11
65.0
 21
638.0
 31
0.0
  0
LINE
  5
E4
100
AcDbEntity
100
AcDbLine
  8
0
 62
256
370
-1
  6
BYLAYER
 10
45.0
 20
643.0
 30
0.0
 11
65.0
 21
643.0
 31
0.0
  0
LINE
  5
E5
100
AcDbEntity
100
AcDbLine
  8
0
 62
256
370
-1
  6
BYLAYER
 10
70.0
 20
643.0
 30
0.0
 11
192.0
 21
643.0
 31
0.0
  0
LINE
  5
E6
100
AcDbEntity
100
AcDbLine
  8
0
 62
256
370
-1
  6
BYLAYER
 10
70.0
 20
638.0
 30
0.0
 11
192.0
 21
638.0
 31
0.0
  0
LINE
  5
E7
100
AcDbEntity
100
AcDbLine
  8
0
 62
256
370
-1
  6
BYLAYER
 10
70.0000000000000142
 20
663.0
 30
0.0
 11
192.0
 21
663.0
 31
0.0
  0
LINE
  5
E8
100
AcDbEntity
100
AcDbLine
  8
0
 62
256
370
-1
  6
BYLAYER
 10
70.0
 20
668.0
 30
0.0
 11
192.0
 21
668.0
 31
0.0
  0
LINE
  5
E9
100
AcDbEntity
100
AcDbLine
  8
0
 62
256
370
-1
  6
BYLAYER
 10
44.9999999999999929
 20
668.0
 30
0.0
 11
65.0
 21
668.0
 31
0.0
  0
LINE
  5
EA
100
AcDbEntity
100
AcDbLine
  8
0
 62
256
370
-1
  6
BYLAYER
 10
44.9999999999999929
 20
663.0
 30
0.0
 11
64.9999999999999858
 21
663.0
 31
0.0
  0
MTEXT
  5
EB
100
AcDbEntity
100
AcDbMText
  8
0
 62
256
370
-1
  6
BYLAYER
 10
80.0
 20
840.0
 30
0.0
 40
20.0
 41
0.0
 71
1
 72
1
  1
Top
  7
textstyle3
 50
0.0
 73
2
 44
1.0
  0
ENDSEC
  0
SECTION
  2
OBJECTS
  0
DICTIONARY
  5
C
100
AcDbDictionary
280
0
281
1
  3
ACAD_GROUP
350
D
  3
ACAD_LAYOUT
350
1A
  3
ACAD_MLINESTYLE
350
17
  3
ACAD_PLOTSETTINGS
350
19
  3
ACAD_PLOTSTYLENAME
350
E
  3
AcDbVariableDictionary
350
EC
  3
QCAD_OBJECTS
350
ED
  0
DICTIONARY
  5
D
100
AcDbDictionary
280
0
281
1
  0
ACDBDICTIONARYWDFLT
  5
E
100
AcDbDictionary
281
1
  3
Normal
350
F
100
AcDbDictionaryWithDefault
340
F
  0
ACDBPLACEHOLDER
  5
F
  0
DICTIONARY
  5
17
100
AcDbDictionary
280
0
281
1
  3
Standard
350
18
  0
MLINESTYLE
  5
18
100
AcDbMlineStyle
  2
STANDARD
 70
0
  3

 62
256
 51
90.0
 52
90.0
 71
2
 49
0.5
 62
256
  6
BYLAYER
 49
-0.5
 62
256
  6
BYLAYER
  0
DICTIONARY
  5
19
100
AcDbDictionary
280
0
281
1
  0
DICTIONARY
  5
1A
100
AcDbDictionary
281
1
  3
Layout1
350
1E
  3
Layout2
350
26
  3
Model
350
22
  0
LAYOUT
  5
1E
100
AcDbPlotSettings
  1

  2
none_device
  4

  6

 40
0.0
 41
0.0
 42
0.0
 43
0.0
 44
0.0
 45
0.0
 46
0.0
 47
0.0
 48
0.0
 49
0.0
140
0.0
141
0.0
142
1.0
143
1.0
 70
688
 72
0
 73
0
 74
5
  7

 75
16
147
1.0
148
0.0
149
0.0
100
AcDbLayout
  1
Layout1
 70
1
 71
1
 10
0.0
 20
0.0
 11
420.0
 21
297.0
 12
0.0
 22
0.0
 32
0.0
 14
100000000000000000000.0
 24
100000000000000000000.0
 34
100000000000000000000.0
 15
-100000000000000000000.0
 25
-100000000000000000000.0
 35
-100000000000000000000.0
146
0.0
 13
0.0
 23
0.0
 33
0.0
 16
1.0
 26
0.0
 36
0.0
 17
0.0
 27
1.0
 37
0.0
 76
0
330
1B
  0
LAYOUT
  5
22
100
AcDbPlotSettings
  1

  2
none_device
  4

  6

 40
0.0
 41
0.0
 42
0.0
 43
0.0
 44
0.0
 45
0.0
 46
0.0
 47
0.0
 48
0.0
 49
0.0
140
0.0
141
0.0
142
1.0
143
1.0
 70
1712
 72
0
 73
0
 74
0
  7

 75
0
147
1.0
148
0.0
149
0.0
100
AcDbLayout
  1
Model
 70
1
 71
0
 10
0.0
 20
0.0
 11
12.0
 21
9.0
 12
0.0
 22
0.0
 32
0.0
 14
0.0
 24
0.0
 34
0.0
 15
0.0
 25
0.0
 35
0.0
146
0.0
 13
0.0
 23
0.0
 33
0.0
 16
1.0
 26
0.0
 36
0.0
 17
0.0
 27
1.0
 37
0.0
 76
0
330
1F
  0
LAYOUT
  5
26
100
AcDbPlotSettings
  1

  2
none_device
  4

  6

 40
0.0
 41
0.0
 42
0.0
 43
0.0
 44
0.0
 45
0.0
 46
0.0
 47
0.0
 48
0.0
 49
0.0
140
0.0
141
0.0
142
1.0
143
1.0
 70
688
 72
0
 73
0
 74
5
  7

 75
16
147
1.0
148
0.0
149
0.0
100
AcDbLayout
  1
Layout2
 70
1
 71
2
 10
0.0
 20
0.0
 11
12.0
 21
9.0
 12
0.0
 22
0.0
 32
0.0
 14
0.0
 24
0.0
 34
0.0
 15
0.0
 25
0.0
 35
0.0
146
0.0
 13
0.0
 23
0.0
 33
0.0
 16
1.0
 26
0.0
 36
0.0
 17
0.0
 27
1.0
 37
0.0
 76
0
330
23
  0
DICTIONARY
  5
EC
100
AcDbDictionary
281
1
  3
DIMASSOC
350
EF
  3
HIDETEXT
350
EE
  0
DICTIONARYVAR
  5
EE
100
DictionaryVariables
280
0
  1
2
  0
DICTIONARYVAR
  5
EF
100
DictionaryVariables
280
0
  1
1
  0
DICTIONARY
  5
ED
100
AcDbDictionary
281
1
  3
Grid/DisplayGrid00
350
F0
  3
Grid/DisplayGrid01
350
F1
  3
Grid/DisplayGrid02
350
F2
  3
Grid/DisplayGrid03
350
F3
  3
Grid/GridSpacingX00
350
F4
  3
Grid/GridSpacingX01
350
F5
  3
Grid/GridSpacingX02
350
F6
  3
Grid/GridSpacingX03
350
F7
  3
Grid/GridSpacingY00
350
F8
  3
Grid/GridSpacingY01
350
F9
  3
Grid/GridSpacingY02
350
FA
  3
Grid/GridSpacingY03
350
FB
  3
Grid/IsometricGrid00
350
FC
  3
Grid/IsometricGrid01
350
FD
  3
Grid/IsometricGrid02
350
FE
  3
Grid/IsometricGrid03
350
FF
  3
Grid/IsometricProjection00
350
100
  3
Grid/IsometricProjection01
350
101
  3
Grid/IsometricProjection02
350
102
  3
Grid/IsometricProjection03
350
103
  3
Grid/MetaGridSpacingX00
350
104
  3
Grid/MetaGridSpacingX01
350
105
  3
Grid/MetaGridSpacingX02
350
106
  3
Grid/MetaGridSpacingX03
350
107
  3
Grid/MetaGridSpacingY00
350
108
  3
Grid/MetaGridSpacingY01
350
109
  3
Grid/MetaGridSpacingY02
350
10A
  3
Grid/MetaGridSpacingY03
350
10B
  3
MultiPageSettings/Columns
350
10C
  3
MultiPageSettings/GlueMarginsBottom
350
10D
  3
MultiPageSettings/GlueMarginsLeft
350
10E
  3
MultiPageSettings/GlueMarginsRight
350
10F
  3
MultiPageSettings/GlueMarginsTop
350
110
  3
MultiPageSettings/PrintCropMarks
350
111
  3
MultiPageSettings/Rows
350
112
  3
PageSettings/OffsetX
350
113
  3
PageSettings/OffsetY
350
114
  3
PageSettings/PageOrientation
350
115
  3
PageSettings/PaperHeight
350
116
  3
PageSettings/PaperWidth
350
117
  3
PageSettings/Scale
350
118
  3
PageSettings/ShowPaperBorders
350
119
  3
UnitSettings/PaperUnit
350
11A
  0
XRECORD
  5
F0
330
ED
100
AcDbXrecord
280
1
290
1
  0
XRECORD
  5
F1
330
ED
100
AcDbXrecord
280
1
290
1
  0
XRECORD
  5
F2
330
ED
100
AcDbXrecord
280
1
290
1
  0
XRECORD
  5
F3
330
ED
100
AcDbXrecord
280
1
290
1
  0
XRECORD
  5
F4
330
ED
100
AcDbXrecord
280
1
1000
auto
  0
XRECORD
  5
F5
330
ED
100
AcDbXrecord
280
1
1000
auto
  0
XRECORD
  5
F6
330
ED
100
AcDbXrecord
280
1
1000
auto
  0
XRECORD
  5
F7
330
ED
100
AcDbXrecord
280
1
1000
auto
  0
XRECORD
  5
F8
330
ED
100
AcDbXrecord
280
1
1000
auto
  0
XRECORD
  5
F9
330
ED
100
AcDbXrecord
280
1
1000
auto
  0
XRECORD
  5
FA
330
ED
100
AcDbXrecord
280
1
1000
auto
  0
XRECORD
  5
FB
330
ED
100
AcDbXrecord
280
1
1000
auto
  0
XRECORD
  5
FC
330
ED
100
AcDbXrecord
280
1
290
0
  0
XRECORD
  5
FD
330
ED
100
AcDbXrecord
280
1
290
0
  0
XRECORD
  5
FE
330
ED
100
AcDbXrecord
280
1
290
0
  0
XRECORD
  5
FF
330
ED
100
AcDbXrecord
280
1
290
0
  0
XRECORD
  5
100
330
ED
100
AcDbXrecord
280
1
 90
0
  0
XRECORD
  5
101
330
ED
100
AcDbXrecord
280
1
 90
0
  0
XRECORD
  5
102
330
ED
100
AcDbXrecord
280
1
 90
0
  0
XRECORD
  5
103
330
ED
100
AcDbXrecord
280
1
 90
0
  0
XRECORD
  5
104
330
ED
100
AcDbXrecord
280
1
1000
auto
  0
XRECORD
  5
105
330
ED
100
AcDbXrecord
280
1
1000
auto
  0
XRECORD
  5
106
330
ED
100
AcDbXrecord
280
1
1000
auto
  0
XRECORD
  5
107
330
ED
100
AcDbXrecord
280
1
1000
auto
  0
XRECORD
  5
108
330
ED
100
AcDbXrecord
280
1
1000
auto
  0
XRECORD
  5
109
330
ED
100
AcDbXrecord
280
1
1000
auto
  0
XRECORD
  5
10A
330
ED
100
AcDbXrecord
280
1
1000
auto
  0
XRECORD
  5
10B
330
ED
100
AcDbXrecord
280
1
1000
auto
  0
XRECORD
  5
10C
330
ED
100
AcDbXrecord
280
1
 90
1
  0
XRECORD
  5
10D
330
ED
100
AcDbXrecord
280
1
 40
10.0
  0
XRECORD
  5
10E
330
ED
100
AcDbXrecord
280
1
 40
10.0
  0
XRECORD
  5
10F
330
ED
100
AcDbXrecord
280
1
 40
10.0
  0
XRECORD
  5
110
330
ED
100
AcDbXrecord
280
1
 40
10.0
  0
XRECORD
  5
111
330
ED
100
AcDbXrecord
280
1
290
0
  0
XRECORD
  5
112
330
ED
100
AcDbXrecord
280
1
 90
1
  0
XRECORD
  5
113
330
ED
100
AcDbXrecord
280
1
 40
0.0
  0
XRECORD
  5
114
330
ED
100
AcDbXrecord
280
1
 40
0.0
  0
XRECORD
  5
115
330
ED
100
AcDbXrecord
280
1
1000
Portrait
  0
XRECORD
  5
116
330
ED
100
AcDbXrecord
280
1
 40
279.3999999999999773
  0
XRECORD
  5
117
330
ED
100
AcDbXrecord
280
1
 40
215.9000000000000057
  0
XRECORD
  5
118
330
ED
100
AcDbXrecord
280
1
1000
1:1
  0
XRECORD
  5
119
330
ED
100
AcDbXrecord
280
1
290
1
  0
XRECORD
  5
11A
330
ED
100
AcDbXrecord
280
1
 90
4
  0
ENDSEC
  0
EOF
