<?xml version="1.0" standalone="no"?>
 <!DOCTYPE svg PUBLIC "-//W3C//DTD SVG 1.1//EN" 
 "http://www.w3.org/Graphics/SVG/1.1/DTD/svg11.dtd"> 
<svg xmlns="http://www.w3.org/2000/svg" version="1.1" 
    width="6.70306cm" height="6.11632cm" viewBox="0 0 26390 24080 ">
<title>SVG Picture created as hex-F_SilkS.svg date 2014/04/17 12:38:22 </title>
  <desc>Picture generated by PCBNEW </desc>
<g style="fill:#000000; fill-opacity:1;stroke:#000000; stroke-opacity:1;
stroke-linecap:round; stroke-linejoin:round; "
 transform="translate(0 0) scale(1 1)">
</g>
<g style="fill:#00A0A0; fill-opacity:0.0; 
stroke:#00A0A0; stroke-width:50; stroke-opacity:1; 
stroke-linecap:round; stroke-linejoin:round;">
<path d="M18668 20147
L18763 20147
" />
<path d="M18649 20204
L18716 20004
L18782 20204
" />
<path d="M18840 20023
L18849 20014
L18868 20004
L18916 20004
L18935 20014
L18944 20023
L18954 20042
L18954 20061
L18944 20090
L18830 20204
L18954 20204
" />
</g>
<g style="fill:#FFFF00; fill-opacity:0.0; 
stroke:#FFFF00; stroke-width:39.3701; stroke-opacity:1; 
stroke-linecap:round; stroke-linejoin:round;">
<path d="M2574 3137
L2574 21248
" />
<path d="M21471 2350
L3361 2350
" />
<path d="M22259 21248
L22259 3137
" />
<path d="M3361 22035
L21471 22035
" />
<path d="M22259.2 3137.81 A787.402 787.402 0.0 0 0 21471.8 2350.41 " />
<path d="M21471.8 22035.4 A787.402 787.402 0.0 0 0 22259.2 21248 " />
<path d="M2574.17 21248 A787.402 787.402 0.0 0 0 3361.57 22035.4 " />
<path d="M3361.57 2350.41 A787.402 787.402 0.0 0 0 2574.17 3137.81 " />
</g>
<g style="fill:#00A0A0; fill-opacity:0.0; 
stroke:#00A0A0; stroke-width:50; stroke-opacity:1; 
stroke-linecap:round; stroke-linejoin:round;">
<path d="M3952 12786
L3942 12805
L3942 12833
L3952 12862
L3971 12881
L3990 12891
L4028 12900
L4056 12900
L4094 12891
L4113 12881
L4132 12862
L4142 12833
L4142 12814
L4132 12786
L4123 12776
L4056 12776
L4056 12814
" />
<path d="M4142 12691
L3942 12691
L4142 12576
L3942 12576
" />
<path d="M4142 12481
L3942 12481
L3942 12433
L3952 12405
L3971 12386
L3990 12376
L4028 12367
L4056 12367
L4094 12376
L4113 12386
L4132 12405
L4142 12433
L4142 12481
" />
<path d="M17278 21597
L17373 21597
" />
<path d="M17259 21654
L17326 21454
L17392 21654
" />
<path d="M17497 21454
L17516 21454
L17535 21464
L17545 21473
L17554 21492
L17564 21531
L17564 21578
L17554 21616
L17545 21635
L17535 21645
L17516 21654
L17497 21654
L17478 21645
L17469 21635
L17459 21616
L17450 21578
L17450 21531
L17459 21492
L17469 21473
L17478 21464
L17497 21454
" />
<path d="M20447 11791
L20475 11800
L20485 11810
L20494 11829
L20494 11857
L20485 11876
L20475 11886
L20456 11895
L20380 11895
L20380 11695
L20447 11695
L20466 11705
L20475 11714
L20485 11733
L20485 11752
L20475 11772
L20466 11781
L20447 11791
L20380 11791
" />
<path d="M20570 11838
L20666 11838
" />
<path d="M20551 11895
L20618 11695
L20685 11895
" />
<path d="M20723 11695
L20837 11695
" />
<path d="M20780 11895
L20780 11695
" />
<path d="M20886 11485
L21010 11485
L20943 11562
L20972 11562
L20991 11571
L21000 11581
L21010 11600
L21010 11647
L21000 11666
L20991 11676
L20972 11685
L20915 11685
L20896 11676
L20886 11666
" />
<path d="M21077 11552
L21124 11685
L21172 11552
" />
<path d="M21229 11485
L21353 11485
L21286 11562
L21315 11562
L21334 11571
L21343 11581
L21353 11600
L21353 11647
L21343 11666
L21334 11676
L21315 11685
L21257 11685
L21238 11676
L21229 11666
" />
<path d="M21122 11765
L21103 11755
L21074 11755
L21046 11765
L21027 11784
L21017 11803
L21007 11841
L21007 11870
L21017 11908
L21027 11927
L21046 11946
L21074 11955
L21093 11955
L21122 11946
L21131 11936
L21131 11870
L21093 11870
" />
<path d="M21217 11955
L21217 11755
L21331 11955
L21331 11755
" />
<path d="M21427 11955
L21427 11755
L21474 11755
L21503 11765
L21522 11784
L21531 11803
L21541 11841
L21541 11870
L21531 11908
L21522 11927
L21503 11946
L21474 11955
L21427 11955
" />
<path d="M20773 17904
L20897 17904
L20830 17981
L20859 17981
L20878 17990
L20887 18000
L20897 18019
L20897 18066
L20887 18085
L20878 18095
L20859 18104
L20802 18104
L20782 18095
L20773 18085
" />
<path d="M20963 17971
L21011 18104
L21059 17971
" />
<path d="M21116 17904
L21240 17904
L21173 17981
L21202 17981
L21221 17990
L21230 18000
L21240 18019
L21240 18066
L21230 18085
L21221 18095
L21202 18104
L21144 18104
L21125 18095
L21116 18085
" />
<path d="M17988 20897
L18083 20897
" />
<path d="M17969 20954
L18036 20754
L18102 20954
" />
<path d="M18274 20954
L18160 20954
" />
<path d="M18217 20954
L18217 20754
L18198 20783
L18179 20802
L18160 20811
" />
<path d="M21573 17270
L21602 17279
L21612 17289
L21621 17308
L21621 17336
L21612 17355
L21602 17365
L21583 17374
L21507 17374
L21507 17174
L21573 17174
L21592 17184
L21602 17193
L21612 17212
L21612 17231
L21602 17251
L21592 17260
L21573 17270
L21507 17270
" />
<path d="M21697 17317
L21792 17317
" />
<path d="M21678 17374
L21745 17174
L21812 17374
" />
<path d="M21850 17174
L21964 17174
" />
<path d="M21907 17374
L21907 17174
" />
<path d="M21589 15854
L21570 15844
L21541 15844
L21512 15854
L21493 15873
L21484 15892
L21474 15930
L21474 15959
L21484 15997
L21493 16016
L21512 16035
L21541 16044
L21560 16044
L21589 16035
L21598 16025
L21598 15959
L21560 15959
" />
<path d="M21684 16044
L21684 15844
L21798 16044
L21798 15844
" />
<path d="M21893 16044
L21893 15844
L21941 15844
L21970 15854
L21989 15873
L21998 15892
L22008 15930
L22008 15959
L21998 15997
L21989 16016
L21970 16035
L21941 16044
L21893 16044
" />
<path d="M20058 18805
L20087 18814
L20134 18814
L20153 18805
L20163 18795
L20172 18776
L20172 18757
L20163 18738
L20153 18729
L20134 18719
L20096 18710
L20077 18700
L20068 18691
L20058 18671
L20058 18652
L20068 18633
L20077 18624
L20096 18614
L20144 18614
L20172 18624
" />
<path d="M20258 18814
L20258 18614
L20306 18614
L20334 18624
L20353 18643
L20363 18662
L20372 18700
L20372 18729
L20363 18767
L20353 18786
L20334 18805
L20306 18814
L20258 18814
" />
<path d="M20449 18757
L20544 18757
" />
<path d="M20430 18814
L20496 18614
L20563 18814
" />
<path d="M19383 19495
L19412 19504
L19459 19504
L19478 19495
L19488 19485
L19497 19466
L19497 19447
L19488 19428
L19478 19419
L19459 19409
L19421 19400
L19402 19390
L19392 19381
L19383 19361
L19383 19342
L19392 19323
L19402 19314
L19421 19304
L19469 19304
L19497 19314
" />
<path d="M19697 19485
L19688 19495
L19659 19504
L19640 19504
L19612 19495
L19592 19476
L19583 19457
L19573 19419
L19573 19390
L19583 19352
L19592 19333
L19612 19314
L19640 19304
L19659 19304
L19688 19314
L19697 19323
" />
<path d="M19878 19504
L19783 19504
L19783 19304
" />
</g>
<g style="fill:#00A0A0; fill-opacity:0.0; 
stroke:#00A0A0; stroke-width:500; stroke-opacity:1; 
stroke-linecap:round; stroke-linejoin:round;">
<path d="M5894 20163
L5799 20259
L5894 20354
L5989 20259
L5894 20163
L5894 20354
" />
</g>
<g style="fill:#00A0A0; fill-opacity:0.0; 
stroke:#00A0A0; stroke-width:118.11; stroke-opacity:1; 
stroke-linecap:round; stroke-linejoin:round;">
<path d="M12236 3847
L11786 3847
" />
<path d="M13236 3847
L12786 3847
" />
<path d="M13011 4072
L13011 3622
" />
</g>
<g style="fill:#00A0A0; fill-opacity:0.0; 
stroke:#00A0A0; stroke-width:100; stroke-opacity:1; 
stroke-linecap:round; stroke-linejoin:round;">
<path d="M18457 3361
L18511 3415
L18525 3455
L18525 3509
L18484 3576
L18390 3671
L18323 3711
L18269 3711
L18228 3698
L18175 3644
L18161 3603
L18161 3550
L18201 3482
L18296 3388
L18363 3347
L18417 3347
L18457 3361
" />
<path d="M18417 3886
L18700 3603
L18579 4048
L18861 3765
" />
<path d="M20034 4847
L20088 4901
L20101 4942
L20101 4995
L20061 5063
L19966 5157
L19899 5197
L19845 5197
L19805 5184
L19751 5130
L19737 5090
L19737 5036
L19778 4968
L19872 4874
L19939 4834
L19993 4834
L20034 4847
" />
<path d="M20236 5319
L20141 5224
" />
<path d="M19993 5373
L20276 5090
L20411 5224
" />
<path d="M20478 5561
L20384 5467
" />
<path d="M20236 5615
L20519 5332
L20653 5467
" />
<path d="M20977 5763
L20370 5884
" />
<path d="M20774 6154
L21057 5871
L21165 5979
L21179 6019
L21179 6046
L21165 6086
L21125 6127
L21084 6140
L21057 6140
L21017 6127
L20909 6019
" />
<path d="M21219 6598
L21259 6369
" />
<path d="M21057 6437
L21340 6154
L21448 6261
L21461 6302
L21461 6329
L21448 6369
L21408 6410
L21367 6423
L21340 6423
L21300 6410
L21192 6302
" />
<path d="M21677 6490
L21731 6544
L21744 6585
L21744 6639
L21704 6706
L21610 6800
L21542 6841
L21488 6841
L21448 6827
L21394 6773
L21381 6733
L21381 6679
L21421 6612
L21515 6517
L21583 6477
L21636 6477
L21677 6490
" />
<path d="M22054 6894
L22041 6854
L22000 6814
L21946 6787
L21892 6787
L21852 6800
L21785 6841
L21744 6881
L21704 6948
L21690 6989
L21690 7043
L21717 7097
L21744 7123
L21798 7150
L21825 7150
L21919 7056
L21865 7002
" />
</g>
<g style="fill:#00A0A0; fill-opacity:0.0; 
stroke:#00A0A0; stroke-width:75; stroke-opacity:1; 
stroke-linecap:round; stroke-linejoin:round;">
<path d="M7446 19533
L7547 19432
" />
<path d="M7487 19613
L7345 19331
L7628 19472
" />
<path d="M7456 19219
L7578 19098
" />
<path d="M7729 19371
L7517 19159
" />
<path d="M7861 19240
L7648 19028
L7871 19108
L7790 18886
L8002 19098
" />
<path d="M7992 18886
L8063 18815
" />
<path d="M8204 18896
L8103 18997
L7891 18785
L7992 18684
" />
<path d="M8204 18492
L8174 18502
L8143 18533
L8123 18573
L8123 18613
L8133 18644
L8164 18694
L8194 18725
L8244 18755
L8275 18765
L8315 18765
L8356 18745
L8376 18725
L8396 18684
L8396 18664
L8325 18593
L8285 18634
" />
<path d="M8436 18543
L8537 18442
" />
<path d="M8477 18624
L8335 18341
L8618 18482
" />
<path d="M8800 18300
L8679 18421
" />
<path d="M8739 18361
L8527 18149
L8537 18199
L8537 18240
L8527 18270
" />
<path d="M8689 18028
L8689 18007
L8699 17977
L8749 17927
L8780 17916
L8800 17916
L8830 17927
L8851 17947
L8871 17987
L8871 18230
L9002 18098
" />
<path d="M9002 17856
L8972 17866
L8952 17866
L8921 17856
L8911 17846
L8901 17815
L8901 17795
L8911 17765
L8952 17724
L8982 17714
L9002 17714
L9032 17724
L9042 17735
L9053 17765
L9053 17785
L9042 17815
L9002 17856
L8992 17886
L8992 17906
L9002 17937
L9042 17977
L9073 17987
L9093 17987
L9123 17977
L9164 17937
L9174 17906
L9174 17886
L9164 17856
L9123 17815
L9093 17805
L9073 17805
L9042 17815
" />
<path d="M9244 17573
L9386 17714
" />
<path d="M9113 17543
L9214 17745
L9345 17613
" />
<path d="M9497 17603
L9285 17391
L9366 17310
L9396 17300
L9416 17300
L9446 17310
L9477 17341
L9487 17371
L9487 17391
L9477 17421
L9396 17502
" />
<path d="M9628 17310
L9790 17149
" />
<path d="M9972 17128
L9760 16916
L9840 16836
L9871 16825
L9891 16825
L9921 16836
L9952 16866
L9962 16896
L9962 16916
L9952 16947
L9871 17027
" />
</g>
<g style="fill:#00A0A0; fill-opacity:0.0; 
stroke:#00A0A0; stroke-width:50; stroke-opacity:1; 
stroke-linecap:round; stroke-linejoin:round;">
<path d="M13709 2860
L13738 2869
L13747 2879
L13757 2898
L13757 2926
L13747 2945
L13738 2955
L13719 2964
L13642 2964
L13642 2764
L13709 2764
L13728 2774
L13738 2783
L13747 2802
L13747 2821
L13738 2841
L13728 2850
L13709 2860
L13642 2860
" />
<path d="M13833 2907
L13928 2907
" />
<path d="M13814 2964
L13881 2764
L13947 2964
" />
<path d="M13985 2764
L14100 2764
" />
<path d="M14042 2964
L14042 2764
" />
<path d="M14138 2764
L14252 2764
" />
<path d="M14195 2964
L14195 2764
" />
<path d="M14528 3041
L14519 3031
L14500 3002
L14490 2983
L14481 2955
L14471 2907
L14471 2869
L14481 2821
L14490 2793
L14500 2774
L14519 2745
L14528 2736
" />
<path d="M14690 2831
L14690 2964
" />
<path d="M14642 2755
L14595 2898
L14719 2898
" />
<path d="M14795 2945
L14804 2955
L14795 2964
L14785 2955
L14795 2945
L14795 2964
" />
<path d="M14919 2850
L14900 2841
L14890 2831
L14881 2812
L14881 2802
L14890 2783
L14900 2774
L14919 2764
L14957 2764
L14976 2774
L14985 2783
L14995 2802
L14995 2812
L14985 2831
L14976 2841
L14957 2850
L14919 2850
L14900 2860
L14890 2869
L14881 2888
L14881 2926
L14890 2945
L14900 2955
L14919 2964
L14957 2964
L14976 2955
L14985 2945
L14995 2926
L14995 2888
L14985 2869
L14976 2860
L14957 2850
" />
<path d="M15052 2764
L15119 2964
L15185 2764
" />
<path d="M15252 2888
L15404 2888
" />
<path d="M15585 2764
L15547 2764
L15528 2774
L15519 2783
L15500 2812
L15490 2850
L15490 2926
L15500 2945
L15509 2955
L15528 2964
L15566 2964
L15585 2955
L15595 2945
L15604 2926
L15604 2879
L15595 2860
L15585 2850
L15566 2841
L15528 2841
L15509 2850
L15500 2860
L15490 2879
" />
<path d="M15662 2764
L15728 2964
L15795 2764
" />
<path d="M15842 3041
L15852 3031
L15871 3002
L15881 2983
L15890 2955
L15900 2907
L15900 2869
L15890 2821
L15881 2793
L15871 2774
L15852 2745
L15842 2736
" />
<path d="M7222 10239
L7457 10286
" />
<path d="M7316 10144
L7363 10380
" />
<path d="M7350 10111
L7430 10030
" />
<path d="M7531 10212
L7390 10070
" />
<path d="M7572 10091
L7639 10023
" />
<path d="M7599 10144
L7504 9956
L7693 10050
" />
<path d="M7808 9936
L7740 10003
L7599 9862
" />
</g>
<g style="fill:#00A0A0; fill-opacity:0.0; 
stroke:#00A0A0; stroke-width:43; stroke-opacity:1; 
stroke-linecap:round; stroke-linejoin:round;">
<path d="M16843 14547
L16762 14467
" />
<path d="M16802 14507
L16944 14366
L16910 14372
L16883 14372
L16863 14366
" />
<path d="M17058 14574
L16964 14669
" />
<path d="M16998 14514
L16924 14588
L16917 14608
L16924 14628
L16944 14648
L16964 14655
L16977 14655
" />
<path d="M17152 14709
L17105 14662
" />
<path d="M17031 14736
L17173 14595
L17240 14662
" />
<path d="M10478 19733
L10399 19654
" />
<path d="M10438 19693
L10578 19554
L10544 19561
L10518 19561
L10498 19554
" />
<path d="M10538 19793
L10677 19654
" />
<path d="M10604 19753
L10591 19846
" />
<path d="M10684 19753
L10578 19753
" />
<path d="M20517 9552
L20517 9667
" />
<path d="M20517 9610
L20317 9610
L20346 9629
L20365 9648
L20374 9667
" />
<path d="M20384 9381
L20517 9381
" />
<path d="M20384 9467
L20488 9467
L20507 9457
L20517 9438
L20517 9410
L20507 9391
L20498 9381
" />
<path d="M20412 9219
L20412 9286
" />
<path d="M20517 9286
L20317 9286
L20317 9191
" />
<path d="M18945 11031
L18864 10951
" />
<path d="M18904 10991
L19046 10850
L19012 10856
L18985 10856
L18965 10850
" />
<path d="M19160 11058
L19066 11153
" />
<path d="M19100 10998
L19025 11072
L19019 11092
L19025 11112
L19046 11132
L19066 11139
L19079 11139
" />
<path d="M19254 11193
L19207 11146
" />
<path d="M19133 11220
L19275 11079
L19342 11146
" />
<path d="M20641 19039
L20560 18959
" />
<path d="M20601 18999
L20742 18858
L20709 18864
L20682 18864
L20662 18858
" />
<path d="M20702 19100
L20843 18959
" />
<path d="M20769 19060
L20756 19154
" />
<path d="M20850 19060
L20742 19060
" />
<path d="M19273 20568
L19192 20487
" />
<path d="M19232 20528
L19374 20386
L19340 20393
L19313 20393
L19293 20386
" />
<path d="M19333 20629
L19475 20487
" />
<path d="M19401 20588
L19387 20683
" />
<path d="M19481 20588
L19374 20588
" />
<path d="M12970 6448
L12889 6529
" />
<path d="M12929 6489
L12788 6347
L12794 6381
L12794 6408
L12788 6428
" />
<path d="M13030 6388
L12889 6246
" />
<path d="M12990 6321
L13084 6334
" />
<path d="M12990 6240
L12990 6347
" />
<path d="M11989 7407
L11909 7487
" />
<path d="M11949 7447
L11810 7308
L11816 7341
L11816 7368
L11810 7387
" />
<path d="M12049 7348
L11909 7208
" />
<path d="M12009 7281
L12102 7295
" />
<path d="M12009 7202
L12009 7308
" />
<path d="M10910 8493
L10829 8574
" />
<path d="M10869 8534
L10728 8392
L10734 8426
L10734 8453
L10728 8473
" />
<path d="M10970 8433
L10829 8291
" />
<path d="M10930 8366
L11024 8379
" />
<path d="M10930 8285
L10930 8392
" />
<path d="M5531 13933
L5418 13933
" />
<path d="M5474 13933
L5474 13736
L5456 13764
L5437 13783
L5418 13792
" />
<path d="M5615 13933
L5615 13736
" />
<path d="M5634 13858
L5690 13933
" />
<path d="M5690 13801
L5615 13876
" />
<path d="M3137 15814
L3023 15814
" />
<path d="M3080 15814
L3080 15614
L3061 15643
L3042 15662
L3023 15671
" />
<path d="M3223 15814
L3223 15614
" />
<path d="M3242 15738
L3299 15814
" />
<path d="M3299 15681
L3223 15757
" />
<path d="M3937 15214
L3823 15214
" />
<path d="M3880 15214
L3880 15014
L3861 15043
L3842 15062
L3823 15071
" />
<path d="M4023 15214
L4023 15014
" />
<path d="M4042 15138
L4099 15214
" />
<path d="M4099 15081
L4023 15157
" />
<path d="M4737 14614
L4623 14614
" />
<path d="M4680 14614
L4680 14414
L4661 14443
L4642 14462
L4623 14471
" />
<path d="M4823 14614
L4823 14414
" />
<path d="M4842 14538
L4899 14614
" />
<path d="M4899 14481
L4823 14557
" />
</g>
<g style="fill:#00A0A0; fill-opacity:0.0; 
stroke:#00A0A0; stroke-width:39; stroke-opacity:1; 
stroke-linecap:round; stroke-linejoin:round;">
<path d="M6467 12106
L6467 11975
L6664 12106
L6664 11975
" />
<path d="M6664 11900
L6467 11900
L6467 11853
L6476 11825
L6495 11806
L6514 11797
L6551 11787
L6579 11787
L6617 11797
L6636 11806
L6654 11825
L6664 11853
L6664 11900
" />
<path d="M6467 11572
L6467 11450
L6542 11515
L6542 11487
L6551 11468
L6561 11459
L6579 11450
L6626 11450
L6645 11459
L6654 11468
L6664 11487
L6664 11543
L6654 11562
L6645 11572
" />
<path d="M6533 11384
L6664 11337
L6533 11290
" />
<path d="M6467 11234
L6467 11112
L6542 11178
L6542 11149
L6551 11131
L6561 11121
L6579 11112
L6626 11112
L6645 11121
L6654 11131
L6664 11149
L6664 11206
L6654 11224
L6645 11234
" />
</g>
<g style="fill:#00A0A0; fill-opacity:0.0; 
stroke:#00A0A0; stroke-width:80; stroke-opacity:1; 
stroke-linecap:round; stroke-linejoin:round;">
<path d="M2592 20993
L2874 20710
L2982 20818
L2996 20858
L2996 20885
L2982 20925
L2942 20966
L2901 20979
L2874 20979
L2834 20966
L2726 20858
" />
<path d="M3036 21437
L3076 21208
" />
<path d="M2874 21276
L3157 20993
L3265 21101
L3278 21141
L3278 21168
L3265 21208
L3225 21249
L3184 21262
L3157 21262
L3117 21249
L3009 21141
" />
<path d="M3494 21329
L3548 21383
L3561 21424
L3561 21478
L3521 21545
L3427 21639
L3359 21680
L3305 21680
L3265 21666
L3211 21612
L3198 21572
L3198 21518
L3238 21451
L3332 21356
L3400 21316
L3454 21316
L3494 21329
" />
<path d="M3871 21734
L3858 21693
L3817 21653
L3763 21626
L3709 21626
L3669 21639
L3602 21680
L3561 21720
L3521 21787
L3507 21828
L3507 21882
L3534 21936
L3561 21963
L3615 21989
L3642 21989
L3736 21895
L3682 21841
" />
</g>
<g style="fill:#00A0A0; fill-opacity:0.0; 
stroke:#00A0A0; stroke-width:50; stroke-opacity:1; 
stroke-linecap:round; stroke-linejoin:round;">
<path d="M3275 11514
L3209 11419
" />
<path d="M3161 11514
L3161 11314
L3237 11314
L3256 11324
L3266 11333
L3275 11352
L3275 11381
L3266 11400
L3256 11410
L3237 11419
L3161 11419
" />
<path d="M3466 11324
L3447 11314
L3418 11314
L3390 11324
L3371 11343
L3361 11362
L3352 11400
L3352 11429
L3361 11467
L3371 11486
L3390 11505
L3418 11514
L3437 11514
L3466 11505
L3475 11495
L3475 11429
L3437 11429
" />
<path d="M3628 11410
L3656 11419
L3666 11429
L3675 11448
L3675 11476
L3666 11495
L3656 11505
L3637 11514
L3561 11514
L3561 11314
L3628 11314
L3647 11324
L3656 11333
L3666 11352
L3666 11371
L3656 11391
L3647 11400
L3628 11410
L3561 11410
" />
<path d="M4009 11514
L3913 11514
L3913 11314
" />
<path d="M4075 11410
L4142 11410
" />
<path d="M4171 11514
L4075 11514
L4075 11314
L4171 11314
" />
<path d="M4256 11514
L4256 11314
L4304 11314
L4332 11324
L4352 11343
L4361 11362
L4371 11400
L4371 11429
L4361 11467
L4352 11486
L4332 11505
L4304 11514
L4256 11514
" />
</g>
<g style="fill:#00A0A0; fill-opacity:0.0; 
stroke:#00A0A0; stroke-width:59.0551; stroke-opacity:1; 
stroke-linecap:round; stroke-linejoin:round;">
<path d="M8167 8962
L7955 8750
L8177 8831
L8096 8608
L8308 8821
" />
<path d="M8409 8720
L8197 8507
" />
<path d="M8510 8619
L8298 8406
L8349 8356
L8389 8336
L8430 8336
L8460 8346
L8510 8376
L8541 8406
L8571 8457
L8581 8487
L8581 8528
L8561 8568
L8510 8619
" />
<path d="M8985 8144
L8884 8245
L8672 8033
" />
<path d="M9015 7891
L8945 7962
" />
<path d="M9056 8073
L8844 7861
L8945 7760
" />
<path d="M8995 7709
L9116 7588
" />
<path d="M9268 7861
L9056 7649
" />
</g>
<g style="fill:#00A0A0; fill-opacity:0.0; 
stroke:#00A0A0; stroke-width:50; stroke-opacity:1; 
stroke-linecap:round; stroke-linejoin:round;">
<path d="M6323 5007
L6445 4886
" />
<path d="M6596 5159
L6384 4947
" />
<path d="M6727 5027
L6515 4815
" />
<path d="M6788 4745
L6828 4724
L6849 4724
L6879 4734
L6909 4765
L6919 4795
L6919 4815
L6909 4846
L6828 4926
L6616 4714
L6687 4644
L6717 4633
L6738 4633
L6768 4644
L6788 4664
L6798 4694
L6798 4714
L6788 4745
L6717 4815
" />
<path d="M5748 5785
L5677 5856
" />
<path d="M5788 5967
L5576 5755
L5677 5654
" />
<path d="M5859 5674
L5929 5603
" />
<path d="M6071 5684
L5970 5785
L5758 5573
L5859 5472
" />
<path d="M6162 5593
L5950 5381
L6172 5462
L6091 5240
L6303 5452
" />
<path d="M5172 6543
L5172 6563
L5152 6603
L5131 6623
L5091 6644
L5051 6644
L5020 6634
L4970 6603
L4939 6573
L4909 6522
L4899 6492
L4899 6452
L4919 6411
L4939 6391
L4980 6371
L5000 6371
" />
<path d="M5111 6219
L5152 6179
L5182 6169
L5222 6169
L5273 6199
L5344 6270
L5374 6320
L5374 6361
L5364 6391
L5323 6432
L5293 6442
L5253 6442
L5202 6411
L5131 6341
L5101 6290
L5101 6250
L5111 6219
" />
<path d="M5273 6058
L5626 6128
" />
<path d="M5414 5916
L5485 6270
" />
</g>
<g style="fill:#00A0A0; fill-opacity:0.0; 
stroke:#00A0A0; stroke-width:59.0551; stroke-opacity:1; 
stroke-linecap:round; stroke-linejoin:round;">
<path d="M10135 6771
L10065 6842
" />
<path d="M10176 6953
L9964 6741
L10065 6640
" />
<path d="M10479 6650
L10307 6620
" />
<path d="M10358 6771
L10146 6559
L10226 6478
L10257 6468
L10277 6468
L10307 6478
L10337 6509
L10348 6539
L10348 6559
L10337 6589
L10257 6670
" />
<path d="M10570 6559
L10358 6347
L10691 6438
L10479 6226
" />
<path d="M10550 6155
L10671 6034
" />
<path d="M10822 6307
L10610 6094
" />
<path d="M11216 5913
L11115 6014
L10903 5802
" />
<path d="M11247 5660
L11176 5731
" />
<path d="M11287 5842
L11075 5630
L11176 5529
" />
<path d="M11226 5478
L11348 5357
" />
<path d="M11499 5630
L11287 5418
" />
</g>
<g style="fill:#00A0A0; fill-opacity:0.0; 
stroke:#00A0A0; stroke-width:50; stroke-opacity:1; 
stroke-linecap:round; stroke-linejoin:round;">
<path d="M8443 2887
L8565 2766
" />
<path d="M8716 3039
L8504 2827
" />
<path d="M8847 2907
L8635 2695
" />
<path d="M8908 2625
L8948 2604
L8969 2604
L8999 2614
L9029 2645
L9039 2675
L9039 2695
L9029 2726
L8948 2806
L8736 2594
L8807 2524
L8837 2513
L8858 2513
L8888 2524
L8908 2544
L8918 2574
L8918 2594
L8908 2625
L8837 2695
" />
<path d="M7868 3665
L7797 3736
" />
<path d="M7908 3847
L7696 3635
L7797 3534
" />
<path d="M7979 3554
L8049 3483
" />
<path d="M8191 3564
L8090 3665
L7878 3453
L7979 3352
" />
<path d="M8282 3473
L8070 3261
L8292 3342
L8211 3120
L8423 3332
" />
<path d="M7292 4423
L7292 4443
L7272 4483
L7251 4503
L7211 4524
L7171 4524
L7140 4514
L7090 4483
L7059 4453
L7029 4402
L7019 4372
L7019 4332
L7039 4291
L7059 4271
L7100 4251
L7120 4251
" />
<path d="M7231 4099
L7272 4059
L7302 4049
L7342 4049
L7393 4079
L7464 4150
L7494 4200
L7494 4241
L7484 4271
L7443 4312
L7413 4322
L7373 4322
L7322 4291
L7251 4221
L7221 4170
L7221 4130
L7231 4099
" />
<path d="M7393 3938
L7746 4008
" />
<path d="M7534 3796
L7605 4150
" />
</g>
<g style="fill:#00A0A0; fill-opacity:0.0; 
stroke:#00A0A0; stroke-width:59.0551; stroke-opacity:1; 
stroke-linecap:round; stroke-linejoin:round;">
<path d="M6374 10716
L6203 10686
" />
<path d="M6253 10837
L6041 10625
L6122 10544
L6152 10534
L6172 10534
L6203 10544
L6233 10575
L6243 10605
L6243 10625
L6233 10655
L6152 10736
" />
<path d="M6354 10514
L6425 10443
" />
<path d="M6566 10524
L6465 10625
L6253 10413
L6354 10312
" />
<path d="M6586 10383
L6687 10282
" />
<path d="M6627 10463
L6485 10181
L6768 10322
" />
<path d="M6960 10130
L6788 10100
" />
<path d="M6839 10251
L6627 10039
L6708 9958
L6738 9948
L6758 9948
L6788 9958
L6819 9989
L6829 10019
L6829 10039
L6819 10069
L6738 10150
" />
<path d="M7314 9777
L7213 9878
L7001 9665
" />
<path d="M7344 9524
L7273 9595
" />
<path d="M7384 9706
L7172 9494
L7273 9393
" />
<path d="M7324 9342
L7445 9221
" />
<path d="M7597 9494
L7384 9282
" />
</g>
<g style="fill:#00A0A0; fill-opacity:0.0; 
stroke:#00A0A0; stroke-width:50; stroke-opacity:1; 
stroke-linecap:round; stroke-linejoin:round;">
<path d="M4203 7127
L4325 7006
" />
<path d="M4476 7279
L4264 7067
" />
<path d="M4607 7147
L4395 6935
" />
<path d="M4668 6865
L4708 6844
L4729 6844
L4759 6854
L4789 6885
L4799 6915
L4799 6935
L4789 6966
L4708 7046
L4496 6834
L4567 6764
L4597 6753
L4618 6753
L4648 6764
L4668 6784
L4678 6814
L4678 6834
L4668 6865
L4597 6935
" />
<path d="M3628 7905
L3557 7976
" />
<path d="M3668 8087
L3456 7875
L3557 7774
" />
<path d="M3739 7794
L3809 7723
" />
<path d="M3951 7804
L3850 7905
L3638 7693
L3739 7592
" />
<path d="M4042 7713
L3830 7501
L4052 7582
L3971 7360
L4183 7572
" />
<path d="M3052 8663
L3052 8683
L3032 8723
L3011 8743
L2971 8764
L2931 8764
L2900 8754
L2850 8723
L2819 8693
L2789 8642
L2779 8612
L2779 8572
L2799 8531
L2819 8511
L2860 8491
L2880 8491
" />
<path d="M2991 8339
L3032 8299
L3062 8289
L3102 8289
L3153 8319
L3224 8390
L3254 8440
L3254 8481
L3244 8511
L3203 8552
L3173 8562
L3133 8562
L3082 8531
L3011 8461
L2981 8410
L2981 8370
L2991 8339
" />
<path d="M3153 8178
L3506 8248
" />
<path d="M3294 8036
L3365 8390
" />
</g>
<g style="fill:#00A0A0; fill-opacity:0.0; 
stroke:#00A0A0; stroke-width:59.0551; stroke-opacity:1; 
stroke-linecap:round; stroke-linejoin:round;">
<path d="M17887 13731
L17817 13801
" />
<path d="M17928 13912
L17716 13700
L17817 13599
" />
<path d="M18231 13609
L18059 13579
" />
<path d="M18110 13731
L17898 13518
L17978 13438
L18009 13428
L18029 13428
L18059 13438
L18089 13468
L18100 13498
L18100 13518
L18089 13549
L18009 13630
" />
<path d="M18322 13518
L18110 13306
L18443 13397
L18231 13185
" />
<path d="M18302 13114
L18423 12993
" />
<path d="M18574 13266
L18362 13054
" />
<path d="M18989 12852
L18817 12821
" />
<path d="M18867 12973
L18655 12761
L18736 12680
L18766 12670
L18786 12670
L18817 12680
L18847 12710
L18857 12741
L18857 12761
L18847 12791
L18766 12872
" />
<path d="M18989 12448
L18958 12458
L18928 12488
L18908 12529
L18908 12569
L18918 12599
L18948 12650
L18978 12680
L19029 12710
L19059 12720
L19100 12720
L19140 12700
L19160 12680
L19180 12640
L19180 12619
L19110 12549
L19069 12589
" />
<path d="M19049 12367
L19170 12246
" />
<path d="M19322 12518
L19110 12306
" />
</g>
<g style="fill:#00A0A0; fill-opacity:0.0; 
stroke:#00A0A0; stroke-width:50; stroke-opacity:1; 
stroke-linecap:round; stroke-linejoin:round;">
<path d="M21376 15417
L21497 15296
" />
<path d="M21649 15569
L21437 15357
" />
<path d="M21780 15437
L21568 15225
" />
<path d="M21841 15154
L21881 15134
L21901 15134
L21932 15144
L21962 15175
L21972 15205
L21972 15225
L21962 15256
L21881 15336
L21669 15124
L21740 15053
L21770 15043
L21790 15043
L21821 15053
L21841 15074
L21851 15104
L21851 15124
L21841 15154
L21770 15225
" />
<path d="M20800 16195
L20730 16266
" />
<path d="M20841 16377
L20629 16165
L20730 16064
" />
<path d="M20911 16084
L20982 16013
" />
<path d="M21124 16094
L21022 16195
L20810 15983
L20911 15882
" />
<path d="M21214 16003
L21002 15791
L21225 15872
L21144 15649
L21356 15862
" />
<path d="M20224 16953
L20224 16973
L20204 17013
L20184 17033
L20144 17054
L20103 17054
L20073 17043
L20022 17013
L19992 16983
L19962 16932
L19952 16902
L19952 16862
L19972 16821
L19992 16801
L20033 16781
L20053 16781
" />
<path d="M20164 16629
L20204 16589
L20235 16579
L20275 16579
L20325 16609
L20396 16680
L20426 16730
L20426 16771
L20416 16801
L20376 16841
L20346 16852
L20305 16852
L20255 16821
L20184 16751
L20154 16700
L20154 16660
L20164 16629
" />
<path d="M20325 16468
L20679 16538
" />
<path d="M20467 16326
L20538 16680
" />
</g>
<g style="fill:#00A0A0; fill-opacity:0.0; 
stroke:#00A0A0; stroke-width:59.0551; stroke-opacity:1; 
stroke-linecap:round; stroke-linejoin:round;">
<path d="M15299 16561
L15087 16349
L15309 16430
L15228 16208
L15440 16420
" />
<path d="M15541 16319
L15329 16107
" />
<path d="M15642 16218
L15430 16006
L15481 15955
L15521 15935
L15562 15935
L15592 15945
L15642 15975
L15673 16006
L15703 16056
L15713 16087
L15713 16127
L15693 16167
L15642 16218
" />
<path d="M16137 15723
L15966 15693
" />
<path d="M16016 15844
L15804 15632
L15885 15551
L15915 15541
L15935 15541
L15966 15551
L15996 15581
L16006 15612
L16006 15632
L15996 15662
L15915 15743
" />
<path d="M16137 15319
L16107 15329
L16077 15359
L16057 15400
L16057 15440
L16067 15470
L16097 15521
L16127 15551
L16178 15581
L16208 15592
L16249 15592
L16289 15571
L16309 15551
L16329 15511
L16329 15491
L16259 15420
L16218 15460
" />
<path d="M16198 15238
L16319 15117
" />
<path d="M16471 15390
L16259 15177
" />
</g>
<g style="fill:#00A0A0; fill-opacity:0.0; 
stroke:#00A0A0; stroke-width:50; stroke-opacity:1; 
stroke-linecap:round; stroke-linejoin:round;">
<path d="M19256 17537
L19377 17416
" />
<path d="M19529 17689
L19317 17477
" />
<path d="M19660 17557
L19448 17345
" />
<path d="M19721 17274
L19761 17254
L19781 17254
L19812 17264
L19842 17295
L19852 17325
L19852 17345
L19842 17376
L19761 17456
L19549 17244
L19620 17173
L19650 17163
L19670 17163
L19701 17173
L19721 17194
L19731 17224
L19731 17244
L19721 17274
L19650 17345
" />
<path d="M18680 18315
L18610 18386
" />
<path d="M18721 18497
L18509 18285
L18610 18184
" />
<path d="M18791 18204
L18862 18133
" />
<path d="M19004 18214
L18902 18315
L18690 18103
L18791 18002
" />
<path d="M19094 18123
L18882 17911
L19105 17992
L19024 17769
L19236 17982
" />
<path d="M18104 19073
L18104 19093
L18084 19133
L18064 19153
L18024 19174
L17983 19174
L17953 19163
L17902 19133
L17872 19103
L17842 19052
L17832 19022
L17832 18982
L17852 18941
L17872 18921
L17913 18901
L17933 18901
" />
<path d="M18044 18749
L18084 18709
L18115 18699
L18155 18699
L18205 18729
L18276 18800
L18306 18850
L18306 18891
L18296 18921
L18256 18961
L18226 18972
L18185 18972
L18135 18941
L18064 18871
L18034 18820
L18034 18780
L18044 18749
" />
<path d="M18205 18588
L18559 18658
" />
<path d="M18347 18446
L18418 18800
" />
</g>
<g style="fill:#00A0A0; fill-opacity:0.0; 
stroke:#00A0A0; stroke-width:59.0551; stroke-opacity:1; 
stroke-linecap:round; stroke-linejoin:round;">
<path d="M13159 18701
L12987 18671
" />
<path d="M13038 18823
L12826 18610
L12906 18530
L12937 18519
L12957 18519
L12987 18530
L13018 18560
L13028 18590
L13028 18610
L13018 18641
L12937 18722
" />
<path d="M13139 18499
L13209 18429
" />
<path d="M13351 18509
L13250 18610
L13038 18398
L13139 18297
" />
<path d="M13371 18368
L13472 18267
" />
<path d="M13411 18449
L13270 18166
L13553 18307
" />
<path d="M13745 18115
L13573 18085
" />
<path d="M13624 18237
L13411 18024
L13492 17944
L13523 17934
L13543 17934
L13573 17944
L13603 17974
L13614 18004
L13614 18024
L13603 18055
L13523 18136
" />
<path d="M14119 17742
L13947 17711
" />
<path d="M13997 17863
L13785 17651
L13866 17570
L13896 17560
L13917 17560
L13947 17570
L13977 17600
L13987 17631
L13987 17651
L13977 17681
L13896 17762
" />
<path d="M14119 17338
L14088 17348
L14058 17378
L14038 17418
L14038 17459
L14048 17489
L14078 17540
L14109 17570
L14159 17600
L14189 17610
L14230 17610
L14270 17590
L14290 17570
L14311 17530
L14311 17509
L14240 17439
L14199 17479
" />
<path d="M14179 17257
L14300 17136
" />
<path d="M14452 17408
L14240 17196
" />
</g>
<g style="fill:#00A0A0; fill-opacity:0.0; 
stroke:#00A0A0; stroke-width:50; stroke-opacity:1; 
stroke-linecap:round; stroke-linejoin:round;">
<path d="M17136 19657
L17257 19536
" />
<path d="M17409 19809
L17197 19597
" />
<path d="M17540 19677
L17328 19465
" />
<path d="M17601 19394
L17641 19374
L17661 19374
L17692 19384
L17722 19415
L17732 19445
L17732 19465
L17722 19496
L17641 19576
L17429 19364
L17500 19293
L17530 19283
L17550 19283
L17581 19293
L17601 19314
L17611 19344
L17611 19364
L17601 19394
L17530 19465
" />
<path d="M16560 20435
L16490 20506
" />
<path d="M16601 20617
L16389 20405
L16490 20304
" />
<path d="M16671 20324
L16742 20253
" />
<path d="M16884 20334
L16782 20435
L16570 20223
L16671 20122
" />
<path d="M16974 20243
L16762 20031
L16985 20112
L16904 19889
L17116 20102
" />
<path d="M15984 21193
L15984 21213
L15964 21253
L15944 21273
L15904 21294
L15863 21294
L15833 21283
L15782 21253
L15752 21223
L15722 21172
L15712 21142
L15712 21102
L15732 21061
L15752 21041
L15793 21021
L15813 21021
" />
<path d="M15924 20869
L15964 20829
L15995 20819
L16035 20819
L16085 20849
L16156 20920
L16186 20970
L16186 21011
L16176 21041
L16136 21081
L16106 21092
L16065 21092
L16015 21061
L15944 20991
L15914 20940
L15914 20900
L15924 20869
" />
<path d="M16085 20708
L16439 20778
" />
<path d="M16227 20566
L16298 20920
" />
</g>
<g style="fill:#00A0A0; fill-opacity:0.0; 
stroke:#00A0A0; stroke-width:59.0551; stroke-opacity:1; 
stroke-linecap:round; stroke-linejoin:round;">
<path d="M20261.6 12283.9 A300 300 0.0 0 0 20561.6 12583.9 " />
<path d="M20261 12283
L20261 11183
" />
<path d="M20561 12583
L21661 12583
" />
<path d="M21061 11183
L21661 11783
" />
<path d="M11821 19970
L11821 19773
" />
<path d="M11821 20954
L11821 20757
" />
<path d="M11821 20954.4 A835.165 835.165 0.0 1 0 11821 19773.3 " />
<path d="M17488 3471
L3699 17260
" />
<path d="M3699 17260
L7235 20795
" />
<path d="M7235 20795
L21023 7007
" />
<path d="M19786 5769
L19255 6300
" />
<path d="M19255 6300
L18195 5239
" />
<path d="M18195 5239
L18725 4709
" />
<path d="M21023 7007
L17488 3471
" />
<path d="M9275 9755
L7883 11147
" />
<path d="M7048 10312
L8439 8920
" />
<path d="M9275.12 9755.48 A590.551 590.551 0.0 0 0 8439.96 8920.32 " />
<path d="M7048.01 10312.3 A590.551 590.551 0.0 0 0 7883.18 11147.4 " />
</g>
<g style="fill:#00A0A0; fill-opacity:0.0; 
stroke:#00A0A0; stroke-width:39; stroke-opacity:1; 
stroke-linecap:round; stroke-linejoin:round;">
<path d="M17082 14937
L16799 15220
" />
<path d="M16799 15220
L16375 14796
" />
<path d="M16375 14796
L16658 14513
" />
<path d="M16940 14230
L17223 13947
" />
<path d="M17223 13947
L17647 14371
" />
<path d="M17647 14371
L17365 14654
" />
<path d="M9860 19960
L10143 19677
" />
<path d="M10143 19677
L10567 20101
" />
<path d="M10567 20101
L10285 20384
" />
<path d="M10002 20667
L9719 20950
" />
<path d="M9719 20950
L9295 20526
" />
<path d="M9295 20526
L9578 20243
" />
<path d="M21061 9733
L20661 9733
" />
<path d="M20661 9733
L20661 9133
" />
<path d="M20661 9133
L21061 9133
" />
<path d="M21461 9133
L21861 9133
" />
<path d="M21861 9133
L21861 9733
" />
<path d="M21861 9733
L21461 9733
" />
<path d="M19762 10827
L19479 11110
" />
<path d="M19479 11110
L19055 10686
" />
<path d="M19055 10686
L19338 10403
" />
<path d="M19620 10120
L19903 9837
" />
<path d="M19903 9837
L20327 10261
" />
<path d="M20327 10261
L20045 10544
" />
<path d="M21210 18080
L21493 17797
" />
<path d="M21493 17797
L21917 18221
" />
<path d="M21917 18221
L21635 18504
" />
<path d="M21352 18787
L21069 19070
" />
<path d="M21069 19070
L20645 18646
" />
<path d="M20645 18646
L20928 18363
" />
<path d="M18852 21447
L18569 21730
" />
<path d="M18569 21730
L18145 21306
" />
<path d="M18145 21306
L18428 21023
" />
<path d="M18710 20740
L18993 20457
" />
<path d="M18993 20457
L19417 20881
" />
<path d="M19417 20881
L19135 21164
" />
<path d="M12483 5671
L12766 5388
" />
<path d="M12766 5388
L13191 5812
" />
<path d="M13191 5812
L12908 6095
" />
<path d="M12625 6378
L12342 6661
" />
<path d="M12342 6661
L11918 6237
" />
<path d="M11918 6237
L12201 5954
" />
<path d="M11645 7338
L11362 7621
" />
<path d="M11362 7621
L10938 7197
" />
<path d="M10938 7197
L11221 6914
" />
<path d="M11503 6631
L11786 6348
" />
<path d="M11786 6348
L12211 6772
" />
<path d="M12211 6772
L11928 7055
" />
<path d="M10423 7691
L10706 7408
" />
<path d="M10706 7408
L11131 7832
" />
<path d="M11131 7832
L10848 8115
" />
<path d="M10565 8398
L10282 8681
" />
<path d="M10282 8681
L9858 8257
" />
<path d="M9858 8257
L10141 7974
" />
<path d="M5854 13204
L5854 13604
" />
<path d="M5854 13604
L5254 13604
" />
<path d="M5254 13604
L5254 13204
" />
<path d="M5254 12804
L5254 12404
" />
<path d="M5254 12404
L5854 12404
" />
<path d="M5854 12404
L5854 12804
" />
<path d="M3461 15033
L3461 15433
" />
<path d="M3461 15433
L2861 15433
" />
<path d="M2861 15433
L2861 15033
" />
<path d="M2861 14633
L2861 14233
" />
<path d="M2861 14233
L3461 14233
" />
<path d="M3461 14233
L3461 14633
" />
<path d="M4261 14433
L4261 14833
" />
<path d="M4261 14833
L3661 14833
" />
<path d="M3661 14833
L3661 14433
" />
<path d="M3661 14033
L3661 13633
" />
<path d="M3661 13633
L4261 13633
" />
<path d="M4261 13633
L4261 14033
" />
<path d="M5061 13833
L5061 14233
" />
<path d="M5061 14233
L4461 14233
" />
<path d="M4461 14233
L4461 13833
" />
<path d="M4461 13433
L4461 13033
" />
<path d="M4461 13033
L5061 13033
" />
<path d="M5061 13033
L5061 13433
" />
</g>
<g style="fill:#00A0A0; fill-opacity:0.0; 
stroke:#00A0A0; stroke-width:31; stroke-opacity:1; 
stroke-linecap:round; stroke-linejoin:round;">
<circle cx="5802.64" cy="12047.9" r="62.6256" /> 
<path d="M5464 11084
L5864 11084
" />
<path d="M5464 12109
L5864 12109
" />
<path d="M5864 11084
L5864 12109
" />
<path d="M5464 12109
L5464 11084
" />
</g>
<g style="fill:#00A0A0; fill-opacity:0.0; 
stroke:#00A0A0; stroke-width:59.0551; stroke-opacity:1; 
stroke-linecap:round; stroke-linejoin:round;">
<circle cx="3761.57" cy="12033.9" r="1000" /> 
</g>
<g style="fill:#00A0A0; fill-opacity:1.0; 
stroke:#00A0A0; stroke-width:1; stroke-opacity:1; 
stroke-linecap:round; stroke-linejoin:round;">
<polyline style="fill-rule:evenodd;"
points="4177,6712
4177,6730
4177,6750
4158,6769
4120,6731
4081,6692
4043,6654
4005,6692
3966,6731
4004,6769
4043,6808
4082,6769
4120,6731
4158,6769
4119,6808
4062,6865
4042,6865
4024,6865
3966,6807
3909,6750
3908,6731
3909,6712
3967,6654
4024,6596
4043,6596
4062,6596
4119,6654
4177,6712
4177,6712
" /> 
<polyline style="fill-rule:evenodd;"
points="4341,6548
4340,6567
4341,6586
4322,6606
4206,6490
4167,6529
4129,6567
4167,6606
4206,6644
4244,6606
4282,6567
4245,6529
4206,6490
4322,6606
4283,6644
4225,6702
4206,6702
4187,6702
4129,6644
4071,6585
4071,6567
4071,6549
4129,6491
4187,6433
4206,6433
4225,6433
4283,6490
4341,6548
4341,6548
" /> 
<polyline style="fill-rule:evenodd;"
points="4503,6384
4503,6404
4503,6424
4484,6443
4446,6405
4407,6366
4369,6328
4331,6366
4293,6404
4331,6442
4370,6481
4408,6443
4446,6405
4484,6443
4446,6481
4389,6538
4369,6538
4349,6538
4292,6481
4235,6424
4234,6405
4235,6386
4293,6328
4351,6270
4369,6270
4389,6270
4446,6327
4503,6384
4503,6384
" /> 
<polyline style="fill-rule:evenodd;"
points="4667,6222
4666,6241
4667,6261
4648,6280
4609,6241
4571,6203
4532,6164
4493,6203
4455,6241
4493,6279
4501,6287
4508,6294
4515,6301
4520,6306
4525,6311
4529,6315
4531,6317
4532,6318
4533,6316
4535,6314
4539,6311
4544,6306
4550,6301
4556,6294
4564,6287
4571,6280
4609,6241
4648,6280
4609,6319
4551,6376
4532,6376
4513,6376
4455,6318
4398,6261
4397,6241
4398,6222
4456,6164
4514,6106
4532,6106
4551,6106
4609,6164
4667,6222
4667,6222
" /> 
<polyline style="fill-rule:evenodd;"
points="4830,6059
4829,6078
4830,6097
4811,6116
4773,6078
4734,6039
4696,6001
4657,6040
4618,6079
4656,6117
4695,6156
4734,6117
4773,6078
4811,6116
4772,6155
4714,6213
4695,6212
4676,6213
4618,6155
4561,6098
4561,6078
4561,6059
4619,6002
4677,5944
4695,5944
4715,5944
4772,6001
4830,6059
4830,6059
" /> 
<polyline style="fill-rule:evenodd;"
points="5855,4491
5855,4492
5857,4495
5860,4498
5864,4505
5869,4512
5876,4520
5882,4529
5889,4539
5897,4549
5905,4560
5913,4571
5921,4583
5930,4595
5939,4607
5947,4619
5955,4630
5963,4641
5970,4650
5976,4660
5982,4668
5988,4675
5992,4681
5995,4686
5997,4689
5998,4690
6005,4702
6008,4714
6009,4715
5840,4546
5839,4545
5838,4546
5836,4546
5834,4549
5831,4552
5826,4556
5820,4563
5819,4564
5812,4571
5806,4577
5801,4582
5798,4586
5796,4590
5795,4592
5793,4595
5792,4599
5792,4600
5792,4605
5792,4612
5794,4619
5796,4626
5797,4631
5802,4638
5806,4646
5812,4655
5819,4665
5826,4675
5834,4684
5841,4691
5849,4696
5856,4699
5863,4701
5870,4699
5874,4697
5877,4695
5881,4691
5886,4687
5891,4682
5894,4677
5897,4672
5900,4668
5903,4663
5907,4658
5910,4654
5911,4650
5912,4648
5912,4648
5912,4646
5910,4644
5907,4640
5903,4634
5899,4628
5894,4621
5888,4612
5882,4604
5876,4596
5870,4588
5864,4580
5858,4571
5853,4565
5849,4558
5845,4553
5842,4549
5841,4546
5840,4546
6009,4715
6011,4725
6011,4737
6009,4749
6007,4753
6005,4758
6004,4762
6001,4766
5997,4771
5994,4776
5989,4781
5983,4787
5976,4793
5968,4800
5958,4808
5947,4818
5946,4819
5938,4825
5931,4831
5924,4836
5918,4841
5914,4843
5911,4846
5910,4848
5910,4848
5908,4846
5906,4844
5903,4841
5901,4837
5900,4836
5891,4825
5926,4789
5962,4753
5964,4747
5966,4738
5966,4730
5964,4721
5962,4718
5961,4715
5959,4712
5956,4707
5952,4702
5949,4696
5944,4690
5941,4685
5937,4680
5935,4677
5932,4675
5932,4674
5931,4675
5930,4678
5929,4682
5927,4683
5924,4692
5920,4699
5917,4705
5913,4711
5906,4717
5901,4722
5896,4728
5892,4731
5889,4734
5886,4736
5884,4738
5881,4740
5872,4743
5863,4744
5854,4745
5849,4744
5844,4744
5839,4742
5833,4739
5829,4737
5826,4735
5824,4733
5820,4731
5817,4728
5813,4724
5808,4719
5805,4716
5790,4701
5779,4686
5768,4671
5761,4656
5755,4641
5752,4631
5751,4624
5750,4614
5751,4605
5752,4597
5753,4592
5756,4585
5759,4577
5764,4569
5768,4563
5770,4561
5774,4556
5780,4552
5785,4546
5792,4540
5799,4534
5806,4529
5812,4523
5818,4518
5818,4518
5823,4515
5828,4511
5833,4507
5838,4503
5843,4498
5848,4496
5851,4493
5854,4492
5855,4491
5855,4491
" /> 
<polyline style="fill-rule:evenodd;"
points="5237,5206
5244,5213
5251,5222
5259,5232
5264,5238
5271,5250
5278,5261
5283,5271
5286,5282
5289,5292
5289,5293
5290,5306
5290,5318
5290,5321
5206,5237
5201,5233
5196,5228
5191,5225
5191,5225
5183,5221
5176,5220
5169,5220
5163,5222
5142,5244
5121,5265
5157,5315
5163,5324
5169,5334
5175,5342
5181,5349
5186,5355
5189,5360
5192,5365
5193,5366
5194,5367
5196,5367
5199,5366
5204,5364
5209,5362
5215,5358
5220,5355
5225,5350
5228,5348
5230,5345
5234,5341
5237,5338
5238,5337
5244,5329
5246,5321
5247,5312
5247,5303
5244,5295
5242,5290
5238,5282
5233,5274
5228,5266
5223,5259
5220,5254
5216,5249
5211,5244
5206,5237
5290,5321
5287,5331
5282,5341
5274,5352
5264,5363
5256,5370
5244,5379
5233,5386
5224,5391
5222,5391
5218,5393
5215,5394
5214,5395
5214,5395
5215,5396
5217,5399
5219,5403
5223,5408
5227,5414
5232,5422
5238,5429
5244,5437
5250,5445
5255,5453
5261,5461
5266,5468
5271,5474
5275,5480
5278,5484
5279,5487
5280,5488
5280,5489
5278,5491
5275,5494
5271,5498
5266,5503
5265,5504
5249,5520
5248,5518
5247,5517
5245,5514
5242,5509
5237,5503
5232,5495
5225,5487
5218,5477
5210,5465
5202,5454
5193,5440
5182,5427
5172,5413
5162,5398
5160,5394
5149,5379
5139,5365
5128,5352
5119,5338
5111,5326
5103,5315
5095,5305
5090,5296
5083,5288
5080,5282
5076,5277
5073,5274
5073,5272
5073,5272
5073,5271
5075,5268
5077,5265
5078,5264
5085,5254
5095,5243
5104,5232
5114,5220
5124,5210
5131,5203
5137,5198
5141,5193
5145,5190
5147,5188
5149,5186
5152,5184
5152,5184
5161,5179
5168,5177
5176,5176
5179,5175
5189,5177
5199,5179
5209,5184
5220,5190
5230,5198
5237,5206
5237,5206
" /> 
<polyline style="fill-rule:evenodd;"
points="5329,4877
5329,4878
5331,4881
5332,4887
5335,4894
5338,4902
5341,4912
5346,4924
5350,4937
5354,4951
5360,4967
5365,4983
5371,5000
5377,5018
5384,5037
5387,5046
5445,5216
5429,5232
5413,5250
5410,5242
5409,5239
5408,5237
5406,5230
5404,5222
5400,5213
5396,5203
5392,5190
5387,5177
5382,5162
5377,5146
5371,5129
5365,5111
5359,5093
5353,5074
5352,5072
5296,4910
5313,4893
5318,4888
5322,4884
5326,4880
5328,4878
5329,4877
5329,4877
5329,4877
" /> 
<polyline style="fill-rule:evenodd;"
points="5447,4760
5448,4761
5449,4764
5451,4769
5453,4777
5456,4785
5460,4795
5464,4807
5468,4820
5473,4835
5478,4851
5483,4867
5490,4884
5496,4902
5503,4921
5505,4930
5563,5099
5546,5115
5531,5132
5521,5104
5519,5099
5517,5092
5514,5084
5510,5073
5506,5062
5502,5049
5497,5034
5492,5020
5487,5003
5481,4986
5475,4969
5469,4951
5463,4934
5414,4792
5430,4776
5437,4769
5442,4764
5445,4761
5447,4759
5447,4760
5447,4760
" /> 
<polyline style="fill-rule:evenodd;"
points="6814,3590
6823,3600
6829,3610
6834,3621
6836,3631
6837,3641
6837,3649
6835,3656
6833,3661
6830,3670
6787,3626
6781,3622
6776,3619
6770,3619
6769,3619
6763,3622
6758,3627
6751,3631
6745,3638
6743,3641
6737,3648
6733,3656
6731,3662
6729,3669
6730,3675
6732,3683
6735,3692
6740,3701
6746,3711
6748,3713
6748,3714
6749,3714
6751,3713
6753,3712
6755,3709
6759,3706
6764,3701
6768,3697
6774,3691
6777,3686
6782,3682
6784,3678
6786,3675
6787,3674
6792,3664
6794,3655
6795,3646
6794,3638
6790,3631
6787,3626
6830,3670
6830,3672
6825,3682
6818,3692
6818,3694
6814,3699
6809,3704
6803,3710
6797,3716
6790,3723
6784,3728
6778,3732
6777,3733
6773,3735
6770,3738
6768,3739
6768,3740
6769,3741
6771,3743
6773,3747
6775,3748
6782,3755
6787,3760
6792,3763
6798,3764
6804,3764
6810,3761
6815,3757
6819,3755
6824,3750
6830,3743
6837,3737
6844,3730
6850,3722
6857,3715
6863,3708
6867,3702
6871,3697
6874,3694
6876,3690
6879,3688
6879,3688
6879,3689
6881,3691
6885,3694
6888,3699
6891,3702
6893,3706
6896,3709
6898,3711
6897,3714
6896,3716
6893,3721
6890,3726
6886,3733
6881,3739
6876,3746
6871,3752
6868,3757
6855,3771
6843,3784
6834,3792
6825,3799
6819,3804
6812,3807
6804,3809
6798,3810
6795,3810
6787,3808
6778,3805
6770,3801
6761,3796
6752,3788
6746,3782
6737,3773
6729,3762
6720,3750
6712,3739
6705,3726
6698,3716
6693,3704
6690,3694
6688,3685
6687,3675
6688,3662
6693,3651
6698,3638
6705,3627
6710,3622
6714,3616
6721,3610
6727,3603
6734,3598
6739,3593
6743,3590
6755,3583
6765,3578
6774,3575
6783,3574
6788,3575
6795,3576
6801,3579
6806,3583
6812,3588
6814,3590
6814,3590
" /> 
<polyline style="fill-rule:evenodd;"
points="5585,4613
5585,4614
5588,4616
5591,4621
5595,4626
5600,4634
5606,4642
5614,4652
5622,4663
5630,4675
5640,4688
5650,4702
5659,4716
5670,4731
5674,4736
5763,4858
5751,4871
5749,4872
5637,4760
5636,4759
5634,4760
5631,4761
5627,4764
5623,4767
5618,4771
5614,4773
5611,4775
5607,4778
5602,4782
5597,4787
5595,4789
5591,4793
5588,4796
5586,4800
5585,4802
5584,4805
5582,4810
5582,4817
5585,4825
5587,4834
5592,4843
5599,4853
5601,4857
5608,4867
5614,4876
5621,4884
5628,4891
5630,4894
5635,4898
5639,4901
5643,4903
5645,4904
5646,4905
5653,4906
5659,4906
5665,4904
5666,4904
5669,4901
5673,4897
5677,4892
5681,4887
5685,4882
5686,4880
5688,4877
5691,4872
5693,4868
5696,4862
5698,4857
5700,4853
5701,4850
5701,4848
5702,4848
5701,4847
5698,4844
5696,4840
5692,4835
5687,4829
5682,4821
5675,4812
5669,4804
5663,4795
5657,4787
5651,4778
5646,4772
5643,4767
5638,4763
5637,4760
5749,4872
5738,4884
5729,4880
5725,4877
5722,4875
5720,4875
5720,4874
5720,4875
5719,4877
5717,4882
5717,4882
5715,4889
5712,4899
5709,4907
5705,4915
5703,4919
5698,4925
5693,4932
5688,4938
5682,4942
5679,4945
5669,4950
5659,4952
5650,4953
5640,4952
5638,4951
5632,4949
5625,4945
5616,4940
5608,4935
5606,4933
5597,4926
5589,4916
5580,4906
5572,4894
5564,4882
5557,4870
5551,4858
5548,4852
5544,4839
5541,4829
5541,4818
5541,4808
5544,4798
5548,4788
5548,4788
5551,4784
5553,4781
5555,4777
5558,4774
5562,4770
5575,4759
5588,4748
5603,4740
5610,4736
5614,4735
5616,4734
5618,4732
5618,4732
5617,4732
5615,4728
5612,4724
5609,4719
5604,4713
5597,4705
5592,4696
5586,4688
5553,4644
5569,4629
5574,4624
5578,4619
5582,4616
5584,4614
5585,4613
5585,4613
" /> 
<polyline style="fill-rule:evenodd;"
points="6171,4197
6174,4200
6178,4204
6181,4208
6186,4215
6192,4222
6198,4230
6205,4241
6214,4252
6221,4262
6229,4274
6238,4285
6246,4294
6253,4304
6258,4312
6265,4320
6270,4327
6273,4332
6275,4335
6277,4336
6281,4342
6269,4354
6266,4357
6150,4240
6148,4240
6145,4242
6142,4244
6140,4245
6133,4250
6126,4255
6119,4262
6113,4270
6108,4277
6104,4284
6102,4293
6101,4301
6101,4307
6104,4313
6107,4321
6111,4329
6116,4339
6123,4348
6128,4356
6135,4365
6141,4372
6147,4377
6149,4380
6155,4385
6162,4388
6169,4390
6175,4390
6179,4389
6180,4388
6183,4387
6185,4386
6187,4384
6190,4381
6193,4376
6198,4372
6200,4368
6203,4363
6203,4363
6205,4360
6207,4355
6210,4349
6212,4342
6214,4337
6215,4332
6215,4331
6215,4330
6214,4329
6213,4327
6211,4323
6208,4319
6205,4314
6200,4307
6194,4299
6186,4290
6183,4285
6176,4276
6171,4267
6164,4259
6159,4253
6156,4248
6152,4243
6150,4241
6150,4240
6266,4357
6256,4365
6247,4361
6237,4355
6236,4362
6234,4369
6232,4377
6229,4386
6224,4394
6223,4397
6220,4404
6215,4409
6210,4416
6205,4421
6200,4426
6200,4426
6191,4431
6181,4435
6172,4437
6166,4436
6157,4435
6149,4433
6140,4429
6133,4424
6124,4417
6115,4408
6106,4397
6098,4388
6089,4376
6082,4366
6076,4356
6072,4346
6067,4336
6064,4326
6063,4325
6061,4315
6060,4304
6060,4294
6063,4285
6064,4281
6067,4274
6069,4267
6072,4262
6076,4256
6082,4250
6085,4245
6093,4237
6101,4230
6108,4223
6117,4216
6125,4211
6133,4206
6141,4202
6147,4199
6154,4196
6157,4196
6159,4195
6162,4194
6163,4194
6165,4194
6166,4194
6167,4194
6170,4196
6171,4197
6171,4197
" /> 
<polyline style="fill-rule:evenodd;"
points="6367,3982
6369,3984
6371,3988
6374,3992
6377,3996
6380,4000
6381,4003
6383,4004
6383,4004
6381,4006
6379,4008
6376,4011
6372,4015
6367,4020
6364,4022
6355,4030
6347,4037
6339,4045
6332,4052
6326,4058
6322,4062
6319,4066
6318,4068
6316,4074
6314,4081
6314,4088
6315,4089
6317,4097
6321,4105
6325,4113
6331,4122
6336,4131
6343,4141
6350,4149
6356,4157
6363,4164
6369,4170
6374,4173
6376,4175
6382,4176
6389,4176
6395,4175
6398,4173
6401,4171
6405,4167
6410,4162
6417,4155
6425,4148
6432,4140
6440,4131
6443,4128
6448,4122
6452,4117
6456,4112
6459,4110
6460,4108
6461,4107
6461,4108
6463,4110
6466,4114
6469,4119
6470,4119
6478,4131
6473,4140
6465,4154
6455,4168
6447,4177
6443,4182
6439,4187
6434,4192
6429,4197
6424,4202
6420,4206
6416,4210
6413,4211
6409,4214
6404,4216
6398,4219
6393,4220
6393,4221
6382,4221
6371,4220
6360,4216
6355,4213
6352,4212
6349,4211
6345,4208
6343,4206
6340,4203
6335,4198
6333,4196
6318,4180
6304,4163
6293,4145
6284,4127
6280,4119
6275,4107
6273,4095
6271,4085
6272,4074
6275,4064
6280,4055
6287,4045
6297,4035
6307,4025
6307,4025
6314,4020
6321,4014
6328,4008
6335,4003
6343,3998
6349,3993
6355,3988
6360,3985
6364,3982
6366,3982
6367,3982
6367,3982
" /> 
<polyline style="fill-rule:evenodd;"
points="6513,3851
6567,3926
6576,3937
6584,3948
6591,3958
6599,3967
6606,3977
6611,3984
6615,3989
6619,3994
6621,3998
6623,3999
6623,4000
6623,4001
6620,4003
6617,4006
6613,4010
6611,4012
6608,4015
6493,3899
6491,3899
6490,3899
6487,3900
6483,3902
6480,3904
6479,3905
6475,3907
6471,3912
6466,3916
6461,3922
6456,3927
6452,3932
6450,3934
6446,3943
6444,3953
6444,3962
6446,3971
6449,3979
6454,3987
6459,3997
6465,4007
6472,4015
6478,4025
6485,4032
6492,4038
6493,4039
6500,4043
6506,4047
6512,4048
6515,4049
6519,4047
6525,4044
6531,4040
6536,4035
6541,4028
6545,4023
6547,4018
6550,4013
6553,4007
6555,4001
6556,3995
6557,3990
6557,3986
6556,3985
6555,3983
6553,3980
6550,3976
6545,3970
6541,3963
6536,3956
6530,3949
6524,3941
6519,3933
6512,3926
6508,3919
6503,3912
6500,3907
6496,3904
6494,3900
6493,3899
6608,4015
6600,4023
6589,4018
6579,4013
6578,4020
6576,4032
6572,4043
6566,4054
6559,4064
6552,4074
6543,4083
6538,4086
6528,4091
6518,4094
6507,4095
6497,4093
6486,4089
6475,4083
6475,4082
6470,4078
6464,4073
6458,4066
6451,4059
6444,4051
6437,4042
6430,4033
6426,4026
6420,4017
6414,4006
6410,3994
6406,3984
6403,3974
6403,3967
6403,3956
6405,3944
6408,3932
6414,3921
6417,3916
6421,3911
6427,3904
6432,3898
6437,3892
6443,3887
6444,3886
6449,3882
6454,3878
6461,3873
6468,3868
6474,3865
6480,3861
6485,3858
6486,3858
6492,3856
6500,3854
6505,3852
6509,3851
6513,3851
6513,3851
" /> 
<polyline style="fill-rule:evenodd;"
points="6987,3361
6987,3361
6990,3364
6992,3366
6995,3371
6998,3375
7000,3378
7003,3381
7003,3381
7004,3384
6987,3399
6980,3405
6973,3413
6965,3419
6958,3426
6953,3431
6948,3436
6944,3441
6941,3444
6939,3446
6939,3448
6937,3450
6937,3452
6935,3458
6935,3463
6937,3470
6939,3477
6943,3485
6946,3491
6953,3504
6961,3515
6968,3526
6976,3535
6984,3543
6987,3547
6991,3550
6994,3552
6997,3554
7000,3555
7007,3556
7013,3555
7018,3553
7021,3551
7026,3547
7031,3542
7037,3535
7044,3528
7052,3520
7060,3511
7065,3506
7069,3501
7074,3496
7077,3491
7080,3488
7081,3487
7081,3487
7083,3488
7085,3490
7088,3493
7091,3497
7093,3501
7096,3505
7097,3508
7098,3509
7099,3510
7098,3511
7096,3514
7094,3519
7091,3524
7088,3530
7084,3535
7082,3538
7077,3546
7071,3554
7064,3562
7057,3569
7050,3576
7043,3583
7036,3588
7032,3593
7030,3593
7020,3598
7010,3600
6999,3600
6988,3598
6986,3598
6979,3595
6973,3592
6968,3588
6963,3585
6957,3578
6954,3576
6939,3559
6926,3542
6913,3523
6909,3516
6902,3502
6898,3489
6894,3477
6893,3466
6893,3456
6896,3446
6900,3436
6901,3434
6905,3428
6910,3421
6917,3414
6925,3407
6934,3399
6944,3390
6955,3383
6966,3375
6975,3368
6978,3367
6981,3365
6984,3362
6987,3361
6987,3361
6987,3361
" /> 
<polyline style="fill-rule:evenodd;"
points="7135,3233
7136,3234
7137,3237
7140,3240
7143,3244
7147,3250
7152,3256
7158,3263
7165,3273
7173,3284
7182,3296
7188,3303
7197,3315
7205,3326
7212,3336
7219,3346
7226,3354
7231,3362
7236,3368
7239,3373
7241,3376
7243,3378
7243,3378
7243,3379
7242,3381
7240,3383
7236,3388
7232,3391
7230,3393
7114,3277
7113,3277
7112,3278
7109,3279
7105,3281
7103,3282
7094,3289
7086,3296
7079,3304
7072,3313
7068,3322
7067,3326
7065,3332
7065,3340
7067,3347
7069,3356
7074,3366
7080,3376
7088,3388
7090,3390
7098,3402
7106,3411
7114,3419
7122,3424
7129,3426
7135,3427
7138,3427
7145,3424
7151,3420
7158,3413
7163,3406
7167,3400
7171,3392
7174,3384
7176,3376
7178,3366
7148,3324
7142,3315
7135,3307
7130,3299
7125,3292
7121,3287
7118,3282
7115,3280
7115,3279
7114,3277
7230,3393
7220,3402
7210,3397
7201,3392
7198,3402
7195,3415
7190,3427
7184,3439
7176,3450
7168,3458
7163,3462
7154,3468
7144,3472
7134,3474
7132,3473
7122,3472
7114,3471
7105,3467
7096,3462
7088,3455
7079,3446
7074,3441
7063,3427
7053,3414
7045,3402
7038,3390
7032,3378
7028,3368
7027,3361
7025,3356
7024,3351
7024,3347
7023,3342
7023,3339
7024,3332
7025,3325
7026,3318
7030,3310
7033,3303
7036,3297
7041,3291
7047,3284
7054,3277
7057,3273
7062,3268
7067,3263
7071,3260
7076,3256
7081,3252
7083,3252
7089,3248
7095,3244
7100,3240
7104,3239
7110,3236
7116,3234
7122,3232
7128,3231
7131,3231
7131,3231
7132,3231
7133,3231
7135,3233
7135,3233
" /> 
<polyline style="fill-rule:evenodd;"
points="4868,5535
4870,5538
4874,5543
4879,5549
4886,5558
4893,5568
4902,5580
4912,5594
4916,5599
4923,5609
4930,5618
4938,5628
4943,5636
4948,5643
4952,5650
4956,5653
4958,5657
4959,5658
4959,5658
4962,5662
4946,5677
4930,5693
4928,5691
4927,5688
4923,5684
4920,5678
4915,5672
4909,5664
4904,5656
4897,5647
4890,5638
4883,5628
4877,5619
4870,5611
4864,5602
4858,5594
4853,5587
4848,5582
4845,5577
4843,5575
4842,5573
4837,5570
4832,5566
4827,5565
4822,5566
4822,5567
4819,5567
4817,5568
4815,5569
4813,5571
4810,5575
4807,5577
4802,5584
4798,5589
4795,5594
4792,5599
4789,5606
4785,5614
4785,5617
4781,5630
4822,5688
4830,5698
4837,5708
4843,5717
4850,5725
4855,5733
4860,5739
4863,5744
4865,5748
4867,5749
4867,5749
4870,5754
4854,5769
4848,5775
4844,5779
4841,5782
4839,5783
4838,5784
4837,5783
4836,5783
4835,5780
4831,5775
4827,5769
4822,5762
4815,5753
4808,5743
4800,5732
4791,5720
4783,5708
4772,5694
4762,5680
4752,5665
4749,5661
4660,5539
4675,5524
4680,5519
4684,5515
4688,5511
4691,5510
4691,5509
4691,5509
4692,5510
4694,5512
4697,5516
4701,5522
4706,5528
4712,5536
4718,5545
4725,5553
4726,5556
4732,5565
4739,5573
4744,5582
4750,5589
4754,5594
4757,5599
4759,5602
4761,5604
4761,5604
4762,5604
4763,5601
4764,5598
4767,5587
4770,5577
4773,5569
4776,5562
4779,5556
4783,5551
4788,5544
4793,5539
4797,5534
4800,5530
4805,5527
4807,5526
4817,5521
4827,5519
4836,5518
4846,5520
4855,5525
4864,5531
4868,5535
4868,5535
" /> 
<polyline style="fill-rule:evenodd;"
points="4945,5394
4946,5394
4949,5397
4952,5401
4955,5406
4956,5407
4965,5420
4947,5438
4930,5457
4957,5494
4966,5506
4974,5517
4980,5526
4986,5534
4992,5539
4996,5544
5000,5548
5003,5551
5006,5552
5009,5553
5011,5553
5013,5553
5016,5552
5020,5550
5024,5548
5030,5545
5030,5545
5036,5542
5041,5540
5043,5539
5045,5539
5046,5539
5046,5539
5047,5541
5049,5544
5053,5548
5054,5551
5061,5560
5048,5575
5043,5580
5038,5584
5034,5588
5031,5591
5029,5592
5020,5597
5012,5600
5003,5600
4995,5599
4994,5598
4990,5597
4986,5595
4981,5592
4977,5589
4973,5585
4969,5581
4963,5575
4957,5568
4951,5559
4943,5550
4935,5537
4931,5532
4924,5524
4919,5516
4913,5509
4909,5503
4905,5498
4902,5493
4901,5490
4900,5490
4898,5488
4886,5500
4880,5505
4877,5509
4874,5510
4873,5511
4872,5510
4870,5507
4868,5504
4865,5500
4858,5490
4860,5486
4863,5482
4865,5478
4868,5472
4870,5469
4872,5465
4875,5461
4876,5459
4877,5458
4876,5457
4875,5454
4873,5450
4870,5445
4868,5442
4865,5436
4861,5428
4858,5422
4855,5416
4854,5416
4848,5406
4861,5393
4866,5388
4870,5384
4873,5382
4874,5382
4875,5382
4876,5382
4878,5386
4881,5390
4885,5394
4889,5401
4891,5403
4896,5409
4899,5414
4903,5419
4906,5423
4907,5425
4908,5425
4908,5425
4909,5425
4910,5425
4912,5423
4914,5420
4919,5417
4924,5412
4927,5409
4933,5404
4937,5399
4940,5396
4942,5394
4943,5393
4945,5393
4945,5393
4945,5394
4945,5394
" /> 
<polyline style="fill-rule:evenodd;"
points="5048,5291
5049,5292
5051,5295
5053,5300
5058,5304
5058,5305
5068,5318
5049,5336
5044,5342
5039,5346
5036,5351
5034,5353
5032,5355
5032,5355
5034,5356
5035,5359
5038,5363
5042,5369
5047,5375
5053,5382
5058,5390
5059,5391
5068,5405
5076,5416
5083,5424
5089,5431
5094,5437
5098,5442
5102,5446
5105,5449
5108,5450
5110,5451
5113,5451
5116,5451
5118,5450
5120,5449
5124,5447
5129,5445
5134,5442
5138,5440
5142,5437
5145,5436
5147,5435
5147,5437
5149,5439
5151,5442
5155,5446
5155,5446
5158,5451
5160,5454
5162,5458
5163,5459
5162,5459
5161,5462
5158,5465
5154,5469
5150,5474
5145,5478
5140,5481
5136,5486
5133,5488
5131,5490
5123,5495
5114,5498
5105,5498
5096,5496
5087,5493
5078,5486
5069,5478
5068,5476
5065,5474
5062,5469
5058,5464
5052,5457
5046,5448
5040,5440
5034,5432
5032,5429
5026,5420
5020,5413
5015,5405
5010,5399
5006,5394
5004,5390
5002,5388
5002,5388
5001,5387
5000,5387
4999,5388
4997,5389
4994,5391
4990,5396
4988,5398
4976,5410
4969,5401
4966,5397
4964,5394
4962,5390
4962,5390
4961,5388
4962,5386
4962,5384
4965,5379
4968,5374
4969,5372
4974,5365
4976,5360
4978,5357
4978,5354
4978,5354
4977,5353
4975,5350
4973,5345
4970,5339
4967,5333
4964,5329
4951,5305
4964,5290
4976,5278
4979,5281
4981,5285
4984,5290
4988,5295
4993,5301
4997,5307
5001,5312
5004,5317
5008,5320
5010,5324
5010,5324
5010,5324
5012,5323
5014,5321
5017,5317
5022,5314
5027,5309
5029,5307
5035,5301
5039,5297
5042,5294
5044,5292
5046,5290
5047,5290
5047,5290
5048,5291
5048,5291
" /> 
<polyline style="fill-rule:evenodd;"
points="5347,5217
5349,5219
5352,5222
5355,5226
5358,5231
5359,5233
5363,5239
5367,5244
5369,5247
5369,5250
5368,5254
5365,5256
5362,5261
5357,5266
5352,5271
5348,5275
5346,5278
5343,5279
5342,5280
5341,5280
5338,5280
5335,5277
5333,5275
5330,5272
5326,5267
5323,5262
5319,5257
5317,5253
5315,5250
5314,5249
5314,5246
5314,5244
5315,5242
5317,5238
5321,5235
5326,5230
5327,5228
5333,5222
5337,5218
5341,5216
5343,5215
5345,5215
5346,5216
5347,5217
5347,5217
" /> 
<polyline style="fill-rule:evenodd;"
points="5700,4636
5701,4636
5703,4640
5706,4644
5710,4650
5715,4656
5722,4664
5727,4672
5734,4682
5742,4692
5749,4703
5757,4713
5765,4724
5773,4735
5780,4745
5787,4755
5794,4764
5801,4773
5806,4781
5811,4787
5815,4793
5818,4797
5819,4800
5819,4800
5820,4800
5820,4802
5819,4802
5819,4805
5816,4807
5813,4810
5809,4814
5806,4817
5800,4823
5796,4827
5793,4830
5790,4831
5790,4832
5789,4831
5788,4831
5787,4828
5783,4824
5779,4817
5773,4810
5768,4802
5761,4793
5753,4783
5745,4772
5737,4759
5729,4749
5669,4667
5685,4651
5690,4646
5694,4642
5697,4639
5700,4636
5700,4636
5700,4636
" /> 
<polyline style="fill-rule:evenodd;"
points="5909,4427
5957,4493
5966,4505
5973,4517
5981,4527
5989,4538
5996,4548
6003,4556
6008,4564
6013,4571
6016,4575
6018,4577
6030,4593
6014,4609
5998,4625
5997,4622
5995,4621
5993,4617
5990,4614
5985,4607
5981,4600
5974,4591
5968,4582
5960,4571
5952,4560
5943,4549
5937,4539
5927,4527
5919,4516
5911,4505
5903,4495
5897,4486
5891,4477
5886,4471
5882,4465
5880,4462
5879,4459
5878,4458
5879,4457
5881,4455
5884,4452
5889,4447
5894,4443
5894,4443
5909,4427
5909,4427
" /> 
<polyline style="fill-rule:evenodd;"
points="6018,4318
6029,4333
6038,4347
6021,4365
6003,4384
6030,4421
6039,4433
6046,4443
6053,4452
6058,4459
6063,4464
6067,4469
6070,4472
6073,4475
6077,4477
6078,4479
6078,4479
6082,4479
6084,4480
6087,4479
6091,4479
6096,4476
6102,4473
6106,4471
6110,4468
6113,4466
6116,4466
6118,4467
6120,4468
6123,4471
6126,4476
6128,4477
6135,4487
6121,4502
6116,4507
6111,4511
6107,4515
6104,4518
6102,4520
6094,4524
6085,4527
6076,4527
6067,4525
6058,4521
6049,4515
6043,4508
6040,4505
6037,4503
6034,4498
6029,4493
6024,4487
6019,4479
6013,4472
6005,4461
6005,4460
5999,4452
5993,4444
5988,4436
5983,4430
5978,4424
5976,4421
5974,4419
5974,4417
5971,4414
5959,4426
5955,4431
5952,4434
5949,4437
5947,4438
5947,4438
5946,4437
5944,4435
5941,4431
5938,4428
5931,4418
5934,4412
5936,4409
5939,4404
5942,4399
5943,4396
5946,4392
5948,4388
5949,4385
5950,4385
5949,4384
5948,4381
5945,4377
5943,4372
5940,4368
5937,4361
5934,4354
5930,4348
5928,4343
5927,4341
5922,4332
5935,4320
5939,4315
5943,4311
5946,4310
5947,4308
5947,4308
5949,4308
5949,4310
5952,4312
5954,4317
5958,4322
5962,4327
5965,4330
5968,4336
5973,4342
5977,4346
5979,4350
5981,4351
5981,4352
5981,4352
5983,4352
5984,4351
5987,4348
5991,4345
5996,4340
6000,4336
6018,4318
6018,4318
" /> 
<polyline style="fill-rule:evenodd;"
points="6351,4231
6352,4232
6354,4234
6356,4237
6359,4240
6362,4245
6364,4249
6367,4251
6367,4252
6369,4254
6355,4268
6350,4273
6345,4276
6341,4281
6338,4283
6338,4284
6328,4289
6320,4292
6311,4293
6303,4292
6299,4291
6291,4287
6282,4281
6275,4274
6271,4270
6270,4269
6268,4265
6264,4260
6259,4254
6253,4247
6248,4238
6241,4228
6233,4219
6225,4208
6217,4196
6209,4185
6200,4173
6191,4162
6183,4150
6175,4138
6167,4128
6159,4117
6152,4107
6145,4099
6140,4091
6135,4085
6131,4079
6129,4076
6128,4073
6127,4072
6128,4071
6130,4069
6133,4066
6137,4061
6142,4056
6142,4056
6159,4042
6224,4133
6236,4148
6246,4161
6254,4174
6262,4184
6269,4193
6275,4201
6280,4208
6284,4213
6287,4218
6291,4222
6294,4226
6296,4228
6299,4231
6299,4233
6302,4235
6312,4246
6318,4246
6321,4245
6324,4244
6328,4242
6334,4240
6337,4238
6343,4235
6346,4233
6350,4231
6351,4231
6351,4231
6351,4231
" /> 
<polyline style="fill-rule:evenodd;"
points="6654,3702
6660,3707
6664,3714
6668,3721
6669,3723
6671,3727
6673,3733
6676,3741
6678,3750
6682,3760
6686,3772
6690,3784
6695,3797
6698,3810
6699,3813
6726,3896
6707,3916
6701,3922
6697,3926
6693,3931
6688,3933
6687,3935
6686,3936
6685,3935
6683,3932
6678,3930
6672,3926
6665,3921
6657,3916
6647,3909
6636,3902
6625,3894
6613,3886
6601,3878
6589,3871
6576,3862
6565,3855
6554,3849
6544,3842
6536,3836
6529,3832
6523,3827
6519,3825
6516,3823
6515,3822
6515,3821
6517,3819
6521,3815
6525,3811
6531,3805
6531,3805
6547,3789
6609,3832
6620,3839
6630,3846
6640,3852
6649,3858
6657,3863
6662,3868
6668,3871
6671,3873
6673,3875
6673,3875
6673,3874
6673,3871
6671,3867
6669,3861
6667,3853
6664,3844
6661,3836
6658,3825
6655,3815
6651,3805
6647,3795
6644,3784
6640,3775
6637,3765
6634,3757
6631,3750
6630,3745
6628,3740
6627,3739
6624,3733
6621,3729
6619,3726
6618,3725
6615,3721
6630,3706
6644,3692
6649,3696
6654,3702
6654,3702
" /> 
<polyline style="fill-rule:evenodd;"
points="6936,3628
6938,3630
6941,3633
6944,3637
6947,3642
6951,3647
6953,3651
6956,3655
6957,3658
6958,3658
6958,3661
6957,3663
6956,3665
6953,3670
6950,3673
6944,3679
6939,3684
6936,3687
6933,3689
6932,3690
6929,3691
6927,3690
6924,3689
6924,3688
6921,3685
6919,3682
6915,3677
6911,3673
6908,3668
6905,3664
6903,3660
6903,3659
6903,3657
6903,3656
6903,3653
6905,3651
6908,3647
6912,3644
6916,3639
6921,3634
6924,3631
6927,3629
6928,3627
6930,3627
6932,3627
6932,3627
6934,3627
6936,3628
6936,3628
" /> 
<polyline style="fill-rule:evenodd;"
points="3851,6712
3851,6730
3851,6750
3832,6769
3793,6731
3755,6692
3716,6654
3678,6692
3639,6731
3677,6769
3716,6808
3755,6769
3793,6731
3832,6769
3793,6807
3735,6865
3716,6865
3697,6865
3639,6807
3582,6750
3581,6731
3582,6712
3640,6654
3697,6596
3716,6596
3735,6596
3793,6654
3851,6712
3851,6712
" /> 
<polyline style="fill-rule:evenodd;"
points="5255,5091
5258,5094
5261,5099
5266,5105
5267,5106
5271,5111
5274,5117
5276,5121
5276,5123
5276,5126
5275,5128
5273,5130
5269,5133
5266,5138
5262,5142
5257,5145
5254,5149
5251,5151
5251,5152
5247,5152
5244,5152
5244,5152
5243,5151
5241,5149
5238,5145
5235,5140
5234,5139
5229,5133
5226,5128
5224,5125
5222,5123
5222,5121
5221,5119
5220,5119
5221,5118
5221,5116
5221,5115
5222,5114
5225,5111
5227,5109
5232,5104
5235,5102
5239,5097
5243,5093
5247,5090
5249,5088
5249,5088
5251,5088
5253,5089
5255,5091
5255,5091
" /> 
<polyline style="fill-rule:evenodd;"
points="5663,4580
5674,4595
5679,4601
5682,4606
5684,4609
5686,4612
5686,4615
5685,4617
5685,4619
5684,4620
5681,4623
5677,4626
5673,4631
5669,4635
5664,4639
5662,4642
5659,4645
5658,4645
5656,4646
5653,4646
5651,4645
5650,4645
5649,4643
5647,4641
5644,4637
5640,4632
5639,4631
5634,4624
5631,4620
5630,4616
5628,4613
5629,4609
5631,4606
5635,4602
5640,4597
5643,4595
5647,4590
5651,4586
5654,4583
5656,4581
5657,4580
5659,4580
5659,4580
5663,4580
5663,4580
" /> 
<polyline style="fill-rule:evenodd;"
points="5872,4373
5875,4376
5878,4380
5882,4385
5886,4390
5889,4394
5892,4399
5894,4402
5895,4404
5895,4404
5894,4406
5893,4409
5893,4411
5891,4413
5888,4416
5884,4421
5880,4425
5876,4429
5871,4433
5868,4435
5865,4437
5865,4437
5862,4438
5860,4437
5858,4435
5855,4433
5853,4428
5849,4423
5845,4419
5841,4414
5839,4411
5838,4408
5837,4407
5837,4404
5838,4402
5839,4399
5841,4396
5845,4392
5851,4386
5852,4385
5857,4380
5861,4376
5865,4373
5867,4372
5869,4371
5871,4372
5871,4372
5872,4373
5872,4373
" /> 
<polyline style="fill-rule:evenodd;"
points="3687,6548
3687,6567
3687,6586
3668,6606
3630,6567
3591,6529
3553,6490
3515,6529
3477,6567
3515,6606
3553,6644
3592,6606
3630,6567
3668,6606
3630,6644
3572,6702
3553,6702
3534,6702
3476,6644
3419,6586
3418,6567
3419,6548
3477,6490
3534,6433
3553,6432
3572,6433
3629,6490
3687,6548
3687,6548
" /> 
<polyline style="fill-rule:evenodd;"
points="4014,6222
4013,6241
4014,6260
3995,6279
3957,6241
3919,6203
3879,6164
3841,6203
3803,6241
3841,6279
3880,6318
3918,6280
3957,6241
3995,6279
3956,6318
3898,6376
3880,6376
3861,6376
3803,6318
3745,6260
3745,6241
3745,6222
3803,6164
3861,6106
3879,6106
3899,6106
3956,6164
4014,6222
4014,6222
" /> 
<polyline style="fill-rule:evenodd;"
points="4177,6058
4177,6077
4177,6096
4158,6116
4119,6078
4081,6039
4042,6001
4004,6039
3966,6077
4004,6116
4043,6154
4081,6116
4119,6078
4158,6116
4119,6154
4061,6212
4042,6212
4023,6212
3966,6155
3909,6098
3909,6078
3909,6058
3966,6001
4023,5944
4043,5944
4063,5944
4120,6001
4177,6058
4177,6058
" /> 
<polyline style="fill-rule:evenodd;"
points="4341,5896
4341,5915
4341,5933
4321,5953
4283,5915
4244,5876
4206,5838
4167,5877
4129,5915
4167,5954
4206,5992
4244,5954
4283,5915
4321,5953
4283,5991
4225,6049
4205,6049
4187,6049
4129,5991
4071,5934
4071,5915
4071,5896
4129,5838
4187,5780
4205,5780
4225,5780
4283,5838
4341,5896
4341,5896
" /> 
<polyline style="fill-rule:evenodd;"
points="4503,5732
4503,5751
4503,5770
4484,5790
4446,5751
4407,5713
4369,5674
4330,5713
4292,5751
4331,5790
4368,5829
4407,5790
4446,5751
4484,5790
4445,5828
4387,5886
4368,5886
4349,5886
4291,5828
4234,5771
4234,5751
4235,5732
4292,5675
4350,5617
4368,5617
4388,5617
4445,5674
4503,5732
4503,5732
" /> 
<polyline style="fill-rule:evenodd;"
points="5013,4647
5015,4648
5016,4651
5018,4656
5023,4662
5027,4670
5032,4680
5039,4691
5046,4702
5053,4715
5061,4729
5070,4744
5079,4759
5089,4776
5097,4790
5180,4933
5185,4962
5189,4990
5173,5006
5168,5011
5164,5015
5161,5018
5159,5020
5158,5021
5157,5021
5156,5020
5156,5020
5156,5019
5154,5015
5151,5011
5148,5005
5143,4998
5139,4989
5133,4979
5128,4969
5126,4966
5119,4955
5114,4946
5109,4937
5105,4930
5101,4923
5098,4917
5096,4913
5095,4912
5095,4911
5094,4911
5091,4913
5090,4913
5082,4918
5076,4923
5070,4926
5066,4928
5054,4931
5042,4932
5030,4930
5017,4926
5006,4921
5003,4920
4999,4917
4993,4914
4987,4911
4979,4906
4969,4900
4959,4894
4950,4889
4939,4882
4927,4876
4916,4869
4905,4863
4894,4856
4884,4850
4874,4844
4865,4839
4857,4834
4850,4830
4844,4827
4840,4824
4837,4823
4836,4822
4838,4821
4840,4819
4843,4815
4848,4811
4853,4805
4858,4799
4860,4798
4883,4774
4961,4821
4973,4829
4986,4836
4997,4843
5007,4848
5017,4854
5024,4859
5032,4863
5037,4865
5040,4868
5042,4868
5048,4870
5054,4868
5060,4865
5065,4861
5063,4858
5062,4856
5059,4853
5056,4847
5053,4841
5048,4833
5043,4824
5037,4814
5030,4802
5023,4791
5016,4778
5015,4776
5007,4764
5000,4751
4993,4740
4988,4730
4982,4720
4977,4713
4973,4706
4971,4701
4968,4696
4967,4695
4967,4695
4965,4692
4988,4669
4996,4662
5001,4658
5005,4653
5008,4650
5010,4648
5012,4647
5013,4647
5013,4647
5013,4647
5013,4647
" /> 
<polyline style="fill-rule:evenodd;"
points="5359,4645
5341,4663
5323,4681
5309,4677
5295,4672
5265,4643
5249,4627
5244,4621
5240,4618
5237,4615
5235,4613
5235,4612
5233,4612
5232,4613
5232,4613
5230,4615
5227,4619
5222,4623
5218,4629
5214,4634
5208,4640
5204,4645
5200,4651
5196,4655
5193,4660
5191,4661
5191,4662
5190,4667
5190,4672
5191,4677
5192,4680
5194,4682
5198,4687
5202,4691
5206,4696
5210,4699
5214,4702
5214,4702
5220,4704
5226,4704
5229,4703
5232,4701
5238,4696
5242,4691
5247,4686
5250,4680
5253,4676
5256,4670
5258,4664
5260,4658
5265,4643
5295,4672
5295,4672
5294,4679
5292,4687
5290,4697
5287,4707
5282,4718
5277,4727
5275,4730
5269,4737
5261,4745
5254,4752
5249,4757
5242,4761
5233,4764
5226,4766
5221,4767
5211,4767
5202,4766
5192,4764
5184,4759
5179,4758
5176,4754
5171,4751
5165,4745
5160,4740
5154,4734
5148,4728
5144,4723
5141,4720
5136,4708
5131,4699
5130,4687
5131,4676
5133,4665
5135,4662
5136,4658
5138,4655
5140,4651
5144,4648
5148,4643
5152,4638
5159,4631
5166,4624
5173,4617
5179,4611
5185,4604
5191,4598
5196,4593
5199,4590
5202,4587
5203,4586
5206,4582
5196,4573
5192,4570
5187,4566
5184,4563
5182,4563
5178,4561
5172,4561
5167,4563
5164,4564
5161,4566
5157,4569
5152,4573
5146,4579
5139,4586
5132,4593
5125,4602
5117,4609
5110,4618
5103,4625
5102,4626
5097,4632
5092,4637
5089,4642
5085,4645
5083,4648
5082,4648
5082,4649
5082,4649
5080,4649
5079,4648
5076,4645
5073,4641
5068,4636
5067,4636
5053,4622
5057,4614
5065,4601
5074,4586
5085,4571
5099,4555
5105,4548
5116,4537
5125,4528
5133,4520
5142,4514
5149,4510
5156,4505
5164,4502
5166,4501
5178,4499
5189,4498
5199,4501
5210,4504
5217,4507
5218,4508
5220,4510
5221,4510
5222,4511
5225,4513
5227,4515
5230,4518
5234,4521
5238,4525
5243,4530
5249,4537
5256,4544
5265,4552
5275,4562
5286,4573
5292,4579
5359,4645
5359,4645
" /> 
<polyline style="fill-rule:evenodd;"
points="6226,3675
6234,3682
6240,3689
6244,3694
6249,3700
6251,3704
6253,3709
6256,3714
6255,3715
6256,3723
6256,3732
6254,3743
6251,3752
6249,3755
6246,3759
6241,3764
6236,3771
6228,3779
6220,3787
6209,3798
6203,3803
6189,3816
6177,3827
6166,3835
6157,3843
6149,3848
6142,3852
6139,3854
6132,3856
6118,3842
6104,3828
6147,3785
6191,3741
6191,3735
6191,3730
6181,3721
6176,3716
6172,3713
6169,3711
6166,3710
6164,3711
6163,3711
6162,3712
6159,3714
6156,3716
6151,3721
6145,3726
6137,3733
6130,3741
6122,3749
6116,3755
6110,3759
6106,3763
6103,3767
6101,3769
6098,3770
6096,3772
6094,3773
6092,3774
6091,3774
6081,3779
6070,3781
6060,3781
6051,3779
6040,3774
6036,3772
6033,3770
6029,3766
6022,3761
6017,3755
6010,3749
6004,3743
5999,3736
5994,3731
5991,3727
5990,3726
5985,3716
5983,3706
5981,3696
5983,3686
5983,3682
5985,3678
5986,3674
5988,3670
5990,3667
5994,3663
5997,3659
6002,3653
6008,3648
6015,3641
6029,3627
6043,3615
6055,3603
6066,3594
6076,3586
6085,3579
6093,3574
6099,3571
6100,3570
6104,3569
6118,3583
6133,3597
6090,3639
6080,3649
6072,3658
6065,3665
6060,3671
6055,3676
6051,3680
6049,3682
6048,3685
6047,3685
6047,3685
6046,3689
6047,3692
6049,3696
6053,3701
6055,3703
6060,3709
6066,3713
6071,3715
6074,3715
6075,3714
6077,3712
6081,3709
6085,3705
6091,3699
6099,3693
6106,3686
6113,3678
6120,3672
6127,3666
6132,3661
6136,3657
6140,3655
6140,3654
6150,3649
6159,3646
6169,3644
6178,3644
6187,3646
6192,3648
6196,3649
6200,3651
6205,3655
6210,3658
6215,3663
6222,3670
6226,3675
6226,3675
" /> 
<polyline style="fill-rule:evenodd;"
points="6391,3447
6402,3459
6413,3471
6421,3482
6422,3485
6430,3496
6436,3508
6439,3520
6440,3531
6439,3542
6437,3553
6432,3565
6426,3574
6345,3492
6344,3491
6333,3481
6325,3472
6317,3466
6310,3460
6304,3457
6299,3454
6294,3453
6290,3453
6285,3453
6280,3455
6279,3455
6277,3455
6275,3458
6272,3459
6270,3461
6266,3465
6261,3470
6258,3472
6253,3477
6249,3482
6246,3485
6243,3488
6242,3490
6241,3492
6240,3496
6240,3499
6240,3504
6241,3509
6244,3514
6246,3520
6251,3525
6256,3533
6263,3541
6269,3548
6275,3554
6282,3561
6290,3568
6296,3574
6302,3578
6307,3582
6310,3585
6319,3589
6327,3590
6335,3590
6338,3589
6343,3588
6348,3583
6355,3578
6361,3572
6368,3565
6373,3559
6376,3554
6378,3549
6379,3544
6379,3540
6379,3540
6379,3536
6377,3532
6376,3530
6374,3525
6372,3522
6369,3518
6365,3514
6362,3510
6357,3505
6352,3499
6345,3492
6426,3574
6425,3576
6415,3588
6410,3595
6402,3605
6393,3613
6386,3621
6381,3624
6372,3632
6362,3638
6352,3643
6343,3647
6338,3648
6328,3651
6317,3651
6306,3650
6294,3646
6281,3641
6269,3633
6256,3624
6242,3612
6228,3598
6220,3590
6212,3580
6205,3571
6199,3563
6193,3556
6190,3548
6188,3545
6183,3534
6180,3523
6178,3511
6180,3500
6183,3489
6188,3478
6195,3465
6204,3453
6211,3445
6217,3438
6224,3432
6230,3426
6233,3423
6246,3413
6258,3405
6270,3399
6281,3395
6293,3392
6304,3392
6316,3395
6328,3399
6340,3405
6353,3414
6367,3424
6369,3426
6381,3436
6391,3447
6391,3447
" /> 
<polyline style="fill-rule:evenodd;"
points="5855,3909
5863,3917
5869,3924
5875,3929
5880,3934
5883,3938
5886,3942
5889,3945
5892,3949
5895,3952
5895,3953
5905,3966
5913,3978
5919,3990
5924,4001
5927,4011
5930,4020
5931,4030
5930,4041
5930,4045
5928,4054
5925,4064
5924,4068
5818,3962
5805,3950
5802,3947
5794,3938
5786,3932
5780,3926
5775,3922
5770,3918
5766,3915
5762,3912
5757,3910
5756,3909
5746,3904
5737,3902
5729,3900
5722,3900
5714,3902
5709,3904
5706,3906
5705,3907
5702,3909
5699,3912
5696,3914
5691,3919
5686,3924
5684,3927
5677,3933
5672,3938
5669,3942
5666,3945
5664,3947
5662,3950
5661,3953
5660,3953
5658,3958
5657,3962
5657,3967
5656,3970
5657,3977
5658,3984
5660,3990
5664,3996
5667,4004
5674,4012
5681,4022
5690,4032
5692,4035
5698,4041
5705,4049
5713,4056
5721,4065
5729,4072
5737,4080
5744,4085
5749,4090
5759,4097
5769,4103
5778,4107
5785,4110
5792,4110
5800,4109
5807,4106
5814,4103
5822,4098
5831,4091
5839,4083
5847,4075
5853,4066
5857,4061
5861,4054
5864,4047
5865,4039
5865,4034
5864,4028
5861,4020
5857,4012
5853,4003
5847,3994
5838,3984
5829,3974
5818,3962
5924,4068
5920,4075
5913,4086
5905,4099
5901,4103
5896,4109
5889,4116
5882,4123
5875,4130
5868,4137
5862,4143
5855,4149
5853,4151
5843,4158
5833,4165
5824,4169
5816,4172
5806,4174
5797,4176
5787,4176
5777,4175
5766,4171
5754,4167
5754,4167
5743,4162
5732,4156
5721,4148
5715,4144
5700,4131
5685,4118
5670,4105
5655,4090
5642,4075
5630,4061
5621,4047
5611,4035
5605,4023
5600,4012
5596,4002
5594,3992
5592,3982
5592,3972
5592,3960
5596,3950
5599,3939
5605,3928
5612,3916
5622,3905
5633,3893
5633,3892
5646,3880
5657,3868
5669,3859
5681,3851
5691,3845
5700,3840
5703,3839
5710,3838
5717,3837
5726,3835
5734,3834
5740,3835
5742,3835
5751,3838
5762,3842
5774,3846
5786,3853
5799,3860
5812,3868
5814,3871
5817,3873
5820,3875
5823,3878
5827,3881
5832,3886
5837,3891
5843,3897
5851,3905
5855,3909
5855,3909
" /> 
<polyline style="fill-rule:evenodd;"
points="4752,4776
4754,4778
4754,4780
4757,4783
4759,4788
4763,4794
4767,4802
4773,4811
4778,4822
4785,4834
4792,4846
4800,4859
4807,4872
4816,4887
4824,4902
4833,4916
4841,4932
4849,4947
4858,4962
4867,4976
4874,4990
4882,5003
4889,5017
4897,5028
4902,5039
4908,5049
4913,5058
4916,5065
4921,5070
4922,5075
4924,5077
4924,5077
4924,5078
4924,5078
4923,5080
4922,5082
4920,5084
4916,5087
4912,5092
4906,5097
4899,5104
4899,5105
4872,5131
4808,5099
4797,5094
4785,5088
4776,5083
4768,5079
4759,5075
4754,5072
4749,5070
4745,5068
4744,5068
4744,5068
4744,5068
4746,5071
4748,5076
4752,5082
4756,5090
4760,5098
4766,5108
4771,5118
4777,5129
4778,5130
4812,5191
4786,5218
4759,5244
4604,5163
4587,5154
4569,5145
4553,5137
4537,5128
4522,5121
4509,5113
4496,5107
4484,5101
4474,5095
4466,5091
4459,5087
4453,5084
4450,5082
4448,5082
4447,5081
4448,5080
4450,5078
4454,5075
4459,5070
4464,5065
4469,5059
4472,5057
4496,5033
4503,5037
4505,5039
4510,5040
4515,5043
4522,5047
4532,5052
4542,5058
4553,5063
4565,5070
4578,5078
4591,5085
4606,5092
4618,5099
4631,5107
4645,5114
4659,5121
4671,5128
4682,5133
4692,5139
4701,5144
4709,5148
4715,5150
4720,5152
4723,5154
4723,5154
4722,5153
4720,5150
4717,5145
4713,5139
4708,5131
4703,5122
4698,5112
4691,5101
4683,5089
4675,5075
4667,5061
4658,5047
4656,5045
4591,4938
4615,4913
4622,4906
4629,4900
4633,4896
4636,4893
4638,4891
4640,4890
4640,4890
4640,4890
4641,4891
4643,4894
4645,4899
4648,4904
4653,4911
4658,4919
4662,4928
4662,4928
4684,4966
4749,4999
4764,5008
4778,5014
4790,5020
4800,5025
4809,5029
4815,5033
4822,5037
4827,5039
4830,5041
4832,5041
4834,5042
4836,5044
4836,5043
4836,5043
4836,5043
4836,5043
4836,5041
4836,5041
4836,5041
4834,5037
4831,5033
4827,5027
4822,5019
4817,5010
4811,4999
4804,4988
4796,4976
4789,4963
4781,4949
4775,4940
4766,4926
4758,4912
4750,4900
4743,4887
4736,4876
4730,4865
4724,4856
4719,4848
4715,4841
4712,4836
4710,4833
4709,4832
4705,4824
4728,4800
4752,4776
4752,4776
" /> 
<polyline style="fill-rule:evenodd;"
points="5332,4325
5349,4344
5366,4361
5348,4380
5328,4400
5371,4442
5381,4452
5389,4460
5396,4467
5402,4473
5407,4478
5412,4481
5415,4484
5418,4486
5420,4489
5423,4489
5425,4490
5428,4490
5430,4491
5430,4491
5435,4491
5440,4490
5447,4488
5454,4484
5463,4480
5475,4474
5488,4487
5503,4501
5481,4523
5474,4530
5469,4534
5464,4539
5460,4544
5457,4546
5455,4547
5447,4553
5436,4556
5426,4558
5416,4557
5405,4554
5394,4549
5391,4547
5387,4544
5384,4542
5379,4539
5376,4536
5371,4532
5366,4527
5359,4522
5353,4515
5344,4507
5335,4498
5324,4487
5324,4487
5283,4445
5269,4459
5255,4473
5242,4460
5230,4447
5239,4428
5242,4423
5244,4418
5245,4414
5247,4411
5247,4410
5247,4409
5245,4406
5242,4403
5237,4397
5234,4391
5229,4385
5227,4383
5222,4376
5218,4370
5214,4364
5211,4360
5208,4357
5207,4356
5207,4356
5208,4355
5210,4352
5213,4349
5218,4345
5222,4340
5226,4336
5245,4317
5269,4341
5292,4365
5312,4345
5332,4325
5332,4325
" /> 
<polyline style="fill-rule:evenodd;"
points="5507,4221
5488,4240
5469,4259
5508,4298
5517,4306
5525,4315
5532,4322
5539,4327
5545,4333
5549,4337
5553,4341
5553,4341
5558,4344
5563,4347
5567,4348
5571,4349
5575,4349
5580,4349
5587,4346
5594,4344
5601,4340
5616,4333
5630,4346
5644,4360
5622,4382
5616,4388
5610,4394
5605,4399
5600,4402
5597,4405
5595,4407
5586,4412
5575,4416
5565,4416
5555,4415
5544,4412
5539,4409
5536,4408
5533,4407
5530,4404
5527,4403
5524,4401
5521,4398
5516,4394
5512,4390
5507,4385
5500,4379
5493,4371
5483,4363
5473,4353
5471,4351
5424,4304
5410,4318
5395,4332
5383,4320
5370,4307
5379,4288
5382,4282
5385,4276
5387,4272
5388,4269
5389,4269
5388,4268
5386,4266
5383,4262
5379,4257
5375,4251
5370,4245
5366,4237
5361,4231
5357,4225
5354,4221
5351,4218
5350,4216
5348,4214
5367,4195
5387,4176
5411,4200
5434,4223
5453,4204
5472,4185
5490,4203
5507,4221
5507,4221
" /> 
<polyline style="fill-rule:evenodd;"
points="6101,3903
6079,3925
6073,3931
6067,3936
6063,3941
6058,3945
6055,3948
6053,3949
6043,3955
6033,3958
6022,3960
6012,3960
6002,3957
6000,3955
5996,3954
5991,3950
5986,3948
5985,3947
5983,3947
5982,3945
5981,3944
5979,3943
5977,3942
5975,3940
5973,3938
5970,3935
5966,3931
5961,3926
5956,3922
5950,3916
5943,3909
5935,3901
5925,3892
5915,3881
5903,3870
5890,3856
5875,3842
5870,3837
5764,3732
5787,3709
5810,3686
5906,3782
5923,3799
5939,3815
5953,3829
5965,3841
5976,3852
5985,3861
5993,3869
6000,3875
6005,3880
6008,3883
6009,3883
6016,3887
6022,3890
6028,3892
6034,3892
6036,3892
6038,3892
6042,3891
6046,3888
6051,3886
6056,3884
6073,3875
6087,3889
6101,3903
6101,3903
" /> 
<polyline style="fill-rule:evenodd;"
points="6669,3335
6647,3356
6625,3379
6562,3318
6550,3306
6541,3296
6531,3287
6524,3279
6517,3273
6512,3267
6507,3264
6503,3260
6500,3257
6497,3256
6495,3254
6493,3253
6491,3252
6490,3252
6488,3252
6486,3252
6481,3251
6476,3253
6471,3255
6466,3261
6464,3262
6456,3272
6450,3281
6446,3291
6442,3302
6441,3307
6439,3315
6502,3378
6564,3440
6541,3463
6518,3486
6432,3400
6345,3313
6364,3295
6381,3277
6394,3281
6400,3283
6404,3284
6407,3286
6408,3286
6409,3285
6410,3283
6411,3279
6412,3274
6412,3274
6414,3262
6417,3251
6421,3242
6424,3233
6426,3231
6429,3227
6433,3221
6439,3216
6444,3210
6450,3204
6455,3199
6460,3196
6462,3195
6473,3190
6484,3187
6496,3187
6507,3189
6518,3193
6530,3199
6532,3200
6533,3202
6536,3202
6537,3204
6539,3206
6542,3207
6544,3209
6547,3212
6551,3216
6555,3221
6561,3226
6567,3233
6575,3240
6584,3249
6594,3260
6605,3270
6669,3335
6669,3335
" /> 
<polyline style="fill-rule:evenodd;"
points="3525,6386
3525,6405
3525,6424
3506,6443
3467,6404
3429,6366
3390,6328
3352,6366
3313,6405
3351,6443
3390,6481
3429,6442
3467,6404
3506,6443
3467,6481
3410,6538
3390,6538
3371,6538
3313,6480
3255,6423
3255,6403
3255,6385
3313,6327
3371,6270
3390,6269
3409,6270
3467,6328
3525,6386
3525,6386
" /> 
<polyline style="fill-rule:evenodd;"
points="4503,5406
4503,5426
4503,5446
4485,5464
4446,5425
4408,5387
4370,5348
4331,5387
4292,5426
4330,5464
4368,5503
4407,5464
4446,5425
4485,5464
4445,5503
4389,5560
4370,5560
4350,5560
4292,5503
4234,5445
4234,5425
4234,5406
4292,5348
4349,5291
4368,5290
4388,5290
4445,5348
4503,5406
4503,5406
" /> 
<polyline style="fill-rule:evenodd;"
points="3525,6059
3525,6078
3525,6097
3506,6116
3390,6001
3352,6039
3313,6078
3352,6117
3390,6155
3429,6117
3467,6079
3429,6039
3390,6001
3506,6116
3467,6155
3409,6212
3390,6213
3371,6212
3313,6154
3255,6096
3255,6078
3255,6060
3313,6002
3371,5944
3391,5944
3409,5944
3467,6002
3525,6059
3525,6059
" /> 
<polyline style="fill-rule:evenodd;"
points="3687,5895
3687,5915
3687,5935
3669,5953
3554,5838
3515,5877
3477,5915
3516,5954
3554,5992
3592,5954
3630,5915
3592,5876
3554,5838
3669,5953
3630,5992
3573,6049
3554,6050
3535,6049
3477,5991
3419,5933
3419,5915
3419,5896
3477,5838
3535,5780
3554,5781
3573,5780
3630,5838
3687,5895
3687,5895
" /> 
<polyline style="fill-rule:evenodd;"
points="3851,5732
3851,5751
3851,5771
3832,5790
3793,5752
3755,5714
3716,5675
3678,5713
3640,5751
3679,5790
3717,5828
3755,5790
3793,5752
3832,5790
3793,5828
3736,5886
3716,5886
3697,5886
3639,5828
3582,5771
3582,5753
3582,5733
3640,5675
3698,5617
3717,5618
3736,5617
3793,5674
3851,5732
3851,5732
" /> 
<polyline style="fill-rule:evenodd;"
points="4014,5570
4014,5589
4014,5608
3995,5627
3957,5589
3919,5551
3880,5512
3841,5551
3803,5589
3841,5627
3849,5635
3856,5642
3862,5648
3868,5654
3873,5659
3876,5662
3878,5664
3879,5665
3881,5664
3883,5662
3887,5659
3892,5654
3897,5648
3904,5642
3912,5634
3919,5627
3957,5589
3995,5627
3957,5665
3899,5722
3880,5722
3860,5722
3803,5665
3745,5608
3745,5589
3745,5570
3803,5512
3861,5454
3880,5454
3898,5454
3956,5512
4014,5570
4014,5570
" /> 
<polyline style="fill-rule:evenodd;"
points="4341,5243
4341,5263
4341,5281
4322,5300
4206,5185
4167,5224
4129,5263
4167,5302
4206,5340
4245,5301
4283,5263
4244,5224
4206,5185
4322,5300
4283,5339
4225,5397
4206,5397
4187,5397
4129,5339
4071,5281
4071,5263
4071,5244
4129,5186
4187,5128
4206,5128
4225,5128
4283,5186
4341,5243
4341,5243
" /> 
<polyline style="fill-rule:evenodd;"
points="4177,5080
4177,5099
4177,5118
4158,5137
4120,5099
4082,5061
4043,5022
4004,5061
3965,5099
4004,5138
4042,5177
4081,5138
4120,5099
4158,5137
4119,5176
4061,5234
4043,5234
4023,5234
3966,5177
3908,5119
3909,5099
3908,5080
3966,5022
4024,4964
4043,4965
4062,4964
4120,5022
4177,5080
4177,5080
" /> 
<polyline style="fill-rule:evenodd;"
points="3198,5732
3199,5751
3198,5770
3179,5790
3141,5751
3103,5713
3064,5674
3026,5713
2987,5751
3026,5790
3064,5828
3103,5790
3141,5751
3179,5790
3140,5828
3083,5886
3064,5886
3045,5886
2987,5828
2929,5770
2929,5752
2929,5732
2987,5674
3045,5617
3064,5617
3083,5617
3141,5675
3198,5732
3198,5732
" /> 
<polyline style="fill-rule:evenodd;"
points="3361,5569
3361,5589
3361,5607
3342,5627
3303,5589
3265,5551
3227,5512
3188,5550
3150,5588
3189,5627
3227,5665
3265,5627
3303,5589
3342,5627
3303,5665
3246,5722
3227,5723
3208,5722
3151,5665
3093,5607
3093,5589
3093,5569
3150,5512
3208,5454
3228,5454
3246,5454
3304,5512
3361,5569
3361,5569
" /> 
<polyline style="fill-rule:evenodd;"
points="3525,5406
3525,5425
3525,5444
3505,5464
3467,5425
3429,5387
3390,5348
3351,5387
3313,5425
3352,5464
3390,5502
3429,5464
3467,5425
3505,5464
3467,5502
3409,5560
3390,5560
3371,5560
3313,5503
3255,5445
3255,5426
3255,5406
3313,5349
3371,5291
3390,5291
3410,5291
3467,5348
3525,5406
3525,5406
" /> 
<polyline style="fill-rule:evenodd;"
points="3687,5243
3687,5263
3687,5281
3668,5300
3630,5262
3592,5224
3553,5185
3514,5224
3477,5263
3515,5301
3553,5339
3591,5301
3630,5262
3668,5300
3629,5339
3572,5396
3553,5397
3534,5396
3477,5339
3419,5281
3419,5263
3418,5244
3476,5186
3534,5128
3553,5128
3572,5128
3630,5186
3687,5243
3687,5243
" /> 
<polyline style="fill-rule:evenodd;"
points="3851,5080
3851,5099
3851,5118
3832,5137
3793,5099
3755,5061
3716,5022
3677,5061
3639,5099
3677,5138
3716,5177
3755,5138
3793,5099
3832,5137
3793,5176
3735,5234
3716,5234
3697,5234
3640,5176
3582,5118
3582,5099
3581,5080
3639,5022
3697,4964
3716,4965
3735,4964
3793,5022
3851,5080
3851,5080
" /> 
</g>
<g style="fill:#00A0A0; fill-opacity:1.0; 
stroke:#00A0A0; stroke-width:59.0551; stroke-opacity:1; 
stroke-linecap:round; stroke-linejoin:round;">
<path d="M7728 8028
L6313 6613
" />
<path d="M8435 7320
L7020 5906
" />
<path d="M9848 5908
L8433 4493
" />
<path d="M10555 5200
L9140 3786
" />
<path d="M5608 10148
L4193 8733
" />
<path d="M6315 9440
L4900 8026
" />
<path d="M19952 15750
L18538 14336
" />
<path d="M19245 13629
L20659 15043
" />
<path d="M17832 17870
L16418 16456
" />
<path d="M17125 15749
L18539 17163
" />
<path d="M15712 19990
L14298 18576
" />
<path d="M15005 17869
L16419 19283
" />
</g>
<g style="fill:#808000; fill-opacity:1.0; 
stroke:#808000; stroke-width:39.3701; stroke-opacity:1; 
stroke-linecap:round; stroke-linejoin:round;">
<circle cx="21661.6" cy="12183.9" r="255.315" /> 
<circle cx="20661.6" cy="12183.9" r="255.315" /> 
<circle cx="20661.6" cy="11183.9" r="255.315" /> 
<circle cx="12911.6" cy="20363.9" r="310.315" /> 
<circle cx="11911.6" cy="20363.9" r="310.315" /> 
<circle cx="16957.8" cy="3295.04" r="255.315" /> 
<circle cx="16250.7" cy="4002.14" r="255.315" /> 
<circle cx="15543.5" cy="4709.25" r="255.315" /> 
<circle cx="14836.4" cy="5416.36" r="255.315" /> 
<circle cx="14129.3" cy="6123.46" r="255.315" /> 
<circle cx="13422.2" cy="6830.57" r="255.315" /> 
<circle cx="12715.1" cy="7537.68" r="255.315" /> 
<circle cx="12008" cy="8244.78" r="255.315" /> 
<circle cx="11300.9" cy="8951.89" r="255.315" /> 
<circle cx="10593.8" cy="9659" r="255.315" /> 
<circle cx="9886.69" cy="10366.1" r="255.315" /> 
<circle cx="9179.59" cy="11073.2" r="255.315" /> 
<circle cx="8472.48" cy="11780.3" r="255.315" /> 
<circle cx="7765.37" cy="12487.4" r="255.315" /> 
<circle cx="7058.27" cy="13194.5" r="255.315" /> 
<circle cx="6351.16" cy="13901.6" r="255.315" /> 
<circle cx="5644.05" cy="14608.7" r="255.315" /> 
<circle cx="4936.95" cy="15315.9" r="255.315" /> 
<circle cx="4229.84" cy="16023" r="255.315" /> 
<circle cx="3522.73" cy="16730.1" r="255.315" /> 
<circle cx="7765.37" cy="20972.7" r="255.315" /> 
<circle cx="8472.48" cy="20265.6" r="255.315" /> 
<circle cx="9179.59" cy="19558.5" r="255.315" /> 
<circle cx="9886.69" cy="18851.4" r="255.315" /> 
<circle cx="10593.8" cy="18144.3" r="255.315" /> 
<circle cx="11300.9" cy="17437.2" r="255.315" /> 
<circle cx="12008" cy="16730.1" r="255.315" /> 
<circle cx="12715.1" cy="16023" r="255.315" /> 
<circle cx="13422.2" cy="15315.9" r="255.315" /> 
<circle cx="14129.3" cy="14608.7" r="255.315" /> 
<circle cx="14836.4" cy="13901.6" r="255.315" /> 
<circle cx="15543.5" cy="13194.5" r="255.315" /> 
<circle cx="16250.7" cy="12487.4" r="255.315" /> 
<circle cx="16957.8" cy="11780.3" r="255.315" /> 
<circle cx="17664.9" cy="11073.2" r="255.315" /> 
<circle cx="18372" cy="10366.1" r="255.315" /> 
<circle cx="19079.1" cy="9659" r="255.315" /> 
<circle cx="19786.2" cy="8951.89" r="255.315" /> 
<circle cx="20493.3" cy="8244.78" r="255.315" /> 
<circle cx="21200.4" cy="7537.68" r="255.315" /> 
<circle cx="13011.6" cy="2983.87" r="330.315" /> 
<circle cx="12011.6" cy="2983.87" r="330.315" /> 
<circle cx="7454.46" cy="10741" r="280.315" /> 
<circle cx="8161.57" cy="10033.9" r="280.315" /> 
<circle cx="8868.67" cy="9326.76" r="280.315" /> 
<circle cx="16793.1" cy="21512.3" r="280.315" /> 
<circle cx="17500.2" cy="20805.2" r="280.315" /> 
<circle cx="18207.4" cy="20098.1" r="280.315" /> 
<circle cx="18914.5" cy="19391" r="280.315" /> 
<circle cx="19621.6" cy="18683.9" r="280.315" /> 
<circle cx="20328.7" cy="17976.8" r="280.315" /> 
<circle cx="21035.8" cy="17269.7" r="280.315" /> 
<circle cx="21742.9" cy="16562.6" r="280.315" /> 
<circle cx="20684.4" cy="20460.6" r="780.315" /> 
<circle cx="4148.97" cy="3925.21" r="780.315" /> 
<circle cx="19500.9" cy="3530.32" r="280.315" /> 
<circle cx="20208" cy="2823.21" r="280.315" /> 
<circle cx="20208" cy="4237.43" r="280.315" /> 
<circle cx="20915.1" cy="3530.32" r="280.315" /> 
<circle cx="20915.1" cy="4944.53" r="280.315" /> 
<circle cx="21622.2" cy="4237.43" r="280.315" /> 
<circle cx="5122.23" cy="20887.4" r="280.315" /> 
<circle cx="4415.12" cy="21594.5" r="280.315" /> 
<circle cx="4415.12" cy="20180.3" r="280.315" /> 
<circle cx="3708.01" cy="20887.4" r="280.315" /> 
<circle cx="3708.01" cy="19473.2" r="280.315" /> 
<circle cx="3000.91" cy="20180.3" r="280.315" /> 
<polyline style="fill-rule:evenodd;"
points="4666,11828
4666,12239
4356,12239
4356,11828
4666,11828
" /> 
<polyline style="fill-rule:evenodd;"
points="4166,11828
4166,12239
3856,12239
3856,11828
4166,11828
" /> 
<polyline style="fill-rule:evenodd;"
points="3666,11828
3666,12239
3356,12239
3356,11828
3666,11828
" /> 
<polyline style="fill-rule:evenodd;"
points="3166,11828
3166,12239
2856,12239
2856,11828
3166,11828
" /> 
<circle cx="7374.46" cy="8381.64" r="355.315" /> 
<circle cx="8081.57" cy="7674.53" r="355.315" /> 
<circle cx="8788.67" cy="6967.43" r="355.315" /> 
<circle cx="6667.35" cy="7674.53" r="355.315" /> 
<circle cx="7374.46" cy="6967.43" r="355.315" /> 
<circle cx="8081.57" cy="6260.32" r="355.315" /> 
<circle cx="5960.25" cy="6967.43" r="355.315" /> 
<circle cx="6667.35" cy="6260.32" r="355.315" /> 
<circle cx="7374.46" cy="5553.21" r="355.315" /> 
<circle cx="9494.46" cy="6261.64" r="355.315" /> 
<circle cx="10201.6" cy="5554.53" r="355.315" /> 
<circle cx="10908.7" cy="4847.43" r="355.315" /> 
<circle cx="8787.35" cy="5554.53" r="355.315" /> 
<circle cx="9494.46" cy="4847.43" r="355.315" /> 
<circle cx="10201.6" cy="4140.32" r="355.315" /> 
<circle cx="8080.25" cy="4847.43" r="355.315" /> 
<circle cx="8787.35" cy="4140.32" r="355.315" /> 
<circle cx="9494.46" cy="3433.21" r="355.315" /> 
<circle cx="5254.46" cy="10501.6" r="355.315" /> 
<circle cx="5961.57" cy="9794.53" r="355.315" /> 
<circle cx="6668.67" cy="9087.43" r="355.315" /> 
<circle cx="4547.35" cy="9794.53" r="355.315" /> 
<circle cx="5254.46" cy="9087.43" r="355.315" /> 
<circle cx="5961.57" cy="8380.32" r="355.315" /> 
<circle cx="3840.25" cy="9087.43" r="355.315" /> 
<circle cx="4547.35" cy="8380.32" r="355.315" /> 
<circle cx="5254.46" cy="7673.21" r="355.315" /> 
<circle cx="19598.7" cy="13276.1" r="355.315" /> 
<circle cx="18891.6" cy="13983.2" r="355.315" /> 
<circle cx="18184.5" cy="14690.3" r="355.315" /> 
<circle cx="20305.8" cy="13983.2" r="355.315" /> 
<circle cx="19598.7" cy="14690.3" r="355.315" /> 
<circle cx="18891.6" cy="15397.4" r="355.315" /> 
<circle cx="21012.9" cy="14690.3" r="355.315" /> 
<circle cx="20305.8" cy="15397.4" r="355.315" /> 
<circle cx="19598.7" cy="16104.5" r="355.315" /> 
<circle cx="17478.7" cy="15396.1" r="355.315" /> 
<circle cx="16771.6" cy="16103.2" r="355.315" /> 
<circle cx="16064.5" cy="16810.3" r="355.315" /> 
<circle cx="18185.8" cy="16103.2" r="355.315" /> 
<circle cx="17478.7" cy="16810.3" r="355.315" /> 
<circle cx="16771.6" cy="17517.4" r="355.315" /> 
<circle cx="18892.9" cy="16810.3" r="355.315" /> 
<circle cx="18185.8" cy="17517.4" r="355.315" /> 
<circle cx="17478.7" cy="18224.5" r="355.315" /> 
<circle cx="15358.7" cy="17516.1" r="355.315" /> 
<circle cx="14651.6" cy="18223.2" r="355.315" /> 
<circle cx="13944.5" cy="18930.3" r="355.315" /> 
<circle cx="16065.8" cy="18223.2" r="355.315" /> 
<circle cx="15358.7" cy="18930.3" r="355.315" /> 
<circle cx="14651.6" cy="19637.4" r="355.315" /> 
<circle cx="16772.9" cy="18930.3" r="355.315" /> 
<circle cx="16065.8" cy="19637.4" r="355.315" /> 
<circle cx="15358.7" cy="20344.5" r="355.315" /> 
</g> 
</svg>
