G04 (created by PCBNEW (2014-01-10 BZR 4027)-stable) date Thursday, April 17, 2014 'amt' 11:38:12 am*
%MOIN*%
G04 Gerber Fmt 3.4, Leading zero omitted, Abs format*
%FSLAX34Y34*%
G01*
G70*
G90*
G04 APERTURE LIST*
%ADD10C,0.00590551*%
%ADD11C,0.055*%
%ADD12C,0.066*%
%ADD13C,0.07*%
%ADD14C,0.06*%
%ADD15R,0.035X0.055*%
%ADD16R,0.055X0.035*%
%ADD17C,0.16*%
%ADD18R,0.0394X0.0315*%
%ADD19R,0.035X0.045*%
%ADD20C,0.075*%
%ADD21C,0.03*%
%ADD22C,0.015*%
%ADD23C,0.05*%
%ADD24C,0.02*%
%ADD25C,0.013*%
G04 APERTURE END LIST*
G54D10*
G54D11*
X32866Y-15738D03*
X31866Y-15738D03*
X31866Y-14738D03*
G54D12*
X24116Y-23918D03*
X23116Y-23918D03*
G54D11*
X28163Y-6850D03*
X27456Y-7557D03*
X26748Y-8264D03*
X26041Y-8971D03*
X25334Y-9678D03*
X24627Y-10385D03*
X23920Y-11092D03*
X23213Y-11799D03*
X22506Y-12506D03*
X21799Y-13214D03*
X21092Y-13921D03*
X20384Y-14628D03*
X19677Y-15335D03*
X18970Y-16042D03*
X18263Y-16749D03*
X17556Y-17456D03*
X16849Y-18163D03*
X16142Y-18870D03*
X15435Y-19578D03*
X14728Y-20285D03*
X18970Y-24527D03*
X19677Y-23820D03*
X20384Y-23113D03*
X21092Y-22406D03*
X21799Y-21699D03*
X22506Y-20992D03*
X23213Y-20285D03*
X23920Y-19578D03*
X24627Y-18870D03*
X25334Y-18163D03*
X26041Y-17456D03*
X26748Y-16749D03*
X27456Y-16042D03*
X28163Y-15335D03*
X28870Y-14628D03*
X29577Y-13921D03*
X30284Y-13214D03*
X30991Y-12506D03*
X31698Y-11799D03*
X32405Y-11092D03*
G54D13*
X24216Y-6538D03*
X23216Y-6538D03*
G54D14*
X18659Y-14296D03*
X19366Y-13588D03*
X20074Y-12881D03*
G54D10*
G36*
X28022Y-18722D02*
X27633Y-18333D01*
X27881Y-18085D01*
X28269Y-18474D01*
X28022Y-18722D01*
X28022Y-18722D01*
G37*
G36*
X28552Y-18192D02*
X28163Y-17803D01*
X28411Y-17555D01*
X28800Y-17944D01*
X28552Y-18192D01*
X28552Y-18192D01*
G37*
G36*
X21331Y-23285D02*
X21720Y-23674D01*
X21472Y-23922D01*
X21083Y-23533D01*
X21331Y-23285D01*
X21331Y-23285D01*
G37*
G36*
X20801Y-23815D02*
X21189Y-24204D01*
X20942Y-24452D01*
X20553Y-24063D01*
X20801Y-23815D01*
X20801Y-23815D01*
G37*
G54D14*
X27998Y-25067D03*
X28705Y-24360D03*
X29412Y-23653D03*
X30119Y-22946D03*
X30826Y-22238D03*
X31534Y-21531D03*
X32241Y-20824D03*
X32948Y-20117D03*
G54D15*
X32091Y-12988D03*
X32841Y-12988D03*
G54D10*
G36*
X30702Y-14612D02*
X30313Y-14223D01*
X30561Y-13975D01*
X30949Y-14364D01*
X30702Y-14612D01*
X30702Y-14612D01*
G37*
G36*
X31232Y-14082D02*
X30843Y-13693D01*
X31091Y-13445D01*
X31480Y-13834D01*
X31232Y-14082D01*
X31232Y-14082D01*
G37*
G36*
X32681Y-21405D02*
X33070Y-21794D01*
X32822Y-22042D01*
X32433Y-21653D01*
X32681Y-21405D01*
X32681Y-21405D01*
G37*
G36*
X32151Y-21935D02*
X32539Y-22324D01*
X32292Y-22572D01*
X31903Y-22183D01*
X32151Y-21935D01*
X32151Y-21935D01*
G37*
G36*
X29792Y-25232D02*
X29403Y-24843D01*
X29651Y-24595D01*
X30039Y-24984D01*
X29792Y-25232D01*
X29792Y-25232D01*
G37*
G36*
X30322Y-24702D02*
X29933Y-24313D01*
X30181Y-24065D01*
X30570Y-24454D01*
X30322Y-24702D01*
X30322Y-24702D01*
G37*
G36*
X23954Y-8996D02*
X24343Y-9385D01*
X24095Y-9633D01*
X23706Y-9244D01*
X23954Y-8996D01*
X23954Y-8996D01*
G37*
G36*
X23424Y-9526D02*
X23813Y-9915D01*
X23565Y-10163D01*
X23176Y-9774D01*
X23424Y-9526D01*
X23424Y-9526D01*
G37*
G36*
X22585Y-11123D02*
X22196Y-10734D01*
X22444Y-10486D01*
X22833Y-10875D01*
X22585Y-11123D01*
X22585Y-11123D01*
G37*
G36*
X23115Y-10593D02*
X22726Y-10204D01*
X22974Y-9956D01*
X23363Y-10345D01*
X23115Y-10593D01*
X23115Y-10593D01*
G37*
G36*
X21894Y-11016D02*
X22283Y-11405D01*
X22035Y-11653D01*
X21646Y-11264D01*
X21894Y-11016D01*
X21894Y-11016D01*
G37*
G36*
X21364Y-11546D02*
X21753Y-11935D01*
X21505Y-12183D01*
X21116Y-11794D01*
X21364Y-11546D01*
X21364Y-11546D01*
G37*
G54D16*
X16760Y-16935D03*
X16760Y-16185D03*
X14366Y-18763D03*
X14366Y-18013D03*
X15166Y-18163D03*
X15166Y-17413D03*
X15966Y-17563D03*
X15966Y-16813D03*
G54D17*
X31889Y-24015D03*
G54D18*
X16437Y-15140D03*
X17303Y-14765D03*
X17303Y-15515D03*
G54D17*
X15354Y-7480D03*
G54D14*
X30706Y-7085D03*
X31413Y-6378D03*
X31413Y-7792D03*
X32120Y-7085D03*
X32120Y-8499D03*
X32827Y-7792D03*
X16327Y-24442D03*
X15620Y-25149D03*
X15620Y-23735D03*
X14913Y-24442D03*
X14913Y-23028D03*
X14206Y-23735D03*
G54D19*
X15716Y-15588D03*
X15216Y-15588D03*
X14716Y-15588D03*
X14216Y-15588D03*
G54D14*
X19867Y-18353D03*
X20574Y-17646D03*
X21281Y-16938D03*
X21988Y-16231D03*
X22695Y-15524D03*
X23402Y-14817D03*
X24109Y-14110D03*
X24816Y-13403D03*
X25524Y-12696D03*
X26231Y-11989D03*
X29766Y-15524D03*
X29059Y-16231D03*
X28352Y-16938D03*
X27645Y-17646D03*
X26938Y-18353D03*
X26231Y-19060D03*
X25524Y-19767D03*
X24816Y-20474D03*
X24109Y-21181D03*
X23402Y-21888D03*
G54D20*
X18579Y-11936D03*
X19286Y-11229D03*
X19994Y-10522D03*
X17872Y-11229D03*
X18579Y-10522D03*
X19286Y-9815D03*
X17165Y-10522D03*
X17872Y-9815D03*
X18579Y-9108D03*
X20699Y-9816D03*
X21406Y-9109D03*
X22114Y-8402D03*
X19992Y-9109D03*
X20699Y-8402D03*
X21406Y-7695D03*
X19285Y-8402D03*
X19992Y-7695D03*
X20699Y-6988D03*
X16459Y-14056D03*
X17166Y-13349D03*
X17874Y-12642D03*
X15752Y-13349D03*
X16459Y-12642D03*
X17166Y-11935D03*
X15045Y-12642D03*
X15752Y-11935D03*
X16459Y-11228D03*
X30804Y-16831D03*
X30096Y-17538D03*
X29389Y-18245D03*
X31511Y-17538D03*
X30804Y-18245D03*
X30096Y-18952D03*
X32218Y-18245D03*
X31511Y-18952D03*
X30804Y-19659D03*
X28684Y-18951D03*
X27976Y-19658D03*
X27269Y-20365D03*
X29391Y-19658D03*
X28684Y-20365D03*
X27976Y-21072D03*
X30098Y-20365D03*
X29391Y-21072D03*
X28684Y-21779D03*
X26564Y-21071D03*
X25856Y-21778D03*
X25149Y-22485D03*
X27271Y-21778D03*
X26564Y-22485D03*
X25856Y-23192D03*
X27978Y-22485D03*
X27271Y-23192D03*
X26564Y-23899D03*
G54D21*
X21841Y-15388D03*
X31091Y-10513D03*
X28891Y-8313D03*
X20316Y-23738D03*
X31566Y-13388D03*
X26791Y-13263D03*
X26966Y-12038D03*
X16854Y-18876D03*
X24216Y-16313D03*
X25116Y-14413D03*
X24650Y-9180D03*
X24986Y-23308D03*
X23076Y-19458D03*
X29806Y-10618D03*
X24916Y-15613D03*
X27066Y-9438D03*
X27691Y-10063D03*
X14916Y-21588D03*
G54D22*
X23328Y-11201D02*
X23328Y-10558D01*
X23328Y-10558D02*
X23045Y-10274D01*
X23045Y-10274D02*
X23065Y-10274D01*
X23065Y-10274D02*
X23494Y-9845D01*
X27456Y-15328D02*
X27456Y-16042D01*
X23328Y-11201D02*
X27456Y-15328D01*
X28482Y-17873D02*
X28482Y-17779D01*
X27452Y-16749D02*
X26748Y-16749D01*
X28482Y-17779D02*
X27452Y-16749D01*
X18970Y-16042D02*
X18970Y-16042D01*
X18970Y-16042D02*
X20574Y-17646D01*
X16760Y-16185D02*
X17885Y-16185D01*
X17885Y-16185D02*
X18610Y-15460D01*
X16437Y-15140D02*
X16437Y-15862D01*
X16437Y-15862D02*
X16760Y-16185D01*
X21281Y-16938D02*
X20568Y-16938D01*
X19090Y-15460D02*
X18610Y-15460D01*
X20568Y-16938D02*
X19090Y-15460D01*
X17303Y-15515D02*
X17215Y-15515D01*
X15216Y-14923D02*
X15216Y-15588D01*
X15480Y-14660D02*
X15216Y-14923D01*
X16720Y-14660D02*
X15480Y-14660D01*
X16840Y-14780D02*
X16720Y-14660D01*
X16840Y-15140D02*
X16840Y-14780D01*
X17215Y-15515D02*
X16840Y-15140D01*
X21150Y-11054D02*
X21150Y-11050D01*
X21394Y-10805D02*
X22514Y-10805D01*
X21150Y-11050D02*
X21394Y-10805D01*
X27951Y-18404D02*
X27682Y-18404D01*
X26734Y-17456D02*
X26041Y-17456D01*
X27682Y-18404D02*
X26734Y-17456D01*
X25106Y-18638D02*
X25091Y-18638D01*
X21092Y-14639D02*
X21092Y-13921D01*
X25091Y-18638D02*
X21841Y-15388D01*
X21841Y-15388D02*
X21092Y-14639D01*
G54D23*
X31566Y-10988D02*
X31091Y-10513D01*
X31091Y-10513D02*
X28891Y-8313D01*
G54D24*
X32225Y-11612D02*
X32225Y-12029D01*
X32091Y-12163D02*
X32091Y-12988D01*
X32225Y-12029D02*
X32091Y-12163D01*
X31601Y-10988D02*
X32225Y-11612D01*
G54D22*
X20759Y-13588D02*
X21092Y-13921D01*
X19366Y-13588D02*
X20759Y-13588D01*
X20871Y-24134D02*
X20712Y-24134D01*
X20712Y-24134D02*
X20316Y-23738D01*
X26041Y-18134D02*
X26041Y-17456D01*
X25536Y-18638D02*
X26041Y-18134D01*
X25106Y-18638D02*
X25536Y-18638D01*
X31566Y-13388D02*
X31536Y-13388D01*
X31536Y-13388D02*
X31162Y-13763D01*
X19366Y-13588D02*
X19366Y-12438D01*
X20751Y-11054D02*
X21150Y-11054D01*
X19366Y-12438D02*
X20751Y-11054D01*
G54D24*
X31566Y-13388D02*
X31566Y-13413D01*
X32091Y-12988D02*
X31991Y-12988D01*
X31991Y-12988D02*
X31566Y-13413D01*
G54D22*
X27006Y-25158D02*
X21016Y-25158D01*
X21016Y-25158D02*
X19677Y-23820D01*
X30252Y-24383D02*
X29472Y-24383D01*
X28196Y-24558D02*
X27606Y-24558D01*
X28526Y-24888D02*
X28196Y-24558D01*
X28966Y-24888D02*
X28526Y-24888D01*
X29472Y-24383D02*
X28966Y-24888D01*
X30119Y-22946D02*
X30119Y-24251D01*
X30119Y-24251D02*
X30252Y-24383D01*
X27006Y-25158D02*
X27606Y-24558D01*
X26866Y-24908D02*
X22180Y-24908D01*
X22180Y-24908D02*
X20384Y-23113D01*
X30826Y-22238D02*
X29966Y-22238D01*
X26903Y-24908D02*
X26866Y-24908D01*
X27523Y-24288D02*
X26903Y-24908D01*
X27916Y-24288D02*
X27523Y-24288D01*
X29966Y-22238D02*
X27916Y-24288D01*
X30826Y-22238D02*
X32206Y-22238D01*
X32206Y-22238D02*
X32221Y-22254D01*
X15166Y-18163D02*
X15166Y-19309D01*
X15166Y-19309D02*
X15435Y-19578D01*
X14716Y-15588D02*
X14716Y-16963D01*
X14716Y-16963D02*
X15166Y-17413D01*
X14366Y-18763D02*
X14366Y-19924D01*
X14366Y-19924D02*
X14728Y-20285D01*
X14216Y-15588D02*
X14216Y-17863D01*
X14216Y-17863D02*
X14366Y-18013D01*
X15966Y-17563D02*
X15966Y-18695D01*
X15966Y-18695D02*
X16142Y-18870D01*
X15716Y-15588D02*
X15716Y-16563D01*
X15716Y-16563D02*
X15966Y-16813D01*
X23920Y-11092D02*
X24620Y-11092D01*
X24620Y-11092D02*
X26791Y-13263D01*
X26316Y-11388D02*
X25630Y-11388D01*
X25630Y-11388D02*
X24627Y-10385D01*
X26966Y-12038D02*
X26316Y-11388D01*
X21402Y-23603D02*
X22801Y-23603D01*
X22801Y-23603D02*
X23116Y-23918D01*
X18263Y-16749D02*
X16945Y-16749D01*
X16945Y-16749D02*
X16760Y-16935D01*
X20699Y-9816D02*
X21989Y-9816D01*
X26723Y-8238D02*
X26748Y-8264D01*
X23566Y-8238D02*
X26723Y-8238D01*
X21989Y-9816D02*
X23566Y-8238D01*
X21406Y-9109D02*
X22342Y-9109D01*
X25502Y-7952D02*
X25898Y-7557D01*
X23499Y-7952D02*
X25502Y-7952D01*
X22342Y-9109D02*
X23499Y-7952D01*
X25898Y-7557D02*
X27456Y-7557D01*
X22114Y-8402D02*
X22117Y-8402D01*
X25949Y-6850D02*
X28163Y-6850D01*
X25096Y-7702D02*
X25949Y-6850D01*
X22816Y-7702D02*
X25096Y-7702D01*
X22117Y-8402D02*
X22816Y-7702D01*
X29577Y-13921D02*
X29577Y-14629D01*
X30306Y-16334D02*
X30804Y-16831D01*
X30306Y-15358D02*
X30306Y-16334D01*
X29577Y-14629D02*
X30306Y-15358D01*
X28870Y-14628D02*
X28870Y-15342D01*
X29656Y-17098D02*
X30096Y-17538D01*
X29656Y-16128D02*
X29656Y-17098D01*
X28870Y-15342D02*
X29656Y-16128D01*
X28163Y-15335D02*
X28163Y-16035D01*
X28896Y-17752D02*
X29389Y-18245D01*
X28896Y-16768D02*
X28896Y-17752D01*
X28163Y-16035D02*
X28896Y-16768D01*
X22182Y-10422D02*
X21357Y-10422D01*
X21357Y-10422D02*
X21021Y-10758D01*
X25166Y-8788D02*
X25966Y-9588D01*
X23816Y-8788D02*
X25166Y-8788D01*
X22182Y-10422D02*
X23816Y-8788D01*
X19286Y-11229D02*
X20196Y-11229D01*
X20666Y-10758D02*
X21021Y-10758D01*
X20196Y-11229D02*
X20666Y-10758D01*
X30284Y-13206D02*
X26666Y-9588D01*
X30284Y-13214D02*
X30284Y-13206D01*
X26666Y-9588D02*
X25966Y-9588D01*
X22072Y-10132D02*
X21277Y-10132D01*
X21277Y-10132D02*
X20921Y-10488D01*
X19994Y-10522D02*
X20458Y-10522D01*
X20491Y-10488D02*
X20921Y-10488D01*
X20458Y-10522D02*
X20491Y-10488D01*
X25584Y-8513D02*
X26041Y-8971D01*
X23691Y-8513D02*
X25584Y-8513D01*
X22072Y-10132D02*
X23691Y-8513D01*
X25640Y-18888D02*
X24645Y-18888D01*
X24645Y-18888D02*
X24627Y-18870D01*
X26829Y-18951D02*
X28684Y-18951D01*
X26406Y-18528D02*
X26829Y-18951D01*
X26000Y-18528D02*
X26406Y-18528D01*
X25640Y-18888D02*
X26000Y-18528D01*
X23920Y-19578D02*
X24777Y-19578D01*
X26126Y-19658D02*
X27976Y-19658D01*
X25696Y-19228D02*
X26126Y-19658D01*
X25126Y-19228D02*
X25696Y-19228D01*
X24777Y-19578D02*
X25126Y-19228D01*
X27269Y-20365D02*
X25423Y-20365D01*
X24956Y-19898D02*
X24416Y-19898D01*
X25423Y-20365D02*
X24956Y-19898D01*
X23213Y-20285D02*
X24030Y-20285D01*
X24030Y-20285D02*
X24416Y-19898D01*
X16854Y-18876D02*
X19354Y-18876D01*
X19354Y-18876D02*
X21470Y-20992D01*
X21470Y-20992D02*
X22506Y-20992D01*
X21799Y-21699D02*
X22656Y-21699D01*
X24699Y-21071D02*
X26564Y-21071D01*
X24286Y-20658D02*
X24699Y-21071D01*
X23696Y-20658D02*
X24286Y-20658D01*
X22656Y-21699D02*
X23696Y-20658D01*
X21092Y-22406D02*
X23639Y-22406D01*
X24267Y-21778D02*
X25856Y-21778D01*
X23639Y-22406D02*
X24267Y-21778D01*
X18970Y-24527D02*
X18970Y-23595D01*
X24636Y-22998D02*
X25149Y-22485D01*
X20956Y-22998D02*
X24636Y-22998D01*
X20486Y-22528D02*
X20956Y-22998D01*
X20036Y-22528D02*
X20486Y-22528D01*
X18970Y-23595D02*
X20036Y-22528D01*
X22506Y-12506D02*
X22506Y-11875D01*
X22506Y-11875D02*
X21965Y-11334D01*
X20316Y-11888D02*
X20316Y-11857D01*
X20316Y-12413D02*
X20316Y-11888D01*
X20316Y-12413D02*
X24216Y-16313D01*
X20316Y-11857D02*
X20864Y-11310D01*
X20880Y-11310D02*
X21890Y-11310D01*
X20864Y-11310D02*
X20880Y-11310D01*
X21890Y-11310D02*
X22045Y-11464D01*
X23213Y-11799D02*
X23213Y-12510D01*
X23213Y-12510D02*
X25116Y-14413D01*
X24025Y-9314D02*
X24515Y-9314D01*
X24515Y-9314D02*
X24650Y-9180D01*
G54D23*
X31866Y-16638D02*
X31866Y-16648D01*
X32241Y-19514D02*
X32241Y-20824D01*
X32946Y-18808D02*
X32241Y-19514D01*
X32946Y-17728D02*
X32946Y-18808D01*
X31866Y-16648D02*
X32946Y-17728D01*
G54D22*
X32841Y-12988D02*
X32841Y-13713D01*
X32841Y-13713D02*
X32866Y-13738D01*
G54D23*
X33086Y-10646D02*
X33086Y-8051D01*
X33086Y-8051D02*
X32827Y-7792D01*
X21406Y-7695D02*
X21406Y-7691D01*
X28660Y-6220D02*
X33086Y-10646D01*
X33086Y-10646D02*
X33116Y-10676D01*
X25977Y-6220D02*
X28660Y-6220D01*
X24920Y-7277D02*
X25977Y-6220D01*
X21820Y-7277D02*
X24920Y-7277D01*
X21406Y-7691D02*
X21820Y-7277D01*
X32866Y-13738D02*
X32866Y-13788D01*
X32866Y-13788D02*
X32866Y-14738D01*
X32866Y-14738D02*
X31866Y-15738D01*
X31866Y-15738D02*
X31866Y-16638D01*
X31866Y-16638D02*
X31866Y-17182D01*
X31866Y-17182D02*
X31511Y-17538D01*
X32866Y-13738D02*
X32866Y-11838D01*
X33116Y-11588D02*
X33116Y-10676D01*
X32866Y-11838D02*
X33116Y-11588D01*
X30804Y-18245D02*
X31511Y-17538D01*
X30096Y-18952D02*
X30096Y-18952D01*
X30096Y-18952D02*
X30804Y-18245D01*
X29391Y-19658D02*
X29391Y-19658D01*
X29391Y-19658D02*
X30096Y-18952D01*
X28684Y-20365D02*
X29391Y-19658D01*
X27976Y-21072D02*
X27976Y-21072D01*
X27976Y-21072D02*
X28684Y-20365D01*
X27271Y-21778D02*
X27271Y-21778D01*
X27271Y-21778D02*
X27976Y-21072D01*
X26564Y-22485D02*
X27271Y-21778D01*
X25856Y-23192D02*
X25856Y-23192D01*
X25856Y-23192D02*
X26564Y-22485D01*
X20699Y-8402D02*
X20699Y-8402D01*
X20699Y-8402D02*
X21406Y-7695D01*
X19992Y-9109D02*
X20699Y-8402D01*
X19286Y-9815D02*
X19286Y-9815D01*
X19286Y-9815D02*
X19992Y-9109D01*
X18579Y-10522D02*
X18579Y-10522D01*
X18579Y-10522D02*
X19286Y-9815D01*
X17872Y-11229D02*
X18579Y-10522D01*
X17166Y-11935D02*
X17166Y-11935D01*
X17166Y-11935D02*
X17872Y-11229D01*
X16459Y-12642D02*
X16459Y-12642D01*
X16459Y-12642D02*
X17166Y-11935D01*
X15752Y-13349D02*
X16459Y-12642D01*
G54D22*
X26786Y-24608D02*
X26286Y-24608D01*
X26286Y-24608D02*
X24986Y-23308D01*
X23076Y-19458D02*
X20972Y-19458D01*
X20972Y-19458D02*
X19867Y-18353D01*
X30631Y-14294D02*
X30631Y-13504D01*
X29806Y-12038D02*
X29806Y-10618D01*
X30836Y-13068D02*
X29806Y-12038D01*
X30836Y-13298D02*
X30836Y-13068D01*
X30631Y-13504D02*
X30836Y-13298D01*
X31866Y-14738D02*
X31076Y-14738D01*
X31076Y-14738D02*
X30631Y-14294D01*
X31534Y-21531D02*
X29874Y-21531D01*
X26796Y-24608D02*
X26786Y-24608D01*
X29874Y-21531D02*
X26796Y-24608D01*
X31534Y-21531D02*
X32560Y-21531D01*
X32560Y-21531D02*
X32752Y-21723D01*
X29721Y-24914D02*
X29721Y-24953D01*
X33056Y-22028D02*
X32752Y-21723D01*
X33056Y-24708D02*
X33056Y-22028D01*
X32566Y-25198D02*
X33056Y-24708D01*
X29966Y-25198D02*
X32566Y-25198D01*
X29721Y-24953D02*
X29966Y-25198D01*
X21434Y-11865D02*
X21434Y-12849D01*
X21434Y-12849D02*
X21799Y-13214D01*
X24916Y-15613D02*
X24916Y-17746D01*
X22517Y-13214D02*
X24916Y-15613D01*
X21799Y-13214D02*
X22517Y-13214D01*
X24916Y-17746D02*
X25334Y-18163D01*
X27691Y-10063D02*
X27066Y-9438D01*
X15620Y-25149D02*
X15620Y-24415D01*
X16356Y-23028D02*
X14916Y-21588D01*
X16356Y-23678D02*
X16356Y-23028D01*
X15620Y-24415D02*
X16356Y-23678D01*
G54D10*
G36*
X33249Y-7518D02*
X33247Y-7512D01*
X33108Y-7373D01*
X32926Y-7297D01*
X32729Y-7297D01*
X32547Y-7372D01*
X32408Y-7511D01*
X32332Y-7693D01*
X32332Y-7890D01*
X32407Y-8072D01*
X32546Y-8211D01*
X32641Y-8251D01*
X32641Y-8533D01*
X32615Y-8507D01*
X32615Y-8401D01*
X32540Y-8219D01*
X32401Y-8080D01*
X32219Y-8004D01*
X32112Y-8004D01*
X31908Y-7800D01*
X31908Y-7694D01*
X31833Y-7512D01*
X31694Y-7373D01*
X31512Y-7297D01*
X31405Y-7297D01*
X31201Y-7093D01*
X31201Y-6987D01*
X31126Y-6805D01*
X30987Y-6666D01*
X30805Y-6590D01*
X30698Y-6590D01*
X30227Y-6120D01*
X32655Y-6120D01*
X32895Y-6168D01*
X33078Y-6290D01*
X33202Y-6476D01*
X33249Y-6712D01*
X33249Y-7518D01*
X33249Y-7518D01*
G37*
G54D25*
X33249Y-7518D02*
X33247Y-7512D01*
X33108Y-7373D01*
X32926Y-7297D01*
X32729Y-7297D01*
X32547Y-7372D01*
X32408Y-7511D01*
X32332Y-7693D01*
X32332Y-7890D01*
X32407Y-8072D01*
X32546Y-8211D01*
X32641Y-8251D01*
X32641Y-8533D01*
X32615Y-8507D01*
X32615Y-8401D01*
X32540Y-8219D01*
X32401Y-8080D01*
X32219Y-8004D01*
X32112Y-8004D01*
X31908Y-7800D01*
X31908Y-7694D01*
X31833Y-7512D01*
X31694Y-7373D01*
X31512Y-7297D01*
X31405Y-7297D01*
X31201Y-7093D01*
X31201Y-6987D01*
X31126Y-6805D01*
X30987Y-6666D01*
X30805Y-6590D01*
X30698Y-6590D01*
X30227Y-6120D01*
X32655Y-6120D01*
X32895Y-6168D01*
X33078Y-6290D01*
X33202Y-6476D01*
X33249Y-6712D01*
X33249Y-7518D01*
G54D10*
G36*
X21626Y-21262D02*
X21533Y-21300D01*
X21400Y-21432D01*
X21329Y-21605D01*
X21329Y-21792D01*
X21400Y-21965D01*
X21532Y-22097D01*
X21626Y-22136D01*
X21486Y-22136D01*
X21358Y-22008D01*
X21185Y-21936D01*
X20998Y-21936D01*
X20826Y-22007D01*
X20693Y-22139D01*
X20625Y-22303D01*
X20590Y-22279D01*
X20486Y-22258D01*
X20036Y-22258D01*
X19933Y-22279D01*
X19846Y-22338D01*
X18779Y-23404D01*
X18721Y-23491D01*
X18700Y-23595D01*
X18700Y-24133D01*
X18572Y-24261D01*
X18500Y-24433D01*
X18500Y-24620D01*
X18572Y-24793D01*
X18704Y-24926D01*
X18876Y-24997D01*
X19063Y-24997D01*
X19236Y-24926D01*
X19368Y-24794D01*
X19440Y-24621D01*
X19440Y-24434D01*
X19369Y-24261D01*
X19240Y-24133D01*
X19240Y-23993D01*
X19279Y-24086D01*
X19411Y-24218D01*
X19583Y-24290D01*
X19766Y-24290D01*
X20825Y-25349D01*
X20864Y-25375D01*
X16062Y-25375D01*
X16115Y-25248D01*
X16115Y-25051D01*
X16040Y-24869D01*
X15901Y-24730D01*
X15890Y-24725D01*
X15890Y-24680D01*
X15907Y-24722D01*
X16046Y-24861D01*
X16228Y-24937D01*
X16425Y-24937D01*
X16607Y-24862D01*
X16746Y-24723D01*
X16822Y-24541D01*
X16822Y-24344D01*
X16747Y-24162D01*
X16608Y-24023D01*
X16457Y-23960D01*
X16547Y-23869D01*
X16606Y-23782D01*
X16606Y-23782D01*
X16626Y-23678D01*
X16626Y-23028D01*
X16606Y-22925D01*
X16606Y-22925D01*
X16547Y-22838D01*
X16547Y-22838D01*
X15261Y-21552D01*
X15261Y-21520D01*
X15209Y-21393D01*
X15112Y-21296D01*
X14985Y-21244D01*
X14848Y-21243D01*
X14721Y-21296D01*
X14624Y-21393D01*
X14571Y-21520D01*
X14571Y-21657D01*
X14624Y-21784D01*
X14721Y-21881D01*
X14848Y-21933D01*
X14880Y-21933D01*
X16086Y-23140D01*
X16086Y-23567D01*
X16086Y-23567D01*
X16040Y-23455D01*
X15901Y-23316D01*
X15719Y-23240D01*
X15522Y-23240D01*
X15408Y-23287D01*
X15408Y-22930D01*
X15333Y-22748D01*
X15194Y-22608D01*
X15012Y-22533D01*
X14815Y-22533D01*
X14633Y-22608D01*
X14493Y-22747D01*
X14418Y-22929D01*
X14418Y-23126D01*
X14459Y-23226D01*
X14330Y-23172D01*
X14241Y-23226D01*
X14241Y-23650D01*
X14211Y-23680D01*
X14261Y-23729D01*
X14290Y-23700D01*
X14714Y-23700D01*
X14768Y-23610D01*
X14711Y-23480D01*
X14814Y-23523D01*
X15011Y-23523D01*
X15193Y-23448D01*
X15332Y-23309D01*
X15408Y-23127D01*
X15408Y-22930D01*
X15408Y-23287D01*
X15340Y-23315D01*
X15201Y-23454D01*
X15125Y-23636D01*
X15125Y-23833D01*
X15200Y-24015D01*
X15339Y-24154D01*
X15452Y-24201D01*
X15429Y-24224D01*
X15385Y-24289D01*
X15333Y-24162D01*
X15194Y-24023D01*
X15012Y-23947D01*
X14815Y-23947D01*
X14715Y-23988D01*
X14768Y-23859D01*
X14714Y-23770D01*
X14290Y-23770D01*
X14261Y-23740D01*
X14211Y-23790D01*
X14241Y-23819D01*
X14241Y-24244D01*
X14330Y-24297D01*
X14461Y-24240D01*
X14418Y-24343D01*
X14418Y-24540D01*
X14493Y-24722D01*
X14632Y-24861D01*
X14814Y-24937D01*
X15011Y-24937D01*
X15193Y-24862D01*
X15332Y-24723D01*
X15350Y-24680D01*
X15350Y-24725D01*
X15340Y-24729D01*
X15201Y-24868D01*
X15125Y-25050D01*
X15125Y-25247D01*
X15178Y-25375D01*
X14586Y-25375D01*
X14350Y-25328D01*
X14164Y-25204D01*
X14042Y-25021D01*
X13994Y-24781D01*
X13994Y-24261D01*
X14081Y-24297D01*
X14171Y-24244D01*
X14171Y-23819D01*
X14200Y-23790D01*
X14151Y-23740D01*
X14121Y-23770D01*
X13994Y-23770D01*
X13994Y-23700D01*
X14121Y-23700D01*
X14151Y-23729D01*
X14200Y-23680D01*
X14171Y-23650D01*
X14171Y-23226D01*
X14081Y-23172D01*
X13994Y-23211D01*
X13994Y-19109D01*
X14052Y-19133D01*
X14096Y-19133D01*
X14096Y-19924D01*
X14117Y-20027D01*
X14176Y-20114D01*
X14258Y-20197D01*
X14258Y-20378D01*
X14329Y-20551D01*
X14461Y-20683D01*
X14634Y-20755D01*
X14821Y-20755D01*
X14993Y-20683D01*
X15126Y-20551D01*
X15198Y-20379D01*
X15198Y-20192D01*
X15126Y-20019D01*
X14994Y-19886D01*
X14821Y-19815D01*
X14639Y-19815D01*
X14636Y-19812D01*
X14636Y-19134D01*
X14680Y-19134D01*
X14752Y-19104D01*
X14807Y-19049D01*
X14836Y-18977D01*
X14836Y-18900D01*
X14836Y-18550D01*
X14825Y-18522D01*
X14852Y-18533D01*
X14896Y-18533D01*
X14896Y-19309D01*
X14917Y-19413D01*
X14965Y-19484D01*
X14965Y-19484D01*
X14965Y-19671D01*
X15036Y-19843D01*
X15168Y-19976D01*
X15341Y-20047D01*
X15528Y-20048D01*
X15701Y-19976D01*
X15833Y-19844D01*
X15905Y-19671D01*
X15905Y-19484D01*
X15833Y-19312D01*
X15701Y-19179D01*
X15529Y-19108D01*
X15436Y-19108D01*
X15436Y-18534D01*
X15480Y-18534D01*
X15552Y-18504D01*
X15607Y-18449D01*
X15636Y-18377D01*
X15636Y-18300D01*
X15636Y-17950D01*
X15625Y-17922D01*
X15652Y-17933D01*
X15696Y-17933D01*
X15696Y-18695D01*
X15699Y-18710D01*
X15672Y-18777D01*
X15672Y-18964D01*
X15743Y-19136D01*
X15875Y-19269D01*
X16048Y-19340D01*
X16235Y-19341D01*
X16408Y-19269D01*
X16540Y-19137D01*
X16566Y-19075D01*
X16658Y-19168D01*
X16785Y-19221D01*
X16922Y-19221D01*
X17049Y-19169D01*
X17072Y-19146D01*
X19242Y-19146D01*
X21279Y-21183D01*
X21366Y-21241D01*
X21366Y-21241D01*
X21470Y-21262D01*
X21626Y-21262D01*
X21626Y-21262D01*
G37*
G54D25*
X21626Y-21262D02*
X21533Y-21300D01*
X21400Y-21432D01*
X21329Y-21605D01*
X21329Y-21792D01*
X21400Y-21965D01*
X21532Y-22097D01*
X21626Y-22136D01*
X21486Y-22136D01*
X21358Y-22008D01*
X21185Y-21936D01*
X20998Y-21936D01*
X20826Y-22007D01*
X20693Y-22139D01*
X20625Y-22303D01*
X20590Y-22279D01*
X20486Y-22258D01*
X20036Y-22258D01*
X19933Y-22279D01*
X19846Y-22338D01*
X18779Y-23404D01*
X18721Y-23491D01*
X18700Y-23595D01*
X18700Y-24133D01*
X18572Y-24261D01*
X18500Y-24433D01*
X18500Y-24620D01*
X18572Y-24793D01*
X18704Y-24926D01*
X18876Y-24997D01*
X19063Y-24997D01*
X19236Y-24926D01*
X19368Y-24794D01*
X19440Y-24621D01*
X19440Y-24434D01*
X19369Y-24261D01*
X19240Y-24133D01*
X19240Y-23993D01*
X19279Y-24086D01*
X19411Y-24218D01*
X19583Y-24290D01*
X19766Y-24290D01*
X20825Y-25349D01*
X20864Y-25375D01*
X16062Y-25375D01*
X16115Y-25248D01*
X16115Y-25051D01*
X16040Y-24869D01*
X15901Y-24730D01*
X15890Y-24725D01*
X15890Y-24680D01*
X15907Y-24722D01*
X16046Y-24861D01*
X16228Y-24937D01*
X16425Y-24937D01*
X16607Y-24862D01*
X16746Y-24723D01*
X16822Y-24541D01*
X16822Y-24344D01*
X16747Y-24162D01*
X16608Y-24023D01*
X16457Y-23960D01*
X16547Y-23869D01*
X16606Y-23782D01*
X16606Y-23782D01*
X16626Y-23678D01*
X16626Y-23028D01*
X16606Y-22925D01*
X16606Y-22925D01*
X16547Y-22838D01*
X16547Y-22838D01*
X15261Y-21552D01*
X15261Y-21520D01*
X15209Y-21393D01*
X15112Y-21296D01*
X14985Y-21244D01*
X14848Y-21243D01*
X14721Y-21296D01*
X14624Y-21393D01*
X14571Y-21520D01*
X14571Y-21657D01*
X14624Y-21784D01*
X14721Y-21881D01*
X14848Y-21933D01*
X14880Y-21933D01*
X16086Y-23140D01*
X16086Y-23567D01*
X16086Y-23567D01*
X16040Y-23455D01*
X15901Y-23316D01*
X15719Y-23240D01*
X15522Y-23240D01*
X15408Y-23287D01*
X15408Y-22930D01*
X15333Y-22748D01*
X15194Y-22608D01*
X15012Y-22533D01*
X14815Y-22533D01*
X14633Y-22608D01*
X14493Y-22747D01*
X14418Y-22929D01*
X14418Y-23126D01*
X14459Y-23226D01*
X14330Y-23172D01*
X14241Y-23226D01*
X14241Y-23650D01*
X14211Y-23680D01*
X14261Y-23729D01*
X14290Y-23700D01*
X14714Y-23700D01*
X14768Y-23610D01*
X14711Y-23480D01*
X14814Y-23523D01*
X15011Y-23523D01*
X15193Y-23448D01*
X15332Y-23309D01*
X15408Y-23127D01*
X15408Y-22930D01*
X15408Y-23287D01*
X15340Y-23315D01*
X15201Y-23454D01*
X15125Y-23636D01*
X15125Y-23833D01*
X15200Y-24015D01*
X15339Y-24154D01*
X15452Y-24201D01*
X15429Y-24224D01*
X15385Y-24289D01*
X15333Y-24162D01*
X15194Y-24023D01*
X15012Y-23947D01*
X14815Y-23947D01*
X14715Y-23988D01*
X14768Y-23859D01*
X14714Y-23770D01*
X14290Y-23770D01*
X14261Y-23740D01*
X14211Y-23790D01*
X14241Y-23819D01*
X14241Y-24244D01*
X14330Y-24297D01*
X14461Y-24240D01*
X14418Y-24343D01*
X14418Y-24540D01*
X14493Y-24722D01*
X14632Y-24861D01*
X14814Y-24937D01*
X15011Y-24937D01*
X15193Y-24862D01*
X15332Y-24723D01*
X15350Y-24680D01*
X15350Y-24725D01*
X15340Y-24729D01*
X15201Y-24868D01*
X15125Y-25050D01*
X15125Y-25247D01*
X15178Y-25375D01*
X14586Y-25375D01*
X14350Y-25328D01*
X14164Y-25204D01*
X14042Y-25021D01*
X13994Y-24781D01*
X13994Y-24261D01*
X14081Y-24297D01*
X14171Y-24244D01*
X14171Y-23819D01*
X14200Y-23790D01*
X14151Y-23740D01*
X14121Y-23770D01*
X13994Y-23770D01*
X13994Y-23700D01*
X14121Y-23700D01*
X14151Y-23729D01*
X14200Y-23680D01*
X14171Y-23650D01*
X14171Y-23226D01*
X14081Y-23172D01*
X13994Y-23211D01*
X13994Y-19109D01*
X14052Y-19133D01*
X14096Y-19133D01*
X14096Y-19924D01*
X14117Y-20027D01*
X14176Y-20114D01*
X14258Y-20197D01*
X14258Y-20378D01*
X14329Y-20551D01*
X14461Y-20683D01*
X14634Y-20755D01*
X14821Y-20755D01*
X14993Y-20683D01*
X15126Y-20551D01*
X15198Y-20379D01*
X15198Y-20192D01*
X15126Y-20019D01*
X14994Y-19886D01*
X14821Y-19815D01*
X14639Y-19815D01*
X14636Y-19812D01*
X14636Y-19134D01*
X14680Y-19134D01*
X14752Y-19104D01*
X14807Y-19049D01*
X14836Y-18977D01*
X14836Y-18900D01*
X14836Y-18550D01*
X14825Y-18522D01*
X14852Y-18533D01*
X14896Y-18533D01*
X14896Y-19309D01*
X14917Y-19413D01*
X14965Y-19484D01*
X14965Y-19484D01*
X14965Y-19671D01*
X15036Y-19843D01*
X15168Y-19976D01*
X15341Y-20047D01*
X15528Y-20048D01*
X15701Y-19976D01*
X15833Y-19844D01*
X15905Y-19671D01*
X15905Y-19484D01*
X15833Y-19312D01*
X15701Y-19179D01*
X15529Y-19108D01*
X15436Y-19108D01*
X15436Y-18534D01*
X15480Y-18534D01*
X15552Y-18504D01*
X15607Y-18449D01*
X15636Y-18377D01*
X15636Y-18300D01*
X15636Y-17950D01*
X15625Y-17922D01*
X15652Y-17933D01*
X15696Y-17933D01*
X15696Y-18695D01*
X15699Y-18710D01*
X15672Y-18777D01*
X15672Y-18964D01*
X15743Y-19136D01*
X15875Y-19269D01*
X16048Y-19340D01*
X16235Y-19341D01*
X16408Y-19269D01*
X16540Y-19137D01*
X16566Y-19075D01*
X16658Y-19168D01*
X16785Y-19221D01*
X16922Y-19221D01*
X17049Y-19169D01*
X17072Y-19146D01*
X19242Y-19146D01*
X21279Y-21183D01*
X21366Y-21241D01*
X21366Y-21241D01*
X21470Y-21262D01*
X21626Y-21262D01*
G54D10*
G36*
X21778Y-24888D02*
X21127Y-24888D01*
X20956Y-24717D01*
X20995Y-24717D01*
X21092Y-24676D01*
X21182Y-24587D01*
X21182Y-24493D01*
X20871Y-24183D01*
X20866Y-24189D01*
X20816Y-24139D01*
X20822Y-24134D01*
X20512Y-23823D01*
X20418Y-23823D01*
X20329Y-23913D01*
X20288Y-24010D01*
X20288Y-24049D01*
X20147Y-23908D01*
X20147Y-23727D01*
X20076Y-23554D01*
X19944Y-23422D01*
X19771Y-23350D01*
X19597Y-23350D01*
X19915Y-23032D01*
X19914Y-23206D01*
X19986Y-23379D01*
X20118Y-23511D01*
X20291Y-23583D01*
X20473Y-23583D01*
X20565Y-23676D01*
X20561Y-23680D01*
X20561Y-23774D01*
X20871Y-24084D01*
X20877Y-24079D01*
X20926Y-24128D01*
X20921Y-24134D01*
X21231Y-24444D01*
X21325Y-24444D01*
X21329Y-24440D01*
X21778Y-24888D01*
X21778Y-24888D01*
G37*
G54D25*
X21778Y-24888D02*
X21127Y-24888D01*
X20956Y-24717D01*
X20995Y-24717D01*
X21092Y-24676D01*
X21182Y-24587D01*
X21182Y-24493D01*
X20871Y-24183D01*
X20866Y-24189D01*
X20816Y-24139D01*
X20822Y-24134D01*
X20512Y-23823D01*
X20418Y-23823D01*
X20329Y-23913D01*
X20288Y-24010D01*
X20288Y-24049D01*
X20147Y-23908D01*
X20147Y-23727D01*
X20076Y-23554D01*
X19944Y-23422D01*
X19771Y-23350D01*
X19597Y-23350D01*
X19915Y-23032D01*
X19914Y-23206D01*
X19986Y-23379D01*
X20118Y-23511D01*
X20291Y-23583D01*
X20473Y-23583D01*
X20565Y-23676D01*
X20561Y-23680D01*
X20561Y-23774D01*
X20871Y-24084D01*
X20877Y-24079D01*
X20926Y-24128D01*
X20921Y-24134D01*
X21231Y-24444D01*
X21325Y-24444D01*
X21329Y-24440D01*
X21778Y-24888D01*
G54D10*
G36*
X21948Y-10827D02*
X21933Y-10821D01*
X21855Y-10821D01*
X21784Y-10851D01*
X21729Y-10906D01*
X21595Y-11040D01*
X20880Y-11040D01*
X20864Y-11040D01*
X20760Y-11060D01*
X20719Y-11087D01*
X20778Y-11028D01*
X21021Y-11028D01*
X21124Y-11008D01*
X21124Y-11008D01*
X21211Y-10949D01*
X21468Y-10692D01*
X21931Y-10692D01*
X21931Y-10786D01*
X21948Y-10827D01*
X21948Y-10827D01*
G37*
G54D25*
X21948Y-10827D02*
X21933Y-10821D01*
X21855Y-10821D01*
X21784Y-10851D01*
X21729Y-10906D01*
X21595Y-11040D01*
X20880Y-11040D01*
X20864Y-11040D01*
X20760Y-11060D01*
X20719Y-11087D01*
X20778Y-11028D01*
X21021Y-11028D01*
X21124Y-11008D01*
X21124Y-11008D01*
X21211Y-10949D01*
X21468Y-10692D01*
X21931Y-10692D01*
X21931Y-10786D01*
X21948Y-10827D01*
G54D10*
G36*
X23101Y-11337D02*
X22947Y-11401D01*
X22815Y-11533D01*
X22743Y-11705D01*
X22743Y-11754D01*
X22697Y-11685D01*
X22697Y-11685D01*
X22471Y-11459D01*
X22478Y-11444D01*
X22478Y-11366D01*
X22477Y-11365D01*
X22533Y-11388D01*
X22638Y-11388D01*
X22735Y-11347D01*
X22825Y-11258D01*
X22825Y-11164D01*
X22514Y-10854D01*
X22509Y-10860D01*
X22459Y-10810D01*
X22465Y-10805D01*
X22459Y-10799D01*
X22509Y-10750D01*
X22514Y-10755D01*
X22520Y-10750D01*
X22569Y-10799D01*
X22564Y-10805D01*
X22874Y-11115D01*
X22968Y-11115D01*
X23057Y-11026D01*
X23058Y-11022D01*
X23058Y-11201D01*
X23079Y-11304D01*
X23101Y-11337D01*
X23101Y-11337D01*
G37*
G54D25*
X23101Y-11337D02*
X22947Y-11401D01*
X22815Y-11533D01*
X22743Y-11705D01*
X22743Y-11754D01*
X22697Y-11685D01*
X22697Y-11685D01*
X22471Y-11459D01*
X22478Y-11444D01*
X22478Y-11366D01*
X22477Y-11365D01*
X22533Y-11388D01*
X22638Y-11388D01*
X22735Y-11347D01*
X22825Y-11258D01*
X22825Y-11164D01*
X22514Y-10854D01*
X22509Y-10860D01*
X22459Y-10810D01*
X22465Y-10805D01*
X22459Y-10799D01*
X22509Y-10750D01*
X22514Y-10755D01*
X22520Y-10750D01*
X22569Y-10799D01*
X22564Y-10805D01*
X22874Y-11115D01*
X22968Y-11115D01*
X23057Y-11026D01*
X23058Y-11022D01*
X23058Y-11201D01*
X23079Y-11304D01*
X23101Y-11337D01*
G54D10*
G36*
X25205Y-18618D02*
X25032Y-18618D01*
X25026Y-18605D01*
X24894Y-18472D01*
X24721Y-18401D01*
X24534Y-18400D01*
X24361Y-18472D01*
X24229Y-18604D01*
X24157Y-18777D01*
X24157Y-18964D01*
X24228Y-19136D01*
X24361Y-19269D01*
X24454Y-19308D01*
X24315Y-19308D01*
X24187Y-19179D01*
X24014Y-19108D01*
X23827Y-19107D01*
X23654Y-19179D01*
X23522Y-19311D01*
X23450Y-19484D01*
X23450Y-19671D01*
X23521Y-19843D01*
X23653Y-19976D01*
X23747Y-20015D01*
X23607Y-20015D01*
X23479Y-19886D01*
X23307Y-19815D01*
X23120Y-19815D01*
X22947Y-19886D01*
X22815Y-20018D01*
X22743Y-20191D01*
X22743Y-20378D01*
X22814Y-20551D01*
X22946Y-20683D01*
X23119Y-20755D01*
X23218Y-20755D01*
X22976Y-20997D01*
X22976Y-20899D01*
X22904Y-20726D01*
X22772Y-20594D01*
X22600Y-20522D01*
X22413Y-20522D01*
X22240Y-20593D01*
X22111Y-20722D01*
X21582Y-20722D01*
X19665Y-18805D01*
X19768Y-18848D01*
X19965Y-18848D01*
X19975Y-18843D01*
X20782Y-19649D01*
X20782Y-19649D01*
X20869Y-19708D01*
X20869Y-19708D01*
X20952Y-19724D01*
X20972Y-19728D01*
X20972Y-19728D01*
X20972Y-19728D01*
X22858Y-19728D01*
X22881Y-19751D01*
X23008Y-19803D01*
X23145Y-19804D01*
X23272Y-19751D01*
X23369Y-19654D01*
X23421Y-19527D01*
X23421Y-19390D01*
X23369Y-19263D01*
X23272Y-19166D01*
X23145Y-19114D01*
X23008Y-19113D01*
X22881Y-19166D01*
X22859Y-19188D01*
X22483Y-19188D01*
X22483Y-16133D01*
X22408Y-15951D01*
X22269Y-15812D01*
X22087Y-15736D01*
X21890Y-15736D01*
X21708Y-15811D01*
X21569Y-15951D01*
X21493Y-16132D01*
X21493Y-16329D01*
X21568Y-16511D01*
X21707Y-16651D01*
X21889Y-16726D01*
X22086Y-16726D01*
X22268Y-16651D01*
X22407Y-16512D01*
X22483Y-16330D01*
X22483Y-16133D01*
X22483Y-19188D01*
X21084Y-19188D01*
X20357Y-18462D01*
X20362Y-18452D01*
X20362Y-18255D01*
X20287Y-18073D01*
X20147Y-17933D01*
X19966Y-17858D01*
X19769Y-17858D01*
X19587Y-17933D01*
X19447Y-18072D01*
X19372Y-18254D01*
X19372Y-18451D01*
X19443Y-18624D01*
X19354Y-18606D01*
X17072Y-18606D01*
X17053Y-18587D01*
X17115Y-18562D01*
X17247Y-18430D01*
X17319Y-18257D01*
X17319Y-18070D01*
X17248Y-17897D01*
X17115Y-17765D01*
X16943Y-17693D01*
X16756Y-17693D01*
X16583Y-17765D01*
X16451Y-17897D01*
X16379Y-18069D01*
X16379Y-18256D01*
X16450Y-18429D01*
X16582Y-18562D01*
X16652Y-18590D01*
X16569Y-18673D01*
X16540Y-18605D01*
X16408Y-18472D01*
X16236Y-18401D01*
X16236Y-17934D01*
X16280Y-17934D01*
X16352Y-17904D01*
X16407Y-17849D01*
X16436Y-17777D01*
X16436Y-17700D01*
X16436Y-17350D01*
X16412Y-17291D01*
X16446Y-17304D01*
X16523Y-17305D01*
X17073Y-17305D01*
X17118Y-17286D01*
X17086Y-17362D01*
X17086Y-17549D01*
X17157Y-17722D01*
X17289Y-17854D01*
X17462Y-17926D01*
X17649Y-17926D01*
X17822Y-17855D01*
X17954Y-17723D01*
X18026Y-17550D01*
X18026Y-17363D01*
X17955Y-17190D01*
X17823Y-17058D01*
X17729Y-17019D01*
X17869Y-17019D01*
X17997Y-17147D01*
X18169Y-17219D01*
X18356Y-17219D01*
X18529Y-17148D01*
X18661Y-17016D01*
X18733Y-16843D01*
X18733Y-16656D01*
X18662Y-16483D01*
X18530Y-16351D01*
X18357Y-16279D01*
X18172Y-16279D01*
X18500Y-15951D01*
X18500Y-16135D01*
X18572Y-16308D01*
X18704Y-16440D01*
X18876Y-16512D01*
X19058Y-16512D01*
X20083Y-17537D01*
X20079Y-17547D01*
X20079Y-17744D01*
X20154Y-17926D01*
X20293Y-18065D01*
X20475Y-18140D01*
X20672Y-18141D01*
X20854Y-18065D01*
X20993Y-17926D01*
X21069Y-17744D01*
X21069Y-17548D01*
X20994Y-17366D01*
X20855Y-17226D01*
X20812Y-17208D01*
X20857Y-17208D01*
X20861Y-17219D01*
X21000Y-17358D01*
X21182Y-17433D01*
X21379Y-17434D01*
X21561Y-17358D01*
X21700Y-17219D01*
X21776Y-17037D01*
X21776Y-16840D01*
X21701Y-16658D01*
X21562Y-16519D01*
X21380Y-16444D01*
X21183Y-16443D01*
X21086Y-16483D01*
X21086Y-13976D01*
X21036Y-13926D01*
X21007Y-13956D01*
X20608Y-13956D01*
X20554Y-14041D01*
X20635Y-14223D01*
X20478Y-14158D01*
X20291Y-14158D01*
X20119Y-14229D01*
X19986Y-14361D01*
X19929Y-14499D01*
X19929Y-13713D01*
X19875Y-13623D01*
X19401Y-13623D01*
X19401Y-14097D01*
X19491Y-14151D01*
X19697Y-14060D01*
X19852Y-13898D01*
X19929Y-13713D01*
X19929Y-14499D01*
X19915Y-14534D01*
X19914Y-14721D01*
X19986Y-14894D01*
X20118Y-15026D01*
X20291Y-15098D01*
X20478Y-15098D01*
X20650Y-15026D01*
X20783Y-14894D01*
X20854Y-14722D01*
X20855Y-14535D01*
X20790Y-14380D01*
X20797Y-14386D01*
X20971Y-14458D01*
X21057Y-14404D01*
X21057Y-14005D01*
X21086Y-13976D01*
X21086Y-16483D01*
X21057Y-16496D01*
X21001Y-16519D01*
X20861Y-16658D01*
X20857Y-16668D01*
X20680Y-16668D01*
X19803Y-15791D01*
X19943Y-15734D01*
X20076Y-15602D01*
X20147Y-15429D01*
X20147Y-15242D01*
X20076Y-15069D01*
X19944Y-14937D01*
X19771Y-14865D01*
X19584Y-14865D01*
X19411Y-14936D01*
X19361Y-14987D01*
X19361Y-13644D01*
X19331Y-13614D01*
X19331Y-13553D01*
X19331Y-13080D01*
X19242Y-13026D01*
X19036Y-13116D01*
X18881Y-13279D01*
X18804Y-13464D01*
X18858Y-13553D01*
X19331Y-13553D01*
X19331Y-13614D01*
X19311Y-13594D01*
X19282Y-13623D01*
X18858Y-13623D01*
X18804Y-13713D01*
X18861Y-13843D01*
X18758Y-13801D01*
X18561Y-13800D01*
X18379Y-13876D01*
X18240Y-14015D01*
X18164Y-14197D01*
X18164Y-14394D01*
X18239Y-14576D01*
X18379Y-14715D01*
X18560Y-14790D01*
X18757Y-14791D01*
X18939Y-14715D01*
X19079Y-14576D01*
X19154Y-14394D01*
X19154Y-14198D01*
X19113Y-14098D01*
X19242Y-14151D01*
X19331Y-14097D01*
X19331Y-13673D01*
X19361Y-13644D01*
X19361Y-14987D01*
X19331Y-15016D01*
X19279Y-15068D01*
X19214Y-15224D01*
X19214Y-15224D01*
X19193Y-15210D01*
X19090Y-15190D01*
X18610Y-15190D01*
X18506Y-15210D01*
X18419Y-15269D01*
X17773Y-15915D01*
X17607Y-15915D01*
X17650Y-15897D01*
X17724Y-15822D01*
X17765Y-15724D01*
X17765Y-15305D01*
X17724Y-15207D01*
X17650Y-15132D01*
X17575Y-15102D01*
X17610Y-15087D01*
X17665Y-15033D01*
X17694Y-14961D01*
X17695Y-14883D01*
X17695Y-14568D01*
X17665Y-14497D01*
X17610Y-14442D01*
X17538Y-14412D01*
X17461Y-14412D01*
X17067Y-14412D01*
X16995Y-14442D01*
X16940Y-14496D01*
X16911Y-14568D01*
X16910Y-14646D01*
X16910Y-14961D01*
X16940Y-15032D01*
X16995Y-15087D01*
X17030Y-15102D01*
X16955Y-15132D01*
X16881Y-15207D01*
X16840Y-15305D01*
X16841Y-15413D01*
X16907Y-15480D01*
X17268Y-15480D01*
X17268Y-15472D01*
X17338Y-15472D01*
X17338Y-15480D01*
X17698Y-15480D01*
X17765Y-15413D01*
X17765Y-15305D01*
X17765Y-15724D01*
X17765Y-15616D01*
X17698Y-15550D01*
X17338Y-15550D01*
X17338Y-15557D01*
X17268Y-15557D01*
X17268Y-15550D01*
X16907Y-15550D01*
X16841Y-15616D01*
X16840Y-15724D01*
X16878Y-15814D01*
X16771Y-15814D01*
X16707Y-15750D01*
X16707Y-15478D01*
X16744Y-15462D01*
X16799Y-15408D01*
X16828Y-15336D01*
X16829Y-15258D01*
X16829Y-14943D01*
X16799Y-14872D01*
X16744Y-14817D01*
X16672Y-14787D01*
X16595Y-14787D01*
X16201Y-14787D01*
X16129Y-14817D01*
X16074Y-14871D01*
X16045Y-14943D01*
X16044Y-15021D01*
X16044Y-15241D01*
X16002Y-15198D01*
X15930Y-15169D01*
X15853Y-15168D01*
X15571Y-15168D01*
X15541Y-15139D01*
X15444Y-15098D01*
X15318Y-15098D01*
X15251Y-15165D01*
X15251Y-15553D01*
X15259Y-15553D01*
X15259Y-15623D01*
X15251Y-15623D01*
X15251Y-16012D01*
X15318Y-16078D01*
X15444Y-16079D01*
X15446Y-16077D01*
X15446Y-16563D01*
X15467Y-16667D01*
X15496Y-16711D01*
X15496Y-17027D01*
X15508Y-17055D01*
X15480Y-17044D01*
X15403Y-17043D01*
X15178Y-17043D01*
X14986Y-16852D01*
X14986Y-16077D01*
X14989Y-16079D01*
X15115Y-16078D01*
X15181Y-16012D01*
X15181Y-15623D01*
X15174Y-15623D01*
X15174Y-15553D01*
X15181Y-15553D01*
X15181Y-15165D01*
X15115Y-15098D01*
X15010Y-15098D01*
X15010Y-13227D01*
X15010Y-12677D01*
X15010Y-12607D01*
X15010Y-12057D01*
X14909Y-12004D01*
X14675Y-12105D01*
X14497Y-12287D01*
X14407Y-12506D01*
X14460Y-12607D01*
X15010Y-12607D01*
X15010Y-12677D01*
X14460Y-12677D01*
X14407Y-12779D01*
X14508Y-13012D01*
X14690Y-13190D01*
X14909Y-13280D01*
X15010Y-13227D01*
X15010Y-15098D01*
X14989Y-15098D01*
X14892Y-15139D01*
X14862Y-15168D01*
X14853Y-15168D01*
X14503Y-15168D01*
X14466Y-15183D01*
X14430Y-15169D01*
X14353Y-15168D01*
X14003Y-15168D01*
X13994Y-15172D01*
X13994Y-6714D01*
X14042Y-6474D01*
X14164Y-6291D01*
X14350Y-6167D01*
X14586Y-6120D01*
X23865Y-6120D01*
X23755Y-6229D01*
X23672Y-6430D01*
X23671Y-6646D01*
X23748Y-6832D01*
X21820Y-6832D01*
X21650Y-6866D01*
X21506Y-6963D01*
X21344Y-7125D01*
X21337Y-7125D01*
X21337Y-7124D01*
X21337Y-6851D01*
X21237Y-6618D01*
X21054Y-6440D01*
X20836Y-6350D01*
X20734Y-6403D01*
X20734Y-6953D01*
X21285Y-6953D01*
X21337Y-6851D01*
X21337Y-7124D01*
X21285Y-7023D01*
X20784Y-7023D01*
X20754Y-6993D01*
X20705Y-7043D01*
X20734Y-7072D01*
X20734Y-7573D01*
X20836Y-7626D01*
X20836Y-7626D01*
X20836Y-7636D01*
X20694Y-7778D01*
X20694Y-7043D01*
X20664Y-7013D01*
X20664Y-6953D01*
X20664Y-6403D01*
X20563Y-6350D01*
X20329Y-6451D01*
X20152Y-6633D01*
X20061Y-6851D01*
X20114Y-6953D01*
X20664Y-6953D01*
X20664Y-7013D01*
X20644Y-6993D01*
X20615Y-7023D01*
X20114Y-7023D01*
X20084Y-7080D01*
X20027Y-7110D01*
X20027Y-7610D01*
X19998Y-7640D01*
X20047Y-7689D01*
X20077Y-7660D01*
X20577Y-7660D01*
X20607Y-7603D01*
X20664Y-7573D01*
X20664Y-7072D01*
X20694Y-7043D01*
X20694Y-7778D01*
X20664Y-7808D01*
X20640Y-7832D01*
X20630Y-7832D01*
X20630Y-7831D01*
X20577Y-7730D01*
X20077Y-7730D01*
X20047Y-7700D01*
X19998Y-7750D01*
X20027Y-7779D01*
X20027Y-8280D01*
X20129Y-8333D01*
X20129Y-8333D01*
X20129Y-8343D01*
X19987Y-8485D01*
X19987Y-7750D01*
X19957Y-7721D01*
X19957Y-7660D01*
X19957Y-7110D01*
X19856Y-7057D01*
X19622Y-7158D01*
X19444Y-7340D01*
X19354Y-7558D01*
X19407Y-7660D01*
X19957Y-7660D01*
X19957Y-7721D01*
X19937Y-7700D01*
X19908Y-7730D01*
X19407Y-7730D01*
X19377Y-7787D01*
X19320Y-7817D01*
X19320Y-8318D01*
X19291Y-8347D01*
X19340Y-8396D01*
X19370Y-8367D01*
X19870Y-8367D01*
X19900Y-8310D01*
X19957Y-8280D01*
X19957Y-7779D01*
X19987Y-7750D01*
X19987Y-8485D01*
X19957Y-8515D01*
X19933Y-8539D01*
X19923Y-8539D01*
X19923Y-8539D01*
X19870Y-8437D01*
X19370Y-8437D01*
X19340Y-8408D01*
X19291Y-8457D01*
X19320Y-8487D01*
X19320Y-8987D01*
X19422Y-9040D01*
X19422Y-9040D01*
X19422Y-9050D01*
X19280Y-9192D01*
X19280Y-8457D01*
X19250Y-8428D01*
X19250Y-8367D01*
X19250Y-7817D01*
X19149Y-7764D01*
X18915Y-7865D01*
X18737Y-8047D01*
X18647Y-8266D01*
X18700Y-8367D01*
X19250Y-8367D01*
X19250Y-8428D01*
X19230Y-8408D01*
X19201Y-8437D01*
X18700Y-8437D01*
X18671Y-8493D01*
X18614Y-8523D01*
X18614Y-9023D01*
X18585Y-9053D01*
X18634Y-9102D01*
X18664Y-9073D01*
X19165Y-9073D01*
X19194Y-9017D01*
X19250Y-8987D01*
X19250Y-8487D01*
X19280Y-8457D01*
X19280Y-9192D01*
X19250Y-9222D01*
X19227Y-9245D01*
X19217Y-9245D01*
X19217Y-9244D01*
X19165Y-9143D01*
X18664Y-9143D01*
X18634Y-9113D01*
X18585Y-9163D01*
X18614Y-9192D01*
X18614Y-9693D01*
X18716Y-9746D01*
X18716Y-9746D01*
X18716Y-9756D01*
X18574Y-9898D01*
X18574Y-9163D01*
X18544Y-9133D01*
X18544Y-9073D01*
X18544Y-8523D01*
X18443Y-8470D01*
X18209Y-8571D01*
X18032Y-8753D01*
X17941Y-8971D01*
X17994Y-9073D01*
X18544Y-9073D01*
X18544Y-9133D01*
X18524Y-9113D01*
X18495Y-9143D01*
X17994Y-9143D01*
X17964Y-9200D01*
X17907Y-9230D01*
X17907Y-9730D01*
X17878Y-9760D01*
X17927Y-9809D01*
X17957Y-9780D01*
X18457Y-9780D01*
X18487Y-9723D01*
X18544Y-9693D01*
X18544Y-9192D01*
X18574Y-9163D01*
X18574Y-9898D01*
X18544Y-9928D01*
X18520Y-9952D01*
X18510Y-9952D01*
X18510Y-9951D01*
X18457Y-9850D01*
X17957Y-9850D01*
X17927Y-9820D01*
X17878Y-9870D01*
X17907Y-9899D01*
X17907Y-10400D01*
X18009Y-10453D01*
X18009Y-10453D01*
X18009Y-10463D01*
X17867Y-10605D01*
X17867Y-9870D01*
X17837Y-9841D01*
X17837Y-9780D01*
X17837Y-9230D01*
X17736Y-9177D01*
X17502Y-9278D01*
X17324Y-9460D01*
X17234Y-9678D01*
X17287Y-9780D01*
X17837Y-9780D01*
X17837Y-9841D01*
X17817Y-9820D01*
X17788Y-9850D01*
X17287Y-9850D01*
X17257Y-9907D01*
X17200Y-9937D01*
X17200Y-10438D01*
X17171Y-10467D01*
X17220Y-10516D01*
X17250Y-10487D01*
X17750Y-10487D01*
X17780Y-10430D01*
X17837Y-10400D01*
X17837Y-9899D01*
X17867Y-9870D01*
X17867Y-10605D01*
X17837Y-10635D01*
X17813Y-10659D01*
X17803Y-10659D01*
X17803Y-10659D01*
X17750Y-10557D01*
X17250Y-10557D01*
X17220Y-10528D01*
X17171Y-10577D01*
X17200Y-10607D01*
X17200Y-11107D01*
X17302Y-11160D01*
X17302Y-11160D01*
X17302Y-11170D01*
X17160Y-11312D01*
X17160Y-10577D01*
X17130Y-10548D01*
X17130Y-10487D01*
X17130Y-9937D01*
X17029Y-9884D01*
X16795Y-9985D01*
X16617Y-10167D01*
X16527Y-10386D01*
X16580Y-10487D01*
X17130Y-10487D01*
X17130Y-10548D01*
X17110Y-10528D01*
X17081Y-10557D01*
X16580Y-10557D01*
X16551Y-10613D01*
X16494Y-10643D01*
X16494Y-11143D01*
X16465Y-11173D01*
X16514Y-11222D01*
X16544Y-11193D01*
X17045Y-11193D01*
X17074Y-11137D01*
X17130Y-11107D01*
X17130Y-10607D01*
X17160Y-10577D01*
X17160Y-11312D01*
X17130Y-11342D01*
X17107Y-11365D01*
X17097Y-11365D01*
X17097Y-11364D01*
X17045Y-11263D01*
X16544Y-11263D01*
X16514Y-11233D01*
X16465Y-11283D01*
X16494Y-11312D01*
X16494Y-11813D01*
X16596Y-11866D01*
X16596Y-11866D01*
X16596Y-11876D01*
X16454Y-12018D01*
X16454Y-11283D01*
X16424Y-11253D01*
X16424Y-11193D01*
X16424Y-10643D01*
X16323Y-10590D01*
X16089Y-10691D01*
X15912Y-10873D01*
X15821Y-11091D01*
X15874Y-11193D01*
X16424Y-11193D01*
X16424Y-11253D01*
X16404Y-11233D01*
X16375Y-11263D01*
X15874Y-11263D01*
X15844Y-11320D01*
X15787Y-11350D01*
X15787Y-11850D01*
X15758Y-11880D01*
X15807Y-11929D01*
X15837Y-11900D01*
X16337Y-11900D01*
X16367Y-11843D01*
X16424Y-11813D01*
X16424Y-11312D01*
X16454Y-11283D01*
X16454Y-12018D01*
X16424Y-12048D01*
X16400Y-12072D01*
X16390Y-12072D01*
X16390Y-12071D01*
X16337Y-11970D01*
X15837Y-11970D01*
X15807Y-11940D01*
X15758Y-11990D01*
X15787Y-12019D01*
X15787Y-12520D01*
X15889Y-12573D01*
X15889Y-12573D01*
X15889Y-12583D01*
X15747Y-12725D01*
X15747Y-11990D01*
X15717Y-11961D01*
X15717Y-11900D01*
X15717Y-11350D01*
X15616Y-11297D01*
X15382Y-11398D01*
X15204Y-11580D01*
X15114Y-11798D01*
X15167Y-11900D01*
X15717Y-11900D01*
X15717Y-11961D01*
X15697Y-11940D01*
X15668Y-11970D01*
X15167Y-11970D01*
X15137Y-12027D01*
X15080Y-12057D01*
X15080Y-12558D01*
X15051Y-12587D01*
X15100Y-12636D01*
X15130Y-12607D01*
X15630Y-12607D01*
X15660Y-12550D01*
X15717Y-12520D01*
X15717Y-12019D01*
X15747Y-11990D01*
X15747Y-12725D01*
X15717Y-12755D01*
X15693Y-12779D01*
X15683Y-12779D01*
X15683Y-12779D01*
X15630Y-12677D01*
X15130Y-12677D01*
X15100Y-12648D01*
X15051Y-12697D01*
X15080Y-12727D01*
X15080Y-13227D01*
X15182Y-13280D01*
X15182Y-13280D01*
X15182Y-13462D01*
X15269Y-13672D01*
X15429Y-13832D01*
X15638Y-13919D01*
X15865Y-13919D01*
X15906Y-13902D01*
X15889Y-13942D01*
X15889Y-14169D01*
X15976Y-14379D01*
X16136Y-14539D01*
X16345Y-14626D01*
X16572Y-14626D01*
X16782Y-14540D01*
X16942Y-14380D01*
X17029Y-14170D01*
X17029Y-13943D01*
X17012Y-13902D01*
X17053Y-13919D01*
X17279Y-13919D01*
X17489Y-13833D01*
X17649Y-13672D01*
X17736Y-13463D01*
X17737Y-13236D01*
X17720Y-13195D01*
X17760Y-13212D01*
X17986Y-13212D01*
X18196Y-13126D01*
X18356Y-12965D01*
X18443Y-12756D01*
X18444Y-12529D01*
X18428Y-12490D01*
X18465Y-12506D01*
X18692Y-12506D01*
X18902Y-12420D01*
X19062Y-12260D01*
X19149Y-12050D01*
X19149Y-11823D01*
X19132Y-11782D01*
X19173Y-11799D01*
X19399Y-11799D01*
X19609Y-11713D01*
X19769Y-11552D01*
X19792Y-11499D01*
X20196Y-11499D01*
X20299Y-11479D01*
X20299Y-11479D01*
X20340Y-11451D01*
X20126Y-11666D01*
X20067Y-11753D01*
X20046Y-11857D01*
X20046Y-11888D01*
X20046Y-12386D01*
X19976Y-12386D01*
X19794Y-12461D01*
X19654Y-12601D01*
X19579Y-12782D01*
X19578Y-12979D01*
X19620Y-13079D01*
X19491Y-13026D01*
X19401Y-13080D01*
X19401Y-13504D01*
X19372Y-13533D01*
X19421Y-13583D01*
X19451Y-13553D01*
X19875Y-13553D01*
X19929Y-13464D01*
X19872Y-13333D01*
X19975Y-13376D01*
X20172Y-13376D01*
X20354Y-13301D01*
X20493Y-13162D01*
X20549Y-13028D01*
X20925Y-13404D01*
X20775Y-13471D01*
X20626Y-13626D01*
X20554Y-13800D01*
X20608Y-13886D01*
X21057Y-13886D01*
X21057Y-13535D01*
X21127Y-13605D01*
X21127Y-13836D01*
X21097Y-13866D01*
X21147Y-13915D01*
X21176Y-13886D01*
X21407Y-13886D01*
X21477Y-13956D01*
X21127Y-13956D01*
X21127Y-14404D01*
X21212Y-14458D01*
X21408Y-14371D01*
X21557Y-14215D01*
X21609Y-14088D01*
X22564Y-15043D01*
X22415Y-15104D01*
X22276Y-15244D01*
X22200Y-15425D01*
X22200Y-15622D01*
X22275Y-15804D01*
X22414Y-15944D01*
X22596Y-16019D01*
X22793Y-16019D01*
X22975Y-15944D01*
X23115Y-15805D01*
X23177Y-15655D01*
X23871Y-16350D01*
X23871Y-16382D01*
X23924Y-16509D01*
X24021Y-16606D01*
X24148Y-16658D01*
X24285Y-16659D01*
X24412Y-16606D01*
X24509Y-16509D01*
X24561Y-16382D01*
X24561Y-16245D01*
X24509Y-16118D01*
X24412Y-16021D01*
X24285Y-15969D01*
X24253Y-15969D01*
X23569Y-15284D01*
X23682Y-15237D01*
X23822Y-15098D01*
X23880Y-14958D01*
X24571Y-15650D01*
X24571Y-15682D01*
X24624Y-15809D01*
X24646Y-15831D01*
X24646Y-17746D01*
X24667Y-17849D01*
X24726Y-17937D01*
X24864Y-18075D01*
X24864Y-18256D01*
X24936Y-18429D01*
X25068Y-18562D01*
X25205Y-18618D01*
X25205Y-18618D01*
G37*
G54D25*
X25205Y-18618D02*
X25032Y-18618D01*
X25026Y-18605D01*
X24894Y-18472D01*
X24721Y-18401D01*
X24534Y-18400D01*
X24361Y-18472D01*
X24229Y-18604D01*
X24157Y-18777D01*
X24157Y-18964D01*
X24228Y-19136D01*
X24361Y-19269D01*
X24454Y-19308D01*
X24315Y-19308D01*
X24187Y-19179D01*
X24014Y-19108D01*
X23827Y-19107D01*
X23654Y-19179D01*
X23522Y-19311D01*
X23450Y-19484D01*
X23450Y-19671D01*
X23521Y-19843D01*
X23653Y-19976D01*
X23747Y-20015D01*
X23607Y-20015D01*
X23479Y-19886D01*
X23307Y-19815D01*
X23120Y-19815D01*
X22947Y-19886D01*
X22815Y-20018D01*
X22743Y-20191D01*
X22743Y-20378D01*
X22814Y-20551D01*
X22946Y-20683D01*
X23119Y-20755D01*
X23218Y-20755D01*
X22976Y-20997D01*
X22976Y-20899D01*
X22904Y-20726D01*
X22772Y-20594D01*
X22600Y-20522D01*
X22413Y-20522D01*
X22240Y-20593D01*
X22111Y-20722D01*
X21582Y-20722D01*
X19665Y-18805D01*
X19768Y-18848D01*
X19965Y-18848D01*
X19975Y-18843D01*
X20782Y-19649D01*
X20782Y-19649D01*
X20869Y-19708D01*
X20869Y-19708D01*
X20952Y-19724D01*
X20972Y-19728D01*
X20972Y-19728D01*
X20972Y-19728D01*
X22858Y-19728D01*
X22881Y-19751D01*
X23008Y-19803D01*
X23145Y-19804D01*
X23272Y-19751D01*
X23369Y-19654D01*
X23421Y-19527D01*
X23421Y-19390D01*
X23369Y-19263D01*
X23272Y-19166D01*
X23145Y-19114D01*
X23008Y-19113D01*
X22881Y-19166D01*
X22859Y-19188D01*
X22483Y-19188D01*
X22483Y-16133D01*
X22408Y-15951D01*
X22269Y-15812D01*
X22087Y-15736D01*
X21890Y-15736D01*
X21708Y-15811D01*
X21569Y-15951D01*
X21493Y-16132D01*
X21493Y-16329D01*
X21568Y-16511D01*
X21707Y-16651D01*
X21889Y-16726D01*
X22086Y-16726D01*
X22268Y-16651D01*
X22407Y-16512D01*
X22483Y-16330D01*
X22483Y-16133D01*
X22483Y-19188D01*
X21084Y-19188D01*
X20357Y-18462D01*
X20362Y-18452D01*
X20362Y-18255D01*
X20287Y-18073D01*
X20147Y-17933D01*
X19966Y-17858D01*
X19769Y-17858D01*
X19587Y-17933D01*
X19447Y-18072D01*
X19372Y-18254D01*
X19372Y-18451D01*
X19443Y-18624D01*
X19354Y-18606D01*
X17072Y-18606D01*
X17053Y-18587D01*
X17115Y-18562D01*
X17247Y-18430D01*
X17319Y-18257D01*
X17319Y-18070D01*
X17248Y-17897D01*
X17115Y-17765D01*
X16943Y-17693D01*
X16756Y-17693D01*
X16583Y-17765D01*
X16451Y-17897D01*
X16379Y-18069D01*
X16379Y-18256D01*
X16450Y-18429D01*
X16582Y-18562D01*
X16652Y-18590D01*
X16569Y-18673D01*
X16540Y-18605D01*
X16408Y-18472D01*
X16236Y-18401D01*
X16236Y-17934D01*
X16280Y-17934D01*
X16352Y-17904D01*
X16407Y-17849D01*
X16436Y-17777D01*
X16436Y-17700D01*
X16436Y-17350D01*
X16412Y-17291D01*
X16446Y-17304D01*
X16523Y-17305D01*
X17073Y-17305D01*
X17118Y-17286D01*
X17086Y-17362D01*
X17086Y-17549D01*
X17157Y-17722D01*
X17289Y-17854D01*
X17462Y-17926D01*
X17649Y-17926D01*
X17822Y-17855D01*
X17954Y-17723D01*
X18026Y-17550D01*
X18026Y-17363D01*
X17955Y-17190D01*
X17823Y-17058D01*
X17729Y-17019D01*
X17869Y-17019D01*
X17997Y-17147D01*
X18169Y-17219D01*
X18356Y-17219D01*
X18529Y-17148D01*
X18661Y-17016D01*
X18733Y-16843D01*
X18733Y-16656D01*
X18662Y-16483D01*
X18530Y-16351D01*
X18357Y-16279D01*
X18172Y-16279D01*
X18500Y-15951D01*
X18500Y-16135D01*
X18572Y-16308D01*
X18704Y-16440D01*
X18876Y-16512D01*
X19058Y-16512D01*
X20083Y-17537D01*
X20079Y-17547D01*
X20079Y-17744D01*
X20154Y-17926D01*
X20293Y-18065D01*
X20475Y-18140D01*
X20672Y-18141D01*
X20854Y-18065D01*
X20993Y-17926D01*
X21069Y-17744D01*
X21069Y-17548D01*
X20994Y-17366D01*
X20855Y-17226D01*
X20812Y-17208D01*
X20857Y-17208D01*
X20861Y-17219D01*
X21000Y-17358D01*
X21182Y-17433D01*
X21379Y-17434D01*
X21561Y-17358D01*
X21700Y-17219D01*
X21776Y-17037D01*
X21776Y-16840D01*
X21701Y-16658D01*
X21562Y-16519D01*
X21380Y-16444D01*
X21183Y-16443D01*
X21086Y-16483D01*
X21086Y-13976D01*
X21036Y-13926D01*
X21007Y-13956D01*
X20608Y-13956D01*
X20554Y-14041D01*
X20635Y-14223D01*
X20478Y-14158D01*
X20291Y-14158D01*
X20119Y-14229D01*
X19986Y-14361D01*
X19929Y-14499D01*
X19929Y-13713D01*
X19875Y-13623D01*
X19401Y-13623D01*
X19401Y-14097D01*
X19491Y-14151D01*
X19697Y-14060D01*
X19852Y-13898D01*
X19929Y-13713D01*
X19929Y-14499D01*
X19915Y-14534D01*
X19914Y-14721D01*
X19986Y-14894D01*
X20118Y-15026D01*
X20291Y-15098D01*
X20478Y-15098D01*
X20650Y-15026D01*
X20783Y-14894D01*
X20854Y-14722D01*
X20855Y-14535D01*
X20790Y-14380D01*
X20797Y-14386D01*
X20971Y-14458D01*
X21057Y-14404D01*
X21057Y-14005D01*
X21086Y-13976D01*
X21086Y-16483D01*
X21057Y-16496D01*
X21001Y-16519D01*
X20861Y-16658D01*
X20857Y-16668D01*
X20680Y-16668D01*
X19803Y-15791D01*
X19943Y-15734D01*
X20076Y-15602D01*
X20147Y-15429D01*
X20147Y-15242D01*
X20076Y-15069D01*
X19944Y-14937D01*
X19771Y-14865D01*
X19584Y-14865D01*
X19411Y-14936D01*
X19361Y-14987D01*
X19361Y-13644D01*
X19331Y-13614D01*
X19331Y-13553D01*
X19331Y-13080D01*
X19242Y-13026D01*
X19036Y-13116D01*
X18881Y-13279D01*
X18804Y-13464D01*
X18858Y-13553D01*
X19331Y-13553D01*
X19331Y-13614D01*
X19311Y-13594D01*
X19282Y-13623D01*
X18858Y-13623D01*
X18804Y-13713D01*
X18861Y-13843D01*
X18758Y-13801D01*
X18561Y-13800D01*
X18379Y-13876D01*
X18240Y-14015D01*
X18164Y-14197D01*
X18164Y-14394D01*
X18239Y-14576D01*
X18379Y-14715D01*
X18560Y-14790D01*
X18757Y-14791D01*
X18939Y-14715D01*
X19079Y-14576D01*
X19154Y-14394D01*
X19154Y-14198D01*
X19113Y-14098D01*
X19242Y-14151D01*
X19331Y-14097D01*
X19331Y-13673D01*
X19361Y-13644D01*
X19361Y-14987D01*
X19331Y-15016D01*
X19279Y-15068D01*
X19214Y-15224D01*
X19214Y-15224D01*
X19193Y-15210D01*
X19090Y-15190D01*
X18610Y-15190D01*
X18506Y-15210D01*
X18419Y-15269D01*
X17773Y-15915D01*
X17607Y-15915D01*
X17650Y-15897D01*
X17724Y-15822D01*
X17765Y-15724D01*
X17765Y-15305D01*
X17724Y-15207D01*
X17650Y-15132D01*
X17575Y-15102D01*
X17610Y-15087D01*
X17665Y-15033D01*
X17694Y-14961D01*
X17695Y-14883D01*
X17695Y-14568D01*
X17665Y-14497D01*
X17610Y-14442D01*
X17538Y-14412D01*
X17461Y-14412D01*
X17067Y-14412D01*
X16995Y-14442D01*
X16940Y-14496D01*
X16911Y-14568D01*
X16910Y-14646D01*
X16910Y-14961D01*
X16940Y-15032D01*
X16995Y-15087D01*
X17030Y-15102D01*
X16955Y-15132D01*
X16881Y-15207D01*
X16840Y-15305D01*
X16841Y-15413D01*
X16907Y-15480D01*
X17268Y-15480D01*
X17268Y-15472D01*
X17338Y-15472D01*
X17338Y-15480D01*
X17698Y-15480D01*
X17765Y-15413D01*
X17765Y-15305D01*
X17765Y-15724D01*
X17765Y-15616D01*
X17698Y-15550D01*
X17338Y-15550D01*
X17338Y-15557D01*
X17268Y-15557D01*
X17268Y-15550D01*
X16907Y-15550D01*
X16841Y-15616D01*
X16840Y-15724D01*
X16878Y-15814D01*
X16771Y-15814D01*
X16707Y-15750D01*
X16707Y-15478D01*
X16744Y-15462D01*
X16799Y-15408D01*
X16828Y-15336D01*
X16829Y-15258D01*
X16829Y-14943D01*
X16799Y-14872D01*
X16744Y-14817D01*
X16672Y-14787D01*
X16595Y-14787D01*
X16201Y-14787D01*
X16129Y-14817D01*
X16074Y-14871D01*
X16045Y-14943D01*
X16044Y-15021D01*
X16044Y-15241D01*
X16002Y-15198D01*
X15930Y-15169D01*
X15853Y-15168D01*
X15571Y-15168D01*
X15541Y-15139D01*
X15444Y-15098D01*
X15318Y-15098D01*
X15251Y-15165D01*
X15251Y-15553D01*
X15259Y-15553D01*
X15259Y-15623D01*
X15251Y-15623D01*
X15251Y-16012D01*
X15318Y-16078D01*
X15444Y-16079D01*
X15446Y-16077D01*
X15446Y-16563D01*
X15467Y-16667D01*
X15496Y-16711D01*
X15496Y-17027D01*
X15508Y-17055D01*
X15480Y-17044D01*
X15403Y-17043D01*
X15178Y-17043D01*
X14986Y-16852D01*
X14986Y-16077D01*
X14989Y-16079D01*
X15115Y-16078D01*
X15181Y-16012D01*
X15181Y-15623D01*
X15174Y-15623D01*
X15174Y-15553D01*
X15181Y-15553D01*
X15181Y-15165D01*
X15115Y-15098D01*
X15010Y-15098D01*
X15010Y-13227D01*
X15010Y-12677D01*
X15010Y-12607D01*
X15010Y-12057D01*
X14909Y-12004D01*
X14675Y-12105D01*
X14497Y-12287D01*
X14407Y-12506D01*
X14460Y-12607D01*
X15010Y-12607D01*
X15010Y-12677D01*
X14460Y-12677D01*
X14407Y-12779D01*
X14508Y-13012D01*
X14690Y-13190D01*
X14909Y-13280D01*
X15010Y-13227D01*
X15010Y-15098D01*
X14989Y-15098D01*
X14892Y-15139D01*
X14862Y-15168D01*
X14853Y-15168D01*
X14503Y-15168D01*
X14466Y-15183D01*
X14430Y-15169D01*
X14353Y-15168D01*
X14003Y-15168D01*
X13994Y-15172D01*
X13994Y-6714D01*
X14042Y-6474D01*
X14164Y-6291D01*
X14350Y-6167D01*
X14586Y-6120D01*
X23865Y-6120D01*
X23755Y-6229D01*
X23672Y-6430D01*
X23671Y-6646D01*
X23748Y-6832D01*
X21820Y-6832D01*
X21650Y-6866D01*
X21506Y-6963D01*
X21344Y-7125D01*
X21337Y-7125D01*
X21337Y-7124D01*
X21337Y-6851D01*
X21237Y-6618D01*
X21054Y-6440D01*
X20836Y-6350D01*
X20734Y-6403D01*
X20734Y-6953D01*
X21285Y-6953D01*
X21337Y-6851D01*
X21337Y-7124D01*
X21285Y-7023D01*
X20784Y-7023D01*
X20754Y-6993D01*
X20705Y-7043D01*
X20734Y-7072D01*
X20734Y-7573D01*
X20836Y-7626D01*
X20836Y-7626D01*
X20836Y-7636D01*
X20694Y-7778D01*
X20694Y-7043D01*
X20664Y-7013D01*
X20664Y-6953D01*
X20664Y-6403D01*
X20563Y-6350D01*
X20329Y-6451D01*
X20152Y-6633D01*
X20061Y-6851D01*
X20114Y-6953D01*
X20664Y-6953D01*
X20664Y-7013D01*
X20644Y-6993D01*
X20615Y-7023D01*
X20114Y-7023D01*
X20084Y-7080D01*
X20027Y-7110D01*
X20027Y-7610D01*
X19998Y-7640D01*
X20047Y-7689D01*
X20077Y-7660D01*
X20577Y-7660D01*
X20607Y-7603D01*
X20664Y-7573D01*
X20664Y-7072D01*
X20694Y-7043D01*
X20694Y-7778D01*
X20664Y-7808D01*
X20640Y-7832D01*
X20630Y-7832D01*
X20630Y-7831D01*
X20577Y-7730D01*
X20077Y-7730D01*
X20047Y-7700D01*
X19998Y-7750D01*
X20027Y-7779D01*
X20027Y-8280D01*
X20129Y-8333D01*
X20129Y-8333D01*
X20129Y-8343D01*
X19987Y-8485D01*
X19987Y-7750D01*
X19957Y-7721D01*
X19957Y-7660D01*
X19957Y-7110D01*
X19856Y-7057D01*
X19622Y-7158D01*
X19444Y-7340D01*
X19354Y-7558D01*
X19407Y-7660D01*
X19957Y-7660D01*
X19957Y-7721D01*
X19937Y-7700D01*
X19908Y-7730D01*
X19407Y-7730D01*
X19377Y-7787D01*
X19320Y-7817D01*
X19320Y-8318D01*
X19291Y-8347D01*
X19340Y-8396D01*
X19370Y-8367D01*
X19870Y-8367D01*
X19900Y-8310D01*
X19957Y-8280D01*
X19957Y-7779D01*
X19987Y-7750D01*
X19987Y-8485D01*
X19957Y-8515D01*
X19933Y-8539D01*
X19923Y-8539D01*
X19923Y-8539D01*
X19870Y-8437D01*
X19370Y-8437D01*
X19340Y-8408D01*
X19291Y-8457D01*
X19320Y-8487D01*
X19320Y-8987D01*
X19422Y-9040D01*
X19422Y-9040D01*
X19422Y-9050D01*
X19280Y-9192D01*
X19280Y-8457D01*
X19250Y-8428D01*
X19250Y-8367D01*
X19250Y-7817D01*
X19149Y-7764D01*
X18915Y-7865D01*
X18737Y-8047D01*
X18647Y-8266D01*
X18700Y-8367D01*
X19250Y-8367D01*
X19250Y-8428D01*
X19230Y-8408D01*
X19201Y-8437D01*
X18700Y-8437D01*
X18671Y-8493D01*
X18614Y-8523D01*
X18614Y-9023D01*
X18585Y-9053D01*
X18634Y-9102D01*
X18664Y-9073D01*
X19165Y-9073D01*
X19194Y-9017D01*
X19250Y-8987D01*
X19250Y-8487D01*
X19280Y-8457D01*
X19280Y-9192D01*
X19250Y-9222D01*
X19227Y-9245D01*
X19217Y-9245D01*
X19217Y-9244D01*
X19165Y-9143D01*
X18664Y-9143D01*
X18634Y-9113D01*
X18585Y-9163D01*
X18614Y-9192D01*
X18614Y-9693D01*
X18716Y-9746D01*
X18716Y-9746D01*
X18716Y-9756D01*
X18574Y-9898D01*
X18574Y-9163D01*
X18544Y-9133D01*
X18544Y-9073D01*
X18544Y-8523D01*
X18443Y-8470D01*
X18209Y-8571D01*
X18032Y-8753D01*
X17941Y-8971D01*
X17994Y-9073D01*
X18544Y-9073D01*
X18544Y-9133D01*
X18524Y-9113D01*
X18495Y-9143D01*
X17994Y-9143D01*
X17964Y-9200D01*
X17907Y-9230D01*
X17907Y-9730D01*
X17878Y-9760D01*
X17927Y-9809D01*
X17957Y-9780D01*
X18457Y-9780D01*
X18487Y-9723D01*
X18544Y-9693D01*
X18544Y-9192D01*
X18574Y-9163D01*
X18574Y-9898D01*
X18544Y-9928D01*
X18520Y-9952D01*
X18510Y-9952D01*
X18510Y-9951D01*
X18457Y-9850D01*
X17957Y-9850D01*
X17927Y-9820D01*
X17878Y-9870D01*
X17907Y-9899D01*
X17907Y-10400D01*
X18009Y-10453D01*
X18009Y-10453D01*
X18009Y-10463D01*
X17867Y-10605D01*
X17867Y-9870D01*
X17837Y-9841D01*
X17837Y-9780D01*
X17837Y-9230D01*
X17736Y-9177D01*
X17502Y-9278D01*
X17324Y-9460D01*
X17234Y-9678D01*
X17287Y-9780D01*
X17837Y-9780D01*
X17837Y-9841D01*
X17817Y-9820D01*
X17788Y-9850D01*
X17287Y-9850D01*
X17257Y-9907D01*
X17200Y-9937D01*
X17200Y-10438D01*
X17171Y-10467D01*
X17220Y-10516D01*
X17250Y-10487D01*
X17750Y-10487D01*
X17780Y-10430D01*
X17837Y-10400D01*
X17837Y-9899D01*
X17867Y-9870D01*
X17867Y-10605D01*
X17837Y-10635D01*
X17813Y-10659D01*
X17803Y-10659D01*
X17803Y-10659D01*
X17750Y-10557D01*
X17250Y-10557D01*
X17220Y-10528D01*
X17171Y-10577D01*
X17200Y-10607D01*
X17200Y-11107D01*
X17302Y-11160D01*
X17302Y-11160D01*
X17302Y-11170D01*
X17160Y-11312D01*
X17160Y-10577D01*
X17130Y-10548D01*
X17130Y-10487D01*
X17130Y-9937D01*
X17029Y-9884D01*
X16795Y-9985D01*
X16617Y-10167D01*
X16527Y-10386D01*
X16580Y-10487D01*
X17130Y-10487D01*
X17130Y-10548D01*
X17110Y-10528D01*
X17081Y-10557D01*
X16580Y-10557D01*
X16551Y-10613D01*
X16494Y-10643D01*
X16494Y-11143D01*
X16465Y-11173D01*
X16514Y-11222D01*
X16544Y-11193D01*
X17045Y-11193D01*
X17074Y-11137D01*
X17130Y-11107D01*
X17130Y-10607D01*
X17160Y-10577D01*
X17160Y-11312D01*
X17130Y-11342D01*
X17107Y-11365D01*
X17097Y-11365D01*
X17097Y-11364D01*
X17045Y-11263D01*
X16544Y-11263D01*
X16514Y-11233D01*
X16465Y-11283D01*
X16494Y-11312D01*
X16494Y-11813D01*
X16596Y-11866D01*
X16596Y-11866D01*
X16596Y-11876D01*
X16454Y-12018D01*
X16454Y-11283D01*
X16424Y-11253D01*
X16424Y-11193D01*
X16424Y-10643D01*
X16323Y-10590D01*
X16089Y-10691D01*
X15912Y-10873D01*
X15821Y-11091D01*
X15874Y-11193D01*
X16424Y-11193D01*
X16424Y-11253D01*
X16404Y-11233D01*
X16375Y-11263D01*
X15874Y-11263D01*
X15844Y-11320D01*
X15787Y-11350D01*
X15787Y-11850D01*
X15758Y-11880D01*
X15807Y-11929D01*
X15837Y-11900D01*
X16337Y-11900D01*
X16367Y-11843D01*
X16424Y-11813D01*
X16424Y-11312D01*
X16454Y-11283D01*
X16454Y-12018D01*
X16424Y-12048D01*
X16400Y-12072D01*
X16390Y-12072D01*
X16390Y-12071D01*
X16337Y-11970D01*
X15837Y-11970D01*
X15807Y-11940D01*
X15758Y-11990D01*
X15787Y-12019D01*
X15787Y-12520D01*
X15889Y-12573D01*
X15889Y-12573D01*
X15889Y-12583D01*
X15747Y-12725D01*
X15747Y-11990D01*
X15717Y-11961D01*
X15717Y-11900D01*
X15717Y-11350D01*
X15616Y-11297D01*
X15382Y-11398D01*
X15204Y-11580D01*
X15114Y-11798D01*
X15167Y-11900D01*
X15717Y-11900D01*
X15717Y-11961D01*
X15697Y-11940D01*
X15668Y-11970D01*
X15167Y-11970D01*
X15137Y-12027D01*
X15080Y-12057D01*
X15080Y-12558D01*
X15051Y-12587D01*
X15100Y-12636D01*
X15130Y-12607D01*
X15630Y-12607D01*
X15660Y-12550D01*
X15717Y-12520D01*
X15717Y-12019D01*
X15747Y-11990D01*
X15747Y-12725D01*
X15717Y-12755D01*
X15693Y-12779D01*
X15683Y-12779D01*
X15683Y-12779D01*
X15630Y-12677D01*
X15130Y-12677D01*
X15100Y-12648D01*
X15051Y-12697D01*
X15080Y-12727D01*
X15080Y-13227D01*
X15182Y-13280D01*
X15182Y-13280D01*
X15182Y-13462D01*
X15269Y-13672D01*
X15429Y-13832D01*
X15638Y-13919D01*
X15865Y-13919D01*
X15906Y-13902D01*
X15889Y-13942D01*
X15889Y-14169D01*
X15976Y-14379D01*
X16136Y-14539D01*
X16345Y-14626D01*
X16572Y-14626D01*
X16782Y-14540D01*
X16942Y-14380D01*
X17029Y-14170D01*
X17029Y-13943D01*
X17012Y-13902D01*
X17053Y-13919D01*
X17279Y-13919D01*
X17489Y-13833D01*
X17649Y-13672D01*
X17736Y-13463D01*
X17737Y-13236D01*
X17720Y-13195D01*
X17760Y-13212D01*
X17986Y-13212D01*
X18196Y-13126D01*
X18356Y-12965D01*
X18443Y-12756D01*
X18444Y-12529D01*
X18428Y-12490D01*
X18465Y-12506D01*
X18692Y-12506D01*
X18902Y-12420D01*
X19062Y-12260D01*
X19149Y-12050D01*
X19149Y-11823D01*
X19132Y-11782D01*
X19173Y-11799D01*
X19399Y-11799D01*
X19609Y-11713D01*
X19769Y-11552D01*
X19792Y-11499D01*
X20196Y-11499D01*
X20299Y-11479D01*
X20299Y-11479D01*
X20340Y-11451D01*
X20126Y-11666D01*
X20067Y-11753D01*
X20046Y-11857D01*
X20046Y-11888D01*
X20046Y-12386D01*
X19976Y-12386D01*
X19794Y-12461D01*
X19654Y-12601D01*
X19579Y-12782D01*
X19578Y-12979D01*
X19620Y-13079D01*
X19491Y-13026D01*
X19401Y-13080D01*
X19401Y-13504D01*
X19372Y-13533D01*
X19421Y-13583D01*
X19451Y-13553D01*
X19875Y-13553D01*
X19929Y-13464D01*
X19872Y-13333D01*
X19975Y-13376D01*
X20172Y-13376D01*
X20354Y-13301D01*
X20493Y-13162D01*
X20549Y-13028D01*
X20925Y-13404D01*
X20775Y-13471D01*
X20626Y-13626D01*
X20554Y-13800D01*
X20608Y-13886D01*
X21057Y-13886D01*
X21057Y-13535D01*
X21127Y-13605D01*
X21127Y-13836D01*
X21097Y-13866D01*
X21147Y-13915D01*
X21176Y-13886D01*
X21407Y-13886D01*
X21477Y-13956D01*
X21127Y-13956D01*
X21127Y-14404D01*
X21212Y-14458D01*
X21408Y-14371D01*
X21557Y-14215D01*
X21609Y-14088D01*
X22564Y-15043D01*
X22415Y-15104D01*
X22276Y-15244D01*
X22200Y-15425D01*
X22200Y-15622D01*
X22275Y-15804D01*
X22414Y-15944D01*
X22596Y-16019D01*
X22793Y-16019D01*
X22975Y-15944D01*
X23115Y-15805D01*
X23177Y-15655D01*
X23871Y-16350D01*
X23871Y-16382D01*
X23924Y-16509D01*
X24021Y-16606D01*
X24148Y-16658D01*
X24285Y-16659D01*
X24412Y-16606D01*
X24509Y-16509D01*
X24561Y-16382D01*
X24561Y-16245D01*
X24509Y-16118D01*
X24412Y-16021D01*
X24285Y-15969D01*
X24253Y-15969D01*
X23569Y-15284D01*
X23682Y-15237D01*
X23822Y-15098D01*
X23880Y-14958D01*
X24571Y-15650D01*
X24571Y-15682D01*
X24624Y-15809D01*
X24646Y-15831D01*
X24646Y-17746D01*
X24667Y-17849D01*
X24726Y-17937D01*
X24864Y-18075D01*
X24864Y-18256D01*
X24936Y-18429D01*
X25068Y-18562D01*
X25205Y-18618D01*
G54D10*
G36*
X26570Y-12024D02*
X26315Y-12024D01*
X26286Y-11994D01*
X26236Y-12044D01*
X26266Y-12073D01*
X26266Y-12356D01*
X26196Y-12286D01*
X26196Y-12073D01*
X26225Y-12044D01*
X26176Y-11994D01*
X26146Y-12024D01*
X25934Y-12024D01*
X25864Y-11954D01*
X26146Y-11954D01*
X26176Y-11983D01*
X26225Y-11934D01*
X26196Y-11904D01*
X26196Y-11658D01*
X26205Y-11658D01*
X26266Y-11720D01*
X26266Y-11904D01*
X26236Y-11934D01*
X26286Y-11983D01*
X26315Y-11954D01*
X26500Y-11954D01*
X26570Y-12024D01*
X26570Y-12024D01*
G37*
G54D25*
X26570Y-12024D02*
X26315Y-12024D01*
X26286Y-11994D01*
X26236Y-12044D01*
X26266Y-12073D01*
X26266Y-12356D01*
X26196Y-12286D01*
X26196Y-12073D01*
X26225Y-12044D01*
X26176Y-11994D01*
X26146Y-12024D01*
X25934Y-12024D01*
X25864Y-11954D01*
X26146Y-11954D01*
X26176Y-11983D01*
X26225Y-11934D01*
X26196Y-11904D01*
X26196Y-11658D01*
X26205Y-11658D01*
X26266Y-11720D01*
X26266Y-11904D01*
X26236Y-11934D01*
X26286Y-11983D01*
X26315Y-11954D01*
X26500Y-11954D01*
X26570Y-12024D01*
G54D10*
G36*
X27494Y-17172D02*
X27365Y-17226D01*
X27225Y-17365D01*
X27150Y-17547D01*
X27150Y-17744D01*
X27225Y-17926D01*
X27364Y-18065D01*
X27479Y-18113D01*
X27409Y-18183D01*
X27406Y-18189D01*
X27358Y-18073D01*
X27219Y-17933D01*
X27037Y-17858D01*
X26840Y-17858D01*
X26658Y-17933D01*
X26579Y-18012D01*
X26579Y-17577D01*
X26524Y-17491D01*
X26076Y-17491D01*
X26076Y-17939D01*
X26162Y-17993D01*
X26358Y-17906D01*
X26506Y-17751D01*
X26579Y-17577D01*
X26579Y-18012D01*
X26518Y-18072D01*
X26443Y-18254D01*
X26443Y-18266D01*
X26406Y-18258D01*
X26000Y-18258D01*
X26000Y-18258D01*
X25979Y-18263D01*
X25897Y-18279D01*
X25809Y-18338D01*
X25809Y-18338D01*
X25744Y-18403D01*
X25804Y-18257D01*
X25804Y-18070D01*
X25740Y-17915D01*
X25747Y-17921D01*
X25921Y-17993D01*
X26006Y-17939D01*
X26006Y-17541D01*
X26036Y-17511D01*
X26006Y-17482D01*
X26006Y-17421D01*
X26006Y-16973D01*
X25921Y-16919D01*
X25724Y-17006D01*
X25576Y-17162D01*
X25504Y-17336D01*
X25558Y-17421D01*
X26006Y-17421D01*
X26006Y-17482D01*
X25986Y-17462D01*
X25957Y-17491D01*
X25558Y-17491D01*
X25504Y-17577D01*
X25585Y-17758D01*
X25428Y-17693D01*
X25246Y-17693D01*
X25186Y-17634D01*
X25186Y-15831D01*
X25209Y-15809D01*
X25261Y-15682D01*
X25261Y-15545D01*
X25209Y-15418D01*
X25112Y-15321D01*
X24985Y-15269D01*
X24953Y-15269D01*
X24266Y-14581D01*
X24389Y-14530D01*
X24529Y-14391D01*
X24582Y-14261D01*
X24771Y-14450D01*
X24771Y-14482D01*
X24824Y-14609D01*
X24921Y-14706D01*
X25048Y-14758D01*
X25185Y-14759D01*
X25312Y-14706D01*
X25409Y-14609D01*
X25461Y-14482D01*
X25461Y-14345D01*
X25409Y-14218D01*
X25312Y-14121D01*
X25185Y-14069D01*
X25153Y-14069D01*
X24963Y-13878D01*
X25096Y-13823D01*
X25236Y-13684D01*
X25293Y-13547D01*
X27186Y-15439D01*
X27186Y-15647D01*
X27057Y-15775D01*
X26986Y-15948D01*
X26985Y-16135D01*
X27057Y-16308D01*
X27189Y-16440D01*
X27283Y-16479D01*
X27143Y-16479D01*
X27015Y-16351D01*
X26842Y-16279D01*
X26655Y-16279D01*
X26483Y-16350D01*
X26350Y-16483D01*
X26278Y-16655D01*
X26278Y-16842D01*
X26342Y-16997D01*
X26336Y-16991D01*
X26162Y-16919D01*
X26076Y-16973D01*
X26076Y-17372D01*
X26047Y-17401D01*
X26096Y-17451D01*
X26126Y-17421D01*
X26524Y-17421D01*
X26579Y-17336D01*
X26498Y-17154D01*
X26655Y-17219D01*
X26841Y-17219D01*
X27014Y-17148D01*
X27143Y-17019D01*
X27340Y-17019D01*
X27494Y-17172D01*
X27494Y-17172D01*
G37*
G54D25*
X27494Y-17172D02*
X27365Y-17226D01*
X27225Y-17365D01*
X27150Y-17547D01*
X27150Y-17744D01*
X27225Y-17926D01*
X27364Y-18065D01*
X27479Y-18113D01*
X27409Y-18183D01*
X27406Y-18189D01*
X27358Y-18073D01*
X27219Y-17933D01*
X27037Y-17858D01*
X26840Y-17858D01*
X26658Y-17933D01*
X26579Y-18012D01*
X26579Y-17577D01*
X26524Y-17491D01*
X26076Y-17491D01*
X26076Y-17939D01*
X26162Y-17993D01*
X26358Y-17906D01*
X26506Y-17751D01*
X26579Y-17577D01*
X26579Y-18012D01*
X26518Y-18072D01*
X26443Y-18254D01*
X26443Y-18266D01*
X26406Y-18258D01*
X26000Y-18258D01*
X26000Y-18258D01*
X25979Y-18263D01*
X25897Y-18279D01*
X25809Y-18338D01*
X25809Y-18338D01*
X25744Y-18403D01*
X25804Y-18257D01*
X25804Y-18070D01*
X25740Y-17915D01*
X25747Y-17921D01*
X25921Y-17993D01*
X26006Y-17939D01*
X26006Y-17541D01*
X26036Y-17511D01*
X26006Y-17482D01*
X26006Y-17421D01*
X26006Y-16973D01*
X25921Y-16919D01*
X25724Y-17006D01*
X25576Y-17162D01*
X25504Y-17336D01*
X25558Y-17421D01*
X26006Y-17421D01*
X26006Y-17482D01*
X25986Y-17462D01*
X25957Y-17491D01*
X25558Y-17491D01*
X25504Y-17577D01*
X25585Y-17758D01*
X25428Y-17693D01*
X25246Y-17693D01*
X25186Y-17634D01*
X25186Y-15831D01*
X25209Y-15809D01*
X25261Y-15682D01*
X25261Y-15545D01*
X25209Y-15418D01*
X25112Y-15321D01*
X24985Y-15269D01*
X24953Y-15269D01*
X24266Y-14581D01*
X24389Y-14530D01*
X24529Y-14391D01*
X24582Y-14261D01*
X24771Y-14450D01*
X24771Y-14482D01*
X24824Y-14609D01*
X24921Y-14706D01*
X25048Y-14758D01*
X25185Y-14759D01*
X25312Y-14706D01*
X25409Y-14609D01*
X25461Y-14482D01*
X25461Y-14345D01*
X25409Y-14218D01*
X25312Y-14121D01*
X25185Y-14069D01*
X25153Y-14069D01*
X24963Y-13878D01*
X25096Y-13823D01*
X25236Y-13684D01*
X25293Y-13547D01*
X27186Y-15439D01*
X27186Y-15647D01*
X27057Y-15775D01*
X26986Y-15948D01*
X26985Y-16135D01*
X27057Y-16308D01*
X27189Y-16440D01*
X27283Y-16479D01*
X27143Y-16479D01*
X27015Y-16351D01*
X26842Y-16279D01*
X26655Y-16279D01*
X26483Y-16350D01*
X26350Y-16483D01*
X26278Y-16655D01*
X26278Y-16842D01*
X26342Y-16997D01*
X26336Y-16991D01*
X26162Y-16919D01*
X26076Y-16973D01*
X26076Y-17372D01*
X26047Y-17401D01*
X26096Y-17451D01*
X26126Y-17421D01*
X26524Y-17421D01*
X26579Y-17336D01*
X26498Y-17154D01*
X26655Y-17219D01*
X26841Y-17219D01*
X27014Y-17148D01*
X27143Y-17019D01*
X27340Y-17019D01*
X27494Y-17172D01*
G54D10*
G36*
X28006Y-18409D02*
X27957Y-18459D01*
X27951Y-18453D01*
X27946Y-18459D01*
X27896Y-18409D01*
X27902Y-18404D01*
X27896Y-18398D01*
X27946Y-18349D01*
X27951Y-18354D01*
X27957Y-18349D01*
X28006Y-18398D01*
X28001Y-18404D01*
X28006Y-18409D01*
X28006Y-18409D01*
G37*
G54D25*
X28006Y-18409D02*
X27957Y-18459D01*
X27951Y-18453D01*
X27946Y-18459D01*
X27896Y-18409D01*
X27902Y-18404D01*
X27896Y-18398D01*
X27946Y-18349D01*
X27951Y-18354D01*
X27957Y-18349D01*
X28006Y-18398D01*
X28001Y-18404D01*
X28006Y-18409D01*
G54D10*
G36*
X32501Y-18280D02*
X32302Y-18280D01*
X32273Y-18250D01*
X32223Y-18300D01*
X32253Y-18329D01*
X32253Y-18830D01*
X32281Y-18845D01*
X32212Y-18913D01*
X32212Y-18300D01*
X32163Y-18250D01*
X32133Y-18280D01*
X31633Y-18280D01*
X31603Y-18337D01*
X31546Y-18367D01*
X31546Y-18868D01*
X31516Y-18897D01*
X31566Y-18946D01*
X31595Y-18917D01*
X32096Y-18917D01*
X32126Y-18860D01*
X32183Y-18830D01*
X32183Y-18329D01*
X32212Y-18300D01*
X32212Y-18913D01*
X32183Y-18943D01*
X32110Y-19015D01*
X32096Y-18987D01*
X31595Y-18987D01*
X31566Y-18958D01*
X31516Y-19007D01*
X31546Y-19037D01*
X31546Y-19537D01*
X31647Y-19590D01*
X31796Y-19526D01*
X31796Y-20605D01*
X31746Y-20725D01*
X31746Y-20922D01*
X31821Y-21104D01*
X31960Y-21244D01*
X32003Y-21261D01*
X31958Y-21261D01*
X31953Y-21251D01*
X31814Y-21112D01*
X31632Y-21036D01*
X31505Y-21036D01*
X31505Y-19007D01*
X31456Y-18958D01*
X31426Y-18987D01*
X30925Y-18987D01*
X30896Y-19044D01*
X30839Y-19074D01*
X30839Y-19575D01*
X30809Y-19604D01*
X30859Y-19654D01*
X30888Y-19624D01*
X31389Y-19624D01*
X31419Y-19567D01*
X31476Y-19537D01*
X31476Y-19037D01*
X31505Y-19007D01*
X31505Y-21036D01*
X31476Y-21036D01*
X31442Y-21036D01*
X31442Y-19796D01*
X31389Y-19694D01*
X30839Y-19694D01*
X30839Y-20244D01*
X30940Y-20297D01*
X31174Y-20196D01*
X31351Y-20014D01*
X31442Y-19796D01*
X31442Y-21036D01*
X31436Y-21036D01*
X31254Y-21111D01*
X31114Y-21251D01*
X31110Y-21261D01*
X30798Y-21261D01*
X30798Y-19714D01*
X30748Y-19665D01*
X30719Y-19694D01*
X30218Y-19694D01*
X30189Y-19750D01*
X30133Y-19780D01*
X30133Y-20280D01*
X30103Y-20310D01*
X30153Y-20359D01*
X30182Y-20330D01*
X30683Y-20330D01*
X30712Y-20274D01*
X30769Y-20244D01*
X30769Y-19744D01*
X30798Y-19714D01*
X30798Y-21261D01*
X30769Y-21261D01*
X30736Y-21261D01*
X30736Y-20501D01*
X30683Y-20400D01*
X30133Y-20400D01*
X30133Y-20950D01*
X30234Y-21003D01*
X30468Y-20902D01*
X30645Y-20720D01*
X30736Y-20501D01*
X30736Y-21261D01*
X30092Y-21261D01*
X30092Y-20420D01*
X30043Y-20370D01*
X30013Y-20400D01*
X29513Y-20400D01*
X29483Y-20457D01*
X29426Y-20487D01*
X29426Y-20988D01*
X29396Y-21017D01*
X29446Y-21066D01*
X29475Y-21037D01*
X29976Y-21037D01*
X30006Y-20980D01*
X30063Y-20950D01*
X30063Y-20449D01*
X30092Y-20420D01*
X30092Y-21261D01*
X30063Y-21261D01*
X30007Y-21261D01*
X30029Y-21209D01*
X29976Y-21107D01*
X29475Y-21107D01*
X29446Y-21078D01*
X29396Y-21127D01*
X29426Y-21157D01*
X29426Y-21597D01*
X29385Y-21638D01*
X29385Y-21127D01*
X29336Y-21078D01*
X29306Y-21107D01*
X28805Y-21107D01*
X28776Y-21164D01*
X28719Y-21194D01*
X28719Y-21695D01*
X28689Y-21724D01*
X28739Y-21774D01*
X28768Y-21744D01*
X29269Y-21744D01*
X29299Y-21687D01*
X29356Y-21657D01*
X29356Y-21157D01*
X29385Y-21127D01*
X29385Y-21638D01*
X29356Y-21667D01*
X29209Y-21814D01*
X28768Y-21814D01*
X28739Y-21785D01*
X28689Y-21834D01*
X28719Y-21864D01*
X28719Y-22305D01*
X28678Y-22345D01*
X28678Y-21834D01*
X28628Y-21785D01*
X28599Y-21814D01*
X28098Y-21814D01*
X28069Y-21870D01*
X28013Y-21900D01*
X28013Y-22400D01*
X27983Y-22430D01*
X28033Y-22479D01*
X28062Y-22450D01*
X28563Y-22450D01*
X28592Y-22394D01*
X28649Y-22364D01*
X28649Y-21864D01*
X28678Y-21834D01*
X28678Y-22345D01*
X28649Y-22375D01*
X28503Y-22520D01*
X28062Y-22520D01*
X28033Y-22490D01*
X27983Y-22540D01*
X28013Y-22569D01*
X28013Y-23010D01*
X27972Y-23051D01*
X27972Y-22540D01*
X27923Y-22490D01*
X27893Y-22520D01*
X27393Y-22520D01*
X27363Y-22577D01*
X27306Y-22607D01*
X27306Y-23108D01*
X27276Y-23137D01*
X27326Y-23186D01*
X27355Y-23157D01*
X27856Y-23157D01*
X27886Y-23100D01*
X27943Y-23070D01*
X27943Y-22569D01*
X27972Y-22540D01*
X27972Y-23051D01*
X27943Y-23080D01*
X27796Y-23227D01*
X27355Y-23227D01*
X27326Y-23198D01*
X27276Y-23247D01*
X27306Y-23277D01*
X27306Y-23717D01*
X27265Y-23758D01*
X27265Y-23247D01*
X27216Y-23198D01*
X27186Y-23227D01*
X26685Y-23227D01*
X26656Y-23284D01*
X26599Y-23314D01*
X26599Y-23815D01*
X26569Y-23844D01*
X26619Y-23894D01*
X26648Y-23864D01*
X27149Y-23864D01*
X27179Y-23807D01*
X27236Y-23777D01*
X27236Y-23277D01*
X27265Y-23247D01*
X27265Y-23758D01*
X27236Y-23787D01*
X27089Y-23934D01*
X26648Y-23934D01*
X26619Y-23905D01*
X26569Y-23954D01*
X26599Y-23984D01*
X26599Y-24338D01*
X26529Y-24338D01*
X26529Y-23984D01*
X26558Y-23954D01*
X26508Y-23905D01*
X26479Y-23934D01*
X25994Y-23934D01*
X25822Y-23762D01*
X25926Y-23762D01*
X25925Y-23763D01*
X25978Y-23864D01*
X26479Y-23864D01*
X26508Y-23894D01*
X26558Y-23844D01*
X26529Y-23815D01*
X26529Y-23314D01*
X26427Y-23261D01*
X26426Y-23261D01*
X26426Y-23251D01*
X26623Y-23055D01*
X26633Y-23055D01*
X26633Y-23056D01*
X26685Y-23157D01*
X27186Y-23157D01*
X27216Y-23186D01*
X27265Y-23137D01*
X27236Y-23108D01*
X27236Y-22607D01*
X27134Y-22554D01*
X27133Y-22554D01*
X27133Y-22544D01*
X27330Y-22348D01*
X27340Y-22348D01*
X27340Y-22348D01*
X27393Y-22450D01*
X27893Y-22450D01*
X27923Y-22479D01*
X27972Y-22430D01*
X27943Y-22400D01*
X27943Y-21900D01*
X27841Y-21847D01*
X27841Y-21847D01*
X27841Y-21837D01*
X28036Y-21642D01*
X28046Y-21642D01*
X28045Y-21643D01*
X28098Y-21744D01*
X28599Y-21744D01*
X28628Y-21774D01*
X28678Y-21724D01*
X28649Y-21695D01*
X28649Y-21194D01*
X28547Y-21141D01*
X28546Y-21141D01*
X28546Y-21131D01*
X28743Y-20935D01*
X28753Y-20935D01*
X28753Y-20936D01*
X28805Y-21037D01*
X29306Y-21037D01*
X29336Y-21066D01*
X29385Y-21017D01*
X29356Y-20988D01*
X29356Y-20487D01*
X29254Y-20434D01*
X29253Y-20434D01*
X29253Y-20424D01*
X29450Y-20228D01*
X29460Y-20228D01*
X29460Y-20228D01*
X29513Y-20330D01*
X30013Y-20330D01*
X30043Y-20359D01*
X30092Y-20310D01*
X30063Y-20280D01*
X30063Y-19780D01*
X29961Y-19727D01*
X29961Y-19727D01*
X29961Y-19717D01*
X30156Y-19522D01*
X30166Y-19522D01*
X30165Y-19523D01*
X30218Y-19624D01*
X30719Y-19624D01*
X30748Y-19654D01*
X30798Y-19604D01*
X30769Y-19575D01*
X30769Y-19074D01*
X30667Y-19021D01*
X30666Y-19021D01*
X30666Y-19011D01*
X30863Y-18815D01*
X30873Y-18815D01*
X30873Y-18816D01*
X30925Y-18917D01*
X31426Y-18917D01*
X31456Y-18946D01*
X31505Y-18897D01*
X31476Y-18868D01*
X31476Y-18367D01*
X31374Y-18314D01*
X31373Y-18314D01*
X31373Y-18304D01*
X31570Y-18108D01*
X31580Y-18108D01*
X31580Y-18108D01*
X31633Y-18210D01*
X32133Y-18210D01*
X32163Y-18239D01*
X32212Y-18190D01*
X32183Y-18160D01*
X32183Y-17660D01*
X32081Y-17607D01*
X32081Y-17607D01*
X32081Y-17597D01*
X32133Y-17545D01*
X32253Y-17664D01*
X32253Y-18160D01*
X32223Y-18190D01*
X32273Y-18239D01*
X32302Y-18210D01*
X32501Y-18210D01*
X32501Y-18280D01*
X32501Y-18280D01*
G37*
G54D25*
X32501Y-18280D02*
X32302Y-18280D01*
X32273Y-18250D01*
X32223Y-18300D01*
X32253Y-18329D01*
X32253Y-18830D01*
X32281Y-18845D01*
X32212Y-18913D01*
X32212Y-18300D01*
X32163Y-18250D01*
X32133Y-18280D01*
X31633Y-18280D01*
X31603Y-18337D01*
X31546Y-18367D01*
X31546Y-18868D01*
X31516Y-18897D01*
X31566Y-18946D01*
X31595Y-18917D01*
X32096Y-18917D01*
X32126Y-18860D01*
X32183Y-18830D01*
X32183Y-18329D01*
X32212Y-18300D01*
X32212Y-18913D01*
X32183Y-18943D01*
X32110Y-19015D01*
X32096Y-18987D01*
X31595Y-18987D01*
X31566Y-18958D01*
X31516Y-19007D01*
X31546Y-19037D01*
X31546Y-19537D01*
X31647Y-19590D01*
X31796Y-19526D01*
X31796Y-20605D01*
X31746Y-20725D01*
X31746Y-20922D01*
X31821Y-21104D01*
X31960Y-21244D01*
X32003Y-21261D01*
X31958Y-21261D01*
X31953Y-21251D01*
X31814Y-21112D01*
X31632Y-21036D01*
X31505Y-21036D01*
X31505Y-19007D01*
X31456Y-18958D01*
X31426Y-18987D01*
X30925Y-18987D01*
X30896Y-19044D01*
X30839Y-19074D01*
X30839Y-19575D01*
X30809Y-19604D01*
X30859Y-19654D01*
X30888Y-19624D01*
X31389Y-19624D01*
X31419Y-19567D01*
X31476Y-19537D01*
X31476Y-19037D01*
X31505Y-19007D01*
X31505Y-21036D01*
X31476Y-21036D01*
X31442Y-21036D01*
X31442Y-19796D01*
X31389Y-19694D01*
X30839Y-19694D01*
X30839Y-20244D01*
X30940Y-20297D01*
X31174Y-20196D01*
X31351Y-20014D01*
X31442Y-19796D01*
X31442Y-21036D01*
X31436Y-21036D01*
X31254Y-21111D01*
X31114Y-21251D01*
X31110Y-21261D01*
X30798Y-21261D01*
X30798Y-19714D01*
X30748Y-19665D01*
X30719Y-19694D01*
X30218Y-19694D01*
X30189Y-19750D01*
X30133Y-19780D01*
X30133Y-20280D01*
X30103Y-20310D01*
X30153Y-20359D01*
X30182Y-20330D01*
X30683Y-20330D01*
X30712Y-20274D01*
X30769Y-20244D01*
X30769Y-19744D01*
X30798Y-19714D01*
X30798Y-21261D01*
X30769Y-21261D01*
X30736Y-21261D01*
X30736Y-20501D01*
X30683Y-20400D01*
X30133Y-20400D01*
X30133Y-20950D01*
X30234Y-21003D01*
X30468Y-20902D01*
X30645Y-20720D01*
X30736Y-20501D01*
X30736Y-21261D01*
X30092Y-21261D01*
X30092Y-20420D01*
X30043Y-20370D01*
X30013Y-20400D01*
X29513Y-20400D01*
X29483Y-20457D01*
X29426Y-20487D01*
X29426Y-20988D01*
X29396Y-21017D01*
X29446Y-21066D01*
X29475Y-21037D01*
X29976Y-21037D01*
X30006Y-20980D01*
X30063Y-20950D01*
X30063Y-20449D01*
X30092Y-20420D01*
X30092Y-21261D01*
X30063Y-21261D01*
X30007Y-21261D01*
X30029Y-21209D01*
X29976Y-21107D01*
X29475Y-21107D01*
X29446Y-21078D01*
X29396Y-21127D01*
X29426Y-21157D01*
X29426Y-21597D01*
X29385Y-21638D01*
X29385Y-21127D01*
X29336Y-21078D01*
X29306Y-21107D01*
X28805Y-21107D01*
X28776Y-21164D01*
X28719Y-21194D01*
X28719Y-21695D01*
X28689Y-21724D01*
X28739Y-21774D01*
X28768Y-21744D01*
X29269Y-21744D01*
X29299Y-21687D01*
X29356Y-21657D01*
X29356Y-21157D01*
X29385Y-21127D01*
X29385Y-21638D01*
X29356Y-21667D01*
X29209Y-21814D01*
X28768Y-21814D01*
X28739Y-21785D01*
X28689Y-21834D01*
X28719Y-21864D01*
X28719Y-22305D01*
X28678Y-22345D01*
X28678Y-21834D01*
X28628Y-21785D01*
X28599Y-21814D01*
X28098Y-21814D01*
X28069Y-21870D01*
X28013Y-21900D01*
X28013Y-22400D01*
X27983Y-22430D01*
X28033Y-22479D01*
X28062Y-22450D01*
X28563Y-22450D01*
X28592Y-22394D01*
X28649Y-22364D01*
X28649Y-21864D01*
X28678Y-21834D01*
X28678Y-22345D01*
X28649Y-22375D01*
X28503Y-22520D01*
X28062Y-22520D01*
X28033Y-22490D01*
X27983Y-22540D01*
X28013Y-22569D01*
X28013Y-23010D01*
X27972Y-23051D01*
X27972Y-22540D01*
X27923Y-22490D01*
X27893Y-22520D01*
X27393Y-22520D01*
X27363Y-22577D01*
X27306Y-22607D01*
X27306Y-23108D01*
X27276Y-23137D01*
X27326Y-23186D01*
X27355Y-23157D01*
X27856Y-23157D01*
X27886Y-23100D01*
X27943Y-23070D01*
X27943Y-22569D01*
X27972Y-22540D01*
X27972Y-23051D01*
X27943Y-23080D01*
X27796Y-23227D01*
X27355Y-23227D01*
X27326Y-23198D01*
X27276Y-23247D01*
X27306Y-23277D01*
X27306Y-23717D01*
X27265Y-23758D01*
X27265Y-23247D01*
X27216Y-23198D01*
X27186Y-23227D01*
X26685Y-23227D01*
X26656Y-23284D01*
X26599Y-23314D01*
X26599Y-23815D01*
X26569Y-23844D01*
X26619Y-23894D01*
X26648Y-23864D01*
X27149Y-23864D01*
X27179Y-23807D01*
X27236Y-23777D01*
X27236Y-23277D01*
X27265Y-23247D01*
X27265Y-23758D01*
X27236Y-23787D01*
X27089Y-23934D01*
X26648Y-23934D01*
X26619Y-23905D01*
X26569Y-23954D01*
X26599Y-23984D01*
X26599Y-24338D01*
X26529Y-24338D01*
X26529Y-23984D01*
X26558Y-23954D01*
X26508Y-23905D01*
X26479Y-23934D01*
X25994Y-23934D01*
X25822Y-23762D01*
X25926Y-23762D01*
X25925Y-23763D01*
X25978Y-23864D01*
X26479Y-23864D01*
X26508Y-23894D01*
X26558Y-23844D01*
X26529Y-23815D01*
X26529Y-23314D01*
X26427Y-23261D01*
X26426Y-23261D01*
X26426Y-23251D01*
X26623Y-23055D01*
X26633Y-23055D01*
X26633Y-23056D01*
X26685Y-23157D01*
X27186Y-23157D01*
X27216Y-23186D01*
X27265Y-23137D01*
X27236Y-23108D01*
X27236Y-22607D01*
X27134Y-22554D01*
X27133Y-22554D01*
X27133Y-22544D01*
X27330Y-22348D01*
X27340Y-22348D01*
X27340Y-22348D01*
X27393Y-22450D01*
X27893Y-22450D01*
X27923Y-22479D01*
X27972Y-22430D01*
X27943Y-22400D01*
X27943Y-21900D01*
X27841Y-21847D01*
X27841Y-21847D01*
X27841Y-21837D01*
X28036Y-21642D01*
X28046Y-21642D01*
X28045Y-21643D01*
X28098Y-21744D01*
X28599Y-21744D01*
X28628Y-21774D01*
X28678Y-21724D01*
X28649Y-21695D01*
X28649Y-21194D01*
X28547Y-21141D01*
X28546Y-21141D01*
X28546Y-21131D01*
X28743Y-20935D01*
X28753Y-20935D01*
X28753Y-20936D01*
X28805Y-21037D01*
X29306Y-21037D01*
X29336Y-21066D01*
X29385Y-21017D01*
X29356Y-20988D01*
X29356Y-20487D01*
X29254Y-20434D01*
X29253Y-20434D01*
X29253Y-20424D01*
X29450Y-20228D01*
X29460Y-20228D01*
X29460Y-20228D01*
X29513Y-20330D01*
X30013Y-20330D01*
X30043Y-20359D01*
X30092Y-20310D01*
X30063Y-20280D01*
X30063Y-19780D01*
X29961Y-19727D01*
X29961Y-19727D01*
X29961Y-19717D01*
X30156Y-19522D01*
X30166Y-19522D01*
X30165Y-19523D01*
X30218Y-19624D01*
X30719Y-19624D01*
X30748Y-19654D01*
X30798Y-19604D01*
X30769Y-19575D01*
X30769Y-19074D01*
X30667Y-19021D01*
X30666Y-19021D01*
X30666Y-19011D01*
X30863Y-18815D01*
X30873Y-18815D01*
X30873Y-18816D01*
X30925Y-18917D01*
X31426Y-18917D01*
X31456Y-18946D01*
X31505Y-18897D01*
X31476Y-18868D01*
X31476Y-18367D01*
X31374Y-18314D01*
X31373Y-18314D01*
X31373Y-18304D01*
X31570Y-18108D01*
X31580Y-18108D01*
X31580Y-18108D01*
X31633Y-18210D01*
X32133Y-18210D01*
X32163Y-18239D01*
X32212Y-18190D01*
X32183Y-18160D01*
X32183Y-17660D01*
X32081Y-17607D01*
X32081Y-17607D01*
X32081Y-17597D01*
X32133Y-17545D01*
X32253Y-17664D01*
X32253Y-18160D01*
X32223Y-18190D01*
X32273Y-18239D01*
X32302Y-18210D01*
X32501Y-18210D01*
X32501Y-18280D01*
G54D10*
G36*
X32537Y-11547D02*
X32455Y-11668D01*
X32421Y-11838D01*
X32421Y-12494D01*
X32416Y-12489D01*
X32319Y-12448D01*
X32193Y-12448D01*
X32168Y-12473D01*
X32168Y-11706D01*
X32097Y-11534D01*
X31965Y-11401D01*
X31792Y-11329D01*
X31605Y-11329D01*
X31432Y-11401D01*
X31300Y-11533D01*
X31228Y-11705D01*
X31228Y-11892D01*
X31299Y-12065D01*
X31432Y-12198D01*
X31604Y-12269D01*
X31791Y-12269D01*
X31964Y-12198D01*
X32096Y-12066D01*
X32168Y-11893D01*
X32168Y-11706D01*
X32168Y-12473D01*
X32126Y-12515D01*
X32126Y-12953D01*
X32134Y-12953D01*
X32134Y-13023D01*
X32126Y-13023D01*
X32126Y-13462D01*
X32193Y-13528D01*
X32319Y-13529D01*
X32416Y-13488D01*
X32421Y-13483D01*
X32421Y-13738D01*
X32421Y-13788D01*
X32421Y-14554D01*
X32335Y-14641D01*
X32265Y-14473D01*
X32133Y-14340D01*
X32056Y-14308D01*
X32056Y-13462D01*
X32056Y-13023D01*
X32056Y-12953D01*
X32056Y-12515D01*
X31990Y-12448D01*
X31864Y-12448D01*
X31767Y-12489D01*
X31692Y-12563D01*
X31651Y-12661D01*
X31651Y-12766D01*
X31651Y-12887D01*
X31718Y-12953D01*
X32056Y-12953D01*
X32056Y-13023D01*
X31718Y-13023D01*
X31651Y-13090D01*
X31651Y-13211D01*
X31651Y-13316D01*
X31692Y-13414D01*
X31767Y-13488D01*
X31864Y-13529D01*
X31990Y-13528D01*
X32056Y-13462D01*
X32056Y-14308D01*
X31960Y-14269D01*
X31773Y-14268D01*
X31745Y-14280D01*
X31745Y-13782D01*
X31705Y-13684D01*
X31630Y-13609D01*
X31544Y-13524D01*
X31451Y-13524D01*
X31211Y-13763D01*
X31521Y-14074D01*
X31615Y-14074D01*
X31704Y-13984D01*
X31745Y-13887D01*
X31745Y-13782D01*
X31745Y-14280D01*
X31601Y-14340D01*
X31472Y-14468D01*
X31188Y-14468D01*
X31138Y-14419D01*
X31144Y-14403D01*
X31144Y-14332D01*
X31180Y-14347D01*
X31285Y-14346D01*
X31383Y-14306D01*
X31472Y-14217D01*
X31472Y-14123D01*
X31162Y-13813D01*
X31156Y-13818D01*
X31107Y-13769D01*
X31112Y-13763D01*
X31107Y-13758D01*
X31156Y-13708D01*
X31162Y-13714D01*
X31401Y-13474D01*
X31401Y-13381D01*
X31315Y-13295D01*
X31241Y-13220D01*
X31143Y-13180D01*
X31106Y-13180D01*
X31106Y-13068D01*
X31088Y-12975D01*
X31257Y-12905D01*
X31389Y-12773D01*
X31461Y-12600D01*
X31461Y-12413D01*
X31390Y-12241D01*
X31258Y-12108D01*
X31085Y-12037D01*
X30898Y-12036D01*
X30725Y-12108D01*
X30593Y-12240D01*
X30533Y-12383D01*
X30076Y-11927D01*
X30076Y-10836D01*
X30099Y-10814D01*
X30151Y-10687D01*
X30151Y-10550D01*
X30099Y-10423D01*
X30002Y-10326D01*
X29875Y-10274D01*
X29738Y-10273D01*
X29611Y-10326D01*
X29514Y-10423D01*
X29461Y-10550D01*
X29461Y-10687D01*
X29514Y-10814D01*
X29536Y-10836D01*
X29536Y-12038D01*
X29546Y-12086D01*
X27837Y-10377D01*
X27887Y-10356D01*
X27984Y-10259D01*
X28036Y-10132D01*
X28036Y-9995D01*
X27984Y-9868D01*
X27887Y-9771D01*
X27760Y-9719D01*
X27728Y-9719D01*
X27411Y-9402D01*
X27411Y-9370D01*
X27359Y-9243D01*
X27262Y-9146D01*
X27135Y-9094D01*
X26998Y-9093D01*
X26871Y-9146D01*
X26774Y-9243D01*
X26737Y-9332D01*
X26666Y-9318D01*
X26358Y-9318D01*
X26440Y-9238D01*
X26511Y-9065D01*
X26511Y-8878D01*
X26440Y-8705D01*
X26308Y-8573D01*
X26153Y-8508D01*
X26341Y-8508D01*
X26350Y-8530D01*
X26482Y-8662D01*
X26655Y-8734D01*
X26841Y-8734D01*
X27014Y-8663D01*
X27147Y-8530D01*
X27218Y-8358D01*
X27218Y-8171D01*
X27147Y-7998D01*
X27015Y-7866D01*
X26921Y-7827D01*
X27061Y-7827D01*
X27189Y-7955D01*
X27362Y-8027D01*
X27549Y-8027D01*
X27721Y-7955D01*
X27854Y-7823D01*
X27925Y-7651D01*
X27926Y-7464D01*
X27854Y-7291D01*
X27722Y-7159D01*
X27628Y-7120D01*
X27768Y-7120D01*
X27896Y-7248D01*
X28069Y-7320D01*
X28256Y-7320D01*
X28429Y-7248D01*
X28561Y-7116D01*
X28633Y-6944D01*
X28633Y-6822D01*
X32433Y-10622D01*
X32312Y-10622D01*
X32139Y-10694D01*
X32007Y-10826D01*
X31935Y-10998D01*
X31935Y-11185D01*
X32007Y-11358D01*
X32139Y-11490D01*
X32311Y-11562D01*
X32498Y-11562D01*
X32537Y-11547D01*
X32537Y-11547D01*
G37*
G54D25*
X32537Y-11547D02*
X32455Y-11668D01*
X32421Y-11838D01*
X32421Y-12494D01*
X32416Y-12489D01*
X32319Y-12448D01*
X32193Y-12448D01*
X32168Y-12473D01*
X32168Y-11706D01*
X32097Y-11534D01*
X31965Y-11401D01*
X31792Y-11329D01*
X31605Y-11329D01*
X31432Y-11401D01*
X31300Y-11533D01*
X31228Y-11705D01*
X31228Y-11892D01*
X31299Y-12065D01*
X31432Y-12198D01*
X31604Y-12269D01*
X31791Y-12269D01*
X31964Y-12198D01*
X32096Y-12066D01*
X32168Y-11893D01*
X32168Y-11706D01*
X32168Y-12473D01*
X32126Y-12515D01*
X32126Y-12953D01*
X32134Y-12953D01*
X32134Y-13023D01*
X32126Y-13023D01*
X32126Y-13462D01*
X32193Y-13528D01*
X32319Y-13529D01*
X32416Y-13488D01*
X32421Y-13483D01*
X32421Y-13738D01*
X32421Y-13788D01*
X32421Y-14554D01*
X32335Y-14641D01*
X32265Y-14473D01*
X32133Y-14340D01*
X32056Y-14308D01*
X32056Y-13462D01*
X32056Y-13023D01*
X32056Y-12953D01*
X32056Y-12515D01*
X31990Y-12448D01*
X31864Y-12448D01*
X31767Y-12489D01*
X31692Y-12563D01*
X31651Y-12661D01*
X31651Y-12766D01*
X31651Y-12887D01*
X31718Y-12953D01*
X32056Y-12953D01*
X32056Y-13023D01*
X31718Y-13023D01*
X31651Y-13090D01*
X31651Y-13211D01*
X31651Y-13316D01*
X31692Y-13414D01*
X31767Y-13488D01*
X31864Y-13529D01*
X31990Y-13528D01*
X32056Y-13462D01*
X32056Y-14308D01*
X31960Y-14269D01*
X31773Y-14268D01*
X31745Y-14280D01*
X31745Y-13782D01*
X31705Y-13684D01*
X31630Y-13609D01*
X31544Y-13524D01*
X31451Y-13524D01*
X31211Y-13763D01*
X31521Y-14074D01*
X31615Y-14074D01*
X31704Y-13984D01*
X31745Y-13887D01*
X31745Y-13782D01*
X31745Y-14280D01*
X31601Y-14340D01*
X31472Y-14468D01*
X31188Y-14468D01*
X31138Y-14419D01*
X31144Y-14403D01*
X31144Y-14332D01*
X31180Y-14347D01*
X31285Y-14346D01*
X31383Y-14306D01*
X31472Y-14217D01*
X31472Y-14123D01*
X31162Y-13813D01*
X31156Y-13818D01*
X31107Y-13769D01*
X31112Y-13763D01*
X31107Y-13758D01*
X31156Y-13708D01*
X31162Y-13714D01*
X31401Y-13474D01*
X31401Y-13381D01*
X31315Y-13295D01*
X31241Y-13220D01*
X31143Y-13180D01*
X31106Y-13180D01*
X31106Y-13068D01*
X31088Y-12975D01*
X31257Y-12905D01*
X31389Y-12773D01*
X31461Y-12600D01*
X31461Y-12413D01*
X31390Y-12241D01*
X31258Y-12108D01*
X31085Y-12037D01*
X30898Y-12036D01*
X30725Y-12108D01*
X30593Y-12240D01*
X30533Y-12383D01*
X30076Y-11927D01*
X30076Y-10836D01*
X30099Y-10814D01*
X30151Y-10687D01*
X30151Y-10550D01*
X30099Y-10423D01*
X30002Y-10326D01*
X29875Y-10274D01*
X29738Y-10273D01*
X29611Y-10326D01*
X29514Y-10423D01*
X29461Y-10550D01*
X29461Y-10687D01*
X29514Y-10814D01*
X29536Y-10836D01*
X29536Y-12038D01*
X29546Y-12086D01*
X27837Y-10377D01*
X27887Y-10356D01*
X27984Y-10259D01*
X28036Y-10132D01*
X28036Y-9995D01*
X27984Y-9868D01*
X27887Y-9771D01*
X27760Y-9719D01*
X27728Y-9719D01*
X27411Y-9402D01*
X27411Y-9370D01*
X27359Y-9243D01*
X27262Y-9146D01*
X27135Y-9094D01*
X26998Y-9093D01*
X26871Y-9146D01*
X26774Y-9243D01*
X26737Y-9332D01*
X26666Y-9318D01*
X26358Y-9318D01*
X26440Y-9238D01*
X26511Y-9065D01*
X26511Y-8878D01*
X26440Y-8705D01*
X26308Y-8573D01*
X26153Y-8508D01*
X26341Y-8508D01*
X26350Y-8530D01*
X26482Y-8662D01*
X26655Y-8734D01*
X26841Y-8734D01*
X27014Y-8663D01*
X27147Y-8530D01*
X27218Y-8358D01*
X27218Y-8171D01*
X27147Y-7998D01*
X27015Y-7866D01*
X26921Y-7827D01*
X27061Y-7827D01*
X27189Y-7955D01*
X27362Y-8027D01*
X27549Y-8027D01*
X27721Y-7955D01*
X27854Y-7823D01*
X27925Y-7651D01*
X27926Y-7464D01*
X27854Y-7291D01*
X27722Y-7159D01*
X27628Y-7120D01*
X27768Y-7120D01*
X27896Y-7248D01*
X28069Y-7320D01*
X28256Y-7320D01*
X28429Y-7248D01*
X28561Y-7116D01*
X28633Y-6944D01*
X28633Y-6822D01*
X32433Y-10622D01*
X32312Y-10622D01*
X32139Y-10694D01*
X32007Y-10826D01*
X31935Y-10998D01*
X31935Y-11185D01*
X32007Y-11358D01*
X32139Y-11490D01*
X32311Y-11562D01*
X32498Y-11562D01*
X32537Y-11547D01*
G54D10*
G36*
X32786Y-24597D02*
X32455Y-24928D01*
X30227Y-24928D01*
X30205Y-24874D01*
X30150Y-24819D01*
X29984Y-24653D01*
X29998Y-24653D01*
X30212Y-24867D01*
X30283Y-24896D01*
X30361Y-24897D01*
X30433Y-24867D01*
X30488Y-24812D01*
X30735Y-24565D01*
X30765Y-24493D01*
X30765Y-24415D01*
X30735Y-24344D01*
X30680Y-24289D01*
X30389Y-23998D01*
X30389Y-23370D01*
X30399Y-23365D01*
X30539Y-23226D01*
X30614Y-23044D01*
X30614Y-22848D01*
X30539Y-22666D01*
X30400Y-22526D01*
X30357Y-22508D01*
X30402Y-22508D01*
X30407Y-22519D01*
X30546Y-22658D01*
X30728Y-22733D01*
X30924Y-22734D01*
X31106Y-22658D01*
X31246Y-22519D01*
X31250Y-22508D01*
X31953Y-22508D01*
X32181Y-22737D01*
X32253Y-22767D01*
X32331Y-22767D01*
X32402Y-22737D01*
X32457Y-22682D01*
X32705Y-22435D01*
X32734Y-22363D01*
X32734Y-22286D01*
X32705Y-22214D01*
X32650Y-22159D01*
X32292Y-21801D01*
X32306Y-21801D01*
X32323Y-21818D01*
X32712Y-22207D01*
X32783Y-22236D01*
X32786Y-22236D01*
X32786Y-24597D01*
X32786Y-24597D01*
G37*
G54D25*
X32786Y-24597D02*
X32455Y-24928D01*
X30227Y-24928D01*
X30205Y-24874D01*
X30150Y-24819D01*
X29984Y-24653D01*
X29998Y-24653D01*
X30212Y-24867D01*
X30283Y-24896D01*
X30361Y-24897D01*
X30433Y-24867D01*
X30488Y-24812D01*
X30735Y-24565D01*
X30765Y-24493D01*
X30765Y-24415D01*
X30735Y-24344D01*
X30680Y-24289D01*
X30389Y-23998D01*
X30389Y-23370D01*
X30399Y-23365D01*
X30539Y-23226D01*
X30614Y-23044D01*
X30614Y-22848D01*
X30539Y-22666D01*
X30400Y-22526D01*
X30357Y-22508D01*
X30402Y-22508D01*
X30407Y-22519D01*
X30546Y-22658D01*
X30728Y-22733D01*
X30924Y-22734D01*
X31106Y-22658D01*
X31246Y-22519D01*
X31250Y-22508D01*
X31953Y-22508D01*
X32181Y-22737D01*
X32253Y-22767D01*
X32331Y-22767D01*
X32402Y-22737D01*
X32457Y-22682D01*
X32705Y-22435D01*
X32734Y-22363D01*
X32734Y-22286D01*
X32705Y-22214D01*
X32650Y-22159D01*
X32292Y-21801D01*
X32306Y-21801D01*
X32323Y-21818D01*
X32712Y-22207D01*
X32783Y-22236D01*
X32786Y-22236D01*
X32786Y-24597D01*
G54D10*
G36*
X33249Y-17402D02*
X33183Y-17336D01*
X32311Y-16464D01*
X32311Y-15923D01*
X32343Y-15892D01*
X32401Y-16033D01*
X32500Y-16055D01*
X32817Y-15738D01*
X32811Y-15733D01*
X32861Y-15683D01*
X32866Y-15689D01*
X32872Y-15683D01*
X32921Y-15733D01*
X32916Y-15738D01*
X32921Y-15744D01*
X32872Y-15794D01*
X32866Y-15788D01*
X32550Y-16105D01*
X32572Y-16204D01*
X32772Y-16281D01*
X32987Y-16276D01*
X33161Y-16204D01*
X33183Y-16105D01*
X33183Y-16105D01*
X33230Y-16152D01*
X33249Y-16132D01*
X33249Y-17402D01*
X33249Y-17402D01*
G37*
G54D25*
X33249Y-17402D02*
X33183Y-17336D01*
X32311Y-16464D01*
X32311Y-15923D01*
X32343Y-15892D01*
X32401Y-16033D01*
X32500Y-16055D01*
X32817Y-15738D01*
X32811Y-15733D01*
X32861Y-15683D01*
X32866Y-15689D01*
X32872Y-15683D01*
X32921Y-15733D01*
X32916Y-15738D01*
X32921Y-15744D01*
X32872Y-15794D01*
X32866Y-15788D01*
X32550Y-16105D01*
X32572Y-16204D01*
X32772Y-16281D01*
X32987Y-16276D01*
X33161Y-16204D01*
X33183Y-16105D01*
X33183Y-16105D01*
X33230Y-16152D01*
X33249Y-16132D01*
X33249Y-17402D01*
G54D10*
G36*
X33249Y-21718D02*
X33235Y-21684D01*
X33180Y-21629D01*
X32791Y-21240D01*
X32720Y-21210D01*
X32642Y-21210D01*
X32571Y-21240D01*
X32549Y-21261D01*
X32479Y-21261D01*
X32521Y-21244D01*
X32660Y-21105D01*
X32736Y-20923D01*
X32736Y-20726D01*
X32694Y-20626D01*
X32823Y-20680D01*
X32913Y-20626D01*
X32913Y-20202D01*
X32942Y-20172D01*
X32893Y-20123D01*
X32863Y-20152D01*
X32686Y-20152D01*
X32686Y-20082D01*
X32863Y-20082D01*
X32893Y-20112D01*
X32942Y-20062D01*
X32913Y-20033D01*
X32913Y-19609D01*
X32827Y-19557D01*
X33249Y-19135D01*
X33249Y-19628D01*
X33072Y-19555D01*
X32983Y-19609D01*
X32983Y-20033D01*
X32953Y-20062D01*
X33003Y-20112D01*
X33032Y-20082D01*
X33249Y-20082D01*
X33249Y-20152D01*
X33032Y-20152D01*
X33003Y-20123D01*
X32953Y-20172D01*
X32983Y-20202D01*
X32983Y-20626D01*
X33072Y-20680D01*
X33249Y-20602D01*
X33249Y-21718D01*
X33249Y-21718D01*
G37*
G54D25*
X33249Y-21718D02*
X33235Y-21684D01*
X33180Y-21629D01*
X32791Y-21240D01*
X32720Y-21210D01*
X32642Y-21210D01*
X32571Y-21240D01*
X32549Y-21261D01*
X32479Y-21261D01*
X32521Y-21244D01*
X32660Y-21105D01*
X32736Y-20923D01*
X32736Y-20726D01*
X32694Y-20626D01*
X32823Y-20680D01*
X32913Y-20626D01*
X32913Y-20202D01*
X32942Y-20172D01*
X32893Y-20123D01*
X32863Y-20152D01*
X32686Y-20152D01*
X32686Y-20082D01*
X32863Y-20082D01*
X32893Y-20112D01*
X32942Y-20062D01*
X32913Y-20033D01*
X32913Y-19609D01*
X32827Y-19557D01*
X33249Y-19135D01*
X33249Y-19628D01*
X33072Y-19555D01*
X32983Y-19609D01*
X32983Y-20033D01*
X32953Y-20062D01*
X33003Y-20112D01*
X33032Y-20082D01*
X33249Y-20082D01*
X33249Y-20152D01*
X33032Y-20152D01*
X33003Y-20123D01*
X32953Y-20172D01*
X32983Y-20202D01*
X32983Y-20626D01*
X33072Y-20680D01*
X33249Y-20602D01*
X33249Y-21718D01*
M02*
