<?xml version="1.0" standalone="no"?>
 <!DOCTYPE svg PUBLIC "-//W3C//DTD SVG 1.1//EN" 
 "http://www.w3.org/Graphics/SVG/1.1/DTD/svg11.dtd"> 
<svg xmlns="http://www.w3.org/2000/svg" version="1.1" 
    width="6.70306cm" height="6.11632cm" viewBox="0 0 26390 24080 ">
<title>SVG Picture created as hex-F_Cu.svg date 2014/04/17 12:38:22 </title>
  <desc>Picture generated by PCBNEW </desc>
<g style="fill:#000000; fill-opacity:1;stroke:#000000; stroke-opacity:1;
stroke-linecap:round; stroke-linejoin:round; "
 transform="translate(0 0) scale(1 1)">
</g>
<g style="fill:#FFFF00; fill-opacity:0.0; 
stroke:#FFFF00; stroke-width:39.3701; stroke-opacity:1; 
stroke-linecap:round; stroke-linejoin:round;">
<path d="M2574 3137
L2574 21248
" />
<path d="M21471 2350
L3361 2350
" />
<path d="M22259 21248
L22259 3137
" />
<path d="M3361 22035
L21471 22035
" />
<path d="M22259.2 3137.81 A787.402 787.402 0.0 0 0 21471.8 2350.41 " />
<path d="M21471.8 22035.4 A787.402 787.402 0.0 0 0 22259.2 21248 " />
<path d="M2574.17 21248 A787.402 787.402 0.0 0 0 3361.57 22035.4 " />
<path d="M3361.57 2350.41 A787.402 787.402 0.0 0 0 2574.17 3137.81 " />
</g>
<g style="fill:#808000; fill-opacity:0.0; 
stroke:#808000; stroke-width:39.3701; stroke-opacity:1; 
stroke-linecap:round; stroke-linejoin:round;">
</g>
<g style="fill:#808000; fill-opacity:1.0; 
stroke:#808000; stroke-width:39.3701; stroke-opacity:1; 
stroke-linecap:round; stroke-linejoin:round;">
<circle cx="21661.6" cy="12183.9" r="255.315" /> 
<circle cx="20661.6" cy="12183.9" r="255.315" /> 
<circle cx="20661.6" cy="11183.9" r="255.315" /> 
<circle cx="12911.6" cy="20363.9" r="310.315" /> 
<circle cx="11911.6" cy="20363.9" r="310.315" /> 
<circle cx="16957.8" cy="3295.04" r="255.315" /> 
<circle cx="16250.7" cy="4002.14" r="255.315" /> 
<circle cx="15543.5" cy="4709.25" r="255.315" /> 
<circle cx="14836.4" cy="5416.36" r="255.315" /> 
<circle cx="14129.3" cy="6123.46" r="255.315" /> 
<circle cx="13422.2" cy="6830.57" r="255.315" /> 
<circle cx="12715.1" cy="7537.68" r="255.315" /> 
<circle cx="12008" cy="8244.78" r="255.315" /> 
<circle cx="11300.9" cy="8951.89" r="255.315" /> 
<circle cx="10593.8" cy="9659" r="255.315" /> 
<circle cx="9886.69" cy="10366.1" r="255.315" /> 
<circle cx="9179.59" cy="11073.2" r="255.315" /> 
<circle cx="8472.48" cy="11780.3" r="255.315" /> 
<circle cx="7765.37" cy="12487.4" r="255.315" /> 
<circle cx="7058.27" cy="13194.5" r="255.315" /> 
<circle cx="6351.16" cy="13901.6" r="255.315" /> 
<circle cx="5644.05" cy="14608.7" r="255.315" /> 
<circle cx="4936.95" cy="15315.9" r="255.315" /> 
<circle cx="4229.84" cy="16023" r="255.315" /> 
<circle cx="3522.73" cy="16730.1" r="255.315" /> 
<circle cx="7765.37" cy="20972.7" r="255.315" /> 
<circle cx="8472.48" cy="20265.6" r="255.315" /> 
<circle cx="9179.59" cy="19558.5" r="255.315" /> 
<circle cx="9886.69" cy="18851.4" r="255.315" /> 
<circle cx="10593.8" cy="18144.3" r="255.315" /> 
<circle cx="11300.9" cy="17437.2" r="255.315" /> 
<circle cx="12008" cy="16730.1" r="255.315" /> 
<circle cx="12715.1" cy="16023" r="255.315" /> 
<circle cx="13422.2" cy="15315.9" r="255.315" /> 
<circle cx="14129.3" cy="14608.7" r="255.315" /> 
<circle cx="14836.4" cy="13901.6" r="255.315" /> 
<circle cx="15543.5" cy="13194.5" r="255.315" /> 
<circle cx="16250.7" cy="12487.4" r="255.315" /> 
<circle cx="16957.8" cy="11780.3" r="255.315" /> 
<circle cx="17664.9" cy="11073.2" r="255.315" /> 
<circle cx="18372" cy="10366.1" r="255.315" /> 
<circle cx="19079.1" cy="9659" r="255.315" /> 
<circle cx="19786.2" cy="8951.89" r="255.315" /> 
<circle cx="20493.3" cy="8244.78" r="255.315" /> 
<circle cx="21200.4" cy="7537.68" r="255.315" /> 
<circle cx="13011.6" cy="2983.87" r="330.315" /> 
<circle cx="12011.6" cy="2983.87" r="330.315" /> 
<circle cx="7454.46" cy="10741" r="280.315" /> 
<circle cx="8161.57" cy="10033.9" r="280.315" /> 
<circle cx="8868.67" cy="9326.76" r="280.315" /> 
</g>
<g style="fill:#A00000; fill-opacity:1.0; 
stroke:#A00000; stroke-width:39.3701; stroke-opacity:1; 
stroke-linecap:round; stroke-linejoin:round;">
<polyline style="fill-rule:evenodd;"
points="16817,15139
16456,14778
16675,14558
17036,14919
16817,15139
" /> 
<polyline style="fill-rule:evenodd;"
points="17347,14609
16986,14247
17206,14028
17567,14389
17347,14609
" /> 
<polyline style="fill-rule:evenodd;"
points="10126,19758
10487,20119
10267,20339
9906,19977
10126,19758
" /> 
<polyline style="fill-rule:evenodd;"
points="9595,20288
9956,20649
9737,20869
9376,20508
9595,20288
" /> 
</g>
<g style="fill:#808000; fill-opacity:1.0; 
stroke:#808000; stroke-width:39.3701; stroke-opacity:1; 
stroke-linecap:round; stroke-linejoin:round;">
<circle cx="16793.1" cy="21512.3" r="280.315" /> 
<circle cx="17500.2" cy="20805.2" r="280.315" /> 
<circle cx="18207.4" cy="20098.1" r="280.315" /> 
<circle cx="18914.5" cy="19391" r="280.315" /> 
<circle cx="19621.6" cy="18683.9" r="280.315" /> 
<circle cx="20328.7" cy="17976.8" r="280.315" /> 
<circle cx="21035.8" cy="17269.7" r="280.315" /> 
<circle cx="21742.9" cy="16562.6" r="280.315" /> 
</g>
<g style="fill:#A00000; fill-opacity:1.0; 
stroke:#A00000; stroke-width:39.3701; stroke-opacity:1; 
stroke-linecap:round; stroke-linejoin:round;">
<polyline style="fill-rule:evenodd;"
points="20731,9689
20731,9178
21041,9178
21041,9689
20731,9689
" /> 
<polyline style="fill-rule:evenodd;"
points="21481,9689
21481,9178
21791,9178
21791,9689
21481,9689
" /> 
<polyline style="fill-rule:evenodd;"
points="19497,11029
19136,10668
19355,10448
19716,10809
19497,11029
" /> 
<polyline style="fill-rule:evenodd;"
points="20027,10499
19666,10137
19886,9918
20247,10279
20027,10499
" /> 
<polyline style="fill-rule:evenodd;"
points="21476,17878
21837,18239
21617,18459
21256,18097
21476,17878
" /> 
<polyline style="fill-rule:evenodd;"
points="20945,18408
21306,18769
21087,18989
20726,18628
20945,18408
" /> 
<polyline style="fill-rule:evenodd;"
points="18587,21649
18226,21288
18445,21068
18806,21429
18587,21649
" /> 
<polyline style="fill-rule:evenodd;"
points="19117,21119
18756,20757
18976,20538
19337,20899
19117,21119
" /> 
<polyline style="fill-rule:evenodd;"
points="12749,5469
13110,5830
12890,6050
12529,5689
12749,5469
" /> 
<polyline style="fill-rule:evenodd;"
points="12218,5999
12579,6360
12360,6580
11999,6219
12218,5999
" /> 
<polyline style="fill-rule:evenodd;"
points="11380,7540
11019,7179
11238,6959
11599,7320
11380,7540
" /> 
<polyline style="fill-rule:evenodd;"
points="11910,7010
11549,6649
11769,6429
12130,6790
11910,7010
" /> 
<polyline style="fill-rule:evenodd;"
points="10689,7489
11050,7850
10830,8070
10469,7709
10689,7489
" /> 
<polyline style="fill-rule:evenodd;"
points="10158,8019
10519,8380
10300,8600
9939,8239
10158,8019
" /> 
<polyline style="fill-rule:evenodd;"
points="5809,13535
5299,13535
5299,13224
5809,13224
5809,13535
" /> 
<polyline style="fill-rule:evenodd;"
points="5809,12785
5299,12785
5299,12474
5809,12474
5809,12785
" /> 
<polyline style="fill-rule:evenodd;"
points="3416,15364
2906,15364
2906,15053
3416,15053
3416,15364
" /> 
<polyline style="fill-rule:evenodd;"
points="3416,14614
2906,14614
2906,14303
3416,14303
3416,14614
" /> 
<polyline style="fill-rule:evenodd;"
points="4216,14764
3706,14764
3706,14453
4216,14453
4216,14764
" /> 
<polyline style="fill-rule:evenodd;"
points="4216,14014
3706,14014
3706,13703
4216,13703
4216,14014
" /> 
<polyline style="fill-rule:evenodd;"
points="5016,14164
4506,14164
4506,13853
5016,13853
5016,14164
" /> 
<polyline style="fill-rule:evenodd;"
points="5016,13414
4506,13414
4506,13103
5016,13103
5016,13414
" /> 
</g>
<g style="fill:#808000; fill-opacity:1.0; 
stroke:#808000; stroke-width:39.3701; stroke-opacity:1; 
stroke-linecap:round; stroke-linejoin:round;">
<circle cx="20684.4" cy="20460.6" r="780.315" /> 
</g>
<g style="fill:#A00000; fill-opacity:1.0; 
stroke:#A00000; stroke-width:39.3701; stroke-opacity:1; 
stroke-linecap:round; stroke-linejoin:round;">
<polyline style="fill-rule:evenodd;"
points="5408,11722
5054,11722
5054,11447
5408,11447
5408,11722
" /> 
<polyline style="fill-rule:evenodd;"
points="6274,11347
5920,11347
5920,11072
6274,11072
6274,11347
" /> 
<polyline style="fill-rule:evenodd;"
points="6274,12097
5920,12097
5920,11822
6274,11822
6274,12097
" /> 
</g>
<g style="fill:#808000; fill-opacity:1.0; 
stroke:#808000; stroke-width:39.3701; stroke-opacity:1; 
stroke-linecap:round; stroke-linejoin:round;">
<circle cx="4148.97" cy="3925.21" r="780.315" /> 
<circle cx="19500.9" cy="3530.32" r="280.315" /> 
<circle cx="20208" cy="2823.21" r="280.315" /> 
<circle cx="20208" cy="4237.43" r="280.315" /> 
<circle cx="20915.1" cy="3530.32" r="280.315" /> 
<circle cx="20915.1" cy="4944.53" r="280.315" /> 
<circle cx="21622.2" cy="4237.43" r="280.315" /> 
<circle cx="5122.23" cy="20887.4" r="280.315" /> 
<circle cx="4415.12" cy="21594.5" r="280.315" /> 
<circle cx="4415.12" cy="20180.3" r="280.315" /> 
<circle cx="3708.01" cy="20887.4" r="280.315" /> 
<circle cx="3708.01" cy="19473.2" r="280.315" /> 
<circle cx="3000.91" cy="20180.3" r="280.315" /> 
<polyline style="fill-rule:evenodd;"
points="4666,11828
4666,12239
4356,12239
4356,11828
4666,11828
" /> 
<polyline style="fill-rule:evenodd;"
points="4166,11828
4166,12239
3856,12239
3856,11828
4166,11828
" /> 
<polyline style="fill-rule:evenodd;"
points="3666,11828
3666,12239
3356,12239
3356,11828
3666,11828
" /> 
<polyline style="fill-rule:evenodd;"
points="3166,11828
3166,12239
2856,12239
2856,11828
3166,11828
" /> 
<circle cx="8661.82" cy="14798.1" r="280.315" /> 
<circle cx="9368.93" cy="14091" r="280.315" /> 
<circle cx="10076" cy="13383.9" r="280.315" /> 
<circle cx="10783.1" cy="12676.8" r="280.315" /> 
<circle cx="11490.2" cy="11969.7" r="280.315" /> 
<circle cx="12197.4" cy="11262.6" r="280.315" /> 
<circle cx="12904.5" cy="10555.4" r="280.315" /> 
<circle cx="13611.6" cy="9848.34" r="280.315" /> 
<circle cx="14318.7" cy="9141.23" r="280.315" /> 
<circle cx="15025.8" cy="8434.12" r="280.315" /> 
<circle cx="18561.3" cy="11969.7" r="280.315" /> 
<circle cx="17854.2" cy="12676.8" r="280.315" /> 
<circle cx="17147.1" cy="13383.9" r="280.315" /> 
<circle cx="16440" cy="14091" r="280.315" /> 
<circle cx="15732.9" cy="14798.1" r="280.315" /> 
<circle cx="15025.8" cy="15505.2" r="280.315" /> 
<circle cx="14318.7" cy="16212.3" r="280.315" /> 
<circle cx="13611.6" cy="16919.4" r="280.315" /> 
<circle cx="12904.5" cy="17626.5" r="280.315" /> 
<circle cx="12197.4" cy="18333.6" r="280.315" /> 
<circle cx="7374.46" cy="8381.64" r="355.315" /> 
<circle cx="8081.57" cy="7674.53" r="355.315" /> 
<circle cx="8788.67" cy="6967.43" r="355.315" /> 
<circle cx="6667.35" cy="7674.53" r="355.315" /> 
<circle cx="7374.46" cy="6967.43" r="355.315" /> 
<circle cx="8081.57" cy="6260.32" r="355.315" /> 
<circle cx="5960.25" cy="6967.43" r="355.315" /> 
<circle cx="6667.35" cy="6260.32" r="355.315" /> 
<circle cx="7374.46" cy="5553.21" r="355.315" /> 
<circle cx="9494.46" cy="6261.64" r="355.315" /> 
<circle cx="10201.6" cy="5554.53" r="355.315" /> 
<circle cx="10908.7" cy="4847.43" r="355.315" /> 
<circle cx="8787.35" cy="5554.53" r="355.315" /> 
<circle cx="9494.46" cy="4847.43" r="355.315" /> 
<circle cx="10201.6" cy="4140.32" r="355.315" /> 
<circle cx="8080.25" cy="4847.43" r="355.315" /> 
<circle cx="8787.35" cy="4140.32" r="355.315" /> 
<circle cx="9494.46" cy="3433.21" r="355.315" /> 
<circle cx="5254.46" cy="10501.6" r="355.315" /> 
<circle cx="5961.57" cy="9794.53" r="355.315" /> 
<circle cx="6668.67" cy="9087.43" r="355.315" /> 
<circle cx="4547.35" cy="9794.53" r="355.315" /> 
<circle cx="5254.46" cy="9087.43" r="355.315" /> 
<circle cx="5961.57" cy="8380.32" r="355.315" /> 
<circle cx="3840.25" cy="9087.43" r="355.315" /> 
<circle cx="4547.35" cy="8380.32" r="355.315" /> 
<circle cx="5254.46" cy="7673.21" r="355.315" /> 
<circle cx="19598.7" cy="13276.1" r="355.315" /> 
<circle cx="18891.6" cy="13983.2" r="355.315" /> 
<circle cx="18184.5" cy="14690.3" r="355.315" /> 
<circle cx="20305.8" cy="13983.2" r="355.315" /> 
<circle cx="19598.7" cy="14690.3" r="355.315" /> 
<circle cx="18891.6" cy="15397.4" r="355.315" /> 
<circle cx="21012.9" cy="14690.3" r="355.315" /> 
<circle cx="20305.8" cy="15397.4" r="355.315" /> 
<circle cx="19598.7" cy="16104.5" r="355.315" /> 
<circle cx="17478.7" cy="15396.1" r="355.315" /> 
<circle cx="16771.6" cy="16103.2" r="355.315" /> 
<circle cx="16064.5" cy="16810.3" r="355.315" /> 
<circle cx="18185.8" cy="16103.2" r="355.315" /> 
<circle cx="17478.7" cy="16810.3" r="355.315" /> 
<circle cx="16771.6" cy="17517.4" r="355.315" /> 
<circle cx="18892.9" cy="16810.3" r="355.315" /> 
<circle cx="18185.8" cy="17517.4" r="355.315" /> 
<circle cx="17478.7" cy="18224.5" r="355.315" /> 
<circle cx="15358.7" cy="17516.1" r="355.315" /> 
<circle cx="14651.6" cy="18223.2" r="355.315" /> 
<circle cx="13944.5" cy="18930.3" r="355.315" /> 
<circle cx="16065.8" cy="18223.2" r="355.315" /> 
<circle cx="15358.7" cy="18930.3" r="355.315" /> 
<circle cx="14651.6" cy="19637.4" r="355.315" /> 
<circle cx="16772.9" cy="18930.3" r="355.315" /> 
<circle cx="16065.8" cy="19637.4" r="355.315" /> 
<circle cx="15358.7" cy="20344.5" r="355.315" /> 
</g>
<g style="fill:#C0C0C0; fill-opacity:1.0; 
stroke:#C0C0C0; stroke-width:39.3701; stroke-opacity:1; 
stroke-linecap:round; stroke-linejoin:round;">
<circle cx="10636.6" cy="11833.9" r="130.315" /> 
<circle cx="19886.6" cy="6958.87" r="130.315" /> 
<circle cx="17686.6" cy="4758.87" r="130.315" /> 
<circle cx="9111.57" cy="20183.9" r="130.315" /> 
<circle cx="20361.6" cy="9833.87" r="130.315" /> 
<circle cx="15586.6" cy="9708.87" r="130.315" /> 
<circle cx="15761.6" cy="8483.87" r="130.315" /> 
<circle cx="5649.07" cy="15321.4" r="130.315" /> 
<circle cx="13011.6" cy="12758.9" r="130.315" /> 
<circle cx="13911.6" cy="10858.9" r="130.315" /> 
<circle cx="13444.6" cy="5624.9" r="130.315" /> 
<circle cx="13781.6" cy="19753.9" r="130.315" /> 
<circle cx="11871.6" cy="15903.9" r="130.315" /> 
<circle cx="18601.6" cy="7063.87" r="130.315" /> 
<circle cx="13711.6" cy="12058.9" r="130.315" /> 
<circle cx="15861.6" cy="5883.87" r="130.315" /> 
<circle cx="16486.6" cy="6508.87" r="130.315" /> 
<circle cx="3711.57" cy="18033.9" r="130.315" /> 
</g>
<g style="fill:#A00000; fill-opacity:1.0; 
stroke:#A00000; stroke-width:150; stroke-opacity:1; 
stroke-linecap:round; stroke-linejoin:round;">
<path d="M12123 7645
L12123 7003
" />
<path d="M12123 7003
L11839 6719
" />
<path d="M11839 6719
L11859 6719
" />
<path d="M11859 6719
L12289 6290
" />
<path d="M16250 11772
L16250 12487
" />
<path d="M12123 7645
L16250 11772
" />
<path d="M17276 14318
L17276 14224
" />
<path d="M16247 13194
L15543 13194
" />
<path d="M17276 14224
L16247 13194
" />
<path d="M7765 12487
L7765 12487
" />
<path d="M7765 12487
L9368 14090
" />
<path d="M5554 12629
L6679 12629
" />
<path d="M6679 12629
L7404 11904
" />
<path d="M5231 11584
L5231 12306
" />
<path d="M5231 12306
L5554 12629
" />
<path d="M10076 13383
L9363 13383
" />
<path d="M7884 11904
L7404 11904
" />
<path d="M9363 13383
L7884 11904
" />
<path d="M6097 11959
L6009 11959
" />
<path d="M4011 11367
L4011 12033
" />
<path d="M4274 11104
L4011 11367
" />
<path d="M5514 11104
L4274 11104
" />
<path d="M5634 11224
L5514 11104
" />
<path d="M5634 11584
L5634 11224
" />
<path d="M6009 11959
L5634 11584
" />
<path d="M9944 7499
L9944 7494
" />
<path d="M10189 7250
L11309 7250
" />
<path d="M9944 7494
L10189 7250
" />
<path d="M16746 14849
L16476 14849
" />
<path d="M15529 13901
L14836 13901
" />
<path d="M16476 14849
L15529 13901
" />
<path d="M13901 15083
L13886 15083
" />
<path d="M9886 11083
L9886 10366
" />
<path d="M13886 15083
L10636 11833
" />
<path d="M10636 11833
L9886 11083
" />
</g>
<g style="fill:#A00000; fill-opacity:1.0; 
stroke:#A00000; stroke-width:500; stroke-opacity:1; 
stroke-linecap:round; stroke-linejoin:round;">
<path d="M20361 7433
L19886 6958
" />
<path d="M19886 6958
L17686 4758
" />
</g>
<g style="fill:#A00000; fill-opacity:1.0; 
stroke:#A00000; stroke-width:200; stroke-opacity:1; 
stroke-linecap:round; stroke-linejoin:round;">
<path d="M21020 8057
L21020 8474
" />
<path d="M20886 8608
L20886 9433
" />
<path d="M21020 8474
L20886 8608
" />
<path d="M20396 7433
L21020 8057
" />
</g>
<g style="fill:#A00000; fill-opacity:1.0; 
stroke:#A00000; stroke-width:150; stroke-opacity:1; 
stroke-linecap:round; stroke-linejoin:round;">
<path d="M9554 10033
L9886 10366
" />
<path d="M8161 10033
L9554 10033
" />
<path d="M9666 20579
L9506 20579
" />
<path d="M9506 20579
L9111 20183
" />
<path d="M14836 14578
L14836 13901
" />
<path d="M14331 15083
L14836 14578
" />
<path d="M13901 15083
L14331 15083
" />
<path d="M20361 9833
L20331 9833
" />
<path d="M20331 9833
L19956 10208
" />
<path d="M8161 10033
L8161 8883
" />
<path d="M9546 7499
L9944 7499
" />
<path d="M8161 8883
L9546 7499
" />
</g>
<g style="fill:#A00000; fill-opacity:1.0; 
stroke:#A00000; stroke-width:200; stroke-opacity:1; 
stroke-linecap:round; stroke-linejoin:round;">
<path d="M20361 9833
L20361 9858
" />
<path d="M20886 9433
L20786 9433
" />
<path d="M20786 9433
L20361 9858
" />
</g>
<g style="fill:#A00000; fill-opacity:1.0; 
stroke:#A00000; stroke-width:150; stroke-opacity:1; 
stroke-linecap:round; stroke-linejoin:round;">
<path d="M15801 21603
L9810 21603
" />
<path d="M9810 21603
L8472 20265
" />
<path d="M19046 20828
L18266 20828
" />
<path d="M16991 21003
L16401 21003
" />
<path d="M17321 21333
L16991 21003
" />
<path d="M17761 21333
L17321 21333
" />
<path d="M18266 20828
L17761 21333
" />
<path d="M18914 19390
L18914 20696
" />
<path d="M18914 20696
L19046 20828
" />
<path d="M15801 21603
L16401 21003
" />
<path d="M15661 21353
L10974 21353
" />
<path d="M10974 21353
L9179 19558
" />
<path d="M19621 18683
L18761 18683
" />
<path d="M15698 21353
L15661 21353
" />
<path d="M16318 20733
L15698 21353
" />
<path d="M16711 20733
L16318 20733
" />
<path d="M18761 18683
L16711 20733
" />
<path d="M19621 18683
L21001 18683
" />
<path d="M21001 18683
L21016 18699
" />
<path d="M3961 14608
L3961 15754
" />
<path d="M3961 15754
L4229 16022
" />
<path d="M3511 12033
L3511 13408
" />
<path d="M3511 13408
L3961 13858
" />
<path d="M3161 15208
L3161 16368
" />
<path d="M3161 16368
L3522 16730
" />
<path d="M3011 12033
L3011 14308
" />
<path d="M3011 14308
L3161 14458
" />
<path d="M4761 14008
L4761 15140
" />
<path d="M4761 15140
L4936 15315
" />
<path d="M4511 12033
L4511 13008
" />
<path d="M4511 13008
L4761 13258
" />
<path d="M12715 7537
L13415 7537
" />
<path d="M13415 7537
L15586 9708
" />
<path d="M15111 7833
L14425 7833
" />
<path d="M14425 7833
L13422 6830
" />
<path d="M15761 8483
L15111 7833
" />
<path d="M10196 20048
L11596 20048
" />
<path d="M11596 20048
L11911 20363
" />
<path d="M7058 13194
L5740 13194
" />
<path d="M5740 13194
L5554 13379
" />
<path d="M9494 6261
L10783 6261
" />
<path d="M15518 4683
L15543 4709
" />
<path d="M12361 4683
L15518 4683
" />
<path d="M10783 6261
L12361 4683
" />
<path d="M10201 5554
L11137 5554
" />
<path d="M14297 4397
L14693 4002
" />
<path d="M12294 4397
L14297 4397
" />
<path d="M11137 5554
L12294 4397
" />
<path d="M14693 4002
L16250 4002
" />
<path d="M10908 4847
L10912 4847
" />
<path d="M14744 3295
L16957 3295
" />
<path d="M13891 4147
L14744 3295
" />
<path d="M11611 4147
L13891 4147
" />
<path d="M10912 4847
L11611 4147
" />
<path d="M18371 10366
L18371 11074
" />
<path d="M19101 12778
L19598 13276
" />
<path d="M19101 11803
L19101 12778
" />
<path d="M18371 11074
L19101 11803
" />
<path d="M17664 11073
L17664 11787
" />
<path d="M18451 13543
L18891 13983
" />
<path d="M18451 12573
L18451 13543
" />
<path d="M17664 11787
L18451 12573
" />
<path d="M16957 11780
L16957 12480
" />
<path d="M17691 14197
L18184 14690
" />
<path d="M17691 13213
L17691 14197
" />
<path d="M16957 12480
L17691 13213
" />
<path d="M10977 6867
L10151 6867
" />
<path d="M10151 6867
L9815 7203
" />
<path d="M13961 5233
L14761 6033
" />
<path d="M12611 5233
L13961 5233
" />
<path d="M10977 6867
L12611 5233
" />
<path d="M8081 7674
L8990 7674
" />
<path d="M9461 7203
L9815 7203
" />
<path d="M8990 7674
L9461 7203
" />
<path d="M19079 9651
L15461 6033
" />
<path d="M19079 9658
L19079 9651
" />
<path d="M15461 6033
L14761 6033
" />
<path d="M10867 6577
L10071 6577
" />
<path d="M10071 6577
L9715 6933
" />
<path d="M8788 6967
L9253 6967
" />
<path d="M9286 6933
L9715 6933
" />
<path d="M9253 6967
L9286 6933
" />
<path d="M14378 4958
L14836 5416
" />
<path d="M12486 4958
L14378 4958
" />
<path d="M10867 6577
L12486 4958
" />
<path d="M14435 15333
L13440 15333
" />
<path d="M13440 15333
L13422 15315
" />
<path d="M15623 15396
L17478 15396
" />
<path d="M15201 14973
L15623 15396
" />
<path d="M14795 14973
L15201 14973
" />
<path d="M14435 15333
L14795 14973
" />
<path d="M12715 16022
L13572 16022
" />
<path d="M14920 16103
L16771 16103
" />
<path d="M14491 15673
L14920 16103
" />
<path d="M13921 15673
L14491 15673
" />
<path d="M13572 16022
L13921 15673
" />
<path d="M16064 16810
L14218 16810
" />
<path d="M13751 16343
L13211 16343
" />
<path d="M14218 16810
L13751 16343
" />
<path d="M12008 16730
L12825 16730
" />
<path d="M12825 16730
L13211 16343
" />
<path d="M5649 15321
L8149 15321
" />
<path d="M8149 15321
L10264 17437
" />
<path d="M10264 17437
L11300 17437
" />
<path d="M10593 18144
L11451 18144
" />
<path d="M13493 17516
L15358 17516
" />
<path d="M13081 17103
L13493 17516
" />
<path d="M12491 17103
L13081 17103
" />
<path d="M11451 18144
L12491 17103
" />
<path d="M9886 18851
L12434 18851
" />
<path d="M13062 18223
L14651 18223
" />
<path d="M12434 18851
L13062 18223
" />
<path d="M7765 20972
L7765 20040
" />
<path d="M13430 19443
L13944 18930
" />
<path d="M9751 19443
L13430 19443
" />
<path d="M9281 18973
L9751 19443
" />
<path d="M8831 18973
L9281 18973
" />
<path d="M7765 20040
L8831 18973
" />
<path d="M11300 8951
L11300 8320
" />
<path d="M11300 8320
L10759 7779
" />
<path d="M9111 8333
L9111 8302
" />
<path d="M9111 8858
L9111 8333
" />
<path d="M9111 8858
L13011 12758
" />
<path d="M9111 8302
L9658 7754
" />
<path d="M9674 7754
L10684 7754
" />
<path d="M9658 7754
L9674 7754
" />
<path d="M10684 7754
L10839 7909
" />
<path d="M12008 8244
L12008 8955
" />
<path d="M12008 8955
L13911 10858
" />
<path d="M12819 5759
L13309 5759
" />
<path d="M13309 5759
L13444 5624
" />
</g>
<g style="fill:#A00000; fill-opacity:1.0; 
stroke:#A00000; stroke-width:500; stroke-opacity:1; 
stroke-linecap:round; stroke-linejoin:round;">
<path d="M20661 13083
L20661 13093
" />
<path d="M21035 15959
L21035 17269
" />
<path d="M21741 15253
L21035 15959
" />
<path d="M21741 14173
L21741 15253
" />
<path d="M20661 13093
L21741 14173
" />
</g>
<g style="fill:#A00000; fill-opacity:1.0; 
stroke:#A00000; stroke-width:150; stroke-opacity:1; 
stroke-linecap:round; stroke-linejoin:round;">
<path d="M21636 9433
L21636 10158
" />
<path d="M21636 10158
L21661 10183
" />
</g>
<g style="fill:#A00000; fill-opacity:1.0; 
stroke:#A00000; stroke-width:500; stroke-opacity:1; 
stroke-linecap:round; stroke-linejoin:round;">
<path d="M21881 7091
L21881 4496
" />
<path d="M21881 4496
L21622 4237
" />
<path d="M10201 4140
L10201 4136
" />
<path d="M17455 2665
L21881 7091
" />
<path d="M21881 7091
L21911 7121
" />
<path d="M14772 2665
L17455 2665
" />
<path d="M13715 3722
L14772 2665
" />
<path d="M10615 3722
L13715 3722
" />
<path d="M10201 4136
L10615 3722
" />
<path d="M21661 10183
L21661 10233
" />
<path d="M21661 10233
L21661 11183
" />
<path d="M21661 11183
L20661 12183
" />
<path d="M20661 12183
L20661 13083
" />
<path d="M20661 13083
L20661 13627
" />
<path d="M20661 13627
L20305 13983
" />
<path d="M21661 10183
L21661 8283
" />
<path d="M21911 8033
L21911 7121
" />
<path d="M21661 8283
L21911 8033
" />
<path d="M19598 14690
L20305 13983
" />
<path d="M18891 15397
L18891 15397
" />
<path d="M18891 15397
L19598 14690
" />
<path d="M18185 16103
L18185 16103
" />
<path d="M18185 16103
L18891 15397
" />
<path d="M17478 16810
L18185 16103
" />
<path d="M16771 17517
L16771 17517
" />
<path d="M16771 17517
L17478 16810
" />
<path d="M16065 18223
L16065 18223
" />
<path d="M16065 18223
L16771 17517
" />
<path d="M15358 18930
L16065 18223
" />
<path d="M14651 19637
L14651 19637
" />
<path d="M14651 19637
L15358 18930
" />
<path d="M9494 4847
L9494 4847
" />
<path d="M9494 4847
L10201 4140
" />
<path d="M8787 5554
L9494 4847
" />
<path d="M8081 6260
L8081 6260
" />
<path d="M8081 6260
L8787 5554
" />
<path d="M7374 6967
L7374 6967
" />
<path d="M7374 6967
L8081 6260
" />
<path d="M6667 7674
L7374 6967
" />
<path d="M5961 8380
L5961 8380
" />
<path d="M5961 8380
L6667 7674
" />
<path d="M5254 9087
L5254 9087
" />
<path d="M5254 9087
L5961 8380
" />
<path d="M4547 9794
L5254 9087
" />
</g>
<g style="fill:#A00000; fill-opacity:1.0; 
stroke:#A00000; stroke-width:150; stroke-opacity:1; 
stroke-linecap:round; stroke-linejoin:round;">
<path d="M15581 21053
L15081 21053
" />
<path d="M15081 21053
L13781 19753
" />
<path d="M11871 15903
L9767 15903
" />
<path d="M9767 15903
L8661 14798
" />
<path d="M19426 10739
L19426 9949
" />
<path d="M18601 8483
L18601 7063
" />
<path d="M19631 9513
L18601 8483
" />
<path d="M19631 9743
L19631 9513
" />
<path d="M19426 9949
L19631 9743
" />
<path d="M20661 11183
L19871 11183
" />
<path d="M19871 11183
L19426 10739
" />
<path d="M20328 17976
L18668 17976
" />
<path d="M15591 21053
L15581 21053
" />
<path d="M18668 17976
L15591 21053
" />
<path d="M20328 17976
L21354 17976
" />
<path d="M21354 17976
L21546 18168
" />
<path d="M18516 21359
L18516 21398
" />
<path d="M21851 18473
L21546 18168
" />
<path d="M21851 21153
L21851 18473
" />
<path d="M21361 21643
L21851 21153
" />
<path d="M18761 21643
L21361 21643
" />
<path d="M18516 21398
L18761 21643
" />
<path d="M10229 8310
L10229 9294
" />
<path d="M10229 9294
L10593 9658
" />
<path d="M13711 12058
L13711 14190
" />
<path d="M11311 9658
L13711 12058
" />
<path d="M10593 9658
L11311 9658
" />
<path d="M13711 14190
L14129 14608
" />
<path d="M16486 6508
L15861 5883
" />
<path d="M4415 21594
L4415 20860
" />
<path d="M5151 19473
L3711 18033
" />
<path d="M5151 20123
L5151 19473
" />
<path d="M4415 20860
L5151 20123
" />
</g>
<g style="fill:#A00000; fill-opacity:1.0; 
stroke:#A00000; stroke-width:39.3701; stroke-opacity:1; 
stroke-linecap:round; stroke-linejoin:round;">
<polyline style="fill-rule:evenodd;"
points="22044,3963
22042,3957
21902,3818
21721,3742
21524,3742
21342,3817
21202,3956
21127,4138
21127,4335
21202,4517
21341,4656
21436,4696
21436,4978
21410,4952
21410,4846
21335,4664
21195,4525
21014,4449
20906,4449
20703,4245
20703,4139
20627,3957
20488,3818
20306,3742
20199,3742
19995,3538
19995,3432
19920,3250
19781,3110
19599,3035
19492,3035
19022,2565
21450,2565
21689,2612
21873,2735
21997,2920
22044,3157
22044,3963
" /> 
</g>
<g style="fill:#A00000; fill-opacity:0.0; 
stroke:#A00000; stroke-width:130; stroke-opacity:1; 
stroke-linecap:round; stroke-linejoin:round;">
<polyline fill="none;"
points="22044,3963
22042,3957
21902,3818
21721,3742
21524,3742
21342,3817
21202,3956
21127,4138
21127,4335
21202,4517
21341,4656
21436,4696
21436,4978
21410,4952
21410,4846
21335,4664
21195,4525
21014,4449
20906,4449
20703,4245
20703,4139
20627,3957
20488,3818
20306,3742
20199,3742
19995,3538
19995,3432
19920,3250
19781,3110
19599,3035
19492,3035
19022,2565
21450,2565
21689,2612
21873,2735
21997,2920
22044,3157
22044,3963
" /> 
</g>
<g style="fill:#A00000; fill-opacity:1.0; 
stroke:#A00000; stroke-width:39.3701; stroke-opacity:1; 
stroke-linecap:round; stroke-linejoin:round;">
<polyline style="fill-rule:evenodd;"
points="10420,17707
10327,17745
10195,17877
10123,18050
10123,18237
10195,18410
10327,18542
10420,18581
10281,18581
10153,18453
9980,18381
9793,18381
9620,18452
9488,18584
9420,18748
9384,18724
9281,18703
8831,18703
8728,18724
8640,18782
7574,19849
7515,19936
7495,20040
7495,20578
7367,20706
7295,20878
7295,21065
7366,21238
7498,21370
7671,21442
7858,21442
8031,21371
8163,21239
8235,21066
8235,20879
8164,20706
8035,20577
8035,20438
8073,20531
8205,20663
8378,20735
8560,20735
9619,21794
9658,21820
4857,21820
4910,21693
4910,21496
4835,21314
4695,21175
4685,21170
4685,21125
4702,21167
4841,21306
5023,21382
5220,21382
5402,21307
5541,21168
5617,20986
5617,20789
5542,20607
5402,20468
5251,20405
5342,20314
5401,20227
5401,20227
5421,20123
5421,19473
5401,19370
5401,19370
5342,19282
5342,19282
4056,17997
4056,17965
4004,17838
3907,17741
3780,17688
3643,17688
3516,17741
3419,17838
3366,17964
3366,18102
3418,18229
3515,18326
3642,18378
3674,18378
4881,19585
4881,20012
4881,20012
4835,19900
4695,19760
4514,19685
4317,19685
4203,19732
4203,19375
4127,19193
3988,19053
3806,18978
3609,18978
3427,19053
3288,19192
3213,19374
3212,19571
3254,19671
3125,19617
3035,19671
3035,20095
3006,20125
3055,20174
3085,20145
3509,20145
3563,20055
3505,19925
3609,19968
3806,19968
3988,19893
4127,19753
4202,19572
4203,19375
4203,19732
4135,19760
3995,19899
3920,20081
3920,20278
3995,20460
4134,20599
4247,20646
4224,20669
4180,20734
4127,20607
3988,20468
3806,20392
3609,20392
3510,20433
3563,20304
3509,20215
3085,20215
3055,20185
3006,20235
3035,20264
3035,20688
3125,20742
3255,20685
3213,20788
3212,20985
3288,21167
3427,21306
3609,21382
3806,21382
3988,21307
4127,21168
4145,21125
4145,21170
4135,21174
3995,21313
3920,21495
3920,21692
3973,21820
3381,21820
3144,21773
2959,21649
2836,21466
2788,21226
2788,20706
2876,20742
2965,20688
2965,20264
2995,20235
2945,20185
2916,20215
2788,20215
2788,20145
2916,20145
2945,20174
2995,20125
2965,20095
2965,19671
2876,19617
2788,19656
2788,15554
2847,15578
2891,15578
2891,16368
2912,16472
2970,16559
3052,16641
3052,16823
3124,16995
3256,17128
3428,17199
3615,17200
3788,17128
3920,16996
3992,16823
3992,16636
3921,16464
3789,16331
3616,16260
3434,16259
3431,16257
3431,15578
3475,15578
3546,15549
3601,15494
3631,15422
3631,15345
3631,14995
3620,14967
3647,14978
3691,14978
3691,15754
3712,15858
3759,15929
3759,15929
3759,16116
3831,16288
3963,16421
4135,16492
4322,16493
4495,16421
4628,16289
4699,16116
4699,15929
4628,15757
4496,15624
4323,15553
4231,15552
4231,14978
4275,14978
4346,14949
4401,14894
4431,14822
4431,14745
4431,14395
4420,14367
4447,14378
4491,14378
4491,15140
4494,15155
4467,15221
4466,15408
4538,15581
4670,15714
4843,15785
5030,15785
5202,15714
5335,15582
5360,15520
5453,15613
5580,15666
5717,15666
5844,15614
5866,15591
8037,15591
10073,17628
10161,17686
10161,17686
10264,17707
10420,17707
" /> 
</g>
<g style="fill:#A00000; fill-opacity:0.0; 
stroke:#A00000; stroke-width:130; stroke-opacity:1; 
stroke-linecap:round; stroke-linejoin:round;">
<polyline fill="none;"
points="10420,17707
10327,17745
10195,17877
10123,18050
10123,18237
10195,18410
10327,18542
10420,18581
10281,18581
10153,18453
9980,18381
9793,18381
9620,18452
9488,18584
9420,18748
9384,18724
9281,18703
8831,18703
8728,18724
8640,18782
7574,19849
7515,19936
7495,20040
7495,20578
7367,20706
7295,20878
7295,21065
7366,21238
7498,21370
7671,21442
7858,21442
8031,21371
8163,21239
8235,21066
8235,20879
8164,20706
8035,20577
8035,20438
8073,20531
8205,20663
8378,20735
8560,20735
9619,21794
9658,21820
4857,21820
4910,21693
4910,21496
4835,21314
4695,21175
4685,21170
4685,21125
4702,21167
4841,21306
5023,21382
5220,21382
5402,21307
5541,21168
5617,20986
5617,20789
5542,20607
5402,20468
5251,20405
5342,20314
5401,20227
5401,20227
5421,20123
5421,19473
5401,19370
5401,19370
5342,19282
5342,19282
4056,17997
4056,17965
4004,17838
3907,17741
3780,17688
3643,17688
3516,17741
3419,17838
3366,17964
3366,18102
3418,18229
3515,18326
3642,18378
3674,18378
4881,19585
4881,20012
4881,20012
4835,19900
4695,19760
4514,19685
4317,19685
4203,19732
4203,19375
4127,19193
3988,19053
3806,18978
3609,18978
3427,19053
3288,19192
3213,19374
3212,19571
3254,19671
3125,19617
3035,19671
3035,20095
3006,20125
3055,20174
3085,20145
3509,20145
3563,20055
3505,19925
3609,19968
3806,19968
3988,19893
4127,19753
4202,19572
4203,19375
4203,19732
4135,19760
3995,19899
3920,20081
3920,20278
3995,20460
4134,20599
4247,20646
4224,20669
4180,20734
4127,20607
3988,20468
3806,20392
3609,20392
3510,20433
3563,20304
3509,20215
3085,20215
3055,20185
3006,20235
3035,20264
3035,20688
3125,20742
3255,20685
3213,20788
3212,20985
3288,21167
3427,21306
3609,21382
3806,21382
3988,21307
4127,21168
4145,21125
4145,21170
4135,21174
3995,21313
3920,21495
3920,21692
3973,21820
3381,21820
3144,21773
2959,21649
2836,21466
2788,21226
2788,20706
2876,20742
2965,20688
2965,20264
2995,20235
2945,20185
2916,20215
2788,20215
2788,20145
2916,20145
2945,20174
2995,20125
2965,20095
2965,19671
2876,19617
2788,19656
2788,15554
2847,15578
2891,15578
2891,16368
2912,16472
2970,16559
3052,16641
3052,16823
3124,16995
3256,17128
3428,17199
3615,17200
3788,17128
3920,16996
3992,16823
3992,16636
3921,16464
3789,16331
3616,16260
3434,16259
3431,16257
3431,15578
3475,15578
3546,15549
3601,15494
3631,15422
3631,15345
3631,14995
3620,14967
3647,14978
3691,14978
3691,15754
3712,15858
3759,15929
3759,15929
3759,16116
3831,16288
3963,16421
4135,16492
4322,16493
4495,16421
4628,16289
4699,16116
4699,15929
4628,15757
4496,15624
4323,15553
4231,15552
4231,14978
4275,14978
4346,14949
4401,14894
4431,14822
4431,14745
4431,14395
4420,14367
4447,14378
4491,14378
4491,15140
4494,15155
4467,15221
4466,15408
4538,15581
4670,15714
4843,15785
5030,15785
5202,15714
5335,15582
5360,15520
5453,15613
5580,15666
5717,15666
5844,15614
5866,15591
8037,15591
10073,17628
10161,17686
10161,17686
10264,17707
10420,17707
" /> 
</g>
<g style="fill:#A00000; fill-opacity:1.0; 
stroke:#A00000; stroke-width:39.3701; stroke-opacity:1; 
stroke-linecap:round; stroke-linejoin:round;">
<polyline style="fill-rule:evenodd;"
points="10573,21333
9922,21333
9750,21162
9790,21162
9887,21121
9976,21032
9976,20938
9666,20628
9660,20634
9611,20584
9616,20579
9306,20268
9212,20268
9123,20358
9083,20455
9083,20494
8942,20353
8942,20172
8871,19999
8739,19867
8566,19795
8391,19795
8709,19477
8709,19651
8780,19824
8913,19956
9085,20028
9267,20028
9360,20121
9356,20125
9356,20219
9666,20529
9671,20523
9721,20573
9715,20579
10026,20889
10119,20889
10124,20884
10573,21333
" /> 
</g>
<g style="fill:#A00000; fill-opacity:0.0; 
stroke:#A00000; stroke-width:130; stroke-opacity:1; 
stroke-linecap:round; stroke-linejoin:round;">
<polyline fill="none;"
points="10573,21333
9922,21333
9750,21162
9790,21162
9887,21121
9976,21032
9976,20938
9666,20628
9660,20634
9611,20584
9616,20579
9306,20268
9212,20268
9123,20358
9083,20455
9083,20494
8942,20353
8942,20172
8871,19999
8739,19867
8566,19795
8391,19795
8709,19477
8709,19651
8780,19824
8913,19956
9085,20028
9267,20028
9360,20121
9356,20125
9356,20219
9666,20529
9671,20523
9721,20573
9715,20579
10026,20889
10119,20889
10124,20884
10573,21333
" /> 
</g>
<g style="fill:#A00000; fill-opacity:1.0; 
stroke:#A00000; stroke-width:39.3701; stroke-opacity:1; 
stroke-linecap:round; stroke-linejoin:round;">
<polyline style="fill-rule:evenodd;"
points="10743,7272
10728,7266
10650,7266
10578,7296
10523,7350
10389,7484
9674,7484
9658,7484
9555,7505
9514,7532
9573,7473
9815,7473
9918,7453
9918,7453
10006,7394
10263,7137
10726,7137
10726,7231
10743,7272
" /> 
</g>
<g style="fill:#A00000; fill-opacity:0.0; 
stroke:#A00000; stroke-width:130; stroke-opacity:1; 
stroke-linecap:round; stroke-linejoin:round;">
<polyline fill="none;"
points="10743,7272
10728,7266
10650,7266
10578,7296
10523,7350
10389,7484
9674,7484
9658,7484
9555,7505
9514,7532
9573,7473
9815,7473
9918,7453
9918,7453
10006,7394
10263,7137
10726,7137
10726,7231
10743,7272
" /> 
</g>
<g style="fill:#A00000; fill-opacity:1.0; 
stroke:#A00000; stroke-width:39.3701; stroke-opacity:1; 
stroke-linecap:round; stroke-linejoin:round;">
<polyline style="fill-rule:evenodd;"
points="11896,7782
11742,7846
11609,7978
11538,8150
11538,8199
11491,8129
11491,8129
11266,7904
11272,7889
11273,7811
11272,7810
11327,7833
11433,7833
11530,7792
11619,7703
11619,7609
11309,7299
11303,7305
11254,7255
11259,7250
11254,7244
11303,7194
11309,7200
11315,7194
11364,7244
11358,7250
11669,7560
11762,7560
11852,7471
11853,7467
11853,7645
11874,7749
11896,7782
" /> 
</g>
<g style="fill:#A00000; fill-opacity:0.0; 
stroke:#A00000; stroke-width:130; stroke-opacity:1; 
stroke-linecap:round; stroke-linejoin:round;">
<polyline fill="none;"
points="11896,7782
11742,7846
11609,7978
11538,8150
11538,8199
11491,8129
11491,8129
11266,7904
11272,7889
11273,7811
11272,7810
11327,7833
11433,7833
11530,7792
11619,7703
11619,7609
11309,7299
11303,7305
11254,7255
11259,7250
11254,7244
11303,7194
11309,7200
11315,7194
11364,7244
11358,7250
11669,7560
11762,7560
11852,7471
11853,7467
11853,7645
11874,7749
11896,7782
" /> 
</g>
<g style="fill:#A00000; fill-opacity:1.0; 
stroke:#A00000; stroke-width:39.3701; stroke-opacity:1; 
stroke-linecap:round; stroke-linejoin:round;">
<polyline style="fill-rule:evenodd;"
points="13999,15063
13826,15063
13820,15049
13688,14917
13516,14845
13329,14845
13156,14917
13024,15049
12952,15221
12952,15408
13023,15581
13155,15714
13249,15752
13109,15752
12981,15624
12809,15553
12622,15552
12449,15624
12316,15756
12245,15929
12245,16116
12316,16288
12448,16421
12542,16460
12402,16460
12274,16331
12101,16260
11914,16259
11742,16331
11609,16463
11538,16636
11537,16823
11609,16995
11741,17128
11914,17199
12013,17200
11770,17442
11770,17344
11699,17171
11567,17038
11394,16967
11207,16967
11035,17038
10906,17167
10376,17167
8459,15250
8562,15292
8759,15293
8770,15288
9576,16094
9576,16094
9664,16153
9664,16153
9747,16169
9767,16173
9767,16173
9767,16173
11653,16173
11675,16196
11802,16248
11939,16248
12066,16196
12163,16099
12216,15972
12216,15835
12164,15708
12067,15611
11940,15558
11803,15558
11676,15611
11653,15633
11278,15633
11278,12578
11203,12396
11063,12257
10882,12181
10685,12181
10503,12256
10363,12396
10288,12577
10288,12774
10363,12956
10502,13096
10684,13171
10881,13171
11063,13096
11202,12957
11278,12775
11278,12578
11278,15633
9879,15633
9152,14906
9156,14896
9156,14700
9081,14518
8942,14378
8760,14303
8563,14302
8381,14378
8242,14517
8166,14699
8166,14896
8238,15069
8149,15051
5867,15051
5848,15032
5909,15007
6042,14875
6113,14702
6114,14515
6042,14342
5910,14210
5737,14138
5550,14138
5378,14210
5245,14342
5174,14514
5173,14701
5245,14874
5377,15006
5446,15035
5363,15118
5335,15049
5203,14917
5031,14846
5031,14378
5075,14378
5146,14349
5201,14294
5231,14222
5231,14145
5231,13795
5207,13735
5240,13749
5318,13749
5868,13749
5912,13731
5881,13807
5881,13994
5952,14167
6084,14299
6257,14371
6444,14371
6617,14300
6749,14168
6821,13995
6821,13808
6749,13635
6617,13503
6524,13464
6663,13464
6791,13592
6964,13664
7151,13664
7324,13593
7456,13461
7528,13288
7528,13101
7456,12928
7324,12796
7152,12724
6966,12724
7295,12395
7295,12580
7366,12753
7498,12885
7671,12957
7853,12957
8878,13982
8874,13992
8873,14189
8949,14371
9088,14510
9270,14585
9466,14586
9648,14510
9788,14371
9863,14189
9864,13992
9788,13810
9649,13671
9607,13653
9652,13653
9656,13663
9795,13803
9977,13878
10174,13878
10356,13803
10495,13664
10570,13482
10571,13285
10495,13103
10356,12964
10174,12888
9978,12888
9881,12928
9881,10421
9831,10371
9802,10401
9403,10401
9349,10486
9429,10668
9273,10603
9086,10603
8913,10674
8781,10806
8724,10944
8724,10158
8670,10068
8196,10068
8196,10542
8286,10596
8491,10505
8647,10343
8724,10158
8724,10944
8709,10979
8709,11166
8780,11339
8913,11471
9085,11543
9272,11543
9445,11471
9577,11339
9649,11167
9649,10980
9585,10825
9592,10831
9766,10903
9851,10849
9851,10450
9881,10421
9881,12928
9851,12940
9796,12963
9656,13103
9652,13113
9475,13113
8598,12236
8738,12178
8870,12046
8942,11874
8942,11687
8871,11514
8739,11382
8566,11310
8379,11310
8206,11381
8156,11432
8156,10088
8126,10059
8126,9998
8126,9525
8037,9471
7831,9561
7675,9724
7599,9909
7652,9998
8126,9998
8126,10059
8106,10039
8077,10068
7652,10068
7599,10158
7656,10288
7553,10246
7356,10245
7174,10321
7035,10460
6959,10642
6959,10839
7034,11021
7173,11160
7355,11235
7552,11236
7734,11160
7873,11021
7949,10839
7949,10642
7908,10542
8037,10596
8126,10542
8126,10118
8156,10088
8156,11432
8126,11461
8074,11513
8009,11669
8009,11669
7987,11655
7884,11634
7404,11634
7301,11655
7213,11713
6567,12359
6401,12359
6444,12341
6519,12267
6559,12169
6559,11749
6519,11652
6444,11577
6370,11546
6404,11532
6459,11477
6489,11406
6489,11328
6489,11013
6460,10942
6405,10887
6333,10857
6256,10857
5862,10857
5790,10886
5735,10941
5705,11013
5705,11091
5705,11406
5735,11477
5790,11532
5824,11546
5750,11577
5675,11652
5635,11749
5635,11858
5701,11924
6062,11924
6062,11917
6132,11917
6132,11924
6493,11924
6559,11858
6559,11749
6559,12169
6559,12061
6493,11994
6132,11994
6132,12002
6062,12002
6062,11994
5701,11994
5635,12061
5635,12169
5672,12259
5566,12259
5501,12195
5501,11923
5538,11907
5593,11852
5623,11781
5623,11703
5623,11388
5594,11317
5539,11262
5467,11232
5390,11232
4996,11232
4924,11261
4869,11316
4839,11388
4839,11466
4839,11686
4797,11643
4725,11613
4647,11613
4366,11613
4336,11584
4239,11543
4112,11543
4046,11610
4046,11998
4054,11998
4054,12068
4046,12068
4046,12457
4112,12523
4239,12523
4241,12522
4241,13008
4262,13112
4291,13156
4291,13472
4303,13500
4275,13488
4197,13488
3973,13488
3781,13297
3781,12522
3784,12523
3910,12523
3976,12457
3976,12068
3968,12068
3968,11998
3976,11998
3976,11610
3910,11543
3805,11543
3805,9672
3805,9122
3805,9052
3805,8502
3703,8449
3469,8550
3292,8732
3202,8950
3255,9052
3805,9052
3805,9122
3255,9122
3202,9223
3302,9457
3485,9635
3703,9725
3805,9672
3805,11543
3784,11543
3686,11584
3656,11613
3647,11613
3297,11613
3261,11628
3225,11613
3147,11613
2797,11613
2788,11617
2788,3159
2836,2919
2959,2736
3144,2612
3381,2565
12659,2565
12549,2674
12466,2874
12466,3091
12543,3277
10615,3277
10445,3311
10300,3408
10138,3570
10132,3570
10132,3569
10132,3296
10031,3062
9849,2885
9630,2795
9529,2847
9529,3398
10079,3398
10132,3296
10132,3569
10079,3468
9578,3468
9549,3438
9500,3488
9529,3517
9529,4018
9630,4071
9631,4071
9631,4080
9488,4223
9488,3488
9459,3458
9459,3398
9459,2847
9357,2795
9124,2895
8946,3078
8856,3296
8909,3398
9459,3398
9459,3458
9439,3438
9409,3468
8909,3468
8879,3525
8822,3555
8822,4055
8792,4085
8842,4134
8871,4105
9372,4105
9402,4048
9459,4018
9459,3517
9488,3488
9488,4223
9459,4253
9435,4277
9425,4277
9425,4276
9372,4175
8871,4175
8842,4145
8792,4195
8822,4224
8822,4725
8923,4778
8924,4778
8924,4788
8781,4930
8781,4195
8752,4165
8752,4105
8752,3555
8650,3502
8417,3603
8239,3785
8149,4003
8202,4105
8752,4105
8752,4165
8732,4145
8702,4175
8202,4175
8172,4232
8115,4262
8115,4762
8085,4792
8135,4841
8164,4812
8665,4812
8695,4755
8752,4725
8752,4224
8781,4195
8781,4930
8752,4960
8728,4984
8718,4984
8718,4983
8665,4882
8164,4882
8135,4852
8085,4902
8115,4931
8115,5432
8216,5485
8217,5485
8217,5495
8074,5637
8074,4902
8045,4873
8045,4812
8045,4262
7943,4209
7709,4310
7532,4492
7442,4710
7495,4812
8045,4812
8045,4873
8025,4852
7995,4882
7495,4882
7465,4938
7409,4967
7409,5468
7380,5498
7429,5547
7458,5518
7959,5518
7988,5461
8045,5432
8045,4931
8074,4902
8074,5637
8045,5667
8022,5690
8012,5690
8012,5689
7959,5588
7458,5588
7429,5558
7380,5608
7409,5637
7409,6138
7510,6191
7511,6191
7511,6200
7368,6343
7368,5608
7339,5578
7339,5518
7339,4967
7237,4915
7004,5015
6826,5198
6736,5416
6789,5518
7339,5518
7339,5578
7319,5558
7289,5588
6789,5588
6759,5645
6702,5675
6702,6175
6672,6205
6722,6254
6751,6225
7252,6225
7282,6168
7339,6138
7339,5637
7368,5608
7368,6343
7339,6373
7315,6397
7305,6397
7305,6396
7252,6295
6751,6295
6722,6265
6672,6315
6702,6344
6702,6845
6803,6898
6804,6898
6804,6908
6661,7050
6661,6315
6632,6285
6632,6225
6632,5675
6530,5622
6297,5723
6119,5905
6029,6123
6082,6225
6632,6225
6632,6285
6612,6265
6582,6295
6082,6295
6052,6352
5995,6382
5995,6882
5965,6912
6015,6961
6044,6932
6545,6932
6575,6875
6632,6845
6632,6344
6661,6315
6661,7050
6632,7080
6608,7104
6598,7104
6598,7103
6545,7002
6044,7002
6015,6972
5965,7022
5995,7051
5995,7552
6096,7605
6097,7605
6097,7615
5954,7757
5954,7022
5925,6993
5925,6932
5925,6382
5823,6329
5589,6430
5412,6612
5322,6830
5375,6932
5925,6932
5925,6993
5905,6972
5875,7002
5375,7002
5345,7058
5289,7087
5289,7588
5260,7618
5309,7667
5338,7638
5839,7638
5868,7581
5925,7552
5925,7051
5954,7022
5954,7757
5925,7787
5902,7810
5892,7810
5892,7809
5839,7708
5338,7708
5309,7678
5260,7728
5289,7757
5289,8258
5390,8311
5391,8311
5391,8320
5248,8463
5248,7728
5219,7698
5219,7638
5219,7087
5117,7035
4884,7135
4706,7318
4616,7536
4669,7638
5219,7638
5219,7698
5199,7678
5169,7708
4669,7708
4639,7765
4582,7795
4582,8295
4552,8325
4602,8374
4631,8345
5132,8345
5162,8288
5219,8258
5219,7757
5248,7728
5248,8463
5219,8493
5195,8517
5185,8517
5185,8516
5132,8415
4631,8415
4602,8385
4552,8435
4582,8464
4582,8965
4683,9018
4684,9018
4684,9028
4541,9170
4541,8435
4512,8405
4512,8345
4512,7795
4410,7742
4177,7843
3999,8025
3909,8243
3962,8345
4512,8345
4512,8405
4492,8385
4462,8415
3962,8415
3932,8472
3875,8502
3875,9002
3845,9032
3895,9081
3924,9052
4425,9052
4455,8995
4512,8965
4512,8464
4541,8435
4541,9170
4512,9200
4488,9224
4478,9224
4478,9223
4425,9122
3924,9122
3895,9092
3845,9142
3875,9171
3875,9672
3976,9725
3977,9725
3977,9907
4063,10116
4224,10277
4433,10364
4660,10364
4701,10347
4684,10387
4684,10614
4770,10824
4931,10984
5140,11071
5367,11071
5576,10985
5737,10824
5824,10615
5824,10388
5807,10347
5847,10364
6074,10364
6284,10278
6444,10117
6531,9908
6531,9681
6514,9640
6554,9657
6781,9657
6991,9570
7151,9410
7238,9201
7238,8974
7222,8935
7260,8951
7487,8951
7696,8865
7857,8704
7944,8495
7944,8268
7927,8227
7967,8244
8194,8244
8404,8158
8564,7997
8586,7944
8990,7944
9094,7923
9094,7923
9135,7896
8920,8111
8862,8198
8841,8302
8841,8333
8841,8831
8770,8831
8588,8906
8449,9046
8373,9227
8373,9424
8414,9524
8286,9471
8196,9525
8196,9949
8167,9978
8216,10028
8246,9998
8670,9998
8724,9909
8666,9778
8769,9821
8966,9821
9148,9746
9288,9607
9343,9473
9720,9849
9569,9915
9421,10071
9349,10245
9403,10331
9851,10331
9851,9980
9921,10050
9921,10281
9892,10311
9941,10360
9971,10331
10201,10331
10271,10401
9921,10401
9921,10849
10007,10903
10203,10816
10351,10660
10404,10533
11359,11488
11210,11549
11070,11688
10995,11870
10995,12067
11070,12249
11209,12389
11391,12464
11588,12464
11770,12389
11909,12250
11971,12100
12666,12795
12666,12827
12718,12954
12815,13051
12942,13103
13079,13103
13206,13051
13303,12954
13356,12827
13356,12690
13304,12563
13207,12466
13080,12413
13048,12413
12363,11729
12477,11682
12616,11543
12674,11403
13366,12095
13366,12127
13418,12254
13441,12276
13441,14190
13462,14294
13520,14381
13659,14520
13659,14701
13730,14874
13862,15006
13999,15063
" /> 
</g>
<g style="fill:#A00000; fill-opacity:0.0; 
stroke:#A00000; stroke-width:130; stroke-opacity:1; 
stroke-linecap:round; stroke-linejoin:round;">
<polyline fill="none;"
points="13999,15063
13826,15063
13820,15049
13688,14917
13516,14845
13329,14845
13156,14917
13024,15049
12952,15221
12952,15408
13023,15581
13155,15714
13249,15752
13109,15752
12981,15624
12809,15553
12622,15552
12449,15624
12316,15756
12245,15929
12245,16116
12316,16288
12448,16421
12542,16460
12402,16460
12274,16331
12101,16260
11914,16259
11742,16331
11609,16463
11538,16636
11537,16823
11609,16995
11741,17128
11914,17199
12013,17200
11770,17442
11770,17344
11699,17171
11567,17038
11394,16967
11207,16967
11035,17038
10906,17167
10376,17167
8459,15250
8562,15292
8759,15293
8770,15288
9576,16094
9576,16094
9664,16153
9664,16153
9747,16169
9767,16173
9767,16173
9767,16173
11653,16173
11675,16196
11802,16248
11939,16248
12066,16196
12163,16099
12216,15972
12216,15835
12164,15708
12067,15611
11940,15558
11803,15558
11676,15611
11653,15633
11278,15633
11278,12578
11203,12396
11063,12257
10882,12181
10685,12181
10503,12256
10363,12396
10288,12577
10288,12774
10363,12956
10502,13096
10684,13171
10881,13171
11063,13096
11202,12957
11278,12775
11278,12578
11278,15633
9879,15633
9152,14906
9156,14896
9156,14700
9081,14518
8942,14378
8760,14303
8563,14302
8381,14378
8242,14517
8166,14699
8166,14896
8238,15069
8149,15051
5867,15051
5848,15032
5909,15007
6042,14875
6113,14702
6114,14515
6042,14342
5910,14210
5737,14138
5550,14138
5378,14210
5245,14342
5174,14514
5173,14701
5245,14874
5377,15006
5446,15035
5363,15118
5335,15049
5203,14917
5031,14846
5031,14378
5075,14378
5146,14349
5201,14294
5231,14222
5231,14145
5231,13795
5207,13735
5240,13749
5318,13749
5868,13749
5912,13731
5881,13807
5881,13994
5952,14167
6084,14299
6257,14371
6444,14371
6617,14300
6749,14168
6821,13995
6821,13808
6749,13635
6617,13503
6524,13464
6663,13464
6791,13592
6964,13664
7151,13664
7324,13593
7456,13461
7528,13288
7528,13101
7456,12928
7324,12796
7152,12724
6966,12724
7295,12395
7295,12580
7366,12753
7498,12885
7671,12957
7853,12957
8878,13982
8874,13992
8873,14189
8949,14371
9088,14510
9270,14585
9466,14586
9648,14510
9788,14371
9863,14189
9864,13992
9788,13810
9649,13671
9607,13653
9652,13653
9656,13663
9795,13803
9977,13878
10174,13878
10356,13803
10495,13664
10570,13482
10571,13285
10495,13103
10356,12964
10174,12888
9978,12888
9881,12928
9881,10421
9831,10371
9802,10401
9403,10401
9349,10486
9429,10668
9273,10603
9086,10603
8913,10674
8781,10806
8724,10944
8724,10158
8670,10068
8196,10068
8196,10542
8286,10596
8491,10505
8647,10343
8724,10158
8724,10944
8709,10979
8709,11166
8780,11339
8913,11471
9085,11543
9272,11543
9445,11471
9577,11339
9649,11167
9649,10980
9585,10825
9592,10831
9766,10903
9851,10849
9851,10450
9881,10421
9881,12928
9851,12940
9796,12963
9656,13103
9652,13113
9475,13113
8598,12236
8738,12178
8870,12046
8942,11874
8942,11687
8871,11514
8739,11382
8566,11310
8379,11310
8206,11381
8156,11432
8156,10088
8126,10059
8126,9998
8126,9525
8037,9471
7831,9561
7675,9724
7599,9909
7652,9998
8126,9998
8126,10059
8106,10039
8077,10068
7652,10068
7599,10158
7656,10288
7553,10246
7356,10245
7174,10321
7035,10460
6959,10642
6959,10839
7034,11021
7173,11160
7355,11235
7552,11236
7734,11160
7873,11021
7949,10839
7949,10642
7908,10542
8037,10596
8126,10542
8126,10118
8156,10088
8156,11432
8126,11461
8074,11513
8009,11669
8009,11669
7987,11655
7884,11634
7404,11634
7301,11655
7213,11713
6567,12359
6401,12359
6444,12341
6519,12267
6559,12169
6559,11749
6519,11652
6444,11577
6370,11546
6404,11532
6459,11477
6489,11406
6489,11328
6489,11013
6460,10942
6405,10887
6333,10857
6256,10857
5862,10857
5790,10886
5735,10941
5705,11013
5705,11091
5705,11406
5735,11477
5790,11532
5824,11546
5750,11577
5675,11652
5635,11749
5635,11858
5701,11924
6062,11924
6062,11917
6132,11917
6132,11924
6493,11924
6559,11858
6559,11749
6559,12169
6559,12061
6493,11994
6132,11994
6132,12002
6062,12002
6062,11994
5701,11994
5635,12061
5635,12169
5672,12259
5566,12259
5501,12195
5501,11923
5538,11907
5593,11852
5623,11781
5623,11703
5623,11388
5594,11317
5539,11262
5467,11232
5390,11232
4996,11232
4924,11261
4869,11316
4839,11388
4839,11466
4839,11686
4797,11643
4725,11613
4647,11613
4366,11613
4336,11584
4239,11543
4112,11543
4046,11610
4046,11998
4054,11998
4054,12068
4046,12068
4046,12457
4112,12523
4239,12523
4241,12522
4241,13008
4262,13112
4291,13156
4291,13472
4303,13500
4275,13488
4197,13488
3973,13488
3781,13297
3781,12522
3784,12523
3910,12523
3976,12457
3976,12068
3968,12068
3968,11998
3976,11998
3976,11610
3910,11543
3805,11543
3805,9672
3805,9122
3805,9052
3805,8502
3703,8449
3469,8550
3292,8732
3202,8950
3255,9052
3805,9052
3805,9122
3255,9122
3202,9223
3302,9457
3485,9635
3703,9725
3805,9672
3805,11543
3784,11543
3686,11584
3656,11613
3647,11613
3297,11613
3261,11628
3225,11613
3147,11613
2797,11613
2788,11617
2788,3159
2836,2919
2959,2736
3144,2612
3381,2565
12659,2565
12549,2674
12466,2874
12466,3091
12543,3277
10615,3277
10445,3311
10300,3408
10138,3570
10132,3570
10132,3569
10132,3296
10031,3062
9849,2885
9630,2795
9529,2847
9529,3398
10079,3398
10132,3296
10132,3569
10079,3468
9578,3468
9549,3438
9500,3488
9529,3517
9529,4018
9630,4071
9631,4071
9631,4080
9488,4223
9488,3488
9459,3458
9459,3398
9459,2847
9357,2795
9124,2895
8946,3078
8856,3296
8909,3398
9459,3398
9459,3458
9439,3438
9409,3468
8909,3468
8879,3525
8822,3555
8822,4055
8792,4085
8842,4134
8871,4105
9372,4105
9402,4048
9459,4018
9459,3517
9488,3488
9488,4223
9459,4253
9435,4277
9425,4277
9425,4276
9372,4175
8871,4175
8842,4145
8792,4195
8822,4224
8822,4725
8923,4778
8924,4778
8924,4788
8781,4930
8781,4195
8752,4165
8752,4105
8752,3555
8650,3502
8417,3603
8239,3785
8149,4003
8202,4105
8752,4105
8752,4165
8732,4145
8702,4175
8202,4175
8172,4232
8115,4262
8115,4762
8085,4792
8135,4841
8164,4812
8665,4812
8695,4755
8752,4725
8752,4224
8781,4195
8781,4930
8752,4960
8728,4984
8718,4984
8718,4983
8665,4882
8164,4882
8135,4852
8085,4902
8115,4931
8115,5432
8216,5485
8217,5485
8217,5495
8074,5637
8074,4902
8045,4873
8045,4812
8045,4262
7943,4209
7709,4310
7532,4492
7442,4710
7495,4812
8045,4812
8045,4873
8025,4852
7995,4882
7495,4882
7465,4938
7409,4967
7409,5468
7380,5498
7429,5547
7458,5518
7959,5518
7988,5461
8045,5432
8045,4931
8074,4902
8074,5637
8045,5667
8022,5690
8012,5690
8012,5689
7959,5588
7458,5588
7429,5558
7380,5608
7409,5637
7409,6138
7510,6191
7511,6191
7511,6200
7368,6343
7368,5608
7339,5578
7339,5518
7339,4967
7237,4915
7004,5015
6826,5198
6736,5416
6789,5518
7339,5518
7339,5578
7319,5558
7289,5588
6789,5588
6759,5645
6702,5675
6702,6175
6672,6205
6722,6254
6751,6225
7252,6225
7282,6168
7339,6138
7339,5637
7368,5608
7368,6343
7339,6373
7315,6397
7305,6397
7305,6396
7252,6295
6751,6295
6722,6265
6672,6315
6702,6344
6702,6845
6803,6898
6804,6898
6804,6908
6661,7050
6661,6315
6632,6285
6632,6225
6632,5675
6530,5622
6297,5723
6119,5905
6029,6123
6082,6225
6632,6225
6632,6285
6612,6265
6582,6295
6082,6295
6052,6352
5995,6382
5995,6882
5965,6912
6015,6961
6044,6932
6545,6932
6575,6875
6632,6845
6632,6344
6661,6315
6661,7050
6632,7080
6608,7104
6598,7104
6598,7103
6545,7002
6044,7002
6015,6972
5965,7022
5995,7051
5995,7552
6096,7605
6097,7605
6097,7615
5954,7757
5954,7022
5925,6993
5925,6932
5925,6382
5823,6329
5589,6430
5412,6612
5322,6830
5375,6932
5925,6932
5925,6993
5905,6972
5875,7002
5375,7002
5345,7058
5289,7087
5289,7588
5260,7618
5309,7667
5338,7638
5839,7638
5868,7581
5925,7552
5925,7051
5954,7022
5954,7757
5925,7787
5902,7810
5892,7810
5892,7809
5839,7708
5338,7708
5309,7678
5260,7728
5289,7757
5289,8258
5390,8311
5391,8311
5391,8320
5248,8463
5248,7728
5219,7698
5219,7638
5219,7087
5117,7035
4884,7135
4706,7318
4616,7536
4669,7638
5219,7638
5219,7698
5199,7678
5169,7708
4669,7708
4639,7765
4582,7795
4582,8295
4552,8325
4602,8374
4631,8345
5132,8345
5162,8288
5219,8258
5219,7757
5248,7728
5248,8463
5219,8493
5195,8517
5185,8517
5185,8516
5132,8415
4631,8415
4602,8385
4552,8435
4582,8464
4582,8965
4683,9018
4684,9018
4684,9028
4541,9170
4541,8435
4512,8405
4512,8345
4512,7795
4410,7742
4177,7843
3999,8025
3909,8243
3962,8345
4512,8345
4512,8405
4492,8385
4462,8415
3962,8415
3932,8472
3875,8502
3875,9002
3845,9032
3895,9081
3924,9052
4425,9052
4455,8995
4512,8965
4512,8464
4541,8435
4541,9170
4512,9200
4488,9224
4478,9224
4478,9223
4425,9122
3924,9122
3895,9092
3845,9142
3875,9171
3875,9672
3976,9725
3977,9725
3977,9907
4063,10116
4224,10277
4433,10364
4660,10364
4701,10347
4684,10387
4684,10614
4770,10824
4931,10984
5140,11071
5367,11071
5576,10985
5737,10824
5824,10615
5824,10388
5807,10347
5847,10364
6074,10364
6284,10278
6444,10117
6531,9908
6531,9681
6514,9640
6554,9657
6781,9657
6991,9570
7151,9410
7238,9201
7238,8974
7222,8935
7260,8951
7487,8951
7696,8865
7857,8704
7944,8495
7944,8268
7927,8227
7967,8244
8194,8244
8404,8158
8564,7997
8586,7944
8990,7944
9094,7923
9094,7923
9135,7896
8920,8111
8862,8198
8841,8302
8841,8333
8841,8831
8770,8831
8588,8906
8449,9046
8373,9227
8373,9424
8414,9524
8286,9471
8196,9525
8196,9949
8167,9978
8216,10028
8246,9998
8670,9998
8724,9909
8666,9778
8769,9821
8966,9821
9148,9746
9288,9607
9343,9473
9720,9849
9569,9915
9421,10071
9349,10245
9403,10331
9851,10331
9851,9980
9921,10050
9921,10281
9892,10311
9941,10360
9971,10331
10201,10331
10271,10401
9921,10401
9921,10849
10007,10903
10203,10816
10351,10660
10404,10533
11359,11488
11210,11549
11070,11688
10995,11870
10995,12067
11070,12249
11209,12389
11391,12464
11588,12464
11770,12389
11909,12250
11971,12100
12666,12795
12666,12827
12718,12954
12815,13051
12942,13103
13079,13103
13206,13051
13303,12954
13356,12827
13356,12690
13304,12563
13207,12466
13080,12413
13048,12413
12363,11729
12477,11682
12616,11543
12674,11403
13366,12095
13366,12127
13418,12254
13441,12276
13441,14190
13462,14294
13520,14381
13659,14520
13659,14701
13730,14874
13862,15006
13999,15063
" /> 
</g>
<g style="fill:#A00000; fill-opacity:1.0; 
stroke:#A00000; stroke-width:39.3701; stroke-opacity:1; 
stroke-linecap:round; stroke-linejoin:round;">
<polyline style="fill-rule:evenodd;"
points="15364,8469
15110,8469
15080,8439
15031,8489
15060,8518
15060,8801
14990,8731
14990,8518
15020,8489
14970,8439
14941,8469
14728,8469
14658,8399
14941,8399
14970,8428
15020,8379
14990,8349
14990,8103
14999,8103
15060,8164
15060,8349
15031,8379
15080,8428
15110,8399
15294,8399
15364,8469
" /> 
</g>
<g style="fill:#A00000; fill-opacity:0.0; 
stroke:#A00000; stroke-width:130; stroke-opacity:1; 
stroke-linecap:round; stroke-linejoin:round;">
<polyline fill="none;"
points="15364,8469
15110,8469
15080,8439
15031,8489
15060,8518
15060,8801
14990,8731
14990,8518
15020,8489
14970,8439
14941,8469
14728,8469
14658,8399
14941,8399
14970,8428
15020,8379
14990,8349
14990,8103
14999,8103
15060,8164
15060,8349
15031,8379
15080,8428
15110,8399
15294,8399
15364,8469
" /> 
</g>
<g style="fill:#A00000; fill-opacity:1.0; 
stroke:#A00000; stroke-width:39.3701; stroke-opacity:1; 
stroke-linecap:round; stroke-linejoin:round;">
<polyline style="fill-rule:evenodd;"
points="16288,13617
16159,13671
16020,13810
15945,13992
15944,14189
16020,14371
16159,14510
16273,14557
16203,14628
16200,14634
16152,14518
16013,14378
15831,14303
15634,14302
15452,14378
15373,14457
15373,14022
15319,13936
14871,13936
14871,14384
14956,14438
15153,14351
15301,14196
15373,14022
15373,14457
15313,14517
15237,14699
15237,14711
15201,14703
14795,14703
14795,14703
14774,14707
14691,14724
14604,14782
14604,14782
14538,14848
14599,14702
14599,14515
14535,14360
14541,14366
14715,14438
14801,14384
14801,13986
14830,13956
14801,13927
14801,13866
14801,13418
14715,13364
14519,13451
14371,13606
14299,13781
14353,13866
14801,13866
14801,13927
14781,13907
14751,13936
14353,13936
14299,14022
14379,14203
14223,14138
14041,14138
13981,14079
13981,12276
14003,12254
14056,12127
14056,11990
14004,11863
13907,11766
13780,11713
13748,11713
13060,11026
13184,10975
13323,10836
13377,10706
13566,10895
13566,10927
13618,11054
13715,11151
13842,11203
13979,11203
14106,11151
14203,11054
14256,10927
14256,10790
14204,10663
14107,10566
13980,10513
13948,10513
13757,10323
13891,10268
14030,10129
14087,9992
15980,11884
15980,12092
15852,12220
15780,12393
15780,12580
15851,12753
15984,12885
16077,12924
15938,12924
15810,12796
15637,12724
15450,12724
15277,12795
15145,12927
15073,13100
15073,13287
15137,13442
15131,13436
14956,13364
14871,13418
14871,13817
14842,13846
14891,13896
14920,13866
15319,13866
15373,13781
15293,13599
15449,13664
15636,13664
15809,13593
15938,13464
16135,13464
16288,13617
" /> 
</g>
<g style="fill:#A00000; fill-opacity:0.0; 
stroke:#A00000; stroke-width:130; stroke-opacity:1; 
stroke-linecap:round; stroke-linejoin:round;">
<polyline fill="none;"
points="16288,13617
16159,13671
16020,13810
15945,13992
15944,14189
16020,14371
16159,14510
16273,14557
16203,14628
16200,14634
16152,14518
16013,14378
15831,14303
15634,14302
15452,14378
15373,14457
15373,14022
15319,13936
14871,13936
14871,14384
14956,14438
15153,14351
15301,14196
15373,14022
15373,14457
15313,14517
15237,14699
15237,14711
15201,14703
14795,14703
14795,14703
14774,14707
14691,14724
14604,14782
14604,14782
14538,14848
14599,14702
14599,14515
14535,14360
14541,14366
14715,14438
14801,14384
14801,13986
14830,13956
14801,13927
14801,13866
14801,13418
14715,13364
14519,13451
14371,13606
14299,13781
14353,13866
14801,13866
14801,13927
14781,13907
14751,13936
14353,13936
14299,14022
14379,14203
14223,14138
14041,14138
13981,14079
13981,12276
14003,12254
14056,12127
14056,11990
14004,11863
13907,11766
13780,11713
13748,11713
13060,11026
13184,10975
13323,10836
13377,10706
13566,10895
13566,10927
13618,11054
13715,11151
13842,11203
13979,11203
14106,11151
14203,11054
14256,10927
14256,10790
14204,10663
14107,10566
13980,10513
13948,10513
13757,10323
13891,10268
14030,10129
14087,9992
15980,11884
15980,12092
15852,12220
15780,12393
15780,12580
15851,12753
15984,12885
16077,12924
15938,12924
15810,12796
15637,12724
15450,12724
15277,12795
15145,12927
15073,13100
15073,13287
15137,13442
15131,13436
14956,13364
14871,13418
14871,13817
14842,13846
14891,13896
14920,13866
15319,13866
15373,13781
15293,13599
15449,13664
15636,13664
15809,13593
15938,13464
16135,13464
16288,13617
" /> 
</g>
<g style="fill:#A00000; fill-opacity:1.0; 
stroke:#A00000; stroke-width:39.3701; stroke-opacity:1; 
stroke-linecap:round; stroke-linejoin:round;">
<polyline style="fill-rule:evenodd;"
points="16801,14854
16751,14904
16746,14898
16740,14904
16691,14854
16696,14849
16691,14843
16740,14793
16746,14799
16751,14793
16801,14843
16795,14849
16801,14854
" /> 
</g>
<g style="fill:#A00000; fill-opacity:0.0; 
stroke:#A00000; stroke-width:130; stroke-opacity:1; 
stroke-linecap:round; stroke-linejoin:round;">
<polyline fill="none;"
points="16801,14854
16751,14904
16746,14898
16740,14904
16691,14854
16696,14849
16691,14843
16740,14793
16746,14799
16751,14793
16801,14843
16795,14849
16801,14854
" /> 
</g>
<g style="fill:#A00000; fill-opacity:1.0; 
stroke:#A00000; stroke-width:39.3701; stroke-opacity:1; 
stroke-linecap:round; stroke-linejoin:round;">
<polyline style="fill-rule:evenodd;"
points="21296,14725
21097,14725
21067,14695
21018,14745
21047,14774
21047,15275
21075,15290
21007,15358
21007,14745
20957,14695
20928,14725
20427,14725
20397,14782
20340,14812
20340,15312
20311,15342
20360,15391
20390,15362
20891,15362
20920,15305
20977,15275
20977,14774
21007,14745
21007,15358
20977,15388
20905,15460
20891,15432
20390,15432
20360,15402
20311,15452
20340,15481
20340,15982
20442,16035
20590,15971
20590,17050
20540,17170
20540,17367
20615,17549
20755,17689
20797,17706
20752,17706
20748,17696
20609,17557
20427,17481
20300,17481
20300,15452
20250,15402
20221,15432
19720,15432
19690,15489
19633,15519
19633,16020
19604,16049
19653,16098
19683,16069
20183,16069
20213,16012
20270,15982
20270,15481
20300,15452
20300,17481
20270,17481
20236,17481
20236,16241
20183,16139
19633,16139
19633,16689
19735,16742
19968,16641
20146,16459
20236,16241
20236,17481
20230,17481
20048,17556
19909,17696
19904,17706
19593,17706
19593,16159
19543,16110
19514,16139
19013,16139
18984,16195
18927,16225
18927,16725
18898,16755
18947,16804
18977,16775
19478,16775
19507,16719
19563,16689
19563,16189
19593,16159
19593,17706
19563,17706
19530,17706
19530,16946
19478,16845
18927,16845
18927,17395
19029,17448
19263,17347
19440,17165
19530,16946
19530,17706
18887,17706
18887,16865
18837,16815
18808,16845
18307,16845
18277,16902
18220,16932
18220,17432
18191,17462
18240,17511
18270,17482
18771,17482
18800,17425
18857,17395
18857,16894
18887,16865
18887,17706
18857,17706
18801,17706
18823,17653
18771,17552
18270,17552
18240,17522
18191,17572
18220,17601
18220,18042
18180,18083
18180,17572
18130,17522
18101,17552
17600,17552
17570,17609
17513,17639
17513,18140
17484,18169
17533,18218
17563,18189
18063,18189
18093,18132
18150,18102
18150,17601
18180,17572
18180,18083
18150,18112
18004,18259
17563,18259
17533,18230
17484,18279
17513,18309
17513,18749
17473,18790
17473,18279
17423,18230
17394,18259
16893,18259
16864,18315
16807,18345
16807,18845
16778,18875
16827,18924
16857,18895
17358,18895
17387,18839
17443,18809
17443,18309
17473,18279
17473,18790
17443,18819
17298,18965
16857,18965
16827,18935
16778,18985
16807,19014
16807,19455
16767,19496
16767,18985
16717,18935
16688,18965
16187,18965
16157,19022
16100,19052
16100,19552
16071,19582
16120,19631
16150,19602
16651,19602
16680,19545
16737,19515
16737,19014
16767,18985
16767,19496
16737,19525
16591,19672
16150,19672
16120,19642
16071,19692
16100,19721
16100,20162
16060,20203
16060,19692
16010,19642
15981,19672
15480,19672
15450,19729
15393,19759
15393,20260
15364,20289
15413,20338
15443,20309
15943,20309
15973,20252
16030,20222
16030,19721
16060,19692
16060,20203
16030,20232
15884,20379
15443,20379
15413,20350
15364,20399
15393,20429
15393,20783
15323,20783
15323,20429
15353,20399
15303,20350
15274,20379
14789,20379
14616,20207
14720,20207
14720,20208
14773,20309
15274,20309
15303,20338
15353,20289
15323,20260
15323,19759
15222,19706
15221,19706
15221,19696
15417,19500
15427,19500
15427,19500
15480,19602
15981,19602
16010,19631
16060,19582
16030,19552
16030,19052
15929,18999
15928,18999
15928,18989
16125,18793
16135,18793
16134,18793
16187,18895
16688,18895
16717,18924
16767,18875
16737,18845
16737,18345
16636,18292
16635,18292
16635,18282
16830,18087
16840,18087
16840,18088
16893,18189
17394,18189
17423,18218
17473,18169
17443,18140
17443,17639
17342,17586
17341,17586
17341,17576
17537,17380
17547,17380
17547,17380
17600,17482
18101,17482
18130,17511
18180,17462
18150,17432
18150,16932
18049,16879
18048,16879
18048,16869
18245,16673
18255,16673
18254,16673
18307,16775
18808,16775
18837,16804
18887,16755
18857,16725
18857,16225
18756,16172
18755,16172
18755,16162
18950,15967
18960,15967
18960,15968
19013,16069
19514,16069
19543,16098
19593,16049
19563,16020
19563,15519
19462,15466
19461,15466
19461,15456
19657,15260
19667,15260
19667,15260
19720,15362
20221,15362
20250,15391
20300,15342
20270,15312
20270,14812
20169,14759
20168,14759
20168,14749
20365,14553
20375,14553
20374,14553
20427,14655
20928,14655
20957,14684
21007,14635
20977,14605
20977,14105
20876,14052
20875,14052
20875,14042
20928,13989
21047,14109
21047,14605
21018,14635
21067,14684
21097,14655
21296,14655
21296,14725
" /> 
</g>
<g style="fill:#A00000; fill-opacity:0.0; 
stroke:#A00000; stroke-width:130; stroke-opacity:1; 
stroke-linecap:round; stroke-linejoin:round;">
<polyline fill="none;"
points="21296,14725
21097,14725
21067,14695
21018,14745
21047,14774
21047,15275
21075,15290
21007,15358
21007,14745
20957,14695
20928,14725
20427,14725
20397,14782
20340,14812
20340,15312
20311,15342
20360,15391
20390,15362
20891,15362
20920,15305
20977,15275
20977,14774
21007,14745
21007,15358
20977,15388
20905,15460
20891,15432
20390,15432
20360,15402
20311,15452
20340,15481
20340,15982
20442,16035
20590,15971
20590,17050
20540,17170
20540,17367
20615,17549
20755,17689
20797,17706
20752,17706
20748,17696
20609,17557
20427,17481
20300,17481
20300,15452
20250,15402
20221,15432
19720,15432
19690,15489
19633,15519
19633,16020
19604,16049
19653,16098
19683,16069
20183,16069
20213,16012
20270,15982
20270,15481
20300,15452
20300,17481
20270,17481
20236,17481
20236,16241
20183,16139
19633,16139
19633,16689
19735,16742
19968,16641
20146,16459
20236,16241
20236,17481
20230,17481
20048,17556
19909,17696
19904,17706
19593,17706
19593,16159
19543,16110
19514,16139
19013,16139
18984,16195
18927,16225
18927,16725
18898,16755
18947,16804
18977,16775
19478,16775
19507,16719
19563,16689
19563,16189
19593,16159
19593,17706
19563,17706
19530,17706
19530,16946
19478,16845
18927,16845
18927,17395
19029,17448
19263,17347
19440,17165
19530,16946
19530,17706
18887,17706
18887,16865
18837,16815
18808,16845
18307,16845
18277,16902
18220,16932
18220,17432
18191,17462
18240,17511
18270,17482
18771,17482
18800,17425
18857,17395
18857,16894
18887,16865
18887,17706
18857,17706
18801,17706
18823,17653
18771,17552
18270,17552
18240,17522
18191,17572
18220,17601
18220,18042
18180,18083
18180,17572
18130,17522
18101,17552
17600,17552
17570,17609
17513,17639
17513,18140
17484,18169
17533,18218
17563,18189
18063,18189
18093,18132
18150,18102
18150,17601
18180,17572
18180,18083
18150,18112
18004,18259
17563,18259
17533,18230
17484,18279
17513,18309
17513,18749
17473,18790
17473,18279
17423,18230
17394,18259
16893,18259
16864,18315
16807,18345
16807,18845
16778,18875
16827,18924
16857,18895
17358,18895
17387,18839
17443,18809
17443,18309
17473,18279
17473,18790
17443,18819
17298,18965
16857,18965
16827,18935
16778,18985
16807,19014
16807,19455
16767,19496
16767,18985
16717,18935
16688,18965
16187,18965
16157,19022
16100,19052
16100,19552
16071,19582
16120,19631
16150,19602
16651,19602
16680,19545
16737,19515
16737,19014
16767,18985
16767,19496
16737,19525
16591,19672
16150,19672
16120,19642
16071,19692
16100,19721
16100,20162
16060,20203
16060,19692
16010,19642
15981,19672
15480,19672
15450,19729
15393,19759
15393,20260
15364,20289
15413,20338
15443,20309
15943,20309
15973,20252
16030,20222
16030,19721
16060,19692
16060,20203
16030,20232
15884,20379
15443,20379
15413,20350
15364,20399
15393,20429
15393,20783
15323,20783
15323,20429
15353,20399
15303,20350
15274,20379
14789,20379
14616,20207
14720,20207
14720,20208
14773,20309
15274,20309
15303,20338
15353,20289
15323,20260
15323,19759
15222,19706
15221,19706
15221,19696
15417,19500
15427,19500
15427,19500
15480,19602
15981,19602
16010,19631
16060,19582
16030,19552
16030,19052
15929,18999
15928,18999
15928,18989
16125,18793
16135,18793
16134,18793
16187,18895
16688,18895
16717,18924
16767,18875
16737,18845
16737,18345
16636,18292
16635,18292
16635,18282
16830,18087
16840,18087
16840,18088
16893,18189
17394,18189
17423,18218
17473,18169
17443,18140
17443,17639
17342,17586
17341,17586
17341,17576
17537,17380
17547,17380
17547,17380
17600,17482
18101,17482
18130,17511
18180,17462
18150,17432
18150,16932
18049,16879
18048,16879
18048,16869
18245,16673
18255,16673
18254,16673
18307,16775
18808,16775
18837,16804
18887,16755
18857,16725
18857,16225
18756,16172
18755,16172
18755,16162
18950,15967
18960,15967
18960,15968
19013,16069
19514,16069
19543,16098
19593,16049
19563,16020
19563,15519
19462,15466
19461,15466
19461,15456
19657,15260
19667,15260
19667,15260
19720,15362
20221,15362
20250,15391
20300,15342
20270,15312
20270,14812
20169,14759
20168,14759
20168,14749
20365,14553
20375,14553
20374,14553
20427,14655
20928,14655
20957,14684
21007,14635
20977,14605
20977,14105
20876,14052
20875,14052
20875,14042
20928,13989
21047,14109
21047,14605
21018,14635
21067,14684
21097,14655
21296,14655
21296,14725
" /> 
</g>
<g style="fill:#A00000; fill-opacity:1.0; 
stroke:#A00000; stroke-width:39.3701; stroke-opacity:1; 
stroke-linecap:round; stroke-linejoin:round;">
<polyline style="fill-rule:evenodd;"
points="21331,7991
21250,8113
21216,8283
21216,8939
21211,8934
21114,8893
20987,8893
20963,8918
20963,8151
20891,7978
20759,7846
20587,7774
20400,7774
20227,7846
20095,7978
20023,8150
20023,8337
20094,8510
20226,8642
20399,8714
20586,8714
20759,8643
20891,8511
20963,8338
20963,8151
20963,8918
20921,8960
20921,9398
20929,9398
20929,9468
20921,9468
20921,9907
20987,9973
21114,9973
21211,9933
21216,9928
21216,10183
21216,10233
21216,10999
21129,11086
21060,10917
20928,10785
20851,10753
20851,9907
20851,9468
20851,9398
20851,8960
20785,8893
20659,8893
20561,8934
20487,9008
20446,9105
20446,9211
20446,9332
20512,9398
20851,9398
20851,9468
20512,9468
20446,9535
20446,9656
20446,9761
20487,9859
20561,9933
20659,9973
20785,9973
20851,9907
20851,10753
20755,10713
20568,10713
20539,10725
20539,10226
20499,10129
20425,10054
20339,9969
20245,9969
20006,10208
20316,10518
20410,10518
20499,10429
20539,10332
20539,10226
20539,10725
20395,10785
20266,10913
19983,10913
19933,10864
19939,10848
19939,10777
19974,10791
20080,10791
20177,10751
20266,10662
20266,10568
19956,10258
19951,10263
19901,10214
19907,10208
19901,10203
19951,10153
19956,10159
20196,9919
20196,9825
20110,9740
20035,9665
19938,9625
19901,9625
19901,9513
19882,9420
20052,9350
20184,9218
20256,9045
20256,8858
20184,8686
20052,8553
19880,8481
19693,8481
19520,8553
19387,8685
19328,8828
18871,8372
18871,7281
18893,7259
18946,7132
18946,6995
18894,6868
18797,6771
18670,6718
18533,6718
18406,6771
18309,6868
18256,6994
18256,7132
18308,7259
18331,7281
18331,8483
18341,8531
16631,6822
16681,6801
16778,6704
16831,6577
16831,6440
16779,6313
16682,6216
16555,6163
16523,6163
16206,5847
16206,5815
16154,5688
16057,5591
15930,5538
15793,5538
15666,5591
15569,5688
15532,5777
15461,5763
15153,5763
15234,5682
15306,5510
15306,5323
15235,5150
15103,5018
14948,4953
15136,4953
15144,4975
15276,5107
15449,5179
15636,5179
15809,5107
15941,4975
16013,4803
16013,4616
15942,4443
15810,4311
15716,4272
15856,4272
15984,4400
16156,4472
16343,4472
16516,4400
16648,4268
16720,4096
16720,3909
16649,3736
16517,3603
16423,3565
16563,3565
16691,3693
16863,3764
17050,3765
17223,3693
17355,3561
17427,3388
17427,3267
21228,7067
21107,7067
20934,7138
20802,7271
20730,7443
20730,7630
20801,7803
20933,7935
21106,8007
21293,8007
21331,7991
" /> 
</g>
<g style="fill:#A00000; fill-opacity:0.0; 
stroke:#A00000; stroke-width:130; stroke-opacity:1; 
stroke-linecap:round; stroke-linejoin:round;">
<polyline fill="none;"
points="21331,7991
21250,8113
21216,8283
21216,8939
21211,8934
21114,8893
20987,8893
20963,8918
20963,8151
20891,7978
20759,7846
20587,7774
20400,7774
20227,7846
20095,7978
20023,8150
20023,8337
20094,8510
20226,8642
20399,8714
20586,8714
20759,8643
20891,8511
20963,8338
20963,8151
20963,8918
20921,8960
20921,9398
20929,9398
20929,9468
20921,9468
20921,9907
20987,9973
21114,9973
21211,9933
21216,9928
21216,10183
21216,10233
21216,10999
21129,11086
21060,10917
20928,10785
20851,10753
20851,9907
20851,9468
20851,9398
20851,8960
20785,8893
20659,8893
20561,8934
20487,9008
20446,9105
20446,9211
20446,9332
20512,9398
20851,9398
20851,9468
20512,9468
20446,9535
20446,9656
20446,9761
20487,9859
20561,9933
20659,9973
20785,9973
20851,9907
20851,10753
20755,10713
20568,10713
20539,10725
20539,10226
20499,10129
20425,10054
20339,9969
20245,9969
20006,10208
20316,10518
20410,10518
20499,10429
20539,10332
20539,10226
20539,10725
20395,10785
20266,10913
19983,10913
19933,10864
19939,10848
19939,10777
19974,10791
20080,10791
20177,10751
20266,10662
20266,10568
19956,10258
19951,10263
19901,10214
19907,10208
19901,10203
19951,10153
19956,10159
20196,9919
20196,9825
20110,9740
20035,9665
19938,9625
19901,9625
19901,9513
19882,9420
20052,9350
20184,9218
20256,9045
20256,8858
20184,8686
20052,8553
19880,8481
19693,8481
19520,8553
19387,8685
19328,8828
18871,8372
18871,7281
18893,7259
18946,7132
18946,6995
18894,6868
18797,6771
18670,6718
18533,6718
18406,6771
18309,6868
18256,6994
18256,7132
18308,7259
18331,7281
18331,8483
18341,8531
16631,6822
16681,6801
16778,6704
16831,6577
16831,6440
16779,6313
16682,6216
16555,6163
16523,6163
16206,5847
16206,5815
16154,5688
16057,5591
15930,5538
15793,5538
15666,5591
15569,5688
15532,5777
15461,5763
15153,5763
15234,5682
15306,5510
15306,5323
15235,5150
15103,5018
14948,4953
15136,4953
15144,4975
15276,5107
15449,5179
15636,5179
15809,5107
15941,4975
16013,4803
16013,4616
15942,4443
15810,4311
15716,4272
15856,4272
15984,4400
16156,4472
16343,4472
16516,4400
16648,4268
16720,4096
16720,3909
16649,3736
16517,3603
16423,3565
16563,3565
16691,3693
16863,3764
17050,3765
17223,3693
17355,3561
17427,3388
17427,3267
21228,7067
21107,7067
20934,7138
20802,7271
20730,7443
20730,7630
20801,7803
20933,7935
21106,8007
21293,8007
21331,7991
" /> 
</g>
<g style="fill:#A00000; fill-opacity:1.0; 
stroke:#A00000; stroke-width:39.3701; stroke-opacity:1; 
stroke-linecap:round; stroke-linejoin:round;">
<polyline style="fill-rule:evenodd;"
points="21581,21042
21249,21373
19022,21373
19000,21319
18945,21264
18779,21098
18793,21098
19006,21312
19078,21341
19156,21341
19227,21312
19282,21257
19530,21010
19559,20938
19559,20860
19530,20789
19475,20734
19184,20443
19184,19815
19194,19810
19333,19671
19409,19489
19409,19292
19334,19110
19195,18971
19152,18953
19197,18953
19201,18963
19340,19103
19522,19178
19719,19178
19901,19103
20040,18964
20045,18953
20747,18953
20976,19182
21048,19212
21125,19212
21197,19182
21252,19127
21499,18880
21529,18808
21529,18731
21500,18659
21445,18604
21087,18246
21101,18246
21117,18263
21506,18652
21578,18681
21581,18681
21581,21042
" /> 
</g>
<g style="fill:#A00000; fill-opacity:0.0; 
stroke:#A00000; stroke-width:130; stroke-opacity:1; 
stroke-linecap:round; stroke-linejoin:round;">
<polyline fill="none;"
points="21581,21042
21249,21373
19022,21373
19000,21319
18945,21264
18779,21098
18793,21098
19006,21312
19078,21341
19156,21341
19227,21312
19282,21257
19530,21010
19559,20938
19559,20860
19530,20789
19475,20734
19184,20443
19184,19815
19194,19810
19333,19671
19409,19489
19409,19292
19334,19110
19195,18971
19152,18953
19197,18953
19201,18963
19340,19103
19522,19178
19719,19178
19901,19103
20040,18964
20045,18953
20747,18953
20976,19182
21048,19212
21125,19212
21197,19182
21252,19127
21499,18880
21529,18808
21529,18731
21500,18659
21445,18604
21087,18246
21101,18246
21117,18263
21506,18652
21578,18681
21581,18681
21581,21042
" /> 
</g>
<g style="fill:#A00000; fill-opacity:1.0; 
stroke:#A00000; stroke-width:39.3701; stroke-opacity:1; 
stroke-linecap:round; stroke-linejoin:round;">
<polyline style="fill-rule:evenodd;"
points="22044,13847
21978,13781
21106,12909
21106,12368
21137,12336
21196,12478
21295,12500
21612,12183
21606,12178
21655,12128
21661,12134
21667,12128
21716,12178
21711,12183
21716,12189
21667,12238
21661,12233
21344,12550
21366,12648
21567,12726
21782,12721
21956,12648
21978,12550
21978,12550
22025,12597
22044,12577
22044,13847
" /> 
</g>
<g style="fill:#A00000; fill-opacity:0.0; 
stroke:#A00000; stroke-width:130; stroke-opacity:1; 
stroke-linecap:round; stroke-linejoin:round;">
<polyline fill="none;"
points="22044,13847
21978,13781
21106,12909
21106,12368
21137,12336
21196,12478
21295,12500
21612,12183
21606,12178
21655,12128
21661,12134
21667,12128
21716,12178
21711,12183
21716,12189
21667,12238
21661,12233
21344,12550
21366,12648
21567,12726
21782,12721
21956,12648
21978,12550
21978,12550
22025,12597
22044,12577
22044,13847
" /> 
</g>
<g style="fill:#A00000; fill-opacity:1.0; 
stroke:#A00000; stroke-width:39.3701; stroke-opacity:1; 
stroke-linecap:round; stroke-linejoin:round;">
<polyline style="fill-rule:evenodd;"
points="22044,18163
22030,18129
21975,18074
21586,17685
21514,17655
21437,17655
21365,17685
21344,17706
21274,17706
21315,17689
21455,17550
21530,17368
21530,17171
21489,17071
21618,17125
21707,17071
21707,16647
21737,16617
21687,16568
21658,16597
21480,16597
21480,16527
21658,16527
21687,16556
21737,16507
21707,16478
21707,16053
21622,16002
22044,15580
22044,16073
21867,16000
21777,16053
21777,16478
21748,16507
21797,16556
21827,16527
22044,16527
22044,16597
21827,16597
21797,16568
21748,16617
21777,16647
21777,17071
21867,17125
22044,17047
22044,18163
" /> 
</g>
<g style="fill:#A00000; fill-opacity:0.0; 
stroke:#A00000; stroke-width:130; stroke-opacity:1; 
stroke-linecap:round; stroke-linejoin:round;">
<polyline fill="none;"
points="22044,18163
22030,18129
21975,18074
21586,17685
21514,17655
21437,17655
21365,17685
21344,17706
21274,17706
21315,17689
21455,17550
21530,17368
21530,17171
21489,17071
21618,17125
21707,17071
21707,16647
21737,16617
21687,16568
21658,16597
21480,16597
21480,16527
21658,16527
21687,16556
21737,16507
21707,16478
21707,16053
21622,16002
22044,15580
22044,16073
21867,16000
21777,16053
21777,16478
21748,16507
21797,16556
21827,16527
22044,16527
22044,16597
21827,16597
21797,16568
21748,16617
21777,16647
21777,17071
21867,17125
22044,17047
22044,18163
" /> 
</g>
<g style="fill:#FFFFFF; fill-opacity:0.0; 
stroke:#FFFFFF; stroke-width:39.3701; stroke-opacity:1; 
stroke-linecap:round; stroke-linejoin:round;">
</g>
<g style="fill:#FFFFFF; fill-opacity:1.0; 
stroke:#FFFFFF; stroke-width:39.3701; stroke-opacity:1; 
stroke-linecap:round; stroke-linejoin:round;">
<circle cx="10636.6" cy="11833.9" r="80.315" /> 
<circle cx="19886.6" cy="6958.87" r="80.315" /> 
<circle cx="17686.6" cy="4758.87" r="80.315" /> 
<circle cx="9111.57" cy="20183.9" r="80.315" /> 
<circle cx="20361.6" cy="9833.87" r="80.315" /> 
<circle cx="15586.6" cy="9708.87" r="80.315" /> 
<circle cx="15761.6" cy="8483.87" r="80.315" /> 
<circle cx="5649.07" cy="15321.4" r="80.315" /> 
<circle cx="13011.6" cy="12758.9" r="80.315" /> 
<circle cx="13911.6" cy="10858.9" r="80.315" /> 
<circle cx="13444.6" cy="5624.9" r="80.315" /> 
<circle cx="13781.6" cy="19753.9" r="80.315" /> 
<circle cx="11871.6" cy="15903.9" r="80.315" /> 
<circle cx="18601.6" cy="7063.87" r="80.315" /> 
<circle cx="13711.6" cy="12058.9" r="80.315" /> 
<circle cx="15861.6" cy="5883.87" r="80.315" /> 
<circle cx="16486.6" cy="6508.87" r="80.315" /> 
<circle cx="3711.57" cy="18033.9" r="80.315" /> 
<circle cx="21661.6" cy="12183.9" r="140.315" /> 
<circle cx="20661.6" cy="12183.9" r="140.315" /> 
<circle cx="20661.6" cy="11183.9" r="140.315" /> 
<circle cx="12911.6" cy="20363.9" r="140.315" /> 
<circle cx="11911.6" cy="20363.9" r="140.315" /> 
<circle cx="16957.8" cy="3295.04" r="140.315" /> 
<circle cx="16250.7" cy="4002.14" r="140.315" /> 
<circle cx="15543.5" cy="4709.25" r="140.315" /> 
<circle cx="14836.4" cy="5416.36" r="140.315" /> 
<circle cx="14129.3" cy="6123.46" r="140.315" /> 
<circle cx="13422.2" cy="6830.57" r="140.315" /> 
<circle cx="12715.1" cy="7537.68" r="140.315" /> 
<circle cx="12008" cy="8244.78" r="140.315" /> 
<circle cx="11300.9" cy="8951.89" r="140.315" /> 
<circle cx="10593.8" cy="9659" r="140.315" /> 
<circle cx="9886.69" cy="10366.1" r="140.315" /> 
<circle cx="9179.59" cy="11073.2" r="140.315" /> 
<circle cx="8472.48" cy="11780.3" r="140.315" /> 
<circle cx="7765.37" cy="12487.4" r="140.315" /> 
<circle cx="7058.27" cy="13194.5" r="140.315" /> 
<circle cx="6351.16" cy="13901.6" r="140.315" /> 
<circle cx="5644.05" cy="14608.7" r="140.315" /> 
<circle cx="4936.95" cy="15315.9" r="140.315" /> 
<circle cx="4229.84" cy="16023" r="140.315" /> 
<circle cx="3522.73" cy="16730.1" r="140.315" /> 
<circle cx="7765.37" cy="20972.7" r="140.315" /> 
<circle cx="8472.48" cy="20265.6" r="140.315" /> 
<circle cx="9179.59" cy="19558.5" r="140.315" /> 
<circle cx="9886.69" cy="18851.4" r="140.315" /> 
<circle cx="10593.8" cy="18144.3" r="140.315" /> 
<circle cx="11300.9" cy="17437.2" r="140.315" /> 
<circle cx="12008" cy="16730.1" r="140.315" /> 
<circle cx="12715.1" cy="16023" r="140.315" /> 
<circle cx="13422.2" cy="15315.9" r="140.315" /> 
<circle cx="14129.3" cy="14608.7" r="140.315" /> 
<circle cx="14836.4" cy="13901.6" r="140.315" /> 
<circle cx="15543.5" cy="13194.5" r="140.315" /> 
<circle cx="16250.7" cy="12487.4" r="140.315" /> 
<circle cx="16957.8" cy="11780.3" r="140.315" /> 
<circle cx="17664.9" cy="11073.2" r="140.315" /> 
<circle cx="18372" cy="10366.1" r="140.315" /> 
<circle cx="19079.1" cy="9659" r="140.315" /> 
<circle cx="19786.2" cy="8951.89" r="140.315" /> 
<circle cx="20493.3" cy="8244.78" r="140.315" /> 
<circle cx="21200.4" cy="7537.68" r="140.315" /> 
<circle cx="13011.6" cy="2983.87" r="180.315" /> 
<circle cx="12011.6" cy="2983.87" r="180.315" /> 
<circle cx="7454.46" cy="10741" r="180.315" /> 
<circle cx="8161.57" cy="10033.9" r="180.315" /> 
<circle cx="8868.67" cy="9326.76" r="180.315" /> 
<circle cx="16793.1" cy="21512.3" r="180.315" /> 
<circle cx="17500.2" cy="20805.2" r="180.315" /> 
<circle cx="18207.4" cy="20098.1" r="180.315" /> 
<circle cx="18914.5" cy="19391" r="180.315" /> 
<circle cx="19621.6" cy="18683.9" r="180.315" /> 
<circle cx="20328.7" cy="17976.8" r="180.315" /> 
<circle cx="21035.8" cy="17269.7" r="180.315" /> 
<circle cx="21742.9" cy="16562.6" r="180.315" /> 
<circle cx="20684.4" cy="20460.6" r="580.315" /> 
<circle cx="4148.97" cy="3925.21" r="580.315" /> 
<circle cx="19500.9" cy="3530.32" r="180.315" /> 
<circle cx="20208" cy="2823.21" r="180.315" /> 
<circle cx="20208" cy="4237.43" r="180.315" /> 
<circle cx="20915.1" cy="3530.32" r="180.315" /> 
<circle cx="20915.1" cy="4944.53" r="180.315" /> 
<circle cx="21622.2" cy="4237.43" r="180.315" /> 
<circle cx="5122.23" cy="20887.4" r="180.315" /> 
<circle cx="4415.12" cy="21594.5" r="180.315" /> 
<circle cx="4415.12" cy="20180.3" r="180.315" /> 
<circle cx="3708.01" cy="20887.4" r="180.315" /> 
<circle cx="3708.01" cy="19473.2" r="180.315" /> 
<circle cx="3000.91" cy="20180.3" r="180.315" /> 
<circle cx="4511.57" cy="12033.9" r="120.315" /> 
<circle cx="4011.57" cy="12033.9" r="120.315" /> 
<circle cx="3511.57" cy="12033.9" r="120.315" /> 
<circle cx="3011.57" cy="12033.9" r="120.315" /> 
<circle cx="8661.82" cy="14798.1" r="180.315" /> 
<circle cx="9368.93" cy="14091" r="180.315" /> 
<circle cx="10076" cy="13383.9" r="180.315" /> 
<circle cx="10783.1" cy="12676.8" r="180.315" /> 
<circle cx="11490.2" cy="11969.7" r="180.315" /> 
<circle cx="12197.4" cy="11262.6" r="180.315" /> 
<circle cx="12904.5" cy="10555.4" r="180.315" /> 
<circle cx="13611.6" cy="9848.34" r="180.315" /> 
<circle cx="14318.7" cy="9141.23" r="180.315" /> 
<circle cx="15025.8" cy="8434.12" r="180.315" /> 
<circle cx="18561.3" cy="11969.7" r="180.315" /> 
<circle cx="17854.2" cy="12676.8" r="180.315" /> 
<circle cx="17147.1" cy="13383.9" r="180.315" /> 
<circle cx="16440" cy="14091" r="180.315" /> 
<circle cx="15732.9" cy="14798.1" r="180.315" /> 
<circle cx="15025.8" cy="15505.2" r="180.315" /> 
<circle cx="14318.7" cy="16212.3" r="180.315" /> 
<circle cx="13611.6" cy="16919.4" r="180.315" /> 
<circle cx="12904.5" cy="17626.5" r="180.315" /> 
<circle cx="12197.4" cy="18333.6" r="180.315" /> 
<circle cx="7374.46" cy="8381.64" r="230.315" /> 
<circle cx="8081.57" cy="7674.53" r="230.315" /> 
<circle cx="8788.67" cy="6967.43" r="230.315" /> 
<circle cx="6667.35" cy="7674.53" r="230.315" /> 
<circle cx="7374.46" cy="6967.43" r="230.315" /> 
<circle cx="8081.57" cy="6260.32" r="230.315" /> 
<circle cx="5960.25" cy="6967.43" r="230.315" /> 
<circle cx="6667.35" cy="6260.32" r="230.315" /> 
<circle cx="7374.46" cy="5553.21" r="230.315" /> 
<circle cx="9494.46" cy="6261.64" r="230.315" /> 
<circle cx="10201.6" cy="5554.53" r="230.315" /> 
<circle cx="10908.7" cy="4847.43" r="230.315" /> 
<circle cx="8787.35" cy="5554.53" r="230.315" /> 
<circle cx="9494.46" cy="4847.43" r="230.315" /> 
<circle cx="10201.6" cy="4140.32" r="230.315" /> 
<circle cx="8080.25" cy="4847.43" r="230.315" /> 
<circle cx="8787.35" cy="4140.32" r="230.315" /> 
<circle cx="9494.46" cy="3433.21" r="230.315" /> 
<circle cx="5254.46" cy="10501.6" r="230.315" /> 
<circle cx="5961.57" cy="9794.53" r="230.315" /> 
<circle cx="6668.67" cy="9087.43" r="230.315" /> 
<circle cx="4547.35" cy="9794.53" r="230.315" /> 
<circle cx="5254.46" cy="9087.43" r="230.315" /> 
<circle cx="5961.57" cy="8380.32" r="230.315" /> 
<circle cx="3840.25" cy="9087.43" r="230.315" /> 
<circle cx="4547.35" cy="8380.32" r="230.315" /> 
<circle cx="5254.46" cy="7673.21" r="230.315" /> 
<circle cx="19598.7" cy="13276.1" r="230.315" /> 
<circle cx="18891.6" cy="13983.2" r="230.315" /> 
<circle cx="18184.5" cy="14690.3" r="230.315" /> 
<circle cx="20305.8" cy="13983.2" r="230.315" /> 
<circle cx="19598.7" cy="14690.3" r="230.315" /> 
<circle cx="18891.6" cy="15397.4" r="230.315" /> 
<circle cx="21012.9" cy="14690.3" r="230.315" /> 
<circle cx="20305.8" cy="15397.4" r="230.315" /> 
<circle cx="19598.7" cy="16104.5" r="230.315" /> 
<circle cx="17478.7" cy="15396.1" r="230.315" /> 
<circle cx="16771.6" cy="16103.2" r="230.315" /> 
<circle cx="16064.5" cy="16810.3" r="230.315" /> 
<circle cx="18185.8" cy="16103.2" r="230.315" /> 
<circle cx="17478.7" cy="16810.3" r="230.315" /> 
<circle cx="16771.6" cy="17517.4" r="230.315" /> 
<circle cx="18892.9" cy="16810.3" r="230.315" /> 
<circle cx="18185.8" cy="17517.4" r="230.315" /> 
<circle cx="17478.7" cy="18224.5" r="230.315" /> 
<circle cx="15358.7" cy="17516.1" r="230.315" /> 
<circle cx="14651.6" cy="18223.2" r="230.315" /> 
<circle cx="13944.5" cy="18930.3" r="230.315" /> 
<circle cx="16065.8" cy="18223.2" r="230.315" /> 
<circle cx="15358.7" cy="18930.3" r="230.315" /> 
<circle cx="14651.6" cy="19637.4" r="230.315" /> 
<circle cx="16772.9" cy="18930.3" r="230.315" /> 
<circle cx="16065.8" cy="19637.4" r="230.315" /> 
<circle cx="15358.7" cy="20344.5" r="230.315" /> 
</g> 
</svg>
