999
dxflib 3.3.4.0
  0
SECTION
  2
HEADER
  9
$ACADVER
  1
AC1015
  9
$HANDSEED
  5
FFFF
  9
$DIMADEC
 70
0
  9
$DIMASZ
 40
5.0
  9
$DIMAUNIT
 70
0
  9
$DIMAZIN
 70
2
  9
$DIMDEC
 70
2
  9
$DIMEXE
 40
2.5
  9
$DIMEXO
 40
1.25
  9
$DIMGAP
 40
1.25
  9
$DIMLUNIT
 70
4
  9
$DIMTSZ
 40
5.0
  9
$DIMTXT
 40
5.0
  9
$DIMZIN
 70
8
  9
$DWGCODEPAGE
  3
ANSI_1252
  9
$INSUNITS
 70
1
  9
$LTSCALE
 40
1.0
  0
ENDSEC
  0
SECTION
  2
TABLES
  0
TABLE
  2
VPORT
  5
8
100
AcDbSymbolTable
 70
1
  0
VPORT
  5
30
100
AcDbSymbolTableRecord
100
AcDbViewportTableRecord
  2
*Active
 70
0
 10
0.0
 20
0.0
 11
1.0
 21
1.0
 12
286.3055555555554861
 22
148.5
 13
0.0
 23
0.0
 14
10.0
 24
10.0
 15
10.0
 25
10.0
 16
0.0
 26
0.0
 36
1.0
 17
0.0
 27
0.0
 37
0.0
 40
297.0
 41
1.92798353909465
 42
50.0
 43
0.0
 44
0.0
 50
0.0
 51
0.0
 71
0
 72
100
 73
1
 74
3
 75
1
 76
1
 77
0
 78
0
281
0
 65
1
110
0.0
120
0.0
130
0.0
111
1.0
121
0.0
131
0.0
112
0.0
122
1.0
132
0.0
 79
0
146
0.0
  0
ENDTAB
  0
TABLE
  2
LTYPE
  5
5
100
AcDbSymbolTable
 70
21
  0
LTYPE
  5
16
100
AcDbSymbolTableRecord
100
AcDbLinetypeTableRecord
  2
CONTINUOUS
 70
0
  3
Solid line
 72
65
 73
0
 40
0.0
  0
LTYPE
  5
31
100
AcDbSymbolTableRecord
100
AcDbLinetypeTableRecord
  2
CENTER2
 70
0
  3
Center (.5x) ___ _ ___ _ ___ _ ___ _ ___ _ ___
 72
65
 73
4
 40
28.5749999999999993
 49
19.0500000000000007
 74
0
 49
-3.1749999999999998
 74
0
 49
3.1749999999999998
 74
0
 49
-3.1749999999999998
 74
0
  0
LTYPE
  5
32
100
AcDbSymbolTableRecord
100
AcDbLinetypeTableRecord
  2
DIVIDEX2
 70
0
  3
Divide (2x) ________  .  .  ________  .  .  _
 72
65
 73
6
 40
63.5
 49
25.3999999999999986
 74
0
 49
-12.6999999999999993
 74
0
 49
0.0
 74
0
 49
-12.6999999999999993
 74
0
 49
0.0
 74
0
 49
-12.6999999999999993
 74
0
  0
LTYPE
  5
33
100
AcDbSymbolTableRecord
100
AcDbLinetypeTableRecord
  2
DOT2
 70
0
  3
Dot (.5x) .....................................
 72
65
 73
2
 40
3.1749999999999998
 49
0.0
 74
0
 49
-3.1749999999999998
 74
0
  0
LTYPE
  5
34
100
AcDbSymbolTableRecord
100
AcDbLinetypeTableRecord
  2
DASHDOT2
 70
0
  3
Dash dot (.5x) _._._._._._._._._._._._._._._.
 72
65
 73
4
 40
12.6999999999999993
 49
6.3499999999999996
 74
0
 49
-3.1749999999999998
 74
0
 49
0.0
 74
0
 49
-3.1749999999999998
 74
0
  0
LTYPE
  5
35
100
AcDbSymbolTableRecord
100
AcDbLinetypeTableRecord
  2
DIVIDE
 70
0
  3
Divide ____ . . ____ . . ____ . . ____ . . ____
 72
65
 73
6
 40
31.75
 49
12.6999999999999993
 74
0
 49
-6.3499999999999996
 74
0
 49
0.0
 74
0
 49
-6.3499999999999996
 74
0
 49
0.0
 74
0
 49
-6.3499999999999996
 74
0
  0
LTYPE
  5
36
100
AcDbSymbolTableRecord
100
AcDbLinetypeTableRecord
  2
DASHDOT
 70
0
  3
Dash dot __ . __ . __ . __ . __ . __ . __ . __
 72
65
 73
4
 40
25.3999999999999986
 49
12.6999999999999993
 74
0
 49
-6.3499999999999996
 74
0
 49
0.0
 74
0
 49
-6.3499999999999996
 74
0
  0
LTYPE
  5
37
100
AcDbSymbolTableRecord
100
AcDbLinetypeTableRecord
  2
BORDER
 70
0
  3
Border __ __ . __ __ . __ __ . __ __ . __ __ .
 72
65
 73
6
 40
44.4500000000000028
 49
12.6999999999999993
 74
0
 49
-6.3499999999999996
 74
0
 49
12.6999999999999993
 74
0
 49
-6.3499999999999996
 74
0
 49
0.0
 74
0
 49
-6.3499999999999996
 74
0
  0
LTYPE
  5
38
100
AcDbSymbolTableRecord
100
AcDbLinetypeTableRecord
  2
DASHDOTX2
 70
0
  3
Dash dot (2x) ____  .  ____  .  ____  .  ___
 72
65
 73
4
 40
50.7999999999999972
 49
25.3999999999999986
 74
0
 49
-12.6999999999999993
 74
0
 49
0.0
 74
0
 49
-12.6999999999999993
 74
0
  0
LTYPE
  5
39
100
AcDbSymbolTableRecord
100
AcDbLinetypeTableRecord
  2
CENTERX2
 70
0
  3
Center (2x) ________  __  ________  __  _____
 72
65
 73
4
 40
101.5999999999999943
 49
63.5
 74
0
 49
-12.6999999999999993
 74
0
 49
12.6999999999999993
 74
0
 49
-12.6999999999999993
 74
0
  0
LTYPE
  5
3A
100
AcDbSymbolTableRecord
100
AcDbLinetypeTableRecord
  2
BORDER2
 70
0
  3
Border (.5x) __.__.__.__.__.__.__.__.__.__.__.
 72
65
 73
6
 40
22.2250000000000014
 49
6.3499999999999996
 74
0
 49
-3.1749999999999998
 74
0
 49
6.3499999999999996
 74
0
 49
-3.1749999999999998
 74
0
 49
0.0
 74
0
 49
-3.1749999999999998
 74
0
  0
LTYPE
  5
3B
100
AcDbSymbolTableRecord
100
AcDbLinetypeTableRecord
  2
BORDERX2
 70
0
  3
Border (2x) ____  ____  .  ____  ____  .  ___
 72
65
 73
6
 40
88.9000000000000057
 49
25.3999999999999986
 74
0
 49
-12.6999999999999993
 74
0
 49
25.3999999999999986
 74
0
 49
-12.6999999999999993
 74
0
 49
0.0
 74
0
 49
-12.6999999999999993
 74
0
  0
LTYPE
  5
14
100
AcDbSymbolTableRecord
100
AcDbLinetypeTableRecord
  2
BYBLOCK
 70
0
  3

 72
65
 73
0
 40
0.0
  0
LTYPE
  5
15
100
AcDbSymbolTableRecord
100
AcDbLinetypeTableRecord
  2
BYLAYER
 70
0
  3

 72
65
 73
0
 40
0.0
  0
LTYPE
  5
3C
100
AcDbSymbolTableRecord
100
AcDbLinetypeTableRecord
  2
DASHED2
 70
0
  3
Dashed (.5x) _ _ _ _ _ _ _ _ _ _ _ _ _ _ _ _ _
 72
65
 73
2
 40
9.5250000000000004
 49
6.3499999999999996
 74
0
 49
-3.1749999999999998
 74
0
  0
LTYPE
  5
3D
100
AcDbSymbolTableRecord
100
AcDbLinetypeTableRecord
  2
CENTER
 70
0
  3
Center ____ _ ____ _ ____ _ ____ _ ____ _ ____
 72
65
 73
4
 40
50.7999999999999972
 49
31.75
 74
0
 49
-6.3499999999999996
 74
0
 49
6.3499999999999996
 74
0
 49
-6.3499999999999996
 74
0
  0
LTYPE
  5
3E
100
AcDbSymbolTableRecord
100
AcDbLinetypeTableRecord
  2
DIVIDE2
 70
0
  3
Divide (.5x) __..__..__..__..__..__..__..__.._
 72
65
 73
6
 40
15.875
 49
6.3499999999999996
 74
0
 49
-3.1749999999999998
 74
0
 49
0.0
 74
0
 49
-3.1749999999999998
 74
0
 49
0.0
 74
0
 49
-3.1749999999999998
 74
0
  0
LTYPE
  5
3F
100
AcDbSymbolTableRecord
100
AcDbLinetypeTableRecord
  2
DASHED
 70
0
  3
Dashed __ __ __ __ __ __ __ __ __ __ __ __ __ _
 72
65
 73
2
 40
19.0500000000000007
 49
12.6999999999999993
 74
0
 49
-6.3499999999999996
 74
0
  0
LTYPE
  5
40
100
AcDbSymbolTableRecord
100
AcDbLinetypeTableRecord
  2
DOTX2
 70
0
  3
Dot (2x) .  .  .  .  .  .  .  .  .  .  .  .  .
 72
65
 73
2
 40
12.6999999999999993
 49
0.0
 74
0
 49
-12.6999999999999993
 74
0
  0
LTYPE
  5
41
100
AcDbSymbolTableRecord
100
AcDbLinetypeTableRecord
  2
DASHEDX2
 70
0
  3
Dashed (2x) ____  ____  ____  ____  ____  ___
 72
65
 73
2
 40
38.1000000000000014
 49
25.3999999999999986
 74
0
 49
-12.6999999999999993
 74
0
  0
LTYPE
  5
42
100
AcDbSymbolTableRecord
100
AcDbLinetypeTableRecord
  2
DOT
 70
0
  3
Dot . . . . . . . . . . . . . . . . . . . . . .
 72
65
 73
2
 40
6.3499999999999996
 49
0.0
 74
0
 49
-6.3499999999999996
 74
0
  0
ENDTAB
  0
TABLE
  2
LAYER
  5
2
100
AcDbSymbolTable
 70
7
  0
LAYER
  5
43
100
AcDbSymbolTableRecord
100
AcDbLayerTableRecord
  2
electrical
 70
0
 62
1
420
16711680
  6
CONTINUOUS
370
25
390
F
  0
LAYER
  5
44
100
AcDbSymbolTableRecord
100
AcDbLayerTableRecord
  2
baseboard
 70
1
 62
-5
420
255
  6
CONTINUOUS
370
25
390
F
  0
LAYER
  5
45
100
AcDbSymbolTableRecord
100
AcDbLayerTableRecord
  2
dimensions
 70
0
 62
252
420
10526884
  6
CONTINUOUS
370
25
390
F
  0
LAYER
  5
46
100
AcDbSymbolTableRecord
100
AcDbLayerTableRecord
  2
tile_area
 70
1
 62
-7
420
0
  6
CONTINUOUS
370
25
390
F
  0
LAYER
  5
47
100
AcDbSymbolTableRecord
100
AcDbLayerTableRecord
  2
railing
 70
1
 62
-7
420
0
  6
DIVIDE
370
-3
390
F
  0
LAYER
  5
48
100
AcDbSymbolTableRecord
100
AcDbLayerTableRecord
  2
hardwood_area
 70
1
 62
-7
420
0
  6
CONTINUOUS
370
25
390
F
  0
LAYER
  5
10
100
AcDbSymbolTableRecord
100
AcDbLayerTableRecord
  2
0
 70
0
 62
7
420
0
  6
CONTINUOUS
370
25
390
F
  0
ENDTAB
  0
TABLE
  2
STYLE
  5
3
100
AcDbSymbolTable
 70
108
  0
STYLE
  5
49
100
AcDbSymbolTableRecord
100
AcDbTextStyleTableRecord
  2
Standard
 70
0
 40
0.0
 41
1.0
 50
0.0
 71
0
 42
2.5
  3

  4

1001
ACAD
1000
txt
1071
0
  0
STYLE
  5
4A
100
AcDbSymbolTableRecord
100
AcDbTextStyleTableRecord
  2
textstyle0
 70
0
 40
0.0
 41
1.0
 50
0.0
 71
0
 42
2.0
  3

  4

1001
ACAD
1000
Arial
1071
0
  0
STYLE
  5
4B
100
AcDbSymbolTableRecord
100
AcDbTextStyleTableRecord
  2
textstyle1
 70
0
 40
0.0
 41
1.0
 50
0.0
 71
0
 42
25.0
  3

  4

1001
ACAD
1000
Arial
1071
0
  0
STYLE
  5
4C
100
AcDbSymbolTableRecord
100
AcDbTextStyleTableRecord
  2
textstyle2
 70
0
 40
0.0
 41
1.0
 50
0.0
 71
0
 42
2.5
  3

  4

1001
ACAD
1000
Arial
1071
0
  0
STYLE
  5
4D
100
AcDbSymbolTableRecord
100
AcDbTextStyleTableRecord
  2
textstyle3
 70
0
 40
0.0
 41
1.0
 50
0.0
 71
0
 42
2.5
  3

  4

1001
ACAD
1000
Arial
1071
0
  0
STYLE
  5
4E
100
AcDbSymbolTableRecord
100
AcDbTextStyleTableRecord
  2
textstyle4
 70
0
 40
0.0
 41
1.0
 50
0.0
 71
0
 42
2.5
  3

  4

1001
ACAD
1000
Arial
1071
0
  0
STYLE
  5
4F
100
AcDbSymbolTableRecord
100
AcDbTextStyleTableRecord
  2
textstyle5
 70
0
 40
0.0
 41
1.0
 50
0.0
 71
0
 42
2.5
  3

  4

1001
ACAD
1000
Arial
1071
0
  0
STYLE
  5
50
100
AcDbSymbolTableRecord
100
AcDbTextStyleTableRecord
  2
textstyle6
 70
0
 40
0.0
 41
1.0
 50
0.0
 71
0
 42
2.5
  3

  4

1001
ACAD
1000
Arial
1071
0
  0
STYLE
  5
51
100
AcDbSymbolTableRecord
100
AcDbTextStyleTableRecord
  2
textstyle7
 70
0
 40
0.0
 41
1.0
 50
0.0
 71
0
 42
2.5
  3

  4

1001
ACAD
1000
Arial
1071
0
  0
STYLE
  5
52
100
AcDbSymbolTableRecord
100
AcDbTextStyleTableRecord
  2
textstyle8
 70
0
 40
0.0
 41
1.0
 50
0.0
 71
0
 42
2.5
  3

  4

1001
ACAD
1000
Arial
1071
0
  0
STYLE
  5
53
100
AcDbSymbolTableRecord
100
AcDbTextStyleTableRecord
  2
textstyle9
 70
0
 40
0.0
 41
1.0
 50
0.0
 71
0
 42
2.5
  3

  4

1001
ACAD
1000
Arial
1071
0
  0
STYLE
  5
54
100
AcDbSymbolTableRecord
100
AcDbTextStyleTableRecord
  2
textstyle10
 70
0
 40
0.0
 41
1.0
 50
0.0
 71
0
 42
2.5
  3

  4

1001
ACAD
1000
Arial
1071
0
  0
STYLE
  5
55
100
AcDbSymbolTableRecord
100
AcDbTextStyleTableRecord
  2
textstyle11
 70
0
 40
0.0
 41
1.0
 50
0.0
 71
0
 42
2.5
  3

  4

1001
ACAD
1000
Arial
1071
0
  0
STYLE
  5
56
100
AcDbSymbolTableRecord
100
AcDbTextStyleTableRecord
  2
textstyle12
 70
0
 40
0.0
 41
1.0
 50
0.0
 71
0
 42
2.5
  3

  4

1001
ACAD
1000
Arial
1071
0
  0
STYLE
  5
57
100
AcDbSymbolTableRecord
100
AcDbTextStyleTableRecord
  2
textstyle13
 70
0
 40
0.0
 41
1.0
 50
0.0
 71
0
 42
2.5
  3

  4

1001
ACAD
1000
Arial
1071
0
  0
STYLE
  5
58
100
AcDbSymbolTableRecord
100
AcDbTextStyleTableRecord
  2
textstyle14
 70
0
 40
0.0
 41
1.0
 50
0.0
 71
0
 42
2.5
  3

  4

1001
ACAD
1000
Arial
1071
0
  0
STYLE
  5
59
100
AcDbSymbolTableRecord
100
AcDbTextStyleTableRecord
  2
textstyle15
 70
0
 40
0.0
 41
1.0
 50
0.0
 71
0
 42
2.5
  3

  4

1001
ACAD
1000
Arial
1071
0
  0
STYLE
  5
5A
100
AcDbSymbolTableRecord
100
AcDbTextStyleTableRecord
  2
textstyle16
 70
0
 40
0.0
 41
1.0
 50
0.0
 71
0
 42
2.5
  3

  4

1001
ACAD
1000
Arial
1071
0
  0
STYLE
  5
5B
100
AcDbSymbolTableRecord
100
AcDbTextStyleTableRecord
  2
textstyle17
 70
0
 40
0.0
 41
1.0
 50
0.0
 71
0
 42
2.5
  3

  4

1001
ACAD
1000
Arial
1071
0
  0
STYLE
  5
5C
100
AcDbSymbolTableRecord
100
AcDbTextStyleTableRecord
  2
textstyle18
 70
0
 40
0.0
 41
1.0
 50
0.0
 71
0
 42
2.5
  3

  4

1001
ACAD
1000
Arial
1071
0
  0
STYLE
  5
5D
100
AcDbSymbolTableRecord
100
AcDbTextStyleTableRecord
  2
textstyle19
 70
0
 40
0.0
 41
1.0
 50
0.0
 71
0
 42
2.5
  3

  4

1001
ACAD
1000
Arial
1071
0
  0
STYLE
  5
5E
100
AcDbSymbolTableRecord
100
AcDbTextStyleTableRecord
  2
textstyle20
 70
0
 40
0.0
 41
1.0
 50
0.0
 71
0
 42
2.5
  3

  4

1001
ACAD
1000
Arial
1071
0
  0
STYLE
  5
5F
100
AcDbSymbolTableRecord
100
AcDbTextStyleTableRecord
  2
textstyle21
 70
0
 40
0.0
 41
1.0
 50
0.0
 71
0
 42
2.5
  3

  4

1001
ACAD
1000
Arial
1071
0
  0
STYLE
  5
60
100
AcDbSymbolTableRecord
100
AcDbTextStyleTableRecord
  2
textstyle22
 70
0
 40
0.0
 41
1.0
 50
0.0
 71
0
 42
2.5
  3

  4

1001
ACAD
1000
Arial
1071
0
  0
STYLE
  5
61
100
AcDbSymbolTableRecord
100
AcDbTextStyleTableRecord
  2
textstyle23
 70
0
 40
0.0
 41
1.0
 50
0.0
 71
0
 42
2.5
  3

  4

1001
ACAD
1000
Arial
1071
0
  0
STYLE
  5
62
100
AcDbSymbolTableRecord
100
AcDbTextStyleTableRecord
  2
textstyle24
 70
0
 40
0.0
 41
1.0
 50
0.0
 71
0
 42
2.5
  3

  4

1001
ACAD
1000
Arial
1071
0
  0
STYLE
  5
63
100
AcDbSymbolTableRecord
100
AcDbTextStyleTableRecord
  2
textstyle25
 70
0
 40
0.0
 41
1.0
 50
0.0
 71
0
 42
2.5
  3

  4

1001
ACAD
1000
Arial
1071
0
  0
STYLE
  5
64
100
AcDbSymbolTableRecord
100
AcDbTextStyleTableRecord
  2
textstyle26
 70
0
 40
0.0
 41
1.0
 50
0.0
 71
0
 42
2.5
  3

  4

1001
ACAD
1000
Arial
1071
0
  0
STYLE
  5
65
100
AcDbSymbolTableRecord
100
AcDbTextStyleTableRecord
  2
textstyle27
 70
0
 40
0.0
 41
1.0
 50
0.0
 71
0
 42
2.5
  3

  4

1001
ACAD
1000
Arial
1071
0
  0
STYLE
  5
66
100
AcDbSymbolTableRecord
100
AcDbTextStyleTableRecord
  2
textstyle28
 70
0
 40
0.0
 41
1.0
 50
0.0
 71
0
 42
2.5
  3

  4

1001
ACAD
1000
Arial
1071
0
  0
STYLE
  5
67
100
AcDbSymbolTableRecord
100
AcDbTextStyleTableRecord
  2
textstyle29
 70
0
 40
0.0
 41
1.0
 50
0.0
 71
0
 42
2.5
  3

  4

1001
ACAD
1000
Arial
1071
0
  0
STYLE
  5
68
100
AcDbSymbolTableRecord
100
AcDbTextStyleTableRecord
  2
textstyle30
 70
0
 40
0.0
 41
1.0
 50
0.0
 71
0
 42
2.5
  3

  4

1001
ACAD
1000
Arial
1071
0
  0
STYLE
  5
69
100
AcDbSymbolTableRecord
100
AcDbTextStyleTableRecord
  2
textstyle31
 70
0
 40
0.0
 41
1.0
 50
0.0
 71
0
 42
2.5
  3

  4

1001
ACAD
1000
Arial
1071
0
  0
STYLE
  5
6A
100
AcDbSymbolTableRecord
100
AcDbTextStyleTableRecord
  2
textstyle32
 70
0
 40
0.0
 41
1.0
 50
0.0
 71
0
 42
2.5
  3

  4

1001
ACAD
1000
Arial
1071
0
  0
STYLE
  5
6B
100
AcDbSymbolTableRecord
100
AcDbTextStyleTableRecord
  2
textstyle33
 70
0
 40
0.0
 41
1.0
 50
0.0
 71
0
 42
2.5
  3

  4

1001
ACAD
1000
Arial
1071
0
  0
STYLE
  5
6C
100
AcDbSymbolTableRecord
100
AcDbTextStyleTableRecord
  2
textstyle34
 70
0
 40
0.0
 41
1.0
 50
0.0
 71
0
 42
2.5
  3

  4

1001
ACAD
1000
Arial
1071
0
  0
STYLE
  5
6D
100
AcDbSymbolTableRecord
100
AcDbTextStyleTableRecord
  2
textstyle35
 70
0
 40
0.0
 41
1.0
 50
0.0
 71
0
 42
2.5
  3

  4

1001
ACAD
1000
Arial
1071
0
  0
STYLE
  5
6E
100
AcDbSymbolTableRecord
100
AcDbTextStyleTableRecord
  2
textstyle36
 70
0
 40
0.0
 41
1.0
 50
0.0
 71
0
 42
2.5
  3

  4

1001
ACAD
1000
Arial
1071
0
  0
STYLE
  5
6F
100
AcDbSymbolTableRecord
100
AcDbTextStyleTableRecord
  2
textstyle37
 70
0
 40
0.0
 41
1.0
 50
0.0
 71
0
 42
2.5
  3

  4

1001
ACAD
1000
Arial
1071
0
  0
STYLE
  5
70
100
AcDbSymbolTableRecord
100
AcDbTextStyleTableRecord
  2
textstyle38
 70
0
 40
0.0
 41
1.0
 50
0.0
 71
0
 42
2.5
  3

  4

1001
ACAD
1000
Arial
1071
0
  0
STYLE
  5
71
100
AcDbSymbolTableRecord
100
AcDbTextStyleTableRecord
  2
textstyle39
 70
0
 40
0.0
 41
1.0
 50
0.0
 71
0
 42
2.5
  3

  4

1001
ACAD
1000
Arial
1071
0
  0
STYLE
  5
72
100
AcDbSymbolTableRecord
100
AcDbTextStyleTableRecord
  2
textstyle40
 70
0
 40
0.0
 41
1.0
 50
0.0
 71
0
 42
2.5
  3

  4

1001
ACAD
1000
Arial
1071
0
  0
STYLE
  5
73
100
AcDbSymbolTableRecord
100
AcDbTextStyleTableRecord
  2
textstyle41
 70
0
 40
0.0
 41
1.0
 50
0.0
 71
0
 42
2.5
  3

  4

1001
ACAD
1000
Arial
1071
0
  0
STYLE
  5
74
100
AcDbSymbolTableRecord
100
AcDbTextStyleTableRecord
  2
textstyle42
 70
0
 40
0.0
 41
1.0
 50
0.0
 71
0
 42
2.5
  3

  4

1001
ACAD
1000
Arial
1071
0
  0
STYLE
  5
75
100
AcDbSymbolTableRecord
100
AcDbTextStyleTableRecord
  2
textstyle43
 70
0
 40
0.0
 41
1.0
 50
0.0
 71
0
 42
2.5
  3

  4

1001
ACAD
1000
Arial
1071
0
  0
STYLE
  5
76
100
AcDbSymbolTableRecord
100
AcDbTextStyleTableRecord
  2
textstyle44
 70
0
 40
0.0
 41
1.0
 50
0.0
 71
0
 42
2.5
  3

  4

1001
ACAD
1000
Arial
1071
0
  0
STYLE
  5
77
100
AcDbSymbolTableRecord
100
AcDbTextStyleTableRecord
  2
textstyle45
 70
0
 40
0.0
 41
1.0
 50
0.0
 71
0
 42
25.0
  3

  4

1001
ACAD
1000
Arial
1071
0
  0
STYLE
  5
78
100
AcDbSymbolTableRecord
100
AcDbTextStyleTableRecord
  2
textstyle46
 70
0
 40
0.0
 41
1.0
 50
0.0
 71
0
 42
2.5
  3

  4

1001
ACAD
1000
Arial
1071
0
  0
STYLE
  5
79
100
AcDbSymbolTableRecord
100
AcDbTextStyleTableRecord
  2
textstyle47
 70
0
 40
0.0
 41
1.0
 50
0.0
 71
0
 42
2.5
  3

  4

1001
ACAD
1000
Arial
1071
0
  0
STYLE
  5
7A
100
AcDbSymbolTableRecord
100
AcDbTextStyleTableRecord
  2
textstyle48
 70
0
 40
0.0
 41
1.0
 50
0.0
 71
0
 42
2.5
  3

  4

1001
ACAD
1000
Arial
1071
0
  0
STYLE
  5
7B
100
AcDbSymbolTableRecord
100
AcDbTextStyleTableRecord
  2
textstyle49
 70
0
 40
0.0
 41
1.0
 50
0.0
 71
0
 42
2.5
  3

  4

1001
ACAD
1000
Arial
1071
0
  0
STYLE
  5
7C
100
AcDbSymbolTableRecord
100
AcDbTextStyleTableRecord
  2
textstyle50
 70
0
 40
0.0
 41
1.0
 50
0.0
 71
0
 42
2.5
  3

  4

1001
ACAD
1000
Arial
1071
0
  0
STYLE
  5
7D
100
AcDbSymbolTableRecord
100
AcDbTextStyleTableRecord
  2
textstyle51
 70
0
 40
0.0
 41
1.0
 50
0.0
 71
0
 42
2.5
  3

  4

1001
ACAD
1000
Arial
1071
0
  0
STYLE
  5
7E
100
AcDbSymbolTableRecord
100
AcDbTextStyleTableRecord
  2
textstyle52
 70
0
 40
0.0
 41
1.0
 50
0.0
 71
0
 42
2.5
  3

  4

1001
ACAD
1000
Arial
1071
0
  0
STYLE
  5
7F
100
AcDbSymbolTableRecord
100
AcDbTextStyleTableRecord
  2
textstyle53
 70
0
 40
0.0
 41
1.0
 50
0.0
 71
0
 42
2.5
  3

  4

1001
ACAD
1000
Arial
1071
0
  0
STYLE
  5
80
100
AcDbSymbolTableRecord
100
AcDbTextStyleTableRecord
  2
textstyle54
 70
0
 40
0.0
 41
1.0
 50
0.0
 71
0
 42
2.5
  3

  4

1001
ACAD
1000
Arial
1071
0
  0
STYLE
  5
81
100
AcDbSymbolTableRecord
100
AcDbTextStyleTableRecord
  2
textstyle55
 70
0
 40
0.0
 41
1.0
 50
0.0
 71
0
 42
2.5
  3

  4

1001
ACAD
1000
Arial
1071
0
  0
STYLE
  5
82
100
AcDbSymbolTableRecord
100
AcDbTextStyleTableRecord
  2
textstyle56
 70
0
 40
0.0
 41
1.0
 50
0.0
 71
0
 42
2.5
  3

  4

1001
ACAD
1000
Arial
1071
0
  0
STYLE
  5
83
100
AcDbSymbolTableRecord
100
AcDbTextStyleTableRecord
  2
textstyle57
 70
0
 40
0.0
 41
1.0
 50
0.0
 71
0
 42
2.5
  3

  4

1001
ACAD
1000
Arial
1071
0
  0
STYLE
  5
84
100
AcDbSymbolTableRecord
100
AcDbTextStyleTableRecord
  2
textstyle58
 70
0
 40
0.0
 41
1.0
 50
0.0
 71
0
 42
2.5
  3

  4

1001
ACAD
1000
Arial
1071
0
  0
STYLE
  5
85
100
AcDbSymbolTableRecord
100
AcDbTextStyleTableRecord
  2
textstyle59
 70
0
 40
0.0
 41
1.0
 50
0.0
 71
0
 42
2.5
  3

  4

1001
ACAD
1000
Arial
1071
0
  0
STYLE
  5
86
100
AcDbSymbolTableRecord
100
AcDbTextStyleTableRecord
  2
textstyle60
 70
0
 40
0.0
 41
1.0
 50
0.0
 71
0
 42
2.5
  3

  4

1001
ACAD
1000
Arial
1071
0
  0
STYLE
  5
87
100
AcDbSymbolTableRecord
100
AcDbTextStyleTableRecord
  2
textstyle61
 70
0
 40
0.0
 41
1.0
 50
0.0
 71
0
 42
2.5
  3

  4

1001
ACAD
1000
Arial
1071
0
  0
STYLE
  5
88
100
AcDbSymbolTableRecord
100
AcDbTextStyleTableRecord
  2
textstyle62
 70
0
 40
0.0
 41
1.0
 50
0.0
 71
0
 42
2.5
  3

  4

1001
ACAD
1000
Arial
1071
0
  0
STYLE
  5
89
100
AcDbSymbolTableRecord
100
AcDbTextStyleTableRecord
  2
textstyle63
 70
0
 40
0.0
 41
1.0
 50
0.0
 71
0
 42
2.5
  3

  4

1001
ACAD
1000
Arial
1071
0
  0
STYLE
  5
8A
100
AcDbSymbolTableRecord
100
AcDbTextStyleTableRecord
  2
textstyle64
 70
0
 40
0.0
 41
1.0
 50
0.0
 71
0
 42
2.5
  3

  4

1001
ACAD
1000
Arial
1071
0
  0
STYLE
  5
8B
100
AcDbSymbolTableRecord
100
AcDbTextStyleTableRecord
  2
textstyle65
 70
0
 40
0.0
 41
1.0
 50
0.0
 71
0
 42
2.5
  3

  4

1001
ACAD
1000
Arial
1071
0
  0
STYLE
  5
8C
100
AcDbSymbolTableRecord
100
AcDbTextStyleTableRecord
  2
textstyle66
 70
0
 40
0.0
 41
1.0
 50
0.0
 71
0
 42
2.5
  3

  4

1001
ACAD
1000
Arial
1071
0
  0
STYLE
  5
8D
100
AcDbSymbolTableRecord
100
AcDbTextStyleTableRecord
  2
textstyle67
 70
0
 40
0.0
 41
1.0
 50
0.0
 71
0
 42
2.5
  3

  4

1001
ACAD
1000
Arial
1071
0
  0
STYLE
  5
8E
100
AcDbSymbolTableRecord
100
AcDbTextStyleTableRecord
  2
textstyle68
 70
0
 40
0.0
 41
1.0
 50
0.0
 71
0
 42
2.5
  3

  4

1001
ACAD
1000
Arial
1071
0
  0
STYLE
  5
8F
100
AcDbSymbolTableRecord
100
AcDbTextStyleTableRecord
  2
textstyle69
 70
0
 40
0.0
 41
1.0
 50
0.0
 71
0
 42
2.5
  3

  4

1001
ACAD
1000
Arial
1071
0
  0
STYLE
  5
90
100
AcDbSymbolTableRecord
100
AcDbTextStyleTableRecord
  2
textstyle70
 70
0
 40
0.0
 41
1.0
 50
0.0
 71
0
 42
2.5
  3

  4

1001
ACAD
1000
Arial
1071
0
  0
STYLE
  5
91
100
AcDbSymbolTableRecord
100
AcDbTextStyleTableRecord
  2
textstyle71
 70
0
 40
0.0
 41
1.0
 50
0.0
 71
0
 42
2.5
  3

  4

1001
ACAD
1000
Arial
1071
0
  0
STYLE
  5
92
100
AcDbSymbolTableRecord
100
AcDbTextStyleTableRecord
  2
textstyle72
 70
0
 40
0.0
 41
1.0
 50
0.0
 71
0
 42
2.5
  3

  4

1001
ACAD
1000
Arial
1071
0
  0
STYLE
  5
93
100
AcDbSymbolTableRecord
100
AcDbTextStyleTableRecord
  2
textstyle73
 70
0
 40
0.0
 41
1.0
 50
0.0
 71
0
 42
2.5
  3

  4

1001
ACAD
1000
Arial
1071
0
  0
STYLE
  5
94
100
AcDbSymbolTableRecord
100
AcDbTextStyleTableRecord
  2
textstyle74
 70
0
 40
0.0
 41
1.0
 50
0.0
 71
0
 42
2.5
  3

  4

1001
ACAD
1000
Arial
1071
0
  0
STYLE
  5
95
100
AcDbSymbolTableRecord
100
AcDbTextStyleTableRecord
  2
textstyle75
 70
0
 40
0.0
 41
1.0
 50
0.0
 71
0
 42
2.5
  3

  4

1001
ACAD
1000
Arial
1071
0
  0
STYLE
  5
96
100
AcDbSymbolTableRecord
100
AcDbTextStyleTableRecord
  2
textstyle76
 70
0
 40
0.0
 41
1.0
 50
0.0
 71
0
 42
2.5
  3

  4

1001
ACAD
1000
Arial
1071
0
  0
STYLE
  5
97
100
AcDbSymbolTableRecord
100
AcDbTextStyleTableRecord
  2
textstyle77
 70
0
 40
0.0
 41
1.0
 50
0.0
 71
0
 42
2.5
  3

  4

1001
ACAD
1000
Arial
1071
0
  0
STYLE
  5
98
100
AcDbSymbolTableRecord
100
AcDbTextStyleTableRecord
  2
textstyle78
 70
0
 40
0.0
 41
1.0
 50
0.0
 71
0
 42
2.5
  3

  4

1001
ACAD
1000
Arial
1071
0
  0
STYLE
  5
99
100
AcDbSymbolTableRecord
100
AcDbTextStyleTableRecord
  2
textstyle79
 70
0
 40
0.0
 41
1.0
 50
0.0
 71
0
 42
2.5
  3

  4

1001
ACAD
1000
Arial
1071
0
  0
STYLE
  5
9A
100
AcDbSymbolTableRecord
100
AcDbTextStyleTableRecord
  2
textstyle80
 70
0
 40
0.0
 41
1.0
 50
0.0
 71
0
 42
2.5
  3

  4

1001
ACAD
1000
Arial
1071
0
  0
STYLE
  5
9B
100
AcDbSymbolTableRecord
100
AcDbTextStyleTableRecord
  2
textstyle81
 70
0
 40
0.0
 41
1.0
 50
0.0
 71
0
 42
2.5
  3

  4

1001
ACAD
1000
Arial
1071
0
  0
STYLE
  5
9C
100
AcDbSymbolTableRecord
100
AcDbTextStyleTableRecord
  2
textstyle82
 70
0
 40
0.0
 41
1.0
 50
0.0
 71
0
 42
2.5
  3

  4

1001
ACAD
1000
Arial
1071
0
  0
STYLE
  5
9D
100
AcDbSymbolTableRecord
100
AcDbTextStyleTableRecord
  2
textstyle83
 70
0
 40
0.0
 41
1.0
 50
0.0
 71
0
 42
2.5
  3

  4

1001
ACAD
1000
Arial
1071
0
  0
STYLE
  5
9E
100
AcDbSymbolTableRecord
100
AcDbTextStyleTableRecord
  2
textstyle84
 70
0
 40
0.0
 41
1.0
 50
0.0
 71
0
 42
2.5
  3

  4

1001
ACAD
1000
Arial
1071
0
  0
STYLE
  5
9F
100
AcDbSymbolTableRecord
100
AcDbTextStyleTableRecord
  2
textstyle85
 70
0
 40
0.0
 41
1.0
 50
0.0
 71
0
 42
2.5
  3

  4

1001
ACAD
1000
Arial
1071
0
  0
STYLE
  5
A0
100
AcDbSymbolTableRecord
100
AcDbTextStyleTableRecord
  2
textstyle86
 70
0
 40
0.0
 41
1.0
 50
0.0
 71
0
 42
2.5
  3

  4

1001
ACAD
1000
Arial
1071
0
  0
STYLE
  5
A1
100
AcDbSymbolTableRecord
100
AcDbTextStyleTableRecord
  2
textstyle87
 70
0
 40
0.0
 41
1.0
 50
0.0
 71
0
 42
2.5
  3

  4

1001
ACAD
1000
Arial
1071
0
  0
STYLE
  5
A2
100
AcDbSymbolTableRecord
100
AcDbTextStyleTableRecord
  2
textstyle88
 70
0
 40
0.0
 41
1.0
 50
0.0
 71
0
 42
2.5
  3

  4

1001
ACAD
1000
Arial
1071
0
  0
STYLE
  5
A3
100
AcDbSymbolTableRecord
100
AcDbTextStyleTableRecord
  2
textstyle89
 70
0
 40
0.0
 41
1.0
 50
0.0
 71
0
 42
2.5
  3

  4

1001
ACAD
1000
Arial
1071
0
  0
STYLE
  5
A4
100
AcDbSymbolTableRecord
100
AcDbTextStyleTableRecord
  2
textstyle90
 70
0
 40
0.0
 41
1.0
 50
0.0
 71
0
 42
2.5
  3

  4

1001
ACAD
1000
Arial
1071
0
  0
STYLE
  5
A5
100
AcDbSymbolTableRecord
100
AcDbTextStyleTableRecord
  2
textstyle91
 70
0
 40
0.0
 41
1.0
 50
0.0
 71
0
 42
2.5
  3

  4

1001
ACAD
1000
Arial
1071
0
  0
STYLE
  5
A6
100
AcDbSymbolTableRecord
100
AcDbTextStyleTableRecord
  2
textstyle92
 70
0
 40
0.0
 41
1.0
 50
0.0
 71
0
 42
2.5
  3

  4

1001
ACAD
1000
Arial
1071
0
  0
STYLE
  5
A7
100
AcDbSymbolTableRecord
100
AcDbTextStyleTableRecord
  2
textstyle93
 70
0
 40
0.0
 41
1.0
 50
0.0
 71
0
 42
2.5
  3

  4

1001
ACAD
1000
Arial
1071
0
  0
STYLE
  5
A8
100
AcDbSymbolTableRecord
100
AcDbTextStyleTableRecord
  2
textstyle94
 70
0
 40
0.0
 41
1.0
 50
0.0
 71
0
 42
2.5
  3

  4

1001
ACAD
1000
Arial
1071
0
  0
STYLE
  5
A9
100
AcDbSymbolTableRecord
100
AcDbTextStyleTableRecord
  2
textstyle95
 70
0
 40
0.0
 41
1.0
 50
0.0
 71
0
 42
2.5
  3

  4

1001
ACAD
1000
Arial
1071
0
  0
STYLE
  5
AA
100
AcDbSymbolTableRecord
100
AcDbTextStyleTableRecord
  2
textstyle96
 70
0
 40
0.0
 41
1.0
 50
0.0
 71
0
 42
2.5
  3

  4

1001
ACAD
1000
Arial
1071
0
  0
STYLE
  5
AB
100
AcDbSymbolTableRecord
100
AcDbTextStyleTableRecord
  2
textstyle97
 70
0
 40
0.0
 41
1.0
 50
0.0
 71
0
 42
2.5
  3

  4

1001
ACAD
1000
Arial
1071
0
  0
STYLE
  5
AC
100
AcDbSymbolTableRecord
100
AcDbTextStyleTableRecord
  2
textstyle98
 70
0
 40
0.0
 41
1.0
 50
0.0
 71
0
 42
2.5
  3

  4

1001
ACAD
1000
Arial
1071
0
  0
STYLE
  5
AD
100
AcDbSymbolTableRecord
100
AcDbTextStyleTableRecord
  2
textstyle99
 70
0
 40
0.0
 41
1.0
 50
0.0
 71
0
 42
1.0
  3

  4

1001
ACAD
1000
standard
1071
0
  0
STYLE
  5
AE
100
AcDbSymbolTableRecord
100
AcDbTextStyleTableRecord
  2
textstyle100
 70
0
 40
0.0
 41
1.0
 50
0.0
 71
0
 42
1.0
  3

  4

1001
ACAD
1000
standard
1071
0
  0
STYLE
  5
AF
100
AcDbSymbolTableRecord
100
AcDbTextStyleTableRecord
  2
textstyle101
 70
0
 40
0.0
 41
1.0
 50
0.0
 71
0
 42
2.5
  3

  4

1001
ACAD
1000
Arial
1071
0
  0
STYLE
  5
B0
100
AcDbSymbolTableRecord
100
AcDbTextStyleTableRecord
  2
textstyle102
 70
0
 40
0.0
 41
1.0
 50
0.0
 71
0
 42
2.5
  3

  4

1001
ACAD
1000
Arial
1071
0
  0
STYLE
  5
B1
100
AcDbSymbolTableRecord
100
AcDbTextStyleTableRecord
  2
textstyle103
 70
0
 40
0.0
 41
1.0
 50
0.0
 71
0
 42
10.0
  3

  4

1001
ACAD
1000
Arial
1071
0
  0
STYLE
  5
B2
100
AcDbSymbolTableRecord
100
AcDbTextStyleTableRecord
  2
textstyle104
 70
0
 40
0.0
 41
1.0
 50
0.0
 71
0
 42
10.0
  3

  4

1001
ACAD
1000
Arial
1071
0
  0
STYLE
  5
B3
100
AcDbSymbolTableRecord
100
AcDbTextStyleTableRecord
  2
textstyle105
 70
0
 40
0.0
 41
1.0
 50
0.0
 71
0
 42
10.0
  3

  4

1001
ACAD
1000
Arial
1071
0
  0
STYLE
  5
B4
100
AcDbSymbolTableRecord
100
AcDbTextStyleTableRecord
  2
textstyle106
 70
0
 40
0.0
 41
1.0
 50
0.0
 71
0
 42
2.5
  3

  4

1001
ACAD
1000
Arial
1071
0
  0
ENDTAB
  0
TABLE
  2
VIEW
  5
6
100
AcDbSymbolTable
 70
0
  0
ENDTAB
  0
TABLE
  2
UCS
  5
7
100
AcDbSymbolTable
 70
0
  0
ENDTAB
  0
TABLE
  2
APPID
  5
9
100
AcDbSymbolTable
 70
1
  0
APPID
  5
12
100
AcDbSymbolTableRecord
100
AcDbRegAppTableRecord
  2
ACAD
 70
0
  0
APPID
  5
B5
100
AcDbSymbolTableRecord
100
AcDbRegAppTableRecord
  2
QCAD
 70
0
  0
ENDTAB
  0
TABLE
  2
DIMSTYLE
  5
A
100
AcDbSymbolTable
 70
1
100
AcDbDimStyleTable
 71
0
  0
DIMSTYLE
105
27
100
AcDbSymbolTableRecord
100
AcDbDimStyleTableRecord
  2
Standard
 41
5.0
 42
1.25
 43
3.75
 44
2.5
 70
0
 73
0
 74
0
 77
1
 78
8
140
5.0
141
2.5
143
0.03937007874016
147
1.25
171
3
172
1
271
2
272
2
274
3
278
44
283
0
284
8
340
49
  0
ENDTAB
  0
TABLE
  2
BLOCK_RECORD
  5
1
100
AcDbSymbolTable
 70
1
  0
BLOCK_RECORD
  5
1F
100
AcDbSymbolTableRecord
100
AcDbBlockTableRecord
  2
*Model_Space
340
22
  0
BLOCK_RECORD
  5
1B
100
AcDbSymbolTableRecord
100
AcDbBlockTableRecord
  2
*Paper_Space
340
1E
  0
BLOCK_RECORD
  5
23
100
AcDbSymbolTableRecord
100
AcDbBlockTableRecord
  2
*Paper_Space0
340
26
  0
BLOCK_RECORD
  5
B6
100
AcDbSymbolTableRecord
100
AcDbBlockTableRecord
  2
switch
340
0
  0
BLOCK_RECORD
  5
B7
100
AcDbSymbolTableRecord
100
AcDbBlockTableRecord
  2
outlet_220
340
0
  0
BLOCK_RECORD
  5
B8
100
AcDbSymbolTableRecord
100
AcDbBlockTableRecord
  2
outlet
340
0
  0
BLOCK_RECORD
  5
B9
100
AcDbSymbolTableRecord
100
AcDbBlockTableRecord
  2
smoke_detector
340
0
  0
BLOCK_RECORD
  5
BA
100
AcDbSymbolTableRecord
100
AcDbBlockTableRecord
  2
light
340
0
  0
ENDTAB
  0
ENDSEC
  0
SECTION
  2
BLOCKS
  0
BLOCK
  5
20
100
AcDbEntity
  8
0
100
AcDbBlockBegin
  2
*Model_Space
 70
0
 10
0.0
 20
0.0
 30
0.0
  3
*Model_Space
  1

  0
ENDBLK
  5
21
100
AcDbEntity
  8
0
100
AcDbBlockEnd
  0
BLOCK
  5
1C
100
AcDbEntity
 67
1
  8
0
100
AcDbBlockBegin
  2
*Paper_Space
 70
0
 10
0.0
 20
0.0
 30
0.0
  3
*Paper_Space
  1

  0
ENDBLK
  5
1D
100
AcDbEntity
 67
1
  8
0
100
AcDbBlockEnd
  0
BLOCK
  5
24
100
AcDbEntity
  8
0
100
AcDbBlockBegin
  2
*Paper_Space0
 70
0
 10
0.0
 20
0.0
 30
0.0
  3
*Paper_Space0
  1

  0
ENDBLK
  5
25
100
AcDbEntity
  8
0
100
AcDbBlockEnd
  0
BLOCK
  5
BB
100
AcDbEntity
  8
0
100
AcDbBlockBegin
  2
switch
 70
0
 10
0.0
 20
0.0
 30
0.0
  3
switch
  1

  0
ARC
  5
BC
100
AcDbEntity
  8
electrical
 62
256
370
-1
  6
BYLAYER
100
AcDbCircle
 10
-8.1999999999999993
 20
3.0
 30
0.0
 40
1.2
100
AcDbArc
 50
116.56505117707799
 51
0.0
  0
ARC
  5
BD
100
AcDbEntity
  8
electrical
 62
256
370
-1
  6
BYLAYER
100
AcDbCircle
 10
-8.1999999999999993
 20
3.0
 30
0.0
 40
1.2
100
AcDbArc
 50
90.0
 51
116.56505117707799
  0
ARC
  5
BE
100
AcDbEntity
  8
electrical
 62
256
370
-1
  6
BYLAYER
100
AcDbCircle
 10
-5.7999999999999998
 20
3.0
 30
0.0
 40
1.2
100
AcDbArc
 50
296.5650511770779758
 51
180.0
  0
LINE
  5
BF
100
AcDbEntity
100
AcDbLine
  8
electrical
 62
256
370
-1
  6
BYLAYER
 10
-10.0
 20
3.0
 30
0.0
 11
-4.0
 21
3.0
 31
0.0
  0
ENDBLK
  5
C0
100
AcDbEntity
  8
0
100
AcDbBlockEnd
  0
BLOCK
  5
C1
100
AcDbEntity
  8
0
100
AcDbBlockBegin
  2
outlet_220
 70
0
 10
0.0
 20
0.0
 30
0.0
  3
outlet_220
  1

  0
CIRCLE
  5
C2
100
AcDbEntity
100
AcDbCircle
  8
electrical
 62
256
370
-1
  6
BYLAYER
 10
0.0
 20
0.0
 30
0.0
 40
2.0
  0
LINE
  5
C3
100
AcDbEntity
100
AcDbLine
  8
electrical
 62
256
370
-1
  6
BYLAYER
 10
-1.0
 20
1.7320508075688963
 30
0.0
 11
-1.0
 21
-5.0
 31
0.0
  0
LINE
  5
C4
100
AcDbEntity
100
AcDbLine
  8
electrical
 62
256
370
-1
  6
BYLAYER
 10
1.0
 20
-5.0
 30
0.0
 11
1.0
 21
1.7320508075688963
 31
0.0
  0
LINE
  5
C5
100
AcDbEntity
100
AcDbLine
  8
electrical
 62
256
370
-1
  6
BYLAYER
 10
0.0
 20
-5.0
 30
0.0
 11
0.0
 21
2.0
 31
0.0
  0
ENDBLK
  5
C6
100
AcDbEntity
  8
0
100
AcDbBlockEnd
  0
BLOCK
  5
C7
100
AcDbEntity
  8
0
100
AcDbBlockBegin
  2
outlet
 70
0
 10
0.0
 20
0.0
 30
0.0
  3
outlet
  1

  0
CIRCLE
  5
C8
100
AcDbEntity
100
AcDbCircle
  8
electrical
 62
256
370
-1
  6
BYLAYER
 10
0.0
 20
0.0
 30
0.0
 40
2.0
  0
LINE
  5
C9
100
AcDbEntity
100
AcDbLine
  8
electrical
 62
256
370
-1
  6
BYLAYER
 10
-1.0
 20
1.7320508075688963
 30
0.0
 11
-1.0
 21
-5.0
 31
0.0
  0
LINE
  5
CA
100
AcDbEntity
100
AcDbLine
  8
electrical
 62
256
370
-1
  6
BYLAYER
 10
1.0
 20
-5.0
 30
0.0
 11
1.0
 21
1.7320508075688963
 31
0.0
  0
ENDBLK
  5
CB
100
AcDbEntity
  8
0
100
AcDbBlockEnd
  0
BLOCK
  5
CC
100
AcDbEntity
  8
0
100
AcDbBlockBegin
  2
smoke_detector
 70
0
 10
0.0
 20
0.0
 30
0.0
  3
smoke_detector
  1

  0
CIRCLE
  5
CD
100
AcDbEntity
100
AcDbCircle
  8
electrical
 62
256
370
-1
  6
BYLAYER
 10
0.0
 20
0.0
 30
0.0
 40
2.0
  0
MTEXT
  5
CE
100
AcDbEntity
100
AcDbMText
  8
electrical
 62
256
370
-1
  6
BYLAYER
 10
-1.375
 20
1.25
 30
0.0
 40
2.0
 41
0.0
 71
1
 72
1
  1
\H1.57143;SD
  7
textstyle0
 50
0.0
 73
2
 44
1.0
  0
ENDBLK
  5
CF
100
AcDbEntity
  8
0
100
AcDbBlockEnd
  0
BLOCK
  5
D0
100
AcDbEntity
  8
0
100
AcDbBlockBegin
  2
light
 70
0
 10
0.0
 20
0.0
 30
0.0
  3
light
  1

  0
CIRCLE
  5
D1
100
AcDbEntity
100
AcDbCircle
  8
electrical
 62
256
370
-1
  6
BYLAYER
 10
0.0
 20
0.0
 30
0.0
 40
2.0
  0
LINE
  5
D2
100
AcDbEntity
100
AcDbLine
  8
electrical
 62
256
370
-1
  6
BYLAYER
 10
0.0
 20
2.0
 30
0.0
 11
0.0
 21
4.0
 31
0.0
  0
LINE
  5
D3
100
AcDbEntity
100
AcDbLine
  8
electrical
 62
256
370
-1
  6
BYLAYER
 10
-2.0
 20
0.0
 30
0.0
 11
-4.0
 21
0.0
 31
0.0
  0
LINE
  5
D4
100
AcDbEntity
100
AcDbLine
  8
electrical
 62
256
370
-1
  6
BYLAYER
 10
0.0
 20
-2.0
 30
0.0
 11
0.0
 21
-4.0
 31
0.0
  0
LINE
  5
D5
100
AcDbEntity
100
AcDbLine
  8
electrical
 62
256
370
-1
  6
BYLAYER
 10
2.0
 20
0.0
 30
0.0
 11
4.0
 21
0.0
 31
0.0
  0
ENDBLK
  5
D6
100
AcDbEntity
  8
0
100
AcDbBlockEnd
  0
ENDSEC
  0
SECTION
  2
ENTITIES
  0
LINE
  5
D7
100
AcDbEntity
100
AcDbLine
  8
0
 62
256
370
-1
  6
BYLAYER
 10
194.5
 20
0.0
 30
0.0
 11
194.5
 21
157.5
 31
0.0
  0
LINE
  5
D8
100
AcDbEntity
100
AcDbLine
  8
0
 62
256
370
-1
  6
BYLAYER
 10
194.5
 20
157.5
 30
0.0
 11
4.5
 21
157.5
 31
0.0
  0
LINE
  5
D9
100
AcDbEntity
100
AcDbLine
  8
0
 62
256
370
-1
  6
BYLAYER
 10
166.5
 20
-4.0
 30
0.0
 11
166.5
 21
-93.5
 31
0.0
  0
LINE
  5
DA
100
AcDbEntity
100
AcDbLine
  8
0
 62
256
370
-1
  6
BYLAYER
 10
83.5
 20
-93.5
 30
0.0
 11
166.5
 21
-93.5
 31
0.0
  0
LINE
  5
DB
100
AcDbEntity
100
AcDbLine
  8
0
 62
256
370
-1
  6
BYLAYER
 10
166.5
 20
-93.5
 30
0.0
 11
166.5
 21
-4.0
 31
0.0
  0
LINE
  5
DC
100
AcDbEntity
100
AcDbLine
  8
0
 62
256
370
-1
  6
BYLAYER
 10
83.5
 20
-93.5
 30
0.0
 11
83.5
 21
-54.0
 31
0.0
  0
LINE
  5
DD
100
AcDbEntity
100
AcDbLine
  8
0
 62
256
370
-1
  6
BYLAYER
 10
79.0
 20
-93.5
 30
0.0
 11
79.0
 21
-54.0
 31
0.0
  0
LINE
  5
DE
100
AcDbEntity
100
AcDbLine
  8
0
 62
256
370
-1
  6
BYLAYER
 10
-28.5
 20
-93.5
 30
0.0
 11
79.0
 21
-93.5
 31
0.0
  0
LINE
  5
DF
100
AcDbEntity
100
AcDbLine
  8
0
 62
256
370
-1
  6
BYLAYER
 10
-28.5
 20
-93.5
 30
0.0
 11
-28.4999999999999964
 21
-54.0
 31
0.0
  0
LINE
  5
E0
100
AcDbEntity
100
AcDbLine
  8
0
 62
256
370
-1
  6
BYLAYER
 10
-33.0
 20
-93.5
 30
0.0
 11
-33.0
 21
-54.0
 31
0.0
  0
LINE
  5
E1
100
AcDbEntity
100
AcDbLine
  8
0
 62
256
370
-1
  6
BYLAYER
 10
-109.5
 20
-93.5
 30
0.0
 11
-33.0
 21
-93.5
 31
0.0
  0
LINE
  5
E2
100
AcDbEntity
100
AcDbLine
  8
0
 62
256
370
-1
  6
BYLAYER
 10
-109.5
 20
-93.5
 30
0.0
 11
-109.5
 21
-0.5
 31
0.0
  0
LINE
  5
E3
100
AcDbEntity
100
AcDbLine
  8
0
 62
256
370
-1
  6
BYLAYER
 10
-114.0
 20
-93.5
 30
0.0
 11
-114.0
 21
4.0
 31
0.0
  0
LINE
  5
E4
100
AcDbEntity
100
AcDbLine
  8
0
 62
256
370
-1
  6
BYLAYER
 10
171.0
 20
-4.5000000000000009
 30
0.0
 11
171.0
 21
-98.0000000000000142
 31
0.0
  0
LINE
  5
E5
100
AcDbEntity
100
AcDbLine
  8
0
 62
256
370
-1
  6
BYLAYER
 10
199.0
 20
-4.5
 30
0.0
 11
199.0
 21
161.9999999999999716
 31
0.0
  0
LINE
  5
E6
100
AcDbEntity
100
AcDbLine
  8
0
 62
256
370
-1
  6
BYLAYER
 10
171.0
 20
-4.5
 30
0.0
 11
199.0
 21
-4.5
 31
0.0
  0
LINE
  5
E7
100
AcDbEntity
100
AcDbLine
  8
0
 62
256
370
-1
  6
BYLAYER
 10
-0.0000000000000071
 20
38.5
 30
0.0
 11
-0.0000000000000071
 21
70.5
 31
0.0
  0
LINE
  5
E8
100
AcDbEntity
100
AcDbLine
  8
0
 62
256
370
-1
  6
BYLAYER
 10
-0.0000000000000071
 20
70.5
 30
0.0
 11
-28.5000000000000071
 21
70.5
 31
0.0
  0
LINE
  5
E9
100
AcDbEntity
100
AcDbLine
  8
0
 62
256
370
-1
  6
BYLAYER
 10
-28.5000000000000071
 20
70.5
 30
0.0
 11
-28.5000000000000071
 21
38.5
 31
0.0
  0
LINE
  5
EA
100
AcDbEntity
100
AcDbLine
  8
0
 62
256
370
-1
  6
BYLAYER
 10
-33.0000000000000071
 20
75.0
 30
0.0
 11
-33.0000000000000071
 21
38.5
 31
0.0
  0
LINE
  5
EB
100
AcDbEntity
100
AcDbLine
  8
0
 62
256
370
-1
  6
BYLAYER
 10
-0.0000000000000071
 20
75.0
 30
0.0
 11
-33.0000000000000071
 21
75.0
 31
0.0
  0
LINE
  5
EC
100
AcDbEntity
100
AcDbLine
  8
0
 62
256
370
-1
  6
BYLAYER
 10
79.0
 20
-54.0
 30
0.0
 11
83.5
 21
-54.0
 31
0.0
  0
LINE
  5
ED
100
AcDbEntity
100
AcDbLine
  8
0
 62
256
370
-1
  6
BYLAYER
 10
-33.0
 20
-54.0
 30
0.0
 11
-28.4999999999999964
 21
-54.0
 31
0.0
  0
LINE
  5
EE
100
AcDbEntity
100
AcDbLine
  8
railing
 62
256
370
-1
  6
BYLAYER
 10
81.25
 20
-54.0
 30
0.0
 11
81.25
 21
-9.0
 31
0.0
  0
LINE
  5
EF
100
AcDbEntity
100
AcDbLine
  8
railing
 62
256
370
-1
  6
BYLAYER
 10
-30.75
 20
-54.0
 30
0.0
 11
-30.7499999999999964
 21
-9.0
 31
0.0
  0
LINE
  5
F0
100
AcDbEntity
100
AcDbLine
  8
0
 62
256
370
-1
  6
BYLAYER
 10
166.5
 20
-31.0
 30
0.0
 11
166.5
 21
-4.0
 31
0.0
  0
LINE
  5
F1
100
AcDbEntity
100
AcDbLine
  8
0
 62
256
370
-1
  6
BYLAYER
 10
166.5
 20
-4.0
 30
0.0
 11
122.5
 21
-4.0
 31
0.0
  0
LINE
  5
F2
100
AcDbEntity
100
AcDbLine
  8
0
 62
256
370
-1
  6
BYLAYER
 10
122.5
 20
-4.0
 30
0.0
 11
122.5
 21
-31.0
 31
0.0
  0
LINE
  5
F3
100
AcDbEntity
100
AcDbLine
  8
0
 62
256
370
-1
  6
BYLAYER
 10
118.0
 20
-25.0
 30
0.0
 11
118.0
 21
-31.0
 31
0.0
  0
LINE
  5
F4
100
AcDbEntity
100
AcDbLine
  8
0
 62
256
370
-1
  6
BYLAYER
 10
194.5
 20
0.0
 30
0.0
 11
118.0
 21
0.0
 31
0.0
  0
LINE
  5
F5
100
AcDbEntity
100
AcDbLine
  8
0
 62
256
370
-1
  6
BYLAYER
 10
118.0
 20
-31.0
 30
0.0
 11
122.5
 21
-31.0
 31
0.0
  0
LINE
  5
F6
100
AcDbEntity
100
AcDbLine
  8
0
 62
256
370
-1
  6
BYLAYER
 10
4.4999999999999929
 20
38.5
 30
0.0
 11
4.5
 21
157.5
 31
0.0
  0
LINE
  5
F7
100
AcDbEntity
100
AcDbLine
  8
0
 62
256
370
-1
  6
BYLAYER
 10
-0.0000000000000071
 20
75.0
 30
0.0
 11
-0.0000000000000021
 21
157.5
 31
0.0
  0
LINE
  5
F8
100
AcDbEntity
100
AcDbLine
  8
0
 62
256
370
-1
  6
BYLAYER
 10
-0.0000000000000071
 20
38.5
 30
0.0
 11
4.4999999999999929
 21
38.5
 31
0.0
  0
LINE
  5
F9
100
AcDbEntity
100
AcDbLine
  8
0
 62
256
370
-1
  6
BYLAYER
 10
-33.0000000000000071
 20
38.5
 30
0.0
 11
-28.5000000000000071
 21
38.5
 31
0.0
  0
LINE
  5
FA
100
AcDbEntity
100
AcDbLine
  8
0
 62
256
370
-1
  6
BYLAYER
 10
-159.5
 20
157.5
 30
0.0
 11
-0.0000000000000021
 21
157.5
 31
0.0
  0
LINE
  5
FB
100
AcDbEntity
100
AcDbLine
  8
0
 62
256
370
-1
  6
BYLAYER
 10
-159.5
 20
43.0
 30
0.0
 11
-159.5
 21
157.5
 31
0.0
  0
LINE
  5
FC
100
AcDbEntity
100
AcDbLine
  8
0
 62
256
370
-1
  6
BYLAYER
 10
-159.5
 20
43.0
 30
0.0
 11
-78.5
 21
43.0
 31
0.0
  0
LINE
  5
FD
100
AcDbEntity
100
AcDbLine
  8
0
 62
256
370
-1
  6
BYLAYER
 10
-164.0
 20
38.5
 30
0.0
 11
-78.5
 21
38.5
 31
0.0
  0
LINE
  5
FE
100
AcDbEntity
100
AcDbLine
  8
0
 62
256
370
-1
  6
BYLAYER
 10
-109.5
 20
-0.5
 30
0.0
 11
-73.5
 21
-0.5
 31
0.0
  0
LINE
  5
FF
100
AcDbEntity
100
AcDbLine
  8
0
 62
256
370
-1
  6
BYLAYER
 10
-114.0
 20
4.0
 30
0.0
 11
-69.0
 21
4.0
 31
0.0
  0
LINE
  5
100
100
AcDbEntity
100
AcDbLine
  8
0
 62
256
370
-1
  6
BYLAYER
 10
-69.0
 20
4.0
 30
0.0
 11
-69.0
 21
-0.5
 31
0.0
  0
LINE
  5
101
100
AcDbEntity
100
AcDbLine
  8
0
 62
256
370
-1
  6
BYLAYER
 10
-78.5
 20
43.0
 30
0.0
 11
-78.5
 21
38.5
 31
0.0
  0
LINE
  5
102
100
AcDbEntity
100
AcDbLine
  8
0
 62
256
370
-1
  6
BYLAYER
 10
-173.5
 20
-93.5
 30
0.0
 11
-114.0
 21
-93.5
 31
0.0
  0
LINE
  5
103
100
AcDbEntity
100
AcDbLine
  8
0
 62
256
370
-1
  6
BYLAYER
 10
-173.5
 20
-93.5
 30
0.0
 11
-173.5
 21
-0.5
 31
0.0
  0
LINE
  5
104
100
AcDbEntity
100
AcDbLine
  8
0
 62
256
370
-1
  6
BYLAYER
 10
-180.0
 20
-93.5
 30
0.0
 11
-180.0
 21
-0.4999999999999992
 31
0.0
  0
LINE
  5
105
100
AcDbEntity
100
AcDbLine
  8
0
 62
256
370
-1
  6
BYLAYER
 10
-207.0
 20
-0.4999999999999992
 30
0.0
 11
-180.0
 21
-0.4999999999999992
 31
0.0
  0
LINE
  5
106
100
AcDbEntity
100
AcDbLine
  8
0
 62
256
370
-1
  6
BYLAYER
 10
-207.0
 20
4.0000000000000009
 30
0.0
 11
-146.5
 21
4.0000000000000009
 31
0.0
  0
LINE
  5
107
100
AcDbEntity
100
AcDbLine
  8
0
 62
256
370
-1
  6
BYLAYER
 10
-173.5
 20
-0.5
 30
0.0
 11
-146.5
 21
-0.5
 31
0.0
  0
LINE
  5
108
100
AcDbEntity
100
AcDbLine
  8
0
 62
256
370
-1
  6
BYLAYER
 10
-146.5
 20
-0.5
 30
0.0
 11
-146.5
 21
4.0000000000000009
 31
0.0
  0
LINE
  5
109
100
AcDbEntity
100
AcDbLine
  8
0
 62
256
370
-1
  6
BYLAYER
 10
-352.5
 20
-93.5
 30
0.0
 11
-180.0
 21
-93.5
 31
0.0
  0
LINE
  5
10A
100
AcDbEntity
100
AcDbLine
  8
0
 62
256
370
-1
  6
BYLAYER
 10
-352.5
 20
-93.5
 30
0.0
 11
-352.5
 21
40.0
 31
0.0
  0
LINE
  5
10B
100
AcDbEntity
100
AcDbLine
  8
0
 62
256
370
-1
  6
BYLAYER
 10
-352.5
 20
40.0
 30
0.0
 11
-207.0
 21
40.0
 31
0.0
  0
LINE
  5
10C
100
AcDbEntity
100
AcDbLine
  8
0
 62
256
370
-1
  6
BYLAYER
 10
-352.5
 20
44.5
 30
0.0
 11
-200.5
 21
44.5
 31
0.0
  0
LINE
  5
10D
100
AcDbEntity
100
AcDbLine
  8
0
 62
256
370
-1
  6
BYLAYER
 10
-352.5
 20
44.5
 30
0.0
 11
-352.5
 21
157.5
 31
0.0
  0
LINE
  5
10E
100
AcDbEntity
100
AcDbLine
  8
0
 62
256
370
-1
  6
BYLAYER
 10
-164.0
 20
157.5
 30
0.0
 11
-352.5
 21
157.5
 31
0.0
  0
LINE
  5
10F
100
AcDbEntity
100
AcDbLine
  8
0
 62
256
370
-1
  6
BYLAYER
 10
-207.0
 20
40.0
 30
0.0
 11
-207.0
 21
38.0
 31
0.0
  0
LINE
  5
110
100
AcDbEntity
100
AcDbLine
  8
0
 62
256
370
-1
  6
BYLAYER
 10
-202.5
 20
40.0
 30
0.0
 11
-202.5
 21
38.0
 31
0.0
  0
LINE
  5
111
100
AcDbEntity
100
AcDbLine
  8
0
 62
256
370
-1
  6
BYLAYER
 10
-202.5
 20
40.0
 30
0.0
 11
-200.5
 21
40.0
 31
0.0
  0
LINE
  5
112
100
AcDbEntity
100
AcDbLine
  8
0
 62
256
370
-1
  6
BYLAYER
 10
-200.5
 20
40.0
 30
0.0
 11
-200.5
 21
44.5
 31
0.0
  0
LINE
  5
113
100
AcDbEntity
100
AcDbLine
  8
0
 62
256
370
-1
  6
BYLAYER
 10
-207.0
 20
38.0
 30
0.0
 11
-202.5
 21
38.0
 31
0.0
  0
LINE
  5
114
100
AcDbEntity
100
AcDbLine
  8
0
 62
256
370
-1
  6
BYLAYER
 10
-69.0
 20
-60.5
 30
0.0
 11
-69.0
 21
-0.5
 31
0.0
  0
LINE
  5
115
100
AcDbEntity
100
AcDbLine
  8
0
 62
256
370
-1
  6
BYLAYER
 10
-73.5
 20
-60.5
 30
0.0
 11
-73.5
 21
-0.4999999999999994
 31
0.0
  0
LINE
  5
116
100
AcDbEntity
100
AcDbLine
  8
0
 62
256
370
-1
  6
BYLAYER
 10
-73.5
 20
-60.5
 30
0.0
 11
-69.0
 21
-60.5
 31
0.0
  0
LINE
  5
117
100
AcDbEntity
100
AcDbLine
  8
0
 62
256
370
-1
  6
BYLAYER
 10
-33.0
 20
-54.0
 30
0.0
 11
-33.0
 21
-0.5
 31
0.0
  0
LINE
  5
118
100
AcDbEntity
100
AcDbLine
  8
0
 62
256
370
-1
  6
BYLAYER
 10
-69.0
 20
-0.5
 30
0.0
 11
-33.0
 21
-0.5
 31
0.0
  0
LINE
  5
119
100
AcDbEntity
100
AcDbLine
  8
0
 62
256
370
-1
  6
BYLAYER
 10
-69.0
 20
-10.5
 30
0.0
 11
-33.0
 21
-10.5
 31
0.0
  0
LINE
  5
11A
100
AcDbEntity
100
AcDbLine
  8
0
 62
256
370
-1
  6
BYLAYER
 10
-69.0
 20
-20.5
 30
0.0
 11
-33.0
 21
-20.5
 31
0.0
  0
LINE
  5
11B
100
AcDbEntity
100
AcDbLine
  8
0
 62
256
370
-1
  6
BYLAYER
 10
-69.0
 20
-30.5
 30
0.0
 11
-33.0
 21
-30.5
 31
0.0
  0
LINE
  5
11C
100
AcDbEntity
100
AcDbLine
  8
0
 62
256
370
-1
  6
BYLAYER
 10
-69.0
 20
-40.5
 30
0.0
 11
-33.0
 21
-40.5
 31
0.0
  0
LINE
  5
11D
100
AcDbEntity
100
AcDbLine
  8
0
 62
256
370
-1
  6
BYLAYER
 10
-69.0
 20
-50.5
 30
0.0
 11
-33.0
 21
-50.5
 31
0.0
  0
LINE
  5
11E
100
AcDbEntity
100
AcDbLine
  8
0
 62
256
370
-1
  6
BYLAYER
 10
-69.0
 20
-60.5
 30
0.0
 11
-32.9999999999999929
 21
-60.5
 31
0.0
  0
LINE
  5
11F
100
AcDbEntity
100
AcDbLine
  8
0
 62
256
370
-1
  6
BYLAYER
 10
83.5
 20
-54.0
 30
0.0
 11
83.5
 21
-25.0
 31
0.0
  0
LINE
  5
120
100
AcDbEntity
100
AcDbLine
  8
0
 62
256
370
-1
  6
BYLAYER
 10
83.5
 20
-5.0
 30
0.0
 11
118.0
 21
-5.0
 31
0.0
  0
LINE
  5
121
100
AcDbEntity
100
AcDbLine
  8
0
 62
256
370
-1
  6
BYLAYER
 10
83.5
 20
-15.0
 30
0.0
 11
118.0
 21
-15.0
 31
0.0
  0
LINE
  5
122
100
AcDbEntity
100
AcDbLine
  8
0
 62
256
370
-1
  6
BYLAYER
 10
83.5
 20
-25.0
 30
0.0
 11
118.0
 21
-25.0
 31
0.0
  0
LINE
  5
123
100
AcDbEntity
100
AcDbLine
  8
0
 62
256
370
-1
  6
BYLAYER
 10
-164.0
 20
38.5
 30
0.0
 11
-164.0
 21
75.0
 31
0.0
  0
LINE
  5
124
100
AcDbEntity
100
AcDbLine
  8
0
 62
256
370
-1
  6
BYLAYER
 10
-191.0
 20
75.0
 30
0.0
 11
-164.0
 21
75.0
 31
0.0
  0
LINE
  5
125
100
AcDbEntity
100
AcDbLine
  8
0
 62
256
370
-1
  6
BYLAYER
 10
-164.0
 20
88.0
 30
0.0
 11
-191.0
 21
88.0
 31
0.0
  0
LINE
  5
126
100
AcDbEntity
100
AcDbLine
  8
0
 62
256
370
-1
  6
BYLAYER
 10
-191.0
 20
88.0
 30
0.0
 11
-191.0
 21
75.0
 31
0.0
  0
LINE
  5
127
100
AcDbEntity
100
AcDbLine
  8
0
 62
256
370
-1
  6
BYLAYER
 10
-164.0
 20
88.0
 30
0.0
 11
-164.0
 21
157.5
 31
0.0
  0
LINE
  5
128
100
AcDbEntity
100
AcDbLine
  8
0
 62
256
370
-1
  6
BYLAYER
 10
-207.0
 20
4.0000000000000009
 30
0.0
 11
-207.0
 21
-0.4999999999999992
 31
0.0
  0
LINE
  5
129
100
AcDbEntity
100
AcDbLine
  8
0
 62
256
370
-1
  6
BYLAYER
 10
-357.0
 20
-98.0
 30
0.0
 11
171.0
 21
-98.0
 31
0.0
  0
LINE
  5
12A
100
AcDbEntity
100
AcDbLine
  8
0
 62
256
370
-1
  6
BYLAYER
 10
-357.0
 20
-98.0
 30
0.0
 11
-357.0
 21
162.0
 31
0.0
  0
LINE
  5
12B
100
AcDbEntity
100
AcDbLine
  8
0
 62
256
370
-1
  6
BYLAYER
 10
199.0
 20
162.0
 30
0.0
 11
-357.0
 21
162.0
 31
0.0
  0
DIMENSION
  5
12C
100
AcDbEntity
  8
dimensions
 62
256
370
-1
  6
BYLAYER
100
AcDbDimension
 10
4.5000000000000027
 20
180.0
 30
0.0
 11
99.5
 21
183.75
 31
0.0
 70
1
 71
8
 72
2
 41
1.0
 42
0.0
  1

  3
Standard
100
AcDbAlignedDimension
 13
4.5000000000000009
 23
157.5
 33
0.0
 14
194.5
 24
157.5
 34
0.0
1001
ACAD
1000
DSTYLE
1002
{
1070
144
1040
1
1002
}
  0
DIMENSION
  5
12D
100
AcDbEntity
  8
dimensions
 62
256
370
-1
  6
BYLAYER
100
AcDbDimension
 10
216.0
 20
157.5
 30
0.0
 11
212.25
 21
78.75
 31
0.0
 70
1
 71
8
 72
2
 41
1.0
 42
0.0
  1

  3
Standard
100
AcDbAlignedDimension
 13
194.5
 23
157.5
 33
0.0
 14
194.5
 24
0.0
 34
0.0
1001
ACAD
1000
DSTYLE
1002
{
1070
144
1040
1
1002
}
  0
DIMENSION
  5
12E
100
AcDbEntity
  8
dimensions
 62
256
370
-1
  6
BYLAYER
100
AcDbDimension
 10
-28.5
 20
-119.3111718989671601
 30
0.0
 11
25.25
 21
-115.5611718989671601
 31
0.0
 70
1
 71
8
 72
2
 41
1.0
 42
0.0
  1

  3
Standard
100
AcDbAlignedDimension
 13
-28.5
 23
-93.5
 33
0.0
 14
79.0
 24
-93.5
 34
0.0
1001
ACAD
1000
DSTYLE
1002
{
1070
144
1040
1
1002
}
  0
DIMENSION
  5
12F
100
AcDbEntity
  8
dimensions
 62
256
370
-1
  6
BYLAYER
100
AcDbDimension
 10
-12.0
 20
-93.5
 30
0.0
 11
-15.75
 21
-47.0
 31
0.0
 70
1
 71
8
 72
2
 41
1.0
 42
0.0
  1

  3
Standard
100
AcDbAlignedDimension
 13
-28.5
 23
-93.5
 33
0.0
 14
-28.5
 24
-0.5
 34
0.0
1001
ACAD
1000
DSTYLE
1002
{
1070
144
1040
1
1002
}
  0
DIMENSION
  5
130
100
AcDbEntity
  8
dimensions
 62
256
370
-1
  6
BYLAYER
100
AcDbDimension
 10
16.0
 20
38.5
 30
0.0
 11
12.25
 21
54.5
 31
0.0
 70
1
 71
8
 72
2
 41
1.0
 42
0.0
  1

  3
Standard
100
AcDbAlignedDimension
 13
-0.0000000000000071
 23
38.5
 33
0.0
 14
-0.0000000000000071
 24
70.5
 34
0.0
1001
ACAD
1000
DSTYLE
1002
{
1070
144
1040
1
1002
}
  0
DIMENSION
  5
131
100
AcDbEntity
  8
dimensions
 62
256
370
-1
  6
BYLAYER
100
AcDbDimension
 10
-0.0000000000000156
 20
24.0
 30
0.0
 11
15.7638888888888751
 21
27.7499999999999929
 31
0.0
 70
1
 71
8
 72
2
 41
1.0
 42
0.0
  1

  3
Standard
100
AcDbAlignedDimension
 13
-0.0000000000000071
 23
70.5
 33
0.0
 14
-28.5000000000000071
 24
70.5
 34
0.0
1001
ACAD
1000
DSTYLE
1002
{
1070
144
1040
1
1002
}
  0
DIMENSION
  5
132
100
AcDbEntity
  8
dimensions
 62
256
370
-1
  6
BYLAYER
100
AcDbDimension
 10
-207.0
 20
12.0
 30
0.0
 11
-103.5
 21
15.75
 31
0.0
 70
1
 71
8
 72
2
 41
1.0
 42
0.0
  1

  3
Standard
100
AcDbAlignedDimension
 13
-207.0
 23
4.0000000000000009
 33
0.0
 14
0.0
 24
4.0
 34
0.0
1001
ACAD
1000
DSTYLE
1002
{
1070
144
1040
1
1002
}
  0
DIMENSION
  5
133
100
AcDbEntity
  8
dimensions
 62
256
370
-1
  6
BYLAYER
100
AcDbDimension
 10
-180.0
 20
-120.0
 30
0.0
 11
-266.25
 21
-116.25
 31
0.0
 70
1
 71
8
 72
2
 41
1.0
 42
0.0
  1

  3
Standard
100
AcDbAlignedDimension
 13
-180.0
 23
-93.5
 33
0.0
 14
-352.5
 24
-93.5
 34
0.0
1001
ACAD
1000
DSTYLE
1002
{
1070
144
1040
1
1002
}
  0
DIMENSION
  5
134
100
AcDbEntity
  8
dimensions
 62
256
370
-1
  6
BYLAYER
100
AcDbDimension
 10
-372.0
 20
-93.5
 30
0.0
 11
-375.75
 21
-26.75
 31
0.0
 70
1
 71
8
 72
2
 41
1.0
 42
0.0
  1

  3
Standard
100
AcDbAlignedDimension
 13
-352.5
 23
-93.5
 33
0.0
 14
-352.5
 24
40.0
 34
0.0
1001
ACAD
1000
DSTYLE
1002
{
1070
144
1040
1
1002
}
  0
DIMENSION
  5
135
100
AcDbEntity
  8
dimensions
 62
256
370
-1
  6
BYLAYER
100
AcDbDimension
 10
-372.0
 20
44.5
 30
0.0
 11
-375.75
 21
101.0
 31
0.0
 70
1
 71
8
 72
2
 41
1.0
 42
0.0
  1

  3
Standard
100
AcDbAlignedDimension
 13
-352.5
 23
44.5
 33
0.0
 14
-352.5
 24
157.5
 34
0.0
1001
ACAD
1000
DSTYLE
1002
{
1070
144
1040
1
1002
}
  0
DIMENSION
  5
136
100
AcDbEntity
  8
dimensions
 62
256
370
-1
  6
BYLAYER
100
AcDbDimension
 10
-164.0
 20
180.0
 30
0.0
 11
-258.25
 21
183.75
 31
0.0
 70
1
 71
8
 72
2
 41
1.0
 42
0.0
  1

  3
Standard
100
AcDbAlignedDimension
 13
-164.0
 23
157.5
 33
0.0
 14
-352.5
 24
157.5
 34
0.0
1001
ACAD
1000
DSTYLE
1002
{
1070
144
1040
1
1002
}
  0
DIMENSION
  5
137
100
AcDbEntity
  8
dimensions
 62
256
370
-1
  6
BYLAYER
100
AcDbDimension
 10
-60.0
 20
38.4999999999999929
 30
0.0
 11
-63.75
 21
21.2499999999999929
 31
0.0
 70
1
 71
8
 72
2
 41
1.0
 42
0.0
  1

  3
Standard
100
AcDbAlignedDimension
 13
-78.5
 23
38.5
 33
0.0
 14
-78.5
 24
4.0
 34
0.0
1001
ACAD
1000
DSTYLE
1002
{
1070
144
1040
1
1002
}
  0
DIMENSION
  5
138
100
AcDbEntity
  8
dimensions
 62
256
370
-1
  6
BYLAYER
100
AcDbDimension
 10
-69.0
 20
-78.4468726823975544
 30
0.0
 11
-51.0
 21
-74.6968726823975544
 31
0.0
 70
1
 71
8
 72
2
 41
1.0
 42
0.0
  1

  3
Standard
100
AcDbAlignedDimension
 13
-69.0
 23
-60.5
 33
0.0
 14
-33.0
 24
-60.5
 34
0.0
1001
ACAD
1000
DSTYLE
1002
{
1070
144
1040
1
1002
}
  0
DIMENSION
  5
139
100
AcDbEntity
  8
dimensions
 62
256
370
-1
  6
BYLAYER
100
AcDbDimension
 10
-84.0
 20
-60.5
 30
0.0
 11
-87.75
 21
-30.5
 31
0.0
 70
1
 71
8
 72
2
 41
1.0
 42
0.0
  1

  3
Standard
100
AcDbAlignedDimension
 13
-73.5
 23
-60.5
 33
0.0
 14
-73.5
 24
-0.5
 34
0.0
1001
ACAD
1000
DSTYLE
1002
{
1070
144
1040
1
1002
}
  0
LINE
  5
13A
100
AcDbEntity
100
AcDbLine
  8
hardwood_area
 62
256
370
-1
  6
BYLAYER
 10
4.5000000000000009
 20
157.5
 30
0.0
 11
194.5
 21
157.5
 31
0.0
  0
LINE
  5
13B
100
AcDbEntity
100
AcDbLine
  8
hardwood_area
 62
256
370
-1
  6
BYLAYER
 10
194.5
 20
157.5
 30
0.0
 11
194.5
 21
0.0
 31
0.0
  0
LINE
  5
13C
100
AcDbEntity
100
AcDbLine
  8
hardwood_area
 62
256
370
-1
  6
BYLAYER
 10
194.5
 20
0.0
 30
0.0
 11
118.0
 21
-0.0
 31
0.0
  0
LINE
  5
13D
100
AcDbEntity
100
AcDbLine
  8
hardwood_area
 62
256
370
-1
  6
BYLAYER
 10
118.0
 20
-0.0
 30
0.0
 11
118.0
 21
-29.5
 31
0.0
  0
LINE
  5
13E
100
AcDbEntity
100
AcDbLine
  8
hardwood_area
 62
256
370
-1
  6
BYLAYER
 10
118.0
 20
-29.5
 30
0.0
 11
79.0
 21
-29.5
 31
0.0
  0
LINE
  5
13F
100
AcDbEntity
100
AcDbLine
  8
hardwood_area
 62
256
370
-1
  6
BYLAYER
 10
79.0
 20
-29.5
 30
0.0
 11
79.0
 21
-93.5
 31
0.0
  0
LINE
  5
140
100
AcDbEntity
100
AcDbLine
  8
hardwood_area
 62
256
370
-1
  6
BYLAYER
 10
79.0
 20
-93.5
 30
0.0
 11
-28.5
 21
-93.5
 31
0.0
  0
LINE
  5
141
100
AcDbEntity
100
AcDbLine
  8
hardwood_area
 62
256
370
-1
  6
BYLAYER
 10
-28.5
 20
-93.5
 30
0.0
 11
-28.4999999999999964
 21
-54.0
 31
0.0
  0
LINE
  5
142
100
AcDbEntity
100
AcDbLine
  8
hardwood_area
 62
256
370
-1
  6
BYLAYER
 10
-28.4999999999999964
 20
-54.0
 30
0.0
 11
-33.0
 21
-54.0
 31
0.0
  0
LINE
  5
143
100
AcDbEntity
100
AcDbLine
  8
hardwood_area
 62
256
370
-1
  6
BYLAYER
 10
-33.0
 20
-54.0
 30
0.0
 11
-33.0
 21
-60.5
 31
0.0
  0
LINE
  5
144
100
AcDbEntity
100
AcDbLine
  8
hardwood_area
 62
256
370
-1
  6
BYLAYER
 10
-33.0
 20
-60.5
 30
0.0
 11
-69.0
 21
-60.5
 31
0.0
  0
LINE
  5
145
100
AcDbEntity
100
AcDbLine
  8
hardwood_area
 62
256
370
-1
  6
BYLAYER
 10
-69.0
 20
-60.5
 30
0.0
 11
-69.0
 21
3.9999999999999973
 31
0.0
  0
LINE
  5
146
100
AcDbEntity
100
AcDbLine
  8
hardwood_area
 62
256
370
-1
  6
BYLAYER
 10
-69.0
 20
3.9999999999999973
 30
0.0
 11
-207.0
 21
4.0000000000000009
 31
0.0
  0
LINE
  5
147
100
AcDbEntity
100
AcDbLine
  8
hardwood_area
 62
256
370
-1
  6
BYLAYER
 10
-207.0
 20
4.0000000000000009
 30
0.0
 11
-207.0
 21
-0.4999999999999992
 31
0.0
  0
LINE
  5
148
100
AcDbEntity
100
AcDbLine
  8
hardwood_area
 62
256
370
-1
  6
BYLAYER
 10
-207.0
 20
-0.4999999999999992
 30
0.0
 11
-180.0
 21
-0.4999999999999992
 31
0.0
  0
LINE
  5
149
100
AcDbEntity
100
AcDbLine
  8
hardwood_area
 62
256
370
-1
  6
BYLAYER
 10
-180.0
 20
-0.4999999999999992
 30
0.0
 11
-180.0
 21
-93.5
 31
0.0
  0
LINE
  5
14A
100
AcDbEntity
100
AcDbLine
  8
hardwood_area
 62
256
370
-1
  6
BYLAYER
 10
-180.0
 20
-93.5
 30
0.0
 11
-352.5
 21
-93.5
 31
0.0
  0
LINE
  5
14B
100
AcDbEntity
100
AcDbLine
  8
hardwood_area
 62
256
370
-1
  6
BYLAYER
 10
-352.5
 20
-93.5
 30
0.0
 11
-352.5
 21
157.5
 31
0.0
  0
LINE
  5
14C
100
AcDbEntity
100
AcDbLine
  8
hardwood_area
 62
256
370
-1
  6
BYLAYER
 10
-352.5
 20
157.5
 30
0.0
 11
-164.0
 21
157.5
 31
0.0
  0
LINE
  5
14D
100
AcDbEntity
100
AcDbLine
  8
hardwood_area
 62
256
370
-1
  6
BYLAYER
 10
-164.0
 20
157.5
 30
0.0
 11
-164.0
 21
38.5
 31
0.0
  0
LINE
  5
14E
100
AcDbEntity
100
AcDbLine
  8
hardwood_area
 62
256
370
-1
  6
BYLAYER
 10
-164.0
 20
38.5
 30
0.0
 11
-28.5000000000000071
 21
38.5
 31
0.0
  0
LINE
  5
14F
100
AcDbEntity
100
AcDbLine
  8
hardwood_area
 62
256
370
-1
  6
BYLAYER
 10
-28.5000000000000071
 20
38.5
 30
0.0
 11
-28.5000000000000071
 21
70.5
 31
0.0
  0
LINE
  5
150
100
AcDbEntity
100
AcDbLine
  8
hardwood_area
 62
256
370
-1
  6
BYLAYER
 10
-28.5000000000000071
 20
70.5
 30
0.0
 11
4.4999999999999956
 21
70.5
 31
0.0
  0
LINE
  5
151
100
AcDbEntity
100
AcDbLine
  8
hardwood_area
 62
256
370
-1
  6
BYLAYER
 10
4.4999999999999956
 20
70.5
 30
0.0
 11
4.5000000000000009
 21
157.5
 31
0.0
  0
LINE
  5
152
100
AcDbEntity
100
AcDbLine
  8
hardwood_area
 62
256
370
-1
  6
BYLAYER
 10
4.5000000000000009
 20
157.5
 30
0.0
 11
4.5000000000000009
 21
157.5
 31
0.0
  0
DIMENSION
  5
153
100
AcDbEntity
  8
dimensions
 62
256
370
-1
  6
BYLAYER
100
AcDbDimension
 10
118.0
 20
-40.0
 30
0.0
 11
100.75
 21
-36.25
 31
0.0
 70
1
 71
8
 72
2
 41
1.0
 42
0.0
  1

  3
Standard
100
AcDbAlignedDimension
 13
118.0
 23
-25.0
 33
0.0
 14
83.5
 24
-25.0
 34
0.0
1001
ACAD
1000
DSTYLE
1002
{
1070
144
1040
1
1002
}
  0
HATCH
  5
154
  8
hardwood_area
 62
256
370
-1
  6
BYLAYER
100
AcDbEntity
100
AcDbHatch
 10
0.0
 20
0.0
 30
0.0
210
0.0
220
0.0
230
1.0
  2
TRANS
 70
0
 71
0
 91
1
 92
1
 93
25
 72
1
 10
4.5000000000000009
 20
157.5
 11
194.5
 21
157.5
 72
1
 10
194.5
 20
157.5
 11
194.5
 21
0.0
 72
1
 10
194.5
 20
0.0
 11
118.0
 21
-0.0
 72
1
 10
118.0
 20
-0.0
 11
118.0
 21
-29.5
 72
1
 10
118.0
 20
-29.5
 11
79.0
 21
-29.5
 72
1
 10
79.0
 20
-29.5
 11
79.0
 21
-93.5
 72
1
 10
79.0
 20
-93.5
 11
-28.5
 21
-93.5
 72
1
 10
-28.5
 20
-93.5
 11
-28.4999999999999964
 21
-54.0
 72
1
 10
-28.4999999999999964
 20
-54.0
 11
-33.0
 21
-54.0
 72
1
 10
-33.0
 20
-54.0
 11
-33.0
 21
-60.5
 72
1
 10
-33.0
 20
-60.5
 11
-69.0
 21
-60.5
 72
1
 10
-69.0
 20
-60.5
 11
-69.0
 21
3.9999999999999973
 72
1
 10
-69.0
 20
3.9999999999999973
 11
-207.0
 21
4.0000000000000009
 72
1
 10
-207.0
 20
4.0000000000000009
 11
-207.0
 21
-0.4999999999999992
 72
1
 10
-207.0
 20
-0.4999999999999992
 11
-180.0
 21
-0.4999999999999992
 72
1
 10
-180.0
 20
-0.4999999999999992
 11
-180.0
 21
-93.5
 72
1
 10
-180.0
 20
-93.5
 11
-352.5
 21
-93.5
 72
1
 10
-352.5
 20
-93.5
 11
-352.5
 21
157.5
 72
1
 10
-352.5
 20
157.5
 11
-164.0
 21
157.5
 72
1
 10
-164.0
 20
157.5
 11
-164.0
 21
38.5
 72
1
 10
-164.0
 20
38.5
 11
-28.5000000000000071
 21
38.5
 72
1
 10
-28.5000000000000071
 20
38.5
 11
-28.5000000000000071
 21
70.5
 72
1
 10
-28.5000000000000071
 20
70.5
 11
4.4999999999999956
 21
70.5
 72
1
 10
4.4999999999999956
 20
70.5
 11
4.5000000000000009
 21
157.5
 72
1
 10
4.5000000000000009
 20
157.5
 11
4.5000000000000009
 21
157.5
 97
0
 75
0
 76
1
 52
0.0
 41
10.0
 77
0
 78
1
 53
45.0
 43
0.0
 44
0.0
 45
-0.0883883476483184
 46
0.0883883476483185
 79
0
 98
0
1001
ACAD
1010
0.0
1020
0.0
1030
0
  0
LINE
  5
155
100
AcDbEntity
100
AcDbLine
  8
0
 62
256
370
-1
  6
BYLAYER
 10
166.5
 20
-238.5
 30
0.0
 11
-312.5
 21
-238.5
 31
0.0
  0
LINE
  5
156
100
AcDbEntity
100
AcDbLine
  8
0
 62
256
370
-1
  6
BYLAYER
 10
-312.5
 20
-472.5
 30
0.0
 11
166.5
 21
-472.5
 31
0.0
  0
LINE
  5
157
100
AcDbEntity
100
AcDbLine
  8
0
 62
256
370
-1
  6
BYLAYER
 10
-312.5
 20
-472.5
 30
0.0
 11
-312.5
 21
-238.5
 31
0.0
  0
LINE
  5
158
100
AcDbEntity
100
AcDbLine
  8
0
 62
256
370
-1
  6
BYLAYER
 10
15.5
 20
-238.5
 30
0.0
 11
166.5
 21
-238.5
 31
0.0
  0
LINE
  5
159
100
AcDbEntity
100
AcDbLine
  8
0
 62
256
370
-1
  6
BYLAYER
 10
15.4999999999999929
 20
-340.5
 30
0.0
 11
15.5
 21
-238.5
 31
0.0
  0
LINE
  5
15A
100
AcDbEntity
100
AcDbLine
  8
0
 62
256
370
-1
  6
BYLAYER
 10
-60.5000000000000071
 20
-340.5
 30
0.0
 11
15.4999999999999929
 21
-340.5
 31
0.0
  0
LINE
  5
15B
100
AcDbEntity
100
AcDbLine
  8
0
 62
256
370
-1
  6
BYLAYER
 10
-65.5
 20
-344.5
 30
0.0
 11
-60.5000000000000071
 21
-344.5
 31
0.0
  0
LINE
  5
15C
100
AcDbEntity
100
AcDbLine
  8
0
 62
256
370
-1
  6
BYLAYER
 10
-60.5000000000000071
 20
-344.5
 30
0.0
 11
-60.5000000000000071
 21
-340.5
 31
0.0
  0
LINE
  5
15D
100
AcDbEntity
100
AcDbLine
  8
0
 62
256
370
-1
  6
BYLAYER
 10
-65.5
 20
-340.5
 30
0.0
 11
-65.5
 21
-344.5
 31
0.0
  0
LINE
  5
15E
100
AcDbEntity
100
AcDbLine
  8
0
 62
256
370
-1
  6
BYLAYER
 10
-68.5
 20
-340.5
 30
0.0
 11
-65.5
 21
-340.5
 31
0.0
  0
LINE
  5
15F
100
AcDbEntity
100
AcDbLine
  8
0
 62
256
370
-1
  6
BYLAYER
 10
-196.5
 20
-340.5
 30
0.0
 11
-100.5
 21
-340.5
 31
0.0
  0
LINE
  5
160
100
AcDbEntity
100
AcDbLine
  8
0
 62
256
370
-1
  6
BYLAYER
 10
10.9999999999999929
 20
-336.0
 30
0.0
 11
11.0
 21
-238.5
 31
0.0
  0
LINE
  5
161
100
AcDbEntity
100
AcDbLine
  8
0
 62
256
370
-1
  6
BYLAYER
 10
-68.5
 20
-336.0
 30
0.0
 11
11.0
 21
-336.0
 31
0.0
  0
LINE
  5
162
100
AcDbEntity
100
AcDbLine
  8
0
 62
256
370
-1
  6
BYLAYER
 10
-200.0
 20
-336.0
 30
0.0
 11
-100.5
 21
-336.0
 31
0.0
  0
LINE
  5
163
100
AcDbEntity
100
AcDbLine
  8
0
 62
256
370
-1
  6
BYLAYER
 10
-196.5
 20
-344.5
 30
0.0
 11
-196.5
 21
-340.5
 31
0.0
  0
LINE
  5
164
100
AcDbEntity
100
AcDbLine
  8
0
 62
256
370
-1
  6
BYLAYER
 10
-201.5
 20
-344.5
 30
0.0
 11
-196.5
 21
-344.5
 31
0.0
  0
LINE
  5
165
100
AcDbEntity
100
AcDbLine
  8
0
 62
256
370
-1
  6
BYLAYER
 10
-201.5
 20
-344.5
 30
0.0
 11
-201.5
 21
-340.5
 31
0.0
  0
LINE
  5
166
100
AcDbEntity
100
AcDbLine
  8
0
 62
256
370
-1
  6
BYLAYER
 10
-312.5
 20
-340.5
 30
0.0
 11
-201.5
 21
-340.5
 31
0.0
  0
LINE
  5
167
100
AcDbEntity
100
AcDbLine
  8
0
 62
256
370
-1
  6
BYLAYER
 10
-312.5
 20
-336.0
 30
0.0
 11
-204.5
 21
-336.0
 31
0.0
  0
LINE
  5
168
100
AcDbEntity
100
AcDbLine
  8
0
 62
256
370
-1
  6
BYLAYER
 10
-196.5
 20
-406.0
 30
0.0
 11
-196.5
 21
-374.5
 31
0.0
  0
LINE
  5
169
100
AcDbEntity
100
AcDbLine
  8
0
 62
256
370
-1
  6
BYLAYER
 10
-201.0
 20
-410.5
 30
0.0
 11
-201.0
 21
-374.5
 31
0.0
  0
LINE
  5
16A
100
AcDbEntity
100
AcDbLine
  8
0
 62
256
370
-1
  6
BYLAYER
 10
-201.0
 20
-374.5
 30
0.0
 11
-196.5
 21
-374.5
 31
0.0
  0
LINE
  5
16B
100
AcDbEntity
100
AcDbLine
  8
0
 62
256
370
-1
  6
BYLAYER
 10
-201.0
 20
-410.5
 30
0.0
 11
-173.0
 21
-410.5
 31
0.0
  0
LINE
  5
16C
100
AcDbEntity
100
AcDbLine
  8
0
 62
256
370
-1
  6
BYLAYER
 10
-173.0
 20
-410.5
 30
0.0
 11
-173.0
 21
-472.5
 31
0.0
  0
LINE
  5
16D
100
AcDbEntity
100
AcDbLine
  8
0
 62
256
370
-1
  6
BYLAYER
 10
-196.5
 20
-406.0
 30
0.0
 11
-173.0
 21
-406.0
 31
0.0
  0
LINE
  5
16E
100
AcDbEntity
100
AcDbLine
  8
0
 62
256
370
-1
  6
BYLAYER
 10
-168.5
 20
-406.0
 30
0.0
 11
-168.5
 21
-472.5
 31
0.0
  0
LINE
  5
16F
100
AcDbEntity
100
AcDbLine
  8
0
 62
256
370
-1
  6
BYLAYER
 10
-326.5
 20
-457.5
 30
0.0
 11
-326.5
 21
-395.5
 31
0.0
  0
LINE
  5
170
100
AcDbEntity
100
AcDbLine
  8
0
 62
256
370
-1
  6
BYLAYER
 10
-326.5
 20
-457.5
 30
0.0
 11
-312.5
 21
-457.5
 31
0.0
  0
LINE
  5
171
100
AcDbEntity
100
AcDbLine
  8
0
 62
256
370
-1
  6
BYLAYER
 10
-326.5
 20
-395.5
 30
0.0
 11
-312.5
 21
-395.5
 31
0.0
  0
LINE
  5
172
100
AcDbEntity
100
AcDbLine
  8
0
 62
256
370
-1
  6
BYLAYER
 10
-173.0
 20
-406.0
 30
0.0
 11
-173.0
 21
-374.5
 31
0.0
  0
LINE
  5
173
100
AcDbEntity
100
AcDbLine
  8
0
 62
256
370
-1
  6
BYLAYER
 10
-168.5
 20
-406.0
 30
0.0
 11
-168.5
 21
-374.5
 31
0.0
  0
LINE
  5
174
100
AcDbEntity
100
AcDbLine
  8
0
 62
256
370
-1
  6
BYLAYER
 10
-173.0
 20
-374.5
 30
0.0
 11
-168.5
 21
-374.5
 31
0.0
  0
LINE
  5
175
100
AcDbEntity
100
AcDbLine
  8
0
 62
256
370
-1
  6
BYLAYER
 10
-168.5
 20
-464.0
 30
0.0
 11
-108.5
 21
-464.0
 31
0.0
  0
LINE
  5
176
100
AcDbEntity
100
AcDbLine
  8
0
 62
256
370
-1
  6
BYLAYER
 10
-108.5
 20
-374.5
 30
0.0
 11
-108.5
 21
-464.0
 31
0.0
  0
LINE
  5
177
100
AcDbEntity
100
AcDbLine
  8
0
 62
256
370
-1
  6
BYLAYER
 10
-108.5
 20
-434.5
 30
0.0
 11
-168.5
 21
-434.5
 31
0.0
  0
LINE
  5
178
100
AcDbEntity
100
AcDbLine
  8
0
 62
256
370
-1
  6
BYLAYER
 10
-104.0
 20
-374.5
 30
0.0
 11
-104.0
 21
-472.5
 31
0.0
  0
LINE
  5
179
100
AcDbEntity
100
AcDbLine
  8
0
 62
256
370
-1
  6
BYLAYER
 10
-108.5
 20
-374.5
 30
0.0
 11
-104.0
 21
-374.5
 31
0.0
  0
LINE
  5
17A
100
AcDbEntity
100
AcDbLine
  8
0
 62
256
370
-1
  6
BYLAYER
 10
-138.5
 20
-374.5
 30
0.0
 11
-168.5
 21
-374.5
 31
0.0
  0
LINE
  5
17B
100
AcDbEntity
100
AcDbLine
  8
0
 62
256
370
-1
  6
BYLAYER
 10
-138.5
 20
-379.0
 30
0.0
 11
-168.5
 21
-379.0
 31
0.0
  0
LINE
  5
17C
100
AcDbEntity
100
AcDbLine
  8
0
 62
256
370
-1
  6
BYLAYER
 10
-138.5
 20
-374.5
 30
0.0
 11
-138.5
 21
-379.0
 31
0.0
  0
LINE
  5
17D
100
AcDbEntity
100
AcDbLine
  8
0
 62
256
370
-1
  6
BYLAYER
 10
-68.5
 20
-340.5
 30
0.0
 11
-68.5
 21
-336.0
 31
0.0
  0
LINE
  5
17E
100
AcDbEntity
100
AcDbLine
  8
0
 62
256
370
-1
  6
BYLAYER
 10
-100.5
 20
-336.0
 30
0.0
 11
-100.5
 21
-340.5
 31
0.0
  0
LINE
  5
17F
100
AcDbEntity
100
AcDbLine
  8
0
 62
256
370
-1
  6
BYLAYER
 10
-104.0
 20
-381.0
 30
0.0
 11
-68.0
 21
-381.0
 31
0.0
  0
LINE
  5
180
100
AcDbEntity
100
AcDbLine
  8
0
 62
256
370
-1
  6
BYLAYER
 10
-104.0
 20
-391.0
 30
0.0
 11
-68.0
 21
-391.0
 31
0.0
  0
LINE
  5
181
100
AcDbEntity
100
AcDbLine
  8
0
 62
256
370
-1
  6
BYLAYER
 10
-104.0
 20
-401.0
 30
0.0
 11
-68.0
 21
-401.0
 31
0.0
  0
LINE
  5
182
100
AcDbEntity
100
AcDbLine
  8
0
 62
256
370
-1
  6
BYLAYER
 10
-104.0
 20
-411.0
 30
0.0
 11
-68.0
 21
-411.0
 31
0.0
  0
LINE
  5
183
100
AcDbEntity
100
AcDbLine
  8
0
 62
256
370
-1
  6
BYLAYER
 10
-104.0
 20
-421.0
 30
0.0
 11
-68.0
 21
-421.0
 31
0.0
  0
LINE
  5
184
100
AcDbEntity
100
AcDbLine
  8
0
 62
256
370
-1
  6
BYLAYER
 10
-104.0
 20
-431.0
 30
0.0
 11
-68.0
 21
-431.0
 31
0.0
  0
LINE
  5
185
100
AcDbEntity
100
AcDbLine
  8
0
 62
256
370
-1
  6
BYLAYER
 10
-104.0
 20
-441.0
 30
0.0
 11
-68.0
 21
-441.0
 31
0.0
  0
LINE
  5
186
100
AcDbEntity
100
AcDbLine
  8
0
 62
256
370
-1
  6
BYLAYER
 10
-68.0
 20
-374.5
 30
0.0
 11
-68.0
 21
-441.0
 31
0.0
  0
LINE
  5
187
100
AcDbEntity
100
AcDbLine
  8
0
 62
256
370
-1
  6
BYLAYER
 10
-68.0
 20
-441.0
 30
0.0
 11
-68.0
 21
-441.0
 31
0.0
  0
LINE
  5
188
100
AcDbEntity
100
AcDbLine
  8
0
 62
256
370
-1
  6
BYLAYER
 10
-68.0
 20
-374.5
 30
0.0
 11
-63.5
 21
-374.5
 31
0.0
  0
LINE
  5
189
100
AcDbEntity
100
AcDbLine
  8
0
 62
256
370
-1
  6
BYLAYER
 10
-63.5
 20
-417.5
 30
0.0
 11
-63.5
 21
-374.5
 31
0.0
  0
LINE
  5
18A
100
AcDbEntity
100
AcDbLine
  8
0
 62
256
370
-1
  6
BYLAYER
 10
-63.5
 20
-417.5
 30
0.0
 11
15.4999999999999858
 21
-417.5
 31
0.0
  0
LINE
  5
18B
100
AcDbEntity
100
AcDbLine
  8
0
 62
256
370
-1
  6
BYLAYER
 10
4.4999999999999929
 20
-383.5
 30
0.0
 11
15.4999999999999929
 21
-383.5
 31
0.0
  0
LINE
  5
18C
100
AcDbEntity
100
AcDbLine
  8
0
 62
256
370
-1
  6
BYLAYER
 10
15.4999999999999929
 20
-383.5
 30
0.0
 11
15.4999999999999929
 21
-372.5
 31
0.0
  0
LINE
  5
18D
100
AcDbEntity
100
AcDbLine
  8
0
 62
256
370
-1
  6
BYLAYER
 10
15.4999999999999929
 20
-372.5
 30
0.0
 11
4.4999999999999929
 21
-372.5
 31
0.0
  0
LINE
  5
18E
100
AcDbEntity
100
AcDbLine
  8
0
 62
256
370
-1
  6
BYLAYER
 10
4.4999999999999929
 20
-372.5
 30
0.0
 11
4.4999999999999929
 21
-383.5
 31
0.0
  0
LINE
  5
18F
100
AcDbEntity
100
AcDbLine
  8
0
 62
256
370
-1
  6
BYLAYER
 10
15.499999999999984
 20
-437.5
 30
0.0
 11
15.4999999999999858
 21
-417.5
 31
0.0
  0
LINE
  5
190
100
AcDbEntity
100
AcDbLine
  8
0
 62
256
370
-1
  6
BYLAYER
 10
15.4999999999999822
 20
-461.5
 30
0.0
 11
15.5
 21
-472.5
 31
0.0
  0
LINE
  5
191
100
AcDbEntity
100
AcDbLine
  8
0
 62
256
370
-1
  6
BYLAYER
 10
10.9999999999999822
 20
-461.5
 30
0.0
 11
11.0
 21
-472.5
 31
0.0
  0
LINE
  5
192
100
AcDbEntity
100
AcDbLine
  8
0
 62
256
370
-1
  6
BYLAYER
 10
10.999999999999984
 20
-437.5
 30
0.0
 11
10.9999999999999858
 21
-422.0
 31
0.0
  0
LINE
  5
193
100
AcDbEntity
100
AcDbLine
  8
0
 62
256
370
-1
  6
BYLAYER
 10
-68.0
 20
-422.0
 30
0.0
 11
10.9999999999999858
 21
-422.0
 31
0.0
  0
LINE
  5
194
100
AcDbEntity
100
AcDbLine
  8
0
 62
256
370
-1
  6
BYLAYER
 10
10.9999999999999822
 20
-461.5
 30
0.0
 11
15.4999999999999822
 21
-461.5
 31
0.0
  0
LINE
  5
195
100
AcDbEntity
100
AcDbLine
  8
0
 62
256
370
-1
  6
BYLAYER
 10
10.999999999999984
 20
-437.5
 30
0.0
 11
15.499999999999984
 21
-437.5
 31
0.0
  0
LINE
  5
196
100
AcDbEntity
100
AcDbLine
  8
0
 62
256
370
-1
  6
BYLAYER
 10
90.5
 20
-432.0
 30
0.0
 11
90.5
 21
-422.5
 31
0.0
  0
LINE
  5
197
100
AcDbEntity
100
AcDbLine
  8
0
 62
256
370
-1
  6
BYLAYER
 10
90.5
 20
-422.5
 30
0.0
 11
102.5
 21
-422.5
 31
0.0
  0
LINE
  5
198
100
AcDbEntity
100
AcDbLine
  8
0
 62
256
370
-1
  6
BYLAYER
 10
127.5
 20
-397.5
 30
0.0
 11
142.5
 21
-397.5
 31
0.0
  0
LINE
  5
199
100
AcDbEntity
100
AcDbLine
  8
0
 62
256
370
-1
  6
BYLAYER
 10
127.5
 20
-409.5
 30
0.0
 11
127.5
 21
-397.5
 31
0.0
  0
LINE
  5
19A
100
AcDbEntity
100
AcDbLine
  8
0
 62
256
370
-1
  6
BYLAYER
 10
127.5
 20
-409.5
 30
0.0
 11
102.5
 21
-422.5
 31
0.0
  0
LINE
  5
19B
100
AcDbEntity
100
AcDbLine
  8
0
 62
256
370
-1
  6
BYLAYER
 10
142.5
 20
-409.5
 30
0.0
 11
166.5
 21
-409.5
 31
0.0
  0
LINE
  5
19C
100
AcDbEntity
100
AcDbLine
  8
0
 62
256
370
-1
  6
BYLAYER
 10
142.5
 20
-409.5
 30
0.0
 11
142.5
 21
-397.5
 31
0.0
  0
LINE
  5
19D
100
AcDbEntity
100
AcDbLine
  8
0
 62
256
370
-1
  6
BYLAYER
 10
-312.5
 20
-238.5
 30
0.0
 11
-204.5
 21
-238.5
 31
0.0
  0
LINE
  5
19E
100
AcDbEntity
100
AcDbLine
  8
0
 62
256
370
-1
  6
BYLAYER
 10
-204.5
 20
-274.5
 30
0.0
 11
-204.5
 21
-238.5
 31
0.0
  0
LINE
  5
19F
100
AcDbEntity
100
AcDbLine
  8
0
 62
256
370
-1
  6
BYLAYER
 10
-204.5
 20
-304.5
 30
0.0
 11
-204.5
 21
-336.0
 31
0.0
  0
LINE
  5
1A0
100
AcDbEntity
100
AcDbLine
  8
0
 62
256
370
-1
  6
BYLAYER
 10
-200.0
 20
-304.5
 30
0.0
 11
-200.0
 21
-336.0
 31
0.0
  0
LINE
  5
1A1
100
AcDbEntity
100
AcDbLine
  8
0
 62
256
370
-1
  6
BYLAYER
 10
-200.0
 20
-274.5
 30
0.0
 11
-200.0
 21
-238.5
 31
0.0
  0
LINE
  5
1A2
100
AcDbEntity
100
AcDbLine
  8
0
 62
256
370
-1
  6
BYLAYER
 10
-204.5
 20
-304.5
 30
0.0
 11
-200.0
 21
-304.5
 31
0.0
  0
LINE
  5
1A3
100
AcDbEntity
100
AcDbLine
  8
0
 62
256
370
-1
  6
BYLAYER
 10
-200.0
 20
-274.5
 30
0.0
 11
-204.5
 21
-274.5
 31
0.0
  0
LINE
  5
1A4
100
AcDbEntity
100
AcDbLine
  8
0
 62
256
370
-1
  6
BYLAYER
 10
95.0
 20
-432.0
 30
0.0
 11
95.0
 21
-427.0
 31
0.0
  0
LINE
  5
1A5
100
AcDbEntity
100
AcDbLine
  8
0
 62
256
370
-1
  6
BYLAYER
 10
132.0
 20
-412.2320410092979159
 30
0.0
 11
132.0
 21
-402.0
 31
0.0
  0
LINE
  5
1A6
100
AcDbEntity
100
AcDbLine
  8
0
 62
256
370
-1
  6
BYLAYER
 10
132.0
 20
-402.0
 30
0.0
 11
138.0
 21
-402.0
 31
0.0
  0
LINE
  5
1A7
100
AcDbEntity
100
AcDbLine
  8
0
 62
256
370
-1
  6
BYLAYER
 10
138.0
 20
-414.0
 30
0.0
 11
138.0
 21
-402.0
 31
0.0
  0
LINE
  5
1A8
100
AcDbEntity
100
AcDbLine
  8
0
 62
256
370
-1
  6
BYLAYER
 10
138.0
 20
-414.0
 30
0.0
 11
166.5
 21
-414.0
 31
0.0
  0
LINE
  5
1A9
100
AcDbEntity
100
AcDbLine
  8
0
 62
256
370
-1
  6
BYLAYER
 10
132.0
 20
-412.2320410092979159
 30
0.0
 11
103.6000788640344439
 21
-427.0
 31
0.0
  0
LINE
  5
1AA
100
AcDbEntity
100
AcDbLine
  8
0
 62
256
370
-1
  6
BYLAYER
 10
95.0
 20
-427.0
 30
0.0
 11
103.6000788640344297
 21
-427.0
 31
0.0
  0
LINE
  5
1AB
100
AcDbEntity
100
AcDbLine
  8
0
 62
256
370
-1
  6
BYLAYER
 10
90.5
 20
-432.0
 30
0.0
 11
95.0
 21
-432.0
 31
0.0
  0
LINE
  5
1AC
100
AcDbEntity
100
AcDbLine
  8
0
 62
256
370
-1
  6
BYLAYER
 10
-328.5
 20
-488.5
 30
0.0
 11
-328.5
 21
-222.5
 31
0.0
  0
LINE
  5
1AD
100
AcDbEntity
100
AcDbLine
  8
0
 62
256
370
-1
  6
BYLAYER
 10
182.5
 20
-222.5
 30
0.0
 11
-328.5
 21
-222.5
 31
0.0
  0
LINE
  5
1AE
100
AcDbEntity
100
AcDbLine
  8
0
 62
256
370
-1
  6
BYLAYER
 10
-328.5
 20
-488.5
 30
0.0
 11
182.5
 21
-488.5
 31
0.0
  0
LINE
  5
1AF
100
AcDbEntity
100
AcDbLine
  8
0
 62
256
370
-1
  6
BYLAYER
 10
182.5
 20
-222.5
 30
0.0
 11
182.5
 21
-488.5
 31
0.0
  0
LINE
  5
1B0
100
AcDbEntity
100
AcDbLine
  8
0
 62
256
370
-1
  6
BYLAYER
 10
166.5
 20
-356.5
 30
0.0
 11
166.5
 21
-262.5
 31
0.0
  0
LINE
  5
1B1
100
AcDbEntity
100
AcDbLine
  8
0
 62
256
370
-1
  6
BYLAYER
 10
180.5
 20
-356.5
 30
0.0
 11
180.5
 21
-262.5
 31
0.0
  0
LINE
  5
1B2
100
AcDbEntity
100
AcDbLine
  8
0
 62
256
370
-1
  6
BYLAYER
 10
166.5
 20
-238.5
 30
0.0
 11
166.5
 21
-472.5
 31
0.0
  0
LINE
  5
1B3
100
AcDbEntity
100
AcDbLine
  8
0
 62
256
370
-1
  6
BYLAYER
 10
180.5
 20
-262.5
 30
0.0
 11
166.5
 21
-262.5
 31
0.0
  0
LINE
  5
1B4
100
AcDbEntity
100
AcDbLine
  8
0
 62
256
370
-1
  6
BYLAYER
 10
180.5
 20
-356.5
 30
0.0
 11
166.5
 21
-356.5
 31
0.0
  0
LINE
  5
1B5
100
AcDbEntity
100
AcDbLine
  8
0
 62
256
370
-1
  6
BYLAYER
 10
-326.5
 20
-259.5
 30
0.0
 11
-326.5
 21
-315.0
 31
0.0
  0
LINE
  5
1B6
100
AcDbEntity
100
AcDbLine
  8
0
 62
256
370
-1
  6
BYLAYER
 10
-326.5
 20
-259.5
 30
0.0
 11
-312.5
 21
-259.5
 31
0.0
  0
LINE
  5
1B7
100
AcDbEntity
100
AcDbLine
  8
0
 62
256
370
-1
  6
BYLAYER
 10
-326.5
 20
-315.0
 30
0.0
 11
-312.5
 21
-315.0
 31
0.0
  0
DIMENSION
  5
1B8
100
AcDbEntity
  8
dimensions
 62
256
370
-1
  6
BYLAYER
100
AcDbDimension
 10
-312.5
 20
-204.0
 30
0.0
 11
-258.5
 21
-200.25
 31
0.0
 70
1
 71
8
 72
2
 41
1.0
 42
0.0
  1

  3
Standard
100
AcDbAlignedDimension
 13
-312.5
 23
-238.5
 33
0.0
 14
-204.5
 24
-238.5
 34
0.0
1001
ACAD
1000
DSTYLE
1002
{
1070
144
1040
1
1002
}
  0
DIMENSION
  5
1B9
100
AcDbEntity
  8
dimensions
 62
256
370
-1
  6
BYLAYER
100
AcDbDimension
 10
-348.0
 20
-238.5
 30
0.0
 11
-351.75
 21
-287.25
 31
0.0
 70
1
 71
8
 72
2
 41
1.0
 42
0.0
  1

  3
Standard
100
AcDbAlignedDimension
 13
-312.5
 23
-238.5
 33
0.0
 14
-312.5
 24
-336.0
 34
0.0
1001
ACAD
1000
DSTYLE
1002
{
1070
144
1040
1
1002
}
  0
DIMENSION
  5
1BA
100
AcDbEntity
  8
dimensions
 62
256
370
-1
  6
BYLAYER
100
AcDbDimension
 10
-348.0
 20
-340.5
 30
0.0
 11
-351.75
 21
-406.5
 31
0.0
 70
1
 71
8
 72
2
 41
1.0
 42
0.0
  1

  3
Standard
100
AcDbAlignedDimension
 13
-312.5
 23
-340.5
 33
0.0
 14
-312.5
 24
-472.5
 34
0.0
1001
ACAD
1000
DSTYLE
1002
{
1070
144
1040
1
1002
}
  0
DIMENSION
  5
1BB
100
AcDbEntity
  8
dimensions
 62
256
370
-1
  6
BYLAYER
100
AcDbDimension
 10
-201.0000000000000284
 20
-504.0
 30
0.0
 11
-256.75
 21
-500.25
 31
0.0
 70
1
 71
8
 72
2
 41
1.0
 42
0.0
  1

  3
Standard
100
AcDbAlignedDimension
 13
-201.0
 23
-410.5
 33
0.0
 14
-312.5
 24
-410.5
 34
0.0
1001
ACAD
1000
DSTYLE
1002
{
1070
144
1040
1
1002
}
  0
DIMENSION
  5
1BC
100
AcDbEntity
  8
dimensions
 62
256
370
-1
  6
BYLAYER
100
AcDbDimension
 10
15.5000000000000018
 20
-204.0
 30
0.0
 11
91.0
 21
-200.25
 31
0.0
 70
1
 71
8
 72
2
 41
1.0
 42
0.0
  1

  3
Standard
100
AcDbAlignedDimension
 13
15.5
 23
-238.5
 33
0.0
 14
166.5
 24
-238.5
 34
0.0
1001
ACAD
1000
DSTYLE
1002
{
1070
144
1040
1
1002
}
  0
DIMENSION
  5
1BD
100
AcDbEntity
  8
dimensions
 62
256
370
-1
  6
BYLAYER
100
AcDbDimension
 10
35.9999999999999929
 20
-340.5
 30
0.0
 11
32.25
 21
-289.5
 31
0.0
 70
1
 71
8
 72
2
 41
1.0
 42
0.0
  1

  3
Standard
100
AcDbAlignedDimension
 13
15.4999999999999947
 23
-340.5
 33
0.0
 14
15.5
 24
-238.5
 34
0.0
1001
ACAD
1000
DSTYLE
1002
{
1070
144
1040
1
1002
}
  0
MTEXT
  5
1BE
100
AcDbEntity
100
AcDbMText
  8
electrical
 62
256
370
-1
  6
BYLAYER
 10
108.0
 20
-444.0
 30
0.0
 40
25.0
 41
0.0
 71
1
 72
1
  1
?
  7
textstyle1
 50
0.0
 73
2
 44
1.0
  0
INSERT
  5
1BF
100
AcDbEntity
100
AcDbBlockReference
  8
electrical
 62
256
370
-1
  6
BYLAYER
  2
outlet
 10
20.0
 20
-254.2679491924311037
 30
0.0
  0
INSERT
  5
1C0
100
AcDbEntity
100
AcDbBlockReference
  8
electrical
 62
256
370
-1
  6
BYLAYER
  2
light
 10
96.0
 20
-310.0
 30
0.0
  0
MTEXT
  5
1C1
100
AcDbEntity
100
AcDbMText
  8
electrical
 62
256
370
-1
  6
BYLAYER
 10
22.0
 20
-256.0
 30
0.0
 40
2.5
 41
0.0
 71
1
 72
1
  1
21
  7
textstyle2
 50
0.0
 73
2
 44
1.0
  0
MTEXT
  5
1C2
100
AcDbEntity
100
AcDbMText
  8
electrical
 62
256
370
-1
  6
BYLAYER
 10
163.152455661664419
 20
-258.2320508075688963
 30
0.0
 40
2.5
 41
0.0
 71
1
 72
1
  1
25
  7
textstyle3
 50
0.0
 73
2
 44
1.0
  0
INSERT
  5
1C3
100
AcDbEntity
100
AcDbBlockReference
  8
electrical
 62
256
370
-1
  6
BYLAYER
  2
outlet
 10
161.1524556616643906
 20
-256.5
 30
0.0
  0
MTEXT
  5
1C4
100
AcDbEntity
100
AcDbMText
  8
electrical
 62
256
370
-1
  6
BYLAYER
 10
163.152455661664419
 20
-386.2320508075688963
 30
0.0
 40
2.5
 41
0.0
 71
1
 72
1
  1
25
  7
textstyle4
 50
0.0
 73
2
 44
1.0
  0
INSERT
  5
1C5
100
AcDbEntity
100
AcDbBlockReference
  8
electrical
 62
256
370
-1
  6
BYLAYER
  2
outlet
 10
161.1524556616643906
 20
-384.5
 30
0.0
  0
MTEXT
  5
1C6
100
AcDbEntity
100
AcDbMText
  8
electrical
 62
256
370
-1
  6
BYLAYER
 10
-10.8475443383355703
 20
-348.2320508075688963
 30
0.0
 40
2.5
 41
0.0
 71
1
 72
1
  1
21
  7
textstyle5
 50
0.0
 73
2
 44
1.0
  0
INSERT
  5
1C7
100
AcDbEntity
100
AcDbBlockReference
  8
electrical
 62
256
370
-1
  6
BYLAYER
  2
outlet
 10
-12.8475443383356094
 20
-346.5
 30
0.0
  0
MTEXT
  5
1C8
100
AcDbEntity
100
AcDbMText
  8
electrical
 62
256
370
-1
  6
BYLAYER
 10
-46.8475443383355667
 20
-408.2320508075688963
 30
0.0
 40
2.5
 41
0.0
 71
1
 72
1
  1
21
  7
textstyle6
 50
0.0
 73
2
 44
1.0
  0
INSERT
  5
1C9
100
AcDbEntity
100
AcDbBlockReference
  8
electrical
 62
256
370
-1
  6
BYLAYER
  2
outlet
 10
-48.8475443383356094
 20
-406.5
 30
0.0
  0
MTEXT
  5
1CA
100
AcDbEntity
100
AcDbMText
  8
electrical
 62
256
370
-1
  6
BYLAYER
 10
98.431070941337012
 20
-312.7448840381991886
 30
0.0
 40
2.5
 41
0.0
 71
1
 72
1
  1
27
  7
textstyle7
 50
0.0
 73
2
 44
1.0
  0
LINE
  5
1CB
100
AcDbEntity
100
AcDbLine
  8
0
 62
256
370
-1
  6
BYLAYER
 10
-24.0
 20
-422.0
 30
0.0
 11
-24.0
 21
-472.5
 31
0.0
  0
INSERT
  5
1CC
100
AcDbEntity
100
AcDbBlockReference
  8
electrical
 62
256
370
-1
  6
BYLAYER
  2
switch
 10
-10.1677248493141796
 20
-438.2303882827716279
 30
0.0
  0
MTEXT
  5
1CD
100
AcDbEntity
100
AcDbMText
  8
electrical
 62
256
370
-1
  6
BYLAYER
 10
-15.0
 20
-437.0
 30
0.0
 40
2.5
 41
0.0
 71
1
 72
1
  1
27
  7
textstyle8
 50
0.0
 73
2
 44
1.0
  0
MTEXT
  5
1CE
100
AcDbEntity
100
AcDbMText
  8
electrical
 62
256
370
-1
  6
BYLAYER
 10
-15.5689290586631159
 20
-428.2320508075688963
 30
0.0
 40
2.5
 41
0.0
 71
1
 72
1
  1
27
  7
textstyle9
 50
0.0
 73
2
 44
1.0
  0
INSERT
  5
1CF
100
AcDbEntity
100
AcDbBlockReference
  8
electrical
 62
256
370
-1
  6
BYLAYER
  2
outlet
 10
-17.5689290586630449
 20
-426.5
 30
0.0
  0
INSERT
  5
1D0
100
AcDbEntity
100
AcDbBlockReference
  8
electrical
 62
256
370
-1
  6
BYLAYER
  2
switch
 10
28.2059056517412756
 20
-329.4600781795850253
 30
0.0
  0
MTEXT
  5
1D1
100
AcDbEntity
100
AcDbMText
  8
electrical
 62
256
370
-1
  6
BYLAYER
 10
23.3736305010554766
 20
-328.2296898968133974
 30
0.0
 40
2.5
 41
0.0
 71
1
 72
1
  1
27
  7
textstyle10
 50
0.0
 73
2
 44
1.0
  0
INSERT
  5
1D2
100
AcDbEntity
100
AcDbBlockReference
  8
electrical
 62
256
370
-1
  6
BYLAYER
  2
light
 10
-101.0257673942701331
 20
-279.3724420190995943
 30
0.0
  0
MTEXT
  5
1D3
100
AcDbEntity
100
AcDbMText
  8
electrical
 62
256
370
-1
  6
BYLAYER
 10
-98.5946964529333627
 20
-282.1173260572988966
 30
0.0
 40
2.5
 41
0.0
 71
1
 72
1
  1
13
  7
textstyle11
 50
0.0
 73
2
 44
1.0
  0
INSERT
  5
1D4
100
AcDbEntity
100
AcDbBlockReference
  8
electrical
 62
256
370
-1
  6
BYLAYER
  2
light
 10
-25.0257673942701331
 20
-279.3724420190995943
 30
0.0
  0
MTEXT
  5
1D5
100
AcDbEntity
100
AcDbMText
  8
electrical
 62
256
370
-1
  6
BYLAYER
 10
-22.5946964529333627
 20
-282.1173260572988966
 30
0.0
 40
2.5
 41
0.0
 71
1
 72
1
  1
13
  7
textstyle12
 50
0.0
 73
2
 44
1.0
  0
INSERT
  5
1D6
100
AcDbEntity
100
AcDbBlockReference
  8
electrical
 62
256
370
-1
  6
BYLAYER
  2
light
 10
-165.0257673942701331
 20
-279.3724420190995943
 30
0.0
  0
MTEXT
  5
1D7
100
AcDbEntity
100
AcDbMText
  8
electrical
 62
256
370
-1
  6
BYLAYER
 10
-162.5946964529333627
 20
-282.1173260572988966
 30
0.0
 40
2.5
 41
0.0
 71
1
 72
1
  1
13
  7
textstyle13
 50
0.0
 73
2
 44
1.0
  0
INSERT
  5
1D8
100
AcDbEntity
100
AcDbBlockReference
  8
electrical
 62
256
370
-1
  6
BYLAYER
  2
switch
 10
-102.3940943482587329
 20
-345.4600781795850253
 30
0.0
  0
MTEXT
  5
1D9
100
AcDbEntity
100
AcDbMText
  8
electrical
 62
256
370
-1
  6
BYLAYER
 10
-107.2263694989445213
 20
-344.2296898968133974
 30
0.0
 40
2.5
 41
0.0
 71
1
 72
1
  1
13
  7
textstyle14
 50
0.0
 73
2
 44
1.0
  0
INSERT
  5
1DA
100
AcDbEntity
100
AcDbBlockReference
  8
electrical
 62
256
370
-1
  6
BYLAYER
  2
switch
 10
-110.3940943482587329
 20
-345.4600781795850253
 30
0.0
  0
MTEXT
  5
1DB
100
AcDbEntity
100
AcDbMText
  8
electrical
 62
256
370
-1
  6
BYLAYER
 10
-115.2263694989445213
 20
-344.2296898968133974
 30
0.0
 40
2.5
 41
0.0
 71
1
 72
1
  1
19
  7
textstyle15
 50
0.0
 73
2
 44
1.0
  0
INSERT
  5
1DC
100
AcDbEntity
100
AcDbBlockReference
  8
electrical
 62
256
370
-1
  6
BYLAYER
  2
light
 10
-85.0257673942701331
 20
-355.3724420190995943
 30
0.0
  0
MTEXT
  5
1DD
100
AcDbEntity
100
AcDbMText
  8
electrical
 62
256
370
-1
  6
BYLAYER
 10
-82.5946964529333627
 20
-358.1173260572988966
 30
0.0
 40
2.5
 41
0.0
 71
1
 72
1
  1
19
  7
textstyle16
 50
0.0
 73
2
 44
1.0
  0
INSERT
  5
1DE
100
AcDbEntity
100
AcDbBlockReference
  8
electrical
 62
256
370
-1
  6
BYLAYER
  2
switch
 10
-68.2592375951891626
 20
-91.4387616720815686
 30
0.0
  0
MTEXT
  5
1DF
100
AcDbEntity
100
AcDbMText
  8
electrical
 62
256
370
-1
  6
BYLAYER
 10
-73.0915127458749794
 20
-90.2083733893098838
 30
0.0
 40
2.5
 41
0.0
 71
1
 72
1
  1
19
  7
textstyle17
 50
0.0
 73
2
 44
1.0
  0
INSERT
  5
1E0
100
AcDbEntity
100
AcDbBlockReference
  8
electrical
 62
256
370
-1
  6
BYLAYER
  2
switch
 10
-60.2592375951891626
 20
-91.4387616720815686
 30
0.0
  0
MTEXT
  5
1E1
100
AcDbEntity
100
AcDbMText
  8
electrical
 62
256
370
-1
  6
BYLAYER
 10
-65.0915127458749794
 20
-90.2083733893098838
 30
0.0
 40
2.5
 41
0.0
 71
1
 72
1
  1
19
  7
textstyle18
 50
0.0
 73
2
 44
1.0
  0
INSERT
  5
1E2
100
AcDbEntity
100
AcDbBlockReference
  8
electrical
 62
256
370
-1
  6
BYLAYER
  2
switch
 10
-52.2592375951891626
 20
-91.4387616720815686
 30
0.0
  0
MTEXT
  5
1E3
100
AcDbEntity
100
AcDbMText
  8
electrical
 62
256
370
-1
  6
BYLAYER
 10
-57.0915127458749794
 20
-90.2083733893098838
 30
0.0
 40
2.5
 41
0.0
 71
1
 72
1
  1
19
  7
textstyle19
 50
0.0
 73
2
 44
1.0
  0
INSERT
  5
1E4
100
AcDbEntity
100
AcDbBlockReference
  8
electrical
 62
256
370
-1
  6
BYLAYER
  2
switch
 10
-142.2592375951891768
 20
-369.4387616720815686
 30
0.0
  0
MTEXT
  5
1E5
100
AcDbEntity
100
AcDbMText
  8
electrical
 62
256
370
-1
  6
BYLAYER
 10
-147.0915127458749794
 20
-368.2083733893098838
 30
0.0
 40
2.5
 41
0.0
 71
1
 72
1
  1
9
  7
textstyle20
 50
0.0
 73
2
 44
1.0
  0
INSERT
  5
1E6
100
AcDbEntity
100
AcDbBlockReference
  8
electrical
 62
256
370
-1
  6
BYLAYER
  2
light
 10
-136.8909106412004348
 20
-355.3511255115961376
 30
0.0
  0
MTEXT
  5
1E7
100
AcDbEntity
100
AcDbMText
  8
electrical
 62
256
370
-1
  6
BYLAYER
 10
-134.4598396998636645
 20
-358.0960095497954399
 30
0.0
 40
2.5
 41
0.0
 71
1
 72
1
  1
9
  7
textstyle21
 50
0.0
 73
2
 44
1.0
  0
INSERT
  5
1E8
100
AcDbEntity
100
AcDbBlockReference
  8
electrical
 62
256
370
-1
  6
BYLAYER
  2
light
 10
-220.0374999999999091
 20
-447.3511255115961376
 30
0.0
  0
MTEXT
  5
1E9
100
AcDbEntity
100
AcDbMText
  8
electrical
 62
256
370
-1
  6
BYLAYER
 10
-217.606429058663025
 20
-450.0960095497954967
 30
0.0
 40
2.5
 41
0.0
 71
1
 72
1
  1
9
  7
textstyle22
 50
0.0
 73
2
 44
1.0
  0
INSERT
  5
1EA
100
AcDbEntity
100
AcDbBlockReference
  8
electrical
 62
256
370
-1
  6
BYLAYER
  2
switch
 10
-201.4058269539885941
 20
-381.4387616720816254
 30
0.0
  0
MTEXT
  5
1EB
100
AcDbEntity
100
AcDbMText
  8
electrical
 62
256
370
-1
  6
BYLAYER
 10
-206.2381021046745389
 20
-380.2083733893098838
 30
0.0
 40
2.5
 41
0.0
 71
1
 72
1
  1
9
  7
textstyle23
 50
0.0
 73
2
 44
1.0
  0
MTEXT
  5
1EC
100
AcDbEntity
100
AcDbMText
  8
electrical
 62
256
370
-1
  6
BYLAYER
 10
-251.5689290586631159
 20
-348.2320508075688963
 30
0.0
 40
2.5
 41
0.0
 71
1
 72
1
  1
9
  7
textstyle24
 50
0.0
 73
2
 44
1.0
  0
INSERT
  5
1ED
100
AcDbEntity
100
AcDbBlockReference
  8
electrical
 62
256
370
-1
  6
BYLAYER
  2
outlet
 10
-253.5689290586630591
 20
-346.5
 30
0.0
  0
MTEXT
  5
1EE
100
AcDbEntity
100
AcDbMText
  8
electrical
 62
256
370
-1
  6
BYLAYER
 10
-306.8219645293314102
 20
-392.2320508075689531
 30
0.0
 40
2.5
 41
0.0
 71
1
 72
1
  1
9
  7
textstyle25
 50
0.0
 73
2
 44
1.0
  0
INSERT
  5
1EF
100
AcDbEntity
100
AcDbBlockReference
  8
electrical
 62
256
370
-1
  6
BYLAYER
  2
outlet
 10
-308.821964529331467
 20
-390.5
 30
0.0
  0
MTEXT
  5
1F0
100
AcDbEntity
100
AcDbMText
  8
electrical
 62
256
370
-1
  6
BYLAYER
 10
-230.8219645293314102
 20
-468.2320508075689531
 30
0.0
 40
2.5
 41
0.0
 71
1
 72
1
  1
9
  7
textstyle26
 50
0.0
 73
2
 44
1.0
  0
INSERT
  5
1F1
100
AcDbEntity
100
AcDbBlockReference
  8
electrical
 62
256
370
-1
  6
BYLAYER
  2
outlet
 10
-232.821964529331467
 20
-466.5
 30
0.0
  0
INSERT
  5
1F2
100
AcDbEntity
100
AcDbBlockReference
  8
electrical
 62
256
370
-1
  6
BYLAYER
  2
switch
 10
-137.4058269539885941
 20
-385.4387616720816254
 30
0.0
  0
MTEXT
  5
1F3
100
AcDbEntity
100
AcDbMText
  8
electrical
 62
256
370
-1
  6
BYLAYER
 10
-142.2381021046745389
 20
-384.2083733893098838
 30
0.0
 40
2.5
 41
0.0
 71
1
 72
1
  1
9
  7
textstyle27
 50
0.0
 73
2
 44
1.0
  0
INSERT
  5
1F4
100
AcDbEntity
100
AcDbBlockReference
  8
electrical
 62
256
370
-1
  6
BYLAYER
  2
switch
 10
-145.4058269539885941
 20
-385.4387616720816254
 30
0.0
  0
MTEXT
  5
1F5
100
AcDbEntity
100
AcDbMText
  8
electrical
 62
256
370
-1
  6
BYLAYER
 10
-150.2381021046745389
 20
-384.2083733893098838
 30
0.0
 40
2.5
 41
0.0
 71
1
 72
1
  1
31\PFan
  7
textstyle28
 50
0.0
 73
2
 44
1.0
  0
MTEXT
  5
1F6
100
AcDbEntity
100
AcDbMText
  8
electrical
 62
256
370
-1
  6
BYLAYER
 10
-162.8219645293314102
 20
-384.2320508075689531
 30
0.0
 40
2.5
 41
0.0
 71
1
 72
1
  1
31
  7
textstyle29
 50
0.0
 73
2
 44
1.0
  0
INSERT
  5
1F7
100
AcDbEntity
100
AcDbBlockReference
  8
electrical
 62
256
370
-1
  6
BYLAYER
  2
outlet
 10
-164.821964529331467
 20
-382.5
 30
0.0
  0
MTEXT
  5
1F8
100
AcDbEntity
100
AcDbMText
  8
electrical
 62
256
370
-1
  6
BYLAYER
 10
-116.1614991033103763
 20
-414.2611019022703545
 30
0.0
 40
2.5
 41
0.0
 71
1
 72
1
  1
31
  7
textstyle30
 50
0.0
 73
2
 44
1.0
  0
INSERT
  5
1F9
100
AcDbEntity
100
AcDbBlockReference
  8
electrical
 62
256
370
-1
  6
BYLAYER
  2
switch
 10
-111.3292239526242895
 20
-415.4914901850420961
 30
0.0
  0
MTEXT
  5
1FA
100
AcDbEntity
100
AcDbMText
  8
electrical
 62
256
370
-1
  6
BYLAYER
 10
-116.1614991033103763
 20
-422.2611019022703545
 30
0.0
 40
2.5
 41
0.0
 71
1
 72
1
  1
31
  7
textstyle31
 50
0.0
 73
2
 44
1.0
  0
INSERT
  5
1FB
100
AcDbEntity
100
AcDbBlockReference
  8
electrical
 62
256
370
-1
  6
BYLAYER
  2
switch
 10
-111.3292239526242895
 20
-423.4914901850420961
 30
0.0
  0
INSERT
  5
1FC
100
AcDbEntity
100
AcDbBlockReference
  8
electrical
 62
256
370
-1
  6
BYLAYER
  2
light
 10
-128.0374999999999091
 20
-427.3511255115961376
 30
0.0
  0
MTEXT
  5
1FD
100
AcDbEntity
100
AcDbMText
  8
electrical
 62
256
370
-1
  6
BYLAYER
 10
-125.606429058663025
 20
-430.0960095497954967
 30
0.0
 40
2.5
 41
0.0
 71
1
 72
1
  1
31
  7
textstyle32
 50
0.0
 73
2
 44
1.0
  0
INSERT
  5
1FE
100
AcDbEntity
100
AcDbBlockReference
  8
electrical
 62
256
370
-1
  6
BYLAYER
  2
light
 10
-128.0374999999999091
 20
-447.3511255115961376
 30
0.0
  0
MTEXT
  5
1FF
100
AcDbEntity
100
AcDbMText
  8
electrical
 62
256
370
-1
  6
BYLAYER
 10
-125.606429058663025
 20
-450.0960095497954967
 30
0.0
 40
2.5
 41
0.0
 71
1
 72
1
  1
31
  7
textstyle33
 50
0.0
 73
2
 44
1.0
  0
MTEXT
  5
200
100
AcDbEntity
100
AcDbMText
  8
electrical
 62
256
370
-1
  6
BYLAYER
 10
-93.5000000000001421
 20
-244.2320508075688963
 30
0.0
 40
2.5
 41
0.0
 71
1
 72
1
  1
6,8\PCD
  7
textstyle34
 50
0.0
 73
2
 44
1.0
  0
MTEXT
  5
201
100
AcDbEntity
100
AcDbMText
  8
electrical
 62
256
370
-1
  6
BYLAYER
 10
-79.568929058663187
 20
-244.2320508075688963
 30
0.0
 40
2.5
 41
0.0
 71
1
 72
1
  1
3
  7
textstyle35
 50
0.0
 73
2
 44
1.0
  0
INSERT
  5
202
100
AcDbEntity
100
AcDbBlockReference
  8
electrical
 62
256
370
-1
  6
BYLAYER
  2
outlet
 10
-81.5689290586630449
 20
-242.5
 30
0.0
  0
INSERT
  5
203
100
AcDbEntity
100
AcDbBlockReference
  8
electrical
 62
256
370
-1
  6
BYLAYER
  2
light
 10
-60.8909106412004348
 20
-443.3511255115961376
 30
0.0
  0
MTEXT
  5
204
100
AcDbEntity
100
AcDbMText
  8
electrical
 62
256
370
-1
  6
BYLAYER
 10
-58.4598396998636645
 20
-446.0960095497954399
 30
0.0
 40
2.5
 41
0.0
 71
1
 72
1
  1
27
  7
textstyle36
 50
0.0
 73
2
 44
1.0
  0
MTEXT
  5
205
100
AcDbEntity
100
AcDbMText
  8
electrical
 62
256
370
-1
  6
BYLAYER
 10
40.4310709413367633
 20
-468.2320508075688963
 30
0.0
 40
2.5
 41
0.0
 71
1
 72
1
  1
25
  7
textstyle37
 50
0.0
 73
2
 44
1.0
  0
INSERT
  5
206
100
AcDbEntity
100
AcDbBlockReference
  8
electrical
 62
256
370
-1
  6
BYLAYER
  2
outlet
 10
38.4310709413370049
 20
-466.5
 30
0.0
  0
INSERT
  5
207
100
AcDbEntity
100
AcDbBlockReference
  8
electrical
 62
256
370
-1
  6
BYLAYER
  2
switch
 10
-6.3940943482587258
 20
-413.4600781795850253
 30
0.0
  0
MTEXT
  5
208
100
AcDbEntity
100
AcDbMText
  8
electrical
 62
256
370
-1
  6
BYLAYER
 10
-11.2263694989445248
 20
-412.2296898968133974
 30
0.0
 40
2.5
 41
0.0
 71
1
 72
1
  1
23
  7
textstyle38
 50
0.0
 73
2
 44
1.0
  0
INSERT
  5
209
100
AcDbEntity
100
AcDbBlockReference
  8
electrical
 62
256
370
-1
  6
BYLAYER
  2
switch
 10
5.6059056517412742
 20
-413.4600781795850253
 30
0.0
  0
MTEXT
  5
20A
100
AcDbEntity
100
AcDbMText
  8
electrical
 62
256
370
-1
  6
BYLAYER
 10
0.773630501055475
 20
-412.2296898968133974
 30
0.0
 40
2.5
 41
0.0
 71
1
 72
1
  1
29
  7
textstyle39
 50
0.0
 73
2
 44
1.0
  0
INSERT
  5
20B
100
AcDbEntity
100
AcDbBlockReference
  8
electrical
 62
256
370
-1
  6
BYLAYER
  2
light
 10
59.1090893587995652
 20
-447.3511255115961376
 30
0.0
  0
MTEXT
  5
20C
100
AcDbEntity
100
AcDbMText
  8
electrical
 62
256
370
-1
  6
BYLAYER
 10
61.5401603001363355
 20
-450.0960095497954399
 30
0.0
 40
2.5
 41
0.0
 71
1
 72
1
  1
29
  7
textstyle40
 50
0.0
 73
2
 44
1.0
  0
INSERT
  5
20D
100
AcDbEntity
100
AcDbBlockReference
  8
electrical
 62
256
370
-1
  6
BYLAYER
  2
light
 10
131.1090893587995652
 20
-447.3511255115961376
 30
0.0
  0
MTEXT
  5
20E
100
AcDbEntity
100
AcDbMText
  8
electrical
 62
256
370
-1
  6
BYLAYER
 10
133.5401603001363355
 20
-450.0960095497954399
 30
0.0
 40
2.5
 41
0.0
 71
1
 72
1
  1
23
  7
textstyle41
 50
0.0
 73
2
 44
1.0
  0
INSERT
  5
20F
100
AcDbEntity
100
AcDbBlockReference
  8
electrical
 62
256
370
-1
  6
BYLAYER
  2
light
 10
-257.0283253751704251
 20
-279.3511255115961376
 30
0.0
  0
MTEXT
  5
210
100
AcDbEntity
100
AcDbMText
  8
electrical
 62
256
370
-1
  6
BYLAYER
 10
-254.5972544338337116
 20
-282.0960095497954399
 30
0.0
 40
2.5
 41
0.0
 71
1
 72
1
  1
13
  7
textstyle42
 50
0.0
 73
2
 44
1.0
  0
MTEXT
  5
211
100
AcDbEntity
100
AcDbMText
  8
electrical
 62
256
370
-1
  6
BYLAYER
 10
-234.8219645293314102
 20
-312.2320508075689531
 30
0.0
 40
2.5
 41
0.0
 71
1
 72
1
  1
?
  7
textstyle43
 50
0.0
 73
2
 44
1.0
  0
INSERT
  5
212
100
AcDbEntity
100
AcDbBlockReference
  8
electrical
 62
256
370
-1
  6
BYLAYER
  2
outlet
 10
-236.821964529331467
 20
-310.5
 30
0.0
  0
MTEXT
  5
213
100
AcDbEntity
100
AcDbMText
  8
electrical
 62
256
370
-1
  6
BYLAYER
 10
-282.8219645293314102
 20
-312.2320508075689531
 30
0.0
 40
2.5
 41
0.0
 71
1
 72
1
  1
?
  7
textstyle44
 50
0.0
 73
2
 44
1.0
  0
INSERT
  5
214
100
AcDbEntity
100
AcDbBlockReference
  8
electrical
 62
256
370
-1
  6
BYLAYER
  2
outlet
 10
-284.821964529331467
 20
-310.5
 30
0.0
  0
MTEXT
  5
215
100
AcDbEntity
100
AcDbMText
  8
electrical
 62
256
370
-1
  6
BYLAYER
 10
-269.1367023310419313
 20
-288.8012469866994252
 30
0.0
 40
25.0
 41
0.0
 71
1
 72
1
  1
?
  7
textstyle45
 50
0.0
 73
2
 44
1.0
  0
MTEXT
  5
216
100
AcDbEntity
100
AcDbMText
  8
electrical
 62
256
370
-1
  6
BYLAYER
 10
-192.8066166439290896
 20
-332.2320508075689531
 30
0.0
 40
2.5
 41
0.0
 71
1
 72
1
  1
?
  7
textstyle46
 50
0.0
 73
2
 44
1.0
  0
INSERT
  5
217
100
AcDbEntity
100
AcDbBlockReference
  8
electrical
 62
256
370
-1
  6
BYLAYER
  2
outlet
 10
-194.8066166439290896
 20
-330.5
 30
0.0
  0
MTEXT
  5
218
100
AcDbEntity
100
AcDbMText
  8
electrical
 62
256
370
-1
  6
BYLAYER
 10
12.4310709413369693
 20
111.7679491924311321
 30
0.0
 40
2.5
 41
0.0
 71
1
 72
1
  1
13
  7
textstyle47
 50
0.0
 73
2
 44
1.0
  0
INSERT
  5
219
100
AcDbEntity
100
AcDbBlockReference
  8
electrical
 62
256
370
-1
  6
BYLAYER
  2
outlet
 10
10.4310709413369693
 20
113.5
 30
0.0
  0
MTEXT
  5
21A
100
AcDbEntity
100
AcDbMText
  8
electrical
 62
256
370
-1
  6
BYLAYER
 10
44.4310709413369693
 20
151.7679491924311321
 30
0.0
 40
2.5
 41
0.0
 71
1
 72
1
  1
19
  7
textstyle48
 50
0.0
 73
2
 44
1.0
  0
INSERT
  5
21B
100
AcDbEntity
100
AcDbBlockReference
  8
electrical
 62
256
370
-1
  6
BYLAYER
  2
outlet
 10
42.4310709413369693
 20
153.5
 30
0.0
  0
MTEXT
  5
21C
100
AcDbEntity
100
AcDbMText
  8
electrical
 62
256
370
-1
  6
BYLAYER
 10
176.3246248294679503
 20
151.7679491924311321
 30
0.0
 40
2.5
 41
0.0
 71
1
 72
1
  1
19
  7
textstyle49
 50
0.0
 73
2
 44
1.0
  0
INSERT
  5
21D
100
AcDbEntity
100
AcDbBlockReference
  8
electrical
 62
256
370
-1
  6
BYLAYER
  2
outlet
 10
174.3246248294679503
 20
153.5
 30
0.0
  0
MTEXT
  5
21E
100
AcDbEntity
100
AcDbMText
  8
electrical
 62
256
370
-1
  6
BYLAYER
 10
188.3246248294679503
 20
15.7679491924311321
 30
0.0
 40
2.5
 41
0.0
 71
1
 72
1
  1
19
  7
textstyle50
 50
0.0
 73
2
 44
1.0
  0
INSERT
  5
21F
100
AcDbEntity
100
AcDbBlockReference
  8
electrical
 62
256
370
-1
  6
BYLAYER
  2
outlet
 10
186.3246248294679503
 20
17.5
 30
0.0
  0
MTEXT
  5
220
100
AcDbEntity
100
AcDbMText
  8
electrical
 62
256
370
-1
  6
BYLAYER
 10
72.3246248294679503
 20
-76.2320508075688679
 30
0.0
 40
2.5
 41
0.0
 71
1
 72
1
  1
19
  7
textstyle51
 50
0.0
 73
2
 44
1.0
  0
INSERT
  5
221
100
AcDbEntity
100
AcDbBlockReference
  8
electrical
 62
256
370
-1
  6
BYLAYER
  2
outlet
 10
70.3246248294679361
 20
-74.5
 30
0.0
  0
MTEXT
  5
222
100
AcDbEntity
100
AcDbMText
  8
electrical
 62
256
370
-1
  6
BYLAYER
 10
-22.8066166439290505
 20
-76.2320508075688821
 30
0.0
 40
2.5
 41
0.0
 71
1
 72
1
  1
13
  7
textstyle52
 50
0.0
 73
2
 44
1.0
  0
INSERT
  5
223
100
AcDbEntity
100
AcDbBlockReference
  8
electrical
 62
256
370
-1
  6
BYLAYER
  2
outlet
 10
-24.8066166439290576
 20
-74.5
 30
0.0
  0
INSERT
  5
224
100
AcDbEntity
100
AcDbBlockReference
  8
electrical
 62
256
370
-1
  6
BYLAYER
  2
light
 10
22.9742326057298669
 20
-67.3724420190995943
 30
0.0
  0
MTEXT
  5
225
100
AcDbEntity
100
AcDbMText
  8
electrical
 62
256
370
-1
  6
BYLAYER
 10
25.4053035470666373
 20
-70.1173260572988966
 30
0.0
 40
2.5
 41
0.0
 71
1
 72
1
  1
13
  7
textstyle53
 50
0.0
 73
2
 44
1.0
  0
INSERT
  5
226
100
AcDbEntity
100
AcDbBlockReference
  8
electrical
 62
256
370
-1
  6
BYLAYER
  2
switch
 10
17.9907624048108516
 20
53.0612383279183888
 30
0.0
  0
MTEXT
  5
227
100
AcDbEntity
100
AcDbMText
  8
electrical
 62
256
370
-1
  6
BYLAYER
 10
13.1584872541249922
 20
54.291626610690102
 30
0.0
 40
2.5
 41
0.0
 71
1
 72
1
  1
13
  7
textstyle54
 50
0.0
 73
2
 44
1.0
  0
INSERT
  5
228
100
AcDbEntity
100
AcDbBlockReference
  8
electrical
 62
256
370
-1
  6
BYLAYER
  2
switch
 10
-34.2592375951891484
 20
38.5612383279183888
 30
0.0
  0
MTEXT
  5
229
100
AcDbEntity
100
AcDbMText
  8
electrical
 62
256
370
-1
  6
BYLAYER
 10
-39.0915127458750078
 20
39.791626610690102
 30
0.0
 40
2.5
 41
0.0
 71
1
 72
1
  1
19
  7
textstyle55
 50
0.0
 73
2
 44
1.0
  0
INSERT
  5
22A
100
AcDbEntity
100
AcDbBlockReference
  8
electrical
 62
256
370
-1
  6
BYLAYER
  2
switch
 10
-34.2592375951891484
 20
50.5612383279183888
 30
0.0
  0
MTEXT
  5
22B
100
AcDbEntity
100
AcDbMText
  8
electrical
 62
256
370
-1
  6
BYLAYER
 10
-39.0915127458750078
 20
51.791626610690102
 30
0.0
 40
2.5
 41
0.0
 71
1
 72
1
  1
13\PFan
  7
textstyle56
 50
0.0
 73
2
 44
1.0
  0
INSERT
  5
22C
100
AcDbEntity
100
AcDbBlockReference
  8
electrical
 62
256
370
-1
  6
BYLAYER
  2
switch
 10
-34.2566796142887213
 20
58.5620909882185074
 30
0.0
  0
MTEXT
  5
22D
100
AcDbEntity
100
AcDbMText
  8
electrical
 62
256
370
-1
  6
BYLAYER
 10
-39.0889547649745879
 20
59.7924792709902135
 30
0.0
 40
2.5
 41
0.0
 71
1
 72
1
  1
13
  7
textstyle57
 50
0.0
 73
2
 44
1.0
  0
INSERT
  5
22E
100
AcDbEntity
100
AcDbBlockReference
  8
electrical
 62
256
370
-1
  6
BYLAYER
  2
switch
 10
-34.2566796142887213
 20
66.5620909882185003
 30
0.0
  0
MTEXT
  5
22F
100
AcDbEntity
100
AcDbMText
  8
electrical
 62
256
370
-1
  6
BYLAYER
 10
-39.0889547649745879
 20
67.7924792709902135
 30
0.0
 40
2.5
 41
0.0
 71
1
 72
1
  1
13
  7
textstyle58
 50
0.0
 73
2
 44
1.0
  0
MTEXT
  5
230
100
AcDbEntity
100
AcDbMText
  8
electrical
 62
256
370
-1
  6
BYLAYER
 10
-42.806616643929047
 20
107.7679491924311179
 30
0.0
 40
2.5
 41
0.0
 71
1
 72
1
  1
13\PFan
  7
textstyle59
 50
0.0
 73
2
 44
1.0
  0
INSERT
  5
231
100
AcDbEntity
100
AcDbBlockReference
  8
electrical
 62
256
370
-1
  6
BYLAYER
  2
outlet
 10
-44.8066166439290612
 20
109.5
 30
0.0
  0
INSERT
  5
232
100
AcDbEntity
100
AcDbBlockReference
  8
electrical
 62
256
370
-1
  6
BYLAYER
  2
light
 10
-20.0221521145974464
 20
108.6437585266030652
 30
0.0
  0
MTEXT
  5
233
100
AcDbEntity
100
AcDbMText
  8
electrical
 62
256
370
-1
  6
BYLAYER
 10
-17.5910811732606938
 20
105.8988744884037487
 30
0.0
 40
2.5
 41
0.0
 71
1
 72
1
  1
13
  7
textstyle60
 50
0.0
 73
2
 44
1.0
  0
INSERT
  5
234
100
AcDbEntity
100
AcDbBlockReference
  8
electrical
 62
256
370
-1
  6
BYLAYER
  2
light
 10
107.1116473396999709
 20
76.6497271487040308
 30
0.0
  0
MTEXT
  5
235
100
AcDbEntity
100
AcDbMText
  8
electrical
 62
256
370
-1
  6
BYLAYER
 10
109.542718281036727
 20
73.9048431105047285
 30
0.0
 40
2.5
 41
0.0
 71
1
 72
1
  1
19
  7
textstyle61
 50
0.0
 73
2
 44
1.0
  0
INSERT
  5
236
100
AcDbEntity
100
AcDbBlockReference
  8
electrical
 62
256
370
-1
  6
BYLAYER
  2
switch
 10
129.7407624048108516
 20
2.5612383279183888
 30
0.0
  0
MTEXT
  5
237
100
AcDbEntity
100
AcDbMText
  8
electrical
 62
256
370
-1
  6
BYLAYER
 10
124.9084872541249922
 20
3.791626610690102
 30
0.0
 40
2.5
 41
0.0
 71
1
 72
1
  1
19
  7
textstyle62
 50
0.0
 73
2
 44
1.0
  0
INSERT
  5
238
100
AcDbEntity
100
AcDbBlockReference
  8
electrical
 62
256
370
-1
  6
BYLAYER
  2
switch
 10
137.7407624048108516
 20
2.5612383279183888
 30
0.0
  0
MTEXT
  5
239
100
AcDbEntity
100
AcDbMText
  8
electrical
 62
256
370
-1
  6
BYLAYER
 10
132.9084872541249922
 20
3.791626610690102
 30
0.0
 40
2.5
 41
0.0
 71
1
 72
1
  1
19
  7
textstyle63
 50
0.0
 73
2
 44
1.0
  0
INSERT
  5
23A
100
AcDbEntity
100
AcDbBlockReference
  8
electrical
 62
256
370
-1
  6
BYLAYER
  2
switch
 10
165.7407624048108516
 20
-45.4387616720816112
 30
0.0
  0
MTEXT
  5
23B
100
AcDbEntity
100
AcDbMText
  8
electrical
 62
256
370
-1
  6
BYLAYER
 10
160.9084872541249922
 20
-44.208373389309898
 30
0.0
 40
2.5
 41
0.0
 71
1
 72
1
  1
19
  7
textstyle64
 50
0.0
 73
2
 44
1.0
  0
INSERT
  5
23C
100
AcDbEntity
100
AcDbBlockReference
  8
electrical
 62
256
370
-1
  6
BYLAYER
  2
switch
 10
165.7407624048108516
 20
-53.4387616720816112
 30
0.0
  0
MTEXT
  5
23D
100
AcDbEntity
100
AcDbMText
  8
electrical
 62
256
370
-1
  6
BYLAYER
 10
160.9084872541249922
 20
-52.208373389309898
 30
0.0
 40
2.5
 41
0.0
 71
1
 72
1
  1
19
  7
textstyle65
 50
0.0
 73
2
 44
1.0
  0
MTEXT
  5
23E
100
AcDbEntity
100
AcDbMText
  8
electrical
 62
256
370
-1
  6
BYLAYER
 10
-159.0915127458750078
 20
11.7916266106899741
 30
0.0
 40
2.5
 41
0.0
 71
1
 72
1
  1
9
  7
textstyle66
 50
0.0
 73
2
 44
1.0
  0
INSERT
  5
23F
100
AcDbEntity
100
AcDbBlockReference
  8
electrical
 62
256
370
-1
  6
BYLAYER
  2
switch
 10
-154.2592375951891199
 20
10.5612383279183728
 30
0.0
  0
MTEXT
  5
240
100
AcDbEntity
100
AcDbMText
  8
electrical
 62
256
370
-1
  6
BYLAYER
 10
-167.0915127458750078
 20
11.7916266106899741
 30
0.0
 40
2.5
 41
0.0
 71
1
 72
1
  1
9\PFan
  7
textstyle67
 50
0.0
 73
2
 44
1.0
  0
INSERT
  5
241
100
AcDbEntity
100
AcDbBlockReference
  8
electrical
 62
256
370
-1
  6
BYLAYER
  2
switch
 10
-162.2592375951891199
 20
10.5612383279183728
 30
0.0
  0
MTEXT
  5
242
100
AcDbEntity
100
AcDbMText
  8
electrical
 62
256
370
-1
  6
BYLAYER
 10
-175.0915127458750078
 20
11.7916266106899741
 30
0.0
 40
2.5
 41
0.0
 71
1
 72
1
  1
9
  7
textstyle68
 50
0.0
 73
2
 44
1.0
  0
INSERT
  5
243
100
AcDbEntity
100
AcDbBlockReference
  8
electrical
 62
256
370
-1
  6
BYLAYER
  2
switch
 10
-170.2592375951891199
 20
10.5612383279183728
 30
0.0
  0
MTEXT
  5
244
100
AcDbEntity
100
AcDbMText
  8
electrical
 62
256
370
-1
  6
BYLAYER
 10
-144.7453615279672192
 20
-34.6423214474406507
 30
0.0
 40
2.5
 41
0.0
 71
1
 72
1
  1
9\PFan
  7
textstyle69
 50
0.0
 73
2
 44
1.0
  0
INSERT
  5
245
100
AcDbEntity
100
AcDbBlockReference
  8
electrical
 62
256
370
-1
  6
BYLAYER
  2
outlet
 10
-146.7453615279672476
 20
-32.9102706398717686
 30
0.0
  0
MTEXT
  5
246
100
AcDbEntity
100
AcDbMText
  8
electrical
 62
256
370
-1
  6
BYLAYER
 10
-168.7453615279672192
 20
-54.6423214474406507
 30
0.0
 40
2.5
 41
0.0
 71
1
 72
1
  1
9
  7
textstyle70
 50
0.0
 73
2
 44
1.0
  0
INSERT
  5
247
100
AcDbEntity
100
AcDbBlockReference
  8
electrical
 62
256
370
-1
  6
BYLAYER
  2
outlet
 10
-170.7453615279672476
 20
-52.9102706398717686
 30
0.0
  0
INSERT
  5
248
100
AcDbEntity
100
AcDbBlockReference
  8
electrical
 62
256
370
-1
  6
BYLAYER
  2
light
 10
-168.8883526603000291
 20
-15.3502728512959692
 30
0.0
  0
MTEXT
  5
249
100
AcDbEntity
100
AcDbMText
  8
electrical
 62
256
370
-1
  6
BYLAYER
 10
-166.4572817189632588
 20
-18.0951568894952715
 30
0.0
 40
2.5
 41
0.0
 71
1
 72
1
  1
9
  7
textstyle71
 50
0.0
 73
2
 44
1.0
  0
INSERT
  5
24A
100
AcDbEntity
100
AcDbBlockReference
  8
electrical
 62
256
370
-1
  6
BYLAYER
  2
light
 10
-60.8883526603000291
 20
132.6497271487040166
 30
0.0
  0
MTEXT
  5
24B
100
AcDbEntity
100
AcDbMText
  8
electrical
 62
256
370
-1
  6
BYLAYER
 10
-58.457281718963273
 20
129.9048431105047143
 30
0.0
 40
2.5
 41
0.0
 71
1
 72
1
  1
13
  7
textstyle72
 50
0.0
 73
2
 44
1.0
  0
INSERT
  5
24C
100
AcDbEntity
100
AcDbBlockReference
  8
electrical
 62
256
370
-1
  6
BYLAYER
  2
light
 10
-124.8883526603000291
 20
104.6497271487040308
 30
0.0
  0
MTEXT
  5
24D
100
AcDbEntity
100
AcDbMText
  8
electrical
 62
256
370
-1
  6
BYLAYER
 10
-122.457281718963273
 20
101.9048431105047285
 30
0.0
 40
2.5
 41
0.0
 71
1
 72
1
  1
13
  7
textstyle73
 50
0.0
 73
2
 44
1.0
  0
INSERT
  5
24E
100
AcDbEntity
100
AcDbBlockReference
  8
electrical
 62
256
370
-1
  6
BYLAYER
  2
light
 10
-208.8883526603000291
 20
120.6497271487040308
 30
0.0
  0
MTEXT
  5
24F
100
AcDbEntity
100
AcDbMText
  8
electrical
 62
256
370
-1
  6
BYLAYER
 10
-206.4572817189632588
 20
117.9048431105047285
 30
0.0
 40
2.5
 41
0.0
 71
1
 72
1
  1
11
  7
textstyle74
 50
0.0
 73
2
 44
1.0
  0
INSERT
  5
250
100
AcDbEntity
100
AcDbBlockReference
  8
electrical
 62
256
370
-1
  6
BYLAYER
  2
light
 10
-268.0221521145974748
 20
-23.3562414733969348
 30
0.0
  0
MTEXT
  5
251
100
AcDbEntity
100
AcDbMText
  8
electrical
 62
256
370
-1
  6
BYLAYER
 10
-265.5910811732607044
 20
-26.1011255115962513
 30
0.0
 40
2.5
 41
0.0
 71
1
 72
1
  1
11
  7
textstyle75
 50
0.0
 73
2
 44
1.0
  0
MTEXT
  5
252
100
AcDbEntity
100
AcDbMText
  8
electrical
 62
256
370
-1
  6
BYLAYER
 10
-238.8219645293315239
 20
151.7679491924310753
 30
0.0
 40
2.5
 41
0.0
 71
1
 72
1
  1
11
  7
textstyle76
 50
0.0
 73
2
 44
1.0
  0
INSERT
  5
253
100
AcDbEntity
100
AcDbBlockReference
  8
electrical
 62
256
370
-1
  6
BYLAYER
  2
outlet
 10
-240.8219645293315239
 20
153.5
 30
0.0
  0
MTEXT
  5
254
100
AcDbEntity
100
AcDbMText
  8
electrical
 62
256
370
-1
  6
BYLAYER
 10
-346.8066166439290896
 20
131.7679491924310753
 30
0.0
 40
2.5
 41
0.0
 71
1
 72
1
  1
11
  7
textstyle77
 50
0.0
 73
2
 44
1.0
  0
INSERT
  5
255
100
AcDbEntity
100
AcDbBlockReference
  8
electrical
 62
256
370
-1
  6
BYLAYER
  2
outlet
 10
-348.8066166439290328
 20
133.5
 30
0.0
  0
MTEXT
  5
256
100
AcDbEntity
100
AcDbMText
  8
electrical
 62
256
370
-1
  6
BYLAYER
 10
-274.8066166439290896
 20
51.7679491924310753
 30
0.0
 40
2.5
 41
0.0
 71
1
 72
1
  1
11
  7
textstyle78
 50
0.0
 73
2
 44
1.0
  0
INSERT
  5
257
100
AcDbEntity
100
AcDbBlockReference
  8
electrical
 62
256
370
-1
  6
BYLAYER
  2
outlet
 10
-276.8066166439290328
 20
53.5
 30
0.0
  0
MTEXT
  5
258
100
AcDbEntity
100
AcDbMText
  8
electrical
 62
256
370
-1
  6
BYLAYER
 10
-258.8066166439290896
 20
31.7679491924310753
 30
0.0
 40
2.5
 41
0.0
 71
1
 72
1
  1
11
  7
textstyle79
 50
0.0
 73
2
 44
1.0
  0
INSERT
  5
259
100
AcDbEntity
100
AcDbBlockReference
  8
electrical
 62
256
370
-1
  6
BYLAYER
  2
outlet
 10
-260.8066166439290328
 20
33.5
 30
0.0
  0
MTEXT
  5
25A
100
AcDbEntity
100
AcDbMText
  8
electrical
 62
256
370
-1
  6
BYLAYER
 10
-346.8066166439290896
 20
-64.2320508075689247
 30
0.0
 40
2.5
 41
0.0
 71
1
 72
1
  1
11
  7
textstyle80
 50
0.0
 73
2
 44
1.0
  0
INSERT
  5
25B
100
AcDbEntity
100
AcDbBlockReference
  8
electrical
 62
256
370
-1
  6
BYLAYER
  2
outlet
 10
-348.8066166439290328
 20
-62.5
 30
0.0
  0
MTEXT
  5
25C
100
AcDbEntity
100
AcDbMText
  8
electrical
 62
256
370
-1
  6
BYLAYER
 10
-238.8066166439290896
 20
-88.2320508075689247
 30
0.0
 40
2.5
 41
0.0
 71
1
 72
1
  1
11
  7
textstyle81
 50
0.0
 73
2
 44
1.0
  0
INSERT
  5
25D
100
AcDbEntity
100
AcDbBlockReference
  8
electrical
 62
256
370
-1
  6
BYLAYER
  2
outlet
 10
-240.8066166439290612
 20
-86.5
 30
0.0
  0
MTEXT
  5
25E
100
AcDbEntity
100
AcDbMText
  8
electrical
 62
256
370
-1
  6
BYLAYER
 10
-222.2381021046744536
 20
31.7916266106901624
 30
0.0
 40
2.5
 41
0.0
 71
1
 72
1
  1
11
  7
textstyle82
 50
0.0
 73
2
 44
1.0
  0
INSERT
  5
25F
100
AcDbEntity
100
AcDbBlockReference
  8
electrical
 62
256
370
-1
  6
BYLAYER
  2
switch
 10
-217.4058269539885657
 20
30.5612383279184314
 30
0.0
  0
MTEXT
  5
260
100
AcDbEntity
100
AcDbMText
  8
electrical
 62
256
370
-1
  6
BYLAYER
 10
-222.2227542192720193
 20
51.7865106488894398
 30
0.0
 40
2.5
 41
0.0
 71
1
 72
1
  1
11
  7
textstyle83
 50
0.0
 73
2
 44
1.0
  0
INSERT
  5
261
100
AcDbEntity
100
AcDbBlockReference
  8
electrical
 62
256
370
-1
  6
BYLAYER
  2
switch
 10
-217.3904790685861315
 20
50.5561223661175418
 30
0.0
  0
MTEXT
  5
262
100
AcDbEntity
100
AcDbMText
  8
electrical
 62
256
370
-1
  6
BYLAYER
 10
-11.6753751705320425
 20
79.7679491924311321
 30
0.0
 40
2.5
 41
0.0
 71
1
 72
1
  1
10,12
  7
textstyle84
 50
0.0
 73
2
 44
1.0
  0
INSERT
  5
263
100
AcDbEntity
100
AcDbBlockReference
  8
electrical
 62
256
370
-1
  6
BYLAYER
  2
outlet
 10
-13.6753751705320639
 20
81.5
 30
0.0
  0
MTEXT
  5
264
100
AcDbEntity
100
AcDbMText
  8
electrical
 62
256
370
-1
  6
BYLAYER
 10
-34.0873124147339439
 20
151.7679491924311321
 30
0.0
 40
2.5
 41
0.0
 71
1
 72
1
  1
10,12
  7
textstyle85
 50
0.0
 73
2
 44
1.0
  0
INSERT
  5
265
100
AcDbEntity
100
AcDbBlockReference
  8
electrical
 62
256
370
-1
  6
BYLAYER
  2
outlet
 10
-36.0873124147339794
 20
153.5
 30
0.0
  0
MTEXT
  5
266
100
AcDbEntity
100
AcDbMText
  8
electrical
 62
256
370
-1
  6
BYLAYER
 10
-10.0873124147339475
 20
135.7679491924311321
 30
0.0
 40
2.5
 41
0.0
 71
1
 72
1
  1
14,16
  7
textstyle86
 50
0.0
 73
2
 44
1.0
  0
INSERT
  5
267
100
AcDbEntity
100
AcDbBlockReference
  8
electrical
 62
256
370
-1
  6
BYLAYER
  2
outlet
 10
-12.0873124147339794
 20
137.5
 30
0.0
  0
MTEXT
  5
268
100
AcDbEntity
100
AcDbMText
  8
electrical
 62
256
370
-1
  6
BYLAYER
 10
-90.0992496589358467
 20
151.7679491924311321
 30
0.0
 40
2.5
 41
0.0
 71
1
 72
1
  1
14,16
  7
textstyle87
 50
0.0
 73
2
 44
1.0
  0
INSERT
  5
269
100
AcDbEntity
100
AcDbBlockReference
  8
electrical
 62
256
370
-1
  6
BYLAYER
  2
outlet
 10
-92.0992496589358893
 20
153.5
 30
0.0
  0
INSERT
  5
26A
100
AcDbEntity
100
AcDbBlockReference
  8
electrical
 62
256
370
-1
  6
BYLAYER
  2
switch
 10
-42.2566796142887213
 20
150.5620909882185003
 30
0.0
  0
MTEXT
  5
26B
100
AcDbEntity
100
AcDbMText
  8
electrical
 62
256
370
-1
  6
BYLAYER
 10
-47.0889547649745737
 20
151.7924792709902135
 30
0.0
 40
2.5
 41
0.0
 71
1
 72
1
  1
22\PGarb.
  7
textstyle88
 50
0.0
 73
2
 44
1.0
  0
MTEXT
  5
26C
100
AcDbEntity
100
AcDbMText
  8
electrical
 62
256
370
-1
  6
BYLAYER
 10
-58.0873124147339439
 20
143.7679491924311321
 30
0.0
 40
2.5
 41
0.0
 71
1
 72
1
  1
22\PGarb.
  7
textstyle89
 50
0.0
 73
2
 44
1.0
  0
INSERT
  5
26D
100
AcDbEntity
100
AcDbBlockReference
  8
electrical
 62
256
370
-1
  6
BYLAYER
  2
outlet
 10
-60.0873124147339865
 20
145.5
 30
0.0
  0
MTEXT
  5
26E
100
AcDbEntity
100
AcDbMText
  8
electrical
 62
256
370
-1
  6
BYLAYER
 10
-122.806616643929047
 20
151.7679491924311037
 30
0.0
 40
2.5
 41
0.0
 71
1
 72
1
  1
15\PFridge /\PDishwasher
  7
textstyle90
 50
0.0
 73
2
 44
1.0
  0
INSERT
  5
26F
100
AcDbEntity
100
AcDbBlockReference
  8
electrical
 62
256
370
-1
  6
BYLAYER
  2
outlet
 10
-124.8066166439290612
 20
153.5
 30
0.0
  0
MTEXT
  5
270
100
AcDbEntity
100
AcDbMText
  8
electrical
 62
256
370
-1
  6
BYLAYER
 10
-154.0992496589358325
 20
111.7679491924311321
 30
0.0
 40
2.5
 41
0.0
 71
1
 72
1
  1
17
  7
textstyle91
 50
0.0
 73
2
 44
1.0
  0
INSERT
  5
271
100
AcDbEntity
100
AcDbBlockReference
  8
electrical
 62
256
370
-1
  6
BYLAYER
  2
outlet
 10
-156.0992496589358893
 20
113.5
 30
0.0
  0
INSERT
  5
272
100
AcDbEntity
100
AcDbBlockReference
  8
electrical
 62
256
370
-1
  6
BYLAYER
  2
light
 10
-72.8883526603000291
 20
-71.3502728512959692
 30
0.0
  0
MTEXT
  5
273
100
AcDbEntity
100
AcDbMText
  8
electrical
 62
256
370
-1
  6
BYLAYER
 10
-70.457281718963273
 20
-74.0951568894952715
 30
0.0
 40
2.5
 41
0.0
 71
1
 72
1
  1
19
  7
textstyle92
 50
0.0
 73
2
 44
1.0
  0
INSERT
  5
274
100
AcDbEntity
100
AcDbBlockReference
  8
electrical
 62
256
370
-1
  6
BYLAYER
  2
light
 10
-48.8909106412004348
 20
-103.3511255115961234
 30
0.0
  0
MTEXT
  5
275
100
AcDbEntity
100
AcDbMText
  8
electrical
 62
256
370
-1
  6
BYLAYER
 10
-46.4598396998636929
 20
-106.0960095497953972
 30
0.0
 40
2.5
 41
0.0
 71
1
 72
1
  1
19
  7
textstyle93
 50
0.0
 73
2
 44
1.0
  0
INSERT
  5
276
100
AcDbEntity
100
AcDbBlockReference
  8
electrical
 62
256
370
-1
  6
BYLAYER
  2
light
 10
179.1090893587995652
 20
-35.3511255115961234
 30
0.0
  0
MTEXT
  5
277
100
AcDbEntity
100
AcDbMText
  8
electrical
 62
256
370
-1
  6
BYLAYER
 10
181.5401603001363071
 20
-38.0960095497953972
 30
0.0
 40
2.5
 41
0.0
 71
1
 72
1
  1
19
  7
textstyle94
 50
0.0
 73
2
 44
1.0
  0
INSERT
  5
278
100
AcDbEntity
100
AcDbBlockReference
  8
electrical
 62
256
370
-1
  6
BYLAYER
  2
light
 10
-168.0221521145974748
 20
24.6437585266030688
 30
0.0
  0
MTEXT
  5
279
100
AcDbEntity
100
AcDbMText
  8
electrical
 62
256
370
-1
  6
BYLAYER
 10
-165.5910811732607044
 20
21.8988744884038056
 30
0.0
 40
2.5
 41
0.0
 71
1
 72
1
  1
9
  7
textstyle95
 50
0.0
 73
2
 44
1.0
  0
MTEXT
  5
27A
100
AcDbEntity
100
AcDbMText
  8
electrical
 62
256
370
-1
  6
BYLAYER
 10
-109.7508087427013663
 20
21.8631594884038059
 30
0.0
 40
2.5
 41
0.0
 71
1
 72
1
  1
7
  7
textstyle96
 50
0.0
 73
2
 44
1.0
  0
INSERT
  5
27B
100
AcDbEntity
100
AcDbBlockReference
  8
electrical
 62
256
370
-1
  6
BYLAYER
  2
smoke_detector
 10
-112.1818796840381367
 20
24.608043526603069
 30
0.0
  0
MTEXT
  5
27C
100
AcDbEntity
100
AcDbMText
  8
electrical
 62
256
370
-1
  6
BYLAYER
 10
-181.9366084834927051
 20
-358.1803256412006249
 30
0.0
 40
2.5
 41
0.0
 71
1
 72
1
  1
7
  7
textstyle97
 50
0.0
 73
2
 44
1.0
  0
INSERT
  5
27D
100
AcDbEntity
100
AcDbBlockReference
  8
electrical
 62
256
370
-1
  6
BYLAYER
  2
smoke_detector
 10
-184.3676794248294755
 20
-355.4354416030013795
 30
0.0
  0
INSERT
  5
27E
100
AcDbEntity
100
AcDbBlockReference
  8
electrical
 62
256
370
-1
  6
BYLAYER
  2
outlet_220
 10
-6.4999999999999964
 20
114.0
 30
0.0
  0
MTEXT
  5
27F
100
AcDbEntity
100
AcDbMText
  8
electrical
 62
256
370
-1
  6
BYLAYER
 10
-4.4999999999999964
 20
112.2679491924311321
 30
0.0
 40
2.5
 41
0.0
 71
1
 72
1
  1
2,4\PR
  7
textstyle98
 50
0.0
 73
2
 44
1.0
  0
INSERT
  5
280
100
AcDbEntity
100
AcDbBlockReference
  8
electrical
 62
256
370
-1
  6
BYLAYER
  2
outlet_220
 10
-95.5
 20
-242.5
 30
0.0
  0
LINE
  5
281
100
AcDbEntity
100
AcDbLine
  8
tile_area
 62
256
370
-1
  6
BYLAYER
 10
-33.0
 20
-93.5
 30
0.0
 11
-110.0
 21
-93.5
 31
0.0
  0
LINE
  5
282
100
AcDbEntity
100
AcDbLine
  8
tile_area
 62
256
370
-1
  6
BYLAYER
 10
-110.0
 20
-93.5
 30
0.0
 11
-110.0
 21
-60.0
 31
0.0
  0
LINE
  5
283
100
AcDbEntity
100
AcDbLine
  8
tile_area
 62
256
370
-1
  6
BYLAYER
 10
-110.0
 20
-60.0
 30
0.0
 11
-33.0
 21
-60.0
 31
0.0
  0
LINE
  5
284
100
AcDbEntity
100
AcDbLine
  8
tile_area
 62
256
370
-1
  6
BYLAYER
 10
-33.0
 20
-60.0
 30
0.0
 11
-33.0
 21
-93.5
 31
0.0
  0
HATCH
  5
285
  8
tile_area
 62
256
370
-1
  6
BYLAYER
100
AcDbEntity
100
AcDbHatch
 10
0.0
 20
0.0
 30
0.0
210
0.0
220
0.0
230
1.0
  2
SQUARE
 70
0
 71
0
 91
1
 92
1
 93
4
 72
1
 10
-33.0
 20
-93.5
 11
-110.0
 21
-93.5
 72
1
 10
-110.0
 20
-93.5
 11
-110.0
 21
-60.0
 72
1
 10
-110.0
 20
-60.0
 11
-33.0
 21
-60.0
 72
1
 10
-33.0
 20
-60.0
 11
-33.0
 21
-93.5
 97
0
 75
0
 76
1
 52
0.0
 41
10.0
 77
0
 78
1
 53
45.0
 43
0.0
 44
0.0
 45
-0.0883883476483184
 46
0.0883883476483185
 79
0
 98
0
1001
ACAD
1010
0.0
1020
0.0
1030
0
  0
LINE
  5
286
100
AcDbEntity
100
AcDbLine
  8
0
 62
256
370
-1
  6
BYLAYER
 10
83.5
 20
-25.0
 30
0.0
 11
83.5
 21
-5.0
 31
0.0
  0
LINE
  5
287
100
AcDbEntity
100
AcDbLine
  8
0
 62
256
370
-1
  6
BYLAYER
 10
118.0
 20
-25.0
 30
0.0
 11
118.0
 21
0.0
 31
0.0
  0
HATCH
  5
288
  8
tile_area
 62
256
370
-1
  6
BYLAYER
100
AcDbEntity
100
AcDbHatch
 10
0.0
 20
0.0
 30
0.0
210
0.0
220
0.0
230
1.0
  2
SQUARE
 70
0
 71
0
 91
1
 92
1
 93
9
 72
1
 10
166.5
 20
-4.0
 11
166.5
 21
-93.5
 72
1
 10
166.5
 20
-93.5
 11
83.5
 21
-93.5
 72
1
 10
83.5
 20
-93.5
 11
83.5
 21
-54.0
 72
1
 10
83.5
 20
-54.0
 11
83.5
 21
-25.0
 72
1
 10
83.5
 20
-25.0
 11
118.0
 21
-25.0
 72
1
 10
118.0
 20
-25.0
 11
118.0
 21
-31.0
 72
1
 10
118.0
 20
-31.0
 11
122.5
 21
-31.0
 72
1
 10
122.5
 20
-31.0
 11
122.5
 21
-4.0
 72
1
 10
122.5
 20
-4.0
 11
166.5
 21
-4.0
 97
0
 75
0
 76
1
 52
0.0
 41
10.0
 77
0
 78
1
 53
45.0
 43
0.0
 44
0.0
 45
-0.0883883476483184
 46
0.0883883476483185
 79
0
 98
0
1001
ACAD
1010
0.0
1020
0.0
1030
0
  0
LWPOLYLINE
  5
289
  8
tile_area
 62
256
370
-1
  6
BYLAYER
100
AcDbEntity
100
AcDbPolyline
 90
6
 70
1
 10
-109.5
 20
-93.5
 30
0.0
 10
-33.0
 20
-93.5
 30
0.0
 10
-33.0
 20
-60.0
 30
0.0
 10
-110.0
 20
-60.0
 30
0.0
 10
-109.5
 20
-60.0
 30
0.0
 10
-109.5
 20
-60.0
 30
0.0
  0
MTEXT
  5
28A
100
AcDbEntity
100
AcDbMText
  8
tile_area
 62
256
370
-1
  6
BYLAYER
 10
-109.0
 20
-58.7999999999999972
 30
0.0
 40
1.0
 41
0.0
 71
1
 72
1
  1
2562.75
  7
textstyle99
 50
0.0
 73
2
 44
1.0
  0
LWPOLYLINE
  5
28B
  8
tile_area
 62
256
370
-1
  6
BYLAYER
100
AcDbEntity
100
AcDbPolyline
 90
8
 70
1
 10
83.5
 20
-93.5
 30
0.0
 10
166.5
 20
-93.5
 30
0.0
 10
166.5
 20
-4.0
 30
0.0
 10
122.5
 20
-4.0
 30
0.0
 10
122.5
 20
-31.0
 30
0.0
 10
118.0
 20
-31.0
 30
0.0
 10
118.0
 20
-25.0
 30
0.0
 10
83.5
 20
-25.0
 30
0.0
  0
MTEXT
  5
28C
100
AcDbEntity
100
AcDbMText
  8
tile_area
 62
256
370
-1
  6
BYLAYER
 10
84.0
 20
-23.8000000000000007
 30
0.0
 40
1.0
 41
0.0
 71
1
 72
1
  1
6582.5
  7
textstyle100
 50
0.0
 73
2
 44
1.0
  0
LWPOLYLINE
  5
28D
  8
baseboard
 62
256
370
-1
  6
BYLAYER
100
AcDbEntity
100
AcDbPolyline
 90
8
 70
0
 10
-352.5
 20
157.5
 30
0.0
 10
-164.0
 20
157.5
 30
0.0
 10
-164.0
 20
88.0
 30
0.0
 10
-191.0
 20
88.0
 30
0.0
 10
-191.0
 20
75.0
 30
0.0
 10
-164.0
 20
75.0
 30
0.0
 10
-164.0
 20
38.5
 30
0.0
 10
-78.5
 20
38.5
 30
0.0
  0
LWPOLYLINE
  5
28E
  8
baseboard
 62
256
370
-1
  6
BYLAYER
100
AcDbEntity
100
AcDbPolyline
 90
11
 70
0
 10
-33.0000000000000071
 20
38.5
 30
0.0
 10
-28.5000000000000071
 20
38.5
 30
0.0
 10
-28.5000000000000071
 20
70.5
 30
0.0
 10
-0.0000000000000071
 20
70.5
 30
0.0
 10
-0.0000000000000071
 20
38.5
 30
0.0
 10
4.4999999999999938
 20
38.5
 30
0.0
 10
4.5000000000000009
 20
157.5
 30
0.0
 10
194.5
 20
157.5
 30
0.0
 10
194.5
 20
0.0
 30
0.0
 10
118.0
 20
0.0
 30
0.0
 10
118.0
 20
-25.0
 30
0.0
  0
LWPOLYLINE
  5
28F
  8
baseboard
 62
256
370
-1
  6
BYLAYER
100
AcDbEntity
100
AcDbPolyline
 90
6
 70
0
 10
83.5
 20
-54.0
 30
0.0
 10
79.0
 20
-54.0
 30
0.0
 10
79.0
 20
-93.5
 30
0.0
 10
-28.5
 20
-93.5
 30
0.0
 10
-28.4999999999999964
 20
-54.0
 30
0.0
 10
-33.0
 20
-54.0
 30
0.0
  0
LWPOLYLINE
  5
290
  8
baseboard
 62
256
370
-1
  6
BYLAYER
100
AcDbEntity
100
AcDbPolyline
 90
3
 70
0
 10
-69.0
 20
-0.5
 30
0.0
 10
-69.0
 20
4.0
 30
0.0
 10
-114.0
 20
4.0
 30
0.0
  0
LWPOLYLINE
  5
291
  8
baseboard
 62
256
370
-1
  6
BYLAYER
100
AcDbEntity
100
AcDbPolyline
 90
15
 70
0
 10
-146.5
 20
4.0000000000000009
 30
0.0
 10
-207.0
 20
4.0000000000000009
 30
0.0
 10
-207.0
 20
-0.4999999999999992
 30
0.0
 10
-180.0
 20
-0.4999999999999992
 30
0.0
 10
-180.0
 20
-93.5
 30
0.0
 10
-352.5
 20
-93.5
 30
0.0
 10
-352.5
 20
40.0
 30
0.0
 10
-207.0
 20
40.0
 30
0.0
 10
-207.0
 20
38.0
 30
0.0
 10
-202.5
 20
38.0
 30
0.0
 10
-202.5
 20
40.0
 30
0.0
 10
-200.5
 20
40.0
 30
0.0
 10
-200.5
 20
44.5
 30
0.0
 10
-352.5
 20
44.5
 30
0.0
 10
-352.5
 20
157.5
 30
0.0
  0
DIMENSION
  5
292
100
AcDbEntity
  8
dimensions
 62
256
370
-1
  6
BYLAYER
100
AcDbDimension
 10
-352.5
 20
60.0
 30
0.0
 11
-276.5
 21
63.75
 31
0.0
 70
1
 71
8
 72
2
 41
1.0
 42
0.0
  1

  3
Standard
100
AcDbAlignedDimension
 13
-352.5
 23
44.5
 33
0.0
 14
-200.5
 24
44.5
 34
0.0
1001
ACAD
1000
DSTYLE
1002
{
1070
144
1040
1
1002
}
  0
DIMENSION
  5
293
100
AcDbEntity
  8
dimensions
 62
256
370
-1
  6
BYLAYER
100
AcDbDimension
 10
-78.5
 20
24.0
 30
0.0
 11
-121.25
 21
27.75
 31
0.0
 70
1
 71
8
 72
2
 41
1.0
 42
0.0
  1

  3
Standard
100
AcDbAlignedDimension
 13
-78.5
 23
38.5
 33
0.0
 14
-164.0
 24
38.5
 34
0.0
1001
ACAD
1000
DSTYLE
1002
{
1070
144
1040
1
1002
}
  0
DIMENSION
  5
294
100
AcDbEntity
  8
dimensions
 62
256
370
-1
  6
BYLAYER
100
AcDbDimension
 10
-159.5
 20
180.0
 30
0.0
 11
-79.75
 21
183.75
 31
0.0
 70
1
 71
8
 72
2
 41
1.0
 42
0.0
  1

  3
Standard
100
AcDbAlignedDimension
 13
-159.5
 23
157.5
 33
0.0
 14
-0.0000000000000021
 24
157.5
 34
0.0
1001
ACAD
1000
DSTYLE
1002
{
1070
144
1040
1
1002
}
  0
DIMENSION
  5
295
100
AcDbEntity
  8
dimensions
 62
256
370
-1
  6
BYLAYER
100
AcDbDimension
 10
-144.0
 20
157.5
 30
0.0
 11
-147.75
 21
100.25
 31
0.0
 70
1
 71
8
 72
2
 41
1.0
 42
0.0
  1

  3
Standard
100
AcDbAlignedDimension
 13
-159.5
 23
157.5
 33
0.0
 14
-159.5
 24
43.0
 34
0.0
1001
ACAD
1000
DSTYLE
1002
{
1070
144
1040
1
1002
}
  0
DIMENSION
  5
296
100
AcDbEntity
  8
dimensions
 62
256
370
-1
  6
BYLAYER
100
AcDbDimension
 10
-12.0000000000000053
 20
75.0
 30
0.0
 11
-15.7500000000000036
 21
116.25
 31
0.0
 70
1
 71
8
 72
2
 41
1.0
 42
0.0
  1

  3
Standard
100
AcDbAlignedDimension
 13
-0.0000000000000071
 23
75.0
 33
0.0
 14
-0.0000000000000021
 24
157.5
 34
0.0
1001
ACAD
1000
DSTYLE
1002
{
1070
144
1040
1
1002
}
  0
DIMENSION
  5
297
100
AcDbEntity
  8
dimensions
 62
256
370
-1
  6
BYLAYER
100
AcDbDimension
 10
-40.0
 20
75.0
 30
0.0
 11
-43.75
 21
56.75
 31
0.0
 70
1
 71
8
 72
2
 41
1.0
 42
0.0
  1

  3
Standard
100
AcDbAlignedDimension
 13
-33.0000000000000071
 23
75.0
 33
0.0
 14
-33.0000000000000071
 24
38.5
 34
0.0
1001
ACAD
1000
DSTYLE
1002
{
1070
144
1040
1
1002
}
  0
DIMENSION
  5
298
100
AcDbEntity
  8
dimensions
 62
256
370
-1
  6
BYLAYER
100
AcDbDimension
 10
-33.0000000000000071
 20
88.0
 30
0.0
 11
-55.75
 21
91.75
 31
0.0
 70
1
 71
8
 72
2
 41
1.0
 42
0.0
  1

  3
Standard
100
AcDbAlignedDimension
 13
-33.0000000000000071
 23
38.5
 33
0.0
 14
-78.5
 24
38.5
 34
0.0
1001
ACAD
1000
DSTYLE
1002
{
1070
144
1040
1
1002
}
  0
MTEXT
  5
299
100
AcDbEntity
100
AcDbMText
  8
electrical
 62
256
370
-1
  6
BYLAYER
 10
-366.8066166439291464
 20
-56.2320508075688963
 30
0.0
 40
2.5
 41
0.0
 71
1
 72
1
  1
5
  7
textstyle101
 50
0.0
 73
2
 44
1.0
  0
INSERT
  5
29A
100
AcDbEntity
100
AcDbBlockReference
  8
electrical
 62
256
370
-1
  6
BYLAYER
  2
outlet
 10
-368.8066166439290328
 20
-54.5
 30
0.0
  0
MTEXT
  5
29B
100
AcDbEntity
100
AcDbMText
  8
electrical
 62
256
370
-1
  6
BYLAYER
 10
177.1712141882672995
 20
-52.2320508075685623
 30
0.0
 40
2.5
 41
0.0
 71
1
 72
1
  1
5
  7
textstyle102
 50
0.0
 73
2
 44
1.0
  0
INSERT
  5
29C
100
AcDbEntity
100
AcDbBlockReference
  8
electrical
 62
256
370
-1
  6
BYLAYER
  2
outlet
 10
175.1712141882674132
 20
-50.5
 30
0.0
  0
MTEXT
  5
29D
100
AcDbEntity
100
AcDbMText
  8
electrical
 62
256
370
-1
  6
BYLAYER
 10
-576.0
 20
-36.0
 30
0.0
 40
10.0
 41
0.0
 71
1
 72
1
  1
Entire Garage: 20
  7
textstyle103
 50
0.0
 73
2
 44
1.0
  0
MTEXT
  5
29E
100
AcDbEntity
100
AcDbMText
  8
electrical
 62
256
370
-1
  6
BYLAYER
 10
-661.4603635252582308
 20
-653.6600426342027959
 30
0.0
 40
10.0
 41
0.0
 71
1
 72
1
  1
22 Kitchen (Garberator)\P18/20 Garage\P14/16 Kitchen (Plugs)\P10/12 Kitchen (Plugs)\P6/8 Utility Room (Dryer)\P2/4 Kitchen (Stove)
  7
textstyle104
 50
0.0
 73
2
 44
1.0
  0
MTEXT
  5
29F
100
AcDbEntity
100
AcDbMText
  8
electrical
 62
256
370
-1
  6
BYLAYER
 10
-416.3724956922444562
 20
-510.381576700439723
 30
0.0
 40
10.0
 41
0.0
 71
1
 72
1
  3
31\P29\P27\P25\P23\P21\P19 Living Room (Light + Plugs), Front Entrance (Lights In + Out), Side Entrance (Lights In + Out)\P17\P15 Kitchen (Fridge + Dishwasher)\P13 Kitchen (Lights, Range Hood, Fan), Dining Room (Light + Plug), Living Room (Plug), Uti
  3
lity Room (Lights), Wood shop (Light)\P11Bedrooms Upstairs (Lights, Plugs)\P9 Bedroom Down (Lights, Plugs), Hallway (Light, Up + Down), Bathroom (Lights + Fan, Up), Bathroom (Vanity Light, Down)\P7 Hallway (Smoke Detector, Up + Down)\P5 Outside (Plug
  1
s)\P3 Utility Room (Washing Machine)\P1 Utility Room (Furnace)
  7
textstyle105
 50
0.0
 73
2
 44
1.0
  0
INSERT
  5
2A0
100
AcDbEntity
100
AcDbBlockReference
  8
electrical
 62
256
370
-1
  6
BYLAYER
  2
light
 10
-160.7618196415638465
 20
-399.3503440342642534
 30
0.0
  0
MTEXT
  5
2A1
100
AcDbEntity
100
AcDbMText
  8
electrical
 62
256
370
-1
  6
BYLAYER
 10
-158.330748700227133
 20
-402.0952280724635557
 30
0.0
 40
2.5
 41
0.0
 71
1
 72
1
  1
9
  7
textstyle106
 50
0.0
 73
2
 44
1.0
  0
ENDSEC
  0
SECTION
  2
OBJECTS
  0
DICTIONARY
  5
C
100
AcDbDictionary
280
0
281
1
  3
ACAD_GROUP
350
D
  3
ACAD_LAYOUT
350
1A
  3
ACAD_MLINESTYLE
350
17
  3
ACAD_PLOTSETTINGS
350
19
  3
ACAD_PLOTSTYLENAME
350
E
  3
AcDbVariableDictionary
350
2A2
  3
QCAD_OBJECTS
350
2A3
  0
DICTIONARY
  5
D
100
AcDbDictionary
280
0
281
1
  0
ACDBDICTIONARYWDFLT
  5
E
100
AcDbDictionary
281
1
  3
Normal
350
F
100
AcDbDictionaryWithDefault
340
F
  0
ACDBPLACEHOLDER
  5
F
  0
DICTIONARY
  5
17
100
AcDbDictionary
280
0
281
1
  3
Standard
350
18
  0
MLINESTYLE
  5
18
100
AcDbMlineStyle
  2
STANDARD
 70
0
  3

 62
256
 51
90.0
 52
90.0
 71
2
 49
0.5
 62
256
  6
BYLAYER
 49
-0.5
 62
256
  6
BYLAYER
  0
DICTIONARY
  5
19
100
AcDbDictionary
280
0
281
1
  0
DICTIONARY
  5
1A
100
AcDbDictionary
281
1
  3
Layout1
350
1E
  3
Layout2
350
26
  3
Model
350
22
  0
LAYOUT
  5
1E
100
AcDbPlotSettings
  1

  2
none_device
  4

  6

 40
0.0
 41
0.0
 42
0.0
 43
0.0
 44
0.0
 45
0.0
 46
0.0
 47
0.0
 48
0.0
 49
0.0
140
0.0
141
0.0
142
1.0
143
1.0
 70
688
 72
0
 73
0
 74
5
  7

 75
16
147
1.0
148
0.0
149
0.0
100
AcDbLayout
  1
Layout1
 70
1
 71
1
 10
0.0
 20
0.0
 11
420.0
 21
297.0
 12
0.0
 22
0.0
 32
0.0
 14
100000000000000000000.0
 24
100000000000000000000.0
 34
100000000000000000000.0
 15
-100000000000000000000.0
 25
-100000000000000000000.0
 35
-100000000000000000000.0
146
0.0
 13
0.0
 23
0.0
 33
0.0
 16
1.0
 26
0.0
 36
0.0
 17
0.0
 27
1.0
 37
0.0
 76
0
330
1B
  0
LAYOUT
  5
22
100
AcDbPlotSettings
  1

  2
none_device
  4

  6

 40
0.0
 41
0.0
 42
0.0
 43
0.0
 44
0.0
 45
0.0
 46
0.0
 47
0.0
 48
0.0
 49
0.0
140
0.0
141
0.0
142
1.0
143
1.0
 70
1712
 72
0
 73
0
 74
0
  7

 75
0
147
1.0
148
0.0
149
0.0
100
AcDbLayout
  1
Model
 70
1
 71
0
 10
0.0
 20
0.0
 11
12.0
 21
9.0
 12
0.0
 22
0.0
 32
0.0
 14
0.0
 24
0.0
 34
0.0
 15
0.0
 25
0.0
 35
0.0
146
0.0
 13
0.0
 23
0.0
 33
0.0
 16
1.0
 26
0.0
 36
0.0
 17
0.0
 27
1.0
 37
0.0
 76
0
330
1F
  0
LAYOUT
  5
26
100
AcDbPlotSettings
  1

  2
none_device
  4

  6

 40
0.0
 41
0.0
 42
0.0
 43
0.0
 44
0.0
 45
0.0
 46
0.0
 47
0.0
 48
0.0
 49
0.0
140
0.0
141
0.0
142
1.0
143
1.0
 70
688
 72
0
 73
0
 74
5
  7

 75
16
147
1.0
148
0.0
149
0.0
100
AcDbLayout
  1
Layout2
 70
1
 71
2
 10
0.0
 20
0.0
 11
12.0
 21
9.0
 12
0.0
 22
0.0
 32
0.0
 14
0.0
 24
0.0
 34
0.0
 15
0.0
 25
0.0
 35
0.0
146
0.0
 13
0.0
 23
0.0
 33
0.0
 16
1.0
 26
0.0
 36
0.0
 17
0.0
 27
1.0
 37
0.0
 76
0
330
23
  0
DICTIONARY
  5
2A2
100
AcDbDictionary
281
1
  3
DIMASSOC
350
2A5
  3
HIDETEXT
350
2A4
  0
DICTIONARYVAR
  5
2A4
100
DictionaryVariables
280
0
  1
2
  0
DICTIONARYVAR
  5
2A5
100
DictionaryVariables
280
0
  1
1
  0
DICTIONARY
  5
2A3
100
AcDbDictionary
281
1
  3
DimensionSettings/AngularFormat
350
2A6
  3
DimensionSettings/AngularPrecision
350
2A7
  3
DimensionSettings/KeepProportions
350
2A8
  3
DimensionSettings/LinearFormat
350
2A9
  3
DimensionSettings/LinearPrecision
350
2AA
  3
Grid/DisplayGrid00
350
2AB
  3
Grid/DisplayGrid01
350
2AC
  3
Grid/DisplayGrid02
350
2AD
  3
Grid/DisplayGrid03
350
2AE
  3
Grid/GridSpacingX00
350
2AF
  3
Grid/GridSpacingX01
350
2B0
  3
Grid/GridSpacingX02
350
2B1
  3
Grid/GridSpacingX03
350
2B2
  3
Grid/GridSpacingY00
350
2B3
  3
Grid/GridSpacingY01
350
2B4
  3
Grid/GridSpacingY02
350
2B5
  3
Grid/GridSpacingY03
350
2B6
  3
Grid/IsometricGrid00
350
2B7
  3
Grid/IsometricGrid01
350
2B8
  3
Grid/IsometricGrid02
350
2B9
  3
Grid/IsometricGrid03
350
2BA
  3
Grid/IsometricProjection00
350
2BB
  3
Grid/IsometricProjection01
350
2BC
  3
Grid/IsometricProjection02
350
2BD
  3
Grid/IsometricProjection03
350
2BE
  3
Grid/MetaGridSpacingX00
350
2BF
  3
Grid/MetaGridSpacingX01
350
2C0
  3
Grid/MetaGridSpacingX02
350
2C1
  3
Grid/MetaGridSpacingX03
350
2C2
  3
Grid/MetaGridSpacingY00
350
2C3
  3
Grid/MetaGridSpacingY01
350
2C4
  3
Grid/MetaGridSpacingY02
350
2C5
  3
Grid/MetaGridSpacingY03
350
2C6
  3
MultiPageSettings/Columns
350
2C7
  3
MultiPageSettings/GlueMarginsBottom
350
2C8
  3
MultiPageSettings/GlueMarginsLeft
350
2C9
  3
MultiPageSettings/GlueMarginsRight
350
2CA
  3
MultiPageSettings/GlueMarginsTop
350
2CB
  3
MultiPageSettings/PrintCropMarks
350
2CC
  3
MultiPageSettings/Rows
350
2CD
  3
PageSettings/OffsetX
350
2CE
  3
PageSettings/OffsetY
350
2CF
  3
PageSettings/PageOrientation
350
2D0
  3
PageSettings/PaperHeight
350
2D1
  3
PageSettings/PaperWidth
350
2D2
  3
PageSettings/Scale
350
2D3
  3
PageSettings/ShowPaperBorders
350
2D4
  3
UnitSettings/PaperUnit
350
2D5
  0
XRECORD
  5
2A6
330
2A3
100
AcDbXrecord
280
1
 90
0
  0
XRECORD
  5
2A7
330
2A3
100
AcDbXrecord
280
1
 90
0
  0
XRECORD
  5
2A8
330
2A3
100
AcDbXrecord
280
1
290
1
  0
XRECORD
  5
2A9
330
2A3
100
AcDbXrecord
280
1
 90
4
  0
XRECORD
  5
2AA
330
2A3
100
AcDbXrecord
280
1
 90
2
  0
XRECORD
  5
2AB
330
2A3
100
AcDbXrecord
280
1
290
1
  0
XRECORD
  5
2AC
330
2A3
100
AcDbXrecord
280
1
290
1
  0
XRECORD
  5
2AD
330
2A3
100
AcDbXrecord
280
1
290
1
  0
XRECORD
  5
2AE
330
2A3
100
AcDbXrecord
280
1
290
1
  0
XRECORD
  5
2AF
330
2A3
100
AcDbXrecord
280
1
1000
auto
  0
XRECORD
  5
2B0
330
2A3
100
AcDbXrecord
280
1
1000
auto
  0
XRECORD
  5
2B1
330
2A3
100
AcDbXrecord
280
1
1000
auto
  0
XRECORD
  5
2B2
330
2A3
100
AcDbXrecord
280
1
1000
auto
  0
XRECORD
  5
2B3
330
2A3
100
AcDbXrecord
280
1
1000
auto
  0
XRECORD
  5
2B4
330
2A3
100
AcDbXrecord
280
1
1000
auto
  0
XRECORD
  5
2B5
330
2A3
100
AcDbXrecord
280
1
1000
auto
  0
XRECORD
  5
2B6
330
2A3
100
AcDbXrecord
280
1
1000
auto
  0
XRECORD
  5
2B7
330
2A3
100
AcDbXrecord
280
1
290
0
  0
XRECORD
  5
2B8
330
2A3
100
AcDbXrecord
280
1
290
0
  0
XRECORD
  5
2B9
330
2A3
100
AcDbXrecord
280
1
290
0
  0
XRECORD
  5
2BA
330
2A3
100
AcDbXrecord
280
1
290
0
  0
XRECORD
  5
2BB
330
2A3
100
AcDbXrecord
280
1
 90
0
  0
XRECORD
  5
2BC
330
2A3
100
AcDbXrecord
280
1
 90
0
  0
XRECORD
  5
2BD
330
2A3
100
AcDbXrecord
280
1
 90
0
  0
XRECORD
  5
2BE
330
2A3
100
AcDbXrecord
280
1
 90
0
  0
XRECORD
  5
2BF
330
2A3
100
AcDbXrecord
280
1
1000
auto
  0
XRECORD
  5
2C0
330
2A3
100
AcDbXrecord
280
1
1000
auto
  0
XRECORD
  5
2C1
330
2A3
100
AcDbXrecord
280
1
1000
auto
  0
XRECORD
  5
2C2
330
2A3
100
AcDbXrecord
280
1
1000
auto
  0
XRECORD
  5
2C3
330
2A3
100
AcDbXrecord
280
1
1000
auto
  0
XRECORD
  5
2C4
330
2A3
100
AcDbXrecord
280
1
1000
auto
  0
XRECORD
  5
2C5
330
2A3
100
AcDbXrecord
280
1
1000
auto
  0
XRECORD
  5
2C6
330
2A3
100
AcDbXrecord
280
1
1000
auto
  0
XRECORD
  5
2C7
330
2A3
100
AcDbXrecord
280
1
 90
1
  0
XRECORD
  5
2C8
330
2A3
100
AcDbXrecord
280
1
 40
10.0
  0
XRECORD
  5
2C9
330
2A3
100
AcDbXrecord
280
1
 40
10.0
  0
XRECORD
  5
2CA
330
2A3
100
AcDbXrecord
280
1
 40
10.0
  0
XRECORD
  5
2CB
330
2A3
100
AcDbXrecord
280
1
 40
10.0
  0
XRECORD
  5
2CC
330
2A3
100
AcDbXrecord
280
1
290
0
  0
XRECORD
  5
2CD
330
2A3
100
AcDbXrecord
280
1
 90
1
  0
XRECORD
  5
2CE
330
2A3
100
AcDbXrecord
280
1
 40
0.0
  0
XRECORD
  5
2CF
330
2A3
100
AcDbXrecord
280
1
 40
0.0
  0
XRECORD
  5
2D0
330
2A3
100
AcDbXrecord
280
1
1000
Portrait
  0
XRECORD
  5
2D1
330
2A3
100
AcDbXrecord
280
1
 40
279.3999999999999773
  0
XRECORD
  5
2D2
330
2A3
100
AcDbXrecord
280
1
 40
215.9000000000000057
  0
XRECORD
  5
2D3
330
2A3
100
AcDbXrecord
280
1
1000
1:1
  0
XRECORD
  5
2D4
330
2A3
100
AcDbXrecord
280
1
290
1
  0
XRECORD
  5
2D5
330
2A3
100
AcDbXrecord
280
1
 90
1
  0
ENDSEC
  0
EOF
