999
dxflib 3.3.4.0
  0
SECTION
  2
HEADER
  9
$ACADVER
  1
AC1015
  9
$HANDSEED
  5
FFFF
  9
$DIMADEC
 70
0
  9
$DIMASZ
 40
5.0
  9
$DIMAUNIT
 70
0
  9
$DIMAZIN
 70
2
  9
$DIMDEC
 70
2
  9
$DIMEXE
 40
2.5
  9
$DIMEXO
 40
1.25
  9
$DIMGAP
 40
1.25
  9
$DIMLUNIT
 70
4
  9
$DIMTSZ
 40
5.0
  9
$DIMTXT
 40
5.0
  9
$DIMZIN
 70
8
  9
$DWGCODEPAGE
  3
ANSI_1252
  9
$INSUNITS
 70
1
  9
$LTSCALE
 40
1.0
  0
ENDSEC
  0
SECTION
  2
TABLES
  0
TABLE
  2
VPORT
  5
8
100
AcDbSymbolTable
 70
1
  0
VPORT
  5
30
100
AcDbSymbolTableRecord
100
AcDbViewportTableRecord
  2
*Active
 70
0
 10
0.0
 20
0.0
 11
1.0
 21
1.0
 12
286.3055555555554861
 22
148.5
 13
0.0
 23
0.0
 14
10.0
 24
10.0
 15
10.0
 25
10.0
 16
0.0
 26
0.0
 36
1.0
 17
0.0
 27
0.0
 37
0.0
 40
297.0
 41
1.92798353909465
 42
50.0
 43
0.0
 44
0.0
 50
0.0
 51
0.0
 71
0
 72
100
 73
1
 74
3
 75
1
 76
1
 77
0
 78
0
281
0
 65
1
110
0.0
120
0.0
130
0.0
111
1.0
121
0.0
131
0.0
112
0.0
122
1.0
132
0.0
 79
0
146
0.0
  0
ENDTAB
  0
TABLE
  2
LTYPE
  5
5
100
AcDbSymbolTable
 70
21
  0
LTYPE
  5
16
100
AcDbSymbolTableRecord
100
AcDbLinetypeTableRecord
  2
CONTINUOUS
 70
0
  3
Solid line
 72
65
 73
0
 40
0.0
  0
LTYPE
  5
31
100
AcDbSymbolTableRecord
100
AcDbLinetypeTableRecord
  2
CENTER2
 70
0
  3
Center (.5x) ___ _ ___ _ ___ _ ___ _ ___ _ ___
 72
65
 73
4
 40
28.5749999999999993
 49
19.0500000000000007
 74
0
 49
-3.1749999999999998
 74
0
 49
3.1749999999999998
 74
0
 49
-3.1749999999999998
 74
0
  0
LTYPE
  5
32
100
AcDbSymbolTableRecord
100
AcDbLinetypeTableRecord
  2
DIVIDEX2
 70
0
  3
Divide (2x) ________  .  .  ________  .  .  _
 72
65
 73
6
 40
63.5
 49
25.3999999999999986
 74
0
 49
-12.6999999999999993
 74
0
 49
0.0
 74
0
 49
-12.6999999999999993
 74
0
 49
0.0
 74
0
 49
-12.6999999999999993
 74
0
  0
LTYPE
  5
33
100
AcDbSymbolTableRecord
100
AcDbLinetypeTableRecord
  2
DOT2
 70
0
  3
Dot (.5x) .....................................
 72
65
 73
2
 40
3.1749999999999998
 49
0.0
 74
0
 49
-3.1749999999999998
 74
0
  0
LTYPE
  5
34
100
AcDbSymbolTableRecord
100
AcDbLinetypeTableRecord
  2
DASHDOT2
 70
0
  3
Dash dot (.5x) _._._._._._._._._._._._._._._.
 72
65
 73
4
 40
12.6999999999999993
 49
6.3499999999999996
 74
0
 49
-3.1749999999999998
 74
0
 49
0.0
 74
0
 49
-3.1749999999999998
 74
0
  0
LTYPE
  5
35
100
AcDbSymbolTableRecord
100
AcDbLinetypeTableRecord
  2
DIVIDE
 70
0
  3
Divide ____ . . ____ . . ____ . . ____ . . ____
 72
65
 73
6
 40
31.75
 49
12.6999999999999993
 74
0
 49
-6.3499999999999996
 74
0
 49
0.0
 74
0
 49
-6.3499999999999996
 74
0
 49
0.0
 74
0
 49
-6.3499999999999996
 74
0
  0
LTYPE
  5
36
100
AcDbSymbolTableRecord
100
AcDbLinetypeTableRecord
  2
DASHDOT
 70
0
  3
Dash dot __ . __ . __ . __ . __ . __ . __ . __
 72
65
 73
4
 40
25.3999999999999986
 49
12.6999999999999993
 74
0
 49
-6.3499999999999996
 74
0
 49
0.0
 74
0
 49
-6.3499999999999996
 74
0
  0
LTYPE
  5
37
100
AcDbSymbolTableRecord
100
AcDbLinetypeTableRecord
  2
BORDER
 70
0
  3
Border __ __ . __ __ . __ __ . __ __ . __ __ .
 72
65
 73
6
 40
44.4500000000000028
 49
12.6999999999999993
 74
0
 49
-6.3499999999999996
 74
0
 49
12.6999999999999993
 74
0
 49
-6.3499999999999996
 74
0
 49
0.0
 74
0
 49
-6.3499999999999996
 74
0
  0
LTYPE
  5
38
100
AcDbSymbolTableRecord
100
AcDbLinetypeTableRecord
  2
DASHDOTX2
 70
0
  3
Dash dot (2x) ____  .  ____  .  ____  .  ___
 72
65
 73
4
 40
50.7999999999999972
 49
25.3999999999999986
 74
0
 49
-12.6999999999999993
 74
0
 49
0.0
 74
0
 49
-12.6999999999999993
 74
0
  0
LTYPE
  5
39
100
AcDbSymbolTableRecord
100
AcDbLinetypeTableRecord
  2
CENTERX2
 70
0
  3
Center (2x) ________  __  ________  __  _____
 72
65
 73
4
 40
101.5999999999999943
 49
63.5
 74
0
 49
-12.6999999999999993
 74
0
 49
12.6999999999999993
 74
0
 49
-12.6999999999999993
 74
0
  0
LTYPE
  5
3A
100
AcDbSymbolTableRecord
100
AcDbLinetypeTableRecord
  2
BORDER2
 70
0
  3
Border (.5x) __.__.__.__.__.__.__.__.__.__.__.
 72
65
 73
6
 40
22.2250000000000014
 49
6.3499999999999996
 74
0
 49
-3.1749999999999998
 74
0
 49
6.3499999999999996
 74
0
 49
-3.1749999999999998
 74
0
 49
0.0
 74
0
 49
-3.1749999999999998
 74
0
  0
LTYPE
  5
3B
100
AcDbSymbolTableRecord
100
AcDbLinetypeTableRecord
  2
BORDERX2
 70
0
  3
Border (2x) ____  ____  .  ____  ____  .  ___
 72
65
 73
6
 40
88.9000000000000057
 49
25.3999999999999986
 74
0
 49
-12.6999999999999993
 74
0
 49
25.3999999999999986
 74
0
 49
-12.6999999999999993
 74
0
 49
0.0
 74
0
 49
-12.6999999999999993
 74
0
  0
LTYPE
  5
14
100
AcDbSymbolTableRecord
100
AcDbLinetypeTableRecord
  2
BYBLOCK
 70
0
  3

 72
65
 73
0
 40
0.0
  0
LTYPE
  5
15
100
AcDbSymbolTableRecord
100
AcDbLinetypeTableRecord
  2
BYLAYER
 70
0
  3

 72
65
 73
0
 40
0.0
  0
LTYPE
  5
3C
100
AcDbSymbolTableRecord
100
AcDbLinetypeTableRecord
  2
DASHED2
 70
0
  3
Dashed (.5x) _ _ _ _ _ _ _ _ _ _ _ _ _ _ _ _ _
 72
65
 73
2
 40
9.5250000000000004
 49
6.3499999999999996
 74
0
 49
-3.1749999999999998
 74
0
  0
LTYPE
  5
3D
100
AcDbSymbolTableRecord
100
AcDbLinetypeTableRecord
  2
CENTER
 70
0
  3
Center ____ _ ____ _ ____ _ ____ _ ____ _ ____
 72
65
 73
4
 40
50.7999999999999972
 49
31.75
 74
0
 49
-6.3499999999999996
 74
0
 49
6.3499999999999996
 74
0
 49
-6.3499999999999996
 74
0
  0
LTYPE
  5
3E
100
AcDbSymbolTableRecord
100
AcDbLinetypeTableRecord
  2
DIVIDE2
 70
0
  3
Divide (.5x) __..__..__..__..__..__..__..__.._
 72
65
 73
6
 40
15.875
 49
6.3499999999999996
 74
0
 49
-3.1749999999999998
 74
0
 49
0.0
 74
0
 49
-3.1749999999999998
 74
0
 49
0.0
 74
0
 49
-3.1749999999999998
 74
0
  0
LTYPE
  5
3F
100
AcDbSymbolTableRecord
100
AcDbLinetypeTableRecord
  2
DASHED
 70
0
  3
Dashed __ __ __ __ __ __ __ __ __ __ __ __ __ _
 72
65
 73
2
 40
19.0500000000000007
 49
12.6999999999999993
 74
0
 49
-6.3499999999999996
 74
0
  0
LTYPE
  5
40
100
AcDbSymbolTableRecord
100
AcDbLinetypeTableRecord
  2
DOTX2
 70
0
  3
Dot (2x) .  .  .  .  .  .  .  .  .  .  .  .  .
 72
65
 73
2
 40
12.6999999999999993
 49
0.0
 74
0
 49
-12.6999999999999993
 74
0
  0
LTYPE
  5
41
100
AcDbSymbolTableRecord
100
AcDbLinetypeTableRecord
  2
DASHEDX2
 70
0
  3
Dashed (2x) ____  ____  ____  ____  ____  ___
 72
65
 73
2
 40
38.1000000000000014
 49
25.3999999999999986
 74
0
 49
-12.6999999999999993
 74
0
  0
LTYPE
  5
42
100
AcDbSymbolTableRecord
100
AcDbLinetypeTableRecord
  2
DOT
 70
0
  3
Dot . . . . . . . . . . . . . . . . . . . . . .
 72
65
 73
2
 40
6.3499999999999996
 49
0.0
 74
0
 49
-6.3499999999999996
 74
0
  0
ENDTAB
  0
TABLE
  2
LAYER
  5
2
100
AcDbSymbolTable
 70
8
  0
LAYER
  5
43
100
AcDbSymbolTableRecord
100
AcDbLayerTableRecord
  2
room_names
 70
0
 62
5
420
255
  6
CONTINUOUS
370
25
390
F
  0
LAYER
  5
44
100
AcDbSymbolTableRecord
100
AcDbLayerTableRecord
  2
electrical
 70
0
 62
1
420
16711680
  6
CONTINUOUS
370
25
390
F
  0
LAYER
  5
45
100
AcDbSymbolTableRecord
100
AcDbLayerTableRecord
  2
baseboard
 70
0
 62
5
420
255
  6
CONTINUOUS
370
25
390
F
  0
LAYER
  5
46
100
AcDbSymbolTableRecord
100
AcDbLayerTableRecord
  2
dimensions
 70
0
 62
252
420
10526884
  6
CONTINUOUS
370
25
390
F
  0
LAYER
  5
47
100
AcDbSymbolTableRecord
100
AcDbLayerTableRecord
  2
tile_area
 70
1
 62
-7
420
0
  6
CONTINUOUS
370
25
390
F
  0
LAYER
  5
48
100
AcDbSymbolTableRecord
100
AcDbLayerTableRecord
  2
railing
 70
1
 62
-7
420
0
  6
DIVIDE
370
-3
390
F
  0
LAYER
  5
49
100
AcDbSymbolTableRecord
100
AcDbLayerTableRecord
  2
hardwood_area
 70
1
 62
-7
420
0
  6
CONTINUOUS
370
25
390
F
  0
LAYER
  5
10
100
AcDbSymbolTableRecord
100
AcDbLayerTableRecord
  2
0
 70
0
 62
7
420
0
  6
CONTINUOUS
370
25
390
F
  0
ENDTAB
  0
TABLE
  2
STYLE
  5
3
100
AcDbSymbolTable
 70
125
  0
STYLE
  5
4A
100
AcDbSymbolTableRecord
100
AcDbTextStyleTableRecord
  2
Standard
 70
0
 40
0.0
 41
1.0
 50
0.0
 71
0
 42
2.5
  3

  4

1001
ACAD
1000
txt
1071
0
  0
STYLE
  5
4B
100
AcDbSymbolTableRecord
100
AcDbTextStyleTableRecord
  2
textstyle0
 70
0
 40
0.0
 41
1.0
 50
0.0
 71
0
 42
6.0
  3

  4

1001
ACAD
1000
Arial
1071
0
  0
STYLE
  5
4C
100
AcDbSymbolTableRecord
100
AcDbTextStyleTableRecord
  2
textstyle1
 70
0
 40
0.0
 41
1.0
 50
0.0
 71
0
 42
6.0
  3

  4

1001
ACAD
1000
Arial
1071
0
  0
STYLE
  5
4D
100
AcDbSymbolTableRecord
100
AcDbTextStyleTableRecord
  2
textstyle2
 70
0
 40
0.0
 41
1.0
 50
0.0
 71
0
 42
6.0
  3

  4

1001
ACAD
1000
Arial
1071
0
  0
STYLE
  5
4E
100
AcDbSymbolTableRecord
100
AcDbTextStyleTableRecord
  2
textstyle3
 70
0
 40
0.0
 41
1.0
 50
0.0
 71
0
 42
6.0
  3

  4

1001
ACAD
1000
Arial
1071
0
  0
STYLE
  5
4F
100
AcDbSymbolTableRecord
100
AcDbTextStyleTableRecord
  2
textstyle4
 70
0
 40
0.0
 41
1.0
 50
0.0
 71
0
 42
6.0
  3

  4

1001
ACAD
1000
Arial
1071
0
  0
STYLE
  5
50
100
AcDbSymbolTableRecord
100
AcDbTextStyleTableRecord
  2
textstyle5
 70
0
 40
0.0
 41
1.0
 50
0.0
 71
0
 42
6.0
  3

  4

1001
ACAD
1000
Arial
1071
0
  0
STYLE
  5
51
100
AcDbSymbolTableRecord
100
AcDbTextStyleTableRecord
  2
textstyle6
 70
0
 40
0.0
 41
1.0
 50
0.0
 71
0
 42
6.0
  3

  4

1001
ACAD
1000
Arial
1071
0
  0
STYLE
  5
52
100
AcDbSymbolTableRecord
100
AcDbTextStyleTableRecord
  2
textstyle7
 70
0
 40
0.0
 41
1.0
 50
0.0
 71
0
 42
6.0
  3

  4

1001
ACAD
1000
Arial
1071
0
  0
STYLE
  5
53
100
AcDbSymbolTableRecord
100
AcDbTextStyleTableRecord
  2
textstyle8
 70
0
 40
0.0
 41
1.0
 50
0.0
 71
0
 42
12.0
  3

  4

1001
ACAD
1000
Arial
1071
0
  0
STYLE
  5
54
100
AcDbSymbolTableRecord
100
AcDbTextStyleTableRecord
  2
textstyle9
 70
0
 40
0.0
 41
1.0
 50
0.0
 71
0
 42
12.0
  3

  4

1001
ACAD
1000
Arial
1071
0
  0
STYLE
  5
55
100
AcDbSymbolTableRecord
100
AcDbTextStyleTableRecord
  2
textstyle10
 70
0
 40
0.0
 41
1.0
 50
0.0
 71
0
 42
2.0
  3

  4

1001
ACAD
1000
Arial
1071
0
  0
STYLE
  5
56
100
AcDbSymbolTableRecord
100
AcDbTextStyleTableRecord
  2
textstyle11
 70
0
 40
0.0
 41
1.0
 50
0.0
 71
0
 42
25.0
  3

  4

1001
ACAD
1000
Arial
1071
0
  0
STYLE
  5
57
100
AcDbSymbolTableRecord
100
AcDbTextStyleTableRecord
  2
textstyle12
 70
0
 40
0.0
 41
1.0
 50
0.0
 71
0
 42
2.5
  3

  4

1001
ACAD
1000
Arial
1071
0
  0
STYLE
  5
58
100
AcDbSymbolTableRecord
100
AcDbTextStyleTableRecord
  2
textstyle13
 70
0
 40
0.0
 41
1.0
 50
0.0
 71
0
 42
2.5
  3

  4

1001
ACAD
1000
Arial
1071
0
  0
STYLE
  5
59
100
AcDbSymbolTableRecord
100
AcDbTextStyleTableRecord
  2
textstyle14
 70
0
 40
0.0
 41
1.0
 50
0.0
 71
0
 42
2.5
  3

  4

1001
ACAD
1000
Arial
1071
0
  0
STYLE
  5
5A
100
AcDbSymbolTableRecord
100
AcDbTextStyleTableRecord
  2
textstyle15
 70
0
 40
0.0
 41
1.0
 50
0.0
 71
0
 42
2.5
  3

  4

1001
ACAD
1000
Arial
1071
0
  0
STYLE
  5
5B
100
AcDbSymbolTableRecord
100
AcDbTextStyleTableRecord
  2
textstyle16
 70
0
 40
0.0
 41
1.0
 50
0.0
 71
0
 42
2.5
  3

  4

1001
ACAD
1000
Arial
1071
0
  0
STYLE
  5
5C
100
AcDbSymbolTableRecord
100
AcDbTextStyleTableRecord
  2
textstyle17
 70
0
 40
0.0
 41
1.0
 50
0.0
 71
0
 42
2.5
  3

  4

1001
ACAD
1000
Arial
1071
0
  0
STYLE
  5
5D
100
AcDbSymbolTableRecord
100
AcDbTextStyleTableRecord
  2
textstyle18
 70
0
 40
0.0
 41
1.0
 50
0.0
 71
0
 42
2.5
  3

  4

1001
ACAD
1000
Arial
1071
0
  0
STYLE
  5
5E
100
AcDbSymbolTableRecord
100
AcDbTextStyleTableRecord
  2
textstyle19
 70
0
 40
0.0
 41
1.0
 50
0.0
 71
0
 42
2.5
  3

  4

1001
ACAD
1000
Arial
1071
0
  0
STYLE
  5
5F
100
AcDbSymbolTableRecord
100
AcDbTextStyleTableRecord
  2
textstyle20
 70
0
 40
0.0
 41
1.0
 50
0.0
 71
0
 42
2.5
  3

  4

1001
ACAD
1000
Arial
1071
0
  0
STYLE
  5
60
100
AcDbSymbolTableRecord
100
AcDbTextStyleTableRecord
  2
textstyle21
 70
0
 40
0.0
 41
1.0
 50
0.0
 71
0
 42
2.5
  3

  4

1001
ACAD
1000
Arial
1071
0
  0
STYLE
  5
61
100
AcDbSymbolTableRecord
100
AcDbTextStyleTableRecord
  2
textstyle22
 70
0
 40
0.0
 41
1.0
 50
0.0
 71
0
 42
2.5
  3

  4

1001
ACAD
1000
Arial
1071
0
  0
STYLE
  5
62
100
AcDbSymbolTableRecord
100
AcDbTextStyleTableRecord
  2
textstyle23
 70
0
 40
0.0
 41
1.0
 50
0.0
 71
0
 42
2.5
  3

  4

1001
ACAD
1000
Arial
1071
0
  0
STYLE
  5
63
100
AcDbSymbolTableRecord
100
AcDbTextStyleTableRecord
  2
textstyle24
 70
0
 40
0.0
 41
1.0
 50
0.0
 71
0
 42
2.5
  3

  4

1001
ACAD
1000
Arial
1071
0
  0
STYLE
  5
64
100
AcDbSymbolTableRecord
100
AcDbTextStyleTableRecord
  2
textstyle25
 70
0
 40
0.0
 41
1.0
 50
0.0
 71
0
 42
2.5
  3

  4

1001
ACAD
1000
Arial
1071
0
  0
STYLE
  5
65
100
AcDbSymbolTableRecord
100
AcDbTextStyleTableRecord
  2
textstyle26
 70
0
 40
0.0
 41
1.0
 50
0.0
 71
0
 42
2.5
  3

  4

1001
ACAD
1000
Arial
1071
0
  0
STYLE
  5
66
100
AcDbSymbolTableRecord
100
AcDbTextStyleTableRecord
  2
textstyle27
 70
0
 40
0.0
 41
1.0
 50
0.0
 71
0
 42
2.5
  3

  4

1001
ACAD
1000
Arial
1071
0
  0
STYLE
  5
67
100
AcDbSymbolTableRecord
100
AcDbTextStyleTableRecord
  2
textstyle28
 70
0
 40
0.0
 41
1.0
 50
0.0
 71
0
 42
2.5
  3

  4

1001
ACAD
1000
Arial
1071
0
  0
STYLE
  5
68
100
AcDbSymbolTableRecord
100
AcDbTextStyleTableRecord
  2
textstyle29
 70
0
 40
0.0
 41
1.0
 50
0.0
 71
0
 42
2.5
  3

  4

1001
ACAD
1000
Arial
1071
0
  0
STYLE
  5
69
100
AcDbSymbolTableRecord
100
AcDbTextStyleTableRecord
  2
textstyle30
 70
0
 40
0.0
 41
1.0
 50
0.0
 71
0
 42
2.5
  3

  4

1001
ACAD
1000
Arial
1071
0
  0
STYLE
  5
6A
100
AcDbSymbolTableRecord
100
AcDbTextStyleTableRecord
  2
textstyle31
 70
0
 40
0.0
 41
1.0
 50
0.0
 71
0
 42
2.5
  3

  4

1001
ACAD
1000
Arial
1071
0
  0
STYLE
  5
6B
100
AcDbSymbolTableRecord
100
AcDbTextStyleTableRecord
  2
textstyle32
 70
0
 40
0.0
 41
1.0
 50
0.0
 71
0
 42
2.5
  3

  4

1001
ACAD
1000
Arial
1071
0
  0
STYLE
  5
6C
100
AcDbSymbolTableRecord
100
AcDbTextStyleTableRecord
  2
textstyle33
 70
0
 40
0.0
 41
1.0
 50
0.0
 71
0
 42
2.5
  3

  4

1001
ACAD
1000
Arial
1071
0
  0
STYLE
  5
6D
100
AcDbSymbolTableRecord
100
AcDbTextStyleTableRecord
  2
textstyle34
 70
0
 40
0.0
 41
1.0
 50
0.0
 71
0
 42
2.5
  3

  4

1001
ACAD
1000
Arial
1071
0
  0
STYLE
  5
6E
100
AcDbSymbolTableRecord
100
AcDbTextStyleTableRecord
  2
textstyle35
 70
0
 40
0.0
 41
1.0
 50
0.0
 71
0
 42
2.5
  3

  4

1001
ACAD
1000
Arial
1071
0
  0
STYLE
  5
6F
100
AcDbSymbolTableRecord
100
AcDbTextStyleTableRecord
  2
textstyle36
 70
0
 40
0.0
 41
1.0
 50
0.0
 71
0
 42
2.5
  3

  4

1001
ACAD
1000
Arial
1071
0
  0
STYLE
  5
70
100
AcDbSymbolTableRecord
100
AcDbTextStyleTableRecord
  2
textstyle37
 70
0
 40
0.0
 41
1.0
 50
0.0
 71
0
 42
2.5
  3

  4

1001
ACAD
1000
Arial
1071
0
  0
STYLE
  5
71
100
AcDbSymbolTableRecord
100
AcDbTextStyleTableRecord
  2
textstyle38
 70
0
 40
0.0
 41
1.0
 50
0.0
 71
0
 42
2.5
  3

  4

1001
ACAD
1000
Arial
1071
0
  0
STYLE
  5
72
100
AcDbSymbolTableRecord
100
AcDbTextStyleTableRecord
  2
textstyle39
 70
0
 40
0.0
 41
1.0
 50
0.0
 71
0
 42
2.5
  3

  4

1001
ACAD
1000
Arial
1071
0
  0
STYLE
  5
73
100
AcDbSymbolTableRecord
100
AcDbTextStyleTableRecord
  2
textstyle40
 70
0
 40
0.0
 41
1.0
 50
0.0
 71
0
 42
2.5
  3

  4

1001
ACAD
1000
Arial
1071
0
  0
STYLE
  5
74
100
AcDbSymbolTableRecord
100
AcDbTextStyleTableRecord
  2
textstyle41
 70
0
 40
0.0
 41
1.0
 50
0.0
 71
0
 42
2.5
  3

  4

1001
ACAD
1000
Arial
1071
0
  0
STYLE
  5
75
100
AcDbSymbolTableRecord
100
AcDbTextStyleTableRecord
  2
textstyle42
 70
0
 40
0.0
 41
1.0
 50
0.0
 71
0
 42
2.5
  3

  4

1001
ACAD
1000
Arial
1071
0
  0
STYLE
  5
76
100
AcDbSymbolTableRecord
100
AcDbTextStyleTableRecord
  2
textstyle43
 70
0
 40
0.0
 41
1.0
 50
0.0
 71
0
 42
2.5
  3

  4

1001
ACAD
1000
Arial
1071
0
  0
STYLE
  5
77
100
AcDbSymbolTableRecord
100
AcDbTextStyleTableRecord
  2
textstyle44
 70
0
 40
0.0
 41
1.0
 50
0.0
 71
0
 42
2.5
  3

  4

1001
ACAD
1000
Arial
1071
0
  0
STYLE
  5
78
100
AcDbSymbolTableRecord
100
AcDbTextStyleTableRecord
  2
textstyle45
 70
0
 40
0.0
 41
1.0
 50
0.0
 71
0
 42
2.5
  3

  4

1001
ACAD
1000
Arial
1071
0
  0
STYLE
  5
79
100
AcDbSymbolTableRecord
100
AcDbTextStyleTableRecord
  2
textstyle46
 70
0
 40
0.0
 41
1.0
 50
0.0
 71
0
 42
2.5
  3

  4

1001
ACAD
1000
Arial
1071
0
  0
STYLE
  5
7A
100
AcDbSymbolTableRecord
100
AcDbTextStyleTableRecord
  2
textstyle47
 70
0
 40
0.0
 41
1.0
 50
0.0
 71
0
 42
2.5
  3

  4

1001
ACAD
1000
Arial
1071
0
  0
STYLE
  5
7B
100
AcDbSymbolTableRecord
100
AcDbTextStyleTableRecord
  2
textstyle48
 70
0
 40
0.0
 41
1.0
 50
0.0
 71
0
 42
2.5
  3

  4

1001
ACAD
1000
Arial
1071
0
  0
STYLE
  5
7C
100
AcDbSymbolTableRecord
100
AcDbTextStyleTableRecord
  2
textstyle49
 70
0
 40
0.0
 41
1.0
 50
0.0
 71
0
 42
2.5
  3

  4

1001
ACAD
1000
Arial
1071
0
  0
STYLE
  5
7D
100
AcDbSymbolTableRecord
100
AcDbTextStyleTableRecord
  2
textstyle50
 70
0
 40
0.0
 41
1.0
 50
0.0
 71
0
 42
2.5
  3

  4

1001
ACAD
1000
Arial
1071
0
  0
STYLE
  5
7E
100
AcDbSymbolTableRecord
100
AcDbTextStyleTableRecord
  2
textstyle51
 70
0
 40
0.0
 41
1.0
 50
0.0
 71
0
 42
2.5
  3

  4

1001
ACAD
1000
Arial
1071
0
  0
STYLE
  5
7F
100
AcDbSymbolTableRecord
100
AcDbTextStyleTableRecord
  2
textstyle52
 70
0
 40
0.0
 41
1.0
 50
0.0
 71
0
 42
2.5
  3

  4

1001
ACAD
1000
Arial
1071
0
  0
STYLE
  5
80
100
AcDbSymbolTableRecord
100
AcDbTextStyleTableRecord
  2
textstyle53
 70
0
 40
0.0
 41
1.0
 50
0.0
 71
0
 42
2.5
  3

  4

1001
ACAD
1000
Arial
1071
0
  0
STYLE
  5
81
100
AcDbSymbolTableRecord
100
AcDbTextStyleTableRecord
  2
textstyle54
 70
0
 40
0.0
 41
1.0
 50
0.0
 71
0
 42
2.5
  3

  4

1001
ACAD
1000
Arial
1071
0
  0
STYLE
  5
82
100
AcDbSymbolTableRecord
100
AcDbTextStyleTableRecord
  2
textstyle55
 70
0
 40
0.0
 41
1.0
 50
0.0
 71
0
 42
25.0
  3

  4

1001
ACAD
1000
Arial
1071
0
  0
STYLE
  5
83
100
AcDbSymbolTableRecord
100
AcDbTextStyleTableRecord
  2
textstyle56
 70
0
 40
0.0
 41
1.0
 50
0.0
 71
0
 42
2.5
  3

  4

1001
ACAD
1000
Arial
1071
0
  0
STYLE
  5
84
100
AcDbSymbolTableRecord
100
AcDbTextStyleTableRecord
  2
textstyle57
 70
0
 40
0.0
 41
1.0
 50
0.0
 71
0
 42
2.5
  3

  4

1001
ACAD
1000
Arial
1071
0
  0
STYLE
  5
85
100
AcDbSymbolTableRecord
100
AcDbTextStyleTableRecord
  2
textstyle58
 70
0
 40
0.0
 41
1.0
 50
0.0
 71
0
 42
2.5
  3

  4

1001
ACAD
1000
Arial
1071
0
  0
STYLE
  5
86
100
AcDbSymbolTableRecord
100
AcDbTextStyleTableRecord
  2
textstyle59
 70
0
 40
0.0
 41
1.0
 50
0.0
 71
0
 42
2.5
  3

  4

1001
ACAD
1000
Arial
1071
0
  0
STYLE
  5
87
100
AcDbSymbolTableRecord
100
AcDbTextStyleTableRecord
  2
textstyle60
 70
0
 40
0.0
 41
1.0
 50
0.0
 71
0
 42
2.5
  3

  4

1001
ACAD
1000
Arial
1071
0
  0
STYLE
  5
88
100
AcDbSymbolTableRecord
100
AcDbTextStyleTableRecord
  2
textstyle61
 70
0
 40
0.0
 41
1.0
 50
0.0
 71
0
 42
2.5
  3

  4

1001
ACAD
1000
Arial
1071
0
  0
STYLE
  5
89
100
AcDbSymbolTableRecord
100
AcDbTextStyleTableRecord
  2
textstyle62
 70
0
 40
0.0
 41
1.0
 50
0.0
 71
0
 42
2.5
  3

  4

1001
ACAD
1000
Arial
1071
0
  0
STYLE
  5
8A
100
AcDbSymbolTableRecord
100
AcDbTextStyleTableRecord
  2
textstyle63
 70
0
 40
0.0
 41
1.0
 50
0.0
 71
0
 42
2.5
  3

  4

1001
ACAD
1000
Arial
1071
0
  0
STYLE
  5
8B
100
AcDbSymbolTableRecord
100
AcDbTextStyleTableRecord
  2
textstyle64
 70
0
 40
0.0
 41
1.0
 50
0.0
 71
0
 42
2.5
  3

  4

1001
ACAD
1000
Arial
1071
0
  0
STYLE
  5
8C
100
AcDbSymbolTableRecord
100
AcDbTextStyleTableRecord
  2
textstyle65
 70
0
 40
0.0
 41
1.0
 50
0.0
 71
0
 42
2.5
  3

  4

1001
ACAD
1000
Arial
1071
0
  0
STYLE
  5
8D
100
AcDbSymbolTableRecord
100
AcDbTextStyleTableRecord
  2
textstyle66
 70
0
 40
0.0
 41
1.0
 50
0.0
 71
0
 42
2.5
  3

  4

1001
ACAD
1000
Arial
1071
0
  0
STYLE
  5
8E
100
AcDbSymbolTableRecord
100
AcDbTextStyleTableRecord
  2
textstyle67
 70
0
 40
0.0
 41
1.0
 50
0.0
 71
0
 42
2.5
  3

  4

1001
ACAD
1000
Arial
1071
0
  0
STYLE
  5
8F
100
AcDbSymbolTableRecord
100
AcDbTextStyleTableRecord
  2
textstyle68
 70
0
 40
0.0
 41
1.0
 50
0.0
 71
0
 42
2.5
  3

  4

1001
ACAD
1000
Arial
1071
0
  0
STYLE
  5
90
100
AcDbSymbolTableRecord
100
AcDbTextStyleTableRecord
  2
textstyle69
 70
0
 40
0.0
 41
1.0
 50
0.0
 71
0
 42
2.5
  3

  4

1001
ACAD
1000
Arial
1071
0
  0
STYLE
  5
91
100
AcDbSymbolTableRecord
100
AcDbTextStyleTableRecord
  2
textstyle70
 70
0
 40
0.0
 41
1.0
 50
0.0
 71
0
 42
2.5
  3

  4

1001
ACAD
1000
Arial
1071
0
  0
STYLE
  5
92
100
AcDbSymbolTableRecord
100
AcDbTextStyleTableRecord
  2
textstyle71
 70
0
 40
0.0
 41
1.0
 50
0.0
 71
0
 42
2.5
  3

  4

1001
ACAD
1000
Arial
1071
0
  0
STYLE
  5
93
100
AcDbSymbolTableRecord
100
AcDbTextStyleTableRecord
  2
textstyle72
 70
0
 40
0.0
 41
1.0
 50
0.0
 71
0
 42
2.5
  3

  4

1001
ACAD
1000
Arial
1071
0
  0
STYLE
  5
94
100
AcDbSymbolTableRecord
100
AcDbTextStyleTableRecord
  2
textstyle73
 70
0
 40
0.0
 41
1.0
 50
0.0
 71
0
 42
2.5
  3

  4

1001
ACAD
1000
Arial
1071
0
  0
STYLE
  5
95
100
AcDbSymbolTableRecord
100
AcDbTextStyleTableRecord
  2
textstyle74
 70
0
 40
0.0
 41
1.0
 50
0.0
 71
0
 42
2.5
  3

  4

1001
ACAD
1000
Arial
1071
0
  0
STYLE
  5
96
100
AcDbSymbolTableRecord
100
AcDbTextStyleTableRecord
  2
textstyle75
 70
0
 40
0.0
 41
1.0
 50
0.0
 71
0
 42
2.5
  3

  4

1001
ACAD
1000
Arial
1071
0
  0
STYLE
  5
97
100
AcDbSymbolTableRecord
100
AcDbTextStyleTableRecord
  2
textstyle76
 70
0
 40
0.0
 41
1.0
 50
0.0
 71
0
 42
2.5
  3

  4

1001
ACAD
1000
Arial
1071
0
  0
STYLE
  5
98
100
AcDbSymbolTableRecord
100
AcDbTextStyleTableRecord
  2
textstyle77
 70
0
 40
0.0
 41
1.0
 50
0.0
 71
0
 42
2.5
  3

  4

1001
ACAD
1000
Arial
1071
0
  0
STYLE
  5
99
100
AcDbSymbolTableRecord
100
AcDbTextStyleTableRecord
  2
textstyle78
 70
0
 40
0.0
 41
1.0
 50
0.0
 71
0
 42
2.5
  3

  4

1001
ACAD
1000
Arial
1071
0
  0
STYLE
  5
9A
100
AcDbSymbolTableRecord
100
AcDbTextStyleTableRecord
  2
textstyle79
 70
0
 40
0.0
 41
1.0
 50
0.0
 71
0
 42
2.5
  3

  4

1001
ACAD
1000
Arial
1071
0
  0
STYLE
  5
9B
100
AcDbSymbolTableRecord
100
AcDbTextStyleTableRecord
  2
textstyle80
 70
0
 40
0.0
 41
1.0
 50
0.0
 71
0
 42
2.5
  3

  4

1001
ACAD
1000
Arial
1071
0
  0
STYLE
  5
9C
100
AcDbSymbolTableRecord
100
AcDbTextStyleTableRecord
  2
textstyle81
 70
0
 40
0.0
 41
1.0
 50
0.0
 71
0
 42
2.5
  3

  4

1001
ACAD
1000
Arial
1071
0
  0
STYLE
  5
9D
100
AcDbSymbolTableRecord
100
AcDbTextStyleTableRecord
  2
textstyle82
 70
0
 40
0.0
 41
1.0
 50
0.0
 71
0
 42
2.5
  3

  4

1001
ACAD
1000
Arial
1071
0
  0
STYLE
  5
9E
100
AcDbSymbolTableRecord
100
AcDbTextStyleTableRecord
  2
textstyle83
 70
0
 40
0.0
 41
1.0
 50
0.0
 71
0
 42
2.5
  3

  4

1001
ACAD
1000
Arial
1071
0
  0
STYLE
  5
9F
100
AcDbSymbolTableRecord
100
AcDbTextStyleTableRecord
  2
textstyle84
 70
0
 40
0.0
 41
1.0
 50
0.0
 71
0
 42
2.5
  3

  4

1001
ACAD
1000
Arial
1071
0
  0
STYLE
  5
A0
100
AcDbSymbolTableRecord
100
AcDbTextStyleTableRecord
  2
textstyle85
 70
0
 40
0.0
 41
1.0
 50
0.0
 71
0
 42
2.5
  3

  4

1001
ACAD
1000
Arial
1071
0
  0
STYLE
  5
A1
100
AcDbSymbolTableRecord
100
AcDbTextStyleTableRecord
  2
textstyle86
 70
0
 40
0.0
 41
1.0
 50
0.0
 71
0
 42
2.5
  3

  4

1001
ACAD
1000
Arial
1071
0
  0
STYLE
  5
A2
100
AcDbSymbolTableRecord
100
AcDbTextStyleTableRecord
  2
textstyle87
 70
0
 40
0.0
 41
1.0
 50
0.0
 71
0
 42
2.5
  3

  4

1001
ACAD
1000
Arial
1071
0
  0
STYLE
  5
A3
100
AcDbSymbolTableRecord
100
AcDbTextStyleTableRecord
  2
textstyle88
 70
0
 40
0.0
 41
1.0
 50
0.0
 71
0
 42
2.5
  3

  4

1001
ACAD
1000
Arial
1071
0
  0
STYLE
  5
A4
100
AcDbSymbolTableRecord
100
AcDbTextStyleTableRecord
  2
textstyle89
 70
0
 40
0.0
 41
1.0
 50
0.0
 71
0
 42
2.5
  3

  4

1001
ACAD
1000
Arial
1071
0
  0
STYLE
  5
A5
100
AcDbSymbolTableRecord
100
AcDbTextStyleTableRecord
  2
textstyle90
 70
0
 40
0.0
 41
1.0
 50
0.0
 71
0
 42
2.5
  3

  4

1001
ACAD
1000
Arial
1071
0
  0
STYLE
  5
A6
100
AcDbSymbolTableRecord
100
AcDbTextStyleTableRecord
  2
textstyle91
 70
0
 40
0.0
 41
1.0
 50
0.0
 71
0
 42
2.5
  3

  4

1001
ACAD
1000
Arial
1071
0
  0
STYLE
  5
A7
100
AcDbSymbolTableRecord
100
AcDbTextStyleTableRecord
  2
textstyle92
 70
0
 40
0.0
 41
1.0
 50
0.0
 71
0
 42
2.5
  3

  4

1001
ACAD
1000
Arial
1071
0
  0
STYLE
  5
A8
100
AcDbSymbolTableRecord
100
AcDbTextStyleTableRecord
  2
textstyle93
 70
0
 40
0.0
 41
1.0
 50
0.0
 71
0
 42
2.5
  3

  4

1001
ACAD
1000
Arial
1071
0
  0
STYLE
  5
A9
100
AcDbSymbolTableRecord
100
AcDbTextStyleTableRecord
  2
textstyle94
 70
0
 40
0.0
 41
1.0
 50
0.0
 71
0
 42
2.5
  3

  4

1001
ACAD
1000
Arial
1071
0
  0
STYLE
  5
AA
100
AcDbSymbolTableRecord
100
AcDbTextStyleTableRecord
  2
textstyle95
 70
0
 40
0.0
 41
1.0
 50
0.0
 71
0
 42
2.5
  3

  4

1001
ACAD
1000
Arial
1071
0
  0
STYLE
  5
AB
100
AcDbSymbolTableRecord
100
AcDbTextStyleTableRecord
  2
textstyle96
 70
0
 40
0.0
 41
1.0
 50
0.0
 71
0
 42
2.5
  3

  4

1001
ACAD
1000
Arial
1071
0
  0
STYLE
  5
AC
100
AcDbSymbolTableRecord
100
AcDbTextStyleTableRecord
  2
textstyle97
 70
0
 40
0.0
 41
1.0
 50
0.0
 71
0
 42
2.5
  3

  4

1001
ACAD
1000
Arial
1071
0
  0
STYLE
  5
AD
100
AcDbSymbolTableRecord
100
AcDbTextStyleTableRecord
  2
textstyle98
 70
0
 40
0.0
 41
1.0
 50
0.0
 71
0
 42
2.5
  3

  4

1001
ACAD
1000
Arial
1071
0
  0
STYLE
  5
AE
100
AcDbSymbolTableRecord
100
AcDbTextStyleTableRecord
  2
textstyle99
 70
0
 40
0.0
 41
1.0
 50
0.0
 71
0
 42
2.5
  3

  4

1001
ACAD
1000
Arial
1071
0
  0
STYLE
  5
AF
100
AcDbSymbolTableRecord
100
AcDbTextStyleTableRecord
  2
textstyle100
 70
0
 40
0.0
 41
1.0
 50
0.0
 71
0
 42
2.5
  3

  4

1001
ACAD
1000
Arial
1071
0
  0
STYLE
  5
B0
100
AcDbSymbolTableRecord
100
AcDbTextStyleTableRecord
  2
textstyle101
 70
0
 40
0.0
 41
1.0
 50
0.0
 71
0
 42
2.5
  3

  4

1001
ACAD
1000
Arial
1071
0
  0
STYLE
  5
B1
100
AcDbSymbolTableRecord
100
AcDbTextStyleTableRecord
  2
textstyle102
 70
0
 40
0.0
 41
1.0
 50
0.0
 71
0
 42
2.5
  3

  4

1001
ACAD
1000
Arial
1071
0
  0
STYLE
  5
B2
100
AcDbSymbolTableRecord
100
AcDbTextStyleTableRecord
  2
textstyle103
 70
0
 40
0.0
 41
1.0
 50
0.0
 71
0
 42
2.5
  3

  4

1001
ACAD
1000
Arial
1071
0
  0
STYLE
  5
B3
100
AcDbSymbolTableRecord
100
AcDbTextStyleTableRecord
  2
textstyle104
 70
0
 40
0.0
 41
1.0
 50
0.0
 71
0
 42
2.5
  3

  4

1001
ACAD
1000
Arial
1071
0
  0
STYLE
  5
B4
100
AcDbSymbolTableRecord
100
AcDbTextStyleTableRecord
  2
textstyle105
 70
0
 40
0.0
 41
1.0
 50
0.0
 71
0
 42
2.5
  3

  4

1001
ACAD
1000
Arial
1071
0
  0
STYLE
  5
B5
100
AcDbSymbolTableRecord
100
AcDbTextStyleTableRecord
  2
textstyle106
 70
0
 40
0.0
 41
1.0
 50
0.0
 71
0
 42
2.5
  3

  4

1001
ACAD
1000
Arial
1071
0
  0
STYLE
  5
B6
100
AcDbSymbolTableRecord
100
AcDbTextStyleTableRecord
  2
textstyle107
 70
0
 40
0.0
 41
1.0
 50
0.0
 71
0
 42
2.5
  3

  4

1001
ACAD
1000
Arial
1071
0
  0
STYLE
  5
B7
100
AcDbSymbolTableRecord
100
AcDbTextStyleTableRecord
  2
textstyle108
 70
0
 40
0.0
 41
1.0
 50
0.0
 71
0
 42
2.5
  3

  4

1001
ACAD
1000
Arial
1071
0
  0
STYLE
  5
B8
100
AcDbSymbolTableRecord
100
AcDbTextStyleTableRecord
  2
textstyle109
 70
0
 40
0.0
 41
1.0
 50
0.0
 71
0
 42
1.0
  3

  4

1001
ACAD
1000
standard
1071
0
  0
STYLE
  5
B9
100
AcDbSymbolTableRecord
100
AcDbTextStyleTableRecord
  2
textstyle110
 70
0
 40
0.0
 41
1.0
 50
0.0
 71
0
 42
1.0
  3

  4

1001
ACAD
1000
standard
1071
0
  0
STYLE
  5
BA
100
AcDbSymbolTableRecord
100
AcDbTextStyleTableRecord
  2
textstyle111
 70
0
 40
0.0
 41
1.0
 50
0.0
 71
0
 42
2.5
  3

  4

1001
ACAD
1000
Arial
1071
0
  0
STYLE
  5
BB
100
AcDbSymbolTableRecord
100
AcDbTextStyleTableRecord
  2
textstyle112
 70
0
 40
0.0
 41
1.0
 50
0.0
 71
0
 42
2.5
  3

  4

1001
ACAD
1000
Arial
1071
0
  0
STYLE
  5
BC
100
AcDbSymbolTableRecord
100
AcDbTextStyleTableRecord
  2
textstyle113
 70
0
 40
0.0
 41
1.0
 50
0.0
 71
0
 42
10.0
  3

  4

1001
ACAD
1000
Arial
1071
0
  0
STYLE
  5
BD
100
AcDbSymbolTableRecord
100
AcDbTextStyleTableRecord
  2
textstyle114
 70
0
 40
0.0
 41
1.0
 50
0.0
 71
0
 42
2.5
  3

  4

1001
ACAD
1000
Arial
1071
0
  0
STYLE
  5
BE
100
AcDbSymbolTableRecord
100
AcDbTextStyleTableRecord
  2
textstyle115
 70
0
 40
0.0
 41
1.0
 50
0.0
 71
0
 42
6.0
  3

  4

1001
ACAD
1000
Arial
1071
0
  0
STYLE
  5
BF
100
AcDbSymbolTableRecord
100
AcDbTextStyleTableRecord
  2
textstyle116
 70
0
 40
0.0
 41
1.0
 50
0.0
 71
0
 42
6.0
  3

  4

1001
ACAD
1000
Arial
1071
0
  0
STYLE
  5
C0
100
AcDbSymbolTableRecord
100
AcDbTextStyleTableRecord
  2
textstyle117
 70
0
 40
0.0
 41
1.0
 50
0.0
 71
0
 42
6.0
  3

  4

1001
ACAD
1000
Arial
1071
0
  0
STYLE
  5
C1
100
AcDbSymbolTableRecord
100
AcDbTextStyleTableRecord
  2
textstyle118
 70
0
 40
0.0
 41
1.0
 50
0.0
 71
0
 42
6.0
  3

  4

1001
ACAD
1000
Arial
1071
0
  0
STYLE
  5
C2
100
AcDbSymbolTableRecord
100
AcDbTextStyleTableRecord
  2
textstyle119
 70
0
 40
0.0
 41
1.0
 50
0.0
 71
0
 42
6.0
  3

  4

1001
ACAD
1000
Arial
1071
0
  0
STYLE
  5
C3
100
AcDbSymbolTableRecord
100
AcDbTextStyleTableRecord
  2
textstyle120
 70
0
 40
0.0
 41
1.0
 50
0.0
 71
0
 42
6.0
  3

  4

1001
ACAD
1000
Arial
1071
0
  0
STYLE
  5
C4
100
AcDbSymbolTableRecord
100
AcDbTextStyleTableRecord
  2
textstyle121
 70
0
 40
0.0
 41
1.0
 50
0.0
 71
0
 42
6.0
  3

  4

1001
ACAD
1000
Arial
1071
0
  0
STYLE
  5
C5
100
AcDbSymbolTableRecord
100
AcDbTextStyleTableRecord
  2
textstyle122
 70
0
 40
0.0
 41
1.0
 50
0.0
 71
0
 42
6.0
  3

  4

1001
ACAD
1000
Arial
1071
0
  0
STYLE
  5
C6
100
AcDbSymbolTableRecord
100
AcDbTextStyleTableRecord
  2
textstyle123
 70
0
 40
0.0
 41
1.0
 50
0.0
 71
0
 42
6.0
  3

  4

1001
ACAD
1000
Arial
1071
0
  0
ENDTAB
  0
TABLE
  2
VIEW
  5
6
100
AcDbSymbolTable
 70
0
  0
ENDTAB
  0
TABLE
  2
UCS
  5
7
100
AcDbSymbolTable
 70
0
  0
ENDTAB
  0
TABLE
  2
APPID
  5
9
100
AcDbSymbolTable
 70
1
  0
APPID
  5
12
100
AcDbSymbolTableRecord
100
AcDbRegAppTableRecord
  2
ACAD
 70
0
  0
APPID
  5
C7
100
AcDbSymbolTableRecord
100
AcDbRegAppTableRecord
  2
QCAD
 70
0
  0
ENDTAB
  0
TABLE
  2
DIMSTYLE
  5
A
100
AcDbSymbolTable
 70
1
100
AcDbDimStyleTable
 71
0
  0
DIMSTYLE
105
27
100
AcDbSymbolTableRecord
100
AcDbDimStyleTableRecord
  2
Standard
 41
5.0
 42
1.25
 43
3.75
 44
2.5
 70
0
 73
0
 74
0
 77
1
 78
8
140
5.0
141
2.5
143
0.03937007874016
147
1.25
171
3
172
1
271
2
272
2
274
3
278
44
283
0
284
8
340
4A
  0
ENDTAB
  0
TABLE
  2
BLOCK_RECORD
  5
1
100
AcDbSymbolTable
 70
1
  0
BLOCK_RECORD
  5
1F
100
AcDbSymbolTableRecord
100
AcDbBlockTableRecord
  2
*Model_Space
340
22
  0
BLOCK_RECORD
  5
1B
100
AcDbSymbolTableRecord
100
AcDbBlockTableRecord
  2
*Paper_Space
340
1E
  0
BLOCK_RECORD
  5
23
100
AcDbSymbolTableRecord
100
AcDbBlockTableRecord
  2
*Paper_Space0
340
26
  0
BLOCK_RECORD
  5
C8
100
AcDbSymbolTableRecord
100
AcDbBlockTableRecord
  2
switch
340
0
  0
BLOCK_RECORD
  5
C9
100
AcDbSymbolTableRecord
100
AcDbBlockTableRecord
  2
outlet_220
340
0
  0
BLOCK_RECORD
  5
CA
100
AcDbSymbolTableRecord
100
AcDbBlockTableRecord
  2
outlet
340
0
  0
BLOCK_RECORD
  5
CB
100
AcDbSymbolTableRecord
100
AcDbBlockTableRecord
  2
smoke_detector
340
0
  0
BLOCK_RECORD
  5
CC
100
AcDbSymbolTableRecord
100
AcDbBlockTableRecord
  2
light
340
0
  0
ENDTAB
  0
ENDSEC
  0
SECTION
  2
BLOCKS
  0
BLOCK
  5
20
100
AcDbEntity
  8
0
100
AcDbBlockBegin
  2
*Model_Space
 70
0
 10
0.0
 20
0.0
 30
0.0
  3
*Model_Space
  1

  0
ENDBLK
  5
21
100
AcDbEntity
  8
0
100
AcDbBlockEnd
  0
BLOCK
  5
1C
100
AcDbEntity
 67
1
  8
0
100
AcDbBlockBegin
  2
*Paper_Space
 70
0
 10
0.0
 20
0.0
 30
0.0
  3
*Paper_Space
  1

  0
ENDBLK
  5
1D
100
AcDbEntity
 67
1
  8
0
100
AcDbBlockEnd
  0
BLOCK
  5
24
100
AcDbEntity
  8
0
100
AcDbBlockBegin
  2
*Paper_Space0
 70
0
 10
0.0
 20
0.0
 30
0.0
  3
*Paper_Space0
  1

  0
ENDBLK
  5
25
100
AcDbEntity
  8
0
100
AcDbBlockEnd
  0
BLOCK
  5
CD
100
AcDbEntity
  8
0
100
AcDbBlockBegin
  2
switch
 70
0
 10
0.0
 20
0.0
 30
0.0
  3
switch
  1

  0
ARC
  5
CE
100
AcDbEntity
  8
electrical
 62
256
370
-1
  6
BYLAYER
100
AcDbCircle
 10
-8.1999999999999993
 20
3.0
 30
0.0
 40
1.2
100
AcDbArc
 50
116.56505117707799
 51
0.0
  0
ARC
  5
CF
100
AcDbEntity
  8
electrical
 62
256
370
-1
  6
BYLAYER
100
AcDbCircle
 10
-8.1999999999999993
 20
3.0
 30
0.0
 40
1.2
100
AcDbArc
 50
90.0
 51
116.56505117707799
  0
ARC
  5
D0
100
AcDbEntity
  8
electrical
 62
256
370
-1
  6
BYLAYER
100
AcDbCircle
 10
-5.7999999999999998
 20
3.0
 30
0.0
 40
1.2
100
AcDbArc
 50
296.5650511770779758
 51
180.0
  0
LINE
  5
D1
100
AcDbEntity
100
AcDbLine
  8
electrical
 62
256
370
-1
  6
BYLAYER
 10
-10.0
 20
3.0
 30
0.0
 11
-4.0
 21
3.0
 31
0.0
  0
ENDBLK
  5
D2
100
AcDbEntity
  8
0
100
AcDbBlockEnd
  0
BLOCK
  5
D3
100
AcDbEntity
  8
0
100
AcDbBlockBegin
  2
outlet_220
 70
0
 10
0.0
 20
0.0
 30
0.0
  3
outlet_220
  1

  0
CIRCLE
  5
D4
100
AcDbEntity
100
AcDbCircle
  8
electrical
 62
256
370
-1
  6
BYLAYER
 10
0.0
 20
0.0
 30
0.0
 40
2.0
  0
LINE
  5
D5
100
AcDbEntity
100
AcDbLine
  8
electrical
 62
256
370
-1
  6
BYLAYER
 10
-1.0
 20
1.7320508075688963
 30
0.0
 11
-1.0
 21
-5.0
 31
0.0
  0
LINE
  5
D6
100
AcDbEntity
100
AcDbLine
  8
electrical
 62
256
370
-1
  6
BYLAYER
 10
1.0
 20
-5.0
 30
0.0
 11
1.0
 21
1.7320508075688963
 31
0.0
  0
LINE
  5
D7
100
AcDbEntity
100
AcDbLine
  8
electrical
 62
256
370
-1
  6
BYLAYER
 10
0.0
 20
-5.0
 30
0.0
 11
0.0
 21
2.0
 31
0.0
  0
ENDBLK
  5
D8
100
AcDbEntity
  8
0
100
AcDbBlockEnd
  0
BLOCK
  5
D9
100
AcDbEntity
  8
0
100
AcDbBlockBegin
  2
outlet
 70
0
 10
0.0
 20
0.0
 30
0.0
  3
outlet
  1

  0
CIRCLE
  5
DA
100
AcDbEntity
100
AcDbCircle
  8
electrical
 62
256
370
-1
  6
BYLAYER
 10
0.0
 20
0.0
 30
0.0
 40
2.0
  0
LINE
  5
DB
100
AcDbEntity
100
AcDbLine
  8
electrical
 62
256
370
-1
  6
BYLAYER
 10
-1.0
 20
1.7320508075688963
 30
0.0
 11
-1.0
 21
-5.0
 31
0.0
  0
LINE
  5
DC
100
AcDbEntity
100
AcDbLine
  8
electrical
 62
256
370
-1
  6
BYLAYER
 10
1.0
 20
-5.0
 30
0.0
 11
1.0
 21
1.7320508075688963
 31
0.0
  0
ENDBLK
  5
DD
100
AcDbEntity
  8
0
100
AcDbBlockEnd
  0
BLOCK
  5
DE
100
AcDbEntity
  8
0
100
AcDbBlockBegin
  2
smoke_detector
 70
0
 10
0.0
 20
0.0
 30
0.0
  3
smoke_detector
  1

  0
CIRCLE
  5
DF
100
AcDbEntity
100
AcDbCircle
  8
electrical
 62
256
370
-1
  6
BYLAYER
 10
0.0
 20
0.0
 30
0.0
 40
2.0
  0
MTEXT
  5
E0
100
AcDbEntity
100
AcDbMText
  8
electrical
 62
256
370
-1
  6
BYLAYER
 10
-1.375
 20
1.25
 30
0.0
 40
2.0
 41
0.0
 71
1
 72
1
  1
\H1.57143;SD
  7
textstyle10
 50
0.0
 73
2
 44
1.0
  0
ENDBLK
  5
E1
100
AcDbEntity
  8
0
100
AcDbBlockEnd
  0
BLOCK
  5
E2
100
AcDbEntity
  8
0
100
AcDbBlockBegin
  2
light
 70
0
 10
0.0
 20
0.0
 30
0.0
  3
light
  1

  0
CIRCLE
  5
E3
100
AcDbEntity
100
AcDbCircle
  8
electrical
 62
256
370
-1
  6
BYLAYER
 10
0.0
 20
0.0
 30
0.0
 40
2.0
  0
LINE
  5
E4
100
AcDbEntity
100
AcDbLine
  8
electrical
 62
256
370
-1
  6
BYLAYER
 10
0.0
 20
2.0
 30
0.0
 11
0.0
 21
4.0
 31
0.0
  0
LINE
  5
E5
100
AcDbEntity
100
AcDbLine
  8
electrical
 62
256
370
-1
  6
BYLAYER
 10
-2.0
 20
0.0
 30
0.0
 11
-4.0
 21
0.0
 31
0.0
  0
LINE
  5
E6
100
AcDbEntity
100
AcDbLine
  8
electrical
 62
256
370
-1
  6
BYLAYER
 10
0.0
 20
-2.0
 30
0.0
 11
0.0
 21
-4.0
 31
0.0
  0
LINE
  5
E7
100
AcDbEntity
100
AcDbLine
  8
electrical
 62
256
370
-1
  6
BYLAYER
 10
2.0
 20
0.0
 30
0.0
 11
4.0
 21
0.0
 31
0.0
  0
ENDBLK
  5
E8
100
AcDbEntity
  8
0
100
AcDbBlockEnd
  0
ENDSEC
  0
SECTION
  2
ENTITIES
  0
LINE
  5
E9
100
AcDbEntity
100
AcDbLine
  8
0
 62
256
370
-1
  6
BYLAYER
 10
196.0
 20
36.5
 30
0.0
 11
196.0
 21
194.0
 31
0.0
  0
LINE
  5
EA
100
AcDbEntity
100
AcDbLine
  8
0
 62
256
370
-1
  6
BYLAYER
 10
196.0
 20
194.0
 30
0.0
 11
6.0
 21
194.0
 31
0.0
  0
LINE
  5
EB
100
AcDbEntity
100
AcDbLine
  8
0
 62
256
370
-1
  6
BYLAYER
 10
168.0
 20
32.5
 30
0.0
 11
168.0
 21
-57.0
 31
0.0
  0
LINE
  5
EC
100
AcDbEntity
100
AcDbLine
  8
0
 62
256
370
-1
  6
BYLAYER
 10
85.0
 20
-57.0
 30
0.0
 11
168.0
 21
-57.0
 31
0.0
  0
LINE
  5
ED
100
AcDbEntity
100
AcDbLine
  8
0
 62
256
370
-1
  6
BYLAYER
 10
168.0
 20
-57.0
 30
0.0
 11
168.0
 21
32.5
 31
0.0
  0
LINE
  5
EE
100
AcDbEntity
100
AcDbLine
  8
0
 62
256
370
-1
  6
BYLAYER
 10
85.0
 20
-57.0
 30
0.0
 11
85.0
 21
-17.5
 31
0.0
  0
LINE
  5
EF
100
AcDbEntity
100
AcDbLine
  8
0
 62
256
370
-1
  6
BYLAYER
 10
80.5
 20
-57.0
 30
0.0
 11
80.5
 21
-17.5
 31
0.0
  0
LINE
  5
F0
100
AcDbEntity
100
AcDbLine
  8
0
 62
256
370
-1
  6
BYLAYER
 10
-27.0
 20
-57.0
 30
0.0
 11
80.5
 21
-57.0
 31
0.0
  0
LINE
  5
F1
100
AcDbEntity
100
AcDbLine
  8
0
 62
256
370
-1
  6
BYLAYER
 10
-27.0
 20
-57.0
 30
0.0
 11
-26.9999999999999964
 21
-17.5
 31
0.0
  0
LINE
  5
F2
100
AcDbEntity
100
AcDbLine
  8
0
 62
256
370
-1
  6
BYLAYER
 10
-31.5
 20
-57.0
 30
0.0
 11
-31.5
 21
-17.5
 31
0.0
  0
LINE
  5
F3
100
AcDbEntity
100
AcDbLine
  8
0
 62
256
370
-1
  6
BYLAYER
 10
-108.0
 20
-57.0
 30
0.0
 11
-31.5
 21
-57.0
 31
0.0
  0
LINE
  5
F4
100
AcDbEntity
100
AcDbLine
  8
0
 62
256
370
-1
  6
BYLAYER
 10
-108.0
 20
-57.0
 30
0.0
 11
-108.0
 21
36.0
 31
0.0
  0
LINE
  5
F5
100
AcDbEntity
100
AcDbLine
  8
0
 62
256
370
-1
  6
BYLAYER
 10
-112.5
 20
-57.0
 30
0.0
 11
-112.5
 21
40.5
 31
0.0
  0
LINE
  5
F6
100
AcDbEntity
100
AcDbLine
  8
0
 62
256
370
-1
  6
BYLAYER
 10
172.5
 20
32.0
 30
0.0
 11
172.5
 21
-61.5000000000000142
 31
0.0
  0
LINE
  5
F7
100
AcDbEntity
100
AcDbLine
  8
0
 62
256
370
-1
  6
BYLAYER
 10
200.5
 20
32.0
 30
0.0
 11
200.5
 21
198.4999999999999716
 31
0.0
  0
LINE
  5
F8
100
AcDbEntity
100
AcDbLine
  8
0
 62
256
370
-1
  6
BYLAYER
 10
172.5
 20
32.0
 30
0.0
 11
200.5
 21
32.0
 31
0.0
  0
LINE
  5
F9
100
AcDbEntity
100
AcDbLine
  8
0
 62
256
370
-1
  6
BYLAYER
 10
1.4999999999999929
 20
75.0
 30
0.0
 11
1.4999999999999929
 21
107.0
 31
0.0
  0
LINE
  5
FA
100
AcDbEntity
100
AcDbLine
  8
0
 62
256
370
-1
  6
BYLAYER
 10
1.4999999999999929
 20
107.0
 30
0.0
 11
-27.0000000000000071
 21
107.0
 31
0.0
  0
LINE
  5
FB
100
AcDbEntity
100
AcDbLine
  8
0
 62
256
370
-1
  6
BYLAYER
 10
-27.0000000000000071
 20
107.0
 30
0.0
 11
-27.0000000000000071
 21
75.0
 31
0.0
  0
LINE
  5
FC
100
AcDbEntity
100
AcDbLine
  8
0
 62
256
370
-1
  6
BYLAYER
 10
-31.5000000000000071
 20
111.5
 30
0.0
 11
-31.5000000000000071
 21
75.0
 31
0.0
  0
LINE
  5
FD
100
AcDbEntity
100
AcDbLine
  8
0
 62
256
370
-1
  6
BYLAYER
 10
1.4999999999999929
 20
111.5
 30
0.0
 11
-31.5000000000000071
 21
111.5
 31
0.0
  0
LINE
  5
FE
100
AcDbEntity
100
AcDbLine
  8
0
 62
256
370
-1
  6
BYLAYER
 10
80.5
 20
-17.5
 30
0.0
 11
85.0
 21
-17.5
 31
0.0
  0
LINE
  5
FF
100
AcDbEntity
100
AcDbLine
  8
0
 62
256
370
-1
  6
BYLAYER
 10
-31.5
 20
-17.5
 30
0.0
 11
-26.9999999999999964
 21
-17.5
 31
0.0
  0
LINE
  5
100
100
AcDbEntity
100
AcDbLine
  8
railing
 62
256
370
-1
  6
BYLAYER
 10
82.75
 20
-17.5
 30
0.0
 11
82.75
 21
27.5
 31
0.0
  0
LINE
  5
101
100
AcDbEntity
100
AcDbLine
  8
railing
 62
256
370
-1
  6
BYLAYER
 10
-29.25
 20
-17.5
 30
0.0
 11
-29.2499999999999964
 21
27.5
 31
0.0
  0
LINE
  5
102
100
AcDbEntity
100
AcDbLine
  8
0
 62
256
370
-1
  6
BYLAYER
 10
168.0
 20
5.5
 30
0.0
 11
168.0
 21
32.5
 31
0.0
  0
LINE
  5
103
100
AcDbEntity
100
AcDbLine
  8
0
 62
256
370
-1
  6
BYLAYER
 10
168.0
 20
32.5
 30
0.0
 11
124.0
 21
32.5
 31
0.0
  0
LINE
  5
104
100
AcDbEntity
100
AcDbLine
  8
0
 62
256
370
-1
  6
BYLAYER
 10
124.0
 20
32.5
 30
0.0
 11
124.0
 21
5.5
 31
0.0
  0
LINE
  5
105
100
AcDbEntity
100
AcDbLine
  8
0
 62
256
370
-1
  6
BYLAYER
 10
119.5
 20
11.5
 30
0.0
 11
119.5
 21
5.5
 31
0.0
  0
LINE
  5
106
100
AcDbEntity
100
AcDbLine
  8
0
 62
256
370
-1
  6
BYLAYER
 10
196.0
 20
36.5
 30
0.0
 11
119.5
 21
36.5
 31
0.0
  0
LINE
  5
107
100
AcDbEntity
100
AcDbLine
  8
0
 62
256
370
-1
  6
BYLAYER
 10
119.5
 20
5.5
 30
0.0
 11
124.0
 21
5.5
 31
0.0
  0
LINE
  5
108
100
AcDbEntity
100
AcDbLine
  8
0
 62
256
370
-1
  6
BYLAYER
 10
5.9999999999999929
 20
75.0
 30
0.0
 11
6.0
 21
194.0
 31
0.0
  0
LINE
  5
109
100
AcDbEntity
100
AcDbLine
  8
0
 62
256
370
-1
  6
BYLAYER
 10
1.4999999999999929
 20
111.5
 30
0.0
 11
1.499999999999998
 21
194.0
 31
0.0
  0
LINE
  5
10A
100
AcDbEntity
100
AcDbLine
  8
0
 62
256
370
-1
  6
BYLAYER
 10
1.4999999999999929
 20
75.0
 30
0.0
 11
5.9999999999999929
 21
75.0
 31
0.0
  0
LINE
  5
10B
100
AcDbEntity
100
AcDbLine
  8
0
 62
256
370
-1
  6
BYLAYER
 10
-31.5000000000000071
 20
75.0
 30
0.0
 11
-27.0000000000000071
 21
75.0
 31
0.0
  0
LINE
  5
10C
100
AcDbEntity
100
AcDbLine
  8
0
 62
256
370
-1
  6
BYLAYER
 10
-158.0
 20
194.0
 30
0.0
 11
1.499999999999998
 21
194.0
 31
0.0
  0
LINE
  5
10D
100
AcDbEntity
100
AcDbLine
  8
0
 62
256
370
-1
  6
BYLAYER
 10
-158.0
 20
79.5
 30
0.0
 11
-158.0
 21
194.0
 31
0.0
  0
LINE
  5
10E
100
AcDbEntity
100
AcDbLine
  8
0
 62
256
370
-1
  6
BYLAYER
 10
-158.0
 20
79.5
 30
0.0
 11
-77.0
 21
79.5
 31
0.0
  0
LINE
  5
10F
100
AcDbEntity
100
AcDbLine
  8
0
 62
256
370
-1
  6
BYLAYER
 10
-162.5
 20
75.0
 30
0.0
 11
-77.0
 21
75.0
 31
0.0
  0
LINE
  5
110
100
AcDbEntity
100
AcDbLine
  8
0
 62
256
370
-1
  6
BYLAYER
 10
-108.0
 20
36.0
 30
0.0
 11
-72.0
 21
36.0
 31
0.0
  0
LINE
  5
111
100
AcDbEntity
100
AcDbLine
  8
0
 62
256
370
-1
  6
BYLAYER
 10
-112.5
 20
40.5
 30
0.0
 11
-67.5
 21
40.5
 31
0.0
  0
LINE
  5
112
100
AcDbEntity
100
AcDbLine
  8
0
 62
256
370
-1
  6
BYLAYER
 10
-67.5
 20
40.5
 30
0.0
 11
-67.5
 21
36.0
 31
0.0
  0
LINE
  5
113
100
AcDbEntity
100
AcDbLine
  8
0
 62
256
370
-1
  6
BYLAYER
 10
-77.0
 20
79.5
 30
0.0
 11
-77.0
 21
75.0
 31
0.0
  0
LINE
  5
114
100
AcDbEntity
100
AcDbLine
  8
0
 62
256
370
-1
  6
BYLAYER
 10
-172.0
 20
-57.0
 30
0.0
 11
-112.5
 21
-57.0
 31
0.0
  0
LINE
  5
115
100
AcDbEntity
100
AcDbLine
  8
0
 62
256
370
-1
  6
BYLAYER
 10
-172.0
 20
-57.0
 30
0.0
 11
-172.0
 21
36.0
 31
0.0
  0
LINE
  5
116
100
AcDbEntity
100
AcDbLine
  8
0
 62
256
370
-1
  6
BYLAYER
 10
-178.5
 20
-57.0
 30
0.0
 11
-178.5
 21
36.0
 31
0.0
  0
LINE
  5
117
100
AcDbEntity
100
AcDbLine
  8
0
 62
256
370
-1
  6
BYLAYER
 10
-205.5
 20
36.0
 30
0.0
 11
-178.5
 21
36.0
 31
0.0
  0
LINE
  5
118
100
AcDbEntity
100
AcDbLine
  8
0
 62
256
370
-1
  6
BYLAYER
 10
-205.5
 20
40.5
 30
0.0
 11
-145.0
 21
40.5
 31
0.0
  0
LINE
  5
119
100
AcDbEntity
100
AcDbLine
  8
0
 62
256
370
-1
  6
BYLAYER
 10
-172.0
 20
36.0
 30
0.0
 11
-145.0
 21
36.0
 31
0.0
  0
LINE
  5
11A
100
AcDbEntity
100
AcDbLine
  8
0
 62
256
370
-1
  6
BYLAYER
 10
-145.0
 20
36.0
 30
0.0
 11
-145.0
 21
40.5
 31
0.0
  0
LINE
  5
11B
100
AcDbEntity
100
AcDbLine
  8
0
 62
256
370
-1
  6
BYLAYER
 10
-351.0
 20
-57.0
 30
0.0
 11
-178.5
 21
-57.0
 31
0.0
  0
LINE
  5
11C
100
AcDbEntity
100
AcDbLine
  8
0
 62
256
370
-1
  6
BYLAYER
 10
-351.0
 20
-57.0
 30
0.0
 11
-351.0
 21
76.5
 31
0.0
  0
LINE
  5
11D
100
AcDbEntity
100
AcDbLine
  8
0
 62
256
370
-1
  6
BYLAYER
 10
-351.0
 20
76.5
 30
0.0
 11
-205.5
 21
76.5
 31
0.0
  0
LINE
  5
11E
100
AcDbEntity
100
AcDbLine
  8
0
 62
256
370
-1
  6
BYLAYER
 10
-351.0
 20
81.0
 30
0.0
 11
-199.0
 21
81.0
 31
0.0
  0
LINE
  5
11F
100
AcDbEntity
100
AcDbLine
  8
0
 62
256
370
-1
  6
BYLAYER
 10
-351.0
 20
81.0
 30
0.0
 11
-351.0
 21
194.0
 31
0.0
  0
LINE
  5
120
100
AcDbEntity
100
AcDbLine
  8
0
 62
256
370
-1
  6
BYLAYER
 10
-162.5
 20
194.0
 30
0.0
 11
-351.0
 21
194.0
 31
0.0
  0
LINE
  5
121
100
AcDbEntity
100
AcDbLine
  8
0
 62
256
370
-1
  6
BYLAYER
 10
-205.5
 20
76.5
 30
0.0
 11
-205.5
 21
74.5
 31
0.0
  0
LINE
  5
122
100
AcDbEntity
100
AcDbLine
  8
0
 62
256
370
-1
  6
BYLAYER
 10
-201.0
 20
76.5
 30
0.0
 11
-201.0
 21
74.5
 31
0.0
  0
LINE
  5
123
100
AcDbEntity
100
AcDbLine
  8
0
 62
256
370
-1
  6
BYLAYER
 10
-201.0
 20
76.5
 30
0.0
 11
-199.0
 21
76.5
 31
0.0
  0
LINE
  5
124
100
AcDbEntity
100
AcDbLine
  8
0
 62
256
370
-1
  6
BYLAYER
 10
-199.0
 20
76.5
 30
0.0
 11
-199.0
 21
81.0
 31
0.0
  0
LINE
  5
125
100
AcDbEntity
100
AcDbLine
  8
0
 62
256
370
-1
  6
BYLAYER
 10
-205.5
 20
74.5
 30
0.0
 11
-201.0
 21
74.5
 31
0.0
  0
LINE
  5
126
100
AcDbEntity
100
AcDbLine
  8
0
 62
256
370
-1
  6
BYLAYER
 10
-67.5
 20
-24.0
 30
0.0
 11
-67.5
 21
36.0
 31
0.0
  0
LINE
  5
127
100
AcDbEntity
100
AcDbLine
  8
0
 62
256
370
-1
  6
BYLAYER
 10
-72.0
 20
-24.0
 30
0.0
 11
-72.0
 21
36.0
 31
0.0
  0
LINE
  5
128
100
AcDbEntity
100
AcDbLine
  8
0
 62
256
370
-1
  6
BYLAYER
 10
-72.0
 20
-24.0
 30
0.0
 11
-67.5
 21
-24.0
 31
0.0
  0
LINE
  5
129
100
AcDbEntity
100
AcDbLine
  8
0
 62
256
370
-1
  6
BYLAYER
 10
-31.5
 20
-17.5
 30
0.0
 11
-31.5
 21
36.0
 31
0.0
  0
LINE
  5
12A
100
AcDbEntity
100
AcDbLine
  8
0
 62
256
370
-1
  6
BYLAYER
 10
-67.5
 20
36.0
 30
0.0
 11
-31.5
 21
36.0
 31
0.0
  0
LINE
  5
12B
100
AcDbEntity
100
AcDbLine
  8
0
 62
256
370
-1
  6
BYLAYER
 10
-67.5
 20
26.0
 30
0.0
 11
-31.5
 21
26.0
 31
0.0
  0
LINE
  5
12C
100
AcDbEntity
100
AcDbLine
  8
0
 62
256
370
-1
  6
BYLAYER
 10
-67.5
 20
16.0
 30
0.0
 11
-31.5
 21
16.0
 31
0.0
  0
LINE
  5
12D
100
AcDbEntity
100
AcDbLine
  8
0
 62
256
370
-1
  6
BYLAYER
 10
-67.5
 20
6.0
 30
0.0
 11
-31.5
 21
6.0
 31
0.0
  0
LINE
  5
12E
100
AcDbEntity
100
AcDbLine
  8
0
 62
256
370
-1
  6
BYLAYER
 10
-67.5
 20
-4.0
 30
0.0
 11
-31.5
 21
-4.0
 31
0.0
  0
LINE
  5
12F
100
AcDbEntity
100
AcDbLine
  8
0
 62
256
370
-1
  6
BYLAYER
 10
-67.5
 20
-14.0
 30
0.0
 11
-31.5
 21
-14.0
 31
0.0
  0
LINE
  5
130
100
AcDbEntity
100
AcDbLine
  8
0
 62
256
370
-1
  6
BYLAYER
 10
-67.5
 20
-24.0
 30
0.0
 11
-31.4999999999999929
 21
-24.0
 31
0.0
  0
LINE
  5
131
100
AcDbEntity
100
AcDbLine
  8
0
 62
256
370
-1
  6
BYLAYER
 10
85.0
 20
-17.5
 30
0.0
 11
85.0
 21
11.5
 31
0.0
  0
LINE
  5
132
100
AcDbEntity
100
AcDbLine
  8
0
 62
256
370
-1
  6
BYLAYER
 10
85.0
 20
31.5
 30
0.0
 11
119.5
 21
31.5
 31
0.0
  0
LINE
  5
133
100
AcDbEntity
100
AcDbLine
  8
0
 62
256
370
-1
  6
BYLAYER
 10
85.0
 20
21.5
 30
0.0
 11
119.5
 21
21.5
 31
0.0
  0
LINE
  5
134
100
AcDbEntity
100
AcDbLine
  8
0
 62
256
370
-1
  6
BYLAYER
 10
85.0
 20
11.5
 30
0.0
 11
119.5
 21
11.5
 31
0.0
  0
LINE
  5
135
100
AcDbEntity
100
AcDbLine
  8
0
 62
256
370
-1
  6
BYLAYER
 10
-162.5
 20
75.0
 30
0.0
 11
-162.5
 21
111.5
 31
0.0
  0
LINE
  5
136
100
AcDbEntity
100
AcDbLine
  8
0
 62
256
370
-1
  6
BYLAYER
 10
-189.5
 20
111.5
 30
0.0
 11
-162.5
 21
111.5
 31
0.0
  0
LINE
  5
137
100
AcDbEntity
100
AcDbLine
  8
0
 62
256
370
-1
  6
BYLAYER
 10
-162.5
 20
124.5
 30
0.0
 11
-189.5
 21
124.5
 31
0.0
  0
LINE
  5
138
100
AcDbEntity
100
AcDbLine
  8
0
 62
256
370
-1
  6
BYLAYER
 10
-189.5
 20
124.5
 30
0.0
 11
-189.5
 21
111.5
 31
0.0
  0
LINE
  5
139
100
AcDbEntity
100
AcDbLine
  8
0
 62
256
370
-1
  6
BYLAYER
 10
-162.5
 20
124.5
 30
0.0
 11
-162.5
 21
194.0
 31
0.0
  0
LINE
  5
13A
100
AcDbEntity
100
AcDbLine
  8
0
 62
256
370
-1
  6
BYLAYER
 10
-205.5
 20
40.5
 30
0.0
 11
-205.5
 21
36.0
 31
0.0
  0
LINE
  5
13B
100
AcDbEntity
100
AcDbLine
  8
0
 62
256
370
-1
  6
BYLAYER
 10
-355.5
 20
-61.5
 30
0.0
 11
172.5
 21
-61.5
 31
0.0
  0
LINE
  5
13C
100
AcDbEntity
100
AcDbLine
  8
0
 62
256
370
-1
  6
BYLAYER
 10
-355.5
 20
-61.5
 30
0.0
 11
-355.5
 21
198.5
 31
0.0
  0
LINE
  5
13D
100
AcDbEntity
100
AcDbLine
  8
0
 62
256
370
-1
  6
BYLAYER
 10
200.5
 20
198.5
 30
0.0
 11
-355.5
 21
198.5
 31
0.0
  0
DIMENSION
  5
13E
100
AcDbEntity
  8
dimensions
 62
256
370
-1
  6
BYLAYER
100
AcDbDimension
 10
6.0000000000000027
 20
216.5
 30
0.0
 11
101.0
 21
220.25
 31
0.0
 70
1
 71
8
 72
2
 41
1.0
 42
0.0
  1

  3
Standard
100
AcDbAlignedDimension
 13
6.0000000000000009
 23
194.0
 33
0.0
 14
196.0
 24
194.0
 34
0.0
1001
ACAD
1000
DSTYLE
1002
{
1070
144
1040
1
1002
}
  0
DIMENSION
  5
13F
100
AcDbEntity
  8
dimensions
 62
256
370
-1
  6
BYLAYER
100
AcDbDimension
 10
217.5
 20
194.0
 30
0.0
 11
213.75
 21
115.25
 31
0.0
 70
1
 71
8
 72
2
 41
1.0
 42
0.0
  1

  3
Standard
100
AcDbAlignedDimension
 13
196.0
 23
194.0
 33
0.0
 14
196.0
 24
36.5
 34
0.0
1001
ACAD
1000
DSTYLE
1002
{
1070
144
1040
1
1002
}
  0
DIMENSION
  5
140
100
AcDbEntity
  8
dimensions
 62
256
370
-1
  6
BYLAYER
100
AcDbDimension
 10
-27.0
 20
-82.8111718989671601
 30
0.0
 11
26.75
 21
-79.0611718989671601
 31
0.0
 70
1
 71
8
 72
2
 41
1.0
 42
0.0
  1

  3
Standard
100
AcDbAlignedDimension
 13
-27.0
 23
-57.0
 33
0.0
 14
80.5
 24
-57.0
 34
0.0
1001
ACAD
1000
DSTYLE
1002
{
1070
144
1040
1
1002
}
  0
DIMENSION
  5
141
100
AcDbEntity
  8
dimensions
 62
256
370
-1
  6
BYLAYER
100
AcDbDimension
 10
-10.5
 20
-57.0
 30
0.0
 11
-14.25
 21
-10.5
 31
0.0
 70
1
 71
8
 72
2
 41
1.0
 42
0.0
  1

  3
Standard
100
AcDbAlignedDimension
 13
-27.0
 23
-57.0
 33
0.0
 14
-27.0
 24
36.0
 34
0.0
1001
ACAD
1000
DSTYLE
1002
{
1070
144
1040
1
1002
}
  0
DIMENSION
  5
142
100
AcDbEntity
  8
dimensions
 62
256
370
-1
  6
BYLAYER
100
AcDbDimension
 10
17.5
 20
75.0
 30
0.0
 11
13.75
 21
91.0
 31
0.0
 70
1
 71
8
 72
2
 41
1.0
 42
0.0
  1

  3
Standard
100
AcDbAlignedDimension
 13
1.4999999999999929
 23
75.0
 33
0.0
 14
1.4999999999999929
 24
107.0
 34
0.0
1001
ACAD
1000
DSTYLE
1002
{
1070
144
1040
1
1002
}
  0
DIMENSION
  5
143
100
AcDbEntity
  8
dimensions
 62
256
370
-1
  6
BYLAYER
100
AcDbDimension
 10
1.4999999999999845
 20
60.5
 30
0.0
 11
17.2638888888888751
 21
64.2499999999999858
 31
0.0
 70
1
 71
8
 72
2
 41
1.0
 42
0.0
  1

  3
Standard
100
AcDbAlignedDimension
 13
1.4999999999999929
 23
107.0
 33
0.0
 14
-27.0000000000000071
 24
107.0
 34
0.0
1001
ACAD
1000
DSTYLE
1002
{
1070
144
1040
1
1002
}
  0
DIMENSION
  5
144
100
AcDbEntity
  8
dimensions
 62
256
370
-1
  6
BYLAYER
100
AcDbDimension
 10
-205.5
 20
48.5
 30
0.0
 11
-102.0
 21
52.25
 31
0.0
 70
1
 71
8
 72
2
 41
1.0
 42
0.0
  1

  3
Standard
100
AcDbAlignedDimension
 13
-205.5
 23
40.5
 33
0.0
 14
1.5
 24
40.5
 34
0.0
1001
ACAD
1000
DSTYLE
1002
{
1070
144
1040
1
1002
}
  0
DIMENSION
  5
145
100
AcDbEntity
  8
dimensions
 62
256
370
-1
  6
BYLAYER
100
AcDbDimension
 10
-178.5
 20
-83.5
 30
0.0
 11
-264.75
 21
-79.75
 31
0.0
 70
1
 71
8
 72
2
 41
1.0
 42
0.0
  1

  3
Standard
100
AcDbAlignedDimension
 13
-178.5
 23
-57.0
 33
0.0
 14
-351.0
 24
-57.0
 34
0.0
1001
ACAD
1000
DSTYLE
1002
{
1070
144
1040
1
1002
}
  0
DIMENSION
  5
146
100
AcDbEntity
  8
dimensions
 62
256
370
-1
  6
BYLAYER
100
AcDbDimension
 10
-370.5
 20
-57.0
 30
0.0
 11
-374.25
 21
9.75
 31
0.0
 70
1
 71
8
 72
2
 41
1.0
 42
0.0
  1

  3
Standard
100
AcDbAlignedDimension
 13
-351.0
 23
-57.0
 33
0.0
 14
-351.0
 24
76.5
 34
0.0
1001
ACAD
1000
DSTYLE
1002
{
1070
144
1040
1
1002
}
  0
DIMENSION
  5
147
100
AcDbEntity
  8
dimensions
 62
256
370
-1
  6
BYLAYER
100
AcDbDimension
 10
-370.5
 20
81.0
 30
0.0
 11
-374.25
 21
137.5
 31
0.0
 70
1
 71
8
 72
2
 41
1.0
 42
0.0
  1

  3
Standard
100
AcDbAlignedDimension
 13
-351.0
 23
81.0
 33
0.0
 14
-351.0
 24
194.0
 34
0.0
1001
ACAD
1000
DSTYLE
1002
{
1070
144
1040
1
1002
}
  0
DIMENSION
  5
148
100
AcDbEntity
  8
dimensions
 62
256
370
-1
  6
BYLAYER
100
AcDbDimension
 10
-162.5
 20
216.5
 30
0.0
 11
-256.75
 21
220.25
 31
0.0
 70
1
 71
8
 72
2
 41
1.0
 42
0.0
  1

  3
Standard
100
AcDbAlignedDimension
 13
-162.5
 23
194.0
 33
0.0
 14
-351.0
 24
194.0
 34
0.0
1001
ACAD
1000
DSTYLE
1002
{
1070
144
1040
1
1002
}
  0
DIMENSION
  5
149
100
AcDbEntity
  8
dimensions
 62
256
370
-1
  6
BYLAYER
100
AcDbDimension
 10
-58.5
 20
75.0
 30
0.0
 11
-62.25
 21
57.75
 31
0.0
 70
1
 71
8
 72
2
 41
1.0
 42
0.0
  1

  3
Standard
100
AcDbAlignedDimension
 13
-77.0
 23
75.0
 33
0.0
 14
-77.0
 24
40.5
 34
0.0
1001
ACAD
1000
DSTYLE
1002
{
1070
144
1040
1
1002
}
  0
DIMENSION
  5
14A
100
AcDbEntity
  8
dimensions
 62
256
370
-1
  6
BYLAYER
100
AcDbDimension
 10
-67.5
 20
-41.9468726823975544
 30
0.0
 11
-49.5
 21
-38.1968726823975544
 31
0.0
 70
1
 71
8
 72
2
 41
1.0
 42
0.0
  1

  3
Standard
100
AcDbAlignedDimension
 13
-67.5
 23
-24.0
 33
0.0
 14
-31.5
 24
-24.0
 34
0.0
1001
ACAD
1000
DSTYLE
1002
{
1070
144
1040
1
1002
}
  0
DIMENSION
  5
14B
100
AcDbEntity
  8
dimensions
 62
256
370
-1
  6
BYLAYER
100
AcDbDimension
 10
-82.5
 20
-24.0
 30
0.0
 11
-86.25
 21
6.0000000000000009
 31
0.0
 70
1
 71
8
 72
2
 41
1.0
 42
0.0
  1

  3
Standard
100
AcDbAlignedDimension
 13
-72.0
 23
-24.0
 33
0.0
 14
-72.0
 24
36.0
 34
0.0
1001
ACAD
1000
DSTYLE
1002
{
1070
144
1040
1
1002
}
  0
LINE
  5
14C
100
AcDbEntity
100
AcDbLine
  8
hardwood_area
 62
256
370
-1
  6
BYLAYER
 10
6.0000000000000009
 20
194.0
 30
0.0
 11
196.0
 21
194.0
 31
0.0
  0
LINE
  5
14D
100
AcDbEntity
100
AcDbLine
  8
hardwood_area
 62
256
370
-1
  6
BYLAYER
 10
196.0
 20
194.0
 30
0.0
 11
196.0
 21
36.5
 31
0.0
  0
LINE
  5
14E
100
AcDbEntity
100
AcDbLine
  8
hardwood_area
 62
256
370
-1
  6
BYLAYER
 10
196.0
 20
36.5
 30
0.0
 11
119.5
 21
36.5
 31
0.0
  0
LINE
  5
14F
100
AcDbEntity
100
AcDbLine
  8
hardwood_area
 62
256
370
-1
  6
BYLAYER
 10
119.5
 20
36.5
 30
0.0
 11
119.5
 21
7.0
 31
0.0
  0
LINE
  5
150
100
AcDbEntity
100
AcDbLine
  8
hardwood_area
 62
256
370
-1
  6
BYLAYER
 10
119.5
 20
7.0
 30
0.0
 11
80.5
 21
7.0
 31
0.0
  0
LINE
  5
151
100
AcDbEntity
100
AcDbLine
  8
hardwood_area
 62
256
370
-1
  6
BYLAYER
 10
80.5
 20
7.0
 30
0.0
 11
80.5
 21
-57.0
 31
0.0
  0
LINE
  5
152
100
AcDbEntity
100
AcDbLine
  8
hardwood_area
 62
256
370
-1
  6
BYLAYER
 10
80.5
 20
-57.0
 30
0.0
 11
-27.0
 21
-57.0
 31
0.0
  0
LINE
  5
153
100
AcDbEntity
100
AcDbLine
  8
hardwood_area
 62
256
370
-1
  6
BYLAYER
 10
-27.0
 20
-57.0
 30
0.0
 11
-26.9999999999999964
 21
-17.5
 31
0.0
  0
LINE
  5
154
100
AcDbEntity
100
AcDbLine
  8
hardwood_area
 62
256
370
-1
  6
BYLAYER
 10
-26.9999999999999964
 20
-17.5
 30
0.0
 11
-31.5
 21
-17.5
 31
0.0
  0
LINE
  5
155
100
AcDbEntity
100
AcDbLine
  8
hardwood_area
 62
256
370
-1
  6
BYLAYER
 10
-31.5
 20
-17.5
 30
0.0
 11
-31.5
 21
-24.0
 31
0.0
  0
LINE
  5
156
100
AcDbEntity
100
AcDbLine
  8
hardwood_area
 62
256
370
-1
  6
BYLAYER
 10
-31.5
 20
-24.0
 30
0.0
 11
-67.5
 21
-24.0
 31
0.0
  0
LINE
  5
157
100
AcDbEntity
100
AcDbLine
  8
hardwood_area
 62
256
370
-1
  6
BYLAYER
 10
-67.5
 20
-24.0
 30
0.0
 11
-67.5
 21
40.5
 31
0.0
  0
LINE
  5
158
100
AcDbEntity
100
AcDbLine
  8
hardwood_area
 62
256
370
-1
  6
BYLAYER
 10
-67.5
 20
40.5
 30
0.0
 11
-205.5
 21
40.5
 31
0.0
  0
LINE
  5
159
100
AcDbEntity
100
AcDbLine
  8
hardwood_area
 62
256
370
-1
  6
BYLAYER
 10
-205.5
 20
40.5
 30
0.0
 11
-205.5
 21
36.0
 31
0.0
  0
LINE
  5
15A
100
AcDbEntity
100
AcDbLine
  8
hardwood_area
 62
256
370
-1
  6
BYLAYER
 10
-205.5
 20
36.0
 30
0.0
 11
-178.5
 21
36.0
 31
0.0
  0
LINE
  5
15B
100
AcDbEntity
100
AcDbLine
  8
hardwood_area
 62
256
370
-1
  6
BYLAYER
 10
-178.5
 20
36.0
 30
0.0
 11
-178.5
 21
-57.0
 31
0.0
  0
LINE
  5
15C
100
AcDbEntity
100
AcDbLine
  8
hardwood_area
 62
256
370
-1
  6
BYLAYER
 10
-178.5
 20
-57.0
 30
0.0
 11
-351.0
 21
-57.0
 31
0.0
  0
LINE
  5
15D
100
AcDbEntity
100
AcDbLine
  8
hardwood_area
 62
256
370
-1
  6
BYLAYER
 10
-351.0
 20
-57.0
 30
0.0
 11
-351.0
 21
194.0
 31
0.0
  0
LINE
  5
15E
100
AcDbEntity
100
AcDbLine
  8
hardwood_area
 62
256
370
-1
  6
BYLAYER
 10
-351.0
 20
194.0
 30
0.0
 11
-162.5
 21
194.0
 31
0.0
  0
LINE
  5
15F
100
AcDbEntity
100
AcDbLine
  8
hardwood_area
 62
256
370
-1
  6
BYLAYER
 10
-162.5
 20
194.0
 30
0.0
 11
-162.5
 21
75.0
 31
0.0
  0
LINE
  5
160
100
AcDbEntity
100
AcDbLine
  8
hardwood_area
 62
256
370
-1
  6
BYLAYER
 10
-162.5
 20
75.0
 30
0.0
 11
-27.0000000000000071
 21
75.0
 31
0.0
  0
LINE
  5
161
100
AcDbEntity
100
AcDbLine
  8
hardwood_area
 62
256
370
-1
  6
BYLAYER
 10
-27.0000000000000071
 20
75.0
 30
0.0
 11
-27.0000000000000071
 21
107.0
 31
0.0
  0
LINE
  5
162
100
AcDbEntity
100
AcDbLine
  8
hardwood_area
 62
256
370
-1
  6
BYLAYER
 10
-27.0000000000000071
 20
107.0
 30
0.0
 11
5.9999999999999956
 21
107.0
 31
0.0
  0
LINE
  5
163
100
AcDbEntity
100
AcDbLine
  8
hardwood_area
 62
256
370
-1
  6
BYLAYER
 10
5.9999999999999956
 20
107.0
 30
0.0
 11
6.0000000000000009
 21
194.0
 31
0.0
  0
LINE
  5
164
100
AcDbEntity
100
AcDbLine
  8
hardwood_area
 62
256
370
-1
  6
BYLAYER
 10
6.0000000000000009
 20
194.0
 30
0.0
 11
6.0000000000000009
 21
194.0
 31
0.0
  0
DIMENSION
  5
165
100
AcDbEntity
  8
dimensions
 62
256
370
-1
  6
BYLAYER
100
AcDbDimension
 10
119.5
 20
-3.5
 30
0.0
 11
102.25
 21
0.25
 31
0.0
 70
1
 71
8
 72
2
 41
1.0
 42
0.0
  1

  3
Standard
100
AcDbAlignedDimension
 13
119.5
 23
11.5
 33
0.0
 14
85.0
 24
11.5
 34
0.0
1001
ACAD
1000
DSTYLE
1002
{
1070
144
1040
1
1002
}
  0
HATCH
  5
166
  8
hardwood_area
 62
256
370
-1
  6
BYLAYER
100
AcDbEntity
100
AcDbHatch
 10
0.0
 20
0.0
 30
0.0
210
0.0
220
0.0
230
1.0
  2
TRANS
 70
0
 71
0
 91
1
 92
1
 93
25
 72
1
 10
6.0000000000000009
 20
194.0
 11
196.0
 21
194.0
 72
1
 10
196.0
 20
194.0
 11
196.0
 21
36.5
 72
1
 10
196.0
 20
36.5
 11
119.5
 21
36.5
 72
1
 10
119.5
 20
36.5
 11
119.5
 21
7.0
 72
1
 10
119.5
 20
7.0
 11
80.5
 21
7.0
 72
1
 10
80.5
 20
7.0
 11
80.5
 21
-57.0
 72
1
 10
80.5
 20
-57.0
 11
-27.0
 21
-57.0
 72
1
 10
-27.0
 20
-57.0
 11
-26.9999999999999964
 21
-17.5
 72
1
 10
-26.9999999999999964
 20
-17.5
 11
-31.5
 21
-17.5
 72
1
 10
-31.5
 20
-17.5
 11
-31.5
 21
-24.0
 72
1
 10
-31.5
 20
-24.0
 11
-67.5
 21
-24.0
 72
1
 10
-67.5
 20
-24.0
 11
-67.5
 21
40.5
 72
1
 10
-67.5
 20
40.5
 11
-205.5
 21
40.5
 72
1
 10
-205.5
 20
40.5
 11
-205.5
 21
36.0
 72
1
 10
-205.5
 20
36.0
 11
-178.5
 21
36.0
 72
1
 10
-178.5
 20
36.0
 11
-178.5
 21
-57.0
 72
1
 10
-178.5
 20
-57.0
 11
-351.0
 21
-57.0
 72
1
 10
-351.0
 20
-57.0
 11
-351.0
 21
194.0
 72
1
 10
-351.0
 20
194.0
 11
-162.5
 21
194.0
 72
1
 10
-162.5
 20
194.0
 11
-162.5
 21
75.0
 72
1
 10
-162.5
 20
75.0
 11
-27.0000000000000071
 21
75.0
 72
1
 10
-27.0000000000000071
 20
75.0
 11
-27.0000000000000071
 21
107.0
 72
1
 10
-27.0000000000000071
 20
107.0
 11
5.9999999999999956
 21
107.0
 72
1
 10
5.9999999999999956
 20
107.0
 11
6.0000000000000009
 21
194.0
 72
1
 10
6.0000000000000009
 20
194.0
 11
6.0000000000000009
 21
194.0
 97
0
 75
0
 76
1
 52
0.0
 41
10.0
 77
0
 78
1
 53
45.0
 43
0.0
 44
0.0
 45
-0.0883883476483184
 46
0.0883883476483185
 79
0
 98
0
1001
ACAD
1010
0.0
1020
0.0
1030
0
  0
LINE
  5
167
100
AcDbEntity
100
AcDbLine
  8
0
 62
256
370
-1
  6
BYLAYER
 10
162.5
 20
-188.0
 30
0.0
 11
-316.5
 21
-188.0
 31
0.0
  0
LINE
  5
168
100
AcDbEntity
100
AcDbLine
  8
0
 62
256
370
-1
  6
BYLAYER
 10
-316.5
 20
-422.0
 30
0.0
 11
162.5
 21
-422.0
 31
0.0
  0
LINE
  5
169
100
AcDbEntity
100
AcDbLine
  8
0
 62
256
370
-1
  6
BYLAYER
 10
-316.5
 20
-422.0
 30
0.0
 11
-316.5
 21
-188.0
 31
0.0
  0
LINE
  5
16A
100
AcDbEntity
100
AcDbLine
  8
0
 62
256
370
-1
  6
BYLAYER
 10
11.5
 20
-188.0
 30
0.0
 11
162.5
 21
-188.0
 31
0.0
  0
LINE
  5
16B
100
AcDbEntity
100
AcDbLine
  8
0
 62
256
370
-1
  6
BYLAYER
 10
11.4999999999999929
 20
-290.0
 30
0.0
 11
11.5
 21
-188.0
 31
0.0
  0
LINE
  5
16C
100
AcDbEntity
100
AcDbLine
  8
0
 62
256
370
-1
  6
BYLAYER
 10
-64.5
 20
-290.0
 30
0.0
 11
11.4999999999999929
 21
-290.0
 31
0.0
  0
LINE
  5
16D
100
AcDbEntity
100
AcDbLine
  8
0
 62
256
370
-1
  6
BYLAYER
 10
-69.5
 20
-294.0
 30
0.0
 11
-64.5
 21
-294.0
 31
0.0
  0
LINE
  5
16E
100
AcDbEntity
100
AcDbLine
  8
0
 62
256
370
-1
  6
BYLAYER
 10
-64.5
 20
-294.0
 30
0.0
 11
-64.5
 21
-290.0
 31
0.0
  0
LINE
  5
16F
100
AcDbEntity
100
AcDbLine
  8
0
 62
256
370
-1
  6
BYLAYER
 10
-69.5
 20
-290.0
 30
0.0
 11
-69.5
 21
-294.0
 31
0.0
  0
LINE
  5
170
100
AcDbEntity
100
AcDbLine
  8
0
 62
256
370
-1
  6
BYLAYER
 10
-72.5
 20
-290.0
 30
0.0
 11
-69.5
 21
-290.0
 31
0.0
  0
LINE
  5
171
100
AcDbEntity
100
AcDbLine
  8
0
 62
256
370
-1
  6
BYLAYER
 10
-200.5
 20
-290.0
 30
0.0
 11
-104.5
 21
-290.0
 31
0.0
  0
LINE
  5
172
100
AcDbEntity
100
AcDbLine
  8
0
 62
256
370
-1
  6
BYLAYER
 10
6.9999999999999929
 20
-285.5
 30
0.0
 11
7.0
 21
-188.0
 31
0.0
  0
LINE
  5
173
100
AcDbEntity
100
AcDbLine
  8
0
 62
256
370
-1
  6
BYLAYER
 10
-72.5
 20
-285.5
 30
0.0
 11
7.0
 21
-285.5
 31
0.0
  0
LINE
  5
174
100
AcDbEntity
100
AcDbLine
  8
0
 62
256
370
-1
  6
BYLAYER
 10
-204.0
 20
-285.5
 30
0.0
 11
-104.5
 21
-285.5
 31
0.0
  0
LINE
  5
175
100
AcDbEntity
100
AcDbLine
  8
0
 62
256
370
-1
  6
BYLAYER
 10
-200.5
 20
-294.0
 30
0.0
 11
-200.5
 21
-290.0
 31
0.0
  0
LINE
  5
176
100
AcDbEntity
100
AcDbLine
  8
0
 62
256
370
-1
  6
BYLAYER
 10
-205.5
 20
-294.0
 30
0.0
 11
-200.5
 21
-294.0
 31
0.0
  0
LINE
  5
177
100
AcDbEntity
100
AcDbLine
  8
0
 62
256
370
-1
  6
BYLAYER
 10
-205.5
 20
-294.0
 30
0.0
 11
-205.5
 21
-290.0
 31
0.0
  0
LINE
  5
178
100
AcDbEntity
100
AcDbLine
  8
0
 62
256
370
-1
  6
BYLAYER
 10
-316.5
 20
-290.0
 30
0.0
 11
-205.5
 21
-290.0
 31
0.0
  0
LINE
  5
179
100
AcDbEntity
100
AcDbLine
  8
0
 62
256
370
-1
  6
BYLAYER
 10
-316.5
 20
-285.5
 30
0.0
 11
-208.5
 21
-285.5
 31
0.0
  0
LINE
  5
17A
100
AcDbEntity
100
AcDbLine
  8
0
 62
256
370
-1
  6
BYLAYER
 10
-200.5
 20
-355.5
 30
0.0
 11
-200.5
 21
-324.0
 31
0.0
  0
LINE
  5
17B
100
AcDbEntity
100
AcDbLine
  8
0
 62
256
370
-1
  6
BYLAYER
 10
-205.0
 20
-360.0
 30
0.0
 11
-205.0
 21
-324.0
 31
0.0
  0
LINE
  5
17C
100
AcDbEntity
100
AcDbLine
  8
0
 62
256
370
-1
  6
BYLAYER
 10
-205.0
 20
-324.0
 30
0.0
 11
-200.5
 21
-324.0
 31
0.0
  0
LINE
  5
17D
100
AcDbEntity
100
AcDbLine
  8
0
 62
256
370
-1
  6
BYLAYER
 10
-205.0
 20
-360.0
 30
0.0
 11
-177.0
 21
-360.0
 31
0.0
  0
LINE
  5
17E
100
AcDbEntity
100
AcDbLine
  8
0
 62
256
370
-1
  6
BYLAYER
 10
-177.0
 20
-360.0
 30
0.0
 11
-177.0
 21
-422.0
 31
0.0
  0
LINE
  5
17F
100
AcDbEntity
100
AcDbLine
  8
0
 62
256
370
-1
  6
BYLAYER
 10
-200.5
 20
-355.5
 30
0.0
 11
-177.0
 21
-355.5
 31
0.0
  0
LINE
  5
180
100
AcDbEntity
100
AcDbLine
  8
0
 62
256
370
-1
  6
BYLAYER
 10
-172.5
 20
-355.5
 30
0.0
 11
-172.5
 21
-422.0
 31
0.0
  0
LINE
  5
181
100
AcDbEntity
100
AcDbLine
  8
0
 62
256
370
-1
  6
BYLAYER
 10
-330.5
 20
-407.0
 30
0.0
 11
-330.5
 21
-345.0
 31
0.0
  0
LINE
  5
182
100
AcDbEntity
100
AcDbLine
  8
0
 62
256
370
-1
  6
BYLAYER
 10
-330.5
 20
-407.0
 30
0.0
 11
-316.5
 21
-407.0
 31
0.0
  0
LINE
  5
183
100
AcDbEntity
100
AcDbLine
  8
0
 62
256
370
-1
  6
BYLAYER
 10
-330.5
 20
-345.0
 30
0.0
 11
-316.5
 21
-345.0
 31
0.0
  0
LINE
  5
184
100
AcDbEntity
100
AcDbLine
  8
0
 62
256
370
-1
  6
BYLAYER
 10
-177.0
 20
-355.5
 30
0.0
 11
-177.0
 21
-324.0
 31
0.0
  0
LINE
  5
185
100
AcDbEntity
100
AcDbLine
  8
0
 62
256
370
-1
  6
BYLAYER
 10
-172.5
 20
-355.5
 30
0.0
 11
-172.5
 21
-324.0
 31
0.0
  0
LINE
  5
186
100
AcDbEntity
100
AcDbLine
  8
0
 62
256
370
-1
  6
BYLAYER
 10
-177.0
 20
-324.0
 30
0.0
 11
-172.5
 21
-324.0
 31
0.0
  0
LINE
  5
187
100
AcDbEntity
100
AcDbLine
  8
0
 62
256
370
-1
  6
BYLAYER
 10
-172.5
 20
-413.5
 30
0.0
 11
-112.5
 21
-413.5
 31
0.0
  0
LINE
  5
188
100
AcDbEntity
100
AcDbLine
  8
0
 62
256
370
-1
  6
BYLAYER
 10
-112.5
 20
-324.0
 30
0.0
 11
-112.5
 21
-413.5
 31
0.0
  0
LINE
  5
189
100
AcDbEntity
100
AcDbLine
  8
0
 62
256
370
-1
  6
BYLAYER
 10
-112.5
 20
-384.0
 30
0.0
 11
-172.5
 21
-384.0
 31
0.0
  0
LINE
  5
18A
100
AcDbEntity
100
AcDbLine
  8
0
 62
256
370
-1
  6
BYLAYER
 10
-108.0
 20
-324.0
 30
0.0
 11
-108.0
 21
-422.0
 31
0.0
  0
LINE
  5
18B
100
AcDbEntity
100
AcDbLine
  8
0
 62
256
370
-1
  6
BYLAYER
 10
-112.5
 20
-324.0
 30
0.0
 11
-108.0
 21
-324.0
 31
0.0
  0
LINE
  5
18C
100
AcDbEntity
100
AcDbLine
  8
0
 62
256
370
-1
  6
BYLAYER
 10
-142.5
 20
-324.0
 30
0.0
 11
-172.5
 21
-324.0
 31
0.0
  0
LINE
  5
18D
100
AcDbEntity
100
AcDbLine
  8
0
 62
256
370
-1
  6
BYLAYER
 10
-142.5
 20
-328.5
 30
0.0
 11
-172.5
 21
-328.5
 31
0.0
  0
LINE
  5
18E
100
AcDbEntity
100
AcDbLine
  8
0
 62
256
370
-1
  6
BYLAYER
 10
-142.5
 20
-324.0
 30
0.0
 11
-142.5
 21
-328.5
 31
0.0
  0
LINE
  5
18F
100
AcDbEntity
100
AcDbLine
  8
0
 62
256
370
-1
  6
BYLAYER
 10
-72.5
 20
-290.0
 30
0.0
 11
-72.5
 21
-285.5
 31
0.0
  0
LINE
  5
190
100
AcDbEntity
100
AcDbLine
  8
0
 62
256
370
-1
  6
BYLAYER
 10
-104.5
 20
-285.5
 30
0.0
 11
-104.5
 21
-290.0
 31
0.0
  0
LINE
  5
191
100
AcDbEntity
100
AcDbLine
  8
0
 62
256
370
-1
  6
BYLAYER
 10
-108.0
 20
-330.5
 30
0.0
 11
-72.0
 21
-330.5
 31
0.0
  0
LINE
  5
192
100
AcDbEntity
100
AcDbLine
  8
0
 62
256
370
-1
  6
BYLAYER
 10
-108.0
 20
-340.5
 30
0.0
 11
-72.0
 21
-340.5
 31
0.0
  0
LINE
  5
193
100
AcDbEntity
100
AcDbLine
  8
0
 62
256
370
-1
  6
BYLAYER
 10
-108.0
 20
-350.5
 30
0.0
 11
-72.0
 21
-350.5
 31
0.0
  0
LINE
  5
194
100
AcDbEntity
100
AcDbLine
  8
0
 62
256
370
-1
  6
BYLAYER
 10
-108.0
 20
-360.5
 30
0.0
 11
-72.0
 21
-360.5
 31
0.0
  0
LINE
  5
195
100
AcDbEntity
100
AcDbLine
  8
0
 62
256
370
-1
  6
BYLAYER
 10
-108.0
 20
-370.5
 30
0.0
 11
-72.0
 21
-370.5
 31
0.0
  0
LINE
  5
196
100
AcDbEntity
100
AcDbLine
  8
0
 62
256
370
-1
  6
BYLAYER
 10
-108.0
 20
-380.5
 30
0.0
 11
-72.0
 21
-380.5
 31
0.0
  0
LINE
  5
197
100
AcDbEntity
100
AcDbLine
  8
0
 62
256
370
-1
  6
BYLAYER
 10
-108.0
 20
-390.5
 30
0.0
 11
-72.0
 21
-390.5
 31
0.0
  0
LINE
  5
198
100
AcDbEntity
100
AcDbLine
  8
0
 62
256
370
-1
  6
BYLAYER
 10
-72.0
 20
-324.0
 30
0.0
 11
-72.0
 21
-390.5
 31
0.0
  0
LINE
  5
199
100
AcDbEntity
100
AcDbLine
  8
0
 62
256
370
-1
  6
BYLAYER
 10
-72.0
 20
-390.5
 30
0.0
 11
-72.0
 21
-390.5
 31
0.0
  0
LINE
  5
19A
100
AcDbEntity
100
AcDbLine
  8
0
 62
256
370
-1
  6
BYLAYER
 10
-72.0
 20
-324.0
 30
0.0
 11
-67.5
 21
-324.0
 31
0.0
  0
LINE
  5
19B
100
AcDbEntity
100
AcDbLine
  8
0
 62
256
370
-1
  6
BYLAYER
 10
-67.5
 20
-367.0
 30
0.0
 11
-67.5
 21
-324.0
 31
0.0
  0
LINE
  5
19C
100
AcDbEntity
100
AcDbLine
  8
0
 62
256
370
-1
  6
BYLAYER
 10
-67.5
 20
-367.0
 30
0.0
 11
11.4999999999999858
 21
-367.0
 31
0.0
  0
LINE
  5
19D
100
AcDbEntity
100
AcDbLine
  8
0
 62
256
370
-1
  6
BYLAYER
 10
0.4999999999999929
 20
-333.0
 30
0.0
 11
11.4999999999999929
 21
-333.0
 31
0.0
  0
LINE
  5
19E
100
AcDbEntity
100
AcDbLine
  8
0
 62
256
370
-1
  6
BYLAYER
 10
11.4999999999999929
 20
-333.0
 30
0.0
 11
11.4999999999999929
 21
-322.0
 31
0.0
  0
LINE
  5
19F
100
AcDbEntity
100
AcDbLine
  8
0
 62
256
370
-1
  6
BYLAYER
 10
11.4999999999999929
 20
-322.0
 30
0.0
 11
0.4999999999999929
 21
-322.0
 31
0.0
  0
LINE
  5
1A0
100
AcDbEntity
100
AcDbLine
  8
0
 62
256
370
-1
  6
BYLAYER
 10
0.4999999999999929
 20
-322.0
 30
0.0
 11
0.4999999999999929
 21
-333.0
 31
0.0
  0
LINE
  5
1A1
100
AcDbEntity
100
AcDbLine
  8
0
 62
256
370
-1
  6
BYLAYER
 10
11.499999999999984
 20
-387.0
 30
0.0
 11
11.4999999999999858
 21
-367.0
 31
0.0
  0
LINE
  5
1A2
100
AcDbEntity
100
AcDbLine
  8
0
 62
256
370
-1
  6
BYLAYER
 10
11.4999999999999822
 20
-411.0
 30
0.0
 11
11.5
 21
-422.0
 31
0.0
  0
LINE
  5
1A3
100
AcDbEntity
100
AcDbLine
  8
0
 62
256
370
-1
  6
BYLAYER
 10
6.9999999999999822
 20
-411.0
 30
0.0
 11
7.0
 21
-422.0
 31
0.0
  0
LINE
  5
1A4
100
AcDbEntity
100
AcDbLine
  8
0
 62
256
370
-1
  6
BYLAYER
 10
6.999999999999984
 20
-387.0
 30
0.0
 11
6.9999999999999858
 21
-371.5
 31
0.0
  0
LINE
  5
1A5
100
AcDbEntity
100
AcDbLine
  8
0
 62
256
370
-1
  6
BYLAYER
 10
-72.0
 20
-371.5
 30
0.0
 11
6.9999999999999858
 21
-371.5
 31
0.0
  0
LINE
  5
1A6
100
AcDbEntity
100
AcDbLine
  8
0
 62
256
370
-1
  6
BYLAYER
 10
6.9999999999999822
 20
-411.0
 30
0.0
 11
11.4999999999999822
 21
-411.0
 31
0.0
  0
LINE
  5
1A7
100
AcDbEntity
100
AcDbLine
  8
0
 62
256
370
-1
  6
BYLAYER
 10
6.999999999999984
 20
-387.0
 30
0.0
 11
11.499999999999984
 21
-387.0
 31
0.0
  0
LINE
  5
1A8
100
AcDbEntity
100
AcDbLine
  8
0
 62
256
370
-1
  6
BYLAYER
 10
86.5
 20
-381.5
 30
0.0
 11
86.5
 21
-372.0
 31
0.0
  0
LINE
  5
1A9
100
AcDbEntity
100
AcDbLine
  8
0
 62
256
370
-1
  6
BYLAYER
 10
86.5
 20
-372.0
 30
0.0
 11
98.5
 21
-372.0
 31
0.0
  0
LINE
  5
1AA
100
AcDbEntity
100
AcDbLine
  8
0
 62
256
370
-1
  6
BYLAYER
 10
123.5
 20
-347.0
 30
0.0
 11
138.5
 21
-347.0
 31
0.0
  0
LINE
  5
1AB
100
AcDbEntity
100
AcDbLine
  8
0
 62
256
370
-1
  6
BYLAYER
 10
123.5
 20
-359.0
 30
0.0
 11
123.5
 21
-347.0
 31
0.0
  0
LINE
  5
1AC
100
AcDbEntity
100
AcDbLine
  8
0
 62
256
370
-1
  6
BYLAYER
 10
123.5
 20
-359.0
 30
0.0
 11
98.5
 21
-372.0
 31
0.0
  0
LINE
  5
1AD
100
AcDbEntity
100
AcDbLine
  8
0
 62
256
370
-1
  6
BYLAYER
 10
138.5
 20
-359.0
 30
0.0
 11
162.5
 21
-359.0
 31
0.0
  0
LINE
  5
1AE
100
AcDbEntity
100
AcDbLine
  8
0
 62
256
370
-1
  6
BYLAYER
 10
138.5
 20
-359.0
 30
0.0
 11
138.5
 21
-347.0
 31
0.0
  0
LINE
  5
1AF
100
AcDbEntity
100
AcDbLine
  8
0
 62
256
370
-1
  6
BYLAYER
 10
-316.5
 20
-188.0
 30
0.0
 11
-208.5
 21
-188.0
 31
0.0
  0
LINE
  5
1B0
100
AcDbEntity
100
AcDbLine
  8
0
 62
256
370
-1
  6
BYLAYER
 10
-208.5
 20
-224.0
 30
0.0
 11
-208.5
 21
-188.0
 31
0.0
  0
LINE
  5
1B1
100
AcDbEntity
100
AcDbLine
  8
0
 62
256
370
-1
  6
BYLAYER
 10
-208.5
 20
-254.0
 30
0.0
 11
-208.5
 21
-285.5
 31
0.0
  0
LINE
  5
1B2
100
AcDbEntity
100
AcDbLine
  8
0
 62
256
370
-1
  6
BYLAYER
 10
-204.0
 20
-254.0
 30
0.0
 11
-204.0
 21
-285.5
 31
0.0
  0
LINE
  5
1B3
100
AcDbEntity
100
AcDbLine
  8
0
 62
256
370
-1
  6
BYLAYER
 10
-204.0
 20
-224.0
 30
0.0
 11
-204.0
 21
-188.0
 31
0.0
  0
LINE
  5
1B4
100
AcDbEntity
100
AcDbLine
  8
0
 62
256
370
-1
  6
BYLAYER
 10
-208.5
 20
-254.0
 30
0.0
 11
-204.0
 21
-254.0
 31
0.0
  0
LINE
  5
1B5
100
AcDbEntity
100
AcDbLine
  8
0
 62
256
370
-1
  6
BYLAYER
 10
-204.0
 20
-224.0
 30
0.0
 11
-208.5
 21
-224.0
 31
0.0
  0
LINE
  5
1B6
100
AcDbEntity
100
AcDbLine
  8
0
 62
256
370
-1
  6
BYLAYER
 10
91.0
 20
-381.5
 30
0.0
 11
91.0
 21
-376.5
 31
0.0
  0
LINE
  5
1B7
100
AcDbEntity
100
AcDbLine
  8
0
 62
256
370
-1
  6
BYLAYER
 10
128.0
 20
-361.7320410092979159
 30
0.0
 11
128.0
 21
-351.5
 31
0.0
  0
LINE
  5
1B8
100
AcDbEntity
100
AcDbLine
  8
0
 62
256
370
-1
  6
BYLAYER
 10
128.0
 20
-351.5
 30
0.0
 11
134.0
 21
-351.5
 31
0.0
  0
LINE
  5
1B9
100
AcDbEntity
100
AcDbLine
  8
0
 62
256
370
-1
  6
BYLAYER
 10
134.0
 20
-363.5
 30
0.0
 11
134.0
 21
-351.5
 31
0.0
  0
LINE
  5
1BA
100
AcDbEntity
100
AcDbLine
  8
0
 62
256
370
-1
  6
BYLAYER
 10
134.0
 20
-363.5
 30
0.0
 11
162.5
 21
-363.5
 31
0.0
  0
LINE
  5
1BB
100
AcDbEntity
100
AcDbLine
  8
0
 62
256
370
-1
  6
BYLAYER
 10
128.0
 20
-361.7320410092979159
 30
0.0
 11
99.6000788640344439
 21
-376.5
 31
0.0
  0
LINE
  5
1BC
100
AcDbEntity
100
AcDbLine
  8
0
 62
256
370
-1
  6
BYLAYER
 10
91.0
 20
-376.5
 30
0.0
 11
99.6000788640344297
 21
-376.5
 31
0.0
  0
LINE
  5
1BD
100
AcDbEntity
100
AcDbLine
  8
0
 62
256
370
-1
  6
BYLAYER
 10
86.5
 20
-381.5
 30
0.0
 11
91.0
 21
-381.5
 31
0.0
  0
LINE
  5
1BE
100
AcDbEntity
100
AcDbLine
  8
0
 62
256
370
-1
  6
BYLAYER
 10
-332.5
 20
-438.0
 30
0.0
 11
-332.5
 21
-172.0
 31
0.0
  0
LINE
  5
1BF
100
AcDbEntity
100
AcDbLine
  8
0
 62
256
370
-1
  6
BYLAYER
 10
178.5
 20
-172.0
 30
0.0
 11
-332.5
 21
-172.0
 31
0.0
  0
LINE
  5
1C0
100
AcDbEntity
100
AcDbLine
  8
0
 62
256
370
-1
  6
BYLAYER
 10
-332.5
 20
-438.0
 30
0.0
 11
178.5
 21
-438.0
 31
0.0
  0
LINE
  5
1C1
100
AcDbEntity
100
AcDbLine
  8
0
 62
256
370
-1
  6
BYLAYER
 10
178.5
 20
-172.0
 30
0.0
 11
178.5
 21
-438.0
 31
0.0
  0
LINE
  5
1C2
100
AcDbEntity
100
AcDbLine
  8
0
 62
256
370
-1
  6
BYLAYER
 10
162.5
 20
-306.0
 30
0.0
 11
162.5
 21
-212.0
 31
0.0
  0
LINE
  5
1C3
100
AcDbEntity
100
AcDbLine
  8
0
 62
256
370
-1
  6
BYLAYER
 10
176.5
 20
-306.0
 30
0.0
 11
176.5
 21
-212.0
 31
0.0
  0
LINE
  5
1C4
100
AcDbEntity
100
AcDbLine
  8
0
 62
256
370
-1
  6
BYLAYER
 10
162.5
 20
-188.0
 30
0.0
 11
162.5
 21
-422.0
 31
0.0
  0
LINE
  5
1C5
100
AcDbEntity
100
AcDbLine
  8
0
 62
256
370
-1
  6
BYLAYER
 10
176.5
 20
-212.0
 30
0.0
 11
162.5
 21
-212.0
 31
0.0
  0
LINE
  5
1C6
100
AcDbEntity
100
AcDbLine
  8
0
 62
256
370
-1
  6
BYLAYER
 10
176.5
 20
-306.0
 30
0.0
 11
162.5
 21
-306.0
 31
0.0
  0
LINE
  5
1C7
100
AcDbEntity
100
AcDbLine
  8
0
 62
256
370
-1
  6
BYLAYER
 10
-330.5
 20
-209.0
 30
0.0
 11
-330.5
 21
-264.5
 31
0.0
  0
LINE
  5
1C8
100
AcDbEntity
100
AcDbLine
  8
0
 62
256
370
-1
  6
BYLAYER
 10
-330.5
 20
-209.0
 30
0.0
 11
-316.5
 21
-209.0
 31
0.0
  0
LINE
  5
1C9
100
AcDbEntity
100
AcDbLine
  8
0
 62
256
370
-1
  6
BYLAYER
 10
-330.5
 20
-264.5
 30
0.0
 11
-316.5
 21
-264.5
 31
0.0
  0
DIMENSION
  5
1CA
100
AcDbEntity
  8
dimensions
 62
256
370
-1
  6
BYLAYER
100
AcDbDimension
 10
-316.5
 20
-153.5
 30
0.0
 11
-262.5
 21
-149.75
 31
0.0
 70
1
 71
8
 72
2
 41
1.0
 42
0.0
  1

  3
Standard
100
AcDbAlignedDimension
 13
-316.5
 23
-188.0
 33
0.0
 14
-208.5
 24
-188.0
 34
0.0
1001
ACAD
1000
DSTYLE
1002
{
1070
144
1040
1
1002
}
  0
DIMENSION
  5
1CB
100
AcDbEntity
  8
dimensions
 62
256
370
-1
  6
BYLAYER
100
AcDbDimension
 10
-352.0
 20
-188.0
 30
0.0
 11
-355.75
 21
-236.75
 31
0.0
 70
1
 71
8
 72
2
 41
1.0
 42
0.0
  1

  3
Standard
100
AcDbAlignedDimension
 13
-316.5
 23
-188.0
 33
0.0
 14
-316.5
 24
-285.5
 34
0.0
1001
ACAD
1000
DSTYLE
1002
{
1070
144
1040
1
1002
}
  0
DIMENSION
  5
1CC
100
AcDbEntity
  8
dimensions
 62
256
370
-1
  6
BYLAYER
100
AcDbDimension
 10
-352.0
 20
-290.0
 30
0.0
 11
-355.75
 21
-356.0
 31
0.0
 70
1
 71
8
 72
2
 41
1.0
 42
0.0
  1

  3
Standard
100
AcDbAlignedDimension
 13
-316.5
 23
-290.0
 33
0.0
 14
-316.5
 24
-422.0
 34
0.0
1001
ACAD
1000
DSTYLE
1002
{
1070
144
1040
1
1002
}
  0
DIMENSION
  5
1CD
100
AcDbEntity
  8
dimensions
 62
256
370
-1
  6
BYLAYER
100
AcDbDimension
 10
-205.0000000000000284
 20
-453.5
 30
0.0
 11
-260.75
 21
-449.75
 31
0.0
 70
1
 71
8
 72
2
 41
1.0
 42
0.0
  1

  3
Standard
100
AcDbAlignedDimension
 13
-205.0
 23
-360.0
 33
0.0
 14
-316.5
 24
-360.0
 34
0.0
1001
ACAD
1000
DSTYLE
1002
{
1070
144
1040
1
1002
}
  0
DIMENSION
  5
1CE
100
AcDbEntity
  8
dimensions
 62
256
370
-1
  6
BYLAYER
100
AcDbDimension
 10
11.5000000000000018
 20
-153.5
 30
0.0
 11
87.0
 21
-149.75
 31
0.0
 70
1
 71
8
 72
2
 41
1.0
 42
0.0
  1

  3
Standard
100
AcDbAlignedDimension
 13
11.5
 23
-188.0
 33
0.0
 14
162.5
 24
-188.0
 34
0.0
1001
ACAD
1000
DSTYLE
1002
{
1070
144
1040
1
1002
}
  0
DIMENSION
  5
1CF
100
AcDbEntity
  8
dimensions
 62
256
370
-1
  6
BYLAYER
100
AcDbDimension
 10
31.9999999999999929
 20
-290.0
 30
0.0
 11
28.2499999999999964
 21
-239.0
 31
0.0
 70
1
 71
8
 72
2
 41
1.0
 42
0.0
  1

  3
Standard
100
AcDbAlignedDimension
 13
11.4999999999999947
 23
-290.0
 33
0.0
 14
11.5
 24
-188.0
 34
0.0
1001
ACAD
1000
DSTYLE
1002
{
1070
144
1040
1
1002
}
  0
MTEXT
  5
1D0
100
AcDbEntity
100
AcDbMText
  8
electrical
 62
256
370
-1
  6
BYLAYER
 10
104.0
 20
-393.5
 30
0.0
 40
25.0
 41
0.0
 71
1
 72
1
  1
?
  7
textstyle11
 50
0.0
 73
2
 44
1.0
  0
INSERT
  5
1D1
100
AcDbEntity
100
AcDbBlockReference
  8
electrical
 62
256
370
-1
  6
BYLAYER
  2
outlet
 10
16.0
 20
-203.7679491924311037
 30
0.0
  0
INSERT
  5
1D2
100
AcDbEntity
100
AcDbBlockReference
  8
electrical
 62
256
370
-1
  6
BYLAYER
  2
light
 10
92.0
 20
-259.5
 30
0.0
  0
MTEXT
  5
1D3
100
AcDbEntity
100
AcDbMText
  8
electrical
 62
256
370
-1
  6
BYLAYER
 10
18.0
 20
-205.5
 30
0.0
 40
2.5
 41
0.0
 71
1
 72
1
  1
21
  7
textstyle12
 50
0.0
 73
2
 44
1.0
  0
MTEXT
  5
1D4
100
AcDbEntity
100
AcDbMText
  8
electrical
 62
256
370
-1
  6
BYLAYER
 10
159.152455661664419
 20
-207.7320508075688963
 30
0.0
 40
2.5
 41
0.0
 71
1
 72
1
  1
25
  7
textstyle13
 50
0.0
 73
2
 44
1.0
  0
INSERT
  5
1D5
100
AcDbEntity
100
AcDbBlockReference
  8
electrical
 62
256
370
-1
  6
BYLAYER
  2
outlet
 10
157.1524556616643906
 20
-206.0
 30
0.0
  0
MTEXT
  5
1D6
100
AcDbEntity
100
AcDbMText
  8
electrical
 62
256
370
-1
  6
BYLAYER
 10
159.152455661664419
 20
-335.7320508075688963
 30
0.0
 40
2.5
 41
0.0
 71
1
 72
1
  1
25
  7
textstyle14
 50
0.0
 73
2
 44
1.0
  0
INSERT
  5
1D7
100
AcDbEntity
100
AcDbBlockReference
  8
electrical
 62
256
370
-1
  6
BYLAYER
  2
outlet
 10
157.1524556616643906
 20
-334.0
 30
0.0
  0
MTEXT
  5
1D8
100
AcDbEntity
100
AcDbMText
  8
electrical
 62
256
370
-1
  6
BYLAYER
 10
-14.8475443383355703
 20
-297.7320508075688963
 30
0.0
 40
2.5
 41
0.0
 71
1
 72
1
  1
21
  7
textstyle15
 50
0.0
 73
2
 44
1.0
  0
INSERT
  5
1D9
100
AcDbEntity
100
AcDbBlockReference
  8
electrical
 62
256
370
-1
  6
BYLAYER
  2
outlet
 10
-16.8475443383356094
 20
-296.0
 30
0.0
  0
MTEXT
  5
1DA
100
AcDbEntity
100
AcDbMText
  8
electrical
 62
256
370
-1
  6
BYLAYER
 10
-50.8475443383355667
 20
-357.7320508075688963
 30
0.0
 40
2.5
 41
0.0
 71
1
 72
1
  1
21
  7
textstyle16
 50
0.0
 73
2
 44
1.0
  0
INSERT
  5
1DB
100
AcDbEntity
100
AcDbBlockReference
  8
electrical
 62
256
370
-1
  6
BYLAYER
  2
outlet
 10
-52.8475443383356094
 20
-356.0
 30
0.0
  0
MTEXT
  5
1DC
100
AcDbEntity
100
AcDbMText
  8
electrical
 62
256
370
-1
  6
BYLAYER
 10
94.431070941337012
 20
-262.2448840381991886
 30
0.0
 40
2.5
 41
0.0
 71
1
 72
1
  1
27
  7
textstyle17
 50
0.0
 73
2
 44
1.0
  0
LINE
  5
1DD
100
AcDbEntity
100
AcDbLine
  8
0
 62
256
370
-1
  6
BYLAYER
 10
-28.0
 20
-371.5
 30
0.0
 11
-28.0
 21
-422.0
 31
0.0
  0
INSERT
  5
1DE
100
AcDbEntity
100
AcDbBlockReference
  8
electrical
 62
256
370
-1
  6
BYLAYER
  2
switch
 10
-14.1677248493141796
 20
-387.7303882827716279
 30
0.0
  0
MTEXT
  5
1DF
100
AcDbEntity
100
AcDbMText
  8
electrical
 62
256
370
-1
  6
BYLAYER
 10
-19.0
 20
-386.5
 30
0.0
 40
2.5
 41
0.0
 71
1
 72
1
  1
27
  7
textstyle18
 50
0.0
 73
2
 44
1.0
  0
MTEXT
  5
1E0
100
AcDbEntity
100
AcDbMText
  8
electrical
 62
256
370
-1
  6
BYLAYER
 10
-19.5689290586631159
 20
-377.7320508075688963
 30
0.0
 40
2.5
 41
0.0
 71
1
 72
1
  1
27
  7
textstyle19
 50
0.0
 73
2
 44
1.0
  0
INSERT
  5
1E1
100
AcDbEntity
100
AcDbBlockReference
  8
electrical
 62
256
370
-1
  6
BYLAYER
  2
outlet
 10
-21.5689290586630449
 20
-376.0
 30
0.0
  0
INSERT
  5
1E2
100
AcDbEntity
100
AcDbBlockReference
  8
electrical
 62
256
370
-1
  6
BYLAYER
  2
switch
 10
24.2059056517412756
 20
-278.9600781795850253
 30
0.0
  0
MTEXT
  5
1E3
100
AcDbEntity
100
AcDbMText
  8
electrical
 62
256
370
-1
  6
BYLAYER
 10
19.3736305010554766
 20
-277.7296898968133974
 30
0.0
 40
2.5
 41
0.0
 71
1
 72
1
  1
27
  7
textstyle20
 50
0.0
 73
2
 44
1.0
  0
INSERT
  5
1E4
100
AcDbEntity
100
AcDbBlockReference
  8
electrical
 62
256
370
-1
  6
BYLAYER
  2
light
 10
-105.0257673942701331
 20
-228.8724420190995943
 30
0.0
  0
MTEXT
  5
1E5
100
AcDbEntity
100
AcDbMText
  8
electrical
 62
256
370
-1
  6
BYLAYER
 10
-102.5946964529333627
 20
-231.6173260572988966
 30
0.0
 40
2.5
 41
0.0
 71
1
 72
1
  1
13
  7
textstyle21
 50
0.0
 73
2
 44
1.0
  0
INSERT
  5
1E6
100
AcDbEntity
100
AcDbBlockReference
  8
electrical
 62
256
370
-1
  6
BYLAYER
  2
light
 10
-29.0257673942701331
 20
-228.8724420190995943
 30
0.0
  0
MTEXT
  5
1E7
100
AcDbEntity
100
AcDbMText
  8
electrical
 62
256
370
-1
  6
BYLAYER
 10
-26.5946964529333627
 20
-231.6173260572988966
 30
0.0
 40
2.5
 41
0.0
 71
1
 72
1
  1
13
  7
textstyle22
 50
0.0
 73
2
 44
1.0
  0
INSERT
  5
1E8
100
AcDbEntity
100
AcDbBlockReference
  8
electrical
 62
256
370
-1
  6
BYLAYER
  2
light
 10
-169.0257673942701331
 20
-228.8724420190995943
 30
0.0
  0
MTEXT
  5
1E9
100
AcDbEntity
100
AcDbMText
  8
electrical
 62
256
370
-1
  6
BYLAYER
 10
-166.5946964529333627
 20
-231.6173260572988966
 30
0.0
 40
2.5
 41
0.0
 71
1
 72
1
  1
13
  7
textstyle23
 50
0.0
 73
2
 44
1.0
  0
INSERT
  5
1EA
100
AcDbEntity
100
AcDbBlockReference
  8
electrical
 62
256
370
-1
  6
BYLAYER
  2
switch
 10
-106.3940943482587329
 20
-294.9600781795850253
 30
0.0
  0
MTEXT
  5
1EB
100
AcDbEntity
100
AcDbMText
  8
electrical
 62
256
370
-1
  6
BYLAYER
 10
-111.2263694989445213
 20
-293.7296898968133974
 30
0.0
 40
2.5
 41
0.0
 71
1
 72
1
  1
13
  7
textstyle24
 50
0.0
 73
2
 44
1.0
  0
INSERT
  5
1EC
100
AcDbEntity
100
AcDbBlockReference
  8
electrical
 62
256
370
-1
  6
BYLAYER
  2
switch
 10
-114.3940943482587329
 20
-294.9600781795850253
 30
0.0
  0
MTEXT
  5
1ED
100
AcDbEntity
100
AcDbMText
  8
electrical
 62
256
370
-1
  6
BYLAYER
 10
-119.2263694989445213
 20
-293.7296898968133974
 30
0.0
 40
2.5
 41
0.0
 71
1
 72
1
  1
19
  7
textstyle25
 50
0.0
 73
2
 44
1.0
  0
INSERT
  5
1EE
100
AcDbEntity
100
AcDbBlockReference
  8
electrical
 62
256
370
-1
  6
BYLAYER
  2
light
 10
-89.0257673942701331
 20
-304.8724420190995943
 30
0.0
  0
MTEXT
  5
1EF
100
AcDbEntity
100
AcDbMText
  8
electrical
 62
256
370
-1
  6
BYLAYER
 10
-86.5946964529333627
 20
-307.6173260572988966
 30
0.0
 40
2.5
 41
0.0
 71
1
 72
1
  1
19
  7
textstyle26
 50
0.0
 73
2
 44
1.0
  0
INSERT
  5
1F0
100
AcDbEntity
100
AcDbBlockReference
  8
electrical
 62
256
370
-1
  6
BYLAYER
  2
switch
 10
-66.7592375951891626
 20
-54.9387616720815686
 30
0.0
  0
MTEXT
  5
1F1
100
AcDbEntity
100
AcDbMText
  8
electrical
 62
256
370
-1
  6
BYLAYER
 10
-71.5915127458749794
 20
-53.7083733893098838
 30
0.0
 40
2.5
 41
0.0
 71
1
 72
1
  1
19
  7
textstyle27
 50
0.0
 73
2
 44
1.0
  0
INSERT
  5
1F2
100
AcDbEntity
100
AcDbBlockReference
  8
electrical
 62
256
370
-1
  6
BYLAYER
  2
switch
 10
-58.7592375951891626
 20
-54.9387616720815686
 30
0.0
  0
MTEXT
  5
1F3
100
AcDbEntity
100
AcDbMText
  8
electrical
 62
256
370
-1
  6
BYLAYER
 10
-63.5915127458749794
 20
-53.7083733893098838
 30
0.0
 40
2.5
 41
0.0
 71
1
 72
1
  1
19
  7
textstyle28
 50
0.0
 73
2
 44
1.0
  0
INSERT
  5
1F4
100
AcDbEntity
100
AcDbBlockReference
  8
electrical
 62
256
370
-1
  6
BYLAYER
  2
switch
 10
-50.7592375951891626
 20
-54.9387616720815686
 30
0.0
  0
MTEXT
  5
1F5
100
AcDbEntity
100
AcDbMText
  8
electrical
 62
256
370
-1
  6
BYLAYER
 10
-55.5915127458749794
 20
-53.7083733893098838
 30
0.0
 40
2.5
 41
0.0
 71
1
 72
1
  1
19
  7
textstyle29
 50
0.0
 73
2
 44
1.0
  0
INSERT
  5
1F6
100
AcDbEntity
100
AcDbBlockReference
  8
electrical
 62
256
370
-1
  6
BYLAYER
  2
switch
 10
-146.2592375951891768
 20
-318.9387616720815686
 30
0.0
  0
MTEXT
  5
1F7
100
AcDbEntity
100
AcDbMText
  8
electrical
 62
256
370
-1
  6
BYLAYER
 10
-151.0915127458749794
 20
-317.7083733893098838
 30
0.0
 40
2.5
 41
0.0
 71
1
 72
1
  1
9
  7
textstyle30
 50
0.0
 73
2
 44
1.0
  0
INSERT
  5
1F8
100
AcDbEntity
100
AcDbBlockReference
  8
electrical
 62
256
370
-1
  6
BYLAYER
  2
light
 10
-140.8909106412004348
 20
-304.8511255115961376
 30
0.0
  0
MTEXT
  5
1F9
100
AcDbEntity
100
AcDbMText
  8
electrical
 62
256
370
-1
  6
BYLAYER
 10
-138.4598396998636645
 20
-307.5960095497954399
 30
0.0
 40
2.5
 41
0.0
 71
1
 72
1
  1
9
  7
textstyle31
 50
0.0
 73
2
 44
1.0
  0
INSERT
  5
1FA
100
AcDbEntity
100
AcDbBlockReference
  8
electrical
 62
256
370
-1
  6
BYLAYER
  2
light
 10
-224.0374999999999091
 20
-396.8511255115961376
 30
0.0
  0
MTEXT
  5
1FB
100
AcDbEntity
100
AcDbMText
  8
electrical
 62
256
370
-1
  6
BYLAYER
 10
-221.606429058663025
 20
-399.5960095497954967
 30
0.0
 40
2.5
 41
0.0
 71
1
 72
1
  1
9
  7
textstyle32
 50
0.0
 73
2
 44
1.0
  0
INSERT
  5
1FC
100
AcDbEntity
100
AcDbBlockReference
  8
electrical
 62
256
370
-1
  6
BYLAYER
  2
switch
 10
-205.4058269539885941
 20
-330.9387616720816254
 30
0.0
  0
MTEXT
  5
1FD
100
AcDbEntity
100
AcDbMText
  8
electrical
 62
256
370
-1
  6
BYLAYER
 10
-210.2381021046745389
 20
-329.7083733893098838
 30
0.0
 40
2.5
 41
0.0
 71
1
 72
1
  1
9
  7
textstyle33
 50
0.0
 73
2
 44
1.0
  0
MTEXT
  5
1FE
100
AcDbEntity
100
AcDbMText
  8
electrical
 62
256
370
-1
  6
BYLAYER
 10
-255.5689290586631159
 20
-297.7320508075688963
 30
0.0
 40
2.5
 41
0.0
 71
1
 72
1
  1
9
  7
textstyle34
 50
0.0
 73
2
 44
1.0
  0
INSERT
  5
1FF
100
AcDbEntity
100
AcDbBlockReference
  8
electrical
 62
256
370
-1
  6
BYLAYER
  2
outlet
 10
-257.5689290586630591
 20
-296.0
 30
0.0
  0
MTEXT
  5
200
100
AcDbEntity
100
AcDbMText
  8
electrical
 62
256
370
-1
  6
BYLAYER
 10
-310.8219645293314102
 20
-341.7320508075689531
 30
0.0
 40
2.5
 41
0.0
 71
1
 72
1
  1
9
  7
textstyle35
 50
0.0
 73
2
 44
1.0
  0
INSERT
  5
201
100
AcDbEntity
100
AcDbBlockReference
  8
electrical
 62
256
370
-1
  6
BYLAYER
  2
outlet
 10
-312.821964529331467
 20
-340.0
 30
0.0
  0
MTEXT
  5
202
100
AcDbEntity
100
AcDbMText
  8
electrical
 62
256
370
-1
  6
BYLAYER
 10
-234.8219645293314102
 20
-417.7320508075689531
 30
0.0
 40
2.5
 41
0.0
 71
1
 72
1
  1
9
  7
textstyle36
 50
0.0
 73
2
 44
1.0
  0
INSERT
  5
203
100
AcDbEntity
100
AcDbBlockReference
  8
electrical
 62
256
370
-1
  6
BYLAYER
  2
outlet
 10
-236.821964529331467
 20
-416.0
 30
0.0
  0
INSERT
  5
204
100
AcDbEntity
100
AcDbBlockReference
  8
electrical
 62
256
370
-1
  6
BYLAYER
  2
switch
 10
-141.4058269539885941
 20
-334.9387616720816254
 30
0.0
  0
MTEXT
  5
205
100
AcDbEntity
100
AcDbMText
  8
electrical
 62
256
370
-1
  6
BYLAYER
 10
-146.2381021046745389
 20
-333.7083733893098838
 30
0.0
 40
2.5
 41
0.0
 71
1
 72
1
  1
9
  7
textstyle37
 50
0.0
 73
2
 44
1.0
  0
INSERT
  5
206
100
AcDbEntity
100
AcDbBlockReference
  8
electrical
 62
256
370
-1
  6
BYLAYER
  2
switch
 10
-149.4058269539885941
 20
-334.9387616720816254
 30
0.0
  0
MTEXT
  5
207
100
AcDbEntity
100
AcDbMText
  8
electrical
 62
256
370
-1
  6
BYLAYER
 10
-154.2381021046745389
 20
-333.7083733893098838
 30
0.0
 40
2.5
 41
0.0
 71
1
 72
1
  1
31\PFan
  7
textstyle38
 50
0.0
 73
2
 44
1.0
  0
MTEXT
  5
208
100
AcDbEntity
100
AcDbMText
  8
electrical
 62
256
370
-1
  6
BYLAYER
 10
-166.8219645293314102
 20
-333.7320508075689531
 30
0.0
 40
2.5
 41
0.0
 71
1
 72
1
  1
31
  7
textstyle39
 50
0.0
 73
2
 44
1.0
  0
INSERT
  5
209
100
AcDbEntity
100
AcDbBlockReference
  8
electrical
 62
256
370
-1
  6
BYLAYER
  2
outlet
 10
-168.821964529331467
 20
-332.0
 30
0.0
  0
MTEXT
  5
20A
100
AcDbEntity
100
AcDbMText
  8
electrical
 62
256
370
-1
  6
BYLAYER
 10
-120.1614991033103763
 20
-363.7611019022703545
 30
0.0
 40
2.5
 41
0.0
 71
1
 72
1
  1
31
  7
textstyle40
 50
0.0
 73
2
 44
1.0
  0
INSERT
  5
20B
100
AcDbEntity
100
AcDbBlockReference
  8
electrical
 62
256
370
-1
  6
BYLAYER
  2
switch
 10
-115.3292239526242895
 20
-364.9914901850420961
 30
0.0
  0
MTEXT
  5
20C
100
AcDbEntity
100
AcDbMText
  8
electrical
 62
256
370
-1
  6
BYLAYER
 10
-120.1614991033103763
 20
-371.7611019022703545
 30
0.0
 40
2.5
 41
0.0
 71
1
 72
1
  1
31
  7
textstyle41
 50
0.0
 73
2
 44
1.0
  0
INSERT
  5
20D
100
AcDbEntity
100
AcDbBlockReference
  8
electrical
 62
256
370
-1
  6
BYLAYER
  2
switch
 10
-115.3292239526242895
 20
-372.9914901850420961
 30
0.0
  0
INSERT
  5
20E
100
AcDbEntity
100
AcDbBlockReference
  8
electrical
 62
256
370
-1
  6
BYLAYER
  2
light
 10
-132.0374999999999091
 20
-376.8511255115961376
 30
0.0
  0
MTEXT
  5
20F
100
AcDbEntity
100
AcDbMText
  8
electrical
 62
256
370
-1
  6
BYLAYER
 10
-129.606429058663025
 20
-379.5960095497954967
 30
0.0
 40
2.5
 41
0.0
 71
1
 72
1
  1
31
  7
textstyle42
 50
0.0
 73
2
 44
1.0
  0
INSERT
  5
210
100
AcDbEntity
100
AcDbBlockReference
  8
electrical
 62
256
370
-1
  6
BYLAYER
  2
light
 10
-132.0374999999999091
 20
-396.8511255115961376
 30
0.0
  0
MTEXT
  5
211
100
AcDbEntity
100
AcDbMText
  8
electrical
 62
256
370
-1
  6
BYLAYER
 10
-129.606429058663025
 20
-399.5960095497954967
 30
0.0
 40
2.5
 41
0.0
 71
1
 72
1
  1
31
  7
textstyle43
 50
0.0
 73
2
 44
1.0
  0
MTEXT
  5
212
100
AcDbEntity
100
AcDbMText
  8
electrical
 62
256
370
-1
  6
BYLAYER
 10
-97.5000000000001421
 20
-193.7320508075688963
 30
0.0
 40
2.5
 41
0.0
 71
1
 72
1
  1
6,8\PCD
  7
textstyle44
 50
0.0
 73
2
 44
1.0
  0
MTEXT
  5
213
100
AcDbEntity
100
AcDbMText
  8
electrical
 62
256
370
-1
  6
BYLAYER
 10
-83.568929058663187
 20
-193.7320508075688963
 30
0.0
 40
2.5
 41
0.0
 71
1
 72
1
  1
3
  7
textstyle45
 50
0.0
 73
2
 44
1.0
  0
INSERT
  5
214
100
AcDbEntity
100
AcDbBlockReference
  8
electrical
 62
256
370
-1
  6
BYLAYER
  2
outlet
 10
-85.5689290586630449
 20
-192.0
 30
0.0
  0
INSERT
  5
215
100
AcDbEntity
100
AcDbBlockReference
  8
electrical
 62
256
370
-1
  6
BYLAYER
  2
light
 10
-64.8909106412004348
 20
-392.8511255115961376
 30
0.0
  0
MTEXT
  5
216
100
AcDbEntity
100
AcDbMText
  8
electrical
 62
256
370
-1
  6
BYLAYER
 10
-62.4598396998636645
 20
-395.5960095497954399
 30
0.0
 40
2.5
 41
0.0
 71
1
 72
1
  1
27
  7
textstyle46
 50
0.0
 73
2
 44
1.0
  0
MTEXT
  5
217
100
AcDbEntity
100
AcDbMText
  8
electrical
 62
256
370
-1
  6
BYLAYER
 10
36.4310709413367633
 20
-417.7320508075688963
 30
0.0
 40
2.5
 41
0.0
 71
1
 72
1
  1
25
  7
textstyle47
 50
0.0
 73
2
 44
1.0
  0
INSERT
  5
218
100
AcDbEntity
100
AcDbBlockReference
  8
electrical
 62
256
370
-1
  6
BYLAYER
  2
outlet
 10
34.4310709413370049
 20
-416.0
 30
0.0
  0
INSERT
  5
219
100
AcDbEntity
100
AcDbBlockReference
  8
electrical
 62
256
370
-1
  6
BYLAYER
  2
switch
 10
-10.3940943482587258
 20
-362.9600781795850253
 30
0.0
  0
MTEXT
  5
21A
100
AcDbEntity
100
AcDbMText
  8
electrical
 62
256
370
-1
  6
BYLAYER
 10
-15.2263694989445248
 20
-361.7296898968133974
 30
0.0
 40
2.5
 41
0.0
 71
1
 72
1
  1
23
  7
textstyle48
 50
0.0
 73
2
 44
1.0
  0
INSERT
  5
21B
100
AcDbEntity
100
AcDbBlockReference
  8
electrical
 62
256
370
-1
  6
BYLAYER
  2
switch
 10
1.6059056517412742
 20
-362.9600781795850253
 30
0.0
  0
MTEXT
  5
21C
100
AcDbEntity
100
AcDbMText
  8
electrical
 62
256
370
-1
  6
BYLAYER
 10
-3.2263694989445248
 20
-361.7296898968133974
 30
0.0
 40
2.5
 41
0.0
 71
1
 72
1
  1
29
  7
textstyle49
 50
0.0
 73
2
 44
1.0
  0
INSERT
  5
21D
100
AcDbEntity
100
AcDbBlockReference
  8
electrical
 62
256
370
-1
  6
BYLAYER
  2
light
 10
55.1090893587995652
 20
-396.8511255115961376
 30
0.0
  0
MTEXT
  5
21E
100
AcDbEntity
100
AcDbMText
  8
electrical
 62
256
370
-1
  6
BYLAYER
 10
57.5401603001363355
 20
-399.5960095497954399
 30
0.0
 40
2.5
 41
0.0
 71
1
 72
1
  1
29
  7
textstyle50
 50
0.0
 73
2
 44
1.0
  0
INSERT
  5
21F
100
AcDbEntity
100
AcDbBlockReference
  8
electrical
 62
256
370
-1
  6
BYLAYER
  2
light
 10
127.1090893587995652
 20
-396.8511255115961376
 30
0.0
  0
MTEXT
  5
220
100
AcDbEntity
100
AcDbMText
  8
electrical
 62
256
370
-1
  6
BYLAYER
 10
129.5401603001363355
 20
-399.5960095497954399
 30
0.0
 40
2.5
 41
0.0
 71
1
 72
1
  1
23
  7
textstyle51
 50
0.0
 73
2
 44
1.0
  0
INSERT
  5
221
100
AcDbEntity
100
AcDbBlockReference
  8
electrical
 62
256
370
-1
  6
BYLAYER
  2
light
 10
-261.0283253751704251
 20
-228.8511255115961376
 30
0.0
  0
MTEXT
  5
222
100
AcDbEntity
100
AcDbMText
  8
electrical
 62
256
370
-1
  6
BYLAYER
 10
-258.5972544338337116
 20
-231.5960095497954399
 30
0.0
 40
2.5
 41
0.0
 71
1
 72
1
  1
13
  7
textstyle52
 50
0.0
 73
2
 44
1.0
  0
MTEXT
  5
223
100
AcDbEntity
100
AcDbMText
  8
electrical
 62
256
370
-1
  6
BYLAYER
 10
-238.8219645293314102
 20
-261.7320508075689531
 30
0.0
 40
2.5
 41
0.0
 71
1
 72
1
  1
?
  7
textstyle53
 50
0.0
 73
2
 44
1.0
  0
INSERT
  5
224
100
AcDbEntity
100
AcDbBlockReference
  8
electrical
 62
256
370
-1
  6
BYLAYER
  2
outlet
 10
-240.821964529331467
 20
-260.0
 30
0.0
  0
MTEXT
  5
225
100
AcDbEntity
100
AcDbMText
  8
electrical
 62
256
370
-1
  6
BYLAYER
 10
-286.8219645293314102
 20
-261.7320508075689531
 30
0.0
 40
2.5
 41
0.0
 71
1
 72
1
  1
?
  7
textstyle54
 50
0.0
 73
2
 44
1.0
  0
INSERT
  5
226
100
AcDbEntity
100
AcDbBlockReference
  8
electrical
 62
256
370
-1
  6
BYLAYER
  2
outlet
 10
-288.821964529331467
 20
-260.0
 30
0.0
  0
MTEXT
  5
227
100
AcDbEntity
100
AcDbMText
  8
electrical
 62
256
370
-1
  6
BYLAYER
 10
-273.1367023310419313
 20
-238.3012469866994252
 30
0.0
 40
25.0
 41
0.0
 71
1
 72
1
  1
?
  7
textstyle55
 50
0.0
 73
2
 44
1.0
  0
MTEXT
  5
228
100
AcDbEntity
100
AcDbMText
  8
electrical
 62
256
370
-1
  6
BYLAYER
 10
-196.8066166439290896
 20
-281.7320508075689531
 30
0.0
 40
2.5
 41
0.0
 71
1
 72
1
  1
?
  7
textstyle56
 50
0.0
 73
2
 44
1.0
  0
INSERT
  5
229
100
AcDbEntity
100
AcDbBlockReference
  8
electrical
 62
256
370
-1
  6
BYLAYER
  2
outlet
 10
-198.8066166439290896
 20
-280.0
 30
0.0
  0
MTEXT
  5
22A
100
AcDbEntity
100
AcDbMText
  8
electrical
 62
256
370
-1
  6
BYLAYER
 10
13.9310709413369693
 20
148.2679491924311321
 30
0.0
 40
2.5
 41
0.0
 71
1
 72
1
  1
13
  7
textstyle57
 50
0.0
 73
2
 44
1.0
  0
INSERT
  5
22B
100
AcDbEntity
100
AcDbBlockReference
  8
electrical
 62
256
370
-1
  6
BYLAYER
  2
outlet
 10
11.9310709413369693
 20
150.0
 30
0.0
  0
MTEXT
  5
22C
100
AcDbEntity
100
AcDbMText
  8
electrical
 62
256
370
-1
  6
BYLAYER
 10
45.9310709413369693
 20
188.2679491924311321
 30
0.0
 40
2.5
 41
0.0
 71
1
 72
1
  1
19
  7
textstyle58
 50
0.0
 73
2
 44
1.0
  0
INSERT
  5
22D
100
AcDbEntity
100
AcDbBlockReference
  8
electrical
 62
256
370
-1
  6
BYLAYER
  2
outlet
 10
43.9310709413369693
 20
190.0
 30
0.0
  0
MTEXT
  5
22E
100
AcDbEntity
100
AcDbMText
  8
electrical
 62
256
370
-1
  6
BYLAYER
 10
177.8246248294679503
 20
188.2679491924311321
 30
0.0
 40
2.5
 41
0.0
 71
1
 72
1
  1
19
  7
textstyle59
 50
0.0
 73
2
 44
1.0
  0
INSERT
  5
22F
100
AcDbEntity
100
AcDbBlockReference
  8
electrical
 62
256
370
-1
  6
BYLAYER
  2
outlet
 10
175.8246248294679503
 20
190.0
 30
0.0
  0
MTEXT
  5
230
100
AcDbEntity
100
AcDbMText
  8
electrical
 62
256
370
-1
  6
BYLAYER
 10
189.8246248294679503
 20
52.2679491924311321
 30
0.0
 40
2.5
 41
0.0
 71
1
 72
1
  1
19
  7
textstyle60
 50
0.0
 73
2
 44
1.0
  0
INSERT
  5
231
100
AcDbEntity
100
AcDbBlockReference
  8
electrical
 62
256
370
-1
  6
BYLAYER
  2
outlet
 10
187.8246248294679503
 20
54.0
 30
0.0
  0
MTEXT
  5
232
100
AcDbEntity
100
AcDbMText
  8
electrical
 62
256
370
-1
  6
BYLAYER
 10
73.8246248294679503
 20
-39.7320508075688679
 30
0.0
 40
2.5
 41
0.0
 71
1
 72
1
  1
19
  7
textstyle61
 50
0.0
 73
2
 44
1.0
  0
INSERT
  5
233
100
AcDbEntity
100
AcDbBlockReference
  8
electrical
 62
256
370
-1
  6
BYLAYER
  2
outlet
 10
71.8246248294679361
 20
-38.0
 30
0.0
  0
MTEXT
  5
234
100
AcDbEntity
100
AcDbMText
  8
electrical
 62
256
370
-1
  6
BYLAYER
 10
-21.3066166439290505
 20
-39.7320508075688821
 30
0.0
 40
2.5
 41
0.0
 71
1
 72
1
  1
13
  7
textstyle62
 50
0.0
 73
2
 44
1.0
  0
INSERT
  5
235
100
AcDbEntity
100
AcDbBlockReference
  8
electrical
 62
256
370
-1
  6
BYLAYER
  2
outlet
 10
-23.3066166439290576
 20
-38.0
 30
0.0
  0
INSERT
  5
236
100
AcDbEntity
100
AcDbBlockReference
  8
electrical
 62
256
370
-1
  6
BYLAYER
  2
light
 10
24.4742326057298669
 20
-30.8724420190995943
 30
0.0
  0
MTEXT
  5
237
100
AcDbEntity
100
AcDbMText
  8
electrical
 62
256
370
-1
  6
BYLAYER
 10
26.9053035470666373
 20
-33.6173260572988966
 30
0.0
 40
2.5
 41
0.0
 71
1
 72
1
  1
13
  7
textstyle63
 50
0.0
 73
2
 44
1.0
  0
INSERT
  5
238
100
AcDbEntity
100
AcDbBlockReference
  8
electrical
 62
256
370
-1
  6
BYLAYER
  2
switch
 10
19.4907624048108516
 20
89.5612383279183888
 30
0.0
  0
MTEXT
  5
239
100
AcDbEntity
100
AcDbMText
  8
electrical
 62
256
370
-1
  6
BYLAYER
 10
14.6584872541249922
 20
90.791626610690102
 30
0.0
 40
2.5
 41
0.0
 71
1
 72
1
  1
13
  7
textstyle64
 50
0.0
 73
2
 44
1.0
  0
INSERT
  5
23A
100
AcDbEntity
100
AcDbBlockReference
  8
electrical
 62
256
370
-1
  6
BYLAYER
  2
switch
 10
-32.7592375951891484
 20
75.0612383279183888
 30
0.0
  0
MTEXT
  5
23B
100
AcDbEntity
100
AcDbMText
  8
electrical
 62
256
370
-1
  6
BYLAYER
 10
-37.5915127458750078
 20
76.291626610690102
 30
0.0
 40
2.5
 41
0.0
 71
1
 72
1
  1
19
  7
textstyle65
 50
0.0
 73
2
 44
1.0
  0
INSERT
  5
23C
100
AcDbEntity
100
AcDbBlockReference
  8
electrical
 62
256
370
-1
  6
BYLAYER
  2
switch
 10
-32.7592375951891484
 20
87.0612383279183888
 30
0.0
  0
MTEXT
  5
23D
100
AcDbEntity
100
AcDbMText
  8
electrical
 62
256
370
-1
  6
BYLAYER
 10
-37.5915127458750078
 20
88.291626610690102
 30
0.0
 40
2.5
 41
0.0
 71
1
 72
1
  1
13\PFan
  7
textstyle66
 50
0.0
 73
2
 44
1.0
  0
INSERT
  5
23E
100
AcDbEntity
100
AcDbBlockReference
  8
electrical
 62
256
370
-1
  6
BYLAYER
  2
switch
 10
-32.7566796142887213
 20
95.0620909882185003
 30
0.0
  0
MTEXT
  5
23F
100
AcDbEntity
100
AcDbMText
  8
electrical
 62
256
370
-1
  6
BYLAYER
 10
-37.5889547649745879
 20
96.2924792709902135
 30
0.0
 40
2.5
 41
0.0
 71
1
 72
1
  1
13
  7
textstyle67
 50
0.0
 73
2
 44
1.0
  0
INSERT
  5
240
100
AcDbEntity
100
AcDbBlockReference
  8
electrical
 62
256
370
-1
  6
BYLAYER
  2
switch
 10
-32.7566796142887213
 20
103.0620909882185003
 30
0.0
  0
MTEXT
  5
241
100
AcDbEntity
100
AcDbMText
  8
electrical
 62
256
370
-1
  6
BYLAYER
 10
-37.5889547649745879
 20
104.2924792709902135
 30
0.0
 40
2.5
 41
0.0
 71
1
 72
1
  1
13
  7
textstyle68
 50
0.0
 73
2
 44
1.0
  0
MTEXT
  5
242
100
AcDbEntity
100
AcDbMText
  8
electrical
 62
256
370
-1
  6
BYLAYER
 10
-41.306616643929047
 20
144.2679491924311037
 30
0.0
 40
2.5
 41
0.0
 71
1
 72
1
  1
13\PFan
  7
textstyle69
 50
0.0
 73
2
 44
1.0
  0
INSERT
  5
243
100
AcDbEntity
100
AcDbBlockReference
  8
electrical
 62
256
370
-1
  6
BYLAYER
  2
outlet
 10
-43.3066166439290612
 20
146.0
 30
0.0
  0
INSERT
  5
244
100
AcDbEntity
100
AcDbBlockReference
  8
electrical
 62
256
370
-1
  6
BYLAYER
  2
light
 10
-18.5221521145974464
 20
145.143758526603051
 30
0.0
  0
MTEXT
  5
245
100
AcDbEntity
100
AcDbMText
  8
electrical
 62
256
370
-1
  6
BYLAYER
 10
-16.0910811732606938
 20
142.3988744884037487
 30
0.0
 40
2.5
 41
0.0
 71
1
 72
1
  1
13
  7
textstyle70
 50
0.0
 73
2
 44
1.0
  0
INSERT
  5
246
100
AcDbEntity
100
AcDbBlockReference
  8
electrical
 62
256
370
-1
  6
BYLAYER
  2
light
 10
108.6116473396999709
 20
113.1497271487040308
 30
0.0
  0
MTEXT
  5
247
100
AcDbEntity
100
AcDbMText
  8
electrical
 62
256
370
-1
  6
BYLAYER
 10
111.042718281036727
 20
110.4048431105047285
 30
0.0
 40
2.5
 41
0.0
 71
1
 72
1
  1
19
  7
textstyle71
 50
0.0
 73
2
 44
1.0
  0
INSERT
  5
248
100
AcDbEntity
100
AcDbBlockReference
  8
electrical
 62
256
370
-1
  6
BYLAYER
  2
switch
 10
131.2407624048108516
 20
39.0612383279183888
 30
0.0
  0
MTEXT
  5
249
100
AcDbEntity
100
AcDbMText
  8
electrical
 62
256
370
-1
  6
BYLAYER
 10
126.4084872541249922
 20
40.291626610690102
 30
0.0
 40
2.5
 41
0.0
 71
1
 72
1
  1
19
  7
textstyle72
 50
0.0
 73
2
 44
1.0
  0
INSERT
  5
24A
100
AcDbEntity
100
AcDbBlockReference
  8
electrical
 62
256
370
-1
  6
BYLAYER
  2
switch
 10
139.2407624048108516
 20
39.0612383279183888
 30
0.0
  0
MTEXT
  5
24B
100
AcDbEntity
100
AcDbMText
  8
electrical
 62
256
370
-1
  6
BYLAYER
 10
134.4084872541249922
 20
40.291626610690102
 30
0.0
 40
2.5
 41
0.0
 71
1
 72
1
  1
19
  7
textstyle73
 50
0.0
 73
2
 44
1.0
  0
INSERT
  5
24C
100
AcDbEntity
100
AcDbBlockReference
  8
electrical
 62
256
370
-1
  6
BYLAYER
  2
switch
 10
167.2407624048108516
 20
-8.9387616720816112
 30
0.0
  0
MTEXT
  5
24D
100
AcDbEntity
100
AcDbMText
  8
electrical
 62
256
370
-1
  6
BYLAYER
 10
162.4084872541249922
 20
-7.708373389309898
 30
0.0
 40
2.5
 41
0.0
 71
1
 72
1
  1
19
  7
textstyle74
 50
0.0
 73
2
 44
1.0
  0
INSERT
  5
24E
100
AcDbEntity
100
AcDbBlockReference
  8
electrical
 62
256
370
-1
  6
BYLAYER
  2
switch
 10
167.2407624048108516
 20
-16.9387616720816112
 30
0.0
  0
MTEXT
  5
24F
100
AcDbEntity
100
AcDbMText
  8
electrical
 62
256
370
-1
  6
BYLAYER
 10
162.4084872541249922
 20
-15.708373389309898
 30
0.0
 40
2.5
 41
0.0
 71
1
 72
1
  1
19
  7
textstyle75
 50
0.0
 73
2
 44
1.0
  0
MTEXT
  5
250
100
AcDbEntity
100
AcDbMText
  8
electrical
 62
256
370
-1
  6
BYLAYER
 10
-157.5915127458750078
 20
48.2916266106899741
 30
0.0
 40
2.5
 41
0.0
 71
1
 72
1
  1
9
  7
textstyle76
 50
0.0
 73
2
 44
1.0
  0
INSERT
  5
251
100
AcDbEntity
100
AcDbBlockReference
  8
electrical
 62
256
370
-1
  6
BYLAYER
  2
switch
 10
-152.7592375951891199
 20
47.0612383279183746
 30
0.0
  0
MTEXT
  5
252
100
AcDbEntity
100
AcDbMText
  8
electrical
 62
256
370
-1
  6
BYLAYER
 10
-165.5915127458750078
 20
48.2916266106899741
 30
0.0
 40
2.5
 41
0.0
 71
1
 72
1
  1
9\PFan
  7
textstyle77
 50
0.0
 73
2
 44
1.0
  0
INSERT
  5
253
100
AcDbEntity
100
AcDbBlockReference
  8
electrical
 62
256
370
-1
  6
BYLAYER
  2
switch
 10
-160.7592375951891199
 20
47.0612383279183746
 30
0.0
  0
MTEXT
  5
254
100
AcDbEntity
100
AcDbMText
  8
electrical
 62
256
370
-1
  6
BYLAYER
 10
-173.5915127458750078
 20
48.2916266106899741
 30
0.0
 40
2.5
 41
0.0
 71
1
 72
1
  1
9
  7
textstyle78
 50
0.0
 73
2
 44
1.0
  0
INSERT
  5
255
100
AcDbEntity
100
AcDbBlockReference
  8
electrical
 62
256
370
-1
  6
BYLAYER
  2
switch
 10
-168.7592375951891199
 20
47.0612383279183746
 30
0.0
  0
MTEXT
  5
256
100
AcDbEntity
100
AcDbMText
  8
electrical
 62
256
370
-1
  6
BYLAYER
 10
-143.2453615279672192
 20
1.8576785525593493
 30
0.0
 40
2.5
 41
0.0
 71
1
 72
1
  1
9\PFan
  7
textstyle79
 50
0.0
 73
2
 44
1.0
  0
INSERT
  5
257
100
AcDbEntity
100
AcDbBlockReference
  8
electrical
 62
256
370
-1
  6
BYLAYER
  2
outlet
 10
-145.2453615279672476
 20
3.5897293601282314
 30
0.0
  0
MTEXT
  5
258
100
AcDbEntity
100
AcDbMText
  8
electrical
 62
256
370
-1
  6
BYLAYER
 10
-167.2453615279672192
 20
-18.1423214474406507
 30
0.0
 40
2.5
 41
0.0
 71
1
 72
1
  1
9
  7
textstyle80
 50
0.0
 73
2
 44
1.0
  0
INSERT
  5
259
100
AcDbEntity
100
AcDbBlockReference
  8
electrical
 62
256
370
-1
  6
BYLAYER
  2
outlet
 10
-169.2453615279672476
 20
-16.4102706398717686
 30
0.0
  0
INSERT
  5
25A
100
AcDbEntity
100
AcDbBlockReference
  8
electrical
 62
256
370
-1
  6
BYLAYER
  2
light
 10
-167.3883526603000291
 20
21.1497271487040308
 30
0.0
  0
MTEXT
  5
25B
100
AcDbEntity
100
AcDbMText
  8
electrical
 62
256
370
-1
  6
BYLAYER
 10
-164.9572817189632588
 20
18.4048431105047285
 30
0.0
 40
2.5
 41
0.0
 71
1
 72
1
  1
9
  7
textstyle81
 50
0.0
 73
2
 44
1.0
  0
INSERT
  5
25C
100
AcDbEntity
100
AcDbBlockReference
  8
electrical
 62
256
370
-1
  6
BYLAYER
  2
light
 10
-59.3883526603000291
 20
169.1497271487040166
 30
0.0
  0
MTEXT
  5
25D
100
AcDbEntity
100
AcDbMText
  8
electrical
 62
256
370
-1
  6
BYLAYER
 10
-56.957281718963273
 20
166.4048431105047143
 30
0.0
 40
2.5
 41
0.0
 71
1
 72
1
  1
13
  7
textstyle82
 50
0.0
 73
2
 44
1.0
  0
INSERT
  5
25E
100
AcDbEntity
100
AcDbBlockReference
  8
electrical
 62
256
370
-1
  6
BYLAYER
  2
light
 10
-123.3883526603000291
 20
141.1497271487040166
 30
0.0
  0
MTEXT
  5
25F
100
AcDbEntity
100
AcDbMText
  8
electrical
 62
256
370
-1
  6
BYLAYER
 10
-120.957281718963273
 20
138.4048431105047143
 30
0.0
 40
2.5
 41
0.0
 71
1
 72
1
  1
13
  7
textstyle83
 50
0.0
 73
2
 44
1.0
  0
INSERT
  5
260
100
AcDbEntity
100
AcDbBlockReference
  8
electrical
 62
256
370
-1
  6
BYLAYER
  2
light
 10
-207.3883526603000291
 20
157.1497271487040166
 30
0.0
  0
MTEXT
  5
261
100
AcDbEntity
100
AcDbMText
  8
electrical
 62
256
370
-1
  6
BYLAYER
 10
-204.9572817189632588
 20
154.4048431105047143
 30
0.0
 40
2.5
 41
0.0
 71
1
 72
1
  1
11
  7
textstyle84
 50
0.0
 73
2
 44
1.0
  0
INSERT
  5
262
100
AcDbEntity
100
AcDbBlockReference
  8
electrical
 62
256
370
-1
  6
BYLAYER
  2
light
 10
-266.5221521145974748
 20
13.1437585266030652
 30
0.0
  0
MTEXT
  5
263
100
AcDbEntity
100
AcDbMText
  8
electrical
 62
256
370
-1
  6
BYLAYER
 10
-264.0910811732607044
 20
10.3988744884037487
 30
0.0
 40
2.5
 41
0.0
 71
1
 72
1
  1
11
  7
textstyle85
 50
0.0
 73
2
 44
1.0
  0
MTEXT
  5
264
100
AcDbEntity
100
AcDbMText
  8
electrical
 62
256
370
-1
  6
BYLAYER
 10
-237.3219645293315239
 20
188.2679491924310753
 30
0.0
 40
2.5
 41
0.0
 71
1
 72
1
  1
11
  7
textstyle86
 50
0.0
 73
2
 44
1.0
  0
INSERT
  5
265
100
AcDbEntity
100
AcDbBlockReference
  8
electrical
 62
256
370
-1
  6
BYLAYER
  2
outlet
 10
-239.3219645293315239
 20
190.0
 30
0.0
  0
MTEXT
  5
266
100
AcDbEntity
100
AcDbMText
  8
electrical
 62
256
370
-1
  6
BYLAYER
 10
-345.3066166439290896
 20
168.2679491924310753
 30
0.0
 40
2.5
 41
0.0
 71
1
 72
1
  1
11
  7
textstyle87
 50
0.0
 73
2
 44
1.0
  0
INSERT
  5
267
100
AcDbEntity
100
AcDbBlockReference
  8
electrical
 62
256
370
-1
  6
BYLAYER
  2
outlet
 10
-347.3066166439290328
 20
170.0
 30
0.0
  0
MTEXT
  5
268
100
AcDbEntity
100
AcDbMText
  8
electrical
 62
256
370
-1
  6
BYLAYER
 10
-273.3066166439290896
 20
88.2679491924310753
 30
0.0
 40
2.5
 41
0.0
 71
1
 72
1
  1
11
  7
textstyle88
 50
0.0
 73
2
 44
1.0
  0
INSERT
  5
269
100
AcDbEntity
100
AcDbBlockReference
  8
electrical
 62
256
370
-1
  6
BYLAYER
  2
outlet
 10
-275.3066166439290328
 20
90.0
 30
0.0
  0
MTEXT
  5
26A
100
AcDbEntity
100
AcDbMText
  8
electrical
 62
256
370
-1
  6
BYLAYER
 10
-257.3066166439290896
 20
68.2679491924310753
 30
0.0
 40
2.5
 41
0.0
 71
1
 72
1
  1
11
  7
textstyle89
 50
0.0
 73
2
 44
1.0
  0
INSERT
  5
26B
100
AcDbEntity
100
AcDbBlockReference
  8
electrical
 62
256
370
-1
  6
BYLAYER
  2
outlet
 10
-259.3066166439290328
 20
70.0
 30
0.0
  0
MTEXT
  5
26C
100
AcDbEntity
100
AcDbMText
  8
electrical
 62
256
370
-1
  6
BYLAYER
 10
-345.3066166439290896
 20
-27.7320508075689247
 30
0.0
 40
2.5
 41
0.0
 71
1
 72
1
  1
11
  7
textstyle90
 50
0.0
 73
2
 44
1.0
  0
INSERT
  5
26D
100
AcDbEntity
100
AcDbBlockReference
  8
electrical
 62
256
370
-1
  6
BYLAYER
  2
outlet
 10
-347.3066166439290328
 20
-26.0
 30
0.0
  0
MTEXT
  5
26E
100
AcDbEntity
100
AcDbMText
  8
electrical
 62
256
370
-1
  6
BYLAYER
 10
-237.3066166439290896
 20
-51.7320508075689247
 30
0.0
 40
2.5
 41
0.0
 71
1
 72
1
  1
11
  7
textstyle91
 50
0.0
 73
2
 44
1.0
  0
INSERT
  5
26F
100
AcDbEntity
100
AcDbBlockReference
  8
electrical
 62
256
370
-1
  6
BYLAYER
  2
outlet
 10
-239.3066166439290612
 20
-50.0
 30
0.0
  0
MTEXT
  5
270
100
AcDbEntity
100
AcDbMText
  8
electrical
 62
256
370
-1
  6
BYLAYER
 10
-220.7381021046744536
 20
68.2916266106901588
 30
0.0
 40
2.5
 41
0.0
 71
1
 72
1
  1
11
  7
textstyle92
 50
0.0
 73
2
 44
1.0
  0
INSERT
  5
271
100
AcDbEntity
100
AcDbBlockReference
  8
electrical
 62
256
370
-1
  6
BYLAYER
  2
switch
 10
-215.9058269539885657
 20
67.0612383279184314
 30
0.0
  0
MTEXT
  5
272
100
AcDbEntity
100
AcDbMText
  8
electrical
 62
256
370
-1
  6
BYLAYER
 10
-220.7227542192720193
 20
88.2865106488894469
 30
0.0
 40
2.5
 41
0.0
 71
1
 72
1
  1
11
  7
textstyle93
 50
0.0
 73
2
 44
1.0
  0
INSERT
  5
273
100
AcDbEntity
100
AcDbBlockReference
  8
electrical
 62
256
370
-1
  6
BYLAYER
  2
switch
 10
-215.8904790685861315
 20
87.0561223661175347
 30
0.0
  0
MTEXT
  5
274
100
AcDbEntity
100
AcDbMText
  8
electrical
 62
256
370
-1
  6
BYLAYER
 10
-10.1753751705320425
 20
116.2679491924311321
 30
0.0
 40
2.5
 41
0.0
 71
1
 72
1
  1
10,12
  7
textstyle94
 50
0.0
 73
2
 44
1.0
  0
INSERT
  5
275
100
AcDbEntity
100
AcDbBlockReference
  8
electrical
 62
256
370
-1
  6
BYLAYER
  2
outlet
 10
-12.1753751705320639
 20
118.0
 30
0.0
  0
MTEXT
  5
276
100
AcDbEntity
100
AcDbMText
  8
electrical
 62
256
370
-1
  6
BYLAYER
 10
-32.5873124147339439
 20
188.2679491924311321
 30
0.0
 40
2.5
 41
0.0
 71
1
 72
1
  1
10,12
  7
textstyle95
 50
0.0
 73
2
 44
1.0
  0
INSERT
  5
277
100
AcDbEntity
100
AcDbBlockReference
  8
electrical
 62
256
370
-1
  6
BYLAYER
  2
outlet
 10
-34.5873124147339794
 20
190.0
 30
0.0
  0
MTEXT
  5
278
100
AcDbEntity
100
AcDbMText
  8
electrical
 62
256
370
-1
  6
BYLAYER
 10
-8.5873124147339475
 20
172.2679491924311321
 30
0.0
 40
2.5
 41
0.0
 71
1
 72
1
  1
14,16
  7
textstyle96
 50
0.0
 73
2
 44
1.0
  0
INSERT
  5
279
100
AcDbEntity
100
AcDbBlockReference
  8
electrical
 62
256
370
-1
  6
BYLAYER
  2
outlet
 10
-10.5873124147339794
 20
174.0
 30
0.0
  0
MTEXT
  5
27A
100
AcDbEntity
100
AcDbMText
  8
electrical
 62
256
370
-1
  6
BYLAYER
 10
-88.5992496589358467
 20
188.2679491924311321
 30
0.0
 40
2.5
 41
0.0
 71
1
 72
1
  1
14,16
  7
textstyle97
 50
0.0
 73
2
 44
1.0
  0
INSERT
  5
27B
100
AcDbEntity
100
AcDbBlockReference
  8
electrical
 62
256
370
-1
  6
BYLAYER
  2
outlet
 10
-90.5992496589358893
 20
190.0
 30
0.0
  0
INSERT
  5
27C
100
AcDbEntity
100
AcDbBlockReference
  8
electrical
 62
256
370
-1
  6
BYLAYER
  2
switch
 10
-40.7566796142887213
 20
187.0620909882185003
 30
0.0
  0
MTEXT
  5
27D
100
AcDbEntity
100
AcDbMText
  8
electrical
 62
256
370
-1
  6
BYLAYER
 10
-45.5889547649745737
 20
188.2924792709902135
 30
0.0
 40
2.5
 41
0.0
 71
1
 72
1
  1
22\PGarb.
  7
textstyle98
 50
0.0
 73
2
 44
1.0
  0
MTEXT
  5
27E
100
AcDbEntity
100
AcDbMText
  8
electrical
 62
256
370
-1
  6
BYLAYER
 10
-56.5873124147339439
 20
180.2679491924311321
 30
0.0
 40
2.5
 41
0.0
 71
1
 72
1
  1
22\PGarb.
  7
textstyle99
 50
0.0
 73
2
 44
1.0
  0
INSERT
  5
27F
100
AcDbEntity
100
AcDbBlockReference
  8
electrical
 62
256
370
-1
  6
BYLAYER
  2
outlet
 10
-58.5873124147339865
 20
182.0
 30
0.0
  0
MTEXT
  5
280
100
AcDbEntity
100
AcDbMText
  8
electrical
 62
256
370
-1
  6
BYLAYER
 10
-121.306616643929047
 20
188.2679491924311037
 30
0.0
 40
2.5
 41
0.0
 71
1
 72
1
  1
15\PFridge /\PDishwasher
  7
textstyle100
 50
0.0
 73
2
 44
1.0
  0
INSERT
  5
281
100
AcDbEntity
100
AcDbBlockReference
  8
electrical
 62
256
370
-1
  6
BYLAYER
  2
outlet
 10
-123.3066166439290612
 20
190.0
 30
0.0
  0
MTEXT
  5
282
100
AcDbEntity
100
AcDbMText
  8
electrical
 62
256
370
-1
  6
BYLAYER
 10
-152.5992496589358325
 20
148.2679491924311321
 30
0.0
 40
2.5
 41
0.0
 71
1
 72
1
  1
17
  7
textstyle101
 50
0.0
 73
2
 44
1.0
  0
INSERT
  5
283
100
AcDbEntity
100
AcDbBlockReference
  8
electrical
 62
256
370
-1
  6
BYLAYER
  2
outlet
 10
-154.5992496589358893
 20
150.0
 30
0.0
  0
INSERT
  5
284
100
AcDbEntity
100
AcDbBlockReference
  8
electrical
 62
256
370
-1
  6
BYLAYER
  2
light
 10
-71.3883526603000291
 20
-34.8502728512959692
 30
0.0
  0
MTEXT
  5
285
100
AcDbEntity
100
AcDbMText
  8
electrical
 62
256
370
-1
  6
BYLAYER
 10
-68.957281718963273
 20
-37.5951568894952715
 30
0.0
 40
2.5
 41
0.0
 71
1
 72
1
  1
19
  7
textstyle102
 50
0.0
 73
2
 44
1.0
  0
INSERT
  5
286
100
AcDbEntity
100
AcDbBlockReference
  8
electrical
 62
256
370
-1
  6
BYLAYER
  2
light
 10
-47.3909106412004348
 20
-66.8511255115961234
 30
0.0
  0
MTEXT
  5
287
100
AcDbEntity
100
AcDbMText
  8
electrical
 62
256
370
-1
  6
BYLAYER
 10
-44.9598396998636929
 20
-69.596009549795383
 30
0.0
 40
2.5
 41
0.0
 71
1
 72
1
  1
19
  7
textstyle103
 50
0.0
 73
2
 44
1.0
  0
INSERT
  5
288
100
AcDbEntity
100
AcDbBlockReference
  8
electrical
 62
256
370
-1
  6
BYLAYER
  2
light
 10
180.6090893587995652
 20
1.1488744884038766
 30
0.0
  0
MTEXT
  5
289
100
AcDbEntity
100
AcDbMText
  8
electrical
 62
256
370
-1
  6
BYLAYER
 10
183.0401603001363071
 20
-1.5960095497953972
 30
0.0
 40
2.5
 41
0.0
 71
1
 72
1
  1
19
  7
textstyle104
 50
0.0
 73
2
 44
1.0
  0
INSERT
  5
28A
100
AcDbEntity
100
AcDbBlockReference
  8
electrical
 62
256
370
-1
  6
BYLAYER
  2
light
 10
-166.5221521145974748
 20
61.1437585266030652
 30
0.0
  0
MTEXT
  5
28B
100
AcDbEntity
100
AcDbMText
  8
electrical
 62
256
370
-1
  6
BYLAYER
 10
-164.0910811732607044
 20
58.3988744884038056
 30
0.0
 40
2.5
 41
0.0
 71
1
 72
1
  1
9
  7
textstyle105
 50
0.0
 73
2
 44
1.0
  0
MTEXT
  5
28C
100
AcDbEntity
100
AcDbMText
  8
electrical
 62
256
370
-1
  6
BYLAYER
 10
-108.2508087427013663
 20
58.3631594884038094
 30
0.0
 40
2.5
 41
0.0
 71
1
 72
1
  1
7
  7
textstyle106
 50
0.0
 73
2
 44
1.0
  0
INSERT
  5
28D
100
AcDbEntity
100
AcDbBlockReference
  8
electrical
 62
256
370
-1
  6
BYLAYER
  2
smoke_detector
 10
-110.6818796840381367
 20
61.108043526603069
 30
0.0
  0
MTEXT
  5
28E
100
AcDbEntity
100
AcDbMText
  8
electrical
 62
256
370
-1
  6
BYLAYER
 10
-185.9366084834927051
 20
-307.6803256412006249
 30
0.0
 40
2.5
 41
0.0
 71
1
 72
1
  1
7
  7
textstyle107
 50
0.0
 73
2
 44
1.0
  0
INSERT
  5
28F
100
AcDbEntity
100
AcDbBlockReference
  8
electrical
 62
256
370
-1
  6
BYLAYER
  2
smoke_detector
 10
-188.3676794248294755
 20
-304.9354416030013795
 30
0.0
  0
INSERT
  5
290
100
AcDbEntity
100
AcDbBlockReference
  8
electrical
 62
256
370
-1
  6
BYLAYER
  2
outlet_220
 10
-4.9999999999999964
 20
150.5
 30
0.0
  0
MTEXT
  5
291
100
AcDbEntity
100
AcDbMText
  8
electrical
 62
256
370
-1
  6
BYLAYER
 10
-2.9999999999999964
 20
148.7679491924311321
 30
0.0
 40
2.5
 41
0.0
 71
1
 72
1
  1
2,4\PR
  7
textstyle108
 50
0.0
 73
2
 44
1.0
  0
INSERT
  5
292
100
AcDbEntity
100
AcDbBlockReference
  8
electrical
 62
256
370
-1
  6
BYLAYER
  2
outlet_220
 10
-99.5
 20
-192.0
 30
0.0
  0
LINE
  5
293
100
AcDbEntity
100
AcDbLine
  8
tile_area
 62
256
370
-1
  6
BYLAYER
 10
-33.0
 20
-93.5
 30
0.0
 11
-110.0
 21
-93.5
 31
0.0
  0
LINE
  5
294
100
AcDbEntity
100
AcDbLine
  8
tile_area
 62
256
370
-1
  6
BYLAYER
 10
-110.0
 20
-93.5
 30
0.0
 11
-110.0
 21
-60.0
 31
0.0
  0
LINE
  5
295
100
AcDbEntity
100
AcDbLine
  8
tile_area
 62
256
370
-1
  6
BYLAYER
 10
-110.0
 20
-60.0
 30
0.0
 11
-33.0
 21
-60.0
 31
0.0
  0
LINE
  5
296
100
AcDbEntity
100
AcDbLine
  8
tile_area
 62
256
370
-1
  6
BYLAYER
 10
-33.0
 20
-60.0
 30
0.0
 11
-33.0
 21
-93.5
 31
0.0
  0
HATCH
  5
297
  8
tile_area
 62
256
370
-1
  6
BYLAYER
100
AcDbEntity
100
AcDbHatch
 10
0.0
 20
0.0
 30
0.0
210
0.0
220
0.0
230
1.0
  2
SQUARE
 70
0
 71
0
 91
1
 92
1
 93
4
 72
1
 10
-33.0
 20
-93.5
 11
-110.0
 21
-93.5
 72
1
 10
-110.0
 20
-93.5
 11
-110.0
 21
-60.0
 72
1
 10
-110.0
 20
-60.0
 11
-33.0
 21
-60.0
 72
1
 10
-33.0
 20
-60.0
 11
-33.0
 21
-93.5
 97
0
 75
0
 76
1
 52
0.0
 41
10.0
 77
0
 78
1
 53
45.0
 43
0.0
 44
0.0
 45
-0.0883883476483184
 46
0.0883883476483185
 79
0
 98
0
1001
ACAD
1010
0.0
1020
0.0
1030
0
  0
LINE
  5
298
100
AcDbEntity
100
AcDbLine
  8
0
 62
256
370
-1
  6
BYLAYER
 10
85.0
 20
11.5
 30
0.0
 11
85.0
 21
31.5
 31
0.0
  0
LINE
  5
299
100
AcDbEntity
100
AcDbLine
  8
0
 62
256
370
-1
  6
BYLAYER
 10
119.5
 20
11.5
 30
0.0
 11
119.5
 21
36.5
 31
0.0
  0
HATCH
  5
29A
  8
tile_area
 62
256
370
-1
  6
BYLAYER
100
AcDbEntity
100
AcDbHatch
 10
0.0
 20
0.0
 30
0.0
210
0.0
220
0.0
230
1.0
  2
SQUARE
 70
0
 71
0
 91
1
 92
1
 93
9
 72
1
 10
166.5
 20
-4.0
 11
166.5
 21
-93.5
 72
1
 10
166.5
 20
-93.5
 11
83.5
 21
-93.5
 72
1
 10
83.5
 20
-93.5
 11
83.5
 21
-54.0
 72
1
 10
83.5
 20
-54.0
 11
83.5
 21
-25.0
 72
1
 10
83.5
 20
-25.0
 11
118.0
 21
-25.0
 72
1
 10
118.0
 20
-25.0
 11
118.0
 21
-31.0
 72
1
 10
118.0
 20
-31.0
 11
122.5
 21
-31.0
 72
1
 10
122.5
 20
-31.0
 11
122.5
 21
-4.0
 72
1
 10
122.5
 20
-4.0
 11
166.5
 21
-4.0
 97
0
 75
0
 76
1
 52
0.0
 41
10.0
 77
0
 78
1
 53
45.0
 43
0.0
 44
0.0
 45
-0.0883883476483184
 46
0.0883883476483185
 79
0
 98
0
1001
ACAD
1010
0.0
1020
0.0
1030
0
  0
LWPOLYLINE
  5
29B
  8
tile_area
 62
256
370
-1
  6
BYLAYER
100
AcDbEntity
100
AcDbPolyline
 90
6
 70
1
 10
-109.5
 20
-93.5
 30
0.0
 10
-33.0
 20
-93.5
 30
0.0
 10
-33.0
 20
-60.0
 30
0.0
 10
-110.0
 20
-60.0
 30
0.0
 10
-109.5
 20
-60.0
 30
0.0
 10
-109.5
 20
-60.0
 30
0.0
  0
MTEXT
  5
29C
100
AcDbEntity
100
AcDbMText
  8
tile_area
 62
256
370
-1
  6
BYLAYER
 10
-109.0
 20
-58.7999999999999972
 30
0.0
 40
1.0
 41
0.0
 71
1
 72
1
  1
2562.75
  7
textstyle109
 50
0.0
 73
2
 44
1.0
  0
LWPOLYLINE
  5
29D
  8
tile_area
 62
256
370
-1
  6
BYLAYER
100
AcDbEntity
100
AcDbPolyline
 90
8
 70
1
 10
83.5
 20
-93.5
 30
0.0
 10
166.5
 20
-93.5
 30
0.0
 10
166.5
 20
-4.0
 30
0.0
 10
122.5
 20
-4.0
 30
0.0
 10
122.5
 20
-31.0
 30
0.0
 10
118.0
 20
-31.0
 30
0.0
 10
118.0
 20
-25.0
 30
0.0
 10
83.5
 20
-25.0
 30
0.0
  0
MTEXT
  5
29E
100
AcDbEntity
100
AcDbMText
  8
tile_area
 62
256
370
-1
  6
BYLAYER
 10
84.0
 20
-23.8000000000000007
 30
0.0
 40
1.0
 41
0.0
 71
1
 72
1
  1
6582.5
  7
textstyle110
 50
0.0
 73
2
 44
1.0
  0
LWPOLYLINE
  5
29F
  8
baseboard
 62
256
370
-1
  6
BYLAYER
100
AcDbEntity
100
AcDbPolyline
 90
8
 70
0
 10
-351.0
 20
194.0
 30
0.0
 10
-162.5
 20
194.0
 30
0.0
 10
-162.5
 20
124.5
 30
0.0
 10
-189.5
 20
124.5
 30
0.0
 10
-189.5
 20
111.5
 30
0.0
 10
-162.5
 20
111.5
 30
0.0
 10
-162.5
 20
75.0
 30
0.0
 10
-77.0
 20
75.0
 30
0.0
  0
LWPOLYLINE
  5
2A0
  8
baseboard
 62
256
370
-1
  6
BYLAYER
100
AcDbEntity
100
AcDbPolyline
 90
11
 70
0
 10
-31.5000000000000071
 20
75.0
 30
0.0
 10
-27.0000000000000071
 20
75.0
 30
0.0
 10
-27.0000000000000071
 20
107.0
 30
0.0
 10
1.4999999999999929
 20
107.0
 30
0.0
 10
1.4999999999999929
 20
75.0
 30
0.0
 10
5.9999999999999938
 20
75.0
 30
0.0
 10
6.0000000000000009
 20
194.0
 30
0.0
 10
196.0
 20
194.0
 30
0.0
 10
196.0
 20
36.5
 30
0.0
 10
119.5
 20
36.5
 30
0.0
 10
119.5
 20
11.5
 30
0.0
  0
LWPOLYLINE
  5
2A1
  8
baseboard
 62
256
370
-1
  6
BYLAYER
100
AcDbEntity
100
AcDbPolyline
 90
6
 70
0
 10
85.0
 20
-17.5
 30
0.0
 10
80.5
 20
-17.5
 30
0.0
 10
80.5
 20
-57.0
 30
0.0
 10
-27.0
 20
-57.0
 30
0.0
 10
-26.9999999999999964
 20
-17.5
 30
0.0
 10
-31.5
 20
-17.5
 30
0.0
  0
LWPOLYLINE
  5
2A2
  8
baseboard
 62
256
370
-1
  6
BYLAYER
100
AcDbEntity
100
AcDbPolyline
 90
3
 70
0
 10
-67.5
 20
36.0
 30
0.0
 10
-67.5
 20
40.5
 30
0.0
 10
-112.5
 20
40.5
 30
0.0
  0
LWPOLYLINE
  5
2A3
  8
baseboard
 62
256
370
-1
  6
BYLAYER
100
AcDbEntity
100
AcDbPolyline
 90
15
 70
0
 10
-145.0
 20
40.5
 30
0.0
 10
-205.5
 20
40.5
 30
0.0
 10
-205.5
 20
36.0
 30
0.0
 10
-178.5
 20
36.0
 30
0.0
 10
-178.5
 20
-57.0
 30
0.0
 10
-351.0
 20
-57.0
 30
0.0
 10
-351.0
 20
76.5
 30
0.0
 10
-205.5
 20
76.5
 30
0.0
 10
-205.5
 20
74.5
 30
0.0
 10
-201.0
 20
74.5
 30
0.0
 10
-201.0
 20
76.5
 30
0.0
 10
-199.0
 20
76.5
 30
0.0
 10
-199.0
 20
81.0
 30
0.0
 10
-351.0
 20
81.0
 30
0.0
 10
-351.0
 20
194.0
 30
0.0
  0
DIMENSION
  5
2A4
100
AcDbEntity
  8
dimensions
 62
256
370
-1
  6
BYLAYER
100
AcDbDimension
 10
-351.0
 20
96.5
 30
0.0
 11
-275.0
 21
100.25
 31
0.0
 70
1
 71
8
 72
2
 41
1.0
 42
0.0
  1

  3
Standard
100
AcDbAlignedDimension
 13
-351.0
 23
81.0
 33
0.0
 14
-199.0
 24
81.0
 34
0.0
1001
ACAD
1000
DSTYLE
1002
{
1070
144
1040
1
1002
}
  0
DIMENSION
  5
2A5
100
AcDbEntity
  8
dimensions
 62
256
370
-1
  6
BYLAYER
100
AcDbDimension
 10
-77.0
 20
60.5
 30
0.0
 11
-119.75
 21
64.25
 31
0.0
 70
1
 71
8
 72
2
 41
1.0
 42
0.0
  1

  3
Standard
100
AcDbAlignedDimension
 13
-77.0
 23
75.0
 33
0.0
 14
-162.5
 24
75.0
 34
0.0
1001
ACAD
1000
DSTYLE
1002
{
1070
144
1040
1
1002
}
  0
DIMENSION
  5
2A6
100
AcDbEntity
  8
dimensions
 62
256
370
-1
  6
BYLAYER
100
AcDbDimension
 10
-158.0
 20
216.5
 30
0.0
 11
-78.25
 21
220.25
 31
0.0
 70
1
 71
8
 72
2
 41
1.0
 42
0.0
  1

  3
Standard
100
AcDbAlignedDimension
 13
-158.0
 23
194.0
 33
0.0
 14
1.499999999999998
 24
194.0
 34
0.0
1001
ACAD
1000
DSTYLE
1002
{
1070
144
1040
1
1002
}
  0
DIMENSION
  5
2A7
100
AcDbEntity
  8
dimensions
 62
256
370
-1
  6
BYLAYER
100
AcDbDimension
 10
-142.5
 20
194.0
 30
0.0
 11
-146.25
 21
136.75
 31
0.0
 70
1
 71
8
 72
2
 41
1.0
 42
0.0
  1

  3
Standard
100
AcDbAlignedDimension
 13
-158.0
 23
194.0
 33
0.0
 14
-158.0
 24
79.5
 34
0.0
1001
ACAD
1000
DSTYLE
1002
{
1070
144
1040
1
1002
}
  0
DIMENSION
  5
2A8
100
AcDbEntity
  8
dimensions
 62
256
370
-1
  6
BYLAYER
100
AcDbDimension
 10
-10.5000000000000053
 20
111.5
 30
0.0
 11
-14.2500000000000036
 21
152.75
 31
0.0
 70
1
 71
8
 72
2
 41
1.0
 42
0.0
  1

  3
Standard
100
AcDbAlignedDimension
 13
1.4999999999999929
 23
111.5
 33
0.0
 14
1.499999999999998
 24
194.0
 34
0.0
1001
ACAD
1000
DSTYLE
1002
{
1070
144
1040
1
1002
}
  0
DIMENSION
  5
2A9
100
AcDbEntity
  8
dimensions
 62
256
370
-1
  6
BYLAYER
100
AcDbDimension
 10
-38.5
 20
111.5
 30
0.0
 11
-42.25
 21
93.25
 31
0.0
 70
1
 71
8
 72
2
 41
1.0
 42
0.0
  1

  3
Standard
100
AcDbAlignedDimension
 13
-31.5000000000000071
 23
111.5
 33
0.0
 14
-31.5000000000000071
 24
75.0
 34
0.0
1001
ACAD
1000
DSTYLE
1002
{
1070
144
1040
1
1002
}
  0
DIMENSION
  5
2AA
100
AcDbEntity
  8
dimensions
 62
256
370
-1
  6
BYLAYER
100
AcDbDimension
 10
-31.5000000000000036
 20
124.5
 30
0.0
 11
-54.25
 21
128.25
 31
0.0
 70
1
 71
8
 72
2
 41
1.0
 42
0.0
  1

  3
Standard
100
AcDbAlignedDimension
 13
-31.5000000000000071
 23
75.0
 33
0.0
 14
-77.0
 24
75.0
 34
0.0
1001
ACAD
1000
DSTYLE
1002
{
1070
144
1040
1
1002
}
  0
MTEXT
  5
2AB
100
AcDbEntity
100
AcDbMText
  8
electrical
 62
256
370
-1
  6
BYLAYER
 10
-365.3066166439291464
 20
-19.7320508075688963
 30
0.0
 40
2.5
 41
0.0
 71
1
 72
1
  1
5
  7
textstyle111
 50
0.0
 73
2
 44
1.0
  0
INSERT
  5
2AC
100
AcDbEntity
100
AcDbBlockReference
  8
electrical
 62
256
370
-1
  6
BYLAYER
  2
outlet
 10
-367.3066166439290328
 20
-18.0
 30
0.0
  0
MTEXT
  5
2AD
100
AcDbEntity
100
AcDbMText
  8
electrical
 62
256
370
-1
  6
BYLAYER
 10
178.6712141882672995
 20
-15.7320508075685552
 30
0.0
 40
2.5
 41
0.0
 71
1
 72
1
  1
5
  7
textstyle112
 50
0.0
 73
2
 44
1.0
  0
INSERT
  5
2AE
100
AcDbEntity
100
AcDbBlockReference
  8
electrical
 62
256
370
-1
  6
BYLAYER
  2
outlet
 10
176.6712141882674132
 20
-14.0
 30
0.0
  0
MTEXT
  5
2AF
100
AcDbEntity
100
AcDbMText
  8
electrical
 62
256
370
-1
  6
BYLAYER
 10
214.3693377446537625
 20
-46.6838963919253729
 30
0.0
 40
10.0
 41
0.0
 71
1
 72
1
  3
1 Utility Room (Furnace)\P2/4 Kitchen (Stove)\P3 Utility Room (Washing Machine)\P5 Outside (Plugs)\P6/8 Utility Room (Dryer)\P7 Hallway 1 & 2 (Smoke Detector)\P9 Bedroom 3 (Lights, Plugs), Hallway 1 & 2 (Light), \P    Bathroom 1 (Light + Fan + Plug),
  3
Bathroom 2 (Vanity Light)\P10/12 Kitchen (Plugs)\P11 Bedroom 1 & 2 (Lights, Plugs)\P13 Kitchen (Lights, Range Hood, Fan), Dining Room (Light + Plug), \P    Living Room (Plug), Utility Room (Lights), Wood shop (Light)\P14/16 Kitchen (Plugs)\P15 Kitche
  3
n (Fridge + Dishwasher)\P17\P18/20 Garage\P19 Living Room (Light + Plugs), Front Entrance (Lights In + Out), \P    Side Entrance (Lights In + Out)\P21 Rec Room (Plugs)\P22 Kitchen (Garburator)\P23 Nook (Light)\P25 Rec Room (Plugs)\P27 Rec Room (Light
  1
), Server Room (Light + Plug)\P29 Rec Room (Light)\P31 Bathroom 2 (Lights + Fan + Outlet)\P
  7
textstyle113
 50
0.0
 73
2
 44
1.0
  0
INSERT
  5
2B0
100
AcDbEntity
100
AcDbBlockReference
  8
electrical
 62
256
370
-1
  6
BYLAYER
  2
light
 10
-164.7618196415638465
 20
-348.8503440342642534
 30
0.0
  0
MTEXT
  5
2B1
100
AcDbEntity
100
AcDbMText
  8
electrical
 62
256
370
-1
  6
BYLAYER
 10
-162.330748700227133
 20
-351.5952280724635557
 30
0.0
 40
2.5
 41
0.0
 71
1
 72
1
  1
9
  7
textstyle114
 50
0.0
 73
2
 44
1.0
  0
MTEXT
  5
2B2
100
AcDbEntity
100
AcDbMText
  8
room_names
 62
256
370
-1
  6
BYLAYER
 10
73.5
 20
180.5
 30
0.0
 40
6.0
 41
0.0
 71
1
 72
1
  1
Living Room
  7
textstyle115
 50
0.0
 73
2
 44
1.0
  0
MTEXT
  5
2B3
100
AcDbEntity
100
AcDbMText
  8
room_names
 62
256
370
-1
  6
BYLAYER
 10
-130.5
 20
120.5
 30
0.0
 40
6.0
 41
0.0
 71
1
 72
1
  1
Kitchen
  7
textstyle116
 50
0.0
 73
2
 44
1.0
  0
MTEXT
  5
2B4
100
AcDbEntity
100
AcDbMText
  8
room_names
 62
256
370
-1
  6
BYLAYER
 10
1.5
 20
-11.5
 30
0.0
 40
6.0
 41
0.0
 71
1
 72
1
  1
Dining Room
  7
textstyle117
 50
0.0
 73
2
 44
1.0
  0
MTEXT
  5
2B5
100
AcDbEntity
100
AcDbMText
  8
room_names
 62
256
370
-1
  6
BYLAYER
 10
-160.1795105702622664
 20
-25.582648152802733
 30
0.0
 40
6.0
 41
0.0
 71
1
 72
1
  1
Bathroom 1
  7
textstyle118
 50
0.0
 73
2
 44
1.0
  0
MTEXT
  5
2B6
100
AcDbEntity
100
AcDbMText
  8
room_names
 62
256
370
-1
  6
BYLAYER
 10
-310.5
 20
-35.5
 30
0.0
 40
6.0
 41
0.0
 71
1
 72
1
  1
Bedroom 1
  7
textstyle119
 50
0.0
 73
2
 44
1.0
  0
MTEXT
  5
2B7
100
AcDbEntity
100
AcDbMText
  8
room_names
 62
256
370
-1
  6
BYLAYER
 10
-310.5
 20
180.5
 30
0.0
 40
6.0
 41
0.0
 71
1
 72
1
  1
Bedroom 2
  7
textstyle120
 50
0.0
 73
2
 44
1.0
  0
MTEXT
  5
2B8
100
AcDbEntity
100
AcDbMText
  8
room_names
 62
256
370
-1
  6
BYLAYER
 10
101.2215075454799376
 20
-39.6144283411183551
 30
0.0
 40
6.0
 41
0.0
 71
1
 72
1
  1
Front Entrance
  7
textstyle121
 50
0.0
 73
2
 44
1.0
  0
MTEXT
  5
2B9
100
AcDbEntity
100
AcDbMText
  8
room_names
 62
256
370
-1
  6
BYLAYER
 10
-96.5
 20
-41.5
 30
0.0
 40
6.0
 41
0.0
 71
1
 72
1
  1
Side Entrance
  7
textstyle122
 50
0.0
 73
2
 44
1.0
  0
MTEXT
  5
2BA
100
AcDbEntity
100
AcDbMText
  8
room_names
 62
256
370
-1
  6
BYLAYER
 10
68.0
 20
-201.5
 30
0.0
 40
6.0
 41
0.0
 71
1
 72
1
  1
Rec Room
  7
textstyle123
 50
0.0
 73
2
 44
1.0
  0
MTEXT
  5
2BB
100
AcDbEntity
100
AcDbMText
  8
room_names
 62
256
370
-1
  6
BYLAYER
 10
-52.0
 20
-405.5
 30
0.0
 40
6.0
 41
0.0
 71
1
 72
1
  1
Server Room
  7
textstyle0
 50
0.0
 73
2
 44
1.0
  0
MTEXT
  5
2BC
100
AcDbEntity
100
AcDbMText
  8
room_names
 62
256
370
-1
  6
BYLAYER
 10
124.0
 20
-373.5
 30
0.0
 40
6.0
 41
0.0
 71
1
 72
1
  1
Nook
  7
textstyle1
 50
0.0
 73
2
 44
1.0
  0
MTEXT
  5
2BD
100
AcDbEntity
100
AcDbMText
  8
room_names
 62
256
370
-1
  6
BYLAYER
 10
-169.7835166545554841
 20
-384.3478661448960452
 30
0.0
 40
6.0
 41
0.0
 71
1
 72
1
  1
Bathroom 2
  7
textstyle2
 50
0.0
 73
2
 44
1.0
  0
MTEXT
  5
2BE
100
AcDbEntity
100
AcDbMText
  8
room_names
 62
256
370
-1
  6
BYLAYER
 10
-297.6257335163426774
 20
-404.6232151403511352
 30
0.0
 40
6.0
 41
0.0
 71
1
 72
1
  1
Bedroom 3
  7
textstyle3
 50
0.0
 73
2
 44
1.0
  0
MTEXT
  5
2BF
100
AcDbEntity
100
AcDbMText
  8
room_names
 62
256
370
-1
  6
BYLAYER
 10
-65.4948470012828352
 20
-195.8578007909209475
 30
0.0
 40
6.0
 41
0.0
 71
1
 72
1
  1
Utility Room
  7
textstyle4
 50
0.0
 73
2
 44
1.0
  0
MTEXT
  5
2C0
100
AcDbEntity
100
AcDbMText
  8
room_names
 62
256
370
-1
  6
BYLAYER
 10
-304.0
 20
-201.5
 30
0.0
 40
6.0
 41
0.0
 71
1
 72
1
  1
Wood Shop
  7
textstyle5
 50
0.0
 73
2
 44
1.0
  0
MTEXT
  5
2C1
100
AcDbEntity
100
AcDbMText
  8
room_names
 62
256
370
-1
  6
BYLAYER
 10
-154.5
 20
60.5
 30
0.0
 40
6.0
 41
0.0
 71
1
 72
1
  1
Hallway 1
  7
textstyle6
 50
0.0
 73
2
 44
1.0
  0
MTEXT
  5
2C2
100
AcDbEntity
100
AcDbMText
  8
room_names
 62
256
370
-1
  6
BYLAYER
 10
-180.0
 20
-305.5
 30
0.0
 40
6.0
 41
0.0
 71
1
 72
1
  1
Hallway 2
  7
textstyle7
 50
0.0
 73
2
 44
1.0
  0
MTEXT
  5
2C3
100
AcDbEntity
100
AcDbMText
  8
0
 62
256
370
-1
  6
BYLAYER
 10
-120.0
 20
240.0
 30
0.0
 40
12.0
 41
0.0
 71
1
 72
1
  1
Upstairs
  7
textstyle8
 50
0.0
 73
2
 44
1.0
  0
MTEXT
  5
2C4
100
AcDbEntity
100
AcDbMText
  8
0
 62
256
370
-1
  6
BYLAYER
 10
-120.0
 20
-144.0
 30
0.0
 40
12.0
 41
0.0
 71
1
 72
1
  1
Downstairs
  7
textstyle9
 50
0.0
 73
2
 44
1.0
  0
DIMENSION
  5
2C5
100
AcDbEntity
  8
dimensions
 62
256
370
-1
  6
BYLAYER
100
AcDbDimension
 10
85.0
 20
-83.0
 30
0.0
 11
126.5
 21
-79.25
 31
0.0
 70
1
 71
8
 72
2
 41
1.0
 42
0.0
  1

  3
Standard
100
AcDbAlignedDimension
 13
85.0
 23
-57.0
 33
0.0
 14
168.0
 24
-57.0
 34
0.0
1001
ACAD
1000
DSTYLE
1002
{
1070
144
1040
1
1002
}
  0
DIMENSION
  5
2C6
100
AcDbEntity
  8
dimensions
 62
256
370
-1
  6
BYLAYER
100
AcDbDimension
 10
192.0
 20
-57.0
 30
0.0
 11
188.25
 21
-12.25
 31
0.0
 70
1
 71
8
 72
2
 41
1.0
 42
0.0
  1

  3
Standard
100
AcDbAlignedDimension
 13
168.0
 23
-57.0
 33
0.0
 14
168.0
 24
32.5
 34
0.0
1001
ACAD
1000
DSTYLE
1002
{
1070
144
1040
1
1002
}
  0
ENDSEC
  0
SECTION
  2
OBJECTS
  0
DICTIONARY
  5
C
100
AcDbDictionary
280
0
281
1
  3
ACAD_GROUP
350
D
  3
ACAD_LAYOUT
350
1A
  3
ACAD_MLINESTYLE
350
17
  3
ACAD_PLOTSETTINGS
350
19
  3
ACAD_PLOTSTYLENAME
350
E
  3
AcDbVariableDictionary
350
2C7
  3
QCAD_OBJECTS
350
2C8
  0
DICTIONARY
  5
D
100
AcDbDictionary
280
0
281
1
  0
ACDBDICTIONARYWDFLT
  5
E
100
AcDbDictionary
281
1
  3
Normal
350
F
100
AcDbDictionaryWithDefault
340
F
  0
ACDBPLACEHOLDER
  5
F
  0
DICTIONARY
  5
17
100
AcDbDictionary
280
0
281
1
  3
Standard
350
18
  0
MLINESTYLE
  5
18
100
AcDbMlineStyle
  2
STANDARD
 70
0
  3

 62
256
 51
90.0
 52
90.0
 71
2
 49
0.5
 62
256
  6
BYLAYER
 49
-0.5
 62
256
  6
BYLAYER
  0
DICTIONARY
  5
19
100
AcDbDictionary
280
0
281
1
  0
DICTIONARY
  5
1A
100
AcDbDictionary
281
1
  3
Layout1
350
1E
  3
Layout2
350
26
  3
Model
350
22
  0
LAYOUT
  5
1E
100
AcDbPlotSettings
  1

  2
none_device
  4

  6

 40
0.0
 41
0.0
 42
0.0
 43
0.0
 44
0.0
 45
0.0
 46
0.0
 47
0.0
 48
0.0
 49
0.0
140
0.0
141
0.0
142
1.0
143
1.0
 70
688
 72
0
 73
0
 74
5
  7

 75
16
147
1.0
148
0.0
149
0.0
100
AcDbLayout
  1
Layout1
 70
1
 71
1
 10
0.0
 20
0.0
 11
420.0
 21
297.0
 12
0.0
 22
0.0
 32
0.0
 14
100000000000000000000.0
 24
100000000000000000000.0
 34
100000000000000000000.0
 15
-100000000000000000000.0
 25
-100000000000000000000.0
 35
-100000000000000000000.0
146
0.0
 13
0.0
 23
0.0
 33
0.0
 16
1.0
 26
0.0
 36
0.0
 17
0.0
 27
1.0
 37
0.0
 76
0
330
1B
  0
LAYOUT
  5
22
100
AcDbPlotSettings
  1

  2
none_device
  4

  6

 40
0.0
 41
0.0
 42
0.0
 43
0.0
 44
0.0
 45
0.0
 46
0.0
 47
0.0
 48
0.0
 49
0.0
140
0.0
141
0.0
142
1.0
143
1.0
 70
1712
 72
0
 73
0
 74
0
  7

 75
0
147
1.0
148
0.0
149
0.0
100
AcDbLayout
  1
Model
 70
1
 71
0
 10
0.0
 20
0.0
 11
12.0
 21
9.0
 12
0.0
 22
0.0
 32
0.0
 14
0.0
 24
0.0
 34
0.0
 15
0.0
 25
0.0
 35
0.0
146
0.0
 13
0.0
 23
0.0
 33
0.0
 16
1.0
 26
0.0
 36
0.0
 17
0.0
 27
1.0
 37
0.0
 76
0
330
1F
  0
LAYOUT
  5
26
100
AcDbPlotSettings
  1

  2
none_device
  4

  6

 40
0.0
 41
0.0
 42
0.0
 43
0.0
 44
0.0
 45
0.0
 46
0.0
 47
0.0
 48
0.0
 49
0.0
140
0.0
141
0.0
142
1.0
143
1.0
 70
688
 72
0
 73
0
 74
5
  7

 75
16
147
1.0
148
0.0
149
0.0
100
AcDbLayout
  1
Layout2
 70
1
 71
2
 10
0.0
 20
0.0
 11
12.0
 21
9.0
 12
0.0
 22
0.0
 32
0.0
 14
0.0
 24
0.0
 34
0.0
 15
0.0
 25
0.0
 35
0.0
146
0.0
 13
0.0
 23
0.0
 33
0.0
 16
1.0
 26
0.0
 36
0.0
 17
0.0
 27
1.0
 37
0.0
 76
0
330
23
  0
DICTIONARY
  5
2C7
100
AcDbDictionary
281
1
  3
DIMASSOC
350
2CA
  3
HIDETEXT
350
2C9
  0
DICTIONARYVAR
  5
2C9
100
DictionaryVariables
280
0
  1
2
  0
DICTIONARYVAR
  5
2CA
100
DictionaryVariables
280
0
  1
1
  0
DICTIONARY
  5
2C8
100
AcDbDictionary
281
1
  3
DimensionSettings/AngularFormat
350
2CB
  3
DimensionSettings/AngularPrecision
350
2CC
  3
DimensionSettings/KeepProportions
350
2CD
  3
DimensionSettings/LinearFormat
350
2CE
  3
DimensionSettings/LinearPrecision
350
2CF
  3
Grid/DisplayGrid00
350
2D0
  3
Grid/DisplayGrid01
350
2D1
  3
Grid/DisplayGrid02
350
2D2
  3
Grid/DisplayGrid03
350
2D3
  3
Grid/GridSpacingX00
350
2D4
  3
Grid/GridSpacingX01
350
2D5
  3
Grid/GridSpacingX02
350
2D6
  3
Grid/GridSpacingX03
350
2D7
  3
Grid/GridSpacingY00
350
2D8
  3
Grid/GridSpacingY01
350
2D9
  3
Grid/GridSpacingY02
350
2DA
  3
Grid/GridSpacingY03
350
2DB
  3
Grid/IsometricGrid00
350
2DC
  3
Grid/IsometricGrid01
350
2DD
  3
Grid/IsometricGrid02
350
2DE
  3
Grid/IsometricGrid03
350
2DF
  3
Grid/IsometricProjection00
350
2E0
  3
Grid/IsometricProjection01
350
2E1
  3
Grid/IsometricProjection02
350
2E2
  3
Grid/IsometricProjection03
350
2E3
  3
Grid/MetaGridSpacingX00
350
2E4
  3
Grid/MetaGridSpacingX01
350
2E5
  3
Grid/MetaGridSpacingX02
350
2E6
  3
Grid/MetaGridSpacingX03
350
2E7
  3
Grid/MetaGridSpacingY00
350
2E8
  3
Grid/MetaGridSpacingY01
350
2E9
  3
Grid/MetaGridSpacingY02
350
2EA
  3
Grid/MetaGridSpacingY03
350
2EB
  3
MultiPageSettings/Columns
350
2EC
  3
MultiPageSettings/GlueMarginsBottom
350
2ED
  3
MultiPageSettings/GlueMarginsLeft
350
2EE
  3
MultiPageSettings/GlueMarginsRight
350
2EF
  3
MultiPageSettings/GlueMarginsTop
350
2F0
  3
MultiPageSettings/PrintCropMarks
350
2F1
  3
MultiPageSettings/Rows
350
2F2
  3
PageSettings/OffsetX
350
2F3
  3
PageSettings/OffsetY
350
2F4
  3
PageSettings/PageOrientation
350
2F5
  3
PageSettings/PaperHeight
350
2F6
  3
PageSettings/PaperWidth
350
2F7
  3
PageSettings/Scale
350
2F8
  3
PageSettings/ShowPaperBorders
350
2F9
  3
UnitSettings/PaperUnit
350
2FA
  0
XRECORD
  5
2CB
330
2C8
100
AcDbXrecord
280
1
 90
0
  0
XRECORD
  5
2CC
330
2C8
100
AcDbXrecord
280
1
 90
0
  0
XRECORD
  5
2CD
330
2C8
100
AcDbXrecord
280
1
290
1
  0
XRECORD
  5
2CE
330
2C8
100
AcDbXrecord
280
1
 90
4
  0
XRECORD
  5
2CF
330
2C8
100
AcDbXrecord
280
1
 90
2
  0
XRECORD
  5
2D0
330
2C8
100
AcDbXrecord
280
1
290
1
  0
XRECORD
  5
2D1
330
2C8
100
AcDbXrecord
280
1
290
1
  0
XRECORD
  5
2D2
330
2C8
100
AcDbXrecord
280
1
290
1
  0
XRECORD
  5
2D3
330
2C8
100
AcDbXrecord
280
1
290
1
  0
XRECORD
  5
2D4
330
2C8
100
AcDbXrecord
280
1
1000
auto
  0
XRECORD
  5
2D5
330
2C8
100
AcDbXrecord
280
1
1000
auto
  0
XRECORD
  5
2D6
330
2C8
100
AcDbXrecord
280
1
1000
auto
  0
XRECORD
  5
2D7
330
2C8
100
AcDbXrecord
280
1
1000
auto
  0
XRECORD
  5
2D8
330
2C8
100
AcDbXrecord
280
1
1000
auto
  0
XRECORD
  5
2D9
330
2C8
100
AcDbXrecord
280
1
1000
auto
  0
XRECORD
  5
2DA
330
2C8
100
AcDbXrecord
280
1
1000
auto
  0
XRECORD
  5
2DB
330
2C8
100
AcDbXrecord
280
1
1000
auto
  0
XRECORD
  5
2DC
330
2C8
100
AcDbXrecord
280
1
290
0
  0
XRECORD
  5
2DD
330
2C8
100
AcDbXrecord
280
1
290
0
  0
XRECORD
  5
2DE
330
2C8
100
AcDbXrecord
280
1
290
0
  0
XRECORD
  5
2DF
330
2C8
100
AcDbXrecord
280
1
290
0
  0
XRECORD
  5
2E0
330
2C8
100
AcDbXrecord
280
1
 90
0
  0
XRECORD
  5
2E1
330
2C8
100
AcDbXrecord
280
1
 90
0
  0
XRECORD
  5
2E2
330
2C8
100
AcDbXrecord
280
1
 90
0
  0
XRECORD
  5
2E3
330
2C8
100
AcDbXrecord
280
1
 90
0
  0
XRECORD
  5
2E4
330
2C8
100
AcDbXrecord
280
1
1000
auto
  0
XRECORD
  5
2E5
330
2C8
100
AcDbXrecord
280
1
1000
auto
  0
XRECORD
  5
2E6
330
2C8
100
AcDbXrecord
280
1
1000
auto
  0
XRECORD
  5
2E7
330
2C8
100
AcDbXrecord
280
1
1000
auto
  0
XRECORD
  5
2E8
330
2C8
100
AcDbXrecord
280
1
1000
auto
  0
XRECORD
  5
2E9
330
2C8
100
AcDbXrecord
280
1
1000
auto
  0
XRECORD
  5
2EA
330
2C8
100
AcDbXrecord
280
1
1000
auto
  0
XRECORD
  5
2EB
330
2C8
100
AcDbXrecord
280
1
1000
auto
  0
XRECORD
  5
2EC
330
2C8
100
AcDbXrecord
280
1
 90
1
  0
XRECORD
  5
2ED
330
2C8
100
AcDbXrecord
280
1
 40
10.0
  0
XRECORD
  5
2EE
330
2C8
100
AcDbXrecord
280
1
 40
10.0
  0
XRECORD
  5
2EF
330
2C8
100
AcDbXrecord
280
1
 40
10.0
  0
XRECORD
  5
2F0
330
2C8
100
AcDbXrecord
280
1
 40
10.0
  0
XRECORD
  5
2F1
330
2C8
100
AcDbXrecord
280
1
290
0
  0
XRECORD
  5
2F2
330
2C8
100
AcDbXrecord
280
1
 90
1
  0
XRECORD
  5
2F3
330
2C8
100
AcDbXrecord
280
1
 40
-443.0985452307692185
  0
XRECORD
  5
2F4
330
2C8
100
AcDbXrecord
280
1
 40
-532.6365932307691082
  0
XRECORD
  5
2F5
330
2C8
100
AcDbXrecord
280
1
1000
Landscape
  0
XRECORD
  5
2F6
330
2C8
100
AcDbXrecord
280
1
 40
279.3999999999999773
  0
XRECORD
  5
2F7
330
2C8
100
AcDbXrecord
280
1
 40
215.9000000000000057
  0
XRECORD
  5
2F8
330
2C8
100
AcDbXrecord
280
1
1000
1" = 4"
  0
XRECORD
  5
2F9
330
2C8
100
AcDbXrecord
280
1
290
1
  0
XRECORD
  5
2FA
330
2C8
100
AcDbXrecord
280
1
 90
1
  0
ENDSEC
  0
EOF
