999
dxflib 3.17.0.0
  0
SECTION
  2
HEADER
  9
$ACADVER
  1
AC1015
  9
$HANDSEED
  5
FFFF
  9
$DIMADEC
 70
0
  9
$DIMASZ
 40
5.0
  9
$DIMAUNIT
 70
0
  9
$DIMAZIN
 70
2
  9
$DIMDEC
 70
2
  9
$DIMDLI
 40
0.36
  9
$DIMDSEP
 70
46
  9
$DIMEXE
 40
2.5
  9
$DIMEXO
 40
1.25
  9
$DIMGAP
 40
1.25
  9
$DIMLUNIT
 70
4
  9
$DIMSCALE
 40
1.0
  9
$DIMTSZ
 40
5.0
  9
$DIMTXT
 40
5.0
  9
$DIMZIN
 70
8
  9
$DWGCODEPAGE
  3
ANSI_1252
  9
$INSUNITS
 70
1
  9
$LTSCALE
 40
1.0
  9
$MAXACTVP
 70
64
  9
$MEASUREMENT
 70
1
  9
$MIRRTEXT
 70
0
  9
$PDMODE
 70
0
  9
$PDSIZE
 40
0.0
  0
ENDSEC
  0
SECTION
  2
TABLES
  0
TABLE
  2
VPORT
  5
8
100
AcDbSymbolTable
 70
1
  0
VPORT
  5
30
100
AcDbSymbolTableRecord
100
AcDbViewportTableRecord
  2
*Active
 70
0
 10
0.0
 20
0.0
 11
1.0
 21
1.0
 12
286.3055555555554861
 22
148.5
 13
0.0
 23
0.0
 14
10.0
 24
10.0
 15
10.0
 25
10.0
 16
0.0
 26
0.0
 36
1.0
 17
0.0
 27
0.0
 37
0.0
 40
297.0
 41
1.92798353909465
 42
50.0
 43
0.0
 44
0.0
 50
0.0
 51
0.0
 71
0
 72
100
 73
1
 74
3
 75
1
 76
1
 77
0
 78
0
281
0
 65
1
110
0.0
120
0.0
130
0.0
111
1.0
121
0.0
131
0.0
112
0.0
122
1.0
132
0.0
 79
0
146
0.0
  0
ENDTAB
  0
TABLE
  2
LTYPE
  5
5
100
AcDbSymbolTable
 70
41
  0
LTYPE
  5
16
100
AcDbSymbolTableRecord
100
AcDbLinetypeTableRecord
  2
CONTINUOUS
 70
0
  3
Solid line
 72
65
 73
0
 40
0.0
  0
LTYPE
  5
31
100
AcDbSymbolTableRecord
100
AcDbLinetypeTableRecord
  2
BORDER2
 70
0
  3
Border (.5x) __.__.__.__.__.__.__.__.__.__.__.
 72
65
 73
6
 40
22.2250000000000014
 49
6.3499999999999996
 74
0
 49
-3.1749999999999998
 74
0
 49
6.3499999999999996
 74
0
 49
-3.125
 74
0
 49
0.1
 74
0
 49
-3.125
 74
0
  0
LTYPE
  5
32
100
AcDbSymbolTableRecord
100
AcDbLinetypeTableRecord
  2
ACAD_ISO04W100
 70
0
  3
ISO long-dash dot ____ . ____ . ____ . ____ . _
 72
65
 73
4
 40
30.0
 49
24.0
 74
0
 49
-3.0
 74
0
 49
0.0
 74
0
 49
-3.0
 74
0
  0
LTYPE
  5
33
100
AcDbSymbolTableRecord
100
AcDbLinetypeTableRecord
  2
PHANTOMX2
 70
0
  3
Phantom (2x) ____________    ____    ____   _
 72
65
 73
6
 40
127.0000000000000142
 49
63.5
 74
0
 49
-12.6999999999999993
 74
0
 49
12.6999999999999993
 74
0
 49
-12.6999999999999993
 74
0
 49
12.6999999999999993
 74
0
 49
-12.6999999999999993
 74
0
  0
LTYPE
  5
34
100
AcDbSymbolTableRecord
100
AcDbLinetypeTableRecord
  2
BORDERX2
 70
0
  3
Border (2x) ____  ____  .  ____  ____  .  ___
 72
65
 73
6
 40
88.8999999999999773
 49
25.3999999999999986
 74
0
 49
-12.6999999999999993
 74
0
 49
25.3999999999999986
 74
0
 49
-12.6499999999999986
 74
0
 49
0.1
 74
0
 49
-12.6499999999999986
 74
0
  0
LTYPE
  5
35
100
AcDbSymbolTableRecord
100
AcDbLinetypeTableRecord
  2
ACAD_ISO14W100
 70
0
  3
ISO dash triple-dot __ . . . __ . . . __ . . . _
 72
65
 73
8
 40
24.0
 49
12.0
 74
0
 49
-3.0
 74
0
 49
0.0
 74
0
 49
-3.0
 74
0
 49
0.0
 74
0
 49
-3.0
 74
0
 49
0.0
 74
0
 49
-3.0
 74
0
  0
LTYPE
  5
36
100
AcDbSymbolTableRecord
100
AcDbLinetypeTableRecord
  2
DOT
 70
0
  3
Dot . . . . . . . . . . . . . . . . . . . . . .
 72
65
 73
2
 40
6.3499999999999996
 49
0.1
 74
0
 49
-6.25
 74
0
  0
LTYPE
  5
37
100
AcDbSymbolTableRecord
100
AcDbLinetypeTableRecord
  2
ACAD_ISO02W100
 70
0
  3
ISO dash __ __ __ __ __ __ __ __ __ __ __ __ __
 72
65
 73
2
 40
15.0
 49
12.0
 74
0
 49
-3.0
 74
0
  0
LTYPE
  5
38
100
AcDbSymbolTableRecord
100
AcDbLinetypeTableRecord
  2
PHANTOM2
 70
0
  3
Phantom (.5x) ___ _ _ ___ _ _ ___ _ _ ___ _ _
 72
65
 73
6
 40
31.7500000000000036
 49
15.875
 74
0
 49
-3.1749999999999998
 74
0
 49
3.1749999999999998
 74
0
 49
-3.1749999999999998
 74
0
 49
3.1749999999999998
 74
0
 49
-3.1749999999999998
 74
0
  0
LTYPE
  5
39
100
AcDbSymbolTableRecord
100
AcDbLinetypeTableRecord
  2
ACAD_ISO10W100
 70
0
  3
ISO dash dot __ . __ . __ . __ . __ . __ . __ . 
 72
65
 73
4
 40
18.0
 49
12.0
 74
0
 49
-3.0
 74
0
 49
0.0
 74
0
 49
-3.0
 74
0
  0
LTYPE
  5
3A
100
AcDbSymbolTableRecord
100
AcDbLinetypeTableRecord
  2
DASHED
 70
0
  3
Dashed __ __ __ __ __ __ __ __ __ __ __ __ __ _
 72
65
 73
2
 40
19.0499999999999972
 49
12.6999999999999993
 74
0
 49
-6.3499999999999996
 74
0
  0
LTYPE
  5
3B
100
AcDbSymbolTableRecord
100
AcDbLinetypeTableRecord
  2
ACAD_ISO09W100
 70
0
  3
ISO long-dash double-short-dash ____ __ __ ____
 72
65
 73
6
 40
45.0
 49
24.0
 74
0
 49
-3.0
 74
0
 49
6.0
 74
0
 49
-3.0
 74
0
 49
6.0
 74
0
 49
-3.0
 74
0
  0
LTYPE
  5
3C
100
AcDbSymbolTableRecord
100
AcDbLinetypeTableRecord
  2
HIDDEN
 70
0
  3
Hidden __ __ __ __ __ __ __ __ __ __ __ __ __ __
 72
65
 73
2
 40
9.5249999999999986
 49
6.3499999999999996
 74
0
 49
-3.1749999999999998
 74
0
  0
LTYPE
  5
15
100
AcDbSymbolTableRecord
100
AcDbLinetypeTableRecord
  2
BYLAYER
 70
0
  3

 72
65
 73
0
 40
0.0
  0
LTYPE
  5
3D
100
AcDbSymbolTableRecord
100
AcDbLinetypeTableRecord
  2
ACAD_ISO11W100
 70
0
  3
ISO double-dash dot __ __ . __ __ . __ __ . __ _
 72
65
 73
6
 40
33.0
 49
12.0
 74
0
 49
-3.0
 74
0
 49
12.0
 74
0
 49
-3.0
 74
0
 49
0.0
 74
0
 49
-3.0
 74
0
  0
LTYPE
  5
3E
100
AcDbSymbolTableRecord
100
AcDbLinetypeTableRecord
  2
ACAD_ISO03W100
 70
0
  3
ISO dash space __    __    __    __    __    __
 72
65
 73
2
 40
30.0
 49
12.0
 74
0
 49
-18.0
 74
0
  0
LTYPE
  5
3F
100
AcDbSymbolTableRecord
100
AcDbLinetypeTableRecord
  2
HIDDENX2
 70
0
  3
Hidden (2x) ____ ____ ____ ____ ____ ____ ____ 
 72
65
 73
2
 40
19.0499999999999972
 49
12.6999999999999993
 74
0
 49
-6.3499999999999996
 74
0
  0
LTYPE
  5
40
100
AcDbSymbolTableRecord
100
AcDbLinetypeTableRecord
  2
DASHED2
 70
0
  3
Dashed (.5x) _ _ _ _ _ _ _ _ _ _ _ _ _ _ _ _ _
 72
65
 73
2
 40
9.5249999999999986
 49
6.3499999999999996
 74
0
 49
-3.1749999999999998
 74
0
  0
LTYPE
  5
41
100
AcDbSymbolTableRecord
100
AcDbLinetypeTableRecord
  2
CENTERX2
 70
0
  3
Center (2x) ________  __  ________  __  _____
 72
65
 73
4
 40
101.6000000000000085
 49
63.5
 74
0
 49
-12.6999999999999993
 74
0
 49
12.6999999999999993
 74
0
 49
-12.6999999999999993
 74
0
  0
LTYPE
  5
42
100
AcDbSymbolTableRecord
100
AcDbLinetypeTableRecord
  2
DIVIDE
 70
0
  3
Divide ____ . . ____ . . ____ . . ____ . . ____
 72
65
 73
6
 40
31.7500000000000036
 49
12.6999999999999993
 74
0
 49
-6.2999999999999998
 74
0
 49
0.1
 74
0
 49
-6.25
 74
0
 49
0.1
 74
0
 49
-6.2999999999999998
 74
0
  0
LTYPE
  5
14
100
AcDbSymbolTableRecord
100
AcDbLinetypeTableRecord
  2
BYBLOCK
 70
0
  3

 72
65
 73
0
 40
0.0
  0
LTYPE
  5
43
100
AcDbSymbolTableRecord
100
AcDbLinetypeTableRecord
  2
ACAD_ISO08W100
 70
0
  3
ISO long-dash short-dash ____ __ ____ __ ____ _
 72
65
 73
4
 40
36.0
 49
24.0
 74
0
 49
-3.0
 74
0
 49
6.0
 74
0
 49
-3.0
 74
0
  0
LTYPE
  5
44
100
AcDbSymbolTableRecord
100
AcDbLinetypeTableRecord
  2
DASHDOTX2
 70
0
  3
Dash dot (2x) ____  .  ____  .  ____  .  ___
 72
65
 73
4
 40
50.7999999999999972
 49
25.3999999999999986
 74
0
 49
-12.6499999999999986
 74
0
 49
0.1
 74
0
 49
-12.6499999999999986
 74
0
  0
LTYPE
  5
45
100
AcDbSymbolTableRecord
100
AcDbLinetypeTableRecord
  2
DASHDOT
 70
0
  3
Dash dot __ . __ . __ . __ . __ . __ . __ . __
 72
65
 73
4
 40
25.4000000000000021
 49
12.6999999999999993
 74
0
 49
-6.2999999999999998
 74
0
 49
0.1
 74
0
 49
-6.2999999999999998
 74
0
  0
LTYPE
  5
46
100
AcDbSymbolTableRecord
100
AcDbLinetypeTableRecord
  2
ACAD_ISO06W100
 70
0
  3
ISO long-dash triple-dot ____ ... ____ ... ____
 72
65
 73
8
 40
36.0
 49
24.0
 74
0
 49
-3.0
 74
0
 49
0.0
 74
0
 49
-3.0
 74
0
 49
0.0
 74
0
 49
-3.0
 74
0
 49
0.0
 74
0
 49
-3.0
 74
0
  0
LTYPE
  5
47
100
AcDbSymbolTableRecord
100
AcDbLinetypeTableRecord
  2
ACAD_ISO07W100
 70
0
  3
ISO dot . . . . . . . . . . . . . . . . . . . . 
 72
65
 73
2
 40
3.0
 49
0.0
 74
0
 49
-3.0
 74
0
  0
LTYPE
  5
48
100
AcDbSymbolTableRecord
100
AcDbLinetypeTableRecord
  2
DASHEDX2
 70
0
  3
Dashed (2x) ____  ____  ____  ____  ____  ___
 72
65
 73
2
 40
38.0999999999999943
 49
25.3999999999999986
 74
0
 49
-12.6999999999999993
 74
0
  0
LTYPE
  5
49
100
AcDbSymbolTableRecord
100
AcDbLinetypeTableRecord
  2
PHANTOM
 70
0
  3
Phantom ______  __  __  ______  __  __  ______ 
 72
65
 73
6
 40
63.5000000000000071
 49
31.75
 74
0
 49
-6.3499999999999996
 74
0
 49
6.3499999999999996
 74
0
 49
-6.3499999999999996
 74
0
 49
6.3499999999999996
 74
0
 49
-6.3499999999999996
 74
0
  0
LTYPE
  5
4A
100
AcDbSymbolTableRecord
100
AcDbLinetypeTableRecord
  2
ACAD_ISO13W100
 70
0
  3
ISO double-dash double-dot __ __ . . __ __ . . _
 72
65
 73
8
 40
36.0
 49
12.0
 74
0
 49
-3.0
 74
0
 49
12.0
 74
0
 49
-3.0
 74
0
 49
0.0
 74
0
 49
-3.0
 74
0
 49
0.0
 74
0
 49
-3.0
 74
0
  0
LTYPE
  5
4B
100
AcDbSymbolTableRecord
100
AcDbLinetypeTableRecord
  2
ACAD_ISO15W100
 70
0
  3
ISO double-dash triple-dot __ __ . . . __ __ . .
 72
65
 73
10
 40
39.0
 49
12.0
 74
0
 49
-3.0
 74
0
 49
12.0
 74
0
 49
-3.0
 74
0
 49
0.0
 74
0
 49
-3.0
 74
0
 49
0.0
 74
0
 49
-3.0
 74
0
 49
0.0
 74
0
 49
-3.0
 74
0
  0
LTYPE
  5
4C
100
AcDbSymbolTableRecord
100
AcDbLinetypeTableRecord
  2
DOTX2
 70
0
  3
Dot (2x) .  .  .  .  .  .  .  .  .  .  .  .  .
 72
65
 73
2
 40
12.6999999999999993
 49
0.1
 74
0
 49
-12.5999999999999996
 74
0
  0
LTYPE
  5
4D
100
AcDbSymbolTableRecord
100
AcDbLinetypeTableRecord
  2
CENTER
 70
0
  3
Center ____ _ ____ _ ____ _ ____ _ ____ _ ____
 72
65
 73
4
 40
50.8000000000000043
 49
31.75
 74
0
 49
-6.3499999999999996
 74
0
 49
6.3499999999999996
 74
0
 49
-6.3499999999999996
 74
0
  0
LTYPE
  5
4E
100
AcDbSymbolTableRecord
100
AcDbLinetypeTableRecord
  2
HIDDEN2
 70
0
  3
Hidden (.5x) _ _ _ _ _ _ _ _ _ _ _ _ _ _ _ _ _ 
 72
65
 73
2
 40
4.7624999999999993
 49
3.1749999999999998
 74
0
 49
-1.5874999999999999
 74
0
  0
LTYPE
  5
4F
100
AcDbSymbolTableRecord
100
AcDbLinetypeTableRecord
  2
CENTER2
 70
0
  3
Center (.5x) ___ _ ___ _ ___ _ ___ _ ___ _ ___
 72
65
 73
4
 40
28.5750000000000028
 49
19.0500000000000007
 74
0
 49
-3.1749999999999998
 74
0
 49
3.1749999999999998
 74
0
 49
-3.1749999999999998
 74
0
  0
LTYPE
  5
50
100
AcDbSymbolTableRecord
100
AcDbLinetypeTableRecord
  2
DIVIDEX2
 70
0
  3
Divide (2x) ________  .  .  ________  .  .  _
 72
65
 73
6
 40
63.5
 49
25.3999999999999986
 74
0
 49
-12.6499999999999986
 74
0
 49
0.1
 74
0
 49
-12.5999999999999979
 74
0
 49
0.1
 74
0
 49
-12.6499999999999986
 74
0
  0
LTYPE
  5
51
100
AcDbSymbolTableRecord
100
AcDbLinetypeTableRecord
  2
DASHDOT2
 70
0
  3
Dash dot (.5x) _._._._._._._._._._._._._._._.
 72
65
 73
4
 40
12.6999999999999993
 49
6.3499999999999996
 74
0
 49
-3.125
 74
0
 49
0.1
 74
0
 49
-3.125
 74
0
  0
LTYPE
  5
52
100
AcDbSymbolTableRecord
100
AcDbLinetypeTableRecord
  2
BORDER
 70
0
  3
Border __ __ . __ __ . __ __ . __ __ . __ __ .
 72
65
 73
6
 40
44.4499999999999957
 49
12.6999999999999993
 74
0
 49
-6.3499999999999996
 74
0
 49
12.6999999999999993
 74
0
 49
-6.2999999999999998
 74
0
 49
0.1
 74
0
 49
-6.2999999999999998
 74
0
  0
LTYPE
  5
53
100
AcDbSymbolTableRecord
100
AcDbLinetypeTableRecord
  2
DOT2
 70
0
  3
Dot (.5x) .....................................
 72
65
 73
2
 40
3.1749999999999998
 49
0.1
 74
0
 49
-3.0749999999999997
 74
0
  0
LTYPE
  5
54
100
AcDbSymbolTableRecord
100
AcDbLinetypeTableRecord
  2
DIVIDE2
 70
0
  3
Divide (.5x) __..__..__..__..__..__..__..__.._
 72
65
 73
6
 40
15.8749999999999982
 49
6.3499999999999996
 74
0
 49
-3.125
 74
0
 49
0.1
 74
0
 49
-3.0750000000000002
 74
0
 49
0.1
 74
0
 49
-3.125
 74
0
  0
LTYPE
  5
55
100
AcDbSymbolTableRecord
100
AcDbLinetypeTableRecord
  2
ACAD_ISO12W100
 70
0
  3
ISO dash double-dot __ . . __ . . __ . . __ . . 
 72
65
 73
6
 40
21.0
 49
12.0
 74
0
 49
-3.0
 74
0
 49
0.0
 74
0
 49
-3.0
 74
0
 49
0.0
 74
0
 49
-3.0
 74
0
  0
LTYPE
  5
56
100
AcDbSymbolTableRecord
100
AcDbLinetypeTableRecord
  2
ACAD_ISO05W100
 70
0
  3
ISO long-dash double-dot ____ .. ____ .. ____ . 
 72
65
 73
6
 40
33.0
 49
24.0
 74
0
 49
-3.0
 74
0
 49
0.0
 74
0
 49
-3.0
 74
0
 49
0.0
 74
0
 49
-3.0
 74
0
  0
ENDTAB
  0
TABLE
  2
LAYER
  5
2
100
AcDbSymbolTable
 70
5
  0
LAYER
  5
57
100
AcDbSymbolTableRecord
100
AcDbLayerTableRecord
  2
dimensions
 70
1
 62
252
420
10526884
  6
CONTINUOUS
370
25
390
F
  0
LAYER
  5
58
100
AcDbSymbolTableRecord
100
AcDbLayerTableRecord
  2
room_names
 70
0
 62
7
420
0
  6
CONTINUOUS
370
211
390
F
  0
LAYER
  5
59
100
AcDbSymbolTableRecord
100
AcDbLayerTableRecord
  2
railing
 70
0
 62
7
420
0
  6
DIVIDE
370
-3
390
F
  0
LAYER
  5
10
100
AcDbSymbolTableRecord
100
AcDbLayerTableRecord
  2
0
 70
0
 62
7
420
0
  6
CONTINUOUS
370
211
390
F
  0
LAYER
  5
5A
100
AcDbSymbolTableRecord
100
AcDbLayerTableRecord
  2
electrical
 70
0
 62
7
420
0
  6
CONTINUOUS
370
211
390
F
  0
ENDTAB
  0
TABLE
  2
STYLE
  5
3
100
AcDbSymbolTable
 70
126
  0
STYLE
  5
5B
100
AcDbSymbolTableRecord
100
AcDbTextStyleTableRecord
  2
Standard
 70
0
 40
0.0
 41
1.0
 50
0.0
 71
0
 42
2.5
  3

  4

1001
ACAD
1000
txt
1071
0
  0
STYLE
  5
5C
100
AcDbSymbolTableRecord
100
AcDbTextStyleTableRecord
  2
textstyle0
 70
0
 40
0.0
 41
1.0
 50
0.0
 71
0
 42
5.0
  3

  4

1001
ACAD
1000
Arial
1071
0
  0
STYLE
  5
5D
100
AcDbSymbolTableRecord
100
AcDbTextStyleTableRecord
  2
textstyle1
 70
0
 40
0.0
 41
1.0
 50
0.0
 71
0
 42
5.0
  3

  4

1001
ACAD
1000
Arial
1071
0
  0
STYLE
  5
5E
100
AcDbSymbolTableRecord
100
AcDbTextStyleTableRecord
  2
textstyle2
 70
0
 40
0.0
 41
1.0
 50
0.0
 71
0
 42
5.0
  3

  4

1001
ACAD
1000
Arial
1071
0
  0
STYLE
  5
5F
100
AcDbSymbolTableRecord
100
AcDbTextStyleTableRecord
  2
textstyle3
 70
0
 40
0.0
 41
1.0
 50
0.0
 71
0
 42
5.0
  3

  4

1001
ACAD
1000
Arial
1071
0
  0
STYLE
  5
60
100
AcDbSymbolTableRecord
100
AcDbTextStyleTableRecord
  2
textstyle4
 70
0
 40
0.0
 41
1.0
 50
0.0
 71
0
 42
5.0
  3

  4

1001
ACAD
1000
Arial
1071
0
  0
STYLE
  5
61
100
AcDbSymbolTableRecord
100
AcDbTextStyleTableRecord
  2
textstyle5
 70
0
 40
0.0
 41
1.0
 50
0.0
 71
0
 42
5.0
  3

  4

1001
ACAD
1000
Arial
1071
0
  0
STYLE
  5
62
100
AcDbSymbolTableRecord
100
AcDbTextStyleTableRecord
  2
textstyle6
 70
0
 40
0.0
 41
1.0
 50
0.0
 71
0
 42
5.0
  3

  4

1001
ACAD
1000
Arial
1071
0
  0
STYLE
  5
63
100
AcDbSymbolTableRecord
100
AcDbTextStyleTableRecord
  2
textstyle7
 70
0
 40
0.0
 41
1.0
 50
0.0
 71
0
 42
5.0
  3

  4

1001
ACAD
1000
Arial
1071
0
  0
STYLE
  5
64
100
AcDbSymbolTableRecord
100
AcDbTextStyleTableRecord
  2
textstyle8
 70
0
 40
0.0
 41
1.0
 50
0.0
 71
0
 42
5.0
  3

  4

1001
ACAD
1000
Arial
1071
0
  0
STYLE
  5
65
100
AcDbSymbolTableRecord
100
AcDbTextStyleTableRecord
  2
textstyle9
 70
0
 40
0.0
 41
1.0
 50
0.0
 71
0
 42
5.0
  3

  4

1001
ACAD
1000
Arial
1071
0
  0
STYLE
  5
66
100
AcDbSymbolTableRecord
100
AcDbTextStyleTableRecord
  2
textstyle10
 70
0
 40
0.0
 41
1.0
 50
0.0
 71
0
 42
5.0
  3

  4

1001
ACAD
1000
Arial
1071
0
  0
STYLE
  5
67
100
AcDbSymbolTableRecord
100
AcDbTextStyleTableRecord
  2
textstyle11
 70
0
 40
0.0
 41
1.0
 50
0.0
 71
0
 42
5.0
  3

  4

1001
ACAD
1000
Arial
1071
0
  0
STYLE
  5
68
100
AcDbSymbolTableRecord
100
AcDbTextStyleTableRecord
  2
textstyle12
 70
0
 40
0.0
 41
1.0
 50
0.0
 71
0
 42
5.0
  3

  4

1001
ACAD
1000
Arial
1071
0
  0
STYLE
  5
69
100
AcDbSymbolTableRecord
100
AcDbTextStyleTableRecord
  2
textstyle13
 70
0
 40
0.0
 41
1.0
 50
0.0
 71
0
 42
5.0
  3

  4

1001
ACAD
1000
Arial
1071
0
  0
STYLE
  5
6A
100
AcDbSymbolTableRecord
100
AcDbTextStyleTableRecord
  2
textstyle14
 70
0
 40
0.0
 41
1.0
 50
0.0
 71
0
 42
5.0
  3

  4

1001
ACAD
1000
Arial
1071
0
  0
STYLE
  5
6B
100
AcDbSymbolTableRecord
100
AcDbTextStyleTableRecord
  2
textstyle15
 70
0
 40
0.0
 41
1.0
 50
0.0
 71
0
 42
5.0
  3

  4

1001
ACAD
1000
Arial
1071
0
  0
STYLE
  5
6C
100
AcDbSymbolTableRecord
100
AcDbTextStyleTableRecord
  2
textstyle16
 70
0
 40
0.0
 41
1.0
 50
0.0
 71
0
 42
5.0
  3

  4

1001
ACAD
1000
Arial
1071
0
  0
STYLE
  5
6D
100
AcDbSymbolTableRecord
100
AcDbTextStyleTableRecord
  2
textstyle17
 70
0
 40
0.0
 41
1.0
 50
0.0
 71
0
 42
5.0
  3

  4

1001
ACAD
1000
Arial
1071
0
  0
STYLE
  5
6E
100
AcDbSymbolTableRecord
100
AcDbTextStyleTableRecord
  2
textstyle18
 70
0
 40
0.0
 41
1.0
 50
0.0
 71
0
 42
5.0
  3

  4

1001
ACAD
1000
Arial
1071
0
  0
STYLE
  5
6F
100
AcDbSymbolTableRecord
100
AcDbTextStyleTableRecord
  2
textstyle19
 70
0
 40
0.0
 41
1.0
 50
0.0
 71
0
 42
5.0
  3

  4

1001
ACAD
1000
Arial
1071
0
  0
STYLE
  5
70
100
AcDbSymbolTableRecord
100
AcDbTextStyleTableRecord
  2
textstyle20
 70
0
 40
0.0
 41
1.0
 50
0.0
 71
0
 42
5.0
  3

  4

1001
ACAD
1000
Arial
1071
0
  0
STYLE
  5
71
100
AcDbSymbolTableRecord
100
AcDbTextStyleTableRecord
  2
textstyle21
 70
0
 40
0.0
 41
1.0
 50
0.0
 71
0
 42
5.0
  3

  4

1001
ACAD
1000
Arial
1071
0
  0
STYLE
  5
72
100
AcDbSymbolTableRecord
100
AcDbTextStyleTableRecord
  2
textstyle22
 70
0
 40
0.0
 41
1.0
 50
0.0
 71
0
 42
5.0
  3

  4

1001
ACAD
1000
Arial
1071
0
  0
STYLE
  5
73
100
AcDbSymbolTableRecord
100
AcDbTextStyleTableRecord
  2
textstyle23
 70
0
 40
0.0
 41
1.0
 50
0.0
 71
0
 42
5.0
  3

  4

1001
ACAD
1000
Arial
1071
0
  0
STYLE
  5
74
100
AcDbSymbolTableRecord
100
AcDbTextStyleTableRecord
  2
textstyle24
 70
0
 40
0.0
 41
1.0
 50
0.0
 71
0
 42
5.0
  3

  4

1001
ACAD
1000
Arial
1071
0
  0
STYLE
  5
75
100
AcDbSymbolTableRecord
100
AcDbTextStyleTableRecord
  2
textstyle25
 70
0
 40
0.0
 41
1.0
 50
0.0
 71
0
 42
5.0
  3

  4

1001
ACAD
1000
Arial
1071
0
  0
STYLE
  5
76
100
AcDbSymbolTableRecord
100
AcDbTextStyleTableRecord
  2
textstyle26
 70
0
 40
0.0
 41
1.0
 50
0.0
 71
0
 42
5.0
  3

  4

1001
ACAD
1000
Arial
1071
0
  0
STYLE
  5
77
100
AcDbSymbolTableRecord
100
AcDbTextStyleTableRecord
  2
textstyle27
 70
0
 40
0.0
 41
1.0
 50
0.0
 71
0
 42
5.0
  3

  4

1001
ACAD
1000
Arial
1071
0
  0
STYLE
  5
78
100
AcDbSymbolTableRecord
100
AcDbTextStyleTableRecord
  2
textstyle28
 70
0
 40
0.0
 41
1.0
 50
0.0
 71
0
 42
5.0
  3

  4

1001
ACAD
1000
Arial
1071
0
  0
STYLE
  5
79
100
AcDbSymbolTableRecord
100
AcDbTextStyleTableRecord
  2
textstyle29
 70
0
 40
0.0
 41
1.0
 50
0.0
 71
0
 42
5.0
  3

  4

1001
ACAD
1000
Arial
1071
0
  0
STYLE
  5
7A
100
AcDbSymbolTableRecord
100
AcDbTextStyleTableRecord
  2
textstyle30
 70
0
 40
0.0
 41
1.0
 50
0.0
 71
0
 42
5.0
  3

  4

1001
ACAD
1000
Arial
1071
0
  0
STYLE
  5
7B
100
AcDbSymbolTableRecord
100
AcDbTextStyleTableRecord
  2
textstyle31
 70
0
 40
0.0
 41
1.0
 50
0.0
 71
0
 42
5.0
  3

  4

1001
ACAD
1000
Arial
1071
0
  0
STYLE
  5
7C
100
AcDbSymbolTableRecord
100
AcDbTextStyleTableRecord
  2
textstyle32
 70
0
 40
0.0
 41
1.0
 50
0.0
 71
0
 42
5.0
  3

  4

1001
ACAD
1000
Arial
1071
0
  0
STYLE
  5
7D
100
AcDbSymbolTableRecord
100
AcDbTextStyleTableRecord
  2
textstyle33
 70
0
 40
0.0
 41
1.0
 50
0.0
 71
0
 42
5.0
  3

  4

1001
ACAD
1000
Arial
1071
0
  0
STYLE
  5
7E
100
AcDbSymbolTableRecord
100
AcDbTextStyleTableRecord
  2
textstyle34
 70
0
 40
0.0
 41
1.0
 50
0.0
 71
0
 42
5.0
  3

  4

1001
ACAD
1000
Arial
1071
0
  0
STYLE
  5
7F
100
AcDbSymbolTableRecord
100
AcDbTextStyleTableRecord
  2
textstyle35
 70
0
 40
0.0
 41
1.0
 50
0.0
 71
0
 42
5.0
  3

  4

1001
ACAD
1000
Arial
1071
0
  0
STYLE
  5
80
100
AcDbSymbolTableRecord
100
AcDbTextStyleTableRecord
  2
textstyle36
 70
0
 40
0.0
 41
1.0
 50
0.0
 71
0
 42
5.0
  3

  4

1001
ACAD
1000
Arial
1071
0
  0
STYLE
  5
81
100
AcDbSymbolTableRecord
100
AcDbTextStyleTableRecord
  2
textstyle37
 70
0
 40
0.0
 41
1.0
 50
0.0
 71
0
 42
5.0
  3

  4

1001
ACAD
1000
Arial
1071
0
  0
STYLE
  5
82
100
AcDbSymbolTableRecord
100
AcDbTextStyleTableRecord
  2
textstyle38
 70
0
 40
0.0
 41
1.0
 50
0.0
 71
0
 42
5.0
  3

  4

1001
ACAD
1000
Arial
1071
0
  0
STYLE
  5
83
100
AcDbSymbolTableRecord
100
AcDbTextStyleTableRecord
  2
textstyle39
 70
0
 40
0.0
 41
1.0
 50
0.0
 71
0
 42
5.0
  3

  4

1001
ACAD
1000
Arial
1071
0
  0
STYLE
  5
84
100
AcDbSymbolTableRecord
100
AcDbTextStyleTableRecord
  2
textstyle40
 70
0
 40
0.0
 41
1.0
 50
0.0
 71
0
 42
5.0
  3

  4

1001
ACAD
1000
Arial
1071
0
  0
STYLE
  5
85
100
AcDbSymbolTableRecord
100
AcDbTextStyleTableRecord
  2
textstyle41
 70
0
 40
0.0
 41
1.0
 50
0.0
 71
0
 42
5.0
  3

  4

1001
ACAD
1000
Arial
1071
0
  0
STYLE
  5
86
100
AcDbSymbolTableRecord
100
AcDbTextStyleTableRecord
  2
textstyle42
 70
0
 40
0.0
 41
1.0
 50
0.0
 71
0
 42
5.0
  3

  4

1001
ACAD
1000
Arial
1071
0
  0
STYLE
  5
87
100
AcDbSymbolTableRecord
100
AcDbTextStyleTableRecord
  2
textstyle43
 70
0
 40
0.0
 41
1.0
 50
0.0
 71
0
 42
5.0
  3

  4

1001
ACAD
1000
Arial
1071
0
  0
STYLE
  5
88
100
AcDbSymbolTableRecord
100
AcDbTextStyleTableRecord
  2
textstyle44
 70
0
 40
0.0
 41
1.0
 50
0.0
 71
0
 42
5.0
  3

  4

1001
ACAD
1000
Arial
1071
0
  0
STYLE
  5
89
100
AcDbSymbolTableRecord
100
AcDbTextStyleTableRecord
  2
textstyle45
 70
0
 40
0.0
 41
1.0
 50
0.0
 71
0
 42
5.0
  3

  4

1001
ACAD
1000
Arial
1071
0
  0
STYLE
  5
8A
100
AcDbSymbolTableRecord
100
AcDbTextStyleTableRecord
  2
textstyle46
 70
0
 40
0.0
 41
1.0
 50
0.0
 71
0
 42
5.0
  3

  4

1001
ACAD
1000
Arial
1071
0
  0
STYLE
  5
8B
100
AcDbSymbolTableRecord
100
AcDbTextStyleTableRecord
  2
textstyle47
 70
0
 40
0.0
 41
1.0
 50
0.0
 71
0
 42
5.0
  3

  4

1001
ACAD
1000
Arial
1071
0
  0
STYLE
  5
8C
100
AcDbSymbolTableRecord
100
AcDbTextStyleTableRecord
  2
textstyle48
 70
0
 40
0.0
 41
1.0
 50
0.0
 71
0
 42
5.0
  3

  4

1001
ACAD
1000
Arial
1071
0
  0
STYLE
  5
8D
100
AcDbSymbolTableRecord
100
AcDbTextStyleTableRecord
  2
textstyle49
 70
0
 40
0.0
 41
1.0
 50
0.0
 71
0
 42
5.0
  3

  4

1001
ACAD
1000
Arial
1071
0
  0
STYLE
  5
8E
100
AcDbSymbolTableRecord
100
AcDbTextStyleTableRecord
  2
textstyle50
 70
0
 40
0.0
 41
1.0
 50
0.0
 71
0
 42
5.0
  3

  4

1001
ACAD
1000
Arial
1071
0
  0
STYLE
  5
8F
100
AcDbSymbolTableRecord
100
AcDbTextStyleTableRecord
  2
textstyle51
 70
0
 40
0.0
 41
1.0
 50
0.0
 71
0
 42
5.0
  3

  4

1001
ACAD
1000
Arial
1071
0
  0
STYLE
  5
90
100
AcDbSymbolTableRecord
100
AcDbTextStyleTableRecord
  2
textstyle52
 70
0
 40
0.0
 41
1.0
 50
0.0
 71
0
 42
5.0
  3

  4

1001
ACAD
1000
Arial
1071
0
  0
STYLE
  5
91
100
AcDbSymbolTableRecord
100
AcDbTextStyleTableRecord
  2
textstyle53
 70
0
 40
0.0
 41
1.0
 50
0.0
 71
0
 42
5.0
  3

  4

1001
ACAD
1000
Arial
1071
0
  0
STYLE
  5
92
100
AcDbSymbolTableRecord
100
AcDbTextStyleTableRecord
  2
textstyle54
 70
0
 40
0.0
 41
1.0
 50
0.0
 71
0
 42
5.0
  3

  4

1001
ACAD
1000
Arial
1071
0
  0
STYLE
  5
93
100
AcDbSymbolTableRecord
100
AcDbTextStyleTableRecord
  2
textstyle55
 70
0
 40
0.0
 41
1.0
 50
0.0
 71
0
 42
2.5
  3

  4

1001
ACAD
1000
Arial
1071
0
  0
STYLE
  5
94
100
AcDbSymbolTableRecord
100
AcDbTextStyleTableRecord
  2
textstyle56
 70
0
 40
0.0
 41
1.0
 50
0.0
 71
0
 42
5.0
  3

  4

1001
ACAD
1000
Arial
1071
0
  0
STYLE
  5
95
100
AcDbSymbolTableRecord
100
AcDbTextStyleTableRecord
  2
textstyle57
 70
0
 40
0.0
 41
1.0
 50
0.0
 71
0
 42
5.0
  3

  4

1001
ACAD
1000
Arial
1071
0
  0
STYLE
  5
96
100
AcDbSymbolTableRecord
100
AcDbTextStyleTableRecord
  2
textstyle58
 70
0
 40
0.0
 41
1.0
 50
0.0
 71
0
 42
5.0
  3

  4

1001
ACAD
1000
Arial
1071
0
  0
STYLE
  5
97
100
AcDbSymbolTableRecord
100
AcDbTextStyleTableRecord
  2
textstyle59
 70
0
 40
0.0
 41
1.0
 50
0.0
 71
0
 42
5.0
  3

  4

1001
ACAD
1000
Arial
1071
0
  0
STYLE
  5
98
100
AcDbSymbolTableRecord
100
AcDbTextStyleTableRecord
  2
textstyle60
 70
0
 40
0.0
 41
1.0
 50
0.0
 71
0
 42
5.0
  3

  4

1001
ACAD
1000
Arial
1071
0
  0
STYLE
  5
99
100
AcDbSymbolTableRecord
100
AcDbTextStyleTableRecord
  2
textstyle61
 70
0
 40
0.0
 41
1.0
 50
0.0
 71
0
 42
5.0
  3

  4

1001
ACAD
1000
Arial
1071
0
  0
STYLE
  5
9A
100
AcDbSymbolTableRecord
100
AcDbTextStyleTableRecord
  2
textstyle62
 70
0
 40
0.0
 41
1.0
 50
0.0
 71
0
 42
5.0
  3

  4

1001
ACAD
1000
Arial
1071
0
  0
STYLE
  5
9B
100
AcDbSymbolTableRecord
100
AcDbTextStyleTableRecord
  2
textstyle63
 70
0
 40
0.0
 41
1.0
 50
0.0
 71
0
 42
5.0
  3

  4

1001
ACAD
1000
Arial
1071
0
  0
STYLE
  5
9C
100
AcDbSymbolTableRecord
100
AcDbTextStyleTableRecord
  2
textstyle64
 70
0
 40
0.0
 41
1.0
 50
0.0
 71
0
 42
5.0
  3

  4

1001
ACAD
1000
Arial
1071
0
  0
STYLE
  5
9D
100
AcDbSymbolTableRecord
100
AcDbTextStyleTableRecord
  2
textstyle65
 70
0
 40
0.0
 41
1.0
 50
0.0
 71
0
 42
5.0
  3

  4

1001
ACAD
1000
Arial
1071
0
  0
STYLE
  5
9E
100
AcDbSymbolTableRecord
100
AcDbTextStyleTableRecord
  2
textstyle66
 70
0
 40
0.0
 41
1.0
 50
0.0
 71
0
 42
5.0
  3

  4

1001
ACAD
1000
Arial
1071
0
  0
STYLE
  5
9F
100
AcDbSymbolTableRecord
100
AcDbTextStyleTableRecord
  2
textstyle67
 70
0
 40
0.0
 41
1.0
 50
0.0
 71
0
 42
5.0
  3

  4

1001
ACAD
1000
Arial
1071
0
  0
STYLE
  5
A0
100
AcDbSymbolTableRecord
100
AcDbTextStyleTableRecord
  2
textstyle68
 70
0
 40
0.0
 41
1.0
 50
0.0
 71
0
 42
5.0
  3

  4

1001
ACAD
1000
Arial
1071
0
  0
STYLE
  5
A1
100
AcDbSymbolTableRecord
100
AcDbTextStyleTableRecord
  2
textstyle69
 70
0
 40
0.0
 41
1.0
 50
0.0
 71
0
 42
5.0
  3

  4

1001
ACAD
1000
Arial
1071
0
  0
STYLE
  5
A2
100
AcDbSymbolTableRecord
100
AcDbTextStyleTableRecord
  2
textstyle70
 70
0
 40
0.0
 41
1.0
 50
0.0
 71
0
 42
5.0
  3

  4

1001
ACAD
1000
Arial
1071
0
  0
STYLE
  5
A3
100
AcDbSymbolTableRecord
100
AcDbTextStyleTableRecord
  2
textstyle71
 70
0
 40
0.0
 41
1.0
 50
0.0
 71
0
 42
5.0
  3

  4

1001
ACAD
1000
Arial
1071
0
  0
STYLE
  5
A4
100
AcDbSymbolTableRecord
100
AcDbTextStyleTableRecord
  2
textstyle72
 70
0
 40
0.0
 41
1.0
 50
0.0
 71
0
 42
5.0
  3

  4

1001
ACAD
1000
Arial
1071
0
  0
STYLE
  5
A5
100
AcDbSymbolTableRecord
100
AcDbTextStyleTableRecord
  2
textstyle73
 70
0
 40
0.0
 41
1.0
 50
0.0
 71
0
 42
5.0
  3

  4

1001
ACAD
1000
Arial
1071
0
  0
STYLE
  5
A6
100
AcDbSymbolTableRecord
100
AcDbTextStyleTableRecord
  2
textstyle74
 70
0
 40
0.0
 41
1.0
 50
0.0
 71
0
 42
5.0
  3

  4

1001
ACAD
1000
Arial
1071
0
  0
STYLE
  5
A7
100
AcDbSymbolTableRecord
100
AcDbTextStyleTableRecord
  2
textstyle75
 70
0
 40
0.0
 41
1.0
 50
0.0
 71
0
 42
5.0
  3

  4

1001
ACAD
1000
Arial
1071
0
  0
STYLE
  5
A8
100
AcDbSymbolTableRecord
100
AcDbTextStyleTableRecord
  2
textstyle76
 70
0
 40
0.0
 41
1.0
 50
0.0
 71
0
 42
12.0
  3

  4

1001
ACAD
1000
Arial
1071
0
  0
STYLE
  5
A9
100
AcDbSymbolTableRecord
100
AcDbTextStyleTableRecord
  2
textstyle77
 70
0
 40
0.0
 41
1.0
 50
0.0
 71
0
 42
12.0
  3

  4

1001
ACAD
1000
Arial
1071
0
  0
STYLE
  5
AA
100
AcDbSymbolTableRecord
100
AcDbTextStyleTableRecord
  2
textstyle78
 70
0
 40
0.0
 41
1.0
 50
0.0
 71
0
 42
6.0
  3

  4

1001
ACAD
1000
Arial
1071
0
  0
STYLE
  5
AB
100
AcDbSymbolTableRecord
100
AcDbTextStyleTableRecord
  2
textstyle79
 70
0
 40
0.0
 41
1.0
 50
0.0
 71
0
 42
6.0
  3

  4

1001
ACAD
1000
Arial
1071
0
  0
STYLE
  5
AC
100
AcDbSymbolTableRecord
100
AcDbTextStyleTableRecord
  2
textstyle80
 70
0
 40
0.0
 41
1.0
 50
0.0
 71
0
 42
5.0
  3

  4

1001
ACAD
1000
Arial
1071
0
  0
STYLE
  5
AD
100
AcDbSymbolTableRecord
100
AcDbTextStyleTableRecord
  2
textstyle81
 70
0
 40
0.0
 41
1.0
 50
0.0
 71
0
 42
6.0
  3

  4

1001
ACAD
1000
Arial
1071
0
  0
STYLE
  5
AE
100
AcDbSymbolTableRecord
100
AcDbTextStyleTableRecord
  2
textstyle82
 70
0
 40
0.0
 41
1.0
 50
0.0
 71
0
 42
6.0
  3

  4

1001
ACAD
1000
Arial
1071
0
  0
STYLE
  5
AF
100
AcDbSymbolTableRecord
100
AcDbTextStyleTableRecord
  2
textstyle83
 70
0
 40
0.0
 41
1.0
 50
0.0
 71
0
 42
6.0
  3

  4

1001
ACAD
1000
Arial
1071
0
  0
STYLE
  5
B0
100
AcDbSymbolTableRecord
100
AcDbTextStyleTableRecord
  2
textstyle84
 70
0
 40
0.0
 41
1.0
 50
0.0
 71
0
 42
6.0
  3

  4

1001
ACAD
1000
Arial
1071
0
  0
STYLE
  5
B1
100
AcDbSymbolTableRecord
100
AcDbTextStyleTableRecord
  2
textstyle85
 70
0
 40
0.0
 41
1.0
 50
0.0
 71
0
 42
6.0
  3

  4

1001
ACAD
1000
Arial
1071
0
  0
STYLE
  5
B2
100
AcDbSymbolTableRecord
100
AcDbTextStyleTableRecord
  2
textstyle86
 70
0
 40
0.0
 41
1.0
 50
0.0
 71
0
 42
6.0
  3

  4

1001
ACAD
1000
Arial
1071
0
  0
STYLE
  5
B3
100
AcDbSymbolTableRecord
100
AcDbTextStyleTableRecord
  2
textstyle87
 70
0
 40
0.0
 41
1.0
 50
0.0
 71
0
 42
6.0
  3

  4

1001
ACAD
1000
Arial
1071
0
  0
STYLE
  5
B4
100
AcDbSymbolTableRecord
100
AcDbTextStyleTableRecord
  2
textstyle88
 70
0
 40
0.0
 41
1.0
 50
0.0
 71
0
 42
6.0
  3

  4

1001
ACAD
1000
Arial
1071
0
  0
STYLE
  5
B5
100
AcDbSymbolTableRecord
100
AcDbTextStyleTableRecord
  2
textstyle89
 70
0
 40
0.0
 41
1.0
 50
0.0
 71
0
 42
5.0
  3

  4

1001
ACAD
1000
Arial
1071
0
  0
STYLE
  5
B6
100
AcDbSymbolTableRecord
100
AcDbTextStyleTableRecord
  2
textstyle90
 70
0
 40
0.0
 41
1.0
 50
0.0
 71
0
 42
5.0
  3

  4

1001
ACAD
1000
Arial
1071
0
  0
STYLE
  5
B7
100
AcDbSymbolTableRecord
100
AcDbTextStyleTableRecord
  2
textstyle91
 70
0
 40
0.0
 41
1.0
 50
0.0
 71
0
 42
5.0
  3

  4

1001
ACAD
1000
Arial
1071
0
  0
STYLE
  5
B8
100
AcDbSymbolTableRecord
100
AcDbTextStyleTableRecord
  2
textstyle92
 70
0
 40
0.0
 41
1.0
 50
0.0
 71
0
 42
5.0
  3

  4

1001
ACAD
1000
Arial
1071
0
  0
STYLE
  5
B9
100
AcDbSymbolTableRecord
100
AcDbTextStyleTableRecord
  2
textstyle93
 70
0
 40
0.0
 41
1.0
 50
0.0
 71
0
 42
5.0
  3

  4

1001
ACAD
1000
Arial
1071
0
  0
STYLE
  5
BA
100
AcDbSymbolTableRecord
100
AcDbTextStyleTableRecord
  2
textstyle94
 70
0
 40
0.0
 41
1.0
 50
0.0
 71
0
 42
5.0
  3

  4

1001
ACAD
1000
Arial
1071
0
  0
STYLE
  5
BB
100
AcDbSymbolTableRecord
100
AcDbTextStyleTableRecord
  2
textstyle95
 70
0
 40
0.0
 41
1.0
 50
0.0
 71
0
 42
5.0
  3

  4

1001
ACAD
1000
Arial
1071
0
  0
STYLE
  5
BC
100
AcDbSymbolTableRecord
100
AcDbTextStyleTableRecord
  2
textstyle96
 70
0
 40
0.0
 41
1.0
 50
0.0
 71
0
 42
5.0
  3

  4

1001
ACAD
1000
Arial
1071
0
  0
STYLE
  5
BD
100
AcDbSymbolTableRecord
100
AcDbTextStyleTableRecord
  2
textstyle97
 70
0
 40
0.0
 41
1.0
 50
0.0
 71
0
 42
6.0
  3

  4

1001
ACAD
1000
Arial
1071
0
  0
STYLE
  5
BE
100
AcDbSymbolTableRecord
100
AcDbTextStyleTableRecord
  2
textstyle98
 70
0
 40
0.0
 41
1.0
 50
0.0
 71
0
 42
6.0
  3

  4

1001
ACAD
1000
Arial
1071
0
  0
STYLE
  5
BF
100
AcDbSymbolTableRecord
100
AcDbTextStyleTableRecord
  2
textstyle99
 70
0
 40
0.0
 41
1.0
 50
0.0
 71
0
 42
5.0
  3

  4

1001
ACAD
1000
Arial
1071
0
  0
STYLE
  5
C0
100
AcDbSymbolTableRecord
100
AcDbTextStyleTableRecord
  2
textstyle100
 70
0
 40
0.0
 41
1.0
 50
0.0
 71
0
 42
6.0
  3

  4

1001
ACAD
1000
Arial
1071
0
  0
STYLE
  5
C1
100
AcDbSymbolTableRecord
100
AcDbTextStyleTableRecord
  2
textstyle101
 70
0
 40
0.0
 41
1.0
 50
0.0
 71
0
 42
6.0
  3

  4

1001
ACAD
1000
Arial
1071
0
  0
STYLE
  5
C2
100
AcDbSymbolTableRecord
100
AcDbTextStyleTableRecord
  2
textstyle102
 70
0
 40
0.0
 41
1.0
 50
0.0
 71
0
 42
6.0
  3

  4

1001
ACAD
1000
Arial
1071
0
  0
STYLE
  5
C3
100
AcDbSymbolTableRecord
100
AcDbTextStyleTableRecord
  2
textstyle103
 70
0
 40
0.0
 41
1.0
 50
0.0
 71
0
 42
6.0
  3

  4

1001
ACAD
1000
Arial
1071
0
  0
STYLE
  5
C4
100
AcDbSymbolTableRecord
100
AcDbTextStyleTableRecord
  2
textstyle104
 70
0
 40
0.0
 41
1.0
 50
0.0
 71
0
 42
6.0
  3

  4

1001
ACAD
1000
Arial
1071
0
  0
STYLE
  5
C5
100
AcDbSymbolTableRecord
100
AcDbTextStyleTableRecord
  2
textstyle105
 70
0
 40
0.0
 41
1.0
 50
0.0
 71
0
 42
5.0
  3

  4

1001
ACAD
1000
Arial
1071
0
  0
STYLE
  5
C6
100
AcDbSymbolTableRecord
100
AcDbTextStyleTableRecord
  2
textstyle106
 70
0
 40
0.0
 41
1.0
 50
0.0
 71
0
 42
6.0
  3

  4

1001
ACAD
1000
Arial
1071
0
  0
STYLE
  5
C7
100
AcDbSymbolTableRecord
100
AcDbTextStyleTableRecord
  2
textstyle107
 70
0
 40
0.0
 41
1.0
 50
0.0
 71
0
 42
5.0
  3

  4

1001
ACAD
1000
Arial
1071
0
  0
STYLE
  5
C8
100
AcDbSymbolTableRecord
100
AcDbTextStyleTableRecord
  2
textstyle108
 70
0
 40
0.0
 41
1.0
 50
0.0
 71
0
 42
5.0
  3

  4

1001
ACAD
1000
Arial
1071
0
  0
STYLE
  5
C9
100
AcDbSymbolTableRecord
100
AcDbTextStyleTableRecord
  2
textstyle109
 70
0
 40
0.0
 41
1.0
 50
0.0
 71
0
 42
5.0
  3

  4

1001
ACAD
1000
Arial
1071
0
  0
STYLE
  5
CA
100
AcDbSymbolTableRecord
100
AcDbTextStyleTableRecord
  2
textstyle110
 70
0
 40
0.0
 41
1.0
 50
0.0
 71
0
 42
5.0
  3

  4

1001
ACAD
1000
Arial
1071
0
  0
STYLE
  5
CB
100
AcDbSymbolTableRecord
100
AcDbTextStyleTableRecord
  2
textstyle111
 70
0
 40
0.0
 41
1.0
 50
0.0
 71
0
 42
5.0
  3

  4

1001
ACAD
1000
Arial
1071
0
  0
STYLE
  5
CC
100
AcDbSymbolTableRecord
100
AcDbTextStyleTableRecord
  2
textstyle112
 70
0
 40
0.0
 41
1.0
 50
0.0
 71
0
 42
6.0
  3

  4

1001
ACAD
1000
Arial
1071
0
  0
STYLE
  5
CD
100
AcDbSymbolTableRecord
100
AcDbTextStyleTableRecord
  2
textstyle113
 70
0
 40
0.0
 41
1.0
 50
0.0
 71
0
 42
5.0
  3

  4

1001
ACAD
1000
Arial
1071
0
  0
STYLE
  5
CE
100
AcDbSymbolTableRecord
100
AcDbTextStyleTableRecord
  2
textstyle114
 70
0
 40
0.0
 41
1.0
 50
0.0
 71
0
 42
5.0
  3

  4

1001
ACAD
1000
Arial
1071
0
  0
STYLE
  5
CF
100
AcDbSymbolTableRecord
100
AcDbTextStyleTableRecord
  2
textstyle115
 70
0
 40
0.0
 41
1.0
 50
0.0
 71
0
 42
5.0
  3

  4

1001
ACAD
1000
Arial
1071
0
  0
STYLE
  5
D0
100
AcDbSymbolTableRecord
100
AcDbTextStyleTableRecord
  2
textstyle116
 70
0
 40
0.0
 41
1.0
 50
0.0
 71
0
 42
8.0
  3

  4

1001
ACAD
1000
Arial
1071
0
  0
STYLE
  5
D1
100
AcDbSymbolTableRecord
100
AcDbTextStyleTableRecord
  2
textstyle117
 70
0
 40
0.0
 41
1.0
 50
0.0
 71
0
 42
5.0
  3

  4

1001
ACAD
1000
Arial
1071
0
  0
STYLE
  5
D2
100
AcDbSymbolTableRecord
100
AcDbTextStyleTableRecord
  2
textstyle118
 70
0
 40
0.0
 41
1.0
 50
0.0
 71
0
 42
5.0
  3

  4

1001
ACAD
1000
Arial
1071
0
  0
STYLE
  5
D3
100
AcDbSymbolTableRecord
100
AcDbTextStyleTableRecord
  2
textstyle119
 70
0
 40
0.0
 41
1.0
 50
0.0
 71
0
 42
5.0
  3

  4

1001
ACAD
1000
Arial
1071
0
  0
STYLE
  5
D4
100
AcDbSymbolTableRecord
100
AcDbTextStyleTableRecord
  2
textstyle120
 70
0
 40
0.0
 41
1.0
 50
0.0
 71
0
 42
5.0
  3

  4

1001
ACAD
1000
Arial
1071
0
  0
STYLE
  5
D5
100
AcDbSymbolTableRecord
100
AcDbTextStyleTableRecord
  2
textstyle121
 70
0
 40
0.0
 41
1.0
 50
0.0
 71
0
 42
5.0
  3

  4

1001
ACAD
1000
Arial
1071
0
  0
STYLE
  5
D6
100
AcDbSymbolTableRecord
100
AcDbTextStyleTableRecord
  2
textstyle122
 70
0
 40
0.0
 41
1.0
 50
0.0
 71
0
 42
5.0
  3

  4

1001
ACAD
1000
Arial
1071
0
  0
STYLE
  5
D7
100
AcDbSymbolTableRecord
100
AcDbTextStyleTableRecord
  2
textstyle123
 70
0
 40
0.0
 41
1.0
 50
0.0
 71
0
 42
5.0
  3

  4

1001
ACAD
1000
Arial
1071
0
  0
STYLE
  5
D8
100
AcDbSymbolTableRecord
100
AcDbTextStyleTableRecord
  2
textstyle124
 70
0
 40
0.0
 41
1.0
 50
0.0
 71
0
 42
5.0
  3

  4

1001
ACAD
1000
Arial
1071
0
  0
ENDTAB
  0
TABLE
  2
VIEW
  5
6
100
AcDbSymbolTable
 70
0
  0
ENDTAB
  0
TABLE
  2
UCS
  5
7
100
AcDbSymbolTable
 70
0
  0
ENDTAB
  0
TABLE
  2
APPID
  5
9
100
AcDbSymbolTable
 70
1
  0
APPID
  5
12
100
AcDbSymbolTableRecord
100
AcDbRegAppTableRecord
  2
ACAD
 70
0
  0
APPID
  5
D9
100
AcDbSymbolTableRecord
100
AcDbRegAppTableRecord
  2
QCAD
 70
0
  0
ENDTAB
  0
TABLE
  2
DIMSTYLE
  5
A
100
AcDbSymbolTable
 70
1
100
AcDbDimStyleTable
 71
0
  0
DIMSTYLE
105
27
100
AcDbSymbolTableRecord
100
AcDbDimStyleTableRecord
  2
Standard
 41
5.0
 42
1.25
 43
3.75
 44
2.5
 70
0
 73
0
 74
0
 77
1
 78
8
140
5.0
141
2.5
143
0.03937007874016
147
1.25
171
3
172
1
271
2
272
2
274
3
278
44
283
0
284
8
340
5B
  0
ENDTAB
  0
TABLE
  2
BLOCK_RECORD
  5
1
100
AcDbSymbolTable
 70
1
  0
BLOCK_RECORD
  5
1F
100
AcDbSymbolTableRecord
100
AcDbBlockTableRecord
  2
*Model_Space
340
22
  0
BLOCK_RECORD
  5
1B
100
AcDbSymbolTableRecord
100
AcDbBlockTableRecord
  2
*Paper_Space
340
1E
  0
BLOCK_RECORD
  5
23
100
AcDbSymbolTableRecord
100
AcDbBlockTableRecord
  2
*Paper_Space0
340
26
  0
BLOCK_RECORD
  5
DA
100
AcDbSymbolTableRecord
100
AcDbBlockTableRecord
  2
outlet_220
340
0
  0
BLOCK_RECORD
  5
DB
100
AcDbSymbolTableRecord
100
AcDbBlockTableRecord
  2
light
340
0
  0
BLOCK_RECORD
  5
DC
100
AcDbSymbolTableRecord
100
AcDbBlockTableRecord
  2
smoke_detector
340
0
  0
BLOCK_RECORD
  5
DD
100
AcDbSymbolTableRecord
100
AcDbBlockTableRecord
  2
switch
340
0
  0
BLOCK_RECORD
  5
DE
100
AcDbSymbolTableRecord
100
AcDbBlockTableRecord
  2
outlet
340
0
  0
ENDTAB
  0
ENDSEC
  0
SECTION
  2
BLOCKS
  0
BLOCK
  5
20
100
AcDbEntity
  8
0
100
AcDbBlockBegin
  2
*Model_Space
 70
0
 10
0.0
 20
0.0
 30
0.0
  3
*Model_Space
  1

  0
ENDBLK
  5
21
100
AcDbEntity
  8
0
100
AcDbBlockEnd
  0
BLOCK
  5
1C
100
AcDbEntity
 67
1
  8
0
100
AcDbBlockBegin
  2
*Paper_Space
 70
0
 10
0.0
 20
0.0
 30
0.0
  3
*Paper_Space
  1

  0
ENDBLK
  5
1D
100
AcDbEntity
 67
1
  8
0
100
AcDbBlockEnd
  0
BLOCK
  5
24
100
AcDbEntity
  8
0
100
AcDbBlockBegin
  2
*Paper_Space0
 70
0
 10
0.0
 20
0.0
 30
0.0
  3
*Paper_Space0
  1

  0
ENDBLK
  5
25
100
AcDbEntity
  8
0
100
AcDbBlockEnd
  0
BLOCK
  5
DF
100
AcDbEntity
  8
0
100
AcDbBlockBegin
  2
outlet_220
 70
0
 10
0.0
 20
0.0
 30
0.0
  3
outlet_220
  1

  0
CIRCLE
  5
E0
100
AcDbEntity
  8
electrical
 62
256
370
-1
 48
1.0
  6
BYLAYER
100
AcDbCircle
 10
0.0
 20
0.0
 30
0.0
 40
4.0
  0
LINE
  5
E1
100
AcDbEntity
  8
electrical
 62
256
370
-1
 48
1.0
  6
BYLAYER
100
AcDbLine
 10
-2.0
 20
3.4641016151377926
 30
0.0
 11
-2.0
 21
-10.0
 31
0.0
  0
LINE
  5
E2
100
AcDbEntity
  8
electrical
 62
256
370
-1
 48
1.0
  6
BYLAYER
100
AcDbLine
 10
2.0
 20
-10.0
 30
0.0
 11
2.0
 21
3.4641016151377926
 31
0.0
  0
LINE
  5
E3
100
AcDbEntity
  8
electrical
 62
256
370
-1
 48
1.0
  6
BYLAYER
100
AcDbLine
 10
0.0
 20
-10.0
 30
0.0
 11
0.0
 21
4.0
 31
0.0
  0
ENDBLK
  5
E4
100
AcDbEntity
  8
0
100
AcDbBlockEnd
  0
BLOCK
  5
E5
100
AcDbEntity
  8
0
100
AcDbBlockBegin
  2
light
 70
0
 10
0.0
 20
0.0
 30
0.0
  3
light
  1

  0
CIRCLE
  5
E6
100
AcDbEntity
  8
electrical
 62
256
370
-1
 48
1.0
  6
BYLAYER
100
AcDbCircle
 10
0.0
 20
0.0
 30
0.0
 40
4.0
  0
LINE
  5
E7
100
AcDbEntity
  8
electrical
 62
256
370
-1
 48
1.0
  6
BYLAYER
100
AcDbLine
 10
0.0
 20
4.0
 30
0.0
 11
0.0
 21
8.0
 31
0.0
  0
LINE
  5
E8
100
AcDbEntity
  8
electrical
 62
256
370
-1
 48
1.0
  6
BYLAYER
100
AcDbLine
 10
-4.0
 20
0.0
 30
0.0
 11
-8.0
 21
0.0
 31
0.0
  0
LINE
  5
E9
100
AcDbEntity
  8
electrical
 62
256
370
-1
 48
1.0
  6
BYLAYER
100
AcDbLine
 10
0.0
 20
-4.0
 30
0.0
 11
0.0
 21
-8.0
 31
0.0
  0
LINE
  5
EA
100
AcDbEntity
  8
electrical
 62
256
370
-1
 48
1.0
  6
BYLAYER
100
AcDbLine
 10
4.0
 20
0.0
 30
0.0
 11
8.0
 21
0.0
 31
0.0
  0
ENDBLK
  5
EB
100
AcDbEntity
  8
0
100
AcDbBlockEnd
  0
BLOCK
  5
EC
100
AcDbEntity
  8
0
100
AcDbBlockBegin
  2
smoke_detector
 70
0
 10
0.0
 20
0.0
 30
0.0
  3
smoke_detector
  1

  0
CIRCLE
  5
ED
100
AcDbEntity
  8
electrical
 62
256
370
-1
 48
1.0
  6
BYLAYER
100
AcDbCircle
 10
0.0
 20
0.0
 30
0.0
 40
4.0
  0
MTEXT
  5
EE
100
AcDbEntity
  8
electrical
 62
256
370
-1
 48
1.0
  6
BYLAYER
100
AcDbMText
 10
-3.0
 20
6.25
 30
0.0
 40
8.0
 41
0.0
 71
1
 72
1
  1
\H3.42857;SD
  7
textstyle116
 50
0.0
 73
2
 44
1.0
  0
ENDBLK
  5
EF
100
AcDbEntity
  8
0
100
AcDbBlockEnd
  0
BLOCK
  5
F0
100
AcDbEntity
  8
0
100
AcDbBlockBegin
  2
switch
 70
0
 10
0.0
 20
0.0
 30
0.0
  3
switch
  1

  0
ARC
  5
F1
100
AcDbEntity
  8
electrical
 62
256
370
-1
 48
1.0
  6
BYLAYER
100
AcDbCircle
 10
-9.3999999999999986
 20
3.0
 30
0.0
 40
2.3999999999999999
100
AcDbArc
 50
116.56505117707799
 51
0.0
  0
ARC
  5
F2
100
AcDbEntity
  8
electrical
 62
256
370
-1
 48
1.0
  6
BYLAYER
100
AcDbCircle
 10
-9.3999999999999986
 20
3.0
 30
0.0
 40
2.3999999999999999
100
AcDbArc
 50
90.0
 51
116.56505117707799
  0
ARC
  5
F3
100
AcDbEntity
  8
electrical
 62
256
370
-1
 48
1.0
  6
BYLAYER
100
AcDbCircle
 10
-4.6000000000000005
 20
3.0
 30
0.0
 40
2.3999999999999999
100
AcDbArc
 50
296.5650511770779758
 51
180.0
  0
LINE
  5
F4
100
AcDbEntity
  8
electrical
 62
256
370
-1
 48
1.0
  6
BYLAYER
100
AcDbLine
 10
-13.0
 20
3.0
 30
0.0
 11
-1.0000000000000009
 21
3.0
 31
0.0
  0
ENDBLK
  5
F5
100
AcDbEntity
  8
0
100
AcDbBlockEnd
  0
BLOCK
  5
F6
100
AcDbEntity
  8
0
100
AcDbBlockBegin
  2
outlet
 70
0
 10
0.0
 20
0.0
 30
0.0
  3
outlet
  1

  0
CIRCLE
  5
F7
100
AcDbEntity
  8
electrical
 62
256
370
-1
 48
1.0
  6
BYLAYER
100
AcDbCircle
 10
0.0
 20
0.0
 30
0.0
 40
4.0
  0
LINE
  5
F8
100
AcDbEntity
  8
electrical
 62
256
370
-1
 48
1.0
  6
BYLAYER
100
AcDbLine
 10
-2.0
 20
3.4641016151377926
 30
0.0
 11
-2.0
 21
-10.0
 31
0.0
  0
LINE
  5
F9
100
AcDbEntity
  8
electrical
 62
256
370
-1
 48
1.0
  6
BYLAYER
100
AcDbLine
 10
2.0
 20
-10.0
 30
0.0
 11
2.0
 21
3.4641016151377926
 31
0.0
  0
ENDBLK
  5
FA
100
AcDbEntity
  8
0
100
AcDbBlockEnd
  0
ENDSEC
  0
SECTION
  2
ENTITIES
  0
INSERT
  5
FB
100
AcDbEntity
  8
electrical
 62
256
370
-1
 48
1.0
  6
BYLAYER
100
AcDbBlockReference
  2
outlet
 10
-308.0
 20
-224.0
 30
0.0
  0
LINE
  5
FC
100
AcDbEntity
  8
0
 62
256
370
-1
 48
1.0
  6
BYLAYER
100
AcDbLine
 10
196.0
 20
36.5
 30
0.0
 11
196.0
 21
194.0
 31
0.0
  0
LINE
  5
FD
100
AcDbEntity
  8
0
 62
256
370
-1
 48
1.0
  6
BYLAYER
100
AcDbLine
 10
196.0
 20
194.0
 30
0.0
 11
6.0
 21
194.0
 31
0.0
  0
LINE
  5
FE
100
AcDbEntity
  8
0
 62
256
370
-1
 48
1.0
  6
BYLAYER
100
AcDbLine
 10
168.0
 20
32.5
 30
0.0
 11
168.0
 21
-57.0
 31
0.0
  0
LINE
  5
FF
100
AcDbEntity
  8
0
 62
256
370
-1
 48
1.0
  6
BYLAYER
100
AcDbLine
 10
85.0
 20
-57.0
 30
0.0
 11
168.0
 21
-57.0
 31
0.0
  0
LINE
  5
100
100
AcDbEntity
  8
0
 62
256
370
-1
 48
1.0
  6
BYLAYER
100
AcDbLine
 10
168.0
 20
-57.0
 30
0.0
 11
168.0
 21
32.5
 31
0.0
  0
LINE
  5
101
100
AcDbEntity
  8
0
 62
256
370
-1
 48
1.0
  6
BYLAYER
100
AcDbLine
 10
85.0
 20
-57.0
 30
0.0
 11
85.0
 21
-17.5
 31
0.0
  0
LINE
  5
102
100
AcDbEntity
  8
0
 62
256
370
-1
 48
1.0
  6
BYLAYER
100
AcDbLine
 10
80.5
 20
-57.0
 30
0.0
 11
80.5
 21
-17.5
 31
0.0
  0
LINE
  5
103
100
AcDbEntity
  8
0
 62
256
370
-1
 48
1.0
  6
BYLAYER
100
AcDbLine
 10
-27.0
 20
-57.0
 30
0.0
 11
80.5
 21
-57.0
 31
0.0
  0
LINE
  5
104
100
AcDbEntity
  8
0
 62
256
370
-1
 48
1.0
  6
BYLAYER
100
AcDbLine
 10
-27.0
 20
-57.0
 30
0.0
 11
-26.9999999999999964
 21
-17.5
 31
0.0
  0
LINE
  5
105
100
AcDbEntity
  8
0
 62
256
370
-1
 48
1.0
  6
BYLAYER
100
AcDbLine
 10
-31.5
 20
-57.0
 30
0.0
 11
-31.5
 21
-17.5
 31
0.0
  0
LINE
  5
106
100
AcDbEntity
  8
0
 62
256
370
-1
 48
1.0
  6
BYLAYER
100
AcDbLine
 10
-108.0
 20
-57.0
 30
0.0
 11
-31.5
 21
-57.0
 31
0.0
  0
LINE
  5
107
100
AcDbEntity
  8
0
 62
256
370
-1
 48
1.0
  6
BYLAYER
100
AcDbLine
 10
-108.0
 20
-57.0
 30
0.0
 11
-108.0
 21
36.0
 31
0.0
  0
LINE
  5
108
100
AcDbEntity
  8
0
 62
256
370
-1
 48
1.0
  6
BYLAYER
100
AcDbLine
 10
-112.5
 20
-57.0
 30
0.0
 11
-112.5
 21
40.5
 31
0.0
  0
LINE
  5
109
100
AcDbEntity
  8
0
 62
256
370
-1
 48
1.0
  6
BYLAYER
100
AcDbLine
 10
172.5
 20
32.0
 30
0.0
 11
172.5
 21
-61.5000000000000142
 31
0.0
  0
LINE
  5
10A
100
AcDbEntity
  8
0
 62
256
370
-1
 48
1.0
  6
BYLAYER
100
AcDbLine
 10
200.5
 20
32.0
 30
0.0
 11
200.5
 21
198.4999999999999716
 31
0.0
  0
LINE
  5
10B
100
AcDbEntity
  8
0
 62
256
370
-1
 48
1.0
  6
BYLAYER
100
AcDbLine
 10
172.5
 20
32.0
 30
0.0
 11
200.5
 21
32.0
 31
0.0
  0
LINE
  5
10C
100
AcDbEntity
  8
0
 62
256
370
-1
 48
1.0
  6
BYLAYER
100
AcDbLine
 10
1.4999999999999929
 20
75.0
 30
0.0
 11
1.4999999999999929
 21
107.0
 31
0.0
  0
LINE
  5
10D
100
AcDbEntity
  8
0
 62
256
370
-1
 48
1.0
  6
BYLAYER
100
AcDbLine
 10
1.4999999999999929
 20
107.0
 30
0.0
 11
-27.0000000000000071
 21
107.0
 31
0.0
  0
LINE
  5
10E
100
AcDbEntity
  8
0
 62
256
370
-1
 48
1.0
  6
BYLAYER
100
AcDbLine
 10
-27.0000000000000071
 20
107.0
 30
0.0
 11
-27.0000000000000071
 21
75.0
 31
0.0
  0
LINE
  5
10F
100
AcDbEntity
  8
0
 62
256
370
-1
 48
1.0
  6
BYLAYER
100
AcDbLine
 10
-31.5000000000000071
 20
111.5
 30
0.0
 11
-31.5000000000000071
 21
75.0
 31
0.0
  0
LINE
  5
110
100
AcDbEntity
  8
0
 62
256
370
-1
 48
1.0
  6
BYLAYER
100
AcDbLine
 10
1.4999999999999929
 20
111.5
 30
0.0
 11
-31.5000000000000071
 21
111.5
 31
0.0
  0
LINE
  5
111
100
AcDbEntity
  8
0
 62
256
370
-1
 48
1.0
  6
BYLAYER
100
AcDbLine
 10
80.5
 20
-17.5
 30
0.0
 11
85.0
 21
-17.5
 31
0.0
  0
LINE
  5
112
100
AcDbEntity
  8
0
 62
256
370
-1
 48
1.0
  6
BYLAYER
100
AcDbLine
 10
-31.5
 20
-17.5
 30
0.0
 11
-26.9999999999999964
 21
-17.5
 31
0.0
  0
LINE
  5
113
100
AcDbEntity
  8
railing
 62
256
370
-1
 48
1.0
  6
BYLAYER
100
AcDbLine
 10
82.75
 20
-17.5
 30
0.0
 11
82.75
 21
27.5
 31
0.0
  0
LINE
  5
114
100
AcDbEntity
  8
railing
 62
256
370
-1
 48
1.0
  6
BYLAYER
100
AcDbLine
 10
-29.25
 20
-17.5
 30
0.0
 11
-29.2499999999999964
 21
27.5
 31
0.0
  0
LINE
  5
115
100
AcDbEntity
  8
0
 62
256
370
-1
 48
1.0
  6
BYLAYER
100
AcDbLine
 10
168.0
 20
5.5
 30
0.0
 11
168.0
 21
32.5
 31
0.0
  0
LINE
  5
116
100
AcDbEntity
  8
0
 62
256
370
-1
 48
1.0
  6
BYLAYER
100
AcDbLine
 10
168.0
 20
32.5
 30
0.0
 11
124.0
 21
32.5
 31
0.0
  0
LINE
  5
117
100
AcDbEntity
  8
0
 62
256
370
-1
 48
1.0
  6
BYLAYER
100
AcDbLine
 10
124.0
 20
32.5
 30
0.0
 11
124.0
 21
5.5
 31
0.0
  0
LINE
  5
118
100
AcDbEntity
  8
0
 62
256
370
-1
 48
1.0
  6
BYLAYER
100
AcDbLine
 10
119.5
 20
11.5
 30
0.0
 11
119.5
 21
5.5
 31
0.0
  0
LINE
  5
119
100
AcDbEntity
  8
0
 62
256
370
-1
 48
1.0
  6
BYLAYER
100
AcDbLine
 10
196.0
 20
36.5
 30
0.0
 11
119.5
 21
36.5
 31
0.0
  0
LINE
  5
11A
100
AcDbEntity
  8
0
 62
256
370
-1
 48
1.0
  6
BYLAYER
100
AcDbLine
 10
119.5
 20
5.5
 30
0.0
 11
124.0
 21
5.5
 31
0.0
  0
LINE
  5
11B
100
AcDbEntity
  8
0
 62
256
370
-1
 48
1.0
  6
BYLAYER
100
AcDbLine
 10
5.9999999999999929
 20
75.0
 30
0.0
 11
6.0
 21
194.0
 31
0.0
  0
LINE
  5
11C
100
AcDbEntity
  8
0
 62
256
370
-1
 48
1.0
  6
BYLAYER
100
AcDbLine
 10
1.4999999999999929
 20
111.5
 30
0.0
 11
1.499999999999998
 21
194.0
 31
0.0
  0
LINE
  5
11D
100
AcDbEntity
  8
0
 62
256
370
-1
 48
1.0
  6
BYLAYER
100
AcDbLine
 10
1.4999999999999929
 20
75.0
 30
0.0
 11
5.9999999999999929
 21
75.0
 31
0.0
  0
LINE
  5
11E
100
AcDbEntity
  8
0
 62
256
370
-1
 48
1.0
  6
BYLAYER
100
AcDbLine
 10
-31.5000000000000071
 20
75.0
 30
0.0
 11
-27.0000000000000071
 21
75.0
 31
0.0
  0
LINE
  5
11F
100
AcDbEntity
  8
0
 62
256
370
-1
 48
1.0
  6
BYLAYER
100
AcDbLine
 10
-158.0
 20
194.0
 30
0.0
 11
1.499999999999998
 21
194.0
 31
0.0
  0
LINE
  5
120
100
AcDbEntity
  8
0
 62
256
370
-1
 48
1.0
  6
BYLAYER
100
AcDbLine
 10
-158.0
 20
79.5
 30
0.0
 11
-158.0
 21
194.0
 31
0.0
  0
LINE
  5
121
100
AcDbEntity
  8
0
 62
256
370
-1
 48
1.0
  6
BYLAYER
100
AcDbLine
 10
-158.0
 20
79.5
 30
0.0
 11
-77.0
 21
79.5
 31
0.0
  0
LINE
  5
122
100
AcDbEntity
  8
0
 62
256
370
-1
 48
1.0
  6
BYLAYER
100
AcDbLine
 10
-162.5
 20
75.0
 30
0.0
 11
-77.0
 21
75.0
 31
0.0
  0
LINE
  5
123
100
AcDbEntity
  8
0
 62
256
370
-1
 48
1.0
  6
BYLAYER
100
AcDbLine
 10
-108.0
 20
36.0
 30
0.0
 11
-72.0
 21
36.0
 31
0.0
  0
LINE
  5
124
100
AcDbEntity
  8
0
 62
256
370
-1
 48
1.0
  6
BYLAYER
100
AcDbLine
 10
-112.5
 20
40.5
 30
0.0
 11
-67.5
 21
40.5
 31
0.0
  0
LINE
  5
125
100
AcDbEntity
  8
0
 62
256
370
-1
 48
1.0
  6
BYLAYER
100
AcDbLine
 10
-67.5
 20
40.5
 30
0.0
 11
-67.5
 21
36.0
 31
0.0
  0
LINE
  5
126
100
AcDbEntity
  8
0
 62
256
370
-1
 48
1.0
  6
BYLAYER
100
AcDbLine
 10
-77.0
 20
79.5
 30
0.0
 11
-77.0
 21
75.0
 31
0.0
  0
LINE
  5
127
100
AcDbEntity
  8
0
 62
256
370
-1
 48
1.0
  6
BYLAYER
100
AcDbLine
 10
-172.0
 20
-57.0
 30
0.0
 11
-112.5
 21
-57.0
 31
0.0
  0
LINE
  5
128
100
AcDbEntity
  8
0
 62
256
370
-1
 48
1.0
  6
BYLAYER
100
AcDbLine
 10
-172.0
 20
-57.0
 30
0.0
 11
-172.0
 21
36.0
 31
0.0
  0
LINE
  5
129
100
AcDbEntity
  8
0
 62
256
370
-1
 48
1.0
  6
BYLAYER
100
AcDbLine
 10
-178.5
 20
-57.0
 30
0.0
 11
-178.5
 21
36.0
 31
0.0
  0
LINE
  5
12A
100
AcDbEntity
  8
0
 62
256
370
-1
 48
1.0
  6
BYLAYER
100
AcDbLine
 10
-205.5
 20
36.0
 30
0.0
 11
-178.5
 21
36.0
 31
0.0
  0
LINE
  5
12B
100
AcDbEntity
  8
0
 62
256
370
-1
 48
1.0
  6
BYLAYER
100
AcDbLine
 10
-205.5
 20
40.5
 30
0.0
 11
-145.0
 21
40.5
 31
0.0
  0
LINE
  5
12C
100
AcDbEntity
  8
0
 62
256
370
-1
 48
1.0
  6
BYLAYER
100
AcDbLine
 10
-172.0
 20
36.0
 30
0.0
 11
-145.0
 21
36.0
 31
0.0
  0
LINE
  5
12D
100
AcDbEntity
  8
0
 62
256
370
-1
 48
1.0
  6
BYLAYER
100
AcDbLine
 10
-145.0
 20
36.0
 30
0.0
 11
-145.0
 21
40.5
 31
0.0
  0
LINE
  5
12E
100
AcDbEntity
  8
0
 62
256
370
-1
 48
1.0
  6
BYLAYER
100
AcDbLine
 10
-351.0
 20
-57.0
 30
0.0
 11
-178.5
 21
-57.0
 31
0.0
  0
LINE
  5
12F
100
AcDbEntity
  8
0
 62
256
370
-1
 48
1.0
  6
BYLAYER
100
AcDbLine
 10
-351.0
 20
-57.0
 30
0.0
 11
-351.0
 21
76.5
 31
0.0
  0
LINE
  5
130
100
AcDbEntity
  8
0
 62
256
370
-1
 48
1.0
  6
BYLAYER
100
AcDbLine
 10
-351.0
 20
76.5
 30
0.0
 11
-205.5
 21
76.5
 31
0.0
  0
LINE
  5
131
100
AcDbEntity
  8
0
 62
256
370
-1
 48
1.0
  6
BYLAYER
100
AcDbLine
 10
-351.0
 20
81.0
 30
0.0
 11
-199.0
 21
81.0
 31
0.0
  0
LINE
  5
132
100
AcDbEntity
  8
0
 62
256
370
-1
 48
1.0
  6
BYLAYER
100
AcDbLine
 10
-351.0
 20
81.0
 30
0.0
 11
-351.0
 21
194.0
 31
0.0
  0
LINE
  5
133
100
AcDbEntity
  8
0
 62
256
370
-1
 48
1.0
  6
BYLAYER
100
AcDbLine
 10
-162.5
 20
194.0
 30
0.0
 11
-351.0
 21
194.0
 31
0.0
  0
LINE
  5
134
100
AcDbEntity
  8
0
 62
256
370
-1
 48
1.0
  6
BYLAYER
100
AcDbLine
 10
-205.5
 20
76.5
 30
0.0
 11
-205.5
 21
74.5
 31
0.0
  0
LINE
  5
135
100
AcDbEntity
  8
0
 62
256
370
-1
 48
1.0
  6
BYLAYER
100
AcDbLine
 10
-201.0
 20
76.5
 30
0.0
 11
-201.0
 21
74.5
 31
0.0
  0
LINE
  5
136
100
AcDbEntity
  8
0
 62
256
370
-1
 48
1.0
  6
BYLAYER
100
AcDbLine
 10
-201.0
 20
76.5
 30
0.0
 11
-199.0
 21
76.5
 31
0.0
  0
LINE
  5
137
100
AcDbEntity
  8
0
 62
256
370
-1
 48
1.0
  6
BYLAYER
100
AcDbLine
 10
-199.0
 20
76.5
 30
0.0
 11
-199.0
 21
81.0
 31
0.0
  0
LINE
  5
138
100
AcDbEntity
  8
0
 62
256
370
-1
 48
1.0
  6
BYLAYER
100
AcDbLine
 10
-205.5
 20
74.5
 30
0.0
 11
-201.0
 21
74.5
 31
0.0
  0
LINE
  5
139
100
AcDbEntity
  8
0
 62
256
370
-1
 48
1.0
  6
BYLAYER
100
AcDbLine
 10
-67.5
 20
-24.0
 30
0.0
 11
-67.5
 21
36.0
 31
0.0
  0
LINE
  5
13A
100
AcDbEntity
  8
0
 62
256
370
-1
 48
1.0
  6
BYLAYER
100
AcDbLine
 10
-72.0
 20
-24.0
 30
0.0
 11
-72.0
 21
36.0
 31
0.0
  0
LINE
  5
13B
100
AcDbEntity
  8
0
 62
256
370
-1
 48
1.0
  6
BYLAYER
100
AcDbLine
 10
-72.0
 20
-24.0
 30
0.0
 11
-67.5
 21
-24.0
 31
0.0
  0
LINE
  5
13C
100
AcDbEntity
  8
0
 62
256
370
-1
 48
1.0
  6
BYLAYER
100
AcDbLine
 10
-31.5
 20
-17.5
 30
0.0
 11
-31.5
 21
36.0
 31
0.0
  0
LINE
  5
13D
100
AcDbEntity
  8
0
 62
256
370
-1
 48
1.0
  6
BYLAYER
100
AcDbLine
 10
-67.5
 20
36.0
 30
0.0
 11
-31.5
 21
36.0
 31
0.0
  0
LINE
  5
13E
100
AcDbEntity
  8
0
 62
256
370
-1
 48
1.0
  6
BYLAYER
100
AcDbLine
 10
-67.5
 20
26.0
 30
0.0
 11
-31.5
 21
26.0
 31
0.0
  0
LINE
  5
13F
100
AcDbEntity
  8
0
 62
256
370
-1
 48
1.0
  6
BYLAYER
100
AcDbLine
 10
-67.5
 20
16.0
 30
0.0
 11
-31.5
 21
16.0
 31
0.0
  0
LINE
  5
140
100
AcDbEntity
  8
0
 62
256
370
-1
 48
1.0
  6
BYLAYER
100
AcDbLine
 10
-67.5
 20
6.0
 30
0.0
 11
-31.5
 21
6.0
 31
0.0
  0
LINE
  5
141
100
AcDbEntity
  8
0
 62
256
370
-1
 48
1.0
  6
BYLAYER
100
AcDbLine
 10
-67.5
 20
-4.0
 30
0.0
 11
-31.5
 21
-4.0
 31
0.0
  0
LINE
  5
142
100
AcDbEntity
  8
0
 62
256
370
-1
 48
1.0
  6
BYLAYER
100
AcDbLine
 10
-67.5
 20
-14.0
 30
0.0
 11
-31.5
 21
-14.0
 31
0.0
  0
LINE
  5
143
100
AcDbEntity
  8
0
 62
256
370
-1
 48
1.0
  6
BYLAYER
100
AcDbLine
 10
-67.5
 20
-24.0
 30
0.0
 11
-31.4999999999999929
 21
-24.0
 31
0.0
  0
LINE
  5
144
100
AcDbEntity
  8
0
 62
256
370
-1
 48
1.0
  6
BYLAYER
100
AcDbLine
 10
85.0
 20
-17.5
 30
0.0
 11
85.0
 21
11.5
 31
0.0
  0
LINE
  5
145
100
AcDbEntity
  8
0
 62
256
370
-1
 48
1.0
  6
BYLAYER
100
AcDbLine
 10
85.0
 20
31.5
 30
0.0
 11
119.5
 21
31.5
 31
0.0
  0
LINE
  5
146
100
AcDbEntity
  8
0
 62
256
370
-1
 48
1.0
  6
BYLAYER
100
AcDbLine
 10
85.0
 20
21.5
 30
0.0
 11
119.5
 21
21.5
 31
0.0
  0
LINE
  5
147
100
AcDbEntity
  8
0
 62
256
370
-1
 48
1.0
  6
BYLAYER
100
AcDbLine
 10
85.0
 20
11.5
 30
0.0
 11
119.5
 21
11.5
 31
0.0
  0
LINE
  5
148
100
AcDbEntity
  8
0
 62
256
370
-1
 48
1.0
  6
BYLAYER
100
AcDbLine
 10
-162.5
 20
75.0
 30
0.0
 11
-162.5
 21
111.5
 31
0.0
  0
LINE
  5
149
100
AcDbEntity
  8
0
 62
256
370
-1
 48
1.0
  6
BYLAYER
100
AcDbLine
 10
-189.5
 20
111.5
 30
0.0
 11
-162.5
 21
111.5
 31
0.0
  0
LINE
  5
14A
100
AcDbEntity
  8
0
 62
256
370
-1
 48
1.0
  6
BYLAYER
100
AcDbLine
 10
-162.5
 20
124.5
 30
0.0
 11
-189.5
 21
124.5
 31
0.0
  0
LINE
  5
14B
100
AcDbEntity
  8
0
 62
256
370
-1
 48
1.0
  6
BYLAYER
100
AcDbLine
 10
-189.5
 20
124.5
 30
0.0
 11
-189.5
 21
111.5
 31
0.0
  0
LINE
  5
14C
100
AcDbEntity
  8
0
 62
256
370
-1
 48
1.0
  6
BYLAYER
100
AcDbLine
 10
-162.5
 20
124.5
 30
0.0
 11
-162.5
 21
194.0
 31
0.0
  0
LINE
  5
14D
100
AcDbEntity
  8
0
 62
256
370
-1
 48
1.0
  6
BYLAYER
100
AcDbLine
 10
-205.5
 20
40.5
 30
0.0
 11
-205.5
 21
36.0
 31
0.0
  0
LINE
  5
14E
100
AcDbEntity
  8
0
 62
256
370
-1
 48
1.0
  6
BYLAYER
100
AcDbLine
 10
-355.5
 20
-61.5
 30
0.0
 11
172.5
 21
-61.5
 31
0.0
  0
LINE
  5
14F
100
AcDbEntity
  8
0
 62
256
370
-1
 48
1.0
  6
BYLAYER
100
AcDbLine
 10
-355.5
 20
-61.5
 30
0.0
 11
-355.5
 21
198.5
 31
0.0
  0
LINE
  5
150
100
AcDbEntity
  8
0
 62
256
370
-1
 48
1.0
  6
BYLAYER
100
AcDbLine
 10
200.5
 20
198.5
 30
0.0
 11
-355.5
 21
198.5
 31
0.0
  0
DIMENSION
  5
151
100
AcDbEntity
  8
dimensions
 62
256
370
-1
 48
1.0
  6
BYLAYER
100
AcDbDimension
 10
6.0000000000000027
 20
216.5
 30
0.0
 11
101.0
 21
220.25
 31
0.0
 70
1
 71
8
 72
2
 74
0
 75
0
 41
1.0
 42
0.0
  1

  3
Standard
100
AcDbAlignedDimension
 13
6.0000000000000009
 23
194.0
 33
0.0
 14
196.0
 24
194.0
 34
0.0
1001
ACAD
1000
DSTYLE
1002
{
1070
144
1040
1.0
1070
40
1040
1.0
1002
}
  0
DIMENSION
  5
152
100
AcDbEntity
  8
dimensions
 62
256
370
-1
 48
1.0
  6
BYLAYER
100
AcDbDimension
 10
217.5
 20
194.0
 30
0.0
 11
213.75
 21
115.25
 31
0.0
 70
1
 71
8
 72
2
 74
0
 75
0
 41
1.0
 42
0.0
  1

  3
Standard
100
AcDbAlignedDimension
 13
196.0
 23
194.0
 33
0.0
 14
196.0
 24
36.5
 34
0.0
1001
ACAD
1000
DSTYLE
1002
{
1070
144
1040
1.0
1070
40
1040
1.0
1002
}
  0
DIMENSION
  5
153
100
AcDbEntity
  8
dimensions
 62
256
370
-1
 48
1.0
  6
BYLAYER
100
AcDbDimension
 10
-27.0
 20
-82.8111718989671601
 30
0.0
 11
26.75
 21
-79.0611718989671601
 31
0.0
 70
1
 71
8
 72
2
 74
0
 75
0
 41
1.0
 42
0.0
  1

  3
Standard
100
AcDbAlignedDimension
 13
-27.0
 23
-57.0
 33
0.0
 14
80.5
 24
-57.0
 34
0.0
1001
ACAD
1000
DSTYLE
1002
{
1070
144
1040
1.0
1070
40
1040
1.0
1002
}
  0
DIMENSION
  5
154
100
AcDbEntity
  8
dimensions
 62
256
370
-1
 48
1.0
  6
BYLAYER
100
AcDbDimension
 10
-10.5
 20
-57.0
 30
0.0
 11
-14.25
 21
-10.5
 31
0.0
 70
1
 71
8
 72
2
 74
0
 75
0
 41
1.0
 42
0.0
  1

  3
Standard
100
AcDbAlignedDimension
 13
-27.0
 23
-57.0
 33
0.0
 14
-27.0
 24
36.0
 34
0.0
1001
ACAD
1000
DSTYLE
1002
{
1070
144
1040
1.0
1070
40
1040
1.0
1002
}
  0
DIMENSION
  5
155
100
AcDbEntity
  8
dimensions
 62
256
370
-1
 48
1.0
  6
BYLAYER
100
AcDbDimension
 10
17.5
 20
75.0
 30
0.0
 11
13.75
 21
91.0
 31
0.0
 70
1
 71
8
 72
2
 74
0
 75
0
 41
1.0
 42
0.0
  1

  3
Standard
100
AcDbAlignedDimension
 13
1.4999999999999929
 23
75.0
 33
0.0
 14
1.4999999999999929
 24
107.0
 34
0.0
1001
ACAD
1000
DSTYLE
1002
{
1070
144
1040
1.0
1070
40
1040
1.0
1002
}
  0
DIMENSION
  5
156
100
AcDbEntity
  8
dimensions
 62
256
370
-1
 48
1.0
  6
BYLAYER
100
AcDbDimension
 10
1.4999999999999845
 20
60.5
 30
0.0
 11
17.2638888888888751
 21
64.2499999999999858
 31
0.0
 70
1
 71
8
 72
2
 74
0
 75
0
 41
1.0
 42
0.0
  1

  3
Standard
100
AcDbAlignedDimension
 13
1.4999999999999929
 23
107.0
 33
0.0
 14
-27.0000000000000071
 24
107.0
 34
0.0
1001
ACAD
1000
DSTYLE
1002
{
1070
144
1040
1.0
1070
40
1040
1.0
1002
}
  0
DIMENSION
  5
157
100
AcDbEntity
  8
dimensions
 62
256
370
-1
 48
1.0
  6
BYLAYER
100
AcDbDimension
 10
-205.5
 20
48.5
 30
0.0
 11
-102.0
 21
52.25
 31
0.0
 70
1
 71
8
 72
2
 74
0
 75
0
 41
1.0
 42
0.0
  1

  3
Standard
100
AcDbAlignedDimension
 13
-205.5
 23
40.5
 33
0.0
 14
1.5
 24
40.5
 34
0.0
1001
ACAD
1000
DSTYLE
1002
{
1070
144
1040
1.0
1070
40
1040
1.0
1002
}
  0
DIMENSION
  5
158
100
AcDbEntity
  8
dimensions
 62
256
370
-1
 48
1.0
  6
BYLAYER
100
AcDbDimension
 10
-178.5
 20
-83.5
 30
0.0
 11
-264.75
 21
-79.75
 31
0.0
 70
1
 71
8
 72
2
 74
0
 75
0
 41
1.0
 42
0.0
  1

  3
Standard
100
AcDbAlignedDimension
 13
-178.5
 23
-57.0
 33
0.0
 14
-351.0
 24
-57.0
 34
0.0
1001
ACAD
1000
DSTYLE
1002
{
1070
144
1040
1.0
1070
40
1040
1.0
1002
}
  0
DIMENSION
  5
159
100
AcDbEntity
  8
dimensions
 62
256
370
-1
 48
1.0
  6
BYLAYER
100
AcDbDimension
 10
-370.5
 20
-57.0
 30
0.0
 11
-374.25
 21
9.75
 31
0.0
 70
1
 71
8
 72
2
 74
0
 75
0
 41
1.0
 42
0.0
  1

  3
Standard
100
AcDbAlignedDimension
 13
-351.0
 23
-57.0
 33
0.0
 14
-351.0
 24
76.5
 34
0.0
1001
ACAD
1000
DSTYLE
1002
{
1070
144
1040
1.0
1070
40
1040
1.0
1002
}
  0
DIMENSION
  5
15A
100
AcDbEntity
  8
dimensions
 62
256
370
-1
 48
1.0
  6
BYLAYER
100
AcDbDimension
 10
-370.5
 20
81.0
 30
0.0
 11
-374.25
 21
137.5
 31
0.0
 70
1
 71
8
 72
2
 74
0
 75
0
 41
1.0
 42
0.0
  1

  3
Standard
100
AcDbAlignedDimension
 13
-351.0
 23
81.0
 33
0.0
 14
-351.0
 24
194.0
 34
0.0
1001
ACAD
1000
DSTYLE
1002
{
1070
144
1040
1.0
1070
40
1040
1.0
1002
}
  0
DIMENSION
  5
15B
100
AcDbEntity
  8
dimensions
 62
256
370
-1
 48
1.0
  6
BYLAYER
100
AcDbDimension
 10
-162.5
 20
216.5
 30
0.0
 11
-256.75
 21
220.25
 31
0.0
 70
1
 71
8
 72
2
 74
0
 75
0
 41
1.0
 42
0.0
  1

  3
Standard
100
AcDbAlignedDimension
 13
-162.5
 23
194.0
 33
0.0
 14
-351.0
 24
194.0
 34
0.0
1001
ACAD
1000
DSTYLE
1002
{
1070
144
1040
1.0
1070
40
1040
1.0
1002
}
  0
DIMENSION
  5
15C
100
AcDbEntity
  8
dimensions
 62
256
370
-1
 48
1.0
  6
BYLAYER
100
AcDbDimension
 10
-58.5
 20
75.0
 30
0.0
 11
-62.25
 21
57.75
 31
0.0
 70
1
 71
8
 72
2
 74
0
 75
0
 41
1.0
 42
0.0
  1

  3
Standard
100
AcDbAlignedDimension
 13
-77.0
 23
75.0
 33
0.0
 14
-77.0
 24
40.5
 34
0.0
1001
ACAD
1000
DSTYLE
1002
{
1070
144
1040
1.0
1070
40
1040
1.0
1002
}
  0
DIMENSION
  5
15D
100
AcDbEntity
  8
dimensions
 62
256
370
-1
 48
1.0
  6
BYLAYER
100
AcDbDimension
 10
-67.5
 20
-41.9468726823975544
 30
0.0
 11
-49.5
 21
-38.1968726823975544
 31
0.0
 70
1
 71
8
 72
2
 74
0
 75
0
 41
1.0
 42
0.0
  1

  3
Standard
100
AcDbAlignedDimension
 13
-67.5
 23
-24.0
 33
0.0
 14
-31.5
 24
-24.0
 34
0.0
1001
ACAD
1000
DSTYLE
1002
{
1070
144
1040
1.0
1070
40
1040
1.0
1002
}
  0
DIMENSION
  5
15E
100
AcDbEntity
  8
dimensions
 62
256
370
-1
 48
1.0
  6
BYLAYER
100
AcDbDimension
 10
-82.5
 20
-24.0
 30
0.0
 11
-86.25
 21
6.0000000000000009
 31
0.0
 70
1
 71
8
 72
2
 74
0
 75
0
 41
1.0
 42
0.0
  1

  3
Standard
100
AcDbAlignedDimension
 13
-72.0
 23
-24.0
 33
0.0
 14
-72.0
 24
36.0
 34
0.0
1001
ACAD
1000
DSTYLE
1002
{
1070
144
1040
1.0
1070
40
1040
1.0
1002
}
  0
DIMENSION
  5
15F
100
AcDbEntity
  8
dimensions
 62
256
370
-1
 48
1.0
  6
BYLAYER
100
AcDbDimension
 10
119.5
 20
-3.5
 30
0.0
 11
102.25
 21
0.25
 31
0.0
 70
1
 71
8
 72
2
 74
0
 75
0
 41
1.0
 42
0.0
  1

  3
Standard
100
AcDbAlignedDimension
 13
119.5
 23
11.5
 33
0.0
 14
85.0
 24
11.5
 34
0.0
1001
ACAD
1000
DSTYLE
1002
{
1070
144
1040
1.0
1070
40
1040
1.0
1002
}
  0
LINE
  5
160
100
AcDbEntity
  8
0
 62
256
370
-1
 48
1.0
  6
BYLAYER
100
AcDbLine
 10
162.5
 20
-140.0
 30
0.0
 11
-316.5
 21
-140.0
 31
0.0
  0
LINE
  5
161
100
AcDbEntity
  8
0
 62
256
370
-1
 48
1.0
  6
BYLAYER
100
AcDbLine
 10
-316.5
 20
-374.0
 30
0.0
 11
162.5
 21
-374.0
 31
0.0
  0
LINE
  5
162
100
AcDbEntity
  8
0
 62
256
370
-1
 48
1.0
  6
BYLAYER
100
AcDbLine
 10
-316.5
 20
-374.0
 30
0.0
 11
-316.5
 21
-140.0
 31
0.0
  0
LINE
  5
163
100
AcDbEntity
  8
0
 62
256
370
-1
 48
1.0
  6
BYLAYER
100
AcDbLine
 10
11.5
 20
-140.0
 30
0.0
 11
162.5
 21
-140.0
 31
0.0
  0
LINE
  5
164
100
AcDbEntity
  8
0
 62
256
370
-1
 48
1.0
  6
BYLAYER
100
AcDbLine
 10
11.4999999999999929
 20
-242.0
 30
0.0
 11
11.5
 21
-140.0
 31
0.0
  0
LINE
  5
165
100
AcDbEntity
  8
0
 62
256
370
-1
 48
1.0
  6
BYLAYER
100
AcDbLine
 10
-64.5
 20
-242.0
 30
0.0
 11
11.4999999999999929
 21
-242.0
 31
0.0
  0
LINE
  5
166
100
AcDbEntity
  8
0
 62
256
370
-1
 48
1.0
  6
BYLAYER
100
AcDbLine
 10
-69.5
 20
-246.0
 30
0.0
 11
-64.5
 21
-246.0
 31
0.0
  0
LINE
  5
167
100
AcDbEntity
  8
0
 62
256
370
-1
 48
1.0
  6
BYLAYER
100
AcDbLine
 10
-64.5
 20
-246.0
 30
0.0
 11
-64.5
 21
-242.0
 31
0.0
  0
LINE
  5
168
100
AcDbEntity
  8
0
 62
256
370
-1
 48
1.0
  6
BYLAYER
100
AcDbLine
 10
-69.5
 20
-242.0
 30
0.0
 11
-69.5
 21
-246.0
 31
0.0
  0
LINE
  5
169
100
AcDbEntity
  8
0
 62
256
370
-1
 48
1.0
  6
BYLAYER
100
AcDbLine
 10
-72.5
 20
-242.0
 30
0.0
 11
-69.5
 21
-242.0
 31
0.0
  0
LINE
  5
16A
100
AcDbEntity
  8
0
 62
256
370
-1
 48
1.0
  6
BYLAYER
100
AcDbLine
 10
-200.5
 20
-242.0
 30
0.0
 11
-104.5
 21
-242.0
 31
0.0
  0
LINE
  5
16B
100
AcDbEntity
  8
0
 62
256
370
-1
 48
1.0
  6
BYLAYER
100
AcDbLine
 10
6.9999999999999929
 20
-237.5
 30
0.0
 11
7.0
 21
-140.0
 31
0.0
  0
LINE
  5
16C
100
AcDbEntity
  8
0
 62
256
370
-1
 48
1.0
  6
BYLAYER
100
AcDbLine
 10
-72.5
 20
-237.5
 30
0.0
 11
7.0
 21
-237.5
 31
0.0
  0
LINE
  5
16D
100
AcDbEntity
  8
0
 62
256
370
-1
 48
1.0
  6
BYLAYER
100
AcDbLine
 10
-204.0
 20
-237.5
 30
0.0
 11
-104.5
 21
-237.5
 31
0.0
  0
LINE
  5
16E
100
AcDbEntity
  8
0
 62
256
370
-1
 48
1.0
  6
BYLAYER
100
AcDbLine
 10
-200.5
 20
-246.0
 30
0.0
 11
-200.5
 21
-242.0
 31
0.0
  0
LINE
  5
16F
100
AcDbEntity
  8
0
 62
256
370
-1
 48
1.0
  6
BYLAYER
100
AcDbLine
 10
-205.5
 20
-246.0
 30
0.0
 11
-200.5
 21
-246.0
 31
0.0
  0
LINE
  5
170
100
AcDbEntity
  8
0
 62
256
370
-1
 48
1.0
  6
BYLAYER
100
AcDbLine
 10
-205.5
 20
-246.0
 30
0.0
 11
-205.5
 21
-242.0
 31
0.0
  0
LINE
  5
171
100
AcDbEntity
  8
0
 62
256
370
-1
 48
1.0
  6
BYLAYER
100
AcDbLine
 10
-316.5
 20
-242.0
 30
0.0
 11
-205.5
 21
-242.0
 31
0.0
  0
LINE
  5
172
100
AcDbEntity
  8
0
 62
256
370
-1
 48
1.0
  6
BYLAYER
100
AcDbLine
 10
-316.5
 20
-237.5
 30
0.0
 11
-208.5
 21
-237.5
 31
0.0
  0
LINE
  5
173
100
AcDbEntity
  8
0
 62
256
370
-1
 48
1.0
  6
BYLAYER
100
AcDbLine
 10
-200.5
 20
-307.5
 30
0.0
 11
-200.5
 21
-276.0
 31
0.0
  0
LINE
  5
174
100
AcDbEntity
  8
0
 62
256
370
-1
 48
1.0
  6
BYLAYER
100
AcDbLine
 10
-205.0
 20
-312.0
 30
0.0
 11
-205.0
 21
-276.0
 31
0.0
  0
LINE
  5
175
100
AcDbEntity
  8
0
 62
256
370
-1
 48
1.0
  6
BYLAYER
100
AcDbLine
 10
-205.0
 20
-276.0
 30
0.0
 11
-200.5
 21
-276.0
 31
0.0
  0
LINE
  5
176
100
AcDbEntity
  8
0
 62
256
370
-1
 48
1.0
  6
BYLAYER
100
AcDbLine
 10
-205.0
 20
-312.0
 30
0.0
 11
-177.0
 21
-312.0
 31
0.0
  0
LINE
  5
177
100
AcDbEntity
  8
0
 62
256
370
-1
 48
1.0
  6
BYLAYER
100
AcDbLine
 10
-177.0
 20
-312.0
 30
0.0
 11
-177.0
 21
-374.0
 31
0.0
  0
LINE
  5
178
100
AcDbEntity
  8
0
 62
256
370
-1
 48
1.0
  6
BYLAYER
100
AcDbLine
 10
-200.5
 20
-307.5
 30
0.0
 11
-177.0
 21
-307.5
 31
0.0
  0
LINE
  5
179
100
AcDbEntity
  8
0
 62
256
370
-1
 48
1.0
  6
BYLAYER
100
AcDbLine
 10
-172.5
 20
-307.5
 30
0.0
 11
-172.5
 21
-374.0
 31
0.0
  0
LINE
  5
17A
100
AcDbEntity
  8
0
 62
256
370
-1
 48
1.0
  6
BYLAYER
100
AcDbLine
 10
-330.5
 20
-359.0
 30
0.0
 11
-330.5
 21
-297.0
 31
0.0
  0
LINE
  5
17B
100
AcDbEntity
  8
0
 62
256
370
-1
 48
1.0
  6
BYLAYER
100
AcDbLine
 10
-330.5
 20
-359.0
 30
0.0
 11
-316.5
 21
-359.0
 31
0.0
  0
LINE
  5
17C
100
AcDbEntity
  8
0
 62
256
370
-1
 48
1.0
  6
BYLAYER
100
AcDbLine
 10
-330.5
 20
-297.0
 30
0.0
 11
-316.5
 21
-297.0
 31
0.0
  0
LINE
  5
17D
100
AcDbEntity
  8
0
 62
256
370
-1
 48
1.0
  6
BYLAYER
100
AcDbLine
 10
-177.0
 20
-307.5
 30
0.0
 11
-177.0
 21
-276.0
 31
0.0
  0
LINE
  5
17E
100
AcDbEntity
  8
0
 62
256
370
-1
 48
1.0
  6
BYLAYER
100
AcDbLine
 10
-172.5
 20
-307.5
 30
0.0
 11
-172.5
 21
-276.0
 31
0.0
  0
LINE
  5
17F
100
AcDbEntity
  8
0
 62
256
370
-1
 48
1.0
  6
BYLAYER
100
AcDbLine
 10
-177.0
 20
-276.0
 30
0.0
 11
-172.5
 21
-276.0
 31
0.0
  0
LINE
  5
180
100
AcDbEntity
  8
0
 62
256
370
-1
 48
1.0
  6
BYLAYER
100
AcDbLine
 10
-172.5
 20
-365.5
 30
0.0
 11
-112.5
 21
-365.5
 31
0.0
  0
LINE
  5
181
100
AcDbEntity
  8
0
 62
256
370
-1
 48
1.0
  6
BYLAYER
100
AcDbLine
 10
-112.5
 20
-276.0
 30
0.0
 11
-112.5
 21
-365.5
 31
0.0
  0
LINE
  5
182
100
AcDbEntity
  8
0
 62
256
370
-1
 48
1.0
  6
BYLAYER
100
AcDbLine
 10
-112.5
 20
-336.0
 30
0.0
 11
-172.5
 21
-336.0
 31
0.0
  0
LINE
  5
183
100
AcDbEntity
  8
0
 62
256
370
-1
 48
1.0
  6
BYLAYER
100
AcDbLine
 10
-108.0
 20
-276.0
 30
0.0
 11
-108.0
 21
-374.0
 31
0.0
  0
LINE
  5
184
100
AcDbEntity
  8
0
 62
256
370
-1
 48
1.0
  6
BYLAYER
100
AcDbLine
 10
-112.5
 20
-276.0
 30
0.0
 11
-108.0
 21
-276.0
 31
0.0
  0
LINE
  5
185
100
AcDbEntity
  8
0
 62
256
370
-1
 48
1.0
  6
BYLAYER
100
AcDbLine
 10
-142.5
 20
-276.0
 30
0.0
 11
-172.5
 21
-276.0
 31
0.0
  0
LINE
  5
186
100
AcDbEntity
  8
0
 62
256
370
-1
 48
1.0
  6
BYLAYER
100
AcDbLine
 10
-142.5
 20
-280.5
 30
0.0
 11
-172.5
 21
-280.5
 31
0.0
  0
LINE
  5
187
100
AcDbEntity
  8
0
 62
256
370
-1
 48
1.0
  6
BYLAYER
100
AcDbLine
 10
-142.5
 20
-276.0
 30
0.0
 11
-142.5
 21
-280.5
 31
0.0
  0
LINE
  5
188
100
AcDbEntity
  8
0
 62
256
370
-1
 48
1.0
  6
BYLAYER
100
AcDbLine
 10
-72.5
 20
-242.0
 30
0.0
 11
-72.5
 21
-237.5
 31
0.0
  0
LINE
  5
189
100
AcDbEntity
  8
0
 62
256
370
-1
 48
1.0
  6
BYLAYER
100
AcDbLine
 10
-104.5
 20
-237.5
 30
0.0
 11
-104.5
 21
-242.0
 31
0.0
  0
LINE
  5
18A
100
AcDbEntity
  8
0
 62
256
370
-1
 48
1.0
  6
BYLAYER
100
AcDbLine
 10
-108.0
 20
-282.5
 30
0.0
 11
-72.0
 21
-282.5
 31
0.0
  0
LINE
  5
18B
100
AcDbEntity
  8
0
 62
256
370
-1
 48
1.0
  6
BYLAYER
100
AcDbLine
 10
-108.0
 20
-292.5
 30
0.0
 11
-72.0
 21
-292.5
 31
0.0
  0
LINE
  5
18C
100
AcDbEntity
  8
0
 62
256
370
-1
 48
1.0
  6
BYLAYER
100
AcDbLine
 10
-108.0
 20
-302.5
 30
0.0
 11
-72.0
 21
-302.5
 31
0.0
  0
LINE
  5
18D
100
AcDbEntity
  8
0
 62
256
370
-1
 48
1.0
  6
BYLAYER
100
AcDbLine
 10
-108.0
 20
-312.5
 30
0.0
 11
-72.0
 21
-312.5
 31
0.0
  0
LINE
  5
18E
100
AcDbEntity
  8
0
 62
256
370
-1
 48
1.0
  6
BYLAYER
100
AcDbLine
 10
-108.0
 20
-322.5
 30
0.0
 11
-72.0
 21
-322.5
 31
0.0
  0
LINE
  5
18F
100
AcDbEntity
  8
0
 62
256
370
-1
 48
1.0
  6
BYLAYER
100
AcDbLine
 10
-108.0
 20
-332.5
 30
0.0
 11
-72.0
 21
-332.5
 31
0.0
  0
LINE
  5
190
100
AcDbEntity
  8
0
 62
256
370
-1
 48
1.0
  6
BYLAYER
100
AcDbLine
 10
-108.0
 20
-342.5
 30
0.0
 11
-72.0
 21
-342.5
 31
0.0
  0
LINE
  5
191
100
AcDbEntity
  8
0
 62
256
370
-1
 48
1.0
  6
BYLAYER
100
AcDbLine
 10
-72.0
 20
-276.0
 30
0.0
 11
-72.0
 21
-342.5
 31
0.0
  0
LINE
  5
192
100
AcDbEntity
  8
0
 62
256
370
-1
 48
1.0
  6
BYLAYER
100
AcDbLine
 10
-72.0
 20
-342.5
 30
0.0
 11
-72.0
 21
-342.5
 31
0.0
  0
LINE
  5
193
100
AcDbEntity
  8
0
 62
256
370
-1
 48
1.0
  6
BYLAYER
100
AcDbLine
 10
-72.0
 20
-276.0
 30
0.0
 11
-67.5
 21
-276.0
 31
0.0
  0
LINE
  5
194
100
AcDbEntity
  8
0
 62
256
370
-1
 48
1.0
  6
BYLAYER
100
AcDbLine
 10
-67.5
 20
-319.0
 30
0.0
 11
-67.5
 21
-276.0
 31
0.0
  0
LINE
  5
195
100
AcDbEntity
  8
0
 62
256
370
-1
 48
1.0
  6
BYLAYER
100
AcDbLine
 10
-67.5
 20
-319.0
 30
0.0
 11
11.4999999999999858
 21
-319.0
 31
0.0
  0
LINE
  5
196
100
AcDbEntity
  8
0
 62
256
370
-1
 48
1.0
  6
BYLAYER
100
AcDbLine
 10
0.4999999999999929
 20
-285.0
 30
0.0
 11
11.4999999999999929
 21
-285.0
 31
0.0
  0
LINE
  5
197
100
AcDbEntity
  8
0
 62
256
370
-1
 48
1.0
  6
BYLAYER
100
AcDbLine
 10
11.4999999999999929
 20
-285.0
 30
0.0
 11
11.4999999999999929
 21
-274.0
 31
0.0
  0
LINE
  5
198
100
AcDbEntity
  8
0
 62
256
370
-1
 48
1.0
  6
BYLAYER
100
AcDbLine
 10
11.4999999999999929
 20
-274.0
 30
0.0
 11
0.4999999999999929
 21
-274.0
 31
0.0
  0
LINE
  5
199
100
AcDbEntity
  8
0
 62
256
370
-1
 48
1.0
  6
BYLAYER
100
AcDbLine
 10
0.4999999999999929
 20
-274.0
 30
0.0
 11
0.4999999999999929
 21
-285.0
 31
0.0
  0
LINE
  5
19A
100
AcDbEntity
  8
0
 62
256
370
-1
 48
1.0
  6
BYLAYER
100
AcDbLine
 10
11.499999999999984
 20
-339.0
 30
0.0
 11
11.4999999999999858
 21
-319.0
 31
0.0
  0
LINE
  5
19B
100
AcDbEntity
  8
0
 62
256
370
-1
 48
1.0
  6
BYLAYER
100
AcDbLine
 10
11.4999999999999822
 20
-363.0
 30
0.0
 11
11.5
 21
-374.0
 31
0.0
  0
LINE
  5
19C
100
AcDbEntity
  8
0
 62
256
370
-1
 48
1.0
  6
BYLAYER
100
AcDbLine
 10
6.9999999999999822
 20
-363.0
 30
0.0
 11
7.0
 21
-374.0
 31
0.0
  0
LINE
  5
19D
100
AcDbEntity
  8
0
 62
256
370
-1
 48
1.0
  6
BYLAYER
100
AcDbLine
 10
6.999999999999984
 20
-339.0
 30
0.0
 11
6.9999999999999858
 21
-323.5
 31
0.0
  0
LINE
  5
19E
100
AcDbEntity
  8
0
 62
256
370
-1
 48
1.0
  6
BYLAYER
100
AcDbLine
 10
-72.0
 20
-323.5
 30
0.0
 11
6.9999999999999858
 21
-323.5
 31
0.0
  0
LINE
  5
19F
100
AcDbEntity
  8
0
 62
256
370
-1
 48
1.0
  6
BYLAYER
100
AcDbLine
 10
6.9999999999999822
 20
-363.0
 30
0.0
 11
11.4999999999999822
 21
-363.0
 31
0.0
  0
LINE
  5
1A0
100
AcDbEntity
  8
0
 62
256
370
-1
 48
1.0
  6
BYLAYER
100
AcDbLine
 10
6.999999999999984
 20
-339.0
 30
0.0
 11
11.499999999999984
 21
-339.0
 31
0.0
  0
LINE
  5
1A1
100
AcDbEntity
  8
0
 62
256
370
-1
 48
1.0
  6
BYLAYER
100
AcDbLine
 10
86.5
 20
-333.5
 30
0.0
 11
86.5
 21
-324.0
 31
0.0
  0
LINE
  5
1A2
100
AcDbEntity
  8
0
 62
256
370
-1
 48
1.0
  6
BYLAYER
100
AcDbLine
 10
86.5
 20
-324.0
 30
0.0
 11
98.5
 21
-324.0
 31
0.0
  0
LINE
  5
1A3
100
AcDbEntity
  8
0
 62
256
370
-1
 48
1.0
  6
BYLAYER
100
AcDbLine
 10
123.5
 20
-299.0
 30
0.0
 11
138.5
 21
-299.0
 31
0.0
  0
LINE
  5
1A4
100
AcDbEntity
  8
0
 62
256
370
-1
 48
1.0
  6
BYLAYER
100
AcDbLine
 10
123.5
 20
-311.0
 30
0.0
 11
123.5
 21
-299.0
 31
0.0
  0
LINE
  5
1A5
100
AcDbEntity
  8
0
 62
256
370
-1
 48
1.0
  6
BYLAYER
100
AcDbLine
 10
123.5
 20
-311.0
 30
0.0
 11
98.5
 21
-324.0
 31
0.0
  0
LINE
  5
1A6
100
AcDbEntity
  8
0
 62
256
370
-1
 48
1.0
  6
BYLAYER
100
AcDbLine
 10
138.5
 20
-311.0
 30
0.0
 11
162.5
 21
-311.0
 31
0.0
  0
LINE
  5
1A7
100
AcDbEntity
  8
0
 62
256
370
-1
 48
1.0
  6
BYLAYER
100
AcDbLine
 10
138.5
 20
-311.0
 30
0.0
 11
138.5
 21
-299.0
 31
0.0
  0
LINE
  5
1A8
100
AcDbEntity
  8
0
 62
256
370
-1
 48
1.0
  6
BYLAYER
100
AcDbLine
 10
-316.5
 20
-140.0
 30
0.0
 11
-208.5
 21
-140.0
 31
0.0
  0
LINE
  5
1A9
100
AcDbEntity
  8
0
 62
256
370
-1
 48
1.0
  6
BYLAYER
100
AcDbLine
 10
-208.5
 20
-176.0
 30
0.0
 11
-208.5
 21
-140.0
 31
0.0
  0
LINE
  5
1AA
100
AcDbEntity
  8
0
 62
256
370
-1
 48
1.0
  6
BYLAYER
100
AcDbLine
 10
-208.5
 20
-206.0
 30
0.0
 11
-208.5
 21
-237.5
 31
0.0
  0
LINE
  5
1AB
100
AcDbEntity
  8
0
 62
256
370
-1
 48
1.0
  6
BYLAYER
100
AcDbLine
 10
-204.0
 20
-206.0
 30
0.0
 11
-204.0
 21
-237.5
 31
0.0
  0
LINE
  5
1AC
100
AcDbEntity
  8
0
 62
256
370
-1
 48
1.0
  6
BYLAYER
100
AcDbLine
 10
-204.0
 20
-176.0
 30
0.0
 11
-204.0
 21
-140.0
 31
0.0
  0
LINE
  5
1AD
100
AcDbEntity
  8
0
 62
256
370
-1
 48
1.0
  6
BYLAYER
100
AcDbLine
 10
-208.5
 20
-206.0
 30
0.0
 11
-204.0
 21
-206.0
 31
0.0
  0
LINE
  5
1AE
100
AcDbEntity
  8
0
 62
256
370
-1
 48
1.0
  6
BYLAYER
100
AcDbLine
 10
-204.0
 20
-176.0
 30
0.0
 11
-208.5
 21
-176.0
 31
0.0
  0
LINE
  5
1AF
100
AcDbEntity
  8
0
 62
256
370
-1
 48
1.0
  6
BYLAYER
100
AcDbLine
 10
91.0
 20
-333.5
 30
0.0
 11
91.0
 21
-328.5
 31
0.0
  0
LINE
  5
1B0
100
AcDbEntity
  8
0
 62
256
370
-1
 48
1.0
  6
BYLAYER
100
AcDbLine
 10
128.0
 20
-313.7320410092979159
 30
0.0
 11
128.0
 21
-303.5
 31
0.0
  0
LINE
  5
1B1
100
AcDbEntity
  8
0
 62
256
370
-1
 48
1.0
  6
BYLAYER
100
AcDbLine
 10
128.0
 20
-303.5
 30
0.0
 11
134.0
 21
-303.5
 31
0.0
  0
LINE
  5
1B2
100
AcDbEntity
  8
0
 62
256
370
-1
 48
1.0
  6
BYLAYER
100
AcDbLine
 10
134.0
 20
-315.5
 30
0.0
 11
134.0
 21
-303.5
 31
0.0
  0
LINE
  5
1B3
100
AcDbEntity
  8
0
 62
256
370
-1
 48
1.0
  6
BYLAYER
100
AcDbLine
 10
134.0
 20
-315.5
 30
0.0
 11
162.5
 21
-315.5
 31
0.0
  0
LINE
  5
1B4
100
AcDbEntity
  8
0
 62
256
370
-1
 48
1.0
  6
BYLAYER
100
AcDbLine
 10
128.0
 20
-313.7320410092979159
 30
0.0
 11
99.6000788640344439
 21
-328.5
 31
0.0
  0
LINE
  5
1B5
100
AcDbEntity
  8
0
 62
256
370
-1
 48
1.0
  6
BYLAYER
100
AcDbLine
 10
91.0
 20
-328.5
 30
0.0
 11
99.6000788640344297
 21
-328.5
 31
0.0
  0
LINE
  5
1B6
100
AcDbEntity
  8
0
 62
256
370
-1
 48
1.0
  6
BYLAYER
100
AcDbLine
 10
86.5
 20
-333.5
 30
0.0
 11
91.0
 21
-333.5
 31
0.0
  0
LINE
  5
1B7
100
AcDbEntity
  8
0
 62
256
370
-1
 48
1.0
  6
BYLAYER
100
AcDbLine
 10
-332.5
 20
-390.0
 30
0.0
 11
-332.5
 21
-124.0
 31
0.0
  0
LINE
  5
1B8
100
AcDbEntity
  8
0
 62
256
370
-1
 48
1.0
  6
BYLAYER
100
AcDbLine
 10
178.5
 20
-124.0
 30
0.0
 11
-332.5
 21
-124.0
 31
0.0
  0
LINE
  5
1B9
100
AcDbEntity
  8
0
 62
256
370
-1
 48
1.0
  6
BYLAYER
100
AcDbLine
 10
-332.5
 20
-390.0
 30
0.0
 11
178.5
 21
-390.0
 31
0.0
  0
LINE
  5
1BA
100
AcDbEntity
  8
0
 62
256
370
-1
 48
1.0
  6
BYLAYER
100
AcDbLine
 10
178.5
 20
-124.0
 30
0.0
 11
178.5
 21
-390.0
 31
0.0
  0
LINE
  5
1BB
100
AcDbEntity
  8
0
 62
256
370
-1
 48
1.0
  6
BYLAYER
100
AcDbLine
 10
162.5
 20
-258.0
 30
0.0
 11
162.5
 21
-164.0
 31
0.0
  0
LINE
  5
1BC
100
AcDbEntity
  8
0
 62
256
370
-1
 48
1.0
  6
BYLAYER
100
AcDbLine
 10
176.5
 20
-258.0
 30
0.0
 11
176.5
 21
-164.0
 31
0.0
  0
LINE
  5
1BD
100
AcDbEntity
  8
0
 62
256
370
-1
 48
1.0
  6
BYLAYER
100
AcDbLine
 10
162.5
 20
-140.0
 30
0.0
 11
162.5
 21
-374.0
 31
0.0
  0
LINE
  5
1BE
100
AcDbEntity
  8
0
 62
256
370
-1
 48
1.0
  6
BYLAYER
100
AcDbLine
 10
176.5
 20
-164.0
 30
0.0
 11
162.5
 21
-164.0
 31
0.0
  0
LINE
  5
1BF
100
AcDbEntity
  8
0
 62
256
370
-1
 48
1.0
  6
BYLAYER
100
AcDbLine
 10
176.5
 20
-258.0
 30
0.0
 11
162.5
 21
-258.0
 31
0.0
  0
LINE
  5
1C0
100
AcDbEntity
  8
0
 62
256
370
-1
 48
1.0
  6
BYLAYER
100
AcDbLine
 10
-330.5
 20
-161.0
 30
0.0
 11
-330.5
 21
-216.5
 31
0.0
  0
LINE
  5
1C1
100
AcDbEntity
  8
0
 62
256
370
-1
 48
1.0
  6
BYLAYER
100
AcDbLine
 10
-330.5
 20
-161.0
 30
0.0
 11
-316.5
 21
-161.0
 31
0.0
  0
LINE
  5
1C2
100
AcDbEntity
  8
0
 62
256
370
-1
 48
1.0
  6
BYLAYER
100
AcDbLine
 10
-330.5
 20
-216.5
 30
0.0
 11
-316.5
 21
-216.5
 31
0.0
  0
DIMENSION
  5
1C3
100
AcDbEntity
  8
dimensions
 62
256
370
-1
 48
1.0
  6
BYLAYER
100
AcDbDimension
 10
-316.5
 20
-105.5
 30
0.0
 11
-262.5
 21
-101.75
 31
0.0
 70
1
 71
8
 72
2
 74
0
 75
0
 41
1.0
 42
0.0
  1

  3
Standard
100
AcDbAlignedDimension
 13
-316.5
 23
-140.0
 33
0.0
 14
-208.5
 24
-140.0
 34
0.0
1001
ACAD
1000
DSTYLE
1002
{
1070
144
1040
1.0
1070
40
1040
1.0
1002
}
  0
DIMENSION
  5
1C4
100
AcDbEntity
  8
dimensions
 62
256
370
-1
 48
1.0
  6
BYLAYER
100
AcDbDimension
 10
-352.0
 20
-140.0
 30
0.0
 11
-355.75
 21
-188.75
 31
0.0
 70
1
 71
8
 72
2
 74
0
 75
0
 41
1.0
 42
0.0
  1

  3
Standard
100
AcDbAlignedDimension
 13
-316.5
 23
-140.0
 33
0.0
 14
-316.5
 24
-237.5
 34
0.0
1001
ACAD
1000
DSTYLE
1002
{
1070
144
1040
1.0
1070
40
1040
1.0
1002
}
  0
DIMENSION
  5
1C5
100
AcDbEntity
  8
dimensions
 62
256
370
-1
 48
1.0
  6
BYLAYER
100
AcDbDimension
 10
-352.0
 20
-242.0
 30
0.0
 11
-355.75
 21
-308.0
 31
0.0
 70
1
 71
8
 72
2
 74
0
 75
0
 41
1.0
 42
0.0
  1

  3
Standard
100
AcDbAlignedDimension
 13
-316.5
 23
-242.0
 33
0.0
 14
-316.5
 24
-374.0
 34
0.0
1001
ACAD
1000
DSTYLE
1002
{
1070
144
1040
1.0
1070
40
1040
1.0
1002
}
  0
DIMENSION
  5
1C6
100
AcDbEntity
  8
dimensions
 62
256
370
-1
 48
1.0
  6
BYLAYER
100
AcDbDimension
 10
-205.0000000000000284
 20
-405.5
 30
0.0
 11
-260.75
 21
-401.75
 31
0.0
 70
1
 71
8
 72
2
 74
0
 75
0
 41
1.0
 42
0.0
  1

  3
Standard
100
AcDbAlignedDimension
 13
-205.0
 23
-312.0
 33
0.0
 14
-316.5
 24
-312.0
 34
0.0
1001
ACAD
1000
DSTYLE
1002
{
1070
144
1040
1.0
1070
40
1040
1.0
1002
}
  0
DIMENSION
  5
1C7
100
AcDbEntity
  8
dimensions
 62
256
370
-1
 48
1.0
  6
BYLAYER
100
AcDbDimension
 10
11.5000000000000018
 20
-105.5
 30
0.0
 11
87.0
 21
-101.75
 31
0.0
 70
1
 71
8
 72
2
 74
0
 75
0
 41
1.0
 42
0.0
  1

  3
Standard
100
AcDbAlignedDimension
 13
11.5
 23
-140.0
 33
0.0
 14
162.5
 24
-140.0
 34
0.0
1001
ACAD
1000
DSTYLE
1002
{
1070
144
1040
1.0
1070
40
1040
1.0
1002
}
  0
DIMENSION
  5
1C8
100
AcDbEntity
  8
dimensions
 62
256
370
-1
 48
1.0
  6
BYLAYER
100
AcDbDimension
 10
31.9999999999999929
 20
-242.0
 30
0.0
 11
28.2499999999999964
 21
-191.0
 31
0.0
 70
1
 71
8
 72
2
 74
0
 75
0
 41
1.0
 42
0.0
  1

  3
Standard
100
AcDbAlignedDimension
 13
11.4999999999999947
 23
-242.0
 33
0.0
 14
11.5
 24
-140.0
 34
0.0
1001
ACAD
1000
DSTYLE
1002
{
1070
144
1040
1.0
1070
40
1040
1.0
1002
}
  0
INSERT
  5
1C9
100
AcDbEntity
  8
electrical
 62
256
370
-1
 48
1.0
  6
BYLAYER
100
AcDbBlockReference
  2
outlet
 10
16.0
 20
-155.7679491924311037
 30
0.0
  0
INSERT
  5
1CA
100
AcDbEntity
  8
electrical
 62
256
370
-1
 48
1.0
  6
BYLAYER
100
AcDbBlockReference
  2
light
 10
92.0
 20
-211.5
 30
0.0
  0
MTEXT
  5
1CB
100
AcDbEntity
  8
electrical
 62
256
370
-1
 48
1.0
  6
BYLAYER
100
AcDbMText
 10
20.0
 20
-160.0
 30
0.0
 40
5.0
 41
0.0
 71
1
 72
1
  1
21
  7
textstyle7
 50
0.0
 73
2
 44
1.0
  0
MTEXT
  5
1CC
100
AcDbEntity
  8
electrical
 62
256
370
-1
 48
1.0
  6
BYLAYER
100
AcDbMText
 10
154.0
 20
-164.0
 30
0.0
 40
5.0
 41
0.0
 71
1
 72
1
  1
25
  7
textstyle8
 50
0.0
 73
2
 44
1.0
  0
INSERT
  5
1CD
100
AcDbEntity
  8
electrical
 62
256
370
-1
 48
1.0
  6
BYLAYER
100
AcDbBlockReference
  2
outlet
 10
150.0
 20
-160.0
 30
0.0
  0
MTEXT
  5
1CE
100
AcDbEntity
  8
electrical
 62
256
370
-1
 48
1.0
  6
BYLAYER
100
AcDbMText
 10
152.0
 20
-288.0
 30
0.0
 40
5.0
 41
0.0
 71
1
 72
1
  1
25
  7
textstyle10
 50
0.0
 73
2
 44
1.0
  0
INSERT
  5
1CF
100
AcDbEntity
  8
electrical
 62
256
370
-1
 48
1.0
  6
BYLAYER
100
AcDbBlockReference
  2
outlet
 10
148.0
 20
-284.0
 30
0.0
  0
MTEXT
  5
1D0
100
AcDbEntity
  8
electrical
 62
256
370
-1
 48
1.0
  6
BYLAYER
100
AcDbMText
 10
-14.8475443383355703
 20
-249.7320508075688963
 30
0.0
 40
5.0
 41
0.0
 71
1
 72
1
  1
21
  7
textstyle9
 50
0.0
 73
2
 44
1.0
  0
INSERT
  5
1D1
100
AcDbEntity
  8
electrical
 62
256
370
-1
 48
1.0
  6
BYLAYER
100
AcDbBlockReference
  2
outlet
 10
-16.8475443383356094
 20
-248.0
 30
0.0
  0
MTEXT
  5
1D2
100
AcDbEntity
  8
electrical
 62
256
370
-1
 48
1.0
  6
BYLAYER
100
AcDbMText
 10
-48.0
 20
-312.0
 30
0.0
 40
5.0
 41
0.0
 71
1
 72
1
  1
21
  7
textstyle121
 50
0.0
 73
2
 44
1.0
  0
INSERT
  5
1D3
100
AcDbEntity
  8
electrical
 62
256
370
-1
 48
1.0
  6
BYLAYER
100
AcDbBlockReference
  2
outlet
 10
-52.8475443383356094
 20
-308.0
 30
0.0
  0
MTEXT
  5
1D4
100
AcDbEntity
  8
electrical
 62
256
370
-1
 48
1.0
  6
BYLAYER
100
AcDbMText
 10
94.431070941337012
 20
-214.2448840381991886
 30
0.0
 40
5.0
 41
0.0
 71
1
 72
1
  1
27
  7
textstyle120
 50
0.0
 73
2
 44
1.0
  0
LINE
  5
1D5
100
AcDbEntity
  8
0
 62
256
370
-1
 48
1.0
  6
BYLAYER
100
AcDbLine
 10
-28.0
 20
-323.5
 30
0.0
 11
-28.0
 21
-374.0
 31
0.0
  0
INSERT
  5
1D6
100
AcDbEntity
  8
electrical
 62
256
370
-1
 48
1.0
  6
BYLAYER
100
AcDbBlockReference
  2
switch
 10
-14.0
 20
-346.0
 30
0.0
  0
MTEXT
  5
1D7
100
AcDbEntity
  8
electrical
 62
256
370
-1
 48
1.0
  6
BYLAYER
100
AcDbMText
 10
-16.0
 20
-346.0
 30
0.0
 40
5.0
 41
0.0
 71
1
 72
1
  1
27
  7
textstyle122
 50
0.0
 73
2
 44
1.0
  0
MTEXT
  5
1D8
100
AcDbEntity
  8
electrical
 62
256
370
-1
 48
1.0
  6
BYLAYER
100
AcDbMText
 10
-16.0
 20
-331.0
 30
0.0
 40
5.0
 41
0.0
 71
1
 72
1
  1
27
  7
textstyle123
 50
0.0
 73
2
 44
1.0
  0
INSERT
  5
1D9
100
AcDbEntity
  8
electrical
 62
256
370
-1
 48
1.0
  6
BYLAYER
100
AcDbBlockReference
  2
outlet
 10
-21.5689290586630449
 20
-328.0
 30
0.0
  0
INSERT
  5
1DA
100
AcDbEntity
  8
electrical
 62
256
370
-1
 48
1.0
  6
BYLAYER
100
AcDbBlockReference
  2
switch
 10
24.2059056517412756
 20
-230.9600781795850253
 30
0.0
  0
MTEXT
  5
1DB
100
AcDbEntity
  8
electrical
 62
256
370
-1
 48
1.0
  6
BYLAYER
100
AcDbMText
 10
19.3736305010554766
 20
-229.7296898968133974
 30
0.0
 40
5.0
 41
0.0
 71
1
 72
1
  1
27
  7
textstyle117
 50
0.0
 73
2
 44
1.0
  0
INSERT
  5
1DC
100
AcDbEntity
  8
electrical
 62
256
370
-1
 48
1.0
  6
BYLAYER
100
AcDbBlockReference
  2
light
 10
-105.0257673942701331
 20
-180.8724420190995943
 30
0.0
  0
MTEXT
  5
1DD
100
AcDbEntity
  8
electrical
 62
256
370
-1
 48
1.0
  6
BYLAYER
100
AcDbMText
 10
-102.5946964529333627
 20
-183.6173260572988966
 30
0.0
 40
5.0
 41
0.0
 71
1
 72
1
  1
13
  7
textstyle119
 50
0.0
 73
2
 44
1.0
  0
INSERT
  5
1DE
100
AcDbEntity
  8
electrical
 62
256
370
-1
 48
1.0
  6
BYLAYER
100
AcDbBlockReference
  2
light
 10
-29.0257673942701331
 20
-180.8724420190995943
 30
0.0
  0
MTEXT
  5
1DF
100
AcDbEntity
  8
electrical
 62
256
370
-1
 48
1.0
  6
BYLAYER
100
AcDbMText
 10
-26.5946964529333627
 20
-183.6173260572988966
 30
0.0
 40
5.0
 41
0.0
 71
1
 72
1
  1
13
  7
textstyle118
 50
0.0
 73
2
 44
1.0
  0
INSERT
  5
1E0
100
AcDbEntity
  8
electrical
 62
256
370
-1
 48
1.0
  6
BYLAYER
100
AcDbBlockReference
  2
light
 10
-169.0257673942701331
 20
-180.8724420190995943
 30
0.0
  0
MTEXT
  5
1E1
100
AcDbEntity
  8
electrical
 62
256
370
-1
 48
1.0
  6
BYLAYER
100
AcDbMText
 10
-166.5946964529333627
 20
-183.6173260572988966
 30
0.0
 40
5.0
 41
0.0
 71
1
 72
1
  1
13
  7
textstyle4
 50
0.0
 73
2
 44
1.0
  0
INSERT
  5
1E2
100
AcDbEntity
  8
electrical
 62
256
370
-1
 48
1.0
  6
BYLAYER
100
AcDbBlockReference
  2
switch
 10
-106.0
 20
-249.0
 30
0.0
  0
MTEXT
  5
1E3
100
AcDbEntity
  8
electrical
 62
256
370
-1
 48
1.0
  6
BYLAYER
100
AcDbMText
 10
-113.0
 20
-249.0
 30
0.0
 40
5.0
 41
0.0
 71
1
 72
1
  1
13
  7
textstyle3
 50
0.0
 73
2
 44
1.0
  0
INSERT
  5
1E4
100
AcDbEntity
  8
electrical
 62
256
370
-1
 48
1.0
  6
BYLAYER
100
AcDbBlockReference
  2
switch
 10
-121.1677248493142116
 20
-249.2303882827716279
 30
0.0
  0
MTEXT
  5
1E5
100
AcDbEntity
  8
electrical
 62
256
370
-1
 48
1.0
  6
BYLAYER
100
AcDbMText
 10
-128.0
 20
-249.0
 30
0.0
 40
5.0
 41
0.0
 71
1
 72
1
  1
19
  7
textstyle6
 50
0.0
 73
2
 44
1.0
  0
INSERT
  5
1E6
100
AcDbEntity
  8
electrical
 62
256
370
-1
 48
1.0
  6
BYLAYER
100
AcDbBlockReference
  2
light
 10
-89.0257673942701331
 20
-256.8724420190995943
 30
0.0
  0
MTEXT
  5
1E7
100
AcDbEntity
  8
electrical
 62
256
370
-1
 48
1.0
  6
BYLAYER
100
AcDbMText
 10
-86.5946964529333627
 20
-259.6173260572988966
 30
0.0
 40
5.0
 41
0.0
 71
1
 72
1
  1
19
  7
textstyle5
 50
0.0
 73
2
 44
1.0
  0
INSERT
  5
1E8
100
AcDbEntity
  8
electrical
 62
256
370
-1
 48
1.0
  6
BYLAYER
100
AcDbBlockReference
  2
switch
 10
-69.0
 20
-51.0
 30
0.0
  0
MTEXT
  5
1E9
100
AcDbEntity
  8
electrical
 62
256
370
-1
 48
1.0
  6
BYLAYER
100
AcDbMText
 10
-74.2407624048108374
 20
-51.0612383279184314
 30
0.0
 40
5.0
 41
0.0
 71
1
 72
1
  1
19
  7
textstyle0
 50
0.0
 73
2
 44
1.0
  0
INSERT
  5
1EA
100
AcDbEntity
  8
electrical
 62
256
370
-1
 48
1.0
  6
BYLAYER
100
AcDbBlockReference
  2
switch
 10
-146.2592375951891768
 20
-270.9387616720815686
 30
0.0
  0
MTEXT
  5
1EB
100
AcDbEntity
  8
electrical
 62
256
370
-1
 48
1.0
  6
BYLAYER
100
AcDbMText
 10
-148.0
 20
-270.0
 30
0.0
 40
5.0
 41
0.0
 71
1
 72
1
  1
9
  7
textstyle124
 50
0.0
 73
2
 44
1.0
  0
INSERT
  5
1EC
100
AcDbEntity
  8
electrical
 62
256
370
-1
 48
1.0
  6
BYLAYER
100
AcDbBlockReference
  2
light
 10
-140.8909106412004348
 20
-256.8511255115961376
 30
0.0
  0
MTEXT
  5
1ED
100
AcDbEntity
  8
electrical
 62
256
370
-1
 48
1.0
  6
BYLAYER
100
AcDbMText
 10
-136.0
 20
-260.0
 30
0.0
 40
5.0
 41
0.0
 71
1
 72
1
  1
9
  7
textstyle2
 50
0.0
 73
2
 44
1.0
  0
INSERT
  5
1EE
100
AcDbEntity
  8
electrical
 62
256
370
-1
 48
1.0
  6
BYLAYER
100
AcDbBlockReference
  2
light
 10
-224.0374999999999091
 20
-348.8511255115961376
 30
0.0
  0
MTEXT
  5
1EF
100
AcDbEntity
  8
electrical
 62
256
370
-1
 48
1.0
  6
BYLAYER
100
AcDbMText
 10
-220.0
 20
-352.0
 30
0.0
 40
5.0
 41
0.0
 71
1
 72
1
  1
9
  7
textstyle1
 50
0.0
 73
2
 44
1.0
  0
INSERT
  5
1F0
100
AcDbEntity
  8
electrical
 62
256
370
-1
 48
1.0
  6
BYLAYER
100
AcDbBlockReference
  2
switch
 10
-207.1677248493140553
 20
-285.2303882827717416
 30
0.0
  0
MTEXT
  5
1F1
100
AcDbEntity
  8
electrical
 62
256
370
-1
 48
1.0
  6
BYLAYER
100
AcDbMText
 10
-210.0
 20
-284.0
 30
0.0
 40
5.0
 41
0.0
 71
1
 72
1
  1
9
  7
textstyle33
 50
0.0
 73
2
 44
1.0
  0
MTEXT
  5
1F2
100
AcDbEntity
  8
electrical
 62
256
370
-1
 48
1.0
  6
BYLAYER
100
AcDbMText
 10
-254.0
 20
-256.0
 30
0.0
 40
5.0
 41
0.0
 71
1
 72
1
  1
9
  7
textstyle34
 50
0.0
 73
2
 44
1.0
  0
INSERT
  5
1F3
100
AcDbEntity
  8
electrical
 62
256
370
-1
 48
1.0
  6
BYLAYER
100
AcDbBlockReference
  2
outlet
 10
-257.5689290586630591
 20
-252.0
 30
0.0
  0
MTEXT
  5
1F4
100
AcDbEntity
  8
electrical
 62
256
370
-1
 48
1.0
  6
BYLAYER
100
AcDbMText
 10
-306.0
 20
-300.0
 30
0.0
 40
5.0
 41
0.0
 71
1
 72
1
  1
9
  7
textstyle32
 50
0.0
 73
2
 44
1.0
  0
INSERT
  5
1F5
100
AcDbEntity
  8
electrical
 62
256
370
-1
 48
1.0
  6
BYLAYER
100
AcDbBlockReference
  2
outlet
 10
-310.0
 20
-296.0
 30
0.0
  0
MTEXT
  5
1F6
100
AcDbEntity
  8
electrical
 62
256
370
-1
 48
1.0
  6
BYLAYER
100
AcDbMText
 10
-233.178035470668533
 20
-366.0
 30
0.0
 40
5.0
 41
0.0
 71
1
 72
1
  1
9
  7
textstyle35
 50
0.0
 73
2
 44
1.0
  0
INSERT
  5
1F7
100
AcDbEntity
  8
electrical
 62
256
370
-1
 48
1.0
  6
BYLAYER
100
AcDbBlockReference
  2
outlet
 10
-236.0
 20
-362.0
 30
0.0
  0
INSERT
  5
1F8
100
AcDbEntity
  8
electrical
 62
256
370
-1
 48
1.0
  6
BYLAYER
100
AcDbBlockReference
  2
switch
 10
-130.0
 20
-288.0
 30
0.0
  0
MTEXT
  5
1F9
100
AcDbEntity
  8
electrical
 62
256
370
-1
 48
1.0
  6
BYLAYER
100
AcDbMText
 10
-138.0
 20
-288.0
 30
0.0
 40
5.0
 41
0.0
 71
1
 72
1
  1
9
  7
textstyle29
 50
0.0
 73
2
 44
1.0
  0
INSERT
  5
1FA
100
AcDbEntity
  8
electrical
 62
256
370
-1
 48
1.0
  6
BYLAYER
100
AcDbBlockReference
  2
switch
 10
-144.0
 20
-288.0
 30
0.0
  0
MTEXT
  5
1FB
100
AcDbEntity
  8
electrical
 62
256
370
-1
 48
1.0
  6
BYLAYER
100
AcDbMText
 10
-153.0
 20
-288.0
 30
0.0
 40
5.0
 41
0.0
 71
1
 72
1
  1
31\PFan
  7
textstyle27
 50
0.0
 73
2
 44
1.0
  0
MTEXT
  5
1FC
100
AcDbEntity
  8
electrical
 62
256
370
-1
 48
1.0
  6
BYLAYER
100
AcDbMText
 10
-164.0
 20
-292.0
 30
0.0
 40
5.0
 41
0.0
 71
1
 72
1
  1
31
  7
textstyle28
 50
0.0
 73
2
 44
1.0
  0
INSERT
  5
1FD
100
AcDbEntity
  8
electrical
 62
256
370
-1
 48
1.0
  6
BYLAYER
100
AcDbBlockReference
  2
outlet
 10
-166.821964529331467
 20
-287.2679491924311037
 30
0.0
  0
MTEXT
  5
1FE
100
AcDbEntity
  8
electrical
 62
256
370
-1
 48
1.0
  6
BYLAYER
100
AcDbMText
 10
-120.0
 20
-312.0
 30
0.0
 40
5.0
 41
0.0
 71
1
 72
1
  1
31
  7
textstyle31
 50
0.0
 73
2
 44
1.0
  0
INSERT
  5
1FF
100
AcDbEntity
  8
electrical
 62
256
370
-1
 48
1.0
  6
BYLAYER
100
AcDbBlockReference
  2
switch
 10
-117.1677248493139132
 20
-311.2303882827717416
 30
0.0
  0
MTEXT
  5
200
100
AcDbEntity
  8
electrical
 62
256
370
-1
 48
1.0
  6
BYLAYER
100
AcDbMText
 10
-120.0
 20
-322.0
 30
0.0
 40
5.0
 41
0.0
 71
1
 72
1
  1
31
  7
textstyle30
 50
0.0
 73
2
 44
1.0
  0
INSERT
  5
201
100
AcDbEntity
  8
electrical
 62
256
370
-1
 48
1.0
  6
BYLAYER
100
AcDbBlockReference
  2
switch
 10
-117.5292239526242781
 20
-321.9914901850420961
 30
0.0
  0
INSERT
  5
202
100
AcDbEntity
  8
electrical
 62
256
370
-1
 48
1.0
  6
BYLAYER
100
AcDbBlockReference
  2
light
 10
-134.0
 20
-326.0
 30
0.0
  0
MTEXT
  5
203
100
AcDbEntity
  8
electrical
 62
256
370
-1
 48
1.0
  6
BYLAYER
100
AcDbMText
 10
-130.0
 20
-330.0
 30
0.0
 40
5.0
 41
0.0
 71
1
 72
1
  1
31
  7
textstyle40
 50
0.0
 73
2
 44
1.0
  0
INSERT
  5
204
100
AcDbEntity
  8
electrical
 62
256
370
-1
 48
1.0
  6
BYLAYER
100
AcDbBlockReference
  2
light
 10
-134.0
 20
-352.0
 30
0.0
  0
MTEXT
  5
205
100
AcDbEntity
  8
electrical
 62
256
370
-1
 48
1.0
  6
BYLAYER
100
AcDbMText
 10
-130.0
 20
-356.0
 30
0.0
 40
5.0
 41
0.0
 71
1
 72
1
  1
31
  7
textstyle42
 50
0.0
 73
2
 44
1.0
  0
MTEXT
  5
206
100
AcDbEntity
  8
electrical
 62
256
370
-1
 48
1.0
  6
BYLAYER
100
AcDbMText
 10
-96.0
 20
-148.0
 30
0.0
 40
5.0
 41
0.0
 71
1
 72
1
  1
6,8\PCD
  7
textstyle43
 50
0.0
 73
2
 44
1.0
  0
MTEXT
  5
207
100
AcDbEntity
  8
electrical
 62
256
370
-1
 48
1.0
  6
BYLAYER
100
AcDbMText
 10
-76.0
 20
-150.0
 30
0.0
 40
5.0
 41
0.0
 71
1
 72
1
  1
3
  7
textstyle41
 50
0.0
 73
2
 44
1.0
  0
INSERT
  5
208
100
AcDbEntity
  8
electrical
 62
256
370
-1
 48
1.0
  6
BYLAYER
100
AcDbBlockReference
  2
outlet
 10
-80.0
 20
-146.0
 30
0.0
  0
INSERT
  5
209
100
AcDbEntity
  8
electrical
 62
256
370
-1
 48
1.0
  6
BYLAYER
100
AcDbBlockReference
  2
light
 10
-64.8909106412004348
 20
-344.8511255115961376
 30
0.0
  0
MTEXT
  5
20A
100
AcDbEntity
  8
electrical
 62
256
370
-1
 48
1.0
  6
BYLAYER
100
AcDbMText
 10
-61.0
 20
-349.0
 30
0.0
 40
5.0
 41
0.0
 71
1
 72
1
  1
27
  7
textstyle37
 50
0.0
 73
2
 44
1.0
  0
MTEXT
  5
20B
100
AcDbEntity
  8
electrical
 62
256
370
-1
 48
1.0
  6
BYLAYER
100
AcDbMText
 10
42.0
 20
-366.0
 30
0.0
 40
5.0
 41
0.0
 71
1
 72
1
  1
25
  7
textstyle36
 50
0.0
 73
2
 44
1.0
  0
INSERT
  5
20C
100
AcDbEntity
  8
electrical
 62
256
370
-1
 48
1.0
  6
BYLAYER
100
AcDbBlockReference
  2
outlet
 10
36.0
 20
-362.0
 30
0.0
  0
INSERT
  5
20D
100
AcDbEntity
  8
electrical
 62
256
370
-1
 48
1.0
  6
BYLAYER
100
AcDbBlockReference
  2
switch
 10
-12.983828915846054
 20
-313.2711208528976385
 30
0.0
  0
MTEXT
  5
20E
100
AcDbEntity
  8
electrical
 62
256
370
-1
 48
1.0
  6
BYLAYER
100
AcDbMText
 10
-16.5105162866461583
 20
-312.417746111297447
 30
0.0
 40
5.0
 41
0.0
 71
1
 72
1
  1
23
  7
textstyle39
 50
0.0
 73
2
 44
1.0
  0
INSERT
  5
20F
100
AcDbEntity
  8
electrical
 62
256
370
-1
 48
1.0
  6
BYLAYER
100
AcDbBlockReference
  2
switch
 10
5.4381808024270724
 20
-313.1904664623566532
 30
0.0
  0
MTEXT
  5
210
100
AcDbEntity
  8
electrical
 62
256
370
-1
 48
1.0
  6
BYLAYER
100
AcDbMText
 10
1.9114934316269705
 20
-312.3370917207564617
 30
0.0
 40
5.0
 41
0.0
 71
1
 72
1
  1
29
  7
textstyle38
 50
0.0
 73
2
 44
1.0
  0
INSERT
  5
211
100
AcDbEntity
  8
electrical
 62
256
370
-1
 48
1.0
  6
BYLAYER
100
AcDbBlockReference
  2
light
 10
55.1090893587995652
 20
-348.8511255115961376
 30
0.0
  0
MTEXT
  5
212
100
AcDbEntity
  8
electrical
 62
256
370
-1
 48
1.0
  6
BYLAYER
100
AcDbMText
 10
60.0
 20
-352.0
 30
0.0
 40
5.0
 41
0.0
 71
1
 72
1
  1
29
  7
textstyle16
 50
0.0
 73
2
 44
1.0
  0
INSERT
  5
213
100
AcDbEntity
  8
electrical
 62
256
370
-1
 48
1.0
  6
BYLAYER
100
AcDbBlockReference
  2
light
 10
127.1090893587995652
 20
-348.8511255115961376
 30
0.0
  0
MTEXT
  5
214
100
AcDbEntity
  8
electrical
 62
256
370
-1
 48
1.0
  6
BYLAYER
100
AcDbMText
 10
129.5401603001363355
 20
-351.5960095497954399
 30
0.0
 40
5.0
 41
0.0
 71
1
 72
1
  1
23
  7
textstyle15
 50
0.0
 73
2
 44
1.0
  0
INSERT
  5
215
100
AcDbEntity
  8
electrical
 62
256
370
-1
 48
1.0
  6
BYLAYER
100
AcDbBlockReference
  2
light
 10
-261.0283253751704251
 20
-180.8511255115961376
 30
0.0
  0
MTEXT
  5
216
100
AcDbEntity
  8
electrical
 62
256
370
-1
 48
1.0
  6
BYLAYER
100
AcDbMText
 10
-258.5972544338337116
 20
-183.5960095497954399
 30
0.0
 40
5.0
 41
0.0
 71
1
 72
1
  1
13
  7
textstyle18
 50
0.0
 73
2
 44
1.0
  0
MTEXT
  5
217
100
AcDbEntity
  8
electrical
 62
256
370
-1
 48
1.0
  6
BYLAYER
100
AcDbMText
 10
-215.1780354706686182
 20
-227.9999999999999147
 30
0.0
 40
5.0
 41
0.0
 71
1
 72
1
  1
3
  7
textstyle17
 50
0.0
 73
2
 44
1.0
  0
INSERT
  5
218
100
AcDbEntity
  8
electrical
 62
256
370
-1
 48
1.0
  6
BYLAYER
100
AcDbBlockReference
  2
outlet
 10
-220.0
 20
-224.0
 30
0.0
  0
MTEXT
  5
219
100
AcDbEntity
  8
electrical
 62
256
370
-1
 48
1.0
  6
BYLAYER
100
AcDbMText
 10
-303.1780354706685898
 20
-228.0000000000000284
 30
0.0
 40
5.0
 41
0.0
 71
1
 72
1
  1
3
  7
textstyle12
 50
0.0
 73
2
 44
1.0
  0
MTEXT
  5
21A
100
AcDbEntity
  8
electrical
 62
256
370
-1
 48
1.0
  6
BYLAYER
100
AcDbMText
 10
-289.1780354706685898
 20
-228.0000000000000284
 30
0.0
 40
5.0
 41
0.0
 71
1
 72
1
  1
3
  7
textstyle110
 50
0.0
 73
2
 44
1.0
  0
MTEXT
  5
21B
100
AcDbEntity
  8
electrical
 62
256
370
-1
 48
1.0
  6
BYLAYER
100
AcDbMText
 10
-305.6780354706686467
 20
-152.0
 30
0.0
 40
5.0
 41
0.0
 71
1
 72
1
  1
3
  7
textstyle111
 50
0.0
 73
2
 44
1.0
  0
MTEXT
  5
21C
100
AcDbEntity
  8
electrical
 62
256
370
-1
 48
1.0
  6
BYLAYER
100
AcDbMText
 10
-192.0
 20
-229.0
 30
0.0
 40
5.0
 41
0.0
 71
1
 72
1
  1
3
  7
textstyle11
 50
0.0
 73
2
 44
1.0
  0
INSERT
  5
21D
100
AcDbEntity
  8
electrical
 62
256
370
-1
 48
1.0
  6
BYLAYER
100
AcDbBlockReference
  2
outlet
 10
-196.0
 20
-225.0
 30
0.0
  0
MTEXT
  5
21E
100
AcDbEntity
  8
electrical
 62
256
370
-1
 48
1.0
  6
BYLAYER
100
AcDbMText
 10
16.0
 20
146.0
 30
0.0
 40
5.0
 41
0.0
 71
1
 72
1
  1
13
  7
textstyle14
 50
0.0
 73
2
 44
1.0
  0
INSERT
  5
21F
100
AcDbEntity
  8
electrical
 62
256
370
-1
 48
1.0
  6
BYLAYER
100
AcDbBlockReference
  2
outlet
 10
11.9310709413369693
 20
150.0
 30
0.0
  0
MTEXT
  5
220
100
AcDbEntity
  8
electrical
 62
256
370
-1
 48
1.0
  6
BYLAYER
100
AcDbMText
 10
48.0
 20
186.0
 30
0.0
 40
5.0
 41
0.0
 71
1
 72
1
  1
19
  7
textstyle13
 50
0.0
 73
2
 44
1.0
  0
INSERT
  5
221
100
AcDbEntity
  8
electrical
 62
256
370
-1
 48
1.0
  6
BYLAYER
100
AcDbBlockReference
  2
outlet
 10
43.9310709413369693
 20
190.0
 30
0.0
  0
MTEXT
  5
222
100
AcDbEntity
  8
electrical
 62
256
370
-1
 48
1.0
  6
BYLAYER
100
AcDbMText
 10
180.0
 20
186.0
 30
0.0
 40
5.0
 41
0.0
 71
1
 72
1
  1
19
  7
textstyle24
 50
0.0
 73
2
 44
1.0
  0
INSERT
  5
223
100
AcDbEntity
  8
electrical
 62
256
370
-1
 48
1.0
  6
BYLAYER
100
AcDbBlockReference
  2
outlet
 10
175.8246248294679503
 20
190.0
 30
0.0
  0
MTEXT
  5
224
100
AcDbEntity
  8
electrical
 62
256
370
-1
 48
1.0
  6
BYLAYER
100
AcDbMText
 10
188.0
 20
48.0
 30
0.0
 40
5.0
 41
0.0
 71
1
 72
1
  1
19
  7
textstyle23
 50
0.0
 73
2
 44
1.0
  0
INSERT
  5
225
100
AcDbEntity
  8
electrical
 62
256
370
-1
 48
1.0
  6
BYLAYER
100
AcDbBlockReference
  2
outlet
 10
183.8246248294679503
 20
54.0
 30
0.0
  0
MTEXT
  5
226
100
AcDbEntity
  8
electrical
 62
256
370
-1
 48
1.0
  6
BYLAYER
100
AcDbMText
 10
72.8650023480886091
 20
-42.8353768920428166
 30
0.0
 40
5.0
 41
0.0
 71
1
 72
1
  1
19
  7
textstyle26
 50
0.0
 73
2
 44
1.0
  0
INSERT
  5
227
100
AcDbEntity
  8
electrical
 62
256
370
-1
 48
1.0
  6
BYLAYER
100
AcDbBlockReference
  2
outlet
 10
69.9999999999999858
 20
-38.2679491924311321
 30
0.0
  0
MTEXT
  5
228
100
AcDbEntity
  8
electrical
 62
256
370
-1
 48
1.0
  6
BYLAYER
100
AcDbMText
 10
-16.0
 20
-42.0
 30
0.0
 40
5.0
 41
0.0
 71
1
 72
1
  1
13
  7
textstyle25
 50
0.0
 73
2
 44
1.0
  0
INSERT
  5
229
100
AcDbEntity
  8
electrical
 62
256
370
-1
 48
1.0
  6
BYLAYER
100
AcDbBlockReference
  2
outlet
 10
-19.3066166439290576
 20
-38.0
 30
0.0
  0
INSERT
  5
22A
100
AcDbEntity
  8
electrical
 62
256
370
-1
 48
1.0
  6
BYLAYER
100
AcDbBlockReference
  2
light
 10
24.4742326057298669
 20
-30.8724420190995943
 30
0.0
  0
MTEXT
  5
22B
100
AcDbEntity
  8
electrical
 62
256
370
-1
 48
1.0
  6
BYLAYER
100
AcDbMText
 10
28.0
 20
-36.0
 30
0.0
 40
5.0
 41
0.0
 71
1
 72
1
  1
13
  7
textstyle20
 50
0.0
 73
2
 44
1.0
  0
INSERT
  5
22C
100
AcDbEntity
  8
electrical
 62
256
370
-1
 48
1.0
  6
BYLAYER
100
AcDbBlockReference
  2
switch
 10
19.4907624048108516
 20
89.5612383279183888
 30
0.0
  0
MTEXT
  5
22D
100
AcDbEntity
  8
electrical
 62
256
370
-1
 48
1.0
  6
BYLAYER
100
AcDbMText
 10
14.6584872541249922
 20
90.791626610690102
 30
0.0
 40
5.0
 41
0.0
 71
1
 72
1
  1
13
  7
textstyle19
 50
0.0
 73
2
 44
1.0
  0
INSERT
  5
22E
100
AcDbEntity
  8
electrical
 62
256
370
-1
 48
1.0
  6
BYLAYER
100
AcDbBlockReference
  2
switch
 10
-39.0
 20
81.0
 30
0.0
  0
MTEXT
  5
22F
100
AcDbEntity
  8
electrical
 62
256
370
-1
 48
1.0
  6
BYLAYER
100
AcDbMText
 10
-40.0
 20
83.0
 30
0.0
 40
5.0
 41
0.0
 71
1
 72
1
  1
19
  7
textstyle22
 50
0.0
 73
2
 44
1.0
  0
INSERT
  5
230
100
AcDbEntity
  8
electrical
 62
256
370
-1
 48
1.0
  6
BYLAYER
100
AcDbBlockReference
  2
switch
 10
-39.0
 20
89.0
 30
0.0
  0
MTEXT
  5
231
100
AcDbEntity
  8
electrical
 62
256
370
-1
 48
1.0
  6
BYLAYER
100
AcDbMText
 10
-41.0
 20
91.0
 30
0.0
 40
5.0
 41
0.0
 71
1
 72
1
  1
13 Fan
  7
textstyle21
 50
0.0
 73
2
 44
1.0
  0
INSERT
  5
232
100
AcDbEntity
  8
electrical
 62
256
370
-1
 48
1.0
  6
BYLAYER
100
AcDbBlockReference
  2
switch
 10
-39.0
 20
97.0
 30
0.0
  0
MTEXT
  5
233
100
AcDbEntity
  8
electrical
 62
256
370
-1
 48
1.0
  6
BYLAYER
100
AcDbMText
 10
-41.0
 20
99.0
 30
0.0
 40
5.0
 41
0.0
 71
1
 72
1
  1
13
  7
textstyle65
 50
0.0
 73
2
 44
1.0
  0
INSERT
  5
234
100
AcDbEntity
  8
electrical
 62
256
370
-1
 48
1.0
  6
BYLAYER
100
AcDbBlockReference
  2
switch
 10
-39.0
 20
105.0
 30
0.0
  0
MTEXT
  5
235
100
AcDbEntity
  8
electrical
 62
256
370
-1
 48
1.0
  6
BYLAYER
100
AcDbMText
 10
-41.0
 20
107.0
 30
0.0
 40
5.0
 41
0.0
 71
1
 72
1
  1
13
  7
textstyle64
 50
0.0
 73
2
 44
1.0
  0
MTEXT
  5
236
100
AcDbEntity
  8
electrical
 62
256
370
-1
 48
1.0
  6
BYLAYER
100
AcDbMText
 10
-48.0
 20
132.0
 30
0.0
 40
5.0
 41
0.0
 71
1
 72
1
  1
13\PFan
  7
textstyle67
 50
0.0
 73
2
 44
1.0
  0
INSERT
  5
237
100
AcDbEntity
  8
electrical
 62
256
370
-1
 48
1.0
  6
BYLAYER
100
AcDbBlockReference
  2
outlet
 10
-38.0
 20
134.0
 30
0.0
  0
INSERT
  5
238
100
AcDbEntity
  8
electrical
 62
256
370
-1
 48
1.0
  6
BYLAYER
100
AcDbBlockReference
  2
light
 10
-18.0
 20
154.0
 30
0.0
  0
MTEXT
  5
239
100
AcDbEntity
  8
electrical
 62
256
370
-1
 48
1.0
  6
BYLAYER
100
AcDbMText
 10
-28.0
 20
150.0
 30
0.0
 40
5.0
 41
0.0
 71
1
 72
1
  1
13
  7
textstyle66
 50
0.0
 73
2
 44
1.0
  0
INSERT
  5
23A
100
AcDbEntity
  8
electrical
 62
256
370
-1
 48
1.0
  6
BYLAYER
100
AcDbBlockReference
  2
light
 10
108.6116473396999709
 20
113.1497271487040308
 30
0.0
  0
MTEXT
  5
23B
100
AcDbEntity
  8
electrical
 62
256
370
-1
 48
1.0
  6
BYLAYER
100
AcDbMText
 10
112.0
 20
108.0
 30
0.0
 40
5.0
 41
0.0
 71
1
 72
1
  1
19
  7
textstyle61
 50
0.0
 73
2
 44
1.0
  0
INSERT
  5
23C
100
AcDbEntity
  8
electrical
 62
256
370
-1
 48
1.0
  6
BYLAYER
100
AcDbBlockReference
  2
switch
 10
144.0
 20
42.0
 30
0.0
  0
MTEXT
  5
23D
100
AcDbEntity
  8
electrical
 62
256
370
-1
 48
1.0
  6
BYLAYER
100
AcDbMText
 10
138.0
 20
42.0
 30
0.0
 40
5.0
 41
0.0
 71
1
 72
1
  1
19
  7
textstyle60
 50
0.0
 73
2
 44
1.0
  0
MTEXT
  5
23E
100
AcDbEntity
  8
electrical
 62
256
370
-1
 48
1.0
  6
BYLAYER
100
AcDbMText
 10
-156.3560709413369523
 20
29.1471350613915376
 30
0.0
 40
5.0
 41
0.0
 71
1
 72
1
  1
9
  7
textstyle63
 50
0.0
 73
2
 44
1.0
  0
INSERT
  5
23F
100
AcDbEntity
  8
electrical
 62
256
370
-1
 48
1.0
  6
BYLAYER
100
AcDbBlockReference
  2
switch
 10
-153.3560709413369523
 20
29.1471350613915376
 30
0.0
  0
MTEXT
  5
240
100
AcDbEntity
  8
electrical
 62
256
370
-1
 48
1.0
  6
BYLAYER
100
AcDbMText
 10
-143.2453615279672192
 20
1.8576785525593493
 30
0.0
 40
5.0
 41
0.0
 71
1
 72
1
  1
9\PFan
  7
textstyle62
 50
0.0
 73
2
 44
1.0
  0
INSERT
  5
241
100
AcDbEntity
  8
electrical
 62
256
370
-1
 48
1.0
  6
BYLAYER
100
AcDbBlockReference
  2
outlet
 10
-145.2453615279672476
 20
3.5897293601282314
 30
0.0
  0
MTEXT
  5
242
100
AcDbEntity
  8
electrical
 62
256
370
-1
 48
1.0
  6
BYLAYER
100
AcDbMText
 10
-167.9999999999999716
 20
0.2679491924312458
 30
0.0
 40
5.0
 41
0.0
 71
1
 72
1
  1
9
  7
textstyle73
 50
0.0
 73
2
 44
1.0
  0
INSERT
  5
243
100
AcDbEntity
  8
electrical
 62
256
370
-1
 48
1.0
  6
BYLAYER
100
AcDbBlockReference
  2
outlet
 10
-170.0
 20
2.0
 30
0.0
  0
INSERT
  5
244
100
AcDbEntity
  8
electrical
 62
256
370
-1
 48
1.0
  6
BYLAYER
100
AcDbBlockReference
  2
light
 10
-167.3883526603000291
 20
21.1497271487040308
 30
0.0
  0
MTEXT
  5
245
100
AcDbEntity
  8
electrical
 62
256
370
-1
 48
1.0
  6
BYLAYER
100
AcDbMText
 10
-164.9572817189632588
 20
18.4048431105047285
 30
0.0
 40
5.0
 41
0.0
 71
1
 72
1
  1
9
  7
textstyle72
 50
0.0
 73
2
 44
1.0
  0
INSERT
  5
246
100
AcDbEntity
  8
electrical
 62
256
370
-1
 48
1.0
  6
BYLAYER
100
AcDbBlockReference
  2
light
 10
-48.0
 20
158.0
 30
0.0
  0
MTEXT
  5
247
100
AcDbEntity
  8
electrical
 62
256
370
-1
 48
1.0
  6
BYLAYER
100
AcDbMText
 10
-45.5689290586632438
 20
155.2551159618006977
 30
0.0
 40
5.0
 41
0.0
 71
1
 72
1
  1
13
  7
textstyle75
 50
0.0
 73
2
 44
1.0
  0
INSERT
  5
248
100
AcDbEntity
  8
electrical
 62
256
370
-1
 48
1.0
  6
BYLAYER
100
AcDbBlockReference
  2
light
 10
-207.3883526603000291
 20
157.1497271487040166
 30
0.0
  0
MTEXT
  5
249
100
AcDbEntity
  8
electrical
 62
256
370
-1
 48
1.0
  6
BYLAYER
100
AcDbMText
 10
-204.9572817189632588
 20
154.4048431105047143
 30
0.0
 40
5.0
 41
0.0
 71
1
 72
1
  1
11
  7
textstyle74
 50
0.0
 73
2
 44
1.0
  0
INSERT
  5
24A
100
AcDbEntity
  8
electrical
 62
256
370
-1
 48
1.0
  6
BYLAYER
100
AcDbBlockReference
  2
light
 10
-266.5221521145974748
 20
13.1437585266030652
 30
0.0
  0
MTEXT
  5
24B
100
AcDbEntity
  8
electrical
 62
256
370
-1
 48
1.0
  6
BYLAYER
100
AcDbMText
 10
-262.0
 20
10.0
 30
0.0
 40
5.0
 41
0.0
 71
1
 72
1
  1
11
  7
textstyle69
 50
0.0
 73
2
 44
1.0
  0
MTEXT
  5
24C
100
AcDbEntity
  8
electrical
 62
256
370
-1
 48
1.0
  6
BYLAYER
100
AcDbMText
 10
-234.0
 20
183.0
 30
0.0
 40
5.0
 41
0.0
 71
1
 72
1
  1
11
  7
textstyle68
 50
0.0
 73
2
 44
1.0
  0
INSERT
  5
24D
100
AcDbEntity
  8
electrical
 62
256
370
-1
 48
1.0
  6
BYLAYER
100
AcDbBlockReference
  2
outlet
 10
-238.0
 20
187.7320508075689247
 30
0.0
  0
MTEXT
  5
24E
100
AcDbEntity
  8
electrical
 62
256
370
-1
 48
1.0
  6
BYLAYER
100
AcDbMText
 10
-339.0
 20
165.0
 30
0.0
 40
5.0
 41
0.0
 71
1
 72
1
  1
11
  7
textstyle71
 50
0.0
 73
2
 44
1.0
  0
INSERT
  5
24F
100
AcDbEntity
  8
electrical
 62
256
370
-1
 48
1.0
  6
BYLAYER
100
AcDbBlockReference
  2
outlet
 10
-343.3066166439290328
 20
170.0
 30
0.0
  0
MTEXT
  5
250
100
AcDbEntity
  8
electrical
 62
256
370
-1
 48
1.0
  6
BYLAYER
100
AcDbMText
 10
-272.0
 20
88.0
 30
0.0
 40
5.0
 41
0.0
 71
1
 72
1
  1
11
  7
textstyle70
 50
0.0
 73
2
 44
1.0
  0
INSERT
  5
251
100
AcDbEntity
  8
electrical
 62
256
370
-1
 48
1.0
  6
BYLAYER
100
AcDbBlockReference
  2
outlet
 10
-275.3066166439289759
 20
95.1961524227066889
 30
0.0
  0
MTEXT
  5
252
100
AcDbEntity
  8
electrical
 62
256
370
-1
 48
1.0
  6
BYLAYER
100
AcDbMText
 10
-256.0
 20
66.0
 30
0.0
 40
5.0
 41
0.0
 71
1
 72
1
  1
11
  7
textstyle49
 50
0.0
 73
2
 44
1.0
  0
INSERT
  5
253
100
AcDbEntity
  8
electrical
 62
256
370
-1
 48
1.0
  6
BYLAYER
100
AcDbBlockReference
  2
outlet
 10
-259.3066166439290328
 20
70.0
 30
0.0
  0
MTEXT
  5
254
100
AcDbEntity
  8
electrical
 62
256
370
-1
 48
1.0
  6
BYLAYER
100
AcDbMText
 10
-339.0
 20
-30.0
 30
0.0
 40
5.0
 41
0.0
 71
1
 72
1
  1
11
  7
textstyle48
 50
0.0
 73
2
 44
1.0
  0
INSERT
  5
255
100
AcDbEntity
  8
electrical
 62
256
370
-1
 48
1.0
  6
BYLAYER
100
AcDbBlockReference
  2
outlet
 10
-343.3066166439290328
 20
-26.0
 30
0.0
  0
MTEXT
  5
256
100
AcDbEntity
  8
electrical
 62
256
370
-1
 48
1.0
  6
BYLAYER
100
AcDbMText
 10
-236.0
 20
-50.0
 30
0.0
 40
5.0
 41
0.0
 71
1
 72
1
  1
11
  7
textstyle51
 50
0.0
 73
2
 44
1.0
  0
INSERT
  5
257
100
AcDbEntity
  8
electrical
 62
256
370
-1
 48
1.0
  6
BYLAYER
100
AcDbBlockReference
  2
outlet
 10
-239.3066166439290328
 20
-44.8038475772933182
 30
0.0
  0
MTEXT
  5
258
100
AcDbEntity
  8
electrical
 62
256
370
-1
 48
1.0
  6
BYLAYER
100
AcDbMText
 10
-222.0
 20
66.0
 30
0.0
 40
5.0
 41
0.0
 71
1
 72
1
  1
11
  7
textstyle50
 50
0.0
 73
2
 44
1.0
  0
INSERT
  5
259
100
AcDbEntity
  8
electrical
 62
256
370
-1
 48
1.0
  6
BYLAYER
100
AcDbBlockReference
  2
switch
 10
-215.9058269539885657
 20
67.0612383279184314
 30
0.0
  0
MTEXT
  5
25A
100
AcDbEntity
  8
electrical
 62
256
370
-1
 48
1.0
  6
BYLAYER
100
AcDbMText
 10
-222.1095209314138685
 20
86.9438776338824653
 30
0.0
 40
5.0
 41
0.0
 71
1
 72
1
  1
11
  7
textstyle45
 50
0.0
 73
2
 44
1.0
  0
INSERT
  5
25B
100
AcDbEntity
  8
electrical
 62
256
370
-1
 48
1.0
  6
BYLAYER
100
AcDbBlockReference
  2
switch
 10
-216.0
 20
88.0
 30
0.0
  0
MTEXT
  5
25C
100
AcDbEntity
  8
electrical
 62
256
370
-1
 48
1.0
  6
BYLAYER
100
AcDbMText
 10
-16.8246248294679361
 20
119.0
 30
0.0
 40
5.0
 41
0.0
 71
1
 72
1
  1
10,12
  7
textstyle44
 50
0.0
 73
2
 44
1.0
  0
INSERT
  5
25D
100
AcDbEntity
  8
electrical
 62
256
370
-1
 48
1.0
  6
BYLAYER
100
AcDbBlockReference
  2
outlet
 10
-20.0
 20
123.0
 30
0.0
  0
MTEXT
  5
25E
100
AcDbEntity
  8
electrical
 62
256
370
-1
 48
1.0
  6
BYLAYER
100
AcDbMText
 10
-24.0
 20
192.0
 30
0.0
 40
5.0
 41
0.0
 71
1
 72
1
  1
10,12
  7
textstyle47
 50
0.0
 73
2
 44
1.0
  0
INSERT
  5
25F
100
AcDbEntity
  8
electrical
 62
256
370
-1
 48
1.0
  6
BYLAYER
100
AcDbBlockReference
  2
outlet
 10
-30.0
 20
188.0
 30
0.0
  0
MTEXT
  5
260
100
AcDbEntity
  8
electrical
 62
256
370
-1
 48
1.0
  6
BYLAYER
100
AcDbMText
 10
-16.0
 20
178.0
 30
0.0
 40
5.0
 41
0.0
 71
1
 72
1
  1
14,\P16
  7
textstyle46
 50
0.0
 73
2
 44
1.0
  0
INSERT
  5
261
100
AcDbEntity
  8
electrical
 62
256
370
-1
 48
1.0
  6
BYLAYER
100
AcDbBlockReference
  2
outlet
 10
-4.0
 20
180.0
 30
0.0
  0
MTEXT
  5
262
100
AcDbEntity
  8
electrical
 62
256
370
-1
 48
1.0
  6
BYLAYER
100
AcDbMText
 10
-98.0
 20
176.0
 30
0.0
 40
5.0
 41
0.0
 71
1
 72
1
  1
14,16
  7
textstyle57
 50
0.0
 73
2
 44
1.0
  0
INSERT
  5
263
100
AcDbEntity
  8
electrical
 62
256
370
-1
 48
1.0
  6
BYLAYER
100
AcDbBlockReference
  2
outlet
 10
-92.0
 20
188.0
 30
0.0
  0
INSERT
  5
264
100
AcDbEntity
  8
electrical
 62
256
370
-1
 48
1.0
  6
BYLAYER
100
AcDbBlockReference
  2
switch
 10
-40.7566796142887213
 20
187.0620909882185003
 30
0.0
  0
MTEXT
  5
265
100
AcDbEntity
  8
electrical
 62
256
370
-1
 48
1.0
  6
BYLAYER
100
AcDbMText
 10
-54.0
 20
186.0
 30
0.0
 40
5.0
 41
0.0
 71
1
 72
1
  1
22\PGarb.
  7
textstyle56
 50
0.0
 73
2
 44
1.0
  0
MTEXT
  5
266
100
AcDbEntity
  8
electrical
 62
256
370
-1
 48
1.0
  6
BYLAYER
100
AcDbMText
 10
-76.0
 20
184.0
 30
0.0
 40
5.0
 41
0.0
 71
1
 72
1
  1
22\PGarb.
  7
textstyle59
 50
0.0
 73
2
 44
1.0
  0
INSERT
  5
267
100
AcDbEntity
  8
electrical
 62
256
370
-1
 48
1.0
  6
BYLAYER
100
AcDbBlockReference
  2
outlet
 10
-66.0
 20
188.0
 30
0.0
  0
MTEXT
  5
268
100
AcDbEntity
  8
electrical
 62
256
370
-1
 48
1.0
  6
BYLAYER
100
AcDbMText
 10
-136.0
 20
184.0
 30
0.0
 40
5.0
 41
0.0
 71
1
 72
1
  1
15\PFridge /\PDishwasher
  7
textstyle58
 50
0.0
 73
2
 44
1.0
  0
INSERT
  5
269
100
AcDbEntity
  8
electrical
 62
256
370
-1
 48
1.0
  6
BYLAYER
100
AcDbBlockReference
  2
outlet
 10
-126.0
 20
188.0
 30
0.0
  0
MTEXT
  5
26A
100
AcDbEntity
  8
electrical
 62
256
370
-1
 48
1.0
  6
BYLAYER
100
AcDbMText
 10
-145.0
 20
123.0
 30
0.0
 40
5.0
 41
0.0
 71
1
 72
1
  1
17
  7
textstyle53
 50
0.0
 73
2
 44
1.0
  0
INSERT
  5
26B
100
AcDbEntity
  8
electrical
 62
256
370
-1
 48
1.0
  6
BYLAYER
100
AcDbBlockReference
  2
outlet
 10
-148.0
 20
128.0
 30
0.0
  0
INSERT
  5
26C
100
AcDbEntity
  8
electrical
 62
256
370
-1
 48
1.0
  6
BYLAYER
100
AcDbBlockReference
  2
light
 10
-65.3883526603000291
 20
-34.8502728512959692
 30
0.0
  0
MTEXT
  5
26D
100
AcDbEntity
  8
electrical
 62
256
370
-1
 48
1.0
  6
BYLAYER
100
AcDbMText
 10
-62.957281718963273
 20
-37.5951568894952715
 30
0.0
 40
5.0
 41
0.0
 71
1
 72
1
  1
19
  7
textstyle52
 50
0.0
 73
2
 44
1.0
  0
INSERT
  5
26E
100
AcDbEntity
  8
electrical
 62
256
370
-1
 48
1.0
  6
BYLAYER
100
AcDbBlockReference
  2
light
 10
-47.3909106412004348
 20
-66.8511255115961234
 30
0.0
  0
MTEXT
  5
26F
100
AcDbEntity
  8
electrical
 62
256
370
-1
 48
1.0
  6
BYLAYER
100
AcDbMText
 10
-44.9598396998636929
 20
-69.596009549795383
 30
0.0
 40
2.5
 41
0.0
 71
1
 72
1
  1
19
  7
textstyle55
 50
0.0
 73
2
 44
1.0
  0
INSERT
  5
270
100
AcDbEntity
  8
electrical
 62
256
370
-1
 48
1.0
  6
BYLAYER
100
AcDbBlockReference
  2
light
 10
182.0
 20
1.0
 30
0.0
  0
MTEXT
  5
271
100
AcDbEntity
  8
electrical
 62
256
370
-1
 48
1.0
  6
BYLAYER
100
AcDbMText
 10
184.431070941336742
 20
-1.7448840381992738
 30
0.0
 40
5.0
 41
0.0
 71
1
 72
1
  1
19
  7
textstyle54
 50
0.0
 73
2
 44
1.0
  0
INSERT
  5
272
100
AcDbEntity
  8
electrical
 62
256
370
-1
 48
1.0
  6
BYLAYER
100
AcDbBlockReference
  2
light
 10
-170.0
 20
64.0
 30
0.0
  0
MTEXT
  5
273
100
AcDbEntity
  8
electrical
 62
256
370
-1
 48
1.0
  6
BYLAYER
100
AcDbMText
 10
-165.4778478854025252
 20
60.8562414733969348
 30
0.0
 40
5.0
 41
0.0
 71
1
 72
1
  1
9
  7
textstyle94
 50
0.0
 73
2
 44
1.0
  0
MTEXT
  5
274
100
AcDbEntity
  8
electrical
 62
256
370
-1
 48
1.0
  6
BYLAYER
100
AcDbMText
 10
-107.0
 20
57.0
 30
0.0
 40
5.0
 41
0.0
 71
1
 72
1
  1
7
  7
textstyle93
 50
0.0
 73
2
 44
1.0
  0
INSERT
  5
275
100
AcDbEntity
  8
electrical
 62
256
370
-1
 48
1.0
  6
BYLAYER
100
AcDbBlockReference
  2
smoke_detector
 10
-110.6818796840381367
 20
61.108043526603069
 30
0.0
  0
MTEXT
  5
276
100
AcDbEntity
  8
electrical
 62
256
370
-1
 48
1.0
  6
BYLAYER
100
AcDbMText
 10
-186.0
 20
-262.0
 30
0.0
 40
5.0
 41
0.0
 71
1
 72
1
  1
7
  7
textstyle96
 50
0.0
 73
2
 44
1.0
  0
INSERT
  5
277
100
AcDbEntity
  8
electrical
 62
256
370
-1
 48
1.0
  6
BYLAYER
100
AcDbBlockReference
  2
smoke_detector
 10
-188.3676794248294755
 20
-256.9354416030013795
 30
0.0
  0
INSERT
  5
278
100
AcDbEntity
  8
electrical
 62
256
370
-1
 48
1.0
  6
BYLAYER
100
AcDbBlockReference
  2
outlet_220
 10
-4.0
 20
158.0
 30
0.0
  0
MTEXT
  5
279
100
AcDbEntity
  8
electrical
 62
256
370
-1
 48
1.0
  6
BYLAYER
100
AcDbMText
 10
-8.0
 20
147.0
 30
0.0
 40
5.0
 41
0.0
 71
1
 72
1
  1
2,4\PR
  7
textstyle95
 50
0.0
 73
2
 44
1.0
  0
INSERT
  5
27A
100
AcDbEntity
  8
electrical
 62
256
370
-1
 48
1.0
  6
BYLAYER
100
AcDbBlockReference
  2
outlet_220
 10
-100.0
 20
-146.0
 30
0.0
  0
LINE
  5
27B
100
AcDbEntity
  8
0
 62
256
370
-1
 48
1.0
  6
BYLAYER
100
AcDbLine
 10
85.0
 20
11.5
 30
0.0
 11
85.0
 21
31.5
 31
0.0
  0
LINE
  5
27C
100
AcDbEntity
  8
0
 62
256
370
-1
 48
1.0
  6
BYLAYER
100
AcDbLine
 10
119.5
 20
11.5
 30
0.0
 11
119.5
 21
36.5
 31
0.0
  0
DIMENSION
  5
27D
100
AcDbEntity
  8
dimensions
 62
256
370
-1
 48
1.0
  6
BYLAYER
100
AcDbDimension
 10
-351.0
 20
96.5
 30
0.0
 11
-275.0
 21
100.25
 31
0.0
 70
1
 71
8
 72
2
 74
0
 75
0
 41
1.0
 42
0.0
  1

  3
Standard
100
AcDbAlignedDimension
 13
-351.0
 23
81.0
 33
0.0
 14
-199.0
 24
81.0
 34
0.0
1001
ACAD
1000
DSTYLE
1002
{
1070
144
1040
1.0
1070
40
1040
1.0
1002
}
  0
DIMENSION
  5
27E
100
AcDbEntity
  8
dimensions
 62
256
370
-1
 48
1.0
  6
BYLAYER
100
AcDbDimension
 10
-77.0
 20
60.5
 30
0.0
 11
-119.75
 21
64.25
 31
0.0
 70
1
 71
8
 72
2
 74
0
 75
0
 41
1.0
 42
0.0
  1

  3
Standard
100
AcDbAlignedDimension
 13
-77.0
 23
75.0
 33
0.0
 14
-162.5
 24
75.0
 34
0.0
1001
ACAD
1000
DSTYLE
1002
{
1070
144
1040
1.0
1070
40
1040
1.0
1002
}
  0
DIMENSION
  5
27F
100
AcDbEntity
  8
dimensions
 62
256
370
-1
 48
1.0
  6
BYLAYER
100
AcDbDimension
 10
-158.0
 20
216.5
 30
0.0
 11
-78.25
 21
220.25
 31
0.0
 70
1
 71
8
 72
2
 74
0
 75
0
 41
1.0
 42
0.0
  1

  3
Standard
100
AcDbAlignedDimension
 13
-158.0
 23
194.0
 33
0.0
 14
1.499999999999998
 24
194.0
 34
0.0
1001
ACAD
1000
DSTYLE
1002
{
1070
144
1040
1.0
1070
40
1040
1.0
1002
}
  0
DIMENSION
  5
280
100
AcDbEntity
  8
dimensions
 62
256
370
-1
 48
1.0
  6
BYLAYER
100
AcDbDimension
 10
-142.5
 20
194.0
 30
0.0
 11
-146.25
 21
136.75
 31
0.0
 70
1
 71
8
 72
2
 74
0
 75
0
 41
1.0
 42
0.0
  1

  3
Standard
100
AcDbAlignedDimension
 13
-158.0
 23
194.0
 33
0.0
 14
-158.0
 24
79.5
 34
0.0
1001
ACAD
1000
DSTYLE
1002
{
1070
144
1040
1.0
1070
40
1040
1.0
1002
}
  0
DIMENSION
  5
281
100
AcDbEntity
  8
dimensions
 62
256
370
-1
 48
1.0
  6
BYLAYER
100
AcDbDimension
 10
-10.5000000000000053
 20
111.5
 30
0.0
 11
-14.2500000000000036
 21
152.75
 31
0.0
 70
1
 71
8
 72
2
 74
0
 75
0
 41
1.0
 42
0.0
  1

  3
Standard
100
AcDbAlignedDimension
 13
1.4999999999999929
 23
111.5
 33
0.0
 14
1.499999999999998
 24
194.0
 34
0.0
1001
ACAD
1000
DSTYLE
1002
{
1070
144
1040
1.0
1070
40
1040
1.0
1002
}
  0
DIMENSION
  5
282
100
AcDbEntity
  8
dimensions
 62
256
370
-1
 48
1.0
  6
BYLAYER
100
AcDbDimension
 10
-38.5
 20
111.5
 30
0.0
 11
-42.25
 21
93.25
 31
0.0
 70
1
 71
8
 72
2
 74
0
 75
0
 41
1.0
 42
0.0
  1

  3
Standard
100
AcDbAlignedDimension
 13
-31.5000000000000071
 23
111.5
 33
0.0
 14
-31.5000000000000071
 24
75.0
 34
0.0
1001
ACAD
1000
DSTYLE
1002
{
1070
144
1040
1.0
1070
40
1040
1.0
1002
}
  0
DIMENSION
  5
283
100
AcDbEntity
  8
dimensions
 62
256
370
-1
 48
1.0
  6
BYLAYER
100
AcDbDimension
 10
-31.5000000000000036
 20
124.5
 30
0.0
 11
-54.25
 21
128.25
 31
0.0
 70
1
 71
8
 72
2
 74
0
 75
0
 41
1.0
 42
0.0
  1

  3
Standard
100
AcDbAlignedDimension
 13
-31.5000000000000071
 23
75.0
 33
0.0
 14
-77.0
 24
75.0
 34
0.0
1001
ACAD
1000
DSTYLE
1002
{
1070
144
1040
1.0
1070
40
1040
1.0
1002
}
  0
MTEXT
  5
284
100
AcDbEntity
  8
electrical
 62
256
370
-1
 48
1.0
  6
BYLAYER
100
AcDbMText
 10
-360.0
 20
-26.0
 30
0.0
 40
5.0
 41
0.0
 71
1
 72
1
  1
5
  7
textstyle105
 50
0.0
 73
2
 44
1.0
  0
INSERT
  5
285
100
AcDbEntity
  8
electrical
 62
256
370
-1
 48
1.0
  6
BYLAYER
100
AcDbBlockReference
  2
outlet
 10
-363.3066166439290328
 20
-18.0
 30
0.0
  0
MTEXT
  5
286
100
AcDbEntity
  8
electrical
 62
256
370
-1
 48
1.0
  6
BYLAYER
100
AcDbMText
 10
184.0
 20
-20.0
 30
0.0
 40
5.0
 41
0.0
 71
1
 72
1
  1
5
  7
textstyle107
 50
0.0
 73
2
 44
1.0
  0
INSERT
  5
287
100
AcDbEntity
  8
electrical
 62
256
370
-1
 48
1.0
  6
BYLAYER
100
AcDbBlockReference
  2
outlet
 10
180.0
 20
-15.0
 30
0.0
  0
MTEXT
  5
288
100
AcDbEntity
  8
electrical
 62
256
370
-1
 48
1.0
  6
BYLAYER
100
AcDbMText
 10
-348.0
 20
-420.0
 30
0.0
 40
6.0
 41
0.0
 71
1
 72
1
  3
1 Utility Room (Furnace)\P2/4 Kitchen (Stove)\P3 Utility Room (Washing Machine), Woodshop, Vacuum\P5 Outside (Plugs)\P6/8 Utility Room (Dryer)\P7 Hallway 1 & 2 (Smoke Detector)\P9 Bedroom 3 (Lights, Plugs), Hallway 1 & 2 (Light), \P    Bathroom 1 (Li
  3
ght + Fan + Plug),Bathroom 2 (Vanity Light)\P10/12 Kitchen (Plugs)\P11 Bedroom 1 & 2 (Lights, Plugs)\P13 Kitchen (Lights, Range Hood, Fan), Dining Room (Light + Plug), \P    Living Room (Plug), Utility Room (Lights), Wood shop (Light)\P14/16 Kitchen 
  1
(Plugs)
  7
textstyle106
 50
0.0
 73
2
 44
1.0
  0
INSERT
  5
289
100
AcDbEntity
  8
electrical
 62
256
370
-1
 48
1.0
  6
BYLAYER
100
AcDbBlockReference
  2
light
 10
-162.0
 20
-306.0
 30
0.0
  0
MTEXT
  5
28A
100
AcDbEntity
  8
electrical
 62
256
370
-1
 48
1.0
  6
BYLAYER
100
AcDbMText
 10
-158.0
 20
-310.0
 30
0.0
 40
5.0
 41
0.0
 71
1
 72
1
  1
9
  7
textstyle99
 50
0.0
 73
2
 44
1.0
  0
MTEXT
  5
28B
100
AcDbEntity
  8
room_names
 62
256
370
-1
 48
1.0
  6
BYLAYER
100
AcDbMText
 10
84.0
 20
144.0
 30
0.0
 40
6.0
 41
0.0
 71
1
 72
1
  1
Living Room
  7
textstyle100
 50
0.0
 73
2
 44
1.0
  0
MTEXT
  5
28C
100
AcDbEntity
  8
room_names
 62
256
370
-1
 48
1.0
  6
BYLAYER
100
AcDbMText
 10
-96.0
 20
132.0
 30
0.0
 40
6.0
 41
0.0
 71
1
 72
1
  1
Kitchen
  7
textstyle97
 50
0.0
 73
2
 44
1.0
  0
MTEXT
  5
28D
100
AcDbEntity
  8
room_names
 62
256
370
-1
 48
1.0
  6
BYLAYER
100
AcDbMText
 10
0.0
 20
0.0
 30
0.0
 40
6.0
 41
0.0
 71
1
 72
1
  1
Dining Room
  7
textstyle98
 50
0.0
 73
2
 44
1.0
  0
MTEXT
  5
28E
100
AcDbEntity
  8
room_names
 62
256
370
-1
 48
1.0
  6
BYLAYER
100
AcDbMText
 10
-160.1795105702622664
 20
-25.582648152802733
 30
0.0
 40
6.0
 41
0.0
 71
1
 72
1
  1
Bathroom 1
  7
textstyle103
 50
0.0
 73
2
 44
1.0
  0
MTEXT
  5
28F
100
AcDbEntity
  8
room_names
 62
256
370
-1
 48
1.0
  6
BYLAYER
100
AcDbMText
 10
-300.0
 20
-12.0
 30
0.0
 40
6.0
 41
0.0
 71
1
 72
1
  1
Bedroom 1
  7
textstyle104
 50
0.0
 73
2
 44
1.0
  0
MTEXT
  5
290
100
AcDbEntity
  8
room_names
 62
256
370
-1
 48
1.0
  6
BYLAYER
100
AcDbMText
 10
-292.0
 20
140.0
 30
0.0
 40
6.0
 41
0.0
 71
1
 72
1
  1
Bedroom 2
  7
textstyle101
 50
0.0
 73
2
 44
1.0
  0
MTEXT
  5
291
100
AcDbEntity
  8
room_names
 62
256
370
-1
 48
1.0
  6
BYLAYER
100
AcDbMText
 10
101.2215075454799376
 20
-39.6144283411183551
 30
0.0
 40
6.0
 41
0.0
 71
1
 72
1
  1
Front Entrance
  7
textstyle102
 50
0.0
 73
2
 44
1.0
  0
MTEXT
  5
292
100
AcDbEntity
  8
room_names
 62
256
370
-1
 48
1.0
  6
BYLAYER
100
AcDbMText
 10
-104.0
 20
-28.0
 30
0.0
 40
6.0
 41
0.0
 71
1
 72
1
  1
Side\PEntrance
  7
textstyle83
 50
0.0
 73
2
 44
1.0
  0
MTEXT
  5
293
100
AcDbEntity
  8
room_names
 62
256
370
-1
 48
1.0
  6
BYLAYER
100
AcDbMText
 10
68.0
 20
-153.5
 30
0.0
 40
6.0
 41
0.0
 71
1
 72
1
  1
Rec Room
  7
textstyle84
 50
0.0
 73
2
 44
1.0
  0
MTEXT
  5
294
100
AcDbEntity
  8
room_names
 62
256
370
-1
 48
1.0
  6
BYLAYER
100
AcDbMText
 10
-52.0
 20
-357.5
 30
0.0
 40
6.0
 41
0.0
 71
1
 72
1
  1
Server Room
  7
textstyle81
 50
0.0
 73
2
 44
1.0
  0
MTEXT
  5
295
100
AcDbEntity
  8
room_names
 62
256
370
-1
 48
1.0
  6
BYLAYER
100
AcDbMText
 10
124.0
 20
-325.5
 30
0.0
 40
6.0
 41
0.0
 71
1
 72
1
  1
Nook
  7
textstyle82
 50
0.0
 73
2
 44
1.0
  0
MTEXT
  5
296
100
AcDbEntity
  8
room_names
 62
256
370
-1
 48
1.0
  6
BYLAYER
100
AcDbMText
 10
-169.7835166545554841
 20
-336.3478661448960452
 30
0.0
 40
6.0
 41
0.0
 71
1
 72
1
  1
Bathroom 2
  7
textstyle87
 50
0.0
 73
2
 44
1.0
  0
MTEXT
  5
297
100
AcDbEntity
  8
room_names
 62
256
370
-1
 48
1.0
  6
BYLAYER
100
AcDbMText
 10
-297.6257335163426774
 20
-356.6232151403511352
 30
0.0
 40
6.0
 41
0.0
 71
1
 72
1
  1
Bedroom 3
  7
textstyle88
 50
0.0
 73
2
 44
1.0
  0
MTEXT
  5
298
100
AcDbEntity
  8
room_names
 62
256
370
-1
 48
1.0
  6
BYLAYER
100
AcDbMText
 10
-65.4948470012828352
 20
-147.8578007909209475
 30
0.0
 40
6.0
 41
0.0
 71
1
 72
1
  1
Utility Room
  7
textstyle85
 50
0.0
 73
2
 44
1.0
  0
MTEXT
  5
299
100
AcDbEntity
  8
room_names
 62
256
370
-1
 48
1.0
  6
BYLAYER
100
AcDbMText
 10
-288.0
 20
-153.9999999999999147
 30
0.0
 40
6.0
 41
0.0
 71
1
 72
1
  1
Wood Shop
  7
textstyle86
 50
0.0
 73
2
 44
1.0
  0
MTEXT
  5
29A
100
AcDbEntity
  8
room_names
 62
256
370
-1
 48
1.0
  6
BYLAYER
100
AcDbMText
 10
-154.5
 20
60.5
 30
0.0
 40
6.0
 41
0.0
 71
1
 72
1
  1
Hallway 1
  7
textstyle78
 50
0.0
 73
2
 44
1.0
  0
MTEXT
  5
29B
100
AcDbEntity
  8
room_names
 62
256
370
-1
 48
1.0
  6
BYLAYER
100
AcDbMText
 10
-180.0
 20
-257.5
 30
0.0
 40
6.0
 41
0.0
 71
1
 72
1
  1
Hallway 2
  7
textstyle79
 50
0.0
 73
2
 44
1.0
  0
MTEXT
  5
29C
100
AcDbEntity
  8
0
 62
256
370
-1
 48
1.0
  6
BYLAYER
100
AcDbMText
 10
-120.0
 20
240.0
 30
0.0
 40
12.0
 41
0.0
 71
1
 72
1
  1
Upstairs
  7
textstyle76
 50
0.0
 73
2
 44
1.0
  0
MTEXT
  5
29D
100
AcDbEntity
  8
0
 62
256
370
-1
 48
1.0
  6
BYLAYER
100
AcDbMText
 10
-120.0
 20
-96.0
 30
0.0
 40
12.0
 41
0.0
 71
1
 72
1
  1
Downstairs
  7
textstyle77
 50
0.0
 73
2
 44
1.0
  0
DIMENSION
  5
29E
100
AcDbEntity
  8
dimensions
 62
256
370
-1
 48
1.0
  6
BYLAYER
100
AcDbDimension
 10
85.0
 20
-83.0
 30
0.0
 11
126.5
 21
-79.25
 31
0.0
 70
1
 71
8
 72
2
 74
0
 75
0
 41
1.0
 42
0.0
  1

  3
Standard
100
AcDbAlignedDimension
 13
85.0
 23
-57.0
 33
0.0
 14
168.0
 24
-57.0
 34
0.0
1001
ACAD
1000
DSTYLE
1002
{
1070
144
1040
1.0
1070
40
1040
1.0
1002
}
  0
DIMENSION
  5
29F
100
AcDbEntity
  8
dimensions
 62
256
370
-1
 48
1.0
  6
BYLAYER
100
AcDbDimension
 10
192.0
 20
-57.0
 30
0.0
 11
188.25
 21
-12.25
 31
0.0
 70
1
 71
8
 72
2
 74
0
 75
0
 41
1.0
 42
0.0
  1

  3
Standard
100
AcDbAlignedDimension
 13
168.0
 23
-57.0
 33
0.0
 14
168.0
 24
32.5
 34
0.0
1001
ACAD
1000
DSTYLE
1002
{
1070
144
1040
1.0
1070
40
1040
1.0
1002
}
  0
INSERT
  5
2A0
100
AcDbEntity
  8
electrical
 62
256
370
-1
 48
1.0
  6
BYLAYER
100
AcDbBlockReference
  2
light
 10
139.1111137354209859
 20
-27.3511624988247348
 30
0.0
  0
MTEXT
  5
2A1
100
AcDbEntity
  8
electrical
 62
256
370
-1
 48
1.0
  6
BYLAYER
100
AcDbMText
 10
142.0
 20
-31.0
 30
0.0
 40
5.0
 41
0.0
 71
1
 72
1
  1
19
  7
textstyle80
 50
0.0
 73
2
 44
1.0
  0
INSERT
  5
2A2
100
AcDbEntity
  8
electrical
 62
256
370
-1
 48
1.0
  6
BYLAYER
100
AcDbBlockReference
  2
light
 10
-116.0
 20
104.0
 30
0.0
  0
MTEXT
  5
2A3
100
AcDbEntity
  8
electrical
 62
256
370
-1
 48
1.0
  6
BYLAYER
100
AcDbMText
 10
-111.1135691291024443
 20
101.3503440342642534
 30
0.0
 40
5.0
 41
0.0
 71
1
 72
1
  1
13
  7
textstyle92
 50
0.0
 73
2
 44
1.0
  0
DIMENSION
  5
2A4
100
AcDbEntity
  8
dimensions
 62
256
370
-1
 48
1.0
  6
BYLAYER
100
AcDbDimension
 10
-31.5000000000000036
 20
-84.0
 30
0.0
 11
-69.75
 21
-80.25
 31
0.0
 70
1
 71
8
 72
2
 74
0
 75
0
 41
1.0
 42
0.0
  1

  3
Standard
100
AcDbAlignedDimension
 13
-31.5
 23
-57.0
 33
0.0
 14
-108.0
 24
-57.0
 34
0.0
1001
ACAD
1000
DSTYLE
1002
{
1070
144
1040
1.0
1070
40
1040
1.0
1002
}
  0
DIMENSION
  5
2A5
100
AcDbEntity
  8
dimensions
 62
256
370
-1
 48
1.0
  6
BYLAYER
100
AcDbDimension
 10
-232.0
 20
36.0000000000000071
 30
0.0
 11
-235.75
 21
-10.4999999999999929
 31
0.0
 70
1
 71
8
 72
2
 74
0
 75
0
 41
1.0
 42
0.0
  1

  3
Standard
100
AcDbAlignedDimension
 13
-178.5
 23
36.0
 33
0.0
 14
-178.5
 24
-57.0
 34
0.0
1001
ACAD
1000
DSTYLE
1002
{
1070
144
1040
1.0
1070
40
1040
1.0
1002
}
  0
DIMENSION
  5
2A6
100
AcDbEntity
  8
dimensions
 62
256
370
-1
 48
1.0
  6
BYLAYER
100
AcDbDimension
 10
-205.5
 20
24.0
 30
0.0
 11
-192.0
 21
27.75
 31
0.0
 70
1
 71
8
 72
2
 74
0
 75
0
 41
1.0
 42
0.0
  1

  3
Standard
100
AcDbAlignedDimension
 13
-205.5
 23
36.0
 33
0.0
 14
-178.5
 24
36.0
 34
0.0
1001
ACAD
1000
DSTYLE
1002
{
1070
144
1040
1.0
1070
40
1040
1.0
1002
}
  0
DIMENSION
  5
2A7
100
AcDbEntity
  8
dimensions
 62
256
370
-1
 48
1.0
  6
BYLAYER
100
AcDbDimension
 10
119.5
 20
52.0
 30
0.0
 11
157.75
 21
55.75
 31
0.0
 70
1
 71
8
 72
2
 74
0
 75
0
 41
1.0
 42
0.0
  1

  3
Standard
100
AcDbAlignedDimension
 13
119.5
 23
36.5
 33
0.0
 14
196.0
 24
36.5
 34
0.0
1001
ACAD
1000
DSTYLE
1002
{
1070
144
1040
1.0
1070
40
1040
1.0
1002
}
  0
DIMENSION
  5
2A8
100
AcDbEntity
  8
dimensions
 62
256
370
-1
 48
1.0
  6
BYLAYER
100
AcDbDimension
 10
124.0
 20
-12.0
 30
0.0
 11
146.0
 21
-8.25
 31
0.0
 70
1
 71
8
 72
2
 74
0
 75
0
 41
1.0
 42
0.0
  1

  3
Standard
100
AcDbAlignedDimension
 13
124.0
 23
32.5
 33
0.0
 14
168.0
 24
32.5
 34
0.0
1001
ACAD
1000
DSTYLE
1002
{
1070
144
1040
1.0
1070
40
1040
1.0
1002
}
  0
DIMENSION
  5
2A9
100
AcDbEntity
  8
dimensions
 62
256
370
-1
 48
1.0
  6
BYLAYER
100
AcDbDimension
 10
136.0
 20
5.5
 30
0.0
 11
132.25
 21
19.0
 31
0.0
 70
1
 71
8
 72
2
 74
0
 75
0
 41
1.0
 42
0.0
  1

  3
Standard
100
AcDbAlignedDimension
 13
124.0
 23
5.5
 33
0.0
 14
124.0
 24
32.5
 34
0.0
1001
ACAD
1000
DSTYLE
1002
{
1070
144
1040
1.0
1070
40
1040
1.0
1002
}
  0
DIMENSION
  5
2AA
100
AcDbEntity
  8
dimensions
 62
256
370
-1
 48
1.0
  6
BYLAYER
100
AcDbDimension
 10
72.0
 20
-17.5
 30
0.0
 11
68.25
 21
-37.25
 31
0.0
 70
1
 71
8
 72
2
 74
0
 75
0
 41
1.0
 42
0.0
  1

  3
Standard
100
AcDbAlignedDimension
 13
80.5
 23
-17.5
 33
0.0
 14
80.5
 24
-57.0
 34
0.0
1001
ACAD
1000
DSTYLE
1002
{
1070
144
1040
1.0
1070
40
1040
1.0
1002
}
  0
DIMENSION
  5
2AB
100
AcDbEntity
  8
dimensions
 62
256
370
-1
 48
1.0
  6
BYLAYER
100
AcDbDimension
 10
31.9999999999999929
 20
75.0
 30
0.0
 11
28.2499999999999964
 21
134.5
 31
0.0
 70
1
 71
8
 72
2
 74
0
 75
0
 41
1.0
 42
0.0
  1

  3
Standard
100
AcDbAlignedDimension
 13
5.9999999999999929
 23
75.0
 33
0.0
 14
6.0
 24
194.0
 34
0.0
1001
ACAD
1000
DSTYLE
1002
{
1070
144
1040
1.0
1070
40
1040
1.0
1002
}
  0
MTEXT
  5
2AC
100
AcDbEntity
  8
electrical
 62
256
370
-1
 48
1.0
  6
BYLAYER
100
AcDbMText
 10
142.0
 20
-366.0
 30
0.0
 40
5.0
 41
0.0
 71
1
 72
1
  1
25
  7
textstyle89
 50
0.0
 73
2
 44
1.0
  0
INSERT
  5
2AD
100
AcDbEntity
  8
electrical
 62
256
370
-1
 48
1.0
  6
BYLAYER
100
AcDbBlockReference
  2
outlet
 10
136.0
 20
-362.0
 30
0.0
  0
INSERT
  5
2AE
100
AcDbEntity
  8
electrical
 62
256
370
-1
 48
1.0
  6
BYLAYER
100
AcDbBlockReference
  2
switch
 10
130.1492496589359007
 20
41.8528649386084624
 30
0.0
  0
MTEXT
  5
2AF
100
AcDbEntity
  8
electrical
 62
256
370
-1
 48
1.0
  6
BYLAYER
100
AcDbMText
 10
124.1492496589359007
 20
41.8528649386084837
 30
0.0
 40
5.0
 41
0.0
 71
1
 72
1
  1
19
  7
textstyle91
 50
0.0
 73
2
 44
1.0
  0
INSERT
  5
2B0
100
AcDbEntity
  8
electrical
 62
256
370
-1
 48
1.0
  6
BYLAYER
100
AcDbBlockReference
  2
switch
 10
164.1492496589359007
 20
-4.1471350613915376
 30
0.0
  0
MTEXT
  5
2B1
100
AcDbEntity
  8
electrical
 62
256
370
-1
 48
1.0
  6
BYLAYER
100
AcDbMText
 10
158.1492496589359007
 20
-4.1471350613915163
 30
0.0
 40
5.0
 41
0.0
 71
1
 72
1
  1
19
  7
textstyle90
 50
0.0
 73
2
 44
1.0
  0
INSERT
  5
2B2
100
AcDbEntity
  8
electrical
 62
256
370
-1
 48
1.0
  6
BYLAYER
100
AcDbBlockReference
  2
switch
 10
164.1492496589359007
 20
-16.1471350613915376
 30
0.0
  0
MTEXT
  5
2B3
100
AcDbEntity
  8
electrical
 62
256
370
-1
 48
1.0
  6
BYLAYER
100
AcDbMText
 10
158.1492496589359007
 20
-16.1471350613915163
 30
0.0
 40
5.0
 41
0.0
 71
1
 72
1
  1
19
  7
textstyle113
 50
0.0
 73
2
 44
1.0
  0
MTEXT
  5
2B4
100
AcDbEntity
  8
electrical
 62
256
370
-1
 48
1.0
  6
BYLAYER
100
AcDbMText
 10
-60.0
 20
-420.0
 30
0.0
 40
6.0
 41
0.0
 71
1
 72
1
  3
15 Kitchen (Fridge + Dishwasher)\P17 ------\P18/20 Garage\P19 Living Room (Light + Plugs), Front Entrance (Lights In + Out), \P    Side Entrance (Lights In + Out)\P21 Rec Room (Plugs)\P22 Kitchen (Garburator)\P23 Nook (Light)\P25 Rec Room (Plugs)\P27
  1
 Rec Room (Light), Server Room (Light + Plug)\P29 Rec Room (Light)\P31 Bathroom 2 (Lights + Fan + Outlet)
  7
textstyle112
 50
0.0
 73
2
 44
1.0
  0
INSERT
  5
2B5
100
AcDbEntity
  8
electrical
 62
256
370
-1
 48
1.0
  6
BYLAYER
100
AcDbBlockReference
  2
switch
 10
-139.0
 20
29.0
 30
0.0
  0
MTEXT
  5
2B6
100
AcDbEntity
  8
electrical
 62
256
370
-1
 48
1.0
  6
BYLAYER
100
AcDbMText
 10
-142.0
 20
29.0000000000000639
 30
0.0
 40
5.0
 41
0.0
 71
1
 72
1
  1
9
  7
textstyle115
 50
0.0
 73
2
 44
1.0
  0
INSERT
  5
2B7
100
AcDbEntity
  8
electrical
 62
256
370
-1
 48
1.0
  6
BYLAYER
100
AcDbBlockReference
  2
switch
 10
-151.6439290586630477
 20
45.8528649386084624
 30
0.0
  0
MTEXT
  5
2B8
100
AcDbEntity
  8
electrical
 62
256
370
-1
 48
1.0
  6
BYLAYER
100
AcDbMText
 10
-154.6439290586630477
 20
45.8528649386084624
 30
0.0
 40
5.0
 41
0.0
 71
1
 72
1
  1
9
  7
textstyle114
 50
0.0
 73
2
 44
1.0
  0
INSERT
  5
2B9
100
AcDbEntity
  8
electrical
 62
256
370
-1
 48
1.0
  6
BYLAYER
100
AcDbBlockReference
  2
switch
 10
-55.2303691386587019
 20
-51.1165158974323219
 30
0.0
  0
MTEXT
  5
2BA
100
AcDbEntity
  8
electrical
 62
256
370
-1
 48
1.0
  6
BYLAYER
100
AcDbMText
 10
-60.4711315434695678
 20
-51.1777542253507249
 30
0.0
 40
5.0
 41
0.0
 71
1
 72
1
  1
19
  7
textstyle109
 50
0.0
 73
2
 44
1.0
  0
INSERT
  5
2BB
100
AcDbEntity
  8
electrical
 62
256
370
-1
 48
1.0
  6
BYLAYER
100
AcDbBlockReference
  2
switch
 10
-41.2303691386587019
 20
-51.1165158974323219
 30
0.0
  0
MTEXT
  5
2BC
100
AcDbEntity
  8
electrical
 62
256
370
-1
 48
1.0
  6
BYLAYER
100
AcDbMText
 10
-46.4711315434695678
 20
-51.1777542253507249
 30
0.0
 40
5.0
 41
0.0
 71
1
 72
1
  1
19
  7
textstyle108
 50
0.0
 73
2
 44
1.0
  0
INSERT
  5
2BD
100
AcDbEntity
  8
electrical
 62
256
370
-1
 48
1.0
  6
BYLAYER
100
AcDbBlockReference
  2
outlet
 10
-294.0
 20
-224.0
 30
0.0
  0
INSERT
  5
2BE
100
AcDbEntity
  8
electrical
 62
256
370
-1
 48
1.0
  6
BYLAYER
100
AcDbBlockReference
  2
outlet
 10
-310.5
 20
-148.0
 30
0.0
  0
ENDSEC
  0
SECTION
  2
OBJECTS
  0
DICTIONARY
  5
C
100
AcDbDictionary
280
0
281
1
  3
ACAD_GROUP
350
D
  3
ACAD_LAYOUT
350
1A
  3
ACAD_MLINESTYLE
350
17
  3
ACAD_PLOTSETTINGS
350
19
  3
ACAD_PLOTSTYLENAME
350
E
  3
AcDbVariableDictionary
350
2BF
  3
QCAD_OBJECTS
350
2C0
  0
DICTIONARY
  5
D
100
AcDbDictionary
280
0
281
1
  0
ACDBDICTIONARYWDFLT
  5
E
100
AcDbDictionary
281
1
  3
Normal
350
F
100
AcDbDictionaryWithDefault
340
F
  0
ACDBPLACEHOLDER
  5
F
  0
DICTIONARY
  5
17
100
AcDbDictionary
280
0
281
1
  3
Standard
350
18
  0
MLINESTYLE
  5
18
100
AcDbMlineStyle
  2
STANDARD
 70
0
  3

 62
256
 51
90.0
 52
90.0
 71
2
 49
0.5
 62
256
  6
BYLAYER
 49
-0.5
 62
256
  6
BYLAYER
  0
DICTIONARY
  5
19
100
AcDbDictionary
280
0
281
1
  0
DICTIONARY
  5
1A
100
AcDbDictionary
281
1
  3
Layout1
350
1E
  3
Layout2
350
26
  3
Model
350
22
  0
LAYOUT
  5
1E
100
AcDbPlotSettings
  1

  2
none_device
  4

  6

 40
0.0
 41
0.0
 42
0.0
 43
0.0
 44
0.0
 45
0.0
 46
0.0
 47
0.0
 48
0.0
 49
0.0
140
0.0
141
0.0
142
1.0
143
1.0
 70
688
 72
0
 73
0
 74
5
  7

 75
16
147
1.0
148
0.0
149
0.0
100
AcDbLayout
  1
Layout1
 70
1
 71
1
 10
0.0
 20
0.0
 11
420.0
 21
297.0
 12
0.0
 22
0.0
 32
0.0
 14
100000000000000000000.0
 24
100000000000000000000.0
 34
100000000000000000000.0
 15
-100000000000000000000.0
 25
-100000000000000000000.0
 35
-100000000000000000000.0
146
0.0
 13
0.0
 23
0.0
 33
0.0
 16
1.0
 26
0.0
 36
0.0
 17
0.0
 27
1.0
 37
0.0
 76
0
330
1B
  0
LAYOUT
  5
22
100
AcDbPlotSettings
  1

  2
none_device
  4

  6

 40
0.0
 41
0.0
 42
0.0
 43
0.0
 44
0.0
 45
0.0
 46
0.0
 47
0.0
 48
0.0
 49
0.0
140
0.0
141
0.0
142
1.0
143
1.0
 70
1712
 72
0
 73
0
 74
0
  7

 75
0
147
1.0
148
0.0
149
0.0
100
AcDbLayout
  1
Model
 70
1
 71
0
 10
0.0
 20
0.0
 11
12.0
 21
9.0
 12
0.0
 22
0.0
 32
0.0
 14
0.0
 24
0.0
 34
0.0
 15
0.0
 25
0.0
 35
0.0
146
0.0
 13
0.0
 23
0.0
 33
0.0
 16
1.0
 26
0.0
 36
0.0
 17
0.0
 27
1.0
 37
0.0
 76
0
330
1F
  0
LAYOUT
  5
26
100
AcDbPlotSettings
  1

  2
none_device
  4

  6

 40
0.0
 41
0.0
 42
0.0
 43
0.0
 44
0.0
 45
0.0
 46
0.0
 47
0.0
 48
0.0
 49
0.0
140
0.0
141
0.0
142
1.0
143
1.0
 70
688
 72
0
 73
0
 74
5
  7

 75
16
147
1.0
148
0.0
149
0.0
100
AcDbLayout
  1
Layout2
 70
1
 71
2
 10
0.0
 20
0.0
 11
12.0
 21
9.0
 12
0.0
 22
0.0
 32
0.0
 14
0.0
 24
0.0
 34
0.0
 15
0.0
 25
0.0
 35
0.0
146
0.0
 13
0.0
 23
0.0
 33
0.0
 16
1.0
 26
0.0
 36
0.0
 17
0.0
 27
1.0
 37
0.0
 76
0
330
23
  0
DICTIONARY
  5
2BF
100
AcDbDictionary
281
1
  3
DIMASSOC
350
2C2
  3
HIDETEXT
350
2C1
  0
DICTIONARYVAR
  5
2C1
100
DictionaryVariables
280
0
  1
2
  0
DICTIONARYVAR
  5
2C2
100
DictionaryVariables
280
0
  1
1
  0
DICTIONARY
  5
2C0
100
AcDbDictionary
281
1
  3
ColorSettings/BackgroundColor
350
2C3
  3
ColorSettings/ColorMode
350
2C4
  3
DimensionSettings/AngularFormat
350
2C5
  3
DimensionSettings/AngularPrecision
350
2C6
  3
DimensionSettings/KeepProportions
350
2C7
  3
DimensionSettings/LinearFormat
350
2C8
  3
DimensionSettings/LinearPrecision
350
2C9
  3
Grid/DisplayGrid00
350
2CA
  3
Grid/DisplayGrid01
350
2CB
  3
Grid/DisplayGrid02
350
2CC
  3
Grid/DisplayGrid03
350
2CD
  3
Grid/GridSpacingX00
350
2CE
  3
Grid/GridSpacingX01
350
2CF
  3
Grid/GridSpacingX02
350
2D0
  3
Grid/GridSpacingX03
350
2D1
  3
Grid/GridSpacingY00
350
2D2
  3
Grid/GridSpacingY01
350
2D3
  3
Grid/GridSpacingY02
350
2D4
  3
Grid/GridSpacingY03
350
2D5
  3
Grid/IsometricGrid00
350
2D6
  3
Grid/IsometricGrid01
350
2D7
  3
Grid/IsometricGrid02
350
2D8
  3
Grid/IsometricGrid03
350
2D9
  3
Grid/IsometricProjection00
350
2DA
  3
Grid/IsometricProjection01
350
2DB
  3
Grid/IsometricProjection02
350
2DC
  3
Grid/IsometricProjection03
350
2DD
  3
Grid/MetaGridSpacingX00
350
2DE
  3
Grid/MetaGridSpacingX01
350
2DF
  3
Grid/MetaGridSpacingX02
350
2E0
  3
Grid/MetaGridSpacingX03
350
2E1
  3
Grid/MetaGridSpacingY00
350
2E2
  3
Grid/MetaGridSpacingY01
350
2E3
  3
Grid/MetaGridSpacingY02
350
2E4
  3
Grid/MetaGridSpacingY03
350
2E5
  3
MultiPageSettings/Columns
350
2E6
  3
MultiPageSettings/GlueMarginsBottom
350
2E7
  3
MultiPageSettings/GlueMarginsLeft
350
2E8
  3
MultiPageSettings/GlueMarginsRight
350
2E9
  3
MultiPageSettings/GlueMarginsTop
350
2EA
  3
MultiPageSettings/PrintCropMarks
350
2EB
  3
MultiPageSettings/Rows
350
2EC
  3
PageSettings/OffsetX
350
2ED
  3
PageSettings/OffsetY
350
2EE
  3
PageSettings/PageOrientation
350
2EF
  3
PageSettings/PaperHeight
350
2F0
  3
PageSettings/PaperWidth
350
2F1
  3
PageSettings/Scale
350
2F2
  3
PageSettings/ShowPaperBorders
350
2F3
  3
PageTagSettings/EnablePageTags
350
2F4
  3
PageTagSettings/TagAlignment
350
2F5
  3
PageTagSettings/TagFont
350
2F6
  3
PageTagSettings/TagPosition
350
2F7
  3
QCADVersion
350
2F8
  3
UnitSettings/PaperUnit
350
2F9
  3
ViewportCenter
350
2FA
  3
ViewportHeight
350
2FB
  3
ViewportWidth
350
2FC
  0
XRECORD
  5
2C3
330
2C0
100
AcDbXrecord
280
1
1000
White
  0
XRECORD
  5
2C4
330
2C0
100
AcDbXrecord
280
1
1000
FullColor
  0
XRECORD
  5
2C5
330
2C0
100
AcDbXrecord
280
1
 90
0
  0
XRECORD
  5
2C6
330
2C0
100
AcDbXrecord
280
1
 90
0
  0
XRECORD
  5
2C7
330
2C0
100
AcDbXrecord
280
1
290
1
  0
XRECORD
  5
2C8
330
2C0
100
AcDbXrecord
280
1
 90
4
  0
XRECORD
  5
2C9
330
2C0
100
AcDbXrecord
280
1
 90
2
  0
XRECORD
  5
2CA
330
2C0
100
AcDbXrecord
280
1
290
1
  0
XRECORD
  5
2CB
330
2C0
100
AcDbXrecord
280
1
290
1
  0
XRECORD
  5
2CC
330
2C0
100
AcDbXrecord
280
1
290
1
  0
XRECORD
  5
2CD
330
2C0
100
AcDbXrecord
280
1
290
1
  0
XRECORD
  5
2CE
330
2C0
100
AcDbXrecord
280
1
1000
auto
  0
XRECORD
  5
2CF
330
2C0
100
AcDbXrecord
280
1
1000
auto
  0
XRECORD
  5
2D0
330
2C0
100
AcDbXrecord
280
1
1000
auto
  0
XRECORD
  5
2D1
330
2C0
100
AcDbXrecord
280
1
1000
auto
  0
XRECORD
  5
2D2
330
2C0
100
AcDbXrecord
280
1
1000
auto
  0
XRECORD
  5
2D3
330
2C0
100
AcDbXrecord
280
1
1000
auto
  0
XRECORD
  5
2D4
330
2C0
100
AcDbXrecord
280
1
1000
auto
  0
XRECORD
  5
2D5
330
2C0
100
AcDbXrecord
280
1
1000
auto
  0
XRECORD
  5
2D6
330
2C0
100
AcDbXrecord
280
1
290
0
  0
XRECORD
  5
2D7
330
2C0
100
AcDbXrecord
280
1
290
0
  0
XRECORD
  5
2D8
330
2C0
100
AcDbXrecord
280
1
290
0
  0
XRECORD
  5
2D9
330
2C0
100
AcDbXrecord
280
1
290
0
  0
XRECORD
  5
2DA
330
2C0
100
AcDbXrecord
280
1
 90
0
  0
XRECORD
  5
2DB
330
2C0
100
AcDbXrecord
280
1
 90
0
  0
XRECORD
  5
2DC
330
2C0
100
AcDbXrecord
280
1
 90
0
  0
XRECORD
  5
2DD
330
2C0
100
AcDbXrecord
280
1
 90
0
  0
XRECORD
  5
2DE
330
2C0
100
AcDbXrecord
280
1
1000
auto
  0
XRECORD
  5
2DF
330
2C0
100
AcDbXrecord
280
1
1000
auto
  0
XRECORD
  5
2E0
330
2C0
100
AcDbXrecord
280
1
1000
auto
  0
XRECORD
  5
2E1
330
2C0
100
AcDbXrecord
280
1
1000
auto
  0
XRECORD
  5
2E2
330
2C0
100
AcDbXrecord
280
1
1000
auto
  0
XRECORD
  5
2E3
330
2C0
100
AcDbXrecord
280
1
1000
auto
  0
XRECORD
  5
2E4
330
2C0
100
AcDbXrecord
280
1
1000
auto
  0
XRECORD
  5
2E5
330
2C0
100
AcDbXrecord
280
1
1000
auto
  0
XRECORD
  5
2E6
330
2C0
100
AcDbXrecord
280
1
 90
1
  0
XRECORD
  5
2E7
330
2C0
100
AcDbXrecord
280
1
 40
10.0
  0
XRECORD
  5
2E8
330
2C0
100
AcDbXrecord
280
1
 40
10.0
  0
XRECORD
  5
2E9
330
2C0
100
AcDbXrecord
280
1
 40
10.0
  0
XRECORD
  5
2EA
330
2C0
100
AcDbXrecord
280
1
 40
10.0
  0
XRECORD
  5
2EB
330
2C0
100
AcDbXrecord
280
1
290
0
  0
XRECORD
  5
2EC
330
2C0
100
AcDbXrecord
280
1
 90
1
  0
XRECORD
  5
2ED
330
2C0
100
AcDbXrecord
280
1
 40
-408.0899640341879717
  0
XRECORD
  5
2EE
330
2C0
100
AcDbXrecord
280
1
 40
-567.309522955364173
  0
XRECORD
  5
2EF
330
2C0
100
AcDbXrecord
280
1
1000
Portrait
  0
XRECORD
  5
2F0
330
2C0
100
AcDbXrecord
280
1
 40
279.3999999999999773
  0
XRECORD
  5
2F1
330
2C0
100
AcDbXrecord
280
1
 40
215.9000000000000057
  0
XRECORD
  5
2F2
330
2C0
100
AcDbXrecord
280
1
1000
1" = 3"
  0
XRECORD
  5
2F3
330
2C0
100
AcDbXrecord
280
1
290
1
  0
XRECORD
  5
2F4
330
2C0
100
AcDbXrecord
280
1
290
0
  0
XRECORD
  5
2F5
330
2C0
100
AcDbXrecord
280
1
1000
Inside
  0
XRECORD
  5
2F6
330
2C0
100
AcDbXrecord
280
1
1000
Arial,10,-1,5,50,0,0,0,0,0
  0
XRECORD
  5
2F7
330
2C0
100
AcDbXrecord
280
1
1000
TopLeft
  0
XRECORD
  5
2F8
330
2C0
100
AcDbXrecord
280
1
1000
3.25.2
  0
XRECORD
  5
2F9
330
2C0
100
AcDbXrecord
280
1
 90
1
  0
XRECORD
  5
2FB
330
2C0
100
AcDbXrecord
280
1
 40
842.779014288354233
  0
XRECORD
  5
2FC
330
2C0
100
AcDbXrecord
280
1
 40
1792.0011433085214776
  0
ENDSEC
  0
EOF
