999
dxflib 3.3.4.0
  0
SECTION
  2
HEADER
  9
$ACADVER
  1
AC1015
  9
$HANDSEED
  5
FFFF
  9
$DIMADEC
 70
0
  9
$DIMASZ
 40
0.5
  9
$DIMAUNIT
 70
0
  9
$DIMAZIN
 70
2
  9
$DIMDEC
 70
4
  9
$DIMEXE
 40
0.25
  9
$DIMEXO
 40
0.125
  9
$DIMGAP
 40
0.125
  9
$DIMLUNIT
 70
5
  9
$DIMTSZ
 40
0
  9
$DIMTXT
 40
0.5
  9
$DIMZIN
 70
8
  9
$DWGCODEPAGE
  3
ANSI_1252
  9
$INSUNITS
 70
1
  9
$LTSCALE
 40
1.0
  0
ENDSEC
  0
SECTION
  2
TABLES
  0
TABLE
  2
VPORT
  5
8
100
AcDbSymbolTable
 70
1
  0
VPORT
  5
30
100
AcDbSymbolTableRecord
100
AcDbViewportTableRecord
  2
*Active
 70
0
 10
0.0
 20
0.0
 11
1.0
 21
1.0
 12
286.3055555555554861
 22
148.5
 13
0.0
 23
0.0
 14
10.0
 24
10.0
 15
10.0
 25
10.0
 16
0.0
 26
0.0
 36
1.0
 17
0.0
 27
0.0
 37
0.0
 40
297.0
 41
1.92798353909465
 42
50.0
 43
0.0
 44
0.0
 50
0.0
 51
0.0
 71
0
 72
100
 73
1
 74
3
 75
1
 76
1
 77
0
 78
0
281
0
 65
1
110
0.0
120
0.0
130
0.0
111
1.0
121
0.0
131
0.0
112
0.0
122
1.0
132
0.0
 79
0
146
0.0
  0
ENDTAB
  0
TABLE
  2
LTYPE
  5
5
100
AcDbSymbolTable
 70
21
  0
LTYPE
  5
16
100
AcDbSymbolTableRecord
100
AcDbLinetypeTableRecord
  2
CONTINUOUS
 70
0
  3
Solid line
 72
65
 73
0
 40
0.0
  0
LTYPE
  5
31
100
AcDbSymbolTableRecord
100
AcDbLinetypeTableRecord
  2
CENTER2
 70
0
  3
Center (.5x) ___ _ ___ _ ___ _ ___ _ ___ _ ___
 72
65
 73
4
 40
28.5749999999999993
 49
19.0500000000000007
 74
0
 49
-3.1749999999999998
 74
0
 49
3.1749999999999998
 74
0
 49
-3.1749999999999998
 74
0
  0
LTYPE
  5
32
100
AcDbSymbolTableRecord
100
AcDbLinetypeTableRecord
  2
DIVIDEX2
 70
0
  3
Divide (2x) ________  .  .  ________  .  .  _
 72
65
 73
6
 40
63.5
 49
25.3999999999999986
 74
0
 49
-12.6999999999999993
 74
0
 49
0.0
 74
0
 49
-12.6999999999999993
 74
0
 49
0.0
 74
0
 49
-12.6999999999999993
 74
0
  0
LTYPE
  5
33
100
AcDbSymbolTableRecord
100
AcDbLinetypeTableRecord
  2
DOT2
 70
0
  3
Dot (.5x) .....................................
 72
65
 73
2
 40
3.1749999999999998
 49
0.0
 74
0
 49
-3.1749999999999998
 74
0
  0
LTYPE
  5
34
100
AcDbSymbolTableRecord
100
AcDbLinetypeTableRecord
  2
DASHDOT2
 70
0
  3
Dash dot (.5x) _._._._._._._._._._._._._._._.
 72
65
 73
4
 40
12.6999999999999993
 49
6.3499999999999996
 74
0
 49
-3.1749999999999998
 74
0
 49
0.0
 74
0
 49
-3.1749999999999998
 74
0
  0
LTYPE
  5
35
100
AcDbSymbolTableRecord
100
AcDbLinetypeTableRecord
  2
DIVIDE
 70
0
  3
Divide ____ . . ____ . . ____ . . ____ . . ____
 72
65
 73
6
 40
31.75
 49
12.6999999999999993
 74
0
 49
-6.3499999999999996
 74
0
 49
0.0
 74
0
 49
-6.3499999999999996
 74
0
 49
0.0
 74
0
 49
-6.3499999999999996
 74
0
  0
LTYPE
  5
36
100
AcDbSymbolTableRecord
100
AcDbLinetypeTableRecord
  2
DASHDOT
 70
0
  3
Dash dot __ . __ . __ . __ . __ . __ . __ . __
 72
65
 73
4
 40
25.3999999999999986
 49
12.6999999999999993
 74
0
 49
-6.3499999999999996
 74
0
 49
0.0
 74
0
 49
-6.3499999999999996
 74
0
  0
LTYPE
  5
37
100
AcDbSymbolTableRecord
100
AcDbLinetypeTableRecord
  2
BORDER
 70
0
  3
Border __ __ . __ __ . __ __ . __ __ . __ __ .
 72
65
 73
6
 40
44.4500000000000028
 49
12.6999999999999993
 74
0
 49
-6.3499999999999996
 74
0
 49
12.6999999999999993
 74
0
 49
-6.3499999999999996
 74
0
 49
0.0
 74
0
 49
-6.3499999999999996
 74
0
  0
LTYPE
  5
38
100
AcDbSymbolTableRecord
100
AcDbLinetypeTableRecord
  2
DASHDOTX2
 70
0
  3
Dash dot (2x) ____  .  ____  .  ____  .  ___
 72
65
 73
4
 40
50.7999999999999972
 49
25.3999999999999986
 74
0
 49
-12.6999999999999993
 74
0
 49
0.0
 74
0
 49
-12.6999999999999993
 74
0
  0
LTYPE
  5
39
100
AcDbSymbolTableRecord
100
AcDbLinetypeTableRecord
  2
CENTERX2
 70
0
  3
Center (2x) ________  __  ________  __  _____
 72
65
 73
4
 40
101.5999999999999943
 49
63.5
 74
0
 49
-12.6999999999999993
 74
0
 49
12.6999999999999993
 74
0
 49
-12.6999999999999993
 74
0
  0
LTYPE
  5
3A
100
AcDbSymbolTableRecord
100
AcDbLinetypeTableRecord
  2
BORDER2
 70
0
  3
Border (.5x) __.__.__.__.__.__.__.__.__.__.__.
 72
65
 73
6
 40
22.2250000000000014
 49
6.3499999999999996
 74
0
 49
-3.1749999999999998
 74
0
 49
6.3499999999999996
 74
0
 49
-3.1749999999999998
 74
0
 49
0.0
 74
0
 49
-3.1749999999999998
 74
0
  0
LTYPE
  5
3B
100
AcDbSymbolTableRecord
100
AcDbLinetypeTableRecord
  2
BORDERX2
 70
0
  3
Border (2x) ____  ____  .  ____  ____  .  ___
 72
65
 73
6
 40
88.9000000000000057
 49
25.3999999999999986
 74
0
 49
-12.6999999999999993
 74
0
 49
25.3999999999999986
 74
0
 49
-12.6999999999999993
 74
0
 49
0.0
 74
0
 49
-12.6999999999999993
 74
0
  0
LTYPE
  5
14
100
AcDbSymbolTableRecord
100
AcDbLinetypeTableRecord
  2
BYBLOCK
 70
0
  3

 72
65
 73
0
 40
0.0
  0
LTYPE
  5
15
100
AcDbSymbolTableRecord
100
AcDbLinetypeTableRecord
  2
BYLAYER
 70
0
  3

 72
65
 73
0
 40
0.0
  0
LTYPE
  5
3C
100
AcDbSymbolTableRecord
100
AcDbLinetypeTableRecord
  2
DASHED2
 70
0
  3
Dashed (.5x) _ _ _ _ _ _ _ _ _ _ _ _ _ _ _ _ _
 72
65
 73
2
 40
9.5250000000000004
 49
6.3499999999999996
 74
0
 49
-3.1749999999999998
 74
0
  0
LTYPE
  5
3D
100
AcDbSymbolTableRecord
100
AcDbLinetypeTableRecord
  2
CENTER
 70
0
  3
Center ____ _ ____ _ ____ _ ____ _ ____ _ ____
 72
65
 73
4
 40
50.7999999999999972
 49
31.75
 74
0
 49
-6.3499999999999996
 74
0
 49
6.3499999999999996
 74
0
 49
-6.3499999999999996
 74
0
  0
LTYPE
  5
3E
100
AcDbSymbolTableRecord
100
AcDbLinetypeTableRecord
  2
DIVIDE2
 70
0
  3
Divide (.5x) __..__..__..__..__..__..__..__.._
 72
65
 73
6
 40
15.875
 49
6.3499999999999996
 74
0
 49
-3.1749999999999998
 74
0
 49
0.0
 74
0
 49
-3.1749999999999998
 74
0
 49
0.0
 74
0
 49
-3.1749999999999998
 74
0
  0
LTYPE
  5
3F
100
AcDbSymbolTableRecord
100
AcDbLinetypeTableRecord
  2
DASHED
 70
0
  3
Dashed __ __ __ __ __ __ __ __ __ __ __ __ __ _
 72
65
 73
2
 40
19.0500000000000007
 49
12.6999999999999993
 74
0
 49
-6.3499999999999996
 74
0
  0
LTYPE
  5
40
100
AcDbSymbolTableRecord
100
AcDbLinetypeTableRecord
  2
DOTX2
 70
0
  3
Dot (2x) .  .  .  .  .  .  .  .  .  .  .  .  .
 72
65
 73
2
 40
12.6999999999999993
 49
0.0
 74
0
 49
-12.6999999999999993
 74
0
  0
LTYPE
  5
41
100
AcDbSymbolTableRecord
100
AcDbLinetypeTableRecord
  2
DASHEDX2
 70
0
  3
Dashed (2x) ____  ____  ____  ____  ____  ___
 72
65
 73
2
 40
38.1000000000000014
 49
25.3999999999999986
 74
0
 49
-12.6999999999999993
 74
0
  0
LTYPE
  5
42
100
AcDbSymbolTableRecord
100
AcDbLinetypeTableRecord
  2
DOT
 70
0
  3
Dot . . . . . . . . . . . . . . . . . . . . . .
 72
65
 73
2
 40
6.3499999999999996
 49
0.0
 74
0
 49
-6.3499999999999996
 74
0
  0
ENDTAB
  0
TABLE
  2
LAYER
  5
2
100
AcDbSymbolTable
 70
1
  0
LAYER
  5
10
100
AcDbSymbolTableRecord
100
AcDbLayerTableRecord
  2
0
 70
0
 62
7
420
0
  6
CONTINUOUS
370
25
390
F
  0
ENDTAB
  0
TABLE
  2
STYLE
  5
3
100
AcDbSymbolTable
 70
1
  0
STYLE
  5
43
100
AcDbSymbolTableRecord
100
AcDbTextStyleTableRecord
  2
Standard
 70
0
 40
0.0
 41
1.0
 50
0.0
 71
0
 42
2.5
  3

  4

1001
ACAD
1000
txt
1071
0
  0
ENDTAB
  0
TABLE
  2
VIEW
  5
6
100
AcDbSymbolTable
 70
0
  0
ENDTAB
  0
TABLE
  2
UCS
  5
7
100
AcDbSymbolTable
 70
0
  0
ENDTAB
  0
TABLE
  2
APPID
  5
9
100
AcDbSymbolTable
 70
1
  0
APPID
  5
12
100
AcDbSymbolTableRecord
100
AcDbRegAppTableRecord
  2
ACAD
 70
0
  0
APPID
  5
44
100
AcDbSymbolTableRecord
100
AcDbRegAppTableRecord
  2
QCAD
 70
0
  0
ENDTAB
  0
TABLE
  2
DIMSTYLE
  5
A
100
AcDbSymbolTable
 70
1
100
AcDbDimStyleTable
 71
0
  0
DIMSTYLE
105
27
100
AcDbSymbolTableRecord
100
AcDbDimStyleTableRecord
  2
Standard
 41
0.5
 42
0.125
 43
3.75
 44
0.25
 70
0
 73
0
 74
0
 77
1
 78
8
140
0.5
141
2.5
143
0.03937007874016
147
0.125
171
3
172
1
271
2
272
2
274
3
278
44
283
0
284
8
340
43
  0
ENDTAB
  0
TABLE
  2
BLOCK_RECORD
  5
1
100
AcDbSymbolTable
 70
1
  0
BLOCK_RECORD
  5
1F
100
AcDbSymbolTableRecord
100
AcDbBlockTableRecord
  2
*Model_Space
340
22
  0
BLOCK_RECORD
  5
1B
100
AcDbSymbolTableRecord
100
AcDbBlockTableRecord
  2
*Paper_Space
340
1E
  0
BLOCK_RECORD
  5
23
100
AcDbSymbolTableRecord
100
AcDbBlockTableRecord
  2
*Paper_Space0
340
26
  0
ENDTAB
  0
ENDSEC
  0
SECTION
  2
BLOCKS
  0
BLOCK
  5
20
100
AcDbEntity
  8
0
100
AcDbBlockBegin
  2
*Model_Space
 70
0
 10
0.0
 20
0.0
 30
0.0
  3
*Model_Space
  1

  0
ENDBLK
  5
21
100
AcDbEntity
  8
0
100
AcDbBlockEnd
  0
BLOCK
  5
1C
100
AcDbEntity
 67
1
  8
0
100
AcDbBlockBegin
  2
*Paper_Space
 70
0
 10
0.0
 20
0.0
 30
0.0
  3
*Paper_Space
  1

  0
ENDBLK
  5
1D
100
AcDbEntity
 67
1
  8
0
100
AcDbBlockEnd
  0
BLOCK
  5
24
100
AcDbEntity
  8
0
100
AcDbBlockBegin
  2
*Paper_Space0
 70
0
 10
0.0
 20
0.0
 30
0.0
  3
*Paper_Space0
  1

  0
ENDBLK
  5
25
100
AcDbEntity
  8
0
100
AcDbBlockEnd
  0
ENDSEC
  0
SECTION
  2
ENTITIES
  0
LINE
  5
45
100
AcDbEntity
100
AcDbLine
  8
0
 62
256
370
-1
  6
BYLAYER
 10
0.0
 20
0.0
 30
0.0
 11
11.0
 21
0.0
 31
0.0
  0
LINE
  5
46
100
AcDbEntity
100
AcDbLine
  8
0
 62
256
370
-1
  6
BYLAYER
 10
11.0
 20
0.0
 30
0.0
 11
11.0
 21
4.0
 31
0.0
  0
LINE
  5
47
100
AcDbEntity
100
AcDbLine
  8
0
 62
256
370
-1
  6
BYLAYER
 10
11.0
 20
4.0
 30
0.0
 11
0.0
 21
4.0
 31
0.0
  0
LINE
  5
48
100
AcDbEntity
100
AcDbLine
  8
0
 62
256
370
-1
  6
BYLAYER
 10
0.0
 20
4.0
 30
0.0
 11
0.0
 21
0.0
 31
0.0
  0
LINE
  5
49
100
AcDbEntity
100
AcDbLine
  8
0
 62
256
370
-1
  6
BYLAYER
 10
0.75
 20
3.125
 30
0.0
 11
0.75
 21
0.875
 31
0.0
  0
LINE
  5
4A
100
AcDbEntity
100
AcDbLine
  8
0
 62
256
370
-1
  6
BYLAYER
 10
0.875
 20
3.25
 30
0.0
 11
1.0
 21
3.25
 31
0.0
  0
LINE
  5
4B
100
AcDbEntity
100
AcDbLine
  8
0
 62
256
370
-1
  6
BYLAYER
 10
1.125
 20
3.125
 30
0.0
 11
1.125
 21
0.875
 31
0.0
  0
LINE
  5
4C
100
AcDbEntity
100
AcDbLine
  8
0
 62
256
370
-1
  6
BYLAYER
 10
1.0
 20
0.75
 30
0.0
 11
0.875
 21
0.75
 31
0.0
  0
LINE
  5
4D
100
AcDbEntity
100
AcDbLine
  8
0
 62
256
370
-1
  6
BYLAYER
 10
1.5
 20
3.125
 30
0.0
 11
2.0
 21
3.125
 31
0.0
  0
LINE
  5
4E
100
AcDbEntity
100
AcDbLine
  8
0
 62
256
370
-1
  6
BYLAYER
 10
2.125
 20
3.0
 30
0.0
 11
2.125
 21
3.0
 31
0.0
  0
LINE
  5
4F
100
AcDbEntity
100
AcDbLine
  8
0
 62
256
370
-1
  6
BYLAYER
 10
2.0
 20
2.875
 30
0.0
 11
1.5
 21
2.875
 31
0.0
  0
LINE
  5
50
100
AcDbEntity
100
AcDbLine
  8
0
 62
256
370
-1
  6
BYLAYER
 10
1.375
 20
3.0
 30
0.0
 11
1.375
 21
3.0
 31
0.0
  0
LINE
  5
51
100
AcDbEntity
100
AcDbLine
  8
0
 62
256
370
-1
  6
BYLAYER
 10
1.375
 20
2.5
 30
0.0
 11
1.375
 21
1.375
 31
0.0
  0
LINE
  5
52
100
AcDbEntity
100
AcDbLine
  8
0
 62
256
370
-1
  6
BYLAYER
 10
1.5
 20
1.25
 30
0.0
 11
1.5
 21
1.25
 31
0.0
  0
LINE
  5
53
100
AcDbEntity
100
AcDbLine
  8
0
 62
256
370
-1
  6
BYLAYER
 10
1.625
 20
1.375
 30
0.0
 11
1.625
 21
2.5
 31
0.0
  0
LINE
  5
54
100
AcDbEntity
100
AcDbLine
  8
0
 62
256
370
-1
  6
BYLAYER
 10
1.5
 20
2.625
 30
0.0
 11
1.5
 21
2.625
 31
0.0
  0
LINE
  5
55
100
AcDbEntity
100
AcDbLine
  8
0
 62
256
370
-1
  6
BYLAYER
 10
2.0
 20
2.625
 30
0.0
 11
2.0
 21
2.625
 31
0.0
  0
LINE
  5
56
100
AcDbEntity
100
AcDbLine
  8
0
 62
256
370
-1
  6
BYLAYER
 10
1.875
 20
2.0
 30
0.0
 11
1.875
 21
2.0
 31
0.0
  0
LINE
  5
57
100
AcDbEntity
100
AcDbLine
  8
0
 62
256
370
-1
  6
BYLAYER
 10
2.0
 20
1.8125
 30
0.0
 11
3.0
 21
1.8125
 31
0.0
  0
LINE
  5
58
100
AcDbEntity
100
AcDbLine
  8
0
 62
256
370
-1
  6
BYLAYER
 10
3.125
 20
2.0
 30
0.0
 11
3.125
 21
2.0
 31
0.0
  0
LINE
  5
59
100
AcDbEntity
100
AcDbLine
  8
0
 62
256
370
-1
  6
BYLAYER
 10
3.0
 20
2.1875
 30
0.0
 11
2.0
 21
2.1875
 31
0.0
  0
LINE
  5
5A
100
AcDbEntity
100
AcDbLine
  8
0
 62
256
370
-1
  6
BYLAYER
 10
2.125
 20
2.5
 30
0.0
 11
2.125
 21
2.5
 31
0.0
  0
LINE
  5
5B
100
AcDbEntity
100
AcDbLine
  8
0
 62
256
370
-1
  6
BYLAYER
 10
2.0
 20
2.375
 30
0.0
 11
2.0
 21
2.375
 31
0.0
  0
LINE
  5
5C
100
AcDbEntity
100
AcDbLine
  8
0
 62
256
370
-1
  6
BYLAYER
 10
1.875
 20
2.5
 30
0.0
 11
1.875
 21
2.5
 31
0.0
  0
LINE
  5
5D
100
AcDbEntity
100
AcDbLine
  8
0
 62
256
370
-1
  6
BYLAYER
 10
2.375
 20
3.0
 30
0.0
 11
2.375
 21
2.5
 31
0.0
  0
LINE
  5
5E
100
AcDbEntity
100
AcDbLine
  8
0
 62
256
370
-1
  6
BYLAYER
 10
2.5
 20
2.375
 30
0.0
 11
2.5
 21
2.375
 31
0.0
  0
LINE
  5
5F
100
AcDbEntity
100
AcDbLine
  8
0
 62
256
370
-1
  6
BYLAYER
 10
2.625
 20
2.5
 30
0.0
 11
2.625
 21
3.0
 31
0.0
  0
LINE
  5
60
100
AcDbEntity
100
AcDbLine
  8
0
 62
256
370
-1
  6
BYLAYER
 10
2.5
 20
3.125
 30
0.0
 11
2.5
 21
3.125
 31
0.0
  0
LINE
  5
61
100
AcDbEntity
100
AcDbLine
  8
0
 62
256
370
-1
  6
BYLAYER
 10
2.875
 20
2.5
 30
0.0
 11
2.875
 21
2.5
 31
0.0
  0
LINE
  5
62
100
AcDbEntity
100
AcDbLine
  8
0
 62
256
370
-1
  6
BYLAYER
 10
3.0
 20
2.375
 30
0.0
 11
3.0
 21
2.375
 31
0.0
  0
LINE
  5
63
100
AcDbEntity
100
AcDbLine
  8
0
 62
256
370
-1
  6
BYLAYER
 10
3.125
 20
2.5
 30
0.0
 11
3.125
 21
2.5
 31
0.0
  0
LINE
  5
64
100
AcDbEntity
100
AcDbLine
  8
0
 62
256
370
-1
  6
BYLAYER
 10
3.0
 20
2.625
 30
0.0
 11
3.0
 21
2.625
 31
0.0
  0
LINE
  5
65
100
AcDbEntity
100
AcDbLine
  8
0
 62
256
370
-1
  6
BYLAYER
 10
2.875
 20
3.0
 30
0.0
 11
2.875
 21
3.0
 31
0.0
  0
LINE
  5
66
100
AcDbEntity
100
AcDbLine
  8
0
 62
256
370
-1
  6
BYLAYER
 10
3.0
 20
2.875
 30
0.0
 11
3.5
 21
2.875
 31
0.0
  0
LINE
  5
67
100
AcDbEntity
100
AcDbLine
  8
0
 62
256
370
-1
  6
BYLAYER
 10
3.625
 20
3.0
 30
0.0
 11
3.625
 21
3.0
 31
0.0
  0
LINE
  5
68
100
AcDbEntity
100
AcDbLine
  8
0
 62
256
370
-1
  6
BYLAYER
 10
3.5
 20
3.125
 30
0.0
 11
3.0
 21
3.125
 31
0.0
  0
LINE
  5
69
100
AcDbEntity
100
AcDbLine
  8
0
 62
256
370
-1
  6
BYLAYER
 10
3.5
 20
2.625
 30
0.0
 11
3.5
 21
2.625
 31
0.0
  0
LINE
  5
6A
100
AcDbEntity
100
AcDbLine
  8
0
 62
256
370
-1
  6
BYLAYER
 10
3.625
 20
2.5
 30
0.0
 11
3.625
 21
1.375
 31
0.0
  0
LINE
  5
6B
100
AcDbEntity
100
AcDbLine
  8
0
 62
256
370
-1
  6
BYLAYER
 10
3.5
 20
1.25
 30
0.0
 11
3.5
 21
1.25
 31
0.0
  0
LINE
  5
6C
100
AcDbEntity
100
AcDbLine
  8
0
 62
256
370
-1
  6
BYLAYER
 10
3.375
 20
1.375
 30
0.0
 11
3.375
 21
2.5
 31
0.0
  0
LINE
  5
6D
100
AcDbEntity
100
AcDbLine
  8
0
 62
256
370
-1
  6
BYLAYER
 10
2.1249999999999996
 20
1.0000000000000007
 30
0.0
 11
2.1249999999999996
 21
1.0000000000000011
 31
0.0
  0
LINE
  5
6E
100
AcDbEntity
100
AcDbLine
  8
0
 62
256
370
-1
  6
BYLAYER
 10
1.9999999999999998
 20
1.1250000000000011
 30
0.0
 11
1.4999999999999998
 21
1.125000000000002
 31
0.0
  0
LINE
  5
6F
100
AcDbEntity
100
AcDbLine
  8
0
 62
256
370
-1
  6
BYLAYER
 10
1.3749999999999996
 20
1.0000000000000024
 30
0.0
 11
1.3749999999999996
 21
1.0000000000000011
 31
0.0
  0
LINE
  5
70
100
AcDbEntity
100
AcDbLine
  8
0
 62
256
370
-1
  6
BYLAYER
 10
1.9999999999999991
 20
1.375
 30
0.0
 11
1.9999999999999991
 21
1.375
 31
0.0
  0
LINE
  5
71
100
AcDbEntity
100
AcDbLine
  8
0
 62
256
370
-1
  6
BYLAYER
 10
2.125
 20
1.5
 30
0.0
 11
2.125
 21
1.5000000000000009
 31
0.0
  0
LINE
  5
72
100
AcDbEntity
100
AcDbLine
  8
0
 62
256
370
-1
  6
BYLAYER
 10
1.9999999999999996
 20
1.6250000000000007
 30
0.0
 11
1.9999999999999998
 21
1.6250000000000007
 31
0.0
  0
LINE
  5
73
100
AcDbEntity
100
AcDbLine
  8
0
 62
256
370
-1
  6
BYLAYER
 10
1.875
 20
1.5000000000000007
 30
0.0
 11
1.875
 21
1.5
 31
0.0
  0
LINE
  5
74
100
AcDbEntity
100
AcDbLine
  8
0
 62
256
370
-1
  6
BYLAYER
 10
2.375
 20
1.0000000000000007
 30
0.0
 11
2.375
 21
1.5
 31
0.0
  0
LINE
  5
75
100
AcDbEntity
100
AcDbLine
  8
0
 62
256
370
-1
  6
BYLAYER
 10
2.4999999999999987
 20
1.625
 30
0.0
 11
2.4999999999999987
 21
1.625
 31
0.0
  0
LINE
  5
76
100
AcDbEntity
100
AcDbLine
  8
0
 62
256
370
-1
  6
BYLAYER
 10
2.625
 20
1.5
 30
0.0
 11
2.6249999999999996
 21
1.0000000000000004
 31
0.0
  0
LINE
  5
77
100
AcDbEntity
100
AcDbLine
  8
0
 62
256
370
-1
  6
BYLAYER
 10
2.5
 20
0.8750000000000007
 30
0.0
 11
2.5
 21
0.8750000000000007
 31
0.0
  0
LINE
  5
78
100
AcDbEntity
100
AcDbLine
  8
0
 62
256
370
-1
  6
BYLAYER
 10
2.875
 20
1.5000000000000013
 30
0.0
 11
2.875
 21
1.5000000000000002
 31
0.0
  0
LINE
  5
79
100
AcDbEntity
100
AcDbLine
  8
0
 62
256
370
-1
  6
BYLAYER
 10
2.9999999999999973
 20
1.6250000000000002
 30
0.0
 11
2.9999999999999982
 21
1.6250000000000002
 31
0.0
  0
LINE
  5
7A
100
AcDbEntity
100
AcDbLine
  8
0
 62
256
370
-1
  6
BYLAYER
 10
3.1249999999999996
 20
1.4999999999999998
 30
0.0
 11
3.1249999999999996
 21
1.5000000000000011
 31
0.0
  0
LINE
  5
7B
100
AcDbEntity
100
AcDbLine
  8
0
 62
256
370
-1
  6
BYLAYER
 10
3.0
 20
1.3750000000000013
 30
0.0
 11
3.0000000000000004
 21
1.3750000000000013
 31
0.0
  0
LINE
  5
7C
100
AcDbEntity
100
AcDbLine
  8
0
 62
256
370
-1
  6
BYLAYER
 10
2.8749999999999996
 20
1.0
 30
0.0
 11
2.8749999999999996
 21
1.0000000000000013
 31
0.0
  0
LINE
  5
7D
100
AcDbEntity
100
AcDbLine
  8
0
 62
256
370
-1
  6
BYLAYER
 10
3.0
 20
1.1250000000000016
 30
0.0
 11
3.5
 21
1.1250000000000007
 31
0.0
  0
LINE
  5
7E
100
AcDbEntity
100
AcDbLine
  8
0
 62
256
370
-1
  6
BYLAYER
 10
3.625
 20
1.0000000000000007
 30
0.0
 11
3.625
 21
1.0000000000000004
 31
0.0
  0
LINE
  5
7F
100
AcDbEntity
100
AcDbLine
  8
0
 62
256
370
-1
  6
BYLAYER
 10
3.4999999999999996
 20
0.8750000000000004
 30
0.0
 11
2.9999999999999996
 21
0.8750000000000004
 31
0.0
  0
LINE
  5
80
100
AcDbEntity
100
AcDbLine
  8
0
 62
256
370
-1
  6
BYLAYER
 10
1.4999999999999996
 20
0.8750000000000007
 30
0.0
 11
1.9999999999999998
 21
0.8750000000000004
 31
0.0
  0
ARC
  5
81
100
AcDbEntity
  8
0
 62
256
370
-1
  6
BYLAYER
100
AcDbCircle
 10
0.875
 20
3.125
 30
0.0
 40
0.125
100
AcDbArc
 50
90.0
 51
180.0
  0
ARC
  5
82
100
AcDbEntity
  8
0
 62
256
370
-1
  6
BYLAYER
100
AcDbCircle
 10
1.0
 20
3.125
 30
0.0
 40
0.125
100
AcDbArc
 50
0.0
 51
90.0
  0
ARC
  5
83
100
AcDbEntity
  8
0
 62
256
370
-1
  6
BYLAYER
100
AcDbCircle
 10
1.0
 20
0.875
 30
0.0
 40
0.125
100
AcDbArc
 50
270.0
 51
0.0
  0
ARC
  5
84
100
AcDbEntity
  8
0
 62
256
370
-1
  6
BYLAYER
100
AcDbCircle
 10
0.875
 20
0.875
 30
0.0
 40
0.125
100
AcDbArc
 50
180.0
 51
270.0
  0
ARC
  5
85
100
AcDbEntity
  8
0
 62
256
370
-1
  6
BYLAYER
100
AcDbCircle
 10
1.5
 20
3.0
 30
0.0
 40
0.125
100
AcDbArc
 50
90.0
 51
180.0
  0
ARC
  5
86
100
AcDbEntity
  8
0
 62
256
370
-1
  6
BYLAYER
100
AcDbCircle
 10
2.0
 20
3.0
 30
0.0
 40
0.125
100
AcDbArc
 50
0.0
 51
90.0
  0
ARC
  5
87
100
AcDbEntity
  8
0
 62
256
370
-1
  6
BYLAYER
100
AcDbCircle
 10
2.0
 20
3.0
 30
0.0
 40
0.125
100
AcDbArc
 50
270.0
 51
0.0
  0
ARC
  5
88
100
AcDbEntity
  8
0
 62
256
370
-1
  6
BYLAYER
100
AcDbCircle
 10
1.5
 20
3.0
 30
0.0
 40
0.125
100
AcDbArc
 50
180.0
 51
270.0
  0
ARC
  5
89
100
AcDbEntity
  8
0
 62
256
370
-1
  6
BYLAYER
100
AcDbCircle
 10
1.5
 20
2.5
 30
0.0
 40
0.125
100
AcDbArc
 50
90.0
 51
180.0
  0
ARC
  5
8A
100
AcDbEntity
  8
0
 62
256
370
-1
  6
BYLAYER
100
AcDbCircle
 10
1.5
 20
2.5
 30
0.0
 40
0.125
100
AcDbArc
 50
0.0
 51
90.0
  0
ARC
  5
8B
100
AcDbEntity
  8
0
 62
256
370
-1
  6
BYLAYER
100
AcDbCircle
 10
1.5
 20
1.375
 30
0.0
 40
0.125
100
AcDbArc
 50
270.0
 51
0.0
  0
ARC
  5
8C
100
AcDbEntity
  8
0
 62
256
370
-1
  6
BYLAYER
100
AcDbCircle
 10
1.5
 20
1.375
 30
0.0
 40
0.125
100
AcDbArc
 50
180.0
 51
270.0
  0
ARC
  5
8D
100
AcDbEntity
  8
0
 62
256
370
-1
  6
BYLAYER
100
AcDbCircle
 10
1.4999999999999996
 20
1.000000000000002
 30
0.0
 40
0.125
100
AcDbArc
 50
89.9999999999999005
 51
180.0
  0
ARC
  5
8E
100
AcDbEntity
  8
0
 62
256
370
-1
  6
BYLAYER
100
AcDbCircle
 10
1.9999999999999996
 20
1.0000000000000011
 30
0.0
 40
0.125
100
AcDbArc
 50
0.0
 51
89.9999999999999005
  0
ARC
  5
8F
100
AcDbEntity
  8
0
 62
256
370
-1
  6
BYLAYER
100
AcDbCircle
 10
1.9999999999999998
 20
1.0000000000000007
 30
0.0
 40
0.125
100
AcDbArc
 50
270.0
 51
0.0
  0
ARC
  5
90
100
AcDbEntity
  8
0
 62
256
370
-1
  6
BYLAYER
100
AcDbCircle
 10
1.4999999999999996
 20
1.0000000000000007
 30
0.0
 40
0.125
100
AcDbArc
 50
180.0
 51
270.0
  0
ARC
  5
91
100
AcDbEntity
  8
0
 62
256
370
-1
  6
BYLAYER
100
AcDbCircle
 10
2.0
 20
1.5
 30
0.0
 40
0.125
100
AcDbArc
 50
180.0
 51
269.9999999999996021
  0
ARC
  5
92
100
AcDbEntity
  8
0
 62
256
370
-1
  6
BYLAYER
100
AcDbCircle
 10
2.0
 20
1.5
 30
0.0
 40
0.125
100
AcDbArc
 50
269.9999999999996021
 51
0.0
  0
ARC
  5
93
100
AcDbEntity
  8
0
 62
256
370
-1
  6
BYLAYER
100
AcDbCircle
 10
2.0
 20
1.5000000000000009
 30
0.0
 40
0.125
100
AcDbArc
 50
0.0
 51
90.000000000000199
  0
ARC
  5
94
100
AcDbEntity
  8
0
 62
256
370
-1
  6
BYLAYER
100
AcDbCircle
 10
2.0
 20
1.5000000000000007
 30
0.0
 40
0.125
100
AcDbArc
 50
90.0000000000000995
 51
180.0
  0
ARC
  5
95
100
AcDbEntity
  8
0
 62
256
370
-1
  6
BYLAYER
100
AcDbCircle
 10
2.0
 20
2.5
 30
0.0
 40
0.125
100
AcDbArc
 50
180.0
 51
270.0
  0
ARC
  5
96
100
AcDbEntity
  8
0
 62
256
370
-1
  6
BYLAYER
100
AcDbCircle
 10
2.0
 20
2.5
 30
0.0
 40
0.125
100
AcDbArc
 50
270.0
 51
0.0
  0
ARC
  5
97
100
AcDbEntity
  8
0
 62
256
370
-1
  6
BYLAYER
100
AcDbCircle
 10
2.0
 20
2.5
 30
0.0
 40
0.125
100
AcDbArc
 50
0.0
 51
90.0
  0
ARC
  5
98
100
AcDbEntity
  8
0
 62
256
370
-1
  6
BYLAYER
100
AcDbCircle
 10
2.0
 20
2.5
 30
0.0
 40
0.125
100
AcDbArc
 50
90.0
 51
180.0
  0
ARC
  5
99
100
AcDbEntity
  8
0
 62
256
370
-1
  6
BYLAYER
100
AcDbCircle
 10
2.5
 20
3.0
 30
0.0
 40
0.125
100
AcDbArc
 50
90.0
 51
180.0
  0
ARC
  5
9A
100
AcDbEntity
  8
0
 62
256
370
-1
  6
BYLAYER
100
AcDbCircle
 10
2.5
 20
3.0
 30
0.0
 40
0.125
100
AcDbArc
 50
0.0
 51
90.0
  0
ARC
  5
9B
100
AcDbEntity
  8
0
 62
256
370
-1
  6
BYLAYER
100
AcDbCircle
 10
2.5
 20
2.5
 30
0.0
 40
0.125
100
AcDbArc
 50
270.0
 51
0.0
  0
ARC
  5
9C
100
AcDbEntity
  8
0
 62
256
370
-1
  6
BYLAYER
100
AcDbCircle
 10
2.5
 20
2.5
 30
0.0
 40
0.125
100
AcDbArc
 50
180.0
 51
270.0
  0
ARC
  5
9D
100
AcDbEntity
  8
0
 62
256
370
-1
  6
BYLAYER
100
AcDbCircle
 10
2.0
 20
2.0625
 30
0.0
 40
0.125
100
AcDbArc
 50
90.0
 51
180.0
  0
ARC
  5
9E
100
AcDbEntity
  8
0
 62
256
370
-1
  6
BYLAYER
100
AcDbCircle
 10
3.0
 20
2.0625
 30
0.0
 40
0.125
100
AcDbArc
 50
0.0
 51
90.0
  0
ARC
  5
9F
100
AcDbEntity
  8
0
 62
256
370
-1
  6
BYLAYER
100
AcDbCircle
 10
3.0
 20
1.9375
 30
0.0
 40
0.125
100
AcDbArc
 50
270.0
 51
0.0
  0
ARC
  5
A0
100
AcDbEntity
  8
0
 62
256
370
-1
  6
BYLAYER
100
AcDbCircle
 10
2.0
 20
1.9375
 30
0.0
 40
0.125
100
AcDbArc
 50
180.0
 51
270.0
  0
ARC
  5
A1
100
AcDbEntity
  8
0
 62
256
370
-1
  6
BYLAYER
100
AcDbCircle
 10
3.0
 20
2.5
 30
0.0
 40
0.125
100
AcDbArc
 50
180.0
 51
270.0
  0
ARC
  5
A2
100
AcDbEntity
  8
0
 62
256
370
-1
  6
BYLAYER
100
AcDbCircle
 10
3.0
 20
2.5
 30
0.0
 40
0.125
100
AcDbArc
 50
270.0
 51
0.0
  0
ARC
  5
A3
100
AcDbEntity
  8
0
 62
256
370
-1
  6
BYLAYER
100
AcDbCircle
 10
3.0
 20
2.5
 30
0.0
 40
0.125
100
AcDbArc
 50
0.0
 51
90.0
  0
ARC
  5
A4
100
AcDbEntity
  8
0
 62
256
370
-1
  6
BYLAYER
100
AcDbCircle
 10
3.0
 20
2.5
 30
0.0
 40
0.125
100
AcDbArc
 50
90.0
 51
180.0
  0
ARC
  5
A5
100
AcDbEntity
  8
0
 62
256
370
-1
  6
BYLAYER
100
AcDbCircle
 10
3.0
 20
3.0
 30
0.0
 40
0.125
100
AcDbArc
 50
180.0
 51
270.0
  0
ARC
  5
A6
100
AcDbEntity
  8
0
 62
256
370
-1
  6
BYLAYER
100
AcDbCircle
 10
3.0
 20
3.0
 30
0.0
 40
0.125
100
AcDbArc
 50
90.0
 51
180.0
  0
ARC
  5
A7
100
AcDbEntity
  8
0
 62
256
370
-1
  6
BYLAYER
100
AcDbCircle
 10
3.5
 20
3.0
 30
0.0
 40
0.125
100
AcDbArc
 50
0.0
 51
90.0
  0
ARC
  5
A8
100
AcDbEntity
  8
0
 62
256
370
-1
  6
BYLAYER
100
AcDbCircle
 10
3.5
 20
3.0
 30
0.0
 40
0.125
100
AcDbArc
 50
270.0
 51
0.0
  0
ARC
  5
A9
100
AcDbEntity
  8
0
 62
256
370
-1
  6
BYLAYER
100
AcDbCircle
 10
3.5
 20
2.5
 30
0.0
 40
0.125
100
AcDbArc
 50
90.0
 51
180.0
  0
ARC
  5
AA
100
AcDbEntity
  8
0
 62
256
370
-1
  6
BYLAYER
100
AcDbCircle
 10
3.5
 20
2.5
 30
0.0
 40
0.125
100
AcDbArc
 50
0.0
 51
90.0
  0
ARC
  5
AB
100
AcDbEntity
  8
0
 62
256
370
-1
  6
BYLAYER
100
AcDbCircle
 10
3.5
 20
1.375
 30
0.0
 40
0.125
100
AcDbArc
 50
270.0
 51
0.0
  0
ARC
  5
AC
100
AcDbEntity
  8
0
 62
256
370
-1
  6
BYLAYER
100
AcDbCircle
 10
3.5
 20
1.375
 30
0.0
 40
0.125
100
AcDbArc
 50
180.0
 51
270.0
  0
ARC
  5
AD
100
AcDbEntity
  8
0
 62
256
370
-1
  6
BYLAYER
100
AcDbCircle
 10
2.5
 20
1.5
 30
0.0
 40
0.125
100
AcDbArc
 50
90.0000000000006253
 51
180.0
  0
ARC
  5
AE
100
AcDbEntity
  8
0
 62
256
370
-1
  6
BYLAYER
100
AcDbCircle
 10
2.5
 20
1.5
 30
0.0
 40
0.125
100
AcDbArc
 50
0.0
 51
90.0000000000006253
  0
ARC
  5
AF
100
AcDbEntity
  8
0
 62
256
370
-1
  6
BYLAYER
100
AcDbCircle
 10
2.5
 20
1.0000000000000007
 30
0.0
 40
0.125
100
AcDbArc
 50
270.0
 51
360.0
  0
ARC
  5
B0
100
AcDbEntity
  8
0
 62
256
370
-1
  6
BYLAYER
100
AcDbCircle
 10
2.5
 20
1.0000000000000007
 30
0.0
 40
0.125
100
AcDbArc
 50
180.0
 51
270.0
  0
ARC
  5
B1
100
AcDbEntity
  8
0
 62
256
370
-1
  6
BYLAYER
100
AcDbCircle
 10
3.0
 20
1.0000000000000016
 30
0.0
 40
0.125
100
AcDbArc
 50
90.0
 51
180.0
  0
ARC
  5
B2
100
AcDbEntity
  8
0
 62
256
370
-1
  6
BYLAYER
100
AcDbCircle
 10
3.5
 20
1.0000000000000007
 30
0.0
 40
0.125
100
AcDbArc
 50
0.0
 51
90.0
  0
ARC
  5
B3
100
AcDbEntity
  8
0
 62
256
370
-1
  6
BYLAYER
100
AcDbCircle
 10
3.4999999999999996
 20
1.0000000000000004
 30
0.0
 40
0.125
100
AcDbArc
 50
270.0
 51
0.0
  0
ARC
  5
B4
100
AcDbEntity
  8
0
 62
256
370
-1
  6
BYLAYER
100
AcDbCircle
 10
2.9999999999999996
 20
1.0000000000000004
 30
0.0
 40
0.125
100
AcDbArc
 50
180.0
 51
270.0
  0
ARC
  5
B5
100
AcDbEntity
  8
0
 62
256
370
-1
  6
BYLAYER
100
AcDbCircle
 10
3.0
 20
1.5000000000000013
 30
0.0
 40
0.125
100
AcDbArc
 50
180.0
 51
270.0000000000002274
  0
ARC
  5
B6
100
AcDbEntity
  8
0
 62
256
370
-1
  6
BYLAYER
100
AcDbCircle
 10
2.9999999999999996
 20
1.5000000000000013
 30
0.0
 40
0.125
100
AcDbArc
 50
270.0000000000002274
 51
360.0
  0
ARC
  5
B7
100
AcDbEntity
  8
0
 62
256
370
-1
  6
BYLAYER
100
AcDbCircle
 10
2.9999999999999996
 20
1.5000000000000002
 30
0.0
 40
0.125
100
AcDbArc
 50
360.0
 51
90.0000000000006253
  0
ARC
  5
B8
100
AcDbEntity
  8
0
 62
256
370
-1
  6
BYLAYER
100
AcDbCircle
 10
3.0
 20
1.5000000000000002
 30
0.0
 40
0.125
100
AcDbArc
 50
90.0000000000012221
 51
180.0
  0
ARC
  5
B9
100
AcDbEntity
  8
0
 62
256
370
-1
  6
BYLAYER
100
AcDbCircle
 10
8.0
 20
1.0000000000000027
 30
0.0
 40
0.125
100
AcDbArc
 50
360.0
 51
89.9999999999999858
  0
ARC
  5
BA
100
AcDbEntity
  8
0
 62
256
370
-1
  6
BYLAYER
100
AcDbCircle
 10
7.5
 20
1.0000000000000009
 30
0.0
 40
0.125
100
AcDbArc
 50
89.9999999999999858
 51
180.0
  0
ARC
  5
BB
100
AcDbEntity
  8
0
 62
256
370
-1
  6
BYLAYER
100
AcDbCircle
 10
7.5
 20
1.0000000000000004
 30
0.0
 40
0.125
100
AcDbArc
 50
180.0
 51
270.0
  0
ARC
  5
BC
100
AcDbEntity
  8
0
 62
256
370
-1
  6
BYLAYER
100
AcDbCircle
 10
8.0
 20
1.0000000000000013
 30
0.0
 40
0.125
100
AcDbArc
 50
270.0
 51
360.0
  0
ARC
  5
BD
100
AcDbEntity
  8
0
 62
256
370
-1
  6
BYLAYER
100
AcDbCircle
 10
8.0
 20
1.5000000000000027
 30
0.0
 40
0.125
100
AcDbArc
 50
269.9999999999997726
 51
360.0
  0
ARC
  5
BE
100
AcDbEntity
  8
0
 62
256
370
-1
  6
BYLAYER
100
AcDbCircle
 10
8.0000000000000018
 20
1.5000000000000022
 30
0.0
 40
0.125
100
AcDbArc
 50
180.0
 51
269.9999999999997726
  0
ARC
  5
BF
100
AcDbEntity
  8
0
 62
256
370
-1
  6
BYLAYER
100
AcDbCircle
 10
8.0
 20
1.4999999999999991
 30
0.0
 40
0.125
100
AcDbArc
 50
89.9999999999993747
 51
180.0
  0
ARC
  5
C0
100
AcDbEntity
  8
0
 62
256
370
-1
  6
BYLAYER
100
AcDbCircle
 10
8.0
 20
1.4999999999999996
 30
0.0
 40
0.125
100
AcDbArc
 50
360.0
 51
89.9999999999987637
  0
LINE
  5
C1
100
AcDbEntity
100
AcDbLine
  8
0
 62
256
370
-1
  6
BYLAYER
 10
10.25
 20
3.1250000000000013
 30
0.0
 11
10.2499999999999964
 21
0.8749999999999956
 31
0.0
  0
LINE
  5
C2
100
AcDbEntity
100
AcDbLine
  8
0
 62
256
370
-1
  6
BYLAYER
 10
10.125
 20
3.25
 30
0.0
 11
10.0
 21
3.2500000000000027
 31
0.0
  0
LINE
  5
C3
100
AcDbEntity
100
AcDbLine
  8
0
 62
256
370
-1
  6
BYLAYER
 10
9.875
 20
3.125
 30
0.0
 11
9.875
 21
0.8749999999999996
 31
0.0
  0
LINE
  5
C4
100
AcDbEntity
100
AcDbLine
  8
0
 62
256
370
-1
  6
BYLAYER
 10
10.0
 20
0.7499999999999982
 30
0.0
 11
10.125
 21
0.7499999999999996
 31
0.0
  0
LINE
  5
C5
100
AcDbEntity
100
AcDbLine
  8
0
 62
256
370
-1
  6
BYLAYER
 10
9.5
 20
3.1250000000000027
 30
0.0
 11
9.0
 21
3.1249999999999991
 31
0.0
  0
LINE
  5
C6
100
AcDbEntity
100
AcDbLine
  8
0
 62
256
370
-1
  6
BYLAYER
 10
8.875
 20
2.9999999999999996
 30
0.0
 11
8.875
 21
2.9999999999999996
 31
0.0
  0
LINE
  5
C7
100
AcDbEntity
100
AcDbLine
  8
0
 62
256
370
-1
  6
BYLAYER
 10
9.0
 20
2.8750000000000018
 30
0.0
 11
9.5
 21
2.8749999999999973
 31
0.0
  0
LINE
  5
C8
100
AcDbEntity
100
AcDbLine
  8
0
 62
256
370
-1
  6
BYLAYER
 10
9.625
 20
2.9999999999999982
 30
0.0
 11
9.625
 21
2.9999999999999982
 31
0.0
  0
LINE
  5
C9
100
AcDbEntity
100
AcDbLine
  8
0
 62
256
370
-1
  6
BYLAYER
 10
9.625
 20
2.4999999999999964
 30
0.0
 11
9.625
 21
1.3750000000000027
 31
0.0
  0
LINE
  5
CA
100
AcDbEntity
100
AcDbLine
  8
0
 62
256
370
-1
  6
BYLAYER
 10
9.5
 20
1.2500000000000004
 30
0.0
 11
9.5
 21
1.2500000000000004
 31
0.0
  0
LINE
  5
CB
100
AcDbEntity
100
AcDbLine
  8
0
 62
256
370
-1
  6
BYLAYER
 10
9.3749999999999982
 20
1.3749999999999969
 30
0.0
 11
9.375
 21
2.5000000000000013
 31
0.0
  0
LINE
  5
CC
100
AcDbEntity
100
AcDbLine
  8
0
 62
256
370
-1
  6
BYLAYER
 10
9.5
 20
2.6250000000000009
 30
0.0
 11
9.5
 21
2.6250000000000009
 31
0.0
  0
LINE
  5
CD
100
AcDbEntity
100
AcDbLine
  8
0
 62
256
370
-1
  6
BYLAYER
 10
9.0
 20
2.625
 30
0.0
 11
9.0
 21
2.625
 31
0.0
  0
LINE
  5
CE
100
AcDbEntity
100
AcDbLine
  8
0
 62
256
370
-1
  6
BYLAYER
 10
8.875
 20
2.5000000000000018
 30
0.0
 11
8.875
 21
2.5000000000000018
 31
0.0
  0
LINE
  5
CF
100
AcDbEntity
100
AcDbLine
  8
0
 62
256
370
-1
  6
BYLAYER
 10
9.0
 20
2.3749999999999991
 30
0.0
 11
9.0
 21
2.3749999999999991
 31
0.0
  0
LINE
  5
D0
100
AcDbEntity
100
AcDbLine
  8
0
 62
256
370
-1
  6
BYLAYER
 10
9.125
 20
2.5000000000000018
 30
0.0
 11
9.125
 21
2.5000000000000018
 31
0.0
  0
LINE
  5
D1
100
AcDbEntity
100
AcDbLine
  8
0
 62
256
370
-1
  6
BYLAYER
 10
8.625
 20
2.9999999999999987
 30
0.0
 11
8.625
 21
2.4999999999999991
 31
0.0
  0
LINE
  5
D2
100
AcDbEntity
100
AcDbLine
  8
0
 62
256
370
-1
  6
BYLAYER
 10
8.4999999999999982
 20
2.3749999999999978
 30
0.0
 11
8.4999999999999982
 21
2.3749999999999978
 31
0.0
  0
LINE
  5
D3
100
AcDbEntity
100
AcDbLine
  8
0
 62
256
370
-1
  6
BYLAYER
 10
8.375
 20
2.5000000000000004
 30
0.0
 11
8.375
 21
3.0
 31
0.0
  0
LINE
  5
D4
100
AcDbEntity
100
AcDbLine
  8
0
 62
256
370
-1
  6
BYLAYER
 10
8.5
 20
3.1249999999999987
 30
0.0
 11
8.5
 21
3.1249999999999987
 31
0.0
  0
LINE
  5
D5
100
AcDbEntity
100
AcDbLine
  8
0
 62
256
370
-1
  6
BYLAYER
 10
8.125
 20
2.5000000000000004
 30
0.0
 11
8.125
 21
2.5000000000000004
 31
0.0
  0
LINE
  5
D6
100
AcDbEntity
100
AcDbLine
  8
0
 62
256
370
-1
  6
BYLAYER
 10
8.0
 20
2.3750000000000009
 30
0.0
 11
8.0
 21
2.3750000000000009
 31
0.0
  0
LINE
  5
D7
100
AcDbEntity
100
AcDbLine
  8
0
 62
256
370
-1
  6
BYLAYER
 10
7.875
 20
2.5
 30
0.0
 11
7.875
 21
2.5
 31
0.0
  0
LINE
  5
D8
100
AcDbEntity
100
AcDbLine
  8
0
 62
256
370
-1
  6
BYLAYER
 10
8.0
 20
2.6250000000000004
 30
0.0
 11
8.0
 21
2.6250000000000004
 31
0.0
  0
LINE
  5
D9
100
AcDbEntity
100
AcDbLine
  8
0
 62
256
370
-1
  6
BYLAYER
 10
8.125
 20
2.9999999999999991
 30
0.0
 11
8.125
 21
2.9999999999999991
 31
0.0
  0
LINE
  5
DA
100
AcDbEntity
100
AcDbLine
  8
0
 62
256
370
-1
  6
BYLAYER
 10
8.0
 20
2.8749999999999991
 30
0.0
 11
7.5
 21
2.8749999999999996
 31
0.0
  0
LINE
  5
DB
100
AcDbEntity
100
AcDbLine
  8
0
 62
256
370
-1
  6
BYLAYER
 10
7.375
 20
2.9999999999999991
 30
0.0
 11
7.375
 21
2.9999999999999991
 31
0.0
  0
LINE
  5
DC
100
AcDbEntity
100
AcDbLine
  8
0
 62
256
370
-1
  6
BYLAYER
 10
7.4999999999999991
 20
3.1249999999999991
 30
0.0
 11
7.9999999999999991
 21
3.1249999999999982
 31
0.0
  0
LINE
  5
DD
100
AcDbEntity
100
AcDbLine
  8
0
 62
256
370
-1
  6
BYLAYER
 10
7.5
 20
2.625
 30
0.0
 11
7.5
 21
2.625
 31
0.0
  0
LINE
  5
DE
100
AcDbEntity
100
AcDbLine
  8
0
 62
256
370
-1
  6
BYLAYER
 10
7.375
 20
2.5
 30
0.0
 11
7.3749999999999991
 21
1.3749999999999996
 31
0.0
  0
LINE
  5
DF
100
AcDbEntity
100
AcDbLine
  8
0
 62
256
370
-1
  6
BYLAYER
 10
7.5
 20
1.25
 30
0.0
 11
7.5
 21
1.25
 31
0.0
  0
LINE
  5
E0
100
AcDbEntity
100
AcDbLine
  8
0
 62
256
370
-1
  6
BYLAYER
 10
7.6249999999999991
 20
1.3749999999999996
 30
0.0
 11
7.625
 21
2.5
 31
0.0
  0
LINE
  5
E1
100
AcDbEntity
100
AcDbLine
  8
0
 62
256
370
-1
  6
BYLAYER
 10
8.8750000000000018
 20
1.0000000000000027
 30
0.0
 11
8.8750000000000018
 21
1.0000000000000027
 31
0.0
  0
LINE
  5
E2
100
AcDbEntity
100
AcDbLine
  8
0
 62
256
370
-1
  6
BYLAYER
 10
8.9999999999999982
 20
1.1249999999999996
 30
0.0
 11
9.5
 21
1.1250000000000018
 31
0.0
  0
LINE
  5
E3
100
AcDbEntity
100
AcDbLine
  8
0
 62
256
370
-1
  6
BYLAYER
 10
9.625
 20
1.0000000000000036
 30
0.0
 11
9.6249999999999982
 21
0.9999999999999991
 31
0.0
  0
LINE
  5
E4
100
AcDbEntity
100
AcDbLine
  8
0
 62
256
370
-1
  6
BYLAYER
 10
9.0
 20
1.3749999999999991
 30
0.0
 11
9.0
 21
1.3749999999999991
 31
0.0
  0
LINE
  5
E5
100
AcDbEntity
100
AcDbLine
  8
0
 62
256
370
-1
  6
BYLAYER
 10
8.875
 20
1.4999999999999996
 30
0.0
 11
8.875
 21
1.4999999999999996
 31
0.0
  0
LINE
  5
E6
100
AcDbEntity
100
AcDbLine
  8
0
 62
256
370
-1
  6
BYLAYER
 10
9.0
 20
1.6250000000000004
 30
0.0
 11
9.0
 21
1.6250000000000009
 31
0.0
  0
ARC
  5
E7
100
AcDbEntity
  8
0
 62
256
370
-1
  6
BYLAYER
100
AcDbCircle
 10
10.125
 20
3.1249999999999982
 30
0.0
 40
0.125
100
AcDbArc
 50
360.0
 51
89.9999999999999858
  0
LINE
  5
E8
100
AcDbEntity
100
AcDbLine
  8
0
 62
256
370
-1
  6
BYLAYER
 10
9.125
 20
1.4999999999999991
 30
0.0
 11
9.125
 21
1.4999999999999991
 31
0.0
  0
ARC
  5
E9
100
AcDbEntity
  8
0
 62
256
370
-1
  6
BYLAYER
100
AcDbCircle
 10
10.0
 20
3.1250000000000018
 30
0.0
 40
0.125
100
AcDbArc
 50
89.9999999999999858
 51
180.0
  0
LINE
  5
EA
100
AcDbEntity
100
AcDbLine
  8
0
 62
256
370
-1
  6
BYLAYER
 10
8.6250000000000018
 20
1.0000000000000022
 30
0.0
 11
8.625
 21
1.5
 31
0.0
  0
ARC
  5
EB
100
AcDbEntity
  8
0
 62
256
370
-1
  6
BYLAYER
100
AcDbCircle
 10
10.0000000000000018
 20
0.8750000000000013
 30
0.0
 40
0.125
100
AcDbArc
 50
180.0
 51
270.0
  0
LINE
  5
EC
100
AcDbEntity
100
AcDbLine
  8
0
 62
256
370
-1
  6
BYLAYER
 10
8.5000000000000018
 20
1.6250000000000022
 30
0.0
 11
8.5000000000000018
 21
1.6250000000000022
 31
0.0
  0
LINE
  5
ED
100
AcDbEntity
100
AcDbLine
  8
0
 62
256
370
-1
  6
BYLAYER
 10
8.3749999999999982
 20
1.4999999999999978
 30
0.0
 11
8.3750000000000018
 21
1.0000000000000009
 31
0.0
  0
LINE
  5
EE
100
AcDbEntity
100
AcDbLine
  8
0
 62
256
370
-1
  6
BYLAYER
 10
8.5
 20
0.875
 30
0.0
 11
8.5
 21
0.875
 31
0.0
  0
ARC
  5
EF
100
AcDbEntity
  8
0
 62
256
370
-1
  6
BYLAYER
100
AcDbCircle
 10
10.125
 20
0.8749999999999991
 30
0.0
 40
0.125
100
AcDbArc
 50
270.0
 51
360.0
  0
LINE
  5
F0
100
AcDbEntity
100
AcDbLine
  8
0
 62
256
370
-1
  6
BYLAYER
 10
8.1249999999999982
 20
1.5
 30
0.0
 11
8.125
 21
1.4999999999999996
 31
0.0
  0
ARC
  5
F1
100
AcDbEntity
  8
0
 62
256
370
-1
  6
BYLAYER
100
AcDbCircle
 10
9.5
 20
2.9999999999999987
 30
0.0
 40
0.125
100
AcDbArc
 50
360.0
 51
89.9999999999999858
  0
LINE
  5
F2
100
AcDbEntity
100
AcDbLine
  8
0
 62
256
370
-1
  6
BYLAYER
 10
8.0000000000000036
 20
1.6249999999999996
 30
0.0
 11
8.0000000000000018
 21
1.625
 31
0.0
  0
ARC
  5
F3
100
AcDbEntity
  8
0
 62
256
370
-1
  6
BYLAYER
100
AcDbCircle
 10
9.0
 20
2.9999999999999991
 30
0.0
 40
0.125
100
AcDbArc
 50
89.9999999999999858
 51
180.0
  0
LINE
  5
F4
100
AcDbEntity
100
AcDbLine
  8
0
 62
256
370
-1
  6
BYLAYER
 10
7.875
 20
1.5
 30
0.0
 11
7.875
 21
1.5000000000000004
 31
0.0
  0
ARC
  5
F5
100
AcDbEntity
  8
0
 62
256
370
-1
  6
BYLAYER
100
AcDbCircle
 10
9.0
 20
2.9999999999999991
 30
0.0
 40
0.125
100
AcDbArc
 50
180.0
 51
270.0
  0
LINE
  5
F6
100
AcDbEntity
100
AcDbLine
  8
0
 62
256
370
-1
  6
BYLAYER
 10
7.9999999999999982
 20
1.3750000000000004
 30
0.0
 11
7.9999999999999982
 21
1.3750000000000004
 31
0.0
  0
ARC
  5
F7
100
AcDbEntity
  8
0
 62
256
370
-1
  6
BYLAYER
100
AcDbCircle
 10
9.5
 20
2.9999999999999987
 30
0.0
 40
0.125
100
AcDbArc
 50
270.0
 51
360.0
  0
LINE
  5
F8
100
AcDbEntity
100
AcDbLine
  8
0
 62
256
370
-1
  6
BYLAYER
 10
8.1249999999999982
 20
0.9999999999999978
 30
0.0
 11
8.125
 21
1.0000000000000004
 31
0.0
  0
ARC
  5
F9
100
AcDbEntity
  8
0
 62
256
370
-1
  6
BYLAYER
100
AcDbCircle
 10
9.5
 20
2.4999999999999991
 30
0.0
 40
0.125
100
AcDbArc
 50
360.0
 51
89.9999999999999858
  0
LINE
  5
FA
100
AcDbEntity
100
AcDbLine
  8
0
 62
256
370
-1
  6
BYLAYER
 10
8.0
 20
1.1250000000000013
 30
0.0
 11
7.4999999999999991
 21
1.1250000000000004
 31
0.0
  0
ARC
  5
FB
100
AcDbEntity
  8
0
 62
256
370
-1
  6
BYLAYER
100
AcDbCircle
 10
9.5
 20
2.4999999999999991
 30
0.0
 40
0.125
100
AcDbArc
 50
89.9999999999999858
 51
180.0
  0
LINE
  5
FC
100
AcDbEntity
100
AcDbLine
  8
0
 62
256
370
-1
  6
BYLAYER
 10
7.375
 20
1.0000000000000013
 30
0.0
 11
7.3749999999999973
 21
0.9999999999999991
 31
0.0
  0
ARC
  5
FD
100
AcDbEntity
  8
0
 62
256
370
-1
  6
BYLAYER
100
AcDbCircle
 10
9.5
 20
1.3749999999999996
 30
0.0
 40
0.125
100
AcDbArc
 50
180.0
 51
270.0
  0
LINE
  5
FE
100
AcDbEntity
100
AcDbLine
  8
0
 62
256
370
-1
  6
BYLAYER
 10
7.4999999999999991
 20
0.8749999999999996
 30
0.0
 11
7.9999999999999982
 21
0.8749999999999991
 31
0.0
  0
LINE
  5
FF
100
AcDbEntity
100
AcDbLine
  8
0
 62
256
370
-1
  6
BYLAYER
 10
9.4999999999999982
 20
0.8749999999999991
 30
0.0
 11
9.0
 21
0.8750000000000004
 31
0.0
  0
ARC
  5
100
100
AcDbEntity
  8
0
 62
256
370
-1
  6
BYLAYER
100
AcDbCircle
 10
9.5
 20
1.3749999999999996
 30
0.0
 40
0.125
100
AcDbArc
 50
270.0
 51
360.0
  0
ARC
  5
101
100
AcDbEntity
  8
0
 62
256
370
-1
  6
BYLAYER
100
AcDbCircle
 10
9.5
 20
1.0
 30
0.0
 40
0.125
100
AcDbArc
 50
360.0
 51
90.0000000000000853
  0
ARC
  5
102
100
AcDbEntity
  8
0
 62
256
370
-1
  6
BYLAYER
100
AcDbCircle
 10
8.9999999999999982
 20
0.9999999999999991
 30
0.0
 40
0.125
100
AcDbArc
 50
90.0000000000000853
 51
180.0
  0
ARC
  5
103
100
AcDbEntity
  8
0
 62
256
370
-1
  6
BYLAYER
100
AcDbCircle
 10
8.9999999999999982
 20
0.9999999999999996
 30
0.0
 40
0.125
100
AcDbArc
 50
180.0
 51
270.0
  0
ARC
  5
104
100
AcDbEntity
  8
0
 62
256
370
-1
  6
BYLAYER
100
AcDbCircle
 10
9.5
 20
1.0
 30
0.0
 40
0.125
100
AcDbArc
 50
270.0
 51
360.0
  0
ARC
  5
105
100
AcDbEntity
  8
0
 62
256
370
-1
  6
BYLAYER
100
AcDbCircle
 10
9.0
 20
1.4999999999999996
 30
0.0
 40
0.125
100
AcDbArc
 50
270.0000000000003979
 51
360.0
  0
ARC
  5
106
100
AcDbEntity
  8
0
 62
256
370
-1
  6
BYLAYER
100
AcDbCircle
 10
9.0
 20
1.4999999999999996
 30
0.0
 40
0.125
100
AcDbArc
 50
180.0
 51
270.0000000000003979
  0
ARC
  5
107
100
AcDbEntity
  8
0
 62
256
370
-1
  6
BYLAYER
100
AcDbCircle
 10
9.0
 20
1.4999999999999996
 30
0.0
 40
0.125
100
AcDbArc
 50
89.9999999999997868
 51
180.0
  0
ARC
  5
108
100
AcDbEntity
  8
0
 62
256
370
-1
  6
BYLAYER
100
AcDbCircle
 10
9.0
 20
1.4999999999999996
 30
0.0
 40
0.125
100
AcDbArc
 50
360.0
 51
89.9999999999998863
  0
ARC
  5
109
100
AcDbEntity
  8
0
 62
256
370
-1
  6
BYLAYER
100
AcDbCircle
 10
9.0
 20
2.4999999999999991
 30
0.0
 40
0.125
100
AcDbArc
 50
270.0
 51
360.0
  0
ARC
  5
10A
100
AcDbEntity
  8
0
 62
256
370
-1
  6
BYLAYER
100
AcDbCircle
 10
9.0
 20
2.4999999999999991
 30
0.0
 40
0.125
100
AcDbArc
 50
180.0
 51
270.0
  0
ARC
  5
10B
100
AcDbEntity
  8
0
 62
256
370
-1
  6
BYLAYER
100
AcDbCircle
 10
9.0
 20
2.4999999999999991
 30
0.0
 40
0.125
100
AcDbArc
 50
89.9999999999999858
 51
180.0
  0
ARC
  5
10C
100
AcDbEntity
  8
0
 62
256
370
-1
  6
BYLAYER
100
AcDbCircle
 10
9.0
 20
2.4999999999999991
 30
0.0
 40
0.125
100
AcDbArc
 50
360.0
 51
89.9999999999999858
  0
ARC
  5
10D
100
AcDbEntity
  8
0
 62
256
370
-1
  6
BYLAYER
100
AcDbCircle
 10
8.5
 20
2.9999999999999991
 30
0.0
 40
0.125
100
AcDbArc
 50
360.0
 51
89.9999999999999858
  0
ARC
  5
10E
100
AcDbEntity
  8
0
 62
256
370
-1
  6
BYLAYER
100
AcDbCircle
 10
8.5
 20
2.9999999999999991
 30
0.0
 40
0.125
100
AcDbArc
 50
89.9999999999999858
 51
180.0
  0
ARC
  5
10F
100
AcDbEntity
  8
0
 62
256
370
-1
  6
BYLAYER
100
AcDbCircle
 10
8.5
 20
2.4999999999999991
 30
0.0
 40
0.125
100
AcDbArc
 50
180.0
 51
270.0
  0
ARC
  5
110
100
AcDbEntity
  8
0
 62
256
370
-1
  6
BYLAYER
100
AcDbCircle
 10
8.5
 20
2.4999999999999991
 30
0.0
 40
0.125
100
AcDbArc
 50
270.0
 51
360.0
  0
ARC
  5
111
100
AcDbEntity
  8
0
 62
256
370
-1
  6
BYLAYER
100
AcDbCircle
 10
8.0
 20
2.5
 30
0.0
 40
0.125
100
AcDbArc
 50
270.0
 51
360.0
  0
ARC
  5
112
100
AcDbEntity
  8
0
 62
256
370
-1
  6
BYLAYER
100
AcDbCircle
 10
8.0
 20
2.5
 30
0.0
 40
0.125
100
AcDbArc
 50
180.0
 51
270.0
  0
ARC
  5
113
100
AcDbEntity
  8
0
 62
256
370
-1
  6
BYLAYER
100
AcDbCircle
 10
8.0
 20
2.5
 30
0.0
 40
0.125
100
AcDbArc
 50
89.9999999999999858
 51
180.0
  0
ARC
  5
114
100
AcDbEntity
  8
0
 62
256
370
-1
  6
BYLAYER
100
AcDbCircle
 10
8.0
 20
2.5
 30
0.0
 40
0.125
100
AcDbArc
 50
360.0
 51
89.9999999999999858
  0
ARC
  5
115
100
AcDbEntity
  8
0
 62
256
370
-1
  6
BYLAYER
100
AcDbCircle
 10
8.0
 20
2.9999999999999996
 30
0.0
 40
0.125
100
AcDbArc
 50
270.0
 51
360.0
  0
ARC
  5
116
100
AcDbEntity
  8
0
 62
256
370
-1
  6
BYLAYER
100
AcDbCircle
 10
8.0
 20
2.9999999999999996
 30
0.0
 40
0.125
100
AcDbArc
 50
360.0
 51
89.9999999999999858
  0
ARC
  5
117
100
AcDbEntity
  8
0
 62
256
370
-1
  6
BYLAYER
100
AcDbCircle
 10
7.5
 20
2.9999999999999996
 30
0.0
 40
0.125
100
AcDbArc
 50
89.9999999999999858
 51
180.0
  0
ARC
  5
118
100
AcDbEntity
  8
0
 62
256
370
-1
  6
BYLAYER
100
AcDbCircle
 10
7.5
 20
2.9999999999999996
 30
0.0
 40
0.125
100
AcDbArc
 50
180.0
 51
270.0
  0
ARC
  5
119
100
AcDbEntity
  8
0
 62
256
370
-1
  6
BYLAYER
100
AcDbCircle
 10
7.5
 20
2.5
 30
0.0
 40
0.125
100
AcDbArc
 50
360.0
 51
89.9999999999999858
  0
ARC
  5
11A
100
AcDbEntity
  8
0
 62
256
370
-1
  6
BYLAYER
100
AcDbCircle
 10
7.5
 20
2.5
 30
0.0
 40
0.125
100
AcDbArc
 50
89.9999999999999858
 51
180.0
  0
ARC
  5
11B
100
AcDbEntity
  8
0
 62
256
370
-1
  6
BYLAYER
100
AcDbCircle
 10
7.5
 20
1.375
 30
0.0
 40
0.125
100
AcDbArc
 50
180.0
 51
270.0
  0
ARC
  5
11C
100
AcDbEntity
  8
0
 62
256
370
-1
  6
BYLAYER
100
AcDbCircle
 10
7.5
 20
1.375
 30
0.0
 40
0.125
100
AcDbArc
 50
270.0
 51
360.0
  0
ARC
  5
11D
100
AcDbEntity
  8
0
 62
256
370
-1
  6
BYLAYER
100
AcDbCircle
 10
8.5
 20
1.5000000000000004
 30
0.0
 40
0.125
100
AcDbArc
 50
360.0
 51
89.9999999999993747
  0
ARC
  5
11E
100
AcDbEntity
  8
0
 62
256
370
-1
  6
BYLAYER
100
AcDbCircle
 10
8.5
 20
1.5000000000000004
 30
0.0
 40
0.125
100
AcDbArc
 50
89.9999999999993747
 51
180.0
  0
ARC
  5
11F
100
AcDbEntity
  8
0
 62
256
370
-1
  6
BYLAYER
100
AcDbCircle
 10
8.5000000000000018
 20
1.0000000000000031
 30
0.0
 40
0.125
100
AcDbArc
 50
180.0
 51
270.0
  0
ARC
  5
120
100
AcDbEntity
  8
0
 62
256
370
-1
  6
BYLAYER
100
AcDbCircle
 10
8.5000000000000018
 20
1.0000000000000031
 30
0.0
 40
0.125
100
AcDbArc
 50
270.0
 51
360.0
  0
LINE
  5
121
100
AcDbEntity
100
AcDbLine
  8
0
 62
256
370
-1
  6
BYLAYER
 10
5.875
 20
2.5000000000000018
 30
0.0
 11
5.875
 21
2.5000000000000018
 31
0.0
  0
LINE
  5
122
100
AcDbEntity
100
AcDbLine
  8
0
 62
256
370
-1
  6
BYLAYER
 10
6.0
 20
2.3749999999999991
 30
0.0
 11
6.0
 21
2.3749999999999991
 31
0.0
  0
LINE
  5
123
100
AcDbEntity
100
AcDbLine
  8
0
 62
256
370
-1
  6
BYLAYER
 10
6.125
 20
2.5000000000000018
 30
0.0
 11
6.125
 21
2.5000000000000018
 31
0.0
  0
LINE
  5
124
100
AcDbEntity
100
AcDbLine
  8
0
 62
256
370
-1
  6
BYLAYER
 10
5.625
 20
2.9999999999999987
 30
0.0
 11
5.625
 21
2.4999999999999991
 31
0.0
  0
LINE
  5
125
100
AcDbEntity
100
AcDbLine
  8
0
 62
256
370
-1
  6
BYLAYER
 10
5.4999999999999982
 20
2.3749999999999978
 30
0.0
 11
5.4999999999999982
 21
2.3749999999999978
 31
0.0
  0
LINE
  5
126
100
AcDbEntity
100
AcDbLine
  8
0
 62
256
370
-1
  6
BYLAYER
 10
5.375
 20
2.5000000000000004
 30
0.0
 11
5.375
 21
3.0
 31
0.0
  0
LINE
  5
127
100
AcDbEntity
100
AcDbLine
  8
0
 62
256
370
-1
  6
BYLAYER
 10
5.5
 20
3.1249999999999987
 30
0.0
 11
5.5
 21
3.1249999999999987
 31
0.0
  0
LINE
  5
128
100
AcDbEntity
100
AcDbLine
  8
0
 62
256
370
-1
  6
BYLAYER
 10
5.125
 20
2.5000000000000004
 30
0.0
 11
5.125
 21
2.5000000000000004
 31
0.0
  0
LINE
  5
129
100
AcDbEntity
100
AcDbLine
  8
0
 62
256
370
-1
  6
BYLAYER
 10
5.0
 20
2.3750000000000009
 30
0.0
 11
5.0
 21
2.3750000000000009
 31
0.0
  0
LINE
  5
12A
100
AcDbEntity
100
AcDbLine
  8
0
 62
256
370
-1
  6
BYLAYER
 10
4.875
 20
2.5
 30
0.0
 11
4.875
 21
2.5
 31
0.0
  0
LINE
  5
12B
100
AcDbEntity
100
AcDbLine
  8
0
 62
256
370
-1
  6
BYLAYER
 10
5.0
 20
2.6250000000000004
 30
0.0
 11
5.0
 21
2.6250000000000004
 31
0.0
  0
LINE
  5
12C
100
AcDbEntity
100
AcDbLine
  8
0
 62
256
370
-1
  6
BYLAYER
 10
5.125
 20
2.9999999999999991
 30
0.0
 11
5.125
 21
2.9999999999999991
 31
0.0
  0
LINE
  5
12D
100
AcDbEntity
100
AcDbLine
  8
0
 62
256
370
-1
  6
BYLAYER
 10
5.0
 20
2.8749999999999991
 30
0.0
 11
4.5
 21
2.8749999999999996
 31
0.0
  0
LINE
  5
12E
100
AcDbEntity
100
AcDbLine
  8
0
 62
256
370
-1
  6
BYLAYER
 10
4.375
 20
2.9999999999999991
 30
0.0
 11
4.375
 21
2.9999999999999991
 31
0.0
  0
LINE
  5
12F
100
AcDbEntity
100
AcDbLine
  8
0
 62
256
370
-1
  6
BYLAYER
 10
4.4999999999999991
 20
3.1249999999999991
 30
0.0
 11
4.9999999999999991
 21
3.1249999999999982
 31
0.0
  0
LINE
  5
130
100
AcDbEntity
100
AcDbLine
  8
0
 62
256
370
-1
  6
BYLAYER
 10
4.5
 20
2.625
 30
0.0
 11
4.5
 21
2.625
 31
0.0
  0
LINE
  5
131
100
AcDbEntity
100
AcDbLine
  8
0
 62
256
370
-1
  6
BYLAYER
 10
4.375
 20
2.5
 30
0.0
 11
4.3749999999999991
 21
1.3749999999999996
 31
0.0
  0
LINE
  5
132
100
AcDbEntity
100
AcDbLine
  8
0
 62
256
370
-1
  6
BYLAYER
 10
4.5
 20
1.25
 30
0.0
 11
4.5
 21
1.25
 31
0.0
  0
LINE
  5
133
100
AcDbEntity
100
AcDbLine
  8
0
 62
256
370
-1
  6
BYLAYER
 10
4.6249999999999991
 20
1.3749999999999996
 30
0.0
 11
4.625
 21
2.5
 31
0.0
  0
LINE
  5
134
100
AcDbEntity
100
AcDbLine
  8
0
 62
256
370
-1
  6
BYLAYER
 10
5.8750000000000018
 20
1.0000000000000027
 30
0.0
 11
5.8750000000000018
 21
1.0000000000000027
 31
0.0
  0
LINE
  5
135
100
AcDbEntity
100
AcDbLine
  8
0
 62
256
370
-1
  6
BYLAYER
 10
5.9999999999999982
 20
1.1249999999999996
 30
0.0
 11
6.5
 21
1.1250000000000018
 31
0.0
  0
LINE
  5
136
100
AcDbEntity
100
AcDbLine
  8
0
 62
256
370
-1
  6
BYLAYER
 10
6.625
 20
1.0000000000000036
 30
0.0
 11
6.6249999999999982
 21
0.9999999999999991
 31
0.0
  0
LINE
  5
137
100
AcDbEntity
100
AcDbLine
  8
0
 62
256
370
-1
  6
BYLAYER
 10
6.0
 20
1.3749999999999991
 30
0.0
 11
6.0
 21
1.3749999999999991
 31
0.0
  0
LINE
  5
138
100
AcDbEntity
100
AcDbLine
  8
0
 62
256
370
-1
  6
BYLAYER
 10
5.875
 20
1.4999999999999996
 30
0.0
 11
5.875
 21
1.4999999999999996
 31
0.0
  0
LINE
  5
139
100
AcDbEntity
100
AcDbLine
  8
0
 62
256
370
-1
  6
BYLAYER
 10
6.0
 20
1.6250000000000004
 30
0.0
 11
6.0
 21
1.6250000000000009
 31
0.0
  0
LINE
  5
13A
100
AcDbEntity
100
AcDbLine
  8
0
 62
256
370
-1
  6
BYLAYER
 10
6.125
 20
1.4999999999999991
 30
0.0
 11
6.125
 21
1.4999999999999991
 31
0.0
  0
LINE
  5
13B
100
AcDbEntity
100
AcDbLine
  8
0
 62
256
370
-1
  6
BYLAYER
 10
5.6250000000000018
 20
1.0000000000000022
 30
0.0
 11
5.625
 21
1.5
 31
0.0
  0
LINE
  5
13C
100
AcDbEntity
100
AcDbLine
  8
0
 62
256
370
-1
  6
BYLAYER
 10
5.5000000000000018
 20
1.6250000000000022
 30
0.0
 11
5.5000000000000018
 21
1.6250000000000022
 31
0.0
  0
LINE
  5
13D
100
AcDbEntity
100
AcDbLine
  8
0
 62
256
370
-1
  6
BYLAYER
 10
5.3749999999999982
 20
1.4999999999999978
 30
0.0
 11
5.3750000000000018
 21
1.0000000000000009
 31
0.0
  0
LINE
  5
13E
100
AcDbEntity
100
AcDbLine
  8
0
 62
256
370
-1
  6
BYLAYER
 10
5.5
 20
0.875
 30
0.0
 11
5.5
 21
0.875
 31
0.0
  0
LINE
  5
13F
100
AcDbEntity
100
AcDbLine
  8
0
 62
256
370
-1
  6
BYLAYER
 10
5.1249999999999982
 20
1.5
 30
0.0
 11
5.125
 21
1.4999999999999996
 31
0.0
  0
ARC
  5
140
100
AcDbEntity
  8
0
 62
256
370
-1
  6
BYLAYER
100
AcDbCircle
 10
6.5
 20
2.9999999999999987
 30
0.0
 40
0.125
100
AcDbArc
 50
360.0
 51
89.9999999999999858
  0
LINE
  5
141
100
AcDbEntity
100
AcDbLine
  8
0
 62
256
370
-1
  6
BYLAYER
 10
5.0000000000000036
 20
1.6249999999999996
 30
0.0
 11
5.0000000000000018
 21
1.625
 31
0.0
  0
ARC
  5
142
100
AcDbEntity
  8
0
 62
256
370
-1
  6
BYLAYER
100
AcDbCircle
 10
6.0
 20
2.9999999999999991
 30
0.0
 40
0.125
100
AcDbArc
 50
89.9999999999999858
 51
180.0
  0
LINE
  5
143
100
AcDbEntity
100
AcDbLine
  8
0
 62
256
370
-1
  6
BYLAYER
 10
4.875
 20
1.5
 30
0.0
 11
4.875
 21
1.5000000000000004
 31
0.0
  0
ARC
  5
144
100
AcDbEntity
  8
0
 62
256
370
-1
  6
BYLAYER
100
AcDbCircle
 10
6.0
 20
2.9999999999999991
 30
0.0
 40
0.125
100
AcDbArc
 50
180.0
 51
270.0
  0
LINE
  5
145
100
AcDbEntity
100
AcDbLine
  8
0
 62
256
370
-1
  6
BYLAYER
 10
4.9999999999999982
 20
1.3750000000000004
 30
0.0
 11
4.9999999999999982
 21
1.3750000000000004
 31
0.0
  0
ARC
  5
146
100
AcDbEntity
  8
0
 62
256
370
-1
  6
BYLAYER
100
AcDbCircle
 10
6.5
 20
2.9999999999999987
 30
0.0
 40
0.125
100
AcDbArc
 50
270.0
 51
360.0
  0
LINE
  5
147
100
AcDbEntity
100
AcDbLine
  8
0
 62
256
370
-1
  6
BYLAYER
 10
5.1249999999999982
 20
0.9999999999999978
 30
0.0
 11
5.125
 21
1.0000000000000004
 31
0.0
  0
ARC
  5
148
100
AcDbEntity
  8
0
 62
256
370
-1
  6
BYLAYER
100
AcDbCircle
 10
6.5
 20
2.4999999999999991
 30
0.0
 40
0.125
100
AcDbArc
 50
360.0
 51
89.9999999999999858
  0
LINE
  5
149
100
AcDbEntity
100
AcDbLine
  8
0
 62
256
370
-1
  6
BYLAYER
 10
5.0
 20
1.1250000000000013
 30
0.0
 11
4.4999999999999991
 21
1.1250000000000004
 31
0.0
  0
ARC
  5
14A
100
AcDbEntity
  8
0
 62
256
370
-1
  6
BYLAYER
100
AcDbCircle
 10
6.5
 20
2.4999999999999991
 30
0.0
 40
0.125
100
AcDbArc
 50
89.9999999999999858
 51
180.0
  0
LINE
  5
14B
100
AcDbEntity
100
AcDbLine
  8
0
 62
256
370
-1
  6
BYLAYER
 10
4.375
 20
1.0000000000000013
 30
0.0
 11
4.3749999999999973
 21
0.9999999999999991
 31
0.0
  0
ARC
  5
14C
100
AcDbEntity
  8
0
 62
256
370
-1
  6
BYLAYER
100
AcDbCircle
 10
6.5
 20
1.3749999999999996
 30
0.0
 40
0.125
100
AcDbArc
 50
180.0
 51
270.0
  0
LINE
  5
14D
100
AcDbEntity
100
AcDbLine
  8
0
 62
256
370
-1
  6
BYLAYER
 10
4.4999999999999991
 20
0.8749999999999996
 30
0.0
 11
4.9999999999999982
 21
0.8749999999999991
 31
0.0
  0
LINE
  5
14E
100
AcDbEntity
100
AcDbLine
  8
0
 62
256
370
-1
  6
BYLAYER
 10
6.4999999999999982
 20
0.8749999999999991
 30
0.0
 11
6.0
 21
0.8750000000000004
 31
0.0
  0
ARC
  5
14F
100
AcDbEntity
  8
0
 62
256
370
-1
  6
BYLAYER
100
AcDbCircle
 10
6.5
 20
1.3749999999999996
 30
0.0
 40
0.125
100
AcDbArc
 50
270.0
 51
360.0
  0
ARC
  5
150
100
AcDbEntity
  8
0
 62
256
370
-1
  6
BYLAYER
100
AcDbCircle
 10
6.5
 20
1.0
 30
0.0
 40
0.125
100
AcDbArc
 50
360.0
 51
90.0000000000000853
  0
ARC
  5
151
100
AcDbEntity
  8
0
 62
256
370
-1
  6
BYLAYER
100
AcDbCircle
 10
5.9999999999999982
 20
0.9999999999999991
 30
0.0
 40
0.125
100
AcDbArc
 50
90.0000000000000853
 51
180.0
  0
ARC
  5
152
100
AcDbEntity
  8
0
 62
256
370
-1
  6
BYLAYER
100
AcDbCircle
 10
5.9999999999999982
 20
0.9999999999999996
 30
0.0
 40
0.125
100
AcDbArc
 50
180.0
 51
270.0
  0
ARC
  5
153
100
AcDbEntity
  8
0
 62
256
370
-1
  6
BYLAYER
100
AcDbCircle
 10
6.5
 20
1.0
 30
0.0
 40
0.125
100
AcDbArc
 50
270.0
 51
360.0
  0
ARC
  5
154
100
AcDbEntity
  8
0
 62
256
370
-1
  6
BYLAYER
100
AcDbCircle
 10
6.0
 20
1.4999999999999996
 30
0.0
 40
0.125
100
AcDbArc
 50
270.0000000000003979
 51
360.0
  0
ARC
  5
155
100
AcDbEntity
  8
0
 62
256
370
-1
  6
BYLAYER
100
AcDbCircle
 10
6.0
 20
1.4999999999999996
 30
0.0
 40
0.125
100
AcDbArc
 50
180.0
 51
270.0000000000003979
  0
ARC
  5
156
100
AcDbEntity
  8
0
 62
256
370
-1
  6
BYLAYER
100
AcDbCircle
 10
6.0
 20
1.4999999999999996
 30
0.0
 40
0.125
100
AcDbArc
 50
89.9999999999997868
 51
180.0
  0
ARC
  5
157
100
AcDbEntity
  8
0
 62
256
370
-1
  6
BYLAYER
100
AcDbCircle
 10
6.0
 20
1.4999999999999996
 30
0.0
 40
0.125
100
AcDbArc
 50
360.0
 51
89.9999999999998863
  0
ARC
  5
158
100
AcDbEntity
  8
0
 62
256
370
-1
  6
BYLAYER
100
AcDbCircle
 10
6.0
 20
2.4999999999999991
 30
0.0
 40
0.125
100
AcDbArc
 50
270.0
 51
360.0
  0
ARC
  5
159
100
AcDbEntity
  8
0
 62
256
370
-1
  6
BYLAYER
100
AcDbCircle
 10
6.0
 20
2.4999999999999991
 30
0.0
 40
0.125
100
AcDbArc
 50
180.0
 51
270.0
  0
ARC
  5
15A
100
AcDbEntity
  8
0
 62
256
370
-1
  6
BYLAYER
100
AcDbCircle
 10
6.0
 20
2.4999999999999991
 30
0.0
 40
0.125
100
AcDbArc
 50
89.9999999999999858
 51
180.0
  0
ARC
  5
15B
100
AcDbEntity
  8
0
 62
256
370
-1
  6
BYLAYER
100
AcDbCircle
 10
6.0
 20
2.4999999999999991
 30
0.0
 40
0.125
100
AcDbArc
 50
360.0
 51
89.9999999999999858
  0
ARC
  5
15C
100
AcDbEntity
  8
0
 62
256
370
-1
  6
BYLAYER
100
AcDbCircle
 10
5.5
 20
2.9999999999999991
 30
0.0
 40
0.125
100
AcDbArc
 50
360.0
 51
89.9999999999999858
  0
ARC
  5
15D
100
AcDbEntity
  8
0
 62
256
370
-1
  6
BYLAYER
100
AcDbCircle
 10
5.5
 20
2.9999999999999991
 30
0.0
 40
0.125
100
AcDbArc
 50
89.9999999999999858
 51
180.0
  0
ARC
  5
15E
100
AcDbEntity
  8
0
 62
256
370
-1
  6
BYLAYER
100
AcDbCircle
 10
5.5
 20
2.4999999999999991
 30
0.0
 40
0.125
100
AcDbArc
 50
180.0
 51
270.0
  0
ARC
  5
15F
100
AcDbEntity
  8
0
 62
256
370
-1
  6
BYLAYER
100
AcDbCircle
 10
5.5
 20
2.4999999999999991
 30
0.0
 40
0.125
100
AcDbArc
 50
270.0
 51
360.0
  0
ARC
  5
160
100
AcDbEntity
  8
0
 62
256
370
-1
  6
BYLAYER
100
AcDbCircle
 10
5.0
 20
2.5
 30
0.0
 40
0.125
100
AcDbArc
 50
270.0
 51
360.0
  0
ARC
  5
161
100
AcDbEntity
  8
0
 62
256
370
-1
  6
BYLAYER
100
AcDbCircle
 10
5.0
 20
2.5
 30
0.0
 40
0.125
100
AcDbArc
 50
180.0
 51
270.0
  0
ARC
  5
162
100
AcDbEntity
  8
0
 62
256
370
-1
  6
BYLAYER
100
AcDbCircle
 10
5.0
 20
2.5
 30
0.0
 40
0.125
100
AcDbArc
 50
89.9999999999999858
 51
180.0
  0
ARC
  5
163
100
AcDbEntity
  8
0
 62
256
370
-1
  6
BYLAYER
100
AcDbCircle
 10
5.0
 20
2.5
 30
0.0
 40
0.125
100
AcDbArc
 50
360.0
 51
89.9999999999999858
  0
ARC
  5
164
100
AcDbEntity
  8
0
 62
256
370
-1
  6
BYLAYER
100
AcDbCircle
 10
5.0
 20
2.9999999999999996
 30
0.0
 40
0.125
100
AcDbArc
 50
270.0
 51
360.0
  0
ARC
  5
165
100
AcDbEntity
  8
0
 62
256
370
-1
  6
BYLAYER
100
AcDbCircle
 10
5.0
 20
2.9999999999999996
 30
0.0
 40
0.125
100
AcDbArc
 50
360.0
 51
89.9999999999999858
  0
ARC
  5
166
100
AcDbEntity
  8
0
 62
256
370
-1
  6
BYLAYER
100
AcDbCircle
 10
4.5
 20
2.9999999999999996
 30
0.0
 40
0.125
100
AcDbArc
 50
89.9999999999999858
 51
180.0
  0
ARC
  5
167
100
AcDbEntity
  8
0
 62
256
370
-1
  6
BYLAYER
100
AcDbCircle
 10
4.5
 20
2.9999999999999996
 30
0.0
 40
0.125
100
AcDbArc
 50
180.0
 51
270.0
  0
ARC
  5
168
100
AcDbEntity
  8
0
 62
256
370
-1
  6
BYLAYER
100
AcDbCircle
 10
4.5
 20
2.5
 30
0.0
 40
0.125
100
AcDbArc
 50
360.0
 51
89.9999999999999858
  0
ARC
  5
169
100
AcDbEntity
  8
0
 62
256
370
-1
  6
BYLAYER
100
AcDbCircle
 10
4.5
 20
2.5
 30
0.0
 40
0.125
100
AcDbArc
 50
89.9999999999999858
 51
180.0
  0
ARC
  5
16A
100
AcDbEntity
  8
0
 62
256
370
-1
  6
BYLAYER
100
AcDbCircle
 10
4.5
 20
1.375
 30
0.0
 40
0.125
100
AcDbArc
 50
180.0
 51
270.0
  0
ARC
  5
16B
100
AcDbEntity
  8
0
 62
256
370
-1
  6
BYLAYER
100
AcDbCircle
 10
4.5
 20
1.375
 30
0.0
 40
0.125
100
AcDbArc
 50
270.0
 51
360.0
  0
ARC
  5
16C
100
AcDbEntity
  8
0
 62
256
370
-1
  6
BYLAYER
100
AcDbCircle
 10
5.5
 20
1.5000000000000004
 30
0.0
 40
0.125
100
AcDbArc
 50
360.0
 51
89.9999999999993747
  0
ARC
  5
16D
100
AcDbEntity
  8
0
 62
256
370
-1
  6
BYLAYER
100
AcDbCircle
 10
5.5
 20
1.5000000000000004
 30
0.0
 40
0.125
100
AcDbArc
 50
89.9999999999993747
 51
180.0
  0
ARC
  5
16E
100
AcDbEntity
  8
0
 62
256
370
-1
  6
BYLAYER
100
AcDbCircle
 10
5.5000000000000018
 20
1.0000000000000031
 30
0.0
 40
0.125
100
AcDbArc
 50
180.0
 51
270.0
  0
ARC
  5
16F
100
AcDbEntity
  8
0
 62
256
370
-1
  6
BYLAYER
100
AcDbCircle
 10
5.5000000000000018
 20
1.0000000000000031
 30
0.0
 40
0.125
100
AcDbArc
 50
270.0
 51
360.0
  0
ARC
  5
170
100
AcDbEntity
  8
0
 62
256
370
-1
  6
BYLAYER
100
AcDbCircle
 10
5.0
 20
1.0000000000000027
 30
0.0
 40
0.125
100
AcDbArc
 50
360.0
 51
89.9999999999999858
  0
ARC
  5
171
100
AcDbEntity
  8
0
 62
256
370
-1
  6
BYLAYER
100
AcDbCircle
 10
4.5
 20
1.0000000000000009
 30
0.0
 40
0.125
100
AcDbArc
 50
89.9999999999999858
 51
180.0
  0
ARC
  5
172
100
AcDbEntity
  8
0
 62
256
370
-1
  6
BYLAYER
100
AcDbCircle
 10
4.5
 20
1.0000000000000004
 30
0.0
 40
0.125
100
AcDbArc
 50
180.0
 51
270.0
  0
ARC
  5
173
100
AcDbEntity
  8
0
 62
256
370
-1
  6
BYLAYER
100
AcDbCircle
 10
5.0
 20
1.0000000000000013
 30
0.0
 40
0.125
100
AcDbArc
 50
270.0
 51
360.0
  0
ARC
  5
174
100
AcDbEntity
  8
0
 62
256
370
-1
  6
BYLAYER
100
AcDbCircle
 10
5.0
 20
1.5000000000000027
 30
0.0
 40
0.125
100
AcDbArc
 50
269.9999999999997726
 51
360.0
  0
ARC
  5
175
100
AcDbEntity
  8
0
 62
256
370
-1
  6
BYLAYER
100
AcDbCircle
 10
5.0000000000000018
 20
1.5000000000000022
 30
0.0
 40
0.125
100
AcDbArc
 50
180.0
 51
269.9999999999997726
  0
ARC
  5
176
100
AcDbEntity
  8
0
 62
256
370
-1
  6
BYLAYER
100
AcDbCircle
 10
5.0
 20
1.4999999999999991
 30
0.0
 40
0.125
100
AcDbArc
 50
89.9999999999993747
 51
180.0
  0
ARC
  5
177
100
AcDbEntity
  8
0
 62
256
370
-1
  6
BYLAYER
100
AcDbCircle
 10
5.0
 20
1.4999999999999996
 30
0.0
 40
0.125
100
AcDbArc
 50
360.0
 51
89.9999999999987637
  0
LINE
  5
178
100
AcDbEntity
100
AcDbLine
  8
0
 62
256
370
-1
  6
BYLAYER
 10
6.5
 20
3.1250000000000027
 30
0.0
 11
6.0
 21
3.1249999999999991
 31
0.0
  0
LINE
  5
179
100
AcDbEntity
100
AcDbLine
  8
0
 62
256
370
-1
  6
BYLAYER
 10
5.875
 20
2.9999999999999996
 30
0.0
 11
5.875
 21
2.9999999999999996
 31
0.0
  0
LINE
  5
17A
100
AcDbEntity
100
AcDbLine
  8
0
 62
256
370
-1
  6
BYLAYER
 10
6.0
 20
2.8750000000000018
 30
0.0
 11
6.5
 21
2.8749999999999973
 31
0.0
  0
LINE
  5
17B
100
AcDbEntity
100
AcDbLine
  8
0
 62
256
370
-1
  6
BYLAYER
 10
6.625
 20
2.9999999999999982
 30
0.0
 11
6.625
 21
2.9999999999999982
 31
0.0
  0
LINE
  5
17C
100
AcDbEntity
100
AcDbLine
  8
0
 62
256
370
-1
  6
BYLAYER
 10
6.625
 20
2.4999999999999964
 30
0.0
 11
6.625
 21
1.3750000000000027
 31
0.0
  0
LINE
  5
17D
100
AcDbEntity
100
AcDbLine
  8
0
 62
256
370
-1
  6
BYLAYER
 10
6.5
 20
1.2500000000000004
 30
0.0
 11
6.5
 21
1.2500000000000004
 31
0.0
  0
LINE
  5
17E
100
AcDbEntity
100
AcDbLine
  8
0
 62
256
370
-1
  6
BYLAYER
 10
6.3749999999999982
 20
1.3749999999999969
 30
0.0
 11
6.375
 21
2.5000000000000013
 31
0.0
  0
LINE
  5
17F
100
AcDbEntity
100
AcDbLine
  8
0
 62
256
370
-1
  6
BYLAYER
 10
6.5
 20
2.6250000000000009
 30
0.0
 11
6.5
 21
2.6250000000000009
 31
0.0
  0
LINE
  5
180
100
AcDbEntity
100
AcDbLine
  8
0
 62
256
370
-1
  6
BYLAYER
 10
6.0
 20
2.625
 30
0.0
 11
6.0
 21
2.625
 31
0.0
  0
ARC
  5
181
100
AcDbEntity
  8
0
 62
256
370
-1
  6
BYLAYER
100
AcDbCircle
 10
7.0625
 20
0.8749999999999982
 30
0.0
 40
0.125
100
AcDbArc
 50
270.0
 51
360.0
  0
LINE
  5
182
100
AcDbEntity
100
AcDbLine
  8
0
 62
256
370
-1
  6
BYLAYER
 10
7.1875
 20
3.1250000000000004
 30
0.0
 11
7.1874999999999964
 21
0.8749999999999947
 31
0.0
  0
LINE
  5
183
100
AcDbEntity
100
AcDbLine
  8
0
 62
256
370
-1
  6
BYLAYER
 10
7.0625
 20
3.2499999999999991
 30
0.0
 11
6.9375
 21
3.2500000000000018
 31
0.0
  0
LINE
  5
184
100
AcDbEntity
100
AcDbLine
  8
0
 62
256
370
-1
  6
BYLAYER
 10
6.8125
 20
3.1249999999999991
 30
0.0
 11
6.8125
 21
0.8749999999999987
 31
0.0
  0
LINE
  5
185
100
AcDbEntity
100
AcDbLine
  8
0
 62
256
370
-1
  6
BYLAYER
 10
6.9375
 20
0.7499999999999973
 30
0.0
 11
7.0625
 21
0.7499999999999987
 31
0.0
  0
ARC
  5
186
100
AcDbEntity
  8
0
 62
256
370
-1
  6
BYLAYER
100
AcDbCircle
 10
7.0625
 20
3.1249999999999973
 30
0.0
 40
0.125
100
AcDbArc
 50
360.0
 51
89.9999999999999858
  0
ARC
  5
187
100
AcDbEntity
  8
0
 62
256
370
-1
  6
BYLAYER
100
AcDbCircle
 10
6.9375
 20
3.1250000000000009
 30
0.0
 40
0.125
100
AcDbArc
 50
89.9999999999999858
 51
180.0
  0
ARC
  5
188
100
AcDbEntity
  8
0
 62
256
370
-1
  6
BYLAYER
100
AcDbCircle
 10
6.9375000000000018
 20
0.8750000000000004
 30
0.0
 40
0.125
100
AcDbArc
 50
180.0
 51
270.0
  0
ARC
  5
189
100
AcDbEntity
  8
0
 62
256
370
-1
  6
BYLAYER
100
AcDbCircle
 10
3.9375000000000013
 20
0.8749999999999973
 30
0.0
 40
0.125
100
AcDbArc
 50
180.0
 51
270.0
  0
LINE
  5
18A
100
AcDbEntity
100
AcDbLine
  8
0
 62
256
370
-1
  6
BYLAYER
 10
3.8125
 20
3.1250000000000004
 30
0.0
 11
3.8125000000000027
 21
0.8749999999999951
 31
0.0
  0
LINE
  5
18B
100
AcDbEntity
100
AcDbLine
  8
0
 62
256
370
-1
  6
BYLAYER
 10
3.9375
 20
3.2499999999999987
 30
0.0
 11
4.0625
 21
3.2500000000000022
 31
0.0
  0
LINE
  5
18C
100
AcDbEntity
100
AcDbLine
  8
0
 62
256
370
-1
  6
BYLAYER
 10
4.1875
 20
3.1249999999999996
 30
0.0
 11
4.1874999999999991
 21
0.8749999999999991
 31
0.0
  0
LINE
  5
18D
100
AcDbEntity
100
AcDbLine
  8
0
 62
256
370
-1
  6
BYLAYER
 10
4.0625
 20
0.7499999999999978
 30
0.0
 11
3.9374999999999982
 21
0.7499999999999996
 31
0.0
  0
ARC
  5
18E
100
AcDbEntity
  8
0
 62
256
370
-1
  6
BYLAYER
100
AcDbCircle
 10
3.9375
 20
3.1249999999999973
 30
0.0
 40
0.125
100
AcDbArc
 50
89.9999999999999858
 51
180.0
  0
ARC
  5
18F
100
AcDbEntity
  8
0
 62
256
370
-1
  6
BYLAYER
100
AcDbCircle
 10
4.0625
 20
3.1250000000000004
 30
0.0
 40
0.125
100
AcDbArc
 50
360.0
 51
89.9999999999999858
  0
ARC
  5
190
100
AcDbEntity
  8
0
 62
256
370
-1
  6
BYLAYER
100
AcDbCircle
 10
4.0624999999999964
 20
0.8750000000000013
 30
0.0
 40
0.125
100
AcDbArc
 50
270.0
 51
360.0
  0
LINE
  5
191
100
AcDbEntity
100
AcDbLine
  8
0
 62
256
370
-1
  6
BYLAYER
 10
1.875
 20
2.0625
 30
0.0
 11
1.875
 21
1.9375
 31
0.0
  0
LINE
  5
192
100
AcDbEntity
100
AcDbLine
  8
0
 62
256
370
-1
  6
BYLAYER
 10
3.125
 20
2.0625
 30
0.0
 11
3.125
 21
1.9375
 31
0.0
  0
LINE
  5
193
100
AcDbEntity
100
AcDbLine
  8
0
 62
256
370
-1
  6
BYLAYER
 10
7.9999999999999991
 20
2.1874999999999991
 30
0.0
 11
9.0
 21
2.1874999999999987
 31
0.0
  0
ARC
  5
194
100
AcDbEntity
  8
0
 62
256
370
-1
  6
BYLAYER
100
AcDbCircle
 10
9.0
 20
2.0625
 30
0.0
 40
0.125
100
AcDbArc
 50
360.0
 51
89.9999999999999858
  0
ARC
  5
195
100
AcDbEntity
  8
0
 62
256
370
-1
  6
BYLAYER
100
AcDbCircle
 10
8.0
 20
2.0625000000000013
 30
0.0
 40
0.125
100
AcDbArc
 50
89.9999999999999858
 51
180.0
  0
ARC
  5
196
100
AcDbEntity
  8
0
 62
256
370
-1
  6
BYLAYER
100
AcDbCircle
 10
8.0
 20
1.9374999999999996
 30
0.0
 40
0.125
100
AcDbArc
 50
180.0
 51
270.0
  0
ARC
  5
197
100
AcDbEntity
  8
0
 62
256
370
-1
  6
BYLAYER
100
AcDbCircle
 10
9.0
 20
1.9374999999999996
 30
0.0
 40
0.125
100
AcDbArc
 50
270.0
 51
360.0
  0
LINE
  5
198
100
AcDbEntity
100
AcDbLine
  8
0
 62
256
370
-1
  6
BYLAYER
 10
9.125
 20
2.0624999999999991
 30
0.0
 11
9.125
 21
1.9374999999999987
 31
0.0
  0
LINE
  5
199
100
AcDbEntity
100
AcDbLine
  8
0
 62
256
370
-1
  6
BYLAYER
 10
7.875
 20
2.0625
 30
0.0
 11
7.8749999999999982
 21
1.9374999999999982
 31
0.0
  0
LINE
  5
19A
100
AcDbEntity
100
AcDbLine
  8
0
 62
256
370
-1
  6
BYLAYER
 10
9.125
 20
2.0
 30
0.0
 11
9.125
 21
2.0
 31
0.0
  0
LINE
  5
19B
100
AcDbEntity
100
AcDbLine
  8
0
 62
256
370
-1
  6
BYLAYER
 10
9.0
 20
1.8125000000000009
 30
0.0
 11
8.0
 21
1.8125000000000004
 31
0.0
  0
LINE
  5
19C
100
AcDbEntity
100
AcDbLine
  8
0
 62
256
370
-1
  6
BYLAYER
 10
7.875
 20
2.0
 30
0.0
 11
7.875
 21
2.0
 31
0.0
  0
LINE
  5
19D
100
AcDbEntity
100
AcDbLine
  8
0
 62
256
370
-1
  6
BYLAYER
 10
6.125
 20
2.0
 30
0.0
 11
6.125
 21
2.0
 31
0.0
  0
LINE
  5
19E
100
AcDbEntity
100
AcDbLine
  8
0
 62
256
370
-1
  6
BYLAYER
 10
6.0
 20
1.8125000000000009
 30
0.0
 11
5.0
 21
1.8125000000000004
 31
0.0
  0
LINE
  5
19F
100
AcDbEntity
100
AcDbLine
  8
0
 62
256
370
-1
  6
BYLAYER
 10
4.875
 20
2.0
 30
0.0
 11
4.875
 21
2.0
 31
0.0
  0
LINE
  5
1A0
100
AcDbEntity
100
AcDbLine
  8
0
 62
256
370
-1
  6
BYLAYER
 10
4.9999999999999991
 20
2.1874999999999991
 30
0.0
 11
6.0
 21
2.1874999999999987
 31
0.0
  0
ARC
  5
1A1
100
AcDbEntity
  8
0
 62
256
370
-1
  6
BYLAYER
100
AcDbCircle
 10
6.0
 20
2.0625
 30
0.0
 40
0.125
100
AcDbArc
 50
360.0
 51
89.9999999999999858
  0
ARC
  5
1A2
100
AcDbEntity
  8
0
 62
256
370
-1
  6
BYLAYER
100
AcDbCircle
 10
5.0
 20
2.0625000000000013
 30
0.0
 40
0.125
100
AcDbArc
 50
89.9999999999999858
 51
180.0
  0
ARC
  5
1A3
100
AcDbEntity
  8
0
 62
256
370
-1
  6
BYLAYER
100
AcDbCircle
 10
5.0
 20
1.9374999999999996
 30
0.0
 40
0.125
100
AcDbArc
 50
180.0
 51
270.0
  0
ARC
  5
1A4
100
AcDbEntity
  8
0
 62
256
370
-1
  6
BYLAYER
100
AcDbCircle
 10
6.0
 20
1.9374999999999996
 30
0.0
 40
0.125
100
AcDbArc
 50
270.0
 51
360.0
  0
LINE
  5
1A5
100
AcDbEntity
100
AcDbLine
  8
0
 62
256
370
-1
  6
BYLAYER
 10
6.125
 20
2.0624999999999991
 30
0.0
 11
6.125
 21
1.9374999999999987
 31
0.0
  0
LINE
  5
1A6
100
AcDbEntity
100
AcDbLine
  8
0
 62
256
370
-1
  6
BYLAYER
 10
4.875
 20
2.0625
 30
0.0
 11
4.8749999999999982
 21
1.9374999999999982
 31
0.0
  0
LINE
  5
1A7
100
AcDbEntity
100
AcDbLine
  8
0
 62
256
370
-1
  6
BYLAYER
 10
0.0
 20
6.0
 30
0.0
 11
11.0
 21
6.0
 31
0.0
  0
LINE
  5
1A8
100
AcDbEntity
100
AcDbLine
  8
0
 62
256
370
-1
  6
BYLAYER
 10
11.0
 20
6.0
 30
0.0
 11
11.0
 21
10.0
 31
0.0
  0
LINE
  5
1A9
100
AcDbEntity
100
AcDbLine
  8
0
 62
256
370
-1
  6
BYLAYER
 10
11.0
 20
10.0
 30
0.0
 11
0.0
 21
10.0
 31
0.0
  0
LINE
  5
1AA
100
AcDbEntity
100
AcDbLine
  8
0
 62
256
370
-1
  6
BYLAYER
 10
0.0
 20
10.0
 30
0.0
 11
0.0
 21
6.0
 31
0.0
  0
LINE
  5
1AB
100
AcDbEntity
100
AcDbLine
  8
0
 62
256
370
-1
  6
BYLAYER
 10
1.0
 20
8.25
 30
0.0
 11
2.5
 21
8.25
 31
0.0
  0
LINE
  5
1AC
100
AcDbEntity
100
AcDbLine
  8
0
 62
256
370
-1
  6
BYLAYER
 10
2.625
 20
8.375
 30
0.0
 11
2.625
 21
8.375
 31
0.0
  0
LINE
  5
1AD
100
AcDbEntity
100
AcDbLine
  8
0
 62
256
370
-1
  6
BYLAYER
 10
2.5
 20
8.5
 30
0.0
 11
1.0
 21
8.5
 31
0.0
  0
LINE
  5
1AE
100
AcDbEntity
100
AcDbLine
  8
0
 62
256
370
-1
  6
BYLAYER
 10
0.875
 20
8.375
 30
0.0
 11
0.875
 21
8.375
 31
0.0
  0
LINE
  5
1AF
100
AcDbEntity
100
AcDbLine
  8
0
 62
256
370
-1
  6
BYLAYER
 10
1.9375
 20
7.875
 30
0.0
 11
3.4375
 21
7.875
 31
0.0
  0
LINE
  5
1B0
100
AcDbEntity
100
AcDbLine
  8
0
 62
256
370
-1
  6
BYLAYER
 10
3.5625
 20
8.0
 30
0.0
 11
3.5625
 21
8.0
 31
0.0
  0
LINE
  5
1B1
100
AcDbEntity
100
AcDbLine
  8
0
 62
256
370
-1
  6
BYLAYER
 10
3.4375
 20
8.125
 30
0.0
 11
1.9375
 21
8.125
 31
0.0
  0
LINE
  5
1B2
100
AcDbEntity
100
AcDbLine
  8
0
 62
256
370
-1
  6
BYLAYER
 10
1.8125
 20
8.0
 30
0.0
 11
1.8125
 21
8.0
 31
0.0
  0
LINE
  5
1B3
100
AcDbEntity
100
AcDbLine
  8
0
 62
256
370
-1
  6
BYLAYER
 10
2.875
 20
8.25
 30
0.0
 11
4.375
 21
8.25
 31
0.0
  0
LINE
  5
1B4
100
AcDbEntity
100
AcDbLine
  8
0
 62
256
370
-1
  6
BYLAYER
 10
4.5
 20
8.375
 30
0.0
 11
4.5
 21
8.375
 31
0.0
  0
LINE
  5
1B5
100
AcDbEntity
100
AcDbLine
  8
0
 62
256
370
-1
  6
BYLAYER
 10
4.375
 20
8.5
 30
0.0
 11
2.875
 21
8.5
 31
0.0
  0
LINE
  5
1B6
100
AcDbEntity
100
AcDbLine
  8
0
 62
256
370
-1
  6
BYLAYER
 10
2.75
 20
8.375
 30
0.0
 11
2.75
 21
8.375
 31
0.0
  0
LINE
  5
1B7
100
AcDbEntity
100
AcDbLine
  8
0
 62
256
370
-1
  6
BYLAYER
 10
3.8125
 20
7.875
 30
0.0
 11
5.3125
 21
7.875
 31
0.0
  0
LINE
  5
1B8
100
AcDbEntity
100
AcDbLine
  8
0
 62
256
370
-1
  6
BYLAYER
 10
5.4375
 20
8.0
 30
0.0
 11
5.4375
 21
8.0
 31
0.0
  0
LINE
  5
1B9
100
AcDbEntity
100
AcDbLine
  8
0
 62
256
370
-1
  6
BYLAYER
 10
5.3125
 20
8.125
 30
0.0
 11
3.8125
 21
8.125
 31
0.0
  0
LINE
  5
1BA
100
AcDbEntity
100
AcDbLine
  8
0
 62
256
370
-1
  6
BYLAYER
 10
3.6875
 20
8.0
 30
0.0
 11
3.6875
 21
8.0
 31
0.0
  0
LINE
  5
1BB
100
AcDbEntity
100
AcDbLine
  8
0
 62
256
370
-1
  6
BYLAYER
 10
4.75
 20
8.25
 30
0.0
 11
6.25
 21
8.25
 31
0.0
  0
LINE
  5
1BC
100
AcDbEntity
100
AcDbLine
  8
0
 62
256
370
-1
  6
BYLAYER
 10
6.375
 20
8.375
 30
0.0
 11
6.375
 21
8.375
 31
0.0
  0
LINE
  5
1BD
100
AcDbEntity
100
AcDbLine
  8
0
 62
256
370
-1
  6
BYLAYER
 10
6.25
 20
8.5
 30
0.0
 11
4.75
 21
8.5
 31
0.0
  0
LINE
  5
1BE
100
AcDbEntity
100
AcDbLine
  8
0
 62
256
370
-1
  6
BYLAYER
 10
4.625
 20
8.375
 30
0.0
 11
4.625
 21
8.375
 31
0.0
  0
LINE
  5
1BF
100
AcDbEntity
100
AcDbLine
  8
0
 62
256
370
-1
  6
BYLAYER
 10
5.6875
 20
7.875
 30
0.0
 11
7.1875
 21
7.875
 31
0.0
  0
LINE
  5
1C0
100
AcDbEntity
100
AcDbLine
  8
0
 62
256
370
-1
  6
BYLAYER
 10
7.3125
 20
8.0
 30
0.0
 11
7.3125
 21
8.0
 31
0.0
  0
LINE
  5
1C1
100
AcDbEntity
100
AcDbLine
  8
0
 62
256
370
-1
  6
BYLAYER
 10
7.1875
 20
8.125
 30
0.0
 11
5.6875
 21
8.125
 31
0.0
  0
LINE
  5
1C2
100
AcDbEntity
100
AcDbLine
  8
0
 62
256
370
-1
  6
BYLAYER
 10
5.5625
 20
8.0
 30
0.0
 11
5.5625
 21
8.0
 31
0.0
  0
LINE
  5
1C3
100
AcDbEntity
100
AcDbLine
  8
0
 62
256
370
-1
  6
BYLAYER
 10
6.625
 20
8.25
 30
0.0
 11
8.125
 21
8.25
 31
0.0
  0
LINE
  5
1C4
100
AcDbEntity
100
AcDbLine
  8
0
 62
256
370
-1
  6
BYLAYER
 10
8.25
 20
8.375
 30
0.0
 11
8.25
 21
8.375
 31
0.0
  0
LINE
  5
1C5
100
AcDbEntity
100
AcDbLine
  8
0
 62
256
370
-1
  6
BYLAYER
 10
8.125
 20
8.5
 30
0.0
 11
6.625
 21
8.5
 31
0.0
  0
LINE
  5
1C6
100
AcDbEntity
100
AcDbLine
  8
0
 62
256
370
-1
  6
BYLAYER
 10
6.5
 20
8.375
 30
0.0
 11
6.5
 21
8.375
 31
0.0
  0
LINE
  5
1C7
100
AcDbEntity
100
AcDbLine
  8
0
 62
256
370
-1
  6
BYLAYER
 10
7.5625
 20
7.875
 30
0.0
 11
9.0625
 21
7.875
 31
0.0
  0
LINE
  5
1C8
100
AcDbEntity
100
AcDbLine
  8
0
 62
256
370
-1
  6
BYLAYER
 10
9.1875
 20
8.0
 30
0.0
 11
9.1875
 21
8.0
 31
0.0
  0
LINE
  5
1C9
100
AcDbEntity
100
AcDbLine
  8
0
 62
256
370
-1
  6
BYLAYER
 10
9.0625
 20
8.125
 30
0.0
 11
7.5625
 21
8.125
 31
0.0
  0
LINE
  5
1CA
100
AcDbEntity
100
AcDbLine
  8
0
 62
256
370
-1
  6
BYLAYER
 10
7.4375
 20
8.0
 30
0.0
 11
7.4375
 21
8.0
 31
0.0
  0
LINE
  5
1CB
100
AcDbEntity
100
AcDbLine
  8
0
 62
256
370
-1
  6
BYLAYER
 10
8.5
 20
8.25
 30
0.0
 11
10.0
 21
8.25
 31
0.0
  0
LINE
  5
1CC
100
AcDbEntity
100
AcDbLine
  8
0
 62
256
370
-1
  6
BYLAYER
 10
10.125
 20
8.375
 30
0.0
 11
10.125
 21
8.375
 31
0.0
  0
LINE
  5
1CD
100
AcDbEntity
100
AcDbLine
  8
0
 62
256
370
-1
  6
BYLAYER
 10
10.0
 20
8.5
 30
0.0
 11
8.5
 21
8.5
 31
0.0
  0
LINE
  5
1CE
100
AcDbEntity
100
AcDbLine
  8
0
 62
256
370
-1
  6
BYLAYER
 10
8.375
 20
8.375
 30
0.0
 11
8.375
 21
8.375
 31
0.0
  0
ARC
  5
1CF
100
AcDbEntity
  8
0
 62
256
370
-1
  6
BYLAYER
100
AcDbCircle
 10
1.0
 20
8.375
 30
0.0
 40
0.125
100
AcDbArc
 50
90.0
 51
180.0
  0
ARC
  5
1D0
100
AcDbEntity
  8
0
 62
256
370
-1
  6
BYLAYER
100
AcDbCircle
 10
1.0
 20
8.375
 30
0.0
 40
0.125
100
AcDbArc
 50
180.0
 51
270.0
  0
ARC
  5
1D1
100
AcDbEntity
  8
0
 62
256
370
-1
  6
BYLAYER
100
AcDbCircle
 10
2.5
 20
8.375
 30
0.0
 40
0.125
100
AcDbArc
 50
270.0
 51
0.0
  0
ARC
  5
1D2
100
AcDbEntity
  8
0
 62
256
370
-1
  6
BYLAYER
100
AcDbCircle
 10
2.5
 20
8.375
 30
0.0
 40
0.125
100
AcDbArc
 50
0.0
 51
90.0
  0
ARC
  5
1D3
100
AcDbEntity
  8
0
 62
256
370
-1
  6
BYLAYER
100
AcDbCircle
 10
2.875
 20
8.375
 30
0.0
 40
0.125
100
AcDbArc
 50
90.0
 51
180.0
  0
ARC
  5
1D4
100
AcDbEntity
  8
0
 62
256
370
-1
  6
BYLAYER
100
AcDbCircle
 10
4.375
 20
8.375
 30
0.0
 40
0.125
100
AcDbArc
 50
0.0
 51
90.0
  0
ARC
  5
1D5
100
AcDbEntity
  8
0
 62
256
370
-1
  6
BYLAYER
100
AcDbCircle
 10
4.375
 20
8.375
 30
0.0
 40
0.125
100
AcDbArc
 50
270.0
 51
0.0
  0
ARC
  5
1D6
100
AcDbEntity
  8
0
 62
256
370
-1
  6
BYLAYER
100
AcDbCircle
 10
2.875
 20
8.375
 30
0.0
 40
0.125
100
AcDbArc
 50
180.0
 51
270.0
  0
ARC
  5
1D7
100
AcDbEntity
  8
0
 62
256
370
-1
  6
BYLAYER
100
AcDbCircle
 10
4.75
 20
8.375
 30
0.0
 40
0.125
100
AcDbArc
 50
180.0
 51
270.0
  0
ARC
  5
1D8
100
AcDbEntity
  8
0
 62
256
370
-1
  6
BYLAYER
100
AcDbCircle
 10
4.75
 20
8.375
 30
0.0
 40
0.125
100
AcDbArc
 50
90.0
 51
180.0
  0
ARC
  5
1D9
100
AcDbEntity
  8
0
 62
256
370
-1
  6
BYLAYER
100
AcDbCircle
 10
6.25
 20
8.375
 30
0.0
 40
0.125
100
AcDbArc
 50
0.0
 51
90.0
  0
ARC
  5
1DA
100
AcDbEntity
  8
0
 62
256
370
-1
  6
BYLAYER
100
AcDbCircle
 10
6.25
 20
8.375
 30
0.0
 40
0.125
100
AcDbArc
 50
270.0
 51
0.0
  0
ARC
  5
1DB
100
AcDbEntity
  8
0
 62
256
370
-1
  6
BYLAYER
100
AcDbCircle
 10
6.625
 20
8.375
 30
0.0
 40
0.125
100
AcDbArc
 50
180.0
 51
270.0
  0
ARC
  5
1DC
100
AcDbEntity
  8
0
 62
256
370
-1
  6
BYLAYER
100
AcDbCircle
 10
6.625
 20
8.375
 30
0.0
 40
0.125
100
AcDbArc
 50
90.0
 51
180.0
  0
ARC
  5
1DD
100
AcDbEntity
  8
0
 62
256
370
-1
  6
BYLAYER
100
AcDbCircle
 10
8.125
 20
8.375
 30
0.0
 40
0.125
100
AcDbArc
 50
0.0
 51
90.0
  0
ARC
  5
1DE
100
AcDbEntity
  8
0
 62
256
370
-1
  6
BYLAYER
100
AcDbCircle
 10
8.125
 20
8.375
 30
0.0
 40
0.125
100
AcDbArc
 50
270.0
 51
0.0
  0
ARC
  5
1DF
100
AcDbEntity
  8
0
 62
256
370
-1
  6
BYLAYER
100
AcDbCircle
 10
8.5
 20
8.375
 30
0.0
 40
0.125
100
AcDbArc
 50
180.0
 51
270.0
  0
ARC
  5
1E0
100
AcDbEntity
  8
0
 62
256
370
-1
  6
BYLAYER
100
AcDbCircle
 10
8.5
 20
8.375
 30
0.0
 40
0.125
100
AcDbArc
 50
90.0
 51
180.0
  0
ARC
  5
1E1
100
AcDbEntity
  8
0
 62
256
370
-1
  6
BYLAYER
100
AcDbCircle
 10
10.0
 20
8.375
 30
0.0
 40
0.125
100
AcDbArc
 50
0.0
 51
90.0
  0
ARC
  5
1E2
100
AcDbEntity
  8
0
 62
256
370
-1
  6
BYLAYER
100
AcDbCircle
 10
10.0
 20
8.375
 30
0.0
 40
0.125
100
AcDbArc
 50
270.0
 51
0.0
  0
ARC
  5
1E3
100
AcDbEntity
  8
0
 62
256
370
-1
  6
BYLAYER
100
AcDbCircle
 10
9.0625
 20
8.0
 30
0.0
 40
0.125
100
AcDbArc
 50
0.0
 51
90.0
  0
ARC
  5
1E4
100
AcDbEntity
  8
0
 62
256
370
-1
  6
BYLAYER
100
AcDbCircle
 10
9.0625
 20
8.0
 30
0.0
 40
0.125
100
AcDbArc
 50
270.0
 51
0.0
  0
ARC
  5
1E5
100
AcDbEntity
  8
0
 62
256
370
-1
  6
BYLAYER
100
AcDbCircle
 10
7.5625
 20
8.0
 30
0.0
 40
0.125
100
AcDbArc
 50
180.0
 51
270.0
  0
ARC
  5
1E6
100
AcDbEntity
  8
0
 62
256
370
-1
  6
BYLAYER
100
AcDbCircle
 10
7.5625
 20
8.0
 30
0.0
 40
0.125
100
AcDbArc
 50
90.0
 51
180.0
  0
ARC
  5
1E7
100
AcDbEntity
  8
0
 62
256
370
-1
  6
BYLAYER
100
AcDbCircle
 10
7.1875
 20
8.0
 30
0.0
 40
0.125
100
AcDbArc
 50
0.0
 51
90.0
  0
ARC
  5
1E8
100
AcDbEntity
  8
0
 62
256
370
-1
  6
BYLAYER
100
AcDbCircle
 10
7.1875
 20
8.0
 30
0.0
 40
0.125
100
AcDbArc
 50
270.0
 51
0.0
  0
ARC
  5
1E9
100
AcDbEntity
  8
0
 62
256
370
-1
  6
BYLAYER
100
AcDbCircle
 10
5.6875
 20
8.0
 30
0.0
 40
0.125
100
AcDbArc
 50
180.0
 51
270.0
  0
ARC
  5
1EA
100
AcDbEntity
  8
0
 62
256
370
-1
  6
BYLAYER
100
AcDbCircle
 10
5.6875
 20
8.0
 30
0.0
 40
0.125
100
AcDbArc
 50
90.0
 51
180.0
  0
ARC
  5
1EB
100
AcDbEntity
  8
0
 62
256
370
-1
  6
BYLAYER
100
AcDbCircle
 10
5.3125
 20
8.0
 30
0.0
 40
0.125
100
AcDbArc
 50
0.0
 51
90.0
  0
ARC
  5
1EC
100
AcDbEntity
  8
0
 62
256
370
-1
  6
BYLAYER
100
AcDbCircle
 10
5.3125
 20
8.0
 30
0.0
 40
0.125
100
AcDbArc
 50
270.0
 51
0.0
  0
ARC
  5
1ED
100
AcDbEntity
  8
0
 62
256
370
-1
  6
BYLAYER
100
AcDbCircle
 10
3.8125
 20
8.0
 30
0.0
 40
0.125
100
AcDbArc
 50
180.0
 51
270.0
  0
ARC
  5
1EE
100
AcDbEntity
  8
0
 62
256
370
-1
  6
BYLAYER
100
AcDbCircle
 10
3.8125
 20
8.0
 30
0.0
 40
0.125
100
AcDbArc
 50
90.0
 51
180.0
  0
ARC
  5
1EF
100
AcDbEntity
  8
0
 62
256
370
-1
  6
BYLAYER
100
AcDbCircle
 10
3.4375
 20
8.0
 30
0.0
 40
0.125
100
AcDbArc
 50
0.0
 51
90.0
  0
ARC
  5
1F0
100
AcDbEntity
  8
0
 62
256
370
-1
  6
BYLAYER
100
AcDbCircle
 10
3.4375
 20
8.0
 30
0.0
 40
0.125
100
AcDbArc
 50
270.0
 51
0.0
  0
ARC
  5
1F1
100
AcDbEntity
  8
0
 62
256
370
-1
  6
BYLAYER
100
AcDbCircle
 10
1.9375
 20
8.0
 30
0.0
 40
0.125
100
AcDbArc
 50
180.0
 51
270.0
  0
ARC
  5
1F2
100
AcDbEntity
  8
0
 62
256
370
-1
  6
BYLAYER
100
AcDbCircle
 10
1.9375
 20
8.0
 30
0.0
 40
0.125
100
AcDbArc
 50
90.0
 51
180.0
  0
LINE
  5
1F3
100
AcDbEntity
100
AcDbLine
  8
0
 62
256
370
-1
  6
BYLAYER
 10
1.0
 20
9.0
 30
0.0
 11
2.5
 21
9.0
 31
0.0
  0
LINE
  5
1F4
100
AcDbEntity
100
AcDbLine
  8
0
 62
256
370
-1
  6
BYLAYER
 10
2.625
 20
9.125
 30
0.0
 11
2.625
 21
9.125
 31
0.0
  0
LINE
  5
1F5
100
AcDbEntity
100
AcDbLine
  8
0
 62
256
370
-1
  6
BYLAYER
 10
2.5
 20
9.25
 30
0.0
 11
1.0
 21
9.25
 31
0.0
  0
LINE
  5
1F6
100
AcDbEntity
100
AcDbLine
  8
0
 62
256
370
-1
  6
BYLAYER
 10
0.875
 20
9.125
 30
0.0
 11
0.875
 21
9.125
 31
0.0
  0
LINE
  5
1F7
100
AcDbEntity
100
AcDbLine
  8
0
 62
256
370
-1
  6
BYLAYER
 10
1.9375
 20
8.625
 30
0.0
 11
3.4375
 21
8.625
 31
0.0
  0
LINE
  5
1F8
100
AcDbEntity
100
AcDbLine
  8
0
 62
256
370
-1
  6
BYLAYER
 10
3.5625
 20
8.75
 30
0.0
 11
3.5625
 21
8.75
 31
0.0
  0
LINE
  5
1F9
100
AcDbEntity
100
AcDbLine
  8
0
 62
256
370
-1
  6
BYLAYER
 10
3.4375
 20
8.875
 30
0.0
 11
1.9375
 21
8.875
 31
0.0
  0
LINE
  5
1FA
100
AcDbEntity
100
AcDbLine
  8
0
 62
256
370
-1
  6
BYLAYER
 10
1.8125
 20
8.75
 30
0.0
 11
1.8125
 21
8.75
 31
0.0
  0
LINE
  5
1FB
100
AcDbEntity
100
AcDbLine
  8
0
 62
256
370
-1
  6
BYLAYER
 10
2.875
 20
9.0
 30
0.0
 11
4.375
 21
9.0
 31
0.0
  0
LINE
  5
1FC
100
AcDbEntity
100
AcDbLine
  8
0
 62
256
370
-1
  6
BYLAYER
 10
4.5
 20
9.125
 30
0.0
 11
4.5
 21
9.125
 31
0.0
  0
LINE
  5
1FD
100
AcDbEntity
100
AcDbLine
  8
0
 62
256
370
-1
  6
BYLAYER
 10
4.375
 20
9.25
 30
0.0
 11
2.875
 21
9.25
 31
0.0
  0
LINE
  5
1FE
100
AcDbEntity
100
AcDbLine
  8
0
 62
256
370
-1
  6
BYLAYER
 10
2.75
 20
9.125
 30
0.0
 11
2.75
 21
9.125
 31
0.0
  0
LINE
  5
1FF
100
AcDbEntity
100
AcDbLine
  8
0
 62
256
370
-1
  6
BYLAYER
 10
3.8125
 20
8.625
 30
0.0
 11
5.3125
 21
8.625
 31
0.0
  0
LINE
  5
200
100
AcDbEntity
100
AcDbLine
  8
0
 62
256
370
-1
  6
BYLAYER
 10
5.4375
 20
8.75
 30
0.0
 11
5.4375
 21
8.75
 31
0.0
  0
LINE
  5
201
100
AcDbEntity
100
AcDbLine
  8
0
 62
256
370
-1
  6
BYLAYER
 10
5.3125
 20
8.875
 30
0.0
 11
3.8125
 21
8.875
 31
0.0
  0
LINE
  5
202
100
AcDbEntity
100
AcDbLine
  8
0
 62
256
370
-1
  6
BYLAYER
 10
3.6875
 20
8.75
 30
0.0
 11
3.6875
 21
8.75
 31
0.0
  0
LINE
  5
203
100
AcDbEntity
100
AcDbLine
  8
0
 62
256
370
-1
  6
BYLAYER
 10
4.75
 20
9.0
 30
0.0
 11
6.25
 21
9.0
 31
0.0
  0
LINE
  5
204
100
AcDbEntity
100
AcDbLine
  8
0
 62
256
370
-1
  6
BYLAYER
 10
6.375
 20
9.125
 30
0.0
 11
6.375
 21
9.125
 31
0.0
  0
LINE
  5
205
100
AcDbEntity
100
AcDbLine
  8
0
 62
256
370
-1
  6
BYLAYER
 10
6.25
 20
9.25
 30
0.0
 11
4.75
 21
9.25
 31
0.0
  0
LINE
  5
206
100
AcDbEntity
100
AcDbLine
  8
0
 62
256
370
-1
  6
BYLAYER
 10
4.625
 20
9.125
 30
0.0
 11
4.625
 21
9.125
 31
0.0
  0
LINE
  5
207
100
AcDbEntity
100
AcDbLine
  8
0
 62
256
370
-1
  6
BYLAYER
 10
5.6875
 20
8.625
 30
0.0
 11
7.1875
 21
8.625
 31
0.0
  0
LINE
  5
208
100
AcDbEntity
100
AcDbLine
  8
0
 62
256
370
-1
  6
BYLAYER
 10
7.3125
 20
8.75
 30
0.0
 11
7.3125
 21
8.75
 31
0.0
  0
LINE
  5
209
100
AcDbEntity
100
AcDbLine
  8
0
 62
256
370
-1
  6
BYLAYER
 10
7.1875
 20
8.875
 30
0.0
 11
5.6875
 21
8.875
 31
0.0
  0
LINE
  5
20A
100
AcDbEntity
100
AcDbLine
  8
0
 62
256
370
-1
  6
BYLAYER
 10
5.5625
 20
8.75
 30
0.0
 11
5.5625
 21
8.75
 31
0.0
  0
LINE
  5
20B
100
AcDbEntity
100
AcDbLine
  8
0
 62
256
370
-1
  6
BYLAYER
 10
6.625
 20
9.0
 30
0.0
 11
8.125
 21
9.0
 31
0.0
  0
LINE
  5
20C
100
AcDbEntity
100
AcDbLine
  8
0
 62
256
370
-1
  6
BYLAYER
 10
8.25
 20
9.125
 30
0.0
 11
8.25
 21
9.125
 31
0.0
  0
LINE
  5
20D
100
AcDbEntity
100
AcDbLine
  8
0
 62
256
370
-1
  6
BYLAYER
 10
8.125
 20
9.25
 30
0.0
 11
6.625
 21
9.25
 31
0.0
  0
LINE
  5
20E
100
AcDbEntity
100
AcDbLine
  8
0
 62
256
370
-1
  6
BYLAYER
 10
6.5
 20
9.125
 30
0.0
 11
6.5
 21
9.125
 31
0.0
  0
LINE
  5
20F
100
AcDbEntity
100
AcDbLine
  8
0
 62
256
370
-1
  6
BYLAYER
 10
7.5625
 20
8.625
 30
0.0
 11
9.0625
 21
8.625
 31
0.0
  0
LINE
  5
210
100
AcDbEntity
100
AcDbLine
  8
0
 62
256
370
-1
  6
BYLAYER
 10
9.1875
 20
8.75
 30
0.0
 11
9.1875
 21
8.75
 31
0.0
  0
LINE
  5
211
100
AcDbEntity
100
AcDbLine
  8
0
 62
256
370
-1
  6
BYLAYER
 10
9.0625
 20
8.875
 30
0.0
 11
7.5625
 21
8.875
 31
0.0
  0
LINE
  5
212
100
AcDbEntity
100
AcDbLine
  8
0
 62
256
370
-1
  6
BYLAYER
 10
7.4375
 20
8.75
 30
0.0
 11
7.4375
 21
8.75
 31
0.0
  0
LINE
  5
213
100
AcDbEntity
100
AcDbLine
  8
0
 62
256
370
-1
  6
BYLAYER
 10
8.5
 20
9.0
 30
0.0
 11
10.0
 21
9.0
 31
0.0
  0
LINE
  5
214
100
AcDbEntity
100
AcDbLine
  8
0
 62
256
370
-1
  6
BYLAYER
 10
10.125
 20
9.125
 30
0.0
 11
10.125
 21
9.125
 31
0.0
  0
LINE
  5
215
100
AcDbEntity
100
AcDbLine
  8
0
 62
256
370
-1
  6
BYLAYER
 10
10.0
 20
9.25
 30
0.0
 11
8.5
 21
9.25
 31
0.0
  0
LINE
  5
216
100
AcDbEntity
100
AcDbLine
  8
0
 62
256
370
-1
  6
BYLAYER
 10
8.375
 20
9.125
 30
0.0
 11
8.375
 21
9.125
 31
0.0
  0
ARC
  5
217
100
AcDbEntity
  8
0
 62
256
370
-1
  6
BYLAYER
100
AcDbCircle
 10
1.0
 20
9.125
 30
0.0
 40
0.125
100
AcDbArc
 50
90.0
 51
180.0
  0
ARC
  5
218
100
AcDbEntity
  8
0
 62
256
370
-1
  6
BYLAYER
100
AcDbCircle
 10
1.0
 20
9.125
 30
0.0
 40
0.125
100
AcDbArc
 50
180.0
 51
270.0
  0
ARC
  5
219
100
AcDbEntity
  8
0
 62
256
370
-1
  6
BYLAYER
100
AcDbCircle
 10
2.5
 20
9.125
 30
0.0
 40
0.125
100
AcDbArc
 50
270.0
 51
0.0
  0
ARC
  5
21A
100
AcDbEntity
  8
0
 62
256
370
-1
  6
BYLAYER
100
AcDbCircle
 10
2.5
 20
9.125
 30
0.0
 40
0.125
100
AcDbArc
 50
0.0
 51
90.0
  0
ARC
  5
21B
100
AcDbEntity
  8
0
 62
256
370
-1
  6
BYLAYER
100
AcDbCircle
 10
2.875
 20
9.125
 30
0.0
 40
0.125
100
AcDbArc
 50
90.0
 51
180.0
  0
ARC
  5
21C
100
AcDbEntity
  8
0
 62
256
370
-1
  6
BYLAYER
100
AcDbCircle
 10
4.375
 20
9.125
 30
0.0
 40
0.125
100
AcDbArc
 50
0.0
 51
90.0
  0
ARC
  5
21D
100
AcDbEntity
  8
0
 62
256
370
-1
  6
BYLAYER
100
AcDbCircle
 10
4.375
 20
9.125
 30
0.0
 40
0.125
100
AcDbArc
 50
270.0
 51
0.0
  0
ARC
  5
21E
100
AcDbEntity
  8
0
 62
256
370
-1
  6
BYLAYER
100
AcDbCircle
 10
2.875
 20
9.125
 30
0.0
 40
0.125
100
AcDbArc
 50
180.0
 51
270.0
  0
ARC
  5
21F
100
AcDbEntity
  8
0
 62
256
370
-1
  6
BYLAYER
100
AcDbCircle
 10
4.75
 20
9.125
 30
0.0
 40
0.125
100
AcDbArc
 50
180.0
 51
270.0
  0
ARC
  5
220
100
AcDbEntity
  8
0
 62
256
370
-1
  6
BYLAYER
100
AcDbCircle
 10
4.75
 20
9.125
 30
0.0
 40
0.125
100
AcDbArc
 50
90.0
 51
180.0
  0
ARC
  5
221
100
AcDbEntity
  8
0
 62
256
370
-1
  6
BYLAYER
100
AcDbCircle
 10
6.25
 20
9.125
 30
0.0
 40
0.125
100
AcDbArc
 50
0.0
 51
90.0
  0
ARC
  5
222
100
AcDbEntity
  8
0
 62
256
370
-1
  6
BYLAYER
100
AcDbCircle
 10
6.25
 20
9.125
 30
0.0
 40
0.125
100
AcDbArc
 50
270.0
 51
0.0
  0
ARC
  5
223
100
AcDbEntity
  8
0
 62
256
370
-1
  6
BYLAYER
100
AcDbCircle
 10
6.625
 20
9.125
 30
0.0
 40
0.125
100
AcDbArc
 50
180.0
 51
270.0
  0
ARC
  5
224
100
AcDbEntity
  8
0
 62
256
370
-1
  6
BYLAYER
100
AcDbCircle
 10
6.625
 20
9.125
 30
0.0
 40
0.125
100
AcDbArc
 50
90.0
 51
180.0
  0
ARC
  5
225
100
AcDbEntity
  8
0
 62
256
370
-1
  6
BYLAYER
100
AcDbCircle
 10
8.125
 20
9.125
 30
0.0
 40
0.125
100
AcDbArc
 50
0.0
 51
90.0
  0
ARC
  5
226
100
AcDbEntity
  8
0
 62
256
370
-1
  6
BYLAYER
100
AcDbCircle
 10
8.125
 20
9.125
 30
0.0
 40
0.125
100
AcDbArc
 50
270.0
 51
0.0
  0
ARC
  5
227
100
AcDbEntity
  8
0
 62
256
370
-1
  6
BYLAYER
100
AcDbCircle
 10
8.5
 20
9.125
 30
0.0
 40
0.125
100
AcDbArc
 50
180.0
 51
270.0
  0
ARC
  5
228
100
AcDbEntity
  8
0
 62
256
370
-1
  6
BYLAYER
100
AcDbCircle
 10
8.5
 20
9.125
 30
0.0
 40
0.125
100
AcDbArc
 50
90.0
 51
180.0
  0
ARC
  5
229
100
AcDbEntity
  8
0
 62
256
370
-1
  6
BYLAYER
100
AcDbCircle
 10
10.0
 20
9.125
 30
0.0
 40
0.125
100
AcDbArc
 50
0.0
 51
90.0
  0
ARC
  5
22A
100
AcDbEntity
  8
0
 62
256
370
-1
  6
BYLAYER
100
AcDbCircle
 10
10.0
 20
9.125
 30
0.0
 40
0.125
100
AcDbArc
 50
270.0
 51
0.0
  0
ARC
  5
22B
100
AcDbEntity
  8
0
 62
256
370
-1
  6
BYLAYER
100
AcDbCircle
 10
9.0625
 20
8.75
 30
0.0
 40
0.125
100
AcDbArc
 50
0.0
 51
90.0
  0
ARC
  5
22C
100
AcDbEntity
  8
0
 62
256
370
-1
  6
BYLAYER
100
AcDbCircle
 10
9.0625
 20
8.75
 30
0.0
 40
0.125
100
AcDbArc
 50
270.0
 51
0.0
  0
ARC
  5
22D
100
AcDbEntity
  8
0
 62
256
370
-1
  6
BYLAYER
100
AcDbCircle
 10
7.5625
 20
8.75
 30
0.0
 40
0.125
100
AcDbArc
 50
180.0
 51
270.0
  0
ARC
  5
22E
100
AcDbEntity
  8
0
 62
256
370
-1
  6
BYLAYER
100
AcDbCircle
 10
7.5625
 20
8.75
 30
0.0
 40
0.125
100
AcDbArc
 50
90.0
 51
180.0
  0
ARC
  5
22F
100
AcDbEntity
  8
0
 62
256
370
-1
  6
BYLAYER
100
AcDbCircle
 10
7.1875
 20
8.75
 30
0.0
 40
0.125
100
AcDbArc
 50
0.0
 51
90.0
  0
ARC
  5
230
100
AcDbEntity
  8
0
 62
256
370
-1
  6
BYLAYER
100
AcDbCircle
 10
7.1875
 20
8.75
 30
0.0
 40
0.125
100
AcDbArc
 50
270.0
 51
0.0
  0
ARC
  5
231
100
AcDbEntity
  8
0
 62
256
370
-1
  6
BYLAYER
100
AcDbCircle
 10
5.6875
 20
8.75
 30
0.0
 40
0.125
100
AcDbArc
 50
180.0
 51
270.0
  0
ARC
  5
232
100
AcDbEntity
  8
0
 62
256
370
-1
  6
BYLAYER
100
AcDbCircle
 10
5.6875
 20
8.75
 30
0.0
 40
0.125
100
AcDbArc
 50
90.0
 51
180.0
  0
ARC
  5
233
100
AcDbEntity
  8
0
 62
256
370
-1
  6
BYLAYER
100
AcDbCircle
 10
5.3125
 20
8.75
 30
0.0
 40
0.125
100
AcDbArc
 50
0.0
 51
90.0
  0
ARC
  5
234
100
AcDbEntity
  8
0
 62
256
370
-1
  6
BYLAYER
100
AcDbCircle
 10
5.3125
 20
8.75
 30
0.0
 40
0.125
100
AcDbArc
 50
270.0
 51
0.0
  0
ARC
  5
235
100
AcDbEntity
  8
0
 62
256
370
-1
  6
BYLAYER
100
AcDbCircle
 10
3.8125
 20
8.75
 30
0.0
 40
0.125
100
AcDbArc
 50
180.0
 51
270.0
  0
ARC
  5
236
100
AcDbEntity
  8
0
 62
256
370
-1
  6
BYLAYER
100
AcDbCircle
 10
3.8125
 20
8.75
 30
0.0
 40
0.125
100
AcDbArc
 50
90.0
 51
180.0
  0
ARC
  5
237
100
AcDbEntity
  8
0
 62
256
370
-1
  6
BYLAYER
100
AcDbCircle
 10
3.4375
 20
8.75
 30
0.0
 40
0.125
100
AcDbArc
 50
0.0
 51
90.0
  0
ARC
  5
238
100
AcDbEntity
  8
0
 62
256
370
-1
  6
BYLAYER
100
AcDbCircle
 10
3.4375
 20
8.75
 30
0.0
 40
0.125
100
AcDbArc
 50
270.0
 51
0.0
  0
ARC
  5
239
100
AcDbEntity
  8
0
 62
256
370
-1
  6
BYLAYER
100
AcDbCircle
 10
1.9375
 20
8.75
 30
0.0
 40
0.125
100
AcDbArc
 50
180.0
 51
270.0
  0
ARC
  5
23A
100
AcDbEntity
  8
0
 62
256
370
-1
  6
BYLAYER
100
AcDbCircle
 10
1.9375
 20
8.75
 30
0.0
 40
0.125
100
AcDbArc
 50
90.0
 51
180.0
  0
LINE
  5
23B
100
AcDbEntity
100
AcDbLine
  8
0
 62
256
370
-1
  6
BYLAYER
 10
1.0
 20
7.5
 30
0.0
 11
2.5
 21
7.5
 31
0.0
  0
LINE
  5
23C
100
AcDbEntity
100
AcDbLine
  8
0
 62
256
370
-1
  6
BYLAYER
 10
2.625
 20
7.625
 30
0.0
 11
2.625
 21
7.625
 31
0.0
  0
LINE
  5
23D
100
AcDbEntity
100
AcDbLine
  8
0
 62
256
370
-1
  6
BYLAYER
 10
2.5
 20
7.75
 30
0.0
 11
1.0
 21
7.75
 31
0.0
  0
LINE
  5
23E
100
AcDbEntity
100
AcDbLine
  8
0
 62
256
370
-1
  6
BYLAYER
 10
0.875
 20
7.625
 30
0.0
 11
0.875
 21
7.625
 31
0.0
  0
LINE
  5
23F
100
AcDbEntity
100
AcDbLine
  8
0
 62
256
370
-1
  6
BYLAYER
 10
1.9375
 20
7.125
 30
0.0
 11
3.4375
 21
7.125
 31
0.0
  0
LINE
  5
240
100
AcDbEntity
100
AcDbLine
  8
0
 62
256
370
-1
  6
BYLAYER
 10
3.5625
 20
7.25
 30
0.0
 11
3.5625
 21
7.25
 31
0.0
  0
LINE
  5
241
100
AcDbEntity
100
AcDbLine
  8
0
 62
256
370
-1
  6
BYLAYER
 10
3.4375
 20
7.375
 30
0.0
 11
1.9375
 21
7.375
 31
0.0
  0
LINE
  5
242
100
AcDbEntity
100
AcDbLine
  8
0
 62
256
370
-1
  6
BYLAYER
 10
1.8125
 20
7.25
 30
0.0
 11
1.8125
 21
7.25
 31
0.0
  0
LINE
  5
243
100
AcDbEntity
100
AcDbLine
  8
0
 62
256
370
-1
  6
BYLAYER
 10
2.875
 20
7.5
 30
0.0
 11
4.375
 21
7.5
 31
0.0
  0
LINE
  5
244
100
AcDbEntity
100
AcDbLine
  8
0
 62
256
370
-1
  6
BYLAYER
 10
4.5
 20
7.625
 30
0.0
 11
4.5
 21
7.625
 31
0.0
  0
LINE
  5
245
100
AcDbEntity
100
AcDbLine
  8
0
 62
256
370
-1
  6
BYLAYER
 10
4.375
 20
7.75
 30
0.0
 11
2.875
 21
7.75
 31
0.0
  0
LINE
  5
246
100
AcDbEntity
100
AcDbLine
  8
0
 62
256
370
-1
  6
BYLAYER
 10
2.75
 20
7.625
 30
0.0
 11
2.75
 21
7.625
 31
0.0
  0
LINE
  5
247
100
AcDbEntity
100
AcDbLine
  8
0
 62
256
370
-1
  6
BYLAYER
 10
3.8125
 20
7.125
 30
0.0
 11
5.3125
 21
7.125
 31
0.0
  0
LINE
  5
248
100
AcDbEntity
100
AcDbLine
  8
0
 62
256
370
-1
  6
BYLAYER
 10
5.4375
 20
7.25
 30
0.0
 11
5.4375
 21
7.25
 31
0.0
  0
LINE
  5
249
100
AcDbEntity
100
AcDbLine
  8
0
 62
256
370
-1
  6
BYLAYER
 10
5.3125
 20
7.375
 30
0.0
 11
3.8125
 21
7.375
 31
0.0
  0
LINE
  5
24A
100
AcDbEntity
100
AcDbLine
  8
0
 62
256
370
-1
  6
BYLAYER
 10
3.6875
 20
7.25
 30
0.0
 11
3.6875
 21
7.25
 31
0.0
  0
LINE
  5
24B
100
AcDbEntity
100
AcDbLine
  8
0
 62
256
370
-1
  6
BYLAYER
 10
4.75
 20
7.5
 30
0.0
 11
6.25
 21
7.5
 31
0.0
  0
LINE
  5
24C
100
AcDbEntity
100
AcDbLine
  8
0
 62
256
370
-1
  6
BYLAYER
 10
6.375
 20
7.625
 30
0.0
 11
6.375
 21
7.625
 31
0.0
  0
LINE
  5
24D
100
AcDbEntity
100
AcDbLine
  8
0
 62
256
370
-1
  6
BYLAYER
 10
6.25
 20
7.75
 30
0.0
 11
4.75
 21
7.75
 31
0.0
  0
LINE
  5
24E
100
AcDbEntity
100
AcDbLine
  8
0
 62
256
370
-1
  6
BYLAYER
 10
4.625
 20
7.625
 30
0.0
 11
4.625
 21
7.625
 31
0.0
  0
LINE
  5
24F
100
AcDbEntity
100
AcDbLine
  8
0
 62
256
370
-1
  6
BYLAYER
 10
5.6875
 20
7.125
 30
0.0
 11
7.1875
 21
7.125
 31
0.0
  0
LINE
  5
250
100
AcDbEntity
100
AcDbLine
  8
0
 62
256
370
-1
  6
BYLAYER
 10
7.3125
 20
7.25
 30
0.0
 11
7.3125
 21
7.25
 31
0.0
  0
LINE
  5
251
100
AcDbEntity
100
AcDbLine
  8
0
 62
256
370
-1
  6
BYLAYER
 10
7.1875
 20
7.375
 30
0.0
 11
5.6875
 21
7.375
 31
0.0
  0
LINE
  5
252
100
AcDbEntity
100
AcDbLine
  8
0
 62
256
370
-1
  6
BYLAYER
 10
5.5625
 20
7.25
 30
0.0
 11
5.5625
 21
7.25
 31
0.0
  0
LINE
  5
253
100
AcDbEntity
100
AcDbLine
  8
0
 62
256
370
-1
  6
BYLAYER
 10
6.625
 20
7.5
 30
0.0
 11
8.125
 21
7.5
 31
0.0
  0
LINE
  5
254
100
AcDbEntity
100
AcDbLine
  8
0
 62
256
370
-1
  6
BYLAYER
 10
8.25
 20
7.625
 30
0.0
 11
8.25
 21
7.625
 31
0.0
  0
LINE
  5
255
100
AcDbEntity
100
AcDbLine
  8
0
 62
256
370
-1
  6
BYLAYER
 10
8.125
 20
7.75
 30
0.0
 11
6.625
 21
7.75
 31
0.0
  0
LINE
  5
256
100
AcDbEntity
100
AcDbLine
  8
0
 62
256
370
-1
  6
BYLAYER
 10
6.5
 20
7.625
 30
0.0
 11
6.5
 21
7.625
 31
0.0
  0
LINE
  5
257
100
AcDbEntity
100
AcDbLine
  8
0
 62
256
370
-1
  6
BYLAYER
 10
7.5625
 20
7.125
 30
0.0
 11
9.0625
 21
7.125
 31
0.0
  0
LINE
  5
258
100
AcDbEntity
100
AcDbLine
  8
0
 62
256
370
-1
  6
BYLAYER
 10
9.1875
 20
7.25
 30
0.0
 11
9.1875
 21
7.25
 31
0.0
  0
LINE
  5
259
100
AcDbEntity
100
AcDbLine
  8
0
 62
256
370
-1
  6
BYLAYER
 10
9.0625
 20
7.375
 30
0.0
 11
7.5625
 21
7.375
 31
0.0
  0
LINE
  5
25A
100
AcDbEntity
100
AcDbLine
  8
0
 62
256
370
-1
  6
BYLAYER
 10
7.4375
 20
7.25
 30
0.0
 11
7.4375
 21
7.25
 31
0.0
  0
LINE
  5
25B
100
AcDbEntity
100
AcDbLine
  8
0
 62
256
370
-1
  6
BYLAYER
 10
8.5
 20
7.5
 30
0.0
 11
10.0
 21
7.5
 31
0.0
  0
LINE
  5
25C
100
AcDbEntity
100
AcDbLine
  8
0
 62
256
370
-1
  6
BYLAYER
 10
10.125
 20
7.625
 30
0.0
 11
10.125
 21
7.625
 31
0.0
  0
LINE
  5
25D
100
AcDbEntity
100
AcDbLine
  8
0
 62
256
370
-1
  6
BYLAYER
 10
10.0
 20
7.75
 30
0.0
 11
8.5
 21
7.75
 31
0.0
  0
LINE
  5
25E
100
AcDbEntity
100
AcDbLine
  8
0
 62
256
370
-1
  6
BYLAYER
 10
8.375
 20
7.625
 30
0.0
 11
8.375
 21
7.625
 31
0.0
  0
ARC
  5
25F
100
AcDbEntity
  8
0
 62
256
370
-1
  6
BYLAYER
100
AcDbCircle
 10
1.0
 20
7.625
 30
0.0
 40
0.125
100
AcDbArc
 50
90.0
 51
180.0
  0
ARC
  5
260
100
AcDbEntity
  8
0
 62
256
370
-1
  6
BYLAYER
100
AcDbCircle
 10
1.0
 20
7.625
 30
0.0
 40
0.125
100
AcDbArc
 50
180.0
 51
270.0
  0
ARC
  5
261
100
AcDbEntity
  8
0
 62
256
370
-1
  6
BYLAYER
100
AcDbCircle
 10
2.5
 20
7.625
 30
0.0
 40
0.125
100
AcDbArc
 50
270.0
 51
0.0
  0
ARC
  5
262
100
AcDbEntity
  8
0
 62
256
370
-1
  6
BYLAYER
100
AcDbCircle
 10
2.5
 20
7.625
 30
0.0
 40
0.125
100
AcDbArc
 50
0.0
 51
90.0
  0
ARC
  5
263
100
AcDbEntity
  8
0
 62
256
370
-1
  6
BYLAYER
100
AcDbCircle
 10
2.875
 20
7.625
 30
0.0
 40
0.125
100
AcDbArc
 50
90.0
 51
180.0
  0
ARC
  5
264
100
AcDbEntity
  8
0
 62
256
370
-1
  6
BYLAYER
100
AcDbCircle
 10
4.375
 20
7.625
 30
0.0
 40
0.125
100
AcDbArc
 50
0.0
 51
90.0
  0
ARC
  5
265
100
AcDbEntity
  8
0
 62
256
370
-1
  6
BYLAYER
100
AcDbCircle
 10
4.375
 20
7.625
 30
0.0
 40
0.125
100
AcDbArc
 50
270.0
 51
0.0
  0
ARC
  5
266
100
AcDbEntity
  8
0
 62
256
370
-1
  6
BYLAYER
100
AcDbCircle
 10
2.875
 20
7.625
 30
0.0
 40
0.125
100
AcDbArc
 50
180.0
 51
270.0
  0
ARC
  5
267
100
AcDbEntity
  8
0
 62
256
370
-1
  6
BYLAYER
100
AcDbCircle
 10
4.75
 20
7.625
 30
0.0
 40
0.125
100
AcDbArc
 50
180.0
 51
270.0
  0
ARC
  5
268
100
AcDbEntity
  8
0
 62
256
370
-1
  6
BYLAYER
100
AcDbCircle
 10
4.75
 20
7.625
 30
0.0
 40
0.125
100
AcDbArc
 50
90.0
 51
180.0
  0
ARC
  5
269
100
AcDbEntity
  8
0
 62
256
370
-1
  6
BYLAYER
100
AcDbCircle
 10
6.25
 20
7.625
 30
0.0
 40
0.125
100
AcDbArc
 50
0.0
 51
90.0
  0
ARC
  5
26A
100
AcDbEntity
  8
0
 62
256
370
-1
  6
BYLAYER
100
AcDbCircle
 10
6.25
 20
7.625
 30
0.0
 40
0.125
100
AcDbArc
 50
270.0
 51
0.0
  0
ARC
  5
26B
100
AcDbEntity
  8
0
 62
256
370
-1
  6
BYLAYER
100
AcDbCircle
 10
6.625
 20
7.625
 30
0.0
 40
0.125
100
AcDbArc
 50
180.0
 51
270.0
  0
ARC
  5
26C
100
AcDbEntity
  8
0
 62
256
370
-1
  6
BYLAYER
100
AcDbCircle
 10
6.625
 20
7.625
 30
0.0
 40
0.125
100
AcDbArc
 50
90.0
 51
180.0
  0
ARC
  5
26D
100
AcDbEntity
  8
0
 62
256
370
-1
  6
BYLAYER
100
AcDbCircle
 10
8.125
 20
7.625
 30
0.0
 40
0.125
100
AcDbArc
 50
0.0
 51
90.0
  0
ARC
  5
26E
100
AcDbEntity
  8
0
 62
256
370
-1
  6
BYLAYER
100
AcDbCircle
 10
8.125
 20
7.625
 30
0.0
 40
0.125
100
AcDbArc
 50
270.0
 51
0.0
  0
ARC
  5
26F
100
AcDbEntity
  8
0
 62
256
370
-1
  6
BYLAYER
100
AcDbCircle
 10
8.5
 20
7.625
 30
0.0
 40
0.125
100
AcDbArc
 50
180.0
 51
270.0
  0
ARC
  5
270
100
AcDbEntity
  8
0
 62
256
370
-1
  6
BYLAYER
100
AcDbCircle
 10
8.5
 20
7.625
 30
0.0
 40
0.125
100
AcDbArc
 50
90.0
 51
180.0
  0
ARC
  5
271
100
AcDbEntity
  8
0
 62
256
370
-1
  6
BYLAYER
100
AcDbCircle
 10
10.0
 20
7.625
 30
0.0
 40
0.125
100
AcDbArc
 50
0.0
 51
90.0
  0
ARC
  5
272
100
AcDbEntity
  8
0
 62
256
370
-1
  6
BYLAYER
100
AcDbCircle
 10
10.0
 20
7.625
 30
0.0
 40
0.125
100
AcDbArc
 50
270.0
 51
0.0
  0
ARC
  5
273
100
AcDbEntity
  8
0
 62
256
370
-1
  6
BYLAYER
100
AcDbCircle
 10
9.0625
 20
7.25
 30
0.0
 40
0.125
100
AcDbArc
 50
0.0
 51
90.0
  0
ARC
  5
274
100
AcDbEntity
  8
0
 62
256
370
-1
  6
BYLAYER
100
AcDbCircle
 10
9.0625
 20
7.25
 30
0.0
 40
0.125
100
AcDbArc
 50
270.0
 51
0.0
  0
ARC
  5
275
100
AcDbEntity
  8
0
 62
256
370
-1
  6
BYLAYER
100
AcDbCircle
 10
7.5625
 20
7.25
 30
0.0
 40
0.125
100
AcDbArc
 50
180.0
 51
270.0
  0
ARC
  5
276
100
AcDbEntity
  8
0
 62
256
370
-1
  6
BYLAYER
100
AcDbCircle
 10
7.5625
 20
7.25
 30
0.0
 40
0.125
100
AcDbArc
 50
90.0
 51
180.0
  0
ARC
  5
277
100
AcDbEntity
  8
0
 62
256
370
-1
  6
BYLAYER
100
AcDbCircle
 10
7.1875
 20
7.25
 30
0.0
 40
0.125
100
AcDbArc
 50
0.0
 51
90.0
  0
ARC
  5
278
100
AcDbEntity
  8
0
 62
256
370
-1
  6
BYLAYER
100
AcDbCircle
 10
7.1875
 20
7.25
 30
0.0
 40
0.125
100
AcDbArc
 50
270.0
 51
0.0
  0
ARC
  5
279
100
AcDbEntity
  8
0
 62
256
370
-1
  6
BYLAYER
100
AcDbCircle
 10
5.6875
 20
7.25
 30
0.0
 40
0.125
100
AcDbArc
 50
180.0
 51
270.0
  0
ARC
  5
27A
100
AcDbEntity
  8
0
 62
256
370
-1
  6
BYLAYER
100
AcDbCircle
 10
5.6875
 20
7.25
 30
0.0
 40
0.125
100
AcDbArc
 50
90.0
 51
180.0
  0
ARC
  5
27B
100
AcDbEntity
  8
0
 62
256
370
-1
  6
BYLAYER
100
AcDbCircle
 10
5.3125
 20
7.25
 30
0.0
 40
0.125
100
AcDbArc
 50
0.0
 51
90.0
  0
ARC
  5
27C
100
AcDbEntity
  8
0
 62
256
370
-1
  6
BYLAYER
100
AcDbCircle
 10
5.3125
 20
7.25
 30
0.0
 40
0.125
100
AcDbArc
 50
270.0
 51
0.0
  0
ARC
  5
27D
100
AcDbEntity
  8
0
 62
256
370
-1
  6
BYLAYER
100
AcDbCircle
 10
3.8125
 20
7.25
 30
0.0
 40
0.125
100
AcDbArc
 50
180.0
 51
270.0
  0
ARC
  5
27E
100
AcDbEntity
  8
0
 62
256
370
-1
  6
BYLAYER
100
AcDbCircle
 10
3.8125
 20
7.25
 30
0.0
 40
0.125
100
AcDbArc
 50
90.0
 51
180.0
  0
ARC
  5
27F
100
AcDbEntity
  8
0
 62
256
370
-1
  6
BYLAYER
100
AcDbCircle
 10
3.4375
 20
7.25
 30
0.0
 40
0.125
100
AcDbArc
 50
0.0
 51
90.0
  0
ARC
  5
280
100
AcDbEntity
  8
0
 62
256
370
-1
  6
BYLAYER
100
AcDbCircle
 10
3.4375
 20
7.25
 30
0.0
 40
0.125
100
AcDbArc
 50
270.0
 51
0.0
  0
ARC
  5
281
100
AcDbEntity
  8
0
 62
256
370
-1
  6
BYLAYER
100
AcDbCircle
 10
1.9375
 20
7.25
 30
0.0
 40
0.125
100
AcDbArc
 50
180.0
 51
270.0
  0
ARC
  5
282
100
AcDbEntity
  8
0
 62
256
370
-1
  6
BYLAYER
100
AcDbCircle
 10
1.9375
 20
7.25
 30
0.0
 40
0.125
100
AcDbArc
 50
90.0
 51
180.0
  0
LINE
  5
283
100
AcDbEntity
100
AcDbLine
  8
0
 62
256
370
-1
  6
BYLAYER
 10
1.0
 20
6.75
 30
0.0
 11
2.5
 21
6.75
 31
0.0
  0
LINE
  5
284
100
AcDbEntity
100
AcDbLine
  8
0
 62
256
370
-1
  6
BYLAYER
 10
2.625
 20
6.875
 30
0.0
 11
2.625
 21
6.875
 31
0.0
  0
LINE
  5
285
100
AcDbEntity
100
AcDbLine
  8
0
 62
256
370
-1
  6
BYLAYER
 10
2.5
 20
7.0
 30
0.0
 11
1.0
 21
7.0
 31
0.0
  0
LINE
  5
286
100
AcDbEntity
100
AcDbLine
  8
0
 62
256
370
-1
  6
BYLAYER
 10
0.875
 20
6.875
 30
0.0
 11
0.875
 21
6.875
 31
0.0
  0
LINE
  5
287
100
AcDbEntity
100
AcDbLine
  8
0
 62
256
370
-1
  6
BYLAYER
 10
2.875
 20
6.75
 30
0.0
 11
4.375
 21
6.75
 31
0.0
  0
LINE
  5
288
100
AcDbEntity
100
AcDbLine
  8
0
 62
256
370
-1
  6
BYLAYER
 10
4.5
 20
6.875
 30
0.0
 11
4.5
 21
6.875
 31
0.0
  0
LINE
  5
289
100
AcDbEntity
100
AcDbLine
  8
0
 62
256
370
-1
  6
BYLAYER
 10
4.375
 20
7.0
 30
0.0
 11
2.875
 21
7.0
 31
0.0
  0
LINE
  5
28A
100
AcDbEntity
100
AcDbLine
  8
0
 62
256
370
-1
  6
BYLAYER
 10
2.75
 20
6.875
 30
0.0
 11
2.75
 21
6.875
 31
0.0
  0
LINE
  5
28B
100
AcDbEntity
100
AcDbLine
  8
0
 62
256
370
-1
  6
BYLAYER
 10
4.75
 20
6.75
 30
0.0
 11
6.25
 21
6.75
 31
0.0
  0
LINE
  5
28C
100
AcDbEntity
100
AcDbLine
  8
0
 62
256
370
-1
  6
BYLAYER
 10
6.375
 20
6.875
 30
0.0
 11
6.375
 21
6.875
 31
0.0
  0
LINE
  5
28D
100
AcDbEntity
100
AcDbLine
  8
0
 62
256
370
-1
  6
BYLAYER
 10
6.25
 20
7.0
 30
0.0
 11
4.75
 21
7.0
 31
0.0
  0
LINE
  5
28E
100
AcDbEntity
100
AcDbLine
  8
0
 62
256
370
-1
  6
BYLAYER
 10
4.625
 20
6.875
 30
0.0
 11
4.625
 21
6.875
 31
0.0
  0
LINE
  5
28F
100
AcDbEntity
100
AcDbLine
  8
0
 62
256
370
-1
  6
BYLAYER
 10
6.625
 20
6.75
 30
0.0
 11
8.125
 21
6.75
 31
0.0
  0
LINE
  5
290
100
AcDbEntity
100
AcDbLine
  8
0
 62
256
370
-1
  6
BYLAYER
 10
8.25
 20
6.875
 30
0.0
 11
8.25
 21
6.875
 31
0.0
  0
LINE
  5
291
100
AcDbEntity
100
AcDbLine
  8
0
 62
256
370
-1
  6
BYLAYER
 10
8.125
 20
7.0
 30
0.0
 11
6.625
 21
7.0
 31
0.0
  0
LINE
  5
292
100
AcDbEntity
100
AcDbLine
  8
0
 62
256
370
-1
  6
BYLAYER
 10
6.5
 20
6.875
 30
0.0
 11
6.5
 21
6.875
 31
0.0
  0
LINE
  5
293
100
AcDbEntity
100
AcDbLine
  8
0
 62
256
370
-1
  6
BYLAYER
 10
8.5
 20
6.75
 30
0.0
 11
10.0
 21
6.75
 31
0.0
  0
LINE
  5
294
100
AcDbEntity
100
AcDbLine
  8
0
 62
256
370
-1
  6
BYLAYER
 10
10.125
 20
6.875
 30
0.0
 11
10.125
 21
6.875
 31
0.0
  0
LINE
  5
295
100
AcDbEntity
100
AcDbLine
  8
0
 62
256
370
-1
  6
BYLAYER
 10
10.0
 20
7.0
 30
0.0
 11
8.5
 21
7.0
 31
0.0
  0
LINE
  5
296
100
AcDbEntity
100
AcDbLine
  8
0
 62
256
370
-1
  6
BYLAYER
 10
8.375
 20
6.875
 30
0.0
 11
8.375
 21
6.875
 31
0.0
  0
ARC
  5
297
100
AcDbEntity
  8
0
 62
256
370
-1
  6
BYLAYER
100
AcDbCircle
 10
1.0
 20
6.875
 30
0.0
 40
0.125
100
AcDbArc
 50
90.0
 51
180.0
  0
ARC
  5
298
100
AcDbEntity
  8
0
 62
256
370
-1
  6
BYLAYER
100
AcDbCircle
 10
1.0
 20
6.875
 30
0.0
 40
0.125
100
AcDbArc
 50
180.0
 51
270.0
  0
ARC
  5
299
100
AcDbEntity
  8
0
 62
256
370
-1
  6
BYLAYER
100
AcDbCircle
 10
2.5
 20
6.875
 30
0.0
 40
0.125
100
AcDbArc
 50
270.0
 51
0.0
  0
ARC
  5
29A
100
AcDbEntity
  8
0
 62
256
370
-1
  6
BYLAYER
100
AcDbCircle
 10
2.5
 20
6.875
 30
0.0
 40
0.125
100
AcDbArc
 50
0.0
 51
90.0
  0
ARC
  5
29B
100
AcDbEntity
  8
0
 62
256
370
-1
  6
BYLAYER
100
AcDbCircle
 10
2.875
 20
6.875
 30
0.0
 40
0.125
100
AcDbArc
 50
90.0
 51
180.0
  0
ARC
  5
29C
100
AcDbEntity
  8
0
 62
256
370
-1
  6
BYLAYER
100
AcDbCircle
 10
4.375
 20
6.875
 30
0.0
 40
0.125
100
AcDbArc
 50
0.0
 51
90.0
  0
ARC
  5
29D
100
AcDbEntity
  8
0
 62
256
370
-1
  6
BYLAYER
100
AcDbCircle
 10
4.375
 20
6.875
 30
0.0
 40
0.125
100
AcDbArc
 50
270.0
 51
0.0
  0
ARC
  5
29E
100
AcDbEntity
  8
0
 62
256
370
-1
  6
BYLAYER
100
AcDbCircle
 10
2.875
 20
6.875
 30
0.0
 40
0.125
100
AcDbArc
 50
180.0
 51
270.0
  0
ARC
  5
29F
100
AcDbEntity
  8
0
 62
256
370
-1
  6
BYLAYER
100
AcDbCircle
 10
4.75
 20
6.875
 30
0.0
 40
0.125
100
AcDbArc
 50
180.0
 51
270.0
  0
ARC
  5
2A0
100
AcDbEntity
  8
0
 62
256
370
-1
  6
BYLAYER
100
AcDbCircle
 10
4.75
 20
6.875
 30
0.0
 40
0.125
100
AcDbArc
 50
90.0
 51
180.0
  0
ARC
  5
2A1
100
AcDbEntity
  8
0
 62
256
370
-1
  6
BYLAYER
100
AcDbCircle
 10
6.25
 20
6.875
 30
0.0
 40
0.125
100
AcDbArc
 50
0.0
 51
90.0
  0
ARC
  5
2A2
100
AcDbEntity
  8
0
 62
256
370
-1
  6
BYLAYER
100
AcDbCircle
 10
6.25
 20
6.875
 30
0.0
 40
0.125
100
AcDbArc
 50
270.0
 51
0.0
  0
ARC
  5
2A3
100
AcDbEntity
  8
0
 62
256
370
-1
  6
BYLAYER
100
AcDbCircle
 10
6.625
 20
6.875
 30
0.0
 40
0.125
100
AcDbArc
 50
180.0
 51
270.0
  0
ARC
  5
2A4
100
AcDbEntity
  8
0
 62
256
370
-1
  6
BYLAYER
100
AcDbCircle
 10
6.625
 20
6.875
 30
0.0
 40
0.125
100
AcDbArc
 50
90.0
 51
180.0
  0
ARC
  5
2A5
100
AcDbEntity
  8
0
 62
256
370
-1
  6
BYLAYER
100
AcDbCircle
 10
8.125
 20
6.875
 30
0.0
 40
0.125
100
AcDbArc
 50
0.0
 51
90.0
  0
ARC
  5
2A6
100
AcDbEntity
  8
0
 62
256
370
-1
  6
BYLAYER
100
AcDbCircle
 10
8.125
 20
6.875
 30
0.0
 40
0.125
100
AcDbArc
 50
270.0
 51
0.0
  0
ARC
  5
2A7
100
AcDbEntity
  8
0
 62
256
370
-1
  6
BYLAYER
100
AcDbCircle
 10
8.5
 20
6.875
 30
0.0
 40
0.125
100
AcDbArc
 50
180.0
 51
270.0
  0
ARC
  5
2A8
100
AcDbEntity
  8
0
 62
256
370
-1
  6
BYLAYER
100
AcDbCircle
 10
8.5
 20
6.875
 30
0.0
 40
0.125
100
AcDbArc
 50
90.0
 51
180.0
  0
ARC
  5
2A9
100
AcDbEntity
  8
0
 62
256
370
-1
  6
BYLAYER
100
AcDbCircle
 10
10.0
 20
6.875
 30
0.0
 40
0.125
100
AcDbArc
 50
0.0
 51
90.0
  0
ARC
  5
2AA
100
AcDbEntity
  8
0
 62
256
370
-1
  6
BYLAYER
100
AcDbCircle
 10
10.0
 20
6.875
 30
0.0
 40
0.125
100
AcDbArc
 50
270.0
 51
0.0
  0
ARC
  5
2AB
100
AcDbEntity
  8
0
 62
256
370
-1
  6
BYLAYER
100
AcDbCircle
 10
9.4375
 20
7.25
 30
0.0
 40
0.125
100
AcDbArc
 50
180.0
 51
270.0
  0
ARC
  5
2AC
100
AcDbEntity
  8
0
 62
256
370
-1
  6
BYLAYER
100
AcDbCircle
 10
9.4375
 20
7.25
 30
0.0
 40
0.125
100
AcDbArc
 50
90.0
 51
180.0
  0
LINE
  5
2AD
100
AcDbEntity
100
AcDbLine
  8
0
 62
256
370
-1
  6
BYLAYER
 10
9.4375
 20
7.125
 30
0.0
 11
10.0
 21
7.125
 31
0.0
  0
LINE
  5
2AE
100
AcDbEntity
100
AcDbLine
  8
0
 62
256
370
-1
  6
BYLAYER
 10
10.0
 20
7.375
 30
0.0
 11
9.4375
 21
7.375
 31
0.0
  0
LINE
  5
2AF
100
AcDbEntity
100
AcDbLine
  8
0
 62
256
370
-1
  6
BYLAYER
 10
9.3125
 20
7.25
 30
0.0
 11
9.3125
 21
7.25
 31
0.0
  0
LINE
  5
2B0
100
AcDbEntity
100
AcDbLine
  8
0
 62
256
370
-1
  6
BYLAYER
 10
10.125
 20
7.25
 30
0.0
 11
10.125
 21
7.25
 31
0.0
  0
ARC
  5
2B1
100
AcDbEntity
  8
0
 62
256
370
-1
  6
BYLAYER
100
AcDbCircle
 10
10.0
 20
7.25
 30
0.0
 40
0.125
100
AcDbArc
 50
270.0
 51
0.0
  0
ARC
  5
2B2
100
AcDbEntity
  8
0
 62
256
370
-1
  6
BYLAYER
100
AcDbCircle
 10
10.0
 20
7.25
 30
0.0
 40
0.125
100
AcDbArc
 50
0.0
 51
90.0
  0
LINE
  5
2B3
100
AcDbEntity
100
AcDbLine
  8
0
 62
256
370
-1
  6
BYLAYER
 10
9.46875
 20
7.875
 30
0.0
 11
10.03125
 21
7.875
 31
0.0
  0
LINE
  5
2B4
100
AcDbEntity
100
AcDbLine
  8
0
 62
256
370
-1
  6
BYLAYER
 10
10.03125
 20
8.125
 30
0.0
 11
9.46875
 21
8.125
 31
0.0
  0
LINE
  5
2B5
100
AcDbEntity
100
AcDbLine
  8
0
 62
256
370
-1
  6
BYLAYER
 10
9.34375
 20
8.0
 30
0.0
 11
9.34375
 21
8.0
 31
0.0
  0
LINE
  5
2B6
100
AcDbEntity
100
AcDbLine
  8
0
 62
256
370
-1
  6
BYLAYER
 10
10.15625
 20
8.0
 30
0.0
 11
10.15625
 21
8.0
 31
0.0
  0
ARC
  5
2B7
100
AcDbEntity
  8
0
 62
256
370
-1
  6
BYLAYER
100
AcDbCircle
 10
10.03125
 20
8.0
 30
0.0
 40
0.125
100
AcDbArc
 50
270.0
 51
0.0
  0
ARC
  5
2B8
100
AcDbEntity
  8
0
 62
256
370
-1
  6
BYLAYER
100
AcDbCircle
 10
10.03125
 20
8.0
 30
0.0
 40
0.125
100
AcDbArc
 50
0.0
 51
90.0
  0
ARC
  5
2B9
100
AcDbEntity
  8
0
 62
256
370
-1
  6
BYLAYER
100
AcDbCircle
 10
9.46875
 20
8.0
 30
0.0
 40
0.125
100
AcDbArc
 50
180.0
 51
270.0
  0
ARC
  5
2BA
100
AcDbEntity
  8
0
 62
256
370
-1
  6
BYLAYER
100
AcDbCircle
 10
9.46875
 20
8.0
 30
0.0
 40
0.125
100
AcDbArc
 50
90.0
 51
180.0
  0
LINE
  5
2BB
100
AcDbEntity
100
AcDbLine
  8
0
 62
256
370
-1
  6
BYLAYER
 10
9.46875
 20
8.625
 30
0.0
 11
10.03125
 21
8.625
 31
0.0
  0
LINE
  5
2BC
100
AcDbEntity
100
AcDbLine
  8
0
 62
256
370
-1
  6
BYLAYER
 10
10.03125
 20
8.875
 30
0.0
 11
9.46875
 21
8.875
 31
0.0
  0
LINE
  5
2BD
100
AcDbEntity
100
AcDbLine
  8
0
 62
256
370
-1
  6
BYLAYER
 10
9.34375
 20
8.75
 30
0.0
 11
9.34375
 21
8.75
 31
0.0
  0
LINE
  5
2BE
100
AcDbEntity
100
AcDbLine
  8
0
 62
256
370
-1
  6
BYLAYER
 10
10.15625
 20
8.75
 30
0.0
 11
10.15625
 21
8.75
 31
0.0
  0
ARC
  5
2BF
100
AcDbEntity
  8
0
 62
256
370
-1
  6
BYLAYER
100
AcDbCircle
 10
10.03125
 20
8.75
 30
0.0
 40
0.125
100
AcDbArc
 50
270.0
 51
0.0
  0
ARC
  5
2C0
100
AcDbEntity
  8
0
 62
256
370
-1
  6
BYLAYER
100
AcDbCircle
 10
10.03125
 20
8.75
 30
0.0
 40
0.125
100
AcDbArc
 50
0.0
 51
90.0
  0
ARC
  5
2C1
100
AcDbEntity
  8
0
 62
256
370
-1
  6
BYLAYER
100
AcDbCircle
 10
9.46875
 20
8.75
 30
0.0
 40
0.125
100
AcDbArc
 50
180.0
 51
270.0
  0
ARC
  5
2C2
100
AcDbEntity
  8
0
 62
256
370
-1
  6
BYLAYER
100
AcDbCircle
 10
9.46875
 20
8.75
 30
0.0
 40
0.125
100
AcDbArc
 50
90.0
 51
180.0
  0
LINE
  5
2C3
100
AcDbEntity
100
AcDbLine
  8
0
 62
256
370
-1
  6
BYLAYER
 10
0.96875
 20
8.625
 30
0.0
 11
1.53125
 21
8.625
 31
0.0
  0
LINE
  5
2C4
100
AcDbEntity
100
AcDbLine
  8
0
 62
256
370
-1
  6
BYLAYER
 10
1.53125
 20
8.875
 30
0.0
 11
0.96875
 21
8.875
 31
0.0
  0
LINE
  5
2C5
100
AcDbEntity
100
AcDbLine
  8
0
 62
256
370
-1
  6
BYLAYER
 10
0.84375
 20
8.75
 30
0.0
 11
0.84375
 21
8.75
 31
0.0
  0
LINE
  5
2C6
100
AcDbEntity
100
AcDbLine
  8
0
 62
256
370
-1
  6
BYLAYER
 10
1.65625
 20
8.75
 30
0.0
 11
1.65625
 21
8.75
 31
0.0
  0
ARC
  5
2C7
100
AcDbEntity
  8
0
 62
256
370
-1
  6
BYLAYER
100
AcDbCircle
 10
1.53125
 20
8.75
 30
0.0
 40
0.125
100
AcDbArc
 50
270.0
 51
0.0
  0
ARC
  5
2C8
100
AcDbEntity
  8
0
 62
256
370
-1
  6
BYLAYER
100
AcDbCircle
 10
1.53125
 20
8.75
 30
0.0
 40
0.125
100
AcDbArc
 50
0.0
 51
90.0
  0
ARC
  5
2C9
100
AcDbEntity
  8
0
 62
256
370
-1
  6
BYLAYER
100
AcDbCircle
 10
0.96875
 20
8.75
 30
0.0
 40
0.125
100
AcDbArc
 50
180.0
 51
270.0
  0
ARC
  5
2CA
100
AcDbEntity
  8
0
 62
256
370
-1
  6
BYLAYER
100
AcDbCircle
 10
0.96875
 20
8.75
 30
0.0
 40
0.125
100
AcDbArc
 50
90.0
 51
180.0
  0
LINE
  5
2CB
100
AcDbEntity
100
AcDbLine
  8
0
 62
256
370
-1
  6
BYLAYER
 10
0.96875
 20
7.875
 30
0.0
 11
1.53125
 21
7.875
 31
0.0
  0
LINE
  5
2CC
100
AcDbEntity
100
AcDbLine
  8
0
 62
256
370
-1
  6
BYLAYER
 10
1.53125
 20
8.125
 30
0.0
 11
0.96875
 21
8.125
 31
0.0
  0
LINE
  5
2CD
100
AcDbEntity
100
AcDbLine
  8
0
 62
256
370
-1
  6
BYLAYER
 10
0.84375
 20
8.0
 30
0.0
 11
0.84375
 21
8.0
 31
0.0
  0
LINE
  5
2CE
100
AcDbEntity
100
AcDbLine
  8
0
 62
256
370
-1
  6
BYLAYER
 10
1.65625
 20
8.0
 30
0.0
 11
1.65625
 21
8.0
 31
0.0
  0
ARC
  5
2CF
100
AcDbEntity
  8
0
 62
256
370
-1
  6
BYLAYER
100
AcDbCircle
 10
1.53125
 20
8.0
 30
0.0
 40
0.125
100
AcDbArc
 50
270.0
 51
0.0
  0
ARC
  5
2D0
100
AcDbEntity
  8
0
 62
256
370
-1
  6
BYLAYER
100
AcDbCircle
 10
1.53125
 20
8.0
 30
0.0
 40
0.125
100
AcDbArc
 50
0.0
 51
90.0
  0
ARC
  5
2D1
100
AcDbEntity
  8
0
 62
256
370
-1
  6
BYLAYER
100
AcDbCircle
 10
0.96875
 20
8.0
 30
0.0
 40
0.125
100
AcDbArc
 50
180.0
 51
270.0
  0
ARC
  5
2D2
100
AcDbEntity
  8
0
 62
256
370
-1
  6
BYLAYER
100
AcDbCircle
 10
0.96875
 20
8.0
 30
0.0
 40
0.125
100
AcDbArc
 50
90.0
 51
180.0
  0
LINE
  5
2D3
100
AcDbEntity
100
AcDbLine
  8
0
 62
256
370
-1
  6
BYLAYER
 10
1.03125
 20
7.125
 30
0.0
 11
1.59375
 21
7.125
 31
0.0
  0
LINE
  5
2D4
100
AcDbEntity
100
AcDbLine
  8
0
 62
256
370
-1
  6
BYLAYER
 10
1.59375
 20
7.375
 30
0.0
 11
1.03125
 21
7.375
 31
0.0
  0
LINE
  5
2D5
100
AcDbEntity
100
AcDbLine
  8
0
 62
256
370
-1
  6
BYLAYER
 10
0.90625
 20
7.25
 30
0.0
 11
0.90625
 21
7.25
 31
0.0
  0
LINE
  5
2D6
100
AcDbEntity
100
AcDbLine
  8
0
 62
256
370
-1
  6
BYLAYER
 10
1.71875
 20
7.25
 30
0.0
 11
1.71875
 21
7.25
 31
0.0
  0
ARC
  5
2D7
100
AcDbEntity
  8
0
 62
256
370
-1
  6
BYLAYER
100
AcDbCircle
 10
1.59375
 20
7.25
 30
0.0
 40
0.125
100
AcDbArc
 50
270.0
 51
0.0
  0
ARC
  5
2D8
100
AcDbEntity
  8
0
 62
256
370
-1
  6
BYLAYER
100
AcDbCircle
 10
1.59375
 20
7.25
 30
0.0
 40
0.125
100
AcDbArc
 50
0.0
 51
90.0
  0
ARC
  5
2D9
100
AcDbEntity
  8
0
 62
256
370
-1
  6
BYLAYER
100
AcDbCircle
 10
1.03125
 20
7.25
 30
0.0
 40
0.125
100
AcDbArc
 50
180.0
 51
270.0
  0
ARC
  5
2DA
100
AcDbEntity
  8
0
 62
256
370
-1
  6
BYLAYER
100
AcDbCircle
 10
1.03125
 20
7.25
 30
0.0
 40
0.125
100
AcDbArc
 50
90.0
 51
180.0
  0
LINE
  5
2DB
100
AcDbEntity
100
AcDbLine
  8
0
 62
256
370
-1
  6
BYLAYER
 10
0.0
 20
12.0
 30
0.0
 11
11.0
 21
12.0
 31
0.0
  0
LINE
  5
2DC
100
AcDbEntity
100
AcDbLine
  8
0
 62
256
370
-1
  6
BYLAYER
 10
11.0
 20
12.0
 30
0.0
 11
11.0
 21
16.0
 31
0.0
  0
LINE
  5
2DD
100
AcDbEntity
100
AcDbLine
  8
0
 62
256
370
-1
  6
BYLAYER
 10
11.0
 20
16.0
 30
0.0
 11
0.0
 21
16.0
 31
0.0
  0
LINE
  5
2DE
100
AcDbEntity
100
AcDbLine
  8
0
 62
256
370
-1
  6
BYLAYER
 10
0.0
 20
16.0
 30
0.0
 11
0.0
 21
12.0
 31
0.0
  0
LINE
  5
2DF
100
AcDbEntity
100
AcDbLine
  8
0
 62
256
370
-1
  6
BYLAYER
 10
0.75
 20
15.125
 30
0.0
 11
0.75
 21
12.875
 31
0.0
  0
LINE
  5
2E0
100
AcDbEntity
100
AcDbLine
  8
0
 62
256
370
-1
  6
BYLAYER
 10
1.125
 20
15.125
 30
0.0
 11
1.125
 21
12.875
 31
0.0
  0
LINE
  5
2E1
100
AcDbEntity
100
AcDbLine
  8
0
 62
256
370
-1
  6
BYLAYER
 10
2.625
 20
14.875
 30
0.0
 11
1.5
 21
14.875
 31
0.0
  0
LINE
  5
2E2
100
AcDbEntity
100
AcDbLine
  8
0
 62
256
370
-1
  6
BYLAYER
 10
5.25
 20
14.375
 30
0.0
 11
1.5
 21
14.375
 31
0.0
  0
LINE
  5
2E3
100
AcDbEntity
100
AcDbLine
  8
0
 62
256
370
-1
  6
BYLAYER
 10
2.75
 20
15.25
 30
0.0
 11
2.75
 21
15.25
 31
0.0
  0
LINE
  5
2E4
100
AcDbEntity
100
AcDbLine
  8
0
 62
256
370
-1
  6
BYLAYER
 10
3.0
 20
15.25
 30
0.0
 11
3.0
 21
15.25
 31
0.0
  0
LINE
  5
2E5
100
AcDbEntity
100
AcDbLine
  8
0
 62
256
370
-1
  6
BYLAYER
 10
2.75
 20
14.75
 30
0.0
 11
2.75
 21
14.75
 31
0.0
  0
LINE
  5
2E6
100
AcDbEntity
100
AcDbLine
  8
0
 62
256
370
-1
  6
BYLAYER
 10
3.0
 20
14.75
 30
0.0
 11
3.0
 21
14.75
 31
0.0
  0
LINE
  5
2E7
100
AcDbEntity
100
AcDbLine
  8
0
 62
256
370
-1
  6
BYLAYER
 10
1.375
 20
15.25
 30
0.0
 11
1.375
 21
15.25
 31
0.0
  0
LINE
  5
2E8
100
AcDbEntity
100
AcDbLine
  8
0
 62
256
370
-1
  6
BYLAYER
 10
1.375
 20
14.75
 30
0.0
 11
1.375
 21
14.75
 31
0.0
  0
LINE
  5
2E9
100
AcDbEntity
100
AcDbLine
  8
0
 62
256
370
-1
  6
BYLAYER
 10
3.125
 20
14.875
 30
0.0
 11
5.5
 21
14.875
 31
0.0
  0
LINE
  5
2EA
100
AcDbEntity
100
AcDbLine
  8
0
 62
256
370
-1
  6
BYLAYER
 10
3.125
 20
15.125
 30
0.0
 11
5.5
 21
15.125
 31
0.0
  0
LINE
  5
2EB
100
AcDbEntity
100
AcDbLine
  8
0
 62
256
370
-1
  6
BYLAYER
 10
2.625
 20
15.125
 30
0.0
 11
1.5
 21
15.125
 31
0.0
  0
LINE
  5
2EC
100
AcDbEntity
100
AcDbLine
  8
0
 62
256
370
-1
  6
BYLAYER
 10
2.625
 20
14.625
 30
0.0
 11
1.5
 21
14.625
 31
0.0
  0
LINE
  5
2ED
100
AcDbEntity
100
AcDbLine
  8
0
 62
256
370
-1
  6
BYLAYER
 10
3.125
 20
14.625
 30
0.0
 11
5.5
 21
14.625
 31
0.0
  0
LINE
  5
2EE
100
AcDbEntity
100
AcDbLine
  8
0
 62
256
370
-1
  6
BYLAYER
 10
1.0
 20
15.25
 30
0.0
 11
0.875
 21
15.25
 31
0.0
  0
LINE
  5
2EF
100
AcDbEntity
100
AcDbLine
  8
0
 62
256
370
-1
  6
BYLAYER
 10
1.5
 20
15.375
 30
0.0
 11
2.625
 21
15.375
 31
0.0
  0
LINE
  5
2F0
100
AcDbEntity
100
AcDbLine
  8
0
 62
256
370
-1
  6
BYLAYER
 10
3.125
 20
15.375
 30
0.0
 11
5.5
 21
15.375
 31
0.0
  0
DIMENSION
  5
2F1
100
AcDbEntity
  8
0
 62
256
370
-1
  6
BYLAYER
100
AcDbDimension
 10
nan
 20
nan
 30
0.0
 11
nan
 21
nan
 31
0.0
 70
1
 71
8
 72
2
 41
1.0
 42
0.0
  1

  3
Standard
100
AcDbAlignedDimension
 13
1.375
 23
13.75
 33
0.0
 14
1.375
 24
13.75
 34
0.0
1001
ACAD
1000
DSTYLE
1002
{
1070
144
1040
1
1002
}
  0
LINE
  5
2F2
100
AcDbEntity
100
AcDbLine
  8
0
 62
256
370
-1
  6
BYLAYER
 10
0.875
 20
12.75
 30
0.0
 11
1.0
 21
12.75
 31
0.0
  0
LINE
  5
2F3
100
AcDbEntity
100
AcDbLine
  8
0
 62
256
370
-1
  6
BYLAYER
 10
1.5
 20
14.125
 30
0.0
 11
5.25
 21
14.125
 31
0.0
  0
LINE
  5
2F4
100
AcDbEntity
100
AcDbLine
  8
0
 62
256
370
-1
  6
BYLAYER
 10
1.375
 20
14.25
 30
0.0
 11
1.375
 21
14.25
 31
0.0
  0
LINE
  5
2F5
100
AcDbEntity
100
AcDbLine
  8
0
 62
256
370
-1
  6
BYLAYER
 10
5.375
 20
14.25
 30
0.0
 11
5.375
 21
14.25
 31
0.0
  0
ARC
  5
2F6
100
AcDbEntity
  8
0
 62
256
370
-1
  6
BYLAYER
100
AcDbCircle
 10
1.5
 20
15.25
 30
0.0
 40
0.125
100
AcDbArc
 50
90.0
 51
180.0
  0
ARC
  5
2F7
100
AcDbEntity
  8
0
 62
256
370
-1
  6
BYLAYER
100
AcDbCircle
 10
2.625
 20
15.25
 30
0.0
 40
0.125
100
AcDbArc
 50
0.0
 51
90.0
  0
ARC
  5
2F8
100
AcDbEntity
  8
0
 62
256
370
-1
  6
BYLAYER
100
AcDbCircle
 10
2.625
 20
15.25
 30
0.0
 40
0.125
100
AcDbArc
 50
270.0
 51
0.0
  0
ARC
  5
2F9
100
AcDbEntity
  8
0
 62
256
370
-1
  6
BYLAYER
100
AcDbCircle
 10
1.5
 20
15.25
 30
0.0
 40
0.125
100
AcDbArc
 50
180.0
 51
270.0
  0
ARC
  5
2FA
100
AcDbEntity
  8
0
 62
256
370
-1
  6
BYLAYER
100
AcDbCircle
 10
3.125
 20
15.25
 30
0.0
 40
0.125
100
AcDbArc
 50
90.0
 51
180.0
  0
ARC
  5
2FB
100
AcDbEntity
  8
0
 62
256
370
-1
  6
BYLAYER
100
AcDbCircle
 10
3.125
 20
15.25
 30
0.0
 40
0.125
100
AcDbArc
 50
180.0
 51
270.0
  0
ARC
  5
2FC
100
AcDbEntity
  8
0
 62
256
370
-1
  6
BYLAYER
100
AcDbCircle
 10
3.125
 20
14.75
 30
0.0
 40
0.125
100
AcDbArc
 50
90.0
 51
180.0
  0
ARC
  5
2FD
100
AcDbEntity
  8
0
 62
256
370
-1
  6
BYLAYER
100
AcDbCircle
 10
3.125
 20
14.75
 30
0.0
 40
0.125
100
AcDbArc
 50
180.0
 51
270.0
  0
ARC
  5
2FE
100
AcDbEntity
  8
0
 62
256
370
-1
  6
BYLAYER
100
AcDbCircle
 10
2.625
 20
14.75
 30
0.0
 40
0.125
100
AcDbArc
 50
270.0
 51
0.0
  0
ARC
  5
2FF
100
AcDbEntity
  8
0
 62
256
370
-1
  6
BYLAYER
100
AcDbCircle
 10
2.625
 20
14.75
 30
0.0
 40
0.125
100
AcDbArc
 50
0.0
 51
90.0
  0
ARC
  5
300
100
AcDbEntity
  8
0
 62
256
370
-1
  6
BYLAYER
100
AcDbCircle
 10
1.5
 20
14.75
 30
0.0
 40
0.125
100
AcDbArc
 50
90.0
 51
180.0
  0
ARC
  5
301
100
AcDbEntity
  8
0
 62
256
370
-1
  6
BYLAYER
100
AcDbCircle
 10
1.5
 20
14.75
 30
0.0
 40
0.125
100
AcDbArc
 50
180.0
 51
270.0
  0
ARC
  5
302
100
AcDbEntity
  8
0
 62
256
370
-1
  6
BYLAYER
100
AcDbCircle
 10
1.5
 20
14.25
 30
0.0
 40
0.125
100
AcDbArc
 50
90.0
 51
180.0
  0
ARC
  5
303
100
AcDbEntity
  8
0
 62
256
370
-1
  6
BYLAYER
100
AcDbCircle
 10
1.5
 20
14.25
 30
0.0
 40
0.125
100
AcDbArc
 50
180.0
 51
270.0
  0
ARC
  5
304
100
AcDbEntity
  8
0
 62
256
370
-1
  6
BYLAYER
100
AcDbCircle
 10
5.25
 20
14.25
 30
0.0
 40
0.125
100
AcDbArc
 50
270.0
 51
0.0
  0
ARC
  5
305
100
AcDbEntity
  8
0
 62
256
370
-1
  6
BYLAYER
100
AcDbCircle
 10
5.25
 20
14.25
 30
0.0
 40
0.125
100
AcDbArc
 50
0.0
 51
90.0
  0
LINE
  5
306
100
AcDbEntity
100
AcDbLine
  8
0
 62
256
370
-1
  6
BYLAYER
 10
3.1249999999999991
 20
12.6249999999999982
 30
0.0
 11
5.4999999999999991
 21
12.6249999999999982
 31
0.0
  0
ARC
  5
307
100
AcDbEntity
  8
0
 62
256
370
-1
  6
BYLAYER
100
AcDbCircle
 10
3.1249999999999991
 20
12.7499999999999982
 30
0.0
 40
0.125
100
AcDbArc
 50
180.0
 51
270.0
  0
ARC
  5
308
100
AcDbEntity
  8
0
 62
256
370
-1
  6
BYLAYER
100
AcDbCircle
 10
3.1249999999999991
 20
12.7499999999999982
 30
0.0
 40
0.125
100
AcDbArc
 50
90.0
 51
180.0
  0
ARC
  5
309
100
AcDbEntity
  8
0
 62
256
370
-1
  6
BYLAYER
100
AcDbCircle
 10
3.1249999999999996
 20
13.25
 30
0.0
 40
0.125
100
AcDbArc
 50
180.0
 51
270.0
  0
ARC
  5
30A
100
AcDbEntity
  8
0
 62
256
370
-1
  6
BYLAYER
100
AcDbCircle
 10
3.1249999999999996
 20
13.25
 30
0.0
 40
0.125
100
AcDbArc
 50
90.0
 51
180.0
  0
ARC
  5
30B
100
AcDbEntity
  8
0
 62
256
370
-1
  6
BYLAYER
100
AcDbCircle
 10
2.625
 20
13.25
 30
0.0
 40
0.125
100
AcDbArc
 50
360.0
 51
90.0
  0
ARC
  5
30C
100
AcDbEntity
  8
0
 62
256
370
-1
  6
BYLAYER
100
AcDbCircle
 10
2.625
 20
13.25
 30
0.0
 40
0.125
100
AcDbArc
 50
270.0
 51
360.0
  0
ARC
  5
30D
100
AcDbEntity
  8
0
 62
256
370
-1
  6
BYLAYER
100
AcDbCircle
 10
1.5
 20
13.25
 30
0.0
 40
0.125
100
AcDbArc
 50
180.0
 51
270.0
  0
ARC
  5
30E
100
AcDbEntity
  8
0
 62
256
370
-1
  6
BYLAYER
100
AcDbCircle
 10
1.5
 20
13.25
 30
0.0
 40
0.125
100
AcDbArc
 50
90.0
 51
180.0
  0
ARC
  5
30F
100
AcDbEntity
  8
0
 62
256
370
-1
  6
BYLAYER
100
AcDbCircle
 10
1.5
 20
13.75
 30
0.0
 40
0.125
100
AcDbArc
 50
180.0
 51
270.0
  0
ARC
  5
310
100
AcDbEntity
  8
0
 62
256
370
-1
  6
BYLAYER
100
AcDbCircle
 10
1.5
 20
13.75
 30
0.0
 40
0.125
100
AcDbArc
 50
90.0
 51
180.0
  0
ARC
  5
311
100
AcDbEntity
  8
0
 62
256
370
-1
  6
BYLAYER
100
AcDbCircle
 10
5.25
 20
13.7499999999999929
 30
0.0
 40
0.125
100
AcDbArc
 50
360.0
 51
90.0
  0
ARC
  5
312
100
AcDbEntity
  8
0
 62
256
370
-1
  6
BYLAYER
100
AcDbCircle
 10
5.25
 20
13.7499999999999929
 30
0.0
 40
0.125
100
AcDbArc
 50
270.0
 51
360.0
  0
LINE
  5
313
100
AcDbEntity
100
AcDbLine
  8
0
 62
256
370
-1
  6
BYLAYER
 10
2.6249999999999991
 20
13.1249999999999982
 30
0.0
 11
1.4999999999999998
 21
13.125
 31
0.0
  0
LINE
  5
314
100
AcDbEntity
100
AcDbLine
  8
0
 62
256
370
-1
  6
BYLAYER
 10
5.25
 20
13.6250000000000018
 30
0.0
 11
1.5
 21
13.625
 31
0.0
  0
LINE
  5
315
100
AcDbEntity
100
AcDbLine
  8
0
 62
256
370
-1
  6
BYLAYER
 10
2.7499999999999991
 20
12.75
 30
0.0
 11
2.7499999999999991
 21
12.75
 31
0.0
  0
LINE
  5
316
100
AcDbEntity
100
AcDbLine
  8
0
 62
256
370
-1
  6
BYLAYER
 10
3.0
 20
12.75
 30
0.0
 11
3.0
 21
12.75
 31
0.0
  0
LINE
  5
317
100
AcDbEntity
100
AcDbLine
  8
0
 62
256
370
-1
  6
BYLAYER
 10
2.75
 20
13.25
 30
0.0
 11
2.75
 21
13.25
 31
0.0
  0
LINE
  5
318
100
AcDbEntity
100
AcDbLine
  8
0
 62
256
370
-1
  6
BYLAYER
 10
1.5
 20
13.875
 30
0.0
 11
5.25
 21
13.8750000000000018
 31
0.0
  0
LINE
  5
319
100
AcDbEntity
100
AcDbLine
  8
0
 62
256
370
-1
  6
BYLAYER
 10
3.0
 20
13.2500000000000018
 30
0.0
 11
3.0
 21
13.2500000000000018
 31
0.0
  0
LINE
  5
31A
100
AcDbEntity
100
AcDbLine
  8
0
 62
256
370
-1
  6
BYLAYER
 10
1.3749999999999993
 20
12.75
 30
0.0
 11
1.3749999999999993
 21
12.75
 31
0.0
  0
LINE
  5
31B
100
AcDbEntity
100
AcDbLine
  8
0
 62
256
370
-1
  6
BYLAYER
 10
1.375
 20
13.75
 30
0.0
 11
1.375
 21
13.75
 31
0.0
  0
LINE
  5
31C
100
AcDbEntity
100
AcDbLine
  8
0
 62
256
370
-1
  6
BYLAYER
 10
1.3749999999999998
 20
13.25
 30
0.0
 11
1.3749999999999998
 21
13.25
 31
0.0
  0
LINE
  5
31D
100
AcDbEntity
100
AcDbLine
  8
0
 62
256
370
-1
  6
BYLAYER
 10
3.125
 20
13.1250000000000018
 30
0.0
 11
5.5000000000000009
 21
13.125
 31
0.0
  0
LINE
  5
31E
100
AcDbEntity
100
AcDbLine
  8
0
 62
256
370
-1
  6
BYLAYER
 10
5.375
 20
13.7499999999999911
 30
0.0
 11
5.375
 21
13.7499999999999911
 31
0.0
  0
LINE
  5
31F
100
AcDbEntity
100
AcDbLine
  8
0
 62
256
370
-1
  6
BYLAYER
 10
3.125
 20
12.875
 30
0.0
 11
5.5
 21
12.875
 31
0.0
  0
LINE
  5
320
100
AcDbEntity
100
AcDbLine
  8
0
 62
256
370
-1
  6
BYLAYER
 10
2.625
 20
12.875
 30
0.0
 11
1.4999999999999998
 21
12.875
 31
0.0
  0
ARC
  5
321
100
AcDbEntity
  8
0
 62
256
370
-1
  6
BYLAYER
100
AcDbCircle
 10
1.4999999999999993
 20
12.75
 30
0.0
 40
0.125
100
AcDbArc
 50
180.0
 51
270.0
  0
LINE
  5
322
100
AcDbEntity
100
AcDbLine
  8
0
 62
256
370
-1
  6
BYLAYER
 10
2.625
 20
13.375
 30
0.0
 11
1.4999999999999998
 21
13.375
 31
0.0
  0
LINE
  5
323
100
AcDbEntity
100
AcDbLine
  8
0
 62
256
370
-1
  6
BYLAYER
 10
3.125
 20
13.3749999999999982
 30
0.0
 11
5.4999999999999991
 21
13.3749999999999947
 31
0.0
  0
ARC
  5
324
100
AcDbEntity
  8
0
 62
256
370
-1
  6
BYLAYER
100
AcDbCircle
 10
2.625
 20
12.75
 30
0.0
 40
0.125
100
AcDbArc
 50
270.0
 51
360.0
  0
ARC
  5
325
100
AcDbEntity
  8
0
 62
256
370
-1
  6
BYLAYER
100
AcDbCircle
 10
2.625
 20
12.75
 30
0.0
 40
0.125
100
AcDbArc
 50
360.0
 51
90.0
  0
LINE
  5
326
100
AcDbEntity
100
AcDbLine
  8
0
 62
256
370
-1
  6
BYLAYER
 10
1.4999999999999991
 20
12.625
 30
0.0
 11
2.6249999999999991
 21
12.625
 31
0.0
  0
ARC
  5
327
100
AcDbEntity
  8
0
 62
256
370
-1
  6
BYLAYER
100
AcDbCircle
 10
1.4999999999999993
 20
12.75
 30
0.0
 40
0.125
100
AcDbArc
 50
90.0
 51
180.0
  0
ARC
  5
328
100
AcDbEntity
  8
0
 62
256
370
-1
  6
BYLAYER
100
AcDbCircle
 10
0.875
 20
15.125
 30
0.0
 40
0.125
100
AcDbArc
 50
90.0
 51
180.0
  0
ARC
  5
329
100
AcDbEntity
  8
0
 62
256
370
-1
  6
BYLAYER
100
AcDbCircle
 10
1.0
 20
15.125
 30
0.0
 40
0.125
100
AcDbArc
 50
0.0
 51
90.0
  0
ARC
  5
32A
100
AcDbEntity
  8
0
 62
256
370
-1
  6
BYLAYER
100
AcDbCircle
 10
1.0
 20
12.875
 30
0.0
 40
0.125
100
AcDbArc
 50
270.0
 51
0.0
  0
ARC
  5
32B
100
AcDbEntity
  8
0
 62
256
370
-1
  6
BYLAYER
100
AcDbCircle
 10
0.875
 20
12.875
 30
0.0
 40
0.125
100
AcDbArc
 50
180.0
 51
270.0
  0
LINE
  5
32C
100
AcDbEntity
100
AcDbLine
  8
0
 62
256
370
-1
  6
BYLAYER
 10
10.25
 20
15.1250000000000018
 30
0.0
 11
10.25
 21
12.8749999999999982
 31
0.0
  0
LINE
  5
32D
100
AcDbEntity
100
AcDbLine
  8
0
 62
256
370
-1
  6
BYLAYER
 10
9.875
 20
15.125
 30
0.0
 11
9.875
 21
12.875
 31
0.0
  0
LINE
  5
32E
100
AcDbEntity
100
AcDbLine
  8
0
 62
256
370
-1
  6
BYLAYER
 10
8.375
 20
14.875
 30
0.0
 11
9.5
 21
14.875
 31
0.0
  0
LINE
  5
32F
100
AcDbEntity
100
AcDbLine
  8
0
 62
256
370
-1
  6
BYLAYER
 10
5.75
 20
14.375
 30
0.0
 11
9.5
 21
14.375
 31
0.0
  0
LINE
  5
330
100
AcDbEntity
100
AcDbLine
  8
0
 62
256
370
-1
  6
BYLAYER
 10
8.25
 20
15.25
 30
0.0
 11
8.25
 21
15.25
 31
0.0
  0
LINE
  5
331
100
AcDbEntity
100
AcDbLine
  8
0
 62
256
370
-1
  6
BYLAYER
 10
8.0
 20
15.25
 30
0.0
 11
8.0
 21
15.25
 31
0.0
  0
LINE
  5
332
100
AcDbEntity
100
AcDbLine
  8
0
 62
256
370
-1
  6
BYLAYER
 10
8.25
 20
14.75
 30
0.0
 11
8.25
 21
14.75
 31
0.0
  0
LINE
  5
333
100
AcDbEntity
100
AcDbLine
  8
0
 62
256
370
-1
  6
BYLAYER
 10
8.0
 20
14.75
 30
0.0
 11
8.0
 21
14.75
 31
0.0
  0
LINE
  5
334
100
AcDbEntity
100
AcDbLine
  8
0
 62
256
370
-1
  6
BYLAYER
 10
9.625
 20
15.25
 30
0.0
 11
9.625
 21
15.25
 31
0.0
  0
LINE
  5
335
100
AcDbEntity
100
AcDbLine
  8
0
 62
256
370
-1
  6
BYLAYER
 10
9.625
 20
14.75
 30
0.0
 11
9.625
 21
14.75
 31
0.0
  0
LINE
  5
336
100
AcDbEntity
100
AcDbLine
  8
0
 62
256
370
-1
  6
BYLAYER
 10
7.875
 20
14.875
 30
0.0
 11
5.5
 21
14.875
 31
0.0
  0
LINE
  5
337
100
AcDbEntity
100
AcDbLine
  8
0
 62
256
370
-1
  6
BYLAYER
 10
7.875
 20
15.125
 30
0.0
 11
5.5
 21
15.125
 31
0.0
  0
LINE
  5
338
100
AcDbEntity
100
AcDbLine
  8
0
 62
256
370
-1
  6
BYLAYER
 10
8.375
 20
15.125
 30
0.0
 11
9.5
 21
15.125
 31
0.0
  0
LINE
  5
339
100
AcDbEntity
100
AcDbLine
  8
0
 62
256
370
-1
  6
BYLAYER
 10
8.375
 20
14.625
 30
0.0
 11
9.5
 21
14.625
 31
0.0
  0
LINE
  5
33A
100
AcDbEntity
100
AcDbLine
  8
0
 62
256
370
-1
  6
BYLAYER
 10
7.875
 20
14.625
 30
0.0
 11
5.5
 21
14.625
 31
0.0
  0
LINE
  5
33B
100
AcDbEntity
100
AcDbLine
  8
0
 62
256
370
-1
  6
BYLAYER
 10
10.0
 20
15.25
 30
0.0
 11
10.125
 21
15.25
 31
0.0
  0
LINE
  5
33C
100
AcDbEntity
100
AcDbLine
  8
0
 62
256
370
-1
  6
BYLAYER
 10
9.5
 20
15.3749999999999982
 30
0.0
 11
8.375
 21
15.375
 31
0.0
  0
LINE
  5
33D
100
AcDbEntity
100
AcDbLine
  8
0
 62
256
370
-1
  6
BYLAYER
 10
7.875
 20
15.375
 30
0.0
 11
5.5
 21
15.375
 31
0.0
  0
LINE
  5
33E
100
AcDbEntity
100
AcDbLine
  8
0
 62
256
370
-1
  6
BYLAYER
 10
10.125
 20
12.7500000000000018
 30
0.0
 11
10.0
 21
12.7499999999999982
 31
0.0
  0
LINE
  5
33F
100
AcDbEntity
100
AcDbLine
  8
0
 62
256
370
-1
  6
BYLAYER
 10
9.5
 20
14.1249999999999982
 30
0.0
 11
5.75
 21
14.125
 31
0.0
  0
LINE
  5
340
100
AcDbEntity
100
AcDbLine
  8
0
 62
256
370
-1
  6
BYLAYER
 10
9.625
 20
14.25
 30
0.0
 11
9.625
 21
14.25
 31
0.0
  0
LINE
  5
341
100
AcDbEntity
100
AcDbLine
  8
0
 62
256
370
-1
  6
BYLAYER
 10
5.625
 20
14.25
 30
0.0
 11
5.625
 21
14.25
 31
0.0
  0
ARC
  5
342
100
AcDbEntity
  8
0
 62
256
370
-1
  6
BYLAYER
100
AcDbCircle
 10
9.5
 20
15.25
 30
0.0
 40
0.125
100
AcDbArc
 50
0.0
 51
90.0
  0
ARC
  5
343
100
AcDbEntity
  8
0
 62
256
370
-1
  6
BYLAYER
100
AcDbCircle
 10
8.375
 20
15.25
 30
0.0
 40
0.125
100
AcDbArc
 50
90.0
 51
180.0
  0
ARC
  5
344
100
AcDbEntity
  8
0
 62
256
370
-1
  6
BYLAYER
100
AcDbCircle
 10
8.375
 20
15.25
 30
0.0
 40
0.125
100
AcDbArc
 50
180.0
 51
270.0
  0
ARC
  5
345
100
AcDbEntity
  8
0
 62
256
370
-1
  6
BYLAYER
100
AcDbCircle
 10
9.5
 20
15.25
 30
0.0
 40
0.125
100
AcDbArc
 50
270.0
 51
0.0
  0
ARC
  5
346
100
AcDbEntity
  8
0
 62
256
370
-1
  6
BYLAYER
100
AcDbCircle
 10
7.8750000000000009
 20
15.25
 30
0.0
 40
0.125
100
AcDbArc
 50
0.0
 51
90.0
  0
ARC
  5
347
100
AcDbEntity
  8
0
 62
256
370
-1
  6
BYLAYER
100
AcDbCircle
 10
7.8750000000000009
 20
15.25
 30
0.0
 40
0.125
100
AcDbArc
 50
270.0
 51
0.0
  0
ARC
  5
348
100
AcDbEntity
  8
0
 62
256
370
-1
  6
BYLAYER
100
AcDbCircle
 10
7.875
 20
14.75
 30
0.0
 40
0.125
100
AcDbArc
 50
0.0
 51
90.0
  0
ARC
  5
349
100
AcDbEntity
  8
0
 62
256
370
-1
  6
BYLAYER
100
AcDbCircle
 10
7.875
 20
14.75
 30
0.0
 40
0.125
100
AcDbArc
 50
270.0
 51
0.0
  0
ARC
  5
34A
100
AcDbEntity
  8
0
 62
256
370
-1
  6
BYLAYER
100
AcDbCircle
 10
8.375
 20
14.75
 30
0.0
 40
0.125
100
AcDbArc
 50
180.0
 51
270.0
  0
ARC
  5
34B
100
AcDbEntity
  8
0
 62
256
370
-1
  6
BYLAYER
100
AcDbCircle
 10
8.375
 20
14.75
 30
0.0
 40
0.125
100
AcDbArc
 50
90.0
 51
180.0
  0
ARC
  5
34C
100
AcDbEntity
  8
0
 62
256
370
-1
  6
BYLAYER
100
AcDbCircle
 10
9.5
 20
14.7499999999999982
 30
0.0
 40
0.125
100
AcDbArc
 50
0.0
 51
90.0
  0
ARC
  5
34D
100
AcDbEntity
  8
0
 62
256
370
-1
  6
BYLAYER
100
AcDbCircle
 10
9.5
 20
14.7499999999999982
 30
0.0
 40
0.125
100
AcDbArc
 50
270.0
 51
0.0
  0
ARC
  5
34E
100
AcDbEntity
  8
0
 62
256
370
-1
  6
BYLAYER
100
AcDbCircle
 10
9.5
 20
14.25
 30
0.0
 40
0.125
100
AcDbArc
 50
0.0
 51
90.0
  0
ARC
  5
34F
100
AcDbEntity
  8
0
 62
256
370
-1
  6
BYLAYER
100
AcDbCircle
 10
9.5
 20
14.25
 30
0.0
 40
0.125
100
AcDbArc
 50
270.0
 51
0.0
  0
ARC
  5
350
100
AcDbEntity
  8
0
 62
256
370
-1
  6
BYLAYER
100
AcDbCircle
 10
5.75
 20
14.25
 30
0.0
 40
0.125
100
AcDbArc
 50
180.0
 51
270.0
  0
ARC
  5
351
100
AcDbEntity
  8
0
 62
256
370
-1
  6
BYLAYER
100
AcDbCircle
 10
5.75
 20
14.25
 30
0.0
 40
0.125
100
AcDbArc
 50
90.0
 51
180.0
  0
LINE
  5
352
100
AcDbEntity
100
AcDbLine
  8
0
 62
256
370
-1
  6
BYLAYER
 10
7.8750000000000018
 20
12.6249999999999964
 30
0.0
 11
5.5000000000000009
 21
12.6249999999999982
 31
0.0
  0
ARC
  5
353
100
AcDbEntity
  8
0
 62
256
370
-1
  6
BYLAYER
100
AcDbCircle
 10
7.8750000000000018
 20
12.7499999999999982
 30
0.0
 40
0.125
100
AcDbArc
 50
270.0
 51
0.0
  0
ARC
  5
354
100
AcDbEntity
  8
0
 62
256
370
-1
  6
BYLAYER
100
AcDbCircle
 10
7.8750000000000018
 20
12.7499999999999982
 30
0.0
 40
0.125
100
AcDbArc
 50
0.0
 51
90.0
  0
ARC
  5
355
100
AcDbEntity
  8
0
 62
256
370
-1
  6
BYLAYER
100
AcDbCircle
 10
7.875
 20
13.25
 30
0.0
 40
0.125
100
AcDbArc
 50
270.0
 51
0.0
  0
ARC
  5
356
100
AcDbEntity
  8
0
 62
256
370
-1
  6
BYLAYER
100
AcDbCircle
 10
7.875
 20
13.25
 30
0.0
 40
0.125
100
AcDbArc
 50
0.0
 51
90.0
  0
ARC
  5
357
100
AcDbEntity
  8
0
 62
256
370
-1
  6
BYLAYER
100
AcDbCircle
 10
8.375
 20
13.25
 30
0.0
 40
0.125
100
AcDbArc
 50
90.0
 51
180.0
  0
ARC
  5
358
100
AcDbEntity
  8
0
 62
256
370
-1
  6
BYLAYER
100
AcDbCircle
 10
8.375
 20
13.25
 30
0.0
 40
0.125
100
AcDbArc
 50
180.0
 51
270.0
  0
ARC
  5
359
100
AcDbEntity
  8
0
 62
256
370
-1
  6
BYLAYER
100
AcDbCircle
 10
9.5
 20
13.25
 30
0.0
 40
0.125
100
AcDbArc
 50
270.0
 51
0.0
  0
ARC
  5
35A
100
AcDbEntity
  8
0
 62
256
370
-1
  6
BYLAYER
100
AcDbCircle
 10
9.5
 20
13.25
 30
0.0
 40
0.125
100
AcDbArc
 50
0.0
 51
90.0
  0
ARC
  5
35B
100
AcDbEntity
  8
0
 62
256
370
-1
  6
BYLAYER
100
AcDbCircle
 10
9.5
 20
13.7499999999999982
 30
0.0
 40
0.125
100
AcDbArc
 50
270.0
 51
0.0
  0
ARC
  5
35C
100
AcDbEntity
  8
0
 62
256
370
-1
  6
BYLAYER
100
AcDbCircle
 10
9.5
 20
13.7499999999999982
 30
0.0
 40
0.125
100
AcDbArc
 50
0.0
 51
90.0
  0
ARC
  5
35D
100
AcDbEntity
  8
0
 62
256
370
-1
  6
BYLAYER
100
AcDbCircle
 10
5.75
 20
13.7499999999999929
 30
0.0
 40
0.125
100
AcDbArc
 50
90.0
 51
180.0
  0
ARC
  5
35E
100
AcDbEntity
  8
0
 62
256
370
-1
  6
BYLAYER
100
AcDbCircle
 10
5.75
 20
13.7499999999999929
 30
0.0
 40
0.125
100
AcDbArc
 50
180.0
 51
270.0
  0
LINE
  5
35F
100
AcDbEntity
100
AcDbLine
  8
0
 62
256
370
-1
  6
BYLAYER
 10
8.375
 20
13.1249999999999982
 30
0.0
 11
9.5
 21
13.125
 31
0.0
  0
LINE
  5
360
100
AcDbEntity
100
AcDbLine
  8
0
 62
256
370
-1
  6
BYLAYER
 10
5.75
 20
13.6250000000000018
 30
0.0
 11
9.5
 21
13.6249999999999982
 31
0.0
  0
LINE
  5
361
100
AcDbEntity
100
AcDbLine
  8
0
 62
256
370
-1
  6
BYLAYER
 10
8.25
 20
12.75
 30
0.0
 11
8.25
 21
12.75
 31
0.0
  0
LINE
  5
362
100
AcDbEntity
100
AcDbLine
  8
0
 62
256
370
-1
  6
BYLAYER
 10
8.0
 20
12.75
 30
0.0
 11
8.0
 21
12.75
 31
0.0
  0
LINE
  5
363
100
AcDbEntity
100
AcDbLine
  8
0
 62
256
370
-1
  6
BYLAYER
 10
8.25
 20
13.25
 30
0.0
 11
8.25
 21
13.25
 31
0.0
  0
LINE
  5
364
100
AcDbEntity
100
AcDbLine
  8
0
 62
256
370
-1
  6
BYLAYER
 10
9.5
 20
13.875
 30
0.0
 11
5.75
 21
13.8750000000000018
 31
0.0
  0
LINE
  5
365
100
AcDbEntity
100
AcDbLine
  8
0
 62
256
370
-1
  6
BYLAYER
 10
8.0
 20
13.25
 30
0.0
 11
8.0
 21
13.25
 31
0.0
  0
LINE
  5
366
100
AcDbEntity
100
AcDbLine
  8
0
 62
256
370
-1
  6
BYLAYER
 10
9.625
 20
12.7499999999999982
 30
0.0
 11
9.625
 21
12.7499999999999982
 31
0.0
  0
LINE
  5
367
100
AcDbEntity
100
AcDbLine
  8
0
 62
256
370
-1
  6
BYLAYER
 10
9.625
 20
13.75
 30
0.0
 11
9.625
 21
13.75
 31
0.0
  0
LINE
  5
368
100
AcDbEntity
100
AcDbLine
  8
0
 62
256
370
-1
  6
BYLAYER
 10
9.625
 20
13.2499999999999982
 30
0.0
 11
9.625
 21
13.2499999999999982
 31
0.0
  0
LINE
  5
369
100
AcDbEntity
100
AcDbLine
  8
0
 62
256
370
-1
  6
BYLAYER
 10
7.875
 20
13.125
 30
0.0
 11
5.4999999999999991
 21
13.125
 31
0.0
  0
LINE
  5
36A
100
AcDbEntity
100
AcDbLine
  8
0
 62
256
370
-1
  6
BYLAYER
 10
5.625
 20
13.7499999999999911
 30
0.0
 11
5.625
 21
13.7499999999999911
 31
0.0
  0
LINE
  5
36B
100
AcDbEntity
100
AcDbLine
  8
0
 62
256
370
-1
  6
BYLAYER
 10
7.875
 20
12.875
 30
0.0
 11
5.5
 21
12.875
 31
0.0
  0
LINE
  5
36C
100
AcDbEntity
100
AcDbLine
  8
0
 62
256
370
-1
  6
BYLAYER
 10
8.375
 20
12.875
 30
0.0
 11
9.5
 21
12.8749999999999982
 31
0.0
  0
ARC
  5
36D
100
AcDbEntity
  8
0
 62
256
370
-1
  6
BYLAYER
100
AcDbCircle
 10
9.5
 20
12.75
 30
0.0
 40
0.125
100
AcDbArc
 50
270.0
 51
0.0
  0
LINE
  5
36E
100
AcDbEntity
100
AcDbLine
  8
0
 62
256
370
-1
  6
BYLAYER
 10
8.375
 20
13.375
 30
0.0
 11
9.5
 21
13.375
 31
0.0
  0
LINE
  5
36F
100
AcDbEntity
100
AcDbLine
  8
0
 62
256
370
-1
  6
BYLAYER
 10
7.875
 20
13.3749999999999982
 30
0.0
 11
5.5000000000000009
 21
13.3749999999999947
 31
0.0
  0
ARC
  5
370
100
AcDbEntity
  8
0
 62
256
370
-1
  6
BYLAYER
100
AcDbCircle
 10
8.375
 20
12.75
 30
0.0
 40
0.125
100
AcDbArc
 50
180.0
 51
270.0
  0
ARC
  5
371
100
AcDbEntity
  8
0
 62
256
370
-1
  6
BYLAYER
100
AcDbCircle
 10
8.375
 20
12.75
 30
0.0
 40
0.125
100
AcDbArc
 50
90.0
 51
180.0
  0
LINE
  5
372
100
AcDbEntity
100
AcDbLine
  8
0
 62
256
370
-1
  6
BYLAYER
 10
9.5
 20
12.6249999999999982
 30
0.0
 11
8.375
 21
12.625
 31
0.0
  0
ARC
  5
373
100
AcDbEntity
  8
0
 62
256
370
-1
  6
BYLAYER
100
AcDbCircle
 10
9.5
 20
12.75
 30
0.0
 40
0.125
100
AcDbArc
 50
0.0
 51
90.0
  0
ARC
  5
374
100
AcDbEntity
  8
0
 62
256
370
-1
  6
BYLAYER
100
AcDbCircle
 10
10.125
 20
15.125
 30
0.0
 40
0.125
100
AcDbArc
 50
0.0
 51
90.0
  0
ARC
  5
375
100
AcDbEntity
  8
0
 62
256
370
-1
  6
BYLAYER
100
AcDbCircle
 10
10.0
 20
15.125
 30
0.0
 40
0.125
100
AcDbArc
 50
90.0
 51
180.0
  0
ARC
  5
376
100
AcDbEntity
  8
0
 62
256
370
-1
  6
BYLAYER
100
AcDbCircle
 10
10.0
 20
12.875
 30
0.0
 40
0.125
100
AcDbArc
 50
180.0
 51
270.0
  0
ARC
  5
377
100
AcDbEntity
  8
0
 62
256
370
-1
  6
BYLAYER
100
AcDbCircle
 10
10.125
 20
12.8750000000000036
 30
0.0
 40
0.125
100
AcDbArc
 50
270.0
 51
0.0
  0
ENDSEC
  0
SECTION
  2
OBJECTS
  0
DICTIONARY
  5
C
100
AcDbDictionary
280
0
281
1
  3
ACAD_GROUP
350
D
  3
ACAD_LAYOUT
350
1A
  3
ACAD_MLINESTYLE
350
17
  3
ACAD_PLOTSETTINGS
350
19
  3
ACAD_PLOTSTYLENAME
350
E
  3
AcDbVariableDictionary
350
378
  3
QCAD_OBJECTS
350
379
  0
DICTIONARY
  5
D
100
AcDbDictionary
280
0
281
1
  0
ACDBDICTIONARYWDFLT
  5
E
100
AcDbDictionary
281
1
  3
Normal
350
F
100
AcDbDictionaryWithDefault
340
F
  0
ACDBPLACEHOLDER
  5
F
  0
DICTIONARY
  5
17
100
AcDbDictionary
280
0
281
1
  3
Standard
350
18
  0
MLINESTYLE
  5
18
100
AcDbMlineStyle
  2
STANDARD
 70
0
  3

 62
256
 51
90.0
 52
90.0
 71
2
 49
0.5
 62
256
  6
BYLAYER
 49
-0.5
 62
256
  6
BYLAYER
  0
DICTIONARY
  5
19
100
AcDbDictionary
280
0
281
1
  0
DICTIONARY
  5
1A
100
AcDbDictionary
281
1
  3
Layout1
350
1E
  3
Layout2
350
26
  3
Model
350
22
  0
LAYOUT
  5
1E
100
AcDbPlotSettings
  1

  2
none_device
  4

  6

 40
0.0
 41
0.0
 42
0.0
 43
0.0
 44
0.0
 45
0.0
 46
0.0
 47
0.0
 48
0.0
 49
0.0
140
0.0
141
0.0
142
1.0
143
1.0
 70
688
 72
0
 73
0
 74
5
  7

 75
16
147
1.0
148
0.0
149
0.0
100
AcDbLayout
  1
Layout1
 70
1
 71
1
 10
0.0
 20
0.0
 11
420.0
 21
297.0
 12
0.0
 22
0.0
 32
0.0
 14
100000000000000000000.0
 24
100000000000000000000.0
 34
100000000000000000000.0
 15
-100000000000000000000.0
 25
-100000000000000000000.0
 35
-100000000000000000000.0
146
0.0
 13
0.0
 23
0.0
 33
0.0
 16
1.0
 26
0.0
 36
0.0
 17
0.0
 27
1.0
 37
0.0
 76
0
330
1B
  0
LAYOUT
  5
22
100
AcDbPlotSettings
  1

  2
none_device
  4

  6

 40
0.0
 41
0.0
 42
0.0
 43
0.0
 44
0.0
 45
0.0
 46
0.0
 47
0.0
 48
0.0
 49
0.0
140
0.0
141
0.0
142
1.0
143
1.0
 70
1712
 72
0
 73
0
 74
0
  7

 75
0
147
1.0
148
0.0
149
0.0
100
AcDbLayout
  1
Model
 70
1
 71
0
 10
0.0
 20
0.0
 11
12.0
 21
9.0
 12
0.0
 22
0.0
 32
0.0
 14
0.0
 24
0.0
 34
0.0
 15
0.0
 25
0.0
 35
0.0
146
0.0
 13
0.0
 23
0.0
 33
0.0
 16
1.0
 26
0.0
 36
0.0
 17
0.0
 27
1.0
 37
0.0
 76
0
330
1F
  0
LAYOUT
  5
26
100
AcDbPlotSettings
  1

  2
none_device
  4

  6

 40
0.0
 41
0.0
 42
0.0
 43
0.0
 44
0.0
 45
0.0
 46
0.0
 47
0.0
 48
0.0
 49
0.0
140
0.0
141
0.0
142
1.0
143
1.0
 70
688
 72
0
 73
0
 74
5
  7

 75
16
147
1.0
148
0.0
149
0.0
100
AcDbLayout
  1
Layout2
 70
1
 71
2
 10
0.0
 20
0.0
 11
12.0
 21
9.0
 12
0.0
 22
0.0
 32
0.0
 14
0.0
 24
0.0
 34
0.0
 15
0.0
 25
0.0
 35
0.0
146
0.0
 13
0.0
 23
0.0
 33
0.0
 16
1.0
 26
0.0
 36
0.0
 17
0.0
 27
1.0
 37
0.0
 76
0
330
23
  0
DICTIONARY
  5
378
100
AcDbDictionary
281
1
  3
DIMASSOC
350
37B
  3
HIDETEXT
350
37A
  0
DICTIONARYVAR
  5
37A
100
DictionaryVariables
280
0
  1
2
  0
DICTIONARYVAR
  5
37B
100
DictionaryVariables
280
0
  1
1
  0
DICTIONARY
  5
379
100
AcDbDictionary
281
1
  3
DimensionSettings/AngularFormat
350
37C
  3
DimensionSettings/AngularPrecision
350
37D
  3
DimensionSettings/KeepProportions
350
37E
  3
DimensionSettings/LinearFormat
350
37F
  3
DimensionSettings/LinearPrecision
350
380
  3
Grid/DisplayGrid00
350
381
  3
Grid/DisplayGrid01
350
382
  3
Grid/DisplayGrid02
350
383
  3
Grid/DisplayGrid03
350
384
  3
Grid/GridSpacingX00
350
385
  3
Grid/GridSpacingX01
350
386
  3
Grid/GridSpacingX02
350
387
  3
Grid/GridSpacingX03
350
388
  3
Grid/GridSpacingY00
350
389
  3
Grid/GridSpacingY01
350
38A
  3
Grid/GridSpacingY02
350
38B
  3
Grid/GridSpacingY03
350
38C
  3
Grid/IsometricGrid00
350
38D
  3
Grid/IsometricGrid01
350
38E
  3
Grid/IsometricGrid02
350
38F
  3
Grid/IsometricGrid03
350
390
  3
Grid/IsometricProjection00
350
391
  3
Grid/IsometricProjection01
350
392
  3
Grid/IsometricProjection02
350
393
  3
Grid/IsometricProjection03
350
394
  3
Grid/MetaGridSpacingX00
350
395
  3
Grid/MetaGridSpacingX01
350
396
  3
Grid/MetaGridSpacingX02
350
397
  3
Grid/MetaGridSpacingX03
350
398
  3
Grid/MetaGridSpacingY00
350
399
  3
Grid/MetaGridSpacingY01
350
39A
  3
Grid/MetaGridSpacingY02
350
39B
  3
Grid/MetaGridSpacingY03
350
39C
  3
MultiPageSettings/Columns
350
39D
  3
MultiPageSettings/GlueMarginsBottom
350
39E
  3
MultiPageSettings/GlueMarginsLeft
350
39F
  3
MultiPageSettings/GlueMarginsRight
350
3A0
  3
MultiPageSettings/GlueMarginsTop
350
3A1
  3
MultiPageSettings/PrintCropMarks
350
3A2
  3
MultiPageSettings/Rows
350
3A3
  3
PageSettings/OffsetX
350
3A4
  3
PageSettings/OffsetY
350
3A5
  3
PageSettings/PageOrientation
350
3A6
  3
PageSettings/PaperHeight
350
3A7
  3
PageSettings/PaperWidth
350
3A8
  3
PageSettings/Scale
350
3A9
  3
PageSettings/ShowPaperBorders
350
3AA
  3
UnitSettings/PaperUnit
350
3AB
  0
XRECORD
  5
37C
330
379
100
AcDbXrecord
280
1
 90
0
  0
XRECORD
  5
37D
330
379
100
AcDbXrecord
280
1
 90
0
  0
XRECORD
  5
37E
330
379
100
AcDbXrecord
280
1
290
1
  0
XRECORD
  5
37F
330
379
100
AcDbXrecord
280
1
 90
5
  0
XRECORD
  5
380
330
379
100
AcDbXrecord
280
1
 90
4
  0
XRECORD
  5
381
330
379
100
AcDbXrecord
280
1
290
1
  0
XRECORD
  5
382
330
379
100
AcDbXrecord
280
1
290
1
  0
XRECORD
  5
383
330
379
100
AcDbXrecord
280
1
290
1
  0
XRECORD
  5
384
330
379
100
AcDbXrecord
280
1
290
1
  0
XRECORD
  5
385
330
379
100
AcDbXrecord
280
1
1000
auto
  0
XRECORD
  5
386
330
379
100
AcDbXrecord
280
1
1000
auto
  0
XRECORD
  5
387
330
379
100
AcDbXrecord
280
1
1000
auto
  0
XRECORD
  5
388
330
379
100
AcDbXrecord
280
1
1000
auto
  0
XRECORD
  5
389
330
379
100
AcDbXrecord
280
1
1000
auto
  0
XRECORD
  5
38A
330
379
100
AcDbXrecord
280
1
1000
auto
  0
XRECORD
  5
38B
330
379
100
AcDbXrecord
280
1
1000
auto
  0
XRECORD
  5
38C
330
379
100
AcDbXrecord
280
1
1000
auto
  0
XRECORD
  5
38D
330
379
100
AcDbXrecord
280
1
290
0
  0
XRECORD
  5
38E
330
379
100
AcDbXrecord
280
1
290
0
  0
XRECORD
  5
38F
330
379
100
AcDbXrecord
280
1
290
0
  0
XRECORD
  5
390
330
379
100
AcDbXrecord
280
1
290
0
  0
XRECORD
  5
391
330
379
100
AcDbXrecord
280
1
 90
0
  0
XRECORD
  5
392
330
379
100
AcDbXrecord
280
1
 90
0
  0
XRECORD
  5
393
330
379
100
AcDbXrecord
280
1
 90
0
  0
XRECORD
  5
394
330
379
100
AcDbXrecord
280
1
 90
0
  0
XRECORD
  5
395
330
379
100
AcDbXrecord
280
1
1000
auto
  0
XRECORD
  5
396
330
379
100
AcDbXrecord
280
1
1000
auto
  0
XRECORD
  5
397
330
379
100
AcDbXrecord
280
1
1000
auto
  0
XRECORD
  5
398
330
379
100
AcDbXrecord
280
1
1000
auto
  0
XRECORD
  5
399
330
379
100
AcDbXrecord
280
1
1000
auto
  0
XRECORD
  5
39A
330
379
100
AcDbXrecord
280
1
1000
auto
  0
XRECORD
  5
39B
330
379
100
AcDbXrecord
280
1
1000
auto
  0
XRECORD
  5
39C
330
379
100
AcDbXrecord
280
1
1000
auto
  0
XRECORD
  5
39D
330
379
100
AcDbXrecord
280
1
 90
1
  0
XRECORD
  5
39E
330
379
100
AcDbXrecord
280
1
 40
10.0
  0
XRECORD
  5
39F
330
379
100
AcDbXrecord
280
1
 40
10.0
  0
XRECORD
  5
3A0
330
379
100
AcDbXrecord
280
1
 40
10.0
  0
XRECORD
  5
3A1
330
379
100
AcDbXrecord
280
1
 40
10.0
  0
XRECORD
  5
3A2
330
379
100
AcDbXrecord
280
1
290
0
  0
XRECORD
  5
3A3
330
379
100
AcDbXrecord
280
1
 90
1
  0
XRECORD
  5
3A4
330
379
100
AcDbXrecord
280
1
 40
0.0
  0
XRECORD
  5
3A5
330
379
100
AcDbXrecord
280
1
 40
0.0
  0
XRECORD
  5
3A6
330
379
100
AcDbXrecord
280
1
1000
Portrait
  0
XRECORD
  5
3A7
330
379
100
AcDbXrecord
280
1
 40
279.3999999999999773
  0
XRECORD
  5
3A8
330
379
100
AcDbXrecord
280
1
 40
215.9000000000000057
  0
XRECORD
  5
3A9
330
379
100
AcDbXrecord
280
1
1000
1:1
  0
XRECORD
  5
3AA
330
379
100
AcDbXrecord
280
1
290
1
  0
XRECORD
  5
3AB
330
379
100
AcDbXrecord
280
1
 90
1
  0
ENDSEC
  0
EOF
