999
dxflib 3.3.4.0
  0
SECTION
  2
HEADER
  9
$ACADVER
  1
AC1015
  9
$HANDSEED
  5
FFFF
  9
$DIMADEC
 70
0
  9
$DIMASZ
 40
2.5
  9
$DIMAUNIT
 70
0
  9
$DIMAZIN
 70
2
  9
$DIMDEC
 70
4
  9
$DIMEXE
 40
1.25
  9
$DIMEXO
 40
0.625
  9
$DIMGAP
 40
0.625
  9
$DIMLUNIT
 70
2
  9
$DIMTSZ
 40
0.0
  9
$DIMTXT
 40
2.5
  9
$DIMZIN
 70
8
  9
$DWGCODEPAGE
  3
ANSI_1252
  9
$INSUNITS
 70
4
  9
$LTSCALE
 40
1.0
  0
ENDSEC
  0
SECTION
  2
TABLES
  0
TABLE
  2
VPORT
  5
8
100
AcDbSymbolTable
 70
1
  0
VPORT
  5
30
100
AcDbSymbolTableRecord
100
AcDbViewportTableRecord
  2
*Active
 70
0
 10
0.0
 20
0.0
 11
1.0
 21
1.0
 12
286.3055555555554861
 22
148.5
 13
0.0
 23
0.0
 14
10.0
 24
10.0
 15
10.0
 25
10.0
 16
0.0
 26
0.0
 36
1.0
 17
0.0
 27
0.0
 37
0.0
 40
297.0
 41
1.92798353909465
 42
50.0
 43
0.0
 44
0.0
 50
0.0
 51
0.0
 71
0
 72
100
 73
1
 74
3
 75
1
 76
1
 77
0
 78
0
281
0
 65
1
110
0.0
120
0.0
130
0.0
111
1.0
121
0.0
131
0.0
112
0.0
122
1.0
132
0.0
 79
0
146
0.0
  0
ENDTAB
  0
TABLE
  2
LTYPE
  5
5
100
AcDbSymbolTable
 70
21
  0
LTYPE
  5
16
100
AcDbSymbolTableRecord
100
AcDbLinetypeTableRecord
  2
CONTINUOUS
 70
0
  3
Solid line
 72
65
 73
0
 40
0.0
  0
LTYPE
  5
31
100
AcDbSymbolTableRecord
100
AcDbLinetypeTableRecord
  2
CENTER2
 70
0
  3
Center (.5x) ___ _ ___ _ ___ _ ___ _ ___ _ ___
 72
65
 73
4
 40
28.5749999999999993
 49
19.0500000000000007
 74
0
 49
-3.1749999999999998
 74
0
 49
3.1749999999999998
 74
0
 49
-3.1749999999999998
 74
0
  0
LTYPE
  5
32
100
AcDbSymbolTableRecord
100
AcDbLinetypeTableRecord
  2
DIVIDEX2
 70
0
  3
Divide (2x) ________  .  .  ________  .  .  _
 72
65
 73
6
 40
63.5
 49
25.3999999999999986
 74
0
 49
-12.6999999999999993
 74
0
 49
0.0
 74
0
 49
-12.6999999999999993
 74
0
 49
0.0
 74
0
 49
-12.6999999999999993
 74
0
  0
LTYPE
  5
33
100
AcDbSymbolTableRecord
100
AcDbLinetypeTableRecord
  2
DOT2
 70
0
  3
Dot (.5x) .....................................
 72
65
 73
2
 40
3.1749999999999998
 49
0.0
 74
0
 49
-3.1749999999999998
 74
0
  0
LTYPE
  5
34
100
AcDbSymbolTableRecord
100
AcDbLinetypeTableRecord
  2
DASHDOT2
 70
0
  3
Dash dot (.5x) _._._._._._._._._._._._._._._.
 72
65
 73
4
 40
12.6999999999999993
 49
6.3499999999999996
 74
0
 49
-3.1749999999999998
 74
0
 49
0.0
 74
0
 49
-3.1749999999999998
 74
0
  0
LTYPE
  5
35
100
AcDbSymbolTableRecord
100
AcDbLinetypeTableRecord
  2
DIVIDE
 70
0
  3
Divide ____ . . ____ . . ____ . . ____ . . ____
 72
65
 73
6
 40
31.75
 49
12.6999999999999993
 74
0
 49
-6.3499999999999996
 74
0
 49
0.0
 74
0
 49
-6.3499999999999996
 74
0
 49
0.0
 74
0
 49
-6.3499999999999996
 74
0
  0
LTYPE
  5
36
100
AcDbSymbolTableRecord
100
AcDbLinetypeTableRecord
  2
DASHDOT
 70
0
  3
Dash dot __ . __ . __ . __ . __ . __ . __ . __
 72
65
 73
4
 40
25.3999999999999986
 49
12.6999999999999993
 74
0
 49
-6.3499999999999996
 74
0
 49
0.0
 74
0
 49
-6.3499999999999996
 74
0
  0
LTYPE
  5
37
100
AcDbSymbolTableRecord
100
AcDbLinetypeTableRecord
  2
BORDER
 70
0
  3
Border __ __ . __ __ . __ __ . __ __ . __ __ .
 72
65
 73
6
 40
44.4500000000000028
 49
12.6999999999999993
 74
0
 49
-6.3499999999999996
 74
0
 49
12.6999999999999993
 74
0
 49
-6.3499999999999996
 74
0
 49
0.0
 74
0
 49
-6.3499999999999996
 74
0
  0
LTYPE
  5
38
100
AcDbSymbolTableRecord
100
AcDbLinetypeTableRecord
  2
DASHDOTX2
 70
0
  3
Dash dot (2x) ____  .  ____  .  ____  .  ___
 72
65
 73
4
 40
50.7999999999999972
 49
25.3999999999999986
 74
0
 49
-12.6999999999999993
 74
0
 49
0.0
 74
0
 49
-12.6999999999999993
 74
0
  0
LTYPE
  5
39
100
AcDbSymbolTableRecord
100
AcDbLinetypeTableRecord
  2
CENTERX2
 70
0
  3
Center (2x) ________  __  ________  __  _____
 72
65
 73
4
 40
101.5999999999999943
 49
63.5
 74
0
 49
-12.6999999999999993
 74
0
 49
12.6999999999999993
 74
0
 49
-12.6999999999999993
 74
0
  0
LTYPE
  5
3A
100
AcDbSymbolTableRecord
100
AcDbLinetypeTableRecord
  2
BORDER2
 70
0
  3
Border (.5x) __.__.__.__.__.__.__.__.__.__.__.
 72
65
 73
6
 40
22.2250000000000014
 49
6.3499999999999996
 74
0
 49
-3.1749999999999998
 74
0
 49
6.3499999999999996
 74
0
 49
-3.1749999999999998
 74
0
 49
0.0
 74
0
 49
-3.1749999999999998
 74
0
  0
LTYPE
  5
3B
100
AcDbSymbolTableRecord
100
AcDbLinetypeTableRecord
  2
BORDERX2
 70
0
  3
Border (2x) ____  ____  .  ____  ____  .  ___
 72
65
 73
6
 40
88.9000000000000057
 49
25.3999999999999986
 74
0
 49
-12.6999999999999993
 74
0
 49
25.3999999999999986
 74
0
 49
-12.6999999999999993
 74
0
 49
0.0
 74
0
 49
-12.6999999999999993
 74
0
  0
LTYPE
  5
14
100
AcDbSymbolTableRecord
100
AcDbLinetypeTableRecord
  2
BYBLOCK
 70
0
  3

 72
65
 73
0
 40
0.0
  0
LTYPE
  5
15
100
AcDbSymbolTableRecord
100
AcDbLinetypeTableRecord
  2
BYLAYER
 70
0
  3

 72
65
 73
0
 40
0.0
  0
LTYPE
  5
3C
100
AcDbSymbolTableRecord
100
AcDbLinetypeTableRecord
  2
DASHED2
 70
0
  3
Dashed (.5x) _ _ _ _ _ _ _ _ _ _ _ _ _ _ _ _ _
 72
65
 73
2
 40
9.5250000000000004
 49
6.3499999999999996
 74
0
 49
-3.1749999999999998
 74
0
  0
LTYPE
  5
3D
100
AcDbSymbolTableRecord
100
AcDbLinetypeTableRecord
  2
CENTER
 70
0
  3
Center ____ _ ____ _ ____ _ ____ _ ____ _ ____
 72
65
 73
4
 40
50.7999999999999972
 49
31.75
 74
0
 49
-6.3499999999999996
 74
0
 49
6.3499999999999996
 74
0
 49
-6.3499999999999996
 74
0
  0
LTYPE
  5
3E
100
AcDbSymbolTableRecord
100
AcDbLinetypeTableRecord
  2
DIVIDE2
 70
0
  3
Divide (.5x) __..__..__..__..__..__..__..__.._
 72
65
 73
6
 40
15.875
 49
6.3499999999999996
 74
0
 49
-3.1749999999999998
 74
0
 49
0.0
 74
0
 49
-3.1749999999999998
 74
0
 49
0.0
 74
0
 49
-3.1749999999999998
 74
0
  0
LTYPE
  5
3F
100
AcDbSymbolTableRecord
100
AcDbLinetypeTableRecord
  2
DASHED
 70
0
  3
Dashed __ __ __ __ __ __ __ __ __ __ __ __ __ _
 72
65
 73
2
 40
19.0500000000000007
 49
12.6999999999999993
 74
0
 49
-6.3499999999999996
 74
0
  0
LTYPE
  5
40
100
AcDbSymbolTableRecord
100
AcDbLinetypeTableRecord
  2
DOTX2
 70
0
  3
Dot (2x) .  .  .  .  .  .  .  .  .  .  .  .  .
 72
65
 73
2
 40
12.6999999999999993
 49
0.0
 74
0
 49
-12.6999999999999993
 74
0
  0
LTYPE
  5
41
100
AcDbSymbolTableRecord
100
AcDbLinetypeTableRecord
  2
DASHEDX2
 70
0
  3
Dashed (2x) ____  ____  ____  ____  ____  ___
 72
65
 73
2
 40
38.1000000000000014
 49
25.3999999999999986
 74
0
 49
-12.6999999999999993
 74
0
  0
LTYPE
  5
42
100
AcDbSymbolTableRecord
100
AcDbLinetypeTableRecord
  2
DOT
 70
0
  3
Dot . . . . . . . . . . . . . . . . . . . . . .
 72
65
 73
2
 40
6.3499999999999996
 49
0.0
 74
0
 49
-6.3499999999999996
 74
0
  0
ENDTAB
  0
TABLE
  2
LAYER
  5
2
100
AcDbSymbolTable
 70
1
  0
LAYER
  5
10
100
AcDbSymbolTableRecord
100
AcDbLayerTableRecord
  2
0
 70
0
 62
7
420
0
  6
CONTINUOUS
370
25
390
F
  0
ENDTAB
  0
TABLE
  2
STYLE
  5
3
100
AcDbSymbolTable
 70
1
  0
STYLE
  5
43
100
AcDbSymbolTableRecord
100
AcDbTextStyleTableRecord
  2
Standard
 70
0
 40
0.0
 41
1.0
 50
0.0
 71
0
 42
2.5
  3

  4

1001
ACAD
1000
txt
1071
0
  0
ENDTAB
  0
TABLE
  2
VIEW
  5
6
100
AcDbSymbolTable
 70
0
  0
ENDTAB
  0
TABLE
  2
UCS
  5
7
100
AcDbSymbolTable
 70
0
  0
ENDTAB
  0
TABLE
  2
APPID
  5
9
100
AcDbSymbolTable
 70
1
  0
APPID
  5
12
100
AcDbSymbolTableRecord
100
AcDbRegAppTableRecord
  2
ACAD
 70
0
  0
APPID
  5
44
100
AcDbSymbolTableRecord
100
AcDbRegAppTableRecord
  2
QCAD
 70
0
  0
ENDTAB
  0
TABLE
  2
DIMSTYLE
  5
A
100
AcDbSymbolTable
 70
1
100
AcDbDimStyleTable
 71
0
  0
DIMSTYLE
105
27
100
AcDbSymbolTableRecord
100
AcDbDimStyleTableRecord
  2
Standard
 41
2.5
 42
0.625
 43
3.75
 44
1.25
 70
0
 73
0
 74
0
 77
1
 78
8
140
2.5
141
2.5
143
0.03937007874016
147
0.625
171
3
172
1
271
2
272
2
274
3
278
44
283
0
284
8
340
43
  0
ENDTAB
  0
TABLE
  2
BLOCK_RECORD
  5
1
100
AcDbSymbolTable
 70
1
  0
BLOCK_RECORD
  5
1F
100
AcDbSymbolTableRecord
100
AcDbBlockTableRecord
  2
*Model_Space
340
22
  0
BLOCK_RECORD
  5
1B
100
AcDbSymbolTableRecord
100
AcDbBlockTableRecord
  2
*Paper_Space
340
1E
  0
BLOCK_RECORD
  5
23
100
AcDbSymbolTableRecord
100
AcDbBlockTableRecord
  2
*Paper_Space0
340
26
  0
BLOCK_RECORD
  5
45
100
AcDbSymbolTableRecord
100
AcDbBlockTableRecord
  2
leg_top
340
0
  0
BLOCK_RECORD
  5
46
100
AcDbSymbolTableRecord
100
AcDbBlockTableRecord
  2
leg_side
340
0
  0
ENDTAB
  0
ENDSEC
  0
SECTION
  2
BLOCKS
  0
BLOCK
  5
20
100
AcDbEntity
  8
0
100
AcDbBlockBegin
  2
*Model_Space
 70
0
 10
0.0
 20
0.0
 30
0.0
  3
*Model_Space
  1

  0
ENDBLK
  5
21
100
AcDbEntity
  8
0
100
AcDbBlockEnd
  0
BLOCK
  5
1C
100
AcDbEntity
 67
1
  8
0
100
AcDbBlockBegin
  2
*Paper_Space
 70
0
 10
0.0
 20
0.0
 30
0.0
  3
*Paper_Space
  1

  0
ENDBLK
  5
1D
100
AcDbEntity
 67
1
  8
0
100
AcDbBlockEnd
  0
BLOCK
  5
24
100
AcDbEntity
  8
0
100
AcDbBlockBegin
  2
*Paper_Space0
 70
0
 10
0.0
 20
0.0
 30
0.0
  3
*Paper_Space0
  1

  0
ENDBLK
  5
25
100
AcDbEntity
  8
0
100
AcDbBlockEnd
  0
BLOCK
  5
47
100
AcDbEntity
  8
0
100
AcDbBlockBegin
  2
leg_top
 70
0
 10
0.0
 20
0.0
 30
0.0
  3
leg_top
  1

  0
LINE
  5
48
100
AcDbEntity
100
AcDbLine
  8
0
 62
256
370
-1
  6
BYLAYER
 10
86.5
 20
-4.0
 30
0.0
 11
86.5
 21
15.0
 31
0.0
  0
LINE
  5
49
100
AcDbEntity
100
AcDbLine
  8
0
 62
256
370
-1
  6
BYLAYER
 10
88.5
 20
-4.0
 30
0.0
 11
88.5
 21
-6.0
 31
0.0
  0
LINE
  5
4A
100
AcDbEntity
100
AcDbLine
  8
0
 62
256
370
-1
  6
BYLAYER
 10
88.5
 20
-6.0
 30
0.0
 11
78.5
 21
-6.0
 31
0.0
  0
LINE
  5
4B
100
AcDbEntity
100
AcDbLine
  8
0
 62
256
370
-1
  6
BYLAYER
 10
78.5
 20
-6.0
 30
0.0
 11
78.5
 21
-4.0
 31
0.0
  0
LINE
  5
4C
100
AcDbEntity
100
AcDbLine
  8
0
 62
256
370
-1
  6
BYLAYER
 10
78.5
 20
-4.0
 30
0.0
 11
88.5
 21
-4.0
 31
0.0
  0
LINE
  5
4D
100
AcDbEntity
100
AcDbLine
  8
0
 62
256
370
-1
  6
BYLAYER
 10
80.5
 20
-7.0
 30
0.0
 11
80.5
 21
-6.0
 31
0.0
  0
LINE
  5
4E
100
AcDbEntity
100
AcDbLine
  8
0
 62
256
370
-1
  6
BYLAYER
 10
-5.0
 20
-4.0
 30
0.0
 11
-5.0
 21
15.0
 31
0.0
  0
LINE
  5
4F
100
AcDbEntity
100
AcDbLine
  8
0
 62
256
370
-1
  6
BYLAYER
 10
17.5
 20
3.0
 30
0.0
 11
40.5
 21
3.0
 31
0.0
  0
LINE
  5
50
100
AcDbEntity
100
AcDbLine
  8
0
 62
256
370
-1
  6
BYLAYER
 10
40.5
 20
3.0
 30
0.0
 11
40.5
 21
15.0
 31
0.0
  0
LINE
  5
51
100
AcDbEntity
100
AcDbLine
  8
0
 62
256
370
-1
  6
BYLAYER
 10
40.5
 20
15.0
 30
0.0
 11
17.5
 21
15.0
 31
0.0
  0
LINE
  5
52
100
AcDbEntity
100
AcDbLine
  8
0
 62
256
370
-1
  6
BYLAYER
 10
17.5
 20
15.0
 30
0.0
 11
17.5
 21
3.0
 31
0.0
  0
LINE
  5
53
100
AcDbEntity
100
AcDbLine
  8
0
 62
256
370
-1
  6
BYLAYER
 10
13.0
 20
4.0
 30
0.0
 11
17.5
 21
4.0
 31
0.0
  0
LINE
  5
54
100
AcDbEntity
100
AcDbLine
  8
0
 62
256
370
-1
  6
BYLAYER
 10
17.5
 20
4.0
 30
0.0
 11
17.5
 21
14.0
 31
0.0
  0
LINE
  5
55
100
AcDbEntity
100
AcDbLine
  8
0
 62
256
370
-1
  6
BYLAYER
 10
17.5
 20
14.0
 30
0.0
 11
13.0
 21
14.0
 31
0.0
  0
LINE
  5
56
100
AcDbEntity
100
AcDbLine
  8
0
 62
256
370
-1
  6
BYLAYER
 10
13.0
 20
14.0
 30
0.0
 11
13.0
 21
4.0
 31
0.0
  0
LINE
  5
57
100
AcDbEntity
100
AcDbLine
  8
0
 62
256
370
-1
  6
BYLAYER
 10
40.5
 20
4.0
 30
0.0
 11
45.0
 21
4.0
 31
0.0
  0
LINE
  5
58
100
AcDbEntity
100
AcDbLine
  8
0
 62
256
370
-1
  6
BYLAYER
 10
45.0
 20
4.0
 30
0.0
 11
45.0
 21
14.0
 31
0.0
  0
LINE
  5
59
100
AcDbEntity
100
AcDbLine
  8
0
 62
256
370
-1
  6
BYLAYER
 10
45.0
 20
14.0
 30
0.0
 11
40.5
 21
14.0
 31
0.0
  0
LINE
  5
5A
100
AcDbEntity
100
AcDbLine
  8
0
 62
256
370
-1
  6
BYLAYER
 10
40.5
 20
14.0
 30
0.0
 11
40.5
 21
4.0
 31
0.0
  0
CIRCLE
  5
5B
100
AcDbEntity
100
AcDbCircle
  8
0
 62
256
370
-1
  6
BYLAYER
 10
14.0
 20
8.9999999999999716
 30
0.0
 40
1.0
  0
CIRCLE
  5
5C
100
AcDbEntity
100
AcDbCircle
  8
0
 62
256
370
-1
  6
BYLAYER
 10
44.0
 20
8.9999999999999716
 30
0.0
 40
1.0
  0
CIRCLE
  5
5D
100
AcDbEntity
100
AcDbCircle
  8
0
 62
256
370
-1
  6
DOT
 10
24.5
 20
9.0
 30
0.0
 40
5.0
  0
CIRCLE
  5
5E
100
AcDbEntity
100
AcDbCircle
  8
0
 62
256
370
-1
  6
BYLAYER
 10
24.5
 20
9.0
 30
0.0
 40
2.0
  0
CIRCLE
  5
5F
100
AcDbEntity
100
AcDbCircle
  8
0
 62
256
370
-1
  6
BYLAYER
 10
24.5
 20
9.0
 30
0.0
 40
10.0
  0
LINE
  5
60
100
AcDbEntity
100
AcDbLine
  8
0
 62
256
370
-1
  6
BYLAYER
 10
49.5000000000000284
 20
-8.0
 30
0.0
 11
57.5000000000000284
 21
-8.0
 31
0.0
  0
LINE
  5
61
100
AcDbEntity
100
AcDbLine
  8
0
 62
256
370
-1
  6
BYLAYER
 10
57.5000000000000284
 20
-8.0
 30
0.0
 11
57.5000000000000284
 21
-6.0
 31
0.0
  0
LINE
  5
62
100
AcDbEntity
100
AcDbLine
  8
0
 62
256
370
-1
  6
BYLAYER
 10
52.5000000000000284
 20
-8.0
 30
0.0
 11
52.5000000000000284
 21
-11.0
 31
0.0
  0
LINE
  5
63
100
AcDbEntity
100
AcDbLine
  8
0
 62
256
370
-1
  6
BYLAYER
 10
52.5000000000000284
 20
-11.0
 30
0.0
 11
54.5000000000000284
 21
-11.0
 31
0.0
  0
LINE
  5
64
100
AcDbEntity
100
AcDbLine
  8
0
 62
256
370
-1
  6
BYLAYER
 10
54.5000000000000284
 20
-11.0
 30
0.0
 11
54.5000000000000284
 21
-8.0
 31
0.0
  0
LINE
  5
65
100
AcDbEntity
100
AcDbLine
  8
0
 62
256
370
-1
  6
BYLAYER
 10
69.5000000000000284
 20
15.0
 30
0.0
 11
46.5000000000000284
 21
15.0
 31
0.0
  0
LINE
  5
66
100
AcDbEntity
100
AcDbLine
  8
0
 62
256
370
-1
  6
BYLAYER
 10
46.5000000000000284
 20
-4.0
 30
0.0
 11
69.5000000000000284
 21
-4.0
 31
0.0
  0
LINE
  5
67
100
AcDbEntity
100
AcDbLine
  8
0
 62
256
370
-1
  6
BYLAYER
 10
42.0000000000000284
 20
-4.0
 30
0.0
 11
46.5000000000000284
 21
-4.0
 31
0.0
  0
LINE
  5
68
100
AcDbEntity
100
AcDbLine
  8
0
 62
256
370
-1
  6
BYLAYER
 10
46.5000000000000284
 20
-4.0
 30
0.0
 11
46.5000000000000284
 21
-5.0
 31
0.0
  0
LINE
  5
69
100
AcDbEntity
100
AcDbLine
  8
0
 62
256
370
-1
  6
BYLAYER
 10
46.5000000000000284
 20
-5.0
 30
0.0
 11
42.0000000000000284
 21
-5.0
 31
0.0
  0
LINE
  5
6A
100
AcDbEntity
100
AcDbLine
  8
0
 62
256
370
-1
  6
BYLAYER
 10
42.0000000000000284
 20
-5.0
 30
0.0
 11
42.0000000000000284
 21
-4.0
 31
0.0
  0
LINE
  5
6B
100
AcDbEntity
100
AcDbLine
  8
0
 62
256
370
-1
  6
BYLAYER
 10
69.5000000000000284
 20
-4.0
 30
0.0
 11
74.0000000000000284
 21
-4.0
 31
0.0
  0
LINE
  5
6C
100
AcDbEntity
100
AcDbLine
  8
0
 62
256
370
-1
  6
BYLAYER
 10
74.0000000000000284
 20
-4.0
 30
0.0
 11
74.0000000000000284
 21
-5.0
 31
0.0
  0
LINE
  5
6D
100
AcDbEntity
100
AcDbLine
  8
0
 62
256
370
-1
  6
BYLAYER
 10
74.0000000000000284
 20
-5.0
 30
0.0
 11
69.5000000000000284
 21
-5.0
 31
0.0
  0
LINE
  5
6E
100
AcDbEntity
100
AcDbLine
  8
0
 62
256
370
-1
  6
BYLAYER
 10
69.5000000000000284
 20
-5.0
 30
0.0
 11
69.5000000000000284
 21
-4.0
 31
0.0
  0
LINE
  5
6F
100
AcDbEntity
100
AcDbLine
  8
0
 62
256
370
-1
  6
BYLAYER
 10
46.5000000000000284
 20
-5.0
 30
0.0
 11
46.5000000000000284
 21
-6.0
 31
0.0
  0
LINE
  5
70
100
AcDbEntity
100
AcDbLine
  8
0
 62
256
370
-1
  6
BYLAYER
 10
46.5000000000000284
 20
-6.0
 30
0.0
 11
69.5000000000000284
 21
-6.0
 31
0.0
  0
LINE
  5
71
100
AcDbEntity
100
AcDbLine
  8
0
 62
256
370
-1
  6
BYLAYER
 10
69.5000000000000284
 20
-6.0
 30
0.0
 11
69.5000000000000284
 21
-5.0
 31
0.0
  0
LINE
  5
72
100
AcDbEntity
100
AcDbLine
  8
0
 62
256
370
-1
  6
BYLAYER
 10
49.5000000000000284
 20
-6.0
 30
0.0
 11
49.5000000000000284
 21
-8.0
 31
0.0
  0
LINE
  5
73
100
AcDbEntity
100
AcDbLine
  8
0
 62
256
370
-1
  6
BYLAYER
 10
43.5000000000000284
 20
-11.0
 30
0.0
 11
63.5000000000000284
 21
-11.0
 31
0.0
  0
LINE
  5
74
100
AcDbEntity
100
AcDbLine
  8
0
 62
256
370
-1
  6
DOT
 10
69.5000000000000284
 20
15.0
 30
0.0
 11
69.5000000000000284
 21
-4.0
 31
0.0
  0
LINE
  5
75
100
AcDbEntity
100
AcDbLine
  8
0
 62
256
370
-1
  6
BYLAYER
 10
63.5000000000000284
 20
-11.0
 30
0.0
 11
63.5000000000000284
 21
-12.0
 31
0.0
  0
LINE
  5
76
100
AcDbEntity
100
AcDbLine
  8
0
 62
256
370
-1
  6
DOT
 10
46.5000000000000284
 20
-4.0
 30
0.0
 11
46.5000000000000284
 21
15.0
 31
0.0
  0
LINE
  5
77
100
AcDbEntity
100
AcDbLine
  8
0
 62
256
370
-1
  6
BYLAYER
 10
63.5000000000000284
 20
-12.0
 30
0.0
 11
43.5000000000000284
 21
-12.0
 31
0.0
  0
LINE
  5
78
100
AcDbEntity
100
AcDbLine
  8
0
 62
256
370
-1
  6
BYLAYER
 10
43.5000000000000284
 20
-12.0
 30
0.0
 11
43.5000000000000284
 21
-11.0
 31
0.0
  0
LINE
  5
79
100
AcDbEntity
100
AcDbLine
  8
0
 62
256
370
-1
  6
BYLAYER
 10
56.5
 20
-11.0
 30
0.0
 11
56.5
 21
-10.0
 31
0.0
  0
LINE
  5
7A
100
AcDbEntity
100
AcDbLine
  8
0
 62
256
370
-1
  6
BYLAYER
 10
56.5
 20
-10.0
 30
0.0
 11
80.5
 21
-7.0
 31
0.0
  0
CIRCLE
  5
7B
100
AcDbEntity
100
AcDbCircle
  8
0
 62
256
370
-1
  6
BYLAYER
 10
0.0
 20
0.0
 30
0.0
 40
1.0
  0
CIRCLE
  5
7C
100
AcDbEntity
100
AcDbCircle
  8
0
 62
256
370
-1
  6
BYLAYER
 10
29.4999999999999929
 20
1.9999999999999998
 30
0.0
 40
0.5
  0
LINE
  5
7D
100
AcDbEntity
100
AcDbLine
  8
0
 62
256
370
-1
  6
BYLAYER
 10
-5.0
 20
15.0
 30
0.0
 11
86.5
 21
15.0
 31
0.0
  0
LINE
  5
7E
100
AcDbEntity
100
AcDbLine
  8
0
 62
256
370
-1
  6
BYLAYER
 10
86.5
 20
-4.0
 30
0.0
 11
-5.0
 21
-4.0
 31
0.0
  0
ENDBLK
  5
7F
100
AcDbEntity
  8
0
100
AcDbBlockEnd
  0
BLOCK
  5
80
100
AcDbEntity
  8
0
100
AcDbBlockBegin
  2
leg_side
 70
0
 10
0.0
 20
0.0
 30
0.0
  3
leg_side
  1

  0
LINE
  5
81
100
AcDbEntity
100
AcDbLine
  8
0
 62
256
370
-1
  6
BYLAYER
 10
-13.5
 20
-17.0
 30
0.0
 11
-11.5
 21
-17.0
 31
0.0
  0
LINE
  5
82
100
AcDbEntity
100
AcDbLine
  8
0
 62
256
370
-1
  6
BYLAYER
 10
-11.5
 20
-17.0
 30
0.0
 11
-11.5
 21
5.0
 31
0.0
  0
LINE
  5
83
100
AcDbEntity
100
AcDbLine
  8
0
 62
256
370
-1
  6
BYLAYER
 10
-19.5
 20
33.0
 30
0.0
 11
-21.5
 21
33.0
 31
0.0
  0
LINE
  5
84
100
AcDbEntity
100
AcDbLine
  8
0
 62
256
370
-1
  6
BYLAYER
 10
-21.5
 20
33.0
 30
0.0
 11
-21.5
 21
-1.0000000000000004
 31
0.0
  0
LINE
  5
85
100
AcDbEntity
100
AcDbLine
  8
0
 62
256
370
-1
  6
BYLAYER
 10
-13.5
 20
-10.0
 30
0.0
 11
-13.5
 21
2.9999999999999996
 31
0.0
  0
CIRCLE
  5
86
100
AcDbEntity
100
AcDbCircle
  8
0
 62
256
370
-1
  6
BYLAYER
 10
-16.5
 20
-0.0000000000000004
 30
0.0
 40
1.0
  0
LINE
  5
87
100
AcDbEntity
100
AcDbLine
  8
0
 62
256
370
-1
  6
BYLAYER
 10
-13.5
 20
-17.0
 30
0.0
 11
-21.5
 21
-1.0000000000000004
 31
0.0
  0
LINE
  5
88
100
AcDbEntity
100
AcDbLine
  8
0
 62
256
370
-1
  6
BYLAYER
 10
-19.5
 20
33.0
 30
0.0
 11
-11.5
 21
5.0
 31
0.0
  0
CIRCLE
  5
89
100
AcDbEntity
100
AcDbCircle
  8
0
 62
256
370
-1
  6
BYLAYER
 10
-20.0
 20
29.9999999999999716
 30
0.0
 40
0.5
  0
LINE
  5
8A
100
AcDbEntity
100
AcDbLine
  8
0
 62
256
370
-1
  6
BYLAYER
 10
-105.0
 20
-10.0
 30
0.0
 11
-105.0
 21
3.0
 31
0.0
  0
LINE
  5
8B
100
AcDbEntity
100
AcDbLine
  8
0
 62
256
370
-1
  6
BYLAYER
 10
-59.5
 20
-16.0
 30
0.0
 11
-82.5
 21
-16.0
 31
0.0
  0
LINE
  5
8C
100
AcDbEntity
100
AcDbLine
  8
0
 62
256
370
-1
  6
BYLAYER
 10
-82.5
 20
2.9999999999999996
 30
0.0
 11
-59.5
 21
2.9999999999999996
 31
0.0
  0
LINE
  5
8D
100
AcDbEntity
100
AcDbLine
  8
0
 62
256
370
-1
  6
BYLAYER
 10
-87.0
 20
2.9999999999999996
 30
0.0
 11
-82.5
 21
2.9999999999999996
 31
0.0
  0
LINE
  5
8E
100
AcDbEntity
100
AcDbLine
  8
0
 62
256
370
-1
  6
BYLAYER
 10
-82.5
 20
2.9999999999999996
 30
0.0
 11
-82.5
 21
3.9999999999999996
 31
0.0
  0
LINE
  5
8F
100
AcDbEntity
100
AcDbLine
  8
0
 62
256
370
-1
  6
BYLAYER
 10
-82.5
 20
3.9999999999999996
 30
0.0
 11
-87.0
 21
3.9999999999999996
 31
0.0
  0
LINE
  5
90
100
AcDbEntity
100
AcDbLine
  8
0
 62
256
370
-1
  6
BYLAYER
 10
-87.0
 20
3.9999999999999996
 30
0.0
 11
-87.0
 21
2.9999999999999996
 31
0.0
  0
LINE
  5
91
100
AcDbEntity
100
AcDbLine
  8
0
 62
256
370
-1
  6
BYLAYER
 10
-59.5
 20
2.9999999999999996
 30
0.0
 11
-55.0
 21
2.9999999999999996
 31
0.0
  0
LINE
  5
92
100
AcDbEntity
100
AcDbLine
  8
0
 62
256
370
-1
  6
BYLAYER
 10
-55.0
 20
2.9999999999999996
 30
0.0
 11
-55.0
 21
3.9999999999999996
 31
0.0
  0
LINE
  5
93
100
AcDbEntity
100
AcDbLine
  8
0
 62
256
370
-1
  6
BYLAYER
 10
-55.0
 20
3.9999999999999996
 30
0.0
 11
-59.5
 21
3.9999999999999996
 31
0.0
  0
LINE
  5
94
100
AcDbEntity
100
AcDbLine
  8
0
 62
256
370
-1
  6
BYLAYER
 10
-59.5
 20
3.9999999999999996
 30
0.0
 11
-59.5
 21
2.9999999999999996
 31
0.0
  0
LINE
  5
95
100
AcDbEntity
100
AcDbLine
  8
0
 62
256
370
-1
  6
BYLAYER
 10
-82.5
 20
3.9999999999999996
 30
0.0
 11
-82.5
 21
5.0
 31
0.0
  0
LINE
  5
96
100
AcDbEntity
100
AcDbLine
  8
0
 62
256
370
-1
  6
BYLAYER
 10
-82.5
 20
5.0
 30
0.0
 11
-59.5
 21
5.0
 31
0.0
  0
LINE
  5
97
100
AcDbEntity
100
AcDbLine
  8
0
 62
256
370
-1
  6
BYLAYER
 10
-59.5
 20
5.0
 30
0.0
 11
-59.5
 21
3.9999999999999996
 31
0.0
  0
LINE
  5
98
100
AcDbEntity
100
AcDbLine
  8
0
 62
256
370
-1
  6
BYLAYER
 10
-79.5
 20
5.0
 30
0.0
 11
-79.5
 21
7.0
 31
0.0
  0
LINE
  5
99
100
AcDbEntity
100
AcDbLine
  8
0
 62
256
370
-1
  6
BYLAYER
 10
-79.5
 20
7.0
 30
0.0
 11
-71.5
 21
7.0
 31
0.0
  0
LINE
  5
9A
100
AcDbEntity
100
AcDbLine
  8
0
 62
256
370
-1
  6
BYLAYER
 10
-71.5
 20
7.0
 30
0.0
 11
-71.5
 21
5.0
 31
0.0
  0
LINE
  5
9B
100
AcDbEntity
100
AcDbLine
  8
0
 62
256
370
-1
  6
BYLAYER
 10
-76.5
 20
7.0
 30
0.0
 11
-76.5
 21
10.0
 31
0.0
  0
LINE
  5
9C
100
AcDbEntity
100
AcDbLine
  8
0
 62
256
370
-1
  6
BYLAYER
 10
-76.5
 20
10.0
 30
0.0
 11
-74.5
 21
10.0
 31
0.0
  0
LINE
  5
9D
100
AcDbEntity
100
AcDbLine
  8
0
 62
256
370
-1
  6
BYLAYER
 10
-74.5
 20
10.0
 30
0.0
 11
-74.5
 21
7.0
 31
0.0
  0
LINE
  5
9E
100
AcDbEntity
100
AcDbLine
  8
0
 62
256
370
-1
  6
BYLAYER
 10
-82.5
 20
-16.0
 30
0.0
 11
-82.5
 21
-10.0
 31
0.0
  0
LINE
  5
9F
100
AcDbEntity
100
AcDbLine
  8
0
 62
256
370
-1
  6
BYLAYER
 10
-59.5
 20
-16.0
 30
0.0
 11
-59.5
 21
-10.0
 31
0.0
  0
LINE
  5
A0
100
AcDbEntity
100
AcDbLine
  8
0
 62
256
370
-1
  6
DOT
 10
-59.5
 20
2.9999999999999996
 30
0.0
 11
-59.5
 21
-10.0
 31
0.0
  0
LINE
  5
A1
100
AcDbEntity
100
AcDbLine
  8
0
 62
256
370
-1
  6
DOT
 10
-82.5
 20
-10.0
 30
0.0
 11
-82.5
 21
2.9999999999999996
 31
0.0
  0
CIRCLE
  5
A2
100
AcDbEntity
100
AcDbCircle
  8
0
 62
256
370
-1
  6
DOT
 10
-46.5
 20
-7.0
 30
0.0
 40
5.0
  0
CIRCLE
  5
A3
100
AcDbEntity
100
AcDbCircle
  8
0
 62
256
370
-1
  6
BYLAYER
 10
-46.5
 20
-7.0
 30
0.0
 40
2.0
  0
LINE
  5
A4
100
AcDbEntity
100
AcDbLine
  8
0
 62
256
370
-1
  6
BYLAYER
 10
-53.5
 20
-13.0
 30
0.0
 11
-30.5
 21
-13.0
 31
0.0
  0
LINE
  5
A5
100
AcDbEntity
100
AcDbLine
  8
0
 62
256
370
-1
  6
BYLAYER
 10
-30.5
 20
-13.0
 30
0.0
 11
-30.5
 21
-1.0000000000000004
 31
0.0
  0
LINE
  5
A6
100
AcDbEntity
100
AcDbLine
  8
0
 62
256
370
-1
  6
BYLAYER
 10
-30.5
 20
-1.0000000000000004
 30
0.0
 11
-53.5
 21
-1.0000000000000004
 31
0.0
  0
LINE
  5
A7
100
AcDbEntity
100
AcDbLine
  8
0
 62
256
370
-1
  6
BYLAYER
 10
-53.5
 20
-1.0000000000000004
 30
0.0
 11
-53.5
 21
-13.0
 31
0.0
  0
LINE
  5
A8
100
AcDbEntity
100
AcDbLine
  8
0
 62
256
370
-1
  6
BYLAYER
 10
-58.0
 20
-12.0
 30
0.0
 11
-53.5
 21
-12.0
 31
0.0
  0
LINE
  5
A9
100
AcDbEntity
100
AcDbLine
  8
0
 62
256
370
-1
  6
BYLAYER
 10
-53.5
 20
-12.0
 30
0.0
 11
-53.5
 21
-2.0000000000000004
 31
0.0
  0
LINE
  5
AA
100
AcDbEntity
100
AcDbLine
  8
0
 62
256
370
-1
  6
BYLAYER
 10
-53.5
 20
-2.0000000000000004
 30
0.0
 11
-58.0
 21
-2.0000000000000004
 31
0.0
  0
LINE
  5
AB
100
AcDbEntity
100
AcDbLine
  8
0
 62
256
370
-1
  6
BYLAYER
 10
-58.0
 20
-2.0000000000000004
 30
0.0
 11
-58.0
 21
-12.0
 31
0.0
  0
LINE
  5
AC
100
AcDbEntity
100
AcDbLine
  8
0
 62
256
370
-1
  6
BYLAYER
 10
-30.5
 20
-12.0
 30
0.0
 11
-26.0
 21
-12.0
 31
0.0
  0
LINE
  5
AD
100
AcDbEntity
100
AcDbLine
  8
0
 62
256
370
-1
  6
BYLAYER
 10
-26.0
 20
-12.0
 30
0.0
 11
-26.0
 21
-2.0000000000000004
 31
0.0
  0
LINE
  5
AE
100
AcDbEntity
100
AcDbLine
  8
0
 62
256
370
-1
  6
BYLAYER
 10
-26.0
 20
-2.0000000000000004
 30
0.0
 11
-30.5
 21
-2.0000000000000004
 31
0.0
  0
LINE
  5
AF
100
AcDbEntity
100
AcDbLine
  8
0
 62
256
370
-1
  6
BYLAYER
 10
-30.5
 20
-2.0000000000000004
 30
0.0
 11
-30.5
 21
-12.0
 31
0.0
  0
CIRCLE
  5
B0
100
AcDbEntity
100
AcDbCircle
  8
0
 62
256
370
-1
  6
BYLAYER
 10
-57.0
 20
-7.0000000000000284
 30
0.0
 40
1.0
  0
CIRCLE
  5
B1
100
AcDbEntity
100
AcDbCircle
  8
0
 62
256
370
-1
  6
BYLAYER
 10
-27.0
 20
-7.0000000000000284
 30
0.0
 40
1.0
  0
CIRCLE
  5
B2
100
AcDbEntity
100
AcDbCircle
  8
0
 62
256
370
-1
  6
BYLAYER
 10
-46.5
 20
-7.0
 30
0.0
 40
10.0
  0
CIRCLE
  5
B3
100
AcDbEntity
100
AcDbCircle
  8
0
 62
256
370
-1
  6
BYLAYER
 10
-43.5
 20
0.9999999999999996
 30
0.0
 40
0.5
  0
LINE
  5
B4
100
AcDbEntity
100
AcDbLine
  8
0
 62
256
370
-1
  6
BYLAYER
 10
-20.0
 20
29.9999999999999716
 30
0.0
 11
-43.5
 21
0.9999999999999996
 31
0.0
  0
LINE
  5
B5
100
AcDbEntity
100
AcDbLine
  8
0
 62
256
370
-1
  6
BYLAYER
 10
-65.5
 20
11.0
 30
0.0
 11
-85.5
 21
11.0
 31
0.0
  0
LINE
  5
B6
100
AcDbEntity
100
AcDbLine
  8
0
 62
256
370
-1
  6
BYLAYER
 10
-85.5
 20
11.0
 30
0.0
 11
-85.5
 21
10.0
 31
0.0
  0
LINE
  5
B7
100
AcDbEntity
100
AcDbLine
  8
0
 62
256
370
-1
  6
BYLAYER
 10
-76.5
 20
10.0
 30
0.0
 11
-74.5
 21
10.0
 31
0.0
  0
LINE
  5
B8
100
AcDbEntity
100
AcDbLine
  8
0
 62
256
370
-1
  6
BYLAYER
 10
-85.5
 20
10.0
 30
0.0
 11
-65.5
 21
10.0
 31
0.0
  0
LINE
  5
B9
100
AcDbEntity
100
AcDbLine
  8
0
 62
256
370
-1
  6
BYLAYER
 10
-65.5
 20
10.0
 30
0.0
 11
-65.5
 21
11.0
 31
0.0
  0
LINE
  5
BA
100
AcDbEntity
100
AcDbLine
  8
0
 62
256
370
-1
  6
BYLAYER
 10
-105.0
 20
3.0
 30
0.0
 11
-13.5
 21
2.9999999999999996
 31
0.0
  0
LINE
  5
BB
100
AcDbEntity
100
AcDbLine
  8
0
 62
256
370
-1
  6
BYLAYER
 10
-13.5
 20
-10.0
 30
0.0
 11
-105.0
 21
-10.0
 31
0.0
  0
ENDBLK
  5
BC
100
AcDbEntity
  8
0
100
AcDbBlockEnd
  0
ENDSEC
  0
SECTION
  2
ENTITIES
  0
LINE
  5
BD
100
AcDbEntity
100
AcDbLine
  8
0
 62
256
370
-1
  6
BYLAYER
 10
203.0000000000000284
 20
293.0
 30
0.0
 11
211.0000000000000284
 21
293.0
 31
0.0
  0
LINE
  5
BE
100
AcDbEntity
100
AcDbLine
  8
0
 62
256
370
-1
  6
BYLAYER
 10
211.0000000000000284
 20
293.0
 30
0.0
 11
211.0000000000000284
 21
291.0
 31
0.0
  0
LINE
  5
BF
100
AcDbEntity
100
AcDbLine
  8
0
 62
256
370
-1
  6
BYLAYER
 10
206.0000000000000284
 20
293.0
 30
0.0
 11
206.0000000000000284
 21
296.0
 31
0.0
  0
LINE
  5
C0
100
AcDbEntity
100
AcDbLine
  8
0
 62
256
370
-1
  6
BYLAYER
 10
206.0000000000000284
 20
296.0
 30
0.0
 11
208.0000000000000284
 21
296.0
 31
0.0
  0
LINE
  5
C1
100
AcDbEntity
100
AcDbLine
  8
0
 62
256
370
-1
  6
BYLAYER
 10
208.0000000000000284
 20
296.0
 30
0.0
 11
208.0000000000000284
 21
293.0
 31
0.0
  0
LINE
  5
C2
100
AcDbEntity
100
AcDbLine
  8
0
 62
256
370
-1
  6
BYLAYER
 10
223.0000000000000284
 20
270.0
 30
0.0
 11
200.0000000000000284
 21
270.0
 31
0.0
  0
LINE
  5
C3
100
AcDbEntity
100
AcDbLine
  8
0
 62
256
370
-1
  6
BYLAYER
 10
200.0000000000000284
 20
289.0
 30
0.0
 11
223.0000000000000284
 21
289.0
 31
0.0
  0
LINE
  5
C4
100
AcDbEntity
100
AcDbLine
  8
0
 62
256
370
-1
  6
BYLAYER
 10
195.5000000000000284
 20
289.0
 30
0.0
 11
200.0000000000000284
 21
289.0
 31
0.0
  0
LINE
  5
C5
100
AcDbEntity
100
AcDbLine
  8
0
 62
256
370
-1
  6
BYLAYER
 10
200.0000000000000284
 20
289.0
 30
0.0
 11
200.0000000000000284
 21
290.0
 31
0.0
  0
LINE
  5
C6
100
AcDbEntity
100
AcDbLine
  8
0
 62
256
370
-1
  6
BYLAYER
 10
200.0000000000000284
 20
290.0
 30
0.0
 11
195.5000000000000284
 21
290.0
 31
0.0
  0
LINE
  5
C7
100
AcDbEntity
100
AcDbLine
  8
0
 62
256
370
-1
  6
BYLAYER
 10
195.5000000000000284
 20
290.0
 30
0.0
 11
195.5000000000000284
 21
289.0
 31
0.0
  0
LINE
  5
C8
100
AcDbEntity
100
AcDbLine
  8
0
 62
256
370
-1
  6
BYLAYER
 10
223.0000000000000284
 20
289.0
 30
0.0
 11
227.5000000000000284
 21
289.0
 31
0.0
  0
LINE
  5
C9
100
AcDbEntity
100
AcDbLine
  8
0
 62
256
370
-1
  6
BYLAYER
 10
227.5000000000000284
 20
289.0
 30
0.0
 11
227.5000000000000284
 21
290.0
 31
0.0
  0
LINE
  5
CA
100
AcDbEntity
100
AcDbLine
  8
0
 62
256
370
-1
  6
BYLAYER
 10
227.5000000000000284
 20
290.0
 30
0.0
 11
223.0000000000000284
 21
290.0
 31
0.0
  0
LINE
  5
CB
100
AcDbEntity
100
AcDbLine
  8
0
 62
256
370
-1
  6
BYLAYER
 10
223.0000000000000284
 20
290.0
 30
0.0
 11
223.0000000000000284
 21
289.0
 31
0.0
  0
LINE
  5
CC
100
AcDbEntity
100
AcDbLine
  8
0
 62
256
370
-1
  6
BYLAYER
 10
200.0000000000000284
 20
290.0
 30
0.0
 11
200.0000000000000284
 21
291.0
 31
0.0
  0
LINE
  5
CD
100
AcDbEntity
100
AcDbLine
  8
0
 62
256
370
-1
  6
BYLAYER
 10
200.0000000000000284
 20
291.0
 30
0.0
 11
223.0000000000000284
 21
291.0
 31
0.0
  0
LINE
  5
CE
100
AcDbEntity
100
AcDbLine
  8
0
 62
256
370
-1
  6
BYLAYER
 10
223.0000000000000284
 20
291.0
 30
0.0
 11
223.0000000000000284
 21
290.0
 31
0.0
  0
LINE
  5
CF
100
AcDbEntity
100
AcDbLine
  8
0
 62
256
370
-1
  6
BYLAYER
 10
203.0000000000000284
 20
291.0
 30
0.0
 11
203.0000000000000284
 21
293.0
 31
0.0
  0
LINE
  5
D0
100
AcDbEntity
100
AcDbLine
  8
0
 62
256
370
-1
  6
BYLAYER
 10
223.0000000000000284
 20
270.0
 30
0.0
 11
223.0000000000000284
 21
289.0
 31
0.0
  0
LINE
  5
D1
100
AcDbEntity
100
AcDbLine
  8
0
 62
256
370
-1
  6
BYLAYER
 10
200.0000000000000284
 20
289.0
 30
0.0
 11
200.0000000000000284
 21
270.0
 31
0.0
  0
CIRCLE
  5
D2
100
AcDbEntity
100
AcDbCircle
  8
0
 62
256
370
-1
  6
BYLAYER
 10
196.5000000000000284
 20
255.9999999999999432
 30
0.0
 40
1.0
  0
CIRCLE
  5
D3
100
AcDbEntity
100
AcDbCircle
  8
0
 62
256
370
-1
  6
BYLAYER
 10
226.5000000000000284
 20
255.9999999999999432
 30
0.0
 40
1.0
  0
CIRCLE
  5
D4
100
AcDbEntity
100
AcDbCircle
  8
0
 62
256
370
-1
  6
DOT
 10
207.0000000000000284
 20
255.9999999999999716
 30
0.0
 40
5.0
  0
CIRCLE
  5
D5
100
AcDbEntity
100
AcDbCircle
  8
0
 62
256
370
-1
  6
BYLAYER
 10
207.0000000000000284
 20
255.9999999999999716
 30
0.0
 40
2.0
  0
LINE
  5
D6
100
AcDbEntity
100
AcDbLine
  8
0
 62
256
370
-1
  6
BYLAYER
 10
200.0000000000000284
 20
249.9999999999999716
 30
0.0
 11
223.0000000000000284
 21
249.9999999999999716
 31
0.0
  0
LINE
  5
D7
100
AcDbEntity
100
AcDbLine
  8
0
 62
256
370
-1
  6
BYLAYER
 10
223.0000000000000284
 20
249.9999999999999716
 30
0.0
 11
223.0000000000000284
 21
262.0
 31
0.0
  0
LINE
  5
D8
100
AcDbEntity
100
AcDbLine
  8
0
 62
256
370
-1
  6
BYLAYER
 10
223.0000000000000284
 20
262.0
 30
0.0
 11
200.0000000000000284
 21
262.0
 31
0.0
  0
LINE
  5
D9
100
AcDbEntity
100
AcDbLine
  8
0
 62
256
370
-1
  6
BYLAYER
 10
200.0000000000000284
 20
262.0
 30
0.0
 11
200.0000000000000284
 21
249.9999999999999716
 31
0.0
  0
LINE
  5
DA
100
AcDbEntity
100
AcDbLine
  8
0
 62
256
370
-1
  6
BYLAYER
 10
195.5000000000000284
 20
250.9999999999999716
 30
0.0
 11
200.0000000000000284
 21
250.9999999999999716
 31
0.0
  0
LINE
  5
DB
100
AcDbEntity
100
AcDbLine
  8
0
 62
256
370
-1
  6
BYLAYER
 10
200.0000000000000284
 20
250.9999999999999716
 30
0.0
 11
200.0000000000000284
 21
261.0
 31
0.0
  0
LINE
  5
DC
100
AcDbEntity
100
AcDbLine
  8
0
 62
256
370
-1
  6
BYLAYER
 10
200.0000000000000284
 20
261.0
 30
0.0
 11
195.5000000000000284
 21
261.0
 31
0.0
  0
LINE
  5
DD
100
AcDbEntity
100
AcDbLine
  8
0
 62
256
370
-1
  6
BYLAYER
 10
195.5000000000000284
 20
261.0
 30
0.0
 11
195.5000000000000284
 21
250.9999999999999716
 31
0.0
  0
LINE
  5
DE
100
AcDbEntity
100
AcDbLine
  8
0
 62
256
370
-1
  6
BYLAYER
 10
223.0000000000000284
 20
250.9999999999999716
 30
0.0
 11
227.5000000000000284
 21
250.9999999999999716
 31
0.0
  0
LINE
  5
DF
100
AcDbEntity
100
AcDbLine
  8
0
 62
256
370
-1
  6
BYLAYER
 10
227.5000000000000284
 20
250.9999999999999716
 30
0.0
 11
227.5000000000000284
 21
261.0
 31
0.0
  0
LINE
  5
E0
100
AcDbEntity
100
AcDbLine
  8
0
 62
256
370
-1
  6
BYLAYER
 10
227.5000000000000284
 20
261.0
 30
0.0
 11
223.0000000000000284
 21
261.0
 31
0.0
  0
LINE
  5
E1
100
AcDbEntity
100
AcDbLine
  8
0
 62
256
370
-1
  6
BYLAYER
 10
223.0000000000000284
 20
261.0
 30
0.0
 11
223.0000000000000284
 21
250.9999999999999716
 31
0.0
  0
CIRCLE
  5
E2
100
AcDbEntity
100
AcDbCircle
  8
0
 62
256
370
-1
  6
BYLAYER
 10
207.0000000000000284
 20
255.9999999999999716
 30
0.0
 40
10.0
  0
LINE
  5
E3
100
AcDbEntity
100
AcDbLine
  8
0
 62
256
370
-1
  6
BYLAYER
 10
197.0000000000000284
 20
296.0
 30
0.0
 11
217.0000000000000284
 21
296.0
 31
0.0
  0
LINE
  5
E4
100
AcDbEntity
100
AcDbLine
  8
0
 62
256
370
-1
  6
BYLAYER
 10
217.0000000000000284
 20
296.0
 30
0.0
 11
217.0000000000000284
 21
297.0
 31
0.0
  0
LINE
  5
E5
100
AcDbEntity
100
AcDbLine
  8
0
 62
256
370
-1
  6
BYLAYER
 10
217.0000000000000284
 20
297.0
 30
0.0
 11
197.0000000000000284
 21
297.0
 31
0.0
  0
LINE
  5
E6
100
AcDbEntity
100
AcDbLine
  8
0
 62
256
370
-1
  6
BYLAYER
 10
197.0000000000000284
 20
297.0
 30
0.0
 11
197.0000000000000284
 21
296.0
 31
0.0
  0
LINE
  5
E7
100
AcDbEntity
100
AcDbLine
  8
0
 62
256
370
-1
  6
BYLAYER
 10
-97.1715728752538297
 20
267.4730880654187786
 30
0.0
 11
-67.473088065418807
 21
297.1715728752537871
 31
0.0
  0
LINE
  5
E8
100
AcDbEntity
100
AcDbLine
  8
0
 62
256
370
-1
  6
BYLAYER
 10
-67.473088065418807
 20
302.8284271247461561
 30
0.0
 11
-97.1715728752538155
 21
332.5269119345812214
 31
0.0
  0
LINE
  5
E9
100
AcDbEntity
100
AcDbLine
  8
0
 62
256
370
-1
  6
BYLAYER
 10
-102.8284271247461987
 20
332.5269119345812214
 30
0.0
 11
-132.526911934581193
 21
302.8284271247462129
 31
0.0
  0
LINE
  5
EA
100
AcDbEntity
100
AcDbLine
  8
0
 62
256
370
-1
  6
BYLAYER
 10
-132.526911934581193
 20
297.1715728752538439
 30
0.0
 11
-102.8284271247462129
 21
267.4730880654188354
 31
0.0
  0
ARC
  5
EB
100
AcDbEntity
  8
0
 62
256
370
-1
  6
BYLAYER
100
AcDbCircle
 10
-129.6984848098350085
 20
300.0
 30
0.0
 40
4.0
100
AcDbArc
 50
135.0
 51
225.0
  0
ARC
  5
EC
100
AcDbEntity
  8
0
 62
256
370
-1
  6
BYLAYER
100
AcDbCircle
 10
-100.0
 20
329.6984848098350085
 30
0.0
 40
4.0
100
AcDbArc
 50
45.0
 51
135.0
  0
ARC
  5
ED
100
AcDbEntity
  8
0
 62
256
370
-1
  6
BYLAYER
100
AcDbCircle
 10
-70.3015151901650057
 20
300.0
 30
0.0
 40
4.0
100
AcDbArc
 50
315.0
 51
45.0
  0
ARC
  5
EE
100
AcDbEntity
  8
0
 62
256
370
-1
  6
BYLAYER
100
AcDbCircle
 10
-100.0
 20
270.3015151901649915
 30
0.0
 40
4.0
100
AcDbArc
 50
225.0
 51
315.0
  0
CIRCLE
  5
EF
100
AcDbEntity
100
AcDbCircle
  8
0
 62
256
370
-1
  6
BYLAYER
 10
-129.6984848098350085
 20
300.0
 30
0.0
 40
2.0
  0
CIRCLE
  5
F0
100
AcDbEntity
100
AcDbCircle
  8
0
 62
256
370
-1
  6
BYLAYER
 10
-70.3015151901650057
 20
300.0
 30
0.0
 40
2.0
  0
LINE
  5
F1
100
AcDbEntity
100
AcDbLine
  8
0
 62
256
370
-1
  6
DASHED
 10
-135.0
 20
245.5
 30
0.0
 11
-120.0
 21
245.5
 31
0.0
  0
LINE
  5
F2
100
AcDbEntity
100
AcDbLine
  8
0
 62
256
370
-1
  6
DASHED
 10
-80.0
 20
245.5
 30
0.0
 11
-80.0
 21
355.5
 31
0.0
  0
LINE
  5
F3
100
AcDbEntity
100
AcDbLine
  8
0
 62
256
370
-1
  6
DASHED
 10
-120.0
 20
355.5
 30
0.0
 11
-135.0
 21
355.5
 31
0.0
  0
LINE
  5
F4
100
AcDbEntity
100
AcDbLine
  8
0
 62
256
370
-1
  6
DASHED
 10
-135.0
 20
355.5
 30
0.0
 11
-135.0
 21
245.5
 31
0.0
  0
LINE
  5
F5
100
AcDbEntity
100
AcDbLine
  8
0
 62
256
370
-1
  6
DASHED
 10
-80.0
 20
245.5
 30
0.0
 11
-65.0
 21
245.5
 31
0.0
  0
LINE
  5
F6
100
AcDbEntity
100
AcDbLine
  8
0
 62
256
370
-1
  6
DASHED
 10
-65.0
 20
245.5
 30
0.0
 11
-65.0
 21
355.5
 31
0.0
  0
LINE
  5
F7
100
AcDbEntity
100
AcDbLine
  8
0
 62
256
370
-1
  6
DASHED
 10
-65.0
 20
355.5
 30
0.0
 11
-80.0
 21
355.5
 31
0.0
  0
LINE
  5
F8
100
AcDbEntity
100
AcDbLine
  8
0
 62
256
370
-1
  6
DASHED
 10
-120.0
 20
355.5
 30
0.0
 11
-120.0
 21
245.5
 31
0.0
  0
CIRCLE
  5
F9
100
AcDbEntity
100
AcDbCircle
  8
0
 62
256
370
-1
  6
BYLAYER
 10
-141.0
 20
300.0
 30
0.0
 40
1.0
  0
LINE
  5
FA
100
AcDbEntity
100
AcDbLine
  8
0
 62
256
370
-1
  6
BYLAYER
 10
-140.0
 20
240.0
 30
0.0
 11
-60.0
 21
240.0
 31
0.0
  0
LINE
  5
FB
100
AcDbEntity
100
AcDbLine
  8
0
 62
256
370
-1
  6
BYLAYER
 10
-50.0
 20
250.0
 30
0.0
 11
-50.0
 21
350.0
 31
0.0
  0
LINE
  5
FC
100
AcDbEntity
100
AcDbLine
  8
0
 62
256
370
-1
  6
BYLAYER
 10
-60.0
 20
360.0
 30
0.0
 11
-140.0
 21
360.0
 31
0.0
  0
LINE
  5
FD
100
AcDbEntity
100
AcDbLine
  8
0
 62
256
370
-1
  6
BYLAYER
 10
-150.0
 20
350.0
 30
0.0
 11
-150.0
 21
250.0
 31
0.0
  0
CIRCLE
  5
FE
100
AcDbEntity
100
AcDbCircle
  8
0
 62
256
370
-1
  6
BYLAYER
 10
-59.0
 20
351.0
 30
0.0
 40
1.0
  0
CIRCLE
  5
FF
100
AcDbEntity
100
AcDbCircle
  8
0
 62
256
370
-1
  6
BYLAYER
 10
-141.0
 20
351.0
 30
0.0
 40
1.0
  0
CIRCLE
  5
100
100
AcDbEntity
100
AcDbCircle
  8
0
 62
256
370
-1
  6
BYLAYER
 10
-141.0
 20
249.0
 30
0.0
 40
1.0
  0
CIRCLE
  5
101
100
AcDbEntity
100
AcDbCircle
  8
0
 62
256
370
-1
  6
BYLAYER
 10
-59.0
 20
249.0
 30
0.0
 40
1.0
  0
CIRCLE
  5
102
100
AcDbEntity
100
AcDbCircle
  8
0
 62
256
370
-1
  6
BYLAYER
 10
-59.0
 20
300.0
 30
0.0
 40
1.0
  0
INSERT
  5
103
100
AcDbEntity
100
AcDbBlockReference
  8
0
 62
256
370
-1
  6
BYLAYER
  2
leg_top
 10
75.0000000000000284
 20
233.9999999999999716
 30
0.0
  0
INSERT
  5
104
100
AcDbEntity
100
AcDbBlockReference
  8
0
 62
256
370
-1
  6
BYLAYER
  2
leg_top
 10
-59.0
 20
300.0
 30
0.0
  0
CIRCLE
  5
105
100
AcDbEntity
100
AcDbCircle
  8
0
 62
256
370
-1
  6
BYLAYER
 10
-55.0
 20
280.0
 30
0.0
 40
0.5
  0
LINE
  5
106
100
AcDbEntity
100
AcDbLine
  8
0
 62
256
370
-1
  6
BYLAYER
 10
-55.0
 20
280.0
 30
0.0
 11
-29.5000000000000071
 21
302.0
 31
0.0
  0
INSERT
  5
107
100
AcDbEntity
100
AcDbBlockReference
  8
0
 62
256
370
-1
  6
BYLAYER
  2
leg_side
 10
175.0000000000000284
 20
281.0
 30
0.0
  0
INSERT
  5
108
100
AcDbEntity
100
AcDbBlockReference
  8
0
 62
256
370
-1
  6
BYLAYER
  2
leg_top
 10
-59.0
 20
249.0
 30
0.0
 50
-30.0
  0
CIRCLE
  5
109
100
AcDbEntity
100
AcDbCircle
  8
0
 62
256
370
-1
  6
BYLAYER
 10
-80.0
 20
245.0
 30
0.0
 40
0.5
  0
LINE
  5
10A
100
AcDbEntity
100
AcDbLine
  8
0
 62
256
370
-1
  6
BYLAYER
 10
-32.452250588359064
 20
235.9820508075688963
 30
0.0
 11
-80.0
 21
245.0
 31
0.0
  0
INSERT
  5
10B
100
AcDbEntity
100
AcDbBlockReference
  8
0
 62
256
370
-1
  6
BYLAYER
  2
leg_top
 10
-59.0
 20
351.0
 30
0.0
 50
30.0
  0
CIRCLE
  5
10C
100
AcDbEntity
100
AcDbCircle
  8
0
 62
256
370
-1
  6
BYLAYER
 10
-95.0
 20
357.0
 30
0.0
 40
0.5
  0
LINE
  5
10D
100
AcDbEntity
100
AcDbLine
  8
0
 62
256
370
-1
  6
BYLAYER
 10
-34.4522505883590711
 20
367.4820508075688963
 30
0.0
 11
-95.0
 21
357.0
 31
0.0
  0
LINE
  5
10E
100
AcDbEntity
100
AcDbLine
  8
0
 62
256
370
-1
  6
BYLAYER
 10
-145.0
 20
280.0
 30
0.0
 11
-170.5000000000000284
 21
302.0000000000000568
 31
0.0
  0
INSERT
  5
10F
100
AcDbEntity
100
AcDbBlockReference
  8
0
 62
256
370
-1
  6
BYLAYER
  2
leg_top
 10
-141.0000000000000284
 20
249.0000000000000284
 30
0.0
 41
1.0
 42
-1.0
 43
1.0
 50
209.9999999999999716
  0
CIRCLE
  5
110
100
AcDbEntity
100
AcDbCircle
  8
0
 62
256
370
-1
  6
BYLAYER
 10
-120.0
 20
245.0
 30
0.0
 40
0.5
  0
LINE
  5
111
100
AcDbEntity
100
AcDbLine
  8
0
 62
256
370
-1
  6
BYLAYER
 10
-181.8371685740842452
 20
227.7320508075689531
 30
0.0
 11
-120.0
 21
245.0
 31
0.0
  0
INSERT
  5
112
100
AcDbEntity
100
AcDbBlockReference
  8
0
 62
256
370
-1
  6
BYLAYER
  2
leg_top
 10
-141.0
 20
351.0
 30
0.0
 41
1.0
 42
-1.0
 43
1.0
 50
149.9999999999999147
  0
CIRCLE
  5
113
100
AcDbEntity
100
AcDbCircle
  8
0
 62
256
370
-1
  6
BYLAYER
 10
-105.0000000000000142
 20
357.0
 30
0.0
 40
0.5
  0
LINE
  5
114
100
AcDbEntity
100
AcDbLine
  8
0
 62
256
370
-1
  6
BYLAYER
 10
-165.5477494116408934
 20
367.4820508075689531
 30
0.0
 11
-105.0000000000000142
 21
357.0
 31
0.0
  0
INSERT
  5
115
100
AcDbEntity
100
AcDbBlockReference
  8
0
 62
256
370
-1
  6
BYLAYER
  2
leg_top
 10
-141.0000000000000284
 20
300.0
 30
0.0
 41
1.0
 42
-1.0
 43
1.0
 50
180.0
  0
CIRCLE
  5
116
100
AcDbEntity
100
AcDbCircle
  8
0
 62
256
370
-1
  6
BYLAYER
 10
-145.0
 20
280.0
 30
0.0
 40
0.5
  0
LINE
  5
117
100
AcDbEntity
100
AcDbLine
  8
0
 62
256
370
-1
  6
BYLAYER
 10
-115.0
 20
250.0
 30
0.0
 11
-85.0
 21
250.0
 31
0.0
  0
LINE
  5
118
100
AcDbEntity
100
AcDbLine
  8
0
 62
256
370
-1
  6
BYLAYER
 10
-85.0
 20
350.0
 30
0.0
 11
-115.0
 21
350.0
 31
0.0
  0
ARC
  5
119
100
AcDbEntity
  8
0
 62
256
370
-1
  6
BYLAYER
100
AcDbCircle
 10
-115.0
 20
340.0
 30
0.0
 40
10.0
100
AcDbArc
 50
90.0
 51
180.0
  0
ARC
  5
11A
100
AcDbEntity
  8
0
 62
256
370
-1
  6
BYLAYER
100
AcDbCircle
 10
-85.0
 20
340.0
 30
0.0
 40
10.0
100
AcDbArc
 50
0.0
 51
90.0
  0
ARC
  5
11B
100
AcDbEntity
  8
0
 62
256
370
-1
  6
BYLAYER
100
AcDbCircle
 10
-85.0
 20
260.0
 30
0.0
 40
10.0
100
AcDbArc
 50
270.0
 51
0.0
  0
ARC
  5
11C
100
AcDbEntity
  8
0
 62
256
370
-1
  6
BYLAYER
100
AcDbCircle
 10
-115.0
 20
260.0
 30
0.0
 40
10.0
100
AcDbArc
 50
180.0
 51
270.0
  0
ARC
  5
11D
100
AcDbEntity
  8
0
 62
256
370
-1
  6
BYLAYER
100
AcDbCircle
 10
-140.0
 20
250.0
 30
0.0
 40
10.0
100
AcDbArc
 50
180.0
 51
270.0
  0
ARC
  5
11E
100
AcDbEntity
  8
0
 62
256
370
-1
  6
BYLAYER
100
AcDbCircle
 10
-60.0
 20
250.0
 30
0.0
 40
10.0
100
AcDbArc
 50
270.0
 51
0.0
  0
ARC
  5
11F
100
AcDbEntity
  8
0
 62
256
370
-1
  6
BYLAYER
100
AcDbCircle
 10
-60.0
 20
350.0
 30
0.0
 40
10.0
100
AcDbArc
 50
0.0
 51
90.0
  0
ARC
  5
120
100
AcDbEntity
  8
0
 62
256
370
-1
  6
BYLAYER
100
AcDbCircle
 10
-140.0
 20
350.0
 30
0.0
 40
10.0
100
AcDbArc
 50
90.0
 51
180.0
  0
LINE
  5
121
100
AcDbEntity
100
AcDbLine
  8
0
 62
256
370
-1
  6
BYLAYER
 10
-80.0
 20
251.3397459621556038
 30
0.0
 11
-80.0
 21
284.6446609406726225
 31
0.0
  0
LINE
  5
122
100
AcDbEntity
100
AcDbLine
  8
0
 62
256
370
-1
  6
BYLAYER
 10
-80.0
 20
315.3553390593273207
 30
0.0
 11
-80.0
 21
348.6602540378444246
 31
0.0
  0
LINE
  5
123
100
AcDbEntity
100
AcDbLine
  8
0
 62
256
370
-1
  6
BYLAYER
 10
-120.0
 20
348.6602540378443678
 30
0.0
 11
-119.9999999999999858
 21
315.3553390593273207
 31
0.0
  0
LINE
  5
124
100
AcDbEntity
100
AcDbLine
  8
0
 62
256
370
-1
  6
BYLAYER
 10
-120.0
 20
284.6446609406726225
 30
0.0
 11
-120.0
 21
251.3397459621556038
 31
0.0
  0
LINE
  5
125
100
AcDbEntity
100
AcDbLine
  8
0
 62
256
370
-1
  6
DASHED
 10
-124.9999999999999858
 20
310.3553390593273207
 30
0.0
 11
-125.0
 21
289.6446609406726793
 31
0.0
  0
LINE
  5
126
100
AcDbEntity
100
AcDbLine
  8
0
 62
256
370
-1
  6
DASHED
 10
-75.0000000000000142
 20
289.6446609406726793
 30
0.0
 11
-75.0
 21
310.3553390593273775
 31
0.0
  0
LINE
  5
127
100
AcDbEntity
100
AcDbLine
  8
0
 62
256
370
-1
  6
BYLAYER
 10
-124.9999999999999858
 20
310.3553390593274344
 30
0.0
 11
-125.0
 21
340.0
 31
0.0
  0
LINE
  5
128
100
AcDbEntity
100
AcDbLine
  8
0
 62
256
370
-1
  6
BYLAYER
 10
-75.0
 20
340.0
 30
0.0
 11
-74.9999999999999858
 21
310.3553390593273207
 31
0.0
  0
LINE
  5
129
100
AcDbEntity
100
AcDbLine
  8
0
 62
256
370
-1
  6
BYLAYER
 10
-75.0000000000000284
 20
289.6446609406726225
 30
0.0
 11
-75.0
 21
260.0
 31
0.0
  0
LINE
  5
12A
100
AcDbEntity
100
AcDbLine
  8
0
 62
256
370
-1
  6
BYLAYER
 10
-125.0
 20
260.0
 30
0.0
 11
-124.9999999999999858
 21
289.6446609406726225
 31
0.0
  0
ENDSEC
  0
SECTION
  2
OBJECTS
  0
DICTIONARY
  5
C
100
AcDbDictionary
280
0
281
1
  3
ACAD_GROUP
350
D
  3
ACAD_LAYOUT
350
1A
  3
ACAD_MLINESTYLE
350
17
  3
ACAD_PLOTSETTINGS
350
19
  3
ACAD_PLOTSTYLENAME
350
E
  3
AcDbVariableDictionary
350
12B
  3
QCAD_OBJECTS
350
12C
  0
DICTIONARY
  5
D
100
AcDbDictionary
280
0
281
1
  0
ACDBDICTIONARYWDFLT
  5
E
100
AcDbDictionary
281
1
  3
Normal
350
F
100
AcDbDictionaryWithDefault
340
F
  0
ACDBPLACEHOLDER
  5
F
  0
DICTIONARY
  5
17
100
AcDbDictionary
280
0
281
1
  3
Standard
350
18
  0
MLINESTYLE
  5
18
100
AcDbMlineStyle
  2
STANDARD
 70
0
  3

 62
256
 51
90.0
 52
90.0
 71
2
 49
0.5
 62
256
  6
BYLAYER
 49
-0.5
 62
256
  6
BYLAYER
  0
DICTIONARY
  5
19
100
AcDbDictionary
280
0
281
1
  0
DICTIONARY
  5
1A
100
AcDbDictionary
281
1
  3
Layout1
350
1E
  3
Layout2
350
26
  3
Model
350
22
  0
LAYOUT
  5
1E
100
AcDbPlotSettings
  1

  2
none_device
  4

  6

 40
0.0
 41
0.0
 42
0.0
 43
0.0
 44
0.0
 45
0.0
 46
0.0
 47
0.0
 48
0.0
 49
0.0
140
0.0
141
0.0
142
1.0
143
1.0
 70
688
 72
0
 73
0
 74
5
  7

 75
16
147
1.0
148
0.0
149
0.0
100
AcDbLayout
  1
Layout1
 70
1
 71
1
 10
0.0
 20
0.0
 11
420.0
 21
297.0
 12
0.0
 22
0.0
 32
0.0
 14
100000000000000000000.0
 24
100000000000000000000.0
 34
100000000000000000000.0
 15
-100000000000000000000.0
 25
-100000000000000000000.0
 35
-100000000000000000000.0
146
0.0
 13
0.0
 23
0.0
 33
0.0
 16
1.0
 26
0.0
 36
0.0
 17
0.0
 27
1.0
 37
0.0
 76
0
330
1B
  0
LAYOUT
  5
22
100
AcDbPlotSettings
  1

  2
none_device
  4

  6

 40
0.0
 41
0.0
 42
0.0
 43
0.0
 44
0.0
 45
0.0
 46
0.0
 47
0.0
 48
0.0
 49
0.0
140
0.0
141
0.0
142
1.0
143
1.0
 70
1712
 72
0
 73
0
 74
0
  7

 75
0
147
1.0
148
0.0
149
0.0
100
AcDbLayout
  1
Model
 70
1
 71
0
 10
0.0
 20
0.0
 11
12.0
 21
9.0
 12
0.0
 22
0.0
 32
0.0
 14
0.0
 24
0.0
 34
0.0
 15
0.0
 25
0.0
 35
0.0
146
0.0
 13
0.0
 23
0.0
 33
0.0
 16
1.0
 26
0.0
 36
0.0
 17
0.0
 27
1.0
 37
0.0
 76
0
330
1F
  0
LAYOUT
  5
26
100
AcDbPlotSettings
  1

  2
none_device
  4

  6

 40
0.0
 41
0.0
 42
0.0
 43
0.0
 44
0.0
 45
0.0
 46
0.0
 47
0.0
 48
0.0
 49
0.0
140
0.0
141
0.0
142
1.0
143
1.0
 70
688
 72
0
 73
0
 74
5
  7

 75
16
147
1.0
148
0.0
149
0.0
100
AcDbLayout
  1
Layout2
 70
1
 71
2
 10
0.0
 20
0.0
 11
12.0
 21
9.0
 12
0.0
 22
0.0
 32
0.0
 14
0.0
 24
0.0
 34
0.0
 15
0.0
 25
0.0
 35
0.0
146
0.0
 13
0.0
 23
0.0
 33
0.0
 16
1.0
 26
0.0
 36
0.0
 17
0.0
 27
1.0
 37
0.0
 76
0
330
23
  0
DICTIONARY
  5
12B
100
AcDbDictionary
281
1
  3
DIMASSOC
350
12E
  3
HIDETEXT
350
12D
  0
DICTIONARYVAR
  5
12D
100
DictionaryVariables
280
0
  1
2
  0
DICTIONARYVAR
  5
12E
100
DictionaryVariables
280
0
  1
1
  0
DICTIONARY
  5
12C
100
AcDbDictionary
281
1
  3
Grid/DisplayGrid00
350
12F
  3
Grid/DisplayGrid01
350
130
  3
Grid/DisplayGrid02
350
131
  3
Grid/DisplayGrid03
350
132
  3
Grid/GridSpacingX00
350
133
  3
Grid/GridSpacingX01
350
134
  3
Grid/GridSpacingX02
350
135
  3
Grid/GridSpacingX03
350
136
  3
Grid/GridSpacingY00
350
137
  3
Grid/GridSpacingY01
350
138
  3
Grid/GridSpacingY02
350
139
  3
Grid/GridSpacingY03
350
13A
  3
Grid/IsometricGrid00
350
13B
  3
Grid/IsometricGrid01
350
13C
  3
Grid/IsometricGrid02
350
13D
  3
Grid/IsometricGrid03
350
13E
  3
Grid/IsometricProjection00
350
13F
  3
Grid/IsometricProjection01
350
140
  3
Grid/IsometricProjection02
350
141
  3
Grid/IsometricProjection03
350
142
  3
Grid/MetaGridSpacingX00
350
143
  3
Grid/MetaGridSpacingX01
350
144
  3
Grid/MetaGridSpacingX02
350
145
  3
Grid/MetaGridSpacingX03
350
146
  3
Grid/MetaGridSpacingY00
350
147
  3
Grid/MetaGridSpacingY01
350
148
  3
Grid/MetaGridSpacingY02
350
149
  3
Grid/MetaGridSpacingY03
350
14A
  3
MultiPageSettings/Columns
350
14B
  3
MultiPageSettings/GlueMarginsBottom
350
14C
  3
MultiPageSettings/GlueMarginsLeft
350
14D
  3
MultiPageSettings/GlueMarginsRight
350
14E
  3
MultiPageSettings/GlueMarginsTop
350
14F
  3
MultiPageSettings/PrintCropMarks
350
150
  3
MultiPageSettings/Rows
350
151
  3
PageSettings/OffsetX
350
152
  3
PageSettings/OffsetY
350
153
  3
PageSettings/PageOrientation
350
154
  3
PageSettings/PaperHeight
350
155
  3
PageSettings/PaperWidth
350
156
  3
PageSettings/Scale
350
157
  3
PageSettings/ShowPaperBorders
350
158
  3
UnitSettings/PaperUnit
350
159
  0
XRECORD
  5
12F
330
12C
100
AcDbXrecord
280
1
290
1
  0
XRECORD
  5
130
330
12C
100
AcDbXrecord
280
1
290
1
  0
XRECORD
  5
131
330
12C
100
AcDbXrecord
280
1
290
1
  0
XRECORD
  5
132
330
12C
100
AcDbXrecord
280
1
290
1
  0
XRECORD
  5
133
330
12C
100
AcDbXrecord
280
1
1000
auto
  0
XRECORD
  5
134
330
12C
100
AcDbXrecord
280
1
1000
auto
  0
XRECORD
  5
135
330
12C
100
AcDbXrecord
280
1
1000
auto
  0
XRECORD
  5
136
330
12C
100
AcDbXrecord
280
1
1000
auto
  0
XRECORD
  5
137
330
12C
100
AcDbXrecord
280
1
1000
auto
  0
XRECORD
  5
138
330
12C
100
AcDbXrecord
280
1
1000
auto
  0
XRECORD
  5
139
330
12C
100
AcDbXrecord
280
1
1000
auto
  0
XRECORD
  5
13A
330
12C
100
AcDbXrecord
280
1
1000
auto
  0
XRECORD
  5
13B
330
12C
100
AcDbXrecord
280
1
290
0
  0
XRECORD
  5
13C
330
12C
100
AcDbXrecord
280
1
290
0
  0
XRECORD
  5
13D
330
12C
100
AcDbXrecord
280
1
290
0
  0
XRECORD
  5
13E
330
12C
100
AcDbXrecord
280
1
290
0
  0
XRECORD
  5
13F
330
12C
100
AcDbXrecord
280
1
 90
0
  0
XRECORD
  5
140
330
12C
100
AcDbXrecord
280
1
 90
0
  0
XRECORD
  5
141
330
12C
100
AcDbXrecord
280
1
 90
0
  0
XRECORD
  5
142
330
12C
100
AcDbXrecord
280
1
 90
0
  0
XRECORD
  5
143
330
12C
100
AcDbXrecord
280
1
1000
auto
  0
XRECORD
  5
144
330
12C
100
AcDbXrecord
280
1
1000
auto
  0
XRECORD
  5
145
330
12C
100
AcDbXrecord
280
1
1000
auto
  0
XRECORD
  5
146
330
12C
100
AcDbXrecord
280
1
1000
auto
  0
XRECORD
  5
147
330
12C
100
AcDbXrecord
280
1
1000
auto
  0
XRECORD
  5
148
330
12C
100
AcDbXrecord
280
1
1000
auto
  0
XRECORD
  5
149
330
12C
100
AcDbXrecord
280
1
1000
auto
  0
XRECORD
  5
14A
330
12C
100
AcDbXrecord
280
1
1000
auto
  0
XRECORD
  5
14B
330
12C
100
AcDbXrecord
280
1
 90
1
  0
XRECORD
  5
14C
330
12C
100
AcDbXrecord
280
1
 40
10.0
  0
XRECORD
  5
14D
330
12C
100
AcDbXrecord
280
1
 40
10.0
  0
XRECORD
  5
14E
330
12C
100
AcDbXrecord
280
1
 40
10.0
  0
XRECORD
  5
14F
330
12C
100
AcDbXrecord
280
1
 40
10.0
  0
XRECORD
  5
150
330
12C
100
AcDbXrecord
280
1
290
0
  0
XRECORD
  5
151
330
12C
100
AcDbXrecord
280
1
 90
1
  0
XRECORD
  5
152
330
12C
100
AcDbXrecord
280
1
 40
0.0
  0
XRECORD
  5
153
330
12C
100
AcDbXrecord
280
1
 40
0.0
  0
XRECORD
  5
154
330
12C
100
AcDbXrecord
280
1
1000
Portrait
  0
XRECORD
  5
155
330
12C
100
AcDbXrecord
280
1
 40
279.3999999999999773
  0
XRECORD
  5
156
330
12C
100
AcDbXrecord
280
1
 40
215.9000000000000057
  0
XRECORD
  5
157
330
12C
100
AcDbXrecord
280
1
1000
1:1
  0
XRECORD
  5
158
330
12C
100
AcDbXrecord
280
1
290
1
  0
XRECORD
  5
159
330
12C
100
AcDbXrecord
280
1
 90
4
  0
ENDSEC
  0
EOF
