999
dxflib 3.3.4.0
  0
SECTION
  2
HEADER
  9
$ACADVER
  1
AC1015
  9
$HANDSEED
  5
FFFF
  9
$DIMADEC
 70
0
  9
$DIMASZ
 40
2.5
  9
$DIMAUNIT
 70
0
  9
$DIMAZIN
 70
2
  9
$DIMDEC
 70
4
  9
$DIMEXE
 40
1.25
  9
$DIMEXO
 40
0.625
  9
$DIMGAP
 40
0.625
  9
$DIMLUNIT
 70
2
  9
$DIMTSZ
 40
0.0
  9
$DIMTXT
 40
2.5
  9
$DIMZIN
 70
8
  9
$DWGCODEPAGE
  3
ANSI_1252
  9
$INSUNITS
 70
4
  9
$LTSCALE
 40
1.0
  0
ENDSEC
  0
SECTION
  2
TABLES
  0
TABLE
  2
VPORT
  5
8
100
AcDbSymbolTable
 70
1
  0
VPORT
  5
30
100
AcDbSymbolTableRecord
100
AcDbViewportTableRecord
  2
*Active
 70
0
 10
0.0
 20
0.0
 11
1.0
 21
1.0
 12
286.3055555555554861
 22
148.5
 13
0.0
 23
0.0
 14
10.0
 24
10.0
 15
10.0
 25
10.0
 16
0.0
 26
0.0
 36
1.0
 17
0.0
 27
0.0
 37
0.0
 40
297.0
 41
1.92798353909465
 42
50.0
 43
0.0
 44
0.0
 50
0.0
 51
0.0
 71
0
 72
100
 73
1
 74
3
 75
1
 76
1
 77
0
 78
0
281
0
 65
1
110
0.0
120
0.0
130
0.0
111
1.0
121
0.0
131
0.0
112
0.0
122
1.0
132
0.0
 79
0
146
0.0
  0
ENDTAB
  0
TABLE
  2
LTYPE
  5
5
100
AcDbSymbolTable
 70
21
  0
LTYPE
  5
16
100
AcDbSymbolTableRecord
100
AcDbLinetypeTableRecord
  2
CONTINUOUS
 70
0
  3
Solid line
 72
65
 73
0
 40
0.0
  0
LTYPE
  5
31
100
AcDbSymbolTableRecord
100
AcDbLinetypeTableRecord
  2
CENTER2
 70
0
  3
Center (.5x) ___ _ ___ _ ___ _ ___ _ ___ _ ___
 72
65
 73
4
 40
28.5749999999999993
 49
19.0500000000000007
 74
0
 49
-3.1749999999999998
 74
0
 49
3.1749999999999998
 74
0
 49
-3.1749999999999998
 74
0
  0
LTYPE
  5
32
100
AcDbSymbolTableRecord
100
AcDbLinetypeTableRecord
  2
DIVIDEX2
 70
0
  3
Divide (2x) ________  .  .  ________  .  .  _
 72
65
 73
6
 40
63.5
 49
25.3999999999999986
 74
0
 49
-12.6999999999999993
 74
0
 49
0.0
 74
0
 49
-12.6999999999999993
 74
0
 49
0.0
 74
0
 49
-12.6999999999999993
 74
0
  0
LTYPE
  5
33
100
AcDbSymbolTableRecord
100
AcDbLinetypeTableRecord
  2
DOT2
 70
0
  3
Dot (.5x) .....................................
 72
65
 73
2
 40
3.1749999999999998
 49
0.0
 74
0
 49
-3.1749999999999998
 74
0
  0
LTYPE
  5
34
100
AcDbSymbolTableRecord
100
AcDbLinetypeTableRecord
  2
DASHDOT2
 70
0
  3
Dash dot (.5x) _._._._._._._._._._._._._._._.
 72
65
 73
4
 40
12.6999999999999993
 49
6.3499999999999996
 74
0
 49
-3.1749999999999998
 74
0
 49
0.0
 74
0
 49
-3.1749999999999998
 74
0
  0
LTYPE
  5
35
100
AcDbSymbolTableRecord
100
AcDbLinetypeTableRecord
  2
DIVIDE
 70
0
  3
Divide ____ . . ____ . . ____ . . ____ . . ____
 72
65
 73
6
 40
31.75
 49
12.6999999999999993
 74
0
 49
-6.3499999999999996
 74
0
 49
0.0
 74
0
 49
-6.3499999999999996
 74
0
 49
0.0
 74
0
 49
-6.3499999999999996
 74
0
  0
LTYPE
  5
36
100
AcDbSymbolTableRecord
100
AcDbLinetypeTableRecord
  2
DASHDOT
 70
0
  3
Dash dot __ . __ . __ . __ . __ . __ . __ . __
 72
65
 73
4
 40
25.3999999999999986
 49
12.6999999999999993
 74
0
 49
-6.3499999999999996
 74
0
 49
0.0
 74
0
 49
-6.3499999999999996
 74
0
  0
LTYPE
  5
37
100
AcDbSymbolTableRecord
100
AcDbLinetypeTableRecord
  2
BORDER
 70
0
  3
Border __ __ . __ __ . __ __ . __ __ . __ __ .
 72
65
 73
6
 40
44.4500000000000028
 49
12.6999999999999993
 74
0
 49
-6.3499999999999996
 74
0
 49
12.6999999999999993
 74
0
 49
-6.3499999999999996
 74
0
 49
0.0
 74
0
 49
-6.3499999999999996
 74
0
  0
LTYPE
  5
38
100
AcDbSymbolTableRecord
100
AcDbLinetypeTableRecord
  2
DASHDOTX2
 70
0
  3
Dash dot (2x) ____  .  ____  .  ____  .  ___
 72
65
 73
4
 40
50.7999999999999972
 49
25.3999999999999986
 74
0
 49
-12.6999999999999993
 74
0
 49
0.0
 74
0
 49
-12.6999999999999993
 74
0
  0
LTYPE
  5
39
100
AcDbSymbolTableRecord
100
AcDbLinetypeTableRecord
  2
CENTERX2
 70
0
  3
Center (2x) ________  __  ________  __  _____
 72
65
 73
4
 40
101.5999999999999943
 49
63.5
 74
0
 49
-12.6999999999999993
 74
0
 49
12.6999999999999993
 74
0
 49
-12.6999999999999993
 74
0
  0
LTYPE
  5
3A
100
AcDbSymbolTableRecord
100
AcDbLinetypeTableRecord
  2
BORDER2
 70
0
  3
Border (.5x) __.__.__.__.__.__.__.__.__.__.__.
 72
65
 73
6
 40
22.2250000000000014
 49
6.3499999999999996
 74
0
 49
-3.1749999999999998
 74
0
 49
6.3499999999999996
 74
0
 49
-3.1749999999999998
 74
0
 49
0.0
 74
0
 49
-3.1749999999999998
 74
0
  0
LTYPE
  5
3B
100
AcDbSymbolTableRecord
100
AcDbLinetypeTableRecord
  2
BORDERX2
 70
0
  3
Border (2x) ____  ____  .  ____  ____  .  ___
 72
65
 73
6
 40
88.9000000000000057
 49
25.3999999999999986
 74
0
 49
-12.6999999999999993
 74
0
 49
25.3999999999999986
 74
0
 49
-12.6999999999999993
 74
0
 49
0.0
 74
0
 49
-12.6999999999999993
 74
0
  0
LTYPE
  5
14
100
AcDbSymbolTableRecord
100
AcDbLinetypeTableRecord
  2
BYBLOCK
 70
0
  3

 72
65
 73
0
 40
0.0
  0
LTYPE
  5
15
100
AcDbSymbolTableRecord
100
AcDbLinetypeTableRecord
  2
BYLAYER
 70
0
  3

 72
65
 73
0
 40
0.0
  0
LTYPE
  5
3C
100
AcDbSymbolTableRecord
100
AcDbLinetypeTableRecord
  2
DASHED2
 70
0
  3
Dashed (.5x) _ _ _ _ _ _ _ _ _ _ _ _ _ _ _ _ _
 72
65
 73
2
 40
9.5250000000000004
 49
6.3499999999999996
 74
0
 49
-3.1749999999999998
 74
0
  0
LTYPE
  5
3D
100
AcDbSymbolTableRecord
100
AcDbLinetypeTableRecord
  2
CENTER
 70
0
  3
Center ____ _ ____ _ ____ _ ____ _ ____ _ ____
 72
65
 73
4
 40
50.7999999999999972
 49
31.75
 74
0
 49
-6.3499999999999996
 74
0
 49
6.3499999999999996
 74
0
 49
-6.3499999999999996
 74
0
  0
LTYPE
  5
3E
100
AcDbSymbolTableRecord
100
AcDbLinetypeTableRecord
  2
DIVIDE2
 70
0
  3
Divide (.5x) __..__..__..__..__..__..__..__.._
 72
65
 73
6
 40
15.875
 49
6.3499999999999996
 74
0
 49
-3.1749999999999998
 74
0
 49
0.0
 74
0
 49
-3.1749999999999998
 74
0
 49
0.0
 74
0
 49
-3.1749999999999998
 74
0
  0
LTYPE
  5
3F
100
AcDbSymbolTableRecord
100
AcDbLinetypeTableRecord
  2
DASHED
 70
0
  3
Dashed __ __ __ __ __ __ __ __ __ __ __ __ __ _
 72
65
 73
2
 40
19.0500000000000007
 49
12.6999999999999993
 74
0
 49
-6.3499999999999996
 74
0
  0
LTYPE
  5
40
100
AcDbSymbolTableRecord
100
AcDbLinetypeTableRecord
  2
DOTX2
 70
0
  3
Dot (2x) .  .  .  .  .  .  .  .  .  .  .  .  .
 72
65
 73
2
 40
12.6999999999999993
 49
0.0
 74
0
 49
-12.6999999999999993
 74
0
  0
LTYPE
  5
41
100
AcDbSymbolTableRecord
100
AcDbLinetypeTableRecord
  2
DASHEDX2
 70
0
  3
Dashed (2x) ____  ____  ____  ____  ____  ___
 72
65
 73
2
 40
38.1000000000000014
 49
25.3999999999999986
 74
0
 49
-12.6999999999999993
 74
0
  0
LTYPE
  5
42
100
AcDbSymbolTableRecord
100
AcDbLinetypeTableRecord
  2
DOT
 70
0
  3
Dot . . . . . . . . . . . . . . . . . . . . . .
 72
65
 73
2
 40
6.3499999999999996
 49
0.0
 74
0
 49
-6.3499999999999996
 74
0
  0
ENDTAB
  0
TABLE
  2
LAYER
  5
2
100
AcDbSymbolTable
 70
1
  0
LAYER
  5
10
100
AcDbSymbolTableRecord
100
AcDbLayerTableRecord
  2
0
 70
0
 62
7
420
0
  6
CONTINUOUS
370
25
390
F
  0
ENDTAB
  0
TABLE
  2
STYLE
  5
3
100
AcDbSymbolTable
 70
3
  0
STYLE
  5
43
100
AcDbSymbolTableRecord
100
AcDbTextStyleTableRecord
  2
Standard
 70
0
 40
0.0
 41
1.0
 50
0.0
 71
0
 42
2.5
  3

  4

1001
ACAD
1000
txt
1071
0
  0
STYLE
  5
44
100
AcDbSymbolTableRecord
100
AcDbTextStyleTableRecord
  2
textstyle0
 70
0
 40
0.0
 41
1.0
 50
0.0
 71
0
 42
2.5
  3

  4

1001
ACAD
1000
Liberation Sans
1071
0
  0
STYLE
  5
45
100
AcDbSymbolTableRecord
100
AcDbTextStyleTableRecord
  2
textstyle1
 70
0
 40
0.0
 41
1.0
 50
0.0
 71
0
 42
2.5
  3

  4

1001
ACAD
1000
Liberation Sans
1071
0
  0
ENDTAB
  0
TABLE
  2
VIEW
  5
6
100
AcDbSymbolTable
 70
0
  0
ENDTAB
  0
TABLE
  2
UCS
  5
7
100
AcDbSymbolTable
 70
0
  0
ENDTAB
  0
TABLE
  2
APPID
  5
9
100
AcDbSymbolTable
 70
1
  0
APPID
  5
12
100
AcDbSymbolTableRecord
100
AcDbRegAppTableRecord
  2
ACAD
 70
0
  0
APPID
  5
46
100
AcDbSymbolTableRecord
100
AcDbRegAppTableRecord
  2
QCAD
 70
0
  0
ENDTAB
  0
TABLE
  2
DIMSTYLE
  5
A
100
AcDbSymbolTable
 70
1
100
AcDbDimStyleTable
 71
0
  0
DIMSTYLE
105
27
100
AcDbSymbolTableRecord
100
AcDbDimStyleTableRecord
  2
Standard
 41
2.5
 42
0.625
 43
3.75
 44
1.25
 70
0
 73
0
 74
0
 77
1
 78
8
140
2.5
141
2.5
143
0.03937007874016
147
0.625
171
3
172
1
271
2
272
2
274
3
278
44
283
0
284
8
340
43
  0
ENDTAB
  0
TABLE
  2
BLOCK_RECORD
  5
1
100
AcDbSymbolTable
 70
1
  0
BLOCK_RECORD
  5
1F
100
AcDbSymbolTableRecord
100
AcDbBlockTableRecord
  2
*Model_Space
340
22
  0
BLOCK_RECORD
  5
1B
100
AcDbSymbolTableRecord
100
AcDbBlockTableRecord
  2
*Paper_Space
340
1E
  0
BLOCK_RECORD
  5
23
100
AcDbSymbolTableRecord
100
AcDbBlockTableRecord
  2
*Paper_Space0
340
26
  0
BLOCK_RECORD
  5
47
100
AcDbSymbolTableRecord
100
AcDbBlockTableRecord
  2
battery
340
0
  0
BLOCK_RECORD
  5
48
100
AcDbSymbolTableRecord
100
AcDbBlockTableRecord
  2
pcb
340
0
  0
BLOCK_RECORD
  5
49
100
AcDbSymbolTableRecord
100
AcDbBlockTableRecord
  2
wheel2_side
340
0
  0
BLOCK_RECORD
  5
4A
100
AcDbSymbolTableRecord
100
AcDbBlockTableRecord
  2
wheel1_top
340
0
  0
BLOCK_RECORD
  5
4B
100
AcDbSymbolTableRecord
100
AcDbBlockTableRecord
  2
motor
340
0
  0
BLOCK_RECORD
  5
4C
100
AcDbSymbolTableRecord
100
AcDbBlockTableRecord
  2
wheel_top
340
0
  0
ENDTAB
  0
ENDSEC
  0
SECTION
  2
BLOCKS
  0
BLOCK
  5
20
100
AcDbEntity
  8
0
100
AcDbBlockBegin
  2
*Model_Space
 70
0
 10
0.0
 20
0.0
 30
0.0
  3
*Model_Space
  1

  0
ENDBLK
  5
21
100
AcDbEntity
  8
0
100
AcDbBlockEnd
  0
BLOCK
  5
1C
100
AcDbEntity
 67
1
  8
0
100
AcDbBlockBegin
  2
*Paper_Space
 70
0
 10
0.0
 20
0.0
 30
0.0
  3
*Paper_Space
  1

  0
ENDBLK
  5
1D
100
AcDbEntity
 67
1
  8
0
100
AcDbBlockEnd
  0
BLOCK
  5
24
100
AcDbEntity
  8
0
100
AcDbBlockBegin
  2
*Paper_Space0
 70
0
 10
0.0
 20
0.0
 30
0.0
  3
*Paper_Space0
  1

  0
ENDBLK
  5
25
100
AcDbEntity
  8
0
100
AcDbBlockEnd
  0
BLOCK
  5
4D
100
AcDbEntity
  8
0
100
AcDbBlockBegin
  2
battery
 70
0
 10
0.0
 20
0.0
 30
0.0
  3
battery
  1

  0
HATCH
  5
4E
  8
0
 62
252
420
10526884
370
-1
  6
BYLAYER
100
AcDbEntity
100
AcDbHatch
 10
0.0
 20
0.0
 30
0.0
210
0.0
220
0.0
230
1.0
  2
SOLID
 70
1
 71
0
 91
1
 92
1
 93
8
 72
2
 10
23.25
 20
33.75
 40
1.0
 50
270.0
 51
360.0
 73
0
 72
1
 10
24.25
 20
33.75
 11
24.25
 21
-33.75
 72
2
 10
23.25
 20
-33.75
 40
1.0
 50
360.0
 51
90.0
 73
0
 72
1
 10
23.25
 20
-34.75
 11
-23.25
 21
-34.75
 72
2
 10
-23.25
 20
-33.75
 40
1.0
 50
90.0
 51
180.0
 73
0
 72
1
 10
-24.25
 20
-33.75
 11
-24.25
 21
33.75
 72
2
 10
-23.25
 20
33.75
 40
1.0
 50
180.0
 51
270.0
 73
0
 72
1
 10
-23.25
 20
34.75
 11
23.25
 21
34.75
 97
0
 75
0
 76
1
 98
0
1001
ACAD
1010
0.0
1020
0.0
1030
0
  0
LINE
  5
4F
100
AcDbEntity
100
AcDbLine
  8
0
 62
7
420
0
370
-1
  6
BYLAYER
 10
-24.25
 20
-33.75
 30
0.0
 11
24.25
 21
-33.75
 31
0.0
  0
ARC
  5
50
100
AcDbEntity
  8
0
 62
7
420
0
370
-1
  6
BYLAYER
100
AcDbCircle
 10
-23.25
 20
-33.75
 30
0.0
 40
1.0
100
AcDbArc
 50
180.0
 51
270.0
  0
ARC
  5
51
100
AcDbEntity
  8
0
 62
7
420
0
370
-1
  6
BYLAYER
100
AcDbCircle
 10
23.25
 20
33.75
 30
0.0
 40
1.0
100
AcDbArc
 50
0.0
 51
90.0
  0
ARC
  5
52
100
AcDbEntity
  8
0
 62
7
420
0
370
-1
  6
BYLAYER
100
AcDbCircle
 10
-23.25
 20
33.75
 30
0.0
 40
1.0
100
AcDbArc
 50
90.0
 51
180.0
  0
LINE
  5
53
100
AcDbEntity
100
AcDbLine
  8
0
 62
7
420
0
370
-1
  6
BYLAYER
 10
-24.25
 20
33.75
 30
0.0
 11
-24.25
 21
-33.75
 31
0.0
  0
LINE
  5
54
100
AcDbEntity
100
AcDbLine
  8
0
 62
7
420
0
370
-1
  6
BYLAYER
 10
23.25
 20
34.75
 30
0.0
 11
-23.25
 21
34.75
 31
0.0
  0
LINE
  5
55
100
AcDbEntity
100
AcDbLine
  8
0
 62
7
420
0
370
-1
  6
BYLAYER
 10
-23.25
 20
-34.75
 30
0.0
 11
23.25
 21
-34.75
 31
0.0
  0
LINE
  5
56
100
AcDbEntity
100
AcDbLine
  8
0
 62
7
420
0
370
-1
  6
BYLAYER
 10
-16.5
 20
-28.25
 30
0.0
 11
-16.5
 21
-31.75
 31
0.0
  0
LINE
  5
57
100
AcDbEntity
100
AcDbLine
  8
0
 62
7
420
0
370
-1
  6
BYLAYER
 10
-9.5
 20
-28.25
 30
0.0
 11
-16.5
 21
-28.25
 31
0.0
  0
LINE
  5
58
100
AcDbEntity
100
AcDbLine
  8
0
 62
7
420
0
370
-1
  6
BYLAYER
 10
-9.5
 20
-31.75
 30
0.0
 11
-9.5
 21
-28.25
 31
0.0
  0
LINE
  5
59
100
AcDbEntity
100
AcDbLine
  8
0
 62
7
420
0
370
-1
  6
BYLAYER
 10
-16.5
 20
-31.75
 30
0.0
 11
-9.5
 21
-31.75
 31
0.0
  0
LINE
  5
5A
100
AcDbEntity
100
AcDbLine
  8
0
 62
7
420
0
370
-1
  6
BYLAYER
 10
24.25
 20
-33.75
 30
0.0
 11
24.25
 21
33.75
 31
0.0
  0
ARC
  5
5B
100
AcDbEntity
  8
0
 62
7
420
0
370
-1
  6
BYLAYER
100
AcDbCircle
 10
23.25
 20
-33.75
 30
0.0
 40
1.0
100
AcDbArc
 50
270.0
 51
0.0
  0
ARC
  5
5C
100
AcDbEntity
  8
0
 62
7
420
0
370
-1
  6
BYLAYER
100
AcDbCircle
 10
23.25
 20
33.75
 30
0.0
 40
1.0
100
AcDbArc
 50
0.0
 51
90.0
  0
ARC
  5
5D
100
AcDbEntity
  8
0
 62
7
420
0
370
-1
  6
BYLAYER
100
AcDbCircle
 10
23.25
 20
-33.75
 30
0.0
 40
1.0
100
AcDbArc
 50
270.0
 51
0.0
  0
ARC
  5
5E
100
AcDbEntity
  8
0
 62
7
420
0
370
-1
  6
BYLAYER
100
AcDbCircle
 10
-23.25
 20
-33.75
 30
0.0
 40
1.0
100
AcDbArc
 50
180.0
 51
270.0
  0
LINE
  5
5F
100
AcDbEntity
100
AcDbLine
  8
0
 62
7
420
0
370
-1
  6
BYLAYER
 10
-24.25
 20
-33.75
 30
0.0
 11
24.25
 21
-33.75
 31
0.0
  0
LINE
  5
60
100
AcDbEntity
100
AcDbLine
  8
0
 62
7
420
0
370
-1
  6
BYLAYER
 10
-16.5
 20
-31.75
 30
0.0
 11
-9.5
 21
-31.75
 31
0.0
  0
LINE
  5
61
100
AcDbEntity
100
AcDbLine
  8
0
 62
7
420
0
370
-1
  6
BYLAYER
 10
-9.5
 20
-31.75
 30
0.0
 11
-9.5
 21
-28.25
 31
0.0
  0
LINE
  5
62
100
AcDbEntity
100
AcDbLine
  8
0
 62
7
420
0
370
-1
  6
BYLAYER
 10
-9.5
 20
-28.25
 30
0.0
 11
-16.5
 21
-28.25
 31
0.0
  0
LINE
  5
63
100
AcDbEntity
100
AcDbLine
  8
0
 62
7
420
0
370
-1
  6
BYLAYER
 10
-16.5
 20
-28.25
 30
0.0
 11
-16.5
 21
-31.75
 31
0.0
  0
LINE
  5
64
100
AcDbEntity
100
AcDbLine
  8
0
 62
7
420
0
370
-1
  6
BYLAYER
 10
-23.25
 20
-34.75
 30
0.0
 11
23.25
 21
-34.75
 31
0.0
  0
LINE
  5
65
100
AcDbEntity
100
AcDbLine
  8
0
 62
7
420
0
370
-1
  6
BYLAYER
 10
23.25
 20
34.75
 30
0.0
 11
-23.25
 21
34.75
 31
0.0
  0
LINE
  5
66
100
AcDbEntity
100
AcDbLine
  8
0
 62
7
420
0
370
-1
  6
BYLAYER
 10
-24.25
 20
33.75
 30
0.0
 11
-24.25
 21
-33.75
 31
0.0
  0
ARC
  5
67
100
AcDbEntity
  8
0
 62
7
420
0
370
-1
  6
BYLAYER
100
AcDbCircle
 10
-23.25
 20
33.75
 30
0.0
 40
1.0
100
AcDbArc
 50
90.0
 51
180.0
  0
ENDBLK
  5
68
100
AcDbEntity
  8
0
100
AcDbBlockEnd
  0
BLOCK
  5
69
100
AcDbEntity
  8
0
100
AcDbBlockBegin
  2
pcb
 70
0
 10
0.0
 20
0.0
 30
0.0
  3
pcb
  1

  0
HATCH
  5
6A
  8
0
 62
13
420
13977672
370
-1
  6
BYLAYER
100
AcDbEntity
100
AcDbHatch
 10
0.0
 20
0.0
 30
0.0
210
0.0
220
0.0
230
1.0
  2
SOLID
 70
1
 71
0
 91
1
 92
1
 93
12
 72
1
 10
-24.25
 20
-16.5
 11
-10.25
 21
-16.5
 72
1
 10
-10.25
 20
-16.5
 11
-10.25
 21
16.5
 72
1
 10
-10.25
 20
16.5
 11
-24.25
 21
16.5
 72
1
 10
-24.25
 20
16.5
 11
-24.25
 21
21.25
 72
2
 10
-21.25
 20
21.25
 40
3.0
 50
180.0
 51
270.0
 73
0
 72
1
 10
-21.25
 20
24.25
 11
21.25
 21
24.25
 72
2
 10
21.25
 20
21.25
 40
3.0
 50
270.0
 51
360.0
 73
0
 72
1
 10
24.25
 20
21.25
 11
24.25
 21
-21.25
 72
2
 10
21.25
 20
-21.25
 40
3.0
 50
360.0
 51
90.0
 73
0
 72
1
 10
21.25
 20
-24.25
 11
-21.25
 21
-24.25
 72
2
 10
-21.25
 20
-21.25
 40
3.0
 50
90.0
 51
180.0
 73
0
 72
1
 10
-24.25
 20
-21.25
 11
-24.25
 21
-16.5
 97
0
 75
0
 76
1
 98
0
1001
ACAD
1010
0.0
1020
0.0
1030
0
  0
LINE
  5
6B
100
AcDbEntity
100
AcDbLine
  8
0
 62
256
370
-1
  6
BYLAYER
 10
-21.25
 20
-24.25
 30
0.0
 11
21.25
 21
-24.25
 31
0.0
  0
LINE
  5
6C
100
AcDbEntity
100
AcDbLine
  8
0
 62
256
370
-1
  6
BYLAYER
 10
24.25
 20
-21.25
 30
0.0
 11
24.25
 21
21.25
 31
0.0
  0
LINE
  5
6D
100
AcDbEntity
100
AcDbLine
  8
0
 62
256
370
-1
  6
BYLAYER
 10
21.25
 20
24.25
 30
0.0
 11
-21.25
 21
24.25
 31
0.0
  0
ARC
  5
6E
100
AcDbEntity
  8
0
 62
256
370
-1
  6
BYLAYER
100
AcDbCircle
 10
-21.25
 20
21.25
 30
0.0
 40
3.0
100
AcDbArc
 50
90.0
 51
180.0
  0
ARC
  5
6F
100
AcDbEntity
  8
0
 62
256
370
-1
  6
BYLAYER
100
AcDbCircle
 10
21.25
 20
21.25
 30
0.0
 40
3.0
100
AcDbArc
 50
0.0
 51
90.0
  0
ARC
  5
70
100
AcDbEntity
  8
0
 62
256
370
-1
  6
BYLAYER
100
AcDbCircle
 10
21.25
 20
-21.25
 30
0.0
 40
3.0
100
AcDbArc
 50
270.0
 51
0.0
  0
ARC
  5
71
100
AcDbEntity
  8
0
 62
256
370
-1
  6
BYLAYER
100
AcDbCircle
 10
-21.25
 20
-21.25
 30
0.0
 40
3.0
100
AcDbArc
 50
180.0
 51
270.0
  0
LINE
  5
72
100
AcDbEntity
100
AcDbLine
  8
0
 62
256
370
-1
  6
BYLAYER
 10
-24.25
 20
-16.5
 30
0.0
 11
-10.25
 21
-16.5
 31
0.0
  0
LINE
  5
73
100
AcDbEntity
100
AcDbLine
  8
0
 62
256
370
-1
  6
BYLAYER
 10
-10.25
 20
-16.5
 30
0.0
 11
-10.25
 21
16.5
 31
0.0
  0
LINE
  5
74
100
AcDbEntity
100
AcDbLine
  8
0
 62
256
370
-1
  6
BYLAYER
 10
-10.25
 20
16.5
 30
0.0
 11
-24.25
 21
16.5
 31
0.0
  0
CIRCLE
  5
75
100
AcDbEntity
100
AcDbCircle
  8
0
 62
256
370
-1
  6
BYLAYER
 10
-20.75
 20
20.75
 30
0.0
 40
1.75
  0
CIRCLE
  5
76
100
AcDbEntity
100
AcDbCircle
  8
0
 62
256
370
-1
  6
BYLAYER
 10
20.75
 20
20.75
 30
0.0
 40
1.75
  0
CIRCLE
  5
77
100
AcDbEntity
100
AcDbCircle
  8
0
 62
256
370
-1
  6
BYLAYER
 10
20.75
 20
-20.75
 30
0.0
 40
1.75
  0
CIRCLE
  5
78
100
AcDbEntity
100
AcDbCircle
  8
0
 62
256
370
-1
  6
BYLAYER
 10
-20.75
 20
-20.75
 30
0.0
 40
1.75
  0
LINE
  5
79
100
AcDbEntity
100
AcDbLine
  8
0
 62
256
370
-1
  6
BYLAYER
 10
-24.25
 20
16.5
 30
0.0
 11
-24.25
 21
-16.5
 31
0.0
  0
HATCH
  5
7A
  8
0
 62
9
420
12632256
370
-1
  6
BYLAYER
100
AcDbEntity
100
AcDbHatch
 10
0.0
 20
0.0
 30
0.0
210
0.0
220
0.0
230
1.0
  2
ANSI37
 70
0
 71
0
 91
1
 92
1
 93
4
 72
1
 10
-24.25
 20
-16.5
 11
-10.25
 21
-16.5
 72
1
 10
-10.25
 20
-16.5
 11
-10.25
 21
16.5
 72
1
 10
-10.25
 20
16.5
 11
-24.25
 21
16.5
 72
1
 10
-24.25
 20
16.5
 11
-24.25
 21
-16.5
 97
0
 75
0
 76
1
 52
0.0
 41
1.0
 77
0
 78
1
 53
45.0
 43
0.0
 44
0.0
 45
-0.0883883476483184
 46
0.0883883476483185
 79
0
 98
0
1001
ACAD
1010
0.0
1020
0.0
1030
0
  0
LINE
  5
7B
100
AcDbEntity
100
AcDbLine
  8
0
 62
256
370
-1
  6
BYLAYER
 10
-24.25
 20
-21.25
 30
0.0
 11
-24.25
 21
-16.5
 31
0.0
  0
LINE
  5
7C
100
AcDbEntity
100
AcDbLine
  8
0
 62
256
370
-1
  6
BYLAYER
 10
-24.25
 20
21.25
 30
0.0
 11
-24.25
 21
16.5
 31
0.0
  0
ENDBLK
  5
7D
100
AcDbEntity
  8
0
100
AcDbBlockEnd
  0
BLOCK
  5
7E
100
AcDbEntity
  8
0
100
AcDbBlockBegin
  2
wheel2_side
 70
0
 10
0.0
 20
0.0
 30
0.0
  3
wheel2_side
  1

  0
CIRCLE
  5
7F
100
AcDbEntity
100
AcDbCircle
  8
0
 62
256
370
-1
  6
DASHED
 10
0.0
 20
0.0
 30
0.0
 40
50.0
  0
LINE
  5
80
100
AcDbEntity
100
AcDbLine
  8
0
 62
256
370
-1
  6
BYLAYER
 10
-4.0
 20
12.0
 30
0.0
 11
-4.0
 21
38.9743505398101462
 31
0.0
  0
LINE
  5
81
100
AcDbEntity
100
AcDbLine
  8
0
 62
256
370
-1
  6
BYLAYER
 10
4.0
 20
38.9743505398101462
 30
0.0
 11
4.0
 21
12.0
 31
0.0
  0
ARC
  5
82
100
AcDbEntity
  8
0
 62
256
370
-1
  6
BYLAYER
100
AcDbCircle
 10
9.0
 20
12.0
 30
0.0
 40
5.0
100
AcDbArc
 50
180.0
 51
233.13010235415598
  0
ARC
  5
83
100
AcDbEntity
  8
0
 62
256
370
-1
  6
BYLAYER
100
AcDbCircle
 10
-9.0
 20
12.0
 30
0.0
 40
5.0
100
AcDbArc
 50
306.8698976458440484
 51
0.0
  0
ARC
  5
84
100
AcDbEntity
  8
0
 62
256
370
-1
  6
BYLAYER
100
AcDbCircle
 10
0.0
 20
0.0
 30
0.0
 40
10.0
100
AcDbArc
 50
126.86989764584402
 51
173.1301023541559516
  0
LINE
  5
85
100
AcDbEntity
100
AcDbLine
  8
0
 62
256
370
-1
  6
BYLAYER
 10
-8.392304845413264
 20
-9.4641016151377517
 30
0.0
 11
-31.7527776634753458
 21
-22.9512768850428301
 31
0.0
  0
LINE
  5
86
100
AcDbEntity
100
AcDbLine
  8
0
 62
256
370
-1
  6
BYLAYER
 10
-35.7527776634753423
 20
-16.0230736547673089
 30
0.0
 11
-12.392304845413264
 21
-2.5358983848622429
 31
0.0
  0
ARC
  5
87
100
AcDbEntity
  8
0
 62
256
370
-1
  6
BYLAYER
100
AcDbCircle
 10
-14.892304845413264
 20
1.7942286340599503
 30
0.0
 40
5.0
100
AcDbArc
 50
300.0
 51
353.1301023541559516
  0
ARC
  5
88
100
AcDbEntity
  8
0
 62
256
370
-1
  6
BYLAYER
100
AcDbCircle
 10
-5.892304845413264
 20
-13.7942286340599427
 30
0.0
 40
5.0
100
AcDbArc
 50
66.8698976458439773
 51
120.0
  0
LINE
  5
89
100
AcDbEntity
100
AcDbLine
  8
0
 62
256
370
-1
  6
BYLAYER
 10
12.392304845413264
 20
-2.5358983848622532
 30
0.0
 11
35.752777663475328
 21
-16.0230736547673303
 31
0.0
  0
LINE
  5
8A
100
AcDbEntity
100
AcDbLine
  8
0
 62
256
370
-1
  6
BYLAYER
 10
31.7527776634753316
 20
-22.9512768850428373
 30
0.0
 11
8.392304845413264
 21
-9.4641016151377588
 31
0.0
  0
ARC
  5
8B
100
AcDbEntity
  8
0
 62
256
370
-1
  6
BYLAYER
100
AcDbCircle
 10
5.892304845413264
 20
-13.7942286340599516
 30
0.0
 40
5.0
100
AcDbArc
 50
59.9999999999999858
 51
113.1301023541560227
  0
ARC
  5
8C
100
AcDbEntity
  8
0
 62
256
370
-1
  6
BYLAYER
100
AcDbCircle
 10
14.892304845413264
 20
1.7942286340599383
 30
0.0
 40
5.0
100
AcDbArc
 50
186.8698976458440484
 51
240.0
  0
ARC
  5
8D
100
AcDbEntity
  8
0
 62
256
370
-1
  6
BYLAYER
100
AcDbCircle
 10
0.0
 20
0.0
 30
0.0
 40
10.0
100
AcDbArc
 50
6.8698976458439454
 51
53.1301023541559871
  0
ARC
  5
8E
100
AcDbEntity
  8
0
 62
256
370
-1
  6
BYLAYER
100
AcDbCircle
 10
0.0
 20
0.0
 30
0.0
 40
10.0
100
AcDbArc
 50
246.8698976458439063
 51
293.1301023541558948
  0
CIRCLE
  5
8F
100
AcDbEntity
100
AcDbCircle
  8
0
 62
256
370
-1
  6
BYLAYER
 10
0.0
 20
0.0
 30
0.0
 40
1.0
  0
CIRCLE
  5
90
100
AcDbEntity
100
AcDbCircle
  8
0
 62
256
370
-1
  6
BYLAYER
 10
0.0
 20
0.0
 30
0.0
 40
55.0
  0
ARC
  5
91
100
AcDbEntity
  8
0
 62
256
370
-1
  6
BYLAYER
100
AcDbCircle
 10
-9.0
 20
38.9743505398101462
 30
0.0
 40
5.0
100
AcDbArc
 50
0.0
 51
103.0028781629139587
  0
ARC
  5
92
100
AcDbEntity
  8
0
 62
256
370
-1
  6
BYLAYER
100
AcDbCircle
 10
9.0
 20
38.9743505398101462
 30
0.0
 40
5.0
100
AcDbArc
 50
76.9971218370860413
 51
180.0
  0
ARC
  5
93
100
AcDbEntity
  8
0
 62
256
370
-1
  6
BYLAYER
100
AcDbCircle
 10
38.2527776634753351
 20
-11.692946635845141
 30
0.0
 40
5.0
100
AcDbArc
 50
239.9999999999999432
 51
343.0028781629139303
  0
ARC
  5
94
100
AcDbEntity
  8
0
 62
256
370
-1
  6
BYLAYER
100
AcDbCircle
 10
29.2527776634753316
 20
-27.2814039039650318
 30
0.0
 40
5.0
100
AcDbArc
 50
316.9971218370860129
 51
60.0000000000000071
  0
ARC
  5
95
100
AcDbEntity
  8
0
 62
256
370
-1
  6
BYLAYER
100
AcDbCircle
 10
-29.2527776634753458
 20
-27.2814039039650211
 30
0.0
 40
5.0
100
AcDbArc
 50
120.0000000000000142
 51
223.0028781629138734
  0
ARC
  5
96
100
AcDbEntity
  8
0
 62
256
370
-1
  6
BYLAYER
100
AcDbCircle
 10
-38.2527776634753423
 20
-11.692946635845118
 30
0.0
 40
5.0
100
AcDbArc
 50
196.9971218370860697
 51
300.0
  0
ARC
  5
97
100
AcDbEntity
  8
0
 62
256
370
-1
  6
BYLAYER
100
AcDbCircle
 10
0.0
 20
0.0
 30
0.0
 40
45.0
100
AcDbArc
 50
223.0028781629139303
 51
316.9971218370860129
  0
ARC
  5
98
100
AcDbEntity
  8
0
 62
256
370
-1
  6
BYLAYER
100
AcDbCircle
 10
0.0
 20
0.0
 30
0.0
 40
45.0
100
AcDbArc
 50
343.0028781629139303
 51
76.9971218370860697
  0
ARC
  5
99
100
AcDbEntity
  8
0
 62
256
370
-1
  6
BYLAYER
100
AcDbCircle
 10
0.0
 20
0.0
 30
0.0
 40
45.0
100
AcDbArc
 50
103.0028781629139587
 51
196.9971218370860697
  0
ENDBLK
  5
9A
100
AcDbEntity
  8
0
100
AcDbBlockEnd
  0
BLOCK
  5
9B
100
AcDbEntity
  8
0
100
AcDbBlockBegin
  2
wheel1_top
 70
0
 10
0.0
 20
0.0
 30
0.0
  3
wheel1_top
  1

  0
LINE
  5
9C
100
AcDbEntity
100
AcDbLine
  8
0
 62
256
370
-1
  6
BYLAYER
 10
-50.0
 20
-6.0
 30
0.0
 11
50.0
 21
-6.0
 31
0.0
  0
LINE
  5
9D
100
AcDbEntity
100
AcDbLine
  8
0
 62
256
370
-1
  6
BYLAYER
 10
50.0
 20
0.0
 30
0.0
 11
-50.0
 21
0.0
 31
0.0
  0
LINE
  5
9E
100
AcDbEntity
100
AcDbLine
  8
0
 62
256
370
-1
  6
BYLAYER
 10
-50.0
 20
-5.5377155080899065
 30
0.0
 11
-50.0
 21
-6.0
 31
0.0
  0
LINE
  5
9F
100
AcDbEntity
100
AcDbLine
  8
0
 62
256
370
-1
  6
BYLAYER
 10
-4.75
 20
-12.0
 30
0.0
 11
4.75
 21
-12.0
 31
0.0
  0
LINE
  5
A0
100
AcDbEntity
100
AcDbLine
  8
0
 62
256
370
-1
  6
BYLAYER
 10
4.75
 20
-12.0
 30
0.0
 11
4.75
 21
-6.0
 31
0.0
  0
LINE
  5
A1
100
AcDbEntity
100
AcDbLine
  8
0
 62
256
370
-1
  6
BYLAYER
 10
4.75
 20
-6.0
 30
0.0
 11
-4.75
 21
-6.0
 31
0.0
  0
LINE
  5
A2
100
AcDbEntity
100
AcDbLine
  8
0
 62
256
370
-1
  6
BYLAYER
 10
-4.75
 20
-6.0
 30
0.0
 11
-4.75
 21
-12.0
 31
0.0
  0
LINE
  5
A3
100
AcDbEntity
100
AcDbLine
  8
0
 62
256
370
-1
  6
BYLAYER
 10
-4.75
 20
-18.0
 30
0.0
 11
4.75
 21
-18.0
 31
0.0
  0
LINE
  5
A4
100
AcDbEntity
100
AcDbLine
  8
0
 62
256
370
-1
  6
BYLAYER
 10
4.75
 20
-12.0
 30
0.0
 11
-4.75
 21
-12.0
 31
0.0
  0
ARC
  5
A5
100
AcDbEntity
  8
0
 62
256
370
-1
  6
BYLAYER
100
AcDbCircle
 10
-51.5999999999999943
 20
-2.9999999999999996
 30
0.0
 40
3.0
100
AcDbArc
 50
302.2309526355019784
 51
57.7690473644980216
  0
LINE
  5
A6
100
AcDbEntity
100
AcDbLine
  8
0
 62
256
370
-1
  6
BYLAYER
 10
-50.0
 20
-0.4622844919100921
 30
0.0
 11
-50.0
 21
0.0
 31
0.0
  0
LINE
  5
A7
100
AcDbEntity
100
AcDbLine
  8
0
 62
256
370
-1
  6
BYLAYER
 10
50.0
 20
-5.5377155080900042
 30
0.0
 11
50.0
 21
-6.0
 31
0.0
  0
ARC
  5
A8
100
AcDbEntity
  8
0
 62
256
370
-1
  6
BYLAYER
100
AcDbCircle
 10
51.5999999999999943
 20
-2.9999999999999551
 30
0.0
 40
3.0
100
AcDbArc
 50
122.2309526355019784
 51
237.7690473644979932
  0
LINE
  5
A9
100
AcDbEntity
100
AcDbLine
  8
0
 62
256
370
-1
  6
BYLAYER
 10
50.0
 20
-0.4622844919100553
 30
0.0
 11
50.0
 21
0.0000000000000266
 31
0.0
  0
LINE
  5
AA
100
AcDbEntity
100
AcDbLine
  8
0
 62
256
370
-1
  6
BYLAYER
 10
4.75
 20
-17.5377155080900025
 30
0.0
 11
4.75
 21
-18.0
 31
0.0
  0
ARC
  5
AB
100
AcDbEntity
  8
0
 62
256
370
-1
  6
BYLAYER
100
AcDbCircle
 10
6.3499999999999943
 20
-14.9999999999999556
 30
0.0
 40
3.0
100
AcDbArc
 50
122.2309526355019784
 51
237.7690473644979932
  0
LINE
  5
AC
100
AcDbEntity
100
AcDbLine
  8
0
 62
256
370
-1
  6
BYLAYER
 10
4.75
 20
-12.4622844919100544
 30
0.0
 11
4.75
 21
-11.9999999999999734
 31
0.0
  0
LINE
  5
AD
100
AcDbEntity
100
AcDbLine
  8
0
 62
256
370
-1
  6
BYLAYER
 10
-4.75
 20
-17.5377155080900025
 30
0.0
 11
-4.75
 21
-18.0
 31
0.0
  0
ARC
  5
AE
100
AcDbEntity
  8
0
 62
256
370
-1
  6
BYLAYER
100
AcDbCircle
 10
-6.3499999999999952
 20
-14.9999999999999556
 30
0.0
 40
3.0
100
AcDbArc
 50
302.2309526355019784
 51
57.7690473644980216
  0
LINE
  5
AF
100
AcDbEntity
100
AcDbLine
  8
0
 62
256
370
-1
  6
BYLAYER
 10
-4.7499999999999982
 20
-12.4622844919100544
 30
0.0
 11
-4.7500000000000009
 21
-11.9999999999999751
 31
0.0
  0
ENDBLK
  5
B0
100
AcDbEntity
  8
0
100
AcDbBlockEnd
  0
BLOCK
  5
B1
100
AcDbEntity
  8
0
100
AcDbBlockBegin
  2
motor
 70
0
 10
0.0
 20
0.0
 30
0.0
  3
motor
  1

  0
LINE
  5
B2
100
AcDbEntity
100
AcDbLine
  8
0
 62
256
370
-1
  6
BYLAYER
 10
-3.0
 20
7.0
 30
0.0
 11
3.0
 21
7.0
 31
0.0
  0
LINE
  5
B3
100
AcDbEntity
100
AcDbLine
  8
0
 62
256
370
-1
  6
BYLAYER
 10
3.0
 20
1.0
 30
0.0
 11
-3.0
 21
1.0
 31
0.0
  0
LINE
  5
B4
100
AcDbEntity
100
AcDbLine
  8
0
 62
256
370
-1
  6
BYLAYER
 10
-1.0
 20
8.9999999999999716
 30
0.0
 11
1.0
 21
8.9999999999999716
 31
0.0
  0
LINE
  5
B5
100
AcDbEntity
100
AcDbLine
  8
0
 62
256
370
-1
  6
BYLAYER
 10
3.0000000000000497
 20
-26.0000000000000746
 30
0.0
 11
3.0000000000000493
 21
-26.0000000000000746
 31
0.0
  0
LINE
  5
B6
100
AcDbEntity
100
AcDbLine
  8
0
 62
256
370
-1
  6
BYLAYER
 10
4.0
 20
-1.0
 30
0.0
 11
4.0
 21
-1.0
 31
0.0
  0
LINE
  5
B7
100
AcDbEntity
100
AcDbLine
  8
0
 62
256
370
-1
  6
BYLAYER
 10
1.0
 20
8.9999999999999716
 30
0.0
 11
1.0
 21
7.0
 31
0.0
  0
LINE
  5
B8
100
AcDbEntity
100
AcDbLine
  8
0
 62
256
370
-1
  6
BYLAYER
 10
1.0
 20
7.0
 30
0.0
 11
1.0
 21
7.0
 31
0.0
  0
LINE
  5
B9
100
AcDbEntity
100
AcDbLine
  8
0
 62
256
370
-1
  6
BYLAYER
 10
-1.0
 20
8.9999999999999716
 30
0.0
 11
-1.0
 21
7.0
 31
0.0
  0
LINE
  5
BA
100
AcDbEntity
100
AcDbLine
  8
0
 62
256
370
-1
  6
BYLAYER
 10
-1.0
 20
7.0
 30
0.0
 11
-1.0
 21
7.0
 31
0.0
  0
LINE
  5
BB
100
AcDbEntity
100
AcDbLine
  8
0
 62
256
370
-1
  6
BYLAYER
 10
-1.0
 20
1.0
 30
0.0
 11
-1.0
 21
0.0
 31
0.0
  0
LINE
  5
BC
100
AcDbEntity
100
AcDbLine
  8
0
 62
256
370
-1
  6
BYLAYER
 10
1.0
 20
1.0
 30
0.0
 11
1.0
 21
0.0
 31
0.0
  0
LINE
  5
BD
100
AcDbEntity
100
AcDbLine
  8
0
 62
256
370
-1
  6
BYLAYER
 10
1.0
 20
0.0
 30
0.0
 11
1.0
 21
0.0
 31
0.0
  0
HATCH
  5
BE
  8
0
 62
254
420
15461355
370
-1
  6
BYLAYER
100
AcDbEntity
100
AcDbHatch
 10
0.0
 20
0.0
 30
0.0
210
0.0
220
0.0
230
1.0
  2
SOLID
 70
1
 71
0
 91
2
 92
1
 93
4
 72
1
 10
7.5
 20
-26.0000000000001847
 11
-7.5
 21
-25.9999999999998153
 72
1
 10
-7.5
 20
-25.9999999999998153
 11
-7.5
 21
-1.0
 72
1
 10
-7.5
 20
-1.0
 11
7.5
 21
-1.0
 72
1
 10
7.5
 20
-1.0
 11
7.5
 21
-26.0000000000001883
 97
0
 92
1
 93
1
 72
1
 10
3.0000000000000497
 20
-26.0000000000000746
 11
3.0000000000000493
 21
-26.0000000000000746
 97
0
 75
0
 76
1
 98
0
1001
ACAD
1010
0.0
1020
0.0
1030
0
  0
HATCH
  5
BF
  8
0
 62
254
420
15461355
370
-1
  6
BYLAYER
100
AcDbEntity
100
AcDbHatch
 10
0.0
 20
0.0
 30
0.0
210
0.0
220
0.0
230
1.0
  2
SOLID
 70
1
 71
0
 91
2
 92
1
 93
4
 72
1
 10
-3.0
 20
-25.9999999999999254
 11
3.0000000000000497
 21
-26.0000000000000746
 72
1
 10
3.0000000000000497
 20
-26.0000000000000746
 11
3.0
 21
-28.0
 72
1
 10
3.0
 20
-28.0
 11
-3.0
 21
-28.0
 72
1
 10
-3.0
 20
-28.0
 11
-3.0
 21
-26.0
 97
0
 92
1
 93
1
 72
1
 10
3.0000000000000497
 20
-26.0000000000000746
 11
3.0000000000000493
 21
-26.0000000000000746
 97
0
 75
0
 76
1
 98
0
1001
ACAD
1010
0.0
1020
0.0
1030
0
  0
HATCH
  5
C0
  8
0
 62
254
420
15461355
370
-1
  6
BYLAYER
100
AcDbEntity
100
AcDbHatch
 10
0.0
 20
0.0
 30
0.0
210
0.0
220
0.0
230
1.0
  2
SOLID
 70
1
 71
0
 91
2
 92
1
 93
1
 72
1
 10
1.0
 20
0.0
 11
1.0
 21
0.0
 97
0
 92
1
 93
5
 72
1
 10
4.0
 20
-1.0
 11
-4.0
 21
-1.0
 72
1
 10
-4.0
 20
-1.0
 11
-4.0
 21
0.0
 72
1
 10
-4.0
 20
0.0
 11
4.0
 21
0.0
 72
1
 10
4.0
 20
0.0
 11
4.0
 21
-1.0
 72
1
 10
4.0
 20
-1.0
 11
4.0
 21
-1.0
 97
0
 75
0
 76
1
 98
0
1001
ACAD
1010
0.0
1020
0.0
1030
0
  0
LINE
  5
C1
100
AcDbEntity
100
AcDbLine
  8
0
 62
256
370
-1
  6
BYLAYER
 10
-3.0
 20
-25.9999999999999254
 30
0.0
 11
3.0000000000000497
 21
-26.0000000000000746
 31
0.0
  0
LINE
  5
C2
100
AcDbEntity
100
AcDbLine
  8
0
 62
256
370
-1
  6
BYLAYER
 10
-7.5
 20
-1.0
 30
0.0
 11
7.5
 21
-1.0
 31
0.0
  0
LINE
  5
C3
100
AcDbEntity
100
AcDbLine
  8
0
 62
256
370
-1
  6
BYLAYER
 10
4.0
 20
-1.0
 30
0.0
 11
-4.0
 21
-1.0
 31
0.0
  0
LINE
  5
C4
100
AcDbEntity
100
AcDbLine
  8
0
 62
256
370
-1
  6
BYLAYER
 10
4.0
 20
0.0
 30
0.0
 11
4.0
 21
-1.0
 31
0.0
  0
LINE
  5
C5
100
AcDbEntity
100
AcDbLine
  8
0
 62
256
370
-1
  6
BYLAYER
 10
-4.0
 20
0.0
 30
0.0
 11
4.0
 21
0.0
 31
0.0
  0
LINE
  5
C6
100
AcDbEntity
100
AcDbLine
  8
0
 62
256
370
-1
  6
BYLAYER
 10
-4.0
 20
-1.0
 30
0.0
 11
-4.0
 21
0.0
 31
0.0
  0
LINE
  5
C7
100
AcDbEntity
100
AcDbLine
  8
0
 62
256
370
-1
  6
BYLAYER
 10
3.0
 20
-28.0
 30
0.0
 11
3.0000000000000497
 21
-26.0000000000000746
 31
0.0
  0
LINE
  5
C8
100
AcDbEntity
100
AcDbLine
  8
0
 62
256
370
-1
  6
BYLAYER
 10
-3.0
 20
-28.0
 30
0.0
 11
3.0
 21
-28.0
 31
0.0
  0
LINE
  5
C9
100
AcDbEntity
100
AcDbLine
  8
0
 62
256
370
-1
  6
BYLAYER
 10
-3.0
 20
-26.0
 30
0.0
 11
-3.0
 21
-28.0
 31
0.0
  0
LINE
  5
CA
100
AcDbEntity
100
AcDbLine
  8
0
 62
256
370
-1
  6
BYLAYER
 10
-7.5
 20
-25.9999999999998153
 30
0.0
 11
-7.5
 21
-1.0
 31
0.0
  0
LINE
  5
CB
100
AcDbEntity
100
AcDbLine
  8
0
 62
256
370
-1
  6
BYLAYER
 10
7.5
 20
-26.0000000000001847
 30
0.0
 11
-7.5
 21
-25.9999999999998153
 31
0.0
  0
LINE
  5
CC
100
AcDbEntity
100
AcDbLine
  8
0
 62
256
370
-1
  6
BYLAYER
 10
7.5
 20
-1.0
 30
0.0
 11
7.5
 21
-26.0000000000001883
 31
0.0
  0
LINE
  5
CD
100
AcDbEntity
100
AcDbLine
  8
0
 62
256
370
-1
  6
BYLAYER
 10
-3.0
 20
1.4622844919100935
 30
0.0
 11
-3.0
 21
1.0
 31
0.0
  0
ARC
  5
CE
100
AcDbEntity
  8
0
 62
256
370
-1
  6
BYLAYER
100
AcDbCircle
 10
-4.5999999999999952
 20
4.0000000000000009
 30
0.0
 40
3.0
100
AcDbArc
 50
302.2309526355019784
 51
57.7690473644980216
  0
LINE
  5
CF
100
AcDbEntity
100
AcDbLine
  8
0
 62
256
370
-1
  6
BYLAYER
 10
-3.0
 20
6.5377155080899074
 30
0.0
 11
-3.0
 21
7.0
 31
0.0
  0
LINE
  5
D0
100
AcDbEntity
100
AcDbLine
  8
0
 62
256
370
-1
  6
BYLAYER
 10
3.0
 20
1.4622844919100926
 30
0.0
 11
3.0
 21
1.0
 31
0.0
  0
ARC
  5
D1
100
AcDbEntity
  8
0
 62
256
370
-1
  6
BYLAYER
100
AcDbCircle
 10
4.5999999999999952
 20
4.0
 30
0.0
 40
3.0
100
AcDbArc
 50
122.2309526355019784
 51
237.7690473644979932
  0
LINE
  5
D2
100
AcDbEntity
100
AcDbLine
  8
0
 62
256
370
-1
  6
BYLAYER
 10
3.0000000000000009
 20
6.5377155080899065
 30
0.0
 11
3.0000000000000009
 21
7.0
 31
0.0
  0
ENDBLK
  5
D3
100
AcDbEntity
  8
0
100
AcDbBlockEnd
  0
BLOCK
  5
D4
100
AcDbEntity
  8
0
100
AcDbBlockBegin
  2
wheel_top
 70
0
 10
0.0
 20
0.0
 30
0.0
  3
wheel_top
  1

  0
LINE
  5
D5
100
AcDbEntity
100
AcDbLine
  8
0
 62
256
370
-1
  6
BYLAYER
 10
50.0
 20
-2.5377155080900167
 30
0.0
 11
50.0
 21
-3.0000000000000142
 31
0.0
  0
ARC
  5
D6
100
AcDbEntity
  8
0
 62
256
370
-1
  6
BYLAYER
100
AcDbCircle
 10
51.6000000000000227
 20
0.000000000000032
 30
0.0
 40
3.0
100
AcDbArc
 50
122.2309526355019784
 51
237.7690473644979932
  0
LINE
  5
D7
100
AcDbEntity
100
AcDbLine
  8
0
 62
256
370
-1
  6
BYLAYER
 10
50.0
 20
2.5377155080899314
 30
0.0
 11
50.0
 21
3.0000000000000142
 31
0.0
  0
LINE
  5
D8
100
AcDbEntity
100
AcDbLine
  8
0
 62
256
370
-1
  6
BYLAYER
 10
-50.0
 20
-3.0000000000000142
 30
0.0
 11
50.0
 21
-3.0000000000000142
 31
0.0
  0
LINE
  5
D9
100
AcDbEntity
100
AcDbLine
  8
0
 62
256
370
-1
  6
BYLAYER
 10
50.0
 20
2.9999999999999858
 30
0.0
 11
-50.0
 21
2.9999999999999858
 31
0.0
  0
LINE
  5
DA
100
AcDbEntity
100
AcDbLine
  8
0
 62
256
370
-1
  6
BYLAYER
 10
-50.0
 20
-2.5377155080899207
 30
0.0
 11
-50.0
 21
-3.0000000000000142
 31
0.0
  0
ARC
  5
DB
100
AcDbEntity
  8
0
 62
256
370
-1
  6
BYLAYER
100
AcDbCircle
 10
-51.6000000000000227
 20
-0.0000000000000142
 30
0.0
 40
3.0
100
AcDbArc
 50
302.2309526355019784
 51
57.7690473644980216
  0
LINE
  5
DC
100
AcDbEntity
100
AcDbLine
  8
0
 62
256
370
-1
  6
BYLAYER
 10
-50.0
 20
2.5377155080898959
 30
0.0
 11
-50.0
 21
2.9999999999999858
 31
0.0
  0
LINE
  5
DD
100
AcDbEntity
100
AcDbLine
  8
0
 62
256
370
-1
  6
BYLAYER
 10
4.75
 20
-9.0
 30
0.0
 11
4.75
 21
-3.0
 31
0.0
  0
LINE
  5
DE
100
AcDbEntity
100
AcDbLine
  8
0
 62
256
370
-1
  6
BYLAYER
 10
4.75
 20
-3.0
 30
0.0
 11
-4.75
 21
-3.0
 31
0.0
  0
LINE
  5
DF
100
AcDbEntity
100
AcDbLine
  8
0
 62
256
370
-1
  6
BYLAYER
 10
-4.75
 20
-3.0
 30
0.0
 11
-4.75
 21
-9.0
 31
0.0
  0
LINE
  5
E0
100
AcDbEntity
100
AcDbLine
  8
0
 62
256
370
-1
  6
BYLAYER
 10
4.75
 20
-9.0
 30
0.0
 11
-4.75
 21
-9.0
 31
0.0
  0
ENDBLK
  5
E1
100
AcDbEntity
  8
0
100
AcDbBlockEnd
  0
ENDSEC
  0
SECTION
  2
ENTITIES
  0
LINE
  5
E2
100
AcDbEntity
100
AcDbLine
  8
0
 62
256
370
-1
  6
BYLAYER
 10
141.0
 20
121.5
 30
0.0
 11
141.0
 21
186.5
 31
0.0
  0
LINE
  5
E3
100
AcDbEntity
100
AcDbLine
  8
0
 62
256
370
-1
  6
BYLAYER
 10
135.0
 20
184.25
 30
0.0
 11
135.0
 21
123.75
 31
0.0
  0
INSERT
  5
E4
100
AcDbEntity
100
AcDbBlockReference
  8
0
 62
256
370
-1
  6
BYLAYER
  2
motor
 10
127.5
 20
186.4999999999999716
 30
0.0
  0
INSERT
  5
E5
100
AcDbEntity
100
AcDbBlockReference
  8
0
 62
256
370
-1
  6
BYLAYER
  2
motor
 10
127.5
 20
121.5000000000000142
 30
0.0
 50
180.0
  0
INSERT
  5
E6
100
AcDbEntity
100
AcDbBlockReference
  8
0
 62
256
370
-1
  6
BYLAYER
  2
pcb
 10
89.0
 20
154.0
 30
0.0
  0
INSERT
  5
E7
100
AcDbEntity
100
AcDbBlockReference
  8
0
 62
256
370
-1
  6
BYLAYER
  2
wheel1_top
 10
215.0
 20
120.7499999999999858
 30
0.0
  0
INSERT
  5
E8
100
AcDbEntity
100
AcDbBlockReference
  8
0
 62
256
370
-1
  6
BYLAYER
  2
wheel_top
 10
73.0
 20
108.0
 30
0.0
  0
INSERT
  5
E9
100
AcDbEntity
100
AcDbBlockReference
  8
0
 62
256
370
-1
  6
BYLAYER
  2
wheel1_top
 10
215.0
 20
187.2500000000000568
 30
0.0
 41
1.0
 42
-1.0
 43
1.0
  0
INSERT
  5
EA
100
AcDbEntity
100
AcDbBlockReference
  8
0
 62
256
370
-1
  6
BYLAYER
  2
wheel_top
 10
73.0
 20
200.0
 30
0.0
 41
1.0
 42
-1.0
 43
1.0
  0
INSERT
  5
EB
100
AcDbEntity
100
AcDbBlockReference
  8
0
 62
256
370
-1
  6
BYLAYER
  2
battery
 10
31.0
 20
154.0
 30
0.0
  0
LINE
  5
EC
100
AcDbEntity
100
AcDbLine
  8
0
 62
256
370
-1
  6
BYLAYER
 10
120.0
 20
129.75
 30
0.0
 11
120.0
 21
123.75
 31
0.0
  0
LINE
  5
ED
100
AcDbEntity
100
AcDbLine
  8
0
 62
256
370
-1
  6
DASHED
 10
114.0
 20
121.5
 30
0.0
 11
120.0
 21
121.5
 31
0.0
  0
LINE
  5
EE
100
AcDbEntity
100
AcDbLine
  8
0
 62
256
370
-1
  6
BYLAYER
 10
120.0
 20
123.75
 30
0.0
 11
120.0
 21
184.25
 31
0.0
  0
LINE
  5
EF
100
AcDbEntity
100
AcDbLine
  8
0
 62
256
370
-1
  6
DASHED
 10
120.0
 20
186.5
 30
0.0
 11
114.0
 21
186.5
 31
0.0
  0
LINE
  5
F0
100
AcDbEntity
100
AcDbLine
  8
0
 62
256
370
-1
  6
BYLAYER
 10
120.0
 20
178.25
 30
0.0
 11
120.0
 21
129.75
 31
0.0
  0
LINE
  5
F1
100
AcDbEntity
100
AcDbLine
  8
0
 62
256
370
-1
  6
BYLAYER
 10
120.0
 20
184.25
 30
0.0
 11
120.0
 21
178.25
 31
0.0
  0
LINE
  5
F2
100
AcDbEntity
100
AcDbLine
  8
0
 62
256
370
-1
  6
BYLAYER
 10
120.0
 20
196.0
 30
0.0
 11
120.0
 21
112.0
 31
0.0
  0
LINE
  5
F3
100
AcDbEntity
100
AcDbLine
  8
0
 62
256
370
-1
  6
BYLAYER
 10
120.0
 20
112.0
 30
0.0
 11
6.0
 21
112.0
 31
0.0
  0
LINE
  5
F4
100
AcDbEntity
100
AcDbLine
  8
0
 62
256
370
-1
  6
BYLAYER
 10
6.0
 20
196.0
 30
0.0
 11
120.0
 21
196.0
 31
0.0
  0
LINE
  5
F5
100
AcDbEntity
100
AcDbLine
  8
0
 62
256
370
-1
  6
BYLAYER
 10
0.0
 20
190.0
 30
0.0
 11
120.0
 21
190.0
 31
0.0
  0
LINE
  5
F6
100
AcDbEntity
100
AcDbLine
  8
0
 62
256
370
-1
  6
BYLAYER
 10
120.0
 20
190.0
 30
0.0
 11
120.0
 21
196.0
 31
0.0
  0
LINE
  5
F7
100
AcDbEntity
100
AcDbLine
  8
0
 62
256
370
-1
  6
BYLAYER
 10
120.0
 20
196.0
 30
0.0
 11
6.0
 21
196.0
 31
0.0
  0
LINE
  5
F8
100
AcDbEntity
100
AcDbLine
  8
0
 62
256
370
-1
  6
BYLAYER
 10
6.0
 20
112.0
 30
0.0
 11
120.0
 21
112.0
 31
0.0
  0
LINE
  5
F9
100
AcDbEntity
100
AcDbLine
  8
0
 62
256
370
-1
  6
BYLAYER
 10
120.0
 20
112.0
 30
0.0
 11
120.0
 21
118.0
 31
0.0
  0
LINE
  5
FA
100
AcDbEntity
100
AcDbLine
  8
0
 62
256
370
-1
  6
BYLAYER
 10
120.0
 20
118.0
 30
0.0
 11
0.0
 21
118.0
 31
0.0
  0
LINE
  5
FB
100
AcDbEntity
100
AcDbLine
  8
0
 62
256
370
-1
  6
BYLAYER
 10
58.0
 20
118.0
 30
0.0
 11
64.0
 21
118.0
 31
0.0
  0
LINE
  5
FC
100
AcDbEntity
100
AcDbLine
  8
0
 62
256
370
-1
  6
BYLAYER
 10
64.0
 20
118.0
 30
0.0
 11
64.0
 21
190.0
 31
0.0
  0
LINE
  5
FD
100
AcDbEntity
100
AcDbLine
  8
0
 62
256
370
-1
  6
BYLAYER
 10
64.0
 20
190.0
 30
0.0
 11
58.0
 21
190.0
 31
0.0
  0
LINE
  5
FE
100
AcDbEntity
100
AcDbLine
  8
0
 62
256
370
-1
  6
BYLAYER
 10
58.0
 20
190.0
 30
0.0
 11
58.0
 21
118.0
 31
0.0
  0
LINE
  5
FF
100
AcDbEntity
100
AcDbLine
  8
0
 62
256
370
-1
  6
BYLAYER
 10
0.0
 20
112.0
 30
0.0
 11
6.0
 21
112.0
 31
0.0
  0
LINE
  5
100
100
AcDbEntity
100
AcDbLine
  8
0
 62
256
370
-1
  6
BYLAYER
 10
6.0
 20
196.0
 30
0.0
 11
0.0
 21
196.0
 31
0.0
  0
LINE
  5
101
100
AcDbEntity
100
AcDbLine
  8
0
 62
256
370
-1
  6
BYLAYER
 10
114.0
 20
-6.0
 30
0.0
 11
271.0
 21
-6.0
 31
0.0
  0
LINE
  5
102
100
AcDbEntity
100
AcDbLine
  8
0
 62
256
370
-1
  6
BYLAYER
 10
271.0
 20
0.0
 30
0.0
 11
114.0
 21
0.0
 31
0.0
  0
LINE
  5
103
100
AcDbEntity
100
AcDbLine
  8
0
 62
256
370
-1
  6
BYLAYER
 10
114.0
 20
0.0
 30
0.0
 11
114.0
 21
-6.0
 31
0.0
  0
LINE
  5
104
100
AcDbEntity
100
AcDbLine
  8
0
 62
256
370
-1
  6
BYLAYER
 10
0.0
 20
0.0
 30
0.0
 11
120.0
 21
0.0
 31
0.0
  0
LINE
  5
105
100
AcDbEntity
100
AcDbLine
  8
0
 62
256
370
-1
  6
BYLAYER
 10
120.0
 20
0.0
 30
0.0
 11
120.0
 21
6.0
 31
0.0
  0
LINE
  5
106
100
AcDbEntity
100
AcDbLine
  8
0
 62
256
370
-1
  6
BYLAYER
 10
120.0
 20
6.0
 30
0.0
 11
0.0
 21
6.0
 31
0.0
  0
LINE
  5
107
100
AcDbEntity
100
AcDbLine
  8
0
 62
256
370
-1
  6
BYLAYER
 10
0.0
 20
6.0
 30
0.0
 11
0.0
 21
0.0
 31
0.0
  0
LINE
  5
108
100
AcDbEntity
100
AcDbLine
  8
0
 62
256
370
-1
  6
BYLAYER
 10
135.0
 20
0.0
 30
0.0
 11
141.0
 21
0.0
 31
0.0
  0
LINE
  5
109
100
AcDbEntity
100
AcDbLine
  8
0
 62
256
370
-1
  6
BYLAYER
 10
141.0
 20
0.0
 30
0.0
 11
141.0
 21
20.0
 31
0.0
  0
LINE
  5
10A
100
AcDbEntity
100
AcDbLine
  8
0
 62
256
370
-1
  6
BYLAYER
 10
141.0
 20
24.0
 30
0.0
 11
135.0
 21
24.0
 31
0.0
  0
LINE
  5
10B
100
AcDbEntity
100
AcDbLine
  8
0
 62
256
370
-1
  6
BYLAYER
 10
135.0
 20
24.0
 30
0.0
 11
135.0
 21
0.0
 31
0.0
  0
LINE
  5
10C
100
AcDbEntity
100
AcDbLine
  8
0
 62
256
370
-1
  6
BYLAYER
 10
141.0
 20
24.0
 30
0.0
 11
141.0
 21
20.0
 31
0.0
  0
LINE
  5
10D
100
AcDbEntity
100
AcDbLine
  8
0
 62
256
370
-1
  6
BYLAYER
 10
0.0
 20
6.0
 30
0.0
 11
120.0
 21
6.0
 31
0.0
  0
INSERT
  5
10E
100
AcDbEntity
100
AcDbBlockReference
  8
0
 62
256
370
-1
  6
BYLAYER
  2
wheel2_side
 10
73.0
 20
24.0
 30
0.0
  0
INSERT
  5
10F
100
AcDbEntity
100
AcDbBlockReference
  8
0
 62
256
370
-1
  6
BYLAYER
  2
wheel2_side
 10
215.0
 20
44.0
 30
0.0
  0
SPLINE
  5
110
  8
0
 62
256
370
-1
  6
BYLAYER
100
AcDbEntity
100
AcDbSpline
 70
8
 71
3
 72
15
 73
11
 74
0
 40
0.0
 40
0.0
 40
0.0
 40
0.0
 40
1.0
 40
2.0
 40
3.0
 40
4.0
 40
5.0
 40
6.0
 40
7.0
 40
8.0
 40
8.0
 40
8.0
 40
8.0
 10
141.0
 20
24.0
 30
0.0
 10
151.0
 20
24.0
 30
0.0
 10
171.0
 20
32.0
 30
0.0
 10
191.0
 20
44.0
 30
0.0
 10
201.0
 20
52.0
 30
0.0
 10
219.0
 20
55.0
 30
0.0
 10
223.6602540378443678
 20
48.9999999999999929
 30
0.0
 10
221.0
 20
38.0
 30
0.0
 10
217.0
 20
29.0
 30
0.0
 10
217.0
 20
0.0
 30
0.0
 10
217.0
 20
0.0
 30
0.0
  0
SPLINE
  5
111
  8
0
 62
256
370
-1
  6
BYLAYER
100
AcDbEntity
100
AcDbSpline
 70
8
 71
3
 72
12
 73
8
 74
0
 40
0.0
 40
0.0
 40
0.0
 40
0.0
 40
1.0
 40
2.0
 40
3.0
 40
4.0
 40
5.0
 40
5.0
 40
5.0
 40
5.0
 10
0.0
 20
6.0
 30
0.0
 10
0.0
 20
14.0
 30
0.0
 10
41.0
 20
31.0
 30
0.0
 10
89.0
 20
31.0
 30
0.0
 10
114.0
 20
24.0
 30
0.0
 10
120.0
 20
11.0
 30
0.0
 10
120.0
 20
6.0
 30
0.0
 10
120.0
 20
6.0
 30
0.0
  0
LINE
  5
112
100
AcDbEntity
100
AcDbLine
  8
0
 62
256
370
-1
  6
BYLAYER
 10
341.0
 20
83.0
 30
0.0
 11
461.0
 21
83.0
 31
0.0
  0
SPLINE
  5
113
  8
0
 62
256
370
-1
  6
BYLAYER
100
AcDbEntity
100
AcDbSpline
 70
8
 71
3
 72
12
 73
8
 74
0
 40
0.0
 40
0.0
 40
0.0
 40
0.0
 40
1.0
 40
2.0
 40
3.0
 40
4.0
 40
5.0
 40
5.0
 40
5.0
 40
5.0
 10
341.0
 20
83.0
 30
0.0
 10
341.0
 20
91.0
 30
0.0
 10
382.0
 20
108.0
 30
0.0
 10
430.0
 20
108.0
 30
0.0
 10
455.0
 20
101.0
 30
0.0
 10
461.0
 20
88.0
 30
0.0
 10
461.0
 20
83.0
 30
0.0
 10
461.0
 20
83.0
 30
0.0
  0
MTEXT
  5
114
100
AcDbEntity
100
AcDbMText
  8
0
 62
256
370
-1
  6
BYLAYER
 10
402.4579599921877389
 20
94.7437751353500488
 30
0.0
 40
2.5
 41
0.0
 71
1
 72
1
  1
x2
  7
textstyle0
 50
0.0
 73
2
 44
1.0
  0
LINE
  5
115
100
AcDbEntity
100
AcDbLine
  8
0
 62
256
370
-1
  6
BYLAYER
 10
417.0
 20
23.0000000000000071
 30
0.0
 11
341.0
 21
23.0
 31
0.0
  0
SPLINE
  5
116
  8
0
 62
256
370
-1
  6
BYLAYER
100
AcDbEntity
100
AcDbSpline
 70
8
 71
3
 72
15
 73
11
 74
0
 40
0.0
 40
0.0
 40
0.0
 40
0.0
 40
1.0
 40
2.0
 40
3.0
 40
4.0
 40
5.0
 40
6.0
 40
7.0
 40
8.0
 40
8.0
 40
8.0
 40
8.0
 10
341.0
 20
47.0
 30
0.0
 10
351.0
 20
47.0
 30
0.0
 10
371.0
 20
55.0
 30
0.0
 10
391.0
 20
67.0
 30
0.0
 10
401.0
 20
75.0
 30
0.0
 10
419.0
 20
78.0
 30
0.0
 10
423.6602540378444246
 20
72.0
 30
0.0
 10
421.0
 20
61.0
 30
0.0
 10
417.0
 20
52.0
 30
0.0
 10
417.0
 20
23.0
 30
0.0
 10
417.0
 20
23.0
 30
0.0
  0
LINE
  5
117
100
AcDbEntity
100
AcDbLine
  8
0
 62
256
370
-1
  6
BYLAYER
 10
341.0
 20
23.0
 30
0.0
 11
341.0
 21
47.0
 31
0.0
  0
MTEXT
  5
118
100
AcDbEntity
100
AcDbMText
  8
0
 62
256
370
-1
  6
BYLAYER
 10
376.4466419481119601
 20
41.0827686951898912
 30
0.0
 40
2.5
 41
0.0
 71
1
 72
1
  1
x2
  7
textstyle1
 50
0.0
 73
2
 44
1.0
  0
LINE
  5
119
100
AcDbEntity
100
AcDbLine
  8
0
 62
256
370
-1
  6
BYLAYER
 10
461.0
 20
196.0
 30
0.0
 11
461.0
 21
112.0
 31
0.0
  0
LINE
  5
11A
100
AcDbEntity
100
AcDbLine
  8
0
 62
256
370
-1
  6
BYLAYER
 10
461.0
 20
112.0
 30
0.0
 11
341.0
 21
112.0
 31
0.0
  0
LINE
  5
11B
100
AcDbEntity
100
AcDbLine
  8
0
 62
256
370
-1
  6
BYLAYER
 10
341.0
 20
196.0
 30
0.0
 11
461.0
 21
196.0
 31
0.0
  0
SPLINE
  5
11C
  8
0
 62
256
370
-1
  6
BYLAYER
100
AcDbEntity
100
AcDbSpline
 70
8
 71
3
 72
12
 73
8
 74
0
 40
0.0
 40
0.0
 40
0.0
 40
0.0
 40
1.0
 40
2.0
 40
3.0
 40
4.0
 40
5.0
 40
5.0
 40
5.0
 40
5.0
 10
341.0
 20
187.0
 30
0.0
 10
341.0
 20
184.0
 30
0.0
 10
361.0
 20
174.0
 30
0.0
 10
401.0
 20
172.0
 30
0.0
 10
415.0
 20
172.0
 30
0.0
 10
422.0
 20
171.0
 30
0.0
 10
423.0
 20
169.0
 30
0.0
 10
423.0
 20
154.0
 30
0.0
  0
SPLINE
  5
11D
  8
0
 62
256
370
-1
  6
BYLAYER
100
AcDbEntity
100
AcDbSpline
 70
8
 71
3
 72
12
 73
8
 74
0
 40
0.0
 40
0.0
 40
0.0
 40
0.0
 40
1.0
 40
2.0
 40
3.0
 40
4.0
 40
5.0
 40
5.0
 40
5.0
 40
5.0
 10
341.0
 20
121.0
 30
0.0
 10
341.0
 20
124.0
 30
0.0
 10
361.0
 20
134.0
 30
0.0
 10
401.0
 20
136.0
 30
0.0
 10
415.0
 20
136.0
 30
0.0
 10
422.0
 20
137.0
 30
0.0
 10
423.0
 20
139.0000000000000284
 30
0.0
 10
423.0
 20
154.0
 30
0.0
  0
LINE
  5
11E
100
AcDbEntity
100
AcDbLine
  8
0
 62
256
370
-1
  6
BYLAYER
 10
341.0
 20
112.0
 30
0.0
 11
341.0
 21
121.0
 31
0.0
  0
LINE
  5
11F
100
AcDbEntity
100
AcDbLine
  8
0
 62
256
370
-1
  6
BYLAYER
 10
341.0
 20
187.0
 30
0.0
 11
341.0
 21
196.0
 31
0.0
  0
LINE
  5
120
100
AcDbEntity
100
AcDbLine
  8
0
 62
256
370
-1
  6
BYLAYER
 10
525.0
 20
62.0
 30
0.0
 11
525.0
 21
134.0
 31
0.0
  0
LINE
  5
121
100
AcDbEntity
100
AcDbLine
  8
0
 62
256
370
-1
  6
BYLAYER
 10
525.0
 20
134.0
 30
0.0
 11
500.0
 21
134.0
 31
0.0
  0
LINE
  5
122
100
AcDbEntity
100
AcDbLine
  8
0
 62
256
370
-1
  6
BYLAYER
 10
500.0
 20
134.0
 30
0.0
 11
500.0
 21
62.0
 31
0.0
  0
LINE
  5
123
100
AcDbEntity
100
AcDbLine
  8
0
 62
256
370
-1
  6
BYLAYER
 10
500.0
 20
62.0
 30
0.0
 11
525.0
 21
62.0
 31
0.0
  0
LINE
  5
124
100
AcDbEntity
100
AcDbLine
  8
0
 62
256
370
-1
  6
BYLAYER
 10
120.0
 20
121.5
 30
0.0
 11
219.0
 21
121.5
 31
0.0
  0
LINE
  5
125
100
AcDbEntity
100
AcDbLine
  8
0
 62
256
370
-1
  6
BYLAYER
 10
219.0
 20
186.5
 30
0.0
 11
120.0
 21
186.5
 31
0.0
  0
LINE
  5
126
100
AcDbEntity
100
AcDbLine
  8
0
 62
256
370
-1
  6
DASHED
 10
114.0
 20
186.5
 30
0.0
 11
114.0
 21
121.5
 31
0.0
  0
LINE
  5
127
100
AcDbEntity
100
AcDbLine
  8
0
 62
256
370
-1
  6
BYLAYER
 10
141.0
 20
180.5
 30
0.0
 11
219.0
 21
180.5
 31
0.0
  0
LINE
  5
128
100
AcDbEntity
100
AcDbLine
  8
0
 62
256
370
-1
  6
BYLAYER
 10
219.0
 20
180.5
 30
0.0
 11
219.0
 21
186.5
 31
0.0
  0
LINE
  5
129
100
AcDbEntity
100
AcDbLine
  8
0
 62
256
370
-1
  6
BYLAYER
 10
219.0
 20
186.5
 30
0.0
 11
141.0
 21
186.5
 31
0.0
  0
LINE
  5
12A
100
AcDbEntity
100
AcDbLine
  8
0
 62
256
370
-1
  6
BYLAYER
 10
141.0
 20
186.5
 30
0.0
 11
141.0
 21
180.5
 31
0.0
  0
LINE
  5
12B
100
AcDbEntity
100
AcDbLine
  8
0
 62
256
370
-1
  6
BYLAYER
 10
141.0
 20
121.5
 30
0.0
 11
219.0
 21
121.5
 31
0.0
  0
LINE
  5
12C
100
AcDbEntity
100
AcDbLine
  8
0
 62
256
370
-1
  6
BYLAYER
 10
219.0
 20
121.5
 30
0.0
 11
219.0
 21
127.5
 31
0.0
  0
LINE
  5
12D
100
AcDbEntity
100
AcDbLine
  8
0
 62
256
370
-1
  6
BYLAYER
 10
219.0
 20
127.5
 30
0.0
 11
141.0
 21
127.5
 31
0.0
  0
LINE
  5
12E
100
AcDbEntity
100
AcDbLine
  8
0
 62
256
370
-1
  6
BYLAYER
 10
141.0
 20
127.5
 30
0.0
 11
141.0
 21
121.5
 31
0.0
  0
LINE
  5
12F
100
AcDbEntity
100
AcDbLine
  8
0
 62
256
370
-1
  6
BYLAYER
 10
341.0
 20
-47.0
 30
0.0
 11
446.0
 21
-47.0
 31
0.0
  0
LINE
  5
130
100
AcDbEntity
100
AcDbLine
  8
0
 62
256
370
-1
  6
BYLAYER
 10
446.0
 20
18.0
 30
0.0
 11
341.0
 21
18.0
 31
0.0
  0
LINE
  5
131
100
AcDbEntity
100
AcDbLine
  8
0
 62
256
370
-1
  6
BYLAYER
 10
341.0
 20
18.0
 30
0.0
 11
341.0
 21
-47.0
 31
0.0
  0
CIRCLE
  5
132
100
AcDbEntity
100
AcDbCircle
  8
0
 62
256
370
-1
  6
BYLAYER
 10
117.0
 20
182.0
 30
0.0
 40
1.0
  0
CIRCLE
  5
133
100
AcDbEntity
100
AcDbCircle
  8
0
 62
256
370
-1
  6
BYLAYER
 10
117.0
 20
126.0
 30
0.0
 40
1.0
  0
CIRCLE
  5
134
100
AcDbEntity
100
AcDbCircle
  8
0
 62
256
370
-1
  6
BYLAYER
 10
344.0
 20
13.5
 30
0.0
 40
1.0
  0
CIRCLE
  5
135
100
AcDbEntity
100
AcDbCircle
  8
0
 62
256
370
-1
  6
BYLAYER
 10
344.0
 20
-42.5
 30
0.0
 40
1.0
  0
CIRCLE
  5
136
100
AcDbEntity
100
AcDbCircle
  8
0
 62
256
370
-1
  6
BYLAYER
 10
458.0
 20
182.0
 30
0.0
 40
1.0
  0
CIRCLE
  5
137
100
AcDbEntity
100
AcDbCircle
  8
0
 62
256
370
-1
  6
BYLAYER
 10
458.0
 20
126.0
 30
0.0
 40
1.0
  0
SPLINE
  5
138
  8
0
 62
256
370
-1
  6
BYLAYER
100
AcDbEntity
100
AcDbSpline
 70
8
 71
3
 72
12
 73
8
 74
0
 40
0.0
 40
0.0
 40
0.0
 40
0.0
 40
1.0
 40
2.0
 40
3.0
 40
4.0
 40
5.0
 40
5.0
 40
5.0
 40
5.0
 10
0.0
 20
187.0
 30
0.0
 10
0.0
 20
184.0
 30
0.0
 10
20.0
 20
174.0
 30
0.0
 10
60.0
 20
172.0
 30
0.0
 10
74.0
 20
172.0
 30
0.0
 10
81.0
 20
171.0
 30
0.0
 10
82.0
 20
169.0
 30
0.0
 10
82.0
 20
154.0
 30
0.0
  0
SPLINE
  5
139
  8
0
 62
256
370
-1
  6
BYLAYER
100
AcDbEntity
100
AcDbSpline
 70
8
 71
3
 72
12
 73
8
 74
0
 40
0.0
 40
0.0
 40
0.0
 40
0.0
 40
1.0
 40
2.0
 40
3.0
 40
4.0
 40
5.0
 40
5.0
 40
5.0
 40
5.0
 10
0.0
 20
121.0
 30
0.0
 10
0.0
 20
124.0
 30
0.0
 10
20.0
 20
134.0
 30
0.0
 10
60.0
 20
136.0
 30
0.0
 10
74.0
 20
136.0
 30
0.0
 10
81.0
 20
137.0
 30
0.0
 10
82.0
 20
139.0000000000000284
 30
0.0
 10
82.0
 20
154.0
 30
0.0
  0
LINE
  5
13A
100
AcDbEntity
100
AcDbLine
  8
0
 62
256
370
-1
  6
BYLAYER
 10
0.0
 20
112.0
 30
0.0
 11
0.0
 21
121.0
 31
0.0
  0
LINE
  5
13B
100
AcDbEntity
100
AcDbLine
  8
0
 62
256
370
-1
  6
BYLAYER
 10
0.0
 20
187.0
 30
0.0
 11
0.0
 21
196.0
 31
0.0
  0
LINE
  5
13C
100
AcDbEntity
100
AcDbLine
  8
0
 62
256
370
-1
  6
BYLAYER
 10
446.0
 20
12.0
 30
0.0
 11
446.0
 21
18.0
 31
0.0
  0
LINE
  5
13D
100
AcDbEntity
100
AcDbLine
  8
0
 62
256
370
-1
  6
BYLAYER
 10
446.0
 20
-41.0
 30
0.0
 11
446.0
 21
-47.0
 31
0.0
  0
LINE
  5
13E
100
AcDbEntity
100
AcDbLine
  8
0
 62
256
370
-1
  6
BYLAYER
 10
277.0
 20
-26.0
 30
0.0
 11
277.0
 21
0.0
 31
0.0
  0
LINE
  5
13F
100
AcDbEntity
100
AcDbLine
  8
0
 62
256
370
-1
  6
BYLAYER
 10
277.0
 20
0.0
 30
0.0
 11
271.0
 21
0.0
 31
0.0
  0
LINE
  5
140
100
AcDbEntity
100
AcDbLine
  8
0
 62
256
370
-1
  6
BYLAYER
 10
271.0
 20
0.0
 30
0.0
 11
271.0
 21
-26.0
 31
0.0
  0
LINE
  5
141
100
AcDbEntity
100
AcDbLine
  8
0
 62
256
370
-1
  6
BYLAYER
 10
271.0
 20
-26.0
 30
0.0
 11
277.0
 21
-26.0
 31
0.0
  0
SPLINE
  5
142
  8
0
 62
256
370
-1
  6
BYLAYER
100
AcDbEntity
100
AcDbSpline
 70
8
 71
3
 72
11
 73
7
 74
0
 40
0.0
 40
0.0
 40
0.0
 40
0.0
 40
1.0
 40
2.0
 40
3.0
 40
4.0
 40
4.0
 40
4.0
 40
4.0
 10
219.0
 20
180.5
 30
0.0
 10
219.0
 20
175.0
 30
0.0
 10
237.0
 20
164.0
 30
0.0
 10
267.0
 20
164.0
 30
0.0
 10
270.0
 20
158.0
 30
0.0
 10
270.0
 20
157.0
 30
0.0
 10
270.0
 20
154.0
 30
0.0
  0
SPLINE
  5
143
  8
0
 62
256
370
-1
  6
BYLAYER
100
AcDbEntity
100
AcDbSpline
 70
8
 71
3
 72
11
 73
7
 74
0
 40
0.0
 40
0.0
 40
0.0
 40
0.0
 40
1.0
 40
2.0
 40
3.0
 40
4.0
 40
4.0
 40
4.0
 40
4.0
 10
219.0
 20
127.5
 30
0.0
 10
219.0
 20
133.0
 30
0.0
 10
237.0
 20
144.0
 30
0.0
 10
267.0
 20
143.9999999999999716
 30
0.0
 10
270.0
 20
150.0
 30
0.0
 10
270.0
 20
151.0
 30
0.0
 10
270.0
 20
154.0
 30
0.0
  0
LINE
  5
144
100
AcDbEntity
100
AcDbLine
  8
0
 62
256
370
-1
  6
BYLAYER
 10
270.0
 20
151.0
 30
0.0
 11
276.0
 21
151.0
 31
0.0
  0
LINE
  5
145
100
AcDbEntity
100
AcDbLine
  8
0
 62
256
370
-1
  6
BYLAYER
 10
276.0
 20
151.0
 30
0.0
 11
276.0
 21
157.0
 31
0.0
  0
LINE
  5
146
100
AcDbEntity
100
AcDbLine
  8
0
 62
256
370
-1
  6
BYLAYER
 10
276.0
 20
157.0
 30
0.0
 11
270.0
 21
157.0
 31
0.0
  0
LINE
  5
147
100
AcDbEntity
100
AcDbLine
  8
0
 62
256
370
-1
  6
BYLAYER
 10
270.0
 20
157.0
 30
0.0
 11
270.0
 21
151.0
 31
0.0
  0
SPLINE
  5
148
  8
0
 62
256
370
-1
  6
BYLAYER
100
AcDbEntity
100
AcDbSpline
 70
8
 71
3
 72
11
 73
7
 74
0
 40
0.0
 40
0.0
 40
0.0
 40
0.0
 40
1.0
 40
2.0
 40
3.0
 40
4.0
 40
4.0
 40
4.0
 40
4.0
 10
446.0
 20
12.0
 30
0.0
 10
446.0
 20
6.5
 30
0.0
 10
464.0
 20
-4.5
 30
0.0
 10
494.0
 20
-4.5000000000000142
 30
0.0
 10
497.0
 20
-10.5
 30
0.0
 10
497.0
 20
-11.5000000000000284
 30
0.0
 10
497.0
 20
-14.4999999999999716
 30
0.0
  0
SPLINE
  5
149
  8
0
 62
256
370
-1
  6
BYLAYER
100
AcDbEntity
100
AcDbSpline
 70
8
 71
3
 72
11
 73
7
 74
0
 40
0.0
 40
0.0
 40
0.0
 40
0.0
 40
1.0
 40
2.0
 40
3.0
 40
4.0
 40
4.0
 40
4.0
 40
4.0
 10
446.0
 20
-41.0
 30
0.0
 10
446.0
 20
-35.4999999999999858
 30
0.0
 10
464.0
 20
-24.4999999999999858
 30
0.0
 10
494.0
 20
-24.4999999999999858
 30
0.0
 10
497.0
 20
-18.5
 30
0.0
 10
497.0
 20
-17.5
 30
0.0
 10
497.0
 20
-14.4999999999999716
 30
0.0
  0
SPLINE
  5
14A
  8
0
 62
256
370
-1
  6
BYLAYER
100
AcDbEntity
100
AcDbSpline
 70
8
 71
3
 72
17
 73
13
 74
0
 40
0.0
 40
0.0
 40
0.0
 40
0.0
 40
1.0
 40
2.0
 40
3.0
 40
4.0
 40
5.0
 40
6.0
 40
7.0
 40
8.0
 40
9.0
 40
10.0
 40
10.0
 40
10.0
 40
10.0
 10
151.0
 20
154.0
 30
0.0
 10
151.0
 20
154.0
 30
0.0
 10
151.0
 20
157.0
 30
0.0
 10
153.0
 20
168.0
 30
0.0
 10
165.0
 20
177.0
 30
0.0
 10
191.0
 20
177.0
 30
0.0
 10
215.0
 20
171.0
 30
0.0
 10
218.0
 20
165.0
 30
0.0
 10
237.0
 20
159.0
 30
0.0
 10
244.0
 20
158.0
 30
0.0
 10
247.0
 20
155.0
 30
0.0
 10
247.0
 20
154.0
 30
0.0
 10
247.0
 20
154.0
 30
0.0
  0
SPLINE
  5
14B
  8
0
 62
256
370
-1
  6
BYLAYER
100
AcDbEntity
100
AcDbSpline
 70
8
 71
3
 72
17
 73
13
 74
0
 40
0.0
 40
0.0
 40
0.0
 40
0.0
 40
1.0
 40
2.0
 40
3.0
 40
4.0
 40
5.0
 40
6.0
 40
7.0
 40
8.0
 40
9.0
 40
10.0
 40
10.0
 40
10.0
 40
10.0
 10
151.0
 20
154.0
 30
0.0
 10
151.0
 20
154.0
 30
0.0
 10
151.0
 20
151.0000000000000284
 30
0.0
 10
153.0
 20
140.0
 30
0.0
 10
165.0
 20
131.0
 30
0.0
 10
191.0
 20
131.0000000000000568
 30
0.0
 10
215.0
 20
137.0000000000000284
 30
0.0
 10
218.0
 20
143.0
 30
0.0
 10
237.0
 20
149.0
 30
0.0
 10
244.0
 20
150.0
 30
0.0
 10
247.0
 20
153.0
 30
0.0
 10
247.0
 20
154.0
 30
0.0
 10
247.0
 20
154.0
 30
0.0
  0
LINE
  5
14C
100
AcDbEntity
100
AcDbLine
  8
0
 62
256
370
-1
  6
BYLAYER
 10
525.0
 20
135.0
 30
0.0
 11
525.0
 21
200.0
 31
0.0
  0
LINE
  5
14D
100
AcDbEntity
100
AcDbLine
  8
0
 62
256
370
-1
  6
BYLAYER
 10
525.0
 20
200.0
 30
0.0
 11
500.0
 21
200.0
 31
0.0
  0
LINE
  5
14E
100
AcDbEntity
100
AcDbLine
  8
0
 62
256
370
-1
  6
BYLAYER
 10
500.0
 20
200.0
 30
0.0
 11
500.0
 21
135.0
 31
0.0
  0
LINE
  5
14F
100
AcDbEntity
100
AcDbLine
  8
0
 62
256
370
-1
  6
BYLAYER
 10
500.0
 20
135.0
 30
0.0
 11
525.0
 21
135.0
 31
0.0
  0
CIRCLE
  5
150
100
AcDbEntity
100
AcDbCircle
  8
0
 62
256
370
-1
  6
BYLAYER
 10
215.0
 20
44.0
 30
0.0
 40
1.0
  0
CIRCLE
  5
151
100
AcDbEntity
100
AcDbCircle
  8
0
 62
256
370
-1
  6
BYLAYER
 10
415.0
 20
67.0
 30
0.0
 40
1.0
  0
CIRCLE
  5
152
100
AcDbEntity
100
AcDbCircle
  8
0
 62
256
370
-1
  6
BYLAYER
 10
73.0
 20
24.0
 30
0.0
 40
1.0
  0
CIRCLE
  5
153
100
AcDbEntity
100
AcDbCircle
  8
0
 62
256
370
-1
  6
BYLAYER
 10
414.0
 20
101.0
 30
0.0
 40
1.0
  0
SPLINE
  5
154
  8
0
 62
256
370
-1
  6
BYLAYER
100
AcDbEntity
100
AcDbSpline
 70
8
 71
3
 72
17
 73
13
 74
0
 40
0.0
 40
0.0
 40
0.0
 40
0.0
 40
1.0
 40
2.0
 40
3.0
 40
4.0
 40
5.0
 40
6.0
 40
7.0
 40
8.0
 40
9.0
 40
10.0
 40
10.0
 40
10.0
 40
10.0
 10
378.0
 20
-14.4999999999999716
 30
0.0
 10
378.0
 20
-14.4999999999999716
 30
0.0
 10
378.0
 20
-11.4999999999999716
 30
0.0
 10
380.0
 20
-0.4999999999999716
 30
0.0
 10
392.0
 20
8.5000000000000284
 30
0.0
 10
418.0
 20
8.5000000000000284
 30
0.0
 10
442.0
 20
2.5000000000000284
 30
0.0
 10
445.0
 20
-3.4999999999999716
 30
0.0
 10
464.0
 20
-9.4999999999999716
 30
0.0
 10
471.0
 20
-10.4999999999999716
 30
0.0
 10
474.0
 20
-13.4999999999999716
 30
0.0
 10
474.0
 20
-14.4999999999999716
 30
0.0
 10
474.0
 20
-14.4999999999999716
 30
0.0
  0
SPLINE
  5
155
  8
0
 62
256
370
-1
  6
BYLAYER
100
AcDbEntity
100
AcDbSpline
 70
8
 71
3
 72
17
 73
13
 74
0
 40
0.0
 40
0.0
 40
0.0
 40
0.0
 40
1.0
 40
2.0
 40
3.0
 40
4.0
 40
5.0
 40
6.0
 40
7.0
 40
8.0
 40
9.0
 40
10.0
 40
10.0
 40
10.0
 40
10.0
 10
378.0
 20
-14.4999999999999716
 30
0.0
 10
378.0
 20
-14.4999999999999716
 30
0.0
 10
378.0
 20
-17.4999999999999432
 30
0.0
 10
380.0
 20
-28.4999999999999716
 30
0.0
 10
392.0
 20
-37.4999999999999716
 30
0.0
 10
418.0
 20
-37.4999999999999147
 30
0.0
 10
442.0
 20
-31.4999999999999432
 30
0.0
 10
445.0
 20
-25.4999999999999716
 30
0.0
 10
464.0
 20
-19.4999999999999716
 30
0.0
 10
471.0
 20
-18.4999999999999716
 30
0.0
 10
474.0
 20
-15.4999999999999716
 30
0.0
 10
474.0
 20
-14.4999999999999716
 30
0.0
 10
474.0
 20
-14.4999999999999716
 30
0.0
  0
DIMENSION
  5
156
100
AcDbEntity
  8
0
 62
256
370
-1
  6
BYLAYER
100
AcDbDimension
 10
356.2607855710828062
 20
17.9999999999999964
 30
0.0
 11
354.3857855710828062
 21
-14.5000000000000053
 31
0.0
 70
1
 71
8
 72
2
 41
1.0
 42
0.0
  1

  3
Standard
100
AcDbAlignedDimension
 13
341.0
 23
18.0
 33
0.0
 14
341.0
 24
-47.0
 34
0.0
1001
ACAD
1000
DSTYLE
1002
{
1070
144
1040
1
1002
}
  0
DIMENSION
  5
157
100
AcDbEntity
  8
0
 62
256
370
-1
  6
BYLAYER
100
AcDbDimension
 10
497.0
 20
-53.1045167395705633
 30
0.0
 11
419.0
 21
-51.2295167395705775
 31
0.0
 70
1
 71
8
 72
2
 41
1.0
 42
0.0
  1

  3
Standard
100
AcDbAlignedDimension
 13
497.0
 23
-14.4999999999999716
 33
0.0
 14
341.0
 24
-14.5
 34
0.0
1001
ACAD
1000
DSTYLE
1002
{
1070
144
1040
1
1002
}
  0
DIMENSION
  5
158
100
AcDbEntity
  8
0
 62
256
370
-1
  6
BYLAYER
100
AcDbDimension
 10
341.0
 20
70.4934043092131759
 30
0.0
 11
382.0
 21
72.3684043092131759
 31
0.0
 70
1
 71
8
 72
2
 41
1.0
 42
0.0
  1

  3
Standard
100
AcDbAlignedDimension
 13
341.0
 23
23.0
 33
0.0
 14
423.0
 24
23.0
 34
0.0
1001
ACAD
1000
DSTYLE
1002
{
1070
144
1040
1
1002
}
  0
DIMENSION
  5
159
100
AcDbEntity
  8
0
 62
256
370
-1
  6
BYLAYER
100
AcDbDimension
 10
405.763629524700832
 20
23.0000000000000071
 30
0.0
 11
403.888629524700832
 21
50.0
 31
0.0
 70
1
 71
8
 72
2
 41
1.0
 42
0.0
  1

  3
Standard
100
AcDbAlignedDimension
 13
417.0
 23
23.0000000000000071
 33
0.0
 14
417.0
 24
77.0
 34
0.0
1001
ACAD
1000
DSTYLE
1002
{
1070
144
1040
1
1002
}
  0
DIMENSION
  5
15A
100
AcDbEntity
  8
0
 62
256
370
-1
  6
BYLAYER
100
AcDbDimension
 10
341.0
 20
86.3818279977963499
 30
0.0
 11
401.0
 21
88.2568279977963499
 31
0.0
 70
1
 71
8
 72
2
 41
1.0
 42
0.0
  1

  3
Standard
100
AcDbAlignedDimension
 13
341.0
 23
83.0
 33
0.0
 14
461.0
 24
83.0
 34
0.0
1001
ACAD
1000
DSTYLE
1002
{
1070
144
1040
1
1002
}
  0
DIMENSION
  5
15B
100
AcDbEntity
  8
0
 62
256
370
-1
  6
BYLAYER
100
AcDbDimension
 10
419.0
 20
83.0
 30
0.0
 11
417.125
 21
95.5
 31
0.0
 70
1
 71
8
 72
2
 41
1.0
 42
0.0
  1

  3
Standard
100
AcDbAlignedDimension
 13
412.0
 23
83.0
 33
0.0
 14
412.0
 24
108.0
 34
0.0
1001
ACAD
1000
DSTYLE
1002
{
1070
144
1040
1
1002
}
  0
DIMENSION
  5
15C
100
AcDbEntity
  8
0
 62
256
370
-1
  6
BYLAYER
100
AcDbDimension
 10
341.0
 20
117.7350907545477554
 30
0.0
 11
401.0
 21
119.6100907545477554
 31
0.0
 70
1
 71
8
 72
2
 41
1.0
 42
0.0
  1

  3
Standard
100
AcDbAlignedDimension
 13
341.0
 23
112.0
 33
0.0
 14
461.0
 24
112.0
 34
0.0
1001
ACAD
1000
DSTYLE
1002
{
1070
144
1040
1
1002
}
  0
DIMENSION
  5
15D
100
AcDbEntity
  8
0
 62
256
370
-1
  6
BYLAYER
100
AcDbDimension
 10
450.2957407527288751
 20
196.0
 30
0.0
 11
448.4207407527288751
 21
154.0
 31
0.0
 70
1
 71
8
 72
2
 41
1.0
 42
0.0
  1

  3
Standard
100
AcDbAlignedDimension
 13
461.0
 23
196.0
 33
0.0
 14
461.0
 24
112.0
 34
0.0
1001
ACAD
1000
DSTYLE
1002
{
1070
144
1040
1
1002
}
  0
DIMENSION
  5
15E
100
AcDbEntity
  8
0
 62
256
370
-1
  6
BYLAYER
100
AcDbDimension
 10
500.0
 20
176.9472054805751213
 30
0.0
 11
512.5
 21
178.8222054805751213
 31
0.0
 70
1
 71
8
 72
2
 41
1.0
 42
0.0
  1

  3
Standard
100
AcDbAlignedDimension
 13
500.0
 23
200.0
 33
0.0
 14
525.0
 24
200.0
 34
0.0
1001
ACAD
1000
DSTYLE
1002
{
1070
144
1040
1
1002
}
  0
DIMENSION
  5
15F
100
AcDbEntity
  8
0
 62
256
370
-1
  6
BYLAYER
100
AcDbDimension
 10
507.3075764325867567
 20
200.0
 30
0.0
 11
505.4325764325867567
 21
167.5
 31
0.0
 70
1
 71
8
 72
2
 41
1.0
 42
0.0
  1

  3
Standard
100
AcDbAlignedDimension
 13
500.0
 23
200.0
 33
0.0
 14
500.0
 24
135.0
 34
0.0
1001
ACAD
1000
DSTYLE
1002
{
1070
144
1040
1
1002
}
  0
DIMENSION
  5
160
100
AcDbEntity
  8
0
 62
256
370
-1
  6
BYLAYER
100
AcDbDimension
 10
507.3075764325867567
 20
134.0
 30
0.0
 11
505.4325764325867567
 21
98.0
 31
0.0
 70
1
 71
8
 72
2
 41
1.0
 42
0.0
  1

  3
Standard
100
AcDbAlignedDimension
 13
500.0
 23
134.0
 33
0.0
 14
500.0
 24
62.0
 34
0.0
1001
ACAD
1000
DSTYLE
1002
{
1070
144
1040
1
1002
}
  0
INSERT
  5
161
100
AcDbEntity
100
AcDbBlockReference
  8
0
 62
256
370
-1
  6
BYLAYER
  2
wheel2_side
 10
700.0
 20
150.0
 30
0.0
  0
INSERT
  5
162
100
AcDbEntity
100
AcDbBlockReference
  8
0
 62
256
370
-1
  6
BYLAYER
  2
wheel2_side
 10
807.4278073285593109
 20
110.1290864393301234
 30
0.0
  0
INSERT
  5
163
100
AcDbEntity
100
AcDbBlockReference
  8
0
 62
256
370
-1
  6
BYLAYER
  2
wheel2_side
 10
682.2284140853134886
 20
32.7929723314481407
 30
0.0
  0
INSERT
  5
164
100
AcDbEntity
100
AcDbBlockReference
  8
0
 62
256
370
-1
  6
BYLAYER
  2
wheel2_side
 10
790.0
 20
0.0000000000000142
 30
0.0
  0
ENDSEC
  0
SECTION
  2
OBJECTS
  0
DICTIONARY
  5
C
100
AcDbDictionary
280
0
281
1
  3
ACAD_GROUP
350
D
  3
ACAD_LAYOUT
350
1A
  3
ACAD_MLINESTYLE
350
17
  3
ACAD_PLOTSETTINGS
350
19
  3
ACAD_PLOTSTYLENAME
350
E
  3
AcDbVariableDictionary
350
165
  3
QCAD_OBJECTS
350
166
  0
DICTIONARY
  5
D
100
AcDbDictionary
280
0
281
1
  0
ACDBDICTIONARYWDFLT
  5
E
100
AcDbDictionary
281
1
  3
Normal
350
F
100
AcDbDictionaryWithDefault
340
F
  0
ACDBPLACEHOLDER
  5
F
  0
DICTIONARY
  5
17
100
AcDbDictionary
280
0
281
1
  3
Standard
350
18
  0
MLINESTYLE
  5
18
100
AcDbMlineStyle
  2
STANDARD
 70
0
  3

 62
256
 51
90.0
 52
90.0
 71
2
 49
0.5
 62
256
  6
BYLAYER
 49
-0.5
 62
256
  6
BYLAYER
  0
DICTIONARY
  5
19
100
AcDbDictionary
280
0
281
1
  0
DICTIONARY
  5
1A
100
AcDbDictionary
281
1
  3
Layout1
350
1E
  3
Layout2
350
26
  3
Model
350
22
  0
LAYOUT
  5
1E
100
AcDbPlotSettings
  1

  2
none_device
  4

  6

 40
0.0
 41
0.0
 42
0.0
 43
0.0
 44
0.0
 45
0.0
 46
0.0
 47
0.0
 48
0.0
 49
0.0
140
0.0
141
0.0
142
1.0
143
1.0
 70
688
 72
0
 73
0
 74
5
  7

 75
16
147
1.0
148
0.0
149
0.0
100
AcDbLayout
  1
Layout1
 70
1
 71
1
 10
0.0
 20
0.0
 11
420.0
 21
297.0
 12
0.0
 22
0.0
 32
0.0
 14
100000000000000000000.0
 24
100000000000000000000.0
 34
100000000000000000000.0
 15
-100000000000000000000.0
 25
-100000000000000000000.0
 35
-100000000000000000000.0
146
0.0
 13
0.0
 23
0.0
 33
0.0
 16
1.0
 26
0.0
 36
0.0
 17
0.0
 27
1.0
 37
0.0
 76
0
330
1B
  0
LAYOUT
  5
22
100
AcDbPlotSettings
  1

  2
none_device
  4

  6

 40
0.0
 41
0.0
 42
0.0
 43
0.0
 44
0.0
 45
0.0
 46
0.0
 47
0.0
 48
0.0
 49
0.0
140
0.0
141
0.0
142
1.0
143
1.0
 70
1712
 72
0
 73
0
 74
0
  7

 75
0
147
1.0
148
0.0
149
0.0
100
AcDbLayout
  1
Model
 70
1
 71
0
 10
0.0
 20
0.0
 11
12.0
 21
9.0
 12
0.0
 22
0.0
 32
0.0
 14
0.0
 24
0.0
 34
0.0
 15
0.0
 25
0.0
 35
0.0
146
0.0
 13
0.0
 23
0.0
 33
0.0
 16
1.0
 26
0.0
 36
0.0
 17
0.0
 27
1.0
 37
0.0
 76
0
330
1F
  0
LAYOUT
  5
26
100
AcDbPlotSettings
  1

  2
none_device
  4

  6

 40
0.0
 41
0.0
 42
0.0
 43
0.0
 44
0.0
 45
0.0
 46
0.0
 47
0.0
 48
0.0
 49
0.0
140
0.0
141
0.0
142
1.0
143
1.0
 70
688
 72
0
 73
0
 74
5
  7

 75
16
147
1.0
148
0.0
149
0.0
100
AcDbLayout
  1
Layout2
 70
1
 71
2
 10
0.0
 20
0.0
 11
12.0
 21
9.0
 12
0.0
 22
0.0
 32
0.0
 14
0.0
 24
0.0
 34
0.0
 15
0.0
 25
0.0
 35
0.0
146
0.0
 13
0.0
 23
0.0
 33
0.0
 16
1.0
 26
0.0
 36
0.0
 17
0.0
 27
1.0
 37
0.0
 76
0
330
23
  0
DICTIONARY
  5
165
100
AcDbDictionary
281
1
  3
DIMASSOC
350
168
  3
HIDETEXT
350
167
  0
DICTIONARYVAR
  5
167
100
DictionaryVariables
280
0
  1
2
  0
DICTIONARYVAR
  5
168
100
DictionaryVariables
280
0
  1
1
  0
DICTIONARY
  5
166
100
AcDbDictionary
281
1
  3
Grid/DisplayGrid00
350
169
  3
Grid/DisplayGrid01
350
16A
  3
Grid/DisplayGrid02
350
16B
  3
Grid/DisplayGrid03
350
16C
  3
Grid/GridSpacingX00
350
16D
  3
Grid/GridSpacingX01
350
16E
  3
Grid/GridSpacingX02
350
16F
  3
Grid/GridSpacingX03
350
170
  3
Grid/GridSpacingY00
350
171
  3
Grid/GridSpacingY01
350
172
  3
Grid/GridSpacingY02
350
173
  3
Grid/GridSpacingY03
350
174
  3
Grid/IsometricGrid00
350
175
  3
Grid/IsometricGrid01
350
176
  3
Grid/IsometricGrid02
350
177
  3
Grid/IsometricGrid03
350
178
  3
Grid/IsometricProjection00
350
179
  3
Grid/IsometricProjection01
350
17A
  3
Grid/IsometricProjection02
350
17B
  3
Grid/IsometricProjection03
350
17C
  3
Grid/MetaGridSpacingX00
350
17D
  3
Grid/MetaGridSpacingX01
350
17E
  3
Grid/MetaGridSpacingX02
350
17F
  3
Grid/MetaGridSpacingX03
350
180
  3
Grid/MetaGridSpacingY00
350
181
  3
Grid/MetaGridSpacingY01
350
182
  3
Grid/MetaGridSpacingY02
350
183
  3
Grid/MetaGridSpacingY03
350
184
  3
MultiPageSettings/Columns
350
185
  3
MultiPageSettings/GlueMarginsBottom
350
186
  3
MultiPageSettings/GlueMarginsLeft
350
187
  3
MultiPageSettings/GlueMarginsRight
350
188
  3
MultiPageSettings/GlueMarginsTop
350
189
  3
MultiPageSettings/PrintCropMarks
350
18A
  3
MultiPageSettings/Rows
350
18B
  3
PageSettings/OffsetX
350
18C
  3
PageSettings/OffsetY
350
18D
  3
PageSettings/PageOrientation
350
18E
  3
PageSettings/PaperHeight
350
18F
  3
PageSettings/PaperWidth
350
190
  3
PageSettings/Scale
350
191
  3
PageSettings/ShowPaperBorders
350
192
  3
UnitSettings/PaperUnit
350
193
  0
XRECORD
  5
169
330
166
100
AcDbXrecord
280
1
290
1
  0
XRECORD
  5
16A
330
166
100
AcDbXrecord
280
1
290
1
  0
XRECORD
  5
16B
330
166
100
AcDbXrecord
280
1
290
1
  0
XRECORD
  5
16C
330
166
100
AcDbXrecord
280
1
290
1
  0
XRECORD
  5
16D
330
166
100
AcDbXrecord
280
1
1000
auto
  0
XRECORD
  5
16E
330
166
100
AcDbXrecord
280
1
1000
auto
  0
XRECORD
  5
16F
330
166
100
AcDbXrecord
280
1
1000
auto
  0
XRECORD
  5
170
330
166
100
AcDbXrecord
280
1
1000
auto
  0
XRECORD
  5
171
330
166
100
AcDbXrecord
280
1
1000
auto
  0
XRECORD
  5
172
330
166
100
AcDbXrecord
280
1
1000
auto
  0
XRECORD
  5
173
330
166
100
AcDbXrecord
280
1
1000
auto
  0
XRECORD
  5
174
330
166
100
AcDbXrecord
280
1
1000
auto
  0
XRECORD
  5
175
330
166
100
AcDbXrecord
280
1
290
0
  0
XRECORD
  5
176
330
166
100
AcDbXrecord
280
1
290
0
  0
XRECORD
  5
177
330
166
100
AcDbXrecord
280
1
290
0
  0
XRECORD
  5
178
330
166
100
AcDbXrecord
280
1
290
0
  0
XRECORD
  5
179
330
166
100
AcDbXrecord
280
1
 90
0
  0
XRECORD
  5
17A
330
166
100
AcDbXrecord
280
1
 90
0
  0
XRECORD
  5
17B
330
166
100
AcDbXrecord
280
1
 90
0
  0
XRECORD
  5
17C
330
166
100
AcDbXrecord
280
1
 90
0
  0
XRECORD
  5
17D
330
166
100
AcDbXrecord
280
1
1000
auto
  0
XRECORD
  5
17E
330
166
100
AcDbXrecord
280
1
1000
auto
  0
XRECORD
  5
17F
330
166
100
AcDbXrecord
280
1
1000
auto
  0
XRECORD
  5
180
330
166
100
AcDbXrecord
280
1
1000
auto
  0
XRECORD
  5
181
330
166
100
AcDbXrecord
280
1
1000
auto
  0
XRECORD
  5
182
330
166
100
AcDbXrecord
280
1
1000
auto
  0
XRECORD
  5
183
330
166
100
AcDbXrecord
280
1
1000
auto
  0
XRECORD
  5
184
330
166
100
AcDbXrecord
280
1
1000
auto
  0
XRECORD
  5
185
330
166
100
AcDbXrecord
280
1
 90
1
  0
XRECORD
  5
186
330
166
100
AcDbXrecord
280
1
 40
10.0
  0
XRECORD
  5
187
330
166
100
AcDbXrecord
280
1
 40
10.0
  0
XRECORD
  5
188
330
166
100
AcDbXrecord
280
1
 40
10.0
  0
XRECORD
  5
189
330
166
100
AcDbXrecord
280
1
 40
10.0
  0
XRECORD
  5
18A
330
166
100
AcDbXrecord
280
1
290
0
  0
XRECORD
  5
18B
330
166
100
AcDbXrecord
280
1
 90
1
  0
XRECORD
  5
18C
330
166
100
AcDbXrecord
280
1
 40
-64.1150170070658589
  0
XRECORD
  5
18D
330
166
100
AcDbXrecord
280
1
 40
-57.4376545176639723
  0
XRECORD
  5
18E
330
166
100
AcDbXrecord
280
1
1000
Landscape
  0
XRECORD
  5
18F
330
166
100
AcDbXrecord
280
1
 40
279.3999999999999773
  0
XRECORD
  5
190
330
166
100
AcDbXrecord
280
1
 40
215.9000000000000057
  0
XRECORD
  5
191
330
166
100
AcDbXrecord
280
1
1000
1:1
  0
XRECORD
  5
192
330
166
100
AcDbXrecord
280
1
290
1
  0
XRECORD
  5
193
330
166
100
AcDbXrecord
280
1
 90
4
  0
ENDSEC
  0
EOF
