M48
;DRILL file {KiCad (2015-07-22 BZR 5980)-product} date Friday, October 16, 2015 'amt' 10:58:12 am
;FORMAT={-:-/ absolute / inch / decimal}
FMAT,2
INCH,TZ
T1C0.014
T2C0.031
T3C0.032
T4C0.035
T5C0.035
T6C0.039
T7C0.039
T8C0.040
T9C0.079
T10C0.354
%
G90
G05
M72
T1
X2.4686Y-5.1653
X2.5186Y-5.1653
X2.5335Y-4.5425
X2.5436Y-5.2653
X2.5436Y-5.3153
X2.563Y-5.5091
X2.5705Y-4.6665
X2.5705Y-4.7138
X2.5709Y-4.8909
X2.5906Y-4.572
X2.5936Y-5.2653
X2.6063Y-5.5051
X2.6102Y-5.2098
X2.6181Y-2.45
X2.6181Y-4.7217
X2.6378Y-4.7807
X2.6636Y-4.7153
X2.6654Y-4.8988
X2.6693Y-4.9618
X2.6826Y-4.8476
X2.7186Y-4.5653
X2.7283Y-4.9303
X2.7283Y-4.9918
X2.7362Y-5.0484
X2.7436Y-4.4903
X2.7471Y-5.8655
X2.7638Y-4.8043
X2.8141Y-5.834
X2.8186Y-4.4903
X2.8436Y-5.1403
X2.8771Y-5.8891
X2.878Y-4.9224
X2.9016Y-4.8752
X2.9173Y-4.6744
X2.9409Y-5.1528
X2.9685Y-4.9992
X3.0177Y-4.9677
X3.0571Y-4.9677
X3.0709Y-4.6862
X3.0778Y-5.8616
X3.1142Y-4.6862
X3.1436Y-5.2153
X3.1614Y-4.6862
X3.1763Y-5.834
X3.1936Y-4.9903
X3.2036Y-4.7503
X3.2686Y-5.1653
X3.3228Y-4.6193
X3.3436Y-4.6903
X3.3436Y-5.5153
X3.3686Y-5.4903
X3.3898Y-2.45
X3.3936Y-4.6653
X3.3936Y-5.4403
X3.3937Y-4.387
X3.3937Y-4.4382
X3.3937Y-4.6232
X3.4075Y-5.1882
X3.4075Y-5.2827
X3.4436Y-4.7653
X3.4488Y-4.5917
X3.4558Y-5.8891
X3.4921Y-4.4539
X3.4936Y-4.7653
X3.4936Y-5.1903
X3.4941Y-4.9461
X3.5413Y-5.1016
X3.5436Y-4.7653
X3.589Y-5.4153
X3.5936Y-4.8403
X3.5945Y-5.3673
X3.6436Y-5.3653
X4.1473Y-4.908
X4.1614Y-2.45
X4.3441Y-5.1245
X4.3835Y-5.1639
X4.7926Y-5.8325
X4.8516Y-5.7833
X4.9331Y-2.45
X5.7047Y-2.45
T2
X4.8713Y-5.9113
X4.8713Y-5.9802
T3
X2.4803Y-4.7531
X2.6378Y-5.6272
X2.8819Y-5.4933
X2.9606Y-5.4933
X3.122Y-5.4933
X3.2047Y-5.4933
T4
X2.8259Y-6.0545
X2.9046Y-6.0545
X2.9834Y-6.0545
X3.0621Y-6.0545
X3.1408Y-6.0545
X3.2196Y-6.0545
X3.2983Y-6.0545
X3.3771Y-6.0545
X3.4558Y-6.0545
T5
X3.9345Y-4.7567
X3.9345Y-4.9299
T6
X2.4281Y-3.5356
X2.5463Y-3.5356
X3.1988Y-3.5346
X3.3169Y-3.5346
X3.9705Y-3.5356
X4.0886Y-3.5356
X4.7421Y-3.5346
X4.8602Y-3.5346
X5.5138Y-3.5327
X5.6319Y-3.5327
T7
X2.4016Y-2.3303
X2.4016Y-2.4303
X2.5Y-2.3303
X2.5Y-2.4303
X3.1732Y-2.3303
X3.1732Y-2.4303
X3.2717Y-2.3303
X3.2717Y-2.4303
X3.9449Y-2.3303
X3.9449Y-2.4303
X4.0433Y-2.3303
X4.0433Y-2.4303
X4.7165Y-2.3303
X4.7165Y-2.4303
X4.815Y-2.3303
X4.815Y-2.4303
X5.4882Y-2.3303
X5.4882Y-2.4303
X5.5866Y-2.3303
X5.5866Y-2.4303
T8
X2.6936Y-5.2153
X2.7471Y-6.0545
X2.7936Y-5.2153
X2.7936Y-5.3653
X2.8771Y-5.9639
X2.8936Y-4.5103
X2.8936Y-5.2153
X2.8936Y-5.3653
X2.9771Y-5.9639
X2.9936Y-4.5103
X2.9936Y-5.2153
X2.9936Y-5.3653
X3.0771Y-5.9639
X3.0936Y-5.3653
X3.1771Y-5.9639
X3.1936Y-5.3653
X3.2771Y-5.9639
X3.2936Y-5.3653
X3.3771Y-5.9639
X4.9796Y-5.9408
X5.0796Y-5.9408
X5.1796Y-5.9408
X5.2796Y-5.9408
X5.3796Y-5.9408
X5.4796Y-5.9408
T9
X2.4882Y-3.1469
X3.2598Y-3.1469
X4.0315Y-3.1469
X4.8031Y-3.1469
X5.5748Y-3.1469
T10
X2.4872Y-3.8506
X3.2589Y-3.8506
X4.0276Y-3.8516
X4.8031Y-3.8516
X5.5748Y-3.8516
T0
M30
