G04 #@! TF.FileFunction,Soldermask,Bot*
%FSLAX46Y46*%
G04 Gerber Fmt 4.6, Leading zero omitted, Abs format (unit mm)*
G04 Created by KiCad (PCBNEW 4.0.2+dfsg1-2~bpo8+1-stable) date Sat 05 Mar 2016 08:20:57 PM MST*
%MOMM*%
G01*
G04 APERTURE LIST*
%ADD10C,0.100000*%
%ADD11R,1.727200X2.032000*%
%ADD12O,1.727200X2.032000*%
%ADD13R,2.032000X2.032000*%
%ADD14O,2.032000X2.032000*%
%ADD15C,1.501140*%
%ADD16R,2.032000X1.727200*%
%ADD17O,2.032000X1.727200*%
%ADD18C,3.556000*%
G04 APERTURE END LIST*
D10*
D11*
X66120000Y-66830000D03*
D12*
X68660000Y-66830000D03*
X71200000Y-66830000D03*
X73740000Y-66830000D03*
D13*
X65485000Y-83975000D03*
D14*
X62945000Y-83975000D03*
D11*
X66120000Y-78895000D03*
D12*
X68660000Y-78895000D03*
X71200000Y-78895000D03*
X73740000Y-78895000D03*
X76280000Y-78895000D03*
X78820000Y-78895000D03*
D15*
X73740000Y-82070000D03*
X71200000Y-82070000D03*
X68660000Y-82070000D03*
X76280000Y-82070000D03*
X59135000Y-43335000D03*
X61675000Y-43335000D03*
D16*
X59135000Y-55400000D03*
D17*
X59135000Y-52860000D03*
X59135000Y-50320000D03*
D16*
X87710000Y-55400000D03*
D17*
X87710000Y-52860000D03*
X87710000Y-50320000D03*
D16*
X87710000Y-71910000D03*
D17*
X87710000Y-69370000D03*
X87710000Y-66830000D03*
D16*
X59135000Y-71910000D03*
D17*
X59135000Y-69370000D03*
X59135000Y-66830000D03*
D11*
X54055000Y-59210000D03*
D12*
X56595000Y-59210000D03*
X59135000Y-59210000D03*
D11*
X92790000Y-59210000D03*
D12*
X90250000Y-59210000D03*
X87710000Y-59210000D03*
D11*
X54055000Y-63020000D03*
D12*
X56595000Y-63020000D03*
X59135000Y-63020000D03*
D11*
X92790000Y-63020000D03*
D12*
X90250000Y-63020000D03*
X87710000Y-63020000D03*
D18*
X53500000Y-40730000D03*
X93500000Y-40730000D03*
X93500000Y-80730000D03*
X53500000Y-80730000D03*
M02*
