G04 #@! TF.FileFunction,Profile,NP*
%FSLAX46Y46*%
G04 Gerber Fmt 4.6, Leading zero omitted, Abs format (unit mm)*
G04 Created by KiCad (PCBNEW (2015-07-22 BZR 5980)-product) date Friday, October 16, 2015 'amt' 10:57:48 am*
%MOMM*%
G01*
G04 APERTURE LIST*
%ADD10C,0.100000*%
G04 APERTURE END LIST*
D10*
X97013224Y-151421777D02*
G75*
G02X96836447Y-151495000I-176777J176777D01*
G01*
X90690000Y-151495000D02*
X96836447Y-151495000D01*
X111043554Y-150995000D02*
G75*
G02X110866777Y-150921777I-1J250000D01*
G01*
X111190000Y-115995000D02*
G75*
G02X110940000Y-116245000I-250000J0D01*
G01*
X97440000Y-116245000D02*
G75*
G02X97190000Y-115995000I0J250000D01*
G01*
X132955000Y-57245000D02*
X132955000Y-74745000D01*
X131895000Y-74745000D02*
X131895000Y-57245000D01*
X113355000Y-57245000D02*
X113355000Y-74745000D01*
X112295000Y-74745000D02*
X112295000Y-57245000D01*
X93755000Y-57245000D02*
X93755000Y-74745000D01*
X92695000Y-74745000D02*
X92695000Y-57245000D01*
X74155000Y-57245000D02*
X74155000Y-74745000D01*
X73095000Y-74745000D02*
X73095000Y-57245000D01*
X103189999Y-105033563D02*
G75*
G02X103403793Y-104786198I250001J0D01*
G01*
X100990000Y-104718571D02*
G75*
G02X101190000Y-104963520I-50000J-244949D01*
G01*
X109287692Y-99052414D02*
G75*
G02X103403793Y-104786198I-6897692J1192414D01*
G01*
X101190000Y-110141446D02*
G75*
G02X101116777Y-110318223I-250000J-1D01*
G01*
X103440000Y-110245000D02*
G75*
G02X103190000Y-109995000I0J250000D01*
G01*
X103190000Y-105033563D02*
X103190000Y-109995000D01*
X101190000Y-104963520D02*
X101190000Y-110141447D01*
X142690000Y-84466010D02*
X142690000Y-83860000D01*
X140490000Y-84466010D02*
X140490000Y-83860000D01*
X138490000Y-84432150D02*
X138490000Y-83860000D01*
X140621356Y-84686064D02*
G75*
G02X140955000Y-85245000I-301356J-558936D01*
G01*
X142225000Y-85245000D02*
G75*
G02X142558644Y-84686064I635000J0D01*
G01*
X144841130Y-84661769D02*
G75*
G02X145225000Y-85245000I-251130J-583231D01*
G01*
X141590000Y-89610000D02*
G75*
G02X140955000Y-88975000I0J635000D01*
G01*
X142225000Y-88975000D02*
G75*
G02X141590000Y-89610000I-635000J0D01*
G01*
X145225000Y-85245000D02*
X145225000Y-89941239D01*
X137955000Y-85245000D02*
X137955000Y-89941239D01*
X141590000Y-89610000D02*
X141590000Y-89610000D01*
X142225000Y-88975000D02*
X142225000Y-85245000D01*
X144940000Y-83610000D02*
X146590000Y-83610000D01*
X144841130Y-84661769D02*
G75*
G02X144690000Y-84432150I98870J229619D01*
G01*
X138490000Y-84432150D02*
G75*
G02X138338870Y-84661769I-250000J0D01*
G01*
X138240000Y-83610000D02*
G75*
G02X138490000Y-83860000I0J-250000D01*
G01*
X144690000Y-84432150D02*
X144690000Y-83860000D01*
X122625000Y-85245000D02*
G75*
G02X122958644Y-84686064I635000J0D01*
G01*
X125625000Y-85245000D02*
X125625000Y-89941239D01*
X118890000Y-84432150D02*
X118890000Y-83860000D01*
X125241130Y-84661769D02*
G75*
G02X125625000Y-85245000I-251130J-583231D01*
G01*
X140740000Y-83610000D02*
X142440000Y-83610000D01*
X121021356Y-84686064D02*
G75*
G02X121355000Y-85245000I-301356J-558936D01*
G01*
X144690000Y-83860000D02*
G75*
G02X144940000Y-83610000I250000J0D01*
G01*
X142690000Y-84466010D02*
G75*
G02X142558644Y-84686064I-250000J0D01*
G01*
X137955000Y-85245000D02*
G75*
G02X138338870Y-84661769I635000J0D01*
G01*
X120890000Y-84466010D02*
X120890000Y-83860000D01*
X94176745Y-105136309D02*
G75*
G02X77947945Y-112232953I-16986745J16741199D01*
G01*
X55081309Y-110258255D02*
G75*
G02X55078028Y-109356972I445732J452270D01*
G01*
X99298691Y-144231745D02*
G75*
G02X97838201Y-142656547I16741199J16986745D01*
G01*
X55081309Y-110258255D02*
G75*
G02X55081309Y-144231745I-16741199J-16986745D01*
G01*
X87914840Y-144792424D02*
G75*
G02X94176745Y-149353691I-10724840J-21302466D01*
G01*
X96291974Y-148143026D02*
X95078028Y-149356972D01*
X98088026Y-108143026D02*
X99301972Y-109356972D01*
X99301972Y-145133028D02*
X98088026Y-146346974D01*
X95078028Y-105133028D02*
X96291974Y-106346974D01*
X97190000Y-146346974D02*
X94552492Y-143709466D01*
X96291974Y-107245000D02*
X93654466Y-109882508D01*
X93654466Y-144607492D02*
X96291974Y-147245000D01*
X94552492Y-110780534D02*
X97190000Y-108143026D01*
X93654466Y-143709466D02*
X93654466Y-143709466D01*
X93654466Y-110780534D02*
X93654466Y-110780534D01*
X56291974Y-146346974D02*
X55078028Y-145133028D01*
X56291975Y-108143025D02*
G75*
G02X57190000Y-108143026I449012J-449013D01*
G01*
X60725534Y-110780534D02*
G75*
G02X59827508Y-110780534I-449013J449013D01*
G01*
X60725534Y-109882508D02*
G75*
G02X60725534Y-110780534I-449013J-449013D01*
G01*
X58088025Y-107244999D02*
G75*
G02X58088026Y-106346974I449013J449012D01*
G01*
X59301972Y-105133028D02*
G75*
G02X60203255Y-105136309I449013J-449013D01*
G01*
X94176745Y-105136309D02*
G75*
G02X95078028Y-105133028I452270J-445732D01*
G01*
X96291975Y-106346975D02*
G75*
G02X96291974Y-107245000I-449013J-449012D01*
G01*
X93654466Y-110780534D02*
G75*
G02X93654466Y-109882508I449013J449013D01*
G01*
X94552492Y-110780534D02*
G75*
G02X93654466Y-110780534I-449013J449013D01*
G01*
X97190001Y-108143025D02*
G75*
G02X98088026Y-108143026I449012J-449013D01*
G01*
X99301972Y-109356972D02*
G75*
G02X99298691Y-110258255I-449013J-449013D01*
G01*
X99298691Y-144231745D02*
G75*
G02X99301972Y-145133028I-445732J-452270D01*
G01*
X98088025Y-146346975D02*
G75*
G02X97190000Y-146346974I-449012J449013D01*
G01*
X93654466Y-143709466D02*
G75*
G02X94552492Y-143709466I449013J-449013D01*
G01*
X93654466Y-144607492D02*
G75*
G02X93654466Y-143709466I449013J449013D01*
G01*
X96291975Y-147245001D02*
G75*
G02X96291974Y-148143026I-449013J-449012D01*
G01*
X95078028Y-149356972D02*
G75*
G02X94176745Y-149353691I-449013J449013D01*
G01*
X60203255Y-149353691D02*
G75*
G02X59301972Y-149356972I-452270J445732D01*
G01*
X58088025Y-148143025D02*
G75*
G02X58088026Y-147245000I449013J449012D01*
G01*
X60725534Y-143709466D02*
G75*
G02X60725534Y-144607492I-449013J-449013D01*
G01*
X59827508Y-143709466D02*
G75*
G02X60725534Y-143709466I449013J-449013D01*
G01*
X57189999Y-146346975D02*
G75*
G02X56291974Y-146346974I-449012J449013D01*
G01*
X55078028Y-145133028D02*
G75*
G02X55081309Y-144231745I449013J449013D01*
G01*
X60725534Y-110780534D02*
X60725534Y-110780534D01*
X60725534Y-109882508D02*
X58088026Y-107245000D01*
X57190000Y-108143026D02*
X59827508Y-110780534D01*
X55078028Y-109356972D02*
X56291974Y-108143026D01*
X58088026Y-106346974D02*
X59301972Y-105133028D01*
X60725534Y-143709466D02*
X60725534Y-143709466D01*
X59827508Y-143709466D02*
X57190000Y-146346974D01*
X58088026Y-147245000D02*
X60725534Y-144607492D01*
X59301972Y-149356972D02*
X58088026Y-148143026D01*
X152088025Y-146346975D02*
G75*
G02X151190000Y-146346974I-449012J449013D01*
G01*
X147654466Y-143709466D02*
G75*
G02X148552492Y-143709466I449013J-449013D01*
G01*
X147654466Y-144607492D02*
G75*
G02X147654466Y-143709466I449013J449013D01*
G01*
X150291975Y-147245001D02*
G75*
G02X150291974Y-148143026I-449013J-449012D01*
G01*
X149078028Y-149356972D02*
G75*
G02X148176745Y-149353691I-449013J449013D01*
G01*
X114203255Y-149353691D02*
G75*
G02X113301972Y-149356972I-452270J445732D01*
G01*
X112088025Y-148143025D02*
G75*
G02X112088026Y-147245000I449013J449012D01*
G01*
X114725534Y-143709466D02*
G75*
G02X114725534Y-144607492I-449013J-449013D01*
G01*
X113827508Y-143709466D02*
G75*
G02X114725534Y-143709466I449013J-449013D01*
G01*
X111189999Y-146346975D02*
G75*
G02X110291974Y-146346974I-449012J449013D01*
G01*
X109078028Y-145133028D02*
G75*
G02X109081309Y-144231745I449013J449013D01*
G01*
X114725534Y-110780534D02*
X114725534Y-110780534D01*
X114725534Y-109882508D02*
X112088026Y-107245000D01*
X111190000Y-108143026D02*
X113827508Y-110780534D01*
X112088026Y-106346974D02*
X113301972Y-105133028D01*
X114725534Y-143709466D02*
X114725534Y-143709466D01*
X113827508Y-143709466D02*
X111190000Y-146346974D01*
X112088026Y-147245000D02*
X114725534Y-144607492D01*
X113301972Y-149356972D02*
X112088026Y-148143026D01*
X110291974Y-146346974D02*
X109078028Y-145133028D01*
X147654466Y-143709466D02*
X147654466Y-143709466D01*
X147654466Y-144607492D02*
X150291974Y-147245000D01*
X151190000Y-146346974D02*
X148552492Y-143709466D01*
X153301972Y-145133028D02*
X152088026Y-146346974D01*
X150291974Y-148143026D02*
X149078028Y-149356972D01*
X147654466Y-110780534D02*
X147654466Y-110780534D01*
X148552492Y-110780534D02*
X151190000Y-108143026D01*
X150291974Y-107245000D02*
X147654466Y-109882508D01*
X149078028Y-105133028D02*
X150291974Y-106346974D01*
X152088026Y-108143026D02*
X153301972Y-109356972D01*
X148176745Y-105136309D02*
G75*
G02X132958538Y-112179339I-16986745J16741199D01*
G01*
X109081309Y-110258255D02*
G75*
G02X111351417Y-112844046I-16741199J-16986745D01*
G01*
X140537987Y-144153322D02*
G75*
G02X148176745Y-149353691I-9347987J-21941568D01*
G01*
X153298691Y-144231745D02*
G75*
G02X153298691Y-110258255I16741199J16986745D01*
G01*
X109081309Y-110258255D02*
G75*
G02X109078028Y-109356972I445732J452270D01*
G01*
X110291975Y-108143025D02*
G75*
G02X111190000Y-108143026I449012J-449013D01*
G01*
X114725534Y-110780534D02*
G75*
G02X113827508Y-110780534I-449013J449013D01*
G01*
X114725534Y-109882508D02*
G75*
G02X114725534Y-110780534I-449013J-449013D01*
G01*
X112088025Y-107244999D02*
G75*
G02X112088026Y-106346974I449013J449012D01*
G01*
X113301972Y-105133028D02*
G75*
G02X114203255Y-105136309I449013J-449013D01*
G01*
X148176745Y-105136309D02*
G75*
G02X149078028Y-105133028I452270J-445732D01*
G01*
X150291975Y-106346975D02*
G75*
G02X150291974Y-107245000I-449013J-449012D01*
G01*
X147654466Y-110780534D02*
G75*
G02X147654466Y-109882508I449013J449013D01*
G01*
X148552492Y-110780534D02*
G75*
G02X147654466Y-110780534I-449013J449013D01*
G01*
X151190001Y-108143025D02*
G75*
G02X152088026Y-108143026I449012J-449013D01*
G01*
X153301972Y-109356972D02*
G75*
G02X153298691Y-110258255I-449013J-449013D01*
G01*
X153298691Y-144231745D02*
G75*
G02X153301972Y-145133028I-445732J-452270D01*
G01*
X110291974Y-108143026D02*
X109078028Y-109356972D01*
X109078028Y-109356972D02*
X109078028Y-109356972D01*
X139568814Y-140586090D02*
G75*
G02X141328081Y-141232945I-8378814J-25503876D01*
G01*
X117848910Y-135623814D02*
G75*
G02X117202055Y-137383081I-25503876J8378814D01*
G01*
X122811186Y-113903910D02*
G75*
G02X121051919Y-113257055I8378814J25503876D01*
G01*
X144531090Y-118866186D02*
G75*
G02X145177945Y-117106919I25503876J-8378814D01*
G01*
X117639736Y-139552601D02*
X118882399Y-140795264D01*
X143497601Y-140795264D02*
X144740264Y-139552601D01*
X144740264Y-114937399D02*
X143497601Y-113694736D01*
X118882399Y-113694736D02*
X117639736Y-114937399D01*
X117202055Y-117106919D02*
G75*
G02X117639736Y-114937399I1851895J755306D01*
G01*
X118882399Y-113694736D02*
G75*
G02X121051919Y-113257055I1414214J-1414214D01*
G01*
X141328081Y-113257055D02*
G75*
G02X143497601Y-113694736I755306J-1851895D01*
G01*
X144740264Y-114937399D02*
G75*
G02X145177945Y-117106919I-1414214J-1414214D01*
G01*
X145177945Y-137383081D02*
G75*
G02X144740264Y-139552601I-1851895J-755306D01*
G01*
X143497601Y-140795264D02*
G75*
G02X141328081Y-141232945I-1414214J1414214D01*
G01*
X121051919Y-141232945D02*
G75*
G02X118882399Y-140795264I-755306J1851895D01*
G01*
X117639736Y-139552601D02*
G75*
G02X117202055Y-137383081I1414214J1414214D01*
G01*
X127349341Y-128745000D02*
X127690000Y-128745000D01*
X135030659Y-125745000D02*
X134690000Y-125745000D01*
X132690000Y-131085659D02*
X132690000Y-130745000D01*
X129690000Y-123404341D02*
X129690000Y-123745000D01*
X117202055Y-117106919D02*
G75*
G02X117848910Y-118866186I-24857021J-10138081D01*
G01*
X141328081Y-113257055D02*
G75*
G02X139568814Y-113903910I-10138081J24857021D01*
G01*
X145177945Y-137383081D02*
G75*
G02X144531090Y-135623814I24857021J10138081D01*
G01*
X121051919Y-141232945D02*
G75*
G02X122811186Y-140586090I10138081J-24857021D01*
G01*
X129690000Y-130745000D02*
X129690000Y-131085659D01*
X127690000Y-125745000D02*
X127349341Y-125745000D01*
X132690000Y-123745000D02*
X132690000Y-123404341D01*
X134690000Y-128745000D02*
X135030659Y-128745000D01*
X127690000Y-128745000D02*
G75*
G02X129690000Y-130745000I0J-2000000D01*
G01*
X132690000Y-130745000D02*
G75*
G02X134690000Y-128745000I2000000J0D01*
G01*
X134690000Y-125745000D02*
G75*
G02X132690000Y-123745000I0J2000000D01*
G01*
X129690000Y-123745000D02*
G75*
G02X127690000Y-125745000I-2000000J0D01*
G01*
X111740943Y-117745000D02*
X95791056Y-117745000D01*
X95156056Y-118380000D02*
X95156056Y-125995000D01*
X95791056Y-136745000D02*
X111740943Y-136745000D01*
X114157020Y-128481675D02*
G75*
G02X112324900Y-136359437I-23169949J1236675D01*
G01*
X112324900Y-136359437D02*
G75*
G02X111740943Y-136745000I-583957J249437D01*
G01*
X111740943Y-117745000D02*
G75*
G02X112324900Y-118130563I0J-635000D01*
G01*
X95156056Y-118380000D02*
G75*
G02X95791056Y-117745000I635000J0D01*
G01*
X95791056Y-136745000D02*
G75*
G02X95156056Y-136110000I0J635000D01*
G01*
X59555000Y-85245000D02*
G75*
G02X59938870Y-84661769I635000J0D01*
G01*
X62555000Y-85245000D02*
X62555000Y-88975000D01*
X63190000Y-89610000D02*
X63190000Y-89610000D01*
X63825000Y-88975000D02*
X63825000Y-85245000D01*
X70087691Y-99052414D02*
G75*
G02X58331364Y-92820788I-6897691J1192414D01*
G01*
X66825000Y-85245000D02*
X66825000Y-89941239D01*
X59555000Y-85245000D02*
X59555000Y-89941239D01*
X68048636Y-92820788D02*
G75*
G02X66825000Y-89941239I2776364J2879549D01*
G01*
X59555000Y-89941238D02*
G75*
G02X58331364Y-92820788I-4000000J-1D01*
G01*
X63825000Y-88975000D02*
G75*
G02X63190000Y-89610000I-635000J0D01*
G01*
X63190000Y-89610000D02*
G75*
G02X62555000Y-88975000I0J635000D01*
G01*
X66441130Y-84661769D02*
G75*
G02X66825000Y-85245000I-251130J-583231D01*
G01*
X63825000Y-85245000D02*
G75*
G02X64158644Y-84686064I635000J0D01*
G01*
X62221356Y-84686064D02*
G75*
G02X62555000Y-85245000I-301356J-558936D01*
G01*
X92695000Y-82975000D02*
G75*
G02X92060000Y-83610000I-635000J0D01*
G01*
X90330000Y-83610000D02*
G75*
G02X89695000Y-82975000I0J635000D01*
G01*
X89060000Y-78610000D02*
G75*
G02X89695000Y-79245000I0J-635000D01*
G01*
X88425000Y-79245000D02*
G75*
G02X89060000Y-78610000I635000J0D01*
G01*
X88425000Y-82975000D02*
G75*
G02X87790000Y-83610000I-635000J0D01*
G01*
X77155000Y-84245000D02*
G75*
G02X77790000Y-83610000I635000J0D01*
G01*
X77155000Y-85975000D02*
G75*
G02X76520000Y-86610000I-635000J0D01*
G01*
X74790000Y-86610000D02*
G75*
G02X74155000Y-85975000I0J635000D01*
G01*
X74155000Y-57245000D02*
G75*
G02X74790000Y-56610000I635000J0D01*
G01*
X76520000Y-56610000D02*
G75*
G02X77155000Y-57245000I0J-635000D01*
G01*
X88425000Y-57245000D02*
X88425000Y-60975000D01*
X77790000Y-61610000D02*
G75*
G02X77155000Y-60975000I0J635000D01*
G01*
X78425000Y-60975000D02*
G75*
G02X77790000Y-61610000I-635000J0D01*
G01*
X89695000Y-60975000D02*
X89695000Y-57245000D01*
X78425000Y-57245000D02*
G75*
G02X79060000Y-56610000I635000J0D01*
G01*
X90330000Y-56610000D02*
X92060000Y-56610000D01*
X88425000Y-79245000D02*
X88425000Y-82975000D01*
X89695000Y-82975000D02*
X89695000Y-79245000D01*
X90330000Y-83610000D02*
X92060000Y-83610000D01*
X79060000Y-56610000D02*
X87790000Y-56610000D01*
X77155000Y-57245000D02*
X77155000Y-60975000D01*
X78425000Y-60975000D02*
X78425000Y-57245000D01*
X74790000Y-56610000D02*
X76520000Y-56610000D01*
X74790000Y-86610000D02*
X76520000Y-86610000D01*
X77155000Y-84245000D02*
X77155000Y-85975000D01*
X89060000Y-61610000D02*
G75*
G02X88425000Y-60975000I0J635000D01*
G01*
X89695000Y-60975000D02*
G75*
G02X89060000Y-61610000I-635000J0D01*
G01*
X87790000Y-56610000D02*
G75*
G02X88425000Y-57245000I0J-635000D01*
G01*
X89695000Y-57245000D02*
G75*
G02X90330000Y-56610000I635000J0D01*
G01*
X92060000Y-56610000D02*
G75*
G02X92695000Y-57245000I0J-635000D01*
G01*
X56920000Y-56610000D02*
G75*
G02X57555000Y-57245000I0J-635000D01*
G01*
X68825000Y-57245000D02*
X68825000Y-60975000D01*
X58190000Y-61610000D02*
G75*
G02X57555000Y-60975000I0J635000D01*
G01*
X58825000Y-60975000D02*
G75*
G02X58190000Y-61610000I-635000J0D01*
G01*
X70095000Y-60975000D02*
X70095000Y-57245000D01*
X58825000Y-57245000D02*
G75*
G02X59460000Y-56610000I635000J0D01*
G01*
X70730000Y-56610000D02*
X72460000Y-56610000D01*
X68825000Y-79245000D02*
X68825000Y-82975000D01*
X70095000Y-82975000D02*
X70095000Y-79245000D01*
X69460000Y-78610000D02*
X69460000Y-78610000D01*
X70730000Y-83610000D02*
X72460000Y-83610000D01*
X59460000Y-56610000D02*
X68190000Y-56610000D01*
X57555000Y-57245000D02*
X57555000Y-60975000D01*
X58825000Y-60975000D02*
X58825000Y-57245000D01*
X55190000Y-56610000D02*
X56920000Y-56610000D01*
X58190000Y-83610000D02*
X59840000Y-83610000D01*
X54555000Y-57245000D02*
X54555000Y-85975000D01*
X55190000Y-86610000D02*
X56920000Y-86610000D01*
X57555000Y-84245000D02*
X57555000Y-85975000D01*
X69460000Y-61610000D02*
G75*
G02X68825000Y-60975000I0J635000D01*
G01*
X70095000Y-60975000D02*
G75*
G02X69460000Y-61610000I-635000J0D01*
G01*
X68190000Y-56610000D02*
G75*
G02X68825000Y-57245000I0J-635000D01*
G01*
X70095000Y-57245000D02*
G75*
G02X70730000Y-56610000I635000J0D01*
G01*
X72460000Y-56610000D02*
G75*
G02X73095000Y-57245000I0J-635000D01*
G01*
X73095000Y-82975000D02*
G75*
G02X72460000Y-83610000I-635000J0D01*
G01*
X70730000Y-83610000D02*
G75*
G02X70095000Y-82975000I0J635000D01*
G01*
X69460000Y-78610000D02*
G75*
G02X70095000Y-79245000I0J-635000D01*
G01*
X68825000Y-79245000D02*
G75*
G02X69460000Y-78610000I635000J0D01*
G01*
X68825000Y-82975000D02*
G75*
G02X68190000Y-83610000I-635000J0D01*
G01*
X57555000Y-84245000D02*
G75*
G02X58190000Y-83610000I635000J0D01*
G01*
X57555000Y-85975000D02*
G75*
G02X56920000Y-86610000I-635000J0D01*
G01*
X55190000Y-86610000D02*
G75*
G02X54555000Y-85975000I0J635000D01*
G01*
X54555000Y-57245000D02*
G75*
G02X55190000Y-56610000I635000J0D01*
G01*
X73595000Y-75245000D02*
X73655000Y-75245000D01*
X73595000Y-77245000D02*
X73655000Y-77245000D01*
X73095000Y-77745000D02*
X73095000Y-82975000D01*
X74155000Y-77745000D02*
X74155000Y-85975000D01*
X74155000Y-74745000D02*
G75*
G02X73655000Y-75245000I-500000J0D01*
G01*
X73595000Y-75245000D02*
G75*
G02X73095000Y-74745000I0J500000D01*
G01*
X73095000Y-77745000D02*
G75*
G02X73595000Y-77245000I500000J0D01*
G01*
X73655000Y-77245000D02*
G75*
G02X74155000Y-77745000I0J-500000D01*
G01*
X66540000Y-83610000D02*
X68190000Y-83610000D01*
X62340000Y-83610000D02*
X64040000Y-83610000D01*
X75897379Y-96638620D02*
G75*
G02X77931364Y-92820788I6892621J-1221380D01*
G01*
X87648636Y-92820788D02*
G75*
G02X86425000Y-89941239I2776364J2879549D01*
G01*
X79155000Y-89941238D02*
G75*
G02X77931364Y-92820788I-4000000J-1D01*
G01*
X109295000Y-82975000D02*
X109295000Y-79245000D01*
X109930000Y-83610000D02*
X111660000Y-83610000D01*
X98660000Y-56610000D02*
X107390000Y-56610000D01*
X96755000Y-57245000D02*
X96755000Y-60975000D01*
X98025000Y-60975000D02*
X98025000Y-57245000D01*
X94390000Y-56610000D02*
X96120000Y-56610000D01*
X94390000Y-86610000D02*
X96120000Y-86610000D01*
X96755000Y-84245000D02*
X96755000Y-85975000D01*
X108660000Y-61610000D02*
G75*
G02X108025000Y-60975000I0J635000D01*
G01*
X109295000Y-60975000D02*
G75*
G02X108660000Y-61610000I-635000J0D01*
G01*
X107390000Y-56610000D02*
G75*
G02X108025000Y-57245000I0J-635000D01*
G01*
X109295000Y-57245000D02*
G75*
G02X109930000Y-56610000I635000J0D01*
G01*
X111660000Y-56610000D02*
G75*
G02X112295000Y-57245000I0J-635000D01*
G01*
X107248636Y-92820788D02*
G75*
G02X106025000Y-89941239I2776364J2879549D01*
G01*
X98755000Y-89941238D02*
G75*
G02X97531364Y-92820788I-4000000J-1D01*
G01*
X93195000Y-75245000D02*
X93255000Y-75245000D01*
X93195000Y-77245000D02*
X93255000Y-77245000D01*
X112295000Y-82975000D02*
G75*
G02X111660000Y-83610000I-635000J0D01*
G01*
X109930000Y-83610000D02*
G75*
G02X109295000Y-82975000I0J635000D01*
G01*
X108660000Y-78610000D02*
G75*
G02X109295000Y-79245000I0J-635000D01*
G01*
X92695000Y-77745000D02*
X92695000Y-82975000D01*
X108025000Y-79245000D02*
G75*
G02X108660000Y-78610000I635000J0D01*
G01*
X93755000Y-77745000D02*
X93755000Y-85975000D01*
X108025000Y-82975000D02*
G75*
G02X107390000Y-83610000I-635000J0D01*
G01*
X93755000Y-74745000D02*
G75*
G02X93255000Y-75245000I-500000J0D01*
G01*
X96755000Y-84245000D02*
G75*
G02X97390000Y-83610000I635000J0D01*
G01*
X93195000Y-75245000D02*
G75*
G02X92695000Y-74745000I0J500000D01*
G01*
X96755000Y-85975000D02*
G75*
G02X96120000Y-86610000I-635000J0D01*
G01*
X92695000Y-77745000D02*
G75*
G02X93195000Y-77245000I500000J0D01*
G01*
X94390000Y-86610000D02*
G75*
G02X93755000Y-85975000I0J635000D01*
G01*
X93255000Y-77245000D02*
G75*
G02X93755000Y-77745000I0J-500000D01*
G01*
X93755000Y-57245000D02*
G75*
G02X94390000Y-56610000I635000J0D01*
G01*
X96120000Y-56610000D02*
G75*
G02X96755000Y-57245000I0J-635000D01*
G01*
X108025000Y-57245000D02*
X108025000Y-60975000D01*
X97390000Y-61610000D02*
G75*
G02X96755000Y-60975000I0J635000D01*
G01*
X98025000Y-60975000D02*
G75*
G02X97390000Y-61610000I-635000J0D01*
G01*
X109295000Y-60975000D02*
X109295000Y-57245000D01*
X98025000Y-57245000D02*
G75*
G02X98660000Y-56610000I635000J0D01*
G01*
X109930000Y-56610000D02*
X111660000Y-56610000D01*
X108025000Y-79245000D02*
X108025000Y-82975000D01*
X128895000Y-82975000D02*
X128895000Y-79245000D01*
X129530000Y-83610000D02*
X131260000Y-83610000D01*
X118260000Y-56610000D02*
X126990000Y-56610000D01*
X116355000Y-57245000D02*
X116355000Y-60975000D01*
X117625000Y-60975000D02*
X117625000Y-57245000D01*
X113990000Y-56610000D02*
X115720000Y-56610000D01*
X113990000Y-86610000D02*
X115720000Y-86610000D01*
X116355000Y-84245000D02*
X116355000Y-85975000D01*
X128260000Y-61610000D02*
G75*
G02X127625000Y-60975000I0J635000D01*
G01*
X128895000Y-60975000D02*
G75*
G02X128260000Y-61610000I-635000J0D01*
G01*
X126990000Y-56610000D02*
G75*
G02X127625000Y-57245000I0J-635000D01*
G01*
X128895000Y-57245000D02*
G75*
G02X129530000Y-56610000I635000J0D01*
G01*
X131260000Y-56610000D02*
G75*
G02X131895000Y-57245000I0J-635000D01*
G01*
X126848636Y-92820788D02*
G75*
G02X125625000Y-89941239I2776364J2879549D01*
G01*
X118355000Y-89941238D02*
G75*
G02X117131364Y-92820788I-4000000J-1D01*
G01*
X112795000Y-75245000D02*
X112855000Y-75245000D01*
X112795000Y-77245000D02*
X112855000Y-77245000D01*
X131895000Y-82975000D02*
G75*
G02X131260000Y-83610000I-635000J0D01*
G01*
X129530000Y-83610000D02*
G75*
G02X128895000Y-82975000I0J635000D01*
G01*
X128260000Y-78610000D02*
G75*
G02X128895000Y-79245000I0J-635000D01*
G01*
X112295000Y-77745000D02*
X112295000Y-82975000D01*
X127625000Y-79245000D02*
G75*
G02X128260000Y-78610000I635000J0D01*
G01*
X113355000Y-77745000D02*
X113355000Y-85975000D01*
X127625000Y-82975000D02*
G75*
G02X126990000Y-83610000I-635000J0D01*
G01*
X113355000Y-74745000D02*
G75*
G02X112855000Y-75245000I-500000J0D01*
G01*
X116355000Y-84245000D02*
G75*
G02X116990000Y-83610000I635000J0D01*
G01*
X112795000Y-75245000D02*
G75*
G02X112295000Y-74745000I0J500000D01*
G01*
X116355000Y-85975000D02*
G75*
G02X115720000Y-86610000I-635000J0D01*
G01*
X112295000Y-77745000D02*
G75*
G02X112795000Y-77245000I500000J0D01*
G01*
X113990000Y-86610000D02*
G75*
G02X113355000Y-85975000I0J635000D01*
G01*
X112855000Y-77245000D02*
G75*
G02X113355000Y-77745000I0J-500000D01*
G01*
X113355000Y-57245000D02*
G75*
G02X113990000Y-56610000I635000J0D01*
G01*
X115720000Y-56610000D02*
G75*
G02X116355000Y-57245000I0J-635000D01*
G01*
X127625000Y-57245000D02*
X127625000Y-60975000D01*
X116990000Y-61610000D02*
G75*
G02X116355000Y-60975000I0J635000D01*
G01*
X117625000Y-60975000D02*
G75*
G02X116990000Y-61610000I-635000J0D01*
G01*
X128895000Y-60975000D02*
X128895000Y-57245000D01*
X117625000Y-57245000D02*
G75*
G02X118260000Y-56610000I635000J0D01*
G01*
X129530000Y-56610000D02*
X131260000Y-56610000D01*
X127625000Y-79245000D02*
X127625000Y-82975000D01*
X148495000Y-82975000D02*
X148495000Y-79245000D01*
X149130000Y-83610000D02*
X150860000Y-83610000D01*
X137860000Y-56610000D02*
X146590000Y-56610000D01*
X135955000Y-57245000D02*
X135955000Y-60975000D01*
X137225000Y-60975000D02*
X137225000Y-57245000D01*
X133590000Y-56610000D02*
X135320000Y-56610000D01*
X133590000Y-86610000D02*
X135320000Y-86610000D01*
X135955000Y-84245000D02*
X135955000Y-85975000D01*
X147860000Y-61610000D02*
G75*
G02X147225000Y-60975000I0J635000D01*
G01*
X148495000Y-60975000D02*
G75*
G02X147860000Y-61610000I-635000J0D01*
G01*
X146590000Y-56610000D02*
G75*
G02X147225000Y-57245000I0J-635000D01*
G01*
X148495000Y-57245000D02*
G75*
G02X149130000Y-56610000I635000J0D01*
G01*
X150860000Y-56610000D02*
G75*
G02X151495000Y-57245000I0J-635000D01*
G01*
X146448636Y-92820788D02*
G75*
G02X145225000Y-89941239I2776364J2879549D01*
G01*
X137955000Y-89941238D02*
G75*
G02X136731364Y-92820788I-4000000J-1D01*
G01*
X132395000Y-75245000D02*
X132455000Y-75245000D01*
X132395000Y-77245000D02*
X132455000Y-77245000D01*
X151495000Y-82975000D02*
G75*
G02X150860000Y-83610000I-635000J0D01*
G01*
X149130000Y-83610000D02*
G75*
G02X148495000Y-82975000I0J635000D01*
G01*
X147860000Y-78610000D02*
G75*
G02X148495000Y-79245000I0J-635000D01*
G01*
X131895000Y-77745000D02*
X131895000Y-82975000D01*
X147225000Y-79245000D02*
G75*
G02X147860000Y-78610000I635000J0D01*
G01*
X132955000Y-77745000D02*
X132955000Y-85975000D01*
X147225000Y-82975000D02*
G75*
G02X146590000Y-83610000I-635000J0D01*
G01*
X132955000Y-74745000D02*
G75*
G02X132455000Y-75245000I-500000J0D01*
G01*
X135955000Y-84245000D02*
G75*
G02X136590000Y-83610000I635000J0D01*
G01*
X132395000Y-75245000D02*
G75*
G02X131895000Y-74745000I0J500000D01*
G01*
X135955000Y-85975000D02*
G75*
G02X135320000Y-86610000I-635000J0D01*
G01*
X131895000Y-77745000D02*
G75*
G02X132395000Y-77245000I500000J0D01*
G01*
X133590000Y-86610000D02*
G75*
G02X132955000Y-85975000I0J635000D01*
G01*
X132455000Y-77245000D02*
G75*
G02X132955000Y-77745000I0J-500000D01*
G01*
X132955000Y-57245000D02*
G75*
G02X133590000Y-56610000I635000J0D01*
G01*
X135320000Y-56610000D02*
G75*
G02X135955000Y-57245000I0J-635000D01*
G01*
X147225000Y-57245000D02*
X147225000Y-60975000D01*
X136590000Y-61610000D02*
G75*
G02X135955000Y-60975000I0J635000D01*
G01*
X137225000Y-60975000D02*
G75*
G02X136590000Y-61610000I-635000J0D01*
G01*
X148495000Y-60975000D02*
X148495000Y-57245000D01*
X137225000Y-57245000D02*
G75*
G02X137860000Y-56610000I635000J0D01*
G01*
X149130000Y-56610000D02*
X150860000Y-56610000D01*
X147225000Y-79245000D02*
X147225000Y-82975000D01*
X151495000Y-82975000D02*
X151495000Y-57245000D01*
X112324900Y-118130563D02*
G75*
G02X114157020Y-126008325I-21337829J-9114437D01*
G01*
X116156521Y-128508242D02*
G75*
G02X111723813Y-141140657I-23816411J1263242D01*
G01*
X92223478Y-125981758D02*
G75*
G02X95970202Y-114359936I23816412J-1263242D01*
G01*
X95156056Y-128495000D02*
X95156056Y-136110000D01*
X130690000Y-111983080D02*
X130690000Y-111495000D01*
X68048637Y-92820789D02*
G75*
G02X70082622Y-96638621I-4858637J-5039211D01*
G01*
X115097379Y-96638620D02*
G75*
G02X117131364Y-92820788I6892621J-1221380D01*
G01*
X126848637Y-92820789D02*
G75*
G02X128882622Y-96638621I-4858637J-5039211D01*
G01*
X146448636Y-92820788D02*
G75*
G02X134692308Y-99052414I-4858636J-5039212D01*
G01*
X134697379Y-96638620D02*
G75*
G02X136731364Y-92820788I6892621J-1221380D01*
G01*
X128887692Y-99052414D02*
G75*
G02X115092308Y-99052414I-6897692J1192414D01*
G01*
X95497379Y-96638620D02*
G75*
G02X97531364Y-92820788I6892621J-1221380D01*
G01*
X107248637Y-92820789D02*
G75*
G02X109282622Y-96638621I-4858637J-5039211D01*
G01*
X100990000Y-104718571D02*
G75*
G02X95492308Y-99052414I1400000J6858571D01*
G01*
X87648637Y-92820789D02*
G75*
G02X89682622Y-96638621I-4858637J-5039211D01*
G01*
X89687692Y-99052414D02*
G75*
G02X75892308Y-99052414I-6897692J1192414D01*
G01*
X130432055Y-112232953D02*
G75*
G02X114203255Y-105136309I757945J23837843D01*
G01*
X130689999Y-111983080D02*
G75*
G02X130432055Y-112232953I-249999J0D01*
G01*
X77690000Y-111983080D02*
X77690000Y-110495000D01*
X77690000Y-111245000D02*
X77690000Y-111245000D01*
X71293553Y-110245000D02*
X75440000Y-110245000D01*
X79190000Y-109995000D02*
X79190000Y-105495000D01*
X78940000Y-105245000D02*
X78293553Y-105245000D01*
X79190000Y-109995000D02*
G75*
G02X78940000Y-110245000I-250000J0D01*
G01*
X78940000Y-105245000D02*
G75*
G02X79190000Y-105495000I0J-250000D01*
G01*
X77940000Y-110245000D02*
X78940000Y-110245000D01*
X75421462Y-112179339D02*
G75*
G02X60203255Y-105136309I1768538J23784229D01*
G01*
X77690000Y-110495000D02*
G75*
G02X77940000Y-110245000I250000J0D01*
G01*
X77947945Y-112232954D02*
G75*
G02X77690000Y-111983080I-7945J249874D01*
G01*
X96180577Y-114245000D02*
X96940000Y-114245000D01*
X111152136Y-113245000D02*
X110293553Y-113245000D01*
X98028996Y-142245000D02*
X98982893Y-142245000D01*
X111520629Y-141245000D02*
X111440000Y-141245000D01*
X97028583Y-112844046D02*
G75*
G02X99298691Y-110258255I19011307J-14400954D01*
G01*
X112409798Y-114359936D02*
G75*
G02X116156522Y-125981758I-20069688J-12885064D01*
G01*
X96656187Y-141140658D02*
G75*
G02X92223478Y-128508242I19383703J13895658D01*
G01*
X110541799Y-142656547D02*
G75*
G02X109081309Y-144231745I-18201689J15411547D01*
G01*
X111723813Y-141140657D02*
G75*
G02X111520629Y-141245000I-203184J145657D01*
G01*
X110351003Y-142245000D02*
G75*
G02X110541799Y-142656547I1J-250000D01*
G01*
X97838202Y-142656547D02*
G75*
G02X98028996Y-142245000I190794J161547D01*
G01*
X96859371Y-141244999D02*
G75*
G02X96656187Y-141140657I0J249999D01*
G01*
X95970202Y-114359936D02*
G75*
G02X96180577Y-114245000I210375J-135064D01*
G01*
X112199423Y-114245000D02*
G75*
G02X112409798Y-114359936I0J-250000D01*
G01*
X111351417Y-112844046D02*
G75*
G02X111152136Y-113245000I-199281J-150954D01*
G01*
X97227864Y-113245000D02*
G75*
G02X97028583Y-112844046I0J250000D01*
G01*
X66190000Y-155245000D02*
X88190000Y-155245000D01*
X89190000Y-154245000D02*
X89190000Y-153495000D01*
X88190000Y-147245000D02*
X87690000Y-147245000D01*
X65190000Y-148245000D02*
X65190000Y-154245000D01*
X65190000Y-148245000D02*
G75*
G02X66190000Y-147245000I1000000J0D01*
G01*
X88190000Y-147245000D02*
G75*
G02X89190000Y-148245000I0J-1000000D01*
G01*
X89190000Y-154245000D02*
G75*
G02X88190000Y-155245000I-1000000J0D01*
G01*
X66190000Y-155245000D02*
G75*
G02X65190000Y-154245000I0J1000000D01*
G01*
X87190000Y-146745000D02*
X87190000Y-145239019D01*
X67190000Y-146745000D02*
X67190000Y-145239019D01*
X66690000Y-147245000D02*
X66190000Y-147245000D01*
X84690000Y-147245000D02*
X69690000Y-147245000D01*
X69529400Y-143508778D02*
G75*
G02X84850600Y-143508778I7660600J-22586112D01*
G01*
X60203255Y-149353691D02*
G75*
G02X66465160Y-144792424I16986745J-16741199D01*
G01*
X66465160Y-144792424D02*
G75*
G02X67190000Y-145239019I224840J-446595D01*
G01*
X67190000Y-146745000D02*
G75*
G02X66690000Y-147245000I-500000J0D01*
G01*
X87690000Y-147245000D02*
G75*
G02X87190000Y-146745000I0J500000D01*
G01*
X87190000Y-145239020D02*
G75*
G02X87914840Y-144792424I500000J1D01*
G01*
X127349341Y-125745000D02*
G75*
G02X117848910Y-118866186I0J10000000D01*
G01*
X117848910Y-135623814D02*
G75*
G02X127349341Y-128745000I9500431J-3121186D01*
G01*
X129690000Y-131085659D02*
G75*
G02X122811186Y-140586090I-10000000J0D01*
G01*
X139568814Y-140586090D02*
G75*
G02X132690000Y-131085659I3121186J9500431D01*
G01*
X135030659Y-128745000D02*
G75*
G02X144531090Y-135623814I0J-10000000D01*
G01*
X144531090Y-118866186D02*
G75*
G02X135030659Y-125745000I-9500431J3121186D01*
G01*
X132690000Y-123404341D02*
G75*
G02X139568814Y-113903910I10000000J0D01*
G01*
X122811186Y-113903910D02*
G75*
G02X129690000Y-123404341I-3121186J-9500431D01*
G01*
X132690000Y-116245000D02*
G75*
G03X132690000Y-116245000I-1500000J0D01*
G01*
X143690000Y-127245000D02*
G75*
G03X143690000Y-127245000I-1500000J0D01*
G01*
X132690000Y-138245000D02*
G75*
G03X132690000Y-138245000I-1500000J0D01*
G01*
X121690000Y-127245000D02*
G75*
G03X121690000Y-127245000I-1500000J0D01*
G01*
X97190000Y-140995000D02*
X97190000Y-138495000D01*
X97440000Y-138245000D02*
X110940000Y-138245000D01*
X111190000Y-138495000D02*
X111190000Y-140995000D01*
X96940000Y-141245000D02*
X96859371Y-141245000D01*
X97190000Y-140995000D02*
G75*
G02X96940000Y-141245000I-250000J0D01*
G01*
X111440000Y-141245000D02*
G75*
G02X111190000Y-140995000I0J250000D01*
G01*
X110940000Y-138245000D02*
G75*
G02X111190000Y-138495000I0J-250000D01*
G01*
X97190000Y-138495000D02*
G75*
G02X97440000Y-138245000I250000J0D01*
G01*
X97190000Y-114495000D02*
X97190000Y-115995000D01*
X97440000Y-116245000D02*
X110940000Y-116245000D01*
X111190000Y-115995000D02*
X111190000Y-114495000D01*
X98263223Y-113171777D02*
X101116777Y-110318223D01*
X103440000Y-110245000D02*
X107086447Y-110245000D01*
X107263223Y-110318223D02*
X110116777Y-113171777D01*
X98086447Y-113245000D02*
X97227864Y-113245000D01*
X98263224Y-113171777D02*
G75*
G02X98086447Y-113245000I-176777J176777D01*
G01*
X107086446Y-110245000D02*
G75*
G02X107263223Y-110318223I1J-250000D01*
G01*
X110293554Y-113245000D02*
G75*
G02X110116777Y-113171777I-1J250000D01*
G01*
X111440000Y-114245000D02*
X112199423Y-114245000D01*
X96940000Y-114245000D02*
G75*
G02X97190000Y-114495000I0J-250000D01*
G01*
X111190000Y-114495000D02*
G75*
G02X111440000Y-114245000I250000J0D01*
G01*
X78116777Y-105171777D02*
X74763223Y-101818223D01*
X78293554Y-105245000D02*
G75*
G02X78116777Y-105171777I-1J250000D01*
G01*
X122190000Y-145995000D02*
X122190000Y-144383319D01*
X140190000Y-144383319D02*
X140190000Y-145765980D01*
X121940000Y-146245000D02*
X121190000Y-146245000D01*
X140606667Y-146258987D02*
G75*
G02X141440000Y-147245000I-166667J-986013D01*
G01*
X141440000Y-152245000D02*
G75*
G02X140440000Y-153245000I-1000000J0D01*
G01*
X121190000Y-153245000D02*
G75*
G02X120190000Y-152245000I0J1000000D01*
G01*
X120190000Y-147245000D02*
G75*
G02X121190000Y-146245000I1000000J0D01*
G01*
X114203254Y-149353692D02*
G75*
G02X121842012Y-144153323I16986746J-16741198D01*
G01*
X137690000Y-146245000D02*
X124690000Y-146245000D01*
X124550813Y-143187720D02*
G75*
G02X137829187Y-143187720I6639187J-22907170D01*
G01*
X140190000Y-144383319D02*
G75*
G02X140537988Y-144153323I250000J0D01*
G01*
X121842012Y-144153322D02*
G75*
G02X122190000Y-144383319I97988J-229997D01*
G01*
X122190000Y-145995000D02*
G75*
G02X121940000Y-146245000I-250000J0D01*
G01*
X90690000Y-155245000D02*
X118690000Y-155245000D01*
X99336447Y-142391447D02*
X101043553Y-144098553D01*
X101190000Y-144452107D02*
X101190000Y-147037893D01*
X101043553Y-147391447D02*
X97013223Y-151421777D01*
X109043553Y-142391447D02*
X107336447Y-144098553D01*
X107190000Y-144452107D02*
X107190000Y-147037893D01*
X107336447Y-147391447D02*
X110866777Y-150921777D01*
X109397107Y-142245000D02*
X110351004Y-142245000D01*
X98982894Y-142245000D02*
G75*
G02X99336447Y-142391447I-1J-500000D01*
G01*
X101043553Y-144098554D02*
G75*
G02X101190000Y-144452107I-353553J-353553D01*
G01*
X101190000Y-147037894D02*
G75*
G02X101043553Y-147391447I-500000J1D01*
G01*
X90190000Y-151995000D02*
G75*
G02X90690000Y-151495000I500000J0D01*
G01*
X90690000Y-155245000D02*
G75*
G02X90190000Y-154745000I0J500000D01*
G01*
X119190000Y-154745000D02*
G75*
G02X118690000Y-155245000I-500000J0D01*
G01*
X107336447Y-147391446D02*
G75*
G02X107190000Y-147037893I353553J353553D01*
G01*
X107190000Y-144452106D02*
G75*
G02X107336447Y-144098553I500000J-1D01*
G01*
X109043554Y-142391447D02*
G75*
G02X109397107Y-142245000I353553J-353553D01*
G01*
X89440000Y-153245000D02*
X89940000Y-153245000D01*
X89940000Y-152245000D02*
X89440000Y-152245000D01*
X89190000Y-151995000D02*
X89190000Y-148245000D01*
X90190000Y-153495000D02*
X90190000Y-154745000D01*
X89440000Y-152245000D02*
G75*
G02X89190000Y-151995000I0J250000D01*
G01*
X90190000Y-151995000D02*
G75*
G02X89940000Y-152245000I-250000J0D01*
G01*
X89940000Y-153245000D02*
G75*
G02X90190000Y-153495000I0J-250000D01*
G01*
X89190000Y-153495000D02*
G75*
G02X89440000Y-153245000I250000J0D01*
G01*
X119940000Y-151995000D02*
X119440000Y-151995000D01*
X111043553Y-150995000D02*
X119940000Y-150995000D01*
X120190000Y-150745000D02*
G75*
G02X119940000Y-150995000I-250000J0D01*
G01*
X119940000Y-151995000D02*
G75*
G02X120190000Y-152245000I0J-250000D01*
G01*
X119190000Y-152245000D02*
G75*
G02X119440000Y-151995000I250000J0D01*
G01*
X71116777Y-110171777D02*
X67263223Y-106318223D01*
X67190000Y-106141447D02*
X67190000Y-105348553D01*
X67263223Y-105171777D02*
X71116777Y-101318223D01*
X71190000Y-101141447D02*
X71190000Y-99095000D01*
X71293554Y-110245000D02*
G75*
G02X71116777Y-110171777I-1J250000D01*
G01*
X67263223Y-106318224D02*
G75*
G02X67190000Y-106141447I176777J176777D01*
G01*
X67190000Y-105348554D02*
G75*
G02X67263223Y-105171777I250000J1D01*
G01*
X71190000Y-101141446D02*
G75*
G02X71116777Y-101318223I-250000J-1D01*
G01*
X71190000Y-96595000D02*
X71190000Y-95495000D01*
X71440000Y-95245000D02*
X74440000Y-95245000D01*
X74690000Y-95495000D02*
X74690000Y-96595000D01*
X71190000Y-95495000D02*
G75*
G02X71440000Y-95245000I250000J0D01*
G01*
X74440000Y-95245000D02*
G75*
G02X74690000Y-95495000I0J-250000D01*
G01*
X74690000Y-99095000D02*
X74690000Y-101641447D01*
X74763223Y-101818224D02*
G75*
G02X74690000Y-101641447I176777J176777D01*
G01*
X90690000Y-96595000D02*
X90690000Y-93495000D01*
X90940000Y-93245000D02*
X93940000Y-93245000D01*
X94190000Y-93495000D02*
X94190000Y-96595000D01*
X90690000Y-99095000D02*
X90690000Y-102995000D01*
X90940000Y-103245000D02*
X93940000Y-103245000D01*
X94190000Y-102995000D02*
X94190000Y-99095000D01*
X90690000Y-93495000D02*
G75*
G02X90940000Y-93245000I250000J0D01*
G01*
X93940000Y-93245000D02*
G75*
G02X94190000Y-93495000I0J-250000D01*
G01*
X94190000Y-102995000D02*
G75*
G02X93940000Y-103245000I-250000J0D01*
G01*
X90940000Y-103245000D02*
G75*
G02X90690000Y-102995000I0J250000D01*
G01*
X110290000Y-96595000D02*
X110290000Y-93495000D01*
X110540000Y-93245000D02*
X113540000Y-93245000D01*
X113790000Y-93495000D02*
X113790000Y-96595000D01*
X110290000Y-99095000D02*
X110290000Y-102995000D01*
X110540000Y-103245000D02*
X113540000Y-103245000D01*
X113790000Y-102995000D02*
X113790000Y-99095000D01*
X110290000Y-93495000D02*
G75*
G02X110540000Y-93245000I250000J0D01*
G01*
X113540000Y-93245000D02*
G75*
G02X113790000Y-93495000I0J-250000D01*
G01*
X113790000Y-102995000D02*
G75*
G02X113540000Y-103245000I-250000J0D01*
G01*
X110540000Y-103245000D02*
G75*
G02X110290000Y-102995000I0J250000D01*
G01*
X133390000Y-110995000D02*
X133390000Y-99095000D01*
X129890000Y-93495000D02*
G75*
G02X130140000Y-93245000I250000J0D01*
G01*
X133140000Y-93245000D02*
G75*
G02X133390000Y-93495000I0J-250000D01*
G01*
X129890000Y-96595000D02*
X129890000Y-93495000D01*
X130140000Y-93245000D02*
X133140000Y-93245000D01*
X133390000Y-93495000D02*
X133390000Y-96595000D01*
X129890000Y-99095000D02*
X129890000Y-110995000D01*
X133140000Y-111245000D02*
X132940000Y-111245000D01*
X130440000Y-111245000D02*
X130140000Y-111245000D01*
X130440000Y-111245000D02*
G75*
G02X130690000Y-111495000I0J-250000D01*
G01*
X133390000Y-110995000D02*
G75*
G02X133140000Y-111245000I-250000J0D01*
G01*
X130140000Y-111245000D02*
G75*
G02X129890000Y-110995000I0J250000D01*
G01*
X119190000Y-154745000D02*
X119190000Y-152245000D01*
X120190000Y-150745000D02*
X120190000Y-147245000D01*
X141440000Y-147245000D02*
X141440000Y-152245000D01*
X140440000Y-153245000D02*
X121190000Y-153245000D01*
X75690000Y-110495000D02*
X75690000Y-111930027D01*
X75690000Y-111930027D02*
G75*
G02X75421462Y-112179339I-250000J0D01*
G01*
X75440000Y-110245000D02*
G75*
G02X75690000Y-110495000I0J-250000D01*
G01*
X132690000Y-111495000D02*
X132690000Y-111930027D01*
X132690000Y-111495000D02*
G75*
G02X132940000Y-111245000I250000J0D01*
G01*
X132958538Y-112179339D02*
G75*
G02X132690000Y-111930027I-18538J249312D01*
G01*
X70940000Y-96845000D02*
X70328787Y-96845000D01*
X70940000Y-98845000D02*
X70334038Y-98845000D01*
X70087692Y-99052414D02*
G75*
G02X70334038Y-98845000I246346J-42586D01*
G01*
X70940000Y-98845000D02*
G75*
G02X71190000Y-99095000I0J-250000D01*
G01*
X70328787Y-96845000D02*
G75*
G02X70082622Y-96638621I0J250000D01*
G01*
X71190000Y-96595000D02*
G75*
G02X70940000Y-96845000I-250000J0D01*
G01*
X74940000Y-96845000D02*
X75651213Y-96845000D01*
X75645962Y-98845000D02*
X74940000Y-98845000D01*
X74690000Y-99095000D02*
G75*
G02X74940000Y-98845000I250000J0D01*
G01*
X75645962Y-98845000D02*
G75*
G02X75892308Y-99052414I0J-250000D01*
G01*
X74940000Y-96845000D02*
G75*
G02X74690000Y-96595000I0J250000D01*
G01*
X75897378Y-96638621D02*
G75*
G02X75651213Y-96845000I-246165J43621D01*
G01*
X89928787Y-96845000D02*
X90440000Y-96845000D01*
X90440000Y-98845000D02*
X89934038Y-98845000D01*
X89687692Y-99052414D02*
G75*
G02X89934038Y-98845000I246346J-42586D01*
G01*
X90440000Y-98845000D02*
G75*
G02X90690000Y-99095000I0J-250000D01*
G01*
X90690000Y-96595000D02*
G75*
G02X90440000Y-96845000I-250000J0D01*
G01*
X89928787Y-96845000D02*
G75*
G02X89682622Y-96638621I0J250000D01*
G01*
X94440000Y-96845000D02*
X95251213Y-96845000D01*
X94440000Y-98845000D02*
X95245962Y-98845000D01*
X94190000Y-99095000D02*
G75*
G02X94440000Y-98845000I250000J0D01*
G01*
X95245962Y-98845000D02*
G75*
G02X95492308Y-99052414I0J-250000D01*
G01*
X94440000Y-96845000D02*
G75*
G02X94190000Y-96595000I0J250000D01*
G01*
X95497378Y-96638621D02*
G75*
G02X95251213Y-96845000I-246165J43621D01*
G01*
X109528787Y-96845000D02*
X110040000Y-96845000D01*
X110040000Y-98845000D02*
X109534038Y-98845000D01*
X114040000Y-98845000D02*
X114845962Y-98845000D01*
X114851213Y-96845000D02*
X114040000Y-96845000D01*
X114040000Y-96845000D02*
G75*
G02X113790000Y-96595000I0J250000D01*
G01*
X115097378Y-96638621D02*
G75*
G02X114851213Y-96845000I-246165J43621D01*
G01*
X114845962Y-98845000D02*
G75*
G02X115092308Y-99052414I0J-250000D01*
G01*
X113790000Y-99095000D02*
G75*
G02X114040000Y-98845000I250000J0D01*
G01*
X110040000Y-98845000D02*
G75*
G02X110290000Y-99095000I0J-250000D01*
G01*
X109287692Y-99052414D02*
G75*
G02X109534038Y-98845000I246346J-42586D01*
G01*
X109528787Y-96845000D02*
G75*
G02X109282622Y-96638621I0J250000D01*
G01*
X110290000Y-96595000D02*
G75*
G02X110040000Y-96845000I-250000J0D01*
G01*
X134451213Y-96845000D02*
X133640000Y-96845000D01*
X129640000Y-96845000D02*
X129128787Y-96845000D01*
X129134038Y-98845000D02*
X129640000Y-98845000D01*
X133640000Y-98845000D02*
X134445962Y-98845000D01*
X134445962Y-98845000D02*
G75*
G02X134692308Y-99052414I0J-250000D01*
G01*
X133390000Y-99095000D02*
G75*
G02X133640000Y-98845000I250000J0D01*
G01*
X129640000Y-98845000D02*
G75*
G02X129890000Y-99095000I0J-250000D01*
G01*
X128887692Y-99052414D02*
G75*
G02X129134038Y-98845000I246346J-42586D01*
G01*
X129128787Y-96845000D02*
G75*
G02X128882622Y-96638621I0J250000D01*
G01*
X129890000Y-96595000D02*
G75*
G02X129640000Y-96845000I-250000J0D01*
G01*
X133640000Y-96845000D02*
G75*
G02X133390000Y-96595000I0J250000D01*
G01*
X134697378Y-96638621D02*
G75*
G02X134451213Y-96845000I-246165J43621D01*
G01*
X69190000Y-143982284D02*
X69190000Y-146745000D01*
X85190000Y-143982284D02*
X85190000Y-146745000D01*
X69190000Y-143982284D02*
G75*
G02X69529400Y-143508778I500000J0D01*
G01*
X69690000Y-147245000D02*
G75*
G02X69190000Y-146745000I0J500000D01*
G01*
X84850600Y-143508778D02*
G75*
G02X85190000Y-143982284I-160600J-473506D01*
G01*
X85190000Y-146745000D02*
G75*
G02X84690000Y-147245000I-500000J0D01*
G01*
X124190000Y-143667956D02*
X124190000Y-145745000D01*
X138190000Y-143667956D02*
X138190000Y-145745000D01*
X138190000Y-145745000D02*
G75*
G02X137690000Y-146245000I-500000J0D01*
G01*
X137829187Y-143187720D02*
G75*
G02X138190000Y-143667956I-139187J-480236D01*
G01*
X140606667Y-146258987D02*
G75*
G02X140190000Y-145765980I83333J493007D01*
G01*
X124690000Y-146245000D02*
G75*
G02X124190000Y-145745000I0J500000D01*
G01*
X124190000Y-143667956D02*
G75*
G02X124550813Y-143187720I500000J0D01*
G01*
X94906056Y-128245000D02*
X92473127Y-128245000D01*
X92473127Y-126245000D02*
X94906056Y-126245000D01*
X114406665Y-126245000D02*
X115906873Y-126245000D01*
X114406665Y-128245000D02*
X115906873Y-128245000D01*
X114406665Y-126245000D02*
G75*
G02X114157020Y-126008325I0J250000D01*
G01*
X116156522Y-125981758D02*
G75*
G02X115906873Y-126245000I-249649J-13242D01*
G01*
X115906873Y-128245000D02*
G75*
G02X116156522Y-128508242I0J-250000D01*
G01*
X114157020Y-128481675D02*
G75*
G02X114406665Y-128245000I249645J-13325D01*
G01*
X92473127Y-126245000D02*
G75*
G02X92223478Y-125981758I0J250000D01*
G01*
X95156056Y-125995000D02*
G75*
G02X94906056Y-126245000I-250000J0D01*
G01*
X94906056Y-128245000D02*
G75*
G02X95156056Y-128495000I0J-250000D01*
G01*
X92223478Y-128508242D02*
G75*
G02X92473127Y-128245000I249649J13242D01*
G01*
X60090000Y-84432150D02*
X60090000Y-83860000D01*
X62090000Y-84466010D02*
X62090000Y-83860000D01*
X64290000Y-84466010D02*
X64290000Y-83860000D01*
X66290000Y-84432150D02*
X66290000Y-83860000D01*
X64040000Y-83610000D02*
G75*
G02X64290000Y-83860000I0J-250000D01*
G01*
X64290000Y-84466010D02*
G75*
G02X64158644Y-84686064I-250000J0D01*
G01*
X62221356Y-84686064D02*
G75*
G02X62090000Y-84466010I118644J220054D01*
G01*
X62090000Y-83860000D02*
G75*
G02X62340000Y-83610000I250000J0D01*
G01*
X59840000Y-83610000D02*
G75*
G02X60090000Y-83860000I0J-250000D01*
G01*
X60090000Y-84432150D02*
G75*
G02X59938870Y-84661769I-250000J0D01*
G01*
X66441130Y-84661769D02*
G75*
G02X66290000Y-84432150I98870J229619D01*
G01*
X66290000Y-83860000D02*
G75*
G02X66540000Y-83610000I250000J0D01*
G01*
X85890000Y-84432150D02*
X85890000Y-83860000D01*
X83640000Y-83610000D02*
G75*
G02X83890000Y-83860000I0J-250000D01*
G01*
X83890000Y-84466010D02*
G75*
G02X83758644Y-84686064I-250000J0D01*
G01*
X81821356Y-84686064D02*
G75*
G02X81690000Y-84466010I118644J220054D01*
G01*
X86140000Y-83610000D02*
X87790000Y-83610000D01*
X81690000Y-83860000D02*
G75*
G02X81940000Y-83610000I250000J0D01*
G01*
X77790000Y-83610000D02*
X79440000Y-83610000D01*
X79440000Y-83610000D02*
G75*
G02X79690000Y-83860000I0J-250000D01*
G01*
X79690000Y-84432150D02*
G75*
G02X79538870Y-84661769I-250000J0D01*
G01*
X86041130Y-84661769D02*
G75*
G02X85890000Y-84432150I98870J229619D01*
G01*
X81940000Y-83610000D02*
X83640000Y-83610000D01*
X85890000Y-83860000D02*
G75*
G02X86140000Y-83610000I250000J0D01*
G01*
X79155000Y-85245000D02*
G75*
G02X79538870Y-84661769I635000J0D01*
G01*
X82155000Y-85245000D02*
X82155000Y-88975000D01*
X82790000Y-89610000D02*
X82790000Y-89610000D01*
X83425000Y-88975000D02*
X83425000Y-85245000D01*
X86425000Y-85245000D02*
X86425000Y-89941239D01*
X79155000Y-85245000D02*
X79155000Y-89941239D01*
X83425000Y-88975000D02*
G75*
G02X82790000Y-89610000I-635000J0D01*
G01*
X82790000Y-89610000D02*
G75*
G02X82155000Y-88975000I0J635000D01*
G01*
X86041130Y-84661769D02*
G75*
G02X86425000Y-85245000I-251130J-583231D01*
G01*
X83425000Y-85245000D02*
G75*
G02X83758644Y-84686064I635000J0D01*
G01*
X81821356Y-84686064D02*
G75*
G02X82155000Y-85245000I-301356J-558936D01*
G01*
X79690000Y-84432150D02*
X79690000Y-83860000D01*
X81690000Y-84466010D02*
X81690000Y-83860000D01*
X83890000Y-84466010D02*
X83890000Y-83860000D01*
X105490000Y-84432150D02*
X105490000Y-83860000D01*
X103240000Y-83610000D02*
G75*
G02X103490000Y-83860000I0J-250000D01*
G01*
X103490000Y-84466010D02*
G75*
G02X103358644Y-84686064I-250000J0D01*
G01*
X101421356Y-84686064D02*
G75*
G02X101290000Y-84466010I118644J220054D01*
G01*
X105740000Y-83610000D02*
X107390000Y-83610000D01*
X101290000Y-83860000D02*
G75*
G02X101540000Y-83610000I250000J0D01*
G01*
X97390000Y-83610000D02*
X99040000Y-83610000D01*
X99040000Y-83610000D02*
G75*
G02X99290000Y-83860000I0J-250000D01*
G01*
X99290000Y-84432150D02*
G75*
G02X99138870Y-84661769I-250000J0D01*
G01*
X105641130Y-84661769D02*
G75*
G02X105490000Y-84432150I98870J229619D01*
G01*
X101540000Y-83610000D02*
X103240000Y-83610000D01*
X105490000Y-83860000D02*
G75*
G02X105740000Y-83610000I250000J0D01*
G01*
X98755000Y-85245000D02*
G75*
G02X99138870Y-84661769I635000J0D01*
G01*
X101755000Y-85245000D02*
X101755000Y-88975000D01*
X102390000Y-89610000D02*
X102390000Y-89610000D01*
X103025000Y-88975000D02*
X103025000Y-85245000D01*
X106025000Y-85245000D02*
X106025000Y-89941239D01*
X98755000Y-85245000D02*
X98755000Y-89941239D01*
X103025000Y-88975000D02*
G75*
G02X102390000Y-89610000I-635000J0D01*
G01*
X102390000Y-89610000D02*
G75*
G02X101755000Y-88975000I0J635000D01*
G01*
X105641130Y-84661769D02*
G75*
G02X106025000Y-85245000I-251130J-583231D01*
G01*
X103025000Y-85245000D02*
G75*
G02X103358644Y-84686064I635000J0D01*
G01*
X101421356Y-84686064D02*
G75*
G02X101755000Y-85245000I-301356J-558936D01*
G01*
X99290000Y-84432150D02*
X99290000Y-83860000D01*
X101290000Y-84466010D02*
X101290000Y-83860000D01*
X103490000Y-84466010D02*
X103490000Y-83860000D01*
X125090000Y-84432150D02*
X125090000Y-83860000D01*
X122840000Y-83610000D02*
G75*
G02X123090000Y-83860000I0J-250000D01*
G01*
X123090000Y-84466010D02*
G75*
G02X122958644Y-84686064I-250000J0D01*
G01*
X121021356Y-84686064D02*
G75*
G02X120890000Y-84466010I118644J220054D01*
G01*
X125340000Y-83610000D02*
X126990000Y-83610000D01*
X120890000Y-83860000D02*
G75*
G02X121140000Y-83610000I250000J0D01*
G01*
X116990000Y-83610000D02*
X118640000Y-83610000D01*
X118640000Y-83610000D02*
G75*
G02X118890000Y-83860000I0J-250000D01*
G01*
X118890000Y-84432150D02*
G75*
G02X118738870Y-84661769I-250000J0D01*
G01*
X125241130Y-84661769D02*
G75*
G02X125090000Y-84432150I98870J229619D01*
G01*
X121140000Y-83610000D02*
X122840000Y-83610000D01*
X125090000Y-83860000D02*
G75*
G02X125340000Y-83610000I250000J0D01*
G01*
X122625000Y-88975000D02*
X122625000Y-85245000D01*
X121990000Y-89610000D02*
X121990000Y-89610000D01*
X121355000Y-85245000D02*
X121355000Y-88975000D01*
X118355000Y-85245000D02*
G75*
G02X118738870Y-84661769I635000J0D01*
G01*
X142440000Y-83610000D02*
G75*
G02X142690000Y-83860000I0J-250000D01*
G01*
X122625000Y-88975000D02*
G75*
G02X121990000Y-89610000I-635000J0D01*
G01*
X118355000Y-85245000D02*
X118355000Y-89941239D01*
X140621356Y-84686064D02*
G75*
G02X140490000Y-84466010I118644J220054D01*
G01*
X140955000Y-85245000D02*
X140955000Y-88975000D01*
X121990000Y-89610000D02*
G75*
G02X121355000Y-88975000I0J635000D01*
G01*
X123090000Y-84466010D02*
X123090000Y-83860000D01*
X140490000Y-83860000D02*
G75*
G02X140740000Y-83610000I250000J0D01*
G01*
X136590000Y-83610000D02*
X138240000Y-83610000D01*
M02*
