G04 #@! TF.FileFunction,Legend,Top*
%FSLAX46Y46*%
G04 Gerber Fmt 4.6, Leading zero omitted, Abs format (unit mm)*
G04 Created by KiCad (PCBNEW 4.0.2+dfsg1-2~bpo8+1-stable) date Sat 05 Mar 2016 08:20:57 PM MST*
%MOMM*%
G01*
G04 APERTURE LIST*
%ADD10C,0.100000*%
%ADD11C,0.150000*%
%ADD12C,0.152400*%
%ADD13C,0.300000*%
%ADD14C,0.050800*%
%ADD15C,0.190500*%
%ADD16C,0.250000*%
%ADD17C,0.114300*%
%ADD18C,0.350000*%
G04 APERTURE END LIST*
D10*
D11*
X69340000Y-71310000D02*
G75*
G03X69340000Y-71310000I-250000J0D01*
G01*
X71090000Y-71560000D02*
X69090000Y-71560000D01*
X71090000Y-73560000D02*
X69090000Y-73560000D01*
X77010000Y-47685000D02*
X76335000Y-47685000D01*
X77010000Y-58035000D02*
X76335000Y-58035000D01*
X66660000Y-58035000D02*
X67335000Y-58035000D01*
X66660000Y-47685000D02*
X67335000Y-47685000D01*
X77010000Y-47685000D02*
X77010000Y-48360000D01*
X66660000Y-47685000D02*
X66660000Y-48360000D01*
X66660000Y-58035000D02*
X66660000Y-57360000D01*
X77010000Y-58035000D02*
X77010000Y-57360000D01*
X76335000Y-47685000D02*
X76335000Y-46410000D01*
X85170000Y-52860000D02*
X85170000Y-68100000D01*
X64850000Y-52860000D02*
X64850000Y-64290000D01*
X85170000Y-52860000D02*
X64850000Y-52860000D01*
X85170000Y-68100000D02*
X76280000Y-68100000D01*
X67390000Y-68100000D02*
X75010000Y-68100000D01*
X67390000Y-65560000D02*
X75010000Y-65560000D01*
X64570000Y-65280000D02*
X66120000Y-65280000D01*
X75010000Y-68100000D02*
X75010000Y-65560000D01*
X67390000Y-65560000D02*
X67390000Y-68100000D01*
X66120000Y-68380000D02*
X64570000Y-68380000D01*
X64570000Y-68380000D02*
X64570000Y-65280000D01*
X64215000Y-85245000D02*
X61675000Y-85245000D01*
X67035000Y-85525000D02*
X65485000Y-85525000D01*
X64215000Y-85245000D02*
X64215000Y-82705000D01*
X65485000Y-82425000D02*
X67035000Y-82425000D01*
X67035000Y-82425000D02*
X67035000Y-85525000D01*
X64215000Y-82705000D02*
X61675000Y-82705000D01*
X61675000Y-82705000D02*
X61675000Y-85245000D01*
D12*
X55857000Y-57008000D02*
X56873000Y-57008000D01*
X56873000Y-57008000D02*
X56873000Y-54722000D01*
X56873000Y-54722000D02*
X55857000Y-54722000D01*
X55857000Y-54722000D02*
X55857000Y-57008000D01*
D11*
X78841184Y-44412768D02*
X78841184Y-36912768D01*
X78841184Y-36912768D02*
X82841184Y-36912768D01*
X82841184Y-36912768D02*
X82841184Y-44412768D01*
X82841184Y-44412768D02*
X78841184Y-44412768D01*
X89075000Y-37045000D02*
X89075000Y-44545000D01*
X89075000Y-44545000D02*
X85075000Y-44545000D01*
X85075000Y-44545000D02*
X85075000Y-37045000D01*
X85075000Y-37045000D02*
X89075000Y-37045000D01*
X67390000Y-77625000D02*
X80090000Y-77625000D01*
X80090000Y-77625000D02*
X80090000Y-80165000D01*
X80090000Y-80165000D02*
X67390000Y-80165000D01*
X64570000Y-77345000D02*
X66120000Y-77345000D01*
X67390000Y-77625000D02*
X67390000Y-80165000D01*
X66120000Y-80445000D02*
X64570000Y-80445000D01*
X64570000Y-80445000D02*
X64570000Y-77345000D01*
D12*
X79582000Y-51463000D02*
X80598000Y-51463000D01*
X80598000Y-51463000D02*
X80598000Y-49177000D01*
X80598000Y-49177000D02*
X79582000Y-49177000D01*
X79582000Y-49177000D02*
X79582000Y-51463000D01*
X77423000Y-45748000D02*
X77423000Y-44732000D01*
X77423000Y-44732000D02*
X75137000Y-44732000D01*
X75137000Y-44732000D02*
X75137000Y-45748000D01*
X75137000Y-45748000D02*
X77423000Y-45748000D01*
X77677000Y-60353000D02*
X78693000Y-60353000D01*
X78693000Y-60353000D02*
X78693000Y-58067000D01*
X78693000Y-58067000D02*
X77677000Y-58067000D01*
X77677000Y-58067000D02*
X77677000Y-60353000D01*
X66628000Y-58067000D02*
X65612000Y-58067000D01*
X65612000Y-58067000D02*
X65612000Y-60353000D01*
X65612000Y-60353000D02*
X66628000Y-60353000D01*
X66628000Y-60353000D02*
X66628000Y-58067000D01*
X79582000Y-48923000D02*
X80598000Y-48923000D01*
X80598000Y-48923000D02*
X80598000Y-46637000D01*
X80598000Y-46637000D02*
X79582000Y-46637000D01*
X79582000Y-46637000D02*
X79582000Y-48923000D01*
X63072000Y-52098000D02*
X64088000Y-52098000D01*
X64088000Y-52098000D02*
X64088000Y-49812000D01*
X64088000Y-49812000D02*
X63072000Y-49812000D01*
X63072000Y-49812000D02*
X63072000Y-52098000D01*
D13*
X51465000Y-50865000D02*
X51465000Y-49865000D01*
D11*
X51565000Y-50965000D02*
X51365000Y-50965000D01*
X51365000Y-50965000D02*
X51365000Y-49765000D01*
X51365000Y-49765000D02*
X51565000Y-49765000D01*
X55165000Y-50965000D02*
X51565000Y-50965000D01*
X51565000Y-49765000D02*
X55165000Y-49765000D01*
X55165000Y-49765000D02*
X55165000Y-50965000D01*
X53111000Y-50746000D02*
X53111000Y-49984000D01*
X53619000Y-50746000D02*
X53619000Y-49984000D01*
X53619000Y-49984000D02*
X53111000Y-50365000D01*
X53111000Y-50365000D02*
X53619000Y-50746000D01*
D13*
X95400000Y-46000000D02*
X95400000Y-47000000D01*
D11*
X95300000Y-45900000D02*
X95500000Y-45900000D01*
X95500000Y-45900000D02*
X95500000Y-47100000D01*
X95500000Y-47100000D02*
X95300000Y-47100000D01*
X91700000Y-45900000D02*
X95300000Y-45900000D01*
X95300000Y-47100000D02*
X91700000Y-47100000D01*
X91700000Y-47100000D02*
X91700000Y-45900000D01*
X93754000Y-46119000D02*
X93754000Y-46881000D01*
X93246000Y-46119000D02*
X93246000Y-46881000D01*
X93246000Y-46881000D02*
X93754000Y-46500000D01*
X93754000Y-46500000D02*
X93246000Y-46119000D01*
D13*
X95400000Y-71485000D02*
X95400000Y-72485000D01*
D11*
X95300000Y-71385000D02*
X95500000Y-71385000D01*
X95500000Y-71385000D02*
X95500000Y-72585000D01*
X95500000Y-72585000D02*
X95300000Y-72585000D01*
X91700000Y-71385000D02*
X95300000Y-71385000D01*
X95300000Y-72585000D02*
X91700000Y-72585000D01*
X91700000Y-72585000D02*
X91700000Y-71385000D01*
X93754000Y-71604000D02*
X93754000Y-72366000D01*
X93246000Y-71604000D02*
X93246000Y-72366000D01*
X93246000Y-72366000D02*
X93754000Y-71985000D01*
X93754000Y-71985000D02*
X93246000Y-71604000D01*
D13*
X51465000Y-76485000D02*
X51465000Y-75485000D01*
D11*
X51565000Y-76585000D02*
X51365000Y-76585000D01*
X51365000Y-76585000D02*
X51365000Y-75385000D01*
X51365000Y-75385000D02*
X51565000Y-75385000D01*
X55165000Y-76585000D02*
X51565000Y-76585000D01*
X51565000Y-75385000D02*
X55165000Y-75385000D01*
X55165000Y-75385000D02*
X55165000Y-76585000D01*
X53111000Y-76366000D02*
X53111000Y-75604000D01*
X53619000Y-76366000D02*
X53619000Y-75604000D01*
X53619000Y-75604000D02*
X53111000Y-75985000D01*
X53111000Y-75985000D02*
X53619000Y-76366000D01*
D12*
X55857000Y-51008000D02*
X56873000Y-51008000D01*
X56873000Y-51008000D02*
X56873000Y-48722000D01*
X56873000Y-48722000D02*
X55857000Y-48722000D01*
X55857000Y-48722000D02*
X55857000Y-51008000D01*
X91008000Y-45857000D02*
X89992000Y-45857000D01*
X89992000Y-45857000D02*
X89992000Y-48143000D01*
X89992000Y-48143000D02*
X91008000Y-48143000D01*
X91008000Y-48143000D02*
X91008000Y-45857000D01*
X56873000Y-45722000D02*
X55857000Y-45722000D01*
X55857000Y-45722000D02*
X55857000Y-48008000D01*
X55857000Y-48008000D02*
X56873000Y-48008000D01*
X56873000Y-48008000D02*
X56873000Y-45722000D01*
X89992000Y-51143000D02*
X91008000Y-51143000D01*
X91008000Y-51143000D02*
X91008000Y-48857000D01*
X91008000Y-48857000D02*
X89992000Y-48857000D01*
X89992000Y-48857000D02*
X89992000Y-51143000D01*
X91008000Y-71342000D02*
X89992000Y-71342000D01*
X89992000Y-71342000D02*
X89992000Y-73628000D01*
X89992000Y-73628000D02*
X91008000Y-73628000D01*
X91008000Y-73628000D02*
X91008000Y-71342000D01*
X55857000Y-76628000D02*
X56873000Y-76628000D01*
X56873000Y-76628000D02*
X56873000Y-74342000D01*
X56873000Y-74342000D02*
X55857000Y-74342000D01*
X55857000Y-74342000D02*
X55857000Y-76628000D01*
X89992000Y-76628000D02*
X91008000Y-76628000D01*
X91008000Y-76628000D02*
X91008000Y-74342000D01*
X91008000Y-74342000D02*
X89992000Y-74342000D01*
X89992000Y-74342000D02*
X89992000Y-76628000D01*
X56873000Y-71342000D02*
X55857000Y-71342000D01*
X55857000Y-71342000D02*
X55857000Y-73628000D01*
X55857000Y-73628000D02*
X56873000Y-73628000D01*
X56873000Y-73628000D02*
X56873000Y-71342000D01*
X91008000Y-51857000D02*
X89992000Y-51857000D01*
X89992000Y-51857000D02*
X89992000Y-54143000D01*
X89992000Y-54143000D02*
X91008000Y-54143000D01*
X91008000Y-54143000D02*
X91008000Y-51857000D01*
X82503000Y-46637000D02*
X81487000Y-46637000D01*
X81487000Y-46637000D02*
X81487000Y-48923000D01*
X81487000Y-48923000D02*
X82503000Y-48923000D01*
X82503000Y-48923000D02*
X82503000Y-46637000D01*
X75772000Y-64798000D02*
X76788000Y-64798000D01*
X76788000Y-64798000D02*
X76788000Y-62512000D01*
X76788000Y-62512000D02*
X75772000Y-62512000D01*
X75772000Y-62512000D02*
X75772000Y-64798000D01*
X78058000Y-62512000D02*
X77042000Y-62512000D01*
X77042000Y-62512000D02*
X77042000Y-64798000D01*
X77042000Y-64798000D02*
X78058000Y-64798000D01*
X78058000Y-64798000D02*
X78058000Y-62512000D01*
X75518000Y-62512000D02*
X74502000Y-62512000D01*
X74502000Y-62512000D02*
X74502000Y-64798000D01*
X74502000Y-64798000D02*
X75518000Y-64798000D01*
X75518000Y-64798000D02*
X75518000Y-62512000D01*
X75772000Y-76863000D02*
X76788000Y-76863000D01*
X76788000Y-76863000D02*
X76788000Y-74577000D01*
X76788000Y-74577000D02*
X75772000Y-74577000D01*
X75772000Y-74577000D02*
X75772000Y-76863000D01*
X71327000Y-64798000D02*
X72343000Y-64798000D01*
X72343000Y-64798000D02*
X72343000Y-62512000D01*
X72343000Y-62512000D02*
X71327000Y-62512000D01*
X71327000Y-62512000D02*
X71327000Y-64798000D01*
X83392000Y-48923000D02*
X84408000Y-48923000D01*
X84408000Y-48923000D02*
X84408000Y-46637000D01*
X84408000Y-46637000D02*
X83392000Y-46637000D01*
X83392000Y-46637000D02*
X83392000Y-48923000D01*
X78058000Y-74577000D02*
X77042000Y-74577000D01*
X77042000Y-74577000D02*
X77042000Y-76863000D01*
X77042000Y-76863000D02*
X78058000Y-76863000D01*
X78058000Y-76863000D02*
X78058000Y-74577000D01*
X72597000Y-64798000D02*
X73613000Y-64798000D01*
X73613000Y-64798000D02*
X73613000Y-62512000D01*
X73613000Y-62512000D02*
X72597000Y-62512000D01*
X72597000Y-62512000D02*
X72597000Y-64798000D01*
D11*
X61445000Y-58035000D02*
X61445000Y-54035000D01*
X61445000Y-54035000D02*
X64445000Y-54035000D01*
X64445000Y-54035000D02*
X64445000Y-58035000D01*
X64445000Y-58035000D02*
X61445000Y-58035000D01*
D12*
X72343000Y-45748000D02*
X72343000Y-44732000D01*
X72343000Y-44732000D02*
X70057000Y-44732000D01*
X70057000Y-44732000D02*
X70057000Y-45748000D01*
X70057000Y-45748000D02*
X72343000Y-45748000D01*
X64088000Y-59718000D02*
X64088000Y-58702000D01*
X64088000Y-58702000D02*
X61802000Y-58702000D01*
X61802000Y-58702000D02*
X61802000Y-59718000D01*
X61802000Y-59718000D02*
X64088000Y-59718000D01*
X61167000Y-52733000D02*
X62183000Y-52733000D01*
X62183000Y-52733000D02*
X62183000Y-50447000D01*
X62183000Y-50447000D02*
X61167000Y-50447000D01*
X61167000Y-50447000D02*
X61167000Y-52733000D01*
X84027000Y-76863000D02*
X85043000Y-76863000D01*
X85043000Y-76863000D02*
X85043000Y-74577000D01*
X85043000Y-74577000D02*
X84027000Y-74577000D01*
X84027000Y-74577000D02*
X84027000Y-76863000D01*
D11*
X85865000Y-84340000D02*
X85065000Y-85140000D01*
X85265000Y-85140000D02*
X85865000Y-84540000D01*
X80665000Y-85140000D02*
X80665000Y-81540000D01*
X80665000Y-81540000D02*
X85865000Y-81540000D01*
X85865000Y-81540000D02*
X85865000Y-85140000D01*
X85865000Y-85140000D02*
X80665000Y-85140000D01*
D12*
X82757000Y-76863000D02*
X83773000Y-76863000D01*
X83773000Y-76863000D02*
X83773000Y-74577000D01*
X83773000Y-74577000D02*
X82757000Y-74577000D01*
X82757000Y-74577000D02*
X82757000Y-76863000D01*
X81487000Y-76863000D02*
X82503000Y-76863000D01*
X82503000Y-76863000D02*
X82503000Y-74577000D01*
X82503000Y-74577000D02*
X81487000Y-74577000D01*
X81487000Y-74577000D02*
X81487000Y-76863000D01*
D11*
X52714760Y-52065840D02*
X52714760Y-52114100D01*
X53415800Y-54864820D02*
X52714760Y-54864820D01*
X52714760Y-54864820D02*
X52714760Y-54615900D01*
X52714760Y-52065840D02*
X52714760Y-51865180D01*
X52714760Y-51865180D02*
X53415800Y-51865180D01*
X94150240Y-56799160D02*
X94150240Y-56750900D01*
X93449200Y-54000180D02*
X94150240Y-54000180D01*
X94150240Y-54000180D02*
X94150240Y-54249100D01*
X94150240Y-56799160D02*
X94150240Y-56999820D01*
X94150240Y-56999820D02*
X93449200Y-56999820D01*
D13*
X51465000Y-56865000D02*
X51465000Y-55865000D01*
D11*
X51565000Y-56965000D02*
X51365000Y-56965000D01*
X51365000Y-56965000D02*
X51365000Y-55765000D01*
X51365000Y-55765000D02*
X51565000Y-55765000D01*
X55165000Y-56965000D02*
X51565000Y-56965000D01*
X51565000Y-55765000D02*
X55165000Y-55765000D01*
X55165000Y-55765000D02*
X55165000Y-56965000D01*
X53111000Y-56746000D02*
X53111000Y-55984000D01*
X53619000Y-56746000D02*
X53619000Y-55984000D01*
X53619000Y-55984000D02*
X53111000Y-56365000D01*
X53111000Y-56365000D02*
X53619000Y-56746000D01*
D13*
X95400000Y-52000000D02*
X95400000Y-53000000D01*
D11*
X95300000Y-51900000D02*
X95500000Y-51900000D01*
X95500000Y-51900000D02*
X95500000Y-53100000D01*
X95500000Y-53100000D02*
X95300000Y-53100000D01*
X91700000Y-51900000D02*
X95300000Y-51900000D01*
X95300000Y-53100000D02*
X91700000Y-53100000D01*
X91700000Y-53100000D02*
X91700000Y-51900000D01*
X93754000Y-52119000D02*
X93754000Y-52881000D01*
X93246000Y-52119000D02*
X93246000Y-52881000D01*
X93246000Y-52881000D02*
X93754000Y-52500000D01*
X93754000Y-52500000D02*
X93246000Y-52119000D01*
X52714760Y-46065840D02*
X52714760Y-46114100D01*
X53415800Y-48864820D02*
X52714760Y-48864820D01*
X52714760Y-48864820D02*
X52714760Y-48615900D01*
X52714760Y-46065840D02*
X52714760Y-45865180D01*
X52714760Y-45865180D02*
X53415800Y-45865180D01*
X94150240Y-50799159D02*
X94150240Y-50750899D01*
X93449200Y-48000179D02*
X94150240Y-48000179D01*
X94150240Y-48000179D02*
X94150240Y-48249099D01*
X94150240Y-50799159D02*
X94150240Y-50999819D01*
X94150240Y-50999819D02*
X93449200Y-50999819D01*
X94150240Y-76284160D02*
X94150240Y-76235900D01*
X93449200Y-73485180D02*
X94150240Y-73485180D01*
X94150240Y-73485180D02*
X94150240Y-73734100D01*
X94150240Y-76284160D02*
X94150240Y-76484820D01*
X94150240Y-76484820D02*
X93449200Y-76484820D01*
X52714760Y-71685840D02*
X52714760Y-71734100D01*
X53415800Y-74484820D02*
X52714760Y-74484820D01*
X52714760Y-74484820D02*
X52714760Y-74235900D01*
X52714760Y-71685840D02*
X52714760Y-71485180D01*
X52714760Y-71485180D02*
X53415800Y-71485180D01*
D12*
X56873000Y-51722000D02*
X55857000Y-51722000D01*
X55857000Y-51722000D02*
X55857000Y-54008000D01*
X55857000Y-54008000D02*
X56873000Y-54008000D01*
X56873000Y-54008000D02*
X56873000Y-51722000D01*
X89992000Y-57143000D02*
X91008000Y-57143000D01*
X91008000Y-57143000D02*
X91008000Y-54857000D01*
X91008000Y-54857000D02*
X89992000Y-54857000D01*
X89992000Y-54857000D02*
X89992000Y-57143000D01*
D13*
X51465000Y-70485000D02*
X51465000Y-69485000D01*
D11*
X51565000Y-70585000D02*
X51365000Y-70585000D01*
X51365000Y-70585000D02*
X51365000Y-69385000D01*
X51365000Y-69385000D02*
X51565000Y-69385000D01*
X55165000Y-70585000D02*
X51565000Y-70585000D01*
X51565000Y-69385000D02*
X55165000Y-69385000D01*
X55165000Y-69385000D02*
X55165000Y-70585000D01*
X53111000Y-70366000D02*
X53111000Y-69604000D01*
X53619000Y-70366000D02*
X53619000Y-69604000D01*
X53619000Y-69604000D02*
X53111000Y-69985000D01*
X53111000Y-69985000D02*
X53619000Y-70366000D01*
D13*
X95400000Y-65485000D02*
X95400000Y-66485000D01*
D11*
X95300000Y-65385000D02*
X95500000Y-65385000D01*
X95500000Y-65385000D02*
X95500000Y-66585000D01*
X95500000Y-66585000D02*
X95300000Y-66585000D01*
X91700000Y-65385000D02*
X95300000Y-65385000D01*
X95300000Y-66585000D02*
X91700000Y-66585000D01*
X91700000Y-66585000D02*
X91700000Y-65385000D01*
X93754000Y-65604000D02*
X93754000Y-66366000D01*
X93246000Y-65604000D02*
X93246000Y-66366000D01*
X93246000Y-66366000D02*
X93754000Y-65985000D01*
X93754000Y-65985000D02*
X93246000Y-65604000D01*
X52714760Y-65685840D02*
X52714760Y-65734100D01*
X53415800Y-68484820D02*
X52714760Y-68484820D01*
X52714760Y-68484820D02*
X52714760Y-68235900D01*
X52714760Y-65685840D02*
X52714760Y-65485180D01*
X52714760Y-65485180D02*
X53415800Y-65485180D01*
X94150240Y-70284160D02*
X94150240Y-70235900D01*
X93449200Y-67485180D02*
X94150240Y-67485180D01*
X94150240Y-67485180D02*
X94150240Y-67734100D01*
X94150240Y-70284160D02*
X94150240Y-70484820D01*
X94150240Y-70484820D02*
X93449200Y-70484820D01*
D12*
X55857000Y-70628000D02*
X56873000Y-70628000D01*
X56873000Y-70628000D02*
X56873000Y-68342000D01*
X56873000Y-68342000D02*
X55857000Y-68342000D01*
X55857000Y-68342000D02*
X55857000Y-70628000D01*
X91008000Y-65342000D02*
X89992000Y-65342000D01*
X89992000Y-65342000D02*
X89992000Y-67628000D01*
X89992000Y-67628000D02*
X91008000Y-67628000D01*
X91008000Y-67628000D02*
X91008000Y-65342000D01*
X56873000Y-65342000D02*
X55857000Y-65342000D01*
X55857000Y-65342000D02*
X55857000Y-67628000D01*
X55857000Y-67628000D02*
X56873000Y-67628000D01*
X56873000Y-67628000D02*
X56873000Y-65342000D01*
X89992000Y-70628000D02*
X91008000Y-70628000D01*
X91008000Y-70628000D02*
X91008000Y-68342000D01*
X91008000Y-68342000D02*
X89992000Y-68342000D01*
X89992000Y-68342000D02*
X89992000Y-70628000D01*
D11*
X60405000Y-54130000D02*
X60405000Y-49050000D01*
X60405000Y-49050000D02*
X57865000Y-49050000D01*
X57865000Y-49050000D02*
X57865000Y-54130000D01*
X57585000Y-56950000D02*
X57585000Y-55400000D01*
X57865000Y-54130000D02*
X60405000Y-54130000D01*
X60685000Y-55400000D02*
X60685000Y-56950000D01*
X60685000Y-56950000D02*
X57585000Y-56950000D01*
X88980000Y-54130000D02*
X88980000Y-49050000D01*
X88980000Y-49050000D02*
X86440000Y-49050000D01*
X86440000Y-49050000D02*
X86440000Y-54130000D01*
X86160000Y-56950000D02*
X86160000Y-55400000D01*
X86440000Y-54130000D02*
X88980000Y-54130000D01*
X89260000Y-55400000D02*
X89260000Y-56950000D01*
X89260000Y-56950000D02*
X86160000Y-56950000D01*
X88980000Y-70640000D02*
X88980000Y-65560000D01*
X88980000Y-65560000D02*
X86440000Y-65560000D01*
X86440000Y-65560000D02*
X86440000Y-70640000D01*
X86160000Y-73460000D02*
X86160000Y-71910000D01*
X86440000Y-70640000D02*
X88980000Y-70640000D01*
X89260000Y-71910000D02*
X89260000Y-73460000D01*
X89260000Y-73460000D02*
X86160000Y-73460000D01*
X60405000Y-70640000D02*
X60405000Y-65560000D01*
X60405000Y-65560000D02*
X57865000Y-65560000D01*
X57865000Y-65560000D02*
X57865000Y-70640000D01*
X57585000Y-73460000D02*
X57585000Y-71910000D01*
X57865000Y-70640000D02*
X60405000Y-70640000D01*
X60685000Y-71910000D02*
X60685000Y-73460000D01*
X60685000Y-73460000D02*
X57585000Y-73460000D01*
X55325000Y-60480000D02*
X60405000Y-60480000D01*
X60405000Y-60480000D02*
X60405000Y-57940000D01*
X60405000Y-57940000D02*
X55325000Y-57940000D01*
X52505000Y-57660000D02*
X54055000Y-57660000D01*
X55325000Y-57940000D02*
X55325000Y-60480000D01*
X54055000Y-60760000D02*
X52505000Y-60760000D01*
X52505000Y-60760000D02*
X52505000Y-57660000D01*
X91520000Y-57940000D02*
X86440000Y-57940000D01*
X86440000Y-57940000D02*
X86440000Y-60480000D01*
X86440000Y-60480000D02*
X91520000Y-60480000D01*
X94340000Y-60760000D02*
X92790000Y-60760000D01*
X91520000Y-60480000D02*
X91520000Y-57940000D01*
X92790000Y-57660000D02*
X94340000Y-57660000D01*
X94340000Y-57660000D02*
X94340000Y-60760000D01*
X55325000Y-64290000D02*
X60405000Y-64290000D01*
X60405000Y-64290000D02*
X60405000Y-61750000D01*
X60405000Y-61750000D02*
X55325000Y-61750000D01*
X52505000Y-61470000D02*
X54055000Y-61470000D01*
X55325000Y-61750000D02*
X55325000Y-64290000D01*
X54055000Y-64570000D02*
X52505000Y-64570000D01*
X52505000Y-64570000D02*
X52505000Y-61470000D01*
X91520000Y-61750000D02*
X86440000Y-61750000D01*
X86440000Y-61750000D02*
X86440000Y-64290000D01*
X86440000Y-64290000D02*
X91520000Y-64290000D01*
X94340000Y-64570000D02*
X92790000Y-64570000D01*
X91520000Y-64290000D02*
X91520000Y-61750000D01*
X92790000Y-61470000D02*
X94340000Y-61470000D01*
X94340000Y-61470000D02*
X94340000Y-64570000D01*
D14*
X56421000Y-40730000D02*
G75*
G03X56421000Y-40730000I-2921000J0D01*
G01*
X96421000Y-40730000D02*
G75*
G03X96421000Y-40730000I-2921000J0D01*
G01*
X96421000Y-80730000D02*
G75*
G03X96421000Y-80730000I-2921000J0D01*
G01*
X56421000Y-80730000D02*
G75*
G03X56421000Y-80730000I-2921000J0D01*
G01*
D12*
X67263000Y-42192000D02*
X66247000Y-42192000D01*
X66247000Y-42192000D02*
X66247000Y-44478000D01*
X66247000Y-44478000D02*
X67263000Y-44478000D01*
X67263000Y-44478000D02*
X67263000Y-42192000D01*
X65993000Y-42192000D02*
X64977000Y-42192000D01*
X64977000Y-42192000D02*
X64977000Y-44478000D01*
X64977000Y-44478000D02*
X65993000Y-44478000D01*
X65993000Y-44478000D02*
X65993000Y-42192000D01*
D11*
X69850900Y-34412540D02*
X61150900Y-34412540D01*
X69850900Y-40817540D02*
X61150900Y-40817540D01*
X61150900Y-40817540D02*
X61150900Y-34412540D01*
X61150900Y-35642540D02*
X69850900Y-35642540D01*
X69850900Y-34412540D02*
X69850900Y-40817540D01*
D12*
X67042000Y-73703000D02*
X68058000Y-73703000D01*
X68058000Y-73703000D02*
X68058000Y-71417000D01*
X68058000Y-71417000D02*
X67042000Y-71417000D01*
X67042000Y-71417000D02*
X67042000Y-73703000D01*
X71233000Y-70528000D02*
X71233000Y-69512000D01*
X71233000Y-69512000D02*
X68947000Y-69512000D01*
X68947000Y-69512000D02*
X68947000Y-70528000D01*
X68947000Y-70528000D02*
X71233000Y-70528000D01*
X72757000Y-71798000D02*
X73773000Y-71798000D01*
X73773000Y-71798000D02*
X73773000Y-69512000D01*
X73773000Y-69512000D02*
X72757000Y-69512000D01*
X72757000Y-69512000D02*
X72757000Y-71798000D01*
X70852000Y-74592000D02*
X70852000Y-75608000D01*
X70852000Y-75608000D02*
X73138000Y-75608000D01*
X73138000Y-75608000D02*
X73138000Y-74592000D01*
X73138000Y-74592000D02*
X70852000Y-74592000D01*
D15*
X73497714Y-53356571D02*
X74114571Y-53356571D01*
X74187143Y-53320286D01*
X74223429Y-53284000D01*
X74259714Y-53211429D01*
X74259714Y-53066286D01*
X74223429Y-52993714D01*
X74187143Y-52957429D01*
X74114571Y-52921143D01*
X73497714Y-52921143D01*
X74259714Y-52159143D02*
X74259714Y-52594571D01*
X74259714Y-52376857D02*
X73497714Y-52376857D01*
X73606571Y-52449428D01*
X73679143Y-52522000D01*
X73715429Y-52594571D01*
X63924714Y-67573856D02*
X63162714Y-67573856D01*
X63235286Y-67247285D02*
X63199000Y-67210999D01*
X63162714Y-67138428D01*
X63162714Y-66956999D01*
X63199000Y-66884428D01*
X63235286Y-66848142D01*
X63307857Y-66811857D01*
X63380429Y-66811857D01*
X63489286Y-66848142D01*
X63924714Y-67283571D01*
X63924714Y-66811857D01*
X63852143Y-66049857D02*
X63888429Y-66086143D01*
X63924714Y-66195000D01*
X63924714Y-66267571D01*
X63888429Y-66376428D01*
X63815857Y-66449000D01*
X63743286Y-66485285D01*
X63598143Y-66521571D01*
X63489286Y-66521571D01*
X63344143Y-66485285D01*
X63271571Y-66449000D01*
X63199000Y-66376428D01*
X63162714Y-66267571D01*
X63162714Y-66195000D01*
X63199000Y-66086143D01*
X63235286Y-66049857D01*
D16*
X60476429Y-84355952D02*
X60476429Y-83594047D01*
X60857381Y-83974999D02*
X60095476Y-83974999D01*
D17*
X56026333Y-56094810D02*
X55736047Y-56094810D01*
X55881190Y-56094810D02*
X55881190Y-55586810D01*
X55832809Y-55659381D01*
X55784428Y-55707762D01*
X55736047Y-55731952D01*
X56340809Y-55586810D02*
X56389190Y-55586810D01*
X56437571Y-55611000D01*
X56461762Y-55635190D01*
X56485952Y-55683571D01*
X56510143Y-55780333D01*
X56510143Y-55901286D01*
X56485952Y-55998048D01*
X56461762Y-56046429D01*
X56437571Y-56070619D01*
X56389190Y-56094810D01*
X56340809Y-56094810D01*
X56292428Y-56070619D01*
X56268238Y-56046429D01*
X56244047Y-55998048D01*
X56219857Y-55901286D01*
X56219857Y-55780333D01*
X56244047Y-55683571D01*
X56268238Y-55635190D01*
X56292428Y-55611000D01*
X56340809Y-55586810D01*
X56824619Y-55586810D02*
X56873000Y-55586810D01*
X56921381Y-55611000D01*
X56945572Y-55635190D01*
X56969762Y-55683571D01*
X56993953Y-55780333D01*
X56993953Y-55901286D01*
X56969762Y-55998048D01*
X56945572Y-56046429D01*
X56921381Y-56070619D01*
X56873000Y-56094810D01*
X56824619Y-56094810D01*
X56776238Y-56070619D01*
X56752048Y-56046429D01*
X56727857Y-55998048D01*
X56703667Y-55901286D01*
X56703667Y-55780333D01*
X56727857Y-55683571D01*
X56752048Y-55635190D01*
X56776238Y-55611000D01*
X56824619Y-55586810D01*
D11*
X78293565Y-42115149D02*
X77817374Y-42448483D01*
X78293565Y-42686578D02*
X77293565Y-42686578D01*
X77293565Y-42305625D01*
X77341184Y-42210387D01*
X77388803Y-42162768D01*
X77484041Y-42115149D01*
X77626898Y-42115149D01*
X77722136Y-42162768D01*
X77769755Y-42210387D01*
X77817374Y-42305625D01*
X77817374Y-42686578D01*
X77769755Y-41686578D02*
X77769755Y-41353244D01*
X78293565Y-41210387D02*
X78293565Y-41686578D01*
X77293565Y-41686578D01*
X77293565Y-41210387D01*
X78245946Y-40829435D02*
X78293565Y-40686578D01*
X78293565Y-40448482D01*
X78245946Y-40353244D01*
X78198327Y-40305625D01*
X78103089Y-40258006D01*
X78007851Y-40258006D01*
X77912613Y-40305625D01*
X77864994Y-40353244D01*
X77817374Y-40448482D01*
X77769755Y-40638959D01*
X77722136Y-40734197D01*
X77674517Y-40781816D01*
X77579279Y-40829435D01*
X77484041Y-40829435D01*
X77388803Y-40781816D01*
X77341184Y-40734197D01*
X77293565Y-40638959D01*
X77293565Y-40400863D01*
X77341184Y-40258006D01*
X77769755Y-39829435D02*
X77769755Y-39496101D01*
X78293565Y-39353244D02*
X78293565Y-39829435D01*
X77293565Y-39829435D01*
X77293565Y-39353244D01*
X77293565Y-39067530D02*
X77293565Y-38496101D01*
X78293565Y-38781816D02*
X77293565Y-38781816D01*
X84527381Y-42152143D02*
X83527381Y-42152143D01*
X84003571Y-42152143D02*
X84003571Y-41580714D01*
X84527381Y-41580714D02*
X83527381Y-41580714D01*
X83527381Y-41199762D02*
X84527381Y-40961667D01*
X83813095Y-40771190D01*
X84527381Y-40580714D01*
X83527381Y-40342619D01*
X84003571Y-39628333D02*
X84051190Y-39485476D01*
X84098810Y-39437857D01*
X84194048Y-39390238D01*
X84336905Y-39390238D01*
X84432143Y-39437857D01*
X84479762Y-39485476D01*
X84527381Y-39580714D01*
X84527381Y-39961667D01*
X83527381Y-39961667D01*
X83527381Y-39628333D01*
X83575000Y-39533095D01*
X83622619Y-39485476D01*
X83717857Y-39437857D01*
X83813095Y-39437857D01*
X83908333Y-39485476D01*
X83955952Y-39533095D01*
X84003571Y-39628333D01*
X84003571Y-39961667D01*
D15*
X63525571Y-79638856D02*
X63525571Y-79892856D01*
X63924714Y-79892856D02*
X63162714Y-79892856D01*
X63162714Y-79529999D01*
X63162714Y-79348571D02*
X63162714Y-78913142D01*
X63924714Y-79130856D02*
X63162714Y-79130856D01*
X63924714Y-78659142D02*
X63162714Y-78659142D01*
X63162714Y-78477714D01*
X63199000Y-78368857D01*
X63271571Y-78296285D01*
X63344143Y-78260000D01*
X63489286Y-78223714D01*
X63598143Y-78223714D01*
X63743286Y-78260000D01*
X63815857Y-78296285D01*
X63888429Y-78368857D01*
X63924714Y-78477714D01*
X63924714Y-78659142D01*
X63924714Y-77897142D02*
X63162714Y-77897142D01*
D17*
X79473142Y-50041810D02*
X79521523Y-50041810D01*
X79569904Y-50066000D01*
X79594095Y-50090190D01*
X79618285Y-50138571D01*
X79642476Y-50235333D01*
X79642476Y-50356286D01*
X79618285Y-50453048D01*
X79594095Y-50501429D01*
X79569904Y-50525619D01*
X79521523Y-50549810D01*
X79473142Y-50549810D01*
X79424761Y-50525619D01*
X79400571Y-50501429D01*
X79376380Y-50453048D01*
X79352190Y-50356286D01*
X79352190Y-50235333D01*
X79376380Y-50138571D01*
X79400571Y-50090190D01*
X79424761Y-50066000D01*
X79473142Y-50041810D01*
X79860190Y-50501429D02*
X79884381Y-50525619D01*
X79860190Y-50549810D01*
X79836000Y-50525619D01*
X79860190Y-50501429D01*
X79860190Y-50549810D01*
X80368191Y-50549810D02*
X80077905Y-50549810D01*
X80223048Y-50549810D02*
X80223048Y-50041810D01*
X80174667Y-50114381D01*
X80126286Y-50162762D01*
X80077905Y-50186952D01*
X80803620Y-50211143D02*
X80803620Y-50549810D01*
X80585905Y-50211143D02*
X80585905Y-50477238D01*
X80610096Y-50525619D01*
X80658477Y-50549810D01*
X80731048Y-50549810D01*
X80779429Y-50525619D01*
X80803620Y-50501429D01*
X76001810Y-45856858D02*
X76001810Y-45808477D01*
X76026000Y-45760096D01*
X76050190Y-45735905D01*
X76098571Y-45711715D01*
X76195333Y-45687524D01*
X76316286Y-45687524D01*
X76413048Y-45711715D01*
X76461429Y-45735905D01*
X76485619Y-45760096D01*
X76509810Y-45808477D01*
X76509810Y-45856858D01*
X76485619Y-45905239D01*
X76461429Y-45929429D01*
X76413048Y-45953620D01*
X76316286Y-45977810D01*
X76195333Y-45977810D01*
X76098571Y-45953620D01*
X76050190Y-45929429D01*
X76026000Y-45905239D01*
X76001810Y-45856858D01*
X76461429Y-45469810D02*
X76485619Y-45445619D01*
X76509810Y-45469810D01*
X76485619Y-45494000D01*
X76461429Y-45469810D01*
X76509810Y-45469810D01*
X76509810Y-44961809D02*
X76509810Y-45252095D01*
X76509810Y-45106952D02*
X76001810Y-45106952D01*
X76074381Y-45155333D01*
X76122762Y-45203714D01*
X76146952Y-45252095D01*
X76171143Y-44526380D02*
X76509810Y-44526380D01*
X76171143Y-44744095D02*
X76437238Y-44744095D01*
X76485619Y-44719904D01*
X76509810Y-44671523D01*
X76509810Y-44598952D01*
X76485619Y-44550571D01*
X76461429Y-44526380D01*
X77568142Y-58931810D02*
X77616523Y-58931810D01*
X77664904Y-58956000D01*
X77689095Y-58980190D01*
X77713285Y-59028571D01*
X77737476Y-59125333D01*
X77737476Y-59246286D01*
X77713285Y-59343048D01*
X77689095Y-59391429D01*
X77664904Y-59415619D01*
X77616523Y-59439810D01*
X77568142Y-59439810D01*
X77519761Y-59415619D01*
X77495571Y-59391429D01*
X77471380Y-59343048D01*
X77447190Y-59246286D01*
X77447190Y-59125333D01*
X77471380Y-59028571D01*
X77495571Y-58980190D01*
X77519761Y-58956000D01*
X77568142Y-58931810D01*
X77955190Y-59391429D02*
X77979381Y-59415619D01*
X77955190Y-59439810D01*
X77931000Y-59415619D01*
X77955190Y-59391429D01*
X77955190Y-59439810D01*
X78463191Y-59439810D02*
X78172905Y-59439810D01*
X78318048Y-59439810D02*
X78318048Y-58931810D01*
X78269667Y-59004381D01*
X78221286Y-59052762D01*
X78172905Y-59076952D01*
X78898620Y-59101143D02*
X78898620Y-59439810D01*
X78680905Y-59101143D02*
X78680905Y-59367238D01*
X78705096Y-59415619D01*
X78753477Y-59439810D01*
X78826048Y-59439810D01*
X78874429Y-59415619D01*
X78898620Y-59391429D01*
X65503142Y-58931810D02*
X65551523Y-58931810D01*
X65599904Y-58956000D01*
X65624095Y-58980190D01*
X65648285Y-59028571D01*
X65672476Y-59125333D01*
X65672476Y-59246286D01*
X65648285Y-59343048D01*
X65624095Y-59391429D01*
X65599904Y-59415619D01*
X65551523Y-59439810D01*
X65503142Y-59439810D01*
X65454761Y-59415619D01*
X65430571Y-59391429D01*
X65406380Y-59343048D01*
X65382190Y-59246286D01*
X65382190Y-59125333D01*
X65406380Y-59028571D01*
X65430571Y-58980190D01*
X65454761Y-58956000D01*
X65503142Y-58931810D01*
X65890190Y-59391429D02*
X65914381Y-59415619D01*
X65890190Y-59439810D01*
X65866000Y-59415619D01*
X65890190Y-59391429D01*
X65890190Y-59439810D01*
X66398191Y-59439810D02*
X66107905Y-59439810D01*
X66253048Y-59439810D02*
X66253048Y-58931810D01*
X66204667Y-59004381D01*
X66156286Y-59052762D01*
X66107905Y-59076952D01*
X66833620Y-59101143D02*
X66833620Y-59439810D01*
X66615905Y-59101143D02*
X66615905Y-59367238D01*
X66640096Y-59415619D01*
X66688477Y-59439810D01*
X66761048Y-59439810D01*
X66809429Y-59415619D01*
X66833620Y-59391429D01*
X79473142Y-47501810D02*
X79521523Y-47501810D01*
X79569904Y-47526000D01*
X79594095Y-47550190D01*
X79618285Y-47598571D01*
X79642476Y-47695333D01*
X79642476Y-47816286D01*
X79618285Y-47913048D01*
X79594095Y-47961429D01*
X79569904Y-47985619D01*
X79521523Y-48009810D01*
X79473142Y-48009810D01*
X79424761Y-47985619D01*
X79400571Y-47961429D01*
X79376380Y-47913048D01*
X79352190Y-47816286D01*
X79352190Y-47695333D01*
X79376380Y-47598571D01*
X79400571Y-47550190D01*
X79424761Y-47526000D01*
X79473142Y-47501810D01*
X79860190Y-47961429D02*
X79884381Y-47985619D01*
X79860190Y-48009810D01*
X79836000Y-47985619D01*
X79860190Y-47961429D01*
X79860190Y-48009810D01*
X80368191Y-48009810D02*
X80077905Y-48009810D01*
X80223048Y-48009810D02*
X80223048Y-47501810D01*
X80174667Y-47574381D01*
X80126286Y-47622762D01*
X80077905Y-47646952D01*
X80803620Y-47671143D02*
X80803620Y-48009810D01*
X80585905Y-47671143D02*
X80585905Y-47937238D01*
X80610096Y-47985619D01*
X80658477Y-48009810D01*
X80731048Y-48009810D01*
X80779429Y-47985619D01*
X80803620Y-47961429D01*
X62963142Y-50676810D02*
X63011523Y-50676810D01*
X63059904Y-50701000D01*
X63084095Y-50725190D01*
X63108285Y-50773571D01*
X63132476Y-50870333D01*
X63132476Y-50991286D01*
X63108285Y-51088048D01*
X63084095Y-51136429D01*
X63059904Y-51160619D01*
X63011523Y-51184810D01*
X62963142Y-51184810D01*
X62914761Y-51160619D01*
X62890571Y-51136429D01*
X62866380Y-51088048D01*
X62842190Y-50991286D01*
X62842190Y-50870333D01*
X62866380Y-50773571D01*
X62890571Y-50725190D01*
X62914761Y-50701000D01*
X62963142Y-50676810D01*
X63350190Y-51136429D02*
X63374381Y-51160619D01*
X63350190Y-51184810D01*
X63326000Y-51160619D01*
X63350190Y-51136429D01*
X63350190Y-51184810D01*
X63858191Y-51184810D02*
X63567905Y-51184810D01*
X63713048Y-51184810D02*
X63713048Y-50676810D01*
X63664667Y-50749381D01*
X63616286Y-50797762D01*
X63567905Y-50821952D01*
X64293620Y-50846143D02*
X64293620Y-51184810D01*
X64075905Y-50846143D02*
X64075905Y-51112238D01*
X64100096Y-51160619D01*
X64148477Y-51184810D01*
X64221048Y-51184810D01*
X64269429Y-51160619D01*
X64293620Y-51136429D01*
X56026333Y-50094810D02*
X55736047Y-50094810D01*
X55881190Y-50094810D02*
X55881190Y-49586810D01*
X55832809Y-49659381D01*
X55784428Y-49707762D01*
X55736047Y-49731952D01*
X56340809Y-49586810D02*
X56389190Y-49586810D01*
X56437571Y-49611000D01*
X56461762Y-49635190D01*
X56485952Y-49683571D01*
X56510143Y-49780333D01*
X56510143Y-49901286D01*
X56485952Y-49998048D01*
X56461762Y-50046429D01*
X56437571Y-50070619D01*
X56389190Y-50094810D01*
X56340809Y-50094810D01*
X56292428Y-50070619D01*
X56268238Y-50046429D01*
X56244047Y-49998048D01*
X56219857Y-49901286D01*
X56219857Y-49780333D01*
X56244047Y-49683571D01*
X56268238Y-49635190D01*
X56292428Y-49611000D01*
X56340809Y-49586810D01*
X56824619Y-49586810D02*
X56873000Y-49586810D01*
X56921381Y-49611000D01*
X56945572Y-49635190D01*
X56969762Y-49683571D01*
X56993953Y-49780333D01*
X56993953Y-49901286D01*
X56969762Y-49998048D01*
X56945572Y-50046429D01*
X56921381Y-50070619D01*
X56873000Y-50094810D01*
X56824619Y-50094810D01*
X56776238Y-50070619D01*
X56752048Y-50046429D01*
X56727857Y-49998048D01*
X56703667Y-49901286D01*
X56703667Y-49780333D01*
X56727857Y-49683571D01*
X56752048Y-49635190D01*
X56776238Y-49611000D01*
X56824619Y-49586810D01*
X90161333Y-47229810D02*
X89871047Y-47229810D01*
X90016190Y-47229810D02*
X90016190Y-46721810D01*
X89967809Y-46794381D01*
X89919428Y-46842762D01*
X89871047Y-46866952D01*
X90475809Y-46721810D02*
X90524190Y-46721810D01*
X90572571Y-46746000D01*
X90596762Y-46770190D01*
X90620952Y-46818571D01*
X90645143Y-46915333D01*
X90645143Y-47036286D01*
X90620952Y-47133048D01*
X90596762Y-47181429D01*
X90572571Y-47205619D01*
X90524190Y-47229810D01*
X90475809Y-47229810D01*
X90427428Y-47205619D01*
X90403238Y-47181429D01*
X90379047Y-47133048D01*
X90354857Y-47036286D01*
X90354857Y-46915333D01*
X90379047Y-46818571D01*
X90403238Y-46770190D01*
X90427428Y-46746000D01*
X90475809Y-46721810D01*
X90959619Y-46721810D02*
X91008000Y-46721810D01*
X91056381Y-46746000D01*
X91080572Y-46770190D01*
X91104762Y-46818571D01*
X91128953Y-46915333D01*
X91128953Y-47036286D01*
X91104762Y-47133048D01*
X91080572Y-47181429D01*
X91056381Y-47205619D01*
X91008000Y-47229810D01*
X90959619Y-47229810D01*
X90911238Y-47205619D01*
X90887048Y-47181429D01*
X90862857Y-47133048D01*
X90838667Y-47036286D01*
X90838667Y-46915333D01*
X90862857Y-46818571D01*
X90887048Y-46770190D01*
X90911238Y-46746000D01*
X90959619Y-46721810D01*
X56062619Y-47094810D02*
X55772333Y-47094810D01*
X55917476Y-47094810D02*
X55917476Y-46586810D01*
X55869095Y-46659381D01*
X55820714Y-46707762D01*
X55772333Y-46731952D01*
X56377095Y-46586810D02*
X56425476Y-46586810D01*
X56473857Y-46611000D01*
X56498048Y-46635190D01*
X56522238Y-46683571D01*
X56546429Y-46780333D01*
X56546429Y-46901286D01*
X56522238Y-46998048D01*
X56498048Y-47046429D01*
X56473857Y-47070619D01*
X56425476Y-47094810D01*
X56377095Y-47094810D01*
X56328714Y-47070619D01*
X56304524Y-47046429D01*
X56280333Y-46998048D01*
X56256143Y-46901286D01*
X56256143Y-46780333D01*
X56280333Y-46683571D01*
X56304524Y-46635190D01*
X56328714Y-46611000D01*
X56377095Y-46586810D01*
X56764143Y-47094810D02*
X56764143Y-46586810D01*
X56812524Y-46901286D02*
X56957667Y-47094810D01*
X56957667Y-46756143D02*
X56764143Y-46949667D01*
X90197619Y-50229810D02*
X89907333Y-50229810D01*
X90052476Y-50229810D02*
X90052476Y-49721810D01*
X90004095Y-49794381D01*
X89955714Y-49842762D01*
X89907333Y-49866952D01*
X90512095Y-49721810D02*
X90560476Y-49721810D01*
X90608857Y-49746000D01*
X90633048Y-49770190D01*
X90657238Y-49818571D01*
X90681429Y-49915333D01*
X90681429Y-50036286D01*
X90657238Y-50133048D01*
X90633048Y-50181429D01*
X90608857Y-50205619D01*
X90560476Y-50229810D01*
X90512095Y-50229810D01*
X90463714Y-50205619D01*
X90439524Y-50181429D01*
X90415333Y-50133048D01*
X90391143Y-50036286D01*
X90391143Y-49915333D01*
X90415333Y-49818571D01*
X90439524Y-49770190D01*
X90463714Y-49746000D01*
X90512095Y-49721810D01*
X90899143Y-50229810D02*
X90899143Y-49721810D01*
X90947524Y-50036286D02*
X91092667Y-50229810D01*
X91092667Y-49891143D02*
X90899143Y-50084667D01*
X90161333Y-72714810D02*
X89871047Y-72714810D01*
X90016190Y-72714810D02*
X90016190Y-72206810D01*
X89967809Y-72279381D01*
X89919428Y-72327762D01*
X89871047Y-72351952D01*
X90475809Y-72206810D02*
X90524190Y-72206810D01*
X90572571Y-72231000D01*
X90596762Y-72255190D01*
X90620952Y-72303571D01*
X90645143Y-72400333D01*
X90645143Y-72521286D01*
X90620952Y-72618048D01*
X90596762Y-72666429D01*
X90572571Y-72690619D01*
X90524190Y-72714810D01*
X90475809Y-72714810D01*
X90427428Y-72690619D01*
X90403238Y-72666429D01*
X90379047Y-72618048D01*
X90354857Y-72521286D01*
X90354857Y-72400333D01*
X90379047Y-72303571D01*
X90403238Y-72255190D01*
X90427428Y-72231000D01*
X90475809Y-72206810D01*
X90959619Y-72206810D02*
X91008000Y-72206810D01*
X91056381Y-72231000D01*
X91080572Y-72255190D01*
X91104762Y-72303571D01*
X91128953Y-72400333D01*
X91128953Y-72521286D01*
X91104762Y-72618048D01*
X91080572Y-72666429D01*
X91056381Y-72690619D01*
X91008000Y-72714810D01*
X90959619Y-72714810D01*
X90911238Y-72690619D01*
X90887048Y-72666429D01*
X90862857Y-72618048D01*
X90838667Y-72521286D01*
X90838667Y-72400333D01*
X90862857Y-72303571D01*
X90887048Y-72255190D01*
X90911238Y-72231000D01*
X90959619Y-72206810D01*
X56026333Y-75714810D02*
X55736047Y-75714810D01*
X55881190Y-75714810D02*
X55881190Y-75206810D01*
X55832809Y-75279381D01*
X55784428Y-75327762D01*
X55736047Y-75351952D01*
X56340809Y-75206810D02*
X56389190Y-75206810D01*
X56437571Y-75231000D01*
X56461762Y-75255190D01*
X56485952Y-75303571D01*
X56510143Y-75400333D01*
X56510143Y-75521286D01*
X56485952Y-75618048D01*
X56461762Y-75666429D01*
X56437571Y-75690619D01*
X56389190Y-75714810D01*
X56340809Y-75714810D01*
X56292428Y-75690619D01*
X56268238Y-75666429D01*
X56244047Y-75618048D01*
X56219857Y-75521286D01*
X56219857Y-75400333D01*
X56244047Y-75303571D01*
X56268238Y-75255190D01*
X56292428Y-75231000D01*
X56340809Y-75206810D01*
X56824619Y-75206810D02*
X56873000Y-75206810D01*
X56921381Y-75231000D01*
X56945572Y-75255190D01*
X56969762Y-75303571D01*
X56993953Y-75400333D01*
X56993953Y-75521286D01*
X56969762Y-75618048D01*
X56945572Y-75666429D01*
X56921381Y-75690619D01*
X56873000Y-75714810D01*
X56824619Y-75714810D01*
X56776238Y-75690619D01*
X56752048Y-75666429D01*
X56727857Y-75618048D01*
X56703667Y-75521286D01*
X56703667Y-75400333D01*
X56727857Y-75303571D01*
X56752048Y-75255190D01*
X56776238Y-75231000D01*
X56824619Y-75206810D01*
X90197619Y-75714810D02*
X89907333Y-75714810D01*
X90052476Y-75714810D02*
X90052476Y-75206810D01*
X90004095Y-75279381D01*
X89955714Y-75327762D01*
X89907333Y-75351952D01*
X90512095Y-75206810D02*
X90560476Y-75206810D01*
X90608857Y-75231000D01*
X90633048Y-75255190D01*
X90657238Y-75303571D01*
X90681429Y-75400333D01*
X90681429Y-75521286D01*
X90657238Y-75618048D01*
X90633048Y-75666429D01*
X90608857Y-75690619D01*
X90560476Y-75714810D01*
X90512095Y-75714810D01*
X90463714Y-75690619D01*
X90439524Y-75666429D01*
X90415333Y-75618048D01*
X90391143Y-75521286D01*
X90391143Y-75400333D01*
X90415333Y-75303571D01*
X90439524Y-75255190D01*
X90463714Y-75231000D01*
X90512095Y-75206810D01*
X90899143Y-75714810D02*
X90899143Y-75206810D01*
X90947524Y-75521286D02*
X91092667Y-75714810D01*
X91092667Y-75376143D02*
X90899143Y-75569667D01*
X56062619Y-72714810D02*
X55772333Y-72714810D01*
X55917476Y-72714810D02*
X55917476Y-72206810D01*
X55869095Y-72279381D01*
X55820714Y-72327762D01*
X55772333Y-72351952D01*
X56377095Y-72206810D02*
X56425476Y-72206810D01*
X56473857Y-72231000D01*
X56498048Y-72255190D01*
X56522238Y-72303571D01*
X56546429Y-72400333D01*
X56546429Y-72521286D01*
X56522238Y-72618048D01*
X56498048Y-72666429D01*
X56473857Y-72690619D01*
X56425476Y-72714810D01*
X56377095Y-72714810D01*
X56328714Y-72690619D01*
X56304524Y-72666429D01*
X56280333Y-72618048D01*
X56256143Y-72521286D01*
X56256143Y-72400333D01*
X56280333Y-72303571D01*
X56304524Y-72255190D01*
X56328714Y-72231000D01*
X56377095Y-72206810D01*
X56764143Y-72714810D02*
X56764143Y-72206810D01*
X56812524Y-72521286D02*
X56957667Y-72714810D01*
X56957667Y-72376143D02*
X56764143Y-72569667D01*
X90161333Y-53229810D02*
X89871047Y-53229810D01*
X90016190Y-53229810D02*
X90016190Y-52721810D01*
X89967809Y-52794381D01*
X89919428Y-52842762D01*
X89871047Y-52866952D01*
X90475809Y-52721810D02*
X90524190Y-52721810D01*
X90572571Y-52746000D01*
X90596762Y-52770190D01*
X90620952Y-52818571D01*
X90645143Y-52915333D01*
X90645143Y-53036286D01*
X90620952Y-53133048D01*
X90596762Y-53181429D01*
X90572571Y-53205619D01*
X90524190Y-53229810D01*
X90475809Y-53229810D01*
X90427428Y-53205619D01*
X90403238Y-53181429D01*
X90379047Y-53133048D01*
X90354857Y-53036286D01*
X90354857Y-52915333D01*
X90379047Y-52818571D01*
X90403238Y-52770190D01*
X90427428Y-52746000D01*
X90475809Y-52721810D01*
X90959619Y-52721810D02*
X91008000Y-52721810D01*
X91056381Y-52746000D01*
X91080572Y-52770190D01*
X91104762Y-52818571D01*
X91128953Y-52915333D01*
X91128953Y-53036286D01*
X91104762Y-53133048D01*
X91080572Y-53181429D01*
X91056381Y-53205619D01*
X91008000Y-53229810D01*
X90959619Y-53229810D01*
X90911238Y-53205619D01*
X90887048Y-53181429D01*
X90862857Y-53133048D01*
X90838667Y-53036286D01*
X90838667Y-52915333D01*
X90862857Y-52818571D01*
X90887048Y-52770190D01*
X90911238Y-52746000D01*
X90959619Y-52721810D01*
X81692619Y-48009810D02*
X81402333Y-48009810D01*
X81547476Y-48009810D02*
X81547476Y-47501810D01*
X81499095Y-47574381D01*
X81450714Y-47622762D01*
X81402333Y-47646952D01*
X82007095Y-47501810D02*
X82055476Y-47501810D01*
X82103857Y-47526000D01*
X82128048Y-47550190D01*
X82152238Y-47598571D01*
X82176429Y-47695333D01*
X82176429Y-47816286D01*
X82152238Y-47913048D01*
X82128048Y-47961429D01*
X82103857Y-47985619D01*
X82055476Y-48009810D01*
X82007095Y-48009810D01*
X81958714Y-47985619D01*
X81934524Y-47961429D01*
X81910333Y-47913048D01*
X81886143Y-47816286D01*
X81886143Y-47695333D01*
X81910333Y-47598571D01*
X81934524Y-47550190D01*
X81958714Y-47526000D01*
X82007095Y-47501810D01*
X82394143Y-48009810D02*
X82394143Y-47501810D01*
X82442524Y-47816286D02*
X82587667Y-48009810D01*
X82587667Y-47671143D02*
X82394143Y-47864667D01*
X75929238Y-63425190D02*
X75953428Y-63401000D01*
X76001809Y-63376810D01*
X76122762Y-63376810D01*
X76171143Y-63401000D01*
X76195333Y-63425190D01*
X76219524Y-63473571D01*
X76219524Y-63521952D01*
X76195333Y-63594524D01*
X75905047Y-63884810D01*
X76219524Y-63884810D01*
X76437238Y-63884810D02*
X76437238Y-63376810D01*
X76485619Y-63691286D02*
X76630762Y-63884810D01*
X76630762Y-63546143D02*
X76437238Y-63739667D01*
X77247619Y-63884810D02*
X76957333Y-63884810D01*
X77102476Y-63884810D02*
X77102476Y-63376810D01*
X77054095Y-63449381D01*
X77005714Y-63497762D01*
X76957333Y-63521952D01*
X77562095Y-63376810D02*
X77610476Y-63376810D01*
X77658857Y-63401000D01*
X77683048Y-63425190D01*
X77707238Y-63473571D01*
X77731429Y-63570333D01*
X77731429Y-63691286D01*
X77707238Y-63788048D01*
X77683048Y-63836429D01*
X77658857Y-63860619D01*
X77610476Y-63884810D01*
X77562095Y-63884810D01*
X77513714Y-63860619D01*
X77489524Y-63836429D01*
X77465333Y-63788048D01*
X77441143Y-63691286D01*
X77441143Y-63570333D01*
X77465333Y-63473571D01*
X77489524Y-63425190D01*
X77513714Y-63401000D01*
X77562095Y-63376810D01*
X77949143Y-63884810D02*
X77949143Y-63376810D01*
X77997524Y-63691286D02*
X78142667Y-63884810D01*
X78142667Y-63546143D02*
X77949143Y-63739667D01*
X74707619Y-63884810D02*
X74417333Y-63884810D01*
X74562476Y-63884810D02*
X74562476Y-63376810D01*
X74514095Y-63449381D01*
X74465714Y-63497762D01*
X74417333Y-63521952D01*
X75022095Y-63376810D02*
X75070476Y-63376810D01*
X75118857Y-63401000D01*
X75143048Y-63425190D01*
X75167238Y-63473571D01*
X75191429Y-63570333D01*
X75191429Y-63691286D01*
X75167238Y-63788048D01*
X75143048Y-63836429D01*
X75118857Y-63860619D01*
X75070476Y-63884810D01*
X75022095Y-63884810D01*
X74973714Y-63860619D01*
X74949524Y-63836429D01*
X74925333Y-63788048D01*
X74901143Y-63691286D01*
X74901143Y-63570333D01*
X74925333Y-63473571D01*
X74949524Y-63425190D01*
X74973714Y-63401000D01*
X75022095Y-63376810D01*
X75409143Y-63884810D02*
X75409143Y-63376810D01*
X75457524Y-63691286D02*
X75602667Y-63884810D01*
X75602667Y-63546143D02*
X75409143Y-63739667D01*
X76219524Y-75949810D02*
X75929238Y-75949810D01*
X76074381Y-75949810D02*
X76074381Y-75441810D01*
X76026000Y-75514381D01*
X75977619Y-75562762D01*
X75929238Y-75586952D01*
X76437238Y-75949810D02*
X76437238Y-75441810D01*
X76485619Y-75756286D02*
X76630762Y-75949810D01*
X76630762Y-75611143D02*
X76437238Y-75804667D01*
X71363286Y-63546143D02*
X71363286Y-63884810D01*
X71242333Y-63352619D02*
X71121381Y-63715476D01*
X71435857Y-63715476D01*
X71629381Y-63836429D02*
X71653572Y-63860619D01*
X71629381Y-63884810D01*
X71605191Y-63860619D01*
X71629381Y-63836429D01*
X71629381Y-63884810D01*
X71822905Y-63376810D02*
X72161572Y-63376810D01*
X71943858Y-63884810D01*
X72355096Y-63884810D02*
X72355096Y-63376810D01*
X72403477Y-63691286D02*
X72548620Y-63884810D01*
X72548620Y-63546143D02*
X72355096Y-63739667D01*
X83597619Y-48009810D02*
X83307333Y-48009810D01*
X83452476Y-48009810D02*
X83452476Y-47501810D01*
X83404095Y-47574381D01*
X83355714Y-47622762D01*
X83307333Y-47646952D01*
X83912095Y-47501810D02*
X83960476Y-47501810D01*
X84008857Y-47526000D01*
X84033048Y-47550190D01*
X84057238Y-47598571D01*
X84081429Y-47695333D01*
X84081429Y-47816286D01*
X84057238Y-47913048D01*
X84033048Y-47961429D01*
X84008857Y-47985619D01*
X83960476Y-48009810D01*
X83912095Y-48009810D01*
X83863714Y-47985619D01*
X83839524Y-47961429D01*
X83815333Y-47913048D01*
X83791143Y-47816286D01*
X83791143Y-47695333D01*
X83815333Y-47598571D01*
X83839524Y-47550190D01*
X83863714Y-47526000D01*
X83912095Y-47501810D01*
X84299143Y-48009810D02*
X84299143Y-47501810D01*
X84347524Y-47816286D02*
X84492667Y-48009810D01*
X84492667Y-47671143D02*
X84299143Y-47864667D01*
X77199238Y-75490190D02*
X77223428Y-75466000D01*
X77271809Y-75441810D01*
X77392762Y-75441810D01*
X77441143Y-75466000D01*
X77465333Y-75490190D01*
X77489524Y-75538571D01*
X77489524Y-75586952D01*
X77465333Y-75659524D01*
X77175047Y-75949810D01*
X77489524Y-75949810D01*
X77707238Y-75949810D02*
X77707238Y-75441810D01*
X77755619Y-75756286D02*
X77900762Y-75949810D01*
X77900762Y-75611143D02*
X77707238Y-75804667D01*
X72633286Y-63546143D02*
X72633286Y-63884810D01*
X72512333Y-63352619D02*
X72391381Y-63715476D01*
X72705857Y-63715476D01*
X72899381Y-63836429D02*
X72923572Y-63860619D01*
X72899381Y-63884810D01*
X72875191Y-63860619D01*
X72899381Y-63836429D01*
X72899381Y-63884810D01*
X73092905Y-63376810D02*
X73431572Y-63376810D01*
X73213858Y-63884810D01*
X73625096Y-63884810D02*
X73625096Y-63376810D01*
X73673477Y-63691286D02*
X73818620Y-63884810D01*
X73818620Y-63546143D02*
X73625096Y-63739667D01*
X70921810Y-45856858D02*
X70921810Y-45808477D01*
X70946000Y-45760096D01*
X70970190Y-45735905D01*
X71018571Y-45711715D01*
X71115333Y-45687524D01*
X71236286Y-45687524D01*
X71333048Y-45711715D01*
X71381429Y-45735905D01*
X71405619Y-45760096D01*
X71429810Y-45808477D01*
X71429810Y-45856858D01*
X71405619Y-45905239D01*
X71381429Y-45929429D01*
X71333048Y-45953620D01*
X71236286Y-45977810D01*
X71115333Y-45977810D01*
X71018571Y-45953620D01*
X70970190Y-45929429D01*
X70946000Y-45905239D01*
X70921810Y-45856858D01*
X71381429Y-45469810D02*
X71405619Y-45445619D01*
X71429810Y-45469810D01*
X71405619Y-45494000D01*
X71381429Y-45469810D01*
X71429810Y-45469810D01*
X71429810Y-44961809D02*
X71429810Y-45252095D01*
X71429810Y-45106952D02*
X70921810Y-45106952D01*
X70994381Y-45155333D01*
X71042762Y-45203714D01*
X71066952Y-45252095D01*
X71091143Y-44526380D02*
X71429810Y-44526380D01*
X71091143Y-44744095D02*
X71357238Y-44744095D01*
X71405619Y-44719904D01*
X71429810Y-44671523D01*
X71429810Y-44598952D01*
X71405619Y-44550571D01*
X71381429Y-44526380D01*
X62884524Y-59705905D02*
X62860333Y-59754286D01*
X62836143Y-59778477D01*
X62787762Y-59802667D01*
X62763571Y-59802667D01*
X62715190Y-59778477D01*
X62691000Y-59754286D01*
X62666810Y-59705905D01*
X62666810Y-59609143D01*
X62691000Y-59560762D01*
X62715190Y-59536572D01*
X62763571Y-59512381D01*
X62787762Y-59512381D01*
X62836143Y-59536572D01*
X62860333Y-59560762D01*
X62884524Y-59609143D01*
X62884524Y-59705905D01*
X62908714Y-59754286D01*
X62932905Y-59778477D01*
X62981286Y-59802667D01*
X63078048Y-59802667D01*
X63126429Y-59778477D01*
X63150619Y-59754286D01*
X63174810Y-59705905D01*
X63174810Y-59609143D01*
X63150619Y-59560762D01*
X63126429Y-59536572D01*
X63078048Y-59512381D01*
X62981286Y-59512381D01*
X62932905Y-59536572D01*
X62908714Y-59560762D01*
X62884524Y-59609143D01*
X62836143Y-59294667D02*
X63344143Y-59294667D01*
X62860333Y-59294667D02*
X62836143Y-59246286D01*
X62836143Y-59149524D01*
X62860333Y-59101143D01*
X62884524Y-59076952D01*
X62932905Y-59052762D01*
X63078048Y-59052762D01*
X63126429Y-59076952D01*
X63150619Y-59101143D01*
X63174810Y-59149524D01*
X63174810Y-59246286D01*
X63150619Y-59294667D01*
X62908714Y-58665714D02*
X62908714Y-58835048D01*
X63174810Y-58835048D02*
X62666810Y-58835048D01*
X62666810Y-58593143D01*
X61179095Y-51529524D02*
X61130714Y-51505333D01*
X61106523Y-51481143D01*
X61082333Y-51432762D01*
X61082333Y-51408571D01*
X61106523Y-51360190D01*
X61130714Y-51336000D01*
X61179095Y-51311810D01*
X61275857Y-51311810D01*
X61324238Y-51336000D01*
X61348428Y-51360190D01*
X61372619Y-51408571D01*
X61372619Y-51432762D01*
X61348428Y-51481143D01*
X61324238Y-51505333D01*
X61275857Y-51529524D01*
X61179095Y-51529524D01*
X61130714Y-51553714D01*
X61106523Y-51577905D01*
X61082333Y-51626286D01*
X61082333Y-51723048D01*
X61106523Y-51771429D01*
X61130714Y-51795619D01*
X61179095Y-51819810D01*
X61275857Y-51819810D01*
X61324238Y-51795619D01*
X61348428Y-51771429D01*
X61372619Y-51723048D01*
X61372619Y-51626286D01*
X61348428Y-51577905D01*
X61324238Y-51553714D01*
X61275857Y-51529524D01*
X61590333Y-51481143D02*
X61590333Y-51989143D01*
X61590333Y-51505333D02*
X61638714Y-51481143D01*
X61735476Y-51481143D01*
X61783857Y-51505333D01*
X61808048Y-51529524D01*
X61832238Y-51577905D01*
X61832238Y-51723048D01*
X61808048Y-51771429D01*
X61783857Y-51795619D01*
X61735476Y-51819810D01*
X61638714Y-51819810D01*
X61590333Y-51795619D01*
X62219286Y-51553714D02*
X62049952Y-51553714D01*
X62049952Y-51819810D02*
X62049952Y-51311810D01*
X62291857Y-51311810D01*
X84172142Y-75441810D02*
X83930237Y-75441810D01*
X83906047Y-75683714D01*
X83930237Y-75659524D01*
X83978618Y-75635333D01*
X84099571Y-75635333D01*
X84147952Y-75659524D01*
X84172142Y-75683714D01*
X84196333Y-75732095D01*
X84196333Y-75853048D01*
X84172142Y-75901429D01*
X84147952Y-75925619D01*
X84099571Y-75949810D01*
X83978618Y-75949810D01*
X83930237Y-75925619D01*
X83906047Y-75901429D01*
X84680143Y-75949810D02*
X84389857Y-75949810D01*
X84535000Y-75949810D02*
X84535000Y-75441810D01*
X84486619Y-75514381D01*
X84438238Y-75562762D01*
X84389857Y-75586952D01*
X84994619Y-75441810D02*
X85043000Y-75441810D01*
X85091381Y-75466000D01*
X85115572Y-75490190D01*
X85139762Y-75538571D01*
X85163953Y-75635333D01*
X85163953Y-75756286D01*
X85139762Y-75853048D01*
X85115572Y-75901429D01*
X85091381Y-75925619D01*
X85043000Y-75949810D01*
X84994619Y-75949810D01*
X84946238Y-75925619D01*
X84922048Y-75901429D01*
X84897857Y-75853048D01*
X84873667Y-75756286D01*
X84873667Y-75635333D01*
X84897857Y-75538571D01*
X84922048Y-75490190D01*
X84946238Y-75466000D01*
X84994619Y-75441810D01*
X82902142Y-75441810D02*
X82660237Y-75441810D01*
X82636047Y-75683714D01*
X82660237Y-75659524D01*
X82708618Y-75635333D01*
X82829571Y-75635333D01*
X82877952Y-75659524D01*
X82902142Y-75683714D01*
X82926333Y-75732095D01*
X82926333Y-75853048D01*
X82902142Y-75901429D01*
X82877952Y-75925619D01*
X82829571Y-75949810D01*
X82708618Y-75949810D01*
X82660237Y-75925619D01*
X82636047Y-75901429D01*
X83410143Y-75949810D02*
X83119857Y-75949810D01*
X83265000Y-75949810D02*
X83265000Y-75441810D01*
X83216619Y-75514381D01*
X83168238Y-75562762D01*
X83119857Y-75586952D01*
X83724619Y-75441810D02*
X83773000Y-75441810D01*
X83821381Y-75466000D01*
X83845572Y-75490190D01*
X83869762Y-75538571D01*
X83893953Y-75635333D01*
X83893953Y-75756286D01*
X83869762Y-75853048D01*
X83845572Y-75901429D01*
X83821381Y-75925619D01*
X83773000Y-75949810D01*
X83724619Y-75949810D01*
X83676238Y-75925619D01*
X83652048Y-75901429D01*
X83627857Y-75853048D01*
X83603667Y-75756286D01*
X83603667Y-75635333D01*
X83627857Y-75538571D01*
X83652048Y-75490190D01*
X83676238Y-75466000D01*
X83724619Y-75441810D01*
X81632142Y-75441810D02*
X81390237Y-75441810D01*
X81366047Y-75683714D01*
X81390237Y-75659524D01*
X81438618Y-75635333D01*
X81559571Y-75635333D01*
X81607952Y-75659524D01*
X81632142Y-75683714D01*
X81656333Y-75732095D01*
X81656333Y-75853048D01*
X81632142Y-75901429D01*
X81607952Y-75925619D01*
X81559571Y-75949810D01*
X81438618Y-75949810D01*
X81390237Y-75925619D01*
X81366047Y-75901429D01*
X82140143Y-75949810D02*
X81849857Y-75949810D01*
X81995000Y-75949810D02*
X81995000Y-75441810D01*
X81946619Y-75514381D01*
X81898238Y-75562762D01*
X81849857Y-75586952D01*
X82454619Y-75441810D02*
X82503000Y-75441810D01*
X82551381Y-75466000D01*
X82575572Y-75490190D01*
X82599762Y-75538571D01*
X82623953Y-75635333D01*
X82623953Y-75756286D01*
X82599762Y-75853048D01*
X82575572Y-75901429D01*
X82551381Y-75925619D01*
X82503000Y-75949810D01*
X82454619Y-75949810D01*
X82406238Y-75925619D01*
X82382048Y-75901429D01*
X82357857Y-75853048D01*
X82333667Y-75756286D01*
X82333667Y-75635333D01*
X82357857Y-75538571D01*
X82382048Y-75490190D01*
X82406238Y-75466000D01*
X82454619Y-75441810D01*
D15*
X73631144Y-82922714D02*
X73268287Y-82922714D01*
X73232001Y-83285571D01*
X73268287Y-83249286D01*
X73340858Y-83213000D01*
X73522287Y-83213000D01*
X73594858Y-83249286D01*
X73631144Y-83285571D01*
X73667429Y-83358143D01*
X73667429Y-83539571D01*
X73631144Y-83612143D01*
X73594858Y-83648429D01*
X73522287Y-83684714D01*
X73340858Y-83684714D01*
X73268287Y-83648429D01*
X73232001Y-83612143D01*
X73921429Y-83176714D02*
X74102858Y-83684714D01*
X74284286Y-83176714D01*
X70292858Y-82922714D02*
X70764572Y-82922714D01*
X70510572Y-83213000D01*
X70619430Y-83213000D01*
X70692001Y-83249286D01*
X70728287Y-83285571D01*
X70764572Y-83358143D01*
X70764572Y-83539571D01*
X70728287Y-83612143D01*
X70692001Y-83648429D01*
X70619430Y-83684714D01*
X70401715Y-83684714D01*
X70329144Y-83648429D01*
X70292858Y-83612143D01*
X71018572Y-83176714D02*
X71200001Y-83684714D01*
X71381429Y-83176714D01*
X71599143Y-82922714D02*
X72070857Y-82922714D01*
X71816857Y-83213000D01*
X71925715Y-83213000D01*
X71998286Y-83249286D01*
X72034572Y-83285571D01*
X72070857Y-83358143D01*
X72070857Y-83539571D01*
X72034572Y-83612143D01*
X71998286Y-83648429D01*
X71925715Y-83684714D01*
X71708000Y-83684714D01*
X71635429Y-83648429D01*
X71599143Y-83612143D01*
X67807287Y-83285571D02*
X67916144Y-83321857D01*
X67952429Y-83358143D01*
X67988715Y-83430714D01*
X67988715Y-83539571D01*
X67952429Y-83612143D01*
X67916144Y-83648429D01*
X67843572Y-83684714D01*
X67553287Y-83684714D01*
X67553287Y-82922714D01*
X67807287Y-82922714D01*
X67879858Y-82959000D01*
X67916144Y-82995286D01*
X67952429Y-83067857D01*
X67952429Y-83140429D01*
X67916144Y-83213000D01*
X67879858Y-83249286D01*
X67807287Y-83285571D01*
X67553287Y-83285571D01*
X68279001Y-83467000D02*
X68641858Y-83467000D01*
X68206429Y-83684714D02*
X68460429Y-82922714D01*
X68714429Y-83684714D01*
X68859572Y-82922714D02*
X69295001Y-82922714D01*
X69077287Y-83684714D02*
X69077287Y-82922714D01*
X69440143Y-82922714D02*
X69875572Y-82922714D01*
X69657858Y-83684714D02*
X69657858Y-82922714D01*
X75699428Y-82959000D02*
X75626857Y-82922714D01*
X75518000Y-82922714D01*
X75409143Y-82959000D01*
X75336571Y-83031571D01*
X75300286Y-83104143D01*
X75264000Y-83249286D01*
X75264000Y-83358143D01*
X75300286Y-83503286D01*
X75336571Y-83575857D01*
X75409143Y-83648429D01*
X75518000Y-83684714D01*
X75590571Y-83684714D01*
X75699428Y-83648429D01*
X75735714Y-83612143D01*
X75735714Y-83358143D01*
X75590571Y-83358143D01*
X76062286Y-83684714D02*
X76062286Y-82922714D01*
X76497714Y-83684714D01*
X76497714Y-82922714D01*
X76860572Y-83684714D02*
X76860572Y-82922714D01*
X77042000Y-82922714D01*
X77150857Y-82959000D01*
X77223429Y-83031571D01*
X77259714Y-83104143D01*
X77296000Y-83249286D01*
X77296000Y-83358143D01*
X77259714Y-83503286D01*
X77223429Y-83575857D01*
X77150857Y-83648429D01*
X77042000Y-83684714D01*
X76860572Y-83684714D01*
X58826572Y-45185571D02*
X58935429Y-45221857D01*
X58971714Y-45258143D01*
X59008000Y-45330714D01*
X59008000Y-45439571D01*
X58971714Y-45512143D01*
X58935429Y-45548429D01*
X58862857Y-45584714D01*
X58572572Y-45584714D01*
X58572572Y-44822714D01*
X58826572Y-44822714D01*
X58899143Y-44859000D01*
X58935429Y-44895286D01*
X58971714Y-44967857D01*
X58971714Y-45040429D01*
X58935429Y-45113000D01*
X58899143Y-45149286D01*
X58826572Y-45185571D01*
X58572572Y-45185571D01*
X59479714Y-44822714D02*
X59552286Y-44822714D01*
X59624857Y-44859000D01*
X59661143Y-44895286D01*
X59697429Y-44967857D01*
X59733714Y-45113000D01*
X59733714Y-45294429D01*
X59697429Y-45439571D01*
X59661143Y-45512143D01*
X59624857Y-45548429D01*
X59552286Y-45584714D01*
X59479714Y-45584714D01*
X59407143Y-45548429D01*
X59370857Y-45512143D01*
X59334572Y-45439571D01*
X59298286Y-45294429D01*
X59298286Y-45113000D01*
X59334572Y-44967857D01*
X59370857Y-44895286D01*
X59407143Y-44859000D01*
X59479714Y-44822714D01*
X61366572Y-45185571D02*
X61475429Y-45221857D01*
X61511714Y-45258143D01*
X61548000Y-45330714D01*
X61548000Y-45439571D01*
X61511714Y-45512143D01*
X61475429Y-45548429D01*
X61402857Y-45584714D01*
X61112572Y-45584714D01*
X61112572Y-44822714D01*
X61366572Y-44822714D01*
X61439143Y-44859000D01*
X61475429Y-44895286D01*
X61511714Y-44967857D01*
X61511714Y-45040429D01*
X61475429Y-45113000D01*
X61439143Y-45149286D01*
X61366572Y-45185571D01*
X61112572Y-45185571D01*
X62273714Y-45584714D02*
X61838286Y-45584714D01*
X62056000Y-45584714D02*
X62056000Y-44822714D01*
X61983429Y-44931571D01*
X61910857Y-45004143D01*
X61838286Y-45040429D01*
D17*
X56062619Y-53094810D02*
X55772333Y-53094810D01*
X55917476Y-53094810D02*
X55917476Y-52586810D01*
X55869095Y-52659381D01*
X55820714Y-52707762D01*
X55772333Y-52731952D01*
X56377095Y-52586810D02*
X56425476Y-52586810D01*
X56473857Y-52611000D01*
X56498048Y-52635190D01*
X56522238Y-52683571D01*
X56546429Y-52780333D01*
X56546429Y-52901286D01*
X56522238Y-52998048D01*
X56498048Y-53046429D01*
X56473857Y-53070619D01*
X56425476Y-53094810D01*
X56377095Y-53094810D01*
X56328714Y-53070619D01*
X56304524Y-53046429D01*
X56280333Y-52998048D01*
X56256143Y-52901286D01*
X56256143Y-52780333D01*
X56280333Y-52683571D01*
X56304524Y-52635190D01*
X56328714Y-52611000D01*
X56377095Y-52586810D01*
X56764143Y-53094810D02*
X56764143Y-52586810D01*
X56812524Y-52901286D02*
X56957667Y-53094810D01*
X56957667Y-52756143D02*
X56764143Y-52949667D01*
X90197619Y-56229810D02*
X89907333Y-56229810D01*
X90052476Y-56229810D02*
X90052476Y-55721810D01*
X90004095Y-55794381D01*
X89955714Y-55842762D01*
X89907333Y-55866952D01*
X90512095Y-55721810D02*
X90560476Y-55721810D01*
X90608857Y-55746000D01*
X90633048Y-55770190D01*
X90657238Y-55818571D01*
X90681429Y-55915333D01*
X90681429Y-56036286D01*
X90657238Y-56133048D01*
X90633048Y-56181429D01*
X90608857Y-56205619D01*
X90560476Y-56229810D01*
X90512095Y-56229810D01*
X90463714Y-56205619D01*
X90439524Y-56181429D01*
X90415333Y-56133048D01*
X90391143Y-56036286D01*
X90391143Y-55915333D01*
X90415333Y-55818571D01*
X90439524Y-55770190D01*
X90463714Y-55746000D01*
X90512095Y-55721810D01*
X90899143Y-56229810D02*
X90899143Y-55721810D01*
X90947524Y-56036286D02*
X91092667Y-56229810D01*
X91092667Y-55891143D02*
X90899143Y-56084667D01*
X56026333Y-69714810D02*
X55736047Y-69714810D01*
X55881190Y-69714810D02*
X55881190Y-69206810D01*
X55832809Y-69279381D01*
X55784428Y-69327762D01*
X55736047Y-69351952D01*
X56340809Y-69206810D02*
X56389190Y-69206810D01*
X56437571Y-69231000D01*
X56461762Y-69255190D01*
X56485952Y-69303571D01*
X56510143Y-69400333D01*
X56510143Y-69521286D01*
X56485952Y-69618048D01*
X56461762Y-69666429D01*
X56437571Y-69690619D01*
X56389190Y-69714810D01*
X56340809Y-69714810D01*
X56292428Y-69690619D01*
X56268238Y-69666429D01*
X56244047Y-69618048D01*
X56219857Y-69521286D01*
X56219857Y-69400333D01*
X56244047Y-69303571D01*
X56268238Y-69255190D01*
X56292428Y-69231000D01*
X56340809Y-69206810D01*
X56824619Y-69206810D02*
X56873000Y-69206810D01*
X56921381Y-69231000D01*
X56945572Y-69255190D01*
X56969762Y-69303571D01*
X56993953Y-69400333D01*
X56993953Y-69521286D01*
X56969762Y-69618048D01*
X56945572Y-69666429D01*
X56921381Y-69690619D01*
X56873000Y-69714810D01*
X56824619Y-69714810D01*
X56776238Y-69690619D01*
X56752048Y-69666429D01*
X56727857Y-69618048D01*
X56703667Y-69521286D01*
X56703667Y-69400333D01*
X56727857Y-69303571D01*
X56752048Y-69255190D01*
X56776238Y-69231000D01*
X56824619Y-69206810D01*
X90161333Y-66714810D02*
X89871047Y-66714810D01*
X90016190Y-66714810D02*
X90016190Y-66206810D01*
X89967809Y-66279381D01*
X89919428Y-66327762D01*
X89871047Y-66351952D01*
X90475809Y-66206810D02*
X90524190Y-66206810D01*
X90572571Y-66231000D01*
X90596762Y-66255190D01*
X90620952Y-66303571D01*
X90645143Y-66400333D01*
X90645143Y-66521286D01*
X90620952Y-66618048D01*
X90596762Y-66666429D01*
X90572571Y-66690619D01*
X90524190Y-66714810D01*
X90475809Y-66714810D01*
X90427428Y-66690619D01*
X90403238Y-66666429D01*
X90379047Y-66618048D01*
X90354857Y-66521286D01*
X90354857Y-66400333D01*
X90379047Y-66303571D01*
X90403238Y-66255190D01*
X90427428Y-66231000D01*
X90475809Y-66206810D01*
X90959619Y-66206810D02*
X91008000Y-66206810D01*
X91056381Y-66231000D01*
X91080572Y-66255190D01*
X91104762Y-66303571D01*
X91128953Y-66400333D01*
X91128953Y-66521286D01*
X91104762Y-66618048D01*
X91080572Y-66666429D01*
X91056381Y-66690619D01*
X91008000Y-66714810D01*
X90959619Y-66714810D01*
X90911238Y-66690619D01*
X90887048Y-66666429D01*
X90862857Y-66618048D01*
X90838667Y-66521286D01*
X90838667Y-66400333D01*
X90862857Y-66303571D01*
X90887048Y-66255190D01*
X90911238Y-66231000D01*
X90959619Y-66206810D01*
X56062619Y-66714810D02*
X55772333Y-66714810D01*
X55917476Y-66714810D02*
X55917476Y-66206810D01*
X55869095Y-66279381D01*
X55820714Y-66327762D01*
X55772333Y-66351952D01*
X56377095Y-66206810D02*
X56425476Y-66206810D01*
X56473857Y-66231000D01*
X56498048Y-66255190D01*
X56522238Y-66303571D01*
X56546429Y-66400333D01*
X56546429Y-66521286D01*
X56522238Y-66618048D01*
X56498048Y-66666429D01*
X56473857Y-66690619D01*
X56425476Y-66714810D01*
X56377095Y-66714810D01*
X56328714Y-66690619D01*
X56304524Y-66666429D01*
X56280333Y-66618048D01*
X56256143Y-66521286D01*
X56256143Y-66400333D01*
X56280333Y-66303571D01*
X56304524Y-66255190D01*
X56328714Y-66231000D01*
X56377095Y-66206810D01*
X56764143Y-66714810D02*
X56764143Y-66206810D01*
X56812524Y-66521286D02*
X56957667Y-66714810D01*
X56957667Y-66376143D02*
X56764143Y-66569667D01*
X90197619Y-69714810D02*
X89907333Y-69714810D01*
X90052476Y-69714810D02*
X90052476Y-69206810D01*
X90004095Y-69279381D01*
X89955714Y-69327762D01*
X89907333Y-69351952D01*
X90512095Y-69206810D02*
X90560476Y-69206810D01*
X90608857Y-69231000D01*
X90633048Y-69255190D01*
X90657238Y-69303571D01*
X90681429Y-69400333D01*
X90681429Y-69521286D01*
X90657238Y-69618048D01*
X90633048Y-69666429D01*
X90608857Y-69690619D01*
X90560476Y-69714810D01*
X90512095Y-69714810D01*
X90463714Y-69690619D01*
X90439524Y-69666429D01*
X90415333Y-69618048D01*
X90391143Y-69521286D01*
X90391143Y-69400333D01*
X90415333Y-69303571D01*
X90439524Y-69255190D01*
X90463714Y-69231000D01*
X90512095Y-69206810D01*
X90899143Y-69714810D02*
X90899143Y-69206810D01*
X90947524Y-69521286D02*
X91092667Y-69714810D01*
X91092667Y-69376143D02*
X90899143Y-69569667D01*
X66367952Y-43105190D02*
X66392142Y-43081000D01*
X66440523Y-43056810D01*
X66561476Y-43056810D01*
X66609857Y-43081000D01*
X66634047Y-43105190D01*
X66658238Y-43153571D01*
X66658238Y-43201952D01*
X66634047Y-43274524D01*
X66343761Y-43564810D01*
X66658238Y-43564810D01*
X66851762Y-43105190D02*
X66875952Y-43081000D01*
X66924333Y-43056810D01*
X67045286Y-43056810D01*
X67093667Y-43081000D01*
X67117857Y-43105190D01*
X67142048Y-43153571D01*
X67142048Y-43201952D01*
X67117857Y-43274524D01*
X66827571Y-43564810D01*
X67142048Y-43564810D01*
X65097952Y-43105190D02*
X65122142Y-43081000D01*
X65170523Y-43056810D01*
X65291476Y-43056810D01*
X65339857Y-43081000D01*
X65364047Y-43105190D01*
X65388238Y-43153571D01*
X65388238Y-43201952D01*
X65364047Y-43274524D01*
X65073761Y-43564810D01*
X65388238Y-43564810D01*
X65581762Y-43105190D02*
X65605952Y-43081000D01*
X65654333Y-43056810D01*
X65775286Y-43056810D01*
X65823667Y-43081000D01*
X65847857Y-43105190D01*
X65872048Y-43153571D01*
X65872048Y-43201952D01*
X65847857Y-43274524D01*
X65557571Y-43564810D01*
X65872048Y-43564810D01*
D18*
X96489524Y-63416905D02*
X96299048Y-63321667D01*
X96203809Y-63226429D01*
X96108571Y-63035952D01*
X96108571Y-62940714D01*
X96203809Y-62750238D01*
X96299048Y-62655000D01*
X96489524Y-62559762D01*
X96870476Y-62559762D01*
X97060952Y-62655000D01*
X97156190Y-62750238D01*
X97251429Y-62940714D01*
X97251429Y-63035952D01*
X97156190Y-63226429D01*
X97060952Y-63321667D01*
X96870476Y-63416905D01*
X96489524Y-63416905D01*
X96299048Y-63512143D01*
X96203809Y-63607381D01*
X96108571Y-63797857D01*
X96108571Y-64178810D01*
X96203809Y-64369286D01*
X96299048Y-64464524D01*
X96489524Y-64559762D01*
X96870476Y-64559762D01*
X97060952Y-64464524D01*
X97156190Y-64369286D01*
X97251429Y-64178810D01*
X97251429Y-63797857D01*
X97156190Y-63607381D01*
X97060952Y-63512143D01*
X96870476Y-63416905D01*
D15*
X97209715Y-70579429D02*
X97790286Y-70579429D01*
X97209715Y-65499429D02*
X97790286Y-65499429D01*
X97500000Y-65789714D02*
X97500000Y-65209143D01*
D18*
X49658333Y-62559762D02*
X50991667Y-62559762D01*
X50134524Y-64559762D01*
D15*
X49074715Y-65499428D02*
X49655286Y-65499428D01*
X49074715Y-70579428D02*
X49655286Y-70579428D01*
X49365000Y-70869713D02*
X49365000Y-70289142D01*
D18*
X50896429Y-44874762D02*
X49753571Y-44874762D01*
X50325000Y-44874762D02*
X50325000Y-42874762D01*
X50134524Y-43160476D01*
X49944048Y-43350952D01*
X49753571Y-43446190D01*
D15*
X49074715Y-45879429D02*
X49655286Y-45879429D01*
X49074715Y-50959429D02*
X49655286Y-50959429D01*
X49365000Y-51249714D02*
X49365000Y-50669143D01*
D18*
X96108571Y-43065238D02*
X96203809Y-42970000D01*
X96394286Y-42874762D01*
X96870476Y-42874762D01*
X97060952Y-42970000D01*
X97156190Y-43065238D01*
X97251429Y-43255714D01*
X97251429Y-43446190D01*
X97156190Y-43731905D01*
X96013333Y-44874762D01*
X97251429Y-44874762D01*
D15*
X97209715Y-51094429D02*
X97790286Y-51094429D01*
X97209715Y-46014429D02*
X97790286Y-46014429D01*
X97500000Y-46304714D02*
X97500000Y-45724143D01*
D18*
X96013333Y-77164762D02*
X97251429Y-77164762D01*
X96584762Y-77926667D01*
X96870476Y-77926667D01*
X97060952Y-78021905D01*
X97156190Y-78117143D01*
X97251429Y-78307619D01*
X97251429Y-78783810D01*
X97156190Y-78974286D01*
X97060952Y-79069524D01*
X96870476Y-79164762D01*
X96299048Y-79164762D01*
X96108571Y-79069524D01*
X96013333Y-78974286D01*
D15*
X97209715Y-76579428D02*
X97790286Y-76579428D01*
X97209715Y-71499428D02*
X97790286Y-71499428D01*
X97500000Y-71789713D02*
X97500000Y-71209142D01*
D18*
X50705952Y-77831429D02*
X50705952Y-79164762D01*
X50229762Y-77069524D02*
X49753571Y-78498095D01*
X50991667Y-78498095D01*
D15*
X49074715Y-71499429D02*
X49655286Y-71499429D01*
X49074715Y-76579429D02*
X49655286Y-76579429D01*
X49365000Y-76869714D02*
X49365000Y-76289143D01*
D18*
X50801190Y-57479762D02*
X49848809Y-57479762D01*
X49753571Y-58432143D01*
X49848809Y-58336905D01*
X50039286Y-58241667D01*
X50515476Y-58241667D01*
X50705952Y-58336905D01*
X50801190Y-58432143D01*
X50896429Y-58622619D01*
X50896429Y-59098810D01*
X50801190Y-59289286D01*
X50705952Y-59384524D01*
X50515476Y-59479762D01*
X50039286Y-59479762D01*
X49848809Y-59384524D01*
X49753571Y-59289286D01*
D15*
X49074715Y-51879429D02*
X49655286Y-51879429D01*
X49074715Y-56959429D02*
X49655286Y-56959429D01*
X49365000Y-57249714D02*
X49365000Y-56669143D01*
D18*
X97060952Y-57479762D02*
X96680000Y-57479762D01*
X96489524Y-57575000D01*
X96394286Y-57670238D01*
X96203809Y-57955952D01*
X96108571Y-58336905D01*
X96108571Y-59098810D01*
X96203809Y-59289286D01*
X96299048Y-59384524D01*
X96489524Y-59479762D01*
X96870476Y-59479762D01*
X97060952Y-59384524D01*
X97156190Y-59289286D01*
X97251429Y-59098810D01*
X97251429Y-58622619D01*
X97156190Y-58432143D01*
X97060952Y-58336905D01*
X96870476Y-58241667D01*
X96489524Y-58241667D01*
X96299048Y-58336905D01*
X96203809Y-58432143D01*
X96108571Y-58622619D01*
D15*
X97209715Y-57094429D02*
X97790286Y-57094429D01*
X97209715Y-52014429D02*
X97790286Y-52014429D01*
X97500000Y-52304714D02*
X97500000Y-51724143D01*
D17*
X67223429Y-72789810D02*
X66933143Y-72789810D01*
X67078286Y-72789810D02*
X67078286Y-72281810D01*
X67029905Y-72354381D01*
X66981524Y-72402762D01*
X66933143Y-72426952D01*
X67537905Y-72281810D02*
X67586286Y-72281810D01*
X67634667Y-72306000D01*
X67658858Y-72330190D01*
X67683048Y-72378571D01*
X67707239Y-72475333D01*
X67707239Y-72596286D01*
X67683048Y-72693048D01*
X67658858Y-72741429D01*
X67634667Y-72765619D01*
X67586286Y-72789810D01*
X67537905Y-72789810D01*
X67489524Y-72765619D01*
X67465334Y-72741429D01*
X67441143Y-72693048D01*
X67416953Y-72596286D01*
X67416953Y-72475333D01*
X67441143Y-72378571D01*
X67465334Y-72330190D01*
X67489524Y-72306000D01*
X67537905Y-72281810D01*
X68142668Y-72451143D02*
X68142668Y-72789810D01*
X67924953Y-72451143D02*
X67924953Y-72717238D01*
X67949144Y-72765619D01*
X67997525Y-72789810D01*
X68070096Y-72789810D01*
X68118477Y-72765619D01*
X68142668Y-72741429D01*
X69860190Y-70636857D02*
X69836000Y-70612667D01*
X69811810Y-70564286D01*
X69811810Y-70443333D01*
X69836000Y-70394952D01*
X69860190Y-70370762D01*
X69908571Y-70346571D01*
X69956952Y-70346571D01*
X70029524Y-70370762D01*
X70319810Y-70661048D01*
X70319810Y-70346571D01*
X69860190Y-70153047D02*
X69836000Y-70128857D01*
X69811810Y-70080476D01*
X69811810Y-69959523D01*
X69836000Y-69911142D01*
X69860190Y-69886952D01*
X69908571Y-69862761D01*
X69956952Y-69862761D01*
X70029524Y-69886952D01*
X70319810Y-70177238D01*
X70319810Y-69862761D01*
X69981143Y-69427332D02*
X70319810Y-69427332D01*
X69981143Y-69645047D02*
X70247238Y-69645047D01*
X70295619Y-69620856D01*
X70319810Y-69572475D01*
X70319810Y-69499904D01*
X70295619Y-69451523D01*
X70271429Y-69427332D01*
X72261095Y-70884810D02*
X72019190Y-70884810D01*
X72019190Y-70376810D01*
X72406238Y-70860619D02*
X72478809Y-70884810D01*
X72599762Y-70884810D01*
X72648143Y-70860619D01*
X72672333Y-70836429D01*
X72696524Y-70788048D01*
X72696524Y-70739667D01*
X72672333Y-70691286D01*
X72648143Y-70667095D01*
X72599762Y-70642905D01*
X72503000Y-70618714D01*
X72454619Y-70594524D01*
X72430428Y-70570333D01*
X72406238Y-70521952D01*
X72406238Y-70473571D01*
X72430428Y-70425190D01*
X72454619Y-70401000D01*
X72503000Y-70376810D01*
X72623952Y-70376810D01*
X72696524Y-70401000D01*
X72914238Y-70884810D02*
X72914238Y-70376810D01*
X73083572Y-70739667D01*
X73252905Y-70376810D01*
X73252905Y-70884810D01*
X73470619Y-70739667D02*
X73712524Y-70739667D01*
X73422238Y-70884810D02*
X73591571Y-70376810D01*
X73760905Y-70884810D01*
X74172143Y-70884810D02*
X73930238Y-70884810D01*
X73930238Y-70376810D01*
X74583381Y-70884810D02*
X74341476Y-70884810D01*
X74341476Y-70376810D01*
X72224810Y-75644286D02*
X72224810Y-75934572D01*
X72224810Y-75789429D02*
X71716810Y-75789429D01*
X71789381Y-75837810D01*
X71837762Y-75886191D01*
X71861952Y-75934572D01*
X71716810Y-75329810D02*
X71716810Y-75281429D01*
X71741000Y-75233048D01*
X71765190Y-75208857D01*
X71813571Y-75184667D01*
X71910333Y-75160476D01*
X72031286Y-75160476D01*
X72128048Y-75184667D01*
X72176429Y-75208857D01*
X72200619Y-75233048D01*
X72224810Y-75281429D01*
X72224810Y-75329810D01*
X72200619Y-75378191D01*
X72176429Y-75402381D01*
X72128048Y-75426572D01*
X72031286Y-75450762D01*
X71910333Y-75450762D01*
X71813571Y-75426572D01*
X71765190Y-75402381D01*
X71741000Y-75378191D01*
X71716810Y-75329810D01*
X71716810Y-74846000D02*
X71716810Y-74797619D01*
X71741000Y-74749238D01*
X71765190Y-74725047D01*
X71813571Y-74700857D01*
X71910333Y-74676666D01*
X72031286Y-74676666D01*
X72128048Y-74700857D01*
X72176429Y-74725047D01*
X72200619Y-74749238D01*
X72224810Y-74797619D01*
X72224810Y-74846000D01*
X72200619Y-74894381D01*
X72176429Y-74918571D01*
X72128048Y-74942762D01*
X72031286Y-74966952D01*
X71910333Y-74966952D01*
X71813571Y-74942762D01*
X71765190Y-74918571D01*
X71741000Y-74894381D01*
X71716810Y-74846000D01*
X72224810Y-74458952D02*
X71716810Y-74458952D01*
X72031286Y-74410571D02*
X72224810Y-74265428D01*
X71886143Y-74265428D02*
X72079667Y-74458952D01*
M02*
