G04 (created by PCBNEW (2013-dec-23)-stable) date Mon 09 Jun 2014 07:47:59 PM MDT*
%MOIN*%
G04 Gerber Fmt 3.4, Leading zero omitted, Abs format*
%FSLAX34Y34*%
G01*
G70*
G90*
G04 APERTURE LIST*
%ADD10C,0.00590551*%
%ADD11C,0.005*%
%ADD12C,0.011811*%
%ADD13C,0.00787402*%
%ADD14C,0.0039*%
%ADD15C,0.006*%
%ADD16C,0.0028*%
%ADD17C,0.0001*%
%ADD18C,0.0043*%
%ADD19C,0.008*%
G04 APERTURE END LIST*
G54D10*
G54D11*
X22402Y-15640D02*
X22421Y-15630D01*
X22450Y-15630D01*
X22478Y-15640D01*
X22497Y-15659D01*
X22507Y-15678D01*
X22516Y-15716D01*
X22516Y-15745D01*
X22507Y-15783D01*
X22497Y-15802D01*
X22478Y-15821D01*
X22450Y-15830D01*
X22430Y-15830D01*
X22402Y-15821D01*
X22392Y-15811D01*
X22392Y-15745D01*
X22430Y-15745D01*
X22307Y-15830D02*
X22307Y-15630D01*
X22192Y-15830D01*
X22192Y-15630D01*
X22097Y-15830D02*
X22097Y-15630D01*
X22050Y-15630D01*
X22021Y-15640D01*
X22002Y-15659D01*
X21992Y-15678D01*
X21983Y-15716D01*
X21983Y-15745D01*
X21992Y-15783D01*
X22002Y-15802D01*
X22021Y-15821D01*
X22050Y-15830D01*
X22097Y-15830D01*
X21516Y-15630D02*
X21450Y-15830D01*
X21383Y-15630D01*
X21202Y-15811D02*
X21211Y-15821D01*
X21240Y-15830D01*
X21259Y-15830D01*
X21288Y-15821D01*
X21307Y-15802D01*
X21316Y-15783D01*
X21326Y-15745D01*
X21326Y-15716D01*
X21316Y-15678D01*
X21307Y-15659D01*
X21288Y-15640D01*
X21259Y-15630D01*
X21240Y-15630D01*
X21211Y-15640D01*
X21202Y-15650D01*
X21002Y-15811D02*
X21011Y-15821D01*
X21040Y-15830D01*
X21059Y-15830D01*
X21088Y-15821D01*
X21107Y-15802D01*
X21116Y-15783D01*
X21126Y-15745D01*
X21126Y-15716D01*
X21116Y-15678D01*
X21107Y-15659D01*
X21088Y-15640D01*
X21059Y-15630D01*
X21040Y-15630D01*
X21011Y-15640D01*
X21002Y-15650D01*
X20350Y-15830D02*
X20350Y-15630D01*
X20140Y-15830D02*
X20207Y-15735D01*
X20254Y-15830D02*
X20254Y-15630D01*
X20178Y-15630D01*
X20159Y-15640D01*
X20149Y-15650D01*
X20140Y-15669D01*
X20140Y-15697D01*
X20149Y-15716D01*
X20159Y-15726D01*
X20178Y-15735D01*
X20254Y-15735D01*
X15019Y-14464D02*
X15219Y-14464D01*
X15219Y-14416D01*
X15209Y-14388D01*
X15190Y-14369D01*
X15171Y-14359D01*
X15133Y-14350D01*
X15104Y-14350D01*
X15066Y-14359D01*
X15047Y-14369D01*
X15028Y-14388D01*
X15019Y-14416D01*
X15019Y-14464D01*
X15219Y-14292D02*
X15219Y-14178D01*
X15019Y-14235D02*
X15219Y-14235D01*
X15076Y-14121D02*
X15076Y-14026D01*
X15019Y-14140D02*
X15219Y-14073D01*
X15019Y-14007D01*
X15219Y-12516D02*
X15019Y-12450D01*
X15219Y-12383D01*
X15038Y-12202D02*
X15028Y-12211D01*
X15019Y-12240D01*
X15019Y-12259D01*
X15028Y-12288D01*
X15047Y-12307D01*
X15066Y-12316D01*
X15104Y-12326D01*
X15133Y-12326D01*
X15171Y-12316D01*
X15190Y-12307D01*
X15209Y-12288D01*
X15219Y-12259D01*
X15219Y-12240D01*
X15209Y-12211D01*
X15200Y-12202D01*
X15038Y-12002D02*
X15028Y-12011D01*
X15019Y-12040D01*
X15019Y-12059D01*
X15028Y-12088D01*
X15047Y-12107D01*
X15066Y-12116D01*
X15104Y-12126D01*
X15133Y-12126D01*
X15171Y-12116D01*
X15190Y-12107D01*
X15209Y-12088D01*
X15219Y-12059D01*
X15219Y-12040D01*
X15209Y-12011D01*
X15200Y-12002D01*
X15209Y-13402D02*
X15219Y-13421D01*
X15219Y-13450D01*
X15209Y-13478D01*
X15190Y-13497D01*
X15171Y-13507D01*
X15133Y-13516D01*
X15104Y-13516D01*
X15066Y-13507D01*
X15047Y-13497D01*
X15028Y-13478D01*
X15019Y-13450D01*
X15019Y-13430D01*
X15028Y-13402D01*
X15038Y-13392D01*
X15104Y-13392D01*
X15104Y-13430D01*
X15019Y-13307D02*
X15219Y-13307D01*
X15019Y-13192D01*
X15219Y-13192D01*
X15019Y-13097D02*
X15219Y-13097D01*
X15219Y-13050D01*
X15209Y-13021D01*
X15190Y-13002D01*
X15171Y-12992D01*
X15133Y-12983D01*
X15104Y-12983D01*
X15066Y-12992D01*
X15047Y-13002D01*
X15028Y-13021D01*
X15019Y-13050D01*
X15019Y-13097D01*
G54D12*
X15525Y-11364D02*
X15974Y-11364D01*
X14275Y-11364D02*
X14724Y-11364D01*
X14500Y-11589D02*
X14500Y-11139D01*
G54D11*
X29038Y-18580D02*
X29152Y-18580D01*
X29095Y-18580D02*
X29095Y-18380D01*
X29114Y-18409D01*
X29133Y-18428D01*
X29152Y-18438D01*
X28866Y-18380D02*
X28904Y-18380D01*
X28923Y-18390D01*
X28933Y-18400D01*
X28952Y-18428D01*
X28961Y-18466D01*
X28961Y-18542D01*
X28952Y-18561D01*
X28942Y-18571D01*
X28923Y-18580D01*
X28885Y-18580D01*
X28866Y-18571D01*
X28857Y-18561D01*
X28847Y-18542D01*
X28847Y-18495D01*
X28857Y-18476D01*
X28866Y-18466D01*
X28885Y-18457D01*
X28923Y-18457D01*
X28942Y-18466D01*
X28952Y-18476D01*
X28961Y-18495D01*
X28038Y-18580D02*
X28152Y-18580D01*
X28095Y-18580D02*
X28095Y-18380D01*
X28114Y-18409D01*
X28133Y-18428D01*
X28152Y-18438D01*
X27857Y-18380D02*
X27952Y-18380D01*
X27961Y-18476D01*
X27952Y-18466D01*
X27933Y-18457D01*
X27885Y-18457D01*
X27866Y-18466D01*
X27857Y-18476D01*
X27847Y-18495D01*
X27847Y-18542D01*
X27857Y-18561D01*
X27866Y-18571D01*
X27885Y-18580D01*
X27933Y-18580D01*
X27952Y-18571D01*
X27961Y-18561D01*
X27038Y-18580D02*
X27152Y-18580D01*
X27095Y-18580D02*
X27095Y-18380D01*
X27114Y-18409D01*
X27133Y-18428D01*
X27152Y-18438D01*
X26866Y-18447D02*
X26866Y-18580D01*
X26914Y-18371D02*
X26961Y-18514D01*
X26838Y-18514D01*
X26038Y-18580D02*
X26152Y-18580D01*
X26095Y-18580D02*
X26095Y-18380D01*
X26114Y-18409D01*
X26133Y-18428D01*
X26152Y-18438D01*
X25971Y-18380D02*
X25847Y-18380D01*
X25914Y-18457D01*
X25885Y-18457D01*
X25866Y-18466D01*
X25857Y-18476D01*
X25847Y-18495D01*
X25847Y-18542D01*
X25857Y-18561D01*
X25866Y-18571D01*
X25885Y-18580D01*
X25942Y-18580D01*
X25961Y-18571D01*
X25971Y-18561D01*
X25038Y-18580D02*
X25152Y-18580D01*
X25095Y-18580D02*
X25095Y-18380D01*
X25114Y-18409D01*
X25133Y-18428D01*
X25152Y-18438D01*
X24961Y-18400D02*
X24952Y-18390D01*
X24933Y-18380D01*
X24885Y-18380D01*
X24866Y-18390D01*
X24857Y-18400D01*
X24847Y-18419D01*
X24847Y-18438D01*
X24857Y-18466D01*
X24971Y-18580D01*
X24847Y-18580D01*
X24038Y-18580D02*
X24152Y-18580D01*
X24095Y-18580D02*
X24095Y-18380D01*
X24114Y-18409D01*
X24133Y-18428D01*
X24152Y-18438D01*
X23847Y-18580D02*
X23961Y-18580D01*
X23904Y-18580D02*
X23904Y-18380D01*
X23923Y-18409D01*
X23942Y-18428D01*
X23961Y-18438D01*
X23038Y-18580D02*
X23152Y-18580D01*
X23095Y-18580D02*
X23095Y-18380D01*
X23114Y-18409D01*
X23133Y-18428D01*
X23152Y-18438D01*
X22914Y-18380D02*
X22895Y-18380D01*
X22876Y-18390D01*
X22866Y-18400D01*
X22857Y-18419D01*
X22847Y-18457D01*
X22847Y-18504D01*
X22857Y-18542D01*
X22866Y-18561D01*
X22876Y-18571D01*
X22895Y-18580D01*
X22914Y-18580D01*
X22933Y-18571D01*
X22942Y-18561D01*
X22952Y-18542D01*
X22961Y-18504D01*
X22961Y-18457D01*
X22952Y-18419D01*
X22942Y-18400D01*
X22933Y-18390D01*
X22914Y-18380D01*
X22038Y-18580D02*
X22000Y-18580D01*
X21980Y-18571D01*
X21971Y-18561D01*
X21952Y-18533D01*
X21942Y-18495D01*
X21942Y-18419D01*
X21952Y-18400D01*
X21961Y-18390D01*
X21980Y-18380D01*
X22019Y-18380D01*
X22038Y-18390D01*
X22047Y-18400D01*
X22057Y-18419D01*
X22057Y-18466D01*
X22047Y-18485D01*
X22038Y-18495D01*
X22019Y-18504D01*
X21980Y-18504D01*
X21961Y-18495D01*
X21952Y-18485D01*
X21942Y-18466D01*
X21019Y-18466D02*
X21038Y-18457D01*
X21047Y-18447D01*
X21057Y-18428D01*
X21057Y-18419D01*
X21047Y-18400D01*
X21038Y-18390D01*
X21019Y-18380D01*
X20980Y-18380D01*
X20961Y-18390D01*
X20952Y-18400D01*
X20942Y-18419D01*
X20942Y-18428D01*
X20952Y-18447D01*
X20961Y-18457D01*
X20980Y-18466D01*
X21019Y-18466D01*
X21038Y-18476D01*
X21047Y-18485D01*
X21057Y-18504D01*
X21057Y-18542D01*
X21047Y-18561D01*
X21038Y-18571D01*
X21019Y-18580D01*
X20980Y-18580D01*
X20961Y-18571D01*
X20952Y-18561D01*
X20942Y-18542D01*
X20942Y-18504D01*
X20952Y-18485D01*
X20961Y-18476D01*
X20980Y-18466D01*
X20066Y-18380D02*
X19933Y-18380D01*
X20019Y-18580D01*
X18961Y-18380D02*
X19000Y-18380D01*
X19019Y-18390D01*
X19028Y-18400D01*
X19047Y-18428D01*
X19057Y-18466D01*
X19057Y-18542D01*
X19047Y-18561D01*
X19038Y-18571D01*
X19019Y-18580D01*
X18980Y-18580D01*
X18961Y-18571D01*
X18952Y-18561D01*
X18942Y-18542D01*
X18942Y-18495D01*
X18952Y-18476D01*
X18961Y-18466D01*
X18980Y-18457D01*
X19019Y-18457D01*
X19038Y-18466D01*
X19047Y-18476D01*
X19057Y-18495D01*
X17952Y-18380D02*
X18047Y-18380D01*
X18057Y-18476D01*
X18047Y-18466D01*
X18028Y-18457D01*
X17980Y-18457D01*
X17961Y-18466D01*
X17952Y-18476D01*
X17942Y-18495D01*
X17942Y-18542D01*
X17952Y-18561D01*
X17961Y-18571D01*
X17980Y-18580D01*
X18028Y-18580D01*
X18047Y-18571D01*
X18057Y-18561D01*
X16961Y-18447D02*
X16961Y-18580D01*
X17009Y-18371D02*
X17057Y-18514D01*
X16933Y-18514D01*
X16066Y-18380D02*
X15942Y-18380D01*
X16009Y-18457D01*
X15980Y-18457D01*
X15961Y-18466D01*
X15952Y-18476D01*
X15942Y-18495D01*
X15942Y-18542D01*
X15952Y-18561D01*
X15961Y-18571D01*
X15980Y-18580D01*
X16038Y-18580D01*
X16057Y-18571D01*
X16066Y-18561D01*
X15057Y-18400D02*
X15047Y-18390D01*
X15028Y-18380D01*
X14980Y-18380D01*
X14961Y-18390D01*
X14952Y-18400D01*
X14942Y-18419D01*
X14942Y-18438D01*
X14952Y-18466D01*
X15066Y-18580D01*
X14942Y-18580D01*
X29152Y-23600D02*
X29142Y-23609D01*
X29123Y-23619D01*
X29076Y-23619D01*
X29057Y-23609D01*
X29047Y-23600D01*
X29038Y-23580D01*
X29038Y-23561D01*
X29047Y-23533D01*
X29161Y-23419D01*
X29038Y-23419D01*
X28971Y-23619D02*
X28838Y-23619D01*
X28923Y-23419D01*
X28038Y-23419D02*
X28152Y-23419D01*
X28095Y-23419D02*
X28095Y-23619D01*
X28114Y-23590D01*
X28133Y-23571D01*
X28152Y-23561D01*
X27923Y-23533D02*
X27942Y-23542D01*
X27952Y-23552D01*
X27961Y-23571D01*
X27961Y-23580D01*
X27952Y-23600D01*
X27942Y-23609D01*
X27923Y-23619D01*
X27885Y-23619D01*
X27866Y-23609D01*
X27857Y-23600D01*
X27847Y-23580D01*
X27847Y-23571D01*
X27857Y-23552D01*
X27866Y-23542D01*
X27885Y-23533D01*
X27923Y-23533D01*
X27942Y-23523D01*
X27952Y-23514D01*
X27961Y-23495D01*
X27961Y-23457D01*
X27952Y-23438D01*
X27942Y-23428D01*
X27923Y-23419D01*
X27885Y-23419D01*
X27866Y-23428D01*
X27857Y-23438D01*
X27847Y-23457D01*
X27847Y-23495D01*
X27857Y-23514D01*
X27866Y-23523D01*
X27885Y-23533D01*
X27038Y-23419D02*
X27152Y-23419D01*
X27095Y-23419D02*
X27095Y-23619D01*
X27114Y-23590D01*
X27133Y-23571D01*
X27152Y-23561D01*
X26942Y-23419D02*
X26904Y-23419D01*
X26885Y-23428D01*
X26876Y-23438D01*
X26857Y-23466D01*
X26847Y-23504D01*
X26847Y-23580D01*
X26857Y-23600D01*
X26866Y-23609D01*
X26885Y-23619D01*
X26923Y-23619D01*
X26942Y-23609D01*
X26952Y-23600D01*
X26961Y-23580D01*
X26961Y-23533D01*
X26952Y-23514D01*
X26942Y-23504D01*
X26923Y-23495D01*
X26885Y-23495D01*
X26866Y-23504D01*
X26857Y-23514D01*
X26847Y-23533D01*
X26152Y-23600D02*
X26142Y-23609D01*
X26123Y-23619D01*
X26076Y-23619D01*
X26057Y-23609D01*
X26047Y-23600D01*
X26038Y-23580D01*
X26038Y-23561D01*
X26047Y-23533D01*
X26161Y-23419D01*
X26038Y-23419D01*
X25914Y-23619D02*
X25895Y-23619D01*
X25876Y-23609D01*
X25866Y-23600D01*
X25857Y-23580D01*
X25847Y-23542D01*
X25847Y-23495D01*
X25857Y-23457D01*
X25866Y-23438D01*
X25876Y-23428D01*
X25895Y-23419D01*
X25914Y-23419D01*
X25933Y-23428D01*
X25942Y-23438D01*
X25952Y-23457D01*
X25961Y-23495D01*
X25961Y-23542D01*
X25952Y-23580D01*
X25942Y-23600D01*
X25933Y-23609D01*
X25914Y-23619D01*
X25152Y-23600D02*
X25142Y-23609D01*
X25123Y-23619D01*
X25076Y-23619D01*
X25057Y-23609D01*
X25047Y-23600D01*
X25038Y-23580D01*
X25038Y-23561D01*
X25047Y-23533D01*
X25161Y-23419D01*
X25038Y-23419D01*
X24847Y-23419D02*
X24961Y-23419D01*
X24904Y-23419D02*
X24904Y-23619D01*
X24923Y-23590D01*
X24942Y-23571D01*
X24961Y-23561D01*
X24152Y-23600D02*
X24142Y-23609D01*
X24123Y-23619D01*
X24076Y-23619D01*
X24057Y-23609D01*
X24047Y-23600D01*
X24038Y-23580D01*
X24038Y-23561D01*
X24047Y-23533D01*
X24161Y-23419D01*
X24038Y-23419D01*
X23961Y-23600D02*
X23952Y-23609D01*
X23933Y-23619D01*
X23885Y-23619D01*
X23866Y-23609D01*
X23857Y-23600D01*
X23847Y-23580D01*
X23847Y-23561D01*
X23857Y-23533D01*
X23971Y-23419D01*
X23847Y-23419D01*
X23152Y-23600D02*
X23142Y-23609D01*
X23123Y-23619D01*
X23076Y-23619D01*
X23057Y-23609D01*
X23047Y-23600D01*
X23038Y-23580D01*
X23038Y-23561D01*
X23047Y-23533D01*
X23161Y-23419D01*
X23038Y-23419D01*
X22971Y-23619D02*
X22847Y-23619D01*
X22914Y-23542D01*
X22885Y-23542D01*
X22866Y-23533D01*
X22857Y-23523D01*
X22847Y-23504D01*
X22847Y-23457D01*
X22857Y-23438D01*
X22866Y-23428D01*
X22885Y-23419D01*
X22942Y-23419D01*
X22961Y-23428D01*
X22971Y-23438D01*
X22152Y-23600D02*
X22142Y-23609D01*
X22123Y-23619D01*
X22076Y-23619D01*
X22057Y-23609D01*
X22047Y-23600D01*
X22038Y-23580D01*
X22038Y-23561D01*
X22047Y-23533D01*
X22161Y-23419D01*
X22038Y-23419D01*
X21866Y-23552D02*
X21866Y-23419D01*
X21914Y-23628D02*
X21961Y-23485D01*
X21838Y-23485D01*
X21152Y-23600D02*
X21142Y-23609D01*
X21123Y-23619D01*
X21076Y-23619D01*
X21057Y-23609D01*
X21047Y-23600D01*
X21038Y-23580D01*
X21038Y-23561D01*
X21047Y-23533D01*
X21161Y-23419D01*
X21038Y-23419D01*
X20857Y-23619D02*
X20952Y-23619D01*
X20961Y-23523D01*
X20952Y-23533D01*
X20933Y-23542D01*
X20885Y-23542D01*
X20866Y-23533D01*
X20857Y-23523D01*
X20847Y-23504D01*
X20847Y-23457D01*
X20857Y-23438D01*
X20866Y-23428D01*
X20885Y-23419D01*
X20933Y-23419D01*
X20952Y-23428D01*
X20961Y-23438D01*
X20152Y-23600D02*
X20142Y-23609D01*
X20123Y-23619D01*
X20076Y-23619D01*
X20057Y-23609D01*
X20047Y-23600D01*
X20038Y-23580D01*
X20038Y-23561D01*
X20047Y-23533D01*
X20161Y-23419D01*
X20038Y-23419D01*
X19866Y-23619D02*
X19904Y-23619D01*
X19923Y-23609D01*
X19933Y-23600D01*
X19952Y-23571D01*
X19961Y-23533D01*
X19961Y-23457D01*
X19952Y-23438D01*
X19942Y-23428D01*
X19923Y-23419D01*
X19885Y-23419D01*
X19866Y-23428D01*
X19857Y-23438D01*
X19847Y-23457D01*
X19847Y-23504D01*
X19857Y-23523D01*
X19866Y-23533D01*
X19885Y-23542D01*
X19923Y-23542D01*
X19942Y-23533D01*
X19952Y-23523D01*
X19961Y-23504D01*
X15071Y-19678D02*
X15080Y-19707D01*
X15080Y-19754D01*
X15071Y-19773D01*
X15061Y-19783D01*
X15042Y-19792D01*
X15023Y-19792D01*
X15004Y-19783D01*
X14995Y-19773D01*
X14985Y-19754D01*
X14976Y-19716D01*
X14966Y-19697D01*
X14957Y-19688D01*
X14938Y-19678D01*
X14919Y-19678D01*
X14900Y-19688D01*
X14890Y-19697D01*
X14880Y-19716D01*
X14880Y-19764D01*
X14890Y-19792D01*
X15080Y-19907D02*
X15071Y-19888D01*
X15061Y-19878D01*
X15042Y-19869D01*
X14985Y-19869D01*
X14966Y-19878D01*
X14957Y-19888D01*
X14947Y-19907D01*
X14947Y-19935D01*
X14957Y-19954D01*
X14966Y-19964D01*
X14985Y-19973D01*
X15042Y-19973D01*
X15061Y-19964D01*
X15071Y-19954D01*
X15080Y-19935D01*
X15080Y-19907D01*
X15080Y-20088D02*
X15071Y-20069D01*
X15052Y-20059D01*
X14880Y-20059D01*
X15080Y-20250D02*
X14880Y-20250D01*
X15071Y-20250D02*
X15080Y-20230D01*
X15080Y-20192D01*
X15071Y-20173D01*
X15061Y-20164D01*
X15042Y-20154D01*
X14985Y-20154D01*
X14966Y-20164D01*
X14957Y-20173D01*
X14947Y-20192D01*
X14947Y-20230D01*
X14957Y-20250D01*
X15071Y-20421D02*
X15080Y-20402D01*
X15080Y-20364D01*
X15071Y-20345D01*
X15052Y-20335D01*
X14976Y-20335D01*
X14957Y-20345D01*
X14947Y-20364D01*
X14947Y-20402D01*
X14957Y-20421D01*
X14976Y-20430D01*
X14995Y-20430D01*
X15014Y-20335D01*
X15080Y-20516D02*
X14947Y-20516D01*
X14985Y-20516D02*
X14966Y-20526D01*
X14957Y-20535D01*
X14947Y-20554D01*
X14947Y-20573D01*
X14976Y-20859D02*
X14985Y-20888D01*
X14995Y-20897D01*
X15014Y-20907D01*
X15042Y-20907D01*
X15061Y-20897D01*
X15071Y-20888D01*
X15080Y-20869D01*
X15080Y-20792D01*
X14880Y-20792D01*
X14880Y-20859D01*
X14890Y-20878D01*
X14900Y-20888D01*
X14919Y-20897D01*
X14938Y-20897D01*
X14957Y-20888D01*
X14966Y-20878D01*
X14976Y-20859D01*
X14976Y-20792D01*
X15080Y-20992D02*
X14947Y-20992D01*
X14985Y-20992D02*
X14966Y-21002D01*
X14957Y-21011D01*
X14947Y-21030D01*
X14947Y-21050D01*
X15080Y-21116D02*
X14947Y-21116D01*
X14880Y-21116D02*
X14890Y-21107D01*
X14900Y-21116D01*
X14890Y-21126D01*
X14880Y-21116D01*
X14900Y-21116D01*
X15080Y-21297D02*
X14880Y-21297D01*
X15071Y-21297D02*
X15080Y-21278D01*
X15080Y-21240D01*
X15071Y-21221D01*
X15061Y-21211D01*
X15042Y-21202D01*
X14985Y-21202D01*
X14966Y-21211D01*
X14957Y-21221D01*
X14947Y-21240D01*
X14947Y-21278D01*
X14957Y-21297D01*
X14947Y-21478D02*
X15109Y-21478D01*
X15128Y-21469D01*
X15138Y-21459D01*
X15147Y-21440D01*
X15147Y-21411D01*
X15138Y-21392D01*
X15071Y-21478D02*
X15080Y-21459D01*
X15080Y-21421D01*
X15071Y-21402D01*
X15061Y-21392D01*
X15042Y-21383D01*
X14985Y-21383D01*
X14966Y-21392D01*
X14957Y-21402D01*
X14947Y-21421D01*
X14947Y-21459D01*
X14957Y-21478D01*
X15071Y-21650D02*
X15080Y-21630D01*
X15080Y-21592D01*
X15071Y-21573D01*
X15052Y-21564D01*
X14976Y-21564D01*
X14957Y-21573D01*
X14947Y-21592D01*
X14947Y-21630D01*
X14957Y-21650D01*
X14976Y-21659D01*
X14995Y-21659D01*
X15014Y-21564D01*
X15071Y-21735D02*
X15080Y-21754D01*
X15080Y-21792D01*
X15071Y-21811D01*
X15052Y-21821D01*
X15042Y-21821D01*
X15023Y-21811D01*
X15014Y-21792D01*
X15014Y-21764D01*
X15004Y-21745D01*
X14985Y-21735D01*
X14976Y-21735D01*
X14957Y-21745D01*
X14947Y-21764D01*
X14947Y-21792D01*
X14957Y-21811D01*
X15487Y-19892D02*
X15477Y-19883D01*
X15449Y-19864D01*
X15430Y-19854D01*
X15401Y-19845D01*
X15353Y-19835D01*
X15315Y-19835D01*
X15268Y-19845D01*
X15239Y-19854D01*
X15220Y-19864D01*
X15191Y-19883D01*
X15182Y-19892D01*
X15353Y-19959D02*
X15353Y-20054D01*
X15410Y-19940D02*
X15210Y-20007D01*
X15410Y-20073D01*
X15210Y-20111D02*
X15210Y-20226D01*
X15410Y-20169D02*
X15210Y-20169D01*
X15410Y-20302D02*
X15410Y-20340D01*
X15401Y-20359D01*
X15391Y-20369D01*
X15363Y-20388D01*
X15325Y-20397D01*
X15249Y-20397D01*
X15230Y-20388D01*
X15220Y-20378D01*
X15210Y-20359D01*
X15210Y-20321D01*
X15220Y-20302D01*
X15230Y-20292D01*
X15249Y-20283D01*
X15296Y-20283D01*
X15315Y-20292D01*
X15325Y-20302D01*
X15334Y-20321D01*
X15334Y-20359D01*
X15325Y-20378D01*
X15315Y-20388D01*
X15296Y-20397D01*
X15210Y-20521D02*
X15210Y-20540D01*
X15220Y-20559D01*
X15230Y-20569D01*
X15249Y-20578D01*
X15287Y-20588D01*
X15334Y-20588D01*
X15372Y-20578D01*
X15391Y-20569D01*
X15401Y-20559D01*
X15410Y-20540D01*
X15410Y-20521D01*
X15401Y-20502D01*
X15391Y-20492D01*
X15372Y-20483D01*
X15334Y-20473D01*
X15287Y-20473D01*
X15249Y-20483D01*
X15230Y-20492D01*
X15220Y-20502D01*
X15210Y-20521D01*
X15410Y-20826D02*
X15277Y-20826D01*
X15296Y-20826D02*
X15287Y-20835D01*
X15277Y-20854D01*
X15277Y-20883D01*
X15287Y-20902D01*
X15306Y-20911D01*
X15410Y-20911D01*
X15306Y-20911D02*
X15287Y-20921D01*
X15277Y-20940D01*
X15277Y-20969D01*
X15287Y-20988D01*
X15306Y-20997D01*
X15410Y-20997D01*
X15410Y-21121D02*
X15401Y-21102D01*
X15391Y-21092D01*
X15372Y-21083D01*
X15315Y-21083D01*
X15296Y-21092D01*
X15287Y-21102D01*
X15277Y-21121D01*
X15277Y-21150D01*
X15287Y-21169D01*
X15296Y-21178D01*
X15315Y-21188D01*
X15372Y-21188D01*
X15391Y-21178D01*
X15401Y-21169D01*
X15410Y-21150D01*
X15410Y-21121D01*
X15410Y-21359D02*
X15210Y-21359D01*
X15401Y-21359D02*
X15410Y-21340D01*
X15410Y-21302D01*
X15401Y-21283D01*
X15391Y-21273D01*
X15372Y-21264D01*
X15315Y-21264D01*
X15296Y-21273D01*
X15287Y-21283D01*
X15277Y-21302D01*
X15277Y-21340D01*
X15287Y-21359D01*
X15401Y-21530D02*
X15410Y-21511D01*
X15410Y-21473D01*
X15401Y-21454D01*
X15382Y-21445D01*
X15306Y-21445D01*
X15287Y-21454D01*
X15277Y-21473D01*
X15277Y-21511D01*
X15287Y-21530D01*
X15306Y-21540D01*
X15325Y-21540D01*
X15344Y-21445D01*
X15487Y-21607D02*
X15477Y-21616D01*
X15449Y-21635D01*
X15430Y-21645D01*
X15401Y-21654D01*
X15353Y-21664D01*
X15315Y-21664D01*
X15268Y-21654D01*
X15239Y-21645D01*
X15220Y-21635D01*
X15191Y-21616D01*
X15182Y-21607D01*
G54D13*
X14750Y-23250D02*
X14750Y-22000D01*
X15750Y-23250D02*
X14750Y-23250D01*
X15750Y-22000D02*
X15750Y-23250D01*
X14750Y-22000D02*
X15750Y-22000D01*
X14000Y-21500D02*
X14000Y-20500D01*
X14500Y-21500D02*
X14000Y-21500D01*
X14500Y-20500D02*
X14500Y-21500D01*
X14000Y-20500D02*
X14500Y-20500D01*
G54D11*
X19152Y-23600D02*
X19142Y-23609D01*
X19123Y-23619D01*
X19076Y-23619D01*
X19057Y-23609D01*
X19047Y-23600D01*
X19038Y-23580D01*
X19038Y-23561D01*
X19047Y-23533D01*
X19161Y-23419D01*
X19038Y-23419D01*
X18971Y-23619D02*
X18838Y-23619D01*
X18923Y-23419D01*
X18152Y-23600D02*
X18142Y-23609D01*
X18123Y-23619D01*
X18076Y-23619D01*
X18057Y-23609D01*
X18047Y-23600D01*
X18038Y-23580D01*
X18038Y-23561D01*
X18047Y-23533D01*
X18161Y-23419D01*
X18038Y-23419D01*
X17923Y-23533D02*
X17942Y-23542D01*
X17952Y-23552D01*
X17961Y-23571D01*
X17961Y-23580D01*
X17952Y-23600D01*
X17942Y-23609D01*
X17923Y-23619D01*
X17885Y-23619D01*
X17866Y-23609D01*
X17857Y-23600D01*
X17847Y-23580D01*
X17847Y-23571D01*
X17857Y-23552D01*
X17866Y-23542D01*
X17885Y-23533D01*
X17923Y-23533D01*
X17942Y-23523D01*
X17952Y-23514D01*
X17961Y-23495D01*
X17961Y-23457D01*
X17952Y-23438D01*
X17942Y-23428D01*
X17923Y-23419D01*
X17885Y-23419D01*
X17866Y-23428D01*
X17857Y-23438D01*
X17847Y-23457D01*
X17847Y-23495D01*
X17857Y-23514D01*
X17866Y-23523D01*
X17885Y-23533D01*
X17152Y-23600D02*
X17142Y-23609D01*
X17123Y-23619D01*
X17076Y-23619D01*
X17057Y-23609D01*
X17047Y-23600D01*
X17038Y-23580D01*
X17038Y-23561D01*
X17047Y-23533D01*
X17161Y-23419D01*
X17038Y-23419D01*
X16942Y-23419D02*
X16904Y-23419D01*
X16885Y-23428D01*
X16876Y-23438D01*
X16857Y-23466D01*
X16847Y-23504D01*
X16847Y-23580D01*
X16857Y-23600D01*
X16866Y-23609D01*
X16885Y-23619D01*
X16923Y-23619D01*
X16942Y-23609D01*
X16952Y-23600D01*
X16961Y-23580D01*
X16961Y-23533D01*
X16952Y-23514D01*
X16942Y-23504D01*
X16923Y-23495D01*
X16885Y-23495D01*
X16866Y-23504D01*
X16857Y-23514D01*
X16847Y-23533D01*
X16161Y-23619D02*
X16038Y-23619D01*
X16104Y-23542D01*
X16076Y-23542D01*
X16057Y-23533D01*
X16047Y-23523D01*
X16038Y-23504D01*
X16038Y-23457D01*
X16047Y-23438D01*
X16057Y-23428D01*
X16076Y-23419D01*
X16133Y-23419D01*
X16152Y-23428D01*
X16161Y-23438D01*
X15914Y-23619D02*
X15895Y-23619D01*
X15876Y-23609D01*
X15866Y-23600D01*
X15857Y-23580D01*
X15847Y-23542D01*
X15847Y-23495D01*
X15857Y-23457D01*
X15866Y-23438D01*
X15876Y-23428D01*
X15895Y-23419D01*
X15914Y-23419D01*
X15933Y-23428D01*
X15942Y-23438D01*
X15952Y-23457D01*
X15961Y-23495D01*
X15961Y-23542D01*
X15952Y-23580D01*
X15942Y-23600D01*
X15933Y-23609D01*
X15914Y-23619D01*
X15161Y-23619D02*
X15038Y-23619D01*
X15104Y-23542D01*
X15076Y-23542D01*
X15057Y-23533D01*
X15047Y-23523D01*
X15038Y-23504D01*
X15038Y-23457D01*
X15047Y-23438D01*
X15057Y-23428D01*
X15076Y-23419D01*
X15133Y-23419D01*
X15152Y-23428D01*
X15161Y-23438D01*
X14847Y-23419D02*
X14961Y-23419D01*
X14904Y-23419D02*
X14904Y-23619D01*
X14923Y-23590D01*
X14942Y-23571D01*
X14961Y-23561D01*
X14161Y-23619D02*
X14038Y-23619D01*
X14104Y-23542D01*
X14076Y-23542D01*
X14057Y-23533D01*
X14047Y-23523D01*
X14038Y-23504D01*
X14038Y-23457D01*
X14047Y-23438D01*
X14057Y-23428D01*
X14076Y-23419D01*
X14133Y-23419D01*
X14152Y-23428D01*
X14161Y-23438D01*
X13961Y-23600D02*
X13952Y-23609D01*
X13933Y-23619D01*
X13885Y-23619D01*
X13866Y-23609D01*
X13857Y-23600D01*
X13847Y-23580D01*
X13847Y-23561D01*
X13857Y-23533D01*
X13971Y-23419D01*
X13847Y-23419D01*
X13942Y-18580D02*
X14057Y-18580D01*
X14000Y-18580D02*
X14000Y-18380D01*
X14019Y-18409D01*
X14038Y-18428D01*
X14057Y-18438D01*
G54D14*
X18150Y-11050D02*
G75*
G03X18150Y-11050I-50J0D01*
G74*
G01*
X18100Y-11500D02*
X18100Y-11100D01*
X18100Y-11100D02*
X17500Y-11100D01*
X17500Y-11100D02*
X17500Y-11500D01*
X17500Y-11900D02*
X17500Y-12300D01*
X17500Y-12300D02*
X18100Y-12300D01*
X18100Y-12300D02*
X18100Y-11900D01*
X15050Y-13950D02*
G75*
G03X15050Y-13950I-50J0D01*
G74*
G01*
X15450Y-13950D02*
X15050Y-13950D01*
X15050Y-13950D02*
X15050Y-14550D01*
X15050Y-14550D02*
X15450Y-14550D01*
X15850Y-14550D02*
X16250Y-14550D01*
X16250Y-14550D02*
X16250Y-13950D01*
X16250Y-13950D02*
X15850Y-13950D01*
G54D15*
X23670Y-21629D02*
X23352Y-21311D01*
X22129Y-23170D02*
X21818Y-22859D01*
X23670Y-21629D02*
X22129Y-23170D01*
X23380Y-20674D02*
X23684Y-20370D01*
X21825Y-19104D02*
X22122Y-18807D01*
X22115Y-18800D02*
X23692Y-20363D01*
X19322Y-21622D02*
X20849Y-23163D01*
X19505Y-20830D02*
X21507Y-18829D01*
X20863Y-23163D02*
X21153Y-22873D01*
X19513Y-21176D02*
X21478Y-23142D01*
X23670Y-20978D02*
X21521Y-23128D01*
X21514Y-18822D02*
X23635Y-20943D01*
X19307Y-20391D02*
X20877Y-18822D01*
X20877Y-18822D02*
X21195Y-19140D01*
X19501Y-20840D02*
X19501Y-21165D01*
X19309Y-20393D02*
X19628Y-20712D01*
X19640Y-21304D02*
X19320Y-21623D01*
X20101Y-21005D02*
G75*
G03X20101Y-21005I-188J0D01*
G74*
G01*
G54D16*
X15073Y-22535D02*
X14931Y-22393D01*
X14931Y-22393D02*
X15143Y-22181D01*
X15143Y-22181D02*
X15285Y-22323D01*
X15214Y-22676D02*
X15356Y-22818D01*
X15356Y-22818D02*
X15568Y-22606D01*
X15568Y-22606D02*
X15426Y-22464D01*
X15426Y-22964D02*
X15568Y-23106D01*
X15568Y-23106D02*
X15356Y-23318D01*
X15356Y-23318D02*
X15214Y-23176D01*
X15285Y-22823D02*
X15143Y-22681D01*
X15143Y-22681D02*
X14931Y-22893D01*
X14931Y-22893D02*
X15073Y-23035D01*
X14100Y-20900D02*
X14100Y-20700D01*
X14100Y-20700D02*
X14400Y-20700D01*
X14400Y-20700D02*
X14400Y-20900D01*
X14100Y-21100D02*
X14100Y-21300D01*
X14100Y-21300D02*
X14400Y-21300D01*
X14400Y-21300D02*
X14400Y-21100D01*
G54D17*
G36*
X15194Y-27709D02*
X15211Y-27726D01*
X15228Y-27743D01*
X15261Y-27743D01*
X15261Y-27676D01*
X15261Y-27608D01*
X15261Y-27541D01*
X15329Y-27541D01*
X15397Y-27541D01*
X15397Y-27608D01*
X15397Y-27676D01*
X15329Y-27676D01*
X15261Y-27676D01*
X15261Y-27743D01*
X15329Y-27743D01*
X15430Y-27743D01*
X15447Y-27726D01*
X15464Y-27709D01*
X15464Y-27608D01*
X15464Y-27507D01*
X15447Y-27490D01*
X15430Y-27474D01*
X15329Y-27474D01*
X15228Y-27474D01*
X15211Y-27490D01*
X15194Y-27507D01*
X15194Y-27608D01*
X15194Y-27709D01*
X15194Y-27709D01*
X15194Y-27709D01*
G37*
G36*
X14908Y-27709D02*
X14925Y-27726D01*
X14942Y-27743D01*
X14975Y-27743D01*
X14975Y-27541D01*
X15043Y-27541D01*
X15110Y-27541D01*
X15110Y-27608D01*
X15110Y-27676D01*
X15043Y-27676D01*
X14976Y-27675D01*
X14975Y-27608D01*
X14975Y-27541D01*
X14975Y-27743D01*
X15043Y-27743D01*
X15144Y-27743D01*
X15161Y-27726D01*
X15177Y-27709D01*
X15177Y-27607D01*
X15177Y-27506D01*
X15161Y-27490D01*
X15145Y-27474D01*
X15043Y-27474D01*
X14942Y-27474D01*
X14925Y-27490D01*
X14908Y-27507D01*
X14908Y-27608D01*
X14908Y-27709D01*
X14908Y-27709D01*
X14908Y-27709D01*
G37*
G36*
X14622Y-27708D02*
X14639Y-27725D01*
X14657Y-27743D01*
X14690Y-27743D01*
X14690Y-27676D01*
X14690Y-27608D01*
X14690Y-27541D01*
X14757Y-27541D01*
X14824Y-27541D01*
X14824Y-27608D01*
X14824Y-27676D01*
X14757Y-27676D01*
X14690Y-27676D01*
X14690Y-27743D01*
X14757Y-27743D01*
X14858Y-27743D01*
X14875Y-27725D01*
X14892Y-27708D01*
X14892Y-27608D01*
X14892Y-27507D01*
X14876Y-27490D01*
X14859Y-27474D01*
X14757Y-27474D01*
X14655Y-27474D01*
X14639Y-27490D01*
X14622Y-27507D01*
X14622Y-27608D01*
X14622Y-27708D01*
X14622Y-27708D01*
X14622Y-27708D01*
G37*
G36*
X14337Y-27709D02*
X14354Y-27726D01*
X14370Y-27743D01*
X14404Y-27743D01*
X14404Y-27676D01*
X14404Y-27608D01*
X14404Y-27541D01*
X14472Y-27541D01*
X14539Y-27541D01*
X14539Y-27607D01*
X14539Y-27621D01*
X14539Y-27633D01*
X14539Y-27645D01*
X14539Y-27655D01*
X14539Y-27663D01*
X14539Y-27670D01*
X14538Y-27674D01*
X14538Y-27675D01*
X14537Y-27675D01*
X14533Y-27675D01*
X14526Y-27676D01*
X14518Y-27676D01*
X14508Y-27676D01*
X14496Y-27676D01*
X14483Y-27676D01*
X14471Y-27676D01*
X14404Y-27676D01*
X14404Y-27743D01*
X14472Y-27743D01*
X14573Y-27743D01*
X14589Y-27726D01*
X14606Y-27709D01*
X14606Y-27608D01*
X14606Y-27507D01*
X14589Y-27490D01*
X14573Y-27474D01*
X14471Y-27474D01*
X14369Y-27474D01*
X14353Y-27490D01*
X14337Y-27506D01*
X14337Y-27608D01*
X14337Y-27709D01*
X14337Y-27709D01*
X14337Y-27709D01*
G37*
G36*
X14051Y-27709D02*
X14067Y-27726D01*
X14084Y-27743D01*
X14118Y-27743D01*
X14118Y-27676D01*
X14118Y-27608D01*
X14118Y-27541D01*
X14185Y-27541D01*
X14253Y-27541D01*
X14253Y-27608D01*
X14253Y-27676D01*
X14185Y-27676D01*
X14118Y-27676D01*
X14118Y-27743D01*
X14185Y-27743D01*
X14286Y-27743D01*
X14303Y-27726D01*
X14320Y-27709D01*
X14320Y-27608D01*
X14320Y-27507D01*
X14303Y-27490D01*
X14286Y-27474D01*
X14185Y-27474D01*
X14084Y-27474D01*
X14067Y-27490D01*
X14051Y-27507D01*
X14051Y-27608D01*
X14051Y-27709D01*
X14051Y-27709D01*
X14051Y-27709D01*
G37*
G36*
X15481Y-27423D02*
X15498Y-27440D01*
X15514Y-27457D01*
X15548Y-27457D01*
X15548Y-27390D01*
X15548Y-27322D01*
X15548Y-27254D01*
X15615Y-27254D01*
X15683Y-27254D01*
X15683Y-27322D01*
X15683Y-27390D01*
X15615Y-27390D01*
X15548Y-27390D01*
X15548Y-27457D01*
X15615Y-27457D01*
X15717Y-27456D01*
X15733Y-27440D01*
X15750Y-27423D01*
X15750Y-27322D01*
X15750Y-27221D01*
X15733Y-27204D01*
X15717Y-27187D01*
X15615Y-27187D01*
X15514Y-27187D01*
X15498Y-27204D01*
X15481Y-27221D01*
X15481Y-27322D01*
X15481Y-27423D01*
X15481Y-27423D01*
X15481Y-27423D01*
G37*
G36*
X15481Y-27137D02*
X15498Y-27154D01*
X15514Y-27170D01*
X15548Y-27170D01*
X15548Y-27103D01*
X15548Y-27036D01*
X15548Y-26968D01*
X15615Y-26968D01*
X15682Y-26969D01*
X15683Y-27036D01*
X15683Y-27103D01*
X15615Y-27103D01*
X15548Y-27103D01*
X15548Y-27170D01*
X15615Y-27170D01*
X15717Y-27170D01*
X15733Y-27154D01*
X15750Y-27137D01*
X15750Y-27036D01*
X15750Y-26934D01*
X15733Y-26918D01*
X15717Y-26901D01*
X15615Y-26901D01*
X15514Y-26901D01*
X15498Y-26918D01*
X15481Y-26935D01*
X15481Y-27036D01*
X15481Y-27137D01*
X15481Y-27137D01*
X15481Y-27137D01*
G37*
G36*
X14908Y-27137D02*
X14925Y-27154D01*
X14942Y-27170D01*
X14975Y-27170D01*
X14975Y-27103D01*
X14975Y-27036D01*
X14976Y-26969D01*
X15043Y-26968D01*
X15110Y-26968D01*
X15110Y-27036D01*
X15110Y-27103D01*
X15043Y-27103D01*
X14975Y-27103D01*
X14975Y-27170D01*
X15044Y-27170D01*
X15145Y-27170D01*
X15161Y-27154D01*
X15177Y-27138D01*
X15177Y-27036D01*
X15177Y-26935D01*
X15161Y-26918D01*
X15144Y-26901D01*
X15043Y-26901D01*
X14942Y-26901D01*
X14925Y-26918D01*
X14908Y-26935D01*
X14908Y-27036D01*
X14908Y-27137D01*
X14908Y-27137D01*
X14908Y-27137D01*
G37*
G36*
X14622Y-27137D02*
X14639Y-27154D01*
X14655Y-27170D01*
X14690Y-27170D01*
X14690Y-27103D01*
X14690Y-27036D01*
X14690Y-26968D01*
X14757Y-26968D01*
X14824Y-26968D01*
X14824Y-27036D01*
X14824Y-27103D01*
X14757Y-27103D01*
X14690Y-27103D01*
X14690Y-27170D01*
X14757Y-27170D01*
X14859Y-27170D01*
X14876Y-27153D01*
X14892Y-27137D01*
X14892Y-27036D01*
X14892Y-26936D01*
X14875Y-26918D01*
X14858Y-26901D01*
X14757Y-26901D01*
X14657Y-26901D01*
X14639Y-26918D01*
X14622Y-26936D01*
X14622Y-27036D01*
X14622Y-27137D01*
X14622Y-27137D01*
X14622Y-27137D01*
G37*
G36*
X14337Y-27138D02*
X14353Y-27154D01*
X14369Y-27170D01*
X14404Y-27170D01*
X14404Y-27103D01*
X14404Y-27036D01*
X14404Y-26968D01*
X14471Y-26968D01*
X14538Y-26969D01*
X14539Y-27036D01*
X14539Y-27103D01*
X14472Y-27103D01*
X14404Y-27103D01*
X14404Y-27170D01*
X14471Y-27170D01*
X14573Y-27170D01*
X14589Y-27153D01*
X14606Y-27137D01*
X14606Y-27036D01*
X14606Y-26934D01*
X14589Y-26918D01*
X14573Y-26901D01*
X14471Y-26901D01*
X14370Y-26901D01*
X14354Y-26918D01*
X14337Y-26935D01*
X14337Y-27036D01*
X14337Y-27138D01*
X14337Y-27138D01*
X14337Y-27138D01*
G37*
G36*
X14051Y-27137D02*
X14067Y-27154D01*
X14084Y-27170D01*
X14118Y-27170D01*
X14118Y-27103D01*
X14118Y-27036D01*
X14118Y-26968D01*
X14185Y-26968D01*
X14252Y-26969D01*
X14253Y-27036D01*
X14253Y-27103D01*
X14185Y-27103D01*
X14118Y-27103D01*
X14118Y-27170D01*
X14185Y-27170D01*
X14286Y-27170D01*
X14303Y-27153D01*
X14320Y-27137D01*
X14320Y-27036D01*
X14320Y-26934D01*
X14303Y-26918D01*
X14286Y-26901D01*
X14185Y-26901D01*
X14084Y-26901D01*
X14067Y-26918D01*
X14051Y-26935D01*
X14051Y-27036D01*
X14051Y-27137D01*
X14051Y-27137D01*
X14051Y-27137D01*
G37*
G36*
X15481Y-26852D02*
X15498Y-26869D01*
X15515Y-26885D01*
X15548Y-26885D01*
X15548Y-26817D01*
X15548Y-26750D01*
X15548Y-26683D01*
X15615Y-26683D01*
X15683Y-26683D01*
X15683Y-26750D01*
X15683Y-26817D01*
X15615Y-26817D01*
X15548Y-26817D01*
X15548Y-26885D01*
X15615Y-26885D01*
X15715Y-26885D01*
X15733Y-26868D01*
X15750Y-26851D01*
X15750Y-26749D01*
X15750Y-26648D01*
X15733Y-26631D01*
X15716Y-26615D01*
X15615Y-26615D01*
X15514Y-26615D01*
X15498Y-26631D01*
X15481Y-26648D01*
X15481Y-26750D01*
X15481Y-26852D01*
X15481Y-26852D01*
X15481Y-26852D01*
G37*
G36*
X13764Y-26850D02*
X13782Y-26868D01*
X13799Y-26885D01*
X13831Y-26885D01*
X13831Y-26817D01*
X13831Y-26750D01*
X13831Y-26683D01*
X13899Y-26683D01*
X13967Y-26683D01*
X13967Y-26750D01*
X13967Y-26817D01*
X13899Y-26817D01*
X13831Y-26817D01*
X13831Y-26885D01*
X13899Y-26885D01*
X14000Y-26885D01*
X14017Y-26869D01*
X14034Y-26852D01*
X14034Y-26750D01*
X14034Y-26648D01*
X14017Y-26631D01*
X14000Y-26615D01*
X13899Y-26615D01*
X13798Y-26615D01*
X13781Y-26631D01*
X13764Y-26648D01*
X13764Y-26749D01*
X13764Y-26850D01*
X13764Y-26850D01*
X13764Y-26850D01*
G37*
G36*
X15194Y-26566D02*
X15211Y-26582D01*
X15228Y-26599D01*
X15261Y-26599D01*
X15261Y-26397D01*
X15329Y-26397D01*
X15397Y-26397D01*
X15397Y-26464D01*
X15397Y-26532D01*
X15329Y-26532D01*
X15262Y-26531D01*
X15262Y-26464D01*
X15261Y-26397D01*
X15261Y-26599D01*
X15329Y-26599D01*
X15430Y-26599D01*
X15447Y-26582D01*
X15464Y-26565D01*
X15464Y-26464D01*
X15464Y-26362D01*
X15448Y-26346D01*
X15432Y-26330D01*
X15330Y-26330D01*
X15228Y-26330D01*
X15211Y-26347D01*
X15194Y-26363D01*
X15194Y-26464D01*
X15194Y-26566D01*
X15194Y-26566D01*
X15194Y-26566D01*
G37*
G36*
X14908Y-26564D02*
X14926Y-26582D01*
X14943Y-26599D01*
X14975Y-26599D01*
X14975Y-26397D01*
X15043Y-26397D01*
X15110Y-26397D01*
X15110Y-26464D01*
X15110Y-26532D01*
X15043Y-26532D01*
X14976Y-26531D01*
X14975Y-26464D01*
X14975Y-26397D01*
X14975Y-26599D01*
X15044Y-26599D01*
X15144Y-26599D01*
X15161Y-26582D01*
X15177Y-26565D01*
X15177Y-26464D01*
X15177Y-26362D01*
X15161Y-26346D01*
X15145Y-26330D01*
X15043Y-26330D01*
X14942Y-26330D01*
X14925Y-26347D01*
X14908Y-26363D01*
X14908Y-26464D01*
X14908Y-26564D01*
X14908Y-26564D01*
X14908Y-26564D01*
G37*
G36*
X14622Y-26564D02*
X14639Y-26582D01*
X14657Y-26599D01*
X14690Y-26599D01*
X14690Y-26532D01*
X14690Y-26464D01*
X14690Y-26397D01*
X14757Y-26397D01*
X14824Y-26397D01*
X14824Y-26464D01*
X14824Y-26532D01*
X14757Y-26532D01*
X14690Y-26532D01*
X14690Y-26599D01*
X14757Y-26599D01*
X14858Y-26599D01*
X14875Y-26582D01*
X14892Y-26564D01*
X14892Y-26464D01*
X14892Y-26363D01*
X14876Y-26347D01*
X14859Y-26330D01*
X14757Y-26330D01*
X14655Y-26330D01*
X14639Y-26347D01*
X14622Y-26363D01*
X14622Y-26464D01*
X14622Y-26564D01*
X14622Y-26564D01*
X14622Y-26564D01*
G37*
G36*
X14337Y-26566D02*
X14354Y-26582D01*
X14370Y-26599D01*
X14404Y-26599D01*
X14404Y-26532D01*
X14404Y-26464D01*
X14404Y-26397D01*
X14472Y-26397D01*
X14539Y-26397D01*
X14539Y-26463D01*
X14539Y-26477D01*
X14539Y-26490D01*
X14539Y-26501D01*
X14539Y-26511D01*
X14539Y-26519D01*
X14539Y-26526D01*
X14538Y-26530D01*
X14538Y-26531D01*
X14537Y-26531D01*
X14533Y-26531D01*
X14526Y-26532D01*
X14518Y-26532D01*
X14508Y-26532D01*
X14496Y-26532D01*
X14483Y-26532D01*
X14471Y-26532D01*
X14404Y-26532D01*
X14404Y-26599D01*
X14471Y-26599D01*
X14571Y-26599D01*
X14589Y-26582D01*
X14606Y-26564D01*
X14606Y-26464D01*
X14606Y-26363D01*
X14589Y-26347D01*
X14573Y-26330D01*
X14471Y-26330D01*
X14369Y-26330D01*
X14353Y-26346D01*
X14337Y-26362D01*
X14337Y-26464D01*
X14337Y-26566D01*
X14337Y-26566D01*
X14337Y-26566D01*
G37*
G36*
X13764Y-26566D02*
X13781Y-26582D01*
X13798Y-26599D01*
X13831Y-26599D01*
X13831Y-26397D01*
X13899Y-26397D01*
X13967Y-26397D01*
X13967Y-26464D01*
X13967Y-26532D01*
X13899Y-26532D01*
X13832Y-26531D01*
X13832Y-26464D01*
X13831Y-26397D01*
X13831Y-26599D01*
X13899Y-26599D01*
X14000Y-26599D01*
X14017Y-26582D01*
X14034Y-26565D01*
X14034Y-26464D01*
X14034Y-26362D01*
X14017Y-26346D01*
X14001Y-26330D01*
X13900Y-26330D01*
X13798Y-26330D01*
X13781Y-26347D01*
X13764Y-26363D01*
X13764Y-26464D01*
X13764Y-26566D01*
X13764Y-26566D01*
X13764Y-26566D01*
G37*
G36*
X13764Y-26279D02*
X13781Y-26296D01*
X13798Y-26313D01*
X13831Y-26313D01*
X13831Y-26246D01*
X13831Y-26178D01*
X13831Y-26110D01*
X13899Y-26110D01*
X13967Y-26110D01*
X13967Y-26178D01*
X13967Y-26246D01*
X13899Y-26246D01*
X13831Y-26246D01*
X13831Y-26313D01*
X13899Y-26313D01*
X14000Y-26313D01*
X14017Y-26296D01*
X14034Y-26279D01*
X14034Y-26178D01*
X14034Y-26077D01*
X14017Y-26060D01*
X14000Y-26043D01*
X13899Y-26043D01*
X13798Y-26043D01*
X13781Y-26060D01*
X13764Y-26077D01*
X13764Y-26178D01*
X13764Y-26279D01*
X13764Y-26279D01*
X13764Y-26279D01*
G37*
G36*
X15194Y-25993D02*
X15211Y-26010D01*
X15228Y-26026D01*
X15261Y-26026D01*
X15261Y-25959D01*
X15261Y-25892D01*
X15261Y-25824D01*
X15329Y-25824D01*
X15397Y-25824D01*
X15397Y-25892D01*
X15397Y-25959D01*
X15329Y-25959D01*
X15261Y-25959D01*
X15261Y-26026D01*
X15329Y-26026D01*
X15430Y-26026D01*
X15447Y-26010D01*
X15464Y-25993D01*
X15464Y-25892D01*
X15464Y-25791D01*
X15447Y-25774D01*
X15430Y-25757D01*
X15329Y-25757D01*
X15228Y-25757D01*
X15211Y-25774D01*
X15194Y-25791D01*
X15194Y-25892D01*
X15194Y-25993D01*
X15194Y-25993D01*
X15194Y-25993D01*
G37*
G36*
X14908Y-25993D02*
X14925Y-26010D01*
X14942Y-26026D01*
X14976Y-26026D01*
X14976Y-25959D01*
X14976Y-25892D01*
X14976Y-25825D01*
X15043Y-25824D01*
X15110Y-25824D01*
X15110Y-25892D01*
X15110Y-25959D01*
X15043Y-25959D01*
X14976Y-25959D01*
X14976Y-26026D01*
X15043Y-26026D01*
X15144Y-26026D01*
X15161Y-26010D01*
X15177Y-25993D01*
X15177Y-25892D01*
X15177Y-25791D01*
X15161Y-25774D01*
X15144Y-25757D01*
X15043Y-25757D01*
X14941Y-25757D01*
X14925Y-25774D01*
X14908Y-25791D01*
X14908Y-25892D01*
X14908Y-25993D01*
X14908Y-25993D01*
X14908Y-25993D01*
G37*
G36*
X14622Y-25993D02*
X14638Y-26009D01*
X14655Y-26026D01*
X14690Y-26026D01*
X14690Y-25959D01*
X14690Y-25892D01*
X14690Y-25824D01*
X14757Y-25824D01*
X14824Y-25824D01*
X14824Y-25892D01*
X14824Y-25959D01*
X14757Y-25959D01*
X14690Y-25959D01*
X14690Y-26026D01*
X14757Y-26026D01*
X14859Y-26026D01*
X14876Y-26010D01*
X14892Y-25993D01*
X14892Y-25892D01*
X14892Y-25791D01*
X14876Y-25774D01*
X14859Y-25757D01*
X14758Y-25757D01*
X14656Y-25757D01*
X14639Y-25775D01*
X14622Y-25792D01*
X14622Y-25892D01*
X14622Y-25993D01*
X14622Y-25993D01*
X14622Y-25993D01*
G37*
G36*
X14337Y-25993D02*
X14354Y-26010D01*
X14370Y-26026D01*
X14404Y-26026D01*
X14404Y-25959D01*
X14404Y-25892D01*
X14404Y-25824D01*
X14471Y-25824D01*
X14538Y-25825D01*
X14539Y-25892D01*
X14539Y-25959D01*
X14472Y-25959D01*
X14404Y-25959D01*
X14404Y-26026D01*
X14472Y-26026D01*
X14573Y-26026D01*
X14589Y-26010D01*
X14606Y-25993D01*
X14606Y-25892D01*
X14606Y-25791D01*
X14590Y-25774D01*
X14573Y-25757D01*
X14472Y-25757D01*
X14370Y-25757D01*
X14354Y-25774D01*
X14337Y-25791D01*
X14337Y-25892D01*
X14337Y-25993D01*
X14337Y-25993D01*
X14337Y-25993D01*
G37*
G36*
X14051Y-25993D02*
X14067Y-26010D01*
X14084Y-26026D01*
X14118Y-26026D01*
X14118Y-25959D01*
X14118Y-25892D01*
X14118Y-25824D01*
X14185Y-25824D01*
X14253Y-25824D01*
X14253Y-25892D01*
X14253Y-25959D01*
X14185Y-25959D01*
X14118Y-25959D01*
X14118Y-26026D01*
X14185Y-26026D01*
X14286Y-26026D01*
X14303Y-26010D01*
X14320Y-25993D01*
X14320Y-25892D01*
X14320Y-25791D01*
X14303Y-25774D01*
X14287Y-25757D01*
X14185Y-25757D01*
X14084Y-25757D01*
X14067Y-25774D01*
X14051Y-25791D01*
X14051Y-25892D01*
X14051Y-25993D01*
X14051Y-25993D01*
X14051Y-25993D01*
G37*
G36*
X18606Y-27360D02*
X18606Y-27362D01*
X18606Y-27367D01*
X18608Y-27374D01*
X18609Y-27384D01*
X18611Y-27397D01*
X18613Y-27411D01*
X18616Y-27427D01*
X18618Y-27444D01*
X18621Y-27463D01*
X18625Y-27483D01*
X18628Y-27503D01*
X18631Y-27524D01*
X18635Y-27544D01*
X18638Y-27565D01*
X18641Y-27586D01*
X18644Y-27605D01*
X18648Y-27624D01*
X18650Y-27642D01*
X18653Y-27658D01*
X18656Y-27673D01*
X18658Y-27685D01*
X18660Y-27696D01*
X18661Y-27704D01*
X18662Y-27709D01*
X18662Y-27711D01*
X18668Y-27730D01*
X18676Y-27747D01*
X18677Y-27748D01*
X18677Y-27401D01*
X18677Y-27400D01*
X18679Y-27399D01*
X18681Y-27399D01*
X18686Y-27399D01*
X18693Y-27398D01*
X18702Y-27398D01*
X18714Y-27398D01*
X18717Y-27398D01*
X18732Y-27398D01*
X18744Y-27399D01*
X18753Y-27399D01*
X18761Y-27400D01*
X18767Y-27401D01*
X18771Y-27403D01*
X18776Y-27405D01*
X18780Y-27407D01*
X18781Y-27408D01*
X18787Y-27413D01*
X18793Y-27421D01*
X18799Y-27430D01*
X18804Y-27439D01*
X18806Y-27445D01*
X18810Y-27456D01*
X18814Y-27470D01*
X18817Y-27486D01*
X18820Y-27503D01*
X18823Y-27520D01*
X18824Y-27538D01*
X18824Y-27553D01*
X18822Y-27566D01*
X18818Y-27576D01*
X18811Y-27584D01*
X18802Y-27590D01*
X18797Y-27592D01*
X18791Y-27593D01*
X18784Y-27593D01*
X18774Y-27593D01*
X18764Y-27592D01*
X18754Y-27592D01*
X18748Y-27591D01*
X18740Y-27589D01*
X18731Y-27587D01*
X18723Y-27585D01*
X18716Y-27583D01*
X18710Y-27582D01*
X18707Y-27580D01*
X18706Y-27580D01*
X18706Y-27578D01*
X18705Y-27574D01*
X18704Y-27566D01*
X18702Y-27557D01*
X18700Y-27546D01*
X18698Y-27533D01*
X18696Y-27519D01*
X18693Y-27505D01*
X18691Y-27490D01*
X18688Y-27475D01*
X18686Y-27461D01*
X18684Y-27447D01*
X18682Y-27434D01*
X18680Y-27423D01*
X18679Y-27414D01*
X18677Y-27407D01*
X18677Y-27402D01*
X18677Y-27401D01*
X18677Y-27748D01*
X18686Y-27761D01*
X18698Y-27772D01*
X18712Y-27782D01*
X18718Y-27786D01*
X18724Y-27789D01*
X18731Y-27791D01*
X18738Y-27793D01*
X18746Y-27794D01*
X18754Y-27795D01*
X18764Y-27796D01*
X18776Y-27795D01*
X18790Y-27795D01*
X18806Y-27794D01*
X18825Y-27792D01*
X18846Y-27790D01*
X18848Y-27790D01*
X18862Y-27788D01*
X18876Y-27787D01*
X18888Y-27786D01*
X18898Y-27784D01*
X18906Y-27783D01*
X18912Y-27783D01*
X18915Y-27782D01*
X18915Y-27782D01*
X18915Y-27781D01*
X18914Y-27776D01*
X18914Y-27770D01*
X18913Y-27762D01*
X18913Y-27761D01*
X18910Y-27740D01*
X18837Y-27740D01*
X18764Y-27739D01*
X18755Y-27734D01*
X18745Y-27728D01*
X18736Y-27719D01*
X18729Y-27709D01*
X18727Y-27704D01*
X18726Y-27700D01*
X18724Y-27694D01*
X18723Y-27686D01*
X18721Y-27677D01*
X18719Y-27667D01*
X18717Y-27657D01*
X18716Y-27648D01*
X18715Y-27640D01*
X18714Y-27633D01*
X18714Y-27629D01*
X18714Y-27627D01*
X18715Y-27628D01*
X18719Y-27629D01*
X18725Y-27631D01*
X18728Y-27633D01*
X18740Y-27637D01*
X18750Y-27641D01*
X18761Y-27643D01*
X18771Y-27645D01*
X18784Y-27646D01*
X18794Y-27646D01*
X18805Y-27646D01*
X18813Y-27645D01*
X18819Y-27645D01*
X18824Y-27644D01*
X18829Y-27643D01*
X18833Y-27642D01*
X18846Y-27637D01*
X18857Y-27630D01*
X18866Y-27621D01*
X18872Y-27614D01*
X18875Y-27609D01*
X18879Y-27602D01*
X18882Y-27593D01*
X18884Y-27587D01*
X18885Y-27581D01*
X18886Y-27576D01*
X18887Y-27571D01*
X18887Y-27565D01*
X18887Y-27557D01*
X18888Y-27547D01*
X18888Y-27541D01*
X18886Y-27511D01*
X18883Y-27483D01*
X18878Y-27456D01*
X18870Y-27433D01*
X18861Y-27411D01*
X18854Y-27399D01*
X18847Y-27389D01*
X18839Y-27380D01*
X18829Y-27371D01*
X18819Y-27363D01*
X18812Y-27359D01*
X18802Y-27354D01*
X18790Y-27350D01*
X18778Y-27347D01*
X18768Y-27346D01*
X18763Y-27345D01*
X18755Y-27345D01*
X18745Y-27346D01*
X18733Y-27346D01*
X18720Y-27347D01*
X18707Y-27348D01*
X18694Y-27349D01*
X18682Y-27350D01*
X18671Y-27351D01*
X18670Y-27351D01*
X18662Y-27352D01*
X18653Y-27353D01*
X18643Y-27354D01*
X18634Y-27356D01*
X18625Y-27357D01*
X18617Y-27358D01*
X18611Y-27359D01*
X18607Y-27360D01*
X18606Y-27360D01*
X18606Y-27360D01*
X18606Y-27360D01*
G37*
G36*
X19971Y-27460D02*
X19972Y-27476D01*
X19973Y-27492D01*
X19976Y-27510D01*
X19978Y-27520D01*
X19982Y-27541D01*
X19987Y-27559D01*
X19992Y-27574D01*
X19999Y-27588D01*
X20007Y-27601D01*
X20008Y-27604D01*
X20020Y-27618D01*
X20033Y-27630D01*
X20037Y-27632D01*
X20037Y-27461D01*
X20037Y-27451D01*
X20037Y-27441D01*
X20038Y-27434D01*
X20038Y-27432D01*
X20042Y-27421D01*
X20049Y-27412D01*
X20056Y-27405D01*
X20064Y-27401D01*
X20108Y-27401D01*
X20152Y-27401D01*
X20167Y-27489D01*
X20170Y-27506D01*
X20172Y-27522D01*
X20175Y-27537D01*
X20177Y-27550D01*
X20179Y-27561D01*
X20180Y-27570D01*
X20181Y-27576D01*
X20181Y-27580D01*
X20181Y-27581D01*
X20179Y-27583D01*
X20175Y-27586D01*
X20168Y-27589D01*
X20160Y-27591D01*
X20151Y-27593D01*
X20142Y-27595D01*
X20132Y-27596D01*
X20128Y-27597D01*
X20122Y-27596D01*
X20114Y-27596D01*
X20106Y-27595D01*
X20105Y-27595D01*
X20092Y-27592D01*
X20080Y-27587D01*
X20071Y-27580D01*
X20062Y-27570D01*
X20057Y-27559D01*
X20053Y-27550D01*
X20049Y-27539D01*
X20046Y-27527D01*
X20042Y-27513D01*
X20040Y-27500D01*
X20038Y-27492D01*
X20037Y-27483D01*
X20037Y-27472D01*
X20037Y-27461D01*
X20037Y-27632D01*
X20048Y-27639D01*
X20065Y-27645D01*
X20084Y-27649D01*
X20105Y-27650D01*
X20121Y-27648D01*
X20142Y-27645D01*
X20160Y-27641D01*
X20176Y-27636D01*
X20178Y-27635D01*
X20183Y-27633D01*
X20188Y-27631D01*
X20190Y-27631D01*
X20190Y-27631D01*
X20190Y-27633D01*
X20191Y-27637D01*
X20192Y-27644D01*
X20194Y-27654D01*
X20196Y-27665D01*
X20198Y-27677D01*
X20200Y-27690D01*
X20202Y-27704D01*
X20205Y-27719D01*
X20207Y-27733D01*
X20209Y-27746D01*
X20211Y-27759D01*
X20213Y-27770D01*
X20215Y-27779D01*
X20216Y-27787D01*
X20216Y-27792D01*
X20217Y-27794D01*
X20218Y-27794D01*
X20223Y-27794D01*
X20229Y-27795D01*
X20238Y-27795D01*
X20248Y-27795D01*
X20249Y-27795D01*
X20282Y-27795D01*
X20281Y-27791D01*
X20281Y-27789D01*
X20280Y-27784D01*
X20278Y-27776D01*
X20276Y-27765D01*
X20274Y-27752D01*
X20272Y-27736D01*
X20269Y-27719D01*
X20266Y-27699D01*
X20262Y-27678D01*
X20258Y-27655D01*
X20254Y-27631D01*
X20250Y-27606D01*
X20246Y-27580D01*
X20245Y-27574D01*
X20241Y-27548D01*
X20236Y-27523D01*
X20232Y-27498D01*
X20229Y-27475D01*
X20225Y-27454D01*
X20222Y-27434D01*
X20219Y-27416D01*
X20216Y-27401D01*
X20214Y-27387D01*
X20212Y-27376D01*
X20210Y-27368D01*
X20209Y-27362D01*
X20209Y-27360D01*
X20209Y-27360D01*
X20207Y-27359D01*
X20202Y-27358D01*
X20196Y-27357D01*
X20195Y-27357D01*
X20176Y-27354D01*
X20156Y-27352D01*
X20136Y-27351D01*
X20113Y-27349D01*
X20092Y-27349D01*
X20078Y-27349D01*
X20066Y-27348D01*
X20058Y-27348D01*
X20051Y-27349D01*
X20045Y-27349D01*
X20041Y-27349D01*
X20037Y-27350D01*
X20035Y-27351D01*
X20023Y-27354D01*
X20013Y-27359D01*
X20004Y-27366D01*
X20000Y-27370D01*
X19991Y-27381D01*
X19983Y-27394D01*
X19978Y-27409D01*
X19974Y-27427D01*
X19972Y-27445D01*
X19971Y-27460D01*
X19971Y-27460D01*
X19971Y-27460D01*
G37*
G36*
X19540Y-27217D02*
X19541Y-27219D01*
X19543Y-27223D01*
X19546Y-27230D01*
X19551Y-27240D01*
X19557Y-27252D01*
X19564Y-27266D01*
X19572Y-27282D01*
X19580Y-27300D01*
X19590Y-27319D01*
X19600Y-27341D01*
X19612Y-27363D01*
X19623Y-27387D01*
X19636Y-27412D01*
X19648Y-27438D01*
X19655Y-27451D01*
X19769Y-27684D01*
X19803Y-27685D01*
X19837Y-27685D01*
X19832Y-27675D01*
X19830Y-27672D01*
X19828Y-27666D01*
X19824Y-27658D01*
X19819Y-27648D01*
X19812Y-27635D01*
X19805Y-27620D01*
X19797Y-27603D01*
X19787Y-27584D01*
X19777Y-27564D01*
X19767Y-27542D01*
X19755Y-27519D01*
X19744Y-27495D01*
X19731Y-27470D01*
X19719Y-27444D01*
X19717Y-27441D01*
X19607Y-27217D01*
X19574Y-27217D01*
X19563Y-27217D01*
X19555Y-27217D01*
X19547Y-27217D01*
X19542Y-27217D01*
X19540Y-27217D01*
X19540Y-27217D01*
X19540Y-27217D01*
X19540Y-27217D01*
G37*
G36*
X19299Y-27218D02*
X19299Y-27220D01*
X19302Y-27224D01*
X19305Y-27232D01*
X19310Y-27241D01*
X19316Y-27253D01*
X19323Y-27268D01*
X19331Y-27284D01*
X19339Y-27302D01*
X19349Y-27322D01*
X19360Y-27343D01*
X19371Y-27365D01*
X19382Y-27389D01*
X19395Y-27414D01*
X19407Y-27440D01*
X19413Y-27452D01*
X19528Y-27685D01*
X19561Y-27685D01*
X19595Y-27685D01*
X19576Y-27646D01*
X19573Y-27640D01*
X19568Y-27631D01*
X19563Y-27619D01*
X19556Y-27605D01*
X19548Y-27589D01*
X19539Y-27571D01*
X19529Y-27551D01*
X19519Y-27530D01*
X19508Y-27508D01*
X19497Y-27485D01*
X19485Y-27461D01*
X19473Y-27436D01*
X19461Y-27412D01*
X19365Y-27217D01*
X19332Y-27217D01*
X19319Y-27217D01*
X19309Y-27217D01*
X19303Y-27217D01*
X19299Y-27218D01*
X19299Y-27218D01*
X19299Y-27218D01*
X19299Y-27218D01*
G37*
G36*
X16697Y-27421D02*
X16698Y-27440D01*
X16702Y-27457D01*
X16708Y-27472D01*
X16717Y-27486D01*
X16726Y-27496D01*
X16734Y-27504D01*
X16742Y-27510D01*
X16750Y-27514D01*
X16762Y-27519D01*
X16762Y-27429D01*
X16763Y-27419D01*
X16766Y-27411D01*
X16771Y-27406D01*
X16773Y-27405D01*
X16781Y-27402D01*
X16792Y-27400D01*
X16804Y-27399D01*
X16816Y-27399D01*
X16823Y-27400D01*
X16836Y-27401D01*
X16847Y-27404D01*
X16856Y-27408D01*
X16864Y-27414D01*
X16871Y-27422D01*
X16877Y-27431D01*
X16882Y-27443D01*
X16886Y-27458D01*
X16890Y-27476D01*
X16891Y-27478D01*
X16891Y-27479D01*
X16890Y-27481D01*
X16889Y-27482D01*
X16885Y-27482D01*
X16880Y-27483D01*
X16872Y-27483D01*
X16862Y-27483D01*
X16853Y-27482D01*
X16841Y-27482D01*
X16832Y-27482D01*
X16824Y-27481D01*
X16818Y-27480D01*
X16812Y-27479D01*
X16811Y-27478D01*
X16795Y-27473D01*
X16783Y-27466D01*
X16773Y-27458D01*
X16766Y-27449D01*
X16762Y-27438D01*
X16762Y-27429D01*
X16762Y-27519D01*
X16765Y-27520D01*
X16781Y-27526D01*
X16797Y-27530D01*
X16800Y-27530D01*
X16808Y-27531D01*
X16819Y-27532D01*
X16832Y-27532D01*
X16845Y-27532D01*
X16858Y-27532D01*
X16869Y-27531D01*
X16879Y-27530D01*
X16881Y-27529D01*
X16888Y-27528D01*
X16893Y-27527D01*
X16897Y-27527D01*
X16898Y-27527D01*
X16898Y-27529D01*
X16899Y-27533D01*
X16899Y-27539D01*
X16899Y-27542D01*
X16900Y-27556D01*
X16899Y-27567D01*
X16896Y-27576D01*
X16892Y-27583D01*
X16885Y-27588D01*
X16876Y-27591D01*
X16868Y-27593D01*
X16860Y-27594D01*
X16850Y-27595D01*
X16838Y-27595D01*
X16824Y-27595D01*
X16810Y-27594D01*
X16795Y-27594D01*
X16781Y-27593D01*
X16768Y-27591D01*
X16758Y-27590D01*
X16749Y-27589D01*
X16741Y-27588D01*
X16735Y-27587D01*
X16731Y-27587D01*
X16731Y-27587D01*
X16730Y-27589D01*
X16731Y-27593D01*
X16731Y-27600D01*
X16732Y-27607D01*
X16733Y-27614D01*
X16734Y-27621D01*
X16735Y-27627D01*
X16736Y-27630D01*
X16738Y-27632D01*
X16743Y-27634D01*
X16750Y-27636D01*
X16759Y-27638D01*
X16770Y-27640D01*
X16781Y-27642D01*
X16793Y-27644D01*
X16805Y-27646D01*
X16812Y-27646D01*
X16839Y-27648D01*
X16866Y-27649D01*
X16884Y-27648D01*
X16899Y-27647D01*
X16911Y-27644D01*
X16922Y-27641D01*
X16931Y-27636D01*
X16939Y-27629D01*
X16941Y-27626D01*
X16949Y-27616D01*
X16955Y-27605D01*
X16959Y-27592D01*
X16962Y-27577D01*
X16963Y-27559D01*
X16963Y-27549D01*
X16963Y-27529D01*
X16961Y-27508D01*
X16958Y-27488D01*
X16954Y-27467D01*
X16949Y-27448D01*
X16944Y-27430D01*
X16938Y-27414D01*
X16931Y-27400D01*
X16924Y-27389D01*
X16913Y-27376D01*
X16899Y-27366D01*
X16883Y-27357D01*
X16865Y-27351D01*
X16846Y-27347D01*
X16836Y-27346D01*
X16825Y-27345D01*
X16812Y-27345D01*
X16799Y-27345D01*
X16787Y-27346D01*
X16776Y-27346D01*
X16768Y-27347D01*
X16750Y-27352D01*
X16735Y-27357D01*
X16722Y-27364D01*
X16712Y-27373D01*
X16708Y-27379D01*
X16703Y-27387D01*
X16699Y-27395D01*
X16698Y-27404D01*
X16697Y-27415D01*
X16697Y-27421D01*
X16697Y-27421D01*
X16697Y-27421D01*
G37*
G36*
X19007Y-27209D02*
X19007Y-27210D01*
X19008Y-27215D01*
X19009Y-27223D01*
X19011Y-27233D01*
X19013Y-27246D01*
X19015Y-27261D01*
X19018Y-27279D01*
X19021Y-27298D01*
X19024Y-27319D01*
X19028Y-27342D01*
X19032Y-27366D01*
X19036Y-27391D01*
X19040Y-27417D01*
X19041Y-27427D01*
X19076Y-27644D01*
X19102Y-27644D01*
X19105Y-27644D01*
X19105Y-27411D01*
X19107Y-27410D01*
X19112Y-27409D01*
X19119Y-27407D01*
X19126Y-27405D01*
X19134Y-27404D01*
X19142Y-27402D01*
X19147Y-27402D01*
X19154Y-27401D01*
X19163Y-27400D01*
X19173Y-27400D01*
X19178Y-27400D01*
X19186Y-27400D01*
X19192Y-27400D01*
X19197Y-27401D01*
X19201Y-27402D01*
X19205Y-27404D01*
X19212Y-27409D01*
X19219Y-27416D01*
X19225Y-27426D01*
X19230Y-27437D01*
X19235Y-27452D01*
X19240Y-27470D01*
X19241Y-27475D01*
X19244Y-27493D01*
X19247Y-27509D01*
X19248Y-27524D01*
X19248Y-27537D01*
X19248Y-27544D01*
X19248Y-27553D01*
X19247Y-27559D01*
X19246Y-27565D01*
X19244Y-27569D01*
X19243Y-27572D01*
X19238Y-27580D01*
X19231Y-27586D01*
X19223Y-27589D01*
X19222Y-27590D01*
X19216Y-27590D01*
X19208Y-27590D01*
X19198Y-27590D01*
X19189Y-27589D01*
X19180Y-27587D01*
X19178Y-27587D01*
X19172Y-27585D01*
X19164Y-27583D01*
X19156Y-27581D01*
X19148Y-27578D01*
X19141Y-27575D01*
X19135Y-27573D01*
X19130Y-27571D01*
X19128Y-27569D01*
X19128Y-27569D01*
X19128Y-27568D01*
X19127Y-27563D01*
X19126Y-27556D01*
X19125Y-27546D01*
X19123Y-27534D01*
X19121Y-27521D01*
X19118Y-27506D01*
X19116Y-27491D01*
X19116Y-27491D01*
X19114Y-27475D01*
X19111Y-27460D01*
X19109Y-27447D01*
X19108Y-27435D01*
X19106Y-27425D01*
X19105Y-27418D01*
X19105Y-27413D01*
X19105Y-27411D01*
X19105Y-27644D01*
X19127Y-27644D01*
X19131Y-27630D01*
X19133Y-27624D01*
X19135Y-27619D01*
X19136Y-27616D01*
X19136Y-27615D01*
X19138Y-27616D01*
X19141Y-27618D01*
X19146Y-27620D01*
X19146Y-27620D01*
X19157Y-27626D01*
X19169Y-27632D01*
X19182Y-27638D01*
X19194Y-27642D01*
X19200Y-27643D01*
X19211Y-27646D01*
X19223Y-27647D01*
X19235Y-27648D01*
X19246Y-27647D01*
X19252Y-27646D01*
X19265Y-27641D01*
X19278Y-27634D01*
X19289Y-27624D01*
X19298Y-27613D01*
X19299Y-27611D01*
X19303Y-27601D01*
X19307Y-27590D01*
X19310Y-27577D01*
X19313Y-27563D01*
X19313Y-27558D01*
X19314Y-27542D01*
X19314Y-27524D01*
X19312Y-27504D01*
X19309Y-27484D01*
X19305Y-27463D01*
X19300Y-27444D01*
X19294Y-27425D01*
X19290Y-27416D01*
X19282Y-27399D01*
X19273Y-27385D01*
X19263Y-27374D01*
X19252Y-27364D01*
X19239Y-27357D01*
X19224Y-27351D01*
X19224Y-27351D01*
X19218Y-27349D01*
X19212Y-27347D01*
X19207Y-27346D01*
X19200Y-27346D01*
X19191Y-27346D01*
X19166Y-27347D01*
X19142Y-27351D01*
X19119Y-27357D01*
X19108Y-27361D01*
X19102Y-27363D01*
X19098Y-27364D01*
X19096Y-27365D01*
X19096Y-27365D01*
X19096Y-27363D01*
X19095Y-27358D01*
X19094Y-27351D01*
X19092Y-27341D01*
X19090Y-27330D01*
X19088Y-27316D01*
X19086Y-27302D01*
X19083Y-27287D01*
X19071Y-27209D01*
X19039Y-27209D01*
X19029Y-27209D01*
X19020Y-27208D01*
X19013Y-27208D01*
X19009Y-27209D01*
X19007Y-27209D01*
X19007Y-27209D01*
X19007Y-27209D01*
G37*
G36*
X17979Y-27385D02*
X17979Y-27390D01*
X17979Y-27397D01*
X17980Y-27406D01*
X17982Y-27417D01*
X17984Y-27430D01*
X17986Y-27445D01*
X17988Y-27463D01*
X17991Y-27484D01*
X17994Y-27502D01*
X17997Y-27522D01*
X18000Y-27541D01*
X18002Y-27560D01*
X18005Y-27577D01*
X18007Y-27592D01*
X18009Y-27606D01*
X18011Y-27617D01*
X18012Y-27626D01*
X18013Y-27632D01*
X18014Y-27635D01*
X18015Y-27645D01*
X18040Y-27645D01*
X18045Y-27644D01*
X18045Y-27406D01*
X18047Y-27405D01*
X18052Y-27403D01*
X18058Y-27402D01*
X18059Y-27401D01*
X18071Y-27399D01*
X18085Y-27398D01*
X18100Y-27398D01*
X18113Y-27399D01*
X18125Y-27401D01*
X18137Y-27405D01*
X18148Y-27411D01*
X18157Y-27419D01*
X18163Y-27425D01*
X18167Y-27434D01*
X18172Y-27445D01*
X18176Y-27458D01*
X18180Y-27472D01*
X18184Y-27488D01*
X18186Y-27503D01*
X18188Y-27518D01*
X18190Y-27532D01*
X18190Y-27544D01*
X18189Y-27548D01*
X18188Y-27560D01*
X18184Y-27570D01*
X18179Y-27579D01*
X18174Y-27585D01*
X18167Y-27589D01*
X18166Y-27589D01*
X18162Y-27590D01*
X18159Y-27591D01*
X18155Y-27591D01*
X18148Y-27591D01*
X18140Y-27591D01*
X18132Y-27590D01*
X18124Y-27589D01*
X18117Y-27588D01*
X18116Y-27587D01*
X18110Y-27586D01*
X18103Y-27583D01*
X18095Y-27579D01*
X18086Y-27574D01*
X18079Y-27570D01*
X18073Y-27567D01*
X18071Y-27566D01*
X18070Y-27565D01*
X18070Y-27563D01*
X18069Y-27559D01*
X18068Y-27554D01*
X18066Y-27547D01*
X18065Y-27538D01*
X18063Y-27526D01*
X18060Y-27511D01*
X18058Y-27494D01*
X18056Y-27485D01*
X18054Y-27469D01*
X18052Y-27455D01*
X18050Y-27441D01*
X18048Y-27429D01*
X18047Y-27420D01*
X18046Y-27412D01*
X18046Y-27407D01*
X18045Y-27406D01*
X18045Y-27644D01*
X18064Y-27644D01*
X18069Y-27629D01*
X18074Y-27614D01*
X18081Y-27620D01*
X18090Y-27625D01*
X18101Y-27631D01*
X18113Y-27636D01*
X18126Y-27641D01*
X18131Y-27642D01*
X18140Y-27645D01*
X18152Y-27646D01*
X18163Y-27648D01*
X18174Y-27648D01*
X18183Y-27647D01*
X18184Y-27647D01*
X18199Y-27644D01*
X18212Y-27638D01*
X18223Y-27630D01*
X18230Y-27624D01*
X18238Y-27614D01*
X18244Y-27603D01*
X18249Y-27591D01*
X18252Y-27577D01*
X18253Y-27561D01*
X18253Y-27543D01*
X18252Y-27522D01*
X18250Y-27504D01*
X18247Y-27483D01*
X18244Y-27465D01*
X18240Y-27449D01*
X18235Y-27434D01*
X18229Y-27420D01*
X18221Y-27406D01*
X18221Y-27405D01*
X18212Y-27390D01*
X18203Y-27379D01*
X18192Y-27370D01*
X18180Y-27362D01*
X18175Y-27359D01*
X18165Y-27355D01*
X18155Y-27351D01*
X18146Y-27349D01*
X18136Y-27347D01*
X18125Y-27346D01*
X18116Y-27345D01*
X18100Y-27344D01*
X18085Y-27344D01*
X18070Y-27346D01*
X18054Y-27348D01*
X18040Y-27351D01*
X18026Y-27354D01*
X18014Y-27357D01*
X18004Y-27361D01*
X17995Y-27366D01*
X17992Y-27368D01*
X17989Y-27369D01*
X17986Y-27371D01*
X17984Y-27372D01*
X17982Y-27373D01*
X17981Y-27375D01*
X17980Y-27377D01*
X17979Y-27380D01*
X17979Y-27385D01*
X17979Y-27385D01*
X17979Y-27385D01*
G37*
G36*
X17558Y-27364D02*
X17558Y-27369D01*
X17559Y-27374D01*
X17560Y-27381D01*
X17561Y-27388D01*
X17562Y-27395D01*
X17563Y-27400D01*
X17564Y-27403D01*
X17564Y-27403D01*
X17566Y-27403D01*
X17571Y-27403D01*
X17578Y-27403D01*
X17587Y-27403D01*
X17597Y-27402D01*
X17601Y-27402D01*
X17619Y-27401D01*
X17635Y-27400D01*
X17651Y-27400D01*
X17665Y-27400D01*
X17677Y-27400D01*
X17686Y-27401D01*
X17693Y-27401D01*
X17696Y-27402D01*
X17705Y-27406D01*
X17713Y-27412D01*
X17720Y-27419D01*
X17721Y-27421D01*
X17726Y-27430D01*
X17730Y-27442D01*
X17734Y-27456D01*
X17738Y-27471D01*
X17742Y-27486D01*
X17744Y-27502D01*
X17747Y-27518D01*
X17748Y-27532D01*
X17749Y-27546D01*
X17748Y-27557D01*
X17747Y-27567D01*
X17746Y-27571D01*
X17741Y-27579D01*
X17734Y-27586D01*
X17726Y-27590D01*
X17722Y-27591D01*
X17717Y-27592D01*
X17708Y-27593D01*
X17697Y-27593D01*
X17683Y-27593D01*
X17668Y-27593D01*
X17652Y-27592D01*
X17635Y-27591D01*
X17629Y-27591D01*
X17618Y-27590D01*
X17608Y-27589D01*
X17600Y-27589D01*
X17594Y-27589D01*
X17591Y-27589D01*
X17590Y-27589D01*
X17590Y-27590D01*
X17590Y-27595D01*
X17591Y-27601D01*
X17592Y-27609D01*
X17592Y-27610D01*
X17596Y-27631D01*
X17610Y-27635D01*
X17633Y-27640D01*
X17657Y-27644D01*
X17676Y-27647D01*
X17684Y-27647D01*
X17693Y-27648D01*
X17704Y-27648D01*
X17715Y-27648D01*
X17725Y-27648D01*
X17734Y-27648D01*
X17741Y-27648D01*
X17745Y-27647D01*
X17752Y-27646D01*
X17760Y-27643D01*
X17768Y-27639D01*
X17775Y-27636D01*
X17776Y-27635D01*
X17788Y-27625D01*
X17797Y-27612D01*
X17805Y-27597D01*
X17808Y-27589D01*
X17810Y-27584D01*
X17811Y-27579D01*
X17812Y-27575D01*
X17812Y-27569D01*
X17812Y-27562D01*
X17812Y-27552D01*
X17812Y-27548D01*
X17811Y-27516D01*
X17807Y-27485D01*
X17801Y-27455D01*
X17792Y-27427D01*
X17787Y-27414D01*
X17779Y-27397D01*
X17770Y-27382D01*
X17760Y-27370D01*
X17749Y-27361D01*
X17736Y-27354D01*
X17721Y-27349D01*
X17704Y-27346D01*
X17685Y-27346D01*
X17663Y-27347D01*
X17663Y-27347D01*
X17651Y-27348D01*
X17638Y-27349D01*
X17625Y-27351D01*
X17611Y-27352D01*
X17599Y-27354D01*
X17587Y-27356D01*
X17576Y-27358D01*
X17568Y-27360D01*
X17561Y-27361D01*
X17558Y-27363D01*
X17558Y-27364D01*
X17558Y-27364D01*
X17558Y-27364D01*
G37*
G36*
X17274Y-27379D02*
X17293Y-27512D01*
X17297Y-27532D01*
X17299Y-27552D01*
X17302Y-27570D01*
X17305Y-27587D01*
X17307Y-27602D01*
X17309Y-27616D01*
X17311Y-27627D01*
X17312Y-27635D01*
X17313Y-27641D01*
X17313Y-27644D01*
X17313Y-27645D01*
X17315Y-27645D01*
X17319Y-27645D01*
X17326Y-27645D01*
X17334Y-27645D01*
X17337Y-27645D01*
X17343Y-27645D01*
X17343Y-27409D01*
X17344Y-27406D01*
X17347Y-27404D01*
X17350Y-27403D01*
X17356Y-27402D01*
X17363Y-27400D01*
X17364Y-27400D01*
X17370Y-27398D01*
X17379Y-27398D01*
X17389Y-27398D01*
X17399Y-27398D01*
X17410Y-27399D01*
X17418Y-27400D01*
X17422Y-27401D01*
X17437Y-27405D01*
X17448Y-27413D01*
X17458Y-27422D01*
X17465Y-27433D01*
X17470Y-27445D01*
X17474Y-27458D01*
X17478Y-27473D01*
X17482Y-27490D01*
X17485Y-27506D01*
X17486Y-27522D01*
X17487Y-27537D01*
X17487Y-27549D01*
X17487Y-27552D01*
X17485Y-27563D01*
X17481Y-27572D01*
X17477Y-27580D01*
X17474Y-27584D01*
X17468Y-27587D01*
X17460Y-27590D01*
X17449Y-27591D01*
X17438Y-27591D01*
X17426Y-27590D01*
X17417Y-27588D01*
X17410Y-27586D01*
X17401Y-27583D01*
X17393Y-27579D01*
X17384Y-27575D01*
X17377Y-27571D01*
X17371Y-27566D01*
X17367Y-27563D01*
X17366Y-27561D01*
X17365Y-27558D01*
X17364Y-27553D01*
X17363Y-27544D01*
X17362Y-27534D01*
X17360Y-27523D01*
X17358Y-27510D01*
X17356Y-27496D01*
X17354Y-27483D01*
X17352Y-27469D01*
X17350Y-27455D01*
X17348Y-27443D01*
X17346Y-27432D01*
X17345Y-27423D01*
X17344Y-27415D01*
X17344Y-27411D01*
X17343Y-27409D01*
X17343Y-27645D01*
X17361Y-27645D01*
X17367Y-27629D01*
X17372Y-27614D01*
X17380Y-27619D01*
X17394Y-27628D01*
X17410Y-27636D01*
X17427Y-27642D01*
X17445Y-27646D01*
X17463Y-27648D01*
X17479Y-27647D01*
X17489Y-27646D01*
X17504Y-27641D01*
X17517Y-27634D01*
X17528Y-27624D01*
X17538Y-27611D01*
X17545Y-27596D01*
X17550Y-27579D01*
X17550Y-27577D01*
X17551Y-27569D01*
X17551Y-27557D01*
X17551Y-27544D01*
X17550Y-27529D01*
X17549Y-27513D01*
X17547Y-27497D01*
X17545Y-27482D01*
X17542Y-27469D01*
X17538Y-27453D01*
X17533Y-27436D01*
X17527Y-27420D01*
X17519Y-27406D01*
X17512Y-27393D01*
X17506Y-27385D01*
X17494Y-27373D01*
X17480Y-27363D01*
X17464Y-27355D01*
X17447Y-27349D01*
X17439Y-27348D01*
X17428Y-27346D01*
X17416Y-27345D01*
X17404Y-27344D01*
X17393Y-27344D01*
X17382Y-27344D01*
X17379Y-27344D01*
X17371Y-27345D01*
X17361Y-27347D01*
X17349Y-27349D01*
X17338Y-27351D01*
X17327Y-27354D01*
X17317Y-27356D01*
X17310Y-27358D01*
X17309Y-27359D01*
X17299Y-27363D01*
X17290Y-27367D01*
X17282Y-27372D01*
X17278Y-27375D01*
X17274Y-27379D01*
X17274Y-27379D01*
X17274Y-27379D01*
G37*
G36*
X16284Y-27363D02*
X16284Y-27364D01*
X16284Y-27368D01*
X16285Y-27374D01*
X16286Y-27381D01*
X16287Y-27388D01*
X16288Y-27394D01*
X16289Y-27399D01*
X16289Y-27400D01*
X16290Y-27404D01*
X16324Y-27402D01*
X16337Y-27401D01*
X16352Y-27401D01*
X16368Y-27400D01*
X16382Y-27400D01*
X16390Y-27400D01*
X16401Y-27401D01*
X16410Y-27401D01*
X16416Y-27401D01*
X16421Y-27402D01*
X16424Y-27402D01*
X16427Y-27403D01*
X16429Y-27404D01*
X16436Y-27409D01*
X16443Y-27415D01*
X16448Y-27423D01*
X16453Y-27432D01*
X16457Y-27445D01*
X16460Y-27454D01*
X16465Y-27474D01*
X16469Y-27494D01*
X16472Y-27513D01*
X16474Y-27531D01*
X16475Y-27546D01*
X16475Y-27553D01*
X16474Y-27561D01*
X16473Y-27567D01*
X16472Y-27571D01*
X16469Y-27575D01*
X16464Y-27583D01*
X16456Y-27589D01*
X16449Y-27591D01*
X16444Y-27592D01*
X16435Y-27593D01*
X16425Y-27593D01*
X16412Y-27593D01*
X16397Y-27593D01*
X16381Y-27592D01*
X16364Y-27591D01*
X16354Y-27591D01*
X16344Y-27590D01*
X16334Y-27589D01*
X16326Y-27589D01*
X16320Y-27589D01*
X16316Y-27589D01*
X16316Y-27589D01*
X16316Y-27591D01*
X16316Y-27595D01*
X16317Y-27601D01*
X16318Y-27608D01*
X16319Y-27615D01*
X16321Y-27622D01*
X16322Y-27627D01*
X16323Y-27630D01*
X16323Y-27630D01*
X16325Y-27631D01*
X16330Y-27633D01*
X16337Y-27635D01*
X16345Y-27637D01*
X16354Y-27639D01*
X16362Y-27641D01*
X16369Y-27642D01*
X16382Y-27644D01*
X16396Y-27646D01*
X16412Y-27647D01*
X16427Y-27648D01*
X16441Y-27648D01*
X16455Y-27648D01*
X16467Y-27647D01*
X16476Y-27646D01*
X16478Y-27645D01*
X16493Y-27640D01*
X16506Y-27632D01*
X16517Y-27621D01*
X16526Y-27607D01*
X16527Y-27604D01*
X16532Y-27595D01*
X16535Y-27586D01*
X16537Y-27577D01*
X16538Y-27568D01*
X16538Y-27556D01*
X16539Y-27549D01*
X16537Y-27517D01*
X16533Y-27486D01*
X16526Y-27454D01*
X16523Y-27442D01*
X16516Y-27421D01*
X16508Y-27402D01*
X16500Y-27387D01*
X16490Y-27374D01*
X16478Y-27364D01*
X16466Y-27356D01*
X16451Y-27350D01*
X16446Y-27349D01*
X16437Y-27347D01*
X16425Y-27346D01*
X16410Y-27346D01*
X16394Y-27346D01*
X16377Y-27348D01*
X16358Y-27349D01*
X16339Y-27352D01*
X16321Y-27355D01*
X16302Y-27358D01*
X16301Y-27359D01*
X16294Y-27360D01*
X16288Y-27361D01*
X16285Y-27362D01*
X16284Y-27363D01*
X16284Y-27363D01*
X16284Y-27363D01*
G37*
G36*
X16002Y-27382D02*
X16002Y-27385D01*
X16002Y-27390D01*
X16003Y-27396D01*
X16004Y-27403D01*
X16005Y-27413D01*
X16007Y-27424D01*
X16009Y-27438D01*
X16011Y-27455D01*
X16014Y-27474D01*
X16017Y-27496D01*
X16019Y-27510D01*
X16022Y-27531D01*
X16025Y-27550D01*
X16028Y-27568D01*
X16030Y-27585D01*
X16033Y-27601D01*
X16035Y-27614D01*
X16036Y-27625D01*
X16038Y-27634D01*
X16039Y-27640D01*
X16039Y-27643D01*
X16039Y-27643D01*
X16040Y-27644D01*
X16043Y-27644D01*
X16049Y-27645D01*
X16056Y-27645D01*
X16064Y-27645D01*
X16069Y-27645D01*
X16069Y-27408D01*
X16069Y-27406D01*
X16071Y-27405D01*
X16075Y-27404D01*
X16082Y-27402D01*
X16084Y-27401D01*
X16100Y-27398D01*
X16116Y-27397D01*
X16132Y-27398D01*
X16148Y-27401D01*
X16161Y-27405D01*
X16167Y-27408D01*
X16175Y-27414D01*
X16183Y-27421D01*
X16189Y-27430D01*
X16195Y-27442D01*
X16200Y-27457D01*
X16204Y-27474D01*
X16209Y-27494D01*
X16209Y-27498D01*
X16212Y-27519D01*
X16213Y-27537D01*
X16213Y-27553D01*
X16210Y-27565D01*
X16206Y-27576D01*
X16200Y-27583D01*
X16197Y-27585D01*
X16188Y-27589D01*
X16177Y-27591D01*
X16163Y-27591D01*
X16150Y-27589D01*
X16139Y-27587D01*
X16128Y-27583D01*
X16116Y-27578D01*
X16106Y-27572D01*
X16092Y-27564D01*
X16081Y-27489D01*
X16079Y-27474D01*
X16076Y-27459D01*
X16074Y-27446D01*
X16073Y-27434D01*
X16071Y-27424D01*
X16070Y-27416D01*
X16069Y-27412D01*
X16069Y-27410D01*
X16069Y-27408D01*
X16069Y-27645D01*
X16087Y-27644D01*
X16093Y-27629D01*
X16098Y-27614D01*
X16110Y-27623D01*
X16126Y-27632D01*
X16144Y-27639D01*
X16163Y-27644D01*
X16181Y-27647D01*
X16199Y-27648D01*
X16207Y-27647D01*
X16224Y-27644D01*
X16238Y-27637D01*
X16249Y-27629D01*
X16251Y-27627D01*
X16260Y-27617D01*
X16267Y-27605D01*
X16272Y-27593D01*
X16275Y-27578D01*
X16277Y-27562D01*
X16277Y-27543D01*
X16277Y-27534D01*
X16275Y-27508D01*
X16271Y-27485D01*
X16267Y-27464D01*
X16262Y-27445D01*
X16255Y-27427D01*
X16249Y-27413D01*
X16244Y-27404D01*
X16240Y-27397D01*
X16237Y-27391D01*
X16233Y-27386D01*
X16228Y-27381D01*
X16225Y-27378D01*
X16216Y-27370D01*
X16208Y-27364D01*
X16200Y-27360D01*
X16189Y-27355D01*
X16178Y-27351D01*
X16168Y-27348D01*
X16157Y-27346D01*
X16144Y-27345D01*
X16129Y-27345D01*
X16123Y-27345D01*
X16111Y-27345D01*
X16102Y-27345D01*
X16094Y-27345D01*
X16086Y-27347D01*
X16077Y-27348D01*
X16074Y-27349D01*
X16064Y-27351D01*
X16054Y-27353D01*
X16045Y-27356D01*
X16039Y-27357D01*
X16030Y-27361D01*
X16021Y-27365D01*
X16013Y-27369D01*
X16006Y-27374D01*
X16003Y-27376D01*
X16002Y-27377D01*
X16002Y-27378D01*
X16002Y-27379D01*
X16002Y-27382D01*
X16002Y-27382D01*
X16002Y-27382D01*
G37*
G36*
X20688Y-27419D02*
X20689Y-27425D01*
X20690Y-27433D01*
X20691Y-27445D01*
X20693Y-27460D01*
X20696Y-27478D01*
X20699Y-27500D01*
X20703Y-27525D01*
X20704Y-27534D01*
X20707Y-27552D01*
X20710Y-27569D01*
X20712Y-27585D01*
X20715Y-27599D01*
X20717Y-27612D01*
X20718Y-27623D01*
X20720Y-27631D01*
X20721Y-27637D01*
X20721Y-27640D01*
X20722Y-27645D01*
X20754Y-27645D01*
X20787Y-27645D01*
X20786Y-27641D01*
X20785Y-27637D01*
X20784Y-27629D01*
X20782Y-27620D01*
X20780Y-27608D01*
X20778Y-27594D01*
X20776Y-27580D01*
X20773Y-27564D01*
X20771Y-27548D01*
X20768Y-27531D01*
X20766Y-27515D01*
X20763Y-27499D01*
X20761Y-27484D01*
X20759Y-27470D01*
X20757Y-27457D01*
X20756Y-27447D01*
X20755Y-27439D01*
X20754Y-27434D01*
X20754Y-27432D01*
X20755Y-27422D01*
X20757Y-27415D01*
X20761Y-27409D01*
X20767Y-27404D01*
X20768Y-27404D01*
X20771Y-27402D01*
X20774Y-27401D01*
X20777Y-27400D01*
X20782Y-27400D01*
X20789Y-27400D01*
X20795Y-27400D01*
X20806Y-27401D01*
X20815Y-27402D01*
X20824Y-27404D01*
X20833Y-27407D01*
X20842Y-27411D01*
X20854Y-27417D01*
X20857Y-27418D01*
X20876Y-27427D01*
X20892Y-27529D01*
X20895Y-27547D01*
X20898Y-27565D01*
X20900Y-27581D01*
X20903Y-27596D01*
X20905Y-27609D01*
X20906Y-27620D01*
X20908Y-27629D01*
X20909Y-27635D01*
X20909Y-27638D01*
X20909Y-27638D01*
X20910Y-27645D01*
X20943Y-27645D01*
X20954Y-27645D01*
X20963Y-27645D01*
X20969Y-27645D01*
X20973Y-27644D01*
X20974Y-27643D01*
X20975Y-27643D01*
X20974Y-27641D01*
X20973Y-27636D01*
X20972Y-27628D01*
X20970Y-27618D01*
X20968Y-27605D01*
X20966Y-27589D01*
X20963Y-27572D01*
X20960Y-27552D01*
X20957Y-27531D01*
X20953Y-27508D01*
X20949Y-27484D01*
X20945Y-27459D01*
X20941Y-27433D01*
X20940Y-27425D01*
X20906Y-27210D01*
X20874Y-27210D01*
X20864Y-27210D01*
X20855Y-27210D01*
X20848Y-27210D01*
X20844Y-27211D01*
X20842Y-27211D01*
X20842Y-27211D01*
X20842Y-27213D01*
X20843Y-27218D01*
X20844Y-27225D01*
X20845Y-27235D01*
X20847Y-27247D01*
X20849Y-27260D01*
X20852Y-27275D01*
X20854Y-27291D01*
X20855Y-27295D01*
X20858Y-27311D01*
X20860Y-27327D01*
X20862Y-27341D01*
X20864Y-27353D01*
X20866Y-27363D01*
X20867Y-27372D01*
X20868Y-27377D01*
X20868Y-27380D01*
X20868Y-27380D01*
X20867Y-27380D01*
X20864Y-27379D01*
X20860Y-27377D01*
X20845Y-27369D01*
X20832Y-27362D01*
X20821Y-27357D01*
X20811Y-27353D01*
X20801Y-27350D01*
X20791Y-27348D01*
X20781Y-27346D01*
X20770Y-27346D01*
X20760Y-27345D01*
X20752Y-27345D01*
X20746Y-27346D01*
X20740Y-27347D01*
X20726Y-27352D01*
X20713Y-27360D01*
X20703Y-27370D01*
X20696Y-27382D01*
X20691Y-27396D01*
X20689Y-27412D01*
X20688Y-27419D01*
X20688Y-27419D01*
X20688Y-27419D01*
G37*
G36*
X20463Y-27353D02*
X20464Y-27356D01*
X20464Y-27361D01*
X20465Y-27368D01*
X20467Y-27376D01*
X20467Y-27379D01*
X20471Y-27402D01*
X20507Y-27402D01*
X20544Y-27402D01*
X20555Y-27467D01*
X20558Y-27490D01*
X20561Y-27509D01*
X20563Y-27525D01*
X20565Y-27539D01*
X20566Y-27551D01*
X20566Y-27560D01*
X20566Y-27568D01*
X20566Y-27574D01*
X20564Y-27578D01*
X20563Y-27582D01*
X20560Y-27585D01*
X20558Y-27587D01*
X20554Y-27588D01*
X20548Y-27591D01*
X20540Y-27593D01*
X20532Y-27596D01*
X20531Y-27596D01*
X20522Y-27599D01*
X20517Y-27601D01*
X20513Y-27602D01*
X20511Y-27604D01*
X20510Y-27605D01*
X20510Y-27606D01*
X20510Y-27609D01*
X20511Y-27614D01*
X20512Y-27621D01*
X20513Y-27627D01*
X20516Y-27644D01*
X20544Y-27644D01*
X20554Y-27644D01*
X20564Y-27644D01*
X20573Y-27644D01*
X20579Y-27643D01*
X20582Y-27643D01*
X20595Y-27639D01*
X20607Y-27633D01*
X20617Y-27625D01*
X20624Y-27614D01*
X20624Y-27614D01*
X20627Y-27608D01*
X20629Y-27601D01*
X20631Y-27595D01*
X20632Y-27587D01*
X20632Y-27579D01*
X20632Y-27569D01*
X20631Y-27558D01*
X20630Y-27545D01*
X20628Y-27529D01*
X20626Y-27511D01*
X20623Y-27490D01*
X20621Y-27481D01*
X20619Y-27466D01*
X20616Y-27452D01*
X20614Y-27439D01*
X20613Y-27427D01*
X20611Y-27418D01*
X20610Y-27411D01*
X20609Y-27407D01*
X20609Y-27406D01*
X20608Y-27402D01*
X20633Y-27402D01*
X20644Y-27401D01*
X20652Y-27401D01*
X20657Y-27401D01*
X20658Y-27400D01*
X20658Y-27398D01*
X20657Y-27393D01*
X20657Y-27386D01*
X20656Y-27381D01*
X20653Y-27363D01*
X20644Y-27361D01*
X20639Y-27360D01*
X20632Y-27358D01*
X20623Y-27355D01*
X20618Y-27354D01*
X20611Y-27352D01*
X20605Y-27351D01*
X20602Y-27350D01*
X20600Y-27349D01*
X20600Y-27348D01*
X20598Y-27343D01*
X20596Y-27337D01*
X20594Y-27329D01*
X20592Y-27324D01*
X20589Y-27314D01*
X20586Y-27303D01*
X20583Y-27293D01*
X20580Y-27284D01*
X20580Y-27283D01*
X20575Y-27267D01*
X20549Y-27267D01*
X20539Y-27267D01*
X20531Y-27267D01*
X20527Y-27267D01*
X20524Y-27268D01*
X20523Y-27269D01*
X20524Y-27271D01*
X20524Y-27276D01*
X20525Y-27283D01*
X20527Y-27292D01*
X20528Y-27303D01*
X20529Y-27307D01*
X20531Y-27318D01*
X20532Y-27328D01*
X20534Y-27336D01*
X20535Y-27343D01*
X20535Y-27346D01*
X20535Y-27347D01*
X20535Y-27348D01*
X20534Y-27349D01*
X20532Y-27349D01*
X20528Y-27350D01*
X20523Y-27350D01*
X20515Y-27350D01*
X20504Y-27350D01*
X20499Y-27350D01*
X20487Y-27350D01*
X20478Y-27350D01*
X20472Y-27350D01*
X20468Y-27351D01*
X20465Y-27351D01*
X20464Y-27352D01*
X20463Y-27352D01*
X20463Y-27353D01*
X20463Y-27353D01*
X20463Y-27353D01*
G37*
G36*
X20254Y-27353D02*
X20254Y-27356D01*
X20255Y-27361D01*
X20256Y-27368D01*
X20257Y-27376D01*
X20257Y-27378D01*
X20261Y-27401D01*
X20298Y-27401D01*
X20309Y-27401D01*
X20319Y-27402D01*
X20327Y-27402D01*
X20332Y-27403D01*
X20335Y-27403D01*
X20335Y-27403D01*
X20335Y-27405D01*
X20336Y-27410D01*
X20337Y-27417D01*
X20339Y-27427D01*
X20340Y-27439D01*
X20342Y-27451D01*
X20345Y-27465D01*
X20345Y-27469D01*
X20349Y-27491D01*
X20351Y-27510D01*
X20354Y-27526D01*
X20355Y-27539D01*
X20357Y-27551D01*
X20357Y-27560D01*
X20357Y-27568D01*
X20356Y-27573D01*
X20355Y-27578D01*
X20353Y-27582D01*
X20351Y-27584D01*
X20348Y-27587D01*
X20345Y-27588D01*
X20341Y-27590D01*
X20335Y-27592D01*
X20327Y-27595D01*
X20320Y-27597D01*
X20313Y-27599D01*
X20306Y-27601D01*
X20302Y-27602D01*
X20300Y-27603D01*
X20301Y-27604D01*
X20301Y-27608D01*
X20302Y-27615D01*
X20303Y-27622D01*
X20303Y-27623D01*
X20305Y-27630D01*
X20306Y-27637D01*
X20306Y-27642D01*
X20307Y-27644D01*
X20307Y-27644D01*
X20308Y-27644D01*
X20313Y-27645D01*
X20319Y-27645D01*
X20327Y-27645D01*
X20336Y-27645D01*
X20345Y-27645D01*
X20354Y-27644D01*
X20362Y-27644D01*
X20368Y-27644D01*
X20372Y-27643D01*
X20386Y-27639D01*
X20397Y-27633D01*
X20407Y-27624D01*
X20415Y-27613D01*
X20420Y-27600D01*
X20423Y-27584D01*
X20423Y-27567D01*
X20423Y-27564D01*
X20422Y-27558D01*
X20422Y-27550D01*
X20420Y-27540D01*
X20418Y-27528D01*
X20416Y-27514D01*
X20414Y-27499D01*
X20412Y-27484D01*
X20411Y-27478D01*
X20409Y-27463D01*
X20407Y-27449D01*
X20405Y-27436D01*
X20403Y-27425D01*
X20402Y-27416D01*
X20401Y-27410D01*
X20400Y-27406D01*
X20400Y-27405D01*
X20400Y-27404D01*
X20401Y-27403D01*
X20403Y-27402D01*
X20406Y-27402D01*
X20412Y-27402D01*
X20420Y-27402D01*
X20425Y-27402D01*
X20450Y-27402D01*
X20447Y-27385D01*
X20446Y-27378D01*
X20445Y-27372D01*
X20444Y-27367D01*
X20443Y-27366D01*
X20442Y-27364D01*
X20440Y-27363D01*
X20436Y-27361D01*
X20429Y-27359D01*
X20420Y-27357D01*
X20417Y-27356D01*
X20406Y-27353D01*
X20397Y-27350D01*
X20392Y-27348D01*
X20390Y-27347D01*
X20390Y-27347D01*
X20390Y-27344D01*
X20388Y-27339D01*
X20386Y-27332D01*
X20383Y-27323D01*
X20380Y-27313D01*
X20378Y-27306D01*
X20366Y-27267D01*
X20340Y-27267D01*
X20313Y-27267D01*
X20314Y-27272D01*
X20315Y-27279D01*
X20317Y-27287D01*
X20318Y-27297D01*
X20320Y-27307D01*
X20321Y-27317D01*
X20323Y-27327D01*
X20324Y-27335D01*
X20325Y-27342D01*
X20325Y-27347D01*
X20325Y-27349D01*
X20325Y-27349D01*
X20323Y-27349D01*
X20319Y-27350D01*
X20312Y-27350D01*
X20303Y-27350D01*
X20293Y-27350D01*
X20289Y-27350D01*
X20277Y-27350D01*
X20268Y-27350D01*
X20262Y-27350D01*
X20258Y-27351D01*
X20255Y-27351D01*
X20254Y-27352D01*
X20254Y-27352D01*
X20254Y-27353D01*
X20254Y-27353D01*
X20254Y-27353D01*
G37*
G36*
X19870Y-27585D02*
X19870Y-27588D01*
X19871Y-27594D01*
X19872Y-27601D01*
X19874Y-27610D01*
X19874Y-27613D01*
X19876Y-27624D01*
X19878Y-27632D01*
X19880Y-27637D01*
X19882Y-27641D01*
X19886Y-27643D01*
X19892Y-27644D01*
X19901Y-27644D01*
X19911Y-27645D01*
X19922Y-27645D01*
X19929Y-27645D01*
X19934Y-27644D01*
X19938Y-27644D01*
X19940Y-27643D01*
X19941Y-27642D01*
X19944Y-27639D01*
X19945Y-27634D01*
X19945Y-27629D01*
X19944Y-27623D01*
X19943Y-27615D01*
X19941Y-27606D01*
X19940Y-27597D01*
X19938Y-27590D01*
X19937Y-27585D01*
X19937Y-27583D01*
X19935Y-27580D01*
X19933Y-27578D01*
X19929Y-27577D01*
X19923Y-27576D01*
X19915Y-27575D01*
X19905Y-27575D01*
X19902Y-27575D01*
X19891Y-27575D01*
X19882Y-27576D01*
X19877Y-27576D01*
X19873Y-27578D01*
X19871Y-27580D01*
X19870Y-27583D01*
X19870Y-27585D01*
X19870Y-27585D01*
X19870Y-27585D01*
G37*
G36*
X18912Y-27351D02*
X18912Y-27353D01*
X18913Y-27358D01*
X18914Y-27365D01*
X18915Y-27375D01*
X18917Y-27387D01*
X18919Y-27401D01*
X18922Y-27417D01*
X18925Y-27433D01*
X18927Y-27451D01*
X18930Y-27470D01*
X18933Y-27488D01*
X18936Y-27507D01*
X18939Y-27526D01*
X18942Y-27545D01*
X18945Y-27562D01*
X18948Y-27579D01*
X18950Y-27594D01*
X18952Y-27608D01*
X18954Y-27619D01*
X18956Y-27629D01*
X18957Y-27636D01*
X18957Y-27640D01*
X18958Y-27641D01*
X18958Y-27643D01*
X18959Y-27644D01*
X18960Y-27644D01*
X18963Y-27645D01*
X18968Y-27645D01*
X18975Y-27645D01*
X18984Y-27645D01*
X18990Y-27645D01*
X19002Y-27645D01*
X19010Y-27645D01*
X19016Y-27644D01*
X19020Y-27644D01*
X19022Y-27643D01*
X19022Y-27643D01*
X19022Y-27641D01*
X19021Y-27636D01*
X19020Y-27628D01*
X19018Y-27618D01*
X19016Y-27605D01*
X19014Y-27590D01*
X19011Y-27574D01*
X19008Y-27555D01*
X19005Y-27536D01*
X19002Y-27515D01*
X18999Y-27495D01*
X18976Y-27350D01*
X18944Y-27350D01*
X18934Y-27350D01*
X18925Y-27350D01*
X18918Y-27350D01*
X18914Y-27351D01*
X18912Y-27351D01*
X18912Y-27351D01*
X18912Y-27351D01*
X18912Y-27351D01*
G37*
G36*
X18484Y-27351D02*
X18503Y-27468D01*
X18506Y-27489D01*
X18509Y-27509D01*
X18512Y-27528D01*
X18515Y-27547D01*
X18518Y-27564D01*
X18520Y-27579D01*
X18522Y-27593D01*
X18524Y-27604D01*
X18525Y-27612D01*
X18526Y-27615D01*
X18531Y-27645D01*
X18563Y-27645D01*
X18595Y-27645D01*
X18594Y-27640D01*
X18594Y-27638D01*
X18593Y-27633D01*
X18592Y-27625D01*
X18590Y-27614D01*
X18588Y-27601D01*
X18586Y-27586D01*
X18583Y-27569D01*
X18580Y-27551D01*
X18577Y-27531D01*
X18574Y-27510D01*
X18571Y-27493D01*
X18568Y-27472D01*
X18564Y-27452D01*
X18561Y-27433D01*
X18558Y-27415D01*
X18556Y-27399D01*
X18554Y-27384D01*
X18552Y-27372D01*
X18550Y-27363D01*
X18549Y-27356D01*
X18548Y-27352D01*
X18548Y-27351D01*
X18546Y-27350D01*
X18541Y-27350D01*
X18535Y-27350D01*
X18526Y-27350D01*
X18516Y-27350D01*
X18516Y-27350D01*
X18484Y-27351D01*
X18484Y-27351D01*
X18484Y-27351D01*
G37*
G36*
X18261Y-27351D02*
X18265Y-27376D01*
X18269Y-27402D01*
X18306Y-27402D01*
X18342Y-27402D01*
X18353Y-27468D01*
X18356Y-27490D01*
X18359Y-27508D01*
X18361Y-27523D01*
X18363Y-27536D01*
X18364Y-27547D01*
X18365Y-27556D01*
X18365Y-27563D01*
X18364Y-27569D01*
X18364Y-27573D01*
X18363Y-27577D01*
X18363Y-27577D01*
X18361Y-27581D01*
X18358Y-27584D01*
X18355Y-27587D01*
X18349Y-27590D01*
X18342Y-27592D01*
X18332Y-27595D01*
X18327Y-27597D01*
X18320Y-27599D01*
X18314Y-27601D01*
X18311Y-27603D01*
X18309Y-27605D01*
X18309Y-27609D01*
X18309Y-27615D01*
X18311Y-27623D01*
X18311Y-27627D01*
X18314Y-27644D01*
X18343Y-27644D01*
X18353Y-27644D01*
X18362Y-27644D01*
X18371Y-27644D01*
X18377Y-27643D01*
X18380Y-27643D01*
X18394Y-27639D01*
X18406Y-27633D01*
X18415Y-27625D01*
X18422Y-27614D01*
X18427Y-27600D01*
X18430Y-27584D01*
X18430Y-27571D01*
X18430Y-27565D01*
X18430Y-27559D01*
X18429Y-27551D01*
X18428Y-27542D01*
X18427Y-27531D01*
X18425Y-27518D01*
X18422Y-27502D01*
X18419Y-27484D01*
X18419Y-27482D01*
X18417Y-27467D01*
X18415Y-27453D01*
X18413Y-27440D01*
X18411Y-27429D01*
X18409Y-27419D01*
X18408Y-27412D01*
X18407Y-27408D01*
X18407Y-27407D01*
X18406Y-27402D01*
X18431Y-27402D01*
X18440Y-27402D01*
X18448Y-27401D01*
X18453Y-27401D01*
X18456Y-27401D01*
X18457Y-27400D01*
X18456Y-27398D01*
X18456Y-27394D01*
X18455Y-27387D01*
X18454Y-27381D01*
X18451Y-27363D01*
X18443Y-27361D01*
X18437Y-27359D01*
X18430Y-27358D01*
X18422Y-27355D01*
X18417Y-27354D01*
X18410Y-27352D01*
X18404Y-27351D01*
X18400Y-27349D01*
X18399Y-27349D01*
X18398Y-27347D01*
X18397Y-27343D01*
X18395Y-27337D01*
X18392Y-27329D01*
X18390Y-27322D01*
X18387Y-27312D01*
X18384Y-27301D01*
X18381Y-27292D01*
X18378Y-27284D01*
X18378Y-27281D01*
X18373Y-27267D01*
X18347Y-27267D01*
X18337Y-27267D01*
X18330Y-27267D01*
X18326Y-27267D01*
X18323Y-27268D01*
X18322Y-27268D01*
X18322Y-27269D01*
X18322Y-27271D01*
X18323Y-27276D01*
X18324Y-27284D01*
X18325Y-27293D01*
X18327Y-27303D01*
X18327Y-27308D01*
X18329Y-27319D01*
X18331Y-27329D01*
X18332Y-27337D01*
X18333Y-27343D01*
X18333Y-27347D01*
X18333Y-27347D01*
X18333Y-27348D01*
X18331Y-27349D01*
X18328Y-27349D01*
X18323Y-27350D01*
X18315Y-27350D01*
X18305Y-27350D01*
X18297Y-27350D01*
X18261Y-27351D01*
X18261Y-27351D01*
X18261Y-27351D01*
G37*
G36*
X17829Y-27603D02*
X17829Y-27604D01*
X17829Y-27608D01*
X17830Y-27614D01*
X17831Y-27621D01*
X17832Y-27628D01*
X17833Y-27635D01*
X17834Y-27640D01*
X17834Y-27640D01*
X17835Y-27645D01*
X17862Y-27645D01*
X17872Y-27645D01*
X17881Y-27644D01*
X17890Y-27644D01*
X17895Y-27643D01*
X17897Y-27643D01*
X17912Y-27640D01*
X17924Y-27634D01*
X17933Y-27626D01*
X17941Y-27616D01*
X17943Y-27611D01*
X17948Y-27598D01*
X17951Y-27584D01*
X17951Y-27568D01*
X17951Y-27562D01*
X17951Y-27558D01*
X17950Y-27552D01*
X17949Y-27544D01*
X17947Y-27533D01*
X17945Y-27519D01*
X17943Y-27504D01*
X17940Y-27487D01*
X17937Y-27469D01*
X17934Y-27450D01*
X17931Y-27430D01*
X17928Y-27410D01*
X17925Y-27389D01*
X17922Y-27368D01*
X17918Y-27347D01*
X17915Y-27327D01*
X17912Y-27308D01*
X17909Y-27289D01*
X17907Y-27272D01*
X17904Y-27257D01*
X17902Y-27243D01*
X17900Y-27231D01*
X17898Y-27222D01*
X17897Y-27215D01*
X17896Y-27211D01*
X17896Y-27211D01*
X17894Y-27210D01*
X17890Y-27210D01*
X17883Y-27210D01*
X17874Y-27210D01*
X17864Y-27210D01*
X17864Y-27210D01*
X17832Y-27211D01*
X17858Y-27372D01*
X17862Y-27400D01*
X17866Y-27424D01*
X17869Y-27445D01*
X17872Y-27464D01*
X17875Y-27480D01*
X17877Y-27494D01*
X17879Y-27506D01*
X17880Y-27516D01*
X17881Y-27525D01*
X17882Y-27532D01*
X17883Y-27539D01*
X17883Y-27544D01*
X17884Y-27549D01*
X17884Y-27553D01*
X17884Y-27556D01*
X17884Y-27579D01*
X17878Y-27584D01*
X17875Y-27587D01*
X17870Y-27589D01*
X17864Y-27592D01*
X17855Y-27595D01*
X17851Y-27596D01*
X17843Y-27598D01*
X17836Y-27600D01*
X17831Y-27602D01*
X17829Y-27603D01*
X17829Y-27603D01*
X17829Y-27603D01*
X17829Y-27603D01*
G37*
G36*
X16974Y-27370D02*
X16975Y-27382D01*
X16977Y-27395D01*
X16980Y-27405D01*
X16981Y-27408D01*
X16984Y-27414D01*
X16988Y-27422D01*
X16993Y-27433D01*
X16999Y-27445D01*
X17007Y-27460D01*
X17014Y-27475D01*
X17023Y-27492D01*
X17032Y-27510D01*
X17041Y-27528D01*
X17042Y-27530D01*
X17101Y-27644D01*
X17142Y-27645D01*
X17153Y-27645D01*
X17163Y-27645D01*
X17171Y-27645D01*
X17177Y-27644D01*
X17181Y-27644D01*
X17182Y-27644D01*
X17182Y-27642D01*
X17183Y-27637D01*
X17185Y-27629D01*
X17187Y-27619D01*
X17189Y-27607D01*
X17192Y-27592D01*
X17196Y-27576D01*
X17199Y-27558D01*
X17203Y-27538D01*
X17208Y-27518D01*
X17212Y-27498D01*
X17216Y-27476D01*
X17220Y-27456D01*
X17224Y-27436D01*
X17228Y-27418D01*
X17231Y-27402D01*
X17234Y-27387D01*
X17237Y-27375D01*
X17239Y-27365D01*
X17240Y-27358D01*
X17241Y-27353D01*
X17242Y-27351D01*
X17240Y-27351D01*
X17236Y-27351D01*
X17229Y-27350D01*
X17219Y-27350D01*
X17209Y-27350D01*
X17208Y-27350D01*
X17174Y-27351D01*
X17154Y-27458D01*
X17151Y-27477D01*
X17147Y-27494D01*
X17144Y-27511D01*
X17141Y-27526D01*
X17139Y-27539D01*
X17137Y-27550D01*
X17135Y-27558D01*
X17134Y-27564D01*
X17133Y-27568D01*
X17133Y-27568D01*
X17132Y-27567D01*
X17130Y-27563D01*
X17127Y-27557D01*
X17123Y-27549D01*
X17117Y-27539D01*
X17112Y-27528D01*
X17105Y-27515D01*
X17099Y-27502D01*
X17092Y-27488D01*
X17084Y-27473D01*
X17077Y-27459D01*
X17071Y-27445D01*
X17064Y-27431D01*
X17058Y-27419D01*
X17053Y-27407D01*
X17048Y-27398D01*
X17045Y-27390D01*
X17042Y-27384D01*
X17041Y-27381D01*
X17039Y-27373D01*
X17037Y-27365D01*
X17036Y-27359D01*
X17036Y-27358D01*
X17035Y-27350D01*
X17005Y-27350D01*
X16976Y-27351D01*
X16975Y-27360D01*
X16974Y-27370D01*
X16974Y-27370D01*
X16974Y-27370D01*
G37*
G36*
X16610Y-27585D02*
X16610Y-27588D01*
X16611Y-27594D01*
X16612Y-27602D01*
X16614Y-27610D01*
X16615Y-27618D01*
X16617Y-27626D01*
X16618Y-27633D01*
X16620Y-27637D01*
X16620Y-27638D01*
X16622Y-27641D01*
X16625Y-27643D01*
X16629Y-27644D01*
X16635Y-27645D01*
X16643Y-27645D01*
X16654Y-27645D01*
X16664Y-27645D01*
X16671Y-27645D01*
X16676Y-27644D01*
X16679Y-27643D01*
X16681Y-27642D01*
X16684Y-27639D01*
X16685Y-27635D01*
X16685Y-27633D01*
X16685Y-27628D01*
X16684Y-27621D01*
X16683Y-27613D01*
X16681Y-27605D01*
X16680Y-27597D01*
X16678Y-27590D01*
X16677Y-27585D01*
X16676Y-27583D01*
X16675Y-27580D01*
X16673Y-27578D01*
X16670Y-27577D01*
X16665Y-27576D01*
X16659Y-27575D01*
X16651Y-27575D01*
X16643Y-27575D01*
X16633Y-27575D01*
X16626Y-27575D01*
X16621Y-27575D01*
X16617Y-27576D01*
X16615Y-27577D01*
X16614Y-27578D01*
X16613Y-27578D01*
X16611Y-27582D01*
X16610Y-27585D01*
X16610Y-27585D01*
X16610Y-27585D01*
G37*
G36*
X19835Y-27360D02*
X19835Y-27367D01*
X19837Y-27376D01*
X19838Y-27387D01*
X19838Y-27388D01*
X19840Y-27399D01*
X19842Y-27407D01*
X19844Y-27412D01*
X19847Y-27416D01*
X19851Y-27418D01*
X19853Y-27419D01*
X19857Y-27419D01*
X19864Y-27419D01*
X19872Y-27420D01*
X19881Y-27420D01*
X19889Y-27419D01*
X19896Y-27419D01*
X19901Y-27418D01*
X19903Y-27418D01*
X19907Y-27416D01*
X19909Y-27414D01*
X19909Y-27413D01*
X19909Y-27411D01*
X19909Y-27405D01*
X19908Y-27398D01*
X19907Y-27390D01*
X19907Y-27388D01*
X19905Y-27377D01*
X19904Y-27369D01*
X19903Y-27364D01*
X19902Y-27360D01*
X19901Y-27357D01*
X19900Y-27356D01*
X19899Y-27354D01*
X19898Y-27354D01*
X19897Y-27352D01*
X19895Y-27351D01*
X19892Y-27351D01*
X19888Y-27350D01*
X19882Y-27350D01*
X19873Y-27350D01*
X19868Y-27350D01*
X19858Y-27350D01*
X19850Y-27350D01*
X19843Y-27351D01*
X19839Y-27351D01*
X19838Y-27352D01*
X19837Y-27353D01*
X19835Y-27356D01*
X19835Y-27360D01*
X19835Y-27360D01*
X19835Y-27360D01*
G37*
G36*
X18893Y-27255D02*
X18896Y-27281D01*
X18898Y-27293D01*
X18900Y-27301D01*
X18901Y-27308D01*
X18904Y-27312D01*
X18906Y-27315D01*
X18909Y-27316D01*
X18910Y-27317D01*
X18913Y-27317D01*
X18919Y-27318D01*
X18926Y-27318D01*
X18935Y-27318D01*
X18944Y-27318D01*
X18952Y-27318D01*
X18959Y-27318D01*
X18963Y-27317D01*
X18965Y-27317D01*
X18968Y-27315D01*
X18971Y-27312D01*
X18972Y-27311D01*
X18973Y-27309D01*
X18973Y-27305D01*
X18972Y-27301D01*
X18971Y-27294D01*
X18970Y-27285D01*
X18969Y-27282D01*
X18968Y-27271D01*
X18966Y-27263D01*
X18964Y-27257D01*
X18962Y-27253D01*
X18958Y-27251D01*
X18953Y-27249D01*
X18945Y-27249D01*
X18935Y-27249D01*
X18930Y-27249D01*
X18919Y-27248D01*
X18911Y-27248D01*
X18906Y-27249D01*
X18902Y-27249D01*
X18900Y-27250D01*
X18898Y-27251D01*
X18897Y-27251D01*
X18893Y-27255D01*
X18893Y-27255D01*
X18893Y-27255D01*
G37*
G36*
X18466Y-27258D02*
X18466Y-27264D01*
X18467Y-27271D01*
X18468Y-27279D01*
X18470Y-27288D01*
X18471Y-27296D01*
X18473Y-27304D01*
X18474Y-27309D01*
X18475Y-27312D01*
X18475Y-27312D01*
X18478Y-27315D01*
X18482Y-27316D01*
X18483Y-27317D01*
X18487Y-27317D01*
X18494Y-27318D01*
X18502Y-27318D01*
X18511Y-27318D01*
X18520Y-27318D01*
X18528Y-27318D01*
X18535Y-27317D01*
X18539Y-27316D01*
X18539Y-27316D01*
X18543Y-27313D01*
X18544Y-27310D01*
X18545Y-27307D01*
X18544Y-27301D01*
X18543Y-27294D01*
X18542Y-27285D01*
X18541Y-27276D01*
X18540Y-27268D01*
X18538Y-27262D01*
X18537Y-27257D01*
X18537Y-27256D01*
X18535Y-27253D01*
X18532Y-27251D01*
X18528Y-27250D01*
X18521Y-27249D01*
X18513Y-27248D01*
X18501Y-27248D01*
X18500Y-27248D01*
X18488Y-27248D01*
X18480Y-27249D01*
X18474Y-27249D01*
X18470Y-27251D01*
X18468Y-27252D01*
X18466Y-27255D01*
X18466Y-27255D01*
X18466Y-27258D01*
X18466Y-27258D01*
X18466Y-27258D01*
G37*
G54D18*
X17735Y-11667D02*
X17745Y-11657D01*
X17754Y-11629D01*
X17754Y-11610D01*
X17745Y-11582D01*
X17726Y-11563D01*
X17707Y-11554D01*
X17670Y-11545D01*
X17642Y-11545D01*
X17604Y-11554D01*
X17585Y-11563D01*
X17567Y-11582D01*
X17557Y-11610D01*
X17557Y-11629D01*
X17567Y-11657D01*
X17576Y-11667D01*
X17557Y-11732D02*
X17557Y-11854D01*
X17632Y-11789D01*
X17632Y-11817D01*
X17642Y-11836D01*
X17651Y-11845D01*
X17670Y-11854D01*
X17717Y-11854D01*
X17735Y-11845D01*
X17745Y-11836D01*
X17754Y-11817D01*
X17754Y-11760D01*
X17745Y-11742D01*
X17735Y-11732D01*
X18029Y-11667D02*
X18029Y-11554D01*
X18029Y-11610D02*
X17832Y-11610D01*
X17860Y-11592D01*
X17879Y-11573D01*
X17889Y-11554D01*
X17898Y-11836D02*
X18029Y-11836D01*
X17898Y-11751D02*
X18001Y-11751D01*
X18020Y-11760D01*
X18029Y-11779D01*
X18029Y-11807D01*
X18020Y-11826D01*
X18010Y-11836D01*
X15682Y-14454D02*
X15748Y-14360D01*
X15795Y-14454D02*
X15795Y-14257D01*
X15720Y-14257D01*
X15701Y-14267D01*
X15692Y-14276D01*
X15682Y-14295D01*
X15682Y-14323D01*
X15692Y-14342D01*
X15701Y-14351D01*
X15720Y-14360D01*
X15795Y-14360D01*
X15513Y-14323D02*
X15513Y-14454D01*
X15560Y-14248D02*
X15607Y-14389D01*
X15485Y-14389D01*
X15781Y-14179D02*
X15893Y-14179D01*
X15837Y-14179D02*
X15837Y-13982D01*
X15856Y-14010D01*
X15875Y-14029D01*
X15893Y-14039D01*
X15659Y-13982D02*
X15640Y-13982D01*
X15621Y-13992D01*
X15612Y-14001D01*
X15603Y-14020D01*
X15593Y-14057D01*
X15593Y-14104D01*
X15603Y-14142D01*
X15612Y-14160D01*
X15621Y-14170D01*
X15640Y-14179D01*
X15659Y-14179D01*
X15678Y-14170D01*
X15687Y-14160D01*
X15696Y-14142D01*
X15706Y-14104D01*
X15706Y-14057D01*
X15696Y-14020D01*
X15687Y-14001D01*
X15678Y-13992D01*
X15659Y-13982D01*
X15471Y-13982D02*
X15453Y-13982D01*
X15434Y-13992D01*
X15424Y-14001D01*
X15415Y-14020D01*
X15406Y-14057D01*
X15406Y-14104D01*
X15415Y-14142D01*
X15424Y-14160D01*
X15434Y-14170D01*
X15453Y-14179D01*
X15471Y-14179D01*
X15490Y-14170D01*
X15499Y-14160D01*
X15509Y-14142D01*
X15518Y-14104D01*
X15518Y-14057D01*
X15509Y-14020D01*
X15499Y-14001D01*
X15490Y-13992D01*
X15471Y-13982D01*
G54D19*
X21279Y-21772D02*
X21633Y-21419D01*
X21016Y-21442D02*
X21013Y-21473D01*
X21037Y-21530D01*
X21063Y-21557D01*
X21121Y-21580D01*
X21181Y-21574D01*
X21228Y-21553D01*
X21309Y-21500D01*
X21360Y-21449D01*
X21414Y-21368D01*
X21434Y-21321D01*
X21441Y-21260D01*
X21417Y-21203D01*
X21390Y-21176D01*
X21333Y-21153D01*
X21303Y-21156D01*
X20713Y-21207D02*
X20875Y-21368D01*
X20794Y-21287D02*
X21148Y-20934D01*
X21124Y-21011D01*
X21117Y-21072D01*
X21127Y-21116D01*
X23557Y-22080D02*
X23422Y-21946D01*
X23483Y-22208D02*
X23742Y-21760D01*
X23294Y-22020D01*
X23594Y-21612D02*
X23432Y-21451D01*
X23160Y-21885D02*
X23513Y-21532D01*
X22971Y-21697D02*
X22917Y-21643D01*
X22907Y-21599D01*
X22910Y-21569D01*
X22934Y-21491D01*
X22988Y-21410D01*
X23122Y-21276D01*
X23170Y-21255D01*
X23200Y-21252D01*
X23244Y-21262D01*
X23298Y-21316D01*
X23308Y-21360D01*
X23304Y-21390D01*
X23284Y-21437D01*
X23200Y-21521D01*
X23153Y-21542D01*
X23122Y-21545D01*
X23079Y-21535D01*
X23025Y-21481D01*
X23015Y-21437D01*
X23018Y-21407D01*
X23038Y-21360D01*
X23015Y-21033D02*
X22988Y-21006D01*
X22944Y-20996D01*
X22914Y-21000D01*
X22867Y-21020D01*
X22786Y-21074D01*
X22702Y-21158D01*
X22648Y-21239D01*
X22628Y-21286D01*
X22624Y-21316D01*
X22634Y-21360D01*
X22661Y-21387D01*
X22705Y-21397D01*
X22735Y-21393D01*
X22782Y-21373D01*
X22863Y-21319D01*
X22947Y-21235D01*
X23001Y-21154D01*
X23021Y-21107D01*
X23025Y-21077D01*
X23015Y-21033D01*
X22799Y-20818D02*
X22513Y-21104D01*
X22466Y-21124D01*
X22436Y-21127D01*
X22392Y-21117D01*
X22338Y-21063D01*
X22328Y-21020D01*
X22331Y-20989D01*
X22351Y-20942D01*
X22638Y-20656D01*
X22180Y-20872D02*
X22122Y-20848D01*
X22055Y-20781D01*
X22045Y-20737D01*
X22048Y-20707D01*
X22069Y-20659D01*
X22102Y-20626D01*
X22149Y-20606D01*
X22180Y-20602D01*
X22223Y-20612D01*
X22294Y-20649D01*
X22338Y-20659D01*
X22368Y-20656D01*
X22415Y-20636D01*
X22449Y-20602D01*
X22469Y-20555D01*
X22473Y-20525D01*
X22463Y-20481D01*
X22395Y-20414D01*
X22338Y-20390D01*
X21971Y-20326D02*
X21914Y-20302D01*
X21883Y-20306D01*
X21836Y-20326D01*
X21786Y-20377D01*
X21766Y-20424D01*
X21762Y-20454D01*
X21772Y-20498D01*
X21880Y-20606D01*
X22234Y-20252D01*
X22139Y-20158D01*
X22095Y-20148D01*
X22065Y-20151D01*
X22018Y-20171D01*
X21984Y-20205D01*
X21964Y-20252D01*
X21961Y-20282D01*
X21971Y-20326D01*
X22065Y-20420D01*
X21449Y-20175D02*
X21611Y-20336D01*
X21530Y-20255D02*
X21883Y-19902D01*
X21860Y-19979D01*
X21853Y-20040D01*
X21863Y-20084D01*
X21560Y-19579D02*
X21614Y-19632D01*
X21624Y-19676D01*
X21621Y-19707D01*
X21597Y-19784D01*
X21543Y-19865D01*
X21409Y-19999D01*
X21361Y-20020D01*
X21331Y-20023D01*
X21287Y-20013D01*
X21233Y-19959D01*
X21223Y-19915D01*
X21227Y-19885D01*
X21247Y-19838D01*
X21331Y-19754D01*
X21378Y-19733D01*
X21409Y-19730D01*
X21452Y-19740D01*
X21506Y-19794D01*
X21516Y-19838D01*
X21513Y-19868D01*
X21493Y-19915D01*
X21392Y-19478D02*
X21395Y-19447D01*
X21385Y-19403D01*
X21318Y-19336D01*
X21274Y-19326D01*
X21244Y-19329D01*
X21196Y-19350D01*
X21163Y-19383D01*
X21126Y-19447D01*
X21085Y-19811D01*
X20910Y-19636D01*
X20924Y-19380D02*
X20708Y-19164D01*
X20553Y-19077D02*
X20419Y-18942D01*
X20479Y-19205D02*
X20739Y-18757D01*
X20291Y-19016D01*
G54D16*
X15224Y-22553D02*
X15299Y-22535D01*
X15273Y-22602D02*
X15370Y-22504D01*
X15338Y-22472D01*
X15325Y-22468D01*
X15316Y-22469D01*
X15303Y-22474D01*
X15289Y-22488D01*
X15284Y-22501D01*
X15283Y-22510D01*
X15287Y-22523D01*
X15319Y-22555D01*
X15280Y-22433D02*
X15281Y-22424D01*
X15277Y-22411D01*
X15257Y-22391D01*
X15244Y-22387D01*
X15236Y-22388D01*
X15222Y-22393D01*
X15213Y-22403D01*
X15203Y-22421D01*
X15196Y-22525D01*
X15143Y-22472D01*
X15224Y-23053D02*
X15299Y-23035D01*
X15273Y-23102D02*
X15370Y-23004D01*
X15338Y-22972D01*
X15325Y-22968D01*
X15316Y-22969D01*
X15303Y-22974D01*
X15289Y-22988D01*
X15284Y-23001D01*
X15283Y-23010D01*
X15287Y-23023D01*
X15319Y-23055D01*
X15293Y-22927D02*
X15241Y-22875D01*
X15232Y-22940D01*
X15220Y-22928D01*
X15207Y-22925D01*
X15198Y-22925D01*
X15185Y-22931D01*
X15162Y-22954D01*
X15157Y-22967D01*
X15156Y-22976D01*
X15159Y-22988D01*
X15184Y-23013D01*
X15196Y-23016D01*
X15205Y-23016D01*
X14305Y-20980D02*
X14240Y-20940D01*
X14305Y-20911D02*
X14167Y-20911D01*
X14167Y-20957D01*
X14174Y-20968D01*
X14181Y-20974D01*
X14194Y-20980D01*
X14213Y-20980D01*
X14227Y-20974D01*
X14233Y-20968D01*
X14240Y-20957D01*
X14240Y-20911D01*
X14213Y-21082D02*
X14305Y-21082D01*
X14161Y-21054D02*
X14259Y-21025D01*
X14259Y-21100D01*
M02*
