G04 (created by PCBNEW (2013-dec-23)-stable) date Mon 09 Jun 2014 07:47:59 PM MDT*
%MOIN*%
G04 Gerber Fmt 3.4, Leading zero omitted, Abs format*
%FSLAX34Y34*%
G01*
G70*
G90*
G04 APERTURE LIST*
%ADD10C,0.00590551*%
%ADD11R,0.055X0.055*%
%ADD12C,0.055*%
%ADD13C,0.06*%
%ADD14R,0.07X0.07*%
%ADD15R,0.0591X0.0591*%
%ADD16C,0.0591*%
%ADD17C,0.08*%
%ADD18R,0.08X0.08*%
%ADD19C,0.07*%
%ADD20R,0.0984252X0.0787402*%
%ADD21C,0.16*%
%ADD22C,0.4*%
%ADD23C,0.09*%
%ADD24R,0.035X0.055*%
%ADD25R,0.055X0.035*%
%ADD26R,0.0177X0.0787*%
%ADD27R,0.0787X0.0177*%
%ADD28R,0.0236X0.0551*%
%ADD29R,0.0906X0.0197*%
%ADD30R,0.0984X0.0787*%
%ADD31R,0.0413386X0.0334646*%
%ADD32R,0.045X0.025*%
%ADD33R,0.025X0.045*%
%ADD34R,0.0433071X0.0984252*%
%ADD35C,0.035*%
%ADD36C,0.02*%
%ADD37C,0.015*%
%ADD38C,0.01*%
%ADD39C,0.06*%
G04 APERTURE END LIST*
G54D10*
G54D11*
X14500Y-28250D03*
G54D12*
X15500Y-28250D03*
X16500Y-28250D03*
X17500Y-28250D03*
X18500Y-28250D03*
X19500Y-28250D03*
X20500Y-28250D03*
X21500Y-28250D03*
X22500Y-28250D03*
X23500Y-28250D03*
G54D13*
X32100Y-27300D03*
X32100Y-26300D03*
X32100Y-25300D03*
X32100Y-24300D03*
X32100Y-23300D03*
X32100Y-22300D03*
X32100Y-21300D03*
X32100Y-20300D03*
X32100Y-19300D03*
X32100Y-18300D03*
X31100Y-26343D03*
X31100Y-25555D03*
X31100Y-24768D03*
X31100Y-23981D03*
X31100Y-23193D03*
X31100Y-22406D03*
X31100Y-21618D03*
X31100Y-20831D03*
X31100Y-20044D03*
X31100Y-19256D03*
G54D14*
X18300Y-15500D03*
G54D15*
X14150Y-12050D03*
G54D16*
X14150Y-13050D03*
G54D17*
X15750Y-10500D03*
G54D18*
X14500Y-10500D03*
G54D14*
X14500Y-14250D03*
G54D19*
X15250Y-12750D03*
X15250Y-11750D03*
G54D20*
X21417Y-13500D03*
X23582Y-13500D03*
G54D11*
X20250Y-15000D03*
G54D12*
X21250Y-15000D03*
X22250Y-15000D03*
G54D21*
X24550Y-15200D03*
G54D22*
X27250Y-13000D03*
G54D23*
X26650Y-10400D03*
X27850Y-10400D03*
X26650Y-15600D03*
X27850Y-15600D03*
G54D24*
X20775Y-10250D03*
X20025Y-10250D03*
G54D25*
X24750Y-10175D03*
X24750Y-10925D03*
X21650Y-10225D03*
X21650Y-10975D03*
X17400Y-15875D03*
X17400Y-15125D03*
G54D26*
X17107Y-10504D03*
X17422Y-10504D03*
X17737Y-10504D03*
X18052Y-10504D03*
X18367Y-10504D03*
X18682Y-10504D03*
X18997Y-10504D03*
X19312Y-10504D03*
X19310Y-14270D03*
X17100Y-14270D03*
X17420Y-14270D03*
X17740Y-14270D03*
X18050Y-14270D03*
X18370Y-14270D03*
X18680Y-14270D03*
X19000Y-14270D03*
G54D27*
X20100Y-11288D03*
X20100Y-11602D03*
X20100Y-11918D03*
X20100Y-12232D03*
X20100Y-12548D03*
X20100Y-12862D03*
X20100Y-13178D03*
X20100Y-13492D03*
X16320Y-11290D03*
X16320Y-11600D03*
X16320Y-11920D03*
X16320Y-12230D03*
X16320Y-12540D03*
X16320Y-12860D03*
X16320Y-13180D03*
X16320Y-13500D03*
G54D28*
X22450Y-10150D03*
X22450Y-12250D03*
X22950Y-10150D03*
X23450Y-10150D03*
X23950Y-10150D03*
X22950Y-12250D03*
X23450Y-12250D03*
X23950Y-12250D03*
G54D14*
X14500Y-15500D03*
X15500Y-15500D03*
X16500Y-15500D03*
G54D24*
X21625Y-16000D03*
X22375Y-16000D03*
X20375Y-16000D03*
X19625Y-16000D03*
G54D12*
X22000Y-18000D03*
X23000Y-18000D03*
X24000Y-18000D03*
X25000Y-18000D03*
X26000Y-18000D03*
X27000Y-18000D03*
X28000Y-18000D03*
X29000Y-18000D03*
G54D11*
X14000Y-18000D03*
G54D12*
X15000Y-18000D03*
X16000Y-18000D03*
X17000Y-18000D03*
X18000Y-18000D03*
X19000Y-18000D03*
X20000Y-18000D03*
X21000Y-18000D03*
X21000Y-24000D03*
X20000Y-24000D03*
X19000Y-24000D03*
X18000Y-24000D03*
X17000Y-24000D03*
X16000Y-24000D03*
X15000Y-24000D03*
X14000Y-24000D03*
X29000Y-24000D03*
X28000Y-24000D03*
X27000Y-24000D03*
X26000Y-24000D03*
X25000Y-24000D03*
X24000Y-24000D03*
X23000Y-24000D03*
X22000Y-24000D03*
G54D29*
X16358Y-20370D03*
X16358Y-20685D03*
X16358Y-21000D03*
X16358Y-21315D03*
X16358Y-21630D03*
G54D30*
X16319Y-19248D03*
X14154Y-19248D03*
X16319Y-22752D03*
X14154Y-22752D03*
G54D13*
X18200Y-19650D03*
X18200Y-21650D03*
X18200Y-20650D03*
G54D14*
X28750Y-22000D03*
X28750Y-21000D03*
X28750Y-20000D03*
G54D31*
X22712Y-18856D03*
X24287Y-18856D03*
X22712Y-19643D03*
X24287Y-19643D03*
X19462Y-18856D03*
X21037Y-18856D03*
X19462Y-19643D03*
X21037Y-19643D03*
G54D32*
X21750Y-21550D03*
X21750Y-20950D03*
X19750Y-20950D03*
X19750Y-21550D03*
X19750Y-23050D03*
X19750Y-22450D03*
G54D33*
X18550Y-23000D03*
X17950Y-23000D03*
G54D32*
X20750Y-22450D03*
X20750Y-23050D03*
X20750Y-20950D03*
X20750Y-21550D03*
X22750Y-20950D03*
X22750Y-21550D03*
X21750Y-23050D03*
X21750Y-22450D03*
G54D34*
X14291Y-26750D03*
X14881Y-26750D03*
X15472Y-26750D03*
X16062Y-26750D03*
X16653Y-26750D03*
X17244Y-26750D03*
X17834Y-26750D03*
X18425Y-26750D03*
X19015Y-26750D03*
X19606Y-26750D03*
X20196Y-26750D03*
X20787Y-26750D03*
X21377Y-26750D03*
G54D11*
X22500Y-26750D03*
G54D12*
X23500Y-26750D03*
G54D35*
X19750Y-10900D03*
X16500Y-13900D03*
X16500Y-14750D03*
X15500Y-13700D03*
X19600Y-15150D03*
X19100Y-12450D03*
X18700Y-12050D03*
X19000Y-15150D03*
X18450Y-11600D03*
X21000Y-27700D03*
X24800Y-19200D03*
X22150Y-20350D03*
X14250Y-21500D03*
X21200Y-22050D03*
X20250Y-21250D03*
X20950Y-20350D03*
X27350Y-20450D03*
X14750Y-20850D03*
X17600Y-12350D03*
X22600Y-13700D03*
X27750Y-22000D03*
X21650Y-19650D03*
X14250Y-19850D03*
X17050Y-12850D03*
X19600Y-16000D03*
X21250Y-10200D03*
X25350Y-10150D03*
X17400Y-14900D03*
X17200Y-11500D03*
G54D36*
X21377Y-26750D02*
X21377Y-27277D01*
X23500Y-27800D02*
X23500Y-28250D01*
X23250Y-27550D02*
X23500Y-27800D01*
X21650Y-27550D02*
X23250Y-27550D01*
X21377Y-27277D02*
X21650Y-27550D01*
G54D37*
X19312Y-10504D02*
X19354Y-10504D01*
X19354Y-10504D02*
X19750Y-10900D01*
X16320Y-13720D02*
X16320Y-13500D01*
X16500Y-13900D02*
X16320Y-13720D01*
X16500Y-15500D02*
X16500Y-14750D01*
X15500Y-13700D02*
X15500Y-13550D01*
X15500Y-13550D02*
X15870Y-13180D01*
X15870Y-13180D02*
X16320Y-13180D01*
X20100Y-12232D02*
X19318Y-12232D01*
X19100Y-12450D02*
X19318Y-12232D01*
X19200Y-15550D02*
X19600Y-15150D01*
X18650Y-16100D02*
X19050Y-16100D01*
X19200Y-15950D02*
X19200Y-15550D01*
X19050Y-16100D02*
X19200Y-15950D01*
X17400Y-16100D02*
X18650Y-16100D01*
G54D36*
X17400Y-15875D02*
X17400Y-16100D01*
G54D37*
X14500Y-15500D02*
X14500Y-15900D01*
X14500Y-15900D02*
X14700Y-16100D01*
X14700Y-16100D02*
X17400Y-16100D01*
X22450Y-12250D02*
X22450Y-13300D01*
X22250Y-13500D02*
X21417Y-13500D01*
X22450Y-13300D02*
X22250Y-13500D01*
X22950Y-12250D02*
X22950Y-13450D01*
X23000Y-13500D02*
X23582Y-13500D01*
X22950Y-13450D02*
X23000Y-13500D01*
X18832Y-11918D02*
X18700Y-12050D01*
X20100Y-11918D02*
X18832Y-11918D01*
X18650Y-15500D02*
X18300Y-15500D01*
X19000Y-15150D02*
X18650Y-15500D01*
G54D36*
X14881Y-26750D02*
X14881Y-27231D01*
X15900Y-27650D02*
X16500Y-28250D01*
X15300Y-27650D02*
X15900Y-27650D01*
X14881Y-27231D02*
X15300Y-27650D01*
G54D37*
X15500Y-15500D02*
X15500Y-15300D01*
X16000Y-14650D02*
X16380Y-14270D01*
X16000Y-14800D02*
X16000Y-14650D01*
X15500Y-15300D02*
X16000Y-14800D01*
X16380Y-14270D02*
X17100Y-14270D01*
X21650Y-10975D02*
X21650Y-11100D01*
X21650Y-11100D02*
X21200Y-11550D01*
X21200Y-11550D02*
X21000Y-11550D01*
X20100Y-12548D02*
X20602Y-12548D01*
X20750Y-11800D02*
X21000Y-11550D01*
X20750Y-12400D02*
X20750Y-11800D01*
X20602Y-12548D02*
X20750Y-12400D01*
X23450Y-10150D02*
X23450Y-10800D01*
X23275Y-10975D02*
X21650Y-10975D01*
X23450Y-10800D02*
X23275Y-10975D01*
X20100Y-12862D02*
X20688Y-12862D01*
X21100Y-11850D02*
X21350Y-11850D01*
X21000Y-11949D02*
X21100Y-11850D01*
X21000Y-12549D02*
X21000Y-11949D01*
X20688Y-12862D02*
X21000Y-12549D01*
X23400Y-11250D02*
X23950Y-10700D01*
X22300Y-11250D02*
X23400Y-11250D01*
X22200Y-11350D02*
X22300Y-11250D01*
X21850Y-11350D02*
X22200Y-11350D01*
X21350Y-11850D02*
X21850Y-11350D01*
X23950Y-10150D02*
X23950Y-10700D01*
X23950Y-10700D02*
X23950Y-10800D01*
X24075Y-10925D02*
X24750Y-10925D01*
X23950Y-10800D02*
X24075Y-10925D01*
X18997Y-10504D02*
X18997Y-11047D01*
X19238Y-11288D02*
X20100Y-11288D01*
X18997Y-11047D02*
X19238Y-11288D01*
X20950Y-11200D02*
X21000Y-11200D01*
X22950Y-10550D02*
X22850Y-10650D01*
X22850Y-10650D02*
X22200Y-10650D01*
X22200Y-10650D02*
X22150Y-10600D01*
X22150Y-10600D02*
X21250Y-10600D01*
X22950Y-10150D02*
X22950Y-10550D01*
X21150Y-10700D02*
X21150Y-11050D01*
X21250Y-10600D02*
X21150Y-10700D01*
X21000Y-11200D02*
X21150Y-11050D01*
X20862Y-11288D02*
X20100Y-11288D01*
X20950Y-11200D02*
X20862Y-11288D01*
X20100Y-11602D02*
X18452Y-11602D01*
X18452Y-11602D02*
X18450Y-11600D01*
G54D36*
X14291Y-26750D02*
X14291Y-27391D01*
X15450Y-28250D02*
X15500Y-28250D01*
X14900Y-27700D02*
X15450Y-28250D01*
X14600Y-27700D02*
X14900Y-27700D01*
X14291Y-27391D02*
X14600Y-27700D01*
G54D37*
X23450Y-12250D02*
X23450Y-12050D01*
X26100Y-10400D02*
X27850Y-10400D01*
X25750Y-10750D02*
X26100Y-10400D01*
X25750Y-11000D02*
X25750Y-10750D01*
X25000Y-11750D02*
X25750Y-11000D01*
X23750Y-11750D02*
X25000Y-11750D01*
X23450Y-12050D02*
X23750Y-11750D01*
G54D36*
X20787Y-27487D02*
X21000Y-27700D01*
X20787Y-26750D02*
X20787Y-27487D01*
G54D37*
X18200Y-19650D02*
X18200Y-19950D01*
X18200Y-19950D02*
X19200Y-20950D01*
X19750Y-20950D02*
X19200Y-20950D01*
X22750Y-20950D02*
X22750Y-19681D01*
X22750Y-19681D02*
X22712Y-19643D01*
X24800Y-19200D02*
X24356Y-19643D01*
X24356Y-19643D02*
X24287Y-19643D01*
X24287Y-19643D02*
X24356Y-19643D01*
X22712Y-19643D02*
X24287Y-19643D01*
X28750Y-21000D02*
X28400Y-21000D01*
X28100Y-18100D02*
X28000Y-18000D01*
X28100Y-20700D02*
X28100Y-18100D01*
X28400Y-21000D02*
X28100Y-20700D01*
X28750Y-20000D02*
X29050Y-20000D01*
X29000Y-23150D02*
X29000Y-24000D01*
X29300Y-22850D02*
X29000Y-23150D01*
X29300Y-20250D02*
X29300Y-22850D01*
X29050Y-20000D02*
X29300Y-20250D01*
X19750Y-23050D02*
X19550Y-23050D01*
X18800Y-21650D02*
X18200Y-21650D01*
X19200Y-22050D02*
X18800Y-21650D01*
X19200Y-22700D02*
X19200Y-22050D01*
X19550Y-23050D02*
X19200Y-22700D01*
X21750Y-20950D02*
X21750Y-20356D01*
X21750Y-20356D02*
X21037Y-19643D01*
X22650Y-23350D02*
X22000Y-24000D01*
X21750Y-20750D02*
X21750Y-20950D01*
X22150Y-20350D02*
X21750Y-20750D01*
X22650Y-23350D02*
X28350Y-23350D01*
X28350Y-23350D02*
X28750Y-22950D01*
X28750Y-22950D02*
X28750Y-22000D01*
X19462Y-19643D02*
X21037Y-19643D01*
X19000Y-24000D02*
X19000Y-23450D01*
X19000Y-23450D02*
X18550Y-23000D01*
X17950Y-23000D02*
X17950Y-22750D01*
X17180Y-21630D02*
X16358Y-21630D01*
X17350Y-21800D02*
X17180Y-21630D01*
X17350Y-22150D02*
X17350Y-21800D01*
X17950Y-22750D02*
X17350Y-22150D01*
X18000Y-24000D02*
X18000Y-23050D01*
X18000Y-23050D02*
X17950Y-23000D01*
X15630Y-21630D02*
X15500Y-21500D01*
X15500Y-21500D02*
X14250Y-21500D01*
X15630Y-21630D02*
X16358Y-21630D01*
X20800Y-22450D02*
X20750Y-22450D01*
X21200Y-22050D02*
X20800Y-22450D01*
X20250Y-21250D02*
X20550Y-21550D01*
G54D38*
X20550Y-21550D02*
X20750Y-21550D01*
G54D37*
X20550Y-21550D02*
X20750Y-21550D01*
X27000Y-21750D02*
X22950Y-21750D01*
X22950Y-21750D02*
X22750Y-21550D01*
X21450Y-21550D02*
X21750Y-21550D01*
X21250Y-21350D02*
X21450Y-21550D01*
X21250Y-20650D02*
X21250Y-21350D01*
X20950Y-20350D02*
X21250Y-20650D01*
X21750Y-22450D02*
X21750Y-21550D01*
X21750Y-21550D02*
X22750Y-21550D01*
X27350Y-21400D02*
X27000Y-21750D01*
X27350Y-20450D02*
X27350Y-21400D01*
X16358Y-20370D02*
X16880Y-20370D01*
X17000Y-20250D02*
X17000Y-18000D01*
X16880Y-20370D02*
X17000Y-20250D01*
X16358Y-20370D02*
X15780Y-20370D01*
X15300Y-20850D02*
X14750Y-20850D01*
X15780Y-20370D02*
X15300Y-20850D01*
X18370Y-13530D02*
X18700Y-13200D01*
X21550Y-14300D02*
X22250Y-15000D01*
X20100Y-14300D02*
X21550Y-14300D01*
X19000Y-13200D02*
X20100Y-14300D01*
X18700Y-13200D02*
X19000Y-13200D01*
X17600Y-12350D02*
X18052Y-12350D01*
X18052Y-12350D02*
X18000Y-12350D01*
X18000Y-12350D02*
X18052Y-12350D01*
X18682Y-10504D02*
X18682Y-10968D01*
X18500Y-11150D02*
X18052Y-11150D01*
X18682Y-10968D02*
X18500Y-11150D01*
X22375Y-16000D02*
X22375Y-15125D01*
X22375Y-15125D02*
X22250Y-15000D01*
G54D39*
X14500Y-13050D02*
X14150Y-13050D01*
X14500Y-13050D02*
X14950Y-13050D01*
X14950Y-13050D02*
X15250Y-12750D01*
G54D37*
X27250Y-13000D02*
X26750Y-13000D01*
X26750Y-13000D02*
X24550Y-15200D01*
X27250Y-13000D02*
X25250Y-13000D01*
X18682Y-10504D02*
X18682Y-10018D01*
X19675Y-9900D02*
X20025Y-10250D01*
X18800Y-9900D02*
X19675Y-9900D01*
X18682Y-10018D02*
X18800Y-9900D01*
X18052Y-10504D02*
X18052Y-11150D01*
X18052Y-11150D02*
X18052Y-11350D01*
X18052Y-12000D02*
X18052Y-12350D01*
X18052Y-11350D02*
X18052Y-12000D01*
X18052Y-12350D02*
X18052Y-13212D01*
X18370Y-13530D02*
X18370Y-14270D01*
X18052Y-13212D02*
X18370Y-13530D01*
X23950Y-12250D02*
X26500Y-12250D01*
X26500Y-12250D02*
X27250Y-13000D01*
X24287Y-18856D02*
X24493Y-18856D01*
X24550Y-18800D02*
X27500Y-18800D01*
X24493Y-18856D02*
X24550Y-18800D01*
X27500Y-18800D02*
X27750Y-19050D01*
X27750Y-19050D02*
X27750Y-22000D01*
X24343Y-18800D02*
X24287Y-18856D01*
X24343Y-18800D02*
X24287Y-18856D01*
X21750Y-23050D02*
X26700Y-23050D01*
X26700Y-23050D02*
X27750Y-22000D01*
X21500Y-19500D02*
X21500Y-18856D01*
X21650Y-19650D02*
X21500Y-19500D01*
X24343Y-18800D02*
X24287Y-18856D01*
X19750Y-21550D02*
X19100Y-21550D01*
X19100Y-21550D02*
X18200Y-20650D01*
X19750Y-22450D02*
X19750Y-21550D01*
X21037Y-18856D02*
X19462Y-18856D01*
X21037Y-18856D02*
X21500Y-18856D01*
X21500Y-18856D02*
X22712Y-18856D01*
X24287Y-18856D02*
X22712Y-18856D01*
X16000Y-18000D02*
X15850Y-18000D01*
X14602Y-19248D02*
X14154Y-19248D01*
X15850Y-18000D02*
X14602Y-19248D01*
X14154Y-22752D02*
X14154Y-22704D01*
X13800Y-20300D02*
X14250Y-19850D01*
X13800Y-22350D02*
X13800Y-20300D01*
X14154Y-22704D02*
X13800Y-22350D01*
X14154Y-19754D02*
X14154Y-19248D01*
X14250Y-19850D02*
X14154Y-19754D01*
X16319Y-22752D02*
X14154Y-22752D01*
X16319Y-19248D02*
X14154Y-19248D01*
G54D36*
X31100Y-19256D02*
X31143Y-19256D01*
X31143Y-19256D02*
X32100Y-18300D01*
X31100Y-26343D02*
X31143Y-26343D01*
X31143Y-26343D02*
X32100Y-27300D01*
X31100Y-20044D02*
X31355Y-20044D01*
X31355Y-20044D02*
X32100Y-19300D01*
G54D37*
X20750Y-20950D02*
X20650Y-20950D01*
X17365Y-20685D02*
X16358Y-20685D01*
X17600Y-20450D02*
X17365Y-20685D01*
X17600Y-19350D02*
X17600Y-20450D01*
X17850Y-19100D02*
X17600Y-19350D01*
X18500Y-19100D02*
X17850Y-19100D01*
X18800Y-19400D02*
X18500Y-19100D01*
X18800Y-19950D02*
X18800Y-19400D01*
X19400Y-20550D02*
X18800Y-19950D01*
X20250Y-20550D02*
X19400Y-20550D01*
X20650Y-20950D02*
X20250Y-20550D01*
X20250Y-23400D02*
X20600Y-23400D01*
X20750Y-23250D02*
X20750Y-23050D01*
X20600Y-23400D02*
X20750Y-23250D01*
X19400Y-23400D02*
X20250Y-23400D01*
X19400Y-23400D02*
X18900Y-22900D01*
X18750Y-22250D02*
X17900Y-22250D01*
X18900Y-22400D02*
X18750Y-22250D01*
X18900Y-22900D02*
X18900Y-22400D01*
X17550Y-21000D02*
X16358Y-21000D01*
X17700Y-21150D02*
X17550Y-21000D01*
X17700Y-22050D02*
X17700Y-21150D01*
X17900Y-22250D02*
X17700Y-22050D01*
G54D36*
X31100Y-20831D02*
X31568Y-20831D01*
X31568Y-20831D02*
X32100Y-20300D01*
X31100Y-21618D02*
X31781Y-21618D01*
X31781Y-21618D02*
X32100Y-21300D01*
X31100Y-22406D02*
X31993Y-22406D01*
X31993Y-22406D02*
X32100Y-22300D01*
X31100Y-23193D02*
X31993Y-23193D01*
X31993Y-23193D02*
X32100Y-23300D01*
X31100Y-23981D02*
X31781Y-23981D01*
X31781Y-23981D02*
X32100Y-24300D01*
X31100Y-24768D02*
X31568Y-24768D01*
X31568Y-24768D02*
X32100Y-25300D01*
X31100Y-25555D02*
X31355Y-25555D01*
X31355Y-25555D02*
X32100Y-26300D01*
G54D37*
X21625Y-16000D02*
X20375Y-16000D01*
X21250Y-15000D02*
X21250Y-15625D01*
X21250Y-15625D02*
X21625Y-16000D01*
X17040Y-12860D02*
X16320Y-12860D01*
X17050Y-12850D02*
X17040Y-12860D01*
X19600Y-16000D02*
X19625Y-16000D01*
X17737Y-10504D02*
X17737Y-10963D01*
X17737Y-10963D02*
X17200Y-11500D01*
X17200Y-11500D02*
X17200Y-12500D01*
X17737Y-13387D02*
X17737Y-12900D01*
X17200Y-12500D02*
X17600Y-12900D01*
X17600Y-12900D02*
X17737Y-12900D01*
X21150Y-10250D02*
X21150Y-10225D01*
X21175Y-10225D02*
X21150Y-10250D01*
X21225Y-10225D02*
X21175Y-10225D01*
X21250Y-10200D02*
X21225Y-10225D01*
X25325Y-10175D02*
X25350Y-10150D01*
X24750Y-10175D02*
X25325Y-10175D01*
X17400Y-14900D02*
X17400Y-15125D01*
X17420Y-14880D02*
X17420Y-14270D01*
X17400Y-14900D02*
X17420Y-14880D01*
X14500Y-10500D02*
X15100Y-9900D01*
X15100Y-9900D02*
X15250Y-9900D01*
G54D39*
X15250Y-11750D02*
X14450Y-11750D01*
X14450Y-11750D02*
X14150Y-12050D01*
X14150Y-12050D02*
X14150Y-10850D01*
G54D37*
X14150Y-10850D02*
X14500Y-10500D01*
X15250Y-9900D02*
X17800Y-9900D01*
X17800Y-9900D02*
X17737Y-9963D01*
X17420Y-14270D02*
X17420Y-13704D01*
X17420Y-13704D02*
X17737Y-13387D01*
X18050Y-14270D02*
X18050Y-13700D01*
X18050Y-13700D02*
X17737Y-13387D01*
X18367Y-10504D02*
X18367Y-9967D01*
X18300Y-9900D02*
X17800Y-9900D01*
X18367Y-9967D02*
X18300Y-9900D01*
X17800Y-9900D02*
X17737Y-9963D01*
X17737Y-9963D02*
X17737Y-10504D01*
X21650Y-10225D02*
X21150Y-10225D01*
X21150Y-10225D02*
X20800Y-10225D01*
X20800Y-10225D02*
X20775Y-10250D01*
X22450Y-10150D02*
X21725Y-10150D01*
X21725Y-10150D02*
X21650Y-10225D01*
G54D10*
G36*
X16113Y-14077D02*
X15770Y-14420D01*
X15699Y-14525D01*
X15675Y-14650D01*
X15675Y-14665D01*
X15440Y-14900D01*
X15100Y-14900D01*
X15100Y-14900D01*
X15100Y-14649D01*
X15100Y-14550D01*
X15100Y-13850D01*
X15061Y-13758D01*
X14991Y-13688D01*
X14899Y-13650D01*
X14800Y-13650D01*
X14100Y-13650D01*
X14008Y-13688D01*
X13938Y-13758D01*
X13900Y-13850D01*
X13900Y-13949D01*
X13900Y-14649D01*
X13938Y-14741D01*
X14008Y-14811D01*
X14100Y-14850D01*
X14199Y-14850D01*
X14899Y-14850D01*
X14991Y-14811D01*
X15061Y-14741D01*
X15100Y-14649D01*
X15100Y-14900D01*
X15008Y-14938D01*
X15000Y-14946D01*
X14991Y-14938D01*
X14899Y-14900D01*
X14800Y-14900D01*
X14100Y-14900D01*
X14008Y-14938D01*
X13938Y-15008D01*
X13900Y-15100D01*
X13900Y-15199D01*
X13900Y-15881D01*
X13830Y-15777D01*
X13769Y-15473D01*
X13769Y-12800D01*
X15050Y-12800D01*
X15050Y-12316D01*
X15130Y-12349D01*
X15368Y-12350D01*
X15490Y-12300D01*
X15676Y-12300D01*
X15676Y-12368D01*
X15683Y-12384D01*
X15676Y-12401D01*
X15676Y-12501D01*
X15676Y-12678D01*
X15685Y-12699D01*
X15676Y-12721D01*
X15676Y-12821D01*
X15676Y-12925D01*
X15640Y-12950D01*
X15270Y-13320D01*
X15252Y-13346D01*
X15252Y-13346D01*
X15139Y-13458D01*
X15075Y-13615D01*
X15074Y-13784D01*
X15139Y-13940D01*
X15258Y-14060D01*
X15415Y-14124D01*
X15584Y-14125D01*
X15740Y-14060D01*
X15860Y-13941D01*
X15902Y-13838D01*
X15976Y-13838D01*
X16018Y-13838D01*
X16019Y-13844D01*
X16074Y-13927D01*
X16074Y-13984D01*
X16113Y-14077D01*
X16113Y-14077D01*
G37*
G54D38*
X16113Y-14077D02*
X15770Y-14420D01*
X15699Y-14525D01*
X15675Y-14650D01*
X15675Y-14665D01*
X15440Y-14900D01*
X15100Y-14900D01*
X15100Y-14900D01*
X15100Y-14649D01*
X15100Y-14550D01*
X15100Y-13850D01*
X15061Y-13758D01*
X14991Y-13688D01*
X14899Y-13650D01*
X14800Y-13650D01*
X14100Y-13650D01*
X14008Y-13688D01*
X13938Y-13758D01*
X13900Y-13850D01*
X13900Y-13949D01*
X13900Y-14649D01*
X13938Y-14741D01*
X14008Y-14811D01*
X14100Y-14850D01*
X14199Y-14850D01*
X14899Y-14850D01*
X14991Y-14811D01*
X15061Y-14741D01*
X15100Y-14649D01*
X15100Y-14900D01*
X15008Y-14938D01*
X15000Y-14946D01*
X14991Y-14938D01*
X14899Y-14900D01*
X14800Y-14900D01*
X14100Y-14900D01*
X14008Y-14938D01*
X13938Y-15008D01*
X13900Y-15100D01*
X13900Y-15199D01*
X13900Y-15881D01*
X13830Y-15777D01*
X13769Y-15473D01*
X13769Y-12800D01*
X15050Y-12800D01*
X15050Y-12316D01*
X15130Y-12349D01*
X15368Y-12350D01*
X15490Y-12300D01*
X15676Y-12300D01*
X15676Y-12368D01*
X15683Y-12384D01*
X15676Y-12401D01*
X15676Y-12501D01*
X15676Y-12678D01*
X15685Y-12699D01*
X15676Y-12721D01*
X15676Y-12821D01*
X15676Y-12925D01*
X15640Y-12950D01*
X15270Y-13320D01*
X15252Y-13346D01*
X15252Y-13346D01*
X15139Y-13458D01*
X15075Y-13615D01*
X15074Y-13784D01*
X15139Y-13940D01*
X15258Y-14060D01*
X15415Y-14124D01*
X15584Y-14125D01*
X15740Y-14060D01*
X15860Y-13941D01*
X15902Y-13838D01*
X15976Y-13838D01*
X16018Y-13838D01*
X16019Y-13844D01*
X16074Y-13927D01*
X16074Y-13984D01*
X16113Y-14077D01*
G54D10*
G36*
X16771Y-10955D02*
X16763Y-10951D01*
X16663Y-10951D01*
X16050Y-10951D01*
X16050Y-10950D01*
X15149Y-10950D01*
X15150Y-10949D01*
X15150Y-10850D01*
X15150Y-10309D01*
X15234Y-10225D01*
X15250Y-10225D01*
X16768Y-10225D01*
X16768Y-10947D01*
X16771Y-10955D01*
X16771Y-10955D01*
G37*
G54D38*
X16771Y-10955D02*
X16763Y-10951D01*
X16663Y-10951D01*
X16050Y-10951D01*
X16050Y-10950D01*
X15149Y-10950D01*
X15150Y-10949D01*
X15150Y-10850D01*
X15150Y-10309D01*
X15234Y-10225D01*
X15250Y-10225D01*
X16768Y-10225D01*
X16768Y-10947D01*
X16771Y-10955D01*
G54D10*
G36*
X19464Y-13019D02*
X19456Y-13039D01*
X19456Y-13139D01*
X19456Y-13316D01*
X19464Y-13334D01*
X19456Y-13353D01*
X19456Y-13453D01*
X19456Y-13629D01*
X19448Y-13626D01*
X19348Y-13626D01*
X19171Y-13626D01*
X19155Y-13633D01*
X19138Y-13626D01*
X19038Y-13626D01*
X18861Y-13626D01*
X18840Y-13635D01*
X18818Y-13626D01*
X18718Y-13626D01*
X18541Y-13626D01*
X18525Y-13633D01*
X18508Y-13626D01*
X18476Y-13626D01*
X18414Y-13689D01*
X18414Y-13700D01*
X18379Y-13734D01*
X18375Y-13745D01*
X18375Y-13700D01*
X18350Y-13575D01*
X18350Y-13575D01*
X18279Y-13470D01*
X18062Y-13252D01*
X18062Y-12900D01*
X18037Y-12775D01*
X17966Y-12670D01*
X17861Y-12599D01*
X17737Y-12575D01*
X17734Y-12575D01*
X17525Y-12365D01*
X17525Y-11776D01*
X17560Y-11741D01*
X17624Y-11584D01*
X17624Y-11534D01*
X17966Y-11192D01*
X17997Y-11147D01*
X18037Y-11087D01*
X18037Y-11087D01*
X18053Y-11006D01*
X18066Y-11039D01*
X18096Y-11068D01*
X18096Y-11085D01*
X18158Y-11147D01*
X18190Y-11147D01*
X18209Y-11139D01*
X18228Y-11147D01*
X18328Y-11147D01*
X18505Y-11147D01*
X18524Y-11139D01*
X18543Y-11147D01*
X18575Y-11147D01*
X18637Y-11085D01*
X18637Y-11068D01*
X18667Y-11039D01*
X18672Y-11028D01*
X18672Y-11047D01*
X18696Y-11171D01*
X18767Y-11276D01*
X18767Y-11277D01*
X18728Y-11277D01*
X18691Y-11239D01*
X18534Y-11175D01*
X18365Y-11174D01*
X18209Y-11239D01*
X18089Y-11358D01*
X18025Y-11515D01*
X18024Y-11684D01*
X18089Y-11840D01*
X18208Y-11960D01*
X18275Y-11987D01*
X18274Y-12134D01*
X18339Y-12290D01*
X18458Y-12410D01*
X18615Y-12474D01*
X18674Y-12474D01*
X18674Y-12534D01*
X18739Y-12690D01*
X18858Y-12810D01*
X19015Y-12874D01*
X19184Y-12875D01*
X19340Y-12810D01*
X19458Y-12692D01*
X19464Y-12704D01*
X19456Y-12723D01*
X19456Y-12823D01*
X19456Y-13000D01*
X19464Y-13019D01*
X19464Y-13019D01*
G37*
G54D38*
X19464Y-13019D02*
X19456Y-13039D01*
X19456Y-13139D01*
X19456Y-13316D01*
X19464Y-13334D01*
X19456Y-13353D01*
X19456Y-13453D01*
X19456Y-13629D01*
X19448Y-13626D01*
X19348Y-13626D01*
X19171Y-13626D01*
X19155Y-13633D01*
X19138Y-13626D01*
X19038Y-13626D01*
X18861Y-13626D01*
X18840Y-13635D01*
X18818Y-13626D01*
X18718Y-13626D01*
X18541Y-13626D01*
X18525Y-13633D01*
X18508Y-13626D01*
X18476Y-13626D01*
X18414Y-13689D01*
X18414Y-13700D01*
X18379Y-13734D01*
X18375Y-13745D01*
X18375Y-13700D01*
X18350Y-13575D01*
X18350Y-13575D01*
X18279Y-13470D01*
X18062Y-13252D01*
X18062Y-12900D01*
X18037Y-12775D01*
X17966Y-12670D01*
X17861Y-12599D01*
X17737Y-12575D01*
X17734Y-12575D01*
X17525Y-12365D01*
X17525Y-11776D01*
X17560Y-11741D01*
X17624Y-11584D01*
X17624Y-11534D01*
X17966Y-11192D01*
X17997Y-11147D01*
X18037Y-11087D01*
X18037Y-11087D01*
X18053Y-11006D01*
X18066Y-11039D01*
X18096Y-11068D01*
X18096Y-11085D01*
X18158Y-11147D01*
X18190Y-11147D01*
X18209Y-11139D01*
X18228Y-11147D01*
X18328Y-11147D01*
X18505Y-11147D01*
X18524Y-11139D01*
X18543Y-11147D01*
X18575Y-11147D01*
X18637Y-11085D01*
X18637Y-11068D01*
X18667Y-11039D01*
X18672Y-11028D01*
X18672Y-11047D01*
X18696Y-11171D01*
X18767Y-11276D01*
X18767Y-11277D01*
X18728Y-11277D01*
X18691Y-11239D01*
X18534Y-11175D01*
X18365Y-11174D01*
X18209Y-11239D01*
X18089Y-11358D01*
X18025Y-11515D01*
X18024Y-11684D01*
X18089Y-11840D01*
X18208Y-11960D01*
X18275Y-11987D01*
X18274Y-12134D01*
X18339Y-12290D01*
X18458Y-12410D01*
X18615Y-12474D01*
X18674Y-12474D01*
X18674Y-12534D01*
X18739Y-12690D01*
X18858Y-12810D01*
X19015Y-12874D01*
X19184Y-12875D01*
X19340Y-12810D01*
X19458Y-12692D01*
X19464Y-12704D01*
X19456Y-12723D01*
X19456Y-12823D01*
X19456Y-13000D01*
X19464Y-13019D01*
G54D10*
G36*
X20082Y-10300D02*
X20075Y-10300D01*
X20075Y-10307D01*
X19975Y-10307D01*
X19975Y-10300D01*
X19967Y-10300D01*
X19967Y-10200D01*
X19975Y-10200D01*
X19975Y-10192D01*
X20075Y-10192D01*
X20075Y-10200D01*
X20082Y-10200D01*
X20082Y-10300D01*
X20082Y-10300D01*
G37*
G54D38*
X20082Y-10300D02*
X20075Y-10300D01*
X20075Y-10307D01*
X19975Y-10307D01*
X19975Y-10300D01*
X19967Y-10300D01*
X19967Y-10200D01*
X19975Y-10200D01*
X19975Y-10192D01*
X20075Y-10192D01*
X20075Y-10200D01*
X20082Y-10200D01*
X20082Y-10300D01*
G54D10*
G36*
X29230Y-15473D02*
X29169Y-15777D01*
X29012Y-16012D01*
X28777Y-16169D01*
X28473Y-16230D01*
X28157Y-16230D01*
X28246Y-16193D01*
X28443Y-15997D01*
X28549Y-15739D01*
X28550Y-15461D01*
X28443Y-15204D01*
X28247Y-15006D01*
X27989Y-14900D01*
X27711Y-14899D01*
X27454Y-15006D01*
X27256Y-15202D01*
X27250Y-15219D01*
X27243Y-15204D01*
X27047Y-15006D01*
X26789Y-14900D01*
X26511Y-14899D01*
X26254Y-15006D01*
X26056Y-15202D01*
X25950Y-15460D01*
X25949Y-15738D01*
X26056Y-15996D01*
X26252Y-16193D01*
X26342Y-16230D01*
X24550Y-16230D01*
X22800Y-16230D01*
X22800Y-16225D01*
X22800Y-16112D01*
X22737Y-16050D01*
X22425Y-16050D01*
X22425Y-16057D01*
X22325Y-16057D01*
X22325Y-16050D01*
X22317Y-16050D01*
X22317Y-15950D01*
X22325Y-15950D01*
X22325Y-15942D01*
X22425Y-15942D01*
X22425Y-15950D01*
X22737Y-15950D01*
X22800Y-15887D01*
X22800Y-15774D01*
X22800Y-15675D01*
X22779Y-15626D01*
X22779Y-15075D01*
X22768Y-14867D01*
X22710Y-14727D01*
X22617Y-14702D01*
X22547Y-14773D01*
X22547Y-14632D01*
X22522Y-14539D01*
X22325Y-14470D01*
X22117Y-14481D01*
X21977Y-14539D01*
X21952Y-14632D01*
X22250Y-14929D01*
X22547Y-14632D01*
X22547Y-14773D01*
X22320Y-15000D01*
X22617Y-15297D01*
X22710Y-15272D01*
X22779Y-15075D01*
X22779Y-15626D01*
X22761Y-15583D01*
X22691Y-15513D01*
X22599Y-15475D01*
X22487Y-15475D01*
X22522Y-15460D01*
X22547Y-15367D01*
X22250Y-15070D01*
X21952Y-15367D01*
X21977Y-15460D01*
X22089Y-15500D01*
X22058Y-15513D01*
X21999Y-15571D01*
X21941Y-15513D01*
X21849Y-15475D01*
X21750Y-15475D01*
X21575Y-15475D01*
X21575Y-15417D01*
X21694Y-15297D01*
X21747Y-15171D01*
X21789Y-15272D01*
X21882Y-15297D01*
X22179Y-15000D01*
X21882Y-14702D01*
X21789Y-14727D01*
X21750Y-14837D01*
X21695Y-14703D01*
X21547Y-14555D01*
X21354Y-14475D01*
X21146Y-14474D01*
X20953Y-14554D01*
X20805Y-14702D01*
X20775Y-14774D01*
X20775Y-14675D01*
X20736Y-14583D01*
X20666Y-14513D01*
X20574Y-14475D01*
X20475Y-14475D01*
X19925Y-14475D01*
X19833Y-14513D01*
X19763Y-14583D01*
X19725Y-14675D01*
X19725Y-14741D01*
X19684Y-14725D01*
X19643Y-14725D01*
X19648Y-14713D01*
X19648Y-14613D01*
X19648Y-13827D01*
X19656Y-13830D01*
X19756Y-13830D01*
X20450Y-13830D01*
X20450Y-14300D01*
X24550Y-14300D01*
X24550Y-12075D01*
X25000Y-12075D01*
X25124Y-12050D01*
X25124Y-12050D01*
X25229Y-11979D01*
X25979Y-11229D01*
X26050Y-11124D01*
X26075Y-11000D01*
X26075Y-11000D01*
X26075Y-10999D01*
X26075Y-10884D01*
X26109Y-10849D01*
X26252Y-10993D01*
X26510Y-11099D01*
X26788Y-11100D01*
X27046Y-10993D01*
X27243Y-10797D01*
X27249Y-10780D01*
X27256Y-10796D01*
X27452Y-10993D01*
X27710Y-11099D01*
X27988Y-11100D01*
X28246Y-10993D01*
X28443Y-10797D01*
X28549Y-10539D01*
X28550Y-10261D01*
X28443Y-10004D01*
X28247Y-9806D01*
X28157Y-9769D01*
X28473Y-9769D01*
X28777Y-9830D01*
X29012Y-9987D01*
X29169Y-10222D01*
X29230Y-10526D01*
X29230Y-15473D01*
X29230Y-15473D01*
G37*
G54D38*
X29230Y-15473D02*
X29169Y-15777D01*
X29012Y-16012D01*
X28777Y-16169D01*
X28473Y-16230D01*
X28157Y-16230D01*
X28246Y-16193D01*
X28443Y-15997D01*
X28549Y-15739D01*
X28550Y-15461D01*
X28443Y-15204D01*
X28247Y-15006D01*
X27989Y-14900D01*
X27711Y-14899D01*
X27454Y-15006D01*
X27256Y-15202D01*
X27250Y-15219D01*
X27243Y-15204D01*
X27047Y-15006D01*
X26789Y-14900D01*
X26511Y-14899D01*
X26254Y-15006D01*
X26056Y-15202D01*
X25950Y-15460D01*
X25949Y-15738D01*
X26056Y-15996D01*
X26252Y-16193D01*
X26342Y-16230D01*
X24550Y-16230D01*
X22800Y-16230D01*
X22800Y-16225D01*
X22800Y-16112D01*
X22737Y-16050D01*
X22425Y-16050D01*
X22425Y-16057D01*
X22325Y-16057D01*
X22325Y-16050D01*
X22317Y-16050D01*
X22317Y-15950D01*
X22325Y-15950D01*
X22325Y-15942D01*
X22425Y-15942D01*
X22425Y-15950D01*
X22737Y-15950D01*
X22800Y-15887D01*
X22800Y-15774D01*
X22800Y-15675D01*
X22779Y-15626D01*
X22779Y-15075D01*
X22768Y-14867D01*
X22710Y-14727D01*
X22617Y-14702D01*
X22547Y-14773D01*
X22547Y-14632D01*
X22522Y-14539D01*
X22325Y-14470D01*
X22117Y-14481D01*
X21977Y-14539D01*
X21952Y-14632D01*
X22250Y-14929D01*
X22547Y-14632D01*
X22547Y-14773D01*
X22320Y-15000D01*
X22617Y-15297D01*
X22710Y-15272D01*
X22779Y-15075D01*
X22779Y-15626D01*
X22761Y-15583D01*
X22691Y-15513D01*
X22599Y-15475D01*
X22487Y-15475D01*
X22522Y-15460D01*
X22547Y-15367D01*
X22250Y-15070D01*
X21952Y-15367D01*
X21977Y-15460D01*
X22089Y-15500D01*
X22058Y-15513D01*
X21999Y-15571D01*
X21941Y-15513D01*
X21849Y-15475D01*
X21750Y-15475D01*
X21575Y-15475D01*
X21575Y-15417D01*
X21694Y-15297D01*
X21747Y-15171D01*
X21789Y-15272D01*
X21882Y-15297D01*
X22179Y-15000D01*
X21882Y-14702D01*
X21789Y-14727D01*
X21750Y-14837D01*
X21695Y-14703D01*
X21547Y-14555D01*
X21354Y-14475D01*
X21146Y-14474D01*
X20953Y-14554D01*
X20805Y-14702D01*
X20775Y-14774D01*
X20775Y-14675D01*
X20736Y-14583D01*
X20666Y-14513D01*
X20574Y-14475D01*
X20475Y-14475D01*
X19925Y-14475D01*
X19833Y-14513D01*
X19763Y-14583D01*
X19725Y-14675D01*
X19725Y-14741D01*
X19684Y-14725D01*
X19643Y-14725D01*
X19648Y-14713D01*
X19648Y-14613D01*
X19648Y-13827D01*
X19656Y-13830D01*
X19756Y-13830D01*
X20450Y-13830D01*
X20450Y-14300D01*
X24550Y-14300D01*
X24550Y-12075D01*
X25000Y-12075D01*
X25124Y-12050D01*
X25124Y-12050D01*
X25229Y-11979D01*
X25979Y-11229D01*
X26050Y-11124D01*
X26075Y-11000D01*
X26075Y-11000D01*
X26075Y-10999D01*
X26075Y-10884D01*
X26109Y-10849D01*
X26252Y-10993D01*
X26510Y-11099D01*
X26788Y-11100D01*
X27046Y-10993D01*
X27243Y-10797D01*
X27249Y-10780D01*
X27256Y-10796D01*
X27452Y-10993D01*
X27710Y-11099D01*
X27988Y-11100D01*
X28246Y-10993D01*
X28443Y-10797D01*
X28549Y-10539D01*
X28550Y-10261D01*
X28443Y-10004D01*
X28247Y-9806D01*
X28157Y-9769D01*
X28473Y-9769D01*
X28777Y-9830D01*
X29012Y-9987D01*
X29169Y-10222D01*
X29230Y-10526D01*
X29230Y-15473D01*
G54D10*
G36*
X15450Y-11950D02*
X14700Y-11950D01*
X14700Y-12450D01*
X13769Y-12450D01*
X13769Y-10526D01*
X13830Y-10222D01*
X13987Y-9987D01*
X14222Y-9830D01*
X14526Y-9769D01*
X14700Y-9769D01*
X14700Y-11300D01*
X15450Y-11300D01*
X15450Y-11950D01*
X15450Y-11950D01*
G37*
G54D38*
X15450Y-11950D02*
X14700Y-11950D01*
X14700Y-12450D01*
X13769Y-12450D01*
X13769Y-10526D01*
X13830Y-10222D01*
X13987Y-9987D01*
X14222Y-9830D01*
X14526Y-9769D01*
X14700Y-9769D01*
X14700Y-11300D01*
X15450Y-11300D01*
X15450Y-11950D01*
G54D10*
G36*
X22843Y-13950D02*
X22156Y-13950D01*
X22159Y-13943D01*
X22159Y-13843D01*
X22159Y-13825D01*
X22250Y-13825D01*
X22374Y-13800D01*
X22374Y-13800D01*
X22479Y-13729D01*
X22647Y-13562D01*
X22647Y-13562D01*
X22649Y-13574D01*
X22720Y-13679D01*
X22770Y-13729D01*
X22840Y-13776D01*
X22840Y-13943D01*
X22843Y-13950D01*
X22843Y-13950D01*
G37*
G54D38*
X22843Y-13950D02*
X22156Y-13950D01*
X22159Y-13943D01*
X22159Y-13843D01*
X22159Y-13825D01*
X22250Y-13825D01*
X22374Y-13800D01*
X22374Y-13800D01*
X22479Y-13729D01*
X22647Y-13562D01*
X22647Y-13562D01*
X22649Y-13574D01*
X22720Y-13679D01*
X22770Y-13729D01*
X22840Y-13776D01*
X22840Y-13943D01*
X22843Y-13950D01*
G54D10*
G36*
X24200Y-12887D02*
X24124Y-12856D01*
X24025Y-12856D01*
X23275Y-12856D01*
X23275Y-12772D01*
X23282Y-12775D01*
X23381Y-12775D01*
X23617Y-12775D01*
X23700Y-12741D01*
X23782Y-12775D01*
X23837Y-12775D01*
X23900Y-12713D01*
X23900Y-12300D01*
X23892Y-12300D01*
X23892Y-12200D01*
X23900Y-12200D01*
X23900Y-12192D01*
X24000Y-12192D01*
X24000Y-12200D01*
X24007Y-12200D01*
X24007Y-12300D01*
X24000Y-12300D01*
X24000Y-12713D01*
X24062Y-12775D01*
X24117Y-12775D01*
X24200Y-12741D01*
X24200Y-12887D01*
X24200Y-12887D01*
G37*
G54D38*
X24200Y-12887D02*
X24124Y-12856D01*
X24025Y-12856D01*
X23275Y-12856D01*
X23275Y-12772D01*
X23282Y-12775D01*
X23381Y-12775D01*
X23617Y-12775D01*
X23700Y-12741D01*
X23782Y-12775D01*
X23837Y-12775D01*
X23900Y-12713D01*
X23900Y-12300D01*
X23892Y-12300D01*
X23892Y-12200D01*
X23900Y-12200D01*
X23900Y-12192D01*
X24000Y-12192D01*
X24000Y-12200D01*
X24007Y-12200D01*
X24007Y-12300D01*
X24000Y-12300D01*
X24000Y-12713D01*
X24062Y-12775D01*
X24117Y-12775D01*
X24200Y-12741D01*
X24200Y-12887D01*
M02*
