999
dxflib 3.3.4.0
  0
SECTION
  2
HEADER
  9
$ACADVER
  1
AC1015
  9
$HANDSEED
  5
FFFF
  9
$DIMADEC
 70
0
  9
$DIMASZ
 40
2.5
  9
$DIMAUNIT
 70
0
  9
$DIMAZIN
 70
2
  9
$DIMDEC
 70
4
  9
$DIMEXE
 40
1.25
  9
$DIMEXO
 40
0.625
  9
$DIMGAP
 40
0.625
  9
$DIMLUNIT
 70
2
  9
$DIMTSZ
 40
0.0
  9
$DIMTXT
 40
2.5
  9
$DIMZIN
 70
8
  9
$DWGCODEPAGE
  3
ANSI_1252
  9
$INSUNITS
 70
4
  9
$LTSCALE
 40
1.0
  0
ENDSEC
  0
SECTION
  2
TABLES
  0
TABLE
  2
VPORT
  5
8
100
AcDbSymbolTable
 70
1
  0
VPORT
  5
30
100
AcDbSymbolTableRecord
100
AcDbViewportTableRecord
  2
*Active
 70
0
 10
0.0
 20
0.0
 11
1.0
 21
1.0
 12
286.3055555555554861
 22
148.5
 13
0.0
 23
0.0
 14
10.0
 24
10.0
 15
10.0
 25
10.0
 16
0.0
 26
0.0
 36
1.0
 17
0.0
 27
0.0
 37
0.0
 40
297.0
 41
1.92798353909465
 42
50.0
 43
0.0
 44
0.0
 50
0.0
 51
0.0
 71
0
 72
100
 73
1
 74
3
 75
1
 76
1
 77
0
 78
0
281
0
 65
1
110
0.0
120
0.0
130
0.0
111
1.0
121
0.0
131
0.0
112
0.0
122
1.0
132
0.0
 79
0
146
0.0
  0
ENDTAB
  0
TABLE
  2
LTYPE
  5
5
100
AcDbSymbolTable
 70
21
  0
LTYPE
  5
16
100
AcDbSymbolTableRecord
100
AcDbLinetypeTableRecord
  2
CONTINUOUS
 70
0
  3
Solid line
 72
65
 73
0
 40
0.0
  0
LTYPE
  5
31
100
AcDbSymbolTableRecord
100
AcDbLinetypeTableRecord
  2
CENTER2
 70
0
  3
Center (.5x) ___ _ ___ _ ___ _ ___ _ ___ _ ___
 72
65
 73
4
 40
28.5749999999999993
 49
19.0500000000000007
 74
0
 49
-3.1749999999999998
 74
0
 49
3.1749999999999998
 74
0
 49
-3.1749999999999998
 74
0
  0
LTYPE
  5
32
100
AcDbSymbolTableRecord
100
AcDbLinetypeTableRecord
  2
DIVIDEX2
 70
0
  3
Divide (2x) ________  .  .  ________  .  .  _
 72
65
 73
6
 40
63.5
 49
25.3999999999999986
 74
0
 49
-12.6999999999999993
 74
0
 49
0.0
 74
0
 49
-12.6999999999999993
 74
0
 49
0.0
 74
0
 49
-12.6999999999999993
 74
0
  0
LTYPE
  5
33
100
AcDbSymbolTableRecord
100
AcDbLinetypeTableRecord
  2
DOT2
 70
0
  3
Dot (.5x) .....................................
 72
65
 73
2
 40
3.1749999999999998
 49
0.0
 74
0
 49
-3.1749999999999998
 74
0
  0
LTYPE
  5
34
100
AcDbSymbolTableRecord
100
AcDbLinetypeTableRecord
  2
DASHDOT2
 70
0
  3
Dash dot (.5x) _._._._._._._._._._._._._._._.
 72
65
 73
4
 40
12.6999999999999993
 49
6.3499999999999996
 74
0
 49
-3.1749999999999998
 74
0
 49
0.0
 74
0
 49
-3.1749999999999998
 74
0
  0
LTYPE
  5
35
100
AcDbSymbolTableRecord
100
AcDbLinetypeTableRecord
  2
DIVIDE
 70
0
  3
Divide ____ . . ____ . . ____ . . ____ . . ____
 72
65
 73
6
 40
31.75
 49
12.6999999999999993
 74
0
 49
-6.3499999999999996
 74
0
 49
0.0
 74
0
 49
-6.3499999999999996
 74
0
 49
0.0
 74
0
 49
-6.3499999999999996
 74
0
  0
LTYPE
  5
36
100
AcDbSymbolTableRecord
100
AcDbLinetypeTableRecord
  2
DASHDOT
 70
0
  3
Dash dot __ . __ . __ . __ . __ . __ . __ . __
 72
65
 73
4
 40
25.3999999999999986
 49
12.6999999999999993
 74
0
 49
-6.3499999999999996
 74
0
 49
0.0
 74
0
 49
-6.3499999999999996
 74
0
  0
LTYPE
  5
37
100
AcDbSymbolTableRecord
100
AcDbLinetypeTableRecord
  2
BORDER
 70
0
  3
Border __ __ . __ __ . __ __ . __ __ . __ __ .
 72
65
 73
6
 40
44.4500000000000028
 49
12.6999999999999993
 74
0
 49
-6.3499999999999996
 74
0
 49
12.6999999999999993
 74
0
 49
-6.3499999999999996
 74
0
 49
0.0
 74
0
 49
-6.3499999999999996
 74
0
  0
LTYPE
  5
38
100
AcDbSymbolTableRecord
100
AcDbLinetypeTableRecord
  2
DASHDOTX2
 70
0
  3
Dash dot (2x) ____  .  ____  .  ____  .  ___
 72
65
 73
4
 40
50.7999999999999972
 49
25.3999999999999986
 74
0
 49
-12.6999999999999993
 74
0
 49
0.0
 74
0
 49
-12.6999999999999993
 74
0
  0
LTYPE
  5
39
100
AcDbSymbolTableRecord
100
AcDbLinetypeTableRecord
  2
CENTERX2
 70
0
  3
Center (2x) ________  __  ________  __  _____
 72
65
 73
4
 40
101.5999999999999943
 49
63.5
 74
0
 49
-12.6999999999999993
 74
0
 49
12.6999999999999993
 74
0
 49
-12.6999999999999993
 74
0
  0
LTYPE
  5
3A
100
AcDbSymbolTableRecord
100
AcDbLinetypeTableRecord
  2
BORDER2
 70
0
  3
Border (.5x) __.__.__.__.__.__.__.__.__.__.__.
 72
65
 73
6
 40
22.2250000000000014
 49
6.3499999999999996
 74
0
 49
-3.1749999999999998
 74
0
 49
6.3499999999999996
 74
0
 49
-3.1749999999999998
 74
0
 49
0.0
 74
0
 49
-3.1749999999999998
 74
0
  0
LTYPE
  5
3B
100
AcDbSymbolTableRecord
100
AcDbLinetypeTableRecord
  2
BORDERX2
 70
0
  3
Border (2x) ____  ____  .  ____  ____  .  ___
 72
65
 73
6
 40
88.9000000000000057
 49
25.3999999999999986
 74
0
 49
-12.6999999999999993
 74
0
 49
25.3999999999999986
 74
0
 49
-12.6999999999999993
 74
0
 49
0.0
 74
0
 49
-12.6999999999999993
 74
0
  0
LTYPE
  5
14
100
AcDbSymbolTableRecord
100
AcDbLinetypeTableRecord
  2
BYBLOCK
 70
0
  3

 72
65
 73
0
 40
0.0
  0
LTYPE
  5
15
100
AcDbSymbolTableRecord
100
AcDbLinetypeTableRecord
  2
BYLAYER
 70
0
  3

 72
65
 73
0
 40
0.0
  0
LTYPE
  5
3C
100
AcDbSymbolTableRecord
100
AcDbLinetypeTableRecord
  2
DASHED2
 70
0
  3
Dashed (.5x) _ _ _ _ _ _ _ _ _ _ _ _ _ _ _ _ _
 72
65
 73
2
 40
9.5250000000000004
 49
6.3499999999999996
 74
0
 49
-3.1749999999999998
 74
0
  0
LTYPE
  5
3D
100
AcDbSymbolTableRecord
100
AcDbLinetypeTableRecord
  2
CENTER
 70
0
  3
Center ____ _ ____ _ ____ _ ____ _ ____ _ ____
 72
65
 73
4
 40
50.7999999999999972
 49
31.75
 74
0
 49
-6.3499999999999996
 74
0
 49
6.3499999999999996
 74
0
 49
-6.3499999999999996
 74
0
  0
LTYPE
  5
3E
100
AcDbSymbolTableRecord
100
AcDbLinetypeTableRecord
  2
DIVIDE2
 70
0
  3
Divide (.5x) __..__..__..__..__..__..__..__.._
 72
65
 73
6
 40
15.875
 49
6.3499999999999996
 74
0
 49
-3.1749999999999998
 74
0
 49
0.0
 74
0
 49
-3.1749999999999998
 74
0
 49
0.0
 74
0
 49
-3.1749999999999998
 74
0
  0
LTYPE
  5
3F
100
AcDbSymbolTableRecord
100
AcDbLinetypeTableRecord
  2
DASHED
 70
0
  3
Dashed __ __ __ __ __ __ __ __ __ __ __ __ __ _
 72
65
 73
2
 40
19.0500000000000007
 49
12.6999999999999993
 74
0
 49
-6.3499999999999996
 74
0
  0
LTYPE
  5
40
100
AcDbSymbolTableRecord
100
AcDbLinetypeTableRecord
  2
DOTX2
 70
0
  3
Dot (2x) .  .  .  .  .  .  .  .  .  .  .  .  .
 72
65
 73
2
 40
12.6999999999999993
 49
0.0
 74
0
 49
-12.6999999999999993
 74
0
  0
LTYPE
  5
41
100
AcDbSymbolTableRecord
100
AcDbLinetypeTableRecord
  2
DASHEDX2
 70
0
  3
Dashed (2x) ____  ____  ____  ____  ____  ___
 72
65
 73
2
 40
38.1000000000000014
 49
25.3999999999999986
 74
0
 49
-12.6999999999999993
 74
0
  0
LTYPE
  5
42
100
AcDbSymbolTableRecord
100
AcDbLinetypeTableRecord
  2
DOT
 70
0
  3
Dot . . . . . . . . . . . . . . . . . . . . . .
 72
65
 73
2
 40
6.3499999999999996
 49
0.0
 74
0
 49
-6.3499999999999996
 74
0
  0
ENDTAB
  0
TABLE
  2
LAYER
  5
2
100
AcDbSymbolTable
 70
1
  0
LAYER
  5
10
100
AcDbSymbolTableRecord
100
AcDbLayerTableRecord
  2
0
 70
0
 62
7
420
0
  6
CONTINUOUS
370
25
390
F
  0
ENDTAB
  0
TABLE
  2
STYLE
  5
3
100
AcDbSymbolTable
 70
1
  0
STYLE
  5
43
100
AcDbSymbolTableRecord
100
AcDbTextStyleTableRecord
  2
Standard
 70
0
 40
0.0
 41
1.0
 50
0.0
 71
0
 42
2.5
  3

  4

1001
ACAD
1000
txt
1071
0
  0
ENDTAB
  0
TABLE
  2
VIEW
  5
6
100
AcDbSymbolTable
 70
0
  0
ENDTAB
  0
TABLE
  2
UCS
  5
7
100
AcDbSymbolTable
 70
0
  0
ENDTAB
  0
TABLE
  2
APPID
  5
9
100
AcDbSymbolTable
 70
1
  0
APPID
  5
12
100
AcDbSymbolTableRecord
100
AcDbRegAppTableRecord
  2
ACAD
 70
0
  0
APPID
  5
44
100
AcDbSymbolTableRecord
100
AcDbRegAppTableRecord
  2
QCAD
 70
0
  0
ENDTAB
  0
TABLE
  2
DIMSTYLE
  5
A
100
AcDbSymbolTable
 70
1
100
AcDbDimStyleTable
 71
0
  0
DIMSTYLE
105
27
100
AcDbSymbolTableRecord
100
AcDbDimStyleTableRecord
  2
Standard
 41
2.5
 42
0.625
 43
3.75
 44
1.25
 70
0
 73
0
 74
0
 77
1
 78
8
140
2.5
141
2.5
143
0.03937007874016
147
0.625
171
3
172
1
271
2
272
2
274
3
278
44
283
0
284
8
340
43
  0
ENDTAB
  0
TABLE
  2
BLOCK_RECORD
  5
1
100
AcDbSymbolTable
 70
1
  0
BLOCK_RECORD
  5
1F
100
AcDbSymbolTableRecord
100
AcDbBlockTableRecord
  2
*Model_Space
340
22
  0
BLOCK_RECORD
  5
1B
100
AcDbSymbolTableRecord
100
AcDbBlockTableRecord
  2
*Paper_Space
340
1E
  0
BLOCK_RECORD
  5
23
100
AcDbSymbolTableRecord
100
AcDbBlockTableRecord
  2
*Paper_Space0
340
26
  0
BLOCK_RECORD
  5
45
100
AcDbSymbolTableRecord
100
AcDbBlockTableRecord
  2
head
340
0
  0
BLOCK_RECORD
  5
46
100
AcDbSymbolTableRecord
100
AcDbBlockTableRecord
  2
thorax_botom
340
0
  0
BLOCK_RECORD
  5
47
100
AcDbSymbolTableRecord
100
AcDbBlockTableRecord
  2
tibia_rear
340
0
  0
BLOCK_RECORD
  5
48
100
AcDbSymbolTableRecord
100
AcDbBlockTableRecord
  2
servo_top
340
0
  0
BLOCK_RECORD
  5
49
100
AcDbSymbolTableRecord
100
AcDbBlockTableRecord
  2
femur_tibia
340
0
  0
BLOCK_RECORD
  5
4A
100
AcDbSymbolTableRecord
100
AcDbBlockTableRecord
  2
femur
340
0
  0
BLOCK_RECORD
  5
4B
100
AcDbSymbolTableRecord
100
AcDbBlockTableRecord
  2
coxa
340
0
  0
BLOCK_RECORD
  5
4C
100
AcDbSymbolTableRecord
100
AcDbBlockTableRecord
  2
jaw
340
0
  0
BLOCK_RECORD
  5
4D
100
AcDbSymbolTableRecord
100
AcDbBlockTableRecord
  2
femur_tibia_control
340
0
  0
BLOCK_RECORD
  5
4E
100
AcDbSymbolTableRecord
100
AcDbBlockTableRecord
  2
tibia_middle
340
0
  0
BLOCK_RECORD
  5
4F
100
AcDbSymbolTableRecord
100
AcDbBlockTableRecord
  2
abdomen
340
0
  0
BLOCK_RECORD
  5
50
100
AcDbSymbolTableRecord
100
AcDbBlockTableRecord
  2
thorax_top
340
0
  0
BLOCK_RECORD
  5
51
100
AcDbSymbolTableRecord
100
AcDbBlockTableRecord
  2
tibia_front
340
0
  0
ENDTAB
  0
ENDSEC
  0
SECTION
  2
BLOCKS
  0
BLOCK
  5
20
100
AcDbEntity
  8
0
100
AcDbBlockBegin
  2
*Model_Space
 70
0
 10
0.0
 20
0.0
 30
0.0
  3
*Model_Space
  1

  0
ENDBLK
  5
21
100
AcDbEntity
  8
0
100
AcDbBlockEnd
  0
BLOCK
  5
1C
100
AcDbEntity
 67
1
  8
0
100
AcDbBlockBegin
  2
*Paper_Space
 70
0
 10
0.0
 20
0.0
 30
0.0
  3
*Paper_Space
  1

  0
ENDBLK
  5
1D
100
AcDbEntity
 67
1
  8
0
100
AcDbBlockEnd
  0
BLOCK
  5
24
100
AcDbEntity
  8
0
100
AcDbBlockBegin
  2
*Paper_Space0
 70
0
 10
0.0
 20
0.0
 30
0.0
  3
*Paper_Space0
  1

  0
ENDBLK
  5
25
100
AcDbEntity
  8
0
100
AcDbBlockEnd
  0
BLOCK
  5
52
100
AcDbEntity
  8
0
100
AcDbBlockBegin
  2
head
 70
0
 10
0.0
 20
0.0
 30
0.0
  3
head
  1

  0
ARC
  5
53
100
AcDbEntity
  8
0
 62
256
370
-1
  6
BYLAYER
100
AcDbCircle
 10
-45.4355957741627208
 20
-63.8711915483254984
 30
0.0
 40
30.0
100
AcDbArc
 50
24.6720496781712839
 51
50.5139824413384275
  0
ARC
  5
54
100
AcDbEntity
  8
0
 62
256
370
-1
  6
BYLAYER
100
AcDbCircle
 10
45.4355957741627208
 20
-63.8711915483254984
 30
0.0
 40
30.0
100
AcDbArc
 50
129.4860175586615298
 51
155.3279503218287232
  0
ARC
  5
55
100
AcDbEntity
  8
0
 62
256
370
-1
  6
BYLAYER
100
AcDbCircle
 10
-58.5866030088634488
 20
12.9464260659777324
 30
0.0
 40
50.0
100
AcDbArc
 50
310.0241209788028982
 51
347.5390734925044853
  0
ARC
  5
56
100
AcDbEntity
  8
0
 62
256
370
-1
  6
BYLAYER
100
AcDbCircle
 10
58.5866030088634488
 20
12.9464260659777324
 30
0.0
 40
50.0
100
AcDbArc
 50
192.4609265074954862
 51
229.9758790211971302
  0
ARC
  5
57
100
AcDbEntity
  8
0
 62
256
370
-1
  6
BYLAYER
100
AcDbCircle
 10
0.0
 20
0.0
 30
0.0
 40
10.0
100
AcDbArc
 50
12.4609265074955609
 51
167.5390734925046274
  0
ARC
  5
58
100
AcDbEntity
  8
0
 62
256
370
-1
  6
BYLAYER
100
AcDbCircle
 10
-20.0
 20
-33.0000000000001137
 30
0.0
 40
10.0
100
AcDbArc
 50
130.0241209788027277
 51
230.5139824413383565
  0
ARC
  5
59
100
AcDbEntity
  8
0
 62
256
370
-1
  6
BYLAYER
100
AcDbCircle
 10
0.0
 20
-43.0000000000001137
 30
0.0
 40
20.0
100
AcDbArc
 50
204.6720496781713337
 51
335.3279503218286663
  0
ARC
  5
5A
100
AcDbEntity
  8
0
 62
256
370
-1
  6
BYLAYER
100
AcDbCircle
 10
20.0
 20
-33.0000000000001137
 30
0.0
 40
10.0
100
AcDbArc
 50
309.4860175586615583
 51
49.9758790211973789
  0
CIRCLE
  5
5B
100
AcDbEntity
100
AcDbCircle
  8
0
 62
256
370
-1
  6
BYLAYER
 10
-10.0
 20
-42.9999999999999929
 30
0.0
 40
1.0
  0
CIRCLE
  5
5C
100
AcDbEntity
100
AcDbCircle
  8
0
 62
256
370
-1
  6
BYLAYER
 10
10.0
 20
-42.9999999999999929
 30
0.0
 40
1.0
  0
CIRCLE
  5
5D
100
AcDbEntity
100
AcDbCircle
  8
0
 62
256
370
-1
  6
BYLAYER
 10
0.0
 20
0.0
 30
0.0
 40
3.0
  0
ENDBLK
  5
5E
100
AcDbEntity
  8
0
100
AcDbBlockEnd
  0
BLOCK
  5
5F
100
AcDbEntity
  8
0
100
AcDbBlockBegin
  2
thorax_botom
 70
0
 10
0.0
 20
0.0
 30
0.0
  3
thorax_botom
  1

  0
ARC
  5
60
100
AcDbEntity
  8
0
 62
256
370
-1
  6
BYLAYER
100
AcDbCircle
 10
-74.6446609406727362
 20
-128.7439318958373633
 30
0.0
 40
110.0
100
AcDbArc
 50
64.8369761404662768
 51
113.1323963992978747
  0
ARC
  5
61
100
AcDbEntity
  8
0
 62
256
370
-1
  6
BYLAYER
100
AcDbCircle
 10
-129.6446609406727362
 20
-0.0000000000000142
 30
0.0
 40
30.0
100
AcDbArc
 50
66.8676036007022248
 51
293.1323963992978179
  0
ARC
  5
62
100
AcDbEntity
  8
0
 62
256
370
-1
  6
BYLAYER
100
AcDbCircle
 10
90.3553390593272638
 20
-0.0000000000000142
 30
0.0
 40
30.0
100
AcDbArc
 50
267.3266736257778007
 51
92.6733263742220714
  0
ARC
  5
63
100
AcDbEntity
  8
0
 62
256
370
-1
  6
BYLAYER
100
AcDbCircle
 10
26.8018366289587107
 20
-98.836307989704494
 30
0.0
 40
139.2057366328326395
100
AcDbArc
 50
70.341018437192588
 51
115.1703956662043282
  0
ARC
  5
64
100
AcDbEntity
  8
0
 62
256
370
-1
  6
BYLAYER
100
AcDbCircle
 10
26.8018366289586538
 20
98.8363079897044798
 30
0.0
 40
139.2057366328326395
100
AcDbArc
 50
244.8295831959495104
 51
289.6589815628073552
  0
ARC
  5
65
100
AcDbEntity
  8
0
 62
256
370
-1
  6
BYLAYER
100
AcDbCircle
 10
87.0904396705993236
 20
69.9238187743023758
 30
0.0
 40
40.0
100
AcDbArc
 50
250.3410184371925311
 51
272.6733263742219719
  0
ARC
  5
66
100
AcDbEntity
  8
0
 62
256
370
-1
  6
BYLAYER
100
AcDbCircle
 10
87.0904396705990962
 20
-69.9238187743024184
 30
0.0
 40
40.0
100
AcDbArc
 50
87.326673625777758
 51
109.6589815628073552
  0
CIRCLE
  5
67
100
AcDbEntity
100
AcDbCircle
  8
0
 62
256
370
-1
  6
BYLAYER
 10
-129.6446609406727646
 20
-24.0
 30
0.0
 40
2.0
  0
CIRCLE
  5
68
100
AcDbEntity
100
AcDbCircle
  8
0
 62
256
370
-1
  6
BYLAYER
 10
-19.6446609406727362
 20
-28.0
 30
0.0
 40
2.0
  0
CIRCLE
  5
69
100
AcDbEntity
100
AcDbCircle
  8
0
 62
256
370
-1
  6
BYLAYER
 10
90.3553390593272638
 20
-24.0
 30
0.0
 40
2.0
  0
ARC
  5
6A
100
AcDbEntity
  8
0
 62
256
370
-1
  6
BYLAYER
100
AcDbCircle
 10
-74.6446609406727362
 20
128.7439318958373065
 30
0.0
 40
110.0
100
AcDbArc
 50
246.8676036007020969
 51
295.1630238595337232
  0
CIRCLE
  5
6B
100
AcDbEntity
100
AcDbCircle
  8
0
 62
256
370
-1
  6
BYLAYER
 10
-129.6446609406727646
 20
23.9999999999999716
 30
0.0
 40
2.0
  0
CIRCLE
  5
6C
100
AcDbEntity
100
AcDbCircle
  8
0
 62
256
370
-1
  6
BYLAYER
 10
-19.6446609406727362
 20
28.0000000000000142
 30
0.0
 40
2.0
  0
CIRCLE
  5
6D
100
AcDbEntity
100
AcDbCircle
  8
0
 62
256
370
-1
  6
BYLAYER
 10
90.3553390593272638
 20
24.0000000000000568
 30
0.0
 40
2.0
  0
LINE
  5
6E
100
AcDbEntity
100
AcDbLine
  8
0
 62
256
370
-1
  6
DASHED
 10
-125.0
 20
-7.5
 30
0.0
 11
-15.0
 21
-7.5
 31
0.0
  0
LINE
  5
6F
100
AcDbEntity
100
AcDbLine
  8
0
 62
256
370
-1
  6
DASHED
 10
-15.0
 20
-7.5
 30
0.0
 11
-15.0
 21
7.5
 31
0.0
  0
LINE
  5
70
100
AcDbEntity
100
AcDbLine
  8
0
 62
256
370
-1
  6
DASHED
 10
-15.0
 20
7.5
 30
0.0
 11
-125.0
 21
7.5
 31
0.0
  0
LINE
  5
71
100
AcDbEntity
100
AcDbLine
  8
0
 62
256
370
-1
  6
DASHED
 10
-125.0
 20
7.5
 30
0.0
 11
-125.0
 21
-7.5
 31
0.0
  0
LINE
  5
72
100
AcDbEntity
100
AcDbLine
  8
0
 62
256
370
-1
  6
DASHED
 10
-10.0
 20
-7.5
 30
0.0
 11
100.0
 21
-7.5
 31
0.0
  0
LINE
  5
73
100
AcDbEntity
100
AcDbLine
  8
0
 62
256
370
-1
  6
DASHED
 10
100.0
 20
-7.5
 30
0.0
 11
100.0
 21
7.5
 31
0.0
  0
LINE
  5
74
100
AcDbEntity
100
AcDbLine
  8
0
 62
256
370
-1
  6
DASHED
 10
100.0
 20
7.5
 30
0.0
 11
-10.0
 21
7.5
 31
0.0
  0
LINE
  5
75
100
AcDbEntity
100
AcDbLine
  8
0
 62
256
370
-1
  6
DASHED
 10
-10.0
 20
7.5
 30
0.0
 11
-10.0
 21
-7.5
 31
0.0
  0
CIRCLE
  5
76
100
AcDbEntity
100
AcDbCircle
  8
0
 62
256
370
-1
  6
BYLAYER
 10
-134.2999999999999829
 20
0.0
 30
0.0
 40
3.0
  0
CIRCLE
  5
77
100
AcDbEntity
100
AcDbCircle
  8
0
 62
256
370
-1
  6
BYLAYER
 10
107.0
 20
0.0
 30
0.0
 40
3.0
  0
CIRCLE
  5
78
100
AcDbEntity
100
AcDbCircle
  8
0
 62
256
370
-1
  6
BYLAYER
 10
10.0
 20
33.0
 30
0.0
 40
3.0
  0
CIRCLE
  5
79
100
AcDbEntity
100
AcDbCircle
  8
0
 62
256
370
-1
  6
BYLAYER
 10
10.0
 20
-33.0
 30
0.0
 40
3.0
  0
ARC
  5
7A
100
AcDbEntity
  8
0
 62
256
370
-1
  6
BYLAYER
100
AcDbCircle
 10
50.1949318337968435
 20
-55.1577407324055287
 30
0.0
 40
69.7568318496968374
100
AcDbArc
 50
75.047182750679795
 51
104.667325620670411
  0
ARC
  5
7B
100
AcDbEntity
  8
0
 62
256
370
-1
  6
BYLAYER
100
AcDbCircle
 10
30.3121867388972213
 20
-109.2519027711363151
 30
0.0
 40
141.2522740435525748
100
AcDbArc
 50
72.8052113030732784
 51
90.1362795391906246
  0
ARC
  5
7C
100
AcDbEntity
  8
0
 62
256
370
-1
  6
BYLAYER
100
AcDbCircle
 10
30.0
 20
22.0
 30
0.0
 40
10.0
100
AcDbArc
 50
90.1362795391906531
 51
284.6673256206703968
  0
ARC
  5
7D
100
AcDbEntity
  8
0
 62
256
370
-1
  6
BYLAYER
100
AcDbCircle
 10
70.0
 20
19.0
 30
0.0
 40
7.0
100
AcDbArc
 50
255.0471827506798377
 51
72.8052218892285623
  0
ARC
  5
7E
100
AcDbEntity
  8
0
 62
256
370
-1
  6
BYLAYER
100
AcDbCircle
 10
50.1949318337968364
 20
55.1577407324055287
 30
0.0
 40
69.7568318496968374
100
AcDbArc
 50
255.3326743793295748
 51
284.9528172493202192
  0
ARC
  5
7F
100
AcDbEntity
  8
0
 62
256
370
-1
  6
BYLAYER
100
AcDbCircle
 10
30.312186738897168
 20
109.2519027711363293
 30
0.0
 40
141.2522740435525748
100
AcDbArc
 50
269.8637204608093612
 51
287.1947886969267074
  0
ARC
  5
80
100
AcDbEntity
  8
0
 62
256
370
-1
  6
BYLAYER
100
AcDbCircle
 10
30.0
 20
-22.0000000000000036
 30
0.0
 40
10.0
100
AcDbArc
 50
75.3326743793296458
 51
269.8637204608093612
  0
ARC
  5
81
100
AcDbEntity
  8
0
 62
256
370
-1
  6
BYLAYER
100
AcDbCircle
 10
70.0
 20
-19.0000000000000178
 30
0.0
 40
7.0
100
AcDbArc
 50
287.1947781107714945
 51
104.9528172493201907
  0
CIRCLE
  5
82
100
AcDbEntity
100
AcDbCircle
  8
0
 62
256
370
-1
  6
DOT
 10
30.0
 20
22.0
 30
0.0
 40
10.0
  0
CIRCLE
  5
83
100
AcDbEntity
100
AcDbCircle
  8
0
 62
256
370
-1
  6
DOT
 10
30.0
 20
-22.0000000000000036
 30
0.0
 40
10.0
  0
CIRCLE
  5
84
100
AcDbEntity
100
AcDbCircle
  8
0
 62
256
370
-1
  6
DOT
 10
70.0
 20
19.0
 30
0.0
 40
7.0
  0
CIRCLE
  5
85
100
AcDbEntity
100
AcDbCircle
  8
0
 62
256
370
-1
  6
DOT
 10
70.0
 20
-19.0000000000000178
 30
0.0
 40
7.0
  0
ENDBLK
  5
86
100
AcDbEntity
  8
0
100
AcDbBlockEnd
  0
BLOCK
  5
87
100
AcDbEntity
  8
0
100
AcDbBlockBegin
  2
tibia_rear
 70
0
 10
0.0
 20
0.0
 30
0.0
  3
tibia_rear
  1

  0
LINE
  5
88
100
AcDbEntity
100
AcDbLine
  8
0
 62
256
370
-1
  6
BYLAYER
 10
-7.6463583491373015
 20
4.0646190173115997
 30
0.0
 11
-7.6463583491373015
 21
-25.9353809826884003
 31
0.0
  0
ARC
  5
89
100
AcDbEntity
  8
0
 62
256
370
-1
  6
BYLAYER
100
AcDbCircle
 10
136.1364817444966775
 20
-35.8888794432982792
 30
0.0
 40
130.1445131082007833
100
AcDbArc
 50
161.3138642182418891
 51
175.8380011755167516
  0
ARC
  5
8A
100
AcDbEntity
  8
0
 62
256
370
-1
  6
BYLAYER
100
AcDbCircle
 10
-17.6463583491373015
 20
-75.9353809826884003
 30
0.0
 40
5.0
100
AcDbArc
 50
148.272768469349387
 51
326.4747008864466693
  0
ARC
  5
8B
100
AcDbEntity
  8
0
 62
256
370
-1
  6
BYLAYER
100
AcDbCircle
 10
-103.2603952497865976
 20
-23.0028457081666886
 30
0.0
 40
95.6559317924888006
100
AcDbArc
 50
328.272768469349387
 51
358.3630292723632351
  0
ARC
  5
8C
100
AcDbEntity
  8
0
 62
256
370
-1
  6
BYLAYER
100
AcDbCircle
 10
-118.9438320786561576
 20
-8.823602269261702
 30
0.0
 40
126.5120118591665488
100
AcDbArc
 50
326.4746593922901639
 51
355.8924239428184819
  0
CIRCLE
  5
8D
100
AcDbEntity
100
AcDbCircle
  8
0
 62
256
370
-1
  6
BYLAYER
 10
0.3536416508626985
 20
-0.9353809826883968
 30
0.0
 40
1.0
  0
CIRCLE
  5
8E
100
AcDbEntity
100
AcDbCircle
  8
0
 62
256
370
-1
  6
BYLAYER
 10
0.3536416508626985
 20
-20.9353809826884003
 30
0.0
 40
1.0
  0
ARC
  5
8F
100
AcDbEntity
  8
0
 62
256
370
-1
  6
BYLAYER
100
AcDbCircle
 10
-118.6894531442366088
 20
-19.2064432677637171
 30
0.0
 40
136.8979685239335709
100
AcDbArc
 50
15.5924939290849789
 51
23.1112949640151477
  0
ARC
  5
90
100
AcDbEntity
  8
0
 62
256
370
-1
  6
BYLAYER
100
AcDbCircle
 10
-6.0935883761493983
 20
12.2149870330546229
 30
0.0
 40
20.0
100
AcDbArc
 50
341.3138642182418039
 51
15.5924939290849558
  0
ARC
  5
91
100
AcDbEntity
  8
0
 62
256
370
-1
  6
BYLAYER
100
AcDbCircle
 10
2.6855172976218
 20
11.9288747643891817
 30
0.0
 40
7.0
100
AcDbArc
 50
194.9794103424413265
 51
26.971697254064388
  0
ARC
  5
92
100
AcDbEntity
  8
0
 62
256
370
-1
  6
BYLAYER
100
AcDbCircle
 10
-42.4618258088723906
 20
1.1078173436710959
 30
0.0
 40
34.9407992263645255
100
AcDbArc
 50
4.8543568194041429
 51
45.0381700454504283
  0
LINE
  5
93
100
AcDbEntity
100
AcDbLine
  8
0
 62
256
370
-1
  6
BYLAYER
 10
1.7327618132093576
 20
72.666938229054125
 30
0.0
 11
-1.2072240970693429
 21
65.6994716835564674
 31
0.0
  0
ARC
  5
94
100
AcDbEntity
  8
0
 62
256
370
-1
  6
BYLAYER
100
AcDbCircle
 10
-41.2121991395286287
 20
91.6900306370675651
 30
0.0
 40
48.2385456911747283
100
AcDbArc
 50
291.4594559034334793
 51
319.6971988000016722
  0
ARC
  5
95
100
AcDbEntity
  8
0
 62
256
370
-1
  6
BYLAYER
100
AcDbCircle
 10
-19.6339522746694541
 20
73.4747973146048565
 30
0.0
 40
20.0
100
AcDbArc
 50
319.5086480330424479
 51
337.1222444045184261
  0
ARC
  5
96
100
AcDbEntity
  8
0
 62
256
370
-1
  6
BYLAYER
100
AcDbCircle
 10
-26.716667141295396
 20
53.0830726785427913
 30
0.0
 40
7.0
100
AcDbArc
 50
231.3518210956243308
 51
296.5169089668613651
  0
ARC
  5
97
100
AcDbEntity
  8
0
 62
256
370
-1
  6
BYLAYER
100
AcDbCircle
 10
-41.7701759649871462
 20
55.2074812522917995
 30
0.0
 40
2.0
100
AcDbArc
 50
40.3701308860074803
 51
210.9011163551893162
  0
ARC
  5
98
100
AcDbEntity
  8
0
 62
256
370
-1
  6
BYLAYER
100
AcDbCircle
 10
3.5754346309693688
 20
71.8894056659492833
 30
0.0
 40
2.0
100
AcDbArc
 50
350.6944372394015659
 51
157.122244404518284
  0
ARC
  5
99
100
AcDbEntity
  8
0
 62
256
370
-1
  6
BYLAYER
100
AcDbCircle
 10
94.3302883546300279
 20
57.0186807411701722
 30
0.0
 40
89.9651125927191515
100
AcDbArc
 50
170.6944372394014522
 51
194.476768385914113
  0
ARC
  5
9A
100
AcDbEntity
  8
0
 62
256
370
-1
  6
BYLAYER
100
AcDbCircle
 10
10.5565856698614269
 20
99.6940298696181344
 30
0.0
 40
66.6814603155174126
100
AcDbArc
 50
220.3701308860075301
 51
231.3518210956241319
  0
ARC
  5
9B
100
AcDbEntity
  8
0
 62
256
370
-1
  6
BYLAYER
100
AcDbCircle
 10
66.9256831072144536
 20
120.2634505394311475
 30
0.0
 40
128.6770260123480796
100
AcDbArc
 50
210.9011022878977144
 51
218.1391636218664019
  0
ARC
  5
9C
100
AcDbEntity
  8
0
 62
256
370
-1
  6
BYLAYER
100
AcDbCircle
 10
-24.9818259765546422
 20
66.8431954589707686
 30
0.0
 40
24.9136376627589406
100
AcDbArc
 50
274.0713388802860209
 51
325.4184237135981448
  0
ARC
  5
9D
100
AcDbEntity
  8
0
 62
256
370
-1
  6
BYLAYER
100
AcDbCircle
 10
-35.9479645538176626
 20
5.5333610003525031
 30
0.0
 40
32.1996320561201301
100
AcDbArc
 50
8.188514498255957
 51
51.2446627662987382
  0
ARC
  5
9E
100
AcDbEntity
  8
0
 62
256
370
-1
  6
BYLAYER
100
AcDbCircle
 10
74.2328960702519112
 20
48.3395780610510926
 30
0.0
 40
73.2793044550819133
100
AcDbArc
 50
178.0012682276847613
 51
206.9716972540643951
  0
ARC
  5
9F
100
AcDbEntity
  8
0
 62
256
370
-1
  6
BYLAYER
100
AcDbCircle
 10
-23.0576690866845162
 20
38.2281730895702694
 30
0.0
 40
3.7674594719846222
100
AcDbArc
 50
92.3628836650108695
 51
238.9654701936471497
  0
ARC
  5
A0
100
AcDbEntity
  8
0
 62
256
370
-1
  6
BYLAYER
100
AcDbCircle
 10
-2.0
 20
51.0
 30
0.0
 40
3.0
100
AcDbArc
 50
358.0012682276845339
 51
145.4184237135980879
  0
ARC
  5
A1
100
AcDbEntity
  8
0
 62
256
370
-1
  6
BYLAYER
100
AcDbCircle
 10
-23.0
 20
39.0
 30
0.0
 40
9.0
100
AcDbArc
 50
201.3451201908122812
 51
242.8614462742312696
  0
ARC
  5
A2
100
AcDbEntity
  8
0
 62
256
370
-1
  6
BYLAYER
100
AcDbCircle
 10
-50.0107415162439111
 20
28.4444401975707386
 30
0.0
 40
20.0
100
AcDbArc
 50
21.3451201908122634
 51
38.1391636218663805
  0
LINE
  5
A3
100
AcDbEntity
100
AcDbLine
  8
0
 62
256
370
-1
  6
BYLAYER
 10
-27.1052943697860407
 20
30.9908453543833318
 30
0.0
 11
-20.4502294634274264
 21
27.7414422812424064
 31
0.0
  0
ARC
  5
A4
100
AcDbEntity
  8
0
 62
256
370
-1
  6
BYLAYER
100
AcDbCircle
 10
-24.8377703117915019
 20
18.7553705419373635
 30
0.0
 40
10.0
100
AcDbArc
 50
45.038170045450407
 51
63.9755861592302608
  0
LINE
  5
A5
100
AcDbEntity
100
AcDbLine
  8
0
 62
256
370
-1
  6
BYLAYER
 10
-25.0
 20
35.0
 30
0.0
 11
-18.0991873496253319
 21
32.0312118522515306
 31
0.0
  0
ARC
  5
A6
100
AcDbEntity
  8
0
 62
256
370
-1
  6
BYLAYER
100
AcDbCircle
 10
-22.0510810767042607
 20
22.8452151197311935
 30
0.0
 40
10.0
100
AcDbArc
 50
51.2446627662987382
 51
66.7222147260245322
  0
ENDBLK
  5
A7
100
AcDbEntity
  8
0
100
AcDbBlockEnd
  0
BLOCK
  5
A8
100
AcDbEntity
  8
0
100
AcDbBlockBegin
  2
servo_top
 70
0
 10
0.0
 20
0.0
 30
0.0
  3
servo_top
  1

  0
LINE
  5
A9
100
AcDbEntity
100
AcDbLine
  8
0
 62
256
370
-1
  6
BYLAYER
 10
31.0
 20
5.0000000000000284
 30
0.0
 11
26.5
 21
5.0000000000000284
 31
0.0
  0
LINE
  5
AA
100
AcDbEntity
100
AcDbLine
  8
0
 62
256
370
-1
  6
BYLAYER
 10
26.5
 20
5.0000000000000284
 30
0.0
 11
26.5
 21
-4.9999999999999716
 31
0.0
  0
CIRCLE
  5
AB
100
AcDbEntity
100
AcDbCircle
  8
0
 62
256
370
-1
  6
BYLAYER
 10
0.0
 20
0.0
 30
0.0
 40
1.0
  0
CIRCLE
  5
AC
100
AcDbEntity
100
AcDbCircle
  8
0
 62
256
370
-1
  6
BYLAYER
 10
30.0
 20
0.0
 30
0.0
 40
1.0
  0
CIRCLE
  5
AD
100
AcDbEntity
100
AcDbCircle
  8
0
 62
256
370
-1
  6
BYLAYER
 10
10.5
 20
0.0000000000000284
 30
0.0
 40
10.0
  0
CIRCLE
  5
AE
100
AcDbEntity
100
AcDbCircle
  8
0
 62
256
370
-1
  6
BYLAYER
 10
15.0499999999999972
 20
7.0000000000000284
 30
0.0
 40
0.5
  0
CIRCLE
  5
AF
100
AcDbEntity
100
AcDbCircle
  8
0
 62
256
370
-1
  6
DOT
 10
10.5
 20
0.0000000000000284
 30
0.0
 40
5.0
  0
CIRCLE
  5
B0
100
AcDbEntity
100
AcDbCircle
  8
0
 62
256
370
-1
  6
BYLAYER
 10
10.5
 20
0.0000000000000284
 30
0.0
 40
2.0
  0
LINE
  5
B1
100
AcDbEntity
100
AcDbLine
  8
0
 62
256
370
-1
  6
BYLAYER
 10
3.5
 20
-5.9999999999999716
 30
0.0
 11
26.5
 21
-5.9999999999999716
 31
0.0
  0
LINE
  5
B2
100
AcDbEntity
100
AcDbLine
  8
0
 62
256
370
-1
  6
BYLAYER
 10
26.5
 20
-5.9999999999999716
 30
0.0
 11
26.5
 21
6.0000000000000284
 31
0.0
  0
LINE
  5
B3
100
AcDbEntity
100
AcDbLine
  8
0
 62
256
370
-1
  6
BYLAYER
 10
26.5
 20
6.0000000000000284
 30
0.0
 11
3.5
 21
6.0000000000000284
 31
0.0
  0
LINE
  5
B4
100
AcDbEntity
100
AcDbLine
  8
0
 62
256
370
-1
  6
BYLAYER
 10
3.5
 20
6.0000000000000284
 30
0.0
 11
3.5
 21
-5.9999999999999716
 31
0.0
  0
LINE
  5
B5
100
AcDbEntity
100
AcDbLine
  8
0
 62
256
370
-1
  6
BYLAYER
 10
-1.0
 20
-4.9999999999999716
 30
0.0
 11
3.5
 21
-4.9999999999999716
 31
0.0
  0
LINE
  5
B6
100
AcDbEntity
100
AcDbLine
  8
0
 62
256
370
-1
  6
BYLAYER
 10
3.5
 20
-4.9999999999999716
 30
0.0
 11
3.5
 21
5.0000000000000284
 31
0.0
  0
LINE
  5
B7
100
AcDbEntity
100
AcDbLine
  8
0
 62
256
370
-1
  6
BYLAYER
 10
3.5
 20
5.0000000000000284
 30
0.0
 11
-1.0
 21
5.0000000000000284
 31
0.0
  0
LINE
  5
B8
100
AcDbEntity
100
AcDbLine
  8
0
 62
256
370
-1
  6
BYLAYER
 10
-1.0
 20
5.0000000000000284
 30
0.0
 11
-1.0
 21
-4.9999999999999716
 31
0.0
  0
LINE
  5
B9
100
AcDbEntity
100
AcDbLine
  8
0
 62
256
370
-1
  6
BYLAYER
 10
26.5
 20
-4.9999999999999716
 30
0.0
 11
31.0
 21
-4.9999999999999716
 31
0.0
  0
LINE
  5
BA
100
AcDbEntity
100
AcDbLine
  8
0
 62
256
370
-1
  6
BYLAYER
 10
31.0
 20
-4.9999999999999716
 30
0.0
 11
31.0
 21
5.0000000000000284
 31
0.0
  0
ENDBLK
  5
BB
100
AcDbEntity
  8
0
100
AcDbBlockEnd
  0
BLOCK
  5
BC
100
AcDbEntity
  8
0
100
AcDbBlockBegin
  2
femur_tibia
 70
0
 10
0.0
 20
0.0
 30
0.0
  3
femur_tibia
  1

  0
ARC
  5
BD
100
AcDbEntity
  8
0
 62
256
370
-1
  6
BYLAYER
100
AcDbCircle
 10
0.0
 20
0.0
 30
0.0
 40
5.0
100
AcDbArc
 50
79.184499018653014
 51
280.8155009813469292
  0
ARC
  5
BE
100
AcDbEntity
  8
0
 62
256
370
-1
  6
BYLAYER
100
AcDbCircle
 10
31.9000000000000057
 20
0.0
 30
0.0
 40
5.0
100
AcDbArc
 50
259.1844990186529571
 51
100.8155009813470002
  0
ARC
  5
BF
100
AcDbEntity
  8
0
 62
256
370
-1
  6
BYLAYER
100
AcDbCircle
 10
15.9500000000000171
 20
83.4901042040312973
 30
0.0
 40
80.0
100
AcDbArc
 50
259.1844990186529571
 51
280.8155009813469292
  0
ARC
  5
C0
100
AcDbEntity
  8
0
 62
256
370
-1
  6
BYLAYER
100
AcDbCircle
 10
15.9500000000000171
 20
-83.4901042040312831
 30
0.0
 40
80.0
100
AcDbArc
 50
79.184499018653014
 51
100.8155009813470144
  0
CIRCLE
  5
C1
100
AcDbEntity
100
AcDbCircle
  8
0
 62
256
370
-1
  6
BYLAYER
 10
0.0
 20
0.0
 30
0.0
 40
1.0
  0
CIRCLE
  5
C2
100
AcDbEntity
100
AcDbCircle
  8
0
 62
256
370
-1
  6
BYLAYER
 10
31.9000000000000057
 20
0.0
 30
0.0
 40
1.0
  0
ENDBLK
  5
C3
100
AcDbEntity
  8
0
100
AcDbBlockEnd
  0
BLOCK
  5
C4
100
AcDbEntity
  8
0
100
AcDbBlockBegin
  2
femur
 70
0
 10
0.0
 20
0.0
 30
0.0
  3
femur
  1

  0
LINE
  5
C5
100
AcDbEntity
100
AcDbLine
  8
0
 62
256
370
-1
  6
BYLAYER
 10
-28.0908128558425467
 20
-2.0737481650195875
 30
0.0
 11
-13.3116681560216286
 21
-2.0737481650195875
 31
0.0
  0
LINE
  5
C6
100
AcDbEntity
100
AcDbLine
  8
0
 62
256
370
-1
  6
BYLAYER
 10
-13.3116681560216286
 20
-2.0737481650195875
 30
0.0
 11
-13.3116681560216286
 21
1.0262518349804139
 31
0.0
  0
LINE
  5
C7
100
AcDbEntity
100
AcDbLine
  8
0
 62
256
370
-1
  6
BYLAYER
 10
-13.3116681560216286
 20
1.0262518349804139
 30
0.0
 11
-28.0908128558425467
 21
1.0262518349804139
 31
0.0
  0
LINE
  5
C8
100
AcDbEntity
100
AcDbLine
  8
0
 62
256
370
-1
  6
BYLAYER
 10
3.2883318439783871
 20
-6.5237481650195583
 30
0.0
 11
26.28833184397838
 21
-6.5237481650195797
 31
0.0
  0
LINE
  5
C9
100
AcDbEntity
100
AcDbLine
  8
0
 62
256
370
-1
  6
BYLAYER
 10
26.28833184397838
 20
-6.5237481650195797
 30
0.0
 11
26.2883318439783871
 21
5.4762518349804417
 31
0.0
  0
LINE
  5
CA
100
AcDbEntity
100
AcDbLine
  8
0
 62
256
370
-1
  6
BYLAYER
 10
26.2883318439783871
 20
5.4762518349804417
 30
0.0
 11
3.2883318439783906
 21
5.4762518349804408
 31
0.0
  0
LINE
  5
CB
100
AcDbEntity
100
AcDbLine
  8
0
 62
256
370
-1
  6
BYLAYER
 10
3.2883318439783906
 20
5.4762518349804408
 30
0.0
 11
3.2883318439783871
 21
-6.5237481650195583
 31
0.0
  0
CIRCLE
  5
CC
100
AcDbEntity
100
AcDbCircle
  8
0
 62
256
370
-1
  6
BYLAYER
 10
-0.2116681560215987
 20
-0.5237481650195532
 30
0.0
 40
0.5
  0
CIRCLE
  5
CD
100
AcDbEntity
100
AcDbCircle
  8
0
 62
256
370
-1
  6
BYLAYER
 10
29.7883318439783942
 20
-0.5237481650195598
 30
0.0
 40
0.5
  0
CIRCLE
  5
CE
100
AcDbEntity
100
AcDbCircle
  8
0
 62
256
370
-1
  6
BYLAYER
 10
31.28833184397838
 20
35.4762518349804168
 30
0.0
 40
1.0
  0
CIRCLE
  5
CF
100
AcDbEntity
100
AcDbCircle
  8
0
 62
256
370
-1
  6
BYLAYER
 10
31.28833184397838
 20
15.4762518349804203
 30
0.0
 40
1.0
  0
ARC
  5
D0
100
AcDbEntity
  8
0
 62
256
370
-1
  6
BYLAYER
100
AcDbCircle
 10
31.28833184397838
 20
35.4762518349804168
 30
0.0
 40
5.0
100
AcDbArc
 50
359.5918614598647878
 51
164.9540000929168286
  0
LINE
  5
D1
100
AcDbEntity
100
AcDbLine
  8
0
 62
256
370
-1
  6
BYLAYER
 10
20.1169204548863121
 20
13.178279560002947
 30
0.0
 11
26.4597432330704478
 21
36.774224109957899
 31
0.0
  0
ARC
  5
D2
100
AcDbEntity
  8
0
 62
256
370
-1
  6
BYLAYER
100
AcDbCircle
 10
15.28833184397838
 20
14.4762518349804203
 30
0.0
 40
5.0
100
AcDbArc
 50
265.0595827500652604
 51
344.9540000929168286
  0
LINE
  5
D3
100
AcDbEntity
100
AcDbLine
  8
0
 62
256
370
-1
  6
BYLAYER
 10
-5.063013065265638
 20
7.3904358541540631
 30
0.0
 11
1.3513449092440288
 21
10.0858159808263785
 31
0.0
  0
LINE
  5
D4
100
AcDbEntity
100
AcDbLine
  8
0
 62
256
370
-1
  6
BYLAYER
 10
3.7189305331452776
 20
10.457675804980159
 30
0.0
 11
14.857733154811493
 21
9.4948278649807012
 31
0.0
  0
LINE
  5
D5
100
AcDbEntity
100
AcDbLine
  8
0
 62
256
370
-1
  6
BYLAYER
 10
36.2882049888232103
 20
35.4406353295443708
 30
0.0
 11
35.9998731448448268
 21
-5.0356165054360424
 31
0.0
  0
ARC
  5
D6
100
AcDbEntity
  8
0
 62
256
370
-1
  6
BYLAYER
100
AcDbCircle
 10
-7.0
 20
-14.0
 30
0.0
 40
5.0
100
AcDbArc
 50
74.1642383527101714
 51
93.2884488222413069
  0
ARC
  5
D7
100
AcDbEntity
  8
0
 62
256
370
-1
  6
BYLAYER
100
AcDbCircle
 10
-7.0
 20
12.0
 30
0.0
 40
5.0
100
AcDbArc
 50
264.7303345681419842
 51
292.7926538442287665
  0
ARC
  5
D8
100
AcDbEntity
  8
0
 62
256
370
-1
  6
BYLAYER
100
AcDbCircle
 10
3.2883318439783906
 20
5.4762518349804408
 30
0.0
 40
5.0
100
AcDbArc
 50
85.0595827500653172
 51
112.7926538442287523
  0
ARC
  5
D9
100
AcDbEntity
  8
0
 62
256
370
-1
  6
BYLAYER
100
AcDbCircle
 10
31.0
 20
-5.0
 30
0.0
 40
5.0
100
AcDbArc
 50
273.147284792055757
 51
359.5918614598647878
  0
LINE
  5
DA
100
AcDbEntity
100
AcDbLine
  8
0
 62
256
370
-1
  6
BYLAYER
 10
-5.6355961475202694
 20
-9.1897606995765315
 30
0.0
 11
1.9239279914986565
 21
-11.3339874654430286
 31
0.0
  0
LINE
  5
DB
100
AcDbEntity
100
AcDbLine
  8
0
 62
256
370
-1
  6
BYLAYER
 10
3.5628461546428842
 20
-11.5162066669242478
 30
0.0
 11
31.2745143106644967
 21
-9.9924585019046877
 31
0.0
  0
ARC
  5
DC
100
AcDbEntity
  8
0
 62
256
370
-1
  6
BYLAYER
100
AcDbCircle
 10
3.2883318439783871
 20
-6.5237481650195592
 30
0.0
 40
5.0
100
AcDbArc
 50
254.1642383527101856
 51
273.147284792055757
  0
LINE
  5
DD
100
AcDbEntity
100
AcDbLine
  8
0
 62
256
370
-1
  6
BYLAYER
 10
-28.0908128558425467
 20
-2.0737481650195875
 30
0.0
 11
-27.9986888469959467
 21
-5.1886859566228045
 31
0.0
  0
LINE
  5
DE
100
AcDbEntity
100
AcDbLine
  8
0
 62
256
370
-1
  6
BYLAYER
 10
-28.0908128558425467
 20
1.0262518349804139
 30
0.0
 11
-27.9986435457572469
 21
4.0902046866211368
 31
0.0
  0
ARC
  5
DF
100
AcDbEntity
  8
0
 62
256
370
-1
  6
BYLAYER
100
AcDbCircle
 10
-25.0
 20
4.0
 30
0.0
 40
3.0
100
AcDbArc
 50
95.4940822308089423
 51
178.2769576882681974
  0
ARC
  5
E0
100
AcDbEntity
  8
0
 62
256
370
-1
  6
BYLAYER
100
AcDbCircle
 10
-24.9999999999999964
 20
-5.0999999999999996
 30
0.0
 40
3.0
100
AcDbArc
 50
181.6940238043136731
 51
254.6732901524357544
  0
ARC
  5
E1
100
AcDbEntity
  8
0
 62
256
370
-1
  6
BYLAYER
100
AcDbCircle
 10
-16.1879192896703188
 20
-87.6161533208773307
 30
0.0
 40
95.0389717226342441
100
AcDbArc
 50
84.7303345681419984
 51
95.4940814381008636
  0
ARC
  5
E2
100
AcDbEntity
  8
0
 62
256
370
-1
  6
BYLAYER
100
AcDbCircle
 10
-12.0728074944602088
 20
74.2882055678653757
 30
0.0
 40
83.4338205567840987
100
AcDbArc
 50
260.5317655891529398
 51
273.2884488222412642
  0
ENDBLK
  5
E3
100
AcDbEntity
  8
0
100
AcDbBlockEnd
  0
BLOCK
  5
E4
100
AcDbEntity
  8
0
100
AcDbBlockBegin
  2
coxa
 70
0
 10
0.0
 20
0.0
 30
0.0
  3
coxa
  1

  0
LINE
  5
E5
100
AcDbEntity
100
AcDbLine
  8
0
 62
256
370
-1
  6
BYLAYER
 10
-25.0
 20
8.6602540378443855
 30
0.0
 11
-10.0000000000000036
 21
17.320508075688771
 31
0.0
  0
LINE
  5
E6
100
AcDbEntity
100
AcDbLine
  8
0
 62
256
370
-1
  6
BYLAYER
 10
-25.0
 20
-8.6602540378443855
 30
0.0
 11
-10.0000000000000036
 21
-17.320508075688771
 31
0.0
  0
ARC
  5
E7
100
AcDbEntity
  8
0
 62
256
370
-1
  6
BYLAYER
100
AcDbCircle
 10
0.0
 20
0.0
 30
0.0
 40
20.0
100
AcDbArc
 50
240.0
 51
322.5522573840717087
  0
ARC
  5
E8
100
AcDbEntity
  8
0
 62
256
370
-1
  6
BYLAYER
100
AcDbCircle
 10
-20.0
 20
0.0
 30
0.0
 40
10.0
100
AcDbArc
 50
120.0000000000000142
 51
240.0
  0
ARC
  5
E9
100
AcDbEntity
  8
0
 62
256
370
-1
  6
BYLAYER
100
AcDbCircle
 10
0.0
 20
0.0
 30
0.0
 40
20.0
100
AcDbArc
 50
37.4477426159282842
 51
120.0000000000000142
  0
CIRCLE
  5
EA
100
AcDbEntity
100
AcDbCircle
  8
0
 62
256
370
-1
  6
BYLAYER
 10
0.0000000000000213
 20
15.0
 30
0.0
 40
0.5
  0
CIRCLE
  5
EB
100
AcDbEntity
100
AcDbCircle
  8
0
 62
256
370
-1
  6
BYLAYER
 10
0.0000000000000284
 20
-14.9999999999999982
 30
0.0
 40
0.5
  0
LINE
  5
EC
100
AcDbEntity
100
AcDbLine
  8
0
 62
256
370
-1
  6
BYLAYER
 10
6.0
 20
-11.5
 30
0.0
 11
6.0
 21
11.5
 31
0.0
  0
LINE
  5
ED
100
AcDbEntity
100
AcDbLine
  8
0
 62
256
370
-1
  6
BYLAYER
 10
6.0
 20
11.5
 30
0.0
 11
-5.9999999999999893
 21
11.5
 31
0.0
  0
LINE
  5
EE
100
AcDbEntity
100
AcDbLine
  8
0
 62
256
370
-1
  6
BYLAYER
 10
-5.9999999999999893
 20
11.5
 30
0.0
 11
-6.0
 21
-11.4999999999999982
 31
0.0
  0
LINE
  5
EF
100
AcDbEntity
100
AcDbLine
  8
0
 62
256
370
-1
  6
BYLAYER
 10
-6.0
 20
-11.4999999999999982
 30
0.0
 11
6.0
 21
-11.5
 31
0.0
  0
CIRCLE
  5
F0
100
AcDbEntity
100
AcDbCircle
  8
0
 62
256
370
-1
  6
BYLAYER
 10
-24.0
 20
0.0
 30
0.0
 40
1.75
  0
LINE
  5
F1
100
AcDbEntity
100
AcDbLine
  8
0
 62
256
370
-1
  6
BYLAYER
 10
23.4999999999999929
 20
-1.5500000000000007
 30
0.0
 11
37.8791446998209267
 21
-1.5500000000000007
 31
0.0
  0
LINE
  5
F2
100
AcDbEntity
100
AcDbLine
  8
0
 62
256
370
-1
  6
BYLAYER
 10
37.8791446998209267
 20
1.5500000000000007
 30
0.0
 11
23.4999999999999929
 21
1.5500000000000007
 31
0.0
  0
LINE
  5
F3
100
AcDbEntity
100
AcDbLine
  8
0
 62
256
370
-1
  6
BYLAYER
 10
23.4999999999999929
 20
1.5500000000000007
 30
0.0
 11
23.4999999999999929
 21
-1.5500000000000007
 31
0.0
  0
LINE
  5
F4
100
AcDbEntity
100
AcDbLine
  8
0
 62
256
370
-1
  6
BYLAYER
 10
37.8791446998209338
 20
1.5500000000000007
 30
0.0
 11
37.8999244902597283
 21
4.4787149644136575
 31
0.0
  0
LINE
  5
F5
100
AcDbEntity
100
AcDbLine
  8
0
 62
256
370
-1
  6
BYLAYER
 10
37.8791446998209338
 20
-1.5500000000000007
 30
0.0
 11
37.9973752575854107
 21
-4.3745346055089627
 31
0.0
  0
ARC
  5
F6
100
AcDbEntity
  8
0
 62
256
370
-1
  6
BYLAYER
100
AcDbCircle
 10
34.8999999999999986
 20
4.5
 30
0.0
 40
3.0
100
AcDbArc
 50
359.5934823540276284
 51
90.0
  0
ARC
  5
F7
100
AcDbEntity
  8
0
 62
256
370
-1
  6
BYLAYER
100
AcDbCircle
 10
35.0
 20
-4.5
 30
0.0
 40
3.0
100
AcDbArc
 50
272.8676750144844618
 51
2.3969115978229514
  0
ARC
  5
F8
100
AcDbEntity
  8
0
 62
256
370
-1
  6
BYLAYER
100
AcDbCircle
 10
26.0
 20
28.0
 30
0.0
 40
20.0
100
AcDbArc
 50
257.3922478057433523
 51
267.7016582367481305
  0
ARC
  5
F9
100
AcDbEntity
  8
0
 62
256
370
-1
  6
BYLAYER
100
AcDbCircle
 10
9.4557062154893181
 20
-384.2144655207142705
 30
0.0
 40
392.5463358719309781
100
AcDbArc
 50
86.2549009735848813
 51
87.7016582367481021
  0
ARC
  5
FA
100
AcDbEntity
  8
0
 62
256
370
-1
  6
BYLAYER
100
AcDbCircle
 10
9.4557062154893181
 20
-384.2144655207142705
 30
0.0
 40
392.5463358719309781
100
AcDbArc
 50
86.8559093416140939
 51
87.7016582367481021
  0
ARC
  5
FB
100
AcDbEntity
  8
0
 62
256
370
-1
  6
BYLAYER
100
AcDbCircle
 10
26.0
 20
-28.0
 30
0.0
 40
20.0
100
AcDbArc
 50
93.0966459647808193
 51
102.6077521942566619
  0
ARC
  5
FC
100
AcDbEntity
  8
0
 62
256
370
-1
  6
BYLAYER
100
AcDbCircle
 10
163.4204204278601651
 20
-2568.1806983102414961
 30
0.0
 40
2563.8951141936754539
100
AcDbArc
 50
92.8676750144845187
 51
93.0966077307098914
  0
ARC
  5
FD
100
AcDbEntity
  8
0
 62
256
370
-1
  6
BYLAYER
100
AcDbCircle
 10
23.8172471778029653
 20
18.2411276206115325
 30
0.0
 40
10.0
100
AcDbArc
 50
217.4477426159282629
 51
257.3922478057433523
  0
ARC
  5
FE
100
AcDbEntity
  8
0
 62
256
370
-1
  6
BYLAYER
100
AcDbCircle
 10
23.8172471778029653
 20
-18.2411276206115325
 30
0.0
 40
10.0
100
AcDbArc
 50
102.6077521942566619
 51
142.5522573840717371
  0
ENDBLK
  5
FF
100
AcDbEntity
  8
0
100
AcDbBlockEnd
  0
BLOCK
  5
100
100
AcDbEntity
  8
0
100
AcDbBlockBegin
  2
jaw
 70
0
 10
0.0
 20
0.0
 30
0.0
  3
jaw
  1

  0
ARC
  5
101
100
AcDbEntity
  8
0
 62
256
370
-1
  6
BYLAYER
100
AcDbCircle
 10
9.5533630491981967
 20
-19.3105924677127518
 30
0.0
 40
30.8219078681653933
100
AcDbArc
 50
129.0962960713528105
 51
269.8806810813503603
  0
ARC
  5
102
100
AcDbEntity
  8
0
 62
256
370
-1
  6
BYLAYER
100
AcDbCircle
 10
-6.0617717940020839
 20
-10.7342332274748173
 30
0.0
 40
4.0
100
AcDbArc
 50
106.9794944579389409
 51
212.4682641822593041
  0
ARC
  5
103
100
AcDbEntity
  8
0
 62
256
370
-1
  6
BYLAYER
100
AcDbCircle
 10
-7.8607136390756978
 20
-23.3268261429906261
 30
0.0
 40
4.0
100
AcDbArc
 50
134.3083766200226421
 51
270.3408710098530037
  0
ARC
  5
104
100
AcDbEntity
  8
0
 62
256
370
-1
  6
BYLAYER
100
AcDbCircle
 10
-4.4427241334357177
 20
-29.4432284162411406
 30
0.0
 40
4.0
100
AcDbArc
 50
148.054101082275622
 51
275.6796406252417455
  0
ARC
  5
105
100
AcDbEntity
  8
0
 62
256
370
-1
  6
BYLAYER
100
AcDbCircle
 10
-8.9400787461199798
 20
-16.8506355007253887
 30
0.0
 40
4.0
100
AcDbArc
 50
97.1294885267915049
 51
244.6162677960296037
  0
ARC
  5
106
100
AcDbEntity
  8
0
 62
256
370
-1
  6
BYLAYER
100
AcDbCircle
 10
3.4726199848885244
 20
-41.6760329627422266
 30
0.0
 40
4.0
100
AcDbArc
 50
146.700480830366331
 51
289.5728738404105229
  0
ARC
  5
107
100
AcDbEntity
  8
0
 62
256
370
-1
  6
BYLAYER
100
AcDbCircle
 10
-0.6649462587810149
 20
-35.559630689491712
 30
0.0
 40
4.0
100
AcDbArc
 50
147.7232187137682899
 51
281.4539097298963952
  0
ARC
  5
108
100
AcDbEntity
  8
0
 62
256
370
-1
  6
BYLAYER
100
AcDbCircle
 10
10.6933726685869033
 20
-44.2545162740145201
 30
0.0
 40
6.0
100
AcDbArc
 50
191.4432291928348207
 51
258.4221385745325961
  0
ARC
  5
109
100
AcDbEntity
  8
0
 62
256
370
-1
  6
BYLAYER
100
AcDbCircle
 10
0.0
 20
0.0
 30
0.0
 40
10.0
100
AcDbArc
 50
223.6981914518283077
 51
290.487315114722719
  0
ARC
  5
10A
100
AcDbEntity
  8
0
 62
256
370
-1
  6
BYLAYER
100
AcDbCircle
 10
-41.4150041654592087
 20
43.4142537650365909
 30
0.0
 40
50.0
100
AcDbArc
 50
309.0962960713528105
 51
313.6499072896236271
  0
CIRCLE
  5
10B
100
AcDbEntity
100
AcDbCircle
  8
0
 62
256
370
-1
  6
DOT2
 10
-8.9400787461199798
 20
-16.8506355007253887
 30
0.0
 40
4.0
  0
CIRCLE
  5
10C
100
AcDbEntity
100
AcDbCircle
  8
0
 62
256
370
-1
  6
DOT2
 10
-7.8607136390756978
 20
-23.3268261429906261
 30
0.0
 40
4.0
  0
CIRCLE
  5
10D
100
AcDbEntity
100
AcDbCircle
  8
0
 62
256
370
-1
  6
DOT2
 10
-4.4427241334357177
 20
-29.4432284162411406
 30
0.0
 40
4.0
  0
CIRCLE
  5
10E
100
AcDbEntity
100
AcDbCircle
  8
0
 62
256
370
-1
  6
DOT2
 10
-0.6649462587810149
 20
-35.559630689491712
 30
0.0
 40
4.0
  0
CIRCLE
  5
10F
100
AcDbEntity
100
AcDbCircle
  8
0
 62
256
370
-1
  6
DOT2
 10
3.4726199848885244
 20
-41.6760329627422266
 30
0.0
 40
4.0
  0
CIRCLE
  5
110
100
AcDbEntity
100
AcDbCircle
  8
0
 62
256
370
-1
  6
DOT2
 10
10.5861743032085656
 20
-44.2608883068370744
 30
0.0
 40
6.0
  0
CIRCLE
  5
111
100
AcDbEntity
100
AcDbCircle
  8
0
 62
256
370
-1
  6
BYLAYER
 10
0.0
 20
0.0
 30
0.0
 40
1.0
  0
ARC
  5
112
100
AcDbEntity
  8
0
 62
256
370
-1
  6
BYLAYER
100
AcDbCircle
 10
0.0
 20
0.0
 30
0.0
 40
10.0
100
AcDbArc
 50
69.5126848852773378
 51
133.6499072896239682
  0
ARC
  5
113
100
AcDbEntity
  8
0
 62
256
370
-1
  6
BYLAYER
100
AcDbCircle
 10
-4.0
 20
0.0
 30
0.0
 40
12.0
100
AcDbArc
 50
308.6821874534894619
 51
51.3178125465105595
  0
CIRCLE
  5
114
100
AcDbEntity
100
AcDbCircle
  8
0
 62
256
370
-1
  6
BYLAYER
 10
6.0
 20
-4.0
 30
0.0
 40
0.5
  0
ENDBLK
  5
115
100
AcDbEntity
  8
0
100
AcDbBlockEnd
  0
BLOCK
  5
116
100
AcDbEntity
  8
0
100
AcDbBlockBegin
  2
femur_tibia_control
 70
0
 10
0.0
 20
0.0
 30
0.0
  3
femur_tibia_control
  1

  0
ARC
  5
117
100
AcDbEntity
  8
0
 62
256
370
-1
  6
BYLAYER
100
AcDbCircle
 10
31.9000000000000057
 20
0.0
 30
0.0
 40
5.0
100
AcDbArc
 50
259.1844990186529571
 51
100.8155009813470002
  0
ARC
  5
118
100
AcDbEntity
  8
0
 62
256
370
-1
  6
BYLAYER
100
AcDbCircle
 10
15.9500000000000171
 20
83.4901042040312973
 30
0.0
 40
80.0
100
AcDbArc
 50
259.1844990186529571
 51
280.8155009813469292
  0
ARC
  5
119
100
AcDbEntity
  8
0
 62
256
370
-1
  6
BYLAYER
100
AcDbCircle
 10
15.9500000000000171
 20
-83.4901042040312831
 30
0.0
 40
80.0
100
AcDbArc
 50
79.184499018653014
 51
100.8155009813470144
  0
CIRCLE
  5
11A
100
AcDbEntity
100
AcDbCircle
  8
0
 62
256
370
-1
  6
BYLAYER
 10
31.9000000000000057
 20
0.0
 30
0.0
 40
1.0
  0
CIRCLE
  5
11B
100
AcDbEntity
100
AcDbCircle
  8
0
 62
256
370
-1
  6
BYLAYER
 10
0.0
 20
0.0
 30
0.0
 40
1.0
  0
ARC
  5
11C
100
AcDbEntity
  8
0
 62
256
370
-1
  6
BYLAYER
100
AcDbCircle
 10
0.0
 20
0.0
 30
0.0
 40
5.0
100
AcDbArc
 50
260.7182009133224483
 51
280.8155009813469292
  0
ARC
  5
11D
100
AcDbEntity
  8
0
 62
256
370
-1
  6
BYLAYER
100
AcDbCircle
 10
0.0
 20
0.0
 30
0.0
 40
5.0
100
AcDbArc
 50
79.184499018653014
 51
99.281799086677637
  0
ARC
  5
11E
100
AcDbEntity
  8
0
 62
256
370
-1
  6
BYLAYER
100
AcDbCircle
 10
-31.9000000000000057
 20
-0.0000000000000235
 30
0.0
 40
5.0
100
AcDbArc
 50
79.1844990186529714
 51
280.8155009813470429
  0
ARC
  5
11F
100
AcDbEntity
  8
0
 62
256
370
-1
  6
BYLAYER
100
AcDbCircle
 10
-15.9500000000000721
 20
83.4901042040312973
 30
0.0
 40
80.0
100
AcDbArc
 50
259.1844990186530708
 51
280.8155009813470429
  0
ARC
  5
120
100
AcDbEntity
  8
0
 62
256
370
-1
  6
BYLAYER
100
AcDbCircle
 10
-15.9500000000000615
 20
-83.4901042040312689
 30
0.0
 40
80.0
100
AcDbArc
 50
79.1844990186529714
 51
100.815500981346915
  0
CIRCLE
  5
121
100
AcDbEntity
100
AcDbCircle
  8
0
 62
256
370
-1
  6
BYLAYER
 10
-0.0000000000000007
 20
0.0
 30
0.0
 40
1.0
  0
ARC
  5
122
100
AcDbEntity
  8
0
 62
256
370
-1
  6
BYLAYER
100
AcDbCircle
 10
-0.0000000000000007
 20
0.0
 30
0.0
 40
5.0
100
AcDbArc
 50
259.1844990186530708
 51
279.2817990866775517
  0
ARC
  5
123
100
AcDbEntity
  8
0
 62
256
370
-1
  6
BYLAYER
100
AcDbCircle
 10
-0.0000000000000007
 20
0.0
 30
0.0
 40
5.0
100
AcDbArc
 50
80.7182009133223488
 51
100.815500981346915
  0
CIRCLE
  5
124
100
AcDbEntity
100
AcDbCircle
  8
0
 62
256
370
-1
  6
BYLAYER
 10
-31.9000000000000057
 20
-0.0000000000000235
 30
0.0
 40
0.5
  0
ENDBLK
  5
125
100
AcDbEntity
  8
0
100
AcDbBlockEnd
  0
BLOCK
  5
126
100
AcDbEntity
  8
0
100
AcDbBlockBegin
  2
tibia_middle
 70
0
 10
0.0
 20
0.0
 30
0.0
  3
tibia_middle
  1

  0
LINE
  5
127
100
AcDbEntity
100
AcDbLine
  8
0
 62
256
370
-1
  6
BYLAYER
 10
-14.4069223573433192
 20
18.6763330215154326
 30
0.0
 11
-23.2965388213283404
 21
28.1618334892422837
 31
0.0
  0
ARC
  5
128
100
AcDbEntity
  8
0
 62
256
370
-1
  6
BYLAYER
100
AcDbCircle
 10
-29.0
 20
5.0
 30
0.0
 40
20.0
100
AcDbArc
 50
0.0
 51
43.1426143825091799
  0
ARC
  5
129
100
AcDbEntity
  8
0
 62
256
370
-1
  6
BYLAYER
100
AcDbCircle
 10
-16.0
 20
35.0
 30
0.0
 40
10.0
100
AcDbArc
 50
103.741798278186792
 51
223.1426143825091799
  0
LINE
  5
12A
100
AcDbEntity
100
AcDbLine
  8
0
 62
256
370
-1
  6
BYLAYER
 10
-9.0
 20
4.9999999999999964
 30
0.0
 11
-9.0
 21
-25.0
 31
0.0
  0
ARC
  5
12B
100
AcDbEntity
  8
0
 62
256
370
-1
  6
BYLAYER
100
AcDbCircle
 10
134.7828400936339222
 20
-34.953498460609886
 30
0.0
 40
130.1445131082007833
100
AcDbArc
 50
161.3138642182418891
 51
175.8380011755167516
  0
ARC
  5
12C
100
AcDbEntity
  8
0
 62
256
370
-1
  6
BYLAYER
100
AcDbCircle
 10
-19.0
 20
-75.0
 30
0.0
 40
5.0
100
AcDbArc
 50
148.272768469349387
 51
326.4747008864466693
  0
ARC
  5
12D
100
AcDbEntity
  8
0
 62
256
370
-1
  6
BYLAYER
100
AcDbCircle
 10
-104.6140369006493103
 20
-22.0674647254782954
 30
0.0
 40
95.6559317924888006
100
AcDbArc
 50
328.272768469349387
 51
358.3630292723632351
  0
ARC
  5
12E
100
AcDbEntity
  8
0
 62
256
370
-1
  6
BYLAYER
100
AcDbCircle
 10
-120.2974737295188561
 20
-7.8882212865733052
 30
0.0
 40
126.5120118591665488
100
AcDbArc
 50
326.4746593922901639
 51
355.8924239428184819
  0
CIRCLE
  5
12F
100
AcDbEntity
100
AcDbCircle
  8
0
 62
256
370
-1
  6
BYLAYER
 10
-1.0
 20
0.0
 30
0.0
 40
1.0
  0
CIRCLE
  5
130
100
AcDbEntity
100
AcDbCircle
  8
0
 62
256
370
-1
  6
BYLAYER
 10
-1.0
 20
-20.0
 30
0.0
 40
1.0
  0
ARC
  5
131
100
AcDbEntity
  8
0
 62
256
370
-1
  6
BYLAYER
100
AcDbCircle
 10
-120.0430947950993215
 20
-18.2710622850753204
 30
0.0
 40
136.8979685239335709
100
AcDbArc
 50
15.5924939290849789
 51
26.8168472073614375
  0
ARC
  5
132
100
AcDbEntity
  8
0
 62
256
370
-1
  6
BYLAYER
100
AcDbCircle
 10
-6.7925961820621534
 20
38.9776842461781357
 30
0.0
 40
10.0
100
AcDbArc
 50
26.8168472073614232
 51
122.9877905279766992
  0
ARC
  5
133
100
AcDbEntity
  8
0
 62
256
370
-1
  6
BYLAYER
100
AcDbCircle
 10
-7.4472300270121288
 20
13.1503680157430196
 30
0.0
 40
20.0
100
AcDbArc
 50
341.3138642182418039
 51
15.5924939290849558
  0
ARC
  5
134
100
AcDbEntity
  8
0
 62
256
370
-1
  6
BYLAYER
100
AcDbCircle
 10
-23.1264053541885772
 20
64.1412825168658713
 30
0.0
 40
20.0
100
AcDbArc
 50
283.7417982781867636
 51
302.9877905279766424
  0
ARC
  5
135
100
AcDbEntity
  8
0
 62
256
370
-1
  6
BYLAYER
100
AcDbCircle
 10
-16.0
 20
35.0
 30
0.0
 40
5.0
100
AcDbArc
 50
103.1061301537620523
 51
231.7313941133580784
  0
ARC
  5
136
100
AcDbEntity
  8
0
 62
256
370
-1
  6
BYLAYER
100
AcDbCircle
 10
-6.7925961820621534
 20
38.9776842461781357
 30
0.0
 40
5.0
100
AcDbArc
 50
33.0467334489963349
 51
123.6234586524010837
  0
ARC
  5
137
100
AcDbEntity
  8
0
 62
256
370
-1
  6
BYLAYER
100
AcDbCircle
 10
1.3318756467591086
 20
12.8642557470775785
 30
0.0
 40
7.0
100
AcDbArc
 50
196.6110937818727677
 51
9.7318494610223372
  0
ARC
  5
138
100
AcDbEntity
  8
0
 62
256
370
-1
  6
BYLAYER
100
AcDbCircle
 10
-22.3852487884007374
 20
62.4256793238571106
 30
0.0
 40
23.1591776951106318
100
AcDbArc
 50
283.1061301537620807
 51
303.6234586524009842
  0
ARC
  5
139
100
AcDbEntity
  8
0
 62
256
370
-1
  6
BYLAYER
100
AcDbCircle
 10
-64.2106392183572865
 20
1.6233667807422556
 30
0.0
 40
73.4994649572271896
100
AcDbArc
 50
9.7318494610221471
 51
33.04672357591798
  0
ARC
  5
13A
100
AcDbEntity
  8
0
 62
256
370
-1
  6
BYLAYER
100
AcDbCircle
 10
-44.1704322461031325
 20
-0.7101652112312564
 30
0.0
 40
40.48394389612357
100
AcDbArc
 50
16.6110937818728424
 51
51.7313941133580926
  0
ENDBLK
  5
13B
100
AcDbEntity
  8
0
100
AcDbBlockEnd
  0
BLOCK
  5
13C
100
AcDbEntity
  8
0
100
AcDbBlockBegin
  2
abdomen
 70
0
 10
0.0
 20
0.0
 30
0.0
  3
abdomen
  1

  0
ARC
  5
13D
100
AcDbEntity
  8
0
 62
256
370
-1
  6
BYLAYER
100
AcDbCircle
 10
-147.405546238017763
 20
149.2222222222222285
 30
0.0
 40
100.0
100
AcDbArc
 50
337.1146195238413839
 51
10.6719292857621468
  0
ARC
  5
13E
100
AcDbEntity
  8
0
 62
256
370
-1
  6
BYLAYER
100
AcDbCircle
 10
147.4055462380177914
 20
149.2222222222222285
 30
0.0
 40
100.0
100
AcDbArc
 50
169.328070714237839
 51
202.8853804761585877
  0
ARC
  5
13F
100
AcDbEntity
  8
0
 62
256
370
-1
  6
BYLAYER
100
AcDbCircle
 10
-79.3725393319377304
 20
-3.0
 30
0.0
 40
60.0
100
AcDbArc
 50
7.1807557814582594
 51
48.5903778907291155
  0
ARC
  5
140
100
AcDbEntity
  8
0
 62
256
370
-1
  6
BYLAYER
100
AcDbCircle
 10
79.3725393319377304
 20
-3.0
 30
0.0
 40
60.0
100
AcDbArc
 50
131.4096221092708561
 51
172.8192442185415985
  0
ARC
  5
141
100
AcDbEntity
  8
0
 62
256
370
-1
  6
BYLAYER
100
AcDbCircle
 10
0.0
 20
7.0
 30
0.0
 40
20.0
100
AcDbArc
 50
187.1807557814582879
 51
352.8192442185416553
  0
ARC
  5
142
100
AcDbEntity
  8
0
 62
256
370
-1
  6
BYLAYER
100
AcDbCircle
 10
0.0
 20
87.0
 30
0.0
 40
60.0
100
AcDbArc
 50
311.4096221092708561
 51
22.8853804761585486
  0
ARC
  5
143
100
AcDbEntity
  8
0
 62
256
370
-1
  6
BYLAYER
100
AcDbCircle
 10
0.0
 20
87.0
 30
0.0
 40
60.0
100
AcDbArc
 50
157.1146195238414123
 51
228.5903778907291155
  0
ARC
  5
144
100
AcDbEntity
  8
0
 62
256
370
-1
  6
BYLAYER
100
AcDbCircle
 10
0.0
 20
177.0
 30
0.0
 40
50.0
100
AcDbArc
 50
349.3280707142378105
 51
190.6719292857621326
  0
CIRCLE
  5
145
100
AcDbEntity
100
AcDbCircle
  8
0
 62
256
370
-1
  6
BYLAYER
 10
0.0
 20
0.0
 30
0.0
 40
3.0
  0
ARC
  5
146
100
AcDbEntity
  8
0
 62
256
370
-1
  6
BYLAYER
100
AcDbCircle
 10
0.0
 20
177.0
 30
0.0
 40
37.0
100
AcDbArc
 50
344.3196498651607271
 51
15.6803501348392551
  0
LINE
  5
147
100
AcDbEntity
100
AcDbLine
  8
0
 62
256
370
-1
  6
BYLAYER
 10
-35.6230262611137505
 20
187.0
 30
0.0
 11
35.6230262611137505
 21
187.0
 31
0.0
  0
LINE
  5
148
100
AcDbEntity
100
AcDbLine
  8
0
 62
256
370
-1
  6
BYLAYER
 10
31.1287648325467785
 20
197.0
 30
0.0
 11
-31.1287648325467217
 21
197.0
 31
0.0
  0
LINE
  5
149
100
AcDbEntity
100
AcDbLine
  8
0
 62
256
370
-1
  6
BYLAYER
 10
-33.87752316042247
 20
157.0
 30
0.0
 11
33.8775231604224132
 21
157.0
 31
0.0
  0
LINE
  5
14A
100
AcDbEntity
100
AcDbLine
  8
0
 62
256
370
-1
  6
BYLAYER
 10
35.6538235281993821
 20
167.0
 30
0.0
 11
-35.6538235281993821
 21
167.0
 31
0.0
  0
LINE
  5
14B
100
AcDbEntity
100
AcDbLine
  8
0
 62
256
370
-1
  6
BYLAYER
 10
-34.646478487844206
 20
127.0
 30
0.0
 11
34.646478487844206
 21
127.0
 31
0.0
  0
LINE
  5
14C
100
AcDbEntity
100
AcDbLine
  8
0
 62
256
370
-1
  6
BYLAYER
 10
33.3815505305471447
 20
137.0
 30
0.0
 11
-33.3815505305471447
 21
137.0
 31
0.0
  0
LINE
  5
14D
100
AcDbEntity
100
AcDbLine
  8
0
 62
256
370
-1
  6
BYLAYER
 10
-43.8748219369605863
 20
97.0
 30
0.0
 11
43.8748219369606431
 21
97.0
 31
0.0
  0
LINE
  5
14E
100
AcDbEntity
100
AcDbLine
  8
0
 62
256
370
-1
  6
BYLAYER
 10
40.4084011255968676
 20
107.0
 30
0.0
 11
-40.4084011255969244
 21
107.0
 31
0.0
  0
LINE
  5
14F
100
AcDbEntity
100
AcDbLine
  8
0
 62
256
370
-1
  6
BYLAYER
 10
-40.3112887414927741
 20
67.0
 30
0.0
 11
40.3112887414927172
 21
67.0
 31
0.0
  0
LINE
  5
150
100
AcDbEntity
100
AcDbLine
  8
0
 62
256
370
-1
  6
BYLAYER
 10
43.8748219369605863
 20
77.0
 30
0.0
 11
-43.8748219369606431
 21
77.0
 31
0.0
  0
ARC
  5
151
100
AcDbEntity
  8
0
 62
256
370
-1
  6
BYLAYER
100
AcDbCircle
 10
0.0
 20
177.0
 30
0.0
 40
37.0
100
AcDbArc
 50
164.319649865160784
 51
195.6803501348392444
  0
ARC
  5
152
100
AcDbEntity
  8
0
 62
256
370
-1
  6
BYLAYER
100
AcDbCircle
 10
0.0
 20
177.0
 30
0.0
 40
37.0
100
AcDbArc
 50
32.7204433663757968
 51
147.2795566336242246
  0
ARC
  5
153
100
AcDbEntity
  8
0
 62
256
370
-1
  6
BYLAYER
100
AcDbCircle
 10
133.0973912424866512
 20
144.533333333333303
 30
0.0
 40
100.0
100
AcDbArc
 50
172.8384933840643214
 51
184.3203750814351167
  0
ARC
  5
154
100
AcDbEntity
  8
0
 62
256
370
-1
  6
BYLAYER
100
AcDbCircle
 10
-133.0973912424866512
 20
144.533333333333303
 30
0.0
 40
100.0
100
AcDbArc
 50
355.6796249185648549
 51
7.1615066159356893
  0
ARC
  5
155
100
AcDbEntity
  8
0
 62
256
370
-1
  6
BYLAYER
100
AcDbCircle
 10
-133.0973912424866512
 20
144.533333333333303
 30
0.0
 40
100.0
100
AcDbArc
 50
337.9550836337436976
 51
349.9019433744823573
  0
ARC
  5
156
100
AcDbEntity
  8
0
 62
256
370
-1
  6
BYLAYER
100
AcDbCircle
 10
133.0973912424866512
 20
144.533333333333303
 30
0.0
 40
100.0
100
AcDbArc
 50
190.0980566255176143
 51
202.0449163662563308
  0
ARC
  5
157
100
AcDbEntity
  8
0
 62
256
370
-1
  6
BYLAYER
100
AcDbCircle
 10
0.0
 20
87.0
 30
0.0
 40
45.0
100
AcDbArc
 50
167.1604115930958301
 51
192.8395884069041699
  0
ARC
  5
158
100
AcDbEntity
  8
0
 62
256
370
-1
  6
BYLAYER
100
AcDbCircle
 10
0.0
 20
87.0
 30
0.0
 40
45.0
100
AcDbArc
 50
206.3877999612429619
 51
333.6122000387570097
  0
ARC
  5
159
100
AcDbEntity
  8
0
 62
256
370
-1
  6
BYLAYER
100
AcDbCircle
 10
0.0
 20
87.0
 30
0.0
 40
45.0
100
AcDbArc
 50
347.1604115930957732
 51
12.839588406904177
  0
ENDBLK
  5
15A
100
AcDbEntity
  8
0
100
AcDbBlockEnd
  0
BLOCK
  5
15B
100
AcDbEntity
  8
0
100
AcDbBlockBegin
  2
thorax_top
 70
0
 10
0.0
 20
0.0
 30
0.0
  3
thorax_top
  1

  0
ARC
  5
15C
100
AcDbEntity
  8
0
 62
256
370
-1
  6
BYLAYER
100
AcDbCircle
 10
90.3553390593273207
 20
0.0
 30
0.0
 40
30.0
100
AcDbArc
 50
267.3266736257778007
 51
316.4068771822033455
  0
ARC
  5
15D
100
AcDbEntity
  8
0
 62
256
370
-1
  6
BYLAYER
100
AcDbCircle
 10
26.8018366289587675
 20
-98.8363079897044656
 30
0.0
 40
139.2057366328326395
100
AcDbArc
 50
70.341018437192588
 51
101.196221778411541
  0
ARC
  5
15E
100
AcDbEntity
  8
0
 62
256
370
-1
  6
BYLAYER
100
AcDbCircle
 10
26.8018366289587107
 20
98.836307989704494
 30
0.0
 40
139.2057366328326395
100
AcDbArc
 50
258.803778221588459
 51
289.6589815628073552
  0
ARC
  5
15F
100
AcDbEntity
  8
0
 62
256
370
-1
  6
BYLAYER
100
AcDbCircle
 10
87.0904396705993804
 20
69.92381877430239
 30
0.0
 40
40.0
100
AcDbArc
 50
250.3410184371925311
 51
272.6733263742219719
  0
ARC
  5
160
100
AcDbEntity
  8
0
 62
256
370
-1
  6
BYLAYER
100
AcDbCircle
 10
87.090439670599153
 20
-69.9238187743024042
 30
0.0
 40
40.0
100
AcDbArc
 50
87.326673625777758
 51
109.6589815628073552
  0
CIRCLE
  5
161
100
AcDbEntity
100
AcDbCircle
  8
0
 62
256
370
-1
  6
BYLAYER
 10
-129.6446609406727077
 20
-23.9999999999999929
 30
0.0
 40
2.0
  0
CIRCLE
  5
162
100
AcDbEntity
100
AcDbCircle
  8
0
 62
256
370
-1
  6
BYLAYER
 10
-19.6446609406726793
 20
-28.0
 30
0.0
 40
2.0
  0
CIRCLE
  5
163
100
AcDbEntity
100
AcDbCircle
  8
0
 62
256
370
-1
  6
BYLAYER
 10
90.3553390593273207
 20
-24.0
 30
0.0
 40
2.0
  0
CIRCLE
  5
164
100
AcDbEntity
100
AcDbCircle
  8
0
 62
256
370
-1
  6
BYLAYER
 10
-129.6446609406727077
 20
23.9999999999999787
 30
0.0
 40
2.0
  0
CIRCLE
  5
165
100
AcDbEntity
100
AcDbCircle
  8
0
 62
256
370
-1
  6
BYLAYER
 10
-19.6446609406726793
 20
28.0000000000000249
 30
0.0
 40
2.0
  0
CIRCLE
  5
166
100
AcDbEntity
100
AcDbCircle
  8
0
 62
256
370
-1
  6
BYLAYER
 10
90.3553390593273207
 20
24.0000000000000782
 30
0.0
 40
2.0
  0
LINE
  5
167
100
AcDbEntity
100
AcDbLine
  8
0
 62
256
370
-1
  6
DASHED
 10
35.3553390593273207
 20
-35.3553390593273775
 30
0.0
 11
70.7106781186546982
 21
-0.0000000000000071
 31
0.0
  0
LINE
  5
168
100
AcDbEntity
100
AcDbLine
  8
0
 62
256
370
-1
  6
DASHED
 10
70.7106781186546982
 20
-0.0000000000000071
 30
0.0
 11
35.3553390593273207
 21
35.3553390593273775
 31
0.0
  0
LINE
  5
169
100
AcDbEntity
100
AcDbLine
  8
0
 62
256
370
-1
  6
DASHED
 10
35.3553390593273207
 20
35.3553390593273775
 30
0.0
 11
-0.0000000000000568
 21
0.0000000000000036
 31
0.0
  0
LINE
  5
16A
100
AcDbEntity
100
AcDbLine
  8
0
 62
256
370
-1
  6
DASHED
 10
-0.0000000000000568
 20
0.0000000000000036
 30
0.0
 11
35.3553390593273207
 21
-35.3553390593273775
 31
0.0
  0
ARC
  5
16B
100
AcDbEntity
  8
0
 62
256
370
-1
  6
BYLAYER
100
AcDbCircle
 10
35.3553390593273207
 20
81.2403840463596083
 30
0.0
 40
60.0
100
AcDbArc
 50
252.8953648233562035
 51
287.1046351766437965
  0
ARC
  5
16C
100
AcDbEntity
  8
0
 62
256
370
-1
  6
BYLAYER
100
AcDbCircle
 10
35.3553390593273207
 20
-81.2403840463596083
 30
0.0
 40
60.0
100
AcDbArc
 50
72.8953648233561609
 51
107.1046351766437823
  0
ARC
  5
16D
100
AcDbEntity
  8
0
 62
256
370
-1
  6
BYLAYER
100
AcDbCircle
 10
10.3553390593273207
 20
0.0
 30
0.0
 40
25.0
100
AcDbArc
 50
72.895364823356303
 51
287.1046351766438534
  0
ARC
  5
16E
100
AcDbEntity
  8
0
 62
256
370
-1
  6
BYLAYER
100
AcDbCircle
 10
60.3553390593273207
 20
0.0
 30
0.0
 40
25.0
100
AcDbArc
 50
252.8953648233561751
 51
107.1046351766438676
  0
CIRCLE
  5
16F
100
AcDbEntity
100
AcDbCircle
  8
0
 62
256
370
-1
  6
BYLAYER
 10
95.0
 20
0.0
 30
0.0
 40
3.0
  0
CIRCLE
  5
170
100
AcDbEntity
100
AcDbCircle
  8
0
 62
256
370
-1
  6
BYLAYER
 10
50.0
 20
32.0
 30
0.0
 40
3.0
  0
CIRCLE
  5
171
100
AcDbEntity
100
AcDbCircle
  8
0
 62
256
370
-1
  6
BYLAYER
 10
50.0
 20
-32.0
 30
0.0
 40
3.0
  0
CIRCLE
  5
172
100
AcDbEntity
100
AcDbCircle
  8
0
 62
256
370
-1
  6
BYLAYER
 10
-146.2893218813453586
 20
-0.0000000000000249
 30
0.0
 40
3.0
  0
CIRCLE
  5
173
100
AcDbEntity
100
AcDbCircle
  8
0
 62
256
370
-1
  6
BYLAYER
 10
-49.2893218813453586
 20
32.9999999999999858
 30
0.0
 40
3.0
  0
CIRCLE
  5
174
100
AcDbEntity
100
AcDbCircle
  8
0
 62
256
370
-1
  6
BYLAYER
 10
-49.2893218813454013
 20
-32.9999999999999858
 30
0.0
 40
3.0
  0
ARC
  5
175
100
AcDbEntity
  8
0
 62
256
370
-1
  6
BYLAYER
100
AcDbCircle
 10
-129.6446609406726793
 20
-0.0000000000000036
 30
0.0
 40
30.0
100
AcDbArc
 50
189.5603836943983254
 51
272.6733263742221993
  0
ARC
  5
176
100
AcDbEntity
  8
0
 62
256
370
-1
  6
BYLAYER
100
AcDbCircle
 10
-66.0911585103041119
 20
-98.8363079897044656
 30
0.0
 40
139.2057366328326395
100
AcDbArc
 50
78.8037782215884732
 51
109.6589815628074405
  0
ARC
  5
177
100
AcDbEntity
  8
0
 62
256
370
-1
  6
BYLAYER
100
AcDbCircle
 10
-66.0911585103040977
 20
98.8363079897044656
 30
0.0
 40
139.2057366328326395
100
AcDbArc
 50
250.3410184371926448
 51
281.196221778411541
  0
ARC
  5
178
100
AcDbEntity
  8
0
 62
256
370
-1
  6
BYLAYER
100
AcDbCircle
 10
-126.3797615519447675
 20
69.9238187743023332
 30
0.0
 40
40.0
100
AcDbArc
 50
267.3266736257780281
 51
289.6589815628074689
  0
ARC
  5
179
100
AcDbEntity
  8
0
 62
256
370
-1
  6
BYLAYER
100
AcDbCircle
 10
-126.3797615519445543
 20
-69.9238187743023474
 30
0.0
 40
40.0
100
AcDbArc
 50
70.3410184371926306
 51
92.6733263742222277
  0
CIRCLE
  5
17A
100
AcDbEntity
100
AcDbCircle
  8
0
 62
256
370
-1
  6
BYLAYER
 10
-19.6446609406726793
 20
-28.0
 30
0.0
 40
2.0
  0
CIRCLE
  5
17B
100
AcDbEntity
100
AcDbCircle
  8
0
 62
256
370
-1
  6
BYLAYER
 10
-129.6446609406726793
 20
-24.0000000000000178
 30
0.0
 40
2.0
  0
CIRCLE
  5
17C
100
AcDbEntity
100
AcDbCircle
  8
0
 62
256
370
-1
  6
BYLAYER
 10
-19.6446609406726793
 20
28.0000000000000249
 30
0.0
 40
2.0
  0
CIRCLE
  5
17D
100
AcDbEntity
100
AcDbCircle
  8
0
 62
256
370
-1
  6
BYLAYER
 10
-129.6446609406726793
 20
23.9999999999998792
 30
0.0
 40
2.0
  0
ARC
  5
17E
100
AcDbEntity
  8
0
 62
256
370
-1
  6
BYLAYER
100
AcDbCircle
 10
-19.6446609406726722
 20
135.8168558533818668
 30
0.0
 40
100.0
100
AcDbArc
 50
258.803778221588459
 51
281.196221778411541
  0
ARC
  5
17F
100
AcDbEntity
  8
0
 62
256
370
-1
  6
BYLAYER
100
AcDbCircle
 10
-19.6446609406726225
 20
-135.8168558533818668
 30
0.0
 40
100.0
100
AcDbArc
 50
78.8037782215884874
 51
101.1962217784114983
  0
ARC
  5
180
100
AcDbEntity
  8
0
 62
256
370
-1
  6
BYLAYER
100
AcDbCircle
 10
-75.1630417054922475
 20
-70.9864296948267821
 30
0.0
 40
99.0739328984700904
100
AcDbArc
 50
73.3992084031806655
 51
78.2574115853791312
  0
ARC
  5
181
100
AcDbEntity
  8
0
 62
256
370
-1
  6
BYLAYER
100
AcDbCircle
 10
-75.1630417054922191
 20
70.9864296948267821
 30
0.0
 40
99.0739328984700904
100
AcDbArc
 50
281.7425884146208546
 51
287.7250672360354997
  0
ARC
  5
182
100
AcDbEntity
  8
0
 62
256
370
-1
  6
BYLAYER
100
AcDbCircle
 10
-110.0
 20
0.0
 30
0.0
 40
20.0
100
AcDbArc
 50
138.5903778907291155
 51
221.4096221092708845
  0
LINE
  5
183
100
AcDbEntity
100
AcDbLine
  8
0
 62
256
370
-1
  6
BYLAYER
 10
-115.0
 20
-19.7255371773131003
 30
0.0
 11
-115.0
 21
19.7255371773130932
 31
0.0
  0
LINE
  5
184
100
AcDbEntity
100
AcDbLine
  8
0
 62
256
370
-1
  6
BYLAYER
 10
-125.0
 20
13.2287565553229634
 30
0.0
 11
-125.0
 21
-13.2287565553229527
 31
0.0
  0
LINE
  5
185
100
AcDbEntity
100
AcDbLine
  8
0
 62
256
370
-1
  6
BYLAYER
 10
-95.0
 20
-26.0812748499522336
 30
0.0
 11
-95.0
 21
26.0812748499522371
 31
0.0
  0
LINE
  5
186
100
AcDbEntity
100
AcDbLine
  8
0
 62
256
370
-1
  6
BYLAYER
 10
-105.0
 20
23.4879059720746142
 30
0.0
 11
-105.0
 21
-23.4879059720746142
 31
0.0
  0
LINE
  5
187
100
AcDbEntity
100
AcDbLine
  8
0
 62
256
370
-1
  6
BYLAYER
 10
-75.0
 20
-28.0873690481952067
 30
0.0
 11
-75.0
 21
28.0873690481951996
 31
0.0
  0
LINE
  5
188
100
AcDbEntity
100
AcDbLine
  8
0
 62
256
370
-1
  6
BYLAYER
 10
-85.0
 20
27.597942451485892
 30
0.0
 11
-85.0
 21
-27.597942451485892
 31
0.0
  0
LINE
  5
189
100
AcDbEntity
100
AcDbLine
  8
0
 62
256
370
-1
  6
BYLAYER
 10
-55.0
 20
-26.0140647840836579
 30
0.0
 11
-55.0
 21
26.0140647840836579
 31
0.0
  0
LINE
  5
18A
100
AcDbEntity
100
AcDbLine
  8
0
 62
256
370
-1
  6
BYLAYER
 10
-65.0
 20
27.5648603183586118
 30
0.0
 11
-65.0
 21
-27.5648603183586403
 31
0.0
  0
LINE
  5
18B
100
AcDbEntity
100
AcDbLine
  8
0
 62
256
370
-1
  6
BYLAYER
 10
-35.0
 20
-16.2480768092719075
 30
0.0
 11
-35.0
 21
16.2480768092719146
 31
0.0
  0
LINE
  5
18C
100
AcDbEntity
100
AcDbLine
  8
0
 62
256
370
-1
  6
BYLAYER
 10
-45.0
 20
23.3843025002944493
 30
0.0
 11
-45.0
 21
-23.3843025002944529
 31
0.0
  0
LINE
  5
18D
100
AcDbEntity
100
AcDbLine
  8
0
 62
256
370
-1
  6
BYLAYER
 10
-180.1965086402315137
 20
0.9805020929678622
 30
0.0
 11
-160.6272041418302763
 21
4.9025104648392839
 31
0.0
  0
LINE
  5
18E
100
AcDbEntity
100
AcDbLine
  8
0
 62
256
370
-1
  6
BYLAYER
 10
-180.1965086402315137
 20
-0.9805020929678621
 30
0.0
 11
-160.6272041418303047
 21
-4.9025104648393389
 31
0.0
  0
ARC
  5
18F
100
AcDbEntity
  8
0
 62
256
370
-1
  6
BYLAYER
100
AcDbCircle
 10
-180.0
 20
0.0
 30
0.0
 40
1.0
100
AcDbArc
 50
101.3328676456961261
 51
258.6671323543038739
  0
ARC
  5
190
100
AcDbEntity
  8
0
 62
256
370
-1
  6
BYLAYER
100
AcDbCircle
 10
-159.6446609406726793
 20
-0.0000000000000265
 30
0.0
 40
5.0
100
AcDbArc
 50
258.6671323543032486
 51
274.7801918471990348
  0
ARC
  5
191
100
AcDbEntity
  8
0
 62
256
370
-1
  6
BYLAYER
100
AcDbCircle
 10
-159.6446609406726793
 20
-0.0000000000000265
 30
0.0
 40
5.0
100
AcDbArc
 50
85.219808152800951
 51
101.3328676456964246
  0
ARC
  5
192
100
AcDbEntity
  8
0
 62
256
370
-1
  6
BYLAYER
100
AcDbCircle
 10
-129.6446609406726793
 20
-0.0000000000000036
 30
0.0
 40
30.0
100
AcDbArc
 50
87.3266736257779002
 51
170.4396163056017599
  0
ARC
  5
193
100
AcDbEntity
  8
0
 62
256
370
-1
  6
BYLAYER
100
AcDbCircle
 10
-54.0
 20
0.0
 30
0.0
 40
25.0
100
AcDbArc
 50
68.8998039759069769
 51
73.3992084031804097
  0
ARC
  5
194
100
AcDbEntity
  8
0
 62
256
370
-1
  6
BYLAYER
100
AcDbCircle
 10
-75.1630417054922475
 20
-70.9864296948267821
 30
0.0
 40
99.0739328984700904
100
AcDbArc
 50
84.1122202757178172
 51
89.9057107601111909
  0
ARC
  5
195
100
AcDbEntity
  8
0
 62
256
370
-1
  6
BYLAYER
100
AcDbCircle
 10
-75.1630417054922475
 20
-70.9864296948267821
 30
0.0
 40
99.0739328984700904
100
AcDbArc
 50
95.6982332366046506
 51
101.5500459400656723
  0
ARC
  5
196
100
AcDbEntity
  8
0
 62
256
370
-1
  6
BYLAYER
100
AcDbCircle
 10
-75.1630417054922475
 20
-70.9864296948267821
 30
0.0
 40
99.0739328984700904
100
AcDbArc
 50
107.5271993768245693
 51
113.7091021564197035
  0
ARC
  5
197
100
AcDbEntity
  8
0
 62
256
370
-1
  6
BYLAYER
100
AcDbCircle
 10
-75.1630417054922191
 20
70.9864296948267821
 30
0.0
 40
99.0739328984700904
100
AcDbArc
 50
246.290897843580268
 51
252.4728006231754023
  0
ARC
  5
198
100
AcDbEntity
  8
0
 62
256
370
-1
  6
BYLAYER
100
AcDbCircle
 10
-75.1630417054922191
 20
70.9864296948267821
 30
0.0
 40
99.0739328984700904
100
AcDbArc
 50
258.4499540599342708
 51
264.3017667633953351
  0
ARC
  5
199
100
AcDbEntity
  8
0
 62
256
370
-1
  6
BYLAYER
100
AcDbCircle
 10
-75.1630417054922191
 20
70.9864296948267821
 30
0.0
 40
99.0739328984700904
100
AcDbArc
 50
270.0942892398888375
 51
275.8877797242821543
  0
ARC
  5
19A
100
AcDbEntity
  8
0
 62
256
370
-1
  6
BYLAYER
100
AcDbCircle
 10
-54.0
 20
0.0
 30
0.0
 40
25.0
100
AcDbArc
 50
319.4641978886834863
 51
40.5358021113165492
  0
ARC
  5
19B
100
AcDbEntity
  8
0
 62
256
370
-1
  6
BYLAYER
100
AcDbCircle
 10
140.0000000000001137
 20
20.0000000000000071
 30
0.0
 40
10.0
100
AcDbArc
 50
39.4860175586615654
 51
139.9758790211973576
  0
CIRCLE
  5
19C
100
AcDbEntity
100
AcDbCircle
  8
0
 62
256
370
-1
  6
BYLAYER
 10
149.9999999999999716
 20
-10.0
 30
0.0
 40
1.0
  0
CIRCLE
  5
19D
100
AcDbEntity
100
AcDbCircle
  8
0
 62
256
370
-1
  6
BYLAYER
 10
149.9999999999999716
 20
10.0
 30
0.0
 40
1.0
  0
ARC
  5
19E
100
AcDbEntity
  8
0
 62
256
370
-1
  6
BYLAYER
100
AcDbCircle
 10
170.8711915483254984
 20
-45.4355957741627208
 30
0.0
 40
30.0
100
AcDbArc
 50
114.6720496781712768
 51
140.5139824413384417
  0
ARC
  5
19F
100
AcDbEntity
  8
0
 62
256
370
-1
  6
BYLAYER
100
AcDbCircle
 10
170.8711915483255268
 20
45.4355957741627137
 30
0.0
 40
30.0
100
AcDbArc
 50
219.4860175586615298
 51
245.3279503218286948
  0
ARC
  5
1A0
100
AcDbEntity
  8
0
 62
256
370
-1
  6
BYLAYER
100
AcDbCircle
 10
94.0535739340222534
 20
-58.5866030088634488
 30
0.0
 40
50.0
100
AcDbArc
 50
40.0241209788028911
 51
50.8170432539753421
  0
ARC
  5
1A1
100
AcDbEntity
  8
0
 62
256
370
-1
  6
BYLAYER
100
AcDbCircle
 10
94.0535739340222818
 20
58.5866030088634488
 30
0.0
 40
50.0
100
AcDbArc
 50
309.1829567460245585
 51
319.9758790211971018
  0
ARC
  5
1A2
100
AcDbEntity
  8
0
 62
256
370
-1
  6
BYLAYER
100
AcDbCircle
 10
140.0000000000001137
 20
-19.9999999999999964
 30
0.0
 40
10.0
100
AcDbArc
 50
220.0241209788027561
 51
320.513982441338328
  0
ARC
  5
1A3
100
AcDbEntity
  8
0
 62
256
370
-1
  6
BYLAYER
100
AcDbCircle
 10
150.0000000000001137
 20
0.0
 30
0.0
 40
20.0
100
AcDbArc
 50
294.6720496781713337
 51
65.3279503218286663
  0
ARC
  5
1A4
100
AcDbEntity
  8
0
 62
256
370
-1
  6
BYLAYER
100
AcDbCircle
 10
90.3553390593273207
 20
0.0
 30
0.0
 40
30.0
100
AcDbArc
 50
43.5931228177966759
 51
92.6733263742220714
  0
ARC
  5
1A5
100
AcDbEntity
  8
0
 62
256
370
-1
  6
BYLAYER
100
AcDbCircle
 10
119.3255242949622499
 20
27.5813046720600141
 30
0.0
 40
10.0
100
AcDbArc
 50
223.5931228177966545
 51
309.1829567460245585
  0
ARC
  5
1A6
100
AcDbEntity
  8
0
 62
256
370
-1
  6
BYLAYER
100
AcDbCircle
 10
119.3255242949622641
 20
-27.5813046720600283
 30
0.0
 40
10.0
100
AcDbArc
 50
50.8170432539753278
 51
136.4068771822033455
  0
INSERT
  5
1A7
100
AcDbEntity
100
AcDbBlockReference
  8
0
 62
256
370
-1
  6
BYLAYER
  2
servo_top
 10
120.0
 20
-15.0
 30
0.0
 50
90.0
  0
ENDBLK
  5
1A8
100
AcDbEntity
  8
0
100
AcDbBlockEnd
  0
BLOCK
  5
1A9
100
AcDbEntity
  8
0
100
AcDbBlockBegin
  2
tibia_front
 70
0
 10
0.0
 20
0.0
 30
0.0
  3
tibia_front
  1

  0
LINE
  5
1AA
100
AcDbEntity
100
AcDbLine
  8
0
 62
256
370
-1
  6
BYLAYER
 10
-10.2871968564100484
 20
13.4307029370137059
 30
0.0
 11
-10.2871968564100484
 21
-16.5692970629862906
 31
0.0
  0
ARC
  5
1AB
100
AcDbEntity
  8
0
 62
256
370
-1
  6
BYLAYER
100
AcDbCircle
 10
133.4956432372239306
 20
-26.5227955235961765
 30
0.0
 40
130.1445131082007833
100
AcDbArc
 50
161.3138642182418891
 51
175.8380011755167516
  0
ARC
  5
1AC
100
AcDbEntity
  8
0
 62
256
370
-1
  6
BYLAYER
100
AcDbCircle
 10
-20.2871968564100484
 20
-66.5692970629862941
 30
0.0
 40
5.0
100
AcDbArc
 50
148.272768469349387
 51
326.4747008864466693
  0
ARC
  5
1AD
100
AcDbEntity
  8
0
 62
256
370
-1
  6
BYLAYER
100
AcDbCircle
 10
-105.9012337570593445
 20
-13.636761788464586
 30
0.0
 40
95.6559317924888006
100
AcDbArc
 50
328.272768469349387
 51
358.3630292723632351
  0
ARC
  5
1AE
100
AcDbEntity
  8
0
 62
256
370
-1
  6
BYLAYER
100
AcDbCircle
 10
-121.5846705859289045
 20
0.5424816504404077
 30
0.0
 40
126.5120118591665488
100
AcDbArc
 50
326.4746593922901639
 51
355.8924239428184819
  0
CIRCLE
  5
1AF
100
AcDbEntity
100
AcDbCircle
  8
0
 62
256
370
-1
  6
BYLAYER
 10
-2.2871968564100484
 20
8.4307029370137059
 30
0.0
 40
1.0
  0
CIRCLE
  5
1B0
100
AcDbEntity
100
AcDbCircle
  8
0
 62
256
370
-1
  6
BYLAYER
 10
-2.2871968564100484
 20
-11.5692970629862906
 30
0.0
 40
1.0
  0
ARC
  5
1B1
100
AcDbEntity
  8
0
 62
256
370
-1
  6
BYLAYER
100
AcDbCircle
 10
-8.7344268834221452
 20
21.5810709527567326
 30
0.0
 40
20.0
100
AcDbArc
 50
341.3138642182418039
 51
7.8512309194346681
  0
ARC
  5
1B2
100
AcDbEntity
  8
0
 62
256
370
-1
  6
BYLAYER
100
AcDbCircle
 10
-30.2871968564100484
 20
13.4307029370137059
 30
0.0
 40
20.0
100
AcDbArc
 50
0.0
 51
17.3188113254878111
  0
ARC
  5
1B3
100
AcDbEntity
  8
0
 62
256
370
-1
  6
BYLAYER
100
AcDbCircle
 10
-1.6473034347237103
 20
22.3613526779031275
 30
0.0
 40
10.0
100
AcDbArc
 50
186.6026807677112629
 51
197.3188113254878147
  0
ARC
  5
1B4
100
AcDbEntity
  8
0
 62
256
370
-1
  6
BYLAYER
100
AcDbCircle
 10
1.1718340625554333
 20
22.94708488760525
 30
0.0
 40
10.0
100
AcDbArc
 50
7.8512309194346219
 51
42.2523026745445804
  0
ARC
  5
1B5
100
AcDbEntity
  8
0
 62
256
370
-1
  6
BYLAYER
100
AcDbCircle
 10
-8.4222952299113558
 20
35.6638569287897838
 30
0.0
 40
7.0
100
AcDbArc
 50
91.74071236939578
 51
204.4761726348149864
  0
ARC
  5
1B6
100
AcDbEntity
  8
0
 62
256
370
-1
  6
BYLAYER
100
AcDbCircle
 10
-49.9181698782821854
 20
16.773934116670894
 30
0.0
 40
38.5931661181926557
100
AcDbArc
 50
6.6026807677113348
 51
24.4761726348150006
  0
ARC
  5
1B7
100
AcDbEntity
  8
0
 62
256
370
-1
  6
BYLAYER
100
AcDbCircle
 10
-23.7997378925024918
 20
6.5077226739479102
 30
0.0
 40
39.7166843856890637
100
AcDbArc
 50
37.8127288189060096
 51
63.8201018519931509
  0
ARC
  5
1B8
100
AcDbEntity
  8
0
 62
256
370
-1
  6
BYLAYER
100
AcDbCircle
 10
-8.483048207272077
 20
37.6629339847688129
 30
0.0
 40
5.0
100
AcDbArc
 50
63.8201018519930088
 51
91.7407123693957658
  0
ARC
  5
1B9
100
AcDbEntity
  8
0
 62
256
370
-1
  6
BYLAYER
100
AcDbCircle
 10
23.3775672116468627
 20
43.1189815587500078
 30
0.0
 40
20.0
100
AcDbArc
 50
217.8127288189059527
 51
222.2523026745446373
  0
ARC
  5
1BA
100
AcDbEntity
  8
0
 62
256
370
-1
  6
BYLAYER
100
AcDbCircle
 10
-121.4585828069971853
 20
3.0979702198484063
 30
0.0
 40
115.8583451295066737
100
AcDbArc
 50
8.5176211426047086
 51
15.704801934170332
  0
ARC
  5
1BB
100
AcDbEntity
  8
0
 62
256
370
-1
  6
BYLAYER
100
AcDbCircle
 10
0.0446787903490531
 20
21.2949586840912843
 30
0.0
 40
7.0
100
AcDbArc
 50
188.5176211426052646
 51
22.7416615278294643
  0
ARC
  5
1BC
100
AcDbEntity
  8
0
 62
256
370
-1
  6
BYLAYER
100
AcDbCircle
 10
-14.6898209668804611
 20
15.1187921232452638
 30
0.0
 40
22.976561472454236
100
AcDbArc
 50
22.7416599389985699
 51
71.6797656535496799
  0
ARC
  5
1BD
100
AcDbEntity
  8
0
 62
256
370
-1
  6
BYLAYER
100
AcDbCircle
 10
-8.0
 20
35.0
 30
0.0
 40
2.0
100
AcDbArc
 50
74.6310907146417719
 51
195.7048019341701774
  0
ENDBLK
  5
1BE
100
AcDbEntity
  8
0
100
AcDbBlockEnd
  0
ENDSEC
  0
SECTION
  2
ENTITIES
  0
INSERT
  5
1BF
100
AcDbEntity
100
AcDbBlockReference
  8
0
 62
256
370
-1
  6
BYLAYER
  2
femur
 10
180.9498666200968842
 20
-1.3648096740931663
 30
0.0
 41
1.0
 42
-1.0
 43
1.0
 50
270.0
  0
INSERT
  5
1C0
100
AcDbEntity
100
AcDbBlockReference
  8
0
 62
256
370
-1
  6
BYLAYER
  2
femur_tibia
 10
61.0
 20
-121.0
 30
0.0
 50
180.0
  0
INSERT
  5
1C1
100
AcDbEntity
100
AcDbBlockReference
  8
0
 62
256
370
-1
  6
BYLAYER
  2
femur_tibia
 10
109.240965566264606
 20
-2.1288345783974592
 30
0.0
 50
180.0
  0
INSERT
  5
1C2
100
AcDbEntity
100
AcDbBlockReference
  8
0
 62
256
370
-1
  6
BYLAYER
  2
femur_tibia_control
 10
73.8733554063542499
 20
-131.563923430033185
 30
0.0
 50
360.0
  0
INSERT
  5
1C3
100
AcDbEntity
100
AcDbBlockReference
  8
0
 62
256
370
-1
  6
BYLAYER
  2
femur
 10
133.9151001942840367
 20
36.4203729299415713
 30
0.0
 41
1.0
 42
-1.0
 43
1.0
  0
INSERT
  5
1C4
100
AcDbEntity
100
AcDbBlockReference
  8
0
 62
256
370
-1
  6
BYLAYER
  2
coxa
 10
38.8588318821571477
 20
-95.7076080071477691
 30
0.0
 50
180.0
  0
INSERT
  5
1C5
100
AcDbEntity
100
AcDbBlockReference
  8
0
 62
256
370
-1
  6
BYLAYER
  2
femur_tibia
 10
102.8498955604421354
 20
-111.9313162184236603
 30
0.0
 50
195.0
  0
INSERT
  5
1C6
100
AcDbEntity
100
AcDbBlockReference
  8
0
 62
256
370
-1
  6
BYLAYER
  2
femur_tibia
 10
25.734907478495515
 20
-33.2026623481393983
 30
0.0
 50
65.0
  0
INSERT
  5
1C7
100
AcDbEntity
100
AcDbBlockReference
  8
0
 62
256
370
-1
  6
BYLAYER
  2
femur_tibia_control
 10
95.0116112181854362
 20
20.6332401143024242
 30
0.0
 50
180.0
  0
INSERT
  5
1C8
100
AcDbEntity
100
AcDbBlockReference
  8
0
 62
256
370
-1
  6
BYLAYER
  2
femur_tibia
 10
186.8731266100896846
 20
-44.9466649312515187
 30
0.0
 50
180.0
  0
INSERT
  5
1C9
100
AcDbEntity
100
AcDbBlockReference
  8
0
 62
256
370
-1
  6
BYLAYER
  2
femur_tibia
 10
73.7596071819208987
 20
-106.5601833010881876
 30
0.0
 50
380.0
  0
INSERT
  5
1CA
100
AcDbEntity
100
AcDbBlockReference
  8
0
 62
256
370
-1
  6
BYLAYER
  2
femur_tibia_control
 10
91.5065077440041961
 20
9.4902929603248793
 30
0.0
 50
360.0
  0
INSERT
  5
1CB
100
AcDbEntity
100
AcDbBlockReference
  8
0
 62
256
370
-1
  6
BYLAYER
  2
femur_tibia
 10
103.308402372633978
 20
-48.002664229778091
 30
0.0
 50
340.0000000000000568
  0
INSERT
  5
1CC
100
AcDbEntity
100
AcDbBlockReference
  8
0
 62
256
370
-1
  6
BYLAYER
  2
tibia_middle
 10
65.5357699438690702
 20
-38.144462405565605
 30
0.0
 50
459.9999999999999432
  0
INSERT
  5
1CD
100
AcDbEntity
100
AcDbBlockReference
  8
0
 62
256
370
-1
  6
BYLAYER
  2
femur
 10
121.905611863462795
 20
-100.6900884714925866
 30
0.0
 50
270.0
  0
INSERT
  5
1CE
100
AcDbEntity
100
AcDbBlockReference
  8
0
 62
256
370
-1
  6
BYLAYER
  2
coxa
 10
171.2596610207292542
 20
-103.2986572703490395
 30
0.0
 50
450.0
  0
INSERT
  5
1CF
100
AcDbEntity
100
AcDbBlockReference
  8
0
 62
256
370
-1
  6
BYLAYER
  2
coxa
 10
84.2990989733678049
 20
-68.3267913208819948
 30
0.0
 50
180.0
  0
INSERT
  5
1D0
100
AcDbEntity
100
AcDbBlockReference
  8
0
 62
256
370
-1
  6
BYLAYER
  2
femur_tibia
 10
146.585021172573704
 20
-86.1785160313761764
 30
0.0
 50
90.0
  0
INSERT
  5
1D1
100
AcDbEntity
100
AcDbBlockReference
  8
0
 62
256
370
-1
  6
BYLAYER
  2
femur_tibia
 10
133.3263147049119937
 20
-69.7690406808560368
 30
0.0
 50
280.0
  0
INSERT
  5
1D2
100
AcDbEntity
100
AcDbBlockReference
  8
0
 62
256
370
-1
  6
BYLAYER
  2
tibia_front
 10
118.6879277882742372
 20
-18.6175996219010926
 30
0.0
 50
280.0
  0
INSERT
  5
1D3
100
AcDbEntity
100
AcDbBlockReference
  8
0
 62
256
370
-1
  6
BYLAYER
  2
tibia_rear
 10
17.8200478271797493
 20
-2.5579978194053723
 30
0.0
 41
1.0
 42
-1.0
 43
1.0
 50
525.0
  0
INSERT
  5
1D4
100
AcDbEntity
100
AcDbBlockReference
  8
0
 62
256
370
-1
  6
BYLAYER
  2
thorax_top
 10
434.5027598216933029
 20
-15.1133600290691561
 30
0.0
 50
120.0
  0
INSERT
  5
1D5
100
AcDbEntity
100
AcDbBlockReference
  8
0
 62
256
370
-1
  6
BYLAYER
  2
thorax_botom
 10
313.1500000000000909
 20
-46.6995165736633027
 30
0.0
 50
300.0
  0
INSERT
  5
1D6
100
AcDbEntity
100
AcDbBlockReference
  8
0
 62
256
370
-1
  6
BYLAYER
  2
thorax_top
 10
800.0
 20
-99.9999999999998863
 30
0.0
 50
270.0
  0
INSERT
  5
1D7
100
AcDbEntity
100
AcDbBlockReference
  8
0
 62
256
370
-1
  6
BYLAYER
  2
coxa
 10
848.0
 20
29.644660940672793
 30
0.0
 50
360.0
  0
INSERT
  5
1D8
100
AcDbEntity
100
AcDbBlockReference
  8
0
 62
256
370
-1
  6
BYLAYER
  2
coxa
 10
852.0
 20
-80.355339059327207
 30
0.0
 50
360.0
  0
INSERT
  5
1D9
100
AcDbEntity
100
AcDbBlockReference
  8
0
 62
256
370
-1
  6
BYLAYER
  2
coxa
 10
848.0
 20
-190.355339059327207
 30
0.0
 50
360.0
  0
LINE
  5
1DA
100
AcDbEntity
100
AcDbLine
  8
0
 62
256
370
-1
  6
BYLAYER
 10
856.720855300179096
 20
31.1946609406726907
 30
0.0
 11
921.3553390593274344
 21
31.1946609406726907
 31
0.0
  0
LINE
  5
1DB
100
AcDbEntity
100
AcDbLine
  8
0
 62
256
370
-1
  6
BYLAYER
 10
921.3553390593274344
 20
28.0000000000001137
 30
0.0
 11
856.720855300179096
 21
28.0000000000001137
 31
0.0
  0
LINE
  5
1DC
100
AcDbEntity
100
AcDbLine
  8
0
 62
256
370
-1
  6
BYLAYER
 10
856.720855300179096
 20
28.0000000000001137
 30
0.0
 11
856.720855300179096
 21
31.1946609406726907
 31
0.0
  0
LINE
  5
1DD
100
AcDbEntity
100
AcDbLine
  8
0
 62
256
370
-1
  6
BYLAYER
 10
860.7208553001792097
 20
-78.8053390593273093
 30
0.0
 11
925.3553390593274344
 21
-78.8053390593273093
 31
0.0
  0
LINE
  5
1DE
100
AcDbEntity
100
AcDbLine
  8
0
 62
256
370
-1
  6
BYLAYER
 10
925.3553390593274344
 20
-81.9999999999998863
 30
0.0
 11
860.7208553001792097
 21
-81.9999999999998863
 31
0.0
  0
LINE
  5
1DF
100
AcDbEntity
100
AcDbLine
  8
0
 62
256
370
-1
  6
BYLAYER
 10
860.7208553001792097
 20
-81.9999999999998863
 30
0.0
 11
860.7208553001792097
 21
-78.8053390593273093
 31
0.0
  0
LINE
  5
1E0
100
AcDbEntity
100
AcDbLine
  8
0
 62
256
370
-1
  6
BYLAYER
 10
937.3553390593274344
 20
-185.9999999999998863
 30
0.0
 11
937.3553390593274344
 21
-188.8053390593272525
 31
0.0
  0
LINE
  5
1E1
100
AcDbEntity
100
AcDbLine
  8
0
 62
256
370
-1
  6
BYLAYER
 10
937.3553390593274344
 20
-188.8053390593272525
 30
0.0
 11
916.3553390593274344
 21
-188.8053390593272525
 31
0.0
  0
LINE
  5
1E2
100
AcDbEntity
100
AcDbLine
  8
0
 62
256
370
-1
  6
BYLAYER
 10
916.3553390593274344
 20
-188.8053390593272525
 30
0.0
 11
916.3553390593274344
 21
-185.9999999999998863
 31
0.0
  0
LINE
  5
1E3
100
AcDbEntity
100
AcDbLine
  8
0
 62
256
370
-1
  6
BYLAYER
 10
937.3553390593274344
 20
-191.9999999999998863
 30
0.0
 11
916.3553390593274344
 21
-191.9999999999998863
 31
0.0
  0
LINE
  5
1E4
100
AcDbEntity
100
AcDbLine
  8
0
 62
256
370
-1
  6
BYLAYER
 10
916.3553390593274344
 20
-191.9999999999998863
 30
0.0
 11
916.3553390593274344
 21
-194.9999999999998863
 31
0.0
  0
LINE
  5
1E5
100
AcDbEntity
100
AcDbLine
  8
0
 62
256
370
-1
  6
BYLAYER
 10
916.3553390593274344
 20
-194.9999999999998863
 30
0.0
 11
937.3553390593274344
 21
-194.9999999999998863
 31
0.0
  0
LINE
  5
1E6
100
AcDbEntity
100
AcDbLine
  8
0
 62
256
370
-1
  6
BYLAYER
 10
937.3553390593274344
 20
-194.9999999999998863
 30
0.0
 11
937.3553390593274344
 21
-191.9999999999998863
 31
0.0
  0
LINE
  5
1E7
100
AcDbEntity
100
AcDbLine
  8
0
 62
256
370
-1
  6
BYLAYER
 10
917.3553390593274344
 20
-185.9999999999998863
 30
0.0
 11
920.3553390593274344
 21
-185.9999999999998863
 31
0.0
  0
LINE
  5
1E8
100
AcDbEntity
100
AcDbLine
  8
0
 62
256
370
-1
  6
BYLAYER
 10
920.3553390593274344
 20
-185.9999999999998863
 30
0.0
 11
920.3553390593274344
 21
-184.9999999999998863
 31
0.0
  0
LINE
  5
1E9
100
AcDbEntity
100
AcDbLine
  8
0
 62
256
370
-1
  6
BYLAYER
 10
920.3553390593274344
 20
-184.9999999999998863
 30
0.0
 11
917.3553390593274344
 21
-184.9999999999998863
 31
0.0
  0
LINE
  5
1EA
100
AcDbEntity
100
AcDbLine
  8
0
 62
256
370
-1
  6
BYLAYER
 10
917.3553390593274344
 20
-184.9999999999998863
 30
0.0
 11
917.3553390593274344
 21
-185.9999999999998863
 31
0.0
  0
LINE
  5
1EB
100
AcDbEntity
100
AcDbLine
  8
0
 62
256
370
-1
  6
BYLAYER
 10
917.3553390593274344
 20
-194.9999999999998863
 30
0.0
 11
920.3553390593274344
 21
-194.9999999999998863
 31
0.0
  0
LINE
  5
1EC
100
AcDbEntity
100
AcDbLine
  8
0
 62
256
370
-1
  6
BYLAYER
 10
920.3553390593274344
 20
-194.9999999999998863
 30
0.0
 11
920.3553390593274344
 21
-195.9999999999998863
 31
0.0
  0
LINE
  5
1ED
100
AcDbEntity
100
AcDbLine
  8
0
 62
256
370
-1
  6
BYLAYER
 10
920.3553390593274344
 20
-195.9999999999998863
 30
0.0
 11
917.3553390593274344
 21
-195.9999999999998863
 31
0.0
  0
LINE
  5
1EE
100
AcDbEntity
100
AcDbLine
  8
0
 62
256
370
-1
  6
BYLAYER
 10
917.3553390593274344
 20
-195.9999999999998863
 30
0.0
 11
917.3553390593274344
 21
-194.9999999999998863
 31
0.0
  0
LINE
  5
1EF
100
AcDbEntity
100
AcDbLine
  8
0
 62
256
370
-1
  6
BYLAYER
 10
933.3553390593274344
 20
-185.9999999999998863
 30
0.0
 11
936.3553390593274344
 21
-185.9999999999998863
 31
0.0
  0
LINE
  5
1F0
100
AcDbEntity
100
AcDbLine
  8
0
 62
256
370
-1
  6
BYLAYER
 10
936.3553390593274344
 20
-185.9999999999998863
 30
0.0
 11
936.3553390593274344
 21
-184.9999999999998863
 31
0.0
  0
LINE
  5
1F1
100
AcDbEntity
100
AcDbLine
  8
0
 62
256
370
-1
  6
BYLAYER
 10
936.3553390593274344
 20
-184.9999999999998863
 30
0.0
 11
933.3553390593274344
 21
-184.9999999999998863
 31
0.0
  0
LINE
  5
1F2
100
AcDbEntity
100
AcDbLine
  8
0
 62
256
370
-1
  6
BYLAYER
 10
933.3553390593274344
 20
-184.9999999999998863
 30
0.0
 11
933.3553390593274344
 21
-185.9999999999998863
 31
0.0
  0
LINE
  5
1F3
100
AcDbEntity
100
AcDbLine
  8
0
 62
256
370
-1
  6
BYLAYER
 10
936.3553390593274344
 20
-194.9999999999998863
 30
0.0
 11
933.3553390593274344
 21
-194.9999999999998863
 31
0.0
  0
LINE
  5
1F4
100
AcDbEntity
100
AcDbLine
  8
0
 62
256
370
-1
  6
BYLAYER
 10
933.3553390593274344
 20
-194.9999999999998863
 30
0.0
 11
933.3553390593274344
 21
-195.9999999999998863
 31
0.0
  0
LINE
  5
1F5
100
AcDbEntity
100
AcDbLine
  8
0
 62
256
370
-1
  6
BYLAYER
 10
933.3553390593274344
 20
-195.9999999999998863
 30
0.0
 11
936.3553390593274344
 21
-195.9999999999998863
 31
0.0
  0
LINE
  5
1F6
100
AcDbEntity
100
AcDbLine
  8
0
 62
256
370
-1
  6
BYLAYER
 10
936.3553390593274344
 20
-195.9999999999998863
 30
0.0
 11
936.3553390593274344
 21
-194.9999999999998863
 31
0.0
  0
LINE
  5
1F7
100
AcDbEntity
100
AcDbLine
  8
0
 62
256
370
-1
  6
BYLAYER
 10
856.7208553001792097
 20
-188.8053390593272525
 30
0.0
 11
921.3553390593274344
 21
-188.8053390593272525
 31
0.0
  0
LINE
  5
1F8
100
AcDbEntity
100
AcDbLine
  8
0
 62
256
370
-1
  6
BYLAYER
 10
921.3553390593274344
 20
-188.8053390593272525
 30
0.0
 11
921.3553390593274344
 21
-191.9999999999998863
 31
0.0
  0
LINE
  5
1F9
100
AcDbEntity
100
AcDbLine
  8
0
 62
256
370
-1
  6
BYLAYER
 10
921.3553390593274344
 20
-191.9999999999998863
 30
0.0
 11
856.7208553001792097
 21
-191.9999999999998863
 31
0.0
  0
LINE
  5
1FA
100
AcDbEntity
100
AcDbLine
  8
0
 62
256
370
-1
  6
BYLAYER
 10
856.7208553001792097
 20
-191.9999999999998863
 30
0.0
 11
856.7208553001792097
 21
-188.8053390593272525
 31
0.0
  0
LINE
  5
1FB
100
AcDbEntity
100
AcDbLine
  8
0
 62
256
370
-1
  6
BYLAYER
 10
916.3553390593274344
 20
-185.9999999999998863
 30
0.0
 11
937.3553390593274344
 21
-185.9999999999998863
 31
0.0
  0
LINE
  5
1FC
100
AcDbEntity
100
AcDbLine
  8
0
 62
256
370
-1
  6
BYLAYER
 10
759.75
 20
-383.0999999999999091
 30
0.0
 11
840.25
 21
-383.0999999999999091
 31
0.0
  0
LINE
  5
1FD
100
AcDbEntity
100
AcDbLine
  8
0
 62
256
370
-1
  6
BYLAYER
 10
840.25
 20
-383.0999999999999091
 30
0.0
 11
840.25
 21
-385.9999999999998863
 31
0.0
  0
LINE
  5
1FE
100
AcDbEntity
100
AcDbLine
  8
0
 62
256
370
-1
  6
BYLAYER
 10
840.25
 20
-385.9999999999998863
 30
0.0
 11
759.75
 21
-385.9999999999998863
 31
0.0
  0
LINE
  5
1FF
100
AcDbEntity
100
AcDbLine
  8
0
 62
256
370
-1
  6
BYLAYER
 10
759.75
 20
-385.9999999999998863
 30
0.0
 11
759.75
 21
-383.0999999999999091
 31
0.0
  0
INSERT
  5
200
100
AcDbEntity
100
AcDbBlockReference
  8
0
 62
256
370
-1
  6
BYLAYER
  2
femur
 10
884.8116681560217103
 20
-402.9262518349803486
 30
0.0
 50
360.0
  0
LINE
  5
201
100
AcDbEntity
100
AcDbLine
  8
0
 62
256
370
-1
  6
BYLAYER
 10
818.0
 20
-401.9999999999998863
 30
0.0
 11
885.8787943488191559
 21
-401.9999999999998863
 31
0.0
  0
LINE
  5
202
100
AcDbEntity
100
AcDbLine
  8
0
 62
256
370
-1
  6
BYLAYER
 10
885.8787943488191559
 20
-401.9999999999998863
 30
0.0
 11
885.8787943488191559
 21
-404.8094353141697184
 31
0.0
  0
LINE
  5
203
100
AcDbEntity
100
AcDbLine
  8
0
 62
256
370
-1
  6
BYLAYER
 10
885.8787943488191559
 20
-404.8094353141697184
 30
0.0
 11
818.0
 21
-404.8094353141697184
 31
0.0
  0
LINE
  5
204
100
AcDbEntity
100
AcDbLine
  8
0
 62
256
370
-1
  6
BYLAYER
 10
818.0
 20
-404.8094353141697184
 30
0.0
 11
818.0
 21
-401.9999999999998863
 31
0.0
  0
INSERT
  5
205
100
AcDbEntity
100
AcDbBlockReference
  8
0
 62
256
370
-1
  6
BYLAYER
  2
tibia_middle
 10
948.5153673210895704
 20
-372.9893768675750607
 30
0.0
 50
360.0
  0
INSERT
  5
206
100
AcDbEntity
100
AcDbBlockReference
  8
0
 62
256
370
-1
  6
BYLAYER
  2
femur_tibia
 10
947.5153673210895704
 20
-392.9893768675750607
 30
0.0
 50
170.0000000000000284
  0
INSERT
  5
207
100
AcDbEntity
100
AcDbBlockReference
  8
0
 62
256
370
-1
  6
BYLAYER
  2
femur_tibia_control
 10
916.1000000000001364
 20
-367.4499999999999318
 30
0.0
 50
350.0
  0
LINE
  5
208
100
AcDbEntity
100
AcDbLine
  8
0
 62
256
370
-1
  6
BYLAYER
 10
840.25
 20
-418.9999999999998863
 30
0.0
 11
759.75
 21
-418.9999999999998863
 31
0.0
  0
LINE
  5
209
100
AcDbEntity
100
AcDbLine
  8
0
 62
256
370
-1
  6
BYLAYER
 10
759.75
 20
-418.9999999999998863
 30
0.0
 11
759.75
 21
-416.0999999999999091
 31
0.0
  0
LINE
  5
20A
100
AcDbEntity
100
AcDbLine
  8
0
 62
256
370
-1
  6
BYLAYER
 10
759.75
 20
-416.0999999999999091
 30
0.0
 11
840.25
 21
-416.0999999999999091
 31
0.0
  0
LINE
  5
20B
100
AcDbEntity
100
AcDbLine
  8
0
 62
256
370
-1
  6
BYLAYER
 10
840.25
 20
-416.0999999999999091
 30
0.0
 11
840.25
 21
-418.9999999999998863
 31
0.0
  0
LINE
  5
20C
100
AcDbEntity
100
AcDbLine
  8
0
 62
256
370
-1
  6
BYLAYER
 10
825.0
 20
-415.9999999999998863
 30
0.0
 11
823.0
 21
-415.9999999999998863
 31
0.0
  0
LINE
  5
20D
100
AcDbEntity
100
AcDbLine
  8
0
 62
256
370
-1
  6
BYLAYER
 10
823.0
 20
-415.9999999999998863
 30
0.0
 11
823.0
 21
-385.9999999999998863
 31
0.0
  0
LINE
  5
20E
100
AcDbEntity
100
AcDbLine
  8
0
 62
256
370
-1
  6
BYLAYER
 10
823.0
 20
-385.9999999999998863
 30
0.0
 11
825.0
 21
-385.9999999999998863
 31
0.0
  0
LINE
  5
20F
100
AcDbEntity
100
AcDbLine
  8
0
 62
256
370
-1
  6
BYLAYER
 10
825.0
 20
-385.9999999999998863
 30
0.0
 11
825.0
 21
-415.9999999999998863
 31
0.0
  0
INSERT
  5
210
100
AcDbEntity
100
AcDbBlockReference
  8
0
 62
256
370
-1
  6
BYLAYER
  2
femur
 10
715.1883318439782897
 20
-402.9262518349802349
 30
0.0
 41
1.0
 42
-1.0
 43
1.0
 50
180.0
  0
LINE
  5
211
100
AcDbEntity
100
AcDbLine
  8
0
 62
256
370
-1
  6
BYLAYER
 10
759.75
 20
-416.0999999999999091
 30
0.0
 11
759.75
 21
-418.9999999999998863
 31
0.0
  0
LINE
  5
212
100
AcDbEntity
100
AcDbLine
  8
0
 62
256
370
-1
  6
BYLAYER
 10
782.0
 20
-401.9999999999998863
 30
0.0
 11
714.1212056511808441
 21
-401.9999999999998863
 31
0.0
  0
LINE
  5
213
100
AcDbEntity
100
AcDbLine
  8
0
 62
256
370
-1
  6
BYLAYER
 10
714.1212056511808441
 20
-401.9999999999998863
 30
0.0
 11
714.1212056511808441
 21
-404.8094353141697184
 31
0.0
  0
LINE
  5
214
100
AcDbEntity
100
AcDbLine
  8
0
 62
256
370
-1
  6
BYLAYER
 10
714.1212056511808441
 20
-404.8094353141697184
 30
0.0
 11
782.0
 21
-404.8094353141697184
 31
0.0
  0
LINE
  5
215
100
AcDbEntity
100
AcDbLine
  8
0
 62
256
370
-1
  6
BYLAYER
 10
782.0
 20
-404.8094353141697184
 30
0.0
 11
782.0
 21
-401.9999999999998863
 31
0.0
  0
INSERT
  5
216
100
AcDbEntity
100
AcDbBlockReference
  8
0
 62
256
370
-1
  6
BYLAYER
  2
tibia_middle
 10
651.4846326789105433
 20
-372.9893768675748333
 30
0.0
 41
1.0
 42
-1.0
 43
1.0
 50
180.0
  0
INSERT
  5
217
100
AcDbEntity
100
AcDbBlockReference
  8
0
 62
256
370
-1
  6
BYLAYER
  2
femur_tibia
 10
652.4846326789104296
 20
-392.9893768675751744
 30
0.0
 41
1.0
 42
-1.0
 43
1.0
 50
9.9999999999999751
  0
LINE
  5
218
100
AcDbEntity
100
AcDbLine
  8
0
 62
256
370
-1
  6
BYLAYER
 10
775.0
 20
-415.9999999999998863
 30
0.0
 11
777.0
 21
-415.9999999999998863
 31
0.0
  0
INSERT
  5
219
100
AcDbEntity
100
AcDbBlockReference
  8
0
 62
256
370
-1
  6
BYLAYER
  2
femur_tibia_control
 10
683.8999999999999773
 20
-367.4499999999998181
 30
0.0
 41
1.0
 42
-1.0
 43
1.0
 50
189.9999999999999716
  0
LINE
  5
21A
100
AcDbEntity
100
AcDbLine
  8
0
 62
256
370
-1
  6
BYLAYER
 10
777.0
 20
-415.9999999999998863
 30
0.0
 11
777.0
 21
-385.9999999999998863
 31
0.0
  0
LINE
  5
21B
100
AcDbEntity
100
AcDbLine
  8
0
 62
256
370
-1
  6
BYLAYER
 10
777.0
 20
-385.9999999999998863
 30
0.0
 11
775.0
 21
-385.9999999999998863
 31
0.0
  0
LINE
  5
21C
100
AcDbEntity
100
AcDbLine
  8
0
 62
256
370
-1
  6
BYLAYER
 10
775.0
 20
-385.9999999999998863
 30
0.0
 11
775.0
 21
-415.9999999999998863
 31
0.0
  0
LINE
  5
21D
100
AcDbEntity
100
AcDbLine
  8
0
 62
256
370
-1
  6
BYLAYER
 10
759.75
 20
-383.0999999999997954
 30
0.0
 11
759.75
 21
-385.9999999999998863
 31
0.0
  0
LINE
  5
21E
100
AcDbEntity
100
AcDbLine
  8
0
 62
256
370
-1
  6
BYLAYER
 10
922.0
 20
-188.9999999999998863
 30
0.0
 11
961.0
 21
-188.9999999999998863
 31
0.0
  0
LINE
  5
21F
100
AcDbEntity
100
AcDbLine
  8
0
 62
256
370
-1
  6
BYLAYER
 10
961.0
 20
-188.9999999999998863
 30
0.0
 11
961.0
 21
-191.9999999999998863
 31
0.0
  0
LINE
  5
220
100
AcDbEntity
100
AcDbLine
  8
0
 62
256
370
-1
  6
BYLAYER
 10
961.0
 20
-191.9999999999998863
 30
0.0
 11
922.0
 21
-191.9999999999998863
 31
0.0
  0
LINE
  5
221
100
AcDbEntity
100
AcDbLine
  8
0
 62
256
370
-1
  6
BYLAYER
 10
922.0
 20
-191.9999999999998863
 30
0.0
 11
922.0
 21
-188.9999999999998863
 31
0.0
  0
LINE
  5
222
100
AcDbEntity
100
AcDbLine
  8
0
 62
256
370
-1
  6
BYLAYER
 10
921.3553390593274344
 20
-85.9999999999999432
 30
0.0
 11
921.3553390593274344
 21
-84.9999999999999432
 31
0.0
  0
LINE
  5
223
100
AcDbEntity
100
AcDbLine
  8
0
 62
256
370
-1
  6
BYLAYER
 10
937.3553390593274344
 20
-75.9999999999999432
 30
0.0
 11
940.3553390593274344
 21
-75.9999999999999432
 31
0.0
  0
LINE
  5
224
100
AcDbEntity
100
AcDbLine
  8
0
 62
256
370
-1
  6
BYLAYER
 10
926.0
 20
-78.9999999999999432
 30
0.0
 11
965.0
 21
-78.9999999999999432
 31
0.0
  0
LINE
  5
225
100
AcDbEntity
100
AcDbLine
  8
0
 62
256
370
-1
  6
BYLAYER
 10
940.3553390593274344
 20
-75.9999999999999432
 30
0.0
 11
940.3553390593274344
 21
-74.9999999999999432
 31
0.0
  0
LINE
  5
226
100
AcDbEntity
100
AcDbLine
  8
0
 62
256
370
-1
  6
BYLAYER
 10
965.0
 20
-78.9999999999999432
 30
0.0
 11
965.0
 21
-81.9999999999999432
 31
0.0
  0
LINE
  5
227
100
AcDbEntity
100
AcDbLine
  8
0
 62
256
370
-1
  6
BYLAYER
 10
940.3553390593274344
 20
-74.9999999999999432
 30
0.0
 11
937.3553390593274344
 21
-74.9999999999999432
 31
0.0
  0
LINE
  5
228
100
AcDbEntity
100
AcDbLine
  8
0
 62
256
370
-1
  6
BYLAYER
 10
965.0
 20
-81.9999999999999432
 30
0.0
 11
926.0
 21
-81.9999999999999432
 31
0.0
  0
LINE
  5
229
100
AcDbEntity
100
AcDbLine
  8
0
 62
256
370
-1
  6
BYLAYER
 10
937.3553390593274344
 20
-74.9999999999999432
 30
0.0
 11
937.3553390593274344
 21
-75.9999999999999432
 31
0.0
  0
LINE
  5
22A
100
AcDbEntity
100
AcDbLine
  8
0
 62
256
370
-1
  6
BYLAYER
 10
926.0
 20
-81.9999999999999432
 30
0.0
 11
926.0
 21
-78.9999999999999432
 31
0.0
  0
LINE
  5
22B
100
AcDbEntity
100
AcDbLine
  8
0
 62
256
370
-1
  6
BYLAYER
 10
940.3553390593274344
 20
-84.9999999999999432
 30
0.0
 11
937.3553390593274344
 21
-84.9999999999999432
 31
0.0
  0
LINE
  5
22C
100
AcDbEntity
100
AcDbLine
  8
0
 62
256
370
-1
  6
BYLAYER
 10
937.3553390593274344
 20
-84.9999999999999432
 30
0.0
 11
937.3553390593274344
 21
-85.9999999999999432
 31
0.0
  0
LINE
  5
22D
100
AcDbEntity
100
AcDbLine
  8
0
 62
256
370
-1
  6
BYLAYER
 10
937.3553390593274344
 20
-85.9999999999999432
 30
0.0
 11
940.3553390593274344
 21
-85.9999999999999432
 31
0.0
  0
LINE
  5
22E
100
AcDbEntity
100
AcDbLine
  8
0
 62
256
370
-1
  6
BYLAYER
 10
940.3553390593274344
 20
-85.9999999999999432
 30
0.0
 11
940.3553390593274344
 21
-84.9999999999999432
 31
0.0
  0
LINE
  5
22F
100
AcDbEntity
100
AcDbLine
  8
0
 62
256
370
-1
  6
BYLAYER
 10
925.3553390593274344
 20
-78.8053390593273093
 30
0.0
 11
925.3553390593274344
 21
-81.9999999999999432
 31
0.0
  0
LINE
  5
230
100
AcDbEntity
100
AcDbLine
  8
0
 62
256
370
-1
  6
BYLAYER
 10
920.3553390593274344
 20
-75.9999999999999432
 30
0.0
 11
941.3553390593274344
 21
-75.9999999999999432
 31
0.0
  0
LINE
  5
231
100
AcDbEntity
100
AcDbLine
  8
0
 62
256
370
-1
  6
BYLAYER
 10
941.3553390593274344
 20
-75.9999999999999432
 30
0.0
 11
941.3553390593274344
 21
-78.8053390593273093
 31
0.0
  0
LINE
  5
232
100
AcDbEntity
100
AcDbLine
  8
0
 62
256
370
-1
  6
BYLAYER
 10
941.3553390593274344
 20
-78.8053390593273093
 30
0.0
 11
920.3553390593274344
 21
-78.8053390593273093
 31
0.0
  0
LINE
  5
233
100
AcDbEntity
100
AcDbLine
  8
0
 62
256
370
-1
  6
BYLAYER
 10
920.3553390593274344
 20
-78.8053390593273093
 30
0.0
 11
920.3553390593274344
 21
-75.9999999999999432
 31
0.0
  0
LINE
  5
234
100
AcDbEntity
100
AcDbLine
  8
0
 62
256
370
-1
  6
BYLAYER
 10
941.3553390593274344
 20
-81.9999999999999432
 30
0.0
 11
920.3553390593274344
 21
-81.9999999999999432
 31
0.0
  0
LINE
  5
235
100
AcDbEntity
100
AcDbLine
  8
0
 62
256
370
-1
  6
BYLAYER
 10
920.3553390593274344
 20
-81.9999999999999432
 30
0.0
 11
920.3553390593274344
 21
-84.9999999999999432
 31
0.0
  0
LINE
  5
236
100
AcDbEntity
100
AcDbLine
  8
0
 62
256
370
-1
  6
BYLAYER
 10
920.3553390593274344
 20
-84.9999999999999432
 30
0.0
 11
941.3553390593274344
 21
-84.9999999999999432
 31
0.0
  0
LINE
  5
237
100
AcDbEntity
100
AcDbLine
  8
0
 62
256
370
-1
  6
BYLAYER
 10
941.3553390593274344
 20
-84.9999999999999432
 30
0.0
 11
941.3553390593274344
 21
-81.9999999999999432
 31
0.0
  0
LINE
  5
238
100
AcDbEntity
100
AcDbLine
  8
0
 62
256
370
-1
  6
BYLAYER
 10
921.3553390593274344
 20
-75.9999999999999432
 30
0.0
 11
924.3553390593274344
 21
-75.9999999999999432
 31
0.0
  0
LINE
  5
239
100
AcDbEntity
100
AcDbLine
  8
0
 62
256
370
-1
  6
BYLAYER
 10
924.3553390593274344
 20
-75.9999999999999432
 30
0.0
 11
924.3553390593274344
 21
-74.9999999999999432
 31
0.0
  0
LINE
  5
23A
100
AcDbEntity
100
AcDbLine
  8
0
 62
256
370
-1
  6
BYLAYER
 10
924.3553390593274344
 20
-74.9999999999999432
 30
0.0
 11
921.3553390593274344
 21
-74.9999999999999432
 31
0.0
  0
LINE
  5
23B
100
AcDbEntity
100
AcDbLine
  8
0
 62
256
370
-1
  6
BYLAYER
 10
921.3553390593274344
 20
-74.9999999999999432
 30
0.0
 11
921.3553390593274344
 21
-75.9999999999999432
 31
0.0
  0
LINE
  5
23C
100
AcDbEntity
100
AcDbLine
  8
0
 62
256
370
-1
  6
BYLAYER
 10
921.3553390593274344
 20
-84.9999999999999432
 30
0.0
 11
924.3553390593274344
 21
-84.9999999999999432
 31
0.0
  0
LINE
  5
23D
100
AcDbEntity
100
AcDbLine
  8
0
 62
256
370
-1
  6
BYLAYER
 10
924.3553390593274344
 20
-84.9999999999999432
 30
0.0
 11
924.3553390593274344
 21
-85.9999999999999432
 31
0.0
  0
LINE
  5
23E
100
AcDbEntity
100
AcDbLine
  8
0
 62
256
370
-1
  6
BYLAYER
 10
924.3553390593274344
 20
-85.9999999999999432
 30
0.0
 11
921.3553390593274344
 21
-85.9999999999999432
 31
0.0
  0
LINE
  5
23F
100
AcDbEntity
100
AcDbLine
  8
0
 62
256
370
-1
  6
BYLAYER
 10
917.3553390593274344
 20
24.0
 30
0.0
 11
917.3553390593274344
 21
25.0
 31
0.0
  0
LINE
  5
240
100
AcDbEntity
100
AcDbLine
  8
0
 62
256
370
-1
  6
BYLAYER
 10
933.3553390593274344
 20
34.0
 30
0.0
 11
936.3553390593274344
 21
34.0
 31
0.0
  0
LINE
  5
241
100
AcDbEntity
100
AcDbLine
  8
0
 62
256
370
-1
  6
BYLAYER
 10
922.0
 20
31.0
 30
0.0
 11
961.0
 21
31.0
 31
0.0
  0
LINE
  5
242
100
AcDbEntity
100
AcDbLine
  8
0
 62
256
370
-1
  6
BYLAYER
 10
936.3553390593274344
 20
34.0
 30
0.0
 11
936.3553390593274344
 21
35.0
 31
0.0
  0
LINE
  5
243
100
AcDbEntity
100
AcDbLine
  8
0
 62
256
370
-1
  6
BYLAYER
 10
961.0
 20
31.0
 30
0.0
 11
961.0
 21
28.0
 31
0.0
  0
LINE
  5
244
100
AcDbEntity
100
AcDbLine
  8
0
 62
256
370
-1
  6
BYLAYER
 10
936.3553390593274344
 20
35.0
 30
0.0
 11
933.3553390593274344
 21
35.0
 31
0.0
  0
LINE
  5
245
100
AcDbEntity
100
AcDbLine
  8
0
 62
256
370
-1
  6
BYLAYER
 10
961.0
 20
28.0
 30
0.0
 11
922.0
 21
28.0
 31
0.0
  0
LINE
  5
246
100
AcDbEntity
100
AcDbLine
  8
0
 62
256
370
-1
  6
BYLAYER
 10
933.3553390593274344
 20
35.0
 30
0.0
 11
933.3553390593274344
 21
34.0
 31
0.0
  0
LINE
  5
247
100
AcDbEntity
100
AcDbLine
  8
0
 62
256
370
-1
  6
BYLAYER
 10
922.0
 20
28.0
 30
0.0
 11
922.0
 21
31.0
 31
0.0
  0
LINE
  5
248
100
AcDbEntity
100
AcDbLine
  8
0
 62
256
370
-1
  6
BYLAYER
 10
936.3553390593274344
 20
25.0
 30
0.0
 11
933.3553390593274344
 21
25.0
 31
0.0
  0
LINE
  5
249
100
AcDbEntity
100
AcDbLine
  8
0
 62
256
370
-1
  6
BYLAYER
 10
933.3553390593274344
 20
25.0
 30
0.0
 11
933.3553390593274344
 21
24.0
 31
0.0
  0
LINE
  5
24A
100
AcDbEntity
100
AcDbLine
  8
0
 62
256
370
-1
  6
BYLAYER
 10
933.3553390593274344
 20
24.0
 30
0.0
 11
936.3553390593274344
 21
24.0
 31
0.0
  0
LINE
  5
24B
100
AcDbEntity
100
AcDbLine
  8
0
 62
256
370
-1
  6
BYLAYER
 10
936.3553390593274344
 20
24.0
 30
0.0
 11
936.3553390593274344
 21
25.0
 31
0.0
  0
LINE
  5
24C
100
AcDbEntity
100
AcDbLine
  8
0
 62
256
370
-1
  6
BYLAYER
 10
921.3553390593274344
 20
31.1946609406726338
 30
0.0
 11
921.3553390593274344
 21
28.0
 31
0.0
  0
LINE
  5
24D
100
AcDbEntity
100
AcDbLine
  8
0
 62
256
370
-1
  6
BYLAYER
 10
916.3553390593274344
 20
34.0
 30
0.0
 11
937.3553390593274344
 21
34.0
 31
0.0
  0
LINE
  5
24E
100
AcDbEntity
100
AcDbLine
  8
0
 62
256
370
-1
  6
BYLAYER
 10
937.3553390593274344
 20
34.0
 30
0.0
 11
937.3553390593274344
 21
31.1946609406726338
 31
0.0
  0
LINE
  5
24F
100
AcDbEntity
100
AcDbLine
  8
0
 62
256
370
-1
  6
BYLAYER
 10
937.3553390593274344
 20
31.1946609406726338
 30
0.0
 11
916.3553390593274344
 21
31.1946609406726338
 31
0.0
  0
LINE
  5
250
100
AcDbEntity
100
AcDbLine
  8
0
 62
256
370
-1
  6
BYLAYER
 10
916.3553390593274344
 20
31.1946609406726338
 30
0.0
 11
916.3553390593274344
 21
34.0
 31
0.0
  0
LINE
  5
251
100
AcDbEntity
100
AcDbLine
  8
0
 62
256
370
-1
  6
BYLAYER
 10
937.3553390593274344
 20
28.0
 30
0.0
 11
916.3553390593274344
 21
28.0
 31
0.0
  0
LINE
  5
252
100
AcDbEntity
100
AcDbLine
  8
0
 62
256
370
-1
  6
BYLAYER
 10
916.3553390593274344
 20
28.0
 30
0.0
 11
916.3553390593274344
 21
25.0
 31
0.0
  0
LINE
  5
253
100
AcDbEntity
100
AcDbLine
  8
0
 62
256
370
-1
  6
BYLAYER
 10
916.3553390593274344
 20
25.0
 30
0.0
 11
937.3553390593274344
 21
25.0
 31
0.0
  0
LINE
  5
254
100
AcDbEntity
100
AcDbLine
  8
0
 62
256
370
-1
  6
BYLAYER
 10
937.3553390593274344
 20
25.0
 30
0.0
 11
937.3553390593274344
 21
28.0
 31
0.0
  0
LINE
  5
255
100
AcDbEntity
100
AcDbLine
  8
0
 62
256
370
-1
  6
BYLAYER
 10
917.3553390593274344
 20
34.0
 30
0.0
 11
920.3553390593274344
 21
34.0
 31
0.0
  0
LINE
  5
256
100
AcDbEntity
100
AcDbLine
  8
0
 62
256
370
-1
  6
BYLAYER
 10
920.3553390593274344
 20
34.0
 30
0.0
 11
920.3553390593274344
 21
35.0
 31
0.0
  0
LINE
  5
257
100
AcDbEntity
100
AcDbLine
  8
0
 62
256
370
-1
  6
BYLAYER
 10
920.3553390593274344
 20
35.0
 30
0.0
 11
917.3553390593274344
 21
35.0
 31
0.0
  0
LINE
  5
258
100
AcDbEntity
100
AcDbLine
  8
0
 62
256
370
-1
  6
BYLAYER
 10
917.3553390593274344
 20
35.0
 30
0.0
 11
917.3553390593274344
 21
34.0
 31
0.0
  0
LINE
  5
259
100
AcDbEntity
100
AcDbLine
  8
0
 62
256
370
-1
  6
BYLAYER
 10
917.3553390593274344
 20
25.0
 30
0.0
 11
920.3553390593274344
 21
25.0
 31
0.0
  0
LINE
  5
25A
100
AcDbEntity
100
AcDbLine
  8
0
 62
256
370
-1
  6
BYLAYER
 10
920.3553390593274344
 20
25.0
 30
0.0
 11
920.3553390593274344
 21
24.0
 31
0.0
  0
LINE
  5
25B
100
AcDbEntity
100
AcDbLine
  8
0
 62
256
370
-1
  6
BYLAYER
 10
920.3553390593274344
 20
24.0
 30
0.0
 11
917.3553390593274344
 21
24.0
 31
0.0
  0
LINE
  5
25C
100
AcDbEntity
100
AcDbLine
  8
0
 62
256
370
-1
  6
BYLAYER
 10
662.6446609406725656
 20
-185.9999999999998863
 30
0.0
 11
662.6446609406725656
 21
-188.8053390593272525
 31
0.0
  0
LINE
  5
25D
100
AcDbEntity
100
AcDbLine
  8
0
 62
256
370
-1
  6
BYLAYER
 10
662.6446609406725656
 20
-188.8053390593272525
 30
0.0
 11
683.6446609406725656
 21
-188.8053390593271388
 31
0.0
  0
LINE
  5
25E
100
AcDbEntity
100
AcDbLine
  8
0
 62
256
370
-1
  6
BYLAYER
 10
683.6446609406725656
 20
-188.8053390593271388
 30
0.0
 11
683.6446609406725656
 21
-185.9999999999998863
 31
0.0
  0
LINE
  5
25F
100
AcDbEntity
100
AcDbLine
  8
0
 62
256
370
-1
  6
BYLAYER
 10
662.6446609406726793
 20
-191.9999999999998863
 30
0.0
 11
683.6446609406725656
 21
-191.9999999999998863
 31
0.0
  0
LINE
  5
260
100
AcDbEntity
100
AcDbLine
  8
0
 62
256
370
-1
  6
BYLAYER
 10
683.6446609406725656
 20
-191.9999999999998863
 30
0.0
 11
683.6446609406726793
 21
-194.9999999999998863
 31
0.0
  0
LINE
  5
261
100
AcDbEntity
100
AcDbLine
  8
0
 62
256
370
-1
  6
BYLAYER
 10
683.6446609406726793
 20
-194.9999999999998863
 30
0.0
 11
662.6446609406725656
 21
-194.9999999999998863
 31
0.0
  0
LINE
  5
262
100
AcDbEntity
100
AcDbLine
  8
0
 62
256
370
-1
  6
BYLAYER
 10
662.6446609406725656
 20
-194.9999999999998863
 30
0.0
 11
662.6446609406726793
 21
-191.9999999999998863
 31
0.0
  0
LINE
  5
263
100
AcDbEntity
100
AcDbLine
  8
0
 62
256
370
-1
  6
BYLAYER
 10
682.6446609406725656
 20
-185.9999999999998863
 30
0.0
 11
679.6446609406725656
 21
-185.9999999999998863
 31
0.0
  0
LINE
  5
264
100
AcDbEntity
100
AcDbLine
  8
0
 62
256
370
-1
  6
BYLAYER
 10
679.6446609406725656
 20
-185.9999999999998863
 30
0.0
 11
679.6446609406725656
 21
-184.9999999999998863
 31
0.0
  0
LINE
  5
265
100
AcDbEntity
100
AcDbLine
  8
0
 62
256
370
-1
  6
BYLAYER
 10
679.6446609406725656
 20
-184.9999999999998863
 30
0.0
 11
682.6446609406726793
 21
-184.9999999999998863
 31
0.0
  0
LINE
  5
266
100
AcDbEntity
100
AcDbLine
  8
0
 62
256
370
-1
  6
BYLAYER
 10
682.6446609406726793
 20
-184.9999999999998863
 30
0.0
 11
682.6446609406725656
 21
-185.9999999999998863
 31
0.0
  0
LINE
  5
267
100
AcDbEntity
100
AcDbLine
  8
0
 62
256
370
-1
  6
BYLAYER
 10
682.6446609406725656
 20
-194.9999999999998863
 30
0.0
 11
679.6446609406725656
 21
-194.9999999999998863
 31
0.0
  0
LINE
  5
268
100
AcDbEntity
100
AcDbLine
  8
0
 62
256
370
-1
  6
BYLAYER
 10
679.6446609406725656
 20
-194.9999999999998863
 30
0.0
 11
679.6446609406726793
 21
-195.9999999999998863
 31
0.0
  0
LINE
  5
269
100
AcDbEntity
100
AcDbLine
  8
0
 62
256
370
-1
  6
BYLAYER
 10
679.6446609406726793
 20
-195.9999999999998863
 30
0.0
 11
682.6446609406725656
 21
-195.9999999999998863
 31
0.0
  0
LINE
  5
26A
100
AcDbEntity
100
AcDbLine
  8
0
 62
256
370
-1
  6
BYLAYER
 10
682.6446609406725656
 20
-195.9999999999998863
 30
0.0
 11
682.6446609406725656
 21
-194.9999999999998863
 31
0.0
  0
LINE
  5
26B
100
AcDbEntity
100
AcDbLine
  8
0
 62
256
370
-1
  6
BYLAYER
 10
666.6446609406725656
 20
-185.9999999999998863
 30
0.0
 11
663.6446609406725656
 21
-185.9999999999998863
 31
0.0
  0
LINE
  5
26C
100
AcDbEntity
100
AcDbLine
  8
0
 62
256
370
-1
  6
BYLAYER
 10
663.6446609406725656
 20
-185.9999999999998863
 30
0.0
 11
663.6446609406725656
 21
-184.9999999999998863
 31
0.0
  0
LINE
  5
26D
100
AcDbEntity
100
AcDbLine
  8
0
 62
256
370
-1
  6
BYLAYER
 10
663.6446609406725656
 20
-184.9999999999998863
 30
0.0
 11
666.6446609406725656
 21
-184.9999999999998863
 31
0.0
  0
LINE
  5
26E
100
AcDbEntity
100
AcDbLine
  8
0
 62
256
370
-1
  6
BYLAYER
 10
666.6446609406725656
 20
-184.9999999999998863
 30
0.0
 11
666.6446609406725656
 21
-185.9999999999998863
 31
0.0
  0
LINE
  5
26F
100
AcDbEntity
100
AcDbLine
  8
0
 62
256
370
-1
  6
BYLAYER
 10
663.6446609406725656
 20
-194.9999999999998863
 30
0.0
 11
666.6446609406725656
 21
-194.9999999999998863
 31
0.0
  0
LINE
  5
270
100
AcDbEntity
100
AcDbLine
  8
0
 62
256
370
-1
  6
BYLAYER
 10
666.6446609406725656
 20
-194.9999999999998863
 30
0.0
 11
666.6446609406725656
 21
-195.9999999999998863
 31
0.0
  0
LINE
  5
271
100
AcDbEntity
100
AcDbLine
  8
0
 62
256
370
-1
  6
BYLAYER
 10
666.6446609406725656
 20
-195.9999999999998863
 30
0.0
 11
663.6446609406725656
 21
-195.9999999999998863
 31
0.0
  0
LINE
  5
272
100
AcDbEntity
100
AcDbLine
  8
0
 62
256
370
-1
  6
BYLAYER
 10
663.6446609406725656
 20
-195.9999999999998863
 30
0.0
 11
663.6446609406725656
 21
-194.9999999999998863
 31
0.0
  0
LINE
  5
273
100
AcDbEntity
100
AcDbLine
  8
0
 62
256
370
-1
  6
BYLAYER
 10
743.2791446998207903
 20
-188.8053390593272525
 30
0.0
 11
678.6446609406725656
 21
-188.8053390593272525
 31
0.0
  0
LINE
  5
274
100
AcDbEntity
100
AcDbLine
  8
0
 62
256
370
-1
  6
BYLAYER
 10
678.6446609406725656
 20
-188.8053390593272525
 30
0.0
 11
678.6446609406725656
 21
-191.9999999999998863
 31
0.0
  0
LINE
  5
275
100
AcDbEntity
100
AcDbLine
  8
0
 62
256
370
-1
  6
BYLAYER
 10
678.6446609406725656
 20
-191.9999999999998863
 30
0.0
 11
743.279144699820904
 21
-191.9999999999998863
 31
0.0
  0
LINE
  5
276
100
AcDbEntity
100
AcDbLine
  8
0
 62
256
370
-1
  6
BYLAYER
 10
743.279144699820904
 20
-191.9999999999998863
 30
0.0
 11
743.2791446998207903
 21
-188.8053390593272525
 31
0.0
  0
LINE
  5
277
100
AcDbEntity
100
AcDbLine
  8
0
 62
256
370
-1
  6
BYLAYER
 10
683.6446609406725656
 20
-185.9999999999998863
 30
0.0
 11
662.6446609406725656
 21
-185.9999999999998863
 31
0.0
  0
LINE
  5
278
100
AcDbEntity
100
AcDbLine
  8
0
 62
256
370
-1
  6
BYLAYER
 10
678.0
 20
-188.9999999999998863
 30
0.0
 11
639.0
 21
-188.9999999999998863
 31
0.0
  0
LINE
  5
279
100
AcDbEntity
100
AcDbLine
  8
0
 62
256
370
-1
  6
BYLAYER
 10
639.0
 20
-188.9999999999998863
 30
0.0
 11
639.0
 21
-191.9999999999998863
 31
0.0
  0
LINE
  5
27A
100
AcDbEntity
100
AcDbLine
  8
0
 62
256
370
-1
  6
BYLAYER
 10
639.0
 20
-191.9999999999998863
 30
0.0
 11
678.0
 21
-191.9999999999998863
 31
0.0
  0
LINE
  5
27B
100
AcDbEntity
100
AcDbLine
  8
0
 62
256
370
-1
  6
BYLAYER
 10
678.0
 20
-191.9999999999998863
 30
0.0
 11
678.0
 21
-188.9999999999998863
 31
0.0
  0
LINE
  5
27C
100
AcDbEntity
100
AcDbLine
  8
0
 62
256
370
-1
  6
BYLAYER
 10
678.6446609406725656
 20
-85.9999999999999432
 30
0.0
 11
678.6446609406725656
 21
-84.9999999999999432
 31
0.0
  0
LINE
  5
27D
100
AcDbEntity
100
AcDbLine
  8
0
 62
256
370
-1
  6
BYLAYER
 10
662.6446609406725656
 20
-75.9999999999997726
 30
0.0
 11
659.6446609406725656
 21
-75.9999999999997158
 31
0.0
  0
LINE
  5
27E
100
AcDbEntity
100
AcDbLine
  8
0
 62
256
370
-1
  6
BYLAYER
 10
674.0
 20
-78.9999999999999432
 30
0.0
 11
635.0
 21
-78.9999999999998863
 31
0.0
  0
LINE
  5
27F
100
AcDbEntity
100
AcDbLine
  8
0
 62
256
370
-1
  6
BYLAYER
 10
659.6446609406725656
 20
-75.9999999999997158
 30
0.0
 11
659.6446609406725656
 21
-74.9999999999998295
 31
0.0
  0
LINE
  5
280
100
AcDbEntity
100
AcDbLine
  8
0
 62
256
370
-1
  6
BYLAYER
 10
635.0
 20
-78.9999999999998863
 30
0.0
 11
635.0
 21
-81.9999999999999432
 31
0.0
  0
LINE
  5
281
100
AcDbEntity
100
AcDbLine
  8
0
 62
256
370
-1
  6
BYLAYER
 10
659.6446609406725656
 20
-74.9999999999998295
 30
0.0
 11
662.6446609406725656
 21
-74.9999999999997726
 31
0.0
  0
LINE
  5
282
100
AcDbEntity
100
AcDbLine
  8
0
 62
256
370
-1
  6
BYLAYER
 10
635.0
 20
-81.9999999999999432
 30
0.0
 11
674.0
 21
-81.9999999999998863
 31
0.0
  0
LINE
  5
283
100
AcDbEntity
100
AcDbLine
  8
0
 62
256
370
-1
  6
BYLAYER
 10
662.6446609406725656
 20
-74.9999999999997726
 30
0.0
 11
662.6446609406725656
 21
-75.9999999999997726
 31
0.0
  0
LINE
  5
284
100
AcDbEntity
100
AcDbLine
  8
0
 62
256
370
-1
  6
BYLAYER
 10
674.0
 20
-81.9999999999998863
 30
0.0
 11
674.0
 21
-78.9999999999999432
 31
0.0
  0
LINE
  5
285
100
AcDbEntity
100
AcDbLine
  8
0
 62
256
370
-1
  6
BYLAYER
 10
659.6446609406725656
 20
-85.0
 30
0.0
 11
662.6446609406725656
 21
-84.9999999999999432
 31
0.0
  0
LINE
  5
286
100
AcDbEntity
100
AcDbLine
  8
0
 62
256
370
-1
  6
BYLAYER
 10
662.6446609406725656
 20
-84.9999999999999432
 30
0.0
 11
662.6446609406725656
 21
-85.9999999999998863
 31
0.0
  0
LINE
  5
287
100
AcDbEntity
100
AcDbLine
  8
0
 62
256
370
-1
  6
BYLAYER
 10
662.6446609406725656
 20
-85.9999999999998863
 30
0.0
 11
659.6446609406725656
 21
-86.0000000000000568
 31
0.0
  0
LINE
  5
288
100
AcDbEntity
100
AcDbLine
  8
0
 62
256
370
-1
  6
BYLAYER
 10
659.6446609406725656
 20
-86.0000000000000568
 30
0.0
 11
659.6446609406725656
 21
-85.0
 31
0.0
  0
LINE
  5
289
100
AcDbEntity
100
AcDbLine
  8
0
 62
256
370
-1
  6
BYLAYER
 10
674.6446609406725656
 20
-78.8053390593271388
 30
0.0
 11
674.6446609406725656
 21
-82.0
 31
0.0
  0
LINE
  5
28A
100
AcDbEntity
100
AcDbLine
  8
0
 62
256
370
-1
  6
BYLAYER
 10
679.6446609406725656
 20
-76.0
 30
0.0
 11
658.6446609406725656
 21
-75.9999999999998295
 31
0.0
  0
LINE
  5
28B
100
AcDbEntity
100
AcDbLine
  8
0
 62
256
370
-1
  6
BYLAYER
 10
658.6446609406725656
 20
-75.9999999999998295
 30
0.0
 11
658.6446609406725656
 21
-78.8053390593272525
 31
0.0
  0
LINE
  5
28C
100
AcDbEntity
100
AcDbLine
  8
0
 62
256
370
-1
  6
BYLAYER
 10
658.6446609406725656
 20
-78.8053390593272525
 30
0.0
 11
679.6446609406725656
 21
-78.8053390593271956
 31
0.0
  0
LINE
  5
28D
100
AcDbEntity
100
AcDbLine
  8
0
 62
256
370
-1
  6
BYLAYER
 10
679.6446609406725656
 20
-78.8053390593271956
 30
0.0
 11
679.6446609406725656
 21
-76.0
 31
0.0
  0
LINE
  5
28E
100
AcDbEntity
100
AcDbLine
  8
0
 62
256
370
-1
  6
BYLAYER
 10
658.6446609406725656
 20
-82.0000000000000568
 30
0.0
 11
679.6446609406725656
 21
-81.9999999999998295
 31
0.0
  0
LINE
  5
28F
100
AcDbEntity
100
AcDbLine
  8
0
 62
256
370
-1
  6
BYLAYER
 10
679.6446609406725656
 20
-81.9999999999998295
 30
0.0
 11
679.6446609406725656
 21
-84.9999999999998295
 31
0.0
  0
LINE
  5
290
100
AcDbEntity
100
AcDbLine
  8
0
 62
256
370
-1
  6
BYLAYER
 10
679.6446609406725656
 20
-84.9999999999998295
 30
0.0
 11
658.6446609406725656
 21
-84.9999999999998863
 31
0.0
  0
LINE
  5
291
100
AcDbEntity
100
AcDbLine
  8
0
 62
256
370
-1
  6
BYLAYER
 10
658.6446609406725656
 20
-84.9999999999998863
 30
0.0
 11
658.6446609406725656
 21
-82.0000000000000568
 31
0.0
  0
LINE
  5
292
100
AcDbEntity
100
AcDbLine
  8
0
 62
256
370
-1
  6
BYLAYER
 10
678.6446609406725656
 20
-76.0000000000000568
 30
0.0
 11
675.6446609406725656
 21
-75.9999999999999432
 31
0.0
  0
LINE
  5
293
100
AcDbEntity
100
AcDbLine
  8
0
 62
256
370
-1
  6
BYLAYER
 10
675.6446609406725656
 20
-75.9999999999999432
 30
0.0
 11
675.6446609406725656
 21
-74.9999999999998863
 31
0.0
  0
LINE
  5
294
100
AcDbEntity
100
AcDbLine
  8
0
 62
256
370
-1
  6
BYLAYER
 10
675.6446609406725656
 20
-74.9999999999998863
 30
0.0
 11
678.6446609406725656
 21
-75.0
 31
0.0
  0
LINE
  5
295
100
AcDbEntity
100
AcDbLine
  8
0
 62
256
370
-1
  6
BYLAYER
 10
678.6446609406725656
 20
-75.0
 30
0.0
 11
678.6446609406725656
 21
-76.0000000000000568
 31
0.0
  0
LINE
  5
296
100
AcDbEntity
100
AcDbLine
  8
0
 62
256
370
-1
  6
BYLAYER
 10
678.6446609406725656
 20
-84.9999999999999432
 30
0.0
 11
675.6446609406725656
 21
-84.9999999999998863
 31
0.0
  0
LINE
  5
297
100
AcDbEntity
100
AcDbLine
  8
0
 62
256
370
-1
  6
BYLAYER
 10
675.6446609406725656
 20
-84.9999999999998863
 30
0.0
 11
675.6446609406725656
 21
-85.9999999999998863
 31
0.0
  0
LINE
  5
298
100
AcDbEntity
100
AcDbLine
  8
0
 62
256
370
-1
  6
BYLAYER
 10
675.6446609406725656
 20
-85.9999999999998863
 30
0.0
 11
678.6446609406725656
 21
-85.9999999999999432
 31
0.0
  0
LINE
  5
299
100
AcDbEntity
100
AcDbLine
  8
0
 62
256
370
-1
  6
BYLAYER
 10
682.6446609406725656
 20
24.0
 30
0.0
 11
682.644660940672793
 21
25.0000000000002274
 31
0.0
  0
LINE
  5
29A
100
AcDbEntity
100
AcDbLine
  8
0
 62
256
370
-1
  6
BYLAYER
 10
666.6446609406726793
 20
34.0000000000000568
 30
0.0
 11
663.6446609406726793
 21
34.0
 31
0.0
  0
LINE
  5
29B
100
AcDbEntity
100
AcDbLine
  8
0
 62
256
370
-1
  6
BYLAYER
 10
678.0
 20
31.0000000000001137
 30
0.0
 11
639.0
 21
30.9999999999999432
 31
0.0
  0
LINE
  5
29C
100
AcDbEntity
100
AcDbLine
  8
0
 62
256
370
-1
  6
BYLAYER
 10
663.6446609406726793
 20
34.0
 30
0.0
 11
663.644660940672793
 21
35.0000000000002274
 31
0.0
  0
LINE
  5
29D
100
AcDbEntity
100
AcDbLine
  8
0
 62
256
370
-1
  6
BYLAYER
 10
639.0
 20
30.9999999999999432
 30
0.0
 11
639.0
 21
28.0
 31
0.0
  0
INSERT
  5
29E
100
AcDbEntity
100
AcDbBlockReference
  8
0
 62
256
370
-1
  6
BYLAYER
  2
coxa
 10
751.9999999999998863
 20
29.644660940672793
 30
0.0
 41
1.0
 42
-1.0
 43
1.0
 50
180.0
  0
LINE
  5
29F
100
AcDbEntity
100
AcDbLine
  8
0
 62
256
370
-1
  6
BYLAYER
 10
663.644660940672793
 20
35.0000000000002274
 30
0.0
 11
666.644660940672793
 21
35.0000000000001705
 31
0.0
  0
INSERT
  5
2A0
100
AcDbEntity
100
AcDbBlockReference
  8
0
 62
256
370
-1
  6
BYLAYER
  2
coxa
 10
748.0
 20
-80.355339059327207
 30
0.0
 41
1.0
 42
-1.0
 43
1.0
 50
180.0
  0
LINE
  5
2A1
100
AcDbEntity
100
AcDbLine
  8
0
 62
256
370
-1
  6
BYLAYER
 10
639.0
 20
28.0
 30
0.0
 11
678.0
 21
28.0000000000001137
 31
0.0
  0
INSERT
  5
2A2
100
AcDbEntity
100
AcDbBlockReference
  8
0
 62
256
370
-1
  6
BYLAYER
  2
coxa
 10
752.0
 20
-190.355339059327207
 30
0.0
 41
1.0
 42
-1.0
 43
1.0
 50
180.0
  0
LINE
  5
2A3
100
AcDbEntity
100
AcDbLine
  8
0
 62
256
370
-1
  6
BYLAYER
 10
666.644660940672793
 20
35.0000000000001705
 30
0.0
 11
666.6446609406726793
 21
34.0000000000000568
 31
0.0
  0
LINE
  5
2A4
100
AcDbEntity
100
AcDbLine
  8
0
 62
256
370
-1
  6
BYLAYER
 10
678.0
 20
28.0000000000001137
 30
0.0
 11
678.0
 21
31.0000000000001137
 31
0.0
  0
LINE
  5
2A5
100
AcDbEntity
100
AcDbLine
  8
0
 62
256
370
-1
  6
BYLAYER
 10
743.279144699820904
 20
31.1946609406726338
 30
0.0
 11
678.644660940672793
 21
31.1946609406728612
 31
0.0
  0
LINE
  5
2A6
100
AcDbEntity
100
AcDbLine
  8
0
 62
256
370
-1
  6
BYLAYER
 10
663.6446609406726793
 20
25.0000000000001137
 30
0.0
 11
666.6446609406725656
 21
24.9999999999998863
 31
0.0
  0
LINE
  5
2A7
100
AcDbEntity
100
AcDbLine
  8
0
 62
256
370
-1
  6
BYLAYER
 10
666.6446609406725656
 20
24.9999999999998863
 30
0.0
 11
666.6446609406726793
 21
24.0000000000000568
 31
0.0
  0
LINE
  5
2A8
100
AcDbEntity
100
AcDbLine
  8
0
 62
256
370
-1
  6
BYLAYER
 10
678.644660940672793
 20
28.0000000000002842
 30
0.0
 11
743.279144699820904
 21
28.0000000000001137
 31
0.0
  0
LINE
  5
2A9
100
AcDbEntity
100
AcDbLine
  8
0
 62
256
370
-1
  6
BYLAYER
 10
666.6446609406726793
 20
24.0000000000000568
 30
0.0
 11
663.6446609406726793
 21
24.0000000000001137
 31
0.0
  0
LINE
  5
2AA
100
AcDbEntity
100
AcDbLine
  8
0
 62
256
370
-1
  6
BYLAYER
 10
743.279144699820904
 20
28.0000000000001137
 30
0.0
 11
743.279144699820904
 21
31.1946609406726338
 31
0.0
  0
LINE
  5
2AB
100
AcDbEntity
100
AcDbLine
  8
0
 62
256
370
-1
  6
BYLAYER
 10
663.6446609406726793
 20
24.0000000000001137
 30
0.0
 11
663.6446609406726793
 21
25.0000000000001137
 31
0.0
  0
LINE
  5
2AC
100
AcDbEntity
100
AcDbLine
  8
0
 62
256
370
-1
  6
BYLAYER
 10
678.6446609406725656
 20
31.1946609406726338
 30
0.0
 11
678.6446609406726793
 21
28.0000000000000568
 31
0.0
  0
LINE
  5
2AD
100
AcDbEntity
100
AcDbLine
  8
0
 62
256
370
-1
  6
BYLAYER
 10
683.6446609406725656
 20
34.0
 30
0.0
 11
662.6446609406726793
 21
34.0
 31
0.0
  0
LINE
  5
2AE
100
AcDbEntity
100
AcDbLine
  8
0
 62
256
370
-1
  6
BYLAYER
 10
662.6446609406726793
 20
34.0
 30
0.0
 11
662.644660940672793
 21
31.1946609406728612
 31
0.0
  0
LINE
  5
2AF
100
AcDbEntity
100
AcDbLine
  8
0
 62
256
370
-1
  6
BYLAYER
 10
662.644660940672793
 20
31.1946609406728612
 30
0.0
 11
683.6446609406726793
 21
31.1946609406726907
 31
0.0
  0
LINE
  5
2B0
100
AcDbEntity
100
AcDbLine
  8
0
 62
256
370
-1
  6
BYLAYER
 10
683.6446609406726793
 20
31.1946609406726907
 30
0.0
 11
683.6446609406725656
 21
34.0
 31
0.0
  0
LINE
  5
2B1
100
AcDbEntity
100
AcDbLine
  8
0
 62
256
370
-1
  6
BYLAYER
 10
662.6446609406725656
 20
28.0
 30
0.0
 11
683.6446609406725656
 21
27.9999999999998863
 31
0.0
  0
LINE
  5
2B2
100
AcDbEntity
100
AcDbLine
  8
0
 62
256
370
-1
  6
BYLAYER
 10
683.6446609406725656
 20
27.9999999999998863
 30
0.0
 11
683.6446609406726793
 21
25.0
 31
0.0
  0
LINE
  5
2B3
100
AcDbEntity
100
AcDbLine
  8
0
 62
256
370
-1
  6
BYLAYER
 10
683.6446609406726793
 20
25.0
 30
0.0
 11
662.6446609406725656
 21
25.0
 31
0.0
  0
LINE
  5
2B4
100
AcDbEntity
100
AcDbLine
  8
0
 62
256
370
-1
  6
BYLAYER
 10
662.6446609406725656
 20
25.0
 30
0.0
 11
662.6446609406725656
 21
28.0
 31
0.0
  0
LINE
  5
2B5
100
AcDbEntity
100
AcDbLine
  8
0
 62
256
370
-1
  6
BYLAYER
 10
682.6446609406726793
 20
34.0000000000000568
 30
0.0
 11
679.6446609406725656
 21
33.9999999999999432
 31
0.0
  0
LINE
  5
2B6
100
AcDbEntity
100
AcDbLine
  8
0
 62
256
370
-1
  6
BYLAYER
 10
679.6446609406725656
 20
33.9999999999999432
 30
0.0
 11
679.644660940672793
 21
35.0000000000002274
 31
0.0
  0
LINE
  5
2B7
100
AcDbEntity
100
AcDbLine
  8
0
 62
256
370
-1
  6
BYLAYER
 10
679.644660940672793
 20
35.0000000000002274
 30
0.0
 11
682.644660940672793
 21
35.0000000000001705
 31
0.0
  0
LINE
  5
2B8
100
AcDbEntity
100
AcDbLine
  8
0
 62
256
370
-1
  6
BYLAYER
 10
682.644660940672793
 20
35.0000000000001705
 30
0.0
 11
682.6446609406726793
 21
34.0000000000000568
 31
0.0
  0
LINE
  5
2B9
100
AcDbEntity
100
AcDbLine
  8
0
 62
256
370
-1
  6
BYLAYER
 10
682.644660940672793
 20
25.0000000000002274
 30
0.0
 11
679.6446609406725656
 21
24.9999999999998863
 31
0.0
  0
LINE
  5
2BA
100
AcDbEntity
100
AcDbLine
  8
0
 62
256
370
-1
  6
BYLAYER
 10
679.6446609406725656
 20
24.9999999999998863
 30
0.0
 11
679.644660940672793
 21
24.0000000000002274
 31
0.0
  0
LINE
  5
2BB
100
AcDbEntity
100
AcDbLine
  8
0
 62
256
370
-1
  6
BYLAYER
 10
679.644660940672793
 20
24.0000000000002274
 30
0.0
 11
682.6446609406725656
 21
24.0
 31
0.0
  0
LINE
  5
2BC
100
AcDbEntity
100
AcDbLine
  8
0
 62
256
370
-1
  6
BYLAYER
 10
739.2791446998207903
 20
-78.8053390593272525
 30
0.0
 11
674.6446609406725656
 21
-78.8053390593271388
 31
0.0
  0
LINE
  5
2BD
100
AcDbEntity
100
AcDbLine
  8
0
 62
256
370
-1
  6
BYLAYER
 10
674.6446609406725656
 20
-81.9999999999998863
 30
0.0
 11
739.279144699820904
 21
-81.9999999999998863
 31
0.0
  0
LINE
  5
2BE
100
AcDbEntity
100
AcDbLine
  8
0
 62
256
370
-1
  6
BYLAYER
 10
739.279144699820904
 20
-81.9999999999998863
 30
0.0
 11
739.2791446998207903
 21
-78.8053390593272525
 31
0.0
  0
INSERT
  5
2BF
100
AcDbEntity
100
AcDbBlockReference
  8
0
 62
256
370
-1
  6
BYLAYER
  2
abdomen
 10
280.0
 20
-447.0
 30
0.0
  0
INSERT
  5
2C0
100
AcDbEntity
100
AcDbBlockReference
  8
0
 62
256
370
-1
  6
BYLAYER
  2
jaw
 10
790.0
 20
-250.0
 30
0.0
  0
INSERT
  5
2C1
100
AcDbEntity
100
AcDbBlockReference
  8
0
 62
256
370
-1
  6
BYLAYER
  2
jaw
 10
810.0
 20
-250.0
 30
0.0
 41
1.0
 42
-1.0
 43
1.0
 50
180.0
  0
INSERT
  5
2C2
100
AcDbEntity
100
AcDbBlockReference
  8
0
 62
256
370
-1
  6
BYLAYER
  2
head
 10
89.9999999999999858
 20
36.9999999999998863
 30
0.0
 50
180.0
  0
INSERT
  5
2C3
100
AcDbEntity
100
AcDbBlockReference
  8
0
 62
256
370
-1
  6
BYLAYER
  2
jaw
 10
57.1552265382135971
 20
91.6805233710188645
 30
0.0
  0
INSERT
  5
2C4
100
AcDbEntity
100
AcDbBlockReference
  8
0
 62
256
370
-1
  6
BYLAYER
  2
jaw
 10
180.8711416294653986
 20
37.5347254436539828
 30
0.0
 50
229.9999999999999716
  0
LINE
  5
2C5
100
AcDbEntity
100
AcDbLine
  8
0
 62
256
370
-1
  6
BYLAYER
 10
796.0
 20
-254.0
 30
0.0
 11
800.0499999999998408
 21
-212.9999999999998579
 31
0.0
  0
LINE
  5
2C6
100
AcDbEntity
100
AcDbLine
  8
0
 62
256
370
-1
  6
BYLAYER
 10
800.0499999999998408
 20
-212.9999999999998579
 30
0.0
 11
804.0
 21
-254.0
 31
0.0
  0
ENDSEC
  0
SECTION
  2
OBJECTS
  0
DICTIONARY
  5
C
100
AcDbDictionary
280
0
281
1
  3
ACAD_GROUP
350
D
  3
ACAD_LAYOUT
350
1A
  3
ACAD_MLINESTYLE
350
17
  3
ACAD_PLOTSETTINGS
350
19
  3
ACAD_PLOTSTYLENAME
350
E
  3
AcDbVariableDictionary
350
2C7
  3
QCAD_OBJECTS
350
2C8
  0
DICTIONARY
  5
D
100
AcDbDictionary
280
0
281
1
  0
ACDBDICTIONARYWDFLT
  5
E
100
AcDbDictionary
281
1
  3
Normal
350
F
100
AcDbDictionaryWithDefault
340
F
  0
ACDBPLACEHOLDER
  5
F
  0
DICTIONARY
  5
17
100
AcDbDictionary
280
0
281
1
  3
Standard
350
18
  0
MLINESTYLE
  5
18
100
AcDbMlineStyle
  2
STANDARD
 70
0
  3

 62
256
 51
90.0
 52
90.0
 71
2
 49
0.5
 62
256
  6
BYLAYER
 49
-0.5
 62
256
  6
BYLAYER
  0
DICTIONARY
  5
19
100
AcDbDictionary
280
0
281
1
  0
DICTIONARY
  5
1A
100
AcDbDictionary
281
1
  3
Layout1
350
1E
  3
Layout2
350
26
  3
Model
350
22
  0
LAYOUT
  5
1E
100
AcDbPlotSettings
  1

  2
none_device
  4

  6

 40
0.0
 41
0.0
 42
0.0
 43
0.0
 44
0.0
 45
0.0
 46
0.0
 47
0.0
 48
0.0
 49
0.0
140
0.0
141
0.0
142
1.0
143
1.0
 70
688
 72
0
 73
0
 74
5
  7

 75
16
147
1.0
148
0.0
149
0.0
100
AcDbLayout
  1
Layout1
 70
1
 71
1
 10
0.0
 20
0.0
 11
420.0
 21
297.0
 12
0.0
 22
0.0
 32
0.0
 14
100000000000000000000.0
 24
100000000000000000000.0
 34
100000000000000000000.0
 15
-100000000000000000000.0
 25
-100000000000000000000.0
 35
-100000000000000000000.0
146
0.0
 13
0.0
 23
0.0
 33
0.0
 16
1.0
 26
0.0
 36
0.0
 17
0.0
 27
1.0
 37
0.0
 76
0
330
1B
  0
LAYOUT
  5
22
100
AcDbPlotSettings
  1

  2
none_device
  4

  6

 40
0.0
 41
0.0
 42
0.0
 43
0.0
 44
0.0
 45
0.0
 46
0.0
 47
0.0
 48
0.0
 49
0.0
140
0.0
141
0.0
142
1.0
143
1.0
 70
1712
 72
0
 73
0
 74
0
  7

 75
0
147
1.0
148
0.0
149
0.0
100
AcDbLayout
  1
Model
 70
1
 71
0
 10
0.0
 20
0.0
 11
12.0
 21
9.0
 12
0.0
 22
0.0
 32
0.0
 14
0.0
 24
0.0
 34
0.0
 15
0.0
 25
0.0
 35
0.0
146
0.0
 13
0.0
 23
0.0
 33
0.0
 16
1.0
 26
0.0
 36
0.0
 17
0.0
 27
1.0
 37
0.0
 76
0
330
1F
  0
LAYOUT
  5
26
100
AcDbPlotSettings
  1

  2
none_device
  4

  6

 40
0.0
 41
0.0
 42
0.0
 43
0.0
 44
0.0
 45
0.0
 46
0.0
 47
0.0
 48
0.0
 49
0.0
140
0.0
141
0.0
142
1.0
143
1.0
 70
688
 72
0
 73
0
 74
5
  7

 75
16
147
1.0
148
0.0
149
0.0
100
AcDbLayout
  1
Layout2
 70
1
 71
2
 10
0.0
 20
0.0
 11
12.0
 21
9.0
 12
0.0
 22
0.0
 32
0.0
 14
0.0
 24
0.0
 34
0.0
 15
0.0
 25
0.0
 35
0.0
146
0.0
 13
0.0
 23
0.0
 33
0.0
 16
1.0
 26
0.0
 36
0.0
 17
0.0
 27
1.0
 37
0.0
 76
0
330
23
  0
DICTIONARY
  5
2C7
100
AcDbDictionary
281
1
  3
DIMASSOC
350
2CA
  3
HIDETEXT
350
2C9
  0
DICTIONARYVAR
  5
2C9
100
DictionaryVariables
280
0
  1
2
  0
DICTIONARYVAR
  5
2CA
100
DictionaryVariables
280
0
  1
1
  0
DICTIONARY
  5
2C8
100
AcDbDictionary
281
1
  3
Grid/DisplayGrid00
350
2CB
  3
Grid/DisplayGrid01
350
2CC
  3
Grid/DisplayGrid02
350
2CD
  3
Grid/DisplayGrid03
350
2CE
  3
Grid/GridSpacingX00
350
2CF
  3
Grid/GridSpacingX01
350
2D0
  3
Grid/GridSpacingX02
350
2D1
  3
Grid/GridSpacingX03
350
2D2
  3
Grid/GridSpacingY00
350
2D3
  3
Grid/GridSpacingY01
350
2D4
  3
Grid/GridSpacingY02
350
2D5
  3
Grid/GridSpacingY03
350
2D6
  3
Grid/IsometricGrid00
350
2D7
  3
Grid/IsometricGrid01
350
2D8
  3
Grid/IsometricGrid02
350
2D9
  3
Grid/IsometricGrid03
350
2DA
  3
Grid/IsometricProjection00
350
2DB
  3
Grid/IsometricProjection01
350
2DC
  3
Grid/IsometricProjection02
350
2DD
  3
Grid/IsometricProjection03
350
2DE
  3
Grid/MetaGridSpacingX00
350
2DF
  3
Grid/MetaGridSpacingX01
350
2E0
  3
Grid/MetaGridSpacingX02
350
2E1
  3
Grid/MetaGridSpacingX03
350
2E2
  3
Grid/MetaGridSpacingY00
350
2E3
  3
Grid/MetaGridSpacingY01
350
2E4
  3
Grid/MetaGridSpacingY02
350
2E5
  3
Grid/MetaGridSpacingY03
350
2E6
  3
MultiPageSettings/Columns
350
2E7
  3
MultiPageSettings/GlueMarginsBottom
350
2E8
  3
MultiPageSettings/GlueMarginsLeft
350
2E9
  3
MultiPageSettings/GlueMarginsRight
350
2EA
  3
MultiPageSettings/GlueMarginsTop
350
2EB
  3
MultiPageSettings/PrintCropMarks
350
2EC
  3
MultiPageSettings/Rows
350
2ED
  3
PageSettings/OffsetX
350
2EE
  3
PageSettings/OffsetY
350
2EF
  3
PageSettings/PageOrientation
350
2F0
  3
PageSettings/PaperHeight
350
2F1
  3
PageSettings/PaperWidth
350
2F2
  3
PageSettings/Scale
350
2F3
  3
PageSettings/ShowPaperBorders
350
2F4
  3
UnitSettings/PaperUnit
350
2F5
  0
XRECORD
  5
2CB
330
2C8
100
AcDbXrecord
280
1
290
1
  0
XRECORD
  5
2CC
330
2C8
100
AcDbXrecord
280
1
290
1
  0
XRECORD
  5
2CD
330
2C8
100
AcDbXrecord
280
1
290
1
  0
XRECORD
  5
2CE
330
2C8
100
AcDbXrecord
280
1
290
1
  0
XRECORD
  5
2CF
330
2C8
100
AcDbXrecord
280
1
1000
auto
  0
XRECORD
  5
2D0
330
2C8
100
AcDbXrecord
280
1
1000
auto
  0
XRECORD
  5
2D1
330
2C8
100
AcDbXrecord
280
1
1000
auto
  0
XRECORD
  5
2D2
330
2C8
100
AcDbXrecord
280
1
1000
auto
  0
XRECORD
  5
2D3
330
2C8
100
AcDbXrecord
280
1
1000
auto
  0
XRECORD
  5
2D4
330
2C8
100
AcDbXrecord
280
1
1000
auto
  0
XRECORD
  5
2D5
330
2C8
100
AcDbXrecord
280
1
1000
auto
  0
XRECORD
  5
2D6
330
2C8
100
AcDbXrecord
280
1
1000
auto
  0
XRECORD
  5
2D7
330
2C8
100
AcDbXrecord
280
1
290
0
  0
XRECORD
  5
2D8
330
2C8
100
AcDbXrecord
280
1
290
0
  0
XRECORD
  5
2D9
330
2C8
100
AcDbXrecord
280
1
290
0
  0
XRECORD
  5
2DA
330
2C8
100
AcDbXrecord
280
1
290
0
  0
XRECORD
  5
2DB
330
2C8
100
AcDbXrecord
280
1
 90
0
  0
XRECORD
  5
2DC
330
2C8
100
AcDbXrecord
280
1
 90
0
  0
XRECORD
  5
2DD
330
2C8
100
AcDbXrecord
280
1
 90
0
  0
XRECORD
  5
2DE
330
2C8
100
AcDbXrecord
280
1
 90
0
  0
XRECORD
  5
2DF
330
2C8
100
AcDbXrecord
280
1
1000
auto
  0
XRECORD
  5
2E0
330
2C8
100
AcDbXrecord
280
1
1000
auto
  0
XRECORD
  5
2E1
330
2C8
100
AcDbXrecord
280
1
1000
auto
  0
XRECORD
  5
2E2
330
2C8
100
AcDbXrecord
280
1
1000
auto
  0
XRECORD
  5
2E3
330
2C8
100
AcDbXrecord
280
1
1000
auto
  0
XRECORD
  5
2E4
330
2C8
100
AcDbXrecord
280
1
1000
auto
  0
XRECORD
  5
2E5
330
2C8
100
AcDbXrecord
280
1
1000
auto
  0
XRECORD
  5
2E6
330
2C8
100
AcDbXrecord
280
1
1000
auto
  0
XRECORD
  5
2E7
330
2C8
100
AcDbXrecord
280
1
 90
1
  0
XRECORD
  5
2E8
330
2C8
100
AcDbXrecord
280
1
 40
10.0
  0
XRECORD
  5
2E9
330
2C8
100
AcDbXrecord
280
1
 40
10.0
  0
XRECORD
  5
2EA
330
2C8
100
AcDbXrecord
280
1
 40
10.0
  0
XRECORD
  5
2EB
330
2C8
100
AcDbXrecord
280
1
 40
10.0
  0
XRECORD
  5
2EC
330
2C8
100
AcDbXrecord
280
1
290
0
  0
XRECORD
  5
2ED
330
2C8
100
AcDbXrecord
280
1
 90
1
  0
XRECORD
  5
2EE
330
2C8
100
AcDbXrecord
280
1
 40
324.18055790579308
  0
XRECORD
  5
2EF
330
2C8
100
AcDbXrecord
280
1
 40
-130.7987191998288097
  0
XRECORD
  5
2F0
330
2C8
100
AcDbXrecord
280
1
1000
Portrait
  0
XRECORD
  5
2F1
330
2C8
100
AcDbXrecord
280
1
 40
279.3999999999999773
  0
XRECORD
  5
2F2
330
2C8
100
AcDbXrecord
280
1
 40
215.9000000000000057
  0
XRECORD
  5
2F3
330
2C8
100
AcDbXrecord
280
1
1000
1:1
  0
XRECORD
  5
2F4
330
2C8
100
AcDbXrecord
280
1
290
1
  0
XRECORD
  5
2F5
330
2C8
100
AcDbXrecord
280
1
 90
4
  0
ENDSEC
  0
EOF
