999
dxflib 3.3.4.0
  0
SECTION
  2
HEADER
  9
$ACADVER
  1
AC1015
  9
$HANDSEED
  5
FFFF
  9
$DIMADEC
 70
0
  9
$DIMASZ
 40
2.5
  9
$DIMAUNIT
 70
0
  9
$DIMAZIN
 70
2
  9
$DIMDEC
 70
4
  9
$DIMEXE
 40
1.25
  9
$DIMEXO
 40
0.625
  9
$DIMGAP
 40
0.625
  9
$DIMLUNIT
 70
2
  9
$DIMTSZ
 40
0.0
  9
$DIMTXT
 40
2.5
  9
$DIMZIN
 70
8
  9
$DWGCODEPAGE
  3
ANSI_1252
  9
$INSUNITS
 70
4
  9
$LTSCALE
 40
1.0
  0
ENDSEC
  0
SECTION
  2
TABLES
  0
TABLE
  2
VPORT
  5
8
100
AcDbSymbolTable
 70
1
  0
VPORT
  5
30
100
AcDbSymbolTableRecord
100
AcDbViewportTableRecord
  2
*Active
 70
0
 10
0.0
 20
0.0
 11
1.0
 21
1.0
 12
286.3055555555554861
 22
148.5
 13
0.0
 23
0.0
 14
10.0
 24
10.0
 15
10.0
 25
10.0
 16
0.0
 26
0.0
 36
1.0
 17
0.0
 27
0.0
 37
0.0
 40
297.0
 41
1.92798353909465
 42
50.0
 43
0.0
 44
0.0
 50
0.0
 51
0.0
 71
0
 72
100
 73
1
 74
3
 75
1
 76
1
 77
0
 78
0
281
0
 65
1
110
0.0
120
0.0
130
0.0
111
1.0
121
0.0
131
0.0
112
0.0
122
1.0
132
0.0
 79
0
146
0.0
  0
ENDTAB
  0
TABLE
  2
LTYPE
  5
5
100
AcDbSymbolTable
 70
21
  0
LTYPE
  5
16
100
AcDbSymbolTableRecord
100
AcDbLinetypeTableRecord
  2
CONTINUOUS
 70
0
  3
Solid line
 72
65
 73
0
 40
0.0
  0
LTYPE
  5
31
100
AcDbSymbolTableRecord
100
AcDbLinetypeTableRecord
  2
CENTER2
 70
0
  3
Center (.5x) ___ _ ___ _ ___ _ ___ _ ___ _ ___
 72
65
 73
4
 40
28.5749999999999993
 49
19.0500000000000007
 74
0
 49
-3.1749999999999998
 74
0
 49
3.1749999999999998
 74
0
 49
-3.1749999999999998
 74
0
  0
LTYPE
  5
32
100
AcDbSymbolTableRecord
100
AcDbLinetypeTableRecord
  2
DIVIDEX2
 70
0
  3
Divide (2x) ________  .  .  ________  .  .  _
 72
65
 73
6
 40
63.5
 49
25.3999999999999986
 74
0
 49
-12.6999999999999993
 74
0
 49
0.0
 74
0
 49
-12.6999999999999993
 74
0
 49
0.0
 74
0
 49
-12.6999999999999993
 74
0
  0
LTYPE
  5
33
100
AcDbSymbolTableRecord
100
AcDbLinetypeTableRecord
  2
DOT2
 70
0
  3
Dot (.5x) .....................................
 72
65
 73
2
 40
3.1749999999999998
 49
0.0
 74
0
 49
-3.1749999999999998
 74
0
  0
LTYPE
  5
34
100
AcDbSymbolTableRecord
100
AcDbLinetypeTableRecord
  2
DASHDOT2
 70
0
  3
Dash dot (.5x) _._._._._._._._._._._._._._._.
 72
65
 73
4
 40
12.6999999999999993
 49
6.3499999999999996
 74
0
 49
-3.1749999999999998
 74
0
 49
0.0
 74
0
 49
-3.1749999999999998
 74
0
  0
LTYPE
  5
35
100
AcDbSymbolTableRecord
100
AcDbLinetypeTableRecord
  2
DIVIDE
 70
0
  3
Divide ____ . . ____ . . ____ . . ____ . . ____
 72
65
 73
6
 40
31.75
 49
12.6999999999999993
 74
0
 49
-6.3499999999999996
 74
0
 49
0.0
 74
0
 49
-6.3499999999999996
 74
0
 49
0.0
 74
0
 49
-6.3499999999999996
 74
0
  0
LTYPE
  5
36
100
AcDbSymbolTableRecord
100
AcDbLinetypeTableRecord
  2
DASHDOT
 70
0
  3
Dash dot __ . __ . __ . __ . __ . __ . __ . __
 72
65
 73
4
 40
25.3999999999999986
 49
12.6999999999999993
 74
0
 49
-6.3499999999999996
 74
0
 49
0.0
 74
0
 49
-6.3499999999999996
 74
0
  0
LTYPE
  5
37
100
AcDbSymbolTableRecord
100
AcDbLinetypeTableRecord
  2
BORDER
 70
0
  3
Border __ __ . __ __ . __ __ . __ __ . __ __ .
 72
65
 73
6
 40
44.4500000000000028
 49
12.6999999999999993
 74
0
 49
-6.3499999999999996
 74
0
 49
12.6999999999999993
 74
0
 49
-6.3499999999999996
 74
0
 49
0.0
 74
0
 49
-6.3499999999999996
 74
0
  0
LTYPE
  5
38
100
AcDbSymbolTableRecord
100
AcDbLinetypeTableRecord
  2
DASHDOTX2
 70
0
  3
Dash dot (2x) ____  .  ____  .  ____  .  ___
 72
65
 73
4
 40
50.7999999999999972
 49
25.3999999999999986
 74
0
 49
-12.6999999999999993
 74
0
 49
0.0
 74
0
 49
-12.6999999999999993
 74
0
  0
LTYPE
  5
39
100
AcDbSymbolTableRecord
100
AcDbLinetypeTableRecord
  2
CENTERX2
 70
0
  3
Center (2x) ________  __  ________  __  _____
 72
65
 73
4
 40
101.5999999999999943
 49
63.5
 74
0
 49
-12.6999999999999993
 74
0
 49
12.6999999999999993
 74
0
 49
-12.6999999999999993
 74
0
  0
LTYPE
  5
3A
100
AcDbSymbolTableRecord
100
AcDbLinetypeTableRecord
  2
BORDER2
 70
0
  3
Border (.5x) __.__.__.__.__.__.__.__.__.__.__.
 72
65
 73
6
 40
22.2250000000000014
 49
6.3499999999999996
 74
0
 49
-3.1749999999999998
 74
0
 49
6.3499999999999996
 74
0
 49
-3.1749999999999998
 74
0
 49
0.0
 74
0
 49
-3.1749999999999998
 74
0
  0
LTYPE
  5
3B
100
AcDbSymbolTableRecord
100
AcDbLinetypeTableRecord
  2
BORDERX2
 70
0
  3
Border (2x) ____  ____  .  ____  ____  .  ___
 72
65
 73
6
 40
88.9000000000000057
 49
25.3999999999999986
 74
0
 49
-12.6999999999999993
 74
0
 49
25.3999999999999986
 74
0
 49
-12.6999999999999993
 74
0
 49
0.0
 74
0
 49
-12.6999999999999993
 74
0
  0
LTYPE
  5
14
100
AcDbSymbolTableRecord
100
AcDbLinetypeTableRecord
  2
BYBLOCK
 70
0
  3

 72
65
 73
0
 40
0.0
  0
LTYPE
  5
15
100
AcDbSymbolTableRecord
100
AcDbLinetypeTableRecord
  2
BYLAYER
 70
0
  3

 72
65
 73
0
 40
0.0
  0
LTYPE
  5
3C
100
AcDbSymbolTableRecord
100
AcDbLinetypeTableRecord
  2
DASHED2
 70
0
  3
Dashed (.5x) _ _ _ _ _ _ _ _ _ _ _ _ _ _ _ _ _
 72
65
 73
2
 40
9.5250000000000004
 49
6.3499999999999996
 74
0
 49
-3.1749999999999998
 74
0
  0
LTYPE
  5
3D
100
AcDbSymbolTableRecord
100
AcDbLinetypeTableRecord
  2
CENTER
 70
0
  3
Center ____ _ ____ _ ____ _ ____ _ ____ _ ____
 72
65
 73
4
 40
50.7999999999999972
 49
31.75
 74
0
 49
-6.3499999999999996
 74
0
 49
6.3499999999999996
 74
0
 49
-6.3499999999999996
 74
0
  0
LTYPE
  5
3E
100
AcDbSymbolTableRecord
100
AcDbLinetypeTableRecord
  2
DIVIDE2
 70
0
  3
Divide (.5x) __..__..__..__..__..__..__..__.._
 72
65
 73
6
 40
15.875
 49
6.3499999999999996
 74
0
 49
-3.1749999999999998
 74
0
 49
0.0
 74
0
 49
-3.1749999999999998
 74
0
 49
0.0
 74
0
 49
-3.1749999999999998
 74
0
  0
LTYPE
  5
3F
100
AcDbSymbolTableRecord
100
AcDbLinetypeTableRecord
  2
DASHED
 70
0
  3
Dashed __ __ __ __ __ __ __ __ __ __ __ __ __ _
 72
65
 73
2
 40
19.0500000000000007
 49
12.6999999999999993
 74
0
 49
-6.3499999999999996
 74
0
  0
LTYPE
  5
40
100
AcDbSymbolTableRecord
100
AcDbLinetypeTableRecord
  2
DOTX2
 70
0
  3
Dot (2x) .  .  .  .  .  .  .  .  .  .  .  .  .
 72
65
 73
2
 40
12.6999999999999993
 49
0.0
 74
0
 49
-12.6999999999999993
 74
0
  0
LTYPE
  5
41
100
AcDbSymbolTableRecord
100
AcDbLinetypeTableRecord
  2
DASHEDX2
 70
0
  3
Dashed (2x) ____  ____  ____  ____  ____  ___
 72
65
 73
2
 40
38.1000000000000014
 49
25.3999999999999986
 74
0
 49
-12.6999999999999993
 74
0
  0
LTYPE
  5
42
100
AcDbSymbolTableRecord
100
AcDbLinetypeTableRecord
  2
DOT
 70
0
  3
Dot . . . . . . . . . . . . . . . . . . . . . .
 72
65
 73
2
 40
6.3499999999999996
 49
0.0
 74
0
 49
-6.3499999999999996
 74
0
  0
ENDTAB
  0
TABLE
  2
LAYER
  5
2
100
AcDbSymbolTable
 70
1
  0
LAYER
  5
10
100
AcDbSymbolTableRecord
100
AcDbLayerTableRecord
  2
0
 70
0
 62
7
420
0
  6
CONTINUOUS
370
25
390
F
  0
ENDTAB
  0
TABLE
  2
STYLE
  5
3
100
AcDbSymbolTable
 70
1
  0
STYLE
  5
43
100
AcDbSymbolTableRecord
100
AcDbTextStyleTableRecord
  2
Standard
 70
0
 40
0.0
 41
1.0
 50
0.0
 71
0
 42
2.5
  3

  4

1001
ACAD
1000
txt
1071
0
  0
ENDTAB
  0
TABLE
  2
VIEW
  5
6
100
AcDbSymbolTable
 70
0
  0
ENDTAB
  0
TABLE
  2
UCS
  5
7
100
AcDbSymbolTable
 70
0
  0
ENDTAB
  0
TABLE
  2
APPID
  5
9
100
AcDbSymbolTable
 70
1
  0
APPID
  5
12
100
AcDbSymbolTableRecord
100
AcDbRegAppTableRecord
  2
ACAD
 70
0
  0
APPID
  5
44
100
AcDbSymbolTableRecord
100
AcDbRegAppTableRecord
  2
QCAD
 70
0
  0
ENDTAB
  0
TABLE
  2
DIMSTYLE
  5
A
100
AcDbSymbolTable
 70
1
100
AcDbDimStyleTable
 71
0
  0
DIMSTYLE
105
27
100
AcDbSymbolTableRecord
100
AcDbDimStyleTableRecord
  2
Standard
 41
2.5
 42
0.625
 43
3.75
 44
1.25
 70
0
 73
0
 74
0
 77
1
 78
8
140
2.5
141
2.5
143
0.03937007874016
147
0.625
171
3
172
1
271
2
272
2
274
3
278
44
283
0
284
8
340
43
  0
ENDTAB
  0
TABLE
  2
BLOCK_RECORD
  5
1
100
AcDbSymbolTable
 70
1
  0
BLOCK_RECORD
  5
1F
100
AcDbSymbolTableRecord
100
AcDbBlockTableRecord
  2
*Model_Space
340
22
  0
BLOCK_RECORD
  5
1B
100
AcDbSymbolTableRecord
100
AcDbBlockTableRecord
  2
*Paper_Space
340
1E
  0
BLOCK_RECORD
  5
23
100
AcDbSymbolTableRecord
100
AcDbBlockTableRecord
  2
*Paper_Space0
340
26
  0
BLOCK_RECORD
  5
45
100
AcDbSymbolTableRecord
100
AcDbBlockTableRecord
  2
coxa
340
0
  0
BLOCK_RECORD
  5
46
100
AcDbSymbolTableRecord
100
AcDbBlockTableRecord
  2
abdomen
340
0
  0
BLOCK_RECORD
  5
47
100
AcDbSymbolTableRecord
100
AcDbBlockTableRecord
  2
control_pcb
340
0
  0
BLOCK_RECORD
  5
48
100
AcDbSymbolTableRecord
100
AcDbBlockTableRecord
  2
tibia_front
340
0
  0
BLOCK_RECORD
  5
49
100
AcDbSymbolTableRecord
100
AcDbBlockTableRecord
  2
thorax_botom
340
0
  0
BLOCK_RECORD
  5
4A
100
AcDbSymbolTableRecord
100
AcDbBlockTableRecord
  2
tibia_middle
340
0
  0
BLOCK_RECORD
  5
4B
100
AcDbSymbolTableRecord
100
AcDbBlockTableRecord
  2
head
340
0
  0
BLOCK_RECORD
  5
4C
100
AcDbSymbolTableRecord
100
AcDbBlockTableRecord
  2
thorax_top
340
0
  0
BLOCK_RECORD
  5
4D
100
AcDbSymbolTableRecord
100
AcDbBlockTableRecord
  2
jaw
340
0
  0
BLOCK_RECORD
  5
4E
100
AcDbSymbolTableRecord
100
AcDbBlockTableRecord
  2
femur_tibia
340
0
  0
BLOCK_RECORD
  5
4F
100
AcDbSymbolTableRecord
100
AcDbBlockTableRecord
  2
femur
340
0
  0
BLOCK_RECORD
  5
50
100
AcDbSymbolTableRecord
100
AcDbBlockTableRecord
  2
tibia_rear
340
0
  0
BLOCK_RECORD
  5
51
100
AcDbSymbolTableRecord
100
AcDbBlockTableRecord
  2
femur_tibia_control
340
0
  0
BLOCK_RECORD
  5
52
100
AcDbSymbolTableRecord
100
AcDbBlockTableRecord
  2
servo_mount
340
0
  0
BLOCK_RECORD
  5
53
100
AcDbSymbolTableRecord
100
AcDbBlockTableRecord
  2
servo_top
340
0
  0
ENDTAB
  0
ENDSEC
  0
SECTION
  2
BLOCKS
  0
BLOCK
  5
20
100
AcDbEntity
  8
0
100
AcDbBlockBegin
  2
*Model_Space
 70
0
 10
0.0
 20
0.0
 30
0.0
  3
*Model_Space
  1

  0
ENDBLK
  5
21
100
AcDbEntity
  8
0
100
AcDbBlockEnd
  0
BLOCK
  5
1C
100
AcDbEntity
 67
1
  8
0
100
AcDbBlockBegin
  2
*Paper_Space
 70
0
 10
0.0
 20
0.0
 30
0.0
  3
*Paper_Space
  1

  0
ENDBLK
  5
1D
100
AcDbEntity
 67
1
  8
0
100
AcDbBlockEnd
  0
BLOCK
  5
24
100
AcDbEntity
  8
0
100
AcDbBlockBegin
  2
*Paper_Space0
 70
0
 10
0.0
 20
0.0
 30
0.0
  3
*Paper_Space0
  1

  0
ENDBLK
  5
25
100
AcDbEntity
  8
0
100
AcDbBlockEnd
  0
BLOCK
  5
54
100
AcDbEntity
  8
0
100
AcDbBlockBegin
  2
coxa
 70
0
 10
0.0
 20
0.0
 30
0.0
  3
coxa
  1

  0
LINE
  5
55
100
AcDbEntity
100
AcDbLine
  8
0
 62
256
370
-1
  6
BYLAYER
 10
-25.0
 20
8.6602540378443855
 30
0.0
 11
-10.0000000000000036
 21
17.320508075688771
 31
0.0
  0
LINE
  5
56
100
AcDbEntity
100
AcDbLine
  8
0
 62
256
370
-1
  6
BYLAYER
 10
-25.0
 20
-8.6602540378443855
 30
0.0
 11
-10.0000000000000036
 21
-17.320508075688771
 31
0.0
  0
ARC
  5
57
100
AcDbEntity
  8
0
 62
256
370
-1
  6
BYLAYER
100
AcDbCircle
 10
0.0
 20
0.0
 30
0.0
 40
20.0
100
AcDbArc
 50
240.0
 51
322.5522573840717087
  0
ARC
  5
58
100
AcDbEntity
  8
0
 62
256
370
-1
  6
BYLAYER
100
AcDbCircle
 10
-20.0
 20
0.0
 30
0.0
 40
10.0
100
AcDbArc
 50
120.0000000000000142
 51
240.0
  0
ARC
  5
59
100
AcDbEntity
  8
0
 62
256
370
-1
  6
BYLAYER
100
AcDbCircle
 10
0.0
 20
0.0
 30
0.0
 40
20.0
100
AcDbArc
 50
37.4477426159282842
 51
120.0000000000000142
  0
CIRCLE
  5
5A
100
AcDbEntity
100
AcDbCircle
  8
0
 62
256
370
-1
  6
BYLAYER
 10
-24.0
 20
0.0
 30
0.0
 40
1.75
  0
LINE
  5
5B
100
AcDbEntity
100
AcDbLine
  8
0
 62
256
370
-1
  6
BYLAYER
 10
23.4999999999999929
 20
-1.5500000000000007
 30
0.0
 11
37.8791446998209267
 21
-1.5500000000000007
 31
0.0
  0
LINE
  5
5C
100
AcDbEntity
100
AcDbLine
  8
0
 62
256
370
-1
  6
BYLAYER
 10
37.8791446998209267
 20
1.5500000000000007
 30
0.0
 11
23.4999999999999929
 21
1.5500000000000007
 31
0.0
  0
LINE
  5
5D
100
AcDbEntity
100
AcDbLine
  8
0
 62
256
370
-1
  6
BYLAYER
 10
23.4999999999999929
 20
1.5500000000000007
 30
0.0
 11
23.4999999999999929
 21
-1.5500000000000007
 31
0.0
  0
LINE
  5
5E
100
AcDbEntity
100
AcDbLine
  8
0
 62
256
370
-1
  6
BYLAYER
 10
37.8791446998209338
 20
1.5500000000000007
 30
0.0
 11
37.8999244902597283
 21
4.4787149644136575
 31
0.0
  0
LINE
  5
5F
100
AcDbEntity
100
AcDbLine
  8
0
 62
256
370
-1
  6
BYLAYER
 10
37.8791446998209338
 20
-1.5500000000000007
 30
0.0
 11
37.9973752575854107
 21
-4.3745346055089627
 31
0.0
  0
ARC
  5
60
100
AcDbEntity
  8
0
 62
256
370
-1
  6
BYLAYER
100
AcDbCircle
 10
34.8999999999999986
 20
4.5
 30
0.0
 40
3.0
100
AcDbArc
 50
359.5934823540276284
 51
90.0
  0
ARC
  5
61
100
AcDbEntity
  8
0
 62
256
370
-1
  6
BYLAYER
100
AcDbCircle
 10
35.0
 20
-4.5
 30
0.0
 40
3.0
100
AcDbArc
 50
272.8676750144844618
 51
2.3969115978229514
  0
ARC
  5
62
100
AcDbEntity
  8
0
 62
256
370
-1
  6
BYLAYER
100
AcDbCircle
 10
26.0
 20
28.0
 30
0.0
 40
20.0
100
AcDbArc
 50
257.3922478057433523
 51
267.7016582367481305
  0
ARC
  5
63
100
AcDbEntity
  8
0
 62
256
370
-1
  6
BYLAYER
100
AcDbCircle
 10
9.4557062154893181
 20
-384.2144655207142705
 30
0.0
 40
392.5463358719309781
100
AcDbArc
 50
86.2549009735848813
 51
87.7016582367481021
  0
ARC
  5
64
100
AcDbEntity
  8
0
 62
256
370
-1
  6
BYLAYER
100
AcDbCircle
 10
9.4557062154893181
 20
-384.2144655207142705
 30
0.0
 40
392.5463358719309781
100
AcDbArc
 50
86.8559093416140939
 51
87.7016582367481021
  0
ARC
  5
65
100
AcDbEntity
  8
0
 62
256
370
-1
  6
BYLAYER
100
AcDbCircle
 10
26.0
 20
-28.0
 30
0.0
 40
20.0
100
AcDbArc
 50
93.0966459647808193
 51
102.6077521942566619
  0
ARC
  5
66
100
AcDbEntity
  8
0
 62
256
370
-1
  6
BYLAYER
100
AcDbCircle
 10
163.4204204278601651
 20
-2568.1806983102414961
 30
0.0
 40
2563.8951141936754539
100
AcDbArc
 50
92.8676750144845187
 51
93.0966077307098914
  0
ARC
  5
67
100
AcDbEntity
  8
0
 62
256
370
-1
  6
BYLAYER
100
AcDbCircle
 10
23.8172471778029653
 20
18.2411276206115325
 30
0.0
 40
10.0
100
AcDbArc
 50
217.4477426159282629
 51
257.3922478057433523
  0
ARC
  5
68
100
AcDbEntity
  8
0
 62
256
370
-1
  6
BYLAYER
100
AcDbCircle
 10
23.8172471778029653
 20
-18.2411276206115325
 30
0.0
 40
10.0
100
AcDbArc
 50
102.6077521942566619
 51
142.5522573840717371
  0
DIMENSION
  5
69
100
AcDbEntity
  8
0
 62
256
370
-1
  6
BYLAYER
100
AcDbDimension
 10
-18.0
 20
1.7499999999999984
 30
0.0
 11
-14.0
 21
0.0
 31
0.0
 70
129
 71
8
 72
2
 41
1.0
 42
0.0
  1
9/64"
  3
Standard
100
AcDbAlignedDimension
 13
-24.0
 23
1.75
 33
0.0
 14
-24.0
 24
-1.75
 34
0.0
1001
ACAD
1000
DSTYLE
1002
{
1070
144
1040
1
1002
}
  0
INSERT
  5
6A
100
AcDbEntity
100
AcDbBlockReference
  8
0
 62
256
370
-1
  6
BYLAYER
  2
servo_mount
 10
0.0
 20
0.0
 30
0.0
  0
ENDBLK
  5
6B
100
AcDbEntity
  8
0
100
AcDbBlockEnd
  0
BLOCK
  5
6C
100
AcDbEntity
  8
0
100
AcDbBlockBegin
  2
abdomen
 70
0
 10
0.0
 20
0.0
 30
0.0
  3
abdomen
  1

  0
ARC
  5
6D
100
AcDbEntity
  8
0
 62
256
370
-1
  6
BYLAYER
100
AcDbCircle
 10
-79.3725393319377304
 20
-3.0
 30
0.0
 40
60.0
100
AcDbArc
 50
7.1807557814582594
 51
48.5903778907291155
  0
ARC
  5
6E
100
AcDbEntity
  8
0
 62
256
370
-1
  6
BYLAYER
100
AcDbCircle
 10
79.3725393319377304
 20
-3.0
 30
0.0
 40
60.0
100
AcDbArc
 50
131.4096221092708561
 51
172.8192442185415985
  0
ARC
  5
6F
100
AcDbEntity
  8
0
 62
256
370
-1
  6
BYLAYER
100
AcDbCircle
 10
0.0
 20
7.0
 30
0.0
 40
20.0
100
AcDbArc
 50
187.1807557814582879
 51
352.8192442185416553
  0
ARC
  5
70
100
AcDbEntity
  8
0
 62
256
370
-1
  6
BYLAYER
100
AcDbCircle
 10
42.8868035370266369
 20
105.2435617070770206
 30
0.0
 40
104.0099058531640139
100
AcDbArc
 50
114.3515273309540987
 51
217.4488732782756983
  0
ARC
  5
71
100
AcDbEntity
  8
0
 62
256
370
-1
  6
BYLAYER
100
AcDbCircle
 10
-42.8868035370266298
 20
105.2435617070770206
 30
0.0
 40
104.0099058531640139
100
AcDbArc
 50
322.5511267217243017
 51
65.6484726690459013
  0
ARC
  5
72
100
AcDbEntity
  8
0
 62
256
370
-1
  6
BYLAYER
100
AcDbCircle
 10
38.1206896551705299
 20
109.9137931034498905
 30
0.0
 40
88.696040017933683
100
AcDbArc
 50
115.4542470734743489
 51
126.6515509701522433
  0
ARC
  5
73
100
AcDbEntity
  8
0
 62
256
370
-1
  6
BYLAYER
100
AcDbCircle
 10
5.000000000000381
 20
155.0000000000008242
 30
0.0
 40
65.1920240520273353
100
AcDbArc
 50
212.471192290849018
 51
265.6012946450041454
  0
ARC
  5
74
100
AcDbEntity
  8
0
 62
256
370
-1
  6
BYLAYER
100
AcDbCircle
 10
11.5369308883619333
 20
171.0178678260291463
 30
0.0
 40
71.9488590936520467
100
AcDbArc
 50
214.0277803089046245
 51
260.7728433499964353
  0
ARC
  5
75
100
AcDbEntity
  8
0
 62
256
370
-1
  6
BYLAYER
100
AcDbCircle
 10
38.1206896551705299
 20
109.9137931034498905
 30
0.0
 40
88.696040017933683
100
AcDbArc
 50
166.4095085691876648
 51
169.1016137649866096
  0
ARC
  5
76
100
AcDbEntity
  8
0
 62
256
370
-1
  6
BYLAYER
100
AcDbCircle
 10
46.4634003228586039
 20
104.8646271425808152
 30
0.0
 40
98.3033304806466504
100
AcDbArc
 50
135.2386258968253969
 51
140.7640357540459775
  0
ARC
  5
77
100
AcDbEntity
  8
0
 62
256
370
-1
  6
BYLAYER
100
AcDbCircle
 10
11.5369308883619386
 20
182.0178678260292315
 30
0.0
 40
71.9488590936520467
100
AcDbArc
 50
217.1418233409740424
 51
260.7728433499964353
  0
ARC
  5
78
100
AcDbEntity
  8
0
 62
256
370
-1
  6
BYLAYER
100
AcDbCircle
 10
11.5369308883619439
 20
193.0178678260293168
 30
0.0
 40
71.9488590936520467
100
AcDbArc
 50
220.8222107992381495
 51
260.7728433499964353
  0
ARC
  5
79
100
AcDbEntity
  8
0
 62
256
370
-1
  6
BYLAYER
100
AcDbCircle
 10
11.5369308883619492
 20
204.0178678260294021
 30
0.0
 40
71.9488590936520467
100
AcDbArc
 50
225.0077487642855658
 51
260.7728433499964353
  0
ARC
  5
7A
100
AcDbEntity
  8
0
 62
256
370
-1
  6
BYLAYER
100
AcDbCircle
 10
11.5369308883619546
 20
215.0178678260294873
 30
0.0
 40
71.9488590936520467
100
AcDbArc
 50
229.7118646198251781
 51
260.7728433499964353
  0
ARC
  5
7B
100
AcDbEntity
  8
0
 62
256
370
-1
  6
BYLAYER
100
AcDbCircle
 10
11.5369308883619599
 20
226.0178678260295726
 30
0.0
 40
71.9488590936520467
100
AcDbArc
 50
235.0525080379710516
 51
260.7728433499964353
  0
ARC
  5
7C
100
AcDbEntity
  8
0
 62
256
370
-1
  6
BYLAYER
100
AcDbCircle
 10
11.5369308883619652
 20
237.0178678260296579
 30
0.0
 40
71.9488590936520467
100
AcDbArc
 50
241.0073937576025003
 51
260.7728433499964353
  0
ARC
  5
7D
100
AcDbEntity
  8
0
 62
256
370
-1
  6
BYLAYER
100
AcDbCircle
 10
11.5369308883619706
 20
248.0178678260297431
 30
0.0
 40
71.9488590936520467
100
AcDbArc
 50
248.5053687645102514
 51
260.7728433499964353
  0
ARC
  5
7E
100
AcDbEntity
  8
0
 62
256
370
-1
  6
BYLAYER
100
AcDbCircle
 10
38.1206896551705299
 20
109.9137931034498905
 30
0.0
 40
88.696040017933683
100
AcDbArc
 50
169.1016137649866096
 51
173.4703973425772006
  0
ARC
  5
7F
100
AcDbEntity
  8
0
 62
256
370
-1
  6
BYLAYER
100
AcDbCircle
 10
38.1206896551705299
 20
109.9137931034498905
 30
0.0
 40
88.696040017933683
100
AcDbArc
 50
158.8871635441296633
 51
161.1465060932330289
  0
ARC
  5
80
100
AcDbEntity
  8
0
 62
256
370
-1
  6
BYLAYER
100
AcDbCircle
 10
38.1206896551705299
 20
109.9137931034498905
 30
0.0
 40
88.696040017933683
100
AcDbArc
 50
156.0041235972177844
 51
158.8871635441296633
  0
ARC
  5
81
100
AcDbEntity
  8
0
 62
256
370
-1
  6
BYLAYER
100
AcDbCircle
 10
38.1206896551705299
 20
109.9137931034498905
 30
0.0
 40
88.696040017933683
100
AcDbArc
 50
148.7036004588204037
 51
150.8366623593911697
  0
ARC
  5
82
100
AcDbEntity
  8
0
 62
256
370
-1
  6
BYLAYER
100
AcDbCircle
 10
38.1206896551705299
 20
109.9137931034498905
 30
0.0
 40
88.696040017933683
100
AcDbArc
 50
145.5130631730672235
 51
148.7036004588204037
  0
ARC
  5
83
100
AcDbEntity
  8
0
 62
256
370
-1
  6
BYLAYER
100
AcDbCircle
 10
-38.1206896551705654
 20
109.9137931034499047
 30
0.0
 40
88.696040017933683
100
AcDbArc
 50
53.3484490298477709
 51
64.5457529265256369
  0
ARC
  5
84
100
AcDbEntity
  8
0
 62
256
370
-1
  6
BYLAYER
100
AcDbCircle
 10
-5.0000000000003721
 20
155.0000000000008242
 30
0.0
 40
65.1920240520273353
100
AcDbArc
 50
274.3987053549958546
 51
323.8579206447134311
  0
ARC
  5
85
100
AcDbEntity
  8
0
 62
256
370
-1
  6
BYLAYER
100
AcDbCircle
 10
39.5707024146013708
 20
122.448317935496533
 30
0.0
 40
10.0
100
AcDbArc
 50
323.8579206447134311
 51
9.1649742715595917
  0
ARC
  5
86
100
AcDbEntity
  8
0
 62
256
370
-1
  6
BYLAYER
100
AcDbCircle
 10
-11.5369308883619404
 20
182.0178678260292315
 30
0.0
 40
71.9488590936520467
100
AcDbArc
 50
279.2271566500035647
 51
322.8581766590259576
  0
ARC
  5
87
100
AcDbEntity
  8
0
 62
256
370
-1
  6
BYLAYER
100
AcDbCircle
 10
-11.5369308883619457
 20
193.0178678260293168
 30
0.0
 40
71.9488590936520467
100
AcDbArc
 50
279.2271566500035647
 51
319.1777892007618789
  0
ARC
  5
88
100
AcDbEntity
  8
0
 62
256
370
-1
  6
BYLAYER
100
AcDbCircle
 10
-11.5369308883619421
 20
204.0178678260294305
 30
0.0
 40
71.9488590936520467
100
AcDbArc
 50
279.2271566500035647
 51
314.992251235714491
  0
ARC
  5
89
100
AcDbEntity
  8
0
 62
256
370
-1
  6
BYLAYER
100
AcDbCircle
 10
-11.5369308883619581
 20
215.0178678260294873
 30
0.0
 40
71.9488590936520467
100
AcDbArc
 50
279.2271566500035647
 51
310.2881353801748219
  0
ARC
  5
8A
100
AcDbEntity
  8
0
 62
256
370
-1
  6
BYLAYER
100
AcDbCircle
 10
-11.5369308883619812
 20
226.0178678260295726
 30
0.0
 40
71.9488590936520467
100
AcDbArc
 50
279.2271566500035647
 51
304.9474919620289484
  0
ARC
  5
8B
100
AcDbEntity
  8
0
 62
256
370
-1
  6
BYLAYER
100
AcDbCircle
 10
-11.5369308883619279
 20
171.0178678260291463
 30
0.0
 40
71.9488590936520467
100
AcDbArc
 50
279.2271566500035647
 51
325.972219691095404
  0
ARC
  5
8C
100
AcDbEntity
  8
0
 62
256
370
-1
  6
BYLAYER
100
AcDbCircle
 10
-11.5369308883619919
 20
237.0178678260296579
 30
0.0
 40
71.9488590936520467
100
AcDbArc
 50
279.2271566500035647
 51
298.9926062423974713
  0
ARC
  5
8D
100
AcDbEntity
  8
0
 62
256
370
-1
  6
BYLAYER
100
AcDbCircle
 10
-11.5369308883619315
 20
248.0178678260297431
 30
0.0
 40
71.9488590936520467
100
AcDbArc
 50
279.2271566500035647
 51
291.4946312354897486
  0
ARC
  5
8E
100
AcDbEntity
  8
0
 62
256
370
-1
  6
BYLAYER
100
AcDbCircle
 10
-38.1206896551705654
 20
109.9137931034499047
 30
0.0
 40
88.696040017933683
100
AcDbArc
 50
9.1649742715597107
 51
10.898386235013362
  0
ARC
  5
8F
100
AcDbEntity
  8
0
 62
256
370
-1
  6
BYLAYER
100
AcDbCircle
 10
-38.1206896551705654
 20
109.9137931034499047
 30
0.0
 40
88.696040017933683
100
AcDbArc
 50
18.8534939067669463
 51
21.1128364558703296
  0
ARC
  5
90
100
AcDbEntity
  8
0
 62
256
370
-1
  6
BYLAYER
100
AcDbCircle
 10
-38.1206896551705654
 20
109.9137931034499047
 30
0.0
 40
88.696040017933683
100
AcDbArc
 50
21.1128364558703296
 51
23.9958764027821871
  0
ARC
  5
91
100
AcDbEntity
  8
0
 62
256
370
-1
  6
BYLAYER
100
AcDbCircle
 10
-38.1206896551705654
 20
109.9137931034499047
 30
0.0
 40
88.696040017933683
100
AcDbArc
 50
29.1633376406088374
 51
31.296399541179575
  0
ARC
  5
92
100
AcDbEntity
  8
0
 62
256
370
-1
  6
BYLAYER
100
AcDbCircle
 10
-38.1206896551705654
 20
109.9137931034499047
 30
0.0
 40
88.696040017933683
100
AcDbArc
 50
10.898386235013362
 51
13.590491430812321
  0
ARC
  5
93
100
AcDbEntity
  8
0
 62
256
370
-1
  6
BYLAYER
100
AcDbCircle
 10
-38.1206896551705654
 20
109.9137931034499047
 30
0.0
 40
88.696040017933683
100
AcDbArc
 50
31.296399541179575
 51
34.4869368269327339
  0
ARC
  5
94
100
AcDbEntity
  8
0
 62
256
370
-1
  6
BYLAYER
100
AcDbCircle
 10
-46.4634003228586536
 20
104.8646271425808436
 30
0.0
 40
98.3033304806466504
100
AcDbArc
 50
39.2359642459539728
 51
44.7613741031745889
  0
INSERT
  5
95
100
AcDbEntity
100
AcDbBlockReference
  8
0
 62
256
370
-1
  6
BYLAYER
  2
servo_mount
 10
0.0
 20
30.0
 30
0.0
 50
90.0
  0
CIRCLE
  5
96
100
AcDbEntity
100
AcDbCircle
  8
0
 62
256
370
-1
  6
BYLAYER
 10
0.0
 20
0.0
 30
0.0
 40
1.0
  0
ARC
  5
97
100
AcDbEntity
  8
0
 62
256
370
-1
  6
BYLAYER
100
AcDbCircle
 10
5.0000000000003775
 20
133.0000000000009095
 30
0.0
 40
65.1920240520273353
100
AcDbArc
 50
212.9445927884670766
 51
265.6012946450041454
  0
ARC
  5
98
100
AcDbEntity
  8
0
 62
256
370
-1
  6
BYLAYER
100
AcDbCircle
 10
11.5369308883619297
 20
149.0178678260292031
 30
0.0
 40
71.9488590936520467
100
AcDbArc
 50
210.3783965037989958
 51
260.7728433499964353
  0
ARC
  5
99
100
AcDbEntity
  8
0
 62
256
370
-1
  6
BYLAYER
100
AcDbCircle
 10
11.5369308883619386
 20
127.0178678260292315
 30
0.0
 40
71.9488590936520467
100
AcDbArc
 50
215.4175146474840687
 51
260.7728433499964353
  0
ARC
  5
9A
100
AcDbEntity
  8
0
 62
256
370
-1
  6
BYLAYER
100
AcDbCircle
 10
5.0000000000003864
 20
111.0000000000009379
 30
0.0
 40
65.1920240520273353
100
AcDbArc
 50
234.0603741797244481
 51
265.6012946450041454
  0
ARC
  5
9B
100
AcDbEntity
  8
0
 62
256
370
-1
  6
BYLAYER
100
AcDbCircle
 10
38.1206896551705299
 20
109.9137931034498905
 30
0.0
 40
88.696040017933683
100
AcDbArc
 50
178.2433569968875986
 51
188.0149530448940993
  0
ARC
  5
9C
100
AcDbEntity
  8
0
 62
256
370
-1
  6
BYLAYER
100
AcDbCircle
 10
38.1206896551705299
 20
109.9137931034498905
 30
0.0
 40
88.696040017933683
100
AcDbArc
 50
196.0971486178912073
 51
213.64329176473899
  0
ARC
  5
9D
100
AcDbEntity
  8
0
 62
256
370
-1
  6
BYLAYER
100
AcDbCircle
 10
-27.3939894608377301
 20
66.3145553253569062
 30
0.0
 40
10.0
100
AcDbArc
 50
213.6432917647389331
 51
234.0603741797244481
  0
ARC
  5
9E
100
AcDbEntity
  8
0
 62
256
370
-1
  6
BYLAYER
100
AcDbCircle
 10
-11.5369308883615354
 20
149.01786782602926
 30
0.0
 40
71.9488590936520467
100
AcDbArc
 50
279.2271566500032236
 51
329.6216034962007484
  0
ARC
  5
9F
100
AcDbEntity
  8
0
 62
256
370
-1
  6
BYLAYER
100
AcDbCircle
 10
-11.5369308883616544
 20
127.0178678260293168
 30
0.0
 40
71.9488590936520467
100
AcDbArc
 50
279.2271566500032236
 51
324.5824853525156755
  0
ARC
  5
A0
100
AcDbEntity
  8
0
 62
256
370
-1
  6
BYLAYER
100
AcDbCircle
 10
-5.0000000000001767
 20
111.0000000000009663
 30
0.0
 40
65.1920240520273353
100
AcDbArc
 50
274.3987053549955135
 51
305.9396258202752392
  0
ARC
  5
A1
100
AcDbEntity
  8
0
 62
256
370
-1
  6
BYLAYER
100
AcDbCircle
 10
-38.1206896551703167
 20
109.9137931034501605
 30
0.0
 40
88.696040017933683
100
AcDbArc
 50
351.9850469551055312
 51
1.7566430031119902
  0
ARC
  5
A2
100
AcDbEntity
  8
0
 62
256
370
-1
  6
BYLAYER
100
AcDbCircle
 10
-38.1206896551703167
 20
109.9137931034501605
 30
0.0
 40
88.696040017933683
100
AcDbArc
 50
326.356708235260669
 51
343.9028513821084516
  0
ARC
  5
A3
100
AcDbEntity
  8
0
 62
256
370
-1
  6
BYLAYER
100
AcDbCircle
 10
27.393989460837652
 20
66.3145553253567641
 30
0.0
 40
10.0
100
AcDbArc
 50
305.9396258202752392
 51
326.3567082352607827
  0
ARC
  5
A4
100
AcDbEntity
  8
0
 62
256
370
-1
  6
BYLAYER
100
AcDbCircle
 10
-5.0000000000000933
 20
133.0000000000009379
 30
0.0
 40
65.1920240520273353
100
AcDbArc
 50
274.3987053549955135
 51
327.0554072115326107
  0
ENDBLK
  5
A5
100
AcDbEntity
  8
0
100
AcDbBlockEnd
  0
BLOCK
  5
A6
100
AcDbEntity
  8
0
100
AcDbBlockBegin
  2
control_pcb
 70
0
 10
0.0
 20
0.0
 30
0.0
  3
control_pcb
  1

  0
LINE
  5
A7
100
AcDbEntity
100
AcDbLine
  8
0
 62
256
370
-1
  6
DASHED
 10
-70.7106781186547266
 20
-0.0000000000000142
 30
0.0
 11
-35.3553390593273633
 21
-35.3553390593273917
 31
0.0
  0
LINE
  5
A8
100
AcDbEntity
100
AcDbLine
  8
0
 62
256
370
-1
  6
DASHED
 10
-35.3553390593273633
 20
-35.3553390593273917
 30
0.0
 11
0.0000000000000142
 21
-0.0000000000000142
 31
0.0
  0
LINE
  5
A9
100
AcDbEntity
100
AcDbLine
  8
0
 62
256
370
-1
  6
DASHED
 10
0.0000000000000142
 20
-0.0000000000000142
 30
0.0
 11
-35.3553390593273562
 21
35.3553390593273633
 31
0.0
  0
LINE
  5
AA
100
AcDbEntity
100
AcDbLine
  8
0
 62
256
370
-1
  6
DASHED
 10
-35.3553390593273562
 20
35.3553390593273633
 30
0.0
 11
-70.7106781186547266
 21
-0.0000000000000142
 31
0.0
  0
CIRCLE
  5
AB
100
AcDbEntity
100
AcDbCircle
  8
0
 62
256
370
-1
  6
DASHED
 10
-35.3553390593273562
 20
29.6984848098349801
 30
0.0
 40
2.0
  0
CIRCLE
  5
AC
100
AcDbEntity
100
AcDbCircle
  8
0
 62
256
370
-1
  6
DASHED
 10
-35.3553390593273562
 20
-29.6984848098349943
 30
0.0
 40
2.0
  0
LINE
  5
AD
100
AcDbEntity
100
AcDbLine
  8
0
 62
256
370
-1
  6
DASHED
 10
-61.9999999999999858
 20
-7.0000000000000284
 30
0.0
 11
-9.9999999999999858
 21
-7.0000000000000284
 31
0.0
  0
LINE
  5
AE
100
AcDbEntity
100
AcDbLine
  8
0
 62
256
370
-1
  6
DASHED
 10
-9.9999999999999858
 20
-7.0000000000000284
 30
0.0
 11
-9.9999999999999858
 21
6.9999999999999716
 31
0.0
  0
LINE
  5
AF
100
AcDbEntity
100
AcDbLine
  8
0
 62
256
370
-1
  6
DASHED
 10
-9.9999999999999858
 20
6.9999999999999716
 30
0.0
 11
-61.9999999999999858
 21
6.9999999999999716
 31
0.0
  0
LINE
  5
B0
100
AcDbEntity
100
AcDbLine
  8
0
 62
256
370
-1
  6
DASHED
 10
-61.9999999999999858
 20
6.9999999999999716
 30
0.0
 11
-61.9999999999999858
 21
-7.0000000000000284
 31
0.0
  0
LINE
  5
B1
100
AcDbEntity
100
AcDbLine
  8
0
 62
256
370
-1
  6
DASHED
 10
-52.9999999999999858
 20
-14.5000000000000284
 30
0.0
 11
-17.9999999999999858
 21
-14.5000000000000284
 31
0.0
  0
LINE
  5
B2
100
AcDbEntity
100
AcDbLine
  8
0
 62
256
370
-1
  6
DASHED
 10
-17.9999999999999858
 20
-14.5000000000000284
 30
0.0
 11
-17.9999999999999858
 21
10.4999999999999716
 31
0.0
  0
LINE
  5
B3
100
AcDbEntity
100
AcDbLine
  8
0
 62
256
370
-1
  6
DASHED
 10
-17.9999999999999858
 20
10.4999999999999716
 30
0.0
 11
-52.9999999999999858
 21
10.4999999999999716
 31
0.0
  0
LINE
  5
B4
100
AcDbEntity
100
AcDbLine
  8
0
 62
256
370
-1
  6
DASHED
 10
-52.9999999999999858
 20
10.4999999999999716
 30
0.0
 11
-52.9999999999999858
 21
-14.5000000000000284
 31
0.0
  0
ENDBLK
  5
B5
100
AcDbEntity
  8
0
100
AcDbBlockEnd
  0
BLOCK
  5
B6
100
AcDbEntity
  8
0
100
AcDbBlockBegin
  2
tibia_front
 70
0
 10
0.0
 20
0.0
 30
0.0
  3
tibia_front
  1

  0
LINE
  5
B7
100
AcDbEntity
100
AcDbLine
  8
0
 62
256
370
-1
  6
BYLAYER
 10
-10.2871968564100484
 20
13.4307029370137059
 30
0.0
 11
-10.2871968564100484
 21
-16.5692970629862906
 31
0.0
  0
ARC
  5
B8
100
AcDbEntity
  8
0
 62
256
370
-1
  6
BYLAYER
100
AcDbCircle
 10
133.4956432372239306
 20
-26.5227955235961765
 30
0.0
 40
130.1445131082007833
100
AcDbArc
 50
161.3138642182418891
 51
175.8380011755167516
  0
ARC
  5
B9
100
AcDbEntity
  8
0
 62
256
370
-1
  6
BYLAYER
100
AcDbCircle
 10
-20.2871968564100484
 20
-66.5692970629862941
 30
0.0
 40
5.0
100
AcDbArc
 50
148.272768469349387
 51
326.4747008864466693
  0
ARC
  5
BA
100
AcDbEntity
  8
0
 62
256
370
-1
  6
BYLAYER
100
AcDbCircle
 10
-105.9012337570593445
 20
-13.636761788464586
 30
0.0
 40
95.6559317924888006
100
AcDbArc
 50
328.272768469349387
 51
358.3630292723632351
  0
ARC
  5
BB
100
AcDbEntity
  8
0
 62
256
370
-1
  6
BYLAYER
100
AcDbCircle
 10
-121.5846705859289045
 20
0.5424816504404077
 30
0.0
 40
126.5120118591665488
100
AcDbArc
 50
326.4746593922901639
 51
355.8924239428184819
  0
CIRCLE
  5
BC
100
AcDbEntity
100
AcDbCircle
  8
0
 62
256
370
-1
  6
BYLAYER
 10
-2.2871968564100484
 20
8.4307029370137059
 30
0.0
 40
1.0
  0
CIRCLE
  5
BD
100
AcDbEntity
100
AcDbCircle
  8
0
 62
256
370
-1
  6
BYLAYER
 10
-2.2871968564100484
 20
-11.5692970629862906
 30
0.0
 40
1.0
  0
ARC
  5
BE
100
AcDbEntity
  8
0
 62
256
370
-1
  6
BYLAYER
100
AcDbCircle
 10
-8.7344268834221452
 20
21.5810709527567326
 30
0.0
 40
20.0
100
AcDbArc
 50
341.3138642182418039
 51
7.8512309194346681
  0
ARC
  5
BF
100
AcDbEntity
  8
0
 62
256
370
-1
  6
BYLAYER
100
AcDbCircle
 10
-30.2871968564100484
 20
13.4307029370137059
 30
0.0
 40
20.0
100
AcDbArc
 50
0.0
 51
17.3188113254878111
  0
ARC
  5
C0
100
AcDbEntity
  8
0
 62
256
370
-1
  6
BYLAYER
100
AcDbCircle
 10
-1.6473034347237103
 20
22.3613526779031275
 30
0.0
 40
10.0
100
AcDbArc
 50
186.6026807677112629
 51
197.3188113254878147
  0
ARC
  5
C1
100
AcDbEntity
  8
0
 62
256
370
-1
  6
BYLAYER
100
AcDbCircle
 10
1.1718340625554333
 20
22.94708488760525
 30
0.0
 40
10.0
100
AcDbArc
 50
7.8512309194346219
 51
42.2523026745445804
  0
ARC
  5
C2
100
AcDbEntity
  8
0
 62
256
370
-1
  6
BYLAYER
100
AcDbCircle
 10
-8.4222952299113558
 20
35.6638569287897838
 30
0.0
 40
7.0
100
AcDbArc
 50
91.74071236939578
 51
204.4761726348149864
  0
ARC
  5
C3
100
AcDbEntity
  8
0
 62
256
370
-1
  6
BYLAYER
100
AcDbCircle
 10
-49.9181698782821854
 20
16.773934116670894
 30
0.0
 40
38.5931661181926557
100
AcDbArc
 50
6.6026807677113348
 51
24.4761726348150006
  0
ARC
  5
C4
100
AcDbEntity
  8
0
 62
256
370
-1
  6
BYLAYER
100
AcDbCircle
 10
-23.7997378925024918
 20
6.5077226739479102
 30
0.0
 40
39.7166843856890637
100
AcDbArc
 50
37.8127288189060096
 51
63.8201018519931509
  0
ARC
  5
C5
100
AcDbEntity
  8
0
 62
256
370
-1
  6
BYLAYER
100
AcDbCircle
 10
-8.483048207272077
 20
37.6629339847688129
 30
0.0
 40
5.0
100
AcDbArc
 50
63.8201018519930088
 51
91.7407123693957658
  0
ARC
  5
C6
100
AcDbEntity
  8
0
 62
256
370
-1
  6
BYLAYER
100
AcDbCircle
 10
23.3775672116468627
 20
43.1189815587500078
 30
0.0
 40
20.0
100
AcDbArc
 50
217.8127288189059527
 51
222.2523026745446373
  0
ARC
  5
C7
100
AcDbEntity
  8
0
 62
256
370
-1
  6
BYLAYER
100
AcDbCircle
 10
-121.4585828069971853
 20
3.0979702198484063
 30
0.0
 40
115.8583451295066737
100
AcDbArc
 50
8.5176211426047086
 51
15.704801934170332
  0
ARC
  5
C8
100
AcDbEntity
  8
0
 62
256
370
-1
  6
BYLAYER
100
AcDbCircle
 10
0.0446787903490531
 20
21.2949586840912843
 30
0.0
 40
7.0
100
AcDbArc
 50
188.5176211426052646
 51
22.7416615278294643
  0
ARC
  5
C9
100
AcDbEntity
  8
0
 62
256
370
-1
  6
BYLAYER
100
AcDbCircle
 10
-14.6898209668804611
 20
15.1187921232452638
 30
0.0
 40
22.976561472454236
100
AcDbArc
 50
22.7416599389985699
 51
71.6797656535496799
  0
ARC
  5
CA
100
AcDbEntity
  8
0
 62
256
370
-1
  6
BYLAYER
100
AcDbCircle
 10
-8.0
 20
35.0
 30
0.0
 40
2.0
100
AcDbArc
 50
74.6310907146417719
 51
195.7048019341701774
  0
DIMENSION
  5
CB
100
AcDbEntity
  8
0
 62
256
370
-1
  6
BYLAYER
100
AcDbDimension
 10
-5.0
 20
-12.5692970629862906
 30
0.0
 11
-6.875
 21
-5.7776303963196245
 31
0.0
 70
1
 71
8
 72
2
 41
1.0
 42
0.0
  1
5/16"
  3
Standard
100
AcDbAlignedDimension
 13
-2.2871968564100484
 23
-12.5692970629862906
 33
0.0
 14
-2.2871968564100484
 24
-10.5692970629862906
 34
0.0
1001
ACAD
1000
DSTYLE
1002
{
1070
144
1040
1
1002
}
  0
ENDBLK
  5
CC
100
AcDbEntity
  8
0
100
AcDbBlockEnd
  0
BLOCK
  5
CD
100
AcDbEntity
  8
0
100
AcDbBlockBegin
  2
thorax_botom
 70
0
 10
0.0
 20
0.0
 30
0.0
  3
thorax_botom
  1

  0
LINE
  5
CE
100
AcDbEntity
100
AcDbLine
  8
0
 62
256
370
-1
  6
DOT
 10
114.5
 20
-7.5
 30
0.0
 11
4.4999999999999858
 21
-7.5
 31
0.0
  0
LINE
  5
CF
100
AcDbEntity
100
AcDbLine
  8
0
 62
256
370
-1
  6
DOT
 10
4.4999999999999858
 20
-7.5
 30
0.0
 11
4.5000000000000071
 21
7.5
 31
0.0
  0
LINE
  5
D0
100
AcDbEntity
100
AcDbLine
  8
0
 62
256
370
-1
  6
DOT
 10
4.5000000000000071
 20
7.5
 30
0.0
 11
114.5
 21
7.4999999999999716
 31
0.0
  0
LINE
  5
D1
100
AcDbEntity
100
AcDbLine
  8
0
 62
256
370
-1
  6
DOT
 10
114.5
 20
7.4999999999999716
 30
0.0
 11
114.5
 21
-7.5
 31
0.0
  0
LINE
  5
D2
100
AcDbEntity
100
AcDbLine
  8
0
 62
256
370
-1
  6
DOT
 10
-5.5000000000000284
 20
-7.5000000000000284
 30
0.0
 11
-115.5
 21
-7.5000000000000284
 31
0.0
  0
LINE
  5
D3
100
AcDbEntity
100
AcDbLine
  8
0
 62
256
370
-1
  6
DOT
 10
-115.5
 20
-7.5000000000000284
 30
0.0
 11
-115.5000000000000284
 21
7.5000000000000568
 31
0.0
  0
LINE
  5
D4
100
AcDbEntity
100
AcDbLine
  8
0
 62
256
370
-1
  6
DOT
 10
-115.5000000000000284
 20
7.5000000000000568
 30
0.0
 11
-5.4999999999999787
 21
7.5
 31
0.0
  0
LINE
  5
D5
100
AcDbEntity
100
AcDbLine
  8
0
 62
256
370
-1
  6
DOT
 10
-5.4999999999999787
 20
7.5
 30
0.0
 11
-5.5000000000000284
 21
-7.5000000000000284
 31
0.0
  0
CIRCLE
  5
D6
100
AcDbEntity
100
AcDbCircle
  8
0
 62
256
370
-1
  6
DASHDOT
 10
4.5
 20
21.0
 30
0.0
 40
2.0
  0
CIRCLE
  5
D7
100
AcDbEntity
100
AcDbCircle
  8
0
 62
256
370
-1
  6
DASHDOT
 10
114.5
 20
15.0
 30
0.0
 40
2.0
  0
CIRCLE
  5
D8
100
AcDbEntity
100
AcDbCircle
  8
0
 62
256
370
-1
  6
DASHDOT
 10
119.1446609406726793
 20
-0.0000000000000284
 30
0.0
 40
3.0
  0
CIRCLE
  5
D9
100
AcDbEntity
100
AcDbCircle
  8
0
 62
256
370
-1
  6
DASHDOT
 10
-122.1446609406726793
 20
-0.0000000000000568
 30
0.0
 40
3.0
  0
CIRCLE
  5
DA
100
AcDbEntity
100
AcDbCircle
  8
0
 62
256
370
-1
  6
DASHDOT
 10
-105.5
 20
-24.0000000000000426
 30
0.0
 40
2.0
  0
CIRCLE
  5
DB
100
AcDbEntity
100
AcDbCircle
  8
0
 62
256
370
-1
  6
DASHDOT
 10
-105.5
 20
23.9999999999998579
 30
0.0
 40
2.0
  0
ARC
  5
DC
100
AcDbEntity
  8
0
 62
256
370
-1
  6
DASHDOT
100
AcDbCircle
 10
118.0501415236390415
 20
-3.2762686190248544
 30
0.0
 40
25.6609588422961465
100
AcDbArc
 50
94.1876205974594569
 51
121.7141740743934122
  0
CIRCLE
  5
DD
100
AcDbEntity
100
AcDbCircle
  8
0
 62
256
370
-1
  6
DASHDOT
 10
114.5
 20
-15.0000000000000568
 30
0.0
 40
2.0
  0
CIRCLE
  5
DE
100
AcDbEntity
100
AcDbCircle
  8
0
 62
256
370
-1
  6
DASHDOT
 10
0.0
 20
0.0
 30
0.0
 40
3.0
  0
ARC
  5
DF
100
AcDbEntity
  8
0
 62
256
370
-1
  6
DASHDOT
100
AcDbCircle
 10
-31.924974871775504
 20
46.7067656409850898
 30
0.0
 40
36.8662053470993669
100
AcDbArc
 50
275.3306270483895446
 51
315.7893032952580938
  0
ARC
  5
E0
100
AcDbEntity
  8
0
 62
256
370
-1
  6
DASHDOT
100
AcDbCircle
 10
-99.8372900497677449
 20
-7.0423665007756231
 30
0.0
 40
37.4726993951362317
100
AcDbArc
 50
98.691583505777885
 51
158.9133766710822897
  0
ARC
  5
E1
100
AcDbEntity
  8
0
 62
256
370
-1
  6
DASHDOT
100
AcDbCircle
 10
-104.5847457627119752
 20
-20.9322033898311375
 30
0.0
 40
50.9404263082082025
100
AcDbArc
 50
53.181756761972693
 51
91.0294972114089518
  0
ARC
  5
E2
100
AcDbEntity
  8
0
 62
256
370
-1
  6
DASHDOT
100
AcDbCircle
 10
-38.8194761361136784
 20
82.5669130698884288
 30
0.0
 40
73.2969880705651491
100
AcDbArc
 50
256.9162936231608114
 51
278.093557329441353
  0
ARC
  5
E3
100
AcDbEntity
  8
0
 62
256
370
-1
  6
DASHDOT
100
AcDbCircle
 10
-44.0933160047618173
 20
59.8747059009083173
 30
0.0
 40
50.0
100
AcDbArc
 50
233.1817567619727356
 51
256.9162936231608114
  0
ARC
  5
E4
100
AcDbEntity
  8
0
 62
256
370
-1
  6
DASHDOT
100
AcDbCircle
 10
4.4999999999999964
 20
15.6666666666666057
 30
0.0
 40
11.3333333333333748
100
AcDbArc
 50
82.510946353393976
 51
151.9275130641469786
  0
ARC
  5
E5
100
AcDbEntity
  8
0
 62
256
370
-1
  6
DASHDOT
100
AcDbCircle
 10
114.1934309781178882
 20
-0.9242698642233815
 30
0.0
 40
23.3248887318603622
100
AcDbArc
 50
2.2709918000781038
 51
85.1233288732677238
  0
ARC
  5
E6
100
AcDbEntity
  8
0
 62
256
370
-1
  6
DASHDOT
100
AcDbCircle
 10
-114.7677842030319937
 20
-0.6227769746209993
 30
0.0
 40
21.2413473868569795
100
AcDbArc
 50
160.5806949960292798
 51
178.3198991232653441
  0
ARC
  5
E7
100
AcDbEntity
  8
0
 62
256
370
-1
  6
DASHDOT
100
AcDbCircle
 10
-31.924974871775504
 20
-46.7067656409850755
 30
0.0
 40
36.8662053470993669
100
AcDbArc
 50
44.2106967047418777
 51
84.6693729516104554
  0
ARC
  5
E8
100
AcDbEntity
  8
0
 62
256
370
-1
  6
DASHDOT
100
AcDbCircle
 10
114.193430978117874
 20
0.9242698642151044
 30
0.0
 40
23.3248887318603622
100
AcDbArc
 50
274.8766711267322762
 51
357.7290081999219069
  0
ARC
  5
E9
100
AcDbEntity
  8
0
 62
256
370
-1
  6
DASHDOT
100
AcDbCircle
 10
-114.7677842030319937
 20
0.6227769746210274
 30
0.0
 40
21.2413473868569795
100
AcDbArc
 50
181.6801008767346559
 51
199.4193050039707202
  0
ARC
  5
EA
100
AcDbEntity
  8
0
 62
256
370
-1
  6
DASHDOT
100
AcDbCircle
 10
118.0501415236390415
 20
3.2762686190251111
 30
0.0
 40
25.6609588422961465
100
AcDbArc
 50
238.2858259256066162
 51
265.8123794025405005
  0
ARC
  5
EB
100
AcDbEntity
  8
0
 62
256
370
-1
  6
DASHDOT
100
AcDbCircle
 10
-99.8372900497677449
 20
7.0423665007756746
 30
0.0
 40
37.4726993951362317
100
AcDbArc
 50
201.0866233289177387
 51
261.3084164942220582
  0
ARC
  5
EC
100
AcDbEntity
  8
0
 62
256
370
-1
  6
DASHDOT
100
AcDbCircle
 10
-104.5847457627119752
 20
20.932203389831173
 30
0.0
 40
50.9404263082082025
100
AcDbArc
 50
268.970502788591034
 51
306.8182432380273212
  0
ARC
  5
ED
100
AcDbEntity
  8
0
 62
256
370
-1
  6
DASHDOT
100
AcDbCircle
 10
-38.8194761361136784
 20
-82.5669130698884146
 30
0.0
 40
73.2969880705651491
100
AcDbArc
 50
81.9064426705586186
 51
103.0837063768392028
  0
ARC
  5
EE
100
AcDbEntity
  8
0
 62
256
370
-1
  6
DASHDOT
100
AcDbCircle
 10
-44.0933160047618173
 20
-59.8747059009083031
 30
0.0
 40
50.0
100
AcDbArc
 50
103.0837063768392028
 51
126.8182432380272928
  0
ARC
  5
EF
100
AcDbEntity
  8
0
 62
256
370
-1
  6
DASHDOT
100
AcDbCircle
 10
4.5
 20
-15.6666666666664902
 30
0.0
 40
11.3333333333333748
100
AcDbArc
 50
208.0724869358530214
 51
277.4890536466078288
  0
ARC
  5
F0
100
AcDbEntity
  8
0
 62
256
370
-1
  6
DASHDOT
100
AcDbCircle
 10
-42.1818220543678137
 20
51.7296256703350821
 30
0.0
 40
92.2086080664386003
100
AcDbArc
 50
301.4855037230522044
 51
307.9310629877011252
  0
ARC
  5
F1
100
AcDbEntity
  8
0
 62
256
370
-1
  6
DASHDOT
100
AcDbCircle
 10
40.924974871775504
 20
-46.7067656409851963
 30
0.0
 40
36.8662053470993669
100
AcDbArc
 50
95.3306270483895588
 51
135.7893032952581507
  0
CIRCLE
  5
F2
100
AcDbEntity
100
AcDbCircle
  8
0
 62
256
370
-1
  6
DASHDOT
 10
4.5
 20
-21.0000000000000995
 30
0.0
 40
2.0
  0
ARC
  5
F3
100
AcDbEntity
  8
0
 62
256
370
-1
  6
DASHDOT
100
AcDbCircle
 10
-42.1818220543678137
 20
-51.7296256703351247
 30
0.0
 40
92.2086080664386003
100
AcDbArc
 50
52.0689370122988748
 51
58.514496276947952
  0
ARC
  5
F4
100
AcDbEntity
  8
0
 62
256
370
-1
  6
DASHDOT
100
AcDbCircle
 10
55.9999999999999787
 20
-132.1228586222547392
 30
0.0
 40
123.5161633069583047
100
AcDbArc
 50
66.8492272701795258
 51
98.6140597241050756
  0
ARC
  5
F5
100
AcDbEntity
  8
0
 62
256
370
-1
  6
DASHDOT
100
AcDbCircle
 10
55.9999999999999432
 20
132.1228586222547676
 30
0.0
 40
123.5161633069583047
100
AcDbArc
 50
261.3859402758949386
 51
293.1507727298205168
  0
ARC
  5
F6
100
AcDbEntity
  8
0
 62
256
370
-1
  6
DASHDOT
100
AcDbCircle
 10
40.9249748717755111
 20
46.706765640985175
 30
0.0
 40
36.8662053470993669
100
AcDbArc
 50
224.2106967047418777
 51
264.6693729516104554
  0
ENDBLK
  5
F7
100
AcDbEntity
  8
0
100
AcDbBlockEnd
  0
BLOCK
  5
F8
100
AcDbEntity
  8
0
100
AcDbBlockBegin
  2
tibia_middle
 70
0
 10
0.0
 20
0.0
 30
0.0
  3
tibia_middle
  1

  0
LINE
  5
F9
100
AcDbEntity
100
AcDbLine
  8
0
 62
256
370
-1
  6
BYLAYER
 10
-14.4069223573433192
 20
18.6763330215154326
 30
0.0
 11
-23.2965388213283404
 21
28.1618334892422837
 31
0.0
  0
ARC
  5
FA
100
AcDbEntity
  8
0
 62
256
370
-1
  6
BYLAYER
100
AcDbCircle
 10
-29.0
 20
5.0
 30
0.0
 40
20.0
100
AcDbArc
 50
0.0
 51
43.1426143825091799
  0
ARC
  5
FB
100
AcDbEntity
  8
0
 62
256
370
-1
  6
BYLAYER
100
AcDbCircle
 10
-16.0
 20
35.0
 30
0.0
 40
10.0
100
AcDbArc
 50
103.741798278186792
 51
223.1426143825091799
  0
LINE
  5
FC
100
AcDbEntity
100
AcDbLine
  8
0
 62
256
370
-1
  6
BYLAYER
 10
-9.0
 20
4.9999999999999964
 30
0.0
 11
-9.0
 21
-25.0
 31
0.0
  0
ARC
  5
FD
100
AcDbEntity
  8
0
 62
256
370
-1
  6
BYLAYER
100
AcDbCircle
 10
134.7828400936339222
 20
-34.953498460609886
 30
0.0
 40
130.1445131082007833
100
AcDbArc
 50
161.3138642182418891
 51
175.8380011755167516
  0
ARC
  5
FE
100
AcDbEntity
  8
0
 62
256
370
-1
  6
BYLAYER
100
AcDbCircle
 10
-19.0
 20
-75.0
 30
0.0
 40
5.0
100
AcDbArc
 50
148.272768469349387
 51
326.4747008864466693
  0
ARC
  5
FF
100
AcDbEntity
  8
0
 62
256
370
-1
  6
BYLAYER
100
AcDbCircle
 10
-104.6140369006493103
 20
-22.0674647254782954
 30
0.0
 40
95.6559317924888006
100
AcDbArc
 50
328.272768469349387
 51
358.3630292723632351
  0
ARC
  5
100
100
AcDbEntity
  8
0
 62
256
370
-1
  6
BYLAYER
100
AcDbCircle
 10
-120.2974737295188561
 20
-7.8882212865733052
 30
0.0
 40
126.5120118591665488
100
AcDbArc
 50
326.4746593922901639
 51
355.8924239428184819
  0
CIRCLE
  5
101
100
AcDbEntity
100
AcDbCircle
  8
0
 62
256
370
-1
  6
BYLAYER
 10
-1.0
 20
0.0
 30
0.0
 40
1.0
  0
CIRCLE
  5
102
100
AcDbEntity
100
AcDbCircle
  8
0
 62
256
370
-1
  6
BYLAYER
 10
-1.0
 20
-20.0
 30
0.0
 40
1.0
  0
ARC
  5
103
100
AcDbEntity
  8
0
 62
256
370
-1
  6
BYLAYER
100
AcDbCircle
 10
-120.0430947950993215
 20
-18.2710622850753204
 30
0.0
 40
136.8979685239335709
100
AcDbArc
 50
15.5924939290849789
 51
26.8168472073614375
  0
ARC
  5
104
100
AcDbEntity
  8
0
 62
256
370
-1
  6
BYLAYER
100
AcDbCircle
 10
-6.7925961820621534
 20
38.9776842461781357
 30
0.0
 40
10.0
100
AcDbArc
 50
26.8168472073614232
 51
122.9877905279766992
  0
ARC
  5
105
100
AcDbEntity
  8
0
 62
256
370
-1
  6
BYLAYER
100
AcDbCircle
 10
-7.4472300270121288
 20
13.1503680157430196
 30
0.0
 40
20.0
100
AcDbArc
 50
341.3138642182418039
 51
15.5924939290849558
  0
ARC
  5
106
100
AcDbEntity
  8
0
 62
256
370
-1
  6
BYLAYER
100
AcDbCircle
 10
-23.1264053541885772
 20
64.1412825168658713
 30
0.0
 40
20.0
100
AcDbArc
 50
283.7417982781867636
 51
302.9877905279766424
  0
ARC
  5
107
100
AcDbEntity
  8
0
 62
256
370
-1
  6
BYLAYER
100
AcDbCircle
 10
-16.0
 20
35.0
 30
0.0
 40
5.0
100
AcDbArc
 50
103.1061301537620523
 51
231.7313941133580784
  0
ARC
  5
108
100
AcDbEntity
  8
0
 62
256
370
-1
  6
BYLAYER
100
AcDbCircle
 10
-6.7925961820621534
 20
38.9776842461781357
 30
0.0
 40
5.0
100
AcDbArc
 50
33.0467334489963349
 51
123.6234586524010837
  0
ARC
  5
109
100
AcDbEntity
  8
0
 62
256
370
-1
  6
BYLAYER
100
AcDbCircle
 10
1.3318756467591086
 20
12.8642557470775785
 30
0.0
 40
7.0
100
AcDbArc
 50
196.6110937818727677
 51
9.7318494610223372
  0
ARC
  5
10A
100
AcDbEntity
  8
0
 62
256
370
-1
  6
BYLAYER
100
AcDbCircle
 10
-22.3852487884007374
 20
62.4256793238571106
 30
0.0
 40
23.1591776951106318
100
AcDbArc
 50
283.1061301537620807
 51
303.6234586524009842
  0
ARC
  5
10B
100
AcDbEntity
  8
0
 62
256
370
-1
  6
BYLAYER
100
AcDbCircle
 10
-64.2106392183572865
 20
1.6233667807422556
 30
0.0
 40
73.4994649572271896
100
AcDbArc
 50
9.7318494610221471
 51
33.04672357591798
  0
ARC
  5
10C
100
AcDbEntity
  8
0
 62
256
370
-1
  6
BYLAYER
100
AcDbCircle
 10
-44.1704322461031325
 20
-0.7101652112312564
 30
0.0
 40
40.48394389612357
100
AcDbArc
 50
16.6110937818728424
 51
51.7313941133580926
  0
ENDBLK
  5
10D
100
AcDbEntity
  8
0
100
AcDbBlockEnd
  0
BLOCK
  5
10E
100
AcDbEntity
  8
0
100
AcDbBlockBegin
  2
head
 70
0
 10
0.0
 20
0.0
 30
0.0
  3
head
  1

  0
CIRCLE
  5
10F
100
AcDbEntity
100
AcDbCircle
  8
0
 62
256
370
-1
  6
BYLAYER
 10
9.9999999999999947
 20
42.9999999999999929
 30
0.0
 40
1.0
  0
CIRCLE
  5
110
100
AcDbEntity
100
AcDbCircle
  8
0
 62
256
370
-1
  6
BYLAYER
 10
-9.9999999999999698
 20
43.0
 30
0.0
 40
1.0
  0
ARC
  5
111
100
AcDbEntity
  8
0
 62
256
370
-1
  6
BYLAYER
100
AcDbCircle
 10
-7.4999999999999432
 20
47.4999999999999432
 30
0.0
 40
12.7475487839820385
100
AcDbArc
 50
119.6627983705629106
 51
156.3835417561242878
  0
ARC
  5
112
100
AcDbEntity
  8
0
 62
256
370
-1
  6
BYLAYER
100
AcDbCircle
 10
-28.3423890556089475
 20
56.6129465122029387
 30
0.0
 40
10.0
100
AcDbArc
 50
313.9699694618026911
 51
336.3835417561243162
  0
ARC
  5
113
100
AcDbEntity
  8
0
 62
256
370
-1
  6
BYLAYER
100
AcDbCircle
 10
0.3908237622342226
 20
57.7816475244684185
 30
0.0
 40
5.794841784752955
100
AcDbArc
 50
220.7370546135085192
 51
266.132843032335245
  0
ARC
  5
114
100
AcDbEntity
  8
0
 62
256
370
-1
  6
BYLAYER
100
AcDbCircle
 10
-8.4053087084628917
 20
57.3579630626943597
 30
0.0
 40
5.5391931494829336
100
AcDbArc
 50
167.2863484905361418
 51
322.6834026031046392
  0
ARC
  5
115
100
AcDbEntity
  8
0
 62
256
370
-1
  6
BYLAYER
100
AcDbCircle
 10
7.4999999999999503
 20
47.4999999999999432
 30
0.0
 40
12.7475487839820385
100
AcDbArc
 50
23.6164582438757158
 51
60.3372016294370752
  0
ARC
  5
116
100
AcDbEntity
  8
0
 62
256
370
-1
  6
BYLAYER
100
AcDbCircle
 10
28.3423890556089546
 20
56.6129465122029387
 30
0.0
 40
10.0
100
AcDbArc
 50
203.6164582438756838
 51
235.4768544250178763
  0
ARC
  5
117
100
AcDbEntity
  8
0
 62
256
370
-1
  6
BYLAYER
100
AcDbCircle
 10
-0.3908237622342079
 20
57.7816475244683971
 30
0.0
 40
5.794841784752955
100
AcDbArc
 50
273.867156967664755
 51
319.2629453864915376
  0
ARC
  5
118
100
AcDbEntity
  8
0
 62
256
370
-1
  6
BYLAYER
100
AcDbCircle
 10
8.4053087084629006
 20
57.3579630626943526
 30
0.0
 40
5.5391931494829336
100
AcDbArc
 50
217.3165973968953608
 51
12.7136515094638529
  0
ARC
  5
119
100
AcDbEntity
  8
0
 62
256
370
-1
  6
BYLAYER
100
AcDbCircle
 10
-14.6007355214245074
 20
-12.5
 30
0.0
 40
9.9208932335925439
100
AcDbArc
 50
357.1299306021554685
 51
28.9882135956163829
  0
ARC
  5
11A
100
AcDbEntity
  8
0
 62
256
370
-1
  6
BYLAYER
100
AcDbCircle
 10
-0.6666666666666722
 20
-19.6666666666666785
 30
0.0
 40
6.3683243915142551
100
AcDbArc
 50
142.5020699193186431
 51
276.009005957494594
  0
ARC
  5
11B
100
AcDbEntity
  8
0
 62
256
370
-1
  6
BYLAYER
100
AcDbCircle
 10
-9.6860148100843464
 20
-12.7463951012925207
 30
0.0
 40
5.0
100
AcDbArc
 50
322.5020699193186147
 51
357.1299306021554116
  0
ARC
  5
11C
100
AcDbEntity
  8
0
 62
256
370
-1
  6
BYLAYER
100
AcDbCircle
 10
0.6666666666666686
 20
-19.6666666666666785
 30
0.0
 40
6.3683243915142551
100
AcDbArc
 50
263.990994042505406
 51
37.4979300806813498
  0
ARC
  5
11D
100
AcDbEntity
  8
0
 62
256
370
-1
  6
BYLAYER
100
AcDbCircle
 10
9.6860148100843446
 20
-12.7463951012925207
 30
0.0
 40
5.0
100
AcDbArc
 50
182.8700693978446168
 51
217.4979300806813569
  0
CIRCLE
  5
11E
100
AcDbEntity
100
AcDbCircle
  8
0
 62
256
370
-1
  6
BYLAYER
 10
0.0
 20
-20.0
 30
0.0
 40
1.0
  0
ARC
  5
11F
100
AcDbEntity
  8
0
 62
256
370
-1
  6
BYLAYER
100
AcDbCircle
 10
-13.0924197271273037
 20
52.6670556139634485
 30
0.0
 40
57.8444773619340253
100
AcDbArc
 50
243.1596196407033403
 51
272.5500534543356252
  0
ARC
  5
120
100
AcDbEntity
  8
0
 62
256
370
-1
  6
BYLAYER
100
AcDbCircle
 10
7.2333333333331069
 20
20.4333333333333229
 30
0.0
 40
51.6356681202267396
100
AcDbArc
 50
163.467723416379215
 51
198.6555219879673189
  0
ARC
  5
121
100
AcDbEntity
  8
0
 62
256
370
-1
  6
BYLAYER
100
AcDbCircle
 10
-16.5839564503648056
 20
17.5839564503648056
 30
0.0
 40
31.386715816393
100
AcDbArc
 50
103.1645630729330918
 51
142.3449402139096094
  0
ARC
  5
122
100
AcDbEntity
  8
0
 62
256
370
-1
  6
BYLAYER
100
AcDbCircle
 10
-24.8709828245143783
 20
53.0144275420267661
 30
0.0
 40
5.0
100
AcDbArc
 50
283.1645630729330492
 51
313.9699694618026911
  0
ARC
  5
123
100
AcDbEntity
  8
0
 62
256
370
-1
  6
BYLAYER
100
AcDbCircle
 10
-37.4743970352164197
 20
33.7037661187780415
 30
0.0
 40
5.0
100
AcDbArc
 50
142.3449402139096094
 51
163.467723416379215
  0
ARC
  5
124
100
AcDbEntity
  8
0
 62
256
370
-1
  6
BYLAYER
100
AcDbCircle
 10
-36.9520445637746775
 20
5.5156283788266727
 30
0.0
 40
5.0
100
AcDbArc
 50
198.6555219879673189
 51
243.1596196407033403
  0
ARC
  5
125
100
AcDbEntity
  8
0
 62
256
370
-1
  6
BYLAYER
100
AcDbCircle
 10
-10.2963346483316265
 20
-10.1151890347170763
 30
0.0
 40
5.0
100
AcDbArc
 50
28.9882135956163687
 51
92.5500534543356395
  0
ARC
  5
126
100
AcDbEntity
  8
0
 62
256
370
-1
  6
BYLAYER
100
AcDbCircle
 10
36.9520445637746775
 20
5.515628378826662
 30
0.0
 40
5.0
100
AcDbArc
 50
296.8403803592966597
 51
341.3444780120327096
  0
ARC
  5
127
100
AcDbEntity
  8
0
 62
256
370
-1
  6
BYLAYER
100
AcDbCircle
 10
10.2963346483316265
 20
-10.1151890347170763
 30
0.0
 40
5.0
100
AcDbArc
 50
87.4499465456643463
 51
151.0117864043836278
  0
ARC
  5
128
100
AcDbEntity
  8
0
 62
256
370
-1
  6
BYLAYER
100
AcDbCircle
 10
14.6007355214245074
 20
-12.5000000000000036
 30
0.0
 40
9.9208932335925439
100
AcDbArc
 50
151.0117864043836278
 51
182.8700693978444747
  0
ARC
  5
129
100
AcDbEntity
  8
0
 62
256
370
-1
  6
BYLAYER
100
AcDbCircle
 10
13.0924197271273144
 20
52.6670556139634414
 30
0.0
 40
57.8444773619340253
100
AcDbArc
 50
267.4499465456643748
 51
296.8403803592966597
  0
ARC
  5
12A
100
AcDbEntity
  8
0
 62
256
370
-1
  6
BYLAYER
100
AcDbCircle
 10
-7.2333333333330998
 20
20.4333333333333229
 30
0.0
 40
51.6356681202267396
100
AcDbArc
 50
341.3444780120327096
 51
16.5322765836207886
  0
ARC
  5
12B
100
AcDbEntity
  8
0
 62
256
370
-1
  6
BYLAYER
100
AcDbCircle
 10
16.5839564503648127
 20
17.583956450364802
 30
0.0
 40
31.386715816393
100
AcDbArc
 50
37.6550597860904048
 51
76.8354369270669082
  0
ARC
  5
12C
100
AcDbEntity
  8
0
 62
256
370
-1
  6
BYLAYER
100
AcDbCircle
 10
24.870982824514396
 20
53.0144275420267661
 30
0.0
 40
5.0
100
AcDbArc
 50
226.0300305381973374
 51
256.8354369270669508
  0
ARC
  5
12D
100
AcDbEntity
  8
0
 62
256
370
-1
  6
BYLAYER
100
AcDbCircle
 10
37.4743970352164197
 20
33.7037661187780486
 30
0.0
 40
5.0
100
AcDbArc
 50
16.5322765836207637
 51
37.6550597860904048
  0
INSERT
  5
12E
100
AcDbEntity
100
AcDbBlockReference
  8
0
 62
256
370
-1
  6
BYLAYER
  2
servo_mount
 10
0.0
 20
21.0000000000000036
 30
0.0
 50
90.0
  0
INSERT
  5
12F
100
AcDbEntity
100
AcDbBlockReference
  8
0
 62
256
370
-1
  6
BYLAYER
  2
servo_mount
 10
0.0
 20
4.0
 30
0.0
 50
90.0
  0
DIMENSION
  5
130
100
AcDbEntity
  8
0
 62
256
370
-1
  6
BYLAYER
100
AcDbDimension
 10
8.9999999999999947
 20
39.3494683411869204
 30
0.0
 11
17.0
 21
42.0
 31
0.0
 70
129
 71
8
 72
2
 41
1.0
 42
0.0
  1
5/64"
  3
Standard
100
AcDbAlignedDimension
 13
8.9999999999999947
 23
42.9999999999999929
 33
0.0
 14
10.9999999999999947
 24
42.9999999999999929
 34
0.0
1001
ACAD
1000
DSTYLE
1002
{
1070
144
1040
1
1002
}
  0
ENDBLK
  5
131
100
AcDbEntity
  8
0
100
AcDbBlockEnd
  0
BLOCK
  5
132
100
AcDbEntity
  8
0
100
AcDbBlockBegin
  2
thorax_top
 70
0
 10
0.0
 20
0.0
 30
0.0
  3
thorax_top
  1

  0
CIRCLE
  5
133
100
AcDbEntity
100
AcDbCircle
  8
0
 62
256
370
-1
  6
BYLAYER
 10
-105.5000000000000284
 20
-24.0000000000000178
 30
0.0
 40
2.0
  0
CIRCLE
  5
134
100
AcDbEntity
100
AcDbCircle
  8
0
 62
256
370
-1
  6
BYLAYER
 10
-105.5000000000000284
 20
23.9999999999999538
 30
0.0
 40
2.0
  0
CIRCLE
  5
135
100
AcDbEntity
100
AcDbCircle
  8
0
 62
256
370
-1
  6
BYLAYER
 10
4.5
 20
21.0
 30
0.0
 40
2.0
  0
CIRCLE
  5
136
100
AcDbEntity
100
AcDbCircle
  8
0
 62
256
370
-1
  6
BYLAYER
 10
114.5
 20
15.0
 30
0.0
 40
2.0
  0
CIRCLE
  5
137
100
AcDbEntity
100
AcDbCircle
  8
0
 62
256
370
-1
  6
BYLAYER
 10
119.1446609406726793
 20
-0.0000000000000249
 30
0.0
 40
3.0
  0
CIRCLE
  5
138
100
AcDbEntity
100
AcDbCircle
  8
0
 62
256
370
-1
  6
BYLAYER
 10
-122.1446609406726793
 20
-0.0000000000000497
 30
0.0
 40
3.0
  0
CIRCLE
  5
139
100
AcDbEntity
100
AcDbCircle
  8
0
 62
256
370
-1
  6
BYLAYER
 10
-105.5
 20
-24.0000000000000426
 30
0.0
 40
2.0
  0
CIRCLE
  5
13A
100
AcDbEntity
100
AcDbCircle
  8
0
 62
256
370
-1
  6
BYLAYER
 10
-105.5
 20
23.9999999999998543
 30
0.0
 40
2.0
  0
CIRCLE
  5
13B
100
AcDbEntity
100
AcDbCircle
  8
0
 62
256
370
-1
  6
BYLAYER
 10
114.5
 20
-15.0000000000000497
 30
0.0
 40
2.0
  0
INSERT
  5
13C
100
AcDbEntity
100
AcDbBlockReference
  8
0
 62
256
370
-1
  6
BYLAYER
  2
control_pcb
 10
-10.8553390593273349
 20
-0.0000000000000062
 30
0.0
  0
CIRCLE
  5
13D
100
AcDbEntity
100
AcDbCircle
  8
0
 62
256
370
-1
  6
BYLAYER
 10
0.0
 20
0.0
 30
0.0
 40
3.0
  0
CIRCLE
  5
13E
100
AcDbEntity
100
AcDbCircle
  8
0
 62
256
370
-1
  6
BYLAYER
 10
4.5
 20
-21.0000000000000888
 30
0.0
 40
2.0
  0
ARC
  5
13F
100
AcDbEntity
  8
0
 62
256
370
-1
  6
BYLAYER
100
AcDbCircle
 10
-105.0
 20
-4.9999999999999361
 30
0.0
 40
35.3553390593273278
100
AcDbArc
 50
62.7769549194838206
 51
155.1361393275893761
  0
ARC
  5
140
100
AcDbEntity
  8
0
 62
256
370
-1
  6
BYLAYER
100
AcDbCircle
 10
-32.203075820903365
 20
-40.3225560199579363
 30
0.0
 40
76.9633466382750129
100
AcDbArc
 50
51.1603344342249216
 51
119.3150114322190092
  0
ARC
  5
141
100
AcDbEntity
  8
0
 62
256
370
-1
  6
BYLAYER
100
AcDbCircle
 10
42.4157028561642875
 20
165.5317859673484122
 30
0.0
 40
157.079138791649541
100
AcDbArc
 50
272.6792705333384674
 51
293.7987210029719449
  0
ARC
  5
142
100
AcDbEntity
  8
0
 62
256
370
-1
  6
BYLAYER
100
AcDbCircle
 10
-79.6773888019521337
 20
44.2237638187653985
 30
0.0
 40
20.0
100
AcDbArc
 50
242.776954919483785
 51
299.3150114322190234
  0
ARC
  5
143
100
AcDbEntity
  8
0
 62
256
370
-1
  6
BYLAYER
100
AcDbCircle
 10
-79.6773888019521337
 20
-44.2237638187654838
 30
0.0
 40
20.0
100
AcDbArc
 50
60.6849885677809979
 51
117.2230450805162434
  0
ARC
  5
144
100
AcDbEntity
  8
0
 62
256
370
-1
  6
BYLAYER
100
AcDbCircle
 10
-77.2051282051277923
 20
-25.5641025641035782
 30
0.0
 40
41.5815699072331313
100
AcDbArc
 50
93.9614476855904144
 51
125.9565319487282835
  0
ARC
  5
145
100
AcDbEntity
  8
0
 62
256
370
-1
  6
BYLAYER
100
AcDbCircle
 10
-42.1502242152465811
 20
-39.585201793722824
 30
0.0
 40
65.0808879712543558
100
AcDbArc
 50
66.6988415885735719
 51
117.5176902583761773
  0
ARC
  5
146
100
AcDbEntity
  8
0
 62
256
370
-1
  6
BYLAYER
100
AcDbCircle
 10
-32.5000000000000426
 20
-0.4999999999999888
 30
0.0
 40
28.5043856274784915
100
AcDbArc
 50
1.0050860052541419
 51
15.8226861047239282
  0
ARC
  5
147
100
AcDbEntity
  8
0
 62
256
370
-1
  6
BYLAYER
100
AcDbCircle
 10
-81.4595052643610984
 20
35.870334261485624
 30
0.0
 40
20.0
100
AcDbArc
 50
273.9614476855904286
 51
297.5176902583761489
  0
ARC
  5
148
100
AcDbEntity
  8
0
 62
256
370
-1
  6
BYLAYER
100
AcDbCircle
 10
-24.3178446127229826
 20
1.818816102953412
 30
0.0
 40
20.0
100
AcDbArc
 50
15.8226861047239051
 51
66.6988415885735719
  0
ARC
  5
149
100
AcDbEntity
  8
0
 62
256
370
-1
  6
BYLAYER
100
AcDbCircle
 10
-77.2051282051278065
 20
25.5641025641034858
 30
0.0
 40
41.5815699072331313
100
AcDbArc
 50
234.0434680512717591
 51
266.0385523144095714
  0
ARC
  5
14A
100
AcDbEntity
  8
0
 62
256
370
-1
  6
BYLAYER
100
AcDbCircle
 10
-42.1502242152465953
 20
39.5852017937227458
 30
0.0
 40
65.0808879712543558
100
AcDbArc
 50
242.4823097416238511
 51
293.3011584114263997
  0
ARC
  5
14B
100
AcDbEntity
  8
0
 62
256
370
-1
  6
BYLAYER
100
AcDbCircle
 10
-32.5000000000000426
 20
0.5000000000003469
 30
0.0
 40
28.5043856274784915
100
AcDbArc
 50
344.177313895276086
 51
358.9949139947459003
  0
ARC
  5
14C
100
AcDbEntity
  8
0
 62
256
370
-1
  6
BYLAYER
100
AcDbCircle
 10
-81.4595052643610984
 20
-35.8703342614857448
 30
0.0
 40
20.0
100
AcDbArc
 50
62.4823097416238724
 51
86.038552314409614
  0
ARC
  5
14D
100
AcDbEntity
  8
0
 62
256
370
-1
  6
BYLAYER
100
AcDbCircle
 10
-24.317844612722979
 20
-1.8188161029534575
 30
0.0
 40
20.0
100
AcDbArc
 50
293.3011584114263997
 51
344.177313895276086
  0
ARC
  5
14E
100
AcDbEntity
  8
0
 62
256
370
-1
  6
BYLAYER
100
AcDbCircle
 10
-95.7489201015401648
 20
-0.0000000000000513
 30
0.0
 40
10.0
100
AcDbArc
 50
125.9565319487283119
 51
234.0434680512717591
  0
ARC
  5
14F
100
AcDbEntity
  8
0
 62
256
370
-1
  6
BYLAYER
100
AcDbCircle
 10
47.421122748832687
 20
58.569700460102311
 30
0.0
 40
50.0
100
AcDbArc
 50
231.1603344342248931
 51
272.6792705333384674
  0
ARC
  5
150
100
AcDbEntity
  8
0
 62
256
370
-1
  6
BYLAYER
100
AcDbCircle
 10
-32.203075820903365
 20
40.3225560199578439
 30
0.0
 40
76.9633466382750129
100
AcDbArc
 50
240.6849885677809766
 51
308.8396655657750784
  0
ARC
  5
151
100
AcDbEntity
  8
0
 62
256
370
-1
  6
BYLAYER
100
AcDbCircle
 10
42.4157028561643017
 20
-165.5317859673484975
 30
0.0
 40
157.079138791649541
100
AcDbArc
 50
66.2012789970280551
 51
87.3207294666615041
  0
ARC
  5
152
100
AcDbEntity
  8
0
 62
256
370
-1
  6
BYLAYER
100
AcDbCircle
 10
47.421122748832687
 20
-58.5697004601024744
 30
0.0
 40
50.0
100
AcDbArc
 50
87.3207294666615041
 51
128.8396655657751069
  0
ARC
  5
153
100
AcDbEntity
  8
0
 62
256
370
-1
  6
BYLAYER
100
AcDbCircle
 10
112.6941987424734322
 20
4.6845299799288096
 30
0.0
 40
18.4600422939747233
100
AcDbArc
 50
72.270329545515267
 51
111.9260488694684312
  0
ARC
  5
154
100
AcDbEntity
  8
0
 62
256
370
-1
  6
BYLAYER
100
AcDbCircle
 10
115.2705045696972661
 20
12.7427533511474067
 30
0.0
 40
10.0
100
AcDbArc
 50
40.6528510495706072
 51
72.2703295455152812
  0
ARC
  5
155
100
AcDbEntity
  8
0
 62
256
370
-1
  6
BYLAYER
100
AcDbCircle
 10
112.6941987424734322
 20
-4.6845299799288593
 30
0.0
 40
18.4600422939747233
100
AcDbArc
 50
248.073951130531583
 51
287.7296704544846762
  0
ARC
  5
156
100
AcDbEntity
  8
0
 62
256
370
-1
  6
BYLAYER
100
AcDbCircle
 10
36.7857142857143558
 20
2.0714285714285712
 30
0.0
 40
29.8576554979914413
100
AcDbArc
 50
158.5294820520224732
 51
180.9139942350693104
  0
ARC
  5
157
100
AcDbEntity
  8
0
 62
256
370
-1
  6
BYLAYER
100
AcDbCircle
 10
11.4999999999999982
 20
11.4999999999999982
 30
0.0
 40
2.9154759474226526
100
AcDbArc
 50
39.8638998786603906
 51
149.036243467926397
  0
ARC
  5
158
100
AcDbEntity
  8
0
 62
256
370
-1
  6
BYLAYER
100
AcDbCircle
 10
36.7857142857143558
 20
-2.0714285714285716
 30
0.0
 40
29.8576554979914413
100
AcDbArc
 50
179.0860057649306896
 51
201.4705179479775268
  0
ARC
  5
159
100
AcDbEntity
  8
0
 62
256
370
-1
  6
BYLAYER
100
AcDbCircle
 10
11.5
 20
-11.4999999999999893
 30
0.0
 40
2.9154759474226526
100
AcDbArc
 50
210.963756532073603
 51
320.1361001213401209
  0
ARC
  5
15A
100
AcDbEntity
  8
0
 62
256
370
-1
  6
BYLAYER
100
AcDbCircle
 10
-93.0554189314156304
 20
0.0
 30
0.0
 40
100.0
100
AcDbArc
 50
359.0860057649298369
 51
0.9139942350701037
  0
ARC
  5
15B
100
AcDbEntity
  8
0
 62
256
370
-1
  6
BYLAYER
100
AcDbCircle
 10
139.3571428571416959
 20
-104.0714285714253862
 30
0.0
 40
119.8087336259774247
100
AcDbArc
 50
106.1659256150365991
 51
114.9771059354581126
  0
ARC
  5
15C
100
AcDbEntity
  8
0
 62
256
370
-1
  6
BYLAYER
100
AcDbCircle
 10
106.4999999999999432
 20
4.4999999999999849
 30
0.0
 40
6.5192024052027069
100
AcDbArc
 50
4.3987053549956752
 51
94.3987053549950303
  0
ARC
  5
15D
100
AcDbEntity
  8
0
 62
256
370
-1
  6
BYLAYER
100
AcDbCircle
 10
105.0000000000000142
 20
4.0000000000000027
 30
0.0
 40
8.0622577482985385
100
AcDbArc
 50
357.8786720594538906
 51
7.1250163489017568
  0
ARC
  5
15E
100
AcDbEntity
  8
0
 62
256
370
-1
  6
BYLAYER
100
AcDbCircle
 10
139.3571428571416959
 20
104.0714285714253151
 30
0.0
 40
119.8087336259774247
100
AcDbArc
 50
245.0228940645418731
 51
253.8340743849633441
  0
ARC
  5
15F
100
AcDbEntity
  8
0
 62
256
370
-1
  6
BYLAYER
100
AcDbCircle
 10
106.4999999999999432
 20
-4.5000000000000551
 30
0.0
 40
6.5192024052027069
100
AcDbArc
 50
265.6012946450049981
 51
355.601294645004316
  0
ARC
  5
160
100
AcDbEntity
  8
0
 62
256
370
-1
  6
BYLAYER
100
AcDbCircle
 10
105.0000000000000142
 20
-4.0000000000000728
 30
0.0
 40
8.0622577482985385
100
AcDbArc
 50
352.8749836510982618
 51
2.1213279405464363
  0
ARC
  5
161
100
AcDbEntity
  8
0
 62
256
370
-1
  6
BYLAYER
100
AcDbCircle
 10
212.9882009742717628
 20
-0.0000000000000346
 30
0.0
 40
100.0
100
AcDbArc
 50
177.8786720594549422
 51
182.1213279405450578
  0
ARC
  5
162
100
AcDbEntity
  8
0
 62
256
370
-1
  6
BYLAYER
100
AcDbCircle
 10
90.878456077244806
 20
-0.0000000000000284
 30
0.0
 40
5.0
100
AcDbArc
 50
114.9771059354580842
 51
245.0228940645418447
  0
ARC
  5
163
100
AcDbEntity
  8
0
 62
256
370
-1
  6
BYLAYER
100
AcDbCircle
 10
-142.5000000000000284
 20
16.4999999999999716
 30
0.0
 40
9.6176920308356397
100
AcDbArc
 50
261.0273733851037719
 51
281.0521357661016282
  0
ARC
  5
164
100
AcDbEntity
  8
0
 62
256
370
-1
  6
BYLAYER
100
AcDbCircle
 10
-145.0384615384614335
 20
0.1153846153845288
 30
0.0
 40
6.9624946219690678
100
AcDbArc
 50
81.4222834749844395
 51
180.9495668564352115
  0
ARC
  5
165
100
AcDbEntity
  8
0
 62
256
370
-1
  6
BYLAYER
100
AcDbCircle
 10
-141.6147785610889684
 20
11.967951600464124
 30
0.0
 40
5.0
100
AcDbArc
 50
281.0521357661015713
 51
335.1361393275893192
  0
ARC
  5
166
100
AcDbEntity
  8
0
 62
256
370
-1
  6
BYLAYER
100
AcDbCircle
 10
-105.0
 20
4.9999999999998561
 30
0.0
 40
35.3553390593273278
100
AcDbArc
 50
204.8638606724106239
 51
297.2230450805161013
  0
ARC
  5
167
100
AcDbEntity
  8
0
 62
256
370
-1
  6
BYLAYER
100
AcDbCircle
 10
-142.5000000000000284
 20
-16.5000000000000036
 30
0.0
 40
9.6176920308356397
100
AcDbArc
 50
78.9478642338983718
 51
98.9726266148962139
  0
ARC
  5
168
100
AcDbEntity
  8
0
 62
256
370
-1
  6
BYLAYER
100
AcDbCircle
 10
-145.0384615384614335
 20
-0.1153846153845697
 30
0.0
 40
6.9624946219690678
100
AcDbArc
 50
179.0504331435647885
 51
278.5777165250155463
  0
ARC
  5
169
100
AcDbEntity
  8
0
 62
256
370
-1
  6
BYLAYER
100
AcDbCircle
 10
-141.6147785610889684
 20
-11.967951600464156
 30
0.0
 40
5.0
100
AcDbArc
 50
24.8638606724106488
 51
78.9478642338984145
  0
CIRCLE
  5
16A
100
AcDbEntity
100
AcDbCircle
  8
0
 62
256
370
-1
  6
BYLAYER
 10
-146.0
 20
0.0
 30
0.0
 40
1.0
  0
ARC
  5
16B
100
AcDbEntity
  8
0
 62
256
370
-1
  6
BYLAYER
100
AcDbCircle
 10
136.7281077230979349
 20
16.6108258783455582
 30
0.0
 40
12.6748033238387272
100
AcDbArc
 50
181.980081677570638
 51
295.0480018979923216
  0
ARC
  5
16C
100
AcDbEntity
  8
0
 62
256
370
-1
  6
BYLAYER
100
AcDbCircle
 10
119.0638580402215041
 20
16.0001249061993853
 30
0.0
 40
5.0
100
AcDbArc
 50
1.9800816775706673
 51
40.6528510495705859
  0
ARC
  5
16D
100
AcDbEntity
  8
0
 62
256
370
-1
  6
BYLAYER
100
AcDbCircle
 10
115.2705045696972519
 20
-12.7427533511473481
 30
0.0
 40
10.0
100
AcDbArc
 50
287.7296704544846762
 51
319.3471489504293572
  0
ARC
  5
16E
100
AcDbEntity
  8
0
 62
256
370
-1
  6
BYLAYER
100
AcDbCircle
 10
136.7281077230979349
 20
-16.6108258783455405
 30
0.0
 40
12.6748033238387272
100
AcDbArc
 50
64.9519981020082042
 51
178.019918322429362
  0
ARC
  5
16F
100
AcDbEntity
  8
0
 62
256
370
-1
  6
BYLAYER
100
AcDbCircle
 10
119.0638580402215041
 20
-16.0001249061993676
 30
0.0
 40
5.0
100
AcDbArc
 50
319.3471489504293572
 51
358.0199183224293051
  0
ARC
  5
170
100
AcDbEntity
  8
0
 62
256
370
-1
  6
BYLAYER
100
AcDbCircle
 10
47.1585365853658018
 20
57.1097560975606982
 30
0.0
 40
55.1829605174399234
100
AcDbArc
 50
233.8784565628228336
 51
272.9515612897109236
  0
ARC
  5
171
100
AcDbEntity
  8
0
 62
256
370
-1
  6
BYLAYER
100
AcDbCircle
 10
50.0
 20
-3.0000000000000164
 30
0.0
 40
5.0000000000000098
100
AcDbArc
 50
48.5903778907293571
 51
90.0000000000000853
  0
ARC
  5
172
100
AcDbEntity
  8
0
 62
256
370
-1
  6
BYLAYER
100
AcDbCircle
 10
47.1585365853657805
 20
-57.1097560975606982
 30
0.0
 40
55.1829605174399234
100
AcDbArc
 50
87.0484387102891191
 51
126.1215434371771096
  0
ARC
  5
173
100
AcDbEntity
  8
0
 62
256
370
-1
  6
BYLAYER
100
AcDbCircle
 10
50.0
 20
3.0000000000000133
 30
0.0
 40
5.0000000000000098
100
AcDbArc
 50
269.9999999999998863
 51
311.4096221092706287
  0
ARC
  5
174
100
AcDbEntity
  8
0
 62
256
370
-1
  6
BYLAYER
100
AcDbCircle
 10
52.6457513110645863
 20
-0.0000000000000013
 30
0.0
 40
1.0
100
AcDbArc
 50
311.409622109270515
 51
48.5903778907294779
  0
ARC
  5
175
100
AcDbEntity
  8
0
 62
256
370
-1
  6
BYLAYER
100
AcDbCircle
 10
17.5756751851937203
 20
16.5735520612533129
 30
0.0
 40
5.0
100
AcDbArc
 50
219.8638998786603338
 51
233.8784565628228336
  0
ARC
  5
176
100
AcDbEntity
  8
0
 62
256
370
-1
  6
BYLAYER
100
AcDbCircle
 10
17.5756751851937665
 20
-16.5735520612532561
 30
0.0
 40
5.0
100
AcDbArc
 50
126.1215434371771096
 51
140.1361001213401209
  0
CIRCLE
  5
177
100
AcDbEntity
100
AcDbCircle
  8
0
 62
256
370
-1
  6
BYLAYER
 10
203.0
 20
0.0
 30
0.0
 40
1.0
  0
ARC
  5
178
100
AcDbEntity
  8
0
 62
256
370
-1
  6
BYLAYER
100
AcDbCircle
 10
162.0
 20
0.0
 30
0.0
 40
18.0
100
AcDbArc
 50
210.4442167655476226
 51
329.5572116617275924
  0
ARC
  5
179
100
AcDbEntity
  8
0
 62
256
370
-1
  6
BYLAYER
100
AcDbCircle
 10
137.8605590265880778
 20
14.1875787043160084
 30
0.0
 40
10.0
100
AcDbArc
 50
295.0480018979923216
 51
329.5557832344522922
  0
ARC
  5
17A
100
AcDbEntity
  8
0
 62
256
370
-1
  6
BYLAYER
100
AcDbCircle
 10
137.8605590265880494
 20
-14.1875787043159836
 30
0.0
 40
10.0
100
AcDbArc
 50
30.4442167655476652
 51
64.9519981020082042
  0
ARC
  5
17B
100
AcDbEntity
  8
0
 62
256
370
-1
  6
BYLAYER
100
AcDbCircle
 10
186.2586206896550891
 20
17.7068965517240215
 30
0.0
 40
13.5219247692376658
100
AcDbArc
 50
268.0665340656130411
 51
281.7423971263444855
  0
ARC
  5
17C
100
AcDbEntity
  8
0
 62
256
370
-1
  6
BYLAYER
100
AcDbCircle
 10
186.2586206896550607
 20
-17.7068965517240322
 30
0.0
 40
13.5219247692376658
100
AcDbArc
 50
78.2576028736550313
 51
91.9334659343869873
  0
ARC
  5
17D
100
AcDbEntity
  8
0
 62
256
370
-1
  6
BYLAYER
100
AcDbCircle
 10
162.0
 20
0.0
 30
0.0
 40
18.0
100
AcDbArc
 50
30.4427883382723685
 51
149.5557832344522353
  0
ARC
  5
17E
100
AcDbEntity
  8
0
 62
256
370
-1
  6
BYLAYER
100
AcDbCircle
 10
201.0
 20
0.0
 30
0.0
 40
10.0
100
AcDbArc
 50
225.4741252083807694
 51
134.5258747916193727
  0
ARC
  5
17F
100
AcDbEntity
  8
0
 62
256
370
-1
  6
BYLAYER
100
AcDbCircle
 10
186.1397946730166666
 20
14.186976885319746
 30
0.0
 40
10.0
100
AcDbArc
 50
210.4427883382723792
 51
268.0665340656130411
  0
ARC
  5
180
100
AcDbEntity
  8
0
 62
256
370
-1
  6
BYLAYER
100
AcDbCircle
 10
186.1397946730166382
 20
-14.1869768853197655
 30
0.0
 40
10.0
100
AcDbArc
 50
91.9334659343869873
 51
149.5572116617275356
  0
ARC
  5
181
100
AcDbEntity
  8
0
 62
256
370
-1
  6
BYLAYER
100
AcDbCircle
 10
186.9753740612397053
 20
14.2586769118965559
 30
0.0
 40
10.0
100
AcDbArc
 50
281.7423971263444855
 51
314.5258747916192306
  0
ARC
  5
182
100
AcDbEntity
  8
0
 62
256
370
-1
  6
BYLAYER
100
AcDbCircle
 10
186.9753740612397053
 20
-14.2586769118965755
 30
0.0
 40
10.0
100
AcDbArc
 50
45.4741252083807126
 51
78.2576028736550313
  0
ENDBLK
  5
183
100
AcDbEntity
  8
0
100
AcDbBlockEnd
  0
BLOCK
  5
184
100
AcDbEntity
  8
0
100
AcDbBlockBegin
  2
jaw
 70
0
 10
0.0
 20
0.0
 30
0.0
  3
jaw
  1

  0
ARC
  5
185
100
AcDbEntity
  8
0
 62
256
370
-1
  6
BYLAYER
100
AcDbCircle
 10
9.5533630491981967
 20
-19.3105924677127518
 30
0.0
 40
30.8219078681653933
100
AcDbArc
 50
129.0962960713528105
 51
269.8806810813503603
  0
ARC
  5
186
100
AcDbEntity
  8
0
 62
256
370
-1
  6
BYLAYER
100
AcDbCircle
 10
-6.0617717940020839
 20
-10.7342332274748173
 30
0.0
 40
4.0
100
AcDbArc
 50
106.9794944579389409
 51
212.4682641822593041
  0
ARC
  5
187
100
AcDbEntity
  8
0
 62
256
370
-1
  6
BYLAYER
100
AcDbCircle
 10
-7.8607136390756978
 20
-23.3268261429906261
 30
0.0
 40
4.0
100
AcDbArc
 50
134.3083766200226421
 51
270.3408710098530037
  0
ARC
  5
188
100
AcDbEntity
  8
0
 62
256
370
-1
  6
BYLAYER
100
AcDbCircle
 10
-4.4427241334357177
 20
-29.4432284162411406
 30
0.0
 40
4.0
100
AcDbArc
 50
148.054101082275622
 51
275.6796406252417455
  0
ARC
  5
189
100
AcDbEntity
  8
0
 62
256
370
-1
  6
BYLAYER
100
AcDbCircle
 10
-8.9400787461199798
 20
-16.8506355007253887
 30
0.0
 40
4.0
100
AcDbArc
 50
97.1294885267915049
 51
244.6162677960296037
  0
ARC
  5
18A
100
AcDbEntity
  8
0
 62
256
370
-1
  6
BYLAYER
100
AcDbCircle
 10
3.4726199848885244
 20
-41.6760329627422266
 30
0.0
 40
4.0
100
AcDbArc
 50
146.700480830366331
 51
289.5728738404105229
  0
ARC
  5
18B
100
AcDbEntity
  8
0
 62
256
370
-1
  6
BYLAYER
100
AcDbCircle
 10
-0.6649462587810149
 20
-35.559630689491712
 30
0.0
 40
4.0
100
AcDbArc
 50
147.7232187137682899
 51
281.4539097298963952
  0
ARC
  5
18C
100
AcDbEntity
  8
0
 62
256
370
-1
  6
BYLAYER
100
AcDbCircle
 10
10.6933726685869033
 20
-44.2545162740145201
 30
0.0
 40
6.0
100
AcDbArc
 50
191.4432291928348207
 51
258.4221385745325961
  0
ARC
  5
18D
100
AcDbEntity
  8
0
 62
256
370
-1
  6
BYLAYER
100
AcDbCircle
 10
0.0
 20
0.0
 30
0.0
 40
10.0
100
AcDbArc
 50
223.6981914518283077
 51
290.487315114722719
  0
ARC
  5
18E
100
AcDbEntity
  8
0
 62
256
370
-1
  6
BYLAYER
100
AcDbCircle
 10
-41.4150041654592087
 20
43.4142537650365909
 30
0.0
 40
50.0
100
AcDbArc
 50
309.0962960713528105
 51
313.6499072896236271
  0
CIRCLE
  5
18F
100
AcDbEntity
100
AcDbCircle
  8
0
 62
256
370
-1
  6
DOT2
 10
-8.9400787461199798
 20
-16.8506355007253887
 30
0.0
 40
4.0
  0
CIRCLE
  5
190
100
AcDbEntity
100
AcDbCircle
  8
0
 62
256
370
-1
  6
DOT2
 10
-7.8607136390756978
 20
-23.3268261429906261
 30
0.0
 40
4.0
  0
CIRCLE
  5
191
100
AcDbEntity
100
AcDbCircle
  8
0
 62
256
370
-1
  6
DOT2
 10
-4.4427241334357177
 20
-29.4432284162411406
 30
0.0
 40
4.0
  0
CIRCLE
  5
192
100
AcDbEntity
100
AcDbCircle
  8
0
 62
256
370
-1
  6
DOT2
 10
-0.6649462587810149
 20
-35.559630689491712
 30
0.0
 40
4.0
  0
CIRCLE
  5
193
100
AcDbEntity
100
AcDbCircle
  8
0
 62
256
370
-1
  6
DOT2
 10
3.4726199848885244
 20
-41.6760329627422266
 30
0.0
 40
4.0
  0
CIRCLE
  5
194
100
AcDbEntity
100
AcDbCircle
  8
0
 62
256
370
-1
  6
DOT2
 10
10.5861743032085656
 20
-44.2608883068370744
 30
0.0
 40
6.0
  0
CIRCLE
  5
195
100
AcDbEntity
100
AcDbCircle
  8
0
 62
256
370
-1
  6
BYLAYER
 10
0.0
 20
0.0
 30
0.0
 40
1.0
  0
ARC
  5
196
100
AcDbEntity
  8
0
 62
256
370
-1
  6
BYLAYER
100
AcDbCircle
 10
0.0
 20
0.0
 30
0.0
 40
10.0
100
AcDbArc
 50
69.5126848852773378
 51
133.6499072896239682
  0
ARC
  5
197
100
AcDbEntity
  8
0
 62
256
370
-1
  6
BYLAYER
100
AcDbCircle
 10
-4.0
 20
0.0
 30
0.0
 40
12.0
100
AcDbArc
 50
308.6821874534894619
 51
51.3178125465105595
  0
CIRCLE
  5
198
100
AcDbEntity
100
AcDbCircle
  8
0
 62
256
370
-1
  6
BYLAYER
 10
6.0
 20
-4.0
 30
0.0
 40
0.5
  0
ENDBLK
  5
199
100
AcDbEntity
  8
0
100
AcDbBlockEnd
  0
BLOCK
  5
19A
100
AcDbEntity
  8
0
100
AcDbBlockBegin
  2
femur_tibia
 70
0
 10
0.0
 20
0.0
 30
0.0
  3
femur_tibia
  1

  0
ARC
  5
19B
100
AcDbEntity
  8
0
 62
256
370
-1
  6
BYLAYER
100
AcDbCircle
 10
0.0
 20
0.0
 30
0.0
 40
5.0
100
AcDbArc
 50
79.184499018653014
 51
280.8155009813469292
  0
ARC
  5
19C
100
AcDbEntity
  8
0
 62
256
370
-1
  6
BYLAYER
100
AcDbCircle
 10
31.9000000000000057
 20
0.0
 30
0.0
 40
5.0
100
AcDbArc
 50
259.1844990186529571
 51
100.8155009813470002
  0
ARC
  5
19D
100
AcDbEntity
  8
0
 62
256
370
-1
  6
BYLAYER
100
AcDbCircle
 10
15.9500000000000171
 20
83.4901042040312973
 30
0.0
 40
80.0
100
AcDbArc
 50
259.1844990186529571
 51
280.8155009813469292
  0
ARC
  5
19E
100
AcDbEntity
  8
0
 62
256
370
-1
  6
BYLAYER
100
AcDbCircle
 10
15.9500000000000171
 20
-83.4901042040312831
 30
0.0
 40
80.0
100
AcDbArc
 50
79.184499018653014
 51
100.8155009813470144
  0
CIRCLE
  5
19F
100
AcDbEntity
100
AcDbCircle
  8
0
 62
256
370
-1
  6
BYLAYER
 10
0.0
 20
0.0
 30
0.0
 40
1.0
  0
CIRCLE
  5
1A0
100
AcDbEntity
100
AcDbCircle
  8
0
 62
256
370
-1
  6
BYLAYER
 10
31.9000000000000057
 20
0.0
 30
0.0
 40
1.0
  0
DIMENSION
  5
1A1
100
AcDbEntity
  8
0
 62
256
370
-1
  6
BYLAYER
100
AcDbDimension
 10
-0.9999999999999993
 20
2.1550058548009448
 30
0.0
 11
6.8931791569086762
 21
-0.6292886416861769
 31
0.0
 70
129
 71
8
 72
2
 41
1.0
 42
1.5707963267948966
  1
5/64"
  3
Standard
100
AcDbAlignedDimension
 13
-1.0
 23
0.0000000000000001
 33
0.0
 14
1.0
 24
-0.0000000000000002
 34
0.0
1001
ACAD
1000
DSTYLE
1002
{
1070
144
1040
1
1002
}
  0
ENDBLK
  5
1A2
100
AcDbEntity
  8
0
100
AcDbBlockEnd
  0
BLOCK
  5
1A3
100
AcDbEntity
  8
0
100
AcDbBlockBegin
  2
femur
 70
0
 10
0.0
 20
0.0
 30
0.0
  3
femur
  1

  0
LINE
  5
1A4
100
AcDbEntity
100
AcDbLine
  8
0
 62
256
370
-1
  6
BYLAYER
 10
-28.0908128558425467
 20
-2.0737481650195875
 30
0.0
 11
-13.3116681560216286
 21
-2.0737481650195875
 31
0.0
  0
LINE
  5
1A5
100
AcDbEntity
100
AcDbLine
  8
0
 62
256
370
-1
  6
BYLAYER
 10
-13.3116681560216286
 20
-2.0737481650195875
 30
0.0
 11
-13.3116681560216286
 21
1.0262518349804139
 31
0.0
  0
LINE
  5
1A6
100
AcDbEntity
100
AcDbLine
  8
0
 62
256
370
-1
  6
BYLAYER
 10
-13.3116681560216286
 20
1.0262518349804139
 30
0.0
 11
-28.0908128558425467
 21
1.0262518349804139
 31
0.0
  0
CIRCLE
  5
1A7
100
AcDbEntity
100
AcDbCircle
  8
0
 62
256
370
-1
  6
BYLAYER
 10
31.28833184397838
 20
35.4762518349804168
 30
0.0
 40
1.0
  0
CIRCLE
  5
1A8
100
AcDbEntity
100
AcDbCircle
  8
0
 62
256
370
-1
  6
BYLAYER
 10
31.28833184397838
 20
15.4762518349804203
 30
0.0
 40
1.0
  0
ARC
  5
1A9
100
AcDbEntity
  8
0
 62
256
370
-1
  6
BYLAYER
100
AcDbCircle
 10
31.28833184397838
 20
35.4762518349804168
 30
0.0
 40
5.0
100
AcDbArc
 50
359.5918614598647878
 51
164.9540000929168286
  0
LINE
  5
1AA
100
AcDbEntity
100
AcDbLine
  8
0
 62
256
370
-1
  6
BYLAYER
 10
20.1169204548863121
 20
13.178279560002947
 30
0.0
 11
26.4597432330704478
 21
36.774224109957899
 31
0.0
  0
ARC
  5
1AB
100
AcDbEntity
  8
0
 62
256
370
-1
  6
BYLAYER
100
AcDbCircle
 10
15.28833184397838
 20
14.4762518349804203
 30
0.0
 40
5.0
100
AcDbArc
 50
265.0595827500652604
 51
344.9540000929168286
  0
LINE
  5
1AC
100
AcDbEntity
100
AcDbLine
  8
0
 62
256
370
-1
  6
BYLAYER
 10
-5.063013065265638
 20
7.3904358541540631
 30
0.0
 11
1.3513449092440288
 21
10.0858159808263785
 31
0.0
  0
LINE
  5
1AD
100
AcDbEntity
100
AcDbLine
  8
0
 62
256
370
-1
  6
BYLAYER
 10
3.7189305331452776
 20
10.457675804980159
 30
0.0
 11
14.857733154811493
 21
9.4948278649807012
 31
0.0
  0
LINE
  5
1AE
100
AcDbEntity
100
AcDbLine
  8
0
 62
256
370
-1
  6
BYLAYER
 10
36.2882049888232103
 20
35.4406353295443708
 30
0.0
 11
35.9998731448448268
 21
-5.0356165054360424
 31
0.0
  0
ARC
  5
1AF
100
AcDbEntity
  8
0
 62
256
370
-1
  6
BYLAYER
100
AcDbCircle
 10
-7.0
 20
-14.0
 30
0.0
 40
5.0
100
AcDbArc
 50
74.1642383527101714
 51
93.2884488222413069
  0
ARC
  5
1B0
100
AcDbEntity
  8
0
 62
256
370
-1
  6
BYLAYER
100
AcDbCircle
 10
-7.0
 20
12.0
 30
0.0
 40
5.0
100
AcDbArc
 50
264.7303345681419842
 51
292.7926538442287665
  0
ARC
  5
1B1
100
AcDbEntity
  8
0
 62
256
370
-1
  6
BYLAYER
100
AcDbCircle
 10
3.2883318439783906
 20
5.4762518349804408
 30
0.0
 40
5.0
100
AcDbArc
 50
85.0595827500653172
 51
112.7926538442287523
  0
ARC
  5
1B2
100
AcDbEntity
  8
0
 62
256
370
-1
  6
BYLAYER
100
AcDbCircle
 10
31.0
 20
-5.0
 30
0.0
 40
5.0
100
AcDbArc
 50
273.147284792055757
 51
359.5918614598647878
  0
LINE
  5
1B3
100
AcDbEntity
100
AcDbLine
  8
0
 62
256
370
-1
  6
BYLAYER
 10
-5.6355961475202694
 20
-9.1897606995765315
 30
0.0
 11
1.9239279914986565
 21
-11.3339874654430286
 31
0.0
  0
LINE
  5
1B4
100
AcDbEntity
100
AcDbLine
  8
0
 62
256
370
-1
  6
BYLAYER
 10
3.5628461546428842
 20
-11.5162066669242478
 30
0.0
 11
31.2745143106644967
 21
-9.9924585019046877
 31
0.0
  0
ARC
  5
1B5
100
AcDbEntity
  8
0
 62
256
370
-1
  6
BYLAYER
100
AcDbCircle
 10
3.2883318439783871
 20
-6.5237481650195592
 30
0.0
 40
5.0
100
AcDbArc
 50
254.1642383527101856
 51
273.147284792055757
  0
LINE
  5
1B6
100
AcDbEntity
100
AcDbLine
  8
0
 62
256
370
-1
  6
BYLAYER
 10
-28.0908128558425467
 20
-2.0737481650195875
 30
0.0
 11
-27.9986888469959467
 21
-5.1886859566228045
 31
0.0
  0
LINE
  5
1B7
100
AcDbEntity
100
AcDbLine
  8
0
 62
256
370
-1
  6
BYLAYER
 10
-28.0908128558425467
 20
1.0262518349804139
 30
0.0
 11
-27.9986435457572469
 21
4.0902046866211368
 31
0.0
  0
ARC
  5
1B8
100
AcDbEntity
  8
0
 62
256
370
-1
  6
BYLAYER
100
AcDbCircle
 10
-25.0
 20
4.0
 30
0.0
 40
3.0
100
AcDbArc
 50
95.4940822308089423
 51
178.2769576882681974
  0
ARC
  5
1B9
100
AcDbEntity
  8
0
 62
256
370
-1
  6
BYLAYER
100
AcDbCircle
 10
-24.9999999999999964
 20
-5.0999999999999996
 30
0.0
 40
3.0
100
AcDbArc
 50
181.6940238043136731
 51
254.6732901524357544
  0
ARC
  5
1BA
100
AcDbEntity
  8
0
 62
256
370
-1
  6
BYLAYER
100
AcDbCircle
 10
-16.1879192896703188
 20
-87.6161533208773307
 30
0.0
 40
95.0389717226342441
100
AcDbArc
 50
84.7303345681419984
 51
95.4940814381008636
  0
ARC
  5
1BB
100
AcDbEntity
  8
0
 62
256
370
-1
  6
BYLAYER
100
AcDbCircle
 10
-12.0728074944602088
 20
74.2882055678653757
 30
0.0
 40
83.4338205567840987
100
AcDbArc
 50
260.5317655891529398
 51
273.2884488222412642
  0
DIMENSION
  5
1BC
100
AcDbEntity
  8
0
 62
256
370
-1
  6
BYLAYER
100
AcDbDimension
 10
28.6044514240781815
 20
14.4762518349804203
 30
0.0
 11
26.7294514240781815
 21
21.6845851683137525
 31
0.0
 70
1
 71
8
 72
2
 41
1.0
 42
0.0
  1
5/64"
  3
Standard
100
AcDbAlignedDimension
 13
31.28833184397838
 23
14.4762518349804203
 33
0.0
 14
31.28833184397838
 24
16.4762518349804203
 34
0.0
1001
ACAD
1000
DSTYLE
1002
{
1070
144
1040
1
1002
}
  0
INSERT
  5
1BD
100
AcDbEntity
100
AcDbBlockReference
  8
0
 62
256
370
-1
  6
BYLAYER
  2
servo_mount
 10
14.7883318439783871
 20
-0.5237481650195717
 30
0.0
 50
90.0
  0
ENDBLK
  5
1BE
100
AcDbEntity
  8
0
100
AcDbBlockEnd
  0
BLOCK
  5
1BF
100
AcDbEntity
  8
0
100
AcDbBlockBegin
  2
tibia_rear
 70
0
 10
0.0
 20
0.0
 30
0.0
  3
tibia_rear
  1

  0
LINE
  5
1C0
100
AcDbEntity
100
AcDbLine
  8
0
 62
256
370
-1
  6
BYLAYER
 10
-7.6463583491373015
 20
4.0646190173115997
 30
0.0
 11
-7.6463583491373015
 21
-25.9353809826884003
 31
0.0
  0
ARC
  5
1C1
100
AcDbEntity
  8
0
 62
256
370
-1
  6
BYLAYER
100
AcDbCircle
 10
136.1364817444966775
 20
-35.8888794432982792
 30
0.0
 40
130.1445131082007833
100
AcDbArc
 50
161.3138642182418891
 51
175.8380011755167516
  0
ARC
  5
1C2
100
AcDbEntity
  8
0
 62
256
370
-1
  6
BYLAYER
100
AcDbCircle
 10
-17.6463583491373015
 20
-75.9353809826884003
 30
0.0
 40
5.0
100
AcDbArc
 50
148.272768469349387
 51
326.4747008864466693
  0
ARC
  5
1C3
100
AcDbEntity
  8
0
 62
256
370
-1
  6
BYLAYER
100
AcDbCircle
 10
-103.2603952497865976
 20
-23.0028457081666886
 30
0.0
 40
95.6559317924888006
100
AcDbArc
 50
328.272768469349387
 51
358.3630292723632351
  0
ARC
  5
1C4
100
AcDbEntity
  8
0
 62
256
370
-1
  6
BYLAYER
100
AcDbCircle
 10
-118.9438320786561576
 20
-8.823602269261702
 30
0.0
 40
126.5120118591665488
100
AcDbArc
 50
326.4746593922901639
 51
355.8924239428184819
  0
CIRCLE
  5
1C5
100
AcDbEntity
100
AcDbCircle
  8
0
 62
256
370
-1
  6
BYLAYER
 10
0.3536416508626985
 20
-0.9353809826883968
 30
0.0
 40
1.0
  0
CIRCLE
  5
1C6
100
AcDbEntity
100
AcDbCircle
  8
0
 62
256
370
-1
  6
BYLAYER
 10
0.3536416508626985
 20
-20.9353809826884003
 30
0.0
 40
1.0
  0
ARC
  5
1C7
100
AcDbEntity
  8
0
 62
256
370
-1
  6
BYLAYER
100
AcDbCircle
 10
-118.6894531442366088
 20
-19.2064432677637171
 30
0.0
 40
136.8979685239335709
100
AcDbArc
 50
15.5924939290849789
 51
23.1112949640151477
  0
ARC
  5
1C8
100
AcDbEntity
  8
0
 62
256
370
-1
  6
BYLAYER
100
AcDbCircle
 10
-6.0935883761493983
 20
12.2149870330546229
 30
0.0
 40
20.0
100
AcDbArc
 50
341.3138642182418039
 51
15.5924939290849558
  0
ARC
  5
1C9
100
AcDbEntity
  8
0
 62
256
370
-1
  6
BYLAYER
100
AcDbCircle
 10
2.6855172976218
 20
11.9288747643891817
 30
0.0
 40
7.0
100
AcDbArc
 50
194.9794103424413265
 51
26.971697254064388
  0
ARC
  5
1CA
100
AcDbEntity
  8
0
 62
256
370
-1
  6
BYLAYER
100
AcDbCircle
 10
-42.4618258088723906
 20
1.1078173436710959
 30
0.0
 40
34.9407992263645255
100
AcDbArc
 50
4.8543568194041429
 51
45.0381700454504283
  0
LINE
  5
1CB
100
AcDbEntity
100
AcDbLine
  8
0
 62
256
370
-1
  6
BYLAYER
 10
1.7327618132093576
 20
72.666938229054125
 30
0.0
 11
-1.2072240970693429
 21
65.6994716835564674
 31
0.0
  0
ARC
  5
1CC
100
AcDbEntity
  8
0
 62
256
370
-1
  6
BYLAYER
100
AcDbCircle
 10
-41.2121991395286287
 20
91.6900306370675651
 30
0.0
 40
48.2385456911747283
100
AcDbArc
 50
291.4594559034334793
 51
319.6971988000016722
  0
ARC
  5
1CD
100
AcDbEntity
  8
0
 62
256
370
-1
  6
BYLAYER
100
AcDbCircle
 10
-19.6339522746694541
 20
73.4747973146048565
 30
0.0
 40
20.0
100
AcDbArc
 50
319.5086480330424479
 51
337.1222444045184261
  0
ARC
  5
1CE
100
AcDbEntity
  8
0
 62
256
370
-1
  6
BYLAYER
100
AcDbCircle
 10
-26.716667141295396
 20
53.0830726785427913
 30
0.0
 40
7.0
100
AcDbArc
 50
231.3518210956243308
 51
296.5169089668613651
  0
ARC
  5
1CF
100
AcDbEntity
  8
0
 62
256
370
-1
  6
BYLAYER
100
AcDbCircle
 10
-41.7701759649871462
 20
55.2074812522917995
 30
0.0
 40
2.0
100
AcDbArc
 50
40.3701308860074803
 51
210.9011163551893162
  0
ARC
  5
1D0
100
AcDbEntity
  8
0
 62
256
370
-1
  6
BYLAYER
100
AcDbCircle
 10
3.5754346309693688
 20
71.8894056659492833
 30
0.0
 40
2.0
100
AcDbArc
 50
350.6944372394015659
 51
157.122244404518284
  0
ARC
  5
1D1
100
AcDbEntity
  8
0
 62
256
370
-1
  6
BYLAYER
100
AcDbCircle
 10
94.3302883546300279
 20
57.0186807411701722
 30
0.0
 40
89.9651125927191515
100
AcDbArc
 50
170.6944372394014522
 51
194.476768385914113
  0
ARC
  5
1D2
100
AcDbEntity
  8
0
 62
256
370
-1
  6
BYLAYER
100
AcDbCircle
 10
10.5565856698614269
 20
99.6940298696181344
 30
0.0
 40
66.6814603155174126
100
AcDbArc
 50
220.3701308860075301
 51
231.3518210956241319
  0
ARC
  5
1D3
100
AcDbEntity
  8
0
 62
256
370
-1
  6
BYLAYER
100
AcDbCircle
 10
66.9256831072144536
 20
120.2634505394311475
 30
0.0
 40
128.6770260123480796
100
AcDbArc
 50
210.9011022878977144
 51
218.1391636218664019
  0
ARC
  5
1D4
100
AcDbEntity
  8
0
 62
256
370
-1
  6
BYLAYER
100
AcDbCircle
 10
-24.9818259765546422
 20
66.8431954589707686
 30
0.0
 40
24.9136376627589406
100
AcDbArc
 50
274.0713388802860209
 51
325.4184237135981448
  0
ARC
  5
1D5
100
AcDbEntity
  8
0
 62
256
370
-1
  6
BYLAYER
100
AcDbCircle
 10
-35.9479645538176626
 20
5.5333610003525031
 30
0.0
 40
32.1996320561201301
100
AcDbArc
 50
8.188514498255957
 51
51.2446627662987382
  0
ARC
  5
1D6
100
AcDbEntity
  8
0
 62
256
370
-1
  6
BYLAYER
100
AcDbCircle
 10
74.2328960702519112
 20
48.3395780610510926
 30
0.0
 40
73.2793044550819133
100
AcDbArc
 50
178.0012682276847613
 51
206.9716972540643951
  0
ARC
  5
1D7
100
AcDbEntity
  8
0
 62
256
370
-1
  6
BYLAYER
100
AcDbCircle
 10
-23.0576690866845162
 20
38.2281730895702694
 30
0.0
 40
3.7674594719846222
100
AcDbArc
 50
92.3628836650108695
 51
238.9654701936471497
  0
ARC
  5
1D8
100
AcDbEntity
  8
0
 62
256
370
-1
  6
BYLAYER
100
AcDbCircle
 10
-2.0
 20
51.0
 30
0.0
 40
3.0
100
AcDbArc
 50
358.0012682276845339
 51
145.4184237135980879
  0
ARC
  5
1D9
100
AcDbEntity
  8
0
 62
256
370
-1
  6
BYLAYER
100
AcDbCircle
 10
-23.0
 20
39.0
 30
0.0
 40
9.0
100
AcDbArc
 50
201.3451201908122812
 51
242.8614462742312696
  0
ARC
  5
1DA
100
AcDbEntity
  8
0
 62
256
370
-1
  6
BYLAYER
100
AcDbCircle
 10
-50.0107415162439111
 20
28.4444401975707386
 30
0.0
 40
20.0
100
AcDbArc
 50
21.3451201908122634
 51
38.1391636218663805
  0
LINE
  5
1DB
100
AcDbEntity
100
AcDbLine
  8
0
 62
256
370
-1
  6
BYLAYER
 10
-27.1052943697860407
 20
30.9908453543833318
 30
0.0
 11
-20.4502294634274264
 21
27.7414422812424064
 31
0.0
  0
ARC
  5
1DC
100
AcDbEntity
  8
0
 62
256
370
-1
  6
BYLAYER
100
AcDbCircle
 10
-24.8377703117915019
 20
18.7553705419373635
 30
0.0
 40
10.0
100
AcDbArc
 50
45.038170045450407
 51
63.9755861592302608
  0
LINE
  5
1DD
100
AcDbEntity
100
AcDbLine
  8
0
 62
256
370
-1
  6
BYLAYER
 10
-25.0
 20
35.0
 30
0.0
 11
-18.0991873496253319
 21
32.0312118522515306
 31
0.0
  0
ARC
  5
1DE
100
AcDbEntity
  8
0
 62
256
370
-1
  6
BYLAYER
100
AcDbCircle
 10
-22.0510810767042607
 20
22.8452151197311935
 30
0.0
 40
10.0
100
AcDbArc
 50
51.2446627662987382
 51
66.7222147260245322
  0
ENDBLK
  5
1DF
100
AcDbEntity
  8
0
100
AcDbBlockEnd
  0
BLOCK
  5
1E0
100
AcDbEntity
  8
0
100
AcDbBlockBegin
  2
femur_tibia_control
 70
0
 10
0.0
 20
0.0
 30
0.0
  3
femur_tibia_control
  1

  0
ARC
  5
1E1
100
AcDbEntity
  8
0
 62
256
370
-1
  6
BYLAYER
100
AcDbCircle
 10
31.9000000000000057
 20
0.0
 30
0.0
 40
5.0
100
AcDbArc
 50
259.1844990186529571
 51
100.8155009813470002
  0
ARC
  5
1E2
100
AcDbEntity
  8
0
 62
256
370
-1
  6
BYLAYER
100
AcDbCircle
 10
15.9500000000000171
 20
83.4901042040312973
 30
0.0
 40
80.0
100
AcDbArc
 50
259.1844990186529571
 51
280.8155009813469292
  0
ARC
  5
1E3
100
AcDbEntity
  8
0
 62
256
370
-1
  6
BYLAYER
100
AcDbCircle
 10
15.9500000000000171
 20
-83.4901042040312831
 30
0.0
 40
80.0
100
AcDbArc
 50
79.184499018653014
 51
100.8155009813470144
  0
CIRCLE
  5
1E4
100
AcDbEntity
100
AcDbCircle
  8
0
 62
256
370
-1
  6
BYLAYER
 10
31.9000000000000057
 20
0.0
 30
0.0
 40
1.0
  0
CIRCLE
  5
1E5
100
AcDbEntity
100
AcDbCircle
  8
0
 62
256
370
-1
  6
BYLAYER
 10
0.0
 20
0.0
 30
0.0
 40
1.0
  0
ARC
  5
1E6
100
AcDbEntity
  8
0
 62
256
370
-1
  6
BYLAYER
100
AcDbCircle
 10
0.0
 20
0.0
 30
0.0
 40
5.0
100
AcDbArc
 50
260.7182009133224483
 51
280.8155009813469292
  0
ARC
  5
1E7
100
AcDbEntity
  8
0
 62
256
370
-1
  6
BYLAYER
100
AcDbCircle
 10
0.0
 20
0.0
 30
0.0
 40
5.0
100
AcDbArc
 50
79.184499018653014
 51
99.281799086677637
  0
ARC
  5
1E8
100
AcDbEntity
  8
0
 62
256
370
-1
  6
BYLAYER
100
AcDbCircle
 10
-31.9000000000000057
 20
-0.0000000000000235
 30
0.0
 40
5.0
100
AcDbArc
 50
79.1844990186529714
 51
280.8155009813470429
  0
ARC
  5
1E9
100
AcDbEntity
  8
0
 62
256
370
-1
  6
BYLAYER
100
AcDbCircle
 10
-15.9500000000000721
 20
83.4901042040312973
 30
0.0
 40
80.0
100
AcDbArc
 50
259.1844990186530708
 51
280.8155009813470429
  0
ARC
  5
1EA
100
AcDbEntity
  8
0
 62
256
370
-1
  6
BYLAYER
100
AcDbCircle
 10
-15.9500000000000615
 20
-83.4901042040312689
 30
0.0
 40
80.0
100
AcDbArc
 50
79.1844990186529714
 51
100.815500981346915
  0
CIRCLE
  5
1EB
100
AcDbEntity
100
AcDbCircle
  8
0
 62
256
370
-1
  6
BYLAYER
 10
-0.0000000000000007
 20
0.0
 30
0.0
 40
1.0
  0
ARC
  5
1EC
100
AcDbEntity
  8
0
 62
256
370
-1
  6
BYLAYER
100
AcDbCircle
 10
-0.0000000000000007
 20
0.0
 30
0.0
 40
5.0
100
AcDbArc
 50
259.1844990186530708
 51
279.2817990866775517
  0
ARC
  5
1ED
100
AcDbEntity
  8
0
 62
256
370
-1
  6
BYLAYER
100
AcDbCircle
 10
-0.0000000000000007
 20
0.0
 30
0.0
 40
5.0
100
AcDbArc
 50
80.7182009133223488
 51
100.815500981346915
  0
CIRCLE
  5
1EE
100
AcDbEntity
100
AcDbCircle
  8
0
 62
256
370
-1
  6
BYLAYER
 10
-31.9000000000000057
 20
-0.0000000000000235
 30
0.0
 40
0.5
  0
DIMENSION
  5
1EF
100
AcDbEntity
  8
0
 62
256
370
-1
  6
BYLAYER
100
AcDbDimension
 10
30.9000000000000057
 20
-2.0
 30
0.0
 11
25.5500948242836934
 21
0.3885874750628879
 31
0.0
 70
129
 71
8
 72
2
 41
1.0
 42
0.0
  1
5/64"
  3
Standard
100
AcDbAlignedDimension
 13
30.9000000000000057
 23
0.0
 33
0.0
 14
32.9000000000000057
 24
0.0
 34
0.0
1001
ACAD
1000
DSTYLE
1002
{
1070
144
1040
1
1002
}
  0
DIMENSION
  5
1F0
100
AcDbEntity
  8
0
 62
256
370
-1
  6
BYLAYER
100
AcDbDimension
 10
-32.4000000000000057
 20
1.4840011156648298
 30
0.0
 11
-25.7031110446121431
 21
-1.150405191256846
 31
0.0
 70
129
 71
8
 72
2
 41
1.0
 42
0.0
  1
3/64"
  3
Standard
100
AcDbAlignedDimension
 13
-32.4000000000000057
 23
-0.0000000000000235
 33
0.0
 14
-31.4000000000000057
 24
-0.0000000000000235
 34
0.0
1001
ACAD
1000
DSTYLE
1002
{
1070
144
1040
1
1002
}
  0
ENDBLK
  5
1F1
100
AcDbEntity
  8
0
100
AcDbBlockEnd
  0
BLOCK
  5
1F2
100
AcDbEntity
  8
0
100
AcDbBlockBegin
  2
servo_mount
 70
0
 10
0.0
 20
0.0
 30
0.0
  3
servo_mount
  1

  0
CIRCLE
  5
1F3
100
AcDbEntity
100
AcDbCircle
  8
0
 62
256
370
-1
  6
BYLAYER
 10
0.0000000000000213
 20
15.0
 30
0.0
 40
0.5
  0
CIRCLE
  5
1F4
100
AcDbEntity
100
AcDbCircle
  8
0
 62
256
370
-1
  6
BYLAYER
 10
0.0000000000000284
 20
-14.9999999999999982
 30
0.0
 40
0.5
  0
LINE
  5
1F5
100
AcDbEntity
100
AcDbLine
  8
0
 62
256
370
-1
  6
BYLAYER
 10
6.0
 20
-11.5
 30
0.0
 11
6.0
 21
11.5
 31
0.0
  0
LINE
  5
1F6
100
AcDbEntity
100
AcDbLine
  8
0
 62
256
370
-1
  6
BYLAYER
 10
6.0
 20
11.5
 30
0.0
 11
-5.9999999999999893
 21
11.5
 31
0.0
  0
LINE
  5
1F7
100
AcDbEntity
100
AcDbLine
  8
0
 62
256
370
-1
  6
BYLAYER
 10
-5.9999999999999893
 20
11.5
 30
0.0
 11
-6.0
 21
-11.4999999999999982
 31
0.0
  0
LINE
  5
1F8
100
AcDbEntity
100
AcDbLine
  8
0
 62
256
370
-1
  6
BYLAYER
 10
-6.0
 20
-11.4999999999999982
 30
0.0
 11
6.0
 21
-11.5
 31
0.0
  0
DIMENSION
  5
1F9
100
AcDbEntity
  8
0
 62
256
370
-1
  6
BYLAYER
100
AcDbDimension
 10
3.5654529172320366
 20
15.5
 30
0.0
 11
8.0
 21
13.0
 31
0.0
 70
129
 71
8
 72
2
 41
1.0
 42
0.0
  1
1/16"
  3
Standard
100
AcDbAlignedDimension
 13
0.0000000000000213
 23
15.5
 33
0.0
 14
0.0000000000000213
 24
14.5
 34
0.0
1001
ACAD
1000
DSTYLE
1002
{
1070
144
1040
1
1002
}
  0
ENDBLK
  5
1FA
100
AcDbEntity
  8
0
100
AcDbBlockEnd
  0
BLOCK
  5
1FB
100
AcDbEntity
  8
0
100
AcDbBlockBegin
  2
servo_top
 70
0
 10
0.0
 20
0.0
 30
0.0
  3
servo_top
  1

  0
LINE
  5
1FC
100
AcDbEntity
100
AcDbLine
  8
0
 62
256
370
-1
  6
BYLAYER
 10
31.0
 20
5.0000000000000284
 30
0.0
 11
26.5
 21
5.0000000000000284
 31
0.0
  0
LINE
  5
1FD
100
AcDbEntity
100
AcDbLine
  8
0
 62
256
370
-1
  6
BYLAYER
 10
26.5
 20
5.0000000000000284
 30
0.0
 11
26.5
 21
-4.9999999999999716
 31
0.0
  0
CIRCLE
  5
1FE
100
AcDbEntity
100
AcDbCircle
  8
0
 62
256
370
-1
  6
BYLAYER
 10
0.0
 20
0.0
 30
0.0
 40
1.0
  0
CIRCLE
  5
1FF
100
AcDbEntity
100
AcDbCircle
  8
0
 62
256
370
-1
  6
BYLAYER
 10
30.0
 20
0.0
 30
0.0
 40
1.0
  0
CIRCLE
  5
200
100
AcDbEntity
100
AcDbCircle
  8
0
 62
256
370
-1
  6
BYLAYER
 10
10.5
 20
0.0000000000000284
 30
0.0
 40
10.0
  0
CIRCLE
  5
201
100
AcDbEntity
100
AcDbCircle
  8
0
 62
256
370
-1
  6
BYLAYER
 10
15.0499999999999972
 20
7.0000000000000284
 30
0.0
 40
0.5
  0
CIRCLE
  5
202
100
AcDbEntity
100
AcDbCircle
  8
0
 62
256
370
-1
  6
DOT
 10
10.5
 20
0.0000000000000284
 30
0.0
 40
5.0
  0
CIRCLE
  5
203
100
AcDbEntity
100
AcDbCircle
  8
0
 62
256
370
-1
  6
BYLAYER
 10
10.5
 20
0.0000000000000284
 30
0.0
 40
2.0
  0
LINE
  5
204
100
AcDbEntity
100
AcDbLine
  8
0
 62
256
370
-1
  6
BYLAYER
 10
3.5
 20
-5.9999999999999716
 30
0.0
 11
26.5
 21
-5.9999999999999716
 31
0.0
  0
LINE
  5
205
100
AcDbEntity
100
AcDbLine
  8
0
 62
256
370
-1
  6
BYLAYER
 10
26.5
 20
-5.9999999999999716
 30
0.0
 11
26.5
 21
6.0000000000000284
 31
0.0
  0
LINE
  5
206
100
AcDbEntity
100
AcDbLine
  8
0
 62
256
370
-1
  6
BYLAYER
 10
26.5
 20
6.0000000000000284
 30
0.0
 11
3.5
 21
6.0000000000000284
 31
0.0
  0
LINE
  5
207
100
AcDbEntity
100
AcDbLine
  8
0
 62
256
370
-1
  6
BYLAYER
 10
3.5
 20
6.0000000000000284
 30
0.0
 11
3.5
 21
-5.9999999999999716
 31
0.0
  0
LINE
  5
208
100
AcDbEntity
100
AcDbLine
  8
0
 62
256
370
-1
  6
BYLAYER
 10
-1.0
 20
-4.9999999999999716
 30
0.0
 11
3.5
 21
-4.9999999999999716
 31
0.0
  0
LINE
  5
209
100
AcDbEntity
100
AcDbLine
  8
0
 62
256
370
-1
  6
BYLAYER
 10
3.5
 20
-4.9999999999999716
 30
0.0
 11
3.5
 21
5.0000000000000284
 31
0.0
  0
LINE
  5
20A
100
AcDbEntity
100
AcDbLine
  8
0
 62
256
370
-1
  6
BYLAYER
 10
3.5
 20
5.0000000000000284
 30
0.0
 11
-1.0
 21
5.0000000000000284
 31
0.0
  0
LINE
  5
20B
100
AcDbEntity
100
AcDbLine
  8
0
 62
256
370
-1
  6
BYLAYER
 10
-1.0
 20
5.0000000000000284
 30
0.0
 11
-1.0
 21
-4.9999999999999716
 31
0.0
  0
LINE
  5
20C
100
AcDbEntity
100
AcDbLine
  8
0
 62
256
370
-1
  6
BYLAYER
 10
26.5
 20
-4.9999999999999716
 30
0.0
 11
31.0
 21
-4.9999999999999716
 31
0.0
  0
LINE
  5
20D
100
AcDbEntity
100
AcDbLine
  8
0
 62
256
370
-1
  6
BYLAYER
 10
31.0
 20
-4.9999999999999716
 30
0.0
 11
31.0
 21
5.0000000000000284
 31
0.0
  0
ENDBLK
  5
20E
100
AcDbEntity
  8
0
100
AcDbBlockEnd
  0
ENDSEC
  0
SECTION
  2
ENTITIES
  0
INSERT
  5
20F
100
AcDbEntity
100
AcDbBlockReference
  8
0
 62
256
370
-1
  6
BYLAYER
  2
femur
 10
180.9498666200968842
 20
-1.3648096740931663
 30
0.0
 41
1.0
 42
-1.0
 43
1.0
 50
270.0
  0
INSERT
  5
210
100
AcDbEntity
100
AcDbBlockReference
  8
0
 62
256
370
-1
  6
BYLAYER
  2
femur_tibia
 10
61.0
 20
-121.0
 30
0.0
 50
180.0
  0
INSERT
  5
211
100
AcDbEntity
100
AcDbBlockReference
  8
0
 62
256
370
-1
  6
BYLAYER
  2
femur_tibia
 10
109.240965566264606
 20
-2.1288345783974592
 30
0.0
 50
180.0
  0
INSERT
  5
212
100
AcDbEntity
100
AcDbBlockReference
  8
0
 62
256
370
-1
  6
BYLAYER
  2
femur_tibia_control
 10
73.8733554063542499
 20
-131.563923430033185
 30
0.0
 50
360.0
  0
INSERT
  5
213
100
AcDbEntity
100
AcDbBlockReference
  8
0
 62
256
370
-1
  6
BYLAYER
  2
femur
 10
133.9151001942840367
 20
36.4203729299415713
 30
0.0
 41
1.0
 42
-1.0
 43
1.0
  0
INSERT
  5
214
100
AcDbEntity
100
AcDbBlockReference
  8
0
 62
256
370
-1
  6
BYLAYER
  2
coxa
 10
38.8588318821571477
 20
-95.7076080071477691
 30
0.0
 50
180.0
  0
INSERT
  5
215
100
AcDbEntity
100
AcDbBlockReference
  8
0
 62
256
370
-1
  6
BYLAYER
  2
femur_tibia
 10
102.8498955604421354
 20
-111.9313162184236603
 30
0.0
 50
195.0
  0
INSERT
  5
216
100
AcDbEntity
100
AcDbBlockReference
  8
0
 62
256
370
-1
  6
BYLAYER
  2
femur_tibia
 10
25.734907478495515
 20
-33.2026623481393983
 30
0.0
 50
65.0
  0
INSERT
  5
217
100
AcDbEntity
100
AcDbBlockReference
  8
0
 62
256
370
-1
  6
BYLAYER
  2
femur_tibia_control
 10
95.0116112181854362
 20
20.6332401143024242
 30
0.0
 50
180.0
  0
INSERT
  5
218
100
AcDbEntity
100
AcDbBlockReference
  8
0
 62
256
370
-1
  6
BYLAYER
  2
femur_tibia
 10
186.8731266100896846
 20
-44.9466649312515187
 30
0.0
 50
180.0
  0
INSERT
  5
219
100
AcDbEntity
100
AcDbBlockReference
  8
0
 62
256
370
-1
  6
BYLAYER
  2
femur_tibia
 10
73.7596071819208987
 20
-106.5601833010881876
 30
0.0
 50
380.0
  0
INSERT
  5
21A
100
AcDbEntity
100
AcDbBlockReference
  8
0
 62
256
370
-1
  6
BYLAYER
  2
femur_tibia_control
 10
91.5065077440041961
 20
9.4902929603248793
 30
0.0
 50
360.0
  0
INSERT
  5
21B
100
AcDbEntity
100
AcDbBlockReference
  8
0
 62
256
370
-1
  6
BYLAYER
  2
femur_tibia
 10
103.308402372633978
 20
-48.002664229778091
 30
0.0
 50
340.0000000000000568
  0
INSERT
  5
21C
100
AcDbEntity
100
AcDbBlockReference
  8
0
 62
256
370
-1
  6
BYLAYER
  2
tibia_middle
 10
65.5357699438690702
 20
-38.144462405565605
 30
0.0
 50
459.9999999999999432
  0
INSERT
  5
21D
100
AcDbEntity
100
AcDbBlockReference
  8
0
 62
256
370
-1
  6
BYLAYER
  2
femur
 10
121.905611863462795
 20
-100.6900884714925866
 30
0.0
 50
270.0
  0
INSERT
  5
21E
100
AcDbEntity
100
AcDbBlockReference
  8
0
 62
256
370
-1
  6
BYLAYER
  2
coxa
 10
171.2596610207292542
 20
-103.2986572703490395
 30
0.0
 50
450.0
  0
INSERT
  5
21F
100
AcDbEntity
100
AcDbBlockReference
  8
0
 62
256
370
-1
  6
BYLAYER
  2
coxa
 10
84.2990989733678049
 20
-68.3267913208819948
 30
0.0
 50
180.0
  0
INSERT
  5
220
100
AcDbEntity
100
AcDbBlockReference
  8
0
 62
256
370
-1
  6
BYLAYER
  2
femur_tibia
 10
146.585021172573704
 20
-86.1785160313761764
 30
0.0
 50
90.0
  0
INSERT
  5
221
100
AcDbEntity
100
AcDbBlockReference
  8
0
 62
256
370
-1
  6
BYLAYER
  2
femur_tibia
 10
133.3263147049119937
 20
-69.7690406808560368
 30
0.0
 50
280.0
  0
INSERT
  5
222
100
AcDbEntity
100
AcDbBlockReference
  8
0
 62
256
370
-1
  6
BYLAYER
  2
tibia_front
 10
118.6879277882742372
 20
-18.6175996219010926
 30
0.0
 50
280.0
  0
INSERT
  5
223
100
AcDbEntity
100
AcDbBlockReference
  8
0
 62
256
370
-1
  6
BYLAYER
  2
tibia_rear
 10
17.8200478271797493
 20
-2.5579978194053723
 30
0.0
 41
1.0
 42
-1.0
 43
1.0
 50
525.0
  0
INSERT
  5
224
100
AcDbEntity
100
AcDbBlockReference
  8
0
 62
256
370
-1
  6
BYLAYER
  2
thorax_top
 10
350.0
 20
-110.0
 30
0.0
 50
270.0
  0
INSERT
  5
225
100
AcDbEntity
100
AcDbBlockReference
  8
0
 62
256
370
-1
  6
BYLAYER
  2
thorax_botom
 10
400.0
 20
30.0
 30
0.0
 50
660.0
  0
INSERT
  5
226
100
AcDbEntity
100
AcDbBlockReference
  8
0
 62
256
370
-1
  6
BYLAYER
  2
thorax_top
 10
795.0
 20
-75.4999999999998863
 30
0.0
 50
270.0
  0
INSERT
  5
227
100
AcDbEntity
100
AcDbBlockReference
  8
0
 62
256
370
-1
  6
BYLAYER
  2
coxa
 10
842.1822198309373562
 20
36.2116570824605972
 30
0.0
 50
374.9999999999999432
  0
INSERT
  5
228
100
AcDbEntity
100
AcDbBlockReference
  8
0
 62
256
370
-1
  6
BYLAYER
  2
coxa
 10
839.1822198309375835
 20
-86.2116570824603912
 30
0.0
 50
345.0
  0
INSERT
  5
229
100
AcDbEntity
100
AcDbBlockReference
  8
0
 62
256
370
-1
  6
BYLAYER
  2
coxa
 10
833.1822198309378109
 20
-183.7883429175393815
 30
0.0
 50
374.9999999999999432
  0
LINE
  5
22A
100
AcDbEntity
100
AcDbLine
  8
0
 62
256
370
-1
  6
BYLAYER
 10
855.1263473202698151
 20
40.9168296054971066
 30
0.0
 11
917.5584644520926076
 21
57.6454649727337696
 31
0.0
  0
LINE
  5
22B
100
AcDbEntity
100
AcDbLine
  8
0
 62
256
370
-1
  6
BYLAYER
 10
918.3853035461836498
 20
54.5596594639019941
 30
0.0
 11
855.9531864143608573
 21
37.8310240966647413
 31
0.0
  0
LINE
  5
22C
100
AcDbEntity
100
AcDbLine
  8
0
 62
256
370
-1
  6
BYLAYER
 10
855.9531864143608573
 20
37.8310240966647413
 30
0.0
 11
855.1263473202698151
 21
40.9168296054971066
 31
0.0
  0
LINE
  5
22D
100
AcDbEntity
100
AcDbLine
  8
0
 62
256
370
-1
  6
BYLAYER
 10
868.1995625486672452
 20
-92.750026614628382
 30
0.0
 11
930.6316796804899241
 21
-109.4786619818655709
 31
0.0
  0
LINE
  5
22E
100
AcDbEntity
100
AcDbLine
  8
0
 62
256
370
-1
  6
BYLAYER
 10
929.8048405863986545
 20
-112.5644674906983198
 30
0.0
 11
867.3727234545759757
 21
-95.8358321234611594
 31
0.0
  0
LINE
  5
22F
100
AcDbEntity
100
AcDbLine
  8
0
 62
256
370
-1
  6
BYLAYER
 10
867.3727234545759757
 20
-95.8358321234611594
 30
0.0
 11
868.1995625486672452
 21
-92.750026614628382
 31
0.0
  0
LINE
  5
230
100
AcDbEntity
100
AcDbLine
  8
0
 62
256
370
-1
  6
BYLAYER
 10
931.9805349327953081
 20
-153.1743094508009335
 30
0.0
 11
932.7066101093191719
 21
-155.8840588997026657
 31
0.0
  0
LINE
  5
231
100
AcDbEntity
100
AcDbLine
  8
0
 62
256
370
-1
  6
BYLAYER
 10
932.7066101093191719
 20
-155.8840588997026657
 30
0.0
 11
912.4221677572487579
 21
-161.3192588468557744
 31
0.0
  0
LINE
  5
232
100
AcDbEntity
100
AcDbLine
  8
0
 62
256
370
-1
  6
BYLAYER
 10
912.4221677572487579
 20
-161.3192588468557744
 30
0.0
 11
911.6960925807247804
 21
-158.609509397953758
 31
0.0
  0
LINE
  5
233
100
AcDbEntity
100
AcDbLine
  8
0
 62
256
370
-1
  6
BYLAYER
 10
933.5334492034104414
 20
-158.969864408535642
 30
0.0
 11
913.2490068513399137
 21
-164.4050643556881539
 31
0.0
  0
LINE
  5
234
100
AcDbEntity
100
AcDbLine
  8
0
 62
256
370
-1
  6
BYLAYER
 10
913.2490068513399137
 20
-164.4050643556881539
 30
0.0
 11
914.0254639866474236
 21
-167.3028418345550392
 31
0.0
  0
LINE
  5
235
100
AcDbEntity
100
AcDbLine
  8
0
 62
256
370
-1
  6
BYLAYER
 10
914.0254639866474236
 20
-167.3028418345550392
 30
0.0
 11
934.3099063387179513
 21
-161.8676418874023852
 31
0.0
  0
LINE
  5
236
100
AcDbEntity
100
AcDbLine
  8
0
 62
256
370
-1
  6
BYLAYER
 10
934.3099063387179513
 20
-161.8676418874023852
 30
0.0
 11
933.5334492034104414
 21
-158.969864408535642
 31
0.0
  0
LINE
  5
237
100
AcDbEntity
100
AcDbLine
  8
0
 62
256
370
-1
  6
BYLAYER
 10
912.6620184070138748
 20
-158.3506903528512737
 30
0.0
 11
915.559795885881158
 21
-157.5742332175438207
 31
0.0
  0
LINE
  5
238
100
AcDbEntity
100
AcDbLine
  8
0
 62
256
370
-1
  6
BYLAYER
 10
915.559795885881158
 20
-157.5742332175438207
 30
0.0
 11
915.3009768407785032
 21
-156.6083073912545842
 31
0.0
  0
LINE
  5
239
100
AcDbEntity
100
AcDbLine
  8
0
 62
256
370
-1
  6
BYLAYER
 10
915.3009768407785032
 20
-156.6083073912545842
 30
0.0
 11
912.4031993619113337
 21
-157.3847645265620372
 31
0.0
  0
LINE
  5
23A
100
AcDbEntity
100
AcDbLine
  8
0
 62
256
370
-1
  6
BYLAYER
 10
912.4031993619113337
 20
-157.3847645265620372
 30
0.0
 11
912.6620184070138748
 21
-158.3506903528512737
 31
0.0
  0
LINE
  5
23B
100
AcDbEntity
100
AcDbLine
  8
0
 62
256
370
-1
  6
BYLAYER
 10
914.991389812936518
 20
-167.0440227894528675
 30
0.0
 11
917.8891672918036875
 21
-166.2675656541452156
 31
0.0
  0
LINE
  5
23C
100
AcDbEntity
100
AcDbLine
  8
0
 62
256
370
-1
  6
BYLAYER
 10
917.8891672918036875
 20
-166.2675656541452156
 30
0.0
 11
918.1479863369063423
 21
-167.2334914804343953
 31
0.0
  0
LINE
  5
23D
100
AcDbEntity
100
AcDbLine
  8
0
 62
256
370
-1
  6
BYLAYER
 10
918.1479863369063423
 20
-167.2334914804343953
 30
0.0
 11
915.2502088580390591
 21
-168.0099486157418198
 31
0.0
  0
LINE
  5
23E
100
AcDbEntity
100
AcDbLine
  8
0
 62
256
370
-1
  6
BYLAYER
 10
915.2502088580390591
 20
-168.0099486157418198
 30
0.0
 11
914.991389812936518
 21
-167.0440227894528675
 31
0.0
  0
LINE
  5
23F
100
AcDbEntity
100
AcDbLine
  8
0
 62
256
370
-1
  6
BYLAYER
 10
928.1168316276389305
 20
-154.2095856312109561
 30
0.0
 11
931.0146091065062137
 21
-153.4331284959035884
 31
0.0
  0
LINE
  5
240
100
AcDbEntity
100
AcDbLine
  8
0
 62
256
370
-1
  6
BYLAYER
 10
931.0146091065062137
 20
-153.4331284959035884
 30
0.0
 11
930.7557900614035589
 21
-152.4672026696140676
 31
0.0
  0
LINE
  5
241
100
AcDbEntity
100
AcDbLine
  8
0
 62
256
370
-1
  6
BYLAYER
 10
930.7557900614035589
 20
-152.4672026696140676
 30
0.0
 11
927.8580125825363893
 21
-153.2436598049216059
 31
0.0
  0
LINE
  5
242
100
AcDbEntity
100
AcDbLine
  8
0
 62
256
370
-1
  6
BYLAYER
 10
927.8580125825363893
 20
-153.2436598049216059
 30
0.0
 11
928.1168316276389305
 21
-154.2095856312109561
 31
0.0
  0
LINE
  5
243
100
AcDbEntity
100
AcDbLine
  8
0
 62
256
370
-1
  6
BYLAYER
 10
933.3439805124288569
 20
-162.1264609325051254
 30
0.0
 11
930.4462030335616873
 21
-162.9029180678126636
 31
0.0
  0
LINE
  5
244
100
AcDbEntity
100
AcDbLine
  8
0
 62
256
370
-1
  6
BYLAYER
 10
930.4462030335616873
 20
-162.9029180678126636
 30
0.0
 11
930.7050220786642285
 21
-163.8688438941015875
 31
0.0
  0
LINE
  5
245
100
AcDbEntity
100
AcDbLine
  8
0
 62
256
370
-1
  6
BYLAYER
 10
930.7050220786642285
 20
-163.8688438941015875
 30
0.0
 11
933.602799557531398
 21
-163.0923867587942482
 31
0.0
  0
LINE
  5
246
100
AcDbEntity
100
AcDbLine
  8
0
 62
256
370
-1
  6
BYLAYER
 10
933.602799557531398
 20
-163.0923867587942482
 30
0.0
 11
933.3439805124288569
 21
-162.1264609325051254
 31
0.0
  0
LINE
  5
247
100
AcDbEntity
100
AcDbLine
  8
0
 62
256
370
-1
  6
BYLAYER
 10
854.8196797568714373
 20
-176.7537989885799448
 30
0.0
 11
917.2517968886938888
 21
-160.0251636213425286
 31
0.0
  0
LINE
  5
248
100
AcDbEntity
100
AcDbLine
  8
0
 62
256
370
-1
  6
BYLAYER
 10
917.2517968886938888
 20
-160.0251636213425286
 30
0.0
 11
918.0786359827851584
 21
-163.1109691301750502
 31
0.0
  0
LINE
  5
249
100
AcDbEntity
100
AcDbLine
  8
0
 62
256
370
-1
  6
BYLAYER
 10
918.0786359827851584
 20
-163.1109691301750502
 30
0.0
 11
855.6465188509627069
 21
-179.8396044974127221
 31
0.0
  0
LINE
  5
24A
100
AcDbEntity
100
AcDbLine
  8
0
 62
256
370
-1
  6
BYLAYER
 10
855.6465188509627069
 20
-179.8396044974127221
 30
0.0
 11
854.8196797568714373
 21
-176.7537989885799448
 31
0.0
  0
LINE
  5
24B
100
AcDbEntity
100
AcDbLine
  8
0
 62
256
370
-1
  6
BYLAYER
 10
911.6960925807247804
 20
-158.609509397953758
 30
0.0
 11
931.9805349327953081
 21
-153.1743094508009335
 31
0.0
  0
LINE
  5
24C
100
AcDbEntity
100
AcDbLine
  8
0
 62
256
370
-1
  6
BYLAYER
 10
759.75
 20
-564.1000000000000227
 30
0.0
 11
840.25
 21
-564.1000000000000227
 31
0.0
  0
LINE
  5
24D
100
AcDbEntity
100
AcDbLine
  8
0
 62
256
370
-1
  6
BYLAYER
 10
840.25
 20
-564.1000000000000227
 30
0.0
 11
840.25
 21
-567.0
 31
0.0
  0
LINE
  5
24E
100
AcDbEntity
100
AcDbLine
  8
0
 62
256
370
-1
  6
BYLAYER
 10
840.25
 20
-567.0
 30
0.0
 11
759.75
 21
-567.0
 31
0.0
  0
LINE
  5
24F
100
AcDbEntity
100
AcDbLine
  8
0
 62
256
370
-1
  6
BYLAYER
 10
759.75
 20
-567.0
 30
0.0
 11
759.75
 21
-564.1000000000000227
 31
0.0
  0
INSERT
  5
250
100
AcDbEntity
100
AcDbBlockReference
  8
0
 62
256
370
-1
  6
BYLAYER
  2
femur
 10
884.8116681560217103
 20
-583.9262518349804623
 30
0.0
 50
360.0
  0
LINE
  5
251
100
AcDbEntity
100
AcDbLine
  8
0
 62
256
370
-1
  6
BYLAYER
 10
818.0
 20
-583.0
 30
0.0
 11
885.8787943488191559
 21
-583.0
 31
0.0
  0
LINE
  5
252
100
AcDbEntity
100
AcDbLine
  8
0
 62
256
370
-1
  6
BYLAYER
 10
885.8787943488191559
 20
-583.0
 30
0.0
 11
885.8787943488191559
 21
-585.8094353141698321
 31
0.0
  0
LINE
  5
253
100
AcDbEntity
100
AcDbLine
  8
0
 62
256
370
-1
  6
BYLAYER
 10
885.8787943488191559
 20
-585.8094353141698321
 30
0.0
 11
818.0
 21
-585.8094353141698321
 31
0.0
  0
LINE
  5
254
100
AcDbEntity
100
AcDbLine
  8
0
 62
256
370
-1
  6
BYLAYER
 10
818.0
 20
-585.8094353141698321
 30
0.0
 11
818.0
 21
-583.0
 31
0.0
  0
INSERT
  5
255
100
AcDbEntity
100
AcDbBlockReference
  8
0
 62
256
370
-1
  6
BYLAYER
  2
tibia_middle
 10
948.5153673210895704
 20
-553.9893768675751744
 30
0.0
 50
360.0
  0
INSERT
  5
256
100
AcDbEntity
100
AcDbBlockReference
  8
0
 62
256
370
-1
  6
BYLAYER
  2
femur_tibia
 10
947.5153673210895704
 20
-573.9893768675751744
 30
0.0
 50
170.0000000000000284
  0
INSERT
  5
257
100
AcDbEntity
100
AcDbBlockReference
  8
0
 62
256
370
-1
  6
BYLAYER
  2
femur_tibia_control
 10
916.1000000000001364
 20
-548.4500000000000455
 30
0.0
 50
350.0
  0
LINE
  5
258
100
AcDbEntity
100
AcDbLine
  8
0
 62
256
370
-1
  6
BYLAYER
 10
840.25
 20
-600.0
 30
0.0
 11
759.75
 21
-600.0
 31
0.0
  0
LINE
  5
259
100
AcDbEntity
100
AcDbLine
  8
0
 62
256
370
-1
  6
BYLAYER
 10
759.75
 20
-600.0
 30
0.0
 11
759.75
 21
-597.1000000000000227
 31
0.0
  0
LINE
  5
25A
100
AcDbEntity
100
AcDbLine
  8
0
 62
256
370
-1
  6
BYLAYER
 10
759.75
 20
-597.1000000000000227
 30
0.0
 11
840.25
 21
-597.1000000000000227
 31
0.0
  0
LINE
  5
25B
100
AcDbEntity
100
AcDbLine
  8
0
 62
256
370
-1
  6
BYLAYER
 10
840.25
 20
-597.1000000000000227
 30
0.0
 11
840.25
 21
-600.0
 31
0.0
  0
LINE
  5
25C
100
AcDbEntity
100
AcDbLine
  8
0
 62
256
370
-1
  6
BYLAYER
 10
825.0
 20
-597.0
 30
0.0
 11
823.0
 21
-597.0
 31
0.0
  0
LINE
  5
25D
100
AcDbEntity
100
AcDbLine
  8
0
 62
256
370
-1
  6
BYLAYER
 10
823.0
 20
-597.0
 30
0.0
 11
823.0
 21
-567.0
 31
0.0
  0
LINE
  5
25E
100
AcDbEntity
100
AcDbLine
  8
0
 62
256
370
-1
  6
BYLAYER
 10
823.0
 20
-567.0
 30
0.0
 11
825.0
 21
-567.0
 31
0.0
  0
LINE
  5
25F
100
AcDbEntity
100
AcDbLine
  8
0
 62
256
370
-1
  6
BYLAYER
 10
825.0
 20
-567.0
 30
0.0
 11
825.0
 21
-597.0
 31
0.0
  0
INSERT
  5
260
100
AcDbEntity
100
AcDbBlockReference
  8
0
 62
256
370
-1
  6
BYLAYER
  2
femur
 10
715.1883318439782897
 20
-583.9262518349803486
 30
0.0
 41
1.0
 42
-1.0
 43
1.0
 50
180.0
  0
LINE
  5
261
100
AcDbEntity
100
AcDbLine
  8
0
 62
256
370
-1
  6
BYLAYER
 10
759.75
 20
-597.1000000000000227
 30
0.0
 11
759.75
 21
-600.0
 31
0.0
  0
LINE
  5
262
100
AcDbEntity
100
AcDbLine
  8
0
 62
256
370
-1
  6
BYLAYER
 10
782.0
 20
-583.0
 30
0.0
 11
714.1212056511808441
 21
-583.0
 31
0.0
  0
LINE
  5
263
100
AcDbEntity
100
AcDbLine
  8
0
 62
256
370
-1
  6
BYLAYER
 10
714.1212056511808441
 20
-583.0
 30
0.0
 11
714.1212056511808441
 21
-585.8094353141698321
 31
0.0
  0
LINE
  5
264
100
AcDbEntity
100
AcDbLine
  8
0
 62
256
370
-1
  6
BYLAYER
 10
714.1212056511808441
 20
-585.8094353141698321
 30
0.0
 11
782.0
 21
-585.8094353141698321
 31
0.0
  0
LINE
  5
265
100
AcDbEntity
100
AcDbLine
  8
0
 62
256
370
-1
  6
BYLAYER
 10
782.0
 20
-585.8094353141698321
 30
0.0
 11
782.0
 21
-583.0
 31
0.0
  0
INSERT
  5
266
100
AcDbEntity
100
AcDbBlockReference
  8
0
 62
256
370
-1
  6
BYLAYER
  2
tibia_middle
 10
651.4846326789105433
 20
-553.989376867574947
 30
0.0
 41
1.0
 42
-1.0
 43
1.0
 50
180.0
  0
INSERT
  5
267
100
AcDbEntity
100
AcDbBlockReference
  8
0
 62
256
370
-1
  6
BYLAYER
  2
femur_tibia
 10
652.4846326789104296
 20
-573.9893768675752881
 30
0.0
 41
1.0
 42
-1.0
 43
1.0
 50
9.9999999999999751
  0
LINE
  5
268
100
AcDbEntity
100
AcDbLine
  8
0
 62
256
370
-1
  6
BYLAYER
 10
775.0
 20
-597.0
 30
0.0
 11
777.0
 21
-597.0
 31
0.0
  0
INSERT
  5
269
100
AcDbEntity
100
AcDbBlockReference
  8
0
 62
256
370
-1
  6
BYLAYER
  2
femur_tibia_control
 10
683.8999999999999773
 20
-548.4499999999999318
 30
0.0
 41
1.0
 42
-1.0
 43
1.0
 50
189.9999999999999716
  0
LINE
  5
26A
100
AcDbEntity
100
AcDbLine
  8
0
 62
256
370
-1
  6
BYLAYER
 10
777.0
 20
-597.0
 30
0.0
 11
777.0
 21
-567.0
 31
0.0
  0
LINE
  5
26B
100
AcDbEntity
100
AcDbLine
  8
0
 62
256
370
-1
  6
BYLAYER
 10
777.0
 20
-567.0
 30
0.0
 11
775.0
 21
-567.0
 31
0.0
  0
LINE
  5
26C
100
AcDbEntity
100
AcDbLine
  8
0
 62
256
370
-1
  6
BYLAYER
 10
775.0
 20
-567.0
 30
0.0
 11
775.0
 21
-597.0
 31
0.0
  0
LINE
  5
26D
100
AcDbEntity
100
AcDbLine
  8
0
 62
256
370
-1
  6
BYLAYER
 10
759.75
 20
-564.0999999999999091
 30
0.0
 11
759.75
 21
-567.0
 31
0.0
  0
LINE
  5
26E
100
AcDbEntity
100
AcDbLine
  8
0
 62
256
370
-1
  6
BYLAYER
 10
917.9248734992729624
 20
-160.046341122228057
 30
0.0
 11
955.5959807245458251
 21
-149.9523983632267345
 31
0.0
  0
LINE
  5
26F
100
AcDbEntity
100
AcDbLine
  8
0
 62
256
370
-1
  6
BYLAYER
 10
955.5959807245458251
 20
-149.9523983632267345
 30
0.0
 11
956.3724378598548128
 21
-152.8501758420991905
 31
0.0
  0
LINE
  5
270
100
AcDbEntity
100
AcDbLine
  8
0
 62
256
370
-1
  6
BYLAYER
 10
956.3724378598548128
 20
-152.8501758420991905
 30
0.0
 11
918.7013306345805859
 21
-162.9441186010953686
 31
0.0
  0
LINE
  5
271
100
AcDbEntity
100
AcDbLine
  8
0
 62
256
370
-1
  6
BYLAYER
 10
918.7013306345805859
 20
-162.9441186010953686
 30
0.0
 11
917.9248734992729624
 21
-160.046341122228057
 31
0.0
  0
LINE
  5
272
100
AcDbEntity
100
AcDbLine
  8
0
 62
256
370
-1
  6
BYLAYER
 10
924.9058611008322259
 20
-115.3928946154445896
 30
0.0
 11
925.1646801459348808
 21
-114.426968789155282
 31
0.0
  0
LINE
  5
273
100
AcDbEntity
100
AcDbLine
  8
0
 62
256
370
-1
  6
BYLAYER
 10
942.9488647724825796
 20
-109.8747410741940627
 30
0.0
 11
945.8466422513498628
 21
-110.6511982095013877
 31
0.0
  0
LINE
  5
274
100
AcDbEntity
100
AcDbLine
  8
0
 62
256
370
-1
  6
BYLAYER
 10
931.2039923735015918
 20
-109.8335405409108603
 30
0.0
 11
968.8750995987746819
 21
-119.9274832999113585
 31
0.0
  0
LINE
  5
275
100
AcDbEntity
100
AcDbLine
  8
0
 62
256
370
-1
  6
BYLAYER
 10
945.8466422513498628
 20
-110.6511982095013877
 30
0.0
 11
946.105461296452404
 21
-109.6852723832122933
 31
0.0
  0
LINE
  5
276
100
AcDbEntity
100
AcDbLine
  8
0
 62
256
370
-1
  6
BYLAYER
 10
968.8750995987746819
 20
-119.9274832999113585
 30
0.0
 11
968.0986424634675132
 21
-122.8252607787773911
 31
0.0
  0
LINE
  5
277
100
AcDbEntity
100
AcDbLine
  8
0
 62
256
370
-1
  6
BYLAYER
 10
946.105461296452404
 20
-109.6852723832122933
 30
0.0
 11
943.2076838175851208
 21
-108.908815247904883
 31
0.0
  0
LINE
  5
278
100
AcDbEntity
100
AcDbLine
  8
0
 62
256
370
-1
  6
BYLAYER
 10
968.0986424634675132
 20
-122.8252607787773911
 30
0.0
 11
930.427535238194082
 21
-112.7313180197779729
 31
0.0
  0
LINE
  5
279
100
AcDbEntity
100
AcDbLine
  8
0
 62
256
370
-1
  6
BYLAYER
 10
943.2076838175851208
 20
-108.908815247904883
 30
0.0
 11
942.9488647724825796
 21
-109.8747410741940627
 31
0.0
  0
LINE
  5
27A
100
AcDbEntity
100
AcDbLine
  8
0
 62
256
370
-1
  6
BYLAYER
 10
930.427535238194082
 20
-112.7313180197779729
 30
0.0
 11
931.2039923735015918
 21
-109.8335405409108603
 31
0.0
  0
LINE
  5
27B
100
AcDbEntity
100
AcDbLine
  8
0
 62
256
370
-1
  6
BYLAYER
 10
943.5172708454269923
 20
-119.3445306461034647
 30
0.0
 11
940.6194933665599365
 21
-118.5680735107957702
 31
0.0
  0
LINE
  5
27C
100
AcDbEntity
100
AcDbLine
  8
0
 62
256
370
-1
  6
BYLAYER
 10
940.6194933665599365
 20
-118.5680735107957702
 30
0.0
 11
940.3606743214573953
 21
-119.5339993370848504
 31
0.0
  0
LINE
  5
27D
100
AcDbEntity
100
AcDbLine
  8
0
 62
256
370
-1
  6
BYLAYER
 10
940.3606743214573953
 20
-119.5339993370848504
 30
0.0
 11
943.2584518003245648
 21
-120.3104564723922465
 31
0.0
  0
LINE
  5
27E
100
AcDbEntity
100
AcDbLine
  8
0
 62
256
370
-1
  6
BYLAYER
 10
943.2584518003245648
 20
-120.3104564723922465
 30
0.0
 11
943.5172708454269923
 21
-119.3445306461034647
 31
0.0
  0
LINE
  5
27F
100
AcDbEntity
100
AcDbLine
  8
0
 62
256
370
-1
  6
BYLAYER
 10
930.6316796804899241
 20
-109.4786619818655709
 30
0.0
 11
929.8048405863986545
 21
-112.5644674906983198
 31
0.0
  0
LINE
  5
280
100
AcDbEntity
100
AcDbLine
  8
0
 62
256
370
-1
  6
BYLAYER
 10
926.5281257255684295
 20
-105.4748173074513033
 30
0.0
 11
946.8125680776388435
 21
-110.9100172546040994
 31
0.0
  0
LINE
  5
281
100
AcDbEntity
100
AcDbLine
  8
0
 62
256
370
-1
  6
BYLAYER
 10
946.8125680776388435
 20
-110.9100172546040994
 30
0.0
 11
946.086492901114525
 21
-113.6197667035072527
 31
0.0
  0
LINE
  5
282
100
AcDbEntity
100
AcDbLine
  8
0
 62
256
370
-1
  6
BYLAYER
 10
946.086492901114525
 20
-113.6197667035072527
 30
0.0
 11
925.8020505490446794
 21
-108.1845667563523818
 31
0.0
  0
LINE
  5
283
100
AcDbEntity
100
AcDbLine
  8
0
 62
256
370
-1
  6
BYLAYER
 10
925.8020505490446794
 20
-108.1845667563523818
 30
0.0
 11
926.5281257255684295
 21
-105.4748173074513033
 31
0.0
  0
LINE
  5
284
100
AcDbEntity
100
AcDbLine
  8
0
 62
256
370
-1
  6
BYLAYER
 10
945.2596538070238239
 20
-116.7055722123383816
 30
0.0
 11
924.9752114549534099
 21
-111.2703722651853866
 31
0.0
  0
LINE
  5
285
100
AcDbEntity
100
AcDbLine
  8
0
 62
256
370
-1
  6
BYLAYER
 10
924.9752114549534099
 20
-111.2703722651853866
 30
0.0
 11
924.1987543196457864
 21
-114.168149744052613
 31
0.0
  0
LINE
  5
286
100
AcDbEntity
100
AcDbLine
  8
0
 62
256
370
-1
  6
BYLAYER
 10
924.1987543196457864
 20
-114.168149744052613
 30
0.0
 11
944.4831966717163141
 21
-119.6033496912051817
 31
0.0
  0
LINE
  5
287
100
AcDbEntity
100
AcDbLine
  8
0
 62
256
370
-1
  6
BYLAYER
 10
944.4831966717163141
 20
-119.6033496912051817
 30
0.0
 11
945.2596538070238239
 21
-116.7055722123383816
 31
0.0
  0
LINE
  5
288
100
AcDbEntity
100
AcDbLine
  8
0
 62
256
370
-1
  6
BYLAYER
 10
927.4940515518575239
 20
-105.7336363525535461
 30
0.0
 11
930.3918290307246934
 21
-106.5100934878613259
 31
0.0
  0
LINE
  5
289
100
AcDbEntity
100
AcDbLine
  8
0
 62
256
370
-1
  6
BYLAYER
 10
930.3918290307246934
 20
-106.5100934878613259
 30
0.0
 11
930.6506480758272346
 21
-105.5441676615722884
 31
0.0
  0
LINE
  5
28A
100
AcDbEntity
100
AcDbLine
  8
0
 62
256
370
-1
  6
BYLAYER
 10
930.6506480758272346
 20
-105.5441676615722884
 30
0.0
 11
927.7528705969600651
 21
-104.7677105262647501
 31
0.0
  0
LINE
  5
28B
100
AcDbEntity
100
AcDbLine
  8
0
 62
256
370
-1
  6
BYLAYER
 10
927.7528705969600651
 20
-104.7677105262647501
 30
0.0
 11
927.4940515518575239
 21
-105.7336363525535461
 31
0.0
  0
LINE
  5
28C
100
AcDbEntity
100
AcDbLine
  8
0
 62
256
370
-1
  6
BYLAYER
 10
925.1646801459348808
 20
-114.426968789155282
 30
0.0
 11
928.0624576248020503
 21
-115.2034259244628913
 31
0.0
  0
LINE
  5
28D
100
AcDbEntity
100
AcDbLine
  8
0
 62
256
370
-1
  6
BYLAYER
 10
928.0624576248020503
 20
-115.2034259244628913
 30
0.0
 11
927.8036385796995091
 21
-116.1693517507518152
 31
0.0
  0
LINE
  5
28E
100
AcDbEntity
100
AcDbLine
  8
0
 62
256
370
-1
  6
BYLAYER
 10
927.8036385796995091
 20
-116.1693517507518152
 30
0.0
 11
924.9058611008322259
 21
-115.3928946154445896
 31
0.0
  0
LINE
  5
28F
100
AcDbEntity
100
AcDbLine
  8
0
 62
256
370
-1
  6
BYLAYER
 10
915.5568764214374369
 20
49.6606799783353665
 30
0.0
 11
915.2980573763350094
 21
50.6266058046243757
 31
0.0
  0
LINE
  5
290
100
AcDbEntity
100
AcDbLine
  8
0
 62
256
370
-1
  6
BYLAYER
 10
928.423499191037422
 20
63.4610429628664008
 30
0.0
 11
931.3212766699045915
 21
64.2375000981741096
 31
0.0
  0
LINE
  5
291
100
AcDbEntity
100
AcDbLine
  8
0
 62
256
370
-1
  6
BYLAYER
 10
918.2315410626715675
 20
57.624287471848703
 30
0.0
 11
955.9026482879449986
 21
67.7182302308476665
 31
0.0
  0
LINE
  5
292
100
AcDbEntity
100
AcDbLine
  8
0
 62
256
370
-1
  6
BYLAYER
 10
931.3212766699045915
 20
64.2375000981741096
 30
0.0
 11
931.0624576248020503
 21
65.2034259244631471
 31
0.0
  0
LINE
  5
293
100
AcDbEntity
100
AcDbLine
  8
0
 62
256
370
-1
  6
BYLAYER
 10
955.9026482879449986
 20
67.7182302308476665
 30
0.0
 11
956.6791054232528495
 21
64.8204527519793317
 31
0.0
  0
LINE
  5
294
100
AcDbEntity
100
AcDbLine
  8
0
 62
256
370
-1
  6
BYLAYER
 10
931.0624576248020503
 20
65.2034259244631471
 30
0.0
 11
928.1646801459348808
 21
64.426968789155282
 31
0.0
  0
LINE
  5
295
100
AcDbEntity
100
AcDbLine
  8
0
 62
256
370
-1
  6
BYLAYER
 10
956.6791054232528495
 20
64.8204527519793317
 30
0.0
 11
919.0079981979790773
 21
54.7265099929814482
 31
0.0
  0
LINE
  5
296
100
AcDbEntity
100
AcDbLine
  8
0
 62
256
370
-1
  6
BYLAYER
 10
928.1646801459348808
 20
64.426968789155282
 30
0.0
 11
928.423499191037422
 21
63.4610429628664008
 31
0.0
  0
LINE
  5
297
100
AcDbEntity
100
AcDbLine
  8
0
 62
256
370
-1
  6
BYLAYER
 10
919.0079981979790773
 20
54.7265099929814482
 30
0.0
 11
918.2315410626715675
 21
57.624287471848703
 31
0.0
  0
LINE
  5
298
100
AcDbEntity
100
AcDbLine
  8
0
 62
256
370
-1
  6
BYLAYER
 10
933.6506480758273483
 20
55.5441676615721533
 30
0.0
 11
930.7528705969600651
 21
54.7677105262649349
 31
0.0
  0
LINE
  5
299
100
AcDbEntity
100
AcDbLine
  8
0
 62
256
370
-1
  6
BYLAYER
 10
930.7528705969600651
 20
54.7677105262649349
 30
0.0
 11
931.0116896420626063
 21
53.8017846999756415
 31
0.0
  0
LINE
  5
29A
100
AcDbEntity
100
AcDbLine
  8
0
 62
256
370
-1
  6
BYLAYER
 10
931.0116896420626063
 20
53.8017846999756415
 30
0.0
 11
933.9094671209297758
 21
54.5782418352832366
 31
0.0
  0
LINE
  5
29B
100
AcDbEntity
100
AcDbLine
  8
0
 62
256
370
-1
  6
BYLAYER
 10
933.9094671209297758
 20
54.5782418352832366
 30
0.0
 11
933.6506480758273483
 21
55.5441676615721533
 31
0.0
  0
LINE
  5
29C
100
AcDbEntity
100
AcDbLine
  8
0
 62
256
370
-1
  6
BYLAYER
 10
917.5584644520926076
 20
57.6454649727337696
 30
0.0
 11
918.3853035461836498
 21
54.5596594639019941
 31
0.0
  0
LINE
  5
29D
100
AcDbEntity
100
AcDbLine
  8
0
 62
256
370
-1
  6
BYLAYER
 10
912.0027601441231582
 20
59.0611191961238333
 30
0.0
 11
932.2872024961935722
 21
64.4963191432765939
 31
0.0
  0
LINE
  5
29E
100
AcDbEntity
100
AcDbLine
  8
0
 62
256
370
-1
  6
BYLAYER
 10
932.2872024961935722
 20
64.4963191432765939
 30
0.0
 11
933.0132776727175496
 21
61.7865696943748901
 31
0.0
  0
LINE
  5
29F
100
AcDbEntity
100
AcDbLine
  8
0
 62
256
370
-1
  6
BYLAYER
 10
933.0132776727175496
 20
61.7865696943748901
 30
0.0
 11
912.7288353206469083
 21
56.3513697472226056
 31
0.0
  0
LINE
  5
2A0
100
AcDbEntity
100
AcDbLine
  8
0
 62
256
370
-1
  6
BYLAYER
 10
912.7288353206469083
 20
56.3513697472226056
 30
0.0
 11
912.0027601441231582
 21
59.0611191961238333
 31
0.0
  0
LINE
  5
2A1
100
AcDbEntity
100
AcDbLine
  8
0
 62
256
370
-1
  6
BYLAYER
 10
933.8401167668088192
 20
58.7007641855420701
 30
0.0
 11
913.5556744147384052
 21
53.2655642383889045
 31
0.0
  0
LINE
  5
2A2
100
AcDbEntity
100
AcDbLine
  8
0
 62
256
370
-1
  6
BYLAYER
 10
913.5556744147384052
 20
53.2655642383889045
 30
0.0
 11
914.332131550045915
 21
50.367786759521664
 31
0.0
  0
LINE
  5
2A3
100
AcDbEntity
100
AcDbLine
  8
0
 62
256
370
-1
  6
BYLAYER
 10
914.332131550045915
 20
50.367786759521664
 30
0.0
 11
934.616573902116329
 21
55.8029867066748793
 31
0.0
  0
LINE
  5
2A4
100
AcDbEntity
100
AcDbLine
  8
0
 62
256
370
-1
  6
BYLAYER
 10
934.616573902116329
 20
55.8029867066748793
 30
0.0
 11
933.8401167668088192
 21
58.7007641855420701
 31
0.0
  0
LINE
  5
2A5
100
AcDbEntity
100
AcDbLine
  8
0
 62
256
370
-1
  6
BYLAYER
 10
912.9686859704122526
 20
59.3199382412259482
 30
0.0
 11
915.8664634492794221
 21
60.0963953765337706
 31
0.0
  0
LINE
  5
2A6
100
AcDbEntity
100
AcDbLine
  8
0
 62
256
370
-1
  6
BYLAYER
 10
915.8664634492794221
 20
60.0963953765337706
 30
0.0
 11
915.6076444041768809
 21
61.062321202822865
 31
0.0
  0
LINE
  5
2A7
100
AcDbEntity
100
AcDbLine
  8
0
 62
256
370
-1
  6
BYLAYER
 10
915.6076444041768809
 20
61.062321202822865
 30
0.0
 11
912.7098669253098251
 21
60.2858640675150639
 31
0.0
  0
LINE
  5
2A8
100
AcDbEntity
100
AcDbLine
  8
0
 62
256
370
-1
  6
BYLAYER
 10
912.7098669253098251
 20
60.2858640675150639
 30
0.0
 11
912.9686859704122526
 21
59.3199382412259482
 31
0.0
  0
LINE
  5
2A9
100
AcDbEntity
100
AcDbLine
  8
0
 62
256
370
-1
  6
BYLAYER
 10
915.2980573763350094
 20
50.6266058046243757
 30
0.0
 11
918.1958348552021789
 21
51.4030629399318855
 31
0.0
  0
LINE
  5
2AA
100
AcDbEntity
100
AcDbLine
  8
0
 62
256
370
-1
  6
BYLAYER
 10
918.1958348552021789
 20
51.4030629399318855
 30
0.0
 11
918.4546539003047201
 21
50.4371371136427626
 31
0.0
  0
LINE
  5
2AB
100
AcDbEntity
100
AcDbLine
  8
0
 62
256
370
-1
  6
BYLAYER
 10
918.4546539003047201
 20
50.4371371136427626
 30
0.0
 11
915.5568764214374369
 21
49.6606799783353665
 31
0.0
  0
LINE
  5
2AC
100
AcDbEntity
100
AcDbLine
  8
0
 62
256
370
-1
  6
BYLAYER
 10
665.6081709692753066
 20
-216.5100934878613259
 30
0.0
 11
666.3342461457993977
 21
-219.2198429367638539
 31
0.0
  0
LINE
  5
2AD
100
AcDbEntity
100
AcDbLine
  8
0
 62
256
370
-1
  6
BYLAYER
 10
666.3342461457993977
 20
-219.2198429367638539
 30
0.0
 11
686.6186884978695844
 21
-213.7846429896100631
 31
0.0
  0
LINE
  5
2AE
100
AcDbEntity
100
AcDbLine
  8
0
 62
256
370
-1
  6
BYLAYER
 10
686.6186884978695844
 20
-213.7846429896100631
 30
0.0
 11
685.8926133213457206
 21
-211.0748935407083025
 31
0.0
  0
LINE
  5
2AF
100
AcDbEntity
100
AcDbLine
  8
0
 62
256
370
-1
  6
BYLAYER
 10
667.1610852398906673
 20
-222.3056484455960344
 30
0.0
 11
687.4455275919608539
 21
-216.8704484984427268
 31
0.0
  0
LINE
  5
2B0
100
AcDbEntity
100
AcDbLine
  8
0
 62
256
370
-1
  6
BYLAYER
 10
687.4455275919608539
 20
-216.8704484984427268
 30
0.0
 11
688.2219847272685911
 21
-219.7682259773099531
 31
0.0
  0
LINE
  5
2B1
100
AcDbEntity
100
AcDbLine
  8
0
 62
256
370
-1
  6
BYLAYER
 10
688.2219847272685911
 20
-219.7682259773099531
 30
0.0
 11
667.9375423751979497
 21
-225.2034259244628629
 31
0.0
  0
LINE
  5
2B2
100
AcDbEntity
100
AcDbLine
  8
0
 62
256
370
-1
  6
BYLAYER
 10
667.9375423751979497
 20
-225.2034259244628629
 30
0.0
 11
667.1610852398906673
 21
-222.3056484455960344
 31
0.0
  0
LINE
  5
2B3
100
AcDbEntity
100
AcDbLine
  8
0
 62
256
370
-1
  6
BYLAYER
 10
684.9266874950567399
 20
-211.3337125858110426
 30
0.0
 11
682.0289100161894567
 21
-212.1101697211182966
 31
0.0
  0
LINE
  5
2B4
100
AcDbEntity
100
AcDbLine
  8
0
 62
256
370
-1
  6
BYLAYER
 10
682.0289100161894567
 20
-212.1101697211182966
 30
0.0
 11
681.7700909710869155
 21
-211.1442438948292875
 31
0.0
  0
LINE
  5
2B5
100
AcDbEntity
100
AcDbLine
  8
0
 62
256
370
-1
  6
BYLAYER
 10
681.7700909710869155
 20
-211.1442438948292875
 30
0.0
 11
684.6678684499543124
 21
-210.3677867595218345
 31
0.0
  0
LINE
  5
2B6
100
AcDbEntity
100
AcDbLine
  8
0
 62
256
370
-1
  6
BYLAYER
 10
684.6678684499543124
 20
-210.3677867595218345
 30
0.0
 11
684.9266874950567399
 21
-211.3337125858110426
 31
0.0
  0
LINE
  5
2B7
100
AcDbEntity
100
AcDbLine
  8
0
 62
256
370
-1
  6
BYLAYER
 10
687.256058900979383
 20
-220.0270450224124374
 30
0.0
 11
684.3582814221122135
 21
-220.8035021577201462
 31
0.0
  0
LINE
  5
2B8
100
AcDbEntity
100
AcDbLine
  8
0
 62
256
370
-1
  6
BYLAYER
 10
684.3582814221122135
 20
-220.8035021577201462
 30
0.0
 11
684.6171004672148683
 21
-221.7694279840092122
 31
0.0
  0
LINE
  5
2B9
100
AcDbEntity
100
AcDbLine
  8
0
 62
256
370
-1
  6
BYLAYER
 10
684.6171004672148683
 20
-221.7694279840092122
 30
0.0
 11
687.5148779460818105
 21
-220.9929708487013897
 31
0.0
  0
LINE
  5
2BA
100
AcDbEntity
100
AcDbLine
  8
0
 62
256
370
-1
  6
BYLAYER
 10
687.5148779460818105
 20
-220.9929708487013897
 30
0.0
 11
687.256058900979383
 21
-220.0270450224124374
 31
0.0
  0
LINE
  5
2BB
100
AcDbEntity
100
AcDbLine
  8
0
 62
256
370
-1
  6
BYLAYER
 10
669.4718742744315705
 20
-215.4748173074513318
 30
0.0
 11
666.574096795564401
 21
-216.2512744427586711
 31
0.0
  0
LINE
  5
2BC
100
AcDbEntity
100
AcDbLine
  8
0
 62
256
370
-1
  6
BYLAYER
 10
666.574096795564401
 20
-216.2512744427586711
 30
0.0
 11
666.3152777504617461
 21
-215.2853486164695198
 31
0.0
  0
LINE
  5
2BD
100
AcDbEntity
100
AcDbLine
  8
0
 62
256
370
-1
  6
BYLAYER
 10
666.3152777504617461
 20
-215.2853486164695198
 30
0.0
 11
669.213055229329143
 21
-214.5088914811623511
 31
0.0
  0
LINE
  5
2BE
100
AcDbEntity
100
AcDbLine
  8
0
 62
256
370
-1
  6
BYLAYER
 10
669.213055229329143
 20
-214.5088914811623511
 30
0.0
 11
669.4718742744315705
 21
-215.4748173074513318
 31
0.0
  0
LINE
  5
2BF
100
AcDbEntity
100
AcDbLine
  8
0
 62
256
370
-1
  6
BYLAYER
 10
668.9034682014871578
 20
-224.9446068793605775
 30
0.0
 11
671.8012456803542136
 21
-224.168149744052613
 31
0.0
  0
LINE
  5
2C0
100
AcDbEntity
100
AcDbLine
  8
0
 62
256
370
-1
  6
BYLAYER
 10
671.8012456803542136
 20
-224.168149744052613
 30
0.0
 11
672.0600647254567548
 21
-225.1340755703416789
 31
0.0
  0
LINE
  5
2C1
100
AcDbEntity
100
AcDbLine
  8
0
 62
256
370
-1
  6
BYLAYER
 10
672.0600647254567548
 20
-225.1340755703416789
 30
0.0
 11
669.1622872465895853
 21
-225.9105327056494446
 31
0.0
  0
LINE
  5
2C2
100
AcDbEntity
100
AcDbLine
  8
0
 62
256
370
-1
  6
BYLAYER
 10
669.1622872465895853
 20
-225.9105327056494446
 30
0.0
 11
668.9034682014871578
 21
-224.9446068793605775
 31
0.0
  0
LINE
  5
2C3
100
AcDbEntity
100
AcDbLine
  8
0
 62
256
370
-1
  6
BYLAYER
 10
744.2211764982469049
 20
-198.3501028478856654
 30
0.0
 11
681.7890593664243397
 21
-215.078738215122911
 31
0.0
  0
LINE
  5
2C4
100
AcDbEntity
100
AcDbLine
  8
0
 62
256
370
-1
  6
BYLAYER
 10
681.7890593664243397
 20
-215.078738215122911
 30
0.0
 11
682.6158984605153819
 21
-218.1645437239550915
 31
0.0
  0
LINE
  5
2C5
100
AcDbEntity
100
AcDbLine
  8
0
 62
256
370
-1
  6
BYLAYER
 10
682.6158984605153819
 20
-218.1645437239550915
 30
0.0
 11
745.0480155923382881
 21
-201.4359083567182722
 31
0.0
  0
LINE
  5
2C6
100
AcDbEntity
100
AcDbLine
  8
0
 62
256
370
-1
  6
BYLAYER
 10
745.0480155923382881
 20
-201.4359083567182722
 30
0.0
 11
744.2211764982469049
 21
-198.3501028478856654
 31
0.0
  0
LINE
  5
2C7
100
AcDbEntity
100
AcDbLine
  8
0
 62
256
370
-1
  6
BYLAYER
 10
685.8926133213457206
 20
-211.0748935407083025
 30
0.0
 11
665.6081709692753066
 21
-216.5100934878613259
 31
0.0
  0
LINE
  5
2C8
100
AcDbEntity
100
AcDbLine
  8
0
 62
256
370
-1
  6
BYLAYER
 10
681.2167466734122172
 20
-215.4336167741670636
 30
0.0
 11
643.5456394481388998
 21
-225.5275595331666807
 31
0.0
  0
LINE
  5
2C9
100
AcDbEntity
100
AcDbLine
  8
0
 62
256
370
-1
  6
BYLAYER
 10
643.5456394481388998
 20
-225.5275595331666807
 30
0.0
 11
644.3220965834464096
 21
-228.4253370120332249
 31
0.0
  0
LINE
  5
2CA
100
AcDbEntity
100
AcDbLine
  8
0
 62
256
370
-1
  6
BYLAYER
 10
644.3220965834464096
 20
-228.4253370120332249
 30
0.0
 11
681.9932038087201818
 21
-218.3313942530354836
 31
0.0
  0
LINE
  5
2CB
100
AcDbEntity
100
AcDbLine
  8
0
 62
256
370
-1
  6
BYLAYER
 10
681.9932038087201818
 20
-218.3313942530354836
 30
0.0
 11
681.2167466734122172
 21
-215.4336167741670636
 31
0.0
  0
LINE
  5
2CC
100
AcDbEntity
100
AcDbLine
  8
0
 62
256
370
-1
  6
BYLAYER
 10
671.6475686208281104
 20
-58.786405751049287
 30
0.0
 11
671.9063876659305379
 21
-57.8204799247604768
 31
0.0
  0
LINE
  5
2CD
100
AcDbEntity
100
AcDbLine
  8
0
 62
256
370
-1
  6
BYLAYER
 10
658.780945851228239
 20
-44.9860427665178548
 30
0.0
 11
655.8831683723609558
 21
-44.2095856312105511
 31
0.0
  0
LINE
  5
2CE
100
AcDbEntity
100
AcDbLine
  8
0
 62
256
370
-1
  6
BYLAYER
 10
668.9729039795939798
 20
-50.822798257535915
 30
0.0
 11
631.3017967543197528
 21
-40.7288554985399571
 31
0.0
  0
LINE
  5
2CF
100
AcDbEntity
100
AcDbLine
  8
0
 62
256
370
-1
  6
BYLAYER
 10
655.8831683723609558
 20
-44.2095856312105511
 30
0.0
 11
656.141987417463497
 21
-43.2436598049215917
 31
0.0
  0
LINE
  5
2D0
100
AcDbEntity
100
AcDbLine
  8
0
 62
256
370
-1
  6
BYLAYER
 10
631.3017967543197528
 20
-40.7288554985399571
 30
0.0
 11
630.5253396190128115
 21
-43.6266329774048316
 31
0.0
  0
LINE
  5
2D1
100
AcDbEntity
100
AcDbLine
  8
0
 62
256
370
-1
  6
BYLAYER
 10
656.141987417463497
 20
-43.2436598049215917
 30
0.0
 11
659.0397648963306665
 21
-44.0201169402291939
 31
0.0
  0
LINE
  5
2D2
100
AcDbEntity
100
AcDbLine
  8
0
 62
256
370
-1
  6
BYLAYER
 10
630.5253396190128115
 20
-43.6266329774048316
 30
0.0
 11
668.19644684428647
 21
-53.7205757364029068
 31
0.0
  0
LINE
  5
2D3
100
AcDbEntity
100
AcDbLine
  8
0
 62
256
370
-1
  6
BYLAYER
 10
659.0397648963306665
 20
-44.0201169402291939
 30
0.0
 11
658.780945851228239
 21
-44.9860427665178548
 31
0.0
  0
LINE
  5
2D4
100
AcDbEntity
100
AcDbLine
  8
0
 62
256
370
-1
  6
BYLAYER
 10
668.19644684428647
 20
-53.7205757364029068
 30
0.0
 11
668.9729039795939798
 21
-50.822798257535915
 31
0.0
  0
LINE
  5
2D5
100
AcDbEntity
100
AcDbLine
  8
0
 62
256
370
-1
  6
BYLAYER
 10
653.553796966438199
 20
-52.9029180678125641
 30
0.0
 11
656.4515744453054822
 21
-53.6793752031200881
 31
0.0
  0
LINE
  5
2D6
100
AcDbEntity
100
AcDbLine
  8
0
 62
256
370
-1
  6
BYLAYER
 10
656.4515744453054822
 20
-53.6793752031200881
 30
0.0
 11
656.192755400202941
 21
-54.6453010294090831
 31
0.0
  0
LINE
  5
2D7
100
AcDbEntity
100
AcDbLine
  8
0
 62
256
370
-1
  6
BYLAYER
 10
656.192755400202941
 20
-54.6453010294090831
 30
0.0
 11
653.2949779213356578
 21
-53.868843894101694
 31
0.0
  0
LINE
  5
2D8
100
AcDbEntity
100
AcDbLine
  8
0
 62
256
370
-1
  6
BYLAYER
 10
653.2949779213356578
 20
-53.868843894101694
 30
0.0
 11
653.553796966438199
 21
-52.9029180678125641
 31
0.0
  0
LINE
  5
2D9
100
AcDbEntity
100
AcDbLine
  8
0
 62
256
370
-1
  6
BYLAYER
 10
669.6459805901730533
 20
-50.8016207566504647
 30
0.0
 11
668.8191414960818975
 21
-53.8874262654828868
 31
0.0
  0
LINE
  5
2DA
100
AcDbEntity
100
AcDbLine
  8
0
 62
256
370
-1
  6
BYLAYER
 10
675.2016848981421617
 20
-49.3859665332615734
 30
0.0
 11
654.9172425460718614
 21
-43.9507665861081733
 31
0.0
  0
LINE
  5
2DB
100
AcDbEntity
100
AcDbLine
  8
0
 62
256
370
-1
  6
BYLAYER
 10
654.9172425460718614
 20
-43.9507665861081733
 30
0.0
 11
654.1911673695479976
 21
-46.6605160350101187
 31
0.0
  0
LINE
  5
2DC
100
AcDbEntity
100
AcDbLine
  8
0
 62
256
370
-1
  6
BYLAYER
 10
654.1911673695479976
 20
-46.6605160350101187
 30
0.0
 11
674.475609721618298
 21
-52.0957159821635472
 31
0.0
  0
LINE
  5
2DD
100
AcDbEntity
100
AcDbLine
  8
0
 62
256
370
-1
  6
BYLAYER
 10
674.475609721618298
 20
-52.0957159821635472
 30
0.0
 11
675.2016848981421617
 21
-49.3859665332615734
 31
0.0
  0
LINE
  5
2DE
100
AcDbEntity
100
AcDbLine
  8
0
 62
256
370
-1
  6
BYLAYER
 10
653.3643282754568418
 20
-49.7463215438424271
 30
0.0
 11
673.6487706275271421
 21
-55.1815214909956069
 31
0.0
  0
LINE
  5
2DF
100
AcDbEntity
100
AcDbLine
  8
0
 62
256
370
-1
  6
BYLAYER
 10
673.6487706275271421
 20
-55.1815214909956069
 30
0.0
 11
672.8723134922196323
 21
-58.0792989698628901
 31
0.0
  0
LINE
  5
2E0
100
AcDbEntity
100
AcDbLine
  8
0
 62
256
370
-1
  6
BYLAYER
 10
672.8723134922196323
 20
-58.0792989698628901
 30
0.0
 11
652.5878711401491046
 21
-52.6440990227100087
 31
0.0
  0
LINE
  5
2E1
100
AcDbEntity
100
AcDbLine
  8
0
 62
256
370
-1
  6
BYLAYER
 10
652.5878711401491046
 20
-52.6440990227100087
 30
0.0
 11
653.3643282754568418
 21
-49.7463215438424271
 31
0.0
  0
LINE
  5
2E2
100
AcDbEntity
100
AcDbLine
  8
0
 62
256
370
-1
  6
BYLAYER
 10
674.235759071853181
 20
-49.1271474881588972
 30
0.0
 11
671.3379815929860115
 21
-48.3506903528512453
 31
0.0
  0
LINE
  5
2E3
100
AcDbEntity
100
AcDbLine
  8
0
 62
256
370
-1
  6
BYLAYER
 10
671.3379815929860115
 20
-48.3506903528512453
 30
0.0
 11
671.5968006380885527
 21
-47.3847645265620017
 31
0.0
  0
LINE
  5
2E4
100
AcDbEntity
100
AcDbLine
  8
0
 62
256
370
-1
  6
BYLAYER
 10
671.5968006380885527
 20
-47.3847645265620017
 30
0.0
 11
674.4945781169557222
 21
-48.1612216618697033
 31
0.0
  0
LINE
  5
2E5
100
AcDbEntity
100
AcDbLine
  8
0
 62
256
370
-1
  6
BYLAYER
 10
674.4945781169557222
 20
-48.1612216618697033
 30
0.0
 11
674.235759071853181
 21
-49.1271474881588972
 31
0.0
  0
LINE
  5
2E6
100
AcDbEntity
100
AcDbLine
  8
0
 62
256
370
-1
  6
BYLAYER
 10
671.9063876659305379
 20
-57.8204799247604768
 30
0.0
 11
669.0086101870633684
 21
-57.0440227894528249
 31
0.0
  0
LINE
  5
2E7
100
AcDbEntity
100
AcDbLine
  8
0
 62
256
370
-1
  6
BYLAYER
 10
669.0086101870633684
 20
-57.0440227894528249
 30
0.0
 11
668.7497911419608272
 21
-58.0099486157417417
 31
0.0
  0
LINE
  5
2E8
100
AcDbEntity
100
AcDbLine
  8
0
 62
256
370
-1
  6
BYLAYER
 10
668.7497911419608272
 20
-58.0099486157417417
 30
0.0
 11
671.6475686208281104
 21
-58.786405751049287
 31
0.0
  0
LINE
  5
2E9
100
AcDbEntity
100
AcDbLine
  8
0
 62
256
370
-1
  6
BYLAYER
 10
687.2082103826835464
 20
1.3364005572209621
 30
0.0
 11
686.9493913375811189
 21
2.3023263835103052
 31
0.0
  0
LINE
  5
2EA
100
AcDbEntity
100
AcDbLine
  8
0
 62
256
370
-1
  6
BYLAYER
 10
669.1652067110333064
 20
6.8545540984716204
 30
0.0
 11
666.2674292321662506
 21
6.0780969631635138
 31
0.0
  0
LINE
  5
2EB
100
AcDbEntity
100
AcDbLine
  8
0
 62
256
370
-1
  6
BYLAYER
 10
680.9100791100140668
 20
6.8957546317550467
 30
0.0
 11
643.2389718847406357
 21
-3.1981881272441512
 31
0.0
  0
LINE
  5
2EC
100
AcDbEntity
100
AcDbLine
  8
0
 62
256
370
-1
  6
BYLAYER
 10
666.2674292321662506
 20
6.0780969631635138
 30
0.0
 11
666.0086101870637094
 21
7.0440227894531056
 31
0.0
  0
LINE
  5
2ED
100
AcDbEntity
100
AcDbLine
  8
0
 62
256
370
-1
  6
BYLAYER
 10
643.2389718847406357
 20
-3.1981881272441512
 30
0.0
 11
644.0154290200479181
 21
-6.0959656061103829
 31
0.0
  0
INSERT
  5
2EE
100
AcDbEntity
100
AcDbBlockReference
  8
0
 62
256
370
-1
  6
BYLAYER
  2
coxa
 10
747.8177801690624165
 20
23.7883429175396444
 30
0.0
 41
1.0
 42
-1.0
 43
1.0
 50
195.0000000000000284
  0
LINE
  5
2EF
100
AcDbEntity
100
AcDbLine
  8
0
 62
256
370
-1
  6
BYLAYER
 10
666.0086101870637094
 20
7.0440227894531056
 30
0.0
 11
668.9063876659308789
 21
7.8204799247607575
 31
0.0
  0
INSERT
  5
2F0
100
AcDbEntity
100
AcDbBlockReference
  8
0
 62
256
370
-1
  6
BYLAYER
  2
coxa
 10
750.8177801690621891
 20
-73.7883429175393815
 30
0.0
 41
1.0
 42
-1.0
 43
1.0
 50
165.0
  0
LINE
  5
2F1
100
AcDbEntity
100
AcDbLine
  8
0
 62
256
370
-1
  6
BYLAYER
 10
644.0154290200479181
 20
-6.0959656061103829
 30
0.0
 11
681.686536245321804
 21
3.9979771528872199
 31
0.0
  0
INSERT
  5
2F2
100
AcDbEntity
100
AcDbBlockReference
  8
0
 62
256
370
-1
  6
BYLAYER
  2
coxa
 10
756.8177801690624165
 20
-196.2116570824603912
 30
0.0
 41
1.0
 42
-1.0
 43
1.0
 50
195.0000000000000284
  0
LINE
  5
2F3
100
AcDbEntity
100
AcDbLine
  8
0
 62
256
370
-1
  6
BYLAYER
 10
668.9063876659308789
 20
7.8204799247607575
 30
0.0
 11
669.1652067110333064
 21
6.8545540984716204
 31
0.0
  0
LINE
  5
2F4
100
AcDbEntity
100
AcDbLine
  8
0
 62
256
370
-1
  6
BYLAYER
 10
681.686536245321804
 20
3.9979771528872199
 30
0.0
 11
680.9100791100140668
 21
6.8957546317550467
 31
0.0
  0
LINE
  5
2F5
100
AcDbEntity
100
AcDbLine
  8
0
 62
256
370
-1
  6
BYLAYER
 10
743.9145089348486408
 20
23.9792685580369458
 30
0.0
 11
681.4823918030261893
 21
7.2506331907997144
 31
0.0
  0
LINE
  5
2F6
100
AcDbEntity
100
AcDbLine
  8
0
 62
256
370
-1
  6
BYLAYER
 10
668.59680063808878
 20
-2.6152354734377568
 30
0.0
 11
671.4945781169559496
 21
-1.8387783381303144
 31
0.0
  0
LINE
  5
2F7
100
AcDbEntity
100
AcDbLine
  8
0
 62
256
370
-1
  6
BYLAYER
 10
671.4945781169559496
 20
-1.8387783381303144
 30
0.0
 11
671.7533971620586044
 21
-2.8047041644194906
 31
0.0
  0
LINE
  5
2F8
100
AcDbEntity
100
AcDbLine
  8
0
 62
256
370
-1
  6
BYLAYER
 10
682.3092308971172315
 20
4.1648276819675978
 30
0.0
 11
744.7413480289399104
 21
20.8934630492044633
 31
0.0
  0
LINE
  5
2F9
100
AcDbEntity
100
AcDbLine
  8
0
 62
256
370
-1
  6
BYLAYER
 10
671.7533971620586044
 20
-2.8047041644194906
 30
0.0
 11
668.8556196831913212
 21
-3.5811612997266664
 31
0.0
  0
LINE
  5
2FA
100
AcDbEntity
100
AcDbLine
  8
0
 62
256
370
-1
  6
BYLAYER
 10
744.7413480289399104
 20
20.8934630492044633
 30
0.0
 11
743.9145089348486408
 21
23.9792685580369458
 31
0.0
  0
LINE
  5
2FB
100
AcDbEntity
100
AcDbLine
  8
0
 62
256
370
-1
  6
BYLAYER
 10
668.8556196831913212
 20
-3.5811612997266664
 30
0.0
 11
668.59680063808878
 21
-2.6152354734377568
 31
0.0
  0
LINE
  5
2FC
100
AcDbEntity
100
AcDbLine
  8
0
 62
256
370
-1
  6
BYLAYER
 10
681.482391803025962
 20
7.2506331907996575
 30
0.0
 11
682.3092308971172315
 21
4.1648276819675658
 31
0.0
  0
LINE
  5
2FD
100
AcDbEntity
100
AcDbLine
  8
0
 62
256
370
-1
  6
BYLAYER
 10
685.5859457579473428
 20
11.2544778652142519
 30
0.0
 11
665.3015034058771562
 21
5.819277918061136
 31
0.0
  0
LINE
  5
2FE
100
AcDbEntity
100
AcDbLine
  8
0
 62
256
370
-1
  6
BYLAYER
 10
665.3015034058771562
 20
5.819277918061136
 30
0.0
 11
666.02757858240102
 21
3.1095284691595992
 31
0.0
  0
LINE
  5
2FF
100
AcDbEntity
100
AcDbLine
  8
0
 62
256
370
-1
  6
BYLAYER
 10
666.02757858240102
 20
3.1095284691595992
 30
0.0
 11
686.3120209344712066
 21
8.5447284163130313
 31
0.0
  0
LINE
  5
300
100
AcDbEntity
100
AcDbLine
  8
0
 62
256
370
-1
  6
BYLAYER
 10
686.3120209344712066
 20
8.5447284163130313
 30
0.0
 11
685.5859457579473428
 21
11.2544778652142519
 31
0.0
  0
LINE
  5
301
100
AcDbEntity
100
AcDbLine
  8
0
 62
256
370
-1
  6
BYLAYER
 10
666.8544176764919484
 20
0.0237229603271167
 30
0.0
 11
687.1388600285623625
 21
5.4589229074802077
 31
0.0
  0
LINE
  5
302
100
AcDbEntity
100
AcDbLine
  8
0
 62
256
370
-1
  6
BYLAYER
 10
687.1388600285623625
 20
5.4589229074802077
 30
0.0
 11
687.9153171638702133
 21
2.561145428612523
 31
0.0
  0
LINE
  5
303
100
AcDbEntity
100
AcDbLine
  8
0
 62
256
370
-1
  6
BYLAYER
 10
687.9153171638702133
 20
2.561145428612523
 30
0.0
 11
667.6308748117996856
 21
-2.8740545185403263
 31
0.0
  0
LINE
  5
304
100
AcDbEntity
100
AcDbLine
  8
0
 62
256
370
-1
  6
BYLAYER
 10
667.6308748117996856
 20
-2.8740545185403263
 30
0.0
 11
666.8544176764919484
 21
0.0237229603271167
 31
0.0
  0
LINE
  5
305
100
AcDbEntity
100
AcDbLine
  8
0
 62
256
370
-1
  6
BYLAYER
 10
684.6200199316583621
 20
10.9956588201116929
 30
0.0
 11
681.7222424527911926
 21
10.2192016848039735
 31
0.0
  0
LINE
  5
306
100
AcDbEntity
100
AcDbLine
  8
0
 62
256
370
-1
  6
BYLAYER
 10
681.7222424527911926
 20
10.2192016848039735
 30
0.0
 11
681.4634234076887651
 21
11.1851275110933592
 31
0.0
  0
LINE
  5
307
100
AcDbEntity
100
AcDbLine
  8
0
 62
256
370
-1
  6
BYLAYER
 10
681.4634234076887651
 20
11.1851275110933592
 30
0.0
 11
684.3612008865559346
 21
11.9615846464008726
 31
0.0
  0
LINE
  5
308
100
AcDbEntity
100
AcDbLine
  8
0
 62
256
370
-1
  6
BYLAYER
 10
684.3612008865559346
 20
11.9615846464008726
 30
0.0
 11
684.6200199316583621
 21
10.9956588201116929
 31
0.0
  0
LINE
  5
309
100
AcDbEntity
100
AcDbLine
  8
0
 62
256
370
-1
  6
BYLAYER
 10
686.9493913375811189
 20
2.3023263835103052
 30
0.0
 11
684.0516138587138357
 21
1.5258692482024223
 31
0.0
  0
LINE
  5
30A
100
AcDbEntity
100
AcDbLine
  8
0
 62
256
370
-1
  6
BYLAYER
 10
684.0516138587138357
 20
1.5258692482024223
 30
0.0
 11
684.3104329038164906
 21
0.5599434219138431
 31
0.0
  0
LINE
  5
30B
100
AcDbEntity
100
AcDbLine
  8
0
 62
256
370
-1
  6
BYLAYER
 10
684.3104329038164906
 20
0.5599434219138431
 30
0.0
 11
687.2082103826835464
 21
1.3364005572209621
 31
0.0
  0
LINE
  5
30C
100
AcDbEntity
100
AcDbLine
  8
0
 62
256
370
-1
  6
BYLAYER
 10
732.0780977219957322
 20
-67.5302561238873409
 30
0.0
 11
669.6459805901730533
 21
-50.8016207566504647
 31
0.0
  0
LINE
  5
30D
100
AcDbEntity
100
AcDbLine
  8
0
 62
256
370
-1
  6
BYLAYER
 10
668.8191414960818975
 20
-53.8874262654828868
 30
0.0
 11
731.2512586279045763
 21
-70.6160616327202462
 31
0.0
  0
LINE
  5
30E
100
AcDbEntity
100
AcDbLine
  8
0
 62
256
370
-1
  6
BYLAYER
 10
731.2512586279045763
 20
-70.6160616327202462
 30
0.0
 11
732.0780977219957322
 21
-67.5302561238873409
 31
0.0
  0
INSERT
  5
30F
100
AcDbEntity
100
AcDbBlockReference
  8
0
 62
256
370
-1
  6
BYLAYER
  2
abdomen
 10
795.0
 20
-278.4999999999998863
 30
0.0
 50
180.0
  0
INSERT
  5
310
100
AcDbEntity
100
AcDbBlockReference
  8
0
 62
256
370
-1
  6
BYLAYER
  2
jaw
 10
785.0
 20
133.5000000000001137
 30
0.0
 41
1.0
 42
-1.0
 43
1.0
  0
INSERT
  5
311
100
AcDbEntity
100
AcDbBlockReference
  8
0
 62
256
370
-1
  6
BYLAYER
  2
jaw
 10
805.0
 20
133.5000000000001137
 30
0.0
 50
180.0
  0
INSERT
  5
312
100
AcDbEntity
100
AcDbBlockReference
  8
0
 62
256
370
-1
  6
BYLAYER
  2
head
 10
111.3831021055920445
 20
116.0707065791312687
 30
0.0
 50
180.0
  0
INSERT
  5
313
100
AcDbEntity
100
AcDbBlockReference
  8
0
 62
256
370
-1
  6
BYLAYER
  2
jaw
 10
57.1552265382135971
 20
91.6805233710188645
 30
0.0
  0
INSERT
  5
314
100
AcDbEntity
100
AcDbBlockReference
  8
0
 62
256
370
-1
  6
BYLAYER
  2
jaw
 10
180.8711416294653986
 20
37.5347254436539828
 30
0.0
 50
229.9999999999999716
  0
INSERT
  5
315
100
AcDbEntity
100
AcDbBlockReference
  8
0
 62
256
370
-1
  6
BYLAYER
  2
thorax_botom
 10
795.0000000000001137
 20
-75.4999999999998863
 30
0.0
 50
630.0000000000001137
  0
INSERT
  5
316
100
AcDbEntity
100
AcDbBlockReference
  8
0
 62
256
370
-1
  6
BYLAYER
  2
head
 10
795.0
 20
90.5000000000001137
 30
0.0
  0
ENDSEC
  0
SECTION
  2
OBJECTS
  0
DICTIONARY
  5
C
100
AcDbDictionary
280
0
281
1
  3
ACAD_GROUP
350
D
  3
ACAD_LAYOUT
350
1A
  3
ACAD_MLINESTYLE
350
17
  3
ACAD_PLOTSETTINGS
350
19
  3
ACAD_PLOTSTYLENAME
350
E
  3
AcDbVariableDictionary
350
317
  3
QCAD_OBJECTS
350
318
  0
DICTIONARY
  5
D
100
AcDbDictionary
280
0
281
1
  0
ACDBDICTIONARYWDFLT
  5
E
100
AcDbDictionary
281
1
  3
Normal
350
F
100
AcDbDictionaryWithDefault
340
F
  0
ACDBPLACEHOLDER
  5
F
  0
DICTIONARY
  5
17
100
AcDbDictionary
280
0
281
1
  3
Standard
350
18
  0
MLINESTYLE
  5
18
100
AcDbMlineStyle
  2
STANDARD
 70
0
  3

 62
256
 51
90.0
 52
90.0
 71
2
 49
0.5
 62
256
  6
BYLAYER
 49
-0.5
 62
256
  6
BYLAYER
  0
DICTIONARY
  5
19
100
AcDbDictionary
280
0
281
1
  0
DICTIONARY
  5
1A
100
AcDbDictionary
281
1
  3
Layout1
350
1E
  3
Layout2
350
26
  3
Model
350
22
  0
LAYOUT
  5
1E
100
AcDbPlotSettings
  1

  2
none_device
  4

  6

 40
0.0
 41
0.0
 42
0.0
 43
0.0
 44
0.0
 45
0.0
 46
0.0
 47
0.0
 48
0.0
 49
0.0
140
0.0
141
0.0
142
1.0
143
1.0
 70
688
 72
0
 73
0
 74
5
  7

 75
16
147
1.0
148
0.0
149
0.0
100
AcDbLayout
  1
Layout1
 70
1
 71
1
 10
0.0
 20
0.0
 11
420.0
 21
297.0
 12
0.0
 22
0.0
 32
0.0
 14
100000000000000000000.0
 24
100000000000000000000.0
 34
100000000000000000000.0
 15
-100000000000000000000.0
 25
-100000000000000000000.0
 35
-100000000000000000000.0
146
0.0
 13
0.0
 23
0.0
 33
0.0
 16
1.0
 26
0.0
 36
0.0
 17
0.0
 27
1.0
 37
0.0
 76
0
330
1B
  0
LAYOUT
  5
22
100
AcDbPlotSettings
  1

  2
none_device
  4

  6

 40
0.0
 41
0.0
 42
0.0
 43
0.0
 44
0.0
 45
0.0
 46
0.0
 47
0.0
 48
0.0
 49
0.0
140
0.0
141
0.0
142
1.0
143
1.0
 70
1712
 72
0
 73
0
 74
0
  7

 75
0
147
1.0
148
0.0
149
0.0
100
AcDbLayout
  1
Model
 70
1
 71
0
 10
0.0
 20
0.0
 11
12.0
 21
9.0
 12
0.0
 22
0.0
 32
0.0
 14
0.0
 24
0.0
 34
0.0
 15
0.0
 25
0.0
 35
0.0
146
0.0
 13
0.0
 23
0.0
 33
0.0
 16
1.0
 26
0.0
 36
0.0
 17
0.0
 27
1.0
 37
0.0
 76
0
330
1F
  0
LAYOUT
  5
26
100
AcDbPlotSettings
  1

  2
none_device
  4

  6

 40
0.0
 41
0.0
 42
0.0
 43
0.0
 44
0.0
 45
0.0
 46
0.0
 47
0.0
 48
0.0
 49
0.0
140
0.0
141
0.0
142
1.0
143
1.0
 70
688
 72
0
 73
0
 74
5
  7

 75
16
147
1.0
148
0.0
149
0.0
100
AcDbLayout
  1
Layout2
 70
1
 71
2
 10
0.0
 20
0.0
 11
12.0
 21
9.0
 12
0.0
 22
0.0
 32
0.0
 14
0.0
 24
0.0
 34
0.0
 15
0.0
 25
0.0
 35
0.0
146
0.0
 13
0.0
 23
0.0
 33
0.0
 16
1.0
 26
0.0
 36
0.0
 17
0.0
 27
1.0
 37
0.0
 76
0
330
23
  0
DICTIONARY
  5
317
100
AcDbDictionary
281
1
  3
DIMASSOC
350
31A
  3
HIDETEXT
350
319
  0
DICTIONARYVAR
  5
319
100
DictionaryVariables
280
0
  1
2
  0
DICTIONARYVAR
  5
31A
100
DictionaryVariables
280
0
  1
1
  0
DICTIONARY
  5
318
100
AcDbDictionary
281
1
  3
Grid/DisplayGrid00
350
31B
  3
Grid/DisplayGrid01
350
31C
  3
Grid/DisplayGrid02
350
31D
  3
Grid/DisplayGrid03
350
31E
  3
Grid/GridSpacingX00
350
31F
  3
Grid/GridSpacingX01
350
320
  3
Grid/GridSpacingX02
350
321
  3
Grid/GridSpacingX03
350
322
  3
Grid/GridSpacingY00
350
323
  3
Grid/GridSpacingY01
350
324
  3
Grid/GridSpacingY02
350
325
  3
Grid/GridSpacingY03
350
326
  3
Grid/IsometricGrid00
350
327
  3
Grid/IsometricGrid01
350
328
  3
Grid/IsometricGrid02
350
329
  3
Grid/IsometricGrid03
350
32A
  3
Grid/IsometricProjection00
350
32B
  3
Grid/IsometricProjection01
350
32C
  3
Grid/IsometricProjection02
350
32D
  3
Grid/IsometricProjection03
350
32E
  3
Grid/MetaGridSpacingX00
350
32F
  3
Grid/MetaGridSpacingX01
350
330
  3
Grid/MetaGridSpacingX02
350
331
  3
Grid/MetaGridSpacingX03
350
332
  3
Grid/MetaGridSpacingY00
350
333
  3
Grid/MetaGridSpacingY01
350
334
  3
Grid/MetaGridSpacingY02
350
335
  3
Grid/MetaGridSpacingY03
350
336
  3
MultiPageSettings/Columns
350
337
  3
MultiPageSettings/GlueMarginsBottom
350
338
  3
MultiPageSettings/GlueMarginsLeft
350
339
  3
MultiPageSettings/GlueMarginsRight
350
33A
  3
MultiPageSettings/GlueMarginsTop
350
33B
  3
MultiPageSettings/PrintCropMarks
350
33C
  3
MultiPageSettings/Rows
350
33D
  3
PageSettings/OffsetX
350
33E
  3
PageSettings/OffsetY
350
33F
  3
PageSettings/PageOrientation
350
340
  3
PageSettings/PaperHeight
350
341
  3
PageSettings/PaperWidth
350
342
  3
PageSettings/Scale
350
343
  3
PageSettings/ShowPaperBorders
350
344
  3
UnitSettings/PaperUnit
350
345
  0
XRECORD
  5
31B
330
318
100
AcDbXrecord
280
1
290
1
  0
XRECORD
  5
31C
330
318
100
AcDbXrecord
280
1
290
1
  0
XRECORD
  5
31D
330
318
100
AcDbXrecord
280
1
290
1
  0
XRECORD
  5
31E
330
318
100
AcDbXrecord
280
1
290
1
  0
XRECORD
  5
31F
330
318
100
AcDbXrecord
280
1
1000
auto
  0
XRECORD
  5
320
330
318
100
AcDbXrecord
280
1
1000
auto
  0
XRECORD
  5
321
330
318
100
AcDbXrecord
280
1
1000
auto
  0
XRECORD
  5
322
330
318
100
AcDbXrecord
280
1
1000
auto
  0
XRECORD
  5
323
330
318
100
AcDbXrecord
280
1
1000
auto
  0
XRECORD
  5
324
330
318
100
AcDbXrecord
280
1
1000
auto
  0
XRECORD
  5
325
330
318
100
AcDbXrecord
280
1
1000
auto
  0
XRECORD
  5
326
330
318
100
AcDbXrecord
280
1
1000
auto
  0
XRECORD
  5
327
330
318
100
AcDbXrecord
280
1
290
0
  0
XRECORD
  5
328
330
318
100
AcDbXrecord
280
1
290
0
  0
XRECORD
  5
329
330
318
100
AcDbXrecord
280
1
290
0
  0
XRECORD
  5
32A
330
318
100
AcDbXrecord
280
1
290
0
  0
XRECORD
  5
32B
330
318
100
AcDbXrecord
280
1
 90
0
  0
XRECORD
  5
32C
330
318
100
AcDbXrecord
280
1
 90
0
  0
XRECORD
  5
32D
330
318
100
AcDbXrecord
280
1
 90
0
  0
XRECORD
  5
32E
330
318
100
AcDbXrecord
280
1
 90
0
  0
XRECORD
  5
32F
330
318
100
AcDbXrecord
280
1
1000
auto
  0
XRECORD
  5
330
330
318
100
AcDbXrecord
280
1
1000
auto
  0
XRECORD
  5
331
330
318
100
AcDbXrecord
280
1
1000
auto
  0
XRECORD
  5
332
330
318
100
AcDbXrecord
280
1
1000
auto
  0
XRECORD
  5
333
330
318
100
AcDbXrecord
280
1
1000
auto
  0
XRECORD
  5
334
330
318
100
AcDbXrecord
280
1
1000
auto
  0
XRECORD
  5
335
330
318
100
AcDbXrecord
280
1
1000
auto
  0
XRECORD
  5
336
330
318
100
AcDbXrecord
280
1
1000
auto
  0
XRECORD
  5
337
330
318
100
AcDbXrecord
280
1
 90
1
  0
XRECORD
  5
338
330
318
100
AcDbXrecord
280
1
 40
10.0
  0
XRECORD
  5
339
330
318
100
AcDbXrecord
280
1
 40
10.0
  0
XRECORD
  5
33A
330
318
100
AcDbXrecord
280
1
 40
10.0
  0
XRECORD
  5
33B
330
318
100
AcDbXrecord
280
1
 40
10.0
  0
XRECORD
  5
33C
330
318
100
AcDbXrecord
280
1
290
0
  0
XRECORD
  5
33D
330
318
100
AcDbXrecord
280
1
 90
1
  0
XRECORD
  5
33E
330
318
100
AcDbXrecord
280
1
 40
250.2162568341056783
  0
XRECORD
  5
33F
330
318
100
AcDbXrecord
280
1
 40
-340.7702895910563825
  0
XRECORD
  5
340
330
318
100
AcDbXrecord
280
1
1000
Portrait
  0
XRECORD
  5
341
330
318
100
AcDbXrecord
280
1
 40
279.3999999999999773
  0
XRECORD
  5
342
330
318
100
AcDbXrecord
280
1
 40
215.9000000000000057
  0
XRECORD
  5
343
330
318
100
AcDbXrecord
280
1
1000
1:1
  0
XRECORD
  5
344
330
318
100
AcDbXrecord
280
1
290
1
  0
XRECORD
  5
345
330
318
100
AcDbXrecord
280
1
 90
4
  0
ENDSEC
  0
EOF
