999
dxflib 3.3.4.0
  0
SECTION
  2
HEADER
  9
$ACADVER
  1
AC1015
  9
$HANDSEED
  5
FFFF
  9
$DIMADEC
 70
0
  9
$DIMASZ
 40
2.5
  9
$DIMAUNIT
 70
0
  9
$DIMAZIN
 70
2
  9
$DIMDEC
 70
4
  9
$DIMEXE
 40
1.25
  9
$DIMEXO
 40
0.625
  9
$DIMGAP
 40
0.625
  9
$DIMLUNIT
 70
2
  9
$DIMTSZ
 40
0.0
  9
$DIMTXT
 40
2.5
  9
$DIMZIN
 70
8
  9
$DWGCODEPAGE
  3
ANSI_1252
  9
$INSUNITS
 70
4
  9
$LTSCALE
 40
1.0
  0
ENDSEC
  0
SECTION
  2
TABLES
  0
TABLE
  2
VPORT
  5
8
100
AcDbSymbolTable
 70
1
  0
VPORT
  5
30
100
AcDbSymbolTableRecord
100
AcDbViewportTableRecord
  2
*Active
 70
0
 10
0.0
 20
0.0
 11
1.0
 21
1.0
 12
286.3055555555554861
 22
148.5
 13
0.0
 23
0.0
 14
10.0
 24
10.0
 15
10.0
 25
10.0
 16
0.0
 26
0.0
 36
1.0
 17
0.0
 27
0.0
 37
0.0
 40
297.0
 41
1.92798353909465
 42
50.0
 43
0.0
 44
0.0
 50
0.0
 51
0.0
 71
0
 72
100
 73
1
 74
3
 75
1
 76
1
 77
0
 78
0
281
0
 65
1
110
0.0
120
0.0
130
0.0
111
1.0
121
0.0
131
0.0
112
0.0
122
1.0
132
0.0
 79
0
146
0.0
  0
ENDTAB
  0
TABLE
  2
LTYPE
  5
5
100
AcDbSymbolTable
 70
21
  0
LTYPE
  5
16
100
AcDbSymbolTableRecord
100
AcDbLinetypeTableRecord
  2
CONTINUOUS
 70
0
  3
Solid line
 72
65
 73
0
 40
0.0
  0
LTYPE
  5
31
100
AcDbSymbolTableRecord
100
AcDbLinetypeTableRecord
  2
CENTER2
 70
0
  3
Center (.5x) ___ _ ___ _ ___ _ ___ _ ___ _ ___
 72
65
 73
4
 40
28.5749999999999993
 49
19.0500000000000007
 74
0
 49
-3.1749999999999998
 74
0
 49
3.1749999999999998
 74
0
 49
-3.1749999999999998
 74
0
  0
LTYPE
  5
32
100
AcDbSymbolTableRecord
100
AcDbLinetypeTableRecord
  2
DIVIDEX2
 70
0
  3
Divide (2x) ________  .  .  ________  .  .  _
 72
65
 73
6
 40
63.5
 49
25.3999999999999986
 74
0
 49
-12.6999999999999993
 74
0
 49
0.0
 74
0
 49
-12.6999999999999993
 74
0
 49
0.0
 74
0
 49
-12.6999999999999993
 74
0
  0
LTYPE
  5
33
100
AcDbSymbolTableRecord
100
AcDbLinetypeTableRecord
  2
DOT2
 70
0
  3
Dot (.5x) .....................................
 72
65
 73
2
 40
3.1749999999999998
 49
0.0
 74
0
 49
-3.1749999999999998
 74
0
  0
LTYPE
  5
34
100
AcDbSymbolTableRecord
100
AcDbLinetypeTableRecord
  2
DASHDOT2
 70
0
  3
Dash dot (.5x) _._._._._._._._._._._._._._._.
 72
65
 73
4
 40
12.6999999999999993
 49
6.3499999999999996
 74
0
 49
-3.1749999999999998
 74
0
 49
0.0
 74
0
 49
-3.1749999999999998
 74
0
  0
LTYPE
  5
35
100
AcDbSymbolTableRecord
100
AcDbLinetypeTableRecord
  2
DIVIDE
 70
0
  3
Divide ____ . . ____ . . ____ . . ____ . . ____
 72
65
 73
6
 40
31.75
 49
12.6999999999999993
 74
0
 49
-6.3499999999999996
 74
0
 49
0.0
 74
0
 49
-6.3499999999999996
 74
0
 49
0.0
 74
0
 49
-6.3499999999999996
 74
0
  0
LTYPE
  5
36
100
AcDbSymbolTableRecord
100
AcDbLinetypeTableRecord
  2
DASHDOT
 70
0
  3
Dash dot __ . __ . __ . __ . __ . __ . __ . __
 72
65
 73
4
 40
25.3999999999999986
 49
12.6999999999999993
 74
0
 49
-6.3499999999999996
 74
0
 49
0.0
 74
0
 49
-6.3499999999999996
 74
0
  0
LTYPE
  5
37
100
AcDbSymbolTableRecord
100
AcDbLinetypeTableRecord
  2
BORDER
 70
0
  3
Border __ __ . __ __ . __ __ . __ __ . __ __ .
 72
65
 73
6
 40
44.4500000000000028
 49
12.6999999999999993
 74
0
 49
-6.3499999999999996
 74
0
 49
12.6999999999999993
 74
0
 49
-6.3499999999999996
 74
0
 49
0.0
 74
0
 49
-6.3499999999999996
 74
0
  0
LTYPE
  5
38
100
AcDbSymbolTableRecord
100
AcDbLinetypeTableRecord
  2
DASHDOTX2
 70
0
  3
Dash dot (2x) ____  .  ____  .  ____  .  ___
 72
65
 73
4
 40
50.7999999999999972
 49
25.3999999999999986
 74
0
 49
-12.6999999999999993
 74
0
 49
0.0
 74
0
 49
-12.6999999999999993
 74
0
  0
LTYPE
  5
39
100
AcDbSymbolTableRecord
100
AcDbLinetypeTableRecord
  2
CENTERX2
 70
0
  3
Center (2x) ________  __  ________  __  _____
 72
65
 73
4
 40
101.5999999999999943
 49
63.5
 74
0
 49
-12.6999999999999993
 74
0
 49
12.6999999999999993
 74
0
 49
-12.6999999999999993
 74
0
  0
LTYPE
  5
3A
100
AcDbSymbolTableRecord
100
AcDbLinetypeTableRecord
  2
BORDER2
 70
0
  3
Border (.5x) __.__.__.__.__.__.__.__.__.__.__.
 72
65
 73
6
 40
22.2250000000000014
 49
6.3499999999999996
 74
0
 49
-3.1749999999999998
 74
0
 49
6.3499999999999996
 74
0
 49
-3.1749999999999998
 74
0
 49
0.0
 74
0
 49
-3.1749999999999998
 74
0
  0
LTYPE
  5
3B
100
AcDbSymbolTableRecord
100
AcDbLinetypeTableRecord
  2
BORDERX2
 70
0
  3
Border (2x) ____  ____  .  ____  ____  .  ___
 72
65
 73
6
 40
88.9000000000000057
 49
25.3999999999999986
 74
0
 49
-12.6999999999999993
 74
0
 49
25.3999999999999986
 74
0
 49
-12.6999999999999993
 74
0
 49
0.0
 74
0
 49
-12.6999999999999993
 74
0
  0
LTYPE
  5
14
100
AcDbSymbolTableRecord
100
AcDbLinetypeTableRecord
  2
BYBLOCK
 70
0
  3

 72
65
 73
0
 40
0.0
  0
LTYPE
  5
15
100
AcDbSymbolTableRecord
100
AcDbLinetypeTableRecord
  2
BYLAYER
 70
0
  3

 72
65
 73
0
 40
0.0
  0
LTYPE
  5
3C
100
AcDbSymbolTableRecord
100
AcDbLinetypeTableRecord
  2
DASHED2
 70
0
  3
Dashed (.5x) _ _ _ _ _ _ _ _ _ _ _ _ _ _ _ _ _
 72
65
 73
2
 40
9.5250000000000004
 49
6.3499999999999996
 74
0
 49
-3.1749999999999998
 74
0
  0
LTYPE
  5
3D
100
AcDbSymbolTableRecord
100
AcDbLinetypeTableRecord
  2
CENTER
 70
0
  3
Center ____ _ ____ _ ____ _ ____ _ ____ _ ____
 72
65
 73
4
 40
50.7999999999999972
 49
31.75
 74
0
 49
-6.3499999999999996
 74
0
 49
6.3499999999999996
 74
0
 49
-6.3499999999999996
 74
0
  0
LTYPE
  5
3E
100
AcDbSymbolTableRecord
100
AcDbLinetypeTableRecord
  2
DIVIDE2
 70
0
  3
Divide (.5x) __..__..__..__..__..__..__..__.._
 72
65
 73
6
 40
15.875
 49
6.3499999999999996
 74
0
 49
-3.1749999999999998
 74
0
 49
0.0
 74
0
 49
-3.1749999999999998
 74
0
 49
0.0
 74
0
 49
-3.1749999999999998
 74
0
  0
LTYPE
  5
3F
100
AcDbSymbolTableRecord
100
AcDbLinetypeTableRecord
  2
DASHED
 70
0
  3
Dashed __ __ __ __ __ __ __ __ __ __ __ __ __ _
 72
65
 73
2
 40
19.0500000000000007
 49
12.6999999999999993
 74
0
 49
-6.3499999999999996
 74
0
  0
LTYPE
  5
40
100
AcDbSymbolTableRecord
100
AcDbLinetypeTableRecord
  2
DOTX2
 70
0
  3
Dot (2x) .  .  .  .  .  .  .  .  .  .  .  .  .
 72
65
 73
2
 40
12.6999999999999993
 49
0.0
 74
0
 49
-12.6999999999999993
 74
0
  0
LTYPE
  5
41
100
AcDbSymbolTableRecord
100
AcDbLinetypeTableRecord
  2
DASHEDX2
 70
0
  3
Dashed (2x) ____  ____  ____  ____  ____  ___
 72
65
 73
2
 40
38.1000000000000014
 49
25.3999999999999986
 74
0
 49
-12.6999999999999993
 74
0
  0
LTYPE
  5
42
100
AcDbSymbolTableRecord
100
AcDbLinetypeTableRecord
  2
DOT
 70
0
  3
Dot . . . . . . . . . . . . . . . . . . . . . .
 72
65
 73
2
 40
6.3499999999999996
 49
0.0
 74
0
 49
-6.3499999999999996
 74
0
  0
ENDTAB
  0
TABLE
  2
LAYER
  5
2
100
AcDbSymbolTable
 70
1
  0
LAYER
  5
10
100
AcDbSymbolTableRecord
100
AcDbLayerTableRecord
  2
0
 70
0
 62
7
420
0
  6
CONTINUOUS
370
25
390
F
  0
ENDTAB
  0
TABLE
  2
STYLE
  5
3
100
AcDbSymbolTable
 70
1
  0
STYLE
  5
43
100
AcDbSymbolTableRecord
100
AcDbTextStyleTableRecord
  2
Standard
 70
0
 40
0.0
 41
1.0
 50
0.0
 71
0
 42
2.5
  3

  4

1001
ACAD
1000
txt
1071
0
  0
ENDTAB
  0
TABLE
  2
VIEW
  5
6
100
AcDbSymbolTable
 70
0
  0
ENDTAB
  0
TABLE
  2
UCS
  5
7
100
AcDbSymbolTable
 70
0
  0
ENDTAB
  0
TABLE
  2
APPID
  5
9
100
AcDbSymbolTable
 70
1
  0
APPID
  5
12
100
AcDbSymbolTableRecord
100
AcDbRegAppTableRecord
  2
ACAD
 70
0
  0
APPID
  5
44
100
AcDbSymbolTableRecord
100
AcDbRegAppTableRecord
  2
QCAD
 70
0
  0
ENDTAB
  0
TABLE
  2
DIMSTYLE
  5
A
100
AcDbSymbolTable
 70
1
100
AcDbDimStyleTable
 71
0
  0
DIMSTYLE
105
27
100
AcDbSymbolTableRecord
100
AcDbDimStyleTableRecord
  2
Standard
 41
2.5
 42
0.625
 43
3.75
 44
1.25
 70
0
 73
0
 74
0
 77
1
 78
8
140
2.5
141
2.5
143
0.03937007874016
147
0.625
171
3
172
1
271
2
272
2
274
3
278
44
283
0
284
8
340
43
  0
ENDTAB
  0
TABLE
  2
BLOCK_RECORD
  5
1
100
AcDbSymbolTable
 70
1
  0
BLOCK_RECORD
  5
1F
100
AcDbSymbolTableRecord
100
AcDbBlockTableRecord
  2
*Model_Space
340
22
  0
BLOCK_RECORD
  5
1B
100
AcDbSymbolTableRecord
100
AcDbBlockTableRecord
  2
*Paper_Space
340
1E
  0
BLOCK_RECORD
  5
23
100
AcDbSymbolTableRecord
100
AcDbBlockTableRecord
  2
*Paper_Space0
340
26
  0
BLOCK_RECORD
  5
45
100
AcDbSymbolTableRecord
100
AcDbBlockTableRecord
  2
tibia_rear
340
0
  0
BLOCK_RECORD
  5
46
100
AcDbSymbolTableRecord
100
AcDbBlockTableRecord
  2
servo_top
340
0
  0
BLOCK_RECORD
  5
47
100
AcDbSymbolTableRecord
100
AcDbBlockTableRecord
  2
femur
340
0
  0
BLOCK_RECORD
  5
48
100
AcDbSymbolTableRecord
100
AcDbBlockTableRecord
  2
femur_tibia
340
0
  0
BLOCK_RECORD
  5
49
100
AcDbSymbolTableRecord
100
AcDbBlockTableRecord
  2
coxa
340
0
  0
BLOCK_RECORD
  5
4A
100
AcDbSymbolTableRecord
100
AcDbBlockTableRecord
  2
femur_tibia_control
340
0
  0
BLOCK_RECORD
  5
4B
100
AcDbSymbolTableRecord
100
AcDbBlockTableRecord
  2
tibia_middle
340
0
  0
BLOCK_RECORD
  5
4C
100
AcDbSymbolTableRecord
100
AcDbBlockTableRecord
  2
tibia_front
340
0
  0
ENDTAB
  0
ENDSEC
  0
SECTION
  2
BLOCKS
  0
BLOCK
  5
20
100
AcDbEntity
  8
0
100
AcDbBlockBegin
  2
*Model_Space
 70
0
 10
0.0
 20
0.0
 30
0.0
  3
*Model_Space
  1

  0
ENDBLK
  5
21
100
AcDbEntity
  8
0
100
AcDbBlockEnd
  0
BLOCK
  5
1C
100
AcDbEntity
 67
1
  8
0
100
AcDbBlockBegin
  2
*Paper_Space
 70
0
 10
0.0
 20
0.0
 30
0.0
  3
*Paper_Space
  1

  0
ENDBLK
  5
1D
100
AcDbEntity
 67
1
  8
0
100
AcDbBlockEnd
  0
BLOCK
  5
24
100
AcDbEntity
  8
0
100
AcDbBlockBegin
  2
*Paper_Space0
 70
0
 10
0.0
 20
0.0
 30
0.0
  3
*Paper_Space0
  1

  0
ENDBLK
  5
25
100
AcDbEntity
  8
0
100
AcDbBlockEnd
  0
BLOCK
  5
4D
100
AcDbEntity
  8
0
100
AcDbBlockBegin
  2
tibia_rear
 70
0
 10
0.0
 20
0.0
 30
0.0
  3
tibia_rear
  1

  0
LINE
  5
4E
100
AcDbEntity
100
AcDbLine
  8
0
 62
256
370
-1
  6
BYLAYER
 10
-7.6463583491373015
 20
4.0646190173115997
 30
0.0
 11
-7.6463583491373015
 21
-25.9353809826884003
 31
0.0
  0
ARC
  5
4F
100
AcDbEntity
  8
0
 62
256
370
-1
  6
BYLAYER
100
AcDbCircle
 10
136.1364817444966775
 20
-35.8888794432982792
 30
0.0
 40
130.1445131082007833
100
AcDbArc
 50
161.3138642182418891
 51
175.8380011755167516
  0
ARC
  5
50
100
AcDbEntity
  8
0
 62
256
370
-1
  6
BYLAYER
100
AcDbCircle
 10
-17.6463583491373015
 20
-75.9353809826884003
 30
0.0
 40
5.0
100
AcDbArc
 50
148.272768469349387
 51
326.4747008864466693
  0
ARC
  5
51
100
AcDbEntity
  8
0
 62
256
370
-1
  6
BYLAYER
100
AcDbCircle
 10
-103.2603952497865976
 20
-23.0028457081666886
 30
0.0
 40
95.6559317924888006
100
AcDbArc
 50
328.272768469349387
 51
358.3630292723632351
  0
ARC
  5
52
100
AcDbEntity
  8
0
 62
256
370
-1
  6
BYLAYER
100
AcDbCircle
 10
-118.9438320786561576
 20
-8.823602269261702
 30
0.0
 40
126.5120118591665488
100
AcDbArc
 50
326.4746593922901639
 51
355.8924239428184819
  0
CIRCLE
  5
53
100
AcDbEntity
100
AcDbCircle
  8
0
 62
256
370
-1
  6
BYLAYER
 10
0.3536416508626985
 20
-0.9353809826883968
 30
0.0
 40
1.0
  0
CIRCLE
  5
54
100
AcDbEntity
100
AcDbCircle
  8
0
 62
256
370
-1
  6
BYLAYER
 10
0.3536416508626985
 20
-20.9353809826884003
 30
0.0
 40
1.0
  0
ARC
  5
55
100
AcDbEntity
  8
0
 62
256
370
-1
  6
BYLAYER
100
AcDbCircle
 10
-118.6894531442366088
 20
-19.2064432677637171
 30
0.0
 40
136.8979685239335709
100
AcDbArc
 50
15.5924939290849789
 51
23.1112949640151477
  0
ARC
  5
56
100
AcDbEntity
  8
0
 62
256
370
-1
  6
BYLAYER
100
AcDbCircle
 10
-6.0935883761493983
 20
12.2149870330546229
 30
0.0
 40
20.0
100
AcDbArc
 50
341.3138642182418039
 51
15.5924939290849558
  0
ARC
  5
57
100
AcDbEntity
  8
0
 62
256
370
-1
  6
BYLAYER
100
AcDbCircle
 10
2.6855172976218
 20
11.9288747643891817
 30
0.0
 40
7.0
100
AcDbArc
 50
194.9794103424413265
 51
26.971697254064388
  0
ARC
  5
58
100
AcDbEntity
  8
0
 62
256
370
-1
  6
BYLAYER
100
AcDbCircle
 10
-42.4618258088723906
 20
1.1078173436710959
 30
0.0
 40
34.9407992263645255
100
AcDbArc
 50
4.8543568194041429
 51
45.0381700454504283
  0
LINE
  5
59
100
AcDbEntity
100
AcDbLine
  8
0
 62
256
370
-1
  6
BYLAYER
 10
1.7327618132093576
 20
72.666938229054125
 30
0.0
 11
-1.2072240970693429
 21
65.6994716835564674
 31
0.0
  0
ARC
  5
5A
100
AcDbEntity
  8
0
 62
256
370
-1
  6
BYLAYER
100
AcDbCircle
 10
-41.2121991395286287
 20
91.6900306370675651
 30
0.0
 40
48.2385456911747283
100
AcDbArc
 50
291.4594559034334793
 51
319.6971988000016722
  0
ARC
  5
5B
100
AcDbEntity
  8
0
 62
256
370
-1
  6
BYLAYER
100
AcDbCircle
 10
-19.6339522746694541
 20
73.4747973146048565
 30
0.0
 40
20.0
100
AcDbArc
 50
319.5086480330424479
 51
337.1222444045184261
  0
ARC
  5
5C
100
AcDbEntity
  8
0
 62
256
370
-1
  6
BYLAYER
100
AcDbCircle
 10
-26.716667141295396
 20
53.0830726785427913
 30
0.0
 40
7.0
100
AcDbArc
 50
231.3518210956243308
 51
296.5169089668613651
  0
ARC
  5
5D
100
AcDbEntity
  8
0
 62
256
370
-1
  6
BYLAYER
100
AcDbCircle
 10
-41.7701759649871462
 20
55.2074812522917995
 30
0.0
 40
2.0
100
AcDbArc
 50
40.3701308860074803
 51
210.9011163551893162
  0
ARC
  5
5E
100
AcDbEntity
  8
0
 62
256
370
-1
  6
BYLAYER
100
AcDbCircle
 10
3.5754346309693688
 20
71.8894056659492833
 30
0.0
 40
2.0
100
AcDbArc
 50
350.6944372394015659
 51
157.122244404518284
  0
ARC
  5
5F
100
AcDbEntity
  8
0
 62
256
370
-1
  6
BYLAYER
100
AcDbCircle
 10
94.3302883546300279
 20
57.0186807411701722
 30
0.0
 40
89.9651125927191515
100
AcDbArc
 50
170.6944372394014522
 51
194.476768385914113
  0
ARC
  5
60
100
AcDbEntity
  8
0
 62
256
370
-1
  6
BYLAYER
100
AcDbCircle
 10
10.5565856698614269
 20
99.6940298696181344
 30
0.0
 40
66.6814603155174126
100
AcDbArc
 50
220.3701308860075301
 51
231.3518210956241319
  0
ARC
  5
61
100
AcDbEntity
  8
0
 62
256
370
-1
  6
BYLAYER
100
AcDbCircle
 10
66.9256831072144536
 20
120.2634505394311475
 30
0.0
 40
128.6770260123480796
100
AcDbArc
 50
210.9011022878977144
 51
218.1391636218664019
  0
ARC
  5
62
100
AcDbEntity
  8
0
 62
256
370
-1
  6
BYLAYER
100
AcDbCircle
 10
-24.9818259765546422
 20
66.8431954589707686
 30
0.0
 40
24.9136376627589406
100
AcDbArc
 50
274.0713388802860209
 51
325.4184237135981448
  0
ARC
  5
63
100
AcDbEntity
  8
0
 62
256
370
-1
  6
BYLAYER
100
AcDbCircle
 10
-35.9479645538176626
 20
5.5333610003525031
 30
0.0
 40
32.1996320561201301
100
AcDbArc
 50
8.188514498255957
 51
51.2446627662987382
  0
ARC
  5
64
100
AcDbEntity
  8
0
 62
256
370
-1
  6
BYLAYER
100
AcDbCircle
 10
74.2328960702519112
 20
48.3395780610510926
 30
0.0
 40
73.2793044550819133
100
AcDbArc
 50
178.0012682276847613
 51
206.9716972540643951
  0
ARC
  5
65
100
AcDbEntity
  8
0
 62
256
370
-1
  6
BYLAYER
100
AcDbCircle
 10
-23.0576690866845162
 20
38.2281730895702694
 30
0.0
 40
3.7674594719846222
100
AcDbArc
 50
92.3628836650108695
 51
238.9654701936471497
  0
ARC
  5
66
100
AcDbEntity
  8
0
 62
256
370
-1
  6
BYLAYER
100
AcDbCircle
 10
-2.0
 20
51.0
 30
0.0
 40
3.0
100
AcDbArc
 50
358.0012682276845339
 51
145.4184237135980879
  0
ARC
  5
67
100
AcDbEntity
  8
0
 62
256
370
-1
  6
BYLAYER
100
AcDbCircle
 10
-23.0
 20
39.0
 30
0.0
 40
9.0
100
AcDbArc
 50
201.3451201908122812
 51
242.8614462742312696
  0
ARC
  5
68
100
AcDbEntity
  8
0
 62
256
370
-1
  6
BYLAYER
100
AcDbCircle
 10
-50.0107415162439111
 20
28.4444401975707386
 30
0.0
 40
20.0
100
AcDbArc
 50
21.3451201908122634
 51
38.1391636218663805
  0
LINE
  5
69
100
AcDbEntity
100
AcDbLine
  8
0
 62
256
370
-1
  6
BYLAYER
 10
-27.1052943697860407
 20
30.9908453543833318
 30
0.0
 11
-20.4502294634274264
 21
27.7414422812424064
 31
0.0
  0
ARC
  5
6A
100
AcDbEntity
  8
0
 62
256
370
-1
  6
BYLAYER
100
AcDbCircle
 10
-24.8377703117915019
 20
18.7553705419373635
 30
0.0
 40
10.0
100
AcDbArc
 50
45.038170045450407
 51
63.9755861592302608
  0
LINE
  5
6B
100
AcDbEntity
100
AcDbLine
  8
0
 62
256
370
-1
  6
BYLAYER
 10
-25.0
 20
35.0
 30
0.0
 11
-18.0991873496253319
 21
32.0312118522515306
 31
0.0
  0
ARC
  5
6C
100
AcDbEntity
  8
0
 62
256
370
-1
  6
BYLAYER
100
AcDbCircle
 10
-22.0510810767042607
 20
22.8452151197311935
 30
0.0
 40
10.0
100
AcDbArc
 50
51.2446627662987382
 51
66.7222147260245322
  0
ENDBLK
  5
6D
100
AcDbEntity
  8
0
100
AcDbBlockEnd
  0
BLOCK
  5
6E
100
AcDbEntity
  8
0
100
AcDbBlockBegin
  2
servo_top
 70
0
 10
0.0
 20
0.0
 30
0.0
  3
servo_top
  1

  0
LINE
  5
6F
100
AcDbEntity
100
AcDbLine
  8
0
 62
256
370
-1
  6
BYLAYER
 10
31.0
 20
5.0000000000000284
 30
0.0
 11
26.5
 21
5.0000000000000284
 31
0.0
  0
LINE
  5
70
100
AcDbEntity
100
AcDbLine
  8
0
 62
256
370
-1
  6
BYLAYER
 10
26.5
 20
5.0000000000000284
 30
0.0
 11
26.5
 21
-4.9999999999999716
 31
0.0
  0
CIRCLE
  5
71
100
AcDbEntity
100
AcDbCircle
  8
0
 62
256
370
-1
  6
BYLAYER
 10
0.0
 20
0.0
 30
0.0
 40
1.0
  0
CIRCLE
  5
72
100
AcDbEntity
100
AcDbCircle
  8
0
 62
256
370
-1
  6
BYLAYER
 10
30.0
 20
0.0
 30
0.0
 40
1.0
  0
CIRCLE
  5
73
100
AcDbEntity
100
AcDbCircle
  8
0
 62
256
370
-1
  6
BYLAYER
 10
10.5
 20
0.0000000000000284
 30
0.0
 40
10.0
  0
CIRCLE
  5
74
100
AcDbEntity
100
AcDbCircle
  8
0
 62
256
370
-1
  6
BYLAYER
 10
15.0499999999999972
 20
7.0000000000000284
 30
0.0
 40
0.5
  0
CIRCLE
  5
75
100
AcDbEntity
100
AcDbCircle
  8
0
 62
256
370
-1
  6
DOT
 10
10.5
 20
0.0000000000000284
 30
0.0
 40
5.0
  0
CIRCLE
  5
76
100
AcDbEntity
100
AcDbCircle
  8
0
 62
256
370
-1
  6
BYLAYER
 10
10.5
 20
0.0000000000000284
 30
0.0
 40
2.0
  0
LINE
  5
77
100
AcDbEntity
100
AcDbLine
  8
0
 62
256
370
-1
  6
BYLAYER
 10
3.5
 20
-5.9999999999999716
 30
0.0
 11
26.5
 21
-5.9999999999999716
 31
0.0
  0
LINE
  5
78
100
AcDbEntity
100
AcDbLine
  8
0
 62
256
370
-1
  6
BYLAYER
 10
26.5
 20
-5.9999999999999716
 30
0.0
 11
26.5
 21
6.0000000000000284
 31
0.0
  0
LINE
  5
79
100
AcDbEntity
100
AcDbLine
  8
0
 62
256
370
-1
  6
BYLAYER
 10
26.5
 20
6.0000000000000284
 30
0.0
 11
3.5
 21
6.0000000000000284
 31
0.0
  0
LINE
  5
7A
100
AcDbEntity
100
AcDbLine
  8
0
 62
256
370
-1
  6
BYLAYER
 10
3.5
 20
6.0000000000000284
 30
0.0
 11
3.5
 21
-5.9999999999999716
 31
0.0
  0
LINE
  5
7B
100
AcDbEntity
100
AcDbLine
  8
0
 62
256
370
-1
  6
BYLAYER
 10
-1.0
 20
-4.9999999999999716
 30
0.0
 11
3.5
 21
-4.9999999999999716
 31
0.0
  0
LINE
  5
7C
100
AcDbEntity
100
AcDbLine
  8
0
 62
256
370
-1
  6
BYLAYER
 10
3.5
 20
-4.9999999999999716
 30
0.0
 11
3.5
 21
5.0000000000000284
 31
0.0
  0
LINE
  5
7D
100
AcDbEntity
100
AcDbLine
  8
0
 62
256
370
-1
  6
BYLAYER
 10
3.5
 20
5.0000000000000284
 30
0.0
 11
-1.0
 21
5.0000000000000284
 31
0.0
  0
LINE
  5
7E
100
AcDbEntity
100
AcDbLine
  8
0
 62
256
370
-1
  6
BYLAYER
 10
-1.0
 20
5.0000000000000284
 30
0.0
 11
-1.0
 21
-4.9999999999999716
 31
0.0
  0
LINE
  5
7F
100
AcDbEntity
100
AcDbLine
  8
0
 62
256
370
-1
  6
BYLAYER
 10
26.5
 20
-4.9999999999999716
 30
0.0
 11
31.0
 21
-4.9999999999999716
 31
0.0
  0
LINE
  5
80
100
AcDbEntity
100
AcDbLine
  8
0
 62
256
370
-1
  6
BYLAYER
 10
31.0
 20
-4.9999999999999716
 30
0.0
 11
31.0
 21
5.0000000000000284
 31
0.0
  0
ENDBLK
  5
81
100
AcDbEntity
  8
0
100
AcDbBlockEnd
  0
BLOCK
  5
82
100
AcDbEntity
  8
0
100
AcDbBlockBegin
  2
femur
 70
0
 10
0.0
 20
0.0
 30
0.0
  3
femur
  1

  0
LINE
  5
83
100
AcDbEntity
100
AcDbLine
  8
0
 62
256
370
-1
  6
BYLAYER
 10
-28.0908128558425467
 20
-2.0737481650195875
 30
0.0
 11
-13.3116681560216286
 21
-2.0737481650195875
 31
0.0
  0
LINE
  5
84
100
AcDbEntity
100
AcDbLine
  8
0
 62
256
370
-1
  6
BYLAYER
 10
-13.3116681560216286
 20
-2.0737481650195875
 30
0.0
 11
-13.3116681560216286
 21
1.0262518349804139
 31
0.0
  0
LINE
  5
85
100
AcDbEntity
100
AcDbLine
  8
0
 62
256
370
-1
  6
BYLAYER
 10
-13.3116681560216286
 20
1.0262518349804139
 30
0.0
 11
-28.0908128558425467
 21
1.0262518349804139
 31
0.0
  0
LINE
  5
86
100
AcDbEntity
100
AcDbLine
  8
0
 62
256
370
-1
  6
BYLAYER
 10
3.2883318439783871
 20
-6.5237481650195583
 30
0.0
 11
26.28833184397838
 21
-6.5237481650195797
 31
0.0
  0
LINE
  5
87
100
AcDbEntity
100
AcDbLine
  8
0
 62
256
370
-1
  6
BYLAYER
 10
26.28833184397838
 20
-6.5237481650195797
 30
0.0
 11
26.2883318439783871
 21
5.4762518349804417
 31
0.0
  0
LINE
  5
88
100
AcDbEntity
100
AcDbLine
  8
0
 62
256
370
-1
  6
BYLAYER
 10
26.2883318439783871
 20
5.4762518349804417
 30
0.0
 11
3.2883318439783906
 21
5.4762518349804408
 31
0.0
  0
LINE
  5
89
100
AcDbEntity
100
AcDbLine
  8
0
 62
256
370
-1
  6
BYLAYER
 10
3.2883318439783906
 20
5.4762518349804408
 30
0.0
 11
3.2883318439783871
 21
-6.5237481650195583
 31
0.0
  0
CIRCLE
  5
8A
100
AcDbEntity
100
AcDbCircle
  8
0
 62
256
370
-1
  6
BYLAYER
 10
-0.2116681560215987
 20
-0.5237481650195532
 30
0.0
 40
0.5
  0
CIRCLE
  5
8B
100
AcDbEntity
100
AcDbCircle
  8
0
 62
256
370
-1
  6
BYLAYER
 10
29.7883318439783942
 20
-0.5237481650195598
 30
0.0
 40
0.5
  0
CIRCLE
  5
8C
100
AcDbEntity
100
AcDbCircle
  8
0
 62
256
370
-1
  6
BYLAYER
 10
31.28833184397838
 20
35.4762518349804168
 30
0.0
 40
1.0
  0
CIRCLE
  5
8D
100
AcDbEntity
100
AcDbCircle
  8
0
 62
256
370
-1
  6
BYLAYER
 10
31.28833184397838
 20
15.4762518349804203
 30
0.0
 40
1.0
  0
ARC
  5
8E
100
AcDbEntity
  8
0
 62
256
370
-1
  6
BYLAYER
100
AcDbCircle
 10
31.28833184397838
 20
35.4762518349804168
 30
0.0
 40
5.0
100
AcDbArc
 50
359.5918614598647878
 51
164.9540000929168286
  0
LINE
  5
8F
100
AcDbEntity
100
AcDbLine
  8
0
 62
256
370
-1
  6
BYLAYER
 10
20.1169204548863121
 20
13.178279560002947
 30
0.0
 11
26.4597432330704478
 21
36.774224109957899
 31
0.0
  0
ARC
  5
90
100
AcDbEntity
  8
0
 62
256
370
-1
  6
BYLAYER
100
AcDbCircle
 10
15.28833184397838
 20
14.4762518349804203
 30
0.0
 40
5.0
100
AcDbArc
 50
265.0595827500652604
 51
344.9540000929168286
  0
LINE
  5
91
100
AcDbEntity
100
AcDbLine
  8
0
 62
256
370
-1
  6
BYLAYER
 10
-5.063013065265638
 20
7.3904358541540631
 30
0.0
 11
1.3513449092440288
 21
10.0858159808263785
 31
0.0
  0
LINE
  5
92
100
AcDbEntity
100
AcDbLine
  8
0
 62
256
370
-1
  6
BYLAYER
 10
3.7189305331452776
 20
10.457675804980159
 30
0.0
 11
14.857733154811493
 21
9.4948278649807012
 31
0.0
  0
LINE
  5
93
100
AcDbEntity
100
AcDbLine
  8
0
 62
256
370
-1
  6
BYLAYER
 10
36.2882049888232103
 20
35.4406353295443708
 30
0.0
 11
35.9998731448448268
 21
-5.0356165054360424
 31
0.0
  0
ARC
  5
94
100
AcDbEntity
  8
0
 62
256
370
-1
  6
BYLAYER
100
AcDbCircle
 10
-7.0
 20
-14.0
 30
0.0
 40
5.0
100
AcDbArc
 50
74.1642383527101856
 51
93.2884488222413069
  0
ARC
  5
95
100
AcDbEntity
  8
0
 62
256
370
-1
  6
BYLAYER
100
AcDbCircle
 10
-7.0
 20
12.0
 30
0.0
 40
5.0
100
AcDbArc
 50
264.7303345681419842
 51
292.7926538442287665
  0
ARC
  5
96
100
AcDbEntity
  8
0
 62
256
370
-1
  6
BYLAYER
100
AcDbCircle
 10
3.2883318439783906
 20
5.4762518349804408
 30
0.0
 40
5.0
100
AcDbArc
 50
85.0595827500653172
 51
112.7926538442287523
  0
ARC
  5
97
100
AcDbEntity
  8
0
 62
256
370
-1
  6
BYLAYER
100
AcDbCircle
 10
31.0
 20
-5.0
 30
0.0
 40
5.0
100
AcDbArc
 50
273.147284792055757
 51
359.5918614598647878
  0
LINE
  5
98
100
AcDbEntity
100
AcDbLine
  8
0
 62
256
370
-1
  6
BYLAYER
 10
-5.6355961475202694
 20
-9.1897606995765315
 30
0.0
 11
1.9239279914986565
 21
-11.3339874654430286
 31
0.0
  0
LINE
  5
99
100
AcDbEntity
100
AcDbLine
  8
0
 62
256
370
-1
  6
BYLAYER
 10
3.5628461546428842
 20
-11.5162066669242478
 30
0.0
 11
31.2745143106644967
 21
-9.9924585019046877
 31
0.0
  0
ARC
  5
9A
100
AcDbEntity
  8
0
 62
256
370
-1
  6
BYLAYER
100
AcDbCircle
 10
3.2883318439783871
 20
-6.5237481650195592
 30
0.0
 40
5.0
100
AcDbArc
 50
254.1642383527101856
 51
273.147284792055757
  0
LINE
  5
9B
100
AcDbEntity
100
AcDbLine
  8
0
 62
256
370
-1
  6
BYLAYER
 10
-28.0908128558425467
 20
-2.0737481650195875
 30
0.0
 11
-27.9986888469959467
 21
-5.1886859566228045
 31
0.0
  0
LINE
  5
9C
100
AcDbEntity
100
AcDbLine
  8
0
 62
256
370
-1
  6
BYLAYER
 10
-28.0908128558425467
 20
1.0262518349804139
 30
0.0
 11
-27.9986435457572469
 21
4.0902046866211368
 31
0.0
  0
ARC
  5
9D
100
AcDbEntity
  8
0
 62
256
370
-1
  6
BYLAYER
100
AcDbCircle
 10
-25.0
 20
4.0
 30
0.0
 40
3.0
100
AcDbArc
 50
95.4940822308089423
 51
178.2769576882681974
  0
ARC
  5
9E
100
AcDbEntity
  8
0
 62
256
370
-1
  6
BYLAYER
100
AcDbCircle
 10
-24.9999999999999964
 20
-5.0999999999999996
 30
0.0
 40
3.0
100
AcDbArc
 50
181.6940238043136731
 51
254.6732901524357544
  0
ARC
  5
9F
100
AcDbEntity
  8
0
 62
256
370
-1
  6
BYLAYER
100
AcDbCircle
 10
-16.1879192896703188
 20
-87.6161533208773307
 30
0.0
 40
95.0389717226342441
100
AcDbArc
 50
84.7303345681419984
 51
95.4940814381008636
  0
ARC
  5
A0
100
AcDbEntity
  8
0
 62
256
370
-1
  6
BYLAYER
100
AcDbCircle
 10
-12.0728074944602088
 20
74.2882055678653757
 30
0.0
 40
83.4338205567840987
100
AcDbArc
 50
260.5317655891529398
 51
273.2884488222412642
  0
ENDBLK
  5
A1
100
AcDbEntity
  8
0
100
AcDbBlockEnd
  0
BLOCK
  5
A2
100
AcDbEntity
  8
0
100
AcDbBlockBegin
  2
femur_tibia
 70
0
 10
0.0
 20
0.0
 30
0.0
  3
femur_tibia
  1

  0
ARC
  5
A3
100
AcDbEntity
  8
0
 62
256
370
-1
  6
BYLAYER
100
AcDbCircle
 10
0.0
 20
0.0
 30
0.0
 40
5.0
100
AcDbArc
 50
79.184499018653014
 51
280.8155009813469292
  0
ARC
  5
A4
100
AcDbEntity
  8
0
 62
256
370
-1
  6
BYLAYER
100
AcDbCircle
 10
31.9000000000000057
 20
0.0
 30
0.0
 40
5.0
100
AcDbArc
 50
259.1844990186529571
 51
100.8155009813470002
  0
ARC
  5
A5
100
AcDbEntity
  8
0
 62
256
370
-1
  6
BYLAYER
100
AcDbCircle
 10
15.9500000000000171
 20
83.4901042040312973
 30
0.0
 40
80.0
100
AcDbArc
 50
259.1844990186529571
 51
280.8155009813469292
  0
ARC
  5
A6
100
AcDbEntity
  8
0
 62
256
370
-1
  6
BYLAYER
100
AcDbCircle
 10
15.9500000000000171
 20
-83.4901042040312831
 30
0.0
 40
80.0
100
AcDbArc
 50
79.184499018653014
 51
100.8155009813470144
  0
CIRCLE
  5
A7
100
AcDbEntity
100
AcDbCircle
  8
0
 62
256
370
-1
  6
BYLAYER
 10
0.0
 20
0.0
 30
0.0
 40
1.0
  0
CIRCLE
  5
A8
100
AcDbEntity
100
AcDbCircle
  8
0
 62
256
370
-1
  6
BYLAYER
 10
31.9000000000000057
 20
0.0
 30
0.0
 40
1.0
  0
ENDBLK
  5
A9
100
AcDbEntity
  8
0
100
AcDbBlockEnd
  0
BLOCK
  5
AA
100
AcDbEntity
  8
0
100
AcDbBlockBegin
  2
coxa
 70
0
 10
0.0
 20
0.0
 30
0.0
  3
coxa
  1

  0
LINE
  5
AB
100
AcDbEntity
100
AcDbLine
  8
0
 62
256
370
-1
  6
BYLAYER
 10
-25.0
 20
8.6602540378443855
 30
0.0
 11
-10.0000000000000036
 21
17.320508075688771
 31
0.0
  0
LINE
  5
AC
100
AcDbEntity
100
AcDbLine
  8
0
 62
256
370
-1
  6
BYLAYER
 10
-25.0
 20
-8.6602540378443855
 30
0.0
 11
-10.0000000000000036
 21
-17.320508075688771
 31
0.0
  0
ARC
  5
AD
100
AcDbEntity
  8
0
 62
256
370
-1
  6
BYLAYER
100
AcDbCircle
 10
0.0
 20
0.0
 30
0.0
 40
20.0
100
AcDbArc
 50
240.0
 51
322.5522573840717087
  0
ARC
  5
AE
100
AcDbEntity
  8
0
 62
256
370
-1
  6
BYLAYER
100
AcDbCircle
 10
-20.0
 20
0.0
 30
0.0
 40
10.0
100
AcDbArc
 50
120.0000000000000142
 51
240.0
  0
ARC
  5
AF
100
AcDbEntity
  8
0
 62
256
370
-1
  6
BYLAYER
100
AcDbCircle
 10
0.0
 20
0.0
 30
0.0
 40
20.0
100
AcDbArc
 50
37.4477426159282842
 51
120.0000000000000142
  0
CIRCLE
  5
B0
100
AcDbEntity
100
AcDbCircle
  8
0
 62
256
370
-1
  6
BYLAYER
 10
0.0000000000000213
 20
15.0
 30
0.0
 40
0.5
  0
CIRCLE
  5
B1
100
AcDbEntity
100
AcDbCircle
  8
0
 62
256
370
-1
  6
BYLAYER
 10
0.0000000000000284
 20
-14.9999999999999982
 30
0.0
 40
0.5
  0
LINE
  5
B2
100
AcDbEntity
100
AcDbLine
  8
0
 62
256
370
-1
  6
BYLAYER
 10
6.0
 20
-11.5
 30
0.0
 11
6.0
 21
11.5
 31
0.0
  0
LINE
  5
B3
100
AcDbEntity
100
AcDbLine
  8
0
 62
256
370
-1
  6
BYLAYER
 10
6.0
 20
11.5
 30
0.0
 11
-5.9999999999999893
 21
11.5
 31
0.0
  0
LINE
  5
B4
100
AcDbEntity
100
AcDbLine
  8
0
 62
256
370
-1
  6
BYLAYER
 10
-5.9999999999999893
 20
11.5
 30
0.0
 11
-6.0
 21
-11.4999999999999982
 31
0.0
  0
LINE
  5
B5
100
AcDbEntity
100
AcDbLine
  8
0
 62
256
370
-1
  6
BYLAYER
 10
-6.0
 20
-11.4999999999999982
 30
0.0
 11
6.0
 21
-11.5
 31
0.0
  0
CIRCLE
  5
B6
100
AcDbEntity
100
AcDbCircle
  8
0
 62
256
370
-1
  6
BYLAYER
 10
-24.0
 20
0.0
 30
0.0
 40
1.75
  0
LINE
  5
B7
100
AcDbEntity
100
AcDbLine
  8
0
 62
256
370
-1
  6
BYLAYER
 10
23.4999999999999929
 20
-1.5500000000000007
 30
0.0
 11
37.8791446998209267
 21
-1.5500000000000007
 31
0.0
  0
LINE
  5
B8
100
AcDbEntity
100
AcDbLine
  8
0
 62
256
370
-1
  6
BYLAYER
 10
37.8791446998209267
 20
1.5500000000000007
 30
0.0
 11
23.4999999999999929
 21
1.5500000000000007
 31
0.0
  0
LINE
  5
B9
100
AcDbEntity
100
AcDbLine
  8
0
 62
256
370
-1
  6
BYLAYER
 10
23.4999999999999929
 20
1.5500000000000007
 30
0.0
 11
23.4999999999999929
 21
-1.5500000000000007
 31
0.0
  0
LINE
  5
BA
100
AcDbEntity
100
AcDbLine
  8
0
 62
256
370
-1
  6
BYLAYER
 10
37.8791446998209338
 20
1.5500000000000007
 30
0.0
 11
37.8999244902597283
 21
4.4787149644136575
 31
0.0
  0
LINE
  5
BB
100
AcDbEntity
100
AcDbLine
  8
0
 62
256
370
-1
  6
BYLAYER
 10
37.8791446998209338
 20
-1.5500000000000007
 30
0.0
 11
37.9973752575854107
 21
-4.3745346055089627
 31
0.0
  0
ARC
  5
BC
100
AcDbEntity
  8
0
 62
256
370
-1
  6
BYLAYER
100
AcDbCircle
 10
34.8999999999999986
 20
4.5
 30
0.0
 40
3.0
100
AcDbArc
 50
359.5934823540276284
 51
90.0
  0
ARC
  5
BD
100
AcDbEntity
  8
0
 62
256
370
-1
  6
BYLAYER
100
AcDbCircle
 10
35.0
 20
-4.5
 30
0.0
 40
3.0
100
AcDbArc
 50
272.8676750144844618
 51
2.3969115978229514
  0
ARC
  5
BE
100
AcDbEntity
  8
0
 62
256
370
-1
  6
BYLAYER
100
AcDbCircle
 10
26.0
 20
28.0
 30
0.0
 40
20.0
100
AcDbArc
 50
257.3922478057433523
 51
267.7016582367481305
  0
ARC
  5
BF
100
AcDbEntity
  8
0
 62
256
370
-1
  6
BYLAYER
100
AcDbCircle
 10
9.4557062154893181
 20
-384.2144655207142705
 30
0.0
 40
392.5463358719309781
100
AcDbArc
 50
86.2549009735848813
 51
87.7016582367481021
  0
ARC
  5
C0
100
AcDbEntity
  8
0
 62
256
370
-1
  6
BYLAYER
100
AcDbCircle
 10
9.4557062154893181
 20
-384.2144655207142705
 30
0.0
 40
392.5463358719309781
100
AcDbArc
 50
86.8559093416140939
 51
87.7016582367481021
  0
ARC
  5
C1
100
AcDbEntity
  8
0
 62
256
370
-1
  6
BYLAYER
100
AcDbCircle
 10
26.0
 20
-28.0
 30
0.0
 40
20.0
100
AcDbArc
 50
93.0966459647808193
 51
102.6077521942566619
  0
ARC
  5
C2
100
AcDbEntity
  8
0
 62
256
370
-1
  6
BYLAYER
100
AcDbCircle
 10
163.4204204278601651
 20
-2568.1806983102414961
 30
0.0
 40
2563.8951141936754539
100
AcDbArc
 50
92.8676750144845187
 51
93.0966077307098914
  0
ARC
  5
C3
100
AcDbEntity
  8
0
 62
256
370
-1
  6
BYLAYER
100
AcDbCircle
 10
23.8172471778029653
 20
18.2411276206115325
 30
0.0
 40
10.0
100
AcDbArc
 50
217.4477426159282629
 51
257.3922478057433523
  0
ARC
  5
C4
100
AcDbEntity
  8
0
 62
256
370
-1
  6
BYLAYER
100
AcDbCircle
 10
23.8172471778029653
 20
-18.2411276206115325
 30
0.0
 40
10.0
100
AcDbArc
 50
102.6077521942566619
 51
142.5522573840717371
  0
ENDBLK
  5
C5
100
AcDbEntity
  8
0
100
AcDbBlockEnd
  0
BLOCK
  5
C6
100
AcDbEntity
  8
0
100
AcDbBlockBegin
  2
femur_tibia_control
 70
0
 10
0.0
 20
0.0
 30
0.0
  3
femur_tibia_control
  1

  0
ARC
  5
C7
100
AcDbEntity
  8
0
 62
256
370
-1
  6
BYLAYER
100
AcDbCircle
 10
31.9000000000000057
 20
0.0
 30
0.0
 40
5.0
100
AcDbArc
 50
259.1844990186529571
 51
100.8155009813470002
  0
ARC
  5
C8
100
AcDbEntity
  8
0
 62
256
370
-1
  6
BYLAYER
100
AcDbCircle
 10
15.9500000000000171
 20
83.4901042040312973
 30
0.0
 40
80.0
100
AcDbArc
 50
259.1844990186529571
 51
280.8155009813469292
  0
ARC
  5
C9
100
AcDbEntity
  8
0
 62
256
370
-1
  6
BYLAYER
100
AcDbCircle
 10
15.9500000000000171
 20
-83.4901042040312831
 30
0.0
 40
80.0
100
AcDbArc
 50
79.184499018653014
 51
100.8155009813470144
  0
CIRCLE
  5
CA
100
AcDbEntity
100
AcDbCircle
  8
0
 62
256
370
-1
  6
BYLAYER
 10
31.9000000000000057
 20
0.0
 30
0.0
 40
1.0
  0
CIRCLE
  5
CB
100
AcDbEntity
100
AcDbCircle
  8
0
 62
256
370
-1
  6
BYLAYER
 10
-50.0
 20
0.0
 30
0.0
 40
1.0
  0
CIRCLE
  5
CC
100
AcDbEntity
100
AcDbCircle
  8
0
 62
256
370
-1
  6
BYLAYER
 10
0.0
 20
0.0
 30
0.0
 40
1.0
  0
ARC
  5
CD
100
AcDbEntity
  8
0
 62
256
370
-1
  6
BYLAYER
100
AcDbCircle
 10
-25.0
 20
152.9705854077835454
 30
0.0
 40
150.0
100
AcDbArc
 50
260.7182009133224483
 51
279.2817990866775517
  0
ARC
  5
CE
100
AcDbEntity
  8
0
 62
256
370
-1
  6
BYLAYER
100
AcDbCircle
 10
-25.0
 20
-152.9705854077835454
 30
0.0
 40
150.0
100
AcDbArc
 50
80.7182009133224767
 51
99.2817990866775375
  0
ARC
  5
CF
100
AcDbEntity
  8
0
 62
256
370
-1
  6
BYLAYER
100
AcDbCircle
 10
-50.0
 20
0.0
 30
0.0
 40
5.0
100
AcDbArc
 50
80.7182009133231162
 51
279.2817990866775517
  0
ARC
  5
D0
100
AcDbEntity
  8
0
 62
256
370
-1
  6
BYLAYER
100
AcDbCircle
 10
0.0
 20
0.0
 30
0.0
 40
5.0
100
AcDbArc
 50
260.7182009133224483
 51
280.8155009813469292
  0
ARC
  5
D1
100
AcDbEntity
  8
0
 62
256
370
-1
  6
BYLAYER
100
AcDbCircle
 10
0.0
 20
0.0
 30
0.0
 40
5.0
100
AcDbArc
 50
79.184499018653014
 51
99.281799086677637
  0
ENDBLK
  5
D2
100
AcDbEntity
  8
0
100
AcDbBlockEnd
  0
BLOCK
  5
D3
100
AcDbEntity
  8
0
100
AcDbBlockBegin
  2
tibia_middle
 70
0
 10
0.0
 20
0.0
 30
0.0
  3
tibia_middle
  1

  0
LINE
  5
D4
100
AcDbEntity
100
AcDbLine
  8
0
 62
256
370
-1
  6
BYLAYER
 10
-14.4069223573433192
 20
18.6763330215154326
 30
0.0
 11
-23.2965388213283404
 21
28.1618334892422837
 31
0.0
  0
ARC
  5
D5
100
AcDbEntity
  8
0
 62
256
370
-1
  6
BYLAYER
100
AcDbCircle
 10
-29.0
 20
5.0
 30
0.0
 40
20.0
100
AcDbArc
 50
0.0
 51
43.1426143825091799
  0
ARC
  5
D6
100
AcDbEntity
  8
0
 62
256
370
-1
  6
BYLAYER
100
AcDbCircle
 10
-16.0
 20
35.0
 30
0.0
 40
10.0
100
AcDbArc
 50
103.741798278186792
 51
223.1426143825091799
  0
LINE
  5
D7
100
AcDbEntity
100
AcDbLine
  8
0
 62
256
370
-1
  6
BYLAYER
 10
-9.0
 20
4.9999999999999964
 30
0.0
 11
-9.0
 21
-25.0
 31
0.0
  0
ARC
  5
D8
100
AcDbEntity
  8
0
 62
256
370
-1
  6
BYLAYER
100
AcDbCircle
 10
134.7828400936339222
 20
-34.953498460609886
 30
0.0
 40
130.1445131082007833
100
AcDbArc
 50
161.3138642182418891
 51
175.8380011755167516
  0
ARC
  5
D9
100
AcDbEntity
  8
0
 62
256
370
-1
  6
BYLAYER
100
AcDbCircle
 10
-19.0
 20
-75.0
 30
0.0
 40
5.0
100
AcDbArc
 50
148.272768469349387
 51
326.4747008864466693
  0
ARC
  5
DA
100
AcDbEntity
  8
0
 62
256
370
-1
  6
BYLAYER
100
AcDbCircle
 10
-104.6140369006493103
 20
-22.0674647254782954
 30
0.0
 40
95.6559317924888006
100
AcDbArc
 50
328.272768469349387
 51
358.3630292723632351
  0
ARC
  5
DB
100
AcDbEntity
  8
0
 62
256
370
-1
  6
BYLAYER
100
AcDbCircle
 10
-120.2974737295188561
 20
-7.8882212865733052
 30
0.0
 40
126.5120118591665488
100
AcDbArc
 50
326.4746593922901639
 51
355.8924239428184819
  0
CIRCLE
  5
DC
100
AcDbEntity
100
AcDbCircle
  8
0
 62
256
370
-1
  6
BYLAYER
 10
-1.0
 20
0.0
 30
0.0
 40
1.0
  0
CIRCLE
  5
DD
100
AcDbEntity
100
AcDbCircle
  8
0
 62
256
370
-1
  6
BYLAYER
 10
-1.0
 20
-20.0
 30
0.0
 40
1.0
  0
ARC
  5
DE
100
AcDbEntity
  8
0
 62
256
370
-1
  6
BYLAYER
100
AcDbCircle
 10
-120.0430947950993215
 20
-18.2710622850753204
 30
0.0
 40
136.8979685239335709
100
AcDbArc
 50
15.5924939290849789
 51
26.8168472073614375
  0
ARC
  5
DF
100
AcDbEntity
  8
0
 62
256
370
-1
  6
BYLAYER
100
AcDbCircle
 10
-6.7925961820621534
 20
38.9776842461781357
 30
0.0
 40
10.0
100
AcDbArc
 50
26.8168472073614232
 51
122.9877905279766992
  0
ARC
  5
E0
100
AcDbEntity
  8
0
 62
256
370
-1
  6
BYLAYER
100
AcDbCircle
 10
-7.4472300270121288
 20
13.1503680157430196
 30
0.0
 40
20.0
100
AcDbArc
 50
341.3138642182418039
 51
15.5924939290849558
  0
ARC
  5
E1
100
AcDbEntity
  8
0
 62
256
370
-1
  6
BYLAYER
100
AcDbCircle
 10
-23.1264053541885772
 20
64.1412825168658713
 30
0.0
 40
20.0
100
AcDbArc
 50
283.7417982781867636
 51
302.9877905279766424
  0
ARC
  5
E2
100
AcDbEntity
  8
0
 62
256
370
-1
  6
BYLAYER
100
AcDbCircle
 10
-16.0
 20
35.0
 30
0.0
 40
5.0
100
AcDbArc
 50
103.1061301537620523
 51
231.7313941133580784
  0
ARC
  5
E3
100
AcDbEntity
  8
0
 62
256
370
-1
  6
BYLAYER
100
AcDbCircle
 10
-6.7925961820621534
 20
38.9776842461781357
 30
0.0
 40
5.0
100
AcDbArc
 50
33.0467334489963349
 51
123.6234586524010837
  0
ARC
  5
E4
100
AcDbEntity
  8
0
 62
256
370
-1
  6
BYLAYER
100
AcDbCircle
 10
1.3318756467591086
 20
12.8642557470775785
 30
0.0
 40
7.0
100
AcDbArc
 50
196.6110937818727677
 51
9.7318494610223372
  0
ARC
  5
E5
100
AcDbEntity
  8
0
 62
256
370
-1
  6
BYLAYER
100
AcDbCircle
 10
-22.3852487884007374
 20
62.4256793238571106
 30
0.0
 40
23.1591776951106318
100
AcDbArc
 50
283.1061301537620807
 51
303.6234586524009842
  0
ARC
  5
E6
100
AcDbEntity
  8
0
 62
256
370
-1
  6
BYLAYER
100
AcDbCircle
 10
-64.2106392183572865
 20
1.6233667807422556
 30
0.0
 40
73.4994649572271896
100
AcDbArc
 50
9.7318494610221471
 51
33.04672357591798
  0
ARC
  5
E7
100
AcDbEntity
  8
0
 62
256
370
-1
  6
BYLAYER
100
AcDbCircle
 10
-44.1704322461031325
 20
-0.7101652112312564
 30
0.0
 40
40.48394389612357
100
AcDbArc
 50
16.6110937818728424
 51
51.7313941133580926
  0
ENDBLK
  5
E8
100
AcDbEntity
  8
0
100
AcDbBlockEnd
  0
BLOCK
  5
E9
100
AcDbEntity
  8
0
100
AcDbBlockBegin
  2
tibia_front
 70
0
 10
0.0
 20
0.0
 30
0.0
  3
tibia_front
  1

  0
LINE
  5
EA
100
AcDbEntity
100
AcDbLine
  8
0
 62
256
370
-1
  6
BYLAYER
 10
-10.2871968564100484
 20
13.4307029370137059
 30
0.0
 11
-10.2871968564100484
 21
-16.5692970629862906
 31
0.0
  0
ARC
  5
EB
100
AcDbEntity
  8
0
 62
256
370
-1
  6
BYLAYER
100
AcDbCircle
 10
133.4956432372239306
 20
-26.5227955235961765
 30
0.0
 40
130.1445131082007833
100
AcDbArc
 50
161.3138642182418891
 51
175.8380011755167516
  0
ARC
  5
EC
100
AcDbEntity
  8
0
 62
256
370
-1
  6
BYLAYER
100
AcDbCircle
 10
-20.2871968564100484
 20
-66.5692970629862941
 30
0.0
 40
5.0
100
AcDbArc
 50
148.272768469349387
 51
326.4747008864466693
  0
ARC
  5
ED
100
AcDbEntity
  8
0
 62
256
370
-1
  6
BYLAYER
100
AcDbCircle
 10
-105.9012337570593445
 20
-13.636761788464586
 30
0.0
 40
95.6559317924888006
100
AcDbArc
 50
328.272768469349387
 51
358.3630292723632351
  0
ARC
  5
EE
100
AcDbEntity
  8
0
 62
256
370
-1
  6
BYLAYER
100
AcDbCircle
 10
-121.5846705859289045
 20
0.5424816504404077
 30
0.0
 40
126.5120118591665488
100
AcDbArc
 50
326.4746593922901639
 51
355.8924239428184819
  0
CIRCLE
  5
EF
100
AcDbEntity
100
AcDbCircle
  8
0
 62
256
370
-1
  6
BYLAYER
 10
-2.2871968564100484
 20
8.4307029370137059
 30
0.0
 40
1.0
  0
CIRCLE
  5
F0
100
AcDbEntity
100
AcDbCircle
  8
0
 62
256
370
-1
  6
BYLAYER
 10
-2.2871968564100484
 20
-11.5692970629862906
 30
0.0
 40
1.0
  0
ARC
  5
F1
100
AcDbEntity
  8
0
 62
256
370
-1
  6
BYLAYER
100
AcDbCircle
 10
-8.7344268834221452
 20
21.5810709527567326
 30
0.0
 40
20.0
100
AcDbArc
 50
341.3138642182418039
 51
7.8512309194346681
  0
ARC
  5
F2
100
AcDbEntity
  8
0
 62
256
370
-1
  6
BYLAYER
100
AcDbCircle
 10
-30.2871968564100484
 20
13.4307029370137059
 30
0.0
 40
20.0
100
AcDbArc
 50
0.0
 51
17.3188113254878111
  0
ARC
  5
F3
100
AcDbEntity
  8
0
 62
256
370
-1
  6
BYLAYER
100
AcDbCircle
 10
-1.6473034347237103
 20
22.3613526779031275
 30
0.0
 40
10.0
100
AcDbArc
 50
186.6026807677112629
 51
197.3188113254878147
  0
ARC
  5
F4
100
AcDbEntity
  8
0
 62
256
370
-1
  6
BYLAYER
100
AcDbCircle
 10
1.1718340625554333
 20
22.94708488760525
 30
0.0
 40
10.0
100
AcDbArc
 50
7.8512309194346219
 51
42.2523026745445804
  0
ARC
  5
F5
100
AcDbEntity
  8
0
 62
256
370
-1
  6
BYLAYER
100
AcDbCircle
 10
-8.4222952299113558
 20
35.6638569287897838
 30
0.0
 40
7.0
100
AcDbArc
 50
91.74071236939578
 51
204.4761726348149864
  0
ARC
  5
F6
100
AcDbEntity
  8
0
 62
256
370
-1
  6
BYLAYER
100
AcDbCircle
 10
-49.9181698782821854
 20
16.773934116670894
 30
0.0
 40
38.5931661181926557
100
AcDbArc
 50
6.6026807677113348
 51
24.4761726348150006
  0
ARC
  5
F7
100
AcDbEntity
  8
0
 62
256
370
-1
  6
BYLAYER
100
AcDbCircle
 10
-23.7997378925024918
 20
6.5077226739479102
 30
0.0
 40
39.7166843856890637
100
AcDbArc
 50
37.8127288189060096
 51
63.8201018519931509
  0
ARC
  5
F8
100
AcDbEntity
  8
0
 62
256
370
-1
  6
BYLAYER
100
AcDbCircle
 10
-8.483048207272077
 20
37.6629339847688129
 30
0.0
 40
5.0
100
AcDbArc
 50
63.8201018519930088
 51
91.7407123693957658
  0
ARC
  5
F9
100
AcDbEntity
  8
0
 62
256
370
-1
  6
BYLAYER
100
AcDbCircle
 10
23.3775672116468627
 20
43.1189815587500078
 30
0.0
 40
20.0
100
AcDbArc
 50
217.8127288189059527
 51
222.2523026745446373
  0
ARC
  5
FA
100
AcDbEntity
  8
0
 62
256
370
-1
  6
BYLAYER
100
AcDbCircle
 10
-121.4585828069971853
 20
3.0979702198484063
 30
0.0
 40
115.8583451295066737
100
AcDbArc
 50
8.5176211426047086
 51
15.704801934170332
  0
ARC
  5
FB
100
AcDbEntity
  8
0
 62
256
370
-1
  6
BYLAYER
100
AcDbCircle
 10
0.0446787903490531
 20
21.2949586840912843
 30
0.0
 40
7.0
100
AcDbArc
 50
188.5176211426052646
 51
22.7416615278294643
  0
ARC
  5
FC
100
AcDbEntity
  8
0
 62
256
370
-1
  6
BYLAYER
100
AcDbCircle
 10
-14.6898209668804611
 20
15.1187921232452638
 30
0.0
 40
22.976561472454236
100
AcDbArc
 50
22.7416599389985699
 51
71.6797656535496799
  0
ARC
  5
FD
100
AcDbEntity
  8
0
 62
256
370
-1
  6
BYLAYER
100
AcDbCircle
 10
-8.0
 20
35.0
 30
0.0
 40
2.0
100
AcDbArc
 50
74.6310907146417719
 51
195.7048019341701774
  0
ENDBLK
  5
FE
100
AcDbEntity
  8
0
100
AcDbBlockEnd
  0
ENDSEC
  0
SECTION
  2
ENTITIES
  0
INSERT
  5
FF
100
AcDbEntity
100
AcDbBlockReference
  8
0
 62
256
370
-1
  6
BYLAYER
  2
femur
 10
12.0022896246667301
 20
60.1260458798290074
 30
0.0
 41
1.0
 42
-1.0
 43
1.0
 50
89.9999999999999858
  0
INSERT
  5
100
100
AcDbEntity
100
AcDbBlockReference
  8
0
 62
256
370
-1
  6
BYLAYER
  2
femur_tibia
 10
61.0
 20
-121.0
 30
0.0
 50
180.0
  0
INSERT
  5
101
100
AcDbEntity
100
AcDbBlockReference
  8
0
 62
256
370
-1
  6
BYLAYER
  2
femur_tibia
 10
95.712940913676249
 20
19.9883253913622383
 30
0.0
 50
180.0
  0
INSERT
  5
102
100
AcDbEntity
100
AcDbBlockReference
  8
0
 62
256
370
-1
  6
BYLAYER
  2
femur_tibia_control
 10
73.8733554063542499
 20
-131.563923430033185
 30
0.0
 50
360.0
  0
INSERT
  5
103
100
AcDbEntity
100
AcDbBlockReference
  8
0
 62
256
370
-1
  6
BYLAYER
  2
femur
 10
81.783543304338906
 20
3.4288706413211258
 30
0.0
 50
720.0
  0
INSERT
  5
104
100
AcDbEntity
100
AcDbBlockReference
  8
0
 62
256
370
-1
  6
BYLAYER
  2
coxa
 10
38.8588318821571477
 20
-95.7076080071477691
 30
0.0
 50
180.0
  0
INSERT
  5
105
100
AcDbEntity
100
AcDbBlockReference
  8
0
 62
256
370
-1
  6
BYLAYER
  2
femur_tibia
 10
102.8498955604421354
 20
-111.9313162184236603
 30
0.0
 50
195.0
  0
INSERT
  5
106
100
AcDbEntity
100
AcDbBlockReference
  8
0
 62
256
370
-1
  6
BYLAYER
  2
femur_tibia
 10
25.6098191222192213
 20
-32.4198591943490015
 30
0.0
 50
60.0000000000000071
  0
INSERT
  5
107
100
AcDbEntity
100
AcDbBlockReference
  8
0
 62
256
370
-1
  6
BYLAYER
  2
femur_tibia_control
 10
167.8373214137919263
 20
-57.8948645916050921
 30
0.0
 50
90.0
  0
INSERT
  5
108
100
AcDbEntity
100
AcDbBlockReference
  8
0
 62
256
370
-1
  6
BYLAYER
  2
femur_tibia
 10
124.3797107011029652
 20
-1.1086872725908421
 30
0.0
 50
90.0
  0
INSERT
  5
109
100
AcDbEntity
100
AcDbBlockReference
  8
0
 62
256
370
-1
  6
BYLAYER
  2
femur_tibia
 10
73.7596071819208987
 20
-106.5601833010881876
 30
0.0
 50
380.0
  0
INSERT
  5
10A
100
AcDbEntity
100
AcDbBlockReference
  8
0
 62
256
370
-1
  6
BYLAYER
  2
femur_tibia_control
 10
157.4819232610203983
 20
-87.8881243526924578
 30
0.0
 50
270.0
  0
INSERT
  5
10B
100
AcDbEntity
100
AcDbBlockReference
  8
0
 62
256
370
-1
  6
BYLAYER
  2
femur_tibia
 10
103.308402372633978
 20
-48.002664229778091
 30
0.0
 50
340.0000000000000568
  0
INSERT
  5
10C
100
AcDbEntity
100
AcDbBlockReference
  8
0
 62
256
370
-1
  6
BYLAYER
  2
tibia_middle
 10
65.5357699438690702
 20
-38.144462405565605
 30
0.0
 50
459.9999999999999432
  0
INSERT
  5
10D
100
AcDbEntity
100
AcDbBlockReference
  8
0
 62
256
370
-1
  6
BYLAYER
  2
femur
 10
121.905611863462795
 20
-100.6900884714925866
 30
0.0
 50
270.0
  0
INSERT
  5
10E
100
AcDbEntity
100
AcDbBlockReference
  8
0
 62
256
370
-1
  6
BYLAYER
  2
coxa
 10
66.4232529896599715
 20
71.8780811579837007
 30
0.0
 50
360.0
  0
INSERT
  5
10F
100
AcDbEntity
100
AcDbBlockReference
  8
0
 62
256
370
-1
  6
BYLAYER
  2
coxa
 10
84.2990989733678049
 20
-68.3267913208819948
 30
0.0
 50
180.0
  0
INSERT
  5
110
100
AcDbEntity
100
AcDbBlockReference
  8
0
 62
256
370
-1
  6
BYLAYER
  2
femur_tibia
 10
146.585021172573704
 20
-86.1785160313761764
 30
0.0
 50
90.0
  0
INSERT
  5
111
100
AcDbEntity
100
AcDbBlockReference
  8
0
 62
256
370
-1
  6
BYLAYER
  2
femur_tibia
 10
133.3263147049119937
 20
-69.7690406808560368
 30
0.0
 50
280.0
  0
INSERT
  5
112
100
AcDbEntity
100
AcDbBlockReference
  8
0
 62
256
370
-1
  6
BYLAYER
  2
tibia_front
 10
121.5824917891879124
 20
-19.0472965982386029
 30
0.0
 50
280.0
  0
INSERT
  5
113
100
AcDbEntity
100
AcDbBlockReference
  8
0
 62
256
370
-1
  6
BYLAYER
  2
tibia_rear
 10
17.8200478271797493
 20
-2.5579978194053723
 30
0.0
 41
1.0
 42
-1.0
 43
1.0
 50
525.0
  0
ENDSEC
  0
SECTION
  2
OBJECTS
  0
DICTIONARY
  5
C
100
AcDbDictionary
280
0
281
1
  3
ACAD_GROUP
350
D
  3
ACAD_LAYOUT
350
1A
  3
ACAD_MLINESTYLE
350
17
  3
ACAD_PLOTSETTINGS
350
19
  3
ACAD_PLOTSTYLENAME
350
E
  3
AcDbVariableDictionary
350
114
  3
QCAD_OBJECTS
350
115
  0
DICTIONARY
  5
D
100
AcDbDictionary
280
0
281
1
  0
ACDBDICTIONARYWDFLT
  5
E
100
AcDbDictionary
281
1
  3
Normal
350
F
100
AcDbDictionaryWithDefault
340
F
  0
ACDBPLACEHOLDER
  5
F
  0
DICTIONARY
  5
17
100
AcDbDictionary
280
0
281
1
  3
Standard
350
18
  0
MLINESTYLE
  5
18
100
AcDbMlineStyle
  2
STANDARD
 70
0
  3

 62
256
 51
90.0
 52
90.0
 71
2
 49
0.5
 62
256
  6
BYLAYER
 49
-0.5
 62
256
  6
BYLAYER
  0
DICTIONARY
  5
19
100
AcDbDictionary
280
0
281
1
  0
DICTIONARY
  5
1A
100
AcDbDictionary
281
1
  3
Layout1
350
1E
  3
Layout2
350
26
  3
Model
350
22
  0
LAYOUT
  5
1E
100
AcDbPlotSettings
  1

  2
none_device
  4

  6

 40
0.0
 41
0.0
 42
0.0
 43
0.0
 44
0.0
 45
0.0
 46
0.0
 47
0.0
 48
0.0
 49
0.0
140
0.0
141
0.0
142
1.0
143
1.0
 70
688
 72
0
 73
0
 74
5
  7

 75
16
147
1.0
148
0.0
149
0.0
100
AcDbLayout
  1
Layout1
 70
1
 71
1
 10
0.0
 20
0.0
 11
420.0
 21
297.0
 12
0.0
 22
0.0
 32
0.0
 14
100000000000000000000.0
 24
100000000000000000000.0
 34
100000000000000000000.0
 15
-100000000000000000000.0
 25
-100000000000000000000.0
 35
-100000000000000000000.0
146
0.0
 13
0.0
 23
0.0
 33
0.0
 16
1.0
 26
0.0
 36
0.0
 17
0.0
 27
1.0
 37
0.0
 76
0
330
1B
  0
LAYOUT
  5
22
100
AcDbPlotSettings
  1

  2
none_device
  4

  6

 40
0.0
 41
0.0
 42
0.0
 43
0.0
 44
0.0
 45
0.0
 46
0.0
 47
0.0
 48
0.0
 49
0.0
140
0.0
141
0.0
142
1.0
143
1.0
 70
1712
 72
0
 73
0
 74
0
  7

 75
0
147
1.0
148
0.0
149
0.0
100
AcDbLayout
  1
Model
 70
1
 71
0
 10
0.0
 20
0.0
 11
12.0
 21
9.0
 12
0.0
 22
0.0
 32
0.0
 14
0.0
 24
0.0
 34
0.0
 15
0.0
 25
0.0
 35
0.0
146
0.0
 13
0.0
 23
0.0
 33
0.0
 16
1.0
 26
0.0
 36
0.0
 17
0.0
 27
1.0
 37
0.0
 76
0
330
1F
  0
LAYOUT
  5
26
100
AcDbPlotSettings
  1

  2
none_device
  4

  6

 40
0.0
 41
0.0
 42
0.0
 43
0.0
 44
0.0
 45
0.0
 46
0.0
 47
0.0
 48
0.0
 49
0.0
140
0.0
141
0.0
142
1.0
143
1.0
 70
688
 72
0
 73
0
 74
5
  7

 75
16
147
1.0
148
0.0
149
0.0
100
AcDbLayout
  1
Layout2
 70
1
 71
2
 10
0.0
 20
0.0
 11
12.0
 21
9.0
 12
0.0
 22
0.0
 32
0.0
 14
0.0
 24
0.0
 34
0.0
 15
0.0
 25
0.0
 35
0.0
146
0.0
 13
0.0
 23
0.0
 33
0.0
 16
1.0
 26
0.0
 36
0.0
 17
0.0
 27
1.0
 37
0.0
 76
0
330
23
  0
DICTIONARY
  5
114
100
AcDbDictionary
281
1
  3
DIMASSOC
350
117
  3
HIDETEXT
350
116
  0
DICTIONARYVAR
  5
116
100
DictionaryVariables
280
0
  1
2
  0
DICTIONARYVAR
  5
117
100
DictionaryVariables
280
0
  1
1
  0
DICTIONARY
  5
115
100
AcDbDictionary
281
1
  3
Grid/DisplayGrid00
350
118
  3
Grid/DisplayGrid01
350
119
  3
Grid/DisplayGrid02
350
11A
  3
Grid/DisplayGrid03
350
11B
  3
Grid/GridSpacingX00
350
11C
  3
Grid/GridSpacingX01
350
11D
  3
Grid/GridSpacingX02
350
11E
  3
Grid/GridSpacingX03
350
11F
  3
Grid/GridSpacingY00
350
120
  3
Grid/GridSpacingY01
350
121
  3
Grid/GridSpacingY02
350
122
  3
Grid/GridSpacingY03
350
123
  3
Grid/IsometricGrid00
350
124
  3
Grid/IsometricGrid01
350
125
  3
Grid/IsometricGrid02
350
126
  3
Grid/IsometricGrid03
350
127
  3
Grid/IsometricProjection00
350
128
  3
Grid/IsometricProjection01
350
129
  3
Grid/IsometricProjection02
350
12A
  3
Grid/IsometricProjection03
350
12B
  3
Grid/MetaGridSpacingX00
350
12C
  3
Grid/MetaGridSpacingX01
350
12D
  3
Grid/MetaGridSpacingX02
350
12E
  3
Grid/MetaGridSpacingX03
350
12F
  3
Grid/MetaGridSpacingY00
350
130
  3
Grid/MetaGridSpacingY01
350
131
  3
Grid/MetaGridSpacingY02
350
132
  3
Grid/MetaGridSpacingY03
350
133
  3
MultiPageSettings/Columns
350
134
  3
MultiPageSettings/GlueMarginsBottom
350
135
  3
MultiPageSettings/GlueMarginsLeft
350
136
  3
MultiPageSettings/GlueMarginsRight
350
137
  3
MultiPageSettings/GlueMarginsTop
350
138
  3
MultiPageSettings/PrintCropMarks
350
139
  3
MultiPageSettings/Rows
350
13A
  3
PageSettings/OffsetX
350
13B
  3
PageSettings/OffsetY
350
13C
  3
PageSettings/PageOrientation
350
13D
  3
PageSettings/PaperHeight
350
13E
  3
PageSettings/PaperWidth
350
13F
  3
PageSettings/Scale
350
140
  3
PageSettings/ShowPaperBorders
350
141
  3
UnitSettings/PaperUnit
350
142
  0
XRECORD
  5
118
330
115
100
AcDbXrecord
280
1
290
1
  0
XRECORD
  5
119
330
115
100
AcDbXrecord
280
1
290
1
  0
XRECORD
  5
11A
330
115
100
AcDbXrecord
280
1
290
1
  0
XRECORD
  5
11B
330
115
100
AcDbXrecord
280
1
290
1
  0
XRECORD
  5
11C
330
115
100
AcDbXrecord
280
1
1000
auto
  0
XRECORD
  5
11D
330
115
100
AcDbXrecord
280
1
1000
auto
  0
XRECORD
  5
11E
330
115
100
AcDbXrecord
280
1
1000
auto
  0
XRECORD
  5
11F
330
115
100
AcDbXrecord
280
1
1000
auto
  0
XRECORD
  5
120
330
115
100
AcDbXrecord
280
1
1000
auto
  0
XRECORD
  5
121
330
115
100
AcDbXrecord
280
1
1000
auto
  0
XRECORD
  5
122
330
115
100
AcDbXrecord
280
1
1000
auto
  0
XRECORD
  5
123
330
115
100
AcDbXrecord
280
1
1000
auto
  0
XRECORD
  5
124
330
115
100
AcDbXrecord
280
1
290
0
  0
XRECORD
  5
125
330
115
100
AcDbXrecord
280
1
290
0
  0
XRECORD
  5
126
330
115
100
AcDbXrecord
280
1
290
0
  0
XRECORD
  5
127
330
115
100
AcDbXrecord
280
1
290
0
  0
XRECORD
  5
128
330
115
100
AcDbXrecord
280
1
 90
0
  0
XRECORD
  5
129
330
115
100
AcDbXrecord
280
1
 90
0
  0
XRECORD
  5
12A
330
115
100
AcDbXrecord
280
1
 90
0
  0
XRECORD
  5
12B
330
115
100
AcDbXrecord
280
1
 90
0
  0
XRECORD
  5
12C
330
115
100
AcDbXrecord
280
1
1000
auto
  0
XRECORD
  5
12D
330
115
100
AcDbXrecord
280
1
1000
auto
  0
XRECORD
  5
12E
330
115
100
AcDbXrecord
280
1
1000
auto
  0
XRECORD
  5
12F
330
115
100
AcDbXrecord
280
1
1000
auto
  0
XRECORD
  5
130
330
115
100
AcDbXrecord
280
1
1000
auto
  0
XRECORD
  5
131
330
115
100
AcDbXrecord
280
1
1000
auto
  0
XRECORD
  5
132
330
115
100
AcDbXrecord
280
1
1000
auto
  0
XRECORD
  5
133
330
115
100
AcDbXrecord
280
1
1000
auto
  0
XRECORD
  5
134
330
115
100
AcDbXrecord
280
1
 90
1
  0
XRECORD
  5
135
330
115
100
AcDbXrecord
280
1
 40
10.0
  0
XRECORD
  5
136
330
115
100
AcDbXrecord
280
1
 40
10.0
  0
XRECORD
  5
137
330
115
100
AcDbXrecord
280
1
 40
10.0
  0
XRECORD
  5
138
330
115
100
AcDbXrecord
280
1
 40
10.0
  0
XRECORD
  5
139
330
115
100
AcDbXrecord
280
1
290
0
  0
XRECORD
  5
13A
330
115
100
AcDbXrecord
280
1
 90
1
  0
XRECORD
  5
13B
330
115
100
AcDbXrecord
280
1
 40
-13.3819663457259903
  0
XRECORD
  5
13C
330
115
100
AcDbXrecord
280
1
 40
-151.2646328271377172
  0
XRECORD
  5
13D
330
115
100
AcDbXrecord
280
1
1000
Portrait
  0
XRECORD
  5
13E
330
115
100
AcDbXrecord
280
1
 40
279.3999999999999773
  0
XRECORD
  5
13F
330
115
100
AcDbXrecord
280
1
 40
215.9000000000000057
  0
XRECORD
  5
140
330
115
100
AcDbXrecord
280
1
1000
1:1
  0
XRECORD
  5
141
330
115
100
AcDbXrecord
280
1
290
1
  0
XRECORD
  5
142
330
115
100
AcDbXrecord
280
1
 90
4
  0
ENDSEC
  0
EOF
