999
dxflib 3.3.4.0
  0
SECTION
  2
HEADER
  9
$ACADVER
  1
AC1015
  9
$HANDSEED
  5
FFFF
  9
$DIMADEC
 70
0
  9
$DIMASZ
 40
2.5
  9
$DIMAUNIT
 70
0
  9
$DIMAZIN
 70
2
  9
$DIMDEC
 70
4
  9
$DIMEXE
 40
1.25
  9
$DIMEXO
 40
0.625
  9
$DIMGAP
 40
0.625
  9
$DIMLUNIT
 70
2
  9
$DIMTSZ
 40
0.0
  9
$DIMTXT
 40
2.5
  9
$DIMZIN
 70
8
  9
$DWGCODEPAGE
  3
ANSI_1252
  9
$INSUNITS
 70
4
  9
$LTSCALE
 40
1.0
  0
ENDSEC
  0
SECTION
  2
TABLES
  0
TABLE
  2
VPORT
  5
8
100
AcDbSymbolTable
 70
1
  0
VPORT
  5
30
100
AcDbSymbolTableRecord
100
AcDbViewportTableRecord
  2
*Active
 70
0
 10
0.0
 20
0.0
 11
1.0
 21
1.0
 12
286.3055555555554861
 22
148.5
 13
0.0
 23
0.0
 14
10.0
 24
10.0
 15
10.0
 25
10.0
 16
0.0
 26
0.0
 36
1.0
 17
0.0
 27
0.0
 37
0.0
 40
297.0
 41
1.92798353909465
 42
50.0
 43
0.0
 44
0.0
 50
0.0
 51
0.0
 71
0
 72
100
 73
1
 74
3
 75
1
 76
1
 77
0
 78
0
281
0
 65
1
110
0.0
120
0.0
130
0.0
111
1.0
121
0.0
131
0.0
112
0.0
122
1.0
132
0.0
 79
0
146
0.0
  0
ENDTAB
  0
TABLE
  2
LTYPE
  5
5
100
AcDbSymbolTable
 70
21
  0
LTYPE
  5
16
100
AcDbSymbolTableRecord
100
AcDbLinetypeTableRecord
  2
CONTINUOUS
 70
0
  3
Solid line
 72
65
 73
0
 40
0.0
  0
LTYPE
  5
31
100
AcDbSymbolTableRecord
100
AcDbLinetypeTableRecord
  2
CENTER2
 70
0
  3
Center (.5x) ___ _ ___ _ ___ _ ___ _ ___ _ ___
 72
65
 73
4
 40
28.5749999999999993
 49
19.0500000000000007
 74
0
 49
-3.1749999999999998
 74
0
 49
3.1749999999999998
 74
0
 49
-3.1749999999999998
 74
0
  0
LTYPE
  5
32
100
AcDbSymbolTableRecord
100
AcDbLinetypeTableRecord
  2
DIVIDEX2
 70
0
  3
Divide (2x) ________  .  .  ________  .  .  _
 72
65
 73
6
 40
63.5
 49
25.3999999999999986
 74
0
 49
-12.6999999999999993
 74
0
 49
0.0
 74
0
 49
-12.6999999999999993
 74
0
 49
0.0
 74
0
 49
-12.6999999999999993
 74
0
  0
LTYPE
  5
33
100
AcDbSymbolTableRecord
100
AcDbLinetypeTableRecord
  2
DOT2
 70
0
  3
Dot (.5x) .....................................
 72
65
 73
2
 40
3.1749999999999998
 49
0.0
 74
0
 49
-3.1749999999999998
 74
0
  0
LTYPE
  5
34
100
AcDbSymbolTableRecord
100
AcDbLinetypeTableRecord
  2
DASHDOT2
 70
0
  3
Dash dot (.5x) _._._._._._._._._._._._._._._.
 72
65
 73
4
 40
12.6999999999999993
 49
6.3499999999999996
 74
0
 49
-3.1749999999999998
 74
0
 49
0.0
 74
0
 49
-3.1749999999999998
 74
0
  0
LTYPE
  5
35
100
AcDbSymbolTableRecord
100
AcDbLinetypeTableRecord
  2
DIVIDE
 70
0
  3
Divide ____ . . ____ . . ____ . . ____ . . ____
 72
65
 73
6
 40
31.75
 49
12.6999999999999993
 74
0
 49
-6.3499999999999996
 74
0
 49
0.0
 74
0
 49
-6.3499999999999996
 74
0
 49
0.0
 74
0
 49
-6.3499999999999996
 74
0
  0
LTYPE
  5
36
100
AcDbSymbolTableRecord
100
AcDbLinetypeTableRecord
  2
DASHDOT
 70
0
  3
Dash dot __ . __ . __ . __ . __ . __ . __ . __
 72
65
 73
4
 40
25.3999999999999986
 49
12.6999999999999993
 74
0
 49
-6.3499999999999996
 74
0
 49
0.0
 74
0
 49
-6.3499999999999996
 74
0
  0
LTYPE
  5
37
100
AcDbSymbolTableRecord
100
AcDbLinetypeTableRecord
  2
BORDER
 70
0
  3
Border __ __ . __ __ . __ __ . __ __ . __ __ .
 72
65
 73
6
 40
44.4500000000000028
 49
12.6999999999999993
 74
0
 49
-6.3499999999999996
 74
0
 49
12.6999999999999993
 74
0
 49
-6.3499999999999996
 74
0
 49
0.0
 74
0
 49
-6.3499999999999996
 74
0
  0
LTYPE
  5
38
100
AcDbSymbolTableRecord
100
AcDbLinetypeTableRecord
  2
DASHDOTX2
 70
0
  3
Dash dot (2x) ____  .  ____  .  ____  .  ___
 72
65
 73
4
 40
50.7999999999999972
 49
25.3999999999999986
 74
0
 49
-12.6999999999999993
 74
0
 49
0.0
 74
0
 49
-12.6999999999999993
 74
0
  0
LTYPE
  5
39
100
AcDbSymbolTableRecord
100
AcDbLinetypeTableRecord
  2
CENTERX2
 70
0
  3
Center (2x) ________  __  ________  __  _____
 72
65
 73
4
 40
101.5999999999999943
 49
63.5
 74
0
 49
-12.6999999999999993
 74
0
 49
12.6999999999999993
 74
0
 49
-12.6999999999999993
 74
0
  0
LTYPE
  5
3A
100
AcDbSymbolTableRecord
100
AcDbLinetypeTableRecord
  2
BORDER2
 70
0
  3
Border (.5x) __.__.__.__.__.__.__.__.__.__.__.
 72
65
 73
6
 40
22.2250000000000014
 49
6.3499999999999996
 74
0
 49
-3.1749999999999998
 74
0
 49
6.3499999999999996
 74
0
 49
-3.1749999999999998
 74
0
 49
0.0
 74
0
 49
-3.1749999999999998
 74
0
  0
LTYPE
  5
3B
100
AcDbSymbolTableRecord
100
AcDbLinetypeTableRecord
  2
BORDERX2
 70
0
  3
Border (2x) ____  ____  .  ____  ____  .  ___
 72
65
 73
6
 40
88.9000000000000057
 49
25.3999999999999986
 74
0
 49
-12.6999999999999993
 74
0
 49
25.3999999999999986
 74
0
 49
-12.6999999999999993
 74
0
 49
0.0
 74
0
 49
-12.6999999999999993
 74
0
  0
LTYPE
  5
14
100
AcDbSymbolTableRecord
100
AcDbLinetypeTableRecord
  2
BYBLOCK
 70
0
  3

 72
65
 73
0
 40
0.0
  0
LTYPE
  5
15
100
AcDbSymbolTableRecord
100
AcDbLinetypeTableRecord
  2
BYLAYER
 70
0
  3

 72
65
 73
0
 40
0.0
  0
LTYPE
  5
3C
100
AcDbSymbolTableRecord
100
AcDbLinetypeTableRecord
  2
DASHED2
 70
0
  3
Dashed (.5x) _ _ _ _ _ _ _ _ _ _ _ _ _ _ _ _ _
 72
65
 73
2
 40
9.5250000000000004
 49
6.3499999999999996
 74
0
 49
-3.1749999999999998
 74
0
  0
LTYPE
  5
3D
100
AcDbSymbolTableRecord
100
AcDbLinetypeTableRecord
  2
CENTER
 70
0
  3
Center ____ _ ____ _ ____ _ ____ _ ____ _ ____
 72
65
 73
4
 40
50.7999999999999972
 49
31.75
 74
0
 49
-6.3499999999999996
 74
0
 49
6.3499999999999996
 74
0
 49
-6.3499999999999996
 74
0
  0
LTYPE
  5
3E
100
AcDbSymbolTableRecord
100
AcDbLinetypeTableRecord
  2
DIVIDE2
 70
0
  3
Divide (.5x) __..__..__..__..__..__..__..__.._
 72
65
 73
6
 40
15.875
 49
6.3499999999999996
 74
0
 49
-3.1749999999999998
 74
0
 49
0.0
 74
0
 49
-3.1749999999999998
 74
0
 49
0.0
 74
0
 49
-3.1749999999999998
 74
0
  0
LTYPE
  5
3F
100
AcDbSymbolTableRecord
100
AcDbLinetypeTableRecord
  2
DASHED
 70
0
  3
Dashed __ __ __ __ __ __ __ __ __ __ __ __ __ _
 72
65
 73
2
 40
19.0500000000000007
 49
12.6999999999999993
 74
0
 49
-6.3499999999999996
 74
0
  0
LTYPE
  5
40
100
AcDbSymbolTableRecord
100
AcDbLinetypeTableRecord
  2
DOTX2
 70
0
  3
Dot (2x) .  .  .  .  .  .  .  .  .  .  .  .  .
 72
65
 73
2
 40
12.6999999999999993
 49
0.0
 74
0
 49
-12.6999999999999993
 74
0
  0
LTYPE
  5
41
100
AcDbSymbolTableRecord
100
AcDbLinetypeTableRecord
  2
DASHEDX2
 70
0
  3
Dashed (2x) ____  ____  ____  ____  ____  ___
 72
65
 73
2
 40
38.1000000000000014
 49
25.3999999999999986
 74
0
 49
-12.6999999999999993
 74
0
  0
LTYPE
  5
42
100
AcDbSymbolTableRecord
100
AcDbLinetypeTableRecord
  2
DOT
 70
0
  3
Dot . . . . . . . . . . . . . . . . . . . . . .
 72
65
 73
2
 40
6.3499999999999996
 49
0.0
 74
0
 49
-6.3499999999999996
 74
0
  0
ENDTAB
  0
TABLE
  2
LAYER
  5
2
100
AcDbSymbolTable
 70
4
  0
LAYER
  5
43
100
AcDbSymbolTableRecord
100
AcDbLayerTableRecord
  2
3
 70
0
 62
94
420
32768
  6
CONTINUOUS
370
25
390
F
  0
LAYER
  5
10
100
AcDbSymbolTableRecord
100
AcDbLayerTableRecord
  2
0
 70
1
 62
-1
420
16711680
  6
CONTINUOUS
370
25
390
F
  0
LAYER
  5
44
100
AcDbSymbolTableRecord
100
AcDbLayerTableRecord
  2
1
 70
1
 62
-5
420
255
  6
CONTINUOUS
370
25
390
F
  0
LAYER
  5
45
100
AcDbSymbolTableRecord
100
AcDbLayerTableRecord
  2
2
 70
1
 62
-6
420
16711935
  6
CONTINUOUS
370
25
390
F
  0
ENDTAB
  0
TABLE
  2
STYLE
  5
3
100
AcDbSymbolTable
 70
2
  0
STYLE
  5
46
100
AcDbSymbolTableRecord
100
AcDbTextStyleTableRecord
  2
Standard
 70
0
 40
0.0
 41
1.0
 50
0.0
 71
0
 42
2.5
  3

  4

1001
ACAD
1000
txt
1071
0
  0
STYLE
  5
47
100
AcDbSymbolTableRecord
100
AcDbTextStyleTableRecord
  2
textstyle0
 70
0
 40
0.0
 41
1.0
 50
0.0
 71
0
 42
1.0
  3

  4

1001
ACAD
1000
Arial
1071
0
  0
ENDTAB
  0
TABLE
  2
VIEW
  5
6
100
AcDbSymbolTable
 70
0
  0
ENDTAB
  0
TABLE
  2
UCS
  5
7
100
AcDbSymbolTable
 70
0
  0
ENDTAB
  0
TABLE
  2
APPID
  5
9
100
AcDbSymbolTable
 70
1
  0
APPID
  5
12
100
AcDbSymbolTableRecord
100
AcDbRegAppTableRecord
  2
ACAD
 70
0
  0
APPID
  5
48
100
AcDbSymbolTableRecord
100
AcDbRegAppTableRecord
  2
QCAD
 70
0
  0
ENDTAB
  0
TABLE
  2
DIMSTYLE
  5
A
100
AcDbSymbolTable
 70
1
100
AcDbDimStyleTable
 71
0
  0
DIMSTYLE
105
27
100
AcDbSymbolTableRecord
100
AcDbDimStyleTableRecord
  2
Standard
 41
2.5
 42
0.625
 43
3.75
 44
1.25
 70
0
 73
0
 74
0
 77
1
 78
8
140
2.5
141
2.5
143
0.03937007874016
147
0.625
171
3
172
1
271
2
272
2
274
3
278
44
283
0
284
8
340
46
  0
ENDTAB
  0
TABLE
  2
BLOCK_RECORD
  5
1
100
AcDbSymbolTable
 70
1
  0
BLOCK_RECORD
  5
1F
100
AcDbSymbolTableRecord
100
AcDbBlockTableRecord
  2
*Model_Space
340
22
  0
BLOCK_RECORD
  5
1B
100
AcDbSymbolTableRecord
100
AcDbBlockTableRecord
  2
*Paper_Space
340
1E
  0
BLOCK_RECORD
  5
23
100
AcDbSymbolTableRecord
100
AcDbBlockTableRecord
  2
*Paper_Space0
340
26
  0
ENDTAB
  0
ENDSEC
  0
SECTION
  2
BLOCKS
  0
BLOCK
  5
20
100
AcDbEntity
  8
0
100
AcDbBlockBegin
  2
*Model_Space
 70
0
 10
0.0
 20
0.0
 30
0.0
  3
*Model_Space
  1

  0
ENDBLK
  5
21
100
AcDbEntity
  8
0
100
AcDbBlockEnd
  0
BLOCK
  5
1C
100
AcDbEntity
 67
1
  8
0
100
AcDbBlockBegin
  2
*Paper_Space
 70
0
 10
0.0
 20
0.0
 30
0.0
  3
*Paper_Space
  1

  0
ENDBLK
  5
1D
100
AcDbEntity
 67
1
  8
0
100
AcDbBlockEnd
  0
BLOCK
  5
24
100
AcDbEntity
  8
0
100
AcDbBlockBegin
  2
*Paper_Space0
 70
0
 10
0.0
 20
0.0
 30
0.0
  3
*Paper_Space0
  1

  0
ENDBLK
  5
25
100
AcDbEntity
  8
0
100
AcDbBlockEnd
  0
ENDSEC
  0
SECTION
  2
ENTITIES
  0
ARC
  5
49
100
AcDbEntity
  8
0
 62
256
370
-1
  6
BYLAYER
100
AcDbCircle
 10
-21.8725830020304812
 20
47.3725830020304812
 30
0.0
 40
16.0
100
AcDbArc
 50
192.3521825648599872
 51
77.6478174351399701
  0
ARC
  5
4A
100
AcDbEntity
  8
0
 62
256
370
-1
  6
BYLAYER
100
AcDbCircle
 10
-44.5
 20
70.0
 30
0.0
 40
24.0
100
AcDbArc
 50
351.3360575146138558
 51
14.8777062115888885
  0
ARC
  5
4B
100
AcDbEntity
  8
0
 62
256
370
-1
  6
BYLAYER
100
AcDbCircle
 10
-17.8081001624438215
 20
65.9327548559413685
 30
0.0
 40
3.0
100
AcDbArc
 50
171.3360575146139126
 51
257.6478174351400412
  0
ARC
  5
4C
100
AcDbEntity
  8
0
 62
256
370
-1
  6
BYLAYER
100
AcDbCircle
 10
-40.4327548559413614
 20
43.3081001624438287
 30
0.0
 40
3.0
100
AcDbArc
 50
12.3521825648599197
 51
98.6639424853860731
  0
LINE
  5
4D
100
AcDbEntity
100
AcDbLine
  8
0
 62
256
370
-1
  6
BYLAYER
 10
-4.0
 20
55.0
 30
0.0
 11
4.0
 21
55.0
 31
0.0
  0
LINE
  5
4E
100
AcDbEntity
100
AcDbLine
  8
0
 62
256
370
-1
  6
BYLAYER
 10
4.0
 20
55.0
 30
0.0
 11
4.0
 21
60.0
 31
0.0
  0
LINE
  5
4F
100
AcDbEntity
100
AcDbLine
  8
0
 62
256
370
-1
  6
BYLAYER
 10
4.0
 20
60.0
 30
0.0
 11
-4.0
 21
60.0
 31
0.0
  0
LINE
  5
50
100
AcDbEntity
100
AcDbLine
  8
0
 62
256
370
-1
  6
BYLAYER
 10
-4.0
 20
60.0
 30
0.0
 11
-4.0
 21
55.0
 31
0.0
  0
LINE
  5
51
100
AcDbEntity
100
AcDbLine
  8
0
 62
256
370
-1
  6
BYLAYER
 10
-18.5
 20
67.5
 30
0.0
 11
-10.5
 21
67.5
 31
0.0
  0
LINE
  5
52
100
AcDbEntity
100
AcDbLine
  8
0
 62
256
370
-1
  6
BYLAYER
 10
-10.5
 20
67.5
 30
0.0
 11
-10.5
 21
72.5
 31
0.0
  0
LINE
  5
53
100
AcDbEntity
100
AcDbLine
  8
0
 62
256
370
-1
  6
BYLAYER
 10
-10.5
 20
72.5
 30
0.0
 11
-18.5
 21
72.5
 31
0.0
  0
LINE
  5
54
100
AcDbEntity
100
AcDbLine
  8
0
 62
256
370
-1
  6
BYLAYER
 10
-18.5
 20
72.5
 30
0.0
 11
-18.5
 21
67.5
 31
0.0
  0
LINE
  5
55
100
AcDbEntity
100
AcDbLine
  8
0
 62
256
370
-1
  6
BYLAYER
 10
11.5
 20
72.5
 30
0.0
 11
11.5
 21
67.5
 31
0.0
  0
LINE
  5
56
100
AcDbEntity
100
AcDbLine
  8
0
 62
256
370
-1
  6
BYLAYER
 10
11.5
 20
72.5
 30
0.0
 11
19.3630671974040212
 21
70.5342332006489841
 31
0.0
  0
LINE
  5
57
100
AcDbEntity
100
AcDbLine
  8
0
 62
256
370
-1
  6
BYLAYER
 10
11.5
 20
67.5
 30
0.0
 11
19.3687484490918962
 21
69.5655464678866196
 31
0.0
  0
ARC
  5
58
100
AcDbEntity
  8
0
 62
256
370
-1
  6
BYLAYER
100
AcDbCircle
 10
19.2417993848858515
 20
70.0491619505763339
 30
0.0
 40
0.5
100
AcDbArc
 50
284.7083038996821642
 51
75.9637565320727504
  0
LINE
  5
59
100
AcDbEntity
100
AcDbLine
  8
0
 62
256
370
-1
  6
BYLAYER
 10
-2.5
 20
49.5
 30
0.0
 11
2.5
 21
49.5
 31
0.0
  0
LINE
  5
5A
100
AcDbEntity
100
AcDbLine
  8
0
 62
256
370
-1
  6
BYLAYER
 10
2.5
 20
49.5
 30
0.0
 11
2.5
 21
51.5
 31
0.0
  0
LINE
  5
5B
100
AcDbEntity
100
AcDbLine
  8
0
 62
256
370
-1
  6
BYLAYER
 10
2.5
 20
51.5
 30
0.0
 11
-2.5
 21
51.5
 31
0.0
  0
LINE
  5
5C
100
AcDbEntity
100
AcDbLine
  8
0
 62
256
370
-1
  6
BYLAYER
 10
-2.5
 20
51.5
 30
0.0
 11
-2.5
 21
49.5
 31
0.0
  0
CIRCLE
  5
5D
100
AcDbEntity
100
AcDbCircle
  8
0
 62
256
370
-1
  6
BYLAYER
 10
-22.5
 20
48.0
 30
0.0
 40
11.0
  0
ARC
  5
5E
100
AcDbEntity
  8
0
 62
256
370
-1
  6
BYLAYER
100
AcDbCircle
 10
21.8725830020304812
 20
47.372583002030467
 30
0.0
 40
16.0
100
AcDbArc
 50
102.3521825648600299
 51
347.6478174351400412
  0
ARC
  5
5F
100
AcDbEntity
  8
0
 62
256
370
-1
  6
BYLAYER
100
AcDbCircle
 10
44.5
 20
69.9999999999999858
 30
0.0
 40
24.0
100
AcDbArc
 50
165.1222937884111275
 51
188.6639424853860874
  0
ARC
  5
60
100
AcDbEntity
  8
0
 62
256
370
-1
  6
BYLAYER
100
AcDbCircle
 10
17.8081001624438215
 20
65.9327548559413543
 30
0.0
 40
3.0
100
AcDbArc
 50
282.3521825648599588
 51
8.6639424853860199
  0
ARC
  5
61
100
AcDbEntity
  8
0
 62
256
370
-1
  6
BYLAYER
100
AcDbCircle
 10
40.4327548559413685
 20
43.3081001624438215
 30
0.0
 40
3.0
100
AcDbArc
 50
81.3360575146139269
 51
167.647817435140098
  0
CIRCLE
  5
62
100
AcDbEntity
100
AcDbCircle
  8
0
 62
256
370
-1
  6
BYLAYER
 10
22.5
 20
48.0000000000000284
 30
0.0
 40
11.0
  0
LINE
  5
63
100
AcDbEntity
100
AcDbLine
  8
0
 62
256
370
-1
  6
BYLAYER
 10
-36.0
 20
100.0
 30
0.0
 11
36.0
 21
100.0
 31
0.0
  0
LINE
  5
64
100
AcDbEntity
100
AcDbLine
  8
0
 62
256
370
-1
  6
BYLAYER
 10
36.0
 20
100.0
 30
0.0
 11
36.0
 21
125.0
 31
0.0
  0
LINE
  5
65
100
AcDbEntity
100
AcDbLine
  8
0
 62
256
370
-1
  6
BYLAYER
 10
36.0
 20
125.0
 30
0.0
 11
-36.0
 21
125.0
 31
0.0
  0
LINE
  5
66
100
AcDbEntity
100
AcDbLine
  8
0
 62
256
370
-1
  6
BYLAYER
 10
-36.0
 20
125.0
 30
0.0
 11
-36.0
 21
100.0
 31
0.0
  0
LINE
  5
67
100
AcDbEntity
100
AcDbLine
  8
0
 62
256
370
-1
  6
BYLAYER
 10
-8.7403859081225406
 20
92.5
 30
0.0
 11
8.7403859081225619
 21
92.5
 31
0.0
  0
LINE
  5
68
100
AcDbEntity
100
AcDbLine
  8
0
 62
256
370
-1
  6
BYLAYER
 10
45.0
 20
104.4492380176978514
 30
0.0
 11
45.0
 21
135.0
 31
0.0
  0
LINE
  5
69
100
AcDbEntity
100
AcDbLine
  8
0
 62
256
370
-1
  6
BYLAYER
 10
40.0
 20
140.0
 30
0.0
 11
-40.0000000000000071
 21
140.0
 31
0.0
  0
LINE
  5
6A
100
AcDbEntity
100
AcDbLine
  8
0
 62
256
370
-1
  6
BYLAYER
 10
-45.0000000000000071
 20
135.0
 30
0.0
 11
-45.0
 21
104.4492380176978656
 31
0.0
  0
ARC
  5
6B
100
AcDbEntity
  8
0
 62
256
370
-1
  6
BYLAYER
100
AcDbCircle
 10
-44.5
 20
70.0
 30
0.0
 40
24.0
100
AcDbArc
 50
111.3992664953506733
 51
278.6639424853860305
  0
ARC
  5
6C
100
AcDbEntity
  8
0
 62
256
370
-1
  6
BYLAYER
100
AcDbCircle
 10
44.5
 20
69.9999999999999858
 30
0.0
 40
24.0
100
AcDbArc
 50
261.3360575146139695
 51
68.6007335046493409
  0
ARC
  5
6D
100
AcDbEntity
  8
0
 62
256
370
-1
  6
BYLAYER
100
AcDbCircle
 10
-58.0
 20
104.4492380176978656
 30
0.0
 40
13.0
100
AcDbArc
 50
291.3992664953506733
 51
0.0
  0
ARC
  5
6E
100
AcDbEntity
  8
0
 62
256
370
-1
  6
BYLAYER
100
AcDbCircle
 10
58.0
 20
104.4492380176978514
 30
0.0
 40
13.0
100
AcDbArc
 50
180.0
 51
248.6007335046492983
  0
ARC
  5
6F
100
AcDbEntity
  8
0
 62
256
370
-1
  6
BYLAYER
100
AcDbCircle
 10
8.7403859081225619
 20
79.5
 30
0.0
 40
13.0
100
AcDbArc
 50
345.1222937884110706
 51
90.0
  0
ARC
  5
70
100
AcDbEntity
  8
0
 62
256
370
-1
  6
BYLAYER
100
AcDbCircle
 10
-8.7403859081225477
 20
79.5
 30
0.0
 40
13.0
100
AcDbArc
 50
89.9999999999999716
 51
194.8777062115888725
  0
ARC
  5
71
100
AcDbEntity
  8
0
 62
256
370
-1
  6
BYLAYER
100
AcDbCircle
 10
-40.0000000000000071
 20
135.0
 30
0.0
 40
5.0
100
AcDbArc
 50
90.0
 51
180.0
  0
ARC
  5
72
100
AcDbEntity
  8
0
 62
256
370
-1
  6
BYLAYER
100
AcDbCircle
 10
40.0
 20
135.0
 30
0.0
 40
5.0
100
AcDbArc
 50
0.0
 51
90.0
  0
LINE
  5
73
100
AcDbEntity
100
AcDbLine
  8
1
 62
256
370
-1
  6
BYLAYER
 10
-45.0000000000000071
 20
135.0
 30
0.0
 11
-45.0
 21
120.0000223381966435
 31
0.0
  0
ARC
  5
74
100
AcDbEntity
  8
1
 62
256
370
-1
  6
BYLAYER
100
AcDbCircle
 10
-40.0000000000000071
 20
135.0
 30
0.0
 40
5.0
100
AcDbArc
 50
90.0
 51
180.0
  0
ARC
  5
75
100
AcDbEntity
  8
1
 62
256
370
-1
  6
BYLAYER
100
AcDbCircle
 10
39.9999999999999929
 20
135.0
 30
0.0
 40
5.0
100
AcDbArc
 50
0.0
 51
90.0
  0
LINE
  5
76
100
AcDbEntity
100
AcDbLine
  8
1
 62
256
370
-1
  6
BYLAYER
 10
45.0
 20
111.182520563947989
 30
0.0
 11
44.9999999999999929
 21
135.0
 31
0.0
  0
LINE
  5
77
100
AcDbEntity
100
AcDbLine
  8
1
 62
256
370
-1
  6
BYLAYER
 10
39.9999999999999929
 20
140.0
 30
0.0
 11
-40.0000000000000071
 21
140.0
 31
0.0
  0
ARC
  5
78
100
AcDbEntity
  8
1
 62
256
370
-1
  6
BYLAYER
100
AcDbCircle
 10
44.5
 20
69.9999999999999858
 30
0.0
 40
32.5
100
AcDbArc
 50
267.970570683171502
 51
75.6964634900747342
  0
LINE
  5
79
100
AcDbEntity
100
AcDbLine
  8
1
 62
256
370
-1
  6
BYLAYER
 10
0.0
 20
28.0
 30
0.0
 11
25.528896016861097
 21
28.0
 31
0.0
  0
LINE
  5
7A
100
AcDbEntity
100
AcDbLine
  8
1
 62
256
370
-1
  6
BYLAYER
 10
32.9813091521120896
 20
31.332051405301744
 30
0.0
 11
35.542542114332953
 21
34.1946058924897685
 31
0.0
  0
LINE
  5
7B
100
AcDbEntity
100
AcDbLine
  8
1
 62
256
370
-1
  6
BYLAYER
 10
47.0
 20
47.0
 30
0.0
 11
47.0
 21
47.0
 31
0.0
  0
ARC
  5
7C
100
AcDbEntity
  8
1
 62
256
370
-1
  6
BYLAYER
100
AcDbCircle
 10
25.5288960168610934
 20
38.0
 30
0.0
 40
10.0
100
AcDbArc
 50
270.0
 51
318.1798301198643344
  0
LINE
  5
7D
100
AcDbEntity
100
AcDbLine
  8
1
 62
256
370
-1
  6
BYLAYER
 10
-47.0
 20
47.0000000000000142
 30
0.0
 11
-47.0
 21
47.0000000000000142
 31
0.0
  0
LINE
  5
7E
100
AcDbEntity
100
AcDbLine
  8
1
 62
256
370
-1
  6
BYLAYER
 10
-54.9999776907541502
 20
110.0000223382215552
 30
0.0
 11
-80.0258815094069575
 21
109.9999665073174384
 31
0.0
  0
LINE
  5
7F
100
AcDbEntity
100
AcDbLine
  8
1
 62
256
370
-1
  6
BYLAYER
 10
-90.0
 20
100.0
 30
0.0
 11
-90.0
 21
57.5203849924289017
 31
0.0
  0
LINE
  5
80
100
AcDbEntity
100
AcDbLine
  8
1
 62
256
370
-1
  6
BYLAYER
 10
-27.0
 20
30.0
 30
0.0
 11
-27.0
 21
30.0
 31
0.0
  0
ARC
  5
81
100
AcDbEntity
  8
1
 62
256
370
-1
  6
BYLAYER
100
AcDbCircle
 10
-80.0
 20
100.0
 30
0.0
 40
10.0
100
AcDbArc
 50
90.1482902911993733
 51
180.0
  0
ARC
  5
82
100
AcDbEntity
  8
1
 62
256
370
-1
  6
BYLAYER
100
AcDbCircle
 10
55.0
 20
111.182520563947989
 30
0.0
 40
10.0
100
AcDbArc
 50
180.0
 51
255.6964634900747342
  0
ARC
  5
83
100
AcDbEntity
  8
1
 62
256
370
-1
  6
BYLAYER
100
AcDbCircle
 10
42.9949552495839455
 20
27.526657297791516
 30
0.0
 40
10.0
100
AcDbArc
 50
87.9705706831714878
 51
138.1798301198642775
  0
ARC
  5
84
100
AcDbEntity
  8
1
 62
256
370
-1
  6
BYLAYER
100
AcDbCircle
 10
-54.9999999999999929
 20
120.0000223381966435
 30
0.0
 40
10.0
100
AcDbArc
 50
270.0001278225631722
 51
0.0
  0
ARC
  5
85
100
AcDbEntity
  8
1
 62
256
370
-1
  6
BYLAYER
100
AcDbCircle
 10
-42.9949552495839455
 20
27.526657297791612
 30
0.0
 40
10.0
100
AcDbArc
 50
41.8201698801357367
 51
92.0294293168285122
  0
LINE
  5
86
100
AcDbEntity
100
AcDbLine
  8
1
 62
256
370
-1
  6
BYLAYER
 10
0.0
 20
28.0
 30
0.0
 11
-25.528896016861097
 21
28.0000000000000036
 31
0.0
  0
LINE
  5
87
100
AcDbEntity
100
AcDbLine
  8
1
 62
256
370
-1
  6
BYLAYER
 10
-32.9813091521120896
 20
31.3320514053017121
 30
0.0
 11
-35.5425421143329459
 21
34.1946058924897969
 31
0.0
  0
ARC
  5
88
100
AcDbEntity
  8
1
 62
256
370
-1
  6
BYLAYER
100
AcDbCircle
 10
-25.5288960168610899
 20
38.0000000000000142
 30
0.0
 40
10.0
100
AcDbArc
 50
221.8201698801357509
 51
270.0
  0
LINE
  5
89
100
AcDbEntity
100
AcDbLine
  8
1
 62
256
370
-1
  6
BYLAYER
 10
-70.0
 20
37.5203849924289017
 30
0.0
 11
-43.3490834261524256
 21
37.5203849924289017
 31
0.0
  0
ARC
  5
8A
100
AcDbEntity
  8
1
 62
256
370
-1
  6
BYLAYER
100
AcDbCircle
 10
-70.0
 20
57.5203849924289017
 30
0.0
 40
20.0
100
AcDbArc
 50
180.0
 51
270.0
  0
LINE
  5
8B
100
AcDbEntity
100
AcDbLine
  8
0
 62
256
370
-1
  6
BYLAYER
 10
-47.25
 20
84.0
 30
0.0
 11
-41.25
 21
84.0
 31
0.0
  0
LINE
  5
8C
100
AcDbEntity
100
AcDbLine
  8
0
 62
256
370
-1
  6
BYLAYER
 10
-39.25
 20
82.0
 30
0.0
 11
-39.25
 21
78.0
 31
0.0
  0
LINE
  5
8D
100
AcDbEntity
100
AcDbLine
  8
0
 62
256
370
-1
  6
BYLAYER
 10
-49.25
 20
78.0
 30
0.0
 11
-49.25
 21
82.0
 31
0.0
  0
LINE
  5
8E
100
AcDbEntity
100
AcDbLine
  8
0
 62
256
370
-1
  6
BYLAYER
 10
-58.25
 20
67.0
 30
0.0
 11
-58.25
 21
73.0
 31
0.0
  0
LINE
  5
8F
100
AcDbEntity
100
AcDbLine
  8
0
 62
256
370
-1
  6
BYLAYER
 10
-56.25
 20
75.0
 30
0.0
 11
-52.25
 21
75.0
 31
0.0
  0
LINE
  5
90
100
AcDbEntity
100
AcDbLine
  8
0
 62
256
370
-1
  6
BYLAYER
 10
-52.25
 20
65.0
 30
0.0
 11
-56.25
 21
65.0
 31
0.0
  0
LINE
  5
91
100
AcDbEntity
100
AcDbLine
  8
0
 62
256
370
-1
  6
BYLAYER
 10
-41.25
 20
56.0
 30
0.0
 11
-47.2500000000000071
 21
56.0
 31
0.0
  0
LINE
  5
92
100
AcDbEntity
100
AcDbLine
  8
0
 62
256
370
-1
  6
BYLAYER
 10
-49.2500000000000071
 20
57.9999999999999929
 30
0.0
 11
-49.25
 21
62.0
 31
0.0
  0
LINE
  5
93
100
AcDbEntity
100
AcDbLine
  8
0
 62
256
370
-1
  6
BYLAYER
 10
-39.25
 20
62.0
 30
0.0
 11
-39.25
 21
58.0000000000000071
 31
0.0
  0
LINE
  5
94
100
AcDbEntity
100
AcDbLine
  8
0
 62
256
370
-1
  6
BYLAYER
 10
-30.25
 20
73.0
 30
0.0
 11
-30.25
 21
67.0
 31
0.0
  0
LINE
  5
95
100
AcDbEntity
100
AcDbLine
  8
0
 62
256
370
-1
  6
BYLAYER
 10
-32.25
 20
65.0
 30
0.0
 11
-36.25
 21
65.0
 31
0.0
  0
LINE
  5
96
100
AcDbEntity
100
AcDbLine
  8
0
 62
256
370
-1
  6
BYLAYER
 10
-36.25
 20
75.0
 30
0.0
 11
-32.25
 21
75.0
 31
0.0
  0
ARC
  5
97
100
AcDbEntity
  8
0
 62
256
370
-1
  6
BYLAYER
100
AcDbCircle
 10
-36.25
 20
78.0
 30
0.0
 40
3.0
100
AcDbArc
 50
180.0
 51
270.0
  0
ARC
  5
98
100
AcDbEntity
  8
0
 62
256
370
-1
  6
BYLAYER
100
AcDbCircle
 10
-36.25
 20
62.0
 30
0.0
 40
3.0
100
AcDbArc
 50
90.0
 51
180.0
  0
ARC
  5
99
100
AcDbEntity
  8
0
 62
256
370
-1
  6
BYLAYER
100
AcDbCircle
 10
-52.25
 20
62.0
 30
0.0
 40
3.0
100
AcDbArc
 50
0.0
 51
90.0
  0
ARC
  5
9A
100
AcDbEntity
  8
0
 62
256
370
-1
  6
BYLAYER
100
AcDbCircle
 10
-52.25
 20
78.0
 30
0.0
 40
3.0
100
AcDbArc
 50
270.0
 51
0.0
  0
ARC
  5
9B
100
AcDbEntity
  8
0
 62
256
370
-1
  6
BYLAYER
100
AcDbCircle
 10
-47.25
 20
82.0
 30
0.0
 40
2.0
100
AcDbArc
 50
90.0
 51
180.0
  0
ARC
  5
9C
100
AcDbEntity
  8
0
 62
256
370
-1
  6
BYLAYER
100
AcDbCircle
 10
-41.25
 20
82.0
 30
0.0
 40
2.0
100
AcDbArc
 50
0.0
 51
90.0
  0
ARC
  5
9D
100
AcDbEntity
  8
0
 62
256
370
-1
  6
BYLAYER
100
AcDbCircle
 10
-32.25
 20
73.0
 30
0.0
 40
2.0
100
AcDbArc
 50
0.0
 51
90.0
  0
ARC
  5
9E
100
AcDbEntity
  8
0
 62
256
370
-1
  6
BYLAYER
100
AcDbCircle
 10
-32.25
 20
67.0
 30
0.0
 40
2.0
100
AcDbArc
 50
270.0
 51
0.0
  0
ARC
  5
9F
100
AcDbEntity
  8
0
 62
256
370
-1
  6
BYLAYER
100
AcDbCircle
 10
-41.25
 20
58.0000000000000071
 30
0.0
 40
2.0
100
AcDbArc
 50
270.0
 51
0.0
  0
ARC
  5
A0
100
AcDbEntity
  8
0
 62
256
370
-1
  6
BYLAYER
100
AcDbCircle
 10
-47.2500000000000071
 20
57.9999999999999929
 30
0.0
 40
2.0
100
AcDbArc
 50
180.0
 51
270.0
  0
ARC
  5
A1
100
AcDbEntity
  8
0
 62
256
370
-1
  6
BYLAYER
100
AcDbCircle
 10
-56.25
 20
67.0
 30
0.0
 40
2.0
100
AcDbArc
 50
180.0
 51
270.0
  0
ARC
  5
A2
100
AcDbEntity
  8
0
 62
256
370
-1
  6
BYLAYER
100
AcDbCircle
 10
-56.25
 20
73.0
 30
0.0
 40
2.0
100
AcDbArc
 50
90.0
 51
180.0
  0
LINE
  5
A3
100
AcDbEntity
100
AcDbLine
  8
2
 62
256
370
-1
  6
BYLAYER
 10
47.0
 20
47.0
 30
0.0
 11
47.0
 21
47.0
 31
0.0
  0
LINE
  5
A4
100
AcDbEntity
100
AcDbLine
  8
2
 62
256
370
-1
  6
BYLAYER
 10
-47.0
 20
47.0000000000000142
 30
0.0
 11
-47.0
 21
47.0000000000000142
 31
0.0
  0
LINE
  5
A5
100
AcDbEntity
100
AcDbLine
  8
2
 62
256
370
-1
  6
BYLAYER
 10
-90.0
 20
100.0
 30
0.0
 11
-90.0
 21
57.5203849924289017
 31
0.0
  0
LINE
  5
A6
100
AcDbEntity
100
AcDbLine
  8
2
 62
256
370
-1
  6
BYLAYER
 10
-27.0
 20
30.0
 30
0.0
 11
-27.0
 21
30.0
 31
0.0
  0
LINE
  5
A7
100
AcDbEntity
100
AcDbLine
  8
2
 62
256
370
-1
  6
BYLAYER
 10
0.0
 20
28.0
 30
0.0
 11
-17.8556261370714751
 21
28.0000000000000036
 31
0.0
  0
ARC
  5
A8
100
AcDbEntity
  8
2
 62
256
370
-1
  6
BYLAYER
100
AcDbCircle
 10
-70.0
 20
57.5203849924289017
 30
0.0
 40
20.0
100
AcDbArc
 50
180.0
 51
256.1387822133045802
  0
ARC
  5
A9
100
AcDbEntity
  8
2
 62
256
370
-1
  6
BYLAYER
100
AcDbCircle
 10
44.5
 20
69.9999999999999858
 30
0.0
 40
32.5
100
AcDbArc
 50
314.3095334455501302
 51
75.6964634900747342
  0
LINE
  5
AA
100
AcDbEntity
100
AcDbLine
  8
2
 62
256
370
-1
  6
BYLAYER
 10
0.0
 20
28.0
 30
0.0
 11
17.8556261370714751
 21
28.0
 31
0.0
  0
LINE
  5
AB
100
AcDbEntity
100
AcDbLine
  8
0
 62
256
370
-1
  6
BYLAYER
 10
28.75
 20
65.0
 30
0.0
 11
34.75
 21
65.0
 31
0.0
  0
LINE
  5
AC
100
AcDbEntity
100
AcDbLine
  8
0
 62
256
370
-1
  6
BYLAYER
 10
36.75
 20
67.0
 30
0.0
 11
36.75
 21
73.0
 31
0.0
  0
LINE
  5
AD
100
AcDbEntity
100
AcDbLine
  8
0
 62
256
370
-1
  6
BYLAYER
 10
34.75
 20
75.0
 30
0.0
 11
28.75
 21
75.0
 31
0.0
  0
LINE
  5
AE
100
AcDbEntity
100
AcDbLine
  8
0
 62
256
370
-1
  6
BYLAYER
 10
26.75
 20
73.0
 30
0.0
 11
26.75
 21
67.0
 31
0.0
  0
ARC
  5
AF
100
AcDbEntity
  8
0
 62
256
370
-1
  6
BYLAYER
100
AcDbCircle
 10
34.75
 20
73.0
 30
0.0
 40
2.0
100
AcDbArc
 50
0.0
 51
90.0
  0
ARC
  5
B0
100
AcDbEntity
  8
0
 62
256
370
-1
  6
BYLAYER
100
AcDbCircle
 10
34.75
 20
67.0
 30
0.0
 40
2.0
100
AcDbArc
 50
270.0
 51
0.0
  0
ARC
  5
B1
100
AcDbEntity
  8
0
 62
256
370
-1
  6
BYLAYER
100
AcDbCircle
 10
28.75
 20
67.0
 30
0.0
 40
2.0
100
AcDbArc
 50
180.0
 51
270.0
  0
ARC
  5
B2
100
AcDbEntity
  8
0
 62
256
370
-1
  6
BYLAYER
100
AcDbCircle
 10
28.75
 20
73.0
 30
0.0
 40
2.0
100
AcDbArc
 50
90.0
 51
180.0
  0
LINE
  5
B3
100
AcDbEntity
100
AcDbLine
  8
0
 62
256
370
-1
  6
BYLAYER
 10
49.25
 20
79.5
 30
0.0
 11
49.25
 21
85.5
 31
0.0
  0
LINE
  5
B4
100
AcDbEntity
100
AcDbLine
  8
0
 62
256
370
-1
  6
BYLAYER
 10
47.25
 20
87.5
 30
0.0
 11
41.25
 21
87.5
 31
0.0
  0
LINE
  5
B5
100
AcDbEntity
100
AcDbLine
  8
0
 62
256
370
-1
  6
BYLAYER
 10
39.25
 20
85.5
 30
0.0
 11
39.25
 21
79.5
 31
0.0
  0
ARC
  5
B6
100
AcDbEntity
  8
0
 62
256
370
-1
  6
BYLAYER
100
AcDbCircle
 10
47.25
 20
85.5
 30
0.0
 40
2.0
100
AcDbArc
 50
0.0
 51
90.0
  0
ARC
  5
B7
100
AcDbEntity
  8
0
 62
256
370
-1
  6
BYLAYER
100
AcDbCircle
 10
47.25
 20
79.5
 30
0.0
 40
2.0
100
AcDbArc
 50
270.0
 51
0.0
  0
ARC
  5
B8
100
AcDbEntity
  8
0
 62
256
370
-1
  6
BYLAYER
100
AcDbCircle
 10
41.25
 20
79.5
 30
0.0
 40
2.0
100
AcDbArc
 50
180.0
 51
270.0
  0
ARC
  5
B9
100
AcDbEntity
  8
0
 62
256
370
-1
  6
BYLAYER
100
AcDbCircle
 10
41.25
 20
85.5
 30
0.0
 40
2.0
100
AcDbArc
 50
90.0
 51
180.0
  0
LINE
  5
BA
100
AcDbEntity
100
AcDbLine
  8
0
 62
256
370
-1
  6
BYLAYER
 10
41.25
 20
77.5
 30
0.0
 11
47.25
 21
77.5
 31
0.0
  0
LINE
  5
BB
100
AcDbEntity
100
AcDbLine
  8
0
 62
256
370
-1
  6
BYLAYER
 10
61.75
 20
67.0
 30
0.0
 11
61.75
 21
73.0
 31
0.0
  0
LINE
  5
BC
100
AcDbEntity
100
AcDbLine
  8
0
 62
256
370
-1
  6
BYLAYER
 10
59.75
 20
75.0
 30
0.0
 11
53.75
 21
75.0
 31
0.0
  0
LINE
  5
BD
100
AcDbEntity
100
AcDbLine
  8
0
 62
256
370
-1
  6
BYLAYER
 10
51.75
 20
73.0
 30
0.0
 11
51.75
 21
67.0
 31
0.0
  0
ARC
  5
BE
100
AcDbEntity
  8
0
 62
256
370
-1
  6
BYLAYER
100
AcDbCircle
 10
59.75
 20
73.0
 30
0.0
 40
2.0
100
AcDbArc
 50
0.0
 51
90.0
  0
ARC
  5
BF
100
AcDbEntity
  8
0
 62
256
370
-1
  6
BYLAYER
100
AcDbCircle
 10
59.75
 20
67.0
 30
0.0
 40
2.0
100
AcDbArc
 50
270.0
 51
0.0
  0
ARC
  5
C0
100
AcDbEntity
  8
0
 62
256
370
-1
  6
BYLAYER
100
AcDbCircle
 10
53.75
 20
67.0
 30
0.0
 40
2.0
100
AcDbArc
 50
180.0
 51
270.0
  0
ARC
  5
C1
100
AcDbEntity
  8
0
 62
256
370
-1
  6
BYLAYER
100
AcDbCircle
 10
53.75
 20
73.0
 30
0.0
 40
2.0
100
AcDbArc
 50
90.0
 51
180.0
  0
LINE
  5
C2
100
AcDbEntity
100
AcDbLine
  8
0
 62
256
370
-1
  6
BYLAYER
 10
53.75
 20
65.0
 30
0.0
 11
59.75
 21
65.0
 31
0.0
  0
LINE
  5
C3
100
AcDbEntity
100
AcDbLine
  8
0
 62
256
370
-1
  6
BYLAYER
 10
39.25
 20
60.5
 30
0.0
 11
39.25
 21
54.5
 31
0.0
  0
ARC
  5
C4
100
AcDbEntity
  8
0
 62
256
370
-1
  6
BYLAYER
100
AcDbCircle
 10
47.25
 20
60.5
 30
0.0
 40
2.0
100
AcDbArc
 50
0.0
 51
90.0
  0
ARC
  5
C5
100
AcDbEntity
  8
0
 62
256
370
-1
  6
BYLAYER
100
AcDbCircle
 10
47.25
 20
54.5
 30
0.0
 40
2.0
100
AcDbArc
 50
270.0
 51
0.0
  0
ARC
  5
C6
100
AcDbEntity
  8
0
 62
256
370
-1
  6
BYLAYER
100
AcDbCircle
 10
41.25
 20
54.5
 30
0.0
 40
2.0
100
AcDbArc
 50
180.0
 51
270.0
  0
ARC
  5
C7
100
AcDbEntity
  8
0
 62
256
370
-1
  6
BYLAYER
100
AcDbCircle
 10
41.25
 20
60.5
 30
0.0
 40
2.0
100
AcDbArc
 50
90.0
 51
180.0
  0
LINE
  5
C8
100
AcDbEntity
100
AcDbLine
  8
0
 62
256
370
-1
  6
BYLAYER
 10
41.25
 20
52.5
 30
0.0
 11
47.25
 21
52.5
 31
0.0
  0
LINE
  5
C9
100
AcDbEntity
100
AcDbLine
  8
0
 62
256
370
-1
  6
BYLAYER
 10
49.25
 20
54.5
 30
0.0
 11
49.25
 21
60.5
 31
0.0
  0
LINE
  5
CA
100
AcDbEntity
100
AcDbLine
  8
0
 62
256
370
-1
  6
BYLAYER
 10
47.25
 20
62.5
 30
0.0
 11
41.25
 21
62.5
 31
0.0
  0
ARC
  5
CB
100
AcDbEntity
  8
1
 62
256
370
-1
  6
BYLAYER
100
AcDbCircle
 10
-22.5
 20
48.0
 30
0.0
 40
13.5
100
AcDbArc
 50
178.2941271646884616
 51
91.7058728353116095
  0
ARC
  5
CC
100
AcDbEntity
  8
1
 62
256
370
-1
  6
BYLAYER
100
AcDbCircle
 10
-37.9931306180734012
 20
48.4614148364720521
 30
0.0
 40
2.0
100
AcDbArc
 50
358.294127164688291
 51
106.8097197929737092
  0
ARC
  5
CD
100
AcDbEntity
  8
1
 62
256
370
-1
  6
BYLAYER
100
AcDbCircle
 10
-22.9614148364720556
 20
63.4931306180734012
 30
0.0
 40
2.0
100
AcDbArc
 50
163.1902802070262908
 51
271.7058728353116521
  0
ARC
  5
CE
100
AcDbEntity
  8
1
 62
256
370
-1
  6
BYLAYER
100
AcDbCircle
 10
-44.5
 20
70.0
 30
0.0
 40
20.5
100
AcDbArc
 50
343.1902802070263192
 51
26.0403409958960701
  0
ARC
  5
CF
100
AcDbEntity
  8
1
 62
256
370
-1
  6
BYLAYER
100
AcDbCircle
 10
44.5
 20
69.9999999999999858
 30
0.0
 40
21.5
100
AcDbArc
 50
253.9153191859629999
 51
73.7397952916880683
  0
ARC
  5
D0
100
AcDbEntity
  8
1
 62
256
370
-1
  6
BYLAYER
100
AcDbCircle
 10
22.5
 20
48.0000000000000284
 30
0.0
 40
13.5
100
AcDbArc
 50
92.1446631423590645
 51
357.8553368576408502
  0
ARC
  5
D1
100
AcDbEntity
  8
1
 62
256
370
-1
  6
BYLAYER
100
AcDbCircle
 10
21.9199482607767564
 20
63.4891426483141785
 30
0.0
 40
2.0
100
AcDbArc
 50
272.1446631423590929
 51
16.0846808140367408
  0
ARC
  5
D2
100
AcDbEntity
  8
1
 62
256
370
-1
  6
BYLAYER
100
AcDbCircle
 10
37.989142648314143
 20
47.4199482607767564
 30
0.0
 40
2.0
100
AcDbArc
 50
73.9153191859630567
 51
177.8553368576408502
  0
ARC
  5
D3
100
AcDbEntity
  8
2
 62
256
370
-1
  6
BYLAYER
100
AcDbCircle
 10
-80.0
 20
100.0
 30
0.0
 40
10.0
100
AcDbArc
 50
90.0
 51
180.0
  0
ARC
  5
D4
100
AcDbEntity
  8
2
 62
256
370
-1
  6
BYLAYER
100
AcDbCircle
 10
-54.9999999999999929
 20
120.0000223381966435
 30
0.0
 40
10.0
100
AcDbArc
 50
270.0001278225631722
 51
0.0
  0
LINE
  5
D5
100
AcDbEntity
100
AcDbLine
  8
2
 62
256
370
-1
  6
BYLAYER
 10
-45.0000000000000071
 20
135.0
 30
0.0
 11
-45.0
 21
120.0000223381966435
 31
0.0
  0
ARC
  5
D6
100
AcDbEntity
  8
2
 62
256
370
-1
  6
BYLAYER
100
AcDbCircle
 10
-40.0000000000000071
 20
135.0
 30
0.0
 40
5.0
100
AcDbArc
 50
90.0
 51
180.0
  0
ARC
  5
D7
100
AcDbEntity
  8
2
 62
256
370
-1
  6
BYLAYER
100
AcDbCircle
 10
39.9999999999999929
 20
135.0
 30
0.0
 40
5.0
100
AcDbArc
 50
0.0
 51
90.0
  0
LINE
  5
D8
100
AcDbEntity
100
AcDbLine
  8
2
 62
256
370
-1
  6
BYLAYER
 10
45.0
 20
111.182520563947989
 30
0.0
 11
44.9999999999999929
 21
135.0
 31
0.0
  0
LINE
  5
D9
100
AcDbEntity
100
AcDbLine
  8
2
 62
256
370
-1
  6
BYLAYER
 10
-54.9999776907541502
 20
110.0000223382215552
 30
0.0
 11
-80.0258815094069575
 21
109.9999665073174384
 31
0.0
  0
LINE
  5
DA
100
AcDbEntity
100
AcDbLine
  8
2
 62
256
370
-1
  6
BYLAYER
 10
39.9999999999999929
 20
140.0
 30
0.0
 11
-40.0000000000000071
 21
140.0
 31
0.0
  0
ARC
  5
DB
100
AcDbEntity
  8
2
 62
256
370
-1
  6
BYLAYER
100
AcDbCircle
 10
55.0
 20
111.182520563947989
 30
0.0
 40
10.0
100
AcDbArc
 50
180.0
 51
255.6964634900747342
  0
LINE
  5
DC
100
AcDbEntity
100
AcDbLine
  8
1
 62
256
370
-1
  6
BYLAYER
 10
-41.0
 20
135.0
 30
0.0
 11
41.0
 21
135.0
 31
0.0
  0
LINE
  5
DD
100
AcDbEntity
100
AcDbLine
  8
1
 62
256
370
-1
  6
BYLAYER
 10
41.0
 20
135.0
 30
0.0
 11
41.0
 21
103.3333333333333144
 31
0.0
  0
LINE
  5
DE
100
AcDbEntity
100
AcDbLine
  8
1
 62
256
370
-1
  6
BYLAYER
 10
16.8346098487658473
 20
94.0
 30
0.0
 11
-16.8346098487658473
 21
94.0
 31
0.0
  0
LINE
  5
DF
100
AcDbEntity
100
AcDbLine
  8
1
 62
256
370
-1
  6
BYLAYER
 10
-41.0
 20
103.3333333333333286
 30
0.0
 11
-41.0
 21
135.0
 31
0.0
  0
LINE
  5
E0
100
AcDbEntity
100
AcDbLine
  8
1
 62
256
370
-1
  6
BYLAYER
 10
-41.0
 20
135.0
 30
0.0
 11
-41.0
 21
135.0
 31
0.0
  0
LINE
  5
E1
100
AcDbEntity
100
AcDbLine
  8
1
 62
256
370
-1
  6
BYLAYER
 10
-43.0
 20
97.3333333333333286
 30
0.0
 11
-46.3509942283457761
 21
92.8653410288722938
 31
0.0
  0
LINE
  5
E2
100
AcDbEntity
100
AcDbLine
  8
1
 62
256
370
-1
  6
BYLAYER
 10
-26.2876524997986891
 20
87.3288108338030611
 30
0.0
 11
-26.0260601489464172
 21
87.9391929857916921
 31
0.0
  0
LINE
  5
E3
100
AcDbEntity
100
AcDbLine
  8
1
 62
256
370
-1
  6
BYLAYER
 10
42.9999999999999858
 20
97.3333333333333286
 30
0.0
 11
45.3199999999999719
 21
94.2400000000000091
 31
0.0
  0
LINE
  5
E4
100
AcDbEntity
100
AcDbLine
  8
1
 62
256
370
-1
  6
BYLAYER
 10
25.7735793109392546
 20
88.528314941141744
 30
0.0
 11
26.0260601489464243
 21
87.9391929857916779
 31
0.0
  0
ARC
  5
E5
100
AcDbEntity
  8
1
 62
256
370
-1
  6
BYLAYER
100
AcDbCircle
 10
-44.5
 20
70.0
 30
0.0
 40
20.5
100
AcDbArc
 50
108.8434456146537599
 51
286.8097197929736808
  0
ARC
  5
E6
100
AcDbEntity
  8
1
 62
256
370
-1
  6
BYLAYER
100
AcDbCircle
 10
44.5
 20
69.9999999999999858
 30
0.0
 40
21.5
100
AcDbArc
 50
152.4096526902874018
 51
196.0846808140369149
  0
ARC
  5
E7
100
AcDbEntity
  8
1
 62
256
370
-1
  6
BYLAYER
100
AcDbCircle
 10
16.5821290107586776
 20
84.5891219553500662
 30
0.0
 40
10.0
100
AcDbArc
 50
332.4096526902873165
 51
23.1985905136482025
  0
ARC
  5
E8
100
AcDbEntity
  8
1
 62
256
370
-1
  6
BYLAYER
100
AcDbCircle
 10
16.8346098487658473
 20
84.0
 30
0.0
 40
10.0
100
AcDbArc
 50
23.1985905136482025
 51
90.0
  0
ARC
  5
E9
100
AcDbEntity
  8
1
 62
256
370
-1
  6
BYLAYER
100
AcDbCircle
 10
51.0
 20
103.3333333333333144
 30
0.0
 40
10.0
100
AcDbArc
 50
180.0
 51
216.8698976458439063
  0
ARC
  5
EA
100
AcDbEntity
  8
1
 62
256
370
-1
  6
BYLAYER
100
AcDbCircle
 10
53.3199999999999861
 20
100.2399999999999949
 30
0.0
 40
10.0
100
AcDbArc
 50
216.8698976458439063
 51
253.7397952916880968
  0
ARC
  5
EB
100
AcDbEntity
  8
1
 62
256
370
-1
  6
BYLAYER
100
AcDbCircle
 10
-17.0962021996181122
 20
83.3896178480113832
 30
0.0
 40
10.0
100
AcDbArc
 50
156.8014094863518153
 51
206.0403409958960879
  0
ARC
  5
EC
100
AcDbEntity
  8
1
 62
256
370
-1
  6
BYLAYER
100
AcDbCircle
 10
-16.8346098487658473
 20
84.0000000000000142
 30
0.0
 40
10.0
100
AcDbArc
 50
90.0
 51
156.8014094863518153
  0
ARC
  5
ED
100
AcDbEntity
  8
1
 62
256
370
-1
  6
BYLAYER
100
AcDbCircle
 10
-51.0
 20
103.3333333333333286
 30
0.0
 40
10.0
100
AcDbArc
 50
323.1301023541559516
 51
0.0
  0
ARC
  5
EE
100
AcDbEntity
  8
1
 62
256
370
-1
  6
BYLAYER
100
AcDbCircle
 10
-54.3509942283457761
 20
98.8653410288722938
 30
0.0
 40
10.0
100
AcDbArc
 50
288.8434456146537741
 51
323.1301023541559516
  0
LINE
  5
EF
100
AcDbEntity
100
AcDbLine
  8
1
 62
256
370
-1
  6
DASHED
 10
56.0
 20
97.0
 30
0.0
 11
-68.0
 21
97.0
 31
0.0
  0
LINE
  5
F0
100
AcDbEntity
100
AcDbLine
  8
1
 62
256
370
-1
  6
DASHED
 10
-70.0
 20
95.0
 30
0.0
 11
-70.0
 21
48.0
 31
0.0
  0
LINE
  5
F1
100
AcDbEntity
100
AcDbLine
  8
1
 62
256
370
-1
  6
DASHED
 10
-68.0
 20
46.0
 30
0.0
 11
56.0
 21
46.0
 31
0.0
  0
LINE
  5
F2
100
AcDbEntity
100
AcDbLine
  8
1
 62
256
370
-1
  6
DASHED
 10
58.0
 20
48.0
 30
0.0
 11
58.0
 21
95.0
 31
0.0
  0
LINE
  5
F3
100
AcDbEntity
100
AcDbLine
  8
1
 62
256
370
-1
  6
BYLAYER
 10
58.0
 20
97.0
 30
0.0
 11
58.0
 21
97.0
 31
0.0
  0
ARC
  5
F4
100
AcDbEntity
  8
1
 62
256
370
-1
  6
BYLAYER
100
AcDbCircle
 10
-68.0
 20
95.0
 30
0.0
 40
2.0
100
AcDbArc
 50
90.0
 51
180.0
  0
ARC
  5
F5
100
AcDbEntity
  8
1
 62
256
370
-1
  6
BYLAYER
100
AcDbCircle
 10
56.0
 20
95.0
 30
0.0
 40
2.0
100
AcDbArc
 50
0.0
 51
90.0
  0
ARC
  5
F6
100
AcDbEntity
  8
1
 62
256
370
-1
  6
BYLAYER
100
AcDbCircle
 10
56.0
 20
48.0
 30
0.0
 40
2.0
100
AcDbArc
 50
270.0
 51
0.0
  0
ARC
  5
F7
100
AcDbEntity
  8
1
 62
256
370
-1
  6
BYLAYER
100
AcDbCircle
 10
-68.0
 20
48.0
 30
0.0
 40
2.0
100
AcDbArc
 50
180.0
 51
270.0
  0
MTEXT
  5
F8
100
AcDbEntity
100
AcDbMText
  8
1
 62
256
370
-1
  6
BYLAYER
 10
-59.0
 20
98.0
 30
0.0
 40
1.0
 41
0.0
 71
5
 72
1
  1
Recess back, to 1mm depth from front
  7
textstyle0
 50
0.0
 73
2
 44
1.0
  0
LINE
  5
F9
100
AcDbEntity
100
AcDbLine
  8
2
 62
256
370
-1
  6
BYLAYER
 10
38.1230965013820438
 20
0.316320436840545
 30
0.0
 11
67.1008712900541013
 21
8.0808917899161585
 31
0.0
  0
LINE
  5
FA
100
AcDbEntity
100
AcDbLine
  8
2
 62
256
370
-1
  6
BYLAYER
 10
70.6364051959868249
 20
14.2046161468741019
 30
0.0
 11
64.5284520322785937
 21
36.999807684084324
 31
0.0
  0
LINE
  5
FB
100
AcDbEntity
100
AcDbLine
  8
2
 62
256
370
-1
  6
BYLAYER
 10
27.5148843999621668
 20
20.5881904510252056
 30
0.0
 11
31.9993721444240968
 21
3.8518543427732865
 31
0.0
  0
ARC
  5
FC
100
AcDbEntity
  8
2
 62
256
370
-1
  6
BYLAYER
100
AcDbCircle
 10
74.1877102951692962
 20
39.5879981351095296
 30
0.0
 40
10.0
100
AcDbArc
 50
134.3095334455501302
 51
194.9999999999999432
  0
ARC
  5
FD
100
AcDbEntity
  8
2
 62
256
370
-1
  6
BYLAYER
100
AcDbCircle
 10
17.8556261370714786
 20
18.0
 30
0.0
 40
10.0
100
AcDbArc
 50
14.9999999999999964
 51
90.0000000000000142
  0
ARC
  5
FE
100
AcDbEntity
  8
2
 62
256
370
-1
  6
BYLAYER
100
AcDbCircle
 10
36.8290012758694445
 20
5.1459495682858867
 30
0.0
 40
5.0
100
AcDbArc
 50
194.9999999999999432
 51
284.9999999999999432
  0
ARC
  5
FF
100
AcDbEntity
  8
2
 62
256
370
-1
  6
BYLAYER
100
AcDbCircle
 10
65.806776064541495
 20
12.9105209213615009
 30
0.0
 40
5.0
100
AcDbArc
 50
285.0
 51
14.9999999999999698
  0
LINE
  5
100
100
AcDbEntity
100
AcDbLine
  8
2
 62
256
370
-1
  6
BYLAYER
 10
-27.5148843999621633
 20
20.5881904510252127
 30
0.0
 11
-31.9993721444241075
 21
3.8518543427732972
 31
0.0
  0
ARC
  5
101
100
AcDbEntity
  8
2
 62
256
370
-1
  6
BYLAYER
100
AcDbCircle
 10
-36.8290012758694516
 20
5.1459495682858893
 30
0.0
 40
5.0
100
AcDbArc
 50
255.0000000000000568
 51
345.0000000000001137
  0
ARC
  5
102
100
AcDbEntity
  8
2
 62
256
370
-1
  6
BYLAYER
100
AcDbCircle
 10
-65.8067760645415092
 20
12.9105209213615311
 30
0.0
 40
5.0
100
AcDbArc
 50
165.0
 51
254.9999999999999716
  0
LINE
  5
103
100
AcDbEntity
100
AcDbLine
  8
2
 62
256
370
-1
  6
BYLAYER
 10
-38.1230965013820366
 20
0.3163204368405275
 30
0.0
 11
-67.1008712900541013
 21
8.0808917899161301
 31
0.0
  0
LINE
  5
104
100
AcDbEntity
100
AcDbLine
  8
2
 62
256
370
-1
  6
BYLAYER
 10
-47.0
 20
47.0000000000000142
 30
0.0
 11
-47.0
 21
47.0000000000000142
 31
0.0
  0
LINE
  5
105
100
AcDbEntity
100
AcDbLine
  8
2
 62
256
370
-1
  6
BYLAYER
 10
-70.6364051959868249
 20
14.2046161468740912
 30
0.0
 11
-67.5278696830558545
 21
25.8058286182646839
 31
0.0
  0
ARC
  5
106
100
AcDbEntity
  8
2
 62
256
370
-1
  6
BYLAYER
100
AcDbCircle
 10
-77.1871279459465427
 20
28.3940190692898788
 30
0.0
 40
10.0
100
AcDbArc
 50
345.0000000000000568
 51
76.1387822133045375
  0
ARC
  5
107
100
AcDbEntity
  8
2
 62
256
370
-1
  6
BYLAYER
100
AcDbCircle
 10
-17.8556261370714822
 20
18.0
 30
0.0
 40
10.0
100
AcDbArc
 50
89.9999999999999858
 51
164.9999999999999716
  0
LINE
  5
108
100
AcDbEntity
100
AcDbLine
  8
1
 62
256
370
-1
  6
BYLAYER
 10
-62.0
 20
99.0
 30
0.0
 11
-48.0
 21
99.0
 31
0.0
  0
LINE
  5
109
100
AcDbEntity
100
AcDbLine
  8
1
 62
256
370
-1
  6
BYLAYER
 10
-48.0
 20
99.0
 30
0.0
 11
-48.0
 21
107.0
 31
0.0
  0
LINE
  5
10A
100
AcDbEntity
100
AcDbLine
  8
1
 62
256
370
-1
  6
BYLAYER
 10
-48.0
 20
107.0
 30
0.0
 11
-62.0
 21
107.0
 31
0.0
  0
LINE
  5
10B
100
AcDbEntity
100
AcDbLine
  8
1
 62
256
370
-1
  6
BYLAYER
 10
-62.0
 20
107.0
 30
0.0
 11
-62.0
 21
99.0
 31
0.0
  0
LINE
  5
10C
100
AcDbEntity
100
AcDbLine
  8
3
 62
256
370
-1
  6
BYLAYER
 10
39.6833750108829832
 20
48.1654314947365378
 30
0.0
 11
38.8776041148079941
 21
50.3792688369562853
 31
0.0
  0
LINE
  5
10D
100
AcDbEntity
100
AcDbLine
  8
3
 62
256
370
-1
  6
BYLAYER
 10
19.6519126531343318
 20
59.3443559988598892
 30
0.0
 11
2.3941410032796817
 21
53.0630408085496583
 31
0.0
  0
ARC
  5
10E
100
AcDbEntity
  8
3
 62
256
370
-1
  6
BYLAYER
100
AcDbCircle
 10
24.7822148030193752
 20
45.2489666870712526
 30
0.0
 40
15.0
100
AcDbArc
 50
20.000000000000032
 51
110.0000000000000284
  0
LINE
  5
10F
100
AcDbEntity
100
AcDbLine
  8
3
 62
256
370
-1
  6
BYLAYER
 10
42.6298317054619673
 20
45.192533861846222
 30
0.0
 11
58.2508101138573906
 21
39.3484031897419726
 31
0.0
  0
LINE
  5
110
100
AcDbEntity
100
AcDbLine
  8
3
 62
256
370
-1
  6
BYLAYER
 10
64.7417332215189987
 20
30.300613699773173
 30
0.0
 11
65.825113238589978
 21
-3.7285143210014766
 31
0.0
  0
LINE
  5
111
100
AcDbEntity
100
AcDbLine
  8
3
 62
256
370
-1
  6
BYLAYER
 10
59.1860808876056552
 20
-13.4668017416585712
 30
0.0
 11
53.8659975402876796
 21
-15.3620814341405971
 31
0.0
  0
LINE
  5
112
100
AcDbEntity
100
AcDbLine
  8
3
 62
256
370
-1
  6
BYLAYER
 10
41.6740524974739586
 20
-10.6243479830733065
 30
0.0
 11
38.1082221085347754
 21
-3.8952809587848396
 31
0.0
  0
LINE
  5
113
100
AcDbEntity
100
AcDbLine
  8
3
 62
256
370
-1
  6
BYLAYER
 10
37.6347551911006448
 20
-2.8643796150876866
 30
0.0
 11
28.0139240350256458
 21
21.6643201442513238
 31
0.0
  0
ARC
  5
114
100
AcDbEntity
  8
3
 62
256
370
-1
  6
BYLAYER
100
AcDbCircle
 10
44.3818381148125312
 20
49.8755322113648845
 30
0.0
 40
5.0
100
AcDbArc
 50
199.9999999999999716
 51
249.4881387353991897
  0
ARC
  5
115
100
AcDbEntity
  8
3
 62
256
370
-1
  6
BYLAYER
100
AcDbCircle
 10
54.7467972951562558
 20
29.9824064907046477
 30
0.0
 40
10.0
100
AcDbArc
 50
1.8235008308355469
 51
69.4881387353991613
  0
ARC
  5
116
100
AcDbEntity
  8
3
 62
256
370
-1
  6
BYLAYER
100
AcDbCircle
 10
55.8301773122272351
 20
-4.0467215300700126
 30
0.0
 40
10.0
100
AcDbArc
 50
289.6084412718902854
 51
1.8235008308357468
  0
ARC
  5
117
100
AcDbEntity
  8
3
 62
256
370
-1
  6
BYLAYER
100
AcDbCircle
 10
50.5100939649092595
 20
-5.9420012225520402
 30
0.0
 40
10.0
100
AcDbArc
 50
207.9197664281085736
 51
289.6084412718902854
  0
ARC
  5
118
100
AcDbEntity
  8
3
 62
256
370
-1
  6
BYLAYER
100
AcDbCircle
 10
46.9442635759700835
 20
0.7870658017364334
 30
0.0
 40
10.0
100
AcDbArc
 50
201.4164783145630793
 51
207.9197664281085736
  0
LINE
  5
119
100
AcDbEntity
100
AcDbLine
  8
3
 62
256
370
-1
  6
BYLAYER
 10
22.0
 20
31.0
 30
0.0
 11
22.0
 21
31.0
 31
0.0
  0
LINE
  5
11A
100
AcDbEntity
100
AcDbLine
  8
3
 62
256
370
-1
  6
BYLAYER
 10
-39.6833750108829761
 20
48.1654314947365521
 30
0.0
 11
-38.8776041148080012
 21
50.3792688369562711
 31
0.0
  0
LINE
  5
11B
100
AcDbEntity
100
AcDbLine
  8
3
 62
256
370
-1
  6
BYLAYER
 10
-19.6519126531343318
 20
59.3443559988598821
 30
0.0
 11
-2.3941410032796817
 21
53.0630408085496583
 31
0.0
  0
ARC
  5
11C
100
AcDbEntity
  8
3
 62
256
370
-1
  6
BYLAYER
100
AcDbCircle
 10
-24.7822148030193716
 20
45.2489666870712526
 30
0.0
 40
15.0
100
AcDbArc
 50
69.9999999999999716
 51
159.9999999999999716
  0
LINE
  5
11D
100
AcDbEntity
100
AcDbLine
  8
3
 62
256
370
-1
  6
BYLAYER
 10
-42.6298317054619673
 20
45.1925338618462291
 30
0.0
 11
-58.2508101138573906
 21
39.3484031897419513
 31
0.0
  0
LINE
  5
11E
100
AcDbEntity
100
AcDbLine
  8
3
 62
256
370
-1
  6
BYLAYER
 10
-64.7417332215189987
 20
30.3006136997730415
 30
0.0
 11
-65.825113238589978
 21
-3.7285143210014766
 31
0.0
  0
LINE
  5
11F
100
AcDbEntity
100
AcDbLine
  8
3
 62
256
370
-1
  6
BYLAYER
 10
-59.1860808876056481
 20
-13.4668017416585855
 30
0.0
 11
-53.8659975402876796
 21
-15.362081434140606
 31
0.0
  0
LINE
  5
120
100
AcDbEntity
100
AcDbLine
  8
3
 62
256
370
-1
  6
BYLAYER
 10
-41.6740524974739373
 20
-10.6243479830733278
 30
0.0
 11
-38.1082221085347754
 21
-3.8952809587848449
 31
0.0
  0
LINE
  5
121
100
AcDbEntity
100
AcDbLine
  8
3
 62
256
370
-1
  6
BYLAYER
 10
-37.6347551911006377
 20
-2.8643796150876994
 30
0.0
 11
-28.013924035025628
 21
21.6643201442513558
 31
0.0
  0
ARC
  5
122
100
AcDbEntity
  8
3
 62
256
370
-1
  6
BYLAYER
100
AcDbCircle
 10
-44.3818381148125312
 20
49.8755322113648987
 30
0.0
 40
5.0
100
AcDbArc
 50
290.5118612646007819
 51
340.0000000000000568
  0
ARC
  5
123
100
AcDbEntity
  8
3
 62
256
370
-1
  6
BYLAYER
100
AcDbCircle
 10
-54.7467972951562558
 20
29.9824064907065804
 30
0.0
 40
10.0
100
AcDbArc
 50
110.5118612646008387
 51
178.1764991691644582
  0
ARC
  5
124
100
AcDbEntity
  8
3
 62
256
370
-1
  6
BYLAYER
100
AcDbCircle
 10
-55.8301773122272209
 20
-4.0467215300700445
 30
0.0
 40
10.0
100
AcDbArc
 50
178.1764991691642308
 51
250.391558728109743
  0
ARC
  5
125
100
AcDbEntity
  8
3
 62
256
370
-1
  6
BYLAYER
100
AcDbCircle
 10
-50.5100939649092595
 20
-5.9420012225520367
 30
0.0
 40
10.0
100
AcDbArc
 50
250.391558728109743
 51
332.0802335718914264
  0
ARC
  5
126
100
AcDbEntity
  8
3
 62
256
370
-1
  6
BYLAYER
100
AcDbCircle
 10
-46.9442635759700835
 20
0.787065801736432
 30
0.0
 40
10.0
100
AcDbArc
 50
332.0802335718914264
 51
338.583521685437006
  0
LINE
  5
127
100
AcDbEntity
100
AcDbLine
  8
3
 62
256
370
-1
  6
BYLAYER
 10
-6.7172498225570765
 20
36.635710917839539
 30
0.0
 11
-20.7669112802785492
 21
29.5990331257562218
 31
0.0
  0
LINE
  5
128
100
AcDbEntity
100
AcDbLine
  8
3
 62
256
370
-1
  6
BYLAYER
 10
-22.0
 20
30.9999999999999538
 30
0.0
 11
-22.0
 21
30.9999999999999538
 31
0.0
  0
ARC
  5
129
100
AcDbEntity
  8
3
 62
256
370
-1
  6
BYLAYER
100
AcDbCircle
 10
-0.0
 20
59.6408891540510169
 30
0.0
 40
7.0
100
AcDbArc
 50
250.0
 51
289.9999999999999432
  0
LINE
  5
12A
100
AcDbEntity
100
AcDbLine
  8
3
 62
256
370
-1
  6
BYLAYER
 10
6.71724982255708
 20
36.6357109178395248
 30
0.0
 11
20.7669112802785918
 21
29.5990331257561685
 31
0.0
  0
ARC
  5
12B
100
AcDbEntity
  8
3
 62
256
370
-1
  6
BYLAYER
100
AcDbCircle
 10
-14.0496614577214842
 20
16.1871520190151905
 30
0.0
 40
15.0
100
AcDbArc
 50
116.6036888481683889
 51
158.5835216854369492
  0
ARC
  5
12C
100
AcDbEntity
  8
3
 62
256
370
-1
  6
BYLAYER
100
AcDbCircle
 10
14.0496614577215073
 20
16.1871520190151479
 30
0.0
 40
15.0
100
AcDbArc
 50
21.4164783145630899
 51
63.396311151831533
  0
ARC
  5
12D
100
AcDbEntity
  8
3
 62
256
370
-1
  6
BYLAYER
100
AcDbCircle
 10
-0.0000000000000084
 20
23.2238298110985042
 30
0.0
 40
15.0
100
AcDbArc
 50
63.396311151831533
 51
116.6036888481683889
  0
ENDSEC
  0
SECTION
  2
OBJECTS
  0
DICTIONARY
  5
C
100
AcDbDictionary
280
0
281
1
  3
ACAD_GROUP
350
D
  3
ACAD_LAYOUT
350
1A
  3
ACAD_MLINESTYLE
350
17
  3
ACAD_PLOTSETTINGS
350
19
  3
ACAD_PLOTSTYLENAME
350
E
  3
AcDbVariableDictionary
350
12E
  3
QCAD_OBJECTS
350
12F
  0
DICTIONARY
  5
D
100
AcDbDictionary
280
0
281
1
  0
ACDBDICTIONARYWDFLT
  5
E
100
AcDbDictionary
281
1
  3
Normal
350
F
100
AcDbDictionaryWithDefault
340
F
  0
ACDBPLACEHOLDER
  5
F
  0
DICTIONARY
  5
17
100
AcDbDictionary
280
0
281
1
  3
Standard
350
18
  0
MLINESTYLE
  5
18
100
AcDbMlineStyle
  2
STANDARD
 70
0
  3

 62
256
 51
90.0
 52
90.0
 71
2
 49
0.5
 62
256
  6
BYLAYER
 49
-0.5
 62
256
  6
BYLAYER
  0
DICTIONARY
  5
19
100
AcDbDictionary
280
0
281
1
  0
DICTIONARY
  5
1A
100
AcDbDictionary
281
1
  3
Layout1
350
1E
  3
Layout2
350
26
  3
Model
350
22
  0
LAYOUT
  5
1E
100
AcDbPlotSettings
  1

  2
none_device
  4

  6

 40
0.0
 41
0.0
 42
0.0
 43
0.0
 44
0.0
 45
0.0
 46
0.0
 47
0.0
 48
0.0
 49
0.0
140
0.0
141
0.0
142
1.0
143
1.0
 70
688
 72
0
 73
0
 74
5
  7

 75
16
147
1.0
148
0.0
149
0.0
100
AcDbLayout
  1
Layout1
 70
1
 71
1
 10
0.0
 20
0.0
 11
420.0
 21
297.0
 12
0.0
 22
0.0
 32
0.0
 14
100000000000000000000.0
 24
100000000000000000000.0
 34
100000000000000000000.0
 15
-100000000000000000000.0
 25
-100000000000000000000.0
 35
-100000000000000000000.0
146
0.0
 13
0.0
 23
0.0
 33
0.0
 16
1.0
 26
0.0
 36
0.0
 17
0.0
 27
1.0
 37
0.0
 76
0
330
1B
  0
LAYOUT
  5
22
100
AcDbPlotSettings
  1

  2
none_device
  4

  6

 40
0.0
 41
0.0
 42
0.0
 43
0.0
 44
0.0
 45
0.0
 46
0.0
 47
0.0
 48
0.0
 49
0.0
140
0.0
141
0.0
142
1.0
143
1.0
 70
1712
 72
0
 73
0
 74
0
  7

 75
0
147
1.0
148
0.0
149
0.0
100
AcDbLayout
  1
Model
 70
1
 71
0
 10
0.0
 20
0.0
 11
12.0
 21
9.0
 12
0.0
 22
0.0
 32
0.0
 14
0.0
 24
0.0
 34
0.0
 15
0.0
 25
0.0
 35
0.0
146
0.0
 13
0.0
 23
0.0
 33
0.0
 16
1.0
 26
0.0
 36
0.0
 17
0.0
 27
1.0
 37
0.0
 76
0
330
1F
  0
LAYOUT
  5
26
100
AcDbPlotSettings
  1

  2
none_device
  4

  6

 40
0.0
 41
0.0
 42
0.0
 43
0.0
 44
0.0
 45
0.0
 46
0.0
 47
0.0
 48
0.0
 49
0.0
140
0.0
141
0.0
142
1.0
143
1.0
 70
688
 72
0
 73
0
 74
5
  7

 75
16
147
1.0
148
0.0
149
0.0
100
AcDbLayout
  1
Layout2
 70
1
 71
2
 10
0.0
 20
0.0
 11
12.0
 21
9.0
 12
0.0
 22
0.0
 32
0.0
 14
0.0
 24
0.0
 34
0.0
 15
0.0
 25
0.0
 35
0.0
146
0.0
 13
0.0
 23
0.0
 33
0.0
 16
1.0
 26
0.0
 36
0.0
 17
0.0
 27
1.0
 37
0.0
 76
0
330
23
  0
DICTIONARY
  5
12E
100
AcDbDictionary
281
1
  3
DIMASSOC
350
131
  3
HIDETEXT
350
130
  0
DICTIONARYVAR
  5
130
100
DictionaryVariables
280
0
  1
2
  0
DICTIONARYVAR
  5
131
100
DictionaryVariables
280
0
  1
1
  0
DICTIONARY
  5
12F
100
AcDbDictionary
281
1
  3
Grid/DisplayGrid00
350
132
  3
Grid/DisplayGrid01
350
133
  3
Grid/DisplayGrid02
350
134
  3
Grid/DisplayGrid03
350
135
  3
Grid/GridSpacingX00
350
136
  3
Grid/GridSpacingX01
350
137
  3
Grid/GridSpacingX02
350
138
  3
Grid/GridSpacingX03
350
139
  3
Grid/GridSpacingY00
350
13A
  3
Grid/GridSpacingY01
350
13B
  3
Grid/GridSpacingY02
350
13C
  3
Grid/GridSpacingY03
350
13D
  3
Grid/IsometricGrid00
350
13E
  3
Grid/IsometricGrid01
350
13F
  3
Grid/IsometricGrid02
350
140
  3
Grid/IsometricGrid03
350
141
  3
Grid/IsometricProjection00
350
142
  3
Grid/IsometricProjection01
350
143
  3
Grid/IsometricProjection02
350
144
  3
Grid/IsometricProjection03
350
145
  3
Grid/MetaGridSpacingX00
350
146
  3
Grid/MetaGridSpacingX01
350
147
  3
Grid/MetaGridSpacingX02
350
148
  3
Grid/MetaGridSpacingX03
350
149
  3
Grid/MetaGridSpacingY00
350
14A
  3
Grid/MetaGridSpacingY01
350
14B
  3
Grid/MetaGridSpacingY02
350
14C
  3
Grid/MetaGridSpacingY03
350
14D
  3
MultiPageSettings/Columns
350
14E
  3
MultiPageSettings/GlueMarginsBottom
350
14F
  3
MultiPageSettings/GlueMarginsLeft
350
150
  3
MultiPageSettings/GlueMarginsRight
350
151
  3
MultiPageSettings/GlueMarginsTop
350
152
  3
MultiPageSettings/PrintCropMarks
350
153
  3
MultiPageSettings/Rows
350
154
  3
PageSettings/OffsetX
350
155
  3
PageSettings/OffsetY
350
156
  3
PageSettings/PageOrientation
350
157
  3
PageSettings/PaperHeight
350
158
  3
PageSettings/PaperWidth
350
159
  3
PageSettings/Scale
350
15A
  3
PageSettings/ShowPaperBorders
350
15B
  3
UnitSettings/PaperUnit
350
15C
  0
XRECORD
  5
132
330
12F
100
AcDbXrecord
280
1
290
1
  0
XRECORD
  5
133
330
12F
100
AcDbXrecord
280
1
290
1
  0
XRECORD
  5
134
330
12F
100
AcDbXrecord
280
1
290
1
  0
XRECORD
  5
135
330
12F
100
AcDbXrecord
280
1
290
1
  0
XRECORD
  5
136
330
12F
100
AcDbXrecord
280
1
1000
auto
  0
XRECORD
  5
137
330
12F
100
AcDbXrecord
280
1
1000
auto
  0
XRECORD
  5
138
330
12F
100
AcDbXrecord
280
1
1000
auto
  0
XRECORD
  5
139
330
12F
100
AcDbXrecord
280
1
1000
auto
  0
XRECORD
  5
13A
330
12F
100
AcDbXrecord
280
1
1000
auto
  0
XRECORD
  5
13B
330
12F
100
AcDbXrecord
280
1
1000
auto
  0
XRECORD
  5
13C
330
12F
100
AcDbXrecord
280
1
1000
auto
  0
XRECORD
  5
13D
330
12F
100
AcDbXrecord
280
1
1000
auto
  0
XRECORD
  5
13E
330
12F
100
AcDbXrecord
280
1
290
0
  0
XRECORD
  5
13F
330
12F
100
AcDbXrecord
280
1
290
0
  0
XRECORD
  5
140
330
12F
100
AcDbXrecord
280
1
290
0
  0
XRECORD
  5
141
330
12F
100
AcDbXrecord
280
1
290
0
  0
XRECORD
  5
142
330
12F
100
AcDbXrecord
280
1
 90
0
  0
XRECORD
  5
143
330
12F
100
AcDbXrecord
280
1
 90
0
  0
XRECORD
  5
144
330
12F
100
AcDbXrecord
280
1
 90
0
  0
XRECORD
  5
145
330
12F
100
AcDbXrecord
280
1
 90
0
  0
XRECORD
  5
146
330
12F
100
AcDbXrecord
280
1
1000
auto
  0
XRECORD
  5
147
330
12F
100
AcDbXrecord
280
1
1000
auto
  0
XRECORD
  5
148
330
12F
100
AcDbXrecord
280
1
1000
auto
  0
XRECORD
  5
149
330
12F
100
AcDbXrecord
280
1
1000
auto
  0
XRECORD
  5
14A
330
12F
100
AcDbXrecord
280
1
1000
auto
  0
XRECORD
  5
14B
330
12F
100
AcDbXrecord
280
1
1000
auto
  0
XRECORD
  5
14C
330
12F
100
AcDbXrecord
280
1
1000
auto
  0
XRECORD
  5
14D
330
12F
100
AcDbXrecord
280
1
1000
auto
  0
XRECORD
  5
14E
330
12F
100
AcDbXrecord
280
1
 90
1
  0
XRECORD
  5
14F
330
12F
100
AcDbXrecord
280
1
 40
10.0
  0
XRECORD
  5
150
330
12F
100
AcDbXrecord
280
1
 40
10.0
  0
XRECORD
  5
151
330
12F
100
AcDbXrecord
280
1
 40
10.0
  0
XRECORD
  5
152
330
12F
100
AcDbXrecord
280
1
 40
10.0
  0
XRECORD
  5
153
330
12F
100
AcDbXrecord
280
1
290
0
  0
XRECORD
  5
154
330
12F
100
AcDbXrecord
280
1
 90
1
  0
XRECORD
  5
155
330
12F
100
AcDbXrecord
280
1
 40
-112.8094392991902595
  0
XRECORD
  5
156
330
12F
100
AcDbXrecord
280
1
 40
-49.6606770827957078
  0
XRECORD
  5
157
330
12F
100
AcDbXrecord
280
1
1000
Portrait
  0
XRECORD
  5
158
330
12F
100
AcDbXrecord
280
1
 40
279.3999999999999773
  0
XRECORD
  5
159
330
12F
100
AcDbXrecord
280
1
 40
215.9000000000000057
  0
XRECORD
  5
15A
330
12F
100
AcDbXrecord
280
1
1000
1:1
  0
XRECORD
  5
15B
330
12F
100
AcDbXrecord
280
1
290
1
  0
XRECORD
  5
15C
330
12F
100
AcDbXrecord
280
1
 90
4
  0
ENDSEC
  0
EOF
