999
dxflib 3.17.0.0
  0
SECTION
  2
HEADER
  9
$ACADVER
  1
AC1015
  9
$HANDSEED
  5
FFFF
  9
$DIMADEC
 70
0
  9
$DIMASZ
 40
1.0
  9
$DIMAUNIT
 70
0
  9
$DIMAZIN
 70
2
  9
$DIMDEC
 70
4
  9
$DIMDLI
 40
2.0
  9
$DIMDSEP
 70
46
  9
$DIMEXE
 40
0.5
  9
$DIMEXO
 40
0.25
  9
$DIMGAP
 40
0.25
  9
$DIMLUNIT
 70
5
  9
$DIMSCALE
 40
1.0
  9
$DIMTSZ
 40
0.0
  9
$DIMTXT
 40
1.0
  9
$DIMZIN
 70
8
  9
$DWGCODEPAGE
  3
ANSI_1252
  9
$INSUNITS
 70
1
  9
$LTSCALE
 40
1.0
  9
$MAXACTVP
 70
64
  9
$MEASUREMENT
 70
1
  9
$MIRRTEXT
 70
0
  9
$PDMODE
 70
0
  9
$PDSIZE
 40
0.0
  0
ENDSEC
  0
SECTION
  2
TABLES
  0
TABLE
  2
VPORT
  5
8
100
AcDbSymbolTable
 70
1
  0
VPORT
  5
30
100
AcDbSymbolTableRecord
100
AcDbViewportTableRecord
  2
*Active
 70
0
 10
0.0
 20
0.0
 11
1.0
 21
1.0
 12
286.3055555555554861
 22
148.5
 13
0.0
 23
0.0
 14
10.0
 24
10.0
 15
10.0
 25
10.0
 16
0.0
 26
0.0
 36
1.0
 17
0.0
 27
0.0
 37
0.0
 40
297.0
 41
1.92798353909465
 42
50.0
 43
0.0
 44
0.0
 50
0.0
 51
0.0
 71
0
 72
100
 73
1
 74
3
 75
1
 76
1
 77
0
 78
0
281
0
 65
1
110
0.0
120
0.0
130
0.0
111
1.0
121
0.0
131
0.0
112
0.0
122
1.0
132
0.0
 79
0
146
0.0
  0
ENDTAB
  0
TABLE
  2
LTYPE
  5
5
100
AcDbSymbolTable
 70
41
  0
LTYPE
  5
16
100
AcDbSymbolTableRecord
100
AcDbLinetypeTableRecord
  2
Continuous
 70
0
  3
Solid line
 72
65
 73
0
 40
0.0
  0
LTYPE
  5
15
100
AcDbSymbolTableRecord
100
AcDbLinetypeTableRecord
  2
BYLAYER
 70
0
  3

 72
65
 73
0
 40
0.0
  0
LTYPE
  5
31
100
AcDbSymbolTableRecord
100
AcDbLinetypeTableRecord
  2
ACAD_ISO13W100
 70
0
  3
ISO double-dash double-dot __ __ . . __ __ . . _
 72
65
 73
8
 40
36.0000000000000071
 49
12.0
 74
0
 49
-3.0
 74
0
 49
12.0
 74
0
 49
-2.9500000000000002
 74
0
 49
0.1
 74
0
 49
-2.9000000000000004
 74
0
 49
0.1
 74
0
 49
-2.9500000000000002
 74
0
  0
LTYPE
  5
32
100
AcDbSymbolTableRecord
100
AcDbLinetypeTableRecord
  2
DASHED2
 70
0
  3
Dashed (.5x) _ _ _ _ _ _ _ _ _ _ _ _ _ _ _ _ _ 
 72
65
 73
2
 40
0.375
 49
0.25
 74
0
 49
-0.125
 74
0
  0
LTYPE
  5
33
100
AcDbSymbolTableRecord
100
AcDbLinetypeTableRecord
  2
PHANTOMX2
 70
0
  3
Phantom (2x) ____________    ____    ____   _
 72
65
 73
6
 40
5.0
 49
2.5
 74
0
 49
-0.5
 74
0
 49
0.5
 74
0
 49
-0.5
 74
0
 49
0.5
 74
0
 49
-0.5
 74
0
  0
LTYPE
  5
34
100
AcDbSymbolTableRecord
100
AcDbLinetypeTableRecord
  2
DOT
 70
0
  3
Dot . . . . . . . . . . . . . . . . . . . . . . . .
 72
65
 73
2
 40
0.25
 49
0.1
 74
0
 49
-0.15
 74
0
  0
LTYPE
  5
35
100
AcDbSymbolTableRecord
100
AcDbLinetypeTableRecord
  2
ACAD_ISO15W100
 70
0
  3
ISO double-dash triple-dot __ __ . . . __ __ . .
 72
65
 73
10
 40
39.0000000000000071
 49
12.0
 74
0
 49
-3.0
 74
0
 49
12.0
 74
0
 49
-2.9500000000000002
 74
0
 49
0.1
 74
0
 49
-2.9000000000000004
 74
0
 49
0.1
 74
0
 49
-2.9000000000000004
 74
0
 49
0.1
 74
0
 49
-2.9500000000000002
 74
0
  0
LTYPE
  5
36
100
AcDbSymbolTableRecord
100
AcDbLinetypeTableRecord
  2
DIVIDE2
 70
0
  3
Divide (.5x) __..__..__..__..__..__..__..__.._
 72
65
 73
6
 40
0.625
 49
0.25
 74
0
 49
-0.075
 74
0
 49
0.1
 74
0
 49
-0.025
 74
0
 49
0.1
 74
0
 49
-0.075
 74
0
  0
LTYPE
  5
37
100
AcDbSymbolTableRecord
100
AcDbLinetypeTableRecord
  2
PHANTOM2
 70
0
  3
Phantom (.5x) ___ _ _ ___ _ _ ___ _ _ ___ _ _
 72
65
 73
6
 40
1.25
 49
0.625
 74
0
 49
-0.125
 74
0
 49
0.125
 74
0
 49
-0.125
 74
0
 49
0.125
 74
0
 49
-0.125
 74
0
  0
LTYPE
  5
38
100
AcDbSymbolTableRecord
100
AcDbLinetypeTableRecord
  2
DOTX2
 70
0
  3
Dot (2x) .  .  .  .  .  .  .  .  .  .  .  .  .  .
 72
65
 73
2
 40
0.5
 49
0.1
 74
0
 49
-0.4
 74
0
  0
LTYPE
  5
39
100
AcDbSymbolTableRecord
100
AcDbLinetypeTableRecord
  2
DASHDOT
 70
0
  3
Dash dot __ . __ . __ . __ . __ . __ . __ . __
 72
65
 73
4
 40
1.0
 49
0.5
 74
0
 49
-0.2
 74
0
 49
0.1
 74
0
 49
-0.2
 74
0
  0
LTYPE
  5
3A
100
AcDbSymbolTableRecord
100
AcDbLinetypeTableRecord
  2
ACAD_ISO05W100
 70
0
  3
ISO long-dash double-dot ____ .. ____ .. ____ . 
 72
65
 73
6
 40
33.0000000000000071
 49
24.0
 74
0
 49
-2.9500000000000002
 74
0
 49
0.1
 74
0
 49
-2.9000000000000004
 74
0
 49
0.1
 74
0
 49
-2.9500000000000002
 74
0
  0
LTYPE
  5
3B
100
AcDbSymbolTableRecord
100
AcDbLinetypeTableRecord
  2
DASHEDX2
 70
0
  3
Dashed (2x) ____  ____  ____  ____  ____  ___
 72
65
 73
2
 40
1.5
 49
1.0
 74
0
 49
-0.5
 74
0
  0
LTYPE
  5
3C
100
AcDbSymbolTableRecord
100
AcDbLinetypeTableRecord
  2
BORDERX2
 70
0
  3
Border (2x) ____  ____  .  ____  ____  .  ___
 72
65
 73
6
 40
3.5000000000000004
 49
1.0
 74
0
 49
-0.5
 74
0
 49
1.0
 74
0
 49
-0.45
 74
0
 49
0.1
 74
0
 49
-0.45
 74
0
  0
LTYPE
  5
3D
100
AcDbSymbolTableRecord
100
AcDbLinetypeTableRecord
  2
HIDDENX2
 70
0
  3
Hidden (2x) ____ ____ ____ ____ ____ ____ ____ 
 72
65
 73
2
 40
0.75
 49
0.5
 74
0
 49
-0.25
 74
0
  0
LTYPE
  5
3E
100
AcDbSymbolTableRecord
100
AcDbLinetypeTableRecord
  2
ACAD_ISO09W100
 70
0
  3
ISO long-dash double-short-dash ____ __ __ ____
 72
65
 73
6
 40
45.0
 49
24.0
 74
0
 49
-3.0
 74
0
 49
6.0
 74
0
 49
-3.0
 74
0
 49
6.0
 74
0
 49
-3.0
 74
0
  0
LTYPE
  5
3F
100
AcDbSymbolTableRecord
100
AcDbLinetypeTableRecord
  2
DOT2
 70
0
  3
Dot (.5x) ........................................
 72
65
 73
2
 40
0.125
 49
0.1
 74
0
 49
-0.025
 74
0
  0
LTYPE
  5
40
100
AcDbSymbolTableRecord
100
AcDbLinetypeTableRecord
  2
CENTER2
 70
0
  3
Center (.5x) ___ _ ___ _ ___ _ ___ _ ___ _ ___
 72
65
 73
4
 40
1.125
 49
0.75
 74
0
 49
-0.125
 74
0
 49
0.125
 74
0
 49
-0.125
 74
0
  0
LTYPE
  5
41
100
AcDbSymbolTableRecord
100
AcDbLinetypeTableRecord
  2
CENTERX2
 70
0
  3
Center (2x) ________  __  ________  __  _____
 72
65
 73
4
 40
4.0
 49
2.5
 74
0
 49
-0.5
 74
0
 49
0.5
 74
0
 49
-0.5
 74
0
  0
LTYPE
  5
42
100
AcDbSymbolTableRecord
100
AcDbLinetypeTableRecord
  2
DIVIDE
 70
0
  3
Divide ____ . . ____ . . ____ . . ____ . . ____
 72
65
 73
6
 40
1.25
 49
0.5
 74
0
 49
-0.2
 74
0
 49
0.1
 74
0
 49
-0.15
 74
0
 49
0.1
 74
0
 49
-0.2
 74
0
  0
LTYPE
  5
43
100
AcDbSymbolTableRecord
100
AcDbLinetypeTableRecord
  2
ACAD_ISO08W100
 70
0
  3
ISO long-dash short-dash ____ __ ____ __ ____ _
 72
65
 73
4
 40
36.0
 49
24.0
 74
0
 49
-3.0
 74
0
 49
6.0
 74
0
 49
-3.0
 74
0
  0
LTYPE
  5
44
100
AcDbSymbolTableRecord
100
AcDbLinetypeTableRecord
  2
ACAD_ISO03W100
 70
0
  3
ISO dash space __    __    __    __    __    __
 72
65
 73
2
 40
30.0
 49
12.0
 74
0
 49
-18.0
 74
0
  0
LTYPE
  5
45
100
AcDbSymbolTableRecord
100
AcDbLinetypeTableRecord
  2
ACAD_ISO12W100
 70
0
  3
ISO dash double-dot __ . . __ . . __ . . __ . . 
 72
65
 73
6
 40
21.0
 49
12.0
 74
0
 49
-2.9500000000000002
 74
0
 49
0.1
 74
0
 49
-2.9000000000000004
 74
0
 49
0.1
 74
0
 49
-2.9500000000000002
 74
0
  0
LTYPE
  5
46
100
AcDbSymbolTableRecord
100
AcDbLinetypeTableRecord
  2
ACAD_ISO02W100
 70
0
  3
ISO dash __ __ __ __ __ __ __ __ __ __ __ __ __
 72
65
 73
2
 40
15.0
 49
12.0
 74
0
 49
-3.0
 74
0
  0
LTYPE
  5
47
100
AcDbSymbolTableRecord
100
AcDbLinetypeTableRecord
  2
ACAD_ISO10W100
 70
0
  3
ISO dash dot __ . __ . __ . __ . __ . __ . __ . 
 72
65
 73
4
 40
18.0
 49
12.0
 74
0
 49
-2.9500000000000002
 74
0
 49
0.1
 74
0
 49
-2.9500000000000002
 74
0
  0
LTYPE
  5
48
100
AcDbSymbolTableRecord
100
AcDbLinetypeTableRecord
  2
ACAD_ISO11W100
 70
0
  3
ISO double-dash dot __ __ . __ __ . __ __ . __ _
 72
65
 73
6
 40
33.0
 49
12.0
 74
0
 49
-3.0
 74
0
 49
12.0
 74
0
 49
-2.9500000000000002
 74
0
 49
0.1
 74
0
 49
-2.9500000000000002
 74
0
  0
LTYPE
  5
49
100
AcDbSymbolTableRecord
100
AcDbLinetypeTableRecord
  2
ACAD_ISO14W100
 70
0
  3
ISO dash triple-dot __ . . . __ . . . __ . . . _
 72
65
 73
8
 40
24.0000000000000036
 49
12.0
 74
0
 49
-2.9500000000000002
 74
0
 49
0.1
 74
0
 49
-2.9000000000000004
 74
0
 49
0.1
 74
0
 49
-2.9000000000000004
 74
0
 49
0.1
 74
0
 49
-2.9500000000000002
 74
0
  0
LTYPE
  5
4A
100
AcDbSymbolTableRecord
100
AcDbLinetypeTableRecord
  2
DASHDOTX2
 70
0
  3
Dash dot (2x) ____  .  ____  .  ____  .  ___
 72
65
 73
4
 40
2.0
 49
1.0
 74
0
 49
-0.45
 74
0
 49
0.1
 74
0
 49
-0.45
 74
0
  0
LTYPE
  5
4B
100
AcDbSymbolTableRecord
100
AcDbLinetypeTableRecord
  2
ACAD_ISO07W100
 70
0
  3
ISO dot . . . . . . . . . . . . . . . . . . . . 
 72
65
 73
2
 40
3.0
 49
0.1
 74
0
 49
-2.8999999999999999
 74
0
  0
LTYPE
  5
4C
100
AcDbSymbolTableRecord
100
AcDbLinetypeTableRecord
  2
CENTER
 70
0
  3
Center ____ _ ____ _ ____ _ ____ _ ____ _ ____
 72
65
 73
4
 40
2.0
 49
1.25
 74
0
 49
-0.25
 74
0
 49
0.25
 74
0
 49
-0.25
 74
0
  0
LTYPE
  5
4D
100
AcDbSymbolTableRecord
100
AcDbLinetypeTableRecord
  2
ACAD_ISO06W100
 70
0
  3
ISO long-dash triple-dot ____ ... ____ ... ____
 72
65
 73
8
 40
36.0000000000000071
 49
24.0
 74
0
 49
-2.9500000000000002
 74
0
 49
0.1
 74
0
 49
-2.9000000000000004
 74
0
 49
0.1
 74
0
 49
-2.9000000000000004
 74
0
 49
0.1
 74
0
 49
-2.9500000000000002
 74
0
  0
LTYPE
  5
14
100
AcDbSymbolTableRecord
100
AcDbLinetypeTableRecord
  2
BYBLOCK
 70
0
  3

 72
65
 73
0
 40
0.0
  0
LTYPE
  5
4E
100
AcDbSymbolTableRecord
100
AcDbLinetypeTableRecord
  2
BORDER
 70
0
  3
Border __ __ . __ __ . __ __ . __ __ . __ __ .
 72
65
 73
6
 40
1.75
 49
0.5
 74
0
 49
-0.25
 74
0
 49
0.5
 74
0
 49
-0.2
 74
0
 49
0.1
 74
0
 49
-0.2
 74
0
  0
LTYPE
  5
4F
100
AcDbSymbolTableRecord
100
AcDbLinetypeTableRecord
  2
HIDDEN
 70
0
  3
Hidden __ __ __ __ __ __ __ __ __ __ __ __ __ __
 72
65
 73
2
 40
0.375
 49
0.25
 74
0
 49
-0.125
 74
0
  0
LTYPE
  5
50
100
AcDbSymbolTableRecord
100
AcDbLinetypeTableRecord
  2
HIDDEN2
 70
0
  3
Hidden (.5x) _ _ _ _ _ _ _ _ _ _ _ _ _ _ _ _ _ 
 72
65
 73
2
 40
0.1875
 49
0.125
 74
0
 49
-0.0625
 74
0
  0
LTYPE
  5
51
100
AcDbSymbolTableRecord
100
AcDbLinetypeTableRecord
  2
PHANTOM
 70
0
  3
Phantom ______  __  __  ______  __  __  ______ 
 72
65
 73
6
 40
2.5
 49
1.25
 74
0
 49
-0.25
 74
0
 49
0.25
 74
0
 49
-0.25
 74
0
 49
0.25
 74
0
 49
-0.25
 74
0
  0
LTYPE
  5
52
100
AcDbSymbolTableRecord
100
AcDbLinetypeTableRecord
  2
DASHDOT2
 70
0
  3
Dash dot (.5x) _._._._._._._._._._._._._._._.
 72
65
 73
4
 40
0.5
 49
0.25
 74
0
 49
-0.075
 74
0
 49
0.1
 74
0
 49
-0.075
 74
0
  0
LTYPE
  5
53
100
AcDbSymbolTableRecord
100
AcDbLinetypeTableRecord
  2
BORDER2
 70
0
  3
Border (.5x) __.__.__.__.__.__.__.__.__.__.__.
 72
65
 73
6
 40
0.8749999999999999
 49
0.25
 74
0
 49
-0.125
 74
0
 49
0.25
 74
0
 49
-0.075
 74
0
 49
0.1
 74
0
 49
-0.075
 74
0
  0
LTYPE
  5
54
100
AcDbSymbolTableRecord
100
AcDbLinetypeTableRecord
  2
ACAD_ISO04W100
 70
0
  3
ISO long-dash dot ____ . ____ . ____ . ____ . _
 72
65
 73
4
 40
30.0
 49
24.0
 74
0
 49
-2.9500000000000002
 74
0
 49
0.1
 74
0
 49
-2.9500000000000002
 74
0
  0
LTYPE
  5
55
100
AcDbSymbolTableRecord
100
AcDbLinetypeTableRecord
  2
DASHED
 70
0
  3
Dashed __ __ __ __ __ __ __ __ __ __ __ __ __ _
 72
65
 73
2
 40
0.75
 49
0.5
 74
0
 49
-0.25
 74
0
  0
LTYPE
  5
56
100
AcDbSymbolTableRecord
100
AcDbLinetypeTableRecord
  2
DIVIDEX2
 70
0
  3
Divide (2x) ________  .  .  ________  .  .  _
 72
65
 73
6
 40
2.5000000000000004
 49
1.0
 74
0
 49
-0.45
 74
0
 49
0.1
 74
0
 49
-0.4
 74
0
 49
0.1
 74
0
 49
-0.45
 74
0
  0
ENDTAB
  0
TABLE
  2
LAYER
  5
2
100
AcDbSymbolTable
 70
1
  0
LAYER
  5
10
100
AcDbSymbolTableRecord
100
AcDbLayerTableRecord
  2
0
 70
0
 62
7
420
0
  6
Continuous
370
25
390
F
  0
ENDTAB
  0
TABLE
  2
STYLE
  5
3
100
AcDbSymbolTable
 70
32
  0
STYLE
  5
57
100
AcDbSymbolTableRecord
100
AcDbTextStyleTableRecord
  2
Standard
 70
0
 40
0.0
 41
1.0
 50
0.0
 71
0
 42
2.5
  3

  4

1001
ACAD
1000
txt
1071
0
  0
STYLE
  5
58
100
AcDbSymbolTableRecord
100
AcDbTextStyleTableRecord
  2
textstyle0
 70
0
 40
0.0
 41
1.0
 50
0.0
 71
0
 42
1.0
  3

  4

1001
ACAD
1000
Helvetica
1071
0
  0
STYLE
  5
59
100
AcDbSymbolTableRecord
100
AcDbTextStyleTableRecord
  2
textstyle1
 70
0
 40
0.0
 41
1.0
 50
0.0
 71
0
 42
1.0
  3

  4

1001
ACAD
1000
Helvetica
1071
0
  0
STYLE
  5
5A
100
AcDbSymbolTableRecord
100
AcDbTextStyleTableRecord
  2
textstyle2
 70
0
 40
0.0
 41
1.0
 50
0.0
 71
0
 42
1.0
  3

  4

1001
ACAD
1000
Helvetica
1071
0
  0
STYLE
  5
5B
100
AcDbSymbolTableRecord
100
AcDbTextStyleTableRecord
  2
textstyle3
 70
0
 40
0.0
 41
1.0
 50
0.0
 71
0
 42
1.0
  3

  4

1001
ACAD
1000
Helvetica
1071
0
  0
STYLE
  5
5C
100
AcDbSymbolTableRecord
100
AcDbTextStyleTableRecord
  2
textstyle4
 70
0
 40
0.0
 41
1.0
 50
0.0
 71
0
 42
1.0
  3

  4

1001
ACAD
1000
Helvetica
1071
0
  0
STYLE
  5
5D
100
AcDbSymbolTableRecord
100
AcDbTextStyleTableRecord
  2
textstyle5
 70
0
 40
0.0
 41
1.0
 50
0.0
 71
0
 42
1.0
  3

  4

1001
ACAD
1000
Helvetica
1071
0
  0
STYLE
  5
5E
100
AcDbSymbolTableRecord
100
AcDbTextStyleTableRecord
  2
textstyle6
 70
0
 40
0.0
 41
1.0
 50
0.0
 71
0
 42
1.0
  3

  4

1001
ACAD
1000
Helvetica
1071
0
  0
STYLE
  5
5F
100
AcDbSymbolTableRecord
100
AcDbTextStyleTableRecord
  2
textstyle7
 70
0
 40
0.0
 41
1.0
 50
0.0
 71
0
 42
1.0
  3

  4

1001
ACAD
1000
Helvetica
1071
0
  0
STYLE
  5
60
100
AcDbSymbolTableRecord
100
AcDbTextStyleTableRecord
  2
textstyle8
 70
0
 40
0.0
 41
1.0
 50
0.0
 71
0
 42
1.0
  3

  4

1001
ACAD
1000
Helvetica
1071
0
  0
STYLE
  5
61
100
AcDbSymbolTableRecord
100
AcDbTextStyleTableRecord
  2
textstyle9
 70
0
 40
0.0
 41
1.0
 50
0.0
 71
0
 42
1.0
  3

  4

1001
ACAD
1000
Helvetica
1071
0
  0
STYLE
  5
62
100
AcDbSymbolTableRecord
100
AcDbTextStyleTableRecord
  2
textstyle10
 70
0
 40
0.0
 41
1.0
 50
0.0
 71
0
 42
1.0
  3

  4

1001
ACAD
1000
Helvetica
1071
0
  0
STYLE
  5
63
100
AcDbSymbolTableRecord
100
AcDbTextStyleTableRecord
  2
textstyle11
 70
0
 40
0.0
 41
1.0
 50
0.0
 71
0
 42
1.0
  3

  4

1001
ACAD
1000
Helvetica
1071
0
  0
STYLE
  5
64
100
AcDbSymbolTableRecord
100
AcDbTextStyleTableRecord
  2
textstyle12
 70
0
 40
0.0
 41
1.0
 50
0.0
 71
0
 42
1.0
  3

  4

1001
ACAD
1000
Helvetica
1071
0
  0
STYLE
  5
65
100
AcDbSymbolTableRecord
100
AcDbTextStyleTableRecord
  2
textstyle13
 70
0
 40
0.0
 41
1.0
 50
0.0
 71
0
 42
1.0
  3

  4

1001
ACAD
1000
Helvetica
1071
0
  0
STYLE
  5
66
100
AcDbSymbolTableRecord
100
AcDbTextStyleTableRecord
  2
textstyle14
 70
0
 40
0.0
 41
1.0
 50
0.0
 71
0
 42
1.0
  3

  4

1001
ACAD
1000
Helvetica
1071
0
  0
STYLE
  5
67
100
AcDbSymbolTableRecord
100
AcDbTextStyleTableRecord
  2
textstyle15
 70
0
 40
0.0
 41
1.0
 50
0.0
 71
0
 42
1.0
  3

  4

1001
ACAD
1000
Helvetica
1071
0
  0
STYLE
  5
68
100
AcDbSymbolTableRecord
100
AcDbTextStyleTableRecord
  2
textstyle16
 70
0
 40
0.0
 41
1.0
 50
0.0
 71
0
 42
1.0
  3

  4

1001
ACAD
1000
Helvetica
1071
0
  0
STYLE
  5
69
100
AcDbSymbolTableRecord
100
AcDbTextStyleTableRecord
  2
textstyle17
 70
0
 40
0.0
 41
1.0
 50
0.0
 71
0
 42
1.0
  3

  4

1001
ACAD
1000
Helvetica
1071
0
  0
STYLE
  5
6A
100
AcDbSymbolTableRecord
100
AcDbTextStyleTableRecord
  2
textstyle18
 70
0
 40
0.0
 41
1.0
 50
0.0
 71
0
 42
1.0
  3

  4

1001
ACAD
1000
Helvetica
1071
0
  0
STYLE
  5
6B
100
AcDbSymbolTableRecord
100
AcDbTextStyleTableRecord
  2
textstyle19
 70
0
 40
0.0
 41
1.0
 50
0.0
 71
0
 42
1.0
  3

  4

1001
ACAD
1000
Helvetica
1071
0
  0
STYLE
  5
6C
100
AcDbSymbolTableRecord
100
AcDbTextStyleTableRecord
  2
textstyle20
 70
0
 40
0.0
 41
1.0
 50
0.0
 71
0
 42
1.0
  3

  4

1001
ACAD
1000
Helvetica
1071
0
  0
STYLE
  5
6D
100
AcDbSymbolTableRecord
100
AcDbTextStyleTableRecord
  2
textstyle21
 70
0
 40
0.0
 41
1.0
 50
0.0
 71
0
 42
1.0
  3

  4

1001
ACAD
1000
Helvetica
1071
0
  0
STYLE
  5
6E
100
AcDbSymbolTableRecord
100
AcDbTextStyleTableRecord
  2
textstyle22
 70
0
 40
0.0
 41
1.0
 50
0.0
 71
0
 42
1.0
  3

  4

1001
ACAD
1000
Helvetica
1071
0
  0
STYLE
  5
6F
100
AcDbSymbolTableRecord
100
AcDbTextStyleTableRecord
  2
textstyle23
 70
0
 40
0.0
 41
1.0
 50
0.0
 71
0
 42
1.0
  3

  4

1001
ACAD
1000
Helvetica
1071
0
  0
STYLE
  5
70
100
AcDbSymbolTableRecord
100
AcDbTextStyleTableRecord
  2
textstyle24
 70
0
 40
0.0
 41
1.0
 50
0.0
 71
0
 42
1.0
  3

  4

1001
ACAD
1000
Helvetica
1071
0
  0
STYLE
  5
71
100
AcDbSymbolTableRecord
100
AcDbTextStyleTableRecord
  2
textstyle25
 70
0
 40
0.0
 41
1.0
 50
0.0
 71
0
 42
1.0
  3

  4

1001
ACAD
1000
Helvetica
1071
0
  0
STYLE
  5
72
100
AcDbSymbolTableRecord
100
AcDbTextStyleTableRecord
  2
textstyle26
 70
0
 40
0.0
 41
1.0
 50
0.0
 71
0
 42
1.0
  3

  4

1001
ACAD
1000
Helvetica
1071
0
  0
STYLE
  5
73
100
AcDbSymbolTableRecord
100
AcDbTextStyleTableRecord
  2
textstyle27
 70
0
 40
0.0
 41
1.0
 50
0.0
 71
0
 42
1.0
  3

  4

1001
ACAD
1000
Helvetica
1071
0
  0
STYLE
  5
74
100
AcDbSymbolTableRecord
100
AcDbTextStyleTableRecord
  2
textstyle28
 70
0
 40
0.0
 41
1.0
 50
0.0
 71
0
 42
1.0
  3

  4

1001
ACAD
1000
Helvetica
1071
0
  0
STYLE
  5
75
100
AcDbSymbolTableRecord
100
AcDbTextStyleTableRecord
  2
textstyle29
 70
0
 40
0.0
 41
1.0
 50
0.0
 71
0
 42
1.0
  3

  4

1001
ACAD
1000
Helvetica
1071
0
  0
STYLE
  5
76
100
AcDbSymbolTableRecord
100
AcDbTextStyleTableRecord
  2
textstyle30
 70
0
 40
0.0
 41
1.0
 50
0.0
 71
0
 42
1.0
  3

  4

1001
ACAD
1000
Helvetica
1071
0
  0
ENDTAB
  0
TABLE
  2
VIEW
  5
6
100
AcDbSymbolTable
 70
0
  0
ENDTAB
  0
TABLE
  2
UCS
  5
7
100
AcDbSymbolTable
 70
0
  0
ENDTAB
  0
TABLE
  2
APPID
  5
9
100
AcDbSymbolTable
 70
1
  0
APPID
  5
12
100
AcDbSymbolTableRecord
100
AcDbRegAppTableRecord
  2
ACAD
 70
0
  0
APPID
  5
77
100
AcDbSymbolTableRecord
100
AcDbRegAppTableRecord
  2
QCAD
 70
0
  0
ENDTAB
  0
TABLE
  2
DIMSTYLE
  5
A
100
AcDbSymbolTable
 70
1
100
AcDbDimStyleTable
 71
0
  0
DIMSTYLE
105
27
100
AcDbSymbolTableRecord
100
AcDbDimStyleTableRecord
  2
Standard
 41
1.0
 42
0.25
 43
3.75
 44
0.5
 70
0
 73
0
 74
0
 77
1
 78
8
140
1.0
141
2.5
143
0.03937007874016
147
0.25
171
3
172
1
271
2
272
2
274
3
278
44
283
0
284
8
340
57
  0
ENDTAB
  0
TABLE
  2
BLOCK_RECORD
  5
1
100
AcDbSymbolTable
 70
1
  0
BLOCK_RECORD
  5
1F
100
AcDbSymbolTableRecord
100
AcDbBlockTableRecord
  2
*Model_Space
340
22
  0
BLOCK_RECORD
  5
1B
100
AcDbSymbolTableRecord
100
AcDbBlockTableRecord
  2
*Paper_Space
340
1E
  0
BLOCK_RECORD
  5
23
100
AcDbSymbolTableRecord
100
AcDbBlockTableRecord
  2
*Paper_Space0
340
26
  0
ENDTAB
  0
ENDSEC
  0
SECTION
  2
BLOCKS
  0
BLOCK
  5
20
100
AcDbEntity
  8
0
100
AcDbBlockBegin
  2
*Model_Space
 70
0
 10
0.0
 20
0.0
 30
0.0
  3
*Model_Space
  1

  0
ENDBLK
  5
21
100
AcDbEntity
  8
0
100
AcDbBlockEnd
  0
BLOCK
  5
1C
100
AcDbEntity
 67
1
  8
0
100
AcDbBlockBegin
  2
*Paper_Space
 70
0
 10
0.0
 20
0.0
 30
0.0
  3
*Paper_Space
  1

  0
ENDBLK
  5
1D
100
AcDbEntity
 67
1
  8
0
100
AcDbBlockEnd
  0
BLOCK
  5
24
100
AcDbEntity
  8
0
100
AcDbBlockBegin
  2
*Paper_Space0
 70
0
 10
0.0
 20
0.0
 30
0.0
  3
*Paper_Space0
  1

  0
ENDBLK
  5
25
100
AcDbEntity
  8
0
100
AcDbBlockEnd
  0
ENDSEC
  0
SECTION
  2
ENTITIES
  0
LINE
  5
78
100
AcDbEntity
  8
0
 62
256
370
-1
 48
1.0
  6
BYLAYER
100
AcDbLine
 10
0.0000000000000021
 20
7.5
 30
0.0
 11
18.5000000000000036
 21
7.5
 31
0.0
  0
LINE
  5
79
100
AcDbEntity
  8
0
 62
256
370
-1
 48
1.0
  6
BYLAYER
100
AcDbLine
 10
18.5000000000000036
 20
7.5
 30
0.0
 11
18.5000000000000036
 21
33.5
 31
0.0
  0
LINE
  5
7A
100
AcDbEntity
  8
0
 62
256
370
-1
 48
1.0
  6
BYLAYER
100
AcDbLine
 10
19.2500000000000036
 20
33.5
 30
0.0
 11
0.0000000000000021
 21
33.5
 31
0.0
  0
LINE
  5
7B
100
AcDbEntity
  8
0
 62
256
370
-1
 48
1.0
  6
BYLAYER
100
AcDbLine
 10
0.0000000000000021
 20
33.5
 30
0.0
 11
0.0000000000000021
 21
5.5
 31
0.0
  0
LINE
  5
7C
100
AcDbEntity
  8
0
 62
256
370
-1
 48
1.0
  6
BYLAYER
100
AcDbLine
 10
16.5000000000000036
 20
7.5
 30
0.0
 11
16.5000000000000036
 21
33.5
 31
0.0
  0
LINE
  5
7D
100
AcDbEntity
  8
0
 62
256
370
-1
 48
1.0
  6
BYLAYER
100
AcDbLine
 10
2.0000000000000022
 20
33.5
 30
0.0
 11
2.0000000000000022
 21
7.5
 31
0.0
  0
LINE
  5
7E
100
AcDbEntity
  8
0
 62
256
370
-1
 48
1.0
  6
BYLAYER
100
AcDbLine
 10
16.5000000000000036
 20
31.5
 30
0.0
 11
2.0000000000000022
 21
31.5
 31
0.0
  0
LINE
  5
7F
100
AcDbEntity
  8
0
 62
256
370
-1
 48
1.0
  6
BYLAYER
100
AcDbLine
 10
2.0000000000000018
 20
9.5
 30
0.0
 11
16.5000000000000036
 21
9.5
 31
0.0
  0
LINE
  5
80
100
AcDbEntity
  8
0
 62
256
370
-1
 48
1.0
  6
BYLAYER
100
AcDbLine
 10
19.2500000000000036
 20
36.0
 30
0.0
 11
0.0000000000000022
 21
36.0
 31
0.0
  0
LINE
  5
81
100
AcDbEntity
  8
0
 62
256
370
-1
 48
1.0
  6
BYLAYER
100
AcDbLine
 10
0.0000000000000022
 20
36.0
 30
0.0
 11
0.0000000000000021
 21
33.5
 31
0.0
  0
LINE
  5
82
100
AcDbEntity
  8
0
 62
256
370
-1
 48
1.0
  6
BYLAYER
100
AcDbLine
 10
19.2500000000000036
 20
7.5
 30
0.0
 11
19.2500000000000036
 21
33.5
 31
0.0
  0
LINE
  5
83
100
AcDbEntity
  8
0
 62
256
370
-1
 48
1.0
  6
BYLAYER
100
AcDbLine
 10
19.2500000000000036
 20
36.0
 30
0.0
 11
19.2500000000000036
 21
33.5
 31
0.0
  0
LINE
  5
84
100
AcDbEntity
  8
0
 62
256
370
-1
 48
1.0
  6
BYLAYER
100
AcDbLine
 10
18.5000000000000036
 20
29.5
 30
0.0
 11
19.2500000000000036
 21
29.5
 31
0.0
  0
LINE
  5
85
100
AcDbEntity
  8
0
 62
256
370
-1
 48
1.0
  6
BYLAYER
100
AcDbLine
 10
18.5000000000000036
 20
21.5
 30
0.0
 11
19.2500000000000036
 21
21.5
 31
0.0
  0
LINE
  5
86
100
AcDbEntity
  8
0
 62
256
370
-1
 48
1.0
  6
BYLAYER
100
AcDbLine
 10
18.5000000000000036
 20
7.5
 30
0.0
 11
19.2500000000000036
 21
7.5
 31
0.0
  0
LINE
  5
87
100
AcDbEntity
  8
0
 62
256
370
-1
 48
1.0
  6
BYLAYER
100
AcDbLine
 10
24.375
 20
7.5
 30
0.0
 11
48.375
 21
7.5
 31
0.0
  0
LINE
  5
88
100
AcDbEntity
  8
0
 62
256
370
-1
 48
1.0
  6
BYLAYER
100
AcDbLine
 10
4.5
 20
-94.5
 30
0.0
 11
28.5
 21
-94.5
 31
0.0
  0
LINE
  5
89
100
AcDbEntity
  8
0
 62
256
370
-1
 48
1.0
  6
BYLAYER
100
AcDbLine
 10
60.375
 20
7.5
 30
0.0
 11
84.375
 21
7.5
 31
0.0
  0
LINE
  5
8A
100
AcDbEntity
  8
0
 62
256
370
-1
 48
1.0
  6
BYLAYER
100
AcDbLine
 10
48.375
 20
7.5
 30
0.0
 11
48.375
 21
33.5
 31
0.0
  0
LINE
  5
8B
100
AcDbEntity
  8
0
 62
256
370
-1
 48
1.0
  6
BYLAYER
100
AcDbLine
 10
28.5
 20
-94.5
 30
0.0
 11
28.5
 21
-68.5
 31
0.0
  0
LINE
  5
8C
100
AcDbEntity
  8
0
 62
256
370
-1
 48
1.0
  6
BYLAYER
100
AcDbLine
 10
84.375
 20
7.5
 30
0.0
 11
84.375
 21
33.5
 31
0.0
  0
LINE
  5
8D
100
AcDbEntity
  8
0
 62
256
370
-1
 48
1.0
  6
BYLAYER
100
AcDbLine
 10
48.375
 20
33.5
 30
0.0
 11
24.375
 21
33.5
 31
0.0
  0
LINE
  5
8E
100
AcDbEntity
  8
0
 62
256
370
-1
 48
1.0
  6
BYLAYER
100
AcDbLine
 10
28.5
 20
-68.5
 30
0.0
 11
4.5
 21
-68.5
 31
0.0
  0
LINE
  5
8F
100
AcDbEntity
  8
0
 62
256
370
-1
 48
1.0
  6
BYLAYER
100
AcDbLine
 10
84.375
 20
33.5
 30
0.0
 11
60.375
 21
33.5
 31
0.0
  0
LINE
  5
90
100
AcDbEntity
  8
0
 62
256
370
-1
 48
1.0
  6
BYLAYER
100
AcDbLine
 10
24.375
 20
33.5
 30
0.0
 11
24.375
 21
7.5
 31
0.0
  0
LINE
  5
91
100
AcDbEntity
  8
0
 62
256
370
-1
 48
1.0
  6
BYLAYER
100
AcDbLine
 10
4.5
 20
-68.5
 30
0.0
 11
4.5
 21
-94.5
 31
0.0
  0
LINE
  5
92
100
AcDbEntity
  8
0
 62
256
370
-1
 48
1.0
  6
BYLAYER
100
AcDbLine
 10
60.375
 20
33.5
 30
0.0
 11
60.375
 21
7.5
 31
0.0
  0
LINE
  5
93
100
AcDbEntity
  8
0
 62
256
370
-1
 48
1.0
  6
BYLAYER
100
AcDbLine
 10
24.375
 20
28.5
 30
0.0
 11
48.375
 21
28.5
 31
0.0
  0
LINE
  5
94
100
AcDbEntity
  8
0
 62
256
370
-1
 48
1.0
  6
BYLAYER
100
AcDbLine
 10
4.5
 20
-73.5
 30
0.0
 11
28.5
 21
-73.5
 31
0.0
  0
LINE
  5
95
100
AcDbEntity
  8
0
 62
256
370
-1
 48
1.0
  6
BYLAYER
100
AcDbLine
 10
24.375
 20
23.5
 30
0.0
 11
48.375
 21
23.5
 31
0.0
  0
LINE
  5
96
100
AcDbEntity
  8
0
 62
256
370
-1
 48
1.0
  6
BYLAYER
100
AcDbLine
 10
4.5
 20
-78.5
 30
0.0
 11
28.5
 21
-78.5
 31
0.0
  0
LINE
  5
97
100
AcDbEntity
  8
0
 62
256
370
-1
 48
1.0
  6
BYLAYER
100
AcDbLine
 10
24.0
 20
36.0
 30
0.0
 11
48.75
 21
36.0
 31
0.0
  0
LINE
  5
98
100
AcDbEntity
  8
0
 62
256
370
-1
 48
1.0
  6
BYLAYER
100
AcDbLine
 10
4.125
 20
-66.0
 30
0.0
 11
28.875
 21
-66.0
 31
0.0
  0
LINE
  5
99
100
AcDbEntity
  8
0
 62
256
370
-1
 48
1.0
  6
BYLAYER
100
AcDbLine
 10
60.0
 20
36.0
 30
0.0
 11
84.75
 21
36.0
 31
0.0
  0
LINE
  5
9A
100
AcDbEntity
  8
0
 62
256
370
-1
 48
1.0
  6
BYLAYER
100
AcDbLine
 10
24.0
 20
33.5
 30
0.0
 11
48.75
 21
33.5
 31
0.0
  0
LINE
  5
9B
100
AcDbEntity
  8
0
 62
256
370
-1
 48
1.0
  6
BYLAYER
100
AcDbLine
 10
4.125
 20
-68.5
 30
0.0
 11
28.875
 21
-68.5
 31
0.0
  0
LINE
  5
9C
100
AcDbEntity
  8
0
 62
256
370
-1
 48
1.0
  6
BYLAYER
100
AcDbLine
 10
60.0
 20
33.5
 30
0.0
 11
84.75
 21
33.5
 31
0.0
  0
LINE
  5
9D
100
AcDbEntity
  8
0
 62
256
370
-1
 48
1.0
  6
BYLAYER
100
AcDbLine
 10
48.75
 20
36.0
 30
0.0
 11
48.75
 21
33.5
 31
0.0
  0
LINE
  5
9E
100
AcDbEntity
  8
0
 62
256
370
-1
 48
1.0
  6
BYLAYER
100
AcDbLine
 10
28.875
 20
-66.0
 30
0.0
 11
28.875
 21
-68.5
 31
0.0
  0
LINE
  5
9F
100
AcDbEntity
  8
0
 62
256
370
-1
 48
1.0
  6
BYLAYER
100
AcDbLine
 10
84.75
 20
36.0
 30
0.0
 11
84.75
 21
33.5
 31
0.0
  0
LINE
  5
A0
100
AcDbEntity
  8
0
 62
256
370
-1
 48
1.0
  6
BYLAYER
100
AcDbLine
 10
24.0
 20
36.0
 30
0.0
 11
24.0
 21
33.5
 31
0.0
  0
LINE
  5
A1
100
AcDbEntity
  8
0
 62
256
370
-1
 48
1.0
  6
BYLAYER
100
AcDbLine
 10
4.125
 20
-66.0
 30
0.0
 11
4.125
 21
-68.5
 31
0.0
  0
LINE
  5
A2
100
AcDbEntity
  8
0
 62
256
370
-1
 48
1.0
  6
BYLAYER
100
AcDbLine
 10
60.0
 20
36.0
 30
0.0
 11
60.0
 21
33.5
 31
0.0
  0
LINE
  5
A3
100
AcDbEntity
  8
0
 62
256
370
-1
 48
1.0
  6
BYLAYER
100
AcDbLine
 10
-0.0
 20
-0.0
 30
0.0
 11
0.0000000000000022
 21
36.0
 31
0.0
  0
LINE
  5
A4
100
AcDbEntity
  8
0
 62
256
370
-1
 48
1.0
  6
BYLAYER
100
AcDbLine
 10
61.125
 20
33.5
 30
0.0
 11
61.125
 21
7.5
 31
0.0
  0
LINE
  5
A5
100
AcDbEntity
  8
0
 62
256
370
-1
 48
1.0
  6
BYLAYER
100
AcDbLine
 10
83.625
 20
7.5
 30
0.0
 11
83.625
 21
33.5
 31
0.0
  0
LINE
  5
A6
100
AcDbEntity
  8
0
 62
256
370
-1
 48
1.0
  6
BYLAYER
100
AcDbLine
 10
61.125
 20
8.25
 30
0.0
 11
83.625
 21
8.25
 31
0.0
  0
LINE
  5
A7
100
AcDbEntity
  8
0
 62
256
370
-1
 48
1.0
  6
BYLAYER
100
AcDbLine
 10
83.625
 20
32.75
 30
0.0
 11
61.125
 21
32.75
 31
0.0
  0
LINE
  5
A8
100
AcDbEntity
  8
0
 62
256
370
-1
 48
1.0
  6
BYLAYER
100
AcDbLine
 10
0.0
 20
48.0
 30
0.0
 11
18.5
 21
48.0
 31
0.0
  0
LINE
  5
A9
100
AcDbEntity
  8
0
 62
256
370
-1
 48
1.0
  6
BYLAYER
100
AcDbLine
 10
18.5
 20
48.0
 30
0.0
 11
18.5
 21
72.0
 31
0.0
  0
LINE
  5
AA
100
AcDbEntity
  8
0
 62
256
370
-1
 48
1.0
  6
BYLAYER
100
AcDbLine
 10
18.5
 20
72.0
 30
0.0
 11
0.0
 21
72.0
 31
0.0
  0
LINE
  5
AB
100
AcDbEntity
  8
0
 62
256
370
-1
 48
1.0
  6
BYLAYER
100
AcDbLine
 10
0.0
 20
72.0
 30
0.0
 11
0.0
 21
48.0
 31
0.0
  0
LINE
  5
AC
100
AcDbEntity
  8
0
 62
256
370
-1
 48
1.0
  6
BYLAYER
100
AcDbLine
 10
0.0
 20
48.75
 30
0.0
 11
18.5
 21
48.75
 31
0.0
  0
LINE
  5
AD
100
AcDbEntity
  8
0
 62
256
370
-1
 48
1.0
  6
BYLAYER
100
AcDbLine
 10
18.5
 20
71.25
 30
0.0
 11
-0.0000000000000001
 21
71.25
 31
0.0
  0
LINE
  5
AE
100
AcDbEntity
  8
0
 62
256
370
-1
 48
1.0
  6
BYLAYER
100
AcDbLine
 10
0.75
 20
71.25
 30
0.0
 11
0.75
 21
48.75
 31
0.0
  0
LINE
  5
AF
100
AcDbEntity
  8
0
 62
256
370
-1
 48
1.0
  6
BYLAYER
100
AcDbLine
 10
16.5
 20
48.75
 30
0.0
 11
16.5
 21
71.25
 31
0.0
  0
LINE
  5
B0
100
AcDbEntity
  8
0
 62
256
370
-1
 48
1.0
  6
BYLAYER
100
AcDbLine
 10
83.625
 20
31.0
 30
0.0
 11
61.125
 21
31.0
 31
0.0
  0
LINE
  5
B1
100
AcDbEntity
  8
0
 62
256
370
-1
 48
1.0
  6
BYLAYER
100
AcDbLine
 10
83.625
 20
26.0
 30
0.0
 11
61.125
 21
26.0
 31
0.0
  0
MTEXT
  5
B2
100
AcDbEntity
  8
0
 62
256
370
-1
 48
1.0
  6
BYLAYER
100
AcDbMText
 10
68.0
 20
29.0
 30
0.0
 40
1.0
 41
0.0
 71
1
 72
1
  1
Hanging board
  7
textstyle17
 50
0.0
 73
2
 44
1.0
  0
MTEXT
  5
B3
100
AcDbEntity
  8
0
 62
256
370
-1
 48
1.0
  6
BYLAYER
100
AcDbMText
 10
35.0
 20
26.0
 30
0.0
 40
1.0
 41
0.0
 71
1
 72
1
  1
Drawers
  7
textstyle18
 50
0.0
 73
2
 44
1.0
  0
MTEXT
  5
B4
100
AcDbEntity
  8
0
 62
256
370
-1
 48
1.0
  6
BYLAYER
100
AcDbMText
 10
15.1249999999999432
 20
-76.0
 30
0.0
 40
1.0
 41
0.0
 71
1
 72
1
  1
Drawers
  7
textstyle23
 50
0.0
 73
2
 44
1.0
  0
MTEXT
  5
B5
100
AcDbEntity
  8
0
 62
256
370
-1
 48
1.0
  6
BYLAYER
100
AcDbMText
 10
35.0
 20
15.9999999999999893
 30
0.0
 40
1.0
 41
0.0
 71
1
 72
1
  1
Drawers
  7
textstyle15
 50
0.0
 73
2
 44
1.0
  0
MTEXT
  5
B6
100
AcDbEntity
  8
0
 62
256
370
-1
 48
1.0
  6
BYLAYER
100
AcDbMText
 10
15.1249999999999396
 20
-86.0000000000000142
 30
0.0
 40
1.0
 41
0.0
 71
1
 72
1
  1
Drawers
  7
textstyle21
 50
0.0
 73
2
 44
1.0
  0
MTEXT
  5
B7
100
AcDbEntity
  8
0
 62
256
370
-1
 48
1.0
  6
BYLAYER
100
AcDbMText
 10
43.9999999999999716
 20
47.9999999999997726
 30
0.0
 40
1.0
 41
0.0
 71
1
 72
1
  1
Drawers
  7
textstyle16
 50
0.0
 73
2
 44
1.0
  0
MTEXT
  5
B8
100
AcDbEntity
  8
0
 62
256
370
-1
 48
1.0
  6
BYLAYER
100
AcDbMText
 10
68.0000000000000284
 20
47.999999999999531
 30
0.0
 40
1.0
 41
0.0
 71
1
 72
1
  1
Drawers
  7
textstyle19
 50
0.0
 73
2
 44
1.0
  0
MTEXT
  5
B9
100
AcDbEntity
  8
0
 62
256
370
-1
 48
1.0
  6
BYLAYER
100
AcDbMText
 10
92.0000000000000568
 20
47.9999999999990337
 30
0.0
 40
1.0
 41
0.0
 71
1
 72
1
  1
Drawers
  7
textstyle20
 50
0.0
 73
2
 44
1.0
  0
LINE
  5
BA
100
AcDbEntity
  8
0
 62
256
370
-1
 48
1.0
  6
BYLAYER
100
AcDbLine
 10
0.75
 20
50.0
 30
0.0
 11
2.0
 21
48.75
 31
0.0
  0
LINE
  5
BB
100
AcDbEntity
  8
0
 62
256
370
-1
 48
1.0
  6
BYLAYER
100
AcDbLine
 10
0.7500000000000007
 20
70.0
 30
0.0
 11
2.0000000000000036
 21
71.25
 31
0.0
  0
LINE
  5
BC
100
AcDbEntity
  8
0
 62
256
370
-1
 48
1.0
  6
BYLAYER
100
AcDbLine
 10
36.0
 20
80.0
 30
0.0
 11
36.0
 21
78.0
 31
0.0
  0
LINE
  5
BD
100
AcDbEntity
  8
0
 62
256
370
-1
 48
1.0
  6
BYLAYER
100
AcDbLine
 10
36.0
 20
78.0
 30
0.0
 11
62.0
 21
78.0
 31
0.0
  0
LINE
  5
BE
100
AcDbEntity
  8
0
 62
256
370
-1
 48
1.0
  6
BYLAYER
100
AcDbLine
 10
62.0
 20
78.0
 30
0.0
 11
62.0
 21
80.0
 31
0.0
  0
LINE
  5
BF
100
AcDbEntity
  8
0
 62
256
370
-1
 48
1.0
  6
BYLAYER
100
AcDbLine
 10
62.0
 20
80.0
 30
0.0
 11
36.0
 21
80.0
 31
0.0
  0
LINE
  5
C0
100
AcDbEntity
  8
0
 62
256
370
-1
 48
1.0
  6
BYLAYER
100
AcDbLine
 10
36.0
 20
78.0
 30
0.0
 11
36.0
 21
76.0
 31
0.0
  0
LINE
  5
C1
100
AcDbEntity
  8
0
 62
256
370
-1
 48
1.0
  6
BYLAYER
100
AcDbLine
 10
36.0
 20
76.0
 30
0.0
 11
62.0
 21
76.0
 31
0.0
  0
LINE
  5
C2
100
AcDbEntity
  8
0
 62
256
370
-1
 48
1.0
  6
BYLAYER
100
AcDbLine
 10
36.0
 20
72.0
 30
0.0
 11
36.0
 21
74.0
 31
0.0
  0
LINE
  5
C3
100
AcDbEntity
  8
0
 62
256
370
-1
 48
1.0
  6
BYLAYER
100
AcDbLine
 10
62.0
 20
78.0
 30
0.0
 11
36.0
 21
78.0
 31
0.0
  0
LINE
  5
C4
100
AcDbEntity
  8
0
 62
256
370
-1
 48
1.0
  6
BYLAYER
100
AcDbLine
 10
36.0
 20
76.0
 30
0.0
 11
36.0
 21
74.0
 31
0.0
  0
LINE
  5
C5
100
AcDbEntity
  8
0
 62
256
370
-1
 48
1.0
  6
BYLAYER
100
AcDbLine
 10
36.0
 20
74.0
 30
0.0
 11
62.0
 21
74.0
 31
0.0
  0
LINE
  5
C6
100
AcDbEntity
  8
0
 62
256
370
-1
 48
1.0
  6
BYLAYER
100
AcDbLine
 10
62.0
 20
74.0
 30
0.0
 11
62.0
 21
76.0
 31
0.0
  0
LINE
  5
C7
100
AcDbEntity
  8
0
 62
256
370
-1
 48
1.0
  6
BYLAYER
100
AcDbLine
 10
62.0
 20
76.0
 30
0.0
 11
36.0
 21
76.0
 31
0.0
  0
LINE
  5
C8
100
AcDbEntity
  8
0
 62
256
370
-1
 48
1.0
  6
BYLAYER
100
AcDbLine
 10
62.0
 20
78.0
 30
0.0
 11
62.0
 21
76.0
 31
0.0
  0
LINE
  5
C9
100
AcDbEntity
  8
0
 62
256
370
-1
 48
1.0
  6
BYLAYER
100
AcDbLine
 10
36.0
 20
72.0
 30
0.0
 11
62.0
 21
72.0
 31
0.0
  0
LINE
  5
CA
100
AcDbEntity
  8
0
 62
256
370
-1
 48
1.0
  6
BYLAYER
100
AcDbLine
 10
62.0
 20
72.0
 30
0.0
 11
62.0
 21
74.0
 31
0.0
  0
LINE
  5
CB
100
AcDbEntity
  8
0
 62
256
370
-1
 48
1.0
  6
BYLAYER
100
AcDbLine
 10
62.0
 20
74.0
 30
0.0
 11
36.0
 21
74.0
 31
0.0
  0
LINE
  5
CC
100
AcDbEntity
  8
0
 62
256
370
-1
 48
1.0
  6
BYLAYER
100
AcDbLine
 10
62.125
 20
80.0
 30
0.0
 11
62.125
 21
78.0
 31
0.0
  0
LINE
  5
CD
100
AcDbEntity
  8
0
 62
256
370
-1
 48
1.0
  6
BYLAYER
100
AcDbLine
 10
62.125
 20
78.0
 30
0.0
 11
76.625
 21
78.0
 31
0.0
  0
LINE
  5
CE
100
AcDbEntity
  8
0
 62
256
370
-1
 48
1.0
  6
BYLAYER
100
AcDbLine
 10
62.125
 20
74.0
 30
0.0
 11
62.125
 21
76.0
 31
0.0
  0
LINE
  5
CF
100
AcDbEntity
  8
0
 62
256
370
-1
 48
1.0
  6
BYLAYER
100
AcDbLine
 10
76.625
 20
80.0
 30
0.0
 11
62.125
 21
80.0
 31
0.0
  0
LINE
  5
D0
100
AcDbEntity
  8
0
 62
256
370
-1
 48
1.0
  6
BYLAYER
100
AcDbLine
 10
76.625
 20
80.0
 30
0.0
 11
76.625
 21
78.0
 31
0.0
  0
LINE
  5
D1
100
AcDbEntity
  8
0
 62
256
370
-1
 48
1.0
  6
BYLAYER
100
AcDbLine
 10
62.125
 20
74.0
 30
0.0
 11
76.625
 21
74.0
 31
0.0
  0
LINE
  5
D2
100
AcDbEntity
  8
0
 62
256
370
-1
 48
1.0
  6
BYLAYER
100
AcDbLine
 10
76.625
 20
74.0
 30
0.0
 11
76.625
 21
76.0
 31
0.0
  0
LINE
  5
D3
100
AcDbEntity
  8
0
 62
256
370
-1
 48
1.0
  6
BYLAYER
100
AcDbLine
 10
76.625
 20
76.0
 30
0.0
 11
62.125
 21
76.0
 31
0.0
  0
LINE
  5
D4
100
AcDbEntity
  8
0
 62
256
370
-1
 48
1.0
  6
BYLAYER
100
AcDbLine
 10
62.125
 20
78.0
 30
0.0
 11
62.125
 21
76.0
 31
0.0
  0
LINE
  5
D5
100
AcDbEntity
  8
0
 62
256
370
-1
 48
1.0
  6
BYLAYER
100
AcDbLine
 10
62.125
 20
76.0
 30
0.0
 11
76.625
 21
76.0
 31
0.0
  0
LINE
  5
D6
100
AcDbEntity
  8
0
 62
256
370
-1
 48
1.0
  6
BYLAYER
100
AcDbLine
 10
62.125
 20
72.0
 30
0.0
 11
62.125
 21
74.0
 31
0.0
  0
LINE
  5
D7
100
AcDbEntity
  8
0
 62
256
370
-1
 48
1.0
  6
BYLAYER
100
AcDbLine
 10
76.625
 20
78.0
 30
0.0
 11
62.125
 21
78.0
 31
0.0
  0
LINE
  5
D8
100
AcDbEntity
  8
0
 62
256
370
-1
 48
1.0
  6
BYLAYER
100
AcDbLine
 10
76.625
 20
78.0
 30
0.0
 11
76.625
 21
76.0
 31
0.0
  0
LINE
  5
D9
100
AcDbEntity
  8
0
 62
256
370
-1
 48
1.0
  6
BYLAYER
100
AcDbLine
 10
62.125
 20
72.0
 30
0.0
 11
76.625
 21
72.0
 31
0.0
  0
LINE
  5
DA
100
AcDbEntity
  8
0
 62
256
370
-1
 48
1.0
  6
BYLAYER
100
AcDbLine
 10
76.625
 20
72.0
 30
0.0
 11
76.625
 21
74.0
 31
0.0
  0
LINE
  5
DB
100
AcDbEntity
  8
0
 62
256
370
-1
 48
1.0
  6
BYLAYER
100
AcDbLine
 10
76.625
 20
74.0
 30
0.0
 11
62.125
 21
74.0
 31
0.0
  0
LINE
  5
DC
100
AcDbEntity
  8
0
 62
256
370
-1
 48
1.0
  6
BYLAYER
100
AcDbLine
 10
65.0
 20
62.0000000000000071
 30
0.0
 11
65.0
 21
60.0000000000000071
 31
0.0
  0
LINE
  5
DD
100
AcDbEntity
  8
0
 62
256
370
-1
 48
1.0
  6
BYLAYER
100
AcDbLine
 10
65.0
 20
60.0000000000000071
 30
0.0
 11
87.5
 21
60.0
 31
0.0
  0
LINE
  5
DE
100
AcDbEntity
  8
0
 62
256
370
-1
 48
1.0
  6
BYLAYER
100
AcDbLine
 10
87.5
 20
60.0
 30
0.0
 11
87.5
 21
61.9999999999999929
 31
0.0
  0
LINE
  5
DF
100
AcDbEntity
  8
0
 62
256
370
-1
 48
1.0
  6
BYLAYER
100
AcDbLine
 10
87.5
 20
61.9999999999999929
 30
0.0
 11
65.0
 21
62.0000000000000071
 31
0.0
  0
LINE
  5
E0
100
AcDbEntity
  8
0
 62
256
370
-1
 48
1.0
  6
BYLAYER
100
AcDbLine
 10
65.0
 20
60.0000000000000071
 30
0.0
 11
65.0
 21
58.0
 31
0.0
  0
LINE
  5
E1
100
AcDbEntity
  8
0
 62
256
370
-1
 48
1.0
  6
BYLAYER
100
AcDbLine
 10
65.0
 20
58.0
 30
0.0
 11
87.5
 21
58.0
 31
0.0
  0
LINE
  5
E2
100
AcDbEntity
  8
0
 62
256
370
-1
 48
1.0
  6
BYLAYER
100
AcDbLine
 10
87.5
 20
58.0
 30
0.0
 11
87.5
 21
60.0
 31
0.0
  0
LINE
  5
E3
100
AcDbEntity
  8
0
 62
256
370
-1
 48
1.0
  6
BYLAYER
100
AcDbLine
 10
87.5
 20
60.0
 30
0.0
 11
65.0
 21
60.0000000000000071
 31
0.0
  0
MTEXT
  5
E4
100
AcDbEntity
  8
0
 62
256
370
-1
 48
1.0
  6
BYLAYER
100
AcDbMText
 10
43.5
 20
79.5000000000000284
 30
0.0
 40
1.0
 41
0.0
 71
1
 72
1
  1
Side frames
  7
textstyle9
 50
0.0
 73
2
 44
1.0
  0
MTEXT
  5
E5
100
AcDbEntity
  8
0
 62
256
370
-1
 48
1.0
  6
BYLAYER
100
AcDbMText
 10
43.5
 20
77.5000000000000284
 30
0.0
 40
1.0
 41
0.0
 71
1
 72
1
  1
Side frames
  7
textstyle10
 50
0.0
 73
2
 44
1.0
  0
MTEXT
  5
E6
100
AcDbEntity
  8
0
 62
256
370
-1
 48
1.0
  6
BYLAYER
100
AcDbMText
 10
48.9999999999999716
 20
75.5000000000001137
 30
0.0
 40
1.0
 41
0.0
 71
1
 72
1
  1
Side frames
  7
textstyle7
 50
0.0
 73
2
 44
1.0
  0
MTEXT
  5
E7
100
AcDbEntity
  8
0
 62
256
370
-1
 48
1.0
  6
BYLAYER
100
AcDbMText
 10
49.0
 20
73.5
 30
0.0
 40
1.0
 41
0.0
 71
1
 72
1
  1
Side frames
  7
textstyle8
 50
0.0
 73
2
 44
1.0
  0
MTEXT
  5
E8
100
AcDbEntity
  8
0
 62
256
370
-1
 48
1.0
  6
BYLAYER
100
AcDbMText
 10
66.125
 20
75.5000000000001137
 30
0.0
 40
1.0
 41
0.0
 71
1
 72
1
  1
Side frames
  7
textstyle13
 50
0.0
 73
2
 44
1.0
  0
MTEXT
  5
E9
100
AcDbEntity
  8
0
 62
256
370
-1
 48
1.0
  6
BYLAYER
100
AcDbMText
 10
66.1250000000000284
 20
73.4999999999999432
 30
0.0
 40
1.0
 41
0.0
 71
1
 72
1
  1
Side frames
  7
textstyle14
 50
0.0
 73
2
 44
1.0
  0
MTEXT
  5
EA
100
AcDbEntity
  8
0
 62
256
370
-1
 48
1.0
  6
BYLAYER
100
AcDbMText
 10
66.1250000000002842
 20
79.4999999999999147
 30
0.0
 40
1.0
 41
0.0
 71
1
 72
1
  1
Side frames
  7
textstyle11
 50
0.0
 73
2
 44
1.0
  0
MTEXT
  5
EB
100
AcDbEntity
  8
0
 62
256
370
-1
 48
1.0
  6
BYLAYER
100
AcDbMText
 10
66.1250000000009095
 20
77.5000000000000568
 30
0.0
 40
1.0
 41
0.0
 71
1
 72
1
  1
Side frames
  7
textstyle12
 50
0.0
 73
2
 44
1.0
  0
MTEXT
  5
EC
100
AcDbEntity
  8
0
 62
256
370
-1
 48
1.0
  6
BYLAYER
100
AcDbMText
 10
17.0
 20
17.0
 30
0.0
 40
1.0
 41
0.0
 71
1
 72
1
  1
Side frames
  7
textstyle1
 50
90.0
 73
2
 44
1.0
  0
MTEXT
  5
ED
100
AcDbEntity
  8
0
 62
256
370
-1
 48
1.0
  6
BYLAYER
100
AcDbMText
 10
0.5
 20
17.5
 30
0.0
 40
1.0
 41
0.0
 71
1
 72
1
  1
Side frames
  7
textstyle2
 50
90.0
 73
2
 44
1.0
  0
MTEXT
  5
EE
100
AcDbEntity
  8
0
 62
256
370
-1
 48
1.0
  6
BYLAYER
100
AcDbMText
 10
6.0
 20
33.0
 30
0.0
 40
1.0
 41
0.0
 71
1
 72
1
  1
Side frames
  7
textstyle30
 50
0.0
 73
2
 44
1.0
  0
MTEXT
  5
EF
100
AcDbEntity
  8
0
 62
256
370
-1
 48
1.0
  6
BYLAYER
100
AcDbMText
 10
6.0
 20
9.0
 30
0.0
 40
1.0
 41
0.0
 71
1
 72
1
  1
Side frames
  7
textstyle0
 50
0.0
 73
2
 44
1.0
  0
MTEXT
  5
F0
100
AcDbEntity
  8
0
 62
256
370
-1
 48
1.0
  6
BYLAYER
100
AcDbMText
 10
17.0
 20
56.0
 30
0.0
 40
1.0
 41
0.0
 71
1
 72
1
  1
Sink Supports
  7
textstyle5
 50
90.0
 73
2
 44
1.0
  0
MTEXT
  5
F1
100
AcDbEntity
  8
0
 62
256
370
-1
 48
1.0
  6
BYLAYER
100
AcDbMText
 10
0.0
 20
56.0
 30
0.0
 40
1.0
 41
0.0
 71
1
 72
1
  1
Sink Supports
  7
textstyle6
 50
90.0
 73
2
 44
1.0
  0
MTEXT
  5
F2
100
AcDbEntity
  8
0
 62
256
370
-1
 48
1.0
  6
BYLAYER
100
AcDbMText
 10
71.9999999999999716
 20
61.4999999999998792
 30
0.0
 40
1.0
 41
0.0
 71
1
 72
1
  1
Sink Supports
  7
textstyle3
 50
0.0
 73
2
 44
1.0
  0
MTEXT
  5
F3
100
AcDbEntity
  8
0
 62
256
370
-1
 48
1.0
  6
BYLAYER
100
AcDbMText
 10
72.0
 20
59.4999999999999787
 30
0.0
 40
1.0
 41
0.0
 71
1
 72
1
  1
Sink Supports
  7
textstyle4
 50
0.0
 73
2
 44
1.0
  0
MTEXT
  5
F4
100
AcDbEntity
  8
0
 62
256
370
-1
 48
1.0
  6
BYLAYER
100
AcDbMText
 10
9.0
 20
35.0
 30
0.0
 40
1.0
 41
0.0
 71
1
 72
1
  1
Sink
  7
textstyle27
 50
0.0
 73
2
 44
1.0
  0
MTEXT
  5
F5
100
AcDbEntity
  8
0
 62
256
370
-1
 48
1.0
  6
BYLAYER
100
AcDbMText
 10
36.0
 20
34.9999999999999929
 30
0.0
 40
1.0
 41
0.0
 71
1
 72
1
  1
Sink
  7
textstyle28
 50
0.0
 73
2
 44
1.0
  0
MTEXT
  5
F6
100
AcDbEntity
  8
0
 62
256
370
-1
 48
1.0
  6
BYLAYER
100
AcDbMText
 10
16.1249999999999751
 20
-67.0
 30
0.0
 40
1.0
 41
0.0
 71
1
 72
1
  1
Sink
  7
textstyle22
 50
0.0
 73
2
 44
1.0
  0
MTEXT
  5
F7
100
AcDbEntity
  8
0
 62
256
370
-1
 48
1.0
  6
BYLAYER
100
AcDbMText
 10
72.0
 20
35.0000000000000142
 30
0.0
 40
1.0
 41
0.0
 71
1
 72
1
  1
Sink
  7
textstyle26
 50
0.0
 73
2
 44
1.0
  0
LINE
  5
F8
100
AcDbEntity
  8
0
 62
256
370
-1
 48
1.0
  6
BYLAYER
100
AcDbLine
 10
76.75
 20
80.0
 30
0.0
 11
76.75
 21
74.0
 31
0.0
  0
LINE
  5
F9
100
AcDbEntity
  8
0
 62
256
370
-1
 48
1.0
  6
BYLAYER
100
AcDbLine
 10
76.75
 20
74.0
 30
0.0
 11
99.25
 21
74.0000000000000142
 31
0.0
  0
LINE
  5
FA
100
AcDbEntity
  8
0
 62
256
370
-1
 48
1.0
  6
BYLAYER
100
AcDbLine
 10
99.25
 20
74.0000000000000142
 30
0.0
 11
99.25
 21
80.0
 31
0.0
  0
LINE
  5
FB
100
AcDbEntity
  8
0
 62
256
370
-1
 48
1.0
  6
BYLAYER
100
AcDbLine
 10
99.25
 20
80.0
 30
0.0
 11
76.75
 21
80.0
 31
0.0
  0
MTEXT
  5
FC
100
AcDbEntity
  8
0
 62
256
370
-1
 48
1.0
  6
BYLAYER
100
AcDbMText
 10
82.75
 20
78.0000000000000284
 30
0.0
 40
1.0
 41
0.0
 71
1
 72
1
  1
Hanging Board
  7
textstyle29
 50
0.0
 73
2
 44
1.0
  0
MTEXT
  5
FD
100
AcDbEntity
  8
0
 62
256
370
-1
 48
1.0
  6
BYLAYER
100
AcDbMText
 10
32.0
 20
31.9999999999999964
 30
0.0
 40
1.0
 41
0.0
 71
1
 72
1
  1
Fake Drawer Front
  7
textstyle25
 50
0.0
 73
2
 44
1.0
  0
MTEXT
  5
FE
100
AcDbEntity
  8
0
 62
256
370
-1
 48
1.0
  6
BYLAYER
100
AcDbMText
 10
12.1249999999999947
 20
-70.0
 30
0.0
 40
1.0
 41
0.0
 71
1
 72
1
  1
Fake Drawer Front
  7
textstyle24
 50
0.0
 73
2
 44
1.0
  0
LINE
  5
FF
100
AcDbEntity
  8
0
 62
256
370
-1
 48
1.0
  6
BYLAYER
100
AcDbLine
 10
84.0
 20
68.0
 30
0.0
 11
84.0
 21
64.0
 31
0.0
  0
LINE
  5
100
100
AcDbEntity
  8
0
 62
256
370
-1
 48
1.0
  6
BYLAYER
100
AcDbLine
 10
84.0
 20
64.0
 30
0.0
 11
108.0
 21
64.0
 31
0.0
  0
LINE
  5
101
100
AcDbEntity
  8
0
 62
256
370
-1
 48
1.0
  6
BYLAYER
100
AcDbLine
 10
108.0
 20
64.0
 30
0.0
 11
108.0
 21
68.0
 31
0.0
  0
LINE
  5
102
100
AcDbEntity
  8
0
 62
256
370
-1
 48
1.0
  6
BYLAYER
100
AcDbLine
 10
108.0
 20
68.0
 30
0.0
 11
84.0
 21
68.0
 31
0.0
  0
DIMENSION
  5
103
100
AcDbEntity
  8
0
 62
256
370
-1
 48
1.0
  6
BYLAYER
100
AcDbDimension
 10
52.0
 20
28.5
 30
0.0
 11
51.25
 21
26.0
 31
0.0
 70
1
 71
8
 72
2
 74
0
 75
0
 41
1.0
 42
0.0
  1

  3
Standard
100
AcDbAlignedDimension
 13
48.375
 23
28.5
 33
0.0
 14
48.375
 24
23.5
 34
0.0
1001
ACAD
1000
DSTYLE
1002
{
1070
144
1040
1.0
1070
40
1040
1.0
1002
}
  0
DIMENSION
  5
104
100
AcDbEntity
  8
0
 62
256
370
-1
 48
1.0
  6
BYLAYER
100
AcDbDimension
 10
32.1249999999999503
 20
-73.5000000000000142
 30
0.0
 11
31.3749999999999574
 21
-76.0
 31
0.0
 70
1
 71
8
 72
2
 74
0
 75
0
 41
1.0
 42
0.0
  1

  3
Standard
100
AcDbAlignedDimension
 13
28.4999999999999716
 23
-73.5000000000000284
 33
0.0
 14
28.4999999999999929
 24
-78.5
 34
0.0
1001
ACAD
1000
DSTYLE
1002
{
1070
144
1040
1.0
1070
40
1040
1.0
1002
}
  0
DIMENSION
  5
105
100
AcDbEntity
  8
0
 62
256
370
-1
 48
1.0
  6
BYLAYER
100
AcDbDimension
 10
52.0
 20
23.5
 30
0.0
 11
51.25
 21
15.4999999999999893
 31
0.0
 70
1
 71
8
 72
2
 74
0
 75
0
 41
1.0
 42
0.0
  1

  3
Standard
100
AcDbAlignedDimension
 13
48.375
 23
23.5
 33
0.0
 14
48.375
 24
7.4999999999999796
 34
0.0
1001
ACAD
1000
DSTYLE
1002
{
1070
144
1040
1.0
1070
40
1040
1.0
1002
}
  0
DIMENSION
  5
106
100
AcDbEntity
  8
0
 62
256
370
-1
 48
1.0
  6
BYLAYER
100
AcDbDimension
 10
32.1249999999999787
 20
-78.5000000000000142
 30
0.0
 11
31.3749999999999574
 21
-86.5000000000000284
 31
0.0
 70
1
 71
8
 72
2
 74
0
 75
0
 41
1.0
 42
0.0
  1

  3
Standard
100
AcDbAlignedDimension
 13
28.4999999999999929
 23
-78.5
 33
0.0
 14
28.4999999999999503
 24
-94.5000000000000284
 34
0.0
1001
ACAD
1000
DSTYLE
1002
{
1070
144
1040
1.0
1070
40
1040
1.0
1002
}
  0
LINE
  5
107
100
AcDbEntity
  8
0
 62
256
370
-1
 48
1.0
  6
ACAD_ISO03W100
100
AcDbLine
 10
25.125
 20
33.5
 30
0.0
 11
25.125
 21
7.5
 31
0.0
  0
LINE
  5
108
100
AcDbEntity
  8
0
 62
256
370
-1
 48
1.0
  6
ACAD_ISO03W100
100
AcDbLine
 10
5.25
 20
-68.5
 30
0.0
 11
5.25
 21
-94.5
 31
0.0
  0
LINE
  5
109
100
AcDbEntity
  8
0
 62
256
370
-1
 48
1.0
  6
ACAD_ISO03W100
100
AcDbLine
 10
47.625
 20
7.5
 30
0.0
 11
47.625
 21
33.5
 31
0.0
  0
LINE
  5
10A
100
AcDbEntity
  8
0
 62
256
370
-1
 48
1.0
  6
ACAD_ISO03W100
100
AcDbLine
 10
27.75
 20
-94.5
 30
0.0
 11
27.75
 21
-68.5
 31
0.0
  0
LINE
  5
10B
100
AcDbEntity
  8
0
 62
256
370
-1
 48
1.0
  6
ACAD_ISO03W100
100
AcDbLine
 10
25.125
 20
8.25
 30
0.0
 11
47.625
 21
8.25
 31
0.0
  0
LINE
  5
10C
100
AcDbEntity
  8
0
 62
256
370
-1
 48
1.0
  6
ACAD_ISO03W100
100
AcDbLine
 10
5.25
 20
-93.75
 30
0.0
 11
27.75
 21
-93.75
 31
0.0
  0
LINE
  5
10D
100
AcDbEntity
  8
0
 62
256
370
-1
 48
1.0
  6
BYLAYER
100
AcDbLine
 10
36.0
 20
52.0
 30
0.0
 11
36.0
 21
44.0
 31
0.0
  0
LINE
  5
10E
100
AcDbEntity
  8
0
 62
256
370
-1
 48
1.0
  6
BYLAYER
100
AcDbLine
 10
36.0
 20
44.0
 30
0.0
 11
60.0
 21
44.0
 31
0.0
  0
LINE
  5
10F
100
AcDbEntity
  8
0
 62
256
370
-1
 48
1.0
  6
BYLAYER
100
AcDbLine
 10
60.0
 20
44.0
 30
0.0
 11
60.0
 21
52.0
 31
0.0
  0
LINE
  5
110
100
AcDbEntity
  8
0
 62
256
370
-1
 48
1.0
  6
BYLAYER
100
AcDbLine
 10
60.0
 20
52.0
 30
0.0
 11
36.0
 21
52.0
 31
0.0
  0
LINE
  5
111
100
AcDbEntity
  8
0
 62
256
370
-1
 48
1.0
  6
BYLAYER
100
AcDbLine
 10
60.125
 20
52.0
 30
0.0
 11
60.125
 21
44.0
 31
0.0
  0
LINE
  5
112
100
AcDbEntity
  8
0
 62
256
370
-1
 48
1.0
  6
BYLAYER
100
AcDbLine
 10
60.125
 20
44.0
 30
0.0
 11
84.125
 21
44.0
 31
0.0
  0
LINE
  5
113
100
AcDbEntity
  8
0
 62
256
370
-1
 48
1.0
  6
BYLAYER
100
AcDbLine
 10
84.125
 20
44.0
 30
0.0
 11
84.125
 21
52.0
 31
0.0
  0
LINE
  5
114
100
AcDbEntity
  8
0
 62
256
370
-1
 48
1.0
  6
BYLAYER
100
AcDbLine
 10
84.125
 20
52.0
 30
0.0
 11
60.125
 21
52.0
 31
0.0
  0
LINE
  5
115
100
AcDbEntity
  8
0
 62
256
370
-1
 48
1.0
  6
BYLAYER
100
AcDbLine
 10
84.25
 20
52.0
 30
0.0
 11
84.25
 21
44.0
 31
0.0
  0
LINE
  5
116
100
AcDbEntity
  8
0
 62
256
370
-1
 48
1.0
  6
BYLAYER
100
AcDbLine
 10
84.25
 20
44.0
 30
0.0
 11
108.25
 21
44.0
 31
0.0
  0
LINE
  5
117
100
AcDbEntity
  8
0
 62
256
370
-1
 48
1.0
  6
BYLAYER
100
AcDbLine
 10
108.25
 20
44.0
 30
0.0
 11
108.25
 21
52.0
 31
0.0
  0
LINE
  5
118
100
AcDbEntity
  8
0
 62
256
370
-1
 48
1.0
  6
BYLAYER
100
AcDbLine
 10
108.25
 20
52.0
 30
0.0
 11
84.25
 21
52.0
 31
0.0
  0
DIMENSION
  5
119
100
AcDbEntity
  8
0
 62
256
370
-1
 48
1.0
  6
BYLAYER
100
AcDbDimension
 10
2.0000000000000022
 20
5.5
 30
0.0
 11
9.2500000000000036
 21
6.25
 31
0.0
 70
1
 71
8
 72
2
 74
0
 75
0
 41
1.0
 42
0.0
  1

  3
Standard
100
AcDbAlignedDimension
 13
2.0000000000000022
 23
7.5
 33
0.0
 14
16.5000000000000036
 24
7.5
 34
0.0
1001
ACAD
1000
DSTYLE
1002
{
1070
144
1040
1.0
1070
40
1040
1.0
1002
}
  0
DIMENSION
  5
11A
100
AcDbEntity
  8
0
 62
256
370
-1
 48
1.0
  6
BYLAYER
100
AcDbDimension
 10
-2.0000000000000018
 20
7.5
 30
0.0
 11
-2.7500000000000009
 21
20.5
 31
0.0
 70
1
 71
8
 72
2
 74
0
 75
0
 41
1.0
 42
0.0
  1

  3
Standard
100
AcDbAlignedDimension
 13
0.0000000000000005
 23
7.5
 33
0.0
 14
0.000000000000002
 24
33.5
 34
0.0
1001
ACAD
1000
DSTYLE
1002
{
1070
144
1040
1.0
1070
40
1040
1.0
1002
}
  0
DIMENSION
  5
11B
100
AcDbEntity
  8
0
 62
256
370
-1
 48
1.0
  6
BYLAYER
100
AcDbDimension
 10
24.375
 20
3.9999999999999947
 30
0.0
 11
36.375
 21
4.7499999999999787
 31
0.0
 70
1
 71
8
 72
2
 74
0
 75
0
 41
1.0
 42
0.0
  1

  3
Standard
100
AcDbAlignedDimension
 13
24.375
 23
7.5000000000000107
 33
0.0
 14
48.375
 24
7.4999999999999796
 34
0.0
1001
ACAD
1000
DSTYLE
1002
{
1070
144
1040
1.0
1070
40
1040
1.0
1002
}
  0
DIMENSION
  5
11C
100
AcDbEntity
  8
0
 62
256
370
-1
 48
1.0
  6
BYLAYER
100
AcDbDimension
 10
4.4999999999999254
 20
-97.9999999999999858
 30
0.0
 11
16.4999999999999361
 21
-97.25
 31
0.0
 70
1
 71
8
 72
2
 74
0
 75
0
 41
1.0
 42
0.0
  1

  3
Standard
100
AcDbAlignedDimension
 13
4.4999999999999263
 23
-94.4999999999999858
 33
0.0
 14
28.4999999999999503
 24
-94.5000000000000284
 34
0.0
1001
ACAD
1000
DSTYLE
1002
{
1070
144
1040
1.0
1070
40
1040
1.0
1002
}
  0
DIMENSION
  5
11D
100
AcDbEntity
  8
0
 62
256
370
-1
 48
1.0
  6
BYLAYER
100
AcDbDimension
 10
76.75
 20
84.0000000000000142
 30
0.0
 11
88.0
 21
84.7500000000000142
 31
0.0
 70
1
 71
8
 72
2
 74
0
 75
0
 41
1.0
 42
0.0
  1

  3
Standard
100
AcDbAlignedDimension
 13
76.75
 23
79.9999999999999716
 33
0.0
 14
99.25
 24
79.9999999999999716
 34
0.0
1001
ACAD
1000
DSTYLE
1002
{
1070
144
1040
1.0
1070
40
1040
1.0
1002
}
  0
DIMENSION
  5
11E
100
AcDbEntity
  8
0
 62
256
370
-1
 48
1.0
  6
BYLAYER
100
AcDbDimension
 10
87.5
 20
63.0000000000000142
 30
0.0
 11
76.25
 21
63.7500000000000782
 31
0.0
 70
1
 71
8
 72
2
 74
0
 75
0
 41
1.0
 42
0.0
  1

  3
Standard
100
AcDbAlignedDimension
 13
87.5
 23
61.9999999999999005
 33
0.0
 14
65.0
 24
62.0000000000000284
 34
0.0
1001
ACAD
1000
DSTYLE
1002
{
1070
144
1040
1.0
1070
40
1040
1.0
1002
}
  0
DIMENSION
  5
11F
100
AcDbEntity
  8
0
 62
256
370
-1
 48
1.0
  6
BYLAYER
100
AcDbDimension
 10
63.0
 20
62.0000000000000284
 30
0.0
 11
62.25
 21
61.0000000000000924
 31
0.0
 70
1
 71
8
 72
2
 74
0
 75
0
 41
1.0
 42
0.0
  1

  3
Standard
100
AcDbAlignedDimension
 13
65.0
 23
62.0000000000000284
 33
0.0
 14
65.0
 24
60.0000000000001563
 34
0.0
1001
ACAD
1000
DSTYLE
1002
{
1070
144
1040
1.0
1070
40
1040
1.0
1002
}
  0
DIMENSION
  5
120
100
AcDbEntity
  8
0
 62
256
370
-1
 48
1.0
  6
BYLAYER
100
AcDbDimension
 10
101.0
 20
79.9999999999999716
 30
0.0
 11
100.25
 21
77.0
 31
0.0
 70
1
 71
8
 72
2
 74
0
 75
0
 41
1.0
 42
0.0
  1

  3
Standard
100
AcDbAlignedDimension
 13
99.25
 23
79.9999999999999716
 33
0.0
 14
99.25
 24
74.0000000000000284
 34
0.0
1001
ACAD
1000
DSTYLE
1002
{
1070
144
1040
1.0
1070
40
1040
1.0
1002
}
  0
LINE
  5
121
100
AcDbEntity
  8
0
 62
256
370
-1
 48
1.0
  6
BYLAYER
100
AcDbLine
 10
116.0
 20
8.0
 30
0.0
 11
189.0
 21
8.0
 31
0.0
  0
LINE
  5
122
100
AcDbEntity
  8
0
 62
256
370
-1
 48
1.0
  6
BYLAYER
100
AcDbLine
 10
189.0
 20
8.0
 30
0.0
 11
189.0
 21
18.5
 31
0.0
  0
LINE
  5
123
100
AcDbEntity
  8
0
 62
256
370
-1
 48
1.0
  6
BYLAYER
100
AcDbLine
 10
189.0
 20
18.5
 30
0.0
 11
116.0
 21
18.5
 31
0.0
  0
LINE
  5
124
100
AcDbEntity
  8
0
 62
256
370
-1
 48
1.0
  6
BYLAYER
100
AcDbLine
 10
116.0
 20
18.5
 30
0.0
 11
116.0
 21
8.0
 31
0.0
  0
LINE
  5
125
100
AcDbEntity
  8
0
 62
256
370
-1
 48
1.0
  6
BYLAYER
100
AcDbLine
 10
116.0
 20
18.5
 30
0.0
 11
189.0
 21
18.5
 31
0.0
  0
LINE
  5
126
100
AcDbEntity
  8
0
 62
256
370
-1
 48
1.0
  6
BYLAYER
100
AcDbLine
 10
189.0
 20
18.5
 30
0.0
 11
189.0
 21
26.0
 31
0.0
  0
LINE
  5
127
100
AcDbEntity
  8
0
 62
256
370
-1
 48
1.0
  6
BYLAYER
100
AcDbLine
 10
189.0
 20
26.0
 30
0.0
 11
116.0
 21
26.0
 31
0.0
  0
LINE
  5
128
100
AcDbEntity
  8
0
 62
256
370
-1
 48
1.0
  6
BYLAYER
100
AcDbLine
 10
116.0
 20
26.0
 30
0.0
 11
116.0
 21
18.5
 31
0.0
  0
LINE
  5
129
100
AcDbEntity
  8
0
 62
256
370
-1
 48
1.0
  6
BYLAYER
100
AcDbLine
 10
116.0
 20
22.5
 30
0.0
 11
138.0
 21
22.5
 31
0.0
  0
LINE
  5
12A
100
AcDbEntity
  8
0
 62
256
370
-1
 48
1.0
  6
BYLAYER
100
AcDbLine
 10
138.0
 20
22.5
 30
0.0
 11
138.0
 21
26.0
 31
0.0
  0
LINE
  5
12B
100
AcDbEntity
  8
0
 62
256
370
-1
 48
1.0
  6
BYLAYER
100
AcDbLine
 10
138.0
 20
26.0
 30
0.0
 11
116.0
 21
26.0
 31
0.0
  0
LINE
  5
12C
100
AcDbEntity
  8
0
 62
256
370
-1
 48
1.0
  6
BYLAYER
100
AcDbLine
 10
116.0
 20
26.0
 30
0.0
 11
116.0
 21
22.5
 31
0.0
  0
LINE
  5
12D
100
AcDbEntity
  8
0
 62
256
370
-1
 48
1.0
  6
BYLAYER
100
AcDbLine
 10
138.0
 20
22.5
 30
0.0
 11
160.0
 21
22.5
 31
0.0
  0
LINE
  5
12E
100
AcDbEntity
  8
0
 62
256
370
-1
 48
1.0
  6
BYLAYER
100
AcDbLine
 10
160.0
 20
22.5
 30
0.0
 11
160.0
 21
26.0
 31
0.0
  0
LINE
  5
12F
100
AcDbEntity
  8
0
 62
256
370
-1
 48
1.0
  6
BYLAYER
100
AcDbLine
 10
160.0
 20
26.0
 30
0.0
 11
138.0
 21
26.0
 31
0.0
  0
LINE
  5
130
100
AcDbEntity
  8
0
 62
256
370
-1
 48
1.0
  6
BYLAYER
100
AcDbLine
 10
138.0
 20
26.0
 30
0.0
 11
138.0
 21
22.5
 31
0.0
  0
LINE
  5
131
100
AcDbEntity
  8
0
 62
256
370
-1
 48
1.0
  6
BYLAYER
100
AcDbLine
 10
160.0
 20
22.5
 30
0.0
 11
174.0
 21
22.5
 31
0.0
  0
LINE
  5
132
100
AcDbEntity
  8
0
 62
256
370
-1
 48
1.0
  6
BYLAYER
100
AcDbLine
 10
174.0
 20
22.5
 30
0.0
 11
174.0
 21
26.0
 31
0.0
  0
LINE
  5
133
100
AcDbEntity
  8
0
 62
256
370
-1
 48
1.0
  6
BYLAYER
100
AcDbLine
 10
174.0
 20
26.0
 30
0.0
 11
160.0
 21
26.0
 31
0.0
  0
LINE
  5
134
100
AcDbEntity
  8
0
 62
256
370
-1
 48
1.0
  6
BYLAYER
100
AcDbLine
 10
160.0
 20
26.0
 30
0.0
 11
160.0
 21
22.5
 31
0.0
  0
LINE
  5
135
100
AcDbEntity
  8
0
 62
256
370
-1
 48
1.0
  6
BYLAYER
100
AcDbLine
 10
174.0
 20
22.5
 30
0.0
 11
188.0
 21
22.5
 31
0.0
  0
LINE
  5
136
100
AcDbEntity
  8
0
 62
256
370
-1
 48
1.0
  6
BYLAYER
100
AcDbLine
 10
188.0
 20
22.5
 30
0.0
 11
188.0
 21
26.0
 31
0.0
  0
LINE
  5
137
100
AcDbEntity
  8
0
 62
256
370
-1
 48
1.0
  6
BYLAYER
100
AcDbLine
 10
188.0
 20
26.0
 30
0.0
 11
174.0
 21
26.0
 31
0.0
  0
LINE
  5
138
100
AcDbEntity
  8
0
 62
256
370
-1
 48
1.0
  6
BYLAYER
100
AcDbLine
 10
174.0
 20
26.0
 30
0.0
 11
174.0
 21
22.5
 31
0.0
  0
LINE
  5
139
100
AcDbEntity
  8
0
 62
256
370
-1
 48
1.0
  6
BYLAYER
100
AcDbLine
 10
116.0
 20
32.5
 30
0.0
 11
137.375
 21
32.5
 31
0.0
  0
LINE
  5
13A
100
AcDbEntity
  8
0
 62
256
370
-1
 48
1.0
  6
BYLAYER
100
AcDbLine
 10
137.375
 20
32.5
 30
0.0
 11
137.375
 21
36.0
 31
0.0
  0
LINE
  5
13B
100
AcDbEntity
  8
0
 62
256
370
-1
 48
1.0
  6
BYLAYER
100
AcDbLine
 10
137.375
 20
36.0
 30
0.0
 11
116.0
 21
36.0
 31
0.0
  0
LINE
  5
13C
100
AcDbEntity
  8
0
 62
256
370
-1
 48
1.0
  6
BYLAYER
100
AcDbLine
 10
116.0
 20
36.0
 30
0.0
 11
116.0
 21
32.5
 31
0.0
  0
LINE
  5
13D
100
AcDbEntity
  8
0
 62
256
370
-1
 48
1.0
  6
BYLAYER
100
AcDbLine
 10
116.0
 20
43.375
 30
0.0
 11
137.375
 21
43.375
 31
0.0
  0
LINE
  5
13E
100
AcDbEntity
  8
0
 62
256
370
-1
 48
1.0
  6
BYLAYER
100
AcDbLine
 10
137.375
 20
43.375
 30
0.0
 11
137.375
 21
43.5
 31
0.0
  0
LINE
  5
13F
100
AcDbEntity
  8
0
 62
256
370
-1
 48
1.0
  6
BYLAYER
100
AcDbLine
 10
136.75
 20
44.0
 30
0.0
 11
116.0
 21
44.0
 31
0.0
  0
LINE
  5
140
100
AcDbEntity
  8
0
 62
256
370
-1
 48
1.0
  6
BYLAYER
100
AcDbLine
 10
116.0
 20
44.0
 30
0.0
 11
116.0
 21
43.375
 31
0.0
  0
LINE
  5
141
100
AcDbEntity
  8
0
 62
256
370
-1
 48
1.0
  6
BYLAYER
100
AcDbLine
 10
136.75
 20
43.5
 30
0.0
 11
137.375
 21
43.5
 31
0.0
  0
LINE
  5
142
100
AcDbEntity
  8
0
 62
256
370
-1
 48
1.0
  6
BYLAYER
100
AcDbLine
 10
136.75
 20
44.0
 30
0.0
 11
136.75
 21
43.5
 31
0.0
  0
LINE
  5
143
100
AcDbEntity
  8
0
 62
256
370
-1
 48
1.0
  6
BYLAYER
100
AcDbLine
 10
136.75
 20
43.5
 30
0.0
 11
137.375
 21
43.5
 31
0.0
  0
LINE
  5
144
100
AcDbEntity
  8
0
 62
256
370
-1
 48
1.0
  6
BYLAYER
100
AcDbLine
 10
137.375
 20
43.5
 30
0.0
 11
137.375
 21
57.5
 31
0.0
  0
LINE
  5
145
100
AcDbEntity
  8
0
 62
256
370
-1
 48
1.0
  6
BYLAYER
100
AcDbLine
 10
137.375
 20
57.5
 30
0.0
 11
136.75
 21
57.5
 31
0.0
  0
LINE
  5
146
100
AcDbEntity
  8
0
 62
256
370
-1
 48
1.0
  6
BYLAYER
100
AcDbLine
 10
136.75
 20
57.5
 30
0.0
 11
136.75
 21
43.5
 31
0.0
  0
LINE
  5
147
100
AcDbEntity
  8
0
 62
256
370
-1
 48
1.0
  6
BYLAYER
100
AcDbLine
 10
0.0
 20
-50.0
 30
0.0
 11
33.0
 21
-50.0
 31
0.0
  0
LINE
  5
148
100
AcDbEntity
  8
0
 62
256
370
-1
 48
1.0
  6
BYLAYER
100
AcDbLine
 10
33.0
 20
-50.0
 30
0.0
 11
33.0
 21
-17.0
 31
0.0
  0
LINE
  5
149
100
AcDbEntity
  8
0
 62
256
370
-1
 48
1.0
  6
BYLAYER
100
AcDbLine
 10
33.0
 20
-17.0
 30
0.0
 11
0.0
 21
-17.0
 31
0.0
  0
LINE
  5
14A
100
AcDbEntity
  8
0
 62
256
370
-1
 48
1.0
  6
BYLAYER
100
AcDbLine
 10
0.0
 20
-17.0
 30
0.0
 11
0.0
 21
-50.0
 31
0.0
  0
LINE
  5
14B
100
AcDbEntity
  8
0
 62
256
370
-1
 48
1.0
  6
BYLAYER
100
AcDbLine
 10
31.0
 20
-19.0
 30
0.0
 11
2.0
 21
-19.0
 31
0.0
  0
LINE
  5
14C
100
AcDbEntity
  8
0
 62
256
370
-1
 48
1.0
  6
BYLAYER
100
AcDbLine
 10
2.0
 20
-19.0
 30
0.0
 11
2.0
 21
-48.0
 31
0.0
  0
LINE
  5
14D
100
AcDbEntity
  8
0
 62
256
370
-1
 48
1.0
  6
BYLAYER
100
AcDbLine
 10
1.9999999999999998
 20
-48.0
 30
0.0
 11
31.0
 21
-48.0
 31
0.0
  0
LINE
  5
14E
100
AcDbEntity
  8
0
 62
256
370
-1
 48
1.0
  6
BYLAYER
100
AcDbLine
 10
31.0
 20
-48.0
 30
0.0
 11
31.0
 21
-19.0
 31
0.0
  0
LINE
  5
14F
100
AcDbEntity
  8
0
 62
256
370
-1
 48
1.0
  6
BYLAYER
100
AcDbLine
 10
0.0
 20
-17.0
 30
0.0
 11
2.0
 21
-19.0
 31
0.0
  0
LINE
  5
150
100
AcDbEntity
  8
0
 62
256
370
-1
 48
1.0
  6
BYLAYER
100
AcDbLine
 10
31.0
 20
-48.0
 30
0.0
 11
33.0
 21
-50.0
 31
0.0
  0
LINE
  5
151
100
AcDbEntity
  8
0
 62
256
370
-1
 48
1.0
  6
BYLAYER
100
AcDbLine
 10
33.0
 20
-17.0
 30
0.0
 11
31.0
 21
-19.0
 31
0.0
  0
LINE
  5
152
100
AcDbEntity
  8
0
 62
256
370
-1
 48
1.0
  6
BYLAYER
100
AcDbLine
 10
2.0
 20
-48.0
 30
0.0
 11
-0.0
 21
-50.0
 31
0.0
  0
LINE
  5
153
100
AcDbEntity
  8
0
 62
256
370
-1
 48
1.0
  6
BYLAYER
100
AcDbLine
 10
38.5
 20
-48.5
 30
0.0
 11
39.25
 21
-48.5
 31
0.0
  0
LINE
  5
154
100
AcDbEntity
  8
0
 62
256
370
-1
 48
1.0
  6
BYLAYER
100
AcDbLine
 10
65.5
 20
-48.4999999999999929
 30
0.0
 11
64.75
 21
-48.5000000000000284
 31
0.0
  0
LINE
  5
155
100
AcDbEntity
  8
0
 62
256
370
-1
 48
1.0
  6
BYLAYER
100
AcDbLine
 10
39.25
 20
-48.5
 30
0.0
 11
39.25
 21
-18.5
 31
0.0
  0
LINE
  5
156
100
AcDbEntity
  8
0
 62
256
370
-1
 48
1.0
  6
BYLAYER
100
AcDbLine
 10
64.75
 20
-48.5000000000000284
 30
0.0
 11
64.75
 21
-18.5000000000000036
 31
0.0
  0
LINE
  5
157
100
AcDbEntity
  8
0
 62
256
370
-1
 48
1.0
  6
BYLAYER
100
AcDbLine
 10
39.25
 20
-18.5
 30
0.0
 11
38.5
 21
-18.5
 31
0.0
  0
LINE
  5
158
100
AcDbEntity
  8
0
 62
256
370
-1
 48
1.0
  6
BYLAYER
100
AcDbLine
 10
64.75
 20
-18.5000000000000036
 30
0.0
 11
65.5
 21
-18.5000000000000036
 31
0.0
  0
LINE
  5
159
100
AcDbEntity
  8
0
 62
256
370
-1
 48
1.0
  6
BYLAYER
100
AcDbLine
 10
38.5
 20
-18.5
 30
0.0
 11
38.5
 21
-48.5
 31
0.0
  0
LINE
  5
15A
100
AcDbEntity
  8
0
 62
256
370
-1
 48
1.0
  6
BYLAYER
100
AcDbLine
 10
65.5
 20
-18.5000000000000036
 30
0.0
 11
65.5
 21
-48.4999999999999929
 31
0.0
  0
LINE
  5
15B
100
AcDbEntity
  8
0
 62
256
370
-1
 48
1.0
  6
BYLAYER
100
AcDbLine
 10
39.25
 20
-48.5
 30
0.0
 11
64.75
 21
-48.5000000000000213
 31
0.0
  0
LINE
  5
15C
100
AcDbEntity
  8
0
 62
256
370
-1
 48
1.0
  6
BYLAYER
100
AcDbLine
 10
39.25
 20
-18.5
 30
0.0
 11
64.75
 21
-18.5000000000000071
 31
0.0
  0
LINE
  5
15D
100
AcDbEntity
  8
0
 62
256
370
-1
 48
1.0
  6
BYLAYER
100
AcDbLine
 10
39.25
 20
-19.25
 30
0.0
 11
64.75
 21
-19.2500000000000071
 31
0.0
  0
LINE
  5
15E
100
AcDbEntity
  8
0
 62
256
370
-1
 48
1.0
  6
BYLAYER
100
AcDbLine
 10
39.25
 20
-47.75
 30
0.0
 11
64.75
 21
-47.7500000000000213
 31
0.0
  0
LINE
  5
15F
100
AcDbEntity
  8
0
 62
256
370
-1
 48
1.0
  6
BYLAYER
100
AcDbLine
 10
0.0
 20
-11.8125
 30
0.0
 11
3.0
 21
-11.8125
 31
0.0
  0
LINE
  5
160
100
AcDbEntity
  8
0
 62
256
370
-1
 48
1.0
  6
BYLAYER
100
AcDbLine
 10
0.0
 20
-9.0
 30
0.0
 11
3.0
 21
-9.0
 31
0.0
  0
LINE
  5
161
100
AcDbEntity
  8
0
 62
256
370
-1
 48
1.0
  6
BYLAYER
100
AcDbLine
 10
3.0
 20
-10.1875
 30
0.0
 11
0.0
 21
-10.1875
 31
0.0
  0
LINE
  5
162
100
AcDbEntity
  8
0
 62
256
370
-1
 48
1.0
  6
BYLAYER
100
AcDbLine
 10
3.0
 20
-7.375
 30
0.0
 11
0.0
 21
-7.375
 31
0.0
  0
LINE
  5
163
100
AcDbEntity
  8
0
 62
256
370
-1
 48
1.0
  6
BYLAYER
100
AcDbLine
 10
0.0
 20
-10.1875
 30
0.0
 11
0.0
 21
-11.8125
 31
0.0
  0
LINE
  5
164
100
AcDbEntity
  8
0
 62
256
370
-1
 48
1.0
  6
BYLAYER
100
AcDbLine
 10
0.0
 20
-7.375
 30
0.0
 11
0.0
 21
-9.0
 31
0.0
  0
CIRCLE
  5
165
100
AcDbEntity
  8
0
 62
256
370
-1
 48
1.0
  6
BYLAYER
100
AcDbCircle
 10
3.0
 20
-11.0
 30
0.0
 40
0.3125
  0
CIRCLE
  5
166
100
AcDbEntity
  8
0
 62
256
370
-1
 48
1.0
  6
BYLAYER
100
AcDbCircle
 10
3.0
 20
-8.1875
 30
0.0
 40
0.3125
  0
ARC
  5
167
100
AcDbEntity
  8
0
 62
256
370
-1
 48
1.0
  6
BYLAYER
100
AcDbCircle
 10
3.0
 20
-11.0
 30
0.0
 40
0.8125
100
AcDbArc
 50
270.0
 51
90.0
  0
ARC
  5
168
100
AcDbEntity
  8
0
 62
256
370
-1
 48
1.0
  6
BYLAYER
100
AcDbCircle
 10
3.0
 20
-8.1875
 30
0.0
 40
0.8125
100
AcDbArc
 50
270.0
 51
90.0
  0
LINE
  5
169
100
AcDbEntity
  8
0
 62
256
370
-1
 48
1.0
  6
BYLAYER
100
AcDbLine
 10
3.0
 20
-10.6875
 30
0.0
 11
3.0
 21
-11.3125
 31
0.0
  0
LINE
  5
16A
100
AcDbEntity
  8
0
 62
256
370
-1
 48
1.0
  6
BYLAYER
100
AcDbLine
 10
3.3125
 20
-11.0
 30
0.0
 11
2.6875
 21
-11.0
 31
0.0
  0
LINE
  5
16B
100
AcDbEntity
  8
0
 62
256
370
-1
 48
1.0
  6
BYLAYER
100
AcDbLine
 10
3.0
 20
-7.875
 30
0.0
 11
3.0
 21
-8.5
 31
0.0
  0
LINE
  5
16C
100
AcDbEntity
  8
0
 62
256
370
-1
 48
1.0
  6
BYLAYER
100
AcDbLine
 10
2.6875
 20
-8.1875
 30
0.0
 11
3.3125
 21
-8.1875
 31
0.0
  0
ENDSEC
  0
SECTION
  2
OBJECTS
  0
DICTIONARY
  5
C
100
AcDbDictionary
280
0
281
1
  3
ACAD_GROUP
350
D
  3
ACAD_LAYOUT
350
1A
  3
ACAD_MLINESTYLE
350
17
  3
ACAD_PLOTSETTINGS
350
19
  3
ACAD_PLOTSTYLENAME
350
E
  3
AcDbVariableDictionary
350
16D
  3
QCAD_OBJECTS
350
16E
  0
DICTIONARY
  5
D
100
AcDbDictionary
280
0
281
1
  0
ACDBDICTIONARYWDFLT
  5
E
100
AcDbDictionary
281
1
  3
Normal
350
F
100
AcDbDictionaryWithDefault
340
F
  0
ACDBPLACEHOLDER
  5
F
  0
DICTIONARY
  5
17
100
AcDbDictionary
280
0
281
1
  3
Standard
350
18
  0
MLINESTYLE
  5
18
100
AcDbMlineStyle
  2
STANDARD
 70
0
  3

 62
256
 51
90.0
 52
90.0
 71
2
 49
0.5
 62
256
  6
BYLAYER
 49
-0.5
 62
256
  6
BYLAYER
  0
DICTIONARY
  5
19
100
AcDbDictionary
280
0
281
1
  0
DICTIONARY
  5
1A
100
AcDbDictionary
281
1
  3
Layout1
350
1E
  3
Layout2
350
26
  3
Model
350
22
  0
LAYOUT
  5
1E
100
AcDbPlotSettings
  1

  2
none_device
  4

  6

 40
0.0
 41
0.0
 42
0.0
 43
0.0
 44
0.0
 45
0.0
 46
0.0
 47
0.0
 48
0.0
 49
0.0
140
0.0
141
0.0
142
1.0
143
1.0
 70
688
 72
0
 73
0
 74
5
  7

 75
16
147
1.0
148
0.0
149
0.0
100
AcDbLayout
  1
Layout1
 70
1
 71
1
 10
0.0
 20
0.0
 11
420.0
 21
297.0
 12
0.0
 22
0.0
 32
0.0
 14
100000000000000000000.0
 24
100000000000000000000.0
 34
100000000000000000000.0
 15
-100000000000000000000.0
 25
-100000000000000000000.0
 35
-100000000000000000000.0
146
0.0
 13
0.0
 23
0.0
 33
0.0
 16
1.0
 26
0.0
 36
0.0
 17
0.0
 27
1.0
 37
0.0
 76
0
330
1B
  0
LAYOUT
  5
22
100
AcDbPlotSettings
  1

  2
none_device
  4

  6

 40
0.0
 41
0.0
 42
0.0
 43
0.0
 44
0.0
 45
0.0
 46
0.0
 47
0.0
 48
0.0
 49
0.0
140
0.0
141
0.0
142
1.0
143
1.0
 70
1712
 72
0
 73
0
 74
0
  7

 75
0
147
1.0
148
0.0
149
0.0
100
AcDbLayout
  1
Model
 70
1
 71
0
 10
0.0
 20
0.0
 11
12.0
 21
9.0
 12
0.0
 22
0.0
 32
0.0
 14
0.0
 24
0.0
 34
0.0
 15
0.0
 25
0.0
 35
0.0
146
0.0
 13
0.0
 23
0.0
 33
0.0
 16
1.0
 26
0.0
 36
0.0
 17
0.0
 27
1.0
 37
0.0
 76
0
330
1F
  0
LAYOUT
  5
26
100
AcDbPlotSettings
  1

  2
none_device
  4

  6

 40
0.0
 41
0.0
 42
0.0
 43
0.0
 44
0.0
 45
0.0
 46
0.0
 47
0.0
 48
0.0
 49
0.0
140
0.0
141
0.0
142
1.0
143
1.0
 70
688
 72
0
 73
0
 74
5
  7

 75
16
147
1.0
148
0.0
149
0.0
100
AcDbLayout
  1
Layout2
 70
1
 71
2
 10
0.0
 20
0.0
 11
12.0
 21
9.0
 12
0.0
 22
0.0
 32
0.0
 14
0.0
 24
0.0
 34
0.0
 15
0.0
 25
0.0
 35
0.0
146
0.0
 13
0.0
 23
0.0
 33
0.0
 16
1.0
 26
0.0
 36
0.0
 17
0.0
 27
1.0
 37
0.0
 76
0
330
23
  0
DICTIONARY
  5
16D
100
AcDbDictionary
281
1
  3
DIMASSOC
350
170
  3
HIDETEXT
350
16F
  0
DICTIONARYVAR
  5
16F
100
DictionaryVariables
280
0
  1
2
  0
DICTIONARYVAR
  5
170
100
DictionaryVariables
280
0
  1
1
  0
DICTIONARY
  5
16E
100
AcDbDictionary
281
1
  3
ColorSettings/BackgroundColor
350
171
  3
ColorSettings/ColorMode
350
172
  3
DimensionSettings/AngularFormat
350
173
  3
DimensionSettings/AngularPrecision
350
174
  3
DimensionSettings/DecimalPoint
350
175
  3
DimensionSettings/DimensionFont
350
176
  3
DimensionSettings/DimensionTextColor
350
177
  3
DimensionSettings/KeepProportions
350
178
  3
DimensionSettings/LinearFormat
350
179
  3
DimensionSettings/LinearPrecision
350
17A
  3
Grid/DisplayGrid00
350
17B
  3
Grid/DisplayGrid01
350
17C
  3
Grid/DisplayGrid02
350
17D
  3
Grid/DisplayGrid03
350
17E
  3
Grid/GridSpacingX00
350
17F
  3
Grid/GridSpacingX01
350
180
  3
Grid/GridSpacingX02
350
181
  3
Grid/GridSpacingX03
350
182
  3
Grid/GridSpacingY00
350
183
  3
Grid/GridSpacingY01
350
184
  3
Grid/GridSpacingY02
350
185
  3
Grid/GridSpacingY03
350
186
  3
Grid/IsometricGrid00
350
187
  3
Grid/IsometricGrid01
350
188
  3
Grid/IsometricGrid02
350
189
  3
Grid/IsometricGrid03
350
18A
  3
Grid/IsometricProjection00
350
18B
  3
Grid/IsometricProjection01
350
18C
  3
Grid/IsometricProjection02
350
18D
  3
Grid/IsometricProjection03
350
18E
  3
Grid/MetaGridSpacingX00
350
18F
  3
Grid/MetaGridSpacingX01
350
190
  3
Grid/MetaGridSpacingX02
350
191
  3
Grid/MetaGridSpacingX03
350
192
  3
Grid/MetaGridSpacingY00
350
193
  3
Grid/MetaGridSpacingY01
350
194
  3
Grid/MetaGridSpacingY02
350
195
  3
Grid/MetaGridSpacingY03
350
196
  3
LinetypeSettings/PSLTSCALE
350
197
  3
MultiPageSettings/Columns
350
198
  3
MultiPageSettings/GlueMarginsBottom
350
199
  3
MultiPageSettings/GlueMarginsLeft
350
19A
  3
MultiPageSettings/GlueMarginsRight
350
19B
  3
MultiPageSettings/GlueMarginsTop
350
19C
  3
MultiPageSettings/PrintCropMarks
350
19D
  3
MultiPageSettings/Rows
350
19E
  3
PageSettings/OffsetX
350
19F
  3
PageSettings/OffsetY
350
1A0
  3
PageSettings/PageOrientation
350
1A1
  3
PageSettings/PaperHeight
350
1A2
  3
PageSettings/PaperSizeName
350
1A3
  3
PageSettings/PaperWidth
350
1A4
  3
PageSettings/PointSize
350
1A5
  3
PageSettings/Scale
350
1A6
  3
PageSettings/ShowPaperBorders
350
1A7
  3
PageTagSettings/EnablePageTags
350
1A8
  3
PageTagSettings/TagAlignment
350
1A9
  3
PageTagSettings/TagFont
350
1AA
  3
PageTagSettings/TagPosition
350
1AB
  3
QCADVersion
350
1AC
  3
UnitSettings/Measurement
350
1AD
  3
UnitSettings/PaperUnit
350
1AE
  3
ViewportCenter
350
1AF
  3
ViewportHeight
350
1B0
  3
ViewportWidth
350
1B1
  0
XRECORD
  5
171
330
16E
100
AcDbXrecord
280
1
1000
White
  0
XRECORD
  5
172
330
16E
100
AcDbXrecord
280
1
1000
FullColor
  0
XRECORD
  5
173
330
16E
100
AcDbXrecord
280
1
 90
0
  0
XRECORD
  5
174
330
16E
100
AcDbXrecord
280
1
 90
0
  0
XRECORD
  5
175
330
16E
100
AcDbXrecord
280
1
 90
46
  0
XRECORD
  5
176
330
16E
100
AcDbXrecord
280
1
1000
Al Bayan
  0
XRECORD
  5
177
330
16E
100
AcDbXrecord
280
1
1000
By Layer
  0
XRECORD
  5
178
330
16E
100
AcDbXrecord
280
1
290
1
  0
XRECORD
  5
179
330
16E
100
AcDbXrecord
280
1
 90
5
  0
XRECORD
  5
17A
330
16E
100
AcDbXrecord
280
1
 90
4
  0
XRECORD
  5
17B
330
16E
100
AcDbXrecord
280
1
290
1
  0
XRECORD
  5
17C
330
16E
100
AcDbXrecord
280
1
290
1
  0
XRECORD
  5
17D
330
16E
100
AcDbXrecord
280
1
290
1
  0
XRECORD
  5
17E
330
16E
100
AcDbXrecord
280
1
290
1
  0
XRECORD
  5
17F
330
16E
100
AcDbXrecord
280
1
1000
auto
  0
XRECORD
  5
180
330
16E
100
AcDbXrecord
280
1
1000
auto
  0
XRECORD
  5
181
330
16E
100
AcDbXrecord
280
1
1000
auto
  0
XRECORD
  5
182
330
16E
100
AcDbXrecord
280
1
1000
auto
  0
XRECORD
  5
183
330
16E
100
AcDbXrecord
280
1
1000
auto
  0
XRECORD
  5
184
330
16E
100
AcDbXrecord
280
1
1000
auto
  0
XRECORD
  5
185
330
16E
100
AcDbXrecord
280
1
1000
auto
  0
XRECORD
  5
186
330
16E
100
AcDbXrecord
280
1
1000
auto
  0
XRECORD
  5
187
330
16E
100
AcDbXrecord
280
1
290
0
  0
XRECORD
  5
188
330
16E
100
AcDbXrecord
280
1
290
0
  0
XRECORD
  5
189
330
16E
100
AcDbXrecord
280
1
290
0
  0
XRECORD
  5
18A
330
16E
100
AcDbXrecord
280
1
290
0
  0
XRECORD
  5
18B
330
16E
100
AcDbXrecord
280
1
 90
65537
  0
XRECORD
  5
18C
330
16E
100
AcDbXrecord
280
1
 90
65537
  0
XRECORD
  5
18D
330
16E
100
AcDbXrecord
280
1
 90
65537
  0
XRECORD
  5
18E
330
16E
100
AcDbXrecord
280
1
 90
65537
  0
XRECORD
  5
18F
330
16E
100
AcDbXrecord
280
1
1000
auto
  0
XRECORD
  5
190
330
16E
100
AcDbXrecord
280
1
1000
auto
  0
XRECORD
  5
191
330
16E
100
AcDbXrecord
280
1
1000
auto
  0
XRECORD
  5
192
330
16E
100
AcDbXrecord
280
1
1000
auto
  0
XRECORD
  5
193
330
16E
100
AcDbXrecord
280
1
1000
auto
  0
XRECORD
  5
194
330
16E
100
AcDbXrecord
280
1
1000
auto
  0
XRECORD
  5
195
330
16E
100
AcDbXrecord
280
1
1000
auto
  0
XRECORD
  5
196
330
16E
100
AcDbXrecord
280
1
1000
auto
  0
XRECORD
  5
197
330
16E
100
AcDbXrecord
280
1
290
0
  0
XRECORD
  5
198
330
16E
100
AcDbXrecord
280
1
 90
1
  0
XRECORD
  5
199
330
16E
100
AcDbXrecord
280
1
 40
10.0
  0
XRECORD
  5
19A
330
16E
100
AcDbXrecord
280
1
 40
10.0
  0
XRECORD
  5
19B
330
16E
100
AcDbXrecord
280
1
 40
10.0
  0
XRECORD
  5
19C
330
16E
100
AcDbXrecord
280
1
 40
10.0
  0
XRECORD
  5
19D
330
16E
100
AcDbXrecord
280
1
290
0
  0
XRECORD
  5
19E
330
16E
100
AcDbXrecord
280
1
 90
1
  0
XRECORD
  5
19F
330
16E
100
AcDbXrecord
280
1
 40
-3.8053405922520045
  0
XRECORD
  5
1A0
330
16E
100
AcDbXrecord
280
1
 40
-13.8613666411931451
  0
XRECORD
  5
1A1
330
16E
100
AcDbXrecord
280
1
1000
Landscape
  0
XRECORD
  5
1A2
330
16E
100
AcDbXrecord
280
1
 40
279.3999999999999773
  0
XRECORD
  5
1A3
330
16E
100
AcDbXrecord
280
1
1000
Custom
  0
XRECORD
  5
1A4
330
16E
100
AcDbXrecord
280
1
 40
215.9000000000000057
  0
XRECORD
  5
1A5
330
16E
100
AcDbXrecord
280
1
1000
0.5
  0
XRECORD
  5
1A6
330
16E
100
AcDbXrecord
280
1
1000
1" = 1"
  0
XRECORD
  5
1A7
330
16E
100
AcDbXrecord
280
1
290
1
  0
XRECORD
  5
1A8
330
16E
100
AcDbXrecord
280
1
290
0
  0
XRECORD
  5
1A9
330
16E
100
AcDbXrecord
280
1
1000
Inside
  0
XRECORD
  5
1AA
330
16E
100
AcDbXrecord
280
1
1000
Arial,10,-1,5,50,0,0,0,0,0
  0
XRECORD
  5
1AB
330
16E
100
AcDbXrecord
280
1
1000
TopLeft
  0
XRECORD
  5
1AC
330
16E
100
AcDbXrecord
280
1
1000
3.25.2
  0
XRECORD
  5
1AD
330
16E
100
AcDbXrecord
280
1
 90
1
  0
XRECORD
  5
1AE
330
16E
100
AcDbXrecord
280
1
 90
4
  0
XRECORD
  5
1B0
330
16E
100
AcDbXrecord
280
1
 40
335.7211602191723046
  0
XRECORD
  5
1B1
330
16E
100
AcDbXrecord
280
1
 40
713.8439528582995308
  0
ENDSEC
  0
EOF
