G04 #@! TF.FileFunction,Copper,L2,Bot,Signal*
%FSLAX46Y46*%
G04 Gerber Fmt 4.6, Leading zero omitted, Abs format (unit mm)*
G04 Created by KiCad (PCBNEW 4.0.4+dfsg1-stable) date Fri Mar  3 21:41:16 2017*
%MOMM*%
%LPD*%
G01*
G04 APERTURE LIST*
%ADD10C,0.100000*%
%ADD11R,2.032000X1.727200*%
%ADD12O,2.032000X1.727200*%
%ADD13R,2.032000X2.032000*%
%ADD14O,2.032000X2.032000*%
%ADD15O,2.300000X1.600000*%
%ADD16R,1.727200X1.727200*%
%ADD17O,1.727200X1.727200*%
%ADD18R,2.000000X1.900000*%
%ADD19C,1.900000*%
%ADD20C,4.064000*%
%ADD21R,2.235200X2.235200*%
%ADD22O,1.600000X1.600000*%
%ADD23C,1.397000*%
%ADD24C,0.635000*%
%ADD25C,0.254000*%
%ADD26C,0.508000*%
G04 APERTURE END LIST*
D10*
D11*
X45720000Y-83820000D03*
D12*
X45720000Y-86360000D03*
X45720000Y-88900000D03*
X45720000Y-91440000D03*
D11*
X54610000Y-85090000D03*
D12*
X54610000Y-82550000D03*
X54610000Y-80010000D03*
D13*
X45720000Y-96520000D03*
D14*
X45720000Y-99060000D03*
D15*
X59690000Y-78740000D03*
X59690000Y-81280000D03*
X59690000Y-83820000D03*
X59690000Y-86360000D03*
X59690000Y-88900000D03*
X59690000Y-91440000D03*
X59690000Y-93980000D03*
X59690000Y-96520000D03*
X59690000Y-99060000D03*
X59690000Y-101600000D03*
X59690000Y-104140000D03*
X59690000Y-106680000D03*
X74930000Y-106680000D03*
X74930000Y-104140000D03*
X74930000Y-101600000D03*
X74930000Y-99060000D03*
X74930000Y-96520000D03*
X74930000Y-93980000D03*
X74930000Y-91440000D03*
X74930000Y-88900000D03*
X74930000Y-86360000D03*
X74930000Y-83820000D03*
X74930000Y-81280000D03*
X74930000Y-78740000D03*
D16*
X80010000Y-71120000D03*
D17*
X80010000Y-68580000D03*
D16*
X73660000Y-71120000D03*
D17*
X73660000Y-68580000D03*
D16*
X67310000Y-71120000D03*
D17*
X67310000Y-68580000D03*
D16*
X60960000Y-71120000D03*
D17*
X60960000Y-68580000D03*
D16*
X54610000Y-71120000D03*
D17*
X54610000Y-68580000D03*
D18*
X81280000Y-107315000D03*
D19*
X81280000Y-104775000D03*
D20*
X88265000Y-64135000D03*
X46355000Y-106045000D03*
X46355000Y-64135000D03*
X88265000Y-106045000D03*
D21*
X81280000Y-83820000D03*
D11*
X88900000Y-78740000D03*
D12*
X88900000Y-81280000D03*
X88900000Y-83820000D03*
X88900000Y-86360000D03*
D13*
X52070000Y-106680000D03*
D14*
X54610000Y-106680000D03*
D13*
X88900000Y-95250000D03*
D14*
X88900000Y-97790000D03*
D22*
X63500000Y-83820000D03*
X63500000Y-86360000D03*
X63500000Y-88900000D03*
X63500000Y-91440000D03*
X63500000Y-93980000D03*
X63500000Y-96520000D03*
X63500000Y-99060000D03*
X63500000Y-101600000D03*
X71120000Y-101600000D03*
X71120000Y-99060000D03*
X71120000Y-96520000D03*
X71120000Y-93980000D03*
X71120000Y-91440000D03*
X71120000Y-88900000D03*
X71120000Y-86360000D03*
X71120000Y-83820000D03*
D18*
X54610000Y-64770000D03*
D19*
X54610000Y-62230000D03*
D18*
X60960000Y-64770000D03*
D19*
X60960000Y-62230000D03*
D18*
X73660000Y-64770000D03*
D19*
X73660000Y-62230000D03*
D18*
X80010000Y-64770000D03*
D19*
X80010000Y-62230000D03*
D18*
X67310000Y-64770000D03*
D19*
X67310000Y-62230000D03*
D23*
X45720000Y-69850000D03*
X45720000Y-72390000D03*
X49530000Y-69850000D03*
X49530000Y-72390000D03*
X48260000Y-76200000D03*
X45720000Y-76200000D03*
X85090000Y-69850000D03*
X85090000Y-72390000D03*
X88900000Y-69850000D03*
X88900000Y-72390000D03*
X54610000Y-76200000D03*
X57150000Y-76200000D03*
X81280000Y-96520000D03*
X78740000Y-96520000D03*
X81280000Y-93980000D03*
X78740000Y-93980000D03*
X81280000Y-91440000D03*
X78740000Y-91440000D03*
X81280000Y-88900000D03*
X78740000Y-88900000D03*
X81280000Y-101600000D03*
X78740000Y-101600000D03*
D24*
X66675000Y-95250000D03*
X66675000Y-96520000D03*
X66675000Y-97790000D03*
X66675000Y-99060000D03*
X66675000Y-100330000D03*
X67945000Y-100965000D03*
X67945000Y-99695000D03*
X67945000Y-98425000D03*
X67945000Y-97155000D03*
X67945000Y-95885000D03*
X67945000Y-94615000D03*
X67945000Y-93345000D03*
X67945000Y-92075000D03*
X67945000Y-90805000D03*
X67945000Y-89535000D03*
X67945000Y-88265000D03*
X67945000Y-86995000D03*
X66675000Y-86360000D03*
X66675000Y-87630000D03*
X66675000Y-88900000D03*
X66675000Y-90170000D03*
X66675000Y-91440000D03*
X66675000Y-92710000D03*
X66675000Y-93980000D03*
X62230000Y-105410000D03*
X64770000Y-105410000D03*
X73025000Y-103505000D03*
X71120000Y-105410000D03*
X61595000Y-99060000D03*
X61595000Y-95885000D03*
X80645000Y-76200000D03*
D25*
X66675000Y-96520000D02*
X66675000Y-95250000D01*
X66675000Y-99060000D02*
X66675000Y-97790000D01*
X67310000Y-100330000D02*
X66675000Y-100330000D01*
X67945000Y-100965000D02*
X67310000Y-100330000D01*
X67945000Y-98425000D02*
X67945000Y-99695000D01*
X67945000Y-95885000D02*
X67945000Y-97155000D01*
X67945000Y-93345000D02*
X67945000Y-94615000D01*
X67945000Y-90805000D02*
X67945000Y-92075000D01*
X67945000Y-88265000D02*
X67945000Y-89535000D01*
X67310000Y-86995000D02*
X67945000Y-86995000D01*
X66675000Y-86360000D02*
X67310000Y-86995000D01*
X66675000Y-88900000D02*
X66675000Y-87630000D01*
X66675000Y-91440000D02*
X66675000Y-90170000D01*
X66675000Y-93980000D02*
X66675000Y-92710000D01*
X45720000Y-69850000D02*
X53340000Y-62230000D01*
X53340000Y-62230000D02*
X54610000Y-62230000D01*
X49530000Y-69850000D02*
X52070000Y-67310000D01*
X59690000Y-62230000D02*
X60960000Y-62230000D01*
X58420000Y-63500000D02*
X59690000Y-62230000D01*
X58420000Y-66040000D02*
X58420000Y-63500000D01*
X57150000Y-67310000D02*
X58420000Y-66040000D01*
X52070000Y-67310000D02*
X57150000Y-67310000D01*
X48260000Y-76200000D02*
X49530000Y-76200000D01*
X66040000Y-62230000D02*
X67310000Y-62230000D01*
X64770000Y-63500000D02*
X66040000Y-62230000D01*
X64770000Y-64770000D02*
X64770000Y-63500000D01*
X62230000Y-67310000D02*
X64770000Y-64770000D01*
X59690000Y-67310000D02*
X62230000Y-67310000D01*
X57150000Y-69850000D02*
X59690000Y-67310000D01*
X53340000Y-69850000D02*
X57150000Y-69850000D01*
X52070000Y-71120000D02*
X53340000Y-69850000D01*
X52070000Y-73660000D02*
X52070000Y-71120000D01*
X49530000Y-76200000D02*
X52070000Y-73660000D01*
X85090000Y-69850000D02*
X82550000Y-67310000D01*
X76200000Y-62230000D02*
X73660000Y-62230000D01*
X77470000Y-63500000D02*
X76200000Y-62230000D01*
X77470000Y-66040000D02*
X77470000Y-63500000D01*
X78740000Y-67310000D02*
X77470000Y-66040000D01*
X82550000Y-67310000D02*
X78740000Y-67310000D01*
X88900000Y-69850000D02*
X81280000Y-62230000D01*
X81280000Y-62230000D02*
X80010000Y-62230000D01*
X81280000Y-101600000D02*
X81280000Y-104775000D01*
D26*
X54610000Y-77470000D02*
X45720000Y-77470000D01*
X45720000Y-83820000D02*
X45720000Y-77470000D01*
X45720000Y-77470000D02*
X45720000Y-76200000D01*
X88900000Y-78740000D02*
X88900000Y-72390000D01*
X81280000Y-87630000D02*
X83820000Y-85090000D01*
X83820000Y-85090000D02*
X83820000Y-73660000D01*
X54610000Y-76200000D02*
X54610000Y-74930000D01*
X54610000Y-74930000D02*
X55880000Y-73660000D01*
X55880000Y-73660000D02*
X83820000Y-73660000D01*
X83820000Y-73660000D02*
X85090000Y-72390000D01*
X88900000Y-72390000D02*
X85090000Y-72390000D01*
X81280000Y-96520000D02*
X81280000Y-93980000D01*
X81280000Y-91440000D02*
X81280000Y-93980000D01*
X74930000Y-86360000D02*
X80010000Y-86360000D01*
X81280000Y-87630000D02*
X81280000Y-88900000D01*
X80010000Y-86360000D02*
X81280000Y-87630000D01*
X81280000Y-88900000D02*
X81280000Y-91440000D01*
X74930000Y-86360000D02*
X73660000Y-86360000D01*
X73660000Y-86360000D02*
X71120000Y-83820000D01*
X54610000Y-80010000D02*
X54610000Y-77470000D01*
X54610000Y-77470000D02*
X54610000Y-76200000D01*
X45720000Y-72390000D02*
X49530000Y-72390000D01*
X45720000Y-76200000D02*
X45720000Y-72390000D01*
D25*
X59690000Y-88900000D02*
X50800000Y-88900000D01*
X48260000Y-86360000D02*
X45720000Y-86360000D01*
X50800000Y-88900000D02*
X48260000Y-86360000D01*
X59690000Y-91440000D02*
X50800000Y-91440000D01*
X48260000Y-88900000D02*
X45720000Y-88900000D01*
X50800000Y-91440000D02*
X48260000Y-88900000D01*
X74930000Y-83820000D02*
X81280000Y-83820000D01*
X61595000Y-94615000D02*
X61595000Y-89535000D01*
X62230000Y-88900000D02*
X63500000Y-88900000D01*
X61595000Y-89535000D02*
X62230000Y-88900000D01*
X57785000Y-95885000D02*
X58420000Y-95250000D01*
X60960000Y-95250000D02*
X61595000Y-94615000D01*
X58420000Y-95250000D02*
X60960000Y-95250000D01*
X52070000Y-106680000D02*
X52070000Y-105410000D01*
X57785000Y-97155000D02*
X57785000Y-95885000D01*
X56515000Y-98425000D02*
X57785000Y-97155000D01*
X56515000Y-103505000D02*
X56515000Y-98425000D01*
X55880000Y-104140000D02*
X56515000Y-103505000D01*
X53340000Y-104140000D02*
X55880000Y-104140000D01*
X52070000Y-105410000D02*
X53340000Y-104140000D01*
X63500000Y-96520000D02*
X62865000Y-96520000D01*
X62865000Y-96520000D02*
X61595000Y-97790000D01*
X61595000Y-97790000D02*
X58420000Y-97790000D01*
X58420000Y-97790000D02*
X57150000Y-99060000D01*
X57150000Y-99060000D02*
X57150000Y-104140000D01*
X57150000Y-104140000D02*
X54610000Y-106680000D01*
X71120000Y-96520000D02*
X69850000Y-97790000D01*
X69850000Y-102870000D02*
X72390000Y-105410000D01*
X69850000Y-97790000D02*
X69850000Y-102870000D01*
X72390000Y-105410000D02*
X72390000Y-106680000D01*
X80010000Y-100965000D02*
X80645000Y-100330000D01*
X80010000Y-102870000D02*
X80010000Y-100965000D01*
X79375000Y-103505000D02*
X80010000Y-102870000D01*
X79375000Y-106045000D02*
X79375000Y-103505000D01*
X77470000Y-107950000D02*
X79375000Y-106045000D01*
X73660000Y-107950000D02*
X77470000Y-107950000D01*
X72390000Y-106680000D02*
X73660000Y-107950000D01*
X90170000Y-95250000D02*
X88900000Y-95250000D01*
X90805000Y-95885000D02*
X90170000Y-95250000D01*
X90805000Y-99060000D02*
X90805000Y-95885000D01*
X89535000Y-100330000D02*
X90805000Y-99060000D01*
X80645000Y-100330000D02*
X89535000Y-100330000D01*
X72390000Y-102235000D02*
X71755000Y-102870000D01*
X77470000Y-104775000D02*
X77470000Y-100965000D01*
X76835000Y-105410000D02*
X77470000Y-104775000D01*
X73660000Y-105410000D02*
X76835000Y-105410000D01*
X71755000Y-103505000D02*
X73660000Y-105410000D01*
X71755000Y-102870000D02*
X71755000Y-103505000D01*
X72390000Y-90170000D02*
X72390000Y-102235000D01*
X88900000Y-99060000D02*
X88900000Y-97790000D01*
X77470000Y-100965000D02*
X78740000Y-99695000D01*
X78740000Y-99695000D02*
X88265000Y-99695000D01*
X88265000Y-99695000D02*
X88900000Y-99060000D01*
X71120000Y-88900000D02*
X72390000Y-90170000D01*
X74930000Y-88900000D02*
X78740000Y-88900000D01*
X74930000Y-96520000D02*
X75384002Y-96520000D01*
X74930000Y-93980000D02*
X78740000Y-93980000D01*
X78740000Y-91440000D02*
X74930000Y-91440000D01*
X74930000Y-106680000D02*
X77470000Y-106680000D01*
X78740000Y-105410000D02*
X78740000Y-101600000D01*
X77470000Y-106680000D02*
X78740000Y-105410000D01*
D26*
X63500000Y-101600000D02*
X63500000Y-107315000D01*
X47625000Y-96520000D02*
X45720000Y-96520000D01*
X49530000Y-98425000D02*
X47625000Y-96520000D01*
X49530000Y-107315000D02*
X49530000Y-98425000D01*
X50800000Y-108585000D02*
X49530000Y-107315000D01*
X62230000Y-108585000D02*
X50800000Y-108585000D01*
X63500000Y-107315000D02*
X62230000Y-108585000D01*
D25*
X57785000Y-100330000D02*
X57785000Y-104775000D01*
X57785000Y-104775000D02*
X58420000Y-105410000D01*
X58420000Y-105410000D02*
X62230000Y-105410000D01*
X59055000Y-99060000D02*
X57785000Y-100330000D01*
X73025000Y-103505000D02*
X73025000Y-87630000D01*
X71120000Y-105410000D02*
X64770000Y-105410000D01*
X59690000Y-99060000D02*
X59055000Y-99060000D01*
X71755000Y-86360000D02*
X73025000Y-87630000D01*
X71120000Y-86360000D02*
X71755000Y-86360000D01*
X64770000Y-87630000D02*
X64770000Y-89535000D01*
X62230000Y-95250000D02*
X61595000Y-95885000D01*
X62230000Y-90805000D02*
X62230000Y-95250000D01*
X62865000Y-90170000D02*
X62230000Y-90805000D01*
X64135000Y-90170000D02*
X62865000Y-90170000D01*
X64770000Y-89535000D02*
X64135000Y-90170000D01*
X61595000Y-99695000D02*
X61595000Y-99060000D01*
X61595000Y-99695000D02*
X59690000Y-101600000D01*
X64770000Y-87630000D02*
X63500000Y-86360000D01*
X61595000Y-102235000D02*
X61595000Y-100965000D01*
X61595000Y-100965000D02*
X63500000Y-99060000D01*
X59690000Y-104140000D02*
X61595000Y-102235000D01*
X59690000Y-78740000D02*
X60960000Y-78740000D01*
X63500000Y-81280000D02*
X63500000Y-83820000D01*
X60960000Y-78740000D02*
X63500000Y-81280000D01*
X57150000Y-76200000D02*
X80645000Y-76200000D01*
G36*
X52801184Y-61691185D02*
X45975647Y-68516723D01*
X45455914Y-68516269D01*
X44965620Y-68718854D01*
X44590173Y-69093647D01*
X44386732Y-69583587D01*
X44386269Y-70114086D01*
X44588854Y-70604380D01*
X44963647Y-70979827D01*
X45301446Y-71120094D01*
X44965620Y-71258854D01*
X44590173Y-71633647D01*
X44386732Y-72123587D01*
X44386269Y-72654086D01*
X44588854Y-73144380D01*
X44831000Y-73386949D01*
X44831000Y-75203240D01*
X44590173Y-75443647D01*
X44386732Y-75933587D01*
X44386269Y-76464086D01*
X44588854Y-76954380D01*
X44831000Y-77196949D01*
X44831000Y-82308960D01*
X44704000Y-82308960D01*
X44468683Y-82353238D01*
X44252559Y-82492310D01*
X44107569Y-82704510D01*
X44056560Y-82956400D01*
X44056560Y-84683600D01*
X44100838Y-84918917D01*
X44239910Y-85135041D01*
X44452110Y-85280031D01*
X44493439Y-85288400D01*
X44475585Y-85300330D01*
X44150729Y-85786511D01*
X44036655Y-86360000D01*
X44150729Y-86933489D01*
X44475585Y-87419670D01*
X44790366Y-87630000D01*
X44475585Y-87840330D01*
X44150729Y-88326511D01*
X44036655Y-88900000D01*
X44150729Y-89473489D01*
X44475585Y-89959670D01*
X44785069Y-90166461D01*
X44369268Y-90537964D01*
X44115291Y-91065209D01*
X44112642Y-91080974D01*
X44233783Y-91313000D01*
X45593000Y-91313000D01*
X45593000Y-91293000D01*
X45847000Y-91293000D01*
X45847000Y-91313000D01*
X47206217Y-91313000D01*
X47327358Y-91080974D01*
X47324709Y-91065209D01*
X47070732Y-90537964D01*
X46654931Y-90166461D01*
X46964415Y-89959670D01*
X47163312Y-89662000D01*
X47944370Y-89662000D01*
X50261184Y-91978815D01*
X50395584Y-92068618D01*
X50508395Y-92143996D01*
X50800000Y-92202000D01*
X58121484Y-92202000D01*
X58290332Y-92454698D01*
X58672418Y-92710000D01*
X58290332Y-92965302D01*
X57979263Y-93430849D01*
X57870030Y-93980000D01*
X57979263Y-94529151D01*
X58033079Y-94609692D01*
X57881185Y-94711184D01*
X57246185Y-95346185D01*
X57081004Y-95593395D01*
X57023000Y-95885000D01*
X57023000Y-96839369D01*
X55976185Y-97886185D01*
X55811004Y-98133395D01*
X55753000Y-98425000D01*
X55753000Y-103189369D01*
X55564370Y-103378000D01*
X53340000Y-103378000D01*
X53075970Y-103430519D01*
X53048395Y-103436004D01*
X52801184Y-103601185D01*
X51531186Y-104871184D01*
X51531185Y-104871185D01*
X51434048Y-105016560D01*
X51054000Y-105016560D01*
X50818683Y-105060838D01*
X50602559Y-105199910D01*
X50457569Y-105412110D01*
X50419000Y-105602569D01*
X50419000Y-98425000D01*
X50351329Y-98084794D01*
X50158618Y-97796382D01*
X48253618Y-95891382D01*
X48140807Y-95816004D01*
X47965206Y-95698671D01*
X47625000Y-95631000D01*
X47383440Y-95631000D01*
X47383440Y-95504000D01*
X47339162Y-95268683D01*
X47200090Y-95052559D01*
X46987890Y-94907569D01*
X46736000Y-94856560D01*
X44704000Y-94856560D01*
X44468683Y-94900838D01*
X44252559Y-95039910D01*
X44107569Y-95252110D01*
X44056560Y-95504000D01*
X44056560Y-97536000D01*
X44100838Y-97771317D01*
X44239910Y-97987441D01*
X44402948Y-98098840D01*
X44313615Y-98195182D01*
X44114025Y-98677056D01*
X44233164Y-98933000D01*
X45593000Y-98933000D01*
X45593000Y-98913000D01*
X45847000Y-98913000D01*
X45847000Y-98933000D01*
X47206836Y-98933000D01*
X47325975Y-98677056D01*
X47126385Y-98195182D01*
X47035903Y-98097602D01*
X47187441Y-98000090D01*
X47332431Y-97787890D01*
X47383440Y-97536000D01*
X47383440Y-97535676D01*
X48641000Y-98793236D01*
X48641000Y-107315000D01*
X48708671Y-107655206D01*
X48862688Y-107885708D01*
X48901382Y-107943618D01*
X49467764Y-108510000D01*
X45789931Y-108510000D01*
X45025011Y-108357848D01*
X44435830Y-107964170D01*
X44042152Y-107374989D01*
X43890000Y-106610069D01*
X43890000Y-99442944D01*
X44114025Y-99442944D01*
X44313615Y-99924818D01*
X44751621Y-100397188D01*
X45337054Y-100665983D01*
X45593000Y-100547367D01*
X45593000Y-99187000D01*
X45847000Y-99187000D01*
X45847000Y-100547367D01*
X46102946Y-100665983D01*
X46688379Y-100397188D01*
X47126385Y-99924818D01*
X47325975Y-99442944D01*
X47206836Y-99187000D01*
X45847000Y-99187000D01*
X45593000Y-99187000D01*
X44233164Y-99187000D01*
X44114025Y-99442944D01*
X43890000Y-99442944D01*
X43890000Y-91799026D01*
X44112642Y-91799026D01*
X44115291Y-91814791D01*
X44369268Y-92342036D01*
X44805680Y-92731954D01*
X45358087Y-92925184D01*
X45593000Y-92780924D01*
X45593000Y-91567000D01*
X45847000Y-91567000D01*
X45847000Y-92780924D01*
X46081913Y-92925184D01*
X46634320Y-92731954D01*
X47070732Y-92342036D01*
X47324709Y-91814791D01*
X47327358Y-91799026D01*
X47206217Y-91567000D01*
X45847000Y-91567000D01*
X45593000Y-91567000D01*
X44233783Y-91567000D01*
X44112642Y-91799026D01*
X43890000Y-91799026D01*
X43890000Y-63569931D01*
X44042152Y-62805011D01*
X44435830Y-62215830D01*
X45025011Y-61822152D01*
X45789931Y-61670000D01*
X52832890Y-61670000D01*
X52801184Y-61691185D01*
X52801184Y-61691185D01*
G37*
X52801184Y-61691185D02*
X45975647Y-68516723D01*
X45455914Y-68516269D01*
X44965620Y-68718854D01*
X44590173Y-69093647D01*
X44386732Y-69583587D01*
X44386269Y-70114086D01*
X44588854Y-70604380D01*
X44963647Y-70979827D01*
X45301446Y-71120094D01*
X44965620Y-71258854D01*
X44590173Y-71633647D01*
X44386732Y-72123587D01*
X44386269Y-72654086D01*
X44588854Y-73144380D01*
X44831000Y-73386949D01*
X44831000Y-75203240D01*
X44590173Y-75443647D01*
X44386732Y-75933587D01*
X44386269Y-76464086D01*
X44588854Y-76954380D01*
X44831000Y-77196949D01*
X44831000Y-82308960D01*
X44704000Y-82308960D01*
X44468683Y-82353238D01*
X44252559Y-82492310D01*
X44107569Y-82704510D01*
X44056560Y-82956400D01*
X44056560Y-84683600D01*
X44100838Y-84918917D01*
X44239910Y-85135041D01*
X44452110Y-85280031D01*
X44493439Y-85288400D01*
X44475585Y-85300330D01*
X44150729Y-85786511D01*
X44036655Y-86360000D01*
X44150729Y-86933489D01*
X44475585Y-87419670D01*
X44790366Y-87630000D01*
X44475585Y-87840330D01*
X44150729Y-88326511D01*
X44036655Y-88900000D01*
X44150729Y-89473489D01*
X44475585Y-89959670D01*
X44785069Y-90166461D01*
X44369268Y-90537964D01*
X44115291Y-91065209D01*
X44112642Y-91080974D01*
X44233783Y-91313000D01*
X45593000Y-91313000D01*
X45593000Y-91293000D01*
X45847000Y-91293000D01*
X45847000Y-91313000D01*
X47206217Y-91313000D01*
X47327358Y-91080974D01*
X47324709Y-91065209D01*
X47070732Y-90537964D01*
X46654931Y-90166461D01*
X46964415Y-89959670D01*
X47163312Y-89662000D01*
X47944370Y-89662000D01*
X50261184Y-91978815D01*
X50395584Y-92068618D01*
X50508395Y-92143996D01*
X50800000Y-92202000D01*
X58121484Y-92202000D01*
X58290332Y-92454698D01*
X58672418Y-92710000D01*
X58290332Y-92965302D01*
X57979263Y-93430849D01*
X57870030Y-93980000D01*
X57979263Y-94529151D01*
X58033079Y-94609692D01*
X57881185Y-94711184D01*
X57246185Y-95346185D01*
X57081004Y-95593395D01*
X57023000Y-95885000D01*
X57023000Y-96839369D01*
X55976185Y-97886185D01*
X55811004Y-98133395D01*
X55753000Y-98425000D01*
X55753000Y-103189369D01*
X55564370Y-103378000D01*
X53340000Y-103378000D01*
X53075970Y-103430519D01*
X53048395Y-103436004D01*
X52801184Y-103601185D01*
X51531186Y-104871184D01*
X51531185Y-104871185D01*
X51434048Y-105016560D01*
X51054000Y-105016560D01*
X50818683Y-105060838D01*
X50602559Y-105199910D01*
X50457569Y-105412110D01*
X50419000Y-105602569D01*
X50419000Y-98425000D01*
X50351329Y-98084794D01*
X50158618Y-97796382D01*
X48253618Y-95891382D01*
X48140807Y-95816004D01*
X47965206Y-95698671D01*
X47625000Y-95631000D01*
X47383440Y-95631000D01*
X47383440Y-95504000D01*
X47339162Y-95268683D01*
X47200090Y-95052559D01*
X46987890Y-94907569D01*
X46736000Y-94856560D01*
X44704000Y-94856560D01*
X44468683Y-94900838D01*
X44252559Y-95039910D01*
X44107569Y-95252110D01*
X44056560Y-95504000D01*
X44056560Y-97536000D01*
X44100838Y-97771317D01*
X44239910Y-97987441D01*
X44402948Y-98098840D01*
X44313615Y-98195182D01*
X44114025Y-98677056D01*
X44233164Y-98933000D01*
X45593000Y-98933000D01*
X45593000Y-98913000D01*
X45847000Y-98913000D01*
X45847000Y-98933000D01*
X47206836Y-98933000D01*
X47325975Y-98677056D01*
X47126385Y-98195182D01*
X47035903Y-98097602D01*
X47187441Y-98000090D01*
X47332431Y-97787890D01*
X47383440Y-97536000D01*
X47383440Y-97535676D01*
X48641000Y-98793236D01*
X48641000Y-107315000D01*
X48708671Y-107655206D01*
X48862688Y-107885708D01*
X48901382Y-107943618D01*
X49467764Y-108510000D01*
X45789931Y-108510000D01*
X45025011Y-108357848D01*
X44435830Y-107964170D01*
X44042152Y-107374989D01*
X43890000Y-106610069D01*
X43890000Y-99442944D01*
X44114025Y-99442944D01*
X44313615Y-99924818D01*
X44751621Y-100397188D01*
X45337054Y-100665983D01*
X45593000Y-100547367D01*
X45593000Y-99187000D01*
X45847000Y-99187000D01*
X45847000Y-100547367D01*
X46102946Y-100665983D01*
X46688379Y-100397188D01*
X47126385Y-99924818D01*
X47325975Y-99442944D01*
X47206836Y-99187000D01*
X45847000Y-99187000D01*
X45593000Y-99187000D01*
X44233164Y-99187000D01*
X44114025Y-99442944D01*
X43890000Y-99442944D01*
X43890000Y-91799026D01*
X44112642Y-91799026D01*
X44115291Y-91814791D01*
X44369268Y-92342036D01*
X44805680Y-92731954D01*
X45358087Y-92925184D01*
X45593000Y-92780924D01*
X45593000Y-91567000D01*
X45847000Y-91567000D01*
X45847000Y-92780924D01*
X46081913Y-92925184D01*
X46634320Y-92731954D01*
X47070732Y-92342036D01*
X47324709Y-91814791D01*
X47327358Y-91799026D01*
X47206217Y-91567000D01*
X45847000Y-91567000D01*
X45593000Y-91567000D01*
X44233783Y-91567000D01*
X44112642Y-91799026D01*
X43890000Y-91799026D01*
X43890000Y-63569931D01*
X44042152Y-62805011D01*
X44435830Y-62215830D01*
X45025011Y-61822152D01*
X45789931Y-61670000D01*
X52832890Y-61670000D01*
X52801184Y-61691185D01*
G36*
X90730000Y-106610069D02*
X90577848Y-107374989D01*
X90184170Y-107964170D01*
X89594989Y-108357848D01*
X88830069Y-108510000D01*
X82865837Y-108510000D01*
X82915000Y-108391310D01*
X82915000Y-107600750D01*
X82756250Y-107442000D01*
X81407000Y-107442000D01*
X81407000Y-107462000D01*
X81153000Y-107462000D01*
X81153000Y-107442000D01*
X79803750Y-107442000D01*
X79645000Y-107600750D01*
X79645000Y-108391310D01*
X79694163Y-108510000D01*
X77977110Y-108510000D01*
X78008815Y-108488815D01*
X79645000Y-106852630D01*
X79645000Y-107029250D01*
X79803750Y-107188000D01*
X81153000Y-107188000D01*
X81153000Y-107168000D01*
X81407000Y-107168000D01*
X81407000Y-107188000D01*
X82756250Y-107188000D01*
X82915000Y-107029250D01*
X82915000Y-106238690D01*
X82818327Y-106005301D01*
X82639698Y-105826673D01*
X82519749Y-105776988D01*
X82622914Y-105674003D01*
X82864724Y-105091659D01*
X82865275Y-104461107D01*
X82624481Y-103878343D01*
X82179003Y-103432086D01*
X82042000Y-103375197D01*
X82042000Y-102723539D01*
X82409827Y-102356353D01*
X82613268Y-101866413D01*
X82613731Y-101335914D01*
X82512948Y-101092000D01*
X89535000Y-101092000D01*
X89826605Y-101033996D01*
X90073815Y-100868815D01*
X90730000Y-100212631D01*
X90730000Y-106610069D01*
X90730000Y-106610069D01*
G37*
X90730000Y-106610069D02*
X90577848Y-107374989D01*
X90184170Y-107964170D01*
X89594989Y-108357848D01*
X88830069Y-108510000D01*
X82865837Y-108510000D01*
X82915000Y-108391310D01*
X82915000Y-107600750D01*
X82756250Y-107442000D01*
X81407000Y-107442000D01*
X81407000Y-107462000D01*
X81153000Y-107462000D01*
X81153000Y-107442000D01*
X79803750Y-107442000D01*
X79645000Y-107600750D01*
X79645000Y-108391310D01*
X79694163Y-108510000D01*
X77977110Y-108510000D01*
X78008815Y-108488815D01*
X79645000Y-106852630D01*
X79645000Y-107029250D01*
X79803750Y-107188000D01*
X81153000Y-107188000D01*
X81153000Y-107168000D01*
X81407000Y-107168000D01*
X81407000Y-107188000D01*
X82756250Y-107188000D01*
X82915000Y-107029250D01*
X82915000Y-106238690D01*
X82818327Y-106005301D01*
X82639698Y-105826673D01*
X82519749Y-105776988D01*
X82622914Y-105674003D01*
X82864724Y-105091659D01*
X82865275Y-104461107D01*
X82624481Y-103878343D01*
X82179003Y-103432086D01*
X82042000Y-103375197D01*
X82042000Y-102723539D01*
X82409827Y-102356353D01*
X82613268Y-101866413D01*
X82613731Y-101335914D01*
X82512948Y-101092000D01*
X89535000Y-101092000D01*
X89826605Y-101033996D01*
X90073815Y-100868815D01*
X90730000Y-100212631D01*
X90730000Y-106610069D01*
G36*
X82931000Y-82358670D02*
X82861690Y-82250959D01*
X82649490Y-82105969D01*
X82397600Y-82054960D01*
X80162400Y-82054960D01*
X79927083Y-82099238D01*
X79710959Y-82238310D01*
X79565969Y-82450510D01*
X79514960Y-82702400D01*
X79514960Y-83058000D01*
X76498516Y-83058000D01*
X76329668Y-82805302D01*
X75951849Y-82552851D01*
X76384500Y-82204896D01*
X76654367Y-81711819D01*
X76671904Y-81629039D01*
X76549915Y-81407000D01*
X75057000Y-81407000D01*
X75057000Y-81427000D01*
X74803000Y-81427000D01*
X74803000Y-81407000D01*
X73310085Y-81407000D01*
X73188096Y-81629039D01*
X73205633Y-81711819D01*
X73475500Y-82204896D01*
X73908151Y-82552851D01*
X73530332Y-82805302D01*
X73219263Y-83270849D01*
X73110030Y-83820000D01*
X73219263Y-84369151D01*
X73530332Y-84834698D01*
X73912418Y-85090000D01*
X73753453Y-85196217D01*
X72548956Y-83991720D01*
X72583113Y-83820000D01*
X72473880Y-83270849D01*
X72162811Y-82805302D01*
X71697264Y-82494233D01*
X71148113Y-82385000D01*
X71091887Y-82385000D01*
X70542736Y-82494233D01*
X70077189Y-82805302D01*
X69766120Y-83270849D01*
X69656887Y-83820000D01*
X69766120Y-84369151D01*
X70077189Y-84834698D01*
X70459275Y-85090000D01*
X70077189Y-85345302D01*
X69766120Y-85810849D01*
X69656887Y-86360000D01*
X69766120Y-86909151D01*
X70077189Y-87374698D01*
X70459275Y-87630000D01*
X70077189Y-87885302D01*
X69766120Y-88350849D01*
X69656887Y-88900000D01*
X69766120Y-89449151D01*
X70077189Y-89914698D01*
X70542736Y-90225767D01*
X71091887Y-90335000D01*
X71148113Y-90335000D01*
X71422742Y-90280373D01*
X71628000Y-90485631D01*
X71628000Y-95180456D01*
X71148113Y-95085000D01*
X71091887Y-95085000D01*
X70542736Y-95194233D01*
X70077189Y-95505302D01*
X69766120Y-95970849D01*
X69656887Y-96520000D01*
X69720843Y-96841527D01*
X69311185Y-97251185D01*
X69146004Y-97498395D01*
X69088000Y-97790000D01*
X69088000Y-102870000D01*
X69146004Y-103161605D01*
X69249413Y-103316367D01*
X69311185Y-103408815D01*
X70542749Y-104640380D01*
X70535115Y-104648000D01*
X65355194Y-104648000D01*
X65310253Y-104602980D01*
X64960295Y-104457665D01*
X64581367Y-104457335D01*
X64389000Y-104536820D01*
X64389000Y-102717471D01*
X64542811Y-102614698D01*
X64853880Y-102149151D01*
X64963113Y-101600000D01*
X64853880Y-101050849D01*
X64542811Y-100585302D01*
X64160725Y-100330000D01*
X64542811Y-100074698D01*
X64853880Y-99609151D01*
X64963113Y-99060000D01*
X64853880Y-98510849D01*
X64542811Y-98045302D01*
X64160725Y-97790000D01*
X64542811Y-97534698D01*
X64853880Y-97069151D01*
X64963113Y-96520000D01*
X64853880Y-95970849D01*
X64542811Y-95505302D01*
X64077264Y-95194233D01*
X63528113Y-95085000D01*
X63471887Y-95085000D01*
X62992000Y-95180456D01*
X62992000Y-91120630D01*
X63180631Y-90932000D01*
X64135000Y-90932000D01*
X64426605Y-90873996D01*
X64673815Y-90708815D01*
X65308816Y-90073815D01*
X65439391Y-89878395D01*
X65473996Y-89826605D01*
X65532000Y-89535000D01*
X65532000Y-87630000D01*
X65473996Y-87338395D01*
X65308815Y-87091184D01*
X64899157Y-86681527D01*
X64963113Y-86360000D01*
X64853880Y-85810849D01*
X64542811Y-85345302D01*
X64160725Y-85090000D01*
X64542811Y-84834698D01*
X64853880Y-84369151D01*
X64963113Y-83820000D01*
X64853880Y-83270849D01*
X64542811Y-82805302D01*
X64262000Y-82617670D01*
X64262000Y-81280000D01*
X64203996Y-80988395D01*
X64110308Y-80848181D01*
X64038815Y-80741184D01*
X62037631Y-78740000D01*
X73110030Y-78740000D01*
X73219263Y-79289151D01*
X73530332Y-79754698D01*
X73908151Y-80007149D01*
X73475500Y-80355104D01*
X73205633Y-80848181D01*
X73188096Y-80930961D01*
X73310085Y-81153000D01*
X74803000Y-81153000D01*
X74803000Y-81133000D01*
X75057000Y-81133000D01*
X75057000Y-81153000D01*
X76549915Y-81153000D01*
X76671904Y-80930961D01*
X76654367Y-80848181D01*
X76384500Y-80355104D01*
X75951849Y-80007149D01*
X76329668Y-79754698D01*
X76640737Y-79289151D01*
X76749970Y-78740000D01*
X76640737Y-78190849D01*
X76329668Y-77725302D01*
X75864121Y-77414233D01*
X75314970Y-77305000D01*
X74545030Y-77305000D01*
X73995879Y-77414233D01*
X73530332Y-77725302D01*
X73219263Y-78190849D01*
X73110030Y-78740000D01*
X62037631Y-78740000D01*
X61498815Y-78201185D01*
X61345313Y-78098618D01*
X61334107Y-78091130D01*
X61089668Y-77725302D01*
X60624121Y-77414233D01*
X60074970Y-77305000D01*
X59305030Y-77305000D01*
X58755879Y-77414233D01*
X58290332Y-77725302D01*
X57979263Y-78190849D01*
X57870030Y-78740000D01*
X57979263Y-79289151D01*
X58290332Y-79754698D01*
X58672418Y-80010000D01*
X58290332Y-80265302D01*
X57979263Y-80730849D01*
X57870030Y-81280000D01*
X57979263Y-81829151D01*
X58290332Y-82294698D01*
X58668151Y-82547149D01*
X58235500Y-82895104D01*
X57965633Y-83388181D01*
X57948096Y-83470961D01*
X58070085Y-83693000D01*
X59563000Y-83693000D01*
X59563000Y-83673000D01*
X59817000Y-83673000D01*
X59817000Y-83693000D01*
X61309915Y-83693000D01*
X61431904Y-83470961D01*
X61414367Y-83388181D01*
X61144500Y-82895104D01*
X60711849Y-82547149D01*
X61089668Y-82294698D01*
X61400737Y-81829151D01*
X61509970Y-81280000D01*
X61400737Y-80730849D01*
X61089668Y-80265302D01*
X60707582Y-80010000D01*
X60974213Y-79831843D01*
X62738000Y-81595631D01*
X62738000Y-82617670D01*
X62457189Y-82805302D01*
X62146120Y-83270849D01*
X62036887Y-83820000D01*
X62146120Y-84369151D01*
X62457189Y-84834698D01*
X62839275Y-85090000D01*
X62457189Y-85345302D01*
X62146120Y-85810849D01*
X62036887Y-86360000D01*
X62146120Y-86909151D01*
X62457189Y-87374698D01*
X62839275Y-87630000D01*
X62457189Y-87885302D01*
X62288341Y-88138000D01*
X62230000Y-88138000D01*
X61938395Y-88196004D01*
X61844687Y-88258618D01*
X61691185Y-88361184D01*
X61450640Y-88601729D01*
X61400737Y-88350849D01*
X61089668Y-87885302D01*
X60711849Y-87632851D01*
X61144500Y-87284896D01*
X61414367Y-86791819D01*
X61431904Y-86709039D01*
X61309915Y-86487000D01*
X59817000Y-86487000D01*
X59817000Y-86507000D01*
X59563000Y-86507000D01*
X59563000Y-86487000D01*
X58070085Y-86487000D01*
X57948096Y-86709039D01*
X57965633Y-86791819D01*
X58235500Y-87284896D01*
X58668151Y-87632851D01*
X58290332Y-87885302D01*
X58121484Y-88138000D01*
X51115631Y-88138000D01*
X48798815Y-85821185D01*
X48746922Y-85786511D01*
X48551605Y-85656004D01*
X48260000Y-85598000D01*
X47163312Y-85598000D01*
X46964415Y-85300330D01*
X46950087Y-85290757D01*
X46971317Y-85286762D01*
X47187441Y-85147690D01*
X47332431Y-84935490D01*
X47383440Y-84683600D01*
X47383440Y-84226400D01*
X52946560Y-84226400D01*
X52946560Y-85953600D01*
X52990838Y-86188917D01*
X53129910Y-86405041D01*
X53342110Y-86550031D01*
X53594000Y-86601040D01*
X55626000Y-86601040D01*
X55861317Y-86556762D01*
X56077441Y-86417690D01*
X56222431Y-86205490D01*
X56273440Y-85953600D01*
X56273440Y-84226400D01*
X56262647Y-84169039D01*
X57948096Y-84169039D01*
X57965633Y-84251819D01*
X58235500Y-84744896D01*
X58664607Y-85090000D01*
X58235500Y-85435104D01*
X57965633Y-85928181D01*
X57948096Y-86010961D01*
X58070085Y-86233000D01*
X59563000Y-86233000D01*
X59563000Y-83947000D01*
X59817000Y-83947000D01*
X59817000Y-86233000D01*
X61309915Y-86233000D01*
X61431904Y-86010961D01*
X61414367Y-85928181D01*
X61144500Y-85435104D01*
X60715393Y-85090000D01*
X61144500Y-84744896D01*
X61414367Y-84251819D01*
X61431904Y-84169039D01*
X61309915Y-83947000D01*
X59817000Y-83947000D01*
X59563000Y-83947000D01*
X58070085Y-83947000D01*
X57948096Y-84169039D01*
X56262647Y-84169039D01*
X56229162Y-83991083D01*
X56090090Y-83774959D01*
X55877890Y-83629969D01*
X55783073Y-83610768D01*
X55960732Y-83452036D01*
X56214709Y-82924791D01*
X56217358Y-82909026D01*
X56096217Y-82677000D01*
X54737000Y-82677000D01*
X54737000Y-82697000D01*
X54483000Y-82697000D01*
X54483000Y-82677000D01*
X53123783Y-82677000D01*
X53002642Y-82909026D01*
X53005291Y-82924791D01*
X53259268Y-83452036D01*
X53434845Y-83608907D01*
X53358683Y-83623238D01*
X53142559Y-83762310D01*
X52997569Y-83974510D01*
X52946560Y-84226400D01*
X47383440Y-84226400D01*
X47383440Y-82956400D01*
X47339162Y-82721083D01*
X47200090Y-82504959D01*
X46987890Y-82359969D01*
X46736000Y-82308960D01*
X46609000Y-82308960D01*
X46609000Y-78359000D01*
X53721000Y-78359000D01*
X53721000Y-78712849D01*
X53365585Y-78950330D01*
X53040729Y-79436511D01*
X52926655Y-80010000D01*
X53040729Y-80583489D01*
X53365585Y-81069670D01*
X53675069Y-81276461D01*
X53259268Y-81647964D01*
X53005291Y-82175209D01*
X53002642Y-82190974D01*
X53123783Y-82423000D01*
X54483000Y-82423000D01*
X54483000Y-82403000D01*
X54737000Y-82403000D01*
X54737000Y-82423000D01*
X56096217Y-82423000D01*
X56217358Y-82190974D01*
X56214709Y-82175209D01*
X55960732Y-81647964D01*
X55544931Y-81276461D01*
X55854415Y-81069670D01*
X56179271Y-80583489D01*
X56293345Y-80010000D01*
X56179271Y-79436511D01*
X55854415Y-78950330D01*
X55499000Y-78712849D01*
X55499000Y-77196760D01*
X55739827Y-76956353D01*
X55880094Y-76618554D01*
X56018854Y-76954380D01*
X56393647Y-77329827D01*
X56883587Y-77533268D01*
X57414086Y-77533731D01*
X57904380Y-77331146D01*
X58274170Y-76962000D01*
X80059806Y-76962000D01*
X80104747Y-77007020D01*
X80454705Y-77152335D01*
X80833633Y-77152665D01*
X81183843Y-77007961D01*
X81452020Y-76740253D01*
X81597335Y-76390295D01*
X81597665Y-76011367D01*
X81452961Y-75661157D01*
X81185253Y-75392980D01*
X80835295Y-75247665D01*
X80456367Y-75247335D01*
X80106157Y-75392039D01*
X80060115Y-75438000D01*
X58273539Y-75438000D01*
X57906353Y-75070173D01*
X57416413Y-74866732D01*
X56885914Y-74866269D01*
X56395620Y-75068854D01*
X56020173Y-75443647D01*
X55879906Y-75781446D01*
X55741146Y-75445620D01*
X55546551Y-75250685D01*
X56248236Y-74549000D01*
X82931000Y-74549000D01*
X82931000Y-82358670D01*
X82931000Y-82358670D01*
G37*
X82931000Y-82358670D02*
X82861690Y-82250959D01*
X82649490Y-82105969D01*
X82397600Y-82054960D01*
X80162400Y-82054960D01*
X79927083Y-82099238D01*
X79710959Y-82238310D01*
X79565969Y-82450510D01*
X79514960Y-82702400D01*
X79514960Y-83058000D01*
X76498516Y-83058000D01*
X76329668Y-82805302D01*
X75951849Y-82552851D01*
X76384500Y-82204896D01*
X76654367Y-81711819D01*
X76671904Y-81629039D01*
X76549915Y-81407000D01*
X75057000Y-81407000D01*
X75057000Y-81427000D01*
X74803000Y-81427000D01*
X74803000Y-81407000D01*
X73310085Y-81407000D01*
X73188096Y-81629039D01*
X73205633Y-81711819D01*
X73475500Y-82204896D01*
X73908151Y-82552851D01*
X73530332Y-82805302D01*
X73219263Y-83270849D01*
X73110030Y-83820000D01*
X73219263Y-84369151D01*
X73530332Y-84834698D01*
X73912418Y-85090000D01*
X73753453Y-85196217D01*
X72548956Y-83991720D01*
X72583113Y-83820000D01*
X72473880Y-83270849D01*
X72162811Y-82805302D01*
X71697264Y-82494233D01*
X71148113Y-82385000D01*
X71091887Y-82385000D01*
X70542736Y-82494233D01*
X70077189Y-82805302D01*
X69766120Y-83270849D01*
X69656887Y-83820000D01*
X69766120Y-84369151D01*
X70077189Y-84834698D01*
X70459275Y-85090000D01*
X70077189Y-85345302D01*
X69766120Y-85810849D01*
X69656887Y-86360000D01*
X69766120Y-86909151D01*
X70077189Y-87374698D01*
X70459275Y-87630000D01*
X70077189Y-87885302D01*
X69766120Y-88350849D01*
X69656887Y-88900000D01*
X69766120Y-89449151D01*
X70077189Y-89914698D01*
X70542736Y-90225767D01*
X71091887Y-90335000D01*
X71148113Y-90335000D01*
X71422742Y-90280373D01*
X71628000Y-90485631D01*
X71628000Y-95180456D01*
X71148113Y-95085000D01*
X71091887Y-95085000D01*
X70542736Y-95194233D01*
X70077189Y-95505302D01*
X69766120Y-95970849D01*
X69656887Y-96520000D01*
X69720843Y-96841527D01*
X69311185Y-97251185D01*
X69146004Y-97498395D01*
X69088000Y-97790000D01*
X69088000Y-102870000D01*
X69146004Y-103161605D01*
X69249413Y-103316367D01*
X69311185Y-103408815D01*
X70542749Y-104640380D01*
X70535115Y-104648000D01*
X65355194Y-104648000D01*
X65310253Y-104602980D01*
X64960295Y-104457665D01*
X64581367Y-104457335D01*
X64389000Y-104536820D01*
X64389000Y-102717471D01*
X64542811Y-102614698D01*
X64853880Y-102149151D01*
X64963113Y-101600000D01*
X64853880Y-101050849D01*
X64542811Y-100585302D01*
X64160725Y-100330000D01*
X64542811Y-100074698D01*
X64853880Y-99609151D01*
X64963113Y-99060000D01*
X64853880Y-98510849D01*
X64542811Y-98045302D01*
X64160725Y-97790000D01*
X64542811Y-97534698D01*
X64853880Y-97069151D01*
X64963113Y-96520000D01*
X64853880Y-95970849D01*
X64542811Y-95505302D01*
X64077264Y-95194233D01*
X63528113Y-95085000D01*
X63471887Y-95085000D01*
X62992000Y-95180456D01*
X62992000Y-91120630D01*
X63180631Y-90932000D01*
X64135000Y-90932000D01*
X64426605Y-90873996D01*
X64673815Y-90708815D01*
X65308816Y-90073815D01*
X65439391Y-89878395D01*
X65473996Y-89826605D01*
X65532000Y-89535000D01*
X65532000Y-87630000D01*
X65473996Y-87338395D01*
X65308815Y-87091184D01*
X64899157Y-86681527D01*
X64963113Y-86360000D01*
X64853880Y-85810849D01*
X64542811Y-85345302D01*
X64160725Y-85090000D01*
X64542811Y-84834698D01*
X64853880Y-84369151D01*
X64963113Y-83820000D01*
X64853880Y-83270849D01*
X64542811Y-82805302D01*
X64262000Y-82617670D01*
X64262000Y-81280000D01*
X64203996Y-80988395D01*
X64110308Y-80848181D01*
X64038815Y-80741184D01*
X62037631Y-78740000D01*
X73110030Y-78740000D01*
X73219263Y-79289151D01*
X73530332Y-79754698D01*
X73908151Y-80007149D01*
X73475500Y-80355104D01*
X73205633Y-80848181D01*
X73188096Y-80930961D01*
X73310085Y-81153000D01*
X74803000Y-81153000D01*
X74803000Y-81133000D01*
X75057000Y-81133000D01*
X75057000Y-81153000D01*
X76549915Y-81153000D01*
X76671904Y-80930961D01*
X76654367Y-80848181D01*
X76384500Y-80355104D01*
X75951849Y-80007149D01*
X76329668Y-79754698D01*
X76640737Y-79289151D01*
X76749970Y-78740000D01*
X76640737Y-78190849D01*
X76329668Y-77725302D01*
X75864121Y-77414233D01*
X75314970Y-77305000D01*
X74545030Y-77305000D01*
X73995879Y-77414233D01*
X73530332Y-77725302D01*
X73219263Y-78190849D01*
X73110030Y-78740000D01*
X62037631Y-78740000D01*
X61498815Y-78201185D01*
X61345313Y-78098618D01*
X61334107Y-78091130D01*
X61089668Y-77725302D01*
X60624121Y-77414233D01*
X60074970Y-77305000D01*
X59305030Y-77305000D01*
X58755879Y-77414233D01*
X58290332Y-77725302D01*
X57979263Y-78190849D01*
X57870030Y-78740000D01*
X57979263Y-79289151D01*
X58290332Y-79754698D01*
X58672418Y-80010000D01*
X58290332Y-80265302D01*
X57979263Y-80730849D01*
X57870030Y-81280000D01*
X57979263Y-81829151D01*
X58290332Y-82294698D01*
X58668151Y-82547149D01*
X58235500Y-82895104D01*
X57965633Y-83388181D01*
X57948096Y-83470961D01*
X58070085Y-83693000D01*
X59563000Y-83693000D01*
X59563000Y-83673000D01*
X59817000Y-83673000D01*
X59817000Y-83693000D01*
X61309915Y-83693000D01*
X61431904Y-83470961D01*
X61414367Y-83388181D01*
X61144500Y-82895104D01*
X60711849Y-82547149D01*
X61089668Y-82294698D01*
X61400737Y-81829151D01*
X61509970Y-81280000D01*
X61400737Y-80730849D01*
X61089668Y-80265302D01*
X60707582Y-80010000D01*
X60974213Y-79831843D01*
X62738000Y-81595631D01*
X62738000Y-82617670D01*
X62457189Y-82805302D01*
X62146120Y-83270849D01*
X62036887Y-83820000D01*
X62146120Y-84369151D01*
X62457189Y-84834698D01*
X62839275Y-85090000D01*
X62457189Y-85345302D01*
X62146120Y-85810849D01*
X62036887Y-86360000D01*
X62146120Y-86909151D01*
X62457189Y-87374698D01*
X62839275Y-87630000D01*
X62457189Y-87885302D01*
X62288341Y-88138000D01*
X62230000Y-88138000D01*
X61938395Y-88196004D01*
X61844687Y-88258618D01*
X61691185Y-88361184D01*
X61450640Y-88601729D01*
X61400737Y-88350849D01*
X61089668Y-87885302D01*
X60711849Y-87632851D01*
X61144500Y-87284896D01*
X61414367Y-86791819D01*
X61431904Y-86709039D01*
X61309915Y-86487000D01*
X59817000Y-86487000D01*
X59817000Y-86507000D01*
X59563000Y-86507000D01*
X59563000Y-86487000D01*
X58070085Y-86487000D01*
X57948096Y-86709039D01*
X57965633Y-86791819D01*
X58235500Y-87284896D01*
X58668151Y-87632851D01*
X58290332Y-87885302D01*
X58121484Y-88138000D01*
X51115631Y-88138000D01*
X48798815Y-85821185D01*
X48746922Y-85786511D01*
X48551605Y-85656004D01*
X48260000Y-85598000D01*
X47163312Y-85598000D01*
X46964415Y-85300330D01*
X46950087Y-85290757D01*
X46971317Y-85286762D01*
X47187441Y-85147690D01*
X47332431Y-84935490D01*
X47383440Y-84683600D01*
X47383440Y-84226400D01*
X52946560Y-84226400D01*
X52946560Y-85953600D01*
X52990838Y-86188917D01*
X53129910Y-86405041D01*
X53342110Y-86550031D01*
X53594000Y-86601040D01*
X55626000Y-86601040D01*
X55861317Y-86556762D01*
X56077441Y-86417690D01*
X56222431Y-86205490D01*
X56273440Y-85953600D01*
X56273440Y-84226400D01*
X56262647Y-84169039D01*
X57948096Y-84169039D01*
X57965633Y-84251819D01*
X58235500Y-84744896D01*
X58664607Y-85090000D01*
X58235500Y-85435104D01*
X57965633Y-85928181D01*
X57948096Y-86010961D01*
X58070085Y-86233000D01*
X59563000Y-86233000D01*
X59563000Y-83947000D01*
X59817000Y-83947000D01*
X59817000Y-86233000D01*
X61309915Y-86233000D01*
X61431904Y-86010961D01*
X61414367Y-85928181D01*
X61144500Y-85435104D01*
X60715393Y-85090000D01*
X61144500Y-84744896D01*
X61414367Y-84251819D01*
X61431904Y-84169039D01*
X61309915Y-83947000D01*
X59817000Y-83947000D01*
X59563000Y-83947000D01*
X58070085Y-83947000D01*
X57948096Y-84169039D01*
X56262647Y-84169039D01*
X56229162Y-83991083D01*
X56090090Y-83774959D01*
X55877890Y-83629969D01*
X55783073Y-83610768D01*
X55960732Y-83452036D01*
X56214709Y-82924791D01*
X56217358Y-82909026D01*
X56096217Y-82677000D01*
X54737000Y-82677000D01*
X54737000Y-82697000D01*
X54483000Y-82697000D01*
X54483000Y-82677000D01*
X53123783Y-82677000D01*
X53002642Y-82909026D01*
X53005291Y-82924791D01*
X53259268Y-83452036D01*
X53434845Y-83608907D01*
X53358683Y-83623238D01*
X53142559Y-83762310D01*
X52997569Y-83974510D01*
X52946560Y-84226400D01*
X47383440Y-84226400D01*
X47383440Y-82956400D01*
X47339162Y-82721083D01*
X47200090Y-82504959D01*
X46987890Y-82359969D01*
X46736000Y-82308960D01*
X46609000Y-82308960D01*
X46609000Y-78359000D01*
X53721000Y-78359000D01*
X53721000Y-78712849D01*
X53365585Y-78950330D01*
X53040729Y-79436511D01*
X52926655Y-80010000D01*
X53040729Y-80583489D01*
X53365585Y-81069670D01*
X53675069Y-81276461D01*
X53259268Y-81647964D01*
X53005291Y-82175209D01*
X53002642Y-82190974D01*
X53123783Y-82423000D01*
X54483000Y-82423000D01*
X54483000Y-82403000D01*
X54737000Y-82403000D01*
X54737000Y-82423000D01*
X56096217Y-82423000D01*
X56217358Y-82190974D01*
X56214709Y-82175209D01*
X55960732Y-81647964D01*
X55544931Y-81276461D01*
X55854415Y-81069670D01*
X56179271Y-80583489D01*
X56293345Y-80010000D01*
X56179271Y-79436511D01*
X55854415Y-78950330D01*
X55499000Y-78712849D01*
X55499000Y-77196760D01*
X55739827Y-76956353D01*
X55880094Y-76618554D01*
X56018854Y-76954380D01*
X56393647Y-77329827D01*
X56883587Y-77533268D01*
X57414086Y-77533731D01*
X57904380Y-77331146D01*
X58274170Y-76962000D01*
X80059806Y-76962000D01*
X80104747Y-77007020D01*
X80454705Y-77152335D01*
X80833633Y-77152665D01*
X81183843Y-77007961D01*
X81452020Y-76740253D01*
X81597335Y-76390295D01*
X81597665Y-76011367D01*
X81452961Y-75661157D01*
X81185253Y-75392980D01*
X80835295Y-75247665D01*
X80456367Y-75247335D01*
X80106157Y-75392039D01*
X80060115Y-75438000D01*
X58273539Y-75438000D01*
X57906353Y-75070173D01*
X57416413Y-74866732D01*
X56885914Y-74866269D01*
X56395620Y-75068854D01*
X56020173Y-75443647D01*
X55879906Y-75781446D01*
X55741146Y-75445620D01*
X55546551Y-75250685D01*
X56248236Y-74549000D01*
X82931000Y-74549000D01*
X82931000Y-82358670D01*
G36*
X89594989Y-61822152D02*
X90184170Y-62215830D01*
X90577848Y-62805011D01*
X90730000Y-63569931D01*
X90730000Y-94732370D01*
X90708815Y-94711185D01*
X90563440Y-94614049D01*
X90563440Y-94234000D01*
X90519162Y-93998683D01*
X90380090Y-93782559D01*
X90167890Y-93637569D01*
X89916000Y-93586560D01*
X87884000Y-93586560D01*
X87648683Y-93630838D01*
X87432559Y-93769910D01*
X87287569Y-93982110D01*
X87236560Y-94234000D01*
X87236560Y-96266000D01*
X87280838Y-96501317D01*
X87419910Y-96717441D01*
X87568837Y-96819198D01*
X87342330Y-97158190D01*
X87216655Y-97790000D01*
X87342330Y-98421810D01*
X87683896Y-98933000D01*
X78740000Y-98933000D01*
X78448395Y-98991004D01*
X78201184Y-99156185D01*
X76931185Y-100426185D01*
X76766004Y-100673395D01*
X76708000Y-100965000D01*
X76708000Y-101389003D01*
X76640737Y-101050849D01*
X76329668Y-100585302D01*
X75947582Y-100330000D01*
X76329668Y-100074698D01*
X76640737Y-99609151D01*
X76749970Y-99060000D01*
X76640737Y-98510849D01*
X76329668Y-98045302D01*
X75947582Y-97790000D01*
X76329668Y-97534698D01*
X76640737Y-97069151D01*
X76749970Y-96520000D01*
X76640737Y-95970849D01*
X76329668Y-95505302D01*
X75947582Y-95250000D01*
X76329668Y-94994698D01*
X76498516Y-94742000D01*
X77616461Y-94742000D01*
X77983647Y-95109827D01*
X78321446Y-95250094D01*
X77985620Y-95388854D01*
X77610173Y-95763647D01*
X77406732Y-96253587D01*
X77406269Y-96784086D01*
X77608854Y-97274380D01*
X77983647Y-97649827D01*
X78473587Y-97853268D01*
X79004086Y-97853731D01*
X79494380Y-97651146D01*
X79869827Y-97276353D01*
X80010094Y-96938554D01*
X80148854Y-97274380D01*
X80523647Y-97649827D01*
X81013587Y-97853268D01*
X81544086Y-97853731D01*
X82034380Y-97651146D01*
X82409827Y-97276353D01*
X82613268Y-96786413D01*
X82613731Y-96255914D01*
X82411146Y-95765620D01*
X82169000Y-95523051D01*
X82169000Y-94976760D01*
X82409827Y-94736353D01*
X82613268Y-94246413D01*
X82613731Y-93715914D01*
X82411146Y-93225620D01*
X82169000Y-92983051D01*
X82169000Y-92436760D01*
X82409827Y-92196353D01*
X82613268Y-91706413D01*
X82613731Y-91175914D01*
X82411146Y-90685620D01*
X82169000Y-90443051D01*
X82169000Y-89896760D01*
X82409827Y-89656353D01*
X82613268Y-89166413D01*
X82613731Y-88635914D01*
X82411146Y-88145620D01*
X82216551Y-87950685D01*
X83448210Y-86719026D01*
X87292642Y-86719026D01*
X87295291Y-86734791D01*
X87549268Y-87262036D01*
X87985680Y-87651954D01*
X88538087Y-87845184D01*
X88773000Y-87700924D01*
X88773000Y-86487000D01*
X89027000Y-86487000D01*
X89027000Y-87700924D01*
X89261913Y-87845184D01*
X89814320Y-87651954D01*
X90250732Y-87262036D01*
X90504709Y-86734791D01*
X90507358Y-86719026D01*
X90386217Y-86487000D01*
X89027000Y-86487000D01*
X88773000Y-86487000D01*
X87413783Y-86487000D01*
X87292642Y-86719026D01*
X83448210Y-86719026D01*
X84448618Y-85718618D01*
X84641329Y-85430206D01*
X84709000Y-85090000D01*
X84709000Y-74028236D01*
X85013802Y-73723434D01*
X85354086Y-73723731D01*
X85844380Y-73521146D01*
X86086949Y-73279000D01*
X87903240Y-73279000D01*
X88011000Y-73386949D01*
X88011000Y-77228960D01*
X87884000Y-77228960D01*
X87648683Y-77273238D01*
X87432559Y-77412310D01*
X87287569Y-77624510D01*
X87236560Y-77876400D01*
X87236560Y-79603600D01*
X87280838Y-79838917D01*
X87419910Y-80055041D01*
X87632110Y-80200031D01*
X87673439Y-80208400D01*
X87655585Y-80220330D01*
X87330729Y-80706511D01*
X87216655Y-81280000D01*
X87330729Y-81853489D01*
X87655585Y-82339670D01*
X87970366Y-82550000D01*
X87655585Y-82760330D01*
X87330729Y-83246511D01*
X87216655Y-83820000D01*
X87330729Y-84393489D01*
X87655585Y-84879670D01*
X87965069Y-85086461D01*
X87549268Y-85457964D01*
X87295291Y-85985209D01*
X87292642Y-86000974D01*
X87413783Y-86233000D01*
X88773000Y-86233000D01*
X88773000Y-86213000D01*
X89027000Y-86213000D01*
X89027000Y-86233000D01*
X90386217Y-86233000D01*
X90507358Y-86000974D01*
X90504709Y-85985209D01*
X90250732Y-85457964D01*
X89834931Y-85086461D01*
X90144415Y-84879670D01*
X90469271Y-84393489D01*
X90583345Y-83820000D01*
X90469271Y-83246511D01*
X90144415Y-82760330D01*
X89829634Y-82550000D01*
X90144415Y-82339670D01*
X90469271Y-81853489D01*
X90583345Y-81280000D01*
X90469271Y-80706511D01*
X90144415Y-80220330D01*
X90130087Y-80210757D01*
X90151317Y-80206762D01*
X90367441Y-80067690D01*
X90512431Y-79855490D01*
X90563440Y-79603600D01*
X90563440Y-77876400D01*
X90519162Y-77641083D01*
X90380090Y-77424959D01*
X90167890Y-77279969D01*
X89916000Y-77228960D01*
X89789000Y-77228960D01*
X89789000Y-73386760D01*
X90029827Y-73146353D01*
X90233268Y-72656413D01*
X90233731Y-72125914D01*
X90031146Y-71635620D01*
X89656353Y-71260173D01*
X89318554Y-71119906D01*
X89654380Y-70981146D01*
X90029827Y-70606353D01*
X90233268Y-70116413D01*
X90233731Y-69585914D01*
X90031146Y-69095620D01*
X89656353Y-68720173D01*
X89166413Y-68516732D01*
X88643907Y-68516276D01*
X81818815Y-61691185D01*
X81787110Y-61670000D01*
X88830069Y-61670000D01*
X89594989Y-61822152D01*
X89594989Y-61822152D01*
G37*
X89594989Y-61822152D02*
X90184170Y-62215830D01*
X90577848Y-62805011D01*
X90730000Y-63569931D01*
X90730000Y-94732370D01*
X90708815Y-94711185D01*
X90563440Y-94614049D01*
X90563440Y-94234000D01*
X90519162Y-93998683D01*
X90380090Y-93782559D01*
X90167890Y-93637569D01*
X89916000Y-93586560D01*
X87884000Y-93586560D01*
X87648683Y-93630838D01*
X87432559Y-93769910D01*
X87287569Y-93982110D01*
X87236560Y-94234000D01*
X87236560Y-96266000D01*
X87280838Y-96501317D01*
X87419910Y-96717441D01*
X87568837Y-96819198D01*
X87342330Y-97158190D01*
X87216655Y-97790000D01*
X87342330Y-98421810D01*
X87683896Y-98933000D01*
X78740000Y-98933000D01*
X78448395Y-98991004D01*
X78201184Y-99156185D01*
X76931185Y-100426185D01*
X76766004Y-100673395D01*
X76708000Y-100965000D01*
X76708000Y-101389003D01*
X76640737Y-101050849D01*
X76329668Y-100585302D01*
X75947582Y-100330000D01*
X76329668Y-100074698D01*
X76640737Y-99609151D01*
X76749970Y-99060000D01*
X76640737Y-98510849D01*
X76329668Y-98045302D01*
X75947582Y-97790000D01*
X76329668Y-97534698D01*
X76640737Y-97069151D01*
X76749970Y-96520000D01*
X76640737Y-95970849D01*
X76329668Y-95505302D01*
X75947582Y-95250000D01*
X76329668Y-94994698D01*
X76498516Y-94742000D01*
X77616461Y-94742000D01*
X77983647Y-95109827D01*
X78321446Y-95250094D01*
X77985620Y-95388854D01*
X77610173Y-95763647D01*
X77406732Y-96253587D01*
X77406269Y-96784086D01*
X77608854Y-97274380D01*
X77983647Y-97649827D01*
X78473587Y-97853268D01*
X79004086Y-97853731D01*
X79494380Y-97651146D01*
X79869827Y-97276353D01*
X80010094Y-96938554D01*
X80148854Y-97274380D01*
X80523647Y-97649827D01*
X81013587Y-97853268D01*
X81544086Y-97853731D01*
X82034380Y-97651146D01*
X82409827Y-97276353D01*
X82613268Y-96786413D01*
X82613731Y-96255914D01*
X82411146Y-95765620D01*
X82169000Y-95523051D01*
X82169000Y-94976760D01*
X82409827Y-94736353D01*
X82613268Y-94246413D01*
X82613731Y-93715914D01*
X82411146Y-93225620D01*
X82169000Y-92983051D01*
X82169000Y-92436760D01*
X82409827Y-92196353D01*
X82613268Y-91706413D01*
X82613731Y-91175914D01*
X82411146Y-90685620D01*
X82169000Y-90443051D01*
X82169000Y-89896760D01*
X82409827Y-89656353D01*
X82613268Y-89166413D01*
X82613731Y-88635914D01*
X82411146Y-88145620D01*
X82216551Y-87950685D01*
X83448210Y-86719026D01*
X87292642Y-86719026D01*
X87295291Y-86734791D01*
X87549268Y-87262036D01*
X87985680Y-87651954D01*
X88538087Y-87845184D01*
X88773000Y-87700924D01*
X88773000Y-86487000D01*
X89027000Y-86487000D01*
X89027000Y-87700924D01*
X89261913Y-87845184D01*
X89814320Y-87651954D01*
X90250732Y-87262036D01*
X90504709Y-86734791D01*
X90507358Y-86719026D01*
X90386217Y-86487000D01*
X89027000Y-86487000D01*
X88773000Y-86487000D01*
X87413783Y-86487000D01*
X87292642Y-86719026D01*
X83448210Y-86719026D01*
X84448618Y-85718618D01*
X84641329Y-85430206D01*
X84709000Y-85090000D01*
X84709000Y-74028236D01*
X85013802Y-73723434D01*
X85354086Y-73723731D01*
X85844380Y-73521146D01*
X86086949Y-73279000D01*
X87903240Y-73279000D01*
X88011000Y-73386949D01*
X88011000Y-77228960D01*
X87884000Y-77228960D01*
X87648683Y-77273238D01*
X87432559Y-77412310D01*
X87287569Y-77624510D01*
X87236560Y-77876400D01*
X87236560Y-79603600D01*
X87280838Y-79838917D01*
X87419910Y-80055041D01*
X87632110Y-80200031D01*
X87673439Y-80208400D01*
X87655585Y-80220330D01*
X87330729Y-80706511D01*
X87216655Y-81280000D01*
X87330729Y-81853489D01*
X87655585Y-82339670D01*
X87970366Y-82550000D01*
X87655585Y-82760330D01*
X87330729Y-83246511D01*
X87216655Y-83820000D01*
X87330729Y-84393489D01*
X87655585Y-84879670D01*
X87965069Y-85086461D01*
X87549268Y-85457964D01*
X87295291Y-85985209D01*
X87292642Y-86000974D01*
X87413783Y-86233000D01*
X88773000Y-86233000D01*
X88773000Y-86213000D01*
X89027000Y-86213000D01*
X89027000Y-86233000D01*
X90386217Y-86233000D01*
X90507358Y-86000974D01*
X90504709Y-85985209D01*
X90250732Y-85457964D01*
X89834931Y-85086461D01*
X90144415Y-84879670D01*
X90469271Y-84393489D01*
X90583345Y-83820000D01*
X90469271Y-83246511D01*
X90144415Y-82760330D01*
X89829634Y-82550000D01*
X90144415Y-82339670D01*
X90469271Y-81853489D01*
X90583345Y-81280000D01*
X90469271Y-80706511D01*
X90144415Y-80220330D01*
X90130087Y-80210757D01*
X90151317Y-80206762D01*
X90367441Y-80067690D01*
X90512431Y-79855490D01*
X90563440Y-79603600D01*
X90563440Y-77876400D01*
X90519162Y-77641083D01*
X90380090Y-77424959D01*
X90167890Y-77279969D01*
X89916000Y-77228960D01*
X89789000Y-77228960D01*
X89789000Y-73386760D01*
X90029827Y-73146353D01*
X90233268Y-72656413D01*
X90233731Y-72125914D01*
X90031146Y-71635620D01*
X89656353Y-71260173D01*
X89318554Y-71119906D01*
X89654380Y-70981146D01*
X90029827Y-70606353D01*
X90233268Y-70116413D01*
X90233731Y-69585914D01*
X90031146Y-69095620D01*
X89656353Y-68720173D01*
X89166413Y-68516732D01*
X88643907Y-68516276D01*
X81818815Y-61691185D01*
X81787110Y-61670000D01*
X88830069Y-61670000D01*
X89594989Y-61822152D01*
G36*
X72075276Y-61913341D02*
X72074725Y-62543893D01*
X72315519Y-63126657D01*
X72420545Y-63231867D01*
X72300302Y-63281673D01*
X72121673Y-63460301D01*
X72025000Y-63693690D01*
X72025000Y-64484250D01*
X72183750Y-64643000D01*
X73533000Y-64643000D01*
X73533000Y-64623000D01*
X73787000Y-64623000D01*
X73787000Y-64643000D01*
X75136250Y-64643000D01*
X75295000Y-64484250D01*
X75295000Y-63693690D01*
X75198327Y-63460301D01*
X75019698Y-63281673D01*
X74899749Y-63231988D01*
X75002914Y-63129003D01*
X75059803Y-62992000D01*
X75884370Y-62992000D01*
X76708000Y-63815631D01*
X76708000Y-66040000D01*
X76766004Y-66331605D01*
X76910595Y-66548000D01*
X76931185Y-66578815D01*
X78201184Y-67848815D01*
X78448395Y-68013996D01*
X78634672Y-68051049D01*
X78555032Y-68220973D01*
X78675531Y-68453000D01*
X79883000Y-68453000D01*
X79883000Y-68433000D01*
X80137000Y-68433000D01*
X80137000Y-68453000D01*
X81344469Y-68453000D01*
X81464968Y-68220973D01*
X81395148Y-68072000D01*
X82234370Y-68072000D01*
X83756723Y-69594353D01*
X83756269Y-70114086D01*
X83958854Y-70604380D01*
X84333647Y-70979827D01*
X84671446Y-71120094D01*
X84335620Y-71258854D01*
X83960173Y-71633647D01*
X83756732Y-72123587D01*
X83756433Y-72466331D01*
X83451764Y-72771000D01*
X55880000Y-72771000D01*
X55539794Y-72838671D01*
X55451001Y-72898001D01*
X55251382Y-73031382D01*
X53981382Y-74301382D01*
X53788671Y-74589794D01*
X53721000Y-74930000D01*
X53721000Y-75203240D01*
X53480173Y-75443647D01*
X53276732Y-75933587D01*
X53276269Y-76464086D01*
X53324577Y-76581000D01*
X50226630Y-76581000D01*
X52608815Y-74198816D01*
X52773996Y-73951605D01*
X52832000Y-73660000D01*
X52832000Y-71435630D01*
X53098960Y-71168670D01*
X53098960Y-71983600D01*
X53143238Y-72218917D01*
X53282310Y-72435041D01*
X53494510Y-72580031D01*
X53746400Y-72631040D01*
X55473600Y-72631040D01*
X55708917Y-72586762D01*
X55925041Y-72447690D01*
X56070031Y-72235490D01*
X56121040Y-71983600D01*
X56121040Y-70612000D01*
X57150000Y-70612000D01*
X57441605Y-70553996D01*
X57688815Y-70388815D01*
X59461400Y-68616230D01*
X59461400Y-68707002D01*
X59625530Y-68707002D01*
X59505032Y-68939027D01*
X59753179Y-69468490D01*
X59939433Y-69638495D01*
X59861083Y-69653238D01*
X59644959Y-69792310D01*
X59499969Y-70004510D01*
X59448960Y-70256400D01*
X59448960Y-71983600D01*
X59493238Y-72218917D01*
X59632310Y-72435041D01*
X59844510Y-72580031D01*
X60096400Y-72631040D01*
X61823600Y-72631040D01*
X62058917Y-72586762D01*
X62275041Y-72447690D01*
X62420031Y-72235490D01*
X62471040Y-71983600D01*
X62471040Y-70256400D01*
X65798960Y-70256400D01*
X65798960Y-71983600D01*
X65843238Y-72218917D01*
X65982310Y-72435041D01*
X66194510Y-72580031D01*
X66446400Y-72631040D01*
X68173600Y-72631040D01*
X68408917Y-72586762D01*
X68625041Y-72447690D01*
X68770031Y-72235490D01*
X68821040Y-71983600D01*
X68821040Y-70256400D01*
X72148960Y-70256400D01*
X72148960Y-71983600D01*
X72193238Y-72218917D01*
X72332310Y-72435041D01*
X72544510Y-72580031D01*
X72796400Y-72631040D01*
X74523600Y-72631040D01*
X74758917Y-72586762D01*
X74975041Y-72447690D01*
X75120031Y-72235490D01*
X75171040Y-71983600D01*
X75171040Y-70256400D01*
X78498960Y-70256400D01*
X78498960Y-71983600D01*
X78543238Y-72218917D01*
X78682310Y-72435041D01*
X78894510Y-72580031D01*
X79146400Y-72631040D01*
X80873600Y-72631040D01*
X81108917Y-72586762D01*
X81325041Y-72447690D01*
X81470031Y-72235490D01*
X81521040Y-71983600D01*
X81521040Y-70256400D01*
X81476762Y-70021083D01*
X81337690Y-69804959D01*
X81125490Y-69659969D01*
X81028549Y-69640338D01*
X81216821Y-69468490D01*
X81464968Y-68939027D01*
X81344469Y-68707000D01*
X80137000Y-68707000D01*
X80137000Y-68727000D01*
X79883000Y-68727000D01*
X79883000Y-68707000D01*
X78675531Y-68707000D01*
X78555032Y-68939027D01*
X78803179Y-69468490D01*
X78989433Y-69638495D01*
X78911083Y-69653238D01*
X78694959Y-69792310D01*
X78549969Y-70004510D01*
X78498960Y-70256400D01*
X75171040Y-70256400D01*
X75126762Y-70021083D01*
X74987690Y-69804959D01*
X74775490Y-69659969D01*
X74678549Y-69640338D01*
X74866821Y-69468490D01*
X75114968Y-68939027D01*
X74994469Y-68707000D01*
X73787000Y-68707000D01*
X73787000Y-68727000D01*
X73533000Y-68727000D01*
X73533000Y-68707000D01*
X72325531Y-68707000D01*
X72205032Y-68939027D01*
X72453179Y-69468490D01*
X72639433Y-69638495D01*
X72561083Y-69653238D01*
X72344959Y-69792310D01*
X72199969Y-70004510D01*
X72148960Y-70256400D01*
X68821040Y-70256400D01*
X68776762Y-70021083D01*
X68637690Y-69804959D01*
X68425490Y-69659969D01*
X68328549Y-69640338D01*
X68516821Y-69468490D01*
X68764968Y-68939027D01*
X68644469Y-68707000D01*
X67437000Y-68707000D01*
X67437000Y-68727000D01*
X67183000Y-68727000D01*
X67183000Y-68707000D01*
X65975531Y-68707000D01*
X65855032Y-68939027D01*
X66103179Y-69468490D01*
X66289433Y-69638495D01*
X66211083Y-69653238D01*
X65994959Y-69792310D01*
X65849969Y-70004510D01*
X65798960Y-70256400D01*
X62471040Y-70256400D01*
X62426762Y-70021083D01*
X62287690Y-69804959D01*
X62075490Y-69659969D01*
X61978549Y-69640338D01*
X62166821Y-69468490D01*
X62414968Y-68939027D01*
X62294469Y-68707000D01*
X61087000Y-68707000D01*
X61087000Y-68727000D01*
X60833000Y-68727000D01*
X60833000Y-68707000D01*
X60813000Y-68707000D01*
X60813000Y-68453000D01*
X60833000Y-68453000D01*
X60833000Y-68433000D01*
X61087000Y-68433000D01*
X61087000Y-68453000D01*
X62294469Y-68453000D01*
X62414968Y-68220973D01*
X65855032Y-68220973D01*
X65975531Y-68453000D01*
X67183000Y-68453000D01*
X67183000Y-67246183D01*
X67437000Y-67246183D01*
X67437000Y-68453000D01*
X68644469Y-68453000D01*
X68764968Y-68220973D01*
X72205032Y-68220973D01*
X72325531Y-68453000D01*
X73533000Y-68453000D01*
X73533000Y-67246183D01*
X73787000Y-67246183D01*
X73787000Y-68453000D01*
X74994469Y-68453000D01*
X75114968Y-68220973D01*
X74866821Y-67691510D01*
X74434947Y-67297312D01*
X74019026Y-67125042D01*
X73787000Y-67246183D01*
X73533000Y-67246183D01*
X73300974Y-67125042D01*
X72885053Y-67297312D01*
X72453179Y-67691510D01*
X72205032Y-68220973D01*
X68764968Y-68220973D01*
X68516821Y-67691510D01*
X68084947Y-67297312D01*
X67669026Y-67125042D01*
X67437000Y-67246183D01*
X67183000Y-67246183D01*
X66950974Y-67125042D01*
X66535053Y-67297312D01*
X66103179Y-67691510D01*
X65855032Y-68220973D01*
X62414968Y-68220973D01*
X62335328Y-68051049D01*
X62521605Y-68013996D01*
X62768815Y-67848815D01*
X65308815Y-65308816D01*
X65473996Y-65061605D01*
X65475161Y-65055750D01*
X65675000Y-65055750D01*
X65675000Y-65846310D01*
X65771673Y-66079699D01*
X65950302Y-66258327D01*
X66183691Y-66355000D01*
X67024250Y-66355000D01*
X67183000Y-66196250D01*
X67183000Y-64897000D01*
X67437000Y-64897000D01*
X67437000Y-66196250D01*
X67595750Y-66355000D01*
X68436309Y-66355000D01*
X68669698Y-66258327D01*
X68848327Y-66079699D01*
X68945000Y-65846310D01*
X68945000Y-65055750D01*
X72025000Y-65055750D01*
X72025000Y-65846310D01*
X72121673Y-66079699D01*
X72300302Y-66258327D01*
X72533691Y-66355000D01*
X73374250Y-66355000D01*
X73533000Y-66196250D01*
X73533000Y-64897000D01*
X73787000Y-64897000D01*
X73787000Y-66196250D01*
X73945750Y-66355000D01*
X74786309Y-66355000D01*
X75019698Y-66258327D01*
X75198327Y-66079699D01*
X75295000Y-65846310D01*
X75295000Y-65055750D01*
X75136250Y-64897000D01*
X73787000Y-64897000D01*
X73533000Y-64897000D01*
X72183750Y-64897000D01*
X72025000Y-65055750D01*
X68945000Y-65055750D01*
X68786250Y-64897000D01*
X67437000Y-64897000D01*
X67183000Y-64897000D01*
X65833750Y-64897000D01*
X65675000Y-65055750D01*
X65475161Y-65055750D01*
X65532000Y-64770000D01*
X65532000Y-63815630D01*
X65689891Y-63657739D01*
X65675000Y-63693690D01*
X65675000Y-64484250D01*
X65833750Y-64643000D01*
X67183000Y-64643000D01*
X67183000Y-64623000D01*
X67437000Y-64623000D01*
X67437000Y-64643000D01*
X68786250Y-64643000D01*
X68945000Y-64484250D01*
X68945000Y-63693690D01*
X68848327Y-63460301D01*
X68669698Y-63281673D01*
X68549749Y-63231988D01*
X68652914Y-63129003D01*
X68894724Y-62546659D01*
X68895275Y-61916107D01*
X68793585Y-61670000D01*
X72176320Y-61670000D01*
X72075276Y-61913341D01*
X72075276Y-61913341D01*
G37*
X72075276Y-61913341D02*
X72074725Y-62543893D01*
X72315519Y-63126657D01*
X72420545Y-63231867D01*
X72300302Y-63281673D01*
X72121673Y-63460301D01*
X72025000Y-63693690D01*
X72025000Y-64484250D01*
X72183750Y-64643000D01*
X73533000Y-64643000D01*
X73533000Y-64623000D01*
X73787000Y-64623000D01*
X73787000Y-64643000D01*
X75136250Y-64643000D01*
X75295000Y-64484250D01*
X75295000Y-63693690D01*
X75198327Y-63460301D01*
X75019698Y-63281673D01*
X74899749Y-63231988D01*
X75002914Y-63129003D01*
X75059803Y-62992000D01*
X75884370Y-62992000D01*
X76708000Y-63815631D01*
X76708000Y-66040000D01*
X76766004Y-66331605D01*
X76910595Y-66548000D01*
X76931185Y-66578815D01*
X78201184Y-67848815D01*
X78448395Y-68013996D01*
X78634672Y-68051049D01*
X78555032Y-68220973D01*
X78675531Y-68453000D01*
X79883000Y-68453000D01*
X79883000Y-68433000D01*
X80137000Y-68433000D01*
X80137000Y-68453000D01*
X81344469Y-68453000D01*
X81464968Y-68220973D01*
X81395148Y-68072000D01*
X82234370Y-68072000D01*
X83756723Y-69594353D01*
X83756269Y-70114086D01*
X83958854Y-70604380D01*
X84333647Y-70979827D01*
X84671446Y-71120094D01*
X84335620Y-71258854D01*
X83960173Y-71633647D01*
X83756732Y-72123587D01*
X83756433Y-72466331D01*
X83451764Y-72771000D01*
X55880000Y-72771000D01*
X55539794Y-72838671D01*
X55451001Y-72898001D01*
X55251382Y-73031382D01*
X53981382Y-74301382D01*
X53788671Y-74589794D01*
X53721000Y-74930000D01*
X53721000Y-75203240D01*
X53480173Y-75443647D01*
X53276732Y-75933587D01*
X53276269Y-76464086D01*
X53324577Y-76581000D01*
X50226630Y-76581000D01*
X52608815Y-74198816D01*
X52773996Y-73951605D01*
X52832000Y-73660000D01*
X52832000Y-71435630D01*
X53098960Y-71168670D01*
X53098960Y-71983600D01*
X53143238Y-72218917D01*
X53282310Y-72435041D01*
X53494510Y-72580031D01*
X53746400Y-72631040D01*
X55473600Y-72631040D01*
X55708917Y-72586762D01*
X55925041Y-72447690D01*
X56070031Y-72235490D01*
X56121040Y-71983600D01*
X56121040Y-70612000D01*
X57150000Y-70612000D01*
X57441605Y-70553996D01*
X57688815Y-70388815D01*
X59461400Y-68616230D01*
X59461400Y-68707002D01*
X59625530Y-68707002D01*
X59505032Y-68939027D01*
X59753179Y-69468490D01*
X59939433Y-69638495D01*
X59861083Y-69653238D01*
X59644959Y-69792310D01*
X59499969Y-70004510D01*
X59448960Y-70256400D01*
X59448960Y-71983600D01*
X59493238Y-72218917D01*
X59632310Y-72435041D01*
X59844510Y-72580031D01*
X60096400Y-72631040D01*
X61823600Y-72631040D01*
X62058917Y-72586762D01*
X62275041Y-72447690D01*
X62420031Y-72235490D01*
X62471040Y-71983600D01*
X62471040Y-70256400D01*
X65798960Y-70256400D01*
X65798960Y-71983600D01*
X65843238Y-72218917D01*
X65982310Y-72435041D01*
X66194510Y-72580031D01*
X66446400Y-72631040D01*
X68173600Y-72631040D01*
X68408917Y-72586762D01*
X68625041Y-72447690D01*
X68770031Y-72235490D01*
X68821040Y-71983600D01*
X68821040Y-70256400D01*
X72148960Y-70256400D01*
X72148960Y-71983600D01*
X72193238Y-72218917D01*
X72332310Y-72435041D01*
X72544510Y-72580031D01*
X72796400Y-72631040D01*
X74523600Y-72631040D01*
X74758917Y-72586762D01*
X74975041Y-72447690D01*
X75120031Y-72235490D01*
X75171040Y-71983600D01*
X75171040Y-70256400D01*
X78498960Y-70256400D01*
X78498960Y-71983600D01*
X78543238Y-72218917D01*
X78682310Y-72435041D01*
X78894510Y-72580031D01*
X79146400Y-72631040D01*
X80873600Y-72631040D01*
X81108917Y-72586762D01*
X81325041Y-72447690D01*
X81470031Y-72235490D01*
X81521040Y-71983600D01*
X81521040Y-70256400D01*
X81476762Y-70021083D01*
X81337690Y-69804959D01*
X81125490Y-69659969D01*
X81028549Y-69640338D01*
X81216821Y-69468490D01*
X81464968Y-68939027D01*
X81344469Y-68707000D01*
X80137000Y-68707000D01*
X80137000Y-68727000D01*
X79883000Y-68727000D01*
X79883000Y-68707000D01*
X78675531Y-68707000D01*
X78555032Y-68939027D01*
X78803179Y-69468490D01*
X78989433Y-69638495D01*
X78911083Y-69653238D01*
X78694959Y-69792310D01*
X78549969Y-70004510D01*
X78498960Y-70256400D01*
X75171040Y-70256400D01*
X75126762Y-70021083D01*
X74987690Y-69804959D01*
X74775490Y-69659969D01*
X74678549Y-69640338D01*
X74866821Y-69468490D01*
X75114968Y-68939027D01*
X74994469Y-68707000D01*
X73787000Y-68707000D01*
X73787000Y-68727000D01*
X73533000Y-68727000D01*
X73533000Y-68707000D01*
X72325531Y-68707000D01*
X72205032Y-68939027D01*
X72453179Y-69468490D01*
X72639433Y-69638495D01*
X72561083Y-69653238D01*
X72344959Y-69792310D01*
X72199969Y-70004510D01*
X72148960Y-70256400D01*
X68821040Y-70256400D01*
X68776762Y-70021083D01*
X68637690Y-69804959D01*
X68425490Y-69659969D01*
X68328549Y-69640338D01*
X68516821Y-69468490D01*
X68764968Y-68939027D01*
X68644469Y-68707000D01*
X67437000Y-68707000D01*
X67437000Y-68727000D01*
X67183000Y-68727000D01*
X67183000Y-68707000D01*
X65975531Y-68707000D01*
X65855032Y-68939027D01*
X66103179Y-69468490D01*
X66289433Y-69638495D01*
X66211083Y-69653238D01*
X65994959Y-69792310D01*
X65849969Y-70004510D01*
X65798960Y-70256400D01*
X62471040Y-70256400D01*
X62426762Y-70021083D01*
X62287690Y-69804959D01*
X62075490Y-69659969D01*
X61978549Y-69640338D01*
X62166821Y-69468490D01*
X62414968Y-68939027D01*
X62294469Y-68707000D01*
X61087000Y-68707000D01*
X61087000Y-68727000D01*
X60833000Y-68727000D01*
X60833000Y-68707000D01*
X60813000Y-68707000D01*
X60813000Y-68453000D01*
X60833000Y-68453000D01*
X60833000Y-68433000D01*
X61087000Y-68433000D01*
X61087000Y-68453000D01*
X62294469Y-68453000D01*
X62414968Y-68220973D01*
X65855032Y-68220973D01*
X65975531Y-68453000D01*
X67183000Y-68453000D01*
X67183000Y-67246183D01*
X67437000Y-67246183D01*
X67437000Y-68453000D01*
X68644469Y-68453000D01*
X68764968Y-68220973D01*
X72205032Y-68220973D01*
X72325531Y-68453000D01*
X73533000Y-68453000D01*
X73533000Y-67246183D01*
X73787000Y-67246183D01*
X73787000Y-68453000D01*
X74994469Y-68453000D01*
X75114968Y-68220973D01*
X74866821Y-67691510D01*
X74434947Y-67297312D01*
X74019026Y-67125042D01*
X73787000Y-67246183D01*
X73533000Y-67246183D01*
X73300974Y-67125042D01*
X72885053Y-67297312D01*
X72453179Y-67691510D01*
X72205032Y-68220973D01*
X68764968Y-68220973D01*
X68516821Y-67691510D01*
X68084947Y-67297312D01*
X67669026Y-67125042D01*
X67437000Y-67246183D01*
X67183000Y-67246183D01*
X66950974Y-67125042D01*
X66535053Y-67297312D01*
X66103179Y-67691510D01*
X65855032Y-68220973D01*
X62414968Y-68220973D01*
X62335328Y-68051049D01*
X62521605Y-68013996D01*
X62768815Y-67848815D01*
X65308815Y-65308816D01*
X65473996Y-65061605D01*
X65475161Y-65055750D01*
X65675000Y-65055750D01*
X65675000Y-65846310D01*
X65771673Y-66079699D01*
X65950302Y-66258327D01*
X66183691Y-66355000D01*
X67024250Y-66355000D01*
X67183000Y-66196250D01*
X67183000Y-64897000D01*
X67437000Y-64897000D01*
X67437000Y-66196250D01*
X67595750Y-66355000D01*
X68436309Y-66355000D01*
X68669698Y-66258327D01*
X68848327Y-66079699D01*
X68945000Y-65846310D01*
X68945000Y-65055750D01*
X72025000Y-65055750D01*
X72025000Y-65846310D01*
X72121673Y-66079699D01*
X72300302Y-66258327D01*
X72533691Y-66355000D01*
X73374250Y-66355000D01*
X73533000Y-66196250D01*
X73533000Y-64897000D01*
X73787000Y-64897000D01*
X73787000Y-66196250D01*
X73945750Y-66355000D01*
X74786309Y-66355000D01*
X75019698Y-66258327D01*
X75198327Y-66079699D01*
X75295000Y-65846310D01*
X75295000Y-65055750D01*
X75136250Y-64897000D01*
X73787000Y-64897000D01*
X73533000Y-64897000D01*
X72183750Y-64897000D01*
X72025000Y-65055750D01*
X68945000Y-65055750D01*
X68786250Y-64897000D01*
X67437000Y-64897000D01*
X67183000Y-64897000D01*
X65833750Y-64897000D01*
X65675000Y-65055750D01*
X65475161Y-65055750D01*
X65532000Y-64770000D01*
X65532000Y-63815630D01*
X65689891Y-63657739D01*
X65675000Y-63693690D01*
X65675000Y-64484250D01*
X65833750Y-64643000D01*
X67183000Y-64643000D01*
X67183000Y-64623000D01*
X67437000Y-64623000D01*
X67437000Y-64643000D01*
X68786250Y-64643000D01*
X68945000Y-64484250D01*
X68945000Y-63693690D01*
X68848327Y-63460301D01*
X68669698Y-63281673D01*
X68549749Y-63231988D01*
X68652914Y-63129003D01*
X68894724Y-62546659D01*
X68895275Y-61916107D01*
X68793585Y-61670000D01*
X72176320Y-61670000D01*
X72075276Y-61913341D01*
G36*
X65501184Y-61691185D02*
X64231186Y-62961184D01*
X64231185Y-62961185D01*
X64066004Y-63208395D01*
X64008000Y-63500000D01*
X64008000Y-64454369D01*
X62580109Y-65882261D01*
X62595000Y-65846310D01*
X62595000Y-65055750D01*
X62436250Y-64897000D01*
X61087000Y-64897000D01*
X61087000Y-66196250D01*
X61245750Y-66355000D01*
X62086309Y-66355000D01*
X62122262Y-66340108D01*
X61914370Y-66548000D01*
X59690000Y-66548000D01*
X59398395Y-66606004D01*
X59151184Y-66771185D01*
X56834370Y-69088000D01*
X55995148Y-69088000D01*
X56064968Y-68939027D01*
X55944469Y-68707000D01*
X54737000Y-68707000D01*
X54737000Y-68727000D01*
X54483000Y-68727000D01*
X54483000Y-68707000D01*
X53275531Y-68707000D01*
X53155032Y-68939027D01*
X53234672Y-69108951D01*
X53048395Y-69146004D01*
X52801184Y-69311185D01*
X51531185Y-70581185D01*
X51366004Y-70828395D01*
X51308000Y-71120000D01*
X51308000Y-73344369D01*
X49299028Y-75353342D01*
X49016353Y-75070173D01*
X48526413Y-74866732D01*
X47995914Y-74866269D01*
X47505620Y-75068854D01*
X47130173Y-75443647D01*
X46989906Y-75781446D01*
X46851146Y-75445620D01*
X46609000Y-75203051D01*
X46609000Y-73386760D01*
X46716949Y-73279000D01*
X48533240Y-73279000D01*
X48773647Y-73519827D01*
X49263587Y-73723268D01*
X49794086Y-73723731D01*
X50284380Y-73521146D01*
X50659827Y-73146353D01*
X50863268Y-72656413D01*
X50863731Y-72125914D01*
X50661146Y-71635620D01*
X50286353Y-71260173D01*
X49948554Y-71119906D01*
X50284380Y-70981146D01*
X50659827Y-70606353D01*
X50863268Y-70116413D01*
X50863724Y-69593906D01*
X52385631Y-68072000D01*
X53224852Y-68072000D01*
X53155032Y-68220973D01*
X53275531Y-68453000D01*
X54483000Y-68453000D01*
X54483000Y-68433000D01*
X54737000Y-68433000D01*
X54737000Y-68453000D01*
X55944469Y-68453000D01*
X56064968Y-68220973D01*
X55995148Y-68072000D01*
X57150000Y-68072000D01*
X57441605Y-68013996D01*
X57688815Y-67848815D01*
X58958815Y-66578816D01*
X59123996Y-66331605D01*
X59138572Y-66258327D01*
X59182000Y-66040000D01*
X59182000Y-65055750D01*
X59325000Y-65055750D01*
X59325000Y-65846310D01*
X59421673Y-66079699D01*
X59600302Y-66258327D01*
X59833691Y-66355000D01*
X60674250Y-66355000D01*
X60833000Y-66196250D01*
X60833000Y-64897000D01*
X59483750Y-64897000D01*
X59325000Y-65055750D01*
X59182000Y-65055750D01*
X59182000Y-63815630D01*
X59339891Y-63657739D01*
X59325000Y-63693690D01*
X59325000Y-64484250D01*
X59483750Y-64643000D01*
X60833000Y-64643000D01*
X60833000Y-64623000D01*
X61087000Y-64623000D01*
X61087000Y-64643000D01*
X62436250Y-64643000D01*
X62595000Y-64484250D01*
X62595000Y-63693690D01*
X62498327Y-63460301D01*
X62319698Y-63281673D01*
X62199749Y-63231988D01*
X62302914Y-63129003D01*
X62544724Y-62546659D01*
X62545275Y-61916107D01*
X62443585Y-61670000D01*
X65532890Y-61670000D01*
X65501184Y-61691185D01*
X65501184Y-61691185D01*
G37*
X65501184Y-61691185D02*
X64231186Y-62961184D01*
X64231185Y-62961185D01*
X64066004Y-63208395D01*
X64008000Y-63500000D01*
X64008000Y-64454369D01*
X62580109Y-65882261D01*
X62595000Y-65846310D01*
X62595000Y-65055750D01*
X62436250Y-64897000D01*
X61087000Y-64897000D01*
X61087000Y-66196250D01*
X61245750Y-66355000D01*
X62086309Y-66355000D01*
X62122262Y-66340108D01*
X61914370Y-66548000D01*
X59690000Y-66548000D01*
X59398395Y-66606004D01*
X59151184Y-66771185D01*
X56834370Y-69088000D01*
X55995148Y-69088000D01*
X56064968Y-68939027D01*
X55944469Y-68707000D01*
X54737000Y-68707000D01*
X54737000Y-68727000D01*
X54483000Y-68727000D01*
X54483000Y-68707000D01*
X53275531Y-68707000D01*
X53155032Y-68939027D01*
X53234672Y-69108951D01*
X53048395Y-69146004D01*
X52801184Y-69311185D01*
X51531185Y-70581185D01*
X51366004Y-70828395D01*
X51308000Y-71120000D01*
X51308000Y-73344369D01*
X49299028Y-75353342D01*
X49016353Y-75070173D01*
X48526413Y-74866732D01*
X47995914Y-74866269D01*
X47505620Y-75068854D01*
X47130173Y-75443647D01*
X46989906Y-75781446D01*
X46851146Y-75445620D01*
X46609000Y-75203051D01*
X46609000Y-73386760D01*
X46716949Y-73279000D01*
X48533240Y-73279000D01*
X48773647Y-73519827D01*
X49263587Y-73723268D01*
X49794086Y-73723731D01*
X50284380Y-73521146D01*
X50659827Y-73146353D01*
X50863268Y-72656413D01*
X50863731Y-72125914D01*
X50661146Y-71635620D01*
X50286353Y-71260173D01*
X49948554Y-71119906D01*
X50284380Y-70981146D01*
X50659827Y-70606353D01*
X50863268Y-70116413D01*
X50863724Y-69593906D01*
X52385631Y-68072000D01*
X53224852Y-68072000D01*
X53155032Y-68220973D01*
X53275531Y-68453000D01*
X54483000Y-68453000D01*
X54483000Y-68433000D01*
X54737000Y-68433000D01*
X54737000Y-68453000D01*
X55944469Y-68453000D01*
X56064968Y-68220973D01*
X55995148Y-68072000D01*
X57150000Y-68072000D01*
X57441605Y-68013996D01*
X57688815Y-67848815D01*
X58958815Y-66578816D01*
X59123996Y-66331605D01*
X59138572Y-66258327D01*
X59182000Y-66040000D01*
X59182000Y-65055750D01*
X59325000Y-65055750D01*
X59325000Y-65846310D01*
X59421673Y-66079699D01*
X59600302Y-66258327D01*
X59833691Y-66355000D01*
X60674250Y-66355000D01*
X60833000Y-66196250D01*
X60833000Y-64897000D01*
X59483750Y-64897000D01*
X59325000Y-65055750D01*
X59182000Y-65055750D01*
X59182000Y-63815630D01*
X59339891Y-63657739D01*
X59325000Y-63693690D01*
X59325000Y-64484250D01*
X59483750Y-64643000D01*
X60833000Y-64643000D01*
X60833000Y-64623000D01*
X61087000Y-64623000D01*
X61087000Y-64643000D01*
X62436250Y-64643000D01*
X62595000Y-64484250D01*
X62595000Y-63693690D01*
X62498327Y-63460301D01*
X62319698Y-63281673D01*
X62199749Y-63231988D01*
X62302914Y-63129003D01*
X62544724Y-62546659D01*
X62545275Y-61916107D01*
X62443585Y-61670000D01*
X65532890Y-61670000D01*
X65501184Y-61691185D01*
G36*
X78425276Y-61913341D02*
X78424725Y-62543893D01*
X78665519Y-63126657D01*
X78770545Y-63231867D01*
X78650302Y-63281673D01*
X78471673Y-63460301D01*
X78375000Y-63693690D01*
X78375000Y-64484250D01*
X78533750Y-64643000D01*
X79883000Y-64643000D01*
X79883000Y-64623000D01*
X80137000Y-64623000D01*
X80137000Y-64643000D01*
X81486250Y-64643000D01*
X81645000Y-64484250D01*
X81645000Y-63693690D01*
X81630108Y-63657739D01*
X87566723Y-69594353D01*
X87566269Y-70114086D01*
X87768854Y-70604380D01*
X88143647Y-70979827D01*
X88481446Y-71120094D01*
X88145620Y-71258854D01*
X87903051Y-71501000D01*
X86086760Y-71501000D01*
X85846353Y-71260173D01*
X85508554Y-71119906D01*
X85844380Y-70981146D01*
X86219827Y-70606353D01*
X86423268Y-70116413D01*
X86423731Y-69585914D01*
X86221146Y-69095620D01*
X85846353Y-68720173D01*
X85356413Y-68516732D01*
X84833907Y-68516276D01*
X83088815Y-66771185D01*
X83048124Y-66743996D01*
X82841605Y-66606004D01*
X82550000Y-66548000D01*
X79055631Y-66548000D01*
X78847739Y-66340108D01*
X78883691Y-66355000D01*
X79724250Y-66355000D01*
X79883000Y-66196250D01*
X79883000Y-64897000D01*
X80137000Y-64897000D01*
X80137000Y-66196250D01*
X80295750Y-66355000D01*
X81136309Y-66355000D01*
X81369698Y-66258327D01*
X81548327Y-66079699D01*
X81645000Y-65846310D01*
X81645000Y-65055750D01*
X81486250Y-64897000D01*
X80137000Y-64897000D01*
X79883000Y-64897000D01*
X78533750Y-64897000D01*
X78375000Y-65055750D01*
X78375000Y-65846310D01*
X78389891Y-65882261D01*
X78232000Y-65724370D01*
X78232000Y-63500000D01*
X78173996Y-63208395D01*
X78113815Y-63118328D01*
X78008815Y-62961184D01*
X76738815Y-61691185D01*
X76707110Y-61670000D01*
X78526320Y-61670000D01*
X78425276Y-61913341D01*
X78425276Y-61913341D01*
G37*
X78425276Y-61913341D02*
X78424725Y-62543893D01*
X78665519Y-63126657D01*
X78770545Y-63231867D01*
X78650302Y-63281673D01*
X78471673Y-63460301D01*
X78375000Y-63693690D01*
X78375000Y-64484250D01*
X78533750Y-64643000D01*
X79883000Y-64643000D01*
X79883000Y-64623000D01*
X80137000Y-64623000D01*
X80137000Y-64643000D01*
X81486250Y-64643000D01*
X81645000Y-64484250D01*
X81645000Y-63693690D01*
X81630108Y-63657739D01*
X87566723Y-69594353D01*
X87566269Y-70114086D01*
X87768854Y-70604380D01*
X88143647Y-70979827D01*
X88481446Y-71120094D01*
X88145620Y-71258854D01*
X87903051Y-71501000D01*
X86086760Y-71501000D01*
X85846353Y-71260173D01*
X85508554Y-71119906D01*
X85844380Y-70981146D01*
X86219827Y-70606353D01*
X86423268Y-70116413D01*
X86423731Y-69585914D01*
X86221146Y-69095620D01*
X85846353Y-68720173D01*
X85356413Y-68516732D01*
X84833907Y-68516276D01*
X83088815Y-66771185D01*
X83048124Y-66743996D01*
X82841605Y-66606004D01*
X82550000Y-66548000D01*
X79055631Y-66548000D01*
X78847739Y-66340108D01*
X78883691Y-66355000D01*
X79724250Y-66355000D01*
X79883000Y-66196250D01*
X79883000Y-64897000D01*
X80137000Y-64897000D01*
X80137000Y-66196250D01*
X80295750Y-66355000D01*
X81136309Y-66355000D01*
X81369698Y-66258327D01*
X81548327Y-66079699D01*
X81645000Y-65846310D01*
X81645000Y-65055750D01*
X81486250Y-64897000D01*
X80137000Y-64897000D01*
X79883000Y-64897000D01*
X78533750Y-64897000D01*
X78375000Y-65055750D01*
X78375000Y-65846310D01*
X78389891Y-65882261D01*
X78232000Y-65724370D01*
X78232000Y-63500000D01*
X78173996Y-63208395D01*
X78113815Y-63118328D01*
X78008815Y-62961184D01*
X76738815Y-61691185D01*
X76707110Y-61670000D01*
X78526320Y-61670000D01*
X78425276Y-61913341D01*
G36*
X59151184Y-61691185D02*
X57881186Y-62961184D01*
X57881185Y-62961185D01*
X57716004Y-63208395D01*
X57658000Y-63500000D01*
X57658000Y-65724369D01*
X56834370Y-66548000D01*
X52070000Y-66548000D01*
X51778395Y-66606004D01*
X51531184Y-66771185D01*
X49785647Y-68516723D01*
X49265914Y-68516269D01*
X48775620Y-68718854D01*
X48400173Y-69093647D01*
X48196732Y-69583587D01*
X48196269Y-70114086D01*
X48398854Y-70604380D01*
X48773647Y-70979827D01*
X49111446Y-71120094D01*
X48775620Y-71258854D01*
X48533051Y-71501000D01*
X46716760Y-71501000D01*
X46476353Y-71260173D01*
X46138554Y-71119906D01*
X46474380Y-70981146D01*
X46849827Y-70606353D01*
X47053268Y-70116413D01*
X47053724Y-69593906D01*
X51591880Y-65055750D01*
X52975000Y-65055750D01*
X52975000Y-65846310D01*
X53071673Y-66079699D01*
X53250302Y-66258327D01*
X53483691Y-66355000D01*
X54324250Y-66355000D01*
X54483000Y-66196250D01*
X54483000Y-64897000D01*
X54737000Y-64897000D01*
X54737000Y-66196250D01*
X54895750Y-66355000D01*
X55736309Y-66355000D01*
X55969698Y-66258327D01*
X56148327Y-66079699D01*
X56245000Y-65846310D01*
X56245000Y-65055750D01*
X56086250Y-64897000D01*
X54737000Y-64897000D01*
X54483000Y-64897000D01*
X53133750Y-64897000D01*
X52975000Y-65055750D01*
X51591880Y-65055750D01*
X52989891Y-63657740D01*
X52975000Y-63693690D01*
X52975000Y-64484250D01*
X53133750Y-64643000D01*
X54483000Y-64643000D01*
X54483000Y-64623000D01*
X54737000Y-64623000D01*
X54737000Y-64643000D01*
X56086250Y-64643000D01*
X56245000Y-64484250D01*
X56245000Y-63693690D01*
X56148327Y-63460301D01*
X55969698Y-63281673D01*
X55849749Y-63231988D01*
X55952914Y-63129003D01*
X56194724Y-62546659D01*
X56195275Y-61916107D01*
X56093585Y-61670000D01*
X59182890Y-61670000D01*
X59151184Y-61691185D01*
X59151184Y-61691185D01*
G37*
X59151184Y-61691185D02*
X57881186Y-62961184D01*
X57881185Y-62961185D01*
X57716004Y-63208395D01*
X57658000Y-63500000D01*
X57658000Y-65724369D01*
X56834370Y-66548000D01*
X52070000Y-66548000D01*
X51778395Y-66606004D01*
X51531184Y-66771185D01*
X49785647Y-68516723D01*
X49265914Y-68516269D01*
X48775620Y-68718854D01*
X48400173Y-69093647D01*
X48196732Y-69583587D01*
X48196269Y-70114086D01*
X48398854Y-70604380D01*
X48773647Y-70979827D01*
X49111446Y-71120094D01*
X48775620Y-71258854D01*
X48533051Y-71501000D01*
X46716760Y-71501000D01*
X46476353Y-71260173D01*
X46138554Y-71119906D01*
X46474380Y-70981146D01*
X46849827Y-70606353D01*
X47053268Y-70116413D01*
X47053724Y-69593906D01*
X51591880Y-65055750D01*
X52975000Y-65055750D01*
X52975000Y-65846310D01*
X53071673Y-66079699D01*
X53250302Y-66258327D01*
X53483691Y-66355000D01*
X54324250Y-66355000D01*
X54483000Y-66196250D01*
X54483000Y-64897000D01*
X54737000Y-64897000D01*
X54737000Y-66196250D01*
X54895750Y-66355000D01*
X55736309Y-66355000D01*
X55969698Y-66258327D01*
X56148327Y-66079699D01*
X56245000Y-65846310D01*
X56245000Y-65055750D01*
X56086250Y-64897000D01*
X54737000Y-64897000D01*
X54483000Y-64897000D01*
X53133750Y-64897000D01*
X52975000Y-65055750D01*
X51591880Y-65055750D01*
X52989891Y-63657740D01*
X52975000Y-63693690D01*
X52975000Y-64484250D01*
X53133750Y-64643000D01*
X54483000Y-64643000D01*
X54483000Y-64623000D01*
X54737000Y-64623000D01*
X54737000Y-64643000D01*
X56086250Y-64643000D01*
X56245000Y-64484250D01*
X56245000Y-63693690D01*
X56148327Y-63460301D01*
X55969698Y-63281673D01*
X55849749Y-63231988D01*
X55952914Y-63129003D01*
X56194724Y-62546659D01*
X56195275Y-61916107D01*
X56093585Y-61670000D01*
X59182890Y-61670000D01*
X59151184Y-61691185D01*
M02*
