G04 #@! TF.FileFunction,Legend,Bot*
%FSLAX46Y46*%
G04 Gerber Fmt 4.6, Leading zero omitted, Abs format (unit mm)*
G04 Created by KiCad (PCBNEW 4.0.5) date Thursday, March 09, 2017 'PMt' 12:33:45 PM*
%MOMM*%
%LPD*%
G01*
G04 APERTURE LIST*
%ADD10C,0.100000*%
%ADD11C,0.150000*%
%ADD12C,0.190500*%
G04 APERTURE END LIST*
D10*
D11*
X81915000Y-71755000D02*
X78105000Y-71755000D01*
X78105000Y-71755000D02*
G75*
G02X81915000Y-71755000I1905000J1905000D01*
G01*
X75565000Y-71755000D02*
X71755000Y-71755000D01*
X71755000Y-71755000D02*
G75*
G02X75565000Y-71755000I1905000J1905000D01*
G01*
X69215000Y-71755000D02*
X65405000Y-71755000D01*
X65405000Y-71755000D02*
G75*
G02X69215000Y-71755000I1905000J1905000D01*
G01*
X62865000Y-71755000D02*
X59055000Y-71755000D01*
X59055000Y-71755000D02*
G75*
G02X62865000Y-71755000I1905000J1905000D01*
G01*
X56515000Y-71755000D02*
X52705000Y-71755000D01*
X52705000Y-71755000D02*
G75*
G02X56515000Y-71755000I1905000J1905000D01*
G01*
X53085096Y-65984888D02*
G75*
G02X56110000Y-66000000I1524904J2484888D01*
G01*
X53110000Y-66000000D02*
X56110000Y-66000000D01*
X57127936Y-63500000D02*
G75*
G03X57127936Y-63500000I-2517936J0D01*
G01*
X59435096Y-65984888D02*
G75*
G02X62460000Y-66000000I1524904J2484888D01*
G01*
X59460000Y-66000000D02*
X62460000Y-66000000D01*
X63477936Y-63500000D02*
G75*
G03X63477936Y-63500000I-2517936J0D01*
G01*
X72135096Y-65984888D02*
G75*
G02X75160000Y-66000000I1524904J2484888D01*
G01*
X72160000Y-66000000D02*
X75160000Y-66000000D01*
X76177936Y-63500000D02*
G75*
G03X76177936Y-63500000I-2517936J0D01*
G01*
X78485096Y-65984888D02*
G75*
G02X81510000Y-66000000I1524904J2484888D01*
G01*
X78510000Y-66000000D02*
X81510000Y-66000000D01*
X82527936Y-63500000D02*
G75*
G03X82527936Y-63500000I-2517936J0D01*
G01*
X65785096Y-65984888D02*
G75*
G02X68810000Y-66000000I1524904J2484888D01*
G01*
X65810000Y-66000000D02*
X68810000Y-66000000D01*
X69827936Y-63500000D02*
G75*
G03X69827936Y-63500000I-2517936J0D01*
G01*
X51435000Y-90805000D02*
X51435000Y-90297000D01*
X51435000Y-90297000D02*
X50927000Y-90297000D01*
X50927000Y-90297000D02*
X50927000Y-90805000D01*
X50927000Y-90805000D02*
X51435000Y-90805000D01*
X51435000Y-91567000D02*
X51435000Y-91059000D01*
X51435000Y-91059000D02*
X50927000Y-91059000D01*
X50927000Y-91059000D02*
X50927000Y-91567000D01*
X50927000Y-91567000D02*
X51435000Y-91567000D01*
X51435000Y-92329000D02*
X51435000Y-91821000D01*
X51435000Y-91821000D02*
X50927000Y-91821000D01*
X50927000Y-91821000D02*
X50927000Y-92329000D01*
X50927000Y-92329000D02*
X51435000Y-92329000D01*
X51435000Y-93091000D02*
X51435000Y-92583000D01*
X51435000Y-92583000D02*
X50927000Y-92583000D01*
X50927000Y-92583000D02*
X50927000Y-93091000D01*
X50927000Y-93091000D02*
X51435000Y-93091000D01*
X51435000Y-93853000D02*
X51435000Y-93345000D01*
X51435000Y-93345000D02*
X50927000Y-93345000D01*
X50927000Y-93345000D02*
X50927000Y-93853000D01*
X50927000Y-93853000D02*
X51435000Y-93853000D01*
X52070000Y-94488000D02*
X52070000Y-93980000D01*
X52070000Y-93980000D02*
X51562000Y-93980000D01*
X51562000Y-93980000D02*
X51562000Y-94488000D01*
X51562000Y-94488000D02*
X52070000Y-94488000D01*
X52832000Y-93980000D02*
X52324000Y-93980000D01*
X52324000Y-93980000D02*
X52324000Y-94488000D01*
X52324000Y-94488000D02*
X52832000Y-94488000D01*
X52832000Y-94488000D02*
X52832000Y-93980000D01*
X53594000Y-93980000D02*
X53086000Y-93980000D01*
X53086000Y-93980000D02*
X53086000Y-94488000D01*
X53086000Y-94488000D02*
X53594000Y-94488000D01*
X53594000Y-94488000D02*
X53594000Y-93980000D01*
X54229000Y-93345000D02*
X53721000Y-93345000D01*
X53721000Y-93345000D02*
X53721000Y-93853000D01*
X53721000Y-93853000D02*
X54229000Y-93853000D01*
X54229000Y-93853000D02*
X54229000Y-93345000D01*
X53721000Y-92583000D02*
X54229000Y-92583000D01*
X54229000Y-92583000D02*
X54229000Y-93091000D01*
X54229000Y-93091000D02*
X53721000Y-93091000D01*
X53721000Y-93091000D02*
X53721000Y-92583000D01*
X54229000Y-91821000D02*
X53721000Y-91821000D01*
X53721000Y-91821000D02*
X53721000Y-92329000D01*
X53721000Y-92329000D02*
X54229000Y-92329000D01*
X54229000Y-92329000D02*
X54229000Y-91821000D01*
X53721000Y-91059000D02*
X54229000Y-91059000D01*
X54229000Y-91059000D02*
X54229000Y-91567000D01*
X54229000Y-91567000D02*
X53721000Y-91567000D01*
X53721000Y-91567000D02*
X53721000Y-91059000D01*
X52324000Y-92583000D02*
X52832000Y-92583000D01*
X52832000Y-92583000D02*
X52832000Y-93091000D01*
X52832000Y-93091000D02*
X52324000Y-93091000D01*
X52324000Y-93091000D02*
X52324000Y-92583000D01*
X52324000Y-91821000D02*
X52324000Y-92329000D01*
X52324000Y-92329000D02*
X52832000Y-92329000D01*
X52324000Y-91821000D02*
X52832000Y-91821000D01*
X52832000Y-91821000D02*
X52832000Y-92329000D01*
X52832000Y-91059000D02*
X52324000Y-91059000D01*
X52324000Y-91059000D02*
X52324000Y-91567000D01*
X52324000Y-91567000D02*
X52832000Y-91567000D01*
X52832000Y-91567000D02*
X52832000Y-91059000D01*
X52832000Y-90297000D02*
X52324000Y-90297000D01*
X52324000Y-90297000D02*
X52324000Y-90805000D01*
X52324000Y-90805000D02*
X52832000Y-90805000D01*
X52832000Y-90805000D02*
X52832000Y-90297000D01*
X53467000Y-90170000D02*
X53467000Y-89662000D01*
X53467000Y-89662000D02*
X52959000Y-89662000D01*
X52959000Y-89662000D02*
X52959000Y-90170000D01*
X52959000Y-90170000D02*
X53467000Y-90170000D01*
X54229000Y-90170000D02*
X54229000Y-89662000D01*
X54229000Y-89662000D02*
X53721000Y-89662000D01*
X53721000Y-89662000D02*
X53721000Y-90170000D01*
X53721000Y-90170000D02*
X54229000Y-90170000D01*
X54991000Y-90170000D02*
X54991000Y-89662000D01*
X54991000Y-89662000D02*
X54483000Y-89662000D01*
X54483000Y-89662000D02*
X54483000Y-90170000D01*
X54483000Y-90170000D02*
X54991000Y-90170000D01*
X55626000Y-90805000D02*
X55118000Y-90805000D01*
X55118000Y-90805000D02*
X55118000Y-90297000D01*
X55118000Y-90297000D02*
X55626000Y-90297000D01*
X55626000Y-90297000D02*
X55626000Y-90805000D01*
X55626000Y-91567000D02*
X55118000Y-91567000D01*
X55118000Y-91567000D02*
X55118000Y-91059000D01*
X55118000Y-91059000D02*
X55626000Y-91059000D01*
X55626000Y-91059000D02*
X55626000Y-91567000D01*
X55626000Y-92329000D02*
X55118000Y-92329000D01*
X55118000Y-92329000D02*
X55118000Y-91821000D01*
X55118000Y-91821000D02*
X55626000Y-91821000D01*
X55626000Y-91821000D02*
X55626000Y-92329000D01*
X55626000Y-93091000D02*
X55118000Y-93091000D01*
X55118000Y-93091000D02*
X55118000Y-92583000D01*
X55118000Y-92583000D02*
X55626000Y-92583000D01*
X55626000Y-92583000D02*
X55626000Y-93091000D01*
X55626000Y-93853000D02*
X55118000Y-93853000D01*
X55118000Y-93853000D02*
X55118000Y-93345000D01*
X55118000Y-93345000D02*
X55626000Y-93345000D01*
X55626000Y-93345000D02*
X55626000Y-93853000D01*
X49453800Y-88442800D02*
X49555400Y-88011000D01*
X49555400Y-88011000D02*
X49631600Y-88011000D01*
X49631600Y-88011000D02*
X49758600Y-88036400D01*
X49758600Y-88036400D02*
X49809400Y-88112600D01*
X49809400Y-88112600D02*
X49809400Y-88239600D01*
X49809400Y-88239600D02*
X49758600Y-88341200D01*
X49758600Y-88341200D02*
X49657000Y-88392000D01*
X49657000Y-88392000D02*
X49276000Y-88442800D01*
X49276000Y-88442800D02*
X49174400Y-88417400D01*
X49174400Y-88417400D02*
X49123600Y-88315800D01*
X49123600Y-88315800D02*
X49123600Y-88188800D01*
X49123600Y-88188800D02*
X49199800Y-88112600D01*
X49784000Y-89052400D02*
X49123600Y-88925400D01*
X49123600Y-88925400D02*
X49809400Y-88646000D01*
X49174400Y-86309200D02*
X49123600Y-86385400D01*
X49123600Y-86385400D02*
X49123600Y-86588600D01*
X49123600Y-86588600D02*
X49174400Y-86639400D01*
X49174400Y-86639400D02*
X49250600Y-86664800D01*
X49250600Y-86664800D02*
X49352200Y-86664800D01*
X49352200Y-86664800D02*
X49428400Y-86664800D01*
X49428400Y-86664800D02*
X49479200Y-86588600D01*
X49479200Y-86588600D02*
X49504600Y-86512400D01*
X49504600Y-86512400D02*
X49504600Y-86334600D01*
X49504600Y-86334600D02*
X49555400Y-86283800D01*
X49733200Y-86588600D02*
X49809400Y-86487000D01*
X49809400Y-86487000D02*
X49809400Y-86334600D01*
X49809400Y-86334600D02*
X49758600Y-86258400D01*
X49758600Y-86258400D02*
X49657000Y-86233000D01*
X49657000Y-86233000D02*
X49123600Y-86309200D01*
X49657000Y-89357200D02*
X49123600Y-89433400D01*
X49758600Y-89382600D02*
X49657000Y-89357200D01*
X49809400Y-89458800D02*
X49758600Y-89382600D01*
X49809400Y-89611200D02*
X49809400Y-89458800D01*
X49733200Y-89712800D02*
X49809400Y-89611200D01*
X49504600Y-89458800D02*
X49555400Y-89408000D01*
X49504600Y-89636600D02*
X49504600Y-89458800D01*
X49479200Y-89712800D02*
X49504600Y-89636600D01*
X49428400Y-89789000D02*
X49479200Y-89712800D01*
X49352200Y-89789000D02*
X49428400Y-89789000D01*
X49250600Y-89789000D02*
X49352200Y-89789000D01*
X49174400Y-89763600D02*
X49250600Y-89789000D01*
X49123600Y-89712800D02*
X49174400Y-89763600D01*
X49123600Y-89509600D02*
X49123600Y-89712800D01*
X49174400Y-89433400D02*
X49123600Y-89509600D01*
X49123600Y-87071200D02*
X49174400Y-86995000D01*
X49123600Y-87172800D02*
X49123600Y-87071200D01*
X49149000Y-87249000D02*
X49123600Y-87172800D01*
X49225200Y-87350600D02*
X49149000Y-87249000D01*
X49479200Y-87350600D02*
X49225200Y-87350600D01*
X49606200Y-87350600D02*
X49479200Y-87350600D01*
X49682400Y-87299800D02*
X49606200Y-87350600D01*
X49758600Y-87249000D02*
X49682400Y-87299800D01*
X49809400Y-87147400D02*
X49758600Y-87249000D01*
X49809400Y-86995000D02*
X49809400Y-87147400D01*
X49733200Y-86918800D02*
X49809400Y-86995000D01*
X49733200Y-90043000D02*
X49809400Y-90119200D01*
X49809400Y-90119200D02*
X49809400Y-90271600D01*
X49809400Y-90271600D02*
X49758600Y-90373200D01*
X49758600Y-90373200D02*
X49682400Y-90424000D01*
X49682400Y-90424000D02*
X49606200Y-90474800D01*
X49606200Y-90474800D02*
X49479200Y-90474800D01*
X49479200Y-90474800D02*
X49225200Y-90474800D01*
X49225200Y-90474800D02*
X49149000Y-90373200D01*
X49149000Y-90373200D02*
X49123600Y-90297000D01*
X49123600Y-90297000D02*
X49123600Y-90195400D01*
X49123600Y-90195400D02*
X49174400Y-90119200D01*
X50114200Y-90779600D02*
X49250600Y-90906600D01*
X49250600Y-90906600D02*
X49174400Y-90881200D01*
X49174400Y-90881200D02*
X49098200Y-90779600D01*
X49174400Y-91287600D02*
X49123600Y-91363800D01*
X49123600Y-91363800D02*
X49123600Y-91567000D01*
X49123600Y-91567000D02*
X49174400Y-91617800D01*
X49174400Y-91617800D02*
X49250600Y-91643200D01*
X49250600Y-91643200D02*
X49352200Y-91643200D01*
X49352200Y-91643200D02*
X49428400Y-91643200D01*
X49428400Y-91643200D02*
X49479200Y-91567000D01*
X49479200Y-91567000D02*
X49504600Y-91490800D01*
X49504600Y-91490800D02*
X49504600Y-91313000D01*
X49504600Y-91313000D02*
X49555400Y-91262200D01*
X49733200Y-91567000D02*
X49809400Y-91465400D01*
X49809400Y-91465400D02*
X49809400Y-91313000D01*
X49809400Y-91313000D02*
X49758600Y-91236800D01*
X49758600Y-91236800D02*
X49657000Y-91211400D01*
X49657000Y-91211400D02*
X49123600Y-91287600D01*
X49123600Y-91998800D02*
X49098200Y-91897200D01*
X49174400Y-92049600D02*
X49123600Y-91998800D01*
X49276000Y-92075000D02*
X49174400Y-92049600D01*
X50139600Y-91973400D02*
X49276000Y-92075000D01*
X49809400Y-92176600D02*
X49809400Y-91846400D01*
X49758600Y-92811600D02*
X49809400Y-92887800D01*
X49809400Y-92887800D02*
X49809400Y-92989400D01*
X49809400Y-92989400D02*
X49758600Y-93116400D01*
X49758600Y-93116400D02*
X49682400Y-93167200D01*
X49682400Y-93167200D02*
X49606200Y-93192600D01*
X49606200Y-93192600D02*
X49326800Y-93243400D01*
X49326800Y-93243400D02*
X49174400Y-93192600D01*
X49174400Y-93192600D02*
X49123600Y-93091000D01*
X49123600Y-93091000D02*
X49123600Y-92964000D01*
X49123600Y-92964000D02*
X49199800Y-92887800D01*
X49784000Y-92786200D02*
X48971200Y-92887800D01*
X48971200Y-92887800D02*
X48869600Y-92964000D01*
X48869600Y-92964000D02*
X48844200Y-92989400D01*
X48844200Y-92989400D02*
X48818800Y-93014800D01*
X48818800Y-93014800D02*
X48793400Y-93065600D01*
X48793400Y-93065600D02*
X48793400Y-93167200D01*
X48793400Y-93167200D02*
X48793400Y-93218000D01*
X48793400Y-93218000D02*
X48844200Y-93268800D01*
X49174400Y-94005400D02*
X49123600Y-94056200D01*
X49123600Y-94056200D02*
X49123600Y-94208600D01*
X49123600Y-94208600D02*
X49174400Y-94310200D01*
X49174400Y-94310200D02*
X49225200Y-94335600D01*
X49225200Y-94335600D02*
X49301400Y-94361000D01*
X49301400Y-94361000D02*
X49606200Y-94310200D01*
X49606200Y-94310200D02*
X49707800Y-94284800D01*
X49707800Y-94284800D02*
X49758600Y-94208600D01*
X49758600Y-94208600D02*
X49809400Y-94132400D01*
X49809400Y-94132400D02*
X49809400Y-94030800D01*
X49809400Y-94030800D02*
X49758600Y-93929200D01*
X50139600Y-93878400D02*
X49098200Y-94005400D01*
X49174400Y-87706200D02*
X49149000Y-87731600D01*
X49149000Y-87706200D02*
X49174400Y-87706200D01*
X49174400Y-87731600D02*
X49149000Y-87706200D01*
X49834800Y-92405200D02*
X49123600Y-92506800D01*
X50114200Y-92379800D02*
X50088800Y-92354400D01*
X50088800Y-92354400D02*
X50114200Y-92354400D01*
X50114200Y-92354400D02*
X50088800Y-92379800D01*
X50114200Y-93472000D02*
X50088800Y-93497400D01*
X50088800Y-93472000D02*
X50114200Y-93472000D01*
X50114200Y-93497400D02*
X50088800Y-93472000D01*
X49174400Y-95427800D02*
X49149000Y-95453200D01*
X49149000Y-95427800D02*
X49174400Y-95427800D01*
X49174400Y-95453200D02*
X49149000Y-95427800D01*
X49707800Y-95402400D02*
X49682400Y-95377000D01*
X49682400Y-95377000D02*
X49707800Y-95377000D01*
X49707800Y-95377000D02*
X49682400Y-95402400D01*
X49834800Y-93522800D02*
X49123600Y-93624400D01*
X49123600Y-96189800D02*
X49123600Y-95961200D01*
X49123600Y-95961200D02*
X49225200Y-95783400D01*
X49225200Y-95783400D02*
X49580800Y-95732600D01*
X49580800Y-95732600D02*
X49682400Y-95758000D01*
X49682400Y-95758000D02*
X49784000Y-95834200D01*
X49784000Y-95834200D02*
X49809400Y-95935800D01*
X49809400Y-95935800D02*
X49809400Y-95986600D01*
X49809400Y-95986600D02*
X49733200Y-96088200D01*
X49784000Y-96088200D02*
X48768000Y-96240600D01*
X49123600Y-96545400D02*
X49098200Y-96443800D01*
X49174400Y-96596200D02*
X49123600Y-96545400D01*
X49276000Y-96621600D02*
X49174400Y-96596200D01*
X50139600Y-96520000D02*
X49276000Y-96621600D01*
X49809400Y-96723200D02*
X49809400Y-96393000D01*
X49809400Y-97180400D02*
X49809400Y-96850200D01*
X50139600Y-96977200D02*
X49276000Y-97078800D01*
X49276000Y-97078800D02*
X49174400Y-97053400D01*
X49174400Y-97053400D02*
X49123600Y-97002600D01*
X49123600Y-97002600D02*
X49098200Y-96901000D01*
X49707800Y-97764600D02*
X49809400Y-97688400D01*
X49809400Y-97688400D02*
X49784000Y-97536000D01*
X49784000Y-97536000D02*
X49733200Y-97459800D01*
X49733200Y-97459800D02*
X49657000Y-97434400D01*
X49657000Y-97434400D02*
X49098200Y-97510600D01*
X50139600Y-97713800D02*
X49098200Y-97840800D01*
X50165000Y-94488000D02*
X49022000Y-94869000D01*
X50165000Y-94869000D02*
X49022000Y-95250000D01*
X48768000Y-92608400D02*
X48768000Y-86258400D01*
X48768000Y-93497400D02*
X48768000Y-95783400D01*
X48768000Y-97917000D02*
X48768000Y-96520000D01*
D12*
X80082571Y-73442286D02*
X80155143Y-73406000D01*
X80227714Y-73333429D01*
X80336571Y-73224571D01*
X80409143Y-73188286D01*
X80481714Y-73188286D01*
X80445429Y-73369714D02*
X80518000Y-73333429D01*
X80590571Y-73260857D01*
X80626857Y-73115714D01*
X80626857Y-72861714D01*
X80590571Y-72716571D01*
X80518000Y-72644000D01*
X80445429Y-72607714D01*
X80300286Y-72607714D01*
X80227714Y-72644000D01*
X80155143Y-72716571D01*
X80118857Y-72861714D01*
X80118857Y-73115714D01*
X80155143Y-73260857D01*
X80227714Y-73333429D01*
X80300286Y-73369714D01*
X80445429Y-73369714D01*
X79429428Y-72607714D02*
X79792285Y-72607714D01*
X79828571Y-72970571D01*
X79792285Y-72934286D01*
X79719714Y-72898000D01*
X79538285Y-72898000D01*
X79465714Y-72934286D01*
X79429428Y-72970571D01*
X79393143Y-73043143D01*
X79393143Y-73224571D01*
X79429428Y-73297143D01*
X79465714Y-73333429D01*
X79538285Y-73369714D01*
X79719714Y-73369714D01*
X79792285Y-73333429D01*
X79828571Y-73297143D01*
X73732571Y-73442286D02*
X73805143Y-73406000D01*
X73877714Y-73333429D01*
X73986571Y-73224571D01*
X74059143Y-73188286D01*
X74131714Y-73188286D01*
X74095429Y-73369714D02*
X74168000Y-73333429D01*
X74240571Y-73260857D01*
X74276857Y-73115714D01*
X74276857Y-72861714D01*
X74240571Y-72716571D01*
X74168000Y-72644000D01*
X74095429Y-72607714D01*
X73950286Y-72607714D01*
X73877714Y-72644000D01*
X73805143Y-72716571D01*
X73768857Y-72861714D01*
X73768857Y-73115714D01*
X73805143Y-73260857D01*
X73877714Y-73333429D01*
X73950286Y-73369714D01*
X74095429Y-73369714D01*
X73115714Y-72861714D02*
X73115714Y-73369714D01*
X73297143Y-72571429D02*
X73478571Y-73115714D01*
X73006857Y-73115714D01*
X67382571Y-73442286D02*
X67455143Y-73406000D01*
X67527714Y-73333429D01*
X67636571Y-73224571D01*
X67709143Y-73188286D01*
X67781714Y-73188286D01*
X67745429Y-73369714D02*
X67818000Y-73333429D01*
X67890571Y-73260857D01*
X67926857Y-73115714D01*
X67926857Y-72861714D01*
X67890571Y-72716571D01*
X67818000Y-72644000D01*
X67745429Y-72607714D01*
X67600286Y-72607714D01*
X67527714Y-72644000D01*
X67455143Y-72716571D01*
X67418857Y-72861714D01*
X67418857Y-73115714D01*
X67455143Y-73260857D01*
X67527714Y-73333429D01*
X67600286Y-73369714D01*
X67745429Y-73369714D01*
X67164857Y-72607714D02*
X66693143Y-72607714D01*
X66947143Y-72898000D01*
X66838285Y-72898000D01*
X66765714Y-72934286D01*
X66729428Y-72970571D01*
X66693143Y-73043143D01*
X66693143Y-73224571D01*
X66729428Y-73297143D01*
X66765714Y-73333429D01*
X66838285Y-73369714D01*
X67056000Y-73369714D01*
X67128571Y-73333429D01*
X67164857Y-73297143D01*
X61032571Y-73442286D02*
X61105143Y-73406000D01*
X61177714Y-73333429D01*
X61286571Y-73224571D01*
X61359143Y-73188286D01*
X61431714Y-73188286D01*
X61395429Y-73369714D02*
X61468000Y-73333429D01*
X61540571Y-73260857D01*
X61576857Y-73115714D01*
X61576857Y-72861714D01*
X61540571Y-72716571D01*
X61468000Y-72644000D01*
X61395429Y-72607714D01*
X61250286Y-72607714D01*
X61177714Y-72644000D01*
X61105143Y-72716571D01*
X61068857Y-72861714D01*
X61068857Y-73115714D01*
X61105143Y-73260857D01*
X61177714Y-73333429D01*
X61250286Y-73369714D01*
X61395429Y-73369714D01*
X60778571Y-72680286D02*
X60742285Y-72644000D01*
X60669714Y-72607714D01*
X60488285Y-72607714D01*
X60415714Y-72644000D01*
X60379428Y-72680286D01*
X60343143Y-72752857D01*
X60343143Y-72825429D01*
X60379428Y-72934286D01*
X60814857Y-73369714D01*
X60343143Y-73369714D01*
X54682571Y-73442286D02*
X54755143Y-73406000D01*
X54827714Y-73333429D01*
X54936571Y-73224571D01*
X55009143Y-73188286D01*
X55081714Y-73188286D01*
X55045429Y-73369714D02*
X55118000Y-73333429D01*
X55190571Y-73260857D01*
X55226857Y-73115714D01*
X55226857Y-72861714D01*
X55190571Y-72716571D01*
X55118000Y-72644000D01*
X55045429Y-72607714D01*
X54900286Y-72607714D01*
X54827714Y-72644000D01*
X54755143Y-72716571D01*
X54718857Y-72861714D01*
X54718857Y-73115714D01*
X54755143Y-73260857D01*
X54827714Y-73333429D01*
X54900286Y-73369714D01*
X55045429Y-73369714D01*
X53993143Y-73369714D02*
X54428571Y-73369714D01*
X54210857Y-73369714D02*
X54210857Y-72607714D01*
X54283428Y-72716571D01*
X54356000Y-72789143D01*
X54428571Y-72825429D01*
X55172428Y-67019714D02*
X55172428Y-66257714D01*
X54991000Y-66257714D01*
X54882143Y-66294000D01*
X54809571Y-66366571D01*
X54773286Y-66439143D01*
X54737000Y-66584286D01*
X54737000Y-66693143D01*
X54773286Y-66838286D01*
X54809571Y-66910857D01*
X54882143Y-66983429D01*
X54991000Y-67019714D01*
X55172428Y-67019714D01*
X54011286Y-67019714D02*
X54446714Y-67019714D01*
X54229000Y-67019714D02*
X54229000Y-66257714D01*
X54301571Y-66366571D01*
X54374143Y-66439143D01*
X54446714Y-66475429D01*
X61522428Y-67019714D02*
X61522428Y-66257714D01*
X61341000Y-66257714D01*
X61232143Y-66294000D01*
X61159571Y-66366571D01*
X61123286Y-66439143D01*
X61087000Y-66584286D01*
X61087000Y-66693143D01*
X61123286Y-66838286D01*
X61159571Y-66910857D01*
X61232143Y-66983429D01*
X61341000Y-67019714D01*
X61522428Y-67019714D01*
X60796714Y-66330286D02*
X60760428Y-66294000D01*
X60687857Y-66257714D01*
X60506428Y-66257714D01*
X60433857Y-66294000D01*
X60397571Y-66330286D01*
X60361286Y-66402857D01*
X60361286Y-66475429D01*
X60397571Y-66584286D01*
X60833000Y-67019714D01*
X60361286Y-67019714D01*
X74222428Y-67019714D02*
X74222428Y-66257714D01*
X74041000Y-66257714D01*
X73932143Y-66294000D01*
X73859571Y-66366571D01*
X73823286Y-66439143D01*
X73787000Y-66584286D01*
X73787000Y-66693143D01*
X73823286Y-66838286D01*
X73859571Y-66910857D01*
X73932143Y-66983429D01*
X74041000Y-67019714D01*
X74222428Y-67019714D01*
X73133857Y-66511714D02*
X73133857Y-67019714D01*
X73315286Y-66221429D02*
X73496714Y-66765714D01*
X73025000Y-66765714D01*
X80572428Y-67019714D02*
X80572428Y-66257714D01*
X80391000Y-66257714D01*
X80282143Y-66294000D01*
X80209571Y-66366571D01*
X80173286Y-66439143D01*
X80137000Y-66584286D01*
X80137000Y-66693143D01*
X80173286Y-66838286D01*
X80209571Y-66910857D01*
X80282143Y-66983429D01*
X80391000Y-67019714D01*
X80572428Y-67019714D01*
X79447571Y-66257714D02*
X79810428Y-66257714D01*
X79846714Y-66620571D01*
X79810428Y-66584286D01*
X79737857Y-66548000D01*
X79556428Y-66548000D01*
X79483857Y-66584286D01*
X79447571Y-66620571D01*
X79411286Y-66693143D01*
X79411286Y-66874571D01*
X79447571Y-66947143D01*
X79483857Y-66983429D01*
X79556428Y-67019714D01*
X79737857Y-67019714D01*
X79810428Y-66983429D01*
X79846714Y-66947143D01*
X67872428Y-67019714D02*
X67872428Y-66257714D01*
X67691000Y-66257714D01*
X67582143Y-66294000D01*
X67509571Y-66366571D01*
X67473286Y-66439143D01*
X67437000Y-66584286D01*
X67437000Y-66693143D01*
X67473286Y-66838286D01*
X67509571Y-66910857D01*
X67582143Y-66983429D01*
X67691000Y-67019714D01*
X67872428Y-67019714D01*
X67183000Y-66257714D02*
X66711286Y-66257714D01*
X66965286Y-66548000D01*
X66856428Y-66548000D01*
X66783857Y-66584286D01*
X66747571Y-66620571D01*
X66711286Y-66693143D01*
X66711286Y-66874571D01*
X66747571Y-66947143D01*
X66783857Y-66983429D01*
X66856428Y-67019714D01*
X67074143Y-67019714D01*
X67146714Y-66983429D01*
X67183000Y-66947143D01*
M02*
