999
dxflib 3.3.4.0
  0
SECTION
  2
HEADER
  9
$ACADVER
  1
AC1015
  9
$HANDSEED
  5
FFFF
  9
$DIMADEC
 70
0
  9
$DIMASZ
 40
2.5
  9
$DIMAUNIT
 70
0
  9
$DIMAZIN
 70
2
  9
$DIMDEC
 70
5
  9
$DIMEXE
 40
1.25
  9
$DIMEXO
 40
0.625
  9
$DIMGAP
 40
0.625
  9
$DIMLUNIT
 70
4
  9
$DIMTSZ
 40
0.0
  9
$DIMTXT
 40
2.5
  9
$DIMZIN
 70
8
  9
$DWGCODEPAGE
  3
ANSI_1252
  9
$INSUNITS
 70
1
  9
$LTSCALE
 40
1.0
  0
ENDSEC
  0
SECTION
  2
TABLES
  0
TABLE
  2
VPORT
  5
8
100
AcDbSymbolTable
 70
1
  0
VPORT
  5
30
100
AcDbSymbolTableRecord
100
AcDbViewportTableRecord
  2
*Active
 70
0
 10
0.0
 20
0.0
 11
1.0
 21
1.0
 12
286.3055555555554861
 22
148.5
 13
0.0
 23
0.0
 14
10.0
 24
10.0
 15
10.0
 25
10.0
 16
0.0
 26
0.0
 36
1.0
 17
0.0
 27
0.0
 37
0.0
 40
297.0
 41
1.92798353909465
 42
50.0
 43
0.0
 44
0.0
 50
0.0
 51
0.0
 71
0
 72
100
 73
1
 74
3
 75
1
 76
1
 77
0
 78
0
281
0
 65
1
110
0.0
120
0.0
130
0.0
111
1.0
121
0.0
131
0.0
112
0.0
122
1.0
132
0.0
 79
0
146
0.0
  0
ENDTAB
  0
TABLE
  2
LTYPE
  5
5
100
AcDbSymbolTable
 70
21
  0
LTYPE
  5
16
100
AcDbSymbolTableRecord
100
AcDbLinetypeTableRecord
  2
CONTINUOUS
 70
0
  3
Solid line
 72
65
 73
0
 40
0.0
  0
LTYPE
  5
31
100
AcDbSymbolTableRecord
100
AcDbLinetypeTableRecord
  2
CENTER2
 70
0
  3
Center (.5x) ___ _ ___ _ ___ _ ___ _ ___ _ ___
 72
65
 73
4
 40
28.5749999999999993
 49
19.0500000000000007
 74
0
 49
-3.1749999999999998
 74
0
 49
3.1749999999999998
 74
0
 49
-3.1749999999999998
 74
0
  0
LTYPE
  5
32
100
AcDbSymbolTableRecord
100
AcDbLinetypeTableRecord
  2
DIVIDEX2
 70
0
  3
Divide (2x) ________  .  .  ________  .  .  _
 72
65
 73
6
 40
63.5
 49
25.3999999999999986
 74
0
 49
-12.6999999999999993
 74
0
 49
0.0
 74
0
 49
-12.6999999999999993
 74
0
 49
0.0
 74
0
 49
-12.6999999999999993
 74
0
  0
LTYPE
  5
33
100
AcDbSymbolTableRecord
100
AcDbLinetypeTableRecord
  2
DOT2
 70
0
  3
Dot (.5x) .....................................
 72
65
 73
2
 40
3.1749999999999998
 49
0.0
 74
0
 49
-3.1749999999999998
 74
0
  0
LTYPE
  5
34
100
AcDbSymbolTableRecord
100
AcDbLinetypeTableRecord
  2
DASHDOT2
 70
0
  3
Dash dot (.5x) _._._._._._._._._._._._._._._.
 72
65
 73
4
 40
12.6999999999999993
 49
6.3499999999999996
 74
0
 49
-3.1749999999999998
 74
0
 49
0.0
 74
0
 49
-3.1749999999999998
 74
0
  0
LTYPE
  5
35
100
AcDbSymbolTableRecord
100
AcDbLinetypeTableRecord
  2
DIVIDE
 70
0
  3
Divide ____ . . ____ . . ____ . . ____ . . ____
 72
65
 73
6
 40
31.75
 49
12.6999999999999993
 74
0
 49
-6.3499999999999996
 74
0
 49
0.0
 74
0
 49
-6.3499999999999996
 74
0
 49
0.0
 74
0
 49
-6.3499999999999996
 74
0
  0
LTYPE
  5
36
100
AcDbSymbolTableRecord
100
AcDbLinetypeTableRecord
  2
DASHDOT
 70
0
  3
Dash dot __ . __ . __ . __ . __ . __ . __ . __
 72
65
 73
4
 40
25.3999999999999986
 49
12.6999999999999993
 74
0
 49
-6.3499999999999996
 74
0
 49
0.0
 74
0
 49
-6.3499999999999996
 74
0
  0
LTYPE
  5
37
100
AcDbSymbolTableRecord
100
AcDbLinetypeTableRecord
  2
BORDER
 70
0
  3
Border __ __ . __ __ . __ __ . __ __ . __ __ .
 72
65
 73
6
 40
44.4500000000000028
 49
12.6999999999999993
 74
0
 49
-6.3499999999999996
 74
0
 49
12.6999999999999993
 74
0
 49
-6.3499999999999996
 74
0
 49
0.0
 74
0
 49
-6.3499999999999996
 74
0
  0
LTYPE
  5
38
100
AcDbSymbolTableRecord
100
AcDbLinetypeTableRecord
  2
DASHDOTX2
 70
0
  3
Dash dot (2x) ____  .  ____  .  ____  .  ___
 72
65
 73
4
 40
50.7999999999999972
 49
25.3999999999999986
 74
0
 49
-12.6999999999999993
 74
0
 49
0.0
 74
0
 49
-12.6999999999999993
 74
0
  0
LTYPE
  5
39
100
AcDbSymbolTableRecord
100
AcDbLinetypeTableRecord
  2
CENTERX2
 70
0
  3
Center (2x) ________  __  ________  __  _____
 72
65
 73
4
 40
101.5999999999999943
 49
63.5
 74
0
 49
-12.6999999999999993
 74
0
 49
12.6999999999999993
 74
0
 49
-12.6999999999999993
 74
0
  0
LTYPE
  5
3A
100
AcDbSymbolTableRecord
100
AcDbLinetypeTableRecord
  2
BORDER2
 70
0
  3
Border (.5x) __.__.__.__.__.__.__.__.__.__.__.
 72
65
 73
6
 40
22.2250000000000014
 49
6.3499999999999996
 74
0
 49
-3.1749999999999998
 74
0
 49
6.3499999999999996
 74
0
 49
-3.1749999999999998
 74
0
 49
0.0
 74
0
 49
-3.1749999999999998
 74
0
  0
LTYPE
  5
3B
100
AcDbSymbolTableRecord
100
AcDbLinetypeTableRecord
  2
BORDERX2
 70
0
  3
Border (2x) ____  ____  .  ____  ____  .  ___
 72
65
 73
6
 40
88.9000000000000057
 49
25.3999999999999986
 74
0
 49
-12.6999999999999993
 74
0
 49
25.3999999999999986
 74
0
 49
-12.6999999999999993
 74
0
 49
0.0
 74
0
 49
-12.6999999999999993
 74
0
  0
LTYPE
  5
14
100
AcDbSymbolTableRecord
100
AcDbLinetypeTableRecord
  2
BYBLOCK
 70
0
  3

 72
65
 73
0
 40
0.0
  0
LTYPE
  5
15
100
AcDbSymbolTableRecord
100
AcDbLinetypeTableRecord
  2
BYLAYER
 70
0
  3

 72
65
 73
0
 40
0.0
  0
LTYPE
  5
3C
100
AcDbSymbolTableRecord
100
AcDbLinetypeTableRecord
  2
DASHED2
 70
0
  3
Dashed (.5x) _ _ _ _ _ _ _ _ _ _ _ _ _ _ _ _ _
 72
65
 73
2
 40
9.5250000000000004
 49
6.3499999999999996
 74
0
 49
-3.1749999999999998
 74
0
  0
LTYPE
  5
3D
100
AcDbSymbolTableRecord
100
AcDbLinetypeTableRecord
  2
CENTER
 70
0
  3
Center ____ _ ____ _ ____ _ ____ _ ____ _ ____
 72
65
 73
4
 40
50.7999999999999972
 49
31.75
 74
0
 49
-6.3499999999999996
 74
0
 49
6.3499999999999996
 74
0
 49
-6.3499999999999996
 74
0
  0
LTYPE
  5
3E
100
AcDbSymbolTableRecord
100
AcDbLinetypeTableRecord
  2
DIVIDE2
 70
0
  3
Divide (.5x) __..__..__..__..__..__..__..__.._
 72
65
 73
6
 40
15.875
 49
6.3499999999999996
 74
0
 49
-3.1749999999999998
 74
0
 49
0.0
 74
0
 49
-3.1749999999999998
 74
0
 49
0.0
 74
0
 49
-3.1749999999999998
 74
0
  0
LTYPE
  5
3F
100
AcDbSymbolTableRecord
100
AcDbLinetypeTableRecord
  2
DASHED
 70
0
  3
Dashed __ __ __ __ __ __ __ __ __ __ __ __ __ _
 72
65
 73
2
 40
19.0500000000000007
 49
12.6999999999999993
 74
0
 49
-6.3499999999999996
 74
0
  0
LTYPE
  5
40
100
AcDbSymbolTableRecord
100
AcDbLinetypeTableRecord
  2
DOTX2
 70
0
  3
Dot (2x) .  .  .  .  .  .  .  .  .  .  .  .  .
 72
65
 73
2
 40
12.6999999999999993
 49
0.0
 74
0
 49
-12.6999999999999993
 74
0
  0
LTYPE
  5
41
100
AcDbSymbolTableRecord
100
AcDbLinetypeTableRecord
  2
DASHEDX2
 70
0
  3
Dashed (2x) ____  ____  ____  ____  ____  ___
 72
65
 73
2
 40
38.1000000000000014
 49
25.3999999999999986
 74
0
 49
-12.6999999999999993
 74
0
  0
LTYPE
  5
42
100
AcDbSymbolTableRecord
100
AcDbLinetypeTableRecord
  2
DOT
 70
0
  3
Dot . . . . . . . . . . . . . . . . . . . . . .
 72
65
 73
2
 40
6.3499999999999996
 49
0.0
 74
0
 49
-6.3499999999999996
 74
0
  0
ENDTAB
  0
TABLE
  2
LAYER
  5
2
100
AcDbSymbolTable
 70
5
  0
LAYER
  5
43
100
AcDbSymbolTableRecord
100
AcDbLayerTableRecord
  2
dimensions
 70
0
 62
7
420
0
  6
CONTINUOUS
370
25
390
F
  0
LAYER
  5
44
100
AcDbSymbolTableRecord
100
AcDbLayerTableRecord
  2
apron
 70
0
 62
7
420
0
  6
CONTINUOUS
370
25
390
F
  0
LAYER
  5
10
100
AcDbSymbolTableRecord
100
AcDbLayerTableRecord
  2
0
 70
4
 62
7
420
0
  6
CONTINUOUS
370
25
390
F
  0
LAYER
  5
45
100
AcDbSymbolTableRecord
100
AcDbLayerTableRecord
  2
top
 70
0
 62
7
420
0
  6
CONTINUOUS
370
25
390
F
  0
LAYER
  5
46
100
AcDbSymbolTableRecord
100
AcDbLayerTableRecord
  2
labels
 70
1
 62
-7
420
0
  6
CONTINUOUS
370
25
390
F
  0
ENDTAB
  0
TABLE
  2
STYLE
  5
3
100
AcDbSymbolTable
 70
2
  0
STYLE
  5
47
100
AcDbSymbolTableRecord
100
AcDbTextStyleTableRecord
  2
Standard
 70
0
 40
0.0
 41
1.0
 50
0.0
 71
0
 42
2.5
  3

  4

1001
ACAD
1000
txt
1071
0
  0
STYLE
  5
48
100
AcDbSymbolTableRecord
100
AcDbTextStyleTableRecord
  2
textstyle0
 70
0
 40
0.0
 41
1.0
 50
0.0
 71
0
 42
2.0
  3

  4

1001
ACAD
1000
Arial
1071
0
  0
ENDTAB
  0
TABLE
  2
VIEW
  5
6
100
AcDbSymbolTable
 70
0
  0
ENDTAB
  0
TABLE
  2
UCS
  5
7
100
AcDbSymbolTable
 70
0
  0
ENDTAB
  0
TABLE
  2
APPID
  5
9
100
AcDbSymbolTable
 70
1
  0
APPID
  5
12
100
AcDbSymbolTableRecord
100
AcDbRegAppTableRecord
  2
ACAD
 70
0
  0
APPID
  5
49
100
AcDbSymbolTableRecord
100
AcDbRegAppTableRecord
  2
QCAD
 70
0
  0
ENDTAB
  0
TABLE
  2
DIMSTYLE
  5
A
100
AcDbSymbolTable
 70
1
100
AcDbDimStyleTable
 71
0
  0
DIMSTYLE
105
27
100
AcDbSymbolTableRecord
100
AcDbDimStyleTableRecord
  2
Standard
 41
2.5
 42
0.625
 43
3.75
 44
1.25
 70
0
 73
0
 74
0
 77
1
 78
8
140
2.5
141
2.5
143
0.03937007874016
147
0.625
171
3
172
1
271
2
272
2
274
3
278
44
283
0
284
8
340
47
  0
ENDTAB
  0
TABLE
  2
BLOCK_RECORD
  5
1
100
AcDbSymbolTable
 70
1
  0
BLOCK_RECORD
  5
1F
100
AcDbSymbolTableRecord
100
AcDbBlockTableRecord
  2
*Model_Space
340
22
  0
BLOCK_RECORD
  5
1B
100
AcDbSymbolTableRecord
100
AcDbBlockTableRecord
  2
*Paper_Space
340
1E
  0
BLOCK_RECORD
  5
23
100
AcDbSymbolTableRecord
100
AcDbBlockTableRecord
  2
*Paper_Space0
340
26
  0
ENDTAB
  0
ENDSEC
  0
SECTION
  2
BLOCKS
  0
BLOCK
  5
20
100
AcDbEntity
  8
0
100
AcDbBlockBegin
  2
*Model_Space
 70
0
 10
0.0
 20
0.0
 30
0.0
  3
*Model_Space
  1

  0
ENDBLK
  5
21
100
AcDbEntity
  8
0
100
AcDbBlockEnd
  0
BLOCK
  5
1C
100
AcDbEntity
 67
1
  8
0
100
AcDbBlockBegin
  2
*Paper_Space
 70
0
 10
0.0
 20
0.0
 30
0.0
  3
*Paper_Space
  1

  0
ENDBLK
  5
1D
100
AcDbEntity
 67
1
  8
0
100
AcDbBlockEnd
  0
BLOCK
  5
24
100
AcDbEntity
  8
0
100
AcDbBlockBegin
  2
*Paper_Space0
 70
0
 10
0.0
 20
0.0
 30
0.0
  3
*Paper_Space0
  1

  0
ENDBLK
  5
25
100
AcDbEntity
  8
0
100
AcDbBlockEnd
  0
ENDSEC
  0
SECTION
  2
ENTITIES
  0
LINE
  5
4A
100
AcDbEntity
100
AcDbLine
  8
top
 62
256
370
-1
  6
BYLAYER
 10
0.0
 20
0.0
 30
0.0
 11
36.0
 21
0.0
 31
0.0
  0
LINE
  5
4B
100
AcDbEntity
100
AcDbLine
  8
top
 62
256
370
-1
  6
BYLAYER
 10
36.0
 20
42.0
 30
0.0
 11
0.0
 21
42.0
 31
0.0
  0
LINE
  5
4C
100
AcDbEntity
100
AcDbLine
  8
top
 62
256
370
-1
  6
BYLAYER
 10
0.0
 20
42.0
 30
0.0
 11
0.0
 21
0.0
 31
0.0
  0
LINE
  5
4D
100
AcDbEntity
100
AcDbLine
  8
top
 62
256
370
-1
  6
BYLAYER
 10
36.0
 20
0.0
 30
0.0
 11
60.0
 21
0.0
 31
0.0
  0
LINE
  5
4E
100
AcDbEntity
100
AcDbLine
  8
top
 62
256
370
-1
  6
BYLAYER
 10
60.0
 20
42.0
 30
0.0
 11
36.0
 21
42.0
 31
0.0
  0
LINE
  5
4F
100
AcDbEntity
100
AcDbLine
  8
top
 62
256
370
-1
  6
BYLAYER
 10
36.0
 20
42.0
 30
0.0
 11
36.0
 21
0.0
 31
0.0
  0
LINE
  5
50
100
AcDbEntity
100
AcDbLine
  8
top
 62
256
370
-1
  6
BYLAYER
 10
60.0
 20
42.0
 30
0.0
 11
60.0
 21
0.0
 31
0.0
  0
LINE
  5
51
100
AcDbEntity
100
AcDbLine
  8
top
 62
256
370
-1
  6
BYLAYER
 10
18.0
 20
60.0
 30
0.0
 11
48.0
 21
60.0
 31
0.0
  0
LINE
  5
52
100
AcDbEntity
100
AcDbLine
  8
top
 62
256
370
-1
  6
BYLAYER
 10
48.0
 20
102.0
 30
0.0
 11
18.0
 21
102.0
 31
0.0
  0
LINE
  5
53
100
AcDbEntity
100
AcDbLine
  8
top
 62
256
370
-1
  6
BYLAYER
 10
18.0
 20
102.0
 30
0.0
 11
18.0
 21
60.0
 31
0.0
  0
LINE
  5
54
100
AcDbEntity
100
AcDbLine
  8
top
 62
256
370
-1
  6
BYLAYER
 10
78.0
 20
60.0
 30
0.0
 11
48.0
 21
60.0
 31
0.0
  0
LINE
  5
55
100
AcDbEntity
100
AcDbLine
  8
top
 62
256
370
-1
  6
BYLAYER
 10
48.0
 20
102.0
 30
0.0
 11
78.0
 21
101.9999999999999858
 31
0.0
  0
LINE
  5
56
100
AcDbEntity
100
AcDbLine
  8
top
 62
256
370
-1
  6
BYLAYER
 10
78.0
 20
101.9999999999999858
 30
0.0
 11
78.0
 21
60.0
 31
0.0
  0
LINE
  5
57
100
AcDbEntity
100
AcDbLine
  8
top
 62
256
370
-1
  6
BYLAYER
 10
48.0
 20
102.0
 30
0.0
 11
48.0
 21
60.0
 31
0.0
  0
LINE
  5
58
100
AcDbEntity
100
AcDbLine
  8
top
 62
256
370
-1
  6
BYLAYER
 10
96.0
 20
0.0
 30
0.0
 11
60.0
 21
0.0
 31
0.0
  0
LINE
  5
59
100
AcDbEntity
100
AcDbLine
  8
top
 62
256
370
-1
  6
BYLAYER
 10
60.0
 20
42.0
 30
0.0
 11
96.0
 21
41.9999999999999929
 31
0.0
  0
LINE
  5
5A
100
AcDbEntity
100
AcDbLine
  8
top
 62
256
370
-1
  6
BYLAYER
 10
96.0
 20
42.0
 30
0.0
 11
96.0
 21
0.0
 31
0.0
  0
LINE
  5
5B
100
AcDbEntity
100
AcDbLine
  8
top
 62
256
370
-1
  6
BYLAYER
 10
23.0
 20
100.0
 30
0.0
 11
20.0
 21
100.0
 31
0.0
  0
LINE
  5
5C
100
AcDbEntity
100
AcDbLine
  8
top
 62
256
370
-1
  6
BYLAYER
 10
20.0
 20
100.0
 30
0.0
 11
20.0
 21
97.0
 31
0.0
  0
LINE
  5
5D
100
AcDbEntity
100
AcDbLine
  8
top
 62
256
370
-1
  6
BYLAYER
 10
21.25
 20
65.0000000000000284
 30
0.0
 11
21.25
 21
97.0
 31
0.0
  0
LINE
  5
5E
100
AcDbEntity
100
AcDbLine
  8
top
 62
256
370
-1
  6
BYLAYER
 10
20.5
 20
97.0
 30
0.0
 11
20.5
 21
65.0000000000000142
 31
0.0
  0
LINE
  5
5F
100
AcDbEntity
100
AcDbLine
  8
top
 62
256
370
-1
  6
BYLAYER
 10
76.0
 20
99.9999999999999858
 30
0.0
 11
76.0
 21
97.0
 31
0.0
  0
LINE
  5
60
100
AcDbEntity
100
AcDbLine
  8
top
 62
256
370
-1
  6
BYLAYER
 10
74.75
 20
65.0000000000005258
 30
0.0
 11
74.75
 21
96.9999999999999858
 31
0.0
  0
LINE
  5
61
100
AcDbEntity
100
AcDbLine
  8
top
 62
256
370
-1
  6
BYLAYER
 10
75.5000000000000142
 20
96.9999999999999858
 30
0.0
 11
75.5
 21
65.0000000000005258
 31
0.0
  0
LINE
  5
62
100
AcDbEntity
100
AcDbLine
  8
top
 62
256
370
-1
  6
BYLAYER
 10
73.0
 20
100.0
 30
0.0
 11
76.0
 21
99.9999999999999858
 31
0.0
  0
LINE
  5
63
100
AcDbEntity
100
AcDbLine
  8
top
 62
256
370
-1
  6
BYLAYER
 10
73.0
 20
99.5
 30
0.0
 11
23.0
 21
99.5
 31
0.0
  0
LINE
  5
64
100
AcDbEntity
100
AcDbLine
  8
top
 62
256
370
-1
  6
BYLAYER
 10
73.0
 20
98.75
 30
0.0
 11
23.0
 21
98.75
 31
0.0
  0
LINE
  5
65
100
AcDbEntity
100
AcDbLine
  8
top
 62
256
370
-1
  6
BYLAYER
 10
106.0
 20
89.5
 30
0.0
 11
166.0
 21
89.5
 31
0.0
  0
LINE
  5
66
100
AcDbEntity
100
AcDbLine
  8
top
 62
256
370
-1
  6
BYLAYER
 10
166.0
 20
89.5
 30
0.0
 11
166.0
 21
91.0
 31
0.0
  0
LINE
  5
67
100
AcDbEntity
100
AcDbLine
  8
top
 62
256
370
-1
  6
BYLAYER
 10
166.0
 20
91.0
 30
0.0
 11
106.0
 21
91.0
 31
0.0
  0
LINE
  5
68
100
AcDbEntity
100
AcDbLine
  8
top
 62
256
370
-1
  6
BYLAYER
 10
106.0
 20
91.0
 30
0.0
 11
106.0
 21
89.5
 31
0.0
  0
LINE
  5
69
100
AcDbEntity
100
AcDbLine
  8
top
 62
256
370
-1
  6
BYLAYER
 10
108.0
 20
60.0
 30
0.0
 11
111.0
 21
60.0
 31
0.0
  0
LINE
  5
6A
100
AcDbEntity
100
AcDbLine
  8
top
 62
256
370
-1
  6
BYLAYER
 10
111.0
 20
60.0
 30
0.0
 11
111.0
 21
89.5
 31
0.0
  0
LINE
  5
6B
100
AcDbEntity
100
AcDbLine
  8
top
 62
256
370
-1
  6
BYLAYER
 10
111.5
 20
89.5
 30
0.0
 11
108.0
 21
89.5
 31
0.0
  0
LINE
  5
6C
100
AcDbEntity
100
AcDbLine
  8
top
 62
256
370
-1
  6
BYLAYER
 10
108.0
 20
89.5
 30
0.0
 11
108.0
 21
60.0
 31
0.0
  0
LINE
  5
6D
100
AcDbEntity
100
AcDbLine
  8
top
 62
256
370
-1
  6
BYLAYER
 10
164.0
 20
60.0
 30
0.0
 11
161.0
 21
59.9999999999999929
 31
0.0
  0
LINE
  5
6E
100
AcDbEntity
100
AcDbLine
  8
top
 62
256
370
-1
  6
BYLAYER
 10
161.0
 20
59.9999999999999929
 30
0.0
 11
161.0
 21
89.5
 31
0.0
  0
LINE
  5
6F
100
AcDbEntity
100
AcDbLine
  8
top
 62
256
370
-1
  6
BYLAYER
 10
160.5
 20
89.5
 30
0.0
 11
164.0
 21
89.5
 31
0.0
  0
LINE
  5
70
100
AcDbEntity
100
AcDbLine
  8
top
 62
256
370
-1
  6
BYLAYER
 10
164.0
 20
89.5
 30
0.0
 11
164.0
 21
60.0
 31
0.0
  0
LINE
  5
71
100
AcDbEntity
100
AcDbLine
  8
top
 62
256
370
-1
  6
BYLAYER
 10
111.0
 20
86.5
 30
0.0
 11
161.0
 21
86.5
 31
0.0
  0
LINE
  5
72
100
AcDbEntity
100
AcDbLine
  8
top
 62
256
370
-1
  6
BYLAYER
 10
27.0
 20
93.0
 30
0.0
 11
69.0
 21
93.0
 31
0.0
  0
LINE
  5
73
100
AcDbEntity
100
AcDbLine
  8
top
 62
256
370
-1
  6
BYLAYER
 10
69.0
 20
69.0
 30
0.0
 11
69.0
 21
93.0
 31
0.0
  0
LINE
  5
74
100
AcDbEntity
100
AcDbLine
  8
top
 62
256
370
-1
  6
BYLAYER
 10
27.0
 20
93.0
 30
0.0
 11
27.0
 21
69.0
 31
0.0
  0
LINE
  5
75
100
AcDbEntity
100
AcDbLine
  8
top
 62
256
370
-1
  6
BYLAYER
 10
27.0
 20
69.0
 30
0.0
 11
69.0
 21
69.0
 31
0.0
  0
DIMENSION
  5
76
100
AcDbEntity
  8
dimensions
 62
256
370
-1
  6
BYLAYER
100
AcDbDimension
 10
118.0
 20
86.5
 30
0.0
 11
116.125
 21
73.25
 31
0.0
 70
1
 71
8
 72
2
 41
1.0
 42
0.0
  1

  3
Standard
100
AcDbAlignedDimension
 13
111.5
 23
86.5
 33
0.0
 14
111.5
 24
60.0
 34
0.0
1001
ACAD
1000
DSTYLE
1002
{
1070
144
1040
1
1002
}
  0
DIMENSION
  5
77
100
AcDbEntity
  8
dimensions
 62
256
370
-1
  6
BYLAYER
100
AcDbDimension
 10
92.0
 20
101.9999999999999858
 30
0.0
 11
90.125
 21
80.9999999999999858
 31
0.0
 70
1
 71
8
 72
2
 41
1.0
 42
0.0
  1

  3
Standard
100
AcDbAlignedDimension
 13
84.0
 23
101.9999999999999858
 33
0.0
 14
84.0
 24
59.9999999999999929
 34
0.0
1001
ACAD
1000
DSTYLE
1002
{
1070
144
1040
1
1002
}
  0
DIMENSION
  5
78
100
AcDbEntity
  8
dimensions
 62
256
370
-1
  6
BYLAYER
100
AcDbDimension
 10
72.5
 20
105.0
 30
0.0
 11
81.3125
 21
106.875
 31
0.0
 70
1
 71
8
 72
2
 41
1.0
 42
0.0
  1

  3
Standard
100
AcDbAlignedDimension
 13
72.5
 23
100.0
 33
0.0
 14
76.0
 24
100.0
 34
0.0
1001
ACAD
1000
DSTYLE
1002
{
1070
144
1040
1
1002
}
  0
LINE
  5
79
100
AcDbEntity
100
AcDbLine
  8
top
 62
256
370
-1
  6
BYLAYER
 10
78.5
 20
40.0
 30
0.0
 11
82.0
 21
39.9999999999999858
 31
0.0
  0
LINE
  5
7A
100
AcDbEntity
100
AcDbLine
  8
top
 62
256
370
-1
  6
BYLAYER
 10
78.5
 20
39.5
 30
0.0
 11
17.5
 21
39.5
 31
0.0
  0
LINE
  5
7B
100
AcDbEntity
100
AcDbLine
  8
top
 62
256
370
-1
  6
BYLAYER
 10
78.5
 20
38.75
 30
0.0
 11
17.5
 21
38.75
 31
0.0
  0
LINE
  5
7C
100
AcDbEntity
100
AcDbLine
  8
top
 62
256
370
-1
  6
BYLAYER
 10
78.5
 20
2.5000000000000071
 30
0.0
 11
17.5
 21
2.5000000000000142
 31
0.0
  0
LINE
  5
7D
100
AcDbEntity
100
AcDbLine
  8
top
 62
256
370
-1
  6
BYLAYER
 10
78.5
 20
3.2500000000000071
 30
0.0
 11
17.5
 21
3.25
 31
0.0
  0
LINE
  5
7E
100
AcDbEntity
100
AcDbLine
  8
top
 62
256
370
-1
  6
BYLAYER
 10
14.0
 20
36.5
 30
0.0
 11
17.5
 21
36.5
 31
0.0
  0
LINE
  5
7F
100
AcDbEntity
100
AcDbLine
  8
top
 62
256
370
-1
  6
BYLAYER
 10
17.5
 20
36.5
 30
0.0
 11
17.5
 21
40.0
 31
0.0
  0
LINE
  5
80
100
AcDbEntity
100
AcDbLine
  8
top
 62
256
370
-1
  6
BYLAYER
 10
17.5
 20
40.0
 30
0.0
 11
14.0
 21
40.0
 31
0.0
  0
LINE
  5
81
100
AcDbEntity
100
AcDbLine
  8
top
 62
256
370
-1
  6
BYLAYER
 10
14.0
 20
40.0
 30
0.0
 11
14.0
 21
36.5
 31
0.0
  0
LINE
  5
82
100
AcDbEntity
100
AcDbLine
  8
top
 62
256
370
-1
  6
BYLAYER
 10
14.0
 20
2.0
 30
0.0
 11
14.0
 21
5.5000000000000142
 31
0.0
  0
LINE
  5
83
100
AcDbEntity
100
AcDbLine
  8
top
 62
256
370
-1
  6
BYLAYER
 10
14.0
 20
5.5000000000000142
 30
0.0
 11
17.5
 21
5.5000000000000071
 31
0.0
  0
LINE
  5
84
100
AcDbEntity
100
AcDbLine
  8
top
 62
256
370
-1
  6
BYLAYER
 10
17.5
 20
5.5000000000000071
 30
0.0
 11
17.5
 21
2.0000000000000142
 31
0.0
  0
LINE
  5
85
100
AcDbEntity
100
AcDbLine
  8
top
 62
256
370
-1
  6
BYLAYER
 10
17.5
 20
2.0000000000000142
 30
0.0
 11
14.0
 21
2.0
 31
0.0
  0
LINE
  5
86
100
AcDbEntity
100
AcDbLine
  8
top
 62
256
370
-1
  6
BYLAYER
 10
15.25
 20
5.5000000000000142
 30
0.0
 11
15.25
 21
36.5000000000000142
 31
0.0
  0
LINE
  5
87
100
AcDbEntity
100
AcDbLine
  8
top
 62
256
370
-1
  6
BYLAYER
 10
14.5
 20
36.5000000000000142
 30
0.0
 11
14.5
 21
5.5000000000000142
 31
0.0
  0
LINE
  5
88
100
AcDbEntity
100
AcDbLine
  8
top
 62
256
370
-1
  6
BYLAYER
 10
82.0
 20
39.9999999999999858
 30
0.0
 11
82.0
 21
36.5
 31
0.0
  0
LINE
  5
89
100
AcDbEntity
100
AcDbLine
  8
top
 62
256
370
-1
  6
BYLAYER
 10
82.0
 20
2.0000000000000142
 30
0.0
 11
82.0
 21
5.5000000000000142
 31
0.0
  0
LINE
  5
8A
100
AcDbEntity
100
AcDbLine
  8
top
 62
256
370
-1
  6
BYLAYER
 10
82.0
 20
5.5000000000000142
 30
0.0
 11
78.5
 21
5.5000000000000071
 31
0.0
  0
LINE
  5
8B
100
AcDbEntity
100
AcDbLine
  8
top
 62
256
370
-1
  6
BYLAYER
 10
78.5
 20
5.5000000000000071
 30
0.0
 11
78.5
 21
2.0
 31
0.0
  0
LINE
  5
8C
100
AcDbEntity
100
AcDbLine
  8
top
 62
256
370
-1
  6
BYLAYER
 10
78.5
 20
2.0
 30
0.0
 11
82.0
 21
2.0000000000000142
 31
0.0
  0
LINE
  5
8D
100
AcDbEntity
100
AcDbLine
  8
top
 62
256
370
-1
  6
BYLAYER
 10
80.75
 20
5.5000000000000284
 30
0.0
 11
80.75
 21
36.5
 31
0.0
  0
LINE
  5
8E
100
AcDbEntity
100
AcDbLine
  8
top
 62
256
370
-1
  6
BYLAYER
 10
81.5
 20
36.5000000000000142
 30
0.0
 11
81.5
 21
5.5000000000000426
 31
0.0
  0
LINE
  5
8F
100
AcDbEntity
100
AcDbLine
  8
top
 62
256
370
-1
  6
BYLAYER
 10
82.0
 20
36.5
 30
0.0
 11
78.5
 21
36.5
 31
0.0
  0
LINE
  5
90
100
AcDbEntity
100
AcDbLine
  8
top
 62
256
370
-1
  6
BYLAYER
 10
78.5
 20
36.5
 30
0.0
 11
78.5
 21
40.0
 31
0.0
  0
DIMENSION
  5
91
100
AcDbEntity
  8
dimensions
 62
256
370
-1
  6
BYLAYER
100
AcDbDimension
 10
36.0
 20
32.0
 30
0.0
 11
48.0
 21
33.875
 31
0.0
 70
1
 71
8
 72
2
 41
1.0
 42
0.0
  1

  3
Standard
100
AcDbAlignedDimension
 13
36.0
 23
42.0
 33
0.0
 14
60.0
 24
42.0
 34
0.0
1001
ACAD
1000
DSTYLE
1002
{
1070
144
1040
1
1002
}
  0
LINE
  5
92
100
AcDbEntity
100
AcDbLine
  8
top
 62
256
370
-1
  6
BYLAYER
 10
32.0
 20
98.75
 30
0.0
 11
32.0000000000000071
 21
63.25
 31
0.0
  0
LINE
  5
93
100
AcDbEntity
100
AcDbLine
  8
top
 62
256
370
-1
  6
BYLAYER
 10
34.0
 20
98.75
 30
0.0
 11
34.0000000000000071
 21
63.25
 31
0.0
  0
LINE
  5
94
100
AcDbEntity
100
AcDbLine
  8
top
 62
256
370
-1
  6
BYLAYER
 10
64.0
 20
98.75
 30
0.0
 11
63.9999999999999929
 21
63.25
 31
0.0
  0
LINE
  5
95
100
AcDbEntity
100
AcDbLine
  8
top
 62
256
370
-1
  6
BYLAYER
 10
62.0
 20
98.75
 30
0.0
 11
61.9999999999999929
 21
63.25
 31
0.0
  0
LINE
  5
96
100
AcDbEntity
100
AcDbLine
  8
top
 62
256
370
-1
  6
BYLAYER
 10
120.0
 20
87.0
 30
0.0
 11
122.0
 21
87.0
 31
0.0
  0
LINE
  5
97
100
AcDbEntity
100
AcDbLine
  8
top
 62
256
370
-1
  6
BYLAYER
 10
122.0
 20
87.0
 30
0.0
 11
122.0
 21
87.75
 31
0.0
  0
LINE
  5
98
100
AcDbEntity
100
AcDbLine
  8
top
 62
256
370
-1
  6
BYLAYER
 10
122.0
 20
87.75
 30
0.0
 11
120.0
 21
87.75
 31
0.0
  0
LINE
  5
99
100
AcDbEntity
100
AcDbLine
  8
top
 62
256
370
-1
  6
BYLAYER
 10
120.0
 20
87.75
 30
0.0
 11
120.0
 21
87.0
 31
0.0
  0
LINE
  5
9A
100
AcDbEntity
100
AcDbLine
  8
top
 62
256
370
-1
  6
BYLAYER
 10
152.0
 20
87.0
 30
0.0
 11
150.0
 21
87.0
 31
0.0
  0
LINE
  5
9B
100
AcDbEntity
100
AcDbLine
  8
top
 62
256
370
-1
  6
BYLAYER
 10
150.0
 20
87.0
 30
0.0
 11
150.0
 21
87.75
 31
0.0
  0
LINE
  5
9C
100
AcDbEntity
100
AcDbLine
  8
top
 62
256
370
-1
  6
BYLAYER
 10
150.0
 20
87.75
 30
0.0
 11
152.0
 21
87.7500000000000142
 31
0.0
  0
LINE
  5
9D
100
AcDbEntity
100
AcDbLine
  8
top
 62
256
370
-1
  6
BYLAYER
 10
152.0
 20
87.7500000000000142
 30
0.0
 11
152.0
 21
87.0
 31
0.0
  0
LINE
  5
9E
100
AcDbEntity
100
AcDbLine
  8
top
 62
256
370
-1
  6
BYLAYER
 10
32.0
 20
38.75
 30
0.0
 11
32.0000000000000071
 21
3.25
 31
0.0
  0
LINE
  5
9F
100
AcDbEntity
100
AcDbLine
  8
top
 62
256
370
-1
  6
BYLAYER
 10
34.0
 20
38.75
 30
0.0
 11
34.0000000000000071
 21
3.25
 31
0.0
  0
LINE
  5
A0
100
AcDbEntity
100
AcDbLine
  8
top
 62
256
370
-1
  6
BYLAYER
 10
64.0
 20
38.75
 30
0.0
 11
63.9999999999999929
 21
3.25
 31
0.0
  0
LINE
  5
A1
100
AcDbEntity
100
AcDbLine
  8
top
 62
256
370
-1
  6
BYLAYER
 10
62.0
 20
38.75
 30
0.0
 11
61.9999999999999929
 21
3.25
 31
0.0
  0
DIMENSION
  5
A2
100
AcDbEntity
  8
dimensions
 62
256
370
-1
  6
BYLAYER
100
AcDbDimension
 10
31.9999999999999964
 20
104.0
 30
0.0
 11
36.1527777777777786
 21
105.875
 31
0.0
 70
1
 71
8
 72
2
 41
1.0
 42
0.0
  1

  3
Standard
100
AcDbAlignedDimension
 13
31.9999999999999964
 23
98.75
 33
0.0
 14
34.0
 24
98.75
 34
0.0
1001
ACAD
1000
DSTYLE
1002
{
1070
144
1040
1
1002
}
  0
DIMENSION
  5
A3
100
AcDbEntity
  8
dimensions
 62
256
370
-1
  6
BYLAYER
100
AcDbDimension
 10
125.0
 20
87.75
 30
0.0
 11
123.125
 21
91.9861111111111143
 31
0.0
 70
1
 71
8
 72
2
 41
1.0
 42
0.0
  1

  3
Standard
100
AcDbAlignedDimension
 13
122.0
 23
87.75
 33
0.0
 14
122.0
 24
87.0
 34
0.0
1001
ACAD
1000
DSTYLE
1002
{
1070
144
1040
1
1002
}
  0
DIMENSION
  5
A4
100
AcDbEntity
  8
dimensions
 62
256
370
-1
  6
BYLAYER
100
AcDbDimension
 10
150.0
 20
82.5
 30
0.0
 11
154.1527777777777715
 21
84.375
 31
0.0
 70
1
 71
8
 72
2
 41
1.0
 42
0.0
  1

  3
Standard
100
AcDbAlignedDimension
 13
150.0
 23
87.2499999999999858
 33
0.0
 14
152.0
 24
87.2499999999999858
 34
0.0
1001
ACAD
1000
DSTYLE
1002
{
1070
144
1040
1
1002
}
  0
MTEXT
  5
A5
100
AcDbEntity
100
AcDbMText
  8
labels
 62
256
370
-1
  6
BYLAYER
 10
42.5
 20
72.0
 30
0.0
 40
2.0
 41
0.0
 71
1
 72
1
  1
Leaf in storage
  7
textstyle0
 50
0.0
 73
2
 44
1.0
  0
DIMENSION
  5
A6
100
AcDbEntity
  8
dimensions
 62
256
370
-1
  6
BYLAYER
100
AcDbDimension
 10
0.0000000000000018
 20
48.0000000000000071
 30
0.0
 11
48.0
 21
49.875
 31
0.0
 70
1
 71
8
 72
2
 41
1.0
 42
0.0
  1

  3
Standard
100
AcDbAlignedDimension
 13
0.0
 23
42.0
 33
0.0
 14
96.0
 24
41.9999999999999929
 34
0.0
1001
ACAD
1000
DSTYLE
1002
{
1070
144
1040
1
1002
}
  0
DIMENSION
  5
A7
100
AcDbEntity
  8
dimensions
 62
256
370
-1
  6
BYLAYER
100
AcDbDimension
 10
104.0
 20
91.0
 30
0.0
 11
102.125
 21
96.0347222222222285
 31
0.0
 70
1
 71
8
 72
2
 41
1.0
 42
0.0
  1

  3
Standard
100
AcDbAlignedDimension
 13
106.0
 23
91.0
 33
0.0
 14
106.0
 24
89.5
 34
0.0
1001
ACAD
1000
DSTYLE
1002
{
1070
144
1040
1
1002
}
  0
DIMENSION
  5
A8
100
AcDbEntity
  8
dimensions
 62
256
370
-1
  6
BYLAYER
100
AcDbDimension
 10
167.0
 20
91.0
 30
0.0
 11
165.125
 21
75.5
 31
0.0
 70
1
 71
8
 72
2
 41
1.0
 42
0.0
  1

  3
Standard
100
AcDbAlignedDimension
 13
164.0
 23
91.0
 33
0.0
 14
164.0
 24
60.0
 34
0.0
1001
ACAD
1000
DSTYLE
1002
{
1070
144
1040
1
1002
}
  0
DIMENSION
  5
A9
100
AcDbEntity
  8
dimensions
 62
256
370
-1
  6
BYLAYER
100
AcDbDimension
 10
18.0
 20
56.0
 30
0.0
 11
48.0
 21
57.875
 31
0.0
 70
1
 71
8
 72
2
 41
1.0
 42
0.0
  1

  3
Standard
100
AcDbAlignedDimension
 13
18.0
 23
60.0
 33
0.0
 14
78.0
 24
60.0
 34
0.0
1001
ACAD
1000
DSTYLE
1002
{
1070
144
1040
1
1002
}
  0
DIMENSION
  5
AA
100
AcDbEntity
  8
dimensions
 62
256
370
-1
  6
BYLAYER
100
AcDbDimension
 10
106.0
 20
96.0
 30
0.0
 11
136.0
 21
97.875
 31
0.0
 70
1
 71
8
 72
2
 41
1.0
 42
0.0
  1

  3
Standard
100
AcDbAlignedDimension
 13
106.0
 23
91.0
 33
0.0
 14
166.0
 24
91.0
 34
0.0
1001
ACAD
1000
DSTYLE
1002
{
1070
144
1040
1
1002
}
  0
LINE
  5
AB
100
AcDbEntity
100
AcDbLine
  8
top
 62
256
370
-1
  6
BYLAYER
 10
170.5
 20
42.0
 30
0.0
 11
140.5
 21
42.0
 31
0.0
  0
LINE
  5
AC
100
AcDbEntity
100
AcDbLine
  8
top
 62
256
370
-1
  6
BYLAYER
 10
140.5
 20
42.0
 30
0.0
 11
140.5
 21
0.0
 31
0.0
  0
LINE
  5
AD
100
AcDbEntity
100
AcDbLine
  8
top
 62
256
370
-1
  6
BYLAYER
 10
170.5
 20
42.0
 30
0.0
 11
170.5
 21
0.0
 31
0.0
  0
LINE
  5
AE
100
AcDbEntity
100
AcDbLine
  8
top
 62
256
370
-1
  6
BYLAYER
 10
158.0
 20
36.5
 30
0.0
 11
161.5
 21
36.5
 31
0.0
  0
LINE
  5
AF
100
AcDbEntity
100
AcDbLine
  8
top
 62
256
370
-1
  6
BYLAYER
 10
161.5
 20
36.5
 30
0.0
 11
161.5
 21
40.0
 31
0.0
  0
LINE
  5
B0
100
AcDbEntity
100
AcDbLine
  8
top
 62
256
370
-1
  6
BYLAYER
 10
161.5
 20
40.0
 30
0.0
 11
158.0
 21
40.0
 31
0.0
  0
LINE
  5
B1
100
AcDbEntity
100
AcDbLine
  8
top
 62
256
370
-1
  6
BYLAYER
 10
170.0
 20
38.75
 30
0.0
 11
170.0
 21
3.25
 31
0.0
  0
LINE
  5
B2
100
AcDbEntity
100
AcDbLine
  8
top
 62
256
370
-1
  6
BYLAYER
 10
158.0
 20
40.0
 30
0.0
 11
158.0
 21
36.5
 31
0.0
  0
LINE
  5
B3
100
AcDbEntity
100
AcDbLine
  8
top
 62
256
370
-1
  6
BYLAYER
 10
172.0
 20
38.75
 30
0.0
 11
172.0
 21
3.25
 31
0.0
  0
LINE
  5
B4
100
AcDbEntity
100
AcDbLine
  8
top
 62
256
370
-1
  6
BYLAYER
 10
158.0
 20
2.0
 30
0.0
 11
158.0
 21
5.5000000000000142
 31
0.0
  0
LINE
  5
B5
100
AcDbEntity
100
AcDbLine
  8
top
 62
256
370
-1
  6
BYLAYER
 10
158.0
 20
5.5000000000000142
 30
0.0
 11
161.5
 21
5.5
 31
0.0
  0
LINE
  5
B6
100
AcDbEntity
100
AcDbLine
  8
top
 62
256
370
-1
  6
BYLAYER
 10
202.0
 20
38.75
 30
0.0
 11
202.0
 21
3.25
 31
0.0
  0
LINE
  5
B7
100
AcDbEntity
100
AcDbLine
  8
top
 62
256
370
-1
  6
BYLAYER
 10
161.5
 20
5.5
 30
0.0
 11
161.5
 21
2.0000000000000142
 31
0.0
  0
LINE
  5
B8
100
AcDbEntity
100
AcDbLine
  8
top
 62
256
370
-1
  6
BYLAYER
 10
200.0
 20
38.75
 30
0.0
 11
200.0
 21
3.25
 31
0.0
  0
LINE
  5
B9
100
AcDbEntity
100
AcDbLine
  8
top
 62
256
370
-1
  6
BYLAYER
 10
161.5
 20
2.0000000000000142
 30
0.0
 11
158.0
 21
2.0
 31
0.0
  0
LINE
  5
BA
100
AcDbEntity
100
AcDbLine
  8
top
 62
256
370
-1
  6
BYLAYER
 10
159.25
 20
5.5000000000000142
 30
0.0
 11
159.25
 21
36.5000000000000142
 31
0.0
  0
LINE
  5
BB
100
AcDbEntity
100
AcDbLine
  8
top
 62
256
370
-1
  6
BYLAYER
 10
158.5
 20
36.5000000000000142
 30
0.0
 11
158.5
 21
5.5000000000000142
 31
0.0
  0
LINE
  5
BC
100
AcDbEntity
100
AcDbLine
  8
top
 62
256
370
-1
  6
BYLAYER
 10
214.0
 20
39.9999999999999858
 30
0.0
 11
214.0
 21
36.5
 31
0.0
  0
LINE
  5
BD
100
AcDbEntity
100
AcDbLine
  8
top
 62
256
370
-1
  6
BYLAYER
 10
214.0
 20
2.0000000000000142
 30
0.0
 11
214.0
 21
5.5000000000000142
 31
0.0
  0
LINE
  5
BE
100
AcDbEntity
100
AcDbLine
  8
top
 62
256
370
-1
  6
BYLAYER
 10
214.0
 20
5.5000000000000142
 30
0.0
 11
210.5
 21
5.5
 31
0.0
  0
LINE
  5
BF
100
AcDbEntity
100
AcDbLine
  8
top
 62
256
370
-1
  6
BYLAYER
 10
210.5
 20
5.5
 30
0.0
 11
210.5
 21
2.0
 31
0.0
  0
LINE
  5
C0
100
AcDbEntity
100
AcDbLine
  8
top
 62
256
370
-1
  6
BYLAYER
 10
210.5
 20
2.0
 30
0.0
 11
214.0
 21
2.0000000000000142
 31
0.0
  0
LINE
  5
C1
100
AcDbEntity
100
AcDbLine
  8
top
 62
256
370
-1
  6
BYLAYER
 10
212.75
 20
5.5000000000000284
 30
0.0
 11
212.75
 21
36.5
 31
0.0
  0
LINE
  5
C2
100
AcDbEntity
100
AcDbLine
  8
top
 62
256
370
-1
  6
BYLAYER
 10
213.5
 20
36.5000000000000142
 30
0.0
 11
213.5
 21
5.5000000000000426
 31
0.0
  0
LINE
  5
C3
100
AcDbEntity
100
AcDbLine
  8
top
 62
256
370
-1
  6
BYLAYER
 10
214.0
 20
36.5
 30
0.0
 11
210.5
 21
36.5
 31
0.0
  0
LINE
  5
C4
100
AcDbEntity
100
AcDbLine
  8
top
 62
256
370
-1
  6
BYLAYER
 10
210.5
 20
36.5
 30
0.0
 11
210.5
 21
40.0
 31
0.0
  0
LINE
  5
C5
100
AcDbEntity
100
AcDbLine
  8
top
 62
256
370
-1
  6
BYLAYER
 10
210.5
 20
40.0
 30
0.0
 11
214.0
 21
39.9999999999999858
 31
0.0
  0
LINE
  5
C6
100
AcDbEntity
100
AcDbLine
  8
top
 62
256
370
-1
  6
BYLAYER
 10
210.5
 20
39.5
 30
0.0
 11
161.5
 21
39.5
 31
0.0
  0
LINE
  5
C7
100
AcDbEntity
100
AcDbLine
  8
top
 62
256
370
-1
  6
BYLAYER
 10
210.5
 20
38.75
 30
0.0
 11
161.5
 21
38.75
 31
0.0
  0
LINE
  5
C8
100
AcDbEntity
100
AcDbLine
  8
top
 62
256
370
-1
  6
BYLAYER
 10
210.5
 20
2.5000000000000071
 30
0.0
 11
161.5
 21
2.5000000000000142
 31
0.0
  0
LINE
  5
C9
100
AcDbEntity
100
AcDbLine
  8
top
 62
256
370
-1
  6
BYLAYER
 10
210.5
 20
3.2500000000000071
 30
0.0
 11
161.5
 21
3.25
 31
0.0
  0
LINE
  5
CA
100
AcDbEntity
100
AcDbLine
  8
top
 62
256
370
-1
  6
BYLAYER
 10
165.0
 20
33.0
 30
0.0
 11
207.0
 21
33.0
 31
0.0
  0
LINE
  5
CB
100
AcDbEntity
100
AcDbLine
  8
top
 62
256
370
-1
  6
BYLAYER
 10
207.0
 20
9.0
 30
0.0
 11
207.0
 21
33.0
 31
0.0
  0
LINE
  5
CC
100
AcDbEntity
100
AcDbLine
  8
top
 62
256
370
-1
  6
BYLAYER
 10
165.0
 20
33.0
 30
0.0
 11
165.0
 21
9.0
 31
0.0
  0
LINE
  5
CD
100
AcDbEntity
100
AcDbLine
  8
top
 62
256
370
-1
  6
BYLAYER
 10
165.0
 20
9.0
 30
0.0
 11
207.0
 21
9.0
 31
0.0
  0
LINE
  5
CE
100
AcDbEntity
100
AcDbLine
  8
top
 62
256
370
-1
  6
BYLAYER
 10
140.5
 20
0.0
 30
0.0
 11
170.5
 21
0.0
 31
0.0
  0
LINE
  5
CF
100
AcDbEntity
100
AcDbLine
  8
top
 62
256
370
-1
  6
BYLAYER
 10
163.3622049999999888
 20
38.25
 30
0.0
 11
208.6377950000000112
 21
38.25
 31
0.0
  0
LINE
  5
D0
100
AcDbEntity
100
AcDbLine
  8
top
 62
256
370
-1
  6
BYLAYER
 10
208.6377950000000112
 20
38.25
 30
0.0
 11
208.6377950000000112
 21
38.75
 31
0.0
  0
LINE
  5
D1
100
AcDbEntity
100
AcDbLine
  8
top
 62
256
370
-1
  6
BYLAYER
 10
208.6377950000000112
 20
38.75
 30
0.0
 11
163.3622049999999888
 21
38.75
 31
0.0
  0
LINE
  5
D2
100
AcDbEntity
100
AcDbLine
  8
top
 62
256
370
-1
  6
BYLAYER
 10
163.3622049999999888
 20
38.75
 30
0.0
 11
163.3622049999999888
 21
38.25
 31
0.0
  0
LINE
  5
D3
100
AcDbEntity
100
AcDbLine
  8
top
 62
256
370
-1
  6
BYLAYER
 10
25.3622049999999994
 20
38.25
 30
0.0
 11
70.637794999999997
 21
38.25
 31
0.0
  0
LINE
  5
D4
100
AcDbEntity
100
AcDbLine
  8
top
 62
256
370
-1
  6
BYLAYER
 10
70.637794999999997
 20
38.25
 30
0.0
 11
70.637794999999997
 21
38.75
 31
0.0
  0
LINE
  5
D5
100
AcDbEntity
100
AcDbLine
  8
top
 62
256
370
-1
  6
BYLAYER
 10
70.637794999999997
 20
38.75
 30
0.0
 11
25.3622049999999994
 21
38.75
 31
0.0
  0
LINE
  5
D6
100
AcDbEntity
100
AcDbLine
  8
top
 62
256
370
-1
  6
BYLAYER
 10
25.3622049999999994
 20
38.75
 30
0.0
 11
25.3622049999999994
 21
38.25
 31
0.0
  0
LINE
  5
D7
100
AcDbEntity
100
AcDbLine
  8
top
 62
256
370
-1
  6
BYLAYER
 10
164.0
 20
37.75
 30
0.0
 11
170.0
 21
37.75
 31
0.0
  0
LINE
  5
D8
100
AcDbEntity
100
AcDbLine
  8
top
 62
256
370
-1
  6
BYLAYER
 10
170.0
 20
37.75
 30
0.0
 11
170.0
 21
38.25
 31
0.0
  0
LINE
  5
D9
100
AcDbEntity
100
AcDbLine
  8
top
 62
256
370
-1
  6
BYLAYER
 10
170.0
 20
38.25
 30
0.0
 11
164.0
 21
38.25
 31
0.0
  0
LINE
  5
DA
100
AcDbEntity
100
AcDbLine
  8
top
 62
256
370
-1
  6
BYLAYER
 10
164.0
 20
38.25
 30
0.0
 11
164.0
 21
37.75
 31
0.0
  0
LINE
  5
DB
100
AcDbEntity
100
AcDbLine
  8
top
 62
256
370
-1
  6
BYLAYER
 10
208.0
 20
38.2500000000000071
 30
0.0
 11
208.0
 21
37.75
 31
0.0
  0
LINE
  5
DC
100
AcDbEntity
100
AcDbLine
  8
top
 62
256
370
-1
  6
BYLAYER
 10
231.5
 20
0.0
 30
0.0
 11
201.4999999999999716
 21
-0.0000000000000071
 31
0.0
  0
LINE
  5
DD
100
AcDbEntity
100
AcDbLine
  8
top
 62
256
370
-1
  6
BYLAYER
 10
201.5
 20
42.0
 30
0.0
 11
201.4999999999999716
 21
-0.0000000000000071
 31
0.0
  0
LINE
  5
DE
100
AcDbEntity
100
AcDbLine
  8
top
 62
256
370
-1
  6
BYLAYER
 10
201.5
 20
42.0
 30
0.0
 11
231.5
 21
41.9999999999999574
 31
0.0
  0
LINE
  5
DF
100
AcDbEntity
100
AcDbLine
  8
top
 62
256
370
-1
  6
BYLAYER
 10
208.0
 20
37.75
 30
0.0
 11
202.0
 21
37.7499999999999929
 31
0.0
  0
LINE
  5
E0
100
AcDbEntity
100
AcDbLine
  8
top
 62
256
370
-1
  6
BYLAYER
 10
231.5
 20
41.9999999999999574
 30
0.0
 11
231.5
 21
0.0
 31
0.0
  0
LINE
  5
E1
100
AcDbEntity
100
AcDbLine
  8
top
 62
256
370
-1
  6
BYLAYER
 10
202.0
 20
37.7499999999999929
 30
0.0
 11
202.0
 21
38.25
 31
0.0
  0
LINE
  5
E2
100
AcDbEntity
100
AcDbLine
  8
top
 62
256
370
-1
  6
BYLAYER
 10
202.0
 20
38.25
 30
0.0
 11
208.0
 21
38.2500000000000071
 31
0.0
  0
LINE
  5
E3
100
AcDbEntity
100
AcDbLine
  8
top
 62
256
370
-1
  6
BYLAYER
 10
73.0
 20
100.0
 30
0.0
 11
73.0
 21
97.0
 31
0.0
  0
LINE
  5
E4
100
AcDbEntity
100
AcDbLine
  8
top
 62
256
370
-1
  6
BYLAYER
 10
73.0
 20
97.0
 30
0.0
 11
76.0
 21
97.0
 31
0.0
  0
LINE
  5
E5
100
AcDbEntity
100
AcDbLine
  8
top
 62
256
370
-1
  6
BYLAYER
 10
23.0
 20
100.0
 30
0.0
 11
23.0
 21
97.0
 31
0.0
  0
LINE
  5
E6
100
AcDbEntity
100
AcDbLine
  8
top
 62
256
370
-1
  6
BYLAYER
 10
23.0
 20
97.0
 30
0.0
 11
20.0
 21
97.0
 31
0.0
  0
LINE
  5
E7
100
AcDbEntity
100
AcDbLine
  8
top
 62
256
370
-1
  6
BYLAYER
 10
23.0
 20
62.0000000000000213
 30
0.0
 11
19.9999999999999929
 21
62.0000000000000213
 31
0.0
  0
LINE
  5
E8
100
AcDbEntity
100
AcDbLine
  8
top
 62
256
370
-1
  6
BYLAYER
 10
72.9999999999999858
 20
62.0
 30
0.0
 11
76.0
 21
62.0000000000000142
 31
0.0
  0
LINE
  5
E9
100
AcDbEntity
100
AcDbLine
  8
top
 62
256
370
-1
  6
BYLAYER
 10
19.9999999999999929
 20
62.0000000000000213
 30
0.0
 11
20.0
 21
65.0
 31
0.0
  0
LINE
  5
EA
100
AcDbEntity
100
AcDbLine
  8
top
 62
256
370
-1
  6
BYLAYER
 10
73.0
 20
62.5
 30
0.0
 11
23.0
 21
62.5
 31
0.0
  0
LINE
  5
EB
100
AcDbEntity
100
AcDbLine
  8
top
 62
256
370
-1
  6
BYLAYER
 10
72.9999999999999858
 20
63.25
 30
0.0
 11
23.0
 21
63.2500000000000142
 31
0.0
  0
LINE
  5
EC
100
AcDbEntity
100
AcDbLine
  8
top
 62
256
370
-1
  6
BYLAYER
 10
72.9999999999999858
 20
62.0
 30
0.0
 11
73.0
 21
65.0
 31
0.0
  0
LINE
  5
ED
100
AcDbEntity
100
AcDbLine
  8
top
 62
256
370
-1
  6
BYLAYER
 10
73.0
 20
65.0
 30
0.0
 11
76.0
 21
65.0
 31
0.0
  0
LINE
  5
EE
100
AcDbEntity
100
AcDbLine
  8
top
 62
256
370
-1
  6
BYLAYER
 10
23.0
 20
62.0000000000000213
 30
0.0
 11
22.9999999999999929
 21
65.0000000000000284
 31
0.0
  0
LINE
  5
EF
100
AcDbEntity
100
AcDbLine
  8
top
 62
256
370
-1
  6
BYLAYER
 10
22.9999999999999929
 20
65.0000000000000284
 30
0.0
 11
20.0
 21
65.0
 31
0.0
  0
LINE
  5
F0
100
AcDbEntity
100
AcDbLine
  8
top
 62
256
370
-1
  6
BYLAYER
 10
76.0
 20
62.0000000000000142
 30
0.0
 11
76.0
 21
65.0
 31
0.0
  0
ENDSEC
  0
SECTION
  2
OBJECTS
  0
DICTIONARY
  5
C
100
AcDbDictionary
280
0
281
1
  3
ACAD_GROUP
350
D
  3
ACAD_LAYOUT
350
1A
  3
ACAD_MLINESTYLE
350
17
  3
ACAD_PLOTSETTINGS
350
19
  3
ACAD_PLOTSTYLENAME
350
E
  3
AcDbVariableDictionary
350
F1
  3
QCAD_OBJECTS
350
F2
  0
DICTIONARY
  5
D
100
AcDbDictionary
280
0
281
1
  0
ACDBDICTIONARYWDFLT
  5
E
100
AcDbDictionary
281
1
  3
Normal
350
F
100
AcDbDictionaryWithDefault
340
F
  0
ACDBPLACEHOLDER
  5
F
  0
DICTIONARY
  5
17
100
AcDbDictionary
280
0
281
1
  3
Standard
350
18
  0
MLINESTYLE
  5
18
100
AcDbMlineStyle
  2
STANDARD
 70
0
  3

 62
256
 51
90.0
 52
90.0
 71
2
 49
0.5
 62
256
  6
BYLAYER
 49
-0.5
 62
256
  6
BYLAYER
  0
DICTIONARY
  5
19
100
AcDbDictionary
280
0
281
1
  0
DICTIONARY
  5
1A
100
AcDbDictionary
281
1
  3
Layout1
350
1E
  3
Layout2
350
26
  3
Model
350
22
  0
LAYOUT
  5
1E
100
AcDbPlotSettings
  1

  2
none_device
  4

  6

 40
0.0
 41
0.0
 42
0.0
 43
0.0
 44
0.0
 45
0.0
 46
0.0
 47
0.0
 48
0.0
 49
0.0
140
0.0
141
0.0
142
1.0
143
1.0
 70
688
 72
0
 73
0
 74
5
  7

 75
16
147
1.0
148
0.0
149
0.0
100
AcDbLayout
  1
Layout1
 70
1
 71
1
 10
0.0
 20
0.0
 11
420.0
 21
297.0
 12
0.0
 22
0.0
 32
0.0
 14
100000000000000000000.0
 24
100000000000000000000.0
 34
100000000000000000000.0
 15
-100000000000000000000.0
 25
-100000000000000000000.0
 35
-100000000000000000000.0
146
0.0
 13
0.0
 23
0.0
 33
0.0
 16
1.0
 26
0.0
 36
0.0
 17
0.0
 27
1.0
 37
0.0
 76
0
330
1B
  0
LAYOUT
  5
22
100
AcDbPlotSettings
  1

  2
none_device
  4

  6

 40
0.0
 41
0.0
 42
0.0
 43
0.0
 44
0.0
 45
0.0
 46
0.0
 47
0.0
 48
0.0
 49
0.0
140
0.0
141
0.0
142
1.0
143
1.0
 70
1712
 72
0
 73
0
 74
0
  7

 75
0
147
1.0
148
0.0
149
0.0
100
AcDbLayout
  1
Model
 70
1
 71
0
 10
0.0
 20
0.0
 11
12.0
 21
9.0
 12
0.0
 22
0.0
 32
0.0
 14
0.0
 24
0.0
 34
0.0
 15
0.0
 25
0.0
 35
0.0
146
0.0
 13
0.0
 23
0.0
 33
0.0
 16
1.0
 26
0.0
 36
0.0
 17
0.0
 27
1.0
 37
0.0
 76
0
330
1F
  0
LAYOUT
  5
26
100
AcDbPlotSettings
  1

  2
none_device
  4

  6

 40
0.0
 41
0.0
 42
0.0
 43
0.0
 44
0.0
 45
0.0
 46
0.0
 47
0.0
 48
0.0
 49
0.0
140
0.0
141
0.0
142
1.0
143
1.0
 70
688
 72
0
 73
0
 74
5
  7

 75
16
147
1.0
148
0.0
149
0.0
100
AcDbLayout
  1
Layout2
 70
1
 71
2
 10
0.0
 20
0.0
 11
12.0
 21
9.0
 12
0.0
 22
0.0
 32
0.0
 14
0.0
 24
0.0
 34
0.0
 15
0.0
 25
0.0
 35
0.0
146
0.0
 13
0.0
 23
0.0
 33
0.0
 16
1.0
 26
0.0
 36
0.0
 17
0.0
 27
1.0
 37
0.0
 76
0
330
23
  0
DICTIONARY
  5
F1
100
AcDbDictionary
281
1
  3
DIMASSOC
350
F4
  3
HIDETEXT
350
F3
  0
DICTIONARYVAR
  5
F3
100
DictionaryVariables
280
0
  1
2
  0
DICTIONARYVAR
  5
F4
100
DictionaryVariables
280
0
  1
1
  0
DICTIONARY
  5
F2
100
AcDbDictionary
281
1
  3
DimensionSettings/AngularFormat
350
F5
  3
DimensionSettings/AngularPrecision
350
F6
  3
DimensionSettings/KeepProportions
350
F7
  3
DimensionSettings/LinearFormat
350
F8
  3
DimensionSettings/LinearPrecision
350
F9
  3
Grid/DisplayGrid00
350
FA
  3
Grid/DisplayGrid01
350
FB
  3
Grid/DisplayGrid02
350
FC
  3
Grid/DisplayGrid03
350
FD
  3
Grid/GridSpacingX00
350
FE
  3
Grid/GridSpacingX01
350
FF
  3
Grid/GridSpacingX02
350
100
  3
Grid/GridSpacingX03
350
101
  3
Grid/GridSpacingY00
350
102
  3
Grid/GridSpacingY01
350
103
  3
Grid/GridSpacingY02
350
104
  3
Grid/GridSpacingY03
350
105
  3
Grid/IsometricGrid00
350
106
  3
Grid/IsometricGrid01
350
107
  3
Grid/IsometricGrid02
350
108
  3
Grid/IsometricGrid03
350
109
  3
Grid/IsometricProjection00
350
10A
  3
Grid/IsometricProjection01
350
10B
  3
Grid/IsometricProjection02
350
10C
  3
Grid/IsometricProjection03
350
10D
  3
Grid/MetaGridSpacingX00
350
10E
  3
Grid/MetaGridSpacingX01
350
10F
  3
Grid/MetaGridSpacingX02
350
110
  3
Grid/MetaGridSpacingX03
350
111
  3
Grid/MetaGridSpacingY00
350
112
  3
Grid/MetaGridSpacingY01
350
113
  3
Grid/MetaGridSpacingY02
350
114
  3
Grid/MetaGridSpacingY03
350
115
  3
MultiPageSettings/Columns
350
116
  3
MultiPageSettings/GlueMarginsBottom
350
117
  3
MultiPageSettings/GlueMarginsLeft
350
118
  3
MultiPageSettings/GlueMarginsRight
350
119
  3
MultiPageSettings/GlueMarginsTop
350
11A
  3
MultiPageSettings/PrintCropMarks
350
11B
  3
MultiPageSettings/Rows
350
11C
  3
PageSettings/OffsetX
350
11D
  3
PageSettings/OffsetY
350
11E
  3
PageSettings/PageOrientation
350
11F
  3
PageSettings/PaperHeight
350
120
  3
PageSettings/PaperWidth
350
121
  3
PageSettings/Scale
350
122
  3
PageSettings/ShowPaperBorders
350
123
  3
UnitSettings/PaperUnit
350
124
  0
XRECORD
  5
F5
330
F2
100
AcDbXrecord
280
1
 90
0
  0
XRECORD
  5
F6
330
F2
100
AcDbXrecord
280
1
 90
0
  0
XRECORD
  5
F7
330
F2
100
AcDbXrecord
280
1
290
1
  0
XRECORD
  5
F8
330
F2
100
AcDbXrecord
280
1
 90
4
  0
XRECORD
  5
F9
330
F2
100
AcDbXrecord
280
1
 90
5
  0
XRECORD
  5
FA
330
F2
100
AcDbXrecord
280
1
290
1
  0
XRECORD
  5
FB
330
F2
100
AcDbXrecord
280
1
290
1
  0
XRECORD
  5
FC
330
F2
100
AcDbXrecord
280
1
290
1
  0
XRECORD
  5
FD
330
F2
100
AcDbXrecord
280
1
290
1
  0
XRECORD
  5
FE
330
F2
100
AcDbXrecord
280
1
1000
auto
  0
XRECORD
  5
FF
330
F2
100
AcDbXrecord
280
1
1000
auto
  0
XRECORD
  5
100
330
F2
100
AcDbXrecord
280
1
1000
auto
  0
XRECORD
  5
101
330
F2
100
AcDbXrecord
280
1
1000
auto
  0
XRECORD
  5
102
330
F2
100
AcDbXrecord
280
1
1000
auto
  0
XRECORD
  5
103
330
F2
100
AcDbXrecord
280
1
1000
auto
  0
XRECORD
  5
104
330
F2
100
AcDbXrecord
280
1
1000
auto
  0
XRECORD
  5
105
330
F2
100
AcDbXrecord
280
1
1000
auto
  0
XRECORD
  5
106
330
F2
100
AcDbXrecord
280
1
290
0
  0
XRECORD
  5
107
330
F2
100
AcDbXrecord
280
1
290
0
  0
XRECORD
  5
108
330
F2
100
AcDbXrecord
280
1
290
0
  0
XRECORD
  5
109
330
F2
100
AcDbXrecord
280
1
290
0
  0
XRECORD
  5
10A
330
F2
100
AcDbXrecord
280
1
 90
0
  0
XRECORD
  5
10B
330
F2
100
AcDbXrecord
280
1
 90
0
  0
XRECORD
  5
10C
330
F2
100
AcDbXrecord
280
1
 90
0
  0
XRECORD
  5
10D
330
F2
100
AcDbXrecord
280
1
 90
0
  0
XRECORD
  5
10E
330
F2
100
AcDbXrecord
280
1
1000
auto
  0
XRECORD
  5
10F
330
F2
100
AcDbXrecord
280
1
1000
auto
  0
XRECORD
  5
110
330
F2
100
AcDbXrecord
280
1
1000
auto
  0
XRECORD
  5
111
330
F2
100
AcDbXrecord
280
1
1000
auto
  0
XRECORD
  5
112
330
F2
100
AcDbXrecord
280
1
1000
auto
  0
XRECORD
  5
113
330
F2
100
AcDbXrecord
280
1
1000
auto
  0
XRECORD
  5
114
330
F2
100
AcDbXrecord
280
1
1000
auto
  0
XRECORD
  5
115
330
F2
100
AcDbXrecord
280
1
1000
auto
  0
XRECORD
  5
116
330
F2
100
AcDbXrecord
280
1
 90
1
  0
XRECORD
  5
117
330
F2
100
AcDbXrecord
280
1
 40
10.0
  0
XRECORD
  5
118
330
F2
100
AcDbXrecord
280
1
 40
10.0
  0
XRECORD
  5
119
330
F2
100
AcDbXrecord
280
1
 40
10.0
  0
XRECORD
  5
11A
330
F2
100
AcDbXrecord
280
1
 40
10.0
  0
XRECORD
  5
11B
330
F2
100
AcDbXrecord
280
1
290
0
  0
XRECORD
  5
11C
330
F2
100
AcDbXrecord
280
1
 90
1
  0
XRECORD
  5
11D
330
F2
100
AcDbXrecord
280
1
 40
-12.2364827586206939
  0
XRECORD
  5
11E
330
F2
100
AcDbXrecord
280
1
 40
-22.9334689655171893
  0
XRECORD
  5
11F
330
F2
100
AcDbXrecord
280
1
1000
Landscape
  0
XRECORD
  5
120
330
F2
100
AcDbXrecord
280
1
 40
279.3999999999999773
  0
XRECORD
  5
121
330
F2
100
AcDbXrecord
280
1
 40
215.9000000000000057
  0
XRECORD
  5
122
330
F2
100
AcDbXrecord
280
1
1000
1:18
  0
XRECORD
  5
123
330
F2
100
AcDbXrecord
280
1
290
1
  0
XRECORD
  5
124
330
F2
100
AcDbXrecord
280
1
 90
4
  0
ENDSEC
  0
EOF
