999
dxflib 3.3.4.0
  0
SECTION
  2
HEADER
  9
$ACADVER
  1
AC1015
  9
$HANDSEED
  5
FFFF
  9
$DIMADEC
 70
0
  9
$DIMASZ
 40
2.5
  9
$DIMAUNIT
 70
0
  9
$DIMAZIN
 70
2
  9
$DIMDEC
 70
5
  9
$DIMEXE
 40
1.25
  9
$DIMEXO
 40
0.625
  9
$DIMGAP
 40
0.625
  9
$DIMLUNIT
 70
4
  9
$DIMTSZ
 40
0.0
  9
$DIMTXT
 40
2.5
  9
$DIMZIN
 70
8
  9
$DWGCODEPAGE
  3
ANSI_1252
  9
$INSUNITS
 70
1
  9
$LTSCALE
 40
1.0
  0
ENDSEC
  0
SECTION
  2
TABLES
  0
TABLE
  2
VPORT
  5
8
100
AcDbSymbolTable
 70
1
  0
VPORT
  5
30
100
AcDbSymbolTableRecord
100
AcDbViewportTableRecord
  2
*Active
 70
0
 10
0.0
 20
0.0
 11
1.0
 21
1.0
 12
286.3055555555554861
 22
148.5
 13
0.0
 23
0.0
 14
10.0
 24
10.0
 15
10.0
 25
10.0
 16
0.0
 26
0.0
 36
1.0
 17
0.0
 27
0.0
 37
0.0
 40
297.0
 41
1.92798353909465
 42
50.0
 43
0.0
 44
0.0
 50
0.0
 51
0.0
 71
0
 72
100
 73
1
 74
3
 75
1
 76
1
 77
0
 78
0
281
0
 65
1
110
0.0
120
0.0
130
0.0
111
1.0
121
0.0
131
0.0
112
0.0
122
1.0
132
0.0
 79
0
146
0.0
  0
ENDTAB
  0
TABLE
  2
LTYPE
  5
5
100
AcDbSymbolTable
 70
21
  0
LTYPE
  5
16
100
AcDbSymbolTableRecord
100
AcDbLinetypeTableRecord
  2
CONTINUOUS
 70
0
  3
Solid line
 72
65
 73
0
 40
0.0
  0
LTYPE
  5
31
100
AcDbSymbolTableRecord
100
AcDbLinetypeTableRecord
  2
CENTER2
 70
0
  3
Center (.5x) ___ _ ___ _ ___ _ ___ _ ___ _ ___
 72
65
 73
4
 40
28.5749999999999993
 49
19.0500000000000007
 74
0
 49
-3.1749999999999998
 74
0
 49
3.1749999999999998
 74
0
 49
-3.1749999999999998
 74
0
  0
LTYPE
  5
32
100
AcDbSymbolTableRecord
100
AcDbLinetypeTableRecord
  2
DIVIDEX2
 70
0
  3
Divide (2x) ________  .  .  ________  .  .  _
 72
65
 73
6
 40
63.5
 49
25.3999999999999986
 74
0
 49
-12.6999999999999993
 74
0
 49
0.0
 74
0
 49
-12.6999999999999993
 74
0
 49
0.0
 74
0
 49
-12.6999999999999993
 74
0
  0
LTYPE
  5
33
100
AcDbSymbolTableRecord
100
AcDbLinetypeTableRecord
  2
DOT2
 70
0
  3
Dot (.5x) .....................................
 72
65
 73
2
 40
3.1749999999999998
 49
0.0
 74
0
 49
-3.1749999999999998
 74
0
  0
LTYPE
  5
34
100
AcDbSymbolTableRecord
100
AcDbLinetypeTableRecord
  2
DASHDOT2
 70
0
  3
Dash dot (.5x) _._._._._._._._._._._._._._._.
 72
65
 73
4
 40
12.6999999999999993
 49
6.3499999999999996
 74
0
 49
-3.1749999999999998
 74
0
 49
0.0
 74
0
 49
-3.1749999999999998
 74
0
  0
LTYPE
  5
35
100
AcDbSymbolTableRecord
100
AcDbLinetypeTableRecord
  2
DIVIDE
 70
0
  3
Divide ____ . . ____ . . ____ . . ____ . . ____
 72
65
 73
6
 40
31.75
 49
12.6999999999999993
 74
0
 49
-6.3499999999999996
 74
0
 49
0.0
 74
0
 49
-6.3499999999999996
 74
0
 49
0.0
 74
0
 49
-6.3499999999999996
 74
0
  0
LTYPE
  5
36
100
AcDbSymbolTableRecord
100
AcDbLinetypeTableRecord
  2
DASHDOT
 70
0
  3
Dash dot __ . __ . __ . __ . __ . __ . __ . __
 72
65
 73
4
 40
25.3999999999999986
 49
12.6999999999999993
 74
0
 49
-6.3499999999999996
 74
0
 49
0.0
 74
0
 49
-6.3499999999999996
 74
0
  0
LTYPE
  5
37
100
AcDbSymbolTableRecord
100
AcDbLinetypeTableRecord
  2
BORDER
 70
0
  3
Border __ __ . __ __ . __ __ . __ __ . __ __ .
 72
65
 73
6
 40
44.4500000000000028
 49
12.6999999999999993
 74
0
 49
-6.3499999999999996
 74
0
 49
12.6999999999999993
 74
0
 49
-6.3499999999999996
 74
0
 49
0.0
 74
0
 49
-6.3499999999999996
 74
0
  0
LTYPE
  5
38
100
AcDbSymbolTableRecord
100
AcDbLinetypeTableRecord
  2
DASHDOTX2
 70
0
  3
Dash dot (2x) ____  .  ____  .  ____  .  ___
 72
65
 73
4
 40
50.7999999999999972
 49
25.3999999999999986
 74
0
 49
-12.6999999999999993
 74
0
 49
0.0
 74
0
 49
-12.6999999999999993
 74
0
  0
LTYPE
  5
39
100
AcDbSymbolTableRecord
100
AcDbLinetypeTableRecord
  2
CENTERX2
 70
0
  3
Center (2x) ________  __  ________  __  _____
 72
65
 73
4
 40
101.5999999999999943
 49
63.5
 74
0
 49
-12.6999999999999993
 74
0
 49
12.6999999999999993
 74
0
 49
-12.6999999999999993
 74
0
  0
LTYPE
  5
3A
100
AcDbSymbolTableRecord
100
AcDbLinetypeTableRecord
  2
BORDER2
 70
0
  3
Border (.5x) __.__.__.__.__.__.__.__.__.__.__.
 72
65
 73
6
 40
22.2250000000000014
 49
6.3499999999999996
 74
0
 49
-3.1749999999999998
 74
0
 49
6.3499999999999996
 74
0
 49
-3.1749999999999998
 74
0
 49
0.0
 74
0
 49
-3.1749999999999998
 74
0
  0
LTYPE
  5
3B
100
AcDbSymbolTableRecord
100
AcDbLinetypeTableRecord
  2
BORDERX2
 70
0
  3
Border (2x) ____  ____  .  ____  ____  .  ___
 72
65
 73
6
 40
88.9000000000000057
 49
25.3999999999999986
 74
0
 49
-12.6999999999999993
 74
0
 49
25.3999999999999986
 74
0
 49
-12.6999999999999993
 74
0
 49
0.0
 74
0
 49
-12.6999999999999993
 74
0
  0
LTYPE
  5
14
100
AcDbSymbolTableRecord
100
AcDbLinetypeTableRecord
  2
BYBLOCK
 70
0
  3

 72
65
 73
0
 40
0.0
  0
LTYPE
  5
15
100
AcDbSymbolTableRecord
100
AcDbLinetypeTableRecord
  2
BYLAYER
 70
0
  3

 72
65
 73
0
 40
0.0
  0
LTYPE
  5
3C
100
AcDbSymbolTableRecord
100
AcDbLinetypeTableRecord
  2
DASHED2
 70
0
  3
Dashed (.5x) _ _ _ _ _ _ _ _ _ _ _ _ _ _ _ _ _
 72
65
 73
2
 40
9.5250000000000004
 49
6.3499999999999996
 74
0
 49
-3.1749999999999998
 74
0
  0
LTYPE
  5
3D
100
AcDbSymbolTableRecord
100
AcDbLinetypeTableRecord
  2
CENTER
 70
0
  3
Center ____ _ ____ _ ____ _ ____ _ ____ _ ____
 72
65
 73
4
 40
50.7999999999999972
 49
31.75
 74
0
 49
-6.3499999999999996
 74
0
 49
6.3499999999999996
 74
0
 49
-6.3499999999999996
 74
0
  0
LTYPE
  5
3E
100
AcDbSymbolTableRecord
100
AcDbLinetypeTableRecord
  2
DIVIDE2
 70
0
  3
Divide (.5x) __..__..__..__..__..__..__..__.._
 72
65
 73
6
 40
15.875
 49
6.3499999999999996
 74
0
 49
-3.1749999999999998
 74
0
 49
0.0
 74
0
 49
-3.1749999999999998
 74
0
 49
0.0
 74
0
 49
-3.1749999999999998
 74
0
  0
LTYPE
  5
3F
100
AcDbSymbolTableRecord
100
AcDbLinetypeTableRecord
  2
DASHED
 70
0
  3
Dashed __ __ __ __ __ __ __ __ __ __ __ __ __ _
 72
65
 73
2
 40
19.0500000000000007
 49
12.6999999999999993
 74
0
 49
-6.3499999999999996
 74
0
  0
LTYPE
  5
40
100
AcDbSymbolTableRecord
100
AcDbLinetypeTableRecord
  2
DOTX2
 70
0
  3
Dot (2x) .  .  .  .  .  .  .  .  .  .  .  .  .
 72
65
 73
2
 40
12.6999999999999993
 49
0.0
 74
0
 49
-12.6999999999999993
 74
0
  0
LTYPE
  5
41
100
AcDbSymbolTableRecord
100
AcDbLinetypeTableRecord
  2
DASHEDX2
 70
0
  3
Dashed (2x) ____  ____  ____  ____  ____  ___
 72
65
 73
2
 40
38.1000000000000014
 49
25.3999999999999986
 74
0
 49
-12.6999999999999993
 74
0
  0
LTYPE
  5
42
100
AcDbSymbolTableRecord
100
AcDbLinetypeTableRecord
  2
DOT
 70
0
  3
Dot . . . . . . . . . . . . . . . . . . . . . .
 72
65
 73
2
 40
6.3499999999999996
 49
0.0
 74
0
 49
-6.3499999999999996
 74
0
  0
ENDTAB
  0
TABLE
  2
LAYER
  5
2
100
AcDbSymbolTable
 70
4
  0
LAYER
  5
43
100
AcDbSymbolTableRecord
100
AcDbLayerTableRecord
  2
top_detail
 70
1
 62
-7
420
0
  6
CONTINUOUS
370
25
390
F
  0
LAYER
  5
44
100
AcDbSymbolTableRecord
100
AcDbLayerTableRecord
  2
apron
 70
0
 62
7
420
0
  6
CONTINUOUS
370
25
390
F
  0
LAYER
  5
10
100
AcDbSymbolTableRecord
100
AcDbLayerTableRecord
  2
0
 70
5
 62
-7
420
0
  6
CONTINUOUS
370
25
390
F
  0
LAYER
  5
45
100
AcDbSymbolTableRecord
100
AcDbLayerTableRecord
  2
top
 70
0
 62
7
420
0
  6
CONTINUOUS
370
25
390
F
  0
ENDTAB
  0
TABLE
  2
STYLE
  5
3
100
AcDbSymbolTable
 70
2
  0
STYLE
  5
46
100
AcDbSymbolTableRecord
100
AcDbTextStyleTableRecord
  2
Standard
 70
0
 40
0.0
 41
1.0
 50
0.0
 71
0
 42
2.5
  3

  4

1001
ACAD
1000
txt
1071
0
  0
STYLE
  5
47
100
AcDbSymbolTableRecord
100
AcDbTextStyleTableRecord
  2
textstyle0
 70
0
 40
0.0
 41
1.0
 50
0.0
 71
0
 42
2.0
  3

  4

1001
ACAD
1000
Arial
1071
0
  0
ENDTAB
  0
TABLE
  2
VIEW
  5
6
100
AcDbSymbolTable
 70
0
  0
ENDTAB
  0
TABLE
  2
UCS
  5
7
100
AcDbSymbolTable
 70
0
  0
ENDTAB
  0
TABLE
  2
APPID
  5
9
100
AcDbSymbolTable
 70
1
  0
APPID
  5
12
100
AcDbSymbolTableRecord
100
AcDbRegAppTableRecord
  2
ACAD
 70
0
  0
APPID
  5
48
100
AcDbSymbolTableRecord
100
AcDbRegAppTableRecord
  2
QCAD
 70
0
  0
ENDTAB
  0
TABLE
  2
DIMSTYLE
  5
A
100
AcDbSymbolTable
 70
1
100
AcDbDimStyleTable
 71
0
  0
DIMSTYLE
105
27
100
AcDbSymbolTableRecord
100
AcDbDimStyleTableRecord
  2
Standard
 41
2.5
 42
0.625
 43
3.75
 44
1.25
 70
0
 73
0
 74
0
 77
1
 78
8
140
2.5
141
2.5
143
0.03937007874016
147
0.625
171
3
172
1
271
2
272
2
274
3
278
44
283
0
284
8
340
46
  0
ENDTAB
  0
TABLE
  2
BLOCK_RECORD
  5
1
100
AcDbSymbolTable
 70
1
  0
BLOCK_RECORD
  5
1F
100
AcDbSymbolTableRecord
100
AcDbBlockTableRecord
  2
*Model_Space
340
22
  0
BLOCK_RECORD
  5
1B
100
AcDbSymbolTableRecord
100
AcDbBlockTableRecord
  2
*Paper_Space
340
1E
  0
BLOCK_RECORD
  5
23
100
AcDbSymbolTableRecord
100
AcDbBlockTableRecord
  2
*Paper_Space0
340
26
  0
ENDTAB
  0
ENDSEC
  0
SECTION
  2
BLOCKS
  0
BLOCK
  5
20
100
AcDbEntity
  8
0
100
AcDbBlockBegin
  2
*Model_Space
 70
0
 10
0.0
 20
0.0
 30
0.0
  3
*Model_Space
  1

  0
ENDBLK
  5
21
100
AcDbEntity
  8
0
100
AcDbBlockEnd
  0
BLOCK
  5
1C
100
AcDbEntity
 67
1
  8
0
100
AcDbBlockBegin
  2
*Paper_Space
 70
0
 10
0.0
 20
0.0
 30
0.0
  3
*Paper_Space
  1

  0
ENDBLK
  5
1D
100
AcDbEntity
 67
1
  8
0
100
AcDbBlockEnd
  0
BLOCK
  5
24
100
AcDbEntity
  8
0
100
AcDbBlockBegin
  2
*Paper_Space0
 70
0
 10
0.0
 20
0.0
 30
0.0
  3
*Paper_Space0
  1

  0
ENDBLK
  5
25
100
AcDbEntity
  8
0
100
AcDbBlockEnd
  0
ENDSEC
  0
SECTION
  2
ENTITIES
  0
LINE
  5
49
100
AcDbEntity
100
AcDbLine
  8
top
 62
256
370
-1
  6
BYLAYER
 10
0.0
 20
0.0
 30
0.0
 11
36.0
 21
0.0
 31
0.0
  0
LINE
  5
4A
100
AcDbEntity
100
AcDbLine
  8
top
 62
256
370
-1
  6
BYLAYER
 10
36.0
 20
42.0
 30
0.0
 11
0.0
 21
42.0
 31
0.0
  0
LINE
  5
4B
100
AcDbEntity
100
AcDbLine
  8
top
 62
256
370
-1
  6
BYLAYER
 10
0.0
 20
42.0
 30
0.0
 11
0.0
 21
0.0
 31
0.0
  0
LINE
  5
4C
100
AcDbEntity
100
AcDbLine
  8
top
 62
256
370
-1
  6
BYLAYER
 10
36.0
 20
0.0
 30
0.0
 11
60.0
 21
0.0
 31
0.0
  0
LINE
  5
4D
100
AcDbEntity
100
AcDbLine
  8
top
 62
256
370
-1
  6
BYLAYER
 10
60.0
 20
42.0
 30
0.0
 11
36.0
 21
42.0
 31
0.0
  0
LINE
  5
4E
100
AcDbEntity
100
AcDbLine
  8
top
 62
256
370
-1
  6
BYLAYER
 10
36.0
 20
42.0
 30
0.0
 11
36.0
 21
0.0
 31
0.0
  0
LINE
  5
4F
100
AcDbEntity
100
AcDbLine
  8
top_detail
 62
256
370
-1
  6
BYLAYER
 10
-2.0
 20
36.0
 30
0.0
 11
-2.0
 21
0.0
 31
0.0
  0
LINE
  5
50
100
AcDbEntity
100
AcDbLine
  8
top_detail
 62
256
370
-1
  6
BYLAYER
 10
52.0
 20
36.0
 30
0.0
 11
52.0
 21
0.0
 31
0.0
  0
LINE
  5
51
100
AcDbEntity
100
AcDbLine
  8
top_detail
 62
256
370
-1
  6
BYLAYER
 10
32.0
 20
36.0
 30
0.0
 11
32.0
 21
0.0
 31
0.0
  0
LINE
  5
52
100
AcDbEntity
100
AcDbLine
  8
top_detail
 62
256
370
-1
  6
BYLAYER
 10
28.0
 20
36.0
 30
0.0
 11
28.0
 21
0.0
 31
0.0
  0
LINE
  5
53
100
AcDbEntity
100
AcDbLine
  8
top_detail
 62
256
370
-1
  6
BYLAYER
 10
-2.0
 20
35.25
 30
0.0
 11
28.0
 21
35.25
 31
0.0
  0
LINE
  5
54
100
AcDbEntity
100
AcDbLine
  8
top_detail
 62
256
370
-1
  6
BYLAYER
 10
-2.0
 20
34.5
 30
0.0
 11
28.0
 21
34.5
 31
0.0
  0
LINE
  5
55
100
AcDbEntity
100
AcDbLine
  8
top_detail
 62
256
370
-1
  6
BYLAYER
 10
-2.0
 20
33.75
 30
0.0
 11
28.0
 21
33.75
 31
0.0
  0
LINE
  5
56
100
AcDbEntity
100
AcDbLine
  8
top_detail
 62
256
370
-1
  6
BYLAYER
 10
-2.0
 20
33.0
 30
0.0
 11
28.0
 21
33.0
 31
0.0
  0
LINE
  5
57
100
AcDbEntity
100
AcDbLine
  8
top_detail
 62
256
370
-1
  6
BYLAYER
 10
-2.0
 20
32.25
 30
0.0
 11
28.0
 21
32.25
 31
0.0
  0
LINE
  5
58
100
AcDbEntity
100
AcDbLine
  8
top_detail
 62
256
370
-1
  6
BYLAYER
 10
-2.0
 20
31.5
 30
0.0
 11
28.0
 21
31.5
 31
0.0
  0
LINE
  5
59
100
AcDbEntity
100
AcDbLine
  8
top_detail
 62
256
370
-1
  6
BYLAYER
 10
-2.0
 20
30.75
 30
0.0
 11
28.0
 21
30.75
 31
0.0
  0
LINE
  5
5A
100
AcDbEntity
100
AcDbLine
  8
top_detail
 62
256
370
-1
  6
BYLAYER
 10
-2.0
 20
30.0
 30
0.0
 11
28.0
 21
30.0
 31
0.0
  0
LINE
  5
5B
100
AcDbEntity
100
AcDbLine
  8
top_detail
 62
256
370
-1
  6
BYLAYER
 10
-2.0
 20
29.25
 30
0.0
 11
28.0
 21
29.25
 31
0.0
  0
LINE
  5
5C
100
AcDbEntity
100
AcDbLine
  8
top_detail
 62
256
370
-1
  6
BYLAYER
 10
-2.0
 20
28.5
 30
0.0
 11
28.0
 21
28.5
 31
0.0
  0
LINE
  5
5D
100
AcDbEntity
100
AcDbLine
  8
top_detail
 62
256
370
-1
  6
BYLAYER
 10
-2.0
 20
27.75
 30
0.0
 11
28.0
 21
27.75
 31
0.0
  0
LINE
  5
5E
100
AcDbEntity
100
AcDbLine
  8
top_detail
 62
256
370
-1
  6
BYLAYER
 10
-2.0
 20
27.0
 30
0.0
 11
28.0
 21
27.0
 31
0.0
  0
LINE
  5
5F
100
AcDbEntity
100
AcDbLine
  8
top_detail
 62
256
370
-1
  6
BYLAYER
 10
-2.0
 20
26.25
 30
0.0
 11
28.0
 21
26.25
 31
0.0
  0
LINE
  5
60
100
AcDbEntity
100
AcDbLine
  8
top_detail
 62
256
370
-1
  6
BYLAYER
 10
-2.0
 20
25.5
 30
0.0
 11
28.0
 21
25.5
 31
0.0
  0
LINE
  5
61
100
AcDbEntity
100
AcDbLine
  8
top_detail
 62
256
370
-1
  6
BYLAYER
 10
-2.0
 20
24.75
 30
0.0
 11
28.0
 21
24.75
 31
0.0
  0
LINE
  5
62
100
AcDbEntity
100
AcDbLine
  8
top_detail
 62
256
370
-1
  6
BYLAYER
 10
-2.0
 20
24.0
 30
0.0
 11
28.0
 21
24.0
 31
0.0
  0
LINE
  5
63
100
AcDbEntity
100
AcDbLine
  8
top_detail
 62
256
370
-1
  6
BYLAYER
 10
-2.0
 20
23.25
 30
0.0
 11
28.0
 21
23.25
 31
0.0
  0
LINE
  5
64
100
AcDbEntity
100
AcDbLine
  8
top_detail
 62
256
370
-1
  6
BYLAYER
 10
-2.0
 20
22.5
 30
0.0
 11
28.0
 21
22.5
 31
0.0
  0
LINE
  5
65
100
AcDbEntity
100
AcDbLine
  8
top_detail
 62
256
370
-1
  6
BYLAYER
 10
-2.0
 20
21.75
 30
0.0
 11
28.0
 21
21.75
 31
0.0
  0
LINE
  5
66
100
AcDbEntity
100
AcDbLine
  8
top_detail
 62
256
370
-1
  6
BYLAYER
 10
-2.0
 20
21.0
 30
0.0
 11
28.0
 21
21.0
 31
0.0
  0
LINE
  5
67
100
AcDbEntity
100
AcDbLine
  8
top_detail
 62
256
370
-1
  6
BYLAYER
 10
-2.0
 20
20.25
 30
0.0
 11
28.0
 21
20.25
 31
0.0
  0
LINE
  5
68
100
AcDbEntity
100
AcDbLine
  8
top_detail
 62
256
370
-1
  6
BYLAYER
 10
-2.0
 20
19.5
 30
0.0
 11
28.0
 21
19.5
 31
0.0
  0
LINE
  5
69
100
AcDbEntity
100
AcDbLine
  8
top_detail
 62
256
370
-1
  6
BYLAYER
 10
-2.0
 20
18.75
 30
0.0
 11
28.0
 21
18.75
 31
0.0
  0
LINE
  5
6A
100
AcDbEntity
100
AcDbLine
  8
top_detail
 62
256
370
-1
  6
BYLAYER
 10
-2.0
 20
18.0
 30
0.0
 11
28.0
 21
18.0
 31
0.0
  0
LINE
  5
6B
100
AcDbEntity
100
AcDbLine
  8
top_detail
 62
256
370
-1
  6
BYLAYER
 10
-2.0
 20
17.25
 30
0.0
 11
28.0
 21
17.25
 31
0.0
  0
LINE
  5
6C
100
AcDbEntity
100
AcDbLine
  8
top_detail
 62
256
370
-1
  6
BYLAYER
 10
-2.0
 20
16.5
 30
0.0
 11
28.0
 21
16.5
 31
0.0
  0
LINE
  5
6D
100
AcDbEntity
100
AcDbLine
  8
top_detail
 62
256
370
-1
  6
BYLAYER
 10
-2.0
 20
15.75
 30
0.0
 11
28.0
 21
15.75
 31
0.0
  0
LINE
  5
6E
100
AcDbEntity
100
AcDbLine
  8
top_detail
 62
256
370
-1
  6
BYLAYER
 10
-2.0
 20
15.0
 30
0.0
 11
28.0
 21
15.0
 31
0.0
  0
LINE
  5
6F
100
AcDbEntity
100
AcDbLine
  8
top_detail
 62
256
370
-1
  6
BYLAYER
 10
-2.0
 20
14.25
 30
0.0
 11
28.0
 21
14.25
 31
0.0
  0
LINE
  5
70
100
AcDbEntity
100
AcDbLine
  8
top_detail
 62
256
370
-1
  6
BYLAYER
 10
-2.0
 20
13.5
 30
0.0
 11
28.0
 21
13.5
 31
0.0
  0
LINE
  5
71
100
AcDbEntity
100
AcDbLine
  8
top_detail
 62
256
370
-1
  6
BYLAYER
 10
-2.0
 20
12.75
 30
0.0
 11
28.0
 21
12.75
 31
0.0
  0
LINE
  5
72
100
AcDbEntity
100
AcDbLine
  8
top_detail
 62
256
370
-1
  6
BYLAYER
 10
-2.0
 20
12.0
 30
0.0
 11
28.0
 21
12.0
 31
0.0
  0
LINE
  5
73
100
AcDbEntity
100
AcDbLine
  8
top_detail
 62
256
370
-1
  6
BYLAYER
 10
-2.0
 20
11.25
 30
0.0
 11
28.0
 21
11.25
 31
0.0
  0
LINE
  5
74
100
AcDbEntity
100
AcDbLine
  8
top_detail
 62
256
370
-1
  6
BYLAYER
 10
-2.0
 20
10.5
 30
0.0
 11
28.0
 21
10.5
 31
0.0
  0
LINE
  5
75
100
AcDbEntity
100
AcDbLine
  8
top_detail
 62
256
370
-1
  6
BYLAYER
 10
-2.0
 20
9.75
 30
0.0
 11
28.0
 21
9.75
 31
0.0
  0
LINE
  5
76
100
AcDbEntity
100
AcDbLine
  8
top_detail
 62
256
370
-1
  6
BYLAYER
 10
-2.0
 20
9.0
 30
0.0
 11
28.0
 21
9.0
 31
0.0
  0
LINE
  5
77
100
AcDbEntity
100
AcDbLine
  8
top_detail
 62
256
370
-1
  6
BYLAYER
 10
-2.0
 20
8.25
 30
0.0
 11
28.0
 21
8.25
 31
0.0
  0
LINE
  5
78
100
AcDbEntity
100
AcDbLine
  8
top_detail
 62
256
370
-1
  6
BYLAYER
 10
-2.0
 20
7.5
 30
0.0
 11
28.0
 21
7.5
 31
0.0
  0
LINE
  5
79
100
AcDbEntity
100
AcDbLine
  8
top_detail
 62
256
370
-1
  6
BYLAYER
 10
-2.0
 20
6.75
 30
0.0
 11
28.0
 21
6.75
 31
0.0
  0
LINE
  5
7A
100
AcDbEntity
100
AcDbLine
  8
top_detail
 62
256
370
-1
  6
BYLAYER
 10
-2.0
 20
6.0
 30
0.0
 11
28.0
 21
6.0
 31
0.0
  0
LINE
  5
7B
100
AcDbEntity
100
AcDbLine
  8
top_detail
 62
256
370
-1
  6
BYLAYER
 10
-2.0
 20
5.25
 30
0.0
 11
28.0
 21
5.25
 31
0.0
  0
LINE
  5
7C
100
AcDbEntity
100
AcDbLine
  8
top_detail
 62
256
370
-1
  6
BYLAYER
 10
-2.0
 20
4.5
 30
0.0
 11
28.0
 21
4.5
 31
0.0
  0
LINE
  5
7D
100
AcDbEntity
100
AcDbLine
  8
top_detail
 62
256
370
-1
  6
BYLAYER
 10
-2.0
 20
3.75
 30
0.0
 11
28.0
 21
3.75
 31
0.0
  0
LINE
  5
7E
100
AcDbEntity
100
AcDbLine
  8
top_detail
 62
256
370
-1
  6
BYLAYER
 10
-2.0
 20
3.0
 30
0.0
 11
28.0
 21
3.0
 31
0.0
  0
LINE
  5
7F
100
AcDbEntity
100
AcDbLine
  8
top_detail
 62
256
370
-1
  6
BYLAYER
 10
-2.0
 20
2.25
 30
0.0
 11
28.0
 21
2.25
 31
0.0
  0
LINE
  5
80
100
AcDbEntity
100
AcDbLine
  8
top_detail
 62
256
370
-1
  6
BYLAYER
 10
-2.0
 20
1.5
 30
0.0
 11
28.0
 21
1.5
 31
0.0
  0
LINE
  5
81
100
AcDbEntity
100
AcDbLine
  8
top_detail
 62
256
370
-1
  6
BYLAYER
 10
-2.0
 20
0.75
 30
0.0
 11
28.0
 21
0.75
 31
0.0
  0
LINE
  5
82
100
AcDbEntity
100
AcDbLine
  8
top_detail
 62
256
370
-1
  6
BYLAYER
 10
52.0
 20
35.25
 30
0.0
 11
32.0
 21
35.25
 31
0.0
  0
LINE
  5
83
100
AcDbEntity
100
AcDbLine
  8
top_detail
 62
256
370
-1
  6
BYLAYER
 10
52.0
 20
34.5
 30
0.0
 11
32.0
 21
34.5
 31
0.0
  0
LINE
  5
84
100
AcDbEntity
100
AcDbLine
  8
top_detail
 62
256
370
-1
  6
BYLAYER
 10
52.0
 20
33.75
 30
0.0
 11
32.0
 21
33.75
 31
0.0
  0
LINE
  5
85
100
AcDbEntity
100
AcDbLine
  8
top_detail
 62
256
370
-1
  6
BYLAYER
 10
52.0
 20
33.0
 30
0.0
 11
32.0
 21
33.0
 31
0.0
  0
LINE
  5
86
100
AcDbEntity
100
AcDbLine
  8
top_detail
 62
256
370
-1
  6
BYLAYER
 10
52.0
 20
32.25
 30
0.0
 11
32.0
 21
32.25
 31
0.0
  0
LINE
  5
87
100
AcDbEntity
100
AcDbLine
  8
top_detail
 62
256
370
-1
  6
BYLAYER
 10
52.0
 20
31.5
 30
0.0
 11
32.0
 21
31.5
 31
0.0
  0
LINE
  5
88
100
AcDbEntity
100
AcDbLine
  8
top_detail
 62
256
370
-1
  6
BYLAYER
 10
52.0
 20
30.75
 30
0.0
 11
32.0
 21
30.75
 31
0.0
  0
LINE
  5
89
100
AcDbEntity
100
AcDbLine
  8
top_detail
 62
256
370
-1
  6
BYLAYER
 10
52.0
 20
30.0
 30
0.0
 11
32.0
 21
30.0
 31
0.0
  0
LINE
  5
8A
100
AcDbEntity
100
AcDbLine
  8
top_detail
 62
256
370
-1
  6
BYLAYER
 10
52.0
 20
29.25
 30
0.0
 11
32.0
 21
29.25
 31
0.0
  0
LINE
  5
8B
100
AcDbEntity
100
AcDbLine
  8
top_detail
 62
256
370
-1
  6
BYLAYER
 10
52.0
 20
28.5
 30
0.0
 11
32.0
 21
28.5
 31
0.0
  0
LINE
  5
8C
100
AcDbEntity
100
AcDbLine
  8
top_detail
 62
256
370
-1
  6
BYLAYER
 10
52.0
 20
27.75
 30
0.0
 11
32.0
 21
27.75
 31
0.0
  0
LINE
  5
8D
100
AcDbEntity
100
AcDbLine
  8
top_detail
 62
256
370
-1
  6
BYLAYER
 10
52.0
 20
27.0
 30
0.0
 11
32.0
 21
27.0
 31
0.0
  0
LINE
  5
8E
100
AcDbEntity
100
AcDbLine
  8
top_detail
 62
256
370
-1
  6
BYLAYER
 10
52.0
 20
26.25
 30
0.0
 11
32.0
 21
26.25
 31
0.0
  0
LINE
  5
8F
100
AcDbEntity
100
AcDbLine
  8
top_detail
 62
256
370
-1
  6
BYLAYER
 10
52.0
 20
25.5
 30
0.0
 11
32.0
 21
25.5
 31
0.0
  0
LINE
  5
90
100
AcDbEntity
100
AcDbLine
  8
top_detail
 62
256
370
-1
  6
BYLAYER
 10
52.0
 20
24.75
 30
0.0
 11
32.0
 21
24.75
 31
0.0
  0
LINE
  5
91
100
AcDbEntity
100
AcDbLine
  8
top_detail
 62
256
370
-1
  6
BYLAYER
 10
52.0
 20
24.0
 30
0.0
 11
32.0
 21
24.0
 31
0.0
  0
LINE
  5
92
100
AcDbEntity
100
AcDbLine
  8
top_detail
 62
256
370
-1
  6
BYLAYER
 10
52.0
 20
23.25
 30
0.0
 11
32.0
 21
23.25
 31
0.0
  0
LINE
  5
93
100
AcDbEntity
100
AcDbLine
  8
top_detail
 62
256
370
-1
  6
BYLAYER
 10
52.0
 20
22.5
 30
0.0
 11
32.0
 21
22.5
 31
0.0
  0
LINE
  5
94
100
AcDbEntity
100
AcDbLine
  8
top_detail
 62
256
370
-1
  6
BYLAYER
 10
52.0
 20
21.75
 30
0.0
 11
32.0
 21
21.75
 31
0.0
  0
LINE
  5
95
100
AcDbEntity
100
AcDbLine
  8
top_detail
 62
256
370
-1
  6
BYLAYER
 10
52.0
 20
21.0
 30
0.0
 11
32.0
 21
21.0
 31
0.0
  0
LINE
  5
96
100
AcDbEntity
100
AcDbLine
  8
top_detail
 62
256
370
-1
  6
BYLAYER
 10
52.0
 20
20.25
 30
0.0
 11
32.0
 21
20.25
 31
0.0
  0
LINE
  5
97
100
AcDbEntity
100
AcDbLine
  8
top_detail
 62
256
370
-1
  6
BYLAYER
 10
52.0
 20
19.5
 30
0.0
 11
32.0
 21
19.5
 31
0.0
  0
LINE
  5
98
100
AcDbEntity
100
AcDbLine
  8
top_detail
 62
256
370
-1
  6
BYLAYER
 10
52.0
 20
18.75
 30
0.0
 11
32.0
 21
18.75
 31
0.0
  0
LINE
  5
99
100
AcDbEntity
100
AcDbLine
  8
top_detail
 62
256
370
-1
  6
BYLAYER
 10
52.0
 20
18.0
 30
0.0
 11
32.0
 21
18.0
 31
0.0
  0
LINE
  5
9A
100
AcDbEntity
100
AcDbLine
  8
top_detail
 62
256
370
-1
  6
BYLAYER
 10
52.0
 20
17.25
 30
0.0
 11
32.0
 21
17.25
 31
0.0
  0
LINE
  5
9B
100
AcDbEntity
100
AcDbLine
  8
top_detail
 62
256
370
-1
  6
BYLAYER
 10
52.0
 20
16.5
 30
0.0
 11
32.0
 21
16.5
 31
0.0
  0
LINE
  5
9C
100
AcDbEntity
100
AcDbLine
  8
top_detail
 62
256
370
-1
  6
BYLAYER
 10
52.0
 20
15.75
 30
0.0
 11
32.0
 21
15.75
 31
0.0
  0
LINE
  5
9D
100
AcDbEntity
100
AcDbLine
  8
top_detail
 62
256
370
-1
  6
BYLAYER
 10
52.0
 20
15.0
 30
0.0
 11
32.0
 21
15.0
 31
0.0
  0
LINE
  5
9E
100
AcDbEntity
100
AcDbLine
  8
top_detail
 62
256
370
-1
  6
BYLAYER
 10
52.0
 20
14.25
 30
0.0
 11
32.0
 21
14.25
 31
0.0
  0
LINE
  5
9F
100
AcDbEntity
100
AcDbLine
  8
top_detail
 62
256
370
-1
  6
BYLAYER
 10
52.0
 20
13.5
 30
0.0
 11
32.0
 21
13.5
 31
0.0
  0
LINE
  5
A0
100
AcDbEntity
100
AcDbLine
  8
top_detail
 62
256
370
-1
  6
BYLAYER
 10
52.0
 20
12.75
 30
0.0
 11
32.0
 21
12.75
 31
0.0
  0
LINE
  5
A1
100
AcDbEntity
100
AcDbLine
  8
top_detail
 62
256
370
-1
  6
BYLAYER
 10
52.0
 20
12.0
 30
0.0
 11
32.0
 21
12.0
 31
0.0
  0
LINE
  5
A2
100
AcDbEntity
100
AcDbLine
  8
top_detail
 62
256
370
-1
  6
BYLAYER
 10
52.0
 20
11.25
 30
0.0
 11
32.0
 21
11.25
 31
0.0
  0
LINE
  5
A3
100
AcDbEntity
100
AcDbLine
  8
top_detail
 62
256
370
-1
  6
BYLAYER
 10
52.0
 20
10.5
 30
0.0
 11
32.0
 21
10.5
 31
0.0
  0
LINE
  5
A4
100
AcDbEntity
100
AcDbLine
  8
top_detail
 62
256
370
-1
  6
BYLAYER
 10
52.0
 20
9.75
 30
0.0
 11
32.0
 21
9.75
 31
0.0
  0
LINE
  5
A5
100
AcDbEntity
100
AcDbLine
  8
top_detail
 62
256
370
-1
  6
BYLAYER
 10
52.0
 20
9.0
 30
0.0
 11
32.0
 21
9.0
 31
0.0
  0
LINE
  5
A6
100
AcDbEntity
100
AcDbLine
  8
top_detail
 62
256
370
-1
  6
BYLAYER
 10
52.0
 20
8.25
 30
0.0
 11
32.0
 21
8.25
 31
0.0
  0
LINE
  5
A7
100
AcDbEntity
100
AcDbLine
  8
top_detail
 62
256
370
-1
  6
BYLAYER
 10
52.0
 20
7.5
 30
0.0
 11
32.0
 21
7.5
 31
0.0
  0
LINE
  5
A8
100
AcDbEntity
100
AcDbLine
  8
top_detail
 62
256
370
-1
  6
BYLAYER
 10
52.0
 20
6.75
 30
0.0
 11
32.0
 21
6.75
 31
0.0
  0
LINE
  5
A9
100
AcDbEntity
100
AcDbLine
  8
top_detail
 62
256
370
-1
  6
BYLAYER
 10
52.0
 20
6.0
 30
0.0
 11
32.0
 21
6.0
 31
0.0
  0
LINE
  5
AA
100
AcDbEntity
100
AcDbLine
  8
top_detail
 62
256
370
-1
  6
BYLAYER
 10
52.0
 20
5.25
 30
0.0
 11
32.0
 21
5.25
 31
0.0
  0
LINE
  5
AB
100
AcDbEntity
100
AcDbLine
  8
top_detail
 62
256
370
-1
  6
BYLAYER
 10
52.0
 20
4.5
 30
0.0
 11
32.0
 21
4.5
 31
0.0
  0
LINE
  5
AC
100
AcDbEntity
100
AcDbLine
  8
top_detail
 62
256
370
-1
  6
BYLAYER
 10
52.0
 20
3.75
 30
0.0
 11
32.0
 21
3.75
 31
0.0
  0
LINE
  5
AD
100
AcDbEntity
100
AcDbLine
  8
top_detail
 62
256
370
-1
  6
BYLAYER
 10
52.0
 20
3.0
 30
0.0
 11
32.0
 21
3.0
 31
0.0
  0
LINE
  5
AE
100
AcDbEntity
100
AcDbLine
  8
top_detail
 62
256
370
-1
  6
BYLAYER
 10
52.0
 20
2.25
 30
0.0
 11
32.0
 21
2.25
 31
0.0
  0
LINE
  5
AF
100
AcDbEntity
100
AcDbLine
  8
top_detail
 62
256
370
-1
  6
BYLAYER
 10
52.0
 20
1.5
 30
0.0
 11
32.0
 21
1.5
 31
0.0
  0
LINE
  5
B0
100
AcDbEntity
100
AcDbLine
  8
top_detail
 62
256
370
-1
  6
BYLAYER
 10
52.0
 20
0.75
 30
0.0
 11
32.0
 21
0.75
 31
0.0
  0
LINE
  5
B1
100
AcDbEntity
100
AcDbLine
  8
top
 62
256
370
-1
  6
BYLAYER
 10
60.0
 20
42.0
 30
0.0
 11
60.0
 21
0.0
 31
0.0
  0
LINE
  5
B2
100
AcDbEntity
100
AcDbLine
  8
top
 62
256
370
-1
  6
BYLAYER
 10
12.0
 20
60.0
 30
0.0
 11
48.0
 21
60.0
 31
0.0
  0
LINE
  5
B3
100
AcDbEntity
100
AcDbLine
  8
top
 62
256
370
-1
  6
BYLAYER
 10
48.0
 20
102.0
 30
0.0
 11
12.0
 21
102.0
 31
0.0
  0
LINE
  5
B4
100
AcDbEntity
100
AcDbLine
  8
top
 62
256
370
-1
  6
BYLAYER
 10
12.0
 20
102.0
 30
0.0
 11
12.0
 21
60.0
 31
0.0
  0
LINE
  5
B5
100
AcDbEntity
100
AcDbLine
  8
top
 62
256
370
-1
  6
BYLAYER
 10
84.0
 20
60.0
 30
0.0
 11
48.0
 21
60.0
 31
0.0
  0
LINE
  5
B6
100
AcDbEntity
100
AcDbLine
  8
top
 62
256
370
-1
  6
BYLAYER
 10
48.0
 20
102.0
 30
0.0
 11
84.0
 21
101.9999999999999858
 31
0.0
  0
LINE
  5
B7
100
AcDbEntity
100
AcDbLine
  8
top
 62
256
370
-1
  6
BYLAYER
 10
84.0
 20
101.9999999999999858
 30
0.0
 11
84.0
 21
60.0
 31
0.0
  0
LINE
  5
B8
100
AcDbEntity
100
AcDbLine
  8
top
 62
256
370
-1
  6
BYLAYER
 10
48.0
 20
102.0
 30
0.0
 11
48.0
 21
60.0
 31
0.0
  0
LINE
  5
B9
100
AcDbEntity
100
AcDbLine
  8
top_detail
 62
256
370
-1
  6
BYLAYER
 10
86.0
 20
35.9999999999999858
 30
0.0
 11
86.0
 21
0.0
 31
0.0
  0
LINE
  5
BA
100
AcDbEntity
100
AcDbLine
  8
top_detail
 62
256
370
-1
  6
BYLAYER
 10
56.0
 20
36.0
 30
0.0
 11
56.0
 21
0.0
 31
0.0
  0
LINE
  5
BB
100
AcDbEntity
100
AcDbLine
  8
top_detail
 62
256
370
-1
  6
BYLAYER
 10
86.0
 20
35.25
 30
0.0
 11
56.0
 21
35.25
 31
0.0
  0
LINE
  5
BC
100
AcDbEntity
100
AcDbLine
  8
top_detail
 62
256
370
-1
  6
BYLAYER
 10
86.0
 20
34.5
 30
0.0
 11
56.0
 21
34.5
 31
0.0
  0
LINE
  5
BD
100
AcDbEntity
100
AcDbLine
  8
top_detail
 62
256
370
-1
  6
BYLAYER
 10
86.0000000000000142
 20
33.7499999999999858
 30
0.0
 11
56.0
 21
33.75
 31
0.0
  0
LINE
  5
BE
100
AcDbEntity
100
AcDbLine
  8
top_detail
 62
256
370
-1
  6
BYLAYER
 10
86.0
 20
32.9999999999999929
 30
0.0
 11
56.0000000000000071
 21
32.9999999999999929
 31
0.0
  0
LINE
  5
BF
100
AcDbEntity
100
AcDbLine
  8
top_detail
 62
256
370
-1
  6
BYLAYER
 10
86.0
 20
32.25
 30
0.0
 11
56.0
 21
32.25
 31
0.0
  0
LINE
  5
C0
100
AcDbEntity
100
AcDbLine
  8
top
 62
256
370
-1
  6
BYLAYER
 10
96.0
 20
0.0
 30
0.0
 11
60.0
 21
0.0
 31
0.0
  0
LINE
  5
C1
100
AcDbEntity
100
AcDbLine
  8
top_detail
 62
256
370
-1
  6
BYLAYER
 10
86.0
 20
31.4999999999999929
 30
0.0
 11
56.0
 21
31.4999999999999964
 31
0.0
  0
LINE
  5
C2
100
AcDbEntity
100
AcDbLine
  8
top_detail
 62
256
370
-1
  6
BYLAYER
 10
86.0
 20
30.7499999999999929
 30
0.0
 11
56.0
 21
30.7499999999999964
 31
0.0
  0
LINE
  5
C3
100
AcDbEntity
100
AcDbLine
  8
top
 62
256
370
-1
  6
BYLAYER
 10
60.0
 20
42.0
 30
0.0
 11
96.0
 21
41.9999999999999929
 31
0.0
  0
LINE
  5
C4
100
AcDbEntity
100
AcDbLine
  8
top_detail
 62
256
370
-1
  6
BYLAYER
 10
86.0
 20
29.9999999999999929
 30
0.0
 11
56.0
 21
30.0
 31
0.0
  0
LINE
  5
C5
100
AcDbEntity
100
AcDbLine
  8
top
 62
256
370
-1
  6
BYLAYER
 10
96.0
 20
42.0
 30
0.0
 11
96.0
 21
0.0
 31
0.0
  0
LINE
  5
C6
100
AcDbEntity
100
AcDbLine
  8
top_detail
 62
256
370
-1
  6
BYLAYER
 10
86.0
 20
29.2500000000000071
 30
0.0
 11
56.0
 21
29.25
 31
0.0
  0
LINE
  5
C7
100
AcDbEntity
100
AcDbLine
  8
top_detail
 62
256
370
-1
  6
BYLAYER
 10
86.0
 20
28.4999999999999893
 30
0.0
 11
56.0000000000000071
 21
28.4999999999999964
 31
0.0
  0
LINE
  5
C8
100
AcDbEntity
100
AcDbLine
  8
top_detail
 62
256
370
-1
  6
BYLAYER
 10
86.0
 20
27.7499999999999787
 30
0.0
 11
56.0
 21
27.75
 31
0.0
  0
LINE
  5
C9
100
AcDbEntity
100
AcDbLine
  8
top_detail
 62
256
370
-1
  6
BYLAYER
 10
86.0
 20
27.0
 30
0.0
 11
56.0
 21
27.0000000000000036
 31
0.0
  0
LINE
  5
CA
100
AcDbEntity
100
AcDbLine
  8
top_detail
 62
256
370
-1
  6
BYLAYER
 10
86.0
 20
26.2499999999999893
 30
0.0
 11
56.0000000000000071
 21
26.2499999999999964
 31
0.0
  0
LINE
  5
CB
100
AcDbEntity
100
AcDbLine
  8
top_detail
 62
256
370
-1
  6
BYLAYER
 10
86.0
 20
25.4999999999999858
 30
0.0
 11
56.0000000000000071
 21
25.4999999999999929
 31
0.0
  0
LINE
  5
CC
100
AcDbEntity
100
AcDbLine
  8
top_detail
 62
256
370
-1
  6
BYLAYER
 10
86.0
 20
24.7500000000000036
 30
0.0
 11
56.0000000000000071
 21
24.7499999999999964
 31
0.0
  0
LINE
  5
CD
100
AcDbEntity
100
AcDbLine
  8
top_detail
 62
256
370
-1
  6
BYLAYER
 10
86.0
 20
23.9999999999999964
 30
0.0
 11
56.0000000000000071
 21
23.9999999999999964
 31
0.0
  0
LINE
  5
CE
100
AcDbEntity
100
AcDbLine
  8
top_detail
 62
256
370
-1
  6
BYLAYER
 10
86.0
 20
23.2500000000000036
 30
0.0
 11
56.0
 21
23.25
 31
0.0
  0
LINE
  5
CF
100
AcDbEntity
100
AcDbLine
  8
top_detail
 62
256
370
-1
  6
BYLAYER
 10
86.0
 20
22.5000000000000036
 30
0.0
 11
56.0000000000000071
 21
22.4999999999999964
 31
0.0
  0
LINE
  5
D0
100
AcDbEntity
100
AcDbLine
  8
top_detail
 62
256
370
-1
  6
BYLAYER
 10
86.0
 20
21.7500000000000036
 30
0.0
 11
56.0000000000000071
 21
21.7499999999999964
 31
0.0
  0
LINE
  5
D1
100
AcDbEntity
100
AcDbLine
  8
top_detail
 62
256
370
-1
  6
BYLAYER
 10
86.0
 20
20.9999999999999893
 30
0.0
 11
56.0000000000000071
 21
20.9999999999999929
 31
0.0
  0
LINE
  5
D2
100
AcDbEntity
100
AcDbLine
  8
top_detail
 62
256
370
-1
  6
BYLAYER
 10
86.0
 20
20.2499999999999893
 30
0.0
 11
56.0000000000000071
 21
20.2499999999999964
 31
0.0
  0
LINE
  5
D3
100
AcDbEntity
100
AcDbLine
  8
top_detail
 62
256
370
-1
  6
BYLAYER
 10
86.0
 20
19.5
 30
0.0
 11
56.0000000000000071
 21
19.4999999999999964
 31
0.0
  0
LINE
  5
D4
100
AcDbEntity
100
AcDbLine
  8
top_detail
 62
256
370
-1
  6
BYLAYER
 10
86.0
 20
18.75
 30
0.0
 11
56.0000000000000071
 21
18.7499999999999929
 31
0.0
  0
LINE
  5
D5
100
AcDbEntity
100
AcDbLine
  8
top_detail
 62
256
370
-1
  6
BYLAYER
 10
86.0
 20
17.9999999999999964
 30
0.0
 11
56.0000000000000071
 21
17.9999999999999964
 31
0.0
  0
LINE
  5
D6
100
AcDbEntity
100
AcDbLine
  8
top_detail
 62
256
370
-1
  6
BYLAYER
 10
86.0
 20
17.2500000000000142
 30
0.0
 11
56.0
 21
17.2499999999999964
 31
0.0
  0
LINE
  5
D7
100
AcDbEntity
100
AcDbLine
  8
top_detail
 62
256
370
-1
  6
BYLAYER
 10
86.0
 20
16.5
 30
0.0
 11
56.0000000000000071
 21
16.4999999999999964
 31
0.0
  0
LINE
  5
D8
100
AcDbEntity
100
AcDbLine
  8
top_detail
 62
256
370
-1
  6
BYLAYER
 10
86.0
 20
15.7499999999999911
 30
0.0
 11
56.0
 21
15.7499999999999982
 31
0.0
  0
LINE
  5
D9
100
AcDbEntity
100
AcDbLine
  8
top_detail
 62
256
370
-1
  6
BYLAYER
 10
86.0
 20
15.0
 30
0.0
 11
56.0
 21
14.9999999999999982
 31
0.0
  0
LINE
  5
DA
100
AcDbEntity
100
AcDbLine
  8
top_detail
 62
256
370
-1
  6
BYLAYER
 10
86.0
 20
14.2499999999999876
 30
0.0
 11
56.0
 21
14.25
 31
0.0
  0
LINE
  5
DB
100
AcDbEntity
100
AcDbLine
  8
top_detail
 62
256
370
-1
  6
BYLAYER
 10
86.0
 20
13.4999999999999893
 30
0.0
 11
56.0
 21
13.4999999999999982
 31
0.0
  0
LINE
  5
DC
100
AcDbEntity
100
AcDbLine
  8
top_detail
 62
256
370
-1
  6
BYLAYER
 10
86.0
 20
12.7500000000000018
 30
0.0
 11
56.0
 21
12.7500000000000036
 31
0.0
  0
LINE
  5
DD
100
AcDbEntity
100
AcDbLine
  8
top_detail
 62
256
370
-1
  6
BYLAYER
 10
86.0
 20
11.9999999999999964
 30
0.0
 11
56.0
 21
11.9999999999999947
 31
0.0
  0
LINE
  5
DE
100
AcDbEntity
100
AcDbLine
  8
top_detail
 62
256
370
-1
  6
BYLAYER
 10
86.0
 20
11.2500000000000018
 30
0.0
 11
56.0
 21
11.2499999999999947
 31
0.0
  0
LINE
  5
DF
100
AcDbEntity
100
AcDbLine
  8
top_detail
 62
256
370
-1
  6
BYLAYER
 10
86.0
 20
10.5000000000000178
 30
0.0
 11
56.0
 21
10.4999999999999982
 31
0.0
  0
LINE
  5
E0
100
AcDbEntity
100
AcDbLine
  8
top_detail
 62
256
370
-1
  6
BYLAYER
 10
86.0
 20
9.749999999999968
 30
0.0
 11
56.0
 21
9.7500000000000036
 31
0.0
  0
LINE
  5
E1
100
AcDbEntity
100
AcDbLine
  8
top_detail
 62
256
370
-1
  6
BYLAYER
 10
86.0
 20
8.9999999999999947
 30
0.0
 11
56.0
 21
9.0000000000000018
 31
0.0
  0
LINE
  5
E2
100
AcDbEntity
100
AcDbLine
  8
top_detail
 62
256
370
-1
  6
BYLAYER
 10
86.0
 20
8.2499999999999982
 30
0.0
 11
56.0
 21
8.2499999999999982
 31
0.0
  0
LINE
  5
E3
100
AcDbEntity
100
AcDbLine
  8
top_detail
 62
256
370
-1
  6
BYLAYER
 10
86.0
 20
7.500000000000024
 30
0.0
 11
56.0
 21
7.4999999999999947
 31
0.0
  0
LINE
  5
E4
100
AcDbEntity
100
AcDbLine
  8
top_detail
 62
256
370
-1
  6
BYLAYER
 10
86.0
 20
6.7500000000000089
 30
0.0
 11
56.0
 21
6.7499999999999938
 31
0.0
  0
LINE
  5
E5
100
AcDbEntity
100
AcDbLine
  8
top_detail
 62
256
370
-1
  6
BYLAYER
 10
86.0
 20
6.0000000000000169
 30
0.0
 11
56.0
 21
6.0
 31
0.0
  0
LINE
  5
E6
100
AcDbEntity
100
AcDbLine
  8
top_detail
 62
256
370
-1
  6
BYLAYER
 10
86.0
 20
5.2499999999999805
 30
0.0
 11
56.0
 21
5.2499999999999991
 31
0.0
  0
LINE
  5
E7
100
AcDbEntity
100
AcDbLine
  8
top_detail
 62
256
370
-1
  6
BYLAYER
 10
86.0
 20
4.4999999999999716
 30
0.0
 11
56.0
 21
4.4999999999999964
 31
0.0
  0
LINE
  5
E8
100
AcDbEntity
100
AcDbLine
  8
top_detail
 62
256
370
-1
  6
BYLAYER
 10
86.0
 20
3.7500000000000013
 30
0.0
 11
56.0
 21
3.7499999999999982
 31
0.0
  0
LINE
  5
E9
100
AcDbEntity
100
AcDbLine
  8
top_detail
 62
256
370
-1
  6
BYLAYER
 10
86.0
 20
2.9999999999999845
 30
0.0
 11
56.0
 21
3.0000000000000022
 31
0.0
  0
LINE
  5
EA
100
AcDbEntity
100
AcDbLine
  8
top_detail
 62
256
370
-1
  6
BYLAYER
 10
86.0
 20
2.2500000000000466
 30
0.0
 11
56.0
 21
2.2500000000000027
 31
0.0
  0
LINE
  5
EB
100
AcDbEntity
100
AcDbLine
  8
top_detail
 62
256
370
-1
  6
BYLAYER
 10
86.0
 20
1.4999999999998685
 30
0.0
 11
56.0
 21
1.4999999999999922
 31
0.0
  0
LINE
  5
EC
100
AcDbEntity
100
AcDbLine
  8
top_detail
 62
256
370
-1
  6
BYLAYER
 10
86.0
 20
0.7500000000000375
 30
0.0
 11
56.0
 21
0.750000000000011
 31
0.0
  0
LINE
  5
ED
100
AcDbEntity
100
AcDbLine
  8
top_detail
 62
256
370
-1
  6
BYLAYER
 10
10.0
 20
78.0
 30
0.0
 11
10.0
 21
42.0
 31
0.0
  0
LINE
  5
EE
100
AcDbEntity
100
AcDbLine
  8
top_detail
 62
256
370
-1
  6
BYLAYER
 10
40.0
 20
78.0
 30
0.0
 11
40.0
 21
42.0
 31
0.0
  0
LINE
  5
EF
100
AcDbEntity
100
AcDbLine
  8
top_detail
 62
256
370
-1
  6
BYLAYER
 10
10.0
 20
77.25
 30
0.0
 11
40.0
 21
77.25
 31
0.0
  0
LINE
  5
F0
100
AcDbEntity
100
AcDbLine
  8
top_detail
 62
256
370
-1
  6
BYLAYER
 10
10.0
 20
76.5
 30
0.0
 11
40.0
 21
76.5
 31
0.0
  0
LINE
  5
F1
100
AcDbEntity
100
AcDbLine
  8
top_detail
 62
256
370
-1
  6
BYLAYER
 10
10.0
 20
75.75
 30
0.0
 11
40.0
 21
75.75
 31
0.0
  0
LINE
  5
F2
100
AcDbEntity
100
AcDbLine
  8
top_detail
 62
256
370
-1
  6
BYLAYER
 10
10.0
 20
75.0
 30
0.0
 11
40.0
 21
75.0
 31
0.0
  0
LINE
  5
F3
100
AcDbEntity
100
AcDbLine
  8
top_detail
 62
256
370
-1
  6
BYLAYER
 10
10.0
 20
74.25
 30
0.0
 11
40.0
 21
74.25
 31
0.0
  0
LINE
  5
F4
100
AcDbEntity
100
AcDbLine
  8
top_detail
 62
256
370
-1
  6
BYLAYER
 10
10.0
 20
73.5
 30
0.0
 11
40.0
 21
73.5
 31
0.0
  0
LINE
  5
F5
100
AcDbEntity
100
AcDbLine
  8
top_detail
 62
256
370
-1
  6
BYLAYER
 10
10.0
 20
72.75
 30
0.0
 11
40.0
 21
72.75
 31
0.0
  0
LINE
  5
F6
100
AcDbEntity
100
AcDbLine
  8
top_detail
 62
256
370
-1
  6
BYLAYER
 10
10.0
 20
72.0
 30
0.0
 11
40.0
 21
72.0
 31
0.0
  0
LINE
  5
F7
100
AcDbEntity
100
AcDbLine
  8
top_detail
 62
256
370
-1
  6
BYLAYER
 10
10.0
 20
71.25
 30
0.0
 11
40.0
 21
71.25
 31
0.0
  0
LINE
  5
F8
100
AcDbEntity
100
AcDbLine
  8
top_detail
 62
256
370
-1
  6
BYLAYER
 10
10.0
 20
70.5
 30
0.0
 11
40.0
 21
70.5
 31
0.0
  0
LINE
  5
F9
100
AcDbEntity
100
AcDbLine
  8
top_detail
 62
256
370
-1
  6
BYLAYER
 10
10.0
 20
69.75
 30
0.0
 11
40.0
 21
69.75
 31
0.0
  0
LINE
  5
FA
100
AcDbEntity
100
AcDbLine
  8
top_detail
 62
256
370
-1
  6
BYLAYER
 10
10.0
 20
69.0
 30
0.0
 11
40.0
 21
69.0
 31
0.0
  0
LINE
  5
FB
100
AcDbEntity
100
AcDbLine
  8
top_detail
 62
256
370
-1
  6
BYLAYER
 10
10.0
 20
68.25
 30
0.0
 11
40.0
 21
68.25
 31
0.0
  0
LINE
  5
FC
100
AcDbEntity
100
AcDbLine
  8
top_detail
 62
256
370
-1
  6
BYLAYER
 10
10.0
 20
67.5
 30
0.0
 11
40.0
 21
67.5
 31
0.0
  0
LINE
  5
FD
100
AcDbEntity
100
AcDbLine
  8
top_detail
 62
256
370
-1
  6
BYLAYER
 10
10.0
 20
66.75
 30
0.0
 11
40.0
 21
66.75
 31
0.0
  0
LINE
  5
FE
100
AcDbEntity
100
AcDbLine
  8
top_detail
 62
256
370
-1
  6
BYLAYER
 10
10.0
 20
66.0
 30
0.0
 11
40.0
 21
66.0
 31
0.0
  0
LINE
  5
FF
100
AcDbEntity
100
AcDbLine
  8
top_detail
 62
256
370
-1
  6
BYLAYER
 10
10.0
 20
65.25
 30
0.0
 11
40.0
 21
65.25
 31
0.0
  0
LINE
  5
100
100
AcDbEntity
100
AcDbLine
  8
top_detail
 62
256
370
-1
  6
BYLAYER
 10
10.0
 20
64.5
 30
0.0
 11
40.0
 21
64.5
 31
0.0
  0
LINE
  5
101
100
AcDbEntity
100
AcDbLine
  8
top_detail
 62
256
370
-1
  6
BYLAYER
 10
10.0
 20
63.75
 30
0.0
 11
40.0
 21
63.75
 31
0.0
  0
LINE
  5
102
100
AcDbEntity
100
AcDbLine
  8
top_detail
 62
256
370
-1
  6
BYLAYER
 10
10.0
 20
63.0
 30
0.0
 11
40.0
 21
63.0
 31
0.0
  0
LINE
  5
103
100
AcDbEntity
100
AcDbLine
  8
top_detail
 62
256
370
-1
  6
BYLAYER
 10
10.0
 20
62.25
 30
0.0
 11
40.0
 21
62.25
 31
0.0
  0
LINE
  5
104
100
AcDbEntity
100
AcDbLine
  8
top_detail
 62
256
370
-1
  6
BYLAYER
 10
10.0
 20
61.5
 30
0.0
 11
40.0
 21
61.5
 31
0.0
  0
LINE
  5
105
100
AcDbEntity
100
AcDbLine
  8
top_detail
 62
256
370
-1
  6
BYLAYER
 10
10.0
 20
60.75
 30
0.0
 11
40.0
 21
60.75
 31
0.0
  0
LINE
  5
106
100
AcDbEntity
100
AcDbLine
  8
top_detail
 62
256
370
-1
  6
BYLAYER
 10
10.0
 20
60.0
 30
0.0
 11
40.0
 21
60.0
 31
0.0
  0
LINE
  5
107
100
AcDbEntity
100
AcDbLine
  8
top_detail
 62
256
370
-1
  6
BYLAYER
 10
10.0
 20
59.25
 30
0.0
 11
40.0
 21
59.25
 31
0.0
  0
LINE
  5
108
100
AcDbEntity
100
AcDbLine
  8
top_detail
 62
256
370
-1
  6
BYLAYER
 10
10.0
 20
58.5
 30
0.0
 11
40.0
 21
58.5
 31
0.0
  0
LINE
  5
109
100
AcDbEntity
100
AcDbLine
  8
top_detail
 62
256
370
-1
  6
BYLAYER
 10
10.0
 20
57.75
 30
0.0
 11
40.0
 21
57.75
 31
0.0
  0
LINE
  5
10A
100
AcDbEntity
100
AcDbLine
  8
top_detail
 62
256
370
-1
  6
BYLAYER
 10
10.0
 20
57.0
 30
0.0
 11
40.0
 21
57.0
 31
0.0
  0
LINE
  5
10B
100
AcDbEntity
100
AcDbLine
  8
top_detail
 62
256
370
-1
  6
BYLAYER
 10
10.0
 20
56.25
 30
0.0
 11
40.0
 21
56.25
 31
0.0
  0
LINE
  5
10C
100
AcDbEntity
100
AcDbLine
  8
top_detail
 62
256
370
-1
  6
BYLAYER
 10
10.0
 20
55.5
 30
0.0
 11
40.0
 21
55.5
 31
0.0
  0
LINE
  5
10D
100
AcDbEntity
100
AcDbLine
  8
top_detail
 62
256
370
-1
  6
BYLAYER
 10
10.0
 20
54.75
 30
0.0
 11
40.0
 21
54.75
 31
0.0
  0
LINE
  5
10E
100
AcDbEntity
100
AcDbLine
  8
top_detail
 62
256
370
-1
  6
BYLAYER
 10
10.0
 20
54.0
 30
0.0
 11
40.0
 21
54.0
 31
0.0
  0
LINE
  5
10F
100
AcDbEntity
100
AcDbLine
  8
top_detail
 62
256
370
-1
  6
BYLAYER
 10
10.0
 20
53.25
 30
0.0
 11
40.0
 21
53.25
 31
0.0
  0
LINE
  5
110
100
AcDbEntity
100
AcDbLine
  8
top_detail
 62
256
370
-1
  6
BYLAYER
 10
10.0
 20
52.5
 30
0.0
 11
40.0
 21
52.5
 31
0.0
  0
LINE
  5
111
100
AcDbEntity
100
AcDbLine
  8
top_detail
 62
256
370
-1
  6
BYLAYER
 10
10.0
 20
51.75
 30
0.0
 11
40.0
 21
51.75
 31
0.0
  0
LINE
  5
112
100
AcDbEntity
100
AcDbLine
  8
top_detail
 62
256
370
-1
  6
BYLAYER
 10
10.0
 20
51.0
 30
0.0
 11
40.0
 21
51.0
 31
0.0
  0
LINE
  5
113
100
AcDbEntity
100
AcDbLine
  8
top_detail
 62
256
370
-1
  6
BYLAYER
 10
10.0
 20
50.25
 30
0.0
 11
40.0
 21
50.25
 31
0.0
  0
LINE
  5
114
100
AcDbEntity
100
AcDbLine
  8
top_detail
 62
256
370
-1
  6
BYLAYER
 10
10.0
 20
49.5
 30
0.0
 11
40.0
 21
49.5
 31
0.0
  0
LINE
  5
115
100
AcDbEntity
100
AcDbLine
  8
top_detail
 62
256
370
-1
  6
BYLAYER
 10
10.0
 20
48.75
 30
0.0
 11
40.0
 21
48.75
 31
0.0
  0
LINE
  5
116
100
AcDbEntity
100
AcDbLine
  8
top_detail
 62
256
370
-1
  6
BYLAYER
 10
10.0
 20
48.0
 30
0.0
 11
40.0
 21
48.0
 31
0.0
  0
LINE
  5
117
100
AcDbEntity
100
AcDbLine
  8
top_detail
 62
256
370
-1
  6
BYLAYER
 10
10.0
 20
47.25
 30
0.0
 11
40.0
 21
47.25
 31
0.0
  0
LINE
  5
118
100
AcDbEntity
100
AcDbLine
  8
top_detail
 62
256
370
-1
  6
BYLAYER
 10
10.0
 20
46.5
 30
0.0
 11
40.0
 21
46.5
 31
0.0
  0
LINE
  5
119
100
AcDbEntity
100
AcDbLine
  8
top_detail
 62
256
370
-1
  6
BYLAYER
 10
10.0
 20
45.75
 30
0.0
 11
40.0
 21
45.75
 31
0.0
  0
LINE
  5
11A
100
AcDbEntity
100
AcDbLine
  8
top_detail
 62
256
370
-1
  6
BYLAYER
 10
10.0
 20
45.0
 30
0.0
 11
40.0
 21
45.0
 31
0.0
  0
LINE
  5
11B
100
AcDbEntity
100
AcDbLine
  8
top_detail
 62
256
370
-1
  6
BYLAYER
 10
10.0
 20
44.25
 30
0.0
 11
40.0
 21
44.25
 31
0.0
  0
LINE
  5
11C
100
AcDbEntity
100
AcDbLine
  8
top_detail
 62
256
370
-1
  6
BYLAYER
 10
10.0
 20
43.5
 30
0.0
 11
40.0
 21
43.5
 31
0.0
  0
LINE
  5
11D
100
AcDbEntity
100
AcDbLine
  8
top_detail
 62
256
370
-1
  6
BYLAYER
 10
10.0
 20
42.75
 30
0.0
 11
40.0
 21
42.75
 31
0.0
  0
LINE
  5
11E
100
AcDbEntity
100
AcDbLine
  8
top_detail
 62
256
370
-1
  6
BYLAYER
 10
74.0
 20
49.4999999999999929
 30
0.0
 11
44.0
 21
49.5
 31
0.0
  0
LINE
  5
11F
100
AcDbEntity
100
AcDbLine
  8
top_detail
 62
256
370
-1
  6
BYLAYER
 10
74.0
 20
48.7500000000000071
 30
0.0
 11
44.0
 21
48.75
 31
0.0
  0
LINE
  5
120
100
AcDbEntity
100
AcDbLine
  8
top_detail
 62
256
370
-1
  6
BYLAYER
 10
74.0
 20
48.0
 30
0.0
 11
44.0
 21
48.0
 31
0.0
  0
LINE
  5
121
100
AcDbEntity
100
AcDbLine
  8
top_detail
 62
256
370
-1
  6
BYLAYER
 10
74.0
 20
47.2500000000000071
 30
0.0
 11
44.0
 21
47.25
 31
0.0
  0
LINE
  5
122
100
AcDbEntity
100
AcDbLine
  8
top_detail
 62
256
370
-1
  6
BYLAYER
 10
74.0
 20
46.5000000000000071
 30
0.0
 11
44.0
 21
46.5
 31
0.0
  0
LINE
  5
123
100
AcDbEntity
100
AcDbLine
  8
top_detail
 62
256
370
-1
  6
BYLAYER
 10
74.0
 20
45.7499999999999929
 30
0.0
 11
44.0
 21
45.75
 31
0.0
  0
LINE
  5
124
100
AcDbEntity
100
AcDbLine
  8
top_detail
 62
256
370
-1
  6
BYLAYER
 10
74.0
 20
44.9999999999999645
 30
0.0
 11
44.0
 21
45.0
 31
0.0
  0
LINE
  5
125
100
AcDbEntity
100
AcDbLine
  8
top_detail
 62
256
370
-1
  6
BYLAYER
 10
74.0
 20
44.2500000000000142
 30
0.0
 11
44.0
 21
44.25
 31
0.0
  0
LINE
  5
126
100
AcDbEntity
100
AcDbLine
  8
top_detail
 62
256
370
-1
  6
BYLAYER
 10
74.0
 20
43.5000000000000355
 30
0.0
 11
44.0
 21
43.5
 31
0.0
  0
LINE
  5
127
100
AcDbEntity
100
AcDbLine
  8
top_detail
 62
256
370
-1
  6
BYLAYER
 10
74.0
 20
42.7500000000000213
 30
0.0
 11
44.0
 21
42.75
 31
0.0
  0
LINE
  5
128
100
AcDbEntity
100
AcDbLine
  8
top_detail
 62
256
370
-1
  6
BYLAYER
 10
74.0
 20
78.0
 30
0.0
 11
74.0
 21
42.0
 31
0.0
  0
LINE
  5
129
100
AcDbEntity
100
AcDbLine
  8
top_detail
 62
256
370
-1
  6
BYLAYER
 10
44.0
 20
78.0
 30
0.0
 11
44.0
 21
42.0
 31
0.0
  0
LINE
  5
12A
100
AcDbEntity
100
AcDbLine
  8
top_detail
 62
256
370
-1
  6
BYLAYER
 10
74.0
 20
77.25
 30
0.0
 11
44.0
 21
77.25
 31
0.0
  0
LINE
  5
12B
100
AcDbEntity
100
AcDbLine
  8
top_detail
 62
256
370
-1
  6
BYLAYER
 10
74.0
 20
76.5
 30
0.0
 11
44.0
 21
76.5
 31
0.0
  0
LINE
  5
12C
100
AcDbEntity
100
AcDbLine
  8
top_detail
 62
256
370
-1
  6
BYLAYER
 10
74.0
 20
75.7499999999999858
 30
0.0
 11
44.0
 21
75.75
 31
0.0
  0
LINE
  5
12D
100
AcDbEntity
100
AcDbLine
  8
top_detail
 62
256
370
-1
  6
BYLAYER
 10
74.0
 20
74.9999999999999858
 30
0.0
 11
44.0
 21
75.0
 31
0.0
  0
LINE
  5
12E
100
AcDbEntity
100
AcDbLine
  8
top_detail
 62
256
370
-1
  6
BYLAYER
 10
74.0000000000000142
 20
74.2499999999999858
 30
0.0
 11
44.0000000000000071
 21
74.25
 31
0.0
  0
LINE
  5
12F
100
AcDbEntity
100
AcDbLine
  8
top_detail
 62
256
370
-1
  6
BYLAYER
 10
74.0
 20
73.5
 30
0.0
 11
44.0
 21
73.5
 31
0.0
  0
LINE
  5
130
100
AcDbEntity
100
AcDbLine
  8
top_detail
 62
256
370
-1
  6
BYLAYER
 10
74.0
 20
72.75
 30
0.0
 11
44.0000000000000071
 21
72.75
 31
0.0
  0
LINE
  5
131
100
AcDbEntity
100
AcDbLine
  8
top_detail
 62
256
370
-1
  6
BYLAYER
 10
74.0
 20
72.0
 30
0.0
 11
44.0
 21
72.0
 31
0.0
  0
LINE
  5
132
100
AcDbEntity
100
AcDbLine
  8
top_detail
 62
256
370
-1
  6
BYLAYER
 10
74.0
 20
71.25
 30
0.0
 11
44.0
 21
71.25
 31
0.0
  0
LINE
  5
133
100
AcDbEntity
100
AcDbLine
  8
top_detail
 62
256
370
-1
  6
BYLAYER
 10
74.0
 20
70.5
 30
0.0
 11
44.0
 21
70.5
 31
0.0
  0
LINE
  5
134
100
AcDbEntity
100
AcDbLine
  8
top_detail
 62
256
370
-1
  6
BYLAYER
 10
74.0
 20
69.7499999999999858
 30
0.0
 11
44.0
 21
69.75
 31
0.0
  0
LINE
  5
135
100
AcDbEntity
100
AcDbLine
  8
top_detail
 62
256
370
-1
  6
BYLAYER
 10
74.0
 20
68.9999999999999858
 30
0.0
 11
44.0
 21
69.0
 31
0.0
  0
LINE
  5
136
100
AcDbEntity
100
AcDbLine
  8
top_detail
 62
256
370
-1
  6
BYLAYER
 10
74.0
 20
68.25
 30
0.0
 11
44.0
 21
68.25
 31
0.0
  0
LINE
  5
137
100
AcDbEntity
100
AcDbLine
  8
top_detail
 62
256
370
-1
  6
BYLAYER
 10
74.0
 20
67.5
 30
0.0
 11
44.0
 21
67.5
 31
0.0
  0
LINE
  5
138
100
AcDbEntity
100
AcDbLine
  8
top_detail
 62
256
370
-1
  6
BYLAYER
 10
74.0
 20
66.75
 30
0.0
 11
44.0
 21
66.75
 31
0.0
  0
LINE
  5
139
100
AcDbEntity
100
AcDbLine
  8
top_detail
 62
256
370
-1
  6
BYLAYER
 10
74.0
 20
66.0
 30
0.0
 11
44.0
 21
66.0
 31
0.0
  0
LINE
  5
13A
100
AcDbEntity
100
AcDbLine
  8
top_detail
 62
256
370
-1
  6
BYLAYER
 10
74.0
 20
65.25
 30
0.0
 11
44.0
 21
65.25
 31
0.0
  0
LINE
  5
13B
100
AcDbEntity
100
AcDbLine
  8
top_detail
 62
256
370
-1
  6
BYLAYER
 10
74.0
 20
64.5
 30
0.0
 11
44.0
 21
64.5
 31
0.0
  0
LINE
  5
13C
100
AcDbEntity
100
AcDbLine
  8
top_detail
 62
256
370
-1
  6
BYLAYER
 10
74.0
 20
63.7499999999999858
 30
0.0
 11
44.0
 21
63.75
 31
0.0
  0
LINE
  5
13D
100
AcDbEntity
100
AcDbLine
  8
top_detail
 62
256
370
-1
  6
BYLAYER
 10
74.0
 20
63.0
 30
0.0
 11
44.0
 21
63.0
 31
0.0
  0
LINE
  5
13E
100
AcDbEntity
100
AcDbLine
  8
top_detail
 62
256
370
-1
  6
BYLAYER
 10
74.0
 20
62.2499999999999929
 30
0.0
 11
44.0
 21
62.25
 31
0.0
  0
LINE
  5
13F
100
AcDbEntity
100
AcDbLine
  8
top_detail
 62
256
370
-1
  6
BYLAYER
 10
74.0
 20
61.4999999999999858
 30
0.0
 11
44.0
 21
61.5
 31
0.0
  0
LINE
  5
140
100
AcDbEntity
100
AcDbLine
  8
top_detail
 62
256
370
-1
  6
BYLAYER
 10
74.0
 20
60.75
 30
0.0
 11
44.0
 21
60.75
 31
0.0
  0
LINE
  5
141
100
AcDbEntity
100
AcDbLine
  8
top_detail
 62
256
370
-1
  6
BYLAYER
 10
74.0
 20
60.0
 30
0.0
 11
44.0
 21
60.0
 31
0.0
  0
LINE
  5
142
100
AcDbEntity
100
AcDbLine
  8
top_detail
 62
256
370
-1
  6
BYLAYER
 10
74.0
 20
59.25
 30
0.0
 11
44.0
 21
59.25
 31
0.0
  0
LINE
  5
143
100
AcDbEntity
100
AcDbLine
  8
top_detail
 62
256
370
-1
  6
BYLAYER
 10
74.0
 20
58.5000000000000071
 30
0.0
 11
44.0
 21
58.5
 31
0.0
  0
LINE
  5
144
100
AcDbEntity
100
AcDbLine
  8
top_detail
 62
256
370
-1
  6
BYLAYER
 10
74.0
 20
57.7499999999999929
 30
0.0
 11
44.0
 21
57.75
 31
0.0
  0
LINE
  5
145
100
AcDbEntity
100
AcDbLine
  8
top_detail
 62
256
370
-1
  6
BYLAYER
 10
74.0
 20
57.0
 30
0.0
 11
44.0
 21
57.0
 31
0.0
  0
LINE
  5
146
100
AcDbEntity
100
AcDbLine
  8
top_detail
 62
256
370
-1
  6
BYLAYER
 10
74.0
 20
56.2500000000000071
 30
0.0
 11
44.0
 21
56.25
 31
0.0
  0
LINE
  5
147
100
AcDbEntity
100
AcDbLine
  8
top_detail
 62
256
370
-1
  6
BYLAYER
 10
74.0
 20
55.5
 30
0.0
 11
44.0
 21
55.5
 31
0.0
  0
LINE
  5
148
100
AcDbEntity
100
AcDbLine
  8
top_detail
 62
256
370
-1
  6
BYLAYER
 10
74.0
 20
54.7499999999999858
 30
0.0
 11
44.0
 21
54.75
 31
0.0
  0
LINE
  5
149
100
AcDbEntity
100
AcDbLine
  8
top_detail
 62
256
370
-1
  6
BYLAYER
 10
74.0
 20
54.0
 30
0.0
 11
44.0
 21
54.0
 31
0.0
  0
LINE
  5
14A
100
AcDbEntity
100
AcDbLine
  8
top_detail
 62
256
370
-1
  6
BYLAYER
 10
74.0
 20
53.2499999999999858
 30
0.0
 11
44.0
 21
53.25
 31
0.0
  0
LINE
  5
14B
100
AcDbEntity
100
AcDbLine
  8
top_detail
 62
256
370
-1
  6
BYLAYER
 10
74.0
 20
52.5
 30
0.0
 11
44.0
 21
52.5
 31
0.0
  0
LINE
  5
14C
100
AcDbEntity
100
AcDbLine
  8
top_detail
 62
256
370
-1
  6
BYLAYER
 10
74.0
 20
51.75
 30
0.0
 11
44.0
 21
51.75
 31
0.0
  0
LINE
  5
14D
100
AcDbEntity
100
AcDbLine
  8
top_detail
 62
256
370
-1
  6
BYLAYER
 10
74.0
 20
51.0
 30
0.0
 11
44.0
 21
51.0
 31
0.0
  0
LINE
  5
14E
100
AcDbEntity
100
AcDbLine
  8
top_detail
 62
256
370
-1
  6
BYLAYER
 10
74.0
 20
50.2500000000000071
 30
0.0
 11
44.0
 21
50.25
 31
0.0
  0
LINE
  5
14F
100
AcDbEntity
100
AcDbLine
  8
top
 62
256
370
-1
  6
BYLAYER
 10
14.0
 20
96.5
 30
0.0
 11
17.5
 21
96.5
 31
0.0
  0
LINE
  5
150
100
AcDbEntity
100
AcDbLine
  8
top
 62
256
370
-1
  6
BYLAYER
 10
17.5
 20
96.5
 30
0.0
 11
17.5
 21
100.0
 31
0.0
  0
LINE
  5
151
100
AcDbEntity
100
AcDbLine
  8
top
 62
256
370
-1
  6
BYLAYER
 10
17.5
 20
100.0
 30
0.0
 11
14.0
 21
100.0
 31
0.0
  0
LINE
  5
152
100
AcDbEntity
100
AcDbLine
  8
top
 62
256
370
-1
  6
BYLAYER
 10
14.0
 20
100.0
 30
0.0
 11
14.0
 21
96.5
 31
0.0
  0
LINE
  5
153
100
AcDbEntity
100
AcDbLine
  8
top
 62
256
370
-1
  6
BYLAYER
 10
14.0
 20
62.0
 30
0.0
 11
13.9999999999999929
 21
65.5000000000000142
 31
0.0
  0
LINE
  5
154
100
AcDbEntity
100
AcDbLine
  8
top
 62
256
370
-1
  6
BYLAYER
 10
13.9999999999999929
 20
65.5000000000000142
 30
0.0
 11
17.4999999999999964
 21
65.5
 31
0.0
  0
LINE
  5
155
100
AcDbEntity
100
AcDbLine
  8
top
 62
256
370
-1
  6
BYLAYER
 10
17.4999999999999964
 20
65.5
 30
0.0
 11
17.4999999999999964
 21
62.0000000000000142
 31
0.0
  0
LINE
  5
156
100
AcDbEntity
100
AcDbLine
  8
top
 62
256
370
-1
  6
BYLAYER
 10
17.4999999999999964
 20
62.0000000000000142
 30
0.0
 11
14.0
 21
62.0
 31
0.0
  0
LINE
  5
157
100
AcDbEntity
100
AcDbLine
  8
top
 62
256
370
-1
  6
BYLAYER
 10
15.25
 20
65.5000000000000142
 30
0.0
 11
15.25
 21
96.5000000000000142
 31
0.0
  0
LINE
  5
158
100
AcDbEntity
100
AcDbLine
  8
top
 62
256
370
-1
  6
BYLAYER
 10
14.5
 20
96.5000000000000142
 30
0.0
 11
14.5
 21
65.5000000000000142
 31
0.0
  0
LINE
  5
159
100
AcDbEntity
100
AcDbLine
  8
top
 62
256
370
-1
  6
BYLAYER
 10
82.0
 20
99.9999999999999858
 30
0.0
 11
82.0
 21
96.5
 31
0.0
  0
LINE
  5
15A
100
AcDbEntity
100
AcDbLine
  8
top
 62
256
370
-1
  6
BYLAYER
 10
82.0
 20
62.0000000000000142
 30
0.0
 11
82.0
 21
65.5000000000000142
 31
0.0
  0
LINE
  5
15B
100
AcDbEntity
100
AcDbLine
  8
top
 62
256
370
-1
  6
BYLAYER
 10
82.0
 20
65.5000000000000142
 30
0.0
 11
78.5
 21
65.5
 31
0.0
  0
LINE
  5
15C
100
AcDbEntity
100
AcDbLine
  8
top
 62
256
370
-1
  6
BYLAYER
 10
78.5
 20
65.5
 30
0.0
 11
78.5
 21
62.0
 31
0.0
  0
LINE
  5
15D
100
AcDbEntity
100
AcDbLine
  8
top
 62
256
370
-1
  6
BYLAYER
 10
78.5
 20
62.0
 30
0.0
 11
82.0
 21
62.0000000000000142
 31
0.0
  0
LINE
  5
15E
100
AcDbEntity
100
AcDbLine
  8
top
 62
256
370
-1
  6
BYLAYER
 10
80.75
 20
65.5000000000000284
 30
0.0
 11
80.75
 21
96.5
 31
0.0
  0
LINE
  5
15F
100
AcDbEntity
100
AcDbLine
  8
top
 62
256
370
-1
  6
BYLAYER
 10
81.5000000000000142
 20
96.5000000000000142
 30
0.0
 11
81.5
 21
65.5000000000000426
 31
0.0
  0
LINE
  5
160
100
AcDbEntity
100
AcDbLine
  8
top
 62
256
370
-1
  6
BYLAYER
 10
82.0
 20
96.5
 30
0.0
 11
78.5
 21
96.5
 31
0.0
  0
LINE
  5
161
100
AcDbEntity
100
AcDbLine
  8
top
 62
256
370
-1
  6
BYLAYER
 10
78.5
 20
96.5
 30
0.0
 11
78.5
 21
100.0
 31
0.0
  0
LINE
  5
162
100
AcDbEntity
100
AcDbLine
  8
top
 62
256
370
-1
  6
BYLAYER
 10
78.5
 20
100.0
 30
0.0
 11
82.0
 21
99.9999999999999858
 31
0.0
  0
LINE
  5
163
100
AcDbEntity
100
AcDbLine
  8
top
 62
256
370
-1
  6
BYLAYER
 10
78.5
 20
99.5
 30
0.0
 11
17.4999999999999929
 21
99.5
 31
0.0
  0
LINE
  5
164
100
AcDbEntity
100
AcDbLine
  8
top
 62
256
370
-1
  6
BYLAYER
 10
78.5
 20
98.75
 30
0.0
 11
17.4999999999999929
 21
98.75
 31
0.0
  0
LINE
  5
165
100
AcDbEntity
100
AcDbLine
  8
top
 62
256
370
-1
  6
BYLAYER
 10
78.5
 20
62.5000000000000071
 30
0.0
 11
17.4999999999999929
 21
62.5000000000000142
 31
0.0
  0
LINE
  5
166
100
AcDbEntity
100
AcDbLine
  8
top
 62
256
370
-1
  6
BYLAYER
 10
78.5
 20
63.2500000000000071
 30
0.0
 11
17.4999999999999929
 21
63.25
 31
0.0
  0
LINE
  5
167
100
AcDbEntity
100
AcDbLine
  8
top
 62
256
370
-1
  6
BYLAYER
 10
100.0
 20
89.5
 30
0.0
 11
172.0
 21
89.5
 31
0.0
  0
LINE
  5
168
100
AcDbEntity
100
AcDbLine
  8
top
 62
256
370
-1
  6
BYLAYER
 10
172.0
 20
89.5
 30
0.0
 11
172.0
 21
91.0
 31
0.0
  0
LINE
  5
169
100
AcDbEntity
100
AcDbLine
  8
top
 62
256
370
-1
  6
BYLAYER
 10
172.0
 20
91.0
 30
0.0
 11
100.0
 21
91.0
 31
0.0
  0
LINE
  5
16A
100
AcDbEntity
100
AcDbLine
  8
top
 62
256
370
-1
  6
BYLAYER
 10
100.0
 20
91.0
 30
0.0
 11
100.0
 21
89.5
 31
0.0
  0
LINE
  5
16B
100
AcDbEntity
100
AcDbLine
  8
top
 62
256
370
-1
  6
BYLAYER
 10
102.0
 20
60.0
 30
0.0
 11
105.5
 21
60.0
 31
0.0
  0
LINE
  5
16C
100
AcDbEntity
100
AcDbLine
  8
top
 62
256
370
-1
  6
BYLAYER
 10
105.5
 20
60.0
 30
0.0
 11
105.5
 21
89.5
 31
0.0
  0
LINE
  5
16D
100
AcDbEntity
100
AcDbLine
  8
top
 62
256
370
-1
  6
BYLAYER
 10
105.5
 20
89.5
 30
0.0
 11
102.0
 21
89.5
 31
0.0
  0
LINE
  5
16E
100
AcDbEntity
100
AcDbLine
  8
top
 62
256
370
-1
  6
BYLAYER
 10
102.0
 20
89.5
 30
0.0
 11
102.0
 21
60.0
 31
0.0
  0
LINE
  5
16F
100
AcDbEntity
100
AcDbLine
  8
top
 62
256
370
-1
  6
BYLAYER
 10
170.0
 20
60.0
 30
0.0
 11
166.5
 21
59.9999999999999929
 31
0.0
  0
LINE
  5
170
100
AcDbEntity
100
AcDbLine
  8
top
 62
256
370
-1
  6
BYLAYER
 10
166.5
 20
59.9999999999999929
 30
0.0
 11
166.5
 21
89.5
 31
0.0
  0
LINE
  5
171
100
AcDbEntity
100
AcDbLine
  8
top
 62
256
370
-1
  6
BYLAYER
 10
166.5
 20
89.5
 30
0.0
 11
170.0
 21
89.5
 31
0.0
  0
LINE
  5
172
100
AcDbEntity
100
AcDbLine
  8
top
 62
256
370
-1
  6
BYLAYER
 10
170.0
 20
89.5
 30
0.0
 11
170.0
 21
60.0
 31
0.0
  0
LINE
  5
173
100
AcDbEntity
100
AcDbLine
  8
top
 62
256
370
-1
  6
BYLAYER
 10
105.5
 20
87.0
 30
0.0
 11
166.5
 21
87.0
 31
0.0
  0
LINE
  5
174
100
AcDbEntity
100
AcDbLine
  8
top
 62
256
370
-1
  6
BYLAYER
 10
27.0
 20
93.0
 30
0.0
 11
69.0
 21
93.0
 31
0.0
  0
LINE
  5
175
100
AcDbEntity
100
AcDbLine
  8
top
 62
256
370
-1
  6
BYLAYER
 10
69.0
 20
69.0
 30
0.0
 11
69.0
 21
93.0
 31
0.0
  0
LINE
  5
176
100
AcDbEntity
100
AcDbLine
  8
top
 62
256
370
-1
  6
BYLAYER
 10
27.0
 20
93.0
 30
0.0
 11
27.0
 21
69.0
 31
0.0
  0
LINE
  5
177
100
AcDbEntity
100
AcDbLine
  8
top
 62
256
370
-1
  6
BYLAYER
 10
27.0
 20
69.0
 30
0.0
 11
69.0
 21
69.0
 31
0.0
  0
DIMENSION
  5
178
100
AcDbEntity
  8
top
 62
256
370
-1
  6
BYLAYER
100
AcDbDimension
 10
112.0
 20
87.0
 30
0.0
 11
110.125
 21
73.5
 31
0.0
 70
1
 71
8
 72
2
 41
1.0
 42
0.0
  1

  3
Standard
100
AcDbAlignedDimension
 13
105.5
 23
87.0
 33
0.0
 14
105.5
 24
60.0
 34
0.0
1001
ACAD
1000
DSTYLE
1002
{
1070
144
1040
1
1002
}
  0
DIMENSION
  5
179
100
AcDbEntity
  8
top
 62
256
370
-1
  6
BYLAYER
100
AcDbDimension
 10
100.0
 20
95.5
 30
0.0
 11
136.0
 21
97.375
 31
0.0
 70
1
 71
8
 72
2
 41
1.0
 42
0.0
  1

  3
Standard
100
AcDbAlignedDimension
 13
100.0
 23
91.0
 33
0.0
 14
172.0
 24
91.0
 34
0.0
1001
ACAD
1000
DSTYLE
1002
{
1070
144
1040
1
1002
}
  0
DIMENSION
  5
17A
100
AcDbEntity
  8
top
 62
256
370
-1
  6
BYLAYER
100
AcDbDimension
 10
92.0
 20
101.9999999999999858
 30
0.0
 11
90.125
 21
80.9999999999999858
 31
0.0
 70
1
 71
8
 72
2
 41
1.0
 42
0.0
  1

  3
Standard
100
AcDbAlignedDimension
 13
84.0
 23
101.9999999999999858
 33
0.0
 14
84.0
 24
59.9999999999999929
 34
0.0
1001
ACAD
1000
DSTYLE
1002
{
1070
144
1040
1
1002
}
  0
DIMENSION
  5
17B
100
AcDbEntity
  8
top
 62
256
370
-1
  6
BYLAYER
100
AcDbDimension
 10
78.5
 20
105.0
 30
0.0
 11
87.3125
 21
106.875
 31
0.0
 70
1
 71
8
 72
2
 41
1.0
 42
0.0
  1

  3
Standard
100
AcDbAlignedDimension
 13
78.5
 23
100.0
 33
0.0
 14
82.0
 24
100.0
 34
0.0
1001
ACAD
1000
DSTYLE
1002
{
1070
144
1040
1
1002
}
  0
LINE
  5
17C
100
AcDbEntity
100
AcDbLine
  8
top
 62
256
370
-1
  6
BYLAYER
 10
78.5
 20
40.0
 30
0.0
 11
82.0
 21
39.9999999999999858
 31
0.0
  0
LINE
  5
17D
100
AcDbEntity
100
AcDbLine
  8
top
 62
256
370
-1
  6
BYLAYER
 10
78.5
 20
39.5
 30
0.0
 11
17.5
 21
39.5
 31
0.0
  0
LINE
  5
17E
100
AcDbEntity
100
AcDbLine
  8
top
 62
256
370
-1
  6
BYLAYER
 10
78.5
 20
38.75
 30
0.0
 11
17.5
 21
38.75
 31
0.0
  0
LINE
  5
17F
100
AcDbEntity
100
AcDbLine
  8
top
 62
256
370
-1
  6
BYLAYER
 10
78.5
 20
2.5000000000000071
 30
0.0
 11
17.5
 21
2.5000000000000142
 31
0.0
  0
LINE
  5
180
100
AcDbEntity
100
AcDbLine
  8
top
 62
256
370
-1
  6
BYLAYER
 10
78.5
 20
3.2500000000000071
 30
0.0
 11
17.5
 21
3.25
 31
0.0
  0
LINE
  5
181
100
AcDbEntity
100
AcDbLine
  8
top
 62
256
370
-1
  6
BYLAYER
 10
14.0
 20
36.5
 30
0.0
 11
17.5
 21
36.5
 31
0.0
  0
LINE
  5
182
100
AcDbEntity
100
AcDbLine
  8
top
 62
256
370
-1
  6
BYLAYER
 10
17.5
 20
36.5
 30
0.0
 11
17.5
 21
40.0
 31
0.0
  0
LINE
  5
183
100
AcDbEntity
100
AcDbLine
  8
top
 62
256
370
-1
  6
BYLAYER
 10
17.5
 20
40.0
 30
0.0
 11
14.0
 21
40.0
 31
0.0
  0
LINE
  5
184
100
AcDbEntity
100
AcDbLine
  8
top
 62
256
370
-1
  6
BYLAYER
 10
14.0
 20
40.0
 30
0.0
 11
14.0
 21
36.5
 31
0.0
  0
LINE
  5
185
100
AcDbEntity
100
AcDbLine
  8
top
 62
256
370
-1
  6
BYLAYER
 10
14.0
 20
2.0
 30
0.0
 11
14.0
 21
5.5000000000000142
 31
0.0
  0
LINE
  5
186
100
AcDbEntity
100
AcDbLine
  8
top
 62
256
370
-1
  6
BYLAYER
 10
14.0
 20
5.5000000000000142
 30
0.0
 11
17.5
 21
5.5000000000000071
 31
0.0
  0
LINE
  5
187
100
AcDbEntity
100
AcDbLine
  8
top
 62
256
370
-1
  6
BYLAYER
 10
17.5
 20
5.5000000000000071
 30
0.0
 11
17.5
 21
2.0000000000000142
 31
0.0
  0
LINE
  5
188
100
AcDbEntity
100
AcDbLine
  8
top
 62
256
370
-1
  6
BYLAYER
 10
17.5
 20
2.0000000000000142
 30
0.0
 11
14.0
 21
2.0
 31
0.0
  0
LINE
  5
189
100
AcDbEntity
100
AcDbLine
  8
top
 62
256
370
-1
  6
BYLAYER
 10
15.25
 20
5.5000000000000142
 30
0.0
 11
15.25
 21
36.5000000000000142
 31
0.0
  0
LINE
  5
18A
100
AcDbEntity
100
AcDbLine
  8
top
 62
256
370
-1
  6
BYLAYER
 10
14.5
 20
36.5000000000000142
 30
0.0
 11
14.5
 21
5.5000000000000142
 31
0.0
  0
LINE
  5
18B
100
AcDbEntity
100
AcDbLine
  8
top
 62
256
370
-1
  6
BYLAYER
 10
82.0
 20
39.9999999999999858
 30
0.0
 11
82.0
 21
36.5
 31
0.0
  0
LINE
  5
18C
100
AcDbEntity
100
AcDbLine
  8
top
 62
256
370
-1
  6
BYLAYER
 10
82.0
 20
2.0000000000000142
 30
0.0
 11
82.0
 21
5.5000000000000142
 31
0.0
  0
LINE
  5
18D
100
AcDbEntity
100
AcDbLine
  8
top
 62
256
370
-1
  6
BYLAYER
 10
82.0
 20
5.5000000000000142
 30
0.0
 11
78.5
 21
5.5000000000000071
 31
0.0
  0
LINE
  5
18E
100
AcDbEntity
100
AcDbLine
  8
top
 62
256
370
-1
  6
BYLAYER
 10
78.5
 20
5.5000000000000071
 30
0.0
 11
78.5
 21
2.0
 31
0.0
  0
LINE
  5
18F
100
AcDbEntity
100
AcDbLine
  8
top
 62
256
370
-1
  6
BYLAYER
 10
78.5
 20
2.0
 30
0.0
 11
82.0
 21
2.0000000000000142
 31
0.0
  0
LINE
  5
190
100
AcDbEntity
100
AcDbLine
  8
top
 62
256
370
-1
  6
BYLAYER
 10
80.75
 20
5.5000000000000284
 30
0.0
 11
80.75
 21
36.5
 31
0.0
  0
LINE
  5
191
100
AcDbEntity
100
AcDbLine
  8
top
 62
256
370
-1
  6
BYLAYER
 10
81.5
 20
36.5000000000000142
 30
0.0
 11
81.5
 21
5.5000000000000426
 31
0.0
  0
LINE
  5
192
100
AcDbEntity
100
AcDbLine
  8
top
 62
256
370
-1
  6
BYLAYER
 10
82.0
 20
36.5
 30
0.0
 11
78.5
 21
36.5
 31
0.0
  0
LINE
  5
193
100
AcDbEntity
100
AcDbLine
  8
top
 62
256
370
-1
  6
BYLAYER
 10
78.5
 20
36.5
 30
0.0
 11
78.5
 21
40.0
 31
0.0
  0
DIMENSION
  5
194
100
AcDbEntity
  8
top
 62
256
370
-1
  6
BYLAYER
100
AcDbDimension
 10
36.0
 20
32.0
 30
0.0
 11
48.0
 21
33.875
 31
0.0
 70
1
 71
8
 72
2
 41
1.0
 42
0.0
  1

  3
Standard
100
AcDbAlignedDimension
 13
36.0
 23
42.0
 33
0.0
 14
60.0
 24
42.0
 34
0.0
1001
ACAD
1000
DSTYLE
1002
{
1070
144
1040
1
1002
}
  0
LINE
  5
195
100
AcDbEntity
100
AcDbLine
  8
top
 62
256
370
-1
  6
BYLAYER
 10
32.0
 20
98.75
 30
0.0
 11
32.0000000000000071
 21
63.25
 31
0.0
  0
LINE
  5
196
100
AcDbEntity
100
AcDbLine
  8
top
 62
256
370
-1
  6
BYLAYER
 10
34.0
 20
98.75
 30
0.0
 11
34.0000000000000071
 21
63.25
 31
0.0
  0
LINE
  5
197
100
AcDbEntity
100
AcDbLine
  8
top
 62
256
370
-1
  6
BYLAYER
 10
64.0
 20
98.75
 30
0.0
 11
63.9999999999999929
 21
63.25
 31
0.0
  0
LINE
  5
198
100
AcDbEntity
100
AcDbLine
  8
top
 62
256
370
-1
  6
BYLAYER
 10
62.0
 20
98.75
 30
0.0
 11
61.9999999999999929
 21
63.25
 31
0.0
  0
LINE
  5
199
100
AcDbEntity
100
AcDbLine
  8
top
 62
256
370
-1
  6
BYLAYER
 10
120.0
 20
87.25
 30
0.0
 11
122.0
 21
87.25
 31
0.0
  0
LINE
  5
19A
100
AcDbEntity
100
AcDbLine
  8
top
 62
256
370
-1
  6
BYLAYER
 10
122.0
 20
87.25
 30
0.0
 11
122.0
 21
88.0
 31
0.0
  0
LINE
  5
19B
100
AcDbEntity
100
AcDbLine
  8
top
 62
256
370
-1
  6
BYLAYER
 10
122.0
 20
88.0
 30
0.0
 11
120.0
 21
88.0
 31
0.0
  0
LINE
  5
19C
100
AcDbEntity
100
AcDbLine
  8
top
 62
256
370
-1
  6
BYLAYER
 10
120.0
 20
88.0
 30
0.0
 11
120.0
 21
87.25
 31
0.0
  0
LINE
  5
19D
100
AcDbEntity
100
AcDbLine
  8
top
 62
256
370
-1
  6
BYLAYER
 10
152.0
 20
87.2499999999999858
 30
0.0
 11
150.0
 21
87.2499999999999858
 31
0.0
  0
LINE
  5
19E
100
AcDbEntity
100
AcDbLine
  8
top
 62
256
370
-1
  6
BYLAYER
 10
150.0
 20
87.2499999999999858
 30
0.0
 11
150.0
 21
87.9999999999999858
 31
0.0
  0
LINE
  5
19F
100
AcDbEntity
100
AcDbLine
  8
top
 62
256
370
-1
  6
BYLAYER
 10
150.0
 20
87.9999999999999858
 30
0.0
 11
152.0
 21
88.0
 31
0.0
  0
LINE
  5
1A0
100
AcDbEntity
100
AcDbLine
  8
top
 62
256
370
-1
  6
BYLAYER
 10
152.0
 20
88.0
 30
0.0
 11
152.0
 21
87.2499999999999858
 31
0.0
  0
LINE
  5
1A1
100
AcDbEntity
100
AcDbLine
  8
top
 62
256
370
-1
  6
BYLAYER
 10
32.0
 20
38.75
 30
0.0
 11
32.0000000000000071
 21
3.25
 31
0.0
  0
LINE
  5
1A2
100
AcDbEntity
100
AcDbLine
  8
top
 62
256
370
-1
  6
BYLAYER
 10
34.0
 20
38.75
 30
0.0
 11
34.0000000000000071
 21
3.25
 31
0.0
  0
LINE
  5
1A3
100
AcDbEntity
100
AcDbLine
  8
top
 62
256
370
-1
  6
BYLAYER
 10
64.0
 20
38.75
 30
0.0
 11
63.9999999999999929
 21
3.25
 31
0.0
  0
LINE
  5
1A4
100
AcDbEntity
100
AcDbLine
  8
top
 62
256
370
-1
  6
BYLAYER
 10
62.0
 20
38.75
 30
0.0
 11
61.9999999999999929
 21
3.25
 31
0.0
  0
DIMENSION
  5
1A5
100
AcDbEntity
  8
top
 62
256
370
-1
  6
BYLAYER
100
AcDbDimension
 10
31.9999999999999964
 20
104.0
 30
0.0
 11
36.1527777777777786
 21
105.875
 31
0.0
 70
1
 71
8
 72
2
 41
1.0
 42
0.0
  1

  3
Standard
100
AcDbAlignedDimension
 13
31.9999999999999964
 23
98.75
 33
0.0
 14
34.0
 24
98.75
 34
0.0
1001
ACAD
1000
DSTYLE
1002
{
1070
144
1040
1
1002
}
  0
DIMENSION
  5
1A6
100
AcDbEntity
  8
top
 62
256
370
-1
  6
BYLAYER
100
AcDbDimension
 10
125.0
 20
88.0
 30
0.0
 11
123.125
 21
92.2361111111111143
 31
0.0
 70
1
 71
8
 72
2
 41
1.0
 42
0.0
  1

  3
Standard
100
AcDbAlignedDimension
 13
122.0
 23
88.0
 33
0.0
 14
122.0
 24
87.25
 34
0.0
1001
ACAD
1000
DSTYLE
1002
{
1070
144
1040
1
1002
}
  0
DIMENSION
  5
1A7
100
AcDbEntity
  8
top
 62
256
370
-1
  6
BYLAYER
100
AcDbDimension
 10
150.0
 20
82.5
 30
0.0
 11
154.1527777777777715
 21
84.375
 31
0.0
 70
1
 71
8
 72
2
 41
1.0
 42
0.0
  1

  3
Standard
100
AcDbAlignedDimension
 13
150.0
 23
87.2499999999999858
 33
0.0
 14
152.0
 24
87.2499999999999858
 34
0.0
1001
ACAD
1000
DSTYLE
1002
{
1070
144
1040
1
1002
}
  0
MTEXT
  5
1A8
100
AcDbEntity
100
AcDbMText
  8
top
 62
256
370
-1
  6
BYLAYER
 10
42.5
 20
72.0
 30
0.0
 40
2.0
 41
0.0
 71
1
 72
1
  1
Leaf in storage
  7
textstyle0
 50
0.0
 73
2
 44
1.0
  0
DIMENSION
  5
1A9
100
AcDbEntity
  8
top
 62
256
370
-1
  6
BYLAYER
100
AcDbDimension
 10
0.0000000000000018
 20
48.0000000000000071
 30
0.0
 11
48.0
 21
49.875
 31
0.0
 70
1
 71
8
 72
2
 41
1.0
 42
0.0
  1

  3
Standard
100
AcDbAlignedDimension
 13
0.0
 23
42.0
 33
0.0
 14
96.0
 24
41.9999999999999929
 34
0.0
1001
ACAD
1000
DSTYLE
1002
{
1070
144
1040
1
1002
}
  0
DIMENSION
  5
1AA
100
AcDbEntity
  8
top
 62
256
370
-1
  6
BYLAYER
100
AcDbDimension
 10
12.0
 20
56.0
 30
0.0
 11
48.0
 21
57.875
 31
0.0
 70
1
 71
8
 72
2
 41
1.0
 42
0.0
  1

  3
Standard
100
AcDbAlignedDimension
 13
12.0
 23
60.0
 33
0.0
 14
84.0
 24
60.0
 34
0.0
1001
ACAD
1000
DSTYLE
1002
{
1070
144
1040
1
1002
}
  0
DIMENSION
  5
1AB
100
AcDbEntity
  8
top
 62
256
370
-1
  6
BYLAYER
100
AcDbDimension
 10
98.0
 20
91.0
 30
0.0
 11
96.125
 21
96.0347222222222285
 31
0.0
 70
1
 71
8
 72
2
 41
1.0
 42
0.0
  1

  3
Standard
100
AcDbAlignedDimension
 13
100.0
 23
91.0
 33
0.0
 14
100.0
 24
89.5
 34
0.0
1001
ACAD
1000
DSTYLE
1002
{
1070
144
1040
1
1002
}
  0
DIMENSION
  5
1AC
100
AcDbEntity
  8
top
 62
256
370
-1
  6
BYLAYER
100
AcDbDimension
 10
175.0
 20
91.0
 30
0.0
 11
173.125
 21
75.5
 31
0.0
 70
1
 71
8
 72
2
 41
1.0
 42
0.0
  1

  3
Standard
100
AcDbAlignedDimension
 13
172.0
 23
91.0
 33
0.0
 14
172.0
 24
60.0
 34
0.0
1001
ACAD
1000
DSTYLE
1002
{
1070
144
1040
1
1002
}
  0
ENDSEC
  0
SECTION
  2
OBJECTS
  0
DICTIONARY
  5
C
100
AcDbDictionary
280
0
281
1
  3
ACAD_GROUP
350
D
  3
ACAD_LAYOUT
350
1A
  3
ACAD_MLINESTYLE
350
17
  3
ACAD_PLOTSETTINGS
350
19
  3
ACAD_PLOTSTYLENAME
350
E
  3
AcDbVariableDictionary
350
1AD
  3
QCAD_OBJECTS
350
1AE
  0
DICTIONARY
  5
D
100
AcDbDictionary
280
0
281
1
  0
ACDBDICTIONARYWDFLT
  5
E
100
AcDbDictionary
281
1
  3
Normal
350
F
100
AcDbDictionaryWithDefault
340
F
  0
ACDBPLACEHOLDER
  5
F
  0
DICTIONARY
  5
17
100
AcDbDictionary
280
0
281
1
  3
Standard
350
18
  0
MLINESTYLE
  5
18
100
AcDbMlineStyle
  2
STANDARD
 70
0
  3

 62
256
 51
90.0
 52
90.0
 71
2
 49
0.5
 62
256
  6
BYLAYER
 49
-0.5
 62
256
  6
BYLAYER
  0
DICTIONARY
  5
19
100
AcDbDictionary
280
0
281
1
  0
DICTIONARY
  5
1A
100
AcDbDictionary
281
1
  3
Layout1
350
1E
  3
Layout2
350
26
  3
Model
350
22
  0
LAYOUT
  5
1E
100
AcDbPlotSettings
  1

  2
none_device
  4

  6

 40
0.0
 41
0.0
 42
0.0
 43
0.0
 44
0.0
 45
0.0
 46
0.0
 47
0.0
 48
0.0
 49
0.0
140
0.0
141
0.0
142
1.0
143
1.0
 70
688
 72
0
 73
0
 74
5
  7

 75
16
147
1.0
148
0.0
149
0.0
100
AcDbLayout
  1
Layout1
 70
1
 71
1
 10
0.0
 20
0.0
 11
420.0
 21
297.0
 12
0.0
 22
0.0
 32
0.0
 14
100000000000000000000.0
 24
100000000000000000000.0
 34
100000000000000000000.0
 15
-100000000000000000000.0
 25
-100000000000000000000.0
 35
-100000000000000000000.0
146
0.0
 13
0.0
 23
0.0
 33
0.0
 16
1.0
 26
0.0
 36
0.0
 17
0.0
 27
1.0
 37
0.0
 76
0
330
1B
  0
LAYOUT
  5
22
100
AcDbPlotSettings
  1

  2
none_device
  4

  6

 40
0.0
 41
0.0
 42
0.0
 43
0.0
 44
0.0
 45
0.0
 46
0.0
 47
0.0
 48
0.0
 49
0.0
140
0.0
141
0.0
142
1.0
143
1.0
 70
1712
 72
0
 73
0
 74
0
  7

 75
0
147
1.0
148
0.0
149
0.0
100
AcDbLayout
  1
Model
 70
1
 71
0
 10
0.0
 20
0.0
 11
12.0
 21
9.0
 12
0.0
 22
0.0
 32
0.0
 14
0.0
 24
0.0
 34
0.0
 15
0.0
 25
0.0
 35
0.0
146
0.0
 13
0.0
 23
0.0
 33
0.0
 16
1.0
 26
0.0
 36
0.0
 17
0.0
 27
1.0
 37
0.0
 76
0
330
1F
  0
LAYOUT
  5
26
100
AcDbPlotSettings
  1

  2
none_device
  4

  6

 40
0.0
 41
0.0
 42
0.0
 43
0.0
 44
0.0
 45
0.0
 46
0.0
 47
0.0
 48
0.0
 49
0.0
140
0.0
141
0.0
142
1.0
143
1.0
 70
688
 72
0
 73
0
 74
5
  7

 75
16
147
1.0
148
0.0
149
0.0
100
AcDbLayout
  1
Layout2
 70
1
 71
2
 10
0.0
 20
0.0
 11
12.0
 21
9.0
 12
0.0
 22
0.0
 32
0.0
 14
0.0
 24
0.0
 34
0.0
 15
0.0
 25
0.0
 35
0.0
146
0.0
 13
0.0
 23
0.0
 33
0.0
 16
1.0
 26
0.0
 36
0.0
 17
0.0
 27
1.0
 37
0.0
 76
0
330
23
  0
DICTIONARY
  5
1AD
100
AcDbDictionary
281
1
  3
DIMASSOC
350
1B0
  3
HIDETEXT
350
1AF
  0
DICTIONARYVAR
  5
1AF
100
DictionaryVariables
280
0
  1
2
  0
DICTIONARYVAR
  5
1B0
100
DictionaryVariables
280
0
  1
1
  0
DICTIONARY
  5
1AE
100
AcDbDictionary
281
1
  3
DimensionSettings/AngularFormat
350
1B1
  3
DimensionSettings/AngularPrecision
350
1B2
  3
DimensionSettings/KeepProportions
350
1B3
  3
DimensionSettings/LinearFormat
350
1B4
  3
DimensionSettings/LinearPrecision
350
1B5
  3
Grid/DisplayGrid00
350
1B6
  3
Grid/DisplayGrid01
350
1B7
  3
Grid/DisplayGrid02
350
1B8
  3
Grid/DisplayGrid03
350
1B9
  3
Grid/GridSpacingX00
350
1BA
  3
Grid/GridSpacingX01
350
1BB
  3
Grid/GridSpacingX02
350
1BC
  3
Grid/GridSpacingX03
350
1BD
  3
Grid/GridSpacingY00
350
1BE
  3
Grid/GridSpacingY01
350
1BF
  3
Grid/GridSpacingY02
350
1C0
  3
Grid/GridSpacingY03
350
1C1
  3
Grid/IsometricGrid00
350
1C2
  3
Grid/IsometricGrid01
350
1C3
  3
Grid/IsometricGrid02
350
1C4
  3
Grid/IsometricGrid03
350
1C5
  3
Grid/IsometricProjection00
350
1C6
  3
Grid/IsometricProjection01
350
1C7
  3
Grid/IsometricProjection02
350
1C8
  3
Grid/IsometricProjection03
350
1C9
  3
Grid/MetaGridSpacingX00
350
1CA
  3
Grid/MetaGridSpacingX01
350
1CB
  3
Grid/MetaGridSpacingX02
350
1CC
  3
Grid/MetaGridSpacingX03
350
1CD
  3
Grid/MetaGridSpacingY00
350
1CE
  3
Grid/MetaGridSpacingY01
350
1CF
  3
Grid/MetaGridSpacingY02
350
1D0
  3
Grid/MetaGridSpacingY03
350
1D1
  3
MultiPageSettings/Columns
350
1D2
  3
MultiPageSettings/GlueMarginsBottom
350
1D3
  3
MultiPageSettings/GlueMarginsLeft
350
1D4
  3
MultiPageSettings/GlueMarginsRight
350
1D5
  3
MultiPageSettings/GlueMarginsTop
350
1D6
  3
MultiPageSettings/PrintCropMarks
350
1D7
  3
MultiPageSettings/Rows
350
1D8
  3
PageSettings/OffsetX
350
1D9
  3
PageSettings/OffsetY
350
1DA
  3
PageSettings/PageOrientation
350
1DB
  3
PageSettings/PaperHeight
350
1DC
  3
PageSettings/PaperWidth
350
1DD
  3
PageSettings/Scale
350
1DE
  3
PageSettings/ShowPaperBorders
350
1DF
  3
UnitSettings/PaperUnit
350
1E0
  0
XRECORD
  5
1B1
330
1AE
100
AcDbXrecord
280
1
 90
0
  0
XRECORD
  5
1B2
330
1AE
100
AcDbXrecord
280
1
 90
0
  0
XRECORD
  5
1B3
330
1AE
100
AcDbXrecord
280
1
290
1
  0
XRECORD
  5
1B4
330
1AE
100
AcDbXrecord
280
1
 90
4
  0
XRECORD
  5
1B5
330
1AE
100
AcDbXrecord
280
1
 90
5
  0
XRECORD
  5
1B6
330
1AE
100
AcDbXrecord
280
1
290
1
  0
XRECORD
  5
1B7
330
1AE
100
AcDbXrecord
280
1
290
1
  0
XRECORD
  5
1B8
330
1AE
100
AcDbXrecord
280
1
290
1
  0
XRECORD
  5
1B9
330
1AE
100
AcDbXrecord
280
1
290
1
  0
XRECORD
  5
1BA
330
1AE
100
AcDbXrecord
280
1
1000
auto
  0
XRECORD
  5
1BB
330
1AE
100
AcDbXrecord
280
1
1000
auto
  0
XRECORD
  5
1BC
330
1AE
100
AcDbXrecord
280
1
1000
auto
  0
XRECORD
  5
1BD
330
1AE
100
AcDbXrecord
280
1
1000
auto
  0
XRECORD
  5
1BE
330
1AE
100
AcDbXrecord
280
1
1000
auto
  0
XRECORD
  5
1BF
330
1AE
100
AcDbXrecord
280
1
1000
auto
  0
XRECORD
  5
1C0
330
1AE
100
AcDbXrecord
280
1
1000
auto
  0
XRECORD
  5
1C1
330
1AE
100
AcDbXrecord
280
1
1000
auto
  0
XRECORD
  5
1C2
330
1AE
100
AcDbXrecord
280
1
290
0
  0
XRECORD
  5
1C3
330
1AE
100
AcDbXrecord
280
1
290
0
  0
XRECORD
  5
1C4
330
1AE
100
AcDbXrecord
280
1
290
0
  0
XRECORD
  5
1C5
330
1AE
100
AcDbXrecord
280
1
290
0
  0
XRECORD
  5
1C6
330
1AE
100
AcDbXrecord
280
1
 90
0
  0
XRECORD
  5
1C7
330
1AE
100
AcDbXrecord
280
1
 90
0
  0
XRECORD
  5
1C8
330
1AE
100
AcDbXrecord
280
1
 90
0
  0
XRECORD
  5
1C9
330
1AE
100
AcDbXrecord
280
1
 90
0
  0
XRECORD
  5
1CA
330
1AE
100
AcDbXrecord
280
1
1000
auto
  0
XRECORD
  5
1CB
330
1AE
100
AcDbXrecord
280
1
1000
auto
  0
XRECORD
  5
1CC
330
1AE
100
AcDbXrecord
280
1
1000
auto
  0
XRECORD
  5
1CD
330
1AE
100
AcDbXrecord
280
1
1000
auto
  0
XRECORD
  5
1CE
330
1AE
100
AcDbXrecord
280
1
1000
auto
  0
XRECORD
  5
1CF
330
1AE
100
AcDbXrecord
280
1
1000
auto
  0
XRECORD
  5
1D0
330
1AE
100
AcDbXrecord
280
1
1000
auto
  0
XRECORD
  5
1D1
330
1AE
100
AcDbXrecord
280
1
1000
auto
  0
XRECORD
  5
1D2
330
1AE
100
AcDbXrecord
280
1
 90
1
  0
XRECORD
  5
1D3
330
1AE
100
AcDbXrecord
280
1
 40
10.0
  0
XRECORD
  5
1D4
330
1AE
100
AcDbXrecord
280
1
 40
10.0
  0
XRECORD
  5
1D5
330
1AE
100
AcDbXrecord
280
1
 40
10.0
  0
XRECORD
  5
1D6
330
1AE
100
AcDbXrecord
280
1
 40
10.0
  0
XRECORD
  5
1D7
330
1AE
100
AcDbXrecord
280
1
290
0
  0
XRECORD
  5
1D8
330
1AE
100
AcDbXrecord
280
1
 90
1
  0
XRECORD
  5
1D9
330
1AE
100
AcDbXrecord
280
1
 40
-12.2364827586206939
  0
XRECORD
  5
1DA
330
1AE
100
AcDbXrecord
280
1
 40
-22.9334689655171893
  0
XRECORD
  5
1DB
330
1AE
100
AcDbXrecord
280
1
1000
Landscape
  0
XRECORD
  5
1DC
330
1AE
100
AcDbXrecord
280
1
 40
279.3999999999999773
  0
XRECORD
  5
1DD
330
1AE
100
AcDbXrecord
280
1
 40
215.9000000000000057
  0
XRECORD
  5
1DE
330
1AE
100
AcDbXrecord
280
1
1000
1:18
  0
XRECORD
  5
1DF
330
1AE
100
AcDbXrecord
280
1
290
1
  0
XRECORD
  5
1E0
330
1AE
100
AcDbXrecord
280
1
 90
4
  0
ENDSEC
  0
EOF
