<?xml version="1.0" standalone="no"?>
 <!DOCTYPE svg PUBLIC "-//W3C//DTD SVG 1.1//EN" 
 "http://www.w3.org/Graphics/SVG/1.1/DTD/svg11.dtd"> 
<svg xmlns="http://www.w3.org/2000/svg" version="1.1" 
    width="3.34518cm" height="9.27608cm" viewBox="0 0 13170 36520 ">
<title>SVG Picture created as wifi_adaptor-B.Cu.svg date 2017/09/13 12:38:48 </title>
  <desc>Picture generated by PCBNEW </desc>
<g style="fill:#000000; fill-opacity:1;stroke:#000000; stroke-opacity:1;
stroke-linecap:round; stroke-linejoin:round; "
 transform="translate(0 0) scale(1 1)">
</g>
<g style="fill:#000000; fill-opacity:0.0; 
stroke:#000000; stroke-width:-0.000393701; stroke-opacity:1; 
stroke-linecap:round; stroke-linejoin:round;">
</g>
<g style="fill:#000000; fill-opacity:0.0; 
stroke:#000000; stroke-width:59.0551; stroke-opacity:1; 
stroke-linecap:round; stroke-linejoin:round;">
<path d="M10708 35708
L10708 36496
" />
<path d="M11299 35708
L11299 36496
" />
<path d="M12440 36496
L11299 36496
" />
<path d="M12440 35708
L12440 36496
" />
<path d="M4763 36496
L10708 36496
" />
<path d="M4763 35708
L4763 36496
" />
<path d="M12637.8 35511.8 A196.85 196.85 0.0 0 0 12440.9 35708.7 " />
<path d="M4763.78 35708.7 A196.85 196.85 0.0 0 0 4566.93 35511.8 " />
<path d="M11299.2 35708.7 A295.276 295.276 0.0 0 0 10708.7 35708.7 " />
<path d="M12933.1 27834.6 A295.276 295.276 0.0 0 0 12637.8 27539.4 " />
<path d="M12637.8 35511.8 A295.276 295.276 0.0 0 0 12933.1 35216.5 " />
<path d="M4271.65 35216.5 A295.276 295.276 0.0 0 0 4566.93 35511.8 " />
<path d="M4566.93 5000 A295.276 295.276 0.0 0 0 4271.65 5295.28 " />
<path d="M12933.1 5295.28 A295.276 295.276 0.0 0 0 12637.8 5000 " />
<path d="M12637.8 12086.6 A295.276 295.276 0.0 0 0 12933.1 11791.3 " />
<path d="M6043.31 27244.1 A295.276 295.276 0.0 0 0 6338.58 27539.4 " />
<path d="M6338.58 12086.6 A295.276 295.276 0.0 0 0 6043.31 12381.9 " />
<path d="M12933 35216
L12933 27834
" />
<path d="M6338 27539
L12637 27539
" />
<path d="M6043 12381
L6043 27244
" />
<path d="M12637 12086
L6338 12086
" />
<path d="M4271 35216
L4271 5295
" />
<path d="M12933 5295
L12933 11791
" />
<path d="M4566 5000
L12637 5000
" />
</g>
<g style="fill:#000000; fill-opacity:0.0; 
stroke:#000000; stroke-width:0; stroke-opacity:1; 
stroke-linecap:round; stroke-linejoin:round;">
</g>
<g style="fill:#000000; fill-opacity:1.0; 
stroke:#000000; stroke-width:0; stroke-opacity:1; 
stroke-linecap:round; stroke-linejoin:round;">
<polyline style="fill-rule:evenodd;"
points="12297,27415
12297,28006
12077,28006
12077,27415
12297,27415
" /> 
<polyline style="fill-rule:evenodd;"
points="11987,27415
11987,28006
11767,28006
11767,27415
11987,27415
" /> 
<polyline style="fill-rule:evenodd;"
points="11677,27415
11677,28006
11457,28006
11457,27415
11677,27415
" /> 
<polyline style="fill-rule:evenodd;"
points="11367,27415
11367,28006
11147,28006
11147,27415
11367,27415
" /> 
<polyline style="fill-rule:evenodd;"
points="11057,27415
11057,28006
10837,28006
10837,27415
11057,27415
" /> 
<polyline style="fill-rule:evenodd;"
points="10747,27415
10747,28006
10527,28006
10527,27415
10747,27415
" /> 
<polyline style="fill-rule:evenodd;"
points="10437,27415
10437,28006
10217,28006
10217,27415
10437,27415
" /> 
<polyline style="fill-rule:evenodd;"
points="10127,27415
10127,28006
9907,28006
9907,27415
10127,27415
" /> 
<polyline style="fill-rule:evenodd;"
points="9817,27415
9817,28006
9597,28006
9597,27415
9817,27415
" /> 
<polyline style="fill-rule:evenodd;"
points="9507,27415
9507,28006
9287,28006
9287,27415
9507,27415
" /> 
<polyline style="fill-rule:evenodd;"
points="9197,27415
9197,28006
8977,28006
8977,27415
9197,27415
" /> 
<polyline style="fill-rule:evenodd;"
points="8887,27415
8887,28006
8667,28006
8667,27415
8887,27415
" /> 
<polyline style="fill-rule:evenodd;"
points="7957,27415
7957,28006
7737,28006
7737,27415
7957,27415
" /> 
<polyline style="fill-rule:evenodd;"
points="7647,27415
7647,28006
7427,28006
7427,27415
7647,27415
" /> 
<polyline style="fill-rule:evenodd;"
points="7337,27415
7337,28006
7117,28006
7117,27415
7337,27415
" /> 
<polyline style="fill-rule:evenodd;"
points="7027,27415
7027,28006
6807,28006
6807,27415
7027,27415
" /> 
<polyline style="fill-rule:evenodd;"
points="6717,27415
6717,28006
6497,28006
6497,27415
6717,27415
" /> 
<polyline style="fill-rule:evenodd;"
points="6407,27415
6407,28006
6187,28006
6187,27415
6407,27415
" /> 
</g>
<g style="fill:#000000; fill-opacity:1.0; 
stroke:#000000; stroke-width:500; stroke-opacity:1; 
stroke-linecap:round; stroke-linejoin:round;">
</g>
<g style="fill:#000000; fill-opacity:0.0; 
stroke:#000000; stroke-width:500; stroke-opacity:1; 
stroke-linecap:round; stroke-linejoin:round;">
<path d="M7027 30453
L7027 30453
" />
<path d="M10627 30453
L10627 30453
" />
</g>
<g style="fill:#000000; fill-opacity:1.0; 
stroke:#000000; stroke-width:0; stroke-opacity:1; 
stroke-linecap:round; stroke-linejoin:round;">
<circle cx="7927.56" cy="10624.4" r="1000" /> 
</g>
<g style="fill:#000000; fill-opacity:1.0; 
stroke:#000000; stroke-width:39.3701; stroke-opacity:1; 
stroke-linecap:round; stroke-linejoin:round;">
</g>
<g style="fill:#000000; fill-opacity:1.0; 
stroke:#000000; stroke-width:0; stroke-opacity:1; 
stroke-linecap:round; stroke-linejoin:round;">
<polyline style="fill-rule:evenodd;"
points="5009,36417
5009,35787
5109,35787
5109,36417
5009,36417
" /> 
<polyline style="fill-rule:evenodd;"
points="5205,36417
5205,35787
5305,35787
5305,36417
5205,36417
" /> 
<polyline style="fill-rule:evenodd;"
points="5402,36417
5402,35787
5502,35787
5502,36417
5402,36417
" /> 
<polyline style="fill-rule:evenodd;"
points="5599,36417
5599,35787
5699,35787
5699,36417
5599,36417
" /> 
<polyline style="fill-rule:evenodd;"
points="5796,36417
5796,35787
5896,35787
5896,36417
5796,36417
" /> 
<polyline style="fill-rule:evenodd;"
points="5993,36417
5993,35787
6093,35787
6093,36417
5993,36417
" /> 
<polyline style="fill-rule:evenodd;"
points="6190,36417
6190,35787
6290,35787
6290,36417
6190,36417
" /> 
<polyline style="fill-rule:evenodd;"
points="6387,36417
6387,35787
6487,35787
6487,36417
6387,36417
" /> 
<polyline style="fill-rule:evenodd;"
points="6583,36417
6583,35787
6683,35787
6683,36417
6583,36417
" /> 
<polyline style="fill-rule:evenodd;"
points="6780,36417
6780,35787
6880,35787
6880,36417
6780,36417
" /> 
<polyline style="fill-rule:evenodd;"
points="6977,36417
6977,35787
7077,35787
7077,36417
6977,36417
" /> 
<polyline style="fill-rule:evenodd;"
points="7174,36417
7174,35787
7274,35787
7274,36417
7174,36417
" /> 
<polyline style="fill-rule:evenodd;"
points="7371,36417
7371,35787
7471,35787
7471,36417
7371,36417
" /> 
<polyline style="fill-rule:evenodd;"
points="7568,36417
7568,35787
7668,35787
7668,36417
7568,36417
" /> 
<polyline style="fill-rule:evenodd;"
points="7764,36417
7764,35787
7864,35787
7864,36417
7764,36417
" /> 
<polyline style="fill-rule:evenodd;"
points="7961,36417
7961,35787
8061,35787
8061,36417
7961,36417
" /> 
<polyline style="fill-rule:evenodd;"
points="8158,36417
8158,35787
8258,35787
8258,36417
8158,36417
" /> 
<polyline style="fill-rule:evenodd;"
points="8355,36417
8355,35787
8455,35787
8455,36417
8355,36417
" /> 
<polyline style="fill-rule:evenodd;"
points="8552,36417
8552,35787
8652,35787
8652,36417
8552,36417
" /> 
<polyline style="fill-rule:evenodd;"
points="8749,36417
8749,35787
8849,35787
8849,36417
8749,36417
" /> 
<polyline style="fill-rule:evenodd;"
points="8946,36417
8946,35787
9046,35787
9046,36417
8946,36417
" /> 
<polyline style="fill-rule:evenodd;"
points="9142,36417
9142,35787
9242,35787
9242,36417
9142,36417
" /> 
<polyline style="fill-rule:evenodd;"
points="9339,36417
9339,35787
9439,35787
9439,36417
9339,36417
" /> 
<polyline style="fill-rule:evenodd;"
points="9536,36417
9536,35787
9636,35787
9636,36417
9536,36417
" /> 
<polyline style="fill-rule:evenodd;"
points="9733,36417
9733,35787
9833,35787
9833,36417
9733,36417
" /> 
<polyline style="fill-rule:evenodd;"
points="9930,36417
9930,35787
10030,35787
10030,36417
9930,36417
" /> 
<polyline style="fill-rule:evenodd;"
points="10127,36417
10127,35787
10227,35787
10227,36417
10127,36417
" /> 
<polyline style="fill-rule:evenodd;"
points="10324,36417
10324,35787
10424,35787
10424,36417
10324,36417
" /> 
<polyline style="fill-rule:evenodd;"
points="10520,36417
10520,35787
10620,35787
10620,36417
10520,36417
" /> 
<polyline style="fill-rule:evenodd;"
points="11505,36417
11505,35787
11605,35787
11605,36417
11505,36417
" /> 
<polyline style="fill-rule:evenodd;"
points="11701,36417
11701,35787
11801,35787
11801,36417
11701,36417
" /> 
<polyline style="fill-rule:evenodd;"
points="11898,36417
11898,35787
11998,35787
11998,36417
11898,36417
" /> 
<polyline style="fill-rule:evenodd;"
points="12095,36417
12095,35787
12195,35787
12195,36417
12095,36417
" /> 
<circle cx="8602.36" cy="5000" r="1250" /> 
</g>
<g style="fill:#000000; fill-opacity:1.0; 
stroke:#000000; stroke-width:39.3701; stroke-opacity:1; 
stroke-linecap:round; stroke-linejoin:round;">
</g>
<g style="fill:#000000; fill-opacity:1.0; 
stroke:#000000; stroke-width:0; stroke-opacity:1; 
stroke-linecap:round; stroke-linejoin:round;">
<circle cx="6271.65" cy="34746.1" r="135" /> 
</g>
<g style="fill:#000000; fill-opacity:1.0; 
stroke:#000000; stroke-width:39.3701; stroke-opacity:1; 
stroke-linecap:round; stroke-linejoin:round;">
</g>
<g style="fill:#000000; fill-opacity:1.0; 
stroke:#000000; stroke-width:0; stroke-opacity:1; 
stroke-linecap:round; stroke-linejoin:round;">
<circle cx="6271.65" cy="35246.1" r="135" /> 
</g>
<g style="fill:#000000; fill-opacity:1.0; 
stroke:#000000; stroke-width:39.3701; stroke-opacity:1; 
stroke-linecap:round; stroke-linejoin:round;">
</g>
<g style="fill:#000000; fill-opacity:1.0; 
stroke:#000000; stroke-width:0; stroke-opacity:1; 
stroke-linecap:round; stroke-linejoin:round;">
<circle cx="12271.7" cy="28746.1" r="135" /> 
</g>
<g style="fill:#000000; fill-opacity:1.0; 
stroke:#000000; stroke-width:39.3701; stroke-opacity:1; 
stroke-linecap:round; stroke-linejoin:round;">
</g>
<g style="fill:#000000; fill-opacity:1.0; 
stroke:#000000; stroke-width:0; stroke-opacity:1; 
stroke-linecap:round; stroke-linejoin:round;">
<circle cx="6271.65" cy="28746.1" r="135" /> 
</g>
<g style="fill:#000000; fill-opacity:1.0; 
stroke:#000000; stroke-width:39.3701; stroke-opacity:1; 
stroke-linecap:round; stroke-linejoin:round;">
</g>
<g style="fill:#000000; fill-opacity:1.0; 
stroke:#000000; stroke-width:0; stroke-opacity:1; 
stroke-linecap:round; stroke-linejoin:round;">
<circle cx="9771.65" cy="29246.1" r="135" /> 
</g>
<g style="fill:#000000; fill-opacity:1.0; 
stroke:#000000; stroke-width:39.3701; stroke-opacity:1; 
stroke-linecap:round; stroke-linejoin:round;">
</g>
<g style="fill:#000000; fill-opacity:1.0; 
stroke:#000000; stroke-width:0; stroke-opacity:1; 
stroke-linecap:round; stroke-linejoin:round;">
<circle cx="8271.65" cy="27996.1" r="135" /> 
</g>
<g style="fill:#000000; fill-opacity:1.0; 
stroke:#000000; stroke-width:39.3701; stroke-opacity:1; 
stroke-linecap:round; stroke-linejoin:round;">
</g>
<g style="fill:#000000; fill-opacity:1.0; 
stroke:#000000; stroke-width:0; stroke-opacity:1; 
stroke-linecap:round; stroke-linejoin:round;">
<circle cx="11521.7" cy="30496.1" r="135" /> 
</g>
<g style="fill:#000000; fill-opacity:1.0; 
stroke:#000000; stroke-width:39.3701; stroke-opacity:1; 
stroke-linecap:round; stroke-linejoin:round;">
</g>
<g style="fill:#000000; fill-opacity:1.0; 
stroke:#000000; stroke-width:0; stroke-opacity:1; 
stroke-linecap:round; stroke-linejoin:round;">
<circle cx="8771.65" cy="33996.1" r="135" /> 
</g>
<g style="fill:#000000; fill-opacity:1.0; 
stroke:#000000; stroke-width:39.3701; stroke-opacity:1; 
stroke-linecap:round; stroke-linejoin:round;">
</g>
<g style="fill:#000000; fill-opacity:1.0; 
stroke:#000000; stroke-width:0; stroke-opacity:1; 
stroke-linecap:round; stroke-linejoin:round;">
<circle cx="9771.65" cy="34246.1" r="135" /> 
</g>
<g style="fill:#000000; fill-opacity:1.0; 
stroke:#000000; stroke-width:39.3701; stroke-opacity:1; 
stroke-linecap:round; stroke-linejoin:round;">
</g>
<g style="fill:#000000; fill-opacity:1.0; 
stroke:#000000; stroke-width:0; stroke-opacity:1; 
stroke-linecap:round; stroke-linejoin:round;">
<circle cx="6771.65" cy="34496.1" r="135" /> 
</g>
<g style="fill:#000000; fill-opacity:1.0; 
stroke:#000000; stroke-width:39.3701; stroke-opacity:1; 
stroke-linecap:round; stroke-linejoin:round;">
</g>
<g style="fill:#000000; fill-opacity:1.0; 
stroke:#000000; stroke-width:0; stroke-opacity:1; 
stroke-linecap:round; stroke-linejoin:round;">
<circle cx="5021.65" cy="34746.1" r="135" /> 
</g>
<g style="fill:#000000; fill-opacity:1.0; 
stroke:#000000; stroke-width:39.3701; stroke-opacity:1; 
stroke-linecap:round; stroke-linejoin:round;">
</g>
<g style="fill:#000000; fill-opacity:1.0; 
stroke:#000000; stroke-width:0; stroke-opacity:1; 
stroke-linecap:round; stroke-linejoin:round;">
<circle cx="11271.7" cy="32746.1" r="135" /> 
</g>
<g style="fill:#000000; fill-opacity:1.0; 
stroke:#000000; stroke-width:39.3701; stroke-opacity:1; 
stroke-linecap:round; stroke-linejoin:round;">
</g>
<g style="fill:#000000; fill-opacity:1.0; 
stroke:#000000; stroke-width:0; stroke-opacity:1; 
stroke-linecap:round; stroke-linejoin:round;">
<circle cx="9521.65" cy="32746.1" r="135" /> 
</g>
<g style="fill:#000000; fill-opacity:1.0; 
stroke:#000000; stroke-width:39.3701; stroke-opacity:1; 
stroke-linecap:round; stroke-linejoin:round;">
</g>
<g style="fill:#000000; fill-opacity:1.0; 
stroke:#000000; stroke-width:0; stroke-opacity:1; 
stroke-linecap:round; stroke-linejoin:round;">
<circle cx="11021.7" cy="33246.1" r="135" /> 
</g>
<g style="fill:#000000; fill-opacity:1.0; 
stroke:#000000; stroke-width:39.3701; stroke-opacity:1; 
stroke-linecap:round; stroke-linejoin:round;">
</g>
<g style="fill:#000000; fill-opacity:1.0; 
stroke:#000000; stroke-width:0; stroke-opacity:1; 
stroke-linecap:round; stroke-linejoin:round;">
<circle cx="9271.65" cy="33246.1" r="135" /> 
</g>
<g style="fill:#000000; fill-opacity:1.0; 
stroke:#000000; stroke-width:39.3701; stroke-opacity:1; 
stroke-linecap:round; stroke-linejoin:round;">
</g>
<g style="fill:#000000; fill-opacity:1.0; 
stroke:#000000; stroke-width:0; stroke-opacity:1; 
stroke-linecap:round; stroke-linejoin:round;">
<circle cx="9271.65" cy="28996.1" r="135" /> 
</g>
<g style="fill:#000000; fill-opacity:1.0; 
stroke:#000000; stroke-width:39.3701; stroke-opacity:1; 
stroke-linecap:round; stroke-linejoin:round;">
</g>
<g style="fill:#000000; fill-opacity:1.0; 
stroke:#000000; stroke-width:0; stroke-opacity:1; 
stroke-linecap:round; stroke-linejoin:round;">
<circle cx="8521.65" cy="28996.1" r="135" /> 
</g>
<g style="fill:#000000; fill-opacity:1.0; 
stroke:#000000; stroke-width:39.3701; stroke-opacity:1; 
stroke-linecap:round; stroke-linejoin:round;">
</g>
<g style="fill:#000000; fill-opacity:1.0; 
stroke:#000000; stroke-width:0; stroke-opacity:1; 
stroke-linecap:round; stroke-linejoin:round;">
<circle cx="9021.65" cy="28496.1" r="135" /> 
</g>
<g style="fill:#000000; fill-opacity:1.0; 
stroke:#000000; stroke-width:39.3701; stroke-opacity:1; 
stroke-linecap:round; stroke-linejoin:round;">
</g>
<g style="fill:#000000; fill-opacity:1.0; 
stroke:#000000; stroke-width:0; stroke-opacity:1; 
stroke-linecap:round; stroke-linejoin:round;">
<circle cx="8271.65" cy="28496.1" r="135" /> 
</g>
<g style="fill:#000000; fill-opacity:1.0; 
stroke:#000000; stroke-width:39.3701; stroke-opacity:1; 
stroke-linecap:round; stroke-linejoin:round;">
</g>
<g style="fill:#000000; fill-opacity:1.0; 
stroke:#000000; stroke-width:0; stroke-opacity:1; 
stroke-linecap:round; stroke-linejoin:round;">
<circle cx="10521.7" cy="35246.1" r="135" /> 
</g>
<g style="fill:#000000; fill-opacity:1.0; 
stroke:#000000; stroke-width:39.3701; stroke-opacity:1; 
stroke-linecap:round; stroke-linejoin:round;">
</g>
<g style="fill:#000000; fill-opacity:1.0; 
stroke:#000000; stroke-width:0; stroke-opacity:1; 
stroke-linecap:round; stroke-linejoin:round;">
<circle cx="10521.7" cy="33746.1" r="135" /> 
</g>
<g style="fill:#000000; fill-opacity:1.0; 
stroke:#000000; stroke-width:39.3701; stroke-opacity:1; 
stroke-linecap:round; stroke-linejoin:round;">
</g>
<g style="fill:#000000; fill-opacity:1.0; 
stroke:#000000; stroke-width:0; stroke-opacity:1; 
stroke-linecap:round; stroke-linejoin:round;">
<circle cx="8021.65" cy="33746.1" r="135" /> 
</g>
<g style="fill:#000000; fill-opacity:1.0; 
stroke:#000000; stroke-width:39.3701; stroke-opacity:1; 
stroke-linecap:round; stroke-linejoin:round;">
</g>
<g style="fill:#000000; fill-opacity:1.0; 
stroke:#000000; stroke-width:0; stroke-opacity:1; 
stroke-linecap:round; stroke-linejoin:round;">
<circle cx="7771.65" cy="33996.1" r="135" /> 
</g>
<g style="fill:#000000; fill-opacity:1.0; 
stroke:#000000; stroke-width:39.3701; stroke-opacity:1; 
stroke-linecap:round; stroke-linejoin:round;">
</g>
<g style="fill:#000000; fill-opacity:1.0; 
stroke:#000000; stroke-width:0; stroke-opacity:1; 
stroke-linecap:round; stroke-linejoin:round;">
<circle cx="7521.65" cy="32246.1" r="135" /> 
</g>
<g style="fill:#000000; fill-opacity:1.0; 
stroke:#000000; stroke-width:39.3701; stroke-opacity:1; 
stroke-linecap:round; stroke-linejoin:round;">
</g>
<g style="fill:#000000; fill-opacity:1.0; 
stroke:#000000; stroke-width:0; stroke-opacity:1; 
stroke-linecap:round; stroke-linejoin:round;">
<circle cx="10771.7" cy="32246.1" r="135" /> 
</g>
<g style="fill:#000000; fill-opacity:1.0; 
stroke:#000000; stroke-width:39.3701; stroke-opacity:1; 
stroke-linecap:round; stroke-linejoin:round;">
</g>
<g style="fill:#000000; fill-opacity:1.0; 
stroke:#000000; stroke-width:0; stroke-opacity:1; 
stroke-linecap:round; stroke-linejoin:round;">
<circle cx="10771.7" cy="34496.1" r="135" /> 
</g>
<g style="fill:#000000; fill-opacity:1.0; 
stroke:#000000; stroke-width:39.3701; stroke-opacity:1; 
stroke-linecap:round; stroke-linejoin:round;">
</g>
<g style="fill:#000000; fill-opacity:1.0; 
stroke:#000000; stroke-width:0; stroke-opacity:1; 
stroke-linecap:round; stroke-linejoin:round;">
<circle cx="5271.65" cy="29496.1" r="135" /> 
</g>
<g style="fill:#000000; fill-opacity:1.0; 
stroke:#000000; stroke-width:39.3701; stroke-opacity:1; 
stroke-linecap:round; stroke-linejoin:round;">
</g>
<g style="fill:#000000; fill-opacity:1.0; 
stroke:#000000; stroke-width:0; stroke-opacity:1; 
stroke-linecap:round; stroke-linejoin:round;">
<circle cx="7021.65" cy="29496.1" r="135" /> 
</g>
<g style="fill:#000000; fill-opacity:1.0; 
stroke:#000000; stroke-width:39.3701; stroke-opacity:1; 
stroke-linecap:round; stroke-linejoin:round;">
</g>
<g style="fill:#000000; fill-opacity:1.0; 
stroke:#000000; stroke-width:0; stroke-opacity:1; 
stroke-linecap:round; stroke-linejoin:round;">
<circle cx="5255.9" cy="29980.3" r="135" /> 
</g>
<g style="fill:#000000; fill-opacity:1.0; 
stroke:#000000; stroke-width:39.3701; stroke-opacity:1; 
stroke-linecap:round; stroke-linejoin:round;">
</g>
<g style="fill:#000000; fill-opacity:1.0; 
stroke:#000000; stroke-width:0; stroke-opacity:1; 
stroke-linecap:round; stroke-linejoin:round;">
<circle cx="6771.65" cy="29996.1" r="135" /> 
</g>
<g style="fill:#000000; fill-opacity:1.0; 
stroke:#000000; stroke-width:39.3701; stroke-opacity:1; 
stroke-linecap:round; stroke-linejoin:round;">
</g>
<g style="fill:#000000; fill-opacity:1.0; 
stroke:#000000; stroke-width:0; stroke-opacity:1; 
stroke-linecap:round; stroke-linejoin:round;">
<circle cx="5771.65" cy="35246.1" r="135" /> 
</g>
<g style="fill:#000000; fill-opacity:1.0; 
stroke:#000000; stroke-width:39.3701; stroke-opacity:1; 
stroke-linecap:round; stroke-linejoin:round;">
</g>
<g style="fill:#000000; fill-opacity:1.0; 
stroke:#000000; stroke-width:0; stroke-opacity:1; 
stroke-linecap:round; stroke-linejoin:round;">
<circle cx="5771.65" cy="32996.1" r="135" /> 
</g>
<g style="fill:#000000; fill-opacity:1.0; 
stroke:#000000; stroke-width:39.3701; stroke-opacity:1; 
stroke-linecap:round; stroke-linejoin:round;">
</g>
<g style="fill:#000000; fill-opacity:1.0; 
stroke:#000000; stroke-width:0; stroke-opacity:1; 
stroke-linecap:round; stroke-linejoin:round;">
<circle cx="11771.7" cy="32996.1" r="135" /> 
</g>
<g style="fill:#000000; fill-opacity:1.0; 
stroke:#000000; stroke-width:39.3701; stroke-opacity:1; 
stroke-linecap:round; stroke-linejoin:round;">
</g>
<g style="fill:#000000; fill-opacity:1.0; 
stroke:#000000; stroke-width:70; stroke-opacity:1; 
stroke-linecap:round; stroke-linejoin:round;">
</g>
<g style="fill:#000000; fill-opacity:0.0; 
stroke:#000000; stroke-width:70; stroke-opacity:1; 
stroke-linecap:round; stroke-linejoin:round;">
<path d="M5255 36102
L5255 35511
" />
<path d="M5255 35511
L5271 35496
" />
<path d="M5059 36102
L5059 35708
" />
<path d="M5521 34746
L6271 34746
" />
<path d="M5271 34996
L5521 34746
" />
<path d="M5271 35496
L5271 34996
" />
<path d="M5059 35708
L5271 35496
" />
<path d="M6043 36102
L6043 35474
" />
<path d="M6043 35474
L6271 35246
" />
<path d="M6633 36102
L6633 35608
" />
<path d="M6633 35608
L6271 35246
" />
<path d="M6437 36102
L6437 35411
" />
<path d="M6437 35411
L6271 35246
" />
<path d="M6240 35277
L6240 36102
" />
<path d="M6271 35246
L6240 35277
" />
<path d="M6271 28746
L12271 28746
" />
<path d="M8602 5000
L8602 6665
" />
<path d="M8602 6665
L8521 6746
" />
<path d="M7027 30453
L10627 30453
" />
<path d="M9521 32746
L11271 32746
" />
<path d="M9271 33246
L11021 33246
" />
<path d="M8521 28996
L9271 28996
" />
<path d="M8271 28496
L9021 28496
" />
<path d="M10177 35590
L10177 36102
" />
<path d="M10521 35246
L10177 35590
" />
<path d="M8021 33746
L10521 33746
" />
<path d="M7771 33996
L8295 33996
" />
<path d="M8295 33996
L9783 35484
" />
<path d="M9783 35484
L9783 36102
" />
<path d="M10021 35246
L10771 34496
" />
<path d="M10771 32246
L7521 32246
" />
<path d="M10021 35746
L9980 35787
" />
<path d="M10021 35246
L10021 35746
" />
<path d="M9980 35787
L9980 36102
" />
<path d="M6521 29488
L5279 29488
" />
<path d="M5279 29488
L5271 29496
" />
<path d="M6521 29488
L7013 29488
" />
<path d="M7013 29488
L7021 29496
" />
<path d="M5271 29996
L6771 29996
" />
<path d="M5255 29980
L5271 29996
" />
<path d="M5846 35320
L5846 36102
" />
<path d="M5771 35246
L5846 35320
" />
<path d="M11771 32996
L5771 32996
" />
</g>
<g style="fill:#000000; fill-opacity:1.0; 
stroke:#000000; stroke-width:100; stroke-opacity:1; 
stroke-linecap:round; stroke-linejoin:round;">
<polyline style="fill-rule:evenodd;"
points="12680,5191
12717,5215
12741,5252
12753,5312
12753,11773
12741,11834
12717,11870
12680,11895
12620,11907
6338,11907
6321,11910
6303,11910
6190,11933
6190,11933
6163,11944
6125,11959
6125,11959
6030,12023
6005,12048
5980,12073
5916,12169
5898,12213
5889,12233
5867,12346
5867,12364
5863,12381
5863,27244
5867,27261
5867,27279
5889,27392
5889,27392
5916,27456
5980,27552
6005,27577
6030,27602
6034,27605
6034,28006
6045,28061
6077,28112
6128,28147
6187,28159
6407,28159
6454,28150
6497,28159
6717,28159
6764,28150
6807,28159
7027,28159
7074,28150
7117,28159
7337,28159
7384,28150
7427,28159
7647,28159
7694,28150
7737,28159
7957,28159
8013,28148
8064,28115
8098,28065
8110,28006
8110,27718
8417,27718
8417,27761
8480,27761
8417,27823
8417,28056
8455,28147
8525,28218
8617,28256
8665,28256
8727,28193
8727,27761
8719,27761
8719,27718
8824,27718
8824,28006
8827,28021
8827,28193
8879,28246
8860,28254
8803,28311
8489,28311
8433,28254
8328,28211
8215,28211
8110,28254
8030,28334
7986,28439
7986,28552
7990,28561
6489,28561
6433,28504
6328,28461
6215,28461
6110,28504
6030,28584
5986,28689
5986,28802
6029,28907
6110,28987
6214,29031
6328,29031
6432,28987
6489,28931
8240,28931
8236,28939
8236,29052
8279,29157
8360,29237
8464,29281
8578,29281
8682,29237
8739,29181
9053,29181
9110,29237
9214,29281
9328,29281
9432,29237
9513,29157
9556,29053
9556,28939
9553,28931
12053,28931
12110,28987
12214,29031
12328,29031
12432,28987
12513,28907
12556,28803
12556,28689
12513,28584
12433,28504
12328,28461
12215,28461
12110,28504
12053,28561
9303,28561
9306,28553
9306,28439
9263,28334
9183,28254
9078,28211
9036,28211
9088,28159
9197,28159
9244,28150
9287,28159
9396,28159
9455,28218
9547,28256
9595,28256
9657,28193
9657,28020
9660,28006
9660,27718
9754,27718
9754,28006
9757,28021
9757,28193
9820,28256
9867,28256
9959,28218
10018,28159
10127,28159
10174,28150
10217,28159
10326,28159
10385,28218
10477,28256
10525,28256
10587,28193
10587,28020
10590,28006
10590,27718
10684,27718
10684,28006
10687,28021
10687,28193
10750,28256
10797,28256
10889,28218
10948,28159
11057,28159
11104,28150
11147,28159
11256,28159
11315,28218
11407,28256
11455,28256
11517,28193
11517,28020
11520,28006
11520,27718
11614,27718
11614,28006
11617,28021
11617,28193
11680,28256
11727,28256
11819,28218
11878,28159
11987,28159
12034,28150
12077,28159
12297,28159
12353,28148
12404,28115
12438,28065
12450,28006
12450,27718
12620,27718
12680,27730
12717,27755
12741,27791
12753,27852
12753,35198
12741,35259
12717,35295
12680,35320
12602,35335
12602,35335
12527,35350
12527,35350
12473,35372
12464,35376
12462,35377
12398,35420
12372,35446
12349,35469
12306,35533
12279,35598
12279,35598
12268,35655
12255,35646
12195,35634
12095,35634
12045,35643
11998,35634
11898,35634
11848,35643
11801,35634
11701,35634
11651,35643
11605,35634
11505,35634
11468,35641
11452,35560
11426,35495
11426,35495
11361,35400
11337,35375
11312,35350
11216,35286
11151,35259
11151,35259
11038,35237
10968,35237
10968,35237
10855,35259
10855,35259
10845,35264
10806,35280
10806,35189
10763,35084
10683,35004
10578,34961
10568,34961
10748,34781
10828,34781
10932,34737
11013,34657
11056,34553
11056,34439
11013,34334
10933,34254
10828,34211
10715,34211
10610,34254
10530,34334
10486,34439
10486,34519
9890,35115
9890,35115
9850,35175
9836,35246
9836,35275
8491,33931
10303,33931
10360,33987
10464,34031
10578,34031
10682,33987
10763,33907
10806,33803
10806,33689
10763,33584
10683,33504
10578,33461
10465,33461
10360,33504
10303,33561
8239,33561
8183,33504
8078,33461
7965,33461
7860,33504
7780,33584
7736,33689
7736,33711
7715,33711
7610,33754
7530,33834
7486,33939
7486,34052
7529,34157
7610,34237
7714,34281
7828,34281
7932,34237
7989,34181
8218,34181
9598,35560
9598,35634
9536,35634
9486,35643
9439,35634
9339,35634
9289,35643
9242,35634
9142,35634
9092,35643
9046,35634
8946,35634
8895,35643
8849,35634
8749,35634
8699,35643
8652,35634
8552,35634
8502,35643
8455,35634
8355,35634
8305,35643
8258,35634
8158,35634
8108,35643
8061,35634
7961,35634
7911,35643
7864,35634
7764,35634
7714,35643
7668,35634
7568,35634
7517,35643
7471,35634
7371,35634
7321,35643
7274,35634
7174,35634
7124,35643
7077,35634
6977,35634
6927,35643
6880,35634
6818,35634
6818,35608
6804,35537
6802,35533
6764,35477
6567,35280
6567,35280
6556,35269
6556,35189
6513,35084
6433,35004
6412,34996
6432,34987
6513,34907
6556,34803
6556,34689
6513,34584
6433,34504
6328,34461
6215,34461
6110,34504
6053,34561
5521,34561
5450,34575
5390,34615
5140,34865
5100,34925
5086,34996
5086,35419
4928,35577
4920,35588
4898,35533
4855,35469
4822,35436
4805,35420
4742,35377
4740,35376
4730,35372
4677,35350
4677,35350
4601,35335
4523,35320
4487,35295
4463,35259
4451,35198
4451,33052
5486,33052
5529,33157
5610,33237
5714,33281
5828,33281
5932,33237
5989,33181
8990,33181
8986,33189
8986,33302
9029,33407
9110,33487
9214,33531
9328,33531
9432,33487
9489,33431
10803,33431
10860,33487
10964,33531
11078,33531
11182,33487
11263,33407
11306,33303
11306,33189
11303,33181
11553,33181
11610,33237
11714,33281
11828,33281
11932,33237
12013,33157
12056,33053
12056,32939
12013,32834
11933,32754
11828,32711
11715,32711
11610,32754
11553,32811
11553,32811
11556,32803
11556,32689
11513,32584
11433,32504
11328,32461
11215,32461
11110,32504
11053,32561
9739,32561
9683,32504
9578,32461
9465,32461
9360,32504
9280,32584
9236,32689
9236,32802
9240,32811
5989,32811
5933,32754
5828,32711
5715,32711
5610,32754
5530,32834
5486,32939
5486,33052
4451,33052
4451,32302
7236,32302
7279,32407
7360,32487
7464,32531
7578,32531
7682,32487
7739,32431
10553,32431
10610,32487
10714,32531
10828,32531
10932,32487
11013,32407
11056,32303
11056,32189
11013,32084
10933,32004
10828,31961
10715,31961
10610,32004
10553,32061
7739,32061
7683,32004
7578,31961
7465,31961
7360,32004
7280,32084
7236,32189
7236,32302
4451,32302
4451,30580
6544,30580
6595,30705
6724,30851
6900,30937
6977,30888
6977,30503
7077,30503
7077,30888
7154,30937
7330,30851
7459,30705
7511,30580
10144,30580
10195,30705
10324,30851
10500,30937
10577,30888
10577,30503
10677,30503
10677,30888
10754,30937
10930,30851
11059,30705
11111,30580
11062,30503
10677,30503
10577,30503
10192,30503
10144,30580
7511,30580
7462,30503
7077,30503
6977,30503
6592,30503
6544,30580
4451,30580
4451,30036
4970,30036
5014,30141
5094,30221
5198,30265
5312,30265
5417,30222
5458,30181
6553,30181
6589,30216
6544,30326
6592,30403
6977,30403
6977,30395
7077,30395
7077,30403
7462,30403
7511,30326
10144,30326
10192,30403
10577,30403
10577,30018
10677,30018
10677,30403
11062,30403
11111,30326
11059,30201
10930,30055
10754,29969
10677,30018
10577,30018
10500,29969
10324,30055
10195,30201
10144,30326
7511,30326
7459,30201
7330,30055
7154,29969
7077,30018
7077,29953
7056,29953
7056,29939
7013,29834
6956,29777
6964,29781
7078,29781
7182,29737
7263,29657
7306,29553
7306,29439
7263,29334
7183,29254
7078,29211
6965,29211
6860,29254
6811,29303
5481,29303
5433,29254
5328,29211
5215,29211
5110,29254
5030,29334
4986,29439
4986,29552
5029,29657
5106,29733
5094,29738
5014,29818
4970,29923
4970,30036
4451,30036
4451,5312
4463,5252
4487,5215
4523,5191
4584,5179
12620,5179
12680,5191
" /> 
</g>
<g style="fill:#FFFFFF; fill-opacity:1.0; 
stroke:#FFFFFF; stroke-width:100; stroke-opacity:1; 
stroke-linecap:round; stroke-linejoin:round;">
</g>
<g style="fill:#FFFFFF; fill-opacity:1.0; 
stroke:#FFFFFF; stroke-width:0; stroke-opacity:1; 
stroke-linecap:round; stroke-linejoin:round;">
<circle cx="6271.65" cy="34746.1" r="70" /> 
</g>
<g style="fill:#FFFFFF; fill-opacity:1.0; 
stroke:#FFFFFF; stroke-width:39.3701; stroke-opacity:1; 
stroke-linecap:round; stroke-linejoin:round;">
</g>
<g style="fill:#FFFFFF; fill-opacity:1.0; 
stroke:#FFFFFF; stroke-width:0; stroke-opacity:1; 
stroke-linecap:round; stroke-linejoin:round;">
<circle cx="6271.65" cy="35246.1" r="70" /> 
</g>
<g style="fill:#FFFFFF; fill-opacity:1.0; 
stroke:#FFFFFF; stroke-width:39.3701; stroke-opacity:1; 
stroke-linecap:round; stroke-linejoin:round;">
</g>
<g style="fill:#FFFFFF; fill-opacity:1.0; 
stroke:#FFFFFF; stroke-width:0; stroke-opacity:1; 
stroke-linecap:round; stroke-linejoin:round;">
<circle cx="12271.7" cy="28746.1" r="70" /> 
</g>
<g style="fill:#FFFFFF; fill-opacity:1.0; 
stroke:#FFFFFF; stroke-width:39.3701; stroke-opacity:1; 
stroke-linecap:round; stroke-linejoin:round;">
</g>
<g style="fill:#FFFFFF; fill-opacity:1.0; 
stroke:#FFFFFF; stroke-width:0; stroke-opacity:1; 
stroke-linecap:round; stroke-linejoin:round;">
<circle cx="6271.65" cy="28746.1" r="70" /> 
</g>
<g style="fill:#FFFFFF; fill-opacity:1.0; 
stroke:#FFFFFF; stroke-width:39.3701; stroke-opacity:1; 
stroke-linecap:round; stroke-linejoin:round;">
</g>
<g style="fill:#FFFFFF; fill-opacity:1.0; 
stroke:#FFFFFF; stroke-width:0; stroke-opacity:1; 
stroke-linecap:round; stroke-linejoin:round;">
<circle cx="9771.65" cy="29246.1" r="70" /> 
</g>
<g style="fill:#FFFFFF; fill-opacity:1.0; 
stroke:#FFFFFF; stroke-width:39.3701; stroke-opacity:1; 
stroke-linecap:round; stroke-linejoin:round;">
</g>
<g style="fill:#FFFFFF; fill-opacity:1.0; 
stroke:#FFFFFF; stroke-width:0; stroke-opacity:1; 
stroke-linecap:round; stroke-linejoin:round;">
<circle cx="8271.65" cy="27996.1" r="70" /> 
</g>
<g style="fill:#FFFFFF; fill-opacity:1.0; 
stroke:#FFFFFF; stroke-width:39.3701; stroke-opacity:1; 
stroke-linecap:round; stroke-linejoin:round;">
</g>
<g style="fill:#FFFFFF; fill-opacity:1.0; 
stroke:#FFFFFF; stroke-width:0; stroke-opacity:1; 
stroke-linecap:round; stroke-linejoin:round;">
<circle cx="11521.7" cy="30496.1" r="70" /> 
</g>
<g style="fill:#FFFFFF; fill-opacity:1.0; 
stroke:#FFFFFF; stroke-width:39.3701; stroke-opacity:1; 
stroke-linecap:round; stroke-linejoin:round;">
</g>
<g style="fill:#FFFFFF; fill-opacity:1.0; 
stroke:#FFFFFF; stroke-width:0; stroke-opacity:1; 
stroke-linecap:round; stroke-linejoin:round;">
<circle cx="8771.65" cy="33996.1" r="70" /> 
</g>
<g style="fill:#FFFFFF; fill-opacity:1.0; 
stroke:#FFFFFF; stroke-width:39.3701; stroke-opacity:1; 
stroke-linecap:round; stroke-linejoin:round;">
</g>
<g style="fill:#FFFFFF; fill-opacity:1.0; 
stroke:#FFFFFF; stroke-width:0; stroke-opacity:1; 
stroke-linecap:round; stroke-linejoin:round;">
<circle cx="9771.65" cy="34246.1" r="70" /> 
</g>
<g style="fill:#FFFFFF; fill-opacity:1.0; 
stroke:#FFFFFF; stroke-width:39.3701; stroke-opacity:1; 
stroke-linecap:round; stroke-linejoin:round;">
</g>
<g style="fill:#FFFFFF; fill-opacity:1.0; 
stroke:#FFFFFF; stroke-width:0; stroke-opacity:1; 
stroke-linecap:round; stroke-linejoin:round;">
<circle cx="6771.65" cy="34496.1" r="70" /> 
</g>
<g style="fill:#FFFFFF; fill-opacity:1.0; 
stroke:#FFFFFF; stroke-width:39.3701; stroke-opacity:1; 
stroke-linecap:round; stroke-linejoin:round;">
</g>
<g style="fill:#FFFFFF; fill-opacity:1.0; 
stroke:#FFFFFF; stroke-width:0; stroke-opacity:1; 
stroke-linecap:round; stroke-linejoin:round;">
<circle cx="5021.65" cy="34746.1" r="70" /> 
</g>
<g style="fill:#FFFFFF; fill-opacity:1.0; 
stroke:#FFFFFF; stroke-width:39.3701; stroke-opacity:1; 
stroke-linecap:round; stroke-linejoin:round;">
</g>
<g style="fill:#FFFFFF; fill-opacity:1.0; 
stroke:#FFFFFF; stroke-width:0; stroke-opacity:1; 
stroke-linecap:round; stroke-linejoin:round;">
<circle cx="11271.7" cy="32746.1" r="70" /> 
</g>
<g style="fill:#FFFFFF; fill-opacity:1.0; 
stroke:#FFFFFF; stroke-width:39.3701; stroke-opacity:1; 
stroke-linecap:round; stroke-linejoin:round;">
</g>
<g style="fill:#FFFFFF; fill-opacity:1.0; 
stroke:#FFFFFF; stroke-width:0; stroke-opacity:1; 
stroke-linecap:round; stroke-linejoin:round;">
<circle cx="9521.65" cy="32746.1" r="70" /> 
</g>
<g style="fill:#FFFFFF; fill-opacity:1.0; 
stroke:#FFFFFF; stroke-width:39.3701; stroke-opacity:1; 
stroke-linecap:round; stroke-linejoin:round;">
</g>
<g style="fill:#FFFFFF; fill-opacity:1.0; 
stroke:#FFFFFF; stroke-width:0; stroke-opacity:1; 
stroke-linecap:round; stroke-linejoin:round;">
<circle cx="11021.7" cy="33246.1" r="70" /> 
</g>
<g style="fill:#FFFFFF; fill-opacity:1.0; 
stroke:#FFFFFF; stroke-width:39.3701; stroke-opacity:1; 
stroke-linecap:round; stroke-linejoin:round;">
</g>
<g style="fill:#FFFFFF; fill-opacity:1.0; 
stroke:#FFFFFF; stroke-width:0; stroke-opacity:1; 
stroke-linecap:round; stroke-linejoin:round;">
<circle cx="9271.65" cy="33246.1" r="70" /> 
</g>
<g style="fill:#FFFFFF; fill-opacity:1.0; 
stroke:#FFFFFF; stroke-width:39.3701; stroke-opacity:1; 
stroke-linecap:round; stroke-linejoin:round;">
</g>
<g style="fill:#FFFFFF; fill-opacity:1.0; 
stroke:#FFFFFF; stroke-width:0; stroke-opacity:1; 
stroke-linecap:round; stroke-linejoin:round;">
<circle cx="9271.65" cy="28996.1" r="70" /> 
</g>
<g style="fill:#FFFFFF; fill-opacity:1.0; 
stroke:#FFFFFF; stroke-width:39.3701; stroke-opacity:1; 
stroke-linecap:round; stroke-linejoin:round;">
</g>
<g style="fill:#FFFFFF; fill-opacity:1.0; 
stroke:#FFFFFF; stroke-width:0; stroke-opacity:1; 
stroke-linecap:round; stroke-linejoin:round;">
<circle cx="8521.65" cy="28996.1" r="70" /> 
</g>
<g style="fill:#FFFFFF; fill-opacity:1.0; 
stroke:#FFFFFF; stroke-width:39.3701; stroke-opacity:1; 
stroke-linecap:round; stroke-linejoin:round;">
</g>
<g style="fill:#FFFFFF; fill-opacity:1.0; 
stroke:#FFFFFF; stroke-width:0; stroke-opacity:1; 
stroke-linecap:round; stroke-linejoin:round;">
<circle cx="9021.65" cy="28496.1" r="70" /> 
</g>
<g style="fill:#FFFFFF; fill-opacity:1.0; 
stroke:#FFFFFF; stroke-width:39.3701; stroke-opacity:1; 
stroke-linecap:round; stroke-linejoin:round;">
</g>
<g style="fill:#FFFFFF; fill-opacity:1.0; 
stroke:#FFFFFF; stroke-width:0; stroke-opacity:1; 
stroke-linecap:round; stroke-linejoin:round;">
<circle cx="8271.65" cy="28496.1" r="70" /> 
</g>
<g style="fill:#FFFFFF; fill-opacity:1.0; 
stroke:#FFFFFF; stroke-width:39.3701; stroke-opacity:1; 
stroke-linecap:round; stroke-linejoin:round;">
</g>
<g style="fill:#FFFFFF; fill-opacity:1.0; 
stroke:#FFFFFF; stroke-width:0; stroke-opacity:1; 
stroke-linecap:round; stroke-linejoin:round;">
<circle cx="10521.7" cy="35246.1" r="70" /> 
</g>
<g style="fill:#FFFFFF; fill-opacity:1.0; 
stroke:#FFFFFF; stroke-width:39.3701; stroke-opacity:1; 
stroke-linecap:round; stroke-linejoin:round;">
</g>
<g style="fill:#FFFFFF; fill-opacity:1.0; 
stroke:#FFFFFF; stroke-width:0; stroke-opacity:1; 
stroke-linecap:round; stroke-linejoin:round;">
<circle cx="10521.7" cy="33746.1" r="70" /> 
</g>
<g style="fill:#FFFFFF; fill-opacity:1.0; 
stroke:#FFFFFF; stroke-width:39.3701; stroke-opacity:1; 
stroke-linecap:round; stroke-linejoin:round;">
</g>
<g style="fill:#FFFFFF; fill-opacity:1.0; 
stroke:#FFFFFF; stroke-width:0; stroke-opacity:1; 
stroke-linecap:round; stroke-linejoin:round;">
<circle cx="8021.65" cy="33746.1" r="70" /> 
</g>
<g style="fill:#FFFFFF; fill-opacity:1.0; 
stroke:#FFFFFF; stroke-width:39.3701; stroke-opacity:1; 
stroke-linecap:round; stroke-linejoin:round;">
</g>
<g style="fill:#FFFFFF; fill-opacity:1.0; 
stroke:#FFFFFF; stroke-width:0; stroke-opacity:1; 
stroke-linecap:round; stroke-linejoin:round;">
<circle cx="7771.65" cy="33996.1" r="70" /> 
</g>
<g style="fill:#FFFFFF; fill-opacity:1.0; 
stroke:#FFFFFF; stroke-width:39.3701; stroke-opacity:1; 
stroke-linecap:round; stroke-linejoin:round;">
</g>
<g style="fill:#FFFFFF; fill-opacity:1.0; 
stroke:#FFFFFF; stroke-width:0; stroke-opacity:1; 
stroke-linecap:round; stroke-linejoin:round;">
<circle cx="7521.65" cy="32246.1" r="70" /> 
</g>
<g style="fill:#FFFFFF; fill-opacity:1.0; 
stroke:#FFFFFF; stroke-width:39.3701; stroke-opacity:1; 
stroke-linecap:round; stroke-linejoin:round;">
</g>
<g style="fill:#FFFFFF; fill-opacity:1.0; 
stroke:#FFFFFF; stroke-width:0; stroke-opacity:1; 
stroke-linecap:round; stroke-linejoin:round;">
<circle cx="10771.7" cy="32246.1" r="70" /> 
</g>
<g style="fill:#FFFFFF; fill-opacity:1.0; 
stroke:#FFFFFF; stroke-width:39.3701; stroke-opacity:1; 
stroke-linecap:round; stroke-linejoin:round;">
</g>
<g style="fill:#FFFFFF; fill-opacity:1.0; 
stroke:#FFFFFF; stroke-width:0; stroke-opacity:1; 
stroke-linecap:round; stroke-linejoin:round;">
<circle cx="10771.7" cy="34496.1" r="70" /> 
</g>
<g style="fill:#FFFFFF; fill-opacity:1.0; 
stroke:#FFFFFF; stroke-width:39.3701; stroke-opacity:1; 
stroke-linecap:round; stroke-linejoin:round;">
</g>
<g style="fill:#FFFFFF; fill-opacity:1.0; 
stroke:#FFFFFF; stroke-width:0; stroke-opacity:1; 
stroke-linecap:round; stroke-linejoin:round;">
<circle cx="5271.65" cy="29496.1" r="70" /> 
</g>
<g style="fill:#FFFFFF; fill-opacity:1.0; 
stroke:#FFFFFF; stroke-width:39.3701; stroke-opacity:1; 
stroke-linecap:round; stroke-linejoin:round;">
</g>
<g style="fill:#FFFFFF; fill-opacity:1.0; 
stroke:#FFFFFF; stroke-width:0; stroke-opacity:1; 
stroke-linecap:round; stroke-linejoin:round;">
<circle cx="7021.65" cy="29496.1" r="70" /> 
</g>
<g style="fill:#FFFFFF; fill-opacity:1.0; 
stroke:#FFFFFF; stroke-width:39.3701; stroke-opacity:1; 
stroke-linecap:round; stroke-linejoin:round;">
</g>
<g style="fill:#FFFFFF; fill-opacity:1.0; 
stroke:#FFFFFF; stroke-width:0; stroke-opacity:1; 
stroke-linecap:round; stroke-linejoin:round;">
<circle cx="5255.9" cy="29980.3" r="70" /> 
</g>
<g style="fill:#FFFFFF; fill-opacity:1.0; 
stroke:#FFFFFF; stroke-width:39.3701; stroke-opacity:1; 
stroke-linecap:round; stroke-linejoin:round;">
</g>
<g style="fill:#FFFFFF; fill-opacity:1.0; 
stroke:#FFFFFF; stroke-width:0; stroke-opacity:1; 
stroke-linecap:round; stroke-linejoin:round;">
<circle cx="6771.65" cy="29996.1" r="70" /> 
</g>
<g style="fill:#FFFFFF; fill-opacity:1.0; 
stroke:#FFFFFF; stroke-width:39.3701; stroke-opacity:1; 
stroke-linecap:round; stroke-linejoin:round;">
</g>
<g style="fill:#FFFFFF; fill-opacity:1.0; 
stroke:#FFFFFF; stroke-width:0; stroke-opacity:1; 
stroke-linecap:round; stroke-linejoin:round;">
<circle cx="5771.65" cy="35246.1" r="70" /> 
</g>
<g style="fill:#FFFFFF; fill-opacity:1.0; 
stroke:#FFFFFF; stroke-width:39.3701; stroke-opacity:1; 
stroke-linecap:round; stroke-linejoin:round;">
</g>
<g style="fill:#FFFFFF; fill-opacity:1.0; 
stroke:#FFFFFF; stroke-width:0; stroke-opacity:1; 
stroke-linecap:round; stroke-linejoin:round;">
<circle cx="5771.65" cy="32996.1" r="70" /> 
</g>
<g style="fill:#FFFFFF; fill-opacity:1.0; 
stroke:#FFFFFF; stroke-width:39.3701; stroke-opacity:1; 
stroke-linecap:round; stroke-linejoin:round;">
</g>
<g style="fill:#FFFFFF; fill-opacity:1.0; 
stroke:#FFFFFF; stroke-width:0; stroke-opacity:1; 
stroke-linecap:round; stroke-linejoin:round;">
<circle cx="11771.7" cy="32996.1" r="70" /> 
</g>
<g style="fill:#FFFFFF; fill-opacity:1.0; 
stroke:#FFFFFF; stroke-width:39.3701; stroke-opacity:1; 
stroke-linecap:round; stroke-linejoin:round;">
</g>
<g style="fill:#FFFFFF; fill-opacity:1.0; 
stroke:#FFFFFF; stroke-width:0; stroke-opacity:1; 
stroke-linecap:round; stroke-linejoin:round;">
<circle cx="12187.6" cy="27553.5" r="85" /> 
</g>
<g style="fill:#FFFFFF; fill-opacity:1.0; 
stroke:#FFFFFF; stroke-width:39.3701; stroke-opacity:1; 
stroke-linecap:round; stroke-linejoin:round;">
</g>
<g style="fill:#FFFFFF; fill-opacity:1.0; 
stroke:#FFFFFF; stroke-width:0; stroke-opacity:1; 
stroke-linecap:round; stroke-linejoin:round;">
<circle cx="11877.6" cy="27553.5" r="85" /> 
</g>
<g style="fill:#FFFFFF; fill-opacity:1.0; 
stroke:#FFFFFF; stroke-width:39.3701; stroke-opacity:1; 
stroke-linecap:round; stroke-linejoin:round;">
</g>
<g style="fill:#FFFFFF; fill-opacity:1.0; 
stroke:#FFFFFF; stroke-width:0; stroke-opacity:1; 
stroke-linecap:round; stroke-linejoin:round;">
<circle cx="11567.6" cy="27553.5" r="85" /> 
</g>
<g style="fill:#FFFFFF; fill-opacity:1.0; 
stroke:#FFFFFF; stroke-width:39.3701; stroke-opacity:1; 
stroke-linecap:round; stroke-linejoin:round;">
</g>
<g style="fill:#FFFFFF; fill-opacity:1.0; 
stroke:#FFFFFF; stroke-width:0; stroke-opacity:1; 
stroke-linecap:round; stroke-linejoin:round;">
<circle cx="11257.6" cy="27553.5" r="85" /> 
</g>
<g style="fill:#FFFFFF; fill-opacity:1.0; 
stroke:#FFFFFF; stroke-width:39.3701; stroke-opacity:1; 
stroke-linecap:round; stroke-linejoin:round;">
</g>
<g style="fill:#FFFFFF; fill-opacity:1.0; 
stroke:#FFFFFF; stroke-width:0; stroke-opacity:1; 
stroke-linecap:round; stroke-linejoin:round;">
<circle cx="10947.6" cy="27553.5" r="85" /> 
</g>
<g style="fill:#FFFFFF; fill-opacity:1.0; 
stroke:#FFFFFF; stroke-width:39.3701; stroke-opacity:1; 
stroke-linecap:round; stroke-linejoin:round;">
</g>
<g style="fill:#FFFFFF; fill-opacity:1.0; 
stroke:#FFFFFF; stroke-width:0; stroke-opacity:1; 
stroke-linecap:round; stroke-linejoin:round;">
<circle cx="10637.6" cy="27553.5" r="85" /> 
</g>
<g style="fill:#FFFFFF; fill-opacity:1.0; 
stroke:#FFFFFF; stroke-width:39.3701; stroke-opacity:1; 
stroke-linecap:round; stroke-linejoin:round;">
</g>
<g style="fill:#FFFFFF; fill-opacity:1.0; 
stroke:#FFFFFF; stroke-width:0; stroke-opacity:1; 
stroke-linecap:round; stroke-linejoin:round;">
<circle cx="10327.6" cy="27553.5" r="85" /> 
</g>
<g style="fill:#FFFFFF; fill-opacity:1.0; 
stroke:#FFFFFF; stroke-width:39.3701; stroke-opacity:1; 
stroke-linecap:round; stroke-linejoin:round;">
</g>
<g style="fill:#FFFFFF; fill-opacity:1.0; 
stroke:#FFFFFF; stroke-width:0; stroke-opacity:1; 
stroke-linecap:round; stroke-linejoin:round;">
<circle cx="10017.6" cy="27553.5" r="85" /> 
</g>
<g style="fill:#FFFFFF; fill-opacity:1.0; 
stroke:#FFFFFF; stroke-width:39.3701; stroke-opacity:1; 
stroke-linecap:round; stroke-linejoin:round;">
</g>
<g style="fill:#FFFFFF; fill-opacity:1.0; 
stroke:#FFFFFF; stroke-width:0; stroke-opacity:1; 
stroke-linecap:round; stroke-linejoin:round;">
<circle cx="9707.56" cy="27553.5" r="85" /> 
</g>
<g style="fill:#FFFFFF; fill-opacity:1.0; 
stroke:#FFFFFF; stroke-width:39.3701; stroke-opacity:1; 
stroke-linecap:round; stroke-linejoin:round;">
</g>
<g style="fill:#FFFFFF; fill-opacity:1.0; 
stroke:#FFFFFF; stroke-width:0; stroke-opacity:1; 
stroke-linecap:round; stroke-linejoin:round;">
<circle cx="9397.56" cy="27553.5" r="85" /> 
</g>
<g style="fill:#FFFFFF; fill-opacity:1.0; 
stroke:#FFFFFF; stroke-width:39.3701; stroke-opacity:1; 
stroke-linecap:round; stroke-linejoin:round;">
</g>
<g style="fill:#FFFFFF; fill-opacity:1.0; 
stroke:#FFFFFF; stroke-width:0; stroke-opacity:1; 
stroke-linecap:round; stroke-linejoin:round;">
<circle cx="9087.56" cy="27553.5" r="85" /> 
</g>
<g style="fill:#FFFFFF; fill-opacity:1.0; 
stroke:#FFFFFF; stroke-width:39.3701; stroke-opacity:1; 
stroke-linecap:round; stroke-linejoin:round;">
</g>
<g style="fill:#FFFFFF; fill-opacity:1.0; 
stroke:#FFFFFF; stroke-width:0; stroke-opacity:1; 
stroke-linecap:round; stroke-linejoin:round;">
<circle cx="8777.56" cy="27553.5" r="85" /> 
</g>
<g style="fill:#FFFFFF; fill-opacity:1.0; 
stroke:#FFFFFF; stroke-width:39.3701; stroke-opacity:1; 
stroke-linecap:round; stroke-linejoin:round;">
</g>
<g style="fill:#FFFFFF; fill-opacity:1.0; 
stroke:#FFFFFF; stroke-width:0; stroke-opacity:1; 
stroke-linecap:round; stroke-linejoin:round;">
<circle cx="7847.56" cy="27553.5" r="85" /> 
</g>
<g style="fill:#FFFFFF; fill-opacity:1.0; 
stroke:#FFFFFF; stroke-width:39.3701; stroke-opacity:1; 
stroke-linecap:round; stroke-linejoin:round;">
</g>
<g style="fill:#FFFFFF; fill-opacity:1.0; 
stroke:#FFFFFF; stroke-width:0; stroke-opacity:1; 
stroke-linecap:round; stroke-linejoin:round;">
<circle cx="7537.56" cy="27553.5" r="85" /> 
</g>
<g style="fill:#FFFFFF; fill-opacity:1.0; 
stroke:#FFFFFF; stroke-width:39.3701; stroke-opacity:1; 
stroke-linecap:round; stroke-linejoin:round;">
</g>
<g style="fill:#FFFFFF; fill-opacity:1.0; 
stroke:#FFFFFF; stroke-width:0; stroke-opacity:1; 
stroke-linecap:round; stroke-linejoin:round;">
<circle cx="7227.56" cy="27553.5" r="85" /> 
</g>
<g style="fill:#FFFFFF; fill-opacity:1.0; 
stroke:#FFFFFF; stroke-width:39.3701; stroke-opacity:1; 
stroke-linecap:round; stroke-linejoin:round;">
</g>
<g style="fill:#FFFFFF; fill-opacity:1.0; 
stroke:#FFFFFF; stroke-width:0; stroke-opacity:1; 
stroke-linecap:round; stroke-linejoin:round;">
<circle cx="6917.56" cy="27553.5" r="85" /> 
</g>
<g style="fill:#FFFFFF; fill-opacity:1.0; 
stroke:#FFFFFF; stroke-width:39.3701; stroke-opacity:1; 
stroke-linecap:round; stroke-linejoin:round;">
</g>
<g style="fill:#FFFFFF; fill-opacity:1.0; 
stroke:#FFFFFF; stroke-width:0; stroke-opacity:1; 
stroke-linecap:round; stroke-linejoin:round;">
<circle cx="6607.56" cy="27553.5" r="85" /> 
</g>
<g style="fill:#FFFFFF; fill-opacity:1.0; 
stroke:#FFFFFF; stroke-width:39.3701; stroke-opacity:1; 
stroke-linecap:round; stroke-linejoin:round;">
</g>
<g style="fill:#FFFFFF; fill-opacity:1.0; 
stroke:#FFFFFF; stroke-width:0; stroke-opacity:1; 
stroke-linecap:round; stroke-linejoin:round;">
<circle cx="6297.56" cy="27553.5" r="85" /> 
</g>
<g style="fill:#FFFFFF; fill-opacity:1.0; 
stroke:#FFFFFF; stroke-width:39.3701; stroke-opacity:1; 
stroke-linecap:round; stroke-linejoin:round;">
</g>
<g style="fill:#FFFFFF; fill-opacity:1.0; 
stroke:#FFFFFF; stroke-width:0; stroke-opacity:1; 
stroke-linecap:round; stroke-linejoin:round;">
<circle cx="7027.56" cy="30453.5" r="150" /> 
</g>
<g style="fill:#FFFFFF; fill-opacity:1.0; 
stroke:#FFFFFF; stroke-width:39.3701; stroke-opacity:1; 
stroke-linecap:round; stroke-linejoin:round;">
</g>
<g style="fill:#FFFFFF; fill-opacity:1.0; 
stroke:#FFFFFF; stroke-width:0; stroke-opacity:1; 
stroke-linecap:round; stroke-linejoin:round;">
<circle cx="10627.6" cy="30453.5" r="150" /> 
</g>
<g style="fill:#FFFFFF; fill-opacity:1.0; 
stroke:#FFFFFF; stroke-width:39.3701; stroke-opacity:1; 
stroke-linecap:round; stroke-linejoin:round;">
</g>
<g style="fill:#FFFFFF; fill-opacity:1.0; 
stroke:#FFFFFF; stroke-width:0; stroke-opacity:1; 
stroke-linecap:round; stroke-linejoin:round;">
<circle cx="7927.56" cy="10624.4" r="750" /> 
</g>
<g style="fill:#FFFFFF; fill-opacity:1.0; 
stroke:#FFFFFF; stroke-width:39.3701; stroke-opacity:1; 
stroke-linecap:round; stroke-linejoin:round;">
</g>
<g style="fill:#FFFFFF; fill-opacity:1.0; 
stroke:#FFFFFF; stroke-width:0; stroke-opacity:1; 
stroke-linecap:round; stroke-linejoin:round;">
<circle cx="8602.36" cy="5000" r="725" /> 
</g>
<g style="fill:#FFFFFF; fill-opacity:1.0; 
stroke:#FFFFFF; stroke-width:39.3701; stroke-opacity:1; 
stroke-linecap:round; stroke-linejoin:round;">
</g>
<g style="fill:#000000; fill-opacity:1.0; 
stroke:#000000; stroke-width:39.3701; stroke-opacity:1; 
stroke-linecap:round; stroke-linejoin:round;">
</g> 
</svg>
