<?xml version="1.0" standalone="no"?>
 <!DOCTYPE svg PUBLIC "-//W3C//DTD SVG 1.1//EN" 
 "http://www.w3.org/Graphics/SVG/1.1/DTD/svg11.dtd"> 
<svg xmlns="http://www.w3.org/2000/svg" version="1.1" 
    width="3.34518cm" height="9.27608cm" viewBox="0 0 13170 36520 ">
<title>SVG Picture created as wifi_adaptor-Edge.Cuts.svg date 2017/10/16 13:46:05 </title>
  <desc>Picture generated by PCBNEW </desc>
<g style="fill:#000000; fill-opacity:1;stroke:#000000; stroke-opacity:1;
stroke-linecap:round; stroke-linejoin:round; "
 transform="translate(0 0) scale(1 1)">
</g>
<g style="fill:#000000; fill-opacity:0.0; 
stroke:#000000; stroke-width:-0.000393701; stroke-opacity:1; 
stroke-linecap:round; stroke-linejoin:round;">
</g>
<g style="fill:#000000; fill-opacity:0.0; 
stroke:#000000; stroke-width:59.0551; stroke-opacity:1; 
stroke-linecap:round; stroke-linejoin:round;">
<path d="M5846 35708
L5846 36496
" />
<path d="M6437 35708
L6437 36496
" />
<path d="M5846 36496
L4763 36496
" />
<path d="M12440 35708
L12440 36496
" />
<path d="M6437 36496
L12440 36496
" />
<path d="M4763 35708
L4763 36496
" />
<path d="M12637.8 35511.8 A196.85 196.85 0.0 0 0 12440.9 35708.7 " />
<path d="M4763.78 35708.7 A196.85 196.85 0.0 0 0 4566.93 35511.8 " />
<path d="M6437.01 35708.7 A295.276 295.276 0.0 0 0 5846.46 35708.7 " />
<path d="M12933.1 27834.6 A295.276 295.276 0.0 0 0 12637.8 27539.4 " />
<path d="M12637.8 35511.8 A295.276 295.276 0.0 0 0 12933.1 35216.5 " />
<path d="M4271.65 35216.5 A295.276 295.276 0.0 0 0 4566.93 35511.8 " />
<path d="M4566.93 5000 A295.276 295.276 0.0 0 0 4271.65 5295.28 " />
<path d="M12933.1 5295.28 A295.276 295.276 0.0 0 0 12637.8 5000 " />
<path d="M12637.8 12086.6 A295.276 295.276 0.0 0 0 12933.1 11791.3 " />
<path d="M6043.31 27244.1 A295.276 295.276 0.0 0 0 6338.58 27539.4 " />
<path d="M6338.58 12086.6 A295.276 295.276 0.0 0 0 6043.31 12381.9 " />
<path d="M12933 35216
L12933 27834
" />
<path d="M6338 27539
L12637 27539
" />
<path d="M6043 12381
L6043 27244
" />
<path d="M12637 12086
L6338 12086
" />
<path d="M4271 35216
L4271 5295
" />
<path d="M12933 5295
L12933 11791
" />
<path d="M4566 5000
L12637 5000
" />
</g> 
</svg>
