<?xml version="1.0" standalone="no"?>
 <!DOCTYPE svg PUBLIC "-//W3C//DTD SVG 1.1//EN" 
 "http://www.w3.org/Graphics/SVG/1.1/DTD/svg11.dtd"> 
<svg xmlns="http://www.w3.org/2000/svg" version="1.1" 
    width="15.24cm" height="25.4cm" viewBox="0 0 60000 100000 ">
<title>SVG Picture created as wifi_adaptor-B.Cu.svg date 2017/09/06 11:10:48 </title>
  <desc>Picture generated by PCBNEW </desc>
<g style="fill:#000000; fill-opacity:1;stroke:#000000; stroke-opacity:1;
stroke-linecap:round; stroke-linejoin:round; "
 transform="translate(0 0) scale(1 1)">
</g>
<g style="fill:#000000; fill-opacity:0.0; 
stroke:#000000; stroke-width:-0.000393701; stroke-opacity:1; 
stroke-linecap:round; stroke-linejoin:round;">
</g>
<g style="fill:#000000; fill-opacity:0.0; 
stroke:#000000; stroke-width:39.3701; stroke-opacity:1; 
stroke-linecap:round; stroke-linejoin:round;">
</g>
<g style="fill:#000000; fill-opacity:0.0; 
stroke:#000000; stroke-width:59.0551; stroke-opacity:1; 
stroke-linecap:round; stroke-linejoin:round;">
<rect x="12755.9" y="82677.2" width="42519.7" height="12598.4" rx="0" />
</g>
<g style="fill:#000000; fill-opacity:0.0; 
stroke:#000000; stroke-width:39.3701; stroke-opacity:1; 
stroke-linecap:round; stroke-linejoin:round;">
</g>
<g style="fill:#000000; fill-opacity:0.0; 
stroke:#000000; stroke-width:59.0551; stroke-opacity:1; 
stroke-linecap:round; stroke-linejoin:round;">
<rect x="3937.01" y="3937.01" width="52126" height="92126" rx="0" />
</g>
<g style="fill:#000000; fill-opacity:0.0; 
stroke:#000000; stroke-width:39.3701; stroke-opacity:1; 
stroke-linecap:round; stroke-linejoin:round;">
</g>
<g style="fill:#000000; fill-opacity:0.0; 
stroke:#000000; stroke-width:59.0551; stroke-opacity:1; 
stroke-linecap:round; stroke-linejoin:round;">
<rect x="4724.41" y="4724.41" width="50551.2" height="90551.2" rx="0" />
</g>
<g style="fill:#000000; fill-opacity:0.0; 
stroke:#000000; stroke-width:39.3701; stroke-opacity:1; 
stroke-linecap:round; stroke-linejoin:round;">
</g>
<g style="fill:#000000; fill-opacity:0.0; 
stroke:#000000; stroke-width:59.0551; stroke-opacity:1; 
stroke-linecap:round; stroke-linejoin:round;">
<path d="M23622 4724
L23622 3937
" />
</g>
<g style="fill:#000000; fill-opacity:0.0; 
stroke:#000000; stroke-width:39.3701; stroke-opacity:1; 
stroke-linecap:round; stroke-linejoin:round;">
</g>
<g style="fill:#000000; fill-opacity:0.0; 
stroke:#000000; stroke-width:59.0551; stroke-opacity:1; 
stroke-linecap:round; stroke-linejoin:round;">
<path d="M43307 4724
L43307 3937
" />
</g>
<g style="fill:#000000; fill-opacity:0.0; 
stroke:#000000; stroke-width:39.3701; stroke-opacity:1; 
stroke-linecap:round; stroke-linejoin:round;">
</g>
<g style="fill:#000000; fill-opacity:0.0; 
stroke:#000000; stroke-width:59.0551; stroke-opacity:1; 
stroke-linecap:round; stroke-linejoin:round;">
<path d="M14169 4562
L13877 4562
" />
<path d="M14023 4562
L14023 4050
L13974 4123
L13925 4172
L13877 4196
" />
</g>
<g style="fill:#000000; fill-opacity:0.0; 
stroke:#000000; stroke-width:39.3701; stroke-opacity:1; 
stroke-linecap:round; stroke-linejoin:round;">
</g>
<g style="fill:#000000; fill-opacity:0.0; 
stroke:#000000; stroke-width:59.0551; stroke-opacity:1; 
stroke-linecap:round; stroke-linejoin:round;">
<path d="M33562 4099
L33586 4074
L33635 4050
L33757 4050
L33805 4074
L33830 4099
L33854 4147
L33854 4196
L33830 4269
L33537 4562
L33854 4562
" />
</g>
<g style="fill:#000000; fill-opacity:0.0; 
stroke:#000000; stroke-width:39.3701; stroke-opacity:1; 
stroke-linecap:round; stroke-linejoin:round;">
</g>
<g style="fill:#000000; fill-opacity:0.0; 
stroke:#000000; stroke-width:59.0551; stroke-opacity:1; 
stroke-linecap:round; stroke-linejoin:round;">
<path d="M53222 4050
L53539 4050
L53368 4245
L53442 4245
L53490 4269
L53515 4294
L53539 4342
L53539 4464
L53515 4513
L53490 4537
L53442 4562
L53295 4562
L53247 4537
L53222 4513
" />
</g>
<g style="fill:#000000; fill-opacity:0.0; 
stroke:#000000; stroke-width:39.3701; stroke-opacity:1; 
stroke-linecap:round; stroke-linejoin:round;">
</g>
<g style="fill:#000000; fill-opacity:0.0; 
stroke:#000000; stroke-width:59.0551; stroke-opacity:1; 
stroke-linecap:round; stroke-linejoin:round;">
<path d="M23622 95275
L23622 96062
" />
</g>
<g style="fill:#000000; fill-opacity:0.0; 
stroke:#000000; stroke-width:39.3701; stroke-opacity:1; 
stroke-linecap:round; stroke-linejoin:round;">
</g>
<g style="fill:#000000; fill-opacity:0.0; 
stroke:#000000; stroke-width:59.0551; stroke-opacity:1; 
stroke-linecap:round; stroke-linejoin:round;">
<path d="M43307 95275
L43307 96062
" />
</g>
<g style="fill:#000000; fill-opacity:0.0; 
stroke:#000000; stroke-width:39.3701; stroke-opacity:1; 
stroke-linecap:round; stroke-linejoin:round;">
</g>
<g style="fill:#000000; fill-opacity:0.0; 
stroke:#000000; stroke-width:59.0551; stroke-opacity:1; 
stroke-linecap:round; stroke-linejoin:round;">
<path d="M14169 95900
L13877 95900
" />
<path d="M14023 95900
L14023 95389
L13974 95462
L13925 95510
L13877 95535
" />
</g>
<g style="fill:#000000; fill-opacity:0.0; 
stroke:#000000; stroke-width:39.3701; stroke-opacity:1; 
stroke-linecap:round; stroke-linejoin:round;">
</g>
<g style="fill:#000000; fill-opacity:0.0; 
stroke:#000000; stroke-width:59.0551; stroke-opacity:1; 
stroke-linecap:round; stroke-linejoin:round;">
<path d="M33562 95437
L33586 95413
L33635 95389
L33757 95389
L33805 95413
L33830 95437
L33854 95486
L33854 95535
L33830 95608
L33537 95900
L33854 95900
" />
</g>
<g style="fill:#000000; fill-opacity:0.0; 
stroke:#000000; stroke-width:39.3701; stroke-opacity:1; 
stroke-linecap:round; stroke-linejoin:round;">
</g>
<g style="fill:#000000; fill-opacity:0.0; 
stroke:#000000; stroke-width:59.0551; stroke-opacity:1; 
stroke-linecap:round; stroke-linejoin:round;">
<path d="M53222 95389
L53539 95389
L53368 95583
L53442 95583
L53490 95608
L53515 95632
L53539 95681
L53539 95803
L53515 95852
L53490 95876
L53442 95900
L53295 95900
L53247 95876
L53222 95852
" />
</g>
<g style="fill:#000000; fill-opacity:0.0; 
stroke:#000000; stroke-width:39.3701; stroke-opacity:1; 
stroke-linecap:round; stroke-linejoin:round;">
</g>
<g style="fill:#000000; fill-opacity:0.0; 
stroke:#000000; stroke-width:59.0551; stroke-opacity:1; 
stroke-linecap:round; stroke-linejoin:round;">
<path d="M3937 23622
L4724 23622
" />
</g>
<g style="fill:#000000; fill-opacity:0.0; 
stroke:#000000; stroke-width:39.3701; stroke-opacity:1; 
stroke-linecap:round; stroke-linejoin:round;">
</g>
<g style="fill:#000000; fill-opacity:0.0; 
stroke:#000000; stroke-width:59.0551; stroke-opacity:1; 
stroke-linecap:round; stroke-linejoin:round;">
<path d="M3937 43307
L4724 43307
" />
</g>
<g style="fill:#000000; fill-opacity:0.0; 
stroke:#000000; stroke-width:39.3701; stroke-opacity:1; 
stroke-linecap:round; stroke-linejoin:round;">
</g>
<g style="fill:#000000; fill-opacity:0.0; 
stroke:#000000; stroke-width:59.0551; stroke-opacity:1; 
stroke-linecap:round; stroke-linejoin:round;">
<path d="M3937 62992
L4724 62992
" />
</g>
<g style="fill:#000000; fill-opacity:0.0; 
stroke:#000000; stroke-width:39.3701; stroke-opacity:1; 
stroke-linecap:round; stroke-linejoin:round;">
</g>
<g style="fill:#000000; fill-opacity:0.0; 
stroke:#000000; stroke-width:59.0551; stroke-opacity:1; 
stroke-linecap:round; stroke-linejoin:round;">
<path d="M3937 82677
L4724 82677
" />
</g>
<g style="fill:#000000; fill-opacity:0.0; 
stroke:#000000; stroke-width:39.3701; stroke-opacity:1; 
stroke-linecap:round; stroke-linejoin:round;">
</g>
<g style="fill:#000000; fill-opacity:0.0; 
stroke:#000000; stroke-width:59.0551; stroke-opacity:1; 
stroke-linecap:round; stroke-linejoin:round;">
<path d="M4208 13864
L4452 13864
" />
<path d="M4160 14011
L4330 13499
L4501 14011
" />
</g>
<g style="fill:#000000; fill-opacity:0.0; 
stroke:#000000; stroke-width:39.3701; stroke-opacity:1; 
stroke-linecap:round; stroke-linejoin:round;">
</g>
<g style="fill:#000000; fill-opacity:0.0; 
stroke:#000000; stroke-width:59.0551; stroke-opacity:1; 
stroke-linecap:round; stroke-linejoin:round;">
<path d="M4367 33428
L4440 33452
L4464 33476
L4489 33525
L4489 33598
L4464 33647
L4440 33671
L4391 33696
L4196 33696
L4196 33184
L4367 33184
L4416 33208
L4440 33233
L4464 33281
L4464 33330
L4440 33379
L4416 33403
L4367 33428
L4196 33428
" />
</g>
<g style="fill:#000000; fill-opacity:0.0; 
stroke:#000000; stroke-width:39.3701; stroke-opacity:1; 
stroke-linecap:round; stroke-linejoin:round;">
</g>
<g style="fill:#000000; fill-opacity:0.0; 
stroke:#000000; stroke-width:59.0551; stroke-opacity:1; 
stroke-linecap:round; stroke-linejoin:round;">
<path d="M4489 53332
L4464 53356
L4391 53381
L4342 53381
L4269 53356
L4221 53308
L4196 53259
L4172 53161
L4172 53088
L4196 52991
L4221 52942
L4269 52893
L4342 52869
L4391 52869
L4464 52893
L4489 52918
" />
</g>
<g style="fill:#000000; fill-opacity:0.0; 
stroke:#000000; stroke-width:39.3701; stroke-opacity:1; 
stroke-linecap:round; stroke-linejoin:round;">
</g>
<g style="fill:#000000; fill-opacity:0.0; 
stroke:#000000; stroke-width:59.0551; stroke-opacity:1; 
stroke-linecap:round; stroke-linejoin:round;">
<path d="M4196 73066
L4196 72554
L4318 72554
L4391 72578
L4440 72627
L4464 72676
L4489 72773
L4489 72846
L4464 72944
L4440 72993
L4391 73041
L4318 73066
L4196 73066
" />
</g>
<g style="fill:#000000; fill-opacity:0.0; 
stroke:#000000; stroke-width:39.3701; stroke-opacity:1; 
stroke-linecap:round; stroke-linejoin:round;">
</g>
<g style="fill:#000000; fill-opacity:0.0; 
stroke:#000000; stroke-width:59.0551; stroke-opacity:1; 
stroke-linecap:round; stroke-linejoin:round;">
<path d="M4221 92483
L4391 92483
" />
<path d="M4464 92751
L4221 92751
L4221 92239
L4464 92239
" />
</g>
<g style="fill:#000000; fill-opacity:0.0; 
stroke:#000000; stroke-width:39.3701; stroke-opacity:1; 
stroke-linecap:round; stroke-linejoin:round;">
</g>
<g style="fill:#000000; fill-opacity:0.0; 
stroke:#000000; stroke-width:59.0551; stroke-opacity:1; 
stroke-linecap:round; stroke-linejoin:round;">
<path d="M56062 23622
L55275 23622
" />
</g>
<g style="fill:#000000; fill-opacity:0.0; 
stroke:#000000; stroke-width:39.3701; stroke-opacity:1; 
stroke-linecap:round; stroke-linejoin:round;">
</g>
<g style="fill:#000000; fill-opacity:0.0; 
stroke:#000000; stroke-width:59.0551; stroke-opacity:1; 
stroke-linecap:round; stroke-linejoin:round;">
<path d="M56062 43307
L55275 43307
" />
</g>
<g style="fill:#000000; fill-opacity:0.0; 
stroke:#000000; stroke-width:39.3701; stroke-opacity:1; 
stroke-linecap:round; stroke-linejoin:round;">
</g>
<g style="fill:#000000; fill-opacity:0.0; 
stroke:#000000; stroke-width:59.0551; stroke-opacity:1; 
stroke-linecap:round; stroke-linejoin:round;">
<path d="M56062 62992
L55275 62992
" />
</g>
<g style="fill:#000000; fill-opacity:0.0; 
stroke:#000000; stroke-width:39.3701; stroke-opacity:1; 
stroke-linecap:round; stroke-linejoin:round;">
</g>
<g style="fill:#000000; fill-opacity:0.0; 
stroke:#000000; stroke-width:59.0551; stroke-opacity:1; 
stroke-linecap:round; stroke-linejoin:round;">
<path d="M56062 82677
L55275 82677
" />
</g>
<g style="fill:#000000; fill-opacity:0.0; 
stroke:#000000; stroke-width:39.3701; stroke-opacity:1; 
stroke-linecap:round; stroke-linejoin:round;">
</g>
<g style="fill:#000000; fill-opacity:0.0; 
stroke:#000000; stroke-width:59.0551; stroke-opacity:1; 
stroke-linecap:round; stroke-linejoin:round;">
<path d="M55547 13864
L55791 13864
" />
<path d="M55498 14011
L55669 13499
L55839 14011
" />
</g>
<g style="fill:#000000; fill-opacity:0.0; 
stroke:#000000; stroke-width:39.3701; stroke-opacity:1; 
stroke-linecap:round; stroke-linejoin:round;">
</g>
<g style="fill:#000000; fill-opacity:0.0; 
stroke:#000000; stroke-width:59.0551; stroke-opacity:1; 
stroke-linecap:round; stroke-linejoin:round;">
<path d="M55705 33428
L55778 33452
L55803 33476
L55827 33525
L55827 33598
L55803 33647
L55778 33671
L55730 33696
L55535 33696
L55535 33184
L55705 33184
L55754 33208
L55778 33233
L55803 33281
L55803 33330
L55778 33379
L55754 33403
L55705 33428
L55535 33428
" />
</g>
<g style="fill:#000000; fill-opacity:0.0; 
stroke:#000000; stroke-width:39.3701; stroke-opacity:1; 
stroke-linecap:round; stroke-linejoin:round;">
</g>
<g style="fill:#000000; fill-opacity:0.0; 
stroke:#000000; stroke-width:59.0551; stroke-opacity:1; 
stroke-linecap:round; stroke-linejoin:round;">
<path d="M55827 53332
L55803 53356
L55730 53381
L55681 53381
L55608 53356
L55559 53308
L55535 53259
L55510 53161
L55510 53088
L55535 52991
L55559 52942
L55608 52893
L55681 52869
L55730 52869
L55803 52893
L55827 52918
" />
</g>
<g style="fill:#000000; fill-opacity:0.0; 
stroke:#000000; stroke-width:39.3701; stroke-opacity:1; 
stroke-linecap:round; stroke-linejoin:round;">
</g>
<g style="fill:#000000; fill-opacity:0.0; 
stroke:#000000; stroke-width:59.0551; stroke-opacity:1; 
stroke-linecap:round; stroke-linejoin:round;">
<path d="M55535 73066
L55535 72554
L55657 72554
L55730 72578
L55778 72627
L55803 72676
L55827 72773
L55827 72846
L55803 72944
L55778 72993
L55730 73041
L55657 73066
L55535 73066
" />
</g>
<g style="fill:#000000; fill-opacity:0.0; 
stroke:#000000; stroke-width:39.3701; stroke-opacity:1; 
stroke-linecap:round; stroke-linejoin:round;">
</g>
<g style="fill:#000000; fill-opacity:0.0; 
stroke:#000000; stroke-width:59.0551; stroke-opacity:1; 
stroke-linecap:round; stroke-linejoin:round;">
<path d="M55559 92483
L55730 92483
" />
<path d="M55803 92751
L55559 92751
L55559 92239
L55803 92239
" />
</g>
<g style="fill:#000000; fill-opacity:0.0; 
stroke:#000000; stroke-width:39.3701; stroke-opacity:1; 
stroke-linecap:round; stroke-linejoin:round;">
</g>
<g style="fill:#000000; fill-opacity:0.0; 
stroke:#000000; stroke-width:59.0551; stroke-opacity:1; 
stroke-linecap:round; stroke-linejoin:round;">
<path d="M21951 93613
L21951 93023
L22092 93023
L22176 93051
L22232 93107
L22260 93163
L22289 93276
L22289 93360
L22260 93473
L22232 93529
L22176 93585
L22092 93613
L21951 93613
" />
<path d="M22795 93613
L22795 93304
L22767 93248
L22710 93219
L22598 93219
L22542 93248
" />
<path d="M22795 93585
L22739 93613
L22598 93613
L22542 93585
L22514 93529
L22514 93473
L22542 93416
L22598 93388
L22739 93388
L22795 93360
" />
<path d="M22992 93219
L23217 93219
" />
<path d="M23076 93023
L23076 93529
L23104 93585
L23160 93613
L23217 93613
" />
<path d="M23638 93585
L23582 93613
L23470 93613
L23413 93585
L23385 93529
L23385 93304
L23413 93248
L23470 93219
L23582 93219
L23638 93248
L23667 93304
L23667 93360
L23385 93416
" />
<path d="M23920 93557
L23948 93585
L23920 93613
L23892 93585
L23920 93557
L23920 93613
" />
<path d="M23920 93248
L23948 93276
L23920 93304
L23892 93276
L23920 93248
L23920 93304
" />
<path d="M24623 93079
L24651 93051
L24707 93023
L24848 93023
L24904 93051
L24932 93079
L24960 93135
L24960 93191
L24932 93276
L24595 93613
L24960 93613
" />
<path d="M25326 93023
L25382 93023
L25438 93051
L25466 93079
L25494 93135
L25523 93248
L25523 93388
L25494 93501
L25466 93557
L25438 93585
L25382 93613
L25326 93613
L25269 93585
L25241 93557
L25213 93501
L25185 93388
L25185 93248
L25213 93135
L25241 93079
L25269 93051
L25326 93023
" />
<path d="M26085 93613
L25748 93613
" />
<path d="M25916 93613
L25916 93023
L25860 93107
L25804 93163
L25748 93191
" />
<path d="M26282 93023
L26676 93023
L26422 93613
" />
<path d="M26901 93388
L27350 93388
" />
<path d="M27744 93023
L27800 93023
L27857 93051
L27885 93079
L27913 93135
L27941 93248
L27941 93388
L27913 93501
L27885 93557
L27857 93585
L27800 93613
L27744 93613
L27688 93585
L27660 93557
L27632 93501
L27604 93388
L27604 93248
L27632 93135
L27660 93079
L27688 93051
L27744 93023
" />
<path d="M28222 93613
L28335 93613
L28391 93585
L28419 93557
L28475 93473
L28503 93360
L28503 93135
L28475 93079
L28447 93051
L28391 93023
L28278 93023
L28222 93051
L28194 93079
L28166 93135
L28166 93276
L28194 93332
L28222 93360
L28278 93388
L28391 93388
L28447 93360
L28475 93332
L28503 93276
" />
<path d="M28757 93388
L29206 93388
" />
<path d="M29600 93023
L29656 93023
L29713 93051
L29741 93079
L29769 93135
L29797 93248
L29797 93388
L29769 93501
L29741 93557
L29713 93585
L29656 93613
L29600 93613
L29544 93585
L29516 93557
L29488 93501
L29460 93388
L29460 93248
L29488 93135
L29516 93079
L29544 93051
L29600 93023
" />
<path d="M30331 93023
L30050 93023
L30022 93304
L30050 93276
L30106 93248
L30247 93248
L30303 93276
L30331 93304
L30359 93360
L30359 93501
L30331 93557
L30303 93585
L30247 93613
L30106 93613
L30050 93585
L30022 93557
" />
</g>
<g style="fill:#000000; fill-opacity:0.0; 
stroke:#000000; stroke-width:39.3701; stroke-opacity:1; 
stroke-linecap:round; stroke-linejoin:round;">
</g>
<g style="fill:#000000; fill-opacity:0.0; 
stroke:#000000; stroke-width:59.0551; stroke-opacity:1; 
stroke-linecap:round; stroke-linejoin:round;">
<path d="M12755 93897
L55275 93897
" />
</g>
<g style="fill:#000000; fill-opacity:0.0; 
stroke:#000000; stroke-width:39.3701; stroke-opacity:1; 
stroke-linecap:round; stroke-linejoin:round;">
</g>
<g style="fill:#000000; fill-opacity:0.0; 
stroke:#000000; stroke-width:59.0551; stroke-opacity:1; 
stroke-linecap:round; stroke-linejoin:round;">
<path d="M13290 94715
L13290 94125
" />
<path d="M13627 94715
L13374 94378
" />
<path d="M13627 94125
L13290 94462
" />
<path d="M13880 94715
L13880 94322
" />
<path d="M13880 94125
L13852 94153
L13880 94181
L13908 94153
L13880 94125
L13880 94181
" />
<path d="M14499 94659
L14471 94687
L14386 94715
L14330 94715
L14246 94687
L14190 94631
L14161 94575
L14133 94462
L14133 94378
L14161 94266
L14190 94209
L14246 94153
L14330 94125
L14386 94125
L14471 94153
L14499 94181
" />
<path d="M15005 94715
L15005 94406
L14977 94350
L14921 94322
L14808 94322
L14752 94350
" />
<path d="M15005 94687
L14949 94715
L14808 94715
L14752 94687
L14724 94631
L14724 94575
L14752 94519
L14808 94491
L14949 94491
L15005 94462
" />
<path d="M15539 94715
L15539 94125
" />
<path d="M15539 94687
L15483 94715
L15371 94715
L15314 94687
L15286 94659
L15258 94603
L15258 94434
L15286 94378
L15314 94350
L15371 94322
L15483 94322
L15539 94350
" />
<path d="M16271 94406
L16467 94406
" />
<path d="M16552 94715
L16271 94715
L16271 94125
L16552 94125
" />
<path d="M16805 94659
L16833 94687
L16805 94715
L16777 94687
L16805 94659
L16805 94715
" />
<path d="M17086 94715
L17086 94125
L17227 94125
L17311 94153
L17367 94209
L17395 94266
L17424 94378
L17424 94462
L17395 94575
L17367 94631
L17311 94687
L17227 94715
L17086 94715
" />
<path d="M17677 94659
L17705 94687
L17677 94715
L17649 94687
L17677 94659
L17677 94715
" />
<path d="M17930 94547
L18211 94547
" />
<path d="M17874 94715
L18070 94125
L18267 94715
" />
<path d="M18464 94659
L18492 94687
L18464 94715
L18436 94687
L18464 94659
L18464 94715
" />
<path d="M19645 94715
L19645 94125
" />
<path d="M19701 94491
L19870 94715
" />
<path d="M19870 94322
L19645 94547
" />
<path d="M20123 94715
L20123 94322
" />
<path d="M20123 94125
L20095 94153
L20123 94181
L20151 94153
L20123 94125
L20123 94181
" />
<path d="M20658 94687
L20601 94715
L20489 94715
L20433 94687
L20404 94659
L20376 94603
L20376 94434
L20404 94378
L20433 94350
L20489 94322
L20601 94322
L20658 94350
" />
<path d="M21164 94715
L21164 94406
L21136 94350
L21079 94322
L20967 94322
L20911 94350
" />
<path d="M21164 94687
L21107 94715
L20967 94715
L20911 94687
L20883 94631
L20883 94575
L20911 94519
L20967 94491
L21107 94491
L21164 94462
" />
<path d="M21698 94715
L21698 94125
" />
<path d="M21698 94687
L21642 94715
L21529 94715
L21473 94687
L21445 94659
L21417 94603
L21417 94434
L21445 94378
L21473 94350
L21529 94322
L21642 94322
L21698 94350
" />
<path d="M22682 94322
L22682 94715
" />
<path d="M22542 94097
L22401 94519
L22767 94519
" />
<path d="M22992 94659
L23020 94687
L22992 94715
L22964 94687
L22992 94659
L22992 94715
" />
<path d="M23385 94125
L23442 94125
L23498 94153
L23526 94181
L23554 94237
L23582 94350
L23582 94491
L23554 94603
L23526 94659
L23498 94687
L23442 94715
L23385 94715
L23329 94687
L23301 94659
L23273 94603
L23245 94491
L23245 94350
L23273 94237
L23301 94181
L23329 94153
L23385 94125
" />
<path d="M23835 94659
L23863 94687
L23835 94715
L23807 94687
L23835 94659
L23835 94715
" />
<path d="M24398 94125
L24116 94125
L24088 94406
L24116 94378
L24173 94350
L24313 94350
L24370 94378
L24398 94406
L24426 94462
L24426 94603
L24398 94659
L24370 94687
L24313 94715
L24173 94715
L24116 94687
L24088 94659
" />
</g>
<g style="fill:#000000; fill-opacity:0.0; 
stroke:#000000; stroke-width:39.3701; stroke-opacity:1; 
stroke-linecap:round; stroke-linejoin:round;">
</g>
<g style="fill:#000000; fill-opacity:0.0; 
stroke:#000000; stroke-width:59.0551; stroke-opacity:1; 
stroke-linecap:round; stroke-linejoin:round;">
<path d="M12755 92716
L55275 92716
" />
</g>
<g style="fill:#000000; fill-opacity:0.0; 
stroke:#000000; stroke-width:39.3701; stroke-opacity:1; 
stroke-linecap:round; stroke-linejoin:round;">
</g>
<g style="fill:#000000; fill-opacity:0.0; 
stroke:#000000; stroke-width:118.11; stroke-opacity:1; 
stroke-linecap:round; stroke-linejoin:round;">
<path d="M47092 93613
L46895 93332
" />
<path d="M46754 93613
L46754 93023
L46979 93023
L47035 93051
L47064 93079
L47092 93135
L47092 93219
L47064 93276
L47035 93304
L46979 93332
L46754 93332
" />
<path d="M47570 93585
L47514 93613
L47401 93613
L47345 93585
L47317 93529
L47317 93304
L47345 93248
L47401 93219
L47514 93219
L47570 93248
L47598 93304
L47598 93360
L47317 93416
" />
<path d="M47795 93219
L47935 93613
L48076 93219
" />
<path d="M48301 93557
L48329 93585
L48301 93613
L48273 93585
L48301 93557
L48301 93613
" />
<path d="M48301 93248
L48329 93276
L48301 93304
L48273 93276
L48301 93248
L48301 93304
" />
<path d="M49341 93613
L49004 93613
" />
<path d="M49173 93613
L49173 93023
L49116 93107
L49060 93163
L49004 93191
" />
</g>
<g style="fill:#000000; fill-opacity:0.0; 
stroke:#000000; stroke-width:39.3701; stroke-opacity:1; 
stroke-linecap:round; stroke-linejoin:round;">
</g>
<g style="fill:#000000; fill-opacity:0.0; 
stroke:#000000; stroke-width:59.0551; stroke-opacity:1; 
stroke-linecap:round; stroke-linejoin:round;">
<path d="M13262 93585
L13346 93613
L13487 93613
L13543 93585
L13571 93557
L13599 93501
L13599 93444
L13571 93388
L13543 93360
L13487 93332
L13374 93304
L13318 93276
L13290 93248
L13262 93191
L13262 93135
L13290 93079
L13318 93051
L13374 93023
L13515 93023
L13599 93051
" />
<path d="M13852 93613
L13852 93219
" />
<path d="M13852 93023
L13824 93051
L13852 93079
L13880 93051
L13852 93023
L13852 93079
" />
<path d="M14077 93219
L14386 93219
L14077 93613
L14386 93613
" />
<path d="M14836 93585
L14780 93613
L14668 93613
L14611 93585
L14583 93529
L14583 93304
L14611 93248
L14668 93219
L14780 93219
L14836 93248
L14865 93304
L14865 93360
L14583 93416
" />
<path d="M15118 93557
L15146 93585
L15118 93613
L15089 93585
L15118 93557
L15118 93613
" />
<path d="M15118 93248
L15146 93276
L15118 93304
L15089 93276
L15118 93248
L15118 93304
" />
<path d="M15849 93023
L15849 93501
L15877 93557
L15905 93585
L15961 93613
L16074 93613
L16130 93585
L16158 93557
L16186 93501
L16186 93023
" />
<path d="M16439 93585
L16496 93613
L16608 93613
L16664 93585
L16692 93529
L16692 93501
L16664 93444
L16608 93416
L16524 93416
L16467 93388
L16439 93332
L16439 93304
L16467 93248
L16524 93219
L16608 93219
L16664 93248
" />
<path d="M17170 93585
L17114 93613
L17002 93613
L16946 93585
L16917 93529
L16917 93304
L16946 93248
L17002 93219
L17114 93219
L17170 93248
L17199 93304
L17199 93360
L16917 93416
" />
<path d="M17452 93613
L17452 93219
" />
<path d="M17452 93332
L17480 93276
L17508 93248
L17564 93219
L17620 93219
" />
</g>
<g style="fill:#000000; fill-opacity:0.0; 
stroke:#000000; stroke-width:39.3701; stroke-opacity:1; 
stroke-linecap:round; stroke-linejoin:round;">
</g>
<g style="fill:#000000; fill-opacity:0.0; 
stroke:#000000; stroke-width:59.0551; stroke-opacity:1; 
stroke-linecap:round; stroke-linejoin:round;">
<path d="M46754 94715
L46754 94125
" />
<path d="M47289 94715
L47289 94125
" />
<path d="M47289 94687
L47232 94715
L47120 94715
L47064 94687
L47035 94659
L47007 94603
L47007 94434
L47035 94378
L47064 94350
L47120 94322
L47232 94322
L47289 94350
" />
<path d="M47570 94659
L47598 94687
L47570 94715
L47542 94687
L47570 94659
L47570 94715
" />
<path d="M47570 94350
L47598 94378
L47570 94406
L47542 94378
L47570 94350
L47570 94406
" />
<path d="M48610 94715
L48273 94715
" />
<path d="M48442 94715
L48442 94125
L48385 94209
L48329 94266
L48273 94294
" />
<path d="M49285 94097
L48779 94856
" />
<path d="M49791 94715
L49454 94715
" />
<path d="M49623 94715
L49623 94125
L49566 94209
L49510 94266
L49454 94294
" />
</g>
<g style="fill:#000000; fill-opacity:0.0; 
stroke:#000000; stroke-width:39.3701; stroke-opacity:1; 
stroke-linecap:round; stroke-linejoin:round;">
</g>
<g style="fill:#000000; fill-opacity:0.0; 
stroke:#000000; stroke-width:59.0551; stroke-opacity:1; 
stroke-linecap:round; stroke-linejoin:round;">
<path d="M12755 91141
L55275 91141
" />
</g>
<g style="fill:#000000; fill-opacity:0.0; 
stroke:#000000; stroke-width:39.3701; stroke-opacity:1; 
stroke-linecap:round; stroke-linejoin:round;">
</g>
<g style="fill:#000000; fill-opacity:0.0; 
stroke:#000000; stroke-width:157.48; stroke-opacity:1; 
stroke-linecap:round; stroke-linejoin:round;">
<path d="M13327 91419
L13777 91419
" />
<path d="M13454 92206
L13552 91419
" />
<path d="M13941 92206
L14007 91681
" />
<path d="M14040 91419
L13997 91456
L14030 91494
L14072 91456
L14040 91419
L14030 91494
" />
<path d="M14269 91681
L14569 91681
" />
<path d="M14415 91419
L14330 92094
L14358 92169
L14429 92206
L14504 92206
" />
<path d="M14879 92206
L14808 92169
L14780 92094
L14865 91419
" />
<path d="M15483 92169
L15404 92206
L15254 92206
L15183 92169
L15155 92094
L15193 91794
L15239 91719
L15319 91681
L15469 91681
L15539 91719
L15568 91794
L15558 91869
L15174 91944
" />
<path d="M15863 92131
L15896 92169
L15853 92206
L15821 92169
L15863 92131
L15853 92206
" />
<path d="M15914 91719
L15947 91756
L15905 91794
L15872 91756
L15914 91719
L15905 91794
" />
<path d="M16819 91981
L17194 91981
" />
<path d="M16716 92206
L17077 91419
L17241 92206
" />
<path d="M17569 91681
L17470 92469
" />
<path d="M17564 91719
L17644 91681
L17794 91681
L17864 91719
L17897 91756
L17925 91831
L17897 92056
L17850 92131
L17808 92169
L17728 92206
L17578 92206
L17508 92169
" />
<path d="M18281 91681
L18183 92469
" />
<path d="M18277 91719
L18356 91681
L18506 91681
L18577 91719
L18609 91756
L18637 91831
L18609 92056
L18562 92131
L18520 92169
L18441 92206
L18291 92206
L18220 92169
" />
<path d="M19041 92206
L18970 92169
L18942 92094
L19026 91419
" />
<path d="M19645 92169
L19565 92206
L19416 92206
L19345 92169
L19317 92094
L19355 91794
L19401 91719
L19481 91681
L19631 91681
L19701 91719
L19730 91794
L19720 91869
L19336 91944
" />
<path d="M20639 91419
L20728 92206
L20948 91644
L21028 92206
L21314 91419
" />
<path d="M21515 92206
L21614 91419
" />
<path d="M22204 91794
L21942 91794
" />
<path d="M21890 92206
L21989 91419
L22364 91419
" />
<path d="M22565 92206
L22664 91419
" />
<path d="M23540 92206
L23606 91681
" />
<path d="M23596 91756
L23638 91719
L23718 91681
L23831 91681
L23901 91719
L23929 91794
L23877 92206
" />
<path d="M23929 91794
L23976 91719
L24056 91681
L24168 91681
L24238 91719
L24266 91794
L24215 92206
" />
<path d="M24599 92131
L24632 92169
L24590 92206
L24557 92169
L24599 92131
L24590 92206
" />
<path d="M25016 91494
L25059 91456
L25138 91419
L25326 91419
L25396 91456
L25429 91494
L25457 91569
L25448 91644
L25396 91756
L24890 92206
L25377 92206
" />
<path d="M26305 91981
L26680 91981
" />
<path d="M26202 92206
L26563 91419
L26727 92206
" />
<path d="M27327 92206
L27425 91419
" />
<path d="M27332 92169
L27252 92206
L27102 92206
L27032 92169
L26999 92131
L26971 92056
L26999 91831
L27046 91756
L27088 91719
L27168 91681
L27318 91681
L27388 91719
" />
<path d="M28039 92206
L28091 91794
L28063 91719
L27993 91681
L27843 91681
L27763 91719
" />
<path d="M28044 92169
L27964 92206
L27777 92206
L27707 92169
L27679 92094
L27688 92019
L27735 91944
L27814 91906
L28002 91906
L28082 91869
" />
<path d="M28480 91681
L28382 92469
" />
<path d="M28475 91719
L28555 91681
L28705 91681
L28775 91719
L28808 91756
L28836 91831
L28808 92056
L28761 92131
L28719 92169
L28639 92206
L28489 92206
L28419 92169
" />
<path d="M29080 91681
L29380 91681
" />
<path d="M29225 91419
L29141 92094
L29169 92169
L29239 92206
L29314 92206
" />
<path d="M29689 92206
L29619 92169
L29586 92131
L29558 92056
L29586 91831
L29633 91756
L29675 91719
L29755 91681
L29867 91681
L29938 91719
L29970 91756
L29999 91831
L29970 92056
L29924 92131
L29881 92169
L29802 92206
L29689 92206
" />
<path d="M30289 92206
L30355 91681
" />
<path d="M30336 91831
L30383 91756
L30425 91719
L30505 91681
L30580 91681
" />
</g>
<g style="fill:#000000; fill-opacity:0.0; 
stroke:#000000; stroke-width:39.3701; stroke-opacity:1; 
stroke-linecap:round; stroke-linejoin:round;">
</g>
<g style="fill:#000000; fill-opacity:0.0; 
stroke:#000000; stroke-width:59.0551; stroke-opacity:1; 
stroke-linecap:round; stroke-linejoin:round;">
<path d="M13487 90390
L13290 90390
" />
<path d="M13290 90700
L13290 90109
L13571 90109
" />
<path d="M13796 90700
L13796 90306
" />
<path d="M13796 90109
L13768 90137
L13796 90165
L13824 90137
L13796 90109
L13796 90165
" />
<path d="M14161 90700
L14105 90672
L14077 90615
L14077 90109
" />
<path d="M14611 90672
L14555 90700
L14443 90700
L14386 90672
L14358 90615
L14358 90390
L14386 90334
L14443 90306
L14555 90306
L14611 90334
L14640 90390
L14640 90447
L14358 90503
" />
<path d="M14893 90643
L14921 90672
L14893 90700
L14865 90672
L14893 90643
L14893 90700
" />
<path d="M14893 90334
L14921 90362
L14893 90390
L14865 90362
L14893 90334
L14893 90390
" />
<path d="M15568 90306
L15680 90700
L15793 90419
L15905 90700
L16017 90306
" />
<path d="M16242 90700
L16242 90306
" />
<path d="M16242 90109
L16214 90137
L16242 90165
L16271 90137
L16242 90109
L16242 90165
" />
<path d="M16439 90306
L16664 90306
" />
<path d="M16524 90700
L16524 90194
L16552 90137
L16608 90109
L16664 90109
" />
<path d="M16861 90700
L16861 90306
" />
<path d="M16861 90109
L16833 90137
L16861 90165
L16889 90137
L16861 90109
L16861 90165
" />
<path d="M17002 90756
L17452 90756
" />
<path d="M17845 90700
L17845 90390
L17817 90334
L17761 90306
L17649 90306
L17592 90334
" />
<path d="M17845 90672
L17789 90700
L17649 90700
L17592 90672
L17564 90615
L17564 90559
L17592 90503
L17649 90475
L17789 90475
L17845 90447
" />
<path d="M18380 90700
L18380 90109
" />
<path d="M18380 90672
L18323 90700
L18211 90700
L18155 90672
L18127 90643
L18098 90587
L18098 90419
L18127 90362
L18155 90334
L18211 90306
L18323 90306
L18380 90334
" />
<path d="M18914 90700
L18914 90390
L18886 90334
L18830 90306
L18717 90306
L18661 90334
" />
<path d="M18914 90672
L18858 90700
L18717 90700
L18661 90672
L18633 90615
L18633 90559
L18661 90503
L18717 90475
L18858 90475
L18914 90447
" />
<path d="M19195 90306
L19195 90897
" />
<path d="M19195 90334
L19251 90306
L19364 90306
L19420 90334
L19448 90362
L19476 90419
L19476 90587
L19448 90643
L19420 90672
L19364 90700
L19251 90700
L19195 90672
" />
<path d="M19645 90306
L19870 90306
" />
<path d="M19730 90109
L19730 90615
L19758 90672
L19814 90700
L19870 90700
" />
<path d="M20151 90700
L20095 90672
L20067 90643
L20039 90587
L20039 90419
L20067 90362
L20095 90334
L20151 90306
L20236 90306
L20292 90334
L20320 90362
L20348 90419
L20348 90587
L20320 90643
L20292 90672
L20236 90700
L20151 90700
" />
<path d="M20601 90700
L20601 90306
" />
<path d="M20601 90419
L20629 90362
L20658 90334
L20714 90306
L20770 90306
" />
<path d="M20967 90643
L20995 90672
L20967 90700
L20939 90672
L20967 90643
L20967 90700
" />
<path d="M21248 90700
L21248 90109
" />
<path d="M21304 90475
L21473 90700
" />
<path d="M21473 90306
L21248 90531
" />
<path d="M21726 90700
L21726 90306
" />
<path d="M21726 90109
L21698 90137
L21726 90165
L21754 90137
L21726 90109
L21726 90165
" />
<path d="M22260 90672
L22204 90700
L22092 90700
L22035 90672
L22007 90643
L21979 90587
L21979 90419
L22007 90362
L22035 90334
L22092 90306
L22204 90306
L22260 90334
" />
<path d="M22767 90700
L22767 90390
L22739 90334
L22682 90306
L22570 90306
L22514 90334
" />
<path d="M22767 90672
L22710 90700
L22570 90700
L22514 90672
L22485 90615
L22485 90559
L22514 90503
L22570 90475
L22710 90475
L22767 90447
" />
<path d="M23301 90700
L23301 90109
" />
<path d="M23301 90672
L23245 90700
L23132 90700
L23076 90672
L23048 90643
L23020 90587
L23020 90419
L23048 90362
L23076 90334
L23132 90306
L23245 90306
L23301 90334
" />
<path d="M23442 90756
L23892 90756
" />
<path d="M24032 90306
L24032 90897
" />
<path d="M24032 90334
L24088 90306
L24201 90306
L24257 90334
L24285 90362
L24313 90419
L24313 90587
L24285 90643
L24257 90672
L24201 90700
L24088 90700
L24032 90672
" />
<path d="M24820 90672
L24763 90700
L24651 90700
L24595 90672
L24566 90643
L24538 90587
L24538 90419
L24566 90362
L24595 90334
L24651 90306
L24763 90306
L24820 90334
" />
<path d="M25073 90700
L25073 90109
" />
<path d="M25073 90334
L25129 90306
L25241 90306
L25298 90334
L25326 90362
L25354 90419
L25354 90587
L25326 90643
L25298 90672
L25241 90700
L25129 90700
L25073 90672
" />
</g>
<g style="fill:#000000; fill-opacity:0.0; 
stroke:#000000; stroke-width:39.3701; stroke-opacity:1; 
stroke-linecap:round; stroke-linejoin:round;">
</g>
<g style="fill:#000000; fill-opacity:0.0; 
stroke:#000000; stroke-width:59.0551; stroke-opacity:1; 
stroke-linecap:round; stroke-linejoin:round;">
<path d="M12755 88779
L55275 88779
" />
</g>
<g style="fill:#000000; fill-opacity:0.0; 
stroke:#000000; stroke-width:39.3701; stroke-opacity:1; 
stroke-linecap:round; stroke-linejoin:round;">
</g>
<g style="fill:#000000; fill-opacity:0.0; 
stroke:#000000; stroke-width:59.0551; stroke-opacity:1; 
stroke-linecap:round; stroke-linejoin:round;">
<path d="M13262 89609
L13346 89637
L13487 89637
L13543 89609
L13571 89580
L13599 89524
L13599 89468
L13571 89412
L13543 89384
L13487 89356
L13374 89327
L13318 89299
L13290 89271
L13262 89215
L13262 89159
L13290 89102
L13318 89074
L13374 89046
L13515 89046
L13599 89074
" />
<path d="M13852 89637
L13852 89046
" />
<path d="M14105 89637
L14105 89327
L14077 89271
L14021 89243
L13937 89243
L13880 89271
L13852 89299
" />
<path d="M14611 89609
L14555 89637
L14443 89637
L14386 89609
L14358 89552
L14358 89327
L14386 89271
L14443 89243
L14555 89243
L14611 89271
L14640 89327
L14640 89384
L14358 89440
" />
<path d="M15118 89609
L15061 89637
L14949 89637
L14893 89609
L14865 89552
L14865 89327
L14893 89271
L14949 89243
L15061 89243
L15118 89271
L15146 89327
L15146 89384
L14865 89440
" />
<path d="M15314 89243
L15539 89243
" />
<path d="M15399 89046
L15399 89552
L15427 89609
L15483 89637
L15539 89637
" />
<path d="M15736 89580
L15764 89609
L15736 89637
L15708 89609
L15736 89580
L15736 89637
" />
<path d="M15736 89271
L15764 89299
L15736 89327
L15708 89299
L15736 89271
L15736 89327
" />
</g>
<g style="fill:#000000; fill-opacity:0.0; 
stroke:#000000; stroke-width:39.3701; stroke-opacity:1; 
stroke-linecap:round; stroke-linejoin:round;">
</g>
<g style="fill:#000000; fill-opacity:0.0; 
stroke:#000000; stroke-width:118.11; stroke-opacity:1; 
stroke-linecap:round; stroke-linejoin:round;">
<path d="M13290 88456
L13290 87865
L13430 87865
L13515 87893
L13571 87949
L13599 88006
L13627 88118
L13627 88203
L13599 88315
L13571 88371
L13515 88428
L13430 88456
L13290 88456
" />
<path d="M13880 88456
L13880 88062
" />
<path d="M13880 87865
L13852 87893
L13880 87921
L13908 87893
L13880 87865
L13880 87921
" />
<path d="M14415 88062
L14415 88540
L14386 88596
L14358 88624
L14302 88652
L14218 88652
L14161 88624
" />
<path d="M14415 88428
L14358 88456
L14246 88456
L14190 88428
L14161 88399
L14133 88343
L14133 88174
L14161 88118
L14190 88090
L14246 88062
L14358 88062
L14415 88090
" />
<path d="M14696 88456
L14696 88062
" />
<path d="M14696 87865
L14668 87893
L14696 87921
L14724 87893
L14696 87865
L14696 87921
" />
<path d="M14893 88062
L15118 88062
" />
<path d="M14977 87865
L14977 88371
L15005 88428
L15061 88456
L15118 88456
" />
<path d="M15568 88456
L15568 88146
L15539 88090
L15483 88062
L15371 88062
L15314 88090
" />
<path d="M15568 88428
L15511 88456
L15371 88456
L15314 88428
L15286 88371
L15286 88315
L15314 88259
L15371 88231
L15511 88231
L15568 88203
" />
<path d="M15933 88456
L15877 88428
L15849 88371
L15849 87865
" />
<path d="M16496 88399
L16467 88428
L16383 88456
L16327 88456
L16242 88428
L16186 88371
L16158 88315
L16130 88203
L16130 88118
L16158 88006
L16186 87949
L16242 87893
L16327 87865
L16383 87865
L16467 87893
L16496 87921
" />
<path d="M17002 88456
L17002 88146
L16974 88090
L16917 88062
L16805 88062
L16749 88090
" />
<path d="M17002 88428
L16946 88456
L16805 88456
L16749 88428
L16721 88371
L16721 88315
L16749 88259
L16805 88231
L16946 88231
L17002 88203
" />
<path d="M17227 88062
L17367 88456
L17508 88062
" />
<path d="M17958 88428
L17902 88456
L17789 88456
L17733 88428
L17705 88371
L17705 88146
L17733 88090
L17789 88062
L17902 88062
L17958 88090
L17986 88146
L17986 88203
L17705 88259
" />
</g>
<g style="fill:#000000; fill-opacity:0.0; 
stroke:#000000; stroke-width:39.3701; stroke-opacity:1; 
stroke-linecap:round; stroke-linejoin:round;">
</g>
<g style="fill:#000000; fill-opacity:0.0; 
stroke:#000000; stroke-width:59.0551; stroke-opacity:1; 
stroke-linecap:round; stroke-linejoin:round;">
<path d="M20629 92716
L20629 93897
" />
</g>
<g style="fill:#000000; fill-opacity:0.0; 
stroke:#000000; stroke-width:39.3701; stroke-opacity:1; 
stroke-linecap:round; stroke-linejoin:round;">
</g>
<g style="fill:#000000; fill-opacity:0.0; 
stroke:#000000; stroke-width:59.0551; stroke-opacity:1; 
stroke-linecap:round; stroke-linejoin:round;">
<path d="M45826 92716
L45826 95275
" />
</g>
<g style="fill:#C2C200; fill-opacity:0.0; 
stroke:#C2C200; stroke-width:59.0551; stroke-opacity:1; 
stroke-linecap:round; stroke-linejoin:round;">
<path d="M21342 57000
L21342 48043
" />
<path d="M13862 48043
L21342 48043
" />
<path d="M13862 32590
L13862 48043
" />
<path d="M21342 32590
L13862 32590
" />
<path d="M11498 56964
L11500 25503
" />
<path d="M21340 56964
L11498 56964
" />
<path d="M21342 25503
L21342 32590
" />
<path d="M11500 25503
L21342 25503
" />
</g>
<g style="fill:#840000; fill-opacity:0.0; 
stroke:#840000; stroke-width:59.0551; stroke-opacity:1; 
stroke-linecap:round; stroke-linejoin:round;">
</g>
<g style="fill:#840000; fill-opacity:0.0; 
stroke:#840000; stroke-width:0; stroke-opacity:1; 
stroke-linecap:round; stroke-linejoin:round;">
</g>
<g style="fill:#840000; fill-opacity:1.0; 
stroke:#840000; stroke-width:0; stroke-opacity:1; 
stroke-linecap:round; stroke-linejoin:round;">
<polyline style="fill-rule:evenodd;"
points="11600,45497
11600,44817
12400,44817
12400,45497
11600,45497
" /> 
</g>
<g style="fill:#840000; fill-opacity:1.0; 
stroke:#840000; stroke-width:680; stroke-opacity:1; 
stroke-linecap:round; stroke-linejoin:round;">
</g>
<g style="fill:#840000; fill-opacity:0.0; 
stroke:#840000; stroke-width:680; stroke-opacity:1; 
stroke-linecap:round; stroke-linejoin:round;">
<path d="M11940 46157
L12060 46157
" />
<path d="M11940 47157
L12060 47157
" />
<path d="M11940 48157
L12060 48157
" />
</g>
<g style="fill:#840000; fill-opacity:0.0; 
stroke:#840000; stroke-width:0; stroke-opacity:1; 
stroke-linecap:round; stroke-linejoin:round;">
</g>
<g style="fill:#840000; fill-opacity:1.0; 
stroke:#840000; stroke-width:0; stroke-opacity:1; 
stroke-linecap:round; stroke-linejoin:round;">
<polyline style="fill-rule:evenodd;"
points="20647,47919
20647,48510
20427,48510
20427,47919
20647,47919
" /> 
<polyline style="fill-rule:evenodd;"
points="20347,47919
20347,48510
20127,48510
20127,47919
20347,47919
" /> 
<polyline style="fill-rule:evenodd;"
points="20047,47919
20047,48510
19827,48510
19827,47919
20047,47919
" /> 
<polyline style="fill-rule:evenodd;"
points="19747,47919
19747,48510
19527,48510
19527,47919
19747,47919
" /> 
<polyline style="fill-rule:evenodd;"
points="19447,47919
19447,48510
19227,48510
19227,47919
19447,47919
" /> 
<polyline style="fill-rule:evenodd;"
points="19147,47919
19147,48510
18927,48510
18927,47919
19147,47919
" /> 
<polyline style="fill-rule:evenodd;"
points="18847,47919
18847,48510
18627,48510
18627,47919
18847,47919
" /> 
<polyline style="fill-rule:evenodd;"
points="18547,47919
18547,48510
18327,48510
18327,47919
18547,47919
" /> 
<polyline style="fill-rule:evenodd;"
points="18247,47919
18247,48510
18027,48510
18027,47919
18247,47919
" /> 
<polyline style="fill-rule:evenodd;"
points="17947,47919
17947,48510
17727,48510
17727,47919
17947,47919
" /> 
<polyline style="fill-rule:evenodd;"
points="17647,47919
17647,48510
17427,48510
17427,47919
17647,47919
" /> 
<polyline style="fill-rule:evenodd;"
points="17347,47919
17347,48510
17127,48510
17127,47919
17347,47919
" /> 
<polyline style="fill-rule:evenodd;"
points="16447,47919
16447,48510
16227,48510
16227,47919
16447,47919
" /> 
<polyline style="fill-rule:evenodd;"
points="16147,47919
16147,48510
15927,48510
15927,47919
16147,47919
" /> 
<polyline style="fill-rule:evenodd;"
points="15847,47919
15847,48510
15627,48510
15627,47919
15847,47919
" /> 
<polyline style="fill-rule:evenodd;"
points="15547,47919
15547,48510
15327,48510
15327,47919
15547,47919
" /> 
<polyline style="fill-rule:evenodd;"
points="15247,47919
15247,48510
15027,48510
15027,47919
15247,47919
" /> 
<polyline style="fill-rule:evenodd;"
points="14947,47919
14947,48510
14727,48510
14727,47919
14947,47919
" /> 
</g>
<g style="fill:#840000; fill-opacity:1.0; 
stroke:#840000; stroke-width:500; stroke-opacity:1; 
stroke-linecap:round; stroke-linejoin:round;">
</g>
<g style="fill:#840000; fill-opacity:0.0; 
stroke:#840000; stroke-width:500; stroke-opacity:1; 
stroke-linecap:round; stroke-linejoin:round;">
<path d="M15437 48957
L15437 48957
" />
<path d="M19037 48957
L19037 48957
" />
</g>
<g style="fill:#840000; fill-opacity:1.0; 
stroke:#840000; stroke-width:0; stroke-opacity:1; 
stroke-linecap:round; stroke-linejoin:round;">
<circle cx="16337" cy="31128.3" r="1000" /> 
</g>
<g style="fill:#840000; fill-opacity:1.0; 
stroke:#840000; stroke-width:39.3701; stroke-opacity:1; 
stroke-linecap:round; stroke-linejoin:round;">
</g>
<g style="fill:#840000; fill-opacity:1.0; 
stroke:#840000; stroke-width:0; stroke-opacity:1; 
stroke-linecap:round; stroke-linejoin:round;">
<circle cx="16420.3" cy="25503.9" r="800" /> 
</g>
<g style="fill:#840000; fill-opacity:1.0; 
stroke:#840000; stroke-width:39.3701; stroke-opacity:1; 
stroke-linecap:round; stroke-linejoin:round;">
</g>
<g style="fill:#FFFFFF; fill-opacity:1.0; 
stroke:#FFFFFF; stroke-width:39.3701; stroke-opacity:1; 
stroke-linecap:round; stroke-linejoin:round;">
</g>
<g style="fill:#FFFFFF; fill-opacity:1.0; 
stroke:#FFFFFF; stroke-width:0; stroke-opacity:1; 
stroke-linecap:round; stroke-linejoin:round;">
<circle cx="12000" cy="45157.5" r="200" /> 
</g>
<g style="fill:#FFFFFF; fill-opacity:1.0; 
stroke:#FFFFFF; stroke-width:39.3701; stroke-opacity:1; 
stroke-linecap:round; stroke-linejoin:round;">
</g>
<g style="fill:#FFFFFF; fill-opacity:1.0; 
stroke:#FFFFFF; stroke-width:0; stroke-opacity:1; 
stroke-linecap:round; stroke-linejoin:round;">
<circle cx="12000" cy="46157.5" r="200" /> 
</g>
<g style="fill:#FFFFFF; fill-opacity:1.0; 
stroke:#FFFFFF; stroke-width:39.3701; stroke-opacity:1; 
stroke-linecap:round; stroke-linejoin:round;">
</g>
<g style="fill:#FFFFFF; fill-opacity:1.0; 
stroke:#FFFFFF; stroke-width:0; stroke-opacity:1; 
stroke-linecap:round; stroke-linejoin:round;">
<circle cx="12000" cy="47157.5" r="200" /> 
</g>
<g style="fill:#FFFFFF; fill-opacity:1.0; 
stroke:#FFFFFF; stroke-width:39.3701; stroke-opacity:1; 
stroke-linecap:round; stroke-linejoin:round;">
</g>
<g style="fill:#FFFFFF; fill-opacity:1.0; 
stroke:#FFFFFF; stroke-width:0; stroke-opacity:1; 
stroke-linecap:round; stroke-linejoin:round;">
<circle cx="12000" cy="48157.5" r="200" /> 
</g>
<g style="fill:#FFFFFF; fill-opacity:1.0; 
stroke:#FFFFFF; stroke-width:39.3701; stroke-opacity:1; 
stroke-linecap:round; stroke-linejoin:round;">
</g>
<g style="fill:#FFFFFF; fill-opacity:1.0; 
stroke:#FFFFFF; stroke-width:0; stroke-opacity:1; 
stroke-linecap:round; stroke-linejoin:round;">
<circle cx="20537" cy="48057.5" r="85" /> 
</g>
<g style="fill:#FFFFFF; fill-opacity:1.0; 
stroke:#FFFFFF; stroke-width:39.3701; stroke-opacity:1; 
stroke-linecap:round; stroke-linejoin:round;">
</g>
<g style="fill:#FFFFFF; fill-opacity:1.0; 
stroke:#FFFFFF; stroke-width:0; stroke-opacity:1; 
stroke-linecap:round; stroke-linejoin:round;">
<circle cx="20237" cy="48057.5" r="85" /> 
</g>
<g style="fill:#FFFFFF; fill-opacity:1.0; 
stroke:#FFFFFF; stroke-width:39.3701; stroke-opacity:1; 
stroke-linecap:round; stroke-linejoin:round;">
</g>
<g style="fill:#FFFFFF; fill-opacity:1.0; 
stroke:#FFFFFF; stroke-width:0; stroke-opacity:1; 
stroke-linecap:round; stroke-linejoin:round;">
<circle cx="19937" cy="48057.5" r="85" /> 
</g>
<g style="fill:#FFFFFF; fill-opacity:1.0; 
stroke:#FFFFFF; stroke-width:39.3701; stroke-opacity:1; 
stroke-linecap:round; stroke-linejoin:round;">
</g>
<g style="fill:#FFFFFF; fill-opacity:1.0; 
stroke:#FFFFFF; stroke-width:0; stroke-opacity:1; 
stroke-linecap:round; stroke-linejoin:round;">
<circle cx="19637" cy="48057.5" r="85" /> 
</g>
<g style="fill:#FFFFFF; fill-opacity:1.0; 
stroke:#FFFFFF; stroke-width:39.3701; stroke-opacity:1; 
stroke-linecap:round; stroke-linejoin:round;">
</g>
<g style="fill:#FFFFFF; fill-opacity:1.0; 
stroke:#FFFFFF; stroke-width:0; stroke-opacity:1; 
stroke-linecap:round; stroke-linejoin:round;">
<circle cx="19337" cy="48057.5" r="85" /> 
</g>
<g style="fill:#FFFFFF; fill-opacity:1.0; 
stroke:#FFFFFF; stroke-width:39.3701; stroke-opacity:1; 
stroke-linecap:round; stroke-linejoin:round;">
</g>
<g style="fill:#FFFFFF; fill-opacity:1.0; 
stroke:#FFFFFF; stroke-width:0; stroke-opacity:1; 
stroke-linecap:round; stroke-linejoin:round;">
<circle cx="19037" cy="48057.5" r="85" /> 
</g>
<g style="fill:#FFFFFF; fill-opacity:1.0; 
stroke:#FFFFFF; stroke-width:39.3701; stroke-opacity:1; 
stroke-linecap:round; stroke-linejoin:round;">
</g>
<g style="fill:#FFFFFF; fill-opacity:1.0; 
stroke:#FFFFFF; stroke-width:0; stroke-opacity:1; 
stroke-linecap:round; stroke-linejoin:round;">
<circle cx="18737" cy="48057.5" r="85" /> 
</g>
<g style="fill:#FFFFFF; fill-opacity:1.0; 
stroke:#FFFFFF; stroke-width:39.3701; stroke-opacity:1; 
stroke-linecap:round; stroke-linejoin:round;">
</g>
<g style="fill:#FFFFFF; fill-opacity:1.0; 
stroke:#FFFFFF; stroke-width:0; stroke-opacity:1; 
stroke-linecap:round; stroke-linejoin:round;">
<circle cx="18437" cy="48057.5" r="85" /> 
</g>
<g style="fill:#FFFFFF; fill-opacity:1.0; 
stroke:#FFFFFF; stroke-width:39.3701; stroke-opacity:1; 
stroke-linecap:round; stroke-linejoin:round;">
</g>
<g style="fill:#FFFFFF; fill-opacity:1.0; 
stroke:#FFFFFF; stroke-width:0; stroke-opacity:1; 
stroke-linecap:round; stroke-linejoin:round;">
<circle cx="18137" cy="48057.5" r="85" /> 
</g>
<g style="fill:#FFFFFF; fill-opacity:1.0; 
stroke:#FFFFFF; stroke-width:39.3701; stroke-opacity:1; 
stroke-linecap:round; stroke-linejoin:round;">
</g>
<g style="fill:#FFFFFF; fill-opacity:1.0; 
stroke:#FFFFFF; stroke-width:0; stroke-opacity:1; 
stroke-linecap:round; stroke-linejoin:round;">
<circle cx="17837" cy="48057.5" r="85" /> 
</g>
<g style="fill:#FFFFFF; fill-opacity:1.0; 
stroke:#FFFFFF; stroke-width:39.3701; stroke-opacity:1; 
stroke-linecap:round; stroke-linejoin:round;">
</g>
<g style="fill:#FFFFFF; fill-opacity:1.0; 
stroke:#FFFFFF; stroke-width:0; stroke-opacity:1; 
stroke-linecap:round; stroke-linejoin:round;">
<circle cx="17537" cy="48057.5" r="85" /> 
</g>
<g style="fill:#FFFFFF; fill-opacity:1.0; 
stroke:#FFFFFF; stroke-width:39.3701; stroke-opacity:1; 
stroke-linecap:round; stroke-linejoin:round;">
</g>
<g style="fill:#FFFFFF; fill-opacity:1.0; 
stroke:#FFFFFF; stroke-width:0; stroke-opacity:1; 
stroke-linecap:round; stroke-linejoin:round;">
<circle cx="17237" cy="48057.5" r="85" /> 
</g>
<g style="fill:#FFFFFF; fill-opacity:1.0; 
stroke:#FFFFFF; stroke-width:39.3701; stroke-opacity:1; 
stroke-linecap:round; stroke-linejoin:round;">
</g>
<g style="fill:#FFFFFF; fill-opacity:1.0; 
stroke:#FFFFFF; stroke-width:0; stroke-opacity:1; 
stroke-linecap:round; stroke-linejoin:round;">
<circle cx="16337" cy="48057.5" r="85" /> 
</g>
<g style="fill:#FFFFFF; fill-opacity:1.0; 
stroke:#FFFFFF; stroke-width:39.3701; stroke-opacity:1; 
stroke-linecap:round; stroke-linejoin:round;">
</g>
<g style="fill:#FFFFFF; fill-opacity:1.0; 
stroke:#FFFFFF; stroke-width:0; stroke-opacity:1; 
stroke-linecap:round; stroke-linejoin:round;">
<circle cx="16037" cy="48057.5" r="85" /> 
</g>
<g style="fill:#FFFFFF; fill-opacity:1.0; 
stroke:#FFFFFF; stroke-width:39.3701; stroke-opacity:1; 
stroke-linecap:round; stroke-linejoin:round;">
</g>
<g style="fill:#FFFFFF; fill-opacity:1.0; 
stroke:#FFFFFF; stroke-width:0; stroke-opacity:1; 
stroke-linecap:round; stroke-linejoin:round;">
<circle cx="15737" cy="48057.5" r="85" /> 
</g>
<g style="fill:#FFFFFF; fill-opacity:1.0; 
stroke:#FFFFFF; stroke-width:39.3701; stroke-opacity:1; 
stroke-linecap:round; stroke-linejoin:round;">
</g>
<g style="fill:#FFFFFF; fill-opacity:1.0; 
stroke:#FFFFFF; stroke-width:0; stroke-opacity:1; 
stroke-linecap:round; stroke-linejoin:round;">
<circle cx="15437" cy="48057.5" r="85" /> 
</g>
<g style="fill:#FFFFFF; fill-opacity:1.0; 
stroke:#FFFFFF; stroke-width:39.3701; stroke-opacity:1; 
stroke-linecap:round; stroke-linejoin:round;">
</g>
<g style="fill:#FFFFFF; fill-opacity:1.0; 
stroke:#FFFFFF; stroke-width:0; stroke-opacity:1; 
stroke-linecap:round; stroke-linejoin:round;">
<circle cx="15137" cy="48057.5" r="85" /> 
</g>
<g style="fill:#FFFFFF; fill-opacity:1.0; 
stroke:#FFFFFF; stroke-width:39.3701; stroke-opacity:1; 
stroke-linecap:round; stroke-linejoin:round;">
</g>
<g style="fill:#FFFFFF; fill-opacity:1.0; 
stroke:#FFFFFF; stroke-width:0; stroke-opacity:1; 
stroke-linecap:round; stroke-linejoin:round;">
<circle cx="14837" cy="48057.5" r="85" /> 
</g>
<g style="fill:#FFFFFF; fill-opacity:1.0; 
stroke:#FFFFFF; stroke-width:39.3701; stroke-opacity:1; 
stroke-linecap:round; stroke-linejoin:round;">
</g>
<g style="fill:#FFFFFF; fill-opacity:1.0; 
stroke:#FFFFFF; stroke-width:0; stroke-opacity:1; 
stroke-linecap:round; stroke-linejoin:round;">
<circle cx="15437" cy="48957.5" r="150" /> 
</g>
<g style="fill:#FFFFFF; fill-opacity:1.0; 
stroke:#FFFFFF; stroke-width:39.3701; stroke-opacity:1; 
stroke-linecap:round; stroke-linejoin:round;">
</g>
<g style="fill:#FFFFFF; fill-opacity:1.0; 
stroke:#FFFFFF; stroke-width:0; stroke-opacity:1; 
stroke-linecap:round; stroke-linejoin:round;">
<circle cx="19037" cy="48957.5" r="150" /> 
</g>
<g style="fill:#FFFFFF; fill-opacity:1.0; 
stroke:#FFFFFF; stroke-width:39.3701; stroke-opacity:1; 
stroke-linecap:round; stroke-linejoin:round;">
</g>
<g style="fill:#FFFFFF; fill-opacity:1.0; 
stroke:#FFFFFF; stroke-width:0; stroke-opacity:1; 
stroke-linecap:round; stroke-linejoin:round;">
<circle cx="16337" cy="31128.3" r="750" /> 
</g>
<g style="fill:#FFFFFF; fill-opacity:1.0; 
stroke:#FFFFFF; stroke-width:39.3701; stroke-opacity:1; 
stroke-linecap:round; stroke-linejoin:round;">
</g>
<g style="fill:#FFFFFF; fill-opacity:1.0; 
stroke:#FFFFFF; stroke-width:0; stroke-opacity:1; 
stroke-linecap:round; stroke-linejoin:round;">
<circle cx="16420.3" cy="25503.9" r="725" /> 
</g>
<g style="fill:#FFFFFF; fill-opacity:1.0; 
stroke:#FFFFFF; stroke-width:39.3701; stroke-opacity:1; 
stroke-linecap:round; stroke-linejoin:round;">
</g>
<g style="fill:#000000; fill-opacity:1.0; 
stroke:#000000; stroke-width:39.3701; stroke-opacity:1; 
stroke-linecap:round; stroke-linejoin:round;">
</g> 
</svg>
