<?xml version="1.0" standalone="no"?>
 <!DOCTYPE svg PUBLIC "-//W3C//DTD SVG 1.1//EN" 
 "http://www.w3.org/Graphics/SVG/1.1/DTD/svg11.dtd"> 
<svg xmlns="http://www.w3.org/2000/svg" version="1.1" 
    width="3.34518cm" height="9.27608cm" viewBox="0 0 13170 36520 ">
<title>SVG Picture created as wifi_adaptor-F.SilkS.svg date 2017/09/13 12:38:48 </title>
  <desc>Picture generated by PCBNEW </desc>
<g style="fill:#000000; fill-opacity:1;stroke:#000000; stroke-opacity:1;
stroke-linecap:round; stroke-linejoin:round; "
 transform="translate(0 0) scale(1 1)">
</g>
<g style="fill:#000000; fill-opacity:0.0; 
stroke:#000000; stroke-width:-0.000393701; stroke-opacity:1; 
stroke-linecap:round; stroke-linejoin:round;">
</g>
<g style="fill:#000000; fill-opacity:0.0; 
stroke:#000000; stroke-width:75; stroke-opacity:1; 
stroke-linecap:round; stroke-linejoin:round;">
<path d="M6514 35381
L6514 35081
L6614 35296
L6714 35081
L6714 35381
" />
<path d="M6857 35353
L6871 35367
L6857 35381
L6843 35367
L6857 35353
L6857 35381
" />
<path d="M6985 35110
L7000 35096
L7028 35081
L7100 35081
L7128 35096
L7143 35110
L7157 35138
L7157 35167
L7143 35210
L6971 35381
L7157 35381
" />
<path d="M7214 35410
L7443 35410
" />
<path d="M7685 35353
L7671 35367
L7628 35381
L7600 35381
L7557 35367
L7528 35338
L7514 35310
L7500 35253
L7500 35210
L7514 35153
L7528 35124
L7557 35096
L7600 35081
L7628 35081
L7671 35096
L7685 35110
" />
<path d="M7871 35081
L7928 35081
L7957 35096
L7985 35124
L8000 35181
L8000 35281
L7985 35338
L7957 35367
L7928 35381
L7871 35381
L7843 35367
L7814 35338
L7800 35281
L7800 35181
L7814 35124
L7843 35096
L7871 35081
" />
<path d="M8128 35381
L8128 35081
L8300 35381
L8300 35081
" />
<path d="M8443 35381
L8443 35081
L8614 35381
L8614 35081
" />
<path d="M8757 35224
L8857 35224
" />
<path d="M8900 35381
L8757 35381
L8757 35081
L8900 35081
" />
<path d="M9200 35353
L9185 35367
L9143 35381
L9114 35381
L9071 35367
L9043 35338
L9028 35310
L9014 35253
L9014 35210
L9028 35153
L9043 35124
L9071 35096
L9114 35081
L9143 35081
L9185 35096
L9200 35110
" />
<path d="M9285 35081
L9457 35081
" />
<path d="M9371 35381
L9371 35081
" />
<path d="M9614 35081
L9671 35081
L9700 35096
L9728 35124
L9743 35181
L9743 35281
L9728 35338
L9700 35367
L9671 35381
L9614 35381
L9585 35367
L9557 35338
L9543 35281
L9543 35181
L9557 35124
L9585 35096
L9614 35081
" />
<path d="M10043 35381
L9943 35238
" />
<path d="M9871 35381
L9871 35081
L9985 35081
L10014 35096
L10028 35110
L10043 35138
L10043 35181
L10028 35210
L10014 35224
L9985 35238
L9871 35238
" />
<path d="M9543 30346
L9514 30331
L9471 30331
L9428 30346
L9400 30374
L9385 30403
L9371 30460
L9371 30503
L9385 30560
L9400 30588
L9428 30617
L9471 30631
L9500 30631
L9543 30617
L9557 30603
L9557 30503
L9500 30503
" />
<path d="M9685 30631
L9685 30331
L9857 30631
L9857 30331
" />
<path d="M10000 30631
L10000 30331
L10071 30331
L10114 30346
L10143 30374
L10157 30403
L10171 30460
L10171 30503
L10157 30560
L10143 30588
L10114 30617
L10071 30631
L10000 30631
" />
<path d="M7543 30346
L7514 30331
L7471 30331
L7428 30346
L7400 30374
L7385 30403
L7371 30460
L7371 30503
L7385 30560
L7400 30588
L7428 30617
L7471 30631
L7500 30631
L7543 30617
L7557 30603
L7557 30503
L7500 30503
" />
<path d="M7685 30631
L7685 30331
L7857 30631
L7857 30331
" />
<path d="M8000 30631
L8000 30331
L8071 30331
L8114 30346
L8143 30374
L8157 30403
L8171 30460
L8171 30503
L8157 30560
L8143 30588
L8114 30617
L8071 30631
L8000 30631
" />
<path d="M12407 33110
L12407 33253
L12107 33253
" />
<path d="M12250 33010
L12250 32910
" />
<path d="M12407 32867
L12407 33010
L12107 33010
L12107 32867
" />
<path d="M12407 32738
L12107 32738
L12107 32667
L12121 32624
L12150 32596
L12178 32581
L12235 32567
L12278 32567
L12335 32581
L12364 32596
L12393 32624
L12407 32667
L12407 32738
" />
<path d="M12435 32510
L12435 32281
" />
<path d="M12250 32110
L12264 32067
L12278 32053
L12307 32038
L12350 32038
L12378 32053
L12393 32067
L12407 32096
L12407 32210
L12107 32210
L12107 32110
L12121 32081
L12135 32067
L12164 32053
L12193 32053
L12221 32067
L12235 32081
L12250 32110
L12250 32210
" />
<path d="M12407 31738
L12264 31838
" />
<path d="M12407 31910
L12107 31910
L12107 31796
L12121 31767
L12135 31753
L12164 31738
L12207 31738
L12235 31753
L12250 31767
L12264 31796
L12264 31910
" />
<path d="M12407 31610
L12107 31610
" />
<path d="M12407 31467
L12107 31467
L12107 31396
L12121 31353
L12150 31324
L12178 31310
L12235 31296
L12278 31296
L12335 31310
L12364 31324
L12393 31353
L12407 31396
L12407 31467
" />
<path d="M12121 31010
L12107 31038
L12107 31081
L12121 31124
L12150 31153
L12178 31167
L12235 31181
L12278 31181
L12335 31167
L12364 31153
L12393 31124
L12407 31081
L12407 31053
L12393 31010
L12378 30996
L12278 30996
L12278 31053
" />
<path d="M12250 30867
L12250 30767
" />
<path d="M12407 30724
L12407 30867
L12107 30867
L12107 30724
" />
<path d="M6507 29631
L6507 29331
L6578 29331
L6621 29346
L6650 29374
L6664 29403
L6678 29460
L6678 29503
L6664 29560
L6650 29588
L6621 29617
L6578 29631
L6507 29631
" />
<path d="M6807 29517
L7035 29517
" />
<path d="M6507 30131
L6507 29831
L6578 29831
L6621 29846
L6650 29874
L6664 29903
L6678 29960
L6678 30003
L6664 30060
L6650 30088
L6621 30117
L6578 30131
L6507 30131
" />
<path d="M6807 30017
L7035 30017
" />
<path d="M6921 30131
L6921 29903
" />
<path d="M6543 30846
L6514 30831
L6471 30831
L6428 30846
L6400 30874
L6385 30903
L6371 30960
L6371 31003
L6385 31060
L6400 31088
L6428 31117
L6471 31131
L6500 31131
L6543 31117
L6557 31103
L6557 31003
L6500 31003
" />
<path d="M6685 31131
L6685 30831
L6857 31131
L6857 30831
" />
<path d="M7000 31131
L7000 30831
L7071 30831
L7114 30846
L7143 30874
L7157 30903
L7171 30960
L7171 31003
L7157 31060
L7143 31088
L7114 31117
L7071 31131
L7000 31131
" />
</g>
<g style="fill:#000000; fill-opacity:0.0; 
stroke:#000000; stroke-width:59.0551; stroke-opacity:1; 
stroke-linecap:round; stroke-linejoin:round;">
<path d="M10708 35708
L10708 36496
" />
<path d="M11299 35708
L11299 36496
" />
<path d="M12440 36496
L11299 36496
" />
<path d="M12440 35708
L12440 36496
" />
<path d="M4763 36496
L10708 36496
" />
<path d="M4763 35708
L4763 36496
" />
<path d="M12637.8 35511.8 A196.85 196.85 0.0 0 0 12440.9 35708.7 " />
<path d="M4763.78 35708.7 A196.85 196.85 0.0 0 0 4566.93 35511.8 " />
<path d="M11299.2 35708.7 A295.276 295.276 0.0 0 0 10708.7 35708.7 " />
<path d="M12933.1 27834.6 A295.276 295.276 0.0 0 0 12637.8 27539.4 " />
<path d="M12637.8 35511.8 A295.276 295.276 0.0 0 0 12933.1 35216.5 " />
<path d="M4271.65 35216.5 A295.276 295.276 0.0 0 0 4566.93 35511.8 " />
<path d="M4566.93 5000 A295.276 295.276 0.0 0 0 4271.65 5295.28 " />
<path d="M12933.1 5295.28 A295.276 295.276 0.0 0 0 12637.8 5000 " />
<path d="M12637.8 12086.6 A295.276 295.276 0.0 0 0 12933.1 11791.3 " />
<path d="M6043.31 27244.1 A295.276 295.276 0.0 0 0 6338.58 27539.4 " />
<path d="M6338.58 12086.6 A295.276 295.276 0.0 0 0 6043.31 12381.9 " />
<path d="M12933 35216
L12933 27834
" />
<path d="M6338 27539
L12637 27539
" />
<path d="M6043 12381
L6043 27244
" />
<path d="M12637 12086
L6338 12086
" />
<path d="M4271 35216
L4271 5295
" />
<path d="M12933 5295
L12933 11791
" />
<path d="M4566 5000
L12637 5000
" />
</g>
<g style="fill:#000000; fill-opacity:0.0; 
stroke:#000000; stroke-width:75; stroke-opacity:1; 
stroke-linecap:round; stroke-linejoin:round;">
<path d="M4893 32331
L4893 32574
L4907 32603
L4921 32617
L4950 32631
L5007 32631
L5035 32617
L5050 32603
L5064 32574
L5064 32331
" />
<path d="M5193 32617
L5235 32631
L5307 32631
L5335 32617
L5350 32603
L5364 32574
L5364 32546
L5350 32517
L5335 32503
L5307 32488
L5250 32474
L5221 32460
L5207 32446
L5193 32417
L5193 32388
L5207 32360
L5221 32346
L5250 32331
L5321 32331
L5364 32346
" />
<path d="M5593 32474
L5635 32488
L5650 32503
L5664 32531
L5664 32574
L5650 32603
L5635 32617
L5607 32631
L5493 32631
L5493 32331
L5593 32331
L5621 32346
L5635 32360
L5650 32388
L5650 32417
L5635 32446
L5621 32460
L5593 32474
L5493 32474
" />
<path d="M7143 28546
L7285 28546
" />
<path d="M7114 28631
L7214 28331
L7314 28631
" />
<path d="M7414 28631
L7414 28331
L7528 28331
L7557 28346
L7571 28360
L7585 28388
L7585 28431
L7571 28460
L7557 28474
L7528 28488
L7414 28488
" />
<path d="M7714 28631
L7714 28331
L7828 28331
L7857 28346
L7871 28360
L7885 28388
L7885 28431
L7871 28460
L7857 28474
L7828 28488
L7714 28488
" />
<path d="M8157 28631
L8014 28631
L8014 28331
" />
<path d="M8257 28474
L8357 28474
" />
<path d="M8400 28631
L8257 28631
L8257 28331
L8400 28331
" />
<path d="M8457 28660
L8685 28660
" />
<path d="M8728 28331
L8800 28631
L8857 28417
L8914 28631
L8985 28331
" />
<path d="M9100 28631
L9100 28331
" />
<path d="M9343 28474
L9243 28474
" />
<path d="M9243 28631
L9243 28331
L9385 28331
" />
<path d="M9500 28631
L9500 28331
" />
<path d="M9571 28660
L9800 28660
" />
<path d="M10043 28603
L10028 28617
L9985 28631
L9957 28631
L9914 28617
L9885 28588
L9871 28560
L9857 28503
L9857 28460
L9871 28403
L9885 28374
L9914 28346
L9957 28331
L9985 28331
L10028 28346
L10043 28360
" />
<path d="M10157 28546
L10300 28546
" />
<path d="M10128 28631
L10228 28331
L10328 28631
" />
<path d="M10600 28631
L10500 28488
" />
<path d="M10428 28631
L10428 28331
L10543 28331
L10571 28346
L10585 28360
L10600 28388
L10600 28431
L10585 28460
L10571 28474
L10543 28488
L10428 28488
" />
<path d="M10728 28631
L10728 28331
L10800 28331
L10843 28346
L10871 28374
L10885 28403
L10900 28460
L10900 28503
L10885 28560
L10871 28588
L10843 28617
L10800 28631
L10728 28631
" />
</g>
<g style="fill:#000000; fill-opacity:0.0; 
stroke:#000000; stroke-width:59.0551; stroke-opacity:1; 
stroke-linecap:round; stroke-linejoin:round;">
<path d="M9680 20626
L9699 20645
L9718 20701
L9718 20738
L9699 20795
L9662 20832
L9624 20851
L9549 20870
L9493 20870
L9418 20851
L9380 20832
L9343 20795
L9324 20738
L9324 20701
L9343 20645
L9362 20626
" />
<path d="M9324 20457
L9643 20457
L9680 20438
L9699 20420
L9718 20382
L9718 20307
L9699 20270
L9680 20251
L9643 20232
L9324 20232
" />
<path d="M9324 20101
L9324 19876
" />
<path d="M9718 19988
L9324 19988
" />
<path d="M9324 19370
L9324 19295
L9343 19257
L9380 19220
L9455 19201
L9587 19201
L9662 19220
L9699 19257
L9718 19295
L9718 19370
L9699 19407
L9662 19445
L9587 19463
L9455 19463
L9380 19445
L9343 19407
L9324 19370
" />
<path d="M9324 19032
L9643 19032
L9680 19013
L9699 18995
L9718 18957
L9718 18882
L9699 18845
L9680 18826
L9643 18807
L9324 18807
" />
<path d="M9324 18676
L9324 18451
" />
<path d="M9718 18564
L9324 18564
" />
</g>
<g style="fill:#000000; fill-opacity:0.0; 
stroke:#000000; stroke-width:45; stroke-opacity:1; 
stroke-linecap:round; stroke-linejoin:round;">
<path d="M11762 31886
L11781 31886
L11800 31896
L11809 31905
L11819 31924
L11828 31962
L11828 32010
L11819 32048
L11809 32067
L11800 32077
L11781 32086
L11762 32086
L11743 32077
L11733 32067
L11724 32048
L11714 32010
L11714 31962
L11724 31924
L11733 31905
L11743 31896
L11762 31886
" />
</g>
<g style="fill:#000000; fill-opacity:0.0; 
stroke:#000000; stroke-width:59.0551; stroke-opacity:1; 
stroke-linecap:round; stroke-linejoin:round;">
<path d="M5603 25585
L7571 27553
" />
<path d="M9540 11805
L13083 14955
" />
<path d="M7571 11805
L13083 17317
" />
<path d="M5603 11805
L13083 19285
" />
<path d="M5603 13774
L13083 21254
" />
<path d="M5603 15742
L13083 23222
" />
<path d="M5603 17711
L13083 25191
" />
<path d="M5603 19679
L13083 27159
" />
<path d="M5603 21648
L11508 27553
" />
<path d="M5603 23616
L9540 27553
" />
<path d="M13083 11805
L13083 27553
" />
<path d="M5603 11805
L5603 27553
" />
<path d="M5603 11805
L13083 11805
" />
<path d="M5603 27553
L13083 27553
" />
</g>
<g style="fill:#000000; fill-opacity:0.0; 
stroke:#000000; stroke-width:60; stroke-opacity:1; 
stroke-linecap:round; stroke-linejoin:round;">
<path d="M11571 32446
L11971 32446
" />
<path d="M11971 32446
L11971 31546
" />
<path d="M11971 31546
L11571 31546
" />
<path d="M11571 31546
L11571 32446
" />
</g>
<g style="fill:#000000; fill-opacity:0.0; 
stroke:#000000; stroke-width:20; stroke-opacity:1; 
stroke-linecap:round; stroke-linejoin:round;">
<circle cx="8602.36" cy="5000" r="1250" /> 
</g>
<g style="fill:#000000; fill-opacity:0.0; 
stroke:#000000; stroke-width:59.0551; stroke-opacity:1; 
stroke-linecap:round; stroke-linejoin:round;">
<path d="M8271 33746
L8471 33746
" />
<path d="M8471 33746
L8471 33946
" />
<path d="M8471 33946
L8271 33946
" />
<path d="M8271 33946
L8271 33746
" />
<path d="M7971 33746
L8171 33746
" />
<path d="M8171 33746
L8171 33946
" />
<path d="M8171 33946
L7971 33946
" />
<path d="M7971 33946
L7971 33746
" />
<path d="M7671 33746
L7871 33746
" />
<path d="M7871 33746
L7871 33946
" />
<path d="M7871 33946
L7671 33946
" />
<path d="M7671 33946
L7671 33746
" />
<path d="M7371 33746
L7571 33746
" />
<path d="M7571 33746
L7571 33946
" />
<path d="M7571 33946
L7371 33946
" />
<path d="M7371 33946
L7371 33746
" />
<path d="M7071 33746
L7271 33746
" />
<path d="M7271 33746
L7271 33946
" />
<path d="M7271 33946
L7071 33946
" />
<path d="M7071 33946
L7071 33746
" />
<path d="M6821 33496
L7021 33496
" />
<path d="M7021 33496
L7021 33696
" />
<path d="M7021 33696
L6821 33696
" />
<path d="M6821 33696
L6821 33496
" />
<path d="M7021 33196
L7021 33396
" />
<path d="M7021 33396
L6821 33396
" />
<path d="M6821 33396
L6821 33196
" />
<path d="M6821 33196
L7021 33196
" />
<path d="M7021 32896
L7021 33096
" />
<path d="M7021 33096
L6821 33096
" />
<path d="M6821 33096
L6821 32896
" />
<path d="M6821 32896
L7021 32896
" />
<path d="M7271 32646
L7271 32846
" />
<path d="M7271 32846
L7071 32846
" />
<path d="M7071 32846
L7071 32646
" />
<path d="M7071 32646
L7271 32646
" />
<path d="M7571 32846
L7571 32646
" />
<path d="M7571 32646
L7371 32646
" />
<path d="M7371 32646
L7371 32846
" />
<path d="M7371 32846
L7571 32846
" />
<path d="M7871 32646
L7871 32846
" />
<path d="M7871 32846
L7671 32846
" />
<path d="M7671 32846
L7671 32646
" />
<path d="M7671 32646
L7871 32646
" />
<path d="M8171 32846
L8171 32646
" />
<path d="M8171 32646
L7971 32646
" />
<path d="M7971 32646
L7971 32846
" />
<path d="M7971 32846
L8171 32846
" />
<path d="M7571 33396
L7571 33196
" />
<path d="M7571 33196
L7371 33196
" />
<path d="M7371 33196
L7371 33396
" />
<path d="M7371 33396
L7571 33396
" />
<path d="M7871 33396
L7671 33396
" />
<path d="M7671 33396
L7671 33196
" />
<path d="M7871 33396
L7871 33196
" />
<path d="M7871 33196
L7671 33196
" />
<path d="M8171 33196
L8171 33396
" />
<path d="M8171 33396
L7971 33396
" />
<path d="M7971 33396
L7971 33196
" />
<path d="M7971 33196
L8171 33196
" />
<path d="M8471 33196
L8471 33396
" />
<path d="M8471 33396
L8271 33396
" />
<path d="M8271 33396
L8271 33196
" />
<path d="M8271 33196
L8471 33196
" />
<path d="M8521 32946
L8721 32946
" />
<path d="M8721 32946
L8721 33146
" />
<path d="M8721 33146
L8521 33146
" />
<path d="M8521 33146
L8521 32946
" />
<path d="M8521 32646
L8721 32646
" />
<path d="M8721 32646
L8721 32846
" />
<path d="M8721 32846
L8521 32846
" />
<path d="M8521 32846
L8521 32646
" />
<path d="M8521 32346
L8721 32346
" />
<path d="M8721 32346
L8721 32546
" />
<path d="M8721 32546
L8521 32546
" />
<path d="M8521 32546
L8521 32346
" />
<path d="M8271 32096
L8271 32296
" />
<path d="M8271 32296
L8471 32296
" />
<path d="M8471 32296
L8471 32096
" />
<path d="M8471 32096
L8271 32096
" />
<path d="M7971 32096
L7971 32296
" />
<path d="M7971 32296
L8171 32296
" />
<path d="M8171 32296
L8171 32096
" />
<path d="M8171 32096
L7971 32096
" />
<path d="M7671 32096
L7671 32296
" />
<path d="M7671 32296
L7871 32296
" />
<path d="M7871 32296
L7871 32096
" />
<path d="M7871 32096
L7671 32096
" />
<path d="M7371 32096
L7371 32296
" />
<path d="M7371 32296
L7571 32296
" />
<path d="M7571 32296
L7571 32096
" />
<path d="M7571 32096
L7371 32096
" />
<path d="M7071 32096
L7071 32296
" />
<path d="M7071 32296
L7271 32296
" />
<path d="M7271 32296
L7271 32096
" />
<path d="M7271 32096
L7071 32096
" />
</g>
<g style="fill:#000000; fill-opacity:1.0; 
stroke:#000000; stroke-width:0; stroke-opacity:1; 
stroke-linecap:round; stroke-linejoin:round;">
<circle cx="8602.36" cy="5000" r="1250" /> 
</g>
<g style="fill:#000000; fill-opacity:1.0; 
stroke:#000000; stroke-width:39.3701; stroke-opacity:1; 
stroke-linecap:round; stroke-linejoin:round;">
</g> 
</svg>
